,note,step,duration,channel,velocity
0,66.0,9.0,270.0,4.0,64.0
1,66.0,7.0,270.0,5.0,64.0
2,54.0,23.0,20.0,3.0,64.0
3,94.0,19.0,120.0,1.0,64.0
4,66.0,2.0,240.0,6.0,64.0
5,85.0,5.0,120.0,0.0,64.0
6,54.0,19.0,2190.0,10.0,64.0
7,90.0,4.0,90.0,2.0,64.0
8,54.0,27.0,15.0,3.0,64.0
9,54.0,24.0,20.0,3.0,64.0
10,54.0,13.0,15.0,3.0,64.0
11,54.0,13.0,15.0,3.0,64.0
12,54.0,20.0,15.0,3.0,64.0
13,54.0,33.0,15.0,3.0,64.0
14,54.0,19.0,15.0,3.0,64.0
15,73.0,3.0,30.0,7.0,64.0
16,54.0,32.0,15.0,3.0,64.0
17,54.0,2.0,20.0,3.0,64.0
18,73.0,17.0,60.0,7.0,64.0
19,54.0,30.0,15.0,3.0,64.0
20,70.0,2.0,30.0,4.0,64.0
21,54.0,5.0,15.0,3.0,64.0
22,70.0,3.0,30.0,6.0,64.0
23,70.0,24.0,30.0,5.0,64.0
24,54.0,1.0,15.0,3.0,64.0
25,54.0,29.0,15.0,3.0,64.0
26,68.0,0.0,30.0,4.0,64.0
27,68.0,6.0,30.0,6.0,64.0
28,68.0,19.0,30.0,5.0,64.0
29,54.0,2.0,15.0,3.0,64.0
30,54.0,28.0,20.0,3.0,64.0
31,66.0,3.0,30.0,6.0,64.0
32,66.0,4.0,30.0,4.0,64.0
33,70.0,0.0,30.0,7.0,64.0
34,66.0,12.0,30.0,5.0,64.0
35,54.0,1.0,15.0,3.0,64.0
36,73.0,30.0,30.0,8.0,64.0
37,54.0,1.0,15.0,3.0,64.0
38,73.0,4.0,60.0,8.0,64.0
39,94.0,16.0,120.0,1.0,64.0
40,75.0,3.0,270.0,6.0,64.0
41,90.0,10.0,90.0,2.0,64.0
42,75.0,5.0,270.0,4.0,64.0
43,70.0,20.0,60.0,7.0,64.0
44,85.0,5.0,120.0,0.0,64.0
45,54.0,22.0,15.0,3.0,64.0
46,75.0,16.0,270.0,5.0,64.0
47,54.0,30.0,15.0,3.0,64.0
48,54.0,0.0,15.0,3.0,64.0
49,54.0,15.0,15.0,3.0,64.0
50,54.0,6.0,15.0,3.0,64.0
51,54.0,23.0,15.0,3.0,64.0
52,54.0,26.0,15.0,3.0,64.0
53,66.0,8.0,30.0,7.0,64.0
54,54.0,17.0,15.0,3.0,64.0
55,70.0,14.0,30.0,8.0,64.0
56,54.0,11.0,15.0,3.0,64.0
57,54.0,26.0,15.0,3.0,64.0
58,66.0,16.0,60.0,7.0,64.0
59,70.0,2.0,60.0,8.0,64.0
60,54.0,2.0,15.0,3.0,64.0
61,54.0,7.0,15.0,3.0,64.0
62,78.0,9.0,30.0,6.0,64.0
63,78.0,0.0,30.0,4.0,64.0
64,54.0,19.0,15.0,3.0,64.0
65,78.0,26.0,30.0,5.0,64.0
66,54.0,3.0,15.0,3.0,64.0
67,54.0,19.0,15.0,3.0,64.0
68,77.0,2.0,30.0,6.0,64.0
69,77.0,2.0,30.0,4.0,64.0
70,77.0,25.0,30.0,5.0,64.0
71,54.0,5.0,15.0,3.0,64.0
72,75.0,2.0,30.0,7.0,64.0
73,54.0,16.0,15.0,3.0,64.0
74,75.0,8.0,60.0,4.0,64.0
75,75.0,0.0,30.0,6.0,64.0
76,66.0,15.0,30.0,8.0,64.0
77,75.0,1.0,60.0,5.0,64.0
78,54.0,8.0,15.0,3.0,64.0
79,54.0,23.0,15.0,3.0,64.0
80,66.0,1.0,90.0,8.0,64.0
81,75.0,6.0,60.0,7.0,64.0
82,54.0,26.0,15.0,3.0,64.0
83,83.0,1.0,270.0,5.0,64.0
84,90.0,19.0,90.0,2.0,64.0
85,95.0,15.0,120.0,1.0,64.0
86,83.0,30.0,270.0,6.0,64.0
87,83.0,7.0,270.0,4.0,64.0
88,87.0,4.0,120.0,0.0,64.0
89,54.0,21.0,15.0,3.0,64.0
90,54.0,22.0,15.0,3.0,64.0
91,54.0,7.0,15.0,3.0,64.0
92,54.0,5.0,15.0,3.0,64.0
93,54.0,26.0,15.0,3.0,64.0
94,54.0,23.0,15.0,3.0,64.0
95,54.0,24.0,15.0,3.0,64.0
96,71.0,3.0,30.0,7.0,64.0
97,75.0,19.0,30.0,8.0,64.0
98,54.0,8.0,15.0,3.0,64.0
99,54.0,14.0,15.0,3.0,64.0
100,75.0,10.0,60.0,8.0,64.0
101,71.0,12.0,60.0,7.0,64.0
102,54.0,0.0,15.0,3.0,64.0
103,54.0,2.0,15.0,3.0,64.0
104,80.0,1.0,30.0,6.0,64.0
105,80.0,0.0,30.0,5.0,64.0
106,80.0,13.0,30.0,4.0,64.0
107,54.0,13.0,15.0,3.0,64.0
108,54.0,23.0,15.0,3.0,64.0
109,82.0,5.0,30.0,6.0,64.0
110,82.0,1.0,30.0,5.0,64.0
111,82.0,10.0,30.0,4.0,64.0
112,54.0,11.0,15.0,3.0,64.0
113,54.0,22.0,15.0,3.0,64.0
114,83.0,0.0,30.0,6.0,64.0
115,83.0,2.0,30.0,5.0,64.0
116,54.0,22.0,15.0,3.0,64.0
117,68.0,6.0,30.0,7.0,64.0
118,83.0,2.0,30.0,4.0,64.0
119,71.0,13.0,30.0,8.0,64.0
120,54.0,2.0,15.0,3.0,64.0
121,54.0,51.0,15.0,3.0,64.0
122,77.0,2.0,270.0,5.0,64.0
123,77.0,6.0,270.0,6.0,64.0
124,71.0,12.0,60.0,8.0,64.0
125,92.0,12.0,120.0,1.0,64.0
126,83.0,1.0,120.0,0.0,64.0
127,68.0,25.0,60.0,7.0,64.0
128,77.0,25.0,270.0,4.0,64.0
129,85.0,8.0,120.0,2.0,64.0
130,54.0,21.0,30.0,3.0,64.0
131,54.0,17.0,30.0,3.0,64.0
132,54.0,23.0,15.0,3.0,64.0
133,54.0,29.0,15.0,3.0,64.0
134,54.0,25.0,15.0,3.0,64.0
135,80.0,4.0,30.0,7.0,64.0
136,71.0,19.0,30.0,8.0,64.0
137,54.0,2.0,15.0,3.0,64.0
138,54.0,21.0,15.0,3.0,64.0
139,71.0,5.0,60.0,8.0,64.0
140,80.0,10.0,60.0,7.0,64.0
141,54.0,0.0,15.0,3.0,64.0
142,54.0,9.0,15.0,3.0,64.0
143,73.0,8.0,30.0,6.0,64.0
144,73.0,4.0,30.0,5.0,64.0
145,73.0,16.0,30.0,4.0,64.0
146,54.0,7.0,15.0,3.0,64.0
147,54.0,24.0,20.0,3.0,64.0
148,75.0,5.0,30.0,6.0,64.0
149,75.0,0.0,30.0,5.0,64.0
150,75.0,19.0,30.0,4.0,64.0
151,54.0,7.0,20.0,3.0,64.0
152,54.0,38.0,15.0,3.0,64.0
153,77.0,2.0,30.0,5.0,64.0
154,77.0,1.0,30.0,6.0,64.0
155,77.0,1.0,30.0,7.0,64.0
156,68.0,7.0,30.0,8.0,64.0
157,77.0,2.0,30.0,4.0,64.0
158,54.0,60.0,30.0,3.0,64.0
159,71.0,129.0,60.0,8.0,64.0
160,68.0,4.0,360.0,5.0,64.0
161,77.0,1.0,60.0,7.0,64.0
162,68.0,16.0,360.0,4.0,64.0
163,68.0,15.0,330.0,6.0,64.0
164,54.0,17.0,30.0,3.0,64.0
165,54.0,19.0,20.0,3.0,64.0
166,65.0,7.0,30.0,8.0,64.0
167,71.0,5.0,30.0,7.0,64.0
168,85.0,0.0,30.0,2.0,64.0
169,92.0,1.0,30.0,1.0,64.0
170,83.0,27.0,30.0,0.0,64.0
171,54.0,38.0,20.0,3.0,64.0
172,65.0,4.0,90.0,8.0,64.0
173,71.0,4.0,60.0,7.0,64.0
174,92.0,2.0,90.0,1.0,64.0
175,85.0,0.0,60.0,2.0,64.0
176,83.0,3.0,60.0,0.0,64.0
177,54.0,1.0,20.0,3.0,64.0
178,58.0,30.0,30.0,10.0,64.0
179,56.0,52.0,30.0,10.0,64.0
180,54.0,11.0,20.0,3.0,64.0
181,54.0,7.0,30.0,10.0,64.0
182,83.0,0.0,30.0,7.0,64.0
183,80.0,4.0,30.0,0.0,64.0
184,85.0,1.0,30.0,2.0,64.0
185,97.0,3.0,30.0,1.0,64.0
186,68.0,1.0,60.0,6.0,64.0
187,54.0,1.0,20.0,3.0,64.0
188,68.0,10.0,30.0,8.0,64.0
189,68.0,63.0,60.0,5.0,64.0
190,68.0,2.0,30.0,4.0,64.0
191,61.0,9.0,60.0,8.0,64.0
192,53.0,9.0,90.0,10.0,64.0
193,83.0,2.0,60.0,7.0,64.0
194,97.0,3.0,90.0,1.0,64.0
195,85.0,2.0,90.0,2.0,64.0
196,80.0,2.0,90.0,0.0,64.0
197,80.0,4.0,90.0,6.0,64.0
198,80.0,10.0,90.0,4.0,64.0
199,80.0,93.0,90.0,5.0,64.0
200,49.0,10.0,60.0,3.0,64.0
201,80.0,7.0,30.0,7.0,64.0
202,77.0,8.0,30.0,4.0,64.0
203,77.0,0.0,30.0,6.0,64.0
204,77.0,0.0,30.0,5.0,64.0
205,73.0,2.0,30.0,8.0,64.0
206,85.0,0.0,30.0,0.0,64.0
207,56.0,2.0,30.0,10.0,64.0
208,49.0,2.0,20.0,3.0,64.0
209,92.0,3.0,30.0,1.0,64.0
210,85.0,78.0,30.0,2.0,64.0
211,80.0,2.0,60.0,7.0,64.0
212,73.0,0.0,60.0,8.0,64.0
213,73.0,6.0,90.0,4.0,64.0
214,73.0,111.0,90.0,5.0,64.0
215,92.0,3.0,90.0,1.0,64.0
216,73.0,5.0,90.0,6.0,64.0
217,53.0,3.0,60.0,10.0,64.0
218,85.0,2.0,60.0,0.0,64.0
219,49.0,10.0,60.0,3.0,64.0
220,85.0,3.0,90.0,2.0,64.0
221,85.0,4.0,30.0,2.0,64.0
222,92.0,2.0,30.0,1.0,64.0
223,71.0,1.0,30.0,4.0,64.0
224,77.0,2.0,30.0,7.0,64.0
225,73.0,2.0,30.0,8.0,64.0
226,71.0,7.0,30.0,5.0,64.0
227,80.0,6.0,30.0,0.0,64.0
228,49.0,1.0,30.0,10.0,64.0
229,49.0,1.0,30.0,3.0,64.0
230,71.0,33.0,30.0,6.0,64.0
231,73.0,12.0,600.0,8.0,64.0
232,70.0,10.0,90.0,4.0,64.0
233,85.0,5.0,90.0,2.0,64.0
234,90.0,5.0,90.0,1.0,64.0
235,70.0,2.0,90.0,5.0,64.0
236,54.0,10.0,480.0,10.0,64.0
237,78.0,7.0,570.0,7.0,64.0
238,54.0,27.0,20.0,3.0,64.0
239,82.0,6.0,90.0,0.0,64.0
240,70.0,23.0,90.0,6.0,64.0
241,54.0,23.0,15.0,3.0,64.0
242,54.0,2.0,15.0,3.0,64.0
243,54.0,0.0,15.0,3.0,64.0
244,54.0,29.0,15.0,3.0,64.0
245,54.0,24.0,15.0,3.0,64.0
246,54.0,26.0,15.0,3.0,64.0
247,66.0,2.0,60.0,4.0,64.0
248,90.0,5.0,30.0,2.0,64.0
249,66.0,2.0,60.0,6.0,64.0
250,85.0,2.0,30.0,0.0,64.0
251,94.0,5.0,30.0,1.0,64.0
252,66.0,11.0,30.0,5.0,64.0
253,54.0,1.0,15.0,3.0,64.0
254,54.0,34.0,15.0,3.0,64.0
255,90.0,11.0,60.0,2.0,64.0
256,70.0,4.0,90.0,4.0,64.0
257,94.0,2.0,90.0,1.0,64.0
258,85.0,6.0,60.0,0.0,64.0
259,70.0,19.0,90.0,6.0,64.0
260,70.0,23.0,90.0,5.0,64.0
261,54.0,22.0,20.0,3.0,64.0
262,54.0,10.0,15.0,3.0,64.0
263,54.0,2.0,15.0,3.0,64.0
264,54.0,0.0,15.0,3.0,64.0
265,54.0,27.0,15.0,3.0,64.0
266,54.0,26.0,15.0,3.0,64.0
267,54.0,23.0,15.0,3.0,64.0
268,82.0,4.0,30.0,0.0,64.0
269,73.0,2.0,30.0,4.0,64.0
270,85.0,2.0,30.0,2.0,64.0
271,73.0,17.0,30.0,6.0,64.0
272,73.0,0.0,30.0,5.0,64.0
273,90.0,6.0,30.0,1.0,64.0
274,54.0,1.0,15.0,3.0,64.0
275,54.0,10.0,15.0,3.0,64.0
276,85.0,2.0,60.0,2.0,64.0
277,78.0,2.0,90.0,4.0,64.0
278,82.0,12.0,90.0,0.0,64.0
279,90.0,2.0,90.0,1.0,64.0
280,78.0,0.0,90.0,5.0,64.0
281,78.0,0.0,90.0,6.0,64.0
282,54.0,32.0,15.0,3.0,64.0
283,54.0,18.0,15.0,3.0,64.0
284,54.0,4.0,30.0,10.0,64.0
285,54.0,2.0,15.0,3.0,64.0
286,54.0,13.0,15.0,3.0,64.0
287,54.0,22.0,15.0,3.0,64.0
288,53.0,6.0,30.0,10.0,64.0
289,54.0,27.0,15.0,3.0,64.0
290,54.0,27.0,15.0,3.0,64.0
291,51.0,0.0,60.0,10.0,64.0
292,66.0,4.0,30.0,8.0,64.0
293,73.0,2.0,30.0,5.0,64.0
294,70.0,2.0,30.0,7.0,64.0
295,82.0,0.0,30.0,2.0,64.0
296,73.0,4.0,30.0,4.0,64.0
297,78.0,1.0,30.0,0.0,64.0
298,85.0,0.0,30.0,1.0,64.0
299,73.0,14.0,30.0,6.0,64.0
300,54.0,2.0,20.0,3.0,64.0
301,54.0,28.0,20.0,3.0,64.0
302,70.0,3.0,90.0,8.0,64.0
303,49.0,24.0,30.0,10.0,64.0
304,73.0,3.0,90.0,7.0,64.0
305,78.0,3.0,90.0,4.0,64.0
306,85.0,1.0,90.0,1.0,64.0
307,82.0,5.0,60.0,2.0,64.0
308,78.0,19.0,90.0,5.0,64.0
309,78.0,0.0,60.0,0.0,64.0
310,78.0,2.0,90.0,6.0,64.0
311,54.0,4.0,15.0,3.0,64.0
312,54.0,16.0,15.0,3.0,64.0
313,47.0,5.0,30.0,10.0,64.0
314,54.0,3.0,20.0,3.0,64.0
315,54.0,26.0,15.0,3.0,64.0
316,46.0,36.0,30.0,10.0,64.0
317,54.0,12.0,20.0,3.0,64.0
318,54.0,13.0,30.0,3.0,64.0
319,44.0,7.0,30.0,10.0,64.0
320,71.0,4.0,30.0,8.0,64.0
321,80.0,2.0,30.0,4.0,64.0
322,80.0,4.0,30.0,6.0,64.0
323,77.0,0.0,30.0,7.0,64.0
324,80.0,4.0,30.0,5.0,64.0
325,78.0,1.0,30.0,2.0,64.0
326,73.0,1.0,30.0,0.0,64.0
327,82.0,6.0,30.0,1.0,64.0
328,54.0,54.0,20.0,3.0,64.0
329,73.0,0.0,90.0,8.0,64.0
330,82.0,4.0,270.0,4.0,64.0
331,42.0,0.0,450.0,10.0,64.0
332,78.0,1.0,90.0,7.0,64.0
333,82.0,17.0,270.0,5.0,64.0
334,78.0,3.0,90.0,2.0,64.0
335,73.0,23.0,90.0,0.0,64.0
336,82.0,7.0,270.0,6.0,64.0
337,82.0,31.0,90.0,1.0,64.0
338,54.0,35.0,30.0,3.0,64.0
339,54.0,40.0,15.0,3.0,64.0
340,54.0,26.0,20.0,3.0,64.0
341,73.0,4.0,30.0,0.0,64.0
342,85.0,1.0,30.0,2.0,64.0
343,85.0,5.0,30.0,1.0,64.0
344,54.0,7.0,20.0,3.0,64.0
345,82.0,8.0,30.0,7.0,64.0
346,78.0,31.0,30.0,8.0,64.0
347,54.0,17.0,30.0,3.0,64.0
348,73.0,0.0,60.0,0.0,64.0
349,85.0,4.0,60.0,2.0,64.0
350,85.0,9.0,60.0,1.0,64.0
351,78.0,5.0,60.0,8.0,64.0
352,82.0,3.0,60.0,7.0,64.0
353,83.0,10.0,30.0,4.0,64.0
354,83.0,9.0,30.0,6.0,64.0
355,83.0,40.0,30.0,5.0,64.0
356,85.0,14.0,30.0,4.0,64.0
357,85.0,42.0,30.0,5.0,64.0
358,85.0,1.0,30.0,6.0,64.0
359,82.0,1.0,30.0,4.0,64.0
360,82.0,2.0,30.0,5.0,64.0
361,70.0,4.0,30.0,0.0,64.0
362,82.0,2.0,30.0,2.0,64.0
363,82.0,1.0,30.0,1.0,64.0
364,73.0,1.0,30.0,8.0,64.0
365,78.0,12.0,30.0,7.0,64.0
366,82.0,65.0,60.0,6.0,64.0
367,54.0,0.0,20.0,3.0,64.0
368,87.0,5.0,270.0,5.0,64.0
369,87.0,33.0,270.0,4.0,64.0
370,78.0,13.0,90.0,2.0,64.0
371,78.0,91.0,120.0,1.0,64.0
372,66.0,16.0,120.0,0.0,64.0
373,78.0,30.0,60.0,7.0,64.0
374,54.0,99.0,600.0,10.0,64.0
375,70.0,5.0,60.0,8.0,64.0
376,87.0,8.0,270.0,6.0,64.0
377,54.0,12.0,30.0,3.0,64.0
378,75.0,14.0,30.0,7.0,64.0
379,66.0,31.0,30.0,8.0,64.0
380,75.0,4.0,60.0,7.0,64.0
381,66.0,24.0,60.0,8.0,64.0
382,84.0,1.0,30.0,5.0,64.0
383,84.0,1.0,30.0,4.0,64.0
384,84.0,59.0,30.0,6.0,64.0
385,85.0,1.0,30.0,5.0,64.0
386,85.0,3.0,30.0,4.0,64.0
387,85.0,48.0,30.0,6.0,64.0
388,87.0,1.0,30.0,5.0,64.0
389,72.0,4.0,30.0,7.0,64.0
390,87.0,6.0,30.0,4.0,64.0
391,87.0,1.0,30.0,6.0,64.0
392,63.0,94.0,30.0,8.0,64.0
393,80.0,0.0,270.0,5.0,64.0
394,72.0,2.0,90.0,7.0,64.0
395,80.0,36.0,270.0,4.0,64.0
396,63.0,38.0,90.0,8.0,64.0
397,80.0,12.0,270.0,6.0,64.0
398,75.0,10.0,30.0,7.0,64.0
399,54.0,37.0,30.0,10.0,64.0
400,60.0,0.0,30.0,8.0,64.0
401,60.0,11.0,90.0,8.0,64.0
402,75.0,3.0,60.0,7.0,64.0
403,53.0,19.0,90.0,10.0,64.0
404,80.0,2.0,30.0,5.0,64.0
405,80.0,3.0,30.0,4.0,64.0
406,80.0,55.0,30.0,6.0,64.0
407,82.0,1.0,30.0,5.0,64.0
408,82.0,3.0,30.0,4.0,64.0
409,82.0,41.0,30.0,6.0,64.0
410,72.0,6.0,30.0,7.0,64.0
411,84.0,0.0,30.0,5.0,64.0
412,63.0,2.0,30.0,8.0,64.0
413,51.0,109.0,30.0,10.0,64.0
414,84.0,4.0,30.0,4.0,64.0
415,84.0,5.0,30.0,6.0,64.0
416,68.0,56.0,180.0,8.0,64.0
417,85.0,5.0,90.0,5.0,64.0
418,53.0,21.0,150.0,10.0,64.0
419,85.0,4.0,90.0,4.0,64.0
420,68.0,0.0,150.0,7.0,64.0
421,85.0,38.0,90.0,6.0,64.0
422,80.0,3.0,30.0,5.0,64.0
423,80.0,107.0,60.0,6.0,64.0
424,80.0,8.0,30.0,4.0,64.0
425,70.0,55.0,180.0,8.0,64.0
426,77.0,5.0,90.0,5.0,64.0
427,58.0,14.0,150.0,10.0,64.0
428,73.0,51.0,360.0,7.0,64.0
429,77.0,6.0,90.0,4.0,64.0
430,77.0,40.0,90.0,6.0,64.0
431,73.0,9.0,30.0,5.0,64.0
432,73.0,3.0,30.0,4.0,64.0
433,73.0,61.0,30.0,6.0,64.0
434,70.0,3.0,120.0,8.0,64.0
435,51.0,58.0,60.0,10.0,64.0
436,78.0,34.0,360.0,5.0,64.0
437,78.0,11.0,360.0,4.0,64.0
438,78.0,0.0,330.0,6.0,64.0
439,53.0,9.0,30.0,10.0,64.0
440,54.0,56.0,30.0,10.0,64.0
441,56.0,4.0,60.0,10.0,64.0
442,68.0,1.0,30.0,8.0,64.0
443,72.0,57.0,30.0,7.0,64.0
444,58.0,38.0,60.0,10.0,64.0
445,66.0,2.0,90.0,8.0,64.0
446,73.0,17.0,90.0,7.0,64.0
447,60.0,17.0,30.0,10.0,64.0
448,61.0,42.0,30.0,10.0,64.0
449,75.0,4.0,30.0,7.0,64.0
450,58.0,6.0,30.0,10.0,64.0
451,78.0,7.0,30.0,4.0,64.0
452,78.0,1.0,30.0,6.0,64.0
453,78.0,1.0,30.0,5.0,64.0
454,65.0,103.0,30.0,8.0,64.0
455,68.0,3.0,150.0,7.0,64.0
456,63.0,0.0,150.0,8.0,64.0
457,78.0,2.0,150.0,4.0,64.0
458,78.0,7.0,120.0,6.0,64.0
459,78.0,0.0,150.0,5.0,64.0
460,61.0,27.0,60.0,10.0,64.0
461,60.0,18.0,30.0,10.0,64.0
462,61.0,17.0,30.0,10.0,64.0
463,60.0,30.0,20.0,10.0,64.0
464,61.0,11.0,30.0,10.0,64.0
465,80.0,2.0,30.0,6.0,64.0
466,80.0,2.0,30.0,4.0,64.0
467,80.0,17.0,30.0,5.0,64.0
468,60.0,1.0,20.0,10.0,64.0
469,82.0,2.0,30.0,6.0,64.0
470,82.0,18.0,30.0,4.0,64.0
471,82.0,1.0,30.0,5.0,64.0
472,61.0,0.0,30.0,10.0,64.0
473,60.0,27.0,20.0,10.0,64.0
474,75.0,1.0,150.0,7.0,64.0
475,68.0,16.0,210.0,8.0,64.0
476,80.0,6.0,90.0,6.0,64.0
477,80.0,10.0,90.0,4.0,64.0
478,80.0,3.0,120.0,5.0,64.0
479,61.0,14.0,30.0,10.0,64.0
480,60.0,28.0,20.0,10.0,64.0
481,61.0,20.0,30.0,10.0,64.0
482,60.0,2.0,20.0,10.0,64.0
483,61.0,21.0,20.0,10.0,64.0
484,60.0,17.0,20.0,10.0,64.0
485,61.0,20.0,20.0,10.0,64.0
486,60.0,19.0,30.0,10.0,64.0
487,58.0,5.0,30.0,10.0,64.0
488,78.0,6.0,30.0,5.0,64.0
489,78.0,6.0,30.0,4.0,64.0
490,78.0,0.0,30.0,6.0,64.0
491,60.0,114.0,30.0,10.0,64.0
492,77.0,9.0,120.0,5.0,64.0
493,77.0,1.0,120.0,4.0,64.0
494,61.0,55.0,1020.0,10.0,64.0
495,68.0,102.0,120.0,8.0,64.0
496,73.0,0.0,90.0,7.0,64.0
497,77.0,4.0,90.0,6.0,64.0
498,73.0,3.0,30.0,5.0,64.0
499,73.0,10.0,60.0,6.0,64.0
500,73.0,1.0,30.0,4.0,64.0
501,68.0,2.0,30.0,7.0,64.0
502,65.0,95.0,30.0,8.0,64.0
503,77.0,1.0,90.0,5.0,64.0
504,77.0,117.0,90.0,4.0,64.0
505,73.0,2.0,90.0,7.0,64.0
506,77.0,5.0,90.0,6.0,64.0
507,68.0,4.0,90.0,8.0,64.0
508,80.0,2.0,30.0,4.0,64.0
509,80.0,2.0,30.0,5.0,64.0
510,75.0,2.0,30.0,7.0,64.0
511,71.0,104.0,60.0,8.0,64.0
512,80.0,9.0,30.0,6.0,64.0
513,85.0,6.0,150.0,4.0,64.0
514,70.0,49.0,90.0,8.0,64.0
515,76.0,3.0,330.0,7.0,64.0
516,85.0,4.0,150.0,5.0,64.0
517,85.0,56.0,150.0,6.0,64.0
518,83.0,2.0,30.0,5.0,64.0
519,83.0,5.0,30.0,6.0,64.0
520,83.0,12.0,30.0,4.0,64.0
521,67.0,3.0,60.0,8.0,64.0
522,82.0,2.0,30.0,5.0,64.0
523,82.0,0.0,30.0,6.0,64.0
524,82.0,93.0,30.0,4.0,64.0
525,83.0,2.0,90.0,5.0,64.0
526,68.0,9.0,90.0,8.0,64.0
527,83.0,8.0,90.0,4.0,64.0
528,83.0,109.0,90.0,6.0,64.0
529,80.0,3.0,30.0,4.0,64.0
530,76.0,5.0,30.0,7.0,64.0
531,80.0,10.0,30.0,5.0,64.0
532,71.0,0.0,30.0,8.0,64.0
533,80.0,55.0,60.0,6.0,64.0
534,67.0,56.0,150.0,7.0,64.0
535,87.0,12.0,360.0,4.0,64.0
536,87.0,28.0,360.0,5.0,64.0
537,70.0,7.0,150.0,8.0,64.0
538,87.0,23.0,300.0,6.0,64.0
539,59.0,41.0,30.0,10.0,64.0
540,58.0,6.0,30.0,10.0,64.0
541,56.0,65.0,30.0,10.0,64.0
542,55.0,34.0,30.0,10.0,64.0
543,70.0,25.0,180.0,7.0,64.0
544,75.0,5.0,330.0,8.0,64.0
545,53.0,11.0,30.0,10.0,64.0
546,51.0,34.0,30.0,10.0,64.0
547,79.0,10.0,30.0,4.0,64.0
548,49.0,112.0,60.0,10.0,64.0
549,79.0,2.0,30.0,6.0,64.0
550,79.0,1.0,30.0,5.0,64.0
551,80.0,4.0,120.0,4.0,64.0
552,80.0,82.0,120.0,6.0,64.0
553,80.0,0.0,120.0,5.0,64.0
554,47.0,4.0,90.0,10.0,64.0
555,75.0,15.0,90.0,7.0,64.0
556,82.0,4.0,30.0,5.0,64.0
557,47.0,0.0,30.0,10.0,64.0
558,82.0,3.0,30.0,6.0,64.0
559,82.0,3.0,30.0,4.0,64.0
560,68.0,5.0,30.0,8.0,64.0
561,75.0,58.0,30.0,7.0,64.0
562,68.0,0.0,120.0,8.0,64.0
563,83.0,8.0,60.0,5.0,64.0
564,49.0,6.0,90.0,10.0,64.0
565,83.0,7.0,60.0,4.0,64.0
566,76.0,1.0,60.0,7.0,64.0
567,83.0,4.0,60.0,6.0,64.0
568,82.0,7.0,20.0,5.0,64.0
569,82.0,8.0,30.0,4.0,64.0
570,82.0,5.0,30.0,6.0,64.0
571,83.0,8.0,30.0,5.0,64.0
572,83.0,9.0,30.0,4.0,64.0
573,83.0,11.0,30.0,6.0,64.0
574,82.0,0.0,20.0,5.0,64.0
575,82.0,7.0,20.0,4.0,64.0
576,82.0,25.0,20.0,6.0,64.0
577,83.0,1.0,30.0,5.0,64.0
578,83.0,6.0,30.0,4.0,64.0
579,83.0,16.0,30.0,6.0,64.0
580,82.0,0.0,60.0,5.0,64.0
581,82.0,5.0,30.0,4.0,64.0
582,82.0,32.0,30.0,6.0,64.0
583,80.0,3.0,60.0,5.0,64.0
584,80.0,2.0,60.0,4.0,64.0
585,80.0,3.0,30.0,6.0,64.0
586,51.0,0.0,30.0,10.0,64.0
587,75.0,6.0,30.0,7.0,64.0
588,67.0,0.0,30.0,8.0,64.0
589,82.0,7.0,30.0,5.0,64.0
590,82.0,99.0,30.0,4.0,64.0
591,82.0,1.0,30.0,6.0,64.0
592,83.0,3.0,270.0,5.0,64.0
593,44.0,5.0,450.0,10.0,64.0
594,83.0,60.0,270.0,6.0,64.0
595,68.0,120.0,120.0,8.0,64.0
596,83.0,4.0,240.0,4.0,64.0
597,75.0,15.0,90.0,7.0,64.0
598,75.0,6.0,30.0,8.0,64.0
599,80.0,25.0,30.0,7.0,64.0
600,75.0,53.0,90.0,8.0,64.0
601,80.0,1.0,90.0,7.0,64.0
602,82.0,4.0,30.0,4.0,64.0
603,82.0,5.0,30.0,6.0,64.0
604,82.0,2.0,30.0,5.0,64.0
605,80.0,2.0,30.0,5.0,64.0
606,80.0,13.0,30.0,6.0,64.0
607,80.0,35.0,60.0,4.0,64.0
608,78.0,6.0,30.0,5.0,64.0
609,78.0,4.0,30.0,6.0,64.0
610,78.0,3.0,30.0,4.0,64.0
611,75.0,4.0,30.0,7.0,64.0
612,71.0,110.0,30.0,8.0,64.0
613,76.0,122.0,120.0,5.0,64.0
614,76.0,7.0,90.0,4.0,64.0
615,56.0,80.0,630.0,10.0,64.0
616,71.0,1.0,330.0,7.0,64.0
617,68.0,116.0,330.0,8.0,64.0
618,76.0,1.0,90.0,6.0,64.0
619,76.0,5.0,30.0,5.0,64.0
620,76.0,100.0,30.0,6.0,64.0
621,76.0,3.0,30.0,4.0,64.0
622,78.0,5.0,90.0,5.0,64.0
623,78.0,1.0,90.0,4.0,64.0
624,78.0,1.0,90.0,6.0,64.0
625,71.0,8.0,30.0,7.0,64.0
626,66.0,2.0,30.0,8.0,64.0
627,80.0,2.0,30.0,5.0,64.0
628,80.0,147.0,30.0,6.0,64.0
629,80.0,2.0,30.0,4.0,64.0
630,70.0,12.0,330.0,7.0,64.0
631,65.0,108.0,360.0,8.0,64.0
632,75.0,3.0,120.0,5.0,64.0
633,75.0,2.0,120.0,4.0,64.0
634,75.0,14.0,120.0,6.0,64.0
635,74.0,5.0,210.0,5.0,64.0
636,74.0,4.0,210.0,4.0,64.0
637,74.0,3.0,210.0,6.0,64.0
638,59.0,89.0,30.0,10.0,64.0
639,58.0,1.0,90.0,10.0,64.0
640,74.0,11.0,30.0,7.0,64.0
641,56.0,6.0,30.0,10.0,64.0
642,83.0,1.0,30.0,4.0,64.0
643,65.0,5.0,30.0,8.0,64.0
644,83.0,0.0,30.0,6.0,64.0
645,83.0,95.0,30.0,5.0,64.0
646,75.0,0.0,330.0,7.0,64.0
647,54.0,11.0,90.0,10.0,64.0
648,82.0,1.0,90.0,4.0,64.0
649,66.0,97.0,120.0,8.0,64.0
650,82.0,7.0,90.0,5.0,64.0
651,82.0,7.0,90.0,6.0,64.0
652,53.0,7.0,30.0,10.0,64.0
653,80.0,3.0,30.0,4.0,64.0
654,68.0,5.0,30.0,8.0,64.0
655,80.0,7.0,30.0,5.0,64.0
656,80.0,96.0,60.0,6.0,64.0
657,51.0,1.0,120.0,10.0,64.0
658,78.0,11.0,90.0,4.0,64.0
659,70.0,105.0,360.0,8.0,64.0
660,78.0,126.0,90.0,5.0,64.0
661,78.0,0.0,90.0,6.0,64.0
662,50.0,1.0,60.0,10.0,64.0
663,77.0,103.0,60.0,5.0,64.0
664,77.0,3.0,60.0,6.0,64.0
665,77.0,0.0,30.0,4.0,64.0
666,77.0,3.0,30.0,7.0,64.0
667,51.0,0.0,120.0,10.0,64.0
668,78.0,11.0,120.0,5.0,64.0
669,78.0,2.0,90.0,4.0,64.0
670,75.0,7.0,90.0,7.0,64.0
671,78.0,1.0,90.0,6.0,64.0
672,77.0,107.0,60.0,5.0,64.0
673,74.0,2.0,30.0,7.0,64.0
674,53.0,1.0,30.0,10.0,64.0
675,77.0,1.0,60.0,6.0,64.0
676,68.0,1.0,30.0,8.0,64.0
677,77.0,1.0,30.0,4.0,64.0
678,70.0,7.0,120.0,8.0,64.0
679,75.0,96.0,120.0,5.0,64.0
680,75.0,2.0,90.0,4.0,64.0
681,75.0,3.0,90.0,7.0,64.0
682,54.0,0.0,90.0,10.0,64.0
683,75.0,8.0,90.0,6.0,64.0
684,77.0,0.0,60.0,5.0,64.0
685,77.0,86.0,60.0,6.0,64.0
686,77.0,4.0,30.0,4.0,64.0
687,56.0,3.0,30.0,10.0,64.0
688,75.0,6.0,30.0,7.0,64.0
689,71.0,1.0,30.0,8.0,64.0
690,70.0,0.0,180.0,8.0,64.0
691,58.0,2.0,150.0,10.0,64.0
692,78.0,2.0,60.0,5.0,64.0
693,78.0,22.0,60.0,4.0,64.0
694,75.0,1.0,60.0,7.0,64.0
695,78.0,0.0,60.0,6.0,64.0
696,74.0,6.0,30.0,7.0,64.0
697,77.0,20.0,30.0,4.0,64.0
698,77.0,1.0,30.0,5.0,64.0
699,77.0,0.0,30.0,6.0,64.0
700,75.0,8.0,30.0,7.0,64.0
701,78.0,3.0,30.0,4.0,64.0
702,78.0,5.0,30.0,5.0,64.0
703,78.0,2.0,30.0,6.0,64.0
704,74.0,10.0,20.0,7.0,64.0
705,77.0,0.0,20.0,6.0,64.0
706,77.0,2.0,20.0,4.0,64.0
707,77.0,10.0,20.0,5.0,64.0
708,75.0,11.0,20.0,7.0,64.0
709,78.0,1.0,20.0,4.0,64.0
710,78.0,2.0,20.0,6.0,64.0
711,78.0,7.0,20.0,5.0,64.0
712,74.0,8.0,20.0,7.0,64.0
713,77.0,2.0,20.0,4.0,64.0
714,77.0,3.0,20.0,6.0,64.0
715,56.0,4.0,30.0,10.0,64.0
716,77.0,10.0,20.0,5.0,64.0
717,75.0,3.0,30.0,7.0,64.0
718,78.0,4.0,20.0,4.0,64.0
719,78.0,3.0,20.0,6.0,64.0
720,78.0,1.0,20.0,5.0,64.0
721,74.0,8.0,20.0,7.0,64.0
722,54.0,5.0,30.0,10.0,64.0
723,77.0,4.0,30.0,4.0,64.0
724,77.0,1.0,20.0,6.0,64.0
725,77.0,6.0,20.0,5.0,64.0
726,75.0,14.0,30.0,7.0,64.0
727,78.0,3.0,30.0,6.0,64.0
728,78.0,0.0,30.0,4.0,64.0
729,78.0,83.0,30.0,5.0,64.0
730,74.0,13.0,120.0,7.0,64.0
731,56.0,6.0,120.0,10.0,64.0
732,70.0,12.0,180.0,8.0,64.0
733,77.0,8.0,120.0,6.0,64.0
734,77.0,1.0,120.0,4.0,64.0
735,77.0,61.0,120.0,5.0,64.0
736,75.0,1.0,30.0,4.0,64.0
737,75.0,6.0,30.0,6.0,64.0
738,75.0,6.0,30.0,7.0,64.0
739,75.0,2.0,30.0,5.0,64.0
740,58.0,110.0,30.0,10.0,64.0
741,75.0,5.0,240.0,6.0,64.0
742,75.0,4.0,270.0,4.0,64.0
743,75.0,54.0,270.0,5.0,64.0
744,55.0,44.0,510.0,10.0,64.0
745,75.0,118.0,90.0,7.0,64.0
746,70.0,34.0,480.0,8.0,64.0
747,63.0,40.0,30.0,7.0,64.0
748,63.0,17.0,90.0,7.0,64.0
749,75.0,2.0,30.0,6.0,64.0
750,75.0,2.0,30.0,5.0,64.0
751,75.0,61.0,30.0,4.0,64.0
752,73.0,4.0,30.0,6.0,64.0
753,73.0,44.0,60.0,5.0,64.0
754,73.0,2.0,30.0,4.0,64.0
755,72.0,7.0,30.0,5.0,64.0
756,67.0,2.0,30.0,7.0,64.0
757,72.0,0.0,30.0,6.0,64.0
758,72.0,35.0,30.0,4.0,64.0
759,70.0,13.0,330.0,7.0,64.0
760,73.0,56.0,90.0,5.0,64.0
761,73.0,6.0,90.0,4.0,64.0
762,73.0,2.0,90.0,6.0,64.0
763,53.0,0.0,30.0,10.0,64.0
764,51.0,55.0,30.0,10.0,64.0
765,53.0,8.0,30.0,10.0,64.0
766,82.0,14.0,60.0,6.0,64.0
767,82.0,2.0,30.0,5.0,64.0
768,82.0,4.0,30.0,4.0,64.0
769,63.0,33.0,30.0,8.0,64.0
770,55.0,44.0,30.0,10.0,64.0
771,75.0,1.0,90.0,6.0,64.0
772,75.0,0.0,90.0,4.0,64.0
773,75.0,54.0,90.0,5.0,64.0
774,63.0,5.0,90.0,8.0,64.0
775,53.0,3.0,30.0,10.0,64.0
776,55.0,59.0,30.0,10.0,64.0
777,51.0,11.0,30.0,10.0,64.0
778,73.0,6.0,30.0,5.0,64.0
779,73.0,0.0,30.0,4.0,64.0
780,70.0,2.0,30.0,7.0,64.0
781,73.0,0.0,60.0,6.0,64.0
782,67.0,101.0,30.0,8.0,64.0
783,72.0,0.0,90.0,4.0,64.0
784,72.0,1.0,90.0,5.0,64.0
785,68.0,115.0,90.0,7.0,64.0
786,56.0,54.0,510.0,10.0,64.0
787,63.0,11.0,90.0,8.0,64.0
788,72.0,5.0,90.0,6.0,64.0
789,68.0,14.0,60.0,5.0,64.0
790,68.0,2.0,30.0,4.0,64.0
791,68.0,3.0,30.0,6.0,64.0
792,80.0,3.0,30.0,7.0,64.0
793,60.0,86.0,30.0,8.0,64.0
794,80.0,2.0,90.0,7.0,64.0
795,72.0,5.0,90.0,5.0,64.0
796,72.0,3.0,90.0,4.0,64.0
797,72.0,2.0,90.0,6.0,64.0
798,63.0,118.0,90.0,8.0,64.0
799,78.0,6.0,30.0,7.0,64.0
800,75.0,1.0,30.0,4.0,64.0
801,75.0,59.0,30.0,6.0,64.0
802,75.0,1.0,30.0,5.0,64.0
803,68.0,3.0,30.0,8.0,64.0
804,77.0,7.0,90.0,7.0,64.0
805,72.0,0.0,360.0,8.0,64.0
806,80.0,4.0,330.0,4.0,64.0
807,80.0,23.0,360.0,5.0,64.0
808,80.0,7.0,330.0,6.0,64.0
809,54.0,49.0,30.0,10.0,64.0
810,53.0,61.0,30.0,10.0,64.0
811,54.0,2.0,30.0,10.0,64.0
812,77.0,59.0,30.0,7.0,64.0
813,56.0,43.0,30.0,10.0,64.0
814,77.0,9.0,60.0,7.0,64.0
815,54.0,21.0,30.0,10.0,64.0
816,56.0,66.0,30.0,10.0,64.0
817,53.0,4.0,30.0,10.0,64.0
818,80.0,1.0,30.0,4.0,64.0
819,80.0,3.0,30.0,6.0,64.0
820,80.0,0.0,30.0,5.0,64.0
821,75.0,6.0,30.0,7.0,64.0
822,68.0,110.0,30.0,8.0,64.0
823,80.0,8.0,240.0,4.0,64.0
824,80.0,13.0,240.0,6.0,64.0
825,58.0,6.0,510.0,10.0,64.0
826,65.0,120.0,90.0,8.0,64.0
827,80.0,53.0,270.0,5.0,64.0
828,73.0,11.0,300.0,7.0,64.0
829,73.0,31.0,30.0,8.0,64.0
830,73.0,4.0,90.0,8.0,64.0
831,73.0,7.0,30.0,6.0,64.0
832,73.0,4.0,60.0,5.0,64.0
833,73.0,48.0,60.0,4.0,64.0
834,75.0,4.0,30.0,5.0,64.0
835,75.0,2.0,30.0,6.0,64.0
836,75.0,52.0,30.0,4.0,64.0
837,77.0,5.0,30.0,6.0,64.0
838,77.0,0.0,30.0,5.0,64.0
839,71.0,53.0,30.0,8.0,64.0
840,77.0,0.0,30.0,4.0,64.0
841,73.0,0.0,30.0,7.0,64.0
842,78.0,0.0,30.0,6.0,64.0
843,70.0,9.0,90.0,8.0,64.0
844,78.0,2.0,30.0,5.0,64.0
845,78.0,46.0,30.0,4.0,64.0
846,73.0,31.0,360.0,7.0,64.0
847,59.0,1.0,30.0,10.0,64.0
848,77.0,1.0,30.0,5.0,64.0
849,77.0,61.0,30.0,4.0,64.0
850,77.0,0.0,30.0,6.0,64.0
851,58.0,3.0,60.0,10.0,64.0
852,78.0,42.0,60.0,5.0,64.0
853,78.0,3.0,60.0,6.0,64.0
854,78.0,0.0,60.0,4.0,64.0
855,70.0,5.0,30.0,8.0,64.0
856,56.0,4.0,30.0,10.0,64.0
857,80.0,6.0,30.0,5.0,64.0
858,80.0,0.0,60.0,6.0,64.0
859,80.0,53.0,30.0,4.0,64.0
860,70.0,24.0,60.0,8.0,64.0
861,54.0,6.0,30.0,10.0,64.0
862,82.0,6.0,60.0,5.0,64.0
863,82.0,9.0,60.0,4.0,64.0
864,82.0,5.0,60.0,6.0,64.0
865,56.0,10.0,30.0,10.0,64.0
866,80.0,4.0,60.0,5.0,64.0
867,80.0,8.0,30.0,6.0,64.0
868,80.0,2.0,60.0,4.0,64.0
869,54.0,19.0,30.0,10.0,64.0
870,82.0,5.0,30.0,6.0,64.0
871,82.0,1.0,30.0,5.0,64.0
872,82.0,42.0,30.0,4.0,64.0
873,53.0,4.0,60.0,10.0,64.0
874,84.0,0.0,30.0,6.0,64.0
875,73.0,2.0,30.0,7.0,64.0
876,68.0,3.0,30.0,8.0,64.0
877,84.0,7.0,30.0,5.0,64.0
878,84.0,75.0,30.0,4.0,64.0
879,51.0,38.0,270.0,10.0,64.0
880,66.0,113.0,600.0,8.0,64.0
881,85.0,2.0,90.0,6.0,64.0
882,75.0,69.0,90.0,7.0,64.0
883,85.0,7.0,60.0,4.0,64.0
884,85.0,10.0,60.0,5.0,64.0
885,84.0,61.0,90.0,4.0,64.0
886,84.0,8.0,90.0,5.0,64.0
887,84.0,2.0,90.0,6.0,64.0
888,73.0,37.0,30.0,7.0,64.0
889,82.0,3.0,60.0,4.0,64.0
890,82.0,17.0,60.0,5.0,64.0
891,82.0,16.0,90.0,6.0,64.0
892,72.0,13.0,90.0,7.0,64.0
893,51.0,44.0,30.0,10.0,64.0
894,80.0,7.0,90.0,5.0,64.0
895,80.0,3.0,90.0,4.0,64.0
896,80.0,36.0,90.0,6.0,64.0
897,53.0,13.0,30.0,10.0,64.0
898,54.0,17.0,30.0,10.0,64.0
899,70.0,106.0,60.0,7.0,64.0
900,87.0,97.0,360.0,5.0,64.0
901,68.0,5.0,90.0,7.0,64.0
902,48.0,11.0,90.0,10.0,64.0
903,87.0,0.0,330.0,6.0,64.0
904,87.0,5.0,300.0,4.0,64.0
905,44.0,0.0,60.0,10.0,64.0
906,72.0,96.0,60.0,7.0,64.0
907,66.0,9.0,30.0,8.0,64.0
908,46.0,24.0,90.0,10.0,64.0
909,65.0,2.0,90.0,8.0,64.0
910,73.0,1.0,90.0,7.0,64.0
911,78.0,3.0,30.0,6.0,64.0
912,75.0,3.0,30.0,7.0,64.0
913,78.0,3.0,30.0,5.0,64.0
914,48.0,2.0,30.0,10.0,64.0
915,63.0,114.0,30.0,8.0,64.0
916,78.0,0.0,30.0,4.0,64.0
917,49.0,5.0,90.0,10.0,64.0
918,73.0,0.0,330.0,7.0,64.0
919,77.0,78.0,360.0,6.0,64.0
920,77.0,22.0,330.0,5.0,64.0
921,68.0,122.0,90.0,8.0,64.0
922,77.0,4.0,360.0,4.0,64.0
923,51.0,1.0,60.0,10.0,64.0
924,66.0,103.0,30.0,8.0,64.0
925,53.0,4.0,90.0,10.0,64.0
926,68.0,8.0,90.0,8.0,64.0
927,73.0,10.0,30.0,7.0,64.0
928,75.0,76.0,60.0,6.0,64.0
929,75.0,5.0,30.0,5.0,64.0
930,54.0,3.0,30.0,10.0,64.0
931,75.0,2.0,30.0,4.0,64.0
932,70.0,3.0,30.0,8.0,64.0
933,56.0,1.0,180.0,10.0,64.0
934,73.0,0.0,60.0,7.0,64.0
935,77.0,5.0,60.0,5.0,64.0
936,68.0,14.0,180.0,8.0,64.0
937,77.0,4.0,60.0,4.0,64.0
938,77.0,14.0,60.0,6.0,64.0
939,75.0,5.0,30.0,5.0,64.0
940,75.0,1.0,30.0,4.0,64.0
941,75.0,19.0,30.0,6.0,64.0
942,72.0,3.0,20.0,7.0,64.0
943,77.0,7.0,30.0,5.0,64.0
944,73.0,15.0,30.0,7.0,64.0
945,77.0,1.0,30.0,4.0,64.0
946,77.0,0.0,20.0,6.0,64.0
947,75.0,0.0,20.0,5.0,64.0
948,72.0,7.0,20.0,7.0,64.0
949,75.0,14.0,30.0,4.0,64.0
950,75.0,2.0,20.0,6.0,64.0
951,77.0,2.0,20.0,5.0,64.0
952,73.0,1.0,20.0,7.0,64.0
953,77.0,4.0,20.0,6.0,64.0
954,77.0,10.0,20.0,4.0,64.0
955,72.0,7.0,20.0,7.0,64.0
956,75.0,1.0,30.0,5.0,64.0
957,75.0,1.0,20.0,6.0,64.0
958,75.0,1.0,20.0,4.0,64.0
959,73.0,4.0,30.0,7.0,64.0
960,77.0,1.0,20.0,5.0,64.0
961,77.0,5.0,30.0,6.0,64.0
962,77.0,4.0,20.0,4.0,64.0
963,72.0,11.0,20.0,7.0,64.0
964,75.0,2.0,30.0,5.0,64.0
965,75.0,0.0,20.0,6.0,64.0
966,75.0,11.0,20.0,4.0,64.0
967,73.0,11.0,30.0,7.0,64.0
968,77.0,3.0,30.0,5.0,64.0
969,77.0,4.0,30.0,6.0,64.0
970,77.0,104.0,30.0,4.0,64.0
971,72.0,15.0,120.0,7.0,64.0
972,75.0,7.0,120.0,5.0,64.0
973,75.0,22.0,150.0,6.0,64.0
974,75.0,1.0,150.0,4.0,64.0
975,66.0,39.0,180.0,8.0,64.0
976,44.0,7.0,150.0,10.0,64.0
977,73.0,4.0,30.0,6.0,64.0
978,73.0,4.0,30.0,5.0,64.0
979,68.0,0.0,30.0,7.0,64.0
980,73.0,62.0,30.0,4.0,64.0
981,73.0,6.0,240.0,6.0,64.0
982,68.0,15.0,120.0,7.0,64.0
983,65.0,38.0,540.0,8.0,64.0
984,73.0,15.0,240.0,4.0,64.0
985,49.0,49.0,720.0,10.0,64.0
986,73.0,14.0,270.0,5.0,64.0
987,49.0,21.0,20.0,3.0,64.0
988,49.0,25.0,20.0,3.0,64.0
989,49.0,19.0,20.0,3.0,64.0
990,49.0,27.0,15.0,3.0,64.0
991,49.0,2.0,15.0,3.0,64.0
992,49.0,32.0,15.0,3.0,64.0
993,49.0,18.0,15.0,3.0,64.0
994,49.0,26.0,15.0,3.0,64.0
995,92.0,4.0,30.0,2.0,64.0
996,101.0,3.0,30.0,0.0,64.0
997,80.0,0.0,30.0,7.0,64.0
998,97.0,1.0,30.0,1.0,64.0
999,49.0,17.0,15.0,3.0,64.0
1000,49.0,1.0,15.0,3.0,64.0
1001,101.0,1.0,60.0,0.0,64.0
1002,80.0,8.0,90.0,7.0,64.0
1003,92.0,4.0,60.0,2.0,64.0
1004,97.0,1.0,60.0,1.0,64.0
1005,49.0,25.0,15.0,3.0,64.0
1006,49.0,16.0,15.0,3.0,64.0
1007,77.0,19.0,30.0,6.0,64.0
1008,49.0,6.0,15.0,3.0,64.0
1009,49.0,27.0,15.0,3.0,64.0
1010,75.0,10.0,30.0,6.0,64.0
1011,75.0,12.0,60.0,4.0,64.0
1012,49.0,13.0,15.0,3.0,64.0
1013,75.0,6.0,60.0,5.0,64.0
1014,49.0,3.0,15.0,3.0,64.0
1015,77.0,3.0,30.0,4.0,64.0
1016,77.0,19.0,30.0,5.0,64.0
1017,49.0,6.0,15.0,3.0,64.0
1018,73.0,0.0,60.0,6.0,64.0
1019,78.0,3.0,30.0,4.0,64.0
1020,92.0,4.0,30.0,1.0,64.0
1021,77.0,0.0,30.0,7.0,64.0
1022,97.0,1.0,30.0,0.0,64.0
1023,78.0,7.0,30.0,5.0,64.0
1024,85.0,0.0,30.0,2.0,64.0
1025,80.0,8.0,30.0,4.0,64.0
1026,49.0,1.0,20.0,3.0,64.0
1027,80.0,11.0,30.0,5.0,64.0
1028,82.0,4.0,30.0,4.0,64.0
1029,82.0,19.0,30.0,5.0,64.0
1030,83.0,5.0,90.0,4.0,64.0
1031,83.0,13.0,90.0,6.0,64.0
1032,73.0,29.0,270.0,7.0,64.0
1033,83.0,1.0,90.0,5.0,64.0
1034,49.0,11.0,20.0,3.0,64.0
1035,85.0,11.0,90.0,2.0,64.0
1036,97.0,98.0,120.0,0.0,64.0
1037,92.0,4.0,90.0,1.0,64.0
1038,65.0,5.0,60.0,8.0,64.0
1039,80.0,4.0,30.0,6.0,64.0
1040,80.0,1.0,30.0,5.0,64.0
1041,80.0,3.0,30.0,4.0,64.0
1042,49.0,1.0,20.0,3.0,64.0
1043,66.0,10.0,90.0,8.0,64.0
1044,82.0,1.0,60.0,4.0,64.0
1045,82.0,9.0,90.0,6.0,64.0
1046,82.0,2.0,90.0,5.0,64.0
1047,49.0,5.0,30.0,3.0,64.0
1048,51.0,55.0,30.0,10.0,64.0
1049,71.0,1.0,30.0,7.0,64.0
1050,49.0,2.0,30.0,10.0,64.0
1051,70.0,53.0,30.0,7.0,64.0
1052,47.0,5.0,60.0,10.0,64.0
1053,83.0,0.0,30.0,6.0,64.0
1054,68.0,2.0,30.0,7.0,64.0
1055,68.0,42.0,60.0,8.0,64.0
1056,83.0,2.0,30.0,4.0,64.0
1057,49.0,3.0,30.0,3.0,64.0
1058,83.0,1.0,30.0,5.0,64.0
1059,85.0,7.0,360.0,6.0,64.0
1060,46.0,12.0,270.0,10.0,64.0
1061,85.0,1.0,360.0,4.0,64.0
1062,54.0,25.0,20.0,3.0,64.0
1063,70.0,24.0,90.0,8.0,64.0
1064,66.0,3.0,360.0,7.0,64.0
1065,85.0,34.0,360.0,5.0,64.0
1066,54.0,26.0,15.0,3.0,64.0
1067,54.0,24.0,15.0,3.0,64.0
1068,54.0,2.0,15.0,3.0,64.0
1069,54.0,23.0,15.0,3.0,64.0
1070,54.0,30.0,15.0,3.0,64.0
1071,54.0,23.0,15.0,3.0,64.0
1072,85.0,3.0,30.0,2.0,64.0
1073,102.0,0.0,30.0,0.0,64.0
1074,73.0,1.0,30.0,8.0,64.0
1075,94.0,14.0,30.0,1.0,64.0
1076,54.0,15.0,15.0,3.0,64.0
1077,54.0,22.0,15.0,3.0,64.0
1078,54.0,20.0,15.0,3.0,64.0
1079,73.0,21.0,60.0,8.0,64.0
1080,85.0,4.0,60.0,2.0,64.0
1081,102.0,1.0,60.0,0.0,64.0
1082,94.0,1.0,60.0,1.0,64.0
1083,54.0,19.0,15.0,3.0,64.0
1084,54.0,1.0,15.0,3.0,64.0
1085,47.0,7.0,30.0,10.0,64.0
1086,54.0,8.0,15.0,3.0,64.0
1087,54.0,3.0,15.0,3.0,64.0
1088,46.0,12.0,30.0,10.0,64.0
1089,54.0,29.0,30.0,3.0,64.0
1090,82.0,0.0,30.0,2.0,64.0
1091,70.0,1.0,30.0,8.0,64.0
1092,76.0,4.0,30.0,4.0,64.0
1093,76.0,2.0,30.0,6.0,64.0
1094,44.0,1.0,30.0,10.0,64.0
1095,54.0,9.0,15.0,3.0,64.0
1096,61.0,39.0,60.0,7.0,64.0
1097,97.0,1.0,30.0,0.0,64.0
1098,76.0,8.0,30.0,5.0,64.0
1099,90.0,2.0,30.0,1.0,64.0
1100,54.0,8.0,20.0,3.0,64.0
1101,78.0,11.0,60.0,6.0,64.0
1102,78.0,3.0,30.0,4.0,64.0
1103,42.0,8.0,90.0,10.0,64.0
1104,70.0,0.0,150.0,8.0,64.0
1105,82.0,2.0,90.0,2.0,64.0
1106,78.0,2.0,60.0,5.0,64.0
1107,73.0,0.0,90.0,7.0,64.0
1108,90.0,2.0,90.0,1.0,64.0
1109,54.0,4.0,20.0,3.0,64.0
1110,97.0,0.0,90.0,0.0,64.0
1111,76.0,10.0,20.0,6.0,64.0
1112,76.0,2.0,20.0,4.0,64.0
1113,76.0,14.0,20.0,5.0,64.0
1114,78.0,5.0,30.0,4.0,64.0
1115,78.0,6.0,30.0,6.0,64.0
1116,78.0,1.0,20.0,5.0,64.0
1117,76.0,2.0,30.0,4.0,64.0
1118,76.0,3.0,30.0,6.0,64.0
1119,76.0,2.0,20.0,5.0,64.0
1120,78.0,6.0,15.0,4.0,64.0
1121,78.0,9.0,15.0,6.0,64.0
1122,76.0,3.0,15.0,4.0,64.0
1123,78.0,11.0,20.0,5.0,64.0
1124,76.0,7.0,15.0,6.0,64.0
1125,76.0,12.0,20.0,5.0,64.0
1126,78.0,0.0,30.0,4.0,64.0
1127,78.0,13.0,30.0,6.0,64.0
1128,76.0,3.0,30.0,4.0,64.0
1129,76.0,2.0,30.0,6.0,64.0
1130,78.0,3.0,15.0,5.0,64.0
1131,76.0,29.0,20.0,5.0,64.0
1132,71.0,1.0,30.0,7.0,64.0
1133,75.0,3.0,30.0,6.0,64.0
1134,75.0,3.0,30.0,4.0,64.0
1135,75.0,0.0,30.0,5.0,64.0
1136,44.0,15.0,30.0,10.0,64.0
1137,54.0,1.0,30.0,3.0,64.0
1138,76.0,3.0,30.0,6.0,64.0
1139,76.0,48.0,30.0,4.0,64.0
1140,76.0,1.0,30.0,5.0,64.0
1141,78.0,114.0,90.0,6.0,64.0
1142,73.0,2.0,90.0,7.0,64.0
1143,78.0,2.0,90.0,4.0,64.0
1144,46.0,7.0,90.0,10.0,64.0
1145,78.0,2.0,90.0,5.0,64.0
1146,66.0,88.0,360.0,8.0,64.0
1147,54.0,33.0,30.0,3.0,64.0
1148,73.0,4.0,30.0,6.0,64.0
1149,70.0,0.0,30.0,7.0,64.0
1150,54.0,4.0,30.0,3.0,64.0
1151,73.0,1.0,30.0,4.0,64.0
1152,73.0,7.0,30.0,5.0,64.0
1153,42.0,83.0,30.0,10.0,64.0
1154,71.0,23.0,120.0,7.0,64.0
1155,75.0,60.0,270.0,5.0,64.0
1156,75.0,3.0,270.0,6.0,64.0
1157,75.0,0.0,270.0,4.0,64.0
1158,54.0,37.0,60.0,3.0,64.0
1159,47.0,14.0,420.0,10.0,64.0
1160,70.0,12.0,60.0,7.0,64.0
1161,66.0,47.0,30.0,8.0,64.0
1162,71.0,1.0,90.0,7.0,64.0
1163,68.0,1.0,90.0,8.0,64.0
1164,73.0,5.0,30.0,6.0,64.0
1165,73.0,1.0,30.0,5.0,64.0
1166,73.0,41.0,30.0,4.0,64.0
1167,71.0,8.0,30.0,6.0,64.0
1168,71.0,1.0,30.0,5.0,64.0
1169,71.0,42.0,30.0,4.0,64.0
1170,70.0,5.0,60.0,6.0,64.0
1171,70.0,57.0,60.0,5.0,64.0
1172,73.0,0.0,30.0,7.0,64.0
1173,70.0,3.0,30.0,8.0,64.0
1174,70.0,0.0,30.0,4.0,64.0
1175,68.0,8.0,60.0,6.0,64.0
1176,75.0,54.0,120.0,7.0,64.0
1177,71.0,6.0,90.0,8.0,64.0
1178,68.0,46.0,60.0,5.0,64.0
1179,68.0,2.0,60.0,4.0,64.0
1180,59.0,24.0,720.0,10.0,64.0
1181,70.0,0.0,60.0,6.0,64.0
1182,70.0,5.0,30.0,4.0,64.0
1183,70.0,3.0,30.0,5.0,64.0
1184,71.0,9.0,60.0,6.0,64.0
1185,71.0,5.0,60.0,4.0,64.0
1186,71.0,43.0,60.0,5.0,64.0
1187,77.0,0.0,60.0,7.0,64.0
1188,68.0,3.0,60.0,8.0,64.0
1189,73.0,0.0,60.0,6.0,64.0
1190,73.0,4.0,30.0,4.0,64.0
1191,73.0,62.0,30.0,5.0,64.0
1192,75.0,1.0,60.0,6.0,64.0
1193,78.0,8.0,90.0,7.0,64.0
1194,70.0,13.0,90.0,8.0,64.0
1195,75.0,0.0,60.0,4.0,64.0
1196,75.0,29.0,60.0,5.0,64.0
1197,77.0,1.0,60.0,4.0,64.0
1198,77.0,3.0,60.0,6.0,64.0
1199,77.0,54.0,30.0,5.0,64.0
1200,78.0,9.0,60.0,6.0,64.0
1201,78.0,6.0,30.0,4.0,64.0
1202,78.0,32.0,60.0,5.0,64.0
1203,80.0,10.0,30.0,7.0,64.0
1204,75.0,4.0,60.0,6.0,64.0
1205,75.0,3.0,30.0,4.0,64.0
1206,75.0,1.0,60.0,5.0,64.0
1207,71.0,47.0,30.0,8.0,64.0
1208,77.0,2.0,60.0,6.0,64.0
1209,73.0,5.0,90.0,7.0,64.0
1210,77.0,3.0,60.0,4.0,64.0
1211,68.0,22.0,120.0,8.0,64.0
1212,77.0,1.0,60.0,5.0,64.0
1213,49.0,14.0,20.0,3.0,64.0
1214,49.0,29.0,15.0,3.0,64.0
1215,78.0,0.0,60.0,6.0,64.0
1216,78.0,1.0,60.0,4.0,64.0
1217,78.0,4.0,30.0,5.0,64.0
1218,49.0,15.0,20.0,3.0,64.0
1219,49.0,0.0,15.0,3.0,64.0
1220,49.0,21.0,15.0,3.0,64.0
1221,77.0,3.0,60.0,6.0,64.0
1222,77.0,7.0,60.0,4.0,64.0
1223,77.0,10.0,60.0,5.0,64.0
1224,49.0,10.0,15.0,3.0,64.0
1225,49.0,25.0,15.0,3.0,64.0
1226,75.0,3.0,60.0,6.0,64.0
1227,75.0,2.0,60.0,4.0,64.0
1228,68.0,2.0,30.0,7.0,64.0
1229,92.0,36.0,60.0,0.0,64.0
1230,85.0,0.0,30.0,1.0,64.0
1231,73.0,0.0,30.0,8.0,64.0
1232,75.0,1.0,30.0,5.0,64.0
1233,49.0,8.0,20.0,3.0,64.0
1234,49.0,3.0,30.0,3.0,64.0
1235,73.0,15.0,60.0,4.0,64.0
1236,73.0,5.0,60.0,6.0,64.0
1237,73.0,5.0,90.0,8.0,64.0
1238,65.0,7.0,90.0,7.0,64.0
1239,85.0,3.0,90.0,1.0,64.0
1240,73.0,1.0,60.0,5.0,64.0
1241,92.0,5.0,60.0,0.0,64.0
1242,49.0,6.0,15.0,3.0,64.0
1243,75.0,23.0,60.0,4.0,64.0
1244,75.0,1.0,60.0,6.0,64.0
1245,58.0,7.0,30.0,10.0,64.0
1246,75.0,5.0,30.0,5.0,64.0
1247,49.0,0.0,15.0,3.0,64.0
1248,49.0,3.0,15.0,3.0,64.0
1249,77.0,2.0,60.0,4.0,64.0
1250,56.0,4.0,30.0,10.0,64.0
1251,77.0,3.0,60.0,6.0,64.0
1252,49.0,22.0,15.0,3.0,64.0
1253,77.0,21.0,60.0,5.0,64.0
1254,49.0,5.0,15.0,3.0,64.0
1255,49.0,22.0,20.0,3.0,64.0
1256,78.0,0.0,60.0,4.0,64.0
1257,54.0,1.0,30.0,10.0,64.0
1258,78.0,4.0,60.0,6.0,64.0
1259,97.0,6.0,30.0,0.0,64.0
1260,68.0,0.0,30.0,8.0,64.0
1261,61.0,21.0,60.0,7.0,64.0
1262,92.0,0.0,30.0,1.0,64.0
1263,78.0,1.0,30.0,5.0,64.0
1264,49.0,2.0,15.0,3.0,64.0
1265,49.0,37.0,20.0,3.0,64.0
1266,80.0,0.0,60.0,4.0,64.0
1267,80.0,19.0,60.0,6.0,64.0
1268,68.0,7.0,90.0,8.0,64.0
1269,53.0,61.0,90.0,10.0,64.0
1270,97.0,8.0,60.0,0.0,64.0
1271,80.0,4.0,60.0,5.0,64.0
1272,73.0,5.0,90.0,7.0,64.0
1273,92.0,8.0,60.0,1.0,64.0
1274,49.0,5.0,30.0,3.0,64.0
1275,82.0,1.0,60.0,4.0,64.0
1276,82.0,1.0,60.0,6.0,64.0
1277,82.0,1.0,30.0,5.0,64.0
1278,83.0,2.0,60.0,4.0,64.0
1279,83.0,39.0,60.0,6.0,64.0
1280,83.0,1.0,30.0,5.0,64.0
1281,49.0,2.0,30.0,10.0,64.0
1282,65.0,2.0,60.0,8.0,64.0
1283,97.0,5.0,30.0,0.0,64.0
1284,85.0,0.0,30.0,2.0,64.0
1285,85.0,1.0,60.0,4.0,64.0
1286,70.0,47.0,60.0,7.0,64.0
1287,85.0,2.0,60.0,6.0,64.0
1288,49.0,5.0,30.0,3.0,64.0
1289,94.0,0.0,30.0,1.0,64.0
1290,85.0,2.0,30.0,5.0,64.0
1291,51.0,6.0,90.0,10.0,64.0
1292,83.0,3.0,60.0,4.0,64.0
1293,66.0,5.0,90.0,8.0,64.0
1294,95.0,2.0,60.0,0.0,64.0
1295,54.0,19.0,30.0,3.0,64.0
1296,83.0,1.0,60.0,6.0,64.0
1297,94.0,2.0,60.0,1.0,64.0
1298,78.0,5.0,60.0,2.0,64.0
1299,66.0,6.0,60.0,7.0,64.0
1300,83.0,12.0,60.0,5.0,64.0
1301,82.0,8.0,30.0,4.0,64.0
1302,82.0,2.0,30.0,6.0,64.0
1303,82.0,54.0,30.0,5.0,64.0
1304,83.0,3.0,60.0,4.0,64.0
1305,83.0,3.0,60.0,6.0,64.0
1306,83.0,39.0,30.0,5.0,64.0
1307,73.0,2.0,30.0,7.0,64.0
1308,80.0,2.0,60.0,4.0,64.0
1309,97.0,1.0,30.0,0.0,64.0
1310,68.0,2.0,30.0,8.0,64.0
1311,80.0,62.0,60.0,6.0,64.0
1312,85.0,0.0,30.0,2.0,64.0
1313,92.0,6.0,30.0,1.0,64.0
1314,53.0,3.0,30.0,10.0,64.0
1315,80.0,7.0,30.0,5.0,64.0
1316,49.0,1.0,20.0,3.0,64.0
1317,94.0,25.0,90.0,0.0,64.0
1318,82.0,7.0,120.0,4.0,64.0
1319,66.0,3.0,360.0,8.0,64.0
1320,82.0,0.0,120.0,6.0,64.0
1321,73.0,1.0,330.0,7.0,64.0
1322,85.0,1.0,90.0,1.0,64.0
1323,54.0,25.0,60.0,3.0,64.0
1324,54.0,5.0,90.0,10.0,64.0
1325,90.0,5.0,90.0,2.0,64.0
1326,82.0,97.0,120.0,5.0,64.0
1327,56.0,7.0,30.0,10.0,64.0
1328,95.0,6.0,60.0,0.0,64.0
1329,83.0,4.0,60.0,4.0,64.0
1330,83.0,0.0,60.0,6.0,64.0
1331,83.0,96.0,30.0,5.0,64.0
1332,58.0,7.0,90.0,10.0,64.0
1333,97.0,1.0,90.0,0.0,64.0
1334,85.0,6.0,90.0,4.0,64.0
1335,85.0,111.0,90.0,6.0,64.0
1336,85.0,2.0,90.0,5.0,64.0
1337,59.0,7.0,60.0,10.0,64.0
1338,99.0,1.0,30.0,0.0,64.0
1339,87.0,2.0,30.0,6.0,64.0
1340,71.0,5.0,30.0,7.0,64.0
1341,87.0,1.0,30.0,5.0,64.0
1342,66.0,66.0,60.0,8.0,64.0
1343,87.0,0.0,30.0,4.0,64.0
1344,97.0,3.0,90.0,2.0,64.0
1345,68.0,40.0,120.0,7.0,64.0
1346,92.0,5.0,90.0,0.0,64.0
1347,73.0,1.0,90.0,8.0,64.0
1348,61.0,5.0,60.0,10.0,64.0
1349,85.0,3.0,120.0,1.0,64.0
1350,77.0,1.0,120.0,5.0,64.0
1351,77.0,10.0,120.0,4.0,64.0
1352,49.0,34.0,60.0,3.0,64.0
1353,77.0,1.0,120.0,6.0,64.0
1354,63.0,10.0,30.0,10.0,64.0
1355,61.0,49.0,60.0,10.0,64.0
1356,78.0,2.0,60.0,6.0,64.0
1357,97.0,2.0,30.0,0.0,64.0
1358,59.0,1.0,60.0,10.0,64.0
1359,78.0,0.0,30.0,4.0,64.0
1360,78.0,3.0,30.0,5.0,64.0
1361,73.0,2.0,30.0,8.0,64.0
1362,70.0,63.0,30.0,7.0,64.0
1363,90.0,9.0,90.0,0.0,64.0
1364,58.0,5.0,60.0,10.0,64.0
1365,73.0,2.0,90.0,8.0,64.0
1366,80.0,0.0,60.0,6.0,64.0
1367,80.0,6.0,60.0,5.0,64.0
1368,80.0,2.0,60.0,4.0,64.0
1369,70.0,4.0,90.0,7.0,64.0
1370,78.0,7.0,20.0,6.0,64.0
1371,78.0,5.0,20.0,5.0,64.0
1372,78.0,8.0,20.0,4.0,64.0
1373,59.0,7.0,60.0,10.0,64.0
1374,80.0,2.0,30.0,6.0,64.0
1375,80.0,5.0,20.0,5.0,64.0
1376,80.0,2.0,20.0,4.0,64.0
1377,78.0,3.0,30.0,6.0,64.0
1378,78.0,5.0,20.0,5.0,64.0
1379,78.0,7.0,20.0,4.0,64.0
1380,80.0,1.0,20.0,6.0,64.0
1381,80.0,11.0,15.0,5.0,64.0
1382,61.0,6.0,60.0,10.0,64.0
1383,78.0,4.0,20.0,6.0,64.0
1384,80.0,3.0,20.0,4.0,64.0
1385,78.0,3.0,15.0,5.0,64.0
1386,78.0,9.0,15.0,4.0,64.0
1387,80.0,0.0,30.0,6.0,64.0
1388,81.0,5.0,15.0,6.0,64.0
1389,80.0,8.0,30.0,5.0,64.0
1390,80.0,4.0,30.0,4.0,64.0
1391,78.0,5.0,30.0,6.0,64.0
1392,78.0,5.0,30.0,5.0,64.0
1393,78.0,18.0,20.0,4.0,64.0
1394,97.0,3.0,60.0,0.0,64.0
1395,63.0,7.0,60.0,10.0,64.0
1396,77.0,5.0,30.0,6.0,64.0
1397,77.0,5.0,30.0,5.0,64.0
1398,77.0,3.0,30.0,4.0,64.0
1399,70.0,1.0,30.0,8.0,64.0
1400,66.0,9.0,30.0,7.0,64.0
1401,78.0,75.0,30.0,6.0,64.0
1402,78.0,0.0,30.0,5.0,64.0
1403,78.0,1.0,30.0,4.0,64.0
1404,80.0,2.0,90.0,4.0,64.0
1405,80.0,4.0,120.0,6.0,64.0
1406,80.0,3.0,90.0,5.0,64.0
1407,65.0,19.0,60.0,10.0,64.0
1408,68.0,62.0,90.0,8.0,64.0
1409,85.0,3.0,90.0,0.0,64.0
1410,73.0,42.0,330.0,7.0,64.0
1411,63.0,2.0,30.0,10.0,64.0
1412,61.0,39.0,60.0,10.0,64.0
1413,73.0,3.0,60.0,6.0,64.0
1414,73.0,9.0,30.0,4.0,64.0
1415,73.0,1.0,60.0,5.0,64.0
1416,63.0,9.0,30.0,10.0,64.0
1417,66.0,0.0,30.0,8.0,64.0
1418,97.0,0.0,30.0,0.0,64.0
1419,85.0,2.0,30.0,2.0,64.0
1420,49.0,1.0,30.0,3.0,64.0
1421,92.0,54.0,30.0,1.0,64.0
1422,83.0,2.0,90.0,6.0,64.0
1423,83.0,3.0,90.0,4.0,64.0
1424,65.0,19.0,60.0,10.0,64.0
1425,68.0,1.0,60.0,8.0,64.0
1426,83.0,0.0,90.0,5.0,64.0
1427,95.0,3.0,90.0,0.0,64.0
1428,85.0,2.0,60.0,2.0,64.0
1429,92.0,11.0,60.0,1.0,64.0
1430,49.0,11.0,60.0,3.0,64.0
1431,66.0,10.0,30.0,10.0,64.0
1432,68.0,21.0,30.0,10.0,64.0
1433,82.0,11.0,30.0,6.0,64.0
1434,82.0,2.0,30.0,5.0,64.0
1435,82.0,20.0,30.0,4.0,64.0
1436,80.0,0.0,60.0,6.0,64.0
1437,97.0,6.0,30.0,0.0,64.0
1438,65.0,4.0,30.0,10.0,64.0
1439,61.0,6.0,60.0,8.0,64.0
1440,80.0,2.0,60.0,5.0,64.0
1441,85.0,4.0,30.0,2.0,64.0
1442,80.0,1.0,30.0,4.0,64.0
1443,73.0,2.0,30.0,7.0,64.0
1444,92.0,3.0,60.0,1.0,64.0
1445,49.0,0.0,30.0,3.0,64.0
1446,82.0,5.0,30.0,6.0,64.0
1447,82.0,57.0,30.0,5.0,64.0
1448,82.0,2.0,30.0,4.0,64.0
1449,66.0,3.0,150.0,10.0,64.0
1450,83.0,4.0,60.0,5.0,64.0
1451,94.0,2.0,90.0,0.0,64.0
1452,83.0,12.0,60.0,6.0,64.0
1453,83.0,1.0,60.0,4.0,64.0
1454,73.0,13.0,150.0,7.0,64.0
1455,73.0,8.0,180.0,8.0,64.0
1456,85.0,4.0,90.0,2.0,64.0
1457,54.0,4.0,60.0,3.0,64.0
1458,90.0,5.0,90.0,1.0,64.0
1459,82.0,4.0,20.0,4.0,64.0
1460,82.0,4.0,30.0,5.0,64.0
1461,82.0,8.0,30.0,6.0,64.0
1462,83.0,4.0,20.0,4.0,64.0
1463,83.0,6.0,20.0,5.0,64.0
1464,83.0,7.0,30.0,6.0,64.0
1465,82.0,3.0,20.0,4.0,64.0
1466,82.0,5.0,20.0,5.0,64.0
1467,82.0,6.0,15.0,6.0,64.0
1468,83.0,1.0,20.0,4.0,64.0
1469,83.0,6.0,20.0,5.0,64.0
1470,83.0,4.0,30.0,6.0,64.0
1471,82.0,3.0,15.0,4.0,64.0
1472,82.0,4.0,15.0,5.0,64.0
1473,82.0,9.0,20.0,6.0,64.0
1474,83.0,1.0,20.0,4.0,64.0
1475,83.0,10.0,20.0,5.0,64.0
1476,83.0,4.0,20.0,6.0,64.0
1477,90.0,5.0,30.0,2.0,64.0
1478,78.0,3.0,30.0,7.0,64.0
1479,97.0,1.0,60.0,0.0,64.0
1480,82.0,5.0,20.0,4.0,64.0
1481,94.0,10.0,30.0,1.0,64.0
1482,82.0,2.0,20.0,5.0,64.0
1483,54.0,0.0,30.0,3.0,64.0
1484,82.0,3.0,20.0,6.0,64.0
1485,77.0,3.0,30.0,7.0,64.0
1486,83.0,0.0,30.0,4.0,64.0
1487,83.0,11.0,30.0,5.0,64.0
1488,83.0,47.0,30.0,6.0,64.0
1489,82.0,3.0,120.0,4.0,64.0
1490,82.0,36.0,120.0,5.0,64.0
1491,82.0,5.0,90.0,6.0,64.0
1492,78.0,4.0,90.0,7.0,64.0
1493,73.0,44.0,150.0,8.0,64.0
1494,54.0,14.0,150.0,10.0,64.0
1495,94.0,6.0,60.0,2.0,64.0
1496,97.0,0.0,90.0,1.0,64.0
1497,54.0,28.0,30.0,3.0,64.0
1498,102.0,9.0,60.0,0.0,64.0
1499,80.0,0.0,30.0,5.0,64.0
1500,80.0,1.0,30.0,6.0,64.0
1501,80.0,14.0,30.0,4.0,64.0
1502,80.0,4.0,30.0,7.0,64.0
1503,99.0,13.0,30.0,0.0,64.0
1504,90.0,2.0,30.0,2.0,64.0
1505,96.0,53.0,60.0,1.0,64.0
1506,54.0,0.0,30.0,3.0,64.0
1507,80.0,52.0,750.0,6.0,64.0
1508,80.0,3.0,510.0,5.0,64.0
1509,80.0,8.0,510.0,4.0,64.0
1510,77.0,9.0,720.0,7.0,64.0
1511,73.0,18.0,720.0,8.0,64.0
1512,49.0,14.0,120.0,10.0,64.0
1513,101.0,15.0,480.0,0.0,64.0
1514,92.0,1.0,480.0,2.0,64.0
1515,97.0,44.0,510.0,1.0,64.0
1516,49.0,18.0,20.0,3.0,64.0
1517,49.0,45.0,15.0,3.0,64.0
1518,49.0,32.0,30.0,3.0,64.0
1519,49.0,30.0,30.0,3.0,64.0
1520,49.0,21.0,15.0,3.0,64.0
1521,61.0,19.0,30.0,10.0,64.0
1522,49.0,13.0,20.0,3.0,64.0
1523,49.0,20.0,15.0,3.0,64.0
1524,61.0,38.0,90.0,10.0,64.0
1525,49.0,30.0,20.0,3.0,64.0
1526,49.0,21.0,15.0,3.0,64.0
1527,49.0,13.0,15.0,3.0,64.0
1528,49.0,45.0,30.0,3.0,64.0
1529,49.0,23.0,30.0,3.0,64.0
1530,49.0,30.0,20.0,3.0,64.0
1531,56.0,8.0,30.0,10.0,64.0
1532,49.0,30.0,30.0,3.0,64.0
1533,56.0,126.0,90.0,10.0,64.0
1534,49.0,0.0,15.0,3.0,64.0
1535,53.0,32.0,30.0,10.0,64.0
1536,53.0,146.0,90.0,10.0,64.0
1537,49.0,31.0,60.0,10.0,64.0
1538,66.0,9.0,270.0,4.0,64.0
1539,54.0,23.0,20.0,3.0,64.0
1540,66.0,7.0,270.0,5.0,64.0
1541,94.0,19.0,120.0,1.0,64.0
1542,85.0,5.0,120.0,0.0,64.0
1543,66.0,2.0,240.0,6.0,64.0
1544,54.0,19.0,2190.0,10.0,64.0
1545,90.0,4.0,90.0,2.0,64.0
1546,54.0,27.0,15.0,3.0,64.0
1547,54.0,24.0,20.0,3.0,64.0
1548,54.0,13.0,15.0,3.0,64.0
1549,54.0,13.0,15.0,3.0,64.0
1550,54.0,20.0,15.0,3.0,64.0
1551,54.0,33.0,15.0,3.0,64.0
1552,54.0,19.0,15.0,3.0,64.0
1553,73.0,3.0,30.0,7.0,64.0
1554,54.0,32.0,15.0,3.0,64.0
1555,54.0,2.0,20.0,3.0,64.0
1556,73.0,17.0,60.0,7.0,64.0
1557,54.0,30.0,15.0,3.0,64.0
1558,70.0,2.0,30.0,4.0,64.0
1559,54.0,5.0,15.0,3.0,64.0
1560,70.0,3.0,30.0,6.0,64.0
1561,70.0,24.0,30.0,5.0,64.0
1562,54.0,1.0,15.0,3.0,64.0
1563,54.0,29.0,15.0,3.0,64.0
1564,68.0,2.0,30.0,4.0,64.0
1565,68.0,6.0,30.0,6.0,64.0
1566,68.0,19.0,30.0,5.0,64.0
1567,54.0,0.0,15.0,3.0,64.0
1568,54.0,28.0,20.0,3.0,64.0
1569,66.0,3.0,30.0,6.0,64.0
1570,66.0,4.0,30.0,4.0,64.0
1571,70.0,0.0,30.0,7.0,64.0
1572,66.0,12.0,30.0,5.0,64.0
1573,54.0,1.0,15.0,3.0,64.0
1574,73.0,30.0,30.0,8.0,64.0
1575,54.0,1.0,15.0,3.0,64.0
1576,73.0,4.0,60.0,8.0,64.0
1577,94.0,16.0,120.0,1.0,64.0
1578,90.0,10.0,90.0,2.0,64.0
1579,75.0,3.0,270.0,6.0,64.0
1580,75.0,5.0,270.0,4.0,64.0
1581,70.0,20.0,60.0,7.0,64.0
1582,54.0,22.0,15.0,3.0,64.0
1583,75.0,16.0,270.0,5.0,64.0
1584,85.0,5.0,120.0,0.0,64.0
1585,54.0,30.0,15.0,3.0,64.0
1586,54.0,0.0,15.0,3.0,64.0
1587,54.0,15.0,15.0,3.0,64.0
1588,54.0,6.0,15.0,3.0,64.0
1589,54.0,23.0,15.0,3.0,64.0
1590,54.0,26.0,15.0,3.0,64.0
1591,66.0,8.0,30.0,7.0,64.0
1592,54.0,17.0,15.0,3.0,64.0
1593,70.0,14.0,30.0,8.0,64.0
1594,54.0,11.0,15.0,3.0,64.0
1595,54.0,26.0,15.0,3.0,64.0
1596,66.0,16.0,60.0,7.0,64.0
1597,70.0,2.0,60.0,8.0,64.0
1598,54.0,2.0,15.0,3.0,64.0
1599,54.0,7.0,15.0,3.0,64.0
1600,78.0,0.0,30.0,6.0,64.0
1601,78.0,9.0,30.0,4.0,64.0
1602,54.0,19.0,15.0,3.0,64.0
1603,78.0,26.0,30.0,5.0,64.0
1604,54.0,3.0,15.0,3.0,64.0
1605,54.0,19.0,15.0,3.0,64.0
1606,77.0,2.0,30.0,6.0,64.0
1607,77.0,2.0,30.0,4.0,64.0
1608,77.0,25.0,30.0,5.0,64.0
1609,54.0,5.0,15.0,3.0,64.0
1610,75.0,2.0,30.0,7.0,64.0
1611,54.0,16.0,15.0,3.0,64.0
1612,75.0,15.0,30.0,6.0,64.0
1613,75.0,8.0,60.0,4.0,64.0
1614,66.0,0.0,30.0,8.0,64.0
1615,75.0,1.0,60.0,5.0,64.0
1616,54.0,8.0,15.0,3.0,64.0
1617,54.0,23.0,15.0,3.0,64.0
1618,66.0,1.0,90.0,8.0,64.0
1619,75.0,6.0,60.0,7.0,64.0
1620,54.0,26.0,15.0,3.0,64.0
1621,83.0,1.0,270.0,5.0,64.0
1622,90.0,19.0,90.0,2.0,64.0
1623,83.0,0.0,270.0,6.0,64.0
1624,95.0,15.0,120.0,1.0,64.0
1625,83.0,7.0,270.0,4.0,64.0
1626,87.0,4.0,120.0,0.0,64.0
1627,54.0,21.0,15.0,3.0,64.0
1628,54.0,22.0,15.0,3.0,64.0
1629,54.0,7.0,15.0,3.0,64.0
1630,54.0,5.0,15.0,3.0,64.0
1631,54.0,26.0,15.0,3.0,64.0
1632,54.0,23.0,15.0,3.0,64.0
1633,54.0,24.0,15.0,3.0,64.0
1634,71.0,3.0,30.0,7.0,64.0
1635,75.0,19.0,30.0,8.0,64.0
1636,54.0,8.0,15.0,3.0,64.0
1637,54.0,14.0,15.0,3.0,64.0
1638,75.0,10.0,60.0,8.0,64.0
1639,71.0,12.0,60.0,7.0,64.0
1640,54.0,30.0,15.0,3.0,64.0
1641,54.0,2.0,15.0,3.0,64.0
1642,80.0,1.0,30.0,6.0,64.0
1643,80.0,0.0,30.0,5.0,64.0
1644,80.0,13.0,30.0,4.0,64.0
1645,54.0,13.0,15.0,3.0,64.0
1646,54.0,23.0,15.0,3.0,64.0
1647,82.0,5.0,30.0,6.0,64.0
1648,82.0,1.0,30.0,5.0,64.0
1649,82.0,10.0,30.0,4.0,64.0
1650,54.0,11.0,15.0,3.0,64.0
1651,54.0,22.0,15.0,3.0,64.0
1652,83.0,0.0,30.0,6.0,64.0
1653,83.0,2.0,30.0,5.0,64.0
1654,54.0,22.0,15.0,3.0,64.0
1655,68.0,6.0,30.0,7.0,64.0
1656,83.0,2.0,30.0,4.0,64.0
1657,71.0,13.0,30.0,8.0,64.0
1658,54.0,2.0,15.0,3.0,64.0
1659,54.0,51.0,15.0,3.0,64.0
1660,77.0,6.0,270.0,6.0,64.0
1661,77.0,2.0,270.0,5.0,64.0
1662,71.0,12.0,60.0,8.0,64.0
1663,92.0,12.0,120.0,1.0,64.0
1664,83.0,1.0,120.0,0.0,64.0
1665,68.0,25.0,60.0,7.0,64.0
1666,77.0,25.0,270.0,4.0,64.0
1667,85.0,8.0,120.0,2.0,64.0
1668,54.0,21.0,30.0,3.0,64.0
1669,54.0,17.0,30.0,3.0,64.0
1670,54.0,23.0,15.0,3.0,64.0
1671,54.0,29.0,15.0,3.0,64.0
1672,54.0,25.0,15.0,3.0,64.0
1673,80.0,4.0,30.0,7.0,64.0
1674,71.0,19.0,30.0,8.0,64.0
1675,54.0,2.0,15.0,3.0,64.0
1676,54.0,21.0,15.0,3.0,64.0
1677,71.0,5.0,60.0,8.0,64.0
1678,80.0,10.0,60.0,7.0,64.0
1679,54.0,0.0,15.0,3.0,64.0
1680,54.0,9.0,15.0,3.0,64.0
1681,73.0,8.0,30.0,6.0,64.0
1682,73.0,4.0,30.0,5.0,64.0
1683,73.0,16.0,30.0,4.0,64.0
1684,54.0,7.0,15.0,3.0,64.0
1685,54.0,24.0,20.0,3.0,64.0
1686,75.0,0.0,30.0,5.0,64.0
1687,75.0,5.0,30.0,6.0,64.0
1688,75.0,19.0,30.0,4.0,64.0
1689,54.0,7.0,20.0,3.0,64.0
1690,54.0,38.0,15.0,3.0,64.0
1691,77.0,2.0,30.0,5.0,64.0
1692,77.0,1.0,30.0,6.0,64.0
1693,68.0,7.0,30.0,8.0,64.0
1694,77.0,1.0,30.0,7.0,64.0
1695,77.0,2.0,30.0,4.0,64.0
1696,54.0,60.0,30.0,3.0,64.0
1697,71.0,129.0,60.0,8.0,64.0
1698,68.0,4.0,360.0,5.0,64.0
1699,77.0,1.0,60.0,7.0,64.0
1700,68.0,15.0,330.0,6.0,64.0
1701,68.0,16.0,360.0,4.0,64.0
1702,54.0,17.0,30.0,3.0,64.0
1703,54.0,19.0,20.0,3.0,64.0
1704,65.0,7.0,30.0,8.0,64.0
1705,71.0,5.0,30.0,7.0,64.0
1706,85.0,0.0,30.0,2.0,64.0
1707,92.0,1.0,30.0,1.0,64.0
1708,83.0,27.0,30.0,0.0,64.0
1709,54.0,38.0,20.0,3.0,64.0
1710,65.0,4.0,90.0,8.0,64.0
1711,71.0,4.0,60.0,7.0,64.0
1712,92.0,2.0,90.0,1.0,64.0
1713,85.0,3.0,60.0,2.0,64.0
1714,83.0,0.0,60.0,0.0,64.0
1715,54.0,1.0,20.0,3.0,64.0
1716,58.0,30.0,30.0,10.0,64.0
1717,56.0,52.0,30.0,10.0,64.0
1718,54.0,11.0,20.0,3.0,64.0
1719,54.0,7.0,30.0,10.0,64.0
1720,83.0,0.0,30.0,7.0,64.0
1721,80.0,4.0,30.0,0.0,64.0
1722,85.0,1.0,30.0,2.0,64.0
1723,97.0,3.0,30.0,1.0,64.0
1724,68.0,1.0,60.0,6.0,64.0
1725,68.0,10.0,30.0,8.0,64.0
1726,54.0,1.0,20.0,3.0,64.0
1727,68.0,63.0,60.0,5.0,64.0
1728,68.0,2.0,30.0,4.0,64.0
1729,61.0,9.0,60.0,8.0,64.0
1730,53.0,9.0,90.0,10.0,64.0
1731,97.0,3.0,90.0,1.0,64.0
1732,85.0,2.0,90.0,2.0,64.0
1733,83.0,2.0,60.0,7.0,64.0
1734,80.0,2.0,90.0,0.0,64.0
1735,80.0,4.0,90.0,6.0,64.0
1736,80.0,10.0,90.0,4.0,64.0
1737,80.0,93.0,90.0,5.0,64.0
1738,49.0,10.0,60.0,3.0,64.0
1739,80.0,7.0,30.0,7.0,64.0
1740,77.0,8.0,30.0,4.0,64.0
1741,77.0,0.0,30.0,6.0,64.0
1742,85.0,0.0,30.0,0.0,64.0
1743,73.0,2.0,30.0,8.0,64.0
1744,77.0,0.0,30.0,5.0,64.0
1745,56.0,2.0,30.0,10.0,64.0
1746,49.0,2.0,20.0,3.0,64.0
1747,85.0,78.0,30.0,2.0,64.0
1748,92.0,3.0,30.0,1.0,64.0
1749,80.0,2.0,60.0,7.0,64.0
1750,73.0,10.0,60.0,8.0,64.0
1751,73.0,6.0,90.0,4.0,64.0
1752,73.0,111.0,90.0,5.0,64.0
1753,92.0,3.0,90.0,1.0,64.0
1754,53.0,3.0,60.0,10.0,64.0
1755,73.0,5.0,90.0,6.0,64.0
1756,85.0,2.0,60.0,0.0,64.0
1757,49.0,0.0,60.0,3.0,64.0
1758,85.0,3.0,90.0,2.0,64.0
1759,85.0,4.0,30.0,2.0,64.0
1760,92.0,2.0,30.0,1.0,64.0
1761,71.0,1.0,30.0,4.0,64.0
1762,77.0,2.0,30.0,7.0,64.0
1763,73.0,2.0,30.0,8.0,64.0
1764,71.0,7.0,30.0,5.0,64.0
1765,80.0,6.0,30.0,0.0,64.0
1766,49.0,1.0,30.0,10.0,64.0
1767,49.0,1.0,30.0,3.0,64.0
1768,71.0,33.0,30.0,6.0,64.0
1769,73.0,12.0,600.0,8.0,64.0
1770,85.0,5.0,90.0,2.0,64.0
1771,70.0,10.0,90.0,4.0,64.0
1772,90.0,5.0,90.0,1.0,64.0
1773,54.0,10.0,480.0,10.0,64.0
1774,70.0,2.0,90.0,5.0,64.0
1775,78.0,7.0,570.0,7.0,64.0
1776,54.0,27.0,20.0,3.0,64.0
1777,82.0,6.0,90.0,0.0,64.0
1778,70.0,23.0,90.0,6.0,64.0
1779,54.0,23.0,15.0,3.0,64.0
1780,54.0,2.0,15.0,3.0,64.0
1781,54.0,0.0,15.0,3.0,64.0
1782,54.0,29.0,15.0,3.0,64.0
1783,54.0,24.0,15.0,3.0,64.0
1784,54.0,26.0,15.0,3.0,64.0
1785,66.0,2.0,60.0,6.0,64.0
1786,66.0,2.0,60.0,4.0,64.0
1787,90.0,5.0,30.0,2.0,64.0
1788,85.0,2.0,30.0,0.0,64.0
1789,94.0,5.0,30.0,1.0,64.0
1790,66.0,11.0,30.0,5.0,64.0
1791,54.0,1.0,15.0,3.0,64.0
1792,54.0,34.0,15.0,3.0,64.0
1793,90.0,11.0,60.0,2.0,64.0
1794,70.0,4.0,90.0,4.0,64.0
1795,94.0,2.0,90.0,1.0,64.0
1796,85.0,6.0,60.0,0.0,64.0
1797,70.0,19.0,90.0,6.0,64.0
1798,70.0,23.0,90.0,5.0,64.0
1799,54.0,22.0,20.0,3.0,64.0
1800,54.0,10.0,15.0,3.0,64.0
1801,54.0,2.0,15.0,3.0,64.0
1802,54.0,0.0,15.0,3.0,64.0
1803,54.0,27.0,15.0,3.0,64.0
1804,54.0,26.0,15.0,3.0,64.0
1805,54.0,23.0,15.0,3.0,64.0
1806,73.0,2.0,30.0,4.0,64.0
1807,82.0,4.0,30.0,0.0,64.0
1808,85.0,2.0,30.0,2.0,64.0
1809,73.0,17.0,30.0,5.0,64.0
1810,73.0,0.0,30.0,6.0,64.0
1811,90.0,6.0,30.0,1.0,64.0
1812,54.0,1.0,15.0,3.0,64.0
1813,54.0,10.0,15.0,3.0,64.0
1814,78.0,2.0,90.0,4.0,64.0
1815,85.0,2.0,60.0,2.0,64.0
1816,82.0,12.0,90.0,0.0,64.0
1817,90.0,2.0,90.0,1.0,64.0
1818,78.0,0.0,90.0,6.0,64.0
1819,78.0,0.0,90.0,5.0,64.0
1820,54.0,32.0,15.0,3.0,64.0
1821,54.0,18.0,15.0,3.0,64.0
1822,54.0,4.0,30.0,10.0,64.0
1823,54.0,2.0,15.0,3.0,64.0
1824,54.0,13.0,15.0,3.0,64.0
1825,54.0,22.0,15.0,3.0,64.0
1826,53.0,6.0,30.0,10.0,64.0
1827,54.0,27.0,15.0,3.0,64.0
1828,54.0,27.0,15.0,3.0,64.0
1829,66.0,4.0,30.0,8.0,64.0
1830,51.0,14.0,60.0,10.0,64.0
1831,73.0,2.0,30.0,5.0,64.0
1832,73.0,4.0,30.0,4.0,64.0
1833,82.0,0.0,30.0,2.0,64.0
1834,70.0,2.0,30.0,7.0,64.0
1835,78.0,1.0,30.0,0.0,64.0
1836,85.0,0.0,30.0,1.0,64.0
1837,73.0,0.0,30.0,6.0,64.0
1838,54.0,2.0,20.0,3.0,64.0
1839,54.0,28.0,20.0,3.0,64.0
1840,70.0,0.0,90.0,8.0,64.0
1841,49.0,24.0,30.0,10.0,64.0
1842,73.0,3.0,90.0,7.0,64.0
1843,85.0,1.0,90.0,1.0,64.0
1844,82.0,5.0,60.0,2.0,64.0
1845,78.0,3.0,90.0,4.0,64.0
1846,78.0,19.0,90.0,5.0,64.0
1847,78.0,3.0,60.0,0.0,64.0
1848,78.0,2.0,90.0,6.0,64.0
1849,54.0,4.0,15.0,3.0,64.0
1850,54.0,16.0,15.0,3.0,64.0
1851,47.0,5.0,30.0,10.0,64.0
1852,54.0,3.0,20.0,3.0,64.0
1853,54.0,26.0,15.0,3.0,64.0
1854,46.0,36.0,30.0,10.0,64.0
1855,54.0,12.0,20.0,3.0,64.0
1856,54.0,13.0,30.0,3.0,64.0
1857,44.0,7.0,30.0,10.0,64.0
1858,71.0,4.0,30.0,8.0,64.0
1859,80.0,0.0,30.0,4.0,64.0
1860,77.0,2.0,30.0,7.0,64.0
1861,80.0,4.0,30.0,6.0,64.0
1862,80.0,4.0,30.0,5.0,64.0
1863,78.0,1.0,30.0,2.0,64.0
1864,73.0,1.0,30.0,0.0,64.0
1865,82.0,6.0,30.0,1.0,64.0
1866,54.0,54.0,20.0,3.0,64.0
1867,73.0,0.0,90.0,8.0,64.0
1868,82.0,4.0,270.0,4.0,64.0
1869,42.0,1.0,450.0,10.0,64.0
1870,73.0,23.0,90.0,0.0,64.0
1871,82.0,17.0,270.0,5.0,64.0
1872,78.0,3.0,90.0,2.0,64.0
1873,78.0,1.0,90.0,7.0,64.0
1874,82.0,31.0,90.0,1.0,64.0
1875,82.0,7.0,270.0,6.0,64.0
1876,54.0,35.0,30.0,3.0,64.0
1877,54.0,40.0,15.0,3.0,64.0
1878,54.0,26.0,20.0,3.0,64.0
1879,73.0,4.0,30.0,0.0,64.0
1880,85.0,1.0,30.0,2.0,64.0
1881,85.0,5.0,30.0,1.0,64.0
1882,54.0,7.0,20.0,3.0,64.0
1883,82.0,8.0,30.0,7.0,64.0
1884,78.0,31.0,30.0,8.0,64.0
1885,54.0,17.0,30.0,3.0,64.0
1886,73.0,5.0,60.0,0.0,64.0
1887,85.0,4.0,60.0,2.0,64.0
1888,85.0,9.0,60.0,1.0,64.0
1889,82.0,3.0,60.0,7.0,64.0
1890,78.0,0.0,60.0,8.0,64.0
1891,83.0,10.0,30.0,4.0,64.0
1892,83.0,9.0,30.0,6.0,64.0
1893,83.0,40.0,30.0,5.0,64.0
1894,85.0,14.0,30.0,4.0,64.0
1895,85.0,42.0,30.0,5.0,64.0
1896,85.0,1.0,30.0,6.0,64.0
1897,82.0,1.0,30.0,4.0,64.0
1898,82.0,0.0,30.0,5.0,64.0
1899,70.0,4.0,30.0,0.0,64.0
1900,82.0,2.0,30.0,2.0,64.0
1901,82.0,1.0,30.0,1.0,64.0
1902,73.0,0.0,30.0,8.0,64.0
1903,78.0,12.0,30.0,7.0,64.0
1904,82.0,65.0,60.0,6.0,64.0
1905,54.0,2.0,20.0,3.0,64.0
1906,87.0,5.0,270.0,5.0,64.0
1907,87.0,33.0,270.0,4.0,64.0
1908,78.0,13.0,90.0,2.0,64.0
1909,78.0,91.0,120.0,1.0,64.0
1910,66.0,16.0,120.0,0.0,64.0
1911,78.0,30.0,60.0,7.0,64.0
1912,54.0,99.0,600.0,10.0,64.0
1913,70.0,5.0,60.0,8.0,64.0
1914,87.0,8.0,270.0,6.0,64.0
1915,54.0,12.0,30.0,3.0,64.0
1916,75.0,14.0,30.0,7.0,64.0
1917,66.0,31.0,30.0,8.0,64.0
1918,75.0,4.0,60.0,7.0,64.0
1919,66.0,24.0,60.0,8.0,64.0
1920,84.0,1.0,30.0,5.0,64.0
1921,84.0,1.0,30.0,4.0,64.0
1922,84.0,59.0,30.0,6.0,64.0
1923,85.0,1.0,30.0,5.0,64.0
1924,85.0,3.0,30.0,4.0,64.0
1925,85.0,48.0,30.0,6.0,64.0
1926,87.0,1.0,30.0,5.0,64.0
1927,87.0,6.0,30.0,4.0,64.0
1928,72.0,4.0,30.0,7.0,64.0
1929,87.0,1.0,30.0,6.0,64.0
1930,63.0,94.0,30.0,8.0,64.0
1931,80.0,0.0,270.0,5.0,64.0
1932,72.0,2.0,90.0,7.0,64.0
1933,80.0,36.0,270.0,4.0,64.0
1934,63.0,38.0,90.0,8.0,64.0
1935,80.0,12.0,270.0,6.0,64.0
1936,75.0,0.0,30.0,7.0,64.0
1937,54.0,37.0,30.0,10.0,64.0
1938,60.0,10.0,30.0,8.0,64.0
1939,60.0,11.0,90.0,8.0,64.0
1940,75.0,3.0,60.0,7.0,64.0
1941,53.0,19.0,90.0,10.0,64.0
1942,80.0,2.0,30.0,5.0,64.0
1943,80.0,3.0,30.0,4.0,64.0
1944,80.0,55.0,30.0,6.0,64.0
1945,82.0,1.0,30.0,5.0,64.0
1946,82.0,3.0,30.0,4.0,64.0
1947,82.0,41.0,30.0,6.0,64.0
1948,72.0,6.0,30.0,7.0,64.0
1949,84.0,2.0,30.0,5.0,64.0
1950,63.0,0.0,30.0,8.0,64.0
1951,84.0,4.0,30.0,4.0,64.0
1952,51.0,109.0,30.0,10.0,64.0
1953,84.0,5.0,30.0,6.0,64.0
1954,68.0,56.0,180.0,8.0,64.0
1955,85.0,5.0,90.0,5.0,64.0
1956,53.0,21.0,150.0,10.0,64.0
1957,85.0,4.0,90.0,4.0,64.0
1958,68.0,0.0,150.0,7.0,64.0
1959,85.0,38.0,90.0,6.0,64.0
1960,80.0,3.0,30.0,5.0,64.0
1961,80.0,8.0,30.0,4.0,64.0
1962,80.0,107.0,60.0,6.0,64.0
1963,70.0,55.0,180.0,8.0,64.0
1964,77.0,5.0,90.0,5.0,64.0
1965,58.0,14.0,150.0,10.0,64.0
1966,73.0,51.0,360.0,7.0,64.0
1967,77.0,6.0,90.0,4.0,64.0
1968,77.0,40.0,90.0,6.0,64.0
1969,73.0,9.0,30.0,5.0,64.0
1970,73.0,3.0,30.0,4.0,64.0
1971,73.0,61.0,30.0,6.0,64.0
1972,70.0,3.0,120.0,8.0,64.0
1973,51.0,58.0,60.0,10.0,64.0
1974,78.0,34.0,360.0,5.0,64.0
1975,78.0,11.0,360.0,4.0,64.0
1976,78.0,2.0,330.0,6.0,64.0
1977,53.0,9.0,30.0,10.0,64.0
1978,54.0,56.0,30.0,10.0,64.0
1979,56.0,4.0,60.0,10.0,64.0
1980,68.0,1.0,30.0,8.0,64.0
1981,72.0,57.0,30.0,7.0,64.0
1982,58.0,38.0,60.0,10.0,64.0
1983,66.0,0.0,90.0,8.0,64.0
1984,73.0,17.0,90.0,7.0,64.0
1985,60.0,17.0,30.0,10.0,64.0
1986,61.0,42.0,30.0,10.0,64.0
1987,75.0,4.0,30.0,7.0,64.0
1988,58.0,6.0,30.0,10.0,64.0
1989,78.0,7.0,30.0,4.0,64.0
1990,78.0,1.0,30.0,6.0,64.0
1991,78.0,1.0,30.0,5.0,64.0
1992,65.0,103.0,30.0,8.0,64.0
1993,68.0,3.0,150.0,7.0,64.0
1994,63.0,0.0,150.0,8.0,64.0
1995,78.0,2.0,150.0,4.0,64.0
1996,78.0,7.0,120.0,6.0,64.0
1997,78.0,17.0,150.0,5.0,64.0
1998,61.0,27.0,60.0,10.0,64.0
1999,60.0,18.0,30.0,10.0,64.0
2000,61.0,0.0,30.0,10.0,64.0
2001,60.0,30.0,20.0,10.0,64.0
2002,61.0,11.0,30.0,10.0,64.0
2003,80.0,2.0,30.0,6.0,64.0
2004,80.0,2.0,30.0,4.0,64.0
2005,80.0,17.0,30.0,5.0,64.0
2006,60.0,1.0,20.0,10.0,64.0
2007,82.0,2.0,30.0,6.0,64.0
2008,82.0,0.0,30.0,4.0,64.0
2009,82.0,1.0,30.0,5.0,64.0
2010,61.0,18.0,30.0,10.0,64.0
2011,60.0,27.0,20.0,10.0,64.0
2012,68.0,16.0,210.0,8.0,64.0
2013,75.0,1.0,150.0,7.0,64.0
2014,80.0,6.0,90.0,6.0,64.0
2015,80.0,3.0,120.0,5.0,64.0
2016,80.0,10.0,90.0,4.0,64.0
2017,61.0,14.0,30.0,10.0,64.0
2018,60.0,28.0,20.0,10.0,64.0
2019,61.0,20.0,30.0,10.0,64.0
2020,60.0,2.0,20.0,10.0,64.0
2021,61.0,21.0,20.0,10.0,64.0
2022,60.0,17.0,20.0,10.0,64.0
2023,61.0,20.0,20.0,10.0,64.0
2024,60.0,19.0,30.0,10.0,64.0
2025,58.0,5.0,30.0,10.0,64.0
2026,78.0,6.0,30.0,5.0,64.0
2027,78.0,6.0,30.0,4.0,64.0
2028,78.0,0.0,30.0,6.0,64.0
2029,60.0,114.0,30.0,10.0,64.0
2030,61.0,55.0,1020.0,10.0,64.0
2031,77.0,9.0,120.0,5.0,64.0
2032,77.0,1.0,120.0,4.0,64.0
2033,68.0,102.0,120.0,8.0,64.0
2034,73.0,4.0,90.0,7.0,64.0
2035,77.0,0.0,90.0,6.0,64.0
2036,73.0,3.0,30.0,5.0,64.0
2037,73.0,10.0,60.0,6.0,64.0
2038,73.0,1.0,30.0,4.0,64.0
2039,68.0,2.0,30.0,7.0,64.0
2040,65.0,95.0,30.0,8.0,64.0
2041,77.0,1.0,90.0,5.0,64.0
2042,77.0,117.0,90.0,4.0,64.0
2043,73.0,2.0,90.0,7.0,64.0
2044,77.0,5.0,90.0,6.0,64.0
2045,68.0,4.0,90.0,8.0,64.0
2046,80.0,2.0,30.0,4.0,64.0
2047,80.0,2.0,30.0,5.0,64.0
2048,75.0,2.0,30.0,7.0,64.0
2049,71.0,104.0,60.0,8.0,64.0
2050,80.0,9.0,30.0,6.0,64.0
2051,85.0,6.0,150.0,4.0,64.0
2052,70.0,49.0,90.0,8.0,64.0
2053,76.0,3.0,330.0,7.0,64.0
2054,85.0,4.0,150.0,5.0,64.0
2055,85.0,56.0,150.0,6.0,64.0
2056,83.0,2.0,30.0,5.0,64.0
2057,83.0,12.0,30.0,4.0,64.0
2058,83.0,5.0,30.0,6.0,64.0
2059,67.0,3.0,60.0,8.0,64.0
2060,82.0,2.0,30.0,5.0,64.0
2061,82.0,0.0,30.0,6.0,64.0
2062,82.0,93.0,30.0,4.0,64.0
2063,83.0,2.0,90.0,5.0,64.0
2064,68.0,9.0,90.0,8.0,64.0
2065,83.0,109.0,90.0,6.0,64.0
2066,83.0,8.0,90.0,4.0,64.0
2067,80.0,3.0,30.0,4.0,64.0
2068,76.0,5.0,30.0,7.0,64.0
2069,71.0,10.0,30.0,8.0,64.0
2070,80.0,0.0,30.0,5.0,64.0
2071,80.0,55.0,60.0,6.0,64.0
2072,87.0,12.0,360.0,4.0,64.0
2073,67.0,56.0,150.0,7.0,64.0
2074,87.0,28.0,360.0,5.0,64.0
2075,70.0,7.0,150.0,8.0,64.0
2076,87.0,23.0,300.0,6.0,64.0
2077,59.0,41.0,30.0,10.0,64.0
2078,58.0,6.0,30.0,10.0,64.0
2079,56.0,65.0,30.0,10.0,64.0
2080,55.0,34.0,30.0,10.0,64.0
2081,70.0,25.0,180.0,7.0,64.0
2082,75.0,5.0,330.0,8.0,64.0
2083,53.0,11.0,30.0,10.0,64.0
2084,51.0,34.0,30.0,10.0,64.0
2085,79.0,10.0,30.0,4.0,64.0
2086,49.0,112.0,60.0,10.0,64.0
2087,79.0,2.0,30.0,6.0,64.0
2088,79.0,1.0,30.0,5.0,64.0
2089,80.0,0.0,120.0,4.0,64.0
2090,80.0,82.0,120.0,6.0,64.0
2091,80.0,4.0,120.0,5.0,64.0
2092,47.0,4.0,90.0,10.0,64.0
2093,75.0,15.0,90.0,7.0,64.0
2094,82.0,4.0,30.0,5.0,64.0
2095,47.0,0.0,30.0,10.0,64.0
2096,82.0,3.0,30.0,4.0,64.0
2097,82.0,3.0,30.0,6.0,64.0
2098,68.0,5.0,30.0,8.0,64.0
2099,75.0,58.0,30.0,7.0,64.0
2100,68.0,0.0,120.0,8.0,64.0
2101,83.0,8.0,60.0,5.0,64.0
2102,49.0,6.0,90.0,10.0,64.0
2103,83.0,7.0,60.0,4.0,64.0
2104,76.0,1.0,60.0,7.0,64.0
2105,83.0,4.0,60.0,6.0,64.0
2106,82.0,7.0,20.0,5.0,64.0
2107,82.0,8.0,30.0,4.0,64.0
2108,82.0,5.0,30.0,6.0,64.0
2109,83.0,8.0,30.0,5.0,64.0
2110,83.0,9.0,30.0,4.0,64.0
2111,83.0,11.0,30.0,6.0,64.0
2112,82.0,0.0,20.0,5.0,64.0
2113,82.0,7.0,20.0,4.0,64.0
2114,82.0,25.0,20.0,6.0,64.0
2115,83.0,1.0,30.0,5.0,64.0
2116,83.0,6.0,30.0,4.0,64.0
2117,83.0,16.0,30.0,6.0,64.0
2118,82.0,5.0,60.0,5.0,64.0
2119,82.0,0.0,30.0,4.0,64.0
2120,82.0,32.0,30.0,6.0,64.0
2121,80.0,3.0,60.0,5.0,64.0
2122,80.0,2.0,60.0,4.0,64.0
2123,80.0,3.0,30.0,6.0,64.0
2124,51.0,0.0,30.0,10.0,64.0
2125,75.0,6.0,30.0,7.0,64.0
2126,67.0,7.0,30.0,8.0,64.0
2127,82.0,0.0,30.0,5.0,64.0
2128,82.0,99.0,30.0,4.0,64.0
2129,82.0,1.0,30.0,6.0,64.0
2130,83.0,3.0,270.0,5.0,64.0
2131,44.0,5.0,450.0,10.0,64.0
2132,83.0,60.0,270.0,6.0,64.0
2133,68.0,120.0,120.0,8.0,64.0
2134,83.0,4.0,240.0,4.0,64.0
2135,75.0,15.0,90.0,7.0,64.0
2136,75.0,6.0,30.0,8.0,64.0
2137,80.0,25.0,30.0,7.0,64.0
2138,75.0,53.0,90.0,8.0,64.0
2139,80.0,1.0,90.0,7.0,64.0
2140,82.0,4.0,30.0,4.0,64.0
2141,82.0,5.0,30.0,6.0,64.0
2142,82.0,2.0,30.0,5.0,64.0
2143,80.0,2.0,30.0,5.0,64.0
2144,80.0,13.0,30.0,6.0,64.0
2145,80.0,35.0,60.0,4.0,64.0
2146,78.0,6.0,30.0,5.0,64.0
2147,78.0,4.0,30.0,6.0,64.0
2148,78.0,3.0,30.0,4.0,64.0
2149,75.0,4.0,30.0,7.0,64.0
2150,71.0,110.0,30.0,8.0,64.0
2151,76.0,122.0,120.0,5.0,64.0
2152,76.0,7.0,90.0,4.0,64.0
2153,56.0,80.0,630.0,10.0,64.0
2154,76.0,1.0,90.0,6.0,64.0
2155,71.0,1.0,330.0,7.0,64.0
2156,68.0,116.0,330.0,8.0,64.0
2157,76.0,5.0,30.0,5.0,64.0
2158,76.0,100.0,30.0,6.0,64.0
2159,76.0,3.0,30.0,4.0,64.0
2160,78.0,5.0,90.0,5.0,64.0
2161,78.0,1.0,90.0,4.0,64.0
2162,78.0,1.0,90.0,6.0,64.0
2163,71.0,8.0,30.0,7.0,64.0
2164,66.0,2.0,30.0,8.0,64.0
2165,80.0,2.0,30.0,5.0,64.0
2166,80.0,147.0,30.0,6.0,64.0
2167,80.0,2.0,30.0,4.0,64.0
2168,70.0,12.0,330.0,7.0,64.0
2169,65.0,108.0,360.0,8.0,64.0
2170,75.0,3.0,120.0,5.0,64.0
2171,75.0,14.0,120.0,6.0,64.0
2172,75.0,2.0,120.0,4.0,64.0
2173,74.0,5.0,210.0,5.0,64.0
2174,74.0,4.0,210.0,4.0,64.0
2175,74.0,3.0,210.0,6.0,64.0
2176,59.0,89.0,30.0,10.0,64.0
2177,58.0,1.0,90.0,10.0,64.0
2178,74.0,11.0,30.0,7.0,64.0
2179,56.0,6.0,30.0,10.0,64.0
2180,83.0,1.0,30.0,4.0,64.0
2181,65.0,0.0,30.0,8.0,64.0
2182,83.0,5.0,30.0,6.0,64.0
2183,83.0,95.0,30.0,5.0,64.0
2184,75.0,0.0,330.0,7.0,64.0
2185,54.0,11.0,90.0,10.0,64.0
2186,82.0,1.0,90.0,4.0,64.0
2187,66.0,97.0,120.0,8.0,64.0
2188,82.0,7.0,90.0,5.0,64.0
2189,82.0,7.0,90.0,6.0,64.0
2190,53.0,7.0,30.0,10.0,64.0
2191,80.0,3.0,30.0,4.0,64.0
2192,68.0,5.0,30.0,8.0,64.0
2193,80.0,7.0,30.0,5.0,64.0
2194,80.0,96.0,60.0,6.0,64.0
2195,51.0,1.0,120.0,10.0,64.0
2196,78.0,126.0,90.0,5.0,64.0
2197,70.0,105.0,360.0,8.0,64.0
2198,78.0,11.0,90.0,4.0,64.0
2199,78.0,0.0,90.0,6.0,64.0
2200,77.0,103.0,60.0,5.0,64.0
2201,50.0,1.0,60.0,10.0,64.0
2202,77.0,3.0,60.0,6.0,64.0
2203,77.0,3.0,30.0,4.0,64.0
2204,77.0,0.0,30.0,7.0,64.0
2205,51.0,0.0,120.0,10.0,64.0
2206,78.0,11.0,120.0,5.0,64.0
2207,78.0,2.0,90.0,4.0,64.0
2208,75.0,7.0,90.0,7.0,64.0
2209,78.0,1.0,90.0,6.0,64.0
2210,77.0,107.0,60.0,5.0,64.0
2211,74.0,2.0,30.0,7.0,64.0
2212,53.0,1.0,30.0,10.0,64.0
2213,77.0,1.0,30.0,4.0,64.0
2214,77.0,1.0,60.0,6.0,64.0
2215,68.0,1.0,30.0,8.0,64.0
2216,70.0,7.0,120.0,8.0,64.0
2217,75.0,96.0,120.0,5.0,64.0
2218,75.0,0.0,90.0,4.0,64.0
2219,75.0,3.0,90.0,7.0,64.0
2220,54.0,2.0,90.0,10.0,64.0
2221,75.0,8.0,90.0,6.0,64.0
2222,77.0,86.0,60.0,5.0,64.0
2223,77.0,0.0,60.0,6.0,64.0
2224,77.0,4.0,30.0,4.0,64.0
2225,56.0,3.0,30.0,10.0,64.0
2226,75.0,6.0,30.0,7.0,64.0
2227,71.0,1.0,30.0,8.0,64.0
2228,70.0,2.0,180.0,8.0,64.0
2229,78.0,2.0,60.0,5.0,64.0
2230,58.0,2.0,150.0,10.0,64.0
2231,78.0,22.0,60.0,4.0,64.0
2232,75.0,1.0,60.0,7.0,64.0
2233,78.0,0.0,60.0,6.0,64.0
2234,74.0,6.0,30.0,7.0,64.0
2235,77.0,20.0,30.0,4.0,64.0
2236,77.0,0.0,30.0,6.0,64.0
2237,77.0,1.0,30.0,5.0,64.0
2238,75.0,8.0,30.0,7.0,64.0
2239,78.0,3.0,30.0,4.0,64.0
2240,78.0,5.0,30.0,5.0,64.0
2241,78.0,2.0,30.0,6.0,64.0
2242,74.0,10.0,20.0,7.0,64.0
2243,77.0,0.0,20.0,6.0,64.0
2244,77.0,2.0,20.0,4.0,64.0
2245,77.0,10.0,20.0,5.0,64.0
2246,75.0,11.0,20.0,7.0,64.0
2247,78.0,1.0,20.0,4.0,64.0
2248,78.0,2.0,20.0,6.0,64.0
2249,78.0,7.0,20.0,5.0,64.0
2250,74.0,8.0,20.0,7.0,64.0
2251,77.0,3.0,20.0,6.0,64.0
2252,77.0,0.0,20.0,4.0,64.0
2253,77.0,10.0,20.0,5.0,64.0
2254,56.0,4.0,30.0,10.0,64.0
2255,75.0,3.0,30.0,7.0,64.0
2256,78.0,4.0,20.0,4.0,64.0
2257,78.0,3.0,20.0,6.0,64.0
2258,78.0,1.0,20.0,5.0,64.0
2259,74.0,8.0,20.0,7.0,64.0
2260,54.0,5.0,30.0,10.0,64.0
2261,77.0,4.0,30.0,4.0,64.0
2262,77.0,1.0,20.0,6.0,64.0
2263,77.0,6.0,20.0,5.0,64.0
2264,75.0,14.0,30.0,7.0,64.0
2265,78.0,3.0,30.0,6.0,64.0
2266,78.0,0.0,30.0,4.0,64.0
2267,78.0,83.0,30.0,5.0,64.0
2268,74.0,13.0,120.0,7.0,64.0
2269,56.0,6.0,120.0,10.0,64.0
2270,70.0,12.0,180.0,8.0,64.0
2271,77.0,8.0,120.0,6.0,64.0
2272,77.0,1.0,120.0,4.0,64.0
2273,77.0,61.0,120.0,5.0,64.0
2274,75.0,1.0,30.0,4.0,64.0
2275,75.0,6.0,30.0,6.0,64.0
2276,75.0,6.0,30.0,7.0,64.0
2277,75.0,2.0,30.0,5.0,64.0
2278,58.0,110.0,30.0,10.0,64.0
2279,75.0,5.0,240.0,6.0,64.0
2280,75.0,4.0,270.0,4.0,64.0
2281,75.0,54.0,270.0,5.0,64.0
2282,75.0,118.0,90.0,7.0,64.0
2283,55.0,44.0,510.0,10.0,64.0
2284,70.0,34.0,480.0,8.0,64.0
2285,63.0,40.0,30.0,7.0,64.0
2286,63.0,17.0,90.0,7.0,64.0
2287,75.0,2.0,30.0,6.0,64.0
2288,75.0,2.0,30.0,5.0,64.0
2289,75.0,61.0,30.0,4.0,64.0
2290,73.0,4.0,30.0,6.0,64.0
2291,73.0,44.0,60.0,5.0,64.0
2292,73.0,2.0,30.0,4.0,64.0
2293,72.0,7.0,30.0,5.0,64.0
2294,67.0,2.0,30.0,7.0,64.0
2295,72.0,35.0,30.0,6.0,64.0
2296,72.0,0.0,30.0,4.0,64.0
2297,70.0,13.0,330.0,7.0,64.0
2298,73.0,56.0,90.0,5.0,64.0
2299,73.0,6.0,90.0,4.0,64.0
2300,73.0,2.0,90.0,6.0,64.0
2301,53.0,0.0,30.0,10.0,64.0
2302,51.0,55.0,30.0,10.0,64.0
2303,53.0,8.0,30.0,10.0,64.0
2304,82.0,14.0,60.0,6.0,64.0
2305,82.0,4.0,30.0,4.0,64.0
2306,82.0,2.0,30.0,5.0,64.0
2307,63.0,33.0,30.0,8.0,64.0
2308,55.0,44.0,30.0,10.0,64.0
2309,75.0,1.0,90.0,6.0,64.0
2310,75.0,5.0,90.0,4.0,64.0
2311,75.0,54.0,90.0,5.0,64.0
2312,63.0,0.0,90.0,8.0,64.0
2313,53.0,3.0,30.0,10.0,64.0
2314,55.0,59.0,30.0,10.0,64.0
2315,51.0,11.0,30.0,10.0,64.0
2316,73.0,6.0,30.0,5.0,64.0
2317,73.0,0.0,30.0,4.0,64.0
2318,73.0,101.0,60.0,6.0,64.0
2319,70.0,2.0,30.0,7.0,64.0
2320,67.0,0.0,30.0,8.0,64.0
2321,68.0,115.0,90.0,7.0,64.0
2322,72.0,1.0,90.0,4.0,64.0
2323,72.0,0.0,90.0,5.0,64.0
2324,63.0,11.0,90.0,8.0,64.0
2325,56.0,54.0,510.0,10.0,64.0
2326,72.0,5.0,90.0,6.0,64.0
2327,68.0,14.0,60.0,5.0,64.0
2328,68.0,2.0,30.0,4.0,64.0
2329,68.0,3.0,30.0,6.0,64.0
2330,80.0,3.0,30.0,7.0,64.0
2331,60.0,86.0,30.0,8.0,64.0
2332,80.0,2.0,90.0,7.0,64.0
2333,72.0,3.0,90.0,4.0,64.0
2334,72.0,5.0,90.0,5.0,64.0
2335,72.0,2.0,90.0,6.0,64.0
2336,63.0,118.0,90.0,8.0,64.0
2337,78.0,6.0,30.0,7.0,64.0
2338,75.0,1.0,30.0,4.0,64.0
2339,75.0,59.0,30.0,6.0,64.0
2340,75.0,1.0,30.0,5.0,64.0
2341,68.0,3.0,30.0,8.0,64.0
2342,77.0,7.0,90.0,7.0,64.0
2343,72.0,0.0,360.0,8.0,64.0
2344,80.0,4.0,330.0,4.0,64.0
2345,80.0,23.0,360.0,5.0,64.0
2346,80.0,7.0,330.0,6.0,64.0
2347,54.0,49.0,30.0,10.0,64.0
2348,53.0,61.0,30.0,10.0,64.0
2349,54.0,2.0,30.0,10.0,64.0
2350,77.0,59.0,30.0,7.0,64.0
2351,56.0,43.0,30.0,10.0,64.0
2352,77.0,9.0,60.0,7.0,64.0
2353,54.0,21.0,30.0,10.0,64.0
2354,56.0,66.0,30.0,10.0,64.0
2355,53.0,4.0,30.0,10.0,64.0
2356,80.0,1.0,30.0,4.0,64.0
2357,80.0,0.0,30.0,6.0,64.0
2358,80.0,3.0,30.0,5.0,64.0
2359,75.0,6.0,30.0,7.0,64.0
2360,68.0,110.0,30.0,8.0,64.0
2361,80.0,13.0,240.0,6.0,64.0
2362,80.0,8.0,240.0,4.0,64.0
2363,58.0,6.0,510.0,10.0,64.0
2364,65.0,120.0,90.0,8.0,64.0
2365,80.0,53.0,270.0,5.0,64.0
2366,73.0,11.0,300.0,7.0,64.0
2367,73.0,31.0,30.0,8.0,64.0
2368,73.0,4.0,90.0,8.0,64.0
2369,73.0,7.0,30.0,6.0,64.0
2370,73.0,4.0,60.0,5.0,64.0
2371,73.0,48.0,60.0,4.0,64.0
2372,75.0,2.0,30.0,6.0,64.0
2373,75.0,4.0,30.0,5.0,64.0
2374,75.0,52.0,30.0,4.0,64.0
2375,77.0,5.0,30.0,6.0,64.0
2376,77.0,0.0,30.0,5.0,64.0
2377,71.0,0.0,30.0,8.0,64.0
2378,77.0,53.0,30.0,4.0,64.0
2379,73.0,0.0,30.0,7.0,64.0
2380,78.0,2.0,30.0,6.0,64.0
2381,70.0,9.0,90.0,8.0,64.0
2382,78.0,0.0,30.0,5.0,64.0
2383,78.0,46.0,30.0,4.0,64.0
2384,73.0,31.0,360.0,7.0,64.0
2385,59.0,1.0,30.0,10.0,64.0
2386,77.0,1.0,30.0,5.0,64.0
2387,77.0,0.0,30.0,4.0,64.0
2388,77.0,61.0,30.0,6.0,64.0
2389,58.0,3.0,60.0,10.0,64.0
2390,78.0,0.0,60.0,5.0,64.0
2391,78.0,3.0,60.0,6.0,64.0
2392,78.0,42.0,60.0,4.0,64.0
2393,56.0,4.0,30.0,10.0,64.0
2394,70.0,5.0,30.0,8.0,64.0
2395,80.0,6.0,30.0,5.0,64.0
2396,80.0,53.0,60.0,6.0,64.0
2397,80.0,0.0,30.0,4.0,64.0
2398,70.0,24.0,60.0,8.0,64.0
2399,54.0,6.0,30.0,10.0,64.0
2400,82.0,6.0,60.0,5.0,64.0
2401,82.0,9.0,60.0,4.0,64.0
2402,82.0,5.0,60.0,6.0,64.0
2403,56.0,10.0,30.0,10.0,64.0
2404,80.0,4.0,60.0,5.0,64.0
2405,80.0,8.0,30.0,6.0,64.0
2406,80.0,2.0,60.0,4.0,64.0
2407,54.0,19.0,30.0,10.0,64.0
2408,82.0,5.0,30.0,6.0,64.0
2409,82.0,1.0,30.0,5.0,64.0
2410,82.0,42.0,30.0,4.0,64.0
2411,53.0,4.0,60.0,10.0,64.0
2412,84.0,0.0,30.0,6.0,64.0
2413,73.0,2.0,30.0,7.0,64.0
2414,68.0,3.0,30.0,8.0,64.0
2415,84.0,7.0,30.0,5.0,64.0
2416,84.0,75.0,30.0,4.0,64.0
2417,51.0,38.0,270.0,10.0,64.0
2418,66.0,113.0,600.0,8.0,64.0
2419,85.0,2.0,90.0,6.0,64.0
2420,75.0,69.0,90.0,7.0,64.0
2421,85.0,7.0,60.0,4.0,64.0
2422,85.0,10.0,60.0,5.0,64.0
2423,84.0,61.0,90.0,4.0,64.0
2424,84.0,8.0,90.0,5.0,64.0
2425,84.0,2.0,90.0,6.0,64.0
2426,73.0,37.0,30.0,7.0,64.0
2427,82.0,3.0,60.0,4.0,64.0
2428,82.0,17.0,60.0,5.0,64.0
2429,82.0,16.0,90.0,6.0,64.0
2430,72.0,13.0,90.0,7.0,64.0
2431,51.0,44.0,30.0,10.0,64.0
2432,80.0,7.0,90.0,5.0,64.0
2433,80.0,3.0,90.0,4.0,64.0
2434,80.0,36.0,90.0,6.0,64.0
2435,53.0,13.0,30.0,10.0,64.0
2436,54.0,17.0,30.0,10.0,64.0
2437,70.0,106.0,60.0,7.0,64.0
2438,68.0,5.0,90.0,7.0,64.0
2439,87.0,97.0,360.0,5.0,64.0
2440,48.0,11.0,90.0,10.0,64.0
2441,87.0,0.0,330.0,6.0,64.0
2442,87.0,5.0,300.0,4.0,64.0
2443,44.0,96.0,60.0,10.0,64.0
2444,72.0,0.0,60.0,7.0,64.0
2445,66.0,9.0,30.0,8.0,64.0
2446,46.0,24.0,90.0,10.0,64.0
2447,73.0,1.0,90.0,7.0,64.0
2448,65.0,2.0,90.0,8.0,64.0
2449,78.0,3.0,30.0,6.0,64.0
2450,75.0,3.0,30.0,7.0,64.0
2451,48.0,2.0,30.0,10.0,64.0
2452,78.0,3.0,30.0,5.0,64.0
2453,63.0,0.0,30.0,8.0,64.0
2454,78.0,114.0,30.0,4.0,64.0
2455,49.0,5.0,90.0,10.0,64.0
2456,73.0,0.0,330.0,7.0,64.0
2457,77.0,22.0,330.0,5.0,64.0
2458,77.0,78.0,360.0,6.0,64.0
2459,68.0,122.0,90.0,8.0,64.0
2460,77.0,4.0,360.0,4.0,64.0
2461,51.0,1.0,60.0,10.0,64.0
2462,66.0,103.0,30.0,8.0,64.0
2463,53.0,4.0,90.0,10.0,64.0
2464,68.0,8.0,90.0,8.0,64.0
2465,73.0,10.0,30.0,7.0,64.0
2466,75.0,76.0,60.0,6.0,64.0
2467,75.0,5.0,30.0,5.0,64.0
2468,54.0,3.0,30.0,10.0,64.0
2469,75.0,2.0,30.0,4.0,64.0
2470,70.0,3.0,30.0,8.0,64.0
2471,73.0,0.0,60.0,7.0,64.0
2472,56.0,1.0,180.0,10.0,64.0
2473,77.0,5.0,60.0,5.0,64.0
2474,68.0,14.0,180.0,8.0,64.0
2475,77.0,14.0,60.0,6.0,64.0
2476,77.0,4.0,60.0,4.0,64.0
2477,75.0,5.0,30.0,5.0,64.0
2478,75.0,1.0,30.0,4.0,64.0
2479,75.0,19.0,30.0,6.0,64.0
2480,72.0,3.0,20.0,7.0,64.0
2481,77.0,7.0,30.0,5.0,64.0
2482,73.0,0.0,30.0,7.0,64.0
2483,77.0,1.0,30.0,4.0,64.0
2484,77.0,15.0,20.0,6.0,64.0
2485,75.0,0.0,20.0,5.0,64.0
2486,72.0,7.0,20.0,7.0,64.0
2487,75.0,14.0,30.0,4.0,64.0
2488,75.0,2.0,20.0,6.0,64.0
2489,77.0,2.0,20.0,5.0,64.0
2490,73.0,1.0,20.0,7.0,64.0
2491,77.0,4.0,20.0,6.0,64.0
2492,77.0,10.0,20.0,4.0,64.0
2493,72.0,7.0,20.0,7.0,64.0
2494,75.0,1.0,30.0,5.0,64.0
2495,75.0,1.0,20.0,6.0,64.0
2496,75.0,1.0,20.0,4.0,64.0
2497,73.0,4.0,30.0,7.0,64.0
2498,77.0,1.0,20.0,5.0,64.0
2499,77.0,5.0,30.0,6.0,64.0
2500,77.0,4.0,20.0,4.0,64.0
2501,72.0,11.0,20.0,7.0,64.0
2502,75.0,2.0,30.0,5.0,64.0
2503,75.0,11.0,20.0,6.0,64.0
2504,75.0,0.0,20.0,4.0,64.0
2505,73.0,11.0,30.0,7.0,64.0
2506,77.0,3.0,30.0,5.0,64.0
2507,77.0,4.0,30.0,6.0,64.0
2508,77.0,104.0,30.0,4.0,64.0
2509,72.0,15.0,120.0,7.0,64.0
2510,75.0,7.0,120.0,5.0,64.0
2511,75.0,22.0,150.0,6.0,64.0
2512,75.0,1.0,150.0,4.0,64.0
2513,66.0,39.0,180.0,8.0,64.0
2514,44.0,7.0,150.0,10.0,64.0
2515,73.0,4.0,30.0,6.0,64.0
2516,73.0,4.0,30.0,5.0,64.0
2517,68.0,0.0,30.0,7.0,64.0
2518,73.0,62.0,30.0,4.0,64.0
2519,73.0,7.0,240.0,6.0,64.0
2520,68.0,6.0,120.0,7.0,64.0
2521,65.0,46.0,540.0,8.0,64.0
2522,73.0,15.0,240.0,4.0,64.0
2523,49.0,4.0,720.0,10.0,64.0
2524,73.0,3.0,270.0,5.0,64.0
2525,49.0,25.0,20.0,3.0,64.0
2526,49.0,26.0,20.0,3.0,64.0
2527,49.0,24.0,20.0,3.0,64.0
2528,49.0,19.0,15.0,3.0,64.0
2529,49.0,28.0,20.0,3.0,64.0
2530,49.0,23.0,15.0,3.0,64.0
2531,49.0,31.0,15.0,3.0,64.0
2532,80.0,0.0,30.0,7.0,64.0
2533,97.0,0.0,30.0,1.0,64.0
2534,92.0,18.0,30.0,2.0,64.0
2535,101.0,0.0,30.0,0.0,64.0
2536,49.0,7.0,15.0,3.0,64.0
2537,49.0,3.0,15.0,3.0,64.0
2538,80.0,5.0,60.0,7.0,64.0
2539,97.0,2.0,60.0,1.0,64.0
2540,101.0,0.0,60.0,0.0,64.0
2541,92.0,13.0,90.0,2.0,64.0
2542,49.0,23.0,15.0,3.0,64.0
2543,49.0,23.0,15.0,3.0,64.0
2544,77.0,7.0,30.0,6.0,64.0
2545,49.0,7.0,15.0,3.0,64.0
2546,49.0,27.0,15.0,3.0,64.0
2547,49.0,22.0,20.0,3.0,64.0
2548,75.0,1.0,30.0,6.0,64.0
2549,75.0,4.0,60.0,5.0,64.0
2550,75.0,6.0,30.0,4.0,64.0
2551,49.0,11.0,15.0,3.0,64.0
2552,77.0,9.0,30.0,4.0,64.0
2553,77.0,0.0,30.0,5.0,64.0
2554,77.0,3.0,30.0,7.0,64.0
2555,49.0,13.0,15.0,3.0,64.0
2556,73.0,8.0,60.0,6.0,64.0
2557,92.0,4.0,30.0,1.0,64.0
2558,78.0,5.0,30.0,5.0,64.0
2559,78.0,6.0,30.0,4.0,64.0
2560,85.0,1.0,30.0,2.0,64.0
2561,49.0,5.0,15.0,3.0,64.0
2562,97.0,2.0,30.0,0.0,64.0
2563,80.0,1.0,30.0,5.0,64.0
2564,80.0,14.0,30.0,4.0,64.0
2565,49.0,2.0,20.0,3.0,64.0
2566,82.0,19.0,30.0,5.0,64.0
2567,82.0,1.0,30.0,4.0,64.0
2568,73.0,13.0,300.0,7.0,64.0
2569,83.0,5.0,90.0,5.0,64.0
2570,83.0,2.0,90.0,6.0,64.0
2571,83.0,2.0,90.0,4.0,64.0
2572,85.0,3.0,90.0,2.0,64.0
2573,92.0,116.0,90.0,1.0,64.0
2574,49.0,15.0,20.0,3.0,64.0
2575,97.0,0.0,90.0,0.0,64.0
2576,80.0,3.0,60.0,6.0,64.0
2577,65.0,0.0,60.0,8.0,64.0
2578,80.0,2.0,60.0,4.0,64.0
2579,80.0,56.0,60.0,5.0,64.0
2580,49.0,7.0,20.0,3.0,64.0
2581,66.0,3.0,90.0,8.0,64.0
2582,82.0,3.0,90.0,6.0,64.0
2583,82.0,5.0,60.0,4.0,64.0
2584,82.0,6.0,60.0,5.0,64.0
2585,49.0,12.0,60.0,3.0,64.0
2586,51.0,4.0,30.0,10.0,64.0
2587,71.0,62.0,30.0,7.0,64.0
2588,70.0,4.0,30.0,7.0,64.0
2589,49.0,44.0,30.0,10.0,64.0
2590,68.0,1.0,30.0,7.0,64.0
2591,49.0,2.0,30.0,3.0,64.0
2592,83.0,9.0,30.0,4.0,64.0
2593,68.0,2.0,30.0,8.0,64.0
2594,47.0,0.0,30.0,10.0,64.0
2595,83.0,7.0,30.0,6.0,64.0
2596,83.0,37.0,30.0,5.0,64.0
2597,66.0,14.0,330.0,7.0,64.0
2598,85.0,3.0,330.0,4.0,64.0
2599,54.0,31.0,20.0,3.0,64.0
2600,85.0,4.0,330.0,5.0,64.0
2601,46.0,7.0,270.0,10.0,64.0
2602,70.0,25.0,90.0,8.0,64.0
2603,85.0,3.0,360.0,6.0,64.0
2604,54.0,23.0,15.0,3.0,64.0
2605,54.0,26.0,20.0,3.0,64.0
2606,54.0,0.0,15.0,3.0,64.0
2607,54.0,29.0,15.0,3.0,64.0
2608,54.0,21.0,15.0,3.0,64.0
2609,54.0,30.0,15.0,3.0,64.0
2610,94.0,3.0,30.0,1.0,64.0
2611,85.0,1.0,30.0,2.0,64.0
2612,102.0,2.0,30.0,0.0,64.0
2613,73.0,4.0,30.0,8.0,64.0
2614,54.0,11.0,15.0,3.0,64.0
2615,54.0,29.0,15.0,3.0,64.0
2616,54.0,18.0,15.0,3.0,64.0
2617,94.0,3.0,60.0,1.0,64.0
2618,73.0,5.0,60.0,8.0,64.0
2619,102.0,11.0,60.0,0.0,64.0
2620,85.0,6.0,90.0,2.0,64.0
2621,54.0,25.0,15.0,3.0,64.0
2622,54.0,1.0,15.0,3.0,64.0
2623,47.0,1.0,30.0,10.0,64.0
2624,54.0,1.0,15.0,3.0,64.0
2625,54.0,24.0,15.0,3.0,64.0
2626,46.0,10.0,30.0,10.0,64.0
2627,54.0,13.0,20.0,3.0,64.0
2628,54.0,22.0,15.0,3.0,64.0
2629,54.0,10.0,20.0,3.0,64.0
2630,76.0,3.0,30.0,4.0,64.0
2631,97.0,0.0,30.0,0.0,64.0
2632,70.0,5.0,30.0,8.0,64.0
2633,76.0,6.0,30.0,5.0,64.0
2634,44.0,5.0,30.0,10.0,64.0
2635,76.0,0.0,30.0,6.0,64.0
2636,90.0,1.0,30.0,1.0,64.0
2637,61.0,25.0,30.0,7.0,64.0
2638,82.0,0.0,30.0,2.0,64.0
2639,54.0,7.0,20.0,3.0,64.0
2640,54.0,26.0,20.0,3.0,64.0
2641,42.0,0.0,120.0,10.0,64.0
2642,78.0,15.0,30.0,4.0,64.0
2643,78.0,1.0,30.0,5.0,64.0
2644,78.0,0.0,60.0,6.0,64.0
2645,97.0,3.0,90.0,0.0,64.0
2646,70.0,12.0,180.0,8.0,64.0
2647,73.0,4.0,90.0,7.0,64.0
2648,90.0,3.0,90.0,1.0,64.0
2649,82.0,12.0,90.0,2.0,64.0
2650,76.0,1.0,20.0,5.0,64.0
2651,76.0,14.0,20.0,4.0,64.0
2652,76.0,9.0,20.0,6.0,64.0
2653,78.0,11.0,20.0,4.0,64.0
2654,78.0,0.0,20.0,5.0,64.0
2655,78.0,1.0,20.0,6.0,64.0
2656,76.0,0.0,20.0,5.0,64.0
2657,76.0,19.0,60.0,4.0,64.0
2658,76.0,15.0,20.0,6.0,64.0
2659,78.0,2.0,15.0,5.0,64.0
2660,78.0,1.0,15.0,4.0,64.0
2661,76.0,0.0,15.0,5.0,64.0
2662,78.0,11.0,30.0,6.0,64.0
2663,78.0,5.0,30.0,5.0,64.0
2664,78.0,3.0,30.0,4.0,64.0
2665,76.0,7.0,30.0,6.0,64.0
2666,76.0,14.0,30.0,4.0,64.0
2667,76.0,3.0,20.0,5.0,64.0
2668,75.0,5.0,30.0,6.0,64.0
2669,75.0,2.0,30.0,5.0,64.0
2670,75.0,9.0,30.0,4.0,64.0
2671,71.0,4.0,30.0,7.0,64.0
2672,44.0,2.0,30.0,10.0,64.0
2673,54.0,1.0,20.0,3.0,64.0
2674,76.0,5.0,30.0,6.0,64.0
2675,76.0,8.0,30.0,5.0,64.0
2676,76.0,44.0,30.0,4.0,64.0
2677,78.0,5.0,90.0,5.0,64.0
2678,78.0,3.0,90.0,6.0,64.0
2679,78.0,4.0,60.0,4.0,64.0
2680,73.0,5.0,60.0,7.0,64.0
2681,66.0,101.0,360.0,8.0,64.0
2682,46.0,108.0,90.0,10.0,64.0
2683,54.0,26.0,30.0,3.0,64.0
2684,70.0,74.0,60.0,7.0,64.0
2685,73.0,2.0,30.0,6.0,64.0
2686,73.0,1.0,30.0,5.0,64.0
2687,54.0,8.0,20.0,3.0,64.0
2688,73.0,3.0,30.0,4.0,64.0
2689,42.0,3.0,30.0,10.0,64.0
2690,71.0,15.0,90.0,7.0,64.0
2691,75.0,3.0,270.0,6.0,64.0
2692,75.0,14.0,270.0,5.0,64.0
2693,75.0,51.0,270.0,4.0,64.0
2694,54.0,51.0,60.0,3.0,64.0
2695,47.0,18.0,420.0,10.0,64.0
2696,70.0,5.0,60.0,7.0,64.0
2697,66.0,39.0,30.0,8.0,64.0
2698,71.0,3.0,90.0,7.0,64.0
2699,68.0,4.0,90.0,8.0,64.0
2700,73.0,1.0,30.0,6.0,64.0
2701,73.0,4.0,30.0,5.0,64.0
2702,73.0,43.0,30.0,4.0,64.0
2703,71.0,4.0,30.0,6.0,64.0
2704,71.0,39.0,30.0,5.0,64.0
2705,71.0,2.0,30.0,4.0,64.0
2706,73.0,3.0,60.0,7.0,64.0
2707,70.0,2.0,60.0,6.0,64.0
2708,70.0,2.0,30.0,4.0,64.0
2709,70.0,57.0,60.0,5.0,64.0
2710,70.0,5.0,30.0,8.0,64.0
2711,75.0,1.0,90.0,7.0,64.0
2712,68.0,8.0,60.0,6.0,64.0
2713,68.0,2.0,30.0,4.0,64.0
2714,68.0,39.0,60.0,5.0,64.0
2715,71.0,1.0,90.0,8.0,64.0
2716,59.0,8.0,720.0,10.0,64.0
2717,70.0,7.0,30.0,4.0,64.0
2718,70.0,3.0,30.0,6.0,64.0
2719,70.0,53.0,30.0,5.0,64.0
2720,71.0,10.0,30.0,4.0,64.0
2721,71.0,4.0,60.0,6.0,64.0
2722,71.0,47.0,60.0,5.0,64.0
2723,77.0,1.0,60.0,7.0,64.0
2724,73.0,4.0,60.0,6.0,64.0
2725,73.0,8.0,30.0,4.0,64.0
2726,68.0,50.0,60.0,8.0,64.0
2727,73.0,1.0,60.0,5.0,64.0
2728,78.0,20.0,90.0,7.0,64.0
2729,75.0,9.0,60.0,4.0,64.0
2730,75.0,26.0,60.0,6.0,64.0
2731,70.0,54.0,90.0,8.0,64.0
2732,75.0,4.0,60.0,5.0,64.0
2733,77.0,4.0,60.0,6.0,64.0
2734,77.0,2.0,60.0,4.0,64.0
2735,77.0,0.0,60.0,5.0,64.0
2736,78.0,7.0,60.0,4.0,64.0
2737,78.0,1.0,60.0,6.0,64.0
2738,78.0,38.0,60.0,5.0,64.0
2739,75.0,3.0,30.0,4.0,64.0
2740,75.0,0.0,60.0,6.0,64.0
2741,80.0,8.0,30.0,7.0,64.0
2742,71.0,34.0,60.0,8.0,64.0
2743,75.0,9.0,30.0,5.0,64.0
2744,77.0,2.0,60.0,6.0,64.0
2745,77.0,0.0,60.0,4.0,64.0
2746,77.0,21.0,60.0,5.0,64.0
2747,49.0,21.0,20.0,3.0,64.0
2748,73.0,1.0,90.0,7.0,64.0
2749,68.0,2.0,90.0,8.0,64.0
2750,49.0,4.0,15.0,3.0,64.0
2751,78.0,3.0,30.0,4.0,64.0
2752,49.0,22.0,15.0,3.0,64.0
2753,78.0,16.0,60.0,6.0,64.0
2754,78.0,3.0,30.0,5.0,64.0
2755,49.0,2.0,15.0,3.0,64.0
2756,49.0,21.0,15.0,3.0,64.0
2757,77.0,4.0,30.0,4.0,64.0
2758,77.0,5.0,60.0,6.0,64.0
2759,77.0,3.0,30.0,5.0,64.0
2760,49.0,14.0,15.0,3.0,64.0
2761,49.0,23.0,15.0,3.0,64.0
2762,68.0,0.0,60.0,7.0,64.0
2763,92.0,2.0,30.0,0.0,64.0
2764,73.0,1.0,30.0,8.0,64.0
2765,75.0,0.0,30.0,4.0,64.0
2766,75.0,3.0,30.0,5.0,64.0
2767,49.0,20.0,15.0,3.0,64.0
2768,75.0,1.0,30.0,6.0,64.0
2769,85.0,19.0,30.0,1.0,64.0
2770,49.0,3.0,15.0,3.0,64.0
2771,49.0,22.0,15.0,3.0,64.0
2772,73.0,1.0,60.0,4.0,64.0
2773,73.0,4.0,90.0,8.0,64.0
2774,73.0,5.0,60.0,6.0,64.0
2775,65.0,8.0,90.0,7.0,64.0
2776,73.0,5.0,60.0,5.0,64.0
2777,92.0,7.0,60.0,0.0,64.0
2778,85.0,2.0,60.0,1.0,64.0
2779,49.0,13.0,15.0,3.0,64.0
2780,49.0,12.0,15.0,3.0,64.0
2781,58.0,12.0,30.0,10.0,64.0
2782,75.0,3.0,60.0,5.0,64.0
2783,75.0,28.0,60.0,6.0,64.0
2784,75.0,4.0,30.0,4.0,64.0
2785,49.0,0.0,15.0,3.0,64.0
2786,49.0,0.0,15.0,3.0,64.0
2787,56.0,7.0,30.0,10.0,64.0
2788,77.0,23.0,60.0,6.0,64.0
2789,77.0,2.0,30.0,4.0,64.0
2790,77.0,1.0,30.0,5.0,64.0
2791,49.0,15.0,15.0,3.0,64.0
2792,49.0,1.0,20.0,3.0,64.0
2793,54.0,2.0,30.0,10.0,64.0
2794,92.0,4.0,30.0,1.0,64.0
2795,49.0,17.0,15.0,3.0,64.0
2796,68.0,3.0,30.0,8.0,64.0
2797,78.0,1.0,60.0,6.0,64.0
2798,78.0,13.0,60.0,5.0,64.0
2799,78.0,0.0,60.0,4.0,64.0
2800,61.0,3.0,60.0,7.0,64.0
2801,97.0,7.0,30.0,0.0,64.0
2802,49.0,4.0,15.0,3.0,64.0
2803,49.0,39.0,20.0,3.0,64.0
2804,53.0,1.0,120.0,10.0,64.0
2805,80.0,26.0,60.0,6.0,64.0
2806,73.0,8.0,90.0,7.0,64.0
2807,80.0,5.0,60.0,4.0,64.0
2808,68.0,1.0,90.0,8.0,64.0
2809,80.0,0.0,60.0,5.0,64.0
2810,92.0,2.0,60.0,1.0,64.0
2811,97.0,9.0,60.0,0.0,64.0
2812,49.0,5.0,20.0,3.0,64.0
2813,82.0,55.0,60.0,6.0,64.0
2814,82.0,1.0,30.0,5.0,64.0
2815,82.0,2.0,30.0,4.0,64.0
2816,83.0,5.0,30.0,4.0,64.0
2817,83.0,44.0,60.0,6.0,64.0
2818,83.0,0.0,60.0,5.0,64.0
2819,49.0,1.0,30.0,10.0,64.0
2820,65.0,2.0,60.0,8.0,64.0
2821,70.0,4.0,60.0,7.0,64.0
2822,85.0,1.0,30.0,6.0,64.0
2823,85.0,0.0,30.0,5.0,64.0
2824,94.0,2.0,30.0,1.0,64.0
2825,97.0,2.0,30.0,0.0,64.0
2826,85.0,1.0,30.0,4.0,64.0
2827,85.0,51.0,30.0,2.0,64.0
2828,49.0,6.0,20.0,3.0,64.0
2829,83.0,1.0,60.0,6.0,64.0
2830,51.0,6.0,90.0,10.0,64.0
2831,66.0,6.0,90.0,8.0,64.0
2832,95.0,0.0,60.0,0.0,64.0
2833,83.0,2.0,60.0,5.0,64.0
2834,83.0,15.0,60.0,4.0,64.0
2835,54.0,10.0,30.0,3.0,64.0
2836,94.0,7.0,60.0,1.0,64.0
2837,66.0,14.0,60.0,7.0,64.0
2838,78.0,2.0,60.0,2.0,64.0
2839,82.0,1.0,30.0,6.0,64.0
2840,82.0,1.0,30.0,5.0,64.0
2841,82.0,54.0,30.0,4.0,64.0
2842,83.0,3.0,60.0,6.0,64.0
2843,83.0,0.0,30.0,5.0,64.0
2844,83.0,42.0,30.0,4.0,64.0
2845,73.0,11.0,30.0,7.0,64.0
2846,80.0,1.0,60.0,6.0,64.0
2847,53.0,2.0,30.0,10.0,64.0
2848,80.0,1.0,30.0,4.0,64.0
2849,68.0,2.0,30.0,8.0,64.0
2850,85.0,1.0,30.0,2.0,64.0
2851,92.0,1.0,30.0,1.0,64.0
2852,80.0,62.0,30.0,5.0,64.0
2853,97.0,2.0,30.0,0.0,64.0
2854,49.0,0.0,30.0,3.0,64.0
2855,82.0,0.0,120.0,6.0,64.0
2856,66.0,116.0,330.0,8.0,64.0
2857,94.0,2.0,90.0,0.0,64.0
2858,73.0,7.0,300.0,7.0,64.0
2859,54.0,4.0,90.0,10.0,64.0
2860,82.0,104.0,120.0,5.0,64.0
2861,85.0,3.0,90.0,1.0,64.0
2862,54.0,54.0,30.0,3.0,64.0
2863,82.0,1.0,90.0,4.0,64.0
2864,90.0,1.0,90.0,2.0,64.0
2865,83.0,2.0,60.0,6.0,64.0
2866,56.0,4.0,30.0,10.0,64.0
2867,95.0,3.0,60.0,0.0,64.0
2868,83.0,0.0,30.0,4.0,64.0
2869,83.0,92.0,30.0,5.0,64.0
2870,85.0,5.0,90.0,6.0,64.0
2871,58.0,1.0,90.0,10.0,64.0
2872,85.0,7.0,90.0,4.0,64.0
2873,97.0,1.0,90.0,0.0,64.0
2874,85.0,1.0,90.0,5.0,64.0
2875,59.0,0.0,60.0,10.0,64.0
2876,71.0,1.0,30.0,7.0,64.0
2877,87.0,1.0,30.0,6.0,64.0
2878,99.0,3.0,30.0,0.0,64.0
2879,66.0,54.0,60.0,8.0,64.0
2880,87.0,5.0,30.0,5.0,64.0
2881,87.0,8.0,30.0,4.0,64.0
2882,85.0,2.0,90.0,1.0,64.0
2883,68.0,36.0,120.0,7.0,64.0
2884,61.0,11.0,60.0,10.0,64.0
2885,77.0,9.0,90.0,6.0,64.0
2886,92.0,1.0,90.0,0.0,64.0
2887,77.0,6.0,120.0,5.0,64.0
2888,73.0,0.0,90.0,8.0,64.0
2889,97.0,1.0,90.0,2.0,64.0
2890,77.0,2.0,90.0,4.0,64.0
2891,49.0,38.0,30.0,3.0,64.0
2892,63.0,6.0,30.0,10.0,64.0
2893,61.0,60.0,30.0,10.0,64.0
2894,59.0,4.0,60.0,10.0,64.0
2895,78.0,1.0,30.0,6.0,64.0
2896,97.0,2.0,30.0,0.0,64.0
2897,78.0,1.0,30.0,5.0,64.0
2898,78.0,0.0,30.0,4.0,64.0
2899,70.0,63.0,30.0,7.0,64.0
2900,73.0,0.0,30.0,8.0,64.0
2901,58.0,12.0,60.0,10.0,64.0
2902,80.0,1.0,60.0,6.0,64.0
2903,90.0,7.0,90.0,0.0,64.0
2904,80.0,14.0,60.0,5.0,64.0
2905,80.0,1.0,60.0,4.0,64.0
2906,73.0,5.0,90.0,8.0,64.0
2907,70.0,5.0,90.0,7.0,64.0
2908,59.0,15.0,60.0,10.0,64.0
2909,78.0,3.0,20.0,6.0,64.0
2910,78.0,0.0,20.0,4.0,64.0
2911,78.0,5.0,20.0,5.0,64.0
2912,80.0,4.0,20.0,4.0,64.0
2913,80.0,1.0,20.0,6.0,64.0
2914,80.0,0.0,20.0,5.0,64.0
2915,78.0,0.0,20.0,6.0,64.0
2916,78.0,16.0,20.0,4.0,64.0
2917,78.0,1.0,15.0,5.0,64.0
2918,61.0,4.0,60.0,10.0,64.0
2919,80.0,8.0,30.0,6.0,64.0
2920,80.0,3.0,15.0,4.0,64.0
2921,80.0,9.0,15.0,5.0,64.0
2922,78.0,8.0,20.0,4.0,64.0
2923,78.0,1.0,15.0,5.0,64.0
2924,78.0,8.0,20.0,6.0,64.0
2925,80.0,10.0,20.0,4.0,64.0
2926,80.0,4.0,15.0,5.0,64.0
2927,77.0,12.0,30.0,6.0,64.0
2928,78.0,9.0,30.0,4.0,64.0
2929,78.0,6.0,20.0,5.0,64.0
2930,63.0,3.0,30.0,10.0,64.0
2931,97.0,2.0,60.0,0.0,64.0
2932,66.0,1.0,60.0,7.0,64.0
2933,77.0,2.0,30.0,5.0,64.0
2934,70.0,3.0,30.0,8.0,64.0
2935,77.0,4.0,30.0,4.0,64.0
2936,78.0,14.0,30.0,6.0,64.0
2937,78.0,12.0,30.0,5.0,64.0
2938,78.0,38.0,30.0,4.0,64.0
2939,65.0,39.0,60.0,10.0,64.0
2940,80.0,3.0,90.0,6.0,64.0
2941,85.0,11.0,90.0,0.0,64.0
2942,73.0,4.0,300.0,7.0,64.0
2943,80.0,6.0,90.0,4.0,64.0
2944,80.0,1.0,90.0,5.0,64.0
2945,68.0,53.0,90.0,8.0,64.0
2946,63.0,1.0,30.0,10.0,64.0
2947,61.0,52.0,60.0,10.0,64.0
2948,73.0,1.0,30.0,6.0,64.0
2949,63.0,1.0,30.0,10.0,64.0
2950,73.0,3.0,60.0,5.0,64.0
2951,97.0,1.0,30.0,0.0,64.0
2952,73.0,7.0,30.0,4.0,64.0
2953,66.0,0.0,30.0,8.0,64.0
2954,85.0,0.0,30.0,2.0,64.0
2955,92.0,54.0,30.0,1.0,64.0
2956,49.0,0.0,20.0,3.0,64.0
2957,65.0,12.0,60.0,10.0,64.0
2958,95.0,12.0,90.0,0.0,64.0
2959,83.0,3.0,90.0,4.0,64.0
2960,83.0,0.0,90.0,6.0,64.0
2961,85.0,9.0,60.0,2.0,64.0
2962,92.0,1.0,60.0,1.0,64.0
2963,83.0,2.0,90.0,5.0,64.0
2964,68.0,2.0,90.0,8.0,64.0
2965,49.0,16.0,30.0,3.0,64.0
2966,66.0,64.0,60.0,10.0,64.0
2967,68.0,14.0,60.0,10.0,64.0
2968,82.0,10.0,30.0,6.0,64.0
2969,82.0,2.0,30.0,5.0,64.0
2970,82.0,26.0,30.0,4.0,64.0
2971,80.0,1.0,60.0,6.0,64.0
2972,65.0,0.0,30.0,10.0,64.0
2973,80.0,2.0,30.0,5.0,64.0
2974,85.0,2.0,30.0,2.0,64.0
2975,80.0,7.0,30.0,4.0,64.0
2976,97.0,1.0,30.0,0.0,64.0
2977,61.0,9.0,60.0,8.0,64.0
2978,73.0,0.0,30.0,7.0,64.0
2979,92.0,2.0,30.0,1.0,64.0
2980,49.0,3.0,30.0,3.0,64.0
2981,82.0,1.0,30.0,6.0,64.0
2982,82.0,1.0,30.0,5.0,64.0
2983,82.0,46.0,30.0,4.0,64.0
2984,85.0,6.0,90.0,2.0,64.0
2985,66.0,3.0,180.0,10.0,64.0
2986,90.0,3.0,90.0,1.0,64.0
2987,94.0,5.0,90.0,0.0,64.0
2988,83.0,5.0,60.0,6.0,64.0
2989,83.0,6.0,60.0,4.0,64.0
2990,73.0,8.0,150.0,7.0,64.0
2991,54.0,7.0,30.0,3.0,64.0
2992,83.0,8.0,60.0,5.0,64.0
2993,73.0,2.0,180.0,8.0,64.0
2994,82.0,8.0,20.0,5.0,64.0
2995,82.0,4.0,20.0,4.0,64.0
2996,82.0,1.0,15.0,6.0,64.0
2997,83.0,7.0,20.0,5.0,64.0
2998,83.0,2.0,20.0,6.0,64.0
2999,83.0,6.0,20.0,4.0,64.0
3000,82.0,7.0,15.0,5.0,64.0
3001,82.0,1.0,15.0,6.0,64.0
3002,82.0,11.0,15.0,4.0,64.0
3003,83.0,8.0,15.0,5.0,64.0
3004,83.0,5.0,15.0,6.0,64.0
3005,83.0,6.0,20.0,4.0,64.0
3006,82.0,0.0,20.0,5.0,64.0
3007,82.0,6.0,15.0,6.0,64.0
3008,82.0,6.0,20.0,4.0,64.0
3009,83.0,6.0,20.0,5.0,64.0
3010,83.0,8.0,20.0,6.0,64.0
3011,83.0,3.0,20.0,4.0,64.0
3012,82.0,10.0,20.0,5.0,64.0
3013,90.0,4.0,30.0,2.0,64.0
3014,94.0,4.0,30.0,1.0,64.0
3015,97.0,0.0,30.0,0.0,64.0
3016,78.0,0.0,30.0,7.0,64.0
3017,82.0,3.0,20.0,6.0,64.0
3018,54.0,1.0,30.0,3.0,64.0
3019,82.0,1.0,20.0,4.0,64.0
3020,83.0,1.0,30.0,5.0,64.0
3021,83.0,12.0,20.0,6.0,64.0
3022,83.0,4.0,30.0,4.0,64.0
3023,77.0,21.0,30.0,7.0,64.0
3024,82.0,6.0,120.0,5.0,64.0
3025,82.0,4.0,15.0,6.0,64.0
3026,82.0,6.0,120.0,4.0,64.0
3027,83.0,27.0,30.0,6.0,64.0
3028,94.0,9.0,60.0,2.0,64.0
3029,54.0,34.0,150.0,10.0,64.0
3030,73.0,30.0,180.0,8.0,64.0
3031,97.0,3.0,90.0,1.0,64.0
3032,102.0,1.0,60.0,0.0,64.0
3033,78.0,5.0,90.0,7.0,64.0
3034,54.0,25.0,30.0,3.0,64.0
3035,82.0,40.0,90.0,6.0,64.0
3036,80.0,4.0,30.0,5.0,64.0
3037,80.0,2.0,30.0,6.0,64.0
3038,80.0,2.0,30.0,4.0,64.0
3039,99.0,2.0,30.0,0.0,64.0
3040,96.0,1.0,30.0,1.0,64.0
3041,80.0,76.0,30.0,7.0,64.0
3042,54.0,3.0,30.0,3.0,64.0
3043,90.0,2.0,30.0,2.0,64.0
3044,49.0,1.0,150.0,10.0,64.0
3045,92.0,5.0,120.0,2.0,64.0
3046,97.0,4.0,120.0,1.0,64.0
3047,80.0,9.0,150.0,5.0,64.0
3048,101.0,8.0,150.0,0.0,64.0
3049,49.0,18.0,30.0,3.0,64.0
3050,73.0,7.0,120.0,8.0,64.0
3051,77.0,14.0,150.0,7.0,64.0
3052,80.0,46.0,60.0,6.0,64.0
3053,80.0,12.0,60.0,4.0,64.0
3054,73.0,50.0,60.0,6.0,64.0
3055,73.0,2.0,60.0,4.0,64.0
3056,75.0,1.0,60.0,6.0,64.0
3057,75.0,62.0,60.0,4.0,64.0
3058,77.0,113.0,60.0,6.0,64.0
3059,77.0,4.0,60.0,4.0,64.0
3060,77.0,2.0,60.0,4.0,64.0
3061,77.0,41.0,60.0,6.0,64.0
3062,78.0,83.0,30.0,6.0,64.0
3063,78.0,2.0,30.0,4.0,64.0
3064,80.0,0.0,60.0,6.0,64.0
3065,80.0,109.0,60.0,4.0,64.0
3066,77.0,1.0,60.0,4.0,64.0
3067,77.0,51.0,60.0,6.0,64.0
3068,78.0,3.0,60.0,4.0,64.0
3069,78.0,67.0,60.0,6.0,64.0
3070,80.0,107.0,60.0,6.0,64.0
3071,80.0,9.0,60.0,4.0,64.0
3072,80.0,34.0,60.0,4.0,64.0
3073,80.0,6.0,60.0,6.0,64.0
3074,82.0,4.0,30.0,4.0,64.0
3075,82.0,77.0,30.0,6.0,64.0
3076,83.0,105.0,60.0,6.0,64.0
3077,83.0,9.0,60.0,4.0,64.0
3078,83.0,7.0,60.0,6.0,64.0
3079,83.0,35.0,60.0,4.0,64.0
3080,82.0,5.0,60.0,6.0,64.0
3081,82.0,78.0,30.0,4.0,64.0
3082,83.0,104.0,60.0,6.0,64.0
3083,83.0,6.0,60.0,4.0,64.0
3084,85.0,14.0,60.0,6.0,64.0
3085,85.0,34.0,60.0,4.0,64.0
3086,83.0,71.0,30.0,4.0,64.0
3087,83.0,4.0,30.0,6.0,64.0
3088,82.0,113.0,60.0,6.0,64.0
3089,82.0,3.0,60.0,4.0,64.0
3090,66.0,3.0,60.0,5.0,64.0
3091,85.0,1.0,30.0,6.0,64.0
3092,66.0,44.0,60.0,7.0,64.0
3093,85.0,8.0,30.0,4.0,64.0
3094,68.0,5.0,60.0,5.0,64.0
3095,68.0,62.0,60.0,7.0,64.0
3096,70.0,114.0,60.0,5.0,64.0
3097,70.0,7.0,60.0,7.0,64.0
3098,78.0,5.0,60.0,6.0,64.0
3099,78.0,1.0,60.0,4.0,64.0
3100,82.0,4.0,180.0,6.0,64.0
3101,70.0,6.0,60.0,7.0,64.0
3102,82.0,19.0,150.0,4.0,64.0
3103,70.0,35.0,60.0,5.0,64.0
3104,71.0,12.0,30.0,7.0,64.0
3105,71.0,60.0,60.0,5.0,64.0
3106,73.0,100.0,60.0,7.0,64.0
3107,73.0,0.0,60.0,5.0,64.0
3108,70.0,48.0,60.0,7.0,64.0
3109,70.0,6.0,60.0,5.0,64.0
3110,85.0,0.0,60.0,4.0,64.0
3111,85.0,1.0,30.0,6.0,64.0
3112,71.0,13.0,60.0,5.0,64.0
3113,71.0,57.0,60.0,7.0,64.0
3114,73.0,0.0,60.0,5.0,64.0
3115,73.0,110.0,60.0,7.0,64.0
3116,76.0,7.0,60.0,4.0,64.0
3117,76.0,10.0,60.0,6.0,64.0
3118,73.0,41.0,60.0,5.0,64.0
3119,82.0,9.0,180.0,6.0,64.0
3120,73.0,3.0,60.0,7.0,64.0
3121,82.0,11.0,150.0,4.0,64.0
3122,75.0,4.0,60.0,7.0,64.0
3123,75.0,59.0,60.0,5.0,64.0
3124,76.0,0.0,60.0,7.0,64.0
3125,76.0,104.0,60.0,5.0,64.0
3126,85.0,3.0,60.0,6.0,64.0
3127,76.0,3.0,60.0,7.0,64.0
3128,85.0,9.0,60.0,4.0,64.0
3129,76.0,32.0,60.0,5.0,64.0
3130,75.0,73.0,60.0,7.0,64.0
3131,75.0,6.0,30.0,5.0,64.0
3132,76.0,108.0,60.0,7.0,64.0
3133,76.0,0.0,60.0,5.0,64.0
3134,78.0,6.0,60.0,4.0,64.0
3135,78.0,2.0,60.0,6.0,64.0
3136,78.0,3.0,60.0,7.0,64.0
3137,82.0,40.0,60.0,4.0,64.0
3138,82.0,0.0,60.0,6.0,64.0
3139,78.0,8.0,60.0,5.0,64.0
3140,76.0,68.0,60.0,7.0,64.0
3141,76.0,0.0,30.0,5.0,64.0
3142,75.0,105.0,60.0,7.0,64.0
3143,75.0,2.0,60.0,5.0,64.0
3144,83.0,2.0,60.0,4.0,64.0
3145,83.0,11.0,60.0,6.0,64.0
3146,87.0,3.0,60.0,4.0,64.0
3147,71.0,4.0,60.0,7.0,64.0
3148,87.0,6.0,60.0,6.0,64.0
3149,71.0,47.0,60.0,5.0,64.0
3150,73.0,4.0,60.0,7.0,64.0
3151,73.0,58.0,60.0,5.0,64.0
3152,75.0,10.0,60.0,7.0,64.0
3153,75.0,115.0,60.0,5.0,64.0
3154,78.0,4.0,60.0,4.0,64.0
3155,78.0,4.0,60.0,6.0,64.0
3156,75.0,39.0,60.0,5.0,64.0
3157,75.0,1.0,60.0,7.0,64.0
3158,84.0,7.0,180.0,4.0,64.0
3159,84.0,0.0,180.0,6.0,64.0
3160,77.0,69.0,60.0,5.0,64.0
3161,77.0,0.0,60.0,7.0,64.0
3162,78.0,15.0,60.0,7.0,64.0
3163,78.0,93.0,60.0,5.0,64.0
3164,78.0,2.0,60.0,7.0,64.0
3165,87.0,8.0,60.0,6.0,64.0
3166,78.0,35.0,60.0,5.0,64.0
3167,87.0,1.0,60.0,4.0,64.0
3168,77.0,3.0,60.0,7.0,64.0
3169,77.0,73.0,60.0,5.0,64.0
3170,78.0,9.0,60.0,7.0,64.0
3171,78.0,99.0,60.0,5.0,64.0
3172,80.0,4.0,60.0,6.0,64.0
3173,80.0,1.0,60.0,4.0,64.0
3174,80.0,3.0,60.0,7.0,64.0
3175,80.0,36.0,60.0,5.0,64.0
3176,84.0,8.0,30.0,4.0,64.0
3177,84.0,7.0,60.0,6.0,64.0
3178,78.0,3.0,60.0,7.0,64.0
3179,78.0,68.0,60.0,5.0,64.0
3180,77.0,11.0,60.0,7.0,64.0
3181,85.0,2.0,60.0,4.0,64.0
3182,77.0,5.0,60.0,5.0,64.0
3183,85.0,36.0,60.0,6.0,64.0
3184,80.0,1.0,60.0,4.0,64.0
3185,80.0,61.0,30.0,6.0,64.0
3186,77.0,0.0,60.0,4.0,64.0
3187,80.0,2.0,60.0,7.0,64.0
3188,80.0,3.0,30.0,5.0,64.0
3189,77.0,6.0,60.0,6.0,64.0
3190,61.0,47.0,60.0,8.0,64.0
3191,78.0,1.0,60.0,4.0,64.0
3192,63.0,0.0,60.0,8.0,64.0
3193,78.0,53.0,60.0,6.0,64.0
3194,80.0,5.0,60.0,4.0,64.0
3195,65.0,45.0,60.0,8.0,64.0
3196,73.0,7.0,30.0,5.0,64.0
3197,80.0,10.0,60.0,6.0,64.0
3198,73.0,1.0,60.0,7.0,64.0
3199,82.0,3.0,60.0,4.0,64.0
3200,82.0,66.0,60.0,6.0,64.0
3201,80.0,25.0,60.0,4.0,64.0
3202,80.0,7.0,60.0,6.0,64.0
3203,65.0,4.0,60.0,8.0,64.0
3204,77.0,10.0,180.0,7.0,64.0
3205,77.0,3.0,180.0,5.0,64.0
3206,66.0,8.0,60.0,8.0,64.0
3207,82.0,3.0,60.0,4.0,64.0
3208,82.0,65.0,60.0,6.0,64.0
3209,68.0,36.0,60.0,8.0,64.0
3210,83.0,1.0,60.0,4.0,64.0
3211,83.0,2.0,60.0,6.0,64.0
3212,80.0,57.0,60.0,4.0,64.0
3213,80.0,5.0,60.0,6.0,64.0
3214,73.0,9.0,60.0,6.0,64.0
3215,73.0,29.0,60.0,4.0,64.0
3216,80.0,6.0,60.0,5.0,64.0
3217,80.0,7.0,30.0,7.0,64.0
3218,65.0,3.0,60.0,8.0,64.0
3219,66.0,7.0,60.0,8.0,64.0
3220,75.0,2.0,60.0,6.0,64.0
3221,75.0,58.0,60.0,4.0,64.0
3222,68.0,6.0,60.0,8.0,64.0
3223,77.0,39.0,60.0,6.0,64.0
3224,77.0,1.0,60.0,4.0,64.0
3225,71.0,8.0,30.0,5.0,64.0
3226,71.0,1.0,60.0,7.0,64.0
3227,78.0,64.0,60.0,6.0,64.0
3228,78.0,1.0,60.0,4.0,64.0
3229,77.0,5.0,60.0,6.0,64.0
3230,77.0,14.0,60.0,4.0,64.0
3231,77.0,6.0,180.0,5.0,64.0
3232,68.0,30.0,60.0,8.0,64.0
3233,77.0,32.0,180.0,7.0,64.0
3234,78.0,67.0,60.0,6.0,64.0
3235,78.0,9.0,60.0,4.0,64.0
3236,70.0,3.0,60.0,8.0,64.0
3237,80.0,11.0,60.0,6.0,64.0
3238,80.0,3.0,60.0,4.0,64.0
3239,71.0,5.0,60.0,8.0,64.0
3240,78.0,1.0,60.0,4.0,64.0
3241,78.0,56.0,60.0,6.0,64.0
3242,77.0,3.0,60.0,4.0,64.0
3243,77.0,6.0,60.0,6.0,64.0
3244,80.0,3.0,60.0,5.0,64.0
3245,80.0,0.0,60.0,7.0,64.0
3246,71.0,35.0,60.0,8.0,64.0
3247,70.0,73.0,60.0,8.0,64.0
3248,78.0,3.0,60.0,6.0,64.0
3249,78.0,1.0,60.0,4.0,64.0
3250,73.0,1.0,60.0,5.0,64.0
3251,80.0,2.0,60.0,6.0,64.0
3252,71.0,4.0,60.0,8.0,64.0
3253,80.0,1.0,60.0,4.0,64.0
3254,73.0,54.0,60.0,7.0,64.0
3255,78.0,38.0,60.0,6.0,64.0
3256,78.0,3.0,60.0,4.0,64.0
3257,77.0,9.0,60.0,6.0,64.0
3258,77.0,12.0,60.0,4.0,64.0
3259,77.0,9.0,30.0,5.0,64.0
3260,73.0,37.0,60.0,8.0,64.0
3261,77.0,0.0,60.0,7.0,64.0
3262,75.0,6.0,60.0,6.0,64.0
3263,75.0,45.0,60.0,4.0,64.0
3264,71.0,8.0,60.0,8.0,64.0
3265,73.0,0.0,60.0,6.0,64.0
3266,70.0,10.0,60.0,8.0,64.0
3267,73.0,37.0,60.0,4.0,64.0
3268,78.0,5.0,60.0,5.0,64.0
3269,78.0,2.0,60.0,7.0,64.0
3270,73.0,2.0,30.0,5.0,64.0
3271,78.0,2.0,60.0,6.0,64.0
3272,78.0,31.0,90.0,4.0,64.0
3273,73.0,33.0,30.0,7.0,64.0
3274,70.0,14.0,60.0,5.0,64.0
3275,77.0,24.0,90.0,4.0,64.0
3276,77.0,1.0,60.0,6.0,64.0
3277,70.0,0.0,60.0,7.0,64.0
3278,73.0,2.0,30.0,8.0,64.0
3279,54.0,6.0,60.0,10.0,64.0
3280,71.0,2.0,60.0,5.0,64.0
3281,75.0,4.0,60.0,6.0,64.0
3282,71.0,8.0,30.0,7.0,64.0
3283,75.0,53.0,60.0,4.0,64.0
3284,56.0,3.0,60.0,10.0,64.0
3285,73.0,3.0,60.0,6.0,64.0
3286,73.0,3.0,60.0,7.0,64.0
3287,73.0,6.0,60.0,5.0,64.0
3288,73.0,12.0,60.0,4.0,64.0
3289,58.0,21.0,60.0,10.0,64.0
3290,66.0,0.0,30.0,8.0,64.0
3291,71.0,13.0,60.0,6.0,64.0
3292,75.0,8.0,30.0,5.0,64.0
3293,71.0,38.0,60.0,4.0,64.0
3294,75.0,9.0,30.0,7.0,64.0
3295,73.0,4.0,60.0,5.0,64.0
3296,70.0,8.0,60.0,6.0,64.0
3297,73.0,2.0,60.0,7.0,64.0
3298,70.0,2.0,60.0,4.0,64.0
3299,58.0,28.0,60.0,10.0,64.0
3300,70.0,0.0,180.0,8.0,64.0
3301,68.0,7.0,30.0,6.0,64.0
3302,75.0,1.0,60.0,5.0,64.0
3303,75.0,2.0,30.0,7.0,64.0
3304,68.0,2.0,30.0,4.0,64.0
3305,59.0,77.0,30.0,10.0,64.0
3306,76.0,6.0,60.0,5.0,64.0
3307,61.0,9.0,60.0,10.0,64.0
3308,66.0,1.0,90.0,6.0,64.0
3309,76.0,5.0,60.0,7.0,64.0
3310,66.0,14.0,60.0,4.0,64.0
3311,73.0,4.0,30.0,5.0,64.0
3312,73.0,77.0,30.0,7.0,64.0
3313,66.0,9.0,60.0,7.0,64.0
3314,66.0,0.0,60.0,5.0,64.0
3315,58.0,6.0,60.0,10.0,64.0
3316,78.0,3.0,90.0,0.0,64.0
3317,73.0,30.0,60.0,8.0,64.0
3318,78.0,0.0,90.0,6.0,64.0
3319,78.0,59.0,90.0,4.0,64.0
3320,68.0,6.0,30.0,7.0,64.0
3321,59.0,6.0,60.0,10.0,64.0
3322,68.0,5.0,60.0,5.0,64.0
3323,70.0,5.0,60.0,7.0,64.0
3324,70.0,2.0,60.0,5.0,64.0
3325,61.0,16.0,90.0,10.0,64.0
3326,78.0,6.0,90.0,0.0,64.0
3327,64.0,18.0,60.0,8.0,64.0
3328,78.0,0.0,90.0,6.0,64.0
3329,78.0,55.0,90.0,4.0,64.0
3330,71.0,10.0,60.0,7.0,64.0
3331,71.0,1.0,60.0,5.0,64.0
3332,70.0,2.0,60.0,7.0,64.0
3333,70.0,27.0,60.0,5.0,64.0
3334,78.0,4.0,90.0,0.0,64.0
3335,78.0,7.0,90.0,6.0,64.0
3336,78.0,1.0,90.0,4.0,64.0
3337,61.0,26.0,60.0,10.0,64.0
3338,70.0,9.0,150.0,8.0,64.0
3339,71.0,3.0,60.0,7.0,64.0
3340,71.0,0.0,30.0,5.0,64.0
3341,63.0,62.0,60.0,10.0,64.0
3342,73.0,22.0,90.0,7.0,64.0
3343,73.0,9.0,60.0,5.0,64.0
3344,64.0,8.0,60.0,10.0,64.0
3345,78.0,2.0,90.0,6.0,64.0
3346,78.0,7.0,90.0,0.0,64.0
3347,78.0,1.0,90.0,4.0,64.0
3348,71.0,17.0,60.0,5.0,64.0
3349,71.0,35.0,60.0,7.0,64.0
3350,70.0,6.0,60.0,5.0,64.0
3351,73.0,4.0,30.0,8.0,64.0
3352,70.0,5.0,60.0,7.0,64.0
3353,90.0,3.0,90.0,1.0,64.0
3354,78.0,6.0,90.0,6.0,64.0
3355,82.0,9.0,90.0,0.0,64.0
3356,85.0,1.0,90.0,2.0,64.0
3357,54.0,12.0,30.0,3.0,64.0
3358,64.0,24.0,60.0,10.0,64.0
3359,78.0,3.0,90.0,4.0,64.0
3360,71.0,0.0,60.0,5.0,64.0
3361,63.0,1.0,60.0,10.0,64.0
3362,71.0,50.0,60.0,7.0,64.0
3363,78.0,7.0,90.0,6.0,64.0
3364,64.0,2.0,60.0,10.0,64.0
3365,90.0,1.0,90.0,1.0,64.0
3366,66.0,2.0,60.0,8.0,64.0
3367,85.0,13.0,60.0,2.0,64.0
3368,78.0,4.0,90.0,4.0,64.0
3369,82.0,17.0,90.0,0.0,64.0
3370,73.0,12.0,60.0,5.0,64.0
3371,73.0,4.0,60.0,7.0,64.0
3372,54.0,13.0,30.0,3.0,64.0
3373,71.0,19.0,60.0,5.0,64.0
3374,71.0,27.0,90.0,7.0,64.0
3375,70.0,6.0,60.0,7.0,64.0
3376,70.0,10.0,60.0,5.0,64.0
3377,70.0,3.0,60.0,8.0,64.0
3378,78.0,0.0,90.0,4.0,64.0
3379,78.0,10.0,90.0,6.0,64.0
3380,82.0,2.0,90.0,2.0,64.0
3381,90.0,3.0,90.0,1.0,64.0
3382,66.0,16.0,60.0,10.0,64.0
3383,54.0,4.0,30.0,3.0,64.0
3384,85.0,4.0,60.0,0.0,64.0
3385,64.0,1.0,60.0,10.0,64.0
3386,68.0,67.0,60.0,5.0,64.0
3387,68.0,1.0,30.0,7.0,64.0
3388,78.0,11.0,90.0,6.0,64.0
3389,78.0,21.0,90.0,4.0,64.0
3390,71.0,9.0,60.0,8.0,64.0
3391,66.0,2.0,60.0,7.0,64.0
3392,66.0,5.0,60.0,5.0,64.0
3393,63.0,4.0,60.0,10.0,64.0
3394,78.0,0.0,150.0,2.0,64.0
3395,90.0,14.0,150.0,1.0,64.0
3396,54.0,2.0,60.0,3.0,64.0
3397,83.0,22.0,120.0,0.0,64.0
3398,75.0,21.0,60.0,8.0,64.0
3399,80.0,1.0,90.0,6.0,64.0
3400,72.0,5.0,60.0,8.0,64.0
3401,80.0,6.0,90.0,4.0,64.0
3402,75.0,1.0,60.0,5.0,64.0
3403,56.0,26.0,60.0,10.0,64.0
3404,75.0,19.0,60.0,7.0,64.0
3405,58.0,12.0,60.0,10.0,64.0
3406,73.0,51.0,60.0,8.0,64.0
3407,80.0,3.0,90.0,6.0,64.0
3408,60.0,1.0,60.0,10.0,64.0
3409,80.0,4.0,90.0,4.0,64.0
3410,75.0,31.0,60.0,8.0,64.0
3411,68.0,10.0,30.0,5.0,64.0
3412,68.0,10.0,60.0,7.0,64.0
3413,77.0,69.0,30.0,8.0,64.0
3414,75.0,10.0,60.0,8.0,64.0
3415,80.0,3.0,90.0,6.0,64.0
3416,72.0,5.0,180.0,5.0,64.0
3417,80.0,7.0,90.0,4.0,64.0
3418,60.0,27.0,60.0,10.0,64.0
3419,72.0,5.0,180.0,7.0,64.0
3420,77.0,4.0,30.0,8.0,64.0
3421,61.0,67.0,30.0,10.0,64.0
3422,80.0,72.0,90.0,6.0,64.0
3423,78.0,10.0,60.0,8.0,64.0
3424,80.0,0.0,90.0,4.0,64.0
3425,63.0,19.0,60.0,10.0,64.0
3426,75.0,3.0,30.0,8.0,64.0
3427,68.0,3.0,60.0,8.0,64.0
3428,60.0,3.0,60.0,10.0,64.0
3429,80.0,1.0,90.0,4.0,64.0
3430,80.0,0.0,90.0,6.0,64.0
3431,80.0,66.0,90.0,0.0,64.0
3432,75.0,9.0,60.0,7.0,64.0
3433,75.0,33.0,60.0,5.0,64.0
3434,70.0,1.0,60.0,8.0,64.0
3435,61.0,2.0,60.0,10.0,64.0
3436,72.0,11.0,60.0,8.0,64.0
3437,63.0,31.0,60.0,10.0,64.0
3438,80.0,57.0,90.0,0.0,64.0
3439,80.0,5.0,90.0,6.0,64.0
3440,80.0,0.0,90.0,4.0,64.0
3441,66.0,0.0,60.0,7.0,64.0
3442,66.0,3.0,30.0,5.0,64.0
3443,73.0,5.0,60.0,8.0,64.0
3444,72.0,33.0,60.0,8.0,64.0
3445,80.0,4.0,90.0,6.0,64.0
3446,80.0,7.0,90.0,4.0,64.0
3447,63.0,14.0,60.0,10.0,64.0
3448,72.0,3.0,180.0,7.0,64.0
3449,80.0,3.0,90.0,0.0,64.0
3450,72.0,10.0,180.0,5.0,64.0
3451,73.0,1.0,60.0,8.0,64.0
3452,65.0,82.0,60.0,10.0,64.0
3453,66.0,12.0,90.0,10.0,64.0
3454,75.0,3.0,60.0,8.0,64.0
3455,80.0,62.0,120.0,0.0,64.0
3456,80.0,3.0,90.0,6.0,64.0
3457,80.0,11.0,90.0,4.0,64.0
3458,73.0,2.0,60.0,8.0,64.0
3459,72.0,3.0,60.0,8.0,64.0
3460,75.0,8.0,60.0,7.0,64.0
3461,66.0,23.0,60.0,10.0,64.0
3462,80.0,2.0,90.0,6.0,64.0
3463,75.0,1.0,60.0,5.0,64.0
3464,78.0,6.0,90.0,2.0,64.0
3465,84.0,1.0,90.0,0.0,64.0
3466,80.0,5.0,90.0,4.0,64.0
3467,54.0,3.0,30.0,3.0,64.0
3468,92.0,0.0,90.0,1.0,64.0
3469,65.0,4.0,60.0,10.0,64.0
3470,73.0,65.0,60.0,8.0,64.0
3471,66.0,7.0,90.0,10.0,64.0
3472,80.0,3.0,90.0,6.0,64.0
3473,80.0,1.0,90.0,4.0,64.0
3474,75.0,12.0,60.0,8.0,64.0
3475,68.0,5.0,60.0,7.0,64.0
3476,68.0,8.0,60.0,5.0,64.0
3477,84.0,7.0,90.0,0.0,64.0
3478,78.0,10.0,90.0,2.0,64.0
3479,54.0,2.0,30.0,3.0,64.0
3480,92.0,4.0,90.0,1.0,64.0
3481,73.0,47.0,60.0,8.0,64.0
3482,72.0,11.0,60.0,8.0,64.0
3483,68.0,6.0,60.0,10.0,64.0
3484,80.0,4.0,90.0,6.0,64.0
3485,80.0,9.0,90.0,4.0,64.0
3486,72.0,0.0,30.0,5.0,64.0
3487,72.0,15.0,30.0,7.0,64.0
3488,87.0,1.0,90.0,0.0,64.0
3489,78.0,12.0,90.0,2.0,64.0
3490,54.0,8.0,30.0,3.0,64.0
3491,92.0,1.0,60.0,1.0,64.0
3492,66.0,5.0,60.0,10.0,64.0
3493,70.0,69.0,60.0,8.0,64.0
3494,80.0,12.0,60.0,6.0,64.0
3495,65.0,11.0,60.0,10.0,64.0
3496,73.0,2.0,60.0,7.0,64.0
3497,80.0,0.0,60.0,4.0,64.0
3498,73.0,1.0,60.0,5.0,64.0
3499,85.0,1.0,150.0,2.0,64.0
3500,68.0,41.0,240.0,8.0,64.0
3501,85.0,19.0,120.0,0.0,64.0
3502,92.0,22.0,120.0,1.0,64.0
3503,49.0,11.0,60.0,3.0,64.0
3504,85.0,6.0,30.0,7.0,64.0
3505,85.0,27.0,30.0,5.0,64.0
3506,73.0,0.0,60.0,6.0,64.0
3507,77.0,3.0,60.0,7.0,64.0
3508,77.0,25.0,60.0,5.0,64.0
3509,73.0,5.0,60.0,4.0,64.0
3510,68.0,8.0,30.0,10.0,64.0
3511,75.0,2.0,30.0,6.0,64.0
3512,75.0,7.0,30.0,4.0,64.0
3513,78.0,4.0,30.0,5.0,64.0
3514,78.0,30.0,60.0,7.0,64.0
3515,77.0,5.0,60.0,6.0,64.0
3516,77.0,3.0,60.0,4.0,64.0
3517,80.0,1.0,60.0,7.0,64.0
3518,80.0,30.0,60.0,5.0,64.0
3519,61.0,4.0,60.0,10.0,64.0
3520,82.0,3.0,60.0,7.0,64.0
3521,82.0,71.0,30.0,5.0,64.0
3522,80.0,5.0,60.0,7.0,64.0
3523,73.0,3.0,90.0,8.0,64.0
3524,80.0,24.0,60.0,5.0,64.0
3525,65.0,7.0,180.0,10.0,64.0
3526,77.0,0.0,60.0,6.0,64.0
3527,77.0,11.0,60.0,4.0,64.0
3528,82.0,2.0,60.0,5.0,64.0
3529,82.0,1.0,60.0,7.0,64.0
3530,78.0,7.0,30.0,6.0,64.0
3531,78.0,70.0,60.0,4.0,64.0
3532,73.0,12.0,120.0,8.0,64.0
3533,83.0,2.0,60.0,7.0,64.0
3534,83.0,3.0,60.0,5.0,64.0
3535,80.0,4.0,60.0,4.0,64.0
3536,80.0,27.0,60.0,6.0,64.0
3537,80.0,0.0,30.0,7.0,64.0
3538,80.0,60.0,60.0,5.0,64.0
3539,73.0,3.0,60.0,7.0,64.0
3540,73.0,32.0,60.0,5.0,64.0
3541,68.0,4.0,60.0,10.0,64.0
3542,77.0,2.0,60.0,6.0,64.0
3543,73.0,9.0,90.0,8.0,64.0
3544,77.0,2.0,60.0,4.0,64.0
3545,75.0,1.0,60.0,7.0,64.0
3546,75.0,0.0,60.0,5.0,64.0
3547,78.0,62.0,60.0,4.0,64.0
3548,78.0,8.0,30.0,6.0,64.0
3549,77.0,1.0,60.0,7.0,64.0
3550,73.0,10.0,90.0,8.0,64.0
3551,77.0,37.0,60.0,5.0,64.0
3552,80.0,4.0,60.0,4.0,64.0
3553,80.0,4.0,60.0,6.0,64.0
3554,59.0,0.0,60.0,10.0,64.0
3555,78.0,0.0,60.0,7.0,64.0
3556,78.0,65.0,60.0,5.0,64.0
3557,77.0,32.0,60.0,7.0,64.0
3558,77.0,3.0,60.0,5.0,64.0
3559,73.0,7.0,90.0,8.0,64.0
3560,80.0,1.0,60.0,4.0,64.0
3561,80.0,0.0,60.0,6.0,64.0
3562,65.0,13.0,180.0,10.0,64.0
3563,82.0,4.0,60.0,4.0,64.0
3564,82.0,1.0,60.0,6.0,64.0
3565,78.0,69.0,60.0,7.0,64.0
3566,78.0,2.0,60.0,5.0,64.0
3567,73.0,30.0,90.0,8.0,64.0
3568,83.0,8.0,60.0,4.0,64.0
3569,80.0,2.0,60.0,7.0,64.0
3570,83.0,9.0,60.0,6.0,64.0
3571,80.0,0.0,60.0,5.0,64.0
3572,78.0,60.0,60.0,7.0,64.0
3573,78.0,2.0,60.0,5.0,64.0
3574,73.0,21.0,90.0,8.0,64.0
3575,77.0,0.0,60.0,7.0,64.0
3576,83.0,1.0,60.0,6.0,64.0
3577,83.0,2.0,60.0,4.0,64.0
3578,77.0,13.0,60.0,5.0,64.0
3579,68.0,4.0,60.0,10.0,64.0
3580,82.0,3.0,60.0,4.0,64.0
3581,82.0,0.0,60.0,6.0,64.0
3582,78.0,1.0,60.0,7.0,64.0
3583,78.0,83.0,30.0,5.0,64.0
3584,73.0,5.0,90.0,8.0,64.0
3585,83.0,0.0,90.0,6.0,64.0
3586,80.0,1.0,60.0,5.0,64.0
3587,83.0,29.0,90.0,4.0,64.0
3588,80.0,0.0,60.0,7.0,64.0
3589,61.0,6.0,60.0,10.0,64.0
3590,78.0,8.0,60.0,7.0,64.0
3591,78.0,51.0,60.0,5.0,64.0
3592,73.0,27.0,90.0,8.0,64.0
3593,77.0,3.0,60.0,7.0,64.0
3594,85.0,3.0,60.0,6.0,64.0
3595,77.0,11.0,60.0,5.0,64.0
3596,65.0,2.0,60.0,10.0,64.0
3597,85.0,10.0,60.0,4.0,64.0
3598,75.0,6.0,60.0,7.0,64.0
3599,83.0,2.0,60.0,6.0,64.0
3600,75.0,3.0,60.0,5.0,64.0
3601,83.0,71.0,60.0,4.0,64.0
3602,73.0,3.0,90.0,8.0,64.0
3603,73.0,0.0,60.0,7.0,64.0
3604,82.0,3.0,60.0,6.0,64.0
3605,54.0,13.0,60.0,10.0,64.0
3606,73.0,1.0,60.0,5.0,64.0
3607,82.0,88.0,60.0,4.0,64.0
3608,66.0,1.0,60.0,8.0,64.0
3609,66.0,8.0,60.0,10.0,64.0
3610,82.0,3.0,60.0,6.0,64.0
3611,70.0,1.0,60.0,7.0,64.0
3612,70.0,30.0,60.0,5.0,64.0
3613,82.0,5.0,30.0,4.0,64.0
3614,80.0,9.0,30.0,6.0,64.0
3615,68.0,66.0,60.0,8.0,64.0
3616,80.0,0.0,30.0,4.0,64.0
3617,82.0,16.0,90.0,6.0,64.0
3618,66.0,13.0,60.0,8.0,64.0
3619,82.0,1.0,90.0,4.0,64.0
3620,59.0,16.0,60.0,10.0,64.0
3621,75.0,4.0,270.0,7.0,64.0
3622,75.0,17.0,270.0,5.0,64.0
3623,65.0,69.0,30.0,8.0,64.0
3624,63.0,10.0,60.0,8.0,64.0
3625,63.0,27.0,60.0,10.0,64.0
3626,83.0,0.0,30.0,6.0,64.0
3627,83.0,12.0,30.0,4.0,64.0
3628,66.0,3.0,30.0,8.0,64.0
3629,82.0,12.0,30.0,6.0,64.0
3630,82.0,56.0,30.0,4.0,64.0
3631,80.0,11.0,90.0,6.0,64.0
3632,65.0,4.0,60.0,8.0,64.0
3633,80.0,15.0,90.0,4.0,64.0
3634,53.0,11.0,60.0,10.0,64.0
3635,66.0,61.0,60.0,8.0,64.0
3636,65.0,7.0,60.0,8.0,64.0
3637,65.0,2.0,60.0,10.0,64.0
3638,80.0,1.0,60.0,6.0,64.0
3639,74.0,2.0,60.0,5.0,64.0
3640,80.0,10.0,30.0,4.0,64.0
3641,74.0,30.0,60.0,7.0,64.0
3642,63.0,7.0,60.0,8.0,64.0
3643,78.0,2.0,30.0,6.0,64.0
3644,78.0,9.0,30.0,4.0,64.0
3645,75.0,53.0,60.0,5.0,64.0
3646,75.0,1.0,60.0,7.0,64.0
3647,62.0,13.0,60.0,8.0,64.0
3648,80.0,21.0,90.0,6.0,64.0
3649,80.0,24.0,90.0,4.0,64.0
3650,77.0,6.0,60.0,7.0,64.0
3651,77.0,0.0,60.0,5.0,64.0
3652,58.0,9.0,60.0,10.0,64.0
3653,75.0,43.0,60.0,7.0,64.0
3654,75.0,0.0,60.0,5.0,64.0
3655,65.0,0.0,60.0,8.0,64.0
3656,74.0,6.0,60.0,7.0,64.0
3657,74.0,31.0,60.0,5.0,64.0
3658,82.0,2.0,60.0,6.0,64.0
3659,62.0,3.0,60.0,10.0,64.0
3660,82.0,5.0,30.0,4.0,64.0
3661,80.0,2.0,30.0,6.0,64.0
3662,80.0,0.0,30.0,4.0,64.0
3663,72.0,3.0,30.0,7.0,64.0
3664,72.0,80.0,30.0,5.0,64.0
3665,78.0,25.0,90.0,4.0,64.0
3666,70.0,3.0,60.0,7.0,64.0
3667,78.0,2.0,60.0,6.0,64.0
3668,70.0,0.0,60.0,5.0,64.0
3669,66.0,8.0,60.0,8.0,64.0
3670,51.0,6.0,60.0,10.0,64.0
3671,82.0,48.0,60.0,7.0,64.0
3672,82.0,14.0,30.0,5.0,64.0
3673,70.0,17.0,60.0,8.0,64.0
3674,63.0,0.0,60.0,10.0,64.0
3675,78.0,1.0,60.0,6.0,64.0
3676,75.0,19.0,60.0,7.0,64.0
3677,75.0,13.0,60.0,5.0,64.0
3678,78.0,3.0,60.0,4.0,64.0
3679,78.0,1.0,30.0,0.0,64.0
3680,78.0,13.0,90.0,1.0,64.0
3681,80.0,3.0,60.0,6.0,64.0
3682,80.0,5.0,30.0,4.0,64.0
3683,80.0,4.0,60.0,0.0,64.0
3684,77.0,1.0,30.0,7.0,64.0
3685,77.0,49.0,60.0,5.0,64.0
3686,82.0,3.0,60.0,6.0,64.0
3687,82.0,1.0,60.0,4.0,64.0
3688,82.0,31.0,60.0,0.0,64.0
3689,61.0,4.0,60.0,10.0,64.0
3690,78.0,8.0,60.0,7.0,64.0
3691,63.0,3.0,30.0,8.0,64.0
3692,78.0,1.0,60.0,5.0,64.0
3693,78.0,0.0,90.0,1.0,64.0
3694,80.0,13.0,60.0,7.0,64.0
3695,80.0,52.0,60.0,5.0,64.0
3696,78.0,1.0,60.0,7.0,64.0
3697,59.0,6.0,90.0,10.0,64.0
3698,82.0,5.0,60.0,6.0,64.0
3699,66.0,1.0,180.0,8.0,64.0
3700,82.0,8.0,60.0,4.0,64.0
3701,78.0,22.0,60.0,5.0,64.0
3702,82.0,3.0,30.0,0.0,64.0
3703,78.0,4.0,90.0,1.0,64.0
3704,83.0,6.0,30.0,6.0,64.0
3705,80.0,65.0,60.0,7.0,64.0
3706,80.0,4.0,60.0,5.0,64.0
3707,83.0,0.0,30.0,0.0,64.0
3708,83.0,6.0,30.0,4.0,64.0
3709,85.0,8.0,90.0,6.0,64.0
3710,85.0,14.0,90.0,0.0,64.0
3711,82.0,5.0,60.0,7.0,64.0
3712,58.0,7.0,90.0,10.0,64.0
3713,85.0,1.0,60.0,4.0,64.0
3714,82.0,6.0,60.0,5.0,64.0
3715,78.0,6.0,90.0,1.0,64.0
3716,85.0,6.0,60.0,5.0,64.0
3717,85.0,52.0,60.0,7.0,64.0
3718,82.0,2.0,60.0,6.0,64.0
3719,78.0,11.0,90.0,8.0,64.0
3720,78.0,3.0,60.0,5.0,64.0
3721,78.0,17.0,60.0,7.0,64.0
3722,78.0,4.0,90.0,1.0,64.0
3723,82.0,8.0,30.0,0.0,64.0
3724,82.0,0.0,60.0,4.0,64.0
3725,78.0,2.0,90.0,2.0,64.0
3726,63.0,6.0,60.0,10.0,64.0
3727,80.0,0.0,60.0,5.0,64.0
3728,83.0,3.0,30.0,6.0,64.0
3729,80.0,5.0,60.0,7.0,64.0
3730,83.0,4.0,30.0,0.0,64.0
3731,83.0,62.0,60.0,4.0,64.0
3732,78.0,2.0,120.0,8.0,64.0
3733,82.0,1.0,60.0,5.0,64.0
3734,85.0,10.0,90.0,6.0,64.0
3735,85.0,1.0,60.0,0.0,64.0
3736,82.0,16.0,60.0,7.0,64.0
3737,78.0,7.0,90.0,1.0,64.0
3738,61.0,4.0,60.0,10.0,64.0
3739,85.0,0.0,60.0,4.0,64.0
3740,78.0,8.0,90.0,2.0,64.0
3741,83.0,51.0,60.0,5.0,64.0
3742,83.0,5.0,60.0,7.0,64.0
3743,82.0,5.0,30.0,7.0,64.0
3744,82.0,15.0,60.0,5.0,64.0
3745,59.0,13.0,60.0,10.0,64.0
3746,78.0,3.0,90.0,8.0,64.0
3747,85.0,1.0,60.0,4.0,64.0
3748,78.0,6.0,90.0,1.0,64.0
3749,85.0,3.0,30.0,0.0,64.0
3750,85.0,1.0,60.0,6.0,64.0
3751,78.0,14.0,60.0,2.0,64.0
3752,83.0,1.0,60.0,5.0,64.0
3753,83.0,1.0,60.0,7.0,64.0
3754,87.0,2.0,60.0,6.0,64.0
3755,87.0,72.0,60.0,4.0,64.0
3756,87.0,0.0,30.0,0.0,64.0
3757,85.0,7.0,60.0,5.0,64.0
3758,85.0,1.0,60.0,7.0,64.0
3759,58.0,14.0,60.0,10.0,64.0
3760,88.0,6.0,60.0,6.0,64.0
3761,78.0,0.0,90.0,8.0,64.0
3762,88.0,3.0,60.0,4.0,64.0
3763,88.0,2.0,90.0,0.0,64.0
3764,78.0,16.0,90.0,1.0,64.0
3765,78.0,3.0,60.0,2.0,64.0
3766,83.0,46.0,60.0,5.0,64.0
3767,83.0,2.0,60.0,7.0,64.0
3768,82.0,3.0,60.0,5.0,64.0
3769,82.0,3.0,60.0,7.0,64.0
3770,61.0,13.0,60.0,10.0,64.0
3771,78.0,13.0,90.0,8.0,64.0
3772,94.0,13.0,30.0,1.0,64.0
3773,88.0,2.0,30.0,0.0,64.0
3774,88.0,2.0,60.0,4.0,64.0
3775,88.0,2.0,60.0,6.0,64.0
3776,78.0,2.0,90.0,2.0,64.0
3777,54.0,4.0,30.0,3.0,64.0
3778,95.0,1.0,30.0,1.0,64.0
3779,83.0,2.0,60.0,5.0,64.0
3780,87.0,74.0,60.0,4.0,64.0
3781,83.0,5.0,60.0,7.0,64.0
3782,87.0,0.0,30.0,6.0,64.0
3783,87.0,5.0,30.0,0.0,64.0
3784,78.0,3.0,90.0,8.0,64.0
3785,97.0,2.0,90.0,1.0,64.0
3786,85.0,4.0,60.0,5.0,64.0
3787,54.0,0.0,60.0,10.0,64.0
3788,88.0,2.0,60.0,6.0,64.0
3789,88.0,13.0,60.0,4.0,64.0
3790,88.0,7.0,90.0,0.0,64.0
3791,85.0,0.0,60.0,7.0,64.0
3792,82.0,9.0,90.0,2.0,64.0
3793,54.0,2.0,60.0,3.0,64.0
3794,83.0,14.0,60.0,5.0,64.0
3795,83.0,36.0,60.0,7.0,64.0
3796,58.0,7.0,60.0,10.0,64.0
3797,82.0,5.0,60.0,5.0,64.0
3798,73.0,9.0,90.0,8.0,64.0
3799,82.0,18.0,60.0,7.0,64.0
3800,99.0,6.0,30.0,1.0,64.0
3801,90.0,0.0,30.0,0.0,64.0
3802,78.0,0.0,90.0,2.0,64.0
3803,90.0,7.0,60.0,4.0,64.0
3804,90.0,2.0,60.0,6.0,64.0
3805,54.0,6.0,30.0,3.0,64.0
3806,80.0,10.0,60.0,5.0,64.0
3807,88.0,2.0,30.0,0.0,64.0
3808,80.0,58.0,60.0,7.0,64.0
3809,97.0,6.0,30.0,1.0,64.0
3810,88.0,3.0,30.0,6.0,64.0
3811,88.0,5.0,30.0,4.0,64.0
3812,78.0,1.0,60.0,5.0,64.0
3813,95.0,28.0,150.0,1.0,64.0
3814,47.0,2.0,60.0,10.0,64.0
3815,75.0,21.0,120.0,8.0,64.0
3816,87.0,0.0,150.0,0.0,64.0
3817,78.0,0.0,60.0,7.0,64.0
3818,87.0,1.0,60.0,6.0,64.0
3819,90.0,3.0,120.0,2.0,64.0
3820,87.0,8.0,60.0,4.0,64.0
3821,54.0,28.0,60.0,3.0,64.0
3822,83.0,13.0,30.0,6.0,64.0
3823,83.0,5.0,60.0,4.0,64.0
3824,75.0,5.0,60.0,5.0,64.0
3825,80.0,0.0,60.0,6.0,64.0
3826,59.0,3.0,60.0,10.0,64.0
3827,80.0,37.0,60.0,4.0,64.0
3828,75.0,14.0,30.0,7.0,64.0
3829,75.0,55.0,120.0,8.0,64.0
3830,82.0,1.0,60.0,6.0,64.0
3831,82.0,12.0,30.0,4.0,64.0
3832,83.0,5.0,60.0,6.0,64.0
3833,53.0,23.0,60.0,10.0,64.0
3834,80.0,27.0,300.0,5.0,64.0
3835,83.0,17.0,60.0,4.0,64.0
3836,80.0,6.0,270.0,7.0,64.0
3837,75.0,47.0,90.0,8.0,64.0
3838,85.0,6.0,60.0,6.0,64.0
3839,85.0,4.0,30.0,4.0,64.0
3840,82.0,9.0,30.0,6.0,64.0
3841,82.0,10.0,60.0,4.0,64.0
3842,56.0,6.0,60.0,10.0,64.0
3843,75.0,63.0,90.0,8.0,64.0
3844,95.0,4.0,60.0,1.0,64.0
3845,87.0,3.0,60.0,0.0,64.0
3846,92.0,27.0,60.0,2.0,64.0
3847,83.0,1.0,60.0,6.0,64.0
3848,83.0,1.0,30.0,4.0,64.0
3849,85.0,4.0,60.0,6.0,64.0
3850,46.0,2.0,90.0,10.0,64.0
3851,85.0,6.0,30.0,4.0,64.0
3852,73.0,2.0,90.0,8.0,64.0
3853,94.0,3.0,180.0,1.0,64.0
3854,85.0,2.0,150.0,0.0,64.0
3855,92.0,4.0,150.0,2.0,64.0
3856,49.0,1.0,60.0,3.0,64.0
3857,82.0,9.0,30.0,6.0,64.0
3858,82.0,53.0,30.0,4.0,64.0
3859,78.0,7.0,60.0,6.0,64.0
3860,73.0,5.0,90.0,8.0,64.0
3861,73.0,4.0,30.0,7.0,64.0
3862,78.0,15.0,60.0,4.0,64.0
3863,58.0,25.0,60.0,10.0,64.0
3864,73.0,1.0,30.0,5.0,64.0
3865,80.0,2.0,60.0,6.0,64.0
3866,80.0,82.0,30.0,4.0,64.0
3867,73.0,16.0,90.0,8.0,64.0
3868,82.0,4.0,60.0,6.0,64.0
3869,78.0,8.0,270.0,7.0,64.0
3870,51.0,0.0,60.0,10.0,64.0
3871,82.0,13.0,60.0,4.0,64.0
3872,78.0,3.0,300.0,5.0,64.0
3873,83.0,1.0,30.0,6.0,64.0
3874,83.0,73.0,30.0,4.0,64.0
3875,73.0,3.0,90.0,8.0,64.0
3876,80.0,6.0,60.0,6.0,64.0
3877,54.0,5.0,60.0,10.0,64.0
3878,80.0,0.0,60.0,4.0,64.0
3879,85.0,6.0,60.0,0.0,64.0
3880,94.0,0.0,60.0,1.0,64.0
3881,90.0,26.0,30.0,2.0,64.0
3882,82.0,8.0,60.0,6.0,64.0
3883,82.0,58.0,60.0,4.0,64.0
3884,71.0,4.0,90.0,8.0,64.0
3885,44.0,14.0,60.0,10.0,64.0
3886,83.0,0.0,60.0,6.0,64.0
3887,83.0,7.0,60.0,4.0,64.0
3888,92.0,1.0,90.0,1.0,64.0
3889,83.0,2.0,30.0,0.0,64.0
3890,90.0,18.0,60.0,2.0,64.0
3891,82.0,7.0,60.0,6.0,64.0
3892,82.0,41.0,60.0,4.0,64.0
3893,82.0,5.0,30.0,0.0,64.0
3894,80.0,10.0,30.0,6.0,64.0
3895,73.0,7.0,90.0,8.0,64.0
3896,80.0,7.0,60.0,4.0,64.0
3897,49.0,2.0,60.0,10.0,64.0
3898,80.0,9.0,60.0,0.0,64.0
3899,77.0,3.0,60.0,7.0,64.0
3900,85.0,3.0,60.0,2.0,64.0
3901,77.0,16.0,60.0,5.0,64.0
3902,97.0,2.0,60.0,1.0,64.0
3903,49.0,4.0,30.0,3.0,64.0
3904,83.0,3.0,30.0,4.0,64.0
3905,83.0,63.0,60.0,6.0,64.0
3906,83.0,0.0,30.0,0.0,64.0
3907,82.0,6.0,60.0,4.0,64.0
3908,73.0,1.0,90.0,8.0,64.0
3909,54.0,0.0,60.0,10.0,64.0
3910,82.0,6.0,30.0,0.0,64.0
3911,82.0,4.0,60.0,6.0,64.0
3912,97.0,2.0,60.0,1.0,64.0
3913,78.0,7.0,60.0,5.0,64.0
3914,78.0,8.0,60.0,7.0,64.0
3915,54.0,2.0,60.0,3.0,64.0
3916,85.0,13.0,60.0,2.0,64.0
3917,80.0,8.0,60.0,4.0,64.0
3918,80.0,47.0,60.0,6.0,64.0
3919,77.0,2.0,60.0,5.0,64.0
3920,80.0,2.0,30.0,0.0,64.0
3921,77.0,3.0,30.0,7.0,64.0
3922,78.0,2.0,60.0,4.0,64.0
3923,73.0,2.0,120.0,8.0,64.0
3924,75.0,2.0,60.0,7.0,64.0
3925,42.0,3.0,60.0,10.0,64.0
3926,75.0,2.0,60.0,5.0,64.0
3927,78.0,7.0,30.0,0.0,64.0
3928,78.0,9.0,60.0,6.0,64.0
3929,97.0,14.0,60.0,1.0,64.0
3930,54.0,0.0,30.0,3.0,64.0
3931,85.0,7.0,60.0,2.0,64.0
3932,82.0,12.0,30.0,4.0,64.0
3933,78.0,14.0,60.0,7.0,64.0
3934,82.0,0.0,30.0,6.0,64.0
3935,78.0,57.0,60.0,5.0,64.0
3936,82.0,3.0,30.0,0.0,64.0
3937,80.0,2.0,60.0,4.0,64.0
3938,77.0,4.0,60.0,7.0,64.0
3939,49.0,0.0,90.0,10.0,64.0
3940,73.0,11.0,90.0,8.0,64.0
3941,97.0,3.0,150.0,1.0,64.0
3942,77.0,10.0,60.0,5.0,64.0
3943,80.0,10.0,60.0,6.0,64.0
3944,80.0,12.0,120.0,0.0,64.0
3945,49.0,25.0,60.0,3.0,64.0
3946,85.0,10.0,150.0,2.0,64.0
3947,85.0,2.0,60.0,4.0,64.0
3948,85.0,26.0,60.0,6.0,64.0
3949,80.0,1.0,30.0,7.0,64.0
3950,73.0,13.0,90.0,8.0,64.0
3951,77.0,10.0,60.0,6.0,64.0
3952,77.0,4.0,30.0,4.0,64.0
3953,80.0,4.0,30.0,5.0,64.0
3954,49.0,29.0,60.0,10.0,64.0
3955,51.0,7.0,60.0,10.0,64.0
3956,78.0,49.0,60.0,4.0,64.0
3957,78.0,4.0,60.0,6.0,64.0
3958,53.0,19.0,90.0,10.0,64.0
3959,73.0,4.0,90.0,8.0,64.0
3960,73.0,10.0,60.0,7.0,64.0
3961,80.0,12.0,60.0,4.0,64.0
3962,73.0,1.0,30.0,5.0,64.0
3963,80.0,3.0,60.0,6.0,64.0
3964,82.0,10.0,30.0,4.0,64.0
3965,82.0,71.0,30.0,6.0,64.0
3966,80.0,8.0,60.0,4.0,64.0
3967,80.0,24.0,60.0,6.0,64.0
3968,73.0,12.0,90.0,8.0,64.0
3969,77.0,19.0,210.0,7.0,64.0
3970,77.0,0.0,180.0,5.0,64.0
3971,53.0,2.0,60.0,10.0,64.0
3972,82.0,2.0,60.0,4.0,64.0
3973,82.0,1.0,60.0,6.0,64.0
3974,54.0,81.0,60.0,10.0,64.0
3975,73.0,2.0,120.0,8.0,64.0
3976,56.0,3.0,90.0,10.0,64.0
3977,83.0,13.0,60.0,4.0,64.0
3978,83.0,1.0,60.0,6.0,64.0
3979,80.0,4.0,60.0,6.0,64.0
3980,80.0,68.0,60.0,4.0,64.0
3981,73.0,13.0,90.0,8.0,64.0
3982,73.0,21.0,60.0,6.0,64.0
3983,53.0,2.0,60.0,10.0,64.0
3984,73.0,1.0,90.0,0.0,64.0
3985,73.0,3.0,60.0,4.0,64.0
3986,80.0,6.0,60.0,5.0,64.0
3987,80.0,1.0,60.0,7.0,64.0
3988,75.0,9.0,60.0,6.0,64.0
3989,75.0,0.0,60.0,4.0,64.0
3990,54.0,62.0,60.0,10.0,64.0
3991,73.0,4.0,90.0,8.0,64.0
3992,77.0,22.0,60.0,6.0,64.0
3993,56.0,8.0,90.0,10.0,64.0
3994,77.0,4.0,60.0,4.0,64.0
3995,71.0,2.0,60.0,5.0,64.0
3996,71.0,4.0,60.0,7.0,64.0
3997,73.0,0.0,90.0,0.0,64.0
3998,78.0,6.0,30.0,6.0,64.0
3999,78.0,71.0,30.0,4.0,64.0
4000,77.0,3.0,60.0,6.0,64.0
4001,73.0,9.0,90.0,8.0,64.0
4002,77.0,2.0,60.0,4.0,64.0
4003,73.0,5.0,90.0,0.0,64.0
4004,56.0,28.0,60.0,10.0,64.0
4005,77.0,5.0,210.0,7.0,64.0
4006,77.0,1.0,180.0,5.0,64.0
4007,78.0,1.0,60.0,6.0,64.0
4008,58.0,9.0,60.0,10.0,64.0
4009,78.0,75.0,60.0,4.0,64.0
4010,59.0,17.0,90.0,10.0,64.0
4011,73.0,6.0,90.0,8.0,64.0
4012,80.0,4.0,60.0,6.0,64.0
4013,73.0,9.0,90.0,0.0,64.0
4014,80.0,7.0,60.0,4.0,64.0
4015,78.0,0.0,60.0,6.0,64.0
4016,78.0,41.0,60.0,4.0,64.0
4017,77.0,15.0,60.0,6.0,64.0
4018,73.0,1.0,90.0,8.0,64.0
4019,77.0,1.0,60.0,4.0,64.0
4020,59.0,30.0,60.0,10.0,64.0
4021,85.0,3.0,90.0,2.0,64.0
4022,80.0,1.0,90.0,0.0,64.0
4023,80.0,2.0,30.0,7.0,64.0
4024,80.0,2.0,30.0,5.0,64.0
4025,49.0,1.0,30.0,3.0,64.0
4026,85.0,2.0,90.0,1.0,64.0
4027,78.0,6.0,60.0,6.0,64.0
4028,58.0,7.0,60.0,10.0,64.0
4029,78.0,63.0,60.0,4.0,64.0
4030,80.0,7.0,60.0,6.0,64.0
4031,59.0,4.0,90.0,10.0,64.0
4032,73.0,1.0,90.0,8.0,64.0
4033,80.0,17.0,90.0,0.0,64.0
4034,73.0,2.0,60.0,5.0,64.0
4035,73.0,6.0,60.0,7.0,64.0
4036,80.0,10.0,60.0,4.0,64.0
4037,85.0,0.0,90.0,1.0,64.0
4038,85.0,8.0,60.0,2.0,64.0
4039,49.0,4.0,30.0,3.0,64.0
4040,83.0,21.0,60.0,6.0,64.0
4041,83.0,38.0,60.0,4.0,64.0
4042,82.0,9.0,60.0,6.0,64.0
4043,73.0,3.0,90.0,8.0,64.0
4044,77.0,5.0,60.0,5.0,64.0
4045,92.0,6.0,90.0,1.0,64.0
4046,61.0,7.0,60.0,10.0,64.0
4047,82.0,0.0,60.0,4.0,64.0
4048,77.0,5.0,60.0,7.0,64.0
4049,49.0,0.0,30.0,3.0,64.0
4050,85.0,8.0,60.0,0.0,64.0
4051,85.0,4.0,90.0,2.0,64.0
4052,80.0,19.0,60.0,6.0,64.0
4053,59.0,11.0,30.0,10.0,64.0
4054,80.0,38.0,60.0,4.0,64.0
4055,73.0,1.0,90.0,8.0,64.0
4056,58.0,1.0,90.0,10.0,64.0
4057,85.0,23.0,150.0,0.0,64.0
4058,78.0,8.0,30.0,5.0,64.0
4059,85.0,0.0,60.0,6.0,64.0
4060,78.0,19.0,60.0,7.0,64.0
4061,94.0,18.0,90.0,1.0,64.0
4062,85.0,1.0,60.0,4.0,64.0
4063,54.0,28.0,60.0,3.0,64.0
4064,78.0,10.0,120.0,2.0,64.0
4065,83.0,4.0,60.0,6.0,64.0
4066,83.0,11.0,60.0,4.0,64.0
4067,66.0,21.0,90.0,8.0,64.0
4068,58.0,0.0,30.0,10.0,64.0
4069,73.0,0.0,30.0,7.0,64.0
4070,73.0,3.0,30.0,5.0,64.0
4071,82.0,21.0,60.0,6.0,64.0
4072,82.0,3.0,30.0,4.0,64.0
4073,97.0,3.0,30.0,1.0,64.0
4074,56.0,7.0,60.0,10.0,64.0
4075,95.0,2.0,30.0,1.0,64.0
4076,83.0,12.0,30.0,6.0,64.0
4077,83.0,52.0,60.0,4.0,64.0
4078,94.0,16.0,60.0,1.0,64.0
4079,70.0,9.0,60.0,8.0,64.0
4080,85.0,6.0,60.0,6.0,64.0
4081,58.0,25.0,90.0,10.0,64.0
4082,78.0,3.0,300.0,5.0,64.0
4083,78.0,4.0,270.0,7.0,64.0
4084,85.0,6.0,60.0,4.0,64.0
4085,82.0,12.0,60.0,6.0,64.0
4086,82.0,39.0,60.0,4.0,64.0
4087,78.0,4.0,60.0,6.0,64.0
4088,90.0,4.0,60.0,1.0,64.0
4089,75.0,10.0,60.0,8.0,64.0
4090,59.0,4.0,60.0,10.0,64.0
4091,78.0,19.0,60.0,4.0,64.0
4092,87.0,16.0,30.0,0.0,64.0
4093,82.0,5.0,30.0,6.0,64.0
4094,58.0,62.0,60.0,10.0,64.0
4095,82.0,6.0,30.0,4.0,64.0
4096,85.0,0.0,30.0,0.0,64.0
4097,83.0,11.0,60.0,6.0,64.0
4098,56.0,22.0,60.0,10.0,64.0
4099,83.0,2.0,60.0,4.0,64.0
4100,75.0,8.0,90.0,8.0,64.0
4101,92.0,5.0,90.0,1.0,64.0
4102,83.0,12.0,150.0,0.0,64.0
4103,82.0,7.0,60.0,6.0,64.0
4104,82.0,31.0,60.0,4.0,64.0
4105,80.0,1.0,60.0,6.0,64.0
4106,71.0,1.0,60.0,7.0,64.0
4107,95.0,17.0,30.0,1.0,64.0
4108,77.0,15.0,60.0,5.0,64.0
4109,80.0,15.0,60.0,4.0,64.0
4110,56.0,1.0,60.0,10.0,64.0
4111,77.0,3.0,60.0,8.0,64.0
4112,82.0,3.0,60.0,6.0,64.0
4113,54.0,61.0,60.0,10.0,64.0
4114,78.0,0.0,30.0,8.0,64.0
4115,94.0,9.0,30.0,1.0,64.0
4116,82.0,1.0,30.0,4.0,64.0
4117,68.0,1.0,60.0,7.0,64.0
4118,77.0,5.0,60.0,8.0,64.0
4119,83.0,5.0,30.0,6.0,64.0
4120,80.0,4.0,60.0,5.0,64.0
4121,56.0,33.0,60.0,10.0,64.0
4122,83.0,1.0,60.0,4.0,64.0
4123,92.0,11.0,60.0,1.0,64.0
4124,87.0,43.0,60.0,6.0,64.0
4125,87.0,10.0,30.0,4.0,64.0
4126,85.0,4.0,60.0,6.0,64.0
4127,77.0,1.0,60.0,7.0,64.0
4128,73.0,2.0,60.0,8.0,64.0
4129,92.0,9.0,60.0,2.0,64.0
4130,85.0,3.0,60.0,4.0,64.0
4131,85.0,9.0,30.0,0.0,64.0
4132,85.0,1.0,60.0,1.0,64.0
4133,77.0,1.0,60.0,5.0,64.0
4134,58.0,20.0,60.0,10.0,64.0
4135,49.0,3.0,60.0,3.0,64.0
4136,83.0,4.0,30.0,0.0,64.0
4137,83.0,5.0,30.0,6.0,64.0
4138,56.0,67.0,60.0,10.0,64.0
4139,83.0,10.0,30.0,4.0,64.0
4140,82.0,0.0,60.0,0.0,64.0
4141,73.0,4.0,90.0,8.0,64.0
4142,78.0,7.0,60.0,7.0,64.0
4143,54.0,1.0,60.0,3.0,64.0
4144,82.0,1.0,60.0,6.0,64.0
4145,78.0,2.0,60.0,5.0,64.0
4146,85.0,7.0,90.0,1.0,64.0
4147,54.0,12.0,60.0,10.0,64.0
4148,94.0,13.0,90.0,2.0,64.0
4149,82.0,4.0,60.0,4.0,64.0
4150,56.0,61.0,60.0,10.0,64.0
4151,58.0,1.0,60.0,10.0,64.0
4152,73.0,3.0,60.0,7.0,64.0
4153,73.0,20.0,90.0,8.0,64.0
4154,73.0,2.0,60.0,5.0,64.0
4155,85.0,5.0,60.0,0.0,64.0
4156,90.0,1.0,60.0,1.0,64.0
4157,78.0,7.0,60.0,6.0,64.0
4158,78.0,11.0,60.0,4.0,64.0
4159,54.0,71.0,30.0,10.0,64.0
4160,66.0,2.0,60.0,7.0,64.0
4161,59.0,8.0,60.0,10.0,64.0
4162,71.0,10.0,60.0,8.0,64.0
4163,87.0,2.0,60.0,0.0,64.0
4164,90.0,1.0,60.0,1.0,64.0
4165,66.0,2.0,60.0,5.0,64.0
4166,95.0,17.0,60.0,2.0,64.0
4167,54.0,2.0,30.0,3.0,64.0
4168,75.0,5.0,60.0,6.0,64.0
4169,75.0,3.0,60.0,4.0,64.0
4170,61.0,59.0,30.0,10.0,64.0
4171,58.0,10.0,60.0,10.0,64.0
4172,92.0,8.0,60.0,1.0,64.0
4173,75.0,6.0,60.0,8.0,64.0
4174,71.0,8.0,30.0,7.0,64.0
4175,83.0,0.0,60.0,0.0,64.0
4176,80.0,26.0,60.0,6.0,64.0
4177,71.0,3.0,60.0,5.0,64.0
4178,80.0,0.0,60.0,4.0,64.0
4179,59.0,69.0,60.0,10.0,64.0
4180,68.0,9.0,60.0,7.0,64.0
4181,61.0,32.0,60.0,10.0,64.0
4182,85.0,0.0,60.0,1.0,64.0
4183,92.0,3.0,90.0,2.0,64.0
4184,49.0,3.0,60.0,3.0,64.0
4185,89.0,12.0,30.0,0.0,64.0
4186,73.0,2.0,90.0,8.0,64.0
4187,77.0,0.0,60.0,6.0,64.0
4188,77.0,5.0,60.0,4.0,64.0
4189,68.0,22.0,240.0,5.0,64.0
4190,65.0,12.0,60.0,7.0,64.0
4191,73.0,10.0,60.0,6.0,64.0
4192,73.0,43.0,60.0,4.0,64.0
4193,75.0,2.0,60.0,6.0,64.0
4194,59.0,2.0,60.0,10.0,64.0
4195,68.0,14.0,90.0,8.0,64.0
4196,92.0,3.0,60.0,1.0,64.0
4197,75.0,16.0,60.0,4.0,64.0
4198,66.0,6.0,60.0,7.0,64.0
4199,85.0,3.0,60.0,0.0,64.0
4200,68.0,6.0,30.0,7.0,64.0
4201,77.0,29.0,60.0,6.0,64.0
4202,77.0,4.0,30.0,4.0,64.0
4203,78.0,1.0,60.0,6.0,64.0
4204,78.0,3.0,60.0,4.0,64.0
4205,85.0,12.0,60.0,2.0,64.0
4206,94.0,6.0,30.0,1.0,64.0
4207,73.0,17.0,60.0,8.0,64.0
4208,49.0,2.0,30.0,3.0,64.0
4209,58.0,1.0,60.0,10.0,64.0
4210,90.0,7.0,60.0,0.0,64.0
4211,61.0,6.0,30.0,7.0,64.0
4212,92.0,17.0,30.0,1.0,64.0
4213,80.0,40.0,60.0,4.0,64.0
4214,80.0,3.0,60.0,6.0,64.0
4215,94.0,7.0,30.0,1.0,64.0
4216,77.0,1.0,60.0,7.0,64.0
4217,56.0,2.0,60.0,10.0,64.0
4218,82.0,1.0,60.0,4.0,64.0
4219,82.0,8.0,30.0,6.0,64.0
4220,83.0,5.0,60.0,0.0,64.0
4221,73.0,12.0,60.0,8.0,64.0
4222,85.0,10.0,60.0,2.0,64.0
4223,77.0,7.0,60.0,5.0,64.0
4224,49.0,0.0,30.0,3.0,64.0
4225,95.0,13.0,30.0,1.0,64.0
4226,83.0,2.0,30.0,6.0,64.0
4227,83.0,72.0,60.0,4.0,64.0
4228,78.0,0.0,60.0,7.0,64.0
4229,82.0,1.0,60.0,4.0,64.0
4230,54.0,4.0,60.0,10.0,64.0
4231,82.0,4.0,60.0,6.0,64.0
4232,97.0,25.0,150.0,1.0,64.0
4233,73.0,35.0,60.0,8.0,64.0
4234,85.0,7.0,120.0,2.0,64.0
4235,54.0,2.0,60.0,3.0,64.0
4236,82.0,8.0,120.0,0.0,64.0
4237,78.0,6.0,60.0,5.0,64.0
4238,80.0,5.0,60.0,6.0,64.0
4239,71.0,5.0,60.0,8.0,64.0
4240,80.0,12.0,60.0,4.0,64.0
4241,78.0,5.0,60.0,4.0,64.0
4242,78.0,8.0,60.0,6.0,64.0
4243,75.0,1.0,60.0,7.0,64.0
4244,59.0,4.0,60.0,10.0,64.0
4245,70.0,23.0,60.0,8.0,64.0
4246,75.0,0.0,60.0,5.0,64.0
4247,71.0,52.0,60.0,8.0,64.0
4248,80.0,1.0,30.0,6.0,64.0
4249,80.0,20.0,30.0,4.0,64.0
4250,73.0,9.0,60.0,7.0,64.0
4251,68.0,38.0,60.0,8.0,64.0
4252,85.0,9.0,120.0,2.0,64.0
4253,61.0,5.0,60.0,10.0,64.0
4254,73.0,2.0,60.0,6.0,64.0
4255,73.0,0.0,60.0,4.0,64.0
4256,73.0,2.0,60.0,5.0,64.0
4257,80.0,2.0,120.0,0.0,64.0
4258,49.0,6.0,60.0,3.0,64.0
4259,95.0,22.0,120.0,1.0,64.0
4260,70.0,24.0,60.0,8.0,64.0
4261,71.0,5.0,60.0,8.0,64.0
4262,77.0,9.0,60.0,6.0,64.0
4263,73.0,7.0,30.0,7.0,64.0
4264,49.0,2.0,60.0,10.0,64.0
4265,73.0,2.0,60.0,5.0,64.0
4266,77.0,29.0,60.0,4.0,64.0
4267,68.0,84.0,60.0,8.0,64.0
4268,78.0,18.0,60.0,6.0,64.0
4269,70.0,16.0,240.0,8.0,64.0
4270,78.0,2.0,150.0,0.0,64.0
4271,85.0,12.0,150.0,2.0,64.0
4272,73.0,9.0,120.0,5.0,64.0
4273,78.0,19.0,60.0,4.0,64.0
4274,54.0,48.0,240.0,10.0,64.0
4275,73.0,10.0,210.0,7.0,64.0
4276,94.0,19.0,150.0,1.0,64.0
4277,54.0,32.0,60.0,3.0,64.0
4278,73.0,10.0,60.0,6.0,64.0
4279,70.0,42.0,60.0,6.0,64.0
4280,73.0,13.0,30.0,6.0,64.0
4281,66.0,34.0,60.0,6.0,64.0
4282,70.0,71.0,60.0,6.0,64.0
4283,68.0,1.0,60.0,6.0,64.0
4284,53.0,9.0,60.0,10.0,64.0
4285,68.0,2.0,60.0,8.0,64.0
4286,73.0,20.0,60.0,7.0,64.0
4287,71.0,95.0,30.0,6.0,64.0
4288,70.0,5.0,60.0,6.0,64.0
4289,54.0,0.0,60.0,10.0,64.0
4290,73.0,21.0,90.0,7.0,64.0
4291,66.0,18.0,60.0,8.0,64.0
4292,73.0,64.0,60.0,6.0,64.0
4293,75.0,19.0,60.0,7.0,64.0
4294,78.0,5.0,60.0,6.0,64.0
4295,51.0,7.0,60.0,10.0,64.0
4296,70.0,5.0,60.0,8.0,64.0
4297,70.0,83.0,30.0,6.0,64.0
4298,68.0,1.0,60.0,6.0,64.0
4299,75.0,21.0,60.0,7.0,64.0
4300,47.0,13.0,60.0,10.0,64.0
4301,71.0,2.0,60.0,8.0,64.0
4302,78.0,76.0,30.0,6.0,64.0
4303,68.0,11.0,60.0,6.0,64.0
4304,49.0,2.0,30.0,10.0,64.0
4305,73.0,2.0,60.0,7.0,64.0
4306,71.0,37.0,60.0,8.0,64.0
4307,77.0,68.0,60.0,6.0,64.0
4308,78.0,69.0,60.0,6.0,64.0
4309,70.0,35.0,240.0,8.0,64.0
4310,73.0,17.0,240.0,7.0,64.0
4311,42.0,2.0,240.0,10.0,64.0
4312,73.0,50.0,60.0,6.0,64.0
4313,78.0,40.0,60.0,6.0,64.0
4314,80.0,37.0,30.0,6.0,64.0
4315,82.0,35.0,60.0,6.0,64.0
4316,85.0,77.0,30.0,6.0,64.0
4317,84.0,23.0,60.0,6.0,64.0
4318,54.0,4.0,60.0,10.0,64.0
4319,75.0,2.0,60.0,7.0,64.0
4320,68.0,0.0,60.0,8.0,64.0
4321,87.0,95.0,30.0,6.0,64.0
4322,53.0,6.0,60.0,10.0,64.0
4323,85.0,2.0,60.0,6.0,64.0
4324,77.0,0.0,60.0,7.0,64.0
4325,68.0,51.0,60.0,8.0,64.0
4326,80.0,54.0,60.0,6.0,64.0
4327,77.0,1.0,60.0,6.0,64.0
4328,58.0,16.0,60.0,10.0,64.0
4329,73.0,23.0,60.0,7.0,64.0
4330,70.0,0.0,30.0,8.0,64.0
4331,85.0,76.0,30.0,6.0,64.0
4332,75.0,6.0,60.0,6.0,64.0
4333,82.0,26.0,60.0,7.0,64.0
4334,54.0,6.0,60.0,10.0,64.0
4335,70.0,1.0,60.0,8.0,64.0
4336,85.0,72.0,30.0,6.0,64.0
4337,75.0,4.0,60.0,6.0,64.0
4338,56.0,5.0,30.0,10.0,64.0
4339,80.0,30.0,60.0,7.0,64.0
4340,75.0,6.0,60.0,8.0,64.0
4341,84.0,81.0,30.0,6.0,64.0
4342,85.0,36.0,60.0,6.0,64.0
4343,49.0,7.0,90.0,10.0,64.0
4344,77.0,46.0,240.0,8.0,64.0
4345,80.0,4.0,240.0,7.0,64.0
4346,80.0,85.0,60.0,6.0,64.0
4347,77.0,11.0,60.0,6.0,64.0
4348,61.0,36.0,60.0,10.0,64.0
4349,78.0,29.0,60.0,6.0,64.0
4350,61.0,41.0,60.0,10.0,64.0
4351,80.0,8.0,60.0,6.0,64.0
4352,82.0,53.0,60.0,6.0,64.0
4353,61.0,7.0,60.0,10.0,64.0
4354,80.0,30.0,60.0,6.0,64.0
4355,80.0,1.0,60.0,7.0,64.0
4356,77.0,13.0,60.0,8.0,64.0
4357,82.0,75.0,30.0,6.0,64.0
4358,83.0,38.0,60.0,6.0,64.0
4359,80.0,3.0,60.0,7.0,64.0
4360,77.0,4.0,60.0,8.0,64.0
4361,80.0,70.0,60.0,6.0,64.0
4362,73.0,39.0,60.0,6.0,64.0
4363,80.0,11.0,60.0,7.0,64.0
4364,59.0,6.0,90.0,10.0,64.0
4365,77.0,5.0,30.0,8.0,64.0
4366,75.0,68.0,60.0,6.0,64.0
4367,77.0,30.0,60.0,6.0,64.0
4368,59.0,16.0,90.0,10.0,64.0
4369,78.0,66.0,60.0,6.0,64.0
4370,77.0,32.0,60.0,6.0,64.0
4371,80.0,7.0,60.0,7.0,64.0
4372,59.0,2.0,60.0,10.0,64.0
4373,75.0,5.0,30.0,8.0,64.0
4374,78.0,73.0,60.0,6.0,64.0
4375,77.0,20.0,60.0,7.0,64.0
4376,80.0,50.0,60.0,6.0,64.0
4377,74.0,2.0,30.0,8.0,64.0
4378,78.0,43.0,60.0,6.0,64.0
4379,77.0,16.0,60.0,7.0,64.0
4380,77.0,33.0,60.0,6.0,64.0
4381,74.0,12.0,30.0,8.0,64.0
4382,58.0,1.0,90.0,10.0,64.0
4383,78.0,89.0,60.0,6.0,64.0
4384,80.0,26.0,60.0,6.0,64.0
4385,58.0,27.0,90.0,10.0,64.0
4386,78.0,45.0,60.0,6.0,64.0
4387,77.0,4.0,60.0,6.0,64.0
4388,77.0,2.0,60.0,7.0,64.0
4389,74.0,2.0,60.0,8.0,64.0
4390,58.0,48.0,60.0,10.0,64.0
4391,75.0,57.0,60.0,6.0,64.0
4392,77.0,73.0,60.0,7.0,64.0
4393,74.0,6.0,60.0,6.0,64.0
4394,70.0,6.0,60.0,8.0,64.0
4395,80.0,41.0,60.0,6.0,64.0
4396,74.0,2.0,60.0,7.0,64.0
4397,82.0,29.0,90.0,6.0,64.0
4398,70.0,20.0,60.0,8.0,64.0
4399,46.0,1.0,90.0,10.0,64.0
4400,83.0,90.0,60.0,6.0,64.0
4401,82.0,3.0,90.0,6.0,64.0
4402,46.0,36.0,60.0,10.0,64.0
4403,80.0,55.0,60.0,6.0,64.0
4404,78.0,14.0,60.0,6.0,64.0
4405,74.0,5.0,60.0,7.0,64.0
4406,70.0,8.0,60.0,8.0,64.0
4407,46.0,30.0,60.0,10.0,64.0
4408,77.0,83.0,60.0,6.0,64.0
4409,78.0,47.0,60.0,6.0,64.0
4410,70.0,0.0,60.0,8.0,64.0
4411,75.0,1.0,60.0,7.0,64.0
4412,82.0,59.0,60.0,6.0,64.0
4413,75.0,38.0,90.0,6.0,64.0
4414,70.0,14.0,60.0,7.0,64.0
4415,66.0,9.0,60.0,8.0,64.0
4416,51.0,10.0,90.0,10.0,64.0
4417,77.0,58.0,60.0,6.0,64.0
4418,78.0,33.0,60.0,6.0,64.0
4419,51.0,73.0,90.0,10.0,64.0
4420,80.0,5.0,30.0,6.0,64.0
4421,78.0,2.0,60.0,6.0,64.0
4422,70.0,10.0,60.0,8.0,64.0
4423,75.0,33.0,60.0,7.0,64.0
4424,51.0,0.0,60.0,10.0,64.0
4425,80.0,79.0,60.0,6.0,64.0
4426,82.0,59.0,60.0,6.0,64.0
4427,67.0,1.0,60.0,8.0,64.0
4428,76.0,8.0,60.0,7.0,64.0
4429,85.0,44.0,60.0,6.0,64.0
4430,73.0,6.0,60.0,8.0,64.0
4431,79.0,44.0,60.0,6.0,64.0
4432,58.0,11.0,210.0,10.0,64.0
4433,76.0,6.0,60.0,7.0,64.0
4434,80.0,82.0,60.0,6.0,64.0
4435,82.0,39.0,60.0,6.0,64.0
4436,83.0,43.0,60.0,6.0,64.0
4437,67.0,16.0,30.0,8.0,64.0
4438,82.0,3.0,60.0,6.0,64.0
4439,76.0,40.0,60.0,7.0,64.0
4440,58.0,2.0,60.0,10.0,64.0
4441,83.0,82.0,60.0,6.0,64.0
4442,85.0,38.0,60.0,6.0,64.0
4443,67.0,5.0,60.0,8.0,64.0
4444,70.0,3.0,60.0,7.0,64.0
4445,76.0,65.0,60.0,6.0,64.0
4446,75.0,34.0,60.0,6.0,64.0
4447,70.0,2.0,60.0,8.0,64.0
4448,55.0,85.0,90.0,10.0,64.0
4449,73.0,5.0,60.0,7.0,64.0
4450,76.0,8.0,30.0,6.0,64.0
4451,55.0,43.0,60.0,10.0,64.0
4452,85.0,1.0,60.0,6.0,64.0
4453,76.0,51.0,60.0,6.0,64.0
4454,55.0,0.0,60.0,10.0,64.0
4455,75.0,0.0,60.0,6.0,64.0
4456,70.0,16.0,30.0,8.0,64.0
4457,73.0,36.0,60.0,7.0,64.0
4458,73.0,77.0,60.0,6.0,64.0
4459,75.0,4.0,60.0,6.0,64.0
4460,70.0,11.0,60.0,8.0,64.0
4461,67.0,64.0,60.0,7.0,64.0
4462,77.0,36.0,90.0,6.0,64.0
4463,79.0,5.0,60.0,6.0,64.0
4464,70.0,7.0,60.0,8.0,64.0
4465,75.0,43.0,60.0,7.0,64.0
4466,51.0,13.0,90.0,10.0,64.0
4467,80.0,78.0,60.0,6.0,64.0
4468,82.0,4.0,60.0,6.0,64.0
4469,51.0,33.0,60.0,10.0,64.0
4470,83.0,52.0,60.0,6.0,64.0
4471,79.0,16.0,30.0,7.0,64.0
4472,85.0,2.0,60.0,6.0,64.0
4473,75.0,2.0,30.0,8.0,64.0
4474,51.0,40.0,60.0,10.0,64.0
4475,82.0,85.0,30.0,6.0,64.0
4476,83.0,14.0,60.0,6.0,64.0
4477,80.0,6.0,240.0,7.0,64.0
4478,75.0,37.0,240.0,8.0,64.0
4479,56.0,26.0,60.0,10.0,64.0
4480,80.0,71.0,60.0,6.0,64.0
4481,75.0,7.0,60.0,6.0,64.0
4482,68.0,40.0,60.0,10.0,64.0
4483,78.0,25.0,60.0,6.0,64.0
4484,77.0,10.0,60.0,6.0,64.0
4485,61.0,31.0,60.0,10.0,64.0
4486,80.0,70.0,60.0,6.0,64.0
4487,73.0,15.0,60.0,6.0,64.0
4488,65.0,24.0,60.0,10.0,64.0
4489,83.0,104.0,30.0,6.0,64.0
4490,82.0,1.0,60.0,6.0,64.0
4491,54.0,32.0,60.0,10.0,64.0
4492,78.0,72.0,60.0,6.0,64.0
4493,73.0,7.0,60.0,6.0,64.0
4494,66.0,34.0,60.0,10.0,64.0
4495,76.0,72.0,60.0,6.0,64.0
4496,59.0,6.0,60.0,10.0,64.0
4497,75.0,69.0,60.0,6.0,64.0
4498,78.0,50.0,60.0,6.0,64.0
4499,63.0,33.0,60.0,10.0,64.0
4500,71.0,5.0,60.0,6.0,64.0
4501,82.0,101.0,30.0,6.0,64.0
4502,53.0,13.0,60.0,10.0,64.0
4503,80.0,49.0,60.0,6.0,64.0
4504,77.0,51.0,60.0,6.0,64.0
4505,65.0,48.0,60.0,10.0,64.0
4506,72.0,3.0,60.0,6.0,64.0
4507,75.0,65.0,60.0,6.0,64.0
4508,74.0,77.0,60.0,6.0,64.0
4509,58.0,7.0,60.0,10.0,64.0
4510,77.0,32.0,90.0,6.0,64.0
4511,62.0,43.0,60.0,10.0,64.0
4512,70.0,1.0,60.0,6.0,64.0
4513,80.0,107.0,30.0,6.0,64.0
4514,51.0,46.0,90.0,10.0,64.0
4515,78.0,1.0,90.0,6.0,64.0
4516,75.0,42.0,60.0,6.0,64.0
4517,77.0,17.0,60.0,6.0,64.0
4518,63.0,37.0,60.0,10.0,64.0
4519,78.0,70.0,60.0,6.0,64.0
4520,80.0,42.0,60.0,6.0,64.0
4521,59.0,21.0,60.0,10.0,64.0
4522,82.0,57.0,60.0,6.0,64.0
4523,56.0,3.0,60.0,10.0,64.0
4524,83.0,46.0,60.0,6.0,64.0
4525,80.0,88.0,60.0,6.0,64.0
4526,74.0,54.0,60.0,6.0,64.0
4527,58.0,40.0,240.0,10.0,64.0
4528,80.0,6.0,1200.0,4.0,64.0
4529,80.0,62.0,60.0,6.0,64.0
4530,82.0,38.0,60.0,6.0,64.0
4531,82.0,4.0,90.0,0.0,64.0
4532,70.0,3.0,60.0,7.0,64.0
4533,72.0,23.0,60.0,7.0,64.0
4534,80.0,1.0,60.0,6.0,64.0
4535,74.0,15.0,60.0,7.0,64.0
4536,82.0,38.0,60.0,6.0,64.0
4537,82.0,19.0,90.0,0.0,64.0
4538,77.0,51.0,240.0,8.0,64.0
4539,80.0,62.0,60.0,6.0,64.0
4540,82.0,36.0,60.0,6.0,64.0
4541,74.0,4.0,60.0,7.0,64.0
4542,82.0,4.0,90.0,0.0,64.0
4543,75.0,1.0,60.0,7.0,64.0
4544,80.0,21.0,60.0,6.0,64.0
4545,77.0,15.0,60.0,7.0,64.0
4546,74.0,29.0,60.0,6.0,64.0
4547,82.0,15.0,90.0,0.0,64.0
4548,46.0,35.0,240.0,10.0,64.0
4549,80.0,55.0,60.0,6.0,64.0
4550,82.0,26.0,90.0,6.0,64.0
4551,74.0,18.0,60.0,7.0,64.0
4552,82.0,2.0,90.0,1.0,64.0
4553,82.0,12.0,90.0,0.0,64.0
4554,75.0,8.0,60.0,7.0,64.0
4555,80.0,25.0,60.0,6.0,64.0
4556,82.0,37.0,60.0,6.0,64.0
4557,77.0,5.0,60.0,7.0,64.0
4558,82.0,3.0,90.0,1.0,64.0
4559,74.0,41.0,240.0,8.0,64.0
4560,82.0,23.0,90.0,0.0,64.0
4561,80.0,51.0,60.0,6.0,64.0
4562,82.0,6.0,60.0,6.0,64.0
4563,77.0,30.0,60.0,7.0,64.0
4564,82.0,6.0,90.0,0.0,64.0
4565,82.0,2.0,90.0,1.0,64.0
4566,80.0,4.0,60.0,6.0,64.0
4567,78.0,25.0,60.0,7.0,64.0
4568,74.0,39.0,60.0,6.0,64.0
4569,80.0,6.0,60.0,7.0,64.0
4570,82.0,38.0,90.0,1.0,64.0
4571,82.0,0.0,90.0,0.0,64.0
4572,80.0,40.0,90.0,6.0,64.0
4573,82.0,25.0,60.0,6.0,64.0
4574,58.0,6.0,60.0,10.0,64.0
4575,82.0,0.0,90.0,1.0,64.0
4576,80.0,9.0,60.0,7.0,64.0
4577,82.0,5.0,90.0,2.0,64.0
4578,82.0,6.0,90.0,0.0,64.0
4579,83.0,41.0,90.0,6.0,64.0
4580,78.0,21.0,60.0,7.0,64.0
4581,82.0,2.0,60.0,6.0,64.0
4582,80.0,23.0,60.0,7.0,64.0
4583,70.0,71.0,240.0,8.0,64.0
4584,82.0,4.0,90.0,2.0,64.0
4585,62.0,11.0,60.0,10.0,64.0
4586,82.0,8.0,90.0,1.0,64.0
4587,82.0,21.0,90.0,0.0,64.0
4588,77.0,15.0,210.0,4.0,64.0
4589,80.0,48.0,60.0,6.0,64.0
4590,79.0,1.0,60.0,6.0,64.0
4591,82.0,2.0,90.0,1.0,64.0
4592,58.0,5.0,60.0,10.0,64.0
4593,82.0,24.0,60.0,7.0,64.0
4594,82.0,14.0,90.0,0.0,64.0
4595,82.0,1.0,90.0,2.0,64.0
4596,80.0,12.0,30.0,7.0,64.0
4597,77.0,2.0,30.0,6.0,64.0
4598,79.0,6.0,180.0,7.0,64.0
4599,73.0,54.0,90.0,6.0,64.0
4600,63.0,27.0,270.0,10.0,64.0
4601,82.0,1.0,150.0,1.0,64.0
4602,79.0,7.0,1410.0,4.0,64.0
4603,82.0,25.0,150.0,2.0,64.0
4604,73.0,54.0,1200.0,5.0,64.0
4605,82.0,3.0,120.0,0.0,64.0
4606,79.0,15.0,60.0,6.0,64.0
4607,82.0,29.0,60.0,6.0,64.0
4608,63.0,17.0,60.0,8.0,64.0
4609,65.0,16.0,60.0,8.0,64.0
4610,79.0,25.0,60.0,6.0,64.0
4611,67.0,19.0,60.0,8.0,64.0
4612,82.0,57.0,60.0,6.0,64.0
4613,75.0,64.0,240.0,7.0,64.0
4614,79.0,50.0,90.0,6.0,64.0
4615,82.0,24.0,60.0,6.0,64.0
4616,67.0,13.0,60.0,8.0,64.0
4617,68.0,8.0,30.0,8.0,64.0
4618,79.0,14.0,60.0,6.0,64.0
4619,70.0,9.0,60.0,8.0,64.0
4620,73.0,43.0,60.0,6.0,64.0
4621,51.0,63.0,240.0,10.0,64.0
4622,79.0,66.0,60.0,6.0,64.0
4623,82.0,43.0,90.0,6.0,64.0
4624,67.0,8.0,60.0,8.0,64.0
4625,79.0,7.0,60.0,6.0,64.0
4626,68.0,6.0,60.0,8.0,64.0
4627,82.0,51.0,60.0,6.0,64.0
4628,79.0,34.0,240.0,7.0,64.0
4629,70.0,2.0,60.0,8.0,64.0
4630,79.0,64.0,60.0,6.0,64.0
4631,82.0,27.0,60.0,6.0,64.0
4632,70.0,5.0,60.0,8.0,64.0
4633,79.0,12.0,30.0,6.0,64.0
4634,72.0,22.0,60.0,8.0,64.0
4635,73.0,47.0,60.0,6.0,64.0
4636,73.0,23.0,30.0,8.0,64.0
4637,79.0,55.0,60.0,6.0,64.0
4638,63.0,5.0,60.0,10.0,64.0
4639,82.0,7.0,60.0,6.0,64.0
4640,73.0,45.0,60.0,8.0,64.0
4641,72.0,7.0,60.0,8.0,64.0
4642,80.0,3.0,60.0,6.0,64.0
4643,79.0,39.0,60.0,6.0,64.0
4644,73.0,3.0,60.0,8.0,64.0
4645,51.0,4.0,60.0,10.0,64.0
4646,82.0,9.0,180.0,7.0,64.0
4647,70.0,64.0,210.0,5.0,64.0
4648,77.0,63.0,60.0,6.0,64.0
4649,75.0,8.0,60.0,6.0,64.0
4650,55.0,3.0,60.0,10.0,64.0
4651,75.0,17.0,60.0,8.0,64.0
4652,73.0,17.0,30.0,6.0,64.0
4653,73.0,7.0,60.0,8.0,64.0
4654,72.0,77.0,60.0,6.0,64.0
4655,72.0,21.0,180.0,8.0,64.0
4656,78.0,18.0,1440.0,4.0,64.0
4657,56.0,5.0,240.0,10.0,64.0
4658,72.0,75.0,1440.0,5.0,64.0
4659,78.0,41.0,90.0,6.0,64.0
4660,68.0,11.0,60.0,7.0,64.0
4661,80.0,23.0,90.0,6.0,64.0
4662,70.0,18.0,60.0,7.0,64.0
4663,78.0,34.0,60.0,6.0,64.0
4664,72.0,35.0,60.0,7.0,64.0
4665,75.0,54.0,270.0,8.0,64.0
4666,80.0,43.0,60.0,6.0,64.0
4667,78.0,45.0,60.0,6.0,64.0
4668,72.0,15.0,60.0,7.0,64.0
4669,80.0,27.0,60.0,6.0,64.0
4670,73.0,9.0,60.0,7.0,64.0
4671,78.0,28.0,60.0,6.0,64.0
4672,75.0,1.0,60.0,7.0,64.0
4673,72.0,70.0,60.0,6.0,64.0
4674,44.0,12.0,240.0,10.0,64.0
4675,78.0,36.0,60.0,6.0,64.0
4676,72.0,29.0,60.0,7.0,64.0
4677,80.0,34.0,60.0,6.0,64.0
4678,73.0,18.0,60.0,7.0,64.0
4679,78.0,29.0,90.0,6.0,64.0
4680,75.0,35.0,60.0,7.0,64.0
4681,72.0,44.0,270.0,8.0,64.0
4682,80.0,52.0,60.0,6.0,64.0
4683,78.0,53.0,60.0,6.0,64.0
4684,75.0,0.0,60.0,7.0,64.0
4685,80.0,26.0,60.0,6.0,64.0
4686,77.0,35.0,60.0,7.0,64.0
4687,78.0,7.0,30.0,6.0,64.0
4688,78.0,10.0,60.0,7.0,64.0
4689,72.0,61.0,60.0,6.0,64.0
4690,78.0,43.0,60.0,6.0,64.0
4691,56.0,6.0,60.0,10.0,64.0
4692,80.0,20.0,90.0,6.0,64.0
4693,78.0,19.0,60.0,7.0,64.0
4694,77.0,25.0,30.0,7.0,64.0
4695,82.0,10.0,60.0,6.0,64.0
4696,68.0,2.0,240.0,8.0,64.0
4697,78.0,50.0,60.0,7.0,64.0
4698,60.0,2.0,60.0,10.0,64.0
4699,80.0,6.0,60.0,6.0,64.0
4700,81.0,39.0,15.0,6.0,64.0
4701,78.0,67.0,60.0,6.0,64.0
4702,77.0,3.0,60.0,6.0,64.0
4703,56.0,12.0,60.0,10.0,64.0
4704,80.0,22.0,60.0,7.0,64.0
4705,75.0,3.0,60.0,6.0,64.0
4706,78.0,6.0,30.0,7.0,64.0
4707,77.0,18.0,210.0,7.0,64.0
4708,77.0,9.0,1410.0,4.0,64.0
4709,71.0,65.0,60.0,6.0,64.0
4710,61.0,34.0,240.0,10.0,64.0
4711,71.0,0.0,1380.0,5.0,64.0
4712,77.0,42.0,90.0,6.0,64.0
4713,80.0,6.0,60.0,6.0,64.0
4714,85.0,12.0,90.0,0.0,64.0
4715,61.0,9.0,60.0,8.0,64.0
4716,77.0,15.0,60.0,6.0,64.0
4717,63.0,13.0,60.0,8.0,64.0
4718,80.0,27.0,60.0,6.0,64.0
4719,65.0,19.0,60.0,8.0,64.0
4720,85.0,30.0,90.0,0.0,64.0
4721,73.0,54.0,240.0,7.0,64.0
4722,77.0,57.0,60.0,6.0,64.0
4723,80.0,32.0,60.0,6.0,64.0
4724,65.0,4.0,60.0,8.0,64.0
4725,85.0,3.0,90.0,0.0,64.0
4726,77.0,0.0,60.0,6.0,64.0
4727,66.0,38.0,60.0,8.0,64.0
4728,71.0,27.0,90.0,6.0,64.0
4729,68.0,1.0,60.0,8.0,64.0
4730,85.0,39.0,90.0,0.0,64.0
4731,49.0,11.0,210.0,10.0,64.0
4732,77.0,35.0,90.0,6.0,64.0
4733,80.0,20.0,60.0,6.0,64.0
4734,65.0,18.0,60.0,8.0,64.0
4735,85.0,5.0,90.0,1.0,64.0
4736,85.0,15.0,90.0,0.0,64.0
4737,66.0,2.0,60.0,8.0,64.0
4738,77.0,55.0,60.0,6.0,64.0
4739,77.0,55.0,270.0,7.0,64.0
4740,80.0,31.0,60.0,6.0,64.0
4741,68.0,7.0,60.0,8.0,64.0
4742,85.0,23.0,90.0,1.0,64.0
4743,85.0,2.0,90.0,0.0,64.0
4744,77.0,49.0,60.0,6.0,64.0
4745,80.0,21.0,60.0,6.0,64.0
4746,68.0,6.0,60.0,8.0,64.0
4747,85.0,15.0,60.0,0.0,64.0
4748,85.0,30.0,90.0,1.0,64.0
4749,70.0,3.0,60.0,8.0,64.0
4750,77.0,2.0,30.0,6.0,64.0
4751,71.0,2.0,60.0,8.0,64.0
4752,71.0,33.0,60.0,6.0,64.0
4753,85.0,31.0,90.0,0.0,64.0
4754,85.0,0.0,90.0,1.0,64.0
4755,77.0,25.0,90.0,6.0,64.0
4756,71.0,16.0,60.0,8.0,64.0
4757,80.0,23.0,60.0,6.0,64.0
4758,61.0,3.0,60.0,10.0,64.0
4759,49.0,9.0,30.0,3.0,64.0
4760,92.0,24.0,90.0,0.0,64.0
4761,85.0,4.0,90.0,2.0,64.0
4762,85.0,0.0,90.0,1.0,64.0
4763,70.0,4.0,60.0,8.0,64.0
4764,78.0,42.0,90.0,6.0,64.0
4765,77.0,27.0,90.0,6.0,64.0
4766,71.0,8.0,60.0,8.0,64.0
4767,49.0,6.0,60.0,10.0,64.0
4768,92.0,6.0,90.0,1.0,64.0
4769,80.0,5.0,150.0,7.0,64.0
4770,85.0,3.0,90.0,2.0,64.0
4771,97.0,1.0,90.0,0.0,64.0
4772,49.0,7.0,30.0,3.0,64.0
4773,75.0,50.0,60.0,6.0,64.0
4774,73.0,19.0,60.0,6.0,64.0
4775,73.0,6.0,60.0,8.0,64.0
4776,53.0,9.0,60.0,10.0,64.0
4777,85.0,1.0,90.0,1.0,64.0
4778,92.0,14.0,90.0,0.0,64.0
4779,85.0,61.0,90.0,2.0,64.0
4780,49.0,1.0,30.0,3.0,64.0
4781,71.0,3.0,30.0,8.0,64.0
4782,71.0,8.0,30.0,6.0,64.0
4783,70.0,1.0,60.0,6.0,64.0
4784,70.0,36.0,270.0,8.0,64.0
4785,70.0,2.0,180.0,5.0,64.0
4786,78.0,19.0,240.0,7.0,64.0
4787,54.0,54.0,60.0,10.0,64.0
4788,78.0,7.0,150.0,4.0,64.0
4789,94.0,5.0,120.0,0.0,64.0
4790,54.0,8.0,30.0,3.0,64.0
4791,78.0,1.0,150.0,2.0,64.0
4792,85.0,9.0,120.0,1.0,64.0
4793,66.0,25.0,60.0,6.0,64.0
4794,68.0,11.0,60.0,6.0,64.0
4795,53.0,27.0,60.0,10.0,64.0
4796,71.0,28.0,30.0,6.0,64.0
4797,70.0,7.0,60.0,6.0,64.0
4798,54.0,23.0,60.0,10.0,64.0
4799,73.0,90.0,30.0,6.0,64.0
4800,72.0,26.0,60.0,6.0,64.0
4801,56.0,2.0,60.0,10.0,64.0
4802,75.0,94.0,30.0,6.0,64.0
4803,58.0,62.0,60.0,10.0,64.0
4804,73.0,9.0,60.0,6.0,64.0
4805,70.0,44.0,60.0,6.0,64.0
4806,56.0,18.0,60.0,10.0,64.0
4807,72.0,29.0,60.0,6.0,64.0
4808,75.0,80.0,30.0,6.0,64.0
4809,58.0,12.0,60.0,10.0,64.0
4810,73.0,35.0,60.0,6.0,64.0
4811,77.0,82.0,60.0,6.0,64.0
4812,60.0,24.0,90.0,10.0,64.0
4813,75.0,4.0,60.0,6.0,64.0
4814,78.0,94.0,30.0,6.0,64.0
4815,61.0,11.0,60.0,10.0,64.0
4816,77.0,57.0,60.0,6.0,64.0
4817,73.0,52.0,60.0,6.0,64.0
4818,75.0,3.0,60.0,6.0,64.0
4819,60.0,31.0,60.0,10.0,64.0
4820,78.0,76.0,30.0,6.0,64.0
4821,77.0,27.0,60.0,6.0,64.0
4822,61.0,5.0,60.0,10.0,64.0
4823,80.0,87.0,30.0,6.0,64.0
4824,78.0,40.0,60.0,6.0,64.0
4825,58.0,3.0,60.0,10.0,64.0
4826,82.0,82.0,60.0,6.0,64.0
4827,80.0,23.0,150.0,6.0,64.0
4828,53.0,92.0,60.0,10.0,64.0
4829,54.0,35.0,60.0,10.0,64.0
4830,82.0,67.0,30.0,6.0,64.0
4831,56.0,15.0,60.0,10.0,64.0
4832,77.0,24.0,30.0,6.0,64.0
4833,75.0,38.0,30.0,6.0,64.0
4834,77.0,45.0,60.0,6.0,64.0
4835,75.0,32.0,60.0,6.0,64.0
4836,44.0,22.0,60.0,10.0,64.0
4837,73.0,113.0,30.0,6.0,64.0
4838,49.0,45.0,90.0,10.0,64.0
4839,73.0,9.0,60.0,6.0,64.0
4840,75.0,39.0,60.0,6.0,64.0
4841,73.0,11.0,90.0,8.0,64.0
4842,80.0,11.0,60.0,5.0,64.0
4843,80.0,8.0,60.0,7.0,64.0
4844,77.0,1.0,30.0,6.0,64.0
4845,80.0,5.0,90.0,0.0,64.0
4846,77.0,0.0,60.0,4.0,64.0
4847,49.0,30.0,60.0,10.0,64.0
4848,78.0,59.0,60.0,6.0,64.0
4849,51.0,1.0,60.0,10.0,64.0
4850,78.0,2.0,60.0,4.0,64.0
4851,73.0,13.0,90.0,8.0,64.0
4852,80.0,5.0,60.0,6.0,64.0
4853,80.0,0.0,60.0,4.0,64.0
4854,53.0,26.0,60.0,10.0,64.0
4855,85.0,5.0,120.0,0.0,64.0
4856,73.0,4.0,60.0,5.0,64.0
4857,73.0,4.0,60.0,7.0,64.0
4858,82.0,3.0,30.0,6.0,64.0
4859,82.0,55.0,60.0,4.0,64.0
4860,80.0,33.0,60.0,6.0,64.0
4861,73.0,2.0,90.0,8.0,64.0
4862,80.0,7.0,60.0,4.0,64.0
4863,53.0,1.0,60.0,10.0,64.0
4864,92.0,0.0,90.0,1.0,64.0
4865,80.0,58.0,120.0,0.0,64.0
4866,77.0,8.0,150.0,7.0,64.0
4867,77.0,0.0,180.0,5.0,64.0
4868,82.0,5.0,60.0,6.0,64.0
4869,54.0,5.0,30.0,10.0,64.0
4870,82.0,12.0,60.0,4.0,64.0
4871,73.0,2.0,90.0,8.0,64.0
4872,83.0,3.0,60.0,6.0,64.0
4873,56.0,3.0,60.0,10.0,64.0
4874,95.0,8.0,90.0,1.0,64.0
4875,83.0,27.0,60.0,4.0,64.0
4876,80.0,0.0,30.0,6.0,64.0
4877,80.0,63.0,60.0,4.0,64.0
4878,73.0,2.0,60.0,6.0,64.0
4879,73.0,1.0,90.0,8.0,64.0
4880,80.0,12.0,60.0,7.0,64.0
4881,73.0,30.0,60.0,4.0,64.0
4882,92.0,44.0,120.0,1.0,64.0
4883,80.0,2.0,60.0,5.0,64.0
4884,80.0,6.0,90.0,0.0,64.0
4885,53.0,1.0,60.0,10.0,64.0
4886,75.0,8.0,60.0,6.0,64.0
4887,75.0,5.0,60.0,4.0,64.0
4888,54.0,5.0,60.0,10.0,64.0
4889,77.0,19.0,60.0,6.0,64.0
4890,73.0,8.0,90.0,8.0,64.0
4891,71.0,8.0,60.0,7.0,64.0
4892,77.0,2.0,60.0,4.0,64.0
4893,83.0,1.0,90.0,0.0,64.0
4894,56.0,14.0,60.0,10.0,64.0
4895,71.0,5.0,60.0,5.0,64.0
4896,78.0,3.0,60.0,6.0,64.0
4897,78.0,44.0,60.0,4.0,64.0
4898,77.0,18.0,30.0,6.0,64.0
4899,77.0,10.0,60.0,4.0,64.0
4900,73.0,37.0,90.0,8.0,64.0
4901,92.0,9.0,90.0,1.0,64.0
4902,80.0,37.0,120.0,0.0,64.0
4903,77.0,3.0,180.0,7.0,64.0
4904,56.0,23.0,60.0,10.0,64.0
4905,77.0,17.0,180.0,5.0,64.0
4906,78.0,5.0,60.0,6.0,64.0
4907,78.0,1.0,60.0,4.0,64.0
4908,58.0,0.0,30.0,10.0,64.0
4909,80.0,7.0,60.0,6.0,64.0
4910,59.0,3.0,90.0,10.0,64.0
4911,80.0,9.0,60.0,4.0,64.0
4912,73.0,10.0,90.0,8.0,64.0
4913,97.0,5.0,90.0,1.0,64.0
4914,78.0,4.0,60.0,6.0,64.0
4915,78.0,51.0,60.0,4.0,64.0
4916,77.0,5.0,60.0,6.0,64.0
4917,73.0,2.0,90.0,8.0,64.0
4918,80.0,1.0,30.0,7.0,64.0
4919,80.0,6.0,30.0,0.0,64.0
4920,85.0,0.0,90.0,1.0,64.0
4921,77.0,30.0,60.0,4.0,64.0
4922,59.0,7.0,60.0,10.0,64.0
4923,85.0,6.0,90.0,2.0,64.0
4924,49.0,1.0,30.0,3.0,64.0
4925,80.0,1.0,30.0,5.0,64.0
4926,78.0,5.0,60.0,6.0,64.0
4927,78.0,2.0,30.0,0.0,64.0
4928,58.0,0.0,60.0,10.0,64.0
4929,78.0,63.0,60.0,4.0,64.0
4930,80.0,1.0,60.0,0.0,64.0
4931,80.0,3.0,60.0,6.0,64.0
4932,59.0,19.0,60.0,10.0,64.0
4933,73.0,23.0,90.0,8.0,64.0
4934,73.0,12.0,60.0,7.0,64.0
4935,85.0,3.0,90.0,1.0,64.0
4936,85.0,1.0,90.0,2.0,64.0
4937,80.0,3.0,60.0,4.0,64.0
4938,73.0,0.0,60.0,5.0,64.0
4939,49.0,2.0,30.0,3.0,64.0
4940,78.0,34.0,60.0,6.0,64.0
4941,78.0,3.0,60.0,4.0,64.0
4942,77.0,10.0,60.0,6.0,64.0
4943,77.0,7.0,60.0,7.0,64.0
4944,85.0,0.0,90.0,2.0,64.0
4945,82.0,10.0,30.0,0.0,64.0
4946,77.0,0.0,60.0,4.0,64.0
4947,73.0,4.0,90.0,8.0,64.0
4948,85.0,11.0,60.0,1.0,64.0
4949,61.0,12.0,60.0,10.0,64.0
4950,77.0,1.0,30.0,5.0,64.0
4951,49.0,3.0,30.0,3.0,64.0
4952,80.0,5.0,30.0,0.0,64.0
4953,75.0,68.0,60.0,6.0,64.0
4954,75.0,4.0,60.0,4.0,64.0
4955,59.0,0.0,30.0,10.0,64.0
4956,78.0,8.0,60.0,0.0,64.0
4957,58.0,26.0,90.0,10.0,64.0
4958,73.0,2.0,60.0,6.0,64.0
4959,54.0,6.0,60.0,3.0,64.0
4960,73.0,5.0,60.0,4.0,64.0
4961,73.0,12.0,90.0,8.0,64.0
4962,78.0,4.0,120.0,2.0,64.0
4963,78.0,2.0,60.0,7.0,64.0
4964,85.0,26.0,120.0,1.0,64.0
4965,78.0,2.0,60.0,5.0,64.0
4966,77.0,11.0,60.0,7.0,64.0
4967,77.0,13.0,60.0,5.0,64.0
4968,78.0,2.0,60.0,7.0,64.0
4969,75.0,3.0,120.0,8.0,64.0
4970,82.0,3.0,90.0,0.0,64.0
4971,82.0,1.0,30.0,6.0,64.0
4972,78.0,33.0,60.0,5.0,64.0
4973,82.0,17.0,30.0,4.0,64.0
4974,51.0,3.0,60.0,10.0,64.0
4975,80.0,60.0,60.0,7.0,64.0
4976,53.0,1.0,60.0,10.0,64.0
4977,80.0,1.0,30.0,5.0,64.0
4978,82.0,1.0,60.0,7.0,64.0
4979,55.0,2.0,60.0,10.0,64.0
4980,87.0,2.0,90.0,0.0,64.0
4981,75.0,5.0,90.0,8.0,64.0
4982,75.0,11.0,60.0,6.0,64.0
4983,82.0,31.0,60.0,5.0,64.0
4984,75.0,7.0,30.0,4.0,64.0
4985,83.0,3.0,60.0,7.0,64.0
4986,83.0,59.0,30.0,5.0,64.0
4987,82.0,10.0,60.0,7.0,64.0
4988,55.0,4.0,60.0,10.0,64.0
4989,82.0,55.0,120.0,0.0,64.0
4990,79.0,7.0,180.0,6.0,64.0
4991,82.0,31.0,60.0,5.0,64.0
4992,94.0,3.0,90.0,1.0,64.0
4993,75.0,2.0,90.0,8.0,64.0
4994,79.0,4.0,180.0,4.0,64.0
4995,83.0,12.0,60.0,7.0,64.0
4996,56.0,0.0,60.0,10.0,64.0
4997,83.0,7.0,60.0,5.0,64.0
4998,58.0,33.0,60.0,10.0,64.0
4999,85.0,1.0,60.0,7.0,64.0
5000,97.0,9.0,90.0,1.0,64.0
5001,75.0,1.0,90.0,8.0,64.0
5002,85.0,1.0,60.0,5.0,64.0
5003,82.0,3.0,60.0,7.0,64.0
5004,82.0,56.0,60.0,5.0,64.0
5005,75.0,0.0,60.0,7.0,64.0
5006,94.0,6.0,120.0,1.0,64.0
5007,75.0,8.0,90.0,8.0,64.0
5008,82.0,11.0,60.0,4.0,64.0
5009,82.0,3.0,30.0,6.0,64.0
5010,75.0,33.0,60.0,5.0,64.0
5011,55.0,6.0,60.0,10.0,64.0
5012,82.0,2.0,90.0,0.0,64.0
5013,77.0,5.0,60.0,7.0,64.0
5014,56.0,0.0,60.0,10.0,64.0
5015,77.0,45.0,60.0,5.0,64.0
5016,58.0,9.0,90.0,10.0,64.0
5017,79.0,9.0,60.0,7.0,64.0
5018,73.0,11.0,30.0,6.0,64.0
5019,85.0,8.0,90.0,0.0,64.0
5020,75.0,8.0,90.0,8.0,64.0
5021,73.0,3.0,60.0,4.0,64.0
5022,79.0,12.0,60.0,5.0,64.0
5023,80.0,8.0,60.0,7.0,64.0
5024,80.0,57.0,60.0,5.0,64.0
5025,79.0,12.0,60.0,7.0,64.0
5026,75.0,2.0,90.0,8.0,64.0
5027,58.0,13.0,60.0,10.0,64.0
5028,94.0,38.0,90.0,1.0,64.0
5029,82.0,24.0,150.0,0.0,64.0
5030,79.0,12.0,150.0,6.0,64.0
5031,79.0,17.0,60.0,5.0,64.0
5032,79.0,1.0,180.0,4.0,64.0
5033,80.0,2.0,60.0,7.0,64.0
5034,60.0,6.0,60.0,10.0,64.0
5035,80.0,0.0,30.0,5.0,64.0
5036,61.0,27.0,90.0,10.0,64.0
5037,75.0,25.0,120.0,8.0,64.0
5038,99.0,7.0,90.0,1.0,64.0
5039,82.0,6.0,60.0,7.0,64.0
5040,82.0,6.0,60.0,5.0,64.0
5041,80.0,3.0,60.0,7.0,64.0
5042,80.0,29.0,60.0,5.0,64.0
5043,82.0,9.0,60.0,6.0,64.0
5044,61.0,1.0,60.0,10.0,64.0
5045,79.0,37.0,60.0,7.0,64.0
5046,94.0,38.0,120.0,1.0,64.0
5047,79.0,8.0,60.0,5.0,64.0
5048,82.0,0.0,60.0,4.0,64.0
5049,75.0,3.0,90.0,8.0,64.0
5050,82.0,5.0,30.0,0.0,64.0
5051,60.0,3.0,60.0,10.0,64.0
5052,80.0,9.0,60.0,7.0,64.0
5053,80.0,10.0,60.0,0.0,64.0
5054,80.0,3.0,60.0,5.0,64.0
5055,61.0,15.0,60.0,10.0,64.0
5056,75.0,9.0,60.0,6.0,64.0
5057,82.0,10.0,90.0,0.0,64.0
5058,82.0,1.0,60.0,5.0,64.0
5059,75.0,10.0,60.0,4.0,64.0
5060,82.0,2.0,60.0,7.0,64.0
5061,75.0,32.0,90.0,8.0,64.0
5062,80.0,40.0,60.0,7.0,64.0
5063,80.0,1.0,60.0,5.0,64.0
5064,79.0,3.0,60.0,6.0,64.0
5065,79.0,5.0,60.0,7.0,64.0
5066,75.0,34.0,60.0,8.0,64.0
5067,63.0,4.0,60.0,10.0,64.0
5068,84.0,12.0,60.0,0.0,64.0
5069,79.0,1.0,60.0,5.0,64.0
5070,79.0,1.0,60.0,4.0,64.0
5071,77.0,5.0,60.0,7.0,64.0
5072,61.0,4.0,60.0,10.0,64.0
5073,82.0,2.0,60.0,0.0,64.0
5074,77.0,59.0,60.0,5.0,64.0
5075,80.0,12.0,90.0,6.0,64.0
5076,75.0,3.0,120.0,7.0,64.0
5077,60.0,8.0,60.0,10.0,64.0
5078,80.0,15.0,120.0,0.0,64.0
5079,75.0,17.0,60.0,8.0,64.0
5080,75.0,44.0,120.0,5.0,64.0
5081,80.0,11.0,90.0,4.0,64.0
5082,80.0,2.0,30.0,8.0,64.0
5083,68.0,11.0,60.0,6.0,64.0
5084,72.0,8.0,60.0,8.0,64.0
5085,80.0,7.0,120.0,7.0,64.0
5086,63.0,4.0,30.0,10.0,64.0
5087,80.0,4.0,90.0,0.0,64.0
5088,80.0,1.0,90.0,5.0,64.0
5089,68.0,24.0,60.0,4.0,64.0
5090,70.0,4.0,60.0,6.0,64.0
5091,73.0,4.0,60.0,8.0,64.0
5092,70.0,55.0,60.0,4.0,64.0
5093,72.0,7.0,60.0,6.0,64.0
5094,75.0,1.0,60.0,8.0,64.0
5095,80.0,54.0,90.0,0.0,64.0
5096,56.0,9.0,60.0,10.0,64.0
5097,80.0,3.0,90.0,7.0,64.0
5098,72.0,35.0,60.0,4.0,64.0
5099,80.0,1.0,90.0,5.0,64.0
5100,77.0,4.0,60.0,8.0,64.0
5101,72.0,12.0,60.0,6.0,64.0
5102,75.0,32.0,60.0,8.0,64.0
5103,60.0,9.0,180.0,10.0,64.0
5104,80.0,64.0,90.0,7.0,64.0
5105,80.0,6.0,90.0,5.0,64.0
5106,72.0,3.0,60.0,4.0,64.0
5107,80.0,1.0,90.0,0.0,64.0
5108,73.0,7.0,60.0,6.0,64.0
5109,77.0,2.0,60.0,8.0,64.0
5110,73.0,5.0,60.0,4.0,64.0
5111,75.0,0.0,60.0,6.0,64.0
5112,78.0,3.0,60.0,8.0,64.0
5113,75.0,26.0,60.0,4.0,64.0
5114,80.0,1.0,90.0,5.0,64.0
5115,80.0,7.0,90.0,7.0,64.0
5116,80.0,56.0,90.0,0.0,64.0
5117,75.0,6.0,60.0,8.0,64.0
5118,68.0,32.0,60.0,8.0,64.0
5119,72.0,13.0,60.0,6.0,64.0
5120,92.0,1.0,90.0,1.0,64.0
5121,63.0,4.0,60.0,10.0,64.0
5122,72.0,1.0,60.0,4.0,64.0
5123,80.0,2.0,90.0,7.0,64.0
5124,80.0,1.0,90.0,5.0,64.0
5125,80.0,58.0,90.0,0.0,64.0
5126,70.0,9.0,60.0,8.0,64.0
5127,73.0,2.0,60.0,4.0,64.0
5128,73.0,2.0,30.0,6.0,64.0
5129,72.0,10.0,60.0,8.0,64.0
5130,75.0,29.0,60.0,6.0,64.0
5131,80.0,2.0,90.0,7.0,64.0
5132,75.0,1.0,60.0,4.0,64.0
5133,92.0,2.0,90.0,1.0,64.0
5134,54.0,5.0,30.0,10.0,64.0
5135,80.0,0.0,90.0,0.0,64.0
5136,80.0,51.0,90.0,5.0,64.0
5137,73.0,15.0,60.0,8.0,64.0
5138,72.0,15.0,60.0,8.0,64.0
5139,80.0,2.0,90.0,7.0,64.0
5140,75.0,6.0,60.0,6.0,64.0
5141,60.0,1.0,180.0,10.0,64.0
5142,92.0,13.0,90.0,1.0,64.0
5143,75.0,26.0,60.0,4.0,64.0
5144,80.0,0.0,90.0,5.0,64.0
5145,80.0,1.0,90.0,0.0,64.0
5146,73.0,1.0,30.0,8.0,64.0
5147,77.0,0.0,60.0,6.0,64.0
5148,77.0,62.0,60.0,4.0,64.0
5149,75.0,4.0,60.0,8.0,64.0
5150,78.0,2.0,60.0,6.0,64.0
5151,80.0,4.0,90.0,7.0,64.0
5152,80.0,1.0,90.0,5.0,64.0
5153,78.0,34.0,60.0,4.0,64.0
5154,80.0,0.0,90.0,0.0,64.0
5155,92.0,2.0,90.0,1.0,64.0
5156,73.0,63.0,60.0,8.0,64.0
5157,72.0,2.0,60.0,8.0,64.0
5158,78.0,1.0,60.0,6.0,64.0
5159,78.0,1.0,60.0,4.0,64.0
5160,80.0,6.0,90.0,5.0,64.0
5161,63.0,31.0,60.0,10.0,64.0
5162,96.0,75.0,90.0,1.0,64.0
5163,87.0,4.0,90.0,0.0,64.0
5164,80.0,3.0,90.0,7.0,64.0
5165,92.0,0.0,90.0,2.0,64.0
5166,73.0,8.0,60.0,8.0,64.0
5167,77.0,1.0,60.0,6.0,64.0
5168,77.0,2.0,60.0,4.0,64.0
5169,75.0,10.0,60.0,8.0,64.0
5170,78.0,11.0,90.0,6.0,64.0
5171,78.0,1.0,60.0,4.0,64.0
5172,80.0,1.0,90.0,5.0,64.0
5173,80.0,11.0,90.0,7.0,64.0
5174,84.0,2.0,90.0,0.0,64.0
5175,92.0,3.0,90.0,2.0,64.0
5176,56.0,1.0,60.0,10.0,64.0
5177,99.0,3.0,90.0,1.0,64.0
5178,73.0,63.0,60.0,8.0,64.0
5179,72.0,9.0,60.0,8.0,64.0
5180,60.0,12.0,60.0,10.0,64.0
5181,80.0,0.0,60.0,6.0,64.0
5182,75.0,10.0,90.0,7.0,64.0
5183,87.0,0.0,90.0,0.0,64.0
5184,96.0,2.0,90.0,1.0,64.0
5185,92.0,7.0,90.0,2.0,64.0
5186,75.0,2.0,60.0,5.0,64.0
5187,80.0,9.0,60.0,4.0,64.0
5188,70.0,64.0,60.0,8.0,64.0
5189,78.0,2.0,60.0,6.0,64.0
5190,78.0,6.0,30.0,4.0,64.0
5191,68.0,3.0,60.0,8.0,64.0
5192,77.0,0.0,60.0,6.0,64.0
5193,73.0,1.0,60.0,5.0,64.0
5194,92.0,4.0,120.0,2.0,64.0
5195,77.0,46.0,60.0,4.0,64.0
5196,49.0,7.0,60.0,3.0,64.0
5197,49.0,8.0,60.0,10.0,64.0
5198,73.0,2.0,60.0,7.0,64.0
5199,92.0,26.0,120.0,1.0,64.0
5200,89.0,2.0,120.0,0.0,64.0
5201,72.0,2.0,60.0,5.0,64.0
5202,72.0,9.0,60.0,7.0,64.0
5203,73.0,23.0,60.0,5.0,64.0
5204,65.0,15.0,60.0,8.0,64.0
5205,61.0,7.0,60.0,10.0,64.0
5206,73.0,3.0,90.0,7.0,64.0
5207,77.0,3.0,30.0,6.0,64.0
5208,77.0,2.0,30.0,4.0,64.0
5209,75.0,5.0,30.0,6.0,64.0
5210,75.0,0.0,30.0,4.0,64.0
5211,75.0,78.0,30.0,5.0,64.0
5212,75.0,1.0,30.0,7.0,64.0
5213,77.0,5.0,90.0,6.0,64.0
5214,77.0,14.0,90.0,4.0,64.0
5215,73.0,3.0,60.0,7.0,64.0
5216,73.0,28.0,60.0,5.0,64.0
5217,54.0,10.0,60.0,10.0,64.0
5218,70.0,29.0,270.0,8.0,64.0
5219,72.0,30.0,60.0,5.0,64.0
5220,72.0,11.0,60.0,7.0,64.0
5221,58.0,36.0,60.0,10.0,64.0
5222,70.0,4.0,30.0,7.0,64.0
5223,78.0,1.0,30.0,6.0,64.0
5224,70.0,14.0,30.0,5.0,64.0
5225,78.0,2.0,30.0,4.0,64.0
5226,77.0,3.0,60.0,6.0,64.0
5227,73.0,41.0,60.0,7.0,64.0
5228,77.0,5.0,30.0,4.0,64.0
5229,73.0,9.0,30.0,5.0,64.0
5230,75.0,1.0,60.0,6.0,64.0
5231,48.0,3.0,60.0,10.0,64.0
5232,75.0,55.0,60.0,4.0,64.0
5233,72.0,3.0,60.0,5.0,64.0
5234,72.0,5.0,60.0,7.0,64.0
5235,73.0,5.0,60.0,5.0,64.0
5236,73.0,36.0,60.0,7.0,64.0
5237,72.0,34.0,60.0,7.0,64.0
5238,60.0,5.0,60.0,10.0,64.0
5239,75.0,7.0,60.0,6.0,64.0
5240,72.0,2.0,60.0,5.0,64.0
5241,75.0,0.0,60.0,4.0,64.0
5242,69.0,0.0,60.0,8.0,64.0
5243,73.0,2.0,30.0,6.0,64.0
5244,70.0,66.0,60.0,7.0,64.0
5245,73.0,11.0,30.0,4.0,64.0
5246,70.0,1.0,60.0,5.0,64.0
5247,70.0,8.0,60.0,8.0,64.0
5248,75.0,4.0,90.0,6.0,64.0
5249,69.0,0.0,60.0,5.0,64.0
5250,69.0,0.0,60.0,7.0,64.0
5251,53.0,8.0,60.0,10.0,64.0
5252,72.0,26.0,60.0,8.0,64.0
5253,75.0,7.0,90.0,4.0,64.0
5254,70.0,63.0,60.0,8.0,64.0
5255,69.0,15.0,60.0,8.0,64.0
5256,77.0,1.0,60.0,6.0,64.0
5257,72.0,22.0,90.0,7.0,64.0
5258,72.0,0.0,60.0,5.0,64.0
5259,57.0,11.0,60.0,10.0,64.0
5260,77.0,0.0,30.0,4.0,64.0
5261,75.0,8.0,60.0,6.0,64.0
5262,67.0,0.0,60.0,8.0,64.0
5263,75.0,73.0,60.0,4.0,64.0
5264,65.0,3.0,60.0,8.0,64.0
5265,73.0,0.0,60.0,6.0,64.0
5266,73.0,8.0,60.0,5.0,64.0
5267,46.0,0.0,60.0,10.0,64.0
5268,73.0,0.0,60.0,7.0,64.0
5269,73.0,36.0,60.0,4.0,64.0
5270,77.0,54.0,60.0,5.0,64.0
5271,77.0,5.0,60.0,7.0,64.0
5272,70.0,5.0,60.0,7.0,64.0
5273,65.0,11.0,60.0,8.0,64.0
5274,73.0,1.0,60.0,6.0,64.0
5275,70.0,33.0,60.0,5.0,64.0
5276,58.0,1.0,60.0,10.0,64.0
5277,73.0,3.0,60.0,4.0,64.0
5278,75.0,5.0,60.0,6.0,64.0
5279,72.0,10.0,60.0,7.0,64.0
5280,75.0,2.0,60.0,4.0,64.0
5281,72.0,46.0,60.0,5.0,64.0
5282,77.0,11.0,60.0,6.0,64.0
5283,73.0,3.0,60.0,7.0,64.0
5284,58.0,5.0,30.0,8.0,64.0
5285,77.0,3.0,60.0,4.0,64.0
5286,73.0,49.0,60.0,5.0,64.0
5287,56.0,4.0,60.0,10.0,64.0
5288,75.0,8.0,60.0,7.0,64.0
5289,75.0,38.0,60.0,5.0,64.0
5290,77.0,12.0,60.0,6.0,64.0
5291,73.0,0.0,60.0,7.0,64.0
5292,54.0,5.0,60.0,10.0,64.0
5293,61.0,4.0,180.0,8.0,64.0
5294,77.0,16.0,60.0,4.0,64.0
5295,73.0,8.0,60.0,5.0,64.0
5296,78.0,13.0,30.0,6.0,64.0
5297,78.0,10.0,30.0,4.0,64.0
5298,75.0,3.0,60.0,7.0,64.0
5299,75.0,62.0,60.0,5.0,64.0
5300,80.0,10.0,60.0,6.0,64.0
5301,80.0,4.0,60.0,4.0,64.0
5302,53.0,8.0,60.0,10.0,64.0
5303,77.0,0.0,60.0,7.0,64.0
5304,77.0,23.0,60.0,5.0,64.0
5305,80.0,13.0,60.0,7.0,64.0
5306,80.0,48.0,60.0,5.0,64.0
5307,77.0,10.0,60.0,6.0,64.0
5308,73.0,8.0,60.0,7.0,64.0
5309,58.0,3.0,60.0,10.0,64.0
5310,73.0,2.0,90.0,8.0,64.0
5311,73.0,26.0,60.0,5.0,64.0
5312,77.0,1.0,60.0,4.0,64.0
5313,78.0,8.0,60.0,6.0,64.0
5314,75.0,7.0,60.0,7.0,64.0
5315,75.0,7.0,60.0,5.0,64.0
5316,78.0,57.0,60.0,4.0,64.0
5317,80.0,2.0,60.0,6.0,64.0
5318,56.0,0.0,60.0,10.0,64.0
5319,77.0,5.0,60.0,7.0,64.0
5320,77.0,1.0,60.0,5.0,64.0
5321,73.0,10.0,90.0,8.0,64.0
5322,80.0,33.0,60.0,4.0,64.0
5323,78.0,3.0,60.0,7.0,64.0
5324,78.0,48.0,60.0,5.0,64.0
5325,77.0,17.0,60.0,7.0,64.0
5326,54.0,0.0,60.0,10.0,64.0
5327,77.0,9.0,60.0,5.0,64.0
5328,73.0,1.0,90.0,8.0,64.0
5329,80.0,8.0,60.0,6.0,64.0
5330,80.0,20.0,60.0,4.0,64.0
5331,78.0,11.0,60.0,7.0,64.0
5332,78.0,2.0,60.0,5.0,64.0
5333,82.0,0.0,60.0,6.0,64.0
5334,82.0,75.0,30.0,4.0,64.0
5335,80.0,3.0,60.0,7.0,64.0
5336,53.0,1.0,60.0,10.0,64.0
5337,83.0,3.0,60.0,6.0,64.0
5338,73.0,20.0,90.0,8.0,64.0
5339,83.0,3.0,60.0,4.0,64.0
5340,80.0,27.0,60.0,5.0,64.0
5341,78.0,1.0,60.0,7.0,64.0
5342,78.0,52.0,60.0,5.0,64.0
5343,77.0,11.0,60.0,7.0,64.0
5344,73.0,7.0,90.0,8.0,64.0
5345,77.0,22.0,60.0,5.0,64.0
5346,83.0,5.0,60.0,4.0,64.0
5347,56.0,5.0,60.0,10.0,64.0
5348,83.0,4.0,60.0,6.0,64.0
5349,78.0,2.0,60.0,7.0,64.0
5350,82.0,77.0,60.0,6.0,64.0
5351,82.0,2.0,60.0,4.0,64.0
5352,78.0,0.0,60.0,5.0,64.0
5353,49.0,7.0,60.0,10.0,64.0
5354,80.0,2.0,60.0,7.0,64.0
5355,83.0,29.0,60.0,6.0,64.0
5356,83.0,1.0,60.0,4.0,64.0
5357,80.0,2.0,60.0,5.0,64.0
5358,73.0,25.0,90.0,8.0,64.0
5359,78.0,44.0,60.0,7.0,64.0
5360,78.0,2.0,60.0,5.0,64.0
5361,77.0,2.0,60.0,5.0,64.0
5362,53.0,10.0,60.0,10.0,64.0
5363,77.0,4.0,60.0,7.0,64.0
5364,85.0,16.0,60.0,6.0,64.0
5365,68.0,2.0,90.0,8.0,64.0
5366,85.0,7.0,60.0,4.0,64.0
5367,83.0,15.0,30.0,6.0,64.0
5368,75.0,2.0,60.0,7.0,64.0
5369,75.0,61.0,60.0,5.0,64.0
5370,83.0,9.0,30.0,4.0,64.0
5371,82.0,1.0,60.0,6.0,64.0
5372,54.0,10.0,60.0,10.0,64.0
5373,73.0,0.0,60.0,5.0,64.0
5374,70.0,5.0,90.0,8.0,64.0
5375,73.0,24.0,60.0,7.0,64.0
5376,82.0,5.0,60.0,4.0,64.0
5377,78.0,6.0,60.0,6.0,64.0
5378,78.0,67.0,60.0,4.0,64.0
5379,75.0,0.0,60.0,6.0,64.0
5380,70.0,8.0,90.0,8.0,64.0
5381,66.0,1.0,60.0,10.0,64.0
5382,70.0,5.0,60.0,5.0,64.0
5383,70.0,1.0,60.0,7.0,64.0
5384,75.0,40.0,60.0,4.0,64.0
5385,77.0,1.0,60.0,6.0,64.0
5386,77.0,57.0,30.0,4.0,64.0
5387,78.0,9.0,60.0,6.0,64.0
5388,78.0,25.0,60.0,4.0,64.0
5389,70.0,10.0,90.0,8.0,64.0
5390,75.0,14.0,270.0,5.0,64.0
5391,59.0,7.0,60.0,10.0,64.0
5392,75.0,12.0,240.0,7.0,64.0
5393,80.0,6.0,60.0,6.0,64.0
5394,80.0,45.0,30.0,4.0,64.0
5395,77.0,15.0,60.0,6.0,64.0
5396,70.0,5.0,90.0,8.0,64.0
5397,77.0,18.0,30.0,4.0,64.0
5398,63.0,19.0,60.0,10.0,64.0
5399,78.0,14.0,60.0,6.0,64.0
5400,78.0,46.0,30.0,4.0,64.0
5401,80.0,4.0,60.0,6.0,64.0
5402,68.0,2.0,90.0,8.0,64.0
5403,53.0,10.0,60.0,10.0,64.0
5404,80.0,25.0,60.0,4.0,64.0
5405,77.0,16.0,60.0,6.0,64.0
5406,77.0,47.0,30.0,4.0,64.0
5407,74.0,6.0,60.0,6.0,64.0
5408,71.0,11.0,90.0,8.0,64.0
5409,80.0,5.0,60.0,7.0,64.0
5410,80.0,2.0,60.0,5.0,64.0
5411,65.0,24.0,60.0,10.0,64.0
5412,74.0,9.0,30.0,4.0,64.0
5413,75.0,9.0,60.0,6.0,64.0
5414,75.0,55.0,30.0,4.0,64.0
5415,77.0,2.0,60.0,6.0,64.0
5416,74.0,8.0,30.0,7.0,64.0
5417,58.0,12.0,60.0,10.0,64.0
5418,70.0,5.0,60.0,8.0,64.0
5419,74.0,1.0,60.0,5.0,64.0
5420,77.0,25.0,60.0,4.0,64.0
5421,78.0,4.0,60.0,6.0,64.0
5422,78.0,59.0,30.0,4.0,64.0
5423,75.0,10.0,60.0,6.0,64.0
5424,75.0,23.0,60.0,4.0,64.0
5425,70.0,7.0,150.0,7.0,64.0
5426,70.0,24.0,60.0,8.0,64.0
5427,62.0,0.0,60.0,10.0,64.0
5428,70.0,18.0,150.0,5.0,64.0
5429,77.0,0.0,60.0,6.0,64.0
5430,77.0,61.0,30.0,4.0,64.0
5431,78.0,2.0,60.0,6.0,64.0
5432,78.0,11.0,60.0,4.0,64.0
5433,51.0,6.0,60.0,10.0,64.0
5434,75.0,20.0,90.0,8.0,64.0
5435,80.0,0.0,60.0,6.0,64.0
5436,71.0,5.0,60.0,7.0,64.0
5437,80.0,2.0,30.0,4.0,64.0
5438,71.0,68.0,60.0,5.0,64.0
5439,77.0,2.0,60.0,6.0,64.0
5440,68.0,30.0,60.0,7.0,64.0
5441,77.0,0.0,60.0,4.0,64.0
5442,63.0,7.0,60.0,10.0,64.0
5443,68.0,2.0,60.0,5.0,64.0
5444,70.0,1.0,60.0,8.0,64.0
5445,78.0,3.0,60.0,6.0,64.0
5446,70.0,0.0,60.0,7.0,64.0
5447,78.0,2.0,30.0,4.0,64.0
5448,70.0,66.0,60.0,5.0,64.0
5449,71.0,13.0,60.0,7.0,64.0
5450,80.0,1.0,60.0,6.0,64.0
5451,80.0,46.0,60.0,4.0,64.0
5452,71.0,5.0,60.0,5.0,64.0
5453,75.0,1.0,60.0,8.0,64.0
5454,56.0,6.0,60.0,10.0,64.0
5455,78.0,41.0,60.0,6.0,64.0
5456,78.0,3.0,60.0,4.0,64.0
5457,77.0,3.0,60.0,6.0,64.0
5458,59.0,13.0,60.0,10.0,64.0
5459,68.0,3.0,60.0,7.0,64.0
5460,77.0,4.0,60.0,4.0,64.0
5461,68.0,2.0,60.0,5.0,64.0
5462,75.0,30.0,60.0,8.0,64.0
5463,75.0,2.0,60.0,6.0,64.0
5464,75.0,67.0,60.0,4.0,64.0
5465,82.0,7.0,120.0,6.0,64.0
5466,82.0,59.0,120.0,4.0,64.0
5467,77.0,10.0,60.0,7.0,64.0
5468,74.0,22.0,60.0,8.0,64.0
5469,58.0,24.0,60.0,10.0,64.0
5470,77.0,1.0,30.0,5.0,64.0
5471,82.0,1.0,60.0,7.0,64.0
5472,82.0,0.0,30.0,5.0,64.0
5473,74.0,5.0,60.0,7.0,64.0
5474,46.0,31.0,60.0,10.0,64.0
5475,82.0,1.0,90.0,6.0,64.0
5476,74.0,5.0,60.0,5.0,64.0
5477,77.0,2.0,60.0,8.0,64.0
5478,82.0,9.0,90.0,4.0,64.0
5479,82.0,4.0,90.0,0.0,64.0
5480,75.0,3.0,60.0,7.0,64.0
5481,48.0,8.0,60.0,10.0,64.0
5482,75.0,51.0,60.0,5.0,64.0
5483,77.0,12.0,60.0,7.0,64.0
5484,50.0,10.0,60.0,10.0,64.0
5485,82.0,3.0,90.0,6.0,64.0
5486,70.0,0.0,30.0,8.0,64.0
5487,82.0,55.0,90.0,0.0,64.0
5488,77.0,13.0,60.0,5.0,64.0
5489,82.0,2.0,90.0,4.0,64.0
5490,78.0,18.0,30.0,7.0,64.0
5491,78.0,2.0,60.0,5.0,64.0
5492,77.0,11.0,60.0,7.0,64.0
5493,82.0,0.0,90.0,6.0,64.0
5494,50.0,8.0,60.0,10.0,64.0
5495,77.0,23.0,60.0,5.0,64.0
5496,82.0,6.0,90.0,4.0,64.0
5497,74.0,2.0,150.0,8.0,64.0
5498,82.0,64.0,90.0,0.0,64.0
5499,78.0,3.0,60.0,7.0,64.0
5500,51.0,5.0,60.0,10.0,64.0
5501,78.0,3.0,60.0,5.0,64.0
5502,80.0,14.0,60.0,7.0,64.0
5503,53.0,10.0,90.0,10.0,64.0
5504,80.0,23.0,60.0,5.0,64.0
5505,82.0,4.0,120.0,6.0,64.0
5506,82.0,2.0,90.0,4.0,64.0
5507,82.0,2.0,90.0,0.0,64.0
5508,77.0,7.0,60.0,7.0,64.0
5509,77.0,55.0,60.0,5.0,64.0
5510,70.0,5.0,60.0,7.0,64.0
5511,50.0,11.0,60.0,10.0,64.0
5512,77.0,9.0,60.0,8.0,64.0
5513,70.0,25.0,60.0,5.0,64.0
5514,82.0,4.0,90.0,6.0,64.0
5515,82.0,0.0,90.0,0.0,64.0
5516,82.0,1.0,90.0,4.0,64.0
5517,94.0,21.0,90.0,1.0,64.0
5518,72.0,2.0,60.0,7.0,64.0
5519,51.0,3.0,60.0,10.0,64.0
5520,72.0,38.0,60.0,5.0,64.0
5521,74.0,10.0,60.0,7.0,64.0
5522,53.0,10.0,60.0,10.0,64.0
5523,82.0,4.0,90.0,6.0,64.0
5524,74.0,32.0,60.0,5.0,64.0
5525,82.0,7.0,90.0,4.0,64.0
5526,82.0,0.0,90.0,0.0,64.0
5527,68.0,1.0,60.0,8.0,64.0
5528,94.0,5.0,90.0,1.0,64.0
5529,75.0,0.0,60.0,7.0,64.0
5530,75.0,54.0,60.0,5.0,64.0
5531,74.0,35.0,60.0,7.0,64.0
5532,82.0,1.0,90.0,6.0,64.0
5533,74.0,7.0,60.0,5.0,64.0
5534,82.0,8.0,90.0,0.0,64.0
5535,53.0,1.0,60.0,10.0,64.0
5536,82.0,3.0,90.0,4.0,64.0
5537,74.0,4.0,180.0,8.0,64.0
5538,94.0,0.0,90.0,1.0,64.0
5539,75.0,6.0,60.0,5.0,64.0
5540,75.0,3.0,60.0,7.0,64.0
5541,54.0,70.0,60.0,10.0,64.0
5542,82.0,5.0,90.0,6.0,64.0
5543,77.0,2.0,90.0,7.0,64.0
5544,56.0,24.0,60.0,10.0,64.0
5545,77.0,5.0,60.0,5.0,64.0
5546,82.0,0.0,90.0,0.0,64.0
5547,82.0,27.0,90.0,4.0,64.0
5548,94.0,4.0,90.0,1.0,64.0
5549,75.0,0.0,60.0,7.0,64.0
5550,75.0,32.0,60.0,5.0,64.0
5551,74.0,11.0,60.0,7.0,64.0
5552,82.0,0.0,90.0,6.0,64.0
5553,77.0,9.0,60.0,8.0,64.0
5554,82.0,0.0,90.0,0.0,64.0
5555,94.0,1.0,90.0,2.0,64.0
5556,94.0,1.0,90.0,1.0,64.0
5557,82.0,2.0,90.0,4.0,64.0
5558,74.0,26.0,60.0,5.0,64.0
5559,56.0,7.0,60.0,10.0,64.0
5560,75.0,5.0,60.0,7.0,64.0
5561,54.0,10.0,60.0,10.0,64.0
5562,75.0,58.0,60.0,5.0,64.0
5563,77.0,11.0,60.0,7.0,64.0
5564,70.0,13.0,60.0,8.0,64.0
5565,56.0,5.0,90.0,10.0,64.0
5566,82.0,3.0,90.0,6.0,64.0
5567,94.0,0.0,90.0,2.0,64.0
5568,82.0,1.0,90.0,0.0,64.0
5569,94.0,23.0,90.0,1.0,64.0
5570,77.0,6.0,60.0,5.0,64.0
5571,82.0,1.0,90.0,4.0,64.0
5572,80.0,26.0,60.0,7.0,64.0
5573,80.0,21.0,90.0,5.0,64.0
5574,78.0,20.0,60.0,7.0,64.0
5575,74.0,4.0,60.0,8.0,64.0
5576,82.0,5.0,60.0,6.0,64.0
5577,82.0,3.0,90.0,0.0,64.0
5578,58.0,4.0,60.0,10.0,64.0
5579,94.0,11.0,90.0,1.0,64.0
5580,78.0,1.0,60.0,5.0,64.0
5581,94.0,3.0,90.0,2.0,64.0
5582,82.0,6.0,60.0,4.0,64.0
5583,77.0,13.0,60.0,7.0,64.0
5584,56.0,1.0,60.0,10.0,64.0
5585,77.0,49.0,60.0,5.0,64.0
5586,75.0,14.0,60.0,7.0,64.0
5587,54.0,9.0,60.0,10.0,64.0
5588,82.0,0.0,60.0,6.0,64.0
5589,87.0,4.0,150.0,0.0,64.0
5590,75.0,1.0,60.0,8.0,64.0
5591,82.0,34.0,60.0,4.0,64.0
5592,54.0,1.0,60.0,3.0,64.0
5593,75.0,1.0,60.0,5.0,64.0
5594,82.0,22.0,120.0,2.0,64.0
5595,94.0,2.0,120.0,1.0,64.0
5596,80.0,19.0,60.0,6.0,64.0
5597,80.0,10.0,60.0,4.0,64.0
5598,82.0,0.0,60.0,6.0,64.0
5599,82.0,34.0,60.0,4.0,64.0
5600,70.0,4.0,60.0,7.0,64.0
5601,63.0,6.0,60.0,8.0,64.0
5602,54.0,5.0,30.0,10.0,64.0
5603,70.0,3.0,60.0,5.0,64.0
5604,83.0,2.0,60.0,6.0,64.0
5605,83.0,56.0,60.0,4.0,64.0
5606,53.0,5.0,30.0,10.0,64.0
5607,82.0,16.0,60.0,6.0,64.0
5608,75.0,31.0,270.0,7.0,64.0
5609,82.0,3.0,30.0,4.0,64.0
5610,54.0,7.0,90.0,10.0,64.0
5611,75.0,5.0,300.0,5.0,64.0
5612,66.0,39.0,60.0,8.0,64.0
5613,87.0,45.0,60.0,6.0,64.0
5614,87.0,9.0,60.0,4.0,64.0
5615,86.0,41.0,60.0,6.0,64.0
5616,86.0,2.0,60.0,4.0,64.0
5617,70.0,4.0,60.0,8.0,64.0
5618,56.0,9.0,30.0,10.0,64.0
5619,87.0,4.0,60.0,6.0,64.0
5620,54.0,1.0,30.0,10.0,64.0
5621,87.0,44.0,60.0,4.0,64.0
5622,80.0,2.0,60.0,6.0,64.0
5623,53.0,0.0,60.0,10.0,64.0
5624,71.0,32.0,60.0,8.0,64.0
5625,80.0,1.0,60.0,4.0,64.0
5626,78.0,13.0,60.0,6.0,64.0
5627,78.0,51.0,60.0,4.0,64.0
5628,80.0,3.0,60.0,6.0,64.0
5629,75.0,26.0,60.0,8.0,64.0
5630,68.0,12.0,60.0,7.0,64.0
5631,68.0,1.0,60.0,5.0,64.0
5632,53.0,4.0,30.0,10.0,64.0
5633,80.0,5.0,60.0,4.0,64.0
5634,82.0,6.0,60.0,6.0,64.0
5635,51.0,0.0,60.0,10.0,64.0
5636,82.0,62.0,30.0,4.0,64.0
5637,53.0,21.0,90.0,10.0,64.0
5638,80.0,6.0,60.0,6.0,64.0
5639,74.0,11.0,60.0,8.0,64.0
5640,65.0,6.0,60.0,7.0,64.0
5641,65.0,13.0,60.0,5.0,64.0
5642,80.0,4.0,30.0,4.0,64.0
5643,83.0,42.0,60.0,6.0,64.0
5644,83.0,15.0,30.0,4.0,64.0
5645,82.0,2.0,60.0,6.0,64.0
5646,74.0,8.0,60.0,7.0,64.0
5647,74.0,2.0,60.0,5.0,64.0
5648,82.0,2.0,30.0,4.0,64.0
5649,54.0,4.0,60.0,10.0,64.0
5650,70.0,32.0,60.0,8.0,64.0
5651,80.0,4.0,60.0,6.0,64.0
5652,53.0,4.0,30.0,10.0,64.0
5653,80.0,67.0,30.0,4.0,64.0
5654,78.0,7.0,60.0,6.0,64.0
5655,75.0,5.0,60.0,7.0,64.0
5656,51.0,37.0,60.0,10.0,64.0
5657,78.0,1.0,60.0,4.0,64.0
5658,70.0,5.0,60.0,8.0,64.0
5659,75.0,2.0,60.0,5.0,64.0
5660,53.0,40.0,60.0,10.0,64.0
5661,54.0,20.0,30.0,10.0,64.0
5662,75.0,1.0,60.0,7.0,64.0
5663,75.0,2.0,60.0,5.0,64.0
5664,82.0,10.0,30.0,4.0,64.0
5665,66.0,3.0,60.0,8.0,64.0
5666,82.0,19.0,60.0,6.0,64.0
5667,51.0,82.0,30.0,10.0,64.0
5668,56.0,8.0,60.0,10.0,64.0
5669,75.0,10.0,60.0,5.0,64.0
5670,63.0,0.0,60.0,8.0,64.0
5671,75.0,29.0,60.0,7.0,64.0
5672,83.0,2.0,60.0,6.0,64.0
5673,83.0,3.0,30.0,4.0,64.0
5674,58.0,59.0,60.0,10.0,64.0
5675,59.0,7.0,30.0,10.0,64.0
5676,71.0,11.0,60.0,5.0,64.0
5677,63.0,1.0,60.0,8.0,64.0
5678,68.0,7.0,60.0,7.0,64.0
5679,75.0,10.0,60.0,4.0,64.0
5680,75.0,19.0,60.0,6.0,64.0
5681,56.0,100.0,30.0,10.0,64.0
5682,74.0,6.0,60.0,4.0,64.0
5683,70.0,6.0,240.0,5.0,64.0
5684,58.0,4.0,240.0,10.0,64.0
5685,70.0,37.0,270.0,8.0,64.0
5686,74.0,53.0,60.0,6.0,64.0
5687,65.0,8.0,240.0,7.0,64.0
5688,70.0,3.0,60.0,4.0,64.0
5689,70.0,54.0,60.0,6.0,64.0
5690,72.0,8.0,60.0,4.0,64.0
5691,72.0,27.0,60.0,6.0,64.0
5692,74.0,23.0,60.0,6.0,64.0
5693,74.0,4.0,60.0,4.0,64.0
5694,75.0,46.0,60.0,6.0,64.0
5695,75.0,8.0,60.0,4.0,64.0
5696,77.0,50.0,60.0,6.0,64.0
5697,77.0,6.0,60.0,4.0,64.0
5698,78.0,1.0,60.0,6.0,64.0
5699,78.0,3.0,60.0,4.0,64.0
5700,77.0,0.0,60.0,7.0,64.0
5701,74.0,6.0,60.0,8.0,64.0
5702,56.0,1.0,60.0,10.0,64.0
5703,77.0,39.0,60.0,5.0,64.0
5704,80.0,12.0,60.0,4.0,64.0
5705,80.0,67.0,60.0,6.0,64.0
5706,75.0,1.0,60.0,7.0,64.0
5707,82.0,3.0,60.0,6.0,64.0
5708,70.0,1.0,60.0,8.0,64.0
5709,75.0,3.0,60.0,5.0,64.0
5710,82.0,46.0,60.0,4.0,64.0
5711,54.0,6.0,60.0,10.0,64.0
5712,83.0,30.0,60.0,6.0,64.0
5713,83.0,14.0,60.0,4.0,64.0
5714,74.0,8.0,60.0,5.0,64.0
5715,65.0,2.0,60.0,8.0,64.0
5716,74.0,3.0,30.0,7.0,64.0
5717,82.0,12.0,60.0,4.0,64.0
5718,58.0,5.0,60.0,10.0,64.0
5719,82.0,51.0,60.0,6.0,64.0
5720,80.0,37.0,60.0,4.0,64.0
5721,80.0,1.0,60.0,6.0,64.0
5722,70.0,4.0,60.0,7.0,64.0
5723,70.0,0.0,60.0,5.0,64.0
5724,63.0,6.0,60.0,8.0,64.0
5725,78.0,7.0,30.0,4.0,64.0
5726,78.0,53.0,60.0,6.0,64.0
5727,63.0,3.0,60.0,10.0,64.0
5728,77.0,9.0,60.0,4.0,64.0
5729,77.0,56.0,60.0,6.0,64.0
5730,75.0,7.0,60.0,4.0,64.0
5731,70.0,3.0,60.0,7.0,64.0
5732,70.0,0.0,60.0,5.0,64.0
5733,66.0,2.0,60.0,8.0,64.0
5734,75.0,5.0,60.0,6.0,64.0
5735,58.0,31.0,60.0,10.0,64.0
5736,74.0,65.0,60.0,4.0,64.0
5737,74.0,0.0,60.0,6.0,64.0
5738,75.0,7.0,60.0,4.0,64.0
5739,66.0,2.0,60.0,7.0,64.0
5740,66.0,12.0,60.0,5.0,64.0
5741,63.0,103.0,60.0,8.0,64.0
5742,59.0,1.0,60.0,10.0,64.0
5743,75.0,4.0,60.0,6.0,64.0
5744,71.0,1.0,60.0,7.0,64.0
5745,71.0,1.0,60.0,5.0,64.0
5746,56.0,2.0,60.0,10.0,64.0
5747,77.0,1.0,60.0,6.0,64.0
5748,68.0,114.0,60.0,8.0,64.0
5749,77.0,1.0,60.0,4.0,64.0
5750,70.0,1.0,60.0,5.0,64.0
5751,70.0,1.0,60.0,7.0,64.0
5752,70.0,4.0,60.0,6.0,64.0
5753,66.0,0.0,60.0,8.0,64.0
5754,58.0,111.0,60.0,10.0,64.0
5755,70.0,4.0,30.0,4.0,64.0
5756,74.0,136.0,90.0,6.0,64.0
5757,65.0,18.0,60.0,8.0,64.0
5758,70.0,0.0,60.0,5.0,64.0
5759,70.0,3.0,60.0,7.0,64.0
5760,46.0,4.0,30.0,10.0,64.0
5761,74.0,3.0,60.0,4.0,64.0
5762,70.0,41.0,150.0,5.0,64.0
5763,70.0,7.0,240.0,7.0,64.0
5764,66.0,3.0,240.0,8.0,64.0
5765,51.0,53.0,240.0,10.0,64.0
5766,75.0,17.0,120.0,4.0,64.0
5767,75.0,26.0,60.0,6.0,64.0
5768,70.0,15.0,60.0,6.0,64.0
5769,66.0,55.0,60.0,6.0,64.0
5770,70.0,5.0,60.0,6.0,64.0
5771,75.0,55.0,60.0,6.0,64.0
5772,78.0,44.0,60.0,6.0,64.0
5773,70.0,7.0,60.0,7.0,64.0
5774,62.0,3.0,60.0,10.0,64.0
5775,77.0,43.0,60.0,6.0,64.0
5776,65.0,2.0,60.0,8.0,64.0
5777,80.0,69.0,60.0,6.0,64.0
5778,78.0,49.0,60.0,6.0,64.0
5779,70.0,3.0,60.0,7.0,64.0
5780,63.0,10.0,60.0,10.0,64.0
5781,63.0,5.0,60.0,8.0,64.0
5782,82.0,44.0,60.0,6.0,64.0
5783,71.0,7.0,60.0,7.0,64.0
5784,87.0,31.0,60.0,6.0,64.0
5785,59.0,0.0,60.0,10.0,64.0
5786,66.0,7.0,60.0,8.0,64.0
5787,78.0,76.0,30.0,6.0,64.0
5788,77.0,54.0,60.0,6.0,64.0
5789,56.0,3.0,60.0,10.0,64.0
5790,71.0,7.0,60.0,7.0,64.0
5791,65.0,2.0,60.0,8.0,64.0
5792,87.0,51.0,60.0,6.0,64.0
5793,70.0,0.0,60.0,7.0,64.0
5794,58.0,2.0,60.0,10.0,64.0
5795,77.0,3.0,60.0,6.0,64.0
5796,65.0,47.0,30.0,8.0,64.0
5797,86.0,79.0,60.0,6.0,64.0
5798,87.0,57.0,60.0,6.0,64.0
5799,70.0,4.0,240.0,7.0,64.0
5800,51.0,24.0,240.0,10.0,64.0
5801,66.0,5.0,240.0,8.0,64.0
5802,82.0,54.0,60.0,6.0,64.0
5803,78.0,58.0,60.0,6.0,64.0
5804,82.0,22.0,60.0,6.0,64.0
5805,75.0,44.0,60.0,6.0,64.0
5806,78.0,75.0,60.0,6.0,64.0
5807,72.0,1.0,60.0,6.0,64.0
5808,63.0,4.0,60.0,10.0,64.0
5809,72.0,36.0,60.0,8.0,64.0
5810,77.0,4.0,60.0,7.0,64.0
5811,81.0,84.0,60.0,6.0,64.0
5812,82.0,54.0,60.0,6.0,64.0
5813,61.0,0.0,60.0,10.0,64.0
5814,77.0,5.0,60.0,7.0,64.0
5815,73.0,4.0,60.0,8.0,64.0
5816,77.0,49.0,60.0,6.0,64.0
5817,73.0,48.0,60.0,6.0,64.0
5818,66.0,2.0,60.0,10.0,64.0
5819,70.0,5.0,60.0,8.0,64.0
5820,78.0,2.0,60.0,7.0,64.0
5821,77.0,63.0,60.0,6.0,64.0
5822,72.0,4.0,60.0,6.0,64.0
5823,63.0,0.0,60.0,10.0,64.0
5824,78.0,1.0,60.0,7.0,64.0
5825,75.0,46.0,60.0,8.0,64.0
5826,82.0,59.0,60.0,6.0,64.0
5827,72.0,11.0,60.0,6.0,64.0
5828,77.0,38.0,60.0,7.0,64.0
5829,65.0,1.0,60.0,10.0,64.0
5830,75.0,1.0,60.0,8.0,64.0
5831,81.0,90.0,60.0,6.0,64.0
5832,82.0,33.0,60.0,6.0,64.0
5833,58.0,15.0,90.0,10.0,64.0
5834,77.0,51.0,270.0,7.0,64.0
5835,73.0,6.0,240.0,8.0,64.0
5836,77.0,63.0,60.0,6.0,64.0
5837,73.0,36.0,60.0,6.0,64.0
5838,58.0,8.0,90.0,10.0,64.0
5839,77.0,40.0,60.0,6.0,64.0
5840,82.0,4.0,90.0,6.0,64.0
5841,58.0,34.0,90.0,10.0,64.0
5842,83.0,53.0,60.0,6.0,64.0
5843,58.0,0.0,60.0,10.0,64.0
5844,77.0,48.0,60.0,7.0,64.0
5845,85.0,2.0,60.0,6.0,64.0
5846,70.0,0.0,60.0,8.0,64.0
5847,82.0,77.0,30.0,6.0,64.0
5848,73.0,12.0,60.0,7.0,64.0
5849,76.0,56.0,60.0,6.0,64.0
5850,70.0,0.0,60.0,8.0,64.0
5851,75.0,43.0,60.0,6.0,64.0
5852,56.0,91.0,90.0,10.0,64.0
5853,73.0,9.0,30.0,7.0,64.0
5854,70.0,34.0,60.0,8.0,64.0
5855,76.0,0.0,30.0,6.0,64.0
5856,85.0,15.0,30.0,6.0,64.0
5857,76.0,15.0,60.0,6.0,64.0
5858,56.0,34.0,90.0,10.0,64.0
5859,75.0,41.0,60.0,6.0,64.0
5860,73.0,6.0,60.0,7.0,64.0
5861,76.0,9.0,60.0,6.0,64.0
5862,70.0,6.0,30.0,8.0,64.0
5863,56.0,22.0,60.0,10.0,64.0
5864,85.0,95.0,30.0,6.0,64.0
5865,67.0,2.0,60.0,7.0,64.0
5866,75.0,56.0,60.0,6.0,64.0
5867,70.0,13.0,60.0,8.0,64.0
5868,73.0,38.0,60.0,6.0,64.0
5869,75.0,36.0,60.0,6.0,64.0
5870,70.0,13.0,60.0,8.0,64.0
5871,55.0,33.0,90.0,10.0,64.0
5872,73.0,9.0,60.0,7.0,64.0
5873,77.0,27.0,90.0,6.0,64.0
5874,79.0,48.0,60.0,6.0,64.0
5875,55.0,28.0,90.0,10.0,64.0
5876,80.0,44.0,60.0,6.0,64.0
5877,82.0,6.0,60.0,6.0,64.0
5878,70.0,7.0,30.0,8.0,64.0
5879,75.0,42.0,60.0,7.0,64.0
5880,55.0,1.0,60.0,10.0,64.0
5881,83.0,81.0,60.0,6.0,64.0
5882,75.0,57.0,60.0,7.0,64.0
5883,85.0,4.0,60.0,6.0,64.0
5884,67.0,1.0,60.0,8.0,64.0
5885,82.0,43.0,60.0,6.0,64.0
5886,79.0,1.0,60.0,6.0,64.0
5887,70.0,5.0,60.0,8.0,64.0
5888,75.0,42.0,60.0,7.0,64.0
5889,51.0,27.0,90.0,10.0,64.0
5890,82.0,38.0,60.0,6.0,64.0
5891,75.0,45.0,60.0,6.0,64.0
5892,51.0,39.0,90.0,10.0,64.0
5893,85.0,41.0,90.0,6.0,64.0
5894,83.0,2.0,60.0,6.0,64.0
5895,51.0,0.0,60.0,10.0,64.0
5896,67.0,8.0,30.0,8.0,64.0
5897,75.0,36.0,60.0,7.0,64.0
5898,82.0,84.0,60.0,6.0,64.0
5899,83.0,59.0,90.0,6.0,64.0
5900,68.0,2.0,60.0,8.0,64.0
5901,75.0,11.0,60.0,7.0,64.0
5902,80.0,36.0,90.0,6.0,64.0
5903,75.0,42.0,60.0,6.0,64.0
5904,71.0,3.0,60.0,8.0,64.0
5905,80.0,9.0,60.0,7.0,64.0
5906,56.0,74.0,90.0,10.0,64.0
5907,71.0,1.0,60.0,6.0,64.0
5908,75.0,40.0,60.0,6.0,64.0
5909,56.0,21.0,90.0,10.0,64.0
5910,80.0,54.0,60.0,6.0,64.0
5911,83.0,0.0,60.0,6.0,64.0
5912,80.0,37.0,60.0,7.0,64.0
5913,75.0,0.0,60.0,8.0,64.0
5914,56.0,5.0,30.0,10.0,64.0
5915,85.0,71.0,30.0,6.0,64.0
5916,84.0,47.0,60.0,6.0,64.0
5917,68.0,17.0,30.0,8.0,64.0
5918,75.0,11.0,60.0,7.0,64.0
5919,82.0,40.0,60.0,6.0,64.0
5920,75.0,41.0,60.0,7.0,64.0
5921,84.0,2.0,60.0,6.0,64.0
5922,54.0,88.0,120.0,10.0,64.0
5923,68.0,17.0,30.0,8.0,64.0
5924,87.0,8.0,30.0,6.0,64.0
5925,84.0,27.0,90.0,6.0,64.0
5926,54.0,44.0,90.0,10.0,64.0
5927,82.0,15.0,90.0,6.0,64.0
5928,68.0,17.0,30.0,8.0,64.0
5929,75.0,10.0,60.0,7.0,64.0
5930,84.0,5.0,60.0,6.0,64.0
5931,54.0,23.0,60.0,10.0,64.0
5932,87.0,82.0,30.0,6.0,64.0
5933,68.0,9.0,60.0,8.0,64.0
5934,85.0,2.0,60.0,6.0,64.0
5935,77.0,61.0,60.0,7.0,64.0
5936,80.0,38.0,60.0,6.0,64.0
5937,73.0,4.0,60.0,8.0,64.0
5938,77.0,11.0,60.0,6.0,64.0
5939,53.0,84.0,120.0,10.0,64.0
5940,80.0,34.0,60.0,7.0,64.0
5941,80.0,10.0,30.0,6.0,64.0
5942,73.0,25.0,90.0,6.0,64.0
5943,53.0,26.0,90.0,10.0,64.0
5944,75.0,44.0,60.0,6.0,64.0
5945,73.0,3.0,60.0,8.0,64.0
5946,80.0,4.0,60.0,7.0,64.0
5947,77.0,8.0,60.0,6.0,64.0
5948,53.0,56.0,60.0,10.0,64.0
5949,78.0,61.0,60.0,6.0,64.0
5950,80.0,49.0,60.0,6.0,64.0
5951,77.0,4.0,60.0,7.0,64.0
5952,73.0,6.0,60.0,8.0,64.0
5953,82.0,58.0,60.0,6.0,64.0
5954,83.0,2.0,60.0,6.0,64.0
5955,77.0,30.0,60.0,7.0,64.0
5956,49.0,75.0,90.0,10.0,64.0
5957,68.0,10.0,60.0,8.0,64.0
5958,85.0,9.0,30.0,6.0,64.0
5959,83.0,6.0,60.0,6.0,64.0
5960,49.0,40.0,60.0,10.0,64.0
5961,82.0,62.0,60.0,6.0,64.0
5962,83.0,1.0,60.0,6.0,64.0
5963,80.0,3.0,60.0,5.0,64.0
5964,49.0,1.0,60.0,10.0,64.0
5965,83.0,43.0,60.0,4.0,64.0
5966,77.0,4.0,60.0,7.0,64.0
5967,73.0,0.0,30.0,8.0,64.0
5968,80.0,75.0,30.0,6.0,64.0
5969,73.0,19.0,90.0,8.0,64.0
5970,54.0,6.0,90.0,10.0,64.0
5971,78.0,1.0,60.0,7.0,64.0
5972,82.0,6.0,120.0,4.0,64.0
5973,82.0,5.0,90.0,6.0,64.0
5974,78.0,26.0,60.0,5.0,64.0
5975,78.0,49.0,60.0,6.0,64.0
5976,73.0,4.0,60.0,6.0,64.0
5977,82.0,15.0,30.0,7.0,64.0
5978,66.0,36.0,60.0,10.0,64.0
5979,73.0,1.0,60.0,5.0,64.0
5980,76.0,69.0,60.0,6.0,64.0
5981,75.0,35.0,60.0,6.0,64.0
5982,82.0,18.0,90.0,7.0,64.0
5983,59.0,5.0,30.0,10.0,64.0
5984,75.0,3.0,90.0,5.0,64.0
5985,78.0,51.0,60.0,6.0,64.0
5986,71.0,11.0,60.0,6.0,64.0
5987,63.0,6.0,60.0,10.0,64.0
5988,71.0,7.0,30.0,8.0,64.0
5989,82.0,16.0,60.0,4.0,64.0
5990,82.0,92.0,30.0,6.0,64.0
5991,80.0,12.0,60.0,6.0,64.0
5992,71.0,18.0,60.0,8.0,64.0
5993,53.0,33.0,90.0,10.0,64.0
5994,80.0,13.0,120.0,4.0,64.0
5995,77.0,28.0,60.0,6.0,64.0
5996,71.0,15.0,60.0,6.0,64.0
5997,80.0,18.0,60.0,7.0,64.0
5998,65.0,29.0,60.0,10.0,64.0
5999,75.0,1.0,60.0,5.0,64.0
6000,75.0,66.0,60.0,6.0,64.0
6001,73.0,0.0,60.0,6.0,64.0
6002,58.0,40.0,60.0,10.0,64.0
6003,80.0,30.0,90.0,7.0,64.0
6004,73.0,7.0,90.0,5.0,64.0
6005,77.0,30.0,60.0,6.0,64.0
6006,70.0,4.0,60.0,6.0,64.0
6007,61.0,40.0,60.0,10.0,64.0
6008,80.0,3.0,60.0,4.0,64.0
6009,70.0,13.0,30.0,8.0,64.0
6010,80.0,94.0,60.0,6.0,64.0
6011,78.0,10.0,90.0,6.0,64.0
6012,70.0,12.0,90.0,8.0,64.0
6013,51.0,12.0,90.0,10.0,64.0
6014,78.0,22.0,120.0,4.0,64.0
6015,75.0,34.0,60.0,6.0,64.0
6016,70.0,8.0,60.0,6.0,64.0
6017,78.0,15.0,60.0,7.0,64.0
6018,63.0,40.0,60.0,10.0,64.0
6019,73.0,2.0,60.0,5.0,64.0
6020,73.0,65.0,60.0,6.0,64.0
6021,71.0,4.0,60.0,6.0,64.0
6022,56.0,6.0,60.0,10.0,64.0
6023,71.0,43.0,60.0,5.0,64.0
6024,78.0,6.0,90.0,7.0,64.0
6025,75.0,53.0,60.0,6.0,64.0
6026,68.0,5.0,60.0,8.0,64.0
6027,68.0,11.0,60.0,6.0,64.0
6028,59.0,7.0,60.0,10.0,64.0
6029,75.0,0.0,60.0,5.0,64.0
6030,78.0,23.0,60.0,4.0,64.0
6031,78.0,64.0,30.0,6.0,64.0
6032,68.0,6.0,60.0,8.0,64.0
6033,77.0,1.0,90.0,6.0,64.0
6034,49.0,0.0,1980.0,10.0,64.0
6035,73.0,7.0,60.0,5.0,64.0
6036,92.0,8.0,60.0,0.0,64.0
6037,77.0,5.0,60.0,4.0,64.0
6038,85.0,1.0,60.0,2.0,64.0
6039,97.0,3.0,60.0,1.0,64.0
6040,49.0,27.0,20.0,3.0,64.0
6041,49.0,0.0,20.0,3.0,64.0
6042,80.0,3.0,60.0,6.0,64.0
6043,49.0,22.0,20.0,3.0,64.0
6044,49.0,33.0,20.0,3.0,64.0
6045,73.0,8.0,30.0,6.0,64.0
6046,71.0,1.0,60.0,8.0,64.0
6047,80.0,10.0,60.0,7.0,64.0
6048,77.0,22.0,60.0,5.0,64.0
6049,80.0,5.0,60.0,4.0,64.0
6050,49.0,12.0,20.0,3.0,64.0
6051,49.0,0.0,15.0,3.0,64.0
6052,77.0,4.0,30.0,6.0,64.0
6053,49.0,15.0,20.0,3.0,64.0
6054,49.0,39.0,15.0,3.0,64.0
6055,70.0,5.0,60.0,8.0,64.0
6056,78.0,6.0,60.0,6.0,64.0
6057,73.0,2.0,60.0,7.0,64.0
6058,78.0,9.0,60.0,4.0,64.0
6059,49.0,21.0,20.0,3.0,64.0
6060,73.0,5.0,60.0,5.0,64.0
6061,94.0,17.0,60.0,0.0,64.0
6062,90.0,3.0,60.0,1.0,64.0
6063,85.0,0.0,60.0,2.0,64.0
6064,49.0,7.0,15.0,3.0,64.0
6065,82.0,40.0,60.0,6.0,64.0
6066,49.0,18.0,30.0,3.0,64.0
6067,66.0,3.0,60.0,8.0,64.0
6068,82.0,6.0,60.0,7.0,64.0
6069,73.0,4.0,60.0,6.0,64.0
6070,49.0,11.0,30.0,3.0,64.0
6071,82.0,6.0,60.0,4.0,64.0
6072,78.0,27.0,60.0,5.0,64.0
6073,78.0,4.0,30.0,6.0,64.0
6074,49.0,58.0,30.0,3.0,64.0
6075,73.0,1.0,60.0,8.0,64.0
6076,49.0,25.0,30.0,3.0,64.0
6077,77.0,12.0,60.0,7.0,64.0
6078,80.0,4.0,60.0,4.0,64.0
6079,77.0,0.0,60.0,5.0,64.0
6080,80.0,2.0,60.0,6.0,64.0
6081,95.0,3.0,90.0,0.0,64.0
6082,92.0,2.0,60.0,1.0,64.0
6083,85.0,20.0,60.0,2.0,64.0
6084,49.0,14.0,30.0,3.0,64.0
6085,83.0,19.0,60.0,6.0,64.0
6086,65.0,16.0,90.0,8.0,64.0
6087,49.0,34.0,20.0,3.0,64.0
6088,73.0,4.0,60.0,6.0,64.0
6089,80.0,14.0,60.0,5.0,64.0
6090,80.0,1.0,60.0,7.0,64.0
6091,83.0,1.0,60.0,4.0,64.0
6092,49.0,3.0,20.0,3.0,64.0
6093,49.0,1.0,15.0,3.0,64.0
6094,80.0,21.0,30.0,6.0,64.0
6095,49.0,21.0,20.0,3.0,64.0
6096,66.0,2.0,60.0,8.0,64.0
6097,49.0,35.0,15.0,3.0,64.0
6098,73.0,10.0,30.0,7.0,64.0
6099,82.0,6.0,60.0,6.0,64.0
6100,78.0,10.0,60.0,5.0,64.0
6101,90.0,3.0,90.0,1.0,64.0
6102,82.0,2.0,60.0,4.0,64.0
6103,85.0,25.0,60.0,2.0,64.0
6104,94.0,2.0,60.0,0.0,64.0
6105,49.0,4.0,30.0,3.0,64.0
6106,85.0,24.0,60.0,6.0,64.0
6107,49.0,36.0,30.0,3.0,64.0
6108,78.0,4.0,60.0,6.0,64.0
6109,70.0,1.0,60.0,8.0,64.0
6110,70.0,4.0,60.0,5.0,64.0
6111,73.0,7.0,60.0,7.0,64.0
6112,85.0,8.0,60.0,4.0,64.0
6113,49.0,11.0,30.0,3.0,64.0
6114,82.0,32.0,30.0,6.0,64.0
6115,49.0,21.0,20.0,3.0,64.0
6116,77.0,0.0,60.0,6.0,64.0
6117,73.0,1.0,60.0,5.0,64.0
6118,49.0,35.0,15.0,3.0,64.0
6119,68.0,4.0,60.0,8.0,64.0
6120,77.0,9.0,60.0,4.0,64.0
6121,73.0,3.0,540.0,7.0,64.0
6122,92.0,5.0,60.0,0.0,64.0
6123,97.0,2.0,60.0,1.0,64.0
6124,85.0,16.0,60.0,2.0,64.0
6125,49.0,13.0,20.0,3.0,64.0
6126,80.0,9.0,60.0,6.0,64.0
6127,49.0,6.0,20.0,3.0,64.0
6128,49.0,27.0,30.0,3.0,64.0
6129,73.0,2.0,60.0,6.0,64.0
6130,77.0,19.0,60.0,5.0,64.0
6131,71.0,5.0,60.0,8.0,64.0
6132,49.0,33.0,20.0,3.0,64.0
6133,80.0,2.0,60.0,4.0,64.0
6134,49.0,2.0,20.0,3.0,64.0
6135,77.0,16.0,60.0,6.0,64.0
6136,49.0,16.0,20.0,3.0,64.0
6137,49.0,29.0,20.0,3.0,64.0
6138,80.0,5.0,60.0,6.0,64.0
6139,65.0,3.0,60.0,8.0,64.0
6140,80.0,12.0,60.0,5.0,64.0
6141,73.0,2.0,60.0,4.0,64.0
6142,97.0,11.0,60.0,0.0,64.0
6143,92.0,1.0,60.0,1.0,64.0
6144,49.0,24.0,15.0,3.0,64.0
6145,85.0,3.0,60.0,2.0,64.0
6146,49.0,1.0,20.0,3.0,64.0
6147,83.0,6.0,60.0,6.0,64.0
6148,49.0,28.0,20.0,3.0,64.0
6149,82.0,6.0,90.0,6.0,64.0
6150,49.0,27.0,20.0,3.0,64.0
6151,61.0,5.0,60.0,8.0,64.0
6152,85.0,0.0,60.0,5.0,64.0
6153,77.0,4.0,60.0,4.0,64.0
6154,49.0,23.0,15.0,3.0,64.0
6155,80.0,55.0,60.0,6.0,64.0
6156,49.0,25.0,20.0,3.0,64.0
6157,49.0,6.0,15.0,3.0,64.0
6158,49.0,21.0,30.0,3.0,64.0
6159,82.0,4.0,60.0,6.0,64.0
6160,82.0,8.0,60.0,5.0,64.0
6161,66.0,13.0,420.0,8.0,64.0
6162,90.0,13.0,90.0,1.0,64.0
6163,78.0,1.0,60.0,4.0,64.0
6164,94.0,9.0,60.0,0.0,64.0
6165,85.0,4.0,60.0,2.0,64.0
6166,78.0,34.0,60.0,6.0,64.0
6167,49.0,12.0,30.0,3.0,64.0
6168,75.0,1.0,60.0,6.0,64.0
6169,82.0,4.0,60.0,7.0,64.0
6170,78.0,9.0,60.0,5.0,64.0
6171,49.0,21.0,20.0,3.0,64.0
6172,75.0,28.0,60.0,4.0,64.0
6173,49.0,3.0,15.0,3.0,64.0
6174,78.0,31.0,90.0,6.0,64.0
6175,49.0,26.0,20.0,3.0,64.0
6176,49.0,7.0,15.0,3.0,64.0
6177,72.0,1.0,60.0,6.0,64.0
6178,75.0,2.0,60.0,7.0,64.0
6179,75.0,12.0,60.0,5.0,64.0
6180,72.0,8.0,60.0,4.0,64.0
6181,90.0,2.0,60.0,1.0,64.0
6182,78.0,15.0,60.0,2.0,64.0
6183,96.0,9.0,60.0,0.0,64.0
6184,49.0,15.0,20.0,3.0,64.0
6185,82.0,14.0,60.0,6.0,64.0
6186,49.0,2.0,20.0,3.0,64.0
6187,49.0,7.0,20.0,3.0,64.0
6188,80.0,12.0,60.0,6.0,64.0
6189,49.0,33.0,15.0,3.0,64.0
6190,84.0,0.0,60.0,5.0,64.0
6191,84.0,10.0,30.0,7.0,64.0
6192,75.0,2.0,60.0,4.0,64.0
6193,49.0,11.0,30.0,3.0,64.0
6194,78.0,20.0,30.0,6.0,64.0
6195,49.0,47.0,30.0,3.0,64.0
6196,77.0,7.0,60.0,6.0,64.0
6197,97.0,51.0,90.0,0.0,64.0
6198,68.0,11.0,270.0,8.0,64.0
6199,85.0,5.0,150.0,5.0,64.0
6200,85.0,3.0,60.0,2.0,64.0
6201,77.0,4.0,150.0,4.0,64.0
6202,49.0,25.0,20.0,3.0,64.0
6203,92.0,4.0,60.0,1.0,64.0
6204,85.0,5.0,240.0,7.0,64.0
6205,78.0,21.0,90.0,6.0,64.0
6206,77.0,18.0,60.0,6.0,64.0
6207,51.0,2.0,60.0,10.0,64.0
6208,85.0,0.0,30.0,2.0,64.0
6209,85.0,24.0,30.0,0.0,64.0
6210,85.0,1.0,20.0,1.0,64.0
6211,75.0,29.0,60.0,6.0,64.0
6212,85.0,6.0,30.0,1.0,64.0
6213,85.0,4.0,30.0,2.0,64.0
6214,85.0,18.0,30.0,0.0,64.0
6215,73.0,52.0,60.0,6.0,64.0
6216,85.0,6.0,30.0,1.0,64.0
6217,85.0,0.0,30.0,2.0,64.0
6218,53.0,8.0,60.0,10.0,64.0
6219,85.0,7.0,30.0,0.0,64.0
6220,71.0,52.0,60.0,6.0,64.0
6221,70.0,2.0,60.0,6.0,64.0
6222,49.0,32.0,60.0,10.0,64.0
6223,85.0,5.0,30.0,1.0,64.0
6224,85.0,0.0,30.0,2.0,64.0
6225,85.0,3.0,30.0,0.0,64.0
6226,68.0,98.0,30.0,6.0,64.0
6227,73.0,4.0,180.0,7.0,64.0
6228,85.0,6.0,120.0,2.0,64.0
6229,73.0,33.0,1200.0,5.0,64.0
6230,46.0,25.0,270.0,10.0,64.0
6231,85.0,25.0,120.0,1.0,64.0
6232,67.0,69.0,60.0,6.0,64.0
6233,85.0,12.0,150.0,0.0,64.0
6234,73.0,5.0,60.0,6.0,64.0
6235,63.0,14.0,60.0,8.0,64.0
6236,75.0,38.0,60.0,6.0,64.0
6237,65.0,5.0,60.0,8.0,64.0
6238,73.0,29.0,60.0,6.0,64.0
6239,75.0,67.0,90.0,6.0,64.0
6240,67.0,19.0,60.0,8.0,64.0
6241,82.0,46.0,240.0,7.0,64.0
6242,73.0,34.0,90.0,6.0,64.0
6243,67.0,13.0,60.0,8.0,64.0
6244,75.0,38.0,60.0,6.0,64.0
6245,68.0,12.0,60.0,8.0,64.0
6246,73.0,23.0,60.0,6.0,64.0
6247,70.0,18.0,60.0,8.0,64.0
6248,67.0,48.0,90.0,6.0,64.0
6249,51.0,3.0,270.0,10.0,64.0
6250,73.0,44.0,60.0,6.0,64.0
6251,75.0,20.0,90.0,6.0,64.0
6252,67.0,30.0,60.0,8.0,64.0
6253,68.0,34.0,60.0,8.0,64.0
6254,73.0,25.0,60.0,6.0,64.0
6255,70.0,36.0,60.0,8.0,64.0
6256,75.0,58.0,60.0,6.0,64.0
6257,79.0,43.0,240.0,7.0,64.0
6258,73.0,35.0,60.0,6.0,64.0
6259,70.0,21.0,60.0,8.0,64.0
6260,75.0,22.0,60.0,6.0,64.0
6261,71.0,14.0,60.0,8.0,64.0
6262,73.0,23.0,60.0,6.0,64.0
6263,73.0,25.0,60.0,8.0,64.0
6264,67.0,64.0,60.0,6.0,64.0
6265,73.0,30.0,90.0,6.0,64.0
6266,51.0,29.0,60.0,10.0,64.0
6267,73.0,4.0,60.0,8.0,64.0
6268,75.0,9.0,60.0,6.0,64.0
6269,72.0,25.0,60.0,8.0,64.0
6270,76.0,17.0,90.0,6.0,64.0
6271,73.0,5.0,60.0,8.0,64.0
6272,55.0,12.0,60.0,10.0,64.0
6273,75.0,72.0,240.0,7.0,64.0
6274,75.0,66.0,60.0,6.0,64.0
6275,70.0,5.0,210.0,5.0,64.0
6276,73.0,40.0,60.0,6.0,64.0
6277,75.0,17.0,60.0,8.0,64.0
6278,51.0,6.0,60.0,10.0,64.0
6279,72.0,22.0,60.0,6.0,64.0
6280,73.0,4.0,60.0,8.0,64.0
6281,70.0,22.0,60.0,6.0,64.0
6282,72.0,1.0,1410.0,5.0,64.0
6283,72.0,31.0,180.0,8.0,64.0
6284,66.0,51.0,60.0,6.0,64.0
6285,56.0,28.0,270.0,10.0,64.0
6286,78.0,8.0,1170.0,4.0,64.0
6287,72.0,59.0,60.0,6.0,64.0
6288,75.0,2.0,60.0,6.0,64.0
6289,68.0,7.0,60.0,7.0,64.0
6290,70.0,20.0,60.0,7.0,64.0
6291,72.0,23.0,60.0,6.0,64.0
6292,72.0,10.0,60.0,7.0,64.0
6293,75.0,56.0,60.0,6.0,64.0
6294,68.0,47.0,240.0,8.0,64.0
6295,72.0,49.0,60.0,6.0,64.0
6296,75.0,22.0,60.0,6.0,64.0
6297,72.0,15.0,60.0,7.0,64.0
6298,72.0,16.0,30.0,6.0,64.0
6299,73.0,35.0,60.0,7.0,64.0
6300,75.0,4.0,60.0,7.0,64.0
6301,66.0,41.0,60.0,6.0,64.0
6302,44.0,28.0,240.0,10.0,64.0
6303,72.0,66.0,60.0,6.0,64.0
6304,75.0,56.0,60.0,6.0,64.0
6305,72.0,4.0,60.0,7.0,64.0
6306,72.0,26.0,90.0,6.0,64.0
6307,73.0,5.0,60.0,7.0,64.0
6308,75.0,51.0,90.0,6.0,64.0
6309,75.0,10.0,60.0,7.0,64.0
6310,72.0,25.0,270.0,8.0,64.0
6311,72.0,64.0,60.0,6.0,64.0
6312,75.0,25.0,90.0,6.0,64.0
6313,75.0,2.0,60.0,7.0,64.0
6314,72.0,9.0,60.0,6.0,64.0
6315,77.0,52.0,60.0,7.0,64.0
6316,66.0,60.0,60.0,6.0,64.0
6317,78.0,8.0,60.0,7.0,64.0
6318,72.0,48.0,90.0,6.0,64.0
6319,75.0,14.0,90.0,6.0,64.0
6320,78.0,3.0,60.0,7.0,64.0
6321,44.0,14.0,60.0,10.0,64.0
6322,73.0,56.0,90.0,6.0,64.0
6323,77.0,29.0,30.0,7.0,64.0
6324,72.0,7.0,90.0,6.0,64.0
6325,78.0,35.0,60.0,7.0,64.0
6326,75.0,32.0,240.0,4.0,64.0
6327,56.0,1.0,60.0,10.0,64.0
6328,75.0,40.0,240.0,8.0,64.0
6329,70.0,66.0,60.0,6.0,64.0
6330,68.0,9.0,60.0,6.0,64.0
6331,77.0,18.0,60.0,7.0,64.0
6332,48.0,1.0,60.0,10.0,64.0
6333,66.0,16.0,30.0,6.0,64.0
6334,75.0,11.0,60.0,7.0,64.0
6335,65.0,68.0,60.0,6.0,64.0
6336,77.0,4.0,180.0,7.0,64.0
6337,77.0,24.0,1440.0,4.0,64.0
6338,49.0,41.0,240.0,10.0,64.0
6339,71.0,2.0,1170.0,5.0,64.0
6340,71.0,54.0,90.0,6.0,64.0
6341,73.0,0.0,60.0,6.0,64.0
6342,61.0,43.0,60.0,8.0,64.0
6343,85.0,10.0,90.0,0.0,64.0
6344,71.0,9.0,60.0,6.0,64.0
6345,63.0,2.0,60.0,8.0,64.0
6346,73.0,41.0,60.0,6.0,64.0
6347,65.0,18.0,60.0,8.0,64.0
6348,80.0,37.0,240.0,7.0,64.0
6349,85.0,18.0,90.0,0.0,64.0
6350,71.0,48.0,60.0,6.0,64.0
6351,65.0,11.0,60.0,8.0,64.0
6352,73.0,39.0,60.0,6.0,64.0
6353,85.0,1.0,90.0,0.0,64.0
6354,66.0,0.0,60.0,8.0,64.0
6355,71.0,40.0,60.0,6.0,64.0
6356,68.0,31.0,60.0,8.0,64.0
6357,65.0,10.0,60.0,6.0,64.0
6358,85.0,30.0,90.0,0.0,64.0
6359,61.0,40.0,240.0,10.0,64.0
6360,71.0,59.0,90.0,6.0,64.0
6361,73.0,28.0,60.0,6.0,64.0
6362,85.0,4.0,90.0,0.0,64.0
6363,65.0,3.0,60.0,8.0,64.0
6364,85.0,3.0,90.0,1.0,64.0
6365,71.0,23.0,60.0,6.0,64.0
6366,66.0,12.0,60.0,8.0,64.0
6367,73.0,28.0,60.0,6.0,64.0
6368,68.0,2.0,60.0,8.0,64.0
6369,85.0,9.0,90.0,0.0,64.0
6370,85.0,22.0,90.0,1.0,64.0
6371,77.0,42.0,240.0,7.0,64.0
6372,71.0,49.0,60.0,6.0,64.0
6373,73.0,19.0,60.0,6.0,64.0
6374,85.0,16.0,90.0,0.0,64.0
6375,85.0,18.0,90.0,1.0,64.0
6376,68.0,9.0,60.0,8.0,64.0
6377,71.0,6.0,60.0,6.0,64.0
6378,70.0,13.0,60.0,8.0,64.0
6379,65.0,41.0,60.0,6.0,64.0
6380,85.0,3.0,90.0,0.0,64.0
6381,71.0,2.0,60.0,8.0,64.0
6382,85.0,37.0,90.0,1.0,64.0
6383,71.0,35.0,90.0,6.0,64.0
6384,73.0,6.0,90.0,6.0,64.0
6385,92.0,1.0,90.0,0.0,64.0
6386,49.0,11.0,60.0,10.0,64.0
6387,85.0,22.0,90.0,2.0,64.0
6388,71.0,9.0,60.0,8.0,64.0
6389,49.0,6.0,30.0,3.0,64.0
6390,85.0,5.0,60.0,1.0,64.0
6391,70.0,29.0,60.0,8.0,64.0
6392,75.0,22.0,90.0,6.0,64.0
6393,92.0,1.0,90.0,0.0,64.0
6394,85.0,9.0,60.0,1.0,64.0
6395,71.0,10.0,60.0,8.0,64.0
6396,73.0,12.0,90.0,6.0,64.0
6397,49.0,4.0,30.0,3.0,64.0
6398,85.0,32.0,90.0,2.0,64.0
6399,53.0,14.0,60.0,10.0,64.0
6400,73.0,10.0,240.0,7.0,64.0
6401,68.0,1.0,210.0,5.0,64.0
6402,71.0,26.0,60.0,6.0,64.0
6403,92.0,4.0,60.0,1.0,64.0
6404,70.0,11.0,60.0,6.0,64.0
6405,49.0,21.0,30.0,3.0,64.0
6406,97.0,7.0,90.0,0.0,64.0
6407,85.0,11.0,90.0,2.0,64.0
6408,49.0,2.0,60.0,10.0,64.0
6409,73.0,9.0,60.0,8.0,64.0
6410,71.0,16.0,60.0,8.0,64.0
6411,68.0,2.0,30.0,6.0,64.0
6412,90.0,7.0,90.0,1.0,64.0
6413,64.0,24.0,60.0,6.0,64.0
6414,85.0,10.0,120.0,2.0,64.0
6415,54.0,25.0,30.0,3.0,64.0
6416,94.0,9.0,90.0,0.0,64.0
6417,70.0,6.0,180.0,8.0,64.0
6418,70.0,6.0,1410.0,5.0,64.0
6419,54.0,3.0,240.0,10.0,64.0
6420,76.0,2.0,1050.0,4.0,64.0
6421,54.0,13.0,20.0,3.0,64.0
6422,70.0,30.0,60.0,6.0,64.0
6423,54.0,0.0,20.0,3.0,64.0
6424,54.0,2.0,15.0,3.0,64.0
6425,73.0,3.0,60.0,6.0,64.0
6426,66.0,5.0,60.0,7.0,64.0
6427,82.0,3.0,90.0,0.0,64.0
6428,73.0,6.0,90.0,2.0,64.0
6429,78.0,4.0,90.0,1.0,64.0
6430,54.0,29.0,20.0,3.0,64.0
6431,54.0,9.0,20.0,3.0,64.0
6432,70.0,36.0,60.0,6.0,64.0
6433,68.0,7.0,60.0,7.0,64.0
6434,54.0,13.0,15.0,3.0,64.0
6435,54.0,15.0,30.0,3.0,64.0
6436,70.0,8.0,60.0,7.0,64.0
6437,73.0,14.0,60.0,6.0,64.0
6438,73.0,1.0,90.0,2.0,64.0
6439,82.0,1.0,90.0,0.0,64.0
6440,78.0,5.0,90.0,1.0,64.0
6441,66.0,4.0,240.0,8.0,64.0
6442,70.0,15.0,60.0,6.0,64.0
6443,54.0,20.0,20.0,3.0,64.0
6444,54.0,19.0,15.0,3.0,64.0
6445,73.0,17.0,60.0,6.0,64.0
6446,54.0,31.0,15.0,3.0,64.0
6447,85.0,5.0,90.0,0.0,64.0
6448,78.0,1.0,90.0,2.0,64.0
6449,70.0,9.0,60.0,7.0,64.0
6450,82.0,13.0,90.0,1.0,64.0
6451,54.0,7.0,20.0,3.0,64.0
6452,71.0,10.0,60.0,7.0,64.0
6453,70.0,1.0,60.0,6.0,64.0
6454,54.0,1.0,20.0,3.0,64.0
6455,54.0,29.0,20.0,3.0,64.0
6456,64.0,17.0,90.0,6.0,64.0
6457,73.0,8.0,60.0,7.0,64.0
6458,54.0,33.0,20.0,3.0,64.0
6459,85.0,5.0,90.0,0.0,64.0
6460,78.0,15.0,90.0,2.0,64.0
6461,82.0,2.0,90.0,1.0,64.0
6462,42.0,20.0,240.0,10.0,64.0
6463,54.0,7.0,20.0,3.0,64.0
6464,70.0,7.0,60.0,6.0,64.0
6465,54.0,1.0,20.0,3.0,64.0
6466,54.0,31.0,20.0,3.0,64.0
6467,73.0,15.0,60.0,6.0,64.0
6468,82.0,1.0,90.0,2.0,64.0
6469,90.0,7.0,90.0,0.0,64.0
6470,70.0,4.0,60.0,7.0,64.0
6471,85.0,3.0,90.0,1.0,64.0
6472,54.0,25.0,20.0,3.0,64.0
6473,54.0,5.0,20.0,3.0,64.0
6474,70.0,12.0,60.0,6.0,64.0
6475,71.0,5.0,60.0,7.0,64.0
6476,54.0,19.0,20.0,3.0,64.0
6477,54.0,11.0,20.0,3.0,64.0
6478,73.0,6.0,60.0,6.0,64.0
6479,73.0,7.0,60.0,7.0,64.0
6480,82.0,6.0,90.0,2.0,64.0
6481,70.0,22.0,270.0,8.0,64.0
6482,90.0,1.0,90.0,0.0,64.0
6483,85.0,0.0,90.0,1.0,64.0
6484,54.0,16.0,20.0,3.0,64.0
6485,70.0,2.0,90.0,6.0,64.0
6486,54.0,24.0,20.0,3.0,64.0
6487,54.0,27.0,20.0,3.0,64.0
6488,54.0,30.0,20.0,3.0,64.0
6489,73.0,4.0,60.0,6.0,64.0
6490,85.0,11.0,90.0,2.0,64.0
6491,94.0,3.0,90.0,0.0,64.0
6492,90.0,1.0,60.0,1.0,64.0
6493,73.0,2.0,60.0,7.0,64.0
6494,54.0,30.0,20.0,3.0,64.0
6495,70.0,4.0,60.0,6.0,64.0
6496,54.0,9.0,20.0,3.0,64.0
6497,75.0,29.0,30.0,7.0,64.0
6498,54.0,4.0,20.0,3.0,64.0
6499,54.0,8.0,15.0,3.0,64.0
6500,85.0,15.0,90.0,2.0,64.0
6501,64.0,5.0,60.0,6.0,64.0
6502,94.0,7.0,90.0,0.0,64.0
6503,76.0,13.0,60.0,7.0,64.0
6504,90.0,1.0,60.0,1.0,64.0
6505,54.0,14.0,20.0,3.0,64.0
6506,70.0,4.0,90.0,6.0,64.0
6507,54.0,9.0,20.0,3.0,64.0
6508,54.0,28.0,20.0,3.0,64.0
6509,94.0,5.0,60.0,1.0,64.0
6510,54.0,11.0,60.0,10.0,64.0
6511,73.0,24.0,120.0,4.0,64.0
6512,73.0,1.0,90.0,6.0,64.0
6513,90.0,1.0,90.0,2.0,64.0
6514,54.0,32.0,15.0,3.0,64.0
6515,97.0,8.0,60.0,0.0,64.0
6516,76.0,3.0,60.0,7.0,64.0
6517,54.0,4.0,20.0,3.0,64.0
6518,75.0,10.0,60.0,7.0,64.0
6519,71.0,15.0,90.0,6.0,64.0
6520,54.0,14.0,20.0,3.0,64.0
6521,54.0,37.0,60.0,3.0,64.0
6522,42.0,6.0,90.0,10.0,64.0
6523,70.0,8.0,90.0,6.0,64.0
6524,76.0,0.0,60.0,7.0,64.0
6525,90.0,14.0,90.0,2.0,64.0
6526,94.0,2.0,90.0,1.0,64.0
6527,97.0,3.0,60.0,0.0,64.0
6528,70.0,15.0,90.0,4.0,64.0
6529,73.0,3.0,180.0,8.0,64.0
6530,54.0,6.0,30.0,3.0,64.0
6531,68.0,24.0,60.0,6.0,64.0
6532,54.0,25.0,30.0,3.0,64.0
6533,66.0,7.0,60.0,6.0,64.0
6534,94.0,4.0,90.0,2.0,64.0
6535,46.0,7.0,60.0,10.0,64.0
6536,102.0,4.0,60.0,0.0,64.0
6537,97.0,1.0,60.0,1.0,64.0
6538,66.0,35.0,90.0,4.0,64.0
6539,75.0,1.0,60.0,7.0,64.0
6540,54.0,10.0,30.0,3.0,64.0
6541,64.0,2.0,30.0,6.0,64.0
6542,73.0,6.0,30.0,7.0,64.0
6543,54.0,51.0,30.0,3.0,64.0
6544,99.0,4.0,120.0,1.0,64.0
6545,63.0,50.0,60.0,6.0,64.0
6546,47.0,3.0,60.0,10.0,64.0
6547,95.0,0.0,120.0,2.0,64.0
6548,102.0,6.0,120.0,0.0,64.0
6549,66.0,19.0,150.0,5.0,64.0
6550,75.0,3.0,240.0,7.0,64.0
6551,75.0,16.0,150.0,4.0,64.0
6552,66.0,42.0,240.0,8.0,64.0
6553,59.0,17.0,90.0,6.0,64.0
6554,46.0,34.0,60.0,10.0,64.0
6555,61.0,0.0,60.0,6.0,64.0
6556,64.0,37.0,30.0,6.0,64.0
6557,63.0,14.0,60.0,6.0,64.0
6558,47.0,16.0,60.0,10.0,64.0
6559,66.0,81.0,30.0,6.0,64.0
6560,65.0,13.0,60.0,6.0,64.0
6561,49.0,23.0,60.0,10.0,64.0
6562,68.0,98.0,30.0,6.0,64.0
6563,66.0,64.0,60.0,6.0,64.0
6564,51.0,3.0,60.0,10.0,64.0
6565,63.0,56.0,90.0,6.0,64.0
6566,65.0,2.0,90.0,6.0,64.0
6567,49.0,29.0,60.0,10.0,64.0
6568,68.0,87.0,60.0,6.0,64.0
6569,66.0,4.0,60.0,6.0,64.0
6570,51.0,33.0,60.0,10.0,64.0
6571,70.0,81.0,60.0,6.0,64.0
6572,68.0,6.0,60.0,6.0,64.0
6573,53.0,19.0,60.0,10.0,64.0
6574,71.0,105.0,30.0,6.0,64.0
6575,70.0,1.0,90.0,6.0,64.0
6576,54.0,51.0,60.0,10.0,64.0
6577,66.0,46.0,60.0,6.0,64.0
6578,68.0,14.0,60.0,6.0,64.0
6579,53.0,26.0,60.0,10.0,64.0
6580,71.0,88.0,30.0,6.0,64.0
6581,70.0,1.0,60.0,6.0,64.0
6582,54.0,26.0,60.0,10.0,64.0
6583,73.0,99.0,30.0,6.0,64.0
6584,71.0,1.0,90.0,6.0,64.0
6585,56.0,16.0,60.0,10.0,64.0
6586,75.0,105.0,30.0,6.0,64.0
6587,73.0,4.0,60.0,6.0,64.0
6588,58.0,47.0,60.0,10.0,64.0
6589,66.0,55.0,60.0,6.0,64.0
6590,70.0,21.0,60.0,6.0,64.0
6591,56.0,22.0,90.0,10.0,64.0
6592,73.0,85.0,60.0,6.0,64.0
6593,58.0,52.0,90.0,10.0,64.0
6594,78.0,6.0,60.0,6.0,64.0
6595,82.0,56.0,60.0,6.0,64.0
6596,59.0,19.0,90.0,10.0,64.0
6597,80.0,21.0,60.0,6.0,64.0
6598,78.0,95.0,30.0,6.0,64.0
6599,77.0,29.0,60.0,6.0,64.0
6600,61.0,72.0,90.0,10.0,64.0
6601,61.0,8.0,90.0,10.0,64.0
6602,80.0,2.0,60.0,5.0,64.0
6603,73.0,3.0,60.0,6.0,64.0
6604,49.0,2.0,60.0,3.0,64.0
6605,80.0,6.0,60.0,7.0,64.0
6606,73.0,2.0,60.0,4.0,64.0
6607,65.0,28.0,60.0,8.0,64.0
6608,75.0,17.0,60.0,6.0,64.0
6609,75.0,3.0,60.0,4.0,64.0
6610,66.0,51.0,60.0,8.0,64.0
6611,77.0,5.0,60.0,6.0,64.0
6612,61.0,6.0,90.0,10.0,64.0
6613,77.0,1.0,60.0,4.0,64.0
6614,85.0,31.0,120.0,2.0,64.0
6615,92.0,12.0,90.0,1.0,64.0
6616,85.0,3.0,90.0,0.0,64.0
6617,73.0,15.0,60.0,5.0,64.0
6618,49.0,1.0,60.0,3.0,64.0
6619,68.0,20.0,60.0,8.0,64.0
6620,73.0,0.0,30.0,7.0,64.0
6621,70.0,12.0,60.0,8.0,64.0
6622,77.0,11.0,60.0,6.0,64.0
6623,61.0,15.0,90.0,10.0,64.0
6624,68.0,23.0,60.0,8.0,64.0
6625,49.0,11.0,60.0,3.0,64.0
6626,77.0,0.0,150.0,7.0,64.0
6627,77.0,2.0,60.0,4.0,64.0
6628,77.0,4.0,180.0,5.0,64.0
6629,78.0,1.0,30.0,6.0,64.0
6630,70.0,6.0,60.0,8.0,64.0
6631,78.0,59.0,60.0,4.0,64.0
6632,80.0,12.0,60.0,6.0,64.0
6633,61.0,1.0,90.0,10.0,64.0
6634,71.0,3.0,60.0,8.0,64.0
6635,85.0,8.0,60.0,0.0,64.0
6636,49.0,1.0,30.0,3.0,64.0
6637,80.0,14.0,60.0,4.0,64.0
6638,85.0,13.0,90.0,2.0,64.0
6639,92.0,2.0,90.0,1.0,64.0
6640,68.0,47.0,60.0,8.0,64.0
6641,77.0,11.0,60.0,6.0,64.0
6642,61.0,16.0,90.0,10.0,64.0
6643,80.0,7.0,30.0,7.0,64.0
6644,61.0,4.0,60.0,8.0,64.0
6645,80.0,11.0,60.0,5.0,64.0
6646,49.0,6.0,30.0,3.0,64.0
6647,77.0,14.0,60.0,4.0,64.0
6648,78.0,15.0,60.0,6.0,64.0
6649,63.0,6.0,60.0,8.0,64.0
6650,78.0,38.0,60.0,4.0,64.0
6651,80.0,10.0,60.0,6.0,64.0
6652,71.0,1.0,30.0,7.0,64.0
6653,97.0,9.0,90.0,1.0,64.0
6654,61.0,11.0,60.0,10.0,64.0
6655,80.0,2.0,90.0,0.0,64.0
6656,65.0,2.0,60.0,8.0,64.0
6657,85.0,11.0,90.0,2.0,64.0
6658,71.0,7.0,60.0,5.0,64.0
6659,80.0,2.0,60.0,4.0,64.0
6660,49.0,8.0,30.0,3.0,64.0
6661,66.0,63.0,30.0,8.0,64.0
6662,77.0,2.0,180.0,7.0,64.0
6663,61.0,20.0,90.0,10.0,64.0
6664,80.0,3.0,60.0,6.0,64.0
6665,65.0,20.0,60.0,8.0,64.0
6666,80.0,5.0,60.0,4.0,64.0
6667,49.0,4.0,30.0,3.0,64.0
6668,77.0,9.0,180.0,5.0,64.0
6669,82.0,2.0,60.0,6.0,64.0
6670,82.0,2.0,30.0,4.0,64.0
6671,66.0,66.0,60.0,8.0,64.0
6672,83.0,8.0,60.0,6.0,64.0
6673,61.0,1.0,90.0,10.0,64.0
6674,83.0,8.0,60.0,4.0,64.0
6675,85.0,13.0,90.0,2.0,64.0
6676,68.0,5.0,60.0,8.0,64.0
6677,80.0,3.0,90.0,0.0,64.0
6678,97.0,6.0,90.0,1.0,64.0
6679,49.0,3.0,30.0,3.0,64.0
6680,66.0,52.0,60.0,8.0,64.0
6681,65.0,18.0,60.0,8.0,64.0
6682,83.0,1.0,30.0,4.0,64.0
6683,56.0,15.0,90.0,10.0,64.0
6684,80.0,10.0,60.0,5.0,64.0
6685,80.0,8.0,30.0,7.0,64.0
6686,83.0,2.0,60.0,6.0,64.0
6687,49.0,1.0,30.0,3.0,64.0
6688,82.0,5.0,30.0,6.0,64.0
6689,66.0,63.0,60.0,8.0,64.0
6690,82.0,4.0,60.0,4.0,64.0
6691,83.0,1.0,90.0,4.0,64.0
6692,53.0,15.0,90.0,10.0,64.0
6693,68.0,5.0,60.0,8.0,64.0
6694,83.0,2.0,60.0,6.0,64.0
6695,83.0,2.0,90.0,0.0,64.0
6696,73.0,5.0,60.0,7.0,64.0
6697,73.0,6.0,60.0,5.0,64.0
6698,85.0,35.0,90.0,2.0,64.0
6699,49.0,9.0,30.0,3.0,64.0
6700,92.0,0.0,90.0,1.0,64.0
6701,66.0,42.0,60.0,8.0,64.0
6702,65.0,15.0,60.0,8.0,64.0
6703,49.0,7.0,60.0,10.0,64.0
6704,85.0,0.0,60.0,6.0,64.0
6705,77.0,1.0,60.0,5.0,64.0
6706,77.0,6.0,60.0,7.0,64.0
6707,49.0,0.0,30.0,3.0,64.0
6708,85.0,20.0,60.0,4.0,64.0
6709,63.0,1.0,60.0,8.0,64.0
6710,83.0,15.0,60.0,6.0,64.0
6711,83.0,47.0,60.0,4.0,64.0
6712,61.0,12.0,60.0,8.0,64.0
6713,82.0,3.0,60.0,6.0,64.0
6714,82.0,19.0,60.0,4.0,64.0
6715,82.0,2.0,90.0,0.0,64.0
6716,85.0,3.0,90.0,2.0,64.0
6717,78.0,5.0,90.0,7.0,64.0
6718,90.0,7.0,90.0,1.0,64.0
6719,54.0,12.0,60.0,3.0,64.0
6720,54.0,14.0,90.0,10.0,64.0
6721,78.0,5.0,60.0,5.0,64.0
6722,73.0,39.0,60.0,8.0,64.0
6723,70.0,1.0,60.0,8.0,64.0
6724,66.0,6.0,60.0,7.0,64.0
6725,85.0,12.0,30.0,6.0,64.0
6726,78.0,3.0,90.0,2.0,64.0
6727,66.0,4.0,30.0,5.0,64.0
6728,66.0,3.0,90.0,10.0,64.0
6729,85.0,37.0,60.0,4.0,64.0
6730,71.0,43.0,60.0,8.0,64.0
6731,68.0,3.0,60.0,7.0,64.0
6732,68.0,9.0,30.0,5.0,64.0
6733,70.0,2.0,60.0,7.0,64.0
6734,78.0,18.0,30.0,6.0,64.0
6735,73.0,21.0,60.0,8.0,64.0
6736,78.0,5.0,90.0,2.0,64.0
6737,66.0,56.0,90.0,10.0,64.0
6738,70.0,12.0,60.0,5.0,64.0
6739,78.0,2.0,60.0,4.0,64.0
6740,75.0,5.0,30.0,8.0,64.0
6741,73.0,31.0,60.0,8.0,64.0
6742,70.0,3.0,30.0,7.0,64.0
6743,82.0,15.0,150.0,6.0,64.0
6744,78.0,1.0,90.0,2.0,64.0
6745,66.0,61.0,90.0,10.0,64.0
6746,70.0,0.0,60.0,5.0,64.0
6747,78.0,2.0,90.0,1.0,64.0
6748,82.0,10.0,180.0,4.0,64.0
6749,54.0,12.0,20.0,3.0,64.0
6750,71.0,2.0,60.0,7.0,64.0
6751,71.0,3.0,60.0,5.0,64.0
6752,75.0,6.0,30.0,8.0,64.0
6753,54.0,0.0,20.0,3.0,64.0
6754,73.0,4.0,60.0,7.0,64.0
6755,76.0,1.0,90.0,8.0,64.0
6756,78.0,0.0,90.0,1.0,64.0
6757,73.0,23.0,60.0,5.0,64.0
6758,66.0,48.0,90.0,10.0,64.0
6759,54.0,2.0,30.0,3.0,64.0
6760,78.0,11.0,90.0,2.0,64.0
6761,73.0,2.0,30.0,8.0,64.0
6762,66.0,5.0,60.0,8.0,64.0
6763,70.0,8.0,60.0,7.0,64.0
6764,85.0,9.0,30.0,6.0,64.0
6765,78.0,2.0,90.0,1.0,64.0
6766,66.0,1.0,90.0,10.0,64.0
6767,85.0,7.0,60.0,4.0,64.0
6768,66.0,12.0,90.0,0.0,64.0
6769,78.0,5.0,90.0,2.0,64.0
6770,70.0,26.0,60.0,5.0,64.0
6771,71.0,2.0,60.0,7.0,64.0
6772,68.0,12.0,60.0,8.0,64.0
6773,71.0,30.0,60.0,5.0,64.0
6774,73.0,4.0,60.0,7.0,64.0
6775,70.0,9.0,60.0,8.0,64.0
6776,76.0,6.0,30.0,6.0,64.0
6777,66.0,7.0,90.0,10.0,64.0
6778,76.0,7.0,30.0,4.0,64.0
6779,78.0,4.0,90.0,1.0,64.0
6780,66.0,59.0,90.0,0.0,64.0
6781,73.0,24.0,60.0,5.0,64.0
6782,78.0,7.0,90.0,2.0,64.0
6783,71.0,3.0,60.0,8.0,64.0
6784,70.0,1.0,60.0,8.0,64.0
6785,66.0,4.0,90.0,10.0,64.0
6786,82.0,4.0,150.0,6.0,64.0
6787,73.0,7.0,60.0,7.0,64.0
6788,78.0,1.0,90.0,1.0,64.0
6789,66.0,21.0,90.0,0.0,64.0
6790,73.0,27.0,60.0,5.0,64.0
6791,82.0,6.0,150.0,4.0,64.0
6792,78.0,4.0,90.0,2.0,64.0
6793,54.0,5.0,30.0,3.0,64.0
6794,71.0,1.0,60.0,8.0,64.0
6795,75.0,1.0,30.0,7.0,64.0
6796,75.0,31.0,60.0,5.0,64.0
6797,54.0,2.0,30.0,3.0,64.0
6798,73.0,27.0,60.0,8.0,64.0
6799,76.0,5.0,60.0,7.0,64.0
6800,66.0,55.0,90.0,10.0,64.0
6801,54.0,17.0,30.0,3.0,64.0
6802,78.0,3.0,90.0,2.0,64.0
6803,76.0,0.0,60.0,5.0,64.0
6804,66.0,4.0,90.0,0.0,64.0
6805,78.0,1.0,90.0,1.0,64.0
6806,71.0,2.0,60.0,8.0,64.0
6807,70.0,18.0,60.0,8.0,64.0
6808,76.0,2.0,60.0,7.0,64.0
6809,85.0,9.0,30.0,6.0,64.0
6810,76.0,1.0,60.0,5.0,64.0
6811,90.0,12.0,90.0,2.0,64.0
6812,94.0,0.0,90.0,1.0,64.0
6813,61.0,1.0,90.0,10.0,64.0
6814,85.0,4.0,60.0,0.0,64.0
6815,54.0,1.0,30.0,3.0,64.0
6816,85.0,13.0,30.0,4.0,64.0
6817,71.0,2.0,60.0,8.0,64.0
6818,75.0,3.0,60.0,7.0,64.0
6819,75.0,62.0,60.0,5.0,64.0
6820,73.0,2.0,60.0,8.0,64.0
6821,76.0,9.0,60.0,7.0,64.0
6822,90.0,39.0,90.0,1.0,64.0
6823,76.0,12.0,60.0,5.0,64.0
6824,85.0,2.0,90.0,2.0,64.0
6825,90.0,0.0,60.0,0.0,64.0
6826,78.0,4.0,30.0,6.0,64.0
6827,58.0,7.0,90.0,10.0,64.0
6828,54.0,7.0,30.0,3.0,64.0
6829,78.0,6.0,60.0,4.0,64.0
6830,71.0,33.0,60.0,8.0,64.0
6831,70.0,7.0,60.0,8.0,64.0
6832,94.0,20.0,90.0,1.0,64.0
6833,82.0,12.0,60.0,6.0,64.0
6834,54.0,2.0,60.0,10.0,64.0
6835,78.0,1.0,60.0,7.0,64.0
6836,78.0,3.0,30.0,5.0,64.0
6837,90.0,0.0,60.0,2.0,64.0
6838,82.0,4.0,60.0,4.0,64.0
6839,85.0,3.0,60.0,0.0,64.0
6840,54.0,0.0,30.0,3.0,64.0
6841,76.0,3.0,60.0,7.0,64.0
6842,68.0,9.0,60.0,8.0,64.0
6843,76.0,53.0,60.0,5.0,64.0
6844,95.0,5.0,120.0,1.0,64.0
6845,83.0,5.0,60.0,6.0,64.0
6846,66.0,3.0,30.0,8.0,64.0
6847,75.0,2.0,60.0,7.0,64.0
6848,83.0,13.0,60.0,4.0,64.0
6849,75.0,37.0,60.0,5.0,64.0
6850,90.0,4.0,120.0,2.0,64.0
6851,59.0,4.0,90.0,10.0,64.0
6852,54.0,1.0,30.0,3.0,64.0
6853,87.0,37.0,120.0,0.0,64.0
6854,63.0,8.0,60.0,8.0,64.0
6855,68.0,1.0,60.0,8.0,64.0
6856,87.0,9.0,30.0,6.0,64.0
6857,87.0,6.0,60.0,4.0,64.0
6858,71.0,48.0,60.0,7.0,64.0
6859,71.0,2.0,60.0,5.0,64.0
6860,68.0,7.0,90.0,10.0,64.0
6861,70.0,10.0,60.0,8.0,64.0
6862,73.0,5.0,60.0,7.0,64.0
6863,73.0,32.0,60.0,5.0,64.0
6864,72.0,26.0,60.0,8.0,64.0
6865,78.0,8.0,30.0,6.0,64.0
6866,75.0,16.0,60.0,7.0,64.0
6867,78.0,5.0,30.0,4.0,64.0
6868,68.0,66.0,90.0,10.0,64.0
6869,75.0,4.0,60.0,5.0,64.0
6870,73.0,3.0,30.0,8.0,64.0
6871,72.0,20.0,60.0,8.0,64.0
6872,75.0,3.0,60.0,7.0,64.0
6873,84.0,11.0,150.0,6.0,64.0
6874,75.0,22.0,60.0,5.0,64.0
6875,68.0,4.0,90.0,10.0,64.0
6876,84.0,12.0,150.0,4.0,64.0
6877,77.0,8.0,60.0,7.0,64.0
6878,73.0,1.0,30.0,8.0,64.0
6879,77.0,51.0,60.0,5.0,64.0
6880,75.0,5.0,60.0,8.0,64.0
6881,78.0,1.0,60.0,7.0,64.0
6882,78.0,36.0,60.0,5.0,64.0
6883,68.0,57.0,90.0,10.0,64.0
6884,73.0,1.0,60.0,8.0,64.0
6885,72.0,0.0,60.0,8.0,64.0
6886,78.0,3.0,60.0,7.0,64.0
6887,87.0,9.0,30.0,6.0,64.0
6888,78.0,2.0,60.0,5.0,64.0
6889,87.0,38.0,60.0,4.0,64.0
6890,63.0,5.0,90.0,10.0,64.0
6891,73.0,2.0,60.0,8.0,64.0
6892,77.0,7.0,60.0,7.0,64.0
6893,77.0,65.0,60.0,5.0,64.0
6894,75.0,2.0,60.0,8.0,64.0
6895,78.0,29.0,60.0,7.0,64.0
6896,78.0,6.0,60.0,5.0,64.0
6897,80.0,10.0,60.0,6.0,64.0
6898,60.0,16.0,90.0,10.0,64.0
6899,80.0,1.0,60.0,4.0,64.0
6900,73.0,48.0,60.0,8.0,64.0
6901,72.0,2.0,60.0,8.0,64.0
6902,80.0,16.0,60.0,7.0,64.0
6903,80.0,7.0,60.0,5.0,64.0
6904,84.0,0.0,60.0,6.0,64.0
6905,84.0,3.0,30.0,4.0,64.0
6906,56.0,12.0,60.0,10.0,64.0
6907,78.0,14.0,30.0,7.0,64.0
6908,70.0,60.0,60.0,8.0,64.0
6909,78.0,13.0,30.0,5.0,64.0
6910,77.0,11.0,60.0,5.0,64.0
6911,77.0,4.0,60.0,7.0,64.0
6912,68.0,30.0,60.0,8.0,64.0
6913,85.0,2.0,60.0,4.0,64.0
6914,85.0,1.0,60.0,6.0,64.0
6915,61.0,39.0,240.0,10.0,64.0
6916,80.0,7.0,30.0,4.0,64.0
6917,80.0,63.0,30.0,6.0,64.0
6918,77.0,6.0,60.0,4.0,64.0
6919,77.0,11.0,60.0,6.0,64.0
6920,80.0,0.0,30.0,7.0,64.0
6921,80.0,0.0,30.0,5.0,64.0
6922,61.0,33.0,60.0,8.0,64.0
6923,78.0,11.0,60.0,4.0,64.0
6924,78.0,5.0,60.0,6.0,64.0
6925,63.0,15.0,60.0,8.0,64.0
6926,80.0,2.0,60.0,6.0,64.0
6927,80.0,12.0,60.0,4.0,64.0
6928,73.0,0.0,60.0,5.0,64.0
6929,65.0,37.0,60.0,8.0,64.0
6930,73.0,4.0,30.0,7.0,64.0
6931,82.0,5.0,60.0,6.0,64.0
6932,82.0,72.0,60.0,4.0,64.0
6933,80.0,11.0,60.0,6.0,64.0
6934,80.0,25.0,60.0,4.0,64.0
6935,65.0,1.0,60.0,8.0,64.0
6936,77.0,20.0,150.0,7.0,64.0
6937,77.0,5.0,180.0,5.0,64.0
6938,82.0,2.0,60.0,6.0,64.0
6939,66.0,6.0,60.0,8.0,64.0
6940,82.0,55.0,60.0,4.0,64.0
6941,68.0,23.0,60.0,8.0,64.0
6942,83.0,1.0,60.0,6.0,64.0
6943,83.0,5.0,60.0,4.0,64.0
6944,49.0,29.0,240.0,10.0,64.0
6945,80.0,11.0,60.0,6.0,64.0
6946,80.0,50.0,30.0,4.0,64.0
6947,73.0,8.0,60.0,6.0,64.0
6948,65.0,5.0,60.0,8.0,64.0
6949,80.0,4.0,60.0,5.0,64.0
6950,80.0,13.0,30.0,7.0,64.0
6951,73.0,28.0,60.0,4.0,64.0
6952,75.0,8.0,60.0,6.0,64.0
6953,66.0,3.0,60.0,8.0,64.0
6954,75.0,31.0,60.0,4.0,64.0
6955,68.0,0.0,60.0,8.0,64.0
6956,77.0,37.0,60.0,6.0,64.0
6957,77.0,4.0,60.0,4.0,64.0
6958,71.0,2.0,60.0,5.0,64.0
6959,71.0,2.0,30.0,7.0,64.0
6960,78.0,4.0,60.0,6.0,64.0
6961,78.0,63.0,30.0,4.0,64.0
6962,77.0,13.0,60.0,6.0,64.0
6963,77.0,5.0,60.0,4.0,64.0
6964,77.0,12.0,150.0,7.0,64.0
6965,68.0,30.0,60.0,8.0,64.0
6966,77.0,20.0,180.0,5.0,64.0
6967,78.0,10.0,30.0,6.0,64.0
6968,70.0,5.0,60.0,8.0,64.0
6969,78.0,58.0,60.0,4.0,64.0
6970,80.0,11.0,60.0,6.0,64.0
6971,71.0,1.0,60.0,8.0,64.0
6972,61.0,37.0,240.0,10.0,64.0
6973,80.0,15.0,60.0,4.0,64.0
6974,78.0,8.0,60.0,6.0,64.0
6975,78.0,48.0,60.0,4.0,64.0
6976,77.0,9.0,60.0,6.0,64.0
6977,71.0,2.0,30.0,8.0,64.0
6978,80.0,8.0,30.0,7.0,64.0
6979,77.0,25.0,60.0,4.0,64.0
6980,80.0,1.0,30.0,5.0,64.0
6981,70.0,4.0,30.0,8.0,64.0
6982,78.0,18.0,30.0,6.0,64.0
6983,78.0,26.0,30.0,4.0,64.0
6984,71.0,47.0,90.0,8.0,64.0
6985,80.0,6.0,60.0,6.0,64.0
6986,73.0,9.0,60.0,7.0,64.0
6987,73.0,4.0,60.0,5.0,64.0
6988,80.0,3.0,60.0,4.0,64.0
6989,78.0,32.0,60.0,6.0,64.0
6990,78.0,0.0,60.0,4.0,64.0
6991,73.0,4.0,30.0,8.0,64.0
6992,77.0,29.0,60.0,6.0,64.0
6993,77.0,9.0,30.0,7.0,64.0
6994,77.0,0.0,60.0,4.0,64.0
6995,77.0,15.0,30.0,5.0,64.0
6996,71.0,28.0,30.0,8.0,64.0
6997,75.0,33.0,60.0,6.0,64.0
6998,75.0,5.0,60.0,4.0,64.0
6999,70.0,20.0,60.0,8.0,64.0
7000,73.0,1.0,60.0,4.0,64.0
7001,78.0,43.0,60.0,7.0,64.0
7002,73.0,2.0,60.0,6.0,64.0
7003,78.0,1.0,60.0,5.0,64.0
7004,73.0,25.0,60.0,7.0,64.0
7005,78.0,6.0,60.0,4.0,64.0
7006,73.0,2.0,30.0,5.0,64.0
7007,78.0,23.0,60.0,6.0,64.0
7008,70.0,9.0,60.0,7.0,64.0
7009,77.0,1.0,60.0,4.0,64.0
7010,77.0,17.0,90.0,6.0,64.0
7011,70.0,3.0,60.0,5.0,64.0
7012,73.0,11.0,30.0,8.0,64.0
7013,54.0,11.0,60.0,10.0,64.0
7014,71.0,5.0,30.0,7.0,64.0
7015,71.0,12.0,30.0,5.0,64.0
7016,75.0,17.0,60.0,4.0,64.0
7017,75.0,4.0,60.0,6.0,64.0
7018,56.0,41.0,60.0,10.0,64.0
7019,73.0,1.0,60.0,6.0,64.0
7020,73.0,3.0,60.0,5.0,64.0
7021,73.0,37.0,60.0,4.0,64.0
7022,73.0,1.0,60.0,7.0,64.0
7023,58.0,0.0,60.0,10.0,64.0
7024,66.0,1.0,60.0,8.0,64.0
7025,75.0,14.0,60.0,7.0,64.0
7026,71.0,0.0,60.0,6.0,64.0
7027,71.0,51.0,60.0,4.0,64.0
7028,75.0,3.0,60.0,5.0,64.0
7029,73.0,4.0,60.0,7.0,64.0
7030,70.0,2.0,60.0,6.0,64.0
7031,70.0,0.0,60.0,4.0,64.0
7032,58.0,40.0,60.0,10.0,64.0
7033,73.0,0.0,60.0,5.0,64.0
7034,70.0,0.0,180.0,8.0,64.0
7035,68.0,7.0,30.0,6.0,64.0
7036,75.0,1.0,60.0,7.0,64.0
7037,59.0,75.0,60.0,10.0,64.0
7038,68.0,4.0,60.0,4.0,64.0
7039,75.0,0.0,30.0,5.0,64.0
7040,66.0,17.0,90.0,6.0,64.0
7041,61.0,9.0,60.0,10.0,64.0
7042,66.0,2.0,60.0,4.0,64.0
7043,76.0,4.0,60.0,7.0,64.0
7044,76.0,2.0,60.0,5.0,64.0
7045,73.0,76.0,60.0,7.0,64.0
7046,73.0,8.0,30.0,5.0,64.0
7047,66.0,1.0,60.0,7.0,64.0
7048,66.0,3.0,60.0,5.0,64.0
7049,58.0,39.0,60.0,10.0,64.0
7050,73.0,2.0,60.0,8.0,64.0
7051,78.0,4.0,90.0,0.0,64.0
7052,78.0,15.0,90.0,6.0,64.0
7053,78.0,1.0,90.0,4.0,64.0
7054,68.0,1.0,60.0,7.0,64.0
7055,68.0,1.0,30.0,5.0,64.0
7056,59.0,50.0,60.0,10.0,64.0
7057,70.0,2.0,60.0,7.0,64.0
7058,61.0,8.0,60.0,10.0,64.0
7059,70.0,8.0,60.0,5.0,64.0
7060,78.0,1.0,90.0,0.0,64.0
7061,64.0,29.0,60.0,8.0,64.0
7062,78.0,3.0,90.0,4.0,64.0
7063,78.0,4.0,90.0,6.0,64.0
7064,71.0,53.0,60.0,7.0,64.0
7065,71.0,6.0,30.0,5.0,64.0
7066,70.0,4.0,60.0,7.0,64.0
7067,70.0,16.0,60.0,5.0,64.0
7068,61.0,28.0,60.0,10.0,64.0
7069,78.0,9.0,90.0,0.0,64.0
7070,78.0,5.0,90.0,6.0,64.0
7071,78.0,63.0,90.0,4.0,64.0
7072,70.0,8.0,150.0,8.0,64.0
7073,63.0,1.0,60.0,10.0,64.0
7074,71.0,0.0,60.0,5.0,64.0
7075,71.0,7.0,30.0,7.0,64.0
7076,64.0,0.0,60.0,10.0,64.0
7077,73.0,6.0,60.0,5.0,64.0
7078,73.0,36.0,60.0,7.0,64.0
7079,78.0,3.0,90.0,6.0,64.0
7080,78.0,2.0,90.0,0.0,64.0
7081,78.0,2.0,90.0,4.0,64.0
7082,71.0,1.0,60.0,7.0,64.0
7083,71.0,55.0,60.0,5.0,64.0
7084,70.0,9.0,60.0,7.0,64.0
7085,64.0,3.0,60.0,10.0,64.0
7086,70.0,1.0,60.0,5.0,64.0
7087,85.0,1.0,90.0,2.0,64.0
7088,78.0,2.0,90.0,4.0,64.0
7089,82.0,12.0,90.0,0.0,64.0
7090,90.0,1.0,90.0,1.0,64.0
7091,78.0,0.0,90.0,6.0,64.0
7092,73.0,3.0,60.0,8.0,64.0
7093,54.0,25.0,60.0,3.0,64.0
7094,63.0,5.0,60.0,10.0,64.0
7095,71.0,2.0,60.0,7.0,64.0
7096,71.0,68.0,60.0,5.0,64.0
7097,64.0,2.0,60.0,10.0,64.0
7098,85.0,5.0,90.0,2.0,64.0
7099,73.0,5.0,60.0,7.0,64.0
7100,82.0,3.0,90.0,0.0,64.0
7101,90.0,12.0,90.0,1.0,64.0
7102,78.0,2.0,90.0,6.0,64.0
7103,78.0,9.0,90.0,4.0,64.0
7104,73.0,2.0,60.0,5.0,64.0
7105,66.0,11.0,60.0,8.0,64.0
7106,54.0,10.0,30.0,3.0,64.0
7107,71.0,5.0,60.0,7.0,64.0
7108,71.0,50.0,60.0,5.0,64.0
7109,70.0,14.0,60.0,7.0,64.0
7110,82.0,15.0,90.0,2.0,64.0
7111,90.0,7.0,90.0,1.0,64.0
7112,85.0,2.0,90.0,0.0,64.0
7113,70.0,0.0,60.0,5.0,64.0
7114,70.0,3.0,60.0,8.0,64.0
7115,78.0,1.0,90.0,4.0,64.0
7116,66.0,11.0,60.0,10.0,64.0
7117,78.0,0.0,90.0,6.0,64.0
7118,54.0,6.0,30.0,3.0,64.0
7119,68.0,1.0,60.0,7.0,64.0
7120,64.0,3.0,60.0,10.0,64.0
7121,68.0,65.0,60.0,5.0,64.0
7122,78.0,1.0,90.0,6.0,64.0
7123,66.0,1.0,60.0,5.0,64.0
7124,63.0,0.0,60.0,10.0,64.0
7125,78.0,32.0,120.0,2.0,64.0
7126,66.0,22.0,60.0,7.0,64.0
7127,71.0,8.0,60.0,8.0,64.0
7128,90.0,3.0,120.0,1.0,64.0
7129,54.0,7.0,60.0,3.0,64.0
7130,83.0,2.0,120.0,0.0,64.0
7131,78.0,9.0,90.0,4.0,64.0
7132,75.0,30.0,60.0,8.0,64.0
7133,80.0,0.0,90.0,6.0,64.0
7134,72.0,1.0,60.0,8.0,64.0
7135,80.0,66.0,90.0,4.0,64.0
7136,56.0,31.0,60.0,10.0,64.0
7137,75.0,6.0,30.0,7.0,64.0
7138,75.0,8.0,60.0,5.0,64.0
7139,73.0,5.0,60.0,8.0,64.0
7140,58.0,3.0,60.0,10.0,64.0
7141,60.0,3.0,60.0,10.0,64.0
7142,75.0,31.0,60.0,8.0,64.0
7143,80.0,12.0,90.0,6.0,64.0
7144,80.0,68.0,120.0,4.0,64.0
7145,68.0,7.0,30.0,7.0,64.0
7146,68.0,7.0,60.0,5.0,64.0
7147,77.0,2.0,60.0,8.0,64.0
7148,75.0,21.0,90.0,8.0,64.0
7149,80.0,4.0,90.0,6.0,64.0
7150,72.0,9.0,180.0,5.0,64.0
7151,72.0,9.0,150.0,7.0,64.0
7152,60.0,14.0,60.0,10.0,64.0
7153,80.0,62.0,90.0,4.0,64.0
7154,77.0,11.0,60.0,8.0,64.0
7155,61.0,1.0,60.0,10.0,64.0
7156,63.0,24.0,90.0,10.0,64.0
7157,78.0,2.0,60.0,8.0,64.0
7158,80.0,11.0,90.0,6.0,64.0
7159,80.0,54.0,90.0,4.0,64.0
7160,75.0,6.0,60.0,8.0,64.0
7161,68.0,6.0,60.0,8.0,64.0
7162,80.0,9.0,90.0,6.0,64.0
7163,75.0,8.0,60.0,7.0,64.0
7164,60.0,10.0,60.0,10.0,64.0
7165,80.0,3.0,90.0,0.0,64.0
7166,75.0,21.0,60.0,5.0,64.0
7167,80.0,59.0,90.0,4.0,64.0
7168,61.0,2.0,60.0,10.0,64.0
7169,70.0,8.0,60.0,8.0,64.0
7170,72.0,2.0,60.0,8.0,64.0
7171,63.0,16.0,90.0,10.0,64.0
7172,80.0,4.0,90.0,6.0,64.0
7173,66.0,0.0,60.0,7.0,64.0
7174,80.0,12.0,90.0,0.0,64.0
7175,66.0,20.0,60.0,5.0,64.0
7176,80.0,62.0,90.0,4.0,64.0
7177,73.0,0.0,60.0,8.0,64.0
7178,72.0,4.0,60.0,8.0,64.0
7179,80.0,1.0,90.0,6.0,64.0
7180,63.0,36.0,60.0,10.0,64.0
7181,72.0,3.0,180.0,7.0,64.0
7182,72.0,1.0,180.0,5.0,64.0
7183,80.0,0.0,90.0,4.0,64.0
7184,80.0,5.0,90.0,0.0,64.0
7185,65.0,14.0,60.0,10.0,64.0
7186,73.0,69.0,60.0,8.0,64.0
7187,66.0,4.0,60.0,10.0,64.0
7188,80.0,5.0,90.0,6.0,64.0
7189,75.0,25.0,60.0,8.0,64.0
7190,80.0,7.0,90.0,0.0,64.0
7191,80.0,6.0,90.0,4.0,64.0
7192,73.0,47.0,60.0,8.0,64.0
7193,80.0,6.0,90.0,6.0,64.0
7194,75.0,14.0,30.0,7.0,64.0
7195,72.0,3.0,60.0,8.0,64.0
7196,66.0,28.0,60.0,10.0,64.0
7197,84.0,3.0,90.0,0.0,64.0
7198,54.0,1.0,30.0,3.0,64.0
7199,92.0,1.0,90.0,1.0,64.0
7200,75.0,3.0,60.0,5.0,64.0
7201,80.0,1.0,90.0,4.0,64.0
7202,78.0,1.0,90.0,2.0,64.0
7203,65.0,7.0,60.0,10.0,64.0
7204,73.0,64.0,60.0,8.0,64.0
7205,66.0,14.0,90.0,10.0,64.0
7206,68.0,6.0,60.0,7.0,64.0
7207,80.0,2.0,90.0,4.0,64.0
7208,68.0,7.0,60.0,5.0,64.0
7209,80.0,21.0,90.0,6.0,64.0
7210,75.0,5.0,60.0,8.0,64.0
7211,92.0,4.0,90.0,1.0,64.0
7212,54.0,5.0,60.0,3.0,64.0
7213,78.0,0.0,90.0,2.0,64.0
7214,84.0,1.0,90.0,0.0,64.0
7215,73.0,36.0,60.0,8.0,64.0
7216,72.0,18.0,60.0,8.0,64.0
7217,72.0,8.0,30.0,5.0,64.0
7218,68.0,13.0,60.0,10.0,64.0
7219,80.0,0.0,90.0,4.0,64.0
7220,80.0,2.0,90.0,6.0,64.0
7221,78.0,1.0,90.0,2.0,64.0
7222,72.0,9.0,30.0,7.0,64.0
7223,87.0,11.0,90.0,0.0,64.0
7224,92.0,3.0,60.0,1.0,64.0
7225,54.0,1.0,30.0,3.0,64.0
7226,66.0,80.0,60.0,10.0,64.0
7227,70.0,6.0,60.0,8.0,64.0
7228,80.0,5.0,60.0,6.0,64.0
7229,68.0,0.0,90.0,8.0,64.0
7230,85.0,9.0,120.0,2.0,64.0
7231,65.0,3.0,60.0,10.0,64.0
7232,80.0,15.0,90.0,4.0,64.0
7233,85.0,1.0,120.0,0.0,64.0
7234,92.0,46.0,120.0,1.0,64.0
7235,73.0,2.0,60.0,5.0,64.0
7236,73.0,1.0,60.0,7.0,64.0
7237,49.0,13.0,60.0,3.0,64.0
7238,85.0,19.0,30.0,5.0,64.0
7239,85.0,0.0,30.0,7.0,64.0
7240,73.0,2.0,120.0,8.0,64.0
7241,77.0,9.0,60.0,7.0,64.0
7242,73.0,1.0,60.0,4.0,64.0
7243,68.0,3.0,60.0,10.0,64.0
7244,73.0,3.0,60.0,6.0,64.0
7245,77.0,21.0,60.0,5.0,64.0
7246,75.0,3.0,60.0,6.0,64.0
7247,78.0,7.0,60.0,7.0,64.0
7248,75.0,0.0,60.0,4.0,64.0
7249,78.0,60.0,30.0,5.0,64.0
7250,77.0,9.0,60.0,6.0,64.0
7251,77.0,10.0,60.0,4.0,64.0
7252,80.0,3.0,60.0,7.0,64.0
7253,73.0,13.0,90.0,8.0,64.0
7254,80.0,8.0,60.0,5.0,64.0
7255,61.0,7.0,60.0,10.0,64.0
7256,82.0,14.0,30.0,7.0,64.0
7257,82.0,58.0,60.0,5.0,64.0
7258,80.0,18.0,60.0,7.0,64.0
7259,77.0,5.0,60.0,6.0,64.0
7260,73.0,7.0,90.0,8.0,64.0
7261,77.0,4.0,60.0,4.0,64.0
7262,80.0,4.0,60.0,5.0,64.0
7263,65.0,12.0,180.0,10.0,64.0
7264,78.0,11.0,60.0,6.0,64.0
7265,82.0,1.0,30.0,7.0,64.0
7266,78.0,1.0,30.0,4.0,64.0
7267,82.0,68.0,30.0,5.0,64.0
7268,83.0,5.0,60.0,7.0,64.0
7269,80.0,9.0,60.0,6.0,64.0
7270,73.0,6.0,120.0,8.0,64.0
7271,80.0,10.0,60.0,4.0,64.0
7272,83.0,2.0,60.0,5.0,64.0
7273,80.0,10.0,60.0,7.0,64.0
7274,80.0,61.0,60.0,5.0,64.0
7275,73.0,13.0,60.0,7.0,64.0
7276,73.0,12.0,90.0,8.0,64.0
7277,77.0,5.0,60.0,6.0,64.0
7278,68.0,0.0,60.0,10.0,64.0
7279,77.0,2.0,60.0,4.0,64.0
7280,73.0,18.0,60.0,5.0,64.0
7281,75.0,0.0,60.0,7.0,64.0
7282,78.0,5.0,60.0,6.0,64.0
7283,78.0,8.0,60.0,4.0,64.0
7284,75.0,53.0,60.0,5.0,64.0
7285,77.0,2.0,60.0,7.0,64.0
7286,73.0,6.0,90.0,8.0,64.0
7287,80.0,1.0,60.0,6.0,64.0
7288,80.0,14.0,60.0,4.0,64.0
7289,77.0,22.0,60.0,5.0,64.0
7290,59.0,2.0,60.0,10.0,64.0
7291,78.0,22.0,60.0,7.0,64.0
7292,78.0,47.0,60.0,5.0,64.0
7293,77.0,18.0,60.0,7.0,64.0
7294,73.0,8.0,90.0,8.0,64.0
7295,77.0,0.0,60.0,5.0,64.0
7296,80.0,7.0,60.0,4.0,64.0
7297,80.0,7.0,60.0,6.0,64.0
7298,65.0,3.0,180.0,10.0,64.0
7299,78.0,14.0,30.0,7.0,64.0
7300,82.0,1.0,30.0,4.0,64.0
7301,78.0,5.0,30.0,5.0,64.0
7302,82.0,70.0,30.0,6.0,64.0
7303,73.0,28.0,90.0,8.0,64.0
7304,80.0,4.0,60.0,7.0,64.0
7305,83.0,4.0,60.0,4.0,64.0
7306,80.0,1.0,60.0,5.0,64.0
7307,83.0,13.0,60.0,6.0,64.0
7308,78.0,5.0,60.0,7.0,64.0
7309,78.0,47.0,60.0,5.0,64.0
7310,73.0,17.0,90.0,8.0,64.0
7311,77.0,4.0,60.0,7.0,64.0
7312,83.0,10.0,30.0,4.0,64.0
7313,77.0,1.0,60.0,5.0,64.0
7314,68.0,9.0,60.0,10.0,64.0
7315,83.0,10.0,30.0,6.0,64.0
7316,82.0,3.0,60.0,6.0,64.0
7317,82.0,10.0,30.0,4.0,64.0
7318,78.0,71.0,60.0,5.0,64.0
7319,78.0,9.0,30.0,7.0,64.0
7320,83.0,5.0,60.0,4.0,64.0
7321,73.0,30.0,90.0,8.0,64.0
7322,83.0,0.0,60.0,6.0,64.0
7323,80.0,18.0,60.0,7.0,64.0
7324,61.0,4.0,60.0,10.0,64.0
7325,80.0,4.0,60.0,5.0,64.0
7326,78.0,7.0,60.0,7.0,64.0
7327,78.0,47.0,60.0,5.0,64.0
7328,77.0,2.0,60.0,7.0,64.0
7329,73.0,14.0,90.0,8.0,64.0
7330,85.0,4.0,60.0,6.0,64.0
7331,65.0,9.0,60.0,10.0,64.0
7332,77.0,1.0,60.0,5.0,64.0
7333,85.0,9.0,60.0,4.0,64.0
7334,75.0,0.0,60.0,7.0,64.0
7335,83.0,14.0,30.0,6.0,64.0
7336,75.0,73.0,60.0,5.0,64.0
7337,83.0,7.0,30.0,4.0,64.0
7338,73.0,9.0,90.0,8.0,64.0
7339,82.0,8.0,90.0,6.0,64.0
7340,73.0,7.0,60.0,7.0,64.0
7341,82.0,59.0,90.0,4.0,64.0
7342,73.0,2.0,60.0,5.0,64.0
7343,54.0,3.0,60.0,10.0,64.0
7344,66.0,13.0,60.0,8.0,64.0
7345,82.0,8.0,30.0,6.0,64.0
7346,70.0,6.0,60.0,7.0,64.0
7347,66.0,19.0,60.0,10.0,64.0
7348,70.0,6.0,30.0,5.0,64.0
7349,82.0,3.0,30.0,4.0,64.0
7350,80.0,13.0,30.0,6.0,64.0
7351,68.0,52.0,60.0,8.0,64.0
7352,80.0,17.0,30.0,4.0,64.0
7353,82.0,30.0,90.0,6.0,64.0
7354,66.0,4.0,60.0,8.0,64.0
7355,59.0,23.0,60.0,10.0,64.0
7356,75.0,11.0,270.0,7.0,64.0
7357,75.0,11.0,270.0,5.0,64.0
7358,82.0,2.0,90.0,4.0,64.0
7359,65.0,46.0,60.0,8.0,64.0
7360,63.0,2.0,60.0,8.0,64.0
7361,63.0,32.0,60.0,10.0,64.0
7362,83.0,19.0,30.0,6.0,64.0
7363,83.0,6.0,30.0,4.0,64.0
7364,82.0,1.0,30.0,6.0,64.0
7365,82.0,60.0,30.0,4.0,64.0
7366,66.0,1.0,30.0,8.0,64.0
7367,80.0,12.0,120.0,6.0,64.0
7368,80.0,10.0,90.0,4.0,64.0
7369,65.0,8.0,60.0,8.0,64.0
7370,53.0,26.0,60.0,10.0,64.0
7371,66.0,46.0,60.0,8.0,64.0
7372,65.0,12.0,30.0,8.0,64.0
7373,65.0,1.0,60.0,10.0,64.0
7374,80.0,5.0,60.0,4.0,64.0
7375,80.0,13.0,60.0,6.0,64.0
7376,74.0,1.0,60.0,5.0,64.0
7377,74.0,33.0,60.0,7.0,64.0
7378,63.0,1.0,60.0,8.0,64.0
7379,78.0,4.0,60.0,6.0,64.0
7380,75.0,6.0,60.0,5.0,64.0
7381,78.0,0.0,30.0,4.0,64.0
7382,75.0,65.0,60.0,7.0,64.0
7383,62.0,10.0,60.0,8.0,64.0
7384,80.0,19.0,90.0,6.0,64.0
7385,77.0,3.0,60.0,5.0,64.0
7386,77.0,14.0,60.0,7.0,64.0
7387,80.0,0.0,120.0,4.0,64.0
7388,58.0,9.0,60.0,10.0,64.0
7389,75.0,44.0,60.0,5.0,64.0
7390,75.0,6.0,60.0,7.0,64.0
7391,74.0,3.0,60.0,5.0,64.0
7392,65.0,9.0,30.0,8.0,64.0
7393,74.0,2.0,60.0,7.0,64.0
7394,62.0,26.0,60.0,10.0,64.0
7395,82.0,0.0,60.0,6.0,64.0
7396,82.0,8.0,30.0,4.0,64.0
7397,80.0,1.0,30.0,6.0,64.0
7398,72.0,8.0,30.0,5.0,64.0
7399,72.0,13.0,30.0,7.0,64.0
7400,80.0,68.0,60.0,4.0,64.0
7401,78.0,3.0,90.0,6.0,64.0
7402,70.0,3.0,60.0,5.0,64.0
7403,78.0,15.0,90.0,4.0,64.0
7404,70.0,0.0,60.0,7.0,64.0
7405,66.0,10.0,60.0,8.0,64.0
7406,51.0,15.0,60.0,10.0,64.0
7407,82.0,4.0,60.0,5.0,64.0
7408,82.0,61.0,60.0,7.0,64.0
7409,78.0,8.0,60.0,6.0,64.0
7410,63.0,19.0,60.0,10.0,64.0
7411,70.0,3.0,60.0,8.0,64.0
7412,75.0,3.0,60.0,7.0,64.0
7413,78.0,1.0,90.0,1.0,64.0
7414,75.0,4.0,60.0,5.0,64.0
7415,78.0,3.0,30.0,0.0,64.0
7416,78.0,4.0,60.0,4.0,64.0
7417,80.0,9.0,30.0,6.0,64.0
7418,80.0,6.0,30.0,0.0,64.0
7419,80.0,5.0,60.0,4.0,64.0
7420,77.0,45.0,60.0,5.0,64.0
7421,77.0,5.0,30.0,7.0,64.0
7422,82.0,5.0,60.0,6.0,64.0
7423,82.0,2.0,60.0,0.0,64.0
7424,82.0,2.0,60.0,4.0,64.0
7425,78.0,23.0,60.0,7.0,64.0
7426,78.0,13.0,60.0,5.0,64.0
7427,78.0,3.0,90.0,1.0,64.0
7428,61.0,1.0,60.0,10.0,64.0
7429,63.0,8.0,30.0,8.0,64.0
7430,80.0,4.0,30.0,7.0,64.0
7431,80.0,39.0,30.0,5.0,64.0
7432,78.0,6.0,60.0,7.0,64.0
7433,59.0,13.0,90.0,10.0,64.0
7434,78.0,6.0,90.0,1.0,64.0
7435,82.0,1.0,60.0,0.0,64.0
7436,78.0,3.0,60.0,5.0,64.0
7437,82.0,5.0,60.0,6.0,64.0
7438,66.0,20.0,180.0,8.0,64.0
7439,68.0,29.0,15.0,8.0,64.0
7440,82.0,16.0,60.0,4.0,64.0
7441,83.0,2.0,60.0,0.0,64.0
7442,80.0,63.0,60.0,7.0,64.0
7443,83.0,2.0,30.0,6.0,64.0
7444,83.0,4.0,30.0,4.0,64.0
7445,80.0,4.0,60.0,5.0,64.0
7446,85.0,3.0,60.0,6.0,64.0
7447,82.0,10.0,60.0,7.0,64.0
7448,58.0,2.0,90.0,10.0,64.0
7449,85.0,1.0,60.0,0.0,64.0
7450,78.0,4.0,90.0,1.0,64.0
7451,85.0,8.0,60.0,4.0,64.0
7452,82.0,2.0,60.0,5.0,64.0
7453,85.0,6.0,30.0,7.0,64.0
7454,85.0,52.0,30.0,5.0,64.0
7455,78.0,17.0,60.0,7.0,64.0
7456,82.0,4.0,60.0,6.0,64.0
7457,78.0,0.0,60.0,5.0,64.0
7458,63.0,2.0,60.0,10.0,64.0
7459,78.0,18.0,60.0,8.0,64.0
7460,82.0,5.0,30.0,4.0,64.0
7461,78.0,0.0,90.0,1.0,64.0
7462,82.0,2.0,30.0,0.0,64.0
7463,78.0,4.0,90.0,2.0,64.0
7464,83.0,4.0,30.0,6.0,64.0
7465,80.0,73.0,60.0,7.0,64.0
7466,83.0,1.0,60.0,4.0,64.0
7467,80.0,2.0,30.0,5.0,64.0
7468,83.0,0.0,30.0,0.0,64.0
7469,85.0,6.0,60.0,6.0,64.0
7470,82.0,3.0,60.0,5.0,64.0
7471,82.0,0.0,60.0,7.0,64.0
7472,78.0,1.0,90.0,8.0,64.0
7473,61.0,14.0,60.0,10.0,64.0
7474,85.0,8.0,60.0,0.0,64.0
7475,85.0,4.0,90.0,4.0,64.0
7476,78.0,62.0,90.0,1.0,64.0
7477,78.0,2.0,90.0,2.0,64.0
7478,83.0,0.0,60.0,5.0,64.0
7479,83.0,2.0,30.0,7.0,64.0
7480,82.0,4.0,60.0,5.0,64.0
7481,82.0,3.0,60.0,7.0,64.0
7482,85.0,3.0,60.0,6.0,64.0
7483,78.0,4.0,90.0,8.0,64.0
7484,59.0,24.0,60.0,10.0,64.0
7485,85.0,3.0,60.0,0.0,64.0
7486,78.0,5.0,90.0,1.0,64.0
7487,85.0,10.0,60.0,4.0,64.0
7488,78.0,0.0,90.0,2.0,64.0
7489,87.0,2.0,30.0,6.0,64.0
7490,83.0,0.0,60.0,5.0,64.0
7491,83.0,0.0,60.0,7.0,64.0
7492,87.0,70.0,30.0,4.0,64.0
7493,87.0,1.0,30.0,0.0,64.0
7494,88.0,14.0,60.0,6.0,64.0
7495,85.0,1.0,60.0,7.0,64.0
7496,85.0,8.0,90.0,5.0,64.0
7497,78.0,4.0,90.0,8.0,64.0
7498,88.0,15.0,60.0,4.0,64.0
7499,58.0,1.0,60.0,10.0,64.0
7500,88.0,6.0,60.0,0.0,64.0
7501,78.0,2.0,90.0,1.0,64.0
7502,78.0,2.0,90.0,2.0,64.0
7503,83.0,59.0,60.0,7.0,64.0
7504,82.0,4.0,60.0,7.0,64.0
7505,78.0,1.0,90.0,8.0,64.0
7506,88.0,0.0,60.0,6.0,64.0
7507,61.0,25.0,60.0,10.0,64.0
7508,94.0,1.0,30.0,1.0,64.0
7509,88.0,1.0,30.0,0.0,64.0
7510,83.0,0.0,90.0,5.0,64.0
7511,88.0,8.0,60.0,4.0,64.0
7512,78.0,3.0,90.0,2.0,64.0
7513,54.0,9.0,30.0,3.0,64.0
7514,87.0,0.0,60.0,6.0,64.0
7515,83.0,1.0,60.0,7.0,64.0
7516,95.0,0.0,30.0,1.0,64.0
7517,87.0,14.0,30.0,0.0,64.0
7518,87.0,50.0,60.0,4.0,64.0
7519,78.0,8.0,90.0,8.0,64.0
7520,97.0,3.0,90.0,1.0,64.0
7521,88.0,2.0,60.0,6.0,64.0
7522,54.0,1.0,60.0,10.0,64.0
7523,85.0,3.0,60.0,7.0,64.0
7524,54.0,19.0,30.0,3.0,64.0
7525,82.0,6.0,60.0,2.0,64.0
7526,82.0,30.0,90.0,5.0,64.0
7527,88.0,5.0,60.0,4.0,64.0
7528,88.0,1.0,60.0,0.0,64.0
7529,83.0,32.0,60.0,7.0,64.0
7530,82.0,5.0,60.0,7.0,64.0
7531,73.0,1.0,90.0,8.0,64.0
7532,80.0,8.0,90.0,5.0,64.0
7533,99.0,7.0,30.0,1.0,64.0
7534,54.0,13.0,30.0,3.0,64.0
7535,78.0,7.0,60.0,2.0,64.0
7536,90.0,4.0,60.0,6.0,64.0
7537,58.0,3.0,60.0,10.0,64.0
7538,90.0,1.0,60.0,4.0,64.0
7539,90.0,4.0,30.0,0.0,64.0
7540,80.0,64.0,60.0,7.0,64.0
7541,97.0,12.0,30.0,1.0,64.0
7542,88.0,2.0,30.0,6.0,64.0
7543,88.0,8.0,30.0,4.0,64.0
7544,88.0,2.0,30.0,0.0,64.0
7545,75.0,11.0,120.0,8.0,64.0
7546,78.0,3.0,60.0,7.0,64.0
7547,87.0,3.0,60.0,6.0,64.0
7548,95.0,15.0,120.0,1.0,64.0
7549,54.0,24.0,60.0,3.0,64.0
7550,47.0,1.0,60.0,10.0,64.0
7551,78.0,4.0,60.0,5.0,64.0
7552,90.0,2.0,120.0,2.0,64.0
7553,87.0,10.0,60.0,4.0,64.0
7554,87.0,24.0,120.0,0.0,64.0
7555,83.0,0.0,60.0,6.0,64.0
7556,83.0,13.0,30.0,4.0,64.0
7557,75.0,11.0,60.0,7.0,64.0
7558,80.0,10.0,60.0,6.0,64.0
7559,75.0,12.0,90.0,8.0,64.0
7560,59.0,24.0,60.0,10.0,64.0
7561,75.0,7.0,60.0,5.0,64.0
7562,80.0,1.0,60.0,4.0,64.0
7563,82.0,3.0,60.0,6.0,64.0
7564,82.0,61.0,60.0,4.0,64.0
7565,83.0,7.0,60.0,6.0,64.0
7566,53.0,23.0,60.0,10.0,64.0
7567,75.0,11.0,90.0,8.0,64.0
7568,80.0,2.0,270.0,7.0,64.0
7569,80.0,10.0,270.0,5.0,64.0
7570,83.0,7.0,60.0,4.0,64.0
7571,85.0,7.0,30.0,6.0,64.0
7572,85.0,44.0,30.0,4.0,64.0
7573,82.0,14.0,30.0,6.0,64.0
7574,75.0,10.0,90.0,8.0,64.0
7575,82.0,12.0,60.0,4.0,64.0
7576,56.0,21.0,60.0,10.0,64.0
7577,87.0,2.0,60.0,0.0,64.0
7578,92.0,1.0,60.0,2.0,64.0
7579,95.0,5.0,60.0,1.0,64.0
7580,83.0,3.0,30.0,6.0,64.0
7581,83.0,57.0,30.0,4.0,64.0
7582,85.0,3.0,60.0,6.0,64.0
7583,73.0,5.0,90.0,8.0,64.0
7584,46.0,19.0,60.0,10.0,64.0
7585,85.0,7.0,120.0,0.0,64.0
7586,85.0,12.0,60.0,4.0,64.0
7587,94.0,4.0,150.0,1.0,64.0
7588,49.0,10.0,60.0,3.0,64.0
7589,92.0,18.0,120.0,2.0,64.0
7590,82.0,4.0,60.0,6.0,64.0
7591,82.0,31.0,30.0,4.0,64.0
7592,58.0,38.0,60.0,10.0,64.0
7593,73.0,12.0,90.0,8.0,64.0
7594,78.0,1.0,60.0,6.0,64.0
7595,73.0,2.0,30.0,5.0,64.0
7596,78.0,1.0,60.0,4.0,64.0
7597,73.0,2.0,30.0,7.0,64.0
7598,80.0,0.0,60.0,6.0,64.0
7599,80.0,79.0,30.0,4.0,64.0
7600,73.0,14.0,90.0,8.0,64.0
7601,51.0,5.0,60.0,10.0,64.0
7602,82.0,16.0,60.0,6.0,64.0
7603,82.0,5.0,60.0,4.0,64.0
7604,78.0,2.0,300.0,5.0,64.0
7605,78.0,2.0,270.0,7.0,64.0
7606,83.0,59.0,30.0,6.0,64.0
7607,83.0,2.0,30.0,4.0,64.0
7608,73.0,3.0,120.0,8.0,64.0
7609,54.0,27.0,60.0,10.0,64.0
7610,85.0,7.0,60.0,0.0,64.0
7611,80.0,1.0,30.0,6.0,64.0
7612,80.0,16.0,30.0,4.0,64.0
7613,90.0,4.0,60.0,2.0,64.0
7614,94.0,4.0,60.0,1.0,64.0
7615,82.0,2.0,30.0,6.0,64.0
7616,82.0,60.0,30.0,4.0,64.0
7617,71.0,3.0,120.0,8.0,64.0
7618,83.0,3.0,60.0,6.0,64.0
7619,83.0,11.0,30.0,0.0,64.0
7620,44.0,2.0,60.0,10.0,64.0
7621,83.0,14.0,60.0,4.0,64.0
7622,90.0,13.0,90.0,2.0,64.0
7623,92.0,9.0,60.0,1.0,64.0
7624,82.0,5.0,60.0,6.0,64.0
7625,82.0,2.0,30.0,0.0,64.0
7626,82.0,42.0,30.0,4.0,64.0
7627,80.0,4.0,30.0,6.0,64.0
7628,80.0,12.0,30.0,0.0,64.0
7629,49.0,0.0,60.0,10.0,64.0
7630,73.0,2.0,90.0,8.0,64.0
7631,77.0,2.0,60.0,7.0,64.0
7632,85.0,1.0,60.0,2.0,64.0
7633,97.0,2.0,60.0,1.0,64.0
7634,77.0,19.0,60.0,5.0,64.0
7635,80.0,13.0,30.0,4.0,64.0
7636,49.0,2.0,60.0,3.0,64.0
7637,83.0,5.0,30.0,6.0,64.0
7638,83.0,8.0,30.0,0.0,64.0
7639,83.0,65.0,30.0,4.0,64.0
7640,73.0,9.0,90.0,8.0,64.0
7641,54.0,6.0,60.0,10.0,64.0
7642,78.0,5.0,30.0,7.0,64.0
7643,82.0,3.0,60.0,6.0,64.0
7644,78.0,0.0,60.0,5.0,64.0
7645,85.0,2.0,60.0,2.0,64.0
7646,82.0,5.0,60.0,0.0,64.0
7647,97.0,0.0,30.0,1.0,64.0
7648,54.0,2.0,30.0,3.0,64.0
7649,82.0,20.0,60.0,4.0,64.0
7650,77.0,2.0,60.0,7.0,64.0
7651,80.0,7.0,60.0,6.0,64.0
7652,77.0,3.0,60.0,5.0,64.0
7653,80.0,1.0,30.0,0.0,64.0
7654,80.0,43.0,30.0,4.0,64.0
7655,75.0,1.0,60.0,7.0,64.0
7656,78.0,5.0,30.0,6.0,64.0
7657,73.0,3.0,90.0,8.0,64.0
7658,75.0,3.0,60.0,5.0,64.0
7659,42.0,0.0,60.0,10.0,64.0
7660,78.0,6.0,30.0,0.0,64.0
7661,78.0,4.0,30.0,4.0,64.0
7662,97.0,0.0,30.0,1.0,64.0
7663,85.0,25.0,60.0,2.0,64.0
7664,54.0,4.0,30.0,3.0,64.0
7665,78.0,6.0,30.0,7.0,64.0
7666,82.0,7.0,30.0,6.0,64.0
7667,78.0,5.0,60.0,5.0,64.0
7668,82.0,52.0,30.0,4.0,64.0
7669,82.0,3.0,30.0,0.0,64.0
7670,77.0,15.0,60.0,7.0,64.0
7671,73.0,8.0,90.0,8.0,64.0
7672,77.0,5.0,60.0,5.0,64.0
7673,80.0,21.0,60.0,6.0,64.0
7674,49.0,11.0,90.0,10.0,64.0
7675,97.0,16.0,120.0,1.0,64.0
7676,80.0,1.0,60.0,4.0,64.0
7677,80.0,2.0,120.0,0.0,64.0
7678,85.0,1.0,120.0,2.0,64.0
7679,49.0,5.0,60.0,3.0,64.0
7680,85.0,4.0,60.0,6.0,64.0
7681,85.0,28.0,30.0,4.0,64.0
7682,80.0,14.0,30.0,7.0,64.0
7683,80.0,2.0,30.0,5.0,64.0
7684,73.0,58.0,90.0,8.0,64.0
7685,77.0,5.0,60.0,6.0,64.0
7686,49.0,35.0,60.0,10.0,64.0
7687,77.0,2.0,60.0,4.0,64.0
7688,51.0,4.0,60.0,10.0,64.0
7689,78.0,4.0,30.0,4.0,64.0
7690,78.0,0.0,60.0,6.0,64.0
7691,53.0,4.0,60.0,10.0,64.0
7692,80.0,3.0,60.0,4.0,64.0
7693,73.0,8.0,30.0,7.0,64.0
7694,73.0,6.0,60.0,5.0,64.0
7695,73.0,6.0,90.0,8.0,64.0
7696,80.0,32.0,60.0,6.0,64.0
7697,82.0,9.0,60.0,6.0,64.0
7698,82.0,61.0,60.0,4.0,64.0
7699,80.0,15.0,60.0,6.0,64.0
7700,53.0,11.0,60.0,10.0,64.0
7701,77.0,4.0,150.0,7.0,64.0
7702,73.0,16.0,90.0,8.0,64.0
7703,80.0,10.0,60.0,4.0,64.0
7704,77.0,15.0,150.0,5.0,64.0
7705,54.0,5.0,60.0,10.0,64.0
7706,82.0,1.0,60.0,6.0,64.0
7707,82.0,57.0,30.0,4.0,64.0
7708,73.0,9.0,90.0,8.0,64.0
7709,56.0,5.0,60.0,10.0,64.0
7710,83.0,6.0,60.0,6.0,64.0
7711,83.0,17.0,60.0,4.0,64.0
7712,80.0,53.0,60.0,6.0,64.0
7713,80.0,7.0,30.0,4.0,64.0
7714,53.0,4.0,60.0,10.0,64.0
7715,73.0,6.0,90.0,8.0,64.0
7716,80.0,5.0,30.0,7.0,64.0
7717,73.0,33.0,60.0,6.0,64.0
7718,73.0,1.0,60.0,4.0,64.0
7719,80.0,11.0,30.0,5.0,64.0
7720,73.0,9.0,90.0,0.0,64.0
7721,54.0,2.0,30.0,10.0,64.0
7722,75.0,2.0,60.0,6.0,64.0
7723,75.0,52.0,60.0,4.0,64.0
7724,56.0,5.0,60.0,10.0,64.0
7725,73.0,2.0,90.0,8.0,64.0
7726,71.0,4.0,60.0,7.0,64.0
7727,77.0,4.0,60.0,6.0,64.0
7728,77.0,29.0,60.0,4.0,64.0
7729,71.0,6.0,60.0,5.0,64.0
7730,73.0,5.0,90.0,0.0,64.0
7731,78.0,7.0,30.0,6.0,64.0
7732,78.0,67.0,30.0,4.0,64.0
7733,73.0,6.0,90.0,8.0,64.0
7734,77.0,25.0,60.0,6.0,64.0
7735,56.0,3.0,60.0,10.0,64.0
7736,77.0,9.0,60.0,4.0,64.0
7737,77.0,30.0,180.0,5.0,64.0
7738,77.0,2.0,180.0,7.0,64.0
7739,73.0,1.0,90.0,0.0,64.0
7740,58.0,3.0,30.0,10.0,64.0
7741,78.0,2.0,30.0,6.0,64.0
7742,78.0,79.0,30.0,4.0,64.0
7743,59.0,0.0,60.0,10.0,64.0
7744,73.0,2.0,90.0,8.0,64.0
7745,80.0,7.0,60.0,6.0,64.0
7746,80.0,1.0,60.0,4.0,64.0
7747,73.0,11.0,90.0,0.0,64.0
7748,78.0,0.0,60.0,6.0,64.0
7749,78.0,48.0,60.0,4.0,64.0
7750,77.0,1.0,60.0,6.0,64.0
7751,59.0,4.0,60.0,10.0,64.0
7752,77.0,8.0,30.0,4.0,64.0
7753,73.0,5.0,90.0,8.0,64.0
7754,80.0,3.0,30.0,7.0,64.0
7755,85.0,65.0,90.0,2.0,64.0
7756,80.0,0.0,90.0,0.0,64.0
7757,80.0,39.0,30.0,5.0,64.0
7758,49.0,1.0,30.0,3.0,64.0
7759,85.0,0.0,60.0,1.0,64.0
7760,58.0,4.0,60.0,10.0,64.0
7761,78.0,4.0,60.0,4.0,64.0
7762,78.0,0.0,60.0,6.0,64.0
7763,59.0,2.0,60.0,10.0,64.0
7764,80.0,2.0,60.0,4.0,64.0
7765,80.0,0.0,60.0,6.0,64.0
7766,80.0,15.0,90.0,0.0,64.0
7767,73.0,4.0,60.0,7.0,64.0
7768,85.0,8.0,90.0,2.0,64.0
7769,73.0,15.0,60.0,5.0,64.0
7770,73.0,1.0,90.0,8.0,64.0
7771,85.0,6.0,90.0,1.0,64.0
7772,49.0,4.0,30.0,3.0,64.0
7773,83.0,4.0,60.0,6.0,64.0
7774,83.0,55.0,60.0,4.0,64.0
7775,82.0,4.0,60.0,6.0,64.0
7776,61.0,0.0,60.0,10.0,64.0
7777,85.0,0.0,60.0,0.0,64.0
7778,73.0,3.0,90.0,8.0,64.0
7779,82.0,5.0,60.0,4.0,64.0
7780,77.0,1.0,60.0,5.0,64.0
7781,77.0,1.0,60.0,7.0,64.0
7782,92.0,26.0,60.0,1.0,64.0
7783,85.0,2.0,60.0,2.0,64.0
7784,49.0,3.0,30.0,3.0,64.0
7785,59.0,5.0,30.0,10.0,64.0
7786,80.0,5.0,30.0,6.0,64.0
7787,80.0,65.0,30.0,4.0,64.0
7788,58.0,1.0,90.0,10.0,64.0
7789,73.0,21.0,90.0,8.0,64.0
7790,85.0,3.0,60.0,6.0,64.0
7791,85.0,11.0,120.0,0.0,64.0
7792,78.0,1.0,60.0,7.0,64.0
7793,78.0,14.0,60.0,5.0,64.0
7794,85.0,11.0,60.0,4.0,64.0
7795,78.0,20.0,120.0,2.0,64.0
7796,94.0,9.0,90.0,1.0,64.0
7797,54.0,3.0,60.0,3.0,64.0
7798,83.0,15.0,60.0,6.0,64.0
7799,83.0,2.0,60.0,4.0,64.0
7800,58.0,4.0,30.0,10.0,64.0
7801,82.0,4.0,30.0,6.0,64.0
7802,73.0,2.0,60.0,7.0,64.0
7803,66.0,13.0,60.0,8.0,64.0
7804,82.0,26.0,60.0,4.0,64.0
7805,73.0,0.0,30.0,5.0,64.0
7806,97.0,2.0,30.0,1.0,64.0
7807,56.0,8.0,30.0,10.0,64.0
7808,83.0,2.0,30.0,6.0,64.0
7809,83.0,64.0,30.0,4.0,64.0
7810,95.0,1.0,30.0,1.0,64.0
7811,58.0,23.0,90.0,10.0,64.0
7812,85.0,7.0,60.0,6.0,64.0
7813,85.0,1.0,60.0,4.0,64.0
7814,70.0,9.0,60.0,8.0,64.0
7815,94.0,17.0,60.0,1.0,64.0
7816,78.0,5.0,270.0,5.0,64.0
7817,78.0,8.0,270.0,7.0,64.0
7818,82.0,3.0,60.0,4.0,64.0
7819,82.0,46.0,60.0,6.0,64.0
7820,78.0,21.0,90.0,6.0,64.0
7821,78.0,2.0,60.0,4.0,64.0
7822,87.0,16.0,30.0,0.0,64.0
7823,75.0,17.0,60.0,8.0,64.0
7824,90.0,3.0,60.0,1.0,64.0
7825,59.0,1.0,30.0,10.0,64.0
7826,82.0,1.0,60.0,4.0,64.0
7827,82.0,4.0,30.0,6.0,64.0
7828,85.0,1.0,30.0,0.0,64.0
7829,58.0,60.0,30.0,10.0,64.0
7830,83.0,1.0,60.0,6.0,64.0
7831,83.0,16.0,60.0,4.0,64.0
7832,56.0,28.0,60.0,10.0,64.0
7833,83.0,0.0,120.0,0.0,64.0
7834,92.0,6.0,90.0,1.0,64.0
7835,75.0,11.0,120.0,8.0,64.0
7836,82.0,9.0,60.0,6.0,64.0
7837,82.0,31.0,60.0,4.0,64.0
7838,80.0,23.0,60.0,6.0,64.0
7839,80.0,3.0,60.0,4.0,64.0
7840,71.0,5.0,60.0,7.0,64.0
7841,56.0,2.0,60.0,10.0,64.0
7842,95.0,12.0,30.0,1.0,64.0
7843,77.0,5.0,60.0,5.0,64.0
7844,77.0,2.0,60.0,8.0,64.0
7845,54.0,1.0,60.0,10.0,64.0
7846,82.0,4.0,30.0,6.0,64.0
7847,82.0,5.0,30.0,4.0,64.0
7848,94.0,3.0,30.0,1.0,64.0
7849,78.0,67.0,30.0,8.0,64.0
7850,56.0,6.0,60.0,10.0,64.0
7851,77.0,2.0,60.0,8.0,64.0
7852,83.0,3.0,60.0,6.0,64.0
7853,92.0,2.0,60.0,1.0,64.0
7854,68.0,27.0,60.0,7.0,64.0
7855,80.0,1.0,60.0,5.0,64.0
7856,83.0,3.0,60.0,4.0,64.0
7857,87.0,20.0,30.0,6.0,64.0
7858,87.0,47.0,60.0,4.0,64.0
7859,85.0,2.0,60.0,6.0,64.0
7860,73.0,1.0,60.0,8.0,64.0
7861,85.0,5.0,60.0,4.0,64.0
7862,92.0,0.0,60.0,2.0,64.0
7863,58.0,3.0,60.0,10.0,64.0
7864,77.0,2.0,60.0,7.0,64.0
7865,77.0,23.0,60.0,5.0,64.0
7866,85.0,10.0,60.0,1.0,64.0
7867,85.0,3.0,30.0,0.0,64.0
7868,49.0,2.0,60.0,3.0,64.0
7869,83.0,3.0,60.0,6.0,64.0
7870,56.0,0.0,60.0,10.0,64.0
7871,83.0,6.0,30.0,0.0,64.0
7872,83.0,65.0,30.0,4.0,64.0
7873,54.0,1.0,60.0,10.0,64.0
7874,82.0,9.0,60.0,6.0,64.0
7875,73.0,9.0,90.0,8.0,64.0
7876,82.0,4.0,60.0,0.0,64.0
7877,78.0,1.0,60.0,5.0,64.0
7878,78.0,3.0,60.0,7.0,64.0
7879,94.0,67.0,90.0,2.0,64.0
7880,82.0,1.0,60.0,4.0,64.0
7881,54.0,10.0,60.0,3.0,64.0
7882,85.0,15.0,60.0,1.0,64.0
7883,56.0,3.0,60.0,10.0,64.0
7884,58.0,0.0,60.0,10.0,64.0
7885,78.0,4.0,60.0,6.0,64.0
7886,73.0,22.0,60.0,8.0,64.0
7887,73.0,1.0,60.0,5.0,64.0
7888,90.0,4.0,60.0,1.0,64.0
7889,85.0,4.0,60.0,0.0,64.0
7890,73.0,1.0,60.0,7.0,64.0
7891,78.0,10.0,60.0,4.0,64.0
7892,54.0,77.0,60.0,10.0,64.0
7893,59.0,2.0,60.0,10.0,64.0
7894,66.0,2.0,60.0,7.0,64.0
7895,71.0,26.0,60.0,8.0,64.0
7896,75.0,3.0,60.0,6.0,64.0
7897,95.0,67.0,90.0,2.0,64.0
7898,66.0,2.0,60.0,5.0,64.0
7899,87.0,0.0,60.0,0.0,64.0
7900,90.0,1.0,60.0,1.0,64.0
7901,75.0,6.0,60.0,4.0,64.0
7902,54.0,1.0,60.0,3.0,64.0
7903,61.0,1.0,30.0,10.0,64.0
7904,58.0,2.0,60.0,10.0,64.0
7905,75.0,28.0,60.0,8.0,64.0
7906,92.0,2.0,60.0,1.0,64.0
7907,71.0,8.0,30.0,7.0,64.0
7908,78.0,0.0,60.0,5.0,64.0
7909,83.0,6.0,60.0,0.0,64.0
7910,80.0,0.0,60.0,6.0,64.0
7911,80.0,12.0,60.0,4.0,64.0
7912,59.0,77.0,60.0,10.0,64.0
7913,61.0,1.0,60.0,10.0,64.0
7914,73.0,10.0,60.0,8.0,64.0
7915,92.0,2.0,120.0,2.0,64.0
7916,85.0,1.0,60.0,1.0,64.0
7917,68.0,2.0,60.0,7.0,64.0
7918,49.0,0.0,60.0,3.0,64.0
7919,68.0,18.0,270.0,5.0,64.0
7920,77.0,3.0,60.0,4.0,64.0
7921,89.0,3.0,60.0,0.0,64.0
7922,77.0,38.0,60.0,6.0,64.0
7923,65.0,6.0,60.0,7.0,64.0
7924,73.0,4.0,60.0,4.0,64.0
7925,73.0,43.0,60.0,6.0,64.0
7926,59.0,24.0,90.0,10.0,64.0
7927,66.0,4.0,60.0,7.0,64.0
7928,68.0,2.0,60.0,8.0,64.0
7929,75.0,3.0,60.0,4.0,64.0
7930,92.0,10.0,60.0,1.0,64.0
7931,75.0,4.0,60.0,6.0,64.0
7932,85.0,7.0,30.0,0.0,64.0
7933,68.0,6.0,30.0,7.0,64.0
7934,77.0,2.0,30.0,4.0,64.0
7935,77.0,40.0,30.0,6.0,64.0
7936,78.0,5.0,60.0,6.0,64.0
7937,78.0,1.0,60.0,4.0,64.0
7938,58.0,0.0,60.0,10.0,64.0
7939,94.0,4.0,30.0,1.0,64.0
7940,73.0,24.0,60.0,8.0,64.0
7941,85.0,1.0,60.0,2.0,64.0
7942,61.0,5.0,60.0,7.0,64.0
7943,49.0,6.0,30.0,3.0,64.0
7944,90.0,4.0,30.0,0.0,64.0
7945,92.0,9.0,30.0,1.0,64.0
7946,80.0,44.0,60.0,6.0,64.0
7947,80.0,2.0,30.0,4.0,64.0
7948,94.0,14.0,30.0,1.0,64.0
7949,82.0,3.0,60.0,6.0,64.0
7950,56.0,7.0,60.0,10.0,64.0
7951,73.0,21.0,60.0,8.0,64.0
7952,77.0,1.0,60.0,7.0,64.0
7953,82.0,1.0,60.0,4.0,64.0
7954,77.0,4.0,60.0,5.0,64.0
7955,85.0,8.0,60.0,2.0,64.0
7956,83.0,1.0,60.0,0.0,64.0
7957,49.0,1.0,30.0,3.0,64.0
7958,95.0,5.0,30.0,1.0,64.0
7959,83.0,0.0,30.0,6.0,64.0
7960,83.0,68.0,30.0,4.0,64.0
7961,82.0,5.0,60.0,6.0,64.0
7962,54.0,5.0,60.0,10.0,64.0
7963,78.0,3.0,60.0,7.0,64.0
7964,78.0,3.0,60.0,5.0,64.0
7965,73.0,1.0,60.0,8.0,64.0
7966,82.0,1.0,60.0,4.0,64.0
7967,97.0,0.0,120.0,1.0,64.0
7968,85.0,23.0,120.0,2.0,64.0
7969,54.0,36.0,60.0,3.0,64.0
7970,82.0,3.0,120.0,0.0,64.0
7971,80.0,11.0,60.0,6.0,64.0
7972,71.0,1.0,60.0,8.0,64.0
7973,80.0,20.0,60.0,4.0,64.0
7974,70.0,2.0,60.0,8.0,64.0
7975,78.0,9.0,30.0,6.0,64.0
7976,75.0,4.0,60.0,5.0,64.0
7977,59.0,37.0,60.0,10.0,64.0
7978,75.0,0.0,60.0,7.0,64.0
7979,78.0,4.0,60.0,4.0,64.0
7980,71.0,66.0,60.0,8.0,64.0
7981,80.0,9.0,30.0,6.0,64.0
7982,80.0,0.0,30.0,4.0,64.0
7983,68.0,3.0,60.0,8.0,64.0
7984,61.0,6.0,60.0,10.0,64.0
7985,73.0,5.0,60.0,7.0,64.0
7986,73.0,2.0,60.0,5.0,64.0
7987,73.0,2.0,60.0,6.0,64.0
7988,80.0,45.0,120.0,0.0,64.0
7989,95.0,5.0,120.0,1.0,64.0
7990,73.0,9.0,60.0,4.0,64.0
7991,85.0,2.0,120.0,2.0,64.0
7992,49.0,58.0,60.0,3.0,64.0
7993,73.0,3.0,60.0,7.0,64.0
7994,49.0,1.0,60.0,10.0,64.0
7995,68.0,6.0,60.0,8.0,64.0
7996,73.0,100.0,60.0,5.0,64.0
7997,77.0,0.0,60.0,6.0,64.0
7998,77.0,2.0,60.0,4.0,64.0
7999,90.0,3.0,120.0,0.0,64.0
8000,73.0,11.0,270.0,5.0,64.0
8001,54.0,5.0,2160.0,10.0,64.0
8002,73.0,2.0,120.0,7.0,64.0
8003,78.0,2.0,240.0,6.0,64.0
8004,70.0,4.0,240.0,8.0,64.0
8005,85.0,3.0,120.0,2.0,64.0
8006,94.0,9.0,120.0,1.0,64.0
8007,54.0,18.0,20.0,3.0,64.0
8008,78.0,22.0,240.0,4.0,64.0
8009,54.0,29.0,15.0,3.0,64.0
8010,54.0,18.0,20.0,3.0,64.0
8011,54.0,28.0,15.0,3.0,64.0
8012,54.0,28.0,30.0,3.0,64.0
8013,54.0,17.0,15.0,3.0,64.0
8014,66.0,12.0,30.0,7.0,64.0
8015,54.0,22.0,15.0,3.0,64.0
8016,54.0,17.0,15.0,3.0,64.0
8017,54.0,14.0,15.0,3.0,64.0
8018,66.0,2.0,90.0,7.0,64.0
8019,54.0,25.0,30.0,3.0,64.0
8020,80.0,2.0,60.0,6.0,64.0
8021,80.0,2.0,30.0,4.0,64.0
8022,80.0,12.0,30.0,5.0,64.0
8023,54.0,3.0,20.0,3.0,64.0
8024,54.0,36.0,15.0,3.0,64.0
8025,82.0,6.0,60.0,6.0,64.0
8026,82.0,0.0,30.0,4.0,64.0
8027,82.0,5.0,30.0,5.0,64.0
8028,54.0,38.0,30.0,3.0,64.0
8029,78.0,6.0,30.0,4.0,64.0
8030,78.0,0.0,30.0,5.0,64.0
8031,78.0,50.0,30.0,6.0,64.0
8032,70.0,3.0,30.0,7.0,64.0
8033,66.0,2.0,30.0,8.0,64.0
8034,54.0,3.0,30.0,3.0,64.0
8035,73.0,2.0,300.0,4.0,64.0
8036,70.0,17.0,90.0,7.0,64.0
8037,54.0,33.0,30.0,3.0,64.0
8038,66.0,0.0,90.0,8.0,64.0
8039,73.0,17.0,270.0,5.0,64.0
8040,73.0,18.0,300.0,6.0,64.0
8041,94.0,5.0,120.0,0.0,64.0
8042,90.0,3.0,120.0,1.0,64.0
8043,85.0,12.0,150.0,2.0,64.0
8044,54.0,20.0,20.0,3.0,64.0
8045,54.0,13.0,15.0,3.0,64.0
8046,54.0,12.0,15.0,3.0,64.0
8047,54.0,18.0,15.0,3.0,64.0
8048,54.0,22.0,15.0,3.0,64.0
8049,54.0,28.0,15.0,3.0,64.0
8050,73.0,19.0,30.0,7.0,64.0
8051,70.0,4.0,30.0,8.0,64.0
8052,54.0,0.0,15.0,3.0,64.0
8053,54.0,24.0,15.0,3.0,64.0
8054,73.0,3.0,60.0,7.0,64.0
8055,54.0,6.0,15.0,3.0,64.0
8056,70.0,6.0,60.0,8.0,64.0
8057,54.0,6.0,15.0,3.0,64.0
8058,75.0,7.0,30.0,5.0,64.0
8059,54.0,5.0,15.0,3.0,64.0
8060,75.0,6.0,30.0,4.0,64.0
8061,75.0,35.0,30.0,6.0,64.0
8062,54.0,8.0,15.0,3.0,64.0
8063,54.0,7.0,30.0,3.0,64.0
8064,76.0,14.0,30.0,5.0,64.0
8065,76.0,13.0,30.0,4.0,64.0
8066,76.0,2.0,60.0,6.0,64.0
8067,54.0,21.0,15.0,3.0,64.0
8068,73.0,13.0,30.0,5.0,64.0
8069,70.0,0.0,30.0,7.0,64.0
8070,73.0,2.0,30.0,4.0,64.0
8071,54.0,13.0,15.0,3.0,64.0
8072,73.0,14.0,60.0,6.0,64.0
8073,73.0,5.0,30.0,8.0,64.0
8074,54.0,4.0,15.0,3.0,64.0
8075,66.0,1.0,150.0,7.0,64.0
8076,54.0,32.0,15.0,3.0,64.0
8077,97.0,29.0,120.0,0.0,64.0
8078,73.0,13.0,90.0,8.0,64.0
8079,70.0,1.0,270.0,5.0,64.0
8080,70.0,14.0,270.0,4.0,64.0
8081,90.0,2.0,120.0,2.0,64.0
8082,94.0,2.0,120.0,1.0,64.0
8083,70.0,7.0,270.0,6.0,64.0
8084,54.0,19.0,20.0,3.0,64.0
8085,54.0,33.0,15.0,3.0,64.0
8086,54.0,2.0,20.0,3.0,64.0
8087,54.0,19.0,15.0,3.0,64.0
8088,54.0,53.0,30.0,3.0,64.0
8089,54.0,20.0,30.0,3.0,64.0
8090,61.0,2.0,30.0,8.0,64.0
8091,70.0,13.0,30.0,7.0,64.0
8092,54.0,20.0,15.0,3.0,64.0
8093,61.0,2.0,90.0,8.0,64.0
8094,54.0,10.0,15.0,3.0,64.0
8095,70.0,7.0,90.0,7.0,64.0
8096,54.0,25.0,15.0,3.0,64.0
8097,71.0,6.0,30.0,5.0,64.0
8098,71.0,1.0,30.0,6.0,64.0
8099,71.0,6.0,30.0,4.0,64.0
8100,54.0,6.0,20.0,3.0,64.0
8101,54.0,24.0,15.0,3.0,64.0
8102,54.0,24.0,15.0,3.0,64.0
8103,73.0,2.0,30.0,6.0,64.0
8104,73.0,5.0,30.0,4.0,64.0
8105,73.0,12.0,30.0,5.0,64.0
8106,54.0,6.0,15.0,3.0,64.0
8107,54.0,30.0,15.0,3.0,64.0
8108,70.0,3.0,30.0,6.0,64.0
8109,70.0,2.0,30.0,4.0,64.0
8110,66.0,2.0,30.0,8.0,64.0
8111,73.0,2.0,30.0,7.0,64.0
8112,70.0,11.0,30.0,5.0,64.0
8113,54.0,55.0,30.0,3.0,64.0
8114,73.0,26.0,120.0,7.0,64.0
8115,70.0,4.0,90.0,8.0,64.0
8116,66.0,4.0,300.0,4.0,64.0
8117,66.0,20.0,270.0,6.0,64.0
8118,66.0,0.0,300.0,5.0,64.0
8119,94.0,1.0,120.0,2.0,64.0
8120,97.0,4.0,120.0,1.0,64.0
8121,54.0,33.0,30.0,3.0,64.0
8122,102.0,25.0,120.0,0.0,64.0
8123,54.0,21.0,15.0,3.0,64.0
8124,54.0,2.0,15.0,3.0,64.0
8125,54.0,4.0,20.0,3.0,64.0
8126,54.0,27.0,20.0,3.0,64.0
8127,54.0,31.0,15.0,3.0,64.0
8128,73.0,0.0,30.0,8.0,64.0
8129,76.0,1.0,30.0,7.0,64.0
8130,54.0,24.0,20.0,3.0,64.0
8131,54.0,33.0,15.0,3.0,64.0
8132,73.0,24.0,60.0,8.0,64.0
8133,76.0,4.0,60.0,7.0,64.0
8134,54.0,1.0,30.0,3.0,64.0
8135,54.0,22.0,20.0,3.0,64.0
8136,54.0,30.0,15.0,3.0,64.0
8137,68.0,10.0,30.0,6.0,64.0
8138,68.0,2.0,30.0,4.0,64.0
8139,68.0,2.0,30.0,5.0,64.0
8140,54.0,9.0,20.0,3.0,64.0
8141,70.0,3.0,30.0,6.0,64.0
8142,70.0,10.0,30.0,4.0,64.0
8143,54.0,13.0,20.0,3.0,64.0
8144,70.0,1.0,30.0,5.0,64.0
8145,71.0,3.0,30.0,6.0,64.0
8146,54.0,11.0,20.0,3.0,64.0
8147,73.0,8.0,30.0,7.0,64.0
8148,70.0,6.0,30.0,8.0,64.0
8149,71.0,4.0,30.0,5.0,64.0
8150,73.0,2.0,30.0,6.0,64.0
8151,71.0,7.0,30.0,4.0,64.0
8152,54.0,6.0,30.0,3.0,64.0
8153,73.0,5.0,30.0,5.0,64.0
8154,75.0,1.0,30.0,6.0,64.0
8155,73.0,11.0,30.0,4.0,64.0
8156,75.0,4.0,30.0,5.0,64.0
8157,76.0,16.0,90.0,6.0,64.0
8158,75.0,18.0,30.0,4.0,64.0
8159,66.0,7.0,90.0,8.0,64.0
8160,70.0,3.0,330.0,7.0,64.0
8161,76.0,3.0,90.0,5.0,64.0
8162,76.0,107.0,90.0,4.0,64.0
8163,54.0,36.0,30.0,3.0,64.0
8164,61.0,7.0,30.0,8.0,64.0
8165,76.0,3.0,30.0,5.0,64.0
8166,90.0,4.0,30.0,2.0,64.0
8167,76.0,38.0,30.0,6.0,64.0
8168,76.0,0.0,30.0,4.0,64.0
8169,97.0,3.0,30.0,0.0,64.0
8170,94.0,1.0,30.0,1.0,64.0
8171,78.0,0.0,90.0,5.0,64.0
8172,90.0,9.0,60.0,2.0,64.0
8173,61.0,1.0,90.0,8.0,64.0
8174,78.0,0.0,90.0,6.0,64.0
8175,78.0,6.0,90.0,4.0,64.0
8176,54.0,36.0,30.0,3.0,64.0
8177,94.0,0.0,60.0,1.0,64.0
8178,97.0,4.0,60.0,0.0,64.0
8179,54.0,11.0,30.0,3.0,64.0
8180,52.0,48.0,30.0,10.0,64.0
8181,51.0,46.0,30.0,10.0,64.0
8182,54.0,15.0,30.0,3.0,64.0
8183,49.0,0.0,60.0,10.0,64.0
8184,70.0,2.0,30.0,7.0,64.0
8185,97.0,0.0,30.0,0.0,64.0
8186,64.0,4.0,60.0,8.0,64.0
8187,94.0,6.0,30.0,2.0,64.0
8188,80.0,2.0,30.0,4.0,64.0
8189,80.0,1.0,30.0,5.0,64.0
8190,54.0,4.0,30.0,3.0,64.0
8191,97.0,5.0,30.0,1.0,64.0
8192,80.0,55.0,30.0,6.0,64.0
8193,71.0,5.0,90.0,7.0,64.0
8194,66.0,107.0,90.0,8.0,64.0
8195,90.0,4.0,90.0,2.0,64.0
8196,78.0,2.0,90.0,4.0,64.0
8197,51.0,1.0,90.0,10.0,64.0
8198,78.0,0.0,90.0,5.0,64.0
8199,78.0,4.0,90.0,6.0,64.0
8200,102.0,1.0,60.0,0.0,64.0
8201,95.0,4.0,90.0,1.0,64.0
8202,54.0,31.0,30.0,3.0,64.0
8203,68.0,1.0,30.0,8.0,64.0
8204,90.0,1.0,30.0,2.0,64.0
8205,54.0,9.0,30.0,3.0,64.0
8206,73.0,1.0,30.0,7.0,64.0
8207,97.0,1.0,30.0,0.0,64.0
8208,76.0,7.0,30.0,4.0,64.0
8209,76.0,1.0,30.0,5.0,64.0
8210,95.0,2.0,30.0,1.0,64.0
8211,52.0,55.0,30.0,10.0,64.0
8212,76.0,0.0,30.0,6.0,64.0
8213,66.0,0.0,90.0,8.0,64.0
8214,75.0,0.0,90.0,6.0,64.0
8215,75.0,5.0,90.0,4.0,64.0
8216,71.0,0.0,90.0,7.0,64.0
8217,90.0,3.0,60.0,2.0,64.0
8218,95.0,4.0,90.0,1.0,64.0
8219,99.0,115.0,90.0,0.0,64.0
8220,75.0,2.0,90.0,5.0,64.0
8221,54.0,4.0,60.0,10.0,64.0
8222,54.0,34.0,30.0,3.0,64.0
8223,66.0,3.0,30.0,8.0,64.0
8224,54.0,5.0,30.0,3.0,64.0
8225,70.0,10.0,30.0,7.0,64.0
8226,73.0,1.0,30.0,4.0,64.0
8227,100.0,0.0,30.0,0.0,64.0
8228,73.0,1.0,30.0,5.0,64.0
8229,73.0,4.0,30.0,6.0,64.0
8230,90.0,2.0,30.0,2.0,64.0
8231,95.0,1.0,30.0,1.0,64.0
8232,42.0,65.0,30.0,10.0,64.0
8233,75.0,4.0,180.0,6.0,64.0
8234,75.0,3.0,180.0,4.0,64.0
8235,75.0,35.0,180.0,5.0,64.0
8236,71.0,85.0,90.0,7.0,64.0
8237,66.0,40.0,330.0,8.0,64.0
8238,95.0,7.0,240.0,1.0,64.0
8239,54.0,28.0,60.0,3.0,64.0
8240,99.0,4.0,240.0,0.0,64.0
8241,90.0,54.0,240.0,2.0,64.0
8242,47.0,36.0,420.0,10.0,64.0
8243,75.0,31.0,30.0,7.0,64.0
8244,75.0,40.0,60.0,7.0,64.0
8245,71.0,8.0,180.0,6.0,64.0
8246,71.0,19.0,150.0,5.0,64.0
8247,71.0,3.0,150.0,4.0,64.0
8248,71.0,11.0,30.0,7.0,64.0
8249,66.0,102.0,30.0,8.0,64.0
8250,75.0,42.0,390.0,4.0,64.0
8251,75.0,33.0,360.0,5.0,64.0
8252,75.0,2.0,360.0,6.0,64.0
8253,59.0,18.0,420.0,10.0,64.0
8254,66.0,28.0,300.0,7.0,64.0
8255,71.0,129.0,90.0,8.0,64.0
8256,75.0,89.0,30.0,8.0,64.0
8257,75.0,8.0,60.0,8.0,64.0
8258,68.0,12.0,30.0,7.0,64.0
8259,77.0,1.0,30.0,5.0,64.0
8260,77.0,2.0,30.0,6.0,64.0
8261,71.0,8.0,30.0,8.0,64.0
8262,77.0,103.0,30.0,4.0,64.0
8263,61.0,128.0,90.0,7.0,64.0
8264,78.0,43.0,270.0,6.0,64.0
8265,78.0,1.0,270.0,5.0,64.0
8266,78.0,3.0,270.0,4.0,64.0
8267,73.0,9.0,330.0,8.0,64.0
8268,58.0,7.0,510.0,10.0,64.0
8269,66.0,44.0,60.0,7.0,64.0
8270,70.0,19.0,60.0,7.0,64.0
8271,77.0,2.0,30.0,5.0,64.0
8272,77.0,2.0,60.0,4.0,64.0
8273,77.0,51.0,30.0,6.0,64.0
8274,78.0,2.0,30.0,5.0,64.0
8275,78.0,2.0,30.0,4.0,64.0
8276,78.0,43.0,30.0,6.0,64.0
8277,80.0,5.0,30.0,5.0,64.0
8278,80.0,7.0,30.0,4.0,64.0
8279,71.0,5.0,30.0,7.0,64.0
8280,80.0,3.0,30.0,6.0,64.0
8281,71.0,62.0,30.0,8.0,64.0
8282,80.0,4.0,60.0,4.0,64.0
8283,80.0,7.0,60.0,5.0,64.0
8284,73.0,9.0,120.0,7.0,64.0
8285,80.0,13.0,60.0,6.0,64.0
8286,70.0,3.0,90.0,8.0,64.0
8287,79.0,7.0,30.0,5.0,64.0
8288,79.0,7.0,30.0,4.0,64.0
8289,79.0,10.0,30.0,6.0,64.0
8290,59.0,1.0,60.0,10.0,64.0
8291,80.0,2.0,20.0,5.0,64.0
8292,80.0,7.0,30.0,4.0,64.0
8293,80.0,1.0,30.0,6.0,64.0
8294,79.0,8.0,20.0,5.0,64.0
8295,79.0,9.0,20.0,4.0,64.0
8296,79.0,6.0,20.0,6.0,64.0
8297,80.0,10.0,20.0,5.0,64.0
8298,80.0,3.0,20.0,4.0,64.0
8299,61.0,4.0,30.0,10.0,64.0
8300,80.0,5.0,20.0,6.0,64.0
8301,79.0,7.0,20.0,5.0,64.0
8302,79.0,3.0,15.0,4.0,64.0
8303,79.0,7.0,20.0,6.0,64.0
8304,80.0,12.0,20.0,5.0,64.0
8305,80.0,1.0,30.0,4.0,64.0
8306,80.0,7.0,20.0,6.0,64.0
8307,76.0,7.0,30.0,7.0,64.0
8308,68.0,2.0,30.0,8.0,64.0
8309,79.0,10.0,20.0,5.0,64.0
8310,63.0,9.0,30.0,10.0,64.0
8311,79.0,0.0,20.0,4.0,64.0
8312,79.0,3.0,30.0,6.0,64.0
8313,80.0,5.0,30.0,5.0,64.0
8314,80.0,6.0,30.0,4.0,64.0
8315,80.0,48.0,30.0,6.0,64.0
8316,79.0,10.0,150.0,5.0,64.0
8317,79.0,0.0,120.0,4.0,64.0
8318,76.0,20.0,60.0,7.0,64.0
8319,79.0,29.0,120.0,6.0,64.0
8320,70.0,8.0,90.0,8.0,64.0
8321,61.0,17.0,60.0,10.0,64.0
8322,59.0,25.0,30.0,10.0,64.0
8323,58.0,50.0,30.0,10.0,64.0
8324,75.0,1.0,30.0,7.0,64.0
8325,80.0,8.0,30.0,6.0,64.0
8326,80.0,0.0,30.0,4.0,64.0
8327,56.0,101.0,30.0,10.0,64.0
8328,71.0,1.0,30.0,8.0,64.0
8329,80.0,2.0,30.0,5.0,64.0
8330,75.0,2.0,90.0,7.0,64.0
8331,82.0,45.0,270.0,6.0,64.0
8332,82.0,9.0,270.0,4.0,64.0
8333,82.0,4.0,240.0,5.0,64.0
8334,70.0,133.0,90.0,8.0,64.0
8335,55.0,2.0,570.0,10.0,64.0
8336,70.0,0.0,60.0,7.0,64.0
8337,73.0,33.0,30.0,8.0,64.0
8338,67.0,2.0,60.0,7.0,64.0
8339,73.0,26.0,60.0,8.0,64.0
8340,85.0,1.0,30.0,4.0,64.0
8341,85.0,1.0,30.0,5.0,64.0
8342,85.0,57.0,30.0,6.0,64.0
8343,83.0,2.0,30.0,6.0,64.0
8344,83.0,62.0,30.0,5.0,64.0
8345,83.0,2.0,30.0,4.0,64.0
8346,73.0,2.0,60.0,7.0,64.0
8347,82.0,84.0,60.0,6.0,64.0
8348,82.0,2.0,60.0,4.0,64.0
8349,76.0,4.0,30.0,8.0,64.0
8350,82.0,0.0,30.0,5.0,64.0
8351,63.0,17.0,90.0,7.0,64.0
8352,70.0,11.0,60.0,8.0,64.0
8353,87.0,119.0,90.0,4.0,64.0
8354,87.0,0.0,90.0,6.0,64.0
8355,87.0,0.0,90.0,5.0,64.0
8356,63.0,6.0,60.0,8.0,64.0
8357,51.0,0.0,60.0,10.0,64.0
8358,85.0,1.0,30.0,6.0,64.0
8359,79.0,95.0,60.0,7.0,64.0
8360,85.0,4.0,30.0,5.0,64.0
8361,85.0,1.0,30.0,4.0,64.0
8362,53.0,0.0,90.0,10.0,64.0
8363,83.0,1.0,90.0,6.0,64.0
8364,68.0,3.0,90.0,8.0,64.0
8365,80.0,3.0,90.0,7.0,64.0
8366,83.0,1.0,90.0,4.0,64.0
8367,83.0,125.0,90.0,5.0,64.0
8368,82.0,7.0,30.0,6.0,64.0
8369,82.0,0.0,60.0,7.0,64.0
8370,82.0,1.0,30.0,4.0,64.0
8371,82.0,15.0,30.0,5.0,64.0
8372,75.0,2.0,30.0,8.0,64.0
8373,55.0,82.0,60.0,10.0,64.0
8374,83.0,3.0,90.0,6.0,64.0
8375,80.0,5.0,90.0,7.0,64.0
8376,83.0,2.0,90.0,4.0,64.0
8377,75.0,124.0,90.0,8.0,64.0
8378,83.0,1.0,90.0,5.0,64.0
8379,56.0,1.0,90.0,10.0,64.0
8380,73.0,3.0,60.0,8.0,64.0
8381,79.0,7.0,60.0,7.0,64.0
8382,58.0,2.0,60.0,10.0,64.0
8383,82.0,1.0,30.0,6.0,64.0
8384,82.0,1.0,30.0,4.0,64.0
8385,82.0,94.0,60.0,5.0,64.0
8386,80.0,111.0,90.0,6.0,64.0
8387,80.0,4.0,90.0,7.0,64.0
8388,75.0,1.0,90.0,8.0,64.0
8389,59.0,3.0,90.0,10.0,64.0
8390,80.0,2.0,90.0,4.0,64.0
8391,80.0,2.0,90.0,5.0,64.0
8392,82.0,8.0,30.0,7.0,64.0
8393,82.0,1.0,60.0,6.0,64.0
8394,76.0,1.0,30.0,8.0,64.0
8395,61.0,82.0,30.0,10.0,64.0
8396,82.0,3.0,30.0,5.0,64.0
8397,82.0,1.0,30.0,4.0,64.0
8398,75.0,15.0,330.0,8.0,64.0
8399,80.0,0.0,90.0,7.0,64.0
8400,83.0,2.0,60.0,6.0,64.0
8401,83.0,14.0,60.0,4.0,64.0
8402,83.0,9.0,60.0,5.0,64.0
8403,63.0,3.0,120.0,10.0,64.0
8404,82.0,7.0,30.0,6.0,64.0
8405,82.0,3.0,30.0,5.0,64.0
8406,82.0,1.0,30.0,4.0,64.0
8407,79.0,20.0,30.0,7.0,64.0
8408,83.0,6.0,30.0,6.0,64.0
8409,83.0,2.0,30.0,5.0,64.0
8410,83.0,2.0,30.0,4.0,64.0
8411,80.0,2.0,30.0,7.0,64.0
8412,82.0,6.0,20.0,6.0,64.0
8413,82.0,6.0,15.0,5.0,64.0
8414,82.0,0.0,20.0,4.0,64.0
8415,79.0,14.0,20.0,7.0,64.0
8416,83.0,4.0,20.0,5.0,64.0
8417,83.0,1.0,30.0,6.0,64.0
8418,83.0,2.0,15.0,4.0,64.0
8419,80.0,9.0,20.0,7.0,64.0
8420,82.0,5.0,20.0,5.0,64.0
8421,82.0,7.0,20.0,6.0,64.0
8422,82.0,2.0,15.0,4.0,64.0
8423,79.0,8.0,30.0,7.0,64.0
8424,61.0,3.0,30.0,10.0,64.0
8425,83.0,7.0,20.0,5.0,64.0
8426,83.0,2.0,30.0,6.0,64.0
8427,83.0,1.0,20.0,4.0,64.0
8428,80.0,5.0,30.0,7.0,64.0
8429,60.0,0.0,30.0,10.0,64.0
8430,82.0,5.0,20.0,5.0,64.0
8431,82.0,0.0,20.0,6.0,64.0
8432,82.0,7.0,20.0,4.0,64.0
8433,79.0,12.0,20.0,7.0,64.0
8434,83.0,4.0,30.0,5.0,64.0
8435,83.0,72.0,30.0,6.0,64.0
8436,83.0,4.0,20.0,4.0,64.0
8437,80.0,0.0,20.0,7.0,64.0
8438,61.0,11.0,90.0,10.0,64.0
8439,82.0,4.0,120.0,5.0,64.0
8440,82.0,89.0,120.0,6.0,64.0
8441,82.0,0.0,120.0,4.0,64.0
8442,79.0,5.0,120.0,7.0,64.0
8443,80.0,3.0,30.0,4.0,64.0
8444,80.0,2.0,30.0,6.0,64.0
8445,75.0,0.0,30.0,8.0,64.0
8446,80.0,6.0,30.0,5.0,64.0
8447,80.0,2.0,30.0,7.0,64.0
8448,63.0,141.0,30.0,10.0,64.0
8449,60.0,50.0,510.0,10.0,64.0
8450,75.0,19.0,480.0,8.0,64.0
8451,80.0,12.0,240.0,6.0,64.0
8452,80.0,8.0,240.0,4.0,64.0
8453,80.0,89.0,120.0,7.0,64.0
8454,80.0,53.0,240.0,5.0,64.0
8455,68.0,31.0,30.0,7.0,64.0
8456,68.0,15.0,90.0,7.0,64.0
8457,80.0,10.0,30.0,6.0,64.0
8458,80.0,0.0,30.0,4.0,64.0
8459,80.0,44.0,30.0,5.0,64.0
8460,78.0,8.0,30.0,6.0,64.0
8461,78.0,2.0,30.0,4.0,64.0
8462,78.0,49.0,30.0,5.0,64.0
8463,77.0,1.0,30.0,6.0,64.0
8464,77.0,1.0,30.0,4.0,64.0
8465,72.0,8.0,30.0,7.0,64.0
8466,77.0,38.0,30.0,5.0,64.0
8467,75.0,51.0,360.0,7.0,64.0
8468,78.0,8.0,90.0,4.0,64.0
8469,78.0,55.0,90.0,6.0,64.0
8470,78.0,1.0,90.0,5.0,64.0
8471,58.0,1.0,30.0,10.0,64.0
8472,56.0,62.0,30.0,10.0,64.0
8473,58.0,2.0,30.0,10.0,64.0
8474,87.0,6.0,30.0,5.0,64.0
8475,87.0,51.0,60.0,6.0,64.0
8476,68.0,5.0,30.0,8.0,64.0
8477,87.0,3.0,30.0,4.0,64.0
8478,60.0,42.0,30.0,10.0,64.0
8479,68.0,0.0,90.0,8.0,64.0
8480,80.0,1.0,90.0,5.0,64.0
8481,80.0,9.0,90.0,4.0,64.0
8482,80.0,3.0,90.0,6.0,64.0
8483,58.0,13.0,30.0,10.0,64.0
8484,60.0,64.0,30.0,10.0,64.0
8485,56.0,1.0,60.0,10.0,64.0
8486,78.0,99.0,60.0,6.0,64.0
8487,72.0,0.0,30.0,8.0,64.0
8488,78.0,2.0,30.0,4.0,64.0
8489,78.0,1.0,30.0,5.0,64.0
8490,75.0,1.0,30.0,7.0,64.0
8491,68.0,2.0,90.0,8.0,64.0
8492,77.0,8.0,90.0,6.0,64.0
8493,77.0,114.0,120.0,4.0,64.0
8494,61.0,68.0,510.0,10.0,64.0
8495,73.0,6.0,90.0,7.0,64.0
8496,77.0,8.0,90.0,5.0,64.0
8497,73.0,1.0,60.0,6.0,64.0
8498,73.0,88.0,60.0,4.0,64.0
8499,65.0,1.0,30.0,7.0,64.0
8500,73.0,6.0,30.0,5.0,64.0
8501,73.0,0.0,30.0,8.0,64.0
8502,77.0,123.0,90.0,6.0,64.0
8503,68.0,1.0,90.0,7.0,64.0
8504,77.0,6.0,60.0,4.0,64.0
8505,73.0,3.0,90.0,8.0,64.0
8506,77.0,4.0,90.0,5.0,64.0
8507,80.0,8.0,60.0,4.0,64.0
8508,73.0,0.0,30.0,7.0,64.0
8509,80.0,51.0,60.0,6.0,64.0
8510,80.0,1.0,30.0,5.0,64.0
8511,71.0,1.0,30.0,8.0,64.0
8512,85.0,23.0,360.0,4.0,64.0
8513,78.0,8.0,330.0,7.0,64.0
8514,70.0,1.0,90.0,8.0,64.0
8515,85.0,3.0,300.0,6.0,64.0
8516,85.0,22.0,330.0,5.0,64.0
8517,59.0,56.0,30.0,10.0,64.0
8518,58.0,58.0,30.0,10.0,64.0
8519,59.0,8.0,60.0,10.0,64.0
8520,70.0,51.0,30.0,8.0,64.0
8521,61.0,39.0,30.0,10.0,64.0
8522,70.0,12.0,60.0,8.0,64.0
8523,59.0,9.0,30.0,10.0,64.0
8524,61.0,60.0,30.0,10.0,64.0
8525,58.0,2.0,60.0,10.0,64.0
8526,85.0,1.0,30.0,6.0,64.0
8527,68.0,4.0,30.0,8.0,64.0
8528,73.0,97.0,30.0,7.0,64.0
8529,85.0,1.0,30.0,4.0,64.0
8530,85.0,3.0,30.0,5.0,64.0
8531,85.0,4.0,300.0,6.0,64.0
8532,66.0,4.0,90.0,8.0,64.0
8533,70.0,126.0,90.0,7.0,64.0
8534,85.0,76.0,330.0,4.0,64.0
8535,63.0,52.0,510.0,10.0,64.0
8536,85.0,23.0,300.0,5.0,64.0
8537,78.0,11.0,30.0,7.0,64.0
8538,63.0,64.0,60.0,8.0,64.0
8539,78.0,4.0,90.0,7.0,64.0
8540,70.0,7.0,90.0,8.0,64.0
8541,75.0,1.0,30.0,6.0,64.0
8542,75.0,6.0,30.0,4.0,64.0
8543,75.0,9.0,30.0,5.0,64.0
8544,77.0,1.0,30.0,4.0,64.0
8545,77.0,18.0,30.0,6.0,64.0
8546,77.0,13.0,30.0,5.0,64.0
8547,78.0,6.0,30.0,4.0,64.0
8548,78.0,2.0,30.0,6.0,64.0
8549,66.0,0.0,30.0,8.0,64.0
8550,78.0,3.0,60.0,5.0,64.0
8551,77.0,9.0,30.0,7.0,64.0
8552,80.0,0.0,30.0,4.0,64.0
8553,80.0,10.0,30.0,6.0,64.0
8554,80.0,6.0,30.0,5.0,64.0
8555,82.0,3.0,30.0,4.0,64.0
8556,82.0,10.0,30.0,6.0,64.0
8557,82.0,12.0,30.0,5.0,64.0
8558,83.0,9.0,330.0,6.0,64.0
8559,83.0,35.0,360.0,4.0,64.0
8560,75.0,1.0,330.0,7.0,64.0
8561,66.0,13.0,90.0,8.0,64.0
8562,83.0,8.0,360.0,5.0,64.0
8563,64.0,53.0,30.0,10.0,64.0
8564,63.0,67.0,30.0,10.0,64.0
8565,61.0,6.0,30.0,10.0,64.0
8566,63.0,51.0,30.0,8.0,64.0
8567,59.0,46.0,30.0,10.0,64.0
8568,68.0,5.0,90.0,8.0,64.0
8569,58.0,21.0,30.0,10.0,64.0
8570,56.0,53.0,30.0,10.0,64.0
8571,54.0,104.0,60.0,10.0,64.0
8572,75.0,1.0,30.0,7.0,64.0
8573,83.0,1.0,30.0,6.0,64.0
8574,83.0,3.0,30.0,5.0,64.0
8575,68.0,1.0,30.0,8.0,64.0
8576,83.0,6.0,30.0,4.0,64.0
8577,83.0,24.0,330.0,6.0,64.0
8578,73.0,122.0,90.0,7.0,64.0
8579,83.0,9.0,300.0,5.0,64.0
8580,53.0,17.0,480.0,10.0,64.0
8581,83.0,44.0,360.0,4.0,64.0
8582,68.0,8.0,90.0,8.0,64.0
8583,73.0,4.0,30.0,8.0,64.0
8584,77.0,77.0,30.0,7.0,64.0
8585,73.0,17.0,90.0,8.0,64.0
8586,77.0,4.0,60.0,7.0,64.0
8587,82.0,22.0,30.0,5.0,64.0
8588,80.0,0.0,30.0,5.0,64.0
8589,82.0,10.0,30.0,4.0,64.0
8590,82.0,12.0,30.0,6.0,64.0
8591,80.0,0.0,30.0,4.0,64.0
8592,78.0,0.0,60.0,5.0,64.0
8593,80.0,16.0,30.0,6.0,64.0
8594,68.0,4.0,30.0,8.0,64.0
8595,77.0,3.0,30.0,5.0,64.0
8596,78.0,2.0,60.0,4.0,64.0
8597,80.0,3.0,30.0,7.0,64.0
8598,77.0,4.0,30.0,4.0,64.0
8599,78.0,2.0,30.0,6.0,64.0
8600,75.0,10.0,30.0,5.0,64.0
8601,75.0,13.0,30.0,4.0,64.0
8602,77.0,1.0,30.0,6.0,64.0
8603,80.0,4.0,90.0,7.0,64.0
8604,73.0,10.0,330.0,8.0,64.0
8605,75.0,55.0,30.0,6.0,64.0
8606,73.0,11.0,150.0,4.0,64.0
8607,73.0,9.0,120.0,5.0,64.0
8608,73.0,1.0,120.0,6.0,64.0
8609,54.0,43.0,30.0,10.0,64.0
8610,53.0,58.0,30.0,10.0,64.0
8611,51.0,9.0,60.0,10.0,64.0
8612,78.0,2.0,60.0,7.0,64.0
8613,71.0,3.0,30.0,5.0,64.0
8614,71.0,0.0,30.0,4.0,64.0
8615,71.0,11.0,30.0,6.0,64.0
8616,70.0,0.0,30.0,5.0,64.0
8617,70.0,4.0,30.0,4.0,64.0
8618,70.0,35.0,20.0,6.0,64.0
8619,80.0,15.0,60.0,7.0,64.0
8620,49.0,32.0,30.0,10.0,64.0
8621,71.0,5.0,90.0,5.0,64.0
8622,71.0,14.0,90.0,4.0,64.0
8623,71.0,40.0,90.0,6.0,64.0
8624,51.0,2.0,30.0,10.0,64.0
8625,53.0,52.0,60.0,10.0,64.0
8626,49.0,2.0,30.0,10.0,64.0
8627,80.0,2.0,30.0,5.0,64.0
8628,77.0,37.0,60.0,7.0,64.0
8629,80.0,1.0,30.0,4.0,64.0
8630,80.0,2.0,30.0,6.0,64.0
8631,73.0,10.0,30.0,8.0,64.0
8632,70.0,20.0,270.0,5.0,64.0
8633,70.0,12.0,240.0,6.0,64.0
8634,73.0,8.0,90.0,8.0,64.0
8635,70.0,0.0,270.0,4.0,64.0
8636,78.0,7.0,90.0,7.0,64.0
8637,54.0,22.0,510.0,10.0,64.0
8638,54.0,28.0,15.0,3.0,64.0
8639,54.0,23.0,15.0,3.0,64.0
8640,54.0,7.0,15.0,3.0,64.0
8641,54.0,27.0,15.0,3.0,64.0
8642,54.0,17.0,20.0,3.0,64.0
8643,54.0,49.0,15.0,3.0,64.0
8644,54.0,21.0,30.0,3.0,64.0
8645,73.0,8.0,30.0,7.0,64.0
8646,70.0,5.0,30.0,8.0,64.0
8647,90.0,4.0,30.0,0.0,64.0
8648,85.0,10.0,30.0,1.0,64.0
8649,82.0,1.0,30.0,2.0,64.0
8650,54.0,12.0,30.0,3.0,64.0
8651,73.0,0.0,90.0,7.0,64.0
8652,70.0,3.0,60.0,8.0,64.0
8653,90.0,2.0,60.0,0.0,64.0
8654,82.0,0.0,60.0,2.0,64.0
8655,85.0,8.0,60.0,1.0,64.0
8656,54.0,31.0,30.0,3.0,64.0
8657,71.0,5.0,30.0,6.0,64.0
8658,71.0,11.0,30.0,4.0,64.0
8659,71.0,44.0,30.0,5.0,64.0
8660,54.0,4.0,20.0,3.0,64.0
8661,73.0,10.0,30.0,6.0,64.0
8662,54.0,2.0,30.0,3.0,64.0
8663,73.0,9.0,30.0,4.0,64.0
8664,73.0,13.0,30.0,5.0,64.0
8665,54.0,19.0,15.0,3.0,64.0
8666,75.0,5.0,30.0,6.0,64.0
8667,66.0,3.0,30.0,8.0,64.0
8668,75.0,3.0,30.0,4.0,64.0
8669,70.0,1.0,30.0,7.0,64.0
8670,94.0,3.0,30.0,0.0,64.0
8671,90.0,1.0,30.0,1.0,64.0
8672,75.0,13.0,30.0,5.0,64.0
8673,85.0,0.0,30.0,2.0,64.0
8674,54.0,3.0,15.0,3.0,64.0
8675,54.0,20.0,15.0,3.0,64.0
8676,76.0,1.0,360.0,6.0,64.0
8677,61.0,3.0,90.0,8.0,64.0
8678,54.0,11.0,15.0,3.0,64.0
8679,70.0,6.0,60.0,7.0,64.0
8680,76.0,1.0,360.0,4.0,64.0
8681,90.0,2.0,60.0,1.0,64.0
8682,76.0,8.0,360.0,5.0,64.0
8683,94.0,16.0,60.0,0.0,64.0
8684,85.0,1.0,60.0,2.0,64.0
8685,54.0,15.0,15.0,3.0,64.0
8686,54.0,2.0,15.0,3.0,64.0
8687,56.0,29.0,30.0,10.0,64.0
8688,54.0,33.0,30.0,3.0,64.0
8689,54.0,13.0,30.0,10.0,64.0
8690,54.0,4.0,15.0,3.0,64.0
8691,54.0,33.0,15.0,3.0,64.0
8692,52.0,4.0,30.0,10.0,64.0
8693,66.0,2.0,30.0,8.0,64.0
8694,66.0,1.0,30.0,7.0,64.0
8695,90.0,1.0,30.0,2.0,64.0
8696,97.0,1.0,30.0,0.0,64.0
8697,94.0,6.0,30.0,1.0,64.0
8698,54.0,8.0,15.0,3.0,64.0
8699,54.0,30.0,20.0,3.0,64.0
8700,51.0,24.0,60.0,10.0,64.0
8701,70.0,3.0,60.0,8.0,64.0
8702,54.0,24.0,15.0,3.0,64.0
8703,97.0,1.0,60.0,0.0,64.0
8704,94.0,12.0,60.0,1.0,64.0
8705,66.0,20.0,330.0,7.0,64.0
8706,90.0,0.0,60.0,2.0,64.0
8707,54.0,5.0,15.0,3.0,64.0
8708,49.0,7.0,30.0,10.0,64.0
8709,54.0,2.0,15.0,3.0,64.0
8710,54.0,21.0,15.0,3.0,64.0
8711,47.0,32.0,60.0,10.0,64.0
8712,54.0,18.0,15.0,3.0,64.0
8713,54.0,11.0,15.0,3.0,64.0
8714,54.0,19.0,30.0,3.0,64.0
8715,73.0,24.0,60.0,8.0,64.0
8716,46.0,1.0,30.0,10.0,64.0
8717,78.0,0.0,30.0,5.0,64.0
8718,78.0,4.0,30.0,4.0,64.0
8719,78.0,2.0,30.0,6.0,64.0
8720,95.0,1.0,30.0,1.0,64.0
8721,99.0,2.0,30.0,0.0,64.0
8722,90.0,3.0,30.0,2.0,64.0
8723,54.0,36.0,20.0,3.0,64.0
8724,71.0,5.0,90.0,8.0,64.0
8725,75.0,5.0,270.0,4.0,64.0
8726,75.0,0.0,270.0,5.0,64.0
8727,75.0,3.0,270.0,6.0,64.0
8728,47.0,9.0,1200.0,10.0,64.0
8729,99.0,1.0,90.0,0.0,64.0
8730,90.0,7.0,90.0,2.0,64.0
8731,95.0,90.0,90.0,1.0,64.0
8732,54.0,39.0,20.0,3.0,64.0
8733,70.0,5.0,60.0,7.0,64.0
8734,66.0,19.0,60.0,8.0,64.0
8735,54.0,14.0,15.0,3.0,64.0
8736,54.0,10.0,15.0,3.0,64.0
8737,54.0,21.0,20.0,3.0,64.0
8738,71.0,9.0,90.0,7.0,64.0
8739,68.0,4.0,90.0,8.0,64.0
8740,54.0,44.0,20.0,3.0,64.0
8741,73.0,7.0,30.0,6.0,64.0
8742,73.0,46.0,30.0,4.0,64.0
8743,73.0,1.0,30.0,5.0,64.0
8744,71.0,3.0,30.0,6.0,64.0
8745,71.0,47.0,30.0,5.0,64.0
8746,71.0,4.0,30.0,4.0,64.0
8747,70.0,1.0,60.0,6.0,64.0
8748,70.0,10.0,30.0,5.0,64.0
8749,70.0,0.0,30.0,4.0,64.0
8750,70.0,51.0,60.0,8.0,64.0
8751,54.0,11.0,20.0,3.0,64.0
8752,73.0,1.0,30.0,7.0,64.0
8753,68.0,0.0,60.0,6.0,64.0
8754,68.0,37.0,60.0,5.0,64.0
8755,68.0,5.0,60.0,4.0,64.0
8756,75.0,0.0,90.0,7.0,64.0
8757,71.0,0.0,90.0,8.0,64.0
8758,54.0,5.0,30.0,3.0,64.0
8759,99.0,8.0,90.0,1.0,64.0
8760,95.0,3.0,90.0,0.0,64.0
8761,92.0,4.0,60.0,2.0,64.0
8762,70.0,0.0,30.0,4.0,64.0
8763,70.0,58.0,60.0,5.0,64.0
8764,70.0,4.0,30.0,6.0,64.0
8765,71.0,8.0,60.0,6.0,64.0
8766,71.0,2.0,60.0,4.0,64.0
8767,71.0,49.0,60.0,5.0,64.0
8768,73.0,1.0,30.0,4.0,64.0
8769,73.0,4.0,30.0,6.0,64.0
8770,73.0,7.0,60.0,5.0,64.0
8771,77.0,1.0,60.0,7.0,64.0
8772,68.0,50.0,60.0,8.0,64.0
8773,75.0,8.0,60.0,6.0,64.0
8774,75.0,1.0,60.0,4.0,64.0
8775,78.0,15.0,90.0,7.0,64.0
8776,75.0,27.0,60.0,5.0,64.0
8777,70.0,13.0,90.0,8.0,64.0
8778,77.0,52.0,60.0,4.0,64.0
8779,77.0,2.0,60.0,6.0,64.0
8780,77.0,0.0,60.0,5.0,64.0
8781,78.0,1.0,30.0,6.0,64.0
8782,78.0,5.0,30.0,4.0,64.0
8783,78.0,60.0,30.0,5.0,64.0
8784,75.0,1.0,60.0,6.0,64.0
8785,80.0,2.0,60.0,7.0,64.0
8786,75.0,1.0,60.0,4.0,64.0
8787,71.0,0.0,60.0,8.0,64.0
8788,75.0,44.0,60.0,5.0,64.0
8789,77.0,1.0,30.0,4.0,64.0
8790,77.0,1.0,30.0,6.0,64.0
8791,77.0,5.0,30.0,5.0,64.0
8792,68.0,9.0,90.0,8.0,64.0
8793,73.0,1.0,90.0,7.0,64.0
8794,49.0,13.0,20.0,3.0,64.0
8795,49.0,28.0,15.0,3.0,64.0
8796,78.0,6.0,30.0,4.0,64.0
8797,78.0,25.0,60.0,6.0,64.0
8798,78.0,1.0,30.0,5.0,64.0
8799,49.0,5.0,20.0,3.0,64.0
8800,49.0,6.0,15.0,3.0,64.0
8801,77.0,0.0,60.0,4.0,64.0
8802,49.0,26.0,15.0,3.0,64.0
8803,77.0,21.0,60.0,6.0,64.0
8804,77.0,5.0,30.0,5.0,64.0
8805,49.0,3.0,20.0,3.0,64.0
8806,49.0,23.0,20.0,3.0,64.0
8807,75.0,1.0,30.0,4.0,64.0
8808,85.0,3.0,30.0,2.0,64.0
8809,75.0,1.0,60.0,6.0,64.0
8810,75.0,3.0,30.0,5.0,64.0
8811,68.0,3.0,30.0,7.0,64.0
8812,80.0,1.0,30.0,0.0,64.0
8813,85.0,4.0,30.0,1.0,64.0
8814,73.0,17.0,30.0,8.0,64.0
8815,49.0,1.0,20.0,3.0,64.0
8816,49.0,14.0,20.0,3.0,64.0
8817,73.0,1.0,60.0,4.0,64.0
8818,73.0,3.0,60.0,6.0,64.0
8819,73.0,4.0,60.0,5.0,64.0
8820,65.0,0.0,60.0,7.0,64.0
8821,85.0,17.0,60.0,2.0,64.0
8822,80.0,0.0,60.0,0.0,64.0
8823,73.0,11.0,60.0,8.0,64.0
8824,49.0,19.0,20.0,3.0,64.0
8825,85.0,2.0,60.0,1.0,64.0
8826,49.0,12.0,30.0,3.0,64.0
8827,75.0,7.0,60.0,4.0,64.0
8828,75.0,2.0,60.0,6.0,64.0
8829,75.0,1.0,60.0,5.0,64.0
8830,46.0,7.0,30.0,10.0,64.0
8831,49.0,43.0,20.0,3.0,64.0
8832,77.0,0.0,30.0,6.0,64.0
8833,44.0,1.0,30.0,10.0,64.0
8834,49.0,8.0,30.0,3.0,64.0
8835,77.0,3.0,30.0,4.0,64.0
8836,77.0,32.0,30.0,5.0,64.0
8837,49.0,11.0,30.0,3.0,64.0
8838,78.0,1.0,60.0,6.0,64.0
8839,42.0,5.0,30.0,10.0,64.0
8840,68.0,1.0,30.0,8.0,64.0
8841,85.0,2.0,30.0,2.0,64.0
8842,78.0,18.0,60.0,4.0,64.0
8843,85.0,0.0,30.0,0.0,64.0
8844,78.0,1.0,30.0,5.0,64.0
8845,61.0,5.0,30.0,7.0,64.0
8846,92.0,0.0,30.0,1.0,64.0
8847,49.0,32.0,30.0,3.0,64.0
8848,80.0,6.0,30.0,6.0,64.0
8849,41.0,11.0,90.0,10.0,64.0
8850,80.0,2.0,60.0,4.0,64.0
8851,68.0,0.0,60.0,8.0,64.0
8852,73.0,2.0,60.0,7.0,64.0
8853,85.0,5.0,60.0,0.0,64.0
8854,85.0,7.0,60.0,2.0,64.0
8855,92.0,2.0,60.0,1.0,64.0
8856,80.0,9.0,60.0,5.0,64.0
8857,49.0,7.0,30.0,3.0,64.0
8858,82.0,13.0,30.0,6.0,64.0
8859,82.0,42.0,30.0,4.0,64.0
8860,82.0,2.0,30.0,5.0,64.0
8861,83.0,14.0,30.0,6.0,64.0
8862,83.0,38.0,60.0,4.0,64.0
8863,83.0,2.0,30.0,5.0,64.0
8864,85.0,4.0,30.0,6.0,64.0
8865,65.0,4.0,30.0,8.0,64.0
8866,49.0,3.0,30.0,10.0,64.0
8867,82.0,0.0,30.0,2.0,64.0
8868,70.0,0.0,30.0,7.0,64.0
8869,49.0,0.0,30.0,3.0,64.0
8870,85.0,0.0,30.0,4.0,64.0
8871,94.0,1.0,30.0,1.0,64.0
8872,87.0,0.0,30.0,0.0,64.0
8873,85.0,28.0,30.0,5.0,64.0
8874,49.0,28.0,20.0,3.0,64.0
8875,83.0,6.0,60.0,6.0,64.0
8876,66.0,1.0,60.0,7.0,64.0
8877,51.0,0.0,90.0,10.0,64.0
8878,66.0,6.0,60.0,8.0,64.0
8879,83.0,10.0,30.0,4.0,64.0
8880,94.0,5.0,60.0,1.0,64.0
8881,83.0,8.0,60.0,5.0,64.0
8882,83.0,8.0,60.0,0.0,64.0
8883,78.0,3.0,60.0,2.0,64.0
8884,54.0,0.0,30.0,3.0,64.0
8885,82.0,11.0,30.0,6.0,64.0
8886,82.0,4.0,30.0,4.0,64.0
8887,82.0,46.0,30.0,5.0,64.0
8888,83.0,7.0,30.0,6.0,64.0
8889,83.0,3.0,30.0,4.0,64.0
8890,83.0,44.0,30.0,5.0,64.0
8891,80.0,1.0,30.0,6.0,64.0
8892,73.0,5.0,30.0,7.0,64.0
8893,68.0,1.0,30.0,8.0,64.0
8894,85.0,1.0,30.0,0.0,64.0
8895,92.0,0.0,30.0,1.0,64.0
8896,80.0,0.0,30.0,4.0,64.0
8897,53.0,3.0,30.0,10.0,64.0
8898,85.0,4.0,30.0,2.0,64.0
8899,80.0,1.0,30.0,5.0,64.0
8900,49.0,66.0,30.0,3.0,64.0
8901,73.0,12.0,90.0,7.0,64.0
8902,82.0,60.0,150.0,6.0,64.0
8903,82.0,3.0,90.0,0.0,64.0
8904,54.0,32.0,90.0,10.0,64.0
8905,61.0,4.0,60.0,8.0,64.0
8906,90.0,2.0,60.0,1.0,64.0
8907,82.0,2.0,120.0,4.0,64.0
8908,85.0,4.0,60.0,2.0,64.0
8909,54.0,23.0,30.0,3.0,64.0
8910,82.0,3.0,120.0,5.0,64.0
8911,80.0,2.0,30.0,6.0,64.0
8912,80.0,2.0,30.0,4.0,64.0
8913,68.0,1.0,30.0,8.0,64.0
8914,85.0,2.0,30.0,1.0,64.0
8915,80.0,12.0,20.0,5.0,64.0
8916,71.0,2.0,60.0,7.0,64.0
8917,56.0,0.0,30.0,10.0,64.0
8918,83.0,6.0,30.0,0.0,64.0
8919,85.0,1.0,30.0,2.0,64.0
8920,49.0,0.0,30.0,3.0,64.0
8921,78.0,3.0,30.0,6.0,64.0
8922,78.0,15.0,30.0,4.0,64.0
8923,78.0,0.0,30.0,5.0,64.0
8924,77.0,9.0,20.0,4.0,64.0
8925,77.0,1.0,20.0,5.0,64.0
8926,77.0,26.0,30.0,6.0,64.0
8927,66.0,15.0,60.0,8.0,64.0
8928,73.0,6.0,90.0,7.0,64.0
8929,54.0,26.0,30.0,3.0,64.0
8930,90.0,4.0,60.0,1.0,64.0
8931,85.0,7.0,60.0,2.0,64.0
8932,58.0,1.0,90.0,10.0,64.0
8933,82.0,16.0,90.0,0.0,64.0
8934,78.0,1.0,90.0,5.0,64.0
8935,78.0,97.0,90.0,4.0,64.0
8936,78.0,0.0,90.0,6.0,64.0
8937,71.0,1.0,30.0,8.0,64.0
8938,75.0,1.0,30.0,4.0,64.0
8939,85.0,1.0,30.0,2.0,64.0
8940,85.0,4.0,30.0,1.0,64.0
8941,54.0,1.0,30.0,3.0,64.0
8942,75.0,2.0,30.0,5.0,64.0
8943,80.0,1.0,30.0,0.0,64.0
8944,75.0,2.0,30.0,7.0,64.0
8945,59.0,1.0,30.0,10.0,64.0
8946,75.0,58.0,30.0,6.0,64.0
8947,78.0,2.0,90.0,4.0,64.0
8948,70.0,1.0,60.0,8.0,64.0
8949,85.0,2.0,90.0,1.0,64.0
8950,82.0,7.0,60.0,0.0,64.0
8951,49.0,36.0,30.0,3.0,64.0
8952,85.0,7.0,330.0,2.0,64.0
8953,78.0,4.0,60.0,5.0,64.0
8954,78.0,4.0,90.0,6.0,64.0
8955,61.0,1.0,120.0,10.0,64.0
8956,73.0,8.0,150.0,7.0,64.0
8957,80.0,4.0,30.0,0.0,64.0
8958,68.0,11.0,30.0,8.0,64.0
8959,77.0,1.0,30.0,4.0,64.0
8960,77.0,9.0,30.0,6.0,64.0
8961,77.0,3.0,30.0,5.0,64.0
8962,82.0,2.0,30.0,0.0,64.0
8963,70.0,14.0,30.0,8.0,64.0
8964,78.0,1.0,30.0,6.0,64.0
8965,78.0,2.0,30.0,5.0,64.0
8966,78.0,1.0,30.0,4.0,64.0
8967,68.0,5.0,20.0,8.0,64.0
8968,80.0,2.0,15.0,0.0,64.0
8969,49.0,9.0,20.0,3.0,64.0
8970,77.0,3.0,20.0,6.0,64.0
8971,77.0,1.0,20.0,5.0,64.0
8972,77.0,1.0,20.0,4.0,64.0
8973,82.0,3.0,20.0,0.0,64.0
8974,70.0,2.0,20.0,8.0,64.0
8975,78.0,3.0,20.0,6.0,64.0
8976,78.0,4.0,20.0,5.0,64.0
8977,80.0,4.0,20.0,0.0,64.0
8978,68.0,8.0,30.0,8.0,64.0
8979,78.0,3.0,20.0,4.0,64.0
8980,77.0,3.0,20.0,6.0,64.0
8981,82.0,0.0,30.0,1.0,64.0
8982,77.0,3.0,20.0,5.0,64.0
8983,49.0,7.0,30.0,3.0,64.0
8984,82.0,0.0,20.0,0.0,64.0
8985,70.0,4.0,20.0,8.0,64.0
8986,77.0,1.0,20.0,4.0,64.0
8987,78.0,2.0,20.0,6.0,64.0
8988,78.0,6.0,20.0,5.0,64.0
8989,80.0,13.0,20.0,0.0,64.0
8990,68.0,1.0,20.0,8.0,64.0
8991,78.0,0.0,20.0,4.0,64.0
8992,77.0,1.0,20.0,6.0,64.0
8993,77.0,5.0,20.0,5.0,64.0
8994,70.0,2.0,20.0,8.0,64.0
8995,77.0,1.0,20.0,4.0,64.0
8996,82.0,12.0,20.0,0.0,64.0
8997,78.0,6.0,20.0,6.0,64.0
8998,78.0,0.0,20.0,5.0,64.0
8999,68.0,15.0,90.0,8.0,64.0
9000,80.0,5.0,90.0,0.0,64.0
9001,78.0,19.0,20.0,4.0,64.0
9002,73.0,50.0,150.0,7.0,64.0
9003,49.0,39.0,30.0,3.0,64.0
9004,77.0,2.0,120.0,6.0,64.0
9005,85.0,8.0,60.0,1.0,64.0
9006,77.0,8.0,90.0,5.0,64.0
9007,49.0,9.0,120.0,10.0,64.0
9008,77.0,13.0,120.0,4.0,64.0
9009,70.0,1.0,30.0,8.0,64.0
9010,78.0,12.0,30.0,0.0,64.0
9011,78.0,4.0,30.0,6.0,64.0
9012,78.0,7.0,30.0,4.0,64.0
9013,49.0,1.0,30.0,3.0,64.0
9014,85.0,67.0,30.0,1.0,64.0
9015,85.0,0.0,30.0,2.0,64.0
9016,78.0,2.0,20.0,5.0,64.0
9017,73.0,2.0,120.0,7.0,64.0
9018,54.0,3.0,30.0,3.0,64.0
9019,78.0,1.0,90.0,0.0,64.0
9020,70.0,3.0,90.0,8.0,64.0
9021,85.0,8.0,90.0,2.0,64.0
9022,82.0,12.0,90.0,1.0,64.0
9023,78.0,13.0,30.0,6.0,64.0
9024,42.0,12.0,90.0,10.0,64.0
9025,78.0,65.0,120.0,5.0,64.0
9026,78.0,21.0,60.0,4.0,64.0
9027,73.0,50.0,60.0,6.0,64.0
9028,73.0,2.0,60.0,4.0,64.0
9029,75.0,1.0,60.0,6.0,64.0
9030,75.0,62.0,60.0,4.0,64.0
9031,77.0,113.0,60.0,6.0,64.0
9032,77.0,4.0,60.0,4.0,64.0
9033,77.0,2.0,60.0,4.0,64.0
9034,77.0,41.0,60.0,6.0,64.0
9035,78.0,83.0,30.0,6.0,64.0
9036,78.0,2.0,30.0,4.0,64.0
9037,80.0,109.0,60.0,6.0,64.0
9038,80.0,0.0,60.0,4.0,64.0
9039,77.0,1.0,60.0,4.0,64.0
9040,77.0,51.0,60.0,6.0,64.0
9041,78.0,3.0,60.0,4.0,64.0
9042,78.0,67.0,60.0,6.0,64.0
9043,80.0,107.0,60.0,6.0,64.0
9044,80.0,9.0,60.0,4.0,64.0
9045,80.0,34.0,60.0,4.0,64.0
9046,80.0,6.0,60.0,6.0,64.0
9047,82.0,4.0,30.0,4.0,64.0
9048,82.0,77.0,30.0,6.0,64.0
9049,83.0,105.0,60.0,6.0,64.0
9050,83.0,9.0,60.0,4.0,64.0
9051,83.0,7.0,60.0,6.0,64.0
9052,83.0,35.0,60.0,4.0,64.0
9053,82.0,5.0,60.0,6.0,64.0
9054,82.0,78.0,30.0,4.0,64.0
9055,83.0,104.0,60.0,6.0,64.0
9056,83.0,6.0,60.0,4.0,64.0
9057,85.0,14.0,60.0,6.0,64.0
9058,85.0,34.0,60.0,4.0,64.0
9059,83.0,71.0,30.0,4.0,64.0
9060,83.0,4.0,30.0,6.0,64.0
9061,82.0,113.0,60.0,6.0,64.0
9062,82.0,3.0,60.0,4.0,64.0
9063,66.0,3.0,60.0,5.0,64.0
9064,85.0,1.0,30.0,6.0,64.0
9065,66.0,44.0,60.0,7.0,64.0
9066,85.0,8.0,30.0,4.0,64.0
9067,68.0,5.0,60.0,5.0,64.0
9068,68.0,62.0,60.0,7.0,64.0
9069,70.0,114.0,60.0,5.0,64.0
9070,70.0,7.0,60.0,7.0,64.0
9071,78.0,5.0,60.0,6.0,64.0
9072,78.0,1.0,60.0,4.0,64.0
9073,70.0,6.0,60.0,7.0,64.0
9074,82.0,4.0,180.0,6.0,64.0
9075,82.0,19.0,150.0,4.0,64.0
9076,70.0,35.0,60.0,5.0,64.0
9077,71.0,12.0,30.0,7.0,64.0
9078,71.0,60.0,60.0,5.0,64.0
9079,73.0,0.0,60.0,7.0,64.0
9080,73.0,100.0,60.0,5.0,64.0
9081,70.0,48.0,60.0,7.0,64.0
9082,85.0,0.0,60.0,4.0,64.0
9083,70.0,6.0,60.0,5.0,64.0
9084,85.0,1.0,30.0,6.0,64.0
9085,71.0,13.0,60.0,5.0,64.0
9086,71.0,57.0,60.0,7.0,64.0
9087,73.0,110.0,60.0,5.0,64.0
9088,73.0,0.0,60.0,7.0,64.0
9089,76.0,7.0,60.0,4.0,64.0
9090,76.0,10.0,60.0,6.0,64.0
9091,73.0,41.0,60.0,5.0,64.0
9092,82.0,9.0,180.0,6.0,64.0
9093,73.0,3.0,60.0,7.0,64.0
9094,82.0,11.0,150.0,4.0,64.0
9095,75.0,4.0,60.0,7.0,64.0
9096,75.0,59.0,60.0,5.0,64.0
9097,76.0,0.0,60.0,7.0,64.0
9098,76.0,104.0,60.0,5.0,64.0
9099,85.0,3.0,60.0,6.0,64.0
9100,76.0,3.0,60.0,7.0,64.0
9101,85.0,9.0,60.0,4.0,64.0
9102,76.0,32.0,60.0,5.0,64.0
9103,75.0,73.0,60.0,7.0,64.0
9104,75.0,6.0,30.0,5.0,64.0
9105,76.0,108.0,60.0,7.0,64.0
9106,76.0,2.0,60.0,5.0,64.0
9107,78.0,6.0,60.0,4.0,64.0
9108,78.0,0.0,60.0,6.0,64.0
9109,78.0,3.0,60.0,7.0,64.0
9110,82.0,0.0,60.0,4.0,64.0
9111,78.0,8.0,60.0,5.0,64.0
9112,82.0,40.0,60.0,6.0,64.0
9113,76.0,68.0,60.0,7.0,64.0
9114,76.0,0.0,30.0,5.0,64.0
9115,75.0,105.0,60.0,7.0,64.0
9116,83.0,2.0,60.0,4.0,64.0
9117,75.0,2.0,60.0,5.0,64.0
9118,83.0,11.0,60.0,6.0,64.0
9119,87.0,3.0,60.0,4.0,64.0
9120,71.0,4.0,60.0,7.0,64.0
9121,87.0,6.0,60.0,6.0,64.0
9122,71.0,47.0,60.0,5.0,64.0
9123,73.0,4.0,60.0,7.0,64.0
9124,73.0,58.0,60.0,5.0,64.0
9125,75.0,10.0,60.0,7.0,64.0
9126,75.0,115.0,60.0,5.0,64.0
9127,78.0,4.0,60.0,4.0,64.0
9128,78.0,4.0,60.0,6.0,64.0
9129,75.0,39.0,60.0,5.0,64.0
9130,75.0,1.0,60.0,7.0,64.0
9131,84.0,7.0,180.0,4.0,64.0
9132,84.0,0.0,180.0,6.0,64.0
9133,77.0,0.0,60.0,5.0,64.0
9134,77.0,69.0,60.0,7.0,64.0
9135,78.0,15.0,60.0,7.0,64.0
9136,78.0,93.0,60.0,5.0,64.0
9137,78.0,2.0,60.0,7.0,64.0
9138,87.0,8.0,60.0,6.0,64.0
9139,78.0,35.0,60.0,5.0,64.0
9140,87.0,1.0,60.0,4.0,64.0
9141,77.0,3.0,60.0,7.0,64.0
9142,77.0,73.0,60.0,5.0,64.0
9143,78.0,9.0,60.0,7.0,64.0
9144,78.0,99.0,60.0,5.0,64.0
9145,80.0,4.0,60.0,6.0,64.0
9146,80.0,1.0,60.0,4.0,64.0
9147,80.0,3.0,60.0,7.0,64.0
9148,80.0,36.0,60.0,5.0,64.0
9149,84.0,8.0,30.0,4.0,64.0
9150,84.0,7.0,60.0,6.0,64.0
9151,78.0,3.0,60.0,7.0,64.0
9152,78.0,68.0,60.0,5.0,64.0
9153,77.0,11.0,60.0,7.0,64.0
9154,85.0,2.0,60.0,4.0,64.0
9155,77.0,5.0,60.0,5.0,64.0
9156,85.0,36.0,60.0,6.0,64.0
9157,80.0,1.0,60.0,4.0,64.0
9158,80.0,61.0,30.0,6.0,64.0
9159,77.0,0.0,60.0,4.0,64.0
9160,80.0,2.0,60.0,7.0,64.0
9161,80.0,3.0,30.0,5.0,64.0
9162,77.0,6.0,60.0,6.0,64.0
9163,61.0,47.0,60.0,8.0,64.0
9164,78.0,1.0,60.0,4.0,64.0
9165,63.0,0.0,60.0,8.0,64.0
9166,78.0,53.0,60.0,6.0,64.0
9167,80.0,5.0,60.0,4.0,64.0
9168,65.0,45.0,60.0,8.0,64.0
9169,73.0,7.0,30.0,5.0,64.0
9170,80.0,10.0,60.0,6.0,64.0
9171,73.0,1.0,60.0,7.0,64.0
9172,82.0,3.0,60.0,4.0,64.0
9173,82.0,66.0,60.0,6.0,64.0
9174,80.0,25.0,60.0,4.0,64.0
9175,80.0,7.0,60.0,6.0,64.0
9176,65.0,4.0,60.0,8.0,64.0
9177,77.0,10.0,180.0,7.0,64.0
9178,77.0,3.0,180.0,5.0,64.0
9179,66.0,8.0,60.0,8.0,64.0
9180,82.0,3.0,60.0,4.0,64.0
9181,82.0,65.0,60.0,6.0,64.0
9182,68.0,36.0,60.0,8.0,64.0
9183,83.0,1.0,60.0,4.0,64.0
9184,83.0,2.0,60.0,6.0,64.0
9185,80.0,57.0,60.0,4.0,64.0
9186,80.0,5.0,60.0,6.0,64.0
9187,73.0,9.0,60.0,6.0,64.0
9188,73.0,29.0,60.0,4.0,64.0
9189,80.0,6.0,60.0,5.0,64.0
9190,80.0,7.0,30.0,7.0,64.0
9191,65.0,3.0,60.0,8.0,64.0
9192,66.0,7.0,60.0,8.0,64.0
9193,75.0,2.0,60.0,6.0,64.0
9194,75.0,58.0,60.0,4.0,64.0
9195,68.0,6.0,60.0,8.0,64.0
9196,77.0,39.0,60.0,6.0,64.0
9197,77.0,1.0,60.0,4.0,64.0
9198,71.0,8.0,30.0,5.0,64.0
9199,71.0,1.0,60.0,7.0,64.0
9200,78.0,64.0,60.0,6.0,64.0
9201,78.0,1.0,60.0,4.0,64.0
9202,77.0,5.0,60.0,6.0,64.0
9203,77.0,14.0,60.0,4.0,64.0
9204,77.0,6.0,180.0,5.0,64.0
9205,68.0,30.0,60.0,8.0,64.0
9206,77.0,32.0,180.0,7.0,64.0
9207,78.0,67.0,60.0,6.0,64.0
9208,78.0,9.0,60.0,4.0,64.0
9209,70.0,3.0,60.0,8.0,64.0
9210,80.0,3.0,60.0,4.0,64.0
9211,80.0,11.0,60.0,6.0,64.0
9212,71.0,5.0,60.0,8.0,64.0
9213,78.0,1.0,60.0,4.0,64.0
9214,78.0,56.0,60.0,6.0,64.0
9215,77.0,3.0,60.0,4.0,64.0
9216,77.0,6.0,60.0,6.0,64.0
9217,80.0,3.0,60.0,5.0,64.0
9218,80.0,0.0,60.0,7.0,64.0
9219,71.0,35.0,60.0,8.0,64.0
9220,70.0,73.0,60.0,8.0,64.0
9221,78.0,3.0,60.0,6.0,64.0
9222,78.0,1.0,60.0,4.0,64.0
9223,73.0,1.0,60.0,5.0,64.0
9224,80.0,2.0,60.0,6.0,64.0
9225,71.0,4.0,60.0,8.0,64.0
9226,80.0,1.0,60.0,4.0,64.0
9227,73.0,54.0,60.0,7.0,64.0
9228,78.0,38.0,60.0,6.0,64.0
9229,78.0,3.0,60.0,4.0,64.0
9230,77.0,0.0,60.0,6.0,64.0
9231,77.0,12.0,60.0,4.0,64.0
9232,77.0,9.0,30.0,5.0,64.0
9233,73.0,37.0,60.0,8.0,64.0
9234,77.0,9.0,60.0,7.0,64.0
9235,75.0,6.0,60.0,6.0,64.0
9236,75.0,45.0,60.0,4.0,64.0
9237,71.0,8.0,60.0,8.0,64.0
9238,73.0,0.0,60.0,6.0,64.0
9239,70.0,10.0,60.0,8.0,64.0
9240,73.0,37.0,60.0,4.0,64.0
9241,78.0,5.0,60.0,5.0,64.0
9242,78.0,2.0,60.0,7.0,64.0
9243,73.0,2.0,30.0,5.0,64.0
9244,78.0,31.0,90.0,4.0,64.0
9245,78.0,2.0,60.0,6.0,64.0
9246,73.0,33.0,30.0,7.0,64.0
9247,70.0,0.0,60.0,5.0,64.0
9248,77.0,24.0,90.0,4.0,64.0
9249,77.0,1.0,60.0,6.0,64.0
9250,70.0,14.0,60.0,7.0,64.0
9251,73.0,2.0,30.0,8.0,64.0
9252,54.0,6.0,60.0,10.0,64.0
9253,71.0,2.0,60.0,5.0,64.0
9254,75.0,4.0,60.0,6.0,64.0
9255,75.0,53.0,60.0,4.0,64.0
9256,71.0,8.0,30.0,7.0,64.0
9257,56.0,3.0,60.0,10.0,64.0
9258,73.0,3.0,60.0,6.0,64.0
9259,73.0,6.0,60.0,5.0,64.0
9260,73.0,3.0,60.0,7.0,64.0
9261,73.0,12.0,60.0,4.0,64.0
9262,58.0,21.0,60.0,10.0,64.0
9263,66.0,0.0,30.0,8.0,64.0
9264,75.0,8.0,30.0,5.0,64.0
9265,71.0,13.0,60.0,6.0,64.0
9266,71.0,38.0,60.0,4.0,64.0
9267,75.0,9.0,30.0,7.0,64.0
9268,70.0,8.0,60.0,6.0,64.0
9269,73.0,4.0,60.0,5.0,64.0
9270,73.0,2.0,60.0,7.0,64.0
9271,70.0,2.0,60.0,4.0,64.0
9272,58.0,28.0,60.0,10.0,64.0
9273,70.0,5.0,180.0,8.0,64.0
9274,68.0,7.0,30.0,6.0,64.0
9275,75.0,1.0,60.0,5.0,64.0
9276,75.0,2.0,30.0,7.0,64.0
9277,68.0,2.0,30.0,4.0,64.0
9278,59.0,77.0,30.0,10.0,64.0
9279,76.0,6.0,60.0,5.0,64.0
9280,61.0,9.0,60.0,10.0,64.0
9281,66.0,1.0,90.0,6.0,64.0
9282,76.0,0.0,60.0,7.0,64.0
9283,66.0,14.0,60.0,4.0,64.0
9284,73.0,4.0,30.0,5.0,64.0
9285,73.0,77.0,30.0,7.0,64.0
9286,66.0,0.0,60.0,7.0,64.0
9287,66.0,9.0,60.0,5.0,64.0
9288,58.0,6.0,60.0,10.0,64.0
9289,90.0,3.0,90.0,0.0,64.0
9290,73.0,30.0,60.0,8.0,64.0
9291,78.0,59.0,90.0,6.0,64.0
9292,78.0,0.0,90.0,4.0,64.0
9293,68.0,6.0,30.0,7.0,64.0
9294,59.0,6.0,60.0,10.0,64.0
9295,68.0,5.0,60.0,5.0,64.0
9296,70.0,5.0,60.0,7.0,64.0
9297,70.0,2.0,60.0,5.0,64.0
9298,61.0,16.0,90.0,10.0,64.0
9299,90.0,6.0,90.0,0.0,64.0
9300,64.0,18.0,60.0,8.0,64.0
9301,78.0,1.0,90.0,6.0,64.0
9302,78.0,55.0,90.0,4.0,64.0
9303,71.0,10.0,60.0,7.0,64.0
9304,71.0,0.0,60.0,5.0,64.0
9305,70.0,2.0,60.0,7.0,64.0
9306,70.0,27.0,60.0,5.0,64.0
9307,90.0,4.0,90.0,0.0,64.0
9308,78.0,7.0,90.0,6.0,64.0
9309,78.0,1.0,90.0,4.0,64.0
9310,61.0,26.0,60.0,10.0,64.0
9311,70.0,9.0,150.0,8.0,64.0
9312,71.0,3.0,60.0,7.0,64.0
9313,71.0,0.0,30.0,5.0,64.0
9314,63.0,62.0,60.0,10.0,64.0
9315,73.0,22.0,90.0,7.0,64.0
9316,73.0,9.0,60.0,5.0,64.0
9317,64.0,8.0,60.0,10.0,64.0
9318,90.0,7.0,90.0,0.0,64.0
9319,78.0,2.0,90.0,6.0,64.0
9320,78.0,1.0,90.0,4.0,64.0
9321,71.0,17.0,60.0,5.0,64.0
9322,71.0,35.0,60.0,7.0,64.0
9323,70.0,6.0,60.0,5.0,64.0
9324,73.0,4.0,30.0,8.0,64.0
9325,70.0,5.0,60.0,7.0,64.0
9326,90.0,3.0,90.0,1.0,64.0
9327,94.0,0.0,90.0,0.0,64.0
9328,78.0,6.0,90.0,6.0,64.0
9329,54.0,12.0,30.0,3.0,64.0
9330,85.0,1.0,90.0,2.0,64.0
9331,64.0,24.0,60.0,10.0,64.0
9332,78.0,3.0,90.0,4.0,64.0
9333,71.0,9.0,60.0,5.0,64.0
9334,63.0,1.0,60.0,10.0,64.0
9335,71.0,50.0,60.0,7.0,64.0
9336,64.0,2.0,60.0,10.0,64.0
9337,78.0,7.0,90.0,6.0,64.0
9338,66.0,2.0,60.0,8.0,64.0
9339,90.0,1.0,90.0,1.0,64.0
9340,85.0,13.0,60.0,2.0,64.0
9341,78.0,4.0,90.0,4.0,64.0
9342,94.0,17.0,90.0,0.0,64.0
9343,73.0,12.0,60.0,5.0,64.0
9344,73.0,4.0,60.0,7.0,64.0
9345,54.0,13.0,30.0,3.0,64.0
9346,71.0,19.0,60.0,5.0,64.0
9347,71.0,27.0,90.0,7.0,64.0
9348,70.0,6.0,60.0,7.0,64.0
9349,70.0,10.0,60.0,5.0,64.0
9350,70.0,3.0,60.0,8.0,64.0
9351,78.0,0.0,90.0,4.0,64.0
9352,78.0,10.0,90.0,6.0,64.0
9353,82.0,2.0,90.0,2.0,64.0
9354,90.0,3.0,90.0,1.0,64.0
9355,66.0,16.0,60.0,10.0,64.0
9356,54.0,4.0,30.0,3.0,64.0
9357,97.0,4.0,60.0,0.0,64.0
9358,64.0,1.0,60.0,10.0,64.0
9359,68.0,67.0,60.0,5.0,64.0
9360,68.0,1.0,30.0,7.0,64.0
9361,78.0,11.0,90.0,6.0,64.0
9362,78.0,21.0,90.0,4.0,64.0
9363,71.0,9.0,60.0,8.0,64.0
9364,66.0,2.0,60.0,7.0,64.0
9365,66.0,5.0,60.0,5.0,64.0
9366,63.0,4.0,60.0,10.0,64.0
9367,78.0,0.0,150.0,2.0,64.0
9368,90.0,14.0,150.0,1.0,64.0
9369,54.0,2.0,60.0,3.0,64.0
9370,95.0,22.0,120.0,0.0,64.0
9371,75.0,21.0,60.0,8.0,64.0
9372,80.0,1.0,90.0,6.0,64.0
9373,72.0,5.0,60.0,8.0,64.0
9374,80.0,6.0,90.0,4.0,64.0
9375,75.0,1.0,60.0,5.0,64.0
9376,56.0,26.0,60.0,10.0,64.0
9377,75.0,19.0,60.0,7.0,64.0
9378,58.0,12.0,60.0,10.0,64.0
9379,73.0,51.0,60.0,8.0,64.0
9380,80.0,3.0,90.0,6.0,64.0
9381,60.0,1.0,60.0,10.0,64.0
9382,80.0,4.0,90.0,4.0,64.0
9383,75.0,31.0,60.0,8.0,64.0
9384,68.0,10.0,30.0,5.0,64.0
9385,68.0,10.0,60.0,7.0,64.0
9386,77.0,69.0,30.0,8.0,64.0
9387,75.0,10.0,60.0,8.0,64.0
9388,80.0,3.0,90.0,6.0,64.0
9389,72.0,5.0,180.0,5.0,64.0
9390,80.0,7.0,90.0,4.0,64.0
9391,60.0,27.0,60.0,10.0,64.0
9392,72.0,5.0,180.0,7.0,64.0
9393,77.0,4.0,30.0,8.0,64.0
9394,61.0,67.0,30.0,10.0,64.0
9395,80.0,0.0,90.0,6.0,64.0
9396,78.0,10.0,60.0,8.0,64.0
9397,80.0,72.0,90.0,4.0,64.0
9398,63.0,19.0,60.0,10.0,64.0
9399,75.0,3.0,30.0,8.0,64.0
9400,68.0,3.0,60.0,8.0,64.0
9401,80.0,0.0,90.0,4.0,64.0
9402,60.0,3.0,60.0,10.0,64.0
9403,80.0,1.0,90.0,6.0,64.0
9404,75.0,9.0,60.0,7.0,64.0
9405,92.0,66.0,90.0,0.0,64.0
9406,75.0,33.0,60.0,5.0,64.0
9407,70.0,1.0,60.0,8.0,64.0
9408,61.0,2.0,60.0,10.0,64.0
9409,72.0,11.0,60.0,8.0,64.0
9410,63.0,31.0,60.0,10.0,64.0
9411,92.0,57.0,90.0,0.0,64.0
9412,80.0,5.0,90.0,6.0,64.0
9413,80.0,5.0,90.0,4.0,64.0
9414,66.0,0.0,60.0,7.0,64.0
9415,66.0,3.0,30.0,5.0,64.0
9416,73.0,0.0,60.0,8.0,64.0
9417,72.0,33.0,60.0,8.0,64.0
9418,80.0,4.0,90.0,6.0,64.0
9419,80.0,7.0,90.0,4.0,64.0
9420,63.0,14.0,60.0,10.0,64.0
9421,72.0,3.0,180.0,7.0,64.0
9422,92.0,3.0,90.0,0.0,64.0
9423,72.0,10.0,180.0,5.0,64.0
9424,73.0,1.0,60.0,8.0,64.0
9425,65.0,82.0,60.0,10.0,64.0
9426,75.0,3.0,60.0,8.0,64.0
9427,66.0,12.0,90.0,10.0,64.0
9428,92.0,62.0,120.0,0.0,64.0
9429,80.0,3.0,90.0,6.0,64.0
9430,80.0,11.0,90.0,4.0,64.0
9431,73.0,2.0,60.0,8.0,64.0
9432,72.0,3.0,60.0,8.0,64.0
9433,66.0,23.0,60.0,10.0,64.0
9434,80.0,2.0,90.0,6.0,64.0
9435,75.0,8.0,60.0,7.0,64.0
9436,75.0,1.0,60.0,5.0,64.0
9437,96.0,1.0,90.0,0.0,64.0
9438,78.0,6.0,90.0,2.0,64.0
9439,80.0,5.0,90.0,4.0,64.0
9440,54.0,3.0,30.0,3.0,64.0
9441,92.0,0.0,90.0,1.0,64.0
9442,65.0,4.0,60.0,10.0,64.0
9443,73.0,65.0,60.0,8.0,64.0
9444,66.0,7.0,90.0,10.0,64.0
9445,80.0,3.0,90.0,6.0,64.0
9446,75.0,12.0,60.0,8.0,64.0
9447,80.0,1.0,90.0,4.0,64.0
9448,68.0,8.0,60.0,5.0,64.0
9449,68.0,5.0,60.0,7.0,64.0
9450,96.0,7.0,90.0,0.0,64.0
9451,78.0,10.0,90.0,2.0,64.0
9452,54.0,2.0,30.0,3.0,64.0
9453,92.0,4.0,90.0,1.0,64.0
9454,73.0,47.0,60.0,8.0,64.0
9455,72.0,11.0,60.0,8.0,64.0
9456,80.0,4.0,90.0,6.0,64.0
9457,68.0,6.0,60.0,10.0,64.0
9458,80.0,9.0,90.0,4.0,64.0
9459,72.0,15.0,30.0,5.0,64.0
9460,72.0,0.0,30.0,7.0,64.0
9461,99.0,1.0,90.0,0.0,64.0
9462,78.0,12.0,90.0,2.0,64.0
9463,54.0,8.0,30.0,3.0,64.0
9464,92.0,1.0,60.0,1.0,64.0
9465,66.0,5.0,60.0,10.0,64.0
9466,70.0,69.0,60.0,8.0,64.0
9467,80.0,12.0,60.0,6.0,64.0
9468,65.0,11.0,60.0,10.0,64.0
9469,73.0,2.0,60.0,7.0,64.0
9470,80.0,0.0,60.0,4.0,64.0
9471,73.0,1.0,60.0,5.0,64.0
9472,68.0,41.0,240.0,8.0,64.0
9473,85.0,1.0,150.0,2.0,64.0
9474,97.0,19.0,120.0,0.0,64.0
9475,92.0,22.0,120.0,1.0,64.0
9476,49.0,11.0,60.0,3.0,64.0
9477,85.0,6.0,30.0,7.0,64.0
9478,85.0,27.0,30.0,5.0,64.0
9479,73.0,8.0,60.0,6.0,64.0
9480,77.0,3.0,60.0,7.0,64.0
9481,77.0,25.0,60.0,5.0,64.0
9482,73.0,5.0,60.0,4.0,64.0
9483,68.0,0.0,30.0,10.0,64.0
9484,75.0,2.0,30.0,6.0,64.0
9485,75.0,7.0,30.0,4.0,64.0
9486,78.0,4.0,30.0,5.0,64.0
9487,78.0,30.0,60.0,7.0,64.0
9488,77.0,5.0,60.0,6.0,64.0
9489,77.0,3.0,60.0,4.0,64.0
9490,80.0,1.0,60.0,7.0,64.0
9491,80.0,30.0,60.0,5.0,64.0
9492,61.0,4.0,60.0,10.0,64.0
9493,82.0,3.0,60.0,7.0,64.0
9494,82.0,71.0,30.0,5.0,64.0
9495,80.0,5.0,60.0,7.0,64.0
9496,73.0,3.0,90.0,8.0,64.0
9497,80.0,24.0,60.0,5.0,64.0
9498,65.0,7.0,180.0,10.0,64.0
9499,77.0,0.0,60.0,6.0,64.0
9500,77.0,11.0,60.0,4.0,64.0
9501,82.0,2.0,60.0,5.0,64.0
9502,82.0,1.0,60.0,7.0,64.0
9503,78.0,70.0,60.0,4.0,64.0
9504,78.0,7.0,30.0,6.0,64.0
9505,73.0,12.0,120.0,8.0,64.0
9506,83.0,2.0,60.0,7.0,64.0
9507,83.0,3.0,60.0,5.0,64.0
9508,80.0,4.0,60.0,4.0,64.0
9509,80.0,27.0,60.0,6.0,64.0
9510,80.0,0.0,30.0,7.0,64.0
9511,80.0,60.0,60.0,5.0,64.0
9512,73.0,3.0,60.0,7.0,64.0
9513,73.0,32.0,60.0,5.0,64.0
9514,68.0,4.0,60.0,10.0,64.0
9515,77.0,2.0,60.0,6.0,64.0
9516,73.0,9.0,90.0,8.0,64.0
9517,77.0,2.0,60.0,4.0,64.0
9518,75.0,1.0,60.0,7.0,64.0
9519,75.0,0.0,60.0,5.0,64.0
9520,78.0,62.0,60.0,4.0,64.0
9521,78.0,8.0,30.0,6.0,64.0
9522,77.0,1.0,60.0,7.0,64.0
9523,73.0,10.0,90.0,8.0,64.0
9524,77.0,37.0,60.0,5.0,64.0
9525,80.0,4.0,60.0,6.0,64.0
9526,80.0,4.0,60.0,4.0,64.0
9527,59.0,0.0,60.0,10.0,64.0
9528,78.0,0.0,60.0,7.0,64.0
9529,78.0,65.0,60.0,5.0,64.0
9530,77.0,0.0,60.0,7.0,64.0
9531,77.0,3.0,60.0,5.0,64.0
9532,73.0,7.0,90.0,8.0,64.0
9533,80.0,32.0,60.0,6.0,64.0
9534,80.0,1.0,60.0,4.0,64.0
9535,65.0,13.0,180.0,10.0,64.0
9536,82.0,4.0,60.0,4.0,64.0
9537,78.0,69.0,60.0,7.0,64.0
9538,82.0,1.0,60.0,6.0,64.0
9539,78.0,2.0,60.0,5.0,64.0
9540,73.0,30.0,90.0,8.0,64.0
9541,83.0,8.0,60.0,4.0,64.0
9542,80.0,0.0,60.0,7.0,64.0
9543,83.0,9.0,60.0,6.0,64.0
9544,80.0,2.0,60.0,5.0,64.0
9545,78.0,60.0,60.0,7.0,64.0
9546,78.0,2.0,60.0,5.0,64.0
9547,73.0,21.0,90.0,8.0,64.0
9548,77.0,13.0,60.0,7.0,64.0
9549,83.0,1.0,60.0,6.0,64.0
9550,77.0,0.0,60.0,5.0,64.0
9551,83.0,2.0,60.0,4.0,64.0
9552,68.0,4.0,60.0,10.0,64.0
9553,82.0,3.0,60.0,4.0,64.0
9554,82.0,83.0,60.0,6.0,64.0
9555,78.0,1.0,60.0,7.0,64.0
9556,78.0,0.0,30.0,5.0,64.0
9557,73.0,5.0,90.0,8.0,64.0
9558,83.0,0.0,90.0,4.0,64.0
9559,83.0,29.0,90.0,6.0,64.0
9560,80.0,1.0,60.0,5.0,64.0
9561,80.0,6.0,60.0,7.0,64.0
9562,61.0,0.0,60.0,10.0,64.0
9563,78.0,8.0,60.0,7.0,64.0
9564,78.0,51.0,60.0,5.0,64.0
9565,73.0,27.0,90.0,8.0,64.0
9566,77.0,3.0,60.0,7.0,64.0
9567,77.0,11.0,60.0,5.0,64.0
9568,85.0,3.0,60.0,6.0,64.0
9569,65.0,2.0,60.0,10.0,64.0
9570,85.0,10.0,60.0,4.0,64.0
9571,75.0,6.0,60.0,7.0,64.0
9572,83.0,2.0,60.0,6.0,64.0
9573,75.0,3.0,60.0,5.0,64.0
9574,83.0,71.0,60.0,4.0,64.0
9575,73.0,3.0,90.0,8.0,64.0
9576,73.0,0.0,60.0,7.0,64.0
9577,82.0,3.0,60.0,6.0,64.0
9578,54.0,13.0,60.0,10.0,64.0
9579,73.0,1.0,60.0,5.0,64.0
9580,82.0,88.0,60.0,4.0,64.0
9581,66.0,1.0,60.0,8.0,64.0
9582,66.0,8.0,60.0,10.0,64.0
9583,82.0,3.0,60.0,6.0,64.0
9584,70.0,1.0,60.0,7.0,64.0
9585,70.0,30.0,60.0,5.0,64.0
9586,82.0,5.0,30.0,4.0,64.0
9587,80.0,9.0,30.0,6.0,64.0
9588,68.0,66.0,60.0,8.0,64.0
9589,80.0,0.0,30.0,4.0,64.0
9590,82.0,16.0,90.0,6.0,64.0
9591,66.0,13.0,60.0,8.0,64.0
9592,82.0,1.0,90.0,4.0,64.0
9593,59.0,16.0,60.0,10.0,64.0
9594,75.0,4.0,270.0,7.0,64.0
9595,75.0,17.0,270.0,5.0,64.0
9596,65.0,69.0,30.0,8.0,64.0
9597,63.0,10.0,60.0,8.0,64.0
9598,63.0,27.0,60.0,10.0,64.0
9599,83.0,0.0,30.0,6.0,64.0
9600,83.0,12.0,30.0,4.0,64.0
9601,66.0,3.0,30.0,8.0,64.0
9602,82.0,12.0,30.0,6.0,64.0
9603,82.0,56.0,30.0,4.0,64.0
9604,80.0,11.0,90.0,6.0,64.0
9605,65.0,4.0,60.0,8.0,64.0
9606,80.0,15.0,90.0,4.0,64.0
9607,53.0,11.0,60.0,10.0,64.0
9608,66.0,61.0,60.0,8.0,64.0
9609,65.0,7.0,60.0,8.0,64.0
9610,65.0,2.0,60.0,10.0,64.0
9611,80.0,1.0,60.0,6.0,64.0
9612,74.0,2.0,60.0,5.0,64.0
9613,80.0,10.0,30.0,4.0,64.0
9614,74.0,30.0,60.0,7.0,64.0
9615,63.0,7.0,60.0,8.0,64.0
9616,78.0,2.0,30.0,6.0,64.0
9617,78.0,9.0,30.0,4.0,64.0
9618,75.0,53.0,60.0,5.0,64.0
9619,75.0,1.0,60.0,7.0,64.0
9620,62.0,13.0,60.0,8.0,64.0
9621,80.0,21.0,90.0,6.0,64.0
9622,80.0,24.0,90.0,4.0,64.0
9623,77.0,0.0,60.0,7.0,64.0
9624,58.0,9.0,60.0,10.0,64.0
9625,77.0,6.0,60.0,5.0,64.0
9626,75.0,43.0,60.0,7.0,64.0
9627,75.0,0.0,60.0,5.0,64.0
9628,65.0,0.0,60.0,8.0,64.0
9629,74.0,31.0,60.0,5.0,64.0
9630,74.0,6.0,60.0,7.0,64.0
9631,82.0,2.0,60.0,6.0,64.0
9632,62.0,3.0,60.0,10.0,64.0
9633,82.0,5.0,30.0,4.0,64.0
9634,80.0,2.0,30.0,6.0,64.0
9635,80.0,0.0,30.0,4.0,64.0
9636,72.0,3.0,30.0,7.0,64.0
9637,72.0,80.0,30.0,5.0,64.0
9638,78.0,25.0,90.0,4.0,64.0
9639,70.0,3.0,60.0,7.0,64.0
9640,78.0,2.0,60.0,6.0,64.0
9641,70.0,0.0,60.0,5.0,64.0
9642,66.0,8.0,60.0,8.0,64.0
9643,51.0,6.0,60.0,10.0,64.0
9644,82.0,48.0,60.0,7.0,64.0
9645,82.0,14.0,30.0,5.0,64.0
9646,70.0,17.0,60.0,8.0,64.0
9647,63.0,0.0,60.0,10.0,64.0
9648,78.0,1.0,60.0,6.0,64.0
9649,75.0,19.0,60.0,7.0,64.0
9650,75.0,13.0,60.0,5.0,64.0
9651,90.0,1.0,30.0,0.0,64.0
9652,78.0,3.0,60.0,4.0,64.0
9653,78.0,13.0,90.0,1.0,64.0
9654,80.0,3.0,60.0,6.0,64.0
9655,80.0,5.0,30.0,4.0,64.0
9656,92.0,4.0,60.0,0.0,64.0
9657,77.0,1.0,30.0,7.0,64.0
9658,77.0,49.0,60.0,5.0,64.0
9659,82.0,3.0,60.0,6.0,64.0
9660,82.0,1.0,60.0,4.0,64.0
9661,94.0,31.0,60.0,0.0,64.0
9662,61.0,4.0,60.0,10.0,64.0
9663,78.0,8.0,60.0,7.0,64.0
9664,63.0,3.0,30.0,8.0,64.0
9665,78.0,1.0,60.0,5.0,64.0
9666,78.0,0.0,90.0,1.0,64.0
9667,80.0,13.0,60.0,7.0,64.0
9668,80.0,52.0,60.0,5.0,64.0
9669,78.0,1.0,60.0,7.0,64.0
9670,59.0,6.0,90.0,10.0,64.0
9671,82.0,5.0,60.0,6.0,64.0
9672,66.0,1.0,180.0,8.0,64.0
9673,82.0,8.0,60.0,4.0,64.0
9674,94.0,3.0,30.0,0.0,64.0
9675,78.0,22.0,60.0,5.0,64.0
9676,78.0,4.0,90.0,1.0,64.0
9677,83.0,6.0,30.0,6.0,64.0
9678,80.0,65.0,60.0,7.0,64.0
9679,83.0,6.0,30.0,4.0,64.0
9680,80.0,4.0,60.0,5.0,64.0
9681,95.0,0.0,30.0,0.0,64.0
9682,85.0,8.0,90.0,6.0,64.0
9683,97.0,14.0,90.0,0.0,64.0
9684,82.0,5.0,60.0,7.0,64.0
9685,58.0,7.0,90.0,10.0,64.0
9686,85.0,1.0,60.0,4.0,64.0
9687,82.0,6.0,60.0,5.0,64.0
9688,78.0,6.0,90.0,1.0,64.0
9689,85.0,6.0,60.0,5.0,64.0
9690,85.0,52.0,60.0,7.0,64.0
9691,82.0,2.0,60.0,6.0,64.0
9692,78.0,11.0,90.0,8.0,64.0
9693,78.0,0.0,60.0,5.0,64.0
9694,78.0,17.0,60.0,7.0,64.0
9695,78.0,4.0,90.0,1.0,64.0
9696,82.0,3.0,60.0,4.0,64.0
9697,94.0,8.0,30.0,0.0,64.0
9698,78.0,2.0,90.0,2.0,64.0
9699,63.0,6.0,60.0,10.0,64.0
9700,80.0,0.0,60.0,5.0,64.0
9701,83.0,3.0,30.0,6.0,64.0
9702,95.0,4.0,30.0,0.0,64.0
9703,80.0,5.0,60.0,7.0,64.0
9704,83.0,62.0,60.0,4.0,64.0
9705,78.0,2.0,120.0,8.0,64.0
9706,82.0,1.0,60.0,5.0,64.0
9707,85.0,10.0,90.0,6.0,64.0
9708,97.0,1.0,60.0,0.0,64.0
9709,82.0,16.0,60.0,7.0,64.0
9710,78.0,7.0,90.0,1.0,64.0
9711,61.0,0.0,60.0,10.0,64.0
9712,78.0,8.0,90.0,2.0,64.0
9713,85.0,4.0,60.0,4.0,64.0
9714,83.0,51.0,60.0,5.0,64.0
9715,83.0,5.0,60.0,7.0,64.0
9716,82.0,5.0,30.0,7.0,64.0
9717,82.0,15.0,60.0,5.0,64.0
9718,59.0,13.0,60.0,10.0,64.0
9719,78.0,3.0,90.0,8.0,64.0
9720,78.0,6.0,90.0,1.0,64.0
9721,85.0,1.0,60.0,4.0,64.0
9722,97.0,3.0,30.0,0.0,64.0
9723,85.0,1.0,60.0,6.0,64.0
9724,78.0,14.0,60.0,2.0,64.0
9725,83.0,0.0,60.0,5.0,64.0
9726,83.0,1.0,60.0,7.0,64.0
9727,87.0,2.0,60.0,6.0,64.0
9728,87.0,72.0,60.0,4.0,64.0
9729,99.0,1.0,30.0,0.0,64.0
9730,85.0,7.0,60.0,5.0,64.0
9731,85.0,1.0,60.0,7.0,64.0
9732,58.0,14.0,60.0,10.0,64.0
9733,88.0,6.0,60.0,6.0,64.0
9734,78.0,2.0,90.0,8.0,64.0
9735,100.0,0.0,90.0,0.0,64.0
9736,88.0,3.0,60.0,4.0,64.0
9737,78.0,16.0,90.0,1.0,64.0
9738,78.0,3.0,60.0,2.0,64.0
9739,83.0,46.0,60.0,5.0,64.0
9740,83.0,2.0,60.0,7.0,64.0
9741,82.0,3.0,60.0,5.0,64.0
9742,82.0,3.0,60.0,7.0,64.0
9743,61.0,13.0,60.0,10.0,64.0
9744,78.0,13.0,90.0,8.0,64.0
9745,94.0,13.0,30.0,1.0,64.0
9746,100.0,2.0,30.0,0.0,64.0
9747,88.0,2.0,60.0,4.0,64.0
9748,88.0,2.0,60.0,6.0,64.0
9749,78.0,2.0,90.0,2.0,64.0
9750,54.0,4.0,30.0,3.0,64.0
9751,95.0,1.0,30.0,1.0,64.0
9752,83.0,2.0,60.0,5.0,64.0
9753,87.0,74.0,60.0,4.0,64.0
9754,83.0,5.0,60.0,7.0,64.0
9755,87.0,0.0,30.0,6.0,64.0
9756,99.0,5.0,30.0,0.0,64.0
9757,78.0,3.0,90.0,8.0,64.0
9758,97.0,2.0,90.0,1.0,64.0
9759,85.0,4.0,60.0,5.0,64.0
9760,54.0,0.0,60.0,10.0,64.0
9761,88.0,2.0,60.0,6.0,64.0
9762,88.0,13.0,60.0,4.0,64.0
9763,100.0,7.0,90.0,0.0,64.0
9764,85.0,0.0,60.0,7.0,64.0
9765,82.0,9.0,90.0,2.0,64.0
9766,54.0,2.0,60.0,3.0,64.0
9767,83.0,14.0,60.0,5.0,64.0
9768,83.0,36.0,60.0,7.0,64.0
9769,58.0,7.0,60.0,10.0,64.0
9770,82.0,5.0,60.0,5.0,64.0
9771,73.0,9.0,90.0,8.0,64.0
9772,82.0,18.0,60.0,7.0,64.0
9773,99.0,6.0,30.0,1.0,64.0
9774,102.0,0.0,30.0,0.0,64.0
9775,78.0,6.0,90.0,2.0,64.0
9776,90.0,7.0,60.0,4.0,64.0
9777,90.0,2.0,60.0,6.0,64.0
9778,54.0,6.0,30.0,3.0,64.0
9779,80.0,10.0,60.0,5.0,64.0
9780,80.0,58.0,60.0,7.0,64.0
9781,100.0,2.0,30.0,0.0,64.0
9782,97.0,0.0,30.0,1.0,64.0
9783,88.0,3.0,30.0,6.0,64.0
9784,88.0,5.0,30.0,4.0,64.0
9785,78.0,1.0,60.0,5.0,64.0
9786,95.0,28.0,150.0,1.0,64.0
9787,47.0,2.0,60.0,10.0,64.0
9788,99.0,0.0,150.0,0.0,64.0
9789,75.0,21.0,120.0,8.0,64.0
9790,78.0,8.0,60.0,7.0,64.0
9791,87.0,1.0,60.0,6.0,64.0
9792,90.0,3.0,120.0,2.0,64.0
9793,87.0,0.0,60.0,4.0,64.0
9794,54.0,28.0,60.0,3.0,64.0
9795,83.0,13.0,30.0,6.0,64.0
9796,83.0,5.0,60.0,4.0,64.0
9797,75.0,5.0,60.0,5.0,64.0
9798,59.0,3.0,60.0,10.0,64.0
9799,80.0,37.0,60.0,6.0,64.0
9800,80.0,0.0,60.0,4.0,64.0
9801,75.0,14.0,30.0,7.0,64.0
9802,75.0,55.0,120.0,8.0,64.0
9803,82.0,1.0,60.0,6.0,64.0
9804,82.0,12.0,30.0,4.0,64.0
9805,83.0,5.0,60.0,6.0,64.0
9806,53.0,23.0,60.0,10.0,64.0
9807,83.0,17.0,60.0,4.0,64.0
9808,80.0,27.0,300.0,5.0,64.0
9809,80.0,6.0,270.0,7.0,64.0
9810,75.0,47.0,90.0,8.0,64.0
9811,85.0,6.0,60.0,6.0,64.0
9812,85.0,4.0,30.0,4.0,64.0
9813,82.0,9.0,30.0,6.0,64.0
9814,82.0,10.0,60.0,4.0,64.0
9815,56.0,6.0,60.0,10.0,64.0
9816,75.0,63.0,90.0,8.0,64.0
9817,95.0,4.0,60.0,1.0,64.0
9818,99.0,3.0,60.0,0.0,64.0
9819,92.0,27.0,60.0,2.0,64.0
9820,83.0,1.0,60.0,6.0,64.0
9821,83.0,1.0,30.0,4.0,64.0
9822,85.0,4.0,60.0,6.0,64.0
9823,46.0,2.0,90.0,10.0,64.0
9824,85.0,6.0,30.0,4.0,64.0
9825,73.0,2.0,90.0,8.0,64.0
9826,94.0,3.0,180.0,1.0,64.0
9827,97.0,2.0,150.0,0.0,64.0
9828,92.0,4.0,150.0,2.0,64.0
9829,49.0,1.0,60.0,3.0,64.0
9830,82.0,9.0,30.0,6.0,64.0
9831,82.0,53.0,30.0,4.0,64.0
9832,78.0,7.0,60.0,6.0,64.0
9833,73.0,5.0,90.0,8.0,64.0
9834,73.0,4.0,30.0,7.0,64.0
9835,58.0,25.0,60.0,10.0,64.0
9836,78.0,15.0,60.0,4.0,64.0
9837,73.0,1.0,30.0,5.0,64.0
9838,80.0,2.0,60.0,6.0,64.0
9839,80.0,82.0,30.0,4.0,64.0
9840,73.0,16.0,90.0,8.0,64.0
9841,82.0,4.0,60.0,6.0,64.0
9842,51.0,13.0,60.0,10.0,64.0
9843,78.0,8.0,270.0,7.0,64.0
9844,82.0,0.0,60.0,4.0,64.0
9845,78.0,3.0,300.0,5.0,64.0
9846,83.0,1.0,30.0,6.0,64.0
9847,83.0,73.0,30.0,4.0,64.0
9848,73.0,3.0,90.0,8.0,64.0
9849,54.0,0.0,60.0,10.0,64.0
9850,80.0,0.0,60.0,6.0,64.0
9851,80.0,6.0,60.0,4.0,64.0
9852,97.0,6.0,60.0,0.0,64.0
9853,94.0,5.0,60.0,1.0,64.0
9854,90.0,26.0,30.0,2.0,64.0
9855,82.0,8.0,60.0,6.0,64.0
9856,82.0,58.0,60.0,4.0,64.0
9857,71.0,4.0,90.0,8.0,64.0
9858,44.0,14.0,60.0,10.0,64.0
9859,83.0,0.0,60.0,6.0,64.0
9860,83.0,7.0,60.0,4.0,64.0
9861,92.0,1.0,90.0,1.0,64.0
9862,95.0,2.0,30.0,0.0,64.0
9863,90.0,18.0,60.0,2.0,64.0
9864,82.0,7.0,60.0,6.0,64.0
9865,82.0,41.0,60.0,4.0,64.0
9866,94.0,5.0,30.0,0.0,64.0
9867,80.0,10.0,30.0,6.0,64.0
9868,73.0,7.0,90.0,8.0,64.0
9869,80.0,7.0,60.0,4.0,64.0
9870,49.0,2.0,60.0,10.0,64.0
9871,77.0,3.0,60.0,7.0,64.0
9872,92.0,9.0,60.0,0.0,64.0
9873,85.0,3.0,60.0,2.0,64.0
9874,77.0,16.0,60.0,5.0,64.0
9875,97.0,2.0,60.0,1.0,64.0
9876,49.0,4.0,30.0,3.0,64.0
9877,83.0,3.0,30.0,4.0,64.0
9878,83.0,63.0,60.0,6.0,64.0
9879,95.0,0.0,30.0,0.0,64.0
9880,82.0,6.0,60.0,4.0,64.0
9881,73.0,1.0,90.0,8.0,64.0
9882,54.0,2.0,60.0,10.0,64.0
9883,94.0,6.0,30.0,0.0,64.0
9884,82.0,4.0,60.0,6.0,64.0
9885,78.0,7.0,60.0,5.0,64.0
9886,97.0,2.0,60.0,1.0,64.0
9887,78.0,8.0,60.0,7.0,64.0
9888,54.0,0.0,60.0,3.0,64.0
9889,85.0,13.0,60.0,2.0,64.0
9890,80.0,8.0,60.0,4.0,64.0
9891,80.0,47.0,60.0,6.0,64.0
9892,77.0,2.0,60.0,5.0,64.0
9893,92.0,2.0,30.0,0.0,64.0
9894,77.0,3.0,30.0,7.0,64.0
9895,78.0,2.0,60.0,4.0,64.0
9896,73.0,2.0,120.0,8.0,64.0
9897,75.0,2.0,60.0,7.0,64.0
9898,42.0,3.0,60.0,10.0,64.0
9899,75.0,2.0,60.0,5.0,64.0
9900,90.0,7.0,30.0,0.0,64.0
9901,78.0,9.0,60.0,6.0,64.0
9902,97.0,0.0,60.0,1.0,64.0
9903,54.0,14.0,30.0,3.0,64.0
9904,85.0,7.0,60.0,2.0,64.0
9905,82.0,12.0,30.0,4.0,64.0
9906,78.0,14.0,60.0,7.0,64.0
9907,82.0,0.0,30.0,6.0,64.0
9908,78.0,57.0,60.0,5.0,64.0
9909,94.0,3.0,30.0,0.0,64.0
9910,80.0,2.0,60.0,4.0,64.0
9911,77.0,4.0,60.0,7.0,64.0
9912,49.0,0.0,90.0,10.0,64.0
9913,73.0,11.0,90.0,8.0,64.0
9914,97.0,3.0,150.0,1.0,64.0
9915,77.0,10.0,60.0,5.0,64.0
9916,80.0,10.0,60.0,6.0,64.0
9917,92.0,12.0,120.0,0.0,64.0
9918,49.0,25.0,60.0,3.0,64.0
9919,85.0,10.0,150.0,2.0,64.0
9920,85.0,2.0,60.0,4.0,64.0
9921,85.0,26.0,60.0,6.0,64.0
9922,80.0,1.0,30.0,7.0,64.0
9923,73.0,13.0,90.0,8.0,64.0
9924,77.0,4.0,30.0,4.0,64.0
9925,80.0,4.0,30.0,5.0,64.0
9926,77.0,10.0,60.0,6.0,64.0
9927,49.0,29.0,60.0,10.0,64.0
9928,51.0,7.0,60.0,10.0,64.0
9929,78.0,49.0,60.0,4.0,64.0
9930,78.0,4.0,60.0,6.0,64.0
9931,53.0,19.0,90.0,10.0,64.0
9932,73.0,4.0,90.0,8.0,64.0
9933,73.0,10.0,60.0,7.0,64.0
9934,80.0,12.0,60.0,4.0,64.0
9935,80.0,3.0,60.0,6.0,64.0
9936,73.0,1.0,30.0,5.0,64.0
9937,82.0,10.0,30.0,4.0,64.0
9938,82.0,71.0,30.0,6.0,64.0
9939,80.0,8.0,60.0,4.0,64.0
9940,80.0,24.0,60.0,6.0,64.0
9941,73.0,12.0,90.0,8.0,64.0
9942,77.0,19.0,210.0,7.0,64.0
9943,77.0,13.0,180.0,5.0,64.0
9944,53.0,2.0,60.0,10.0,64.0
9945,82.0,2.0,60.0,4.0,64.0
9946,82.0,1.0,60.0,6.0,64.0
9947,54.0,81.0,60.0,10.0,64.0
9948,73.0,2.0,120.0,8.0,64.0
9949,56.0,3.0,90.0,10.0,64.0
9950,83.0,0.0,60.0,4.0,64.0
9951,83.0,1.0,60.0,6.0,64.0
9952,80.0,4.0,60.0,6.0,64.0
9953,80.0,68.0,60.0,4.0,64.0
9954,73.0,13.0,90.0,8.0,64.0
9955,73.0,21.0,60.0,6.0,64.0
9956,53.0,2.0,60.0,10.0,64.0
9957,85.0,1.0,90.0,0.0,64.0
9958,73.0,3.0,60.0,4.0,64.0
9959,80.0,6.0,60.0,5.0,64.0
9960,80.0,1.0,60.0,7.0,64.0
9961,75.0,9.0,60.0,6.0,64.0
9962,75.0,0.0,60.0,4.0,64.0
9963,54.0,62.0,60.0,10.0,64.0
9964,73.0,4.0,90.0,8.0,64.0
9965,77.0,22.0,60.0,6.0,64.0
9966,77.0,4.0,60.0,4.0,64.0
9967,56.0,8.0,90.0,10.0,64.0
9968,71.0,4.0,60.0,7.0,64.0
9969,71.0,2.0,60.0,5.0,64.0
9970,85.0,6.0,90.0,0.0,64.0
9971,78.0,0.0,30.0,6.0,64.0
9972,78.0,71.0,30.0,4.0,64.0
9973,77.0,3.0,60.0,6.0,64.0
9974,73.0,9.0,90.0,8.0,64.0
9975,77.0,2.0,60.0,4.0,64.0
9976,85.0,5.0,90.0,0.0,64.0
9977,56.0,28.0,60.0,10.0,64.0
9978,77.0,5.0,210.0,7.0,64.0
9979,77.0,1.0,180.0,5.0,64.0
9980,78.0,1.0,60.0,6.0,64.0
9981,58.0,9.0,60.0,10.0,64.0
9982,78.0,75.0,60.0,4.0,64.0
9983,59.0,17.0,90.0,10.0,64.0
9984,73.0,6.0,90.0,8.0,64.0
9985,80.0,4.0,60.0,6.0,64.0
9986,85.0,0.0,90.0,0.0,64.0
9987,80.0,7.0,60.0,4.0,64.0
9988,78.0,9.0,60.0,6.0,64.0
9989,78.0,41.0,60.0,4.0,64.0
9990,77.0,15.0,60.0,6.0,64.0
9991,73.0,1.0,90.0,8.0,64.0
9992,77.0,1.0,60.0,4.0,64.0
9993,59.0,30.0,60.0,10.0,64.0
9994,85.0,3.0,90.0,2.0,64.0
9995,92.0,1.0,90.0,0.0,64.0
9996,80.0,2.0,30.0,5.0,64.0
9997,80.0,2.0,30.0,7.0,64.0
9998,85.0,2.0,90.0,1.0,64.0
9999,49.0,1.0,30.0,3.0,64.0
10000,78.0,6.0,60.0,6.0,64.0
10001,58.0,7.0,60.0,10.0,64.0
10002,78.0,63.0,60.0,4.0,64.0
10003,59.0,4.0,90.0,10.0,64.0
10004,80.0,7.0,60.0,6.0,64.0
10005,92.0,17.0,90.0,0.0,64.0
10006,73.0,1.0,90.0,8.0,64.0
10007,73.0,2.0,60.0,5.0,64.0
10008,73.0,6.0,60.0,7.0,64.0
10009,80.0,10.0,60.0,4.0,64.0
10010,85.0,0.0,90.0,1.0,64.0
10011,85.0,8.0,60.0,2.0,64.0
10012,49.0,4.0,30.0,3.0,64.0
10013,83.0,21.0,60.0,6.0,64.0
10014,83.0,38.0,60.0,4.0,64.0
10015,82.0,0.0,60.0,6.0,64.0
10016,73.0,3.0,90.0,8.0,64.0
10017,77.0,5.0,60.0,5.0,64.0
10018,61.0,7.0,60.0,10.0,64.0
10019,82.0,5.0,60.0,4.0,64.0
10020,92.0,6.0,90.0,1.0,64.0
10021,77.0,0.0,60.0,7.0,64.0
10022,49.0,9.0,30.0,3.0,64.0
10023,97.0,8.0,60.0,0.0,64.0
10024,85.0,4.0,90.0,2.0,64.0
10025,80.0,19.0,60.0,6.0,64.0
10026,59.0,11.0,30.0,10.0,64.0
10027,80.0,38.0,60.0,4.0,64.0
10028,73.0,1.0,90.0,8.0,64.0
10029,58.0,1.0,90.0,10.0,64.0
10030,97.0,23.0,150.0,0.0,64.0
10031,78.0,8.0,30.0,5.0,64.0
10032,85.0,1.0,60.0,6.0,64.0
10033,78.0,19.0,60.0,7.0,64.0
10034,94.0,18.0,90.0,1.0,64.0
10035,85.0,0.0,60.0,4.0,64.0
10036,54.0,28.0,60.0,3.0,64.0
10037,78.0,10.0,120.0,2.0,64.0
10038,83.0,4.0,60.0,6.0,64.0
10039,83.0,11.0,60.0,4.0,64.0
10040,66.0,21.0,90.0,8.0,64.0
10041,58.0,0.0,30.0,10.0,64.0
10042,73.0,3.0,30.0,7.0,64.0
10043,73.0,3.0,30.0,5.0,64.0
10044,82.0,21.0,60.0,6.0,64.0
10045,82.0,3.0,30.0,4.0,64.0
10046,97.0,0.0,30.0,1.0,64.0
10047,56.0,7.0,60.0,10.0,64.0
10048,95.0,2.0,30.0,1.0,64.0
10049,83.0,12.0,30.0,6.0,64.0
10050,83.0,52.0,60.0,4.0,64.0
10051,94.0,16.0,60.0,1.0,64.0
10052,70.0,9.0,60.0,8.0,64.0
10053,85.0,6.0,60.0,6.0,64.0
10054,58.0,25.0,90.0,10.0,64.0
10055,78.0,3.0,300.0,5.0,64.0
10056,78.0,4.0,270.0,7.0,64.0
10057,85.0,6.0,60.0,4.0,64.0
10058,82.0,12.0,60.0,6.0,64.0
10059,82.0,39.0,60.0,4.0,64.0
10060,78.0,4.0,60.0,6.0,64.0
10061,90.0,4.0,60.0,1.0,64.0
10062,75.0,10.0,60.0,8.0,64.0
10063,59.0,4.0,60.0,10.0,64.0
10064,78.0,19.0,60.0,4.0,64.0
10065,99.0,16.0,30.0,0.0,64.0
10066,82.0,0.0,30.0,6.0,64.0
10067,58.0,62.0,60.0,10.0,64.0
10068,82.0,6.0,30.0,4.0,64.0
10069,97.0,5.0,30.0,0.0,64.0
10070,83.0,11.0,60.0,6.0,64.0
10071,83.0,2.0,60.0,4.0,64.0
10072,56.0,22.0,60.0,10.0,64.0
10073,92.0,5.0,90.0,1.0,64.0
10074,75.0,8.0,90.0,8.0,64.0
10075,95.0,12.0,150.0,0.0,64.0
10076,82.0,7.0,60.0,6.0,64.0
10077,82.0,31.0,60.0,4.0,64.0
10078,80.0,1.0,60.0,6.0,64.0
10079,71.0,1.0,60.0,7.0,64.0
10080,95.0,17.0,30.0,1.0,64.0
10081,77.0,15.0,60.0,5.0,64.0
10082,80.0,15.0,60.0,4.0,64.0
10083,56.0,1.0,60.0,10.0,64.0
10084,77.0,3.0,60.0,8.0,64.0
10085,82.0,3.0,60.0,6.0,64.0
10086,54.0,61.0,60.0,10.0,64.0
10087,78.0,0.0,30.0,8.0,64.0
10088,94.0,9.0,30.0,1.0,64.0
10089,82.0,1.0,30.0,4.0,64.0
10090,68.0,1.0,60.0,7.0,64.0
10091,77.0,5.0,60.0,8.0,64.0
10092,80.0,4.0,60.0,5.0,64.0
10093,83.0,5.0,30.0,6.0,64.0
10094,56.0,33.0,60.0,10.0,64.0
10095,83.0,1.0,60.0,4.0,64.0
10096,92.0,11.0,60.0,1.0,64.0
10097,87.0,43.0,60.0,6.0,64.0
10098,87.0,10.0,30.0,4.0,64.0
10099,85.0,4.0,60.0,6.0,64.0
10100,77.0,1.0,60.0,7.0,64.0
10101,73.0,2.0,60.0,8.0,64.0
10102,92.0,9.0,60.0,2.0,64.0
10103,97.0,9.0,30.0,0.0,64.0
10104,77.0,1.0,60.0,5.0,64.0
10105,85.0,1.0,60.0,1.0,64.0
10106,85.0,3.0,60.0,4.0,64.0
10107,58.0,20.0,60.0,10.0,64.0
10108,49.0,3.0,60.0,3.0,64.0
10109,95.0,4.0,30.0,0.0,64.0
10110,83.0,5.0,30.0,6.0,64.0
10111,56.0,67.0,60.0,10.0,64.0
10112,83.0,10.0,30.0,4.0,64.0
10113,94.0,0.0,60.0,0.0,64.0
10114,73.0,4.0,90.0,8.0,64.0
10115,78.0,7.0,60.0,7.0,64.0
10116,82.0,1.0,60.0,6.0,64.0
10117,54.0,1.0,60.0,3.0,64.0
10118,78.0,2.0,60.0,5.0,64.0
10119,85.0,7.0,90.0,1.0,64.0
10120,54.0,12.0,60.0,10.0,64.0
10121,94.0,13.0,90.0,2.0,64.0
10122,82.0,4.0,60.0,4.0,64.0
10123,56.0,61.0,60.0,10.0,64.0
10124,73.0,3.0,60.0,7.0,64.0
10125,58.0,1.0,60.0,10.0,64.0
10126,73.0,20.0,90.0,8.0,64.0
10127,97.0,5.0,60.0,0.0,64.0
10128,73.0,2.0,60.0,5.0,64.0
10129,90.0,1.0,60.0,1.0,64.0
10130,78.0,7.0,60.0,6.0,64.0
10131,78.0,11.0,60.0,4.0,64.0
10132,54.0,71.0,30.0,10.0,64.0
10133,66.0,2.0,60.0,7.0,64.0
10134,99.0,2.0,60.0,0.0,64.0
10135,71.0,10.0,60.0,8.0,64.0
10136,90.0,1.0,60.0,1.0,64.0
10137,59.0,8.0,60.0,10.0,64.0
10138,66.0,2.0,60.0,5.0,64.0
10139,95.0,17.0,60.0,2.0,64.0
10140,54.0,2.0,30.0,3.0,64.0
10141,75.0,5.0,60.0,6.0,64.0
10142,75.0,3.0,60.0,4.0,64.0
10143,61.0,59.0,30.0,10.0,64.0
10144,58.0,10.0,60.0,10.0,64.0
10145,92.0,8.0,60.0,1.0,64.0
10146,75.0,6.0,60.0,8.0,64.0
10147,71.0,8.0,30.0,7.0,64.0
10148,95.0,0.0,60.0,0.0,64.0
10149,80.0,26.0,60.0,6.0,64.0
10150,71.0,3.0,60.0,5.0,64.0
10151,80.0,0.0,60.0,4.0,64.0
10152,59.0,69.0,60.0,10.0,64.0
10153,68.0,9.0,60.0,7.0,64.0
10154,61.0,32.0,60.0,10.0,64.0
10155,85.0,0.0,60.0,1.0,64.0
10156,92.0,3.0,90.0,2.0,64.0
10157,49.0,3.0,60.0,3.0,64.0
10158,101.0,12.0,30.0,0.0,64.0
10159,73.0,2.0,90.0,8.0,64.0
10160,77.0,0.0,60.0,6.0,64.0
10161,77.0,5.0,60.0,4.0,64.0
10162,68.0,22.0,240.0,5.0,64.0
10163,65.0,12.0,60.0,7.0,64.0
10164,73.0,10.0,60.0,6.0,64.0
10165,73.0,43.0,60.0,4.0,64.0
10166,75.0,2.0,60.0,6.0,64.0
10167,59.0,2.0,60.0,10.0,64.0
10168,68.0,14.0,90.0,8.0,64.0
10169,92.0,3.0,60.0,1.0,64.0
10170,75.0,16.0,60.0,4.0,64.0
10171,66.0,6.0,60.0,7.0,64.0
10172,97.0,3.0,60.0,0.0,64.0
10173,68.0,6.0,30.0,7.0,64.0
10174,77.0,29.0,60.0,6.0,64.0
10175,77.0,4.0,30.0,4.0,64.0
10176,78.0,1.0,60.0,6.0,64.0
10177,78.0,3.0,60.0,4.0,64.0
10178,94.0,6.0,30.0,1.0,64.0
10179,85.0,12.0,60.0,2.0,64.0
10180,49.0,2.0,30.0,3.0,64.0
10181,58.0,1.0,60.0,10.0,64.0
10182,73.0,17.0,60.0,8.0,64.0
10183,102.0,7.0,60.0,0.0,64.0
10184,61.0,6.0,30.0,7.0,64.0
10185,92.0,17.0,30.0,1.0,64.0
10186,80.0,40.0,60.0,4.0,64.0
10187,80.0,3.0,60.0,6.0,64.0
10188,94.0,7.0,30.0,1.0,64.0
10189,77.0,1.0,60.0,7.0,64.0
10190,56.0,2.0,60.0,10.0,64.0
10191,82.0,1.0,60.0,4.0,64.0
10192,82.0,8.0,30.0,6.0,64.0
10193,95.0,0.0,60.0,0.0,64.0
10194,73.0,12.0,60.0,8.0,64.0
10195,85.0,10.0,60.0,2.0,64.0
10196,77.0,7.0,60.0,5.0,64.0
10197,49.0,5.0,30.0,3.0,64.0
10198,95.0,13.0,30.0,1.0,64.0
10199,83.0,72.0,60.0,4.0,64.0
10200,83.0,2.0,30.0,6.0,64.0
10201,78.0,0.0,60.0,7.0,64.0
10202,82.0,1.0,60.0,4.0,64.0
10203,54.0,4.0,60.0,10.0,64.0
10204,82.0,4.0,60.0,6.0,64.0
10205,97.0,25.0,150.0,1.0,64.0
10206,85.0,7.0,120.0,2.0,64.0
10207,73.0,35.0,60.0,8.0,64.0
10208,54.0,2.0,60.0,3.0,64.0
10209,94.0,8.0,120.0,0.0,64.0
10210,78.0,6.0,60.0,5.0,64.0
10211,80.0,5.0,60.0,6.0,64.0
10212,71.0,5.0,60.0,8.0,64.0
10213,80.0,12.0,60.0,4.0,64.0
10214,78.0,8.0,60.0,6.0,64.0
10215,78.0,5.0,60.0,4.0,64.0
10216,75.0,1.0,60.0,7.0,64.0
10217,59.0,4.0,60.0,10.0,64.0
10218,70.0,23.0,60.0,8.0,64.0
10219,75.0,0.0,60.0,5.0,64.0
10220,71.0,52.0,60.0,8.0,64.0
10221,80.0,1.0,30.0,6.0,64.0
10222,80.0,20.0,30.0,4.0,64.0
10223,73.0,9.0,60.0,7.0,64.0
10224,68.0,38.0,60.0,8.0,64.0
10225,85.0,9.0,120.0,2.0,64.0
10226,73.0,2.0,60.0,6.0,64.0
10227,61.0,5.0,60.0,10.0,64.0
10228,73.0,2.0,60.0,5.0,64.0
10229,73.0,6.0,60.0,4.0,64.0
10230,92.0,2.0,120.0,0.0,64.0
10231,49.0,0.0,60.0,3.0,64.0
10232,95.0,22.0,120.0,1.0,64.0
10233,70.0,24.0,60.0,8.0,64.0
10234,71.0,5.0,60.0,8.0,64.0
10235,77.0,9.0,60.0,6.0,64.0
10236,73.0,7.0,30.0,7.0,64.0
10237,49.0,2.0,60.0,10.0,64.0
10238,73.0,2.0,60.0,5.0,64.0
10239,77.0,29.0,60.0,4.0,64.0
10240,68.0,84.0,60.0,8.0,64.0
10241,78.0,18.0,60.0,6.0,64.0
10242,70.0,16.0,240.0,8.0,64.0
10243,90.0,2.0,150.0,0.0,64.0
10244,85.0,12.0,150.0,2.0,64.0
10245,73.0,9.0,120.0,5.0,64.0
10246,78.0,19.0,60.0,4.0,64.0
10247,54.0,48.0,240.0,10.0,64.0
10248,73.0,10.0,210.0,7.0,64.0
10249,94.0,19.0,150.0,1.0,64.0
10250,54.0,32.0,60.0,3.0,64.0
10251,73.0,10.0,60.0,6.0,64.0
10252,70.0,42.0,60.0,6.0,64.0
10253,73.0,13.0,30.0,6.0,64.0
10254,66.0,34.0,60.0,6.0,64.0
10255,70.0,71.0,60.0,6.0,64.0
10256,68.0,1.0,60.0,6.0,64.0
10257,53.0,9.0,60.0,10.0,64.0
10258,68.0,2.0,60.0,8.0,64.0
10259,73.0,20.0,60.0,7.0,64.0
10260,71.0,95.0,30.0,6.0,64.0
10261,70.0,0.0,60.0,6.0,64.0
10262,54.0,5.0,60.0,10.0,64.0
10263,73.0,21.0,90.0,7.0,64.0
10264,66.0,18.0,60.0,8.0,64.0
10265,73.0,64.0,60.0,6.0,64.0
10266,78.0,5.0,60.0,6.0,64.0
10267,75.0,19.0,60.0,7.0,64.0
10268,51.0,7.0,60.0,10.0,64.0
10269,70.0,5.0,60.0,8.0,64.0
10270,70.0,83.0,30.0,6.0,64.0
10271,68.0,1.0,60.0,6.0,64.0
10272,75.0,21.0,60.0,7.0,64.0
10273,47.0,13.0,60.0,10.0,64.0
10274,71.0,2.0,60.0,8.0,64.0
10275,78.0,76.0,30.0,6.0,64.0
10276,68.0,11.0,60.0,6.0,64.0
10277,49.0,2.0,30.0,10.0,64.0
10278,73.0,2.0,60.0,7.0,64.0
10279,71.0,37.0,60.0,8.0,64.0
10280,77.0,68.0,60.0,6.0,64.0
10281,78.0,69.0,60.0,6.0,64.0
10282,70.0,35.0,240.0,8.0,64.0
10283,73.0,17.0,240.0,7.0,64.0
10284,42.0,2.0,240.0,10.0,64.0
10285,73.0,50.0,60.0,6.0,64.0
10286,78.0,40.0,60.0,6.0,64.0
10287,80.0,37.0,30.0,6.0,64.0
10288,82.0,35.0,60.0,6.0,64.0
10289,85.0,77.0,30.0,6.0,64.0
10290,84.0,0.0,60.0,6.0,64.0
10291,54.0,4.0,60.0,10.0,64.0
10292,75.0,2.0,60.0,7.0,64.0
10293,68.0,23.0,60.0,8.0,64.0
10294,87.0,95.0,30.0,6.0,64.0
10295,53.0,6.0,60.0,10.0,64.0
10296,77.0,0.0,60.0,7.0,64.0
10297,85.0,2.0,60.0,6.0,64.0
10298,68.0,51.0,60.0,8.0,64.0
10299,80.0,54.0,60.0,6.0,64.0
10300,77.0,1.0,60.0,6.0,64.0
10301,58.0,0.0,60.0,10.0,64.0
10302,73.0,23.0,60.0,7.0,64.0
10303,70.0,16.0,30.0,8.0,64.0
10304,85.0,76.0,30.0,6.0,64.0
10305,75.0,6.0,60.0,6.0,64.0
10306,82.0,26.0,60.0,7.0,64.0
10307,54.0,6.0,60.0,10.0,64.0
10308,70.0,1.0,60.0,8.0,64.0
10309,85.0,72.0,30.0,6.0,64.0
10310,75.0,4.0,60.0,6.0,64.0
10311,56.0,5.0,30.0,10.0,64.0
10312,80.0,30.0,60.0,7.0,64.0
10313,75.0,6.0,60.0,8.0,64.0
10314,84.0,81.0,30.0,6.0,64.0
10315,85.0,36.0,60.0,6.0,64.0
10316,49.0,7.0,90.0,10.0,64.0
10317,77.0,46.0,240.0,8.0,64.0
10318,80.0,4.0,240.0,7.0,64.0
10319,80.0,85.0,60.0,6.0,64.0
10320,77.0,11.0,60.0,6.0,64.0
10321,61.0,36.0,60.0,10.0,64.0
10322,78.0,29.0,60.0,6.0,64.0
10323,61.0,41.0,60.0,10.0,64.0
10324,80.0,8.0,60.0,6.0,64.0
10325,82.0,53.0,60.0,6.0,64.0
10326,61.0,7.0,60.0,10.0,64.0
10327,80.0,30.0,60.0,6.0,64.0
10328,80.0,1.0,60.0,7.0,64.0
10329,77.0,13.0,60.0,8.0,64.0
10330,82.0,75.0,30.0,6.0,64.0
10331,83.0,38.0,60.0,6.0,64.0
10332,80.0,3.0,60.0,7.0,64.0
10333,77.0,4.0,60.0,8.0,64.0
10334,80.0,70.0,60.0,6.0,64.0
10335,73.0,39.0,60.0,6.0,64.0
10336,80.0,11.0,60.0,7.0,64.0
10337,59.0,6.0,90.0,10.0,64.0
10338,77.0,5.0,30.0,8.0,64.0
10339,75.0,68.0,60.0,6.0,64.0
10340,77.0,30.0,60.0,6.0,64.0
10341,59.0,16.0,90.0,10.0,64.0
10342,78.0,66.0,60.0,6.0,64.0
10343,77.0,32.0,60.0,6.0,64.0
10344,80.0,7.0,60.0,7.0,64.0
10345,59.0,2.0,60.0,10.0,64.0
10346,75.0,5.0,30.0,8.0,64.0
10347,78.0,73.0,60.0,6.0,64.0
10348,77.0,20.0,60.0,7.0,64.0
10349,80.0,50.0,60.0,6.0,64.0
10350,74.0,2.0,30.0,8.0,64.0
10351,78.0,43.0,60.0,6.0,64.0
10352,77.0,16.0,60.0,7.0,64.0
10353,77.0,33.0,60.0,6.0,64.0
10354,74.0,12.0,30.0,8.0,64.0
10355,58.0,1.0,90.0,10.0,64.0
10356,78.0,89.0,60.0,6.0,64.0
10357,58.0,27.0,90.0,10.0,64.0
10358,80.0,26.0,60.0,6.0,64.0
10359,78.0,45.0,60.0,6.0,64.0
10360,77.0,4.0,60.0,6.0,64.0
10361,77.0,2.0,60.0,7.0,64.0
10362,74.0,2.0,60.0,8.0,64.0
10363,58.0,48.0,60.0,10.0,64.0
10364,75.0,57.0,60.0,6.0,64.0
10365,77.0,73.0,60.0,7.0,64.0
10366,74.0,6.0,60.0,6.0,64.0
10367,70.0,6.0,60.0,8.0,64.0
10368,80.0,41.0,60.0,6.0,64.0
10369,74.0,2.0,60.0,7.0,64.0
10370,82.0,29.0,90.0,6.0,64.0
10371,70.0,20.0,60.0,8.0,64.0
10372,46.0,1.0,90.0,10.0,64.0
10373,83.0,90.0,60.0,6.0,64.0
10374,82.0,3.0,90.0,6.0,64.0
10375,46.0,36.0,60.0,10.0,64.0
10376,80.0,55.0,60.0,6.0,64.0
10377,78.0,14.0,60.0,6.0,64.0
10378,74.0,5.0,60.0,7.0,64.0
10379,70.0,8.0,60.0,8.0,64.0
10380,46.0,30.0,60.0,10.0,64.0
10381,77.0,83.0,60.0,6.0,64.0
10382,78.0,0.0,60.0,6.0,64.0
10383,70.0,47.0,60.0,8.0,64.0
10384,75.0,1.0,60.0,7.0,64.0
10385,82.0,59.0,60.0,6.0,64.0
10386,75.0,38.0,90.0,6.0,64.0
10387,70.0,14.0,60.0,7.0,64.0
10388,66.0,9.0,60.0,8.0,64.0
10389,51.0,10.0,90.0,10.0,64.0
10390,77.0,58.0,60.0,6.0,64.0
10391,78.0,33.0,60.0,6.0,64.0
10392,51.0,73.0,90.0,10.0,64.0
10393,80.0,5.0,30.0,6.0,64.0
10394,78.0,2.0,60.0,6.0,64.0
10395,70.0,10.0,60.0,8.0,64.0
10396,75.0,33.0,60.0,7.0,64.0
10397,51.0,0.0,60.0,10.0,64.0
10398,80.0,79.0,60.0,6.0,64.0
10399,82.0,59.0,60.0,6.0,64.0
10400,67.0,1.0,60.0,8.0,64.0
10401,76.0,8.0,60.0,7.0,64.0
10402,85.0,44.0,60.0,6.0,64.0
10403,73.0,6.0,60.0,8.0,64.0
10404,79.0,44.0,60.0,6.0,64.0
10405,58.0,11.0,210.0,10.0,64.0
10406,76.0,6.0,60.0,7.0,64.0
10407,80.0,82.0,60.0,6.0,64.0
10408,82.0,39.0,60.0,6.0,64.0
10409,83.0,43.0,60.0,6.0,64.0
10410,67.0,16.0,30.0,8.0,64.0
10411,82.0,3.0,60.0,6.0,64.0
10412,76.0,40.0,60.0,7.0,64.0
10413,58.0,2.0,60.0,10.0,64.0
10414,83.0,82.0,60.0,6.0,64.0
10415,85.0,38.0,60.0,6.0,64.0
10416,67.0,5.0,60.0,8.0,64.0
10417,70.0,3.0,60.0,7.0,64.0
10418,76.0,65.0,60.0,6.0,64.0
10419,75.0,34.0,60.0,6.0,64.0
10420,70.0,2.0,60.0,8.0,64.0
10421,55.0,85.0,90.0,10.0,64.0
10422,73.0,5.0,60.0,7.0,64.0
10423,76.0,8.0,30.0,6.0,64.0
10424,55.0,43.0,60.0,10.0,64.0
10425,85.0,1.0,60.0,6.0,64.0
10426,76.0,51.0,60.0,6.0,64.0
10427,55.0,36.0,60.0,10.0,64.0
10428,75.0,0.0,60.0,6.0,64.0
10429,70.0,16.0,30.0,8.0,64.0
10430,73.0,0.0,60.0,7.0,64.0
10431,73.0,77.0,60.0,6.0,64.0
10432,75.0,4.0,60.0,6.0,64.0
10433,70.0,11.0,60.0,8.0,64.0
10434,67.0,64.0,60.0,7.0,64.0
10435,77.0,36.0,90.0,6.0,64.0
10436,79.0,5.0,60.0,6.0,64.0
10437,70.0,7.0,60.0,8.0,64.0
10438,75.0,43.0,60.0,7.0,64.0
10439,51.0,13.0,90.0,10.0,64.0
10440,80.0,78.0,60.0,6.0,64.0
10441,82.0,4.0,60.0,6.0,64.0
10442,51.0,33.0,60.0,10.0,64.0
10443,83.0,52.0,60.0,6.0,64.0
10444,79.0,16.0,30.0,7.0,64.0
10445,85.0,2.0,60.0,6.0,64.0
10446,75.0,2.0,30.0,8.0,64.0
10447,51.0,40.0,60.0,10.0,64.0
10448,82.0,85.0,30.0,6.0,64.0
10449,83.0,14.0,60.0,6.0,64.0
10450,80.0,6.0,240.0,7.0,64.0
10451,75.0,37.0,240.0,8.0,64.0
10452,56.0,26.0,60.0,10.0,64.0
10453,80.0,71.0,60.0,6.0,64.0
10454,75.0,7.0,60.0,6.0,64.0
10455,68.0,40.0,60.0,10.0,64.0
10456,78.0,25.0,60.0,6.0,64.0
10457,77.0,10.0,60.0,6.0,64.0
10458,61.0,31.0,60.0,10.0,64.0
10459,80.0,70.0,60.0,6.0,64.0
10460,73.0,15.0,60.0,6.0,64.0
10461,65.0,24.0,60.0,10.0,64.0
10462,83.0,104.0,30.0,6.0,64.0
10463,82.0,1.0,60.0,6.0,64.0
10464,54.0,32.0,60.0,10.0,64.0
10465,78.0,72.0,60.0,6.0,64.0
10466,73.0,7.0,60.0,6.0,64.0
10467,66.0,34.0,60.0,10.0,64.0
10468,76.0,72.0,60.0,6.0,64.0
10469,59.0,6.0,60.0,10.0,64.0
10470,75.0,69.0,60.0,6.0,64.0
10471,78.0,50.0,60.0,6.0,64.0
10472,63.0,33.0,60.0,10.0,64.0
10473,71.0,5.0,60.0,6.0,64.0
10474,82.0,101.0,30.0,6.0,64.0
10475,53.0,13.0,60.0,10.0,64.0
10476,80.0,49.0,60.0,6.0,64.0
10477,77.0,51.0,60.0,6.0,64.0
10478,65.0,48.0,60.0,10.0,64.0
10479,72.0,3.0,60.0,6.0,64.0
10480,75.0,65.0,60.0,6.0,64.0
10481,74.0,77.0,60.0,6.0,64.0
10482,58.0,7.0,60.0,10.0,64.0
10483,77.0,32.0,90.0,6.0,64.0
10484,70.0,1.0,60.0,6.0,64.0
10485,62.0,43.0,60.0,10.0,64.0
10486,80.0,107.0,30.0,6.0,64.0
10487,51.0,46.0,90.0,10.0,64.0
10488,78.0,1.0,90.0,6.0,64.0
10489,75.0,42.0,60.0,6.0,64.0
10490,77.0,17.0,60.0,6.0,64.0
10491,63.0,37.0,60.0,10.0,64.0
10492,78.0,70.0,60.0,6.0,64.0
10493,59.0,21.0,60.0,10.0,64.0
10494,80.0,42.0,60.0,6.0,64.0
10495,82.0,57.0,60.0,6.0,64.0
10496,56.0,3.0,60.0,10.0,64.0
10497,83.0,46.0,60.0,6.0,64.0
10498,80.0,88.0,60.0,6.0,64.0
10499,74.0,54.0,60.0,6.0,64.0
10500,58.0,40.0,240.0,10.0,64.0
10501,80.0,6.0,1200.0,4.0,64.0
10502,80.0,62.0,60.0,6.0,64.0
10503,82.0,38.0,60.0,6.0,64.0
10504,70.0,3.0,60.0,7.0,64.0
10505,70.0,4.0,90.0,0.0,64.0
10506,72.0,23.0,60.0,7.0,64.0
10507,80.0,1.0,60.0,6.0,64.0
10508,74.0,15.0,60.0,7.0,64.0
10509,82.0,38.0,60.0,6.0,64.0
10510,70.0,19.0,90.0,0.0,64.0
10511,77.0,51.0,240.0,8.0,64.0
10512,80.0,62.0,60.0,6.0,64.0
10513,82.0,36.0,60.0,6.0,64.0
10514,74.0,4.0,60.0,7.0,64.0
10515,70.0,4.0,90.0,0.0,64.0
10516,75.0,1.0,60.0,7.0,64.0
10517,80.0,21.0,60.0,6.0,64.0
10518,77.0,15.0,60.0,7.0,64.0
10519,74.0,29.0,60.0,6.0,64.0
10520,70.0,15.0,90.0,0.0,64.0
10521,46.0,35.0,240.0,10.0,64.0
10522,80.0,55.0,60.0,6.0,64.0
10523,82.0,26.0,90.0,6.0,64.0
10524,74.0,18.0,60.0,7.0,64.0
10525,82.0,2.0,90.0,1.0,64.0
10526,70.0,12.0,90.0,0.0,64.0
10527,75.0,8.0,60.0,7.0,64.0
10528,80.0,25.0,60.0,6.0,64.0
10529,82.0,37.0,60.0,6.0,64.0
10530,77.0,5.0,60.0,7.0,64.0
10531,82.0,3.0,90.0,1.0,64.0
10532,74.0,41.0,240.0,8.0,64.0
10533,70.0,23.0,90.0,0.0,64.0
10534,80.0,51.0,60.0,6.0,64.0
10535,82.0,6.0,60.0,6.0,64.0
10536,77.0,30.0,60.0,7.0,64.0
10537,70.0,6.0,90.0,0.0,64.0
10538,82.0,2.0,90.0,1.0,64.0
10539,80.0,4.0,60.0,6.0,64.0
10540,78.0,25.0,60.0,7.0,64.0
10541,74.0,39.0,60.0,6.0,64.0
10542,80.0,6.0,60.0,7.0,64.0
10543,82.0,0.0,90.0,1.0,64.0
10544,70.0,38.0,90.0,0.0,64.0
10545,80.0,40.0,90.0,6.0,64.0
10546,82.0,25.0,60.0,6.0,64.0
10547,58.0,6.0,60.0,10.0,64.0
10548,82.0,0.0,90.0,1.0,64.0
10549,80.0,9.0,60.0,7.0,64.0
10550,82.0,5.0,90.0,2.0,64.0
10551,70.0,6.0,90.0,0.0,64.0
10552,83.0,41.0,90.0,6.0,64.0
10553,78.0,21.0,60.0,7.0,64.0
10554,82.0,2.0,60.0,6.0,64.0
10555,80.0,23.0,60.0,7.0,64.0
10556,70.0,71.0,240.0,8.0,64.0
10557,82.0,4.0,90.0,2.0,64.0
10558,62.0,11.0,60.0,10.0,64.0
10559,82.0,8.0,90.0,1.0,64.0
10560,70.0,21.0,90.0,0.0,64.0
10561,77.0,15.0,210.0,4.0,64.0
10562,80.0,48.0,60.0,6.0,64.0
10563,79.0,1.0,60.0,6.0,64.0
10564,82.0,2.0,90.0,1.0,64.0
10565,58.0,5.0,60.0,10.0,64.0
10566,82.0,24.0,60.0,7.0,64.0
10567,70.0,14.0,90.0,0.0,64.0
10568,82.0,1.0,90.0,2.0,64.0
10569,80.0,12.0,30.0,7.0,64.0
10570,77.0,2.0,30.0,6.0,64.0
10571,79.0,6.0,180.0,7.0,64.0
10572,73.0,54.0,90.0,6.0,64.0
10573,63.0,27.0,270.0,10.0,64.0
10574,82.0,1.0,150.0,1.0,64.0
10575,79.0,7.0,1410.0,4.0,64.0
10576,82.0,25.0,150.0,2.0,64.0
10577,73.0,54.0,1200.0,5.0,64.0
10578,70.0,3.0,120.0,0.0,64.0
10579,79.0,15.0,60.0,6.0,64.0
10580,82.0,29.0,60.0,6.0,64.0
10581,63.0,17.0,60.0,8.0,64.0
10582,65.0,16.0,60.0,8.0,64.0
10583,79.0,25.0,60.0,6.0,64.0
10584,67.0,19.0,60.0,8.0,64.0
10585,82.0,57.0,60.0,6.0,64.0
10586,75.0,64.0,240.0,7.0,64.0
10587,79.0,50.0,90.0,6.0,64.0
10588,82.0,24.0,60.0,6.0,64.0
10589,67.0,13.0,60.0,8.0,64.0
10590,68.0,8.0,30.0,8.0,64.0
10591,79.0,14.0,60.0,6.0,64.0
10592,70.0,9.0,60.0,8.0,64.0
10593,73.0,43.0,60.0,6.0,64.0
10594,51.0,63.0,240.0,10.0,64.0
10595,79.0,66.0,60.0,6.0,64.0
10596,82.0,43.0,90.0,6.0,64.0
10597,67.0,8.0,60.0,8.0,64.0
10598,79.0,7.0,60.0,6.0,64.0
10599,68.0,6.0,60.0,8.0,64.0
10600,82.0,51.0,60.0,6.0,64.0
10601,79.0,34.0,240.0,7.0,64.0
10602,70.0,2.0,60.0,8.0,64.0
10603,79.0,64.0,60.0,6.0,64.0
10604,82.0,27.0,60.0,6.0,64.0
10605,70.0,5.0,60.0,8.0,64.0
10606,79.0,12.0,30.0,6.0,64.0
10607,72.0,22.0,60.0,8.0,64.0
10608,73.0,47.0,60.0,6.0,64.0
10609,73.0,23.0,30.0,8.0,64.0
10610,79.0,55.0,60.0,6.0,64.0
10611,63.0,5.0,60.0,10.0,64.0
10612,82.0,7.0,60.0,6.0,64.0
10613,73.0,45.0,60.0,8.0,64.0
10614,80.0,3.0,60.0,6.0,64.0
10615,72.0,7.0,60.0,8.0,64.0
10616,79.0,39.0,60.0,6.0,64.0
10617,73.0,3.0,60.0,8.0,64.0
10618,51.0,4.0,60.0,10.0,64.0
10619,82.0,9.0,180.0,7.0,64.0
10620,70.0,64.0,210.0,5.0,64.0
10621,77.0,63.0,60.0,6.0,64.0
10622,75.0,8.0,60.0,6.0,64.0
10623,55.0,3.0,60.0,10.0,64.0
10624,75.0,17.0,60.0,8.0,64.0
10625,73.0,17.0,30.0,6.0,64.0
10626,73.0,7.0,60.0,8.0,64.0
10627,72.0,77.0,60.0,6.0,64.0
10628,72.0,21.0,180.0,8.0,64.0
10629,78.0,18.0,1440.0,4.0,64.0
10630,56.0,5.0,240.0,10.0,64.0
10631,72.0,75.0,1440.0,5.0,64.0
10632,78.0,41.0,90.0,6.0,64.0
10633,68.0,11.0,60.0,7.0,64.0
10634,80.0,23.0,90.0,6.0,64.0
10635,70.0,18.0,60.0,7.0,64.0
10636,78.0,34.0,60.0,6.0,64.0
10637,72.0,35.0,60.0,7.0,64.0
10638,75.0,54.0,270.0,8.0,64.0
10639,80.0,43.0,60.0,6.0,64.0
10640,78.0,45.0,60.0,6.0,64.0
10641,72.0,15.0,60.0,7.0,64.0
10642,80.0,27.0,60.0,6.0,64.0
10643,73.0,9.0,60.0,7.0,64.0
10644,78.0,28.0,60.0,6.0,64.0
10645,75.0,1.0,60.0,7.0,64.0
10646,72.0,70.0,60.0,6.0,64.0
10647,44.0,12.0,240.0,10.0,64.0
10648,78.0,36.0,60.0,6.0,64.0
10649,72.0,29.0,60.0,7.0,64.0
10650,80.0,34.0,60.0,6.0,64.0
10651,73.0,18.0,60.0,7.0,64.0
10652,78.0,29.0,90.0,6.0,64.0
10653,75.0,35.0,60.0,7.0,64.0
10654,72.0,44.0,270.0,8.0,64.0
10655,80.0,52.0,60.0,6.0,64.0
10656,78.0,53.0,60.0,6.0,64.0
10657,75.0,0.0,60.0,7.0,64.0
10658,80.0,26.0,60.0,6.0,64.0
10659,77.0,35.0,60.0,7.0,64.0
10660,78.0,7.0,30.0,6.0,64.0
10661,78.0,10.0,60.0,7.0,64.0
10662,72.0,61.0,60.0,6.0,64.0
10663,78.0,43.0,60.0,6.0,64.0
10664,56.0,6.0,60.0,10.0,64.0
10665,80.0,20.0,90.0,6.0,64.0
10666,78.0,19.0,60.0,7.0,64.0
10667,77.0,25.0,30.0,7.0,64.0
10668,82.0,10.0,60.0,6.0,64.0
10669,68.0,2.0,240.0,8.0,64.0
10670,78.0,50.0,60.0,7.0,64.0
10671,60.0,2.0,60.0,10.0,64.0
10672,80.0,6.0,60.0,6.0,64.0
10673,81.0,39.0,15.0,6.0,64.0
10674,78.0,67.0,60.0,6.0,64.0
10675,77.0,3.0,60.0,6.0,64.0
10676,56.0,12.0,60.0,10.0,64.0
10677,80.0,22.0,60.0,7.0,64.0
10678,75.0,3.0,60.0,6.0,64.0
10679,78.0,6.0,30.0,7.0,64.0
10680,77.0,18.0,210.0,7.0,64.0
10681,77.0,9.0,1410.0,4.0,64.0
10682,71.0,65.0,60.0,6.0,64.0
10683,61.0,34.0,240.0,10.0,64.0
10684,71.0,0.0,1380.0,5.0,64.0
10685,77.0,42.0,90.0,6.0,64.0
10686,80.0,6.0,60.0,6.0,64.0
10687,73.0,12.0,90.0,0.0,64.0
10688,61.0,9.0,60.0,8.0,64.0
10689,77.0,15.0,60.0,6.0,64.0
10690,63.0,13.0,60.0,8.0,64.0
10691,80.0,27.0,60.0,6.0,64.0
10692,65.0,19.0,60.0,8.0,64.0
10693,73.0,30.0,90.0,0.0,64.0
10694,73.0,54.0,240.0,7.0,64.0
10695,77.0,57.0,60.0,6.0,64.0
10696,80.0,32.0,60.0,6.0,64.0
10697,65.0,4.0,60.0,8.0,64.0
10698,73.0,3.0,90.0,0.0,64.0
10699,77.0,0.0,60.0,6.0,64.0
10700,66.0,38.0,60.0,8.0,64.0
10701,71.0,27.0,90.0,6.0,64.0
10702,68.0,1.0,60.0,8.0,64.0
10703,73.0,39.0,90.0,0.0,64.0
10704,49.0,11.0,210.0,10.0,64.0
10705,77.0,35.0,90.0,6.0,64.0
10706,80.0,20.0,60.0,6.0,64.0
10707,65.0,18.0,60.0,8.0,64.0
10708,85.0,5.0,90.0,1.0,64.0
10709,73.0,15.0,90.0,0.0,64.0
10710,66.0,2.0,60.0,8.0,64.0
10711,77.0,55.0,60.0,6.0,64.0
10712,77.0,55.0,270.0,7.0,64.0
10713,80.0,31.0,60.0,6.0,64.0
10714,68.0,7.0,60.0,8.0,64.0
10715,85.0,23.0,90.0,1.0,64.0
10716,73.0,2.0,90.0,0.0,64.0
10717,77.0,49.0,60.0,6.0,64.0
10718,80.0,21.0,60.0,6.0,64.0
10719,68.0,6.0,60.0,8.0,64.0
10720,73.0,15.0,60.0,0.0,64.0
10721,85.0,30.0,90.0,1.0,64.0
10722,70.0,3.0,60.0,8.0,64.0
10723,77.0,2.0,30.0,6.0,64.0
10724,71.0,2.0,60.0,8.0,64.0
10725,71.0,33.0,60.0,6.0,64.0
10726,73.0,0.0,90.0,0.0,64.0
10727,85.0,31.0,90.0,1.0,64.0
10728,77.0,25.0,90.0,6.0,64.0
10729,71.0,16.0,60.0,8.0,64.0
10730,80.0,23.0,60.0,6.0,64.0
10731,61.0,3.0,60.0,10.0,64.0
10732,49.0,9.0,30.0,3.0,64.0
10733,80.0,24.0,90.0,0.0,64.0
10734,85.0,4.0,90.0,2.0,64.0
10735,85.0,4.0,90.0,1.0,64.0
10736,70.0,0.0,60.0,8.0,64.0
10737,78.0,42.0,90.0,6.0,64.0
10738,77.0,27.0,90.0,6.0,64.0
10739,71.0,8.0,60.0,8.0,64.0
10740,49.0,6.0,60.0,10.0,64.0
10741,92.0,6.0,90.0,1.0,64.0
10742,80.0,5.0,150.0,7.0,64.0
10743,85.0,3.0,90.0,2.0,64.0
10744,85.0,1.0,90.0,0.0,64.0
10745,49.0,7.0,30.0,3.0,64.0
10746,75.0,50.0,60.0,6.0,64.0
10747,73.0,19.0,60.0,6.0,64.0
10748,73.0,6.0,60.0,8.0,64.0
10749,53.0,9.0,60.0,10.0,64.0
10750,85.0,1.0,90.0,1.0,64.0
10751,80.0,14.0,90.0,0.0,64.0
10752,85.0,61.0,90.0,2.0,64.0
10753,49.0,1.0,30.0,3.0,64.0
10754,71.0,3.0,30.0,8.0,64.0
10755,71.0,8.0,30.0,6.0,64.0
10756,70.0,1.0,60.0,6.0,64.0
10757,70.0,2.0,180.0,5.0,64.0
10758,70.0,36.0,270.0,8.0,64.0
10759,78.0,19.0,240.0,7.0,64.0
10760,54.0,54.0,60.0,10.0,64.0
10761,78.0,7.0,150.0,4.0,64.0
10762,82.0,5.0,120.0,0.0,64.0
10763,54.0,8.0,30.0,3.0,64.0
10764,78.0,1.0,150.0,2.0,64.0
10765,85.0,9.0,120.0,1.0,64.0
10766,66.0,25.0,60.0,6.0,64.0
10767,68.0,11.0,60.0,6.0,64.0
10768,53.0,27.0,60.0,10.0,64.0
10769,71.0,28.0,30.0,6.0,64.0
10770,70.0,7.0,60.0,6.0,64.0
10771,54.0,23.0,60.0,10.0,64.0
10772,73.0,90.0,30.0,6.0,64.0
10773,72.0,26.0,60.0,6.0,64.0
10774,56.0,2.0,60.0,10.0,64.0
10775,75.0,94.0,30.0,6.0,64.0
10776,58.0,62.0,60.0,10.0,64.0
10777,73.0,9.0,60.0,6.0,64.0
10778,70.0,44.0,60.0,6.0,64.0
10779,56.0,18.0,60.0,10.0,64.0
10780,72.0,29.0,60.0,6.0,64.0
10781,75.0,80.0,30.0,6.0,64.0
10782,58.0,12.0,60.0,10.0,64.0
10783,73.0,35.0,60.0,6.0,64.0
10784,77.0,82.0,60.0,6.0,64.0
10785,60.0,24.0,90.0,10.0,64.0
10786,75.0,4.0,60.0,6.0,64.0
10787,78.0,94.0,30.0,6.0,64.0
10788,61.0,11.0,60.0,10.0,64.0
10789,77.0,57.0,60.0,6.0,64.0
10790,73.0,52.0,60.0,6.0,64.0
10791,75.0,3.0,60.0,6.0,64.0
10792,60.0,31.0,60.0,10.0,64.0
10793,78.0,76.0,30.0,6.0,64.0
10794,77.0,27.0,60.0,6.0,64.0
10795,61.0,5.0,60.0,10.0,64.0
10796,80.0,87.0,30.0,6.0,64.0
10797,78.0,40.0,60.0,6.0,64.0
10798,58.0,3.0,60.0,10.0,64.0
10799,82.0,82.0,60.0,6.0,64.0
10800,80.0,23.0,150.0,6.0,64.0
10801,53.0,92.0,60.0,10.0,64.0
10802,54.0,35.0,60.0,10.0,64.0
10803,82.0,67.0,30.0,6.0,64.0
10804,56.0,15.0,60.0,10.0,64.0
10805,77.0,24.0,30.0,6.0,64.0
10806,75.0,38.0,30.0,6.0,64.0
10807,77.0,45.0,60.0,6.0,64.0
10808,75.0,32.0,60.0,6.0,64.0
10809,44.0,22.0,60.0,10.0,64.0
10810,73.0,113.0,30.0,6.0,64.0
10811,49.0,45.0,90.0,10.0,64.0
10812,73.0,9.0,60.0,6.0,64.0
10813,75.0,39.0,60.0,6.0,64.0
10814,73.0,11.0,90.0,8.0,64.0
10815,80.0,11.0,60.0,5.0,64.0
10816,80.0,0.0,60.0,7.0,64.0
10817,77.0,1.0,30.0,6.0,64.0
10818,92.0,5.0,90.0,0.0,64.0
10819,77.0,8.0,60.0,4.0,64.0
10820,49.0,30.0,60.0,10.0,64.0
10821,78.0,59.0,60.0,6.0,64.0
10822,51.0,1.0,60.0,10.0,64.0
10823,78.0,2.0,60.0,4.0,64.0
10824,73.0,13.0,90.0,8.0,64.0
10825,80.0,5.0,60.0,6.0,64.0
10826,80.0,4.0,60.0,4.0,64.0
10827,53.0,26.0,60.0,10.0,64.0
10828,97.0,5.0,120.0,0.0,64.0
10829,73.0,0.0,60.0,5.0,64.0
10830,73.0,4.0,60.0,7.0,64.0
10831,82.0,3.0,30.0,6.0,64.0
10832,82.0,55.0,60.0,4.0,64.0
10833,80.0,33.0,60.0,6.0,64.0
10834,73.0,2.0,90.0,8.0,64.0
10835,80.0,7.0,60.0,4.0,64.0
10836,92.0,0.0,90.0,1.0,64.0
10837,53.0,1.0,60.0,10.0,64.0
10838,92.0,58.0,120.0,0.0,64.0
10839,77.0,8.0,150.0,7.0,64.0
10840,77.0,3.0,180.0,5.0,64.0
10841,82.0,5.0,60.0,6.0,64.0
10842,54.0,5.0,30.0,10.0,64.0
10843,82.0,12.0,60.0,4.0,64.0
10844,73.0,0.0,90.0,8.0,64.0
10845,83.0,3.0,60.0,6.0,64.0
10846,56.0,0.0,60.0,10.0,64.0
10847,95.0,8.0,90.0,1.0,64.0
10848,83.0,27.0,60.0,4.0,64.0
10849,80.0,2.0,30.0,6.0,64.0
10850,80.0,63.0,60.0,4.0,64.0
10851,73.0,2.0,60.0,6.0,64.0
10852,73.0,1.0,90.0,8.0,64.0
10853,80.0,12.0,60.0,7.0,64.0
10854,73.0,30.0,60.0,4.0,64.0
10855,92.0,44.0,120.0,1.0,64.0
10856,80.0,2.0,60.0,5.0,64.0
10857,92.0,6.0,90.0,0.0,64.0
10858,53.0,1.0,60.0,10.0,64.0
10859,75.0,8.0,60.0,6.0,64.0
10860,75.0,5.0,60.0,4.0,64.0
10861,54.0,5.0,60.0,10.0,64.0
10862,77.0,19.0,60.0,6.0,64.0
10863,73.0,8.0,90.0,8.0,64.0
10864,71.0,8.0,60.0,7.0,64.0
10865,77.0,2.0,60.0,4.0,64.0
10866,95.0,1.0,90.0,0.0,64.0
10867,56.0,14.0,60.0,10.0,64.0
10868,71.0,5.0,60.0,5.0,64.0
10869,78.0,3.0,60.0,6.0,64.0
10870,78.0,44.0,60.0,4.0,64.0
10871,77.0,18.0,30.0,6.0,64.0
10872,77.0,10.0,60.0,4.0,64.0
10873,73.0,0.0,90.0,8.0,64.0
10874,92.0,9.0,90.0,1.0,64.0
10875,92.0,37.0,120.0,0.0,64.0
10876,77.0,3.0,180.0,7.0,64.0
10877,56.0,23.0,60.0,10.0,64.0
10878,77.0,17.0,180.0,5.0,64.0
10879,78.0,5.0,60.0,6.0,64.0
10880,78.0,1.0,60.0,4.0,64.0
10881,58.0,37.0,30.0,10.0,64.0
10882,80.0,7.0,60.0,6.0,64.0
10883,59.0,3.0,90.0,10.0,64.0
10884,80.0,9.0,60.0,4.0,64.0
10885,73.0,10.0,90.0,8.0,64.0
10886,97.0,5.0,90.0,1.0,64.0
10887,78.0,4.0,60.0,6.0,64.0
10888,78.0,51.0,60.0,4.0,64.0
10889,77.0,5.0,60.0,6.0,64.0
10890,73.0,2.0,90.0,8.0,64.0
10891,80.0,1.0,30.0,7.0,64.0
10892,92.0,6.0,30.0,0.0,64.0
10893,77.0,30.0,60.0,4.0,64.0
10894,59.0,7.0,60.0,10.0,64.0
10895,85.0,0.0,90.0,1.0,64.0
10896,85.0,0.0,90.0,2.0,64.0
10897,49.0,1.0,30.0,3.0,64.0
10898,80.0,1.0,30.0,5.0,64.0
10899,78.0,5.0,60.0,6.0,64.0
10900,90.0,2.0,30.0,0.0,64.0
10901,58.0,6.0,60.0,10.0,64.0
10902,78.0,63.0,60.0,4.0,64.0
10903,80.0,3.0,60.0,6.0,64.0
10904,92.0,1.0,60.0,0.0,64.0
10905,59.0,19.0,60.0,10.0,64.0
10906,73.0,23.0,90.0,8.0,64.0
10907,73.0,12.0,60.0,7.0,64.0
10908,85.0,1.0,90.0,2.0,64.0
10909,85.0,3.0,90.0,1.0,64.0
10910,80.0,3.0,60.0,4.0,64.0
10911,73.0,0.0,60.0,5.0,64.0
10912,49.0,2.0,30.0,3.0,64.0
10913,78.0,34.0,60.0,6.0,64.0
10914,78.0,3.0,60.0,4.0,64.0
10915,77.0,0.0,60.0,6.0,64.0
10916,85.0,0.0,90.0,2.0,64.0
10917,77.0,7.0,60.0,7.0,64.0
10918,94.0,10.0,30.0,0.0,64.0
10919,77.0,10.0,60.0,4.0,64.0
10920,73.0,4.0,90.0,8.0,64.0
10921,85.0,11.0,60.0,1.0,64.0
10922,61.0,12.0,60.0,10.0,64.0
10923,77.0,1.0,30.0,5.0,64.0
10924,49.0,3.0,30.0,3.0,64.0
10925,92.0,5.0,30.0,0.0,64.0
10926,75.0,68.0,60.0,6.0,64.0
10927,75.0,0.0,60.0,4.0,64.0
10928,59.0,4.0,30.0,10.0,64.0
10929,90.0,8.0,60.0,0.0,64.0
10930,58.0,26.0,90.0,10.0,64.0
10931,73.0,2.0,60.0,6.0,64.0
10932,73.0,5.0,60.0,4.0,64.0
10933,54.0,6.0,60.0,3.0,64.0
10934,78.0,4.0,120.0,2.0,64.0
10935,73.0,12.0,90.0,8.0,64.0
10936,78.0,2.0,60.0,7.0,64.0
10937,85.0,26.0,120.0,1.0,64.0
10938,78.0,2.0,60.0,5.0,64.0
10939,77.0,11.0,60.0,7.0,64.0
10940,77.0,13.0,60.0,5.0,64.0
10941,78.0,2.0,60.0,7.0,64.0
10942,75.0,3.0,120.0,8.0,64.0
10943,94.0,3.0,90.0,0.0,64.0
10944,82.0,1.0,30.0,6.0,64.0
10945,78.0,33.0,60.0,5.0,64.0
10946,82.0,17.0,30.0,4.0,64.0
10947,51.0,3.0,60.0,10.0,64.0
10948,80.0,60.0,60.0,7.0,64.0
10949,53.0,1.0,60.0,10.0,64.0
10950,80.0,1.0,30.0,5.0,64.0
10951,82.0,1.0,60.0,7.0,64.0
10952,55.0,2.0,60.0,10.0,64.0
10953,99.0,2.0,90.0,0.0,64.0
10954,75.0,5.0,90.0,8.0,64.0
10955,75.0,11.0,60.0,6.0,64.0
10956,82.0,31.0,60.0,5.0,64.0
10957,75.0,7.0,30.0,4.0,64.0
10958,83.0,3.0,60.0,7.0,64.0
10959,83.0,59.0,30.0,5.0,64.0
10960,82.0,10.0,60.0,7.0,64.0
10961,94.0,55.0,120.0,0.0,64.0
10962,55.0,4.0,60.0,10.0,64.0
10963,79.0,7.0,180.0,6.0,64.0
10964,82.0,31.0,60.0,5.0,64.0
10965,94.0,3.0,90.0,1.0,64.0
10966,75.0,2.0,90.0,8.0,64.0
10967,79.0,4.0,180.0,4.0,64.0
10968,83.0,0.0,60.0,7.0,64.0
10969,56.0,12.0,60.0,10.0,64.0
10970,83.0,7.0,60.0,5.0,64.0
10971,58.0,33.0,60.0,10.0,64.0
10972,85.0,1.0,60.0,7.0,64.0
10973,97.0,9.0,90.0,1.0,64.0
10974,75.0,1.0,90.0,8.0,64.0
10975,85.0,1.0,60.0,5.0,64.0
10976,82.0,3.0,60.0,7.0,64.0
10977,82.0,56.0,60.0,5.0,64.0
10978,75.0,0.0,60.0,7.0,64.0
10979,94.0,6.0,120.0,1.0,64.0
10980,75.0,8.0,90.0,8.0,64.0
10981,82.0,11.0,60.0,4.0,64.0
10982,82.0,3.0,30.0,6.0,64.0
10983,55.0,6.0,60.0,10.0,64.0
10984,75.0,33.0,60.0,5.0,64.0
10985,94.0,2.0,90.0,0.0,64.0
10986,77.0,5.0,60.0,7.0,64.0
10987,56.0,0.0,60.0,10.0,64.0
10988,77.0,45.0,60.0,5.0,64.0
10989,58.0,9.0,90.0,10.0,64.0
10990,79.0,9.0,60.0,7.0,64.0
10991,73.0,11.0,30.0,6.0,64.0
10992,97.0,8.0,90.0,0.0,64.0
10993,75.0,8.0,90.0,8.0,64.0
10994,73.0,3.0,60.0,4.0,64.0
10995,79.0,12.0,60.0,5.0,64.0
10996,80.0,8.0,60.0,7.0,64.0
10997,80.0,57.0,60.0,5.0,64.0
10998,79.0,12.0,60.0,7.0,64.0
10999,75.0,2.0,90.0,8.0,64.0
11000,94.0,0.0,90.0,1.0,64.0
11001,58.0,13.0,60.0,10.0,64.0
11002,94.0,24.0,150.0,0.0,64.0
11003,79.0,12.0,150.0,6.0,64.0
11004,79.0,17.0,60.0,5.0,64.0
11005,79.0,1.0,180.0,4.0,64.0
11006,80.0,2.0,60.0,7.0,64.0
11007,60.0,6.0,60.0,10.0,64.0
11008,80.0,38.0,30.0,5.0,64.0
11009,61.0,27.0,90.0,10.0,64.0
11010,75.0,25.0,120.0,8.0,64.0
11011,99.0,7.0,90.0,1.0,64.0
11012,82.0,6.0,60.0,7.0,64.0
11013,82.0,6.0,60.0,5.0,64.0
11014,80.0,3.0,60.0,7.0,64.0
11015,80.0,29.0,60.0,5.0,64.0
11016,82.0,9.0,60.0,6.0,64.0
11017,61.0,0.0,60.0,10.0,64.0
11018,79.0,37.0,60.0,7.0,64.0
11019,94.0,38.0,120.0,1.0,64.0
11020,79.0,8.0,60.0,5.0,64.0
11021,82.0,1.0,60.0,4.0,64.0
11022,75.0,3.0,90.0,8.0,64.0
11023,94.0,5.0,30.0,0.0,64.0
11024,60.0,3.0,60.0,10.0,64.0
11025,80.0,9.0,60.0,7.0,64.0
11026,92.0,10.0,60.0,0.0,64.0
11027,80.0,3.0,60.0,5.0,64.0
11028,61.0,15.0,60.0,10.0,64.0
11029,75.0,9.0,60.0,6.0,64.0
11030,94.0,10.0,90.0,0.0,64.0
11031,82.0,1.0,60.0,5.0,64.0
11032,75.0,10.0,60.0,4.0,64.0
11033,82.0,2.0,60.0,7.0,64.0
11034,75.0,32.0,90.0,8.0,64.0
11035,80.0,1.0,60.0,5.0,64.0
11036,80.0,40.0,60.0,7.0,64.0
11037,79.0,3.0,60.0,6.0,64.0
11038,79.0,5.0,60.0,7.0,64.0
11039,75.0,34.0,60.0,8.0,64.0
11040,63.0,4.0,60.0,10.0,64.0
11041,96.0,12.0,60.0,0.0,64.0
11042,79.0,1.0,60.0,5.0,64.0
11043,79.0,1.0,60.0,4.0,64.0
11044,77.0,5.0,60.0,7.0,64.0
11045,61.0,4.0,60.0,10.0,64.0
11046,94.0,2.0,60.0,0.0,64.0
11047,77.0,59.0,60.0,5.0,64.0
11048,80.0,12.0,90.0,6.0,64.0
11049,75.0,3.0,120.0,7.0,64.0
11050,60.0,8.0,60.0,10.0,64.0
11051,92.0,15.0,120.0,0.0,64.0
11052,75.0,17.0,60.0,8.0,64.0
11053,75.0,44.0,120.0,5.0,64.0
11054,80.0,11.0,90.0,4.0,64.0
11055,80.0,2.0,30.0,8.0,64.0
11056,68.0,11.0,60.0,6.0,64.0
11057,72.0,8.0,60.0,8.0,64.0
11058,80.0,7.0,120.0,7.0,64.0
11059,63.0,4.0,30.0,10.0,64.0
11060,92.0,4.0,90.0,0.0,64.0
11061,80.0,1.0,90.0,5.0,64.0
11062,68.0,24.0,60.0,4.0,64.0
11063,70.0,4.0,60.0,6.0,64.0
11064,73.0,4.0,60.0,8.0,64.0
11065,70.0,55.0,60.0,4.0,64.0
11066,72.0,7.0,60.0,6.0,64.0
11067,75.0,1.0,60.0,8.0,64.0
11068,92.0,54.0,90.0,0.0,64.0
11069,80.0,3.0,90.0,7.0,64.0
11070,56.0,9.0,60.0,10.0,64.0
11071,72.0,35.0,60.0,4.0,64.0
11072,80.0,1.0,90.0,5.0,64.0
11073,77.0,4.0,60.0,8.0,64.0
11074,72.0,12.0,60.0,6.0,64.0
11075,75.0,32.0,60.0,8.0,64.0
11076,60.0,0.0,180.0,10.0,64.0
11077,80.0,64.0,90.0,7.0,64.0
11078,80.0,6.0,90.0,5.0,64.0
11079,72.0,3.0,60.0,4.0,64.0
11080,92.0,1.0,90.0,0.0,64.0
11081,73.0,7.0,60.0,6.0,64.0
11082,77.0,2.0,60.0,8.0,64.0
11083,73.0,5.0,60.0,4.0,64.0
11084,75.0,9.0,60.0,6.0,64.0
11085,78.0,3.0,60.0,8.0,64.0
11086,75.0,26.0,60.0,4.0,64.0
11087,80.0,1.0,90.0,5.0,64.0
11088,80.0,7.0,90.0,7.0,64.0
11089,92.0,56.0,90.0,0.0,64.0
11090,75.0,6.0,60.0,8.0,64.0
11091,68.0,32.0,60.0,8.0,64.0
11092,72.0,13.0,60.0,6.0,64.0
11093,92.0,1.0,90.0,1.0,64.0
11094,63.0,4.0,60.0,10.0,64.0
11095,72.0,1.0,60.0,4.0,64.0
11096,80.0,2.0,90.0,7.0,64.0
11097,80.0,1.0,90.0,5.0,64.0
11098,92.0,58.0,90.0,0.0,64.0
11099,70.0,9.0,60.0,8.0,64.0
11100,73.0,2.0,60.0,4.0,64.0
11101,73.0,2.0,30.0,6.0,64.0
11102,72.0,10.0,60.0,8.0,64.0
11103,75.0,29.0,60.0,6.0,64.0
11104,80.0,2.0,90.0,7.0,64.0
11105,75.0,1.0,60.0,4.0,64.0
11106,92.0,2.0,90.0,1.0,64.0
11107,54.0,5.0,30.0,10.0,64.0
11108,92.0,15.0,90.0,0.0,64.0
11109,80.0,51.0,90.0,5.0,64.0
11110,73.0,0.0,60.0,8.0,64.0
11111,72.0,15.0,60.0,8.0,64.0
11112,80.0,2.0,90.0,7.0,64.0
11113,75.0,6.0,60.0,6.0,64.0
11114,60.0,1.0,180.0,10.0,64.0
11115,92.0,13.0,90.0,1.0,64.0
11116,75.0,26.0,60.0,4.0,64.0
11117,80.0,0.0,90.0,5.0,64.0
11118,92.0,1.0,90.0,0.0,64.0
11119,73.0,1.0,30.0,8.0,64.0
11120,77.0,0.0,60.0,6.0,64.0
11121,77.0,62.0,60.0,4.0,64.0
11122,75.0,4.0,60.0,8.0,64.0
11123,78.0,2.0,60.0,6.0,64.0
11124,80.0,4.0,90.0,7.0,64.0
11125,80.0,1.0,90.0,5.0,64.0
11126,78.0,34.0,60.0,4.0,64.0
11127,92.0,0.0,90.0,0.0,64.0
11128,92.0,2.0,90.0,1.0,64.0
11129,73.0,63.0,60.0,8.0,64.0
11130,72.0,2.0,60.0,8.0,64.0
11131,78.0,1.0,60.0,6.0,64.0
11132,78.0,1.0,60.0,4.0,64.0
11133,80.0,6.0,90.0,5.0,64.0
11134,96.0,75.0,90.0,1.0,64.0
11135,63.0,31.0,60.0,10.0,64.0
11136,80.0,3.0,90.0,7.0,64.0
11137,99.0,4.0,90.0,0.0,64.0
11138,92.0,0.0,90.0,2.0,64.0
11139,73.0,8.0,60.0,8.0,64.0
11140,77.0,2.0,60.0,4.0,64.0
11141,77.0,1.0,60.0,6.0,64.0
11142,75.0,10.0,60.0,8.0,64.0
11143,78.0,11.0,90.0,6.0,64.0
11144,78.0,1.0,60.0,4.0,64.0
11145,80.0,1.0,90.0,5.0,64.0
11146,80.0,11.0,90.0,7.0,64.0
11147,96.0,2.0,90.0,0.0,64.0
11148,92.0,3.0,90.0,2.0,64.0
11149,99.0,3.0,90.0,1.0,64.0
11150,56.0,1.0,60.0,10.0,64.0
11151,73.0,63.0,60.0,8.0,64.0
11152,72.0,0.0,60.0,8.0,64.0
11153,60.0,12.0,60.0,10.0,64.0
11154,99.0,7.0,90.0,0.0,64.0
11155,75.0,10.0,90.0,7.0,64.0
11156,80.0,9.0,60.0,6.0,64.0
11157,96.0,2.0,90.0,1.0,64.0
11158,75.0,2.0,60.0,5.0,64.0
11159,92.0,0.0,90.0,2.0,64.0
11160,80.0,9.0,60.0,4.0,64.0
11161,70.0,64.0,60.0,8.0,64.0
11162,78.0,2.0,60.0,6.0,64.0
11163,78.0,6.0,30.0,4.0,64.0
11164,68.0,3.0,60.0,8.0,64.0
11165,77.0,0.0,60.0,6.0,64.0
11166,73.0,1.0,60.0,5.0,64.0
11167,77.0,46.0,60.0,4.0,64.0
11168,92.0,4.0,120.0,2.0,64.0
11169,49.0,7.0,60.0,3.0,64.0
11170,49.0,8.0,60.0,10.0,64.0
11171,92.0,26.0,120.0,1.0,64.0
11172,73.0,2.0,60.0,7.0,64.0
11173,101.0,2.0,120.0,0.0,64.0
11174,72.0,2.0,60.0,5.0,64.0
11175,72.0,9.0,60.0,7.0,64.0
11176,73.0,23.0,60.0,5.0,64.0
11177,61.0,7.0,60.0,10.0,64.0
11178,65.0,15.0,60.0,8.0,64.0
11179,73.0,3.0,90.0,7.0,64.0
11180,77.0,2.0,30.0,4.0,64.0
11181,77.0,3.0,30.0,6.0,64.0
11182,75.0,5.0,30.0,6.0,64.0
11183,75.0,1.0,30.0,4.0,64.0
11184,75.0,78.0,30.0,5.0,64.0
11185,75.0,0.0,30.0,7.0,64.0
11186,77.0,5.0,90.0,6.0,64.0
11187,77.0,14.0,90.0,4.0,64.0
11188,73.0,3.0,60.0,7.0,64.0
11189,73.0,28.0,60.0,5.0,64.0
11190,54.0,10.0,60.0,10.0,64.0
11191,70.0,29.0,270.0,8.0,64.0
11192,72.0,30.0,60.0,5.0,64.0
11193,72.0,11.0,60.0,7.0,64.0
11194,58.0,36.0,60.0,10.0,64.0
11195,70.0,4.0,30.0,7.0,64.0
11196,78.0,1.0,30.0,6.0,64.0
11197,70.0,14.0,30.0,5.0,64.0
11198,78.0,2.0,30.0,4.0,64.0
11199,77.0,3.0,60.0,6.0,64.0
11200,73.0,41.0,60.0,7.0,64.0
11201,77.0,5.0,30.0,4.0,64.0
11202,73.0,9.0,30.0,5.0,64.0
11203,75.0,1.0,60.0,6.0,64.0
11204,48.0,3.0,60.0,10.0,64.0
11205,75.0,55.0,60.0,4.0,64.0
11206,72.0,3.0,60.0,5.0,64.0
11207,72.0,5.0,60.0,7.0,64.0
11208,73.0,5.0,60.0,5.0,64.0
11209,73.0,36.0,60.0,7.0,64.0
11210,60.0,0.0,60.0,10.0,64.0
11211,72.0,0.0,60.0,7.0,64.0
11212,75.0,7.0,60.0,6.0,64.0
11213,72.0,2.0,60.0,5.0,64.0
11214,75.0,5.0,60.0,4.0,64.0
11215,69.0,34.0,60.0,8.0,64.0
11216,73.0,2.0,30.0,6.0,64.0
11217,70.0,66.0,60.0,7.0,64.0
11218,73.0,11.0,30.0,4.0,64.0
11219,70.0,1.0,60.0,5.0,64.0
11220,70.0,8.0,60.0,8.0,64.0
11221,75.0,4.0,90.0,6.0,64.0
11222,69.0,0.0,60.0,5.0,64.0
11223,69.0,26.0,60.0,7.0,64.0
11224,53.0,8.0,60.0,10.0,64.0
11225,72.0,0.0,60.0,8.0,64.0
11226,75.0,7.0,90.0,4.0,64.0
11227,70.0,63.0,60.0,8.0,64.0
11228,69.0,0.0,60.0,8.0,64.0
11229,77.0,1.0,60.0,6.0,64.0
11230,72.0,22.0,90.0,7.0,64.0
11231,72.0,0.0,60.0,5.0,64.0
11232,57.0,11.0,60.0,10.0,64.0
11233,77.0,15.0,30.0,4.0,64.0
11234,75.0,8.0,60.0,6.0,64.0
11235,67.0,0.0,60.0,8.0,64.0
11236,75.0,73.0,60.0,4.0,64.0
11237,65.0,3.0,60.0,8.0,64.0
11238,73.0,0.0,60.0,6.0,64.0
11239,46.0,0.0,60.0,10.0,64.0
11240,73.0,8.0,60.0,5.0,64.0
11241,73.0,0.0,60.0,7.0,64.0
11242,73.0,36.0,60.0,4.0,64.0
11243,77.0,54.0,60.0,5.0,64.0
11244,77.0,5.0,60.0,7.0,64.0
11245,70.0,5.0,60.0,7.0,64.0
11246,65.0,11.0,60.0,8.0,64.0
11247,70.0,33.0,60.0,5.0,64.0
11248,73.0,1.0,60.0,6.0,64.0
11249,58.0,1.0,60.0,10.0,64.0
11250,73.0,3.0,60.0,4.0,64.0
11251,75.0,5.0,60.0,6.0,64.0
11252,72.0,10.0,60.0,7.0,64.0
11253,75.0,2.0,60.0,4.0,64.0
11254,72.0,46.0,60.0,5.0,64.0
11255,77.0,11.0,60.0,6.0,64.0
11256,73.0,3.0,60.0,7.0,64.0
11257,58.0,5.0,30.0,8.0,64.0
11258,77.0,3.0,60.0,4.0,64.0
11259,73.0,49.0,60.0,5.0,64.0
11260,56.0,4.0,60.0,10.0,64.0
11261,75.0,8.0,60.0,7.0,64.0
11262,75.0,38.0,60.0,5.0,64.0
11263,77.0,12.0,60.0,6.0,64.0
11264,73.0,5.0,60.0,7.0,64.0
11265,54.0,0.0,60.0,10.0,64.0
11266,61.0,4.0,180.0,8.0,64.0
11267,77.0,16.0,60.0,4.0,64.0
11268,73.0,8.0,60.0,5.0,64.0
11269,78.0,13.0,30.0,6.0,64.0
11270,78.0,10.0,30.0,4.0,64.0
11271,75.0,3.0,60.0,7.0,64.0
11272,75.0,62.0,60.0,5.0,64.0
11273,80.0,10.0,60.0,6.0,64.0
11274,80.0,4.0,60.0,4.0,64.0
11275,53.0,0.0,60.0,10.0,64.0
11276,77.0,8.0,60.0,7.0,64.0
11277,77.0,23.0,60.0,5.0,64.0
11278,80.0,13.0,60.0,7.0,64.0
11279,80.0,48.0,60.0,5.0,64.0
11280,77.0,10.0,60.0,6.0,64.0
11281,73.0,8.0,60.0,7.0,64.0
11282,58.0,3.0,60.0,10.0,64.0
11283,73.0,2.0,90.0,8.0,64.0
11284,73.0,26.0,60.0,5.0,64.0
11285,77.0,1.0,60.0,4.0,64.0
11286,78.0,8.0,60.0,6.0,64.0
11287,75.0,7.0,60.0,7.0,64.0
11288,75.0,7.0,60.0,5.0,64.0
11289,78.0,57.0,60.0,4.0,64.0
11290,80.0,2.0,60.0,6.0,64.0
11291,56.0,1.0,60.0,10.0,64.0
11292,77.0,5.0,60.0,7.0,64.0
11293,77.0,0.0,60.0,5.0,64.0
11294,73.0,10.0,90.0,8.0,64.0
11295,80.0,33.0,60.0,4.0,64.0
11296,78.0,3.0,60.0,7.0,64.0
11297,78.0,48.0,60.0,5.0,64.0
11298,77.0,17.0,60.0,7.0,64.0
11299,54.0,9.0,60.0,10.0,64.0
11300,77.0,0.0,60.0,5.0,64.0
11301,73.0,1.0,90.0,8.0,64.0
11302,80.0,8.0,60.0,6.0,64.0
11303,80.0,20.0,60.0,4.0,64.0
11304,78.0,11.0,60.0,7.0,64.0
11305,78.0,2.0,60.0,5.0,64.0
11306,82.0,0.0,60.0,6.0,64.0
11307,82.0,75.0,30.0,4.0,64.0
11308,80.0,3.0,60.0,7.0,64.0
11309,53.0,1.0,60.0,10.0,64.0
11310,83.0,3.0,60.0,4.0,64.0
11311,73.0,20.0,90.0,8.0,64.0
11312,83.0,3.0,60.0,6.0,64.0
11313,80.0,27.0,60.0,5.0,64.0
11314,78.0,1.0,60.0,7.0,64.0
11315,78.0,52.0,60.0,5.0,64.0
11316,77.0,11.0,60.0,7.0,64.0
11317,73.0,7.0,90.0,8.0,64.0
11318,77.0,22.0,60.0,5.0,64.0
11319,56.0,5.0,60.0,10.0,64.0
11320,83.0,5.0,60.0,4.0,64.0
11321,83.0,4.0,60.0,6.0,64.0
11322,78.0,2.0,60.0,7.0,64.0
11323,82.0,0.0,60.0,6.0,64.0
11324,82.0,2.0,60.0,4.0,64.0
11325,78.0,77.0,60.0,5.0,64.0
11326,49.0,7.0,60.0,10.0,64.0
11327,80.0,2.0,60.0,7.0,64.0
11328,83.0,29.0,60.0,6.0,64.0
11329,83.0,1.0,60.0,4.0,64.0
11330,73.0,25.0,90.0,8.0,64.0
11331,80.0,2.0,60.0,5.0,64.0
11332,78.0,44.0,60.0,7.0,64.0
11333,78.0,2.0,60.0,5.0,64.0
11334,77.0,2.0,60.0,5.0,64.0
11335,53.0,10.0,60.0,10.0,64.0
11336,77.0,4.0,60.0,7.0,64.0
11337,85.0,16.0,60.0,6.0,64.0
11338,68.0,2.0,90.0,8.0,64.0
11339,85.0,7.0,60.0,4.0,64.0
11340,83.0,15.0,30.0,6.0,64.0
11341,75.0,2.0,60.0,7.0,64.0
11342,75.0,61.0,60.0,5.0,64.0
11343,83.0,9.0,30.0,4.0,64.0
11344,82.0,1.0,60.0,6.0,64.0
11345,54.0,10.0,60.0,10.0,64.0
11346,73.0,0.0,60.0,5.0,64.0
11347,70.0,5.0,90.0,8.0,64.0
11348,73.0,24.0,60.0,7.0,64.0
11349,82.0,5.0,60.0,4.0,64.0
11350,78.0,6.0,60.0,6.0,64.0
11351,78.0,67.0,60.0,4.0,64.0
11352,75.0,40.0,60.0,6.0,64.0
11353,70.0,8.0,90.0,8.0,64.0
11354,66.0,1.0,60.0,10.0,64.0
11355,70.0,5.0,60.0,5.0,64.0
11356,70.0,1.0,60.0,7.0,64.0
11357,75.0,0.0,60.0,4.0,64.0
11358,77.0,1.0,60.0,6.0,64.0
11359,77.0,57.0,30.0,4.0,64.0
11360,78.0,9.0,60.0,6.0,64.0
11361,78.0,25.0,60.0,4.0,64.0
11362,70.0,10.0,90.0,8.0,64.0
11363,59.0,7.0,60.0,10.0,64.0
11364,75.0,14.0,270.0,5.0,64.0
11365,75.0,12.0,240.0,7.0,64.0
11366,80.0,6.0,60.0,6.0,64.0
11367,80.0,45.0,30.0,4.0,64.0
11368,77.0,15.0,60.0,6.0,64.0
11369,70.0,5.0,90.0,8.0,64.0
11370,77.0,18.0,30.0,4.0,64.0
11371,63.0,19.0,60.0,10.0,64.0
11372,78.0,14.0,60.0,6.0,64.0
11373,78.0,46.0,30.0,4.0,64.0
11374,80.0,4.0,60.0,6.0,64.0
11375,68.0,2.0,90.0,8.0,64.0
11376,53.0,10.0,60.0,10.0,64.0
11377,80.0,25.0,60.0,4.0,64.0
11378,77.0,16.0,60.0,6.0,64.0
11379,77.0,47.0,30.0,4.0,64.0
11380,74.0,6.0,60.0,6.0,64.0
11381,80.0,5.0,60.0,7.0,64.0
11382,71.0,11.0,90.0,8.0,64.0
11383,80.0,2.0,60.0,5.0,64.0
11384,65.0,24.0,60.0,10.0,64.0
11385,74.0,9.0,30.0,4.0,64.0
11386,75.0,9.0,60.0,6.0,64.0
11387,75.0,55.0,30.0,4.0,64.0
11388,77.0,2.0,60.0,6.0,64.0
11389,74.0,8.0,30.0,7.0,64.0
11390,58.0,12.0,60.0,10.0,64.0
11391,70.0,5.0,60.0,8.0,64.0
11392,74.0,1.0,60.0,5.0,64.0
11393,77.0,25.0,60.0,4.0,64.0
11394,78.0,4.0,60.0,6.0,64.0
11395,78.0,59.0,30.0,4.0,64.0
11396,75.0,10.0,60.0,6.0,64.0
11397,75.0,0.0,60.0,4.0,64.0
11398,70.0,7.0,150.0,7.0,64.0
11399,70.0,24.0,60.0,8.0,64.0
11400,62.0,23.0,60.0,10.0,64.0
11401,70.0,18.0,150.0,5.0,64.0
11402,77.0,61.0,60.0,6.0,64.0
11403,77.0,0.0,30.0,4.0,64.0
11404,78.0,2.0,60.0,6.0,64.0
11405,78.0,11.0,60.0,4.0,64.0
11406,51.0,6.0,60.0,10.0,64.0
11407,75.0,20.0,90.0,8.0,64.0
11408,80.0,0.0,60.0,6.0,64.0
11409,71.0,5.0,60.0,7.0,64.0
11410,80.0,2.0,30.0,4.0,64.0
11411,71.0,68.0,60.0,5.0,64.0
11412,77.0,2.0,60.0,6.0,64.0
11413,68.0,30.0,60.0,7.0,64.0
11414,77.0,0.0,60.0,4.0,64.0
11415,63.0,7.0,60.0,10.0,64.0
11416,68.0,2.0,60.0,5.0,64.0
11417,70.0,1.0,60.0,8.0,64.0
11418,78.0,3.0,60.0,6.0,64.0
11419,70.0,0.0,60.0,7.0,64.0
11420,78.0,2.0,30.0,4.0,64.0
11421,70.0,66.0,60.0,5.0,64.0
11422,80.0,1.0,60.0,6.0,64.0
11423,71.0,13.0,60.0,7.0,64.0
11424,80.0,46.0,60.0,4.0,64.0
11425,71.0,5.0,60.0,5.0,64.0
11426,75.0,1.0,60.0,8.0,64.0
11427,56.0,6.0,60.0,10.0,64.0
11428,78.0,41.0,60.0,6.0,64.0
11429,78.0,3.0,60.0,4.0,64.0
11430,77.0,3.0,60.0,6.0,64.0
11431,59.0,13.0,60.0,10.0,64.0
11432,77.0,4.0,60.0,4.0,64.0
11433,68.0,3.0,60.0,7.0,64.0
11434,68.0,2.0,60.0,5.0,64.0
11435,75.0,30.0,60.0,8.0,64.0
11436,75.0,2.0,60.0,6.0,64.0
11437,75.0,67.0,60.0,4.0,64.0
11438,82.0,7.0,120.0,6.0,64.0
11439,82.0,0.0,120.0,4.0,64.0
11440,77.0,10.0,60.0,7.0,64.0
11441,74.0,22.0,60.0,8.0,64.0
11442,58.0,24.0,60.0,10.0,64.0
11443,77.0,1.0,30.0,5.0,64.0
11444,82.0,1.0,60.0,7.0,64.0
11445,82.0,59.0,30.0,5.0,64.0
11446,74.0,5.0,60.0,7.0,64.0
11447,46.0,31.0,60.0,10.0,64.0
11448,82.0,1.0,90.0,6.0,64.0
11449,74.0,5.0,60.0,5.0,64.0
11450,77.0,2.0,60.0,8.0,64.0
11451,82.0,9.0,90.0,4.0,64.0
11452,94.0,4.0,90.0,0.0,64.0
11453,75.0,3.0,60.0,7.0,64.0
11454,48.0,8.0,60.0,10.0,64.0
11455,75.0,51.0,60.0,5.0,64.0
11456,77.0,12.0,60.0,7.0,64.0
11457,50.0,10.0,60.0,10.0,64.0
11458,82.0,3.0,90.0,6.0,64.0
11459,70.0,0.0,30.0,8.0,64.0
11460,94.0,55.0,90.0,0.0,64.0
11461,77.0,13.0,60.0,5.0,64.0
11462,82.0,2.0,90.0,4.0,64.0
11463,78.0,18.0,30.0,7.0,64.0
11464,78.0,2.0,60.0,5.0,64.0
11465,77.0,11.0,60.0,7.0,64.0
11466,77.0,23.0,60.0,5.0,64.0
11467,50.0,8.0,60.0,10.0,64.0
11468,82.0,3.0,90.0,6.0,64.0
11469,82.0,6.0,90.0,4.0,64.0
11470,74.0,2.0,150.0,8.0,64.0
11471,94.0,64.0,90.0,0.0,64.0
11472,78.0,3.0,60.0,7.0,64.0
11473,51.0,5.0,60.0,10.0,64.0
11474,78.0,0.0,60.0,5.0,64.0
11475,80.0,14.0,60.0,7.0,64.0
11476,53.0,10.0,90.0,10.0,64.0
11477,80.0,23.0,60.0,5.0,64.0
11478,82.0,4.0,120.0,6.0,64.0
11479,82.0,2.0,90.0,4.0,64.0
11480,94.0,2.0,90.0,0.0,64.0
11481,77.0,7.0,60.0,7.0,64.0
11482,77.0,55.0,60.0,5.0,64.0
11483,70.0,5.0,60.0,7.0,64.0
11484,50.0,11.0,60.0,10.0,64.0
11485,77.0,9.0,60.0,8.0,64.0
11486,70.0,25.0,60.0,5.0,64.0
11487,94.0,1.0,90.0,0.0,64.0
11488,82.0,4.0,90.0,6.0,64.0
11489,82.0,0.0,90.0,4.0,64.0
11490,94.0,21.0,90.0,1.0,64.0
11491,72.0,2.0,60.0,7.0,64.0
11492,51.0,3.0,60.0,10.0,64.0
11493,72.0,38.0,60.0,5.0,64.0
11494,74.0,10.0,60.0,7.0,64.0
11495,53.0,10.0,60.0,10.0,64.0
11496,74.0,32.0,60.0,5.0,64.0
11497,82.0,4.0,90.0,6.0,64.0
11498,82.0,0.0,90.0,4.0,64.0
11499,94.0,0.0,90.0,0.0,64.0
11500,68.0,1.0,60.0,8.0,64.0
11501,94.0,5.0,90.0,1.0,64.0
11502,75.0,7.0,60.0,7.0,64.0
11503,75.0,54.0,60.0,5.0,64.0
11504,74.0,35.0,60.0,7.0,64.0
11505,82.0,1.0,90.0,6.0,64.0
11506,74.0,7.0,60.0,5.0,64.0
11507,94.0,8.0,90.0,0.0,64.0
11508,53.0,1.0,60.0,10.0,64.0
11509,82.0,3.0,90.0,4.0,64.0
11510,74.0,4.0,180.0,8.0,64.0
11511,94.0,0.0,90.0,1.0,64.0
11512,75.0,6.0,60.0,5.0,64.0
11513,75.0,3.0,60.0,7.0,64.0
11514,54.0,70.0,60.0,10.0,64.0
11515,82.0,5.0,90.0,6.0,64.0
11516,77.0,2.0,90.0,7.0,64.0
11517,77.0,5.0,60.0,5.0,64.0
11518,56.0,24.0,60.0,10.0,64.0
11519,94.0,4.0,90.0,0.0,64.0
11520,82.0,27.0,90.0,4.0,64.0
11521,94.0,0.0,90.0,1.0,64.0
11522,75.0,0.0,60.0,7.0,64.0
11523,75.0,32.0,60.0,5.0,64.0
11524,74.0,11.0,60.0,7.0,64.0
11525,82.0,1.0,90.0,6.0,64.0
11526,77.0,9.0,60.0,8.0,64.0
11527,94.0,0.0,90.0,2.0,64.0
11528,94.0,0.0,90.0,0.0,64.0
11529,94.0,1.0,90.0,1.0,64.0
11530,82.0,2.0,90.0,4.0,64.0
11531,74.0,26.0,60.0,5.0,64.0
11532,56.0,7.0,60.0,10.0,64.0
11533,75.0,5.0,60.0,7.0,64.0
11534,54.0,10.0,60.0,10.0,64.0
11535,75.0,58.0,60.0,5.0,64.0
11536,77.0,11.0,60.0,7.0,64.0
11537,70.0,13.0,60.0,8.0,64.0
11538,56.0,5.0,90.0,10.0,64.0
11539,82.0,3.0,90.0,6.0,64.0
11540,94.0,0.0,90.0,2.0,64.0
11541,94.0,23.0,90.0,1.0,64.0
11542,94.0,1.0,90.0,0.0,64.0
11543,77.0,6.0,60.0,5.0,64.0
11544,82.0,1.0,90.0,4.0,64.0
11545,80.0,26.0,60.0,7.0,64.0
11546,80.0,21.0,90.0,5.0,64.0
11547,78.0,20.0,60.0,7.0,64.0
11548,82.0,5.0,60.0,6.0,64.0
11549,74.0,4.0,60.0,8.0,64.0
11550,58.0,4.0,60.0,10.0,64.0
11551,94.0,3.0,90.0,0.0,64.0
11552,78.0,1.0,60.0,5.0,64.0
11553,94.0,11.0,90.0,1.0,64.0
11554,94.0,3.0,90.0,2.0,64.0
11555,82.0,6.0,60.0,4.0,64.0
11556,77.0,13.0,60.0,7.0,64.0
11557,56.0,1.0,60.0,10.0,64.0
11558,77.0,49.0,60.0,5.0,64.0
11559,75.0,14.0,60.0,7.0,64.0
11560,54.0,9.0,60.0,10.0,64.0
11561,82.0,1.0,60.0,6.0,64.0
11562,99.0,4.0,150.0,0.0,64.0
11563,75.0,1.0,60.0,8.0,64.0
11564,54.0,1.0,60.0,3.0,64.0
11565,82.0,34.0,60.0,4.0,64.0
11566,75.0,0.0,60.0,5.0,64.0
11567,82.0,22.0,120.0,2.0,64.0
11568,94.0,2.0,120.0,1.0,64.0
11569,80.0,19.0,60.0,6.0,64.0
11570,80.0,10.0,60.0,4.0,64.0
11571,82.0,0.0,60.0,6.0,64.0
11572,82.0,34.0,60.0,4.0,64.0
11573,63.0,6.0,60.0,8.0,64.0
11574,70.0,4.0,60.0,7.0,64.0
11575,54.0,5.0,30.0,10.0,64.0
11576,70.0,3.0,60.0,5.0,64.0
11577,83.0,2.0,60.0,6.0,64.0
11578,83.0,56.0,60.0,4.0,64.0
11579,53.0,5.0,30.0,10.0,64.0
11580,82.0,16.0,60.0,6.0,64.0
11581,75.0,31.0,270.0,7.0,64.0
11582,82.0,3.0,30.0,4.0,64.0
11583,54.0,7.0,90.0,10.0,64.0
11584,75.0,5.0,300.0,5.0,64.0
11585,66.0,39.0,60.0,8.0,64.0
11586,87.0,45.0,60.0,6.0,64.0
11587,87.0,9.0,60.0,4.0,64.0
11588,86.0,41.0,60.0,6.0,64.0
11589,86.0,2.0,60.0,4.0,64.0
11590,70.0,4.0,60.0,8.0,64.0
11591,56.0,9.0,30.0,10.0,64.0
11592,87.0,4.0,60.0,6.0,64.0
11593,54.0,1.0,30.0,10.0,64.0
11594,87.0,44.0,60.0,4.0,64.0
11595,80.0,2.0,60.0,6.0,64.0
11596,53.0,32.0,60.0,10.0,64.0
11597,71.0,0.0,60.0,8.0,64.0
11598,80.0,1.0,60.0,4.0,64.0
11599,78.0,13.0,60.0,6.0,64.0
11600,78.0,51.0,60.0,4.0,64.0
11601,80.0,3.0,60.0,6.0,64.0
11602,75.0,26.0,60.0,8.0,64.0
11603,68.0,12.0,60.0,7.0,64.0
11604,68.0,1.0,60.0,5.0,64.0
11605,53.0,4.0,30.0,10.0,64.0
11606,80.0,5.0,60.0,4.0,64.0
11607,82.0,6.0,60.0,6.0,64.0
11608,51.0,0.0,60.0,10.0,64.0
11609,82.0,62.0,30.0,4.0,64.0
11610,53.0,21.0,90.0,10.0,64.0
11611,80.0,6.0,60.0,6.0,64.0
11612,74.0,11.0,60.0,8.0,64.0
11613,65.0,6.0,60.0,7.0,64.0
11614,65.0,13.0,60.0,5.0,64.0
11615,80.0,4.0,30.0,4.0,64.0
11616,83.0,42.0,60.0,6.0,64.0
11617,83.0,15.0,30.0,4.0,64.0
11618,82.0,2.0,60.0,6.0,64.0
11619,74.0,8.0,60.0,7.0,64.0
11620,74.0,2.0,60.0,5.0,64.0
11621,82.0,2.0,30.0,4.0,64.0
11622,54.0,4.0,60.0,10.0,64.0
11623,70.0,32.0,60.0,8.0,64.0
11624,80.0,4.0,60.0,6.0,64.0
11625,53.0,4.0,30.0,10.0,64.0
11626,80.0,67.0,30.0,4.0,64.0
11627,78.0,7.0,60.0,6.0,64.0
11628,75.0,5.0,60.0,7.0,64.0
11629,51.0,37.0,60.0,10.0,64.0
11630,78.0,1.0,60.0,4.0,64.0
11631,70.0,5.0,60.0,8.0,64.0
11632,75.0,2.0,60.0,5.0,64.0
11633,53.0,40.0,60.0,10.0,64.0
11634,54.0,20.0,30.0,10.0,64.0
11635,75.0,1.0,60.0,7.0,64.0
11636,75.0,2.0,60.0,5.0,64.0
11637,82.0,10.0,30.0,4.0,64.0
11638,66.0,3.0,60.0,8.0,64.0
11639,82.0,19.0,60.0,6.0,64.0
11640,51.0,82.0,30.0,10.0,64.0
11641,56.0,8.0,60.0,10.0,64.0
11642,75.0,29.0,60.0,7.0,64.0
11643,75.0,10.0,60.0,5.0,64.0
11644,63.0,0.0,60.0,8.0,64.0
11645,83.0,2.0,60.0,6.0,64.0
11646,83.0,3.0,30.0,4.0,64.0
11647,58.0,59.0,60.0,10.0,64.0
11648,59.0,7.0,30.0,10.0,64.0
11649,71.0,11.0,60.0,5.0,64.0
11650,63.0,1.0,60.0,8.0,64.0
11651,68.0,7.0,60.0,7.0,64.0
11652,75.0,10.0,60.0,4.0,64.0
11653,75.0,19.0,60.0,6.0,64.0
11654,56.0,100.0,30.0,10.0,64.0
11655,74.0,6.0,60.0,4.0,64.0
11656,70.0,6.0,240.0,5.0,64.0
11657,70.0,37.0,270.0,8.0,64.0
11658,58.0,4.0,240.0,10.0,64.0
11659,74.0,53.0,60.0,6.0,64.0
11660,65.0,8.0,240.0,7.0,64.0
11661,70.0,3.0,60.0,4.0,64.0
11662,70.0,54.0,60.0,6.0,64.0
11663,72.0,8.0,60.0,4.0,64.0
11664,72.0,27.0,60.0,6.0,64.0
11665,74.0,23.0,60.0,6.0,64.0
11666,74.0,4.0,60.0,4.0,64.0
11667,75.0,46.0,60.0,6.0,64.0
11668,75.0,8.0,60.0,4.0,64.0
11669,77.0,50.0,60.0,6.0,64.0
11670,77.0,6.0,60.0,4.0,64.0
11671,78.0,1.0,60.0,6.0,64.0
11672,78.0,3.0,60.0,4.0,64.0
11673,77.0,0.0,60.0,7.0,64.0
11674,74.0,6.0,60.0,8.0,64.0
11675,56.0,1.0,60.0,10.0,64.0
11676,77.0,39.0,60.0,5.0,64.0
11677,80.0,67.0,60.0,6.0,64.0
11678,80.0,12.0,60.0,4.0,64.0
11679,82.0,3.0,60.0,6.0,64.0
11680,75.0,1.0,60.0,7.0,64.0
11681,70.0,1.0,60.0,8.0,64.0
11682,82.0,46.0,60.0,4.0,64.0
11683,75.0,3.0,60.0,5.0,64.0
11684,54.0,6.0,60.0,10.0,64.0
11685,83.0,30.0,60.0,6.0,64.0
11686,83.0,14.0,60.0,4.0,64.0
11687,74.0,8.0,60.0,5.0,64.0
11688,65.0,2.0,60.0,8.0,64.0
11689,74.0,3.0,30.0,7.0,64.0
11690,58.0,5.0,60.0,10.0,64.0
11691,82.0,12.0,60.0,4.0,64.0
11692,82.0,51.0,60.0,6.0,64.0
11693,80.0,37.0,60.0,4.0,64.0
11694,80.0,1.0,60.0,6.0,64.0
11695,70.0,0.0,60.0,7.0,64.0
11696,70.0,4.0,60.0,5.0,64.0
11697,63.0,6.0,60.0,8.0,64.0
11698,78.0,7.0,30.0,4.0,64.0
11699,78.0,53.0,60.0,6.0,64.0
11700,63.0,3.0,60.0,10.0,64.0
11701,77.0,9.0,60.0,4.0,64.0
11702,77.0,56.0,60.0,6.0,64.0
11703,75.0,7.0,60.0,4.0,64.0
11704,70.0,3.0,60.0,7.0,64.0
11705,70.0,2.0,60.0,5.0,64.0
11706,58.0,31.0,60.0,10.0,64.0
11707,75.0,5.0,60.0,6.0,64.0
11708,66.0,0.0,60.0,8.0,64.0
11709,74.0,0.0,60.0,4.0,64.0
11710,74.0,65.0,60.0,6.0,64.0
11711,75.0,7.0,60.0,4.0,64.0
11712,66.0,2.0,60.0,7.0,64.0
11713,66.0,12.0,60.0,5.0,64.0
11714,63.0,103.0,60.0,8.0,64.0
11715,59.0,1.0,60.0,10.0,64.0
11716,75.0,4.0,60.0,6.0,64.0
11717,71.0,1.0,60.0,7.0,64.0
11718,71.0,1.0,60.0,5.0,64.0
11719,56.0,2.0,60.0,10.0,64.0
11720,77.0,1.0,60.0,6.0,64.0
11721,68.0,114.0,60.0,8.0,64.0
11722,77.0,1.0,60.0,4.0,64.0
11723,70.0,1.0,60.0,7.0,64.0
11724,70.0,1.0,60.0,5.0,64.0
11725,70.0,4.0,60.0,6.0,64.0
11726,66.0,0.0,60.0,8.0,64.0
11727,58.0,111.0,60.0,10.0,64.0
11728,70.0,4.0,30.0,4.0,64.0
11729,74.0,136.0,90.0,6.0,64.0
11730,65.0,18.0,60.0,8.0,64.0
11731,70.0,3.0,60.0,5.0,64.0
11732,70.0,0.0,60.0,7.0,64.0
11733,46.0,4.0,30.0,10.0,64.0
11734,74.0,3.0,60.0,4.0,64.0
11735,70.0,41.0,150.0,5.0,64.0
11736,70.0,7.0,240.0,7.0,64.0
11737,66.0,3.0,240.0,8.0,64.0
11738,51.0,53.0,240.0,10.0,64.0
11739,75.0,17.0,120.0,4.0,64.0
11740,75.0,26.0,60.0,6.0,64.0
11741,70.0,15.0,60.0,6.0,64.0
11742,66.0,55.0,60.0,6.0,64.0
11743,70.0,5.0,60.0,6.0,64.0
11744,75.0,55.0,60.0,6.0,64.0
11745,78.0,44.0,60.0,6.0,64.0
11746,70.0,7.0,60.0,7.0,64.0
11747,62.0,3.0,60.0,10.0,64.0
11748,77.0,43.0,60.0,6.0,64.0
11749,65.0,2.0,60.0,8.0,64.0
11750,80.0,69.0,60.0,6.0,64.0
11751,78.0,49.0,60.0,6.0,64.0
11752,70.0,3.0,60.0,7.0,64.0
11753,63.0,10.0,60.0,10.0,64.0
11754,63.0,5.0,60.0,8.0,64.0
11755,82.0,44.0,60.0,6.0,64.0
11756,71.0,7.0,60.0,7.0,64.0
11757,87.0,31.0,60.0,6.0,64.0
11758,59.0,7.0,60.0,10.0,64.0
11759,66.0,0.0,60.0,8.0,64.0
11760,78.0,76.0,30.0,6.0,64.0
11761,77.0,54.0,60.0,6.0,64.0
11762,56.0,3.0,60.0,10.0,64.0
11763,71.0,7.0,60.0,7.0,64.0
11764,65.0,2.0,60.0,8.0,64.0
11765,87.0,51.0,60.0,6.0,64.0
11766,70.0,0.0,60.0,7.0,64.0
11767,58.0,2.0,60.0,10.0,64.0
11768,77.0,3.0,60.0,6.0,64.0
11769,65.0,47.0,30.0,8.0,64.0
11770,86.0,79.0,60.0,6.0,64.0
11771,87.0,57.0,60.0,6.0,64.0
11772,70.0,4.0,240.0,7.0,64.0
11773,51.0,24.0,240.0,10.0,64.0
11774,66.0,5.0,240.0,8.0,64.0
11775,82.0,54.0,60.0,6.0,64.0
11776,78.0,58.0,60.0,6.0,64.0
11777,82.0,22.0,60.0,6.0,64.0
11778,75.0,44.0,60.0,6.0,64.0
11779,78.0,75.0,60.0,6.0,64.0
11780,72.0,1.0,60.0,6.0,64.0
11781,63.0,4.0,60.0,10.0,64.0
11782,72.0,36.0,60.0,8.0,64.0
11783,77.0,4.0,60.0,7.0,64.0
11784,81.0,84.0,60.0,6.0,64.0
11785,82.0,54.0,60.0,6.0,64.0
11786,61.0,4.0,60.0,10.0,64.0
11787,77.0,5.0,60.0,7.0,64.0
11788,73.0,0.0,60.0,8.0,64.0
11789,77.0,49.0,60.0,6.0,64.0
11790,73.0,48.0,60.0,6.0,64.0
11791,66.0,2.0,60.0,10.0,64.0
11792,70.0,5.0,60.0,8.0,64.0
11793,78.0,2.0,60.0,7.0,64.0
11794,77.0,63.0,60.0,6.0,64.0
11795,72.0,4.0,60.0,6.0,64.0
11796,63.0,46.0,60.0,10.0,64.0
11797,78.0,1.0,60.0,7.0,64.0
11798,75.0,0.0,60.0,8.0,64.0
11799,82.0,59.0,60.0,6.0,64.0
11800,72.0,11.0,60.0,6.0,64.0
11801,77.0,38.0,60.0,7.0,64.0
11802,65.0,1.0,60.0,10.0,64.0
11803,75.0,1.0,60.0,8.0,64.0
11804,81.0,90.0,60.0,6.0,64.0
11805,82.0,33.0,60.0,6.0,64.0
11806,58.0,15.0,90.0,10.0,64.0
11807,77.0,51.0,270.0,7.0,64.0
11808,73.0,6.0,240.0,8.0,64.0
11809,77.0,63.0,60.0,6.0,64.0
11810,73.0,36.0,60.0,6.0,64.0
11811,58.0,8.0,90.0,10.0,64.0
11812,77.0,40.0,60.0,6.0,64.0
11813,82.0,4.0,90.0,6.0,64.0
11814,58.0,34.0,90.0,10.0,64.0
11815,83.0,53.0,60.0,6.0,64.0
11816,58.0,0.0,60.0,10.0,64.0
11817,77.0,48.0,60.0,7.0,64.0
11818,85.0,2.0,60.0,6.0,64.0
11819,70.0,0.0,60.0,8.0,64.0
11820,82.0,77.0,30.0,6.0,64.0
11821,73.0,12.0,60.0,7.0,64.0
11822,76.0,56.0,60.0,6.0,64.0
11823,70.0,0.0,60.0,8.0,64.0
11824,75.0,43.0,60.0,6.0,64.0
11825,56.0,91.0,90.0,10.0,64.0
11826,70.0,34.0,60.0,8.0,64.0
11827,73.0,9.0,30.0,7.0,64.0
11828,76.0,0.0,30.0,6.0,64.0
11829,85.0,15.0,30.0,6.0,64.0
11830,76.0,15.0,60.0,6.0,64.0
11831,56.0,34.0,90.0,10.0,64.0
11832,75.0,41.0,60.0,6.0,64.0
11833,73.0,6.0,60.0,7.0,64.0
11834,76.0,9.0,60.0,6.0,64.0
11835,70.0,6.0,30.0,8.0,64.0
11836,56.0,22.0,60.0,10.0,64.0
11837,85.0,95.0,30.0,6.0,64.0
11838,67.0,2.0,60.0,7.0,64.0
11839,75.0,56.0,60.0,6.0,64.0
11840,70.0,13.0,60.0,8.0,64.0
11841,73.0,38.0,60.0,6.0,64.0
11842,75.0,36.0,60.0,6.0,64.0
11843,70.0,13.0,60.0,8.0,64.0
11844,55.0,33.0,90.0,10.0,64.0
11845,73.0,9.0,60.0,7.0,64.0
11846,77.0,27.0,90.0,6.0,64.0
11847,79.0,48.0,60.0,6.0,64.0
11848,55.0,28.0,90.0,10.0,64.0
11849,80.0,44.0,60.0,6.0,64.0
11850,82.0,6.0,60.0,6.0,64.0
11851,70.0,7.0,30.0,8.0,64.0
11852,75.0,42.0,60.0,7.0,64.0
11853,55.0,1.0,60.0,10.0,64.0
11854,83.0,81.0,60.0,6.0,64.0
11855,75.0,57.0,60.0,7.0,64.0
11856,85.0,4.0,60.0,6.0,64.0
11857,67.0,1.0,60.0,8.0,64.0
11858,82.0,43.0,60.0,6.0,64.0
11859,79.0,1.0,60.0,6.0,64.0
11860,70.0,5.0,60.0,8.0,64.0
11861,75.0,42.0,60.0,7.0,64.0
11862,51.0,27.0,90.0,10.0,64.0
11863,82.0,38.0,60.0,6.0,64.0
11864,75.0,45.0,60.0,6.0,64.0
11865,51.0,39.0,90.0,10.0,64.0
11866,85.0,41.0,90.0,6.0,64.0
11867,83.0,2.0,60.0,6.0,64.0
11868,51.0,0.0,60.0,10.0,64.0
11869,75.0,36.0,60.0,7.0,64.0
11870,67.0,8.0,30.0,8.0,64.0
11871,82.0,84.0,60.0,6.0,64.0
11872,83.0,59.0,90.0,6.0,64.0
11873,68.0,2.0,60.0,8.0,64.0
11874,75.0,11.0,60.0,7.0,64.0
11875,80.0,36.0,90.0,6.0,64.0
11876,75.0,42.0,60.0,6.0,64.0
11877,80.0,9.0,60.0,7.0,64.0
11878,71.0,3.0,60.0,8.0,64.0
11879,56.0,74.0,90.0,10.0,64.0
11880,71.0,1.0,60.0,6.0,64.0
11881,75.0,40.0,60.0,6.0,64.0
11882,56.0,21.0,90.0,10.0,64.0
11883,80.0,54.0,60.0,6.0,64.0
11884,83.0,37.0,60.0,6.0,64.0
11885,75.0,0.0,60.0,8.0,64.0
11886,80.0,0.0,60.0,7.0,64.0
11887,56.0,5.0,30.0,10.0,64.0
11888,85.0,71.0,30.0,6.0,64.0
11889,84.0,47.0,60.0,6.0,64.0
11890,68.0,17.0,30.0,8.0,64.0
11891,75.0,11.0,60.0,7.0,64.0
11892,82.0,40.0,60.0,6.0,64.0
11893,75.0,41.0,60.0,7.0,64.0
11894,84.0,2.0,60.0,6.0,64.0
11895,68.0,17.0,30.0,8.0,64.0
11896,54.0,88.0,120.0,10.0,64.0
11897,87.0,8.0,30.0,6.0,64.0
11898,84.0,27.0,90.0,6.0,64.0
11899,54.0,44.0,90.0,10.0,64.0
11900,82.0,15.0,90.0,6.0,64.0
11901,68.0,17.0,30.0,8.0,64.0
11902,75.0,10.0,60.0,7.0,64.0
11903,84.0,5.0,60.0,6.0,64.0
11904,54.0,23.0,60.0,10.0,64.0
11905,87.0,82.0,30.0,6.0,64.0
11906,68.0,9.0,60.0,8.0,64.0
11907,85.0,2.0,60.0,6.0,64.0
11908,77.0,61.0,60.0,7.0,64.0
11909,80.0,38.0,60.0,6.0,64.0
11910,73.0,4.0,60.0,8.0,64.0
11911,77.0,11.0,60.0,6.0,64.0
11912,80.0,34.0,60.0,7.0,64.0
11913,53.0,84.0,120.0,10.0,64.0
11914,80.0,10.0,30.0,6.0,64.0
11915,73.0,25.0,90.0,6.0,64.0
11916,53.0,26.0,90.0,10.0,64.0
11917,75.0,44.0,60.0,6.0,64.0
11918,77.0,8.0,60.0,6.0,64.0
11919,80.0,4.0,60.0,7.0,64.0
11920,73.0,3.0,60.0,8.0,64.0
11921,53.0,56.0,60.0,10.0,64.0
11922,78.0,61.0,60.0,6.0,64.0
11923,80.0,49.0,60.0,6.0,64.0
11924,77.0,4.0,60.0,7.0,64.0
11925,73.0,6.0,60.0,8.0,64.0
11926,82.0,58.0,60.0,6.0,64.0
11927,83.0,2.0,60.0,6.0,64.0
11928,77.0,30.0,60.0,7.0,64.0
11929,49.0,75.0,90.0,10.0,64.0
11930,68.0,10.0,60.0,8.0,64.0
11931,85.0,9.0,30.0,6.0,64.0
11932,83.0,6.0,60.0,6.0,64.0
11933,49.0,40.0,60.0,10.0,64.0
11934,82.0,62.0,60.0,6.0,64.0
11935,83.0,0.0,60.0,6.0,64.0
11936,49.0,1.0,60.0,10.0,64.0
11937,80.0,3.0,60.0,5.0,64.0
11938,77.0,4.0,60.0,7.0,64.0
11939,83.0,43.0,60.0,4.0,64.0
11940,73.0,1.0,30.0,8.0,64.0
11941,80.0,75.0,30.0,6.0,64.0
11942,54.0,6.0,90.0,10.0,64.0
11943,73.0,19.0,90.0,8.0,64.0
11944,78.0,1.0,60.0,7.0,64.0
11945,82.0,6.0,120.0,4.0,64.0
11946,82.0,5.0,90.0,6.0,64.0
11947,78.0,26.0,60.0,5.0,64.0
11948,78.0,49.0,60.0,6.0,64.0
11949,73.0,4.0,60.0,6.0,64.0
11950,82.0,15.0,30.0,7.0,64.0
11951,66.0,36.0,60.0,10.0,64.0
11952,73.0,1.0,60.0,5.0,64.0
11953,76.0,69.0,60.0,6.0,64.0
11954,75.0,35.0,60.0,6.0,64.0
11955,82.0,18.0,90.0,7.0,64.0
11956,59.0,5.0,30.0,10.0,64.0
11957,75.0,3.0,90.0,5.0,64.0
11958,78.0,51.0,60.0,6.0,64.0
11959,71.0,11.0,60.0,6.0,64.0
11960,63.0,6.0,60.0,10.0,64.0
11961,71.0,7.0,30.0,8.0,64.0
11962,82.0,16.0,60.0,4.0,64.0
11963,82.0,92.0,30.0,6.0,64.0
11964,80.0,12.0,60.0,6.0,64.0
11965,71.0,18.0,60.0,8.0,64.0
11966,53.0,33.0,90.0,10.0,64.0
11967,80.0,13.0,120.0,4.0,64.0
11968,77.0,28.0,60.0,6.0,64.0
11969,71.0,15.0,60.0,6.0,64.0
11970,80.0,18.0,60.0,7.0,64.0
11971,65.0,29.0,60.0,10.0,64.0
11972,75.0,1.0,60.0,5.0,64.0
11973,75.0,66.0,60.0,6.0,64.0
11974,73.0,0.0,60.0,6.0,64.0
11975,58.0,40.0,60.0,10.0,64.0
11976,80.0,30.0,90.0,7.0,64.0
11977,73.0,7.0,90.0,5.0,64.0
11978,77.0,30.0,60.0,6.0,64.0
11979,70.0,4.0,60.0,6.0,64.0
11980,61.0,40.0,60.0,10.0,64.0
11981,80.0,3.0,60.0,4.0,64.0
11982,70.0,13.0,30.0,8.0,64.0
11983,80.0,94.0,60.0,6.0,64.0
11984,78.0,10.0,90.0,6.0,64.0
11985,70.0,12.0,90.0,8.0,64.0
11986,51.0,12.0,90.0,10.0,64.0
11987,78.0,22.0,120.0,4.0,64.0
11988,75.0,34.0,60.0,6.0,64.0
11989,70.0,8.0,60.0,6.0,64.0
11990,78.0,15.0,60.0,7.0,64.0
11991,63.0,40.0,60.0,10.0,64.0
11992,73.0,2.0,60.0,5.0,64.0
11993,73.0,65.0,60.0,6.0,64.0
11994,71.0,4.0,60.0,6.0,64.0
11995,56.0,6.0,60.0,10.0,64.0
11996,71.0,43.0,60.0,5.0,64.0
11997,78.0,6.0,90.0,7.0,64.0
11998,75.0,53.0,60.0,6.0,64.0
11999,68.0,11.0,60.0,6.0,64.0
12000,68.0,5.0,60.0,8.0,64.0
12001,59.0,7.0,60.0,10.0,64.0
12002,75.0,23.0,60.0,5.0,64.0
12003,78.0,0.0,60.0,4.0,64.0
12004,78.0,64.0,30.0,6.0,64.0
12005,68.0,6.0,60.0,8.0,64.0
12006,77.0,1.0,90.0,6.0,64.0
12007,73.0,7.0,60.0,5.0,64.0
12008,49.0,0.0,1980.0,10.0,64.0
12009,80.0,8.0,60.0,0.0,64.0
12010,77.0,5.0,60.0,4.0,64.0
12011,85.0,1.0,60.0,2.0,64.0
12012,97.0,3.0,60.0,1.0,64.0
12013,49.0,27.0,20.0,3.0,64.0
12014,49.0,0.0,20.0,3.0,64.0
12015,80.0,3.0,60.0,6.0,64.0
12016,49.0,22.0,20.0,3.0,64.0
12017,49.0,33.0,20.0,3.0,64.0
12018,73.0,8.0,30.0,6.0,64.0
12019,71.0,1.0,60.0,8.0,64.0
12020,80.0,10.0,60.0,7.0,64.0
12021,77.0,22.0,60.0,5.0,64.0
12022,80.0,5.0,60.0,4.0,64.0
12023,49.0,12.0,20.0,3.0,64.0
12024,49.0,0.0,15.0,3.0,64.0
12025,77.0,4.0,30.0,6.0,64.0
12026,49.0,15.0,20.0,3.0,64.0
12027,49.0,39.0,15.0,3.0,64.0
12028,70.0,5.0,60.0,8.0,64.0
12029,73.0,2.0,60.0,7.0,64.0
12030,78.0,6.0,60.0,6.0,64.0
12031,78.0,9.0,60.0,4.0,64.0
12032,49.0,21.0,20.0,3.0,64.0
12033,73.0,5.0,60.0,5.0,64.0
12034,82.0,0.0,60.0,0.0,64.0
12035,90.0,3.0,60.0,1.0,64.0
12036,85.0,17.0,60.0,2.0,64.0
12037,49.0,7.0,15.0,3.0,64.0
12038,82.0,40.0,60.0,6.0,64.0
12039,49.0,18.0,30.0,3.0,64.0
12040,66.0,3.0,60.0,8.0,64.0
12041,82.0,6.0,60.0,7.0,64.0
12042,73.0,4.0,60.0,6.0,64.0
12043,49.0,11.0,30.0,3.0,64.0
12044,82.0,6.0,60.0,4.0,64.0
12045,78.0,27.0,60.0,5.0,64.0
12046,78.0,4.0,30.0,6.0,64.0
12047,49.0,58.0,30.0,3.0,64.0
12048,73.0,1.0,60.0,8.0,64.0
12049,49.0,25.0,30.0,3.0,64.0
12050,77.0,0.0,60.0,7.0,64.0
12051,80.0,4.0,60.0,4.0,64.0
12052,80.0,2.0,60.0,6.0,64.0
12053,77.0,12.0,60.0,5.0,64.0
12054,83.0,3.0,90.0,0.0,64.0
12055,92.0,2.0,60.0,1.0,64.0
12056,85.0,20.0,60.0,2.0,64.0
12057,49.0,14.0,30.0,3.0,64.0
12058,83.0,19.0,60.0,6.0,64.0
12059,65.0,16.0,90.0,8.0,64.0
12060,73.0,4.0,60.0,6.0,64.0
12061,49.0,34.0,20.0,3.0,64.0
12062,80.0,14.0,60.0,5.0,64.0
12063,80.0,1.0,60.0,7.0,64.0
12064,83.0,1.0,60.0,4.0,64.0
12065,49.0,3.0,20.0,3.0,64.0
12066,49.0,1.0,15.0,3.0,64.0
12067,80.0,21.0,30.0,6.0,64.0
12068,49.0,21.0,20.0,3.0,64.0
12069,66.0,2.0,60.0,8.0,64.0
12070,49.0,35.0,15.0,3.0,64.0
12071,82.0,6.0,60.0,6.0,64.0
12072,73.0,10.0,30.0,7.0,64.0
12073,78.0,10.0,60.0,5.0,64.0
12074,90.0,3.0,90.0,1.0,64.0
12075,82.0,2.0,60.0,4.0,64.0
12076,85.0,25.0,60.0,2.0,64.0
12077,82.0,2.0,60.0,0.0,64.0
12078,49.0,4.0,30.0,3.0,64.0
12079,85.0,24.0,60.0,6.0,64.0
12080,49.0,36.0,30.0,3.0,64.0
12081,78.0,4.0,60.0,6.0,64.0
12082,70.0,1.0,60.0,8.0,64.0
12083,70.0,4.0,60.0,5.0,64.0
12084,73.0,7.0,60.0,7.0,64.0
12085,85.0,8.0,60.0,4.0,64.0
12086,49.0,11.0,30.0,3.0,64.0
12087,82.0,32.0,30.0,6.0,64.0
12088,49.0,21.0,20.0,3.0,64.0
12089,77.0,1.0,60.0,6.0,64.0
12090,49.0,35.0,15.0,3.0,64.0
12091,73.0,0.0,60.0,5.0,64.0
12092,68.0,4.0,60.0,8.0,64.0
12093,77.0,9.0,60.0,4.0,64.0
12094,73.0,3.0,540.0,7.0,64.0
12095,80.0,5.0,60.0,0.0,64.0
12096,97.0,2.0,60.0,1.0,64.0
12097,85.0,16.0,60.0,2.0,64.0
12098,49.0,13.0,20.0,3.0,64.0
12099,80.0,9.0,60.0,6.0,64.0
12100,49.0,6.0,20.0,3.0,64.0
12101,49.0,27.0,30.0,3.0,64.0
12102,73.0,2.0,60.0,6.0,64.0
12103,77.0,19.0,60.0,5.0,64.0
12104,71.0,5.0,60.0,8.0,64.0
12105,49.0,33.0,20.0,3.0,64.0
12106,80.0,2.0,60.0,4.0,64.0
12107,49.0,2.0,20.0,3.0,64.0
12108,77.0,16.0,60.0,6.0,64.0
12109,49.0,16.0,20.0,3.0,64.0
12110,49.0,29.0,20.0,3.0,64.0
12111,80.0,5.0,60.0,6.0,64.0
12112,65.0,3.0,60.0,8.0,64.0
12113,80.0,12.0,60.0,5.0,64.0
12114,73.0,2.0,60.0,4.0,64.0
12115,92.0,1.0,60.0,1.0,64.0
12116,85.0,11.0,60.0,0.0,64.0
12117,49.0,24.0,15.0,3.0,64.0
12118,85.0,3.0,60.0,2.0,64.0
12119,49.0,1.0,20.0,3.0,64.0
12120,83.0,6.0,60.0,6.0,64.0
12121,49.0,28.0,20.0,3.0,64.0
12122,82.0,6.0,90.0,6.0,64.0
12123,49.0,27.0,20.0,3.0,64.0
12124,61.0,5.0,60.0,8.0,64.0
12125,85.0,0.0,60.0,5.0,64.0
12126,77.0,4.0,60.0,4.0,64.0
12127,49.0,23.0,15.0,3.0,64.0
12128,80.0,55.0,60.0,6.0,64.0
12129,49.0,25.0,20.0,3.0,64.0
12130,49.0,6.0,15.0,3.0,64.0
12131,82.0,4.0,60.0,6.0,64.0
12132,49.0,21.0,30.0,3.0,64.0
12133,66.0,13.0,420.0,8.0,64.0
12134,82.0,8.0,60.0,5.0,64.0
12135,90.0,13.0,90.0,1.0,64.0
12136,78.0,1.0,60.0,4.0,64.0
12137,82.0,9.0,60.0,0.0,64.0
12138,85.0,4.0,60.0,2.0,64.0
12139,78.0,34.0,60.0,6.0,64.0
12140,49.0,12.0,30.0,3.0,64.0
12141,75.0,1.0,60.0,6.0,64.0
12142,82.0,4.0,60.0,7.0,64.0
12143,78.0,9.0,60.0,5.0,64.0
12144,49.0,21.0,20.0,3.0,64.0
12145,75.0,28.0,60.0,4.0,64.0
12146,49.0,3.0,15.0,3.0,64.0
12147,78.0,31.0,90.0,6.0,64.0
12148,49.0,26.0,20.0,3.0,64.0
12149,49.0,7.0,15.0,3.0,64.0
12150,72.0,1.0,60.0,6.0,64.0
12151,75.0,2.0,60.0,7.0,64.0
12152,75.0,12.0,60.0,5.0,64.0
12153,90.0,2.0,60.0,1.0,64.0
12154,72.0,8.0,60.0,4.0,64.0
12155,78.0,15.0,60.0,2.0,64.0
12156,84.0,9.0,60.0,0.0,64.0
12157,49.0,15.0,20.0,3.0,64.0
12158,82.0,14.0,60.0,6.0,64.0
12159,49.0,2.0,20.0,3.0,64.0
12160,49.0,7.0,20.0,3.0,64.0
12161,80.0,0.0,60.0,6.0,64.0
12162,49.0,33.0,15.0,3.0,64.0
12163,84.0,12.0,60.0,5.0,64.0
12164,84.0,10.0,30.0,7.0,64.0
12165,75.0,2.0,60.0,4.0,64.0
12166,49.0,11.0,30.0,3.0,64.0
12167,78.0,20.0,30.0,6.0,64.0
12168,49.0,47.0,30.0,3.0,64.0
12169,77.0,7.0,60.0,6.0,64.0
12170,85.0,51.0,90.0,0.0,64.0
12171,68.0,11.0,270.0,8.0,64.0
12172,85.0,5.0,150.0,5.0,64.0
12173,85.0,3.0,60.0,2.0,64.0
12174,77.0,4.0,150.0,4.0,64.0
12175,49.0,25.0,20.0,3.0,64.0
12176,85.0,5.0,240.0,7.0,64.0
12177,92.0,4.0,60.0,1.0,64.0
12178,78.0,21.0,90.0,6.0,64.0
12179,77.0,18.0,60.0,6.0,64.0
12180,51.0,2.0,60.0,10.0,64.0
12181,85.0,0.0,30.0,2.0,64.0
12182,73.0,24.0,30.0,0.0,64.0
12183,85.0,1.0,20.0,1.0,64.0
12184,75.0,29.0,60.0,6.0,64.0
12185,85.0,6.0,30.0,1.0,64.0
12186,85.0,4.0,30.0,2.0,64.0
12187,73.0,18.0,30.0,0.0,64.0
12188,73.0,52.0,60.0,6.0,64.0
12189,85.0,6.0,30.0,1.0,64.0
12190,85.0,0.0,30.0,2.0,64.0
12191,53.0,8.0,60.0,10.0,64.0
12192,73.0,7.0,30.0,0.0,64.0
12193,71.0,52.0,60.0,6.0,64.0
12194,70.0,2.0,60.0,6.0,64.0
12195,49.0,32.0,60.0,10.0,64.0
12196,85.0,5.0,30.0,1.0,64.0
12197,85.0,3.0,30.0,2.0,64.0
12198,73.0,0.0,30.0,0.0,64.0
12199,68.0,98.0,30.0,6.0,64.0
12200,73.0,4.0,180.0,7.0,64.0
12201,85.0,6.0,120.0,2.0,64.0
12202,73.0,33.0,1200.0,5.0,64.0
12203,46.0,25.0,270.0,10.0,64.0
12204,85.0,25.0,120.0,1.0,64.0
12205,67.0,69.0,60.0,6.0,64.0
12206,73.0,12.0,150.0,0.0,64.0
12207,73.0,5.0,60.0,6.0,64.0
12208,63.0,14.0,60.0,8.0,64.0
12209,75.0,38.0,60.0,6.0,64.0
12210,73.0,29.0,60.0,6.0,64.0
12211,65.0,5.0,60.0,8.0,64.0
12212,75.0,67.0,90.0,6.0,64.0
12213,67.0,19.0,60.0,8.0,64.0
12214,82.0,46.0,240.0,7.0,64.0
12215,73.0,34.0,90.0,6.0,64.0
12216,67.0,13.0,60.0,8.0,64.0
12217,75.0,38.0,60.0,6.0,64.0
12218,68.0,12.0,60.0,8.0,64.0
12219,73.0,23.0,60.0,6.0,64.0
12220,70.0,18.0,60.0,8.0,64.0
12221,67.0,48.0,90.0,6.0,64.0
12222,51.0,3.0,270.0,10.0,64.0
12223,73.0,44.0,60.0,6.0,64.0
12224,75.0,20.0,90.0,6.0,64.0
12225,67.0,30.0,60.0,8.0,64.0
12226,68.0,34.0,60.0,8.0,64.0
12227,73.0,25.0,60.0,6.0,64.0
12228,70.0,36.0,60.0,8.0,64.0
12229,75.0,58.0,60.0,6.0,64.0
12230,79.0,43.0,240.0,7.0,64.0
12231,73.0,35.0,60.0,6.0,64.0
12232,70.0,21.0,60.0,8.0,64.0
12233,75.0,22.0,60.0,6.0,64.0
12234,71.0,14.0,60.0,8.0,64.0
12235,73.0,23.0,60.0,6.0,64.0
12236,73.0,25.0,60.0,8.0,64.0
12237,67.0,64.0,60.0,6.0,64.0
12238,73.0,30.0,90.0,6.0,64.0
12239,73.0,4.0,60.0,8.0,64.0
12240,51.0,29.0,60.0,10.0,64.0
12241,75.0,9.0,60.0,6.0,64.0
12242,72.0,25.0,60.0,8.0,64.0
12243,76.0,17.0,90.0,6.0,64.0
12244,73.0,5.0,60.0,8.0,64.0
12245,55.0,12.0,60.0,10.0,64.0
12246,75.0,72.0,240.0,7.0,64.0
12247,75.0,66.0,60.0,6.0,64.0
12248,70.0,5.0,210.0,5.0,64.0
12249,73.0,40.0,60.0,6.0,64.0
12250,75.0,17.0,60.0,8.0,64.0
12251,51.0,6.0,60.0,10.0,64.0
12252,72.0,22.0,60.0,6.0,64.0
12253,73.0,4.0,60.0,8.0,64.0
12254,70.0,22.0,60.0,6.0,64.0
12255,72.0,1.0,1410.0,5.0,64.0
12256,72.0,31.0,180.0,8.0,64.0
12257,66.0,51.0,60.0,6.0,64.0
12258,56.0,28.0,270.0,10.0,64.0
12259,78.0,8.0,1170.0,4.0,64.0
12260,72.0,59.0,60.0,6.0,64.0
12261,75.0,2.0,60.0,6.0,64.0
12262,68.0,7.0,60.0,7.0,64.0
12263,70.0,20.0,60.0,7.0,64.0
12264,72.0,23.0,60.0,6.0,64.0
12265,72.0,10.0,60.0,7.0,64.0
12266,75.0,56.0,60.0,6.0,64.0
12267,68.0,47.0,240.0,8.0,64.0
12268,72.0,49.0,60.0,6.0,64.0
12269,75.0,22.0,60.0,6.0,64.0
12270,72.0,15.0,60.0,7.0,64.0
12271,73.0,35.0,60.0,7.0,64.0
12272,72.0,16.0,30.0,6.0,64.0
12273,75.0,4.0,60.0,7.0,64.0
12274,66.0,41.0,60.0,6.0,64.0
12275,44.0,28.0,240.0,10.0,64.0
12276,72.0,66.0,60.0,6.0,64.0
12277,75.0,56.0,60.0,6.0,64.0
12278,72.0,4.0,60.0,7.0,64.0
12279,72.0,26.0,90.0,6.0,64.0
12280,73.0,5.0,60.0,7.0,64.0
12281,75.0,51.0,90.0,6.0,64.0
12282,75.0,10.0,60.0,7.0,64.0
12283,72.0,25.0,270.0,8.0,64.0
12284,72.0,64.0,60.0,6.0,64.0
12285,75.0,25.0,90.0,6.0,64.0
12286,75.0,2.0,60.0,7.0,64.0
12287,72.0,9.0,60.0,6.0,64.0
12288,77.0,52.0,60.0,7.0,64.0
12289,66.0,60.0,60.0,6.0,64.0
12290,78.0,8.0,60.0,7.0,64.0
12291,72.0,48.0,90.0,6.0,64.0
12292,75.0,14.0,90.0,6.0,64.0
12293,78.0,3.0,60.0,7.0,64.0
12294,44.0,14.0,60.0,10.0,64.0
12295,73.0,56.0,90.0,6.0,64.0
12296,77.0,29.0,30.0,7.0,64.0
12297,72.0,7.0,90.0,6.0,64.0
12298,78.0,35.0,60.0,7.0,64.0
12299,75.0,32.0,240.0,4.0,64.0
12300,56.0,1.0,60.0,10.0,64.0
12301,75.0,40.0,240.0,8.0,64.0
12302,70.0,66.0,60.0,6.0,64.0
12303,68.0,9.0,60.0,6.0,64.0
12304,77.0,18.0,60.0,7.0,64.0
12305,48.0,1.0,60.0,10.0,64.0
12306,66.0,16.0,30.0,6.0,64.0
12307,75.0,11.0,60.0,7.0,64.0
12308,65.0,68.0,60.0,6.0,64.0
12309,77.0,4.0,180.0,7.0,64.0
12310,77.0,24.0,1440.0,4.0,64.0
12311,49.0,41.0,240.0,10.0,64.0
12312,71.0,2.0,1170.0,5.0,64.0
12313,71.0,54.0,90.0,6.0,64.0
12314,73.0,43.0,60.0,6.0,64.0
12315,61.0,0.0,60.0,8.0,64.0
12316,73.0,10.0,90.0,0.0,64.0
12317,71.0,9.0,60.0,6.0,64.0
12318,63.0,2.0,60.0,8.0,64.0
12319,73.0,41.0,60.0,6.0,64.0
12320,65.0,18.0,60.0,8.0,64.0
12321,80.0,37.0,240.0,7.0,64.0
12322,73.0,18.0,90.0,0.0,64.0
12323,71.0,48.0,60.0,6.0,64.0
12324,65.0,11.0,60.0,8.0,64.0
12325,73.0,39.0,60.0,6.0,64.0
12326,73.0,0.0,90.0,0.0,64.0
12327,66.0,1.0,60.0,8.0,64.0
12328,71.0,40.0,60.0,6.0,64.0
12329,68.0,31.0,60.0,8.0,64.0
12330,65.0,10.0,60.0,6.0,64.0
12331,73.0,30.0,90.0,0.0,64.0
12332,61.0,40.0,240.0,10.0,64.0
12333,71.0,59.0,90.0,6.0,64.0
12334,73.0,28.0,60.0,6.0,64.0
12335,73.0,4.0,90.0,0.0,64.0
12336,65.0,3.0,60.0,8.0,64.0
12337,85.0,3.0,90.0,1.0,64.0
12338,71.0,23.0,60.0,6.0,64.0
12339,66.0,12.0,60.0,8.0,64.0
12340,73.0,28.0,60.0,6.0,64.0
12341,68.0,2.0,60.0,8.0,64.0
12342,73.0,9.0,90.0,0.0,64.0
12343,85.0,22.0,90.0,1.0,64.0
12344,77.0,42.0,240.0,7.0,64.0
12345,71.0,49.0,60.0,6.0,64.0
12346,73.0,19.0,60.0,6.0,64.0
12347,73.0,16.0,90.0,0.0,64.0
12348,85.0,18.0,90.0,1.0,64.0
12349,68.0,9.0,60.0,8.0,64.0
12350,71.0,6.0,60.0,6.0,64.0
12351,70.0,13.0,60.0,8.0,64.0
12352,65.0,41.0,60.0,6.0,64.0
12353,73.0,3.0,90.0,0.0,64.0
12354,71.0,2.0,60.0,8.0,64.0
12355,85.0,37.0,90.0,1.0,64.0
12356,71.0,35.0,90.0,6.0,64.0
12357,73.0,6.0,90.0,6.0,64.0
12358,49.0,11.0,60.0,10.0,64.0
12359,80.0,1.0,90.0,0.0,64.0
12360,85.0,22.0,90.0,2.0,64.0
12361,71.0,9.0,60.0,8.0,64.0
12362,49.0,6.0,30.0,3.0,64.0
12363,85.0,5.0,60.0,1.0,64.0
12364,70.0,29.0,60.0,8.0,64.0
12365,75.0,22.0,90.0,6.0,64.0
12366,80.0,1.0,90.0,0.0,64.0
12367,85.0,9.0,60.0,1.0,64.0
12368,71.0,10.0,60.0,8.0,64.0
12369,73.0,12.0,90.0,6.0,64.0
12370,49.0,4.0,30.0,3.0,64.0
12371,53.0,14.0,60.0,10.0,64.0
12372,73.0,10.0,240.0,7.0,64.0
12373,85.0,32.0,90.0,2.0,64.0
12374,68.0,1.0,210.0,5.0,64.0
12375,71.0,26.0,60.0,6.0,64.0
12376,92.0,4.0,60.0,1.0,64.0
12377,70.0,11.0,60.0,6.0,64.0
12378,49.0,21.0,30.0,3.0,64.0
12379,85.0,7.0,90.0,0.0,64.0
12380,85.0,11.0,90.0,2.0,64.0
12381,49.0,2.0,60.0,10.0,64.0
12382,73.0,9.0,60.0,8.0,64.0
12383,71.0,16.0,60.0,8.0,64.0
12384,68.0,2.0,30.0,6.0,64.0
12385,64.0,24.0,60.0,6.0,64.0
12386,90.0,7.0,90.0,1.0,64.0
12387,85.0,10.0,120.0,2.0,64.0
12388,54.0,25.0,30.0,3.0,64.0
12389,82.0,9.0,90.0,0.0,64.0
12390,70.0,6.0,180.0,8.0,64.0
12391,70.0,6.0,1410.0,5.0,64.0
12392,54.0,3.0,240.0,10.0,64.0
12393,76.0,2.0,1050.0,4.0,64.0
12394,54.0,13.0,20.0,3.0,64.0
12395,70.0,30.0,60.0,6.0,64.0
12396,54.0,0.0,20.0,3.0,64.0
12397,54.0,2.0,15.0,3.0,64.0
12398,73.0,3.0,60.0,6.0,64.0
12399,66.0,5.0,60.0,7.0,64.0
12400,73.0,6.0,90.0,2.0,64.0
12401,70.0,3.0,90.0,0.0,64.0
12402,78.0,4.0,90.0,1.0,64.0
12403,54.0,29.0,20.0,3.0,64.0
12404,54.0,9.0,20.0,3.0,64.0
12405,70.0,36.0,60.0,6.0,64.0
12406,68.0,7.0,60.0,7.0,64.0
12407,54.0,13.0,15.0,3.0,64.0
12408,54.0,15.0,30.0,3.0,64.0
12409,73.0,14.0,60.0,6.0,64.0
12410,70.0,8.0,60.0,7.0,64.0
12411,73.0,1.0,90.0,2.0,64.0
12412,70.0,1.0,90.0,0.0,64.0
12413,78.0,5.0,90.0,1.0,64.0
12414,66.0,4.0,240.0,8.0,64.0
12415,70.0,15.0,60.0,6.0,64.0
12416,54.0,20.0,20.0,3.0,64.0
12417,54.0,19.0,15.0,3.0,64.0
12418,73.0,17.0,60.0,6.0,64.0
12419,54.0,31.0,15.0,3.0,64.0
12420,78.0,1.0,90.0,2.0,64.0
12421,73.0,5.0,90.0,0.0,64.0
12422,70.0,9.0,60.0,7.0,64.0
12423,82.0,13.0,90.0,1.0,64.0
12424,54.0,7.0,20.0,3.0,64.0
12425,71.0,10.0,60.0,7.0,64.0
12426,70.0,1.0,60.0,6.0,64.0
12427,54.0,1.0,20.0,3.0,64.0
12428,54.0,29.0,20.0,3.0,64.0
12429,64.0,17.0,90.0,6.0,64.0
12430,73.0,8.0,60.0,7.0,64.0
12431,54.0,33.0,20.0,3.0,64.0
12432,73.0,5.0,90.0,0.0,64.0
12433,78.0,15.0,90.0,2.0,64.0
12434,82.0,2.0,90.0,1.0,64.0
12435,42.0,20.0,240.0,10.0,64.0
12436,54.0,7.0,20.0,3.0,64.0
12437,70.0,7.0,60.0,6.0,64.0
12438,54.0,1.0,20.0,3.0,64.0
12439,54.0,31.0,20.0,3.0,64.0
12440,73.0,15.0,60.0,6.0,64.0
12441,78.0,7.0,90.0,0.0,64.0
12442,82.0,1.0,90.0,2.0,64.0
12443,70.0,4.0,60.0,7.0,64.0
12444,85.0,3.0,90.0,1.0,64.0
12445,54.0,25.0,20.0,3.0,64.0
12446,54.0,5.0,20.0,3.0,64.0
12447,70.0,12.0,60.0,6.0,64.0
12448,71.0,5.0,60.0,7.0,64.0
12449,54.0,19.0,20.0,3.0,64.0
12450,54.0,11.0,20.0,3.0,64.0
12451,73.0,6.0,60.0,6.0,64.0
12452,73.0,7.0,60.0,7.0,64.0
12453,82.0,6.0,90.0,2.0,64.0
12454,70.0,22.0,270.0,8.0,64.0
12455,78.0,0.0,90.0,0.0,64.0
12456,85.0,1.0,90.0,1.0,64.0
12457,54.0,16.0,20.0,3.0,64.0
12458,70.0,2.0,90.0,6.0,64.0
12459,54.0,24.0,20.0,3.0,64.0
12460,54.0,27.0,20.0,3.0,64.0
12461,54.0,30.0,20.0,3.0,64.0
12462,73.0,4.0,60.0,6.0,64.0
12463,85.0,11.0,90.0,2.0,64.0
12464,82.0,3.0,90.0,0.0,64.0
12465,90.0,1.0,60.0,1.0,64.0
12466,73.0,2.0,60.0,7.0,64.0
12467,54.0,30.0,20.0,3.0,64.0
12468,70.0,4.0,60.0,6.0,64.0
12469,54.0,9.0,20.0,3.0,64.0
12470,75.0,29.0,30.0,7.0,64.0
12471,54.0,4.0,20.0,3.0,64.0
12472,54.0,8.0,15.0,3.0,64.0
12473,85.0,15.0,90.0,2.0,64.0
12474,64.0,5.0,60.0,6.0,64.0
12475,82.0,7.0,90.0,0.0,64.0
12476,76.0,13.0,60.0,7.0,64.0
12477,90.0,1.0,60.0,1.0,64.0
12478,54.0,14.0,20.0,3.0,64.0
12479,70.0,4.0,90.0,6.0,64.0
12480,54.0,9.0,20.0,3.0,64.0
12481,54.0,28.0,20.0,3.0,64.0
12482,94.0,5.0,60.0,1.0,64.0
12483,54.0,11.0,60.0,10.0,64.0
12484,90.0,1.0,90.0,2.0,64.0
12485,73.0,1.0,90.0,6.0,64.0
12486,73.0,24.0,120.0,4.0,64.0
12487,85.0,8.0,60.0,0.0,64.0
12488,54.0,32.0,15.0,3.0,64.0
12489,76.0,3.0,60.0,7.0,64.0
12490,54.0,4.0,20.0,3.0,64.0
12491,75.0,10.0,60.0,7.0,64.0
12492,71.0,15.0,90.0,6.0,64.0
12493,54.0,14.0,20.0,3.0,64.0
12494,54.0,37.0,60.0,3.0,64.0
12495,42.0,6.0,90.0,10.0,64.0
12496,70.0,8.0,90.0,6.0,64.0
12497,76.0,3.0,60.0,7.0,64.0
12498,94.0,2.0,90.0,1.0,64.0
12499,90.0,14.0,90.0,2.0,64.0
12500,85.0,0.0,60.0,0.0,64.0
12501,70.0,15.0,90.0,4.0,64.0
12502,73.0,3.0,180.0,8.0,64.0
12503,54.0,6.0,30.0,3.0,64.0
12504,68.0,24.0,60.0,6.0,64.0
12505,54.0,25.0,30.0,3.0,64.0
12506,66.0,7.0,60.0,6.0,64.0
12507,94.0,4.0,90.0,2.0,64.0
12508,46.0,7.0,60.0,10.0,64.0
12509,90.0,4.0,60.0,0.0,64.0
12510,97.0,1.0,60.0,1.0,64.0
12511,66.0,35.0,90.0,4.0,64.0
12512,75.0,1.0,60.0,7.0,64.0
12513,54.0,10.0,30.0,3.0,64.0
12514,64.0,2.0,30.0,6.0,64.0
12515,73.0,6.0,30.0,7.0,64.0
12516,54.0,51.0,30.0,3.0,64.0
12517,63.0,50.0,60.0,6.0,64.0
12518,99.0,4.0,120.0,1.0,64.0
12519,47.0,3.0,60.0,10.0,64.0
12520,95.0,0.0,120.0,2.0,64.0
12521,90.0,6.0,120.0,0.0,64.0
12522,66.0,19.0,150.0,5.0,64.0
12523,75.0,3.0,240.0,7.0,64.0
12524,75.0,16.0,150.0,4.0,64.0
12525,66.0,42.0,240.0,8.0,64.0
12526,59.0,17.0,90.0,6.0,64.0
12527,46.0,0.0,60.0,10.0,64.0
12528,61.0,34.0,60.0,6.0,64.0
12529,64.0,37.0,30.0,6.0,64.0
12530,63.0,14.0,60.0,6.0,64.0
12531,47.0,16.0,60.0,10.0,64.0
12532,66.0,81.0,30.0,6.0,64.0
12533,65.0,13.0,60.0,6.0,64.0
12534,49.0,23.0,60.0,10.0,64.0
12535,68.0,98.0,30.0,6.0,64.0
12536,66.0,64.0,60.0,6.0,64.0
12537,51.0,3.0,60.0,10.0,64.0
12538,63.0,56.0,90.0,6.0,64.0
12539,65.0,2.0,90.0,6.0,64.0
12540,49.0,29.0,60.0,10.0,64.0
12541,68.0,87.0,60.0,6.0,64.0
12542,66.0,4.0,60.0,6.0,64.0
12543,51.0,33.0,60.0,10.0,64.0
12544,70.0,81.0,60.0,6.0,64.0
12545,68.0,6.0,60.0,6.0,64.0
12546,53.0,19.0,60.0,10.0,64.0
12547,71.0,105.0,30.0,6.0,64.0
12548,70.0,1.0,90.0,6.0,64.0
12549,54.0,51.0,60.0,10.0,64.0
12550,66.0,46.0,60.0,6.0,64.0
12551,68.0,14.0,60.0,6.0,64.0
12552,53.0,26.0,60.0,10.0,64.0
12553,71.0,88.0,30.0,6.0,64.0
12554,70.0,1.0,60.0,6.0,64.0
12555,54.0,26.0,60.0,10.0,64.0
12556,73.0,99.0,30.0,6.0,64.0
12557,71.0,1.0,90.0,6.0,64.0
12558,56.0,16.0,60.0,10.0,64.0
12559,75.0,105.0,30.0,6.0,64.0
12560,73.0,4.0,60.0,6.0,64.0
12561,58.0,47.0,60.0,10.0,64.0
12562,66.0,55.0,60.0,6.0,64.0
12563,70.0,21.0,60.0,6.0,64.0
12564,56.0,22.0,90.0,10.0,64.0
12565,73.0,85.0,60.0,6.0,64.0
12566,58.0,52.0,90.0,10.0,64.0
12567,78.0,6.0,60.0,6.0,64.0
12568,82.0,56.0,60.0,6.0,64.0
12569,59.0,19.0,90.0,10.0,64.0
12570,80.0,21.0,60.0,6.0,64.0
12571,78.0,95.0,30.0,6.0,64.0
12572,77.0,29.0,60.0,6.0,64.0
12573,61.0,72.0,90.0,10.0,64.0
12574,61.0,8.0,90.0,10.0,64.0
12575,80.0,2.0,60.0,5.0,64.0
12576,73.0,3.0,60.0,6.0,64.0
12577,49.0,2.0,60.0,3.0,64.0
12578,80.0,6.0,60.0,7.0,64.0
12579,73.0,2.0,60.0,4.0,64.0
12580,65.0,28.0,60.0,8.0,64.0
12581,75.0,17.0,60.0,6.0,64.0
12582,75.0,3.0,60.0,4.0,64.0
12583,66.0,51.0,60.0,8.0,64.0
12584,77.0,0.0,60.0,6.0,64.0
12585,61.0,6.0,90.0,10.0,64.0
12586,77.0,1.0,60.0,4.0,64.0
12587,85.0,31.0,120.0,2.0,64.0
12588,92.0,12.0,90.0,1.0,64.0
12589,97.0,3.0,90.0,0.0,64.0
12590,73.0,15.0,60.0,5.0,64.0
12591,68.0,20.0,60.0,8.0,64.0
12592,49.0,1.0,60.0,3.0,64.0
12593,73.0,5.0,30.0,7.0,64.0
12594,70.0,12.0,60.0,8.0,64.0
12595,77.0,11.0,60.0,6.0,64.0
12596,61.0,15.0,90.0,10.0,64.0
12597,68.0,23.0,60.0,8.0,64.0
12598,49.0,11.0,60.0,3.0,64.0
12599,77.0,0.0,150.0,7.0,64.0
12600,77.0,4.0,180.0,5.0,64.0
12601,77.0,2.0,60.0,4.0,64.0
12602,78.0,1.0,30.0,6.0,64.0
12603,70.0,6.0,60.0,8.0,64.0
12604,78.0,59.0,60.0,4.0,64.0
12605,80.0,12.0,60.0,6.0,64.0
12606,61.0,1.0,90.0,10.0,64.0
12607,71.0,3.0,60.0,8.0,64.0
12608,97.0,8.0,60.0,0.0,64.0
12609,49.0,1.0,30.0,3.0,64.0
12610,80.0,14.0,60.0,4.0,64.0
12611,85.0,13.0,90.0,2.0,64.0
12612,92.0,2.0,90.0,1.0,64.0
12613,68.0,47.0,60.0,8.0,64.0
12614,77.0,11.0,60.0,6.0,64.0
12615,61.0,16.0,90.0,10.0,64.0
12616,80.0,7.0,30.0,7.0,64.0
12617,61.0,4.0,60.0,8.0,64.0
12618,80.0,11.0,60.0,5.0,64.0
12619,49.0,6.0,30.0,3.0,64.0
12620,77.0,14.0,60.0,4.0,64.0
12621,78.0,15.0,60.0,6.0,64.0
12622,63.0,6.0,60.0,8.0,64.0
12623,78.0,38.0,60.0,4.0,64.0
12624,80.0,10.0,60.0,6.0,64.0
12625,71.0,1.0,30.0,7.0,64.0
12626,97.0,9.0,90.0,1.0,64.0
12627,61.0,11.0,60.0,10.0,64.0
12628,92.0,2.0,90.0,0.0,64.0
12629,65.0,2.0,60.0,8.0,64.0
12630,85.0,11.0,90.0,2.0,64.0
12631,71.0,7.0,60.0,5.0,64.0
12632,80.0,2.0,60.0,4.0,64.0
12633,49.0,8.0,30.0,3.0,64.0
12634,66.0,63.0,30.0,8.0,64.0
12635,77.0,2.0,180.0,7.0,64.0
12636,61.0,20.0,90.0,10.0,64.0
12637,80.0,3.0,60.0,6.0,64.0
12638,65.0,20.0,60.0,8.0,64.0
12639,80.0,5.0,60.0,4.0,64.0
12640,49.0,4.0,30.0,3.0,64.0
12641,77.0,9.0,180.0,5.0,64.0
12642,82.0,2.0,60.0,6.0,64.0
12643,82.0,2.0,30.0,4.0,64.0
12644,66.0,66.0,60.0,8.0,64.0
12645,83.0,8.0,60.0,6.0,64.0
12646,83.0,8.0,60.0,4.0,64.0
12647,61.0,1.0,90.0,10.0,64.0
12648,85.0,13.0,90.0,2.0,64.0
12649,68.0,5.0,60.0,8.0,64.0
12650,92.0,3.0,90.0,0.0,64.0
12651,97.0,6.0,90.0,1.0,64.0
12652,49.0,3.0,30.0,3.0,64.0
12653,66.0,52.0,60.0,8.0,64.0
12654,65.0,18.0,60.0,8.0,64.0
12655,83.0,1.0,30.0,4.0,64.0
12656,80.0,10.0,60.0,5.0,64.0
12657,56.0,15.0,90.0,10.0,64.0
12658,80.0,8.0,30.0,7.0,64.0
12659,83.0,2.0,60.0,6.0,64.0
12660,49.0,1.0,30.0,3.0,64.0
12661,82.0,5.0,30.0,6.0,64.0
12662,66.0,63.0,60.0,8.0,64.0
12663,82.0,4.0,60.0,4.0,64.0
12664,83.0,1.0,90.0,4.0,64.0
12665,53.0,15.0,90.0,10.0,64.0
12666,68.0,5.0,60.0,8.0,64.0
12667,83.0,2.0,60.0,6.0,64.0
12668,95.0,2.0,90.0,0.0,64.0
12669,73.0,5.0,60.0,7.0,64.0
12670,73.0,6.0,60.0,5.0,64.0
12671,85.0,35.0,90.0,2.0,64.0
12672,49.0,9.0,30.0,3.0,64.0
12673,92.0,0.0,90.0,1.0,64.0
12674,66.0,42.0,60.0,8.0,64.0
12675,65.0,0.0,60.0,8.0,64.0
12676,49.0,7.0,60.0,10.0,64.0
12677,85.0,15.0,60.0,6.0,64.0
12678,77.0,1.0,60.0,5.0,64.0
12679,77.0,6.0,60.0,7.0,64.0
12680,49.0,0.0,30.0,3.0,64.0
12681,85.0,20.0,60.0,4.0,64.0
12682,63.0,1.0,60.0,8.0,64.0
12683,83.0,15.0,60.0,6.0,64.0
12684,83.0,47.0,60.0,4.0,64.0
12685,61.0,12.0,60.0,8.0,64.0
12686,82.0,3.0,60.0,6.0,64.0
12687,94.0,2.0,90.0,0.0,64.0
12688,82.0,19.0,60.0,4.0,64.0
12689,78.0,5.0,90.0,7.0,64.0
12690,85.0,3.0,90.0,2.0,64.0
12691,90.0,7.0,90.0,1.0,64.0
12692,54.0,12.0,60.0,3.0,64.0
12693,54.0,14.0,90.0,10.0,64.0
12694,78.0,5.0,60.0,5.0,64.0
12695,73.0,39.0,60.0,8.0,64.0
12696,70.0,1.0,60.0,8.0,64.0
12697,66.0,6.0,60.0,7.0,64.0
12698,85.0,12.0,30.0,6.0,64.0
12699,78.0,3.0,90.0,2.0,64.0
12700,66.0,3.0,90.0,10.0,64.0
12701,66.0,4.0,30.0,5.0,64.0
12702,85.0,37.0,60.0,4.0,64.0
12703,71.0,43.0,60.0,8.0,64.0
12704,68.0,3.0,60.0,7.0,64.0
12705,68.0,9.0,30.0,5.0,64.0
12706,78.0,18.0,30.0,6.0,64.0
12707,70.0,2.0,60.0,7.0,64.0
12708,73.0,21.0,60.0,8.0,64.0
12709,78.0,5.0,90.0,2.0,64.0
12710,66.0,56.0,90.0,10.0,64.0
12711,70.0,12.0,60.0,5.0,64.0
12712,78.0,2.0,60.0,4.0,64.0
12713,75.0,5.0,30.0,8.0,64.0
12714,73.0,31.0,60.0,8.0,64.0
12715,70.0,3.0,30.0,7.0,64.0
12716,82.0,15.0,150.0,6.0,64.0
12717,78.0,0.0,90.0,2.0,64.0
12718,66.0,61.0,90.0,10.0,64.0
12719,70.0,0.0,60.0,5.0,64.0
12720,78.0,2.0,90.0,1.0,64.0
12721,82.0,10.0,180.0,4.0,64.0
12722,54.0,12.0,20.0,3.0,64.0
12723,71.0,2.0,60.0,7.0,64.0
12724,71.0,3.0,60.0,5.0,64.0
12725,75.0,6.0,30.0,8.0,64.0
12726,54.0,1.0,20.0,3.0,64.0
12727,73.0,4.0,60.0,7.0,64.0
12728,76.0,1.0,90.0,8.0,64.0
12729,78.0,2.0,90.0,1.0,64.0
12730,73.0,23.0,60.0,5.0,64.0
12731,66.0,48.0,90.0,10.0,64.0
12732,54.0,2.0,30.0,3.0,64.0
12733,78.0,11.0,90.0,2.0,64.0
12734,73.0,0.0,30.0,8.0,64.0
12735,66.0,5.0,60.0,8.0,64.0
12736,70.0,8.0,60.0,7.0,64.0
12737,85.0,9.0,30.0,6.0,64.0
12738,78.0,2.0,90.0,1.0,64.0
12739,66.0,1.0,90.0,10.0,64.0
12740,85.0,7.0,60.0,4.0,64.0
12741,78.0,12.0,90.0,0.0,64.0
12742,78.0,5.0,90.0,2.0,64.0
12743,70.0,26.0,60.0,5.0,64.0
12744,71.0,2.0,60.0,7.0,64.0
12745,68.0,12.0,60.0,8.0,64.0
12746,71.0,30.0,60.0,5.0,64.0
12747,73.0,4.0,60.0,7.0,64.0
12748,70.0,9.0,60.0,8.0,64.0
12749,76.0,6.0,30.0,6.0,64.0
12750,66.0,7.0,90.0,10.0,64.0
12751,76.0,7.0,30.0,4.0,64.0
12752,78.0,4.0,90.0,1.0,64.0
12753,78.0,59.0,90.0,0.0,64.0
12754,73.0,24.0,60.0,5.0,64.0
12755,78.0,7.0,90.0,2.0,64.0
12756,71.0,3.0,60.0,8.0,64.0
12757,70.0,1.0,60.0,8.0,64.0
12758,66.0,4.0,90.0,10.0,64.0
12759,82.0,4.0,150.0,6.0,64.0
12760,73.0,7.0,60.0,7.0,64.0
12761,78.0,1.0,90.0,1.0,64.0
12762,78.0,21.0,90.0,0.0,64.0
12763,73.0,27.0,60.0,5.0,64.0
12764,78.0,4.0,90.0,2.0,64.0
12765,82.0,6.0,150.0,4.0,64.0
12766,54.0,5.0,30.0,3.0,64.0
12767,71.0,1.0,60.0,8.0,64.0
12768,75.0,1.0,30.0,7.0,64.0
12769,75.0,31.0,60.0,5.0,64.0
12770,54.0,2.0,30.0,3.0,64.0
12771,73.0,27.0,60.0,8.0,64.0
12772,76.0,5.0,60.0,7.0,64.0
12773,66.0,55.0,90.0,10.0,64.0
12774,54.0,17.0,30.0,3.0,64.0
12775,78.0,3.0,90.0,2.0,64.0
12776,76.0,0.0,60.0,5.0,64.0
12777,78.0,1.0,90.0,1.0,64.0
12778,78.0,4.0,90.0,0.0,64.0
12779,71.0,2.0,60.0,8.0,64.0
12780,70.0,18.0,60.0,8.0,64.0
12781,76.0,2.0,60.0,7.0,64.0
12782,85.0,9.0,30.0,6.0,64.0
12783,76.0,1.0,60.0,5.0,64.0
12784,94.0,2.0,90.0,1.0,64.0
12785,61.0,1.0,90.0,10.0,64.0
12786,90.0,12.0,90.0,2.0,64.0
12787,97.0,4.0,60.0,0.0,64.0
12788,54.0,1.0,30.0,3.0,64.0
12789,85.0,13.0,30.0,4.0,64.0
12790,71.0,0.0,60.0,8.0,64.0
12791,75.0,3.0,60.0,7.0,64.0
12792,75.0,62.0,60.0,5.0,64.0
12793,73.0,2.0,60.0,8.0,64.0
12794,76.0,9.0,60.0,7.0,64.0
12795,90.0,39.0,90.0,1.0,64.0
12796,76.0,0.0,60.0,5.0,64.0
12797,58.0,7.0,90.0,10.0,64.0
12798,102.0,12.0,60.0,0.0,64.0
12799,78.0,4.0,30.0,6.0,64.0
12800,85.0,2.0,90.0,2.0,64.0
12801,54.0,7.0,30.0,3.0,64.0
12802,78.0,6.0,60.0,4.0,64.0
12803,71.0,33.0,60.0,8.0,64.0
12804,82.0,12.0,60.0,6.0,64.0
12805,70.0,7.0,60.0,8.0,64.0
12806,94.0,20.0,90.0,1.0,64.0
12807,78.0,1.0,60.0,7.0,64.0
12808,54.0,2.0,60.0,10.0,64.0
12809,78.0,0.0,30.0,5.0,64.0
12810,82.0,4.0,60.0,4.0,64.0
12811,90.0,0.0,60.0,2.0,64.0
12812,97.0,3.0,60.0,0.0,64.0
12813,54.0,3.0,30.0,3.0,64.0
12814,76.0,3.0,60.0,7.0,64.0
12815,68.0,9.0,60.0,8.0,64.0
12816,76.0,53.0,60.0,5.0,64.0
12817,95.0,5.0,120.0,1.0,64.0
12818,83.0,5.0,60.0,6.0,64.0
12819,66.0,3.0,30.0,8.0,64.0
12820,75.0,2.0,60.0,7.0,64.0
12821,83.0,13.0,60.0,4.0,64.0
12822,75.0,37.0,60.0,5.0,64.0
12823,59.0,4.0,90.0,10.0,64.0
12824,90.0,4.0,120.0,2.0,64.0
12825,99.0,37.0,120.0,0.0,64.0
12826,54.0,1.0,30.0,3.0,64.0
12827,63.0,8.0,60.0,8.0,64.0
12828,68.0,1.0,60.0,8.0,64.0
12829,87.0,9.0,30.0,6.0,64.0
12830,87.0,6.0,60.0,4.0,64.0
12831,71.0,48.0,60.0,7.0,64.0
12832,68.0,7.0,90.0,10.0,64.0
12833,71.0,2.0,60.0,5.0,64.0
12834,70.0,10.0,60.0,8.0,64.0
12835,73.0,5.0,60.0,7.0,64.0
12836,73.0,32.0,60.0,5.0,64.0
12837,72.0,26.0,60.0,8.0,64.0
12838,78.0,8.0,30.0,6.0,64.0
12839,75.0,16.0,60.0,7.0,64.0
12840,78.0,5.0,30.0,4.0,64.0
12841,68.0,66.0,90.0,10.0,64.0
12842,75.0,4.0,60.0,5.0,64.0
12843,73.0,3.0,30.0,8.0,64.0
12844,72.0,20.0,60.0,8.0,64.0
12845,84.0,11.0,150.0,6.0,64.0
12846,75.0,3.0,60.0,7.0,64.0
12847,68.0,4.0,90.0,10.0,64.0
12848,75.0,22.0,60.0,5.0,64.0
12849,84.0,12.0,150.0,4.0,64.0
12850,77.0,8.0,60.0,7.0,64.0
12851,73.0,1.0,30.0,8.0,64.0
12852,77.0,51.0,60.0,5.0,64.0
12853,75.0,5.0,60.0,8.0,64.0
12854,78.0,1.0,60.0,7.0,64.0
12855,78.0,36.0,60.0,5.0,64.0
12856,68.0,57.0,90.0,10.0,64.0
12857,73.0,1.0,60.0,8.0,64.0
12858,72.0,3.0,60.0,8.0,64.0
12859,78.0,0.0,60.0,7.0,64.0
12860,87.0,9.0,30.0,6.0,64.0
12861,78.0,2.0,60.0,5.0,64.0
12862,87.0,38.0,60.0,4.0,64.0
12863,63.0,5.0,90.0,10.0,64.0
12864,77.0,7.0,60.0,7.0,64.0
12865,73.0,2.0,60.0,8.0,64.0
12866,77.0,65.0,60.0,5.0,64.0
12867,75.0,2.0,60.0,8.0,64.0
12868,78.0,29.0,60.0,7.0,64.0
12869,78.0,6.0,60.0,5.0,64.0
12870,80.0,10.0,60.0,6.0,64.0
12871,60.0,16.0,90.0,10.0,64.0
12872,80.0,1.0,60.0,4.0,64.0
12873,73.0,48.0,60.0,8.0,64.0
12874,72.0,2.0,60.0,8.0,64.0
12875,80.0,0.0,60.0,7.0,64.0
12876,80.0,7.0,60.0,5.0,64.0
12877,84.0,16.0,60.0,6.0,64.0
12878,84.0,3.0,30.0,4.0,64.0
12879,56.0,12.0,60.0,10.0,64.0
12880,70.0,60.0,60.0,8.0,64.0
12881,78.0,14.0,30.0,7.0,64.0
12882,78.0,13.0,30.0,5.0,64.0
12883,77.0,11.0,60.0,5.0,64.0
12884,68.0,30.0,60.0,8.0,64.0
12885,77.0,4.0,60.0,7.0,64.0
12886,85.0,2.0,60.0,4.0,64.0
12887,85.0,1.0,60.0,6.0,64.0
12888,61.0,39.0,240.0,10.0,64.0
12889,80.0,7.0,30.0,4.0,64.0
12890,80.0,63.0,30.0,6.0,64.0
12891,77.0,6.0,60.0,4.0,64.0
12892,77.0,11.0,60.0,6.0,64.0
12893,80.0,0.0,30.0,7.0,64.0
12894,80.0,0.0,30.0,5.0,64.0
12895,61.0,33.0,60.0,8.0,64.0
12896,78.0,11.0,60.0,4.0,64.0
12897,78.0,5.0,60.0,6.0,64.0
12898,63.0,15.0,60.0,8.0,64.0
12899,80.0,2.0,60.0,6.0,64.0
12900,80.0,12.0,60.0,4.0,64.0
12901,65.0,37.0,60.0,8.0,64.0
12902,73.0,0.0,60.0,5.0,64.0
12903,73.0,4.0,30.0,7.0,64.0
12904,82.0,5.0,60.0,6.0,64.0
12905,82.0,72.0,60.0,4.0,64.0
12906,80.0,11.0,60.0,6.0,64.0
12907,80.0,25.0,60.0,4.0,64.0
12908,65.0,1.0,60.0,8.0,64.0
12909,77.0,20.0,150.0,7.0,64.0
12910,77.0,5.0,180.0,5.0,64.0
12911,82.0,2.0,60.0,6.0,64.0
12912,66.0,6.0,60.0,8.0,64.0
12913,82.0,55.0,60.0,4.0,64.0
12914,68.0,23.0,60.0,8.0,64.0
12915,83.0,1.0,60.0,6.0,64.0
12916,83.0,5.0,60.0,4.0,64.0
12917,49.0,29.0,240.0,10.0,64.0
12918,80.0,11.0,60.0,6.0,64.0
12919,80.0,50.0,30.0,4.0,64.0
12920,73.0,8.0,60.0,6.0,64.0
12921,65.0,5.0,60.0,8.0,64.0
12922,80.0,4.0,60.0,5.0,64.0
12923,80.0,13.0,30.0,7.0,64.0
12924,73.0,28.0,60.0,4.0,64.0
12925,75.0,8.0,60.0,6.0,64.0
12926,66.0,3.0,60.0,8.0,64.0
12927,75.0,31.0,60.0,4.0,64.0
12928,68.0,0.0,60.0,8.0,64.0
12929,77.0,37.0,60.0,6.0,64.0
12930,77.0,4.0,60.0,4.0,64.0
12931,71.0,2.0,60.0,5.0,64.0
12932,71.0,2.0,30.0,7.0,64.0
12933,78.0,4.0,60.0,6.0,64.0
12934,78.0,63.0,30.0,4.0,64.0
12935,77.0,13.0,60.0,6.0,64.0
12936,77.0,5.0,60.0,4.0,64.0
12937,68.0,30.0,60.0,8.0,64.0
12938,77.0,12.0,150.0,7.0,64.0
12939,77.0,20.0,180.0,5.0,64.0
12940,78.0,10.0,30.0,6.0,64.0
12941,70.0,5.0,60.0,8.0,64.0
12942,78.0,58.0,60.0,4.0,64.0
12943,80.0,11.0,60.0,6.0,64.0
12944,71.0,1.0,60.0,8.0,64.0
12945,61.0,37.0,240.0,10.0,64.0
12946,80.0,15.0,60.0,4.0,64.0
12947,78.0,8.0,60.0,6.0,64.0
12948,78.0,48.0,60.0,4.0,64.0
12949,77.0,9.0,60.0,6.0,64.0
12950,71.0,2.0,30.0,8.0,64.0
12951,80.0,8.0,30.0,7.0,64.0
12952,77.0,25.0,60.0,4.0,64.0
12953,80.0,1.0,30.0,5.0,64.0
12954,70.0,4.0,30.0,8.0,64.0
12955,78.0,18.0,30.0,6.0,64.0
12956,78.0,26.0,30.0,4.0,64.0
12957,71.0,47.0,90.0,8.0,64.0
12958,80.0,6.0,60.0,6.0,64.0
12959,73.0,9.0,60.0,7.0,64.0
12960,73.0,4.0,60.0,5.0,64.0
12961,80.0,3.0,60.0,4.0,64.0
12962,78.0,0.0,60.0,6.0,64.0
12963,78.0,32.0,60.0,4.0,64.0
12964,73.0,4.0,30.0,8.0,64.0
12965,77.0,0.0,60.0,6.0,64.0
12966,77.0,9.0,30.0,7.0,64.0
12967,77.0,29.0,60.0,4.0,64.0
12968,77.0,15.0,30.0,5.0,64.0
12969,71.0,28.0,30.0,8.0,64.0
12970,75.0,33.0,60.0,6.0,64.0
12971,75.0,5.0,60.0,4.0,64.0
12972,70.0,20.0,60.0,8.0,64.0
12973,73.0,1.0,60.0,4.0,64.0
12974,78.0,43.0,60.0,7.0,64.0
12975,73.0,2.0,60.0,6.0,64.0
12976,78.0,1.0,60.0,5.0,64.0
12977,73.0,25.0,60.0,7.0,64.0
12978,78.0,6.0,60.0,4.0,64.0
12979,73.0,2.0,30.0,5.0,64.0
12980,78.0,23.0,60.0,6.0,64.0
12981,70.0,9.0,60.0,7.0,64.0
12982,77.0,1.0,60.0,4.0,64.0
12983,70.0,3.0,60.0,5.0,64.0
12984,77.0,17.0,90.0,6.0,64.0
12985,73.0,11.0,30.0,8.0,64.0
12986,54.0,11.0,60.0,10.0,64.0
12987,71.0,5.0,30.0,7.0,64.0
12988,71.0,12.0,30.0,5.0,64.0
12989,75.0,17.0,60.0,4.0,64.0
12990,75.0,4.0,60.0,6.0,64.0
12991,56.0,41.0,60.0,10.0,64.0
12992,73.0,1.0,60.0,6.0,64.0
12993,73.0,37.0,60.0,4.0,64.0
12994,73.0,0.0,60.0,7.0,64.0
12995,73.0,3.0,60.0,5.0,64.0
12996,58.0,1.0,60.0,10.0,64.0
12997,66.0,1.0,60.0,8.0,64.0
12998,75.0,14.0,60.0,7.0,64.0
12999,71.0,0.0,60.0,6.0,64.0
13000,71.0,51.0,60.0,4.0,64.0
13001,75.0,3.0,60.0,5.0,64.0
13002,73.0,4.0,60.0,7.0,64.0
13003,70.0,2.0,60.0,6.0,64.0
13004,70.0,40.0,60.0,4.0,64.0
13005,58.0,0.0,60.0,10.0,64.0
13006,73.0,0.0,60.0,5.0,64.0
13007,70.0,0.0,180.0,8.0,64.0
13008,68.0,7.0,30.0,6.0,64.0
13009,75.0,1.0,60.0,7.0,64.0
13010,59.0,75.0,60.0,10.0,64.0
13011,68.0,0.0,60.0,4.0,64.0
13012,75.0,4.0,30.0,5.0,64.0
13013,66.0,17.0,90.0,6.0,64.0
13014,61.0,9.0,60.0,10.0,64.0
13015,66.0,2.0,60.0,4.0,64.0
13016,76.0,4.0,60.0,7.0,64.0
13017,76.0,2.0,60.0,5.0,64.0
13018,73.0,76.0,60.0,7.0,64.0
13019,73.0,8.0,30.0,5.0,64.0
13020,66.0,1.0,60.0,7.0,64.0
13021,66.0,3.0,60.0,5.0,64.0
13022,58.0,39.0,60.0,10.0,64.0
13023,73.0,2.0,60.0,8.0,64.0
13024,90.0,4.0,90.0,0.0,64.0
13025,78.0,15.0,90.0,6.0,64.0
13026,78.0,1.0,90.0,4.0,64.0
13027,68.0,1.0,60.0,7.0,64.0
13028,68.0,1.0,30.0,5.0,64.0
13029,59.0,50.0,60.0,10.0,64.0
13030,70.0,2.0,60.0,7.0,64.0
13031,61.0,8.0,60.0,10.0,64.0
13032,70.0,8.0,60.0,5.0,64.0
13033,90.0,1.0,90.0,0.0,64.0
13034,64.0,29.0,60.0,8.0,64.0
13035,78.0,3.0,90.0,4.0,64.0
13036,78.0,4.0,90.0,6.0,64.0
13037,71.0,53.0,60.0,7.0,64.0
13038,71.0,6.0,30.0,5.0,64.0
13039,70.0,4.0,60.0,7.0,64.0
13040,70.0,16.0,60.0,5.0,64.0
13041,61.0,28.0,60.0,10.0,64.0
13042,90.0,9.0,90.0,0.0,64.0
13043,78.0,5.0,90.0,6.0,64.0
13044,78.0,63.0,90.0,4.0,64.0
13045,70.0,8.0,150.0,8.0,64.0
13046,63.0,1.0,60.0,10.0,64.0
13047,71.0,0.0,60.0,5.0,64.0
13048,71.0,7.0,30.0,7.0,64.0
13049,64.0,0.0,60.0,10.0,64.0
13050,73.0,6.0,60.0,5.0,64.0
13051,73.0,36.0,60.0,7.0,64.0
13052,90.0,2.0,90.0,0.0,64.0
13053,78.0,3.0,90.0,6.0,64.0
13054,78.0,2.0,90.0,4.0,64.0
13055,71.0,1.0,60.0,7.0,64.0
13056,71.0,55.0,60.0,5.0,64.0
13057,70.0,9.0,60.0,7.0,64.0
13058,64.0,3.0,60.0,10.0,64.0
13059,70.0,1.0,60.0,5.0,64.0
13060,85.0,1.0,90.0,2.0,64.0
13061,94.0,12.0,90.0,0.0,64.0
13062,90.0,1.0,90.0,1.0,64.0
13063,78.0,2.0,90.0,4.0,64.0
13064,78.0,2.0,90.0,6.0,64.0
13065,73.0,3.0,60.0,8.0,64.0
13066,54.0,25.0,60.0,3.0,64.0
13067,63.0,5.0,60.0,10.0,64.0
13068,71.0,0.0,60.0,7.0,64.0
13069,71.0,68.0,60.0,5.0,64.0
13070,64.0,2.0,60.0,10.0,64.0
13071,85.0,5.0,90.0,2.0,64.0
13072,94.0,3.0,90.0,0.0,64.0
13073,73.0,5.0,60.0,7.0,64.0
13074,90.0,12.0,90.0,1.0,64.0
13075,78.0,2.0,90.0,6.0,64.0
13076,78.0,9.0,90.0,4.0,64.0
13077,73.0,2.0,60.0,5.0,64.0
13078,66.0,11.0,60.0,8.0,64.0
13079,54.0,10.0,30.0,3.0,64.0
13080,71.0,5.0,60.0,7.0,64.0
13081,71.0,50.0,60.0,5.0,64.0
13082,70.0,0.0,60.0,7.0,64.0
13083,82.0,15.0,90.0,2.0,64.0
13084,90.0,7.0,90.0,1.0,64.0
13085,97.0,2.0,90.0,0.0,64.0
13086,70.0,14.0,60.0,5.0,64.0
13087,70.0,3.0,60.0,8.0,64.0
13088,78.0,1.0,90.0,4.0,64.0
13089,78.0,0.0,90.0,6.0,64.0
13090,66.0,11.0,60.0,10.0,64.0
13091,54.0,6.0,30.0,3.0,64.0
13092,68.0,1.0,60.0,7.0,64.0
13093,64.0,3.0,60.0,10.0,64.0
13094,68.0,65.0,60.0,5.0,64.0
13095,78.0,1.0,90.0,6.0,64.0
13096,66.0,0.0,60.0,5.0,64.0
13097,63.0,1.0,60.0,10.0,64.0
13098,78.0,32.0,120.0,2.0,64.0
13099,66.0,22.0,60.0,7.0,64.0
13100,71.0,8.0,60.0,8.0,64.0
13101,90.0,3.0,120.0,1.0,64.0
13102,54.0,7.0,60.0,3.0,64.0
13103,95.0,2.0,120.0,0.0,64.0
13104,78.0,9.0,90.0,4.0,64.0
13105,75.0,30.0,60.0,8.0,64.0
13106,80.0,5.0,90.0,6.0,64.0
13107,72.0,1.0,60.0,8.0,64.0
13108,80.0,66.0,90.0,4.0,64.0
13109,56.0,31.0,60.0,10.0,64.0
13110,75.0,6.0,30.0,7.0,64.0
13111,75.0,8.0,60.0,5.0,64.0
13112,73.0,0.0,60.0,8.0,64.0
13113,58.0,3.0,60.0,10.0,64.0
13114,60.0,3.0,60.0,10.0,64.0
13115,75.0,31.0,60.0,8.0,64.0
13116,80.0,12.0,90.0,6.0,64.0
13117,80.0,68.0,120.0,4.0,64.0
13118,68.0,7.0,30.0,7.0,64.0
13119,68.0,7.0,60.0,5.0,64.0
13120,77.0,2.0,60.0,8.0,64.0
13121,75.0,21.0,90.0,8.0,64.0
13122,80.0,4.0,90.0,6.0,64.0
13123,72.0,9.0,180.0,5.0,64.0
13124,60.0,14.0,60.0,10.0,64.0
13125,72.0,9.0,150.0,7.0,64.0
13126,80.0,62.0,90.0,4.0,64.0
13127,77.0,11.0,60.0,8.0,64.0
13128,61.0,1.0,60.0,10.0,64.0
13129,63.0,24.0,90.0,10.0,64.0
13130,78.0,2.0,60.0,8.0,64.0
13131,80.0,11.0,90.0,6.0,64.0
13132,80.0,54.0,90.0,4.0,64.0
13133,75.0,6.0,60.0,8.0,64.0
13134,68.0,6.0,60.0,8.0,64.0
13135,80.0,9.0,90.0,6.0,64.0
13136,75.0,8.0,60.0,7.0,64.0
13137,60.0,10.0,60.0,10.0,64.0
13138,92.0,3.0,90.0,0.0,64.0
13139,75.0,21.0,60.0,5.0,64.0
13140,80.0,59.0,90.0,4.0,64.0
13141,61.0,2.0,60.0,10.0,64.0
13142,70.0,8.0,60.0,8.0,64.0
13143,72.0,2.0,60.0,8.0,64.0
13144,63.0,16.0,90.0,10.0,64.0
13145,80.0,4.0,90.0,6.0,64.0
13146,66.0,0.0,60.0,7.0,64.0
13147,92.0,0.0,90.0,0.0,64.0
13148,66.0,20.0,60.0,5.0,64.0
13149,80.0,62.0,90.0,4.0,64.0
13150,73.0,12.0,60.0,8.0,64.0
13151,72.0,4.0,60.0,8.0,64.0
13152,80.0,1.0,90.0,6.0,64.0
13153,63.0,36.0,60.0,10.0,64.0
13154,72.0,1.0,180.0,5.0,64.0
13155,72.0,3.0,180.0,7.0,64.0
13156,80.0,0.0,90.0,4.0,64.0
13157,92.0,5.0,90.0,0.0,64.0
13158,65.0,14.0,60.0,10.0,64.0
13159,73.0,69.0,60.0,8.0,64.0
13160,66.0,4.0,60.0,10.0,64.0
13161,80.0,5.0,90.0,6.0,64.0
13162,75.0,25.0,60.0,8.0,64.0
13163,92.0,7.0,90.0,0.0,64.0
13164,80.0,6.0,90.0,4.0,64.0
13165,73.0,47.0,60.0,8.0,64.0
13166,80.0,6.0,90.0,6.0,64.0
13167,75.0,14.0,30.0,7.0,64.0
13168,72.0,3.0,60.0,8.0,64.0
13169,66.0,28.0,60.0,10.0,64.0
13170,96.0,3.0,90.0,0.0,64.0
13171,54.0,1.0,30.0,3.0,64.0
13172,92.0,1.0,90.0,1.0,64.0
13173,78.0,1.0,90.0,2.0,64.0
13174,80.0,1.0,90.0,4.0,64.0
13175,75.0,3.0,60.0,5.0,64.0
13176,65.0,7.0,60.0,10.0,64.0
13177,73.0,64.0,60.0,8.0,64.0
13178,66.0,14.0,90.0,10.0,64.0
13179,68.0,6.0,60.0,7.0,64.0
13180,80.0,2.0,90.0,4.0,64.0
13181,68.0,7.0,60.0,5.0,64.0
13182,80.0,21.0,90.0,6.0,64.0
13183,75.0,5.0,60.0,8.0,64.0
13184,92.0,4.0,90.0,1.0,64.0
13185,54.0,5.0,60.0,3.0,64.0
13186,78.0,0.0,90.0,2.0,64.0
13187,96.0,1.0,90.0,0.0,64.0
13188,73.0,36.0,60.0,8.0,64.0
13189,72.0,18.0,60.0,8.0,64.0
13190,72.0,8.0,30.0,5.0,64.0
13191,68.0,13.0,60.0,10.0,64.0
13192,80.0,2.0,90.0,6.0,64.0
13193,80.0,0.0,90.0,4.0,64.0
13194,72.0,9.0,30.0,7.0,64.0
13195,78.0,1.0,90.0,2.0,64.0
13196,99.0,11.0,90.0,0.0,64.0
13197,92.0,3.0,60.0,1.0,64.0
13198,54.0,1.0,30.0,3.0,64.0
13199,66.0,80.0,60.0,10.0,64.0
13200,70.0,6.0,60.0,8.0,64.0
13201,80.0,5.0,60.0,6.0,64.0
13202,68.0,15.0,90.0,8.0,64.0
13203,85.0,9.0,120.0,2.0,64.0
13204,65.0,3.0,60.0,10.0,64.0
13205,80.0,0.0,90.0,4.0,64.0
13206,97.0,1.0,120.0,0.0,64.0
13207,73.0,2.0,60.0,5.0,64.0
13208,92.0,46.0,120.0,1.0,64.0
13209,73.0,1.0,60.0,7.0,64.0
13210,49.0,13.0,60.0,3.0,64.0
13211,85.0,19.0,30.0,5.0,64.0
13212,85.0,0.0,30.0,7.0,64.0
13213,73.0,2.0,120.0,8.0,64.0
13214,77.0,9.0,60.0,7.0,64.0
13215,68.0,3.0,60.0,10.0,64.0
13216,73.0,1.0,60.0,4.0,64.0
13217,73.0,3.0,60.0,6.0,64.0
13218,77.0,21.0,60.0,5.0,64.0
13219,75.0,3.0,60.0,6.0,64.0
13220,75.0,7.0,60.0,4.0,64.0
13221,78.0,0.0,60.0,7.0,64.0
13222,78.0,60.0,30.0,5.0,64.0
13223,77.0,9.0,60.0,6.0,64.0
13224,77.0,10.0,60.0,4.0,64.0
13225,80.0,3.0,60.0,7.0,64.0
13226,73.0,13.0,90.0,8.0,64.0
13227,80.0,8.0,60.0,5.0,64.0
13228,61.0,7.0,60.0,10.0,64.0
13229,82.0,14.0,30.0,7.0,64.0
13230,82.0,58.0,60.0,5.0,64.0
13231,80.0,18.0,60.0,7.0,64.0
13232,77.0,5.0,60.0,6.0,64.0
13233,73.0,7.0,90.0,8.0,64.0
13234,77.0,4.0,60.0,4.0,64.0
13235,80.0,4.0,60.0,5.0,64.0
13236,65.0,12.0,180.0,10.0,64.0
13237,78.0,11.0,60.0,6.0,64.0
13238,82.0,1.0,30.0,7.0,64.0
13239,82.0,68.0,30.0,5.0,64.0
13240,78.0,1.0,30.0,4.0,64.0
13241,83.0,5.0,60.0,7.0,64.0
13242,80.0,9.0,60.0,6.0,64.0
13243,73.0,6.0,120.0,8.0,64.0
13244,80.0,10.0,60.0,4.0,64.0
13245,83.0,2.0,60.0,5.0,64.0
13246,80.0,10.0,60.0,7.0,64.0
13247,80.0,61.0,60.0,5.0,64.0
13248,73.0,13.0,60.0,7.0,64.0
13249,73.0,12.0,90.0,8.0,64.0
13250,77.0,5.0,60.0,6.0,64.0
13251,68.0,0.0,60.0,10.0,64.0
13252,77.0,2.0,60.0,4.0,64.0
13253,73.0,18.0,60.0,5.0,64.0
13254,75.0,53.0,60.0,7.0,64.0
13255,78.0,5.0,60.0,6.0,64.0
13256,78.0,8.0,60.0,4.0,64.0
13257,75.0,0.0,60.0,5.0,64.0
13258,77.0,2.0,60.0,7.0,64.0
13259,73.0,6.0,90.0,8.0,64.0
13260,80.0,1.0,60.0,6.0,64.0
13261,80.0,14.0,60.0,4.0,64.0
13262,77.0,22.0,60.0,5.0,64.0
13263,59.0,2.0,60.0,10.0,64.0
13264,78.0,22.0,60.0,7.0,64.0
13265,78.0,47.0,60.0,5.0,64.0
13266,77.0,18.0,60.0,7.0,64.0
13267,73.0,8.0,90.0,8.0,64.0
13268,77.0,7.0,60.0,5.0,64.0
13269,80.0,0.0,60.0,4.0,64.0
13270,80.0,7.0,60.0,6.0,64.0
13271,65.0,3.0,180.0,10.0,64.0
13272,78.0,14.0,30.0,7.0,64.0
13273,82.0,1.0,30.0,4.0,64.0
13274,78.0,5.0,30.0,5.0,64.0
13275,82.0,70.0,30.0,6.0,64.0
13276,73.0,28.0,90.0,8.0,64.0
13277,80.0,4.0,60.0,7.0,64.0
13278,83.0,4.0,60.0,4.0,64.0
13279,80.0,1.0,60.0,5.0,64.0
13280,83.0,13.0,60.0,6.0,64.0
13281,78.0,5.0,60.0,7.0,64.0
13282,78.0,47.0,60.0,5.0,64.0
13283,73.0,17.0,90.0,8.0,64.0
13284,77.0,4.0,60.0,7.0,64.0
13285,83.0,10.0,30.0,4.0,64.0
13286,68.0,9.0,60.0,10.0,64.0
13287,77.0,1.0,60.0,5.0,64.0
13288,83.0,10.0,30.0,6.0,64.0
13289,82.0,3.0,60.0,6.0,64.0
13290,82.0,10.0,30.0,4.0,64.0
13291,78.0,71.0,60.0,5.0,64.0
13292,78.0,9.0,30.0,7.0,64.0
13293,83.0,5.0,60.0,4.0,64.0
13294,73.0,30.0,90.0,8.0,64.0
13295,83.0,0.0,60.0,6.0,64.0
13296,80.0,18.0,60.0,7.0,64.0
13297,61.0,4.0,60.0,10.0,64.0
13298,80.0,4.0,60.0,5.0,64.0
13299,78.0,7.0,60.0,7.0,64.0
13300,78.0,47.0,60.0,5.0,64.0
13301,77.0,2.0,60.0,7.0,64.0
13302,73.0,14.0,90.0,8.0,64.0
13303,65.0,9.0,60.0,10.0,64.0
13304,85.0,4.0,60.0,6.0,64.0
13305,77.0,1.0,60.0,5.0,64.0
13306,85.0,9.0,60.0,4.0,64.0
13307,75.0,0.0,60.0,7.0,64.0
13308,83.0,14.0,30.0,6.0,64.0
13309,75.0,73.0,60.0,5.0,64.0
13310,83.0,7.0,30.0,4.0,64.0
13311,82.0,8.0,90.0,6.0,64.0
13312,73.0,9.0,90.0,8.0,64.0
13313,73.0,7.0,60.0,7.0,64.0
13314,82.0,59.0,90.0,4.0,64.0
13315,73.0,2.0,60.0,5.0,64.0
13316,54.0,3.0,60.0,10.0,64.0
13317,66.0,13.0,60.0,8.0,64.0
13318,82.0,8.0,30.0,6.0,64.0
13319,70.0,6.0,60.0,7.0,64.0
13320,66.0,19.0,60.0,10.0,64.0
13321,70.0,6.0,30.0,5.0,64.0
13322,82.0,3.0,30.0,4.0,64.0
13323,80.0,13.0,30.0,6.0,64.0
13324,68.0,52.0,60.0,8.0,64.0
13325,80.0,17.0,30.0,4.0,64.0
13326,82.0,30.0,90.0,6.0,64.0
13327,66.0,4.0,60.0,8.0,64.0
13328,59.0,23.0,60.0,10.0,64.0
13329,75.0,11.0,270.0,7.0,64.0
13330,75.0,11.0,270.0,5.0,64.0
13331,82.0,2.0,90.0,4.0,64.0
13332,65.0,46.0,60.0,8.0,64.0
13333,63.0,2.0,60.0,8.0,64.0
13334,63.0,32.0,60.0,10.0,64.0
13335,83.0,19.0,30.0,6.0,64.0
13336,83.0,6.0,30.0,4.0,64.0
13337,82.0,1.0,30.0,6.0,64.0
13338,82.0,60.0,30.0,4.0,64.0
13339,66.0,1.0,30.0,8.0,64.0
13340,80.0,12.0,120.0,6.0,64.0
13341,80.0,10.0,90.0,4.0,64.0
13342,65.0,8.0,60.0,8.0,64.0
13343,53.0,26.0,60.0,10.0,64.0
13344,66.0,46.0,60.0,8.0,64.0
13345,65.0,12.0,30.0,8.0,64.0
13346,65.0,1.0,60.0,10.0,64.0
13347,80.0,5.0,60.0,4.0,64.0
13348,80.0,13.0,60.0,6.0,64.0
13349,74.0,1.0,60.0,5.0,64.0
13350,74.0,33.0,60.0,7.0,64.0
13351,63.0,1.0,60.0,8.0,64.0
13352,78.0,4.0,60.0,6.0,64.0
13353,75.0,6.0,60.0,5.0,64.0
13354,78.0,0.0,30.0,4.0,64.0
13355,75.0,65.0,60.0,7.0,64.0
13356,62.0,10.0,60.0,8.0,64.0
13357,80.0,19.0,90.0,6.0,64.0
13358,77.0,3.0,60.0,5.0,64.0
13359,77.0,14.0,60.0,7.0,64.0
13360,80.0,6.0,120.0,4.0,64.0
13361,58.0,9.0,60.0,10.0,64.0
13362,75.0,44.0,60.0,5.0,64.0
13363,75.0,0.0,60.0,7.0,64.0
13364,74.0,3.0,60.0,5.0,64.0
13365,65.0,9.0,30.0,8.0,64.0
13366,74.0,2.0,60.0,7.0,64.0
13367,62.0,26.0,60.0,10.0,64.0
13368,82.0,0.0,60.0,6.0,64.0
13369,82.0,8.0,30.0,4.0,64.0
13370,80.0,1.0,30.0,6.0,64.0
13371,72.0,8.0,30.0,5.0,64.0
13372,72.0,13.0,30.0,7.0,64.0
13373,80.0,68.0,60.0,4.0,64.0
13374,78.0,3.0,90.0,6.0,64.0
13375,70.0,0.0,60.0,5.0,64.0
13376,70.0,3.0,60.0,7.0,64.0
13377,78.0,15.0,90.0,4.0,64.0
13378,66.0,10.0,60.0,8.0,64.0
13379,51.0,15.0,60.0,10.0,64.0
13380,82.0,4.0,60.0,5.0,64.0
13381,82.0,61.0,60.0,7.0,64.0
13382,63.0,19.0,60.0,10.0,64.0
13383,78.0,8.0,60.0,6.0,64.0
13384,70.0,3.0,60.0,8.0,64.0
13385,75.0,4.0,60.0,5.0,64.0
13386,75.0,3.0,60.0,7.0,64.0
13387,78.0,1.0,90.0,1.0,64.0
13388,90.0,3.0,30.0,0.0,64.0
13389,78.0,4.0,60.0,4.0,64.0
13390,80.0,9.0,30.0,6.0,64.0
13391,92.0,6.0,30.0,0.0,64.0
13392,80.0,5.0,60.0,4.0,64.0
13393,77.0,45.0,60.0,5.0,64.0
13394,77.0,5.0,30.0,7.0,64.0
13395,82.0,5.0,60.0,6.0,64.0
13396,94.0,2.0,60.0,0.0,64.0
13397,82.0,2.0,60.0,4.0,64.0
13398,78.0,23.0,60.0,7.0,64.0
13399,78.0,13.0,60.0,5.0,64.0
13400,78.0,3.0,90.0,1.0,64.0
13401,61.0,1.0,60.0,10.0,64.0
13402,63.0,8.0,30.0,8.0,64.0
13403,80.0,39.0,30.0,5.0,64.0
13404,80.0,4.0,30.0,7.0,64.0
13405,78.0,6.0,60.0,7.0,64.0
13406,59.0,13.0,90.0,10.0,64.0
13407,78.0,6.0,90.0,1.0,64.0
13408,94.0,1.0,60.0,0.0,64.0
13409,78.0,3.0,60.0,5.0,64.0
13410,82.0,5.0,60.0,6.0,64.0
13411,66.0,20.0,180.0,8.0,64.0
13412,68.0,29.0,15.0,8.0,64.0
13413,82.0,16.0,60.0,4.0,64.0
13414,95.0,2.0,60.0,0.0,64.0
13415,80.0,63.0,60.0,7.0,64.0
13416,83.0,2.0,30.0,6.0,64.0
13417,83.0,4.0,30.0,4.0,64.0
13418,80.0,4.0,60.0,5.0,64.0
13419,85.0,3.0,60.0,6.0,64.0
13420,82.0,10.0,60.0,7.0,64.0
13421,58.0,2.0,90.0,10.0,64.0
13422,97.0,1.0,60.0,0.0,64.0
13423,78.0,4.0,90.0,1.0,64.0
13424,85.0,8.0,60.0,4.0,64.0
13425,82.0,2.0,60.0,5.0,64.0
13426,85.0,6.0,30.0,7.0,64.0
13427,85.0,52.0,30.0,5.0,64.0
13428,78.0,17.0,60.0,7.0,64.0
13429,82.0,4.0,60.0,6.0,64.0
13430,78.0,0.0,60.0,5.0,64.0
13431,63.0,2.0,60.0,10.0,64.0
13432,78.0,18.0,60.0,8.0,64.0
13433,82.0,5.0,30.0,4.0,64.0
13434,78.0,4.0,90.0,1.0,64.0
13435,94.0,2.0,30.0,0.0,64.0
13436,78.0,0.0,90.0,2.0,64.0
13437,83.0,4.0,30.0,6.0,64.0
13438,80.0,73.0,60.0,7.0,64.0
13439,80.0,2.0,30.0,5.0,64.0
13440,83.0,1.0,60.0,4.0,64.0
13441,95.0,0.0,30.0,0.0,64.0
13442,85.0,6.0,60.0,6.0,64.0
13443,82.0,3.0,60.0,5.0,64.0
13444,82.0,0.0,60.0,7.0,64.0
13445,78.0,1.0,90.0,8.0,64.0
13446,61.0,14.0,60.0,10.0,64.0
13447,85.0,4.0,90.0,4.0,64.0
13448,78.0,62.0,90.0,1.0,64.0
13449,97.0,8.0,60.0,0.0,64.0
13450,78.0,2.0,90.0,2.0,64.0
13451,83.0,0.0,60.0,5.0,64.0
13452,83.0,2.0,30.0,7.0,64.0
13453,82.0,4.0,60.0,5.0,64.0
13454,82.0,3.0,60.0,7.0,64.0
13455,85.0,3.0,60.0,6.0,64.0
13456,78.0,0.0,90.0,8.0,64.0
13457,59.0,24.0,60.0,10.0,64.0
13458,97.0,3.0,60.0,0.0,64.0
13459,78.0,0.0,90.0,1.0,64.0
13460,85.0,10.0,60.0,4.0,64.0
13461,78.0,5.0,90.0,2.0,64.0
13462,87.0,2.0,30.0,6.0,64.0
13463,83.0,0.0,60.0,5.0,64.0
13464,83.0,4.0,60.0,7.0,64.0
13465,87.0,70.0,30.0,4.0,64.0
13466,99.0,1.0,30.0,0.0,64.0
13467,88.0,14.0,60.0,6.0,64.0
13468,85.0,1.0,60.0,7.0,64.0
13469,85.0,8.0,90.0,5.0,64.0
13470,78.0,4.0,90.0,8.0,64.0
13471,88.0,15.0,60.0,4.0,64.0
13472,58.0,1.0,60.0,10.0,64.0
13473,100.0,6.0,60.0,0.0,64.0
13474,78.0,2.0,90.0,1.0,64.0
13475,78.0,2.0,90.0,2.0,64.0
13476,83.0,59.0,60.0,7.0,64.0
13477,78.0,0.0,90.0,8.0,64.0
13478,82.0,4.0,60.0,7.0,64.0
13479,61.0,25.0,60.0,10.0,64.0
13480,88.0,0.0,60.0,6.0,64.0
13481,100.0,1.0,30.0,0.0,64.0
13482,94.0,1.0,30.0,1.0,64.0
13483,83.0,1.0,90.0,5.0,64.0
13484,88.0,8.0,60.0,4.0,64.0
13485,78.0,3.0,90.0,2.0,64.0
13486,54.0,9.0,30.0,3.0,64.0
13487,87.0,0.0,60.0,6.0,64.0
13488,83.0,0.0,60.0,7.0,64.0
13489,95.0,1.0,30.0,1.0,64.0
13490,99.0,14.0,30.0,0.0,64.0
13491,87.0,50.0,60.0,4.0,64.0
13492,78.0,8.0,90.0,8.0,64.0
13493,97.0,3.0,90.0,1.0,64.0
13494,88.0,2.0,60.0,6.0,64.0
13495,85.0,3.0,60.0,7.0,64.0
13496,54.0,1.0,60.0,10.0,64.0
13497,82.0,6.0,60.0,2.0,64.0
13498,54.0,19.0,30.0,3.0,64.0
13499,82.0,30.0,90.0,5.0,64.0
13500,88.0,5.0,60.0,4.0,64.0
13501,100.0,1.0,60.0,0.0,64.0
13502,83.0,32.0,60.0,7.0,64.0
13503,82.0,5.0,60.0,7.0,64.0
13504,73.0,1.0,90.0,8.0,64.0
13505,80.0,8.0,90.0,5.0,64.0
13506,99.0,7.0,30.0,1.0,64.0
13507,54.0,13.0,30.0,3.0,64.0
13508,90.0,4.0,60.0,6.0,64.0
13509,78.0,7.0,60.0,2.0,64.0
13510,58.0,3.0,60.0,10.0,64.0
13511,90.0,1.0,60.0,4.0,64.0
13512,102.0,4.0,30.0,0.0,64.0
13513,80.0,64.0,60.0,7.0,64.0
13514,97.0,12.0,30.0,1.0,64.0
13515,88.0,2.0,30.0,6.0,64.0
13516,88.0,8.0,30.0,4.0,64.0
13517,100.0,2.0,30.0,0.0,64.0
13518,75.0,0.0,120.0,8.0,64.0
13519,78.0,3.0,60.0,7.0,64.0
13520,87.0,3.0,60.0,6.0,64.0
13521,95.0,15.0,120.0,1.0,64.0
13522,47.0,1.0,60.0,10.0,64.0
13523,54.0,24.0,60.0,3.0,64.0
13524,78.0,4.0,60.0,5.0,64.0
13525,90.0,2.0,120.0,2.0,64.0
13526,87.0,10.0,60.0,4.0,64.0
13527,99.0,24.0,120.0,0.0,64.0
13528,83.0,11.0,60.0,6.0,64.0
13529,83.0,13.0,30.0,4.0,64.0
13530,75.0,11.0,60.0,7.0,64.0
13531,80.0,10.0,60.0,6.0,64.0
13532,75.0,12.0,90.0,8.0,64.0
13533,59.0,24.0,60.0,10.0,64.0
13534,75.0,7.0,60.0,5.0,64.0
13535,80.0,1.0,60.0,4.0,64.0
13536,82.0,3.0,60.0,6.0,64.0
13537,82.0,61.0,60.0,4.0,64.0
13538,83.0,7.0,60.0,6.0,64.0
13539,53.0,23.0,60.0,10.0,64.0
13540,75.0,11.0,90.0,8.0,64.0
13541,80.0,2.0,270.0,7.0,64.0
13542,80.0,10.0,270.0,5.0,64.0
13543,83.0,7.0,60.0,4.0,64.0
13544,85.0,7.0,30.0,6.0,64.0
13545,85.0,44.0,30.0,4.0,64.0
13546,82.0,14.0,30.0,6.0,64.0
13547,75.0,10.0,90.0,8.0,64.0
13548,82.0,12.0,60.0,4.0,64.0
13549,56.0,21.0,60.0,10.0,64.0
13550,99.0,2.0,60.0,0.0,64.0
13551,92.0,1.0,60.0,2.0,64.0
13552,95.0,5.0,60.0,1.0,64.0
13553,83.0,3.0,30.0,6.0,64.0
13554,83.0,57.0,30.0,4.0,64.0
13555,85.0,3.0,60.0,6.0,64.0
13556,73.0,5.0,90.0,8.0,64.0
13557,46.0,19.0,60.0,10.0,64.0
13558,97.0,7.0,120.0,0.0,64.0
13559,85.0,12.0,60.0,4.0,64.0
13560,94.0,4.0,150.0,1.0,64.0
13561,49.0,10.0,60.0,3.0,64.0
13562,92.0,18.0,120.0,2.0,64.0
13563,82.0,4.0,60.0,6.0,64.0
13564,82.0,31.0,30.0,4.0,64.0
13565,58.0,38.0,60.0,10.0,64.0
13566,73.0,12.0,90.0,8.0,64.0
13567,78.0,1.0,60.0,6.0,64.0
13568,73.0,2.0,30.0,5.0,64.0
13569,78.0,1.0,60.0,4.0,64.0
13570,73.0,2.0,30.0,7.0,64.0
13571,80.0,0.0,60.0,6.0,64.0
13572,80.0,79.0,30.0,4.0,64.0
13573,73.0,14.0,90.0,8.0,64.0
13574,51.0,5.0,60.0,10.0,64.0
13575,82.0,16.0,60.0,6.0,64.0
13576,82.0,5.0,60.0,4.0,64.0
13577,78.0,2.0,300.0,5.0,64.0
13578,78.0,2.0,270.0,7.0,64.0
13579,83.0,59.0,30.0,6.0,64.0
13580,83.0,2.0,30.0,4.0,64.0
13581,73.0,3.0,120.0,8.0,64.0
13582,54.0,27.0,60.0,10.0,64.0
13583,97.0,7.0,60.0,0.0,64.0
13584,80.0,1.0,30.0,6.0,64.0
13585,80.0,16.0,30.0,4.0,64.0
13586,90.0,4.0,60.0,2.0,64.0
13587,94.0,4.0,60.0,1.0,64.0
13588,82.0,2.0,30.0,6.0,64.0
13589,82.0,60.0,30.0,4.0,64.0
13590,71.0,3.0,120.0,8.0,64.0
13591,83.0,3.0,60.0,6.0,64.0
13592,95.0,11.0,30.0,0.0,64.0
13593,44.0,2.0,60.0,10.0,64.0
13594,83.0,14.0,60.0,4.0,64.0
13595,90.0,13.0,90.0,2.0,64.0
13596,92.0,9.0,60.0,1.0,64.0
13597,82.0,5.0,60.0,6.0,64.0
13598,94.0,2.0,30.0,0.0,64.0
13599,82.0,42.0,30.0,4.0,64.0
13600,80.0,4.0,30.0,6.0,64.0
13601,92.0,12.0,30.0,0.0,64.0
13602,49.0,0.0,60.0,10.0,64.0
13603,73.0,2.0,90.0,8.0,64.0
13604,77.0,2.0,60.0,7.0,64.0
13605,85.0,1.0,60.0,2.0,64.0
13606,97.0,2.0,60.0,1.0,64.0
13607,77.0,19.0,60.0,5.0,64.0
13608,80.0,13.0,30.0,4.0,64.0
13609,49.0,2.0,60.0,3.0,64.0
13610,83.0,5.0,30.0,6.0,64.0
13611,95.0,8.0,30.0,0.0,64.0
13612,83.0,65.0,30.0,4.0,64.0
13613,73.0,9.0,90.0,8.0,64.0
13614,54.0,6.0,60.0,10.0,64.0
13615,78.0,5.0,30.0,7.0,64.0
13616,82.0,3.0,60.0,6.0,64.0
13617,78.0,5.0,60.0,5.0,64.0
13618,85.0,2.0,60.0,2.0,64.0
13619,94.0,0.0,60.0,0.0,64.0
13620,97.0,0.0,30.0,1.0,64.0
13621,54.0,2.0,30.0,3.0,64.0
13622,82.0,20.0,60.0,4.0,64.0
13623,77.0,2.0,60.0,7.0,64.0
13624,80.0,7.0,60.0,6.0,64.0
13625,77.0,3.0,60.0,5.0,64.0
13626,92.0,1.0,30.0,0.0,64.0
13627,80.0,43.0,30.0,4.0,64.0
13628,75.0,1.0,60.0,7.0,64.0
13629,78.0,5.0,30.0,6.0,64.0
13630,73.0,3.0,90.0,8.0,64.0
13631,42.0,4.0,60.0,10.0,64.0
13632,75.0,3.0,60.0,5.0,64.0
13633,90.0,6.0,30.0,0.0,64.0
13634,78.0,0.0,30.0,4.0,64.0
13635,97.0,0.0,30.0,1.0,64.0
13636,85.0,25.0,60.0,2.0,64.0
13637,54.0,4.0,30.0,3.0,64.0
13638,78.0,6.0,30.0,7.0,64.0
13639,82.0,7.0,30.0,6.0,64.0
13640,78.0,5.0,60.0,5.0,64.0
13641,82.0,52.0,30.0,4.0,64.0
13642,94.0,3.0,30.0,0.0,64.0
13643,77.0,15.0,60.0,7.0,64.0
13644,73.0,8.0,90.0,8.0,64.0
13645,77.0,5.0,60.0,5.0,64.0
13646,80.0,21.0,60.0,6.0,64.0
13647,49.0,11.0,90.0,10.0,64.0
13648,97.0,16.0,120.0,1.0,64.0
13649,80.0,1.0,60.0,4.0,64.0
13650,92.0,2.0,120.0,0.0,64.0
13651,85.0,1.0,120.0,2.0,64.0
13652,49.0,5.0,60.0,3.0,64.0
13653,85.0,4.0,60.0,6.0,64.0
13654,85.0,28.0,30.0,4.0,64.0
13655,80.0,14.0,30.0,7.0,64.0
13656,80.0,2.0,30.0,5.0,64.0
13657,73.0,58.0,90.0,8.0,64.0
13658,77.0,5.0,60.0,6.0,64.0
13659,49.0,35.0,60.0,10.0,64.0
13660,77.0,2.0,60.0,4.0,64.0
13661,51.0,4.0,60.0,10.0,64.0
13662,78.0,4.0,30.0,4.0,64.0
13663,78.0,0.0,60.0,6.0,64.0
13664,53.0,4.0,60.0,10.0,64.0
13665,80.0,3.0,60.0,4.0,64.0
13666,73.0,8.0,30.0,7.0,64.0
13667,73.0,6.0,60.0,5.0,64.0
13668,73.0,6.0,90.0,8.0,64.0
13669,80.0,32.0,60.0,6.0,64.0
13670,82.0,9.0,60.0,6.0,64.0
13671,82.0,61.0,60.0,4.0,64.0
13672,80.0,15.0,60.0,6.0,64.0
13673,53.0,11.0,60.0,10.0,64.0
13674,77.0,4.0,150.0,7.0,64.0
13675,80.0,10.0,60.0,4.0,64.0
13676,73.0,16.0,90.0,8.0,64.0
13677,77.0,15.0,150.0,5.0,64.0
13678,54.0,5.0,60.0,10.0,64.0
13679,82.0,1.0,60.0,6.0,64.0
13680,82.0,57.0,30.0,4.0,64.0
13681,73.0,9.0,90.0,8.0,64.0
13682,56.0,5.0,60.0,10.0,64.0
13683,83.0,6.0,60.0,6.0,64.0
13684,83.0,17.0,60.0,4.0,64.0
13685,80.0,53.0,60.0,6.0,64.0
13686,80.0,7.0,30.0,4.0,64.0
13687,53.0,4.0,60.0,10.0,64.0
13688,73.0,6.0,90.0,8.0,64.0
13689,80.0,5.0,30.0,7.0,64.0
13690,73.0,33.0,60.0,6.0,64.0
13691,73.0,1.0,60.0,4.0,64.0
13692,80.0,11.0,30.0,5.0,64.0
13693,85.0,9.0,90.0,0.0,64.0
13694,54.0,2.0,30.0,10.0,64.0
13695,75.0,2.0,60.0,6.0,64.0
13696,75.0,52.0,60.0,4.0,64.0
13697,56.0,5.0,60.0,10.0,64.0
13698,73.0,2.0,90.0,8.0,64.0
13699,71.0,4.0,60.0,7.0,64.0
13700,77.0,4.0,60.0,6.0,64.0
13701,77.0,29.0,60.0,4.0,64.0
13702,71.0,6.0,60.0,5.0,64.0
13703,85.0,5.0,90.0,0.0,64.0
13704,78.0,7.0,30.0,6.0,64.0
13705,78.0,67.0,30.0,4.0,64.0
13706,73.0,6.0,90.0,8.0,64.0
13707,77.0,25.0,60.0,6.0,64.0
13708,77.0,9.0,60.0,4.0,64.0
13709,56.0,3.0,60.0,10.0,64.0
13710,77.0,30.0,180.0,5.0,64.0
13711,85.0,1.0,90.0,0.0,64.0
13712,77.0,2.0,180.0,7.0,64.0
13713,58.0,3.0,30.0,10.0,64.0
13714,78.0,79.0,30.0,4.0,64.0
13715,78.0,2.0,30.0,6.0,64.0
13716,59.0,0.0,60.0,10.0,64.0
13717,73.0,0.0,90.0,8.0,64.0
13718,80.0,7.0,60.0,6.0,64.0
13719,80.0,1.0,60.0,4.0,64.0
13720,85.0,11.0,90.0,0.0,64.0
13721,78.0,2.0,60.0,6.0,64.0
13722,78.0,48.0,60.0,4.0,64.0
13723,77.0,1.0,60.0,6.0,64.0
13724,59.0,4.0,60.0,10.0,64.0
13725,77.0,8.0,30.0,4.0,64.0
13726,73.0,0.0,90.0,8.0,64.0
13727,85.0,65.0,90.0,2.0,64.0
13728,80.0,3.0,30.0,7.0,64.0
13729,92.0,0.0,90.0,0.0,64.0
13730,80.0,39.0,30.0,5.0,64.0
13731,49.0,1.0,30.0,3.0,64.0
13732,85.0,4.0,60.0,1.0,64.0
13733,58.0,0.0,60.0,10.0,64.0
13734,78.0,4.0,60.0,4.0,64.0
13735,78.0,5.0,60.0,6.0,64.0
13736,59.0,0.0,60.0,10.0,64.0
13737,80.0,2.0,60.0,4.0,64.0
13738,80.0,2.0,60.0,6.0,64.0
13739,92.0,15.0,90.0,0.0,64.0
13740,73.0,4.0,60.0,7.0,64.0
13741,85.0,8.0,90.0,2.0,64.0
13742,73.0,15.0,60.0,5.0,64.0
13743,73.0,1.0,90.0,8.0,64.0
13744,85.0,6.0,90.0,1.0,64.0
13745,49.0,4.0,30.0,3.0,64.0
13746,83.0,4.0,60.0,6.0,64.0
13747,83.0,55.0,60.0,4.0,64.0
13748,82.0,4.0,60.0,6.0,64.0
13749,61.0,1.0,60.0,10.0,64.0
13750,97.0,1.0,60.0,0.0,64.0
13751,73.0,3.0,90.0,8.0,64.0
13752,82.0,5.0,60.0,4.0,64.0
13753,77.0,0.0,60.0,5.0,64.0
13754,77.0,0.0,60.0,7.0,64.0
13755,92.0,26.0,60.0,1.0,64.0
13756,85.0,2.0,60.0,2.0,64.0
13757,49.0,3.0,30.0,3.0,64.0
13758,59.0,5.0,30.0,10.0,64.0
13759,80.0,5.0,30.0,6.0,64.0
13760,80.0,65.0,30.0,4.0,64.0
13761,58.0,1.0,90.0,10.0,64.0
13762,73.0,21.0,90.0,8.0,64.0
13763,85.0,3.0,60.0,6.0,64.0
13764,97.0,11.0,120.0,0.0,64.0
13765,78.0,1.0,60.0,7.0,64.0
13766,78.0,14.0,60.0,5.0,64.0
13767,85.0,11.0,60.0,4.0,64.0
13768,78.0,20.0,120.0,2.0,64.0
13769,54.0,3.0,60.0,3.0,64.0
13770,94.0,9.0,90.0,1.0,64.0
13771,83.0,15.0,60.0,6.0,64.0
13772,83.0,2.0,60.0,4.0,64.0
13773,58.0,4.0,30.0,10.0,64.0
13774,82.0,4.0,30.0,6.0,64.0
13775,73.0,0.0,60.0,7.0,64.0
13776,82.0,26.0,60.0,4.0,64.0
13777,66.0,13.0,60.0,8.0,64.0
13778,73.0,2.0,30.0,5.0,64.0
13779,97.0,2.0,30.0,1.0,64.0
13780,56.0,8.0,30.0,10.0,64.0
13781,83.0,2.0,30.0,6.0,64.0
13782,83.0,64.0,30.0,4.0,64.0
13783,95.0,1.0,30.0,1.0,64.0
13784,58.0,23.0,90.0,10.0,64.0
13785,85.0,7.0,60.0,6.0,64.0
13786,85.0,1.0,60.0,4.0,64.0
13787,70.0,9.0,60.0,8.0,64.0
13788,94.0,17.0,60.0,1.0,64.0
13789,78.0,5.0,270.0,5.0,64.0
13790,78.0,8.0,270.0,7.0,64.0
13791,82.0,3.0,60.0,4.0,64.0
13792,82.0,46.0,60.0,6.0,64.0
13793,78.0,21.0,90.0,6.0,64.0
13794,78.0,2.0,60.0,4.0,64.0
13795,75.0,17.0,60.0,8.0,64.0
13796,99.0,16.0,30.0,0.0,64.0
13797,90.0,3.0,60.0,1.0,64.0
13798,59.0,1.0,30.0,10.0,64.0
13799,82.0,4.0,30.0,6.0,64.0
13800,82.0,1.0,60.0,4.0,64.0
13801,97.0,1.0,30.0,0.0,64.0
13802,58.0,60.0,30.0,10.0,64.0
13803,83.0,1.0,60.0,6.0,64.0
13804,56.0,28.0,60.0,10.0,64.0
13805,83.0,16.0,60.0,4.0,64.0
13806,95.0,0.0,120.0,0.0,64.0
13807,92.0,6.0,90.0,1.0,64.0
13808,75.0,11.0,120.0,8.0,64.0
13809,82.0,9.0,60.0,6.0,64.0
13810,82.0,31.0,60.0,4.0,64.0
13811,80.0,23.0,60.0,6.0,64.0
13812,80.0,3.0,60.0,4.0,64.0
13813,56.0,2.0,60.0,10.0,64.0
13814,71.0,5.0,60.0,7.0,64.0
13815,95.0,12.0,30.0,1.0,64.0
13816,77.0,5.0,60.0,5.0,64.0
13817,77.0,2.0,60.0,8.0,64.0
13818,54.0,1.0,60.0,10.0,64.0
13819,82.0,4.0,30.0,6.0,64.0
13820,82.0,5.0,30.0,4.0,64.0
13821,94.0,3.0,30.0,1.0,64.0
13822,78.0,67.0,30.0,8.0,64.0
13823,56.0,6.0,60.0,10.0,64.0
13824,77.0,2.0,60.0,8.0,64.0
13825,83.0,3.0,60.0,6.0,64.0
13826,92.0,2.0,60.0,1.0,64.0
13827,68.0,27.0,60.0,7.0,64.0
13828,80.0,1.0,60.0,5.0,64.0
13829,83.0,3.0,60.0,4.0,64.0
13830,87.0,20.0,30.0,6.0,64.0
13831,87.0,47.0,60.0,4.0,64.0
13832,85.0,2.0,60.0,6.0,64.0
13833,73.0,1.0,60.0,8.0,64.0
13834,85.0,5.0,60.0,4.0,64.0
13835,92.0,3.0,60.0,2.0,64.0
13836,58.0,0.0,60.0,10.0,64.0
13837,77.0,2.0,60.0,7.0,64.0
13838,77.0,23.0,60.0,5.0,64.0
13839,85.0,10.0,60.0,1.0,64.0
13840,97.0,3.0,30.0,0.0,64.0
13841,49.0,2.0,60.0,3.0,64.0
13842,83.0,0.0,60.0,6.0,64.0
13843,56.0,3.0,60.0,10.0,64.0
13844,95.0,6.0,30.0,0.0,64.0
13845,83.0,65.0,30.0,4.0,64.0
13846,73.0,9.0,90.0,8.0,64.0
13847,54.0,1.0,60.0,10.0,64.0
13848,82.0,9.0,60.0,6.0,64.0
13849,94.0,4.0,60.0,0.0,64.0
13850,78.0,1.0,60.0,5.0,64.0
13851,78.0,3.0,60.0,7.0,64.0
13852,94.0,67.0,90.0,2.0,64.0
13853,82.0,1.0,60.0,4.0,64.0
13854,54.0,10.0,60.0,3.0,64.0
13855,85.0,15.0,60.0,1.0,64.0
13856,56.0,3.0,60.0,10.0,64.0
13857,58.0,4.0,60.0,10.0,64.0
13858,78.0,4.0,60.0,6.0,64.0
13859,73.0,22.0,60.0,8.0,64.0
13860,73.0,1.0,60.0,5.0,64.0
13861,90.0,4.0,60.0,1.0,64.0
13862,97.0,0.0,60.0,0.0,64.0
13863,73.0,1.0,60.0,7.0,64.0
13864,78.0,10.0,60.0,4.0,64.0
13865,54.0,77.0,60.0,10.0,64.0
13866,59.0,2.0,60.0,10.0,64.0
13867,66.0,2.0,60.0,7.0,64.0
13868,71.0,26.0,60.0,8.0,64.0
13869,75.0,3.0,60.0,6.0,64.0
13870,95.0,67.0,90.0,2.0,64.0
13871,66.0,2.0,60.0,5.0,64.0
13872,99.0,0.0,60.0,0.0,64.0
13873,90.0,1.0,60.0,1.0,64.0
13874,75.0,6.0,60.0,4.0,64.0
13875,54.0,1.0,60.0,3.0,64.0
13876,61.0,1.0,30.0,10.0,64.0
13877,58.0,2.0,60.0,10.0,64.0
13878,75.0,28.0,60.0,8.0,64.0
13879,92.0,2.0,60.0,1.0,64.0
13880,71.0,8.0,30.0,7.0,64.0
13881,78.0,0.0,60.0,5.0,64.0
13882,95.0,6.0,60.0,0.0,64.0
13883,80.0,0.0,60.0,6.0,64.0
13884,80.0,12.0,60.0,4.0,64.0
13885,59.0,77.0,60.0,10.0,64.0
13886,61.0,1.0,60.0,10.0,64.0
13887,73.0,10.0,60.0,8.0,64.0
13888,85.0,1.0,60.0,1.0,64.0
13889,92.0,2.0,120.0,2.0,64.0
13890,68.0,2.0,60.0,7.0,64.0
13891,49.0,0.0,60.0,3.0,64.0
13892,68.0,18.0,270.0,5.0,64.0
13893,77.0,3.0,60.0,4.0,64.0
13894,101.0,3.0,60.0,0.0,64.0
13895,77.0,38.0,60.0,6.0,64.0
13896,65.0,6.0,60.0,7.0,64.0
13897,73.0,4.0,60.0,4.0,64.0
13898,73.0,43.0,60.0,6.0,64.0
13899,59.0,24.0,90.0,10.0,64.0
13900,66.0,4.0,60.0,7.0,64.0
13901,68.0,2.0,60.0,8.0,64.0
13902,75.0,3.0,60.0,4.0,64.0
13903,92.0,10.0,60.0,1.0,64.0
13904,75.0,4.0,60.0,6.0,64.0
13905,97.0,7.0,30.0,0.0,64.0
13906,68.0,6.0,30.0,7.0,64.0
13907,77.0,2.0,30.0,4.0,64.0
13908,77.0,40.0,30.0,6.0,64.0
13909,78.0,5.0,60.0,6.0,64.0
13910,78.0,1.0,60.0,4.0,64.0
13911,94.0,4.0,30.0,1.0,64.0
13912,58.0,0.0,60.0,10.0,64.0
13913,73.0,24.0,60.0,8.0,64.0
13914,85.0,1.0,60.0,2.0,64.0
13915,61.0,5.0,60.0,7.0,64.0
13916,49.0,6.0,30.0,3.0,64.0
13917,102.0,4.0,30.0,0.0,64.0
13918,92.0,9.0,30.0,1.0,64.0
13919,80.0,44.0,60.0,6.0,64.0
13920,80.0,2.0,30.0,4.0,64.0
13921,94.0,14.0,30.0,1.0,64.0
13922,82.0,3.0,60.0,6.0,64.0
13923,56.0,7.0,60.0,10.0,64.0
13924,73.0,21.0,60.0,8.0,64.0
13925,77.0,1.0,60.0,7.0,64.0
13926,82.0,1.0,60.0,4.0,64.0
13927,77.0,4.0,60.0,5.0,64.0
13928,85.0,8.0,60.0,2.0,64.0
13929,95.0,1.0,60.0,0.0,64.0
13930,49.0,1.0,30.0,3.0,64.0
13931,95.0,5.0,30.0,1.0,64.0
13932,83.0,0.0,30.0,6.0,64.0
13933,83.0,68.0,30.0,4.0,64.0
13934,82.0,5.0,60.0,6.0,64.0
13935,54.0,5.0,60.0,10.0,64.0
13936,78.0,3.0,60.0,7.0,64.0
13937,78.0,3.0,60.0,5.0,64.0
13938,73.0,1.0,60.0,8.0,64.0
13939,82.0,1.0,60.0,4.0,64.0
13940,97.0,0.0,120.0,1.0,64.0
13941,85.0,23.0,120.0,2.0,64.0
13942,54.0,36.0,60.0,3.0,64.0
13943,94.0,3.0,120.0,0.0,64.0
13944,80.0,11.0,60.0,6.0,64.0
13945,71.0,1.0,60.0,8.0,64.0
13946,80.0,20.0,60.0,4.0,64.0
13947,70.0,2.0,60.0,8.0,64.0
13948,78.0,9.0,30.0,6.0,64.0
13949,59.0,37.0,60.0,10.0,64.0
13950,75.0,0.0,60.0,5.0,64.0
13951,75.0,4.0,60.0,7.0,64.0
13952,78.0,4.0,60.0,4.0,64.0
13953,71.0,66.0,60.0,8.0,64.0
13954,80.0,9.0,30.0,6.0,64.0
13955,80.0,0.0,30.0,4.0,64.0
13956,68.0,3.0,60.0,8.0,64.0
13957,73.0,5.0,60.0,7.0,64.0
13958,61.0,6.0,60.0,10.0,64.0
13959,73.0,2.0,60.0,5.0,64.0
13960,73.0,2.0,60.0,6.0,64.0
13961,95.0,5.0,120.0,1.0,64.0
13962,92.0,45.0,120.0,0.0,64.0
13963,73.0,9.0,60.0,4.0,64.0
13964,85.0,2.0,120.0,2.0,64.0
13965,49.0,58.0,60.0,3.0,64.0
13966,73.0,3.0,60.0,7.0,64.0
13967,49.0,1.0,60.0,10.0,64.0
13968,68.0,6.0,60.0,8.0,64.0
13969,73.0,100.0,60.0,5.0,64.0
13970,77.0,0.0,60.0,6.0,64.0
13971,77.0,2.0,60.0,4.0,64.0
13972,73.0,11.0,270.0,5.0,64.0
13973,78.0,3.0,120.0,0.0,64.0
13974,54.0,5.0,2160.0,10.0,64.0
13975,73.0,2.0,120.0,7.0,64.0
13976,78.0,2.0,240.0,6.0,64.0
13977,70.0,4.0,240.0,8.0,64.0
13978,94.0,9.0,120.0,1.0,64.0
13979,85.0,3.0,120.0,2.0,64.0
13980,54.0,18.0,20.0,3.0,64.0
13981,78.0,22.0,240.0,4.0,64.0
13982,54.0,29.0,15.0,3.0,64.0
13983,54.0,18.0,20.0,3.0,64.0
13984,54.0,28.0,15.0,3.0,64.0
13985,54.0,28.0,30.0,3.0,64.0
13986,54.0,17.0,15.0,3.0,64.0
13987,66.0,12.0,30.0,7.0,64.0
13988,54.0,22.0,15.0,3.0,64.0
13989,54.0,17.0,15.0,3.0,64.0
13990,54.0,14.0,15.0,3.0,64.0
13991,66.0,2.0,90.0,7.0,64.0
13992,54.0,25.0,30.0,3.0,64.0
13993,80.0,2.0,60.0,6.0,64.0
13994,80.0,2.0,30.0,4.0,64.0
13995,80.0,12.0,30.0,5.0,64.0
13996,54.0,3.0,20.0,3.0,64.0
13997,54.0,36.0,15.0,3.0,64.0
13998,82.0,6.0,60.0,6.0,64.0
13999,82.0,5.0,30.0,4.0,64.0
14000,82.0,0.0,30.0,5.0,64.0
14001,54.0,38.0,30.0,3.0,64.0
14002,78.0,6.0,30.0,4.0,64.0
14003,78.0,0.0,30.0,5.0,64.0
14004,78.0,50.0,30.0,6.0,64.0
14005,70.0,3.0,30.0,7.0,64.0
14006,66.0,2.0,30.0,8.0,64.0
14007,54.0,3.0,30.0,3.0,64.0
14008,73.0,2.0,300.0,4.0,64.0
14009,66.0,0.0,90.0,8.0,64.0
14010,54.0,33.0,30.0,3.0,64.0
14011,70.0,17.0,90.0,7.0,64.0
14012,73.0,17.0,270.0,5.0,64.0
14013,73.0,18.0,300.0,6.0,64.0
14014,82.0,5.0,120.0,0.0,64.0
14015,90.0,3.0,120.0,1.0,64.0
14016,85.0,12.0,150.0,2.0,64.0
14017,54.0,20.0,20.0,3.0,64.0
14018,54.0,13.0,15.0,3.0,64.0
14019,54.0,12.0,15.0,3.0,64.0
14020,54.0,18.0,15.0,3.0,64.0
14021,54.0,22.0,15.0,3.0,64.0
14022,54.0,28.0,15.0,3.0,64.0
14023,73.0,19.0,30.0,7.0,64.0
14024,70.0,4.0,30.0,8.0,64.0
14025,54.0,0.0,15.0,3.0,64.0
14026,54.0,24.0,15.0,3.0,64.0
14027,73.0,3.0,60.0,7.0,64.0
14028,54.0,6.0,15.0,3.0,64.0
14029,70.0,6.0,60.0,8.0,64.0
14030,54.0,6.0,15.0,3.0,64.0
14031,75.0,7.0,30.0,5.0,64.0
14032,54.0,5.0,15.0,3.0,64.0
14033,75.0,6.0,30.0,4.0,64.0
14034,75.0,35.0,30.0,6.0,64.0
14035,54.0,8.0,15.0,3.0,64.0
14036,54.0,7.0,30.0,3.0,64.0
14037,76.0,14.0,30.0,5.0,64.0
14038,76.0,13.0,30.0,4.0,64.0
14039,76.0,2.0,60.0,6.0,64.0
14040,54.0,21.0,15.0,3.0,64.0
14041,73.0,0.0,30.0,5.0,64.0
14042,70.0,13.0,30.0,7.0,64.0
14043,73.0,2.0,30.0,4.0,64.0
14044,54.0,13.0,15.0,3.0,64.0
14045,73.0,14.0,60.0,6.0,64.0
14046,73.0,5.0,30.0,8.0,64.0
14047,54.0,4.0,15.0,3.0,64.0
14048,66.0,1.0,150.0,7.0,64.0
14049,54.0,32.0,15.0,3.0,64.0
14050,85.0,29.0,120.0,0.0,64.0
14051,73.0,13.0,90.0,8.0,64.0
14052,70.0,14.0,270.0,4.0,64.0
14053,70.0,1.0,270.0,5.0,64.0
14054,90.0,2.0,120.0,2.0,64.0
14055,94.0,2.0,120.0,1.0,64.0
14056,70.0,7.0,270.0,6.0,64.0
14057,54.0,19.0,20.0,3.0,64.0
14058,54.0,33.0,15.0,3.0,64.0
14059,54.0,2.0,20.0,3.0,64.0
14060,54.0,19.0,15.0,3.0,64.0
14061,54.0,53.0,30.0,3.0,64.0
14062,54.0,20.0,30.0,3.0,64.0
14063,61.0,2.0,30.0,8.0,64.0
14064,70.0,13.0,30.0,7.0,64.0
14065,54.0,20.0,15.0,3.0,64.0
14066,54.0,10.0,15.0,3.0,64.0
14067,61.0,2.0,90.0,8.0,64.0
14068,70.0,7.0,90.0,7.0,64.0
14069,54.0,25.0,15.0,3.0,64.0
14070,71.0,6.0,30.0,5.0,64.0
14071,71.0,1.0,30.0,6.0,64.0
14072,71.0,6.0,30.0,4.0,64.0
14073,54.0,6.0,20.0,3.0,64.0
14074,54.0,24.0,15.0,3.0,64.0
14075,54.0,24.0,15.0,3.0,64.0
14076,73.0,2.0,30.0,6.0,64.0
14077,73.0,5.0,30.0,4.0,64.0
14078,73.0,12.0,30.0,5.0,64.0
14079,54.0,6.0,15.0,3.0,64.0
14080,54.0,30.0,15.0,3.0,64.0
14081,70.0,3.0,30.0,6.0,64.0
14082,70.0,2.0,30.0,4.0,64.0
14083,66.0,2.0,30.0,8.0,64.0
14084,73.0,2.0,30.0,7.0,64.0
14085,70.0,11.0,30.0,5.0,64.0
14086,54.0,55.0,30.0,3.0,64.0
14087,70.0,4.0,90.0,8.0,64.0
14088,66.0,4.0,300.0,4.0,64.0
14089,73.0,26.0,120.0,7.0,64.0
14090,66.0,20.0,270.0,6.0,64.0
14091,66.0,0.0,300.0,5.0,64.0
14092,94.0,1.0,120.0,2.0,64.0
14093,97.0,4.0,120.0,1.0,64.0
14094,54.0,33.0,30.0,3.0,64.0
14095,90.0,25.0,120.0,0.0,64.0
14096,54.0,21.0,15.0,3.0,64.0
14097,54.0,2.0,15.0,3.0,64.0
14098,54.0,4.0,20.0,3.0,64.0
14099,54.0,27.0,20.0,3.0,64.0
14100,54.0,31.0,15.0,3.0,64.0
14101,73.0,24.0,30.0,8.0,64.0
14102,76.0,1.0,30.0,7.0,64.0
14103,54.0,0.0,20.0,3.0,64.0
14104,54.0,33.0,15.0,3.0,64.0
14105,73.0,24.0,60.0,8.0,64.0
14106,76.0,4.0,60.0,7.0,64.0
14107,54.0,1.0,30.0,3.0,64.0
14108,54.0,22.0,20.0,3.0,64.0
14109,54.0,30.0,15.0,3.0,64.0
14110,68.0,10.0,30.0,6.0,64.0
14111,68.0,2.0,30.0,4.0,64.0
14112,68.0,2.0,30.0,5.0,64.0
14113,54.0,9.0,20.0,3.0,64.0
14114,70.0,3.0,30.0,6.0,64.0
14115,70.0,10.0,30.0,4.0,64.0
14116,54.0,13.0,20.0,3.0,64.0
14117,70.0,1.0,30.0,5.0,64.0
14118,71.0,3.0,30.0,6.0,64.0
14119,54.0,11.0,20.0,3.0,64.0
14120,73.0,8.0,30.0,7.0,64.0
14121,70.0,6.0,30.0,8.0,64.0
14122,71.0,4.0,30.0,5.0,64.0
14123,73.0,2.0,30.0,6.0,64.0
14124,71.0,7.0,30.0,4.0,64.0
14125,54.0,6.0,30.0,3.0,64.0
14126,73.0,5.0,30.0,5.0,64.0
14127,75.0,1.0,30.0,6.0,64.0
14128,73.0,11.0,30.0,4.0,64.0
14129,75.0,4.0,30.0,5.0,64.0
14130,76.0,16.0,90.0,6.0,64.0
14131,75.0,18.0,30.0,4.0,64.0
14132,70.0,0.0,330.0,7.0,64.0
14133,66.0,7.0,90.0,8.0,64.0
14134,76.0,3.0,90.0,5.0,64.0
14135,76.0,107.0,90.0,4.0,64.0
14136,54.0,36.0,30.0,3.0,64.0
14137,61.0,7.0,30.0,8.0,64.0
14138,76.0,3.0,30.0,5.0,64.0
14139,90.0,4.0,30.0,2.0,64.0
14140,76.0,3.0,30.0,4.0,64.0
14141,76.0,38.0,30.0,6.0,64.0
14142,85.0,0.0,30.0,0.0,64.0
14143,94.0,1.0,30.0,1.0,64.0
14144,78.0,0.0,90.0,5.0,64.0
14145,90.0,9.0,60.0,2.0,64.0
14146,61.0,1.0,90.0,8.0,64.0
14147,78.0,6.0,90.0,6.0,64.0
14148,78.0,0.0,90.0,4.0,64.0
14149,54.0,36.0,30.0,3.0,64.0
14150,94.0,3.0,60.0,1.0,64.0
14151,85.0,4.0,60.0,0.0,64.0
14152,54.0,11.0,30.0,3.0,64.0
14153,52.0,48.0,30.0,10.0,64.0
14154,51.0,46.0,30.0,10.0,64.0
14155,54.0,15.0,30.0,3.0,64.0
14156,49.0,0.0,60.0,10.0,64.0
14157,70.0,2.0,30.0,7.0,64.0
14158,85.0,2.0,30.0,0.0,64.0
14159,64.0,4.0,60.0,8.0,64.0
14160,80.0,0.0,30.0,4.0,64.0
14161,94.0,6.0,30.0,2.0,64.0
14162,80.0,1.0,30.0,5.0,64.0
14163,54.0,4.0,30.0,3.0,64.0
14164,97.0,5.0,30.0,1.0,64.0
14165,80.0,55.0,30.0,6.0,64.0
14166,71.0,5.0,90.0,7.0,64.0
14167,66.0,107.0,90.0,8.0,64.0
14168,90.0,4.0,90.0,2.0,64.0
14169,78.0,2.0,90.0,4.0,64.0
14170,51.0,1.0,90.0,10.0,64.0
14171,78.0,4.0,90.0,5.0,64.0
14172,78.0,4.0,90.0,6.0,64.0
14173,90.0,1.0,60.0,0.0,64.0
14174,95.0,0.0,90.0,1.0,64.0
14175,54.0,31.0,30.0,3.0,64.0
14176,68.0,1.0,30.0,8.0,64.0
14177,90.0,1.0,30.0,2.0,64.0
14178,54.0,9.0,30.0,3.0,64.0
14179,76.0,7.0,30.0,4.0,64.0
14180,73.0,1.0,30.0,7.0,64.0
14181,85.0,1.0,30.0,0.0,64.0
14182,76.0,1.0,30.0,5.0,64.0
14183,95.0,2.0,30.0,1.0,64.0
14184,52.0,55.0,30.0,10.0,64.0
14185,76.0,0.0,30.0,6.0,64.0
14186,66.0,2.0,90.0,8.0,64.0
14187,75.0,5.0,90.0,4.0,64.0
14188,75.0,0.0,90.0,6.0,64.0
14189,71.0,0.0,90.0,7.0,64.0
14190,90.0,3.0,60.0,2.0,64.0
14191,95.0,4.0,90.0,1.0,64.0
14192,87.0,115.0,90.0,0.0,64.0
14193,75.0,0.0,90.0,5.0,64.0
14194,54.0,4.0,60.0,10.0,64.0
14195,54.0,34.0,30.0,3.0,64.0
14196,66.0,3.0,30.0,8.0,64.0
14197,73.0,1.0,30.0,4.0,64.0
14198,70.0,10.0,30.0,7.0,64.0
14199,54.0,5.0,30.0,3.0,64.0
14200,88.0,0.0,30.0,0.0,64.0
14201,73.0,1.0,30.0,5.0,64.0
14202,73.0,4.0,30.0,6.0,64.0
14203,90.0,2.0,30.0,2.0,64.0
14204,95.0,1.0,30.0,1.0,64.0
14205,42.0,65.0,30.0,10.0,64.0
14206,75.0,4.0,180.0,6.0,64.0
14207,75.0,3.0,180.0,4.0,64.0
14208,75.0,35.0,180.0,5.0,64.0
14209,71.0,85.0,90.0,7.0,64.0
14210,66.0,40.0,330.0,8.0,64.0
14211,95.0,7.0,240.0,1.0,64.0
14212,54.0,28.0,60.0,3.0,64.0
14213,87.0,4.0,240.0,0.0,64.0
14214,90.0,54.0,240.0,2.0,64.0
14215,47.0,36.0,420.0,10.0,64.0
14216,75.0,31.0,30.0,7.0,64.0
14217,75.0,40.0,60.0,7.0,64.0
14218,71.0,8.0,180.0,6.0,64.0
14219,71.0,19.0,150.0,5.0,64.0
14220,71.0,3.0,150.0,4.0,64.0
14221,71.0,11.0,30.0,7.0,64.0
14222,66.0,102.0,30.0,8.0,64.0
14223,75.0,42.0,390.0,4.0,64.0
14224,75.0,33.0,360.0,5.0,64.0
14225,75.0,2.0,360.0,6.0,64.0
14226,59.0,18.0,420.0,10.0,64.0
14227,66.0,28.0,300.0,7.0,64.0
14228,71.0,129.0,90.0,8.0,64.0
14229,75.0,89.0,30.0,8.0,64.0
14230,75.0,8.0,60.0,8.0,64.0
14231,68.0,12.0,30.0,7.0,64.0
14232,77.0,1.0,30.0,5.0,64.0
14233,77.0,2.0,30.0,6.0,64.0
14234,71.0,8.0,30.0,8.0,64.0
14235,77.0,103.0,30.0,4.0,64.0
14236,61.0,128.0,90.0,7.0,64.0
14237,78.0,43.0,270.0,6.0,64.0
14238,78.0,1.0,270.0,5.0,64.0
14239,78.0,3.0,270.0,4.0,64.0
14240,73.0,9.0,330.0,8.0,64.0
14241,58.0,7.0,510.0,10.0,64.0
14242,66.0,44.0,60.0,7.0,64.0
14243,70.0,19.0,60.0,7.0,64.0
14244,77.0,2.0,30.0,5.0,64.0
14245,77.0,2.0,60.0,4.0,64.0
14246,77.0,51.0,30.0,6.0,64.0
14247,78.0,2.0,30.0,4.0,64.0
14248,78.0,2.0,30.0,5.0,64.0
14249,78.0,43.0,30.0,6.0,64.0
14250,80.0,5.0,30.0,5.0,64.0
14251,80.0,7.0,30.0,4.0,64.0
14252,71.0,5.0,30.0,7.0,64.0
14253,80.0,3.0,30.0,6.0,64.0
14254,71.0,62.0,30.0,8.0,64.0
14255,80.0,4.0,60.0,4.0,64.0
14256,80.0,7.0,60.0,5.0,64.0
14257,73.0,9.0,120.0,7.0,64.0
14258,80.0,13.0,60.0,6.0,64.0
14259,70.0,3.0,90.0,8.0,64.0
14260,79.0,7.0,30.0,5.0,64.0
14261,79.0,7.0,30.0,4.0,64.0
14262,79.0,10.0,30.0,6.0,64.0
14263,59.0,1.0,60.0,10.0,64.0
14264,80.0,2.0,20.0,5.0,64.0
14265,80.0,7.0,30.0,4.0,64.0
14266,80.0,1.0,30.0,6.0,64.0
14267,79.0,8.0,20.0,5.0,64.0
14268,79.0,9.0,20.0,4.0,64.0
14269,79.0,6.0,20.0,6.0,64.0
14270,80.0,10.0,20.0,5.0,64.0
14271,80.0,3.0,20.0,4.0,64.0
14272,61.0,4.0,30.0,10.0,64.0
14273,80.0,5.0,20.0,6.0,64.0
14274,79.0,7.0,20.0,5.0,64.0
14275,79.0,3.0,15.0,4.0,64.0
14276,79.0,7.0,20.0,6.0,64.0
14277,80.0,12.0,20.0,5.0,64.0
14278,80.0,1.0,30.0,4.0,64.0
14279,80.0,7.0,20.0,6.0,64.0
14280,76.0,0.0,30.0,7.0,64.0
14281,68.0,2.0,30.0,8.0,64.0
14282,79.0,10.0,20.0,5.0,64.0
14283,63.0,9.0,30.0,10.0,64.0
14284,79.0,7.0,20.0,4.0,64.0
14285,79.0,3.0,30.0,6.0,64.0
14286,80.0,5.0,30.0,5.0,64.0
14287,80.0,6.0,30.0,4.0,64.0
14288,80.0,48.0,30.0,6.0,64.0
14289,79.0,0.0,150.0,5.0,64.0
14290,79.0,10.0,120.0,4.0,64.0
14291,76.0,20.0,60.0,7.0,64.0
14292,79.0,29.0,120.0,6.0,64.0
14293,70.0,8.0,90.0,8.0,64.0
14294,61.0,17.0,60.0,10.0,64.0
14295,59.0,25.0,30.0,10.0,64.0
14296,58.0,50.0,30.0,10.0,64.0
14297,80.0,0.0,30.0,6.0,64.0
14298,75.0,1.0,30.0,7.0,64.0
14299,56.0,101.0,30.0,10.0,64.0
14300,71.0,1.0,30.0,8.0,64.0
14301,80.0,8.0,30.0,4.0,64.0
14302,80.0,2.0,30.0,5.0,64.0
14303,75.0,2.0,90.0,7.0,64.0
14304,82.0,45.0,270.0,6.0,64.0
14305,82.0,4.0,240.0,5.0,64.0
14306,82.0,9.0,270.0,4.0,64.0
14307,70.0,133.0,90.0,8.0,64.0
14308,55.0,0.0,570.0,10.0,64.0
14309,70.0,33.0,60.0,7.0,64.0
14310,73.0,0.0,30.0,8.0,64.0
14311,67.0,2.0,60.0,7.0,64.0
14312,73.0,26.0,60.0,8.0,64.0
14313,85.0,1.0,30.0,4.0,64.0
14314,85.0,1.0,30.0,5.0,64.0
14315,85.0,57.0,30.0,6.0,64.0
14316,83.0,2.0,30.0,6.0,64.0
14317,83.0,2.0,30.0,4.0,64.0
14318,83.0,62.0,30.0,5.0,64.0
14319,73.0,2.0,60.0,7.0,64.0
14320,82.0,84.0,60.0,6.0,64.0
14321,82.0,2.0,60.0,4.0,64.0
14322,76.0,4.0,30.0,8.0,64.0
14323,82.0,0.0,30.0,5.0,64.0
14324,63.0,17.0,90.0,7.0,64.0
14325,70.0,11.0,60.0,8.0,64.0
14326,87.0,119.0,90.0,4.0,64.0
14327,87.0,0.0,90.0,6.0,64.0
14328,87.0,2.0,90.0,5.0,64.0
14329,63.0,6.0,60.0,8.0,64.0
14330,51.0,4.0,60.0,10.0,64.0
14331,85.0,1.0,30.0,6.0,64.0
14332,79.0,95.0,60.0,7.0,64.0
14333,85.0,0.0,30.0,5.0,64.0
14334,85.0,1.0,30.0,4.0,64.0
14335,53.0,3.0,90.0,10.0,64.0
14336,68.0,0.0,90.0,8.0,64.0
14337,83.0,1.0,90.0,6.0,64.0
14338,80.0,3.0,90.0,7.0,64.0
14339,83.0,1.0,90.0,4.0,64.0
14340,83.0,125.0,90.0,5.0,64.0
14341,82.0,7.0,30.0,6.0,64.0
14342,82.0,0.0,60.0,7.0,64.0
14343,82.0,1.0,30.0,4.0,64.0
14344,82.0,15.0,30.0,5.0,64.0
14345,75.0,2.0,30.0,8.0,64.0
14346,55.0,82.0,60.0,10.0,64.0
14347,83.0,3.0,90.0,6.0,64.0
14348,80.0,5.0,90.0,7.0,64.0
14349,83.0,2.0,90.0,4.0,64.0
14350,75.0,124.0,90.0,8.0,64.0
14351,83.0,1.0,90.0,5.0,64.0
14352,56.0,1.0,90.0,10.0,64.0
14353,73.0,3.0,60.0,8.0,64.0
14354,79.0,7.0,60.0,7.0,64.0
14355,58.0,2.0,60.0,10.0,64.0
14356,82.0,1.0,30.0,6.0,64.0
14357,82.0,1.0,30.0,4.0,64.0
14358,82.0,94.0,60.0,5.0,64.0
14359,80.0,111.0,90.0,6.0,64.0
14360,80.0,4.0,90.0,7.0,64.0
14361,59.0,3.0,90.0,10.0,64.0
14362,75.0,1.0,90.0,8.0,64.0
14363,80.0,2.0,90.0,4.0,64.0
14364,80.0,2.0,90.0,5.0,64.0
14365,82.0,8.0,30.0,7.0,64.0
14366,82.0,1.0,60.0,6.0,64.0
14367,76.0,1.0,30.0,8.0,64.0
14368,82.0,1.0,30.0,4.0,64.0
14369,82.0,3.0,30.0,5.0,64.0
14370,61.0,82.0,30.0,10.0,64.0
14371,75.0,15.0,330.0,8.0,64.0
14372,80.0,14.0,90.0,7.0,64.0
14373,83.0,2.0,60.0,6.0,64.0
14374,83.0,0.0,60.0,4.0,64.0
14375,83.0,9.0,60.0,5.0,64.0
14376,63.0,3.0,120.0,10.0,64.0
14377,82.0,7.0,30.0,6.0,64.0
14378,82.0,3.0,30.0,5.0,64.0
14379,82.0,1.0,30.0,4.0,64.0
14380,79.0,20.0,30.0,7.0,64.0
14381,83.0,6.0,30.0,6.0,64.0
14382,83.0,2.0,30.0,5.0,64.0
14383,83.0,2.0,30.0,4.0,64.0
14384,80.0,2.0,30.0,7.0,64.0
14385,82.0,6.0,20.0,6.0,64.0
14386,82.0,6.0,15.0,5.0,64.0
14387,82.0,14.0,20.0,4.0,64.0
14388,79.0,0.0,20.0,7.0,64.0
14389,83.0,4.0,20.0,5.0,64.0
14390,83.0,1.0,30.0,6.0,64.0
14391,83.0,2.0,15.0,4.0,64.0
14392,80.0,9.0,20.0,7.0,64.0
14393,82.0,5.0,20.0,5.0,64.0
14394,82.0,7.0,20.0,6.0,64.0
14395,79.0,8.0,30.0,7.0,64.0
14396,82.0,2.0,15.0,4.0,64.0
14397,61.0,3.0,30.0,10.0,64.0
14398,83.0,7.0,20.0,5.0,64.0
14399,83.0,2.0,30.0,6.0,64.0
14400,83.0,1.0,20.0,4.0,64.0
14401,80.0,5.0,30.0,7.0,64.0
14402,60.0,0.0,30.0,10.0,64.0
14403,82.0,5.0,20.0,5.0,64.0
14404,82.0,7.0,20.0,6.0,64.0
14405,82.0,0.0,20.0,4.0,64.0
14406,79.0,12.0,20.0,7.0,64.0
14407,83.0,4.0,30.0,5.0,64.0
14408,83.0,0.0,30.0,6.0,64.0
14409,83.0,4.0,20.0,4.0,64.0
14410,80.0,72.0,20.0,7.0,64.0
14411,61.0,11.0,90.0,10.0,64.0
14412,82.0,4.0,120.0,5.0,64.0
14413,82.0,89.0,120.0,6.0,64.0
14414,82.0,5.0,120.0,4.0,64.0
14415,79.0,0.0,120.0,7.0,64.0
14416,80.0,3.0,30.0,4.0,64.0
14417,80.0,0.0,30.0,6.0,64.0
14418,75.0,2.0,30.0,8.0,64.0
14419,80.0,6.0,30.0,5.0,64.0
14420,80.0,2.0,30.0,7.0,64.0
14421,63.0,141.0,30.0,10.0,64.0
14422,60.0,50.0,510.0,10.0,64.0
14423,75.0,19.0,480.0,8.0,64.0
14424,80.0,12.0,240.0,6.0,64.0
14425,80.0,8.0,240.0,4.0,64.0
14426,80.0,89.0,120.0,7.0,64.0
14427,80.0,53.0,240.0,5.0,64.0
14428,68.0,31.0,30.0,7.0,64.0
14429,68.0,15.0,90.0,7.0,64.0
14430,80.0,0.0,30.0,6.0,64.0
14431,80.0,10.0,30.0,4.0,64.0
14432,80.0,44.0,30.0,5.0,64.0
14433,78.0,8.0,30.0,6.0,64.0
14434,78.0,2.0,30.0,4.0,64.0
14435,78.0,49.0,30.0,5.0,64.0
14436,77.0,1.0,30.0,6.0,64.0
14437,77.0,1.0,30.0,4.0,64.0
14438,72.0,8.0,30.0,7.0,64.0
14439,77.0,38.0,30.0,5.0,64.0
14440,75.0,51.0,360.0,7.0,64.0
14441,78.0,8.0,90.0,4.0,64.0
14442,78.0,55.0,90.0,6.0,64.0
14443,78.0,1.0,90.0,5.0,64.0
14444,58.0,1.0,30.0,10.0,64.0
14445,56.0,62.0,30.0,10.0,64.0
14446,58.0,2.0,30.0,10.0,64.0
14447,87.0,6.0,30.0,5.0,64.0
14448,87.0,51.0,60.0,6.0,64.0
14449,68.0,5.0,30.0,8.0,64.0
14450,87.0,3.0,30.0,4.0,64.0
14451,60.0,42.0,30.0,10.0,64.0
14452,68.0,9.0,90.0,8.0,64.0
14453,80.0,1.0,90.0,5.0,64.0
14454,80.0,0.0,90.0,4.0,64.0
14455,80.0,3.0,90.0,6.0,64.0
14456,58.0,13.0,30.0,10.0,64.0
14457,60.0,64.0,30.0,10.0,64.0
14458,56.0,1.0,60.0,10.0,64.0
14459,72.0,0.0,30.0,8.0,64.0
14460,78.0,99.0,60.0,6.0,64.0
14461,78.0,2.0,30.0,4.0,64.0
14462,78.0,1.0,30.0,5.0,64.0
14463,75.0,1.0,30.0,7.0,64.0
14464,68.0,2.0,90.0,8.0,64.0
14465,77.0,8.0,90.0,6.0,64.0
14466,77.0,114.0,120.0,4.0,64.0
14467,61.0,68.0,510.0,10.0,64.0
14468,73.0,6.0,90.0,7.0,64.0
14469,77.0,8.0,90.0,5.0,64.0
14470,73.0,1.0,60.0,6.0,64.0
14471,73.0,88.0,60.0,4.0,64.0
14472,65.0,1.0,30.0,7.0,64.0
14473,73.0,6.0,30.0,5.0,64.0
14474,73.0,0.0,30.0,8.0,64.0
14475,77.0,123.0,90.0,6.0,64.0
14476,68.0,1.0,90.0,7.0,64.0
14477,77.0,6.0,60.0,4.0,64.0
14478,73.0,3.0,90.0,8.0,64.0
14479,77.0,4.0,90.0,5.0,64.0
14480,80.0,8.0,60.0,4.0,64.0
14481,73.0,0.0,30.0,7.0,64.0
14482,80.0,51.0,60.0,6.0,64.0
14483,80.0,1.0,30.0,5.0,64.0
14484,71.0,1.0,30.0,8.0,64.0
14485,85.0,23.0,360.0,4.0,64.0
14486,78.0,8.0,330.0,7.0,64.0
14487,70.0,1.0,90.0,8.0,64.0
14488,85.0,3.0,300.0,6.0,64.0
14489,85.0,22.0,330.0,5.0,64.0
14490,59.0,56.0,30.0,10.0,64.0
14491,58.0,58.0,30.0,10.0,64.0
14492,59.0,8.0,60.0,10.0,64.0
14493,70.0,51.0,30.0,8.0,64.0
14494,61.0,39.0,30.0,10.0,64.0
14495,70.0,12.0,60.0,8.0,64.0
14496,59.0,9.0,30.0,10.0,64.0
14497,61.0,60.0,30.0,10.0,64.0
14498,58.0,2.0,60.0,10.0,64.0
14499,85.0,1.0,30.0,6.0,64.0
14500,68.0,4.0,30.0,8.0,64.0
14501,73.0,97.0,30.0,7.0,64.0
14502,85.0,3.0,30.0,5.0,64.0
14503,85.0,1.0,30.0,4.0,64.0
14504,85.0,4.0,300.0,6.0,64.0
14505,66.0,4.0,90.0,8.0,64.0
14506,70.0,126.0,90.0,7.0,64.0
14507,85.0,76.0,330.0,4.0,64.0
14508,63.0,52.0,510.0,10.0,64.0
14509,85.0,23.0,300.0,5.0,64.0
14510,78.0,11.0,30.0,7.0,64.0
14511,63.0,64.0,60.0,8.0,64.0
14512,78.0,4.0,90.0,7.0,64.0
14513,70.0,7.0,90.0,8.0,64.0
14514,75.0,6.0,30.0,4.0,64.0
14515,75.0,1.0,30.0,6.0,64.0
14516,75.0,9.0,30.0,5.0,64.0
14517,77.0,1.0,30.0,4.0,64.0
14518,77.0,18.0,30.0,6.0,64.0
14519,77.0,13.0,30.0,5.0,64.0
14520,78.0,6.0,30.0,4.0,64.0
14521,78.0,2.0,30.0,6.0,64.0
14522,66.0,0.0,30.0,8.0,64.0
14523,78.0,0.0,60.0,5.0,64.0
14524,77.0,9.0,30.0,7.0,64.0
14525,80.0,3.0,30.0,4.0,64.0
14526,80.0,10.0,30.0,6.0,64.0
14527,80.0,6.0,30.0,5.0,64.0
14528,82.0,3.0,30.0,4.0,64.0
14529,82.0,10.0,30.0,6.0,64.0
14530,82.0,12.0,30.0,5.0,64.0
14531,83.0,9.0,330.0,6.0,64.0
14532,83.0,35.0,360.0,4.0,64.0
14533,75.0,1.0,330.0,7.0,64.0
14534,66.0,13.0,90.0,8.0,64.0
14535,83.0,8.0,360.0,5.0,64.0
14536,64.0,53.0,30.0,10.0,64.0
14537,63.0,67.0,30.0,10.0,64.0
14538,61.0,6.0,30.0,10.0,64.0
14539,63.0,51.0,30.0,8.0,64.0
14540,59.0,46.0,30.0,10.0,64.0
14541,68.0,5.0,90.0,8.0,64.0
14542,58.0,21.0,30.0,10.0,64.0
14543,56.0,53.0,30.0,10.0,64.0
14544,54.0,104.0,60.0,10.0,64.0
14545,75.0,1.0,30.0,7.0,64.0
14546,83.0,1.0,30.0,6.0,64.0
14547,83.0,3.0,30.0,5.0,64.0
14548,83.0,6.0,30.0,4.0,64.0
14549,68.0,1.0,30.0,8.0,64.0
14550,83.0,24.0,330.0,6.0,64.0
14551,73.0,122.0,90.0,7.0,64.0
14552,83.0,9.0,300.0,5.0,64.0
14553,83.0,44.0,360.0,4.0,64.0
14554,53.0,17.0,480.0,10.0,64.0
14555,68.0,8.0,90.0,8.0,64.0
14556,73.0,4.0,30.0,8.0,64.0
14557,77.0,77.0,30.0,7.0,64.0
14558,73.0,17.0,90.0,8.0,64.0
14559,77.0,4.0,60.0,7.0,64.0
14560,82.0,22.0,30.0,5.0,64.0
14561,80.0,10.0,30.0,5.0,64.0
14562,82.0,0.0,30.0,4.0,64.0
14563,82.0,12.0,30.0,6.0,64.0
14564,80.0,0.0,30.0,4.0,64.0
14565,78.0,4.0,60.0,5.0,64.0
14566,80.0,16.0,30.0,6.0,64.0
14567,68.0,0.0,30.0,8.0,64.0
14568,77.0,3.0,30.0,5.0,64.0
14569,80.0,3.0,30.0,7.0,64.0
14570,78.0,2.0,60.0,4.0,64.0
14571,77.0,4.0,30.0,4.0,64.0
14572,78.0,2.0,30.0,6.0,64.0
14573,75.0,10.0,30.0,5.0,64.0
14574,75.0,13.0,30.0,4.0,64.0
14575,77.0,1.0,30.0,6.0,64.0
14576,80.0,4.0,90.0,7.0,64.0
14577,73.0,10.0,330.0,8.0,64.0
14578,75.0,55.0,30.0,6.0,64.0
14579,73.0,11.0,150.0,4.0,64.0
14580,73.0,9.0,120.0,5.0,64.0
14581,73.0,1.0,120.0,6.0,64.0
14582,54.0,43.0,30.0,10.0,64.0
14583,53.0,58.0,30.0,10.0,64.0
14584,51.0,9.0,60.0,10.0,64.0
14585,78.0,0.0,60.0,7.0,64.0
14586,71.0,3.0,30.0,5.0,64.0
14587,71.0,2.0,30.0,4.0,64.0
14588,71.0,11.0,30.0,6.0,64.0
14589,70.0,0.0,30.0,5.0,64.0
14590,70.0,4.0,30.0,4.0,64.0
14591,70.0,35.0,20.0,6.0,64.0
14592,80.0,15.0,60.0,7.0,64.0
14593,49.0,32.0,30.0,10.0,64.0
14594,71.0,5.0,90.0,5.0,64.0
14595,71.0,14.0,90.0,4.0,64.0
14596,71.0,40.0,90.0,6.0,64.0
14597,51.0,2.0,30.0,10.0,64.0
14598,53.0,52.0,60.0,10.0,64.0
14599,49.0,2.0,30.0,10.0,64.0
14600,80.0,2.0,30.0,5.0,64.0
14601,77.0,37.0,60.0,7.0,64.0
14602,80.0,1.0,30.0,4.0,64.0
14603,80.0,2.0,30.0,6.0,64.0
14604,73.0,10.0,30.0,8.0,64.0
14605,70.0,20.0,270.0,5.0,64.0
14606,70.0,12.0,240.0,6.0,64.0
14607,73.0,8.0,90.0,8.0,64.0
14608,70.0,0.0,270.0,4.0,64.0
14609,78.0,7.0,90.0,7.0,64.0
14610,54.0,22.0,510.0,10.0,64.0
14611,54.0,28.0,15.0,3.0,64.0
14612,54.0,23.0,15.0,3.0,64.0
14613,54.0,7.0,15.0,3.0,64.0
14614,54.0,27.0,15.0,3.0,64.0
14615,54.0,17.0,20.0,3.0,64.0
14616,54.0,49.0,15.0,3.0,64.0
14617,54.0,21.0,30.0,3.0,64.0
14618,73.0,8.0,30.0,7.0,64.0
14619,70.0,5.0,30.0,8.0,64.0
14620,78.0,4.0,30.0,0.0,64.0
14621,85.0,10.0,30.0,1.0,64.0
14622,82.0,1.0,30.0,2.0,64.0
14623,54.0,12.0,30.0,3.0,64.0
14624,73.0,3.0,90.0,7.0,64.0
14625,70.0,0.0,60.0,8.0,64.0
14626,85.0,8.0,60.0,1.0,64.0
14627,82.0,0.0,60.0,2.0,64.0
14628,78.0,2.0,60.0,0.0,64.0
14629,54.0,31.0,30.0,3.0,64.0
14630,71.0,5.0,30.0,6.0,64.0
14631,71.0,11.0,30.0,4.0,64.0
14632,71.0,44.0,30.0,5.0,64.0
14633,54.0,4.0,20.0,3.0,64.0
14634,73.0,10.0,30.0,6.0,64.0
14635,54.0,2.0,30.0,3.0,64.0
14636,73.0,9.0,30.0,4.0,64.0
14637,73.0,13.0,30.0,5.0,64.0
14638,54.0,19.0,15.0,3.0,64.0
14639,75.0,5.0,30.0,6.0,64.0
14640,66.0,3.0,30.0,8.0,64.0
14641,75.0,3.0,30.0,4.0,64.0
14642,70.0,1.0,30.0,7.0,64.0
14643,90.0,1.0,30.0,1.0,64.0
14644,82.0,3.0,30.0,0.0,64.0
14645,75.0,13.0,30.0,5.0,64.0
14646,85.0,0.0,30.0,2.0,64.0
14647,54.0,3.0,15.0,3.0,64.0
14648,54.0,20.0,15.0,3.0,64.0
14649,76.0,1.0,360.0,6.0,64.0
14650,61.0,3.0,90.0,8.0,64.0
14651,70.0,6.0,60.0,7.0,64.0
14652,54.0,11.0,15.0,3.0,64.0
14653,76.0,1.0,360.0,4.0,64.0
14654,76.0,8.0,360.0,5.0,64.0
14655,90.0,2.0,60.0,1.0,64.0
14656,82.0,16.0,60.0,0.0,64.0
14657,85.0,1.0,60.0,2.0,64.0
14658,54.0,15.0,15.0,3.0,64.0
14659,54.0,2.0,15.0,3.0,64.0
14660,56.0,29.0,30.0,10.0,64.0
14661,54.0,33.0,30.0,3.0,64.0
14662,54.0,13.0,30.0,10.0,64.0
14663,54.0,4.0,15.0,3.0,64.0
14664,54.0,33.0,15.0,3.0,64.0
14665,52.0,4.0,30.0,10.0,64.0
14666,66.0,2.0,30.0,8.0,64.0
14667,66.0,1.0,30.0,7.0,64.0
14668,90.0,1.0,30.0,2.0,64.0
14669,85.0,1.0,30.0,0.0,64.0
14670,94.0,6.0,30.0,1.0,64.0
14671,54.0,8.0,15.0,3.0,64.0
14672,54.0,30.0,20.0,3.0,64.0
14673,51.0,24.0,60.0,10.0,64.0
14674,70.0,3.0,60.0,8.0,64.0
14675,54.0,24.0,15.0,3.0,64.0
14676,85.0,1.0,60.0,0.0,64.0
14677,94.0,0.0,60.0,1.0,64.0
14678,66.0,20.0,330.0,7.0,64.0
14679,90.0,12.0,60.0,2.0,64.0
14680,54.0,5.0,15.0,3.0,64.0
14681,49.0,7.0,30.0,10.0,64.0
14682,54.0,2.0,15.0,3.0,64.0
14683,54.0,21.0,15.0,3.0,64.0
14684,47.0,32.0,60.0,10.0,64.0
14685,54.0,18.0,15.0,3.0,64.0
14686,54.0,11.0,15.0,3.0,64.0
14687,54.0,19.0,30.0,3.0,64.0
14688,73.0,24.0,60.0,8.0,64.0
14689,78.0,4.0,30.0,4.0,64.0
14690,46.0,1.0,30.0,10.0,64.0
14691,78.0,1.0,30.0,5.0,64.0
14692,78.0,2.0,30.0,6.0,64.0
14693,95.0,0.0,30.0,1.0,64.0
14694,87.0,2.0,30.0,0.0,64.0
14695,90.0,3.0,30.0,2.0,64.0
14696,54.0,36.0,20.0,3.0,64.0
14697,71.0,5.0,90.0,8.0,64.0
14698,75.0,5.0,270.0,4.0,64.0
14699,75.0,3.0,270.0,5.0,64.0
14700,75.0,0.0,270.0,6.0,64.0
14701,47.0,30.0,1200.0,10.0,64.0
14702,87.0,1.0,90.0,0.0,64.0
14703,95.0,90.0,90.0,1.0,64.0
14704,90.0,7.0,90.0,2.0,64.0
14705,54.0,39.0,20.0,3.0,64.0
14706,70.0,5.0,60.0,7.0,64.0
14707,66.0,19.0,60.0,8.0,64.0
14708,54.0,14.0,15.0,3.0,64.0
14709,54.0,10.0,15.0,3.0,64.0
14710,54.0,21.0,20.0,3.0,64.0
14711,71.0,9.0,90.0,7.0,64.0
14712,68.0,4.0,90.0,8.0,64.0
14713,54.0,44.0,20.0,3.0,64.0
14714,73.0,7.0,30.0,6.0,64.0
14715,73.0,1.0,30.0,5.0,64.0
14716,73.0,46.0,30.0,4.0,64.0
14717,71.0,3.0,30.0,6.0,64.0
14718,71.0,47.0,30.0,5.0,64.0
14719,71.0,4.0,30.0,4.0,64.0
14720,70.0,0.0,60.0,6.0,64.0
14721,70.0,10.0,30.0,5.0,64.0
14722,70.0,1.0,30.0,4.0,64.0
14723,70.0,51.0,60.0,8.0,64.0
14724,54.0,11.0,20.0,3.0,64.0
14725,73.0,1.0,30.0,7.0,64.0
14726,68.0,37.0,60.0,6.0,64.0
14727,68.0,0.0,60.0,5.0,64.0
14728,68.0,5.0,60.0,4.0,64.0
14729,75.0,8.0,90.0,7.0,64.0
14730,71.0,3.0,90.0,8.0,64.0
14731,54.0,5.0,30.0,3.0,64.0
14732,99.0,0.0,90.0,1.0,64.0
14733,83.0,0.0,90.0,0.0,64.0
14734,92.0,4.0,60.0,2.0,64.0
14735,70.0,0.0,30.0,4.0,64.0
14736,70.0,58.0,60.0,5.0,64.0
14737,70.0,4.0,30.0,6.0,64.0
14738,71.0,8.0,60.0,6.0,64.0
14739,71.0,2.0,60.0,4.0,64.0
14740,71.0,49.0,60.0,5.0,64.0
14741,73.0,1.0,30.0,4.0,64.0
14742,73.0,4.0,30.0,6.0,64.0
14743,73.0,7.0,60.0,5.0,64.0
14744,77.0,1.0,60.0,7.0,64.0
14745,68.0,50.0,60.0,8.0,64.0
14746,75.0,8.0,60.0,6.0,64.0
14747,75.0,1.0,60.0,4.0,64.0
14748,78.0,15.0,90.0,7.0,64.0
14749,75.0,27.0,60.0,5.0,64.0
14750,70.0,13.0,90.0,8.0,64.0
14751,77.0,0.0,60.0,4.0,64.0
14752,77.0,2.0,60.0,6.0,64.0
14753,77.0,52.0,60.0,5.0,64.0
14754,78.0,1.0,30.0,6.0,64.0
14755,78.0,5.0,30.0,4.0,64.0
14756,78.0,60.0,30.0,5.0,64.0
14757,75.0,1.0,60.0,6.0,64.0
14758,80.0,2.0,60.0,7.0,64.0
14759,75.0,1.0,60.0,4.0,64.0
14760,71.0,0.0,60.0,8.0,64.0
14761,75.0,48.0,60.0,5.0,64.0
14762,68.0,1.0,90.0,8.0,64.0
14763,77.0,5.0,60.0,6.0,64.0
14764,77.0,1.0,60.0,4.0,64.0
14765,77.0,4.0,30.0,5.0,64.0
14766,73.0,13.0,90.0,7.0,64.0
14767,49.0,12.0,20.0,3.0,64.0
14768,49.0,26.0,15.0,3.0,64.0
14769,78.0,3.0,30.0,4.0,64.0
14770,78.0,5.0,60.0,5.0,64.0
14771,78.0,1.0,60.0,6.0,64.0
14772,49.0,1.0,20.0,3.0,64.0
14773,49.0,27.0,15.0,3.0,64.0
14774,49.0,19.0,20.0,3.0,64.0
14775,77.0,4.0,30.0,4.0,64.0
14776,77.0,0.0,60.0,6.0,64.0
14777,77.0,20.0,30.0,5.0,64.0
14778,49.0,8.0,15.0,3.0,64.0
14779,49.0,20.0,15.0,3.0,64.0
14780,85.0,2.0,30.0,1.0,64.0
14781,75.0,3.0,30.0,5.0,64.0
14782,75.0,3.0,30.0,4.0,64.0
14783,75.0,0.0,30.0,6.0,64.0
14784,68.0,10.0,30.0,7.0,64.0
14785,73.0,1.0,30.0,8.0,64.0
14786,92.0,3.0,30.0,0.0,64.0
14787,85.0,2.0,30.0,2.0,64.0
14788,49.0,6.0,15.0,3.0,64.0
14789,49.0,22.0,15.0,3.0,64.0
14790,73.0,2.0,60.0,6.0,64.0
14791,73.0,7.0,60.0,5.0,64.0
14792,49.0,1.0,15.0,3.0,64.0
14793,73.0,4.0,60.0,4.0,64.0
14794,92.0,6.0,60.0,0.0,64.0
14795,85.0,2.0,60.0,1.0,64.0
14796,65.0,4.0,60.0,7.0,64.0
14797,73.0,11.0,60.0,8.0,64.0
14798,85.0,2.0,60.0,2.0,64.0
14799,49.0,5.0,30.0,3.0,64.0
14800,46.0,15.0,30.0,10.0,64.0
14801,75.0,1.0,60.0,4.0,64.0
14802,75.0,13.0,60.0,6.0,64.0
14803,75.0,4.0,60.0,5.0,64.0
14804,49.0,30.0,30.0,3.0,64.0
14805,44.0,8.0,30.0,10.0,64.0
14806,77.0,2.0,30.0,5.0,64.0
14807,77.0,3.0,30.0,6.0,64.0
14808,77.0,5.0,30.0,4.0,64.0
14809,49.0,38.0,30.0,3.0,64.0
14810,42.0,2.0,60.0,10.0,64.0
14811,78.0,2.0,60.0,5.0,64.0
14812,61.0,0.0,60.0,7.0,64.0
14813,68.0,7.0,30.0,8.0,64.0
14814,78.0,3.0,60.0,6.0,64.0
14815,85.0,1.0,30.0,2.0,64.0
14816,92.0,1.0,30.0,1.0,64.0
14817,78.0,24.0,60.0,4.0,64.0
14818,97.0,2.0,30.0,0.0,64.0
14819,49.0,1.0,20.0,3.0,64.0
14820,49.0,29.0,20.0,3.0,64.0
14821,80.0,3.0,60.0,6.0,64.0
14822,80.0,1.0,60.0,5.0,64.0
14823,85.0,4.0,60.0,2.0,64.0
14824,80.0,11.0,60.0,4.0,64.0
14825,73.0,11.0,60.0,7.0,64.0
14826,41.0,13.0,90.0,10.0,64.0
14827,68.0,1.0,60.0,8.0,64.0
14828,97.0,1.0,60.0,0.0,64.0
14829,92.0,5.0,60.0,1.0,64.0
14830,49.0,6.0,30.0,3.0,64.0
14831,82.0,5.0,30.0,6.0,64.0
14832,82.0,0.0,30.0,5.0,64.0
14833,82.0,34.0,30.0,4.0,64.0
14834,83.0,1.0,30.0,6.0,64.0
14835,83.0,5.0,30.0,5.0,64.0
14836,83.0,17.0,30.0,4.0,64.0
14837,49.0,17.0,15.0,3.0,64.0
14838,49.0,28.0,20.0,3.0,64.0
14839,70.0,1.0,30.0,7.0,64.0
14840,85.0,2.0,30.0,6.0,64.0
14841,82.0,1.0,30.0,2.0,64.0
14842,85.0,1.0,30.0,5.0,64.0
14843,99.0,2.0,30.0,0.0,64.0
14844,94.0,0.0,30.0,1.0,64.0
14845,65.0,1.0,30.0,8.0,64.0
14846,85.0,1.0,30.0,4.0,64.0
14847,49.0,34.0,30.0,10.0,64.0
14848,49.0,3.0,20.0,3.0,64.0
14849,54.0,23.0,30.0,3.0,64.0
14850,66.0,3.0,90.0,7.0,64.0
14851,83.0,0.0,60.0,6.0,64.0
14852,83.0,4.0,30.0,5.0,64.0
14853,83.0,15.0,30.0,4.0,64.0
14854,95.0,7.0,60.0,0.0,64.0
14855,94.0,1.0,60.0,1.0,64.0
14856,66.0,3.0,60.0,8.0,64.0
14857,78.0,8.0,60.0,2.0,64.0
14858,51.0,9.0,60.0,10.0,64.0
14859,82.0,3.0,30.0,5.0,64.0
14860,82.0,0.0,30.0,6.0,64.0
14861,82.0,57.0,30.0,4.0,64.0
14862,83.0,0.0,30.0,6.0,64.0
14863,83.0,8.0,30.0,5.0,64.0
14864,83.0,45.0,30.0,4.0,64.0
14865,85.0,0.0,30.0,2.0,64.0
14866,80.0,1.0,30.0,5.0,64.0
14867,80.0,3.0,30.0,6.0,64.0
14868,92.0,0.0,30.0,1.0,64.0
14869,97.0,1.0,30.0,0.0,64.0
14870,80.0,1.0,30.0,4.0,64.0
14871,73.0,3.0,30.0,7.0,64.0
14872,53.0,5.0,30.0,10.0,64.0
14873,68.0,56.0,30.0,8.0,64.0
14874,49.0,6.0,30.0,3.0,64.0
14875,82.0,10.0,120.0,5.0,64.0
14876,85.0,5.0,60.0,2.0,64.0
14877,82.0,46.0,150.0,6.0,64.0
14878,94.0,6.0,60.0,0.0,64.0
14879,90.0,5.0,60.0,1.0,64.0
14880,82.0,4.0,120.0,4.0,64.0
14881,73.0,30.0,90.0,7.0,64.0
14882,54.0,23.0,30.0,3.0,64.0
14883,61.0,11.0,60.0,8.0,64.0
14884,54.0,1.0,90.0,10.0,64.0
14885,80.0,5.0,30.0,5.0,64.0
14886,80.0,0.0,30.0,6.0,64.0
14887,80.0,13.0,30.0,4.0,64.0
14888,85.0,2.0,30.0,1.0,64.0
14889,85.0,3.0,30.0,2.0,64.0
14890,68.0,1.0,30.0,8.0,64.0
14891,56.0,0.0,30.0,10.0,64.0
14892,49.0,5.0,30.0,3.0,64.0
14893,71.0,17.0,30.0,7.0,64.0
14894,95.0,4.0,30.0,0.0,64.0
14895,78.0,0.0,30.0,5.0,64.0
14896,78.0,0.0,30.0,4.0,64.0
14897,78.0,0.0,30.0,6.0,64.0
14898,77.0,8.0,20.0,5.0,64.0
14899,77.0,10.0,20.0,6.0,64.0
14900,77.0,19.0,30.0,4.0,64.0
14901,54.0,16.0,30.0,3.0,64.0
14902,85.0,9.0,60.0,2.0,64.0
14903,90.0,21.0,60.0,1.0,64.0
14904,94.0,3.0,90.0,0.0,64.0
14905,73.0,105.0,90.0,7.0,64.0
14906,66.0,2.0,60.0,8.0,64.0
14907,58.0,3.0,90.0,10.0,64.0
14908,78.0,3.0,90.0,5.0,64.0
14909,78.0,0.0,90.0,6.0,64.0
14910,78.0,4.0,90.0,4.0,64.0
14911,71.0,2.0,30.0,8.0,64.0
14912,75.0,0.0,30.0,6.0,64.0
14913,75.0,0.0,30.0,7.0,64.0
14914,92.0,2.0,30.0,0.0,64.0
14915,85.0,2.0,30.0,2.0,64.0
14916,75.0,0.0,30.0,4.0,64.0
14917,75.0,1.0,30.0,5.0,64.0
14918,85.0,0.0,30.0,1.0,64.0
14919,59.0,68.0,30.0,10.0,64.0
14920,54.0,3.0,30.0,3.0,64.0
14921,94.0,1.0,90.0,0.0,64.0
14922,70.0,2.0,60.0,8.0,64.0
14923,78.0,1.0,60.0,6.0,64.0
14924,73.0,1.0,180.0,7.0,64.0
14925,78.0,2.0,60.0,5.0,64.0
14926,85.0,4.0,330.0,2.0,64.0
14927,49.0,32.0,30.0,3.0,64.0
14928,85.0,0.0,60.0,1.0,64.0
14929,78.0,16.0,60.0,4.0,64.0
14930,61.0,5.0,120.0,10.0,64.0
14931,92.0,0.0,30.0,0.0,64.0
14932,77.0,4.0,30.0,6.0,64.0
14933,68.0,1.0,30.0,8.0,64.0
14934,77.0,19.0,30.0,5.0,64.0
14935,77.0,2.0,20.0,4.0,64.0
14936,94.0,2.0,30.0,0.0,64.0
14937,78.0,1.0,20.0,6.0,64.0
14938,70.0,5.0,20.0,8.0,64.0
14939,78.0,7.0,30.0,4.0,64.0
14940,78.0,0.0,30.0,5.0,64.0
14941,77.0,3.0,20.0,6.0,64.0
14942,92.0,1.0,20.0,0.0,64.0
14943,68.0,5.0,20.0,8.0,64.0
14944,49.0,3.0,20.0,3.0,64.0
14945,77.0,0.0,15.0,4.0,64.0
14946,77.0,7.0,20.0,5.0,64.0
14947,78.0,7.0,20.0,6.0,64.0
14948,94.0,1.0,15.0,0.0,64.0
14949,78.0,1.0,20.0,4.0,64.0
14950,70.0,0.0,20.0,8.0,64.0
14951,78.0,13.0,20.0,5.0,64.0
14952,92.0,4.0,20.0,0.0,64.0
14953,77.0,1.0,20.0,6.0,64.0
14954,68.0,2.0,30.0,8.0,64.0
14955,77.0,3.0,20.0,4.0,64.0
14956,77.0,10.0,20.0,5.0,64.0
14957,82.0,0.0,30.0,1.0,64.0
14958,49.0,7.0,30.0,3.0,64.0
14959,78.0,0.0,30.0,6.0,64.0
14960,94.0,4.0,20.0,0.0,64.0
14961,70.0,1.0,30.0,8.0,64.0
14962,78.0,0.0,20.0,4.0,64.0
14963,78.0,10.0,30.0,5.0,64.0
14964,77.0,1.0,20.0,6.0,64.0
14965,77.0,0.0,20.0,4.0,64.0
14966,92.0,18.0,20.0,0.0,64.0
14967,77.0,8.0,120.0,5.0,64.0
14968,68.0,4.0,120.0,8.0,64.0
14969,78.0,31.0,30.0,6.0,64.0
14970,94.0,0.0,20.0,0.0,64.0
14971,78.0,2.0,20.0,4.0,64.0
14972,77.0,12.0,120.0,6.0,64.0
14973,92.0,5.0,90.0,0.0,64.0
14974,77.0,6.0,120.0,4.0,64.0
14975,73.0,34.0,180.0,7.0,64.0
14976,49.0,28.0,30.0,3.0,64.0
14977,85.0,29.0,60.0,1.0,64.0
14978,49.0,36.0,120.0,10.0,64.0
14979,90.0,3.0,30.0,0.0,64.0
14980,70.0,3.0,30.0,8.0,64.0
14981,78.0,8.0,30.0,4.0,64.0
14982,78.0,0.0,30.0,5.0,64.0
14983,85.0,4.0,30.0,2.0,64.0
14984,78.0,0.0,30.0,6.0,64.0
14985,49.0,0.0,20.0,3.0,64.0
14986,85.0,61.0,30.0,1.0,64.0
14987,78.0,0.0,540.0,4.0,64.0
14988,78.0,6.0,510.0,5.0,64.0
14989,78.0,9.0,510.0,6.0,64.0
14990,70.0,0.0,510.0,8.0,64.0
14991,85.0,4.0,480.0,2.0,64.0
14992,82.0,8.0,480.0,1.0,64.0
14993,73.0,1.0,510.0,7.0,64.0
14994,42.0,27.0,510.0,10.0,64.0
14995,54.0,20.0,20.0,3.0,64.0
14996,90.0,0.0,480.0,0.0,64.0
14997,54.0,26.0,15.0,3.0,64.0
14998,54.0,18.0,15.0,3.0,64.0
14999,54.0,44.0,15.0,3.0,64.0
15000,54.0,50.0,30.0,3.0,64.0
15001,54.0,27.0,30.0,3.0,64.0
15002,54.0,25.0,15.0,3.0,64.0
15003,54.0,22.0,20.0,3.0,64.0
15004,54.0,26.0,20.0,3.0,64.0
15005,54.0,21.0,20.0,3.0,64.0
15006,54.0,24.0,15.0,3.0,64.0
15007,54.0,20.0,15.0,3.0,64.0
15008,54.0,20.0,15.0,3.0,64.0
15009,54.0,57.0,15.0,3.0,64.0
15010,54.0,25.0,60.0,3.0,64.0
15011,54.0,25.0,20.0,3.0,64.0
15012,54.0,14.0,15.0,3.0,64.0
