,note,step,duration,channel,velocity
0,53.0,512.0,510.0,2.0,0.0
1,57.0,0.0,510.0,1.0,0.0
2,53.0,0.0,1020.0,3.0,0.0
3,55.0,0.0,510.0,2.0,0.0
4,58.0,512.0,510.0,1.0,0.0
5,57.0,512.0,510.0,2.0,0.0
6,65.0,0.0,15.0,0.0,0.0
7,41.0,0.0,510.0,3.0,0.0
8,60.0,0.0,1020.0,1.0,0.0
9,43.0,0.0,510.0,3.0,0.0
10,58.0,1024.0,510.0,2.0,0.0
11,45.0,0.0,1020.0,3.0,0.0
12,65.0,0.0,15.0,0.0,0.0
13,53.0,0.0,1020.0,1.0,0.0
14,60.0,0.0,1020.0,2.0,0.0
15,58.0,0.0,1020.0,1.0,0.0
16,62.0,512.0,510.0,0.0,0.0
17,46.0,0.0,510.0,3.0,0.0
18,48.0,0.0,510.0,3.0,0.0
19,64.0,512.0,510.0,0.0,0.0
20,50.0,0.0,510.0,3.0,0.0
21,57.0,0.0,1020.0,1.0,0.0
22,53.0,0.0,15.0,2.0,0.0
23,65.0,0.0,1020.0,0.0,0.0
24,48.0,512.0,510.0,3.0,0.0
25,52.0,0.0,510.0,2.0,0.0
26,55.0,512.0,1020.0,1.0,0.0
27,50.0,0.0,1020.0,2.0,0.0
28,67.0,512.0,510.0,0.0,0.0
29,47.0,0.0,1020.0,3.0,0.0
30,65.0,0.0,510.0,0.0,0.0
31,48.0,0.0,1020.0,3.0,0.0
32,64.0,1024.0,1020.0,0.0,0.0
33,60.0,0.0,1020.0,1.0,0.0
34,52.0,512.0,510.0,2.0,0.0
35,53.0,0.0,510.0,2.0,0.0
36,55.0,512.0,1020.0,2.0,0.0
37,43.0,0.0,1020.0,3.0,0.0
38,59.0,0.0,15.0,1.0,0.0
39,62.0,0.0,15.0,0.0,0.0
40,55.0,512.0,510.0,3.0,0.0
41,53.0,0.0,510.0,3.0,0.0
42,60.0,0.0,1020.0,1.0,0.0
43,52.0,512.0,510.0,3.0,0.0
44,64.0,0.0,1020.0,0.0,0.0
45,55.0,512.0,15.0,2.0,0.0
46,53.0,512.0,510.0,3.0,0.0
47,59.0,0.0,1020.0,2.0,0.0
48,62.0,512.0,1020.0,1.0,0.0
49,52.0,512.0,510.0,3.0,0.0
50,65.0,0.0,1020.0,0.0,0.0
51,50.0,0.0,510.0,3.0,0.0
52,48.0,0.0,510.0,3.0,0.0
53,52.0,0.0,510.0,2.0,0.0
54,67.0,0.0,1020.0,0.0,0.0
55,62.0,512.0,510.0,1.0,0.0
56,59.0,512.0,510.0,1.0,0.0
57,50.0,0.0,510.0,3.0,0.0
58,53.0,0.0,510.0,2.0,0.0
59,55.0,0.0,510.0,2.0,0.0
60,52.0,512.0,510.0,3.0,0.0
61,60.0,0.0,1020.0,1.0,0.0
62,60.0,0.0,510.0,0.0,0.0
63,62.0,0.0,510.0,0.0,0.0
64,53.0,512.0,510.0,3.0,0.0
65,57.0,0.0,510.0,2.0,0.0
66,64.0,512.0,510.0,0.0,0.0
67,55.0,512.0,1020.0,2.0,0.0
68,60.0,0.0,510.0,1.0,0.0
69,55.0,0.0,1020.0,3.0,0.0
70,62.0,0.0,510.0,1.0,0.0
71,65.0,0.0,510.0,0.0,0.0
72,43.0,0.0,1020.0,3.0,0.0
73,59.0,1024.0,1020.0,1.0,0.0
74,55.0,512.0,510.0,2.0,0.0
75,62.0,0.0,1020.0,0.0,0.0
76,53.0,0.0,510.0,2.0,0.0
77,48.0,1024.0,1020.0,3.0,0.0
78,52.0,0.0,1020.0,2.0,0.0
79,55.0,0.0,1020.0,1.0,0.0
80,60.0,0.0,1020.0,0.0,0.0
81,67.0,0.0,1020.0,0.0,0.0
82,60.0,0.0,1020.0,2.0,0.0
83,64.0,512.0,1020.0,1.0,0.0
84,48.0,0.0,1020.0,3.0,0.0
85,65.0,0.0,1020.0,1.0,0.0
86,60.0,0.0,510.0,2.0,0.0
87,53.0,512.0,510.0,3.0,0.0
88,69.0,512.0,1020.0,0.0,0.0
89,52.0,0.0,510.0,3.0,0.0
90,62.0,0.0,510.0,2.0,0.0
91,64.0,0.0,1020.0,2.0,0.0
92,57.0,512.0,1020.0,1.0,0.0
93,50.0,512.0,510.0,3.0,0.0
94,69.0,0.0,1020.0,0.0,0.0
95,49.0,0.0,510.0,3.0,0.0
96,62.0,0.0,510.0,1.0,0.0
97,50.0,0.0,510.0,3.0,0.0
98,65.0,0.0,510.0,0.0,0.0
99,57.0,512.0,510.0,2.0,0.0
100,48.0,0.0,510.0,3.0,0.0
101,58.0,512.0,510.0,2.0,0.0
102,67.0,0.0,510.0,0.0,0.0
103,64.0,0.0,510.0,1.0,0.0
104,66.0,0.0,1020.0,1.0,0.0
105,69.0,0.0,1020.0,0.0,0.0
106,46.0,512.0,510.0,3.0,0.0
107,60.0,512.0,1020.0,2.0,0.0
108,45.0,0.0,510.0,3.0,0.0
109,67.0,0.0,1020.0,1.0,0.0
110,70.0,0.0,1020.0,0.0,0.0
111,43.0,0.0,1020.0,3.0,0.0
112,62.0,512.0,510.0,2.0,0.0
113,64.0,512.0,510.0,2.0,0.0
114,45.0,0.0,510.0,3.0,0.0
115,69.0,0.0,1020.0,0.0,0.0
116,65.0,0.0,1020.0,1.0,0.0
117,60.0,512.0,510.0,2.0,0.0
118,62.0,1024.0,510.0,2.0,0.0
119,46.0,0.0,510.0,3.0,0.0
120,64.0,0.0,1020.0,1.0,0.0
121,67.0,1024.0,1020.0,0.0,0.0
122,48.0,0.0,1020.0,3.0,0.0
123,60.0,0.0,1020.0,2.0,0.0
124,62.0,0.0,1020.0,1.0,0.0
125,50.0,0.0,1020.0,3.0,0.0
126,65.0,0.0,1020.0,0.0,0.0
127,57.0,512.0,1020.0,2.0,0.0
128,60.0,512.0,510.0,1.0,0.0
129,55.0,0.0,1020.0,2.0,0.0
130,52.0,0.0,1020.0,3.0,0.0
131,67.0,0.0,1020.0,0.0,0.0
132,58.0,512.0,510.0,1.0,0.0
133,53.0,0.0,1020.0,3.0,0.0
134,48.0,0.0,510.0,2.0,0.0
135,69.0,0.0,1020.0,0.0,0.0
136,57.0,512.0,510.0,1.0,0.0
137,59.0,512.0,510.0,1.0,0.0
138,50.0,0.0,510.0,2.0,0.0
139,60.0,512.0,510.0,1.0,0.0
140,52.0,0.0,1020.0,2.0,0.0
141,48.0,0.0,1020.0,3.0,0.0
142,67.0,512.0,1020.0,0.0,0.0
143,58.0,0.0,510.0,1.0,0.0
144,65.0,0.0,1020.0,0.0,0.0
145,53.0,0.0,1020.0,2.0,0.0
146,50.0,512.0,510.0,3.0,0.0
147,57.0,512.0,1020.0,1.0,0.0
148,48.0,0.0,510.0,3.0,0.0
149,47.0,0.0,1020.0,3.0,0.0
150,55.0,512.0,510.0,2.0,0.0
151,65.0,0.0,1020.0,0.0,0.0
152,62.0,1024.0,1020.0,1.0,0.0
153,57.0,0.0,510.0,2.0,0.0
154,48.0,0.0,1020.0,3.0,0.0
155,58.0,0.0,1020.0,2.0,0.0
156,64.0,0.0,1020.0,0.0,0.0
157,41.0,0.0,2040.0,3.0,0.0
158,57.0,0.0,2040.0,2.0,0.0
159,60.0,2048.0,15.0,1.0,0.0
160,65.0,0.0,2040.0,0.0,0.0
