,note,step,duration,channel,velocity
0,56.0,0.0,120.0,5.0,0.0
1,47.0,0.0,120.0,5.0,0.0
2,51.0,0.0,120.0,5.0,0.0
3,44.0,0.0,120.0,5.0,0.0
4,59.0,0.0,120.0,6.0,0.0
5,63.0,0.0,60.0,6.0,0.0
6,56.0,0.0,120.0,7.0,0.0
7,47.0,0.0,120.0,7.0,0.0
8,63.0,60.0,60.0,4.0,0.0
9,56.0,0.0,60.0,1.0,0.0
10,63.0,0.0,120.0,2.0,0.0
11,44.0,0.0,120.0,3.0,0.0
12,59.0,0.0,120.0,4.0,0.0
13,51.0,60.0,120.0,7.0,0.0
14,44.0,0.0,120.0,7.0,0.0
15,63.0,0.0,60.0,0.0,0.0
16,68.0,0.0,60.0,6.0,0.0
17,68.0,0.0,60.0,0.0,0.0
18,59.0,0.0,60.0,1.0,0.0
19,68.0,0.0,60.0,4.0,0.0
20,63.0,0.0,60.0,6.0,0.0
21,71.0,0.0,60.0,4.0,0.0
22,71.0,0.0,60.0,0.0,0.0
23,63.0,60.0,60.0,4.0,0.0
24,71.0,0.0,60.0,6.0,0.0
25,63.0,0.0,60.0,1.0,0.0
26,61.0,0.0,60.0,1.0,0.0
27,70.0,0.0,60.0,4.0,0.0
28,61.0,0.0,60.0,6.0,0.0
29,70.0,0.0,60.0,6.0,0.0
30,61.0,30.0,60.0,4.0,0.0
31,70.0,0.0,60.0,0.0,0.0
32,56.0,0.0,120.0,7.0,0.0
33,44.0,0.0,120.0,3.0,0.0
34,56.0,0.0,120.0,2.0,0.0
35,63.0,0.0,60.0,0.0,0.0
36,56.0,30.0,120.0,5.0,0.0
37,59.0,0.0,60.0,1.0,0.0
38,59.0,0.0,30.0,6.0,0.0
39,63.0,0.0,60.0,6.0,0.0
40,59.0,30.0,30.0,4.0,0.0
41,63.0,0.0,60.0,4.0,0.0
42,58.0,30.0,30.0,6.0,0.0
43,58.0,0.0,30.0,4.0,0.0
44,59.0,0.0,30.0,1.0,0.0
45,68.0,0.0,30.0,0.0,0.0
46,68.0,30.0,30.0,4.0,0.0
47,68.0,0.0,30.0,6.0,0.0
48,59.0,0.0,30.0,6.0,0.0
49,59.0,0.0,30.0,4.0,0.0
50,70.0,0.0,30.0,6.0,0.0
51,61.0,0.0,30.0,6.0,0.0
52,70.0,0.0,30.0,0.0,0.0
53,61.0,0.0,30.0,1.0,0.0
54,70.0,0.0,30.0,4.0,0.0
55,61.0,0.0,30.0,4.0,0.0
56,63.0,30.0,30.0,1.0,0.0
57,71.0,0.0,30.0,6.0,0.0
58,63.0,0.0,30.0,6.0,0.0
59,71.0,0.0,30.0,0.0,0.0
60,63.0,0.0,30.0,4.0,0.0
61,71.0,0.0,30.0,4.0,0.0
62,70.0,0.0,30.0,4.0,0.0
63,61.0,0.0,30.0,4.0,0.0
64,70.0,0.0,30.0,6.0,0.0
65,61.0,30.0,30.0,1.0,0.0
66,61.0,0.0,30.0,6.0,0.0
67,70.0,0.0,30.0,0.0,0.0
68,71.0,0.0,30.0,0.0,0.0
69,71.0,0.0,30.0,6.0,0.0
70,63.0,0.0,30.0,4.0,0.0
71,71.0,0.0,30.0,4.0,0.0
72,63.0,0.0,30.0,1.0,0.0
73,63.0,30.0,30.0,6.0,0.0
74,61.0,0.0,30.0,1.0,0.0
75,70.0,60.0,30.0,6.0,0.0
76,61.0,0.0,30.0,6.0,0.0
77,61.0,0.0,30.0,4.0,0.0
78,70.0,0.0,30.0,4.0,0.0
79,70.0,0.0,30.0,0.0,0.0
80,44.0,0.0,60.0,5.0,0.0
81,51.0,0.0,60.0,5.0,0.0
82,47.0,30.0,60.0,7.0,0.0
83,51.0,0.0,60.0,7.0,0.0
84,44.0,0.0,60.0,7.0,0.0
85,68.0,0.0,60.0,4.0,0.0
86,59.0,0.0,60.0,4.0,0.0
87,44.0,0.0,60.0,3.0,0.0
88,47.0,0.0,60.0,5.0,0.0
89,59.0,0.0,60.0,6.0,0.0
90,51.0,0.0,60.0,2.0,0.0
91,68.0,0.0,60.0,6.0,0.0
92,68.0,0.0,60.0,0.0,0.0
93,59.0,0.0,60.0,1.0,0.0
94,70.0,0.0,30.0,6.0,0.0
95,70.0,0.0,30.0,0.0,0.0
96,56.0,0.0,60.0,3.0,0.0
97,56.0,0.0,60.0,2.0,0.0
98,70.0,0.0,30.0,4.0,0.0
99,56.0,0.0,60.0,5.0,0.0
100,61.0,30.0,30.0,1.0,0.0
101,56.0,0.0,60.0,7.0,0.0
102,71.0,0.0,30.0,6.0,0.0
103,71.0,0.0,30.0,4.0,0.0
104,63.0,30.0,30.0,1.0,0.0
105,71.0,0.0,30.0,0.0,0.0
106,56.0,0.0,60.0,2.0,0.0
107,73.0,0.0,30.0,4.0,0.0
108,52.0,0.0,60.0,3.0,0.0
109,52.0,0.0,60.0,7.0,0.0
110,73.0,0.0,30.0,6.0,0.0
111,52.0,0.0,60.0,5.0,0.0
112,73.0,30.0,30.0,0.0,0.0
113,56.0,0.0,60.0,1.0,0.0
114,75.0,0.0,30.0,4.0,0.0
115,75.0,60.0,30.0,6.0,0.0
116,75.0,0.0,30.0,0.0,0.0
117,49.0,0.0,60.0,7.0,0.0
118,49.0,0.0,60.0,5.0,0.0
119,49.0,0.0,60.0,3.0,0.0
120,68.0,60.0,60.0,1.0,0.0
121,76.0,0.0,60.0,6.0,0.0
122,42.0,0.0,60.0,7.0,0.0
123,76.0,0.0,15.0,4.0,0.0
124,76.0,0.0,60.0,6.0,0.0
125,42.0,0.0,60.0,5.0,0.0
126,64.0,0.0,15.0,2.0,0.0
127,42.0,60.0,60.0,3.0,0.0
128,76.0,0.0,15.0,0.0,0.0
129,70.0,0.0,60.0,1.0,0.0
130,54.0,0.0,60.0,2.0,0.0
131,61.0,0.0,60.0,1.0,0.0
132,70.0,0.0,60.0,0.0,0.0
133,54.0,0.0,60.0,7.0,0.0
134,54.0,60.0,60.0,5.0,0.0
135,70.0,0.0,60.0,6.0,0.0
136,54.0,0.0,60.0,3.0,0.0
137,70.0,0.0,60.0,4.0,0.0
138,76.0,60.0,60.0,4.0,0.0
139,76.0,0.0,60.0,6.0,0.0
140,70.0,0.0,60.0,4.0,0.0
141,70.0,60.0,60.0,6.0,0.0
142,42.0,0.0,120.0,7.0,0.0
143,46.0,0.0,120.0,7.0,0.0
144,54.0,0.0,120.0,7.0,0.0
145,54.0,0.0,60.0,1.0,0.0
146,58.0,0.0,120.0,4.0,0.0
147,49.0,0.0,120.0,5.0,0.0
148,42.0,0.0,120.0,5.0,0.0
149,46.0,0.0,120.0,5.0,0.0
150,54.0,60.0,120.0,5.0,0.0
151,49.0,0.0,120.0,7.0,0.0
152,61.0,60.0,60.0,4.0,0.0
153,42.0,0.0,120.0,3.0,0.0
154,58.0,0.0,120.0,2.0,0.0
155,58.0,0.0,120.0,6.0,0.0
156,61.0,0.0,60.0,6.0,0.0
157,61.0,0.0,60.0,0.0,0.0
158,58.0,0.0,60.0,1.0,0.0
159,66.0,0.0,60.0,4.0,0.0
160,66.0,0.0,60.0,6.0,0.0
161,66.0,0.0,60.0,0.0,0.0
162,70.0,0.0,60.0,6.0,0.0
163,61.0,60.0,60.0,4.0,0.0
164,61.0,0.0,60.0,6.0,0.0
165,61.0,0.0,60.0,1.0,0.0
166,70.0,0.0,60.0,0.0,0.0
167,70.0,0.0,60.0,4.0,0.0
168,68.0,0.0,60.0,0.0,0.0
169,59.0,0.0,60.0,4.0,0.0
170,68.0,0.0,60.0,4.0,0.0
171,59.0,0.0,60.0,6.0,0.0
172,68.0,0.0,60.0,6.0,0.0
173,59.0,30.0,60.0,1.0,0.0
174,58.0,0.0,30.0,6.0,0.0
175,54.0,0.0,120.0,2.0,0.0
176,42.0,30.0,120.0,3.0,0.0
177,54.0,0.0,120.0,5.0,0.0
178,58.0,0.0,60.0,1.0,0.0
179,61.0,0.0,60.0,6.0,0.0
180,58.0,30.0,30.0,4.0,0.0
181,54.0,0.0,120.0,7.0,0.0
182,61.0,0.0,60.0,0.0,0.0
183,61.0,0.0,60.0,4.0,0.0
184,56.0,0.0,30.0,6.0,0.0
185,56.0,30.0,30.0,4.0,0.0
186,66.0,0.0,30.0,0.0,0.0
187,66.0,0.0,30.0,4.0,0.0
188,58.0,0.0,30.0,4.0,0.0
189,66.0,0.0,30.0,6.0,0.0
190,58.0,0.0,30.0,6.0,0.0
191,58.0,30.0,30.0,1.0,0.0
192,68.0,0.0,30.0,0.0,0.0
193,68.0,0.0,30.0,4.0,0.0
194,59.0,0.0,30.0,1.0,0.0
195,68.0,0.0,30.0,6.0,0.0
196,59.0,0.0,30.0,4.0,0.0
197,59.0,0.0,30.0,6.0,0.0
198,70.0,0.0,30.0,6.0,0.0
199,61.0,0.0,30.0,6.0,0.0
200,70.0,30.0,30.0,0.0,0.0
201,61.0,0.0,30.0,1.0,0.0
202,61.0,0.0,30.0,4.0,0.0
203,70.0,0.0,30.0,4.0,0.0
204,68.0,0.0,30.0,0.0,0.0
205,68.0,0.0,30.0,4.0,0.0
206,59.0,0.0,30.0,1.0,0.0
207,68.0,0.0,30.0,6.0,0.0
208,59.0,0.0,30.0,6.0,0.0
209,59.0,30.0,30.0,4.0,0.0
210,61.0,0.0,30.0,1.0,0.0
211,61.0,0.0,30.0,4.0,0.0
212,70.0,0.0,30.0,4.0,0.0
213,70.0,0.0,30.0,6.0,0.0
214,61.0,0.0,30.0,6.0,0.0
215,70.0,30.0,30.0,0.0,0.0
216,68.0,0.0,30.0,4.0,0.0
217,59.0,60.0,30.0,4.0,0.0
218,59.0,0.0,30.0,1.0,0.0
219,59.0,0.0,30.0,6.0,0.0
220,68.0,0.0,30.0,6.0,0.0
221,68.0,0.0,30.0,0.0,0.0
222,58.0,0.0,60.0,4.0,0.0
223,42.0,0.0,60.0,3.0,0.0
224,66.0,0.0,60.0,6.0,0.0
225,54.0,0.0,60.0,6.0,0.0
226,66.0,0.0,60.0,0.0,0.0
227,58.0,0.0,60.0,6.0,0.0
228,54.0,0.0,60.0,4.0,0.0
229,58.0,0.0,60.0,1.0,0.0
230,49.0,0.0,60.0,2.0,0.0
231,49.0,0.0,60.0,5.0,0.0
232,42.0,0.0,60.0,5.0,0.0
233,46.0,0.0,60.0,5.0,0.0
234,66.0,0.0,60.0,4.0,0.0
235,46.0,30.0,60.0,7.0,0.0
236,42.0,0.0,60.0,7.0,0.0
237,49.0,0.0,60.0,7.0,0.0
238,54.0,0.0,60.0,5.0,0.0
239,54.0,0.0,60.0,7.0,0.0
240,54.0,30.0,60.0,3.0,0.0
241,68.0,30.0,30.0,4.0,0.0
242,68.0,0.0,30.0,6.0,0.0
243,59.0,0.0,30.0,1.0,0.0
244,68.0,0.0,30.0,0.0,0.0
245,70.0,0.0,30.0,4.0,0.0
246,70.0,0.0,30.0,6.0,0.0
247,61.0,0.0,30.0,1.0,0.0
248,70.0,0.0,30.0,0.0,0.0
249,71.0,0.0,30.0,6.0,0.0
250,51.0,0.0,60.0,3.0,0.0
251,71.0,30.0,30.0,4.0,0.0
252,51.0,0.0,60.0,7.0,0.0
253,54.0,0.0,60.0,1.0,0.0
254,54.0,0.0,15.0,2.0,0.0
255,71.0,0.0,30.0,0.0,0.0
256,51.0,0.0,60.0,5.0,0.0
257,73.0,60.0,30.0,0.0,0.0
258,73.0,0.0,30.0,4.0,0.0
259,73.0,0.0,30.0,6.0,0.0
260,75.0,0.0,60.0,4.0,0.0
261,47.0,0.0,60.0,7.0,0.0
262,66.0,0.0,60.0,1.0,0.0
263,47.0,0.0,60.0,5.0,0.0
264,75.0,0.0,60.0,0.0,0.0
265,47.0,0.0,60.0,3.0,0.0
266,75.0,60.0,60.0,6.0,0.0
267,40.0,0.0,60.0,3.0,0.0
268,59.0,0.0,15.0,2.0,0.0
269,75.0,0.0,60.0,4.0,0.0
270,40.0,0.0,60.0,7.0,0.0
271,75.0,0.0,60.0,0.0,0.0
272,40.0,60.0,60.0,5.0,0.0
273,75.0,0.0,60.0,6.0,0.0
274,68.0,0.0,60.0,1.0,0.0
275,52.0,0.0,60.0,7.0,0.0
276,68.0,0.0,60.0,4.0,0.0
277,59.0,0.0,60.0,1.0,0.0
278,68.0,0.0,60.0,0.0,0.0
279,52.0,0.0,60.0,2.0,0.0
280,52.0,60.0,60.0,5.0,0.0
281,52.0,0.0,60.0,3.0,0.0
282,68.0,0.0,60.0,6.0,0.0
283,75.0,60.0,60.0,6.0,0.0
284,75.0,0.0,60.0,4.0,0.0
285,68.0,0.0,60.0,6.0,0.0
286,68.0,30.0,60.0,4.0,0.0
287,52.0,0.0,60.0,5.0,0.0
288,61.0,0.0,120.0,2.0,0.0
289,80.0,0.0,30.0,4.0,0.0
290,40.0,30.0,60.0,7.0,0.0
291,80.0,30.0,30.0,0.0,0.0
292,52.0,0.0,60.0,3.0,0.0
293,78.0,0.0,30.0,4.0,0.0
294,78.0,0.0,30.0,0.0,0.0
295,56.0,0.0,30.0,3.0,0.0
296,76.0,30.0,30.0,4.0,0.0
297,56.0,0.0,30.0,5.0,0.0
298,76.0,0.0,30.0,0.0,0.0
299,44.0,0.0,30.0,7.0,0.0
300,54.0,0.0,30.0,5.0,0.0
301,54.0,0.0,30.0,3.0,0.0
302,75.0,0.0,30.0,0.0,0.0
303,42.0,0.0,30.0,7.0,0.0
304,75.0,30.0,30.0,4.0,0.0
305,73.0,0.0,60.0,0.0,0.0
306,68.0,0.0,30.0,1.0,0.0
307,40.0,0.0,60.0,7.0,0.0
308,52.0,0.0,60.0,3.0,0.0
309,68.0,30.0,30.0,6.0,0.0
310,52.0,0.0,60.0,5.0,0.0
311,66.0,0.0,30.0,1.0,0.0
312,66.0,0.0,30.0,6.0,0.0
313,56.0,0.0,30.0,3.0,0.0
314,73.0,0.0,60.0,0.0,0.0
315,73.0,30.0,15.0,4.0,0.0
316,64.0,30.0,30.0,1.0,0.0
317,56.0,0.0,30.0,5.0,0.0
318,44.0,0.0,30.0,7.0,0.0
319,64.0,0.0,30.0,6.0,0.0
320,63.0,0.0,30.0,6.0,0.0
321,54.0,0.0,30.0,5.0,0.0
322,63.0,0.0,30.0,1.0,0.0
323,42.0,15.0,30.0,7.0,0.0
324,54.0,0.0,30.0,3.0,0.0
325,61.0,0.0,60.0,1.0,0.0
326,52.0,0.0,60.0,3.0,0.0
327,75.0,15.0,15.0,4.0,0.0
328,73.0,0.0,150.0,0.0,0.0
329,61.0,0.0,60.0,6.0,0.0
330,52.0,0.0,60.0,5.0,0.0
331,56.0,15.0,30.0,7.0,0.0
332,40.0,15.0,60.0,7.0,0.0
333,56.0,0.0,30.0,2.0,0.0
334,73.0,0.0,15.0,4.0,0.0
335,54.0,0.0,30.0,2.0,0.0
336,54.0,0.0,30.0,7.0,0.0
337,75.0,15.0,15.0,4.0,0.0
338,73.0,0.0,15.0,4.0,0.0
339,75.0,15.0,15.0,4.0,0.0
340,56.0,15.0,30.0,5.0,0.0
341,56.0,0.0,60.0,6.0,0.0
342,56.0,0.0,60.0,1.0,0.0
343,52.0,0.0,30.0,2.0,0.0
344,56.0,0.0,30.0,3.0,0.0
345,52.0,0.0,30.0,7.0,0.0
346,44.0,0.0,30.0,7.0,0.0
347,73.0,0.0,15.0,4.0,0.0
348,54.0,0.0,30.0,3.0,0.0
349,54.0,0.0,30.0,5.0,0.0
350,75.0,15.0,15.0,4.0,0.0
351,51.0,0.0,30.0,7.0,0.0
352,51.0,0.0,30.0,2.0,0.0
353,42.0,0.0,30.0,7.0,0.0
354,73.0,15.0,15.0,4.0,0.0
355,49.0,0.0,60.0,2.0,0.0
356,52.0,0.0,60.0,5.0,0.0
357,52.0,0.0,60.0,3.0,0.0
358,40.0,30.0,60.0,7.0,0.0
359,49.0,0.0,60.0,7.0,0.0
360,75.0,15.0,15.0,4.0,0.0
361,73.0,30.0,15.0,4.0,0.0
362,68.0,0.0,30.0,0.0,0.0
363,68.0,0.0,30.0,4.0,0.0
364,51.0,0.0,30.0,3.0,0.0
365,73.0,0.0,30.0,0.0,0.0
366,39.0,0.0,60.0,7.0,0.0
367,51.0,0.0,60.0,5.0,0.0
368,73.0,30.0,30.0,4.0,0.0
369,75.0,30.0,30.0,0.0,0.0
370,75.0,0.0,30.0,4.0,0.0
371,37.0,0.0,60.0,7.0,0.0
372,76.0,0.0,30.0,4.0,0.0
373,57.0,0.0,120.0,2.0,0.0
374,49.0,30.0,60.0,5.0,0.0
375,49.0,30.0,30.0,3.0,0.0
376,76.0,0.0,30.0,0.0,0.0
377,75.0,0.0,30.0,0.0,0.0
378,75.0,0.0,30.0,4.0,0.0
379,52.0,0.0,30.0,3.0,0.0
380,40.0,0.0,30.0,7.0,0.0
381,73.0,0.0,30.0,0.0,0.0
382,73.0,30.0,30.0,4.0,0.0
383,52.0,0.0,30.0,5.0,0.0
384,51.0,0.0,30.0,5.0,0.0
385,71.0,0.0,30.0,0.0,0.0
386,39.0,30.0,30.0,7.0,0.0
387,51.0,0.0,30.0,3.0,0.0
388,71.0,0.0,30.0,4.0,0.0
389,49.0,30.0,60.0,3.0,0.0
390,64.0,0.0,30.0,6.0,0.0
391,49.0,0.0,60.0,5.0,0.0
392,69.0,0.0,60.0,0.0,0.0
393,64.0,30.0,30.0,1.0,0.0
394,69.0,0.0,60.0,4.0,0.0
395,37.0,0.0,60.0,7.0,0.0
396,63.0,0.0,30.0,6.0,0.0
397,63.0,0.0,30.0,1.0,0.0
398,52.0,30.0,30.0,5.0,0.0
399,40.0,0.0,30.0,7.0,0.0
400,69.0,0.0,60.0,4.0,0.0
401,61.0,0.0,30.0,6.0,0.0
402,61.0,0.0,30.0,1.0,0.0
403,52.0,0.0,30.0,3.0,0.0
404,51.0,0.0,30.0,3.0,0.0
405,59.0,0.0,30.0,1.0,0.0
406,59.0,0.0,30.0,6.0,0.0
407,51.0,0.0,30.0,5.0,0.0
408,39.0,0.0,30.0,7.0,0.0
409,49.0,0.0,60.0,5.0,0.0
410,71.0,15.0,15.0,4.0,0.0
411,52.0,15.0,30.0,7.0,0.0
412,69.0,15.0,15.0,0.0,0.0
413,37.0,0.0,60.0,7.0,0.0
414,57.0,0.0,60.0,6.0,0.0
415,49.0,15.0,60.0,3.0,0.0
416,52.0,0.0,30.0,2.0,0.0
417,57.0,0.0,60.0,1.0,0.0
418,69.0,0.0,15.0,4.0,0.0
419,51.0,0.0,30.0,2.0,0.0
420,51.0,0.0,30.0,7.0,0.0
421,71.0,15.0,15.0,4.0,0.0
422,69.0,0.0,15.0,4.0,0.0
423,52.0,0.0,30.0,5.0,0.0
424,49.0,0.0,30.0,7.0,0.0
425,40.0,0.0,30.0,7.0,0.0
426,49.0,0.0,30.0,2.0,0.0
427,52.0,0.0,60.0,1.0,0.0
428,71.0,15.0,15.0,4.0,0.0
429,52.0,0.0,60.0,6.0,0.0
430,52.0,0.0,30.0,3.0,0.0
431,69.0,15.0,15.0,4.0,0.0
432,47.0,0.0,30.0,2.0,0.0
433,51.0,0.0,30.0,3.0,0.0
434,39.0,0.0,30.0,7.0,0.0
435,47.0,0.0,30.0,7.0,0.0
436,51.0,15.0,30.0,5.0,0.0
437,71.0,15.0,15.0,4.0,0.0
438,69.0,0.0,15.0,4.0,0.0
439,49.0,30.0,60.0,3.0,0.0
440,49.0,0.0,60.0,5.0,0.0
441,45.0,0.0,60.0,2.0,0.0
442,45.0,0.0,60.0,7.0,0.0
443,37.0,0.0,60.0,7.0,0.0
444,71.0,15.0,15.0,4.0,0.0
445,69.0,30.0,15.0,4.0,0.0
446,64.0,0.0,30.0,0.0,0.0
447,64.0,0.0,30.0,4.0,0.0
448,69.0,30.0,30.0,4.0,0.0
449,69.0,0.0,30.0,0.0,0.0
450,69.0,0.0,30.0,6.0,0.0
451,47.0,30.0,60.0,5.0,0.0
452,47.0,0.0,30.0,3.0,0.0
453,71.0,0.0,30.0,4.0,0.0
454,71.0,0.0,30.0,6.0,0.0
455,71.0,0.0,30.0,0.0,0.0
456,45.0,0.0,30.0,3.0,0.0
457,37.0,0.0,120.0,7.0,0.0
458,73.0,0.0,30.0,0.0,0.0
459,73.0,0.0,30.0,4.0,0.0
460,45.0,30.0,30.0,5.0,0.0
461,73.0,0.0,30.0,6.0,0.0
462,44.0,0.0,30.0,3.0,0.0
463,44.0,0.0,30.0,5.0,0.0
464,75.0,30.0,30.0,4.0,0.0
465,75.0,0.0,30.0,0.0,0.0
466,75.0,0.0,30.0,6.0,0.0
467,76.0,0.0,30.0,6.0,0.0
468,76.0,0.0,30.0,4.0,0.0
469,61.0,0.0,30.0,7.0,0.0
470,43.0,0.0,30.0,5.0,0.0
471,58.0,30.0,30.0,1.0,0.0
472,76.0,0.0,30.0,0.0,0.0
473,43.0,0.0,30.0,3.0,0.0
474,75.0,0.0,30.0,6.0,0.0
475,44.0,0.0,30.0,3.0,0.0
476,59.0,0.0,30.0,7.0,0.0
477,75.0,30.0,30.0,0.0,0.0
478,44.0,0.0,30.0,5.0,0.0
479,59.0,0.0,30.0,1.0,0.0
480,75.0,0.0,30.0,4.0,0.0
481,58.0,0.0,30.0,7.0,0.0
482,61.0,30.0,30.0,1.0,0.0
483,46.0,0.0,30.0,5.0,0.0
484,73.0,0.0,30.0,6.0,0.0
485,46.0,0.0,30.0,3.0,0.0
486,73.0,0.0,30.0,0.0,0.0
487,73.0,0.0,30.0,4.0,0.0
488,47.0,0.0,30.0,3.0,0.0
489,71.0,0.0,30.0,0.0,0.0
490,56.0,0.0,30.0,7.0,0.0
491,71.0,0.0,30.0,6.0,0.0
492,47.0,30.0,30.0,5.0,0.0
493,71.0,0.0,30.0,4.0,0.0
494,63.0,0.0,30.0,1.0,0.0
495,70.0,0.0,30.0,0.0,0.0
496,70.0,0.0,30.0,4.0,0.0
497,64.0,0.0,60.0,1.0,0.0
498,55.0,30.0,30.0,7.0,0.0
499,70.0,0.0,30.0,6.0,0.0
500,49.0,0.0,120.0,3.0,0.0
501,49.0,0.0,120.0,5.0,0.0
502,68.0,60.0,30.0,6.0,0.0
503,68.0,0.0,30.0,4.0,0.0
504,56.0,0.0,30.0,7.0,0.0
505,68.0,0.0,30.0,0.0,0.0
506,67.0,0.0,60.0,6.0,0.0
507,63.0,0.0,60.0,1.0,0.0
508,58.0,0.0,60.0,7.0,0.0
509,67.0,0.0,60.0,0.0,0.0
510,46.0,0.0,60.0,7.0,0.0
511,67.0,30.0,60.0,4.0,0.0
512,75.0,0.0,60.0,0.0,0.0
513,63.0,60.0,60.0,1.0,0.0
514,56.0,0.0,30.0,5.0,0.0
515,47.0,0.0,60.0,3.0,0.0
516,47.0,0.0,60.0,5.0,0.0
517,75.0,0.0,60.0,4.0,0.0
518,44.0,0.0,60.0,7.0,0.0
519,75.0,0.0,60.0,6.0,0.0
520,56.0,30.0,30.0,7.0,0.0
521,55.0,0.0,30.0,5.0,0.0
522,55.0,0.0,30.0,7.0,0.0
523,68.0,0.0,60.0,4.0,0.0
524,56.0,0.0,60.0,5.0,0.0
525,52.0,0.0,60.0,3.0,0.0
526,68.0,0.0,60.0,0.0,0.0
527,56.0,0.0,60.0,7.0,0.0
528,52.0,60.0,60.0,7.0,0.0
529,68.0,0.0,60.0,1.0,0.0
530,73.0,0.0,60.0,4.0,0.0
531,52.0,0.0,15.0,5.0,0.0
532,49.0,0.0,60.0,3.0,0.0
533,49.0,0.0,60.0,5.0,0.0
534,73.0,0.0,60.0,6.0,0.0
535,68.0,0.0,15.0,6.0,0.0
536,73.0,0.0,60.0,0.0,0.0
537,49.0,0.0,60.0,7.0,0.0
538,52.0,0.0,60.0,7.0,0.0
539,71.0,0.0,90.0,4.0,0.0
540,68.0,0.0,15.0,4.0,0.0
541,51.0,30.0,60.0,7.0,0.0
542,51.0,0.0,60.0,3.0,0.0
543,68.0,0.0,15.0,1.0,0.0
544,71.0,0.0,90.0,0.0,0.0
545,51.0,0.0,60.0,5.0,0.0
546,68.0,60.0,15.0,6.0,0.0
547,71.0,0.0,90.0,6.0,0.0
548,49.0,15.0,60.0,3.0,0.0
549,49.0,0.0,60.0,5.0,0.0
550,49.0,0.0,60.0,7.0,0.0
551,61.0,30.0,30.0,2.0,0.0
552,70.0,0.0,30.0,6.0,0.0
553,70.0,0.0,30.0,1.0,0.0
554,70.0,0.0,30.0,4.0,0.0
555,59.0,0.0,30.0,2.0,0.0
556,51.0,0.0,60.0,3.0,0.0
557,67.0,0.0,30.0,1.0,0.0
558,51.0,0.0,60.0,5.0,0.0
559,67.0,0.0,120.0,4.0,0.0
560,51.0,0.0,60.0,7.0,0.0
561,58.0,0.0,30.0,2.0,0.0
562,70.0,0.0,15.0,0.0,0.0
563,71.0,0.0,15.0,4.0,0.0
564,67.0,0.0,120.0,6.0,0.0
565,71.0,15.0,15.0,6.0,0.0
566,70.0,0.0,15.0,4.0,0.0
567,70.0,15.0,15.0,6.0,0.0
568,56.0,0.0,30.0,2.0,0.0
569,65.0,0.0,30.0,1.0,0.0
570,68.0,0.0,30.0,0.0,0.0
571,71.0,15.0,15.0,6.0,0.0
572,71.0,0.0,15.0,4.0,0.0
573,70.0,15.0,15.0,4.0,0.0
574,70.0,0.0,15.0,6.0,0.0
575,39.0,0.0,60.0,3.0,0.0
576,39.0,0.0,60.0,7.0,0.0
577,39.0,0.0,60.0,5.0,0.0
578,71.0,15.0,15.0,6.0,0.0
579,70.0,0.0,30.0,0.0,0.0
580,67.0,30.0,30.0,1.0,0.0
581,55.0,0.0,30.0,2.0,0.0
582,71.0,0.0,15.0,4.0,0.0
583,70.0,0.0,15.0,4.0,0.0
584,70.0,0.0,15.0,6.0,0.0
585,56.0,0.0,30.0,2.0,0.0
586,68.0,0.0,30.0,6.0,0.0
587,65.0,0.0,30.0,1.0,0.0
588,58.0,30.0,60.0,2.0,0.0
589,63.0,0.0,120.0,1.0,0.0
590,44.0,0.0,120.0,7.0,0.0
591,32.0,0.0,120.0,7.0,0.0
592,68.0,0.0,15.0,4.0,0.0
593,63.0,0.0,120.0,4.0,0.0
594,59.0,0.0,120.0,4.0,0.0
595,44.0,0.0,60.0,3.0,0.0
596,44.0,0.0,30.0,5.0,0.0
597,68.0,30.0,30.0,6.0,0.0
598,68.0,30.0,15.0,0.0,0.0
599,47.0,0.0,30.0,5.0,0.0
600,63.0,0.0,30.0,6.0,0.0
601,39.0,0.0,60.0,3.0,0.0
602,56.0,30.0,60.0,2.0,0.0
603,49.0,0.0,30.0,5.0,0.0
604,65.0,30.0,30.0,6.0,0.0
605,67.0,0.0,30.0,6.0,0.0
606,51.0,0.0,30.0,5.0,0.0
607,35.0,0.0,60.0,3.0,0.0
608,44.0,30.0,60.0,5.0,0.0
609,68.0,30.0,30.0,6.0,0.0
610,59.0,0.0,60.0,2.0,0.0
611,64.0,0.0,30.0,4.0,0.0
612,70.0,0.0,30.0,6.0,0.0
613,55.0,0.0,30.0,7.0,0.0
614,63.0,30.0,30.0,4.0,0.0
615,56.0,0.0,30.0,7.0,0.0
616,64.0,0.0,60.0,2.0,0.0
617,71.0,0.0,30.0,6.0,0.0
618,39.0,0.0,60.0,3.0,0.0
619,61.0,0.0,30.0,4.0,0.0
620,58.0,30.0,30.0,7.0,0.0
621,73.0,0.0,30.0,6.0,0.0
622,75.0,0.0,60.0,6.0,0.0
623,32.0,0.0,120.0,3.0,0.0
624,63.0,0.0,60.0,2.0,0.0
625,59.0,30.0,30.0,4.0,0.0
626,59.0,30.0,60.0,7.0,0.0
627,56.0,0.0,30.0,5.0,0.0
628,68.0,0.0,30.0,4.0,0.0
629,55.0,0.0,30.0,5.0,0.0
630,61.0,30.0,30.0,4.0,0.0
631,76.0,0.0,60.0,6.0,0.0
632,64.0,0.0,60.0,2.0,0.0
633,56.0,0.0,30.0,5.0,0.0
634,68.0,30.0,30.0,4.0,0.0
635,59.0,30.0,30.0,4.0,0.0
636,75.0,0.0,60.0,6.0,0.0
637,44.0,0.0,60.0,5.0,0.0
638,56.0,0.0,120.0,0.0,0.0
639,63.0,30.0,60.0,2.0,0.0
640,56.0,30.0,120.0,1.0,0.0
641,68.0,0.0,30.0,4.0,0.0
642,56.0,0.0,30.0,7.0,0.0
643,73.0,0.0,60.0,6.0,0.0
644,58.0,0.0,30.0,4.0,0.0
645,55.0,30.0,30.0,7.0,0.0
646,61.0,0.0,60.0,2.0,0.0
647,68.0,0.0,30.0,4.0,0.0
648,56.0,0.0,30.0,7.0,0.0
649,44.0,0.0,60.0,7.0,0.0
650,59.0,0.0,120.0,2.0,0.0
651,32.0,0.0,120.0,3.0,0.0
652,75.0,30.0,60.0,6.0,0.0
653,59.0,30.0,30.0,4.0,0.0
654,68.0,0.0,30.0,4.0,0.0
655,56.0,0.0,30.0,5.0,0.0
656,55.0,30.0,30.0,5.0,0.0
657,64.0,0.0,30.0,4.0,0.0
658,73.0,30.0,60.0,6.0,0.0
659,56.0,0.0,30.0,5.0,0.0
660,68.0,0.0,30.0,4.0,0.0
661,44.0,0.0,60.0,5.0,0.0
662,56.0,0.0,120.0,1.0,0.0
663,71.0,30.0,60.0,6.0,0.0
664,56.0,0.0,120.0,0.0,0.0
665,63.0,30.0,30.0,4.0,0.0
666,56.0,0.0,30.0,7.0,0.0
667,68.0,0.0,30.0,4.0,0.0
668,55.0,30.0,30.0,7.0,0.0
669,70.0,0.0,60.0,6.0,0.0
670,61.0,0.0,30.0,4.0,0.0
671,68.0,30.0,30.0,4.0,0.0
672,56.0,0.0,30.0,7.0,0.0
673,44.0,30.0,60.0,7.0,0.0
674,63.0,30.0,30.0,4.0,0.0
675,32.0,0.0,120.0,3.0,0.0
676,71.0,0.0,60.0,6.0,0.0
677,56.0,0.0,30.0,5.0,0.0
678,68.0,0.0,30.0,4.0,0.0
679,55.0,0.0,30.0,5.0,0.0
680,76.0,0.0,60.0,6.0,0.0
681,61.0,30.0,30.0,4.0,0.0
682,68.0,0.0,30.0,4.0,0.0
683,56.0,30.0,30.0,5.0,0.0
684,44.0,30.0,60.0,5.0,0.0
685,59.0,30.0,30.0,4.0,0.0
686,75.0,0.0,60.0,6.0,0.0
687,56.0,0.0,120.0,0.0,0.0
688,56.0,0.0,120.0,1.0,0.0
689,68.0,0.0,30.0,4.0,0.0
690,56.0,0.0,30.0,7.0,0.0
691,73.0,0.0,60.0,6.0,0.0
692,55.0,30.0,30.0,7.0,0.0
693,58.0,0.0,30.0,4.0,0.0
694,68.0,30.0,30.0,4.0,0.0
695,56.0,0.0,30.0,7.0,0.0
696,44.0,0.0,60.0,7.0,0.0
697,75.0,0.0,30.0,6.0,0.0
698,59.0,30.0,30.0,4.0,0.0
699,32.0,30.0,60.0,3.0,0.0
700,73.0,0.0,30.0,6.0,0.0
701,58.0,0.0,30.0,4.0,0.0
702,71.0,0.0,30.0,6.0,0.0
703,59.0,0.0,30.0,2.0,0.0
704,56.0,0.0,30.0,4.0,0.0
705,75.0,0.0,30.0,0.0,0.0
706,63.0,0.0,30.0,1.0,0.0
707,44.0,0.0,30.0,5.0,0.0
708,44.0,30.0,30.0,3.0,0.0
709,70.0,0.0,30.0,6.0,0.0
710,58.0,30.0,30.0,4.0,0.0
711,43.0,0.0,30.0,3.0,0.0
712,43.0,0.0,30.0,5.0,0.0
713,68.0,0.0,30.0,1.0,0.0
714,59.0,0.0,30.0,4.0,0.0
715,71.0,0.0,30.0,0.0,0.0
716,68.0,30.0,60.0,6.0,0.0
717,44.0,0.0,30.0,5.0,0.0
718,63.0,30.0,30.0,2.0,0.0
719,44.0,0.0,30.0,3.0,0.0
720,46.0,0.0,30.0,5.0,0.0
721,44.0,0.0,30.0,7.0,0.0
722,46.0,0.0,30.0,3.0,0.0
723,61.0,0.0,30.0,4.0,0.0
724,43.0,0.0,30.0,7.0,0.0
725,47.0,0.0,30.0,3.0,0.0
726,47.0,0.0,30.0,5.0,0.0
727,63.0,30.0,30.0,4.0,0.0
728,49.0,0.0,30.0,5.0,0.0
729,65.0,0.0,30.0,4.0,0.0
730,41.0,0.0,30.0,7.0,0.0
731,49.0,30.0,30.0,3.0,0.0
732,39.0,30.0,30.0,7.0,0.0
733,67.0,0.0,30.0,4.0,0.0
734,51.0,0.0,60.0,5.0,0.0
735,51.0,0.0,120.0,3.0,0.0
736,70.0,0.0,60.0,6.0,0.0
737,63.0,0.0,30.0,4.0,0.0
738,51.0,30.0,30.0,7.0,0.0
739,68.0,0.0,30.0,4.0,0.0
740,71.0,0.0,60.0,6.0,0.0
741,50.0,30.0,30.0,7.0,0.0
742,63.0,0.0,30.0,4.0,0.0
743,51.0,30.0,30.0,7.0,0.0
744,70.0,30.0,30.0,4.0,0.0
745,63.0,0.0,120.0,2.0,0.0
746,63.0,0.0,120.0,1.0,0.0
747,73.0,30.0,60.0,6.0,0.0
748,55.0,0.0,60.0,7.0,0.0
749,63.0,0.0,120.0,0.0,0.0
750,63.0,0.0,30.0,4.0,0.0
751,51.0,0.0,30.0,5.0,0.0
752,50.0,0.0,30.0,5.0,0.0
753,71.0,30.0,60.0,6.0,0.0
754,68.0,30.0,30.0,4.0,0.0
755,63.0,0.0,30.0,4.0,0.0
756,51.0,0.0,30.0,5.0,0.0
757,67.0,30.0,30.0,4.0,0.0
758,39.0,0.0,60.0,5.0,0.0
759,70.0,0.0,60.0,6.0,0.0
760,51.0,0.0,120.0,3.0,0.0
761,63.0,0.0,30.0,4.0,0.0
762,55.0,30.0,30.0,7.0,0.0
763,76.0,30.0,60.0,6.0,0.0
764,58.0,0.0,30.0,7.0,0.0
765,61.0,30.0,30.0,4.0,0.0
766,61.0,0.0,30.0,7.0,0.0
767,58.0,0.0,30.0,4.0,0.0
768,63.0,0.0,120.0,2.0,0.0
769,75.0,0.0,60.0,6.0,0.0
770,63.0,30.0,120.0,0.0,0.0
771,63.0,0.0,120.0,1.0,0.0
772,59.0,30.0,60.0,7.0,0.0
773,59.0,30.0,30.0,4.0,0.0
774,63.0,0.0,30.0,4.0,0.0
775,51.0,0.0,30.0,5.0,0.0
776,50.0,0.0,30.0,5.0,0.0
777,71.0,0.0,60.0,6.0,0.0
778,68.0,30.0,30.0,4.0,0.0
779,51.0,0.0,30.0,5.0,0.0
780,71.0,0.0,30.0,4.0,0.0
781,76.0,30.0,30.0,4.0,0.0
782,58.0,0.0,60.0,5.0,0.0
783,67.0,0.0,60.0,6.0,0.0
784,51.0,0.0,120.0,3.0,0.0
785,73.0,0.0,30.0,4.0,0.0
786,58.0,30.0,30.0,7.0,0.0
787,70.0,30.0,30.0,4.0,0.0
788,73.0,30.0,60.0,6.0,0.0
789,55.0,0.0,30.0,7.0,0.0
790,51.0,0.0,30.0,7.0,0.0
791,67.0,0.0,30.0,4.0,0.0
792,63.0,30.0,120.0,0.0,0.0
793,63.0,30.0,90.0,2.0,0.0
794,63.0,0.0,120.0,1.0,0.0
795,71.0,30.0,60.0,6.0,0.0
796,56.0,0.0,30.0,7.0,0.0
797,68.0,30.0,30.0,4.0,0.0
798,51.0,0.0,30.0,7.0,0.0
799,71.0,0.0,30.0,4.0,0.0
800,56.0,0.0,30.0,5.0,0.0
801,74.0,0.0,30.0,4.0,0.0
802,47.0,0.0,30.0,7.0,0.0
803,59.0,0.0,30.0,5.0,0.0
804,68.0,0.0,60.0,6.0,0.0
805,62.0,0.0,30.0,5.0,0.0
806,77.0,0.0,30.0,4.0,0.0
807,44.0,0.0,30.0,7.0,0.0
808,51.0,0.0,30.0,7.0,0.0
809,80.0,30.0,30.0,4.0,0.0
810,39.0,0.0,60.0,3.0,0.0
811,71.0,0.0,60.0,6.0,0.0
812,63.0,0.0,60.0,5.0,0.0
813,77.0,0.0,30.0,4.0,0.0
814,39.0,30.0,30.0,7.0,0.0
815,51.0,0.0,60.0,5.0,0.0
816,67.0,0.0,30.0,0.0,0.0
817,63.0,0.0,30.0,1.0,0.0
818,70.0,30.0,60.0,6.0,0.0
819,51.0,30.0,30.0,7.0,0.0
820,79.0,0.0,30.0,4.0,0.0
821,51.0,0.0,30.0,3.0,0.0
822,58.0,0.0,30.0,2.0,0.0
823,82.0,0.0,30.0,4.0,0.0
824,49.0,0.0,30.0,3.0,0.0
825,49.0,0.0,30.0,7.0,0.0
826,47.0,0.0,30.0,3.0,0.0
827,68.0,0.0,30.0,0.0,0.0
828,75.0,0.0,30.0,4.0,0.0
829,59.0,30.0,30.0,2.0,0.0
830,68.0,0.0,30.0,1.0,0.0
831,47.0,0.0,30.0,7.0,0.0
832,46.0,30.0,30.0,3.0,0.0
833,39.0,0.0,30.0,5.0,0.0
834,46.0,0.0,30.0,7.0,0.0
835,73.0,0.0,30.0,4.0,0.0
836,58.0,0.0,30.0,0.0,0.0
837,63.0,0.0,30.0,1.0,0.0
838,44.0,30.0,30.0,7.0,0.0
839,63.0,0.0,30.0,2.0,0.0
840,41.0,0.0,30.0,5.0,0.0
841,71.0,0.0,30.0,4.0,0.0
842,44.0,0.0,30.0,3.0,0.0
843,43.0,0.0,30.0,5.0,0.0
844,70.0,0.0,30.0,4.0,0.0
845,43.0,60.0,30.0,3.0,0.0
846,43.0,0.0,30.0,7.0,0.0
847,44.0,0.0,120.0,7.0,0.0
848,51.0,0.0,120.0,7.0,0.0
849,51.0,0.0,120.0,5.0,0.0
850,59.0,0.0,120.0,2.0,0.0
851,44.0,60.0,120.0,5.0,0.0
852,47.0,0.0,120.0,7.0,0.0
853,59.0,0.0,120.0,4.0,0.0
854,56.0,0.0,60.0,1.0,0.0
855,47.0,0.0,120.0,5.0,0.0
856,44.0,0.0,120.0,3.0,0.0
857,59.0,0.0,120.0,6.0,0.0
858,63.0,0.0,60.0,4.0,0.0
859,63.0,0.0,60.0,0.0,0.0
860,63.0,60.0,60.0,6.0,0.0
861,56.0,0.0,120.0,7.0,0.0
862,56.0,0.0,120.0,5.0,0.0
863,59.0,0.0,60.0,1.0,0.0
864,68.0,0.0,60.0,0.0,0.0
865,68.0,0.0,60.0,6.0,0.0
866,68.0,0.0,60.0,4.0,0.0
867,71.0,0.0,60.0,4.0,0.0
868,63.0,0.0,60.0,1.0,0.0
869,71.0,0.0,60.0,6.0,0.0
870,63.0,60.0,60.0,6.0,0.0
871,63.0,0.0,60.0,4.0,0.0
872,71.0,0.0,60.0,0.0,0.0
873,70.0,0.0,60.0,0.0,0.0
874,61.0,30.0,60.0,1.0,0.0
875,61.0,0.0,60.0,6.0,0.0
876,61.0,0.0,60.0,4.0,0.0
877,70.0,0.0,60.0,4.0,0.0
878,70.0,0.0,60.0,6.0,0.0
879,63.0,30.0,60.0,6.0,0.0
880,59.0,30.0,30.0,6.0,0.0
881,56.0,0.0,120.0,7.0,0.0
882,56.0,0.0,120.0,2.0,0.0
883,59.0,0.0,30.0,4.0,0.0
884,44.0,0.0,120.0,3.0,0.0
885,63.0,0.0,60.0,0.0,0.0
886,59.0,0.0,60.0,1.0,0.0
887,56.0,0.0,120.0,5.0,0.0
888,63.0,0.0,60.0,4.0,0.0
889,58.0,0.0,30.0,4.0,0.0
890,58.0,0.0,30.0,6.0,0.0
891,68.0,0.0,30.0,0.0,0.0
892,59.0,0.0,30.0,1.0,0.0
893,59.0,0.0,30.0,4.0,0.0
894,68.0,0.0,30.0,4.0,0.0
895,68.0,0.0,30.0,6.0,0.0
896,59.0,30.0,30.0,6.0,0.0
897,70.0,30.0,30.0,0.0,0.0
898,70.0,0.0,30.0,4.0,0.0
899,61.0,0.0,30.0,1.0,0.0
900,61.0,0.0,30.0,4.0,0.0
901,61.0,0.0,30.0,6.0,0.0
902,70.0,0.0,30.0,6.0,0.0
903,63.0,0.0,30.0,6.0,0.0
904,71.0,0.0,30.0,4.0,0.0
905,63.0,0.0,30.0,4.0,0.0
906,71.0,0.0,30.0,6.0,0.0
907,63.0,30.0,30.0,1.0,0.0
908,71.0,0.0,30.0,0.0,0.0
909,61.0,30.0,30.0,4.0,0.0
910,70.0,0.0,30.0,4.0,0.0
911,61.0,0.0,30.0,1.0,0.0
912,61.0,0.0,30.0,6.0,0.0
913,70.0,0.0,30.0,6.0,0.0
914,70.0,0.0,30.0,0.0,0.0
915,63.0,0.0,30.0,6.0,0.0
916,71.0,0.0,30.0,6.0,0.0
917,71.0,0.0,30.0,0.0,0.0
918,63.0,30.0,30.0,4.0,0.0
919,71.0,0.0,30.0,4.0,0.0
920,63.0,0.0,30.0,1.0,0.0
921,70.0,0.0,30.0,0.0,0.0
922,70.0,0.0,30.0,6.0,0.0
923,61.0,0.0,30.0,1.0,0.0
924,61.0,60.0,30.0,6.0,0.0
925,70.0,0.0,30.0,4.0,0.0
926,61.0,0.0,30.0,4.0,0.0
927,56.0,0.0,60.0,4.0,0.0
928,44.0,0.0,60.0,3.0,0.0
929,68.0,0.0,60.0,0.0,0.0
930,51.0,0.0,60.0,2.0,0.0
931,68.0,0.0,60.0,6.0,0.0
932,59.0,0.0,60.0,6.0,0.0
933,59.0,0.0,60.0,4.0,0.0
934,51.0,0.0,60.0,7.0,0.0
935,44.0,0.0,60.0,7.0,0.0
936,56.0,0.0,60.0,6.0,0.0
937,47.0,0.0,60.0,7.0,0.0
938,59.0,0.0,60.0,1.0,0.0
939,68.0,0.0,60.0,4.0,0.0
940,47.0,0.0,60.0,5.0,0.0
941,51.0,0.0,60.0,5.0,0.0
942,44.0,30.0,60.0,5.0,0.0
943,70.0,0.0,30.0,6.0,0.0
944,61.0,0.0,30.0,1.0,0.0
945,56.0,0.0,60.0,3.0,0.0
946,70.0,30.0,30.0,4.0,0.0
947,56.0,0.0,60.0,7.0,0.0
948,56.0,0.0,60.0,2.0,0.0
949,56.0,0.0,60.0,5.0,0.0
950,70.0,0.0,30.0,0.0,0.0
951,71.0,0.0,30.0,0.0,0.0
952,63.0,0.0,30.0,1.0,0.0
953,71.0,0.0,30.0,6.0,0.0
954,71.0,30.0,30.0,4.0,0.0
955,52.0,60.0,60.0,7.0,0.0
956,56.0,0.0,60.0,1.0,0.0
957,56.0,0.0,60.0,2.0,0.0
958,73.0,0.0,30.0,6.0,0.0
959,52.0,0.0,60.0,3.0,0.0
960,73.0,30.0,30.0,0.0,0.0
961,73.0,0.0,30.0,4.0,0.0
962,52.0,0.0,60.0,5.0,0.0
963,75.0,0.0,30.0,4.0,0.0
964,75.0,0.0,30.0,0.0,0.0
965,75.0,0.0,30.0,6.0,0.0
966,68.0,0.0,60.0,1.0,0.0
967,49.0,0.0,60.0,5.0,0.0
968,49.0,15.0,60.0,3.0,0.0
969,64.0,0.0,60.0,2.0,0.0
970,49.0,0.0,60.0,7.0,0.0
971,76.0,0.0,15.0,6.0,0.0
972,76.0,0.0,15.0,4.0,0.0
973,64.0,0.0,60.0,2.0,0.0
974,54.0,15.0,60.0,5.0,0.0
975,70.0,0.0,60.0,1.0,0.0
976,42.0,0.0,60.0,3.0,0.0
977,42.0,0.0,30.0,7.0,0.0
978,76.0,0.0,15.0,0.0,0.0
979,78.0,15.0,15.0,6.0,0.0
980,49.0,0.0,30.0,7.0,0.0
981,76.0,15.0,15.0,6.0,0.0
982,78.0,0.0,15.0,6.0,0.0
983,54.0,0.0,60.0,3.0,0.0
984,54.0,0.0,60.0,2.0,0.0
985,54.0,15.0,30.0,7.0,0.0
986,70.0,0.0,60.0,0.0,0.0
987,76.0,15.0,15.0,6.0,0.0
988,42.0,0.0,60.0,5.0,0.0
989,70.0,0.0,60.0,4.0,0.0
990,61.0,0.0,60.0,1.0,0.0
991,78.0,0.0,15.0,6.0,0.0
992,76.0,15.0,15.0,6.0,0.0
993,56.0,15.0,30.0,7.0,0.0
994,78.0,0.0,15.0,6.0,0.0
995,54.0,15.0,30.0,4.0,0.0
996,76.0,15.0,15.0,6.0,0.0
997,73.0,0.0,60.0,0.0,0.0
998,58.0,0.0,30.0,7.0,0.0
999,78.0,0.0,15.0,6.0,0.0
1000,76.0,15.0,15.0,6.0,0.0
1001,59.0,0.0,30.0,7.0,0.0
1002,56.0,15.0,30.0,4.0,0.0
1003,78.0,0.0,15.0,6.0,0.0
1004,76.0,15.0,15.0,6.0,0.0
1005,61.0,0.0,30.0,7.0,0.0
1006,58.0,0.0,30.0,4.0,0.0
1007,66.0,0.0,60.0,0.0,0.0
1008,78.0,15.0,15.0,6.0,0.0
1009,76.0,15.0,15.0,6.0,0.0
1010,63.0,0.0,30.0,7.0,0.0
1011,59.0,30.0,30.0,4.0,0.0
1012,78.0,0.0,15.0,6.0,0.0
1013,76.0,30.0,60.0,6.0,0.0
1014,61.0,0.0,60.0,7.0,0.0
1015,42.0,0.0,60.0,5.0,0.0
1016,61.0,30.0,30.0,4.0,0.0
1017,70.0,0.0,60.0,0.0,0.0
1018,54.0,0.0,30.0,4.0,0.0
1019,75.0,0.0,60.0,6.0,0.0
1020,59.0,30.0,30.0,4.0,0.0
1021,44.0,0.0,60.0,5.0,0.0
1022,54.0,30.0,30.0,4.0,0.0
1023,42.0,0.0,60.0,7.0,0.0
1024,46.0,0.0,60.0,5.0,0.0
1025,64.0,30.0,30.0,4.0,0.0
1026,73.0,30.0,60.0,6.0,0.0
1027,54.0,0.0,30.0,4.0,0.0
1028,63.0,30.0,30.0,4.0,0.0
1029,47.0,0.0,60.0,5.0,0.0
1030,71.0,0.0,60.0,6.0,0.0
1031,44.0,0.0,60.0,7.0,0.0
1032,54.0,30.0,30.0,4.0,0.0
1033,49.0,30.0,60.0,5.0,0.0
1034,61.0,30.0,30.0,4.0,0.0
1035,46.0,0.0,60.0,7.0,0.0
1036,70.0,0.0,60.0,6.0,0.0
1037,54.0,0.0,30.0,4.0,0.0
1038,68.0,0.0,60.0,6.0,0.0
1039,47.0,0.0,60.0,7.0,0.0
1040,59.0,30.0,30.0,4.0,0.0
1041,51.0,30.0,60.0,5.0,0.0
1042,54.0,0.0,30.0,4.0,0.0
1043,58.0,30.0,30.0,4.0,0.0
1044,66.0,0.0,60.0,6.0,0.0
1045,49.0,0.0,60.0,5.0,0.0
1046,49.0,0.0,60.0,7.0,0.0
1047,54.0,30.0,30.0,4.0,0.0
1048,65.0,0.0,60.0,6.0,0.0
1049,47.0,0.0,60.0,5.0,0.0
1050,37.0,0.0,60.0,7.0,0.0
1051,56.0,30.0,30.0,4.0,0.0
1052,54.0,60.0,30.0,4.0,0.0
1053,46.0,0.0,120.0,5.0,0.0
1054,54.0,0.0,120.0,5.0,0.0
1055,42.0,0.0,120.0,5.0,0.0
1056,61.0,0.0,60.0,6.0,0.0
1057,58.0,0.0,120.0,2.0,0.0
1058,54.0,0.0,120.0,7.0,0.0
1059,46.0,0.0,120.0,7.0,0.0
1060,42.0,0.0,120.0,7.0,0.0
1061,49.0,0.0,120.0,7.0,0.0
1062,58.0,0.0,120.0,6.0,0.0
1063,49.0,0.0,120.0,5.0,0.0
1064,61.0,60.0,60.0,4.0,0.0
1065,42.0,60.0,120.0,3.0,0.0
1066,58.0,0.0,120.0,4.0,0.0
1067,54.0,0.0,60.0,1.0,0.0
1068,61.0,0.0,60.0,0.0,0.0
1069,58.0,0.0,60.0,1.0,0.0
1070,66.0,0.0,60.0,0.0,0.0
1071,66.0,0.0,60.0,4.0,0.0
1072,66.0,0.0,60.0,6.0,0.0
1073,61.0,0.0,60.0,4.0,0.0
1074,70.0,0.0,60.0,6.0,0.0
1075,61.0,0.0,60.0,6.0,0.0
1076,70.0,60.0,60.0,0.0,0.0
1077,61.0,0.0,60.0,1.0,0.0
1078,70.0,0.0,60.0,4.0,0.0
1079,68.0,0.0,60.0,4.0,0.0
1080,59.0,0.0,60.0,1.0,0.0
1081,59.0,30.0,60.0,4.0,0.0
1082,59.0,0.0,60.0,6.0,0.0
1083,68.0,0.0,60.0,0.0,0.0
1084,68.0,0.0,60.0,6.0,0.0
1085,58.0,0.0,30.0,6.0,0.0
1086,61.0,0.0,60.0,6.0,0.0
1087,54.0,0.0,120.0,7.0,0.0
1088,58.0,0.0,60.0,1.0,0.0
1089,54.0,30.0,120.0,2.0,0.0
1090,58.0,30.0,30.0,4.0,0.0
1091,61.0,0.0,60.0,4.0,0.0
1092,54.0,0.0,120.0,5.0,0.0
1093,42.0,0.0,120.0,3.0,0.0
1094,61.0,0.0,60.0,0.0,0.0
1095,56.0,30.0,30.0,6.0,0.0
1096,56.0,0.0,30.0,4.0,0.0
1097,66.0,0.0,30.0,4.0,0.0
1098,66.0,0.0,30.0,0.0,0.0
1099,58.0,0.0,30.0,6.0,0.0
1100,58.0,0.0,30.0,1.0,0.0
1101,58.0,0.0,30.0,4.0,0.0
1102,66.0,30.0,30.0,6.0,0.0
1103,59.0,0.0,30.0,6.0,0.0
1104,68.0,0.0,30.0,6.0,0.0
1105,68.0,0.0,30.0,0.0,0.0
1106,59.0,0.0,30.0,1.0,0.0
1107,59.0,0.0,30.0,4.0,0.0
1108,68.0,0.0,30.0,4.0,0.0
1109,70.0,0.0,30.0,6.0,0.0
1110,70.0,0.0,30.0,0.0,0.0
1111,61.0,0.0,30.0,4.0,0.0
1112,70.0,0.0,30.0,4.0,0.0
1113,61.0,0.0,30.0,6.0,0.0
1114,61.0,30.0,30.0,1.0,0.0
1115,59.0,0.0,30.0,6.0,0.0
1116,68.0,0.0,30.0,6.0,0.0
1117,68.0,0.0,30.0,0.0,0.0
1118,59.0,30.0,30.0,4.0,0.0
1119,68.0,0.0,30.0,4.0,0.0
1120,59.0,0.0,30.0,1.0,0.0
1121,61.0,0.0,30.0,1.0,0.0
1122,70.0,0.0,30.0,4.0,0.0
1123,61.0,0.0,30.0,6.0,0.0
1124,70.0,30.0,30.0,0.0,0.0
1125,61.0,0.0,30.0,4.0,0.0
1126,70.0,0.0,30.0,6.0,0.0
1127,59.0,0.0,30.0,1.0,0.0
1128,68.0,0.0,30.0,4.0,0.0
1129,59.0,60.0,30.0,4.0,0.0
1130,68.0,0.0,30.0,0.0,0.0
1131,59.0,0.0,30.0,6.0,0.0
1132,68.0,0.0,30.0,6.0,0.0
1133,46.0,0.0,60.0,7.0,0.0
1134,49.0,0.0,60.0,7.0,0.0
1135,42.0,0.0,60.0,3.0,0.0
1136,46.0,0.0,60.0,5.0,0.0
1137,49.0,0.0,60.0,2.0,0.0
1138,58.0,0.0,60.0,1.0,0.0
1139,42.0,0.0,60.0,7.0,0.0
1140,66.0,0.0,60.0,6.0,0.0
1141,54.0,0.0,60.0,6.0,0.0
1142,66.0,0.0,60.0,0.0,0.0
1143,54.0,0.0,60.0,4.0,0.0
1144,58.0,0.0,60.0,4.0,0.0
1145,58.0,30.0,60.0,6.0,0.0
1146,66.0,0.0,60.0,4.0,0.0
1147,54.0,0.0,60.0,3.0,0.0
1148,54.0,0.0,15.0,5.0,0.0
1149,68.0,0.0,30.0,4.0,0.0
1150,68.0,0.0,30.0,0.0,0.0
1151,59.0,0.0,30.0,1.0,0.0
1152,54.0,0.0,60.0,2.0,0.0
1153,54.0,30.0,60.0,7.0,0.0
1154,68.0,30.0,30.0,6.0,0.0
1155,61.0,0.0,30.0,1.0,0.0
1156,70.0,0.0,30.0,4.0,0.0
1157,70.0,0.0,30.0,0.0,0.0
1158,70.0,0.0,30.0,6.0,0.0
1159,71.0,30.0,30.0,4.0,0.0
1160,71.0,0.0,30.0,0.0,0.0
1161,71.0,0.0,30.0,6.0,0.0
1162,51.0,0.0,60.0,5.0,0.0
1163,54.0,0.0,60.0,2.0,0.0
1164,51.0,0.0,60.0,7.0,0.0
1165,51.0,60.0,60.0,3.0,0.0
1166,54.0,0.0,60.0,1.0,0.0
1167,73.0,0.0,30.0,6.0,0.0
1168,73.0,0.0,30.0,4.0,0.0
1169,73.0,0.0,30.0,0.0,0.0
1170,47.0,15.0,60.0,5.0,0.0
1171,66.0,0.0,60.0,1.0,0.0
1172,47.0,0.0,60.0,7.0,0.0
1173,47.0,0.0,60.0,3.0,0.0
1174,59.0,0.0,60.0,2.0,0.0
1175,68.0,0.0,60.0,1.0,0.0
1176,75.0,0.0,15.0,4.0,0.0
1177,75.0,0.0,15.0,0.0,0.0
1178,75.0,0.0,15.0,6.0,0.0
1179,40.0,15.0,60.0,3.0,0.0
1180,40.0,0.0,30.0,7.0,0.0
1181,59.0,0.0,60.0,2.0,0.0
1182,52.0,0.0,60.0,5.0,0.0
1183,76.0,15.0,15.0,6.0,0.0
1184,75.0,15.0,15.0,6.0,0.0
1185,47.0,0.0,30.0,7.0,0.0
1186,76.0,0.0,15.0,6.0,0.0
1187,59.0,0.0,60.0,1.0,0.0
1188,40.0,0.0,60.0,5.0,0.0
1189,68.0,0.0,60.0,0.0,0.0
1190,75.0,15.0,15.0,6.0,0.0
1191,52.0,15.0,60.0,2.0,0.0
1192,52.0,15.0,30.0,7.0,0.0
1193,52.0,0.0,60.0,3.0,0.0
1194,68.0,0.0,60.0,4.0,0.0
1195,76.0,0.0,15.0,6.0,0.0
1196,75.0,15.0,15.0,6.0,0.0
1197,54.0,0.0,30.0,7.0,0.0
1198,76.0,0.0,15.0,6.0,0.0
1199,71.0,0.0,60.0,0.0,0.0
1200,56.0,0.0,30.0,4.0,0.0
1201,56.0,0.0,30.0,7.0,0.0
1202,75.0,15.0,15.0,6.0,0.0
1203,76.0,15.0,15.0,6.0,0.0
1204,58.0,15.0,30.0,7.0,0.0
1205,55.0,0.0,30.0,4.0,0.0
1206,75.0,15.0,15.0,6.0,0.0
1207,76.0,0.0,15.0,6.0,0.0
1208,63.0,0.0,60.0,0.0,0.0
1209,56.0,0.0,30.0,4.0,0.0
1210,75.0,15.0,15.0,6.0,0.0
1211,59.0,15.0,30.0,7.0,0.0
1212,76.0,0.0,15.0,6.0,0.0
1213,61.0,30.0,30.0,7.0,0.0
1214,75.0,15.0,15.0,6.0,0.0
1215,58.0,0.0,30.0,4.0,0.0
1216,76.0,0.0,15.0,6.0,0.0
1217,75.0,0.0,60.0,6.0,0.0
1218,59.0,30.0,30.0,4.0,0.0
1219,44.0,0.0,60.0,5.0,0.0
1220,59.0,30.0,60.0,7.0,0.0
1221,68.0,0.0,60.0,0.0,0.0
1222,56.0,0.0,30.0,4.0,0.0
1223,46.0,30.0,60.0,5.0,0.0
1224,76.0,0.0,60.0,6.0,0.0
1225,61.0,30.0,30.0,4.0,0.0
1226,55.0,0.0,60.0,7.0,0.0
1227,56.0,0.0,30.0,4.0,0.0
1228,56.0,0.0,60.0,7.0,0.0
1229,47.0,0.0,60.0,5.0,0.0
1230,75.0,0.0,60.0,6.0,0.0
1231,59.0,30.0,30.0,4.0,0.0
1232,56.0,30.0,30.0,4.0,0.0
1233,49.0,0.0,60.0,5.0,0.0
1234,58.0,0.0,60.0,7.0,0.0
1235,73.0,0.0,60.0,6.0,0.0
1236,64.0,30.0,30.0,4.0,0.0
1237,56.0,30.0,30.0,4.0,0.0
1238,71.0,30.0,60.0,6.0,0.0
1239,51.0,0.0,60.0,5.0,0.0
1240,63.0,30.0,30.0,4.0,0.0
1241,59.0,0.0,60.0,7.0,0.0
1242,56.0,0.0,30.0,4.0,0.0
1243,52.0,0.0,60.0,5.0,0.0
1244,61.0,0.0,60.0,7.0,0.0
1245,70.0,30.0,60.0,6.0,0.0
1246,61.0,30.0,30.0,4.0,0.0
1247,56.0,0.0,30.0,4.0,0.0
1248,68.0,30.0,60.0,6.0,0.0
1249,63.0,0.0,30.0,7.0,0.0
1250,59.0,30.0,30.0,4.0,0.0
1251,51.0,0.0,60.0,5.0,0.0
1252,63.0,0.0,30.0,7.0,0.0
1253,56.0,0.0,30.0,4.0,0.0
1254,39.0,0.0,60.0,5.0,0.0
1255,58.0,0.0,30.0,4.0,0.0
1256,61.0,30.0,30.0,7.0,0.0
1257,67.0,30.0,60.0,6.0,0.0
1258,63.0,0.0,30.0,7.0,0.0
1259,56.0,0.0,30.0,4.0,0.0
1260,68.0,0.0,30.0,0.0,0.0
1261,59.0,0.0,30.0,7.0,0.0
1262,68.0,0.0,180.0,6.0,0.0
1263,52.0,0.0,60.0,3.0,0.0
1264,40.0,0.0,60.0,5.0,0.0
1265,68.0,30.0,30.0,4.0,0.0
1266,66.0,30.0,30.0,0.0,0.0
1267,66.0,0.0,30.0,4.0,0.0
1268,61.0,0.0,30.0,7.0,0.0
1269,59.0,0.0,30.0,7.0,0.0
1270,64.0,0.0,30.0,4.0,0.0
1271,56.0,30.0,30.0,3.0,0.0
1272,56.0,0.0,30.0,5.0,0.0
1273,64.0,0.0,30.0,0.0,0.0
1274,54.0,30.0,30.0,5.0,0.0
1275,63.0,0.0,30.0,0.0,0.0
1276,63.0,0.0,30.0,4.0,0.0
1277,58.0,0.0,30.0,7.0,0.0
1278,54.0,0.0,30.0,3.0,0.0
1279,52.0,30.0,30.0,3.0,0.0
1280,61.0,0.0,60.0,4.0,0.0
1281,56.0,0.0,30.0,7.0,0.0
1282,52.0,0.0,30.0,5.0,0.0
1283,54.0,0.0,30.0,7.0,0.0
1284,51.0,0.0,30.0,5.0,0.0
1285,51.0,30.0,30.0,3.0,0.0
1286,70.0,30.0,30.0,6.0,0.0
1287,52.0,0.0,30.0,7.0,0.0
1288,61.0,0.0,15.0,0.0,0.0
1289,49.0,0.0,30.0,3.0,0.0
1290,49.0,0.0,30.0,5.0,0.0
1291,47.0,0.0,30.0,5.0,0.0
1292,71.0,0.0,30.0,6.0,0.0
1293,47.0,0.0,30.0,3.0,0.0
1294,51.0,30.0,30.0,7.0,0.0
1295,73.0,30.0,30.0,6.0,0.0
1296,61.0,0.0,15.0,4.0,0.0
1297,58.0,0.0,60.0,1.0,0.0
1298,46.0,30.0,60.0,5.0,0.0
1299,58.0,0.0,60.0,2.0,0.0
1300,61.0,0.0,120.0,0.0,0.0
1301,46.0,0.0,60.0,3.0,0.0
1302,52.0,0.0,60.0,7.0,0.0
1303,71.0,0.0,30.0,6.0,0.0
1304,61.0,30.0,30.0,1.0,0.0
1305,42.0,0.0,60.0,3.0,0.0
1306,70.0,0.0,30.0,6.0,0.0
1307,42.0,0.0,60.0,7.0,0.0
1308,61.0,0.0,30.0,2.0,0.0
1309,58.0,0.0,60.0,5.0,0.0
1310,59.0,30.0,30.0,2.0,0.0
1311,59.0,0.0,30.0,1.0,0.0
1312,68.0,0.0,30.0,6.0,0.0
1313,58.0,0.0,30.0,1.0,0.0
1314,44.0,0.0,60.0,7.0,0.0
1315,59.0,0.0,60.0,5.0,0.0
1316,66.0,30.0,30.0,6.0,0.0
1317,58.0,0.0,30.0,2.0,0.0
1318,56.0,0.0,30.0,2.0,0.0
1319,56.0,30.0,30.0,1.0,0.0
1320,64.0,0.0,30.0,6.0,0.0
1321,54.0,0.0,30.0,2.0,0.0
1322,46.0,0.0,60.0,7.0,0.0
1323,61.0,0.0,60.0,5.0,0.0
1324,63.0,0.0,30.0,6.0,0.0
1325,54.0,30.0,30.0,1.0,0.0
1326,61.0,0.0,30.0,6.0,0.0
1327,52.0,0.0,30.0,1.0,0.0
1328,52.0,30.0,30.0,2.0,0.0
1329,66.0,0.0,30.0,0.0,0.0
1330,39.0,0.0,30.0,7.0,0.0
1331,59.0,0.0,60.0,6.0,0.0
1332,51.0,0.0,60.0,3.0,0.0
1333,66.0,0.0,30.0,4.0,0.0
1334,63.0,0.0,30.0,5.0,0.0
1335,51.0,0.0,30.0,2.0,0.0
1336,51.0,30.0,30.0,1.0,0.0
1337,64.0,0.0,30.0,4.0,0.0
1338,56.0,0.0,30.0,5.0,0.0
1339,64.0,0.0,30.0,0.0,0.0
1340,59.0,30.0,30.0,7.0,0.0
1341,58.0,0.0,30.0,2.0,0.0
1342,66.0,30.0,120.0,6.0,0.0
1343,54.0,0.0,30.0,5.0,0.0
1344,63.0,0.0,30.0,0.0,0.0
1345,58.0,0.0,30.0,1.0,0.0
1346,63.0,30.0,30.0,4.0,0.0
1347,54.0,0.0,30.0,3.0,0.0
1348,58.0,0.0,30.0,7.0,0.0
1349,52.0,0.0,30.0,5.0,0.0
1350,56.0,30.0,30.0,7.0,0.0
1351,52.0,0.0,30.0,3.0,0.0
1352,61.0,0.0,30.0,0.0,0.0
1353,61.0,0.0,30.0,4.0,0.0
1354,51.0,30.0,30.0,3.0,0.0
1355,54.0,0.0,30.0,7.0,0.0
1356,51.0,0.0,30.0,5.0,0.0
1357,59.0,0.0,60.0,0.0,0.0
1358,59.0,0.0,60.0,4.0,0.0
1359,52.0,0.0,30.0,7.0,0.0
1360,49.0,0.0,30.0,5.0,0.0
1361,49.0,0.0,30.0,3.0,0.0
1362,47.0,0.0,30.0,3.0,0.0
1363,68.0,30.0,30.0,6.0,0.0
1364,59.0,0.0,60.0,0.0,0.0
1365,47.0,0.0,30.0,5.0,0.0
1366,51.0,0.0,30.0,7.0,0.0
1367,59.0,0.0,60.0,4.0,0.0
1368,46.0,0.0,30.0,5.0,0.0
1369,46.0,0.0,30.0,3.0,0.0
1370,70.0,30.0,30.0,6.0,0.0
1371,49.0,0.0,30.0,7.0,0.0
1372,51.0,0.0,60.0,7.0,0.0
1373,56.0,0.0,60.0,1.0,0.0
1374,56.0,0.0,60.0,2.0,0.0
1375,44.0,30.0,60.0,5.0,0.0
1376,44.0,0.0,60.0,3.0,0.0
1377,71.0,30.0,30.0,6.0,0.0
1378,59.0,0.0,120.0,4.0,0.0
1379,59.0,0.0,120.0,0.0,0.0
1380,70.0,0.0,30.0,6.0,0.0
1381,68.0,0.0,30.0,6.0,0.0
1382,59.0,30.0,30.0,1.0,0.0
1383,59.0,0.0,30.0,2.0,0.0
1384,56.0,30.0,60.0,5.0,0.0
1385,40.0,0.0,60.0,3.0,0.0
1386,40.0,0.0,60.0,7.0,0.0
1387,66.0,0.0,30.0,6.0,0.0
1388,58.0,0.0,30.0,2.0,0.0
1389,58.0,0.0,30.0,1.0,0.0
1390,42.0,0.0,60.0,7.0,0.0
1391,56.0,0.0,30.0,1.0,0.0
1392,58.0,0.0,60.0,5.0,0.0
1393,56.0,30.0,30.0,2.0,0.0
1394,64.0,0.0,30.0,6.0,0.0
1395,63.0,30.0,30.0,6.0,0.0
1396,54.0,0.0,30.0,1.0,0.0
1397,54.0,0.0,30.0,2.0,0.0
1398,52.0,30.0,30.0,1.0,0.0
1399,59.0,0.0,60.0,5.0,0.0
1400,44.0,0.0,60.0,7.0,0.0
1401,61.0,0.0,30.0,6.0,0.0
1402,52.0,0.0,30.0,2.0,0.0
1403,51.0,0.0,30.0,1.0,0.0
1404,51.0,0.0,30.0,2.0,0.0
1405,59.0,30.0,30.0,6.0,0.0
1406,52.0,30.0,60.0,1.0,0.0
1407,61.0,0.0,60.0,5.0,0.0
1408,37.0,0.0,60.0,7.0,0.0
1409,52.0,0.0,60.0,2.0,0.0
1410,58.0,30.0,30.0,6.0,0.0
1411,49.0,0.0,60.0,3.0,0.0
1412,59.0,0.0,30.0,6.0,0.0
1413,46.0,0.0,30.0,7.0,0.0
1414,54.0,0.0,60.0,5.0,0.0
1415,61.0,0.0,30.0,6.0,0.0
1416,52.0,30.0,30.0,3.0,0.0
1417,47.0,0.0,30.0,7.0,0.0
1418,63.0,30.0,30.0,6.0,0.0
1419,51.0,0.0,30.0,3.0,0.0
1420,49.0,0.0,30.0,7.0,0.0
1421,49.0,0.0,60.0,3.0,0.0
1422,64.0,30.0,30.0,6.0,0.0
1423,47.0,0.0,30.0,7.0,0.0
1424,63.0,30.0,30.0,6.0,0.0
1425,47.0,0.0,30.0,3.0,0.0
1426,49.0,0.0,30.0,7.0,0.0
1427,64.0,30.0,30.0,6.0,0.0
1428,68.0,0.0,30.0,6.0,0.0
1429,52.0,30.0,30.0,7.0,0.0
1430,46.0,0.0,30.0,7.0,0.0
1431,46.0,30.0,30.0,3.0,0.0
1432,66.0,0.0,30.0,6.0,0.0
1433,49.0,30.0,30.0,7.0,0.0
1434,68.0,0.0,30.0,6.0,0.0
1435,70.0,0.0,30.0,6.0,0.0
1436,49.0,30.0,30.0,3.0,0.0
1437,54.0,0.0,30.0,7.0,0.0
1438,47.0,0.0,30.0,3.0,0.0
1439,71.0,0.0,30.0,6.0,0.0
1440,56.0,30.0,30.0,7.0,0.0
1441,73.0,0.0,30.0,6.0,0.0
1442,46.0,30.0,60.0,3.0,0.0
1443,58.0,30.0,30.0,7.0,0.0
1444,71.0,0.0,30.0,6.0,0.0
1445,56.0,0.0,30.0,7.0,0.0
1446,73.0,0.0,30.0,6.0,0.0
1447,42.0,30.0,30.0,3.0,0.0
1448,58.0,0.0,30.0,7.0,0.0
1449,76.0,30.0,30.0,6.0,0.0
1450,61.0,0.0,30.0,7.0,0.0
1451,75.0,30.0,30.0,6.0,0.0
1452,54.0,0.0,30.0,7.0,0.0
1453,47.0,0.0,60.0,3.0,0.0
1454,51.0,0.0,30.0,7.0,0.0
1455,78.0,30.0,30.0,6.0,0.0
1456,59.0,0.0,30.0,7.0,0.0
1457,80.0,30.0,30.0,6.0,0.0
1458,51.0,0.0,60.0,3.0,0.0
1459,78.0,0.0,30.0,6.0,0.0
1460,58.0,30.0,30.0,7.0,0.0
1461,76.0,30.0,30.0,6.0,0.0
1462,56.0,0.0,60.0,3.0,0.0
1463,56.0,0.0,30.0,7.0,0.0
1464,59.0,30.0,30.0,7.0,0.0
1465,75.0,0.0,30.0,6.0,0.0
1466,73.0,0.0,30.0,6.0,0.0
1467,58.0,30.0,30.0,7.0,0.0
1468,52.0,0.0,60.0,3.0,0.0
1469,71.0,0.0,30.0,6.0,0.0
1470,56.0,20.0,30.0,7.0,0.0
1471,78.0,20.0,20.0,6.0,0.0
1472,46.0,0.0,60.0,3.0,0.0
1473,58.0,0.0,60.0,7.0,0.0
1474,80.0,20.0,20.0,6.0,0.0
1475,73.0,0.0,30.0,0.0,0.0
1476,70.0,0.0,30.0,1.0,0.0
1477,73.0,0.0,30.0,4.0,0.0
1478,78.0,15.0,20.0,6.0,0.0
1479,73.0,0.0,30.0,1.0,0.0
1480,80.0,15.0,15.0,6.0,0.0
1481,42.0,0.0,60.0,7.0,0.0
1482,76.0,15.0,30.0,0.0,0.0
1483,42.0,0.0,60.0,3.0,0.0
1484,42.0,0.0,60.0,5.0,0.0
1485,46.0,15.0,60.0,7.0,0.0
1486,76.0,0.0,30.0,4.0,0.0
1487,78.0,0.0,15.0,6.0,0.0
1488,71.0,0.0,30.0,1.0,0.0
1489,75.0,0.0,30.0,0.0,0.0
1490,80.0,15.0,15.0,6.0,0.0
1491,75.0,0.0,30.0,4.0,0.0
1492,78.0,0.0,15.0,6.0,0.0
1493,70.0,0.0,30.0,1.0,0.0
1494,80.0,15.0,15.0,6.0,0.0
1495,44.0,0.0,60.0,5.0,0.0
1496,44.0,0.0,60.0,3.0,0.0
1497,73.0,0.0,30.0,4.0,0.0
1498,73.0,15.0,30.0,0.0,0.0
1499,47.0,15.0,60.0,7.0,0.0
1500,44.0,0.0,60.0,7.0,0.0
1501,78.0,0.0,15.0,6.0,0.0
1502,71.0,0.0,30.0,0.0,0.0
1503,80.0,15.0,15.0,6.0,0.0
1504,68.0,0.0,30.0,1.0,0.0
1505,71.0,0.0,30.0,4.0,0.0
1506,78.0,0.0,15.0,6.0,0.0
1507,80.0,15.0,15.0,6.0,0.0
1508,46.0,0.0,60.0,3.0,0.0
1509,49.0,0.0,60.0,7.0,0.0
1510,66.0,15.0,30.0,1.0,0.0
1511,46.0,0.0,60.0,5.0,0.0
1512,70.0,0.0,30.0,4.0,0.0
1513,70.0,0.0,30.0,0.0,0.0
1514,46.0,0.0,60.0,7.0,0.0
1515,78.0,0.0,15.0,6.0,0.0
1516,68.0,0.0,30.0,0.0,0.0
1517,68.0,0.0,30.0,4.0,0.0
1518,64.0,0.0,30.0,1.0,0.0
1519,80.0,15.0,15.0,6.0,0.0
1520,78.0,15.0,15.0,6.0,0.0
1521,66.0,15.0,60.0,0.0,0.0
1522,47.0,0.0,120.0,3.0,0.0
1523,59.0,0.0,60.0,2.0,0.0
1524,63.0,0.0,60.0,1.0,0.0
1525,47.0,0.0,120.0,5.0,0.0
1526,47.0,0.0,60.0,7.0,0.0
1527,54.0,0.0,120.0,5.0,0.0
1528,51.0,0.0,30.0,7.0,0.0
1529,66.0,0.0,60.0,4.0,0.0
1530,63.0,0.0,120.0,4.0,0.0
1531,59.0,0.0,120.0,4.0,0.0
1532,51.0,0.0,120.0,5.0,0.0
1533,80.0,15.0,15.0,6.0,0.0
1534,78.0,15.0,15.0,6.0,0.0
1535,80.0,15.0,15.0,6.0,0.0
1536,52.0,0.0,30.0,7.0,0.0
1537,78.0,0.0,15.0,6.0,0.0
1538,71.0,0.0,60.0,0.0,0.0
1539,80.0,15.0,15.0,6.0,0.0
1540,63.0,0.0,60.0,2.0,0.0
1541,71.0,0.0,60.0,4.0,0.0
1542,51.0,0.0,30.0,7.0,0.0
1543,66.0,0.0,60.0,1.0,0.0
1544,78.0,15.0,15.0,6.0,0.0
1545,49.0,0.0,30.0,7.0,0.0
1546,80.0,15.0,15.0,6.0,0.0
1547,78.0,15.0,15.0,6.0,0.0
1548,75.0,0.0,60.0,0.0,0.0
1549,66.0,0.0,60.0,4.0,0.0
1550,75.0,0.0,60.0,4.0,0.0
1551,47.0,0.0,30.0,7.0,0.0
1552,71.0,0.0,60.0,1.0,0.0
1553,66.0,15.0,60.0,2.0,0.0
1554,80.0,15.0,15.0,6.0,0.0
1555,78.0,15.0,15.0,6.0,0.0
1556,51.0,0.0,30.0,7.0,0.0
1557,80.0,15.0,15.0,6.0,0.0
1558,78.0,0.0,15.0,6.0,0.0
1559,64.0,15.0,60.0,4.0,0.0
1560,73.0,0.0,60.0,4.0,0.0
1561,80.0,15.0,15.0,6.0,0.0
1562,54.0,0.0,30.0,7.0,0.0
1563,73.0,0.0,60.0,0.0,0.0
1564,70.0,0.0,60.0,1.0,0.0
1565,64.0,0.0,60.0,2.0,0.0
1566,78.0,15.0,15.0,6.0,0.0
1567,80.0,15.0,15.0,6.0,0.0
1568,58.0,0.0,30.0,7.0,0.0
1569,78.0,0.0,15.0,6.0,0.0
1570,59.0,0.0,120.0,5.0,0.0
1571,35.0,0.0,120.0,3.0,0.0
1572,63.0,0.0,60.0,2.0,0.0
1573,80.0,15.0,15.0,6.0,0.0
1574,59.0,0.0,60.0,1.0,0.0
1575,66.0,15.0,60.0,0.0,0.0
1576,66.0,0.0,60.0,4.0,0.0
1577,59.0,15.0,30.0,7.0,0.0
1578,63.0,0.0,30.0,4.0,0.0
1579,78.0,0.0,15.0,6.0,0.0
1580,61.0,0.0,30.0,4.0,0.0
1581,80.0,15.0,15.0,6.0,0.0
1582,58.0,0.0,30.0,7.0,0.0
1583,78.0,0.0,15.0,6.0,0.0
1584,63.0,0.0,30.0,1.0,0.0
1585,59.0,0.0,30.0,7.0,0.0
1586,63.0,0.0,30.0,4.0,0.0
1587,71.0,15.0,30.0,4.0,0.0
1588,66.0,0.0,60.0,2.0,0.0
1589,71.0,0.0,30.0,0.0,0.0
1590,80.0,15.0,15.0,6.0,0.0
1591,78.0,0.0,15.0,6.0,0.0
1592,54.0,0.0,30.0,7.0,0.0
1593,64.0,15.0,30.0,1.0,0.0
1594,80.0,15.0,15.0,6.0,0.0
1595,73.0,0.0,30.0,0.0,0.0
1596,73.0,0.0,30.0,4.0,0.0
1597,64.0,0.0,30.0,4.0,0.0
1598,78.0,0.0,15.0,6.0,0.0
1599,75.0,0.0,30.0,0.0,0.0
1600,66.0,0.0,30.0,4.0,0.0
1601,75.0,0.0,30.0,4.0,0.0
1602,51.0,15.0,30.0,7.0,0.0
1603,80.0,15.0,15.0,6.0,0.0
1604,71.0,0.0,30.0,2.0,0.0
1605,66.0,0.0,30.0,1.0,0.0
1606,78.0,0.0,15.0,6.0,0.0
1607,64.0,0.0,30.0,4.0,0.0
1608,80.0,15.0,15.0,6.0,0.0
1609,73.0,0.0,30.0,0.0,0.0
1610,73.0,15.0,30.0,4.0,0.0
1611,54.0,0.0,30.0,7.0,0.0
1612,70.0,0.0,30.0,2.0,0.0
1613,64.0,0.0,30.0,1.0,0.0
1614,78.0,0.0,15.0,6.0,0.0
1615,80.0,15.0,15.0,6.0,0.0
1616,71.0,0.0,30.0,2.0,0.0
1617,66.0,0.0,30.0,1.0,0.0
1618,75.0,0.0,30.0,4.0,0.0
1619,66.0,15.0,30.0,4.0,0.0
1620,75.0,0.0,30.0,0.0,0.0
1621,59.0,0.0,30.0,7.0,0.0
1622,78.0,0.0,15.0,6.0,0.0
1623,61.0,0.0,30.0,7.0,0.0
1624,64.0,30.0,30.0,1.0,0.0
1625,80.0,15.0,15.0,6.0,0.0
1626,70.0,0.0,30.0,2.0,0.0
1627,64.0,0.0,30.0,4.0,0.0
1628,73.0,0.0,30.0,4.0,0.0
1629,73.0,0.0,30.0,0.0,0.0
1630,78.0,0.0,15.0,6.0,0.0
1631,71.0,0.0,60.0,0.0,0.0
1632,63.0,30.0,30.0,7.0,0.0
1633,80.0,0.0,30.0,6.0,0.0
1634,47.0,0.0,60.0,3.0,0.0
1635,54.0,0.0,60.0,5.0,0.0
1636,51.0,0.0,60.0,5.0,0.0
1637,47.0,0.0,60.0,5.0,0.0
1638,63.0,0.0,60.0,1.0,0.0
1639,59.0,30.0,60.0,4.0,0.0
1640,66.0,0.0,60.0,2.0,0.0
1641,71.0,0.0,60.0,4.0,0.0
1642,63.0,0.0,60.0,4.0,0.0
1643,59.0,0.0,30.0,7.0,0.0
1644,78.0,0.0,90.0,6.0,0.0
1645,59.0,0.0,60.0,3.0,0.0
1646,73.0,0.0,30.0,0.0,0.0
1647,73.0,30.0,30.0,4.0,0.0
1648,59.0,0.0,60.0,5.0,0.0
1649,54.0,0.0,30.0,7.0,0.0
1650,75.0,0.0,30.0,0.0,0.0
1651,59.0,30.0,30.0,7.0,0.0
1652,75.0,0.0,30.0,4.0,0.0
1653,56.0,0.0,60.0,3.0,0.0
1654,56.0,0.0,60.0,5.0,0.0
1655,47.0,60.0,60.0,7.0,0.0
1656,76.0,0.0,30.0,4.0,0.0
1657,76.0,30.0,30.0,0.0,0.0
1658,78.0,0.0,30.0,0.0,0.0
1659,78.0,0.0,30.0,4.0,0.0
1660,52.0,0.0,60.0,3.0,0.0
1661,71.0,0.0,60.0,6.0,0.0
1662,52.0,30.0,60.0,5.0,0.0
1663,49.0,30.0,60.0,5.0,0.0
1664,80.0,0.0,15.0,0.0,0.0
1665,49.0,0.0,60.0,3.0,0.0
1666,76.0,30.0,30.0,6.0,0.0
1667,80.0,0.0,15.0,4.0,0.0
1668,75.0,0.0,30.0,6.0,0.0
1669,73.0,0.0,30.0,6.0,0.0
1670,64.0,30.0,30.0,7.0,0.0
1671,68.0,0.0,60.0,1.0,0.0
1672,70.0,0.0,60.0,0.0,0.0
1673,52.0,0.0,30.0,3.0,0.0
1674,70.0,0.0,60.0,4.0,0.0
1675,61.0,0.0,60.0,5.0,0.0
1676,51.0,0.0,30.0,3.0,0.0
1677,66.0,0.0,30.0,7.0,0.0
1678,75.0,30.0,30.0,6.0,0.0
1679,68.0,30.0,60.0,7.0,0.0
1680,49.0,30.0,30.0,3.0,0.0
1681,61.0,0.0,15.0,2.0,0.0
1682,68.0,0.0,60.0,1.0,0.0
1683,76.0,0.0,30.0,6.0,0.0
1684,78.0,0.0,30.0,6.0,0.0
1685,63.0,0.0,30.0,5.0,0.0
1686,47.0,0.0,30.0,3.0,0.0
1687,46.0,30.0,30.0,3.0,0.0
1688,64.0,30.0,60.0,2.0,0.0
1689,56.0,0.0,60.0,7.0,0.0
1690,61.0,0.0,30.0,5.0,0.0
1691,73.0,0.0,60.0,1.0,0.0
1692,44.0,0.0,30.0,3.0,0.0
1693,59.0,0.0,30.0,5.0,0.0
1694,61.0,30.0,60.0,7.0,0.0
1695,61.0,0.0,60.0,5.0,0.0
1696,80.0,0.0,15.0,6.0,0.0
1697,70.0,0.0,60.0,0.0,0.0
1698,46.0,0.0,60.0,3.0,0.0
1699,73.0,30.0,30.0,1.0,0.0
1700,64.0,0.0,60.0,2.0,0.0
1701,70.0,0.0,60.0,4.0,0.0
1702,58.0,0.0,60.0,5.0,0.0
1703,71.0,30.0,30.0,4.0,0.0
1704,58.0,30.0,60.0,3.0,0.0
1705,63.0,0.0,30.0,7.0,0.0
1706,70.0,0.0,60.0,6.0,0.0
1707,71.0,0.0,30.0,0.0,0.0
1708,73.0,0.0,30.0,4.0,0.0
1709,73.0,0.0,30.0,0.0,0.0
1710,64.0,0.0,30.0,7.0,0.0
1711,58.0,0.0,60.0,7.0,0.0
1712,54.0,0.0,60.0,5.0,0.0
1713,75.0,0.0,30.0,0.0,0.0
1714,75.0,30.0,30.0,4.0,0.0
1715,54.0,0.0,60.0,3.0,0.0
1716,76.0,0.0,30.0,0.0,0.0
1717,76.0,60.0,30.0,4.0,0.0
1718,51.0,0.0,60.0,5.0,0.0
1719,51.0,0.0,60.0,3.0,0.0
1720,70.0,0.0,60.0,6.0,0.0
1721,47.0,30.0,60.0,3.0,0.0
1722,47.0,0.0,60.0,5.0,0.0
1723,75.0,30.0,30.0,6.0,0.0
1724,78.0,0.0,15.0,4.0,0.0
1725,78.0,30.0,15.0,0.0,0.0
1726,73.0,0.0,30.0,6.0,0.0
1727,68.0,0.0,60.0,0.0,0.0
1728,71.0,0.0,30.0,6.0,0.0
1729,66.0,0.0,30.0,1.0,0.0
1730,59.0,0.0,60.0,5.0,0.0
1731,63.0,0.0,30.0,7.0,0.0
1732,68.0,0.0,60.0,4.0,0.0
1733,51.0,0.0,30.0,3.0,0.0
1734,59.0,30.0,30.0,2.0,0.0
1735,64.0,30.0,30.0,7.0,0.0
1736,49.0,0.0,30.0,3.0,0.0
1737,73.0,0.0,30.0,6.0,0.0
1738,75.0,0.0,30.0,6.0,0.0
1739,66.0,0.0,30.0,1.0,0.0
1740,47.0,0.0,30.0,3.0,0.0
1741,66.0,30.0,60.0,7.0,0.0
1742,59.0,30.0,30.0,2.0,0.0
1743,76.0,0.0,30.0,6.0,0.0
1744,46.0,0.0,30.0,3.0,0.0
1745,61.0,0.0,30.0,5.0,0.0
1746,44.0,0.0,30.0,3.0,0.0
1747,54.0,30.0,60.0,7.0,0.0
1748,59.0,0.0,30.0,5.0,0.0
1749,63.0,0.0,30.0,2.0,0.0
1750,71.0,30.0,30.0,1.0,0.0
1751,42.0,0.0,30.0,3.0,0.0
1752,58.0,0.0,30.0,5.0,0.0
1753,44.0,0.0,60.0,3.0,0.0
1754,63.0,0.0,30.0,2.0,0.0
1755,78.0,0.0,15.0,6.0,0.0
1756,59.0,0.0,60.0,5.0,0.0
1757,59.0,30.0,60.0,7.0,0.0
1758,68.0,0.0,60.0,0.0,0.0
1759,71.0,30.0,30.0,1.0,0.0
1760,68.0,0.0,60.0,4.0,0.0
1761,68.0,0.0,60.0,6.0,0.0
1762,61.0,0.0,30.0,7.0,0.0
1763,56.0,0.0,60.0,5.0,0.0
1764,70.0,0.0,30.0,0.0,0.0
1765,70.0,30.0,30.0,4.0,0.0
1766,56.0,30.0,60.0,3.0,0.0
1767,71.0,0.0,30.0,0.0,0.0
1768,63.0,0.0,30.0,7.0,0.0
1769,71.0,0.0,30.0,4.0,0.0
1770,56.0,0.0,60.0,7.0,0.0
1771,73.0,30.0,30.0,4.0,0.0
1772,52.0,0.0,60.0,3.0,0.0
1773,73.0,0.0,30.0,0.0,0.0
1774,52.0,0.0,60.0,5.0,0.0
1775,75.0,60.0,30.0,0.0,0.0
1776,75.0,0.0,30.0,4.0,0.0
1777,49.0,30.0,60.0,5.0,0.0
1778,68.0,0.0,60.0,6.0,0.0
1779,49.0,0.0,60.0,3.0,0.0
1780,76.0,0.0,60.0,4.0,0.0
1781,76.0,0.0,60.0,0.0,0.0
1782,76.0,0.0,60.0,4.0,0.0
1783,73.0,30.0,30.0,6.0,0.0
1784,46.0,0.0,60.0,3.0,0.0
1785,46.0,30.0,60.0,5.0,0.0
1786,76.0,0.0,60.0,0.0,0.0
1787,71.0,0.0,30.0,6.0,0.0
1788,58.0,0.0,60.0,5.0,0.0
1789,66.0,0.0,60.0,0.0,0.0
1790,54.0,0.0,30.0,2.0,0.0
1791,64.0,0.0,30.0,1.0,0.0
1792,70.0,0.0,30.0,6.0,0.0
1793,49.0,30.0,30.0,3.0,0.0
1794,66.0,0.0,60.0,4.0,0.0
1795,54.0,0.0,30.0,7.0,0.0
1796,63.0,0.0,30.0,1.0,0.0
1797,56.0,0.0,30.0,7.0,0.0
1798,56.0,0.0,30.0,2.0,0.0
1799,71.0,0.0,30.0,6.0,0.0
1800,47.0,30.0,30.0,3.0,0.0
1801,58.0,0.0,30.0,7.0,0.0
1802,61.0,30.0,30.0,1.0,0.0
1803,73.0,0.0,30.0,6.0,0.0
1804,58.0,0.0,30.0,2.0,0.0
1805,46.0,0.0,30.0,3.0,0.0
1806,56.0,0.0,30.0,5.0,0.0
1807,59.0,0.0,30.0,7.0,0.0
1808,59.0,0.0,30.0,1.0,0.0
1809,44.0,0.0,30.0,3.0,0.0
1810,59.0,0.0,30.0,2.0,0.0
1811,75.0,30.0,30.0,6.0,0.0
1812,61.0,0.0,120.0,2.0,0.0
1813,61.0,0.0,60.0,7.0,0.0
1814,54.0,30.0,30.0,5.0,0.0
1815,58.0,0.0,30.0,1.0,0.0
1816,76.0,0.0,60.0,6.0,0.0
1817,42.0,0.0,30.0,3.0,0.0
1818,40.0,30.0,30.0,3.0,0.0
1819,56.0,0.0,30.0,1.0,0.0
1820,52.0,0.0,30.0,5.0,0.0
1821,54.0,0.0,30.0,1.0,0.0
1822,66.0,30.0,60.0,6.0,0.0
1823,51.0,30.0,30.0,7.0,0.0
1824,51.0,0.0,120.0,5.0,0.0
1825,39.0,0.0,120.0,3.0,0.0
1826,54.0,0.0,30.0,7.0,0.0
1827,59.0,0.0,30.0,2.0,0.0
1828,56.0,0.0,30.0,7.0,0.0
1829,66.0,30.0,30.0,1.0,0.0
1830,71.0,0.0,30.0,6.0,0.0
1831,58.0,30.0,30.0,7.0,0.0
1832,73.0,0.0,30.0,6.0,0.0
1833,63.0,0.0,60.0,4.0,0.0
1834,71.0,0.0,60.0,4.0,0.0
1835,75.0,0.0,30.0,6.0,0.0
1836,63.0,0.0,120.0,0.0,0.0
1837,59.0,30.0,30.0,7.0,0.0
1838,73.0,0.0,30.0,6.0,0.0
1839,58.0,0.0,30.0,7.0,0.0
1840,66.0,30.0,15.0,4.0,0.0
1841,75.0,30.0,30.0,6.0,0.0
1842,59.0,0.0,60.0,7.0,0.0
1843,59.0,30.0,60.0,4.0,0.0
1844,63.0,0.0,60.0,4.0,0.0
1845,73.0,0.0,30.0,6.0,0.0
1846,71.0,30.0,30.0,6.0,0.0
1847,56.0,0.0,30.0,1.0,0.0
1848,61.0,0.0,30.0,2.0,0.0
1849,40.0,0.0,120.0,3.0,0.0
1850,52.0,30.0,120.0,5.0,0.0
1851,52.0,0.0,30.0,7.0,0.0
1852,68.0,30.0,30.0,6.0,0.0
1853,56.0,0.0,30.0,7.0,0.0
1854,56.0,0.0,30.0,2.0,0.0
1855,64.0,0.0,30.0,1.0,0.0
1856,71.0,30.0,30.0,6.0,0.0
1857,58.0,0.0,30.0,7.0,0.0
1858,73.0,0.0,30.0,6.0,0.0
1859,66.0,0.0,60.0,4.0,0.0
1860,71.0,0.0,60.0,4.0,0.0
1861,64.0,0.0,120.0,0.0,0.0
1862,63.0,0.0,60.0,4.0,0.0
1863,75.0,0.0,30.0,6.0,0.0
1864,59.0,30.0,30.0,7.0,0.0
1865,73.0,0.0,30.0,6.0,0.0
1866,58.0,30.0,30.0,7.0,0.0
1867,75.0,30.0,30.0,6.0,0.0
1868,59.0,0.0,60.0,7.0,0.0
1869,59.0,0.0,60.0,4.0,0.0
1870,63.0,0.0,60.0,4.0,0.0
1871,66.0,0.0,60.0,4.0,0.0
1872,73.0,30.0,30.0,6.0,0.0
1873,54.0,0.0,120.0,5.0,0.0
1874,54.0,0.0,30.0,1.0,0.0
1875,63.0,0.0,30.0,2.0,0.0
1876,42.0,0.0,120.0,3.0,0.0
1877,71.0,30.0,30.0,6.0,0.0
1878,66.0,30.0,30.0,6.0,0.0
1879,54.0,0.0,30.0,7.0,0.0
1880,54.0,0.0,30.0,2.0,0.0
1881,56.0,30.0,30.0,7.0,0.0
1882,63.0,0.0,30.0,1.0,0.0
1883,71.0,0.0,30.0,6.0,0.0
1884,73.0,0.0,30.0,6.0,0.0
1885,58.0,30.0,30.0,7.0,0.0
1886,71.0,30.0,60.0,4.0,0.0
1887,66.0,0.0,120.0,0.0,0.0
1888,75.0,0.0,30.0,6.0,0.0
1889,59.0,30.0,30.0,7.0,0.0
1890,58.0,0.0,30.0,7.0,0.0
1891,73.0,0.0,30.0,6.0,0.0
1892,59.0,0.0,60.0,7.0,0.0
1893,75.0,30.0,30.0,6.0,0.0
1894,66.0,0.0,15.0,4.0,0.0
1895,63.0,0.0,15.0,4.0,0.0
1896,59.0,0.0,60.0,4.0,0.0
1897,73.0,30.0,30.0,6.0,0.0
1898,56.0,30.0,30.0,5.0,0.0
1899,44.0,30.0,60.0,3.0,0.0
1900,71.0,0.0,30.0,6.0,0.0
1901,64.0,0.0,30.0,2.0,0.0
1902,52.0,0.0,30.0,1.0,0.0
1903,58.0,0.0,30.0,5.0,0.0
1904,70.0,0.0,30.0,6.0,0.0
1905,59.0,0.0,30.0,1.0,0.0
1906,59.0,0.0,30.0,5.0,0.0
1907,47.0,0.0,30.0,3.0,0.0
1908,52.0,30.0,30.0,7.0,0.0
1909,68.0,0.0,30.0,6.0,0.0
1910,52.0,0.0,30.0,2.0,0.0
1911,66.0,0.0,30.0,6.0,0.0
1912,46.0,30.0,30.0,3.0,0.0
1913,58.0,0.0,30.0,5.0,0.0
1914,54.0,0.0,30.0,7.0,0.0
1915,71.0,30.0,30.0,0.0,0.0
1916,56.0,0.0,30.0,5.0,0.0
1917,56.0,0.0,30.0,7.0,0.0
1918,71.0,0.0,30.0,4.0,0.0
1919,44.0,0.0,60.0,3.0,0.0
1920,58.0,0.0,30.0,5.0,0.0
1921,54.0,0.0,30.0,7.0,0.0
1922,70.0,0.0,30.0,0.0,0.0
1923,70.0,0.0,30.0,4.0,0.0
1924,47.0,0.0,30.0,3.0,0.0
1925,64.0,30.0,15.0,6.0,0.0
1926,59.0,0.0,30.0,5.0,0.0
1927,52.0,30.0,30.0,7.0,0.0
1928,68.0,0.0,30.0,4.0,0.0
1929,68.0,0.0,30.0,0.0,0.0
1930,58.0,0.0,30.0,5.0,0.0
1931,66.0,0.0,30.0,4.0,0.0
1932,46.0,30.0,30.0,3.0,0.0
1933,66.0,0.0,30.0,0.0,0.0
1934,54.0,0.0,30.0,7.0,0.0
1935,59.0,0.0,30.0,1.0,0.0
1936,56.0,0.0,30.0,7.0,0.0
1937,64.0,0.0,150.0,6.0,0.0
1938,56.0,29.0,30.0,5.0,0.0
1939,44.0,1.0,60.0,3.0,0.0
1940,64.0,0.0,60.0,0.0,0.0
1941,59.0,0.0,30.0,2.0,0.0
1942,58.0,0.0,30.0,2.0,0.0
1943,54.0,0.0,30.0,7.0,0.0
1944,58.0,29.0,30.0,5.0,0.0
1945,58.0,0.0,30.0,1.0,0.0
1946,52.0,0.0,30.0,7.0,0.0
1947,56.0,0.0,30.0,1.0,0.0
1948,59.0,29.0,30.0,5.0,0.0
1949,64.0,0.0,15.0,4.0,0.0
1950,56.0,0.0,30.0,2.0,0.0
1951,64.0,0.0,60.0,0.0,0.0
1952,47.0,1.0,30.0,3.0,0.0
1953,54.0,0.0,30.0,2.0,0.0
1954,46.0,1.0,30.0,3.0,0.0
1955,54.0,0.0,30.0,1.0,0.0
1956,58.0,0.0,30.0,5.0,0.0
1957,54.0,30.0,30.0,7.0,0.0
1958,52.0,0.0,60.0,2.0,0.0
1959,52.0,29.0,60.0,1.0,0.0
1960,56.0,29.0,30.0,5.0,0.0
1961,56.0,0.0,60.0,7.0,0.0
1962,44.0,1.0,60.0,3.0,0.0
1963,64.0,0.0,180.0,0.0,0.0
1964,59.0,0.0,30.0,6.0,0.0
1965,59.0,0.0,30.0,5.0,0.0
1966,49.0,1.0,30.0,3.0,0.0
1967,52.0,30.0,60.0,7.0,0.0
1968,58.0,29.0,30.0,5.0,0.0
1969,64.0,0.0,30.0,6.0,0.0
1970,56.0,0.0,30.0,5.0,0.0
1971,68.0,0.0,30.0,6.0,0.0
1972,47.0,1.0,30.0,3.0,0.0
1973,54.0,29.0,30.0,2.0,0.0
1974,73.0,0.0,30.0,6.0,0.0
1975,46.0,1.0,60.0,3.0,0.0
1976,61.0,0.0,30.0,1.0,0.0
1977,54.0,0.0,30.0,5.0,0.0
1978,51.0,0.0,30.0,5.0,0.0
1979,71.0,0.0,30.0,6.0,0.0
1980,54.0,0.0,30.0,7.0,0.0
1981,54.0,0.0,30.0,1.0,0.0
1982,70.0,29.0,30.0,6.0,0.0
1983,64.0,0.0,30.0,0.0,0.0
1984,64.0,29.0,15.0,4.0,0.0
1985,49.0,0.0,30.0,5.0,0.0
1986,49.0,1.0,30.0,3.0,0.0
1987,61.0,0.0,30.0,2.0,0.0
1988,47.0,0.0,30.0,5.0,0.0
1989,63.0,30.0,30.0,0.0,0.0
1990,68.0,0.0,30.0,6.0,0.0
1991,63.0,0.0,30.0,4.0,0.0
1992,47.0,1.0,30.0,3.0,0.0
1993,56.0,0.0,30.0,7.0,0.0
1994,61.0,0.0,30.0,0.0,0.0
1995,46.0,1.0,60.0,3.0,0.0
1996,46.0,0.0,30.0,5.0,0.0
1997,61.0,29.0,30.0,4.0,0.0
1998,66.0,0.0,30.0,6.0,0.0
1999,58.0,0.0,30.0,7.0,0.0
2000,47.0,0.0,30.0,5.0,0.0
2001,56.0,29.0,30.0,7.0,0.0
2002,59.0,0.0,30.0,0.0,0.0
2003,59.0,0.0,30.0,4.0,0.0
2004,64.0,0.0,30.0,6.0,0.0
2005,49.0,1.0,30.0,3.0,0.0
2006,58.0,0.0,30.0,0.0,0.0
2007,58.0,29.0,30.0,4.0,0.0
2008,49.0,0.0,30.0,5.0,0.0
2009,54.0,0.0,30.0,7.0,0.0
2010,63.0,0.0,30.0,6.0,0.0
2011,47.0,1.0,30.0,3.0,0.0
2012,56.0,0.0,30.0,0.0,0.0
2013,56.0,0.0,30.0,7.0,0.0
2014,64.0,0.0,30.0,6.0,0.0
2015,56.0,30.0,30.0,4.0,0.0
2016,47.0,0.0,30.0,5.0,0.0
2017,54.0,0.0,30.0,0.0,0.0
2018,46.0,1.0,60.0,3.0,0.0
2019,58.0,0.0,30.0,7.0,0.0
2020,46.0,0.0,30.0,5.0,0.0
2021,64.0,0.0,150.0,6.0,0.0
2022,54.0,0.0,60.0,4.0,0.0
2023,61.0,29.0,30.0,1.0,0.0
2024,61.0,0.0,30.0,2.0,0.0
2025,56.0,29.0,30.0,7.0,0.0
2026,47.0,0.0,30.0,5.0,0.0
2027,59.0,0.0,30.0,2.0,0.0
2028,59.0,0.0,30.0,1.0,0.0
2029,49.0,1.0,30.0,3.0,0.0
2030,58.0,0.0,30.0,2.0,0.0
2031,49.0,0.0,30.0,5.0,0.0
2032,58.0,29.0,30.0,1.0,0.0
2033,54.0,0.0,30.0,7.0,0.0
2034,54.0,0.0,30.0,0.0,0.0
2035,56.0,0.0,30.0,1.0,0.0
2036,47.0,0.0,30.0,5.0,0.0
2037,56.0,0.0,30.0,7.0,0.0
2038,47.0,1.0,30.0,3.0,0.0
2039,56.0,0.0,30.0,2.0,0.0
2040,46.0,29.0,30.0,5.0,0.0
2041,54.0,0.0,60.0,1.0,0.0
2042,54.0,30.0,15.0,4.0,0.0
2043,46.0,1.0,60.0,3.0,0.0
2044,58.0,0.0,60.0,7.0,0.0
2045,54.0,0.0,30.0,0.0,0.0
2046,54.0,0.0,60.0,2.0,0.0
2047,49.0,0.0,30.0,5.0,0.0
2048,66.0,0.0,30.0,6.0,0.0
2049,42.0,1.0,60.0,3.0,0.0
2050,70.0,29.0,30.0,6.0,0.0
2051,54.0,30.0,60.0,7.0,0.0
2052,46.0,0.0,30.0,5.0,0.0
2053,73.0,0.0,30.0,6.0,0.0
2054,42.0,0.0,30.0,5.0,0.0
2055,47.0,1.0,60.0,3.0,0.0
2056,59.0,29.0,30.0,7.0,0.0
2057,75.0,0.0,30.0,6.0,0.0
2058,47.0,30.0,60.0,5.0,0.0
2059,58.0,0.0,30.0,7.0,0.0
2060,73.0,0.0,30.0,6.0,0.0
2061,44.0,1.0,60.0,3.0,0.0
2062,56.0,29.0,30.0,7.0,0.0
2063,76.0,0.0,30.0,6.0,0.0
2064,54.0,0.0,30.0,7.0,0.0
2065,75.0,30.0,30.0,6.0,0.0
2066,80.0,0.0,30.0,6.0,0.0
2067,52.0,29.0,30.0,7.0,0.0
2068,40.0,1.0,60.0,3.0,0.0
2069,51.0,0.0,30.0,7.0,0.0
2070,78.0,30.0,30.0,6.0,0.0
2071,49.0,0.0,30.0,7.0,0.0
2072,49.0,1.0,60.0,3.0,0.0
2073,76.0,29.0,30.0,6.0,0.0
2074,75.0,30.0,30.0,6.0,0.0
2075,47.0,0.0,30.0,7.0,0.0
2076,46.0,1.0,60.0,3.0,0.0
2077,73.0,0.0,30.0,6.0,0.0
2078,46.0,29.0,30.0,7.0,0.0
2079,71.0,0.0,30.0,6.0,0.0
2080,44.0,30.0,30.0,7.0,0.0
2081,42.0,1.0,60.0,3.0,0.0
2082,70.0,0.0,30.0,6.0,0.0
2083,42.0,29.0,30.0,7.0,0.0
2084,68.0,0.0,30.0,6.0,0.0
2085,40.0,30.0,30.0,7.0,0.0
2086,66.0,29.0,30.0,6.0,0.0
2087,39.0,0.0,30.0,7.0,0.0
2088,51.0,1.0,60.0,3.0,0.0
2089,42.0,0.0,30.0,7.0,0.0
2090,64.0,30.0,30.0,6.0,0.0
2091,47.0,1.0,60.0,3.0,0.0
2092,63.0,0.0,30.0,6.0,0.0
2093,44.0,29.0,30.0,7.0,0.0
2094,61.0,0.0,30.0,6.0,0.0
2095,46.0,30.0,30.0,7.0,0.0
2096,44.0,1.0,60.0,3.0,0.0
2097,47.0,29.0,30.0,7.0,0.0
2098,63.0,0.0,60.0,6.0,0.0
2099,49.0,29.0,30.0,7.0,0.0
2100,71.0,0.0,60.0,6.0,0.0
2101,51.0,29.0,30.0,7.0,0.0
2102,56.0,1.0,30.0,3.0,0.0
2103,54.0,1.0,30.0,3.0,0.0
2104,47.0,29.0,30.0,7.0,0.0
2105,61.0,29.0,60.0,6.0,0.0
2106,52.0,1.0,30.0,3.0,0.0
2107,52.0,29.0,30.0,7.0,0.0
2108,51.0,1.0,30.0,3.0,0.0
2109,54.0,0.0,30.0,7.0,0.0
2110,52.0,29.0,30.0,7.0,0.0
2111,70.0,0.0,60.0,6.0,0.0
2112,49.0,1.0,30.0,3.0,0.0
2113,49.0,29.0,30.0,7.0,0.0
2114,52.0,1.0,30.0,3.0,0.0
2115,71.0,0.0,30.0,6.0,0.0
2116,51.0,1.0,30.0,3.0,0.0
2117,51.0,29.0,30.0,7.0,0.0
2118,54.0,0.0,30.0,7.0,0.0
2119,70.0,29.0,30.0,6.0,0.0
2120,49.0,1.0,30.0,3.0,0.0
2121,47.0,1.0,30.0,3.0,0.0
2122,68.0,29.0,30.0,6.0,0.0
2123,56.0,0.0,30.0,7.0,0.0
2124,46.0,1.0,30.0,3.0,0.0
2125,58.0,29.0,30.0,7.0,0.0
2126,66.0,0.0,30.0,6.0,0.0
2127,44.0,1.0,30.0,3.0,0.0
2128,65.0,0.0,60.0,6.0,0.0
2129,59.0,29.0,30.0,7.0,0.0
2130,42.0,1.0,30.0,3.0,0.0
2131,58.0,29.0,30.0,7.0,0.0
2132,56.0,29.0,30.0,7.0,0.0
2133,59.0,0.0,120.0,7.0,0.0
2134,74.0,0.0,120.0,6.0,0.0
2135,41.0,1.0,30.0,3.0,0.0
2136,53.0,59.0,30.0,7.0,0.0
2137,44.0,1.0,30.0,3.0,0.0
2138,42.0,1.0,60.0,3.0,0.0
2139,54.0,30.0,60.0,7.0,0.0
2140,53.0,1.0,60.0,3.0,0.0
2141,56.0,0.0,60.0,7.0,0.0
2142,73.0,29.0,30.0,6.0,0.0
2143,52.0,0.0,60.0,7.0,0.0
2144,71.0,15.0,30.0,6.0,0.0
2145,54.0,1.0,60.0,3.0,0.0
2146,54.0,0.0,60.0,7.0,0.0
2147,70.0,15.0,15.0,6.0,0.0
2148,71.0,15.0,15.0,6.0,0.0
2149,70.0,14.0,15.0,6.0,0.0
2150,71.0,15.0,15.0,6.0,0.0
2151,52.0,60.0,60.0,7.0,0.0
2152,42.0,0.0,60.0,7.0,0.0
2153,70.0,44.0,15.0,6.0,0.0
2154,42.0,1.0,60.0,3.0,0.0
2155,71.0,0.0,30.0,6.0,0.0
2156,35.0,1.0,120.0,3.0,0.0
2157,51.0,0.0,120.0,7.0,0.0
2158,42.0,60.0,120.0,5.0,0.0
2159,47.0,0.0,120.0,5.0,0.0
2160,54.0,0.0,60.0,4.0,0.0
2161,47.0,0.0,60.0,2.0,0.0
2162,54.0,0.0,60.0,0.0,0.0
2163,71.0,0.0,120.0,6.0,0.0
2164,47.0,0.0,120.0,7.0,0.0
2165,51.0,59.0,60.0,1.0,0.0
2166,35.0,0.0,120.0,5.0,0.0
2167,51.0,0.0,120.0,4.0,0.0
2168,51.0,0.0,60.0,2.0,0.0
2169,59.0,0.0,60.0,0.0,0.0
2170,59.0,0.0,60.0,4.0,0.0
2171,54.0,0.0,60.0,1.0,0.0
2172,54.0,0.0,60.0,5.0,0.0
2173,63.0,60.0,60.0,0.0,0.0
2174,59.0,0.0,60.0,1.0,0.0
2175,54.0,0.0,60.0,2.0,0.0
2176,63.0,0.0,60.0,4.0,0.0
2177,58.0,0.0,60.0,1.0,0.0
2178,52.0,0.0,60.0,5.0,0.0
2179,52.0,0.0,60.0,2.0,0.0
2180,61.0,0.0,60.0,4.0,0.0
2181,61.0,30.0,60.0,0.0,0.0
2182,51.0,0.0,60.0,2.0,0.0
2183,54.0,30.0,60.0,4.0,0.0
2184,54.0,0.0,60.0,0.0,0.0
2185,35.0,1.0,120.0,3.0,0.0
2186,51.0,30.0,30.0,5.0,0.0
2187,47.0,0.0,120.0,5.0,0.0
2188,54.0,0.0,60.0,1.0,0.0
2189,49.0,0.0,30.0,5.0,0.0
2190,59.0,0.0,30.0,0.0,0.0
2191,51.0,29.0,30.0,1.0,0.0
2192,59.0,0.0,30.0,4.0,0.0
2193,54.0,0.0,60.0,2.0,0.0
2194,51.0,0.0,30.0,5.0,0.0
2195,52.0,0.0,30.0,1.0,0.0
2196,61.0,0.0,30.0,0.0,0.0
2197,52.0,30.0,30.0,5.0,0.0
2198,61.0,0.0,30.0,4.0,0.0
2199,54.0,30.0,30.0,1.0,0.0
2200,54.0,0.0,30.0,5.0,0.0
2201,63.0,0.0,30.0,4.0,0.0
2202,63.0,0.0,30.0,0.0,0.0
2203,59.0,0.0,30.0,2.0,0.0
2204,52.0,30.0,30.0,5.0,0.0
2205,52.0,0.0,30.0,1.0,0.0
2206,61.0,0.0,30.0,0.0,0.0
2207,61.0,0.0,30.0,4.0,0.0
2208,58.0,0.0,30.0,2.0,0.0
2209,54.0,30.0,30.0,1.0,0.0
2210,63.0,0.0,30.0,0.0,0.0
2211,59.0,0.0,30.0,2.0,0.0
2212,63.0,0.0,30.0,4.0,0.0
2213,54.0,0.0,30.0,5.0,0.0
2214,61.0,0.0,30.0,0.0,0.0
2215,61.0,59.0,30.0,4.0,0.0
2216,52.0,0.0,30.0,1.0,0.0
2217,52.0,0.0,30.0,5.0,0.0
2218,58.0,0.0,30.0,2.0,0.0
2219,59.0,0.0,60.0,2.0,0.0
2220,51.0,0.0,60.0,1.0,0.0
2221,59.0,0.0,60.0,0.0,0.0
2222,35.0,0.0,60.0,5.0,0.0
2223,35.0,1.0,60.0,3.0,0.0
2224,51.0,30.0,60.0,4.0,0.0
2225,42.0,0.0,60.0,5.0,0.0
2226,59.0,0.0,60.0,4.0,0.0
2227,47.0,0.0,15.0,5.0,0.0
2228,52.0,0.0,30.0,1.0,0.0
2229,61.0,0.0,30.0,0.0,0.0
2230,61.0,29.0,30.0,4.0,0.0
2231,56.0,0.0,60.0,2.0,0.0
2232,47.0,1.0,60.0,3.0,0.0
2233,63.0,0.0,30.0,0.0,0.0
2234,54.0,0.0,30.0,1.0,0.0
2235,63.0,0.0,30.0,4.0,0.0
2236,64.0,0.0,30.0,0.0,0.0
2237,64.0,29.0,30.0,4.0,0.0
2238,44.0,1.0,60.0,3.0,0.0
2239,44.0,59.0,60.0,5.0,0.0
2240,56.0,0.0,30.0,1.0,0.0
2241,47.0,0.0,60.0,2.0,0.0
2242,58.0,0.0,30.0,1.0,0.0
2243,66.0,0.0,30.0,4.0,0.0
2244,66.0,0.0,30.0,0.0,0.0
2245,68.0,0.0,60.0,4.0,0.0
2246,52.0,0.0,60.0,2.0,0.0
2247,68.0,59.0,60.0,0.0,0.0
2248,40.0,1.0,60.0,3.0,0.0
2249,40.0,0.0,60.0,5.0,0.0
2250,59.0,0.0,60.0,1.0,0.0
2251,68.0,0.0,60.0,4.0,0.0
2252,46.0,29.0,60.0,5.0,0.0
2253,52.0,0.0,60.0,2.0,0.0
2254,61.0,0.0,60.0,1.0,0.0
2255,34.0,1.0,60.0,3.0,0.0
2256,68.0,0.0,60.0,0.0,0.0
2257,61.0,29.0,60.0,4.0,0.0
2258,61.0,0.0,60.0,0.0,0.0
2259,46.0,30.0,30.0,3.0,0.0
2260,34.0,0.0,60.0,5.0,0.0
2261,64.0,0.0,60.0,1.0,0.0
2262,54.0,0.0,60.0,2.0,0.0
2263,47.0,1.0,30.0,3.0,0.0
2264,68.0,0.0,60.0,6.0,0.0
2265,46.0,59.0,60.0,7.0,0.0
2266,49.0,30.0,30.0,3.0,0.0
2267,51.0,1.0,30.0,3.0,0.0
2268,61.0,60.0,60.0,6.0,0.0
2269,34.0,0.0,60.0,7.0,0.0
2270,52.0,1.0,60.0,3.0,0.0
2271,42.0,60.0,120.0,5.0,0.0
2272,46.0,0.0,120.0,5.0,0.0
2273,49.0,0.0,120.0,5.0,0.0
2274,52.0,0.0,60.0,4.0,0.0
2275,61.0,59.0,60.0,2.0,0.0
2276,58.0,0.0,60.0,1.0,0.0
2277,52.0,0.0,60.0,0.0,0.0
2278,42.0,1.0,120.0,3.0,0.0
2279,58.0,0.0,60.0,4.0,0.0
2280,54.0,0.0,60.0,1.0,0.0
2281,58.0,0.0,60.0,0.0,0.0
2282,49.0,0.0,60.0,2.0,0.0
2283,61.0,0.0,60.0,4.0,0.0
2284,61.0,0.0,60.0,0.0,0.0
2285,52.0,0.0,60.0,5.0,0.0
2286,52.0,60.0,60.0,2.0,0.0
2287,58.0,0.0,60.0,1.0,0.0
2288,54.0,0.0,60.0,1.0,0.0
2289,51.0,0.0,60.0,5.0,0.0
2290,51.0,0.0,60.0,2.0,0.0
2291,59.0,30.0,60.0,4.0,0.0
2292,59.0,0.0,60.0,0.0,0.0
2293,52.0,0.0,60.0,4.0,0.0
2294,42.0,1.0,120.0,3.0,0.0
2295,58.0,0.0,60.0,1.0,0.0
2296,46.0,0.0,120.0,5.0,0.0
2297,52.0,30.0,60.0,0.0,0.0
2298,42.0,0.0,120.0,5.0,0.0
2299,61.0,0.0,60.0,2.0,0.0
2300,49.0,30.0,30.0,5.0,0.0
2301,47.0,0.0,30.0,5.0,0.0
2302,58.0,0.0,30.0,4.0,0.0
2303,49.0,0.0,30.0,5.0,0.0
2304,58.0,0.0,30.0,0.0,0.0
2305,49.0,29.0,30.0,2.0,0.0
2306,54.0,0.0,30.0,1.0,0.0
2307,51.0,0.0,30.0,5.0,0.0
2308,59.0,0.0,30.0,0.0,0.0
2309,59.0,30.0,30.0,4.0,0.0
2310,56.0,0.0,30.0,1.0,0.0
2311,51.0,0.0,30.0,2.0,0.0
2312,52.0,0.0,30.0,5.0,0.0
2313,58.0,30.0,30.0,1.0,0.0
2314,52.0,0.0,30.0,2.0,0.0
2315,61.0,0.0,30.0,4.0,0.0
2316,61.0,0.0,30.0,0.0,0.0
2317,51.0,0.0,30.0,2.0,0.0
2318,59.0,0.0,30.0,0.0,0.0
2319,59.0,0.0,30.0,4.0,0.0
2320,56.0,30.0,30.0,1.0,0.0
2321,51.0,0.0,30.0,5.0,0.0
2322,52.0,0.0,30.0,5.0,0.0
2323,61.0,0.0,30.0,4.0,0.0
2324,52.0,0.0,30.0,2.0,0.0
2325,58.0,0.0,30.0,1.0,0.0
2326,61.0,30.0,30.0,0.0,0.0
2327,51.0,0.0,30.0,5.0,0.0
2328,59.0,59.0,30.0,4.0,0.0
2329,56.0,0.0,30.0,1.0,0.0
2330,59.0,0.0,30.0,0.0,0.0
2331,51.0,0.0,30.0,2.0,0.0
2332,58.0,0.0,60.0,0.0,0.0
2333,54.0,0.0,60.0,1.0,0.0
2334,49.0,30.0,60.0,2.0,0.0
2335,58.0,0.0,60.0,4.0,0.0
2336,52.0,0.0,60.0,4.0,0.0
2337,49.0,0.0,60.0,5.0,0.0
2338,42.0,0.0,60.0,5.0,0.0
2339,42.0,1.0,60.0,3.0,0.0
2340,56.0,0.0,60.0,5.0,0.0
2341,59.0,29.0,30.0,0.0,0.0
2342,44.0,1.0,60.0,3.0,0.0
2343,64.0,30.0,60.0,1.0,0.0
2344,59.0,0.0,30.0,4.0,0.0
2345,59.0,0.0,60.0,2.0,0.0
2346,61.0,0.0,30.0,4.0,0.0
2347,61.0,0.0,30.0,0.0,0.0
2348,54.0,0.0,60.0,5.0,0.0
2349,42.0,1.0,60.0,3.0,0.0
2350,63.0,0.0,60.0,1.0,0.0
2351,63.0,0.0,30.0,4.0,0.0
2352,63.0,29.0,30.0,0.0,0.0
2353,59.0,0.0,60.0,2.0,0.0
2354,64.0,59.0,30.0,4.0,0.0
2355,64.0,0.0,30.0,0.0,0.0
2356,52.0,0.0,60.0,5.0,0.0
2357,40.0,1.0,60.0,3.0,0.0
2358,58.0,59.0,60.0,2.0,0.0
2359,61.0,0.0,60.0,1.0,0.0
2360,66.0,0.0,15.0,0.0,0.0
2361,66.0,0.0,15.0,4.0,0.0
2362,59.0,0.0,60.0,1.0,0.0
2363,51.0,0.0,60.0,5.0,0.0
2364,39.0,1.0,60.0,3.0,0.0
2365,59.0,0.0,60.0,2.0,0.0
2366,51.0,0.0,60.0,2.0,0.0
2367,59.0,0.0,60.0,4.0,0.0
2368,54.0,0.0,60.0,1.0,0.0
2369,59.0,0.0,60.0,0.0,0.0
2370,39.0,29.0,60.0,5.0,0.0
2371,51.0,30.0,30.0,3.0,0.0
2372,52.0,1.0,30.0,3.0,0.0
2373,66.0,0.0,60.0,6.0,0.0
2374,51.0,59.0,60.0,7.0,0.0
2375,54.0,30.0,30.0,3.0,0.0
2376,56.0,1.0,30.0,3.0,0.0
2377,57.0,1.0,60.0,3.0,0.0
2378,59.0,0.0,60.0,6.0,0.0
2379,39.0,30.0,60.0,7.0,0.0
2380,44.0,1.0,120.0,3.0,0.0
2381,71.0,30.0,30.0,4.0,0.0
2382,44.0,30.0,60.0,5.0,0.0
2383,68.0,0.0,30.0,4.0,0.0
2384,64.0,29.0,30.0,4.0,0.0
2385,56.0,0.0,60.0,5.0,0.0
2386,59.0,30.0,30.0,4.0,0.0
2387,71.0,30.0,60.0,6.0,0.0
2388,56.0,0.0,60.0,7.0,0.0
2389,56.0,0.0,120.0,1.0,0.0
2390,56.0,30.0,120.0,0.0,0.0
2391,64.0,30.0,30.0,4.0,0.0
2392,56.0,0.0,120.0,2.0,0.0
2393,68.0,0.0,30.0,4.0,0.0
2394,71.0,30.0,30.0,4.0,0.0
2395,68.0,0.0,60.0,6.0,0.0
2396,52.0,0.0,60.0,7.0,0.0
2397,70.0,0.0,30.0,4.0,0.0
2398,42.0,0.0,60.0,5.0,0.0
2399,71.0,30.0,30.0,4.0,0.0
2400,42.0,1.0,120.0,3.0,0.0
2401,66.0,30.0,30.0,4.0,0.0
2402,54.0,30.0,60.0,5.0,0.0
2403,63.0,29.0,30.0,4.0,0.0
2404,59.0,0.0,30.0,4.0,0.0
2405,54.0,0.0,120.0,2.0,0.0
2406,63.0,30.0,30.0,4.0,0.0
2407,54.0,0.0,120.0,1.0,0.0
2408,51.0,0.0,60.0,7.0,0.0
2409,54.0,0.0,120.0,0.0,0.0
2410,71.0,0.0,60.0,6.0,0.0
2411,66.0,30.0,30.0,4.0,0.0
2412,47.0,30.0,60.0,7.0,0.0
2413,66.0,0.0,60.0,6.0,0.0
2414,71.0,30.0,30.0,4.0,0.0
2415,70.0,0.0,30.0,4.0,0.0
2416,41.0,30.0,60.0,5.0,0.0
2417,41.0,1.0,60.0,3.0,0.0
2418,71.0,29.0,30.0,4.0,0.0
2419,68.0,0.0,30.0,4.0,0.0
2420,68.0,0.0,30.0,0.0,0.0
2421,65.0,0.0,60.0,1.0,0.0
2422,65.0,29.0,30.0,4.0,0.0
2423,59.0,0.0,30.0,2.0,0.0
2424,44.0,1.0,60.0,3.0,0.0
2425,44.0,30.0,60.0,5.0,0.0
2426,61.0,0.0,30.0,4.0,0.0
2427,68.0,0.0,60.0,1.0,0.0
2428,65.0,0.0,30.0,0.0,0.0
2429,49.0,1.0,60.0,3.0,0.0
2430,49.0,30.0,60.0,5.0,0.0
2431,56.0,0.0,60.0,7.0,0.0
2432,71.0,0.0,60.0,6.0,0.0
2433,65.0,0.0,30.0,4.0,0.0
2434,56.0,29.0,30.0,2.0,0.0
2435,68.0,0.0,30.0,4.0,0.0
2436,37.0,1.0,60.0,3.0,0.0
2437,71.0,0.0,30.0,4.0,0.0
2438,65.0,0.0,60.0,1.0,0.0
2439,68.0,0.0,30.0,0.0,0.0
2440,65.0,0.0,60.0,6.0,0.0
2441,49.0,0.0,60.0,7.0,0.0
2442,37.0,0.0,60.0,5.0,0.0
2443,61.0,29.0,30.0,2.0,0.0
2444,68.0,30.0,30.0,4.0,0.0
2445,42.0,0.0,60.0,5.0,0.0
2446,66.0,30.0,120.0,1.0,0.0
2447,42.0,1.0,120.0,3.0,0.0
2448,61.0,0.0,120.0,2.0,0.0
2449,70.0,0.0,120.0,0.0,0.0
2450,70.0,30.0,30.0,4.0,0.0
2451,66.0,30.0,30.0,4.0,0.0
2452,54.0,0.0,60.0,5.0,0.0
2453,61.0,29.0,30.0,4.0,0.0
2454,58.0,0.0,30.0,4.0,0.0
2455,54.0,0.0,60.0,7.0,0.0
2456,54.0,0.0,120.0,0.0,0.0
2457,61.0,30.0,30.0,4.0,0.0
2458,54.0,0.0,120.0,1.0,0.0
2459,54.0,30.0,120.0,2.0,0.0
2460,70.0,30.0,60.0,6.0,0.0
2461,66.0,0.0,30.0,4.0,0.0
2462,66.0,0.0,60.0,6.0,0.0
2463,70.0,30.0,30.0,4.0,0.0
2464,42.0,0.0,60.0,7.0,0.0
2465,66.0,0.0,30.0,4.0,0.0
2466,41.0,30.0,60.0,5.0,0.0
2467,68.0,30.0,30.0,4.0,0.0
2468,41.0,1.0,120.0,3.0,0.0
2469,65.0,0.0,30.0,4.0,0.0
2470,62.0,29.0,30.0,4.0,0.0
2471,53.0,30.0,60.0,5.0,0.0
2472,56.0,0.0,30.0,4.0,0.0
2473,53.0,0.0,120.0,0.0,0.0
2474,68.0,0.0,60.0,6.0,0.0
2475,53.0,0.0,120.0,1.0,0.0
2476,53.0,30.0,60.0,7.0,0.0
2477,53.0,0.0,120.0,2.0,0.0
2478,62.0,30.0,30.0,4.0,0.0
2479,65.0,0.0,30.0,4.0,0.0
2480,65.0,30.0,60.0,6.0,0.0
2481,50.0,0.0,60.0,7.0,0.0
2482,68.0,30.0,30.0,4.0,0.0
2483,66.0,0.0,30.0,4.0,0.0
2484,39.0,1.0,120.0,3.0,0.0
2485,68.0,30.0,30.0,4.0,0.0
2486,39.0,0.0,60.0,5.0,0.0
2487,63.0,30.0,30.0,4.0,0.0
2488,51.0,30.0,60.0,5.0,0.0
2489,59.0,29.0,30.0,4.0,0.0
2490,56.0,0.0,30.0,4.0,0.0
2491,51.0,0.0,120.0,0.0,0.0
2492,68.0,0.0,60.0,6.0,0.0
2493,47.0,0.0,60.0,7.0,0.0
2494,51.0,0.0,120.0,1.0,0.0
2495,51.0,0.0,120.0,2.0,0.0
2496,59.0,30.0,30.0,4.0,0.0
2497,63.0,30.0,30.0,4.0,0.0
2498,63.0,30.0,60.0,6.0,0.0
2499,68.0,30.0,30.0,4.0,0.0
2500,44.0,0.0,60.0,7.0,0.0
2501,66.0,0.0,30.0,4.0,0.0
2502,68.0,29.0,30.0,4.0,0.0
2503,38.0,1.0,60.0,3.0,0.0
2504,38.0,0.0,60.0,5.0,0.0
2505,65.0,30.0,30.0,4.0,0.0
2506,65.0,0.0,30.0,0.0,0.0
2507,68.0,0.0,30.0,1.0,0.0
2508,53.0,29.0,30.0,2.0,0.0
2509,41.0,30.0,60.0,5.0,0.0
2510,62.0,0.0,30.0,4.0,0.0
2511,41.0,1.0,60.0,3.0,0.0
2512,58.0,0.0,30.0,4.0,0.0
2513,62.0,0.0,30.0,4.0,0.0
2514,65.0,29.0,30.0,1.0,0.0
2515,46.0,1.0,60.0,3.0,0.0
2516,53.0,0.0,30.0,2.0,0.0
2517,62.0,0.0,30.0,0.0,0.0
2518,46.0,0.0,60.0,5.0,0.0
2519,53.0,30.0,60.0,7.0,0.0
2520,68.0,0.0,60.0,6.0,0.0
2521,65.0,0.0,30.0,4.0,0.0
2522,62.0,29.0,30.0,1.0,0.0
2523,46.0,30.0,60.0,7.0,0.0
2524,68.0,0.0,30.0,4.0,0.0
2525,34.0,0.0,60.0,5.0,0.0
2526,65.0,0.0,30.0,0.0,0.0
2527,58.0,0.0,30.0,2.0,0.0
2528,34.0,1.0,60.0,3.0,0.0
2529,62.0,0.0,60.0,6.0,0.0
2530,65.0,0.0,30.0,4.0,0.0
2531,58.0,0.0,120.0,2.0,0.0
2532,66.0,29.0,30.0,4.0,0.0
2533,39.0,30.0,60.0,5.0,0.0
2534,63.0,0.0,120.0,1.0,0.0
2535,39.0,1.0,60.0,3.0,0.0
2536,66.0,0.0,120.0,0.0,0.0
2537,63.0,0.0,30.0,4.0,0.0
2538,58.0,29.0,30.0,4.0,0.0
2539,42.0,1.0,60.0,3.0,0.0
2540,51.0,30.0,60.0,5.0,0.0
2541,63.0,0.0,30.0,4.0,0.0
2542,66.0,29.0,30.0,4.0,0.0
2543,63.0,0.0,60.0,6.0,0.0
2544,47.0,1.0,60.0,3.0,0.0
2545,47.0,0.0,60.0,7.0,0.0
2546,70.0,30.0,30.0,4.0,0.0
2547,35.0,0.0,60.0,7.0,0.0
2548,35.0,1.0,60.0,3.0,0.0
2549,71.0,29.0,30.0,4.0,0.0
2550,56.0,29.0,60.0,6.0,0.0
2551,70.0,0.0,30.0,4.0,0.0
2552,41.0,0.0,60.0,3.0,0.0
2553,41.0,29.0,60.0,5.0,0.0
2554,68.0,30.0,30.0,4.0,0.0
2555,65.0,1.0,30.0,4.0,0.0
2556,61.0,30.0,30.0,4.0,0.0
2557,53.0,29.0,60.0,5.0,0.0
2558,44.0,0.0,60.0,3.0,0.0
2559,65.0,1.0,30.0,4.0,0.0
2560,68.0,30.0,30.0,4.0,0.0
2561,49.0,29.0,60.0,7.0,0.0
2562,65.0,0.0,60.0,6.0,0.0
2563,49.0,0.0,60.0,3.0,0.0
2564,71.0,1.0,30.0,4.0,0.0
2565,37.0,0.0,60.0,3.0,0.0
2566,73.0,30.0,30.0,4.0,0.0
2567,56.0,29.0,60.0,6.0,0.0
2568,37.0,0.0,60.0,7.0,0.0
2569,71.0,1.0,30.0,4.0,0.0
2570,42.0,29.0,60.0,5.0,0.0
2571,42.0,1.0,60.0,3.0,0.0
2572,70.0,30.0,30.0,4.0,0.0
2573,66.0,0.0,30.0,4.0,0.0
2574,63.0,30.0,30.0,4.0,0.0
2575,46.0,0.0,60.0,3.0,0.0
2576,54.0,29.0,60.0,5.0,0.0
2577,66.0,1.0,30.0,4.0,0.0
2578,70.0,30.0,30.0,4.0,0.0
2579,51.0,0.0,60.0,7.0,0.0
2580,66.0,29.0,60.0,6.0,0.0
2581,51.0,0.0,60.0,3.0,0.0
2582,73.0,1.0,30.0,4.0,0.0
2583,39.0,1.0,60.0,3.0,0.0
2584,39.0,29.0,60.0,7.0,0.0
2585,59.0,0.0,60.0,6.0,0.0
2586,75.0,30.0,30.0,4.0,0.0
2587,73.0,0.0,30.0,4.0,0.0
2588,71.0,30.0,30.0,4.0,0.0
2589,44.0,1.0,60.0,3.0,0.0
2590,44.0,29.0,60.0,5.0,0.0
2591,68.0,0.0,30.0,4.0,0.0
2592,47.0,1.0,60.0,3.0,0.0
2593,56.0,29.0,60.0,5.0,0.0
2594,63.0,30.0,30.0,4.0,0.0
2595,68.0,0.0,30.0,4.0,0.0
2596,53.0,0.0,60.0,3.0,0.0
2597,71.0,30.0,30.0,4.0,0.0
2598,68.0,0.0,60.0,6.0,0.0
2599,53.0,29.0,60.0,7.0,0.0
2600,75.0,1.0,30.0,4.0,0.0
2601,59.0,0.0,60.0,6.0,0.0
2602,56.0,1.0,60.0,3.0,0.0
2603,77.0,30.0,30.0,4.0,0.0
2604,41.0,29.0,60.0,7.0,0.0
2605,75.0,0.0,30.0,4.0,0.0
2606,46.0,0.0,60.0,3.0,0.0
2607,46.0,29.0,60.0,5.0,0.0
2608,74.0,30.0,30.0,4.0,0.0
2609,68.0,1.0,30.0,4.0,0.0
2610,65.0,1.0,30.0,4.0,0.0
2611,47.0,0.0,60.0,3.0,0.0
2612,50.0,29.0,30.0,5.0,0.0
2613,53.0,29.0,30.0,5.0,0.0
2614,68.0,1.0,30.0,4.0,0.0
2615,74.0,1.0,30.0,4.0,0.0
2616,68.0,0.0,60.0,6.0,0.0
2617,46.0,0.0,60.0,3.0,0.0
2618,58.0,29.0,60.0,5.0,0.0
2619,46.0,29.0,30.0,7.0,0.0
2620,77.0,1.0,30.0,4.0,0.0
2621,47.0,0.0,30.0,7.0,0.0
2622,46.0,29.0,30.0,7.0,0.0
2623,78.0,1.0,30.0,4.0,0.0
2624,62.0,29.0,60.0,6.0,0.0
2625,44.0,0.0,60.0,3.0,0.0
2626,44.0,0.0,30.0,7.0,0.0
2627,77.0,1.0,30.0,4.0,0.0
2628,58.0,0.0,540.0,2.0,0.0
2629,58.0,0.0,60.0,0.0,0.0
2630,51.0,0.0,60.0,7.0,0.0
2631,46.0,0.0,60.0,7.0,0.0
2632,42.0,0.0,60.0,7.0,0.0
2633,58.0,29.0,60.0,6.0,0.0
2634,42.0,30.0,30.0,3.0,0.0
2635,75.0,0.0,30.0,4.0,0.0
2636,70.0,1.0,30.0,4.0,0.0
2637,66.0,0.0,30.0,4.0,0.0
2638,63.0,0.0,60.0,0.0,0.0
2639,39.0,30.0,30.0,3.0,0.0
2640,39.0,29.0,60.0,7.0,0.0
2641,68.0,1.0,30.0,4.0,0.0
2642,63.0,29.0,30.0,1.0,0.0
2643,70.0,1.0,30.0,4.0,0.0
2644,66.0,29.0,60.0,0.0,0.0
2645,66.0,0.0,60.0,6.0,0.0
2646,63.0,0.0,15.0,6.0,0.0
2647,51.0,0.0,60.0,5.0,0.0
2648,54.0,0.0,60.0,5.0,0.0
2649,75.0,1.0,30.0,4.0,0.0
2650,56.0,29.0,60.0,5.0,0.0
2651,68.0,1.0,30.0,4.0,0.0
2652,53.0,0.0,60.0,5.0,0.0
2653,62.0,0.0,60.0,6.0,0.0
2654,65.0,0.0,60.0,0.0,0.0
2655,65.0,0.0,60.0,6.0,0.0
2656,58.0,29.0,30.0,1.0,0.0
2657,75.0,1.0,30.0,4.0,0.0
2658,66.0,30.0,30.0,4.0,0.0
2659,51.0,0.0,30.0,3.0,0.0
2660,58.0,29.0,60.0,6.0,0.0
2661,51.0,0.0,60.0,7.0,0.0
2662,58.0,0.0,60.0,0.0,0.0
2663,54.0,0.0,120.0,7.0,0.0
2664,63.0,1.0,30.0,4.0,0.0
2665,63.0,0.0,30.0,0.0,0.0
2666,42.0,0.0,60.0,7.0,0.0
2667,58.0,0.0,30.0,4.0,0.0
2668,63.0,29.0,30.0,6.0,0.0
2669,42.0,1.0,30.0,3.0,0.0
2670,62.0,1.0,30.0,4.0,0.0
2671,65.0,29.0,30.0,6.0,0.0
2672,65.0,0.0,30.0,0.0,0.0
2673,54.0,29.0,60.0,5.0,0.0
2674,70.0,0.0,30.0,1.0,0.0
2675,63.0,1.0,30.0,4.0,0.0
2676,66.0,0.0,30.0,0.0,0.0
2677,63.0,29.0,30.0,6.0,0.0
2678,66.0,0.0,30.0,6.0,0.0
2679,65.0,0.0,30.0,6.0,0.0
2680,62.0,0.0,30.0,6.0,0.0
2681,58.0,1.0,30.0,4.0,0.0
2682,65.0,0.0,30.0,0.0,0.0
2683,66.0,0.0,30.0,1.0,0.0
2684,66.0,0.0,30.0,0.0,0.0
2685,66.0,0.0,30.0,6.0,0.0
2686,63.0,29.0,30.0,6.0,0.0
2687,51.0,0.0,60.0,5.0,0.0
2688,63.0,1.0,30.0,4.0,0.0
2689,58.0,1.0,30.0,4.0,0.0
2690,65.0,0.0,30.0,6.0,0.0
2691,65.0,0.0,30.0,0.0,0.0
2692,62.0,59.0,30.0,6.0,0.0
2693,54.0,0.0,60.0,4.0,0.0
2694,54.0,1.0,60.0,3.0,0.0
2695,63.0,0.0,60.0,1.0,0.0
2696,63.0,0.0,60.0,0.0,0.0
2697,54.0,30.0,60.0,7.0,0.0
2698,63.0,0.0,60.0,6.0,0.0
2699,65.0,0.0,30.0,0.0,0.0
2700,58.0,0.0,60.0,4.0,0.0
2701,51.0,0.0,60.0,7.0,0.0
2702,51.0,0.0,60.0,5.0,0.0
2703,51.0,1.0,60.0,3.0,0.0
2704,65.0,0.0,30.0,6.0,0.0
2705,65.0,29.0,30.0,1.0,0.0
2706,54.0,0.0,60.0,2.0,0.0
2707,66.0,0.0,30.0,0.0,0.0
2708,66.0,0.0,30.0,1.0,0.0
2709,66.0,30.0,30.0,6.0,0.0
2710,51.0,0.0,60.0,2.0,0.0
2711,47.0,0.0,60.0,5.0,0.0
2712,47.0,0.0,60.0,7.0,0.0
2713,68.0,29.0,30.0,6.0,0.0
2714,68.0,0.0,30.0,1.0,0.0
2715,47.0,1.0,60.0,3.0,0.0
2716,68.0,0.0,30.0,0.0,0.0
2717,63.0,0.0,60.0,4.0,0.0
2718,70.0,59.0,30.0,0.0,0.0
2719,70.0,0.0,30.0,6.0,0.0
2720,70.0,0.0,30.0,1.0,0.0
2721,71.0,0.0,60.0,1.0,0.0
2722,44.0,1.0,60.0,3.0,0.0
2723,68.0,0.0,90.0,4.0,0.0
2724,44.0,0.0,60.0,7.0,0.0
2725,63.0,0.0,60.0,2.0,0.0
2726,44.0,0.0,60.0,5.0,0.0
2727,37.0,0.0,60.0,7.0,0.0
2728,71.0,29.0,15.0,0.0,0.0
2729,71.0,0.0,60.0,1.0,0.0
2730,49.0,0.0,60.0,5.0,0.0
2731,71.0,0.0,15.0,6.0,0.0
2732,65.0,0.0,60.0,2.0,0.0
2733,37.0,30.0,30.0,3.0,0.0
2734,65.0,1.0,30.0,4.0,0.0
2735,68.0,29.0,60.0,2.0,0.0
2736,49.0,0.0,60.0,7.0,0.0
2737,65.0,0.0,60.0,1.0,0.0
2738,65.0,0.0,60.0,6.0,0.0
2739,49.0,0.0,30.0,3.0,0.0
2740,61.0,0.0,30.0,4.0,0.0
2741,53.0,30.0,30.0,5.0,0.0
2742,65.0,0.0,60.0,0.0,0.0
2743,65.0,0.0,30.0,4.0,0.0
2744,56.0,1.0,30.0,5.0,0.0
2745,61.0,0.0,60.0,5.0,0.0
2746,68.0,30.0,30.0,4.0,0.0
2747,65.0,29.0,60.0,2.0,0.0
2748,73.0,1.0,30.0,4.0,0.0
2749,75.0,30.0,30.0,4.0,0.0
2750,61.0,29.0,60.0,2.0,0.0
2751,73.0,1.0,30.0,4.0,0.0
2752,49.0,0.0,60.0,7.0,0.0
2753,56.0,0.0,540.0,2.0,0.0
2754,71.0,0.0,30.0,4.0,0.0
2755,41.0,0.0,60.0,7.0,0.0
2756,56.0,0.0,60.0,6.0,0.0
2757,56.0,29.0,60.0,0.0,0.0
2758,44.0,0.0,60.0,7.0,0.0
2759,41.0,30.0,30.0,3.0,0.0
2760,68.0,1.0,30.0,4.0,0.0
2761,61.0,29.0,60.0,6.0,0.0
2762,65.0,30.0,30.0,4.0,0.0
2763,37.0,0.0,60.0,7.0,0.0
2764,61.0,0.0,60.0,0.0,0.0
2765,37.0,0.0,30.0,3.0,0.0
2766,66.0,1.0,30.0,4.0,0.0
2767,61.0,29.0,30.0,1.0,0.0
2768,68.0,1.0,30.0,4.0,0.0
2769,65.0,29.0,60.0,6.0,0.0
2770,53.0,0.0,60.0,5.0,0.0
2771,49.0,0.0,60.0,5.0,0.0
2772,61.0,0.0,60.0,6.0,0.0
2773,65.0,0.0,60.0,0.0,0.0
2774,71.0,1.0,30.0,4.0,0.0
2775,54.0,0.0,60.0,5.0,0.0
2776,51.0,29.0,60.0,5.0,0.0
2777,56.0,29.0,30.0,1.0,0.0
2778,63.0,0.0,60.0,6.0,0.0
2779,63.0,0.0,60.0,0.0,0.0
2780,66.0,1.0,30.0,4.0,0.0
2781,71.0,1.0,30.0,4.0,0.0
2782,56.0,0.0,15.0,6.0,0.0
2783,49.0,30.0,30.0,3.0,0.0
2784,53.0,0.0,120.0,7.0,0.0
2785,49.0,0.0,60.0,7.0,0.0
2786,56.0,0.0,60.0,0.0,0.0
2787,65.0,0.0,30.0,4.0,0.0
2788,61.0,1.0,30.0,4.0,0.0
2789,61.0,0.0,30.0,0.0,0.0
2790,61.0,29.0,30.0,6.0,0.0
2791,41.0,0.0,30.0,3.0,0.0
2792,41.0,0.0,60.0,7.0,0.0
2793,56.0,1.0,30.0,4.0,0.0
2794,60.0,1.0,30.0,4.0,0.0
2795,63.0,29.0,30.0,0.0,0.0
2796,63.0,0.0,30.0,6.0,0.0
2797,61.0,1.0,30.0,4.0,0.0
2798,65.0,29.0,30.0,0.0,0.0
2799,61.0,0.0,30.0,6.0,0.0
2800,65.0,0.0,30.0,6.0,0.0
2801,68.0,0.0,30.0,1.0,0.0
2802,53.0,29.0,60.0,5.0,0.0
2803,63.0,0.0,30.0,6.0,0.0
2804,60.0,0.0,30.0,6.0,0.0
2805,56.0,1.0,30.0,4.0,0.0
2806,63.0,0.0,30.0,0.0,0.0
2807,65.0,0.0,30.0,0.0,0.0
2808,61.0,0.0,30.0,6.0,0.0
2809,65.0,0.0,30.0,1.0,0.0
2810,61.0,1.0,30.0,4.0,0.0
2811,65.0,29.0,30.0,6.0,0.0
2812,49.0,0.0,60.0,5.0,0.0
2813,63.0,0.0,30.0,0.0,0.0
2814,63.0,59.0,30.0,6.0,0.0
2815,60.0,0.0,30.0,6.0,0.0
2816,56.0,1.0,30.0,4.0,0.0
2817,61.0,30.0,60.0,0.0,0.0
2818,61.0,0.0,60.0,1.0,0.0
2819,53.0,0.0,60.0,3.0,0.0
2820,53.0,0.0,60.0,7.0,0.0
2821,61.0,0.0,60.0,6.0,0.0
2822,53.0,1.0,60.0,4.0,0.0
2823,63.0,0.0,30.0,0.0,0.0
2824,53.0,0.0,60.0,2.0,0.0
2825,63.0,0.0,30.0,1.0,0.0
2826,56.0,1.0,60.0,4.0,0.0
2827,49.0,0.0,60.0,7.0,0.0
2828,49.0,0.0,60.0,3.0,0.0
2829,63.0,29.0,30.0,6.0,0.0
2830,49.0,0.0,60.0,5.0,0.0
2831,65.0,0.0,30.0,1.0,0.0
2832,65.0,0.0,30.0,0.0,0.0
2833,65.0,30.0,30.0,6.0,0.0
2834,49.0,0.0,60.0,2.0,0.0
2835,66.0,0.0,30.0,1.0,0.0
2836,46.0,59.0,60.0,7.0,0.0
2837,66.0,0.0,30.0,6.0,0.0
2838,46.0,0.0,60.0,5.0,0.0
2839,66.0,29.0,30.0,0.0,0.0
2840,46.0,1.0,60.0,3.0,0.0
2841,61.0,0.0,60.0,4.0,0.0
2842,68.0,0.0,30.0,6.0,0.0
2843,68.0,0.0,30.0,0.0,0.0
2844,68.0,0.0,30.0,1.0,0.0
2845,70.0,0.0,60.0,6.0,0.0
2846,61.0,29.0,60.0,2.0,0.0
2847,42.0,0.0,60.0,5.0,0.0
2848,42.0,1.0,60.0,3.0,0.0
2849,70.0,0.0,60.0,0.0,0.0
2850,66.0,0.0,90.0,4.0,0.0
2851,42.0,0.0,60.0,7.0,0.0
2852,70.0,0.0,15.0,1.0,0.0
2853,35.0,0.0,60.0,7.0,0.0
2854,70.0,0.0,60.0,6.0,0.0
2855,47.0,29.0,60.0,5.0,0.0
2856,70.0,0.0,60.0,0.0,0.0
2857,35.0,30.0,30.0,3.0,0.0
2858,63.0,0.0,60.0,2.0,0.0
2859,63.0,1.0,30.0,4.0,0.0
2860,59.0,0.0,30.0,4.0,0.0
2861,63.0,29.0,60.0,0.0,0.0
2862,66.0,0.0,60.0,2.0,0.0
2863,63.0,0.0,60.0,1.0,0.0
2864,47.0,0.0,60.0,7.0,0.0
2865,63.0,0.0,60.0,6.0,0.0
2866,51.0,29.0,30.0,5.0,0.0
2867,47.0,1.0,30.0,3.0,0.0
2868,63.0,1.0,30.0,4.0,0.0
2869,54.0,0.0,30.0,5.0,0.0
2870,66.0,30.0,30.0,4.0,0.0
2871,63.0,0.0,60.0,2.0,0.0
2872,59.0,29.0,60.0,5.0,0.0
2873,70.0,1.0,30.0,4.0,0.0
2874,59.0,30.0,60.0,2.0,0.0
2875,71.0,30.0,30.0,4.0,0.0
2876,70.0,1.0,30.0,4.0,0.0
2877,68.0,1.0,60.0,4.0,0.0
2878,75.0,0.0,30.0,6.0,0.0
2879,75.0,29.0,30.0,0.0,0.0
2880,47.0,0.0,60.0,7.0,0.0
2881,73.0,29.0,30.0,6.0,0.0
2882,73.0,0.0,30.0,0.0,0.0
2883,56.0,0.0,60.0,7.0,0.0
2884,75.0,1.0,30.0,4.0,0.0
2885,71.0,29.0,30.0,0.0,0.0
2886,71.0,0.0,30.0,6.0,0.0
2887,44.0,0.0,60.0,5.0,0.0
2888,70.0,0.0,30.0,0.0,0.0
2889,73.0,1.0,30.0,4.0,0.0
2890,70.0,29.0,30.0,6.0,0.0
2891,47.0,29.0,60.0,5.0,0.0
2892,68.0,0.0,60.0,0.0,0.0
2893,71.0,1.0,30.0,4.0,0.0
2894,63.0,29.0,30.0,1.0,0.0
2895,68.0,0.0,60.0,6.0,0.0
2896,61.0,0.0,30.0,1.0,0.0
2897,70.0,1.0,30.0,4.0,0.0
2898,68.0,1.0,30.0,4.0,0.0
2899,59.0,29.0,30.0,1.0,0.0
2900,51.0,0.0,60.0,5.0,0.0
2901,58.0,29.0,30.0,1.0,0.0
2902,67.0,1.0,30.0,4.0,0.0
2903,68.0,0.0,30.0,4.0,0.0
2904,47.0,1.0,30.0,3.0,0.0
2905,68.0,0.0,15.0,6.0,0.0
2906,68.0,0.0,15.0,0.0,0.0
2907,56.0,0.0,60.0,1.0,0.0
2908,56.0,0.0,60.0,5.0,0.0
2909,63.0,29.0,30.0,2.0,0.0
2910,61.0,29.0,30.0,2.0,0.0
2911,64.0,1.0,30.0,4.0,0.0
2912,56.0,0.0,30.0,3.0,0.0
2913,63.0,1.0,30.0,4.0,0.0
2914,56.0,29.0,60.0,7.0,0.0
2915,44.0,0.0,60.0,5.0,0.0
2916,59.0,29.0,30.0,2.0,0.0
2917,58.0,0.0,30.0,2.0,0.0
2918,61.0,1.0,30.0,4.0,0.0
2919,59.0,1.0,30.0,4.0,0.0
2920,56.0,29.0,60.0,2.0,0.0
2921,51.0,0.0,60.0,7.0,0.0
2922,63.0,0.0,30.0,6.0,0.0
2923,63.0,0.0,30.0,0.0,0.0
2924,58.0,1.0,30.0,4.0,0.0
2925,47.0,0.0,60.0,7.0,0.0
2926,68.0,29.0,30.0,6.0,0.0
2927,56.0,1.0,30.0,4.0,0.0
2928,68.0,0.0,30.0,0.0,0.0
2929,70.0,30.0,30.0,6.0,0.0
2930,55.0,1.0,30.0,4.0,0.0
2931,70.0,0.0,30.0,0.0,0.0
2932,56.0,1.0,60.0,4.0,0.0
2933,44.0,0.0,60.0,7.0,0.0
2934,71.0,29.0,30.0,6.0,0.0
2935,71.0,0.0,30.0,0.0,0.0
2936,70.0,0.0,30.0,0.0,0.0
2937,70.0,29.0,30.0,6.0,0.0
2938,68.0,0.0,30.0,0.0,0.0
2939,44.0,29.0,60.0,5.0,0.0
2940,68.0,29.0,30.0,6.0,0.0
2941,71.0,1.0,30.0,4.0,0.0
2942,52.0,0.0,60.0,7.0,0.0
2943,66.0,0.0,30.0,0.0,0.0
2944,70.0,1.0,30.0,4.0,0.0
2945,66.0,0.0,30.0,6.0,0.0
2946,64.0,0.0,60.0,0.0,0.0
2947,59.0,29.0,30.0,1.0,0.0
2948,68.0,1.0,30.0,4.0,0.0
2949,47.0,0.0,60.0,5.0,0.0
2950,57.0,29.0,30.0,1.0,0.0
2951,66.0,1.0,30.0,4.0,0.0
2952,56.0,29.0,30.0,1.0,0.0
2953,52.0,0.0,60.0,5.0,0.0
2954,64.0,0.0,15.0,6.0,0.0
2955,64.0,1.0,30.0,4.0,0.0
2956,64.0,0.0,60.0,0.0,0.0
2957,54.0,29.0,30.0,1.0,0.0
2958,63.0,1.0,30.0,4.0,0.0
2959,52.0,29.0,60.0,1.0,0.0
2960,64.0,0.0,15.0,6.0,0.0
2961,59.0,29.0,30.0,2.0,0.0
2962,44.0,0.0,30.0,3.0,0.0
2963,64.0,1.0,30.0,4.0,0.0
2964,64.0,0.0,120.0,0.0,0.0
2965,56.0,0.0,60.0,5.0,0.0
2966,57.0,0.0,30.0,2.0,0.0
2967,61.0,1.0,30.0,4.0,0.0
2968,52.0,0.0,60.0,7.0,0.0
2969,56.0,29.0,30.0,2.0,0.0
2970,59.0,0.0,30.0,4.0,0.0
2971,44.0,0.0,60.0,5.0,0.0
2972,52.0,1.0,30.0,3.0,0.0
2973,57.0,1.0,30.0,4.0,0.0
2974,54.0,29.0,30.0,2.0,0.0
2975,52.0,29.0,60.0,2.0,0.0
2976,47.0,0.0,60.0,7.0,0.0
2977,56.0,1.0,30.0,4.0,0.0
2978,59.0,0.0,30.0,6.0,0.0
2979,54.0,1.0,30.0,4.0,0.0
2980,64.0,29.0,30.0,6.0,0.0
2981,52.0,1.0,30.0,4.0,0.0
2982,44.0,0.0,60.0,7.0,0.0
2983,51.0,1.0,30.0,4.0,0.0
2984,66.0,29.0,30.0,6.0,0.0
2985,52.0,1.0,30.0,4.0,0.0
2986,68.0,29.0,30.0,6.0,0.0
2987,40.0,0.0,60.0,7.0,0.0
2988,70.0,29.0,30.0,6.0,0.0
2989,54.0,1.0,30.0,4.0,0.0
2990,56.0,1.0,30.0,4.0,0.0
2991,39.0,0.0,60.0,7.0,0.0
2992,39.0,30.0,60.0,5.0,0.0
2993,71.0,29.0,30.0,6.0,0.0
2994,58.0,1.0,30.0,4.0,0.0
2995,70.0,0.0,30.0,6.0,0.0
2996,44.0,0.0,60.0,5.0,0.0
2997,59.0,30.0,30.0,1.0,0.0
2998,38.0,30.0,60.0,7.0,0.0
2999,68.0,0.0,30.0,6.0,0.0
3000,66.0,0.0,30.0,6.0,0.0
3001,58.0,0.0,30.0,1.0,0.0
3002,59.0,0.0,15.0,4.0,0.0
3003,56.0,30.0,30.0,1.0,0.0
3004,39.0,0.0,60.0,7.0,0.0
3005,47.0,0.0,60.0,5.0,0.0
3006,65.0,0.0,30.0,6.0,0.0
3007,63.0,0.0,30.0,6.0,0.0
3008,54.0,30.0,30.0,1.0,0.0
3009,41.0,1.0,60.0,3.0,0.0
3010,62.0,0.0,60.0,6.0,0.0
3011,41.0,29.0,60.0,5.0,0.0
3012,41.0,0.0,60.0,7.0,0.0
3013,56.0,0.0,60.0,1.0,0.0
3014,65.0,29.0,30.0,2.0,0.0
3015,71.0,0.0,30.0,4.0,0.0
3016,63.0,0.0,30.0,2.0,0.0
3017,65.0,0.0,60.0,1.0,0.0
3018,70.0,0.0,60.0,6.0,0.0
3019,62.0,30.0,30.0,2.0,0.0
3020,70.0,0.0,60.0,0.0,0.0
3021,50.0,0.0,60.0,7.0,0.0
3022,70.0,0.0,30.0,4.0,0.0
3023,50.0,0.0,60.0,5.0,0.0
3024,50.0,1.0,30.0,3.0,0.0
3025,68.0,29.0,30.0,4.0,0.0
3026,60.0,0.0,30.0,2.0,0.0
3027,63.0,29.0,60.0,6.0,0.0
3028,51.0,0.0,60.0,7.0,0.0
3029,66.0,0.0,60.0,1.0,0.0
3030,63.0,0.0,60.0,0.0,0.0
3031,51.0,0.0,60.0,5.0,0.0
3032,58.0,0.0,60.0,2.0,0.0
3033,66.0,30.0,30.0,4.0,0.0
3034,51.0,1.0,30.0,3.0,0.0
3035,65.0,0.0,30.0,4.0,0.0
3036,68.0,0.0,60.0,1.0,0.0
3037,59.0,0.0,60.0,2.0,0.0
3038,68.0,0.0,60.0,0.0,0.0
3039,68.0,0.0,60.0,6.0,0.0
3040,47.0,1.0,30.0,3.0,0.0
3041,47.0,59.0,60.0,5.0,0.0
3042,47.0,0.0,60.0,7.0,0.0
3043,63.0,30.0,30.0,4.0,0.0
3044,62.0,0.0,30.0,4.0,0.0
3045,46.0,0.0,60.0,5.0,0.0
3046,66.0,0.0,90.0,0.0,0.0
3047,66.0,0.0,90.0,6.0,0.0
3048,63.0,29.0,90.0,4.0,0.0
3049,70.0,0.0,60.0,1.0,0.0
3050,46.0,0.0,60.0,7.0,0.0
3051,46.0,1.0,60.0,3.0,0.0
3052,54.0,30.0,60.0,2.0,0.0
3053,44.0,0.0,60.0,5.0,0.0
3054,71.0,0.0,60.0,1.0,0.0
3055,44.0,0.0,60.0,7.0,0.0
3056,44.0,1.0,60.0,3.0,0.0
3057,51.0,0.0,60.0,2.0,0.0
3058,65.0,0.0,30.0,6.0,0.0
3059,65.0,15.0,30.0,0.0,0.0
3060,65.0,0.0,30.0,4.0,0.0
3061,46.0,0.0,60.0,7.0,0.0
3062,70.0,15.0,60.0,1.0,0.0
3063,62.0,15.0,15.0,4.0,0.0
3064,58.0,0.0,60.0,2.0,0.0
3065,46.0,0.0,60.0,5.0,0.0
3066,65.0,0.0,90.0,6.0,0.0
3067,46.0,1.0,60.0,3.0,0.0
3068,65.0,29.0,90.0,0.0,0.0
3069,63.0,15.0,15.0,4.0,0.0
3070,62.0,14.0,15.0,4.0,0.0
3071,63.0,0.0,15.0,4.0,0.0
3072,58.0,0.0,60.0,2.0,0.0
3073,62.0,15.0,15.0,4.0,0.0
3074,34.0,29.0,60.0,7.0,0.0
3075,34.0,1.0,60.0,3.0,0.0
3076,68.0,0.0,60.0,1.0,0.0
3077,34.0,0.0,60.0,5.0,0.0
3078,63.0,0.0,30.0,6.0,0.0
3079,63.0,0.0,15.0,0.0,0.0
3080,63.0,30.0,30.0,6.0,0.0
3081,63.0,0.0,15.0,4.0,0.0
3082,39.0,1.0,30.0,3.0,0.0
3083,39.0,0.0,120.0,5.0,0.0
3084,67.0,0.0,60.0,1.0,0.0
3085,58.0,30.0,120.0,2.0,0.0
3086,39.0,29.0,60.0,7.0,0.0
3087,65.0,0.0,30.0,6.0,0.0
3088,51.0,1.0,30.0,3.0,0.0
3089,51.0,30.0,30.0,1.0,0.0
3090,58.0,0.0,60.0,7.0,0.0
3091,67.0,0.0,30.0,6.0,0.0
3092,68.0,0.0,30.0,6.0,0.0
3093,53.0,0.0,30.0,1.0,0.0
3094,70.0,30.0,30.0,6.0,0.0
3095,55.0,0.0,30.0,1.0,0.0
3096,55.0,0.0,60.0,7.0,0.0
3097,56.0,0.0,30.0,1.0,0.0
3098,71.0,30.0,30.0,6.0,0.0
3099,51.0,0.0,60.0,7.0,0.0
3100,63.0,0.0,30.0,0.0,0.0
3101,63.0,30.0,30.0,4.0,0.0
3102,58.0,0.0,60.0,1.0,0.0
3103,65.0,0.0,30.0,0.0,0.0
3104,65.0,0.0,30.0,4.0,0.0
3105,51.0,0.0,30.0,2.0,0.0
3106,39.0,1.0,30.0,3.0,0.0
3107,46.0,0.0,60.0,7.0,0.0
3108,73.0,29.0,15.0,6.0,0.0
3109,67.0,0.0,30.0,4.0,0.0
3110,67.0,30.0,30.0,0.0,0.0
3111,68.0,0.0,30.0,0.0,0.0
3112,53.0,29.0,30.0,2.0,0.0
3113,68.0,0.0,30.0,4.0,0.0
3114,70.0,0.0,30.0,0.0,0.0
3115,51.0,1.0,30.0,3.0,0.0
3116,67.0,0.0,60.0,6.0,0.0
3117,58.0,0.0,60.0,5.0,0.0
3118,51.0,30.0,60.0,7.0,0.0
3119,70.0,0.0,30.0,4.0,0.0
3120,55.0,30.0,30.0,2.0,0.0
3121,71.0,0.0,30.0,0.0,0.0
3122,71.0,0.0,30.0,4.0,0.0
3123,56.0,0.0,30.0,2.0,0.0
3124,73.0,30.0,60.0,4.0,0.0
3125,58.0,0.0,60.0,2.0,0.0
3126,73.0,0.0,60.0,0.0,0.0
3127,55.0,30.0,30.0,1.0,0.0
3128,46.0,0.0,60.0,7.0,0.0
3129,55.0,0.0,60.0,5.0,0.0
3130,56.0,0.0,30.0,1.0,0.0
3131,67.0,29.0,60.0,4.0,0.0
3132,49.0,0.0,60.0,7.0,0.0
3133,51.0,0.0,60.0,5.0,0.0
3134,67.0,0.0,60.0,0.0,0.0
3135,58.0,30.0,30.0,1.0,0.0
3136,59.0,0.0,30.0,1.0,0.0
3137,39.0,30.0,90.0,7.0,0.0
3138,46.0,0.0,60.0,5.0,0.0
3139,39.0,1.0,30.0,3.0,0.0
3140,53.0,0.0,30.0,2.0,0.0
3141,61.0,29.0,60.0,1.0,0.0
3142,67.0,30.0,30.0,6.0,0.0
3143,55.0,0.0,30.0,2.0,0.0
3144,68.0,0.0,30.0,6.0,0.0
3145,56.0,0.0,30.0,2.0,0.0
3146,51.0,0.0,60.0,5.0,0.0
3147,70.0,0.0,30.0,6.0,0.0
3148,51.0,1.0,30.0,3.0,0.0
3149,58.0,30.0,30.0,2.0,0.0
3150,63.0,0.0,30.0,7.0,0.0
3151,71.0,0.0,30.0,6.0,0.0
3152,46.0,30.0,60.0,5.0,0.0
3153,55.0,0.0,30.0,1.0,0.0
3154,73.0,0.0,30.0,6.0,0.0
3155,61.0,30.0,30.0,7.0,0.0
3156,59.0,0.0,60.0,2.0,0.0
3157,56.0,0.0,30.0,1.0,0.0
3158,75.0,0.0,30.0,6.0,0.0
3159,59.0,0.0,30.0,7.0,0.0
3160,67.0,0.0,30.0,4.0,0.0
3161,76.0,0.0,60.0,6.0,0.0
3162,58.0,0.0,30.0,7.0,0.0
3163,67.0,30.0,30.0,0.0,0.0
3164,49.0,0.0,60.0,5.0,0.0
3165,58.0,0.0,30.0,1.0,0.0
3166,68.0,0.0,30.0,0.0,0.0
3167,59.0,0.0,30.0,1.0,0.0
3168,56.0,29.0,30.0,7.0,0.0
3169,68.0,0.0,30.0,4.0,0.0
3170,70.0,0.0,30.0,4.0,0.0
3171,39.0,0.0,60.0,5.0,0.0
3172,70.0,30.0,30.0,0.0,0.0
3173,55.0,0.0,60.0,7.0,0.0
3174,76.0,0.0,60.0,6.0,0.0
3175,61.0,29.0,60.0,1.0,0.0
3176,39.0,1.0,30.0,3.0,0.0
3177,71.0,0.0,30.0,4.0,0.0
3178,71.0,0.0,30.0,0.0,0.0
3179,70.0,0.0,60.0,6.0,0.0
3180,51.0,0.0,60.0,7.0,0.0
3181,73.0,30.0,30.0,0.0,0.0
3182,51.0,0.0,60.0,5.0,0.0
3183,73.0,0.0,30.0,4.0,0.0
3184,51.0,1.0,30.0,3.0,0.0
3185,75.0,30.0,30.0,4.0,0.0
3186,75.0,0.0,30.0,0.0,0.0
3187,73.0,0.0,60.0,6.0,0.0
3188,46.0,0.0,60.0,5.0,0.0
3189,76.0,0.0,60.0,0.0,0.0
3190,46.0,30.0,60.0,7.0,0.0
3191,76.0,29.0,30.0,4.0,0.0
3192,46.0,1.0,60.0,3.0,0.0
3193,73.0,0.0,30.0,4.0,0.0
3194,49.0,1.0,60.0,3.0,0.0
3195,70.0,0.0,60.0,0.0,0.0
3196,49.0,0.0,60.0,7.0,0.0
3197,67.0,0.0,60.0,6.0,0.0
3198,49.0,30.0,60.0,5.0,0.0
3199,70.0,29.0,30.0,4.0,0.0
3200,71.0,0.0,30.0,4.0,0.0
3201,43.0,0.0,60.0,5.0,0.0
3202,43.0,1.0,60.0,3.0,0.0
3203,73.0,29.0,30.0,4.0,0.0
3204,43.0,0.0,60.0,7.0,0.0
3205,70.0,0.0,60.0,6.0,0.0
3206,70.0,30.0,30.0,4.0,0.0
3207,46.0,1.0,60.0,3.0,0.0
3208,46.0,0.0,60.0,7.0,0.0
3209,67.0,0.0,30.0,4.0,0.0
3210,46.0,30.0,60.0,5.0,0.0
3211,61.0,0.0,30.0,2.0,0.0
3212,61.0,0.0,30.0,6.0,0.0
3213,58.0,29.0,30.0,1.0,0.0
3214,64.0,0.0,30.0,6.0,0.0
3215,68.0,0.0,30.0,4.0,0.0
3216,70.0,29.0,30.0,4.0,0.0
3217,63.0,0.0,30.0,6.0,0.0
3218,55.0,0.0,30.0,1.0,0.0
3219,39.0,0.0,60.0,5.0,0.0
3220,58.0,0.0,30.0,2.0,0.0
3221,39.0,0.0,60.0,7.0,0.0
3222,39.0,1.0,60.0,3.0,0.0
3223,61.0,30.0,30.0,6.0,0.0
3224,64.0,0.0,30.0,4.0,0.0
3225,63.0,29.0,30.0,1.0,0.0
3226,43.0,60.0,60.0,7.0,0.0
3227,43.0,1.0,60.0,3.0,0.0
3228,43.0,0.0,60.0,5.0,0.0
3229,59.0,0.0,30.0,6.0,0.0
3230,63.0,0.0,30.0,4.0,0.0
3231,51.0,0.0,30.0,2.0,0.0
3232,58.0,0.0,30.0,6.0,0.0
3233,61.0,0.0,30.0,4.0,0.0
3234,56.0,0.0,120.0,2.0,0.0
3235,44.0,0.0,60.0,5.0,0.0
3236,51.0,0.0,60.0,5.0,0.0
3237,63.0,0.0,60.0,0.0,0.0
3238,59.0,59.0,60.0,4.0,0.0
3239,47.0,0.0,60.0,7.0,0.0
3240,56.0,0.0,60.0,6.0,0.0
3241,44.0,0.0,60.0,7.0,0.0
3242,51.0,0.0,60.0,7.0,0.0
3243,63.0,0.0,60.0,1.0,0.0
3244,44.0,1.0,120.0,3.0,0.0
3245,68.0,60.0,60.0,0.0,0.0
3246,59.0,0.0,60.0,1.0,0.0
3247,68.0,0.0,60.0,4.0,0.0
3248,63.0,0.0,60.0,1.0,0.0
3249,71.0,60.0,60.0,0.0,0.0
3250,71.0,0.0,60.0,4.0,0.0
3251,63.0,0.0,60.0,4.0,0.0
3252,70.0,0.0,60.0,0.0,0.0
3253,70.0,0.0,60.0,4.0,0.0
3254,61.0,30.0,60.0,4.0,0.0
3255,61.0,0.0,60.0,1.0,0.0
3256,56.0,0.0,60.0,2.0,0.0
3257,63.0,0.0,60.0,0.0,0.0
3258,56.0,30.0,60.0,5.0,0.0
3259,44.0,1.0,120.0,3.0,0.0
3260,63.0,0.0,60.0,4.0,0.0
3261,59.0,0.0,60.0,1.0,0.0
3262,59.0,30.0,30.0,5.0,0.0
3263,58.0,0.0,30.0,5.0,0.0
3264,63.0,0.0,60.0,1.0,0.0
3265,59.0,29.0,30.0,2.0,0.0
3266,68.0,0.0,30.0,0.0,0.0
3267,68.0,0.0,30.0,4.0,0.0
3268,59.0,0.0,30.0,5.0,0.0
3269,61.0,0.0,30.0,2.0,0.0
3270,70.0,0.0,30.0,4.0,0.0
3271,61.0,0.0,30.0,5.0,0.0
3272,70.0,30.0,30.0,0.0,0.0
3273,63.0,0.0,30.0,5.0,0.0
3274,71.0,0.0,30.0,4.0,0.0
3275,68.0,0.0,30.0,1.0,0.0
3276,63.0,0.0,30.0,2.0,0.0
3277,71.0,30.0,30.0,0.0,0.0
3278,67.0,0.0,30.0,1.0,0.0
3279,61.0,0.0,30.0,5.0,0.0
3280,61.0,30.0,30.0,2.0,0.0
3281,70.0,0.0,30.0,4.0,0.0
3282,70.0,0.0,30.0,0.0,0.0
3283,71.0,0.0,30.0,4.0,0.0
3284,63.0,0.0,30.0,5.0,0.0
3285,68.0,0.0,30.0,1.0,0.0
3286,71.0,0.0,30.0,0.0,0.0
3287,63.0,30.0,30.0,2.0,0.0
3288,67.0,30.0,30.0,1.0,0.0
3289,61.0,0.0,30.0,2.0,0.0
3290,61.0,0.0,30.0,5.0,0.0
3291,70.0,0.0,30.0,0.0,0.0
3292,70.0,0.0,30.0,4.0,0.0
3293,44.0,0.0,60.0,5.0,0.0
3294,59.0,29.0,30.0,2.0,0.0
3295,59.0,0.0,60.0,4.0,0.0
3296,56.0,0.0,60.0,4.0,0.0
3297,68.0,0.0,30.0,0.0,0.0
3298,68.0,0.0,60.0,1.0,0.0
3299,47.0,0.0,60.0,5.0,0.0
3300,51.0,0.0,60.0,5.0,0.0
3301,44.0,1.0,60.0,3.0,0.0
3302,68.0,0.0,30.0,4.0,0.0
3303,70.0,0.0,30.0,0.0,0.0
3304,70.0,30.0,30.0,4.0,0.0
3305,61.0,0.0,30.0,2.0,0.0
3306,46.0,1.0,60.0,3.0,0.0
3307,59.0,0.0,30.0,2.0,0.0
3308,71.0,0.0,30.0,0.0,0.0
3309,71.0,29.0,30.0,4.0,0.0
3310,63.0,0.0,60.0,1.0,0.0
3311,46.0,0.0,60.0,5.0,0.0
3312,73.0,0.0,30.0,0.0,0.0
3313,58.0,0.0,30.0,2.0,0.0
3314,73.0,30.0,30.0,4.0,0.0
3315,47.0,0.0,60.0,5.0,0.0
3316,47.0,1.0,60.0,3.0,0.0
3317,75.0,29.0,30.0,4.0,0.0
3318,75.0,0.0,30.0,0.0,0.0
3319,56.0,0.0,60.0,2.0,0.0
3320,68.0,0.0,60.0,1.0,0.0
3321,77.0,0.0,30.0,4.0,0.0
3322,77.0,30.0,30.0,0.0,0.0
3323,51.0,0.0,60.0,2.0,0.0
3324,44.0,0.0,60.0,5.0,0.0
3325,78.0,29.0,30.0,4.0,0.0
3326,44.0,1.0,60.0,3.0,0.0
3327,70.0,0.0,30.0,1.0,0.0
3328,78.0,0.0,30.0,0.0,0.0
3329,80.0,30.0,30.0,4.0,0.0
3330,71.0,0.0,30.0,1.0,0.0
3331,80.0,0.0,30.0,0.0,0.0
3332,58.0,0.0,120.0,2.0,0.0
3333,46.0,0.0,30.0,3.0,0.0
3334,46.0,0.0,60.0,5.0,0.0
3335,74.0,0.0,60.0,4.0,0.0
3336,58.0,30.0,30.0,6.0,0.0
3337,74.0,0.0,60.0,0.0,0.0
3338,65.0,0.0,60.0,1.0,0.0
3339,60.0,30.0,30.0,6.0,0.0
3340,53.0,0.0,60.0,7.0,0.0
3341,70.0,30.0,60.0,0.0,0.0
3342,34.0,0.0,30.0,3.0,0.0
3343,62.0,0.0,30.0,6.0,0.0
3344,70.0,0.0,60.0,4.0,0.0
3345,58.0,30.0,30.0,1.0,0.0
3346,34.0,0.0,60.0,5.0,0.0
3347,63.0,0.0,30.0,6.0,0.0
3348,60.0,0.0,30.0,1.0,0.0
3349,65.0,30.0,30.0,6.0,0.0
3350,62.0,0.0,30.0,1.0,0.0
3351,50.0,0.0,60.0,7.0,0.0
3352,66.0,0.0,30.0,6.0,0.0
3353,63.0,30.0,30.0,1.0,0.0
3354,58.0,30.0,30.0,4.0,0.0
3355,46.0,30.0,60.0,7.0,0.0
3356,58.0,0.0,30.0,0.0,0.0
3357,65.0,0.0,60.0,1.0,0.0
3358,60.0,0.0,30.0,0.0,0.0
3359,60.0,0.0,30.0,4.0,0.0
3360,62.0,0.0,30.0,0.0,0.0
3361,68.0,0.0,15.0,6.0,0.0
3362,62.0,0.0,30.0,4.0,0.0
3363,41.0,0.0,60.0,7.0,0.0
3364,46.0,0.0,30.0,2.0,0.0
3365,46.0,30.0,30.0,3.0,0.0
3366,63.0,0.0,30.0,0.0,0.0
3367,48.0,30.0,30.0,2.0,0.0
3368,63.0,0.0,30.0,4.0,0.0
3369,46.0,0.0,60.0,7.0,0.0
3370,34.0,30.0,30.0,3.0,0.0
3371,65.0,0.0,30.0,4.0,0.0
3372,50.0,0.0,30.0,2.0,0.0
3373,62.0,0.0,60.0,6.0,0.0
3374,65.0,0.0,30.0,0.0,0.0
3375,53.0,0.0,60.0,5.0,0.0
3376,66.0,0.0,30.0,4.0,0.0
3377,51.0,0.0,30.0,2.0,0.0
3378,66.0,30.0,30.0,0.0,0.0
3379,62.0,30.0,30.0,1.0,0.0
3380,41.0,0.0,60.0,7.0,0.0
3381,53.0,0.0,60.0,2.0,0.0
3382,68.0,0.0,60.0,4.0,0.0
3383,68.0,0.0,60.0,0.0,0.0
3384,50.0,0.0,60.0,5.0,0.0
3385,63.0,30.0,30.0,1.0,0.0
3386,44.0,30.0,60.0,7.0,0.0
3387,62.0,0.0,60.0,4.0,0.0
3388,62.0,0.0,60.0,0.0,0.0
3389,46.0,0.0,60.0,5.0,0.0
3390,65.0,30.0,30.0,1.0,0.0
3391,66.0,0.0,30.0,1.0,0.0
3392,62.0,30.0,30.0,6.0,0.0
3393,68.0,30.0,60.0,1.0,0.0
3394,46.0,0.0,30.0,3.0,0.0
3395,41.0,0.0,60.0,5.0,0.0
3396,34.0,0.0,60.0,7.0,0.0
3397,46.0,0.0,30.0,2.0,0.0
3398,48.0,0.0,30.0,2.0,0.0
3399,63.0,0.0,30.0,6.0,0.0
3400,65.0,0.0,30.0,6.0,0.0
3401,50.0,30.0,30.0,2.0,0.0
3402,46.0,30.0,60.0,5.0,0.0
3403,34.0,0.0,30.0,3.0,0.0
3404,66.0,0.0,30.0,6.0,0.0
3405,58.0,0.0,30.0,7.0,0.0
3406,51.0,0.0,30.0,2.0,0.0
3407,56.0,0.0,30.0,7.0,0.0
3408,68.0,30.0,30.0,6.0,0.0
3409,53.0,0.0,60.0,2.0,0.0
3410,62.0,0.0,30.0,1.0,0.0
3411,41.0,30.0,60.0,5.0,0.0
3412,54.0,0.0,30.0,7.0,0.0
3413,63.0,0.0,30.0,1.0,0.0
3414,70.0,0.0,30.0,6.0,0.0
3415,44.0,0.0,60.0,5.0,0.0
3416,53.0,0.0,30.0,7.0,0.0
3417,71.0,0.0,60.0,6.0,0.0
3418,65.0,0.0,30.0,1.0,0.0
3419,62.0,30.0,30.0,4.0,0.0
3420,62.0,0.0,30.0,0.0,0.0
3421,63.0,30.0,30.0,4.0,0.0
3422,63.0,0.0,30.0,0.0,0.0
3423,66.0,0.0,30.0,1.0,0.0
3424,51.0,0.0,30.0,7.0,0.0
3425,65.0,0.0,30.0,0.0,0.0
3426,34.0,0.0,60.0,5.0,0.0
3427,68.0,0.0,60.0,1.0,0.0
3428,65.0,0.0,30.0,4.0,0.0
3429,50.0,0.0,60.0,7.0,0.0
3430,46.0,30.0,30.0,3.0,0.0
3431,71.0,0.0,60.0,6.0,0.0
3432,66.0,0.0,30.0,0.0,0.0
3433,66.0,30.0,30.0,4.0,0.0
3434,65.0,0.0,60.0,6.0,0.0
3435,58.0,0.0,30.0,3.0,0.0
3436,68.0,0.0,30.0,4.0,0.0
3437,46.0,30.0,60.0,7.0,0.0
3438,58.0,0.0,60.0,5.0,0.0
3439,68.0,30.0,30.0,0.0,0.0
3440,70.0,0.0,30.0,0.0,0.0
3441,70.0,0.0,30.0,4.0,0.0
3442,68.0,0.0,60.0,6.0,0.0
3443,41.0,0.0,60.0,7.0,0.0
3444,71.0,0.0,60.0,0.0,0.0
3445,53.0,30.0,60.0,5.0,0.0
3446,71.0,29.0,30.0,4.0,0.0
3447,53.0,1.0,60.0,3.0,0.0
3448,68.0,0.0,30.0,4.0,0.0
3449,44.0,0.0,60.0,7.0,0.0
3450,65.0,29.0,30.0,4.0,0.0
3451,56.0,1.0,60.0,3.0,0.0
3452,56.0,0.0,60.0,5.0,0.0
3453,65.0,0.0,60.0,0.0,0.0
3454,62.0,30.0,60.0,6.0,0.0
3455,66.0,0.0,30.0,4.0,0.0
3456,65.0,30.0,60.0,6.0,0.0
3457,50.0,1.0,60.0,3.0,0.0
3458,68.0,29.0,30.0,4.0,0.0
3459,38.0,0.0,60.0,7.0,0.0
3460,50.0,0.0,60.0,5.0,0.0
3461,65.0,0.0,30.0,4.0,0.0
3462,41.0,30.0,60.0,7.0,0.0
3463,62.0,0.0,30.0,4.0,0.0
3464,53.0,1.0,60.0,3.0,0.0
3465,65.0,29.0,30.0,1.0,0.0
3466,56.0,0.0,30.0,6.0,0.0
3467,53.0,0.0,60.0,5.0,0.0
3468,56.0,0.0,30.0,2.0,0.0
3469,63.0,0.0,30.0,4.0,0.0
3470,59.0,0.0,30.0,6.0,0.0
3471,46.0,1.0,60.0,3.0,0.0
3472,65.0,0.0,30.0,4.0,0.0
3473,58.0,0.0,30.0,6.0,0.0
3474,53.0,0.0,30.0,2.0,0.0
3475,62.0,29.0,30.0,1.0,0.0
3476,46.0,30.0,60.0,5.0,0.0
3477,34.0,0.0,60.0,7.0,0.0
3478,56.0,0.0,30.0,6.0,0.0
3479,59.0,0.0,30.0,4.0,0.0
3480,50.0,1.0,60.0,3.0,0.0
3481,46.0,29.0,30.0,2.0,0.0
3482,38.0,0.0,60.0,7.0,0.0
3483,58.0,0.0,30.0,4.0,0.0
3484,54.0,0.0,30.0,6.0,0.0
3485,50.0,0.0,60.0,5.0,0.0
3486,70.0,0.0,30.0,1.0,0.0
3487,53.0,30.0,30.0,6.0,0.0
3488,56.0,0.0,30.0,4.0,0.0
3489,51.0,0.0,30.0,2.0,0.0
3490,54.0,0.0,30.0,4.0,0.0
3491,42.0,1.0,60.0,3.0,0.0
3492,39.0,29.0,60.0,5.0,0.0
3493,39.0,0.0,60.0,7.0,0.0
3494,70.0,0.0,30.0,1.0,0.0
3495,70.0,29.0,30.0,6.0,0.0
3496,53.0,0.0,30.0,4.0,0.0
3497,68.0,0.0,30.0,6.0,0.0
3498,51.0,0.0,60.0,4.0,0.0
3499,75.0,0.0,30.0,1.0,0.0
3500,66.0,0.0,30.0,6.0,0.0
3501,46.0,0.0,30.0,5.0,0.0
3502,51.0,29.0,30.0,7.0,0.0
3503,58.0,1.0,30.0,3.0,0.0
3504,56.0,1.0,30.0,3.0,0.0
3505,53.0,30.0,30.0,7.0,0.0
3506,44.0,0.0,30.0,5.0,0.0
3507,65.0,0.0,30.0,6.0,0.0
3508,74.0,0.0,30.0,1.0,0.0
3509,42.0,0.0,30.0,5.0,0.0
3510,70.0,0.0,30.0,4.0,0.0
3511,75.0,0.0,60.0,1.0,0.0
3512,70.0,29.0,30.0,0.0,0.0
3513,54.0,0.0,30.0,7.0,0.0
3514,54.0,1.0,60.0,3.0,0.0
3515,53.0,0.0,30.0,7.0,0.0
3516,68.0,29.0,30.0,4.0,0.0
3517,68.0,0.0,30.0,0.0,0.0
3518,44.0,0.0,30.0,5.0,0.0
3519,51.0,0.0,30.0,7.0,0.0
3520,63.0,0.0,15.0,6.0,0.0
3521,66.0,0.0,30.0,0.0,0.0
3522,46.0,29.0,30.0,5.0,0.0
3523,58.0,1.0,30.0,3.0,0.0
3524,63.0,0.0,30.0,2.0,0.0
3525,66.0,0.0,30.0,4.0,0.0
3526,62.0,0.0,30.0,2.0,0.0
3527,65.0,0.0,30.0,0.0,0.0
3528,56.0,1.0,30.0,3.0,0.0
3529,65.0,0.0,30.0,4.0,0.0
3530,53.0,30.0,30.0,7.0,0.0
3531,44.0,0.0,30.0,5.0,0.0
3532,63.0,0.0,30.0,4.0,0.0
3533,42.0,29.0,30.0,5.0,0.0
3534,63.0,0.0,60.0,2.0,0.0
3535,63.0,0.0,30.0,0.0,0.0
3536,54.0,1.0,60.0,3.0,0.0
3537,58.0,0.0,30.0,1.0,0.0
3538,63.0,0.0,15.0,6.0,0.0
3539,54.0,0.0,30.0,7.0,0.0
3540,53.0,29.0,30.0,7.0,0.0
3541,56.0,0.0,30.0,1.0,0.0
3542,58.0,0.0,30.0,4.0,0.0
3543,58.0,0.0,30.0,0.0,0.0
3544,44.0,0.0,30.0,5.0,0.0
3545,63.0,0.0,30.0,4.0,0.0
3546,54.0,0.0,30.0,1.0,0.0
3547,46.0,0.0,30.0,5.0,0.0
3548,58.0,29.0,90.0,2.0,0.0
3549,51.0,0.0,30.0,7.0,0.0
3550,63.0,29.0,30.0,0.0,0.0
3551,58.0,1.0,30.0,3.0,0.0
3552,62.0,0.0,30.0,4.0,0.0
3553,53.0,30.0,30.0,1.0,0.0
3554,53.0,0.0,30.0,7.0,0.0
3555,44.0,0.0,30.0,5.0,0.0
3556,62.0,0.0,30.0,0.0,0.0
3557,56.0,1.0,30.0,3.0,0.0
3558,54.0,1.0,60.0,3.0,0.0
3559,42.0,0.0,30.0,5.0,0.0
3560,63.0,30.0,60.0,4.0,0.0
3561,54.0,0.0,60.0,7.0,0.0
3562,51.0,0.0,60.0,1.0,0.0
3563,63.0,0.0,60.0,0.0,0.0
3564,44.0,0.0,30.0,5.0,0.0
3565,58.0,0.0,30.0,6.0,0.0
3566,56.0,0.0,30.0,2.0,0.0
3567,63.0,30.0,30.0,6.0,0.0
3568,53.0,0.0,30.0,3.0,0.0
3569,46.0,0.0,30.0,5.0,0.0
3570,54.0,0.0,30.0,2.0,0.0
3571,65.0,0.0,30.0,6.0,0.0
3572,44.0,29.0,30.0,5.0,0.0
3573,56.0,0.0,30.0,2.0,0.0
3574,58.0,29.0,60.0,2.0,0.0
3575,42.0,1.0,30.0,5.0,0.0
3576,66.0,0.0,30.0,6.0,0.0
3577,51.0,29.0,30.0,3.0,0.0
3578,64.0,0.0,30.0,6.0,0.0
3579,44.0,1.0,30.0,5.0,0.0
3580,54.0,0.0,30.0,3.0,0.0
3581,63.0,1.0,30.0,6.0,0.0
3582,71.0,29.0,30.0,1.0,0.0
3583,47.0,0.0,30.0,7.0,0.0
3584,42.0,0.0,30.0,5.0,0.0
3585,61.0,0.0,30.0,6.0,0.0
3586,40.0,0.0,30.0,5.0,0.0
3587,70.0,29.0,30.0,1.0,0.0
3588,52.0,1.0,30.0,3.0,0.0
3589,49.0,0.0,30.0,7.0,0.0
3590,51.0,0.0,30.0,7.0,0.0
3591,39.0,0.0,30.0,5.0,0.0
3592,51.0,0.0,60.0,3.0,0.0
3593,66.0,29.0,30.0,0.0,0.0
3594,71.0,29.0,60.0,1.0,0.0
3595,59.0,1.0,60.0,6.0,0.0
3596,66.0,1.0,30.0,4.0,0.0
3597,64.0,0.0,30.0,0.0,0.0
3598,49.0,0.0,30.0,7.0,0.0
3599,64.0,0.0,30.0,4.0,0.0
3600,40.0,0.0,30.0,5.0,0.0
3601,47.0,0.0,30.0,7.0,0.0
3602,63.0,29.0,30.0,0.0,0.0
3603,63.0,1.0,30.0,4.0,0.0
3604,42.0,0.0,30.0,5.0,0.0
3605,54.0,0.0,30.0,3.0,0.0
3606,59.0,0.0,60.0,6.0,0.0
3607,59.0,0.0,30.0,2.0,0.0
3608,58.0,0.0,30.0,2.0,0.0
3609,49.0,0.0,30.0,7.0,0.0
3610,52.0,0.0,30.0,3.0,0.0
3611,40.0,0.0,30.0,5.0,0.0
3612,61.0,29.0,30.0,0.0,0.0
3613,61.0,1.0,30.0,4.0,0.0
3614,59.0,29.0,30.0,0.0,0.0
3615,51.0,0.0,30.0,7.0,0.0
3616,59.0,0.0,30.0,4.0,0.0
3617,39.0,1.0,30.0,5.0,0.0
3618,59.0,0.0,60.0,2.0,0.0
3619,51.0,0.0,60.0,3.0,0.0
3620,66.0,0.0,30.0,1.0,0.0
3621,59.0,0.0,120.0,6.0,0.0
3622,49.0,0.0,30.0,7.0,0.0
3623,40.0,1.0,30.0,5.0,0.0
3624,54.0,0.0,30.0,4.0,0.0
3625,64.0,0.0,30.0,1.0,0.0
3626,54.0,29.0,30.0,0.0,0.0
3627,54.0,29.0,90.0,2.0,0.0
3628,47.0,0.0,30.0,7.0,0.0
3629,42.0,0.0,30.0,5.0,0.0
3630,63.0,0.0,30.0,1.0,0.0
3631,59.0,29.0,30.0,0.0,0.0
3632,59.0,1.0,30.0,4.0,0.0
3633,54.0,0.0,30.0,3.0,0.0
3634,52.0,0.0,30.0,3.0,0.0
3635,49.0,0.0,30.0,7.0,0.0
3636,40.0,0.0,30.0,5.0,0.0
3637,58.0,29.0,30.0,0.0,0.0
3638,58.0,1.0,30.0,4.0,0.0
3639,61.0,0.0,30.0,1.0,0.0
3640,59.0,0.0,60.0,0.0,0.0
3641,59.0,29.0,60.0,1.0,0.0
3642,59.0,0.0,60.0,4.0,0.0
3643,39.0,1.0,30.0,5.0,0.0
3644,51.0,0.0,60.0,3.0,0.0
3645,51.0,0.0,60.0,7.0,0.0
3646,40.0,1.0,30.0,5.0,0.0
3647,52.0,0.0,30.0,2.0,0.0
3648,66.0,0.0,30.0,6.0,0.0
3649,71.0,0.0,30.0,6.0,0.0
3650,42.0,1.0,30.0,5.0,0.0
3651,49.0,0.0,30.0,3.0,0.0
3652,51.0,29.0,30.0,2.0,0.0
3653,40.0,0.0,30.0,5.0,0.0
3654,73.0,1.0,30.0,6.0,0.0
3655,52.0,29.0,30.0,2.0,0.0
3656,54.0,29.0,60.0,2.0,0.0
3657,47.0,29.0,30.0,3.0,0.0
3658,39.0,0.0,30.0,5.0,0.0
3659,75.0,1.0,30.0,6.0,0.0
3660,73.0,1.0,30.0,6.0,0.0
3661,40.0,0.0,30.0,5.0,0.0
3662,68.0,29.0,30.0,1.0,0.0
3663,39.0,0.0,30.0,5.0,0.0
3664,51.0,0.0,30.0,3.0,0.0
3665,71.0,0.0,30.0,6.0,0.0
3666,44.0,1.0,30.0,7.0,0.0
3667,49.0,0.0,30.0,3.0,0.0
3668,70.0,1.0,30.0,6.0,0.0
3669,46.0,0.0,30.0,7.0,0.0
3670,67.0,29.0,30.0,1.0,0.0
3671,37.0,0.0,30.0,5.0,0.0
3672,68.0,0.0,60.0,1.0,0.0
3673,35.0,0.0,30.0,5.0,0.0
3674,47.0,0.0,60.0,3.0,0.0
3675,68.0,0.0,60.0,6.0,0.0
3676,75.0,29.0,30.0,0.0,0.0
3677,75.0,0.0,30.0,4.0,0.0
3678,47.0,1.0,30.0,7.0,0.0
3679,73.0,29.0,30.0,0.0,0.0
3680,37.0,1.0,30.0,5.0,0.0
3681,46.0,0.0,30.0,7.0,0.0
3682,73.0,0.0,30.0,4.0,0.0
3683,51.0,0.0,30.0,3.0,0.0
3684,39.0,0.0,30.0,5.0,0.0
3685,68.0,29.0,30.0,2.0,0.0
3686,71.0,0.0,30.0,4.0,0.0
3687,44.0,1.0,30.0,7.0,0.0
3688,71.0,0.0,30.0,0.0,0.0
3689,68.0,1.0,60.0,6.0,0.0
3690,70.0,29.0,30.0,0.0,0.0
3691,37.0,0.0,30.0,5.0,0.0
3692,70.0,0.0,30.0,4.0,0.0
3693,67.0,0.0,30.0,2.0,0.0
3694,46.0,0.0,30.0,7.0,0.0
3695,49.0,0.0,30.0,3.0,0.0
3696,68.0,0.0,30.0,4.0,0.0
3697,47.0,0.0,60.0,3.0,0.0
3698,68.0,29.0,30.0,0.0,0.0
3699,68.0,29.0,60.0,2.0,0.0
3700,68.0,0.0,120.0,6.0,0.0
3701,63.0,0.0,30.0,1.0,0.0
3702,47.0,1.0,30.0,7.0,0.0
3703,35.0,0.0,30.0,5.0,0.0
3704,61.0,0.0,30.0,1.0,0.0
3705,63.0,0.0,30.0,0.0,0.0
3706,63.0,0.0,30.0,4.0,0.0
3707,37.0,1.0,30.0,5.0,0.0
3708,46.0,0.0,30.0,7.0,0.0
3709,44.0,0.0,30.0,7.0,0.0
3710,68.0,0.0,30.0,4.0,0.0
3711,68.0,0.0,30.0,0.0,0.0
3712,59.0,29.0,30.0,1.0,0.0
3713,51.0,0.0,30.0,3.0,0.0
3714,39.0,1.0,30.0,5.0,0.0
3715,63.0,29.0,90.0,2.0,0.0
3716,67.0,1.0,30.0,4.0,0.0
3717,67.0,0.0,30.0,0.0,0.0
3718,49.0,0.0,30.0,3.0,0.0
3719,46.0,0.0,30.0,7.0,0.0
3720,37.0,0.0,30.0,5.0,0.0
3721,58.0,30.0,30.0,1.0,0.0
3722,68.0,0.0,60.0,0.0,0.0
3723,35.0,0.0,60.0,5.0,0.0
3724,68.0,0.0,60.0,4.0,0.0
3725,56.0,0.0,60.0,1.0,0.0
3726,47.0,0.0,60.0,3.0,0.0
3727,47.0,1.0,60.0,7.0,0.0
3728,63.0,0.0,30.0,6.0,0.0
3729,61.0,29.0,30.0,2.0,0.0
3730,59.0,0.0,30.0,2.0,0.0
3731,46.0,29.0,30.0,3.0,0.0
3732,68.0,1.0,30.0,6.0,0.0
3733,70.0,1.0,30.0,6.0,0.0
3734,61.0,29.0,30.0,2.0,0.0
3735,63.0,0.0,30.0,2.0,0.0
3736,44.0,29.0,30.0,3.0,0.0
3737,71.0,1.0,30.0,6.0,0.0
3738,61.0,29.0,30.0,2.0,0.0
3739,73.0,1.0,30.0,6.0,0.0
3740,59.0,29.0,30.0,2.0,0.0
3741,47.0,0.0,30.0,3.0,0.0
3742,47.0,1.0,30.0,7.0,0.0
3743,75.0,0.0,30.0,6.0,0.0
3744,49.0,0.0,30.0,7.0,0.0
3745,58.0,29.0,30.0,2.0,0.0
3746,73.0,1.0,30.0,6.0,0.0
3747,51.0,1.0,30.0,7.0,0.0
3748,51.0,29.0,30.0,3.0,0.0
3749,71.0,0.0,30.0,6.0,0.0
3750,56.0,0.0,30.0,2.0,0.0
3751,54.0,0.0,30.0,7.0,0.0
3752,58.0,29.0,30.0,2.0,0.0
3753,70.0,1.0,30.0,6.0,0.0
3754,53.0,0.0,30.0,7.0,0.0
3755,59.0,0.0,120.0,2.0,0.0
3756,54.0,29.0,30.0,3.0,0.0
3757,68.0,1.0,30.0,6.0,0.0
3758,51.0,60.0,30.0,7.0,0.0
3759,66.0,0.0,30.0,6.0,0.0
3760,53.0,1.0,60.0,3.0,0.0
3761,53.0,0.0,60.0,7.0,0.0
3762,68.0,0.0,30.0,0.0,0.0
3763,68.0,0.0,30.0,4.0,0.0
3764,65.0,29.0,30.0,1.0,0.0
3765,49.0,0.0,60.0,3.0,0.0
3766,53.0,1.0,60.0,7.0,0.0
3767,49.0,0.0,60.0,5.0,0.0
3768,71.0,29.0,30.0,0.0,0.0
3769,53.0,0.0,60.0,5.0,0.0
3770,68.0,0.0,30.0,1.0,0.0
3771,49.0,0.0,60.0,7.0,0.0
3772,53.0,0.0,60.0,2.0,0.0
3773,71.0,1.0,30.0,4.0,0.0
3774,70.0,0.0,30.0,4.0,0.0
3775,70.0,29.0,30.0,0.0,0.0
3776,66.0,0.0,30.0,1.0,0.0
3777,65.0,29.0,30.0,1.0,0.0
3778,54.0,29.0,60.0,2.0,0.0
3779,68.0,1.0,30.0,4.0,0.0
3780,54.0,0.0,60.0,5.0,0.0
3781,51.0,0.0,60.0,5.0,0.0
3782,68.0,0.0,30.0,0.0,0.0
3783,51.0,1.0,60.0,7.0,0.0
3784,54.0,0.0,60.0,7.0,0.0
3785,51.0,0.0,60.0,3.0,0.0
3786,63.0,0.0,30.0,1.0,0.0
3787,66.0,0.0,30.0,0.0,0.0
3788,66.0,0.0,30.0,4.0,0.0
3789,61.0,0.0,30.0,1.0,0.0
3790,65.0,29.0,30.0,0.0,0.0
3791,65.0,1.0,30.0,4.0,0.0
3792,56.0,1.0,60.0,7.0,0.0
3793,53.0,0.0,60.0,3.0,0.0
3794,56.0,0.0,60.0,5.0,0.0
3795,53.0,0.0,60.0,5.0,0.0
3796,53.0,0.0,60.0,7.0,0.0
3797,56.0,0.0,60.0,2.0,0.0
3798,59.0,20.0,30.0,1.0,0.0
3799,63.0,0.0,30.0,4.0,0.0
3800,63.0,0.0,30.0,0.0,0.0
3801,46.0,0.0,120.0,5.0,0.0
3802,54.0,0.0,30.0,7.0,0.0
3803,58.0,11.0,30.0,7.0,0.0
3804,58.0,0.0,60.0,2.0,0.0
3805,61.0,14.0,60.0,0.0,0.0
3806,42.0,0.0,120.0,5.0,0.0
3807,58.0,0.0,120.0,4.0,0.0
3808,73.0,0.0,15.0,6.0,0.0
3809,54.0,0.0,120.0,3.0,0.0
3810,58.0,0.0,60.0,1.0,0.0
3811,54.0,1.0,120.0,5.0,0.0
3812,49.0,0.0,120.0,5.0,0.0
3813,61.0,0.0,60.0,4.0,0.0
3814,75.0,19.0,20.0,6.0,0.0
3815,59.0,1.0,30.0,7.0,0.0
3816,73.0,0.0,20.0,6.0,0.0
3817,75.0,15.0,15.0,6.0,0.0
3818,66.0,0.0,60.0,0.0,0.0
3819,58.0,0.0,30.0,7.0,0.0
3820,66.0,0.0,60.0,4.0,0.0
3821,61.0,0.0,60.0,1.0,0.0
3822,58.0,14.0,60.0,2.0,0.0
3823,73.0,15.0,15.0,6.0,0.0
3824,75.0,15.0,15.0,6.0,0.0
3825,56.0,0.0,30.0,7.0,0.0
3826,73.0,0.0,15.0,6.0,0.0
3827,70.0,14.0,60.0,0.0,0.0
3828,66.0,0.0,60.0,1.0,0.0
3829,70.0,0.0,60.0,4.0,0.0
3830,61.0,0.0,60.0,4.0,0.0
3831,54.0,15.0,30.0,7.0,0.0
3832,63.0,0.0,60.0,2.0,0.0
3833,75.0,15.0,15.0,6.0,0.0
3834,73.0,0.0,15.0,6.0,0.0
3835,75.0,15.0,15.0,6.0,0.0
3836,58.0,1.0,30.0,7.0,0.0
3837,73.0,0.0,15.0,6.0,0.0
3838,75.0,15.0,15.0,6.0,0.0
3839,61.0,14.0,60.0,2.0,0.0
3840,61.0,0.0,30.0,7.0,0.0
3841,65.0,0.0,60.0,1.0,0.0
3842,68.0,0.0,60.0,0.0,0.0
3843,59.0,0.0,60.0,4.0,0.0
3844,68.0,0.0,60.0,4.0,0.0
3845,73.0,15.0,15.0,6.0,0.0
3846,65.0,0.0,30.0,7.0,0.0
3847,75.0,15.0,15.0,6.0,0.0
3848,73.0,1.0,15.0,6.0,0.0
3849,58.0,14.0,60.0,2.0,0.0
3850,66.0,0.0,30.0,7.0,0.0
3851,61.0,0.0,60.0,0.0,0.0
3852,42.0,1.0,120.0,3.0,0.0
3853,54.0,0.0,120.0,5.0,0.0
3854,61.0,0.0,60.0,4.0,0.0
3855,75.0,15.0,15.0,6.0,0.0
3856,58.0,0.0,30.0,4.0,0.0
3857,54.0,0.0,60.0,1.0,0.0
3858,73.0,15.0,15.0,6.0,0.0
3859,75.0,15.0,15.0,6.0,0.0
3860,65.0,1.0,30.0,7.0,0.0
3861,56.0,0.0,30.0,4.0,0.0
3862,73.0,0.0,15.0,6.0,0.0
3863,58.0,14.0,30.0,1.0,0.0
3864,61.0,0.0,60.0,2.0,0.0
3865,58.0,0.0,30.0,4.0,0.0
3866,66.0,0.0,30.0,4.0,0.0
3867,66.0,0.0,30.0,0.0,0.0
3868,75.0,15.0,15.0,6.0,0.0
3869,66.0,0.0,30.0,7.0,0.0
3870,73.0,1.0,15.0,6.0,0.0
3871,75.0,15.0,15.0,6.0,0.0
3872,61.0,0.0,30.0,7.0,0.0
3873,68.0,0.0,30.0,4.0,0.0
3874,59.0,0.0,30.0,4.0,0.0
3875,59.0,14.0,30.0,1.0,0.0
3876,68.0,0.0,30.0,0.0,0.0
3877,73.0,0.0,15.0,6.0,0.0
3878,61.0,0.0,30.0,4.0,0.0
3879,75.0,15.0,15.0,6.0,0.0
3880,70.0,0.0,30.0,0.0,0.0
3881,66.0,14.0,30.0,2.0,0.0
3882,61.0,0.0,30.0,1.0,0.0
3883,70.0,0.0,30.0,4.0,0.0
3884,58.0,0.0,30.0,7.0,0.0
3885,73.0,1.0,15.0,6.0,0.0
3886,65.0,0.0,30.0,2.0,0.0
3887,68.0,0.0,30.0,4.0,0.0
3888,59.0,1.0,30.0,4.0,0.0
3889,75.0,15.0,15.0,6.0,0.0
3890,68.0,14.0,30.0,0.0,0.0
3891,59.0,0.0,30.0,1.0,0.0
3892,61.0,0.0,30.0,7.0,0.0
3893,73.0,0.0,15.0,6.0,0.0
3894,66.0,0.0,30.0,2.0,0.0
3895,61.0,14.0,30.0,1.0,0.0
3896,61.0,1.0,30.0,4.0,0.0
3897,70.0,0.0,30.0,4.0,0.0
3898,66.0,0.0,30.0,7.0,0.0
3899,75.0,15.0,15.0,6.0,0.0
3900,70.0,0.0,30.0,0.0,0.0
3901,73.0,0.0,15.0,6.0,0.0
3902,65.0,0.0,30.0,2.0,0.0
3903,68.0,1.0,30.0,7.0,0.0
3904,68.0,0.0,30.0,0.0,0.0
3905,59.0,14.0,30.0,1.0,0.0
3906,68.0,0.0,30.0,4.0,0.0
3907,59.0,0.0,30.0,4.0,0.0
3908,75.0,15.0,15.0,6.0,0.0
3909,73.0,0.0,15.0,6.0,0.0
3910,42.0,14.0,30.0,3.0,0.0
3911,58.0,29.0,60.0,1.0,0.0
3912,61.0,0.0,60.0,2.0,0.0
3913,75.0,15.0,15.0,6.0,0.0
3914,70.0,0.0,30.0,7.0,0.0
3915,66.0,0.0,60.0,0.0,0.0
3916,42.0,0.0,60.0,5.0,0.0
3917,66.0,1.0,60.0,4.0,0.0
3918,58.0,0.0,60.0,4.0,0.0
3919,54.0,0.0,60.0,4.0,0.0
3920,49.0,0.0,60.0,5.0,0.0
3921,73.0,1.0,15.0,6.0,0.0
3922,75.0,15.0,15.0,6.0,0.0
3923,66.0,0.0,30.0,7.0,0.0
3924,73.0,0.0,15.0,6.0,0.0
3925,68.0,1.0,30.0,4.0,0.0
3926,61.0,0.0,30.0,7.0,0.0
3927,75.0,29.0,30.0,6.0,0.0
3928,54.0,0.0,30.0,3.0,0.0
3929,68.0,0.0,30.0,0.0,0.0
3930,54.0,0.0,60.0,5.0,0.0
3931,70.0,1.0,30.0,4.0,0.0
3932,73.0,29.0,30.0,6.0,0.0
3933,66.0,0.0,30.0,7.0,0.0
3934,70.0,0.0,30.0,0.0,0.0
3935,54.0,1.0,60.0,7.0,0.0
3936,71.0,1.0,30.0,4.0,0.0
3937,71.0,29.0,30.0,0.0,0.0
3938,51.0,0.0,30.0,3.0,0.0
3939,51.0,0.0,60.0,5.0,0.0
3940,73.0,30.0,30.0,0.0,0.0
3941,73.0,0.0,30.0,4.0,0.0
3942,75.0,29.0,60.0,0.0,0.0
3943,75.0,0.0,60.0,4.0,0.0
3944,47.0,29.0,30.0,3.0,0.0
3945,47.0,1.0,60.0,5.0,0.0
3946,66.0,0.0,60.0,6.0,0.0
3947,75.0,29.0,60.0,0.0,0.0
3948,75.0,0.0,60.0,4.0,0.0
3949,44.0,0.0,60.0,5.0,0.0
3950,71.0,30.0,30.0,6.0,0.0
3951,44.0,0.0,60.0,3.0,0.0
3952,70.0,1.0,30.0,6.0,0.0
3953,65.0,0.0,60.0,4.0,0.0
3954,65.0,29.0,60.0,0.0,0.0
3955,65.0,29.0,30.0,1.0,0.0
3956,68.0,1.0,30.0,6.0,0.0
3957,59.0,0.0,30.0,7.0,0.0
3958,56.0,0.0,30.0,2.0,0.0
3959,56.0,0.0,60.0,5.0,0.0
3960,47.0,0.0,30.0,3.0,0.0
3961,70.0,1.0,30.0,6.0,0.0
3962,61.0,0.0,30.0,7.0,0.0
3963,46.0,0.0,30.0,3.0,0.0
3964,71.0,0.0,30.0,6.0,0.0
3965,44.0,1.0,30.0,3.0,0.0
3966,56.0,0.0,30.0,2.0,0.0
3967,65.0,29.0,30.0,1.0,0.0
3968,63.0,30.0,60.0,7.0,0.0
3969,58.0,0.0,30.0,5.0,0.0
3970,42.0,0.0,30.0,3.0,0.0
3971,73.0,0.0,30.0,6.0,0.0
3972,68.0,0.0,30.0,1.0,0.0
3973,75.0,0.0,60.0,6.0,0.0
3974,41.0,0.0,30.0,3.0,0.0
3975,51.0,0.0,60.0,7.0,0.0
3976,56.0,1.0,30.0,5.0,0.0
3977,59.0,29.0,30.0,2.0,0.0
3978,39.0,31.0,30.0,3.0,0.0
3979,54.0,0.0,30.0,5.0,0.0
3980,59.0,0.0,30.0,2.0,0.0
3981,65.0,29.0,60.0,0.0,0.0
3982,56.0,0.0,60.0,7.0,0.0
3983,41.0,0.0,30.0,3.0,0.0
3984,75.0,0.0,60.0,6.0,0.0
3985,56.0,0.0,60.0,5.0,0.0
3986,68.0,29.0,30.0,1.0,0.0
3987,65.0,1.0,60.0,4.0,0.0
3988,65.0,1.0,60.0,6.0,0.0
3989,53.0,0.0,30.0,3.0,0.0
3990,53.0,0.0,60.0,5.0,0.0
3991,58.0,0.0,30.0,7.0,0.0
3992,66.0,1.0,30.0,4.0,0.0
3993,66.0,29.0,30.0,0.0,0.0
3994,59.0,0.0,30.0,7.0,0.0
3995,68.0,0.0,30.0,4.0,0.0
3996,68.0,29.0,30.0,0.0,0.0
3997,49.0,0.0,60.0,5.0,0.0
3998,49.0,29.0,30.0,3.0,0.0
3999,70.0,0.0,30.0,0.0,0.0
4000,70.0,1.0,30.0,4.0,0.0
4001,53.0,0.0,60.0,7.0,0.0
4002,71.0,30.0,30.0,0.0,0.0
4003,71.0,1.0,30.0,4.0,0.0
4004,46.0,0.0,60.0,5.0,0.0
4005,46.0,29.0,30.0,3.0,0.0
4006,65.0,0.0,60.0,6.0,0.0
4007,73.0,29.0,60.0,0.0,0.0
4008,73.0,1.0,60.0,4.0,0.0
4009,42.0,0.0,60.0,5.0,0.0
4010,73.0,0.0,60.0,4.0,0.0
4011,70.0,30.0,30.0,6.0,0.0
4012,42.0,0.0,60.0,3.0,0.0
4013,73.0,29.0,60.0,0.0,0.0
4014,68.0,1.0,30.0,6.0,0.0
4015,58.0,0.0,30.0,7.0,0.0
4016,61.0,0.0,30.0,1.0,0.0
4017,63.0,29.0,60.0,0.0,0.0
4018,46.0,0.0,30.0,3.0,0.0
4019,66.0,1.0,30.0,6.0,0.0
4020,54.0,29.0,30.0,2.0,0.0
4021,54.0,0.0,60.0,5.0,0.0
4022,63.0,1.0,60.0,4.0,0.0
4023,44.0,0.0,30.0,3.0,0.0
4024,68.0,0.0,30.0,6.0,0.0
4025,59.0,0.0,30.0,7.0,0.0
4026,61.0,29.0,30.0,1.0,0.0
4027,61.0,0.0,60.0,7.0,0.0
4028,70.0,1.0,30.0,6.0,0.0
4029,54.0,0.0,30.0,2.0,0.0
4030,42.0,0.0,30.0,3.0,0.0
4031,41.0,0.0,30.0,3.0,0.0
4032,56.0,0.0,30.0,5.0,0.0
4033,71.0,30.0,30.0,6.0,0.0
4034,73.0,0.0,60.0,6.0,0.0
4035,49.0,0.0,60.0,7.0,0.0
4036,54.0,1.0,30.0,5.0,0.0
4037,39.0,0.0,30.0,3.0,0.0
4038,58.0,29.0,30.0,2.0,0.0
4039,66.0,0.0,30.0,1.0,0.0
4040,53.0,31.0,30.0,5.0,0.0
4041,37.0,0.0,30.0,3.0,0.0
4042,66.0,0.0,30.0,1.0,0.0
4043,73.0,0.0,60.0,6.0,0.0
4044,58.0,0.0,30.0,2.0,0.0
4045,54.0,0.0,60.0,5.0,0.0
4046,54.0,0.0,60.0,7.0,0.0
4047,63.0,1.0,60.0,4.0,0.0
4048,39.0,29.0,30.0,3.0,0.0
4049,63.0,29.0,60.0,0.0,0.0
4050,65.0,29.0,30.0,0.0,0.0
4051,51.0,0.0,60.0,5.0,0.0
4052,63.0,1.0,60.0,6.0,0.0
4053,65.0,0.0,30.0,4.0,0.0
4054,56.0,1.0,30.0,7.0,0.0
4055,51.0,0.0,30.0,3.0,0.0
4056,58.0,0.0,30.0,7.0,0.0
4057,66.0,29.0,30.0,0.0,0.0
4058,66.0,0.0,30.0,4.0,0.0
4059,68.0,1.0,30.0,4.0,0.0
4060,47.0,0.0,60.0,5.0,0.0
4061,51.0,1.0,60.0,7.0,0.0
4062,47.0,0.0,30.0,3.0,0.0
4063,68.0,29.0,30.0,0.0,0.0
4064,70.0,0.0,30.0,4.0,0.0
4065,70.0,30.0,30.0,0.0,0.0
4066,44.0,0.0,60.0,5.0,0.0
4067,63.0,0.0,60.0,6.0,0.0
4068,71.0,1.0,60.0,4.0,0.0
4069,44.0,29.0,30.0,3.0,0.0
4070,68.0,30.0,30.0,6.0,0.0
4071,41.0,0.0,60.0,3.0,0.0
4072,41.0,0.0,60.0,5.0,0.0
4073,71.0,29.0,15.0,0.0,0.0
4074,71.0,1.0,60.0,4.0,0.0
4075,66.0,0.0,30.0,6.0,0.0
4076,44.0,0.0,30.0,3.0,0.0
4077,61.0,0.0,60.0,0.0,0.0
4078,49.0,29.0,30.0,2.0,0.0
4079,49.0,0.0,30.0,7.0,0.0
4080,65.0,1.0,30.0,6.0,0.0
4081,71.0,0.0,30.0,1.0,0.0
4082,61.0,0.0,60.0,4.0,0.0
4083,53.0,1.0,60.0,5.0,0.0
4084,51.0,0.0,30.0,7.0,0.0
4085,42.0,0.0,30.0,3.0,0.0
4086,66.0,0.0,30.0,6.0,0.0
4087,70.0,29.0,30.0,1.0,0.0
4088,51.0,0.0,30.0,2.0,0.0
4089,68.0,0.0,30.0,6.0,0.0
4090,68.0,29.0,30.0,1.0,0.0
4091,53.0,0.0,30.0,7.0,0.0
4092,41.0,1.0,30.0,3.0,0.0
4093,53.0,0.0,30.0,2.0,0.0
4094,54.0,1.0,30.0,7.0,0.0
4095,51.0,0.0,30.0,5.0,0.0
4096,70.0,0.0,30.0,6.0,0.0
4097,39.0,0.0,30.0,3.0,0.0
4098,66.0,0.0,30.0,1.0,0.0
4099,54.0,29.0,30.0,2.0,0.0
4100,49.0,1.0,30.0,5.0,0.0
4101,71.0,0.0,60.0,6.0,0.0
4102,65.0,29.0,30.0,1.0,0.0
4103,37.0,0.0,30.0,3.0,0.0
4104,56.0,0.0,60.0,7.0,0.0
4105,56.0,29.0,120.0,2.0,0.0
4106,35.0,0.0,30.0,3.0,0.0
4107,47.0,1.0,30.0,5.0,0.0
4108,63.0,29.0,30.0,1.0,0.0
4109,46.0,1.0,30.0,7.0,0.0
4110,61.0,0.0,60.0,6.0,0.0
4111,61.0,29.0,30.0,1.0,0.0
4112,46.0,0.0,120.0,5.0,0.0
4113,34.0,0.0,120.0,3.0,0.0
4114,49.0,1.0,30.0,7.0,0.0
4115,51.0,1.0,30.0,7.0,0.0
4116,54.0,29.0,60.0,2.0,0.0
4117,73.0,29.0,30.0,1.0,0.0
4118,66.0,0.0,30.0,6.0,0.0
4119,53.0,0.0,30.0,7.0,0.0
4120,68.0,1.0,30.0,6.0,0.0
4121,54.0,1.0,30.0,7.0,0.0
4122,78.0,0.0,60.0,4.0,0.0
4123,58.0,29.0,30.0,0.0,0.0
4124,70.0,0.0,30.0,6.0,0.0
4125,70.0,30.0,60.0,4.0,0.0
4126,73.0,0.0,60.0,4.0,0.0
4127,53.0,0.0,30.0,7.0,0.0
4128,68.0,0.0,30.0,6.0,0.0
4129,54.0,0.0,60.0,7.0,0.0
4130,73.0,30.0,60.0,4.0,0.0
4131,70.0,0.0,60.0,4.0,0.0
4132,66.0,0.0,60.0,4.0,0.0
4133,70.0,30.0,30.0,6.0,0.0
4134,68.0,0.0,30.0,6.0,0.0
4135,66.0,1.0,30.0,6.0,0.0
4136,63.0,29.0,30.0,1.0,0.0
4137,35.0,0.0,120.0,3.0,0.0
4138,47.0,0.0,120.0,5.0,0.0
4139,66.0,0.0,30.0,2.0,0.0
4140,63.0,0.0,30.0,6.0,0.0
4141,47.0,30.0,30.0,7.0,0.0
4142,71.0,29.0,30.0,1.0,0.0
4143,51.0,1.0,30.0,7.0,0.0
4144,61.0,0.0,30.0,2.0,0.0
4145,66.0,0.0,30.0,6.0,0.0
4146,53.0,0.0,30.0,7.0,0.0
4147,68.0,30.0,30.0,6.0,0.0
4148,54.0,0.0,30.0,7.0,0.0
4149,59.0,29.0,120.0,0.0,0.0
4150,73.0,0.0,60.0,4.0,0.0
4151,78.0,0.0,60.0,4.0,0.0
4152,70.0,0.0,60.0,4.0,0.0
4153,70.0,30.0,30.0,6.0,0.0
4154,68.0,30.0,30.0,6.0,0.0
4155,53.0,0.0,30.0,7.0,0.0
4156,66.0,0.0,60.0,4.0,0.0
4157,54.0,1.0,60.0,7.0,0.0
4158,70.0,0.0,60.0,4.0,0.0
4159,73.0,0.0,60.0,4.0,0.0
4160,70.0,30.0,30.0,6.0,0.0
4161,68.0,0.0,30.0,6.0,0.0
4162,61.0,29.0,30.0,1.0,0.0
4163,68.0,0.0,30.0,2.0,0.0
4164,66.0,1.0,30.0,6.0,0.0
4165,49.0,0.0,120.0,5.0,0.0
4166,37.0,0.0,120.0,3.0,0.0
4167,49.0,0.0,30.0,7.0,0.0
4168,61.0,30.0,30.0,6.0,0.0
4169,51.0,0.0,30.0,7.0,0.0
4170,70.0,0.0,30.0,1.0,0.0
4171,59.0,29.0,30.0,2.0,0.0
4172,66.0,1.0,30.0,6.0,0.0
4173,68.0,30.0,30.0,6.0,0.0
4174,53.0,0.0,30.0,7.0,0.0
4175,54.0,0.0,30.0,7.0,0.0
4176,61.0,29.0,120.0,0.0,0.0
4177,70.0,30.0,60.0,4.0,0.0
4178,78.0,0.0,60.0,4.0,0.0
4179,73.0,0.0,60.0,4.0,0.0
4180,70.0,30.0,30.0,6.0,0.0
4181,53.0,0.0,30.0,7.0,0.0
4182,68.0,0.0,30.0,6.0,0.0
4183,66.0,0.0,60.0,4.0,0.0
4184,70.0,0.0,60.0,4.0,0.0
4185,73.0,0.0,60.0,4.0,0.0
4186,54.0,0.0,60.0,7.0,0.0
4187,70.0,30.0,30.0,6.0,0.0
4188,68.0,1.0,30.0,6.0,0.0
4189,59.0,29.0,30.0,1.0,0.0
4190,70.0,0.0,30.0,2.0,0.0
4191,39.0,0.0,60.0,3.0,0.0
4192,66.0,1.0,30.0,6.0,0.0
4193,64.0,30.0,30.0,6.0,0.0
4194,63.0,0.0,30.0,6.0,0.0
4195,58.0,0.0,30.0,2.0,0.0
4196,42.0,0.0,30.0,3.0,0.0
4197,47.0,1.0,30.0,7.0,0.0
4198,66.0,29.0,30.0,1.0,0.0
4199,61.0,30.0,30.0,6.0,0.0
4200,49.0,0.0,30.0,7.0,0.0
4201,40.0,0.0,30.0,3.0,0.0
4202,78.0,0.0,30.0,4.0,0.0
4203,51.0,0.0,30.0,7.0,0.0
4204,39.0,0.0,60.0,3.0,0.0
4205,59.0,0.0,60.0,6.0,0.0
4206,78.0,29.0,30.0,0.0,0.0
4207,51.0,1.0,30.0,5.0,0.0
4208,76.0,29.0,30.0,0.0,0.0
4209,76.0,0.0,30.0,4.0,0.0
4210,52.0,0.0,30.0,5.0,0.0
4211,49.0,1.0,30.0,7.0,0.0
4212,59.0,0.0,60.0,6.0,0.0
4213,54.0,0.0,30.0,5.0,0.0
4214,75.0,0.0,30.0,4.0,0.0
4215,75.0,29.0,30.0,0.0,0.0
4216,42.0,0.0,30.0,3.0,0.0
4217,47.0,1.0,30.0,7.0,0.0
4218,73.0,29.0,30.0,0.0,0.0
4219,52.0,0.0,30.0,5.0,0.0
4220,40.0,0.0,30.0,3.0,0.0
4221,49.0,1.0,30.0,7.0,0.0
4222,73.0,0.0,30.0,4.0,0.0
4223,51.0,1.0,30.0,5.0,0.0
4224,66.0,29.0,30.0,2.0,0.0
4225,59.0,1.0,120.0,6.0,0.0
4226,66.0,0.0,30.0,1.0,0.0
4227,51.0,0.0,30.0,7.0,0.0
4228,39.0,0.0,60.0,3.0,0.0
4229,71.0,1.0,60.0,4.0,0.0
4230,49.0,0.0,30.0,7.0,0.0
4231,64.0,0.0,30.0,1.0,0.0
4232,64.0,0.0,30.0,2.0,0.0
4233,52.0,0.0,30.0,5.0,0.0
4234,71.0,29.0,15.0,0.0,0.0
4235,63.0,0.0,30.0,2.0,0.0
4236,54.0,0.0,30.0,5.0,0.0
4237,71.0,0.0,60.0,4.0,0.0
4238,42.0,0.0,30.0,3.0,0.0
4239,63.0,29.0,30.0,1.0,0.0
4240,47.0,1.0,30.0,7.0,0.0
4241,61.0,0.0,30.0,2.0,0.0
4242,52.0,0.0,30.0,5.0,0.0
4243,61.0,29.0,30.0,1.0,0.0
4244,49.0,0.0,30.0,7.0,0.0
4245,40.0,0.0,30.0,3.0,0.0
4246,71.0,0.0,120.0,4.0,0.0
4247,39.0,0.0,60.0,3.0,0.0
4248,71.0,0.0,150.0,0.0,0.0
4249,59.0,0.0,60.0,2.0,0.0
4250,51.0,0.0,60.0,7.0,0.0
4251,51.0,30.0,30.0,5.0,0.0
4252,59.0,29.0,60.0,1.0,0.0
4253,54.0,0.0,30.0,5.0,0.0
4254,58.0,1.0,30.0,6.0,0.0
4255,59.0,0.0,30.0,6.0,0.0
4256,44.0,30.0,30.0,3.0,0.0
4257,53.0,0.0,30.0,5.0,0.0
4258,47.0,0.0,60.0,7.0,0.0
4259,51.0,30.0,30.0,5.0,0.0
4260,63.0,0.0,30.0,6.0,0.0
4261,42.0,0.0,30.0,3.0,0.0
4262,68.0,1.0,30.0,6.0,0.0
4263,61.0,0.0,30.0,2.0,0.0
4264,68.0,29.0,30.0,1.0,0.0
4265,49.0,0.0,30.0,5.0,0.0
4266,41.0,0.0,60.0,3.0,0.0
4267,46.0,0.0,30.0,5.0,0.0
4268,61.0,29.0,30.0,0.0,0.0
4269,61.0,0.0,30.0,4.0,0.0
4270,66.0,1.0,30.0,6.0,0.0
4271,68.0,29.0,30.0,2.0,0.0
4272,59.0,1.0,30.0,4.0,0.0
4273,65.0,0.0,30.0,6.0,0.0
4274,49.0,0.0,30.0,7.0,0.0
4275,59.0,0.0,30.0,0.0,0.0
4276,61.0,0.0,30.0,1.0,0.0
4277,44.0,0.0,30.0,5.0,0.0
4278,44.0,0.0,30.0,3.0,0.0
4279,42.0,0.0,30.0,5.0,0.0
4280,42.0,0.0,30.0,3.0,0.0
4281,58.0,29.0,30.0,0.0,0.0
4282,51.0,0.0,30.0,7.0,0.0
4283,58.0,1.0,30.0,4.0,0.0
4284,63.0,0.0,30.0,6.0,0.0
4285,53.0,0.0,30.0,7.0,0.0
4286,56.0,29.0,30.0,0.0,0.0
4287,61.0,0.0,30.0,6.0,0.0
4288,56.0,0.0,30.0,4.0,0.0
4289,41.0,0.0,60.0,3.0,0.0
4290,41.0,1.0,30.0,5.0,0.0
4291,51.0,0.0,30.0,7.0,0.0
4292,42.0,0.0,30.0,5.0,0.0
4293,59.0,0.0,30.0,4.0,0.0
4294,59.0,1.0,30.0,6.0,0.0
4295,59.0,29.0,30.0,0.0,0.0
4296,61.0,29.0,30.0,0.0,0.0
4297,61.0,0.0,30.0,4.0,0.0
4298,58.0,0.0,30.0,6.0,0.0
4299,41.0,0.0,30.0,5.0,0.0
4300,44.0,1.0,30.0,3.0,0.0
4301,49.0,0.0,30.0,7.0,0.0
4302,59.0,1.0,30.0,6.0,0.0
4303,42.0,0.0,30.0,3.0,0.0
4304,63.0,29.0,30.0,0.0,0.0
4305,51.0,0.0,30.0,7.0,0.0
4306,63.0,0.0,30.0,4.0,0.0
4307,39.0,0.0,30.0,5.0,0.0
4308,41.0,0.0,60.0,3.0,0.0
4309,41.0,0.0,30.0,5.0,0.0
4310,68.0,0.0,30.0,2.0,0.0
4311,61.0,0.0,30.0,4.0,0.0
4312,59.0,0.0,120.0,6.0,0.0
4313,53.0,1.0,30.0,7.0,0.0
4314,68.0,29.0,30.0,1.0,0.0
4315,61.0,0.0,30.0,0.0,0.0
4316,42.0,0.0,30.0,5.0,0.0
4317,63.0,0.0,30.0,4.0,0.0
4318,66.0,29.0,30.0,1.0,0.0
4319,63.0,0.0,30.0,0.0,0.0
4320,66.0,0.0,30.0,2.0,0.0
4321,51.0,1.0,30.0,7.0,0.0
4322,41.0,1.0,30.0,5.0,0.0
4323,65.0,0.0,30.0,1.0,0.0
4324,65.0,29.0,30.0,2.0,0.0
4325,44.0,0.0,30.0,3.0,0.0
4326,65.0,0.0,30.0,0.0,0.0
4327,65.0,0.0,30.0,4.0,0.0
4328,49.0,0.0,30.0,7.0,0.0
4329,51.0,1.0,30.0,7.0,0.0
4330,39.0,0.0,30.0,5.0,0.0
4331,42.0,0.0,30.0,3.0,0.0
4332,63.0,29.0,30.0,2.0,0.0
4333,66.0,0.0,30.0,0.0,0.0
4334,66.0,0.0,30.0,4.0,0.0
4335,63.0,0.0,30.0,1.0,0.0
4336,53.0,0.0,60.0,7.0,0.0
4337,68.0,0.0,60.0,0.0,0.0
4338,61.0,0.0,60.0,1.0,0.0
4339,68.0,0.0,60.0,4.0,0.0
4340,61.0,29.0,60.0,2.0,0.0
4341,41.0,0.0,60.0,3.0,0.0
4342,41.0,30.0,30.0,5.0,0.0
4343,44.0,0.0,30.0,5.0,0.0
4344,61.0,1.0,30.0,6.0,0.0
4345,59.0,0.0,60.0,4.0,0.0
4346,37.0,0.0,60.0,3.0,0.0
4347,49.0,1.0,60.0,7.0,0.0
4348,59.0,29.0,60.0,0.0,0.0
4349,41.0,0.0,30.0,5.0,0.0
4350,65.0,30.0,30.0,6.0,0.0
4351,37.0,0.0,30.0,5.0,0.0
4352,68.0,0.0,30.0,6.0,0.0
4353,42.0,30.0,60.0,5.0,0.0
4354,42.0,29.0,30.0,3.0,0.0
4355,70.0,0.0,30.0,6.0,0.0
4356,54.0,1.0,30.0,7.0,0.0
4357,53.0,0.0,30.0,7.0,0.0
4358,68.0,0.0,30.0,6.0,0.0
4359,71.0,1.0,30.0,6.0,0.0
4360,39.0,29.0,30.0,3.0,0.0
4361,51.0,0.0,30.0,7.0,0.0
4362,70.0,0.0,30.0,6.0,0.0
4363,49.0,30.0,30.0,7.0,0.0
4364,75.0,0.0,30.0,6.0,0.0
4365,35.0,29.0,30.0,3.0,0.0
4366,47.0,1.0,30.0,7.0,0.0
4367,73.0,0.0,30.0,6.0,0.0
4368,46.0,30.0,30.0,7.0,0.0
4369,44.0,29.0,30.0,3.0,0.0
4370,71.0,1.0,30.0,6.0,0.0
4371,44.0,0.0,30.0,7.0,0.0
4372,70.0,30.0,30.0,6.0,0.0
4373,42.0,0.0,30.0,7.0,0.0
4374,41.0,29.0,30.0,3.0,0.0
4375,41.0,0.0,30.0,7.0,0.0
4376,68.0,1.0,30.0,6.0,0.0
4377,66.0,30.0,30.0,6.0,0.0
4378,39.0,0.0,30.0,7.0,0.0
4379,65.0,0.0,30.0,6.0,0.0
4380,37.0,29.0,30.0,3.0,0.0
4381,37.0,1.0,30.0,7.0,0.0
4382,35.0,0.0,30.0,7.0,0.0
4383,63.0,30.0,30.0,6.0,0.0
4384,46.0,29.0,30.0,3.0,0.0
4385,34.0,0.0,30.0,7.0,0.0
4386,61.0,1.0,30.0,6.0,0.0
4387,37.0,0.0,30.0,7.0,0.0
4388,59.0,30.0,30.0,6.0,0.0
4389,58.0,1.0,30.0,6.0,0.0
4390,39.0,0.0,30.0,7.0,0.0
4391,42.0,29.0,30.0,3.0,0.0
4392,41.0,0.0,30.0,7.0,0.0
4393,56.0,30.0,30.0,6.0,0.0
4394,42.0,30.0,30.0,7.0,0.0
4395,39.0,0.0,60.0,3.0,0.0
4396,58.0,0.0,60.0,6.0,0.0
4397,44.0,30.0,30.0,7.0,0.0
4398,51.0,0.0,30.0,3.0,0.0
4399,46.0,30.0,30.0,7.0,0.0
4400,66.0,0.0,60.0,6.0,0.0
4401,42.0,0.0,30.0,7.0,0.0
4402,49.0,30.0,30.0,3.0,0.0
4403,56.0,0.0,60.0,6.0,0.0
4404,47.0,0.0,30.0,3.0,0.0
4405,47.0,30.0,30.0,7.0,0.0
4406,46.0,0.0,30.0,3.0,0.0
4407,49.0,30.0,30.0,7.0,0.0
4408,65.0,0.0,60.0,6.0,0.0
4409,44.0,30.0,30.0,3.0,0.0
4410,47.0,0.0,30.0,7.0,0.0
4411,44.0,0.0,30.0,7.0,0.0
4412,47.0,30.0,30.0,3.0,0.0
4413,46.0,0.0,30.0,7.0,0.0
4414,66.0,0.0,30.0,6.0,0.0
4415,46.0,30.0,30.0,3.0,0.0
4416,44.0,0.0,30.0,3.0,0.0
4417,49.0,0.0,30.0,7.0,0.0
4418,65.0,30.0,30.0,6.0,0.0
4419,63.0,30.0,30.0,6.0,0.0
4420,51.0,0.0,30.0,7.0,0.0
4421,42.0,0.0,30.0,3.0,0.0
4422,41.0,0.0,30.0,3.0,0.0
4423,53.0,30.0,30.0,7.0,0.0
4424,61.0,0.0,30.0,6.0,0.0
4425,39.0,0.0,30.0,3.0,0.0
4426,54.0,30.0,30.0,7.0,0.0
4427,60.0,0.0,60.0,6.0,0.0
4428,53.0,30.0,30.0,7.0,0.0
4429,37.0,0.0,30.0,3.0,0.0
4430,69.0,0.0,120.0,6.0,0.0
4431,36.0,30.0,30.0,3.0,0.0
4432,54.0,29.0,120.0,7.0,0.0
4433,39.0,0.0,30.0,3.0,0.0
4434,48.0,60.0,30.0,7.0,0.0
4435,49.0,1.0,60.0,7.0,0.0
4436,37.0,0.0,60.0,3.0,0.0
4437,48.0,0.0,60.0,3.0,0.0
4438,51.0,0.0,60.0,7.0,0.0
4439,47.0,16.0,60.0,7.0,0.0
4440,68.0,30.0,30.0,6.0,0.0
4441,66.0,0.0,30.0,6.0,0.0
4442,49.0,0.0,60.0,3.0,0.0
4443,65.0,15.0,15.0,6.0,0.0
4444,49.0,31.0,60.0,7.0,0.0
4445,66.0,29.0,15.0,6.0,0.0
4446,65.0,29.0,60.0,6.0,0.0
4447,37.0,0.0,60.0,3.0,0.0
4448,37.0,60.0,60.0,7.0,0.0
4449,47.0,0.0,60.0,7.0,0.0
4450,66.0,0.0,30.0,6.0,0.0
4451,66.0,0.0,120.0,6.0,0.0
4452,61.0,1.0,60.0,4.0,0.0
4453,42.0,1.0,120.0,3.0,0.0
4454,58.0,0.0,120.0,4.0,0.0
4455,42.0,0.0,120.0,7.0,0.0
4456,46.0,0.0,120.0,7.0,0.0
4457,54.0,0.0,60.0,2.0,0.0
4458,46.0,0.0,120.0,5.0,0.0
4459,61.0,0.0,60.0,0.0,0.0
4460,54.0,0.0,120.0,5.0,0.0
4461,49.0,0.0,120.0,5.0,0.0
4462,42.0,0.0,120.0,5.0,0.0
4463,58.0,59.0,60.0,1.0,0.0
4464,61.0,0.0,60.0,1.0,0.0
4465,66.0,0.0,60.0,0.0,0.0
4466,66.0,0.0,60.0,4.0,0.0
4467,58.0,59.0,60.0,2.0,0.0
4468,61.0,0.0,60.0,4.0,0.0
4469,70.0,1.0,60.0,4.0,0.0
4470,66.0,59.0,60.0,1.0,0.0
4471,61.0,0.0,60.0,2.0,0.0
4472,70.0,0.0,60.0,0.0,0.0
4473,68.0,0.0,60.0,0.0,0.0
4474,65.0,0.0,60.0,1.0,0.0
4475,59.0,29.0,60.0,2.0,0.0
4476,59.0,0.0,60.0,4.0,0.0
4477,68.0,1.0,60.0,4.0,0.0
4478,61.0,29.0,60.0,0.0,0.0
4479,61.0,0.0,60.0,4.0,0.0
4480,54.0,0.0,120.0,5.0,0.0
4481,42.0,0.0,120.0,3.0,0.0
4482,58.0,30.0,30.0,4.0,0.0
4483,58.0,0.0,60.0,2.0,0.0
4484,66.0,0.0,60.0,1.0,0.0
4485,56.0,1.0,30.0,4.0,0.0
4486,66.0,1.0,30.0,4.0,0.0
4487,58.0,0.0,30.0,4.0,0.0
4488,66.0,29.0,30.0,0.0,0.0
4489,61.0,0.0,60.0,2.0,0.0
4490,58.0,0.0,30.0,1.0,0.0
4491,59.0,29.0,30.0,1.0,0.0
4492,68.0,0.0,30.0,0.0,0.0
4493,68.0,0.0,30.0,4.0,0.0
4494,59.0,1.0,30.0,4.0,0.0
4495,61.0,29.0,30.0,1.0,0.0
4496,70.0,0.0,30.0,0.0,0.0
4497,61.0,1.0,30.0,4.0,0.0
4498,66.0,0.0,30.0,2.0,0.0
4499,70.0,0.0,30.0,4.0,0.0
4500,59.0,0.0,30.0,4.0,0.0
4501,65.0,29.0,30.0,2.0,0.0
4502,68.0,0.0,30.0,0.0,0.0
4503,59.0,0.0,30.0,1.0,0.0
4504,68.0,1.0,30.0,4.0,0.0
4505,61.0,1.0,30.0,4.0,0.0
4506,70.0,0.0,30.0,4.0,0.0
4507,70.0,0.0,30.0,0.0,0.0
4508,61.0,29.0,30.0,1.0,0.0
4509,66.0,0.0,30.0,2.0,0.0
4510,59.0,30.0,30.0,1.0,0.0
4511,65.0,0.0,30.0,2.0,0.0
4512,68.0,0.0,30.0,0.0,0.0
4513,68.0,1.0,30.0,4.0,0.0
4514,59.0,0.0,30.0,4.0,0.0
4515,66.0,29.0,60.0,2.0,0.0
4516,42.0,29.0,30.0,3.0,0.0
4517,49.0,1.0,60.0,5.0,0.0
4518,66.0,0.0,60.0,0.0,0.0
4519,58.0,0.0,60.0,4.0,0.0
4520,66.0,0.0,60.0,4.0,0.0
4521,54.0,0.0,60.0,4.0,0.0
4522,58.0,0.0,60.0,1.0,0.0
4523,42.0,0.0,60.0,5.0,0.0
4524,68.0,0.0,30.0,0.0,0.0
4525,59.0,0.0,30.0,1.0,0.0
4526,63.0,0.0,60.0,2.0,0.0
4527,68.0,1.0,30.0,4.0,0.0
4528,54.0,1.0,60.0,5.0,0.0
4529,54.0,29.0,30.0,3.0,0.0
4530,61.0,29.0,30.0,1.0,0.0
4531,70.0,0.0,30.0,4.0,0.0
4532,70.0,0.0,30.0,0.0,0.0
4533,63.0,0.0,30.0,1.0,0.0
4534,54.0,30.0,60.0,2.0,0.0
4535,71.0,1.0,30.0,4.0,0.0
4536,71.0,0.0,30.0,0.0,0.0
4537,51.0,1.0,60.0,5.0,0.0
4538,51.0,29.0,30.0,3.0,0.0
4539,73.0,0.0,30.0,4.0,0.0
4540,65.0,0.0,30.0,1.0,0.0
4541,73.0,0.0,30.0,0.0,0.0
4542,47.0,29.0,30.0,3.0,0.0
4543,59.0,0.0,60.0,2.0,0.0
4544,75.0,1.0,60.0,4.0,0.0
4545,47.0,0.0,60.0,5.0,0.0
4546,66.0,0.0,15.0,1.0,0.0
4547,53.0,1.0,60.0,5.0,0.0
4548,75.0,59.0,15.0,0.0,0.0
4549,75.0,0.0,60.0,4.0,0.0
4550,59.0,0.0,60.0,2.0,0.0
4551,41.0,0.0,60.0,3.0,0.0
4552,61.0,29.0,60.0,2.0,0.0
4553,53.0,30.0,30.0,3.0,0.0
4554,68.0,0.0,60.0,0.0,0.0
4555,59.0,0.0,60.0,1.0,0.0
4556,41.0,0.0,60.0,5.0,0.0
4557,68.0,1.0,60.0,4.0,0.0
4558,54.0,0.0,30.0,3.0,0.0
4559,75.0,0.0,60.0,6.0,0.0
4560,56.0,30.0,30.0,3.0,0.0
4561,53.0,60.0,60.0,7.0,0.0
4562,58.0,0.0,30.0,3.0,0.0
4563,68.0,0.0,60.0,6.0,0.0
4564,41.0,0.0,60.0,7.0,0.0
4565,59.0,60.0,60.0,3.0,0.0
4566,56.0,0.0,120.0,5.0,0.0
4567,68.0,0.0,60.0,2.0,0.0
4568,49.0,0.0,120.0,3.0,0.0
4569,53.0,1.0,120.0,5.0,0.0
4570,59.0,1.0,60.0,4.0,0.0
4571,49.0,0.0,120.0,5.0,0.0
4572,65.0,0.0,60.0,1.0,0.0
4573,59.0,59.0,60.0,0.0,0.0
4574,61.0,0.0,60.0,1.0,0.0
4575,56.0,59.0,60.0,2.0,0.0
4576,65.0,0.0,60.0,0.0,0.0
4577,65.0,0.0,60.0,4.0,0.0
4578,65.0,59.0,60.0,1.0,0.0
4579,59.0,1.0,60.0,4.0,0.0
4580,68.0,0.0,60.0,4.0,0.0
4581,68.0,0.0,60.0,0.0,0.0
4582,61.0,0.0,60.0,2.0,0.0
4583,61.0,29.0,60.0,2.0,0.0
4584,66.0,0.0,60.0,0.0,0.0
4585,61.0,0.0,60.0,1.0,0.0
4586,66.0,0.0,60.0,4.0,0.0
4587,58.0,1.0,60.0,4.0,0.0
4588,37.0,0.0,120.0,3.0,0.0
4589,59.0,0.0,60.0,0.0,0.0
4590,49.0,0.0,120.0,5.0,0.0
4591,56.0,30.0,30.0,4.0,0.0
4592,65.0,29.0,60.0,1.0,0.0
4593,68.0,0.0,60.0,2.0,0.0
4594,59.0,0.0,60.0,4.0,0.0
4595,54.0,1.0,30.0,4.0,0.0
4596,65.0,1.0,30.0,4.0,0.0
4597,65.0,29.0,30.0,0.0,0.0
4598,56.0,0.0,30.0,4.0,0.0
4599,56.0,0.0,30.0,2.0,0.0
4600,61.0,0.0,30.0,1.0,0.0
4601,66.0,0.0,30.0,0.0,0.0
4602,58.0,29.0,30.0,2.0,0.0
4603,63.0,0.0,30.0,1.0,0.0
4604,66.0,1.0,30.0,4.0,0.0
4605,58.0,0.0,30.0,4.0,0.0
4606,68.0,1.0,30.0,4.0,0.0
4607,59.0,0.0,30.0,4.0,0.0
4608,59.0,29.0,30.0,2.0,0.0
4609,68.0,0.0,30.0,0.0,0.0
4610,65.0,0.0,30.0,1.0,0.0
4611,66.0,0.0,30.0,0.0,0.0
4612,58.0,29.0,30.0,2.0,0.0
4613,63.0,0.0,30.0,1.0,0.0
4614,66.0,1.0,30.0,4.0,0.0
4615,58.0,0.0,30.0,4.0,0.0
4616,68.0,29.0,30.0,0.0,0.0
4617,65.0,0.0,30.0,1.0,0.0
4618,59.0,0.0,30.0,2.0,0.0
4619,68.0,1.0,30.0,4.0,0.0
4620,59.0,0.0,30.0,4.0,0.0
4621,58.0,1.0,30.0,4.0,0.0
4622,63.0,0.0,30.0,1.0,0.0
4623,66.0,0.0,30.0,4.0,0.0
4624,66.0,59.0,30.0,0.0,0.0
4625,58.0,0.0,30.0,2.0,0.0
4626,65.0,0.0,60.0,4.0,0.0
4627,59.0,0.0,60.0,4.0,0.0
4628,56.0,0.0,60.0,2.0,0.0
4629,61.0,0.0,60.0,1.0,0.0
4630,56.0,0.0,60.0,5.0,0.0
4631,49.0,0.0,60.0,5.0,0.0
4632,65.0,29.0,60.0,0.0,0.0
4633,49.0,1.0,60.0,3.0,0.0
4634,51.0,0.0,60.0,3.0,0.0
4635,71.0,0.0,60.0,1.0,0.0
4636,66.0,29.0,30.0,0.0,0.0
4637,66.0,1.0,30.0,4.0,0.0
4638,51.0,1.0,60.0,5.0,0.0
4639,68.0,29.0,30.0,0.0,0.0
4640,68.0,0.0,30.0,4.0,0.0
4641,70.0,1.0,30.0,4.0,0.0
4642,66.0,0.0,15.0,2.0,0.0
4643,70.0,29.0,30.0,0.0,0.0
4644,70.0,0.0,60.0,1.0,0.0
4645,49.0,0.0,60.0,5.0,0.0
4646,49.0,1.0,60.0,3.0,0.0
4647,71.0,59.0,30.0,0.0,0.0
4648,71.0,0.0,30.0,4.0,0.0
4649,47.0,0.0,60.0,5.0,0.0
4650,73.0,0.0,60.0,4.0,0.0
4651,65.0,0.0,60.0,2.0,0.0
4652,73.0,0.0,60.0,0.0,0.0
4653,47.0,1.0,60.0,3.0,0.0
4654,68.0,29.0,60.0,1.0,0.0
4655,66.0,0.0,60.0,1.0,0.0
4656,46.0,30.0,30.0,3.0,0.0
4657,66.0,0.0,60.0,2.0,0.0
4658,73.0,0.0,60.0,4.0,0.0
4659,46.0,0.0,60.0,5.0,0.0
4660,73.0,29.0,60.0,0.0,0.0
4661,44.0,1.0,30.0,3.0,0.0
4662,34.0,0.0,60.0,5.0,0.0
4663,61.0,0.0,60.0,1.0,0.0
4664,46.0,30.0,30.0,3.0,0.0
4665,58.0,0.0,60.0,2.0,0.0
4666,66.0,29.0,60.0,0.0,0.0
4667,66.0,0.0,60.0,4.0,0.0
4668,47.0,1.0,30.0,3.0,0.0
4669,49.0,30.0,30.0,3.0,0.0
4670,73.0,0.0,60.0,6.0,0.0
4671,58.0,60.0,60.0,7.0,0.0
4672,51.0,0.0,30.0,3.0,0.0
4673,52.0,0.0,60.0,3.0,0.0
4674,66.0,60.0,60.0,6.0,0.0
4675,46.0,0.0,60.0,7.0,0.0
4676,39.0,0.0,120.0,3.0,0.0
4677,51.0,0.0,60.0,7.0,0.0
4678,51.0,0.0,60.0,5.0,0.0
4679,72.0,30.0,60.0,6.0,0.0
4680,39.0,30.0,60.0,5.0,0.0
4681,66.0,0.0,30.0,6.0,0.0
4682,54.0,30.0,30.0,7.0,0.0
4683,75.0,0.0,30.0,4.0,0.0
4684,76.0,0.0,30.0,4.0,0.0
4685,52.0,0.0,30.0,7.0,0.0
4686,68.0,0.0,30.0,6.0,0.0
4687,78.0,30.0,30.0,4.0,0.0
4688,63.0,0.0,120.0,2.0,0.0
4689,51.0,0.0,60.0,7.0,0.0
4690,69.0,0.0,60.0,6.0,0.0
4691,51.0,0.0,120.0,0.0,0.0
4692,72.0,29.0,120.0,1.0,0.0
4693,76.0,30.0,30.0,4.0,0.0
4694,39.0,0.0,60.0,7.0,0.0
4695,72.0,0.0,60.0,6.0,0.0
4696,78.0,30.0,30.0,4.0,0.0
4697,75.0,1.0,30.0,4.0,0.0
4698,52.0,0.0,60.0,5.0,0.0
4699,40.0,30.0,60.0,7.0,0.0
4700,73.0,0.0,60.0,6.0,0.0
4701,40.0,30.0,120.0,3.0,0.0
4702,68.0,30.0,30.0,4.0,0.0
4703,72.0,0.0,30.0,4.0,0.0
4704,40.0,0.0,60.0,5.0,0.0
4705,56.0,30.0,30.0,7.0,0.0
4706,64.0,0.0,30.0,6.0,0.0
4707,73.0,0.0,30.0,4.0,0.0
4708,75.0,0.0,30.0,4.0,0.0
4709,54.0,0.0,30.0,7.0,0.0
4710,66.0,0.0,30.0,6.0,0.0
4711,52.0,0.0,60.0,7.0,0.0
4712,68.0,0.0,60.0,6.0,0.0
4713,61.0,29.0,120.0,2.0,0.0
4714,73.0,0.0,120.0,1.0,0.0
4715,52.0,0.0,120.0,0.0,0.0
4716,76.0,30.0,30.0,4.0,0.0
4717,75.0,30.0,30.0,4.0,0.0
4718,40.0,0.0,60.0,7.0,0.0
4719,73.0,1.0,60.0,6.0,0.0
4720,76.0,30.0,30.0,4.0,0.0
4721,73.0,0.0,30.0,4.0,0.0
4722,42.0,0.0,120.0,3.0,0.0
4723,42.0,30.0,60.0,7.0,0.0
4724,54.0,0.0,60.0,5.0,0.0
4725,68.0,30.0,30.0,4.0,0.0
4726,75.0,0.0,60.0,6.0,0.0
4727,70.0,0.0,30.0,4.0,0.0
4728,57.0,30.0,30.0,7.0,0.0
4729,72.0,0.0,30.0,4.0,0.0
4730,42.0,0.0,60.0,5.0,0.0
4731,63.0,0.0,30.0,6.0,0.0
4732,73.0,0.0,30.0,4.0,0.0
4733,56.0,30.0,30.0,7.0,0.0
4734,64.0,0.0,30.0,6.0,0.0
4735,75.0,30.0,30.0,4.0,0.0
4736,54.0,0.0,60.0,7.0,0.0
4737,69.0,20.0,120.0,1.0,0.0
4738,66.0,0.0,60.0,6.0,0.0
4739,54.0,0.0,120.0,0.0,0.0
4740,60.0,0.0,120.0,2.0,0.0
4741,73.0,30.0,30.0,4.0,0.0
4742,75.0,0.0,60.0,6.0,0.0
4743,42.0,1.0,60.0,7.0,0.0
4744,75.0,30.0,30.0,4.0,0.0
4745,72.0,0.0,30.0,4.0,0.0
4746,52.0,11.0,30.0,5.0,0.0
4747,44.0,1.0,120.0,3.0,0.0
4748,76.0,0.0,60.0,6.0,0.0
4749,44.0,0.0,60.0,7.0,0.0
4750,73.0,9.0,20.0,4.0,0.0
4751,75.0,19.0,20.0,4.0,0.0
4752,54.0,1.0,30.0,5.0,0.0
4753,73.0,15.0,20.0,4.0,0.0
4754,52.0,0.0,30.0,7.0,0.0
4755,61.0,1.0,30.0,6.0,0.0
4756,56.0,0.0,30.0,5.0,0.0
4757,75.0,14.0,15.0,4.0,0.0
4758,73.0,15.0,15.0,4.0,0.0
4759,54.0,0.0,30.0,5.0,0.0
4760,51.0,0.0,30.0,7.0,0.0
4761,75.0,14.0,15.0,4.0,0.0
4762,63.0,0.0,30.0,6.0,0.0
4763,73.0,15.0,15.0,4.0,0.0
4764,56.0,0.0,120.0,2.0,0.0
4765,49.0,0.0,30.0,7.0,0.0
4766,64.0,0.0,60.0,6.0,0.0
4767,68.0,0.0,120.0,1.0,0.0
4768,56.0,0.0,120.0,0.0,0.0
4769,52.0,1.0,30.0,5.0,0.0
4770,75.0,14.0,15.0,4.0,0.0
4771,73.0,15.0,15.0,4.0,0.0
4772,51.0,0.0,30.0,5.0,0.0
4773,47.0,1.0,30.0,7.0,0.0
4774,75.0,14.0,15.0,4.0,0.0
4775,73.0,15.0,15.0,4.0,0.0
4776,76.0,0.0,60.0,6.0,0.0
4777,49.0,1.0,30.0,5.0,0.0
4778,75.0,14.0,15.0,4.0,0.0
4779,46.0,0.0,30.0,7.0,0.0
4780,73.0,15.0,15.0,4.0,0.0
4781,44.0,1.0,30.0,7.0,0.0
4782,47.0,0.0,30.0,5.0,0.0
4783,75.0,14.0,15.0,4.0,0.0
4784,73.0,15.0,15.0,4.0,0.0
4785,46.0,0.0,60.0,5.0,0.0
4786,66.0,10.0,20.0,6.0,0.0
4787,46.0,1.0,30.0,7.0,0.0
4788,75.0,4.0,15.0,4.0,0.0
4789,46.0,0.0,120.0,3.0,0.0
4790,73.0,9.0,15.0,4.0,0.0
4791,68.0,20.0,20.0,6.0,0.0
4792,49.0,0.0,30.0,7.0,0.0
4793,66.0,0.0,30.0,4.0,0.0
4794,66.0,15.0,20.0,6.0,0.0
4795,73.0,0.0,30.0,4.0,0.0
4796,52.0,0.0,30.0,7.0,0.0
4797,58.0,15.0,30.0,5.0,0.0
4798,68.0,15.0,15.0,6.0,0.0
4799,66.0,0.0,15.0,6.0,0.0
4800,51.0,0.0,30.0,7.0,0.0
4801,68.0,15.0,15.0,6.0,0.0
4802,75.0,0.0,30.0,4.0,0.0
4803,60.0,0.0,30.0,5.0,0.0
4804,66.0,15.0,15.0,6.0,0.0
4805,66.0,0.0,120.0,1.0,0.0
4806,58.0,0.0,120.0,0.0,0.0
4807,49.0,0.0,30.0,7.0,0.0
4808,68.0,15.0,15.0,6.0,0.0
4809,76.0,15.0,30.0,4.0,0.0
4810,61.0,0.0,60.0,5.0,0.0
4811,61.0,14.0,120.0,2.0,0.0
4812,66.0,0.0,15.0,6.0,0.0
4813,68.0,15.0,15.0,6.0,0.0
4814,75.0,0.0,30.0,4.0,0.0
4815,47.0,0.0,30.0,7.0,0.0
4816,66.0,15.0,15.0,6.0,0.0
4817,76.0,15.0,30.0,4.0,0.0
4818,46.0,0.0,30.0,7.0,0.0
4819,49.0,0.0,60.0,5.0,0.0
4820,68.0,15.0,15.0,6.0,0.0
4821,66.0,0.0,15.0,6.0,0.0
4822,68.0,15.0,15.0,6.0,0.0
4823,49.0,1.0,30.0,7.0,0.0
4824,73.0,0.0,30.0,4.0,0.0
4825,66.0,0.0,15.0,6.0,0.0
4826,68.0,15.0,15.0,6.0,0.0
4827,56.0,0.0,60.0,5.0,0.0
4828,75.0,15.0,30.0,4.0,0.0
4829,48.0,0.0,30.0,7.0,0.0
4830,48.0,0.0,120.0,3.0,0.0
4831,66.0,0.0,15.0,6.0,0.0
4832,68.0,15.0,15.0,6.0,0.0
4833,46.0,0.0,30.0,7.0,0.0
4834,73.0,15.0,30.0,4.0,0.0
4835,66.0,0.0,15.0,6.0,0.0
4836,51.0,15.0,30.0,5.0,0.0
4837,68.0,15.0,15.0,6.0,0.0
4838,72.0,0.0,30.0,4.0,0.0
4839,44.0,0.0,30.0,7.0,0.0
4840,66.0,0.0,15.0,6.0,0.0
4841,46.0,0.0,30.0,7.0,0.0
4842,68.0,15.0,15.0,6.0,0.0
4843,49.0,0.0,30.0,5.0,0.0
4844,70.0,15.0,30.0,4.0,0.0
4845,66.0,0.0,15.0,6.0,0.0
4846,68.0,0.0,60.0,4.0,0.0
4847,48.0,0.0,60.0,5.0,0.0
4848,60.0,0.0,120.0,0.0,0.0
4849,68.0,15.0,15.0,6.0,0.0
4850,60.0,14.0,120.0,2.0,0.0
4851,75.0,0.0,120.0,1.0,0.0
4852,48.0,0.0,30.0,7.0,0.0
4853,66.0,15.0,15.0,6.0,0.0
4854,49.0,0.0,30.0,7.0,0.0
4855,68.0,15.0,15.0,6.0,0.0
4856,66.0,15.0,15.0,6.0,0.0
4857,68.0,15.0,15.0,6.0,0.0
4858,44.0,0.0,60.0,5.0,0.0
4859,51.0,0.0,30.0,7.0,0.0
4860,68.0,0.0,60.0,4.0,0.0
4861,66.0,15.0,15.0,6.0,0.0
4862,48.0,1.0,30.0,7.0,0.0
4863,68.0,15.0,15.0,6.0,0.0
4864,66.0,0.0,15.0,6.0,0.0
4865,49.0,0.0,60.0,7.0,0.0
4866,49.0,0.0,30.0,5.0,0.0
4867,68.0,0.0,60.0,4.0,0.0
4868,68.0,15.0,15.0,6.0,0.0
4869,49.0,30.0,60.0,3.0,0.0
4870,66.0,30.0,15.0,6.0,0.0
4871,48.0,0.0,30.0,5.0,0.0
4872,63.0,0.0,30.0,6.0,0.0
4873,49.0,30.0,30.0,5.0,0.0
4874,56.0,0.0,60.0,2.0,0.0
4875,64.0,0.0,30.0,6.0,0.0
4876,47.0,0.0,60.0,7.0,0.0
4877,47.0,0.0,60.0,3.0,0.0
4878,80.0,0.0,120.0,4.0,0.0
4879,80.0,0.0,120.0,0.0,0.0
4880,64.0,29.0,60.0,1.0,0.0
4881,52.0,0.0,30.0,5.0,0.0
4882,68.0,1.0,30.0,6.0,0.0
4883,66.0,0.0,60.0,1.0,0.0
4884,45.0,1.0,60.0,3.0,0.0
4885,57.0,0.0,30.0,5.0,0.0
4886,73.0,30.0,30.0,6.0,0.0
4887,45.0,0.0,60.0,7.0,0.0
4888,57.0,29.0,60.0,2.0,0.0
4889,56.0,0.0,30.0,5.0,0.0
4890,76.0,0.0,30.0,6.0,0.0
4891,57.0,0.0,30.0,5.0,0.0
4892,60.0,0.0,60.0,1.0,0.0
4893,75.0,1.0,30.0,6.0,0.0
4894,51.0,29.0,60.0,2.0,0.0
4895,78.0,29.0,30.0,0.0,0.0
4896,57.0,0.0,60.0,3.0,0.0
4897,57.0,0.0,60.0,7.0,0.0
4898,78.0,1.0,90.0,4.0,0.0
4899,54.0,0.0,30.0,5.0,0.0
4900,80.0,0.0,30.0,0.0,0.0
4901,73.0,1.0,30.0,6.0,0.0
4902,56.0,0.0,60.0,3.0,0.0
4903,66.0,0.0,120.0,1.0,0.0
4904,75.0,0.0,30.0,6.0,0.0
4905,51.0,0.0,60.0,5.0,0.0
4906,56.0,0.0,120.0,7.0,0.0
4907,78.0,29.0,30.0,0.0,0.0
4908,56.0,0.0,120.0,2.0,0.0
4909,73.0,0.0,30.0,6.0,0.0
4910,76.0,30.0,30.0,4.0,0.0
4911,80.0,29.0,90.0,0.0,0.0
4912,72.0,0.0,30.0,6.0,0.0
4913,56.0,0.0,30.0,5.0,0.0
4914,54.0,0.0,60.0,3.0,0.0
4915,75.0,30.0,30.0,4.0,0.0
4916,73.0,0.0,30.0,4.0,0.0
4917,70.0,1.0,30.0,6.0,0.0
4918,58.0,0.0,30.0,5.0,0.0
4919,68.0,0.0,180.0,6.0,0.0
4920,52.0,0.0,60.0,3.0,0.0
4921,75.0,30.0,30.0,4.0,0.0
4922,60.0,30.0,60.0,5.0,0.0
4923,69.0,0.0,30.0,4.0,0.0
4924,54.0,0.0,30.0,7.0,0.0
4925,51.0,0.0,60.0,3.0,0.0
4926,52.0,30.0,30.0,7.0,0.0
4927,48.0,30.0,60.0,5.0,0.0
4928,68.0,0.0,30.0,4.0,0.0
4929,66.0,0.0,30.0,4.0,0.0
4930,51.0,0.0,30.0,7.0,0.0
4931,52.0,0.0,60.0,7.0,0.0
4932,64.0,30.0,30.0,4.0,0.0
4933,49.0,30.0,120.0,3.0,0.0
4934,61.0,0.0,30.0,4.0,0.0
4935,49.0,30.0,30.0,5.0,0.0
4936,66.0,0.0,30.0,4.0,0.0
4937,48.0,30.0,30.0,5.0,0.0
4938,69.0,0.0,60.0,6.0,0.0
4939,61.0,0.0,30.0,4.0,0.0
4940,49.0,0.0,30.0,5.0,0.0
4941,61.0,0.0,120.0,0.0,0.0
4942,61.0,29.0,120.0,2.0,0.0
4943,37.0,30.0,60.0,5.0,0.0
4944,61.0,0.0,120.0,1.0,0.0
4945,68.0,0.0,60.0,6.0,0.0
4946,64.0,30.0,30.0,4.0,0.0
4947,61.0,0.0,30.0,4.0,0.0
4948,49.0,0.0,30.0,7.0,0.0
4949,63.0,0.0,30.0,4.0,0.0
4950,48.0,30.0,30.0,7.0,0.0
4951,66.0,0.0,60.0,6.0,0.0
4952,61.0,0.0,30.0,4.0,0.0
4953,49.0,1.0,30.0,7.0,0.0
4954,64.0,30.0,30.0,4.0,0.0
4955,49.0,30.0,120.0,3.0,0.0
4956,37.0,0.0,60.0,7.0,0.0
4957,68.0,0.0,60.0,6.0,0.0
4958,49.0,30.0,30.0,5.0,0.0
4959,61.0,0.0,30.0,4.0,0.0
4960,66.0,0.0,60.0,6.0,0.0
4961,69.0,0.0,30.0,4.0,0.0
4962,48.0,30.0,30.0,5.0,0.0
4963,61.0,0.0,30.0,4.0,0.0
4964,49.0,0.0,30.0,5.0,0.0
4965,61.0,0.0,120.0,2.0,0.0
4966,61.0,29.0,120.0,0.0,0.0
4967,68.0,30.0,30.0,4.0,0.0
4968,37.0,0.0,60.0,5.0,0.0
4969,64.0,0.0,60.0,6.0,0.0
4970,61.0,0.0,120.0,1.0,0.0
4971,61.0,30.0,30.0,4.0,0.0
4972,49.0,0.0,30.0,7.0,0.0
4973,48.0,0.0,30.0,7.0,0.0
4974,66.0,30.0,30.0,4.0,0.0
4975,63.0,0.0,60.0,6.0,0.0
4976,49.0,0.0,30.0,7.0,0.0
4977,61.0,1.0,30.0,4.0,0.0
4978,49.0,0.0,120.0,3.0,0.0
4979,64.0,30.0,60.0,6.0,0.0
4980,68.0,30.0,30.0,4.0,0.0
4981,37.0,0.0,60.0,7.0,0.0
4982,49.0,0.0,30.0,5.0,0.0
4983,61.0,0.0,30.0,4.0,0.0
4984,69.0,30.0,60.0,6.0,0.0
4985,66.0,0.0,30.0,4.0,0.0
4986,48.0,30.0,30.0,5.0,0.0
4987,61.0,0.0,30.0,4.0,0.0
4988,49.0,0.0,30.0,5.0,0.0
4989,64.0,30.0,30.0,4.0,0.0
4990,61.0,29.0,120.0,2.0,0.0
4991,61.0,0.0,120.0,1.0,0.0
4992,61.0,0.0,120.0,0.0,0.0
4993,37.0,0.0,60.0,5.0,0.0
4994,68.0,0.0,60.0,6.0,0.0
4995,61.0,0.0,30.0,4.0,0.0
4996,49.0,30.0,30.0,7.0,0.0
4997,63.0,30.0,30.0,4.0,0.0
4998,66.0,0.0,60.0,6.0,0.0
4999,48.0,0.0,30.0,7.0,0.0
5000,61.0,0.0,30.0,4.0,0.0
5001,49.0,1.0,30.0,7.0,0.0
5002,49.0,30.0,60.0,3.0,0.0
5003,64.0,30.0,30.0,4.0,0.0
5004,68.0,0.0,30.0,6.0,0.0
5005,37.0,0.0,60.0,7.0,0.0
5006,63.0,0.0,30.0,4.0,0.0
5007,66.0,0.0,30.0,6.0,0.0
5008,37.0,0.0,30.0,3.0,0.0
5009,68.0,29.0,30.0,0.0,0.0
5010,64.0,1.0,30.0,6.0,0.0
5011,64.0,0.0,30.0,2.0,0.0
5012,49.0,0.0,30.0,5.0,0.0
5013,68.0,0.0,30.0,1.0,0.0
5014,61.0,0.0,30.0,4.0,0.0
5015,63.0,0.0,30.0,6.0,0.0
5016,63.0,0.0,30.0,4.0,0.0
5017,36.0,0.0,30.0,3.0,0.0
5018,48.0,30.0,30.0,5.0,0.0
5019,68.0,29.0,30.0,2.0,0.0
5020,73.0,0.0,30.0,1.0,0.0
5021,64.0,0.0,30.0,4.0,0.0
5022,37.0,0.0,30.0,3.0,0.0
5023,64.0,0.0,30.0,0.0,0.0
5024,61.0,0.0,60.0,6.0,0.0
5025,49.0,1.0,30.0,5.0,0.0
5026,66.0,0.0,30.0,4.0,0.0
5027,39.0,0.0,30.0,3.0,0.0
5028,49.0,30.0,30.0,7.0,0.0
5029,51.0,0.0,30.0,5.0,0.0
5030,68.0,0.0,30.0,4.0,0.0
5031,52.0,30.0,30.0,5.0,0.0
5032,47.0,0.0,30.0,7.0,0.0
5033,40.0,0.0,30.0,3.0,0.0
5034,69.0,0.0,30.0,4.0,0.0
5035,54.0,0.0,30.0,5.0,0.0
5036,45.0,30.0,30.0,7.0,0.0
5037,42.0,0.0,30.0,3.0,0.0
5038,44.0,0.0,120.0,3.0,0.0
5039,44.0,30.0,30.0,7.0,0.0
5040,63.0,0.0,60.0,6.0,0.0
5041,60.0,0.0,30.0,4.0,0.0
5042,56.0,30.0,60.0,5.0,0.0
5043,68.0,0.0,30.0,4.0,0.0
5044,56.0,0.0,30.0,7.0,0.0
5045,61.0,30.0,30.0,4.0,0.0
5046,64.0,0.0,60.0,6.0,0.0
5047,55.0,0.0,30.0,7.0,0.0
5048,68.0,30.0,30.0,4.0,0.0
5049,56.0,0.0,30.0,7.0,0.0
5050,48.0,0.0,60.0,7.0,0.0
5051,56.0,0.0,120.0,0.0,0.0
5052,63.0,30.0,30.0,4.0,0.0
5053,56.0,29.0,120.0,2.0,0.0
5054,56.0,0.0,120.0,1.0,0.0
5055,66.0,0.0,60.0,6.0,0.0
5056,68.0,0.0,30.0,4.0,0.0
5057,56.0,30.0,30.0,5.0,0.0
5058,64.0,1.0,60.0,6.0,0.0
5059,55.0,0.0,30.0,5.0,0.0
5060,61.0,30.0,30.0,4.0,0.0
5061,56.0,0.0,30.0,5.0,0.0
5062,68.0,0.0,30.0,4.0,0.0
5063,60.0,30.0,30.0,4.0,0.0
5064,63.0,0.0,60.0,6.0,0.0
5065,44.0,0.0,120.0,3.0,0.0
5066,44.0,0.0,60.0,5.0,0.0
5067,56.0,0.0,30.0,4.0,0.0
5068,48.0,30.0,30.0,7.0,0.0
5069,51.0,0.0,30.0,7.0,0.0
5070,69.0,0.0,60.0,6.0,0.0
5071,54.0,30.0,30.0,4.0,0.0
5072,54.0,0.0,30.0,7.0,0.0
5073,51.0,30.0,30.0,4.0,0.0
5074,56.0,0.0,120.0,0.0,0.0
5075,52.0,0.0,60.0,7.0,0.0
5076,68.0,0.0,60.0,6.0,0.0
5077,56.0,0.0,120.0,1.0,0.0
5078,56.0,29.0,120.0,2.0,0.0
5079,52.0,30.0,30.0,4.0,0.0
5080,56.0,0.0,30.0,4.0,0.0
5081,44.0,30.0,30.0,5.0,0.0
5082,61.0,0.0,30.0,4.0,0.0
5083,64.0,0.0,60.0,6.0,0.0
5084,43.0,30.0,30.0,5.0,0.0
5085,64.0,1.0,30.0,4.0,0.0
5086,44.0,0.0,30.0,5.0,0.0
5087,60.0,0.0,60.0,6.0,0.0
5088,44.0,0.0,120.0,3.0,0.0
5089,51.0,0.0,60.0,5.0,0.0
5090,69.0,30.0,30.0,4.0,0.0
5091,66.0,30.0,30.0,4.0,0.0
5092,51.0,0.0,30.0,7.0,0.0
5093,48.0,0.0,30.0,7.0,0.0
5094,63.0,30.0,30.0,4.0,0.0
5095,66.0,0.0,60.0,6.0,0.0
5096,60.0,0.0,30.0,4.0,0.0
5097,44.0,30.0,30.0,7.0,0.0
5098,64.0,0.0,60.0,6.0,0.0
5099,61.0,0.0,30.0,4.0,0.0
5100,56.0,0.0,120.0,0.0,0.0
5101,49.0,30.0,30.0,7.0,0.0
5102,56.0,29.0,120.0,1.0,0.0
5103,56.0,0.0,120.0,2.0,0.0
5104,44.0,0.0,30.0,7.0,0.0
5105,49.0,0.0,30.0,5.0,0.0
5106,64.0,30.0,30.0,4.0,0.0
5107,67.0,0.0,30.0,4.0,0.0
5108,61.0,1.0,60.0,6.0,0.0
5109,40.0,0.0,30.0,7.0,0.0
5110,52.0,30.0,30.0,5.0,0.0
5111,70.0,0.0,30.0,4.0,0.0
5112,55.0,0.0,30.0,5.0,0.0
5113,37.0,0.0,30.0,7.0,0.0
5114,44.0,30.0,30.0,7.0,0.0
5115,64.0,30.0,60.0,6.0,0.0
5116,44.0,0.0,60.0,3.0,0.0
5117,56.0,0.0,60.0,5.0,0.0
5118,73.0,0.0,30.0,4.0,0.0
5119,70.0,0.0,30.0,4.0,0.0
5120,32.0,0.0,30.0,7.0,0.0
5121,44.0,0.0,60.0,5.0,0.0
5122,72.0,0.0,30.0,4.0,0.0
5123,51.0,29.0,30.0,2.0,0.0
5124,56.0,0.0,30.0,1.0,0.0
5125,56.0,0.0,30.0,3.0,0.0
5126,44.0,1.0,30.0,7.0,0.0
5127,72.0,0.0,30.0,0.0,0.0
5128,63.0,0.0,60.0,6.0,0.0
5129,42.0,30.0,30.0,7.0,0.0
5130,54.0,0.0,30.0,3.0,0.0
5131,75.0,0.0,30.0,4.0,0.0
5132,61.0,0.0,30.0,1.0,0.0
5133,68.0,0.0,30.0,4.0,0.0
5134,41.0,0.0,30.0,7.0,0.0
5135,52.0,0.0,30.0,2.0,0.0
5136,52.0,1.0,30.0,3.0,0.0
5137,73.0,29.0,30.0,0.0,0.0
5138,66.0,0.0,30.0,4.0,0.0
5139,51.0,0.0,30.0,3.0,0.0
5140,44.0,30.0,30.0,5.0,0.0
5141,39.0,0.0,30.0,7.0,0.0
5142,56.0,29.0,30.0,1.0,0.0
5143,37.0,0.0,30.0,7.0,0.0
5144,56.0,0.0,30.0,2.0,0.0
5145,49.0,0.0,30.0,3.0,0.0
5146,46.0,1.0,30.0,5.0,0.0
5147,75.0,0.0,30.0,0.0,0.0
5148,64.0,0.0,30.0,4.0,0.0
5149,48.0,0.0,30.0,3.0,0.0
5150,36.0,30.0,30.0,7.0,0.0
5151,63.0,0.0,30.0,4.0,0.0
5152,48.0,0.0,30.0,5.0,0.0
5153,64.0,30.0,30.0,4.0,0.0
5154,64.0,0.0,120.0,0.0,0.0
5155,56.0,0.0,120.0,2.0,0.0
5156,49.0,0.0,60.0,5.0,0.0
5157,49.0,1.0,120.0,3.0,0.0
5158,37.0,0.0,60.0,7.0,0.0
5159,61.0,30.0,30.0,4.0,0.0
5160,37.0,0.0,60.0,5.0,0.0
5161,56.0,30.0,30.0,4.0,0.0
5162,52.0,0.0,30.0,4.0,0.0
5163,56.0,30.0,30.0,4.0,0.0
5164,49.0,30.0,60.0,7.0,0.0
5165,61.0,0.0,120.0,2.0,0.0
5166,61.0,29.0,15.0,1.0,0.0
5167,61.0,0.0,120.0,0.0,0.0
5168,76.0,0.0,60.0,6.0,0.0
5169,61.0,0.0,30.0,4.0,0.0
5170,64.0,30.0,30.0,4.0,0.0
5171,73.0,1.0,60.0,6.0,0.0
5172,61.0,0.0,60.0,7.0,0.0
5173,63.0,0.0,30.0,4.0,0.0
5174,64.0,30.0,30.0,4.0,0.0
5175,47.0,0.0,120.0,3.0,0.0
5176,47.0,30.0,60.0,5.0,0.0
5177,61.0,0.0,30.0,4.0,0.0
5178,56.0,30.0,30.0,4.0,0.0
5179,35.0,30.0,60.0,5.0,0.0
5180,52.0,0.0,30.0,4.0,0.0
5181,59.0,0.0,120.0,0.0,0.0
5182,59.0,0.0,120.0,1.0,0.0
5183,56.0,30.0,30.0,4.0,0.0
5184,59.0,29.0,120.0,2.0,0.0
5185,56.0,30.0,60.0,7.0,0.0
5186,76.0,0.0,60.0,6.0,0.0
5187,61.0,0.0,30.0,4.0,0.0
5188,64.0,30.0,30.0,4.0,0.0
5189,71.0,0.0,60.0,6.0,0.0
5190,64.0,1.0,60.0,7.0,0.0
5191,63.0,0.0,30.0,4.0,0.0
5192,64.0,30.0,30.0,4.0,0.0
5193,46.0,0.0,60.0,5.0,0.0
5194,46.0,30.0,60.0,3.0,0.0
5195,61.0,0.0,30.0,4.0,0.0
5196,49.0,0.0,60.0,5.0,0.0
5197,64.0,0.0,30.0,2.0,0.0
5198,58.0,1.0,30.0,4.0,0.0
5199,61.0,0.0,30.0,0.0,0.0
5200,49.0,0.0,60.0,3.0,0.0
5201,70.0,29.0,30.0,1.0,0.0
5202,54.0,30.0,30.0,4.0,0.0
5203,49.0,0.0,60.0,7.0,0.0
5204,54.0,0.0,60.0,3.0,0.0
5205,58.0,1.0,30.0,4.0,0.0
5206,54.0,0.0,60.0,5.0,0.0
5207,73.0,0.0,30.0,1.0,0.0
5208,58.0,0.0,30.0,0.0,0.0
5209,76.0,0.0,60.0,6.0,0.0
5210,61.0,29.0,30.0,2.0,0.0
5211,61.0,30.0,30.0,4.0,0.0
5212,66.0,0.0,30.0,2.0,0.0
5213,54.0,0.0,60.0,7.0,0.0
5214,70.0,0.0,60.0,6.0,0.0
5215,64.0,1.0,30.0,4.0,0.0
5216,61.0,0.0,30.0,0.0,0.0
5217,70.0,29.0,30.0,1.0,0.0
5218,42.0,30.0,60.0,3.0,0.0
5219,42.0,0.0,60.0,5.0,0.0
5220,61.0,0.0,30.0,4.0,0.0
5221,63.0,30.0,30.0,4.0,0.0
5222,47.0,0.0,120.0,3.0,0.0
5223,66.0,0.0,120.0,2.0,0.0
5224,63.0,29.0,120.0,0.0,0.0
5225,47.0,30.0,60.0,5.0,0.0
5226,71.0,0.0,120.0,1.0,0.0
5227,59.0,0.0,30.0,4.0,0.0
5228,35.0,1.0,60.0,5.0,0.0
5229,54.0,30.0,30.0,4.0,0.0
5230,51.0,0.0,30.0,4.0,0.0
5231,75.0,0.0,60.0,6.0,0.0
5232,59.0,0.0,120.0,0.0,0.0
5233,54.0,30.0,30.0,4.0,0.0
5234,59.0,29.0,120.0,1.0,0.0
5235,59.0,0.0,120.0,2.0,0.0
5236,47.0,30.0,60.0,7.0,0.0
5237,59.0,0.0,30.0,4.0,0.0
5238,71.0,1.0,60.0,6.0,0.0
5239,59.0,0.0,60.0,7.0,0.0
5240,63.0,30.0,30.0,4.0,0.0
5241,59.0,0.0,30.0,4.0,0.0
5242,61.0,30.0,30.0,4.0,0.0
5243,46.0,0.0,60.0,5.0,0.0
5244,46.0,0.0,120.0,3.0,0.0
5245,58.0,30.0,30.0,4.0,0.0
5246,55.0,30.0,30.0,4.0,0.0
5247,34.0,0.0,60.0,5.0,0.0
5248,51.0,30.0,30.0,4.0,0.0
5249,46.0,0.0,60.0,7.0,0.0
5250,55.0,30.0,30.0,4.0,0.0
5251,58.0,0.0,120.0,0.0,0.0
5252,58.0,0.0,120.0,1.0,0.0
5253,58.0,29.0,120.0,2.0,0.0
5254,73.0,0.0,60.0,6.0,0.0
5255,58.0,30.0,30.0,4.0,0.0
5256,61.0,30.0,30.0,4.0,0.0
5257,70.0,0.0,60.0,6.0,0.0
5258,55.0,1.0,60.0,7.0,0.0
5259,59.0,0.0,30.0,4.0,0.0
5260,44.0,0.0,60.0,5.0,0.0
5261,44.0,0.0,120.0,3.0,0.0
5262,61.0,30.0,30.0,4.0,0.0
5263,56.0,30.0,30.0,4.0,0.0
5264,32.0,30.0,60.0,5.0,0.0
5265,52.0,30.0,30.0,4.0,0.0
5266,51.0,0.0,30.0,4.0,0.0
5267,73.0,0.0,60.0,6.0,0.0
5268,52.0,30.0,60.0,7.0,0.0
5269,52.0,30.0,30.0,4.0,0.0
5270,56.0,29.0,120.0,2.0,0.0
5271,56.0,0.0,120.0,0.0,0.0
5272,56.0,0.0,120.0,1.0,0.0
5273,56.0,0.0,30.0,4.0,0.0
5274,61.0,30.0,30.0,4.0,0.0
5275,68.0,1.0,60.0,6.0,0.0
5276,61.0,0.0,60.0,7.0,0.0
5277,59.0,0.0,30.0,4.0,0.0
5278,43.0,0.0,60.0,5.0,0.0
5279,43.0,0.0,60.0,3.0,0.0
5280,61.0,30.0,30.0,4.0,0.0
5281,58.0,30.0,30.0,4.0,0.0
5282,46.0,0.0,60.0,3.0,0.0
5283,58.0,29.0,30.0,2.0,0.0
5284,58.0,0.0,30.0,0.0,0.0
5285,55.0,1.0,30.0,4.0,0.0
5286,73.0,0.0,30.0,1.0,0.0
5287,46.0,0.0,60.0,5.0,0.0
5288,51.0,30.0,30.0,4.0,0.0
5289,55.0,0.0,60.0,7.0,0.0
5290,73.0,0.0,60.0,6.0,0.0
5291,51.0,0.0,60.0,5.0,0.0
5292,55.0,0.0,30.0,0.0,0.0
5293,51.0,30.0,60.0,3.0,0.0
5294,70.0,0.0,30.0,1.0,0.0
5295,58.0,29.0,30.0,2.0,0.0
5296,55.0,1.0,30.0,4.0,0.0
5297,58.0,0.0,30.0,4.0,0.0
5298,58.0,0.0,30.0,0.0,0.0
5299,39.0,30.0,60.0,5.0,0.0
5300,63.0,0.0,30.0,2.0,0.0
5301,63.0,0.0,60.0,7.0,0.0
5302,61.0,1.0,30.0,4.0,0.0
5303,67.0,0.0,60.0,6.0,0.0
5304,67.0,29.0,30.0,1.0,0.0
5305,39.0,0.0,60.0,3.0,0.0
5306,58.0,0.0,30.0,4.0,0.0
5307,44.0,30.0,60.0,3.0,0.0
5308,59.0,29.0,120.0,0.0,0.0
5309,68.0,0.0,120.0,1.0,0.0
5310,59.0,30.0,30.0,4.0,0.0
5311,63.0,0.0,120.0,2.0,0.0
5312,44.0,0.0,60.0,5.0,0.0
5313,56.0,0.0,30.0,4.0,0.0
5314,51.0,30.0,30.0,4.0,0.0
5315,47.0,1.0,60.0,3.0,0.0
5316,32.0,0.0,60.0,5.0,0.0
5317,56.0,0.0,30.0,4.0,0.0
5318,59.0,30.0,30.0,4.0,0.0
5319,52.0,0.0,60.0,3.0,0.0
5320,68.0,0.0,60.0,6.0,0.0
5321,40.0,30.0,60.0,7.0,0.0
5322,63.0,0.0,30.0,4.0,0.0
5323,64.0,30.0,30.0,4.0,0.0
5324,61.0,0.0,60.0,6.0,0.0
5325,40.0,0.0,60.0,3.0,0.0
5326,52.0,0.0,60.0,7.0,0.0
5327,63.0,30.0,30.0,4.0,0.0
5328,46.0,0.0,60.0,3.0,0.0
5329,61.0,30.0,30.0,4.0,0.0
5330,46.0,0.0,60.0,5.0,0.0
5331,58.0,30.0,30.0,4.0,0.0
5332,34.0,30.0,60.0,5.0,0.0
5333,49.0,0.0,60.0,3.0,0.0
5334,54.0,30.0,30.0,4.0,0.0
5335,58.0,0.0,30.0,4.0,0.0
5336,42.0,0.0,60.0,7.0,0.0
5337,54.0,0.0,60.0,3.0,0.0
5338,70.0,0.0,60.0,6.0,0.0
5339,61.0,30.0,30.0,4.0,0.0
5340,64.0,30.0,30.0,4.0,0.0
5341,54.0,0.0,60.0,7.0,0.0
5342,66.0,30.0,30.0,4.0,0.0
5343,61.0,0.0,60.0,6.0,0.0
5344,42.0,30.0,60.0,3.0,0.0
5345,64.0,0.0,30.0,4.0,0.0
5346,47.0,0.0,60.0,3.0,0.0
5347,63.0,30.0,30.0,4.0,0.0
5348,47.0,30.0,60.0,5.0,0.0
5349,59.0,0.0,30.0,4.0,0.0
5350,35.0,0.0,60.0,5.0,0.0
5351,56.0,30.0,30.0,4.0,0.0
5352,51.0,0.0,60.0,3.0,0.0
5353,59.0,30.0,30.0,4.0,0.0
5354,44.0,0.0,60.0,7.0,0.0
5355,71.0,0.0,60.0,6.0,0.0
5356,61.0,30.0,30.0,4.0,0.0
5357,56.0,0.0,60.0,3.0,0.0
5358,66.0,30.0,30.0,4.0,0.0
5359,68.0,30.0,30.0,4.0,0.0
5360,44.0,0.0,60.0,3.0,0.0
5361,56.0,0.0,60.0,7.0,0.0
5362,64.0,30.0,60.0,6.0,0.0
5363,66.0,0.0,30.0,4.0,0.0
5364,49.0,0.0,60.0,3.0,0.0
5365,49.0,0.0,60.0,5.0,0.0
5366,64.0,30.0,30.0,4.0,0.0
5367,61.0,30.0,30.0,4.0,0.0
5368,56.0,30.0,30.0,4.0,0.0
5369,52.0,0.0,60.0,3.0,0.0
5370,37.0,0.0,60.0,5.0,0.0
5371,61.0,30.0,30.0,4.0,0.0
5372,46.0,30.0,60.0,3.0,0.0
5373,64.0,30.0,30.0,4.0,0.0
5374,46.0,0.0,60.0,7.0,0.0
5375,73.0,0.0,60.0,6.0,0.0
5376,68.0,0.0,30.0,4.0,0.0
5377,58.0,30.0,60.0,7.0,0.0
5378,70.0,30.0,30.0,4.0,0.0
5379,64.0,0.0,60.0,6.0,0.0
5380,49.0,0.0,60.0,3.0,0.0
5381,68.0,0.0,30.0,4.0,0.0
5382,39.0,30.0,60.0,5.0,0.0
5383,67.0,30.0,30.0,4.0,0.0
5384,51.0,0.0,60.0,3.0,0.0
5385,61.0,0.0,30.0,4.0,0.0
5386,43.0,30.0,30.0,5.0,0.0
5387,52.0,30.0,60.0,3.0,0.0
5388,58.0,0.0,30.0,4.0,0.0
5389,46.0,0.0,30.0,5.0,0.0
5390,61.0,0.0,30.0,4.0,0.0
5391,73.0,30.0,60.0,6.0,0.0
5392,51.0,0.0,60.0,3.0,0.0
5393,51.0,0.0,30.0,7.0,0.0
5394,51.0,0.0,60.0,5.0,0.0
5395,67.0,30.0,30.0,4.0,0.0
5396,52.0,0.0,30.0,7.0,0.0
5397,70.0,0.0,30.0,4.0,0.0
5398,49.0,0.0,60.0,3.0,0.0
5399,67.0,0.0,60.0,6.0,0.0
5400,51.0,30.0,30.0,7.0,0.0
5401,71.0,0.0,30.0,4.0,0.0
5402,70.0,0.0,30.0,4.0,0.0
5403,49.0,30.0,30.0,7.0,0.0
5404,56.0,0.0,60.0,7.0,0.0
5405,47.0,0.0,60.0,7.0,0.0
5406,51.0,1.0,60.0,7.0,0.0
5407,47.0,29.0,30.0,3.0,0.0
5408,63.0,29.0,60.0,0.0,0.0
5409,75.0,29.0,510.0,1.0,0.0
5410,63.0,0.0,60.0,6.0,0.0
5411,68.0,1.0,30.0,4.0,0.0
5412,63.0,0.0,30.0,4.0,0.0
5413,44.0,29.0,30.0,3.0,0.0
5414,44.0,0.0,60.0,7.0,0.0
5415,59.0,1.0,30.0,4.0,0.0
5416,68.0,0.0,60.0,6.0,0.0
5417,68.0,29.0,60.0,0.0,0.0
5418,61.0,1.0,30.0,4.0,0.0
5419,71.0,29.0,60.0,0.0,0.0
5420,71.0,0.0,60.0,6.0,0.0
5421,68.0,0.0,60.0,6.0,0.0
5422,63.0,0.0,60.0,6.0,0.0
5423,63.0,1.0,30.0,4.0,0.0
5424,56.0,29.0,30.0,2.0,0.0
5425,44.0,1.0,60.0,5.0,0.0
5426,47.0,0.0,60.0,5.0,0.0
5427,68.0,0.0,30.0,4.0,0.0
5428,70.0,29.0,60.0,0.0,0.0
5429,70.0,0.0,60.0,6.0,0.0
5430,61.0,1.0,30.0,4.0,0.0
5431,61.0,1.0,60.0,6.0,0.0
5432,46.0,0.0,60.0,5.0,0.0
5433,49.0,0.0,60.0,5.0,0.0
5434,51.0,29.0,30.0,2.0,0.0
5435,67.0,0.0,60.0,6.0,0.0
5436,68.0,0.0,30.0,4.0,0.0
5437,63.0,0.0,60.0,6.0,0.0
5438,63.0,29.0,60.0,0.0,0.0
5439,56.0,0.0,60.0,7.0,0.0
5440,59.0,1.0,60.0,6.0,0.0
5441,56.0,29.0,30.0,3.0,0.0
5442,59.0,1.0,30.0,4.0,0.0
5443,56.0,0.0,30.0,4.0,0.0
5444,51.0,0.0,30.0,4.0,0.0
5445,47.0,0.0,60.0,7.0,0.0
5446,47.0,29.0,30.0,3.0,0.0
5447,68.0,0.0,30.0,0.0,0.0
5448,68.0,1.0,30.0,6.0,0.0
5449,70.0,29.0,30.0,0.0,0.0
5450,55.0,0.0,30.0,4.0,0.0
5451,70.0,1.0,30.0,6.0,0.0
5452,56.0,1.0,30.0,4.0,0.0
5453,47.0,0.0,60.0,5.0,0.0
5454,71.0,0.0,30.0,6.0,0.0
5455,71.0,0.0,30.0,0.0,0.0
5456,68.0,0.0,30.0,6.0,0.0
5457,63.0,29.0,30.0,2.0,0.0
5458,70.0,29.0,30.0,0.0,0.0
5459,51.0,0.0,30.0,4.0,0.0
5460,67.0,1.0,30.0,6.0,0.0
5461,70.0,0.0,30.0,6.0,0.0
5462,44.0,0.0,60.0,5.0,0.0
5463,56.0,0.0,30.0,4.0,0.0
5464,68.0,0.0,30.0,6.0,0.0
5465,71.0,1.0,30.0,6.0,0.0
5466,71.0,0.0,30.0,0.0,0.0
5467,59.0,29.0,30.0,2.0,0.0
5468,51.0,0.0,30.0,4.0,0.0
5469,70.0,30.0,30.0,0.0,0.0
5470,70.0,1.0,30.0,6.0,0.0
5471,67.0,0.0,30.0,6.0,0.0
5472,68.0,1.0,60.0,6.0,0.0
5473,59.0,0.0,60.0,4.0,0.0
5474,59.0,0.0,60.0,7.0,0.0
5475,59.0,0.0,60.0,3.0,0.0
5476,68.0,29.0,60.0,0.0,0.0
5477,68.0,0.0,30.0,1.0,0.0
5478,56.0,0.0,60.0,7.0,0.0
5479,70.0,1.0,30.0,6.0,0.0
5480,44.0,1.0,60.0,5.0,0.0
5481,56.0,0.0,60.0,3.0,0.0
5482,51.0,0.0,30.0,2.0,0.0
5483,63.0,0.0,60.0,4.0,0.0
5484,70.0,0.0,30.0,0.0,0.0
5485,70.0,29.0,30.0,1.0,0.0
5486,71.0,0.0,30.0,0.0,0.0
5487,71.0,29.0,30.0,1.0,0.0
5488,71.0,0.0,30.0,6.0,0.0
5489,73.0,29.0,30.0,0.0,0.0
5490,52.0,0.0,60.0,3.0,0.0
5491,73.0,0.0,30.0,1.0,0.0
5492,54.0,0.0,30.0,2.0,0.0
5493,68.0,0.0,60.0,4.0,0.0
5494,52.0,0.0,60.0,7.0,0.0
5495,40.0,0.0,60.0,5.0,0.0
5496,73.0,1.0,30.0,6.0,0.0
5497,75.0,30.0,30.0,1.0,0.0
5498,75.0,0.0,30.0,0.0,0.0
5499,75.0,1.0,30.0,6.0,0.0
5500,76.0,1.0,60.0,6.0,0.0
5501,76.0,29.0,60.0,0.0,0.0
5502,37.0,0.0,60.0,5.0,0.0
5503,73.0,1.0,90.0,4.0,0.0
5504,76.0,0.0,60.0,1.0,0.0
5505,49.0,0.0,60.0,3.0,0.0
5506,56.0,29.0,30.0,2.0,0.0
5507,49.0,0.0,60.0,7.0,0.0
5508,76.0,0.0,60.0,1.0,0.0
5509,58.0,29.0,60.0,2.0,0.0
5510,76.0,0.0,60.0,6.0,0.0
5511,42.0,29.0,30.0,3.0,0.0
5512,42.0,0.0,60.0,5.0,0.0
5513,76.0,0.0,60.0,0.0,0.0
5514,42.0,0.0,60.0,7.0,0.0
5515,70.0,1.0,30.0,4.0,0.0
5516,46.0,1.0,30.0,5.0,0.0
5517,70.0,0.0,60.0,0.0,0.0
5518,70.0,0.0,60.0,6.0,0.0
5519,54.0,0.0,60.0,7.0,0.0
5520,66.0,0.0,30.0,4.0,0.0
5521,61.0,29.0,60.0,2.0,0.0
5522,54.0,29.0,30.0,3.0,0.0
5523,70.0,0.0,60.0,1.0,0.0
5524,49.0,0.0,30.0,5.0,0.0
5525,70.0,1.0,30.0,4.0,0.0
5526,54.0,1.0,60.0,5.0,0.0
5527,61.0,30.0,30.0,4.0,0.0
5528,58.0,29.0,60.0,2.0,0.0
5529,66.0,0.0,30.0,4.0,0.0
5530,54.0,29.0,60.0,2.0,0.0
5531,68.0,30.0,30.0,4.0,0.0
5532,66.0,1.0,30.0,4.0,0.0
5533,64.0,1.0,30.0,4.0,0.0
5534,46.0,29.0,30.0,3.0,0.0
5535,49.0,1.0,60.0,7.0,0.0
5536,46.0,0.0,60.0,7.0,0.0
5537,54.0,0.0,60.0,7.0,0.0
5538,61.0,0.0,60.0,6.0,0.0
5539,61.0,29.0,60.0,0.0,0.0
5540,73.0,29.0,510.0,1.0,0.0
5541,61.0,0.0,30.0,4.0,0.0
5542,66.0,29.0,60.0,0.0,0.0
5543,42.0,0.0,60.0,7.0,0.0
5544,42.0,29.0,30.0,3.0,0.0
5545,66.0,0.0,60.0,6.0,0.0
5546,58.0,1.0,30.0,4.0,0.0
5547,59.0,1.0,30.0,4.0,0.0
5548,54.0,29.0,30.0,2.0,0.0
5549,70.0,29.0,60.0,0.0,0.0
5550,46.0,0.0,60.0,5.0,0.0
5551,42.0,0.0,60.0,5.0,0.0
5552,61.0,1.0,30.0,4.0,0.0
5553,66.0,1.0,60.0,6.0,0.0
5554,70.0,0.0,60.0,6.0,0.0
5555,64.0,0.0,30.0,4.0,0.0
5556,61.0,0.0,60.0,6.0,0.0
5557,68.0,0.0,60.0,6.0,0.0
5558,68.0,29.0,60.0,0.0,0.0
5559,44.0,0.0,60.0,5.0,0.0
5560,47.0,1.0,60.0,5.0,0.0
5561,59.0,1.0,30.0,4.0,0.0
5562,49.0,29.0,30.0,2.0,0.0
5563,64.0,0.0,30.0,4.0,0.0
5564,54.0,1.0,60.0,7.0,0.0
5565,61.0,0.0,60.0,6.0,0.0
5566,58.0,0.0,60.0,6.0,0.0
5567,61.0,29.0,60.0,0.0,0.0
5568,54.0,29.0,30.0,3.0,0.0
5569,58.0,1.0,30.0,4.0,0.0
5570,66.0,0.0,30.0,4.0,0.0
5571,46.0,0.0,60.0,7.0,0.0
5572,66.0,29.0,30.0,0.0,0.0
5573,46.0,0.0,30.0,3.0,0.0
5574,61.0,0.0,30.0,4.0,0.0
5575,66.0,1.0,30.0,6.0,0.0
5576,65.0,1.0,30.0,4.0,0.0
5577,68.0,29.0,30.0,0.0,0.0
5578,68.0,0.0,30.0,6.0,0.0
5579,61.0,0.0,30.0,2.0,0.0
5580,46.0,1.0,60.0,5.0,0.0
5581,70.0,29.0,30.0,0.0,0.0
5582,70.0,0.0,30.0,6.0,0.0
5583,66.0,1.0,30.0,4.0,0.0
5584,61.0,0.0,30.0,4.0,0.0
5585,68.0,29.0,30.0,0.0,0.0
5586,68.0,0.0,30.0,6.0,0.0
5587,70.0,29.0,30.0,0.0,0.0
5588,58.0,0.0,30.0,2.0,0.0
5589,42.0,1.0,60.0,5.0,0.0
5590,70.0,0.0,30.0,6.0,0.0
5591,66.0,1.0,30.0,4.0,0.0
5592,61.0,0.0,30.0,4.0,0.0
5593,68.0,0.0,30.0,6.0,0.0
5594,68.0,30.0,30.0,0.0,0.0
5595,66.0,0.0,60.0,6.0,0.0
5596,58.0,1.0,60.0,3.0,0.0
5597,66.0,29.0,60.0,0.0,0.0
5598,58.0,0.0,60.0,7.0,0.0
5599,58.0,0.0,60.0,4.0,0.0
5600,66.0,0.0,30.0,1.0,0.0
5601,54.0,0.0,60.0,7.0,0.0
5602,49.0,0.0,30.0,2.0,0.0
5603,68.0,0.0,30.0,1.0,0.0
5604,61.0,0.0,60.0,4.0,0.0
5605,68.0,29.0,30.0,0.0,0.0
5606,68.0,1.0,30.0,6.0,0.0
5607,42.0,1.0,60.0,5.0,0.0
5608,54.0,0.0,60.0,3.0,0.0
5609,70.0,0.0,30.0,6.0,0.0
5610,70.0,29.0,30.0,1.0,0.0
5611,70.0,0.0,30.0,0.0,0.0
5612,71.0,1.0,30.0,6.0,0.0
5613,51.0,0.0,60.0,7.0,0.0
5614,66.0,0.0,60.0,4.0,0.0
5615,39.0,0.0,60.0,5.0,0.0
5616,71.0,0.0,30.0,0.0,0.0
5617,51.0,0.0,30.0,2.0,0.0
5618,51.0,0.0,60.0,3.0,0.0
5619,71.0,29.0,30.0,1.0,0.0
5620,73.0,0.0,30.0,0.0,0.0
5621,73.0,1.0,30.0,6.0,0.0
5622,73.0,30.0,30.0,1.0,0.0
5623,71.0,1.0,90.0,4.0,0.0
5624,75.0,0.0,60.0,0.0,0.0
5625,35.0,1.0,60.0,5.0,0.0
5626,54.0,29.0,30.0,2.0,0.0
5627,75.0,0.0,60.0,6.0,0.0
5628,47.0,0.0,60.0,3.0,0.0
5629,47.0,0.0,60.0,7.0,0.0
5630,40.0,0.0,60.0,5.0,0.0
5631,75.0,29.0,15.0,1.0,0.0
5632,75.0,0.0,60.0,0.0,0.0
5633,75.0,0.0,60.0,6.0,0.0
5634,40.0,29.0,30.0,3.0,0.0
5635,40.0,0.0,60.0,7.0,0.0
5636,56.0,29.0,60.0,2.0,0.0
5637,68.0,1.0,30.0,4.0,0.0
5638,68.0,0.0,60.0,1.0,0.0
5639,44.0,0.0,30.0,5.0,0.0
5640,64.0,1.0,30.0,4.0,0.0
5641,68.0,29.0,60.0,0.0,0.0
5642,52.0,29.0,30.0,3.0,0.0
5643,59.0,0.0,60.0,2.0,0.0
5644,68.0,0.0,60.0,6.0,0.0
5645,52.0,1.0,60.0,7.0,0.0
5646,68.0,0.0,30.0,4.0,0.0
5647,47.0,0.0,30.0,5.0,0.0
5648,52.0,1.0,60.0,5.0,0.0
5649,71.0,30.0,30.0,4.0,0.0
5650,56.0,29.0,60.0,2.0,0.0
5651,75.0,0.0,30.0,4.0,0.0
5652,52.0,29.0,60.0,2.0,0.0
5653,76.0,30.0,30.0,4.0,0.0
5654,75.0,1.0,30.0,4.0,0.0
5655,73.0,0.0,60.0,4.0,0.0
5656,52.0,0.0,60.0,7.0,0.0
5657,80.0,1.0,30.0,6.0,0.0
5658,80.0,29.0,30.0,0.0,0.0
5659,78.0,1.0,30.0,6.0,0.0
5660,78.0,29.0,30.0,0.0,0.0
5661,61.0,0.0,60.0,7.0,0.0
5662,80.0,0.0,30.0,4.0,0.0
5663,76.0,29.0,30.0,0.0,0.0
5664,49.0,0.0,60.0,5.0,0.0
5665,76.0,1.0,30.0,6.0,0.0
5666,75.0,0.0,30.0,6.0,0.0
5667,75.0,29.0,30.0,0.0,0.0
5668,78.0,1.0,30.0,4.0,0.0
5669,68.0,29.0,30.0,1.0,0.0
5670,76.0,1.0,30.0,4.0,0.0
5671,73.0,0.0,60.0,6.0,0.0
5672,52.0,1.0,60.0,5.0,0.0
5673,75.0,0.0,30.0,4.0,0.0
5674,66.0,0.0,30.0,1.0,0.0
5675,73.0,1.0,30.0,4.0,0.0
5676,64.0,29.0,30.0,1.0,0.0
5677,73.0,0.0,60.0,6.0,0.0
5678,73.0,29.0,15.0,0.0,0.0
5679,56.0,1.0,60.0,5.0,0.0
5680,63.0,0.0,30.0,1.0,0.0
5681,72.0,0.0,30.0,4.0,0.0
5682,73.0,1.0,30.0,4.0,0.0
5683,73.0,1.0,120.0,6.0,0.0
5684,40.0,0.0,30.0,3.0,0.0
5685,61.0,0.0,60.0,1.0,0.0
5686,61.0,0.0,60.0,5.0,0.0
5687,73.0,29.0,15.0,0.0,0.0
5688,56.0,29.0,30.0,2.0,0.0
5689,69.0,1.0,30.0,4.0,0.0
5690,54.0,29.0,30.0,2.0,0.0
5691,68.0,1.0,30.0,4.0,0.0
5692,49.0,0.0,30.0,3.0,0.0
5693,49.0,0.0,60.0,5.0,0.0
5694,61.0,0.0,60.0,7.0,0.0
5695,52.0,29.0,30.0,2.0,0.0
5696,66.0,0.0,30.0,4.0,0.0
5697,51.0,29.0,30.0,2.0,0.0
5698,64.0,1.0,30.0,4.0,0.0
5699,49.0,0.0,60.0,2.0,0.0
5700,56.0,0.0,60.0,7.0,0.0
5701,63.0,0.0,30.0,4.0,0.0
5702,68.0,1.0,30.0,6.0,0.0
5703,68.0,29.0,30.0,0.0,0.0
5704,73.0,1.0,30.0,6.0,0.0
5705,73.0,29.0,30.0,0.0,0.0
5706,52.0,1.0,60.0,7.0,0.0
5707,61.0,0.0,30.0,4.0,0.0
5708,75.0,0.0,30.0,6.0,0.0
5709,60.0,0.0,30.0,4.0,0.0
5710,75.0,29.0,30.0,0.0,0.0
5711,76.0,1.0,30.0,6.0,0.0
5712,61.0,0.0,60.0,4.0,0.0
5713,76.0,29.0,30.0,0.0,0.0
5714,49.0,0.0,60.0,7.0,0.0
5715,75.0,29.0,30.0,0.0,0.0
5716,75.0,1.0,30.0,6.0,0.0
5717,49.0,1.0,60.0,5.0,0.0
5718,57.0,0.0,60.0,7.0,0.0
5719,73.0,29.0,30.0,0.0,0.0
5720,73.0,1.0,30.0,6.0,0.0
5721,76.0,0.0,30.0,4.0,0.0
5722,75.0,0.0,30.0,4.0,0.0
5723,71.0,0.0,30.0,6.0,0.0
5724,71.0,29.0,30.0,0.0,0.0
5725,64.0,29.0,30.0,1.0,0.0
5726,69.0,0.0,60.0,0.0,0.0
5727,52.0,0.0,60.0,5.0,0.0
5728,73.0,1.0,30.0,4.0,0.0
5729,69.0,1.0,60.0,6.0,0.0
5730,62.0,29.0,30.0,1.0,0.0
5731,71.0,0.0,30.0,4.0,0.0
5732,57.0,1.0,60.0,5.0,0.0
5733,69.0,1.0,30.0,4.0,0.0
5734,69.0,0.0,60.0,6.0,0.0
5735,61.0,29.0,30.0,1.0,0.0
5736,59.0,0.0,30.0,1.0,0.0
5737,68.0,0.0,30.0,4.0,0.0
5738,57.0,29.0,60.0,1.0,0.0
5739,69.0,29.0,15.0,0.0,0.0
5740,61.0,0.0,60.0,5.0,0.0
5741,69.0,0.0,120.0,6.0,0.0
5742,69.0,1.0,30.0,4.0,0.0
5743,52.0,0.0,30.0,2.0,0.0
5744,37.0,29.0,30.0,3.0,0.0
5745,66.0,1.0,30.0,4.0,0.0
5746,50.0,0.0,30.0,2.0,0.0
5747,57.0,0.0,60.0,7.0,0.0
5748,64.0,1.0,30.0,4.0,0.0
5749,49.0,29.0,30.0,2.0,0.0
5750,45.0,0.0,30.0,3.0,0.0
5751,49.0,0.0,60.0,5.0,0.0
5752,47.0,0.0,30.0,2.0,0.0
5753,63.0,1.0,30.0,4.0,0.0
5754,45.0,29.0,60.0,2.0,0.0
5755,61.0,30.0,30.0,4.0,0.0
5756,52.0,0.0,60.0,7.0,0.0
5757,59.0,1.0,30.0,4.0,0.0
5758,64.0,0.0,30.0,6.0,0.0
5759,69.0,0.0,30.0,6.0,0.0
5760,57.0,30.0,30.0,4.0,0.0
5761,49.0,0.0,60.0,7.0,0.0
5762,56.0,0.0,30.0,4.0,0.0
5763,71.0,30.0,30.0,6.0,0.0
5764,45.0,0.0,60.0,7.0,0.0
5765,73.0,0.0,30.0,6.0,0.0
5766,57.0,30.0,30.0,4.0,0.0
5767,59.0,30.0,30.0,4.0,0.0
5768,75.0,0.0,30.0,6.0,0.0
5769,44.0,30.0,60.0,5.0,0.0
5770,61.0,30.0,30.0,4.0,0.0
5771,44.0,0.0,60.0,7.0,0.0
5772,76.0,0.0,30.0,6.0,0.0
5773,75.0,0.0,30.0,6.0,0.0
5774,63.0,0.0,30.0,4.0,0.0
5775,43.0,0.0,60.0,7.0,0.0
5776,64.0,29.0,30.0,1.0,0.0
5777,64.0,0.0,60.0,4.0,0.0
5778,73.0,1.0,30.0,6.0,0.0
5779,49.0,0.0,60.0,5.0,0.0
5780,71.0,1.0,30.0,6.0,0.0
5781,63.0,29.0,30.0,1.0,0.0
5782,64.0,1.0,90.0,4.0,0.0
5783,61.0,29.0,30.0,1.0,0.0
5784,52.0,0.0,60.0,5.0,0.0
5785,44.0,0.0,60.0,7.0,0.0
5786,70.0,1.0,30.0,6.0,0.0
5787,59.0,29.0,30.0,1.0,0.0
5788,68.0,1.0,30.0,6.0,0.0
5789,61.0,29.0,60.0,1.0,0.0
5790,46.0,0.0,60.0,7.0,0.0
5791,46.0,0.0,60.0,5.0,0.0
5792,58.0,29.0,30.0,2.0,0.0
5793,34.0,0.0,60.0,3.0,0.0
5794,67.0,1.0,60.0,6.0,0.0
5795,76.0,0.0,30.0,4.0,0.0
5796,56.0,0.0,30.0,2.0,0.0
5797,75.0,0.0,60.0,0.0,0.0
5798,43.0,0.0,60.0,3.0,0.0
5799,55.0,0.0,60.0,7.0,0.0
5800,55.0,29.0,30.0,2.0,0.0
5801,75.0,0.0,60.0,6.0,0.0
5802,55.0,0.0,60.0,5.0,0.0
5803,58.0,0.0,60.0,1.0,0.0
5804,75.0,1.0,30.0,4.0,0.0
5805,73.0,1.0,30.0,4.0,0.0
5806,53.0,29.0,30.0,2.0,0.0
5807,51.0,29.0,60.0,2.0,0.0
5808,59.0,0.0,60.0,1.0,0.0
5809,71.0,30.0,30.0,4.0,0.0
5810,56.0,0.0,60.0,5.0,0.0
5811,44.0,0.0,60.0,3.0,0.0
5812,68.0,1.0,60.0,6.0,0.0
5813,68.0,0.0,60.0,0.0,0.0
5814,56.0,0.0,60.0,7.0,0.0
5815,70.0,0.0,30.0,4.0,0.0
5816,52.0,0.0,60.0,5.0,0.0
5817,68.0,30.0,30.0,4.0,0.0
5818,52.0,0.0,60.0,7.0,0.0
5819,61.0,0.0,60.0,1.0,0.0
5820,73.0,1.0,60.0,6.0,0.0
5821,73.0,59.0,60.0,0.0,0.0
5822,52.0,0.0,60.0,3.0,0.0
5823,44.0,0.0,60.0,2.0,0.0
5824,67.0,0.0,30.0,4.0,0.0
5825,71.0,29.0,90.0,0.0,0.0
5826,71.0,0.0,90.0,6.0,0.0
5827,51.0,0.0,60.0,5.0,0.0
5828,68.0,1.0,90.0,4.0,0.0
5829,47.0,0.0,60.0,2.0,0.0
5830,63.0,29.0,60.0,1.0,0.0
5831,51.0,0.0,60.0,3.0,0.0
5832,51.0,1.0,60.0,7.0,0.0
5833,49.0,0.0,60.0,3.0,0.0
5834,49.0,0.0,60.0,5.0,0.0
5835,44.0,15.0,60.0,2.0,0.0
5836,64.0,0.0,60.0,1.0,0.0
5837,49.0,0.0,60.0,7.0,0.0
5838,70.0,1.0,30.0,4.0,0.0
5839,70.0,0.0,30.0,6.0,0.0
5840,70.0,0.0,15.0,0.0,0.0
5841,51.0,0.0,60.0,5.0,0.0
5842,51.0,0.0,60.0,3.0,0.0
5843,70.0,0.0,15.0,6.0,0.0
5844,51.0,1.0,60.0,7.0,0.0
5845,67.0,15.0,15.0,4.0,0.0
5846,51.0,0.0,60.0,2.0,0.0
5847,63.0,30.0,60.0,1.0,0.0
5848,68.0,0.0,15.0,4.0,0.0
5849,71.0,29.0,15.0,6.0,0.0
5850,67.0,29.0,60.0,4.0,0.0
5851,70.0,0.0,60.0,6.0,0.0
5852,39.0,0.0,60.0,7.0,0.0
5853,63.0,0.0,60.0,2.0,0.0
5854,39.0,0.0,60.0,5.0,0.0
5855,39.0,1.0,60.0,3.0,0.0
5856,68.0,0.0,30.0,4.0,0.0
5857,68.0,30.0,30.0,0.0,0.0
5858,68.0,0.0,30.0,6.0,0.0
5859,62.0,0.0,120.0,2.0,0.0
5860,68.0,0.0,60.0,6.0,0.0
5861,46.0,1.0,60.0,5.0,0.0
5862,46.0,0.0,60.0,7.0,0.0
5863,34.0,29.0,30.0,3.0,0.0
5864,68.0,29.0,120.0,0.0,0.0
5865,68.0,1.0,120.0,4.0,0.0
5866,58.0,29.0,15.0,1.0,0.0
5867,46.0,0.0,30.0,3.0,0.0
5868,62.0,1.0,30.0,6.0,0.0
5869,34.0,0.0,60.0,5.0,0.0
5870,53.0,0.0,60.0,7.0,0.0
5871,60.0,0.0,30.0,1.0,0.0
5872,63.0,0.0,30.0,6.0,0.0
5873,65.0,1.0,30.0,6.0,0.0
5874,62.0,29.0,30.0,1.0,0.0
5875,50.0,1.0,60.0,7.0,0.0
5876,63.0,29.0,30.0,1.0,0.0
5877,66.0,0.0,30.0,6.0,0.0
5878,46.0,0.0,60.0,7.0,0.0
5879,58.0,1.0,30.0,4.0,0.0
5880,65.0,29.0,60.0,1.0,0.0
5881,58.0,29.0,30.0,0.0,0.0
5882,68.0,0.0,60.0,6.0,0.0
5883,60.0,0.0,30.0,0.0,0.0
5884,60.0,1.0,30.0,4.0,0.0
5885,34.0,29.0,30.0,3.0,0.0
5886,58.0,0.0,30.0,2.0,0.0
5887,41.0,0.0,60.0,7.0,0.0
5888,62.0,1.0,30.0,4.0,0.0
5889,62.0,0.0,30.0,0.0,0.0
5890,68.0,1.0,60.0,6.0,0.0
5891,63.0,0.0,30.0,4.0,0.0
5892,63.0,29.0,30.0,0.0,0.0
5893,60.0,0.0,30.0,2.0,0.0
5894,53.0,0.0,60.0,5.0,0.0
5895,65.0,1.0,30.0,4.0,0.0
5896,62.0,29.0,30.0,2.0,0.0
5897,46.0,0.0,30.0,3.0,0.0
5898,65.0,0.0,30.0,0.0,0.0
5899,62.0,0.0,60.0,6.0,0.0
5900,46.0,1.0,60.0,7.0,0.0
5901,66.0,0.0,30.0,0.0,0.0
5902,63.0,30.0,30.0,2.0,0.0
5903,66.0,0.0,30.0,4.0,0.0
5904,68.0,0.0,60.0,4.0,0.0
5905,41.0,1.0,60.0,7.0,0.0
5906,68.0,0.0,60.0,0.0,0.0
5907,50.0,0.0,60.0,5.0,0.0
5908,62.0,29.0,30.0,1.0,0.0
5909,65.0,0.0,60.0,2.0,0.0
5910,63.0,30.0,30.0,1.0,0.0
5911,46.0,0.0,60.0,5.0,0.0
5912,44.0,1.0,60.0,7.0,0.0
5913,62.0,29.0,60.0,0.0,0.0
5914,62.0,0.0,60.0,4.0,0.0
5915,65.0,29.0,30.0,1.0,0.0
5916,66.0,0.0,30.0,1.0,0.0
5917,68.0,29.0,60.0,1.0,0.0
5918,34.0,0.0,60.0,7.0,0.0
5919,62.0,1.0,30.0,6.0,0.0
5920,58.0,0.0,30.0,2.0,0.0
5921,34.0,29.0,30.0,3.0,0.0
5922,41.0,0.0,60.0,5.0,0.0
5923,60.0,0.0,30.0,2.0,0.0
5924,63.0,1.0,30.0,6.0,0.0
5925,62.0,0.0,30.0,2.0,0.0
5926,65.0,1.0,30.0,6.0,0.0
5927,46.0,0.0,60.0,5.0,0.0
5928,46.0,29.0,30.0,3.0,0.0
5929,63.0,29.0,30.0,2.0,0.0
5930,66.0,0.0,30.0,6.0,0.0
5931,58.0,1.0,30.0,7.0,0.0
5932,41.0,0.0,60.0,5.0,0.0
5933,68.0,0.0,30.0,6.0,0.0
5934,56.0,1.0,30.0,7.0,0.0
5935,62.0,29.0,30.0,1.0,0.0
5936,65.0,29.0,60.0,2.0,0.0
5937,54.0,0.0,30.0,7.0,0.0
5938,70.0,1.0,30.0,6.0,0.0
5939,63.0,0.0,30.0,1.0,0.0
5940,44.0,0.0,60.0,5.0,0.0
5941,65.0,29.0,30.0,1.0,0.0
5942,71.0,0.0,60.0,6.0,0.0
5943,62.0,0.0,30.0,0.0,0.0
5944,62.0,1.0,30.0,4.0,0.0
5945,53.0,0.0,30.0,7.0,0.0
5946,63.0,29.0,30.0,0.0,0.0
5947,51.0,1.0,30.0,7.0,0.0
5948,66.0,0.0,30.0,1.0,0.0
5949,63.0,0.0,30.0,4.0,0.0
5950,65.0,29.0,30.0,0.0,0.0
5951,46.0,0.0,30.0,3.0,0.0
5952,68.0,0.0,60.0,1.0,0.0
5953,71.0,0.0,60.0,6.0,0.0
5954,65.0,1.0,30.0,4.0,0.0
5955,34.0,1.0,60.0,5.0,0.0
5956,50.0,0.0,60.0,7.0,0.0
5957,66.0,0.0,30.0,4.0,0.0
5958,66.0,29.0,30.0,0.0,0.0
5959,68.0,0.0,30.0,0.0,0.0
5960,46.0,0.0,60.0,7.0,0.0
5961,58.0,1.0,60.0,5.0,0.0
5962,58.0,29.0,30.0,3.0,0.0
5963,65.0,0.0,60.0,6.0,0.0
5964,68.0,1.0,30.0,4.0,0.0
5965,70.0,29.0,30.0,0.0,0.0
5966,70.0,0.0,30.0,4.0,0.0
5967,71.0,30.0,30.0,4.0,0.0
5968,53.0,0.0,60.0,3.0,0.0
5969,68.0,0.0,60.0,6.0,0.0
5970,41.0,1.0,60.0,7.0,0.0
5971,71.0,29.0,60.0,0.0,0.0
5972,53.0,0.0,60.0,5.0,0.0
5973,68.0,0.0,30.0,4.0,0.0
5974,65.0,30.0,30.0,4.0,0.0
5975,62.0,0.0,60.0,6.0,0.0
5976,65.0,29.0,60.0,0.0,0.0
5977,44.0,0.0,60.0,7.0,0.0
5978,56.0,0.0,60.0,3.0,0.0
5979,56.0,0.0,60.0,5.0,0.0
5980,66.0,1.0,30.0,4.0,0.0
5981,65.0,0.0,60.0,6.0,0.0
5982,50.0,30.0,60.0,5.0,0.0
5983,68.0,30.0,30.0,4.0,0.0
5984,38.0,0.0,60.0,7.0,0.0
5985,50.0,0.0,60.0,3.0,0.0
5986,65.0,0.0,30.0,4.0,0.0
5987,53.0,0.0,60.0,3.0,0.0
5988,68.0,0.0,30.0,2.0,0.0
5989,62.0,0.0,30.0,4.0,0.0
5990,65.0,29.0,30.0,1.0,0.0
5991,68.0,1.0,30.0,6.0,0.0
5992,41.0,0.0,60.0,7.0,0.0
5993,53.0,0.0,60.0,5.0,0.0
5994,63.0,30.0,30.0,4.0,0.0
5995,71.0,0.0,30.0,6.0,0.0
5996,65.0,0.0,60.0,4.0,0.0
5997,34.0,30.0,60.0,7.0,0.0
5998,65.0,29.0,30.0,2.0,0.0
5999,46.0,0.0,60.0,3.0,0.0
6000,62.0,0.0,30.0,1.0,0.0
6001,46.0,0.0,60.0,5.0,0.0
6002,70.0,1.0,30.0,6.0,0.0
6003,68.0,0.0,30.0,6.0,0.0
6004,58.0,0.0,30.0,2.0,0.0
6005,38.0,0.0,60.0,7.0,0.0
6006,58.0,0.0,60.0,4.0,0.0
6007,50.0,0.0,60.0,3.0,0.0
6008,70.0,29.0,30.0,1.0,0.0
6009,66.0,1.0,30.0,6.0,0.0
6010,50.0,30.0,60.0,5.0,0.0
6011,65.0,0.0,30.0,6.0,0.0
6012,58.0,0.0,60.0,2.0,0.0
6013,63.0,0.0,60.0,4.0,0.0
6014,39.0,0.0,60.0,7.0,0.0
6015,67.0,29.0,60.0,1.0,0.0
6016,51.0,0.0,60.0,3.0,0.0
6017,39.0,30.0,30.0,5.0,0.0
6018,67.0,1.0,60.0,6.0,0.0
6019,63.0,0.0,60.0,0.0,0.0
6020,51.0,0.0,30.0,5.0,0.0
6021,61.0,0.0,60.0,2.0,0.0
6022,70.0,0.0,60.0,0.0,0.0
6023,46.0,0.0,60.0,3.0,0.0
6024,51.0,1.0,60.0,7.0,0.0
6025,70.0,0.0,60.0,4.0,0.0
6026,63.0,0.0,60.0,6.0,0.0
6027,49.0,30.0,30.0,5.0,0.0
6028,67.0,29.0,60.0,1.0,0.0
6029,47.0,0.0,30.0,5.0,0.0
6030,73.0,0.0,60.0,4.0,0.0
6031,73.0,0.0,60.0,0.0,0.0
6032,43.0,1.0,60.0,3.0,0.0
6033,64.0,0.0,60.0,4.0,0.0
6034,64.0,29.0,60.0,2.0,0.0
6035,46.0,30.0,30.0,5.0,0.0
6036,70.0,0.0,60.0,1.0,0.0
6037,55.0,0.0,30.0,5.0,0.0
6038,63.0,29.0,60.0,2.0,0.0
6039,71.0,0.0,60.0,0.0,0.0
6040,68.0,0.0,60.0,1.0,0.0
6041,44.0,1.0,60.0,3.0,0.0
6042,47.0,30.0,30.0,5.0,0.0
6043,71.0,0.0,60.0,4.0,0.0
6044,63.0,0.0,60.0,4.0,0.0
6045,56.0,0.0,30.0,5.0,0.0
6046,63.0,29.0,60.0,0.0,0.0
6047,49.0,30.0,30.0,5.0,0.0
6048,58.0,0.0,60.0,1.0,0.0
6049,49.0,0.0,30.0,3.0,0.0
6050,55.0,0.0,60.0,2.0,0.0
6051,63.0,0.0,60.0,4.0,0.0
6052,55.0,1.0,30.0,5.0,0.0
6053,47.0,0.0,30.0,3.0,0.0
6054,70.0,29.0,30.0,0.0,0.0
6055,61.0,0.0,30.0,2.0,0.0
6056,67.0,0.0,30.0,1.0,0.0
6057,49.0,1.0,30.0,5.0,0.0
6058,46.0,0.0,30.0,3.0,0.0
6059,70.0,0.0,30.0,4.0,0.0
6060,47.0,1.0,30.0,5.0,0.0
6061,68.0,29.0,30.0,1.0,0.0
6062,71.0,0.0,30.0,4.0,0.0
6063,63.0,0.0,30.0,2.0,0.0
6064,44.0,0.0,30.0,3.0,0.0
6065,71.0,0.0,30.0,0.0,0.0
6066,43.0,1.0,60.0,3.0,0.0
6067,64.0,0.0,30.0,2.0,0.0
6068,73.0,0.0,30.0,4.0,0.0
6069,73.0,29.0,30.0,0.0,0.0
6070,46.0,1.0,30.0,5.0,0.0
6071,70.0,0.0,30.0,1.0,0.0
6072,63.0,29.0,30.0,2.0,0.0
6073,71.0,0.0,30.0,4.0,0.0
6074,51.0,0.0,30.0,5.0,0.0
6075,68.0,0.0,30.0,1.0,0.0
6076,71.0,0.0,30.0,0.0,0.0
6077,44.0,0.0,60.0,3.0,0.0
6078,70.0,0.0,30.0,1.0,0.0
6079,64.0,29.0,30.0,2.0,0.0
6080,44.0,0.0,30.0,5.0,0.0
6081,73.0,0.0,30.0,0.0,0.0
6082,73.0,1.0,30.0,4.0,0.0
6083,56.0,1.0,30.0,5.0,0.0
6084,68.0,29.0,30.0,1.0,0.0
6085,71.0,0.0,30.0,4.0,0.0
6086,63.0,0.0,30.0,2.0,0.0
6087,71.0,0.0,30.0,0.0,0.0
6088,39.0,0.0,60.0,3.0,0.0
6089,51.0,0.0,30.0,5.0,0.0
6090,70.0,0.0,30.0,0.0,0.0
6091,67.0,0.0,30.0,1.0,0.0
6092,61.0,29.0,30.0,2.0,0.0
6093,70.0,1.0,30.0,4.0,0.0
6094,65.0,29.0,30.0,1.0,0.0
6095,68.0,1.0,30.0,4.0,0.0
6096,63.0,0.0,30.0,5.0,0.0
6097,59.0,0.0,30.0,2.0,0.0
6098,68.0,0.0,30.0,0.0,0.0
6099,58.0,29.0,30.0,2.0,0.0
6100,51.0,0.0,60.0,3.0,0.0
6101,70.0,0.0,30.0,4.0,0.0
6102,67.0,0.0,30.0,1.0,0.0
6103,70.0,0.0,30.0,0.0,0.0
6104,61.0,1.0,30.0,5.0,0.0
6105,68.0,0.0,30.0,1.0,0.0
6106,56.0,29.0,30.0,2.0,0.0
6107,71.0,0.0,30.0,0.0,0.0
6108,71.0,0.0,30.0,4.0,0.0
6109,59.0,1.0,30.0,5.0,0.0
6110,46.0,0.0,60.0,3.0,0.0
6111,55.0,0.0,60.0,2.0,0.0
6112,73.0,1.0,30.0,4.0,0.0
6113,58.0,0.0,30.0,5.0,0.0
6114,70.0,0.0,30.0,1.0,0.0
6115,73.0,29.0,30.0,0.0,0.0
6116,75.0,1.0,30.0,4.0,0.0
6117,75.0,29.0,30.0,0.0,0.0
6118,56.0,0.0,30.0,5.0,0.0
6119,71.0,0.0,30.0,1.0,0.0
6120,58.0,0.0,60.0,2.0,0.0
6121,76.0,1.0,60.0,4.0,0.0
6122,55.0,30.0,30.0,5.0,0.0
6123,43.0,0.0,60.0,3.0,0.0
6124,73.0,0.0,120.0,1.0,0.0
6125,76.0,29.0,60.0,0.0,0.0
6126,56.0,0.0,30.0,5.0,0.0
6127,58.0,1.0,30.0,5.0,0.0
6128,63.0,0.0,30.0,6.0,0.0
6129,67.0,0.0,60.0,4.0,0.0
6130,67.0,29.0,60.0,0.0,0.0
6131,58.0,29.0,120.0,2.0,0.0
6132,39.0,29.0,30.0,3.0,0.0
6133,56.0,1.0,30.0,5.0,0.0
6134,65.0,0.0,30.0,6.0,0.0
6135,58.0,0.0,60.0,7.0,0.0
6136,55.0,1.0,30.0,5.0,0.0
6137,51.0,29.0,30.0,3.0,0.0
6138,67.0,0.0,30.0,6.0,0.0
6139,63.0,0.0,30.0,1.0,0.0
6140,63.0,0.0,60.0,4.0,0.0
6141,58.0,0.0,60.0,0.0,0.0
6142,65.0,0.0,30.0,1.0,0.0
6143,68.0,0.0,30.0,6.0,0.0
6144,53.0,1.0,30.0,5.0,0.0
6145,70.0,1.0,30.0,6.0,0.0
6146,55.0,0.0,60.0,7.0,0.0
6147,51.0,0.0,60.0,5.0,0.0
6148,67.0,29.0,30.0,1.0,0.0
6149,68.0,29.0,30.0,1.0,0.0
6150,71.0,1.0,30.0,6.0,0.0
6151,63.0,29.0,30.0,0.0,0.0
6152,73.0,0.0,60.0,6.0,0.0
6153,51.0,0.0,60.0,7.0,0.0
6154,70.0,0.0,60.0,1.0,0.0
6155,63.0,1.0,30.0,4.0,0.0
6156,65.0,1.0,30.0,4.0,0.0
6157,65.0,29.0,30.0,0.0,0.0
6158,67.0,0.0,30.0,0.0,0.0
6159,39.0,29.0,30.0,3.0,0.0
6160,73.0,0.0,60.0,6.0,0.0
6161,67.0,1.0,30.0,4.0,0.0
6162,46.0,0.0,60.0,7.0,0.0
6163,51.0,0.0,30.0,2.0,0.0
6164,68.0,1.0,30.0,4.0,0.0
6165,53.0,29.0,30.0,2.0,0.0
6166,68.0,0.0,30.0,0.0,0.0
6167,58.0,0.0,60.0,5.0,0.0
6168,70.0,0.0,30.0,0.0,0.0
6169,70.0,1.0,30.0,4.0,0.0
6170,51.0,0.0,60.0,7.0,0.0
6171,51.0,29.0,30.0,3.0,0.0
6172,67.0,0.0,60.0,6.0,0.0
6173,55.0,0.0,30.0,2.0,0.0
6174,71.0,30.0,30.0,0.0,0.0
6175,56.0,0.0,30.0,2.0,0.0
6176,71.0,1.0,30.0,4.0,0.0
6177,55.0,1.0,60.0,5.0,0.0
6178,58.0,30.0,60.0,2.0,0.0
6179,73.0,0.0,60.0,0.0,0.0
6180,67.0,29.0,30.0,1.0,0.0
6181,46.0,0.0,60.0,7.0,0.0
6182,73.0,0.0,60.0,4.0,0.0
6183,68.0,0.0,30.0,1.0,0.0
6184,67.0,0.0,60.0,4.0,0.0
6185,70.0,29.0,30.0,1.0,0.0
6186,49.0,0.0,60.0,7.0,0.0
6187,67.0,29.0,60.0,0.0,0.0
6188,51.0,1.0,60.0,5.0,0.0
6189,71.0,0.0,30.0,1.0,0.0
6190,39.0,0.0,30.0,3.0,0.0
6191,46.0,1.0,60.0,5.0,0.0
6192,67.0,1.0,30.0,6.0,0.0
6193,73.0,29.0,60.0,1.0,0.0
6194,39.0,0.0,90.0,7.0,0.0
6195,51.0,29.0,30.0,2.0,0.0
6196,68.0,0.0,30.0,6.0,0.0
6197,53.0,0.0,30.0,2.0,0.0
6198,70.0,1.0,30.0,6.0,0.0
6199,55.0,29.0,30.0,2.0,0.0
6200,51.0,0.0,60.0,5.0,0.0
6201,51.0,0.0,30.0,3.0,0.0
6202,56.0,29.0,30.0,2.0,0.0
6203,71.0,1.0,30.0,6.0,0.0
6204,63.0,0.0,30.0,7.0,0.0
6205,46.0,1.0,60.0,5.0,0.0
6206,67.0,29.0,30.0,1.0,0.0
6207,61.0,1.0,30.0,7.0,0.0
6208,58.0,0.0,60.0,2.0,0.0
6209,73.0,0.0,30.0,6.0,0.0
6210,75.0,0.0,30.0,6.0,0.0
6211,68.0,29.0,30.0,1.0,0.0
6212,59.0,0.0,30.0,7.0,0.0
6213,49.0,0.0,60.0,5.0,0.0
6214,76.0,0.0,60.0,6.0,0.0
6215,67.0,29.0,30.0,0.0,0.0
6216,58.0,0.0,30.0,7.0,0.0
6217,70.0,0.0,30.0,1.0,0.0
6218,67.0,1.0,30.0,4.0,0.0
6219,56.0,1.0,30.0,7.0,0.0
6220,71.0,29.0,30.0,1.0,0.0
6221,68.0,0.0,30.0,4.0,0.0
6222,68.0,0.0,30.0,0.0,0.0
6223,55.0,0.0,60.0,7.0,0.0
6224,76.0,0.0,60.0,6.0,0.0
6225,70.0,29.0,30.0,0.0,0.0
6226,39.0,0.0,60.0,5.0,0.0
6227,73.0,29.0,60.0,1.0,0.0
6228,70.0,1.0,30.0,4.0,0.0
6229,39.0,0.0,30.0,3.0,0.0
6230,71.0,1.0,30.0,4.0,0.0
6231,71.0,0.0,30.0,0.0,0.0
6232,73.0,29.0,30.0,0.0,0.0
6233,51.0,0.0,60.0,7.0,0.0
6234,51.0,0.0,60.0,5.0,0.0
6235,70.0,1.0,60.0,6.0,0.0
6236,51.0,0.0,30.0,3.0,0.0
6237,73.0,1.0,30.0,4.0,0.0
6238,75.0,0.0,30.0,4.0,0.0
6239,75.0,29.0,30.0,0.0,0.0
6240,46.0,0.0,60.0,5.0,0.0
6241,46.0,0.0,60.0,7.0,0.0
6242,46.0,0.0,60.0,3.0,0.0
6243,73.0,1.0,60.0,6.0,0.0
6244,76.0,30.0,30.0,4.0,0.0
6245,76.0,29.0,60.0,0.0,0.0
6246,73.0,0.0,30.0,4.0,0.0
6247,70.0,29.0,60.0,0.0,0.0
6248,70.0,30.0,30.0,4.0,0.0
6249,67.0,1.0,60.0,6.0,0.0
6250,49.0,0.0,60.0,3.0,0.0
6251,49.0,0.0,60.0,5.0,0.0
6252,49.0,0.0,60.0,7.0,0.0
6253,71.0,0.0,30.0,4.0,0.0
6254,43.0,0.0,60.0,7.0,0.0
6255,43.0,0.0,60.0,3.0,0.0
6256,43.0,0.0,60.0,5.0,0.0
6257,73.0,30.0,30.0,4.0,0.0
6258,70.0,0.0,60.0,6.0,0.0
6259,70.0,30.0,30.0,4.0,0.0
6260,67.0,0.0,30.0,4.0,0.0
6261,46.0,30.0,60.0,5.0,0.0
6262,46.0,0.0,60.0,7.0,0.0
6263,46.0,0.0,60.0,3.0,0.0
6264,61.0,0.0,30.0,2.0,0.0
6265,61.0,1.0,30.0,6.0,0.0
6266,70.0,29.0,30.0,1.0,0.0
6267,64.0,0.0,30.0,6.0,0.0
6268,68.0,0.0,30.0,4.0,0.0
6269,67.0,29.0,30.0,1.0,0.0
6270,39.0,0.0,60.0,3.0,0.0
6271,39.0,0.0,60.0,5.0,0.0
6272,63.0,0.0,30.0,6.0,0.0
6273,39.0,30.0,60.0,7.0,0.0
6274,70.0,1.0,30.0,4.0,0.0
6275,58.0,0.0,30.0,2.0,0.0
6276,61.0,0.0,30.0,6.0,0.0
6277,64.0,0.0,30.0,4.0,0.0
6278,43.0,0.0,60.0,7.0,0.0
6279,51.0,29.0,30.0,2.0,0.0
6280,70.0,0.0,30.0,1.0,0.0
6281,43.0,0.0,60.0,5.0,0.0
6282,43.0,0.0,60.0,3.0,0.0
6283,59.0,1.0,30.0,6.0,0.0
6284,63.0,0.0,30.0,4.0,0.0
6285,58.0,60.0,30.0,6.0,0.0
6286,61.0,0.0,30.0,4.0,0.0
6287,44.0,0.0,120.0,5.0,0.0
6288,68.0,0.0,60.0,1.0,0.0
6289,59.0,0.0,60.0,4.0,0.0
6290,44.0,0.0,60.0,7.0,0.0
6291,51.0,59.0,60.0,2.0,0.0
6292,32.0,1.0,120.0,3.0,0.0
6293,59.0,1.0,60.0,6.0,0.0
6294,63.0,0.0,60.0,0.0,0.0
6295,47.0,0.0,120.0,5.0,0.0
6296,51.0,0.0,120.0,5.0,0.0
6297,59.0,59.0,60.0,1.0,0.0
6298,68.0,0.0,60.0,0.0,0.0
6299,68.0,0.0,60.0,4.0,0.0
6300,63.0,0.0,60.0,2.0,0.0
6301,56.0,0.0,60.0,6.0,0.0
6302,32.0,0.0,60.0,7.0,0.0
6303,63.0,0.0,60.0,1.0,0.0
6304,71.0,0.0,60.0,0.0,0.0
6305,63.0,1.0,60.0,4.0,0.0
6306,68.0,59.0,60.0,2.0,0.0
6307,71.0,0.0,60.0,4.0,0.0
6308,61.0,1.0,60.0,4.0,0.0
6309,70.0,0.0,60.0,4.0,0.0
6310,61.0,19.0,60.0,1.0,0.0
6311,70.0,0.0,60.0,0.0,0.0
6312,67.0,0.0,60.0,2.0,0.0
6313,68.0,0.0,60.0,2.0,0.0
6314,76.0,10.0,20.0,6.0,0.0
6315,63.0,14.0,60.0,0.0,0.0
6316,56.0,0.0,120.0,5.0,0.0
6317,59.0,0.0,60.0,1.0,0.0
6318,63.0,0.0,60.0,4.0,0.0
6319,59.0,10.0,30.0,4.0,0.0
6320,32.0,0.0,120.0,3.0,0.0
6321,75.0,20.0,20.0,6.0,0.0
6322,61.0,0.0,30.0,7.0,0.0
6323,58.0,1.0,30.0,4.0,0.0
6324,76.0,0.0,20.0,6.0,0.0
6325,68.0,0.0,30.0,4.0,0.0
6326,63.0,14.0,60.0,1.0,0.0
6327,59.0,1.0,30.0,7.0,0.0
6328,68.0,14.0,30.0,0.0,0.0
6329,59.0,0.0,30.0,2.0,0.0
6330,75.0,15.0,15.0,6.0,0.0
6331,59.0,0.0,30.0,4.0,0.0
6332,76.0,0.0,15.0,6.0,0.0
6333,61.0,0.0,30.0,2.0,0.0
6334,58.0,1.0,30.0,7.0,0.0
6335,70.0,0.0,30.0,4.0,0.0
6336,75.0,15.0,15.0,6.0,0.0
6337,70.0,0.0,30.0,0.0,0.0
6338,61.0,0.0,30.0,4.0,0.0
6339,76.0,0.0,15.0,6.0,0.0
6340,63.0,1.0,30.0,4.0,0.0
6341,56.0,0.0,60.0,7.0,0.0
6342,71.0,0.0,30.0,4.0,0.0
6343,71.0,14.0,30.0,0.0,0.0
6344,68.0,0.0,30.0,1.0,0.0
6345,63.0,0.0,30.0,2.0,0.0
6346,75.0,15.0,15.0,6.0,0.0
6347,76.0,0.0,15.0,6.0,0.0
6348,61.0,0.0,30.0,2.0,0.0
6349,75.0,15.0,15.0,6.0,0.0
6350,61.0,0.0,30.0,4.0,0.0
6351,70.0,0.0,30.0,4.0,0.0
6352,70.0,14.0,30.0,0.0,0.0
6353,67.0,0.0,30.0,1.0,0.0
6354,76.0,1.0,15.0,6.0,0.0
6355,63.0,0.0,30.0,4.0,0.0
6356,71.0,1.0,30.0,4.0,0.0
6357,75.0,15.0,15.0,6.0,0.0
6358,71.0,0.0,30.0,0.0,0.0
6359,63.0,14.0,30.0,2.0,0.0
6360,63.0,0.0,60.0,7.0,0.0
6361,68.0,0.0,30.0,1.0,0.0
6362,76.0,0.0,15.0,6.0,0.0
6363,67.0,0.0,30.0,1.0,0.0
6364,61.0,14.0,30.0,2.0,0.0
6365,70.0,1.0,30.0,4.0,0.0
6366,61.0,0.0,30.0,4.0,0.0
6367,70.0,0.0,30.0,0.0,0.0
6368,75.0,15.0,15.0,6.0,0.0
6369,76.0,0.0,15.0,6.0,0.0
6370,75.0,15.0,15.0,6.0,0.0
6371,51.0,0.0,60.0,5.0,0.0
6372,59.0,0.0,60.0,4.0,0.0
6373,47.0,0.0,60.0,5.0,0.0
6374,68.0,0.0,60.0,0.0,0.0
6375,68.0,0.0,60.0,4.0,0.0
6376,59.0,29.0,60.0,2.0,0.0
6377,44.0,0.0,60.0,3.0,0.0
6378,68.0,0.0,60.0,1.0,0.0
6379,44.0,0.0,60.0,5.0,0.0
6380,51.0,0.0,60.0,7.0,0.0
6381,76.0,30.0,15.0,6.0,0.0
6382,68.0,1.0,30.0,6.0,0.0
6383,68.0,0.0,60.0,1.0,0.0
6384,56.0,0.0,60.0,3.0,0.0
6385,61.0,0.0,30.0,2.0,0.0
6386,70.0,0.0,30.0,6.0,0.0
6387,56.0,0.0,60.0,5.0,0.0
6388,70.0,1.0,30.0,4.0,0.0
6389,70.0,29.0,30.0,0.0,0.0
6390,56.0,0.0,60.0,7.0,0.0
6391,63.0,0.0,30.0,2.0,0.0
6392,71.0,0.0,30.0,4.0,0.0
6393,71.0,29.0,30.0,0.0,0.0
6394,71.0,1.0,30.0,6.0,0.0
6395,64.0,0.0,30.0,2.0,0.0
6396,73.0,0.0,30.0,4.0,0.0
6397,52.0,0.0,60.0,5.0,0.0
6398,73.0,1.0,30.0,6.0,0.0
6399,68.0,29.0,60.0,1.0,0.0
6400,52.0,1.0,60.0,7.0,0.0
6401,52.0,0.0,60.0,3.0,0.0
6402,73.0,29.0,30.0,0.0,0.0
6403,75.0,0.0,30.0,6.0,0.0
6404,66.0,0.0,30.0,2.0,0.0
6405,75.0,0.0,30.0,4.0,0.0
6406,75.0,0.0,30.0,0.0,0.0
6407,49.0,0.0,60.0,3.0,0.0
6408,68.0,29.0,60.0,2.0,0.0
6409,76.0,0.0,60.0,4.0,0.0
6410,49.0,1.0,60.0,5.0,0.0
6411,76.0,30.0,30.0,6.0,0.0
6412,49.0,0.0,60.0,7.0,0.0
6413,73.0,0.0,30.0,6.0,0.0
6414,54.0,0.0,30.0,7.0,0.0
6415,73.0,0.0,15.0,1.0,0.0
6416,76.0,0.0,15.0,0.0,0.0
6417,76.0,0.0,60.0,4.0,0.0
6418,54.0,0.0,60.0,5.0,0.0
6419,66.0,0.0,60.0,2.0,0.0
6420,70.0,30.0,30.0,6.0,0.0
6421,42.0,0.0,60.0,3.0,0.0
6422,68.0,0.0,30.0,6.0,0.0
6423,52.0,1.0,30.0,7.0,0.0
6424,54.0,0.0,60.0,3.0,0.0
6425,66.0,29.0,60.0,1.0,0.0
6426,42.0,0.0,60.0,5.0,0.0
6427,54.0,0.0,30.0,7.0,0.0
6428,70.0,30.0,30.0,6.0,0.0
6429,61.0,0.0,60.0,2.0,0.0
6430,70.0,0.0,60.0,4.0,0.0
6431,70.0,0.0,60.0,0.0,0.0
6432,73.0,0.0,30.0,6.0,0.0
6433,58.0,1.0,30.0,7.0,0.0
6434,76.0,30.0,60.0,6.0,0.0
6435,61.0,30.0,30.0,7.0,0.0
6436,59.0,0.0,30.0,7.0,0.0
6437,61.0,30.0,30.0,7.0,0.0
6438,70.0,60.0,60.0,6.0,0.0
6439,58.0,0.0,30.0,7.0,0.0
6440,46.0,0.0,120.0,5.0,0.0
6441,54.0,0.0,60.0,1.0,0.0
6442,58.0,59.0,60.0,2.0,0.0
6443,42.0,0.0,120.0,5.0,0.0
6444,61.0,1.0,60.0,4.0,0.0
6445,66.0,0.0,60.0,7.0,0.0
6446,58.0,0.0,120.0,4.0,0.0
6447,42.0,0.0,120.0,3.0,0.0
6448,49.0,0.0,120.0,5.0,0.0
6449,61.0,0.0,60.0,0.0,0.0
6450,54.0,1.0,120.0,5.0,0.0
6451,66.0,59.0,60.0,0.0,0.0
6452,66.0,0.0,60.0,4.0,0.0
6453,58.0,0.0,60.0,1.0,0.0
6454,61.0,0.0,60.0,2.0,0.0
6455,54.0,0.0,60.0,7.0,0.0
6456,61.0,0.0,60.0,1.0,0.0
6457,66.0,59.0,60.0,2.0,0.0
6458,61.0,1.0,60.0,4.0,0.0
6459,70.0,0.0,60.0,4.0,0.0
6460,70.0,0.0,60.0,0.0,0.0
6461,59.0,0.0,60.0,1.0,0.0
6462,68.0,19.0,60.0,0.0,0.0
6463,59.0,0.0,60.0,4.0,0.0
6464,68.0,1.0,60.0,4.0,0.0
6465,65.0,0.0,60.0,2.0,0.0
6466,61.0,0.0,60.0,4.0,0.0
6467,58.0,10.0,30.0,4.0,0.0
6468,54.0,0.0,120.0,5.0,0.0
6469,61.0,0.0,60.0,0.0,0.0
6470,73.0,10.0,20.0,6.0,0.0
6471,42.0,0.0,120.0,3.0,0.0
6472,58.0,0.0,60.0,1.0,0.0
6473,66.0,14.0,60.0,2.0,0.0
6474,75.0,20.0,20.0,6.0,0.0
6475,56.0,0.0,30.0,4.0,0.0
6476,59.0,0.0,30.0,7.0,0.0
6477,73.0,1.0,20.0,6.0,0.0
6478,58.0,1.0,30.0,7.0,0.0
6479,66.0,14.0,30.0,0.0,0.0
6480,61.0,14.0,60.0,1.0,0.0
6481,66.0,0.0,30.0,4.0,0.0
6482,58.0,0.0,30.0,4.0,0.0
6483,58.0,0.0,30.0,2.0,0.0
6484,75.0,15.0,15.0,6.0,0.0
6485,73.0,0.0,15.0,6.0,0.0
6486,56.0,0.0,30.0,7.0,0.0
6487,59.0,0.0,30.0,2.0,0.0
6488,68.0,0.0,30.0,0.0,0.0
6489,75.0,15.0,15.0,6.0,0.0
6490,59.0,0.0,30.0,4.0,0.0
6491,68.0,1.0,30.0,4.0,0.0
6492,73.0,0.0,15.0,6.0,0.0
6493,61.0,0.0,30.0,4.0,0.0
6494,70.0,0.0,30.0,4.0,0.0
6495,54.0,1.0,60.0,7.0,0.0
6496,75.0,15.0,15.0,6.0,0.0
6497,61.0,0.0,30.0,2.0,0.0
6498,70.0,14.0,30.0,0.0,0.0
6499,66.0,0.0,30.0,1.0,0.0
6500,73.0,1.0,15.0,6.0,0.0
6501,68.0,0.0,30.0,4.0,0.0
6502,59.0,0.0,30.0,2.0,0.0
6503,65.0,14.0,30.0,1.0,0.0
6504,68.0,0.0,30.0,0.0,0.0
6505,59.0,0.0,30.0,4.0,0.0
6506,75.0,15.0,15.0,6.0,0.0
6507,73.0,0.0,15.0,6.0,0.0
6508,61.0,0.0,60.0,7.0,0.0
6509,61.0,0.0,30.0,2.0,0.0
6510,70.0,14.0,30.0,0.0,0.0
6511,75.0,15.0,15.0,6.0,0.0
6512,70.0,0.0,30.0,4.0,0.0
6513,61.0,0.0,30.0,4.0,0.0
6514,66.0,0.0,30.0,1.0,0.0
6515,73.0,1.0,15.0,6.0,0.0
6516,59.0,0.0,30.0,4.0,0.0
6517,65.0,14.0,30.0,1.0,0.0
6518,75.0,15.0,15.0,6.0,0.0
6519,68.0,1.0,30.0,4.0,0.0
6520,59.0,0.0,30.0,2.0,0.0
6521,68.0,0.0,30.0,0.0,0.0
6522,73.0,0.0,15.0,6.0,0.0
6523,66.0,29.0,60.0,0.0,0.0
6524,54.0,0.0,60.0,4.0,0.0
6525,58.0,1.0,60.0,4.0,0.0
6526,66.0,0.0,60.0,4.0,0.0
6527,66.0,0.0,60.0,1.0,0.0
6528,42.0,0.0,60.0,5.0,0.0
6529,46.0,0.0,60.0,5.0,0.0
6530,42.0,0.0,60.0,3.0,0.0
6531,49.0,0.0,60.0,7.0,0.0
6532,75.0,15.0,15.0,6.0,0.0
6533,58.0,0.0,60.0,2.0,0.0
6534,49.0,0.0,60.0,5.0,0.0
6535,73.0,30.0,15.0,6.0,0.0
6536,66.0,0.0,30.0,6.0,0.0
6537,68.0,1.0,30.0,4.0,0.0
6538,54.0,0.0,60.0,5.0,0.0
6539,54.0,1.0,60.0,7.0,0.0
6540,66.0,0.0,60.0,1.0,0.0
6541,68.0,29.0,30.0,0.0,0.0
6542,54.0,0.0,60.0,3.0,0.0
6543,68.0,0.0,30.0,6.0,0.0
6544,59.0,0.0,30.0,2.0,0.0
6545,70.0,0.0,30.0,6.0,0.0
6546,70.0,0.0,30.0,4.0,0.0
6547,70.0,29.0,30.0,0.0,0.0
6548,61.0,0.0,30.0,2.0,0.0
6549,51.0,0.0,60.0,7.0,0.0
6550,66.0,29.0,60.0,1.0,0.0
6551,71.0,1.0,30.0,6.0,0.0
6552,51.0,0.0,60.0,3.0,0.0
6553,63.0,0.0,30.0,2.0,0.0
6554,71.0,0.0,30.0,4.0,0.0
6555,71.0,29.0,30.0,0.0,0.0
6556,51.0,0.0,60.0,5.0,0.0
6557,73.0,1.0,30.0,4.0,0.0
6558,64.0,0.0,30.0,2.0,0.0
6559,73.0,0.0,30.0,0.0,0.0
6560,73.0,0.0,30.0,6.0,0.0
6561,47.0,0.0,60.0,3.0,0.0
6562,75.0,0.0,60.0,4.0,0.0
6563,75.0,0.0,60.0,0.0,0.0
6564,66.0,29.0,60.0,2.0,0.0
6565,71.0,0.0,60.0,1.0,0.0
6566,47.0,0.0,60.0,5.0,0.0
6567,47.0,1.0,60.0,7.0,0.0
6568,75.0,30.0,30.0,6.0,0.0
6569,71.0,0.0,30.0,6.0,0.0
6570,52.0,30.0,30.0,7.0,0.0
6571,68.0,0.0,30.0,6.0,0.0
6572,40.0,0.0,60.0,5.0,0.0
6573,75.0,0.0,60.0,4.0,0.0
6574,75.0,29.0,60.0,0.0,0.0
6575,40.0,0.0,60.0,3.0,0.0
6576,68.0,0.0,60.0,2.0,0.0
6577,71.0,0.0,60.0,1.0,0.0
6578,51.0,0.0,30.0,7.0,0.0
6579,67.0,1.0,30.0,6.0,0.0
6580,59.0,0.0,60.0,1.0,0.0
6581,68.0,1.0,60.0,4.0,0.0
6582,64.0,0.0,60.0,2.0,0.0
6583,68.0,29.0,60.0,0.0,0.0
6584,52.0,0.0,60.0,5.0,0.0
6585,52.0,0.0,60.0,3.0,0.0
6586,52.0,30.0,30.0,7.0,0.0
6587,68.0,0.0,30.0,6.0,0.0
6588,71.0,0.0,30.0,6.0,0.0
6589,56.0,0.0,30.0,7.0,0.0
6590,75.0,30.0,60.0,6.0,0.0
6591,59.0,30.0,30.0,7.0,0.0
6592,58.0,0.0,30.0,7.0,0.0
6593,68.0,30.0,60.0,6.0,0.0
6594,59.0,30.0,30.0,7.0,0.0
6595,56.0,0.0,30.0,7.0,0.0
6596,52.0,1.0,60.0,3.0,0.0
6597,52.0,0.0,30.0,7.0,0.0
6598,80.0,0.0,30.0,4.0,0.0
6599,52.0,0.0,60.0,5.0,0.0
6600,80.0,1.0,30.0,6.0,0.0
6601,61.0,29.0,120.0,2.0,0.0
6602,80.0,29.0,30.0,0.0,0.0
6603,78.0,0.0,30.0,4.0,0.0
6604,51.0,0.0,30.0,7.0,0.0
6605,78.0,0.0,30.0,6.0,0.0
6606,78.0,29.0,30.0,0.0,0.0
6607,76.0,0.0,30.0,6.0,0.0
6608,76.0,29.0,30.0,0.0,0.0
6609,56.0,0.0,30.0,3.0,0.0
6610,56.0,1.0,30.0,5.0,0.0
6611,76.0,0.0,30.0,4.0,0.0
6612,49.0,0.0,30.0,7.0,0.0
6613,75.0,0.0,30.0,6.0,0.0
6614,75.0,0.0,30.0,0.0,0.0
6615,51.0,1.0,30.0,7.0,0.0
6616,75.0,0.0,30.0,4.0,0.0
6617,54.0,0.0,30.0,3.0,0.0
6618,54.0,0.0,30.0,5.0,0.0
6619,68.0,29.0,30.0,1.0,0.0
6620,73.0,0.0,60.0,4.0,0.0
6621,73.0,1.0,60.0,6.0,0.0
6622,52.0,1.0,30.0,7.0,0.0
6623,52.0,0.0,60.0,3.0,0.0
6624,52.0,0.0,60.0,5.0,0.0
6625,66.0,29.0,30.0,1.0,0.0
6626,51.0,0.0,30.0,7.0,0.0
6627,73.0,1.0,60.0,6.0,0.0
6628,73.0,0.0,60.0,4.0,0.0
6629,73.0,0.0,15.0,0.0,0.0
6630,49.0,0.0,30.0,7.0,0.0
6631,56.0,0.0,30.0,5.0,0.0
6632,64.0,29.0,30.0,1.0,0.0
6633,56.0,1.0,30.0,3.0,0.0
6634,54.0,0.0,30.0,3.0,0.0
6635,51.0,0.0,30.0,7.0,0.0
6636,63.0,29.0,30.0,1.0,0.0
6637,54.0,0.0,30.0,5.0,0.0
6638,52.0,0.0,60.0,5.0,0.0
6639,73.0,0.0,150.0,4.0,0.0
6640,52.0,1.0,30.0,7.0,0.0
6641,56.0,29.0,30.0,2.0,0.0
6642,61.0,0.0,60.0,1.0,0.0
6643,73.0,0.0,150.0,0.0,0.0
6644,52.0,0.0,60.0,3.0,0.0
6645,73.0,29.0,150.0,6.0,0.0
6646,54.0,29.0,30.0,2.0,0.0
6647,51.0,1.0,30.0,7.0,0.0
6648,56.0,0.0,30.0,5.0,0.0
6649,52.0,29.0,30.0,2.0,0.0
6650,56.0,29.0,60.0,1.0,0.0
6651,56.0,1.0,30.0,3.0,0.0
6652,49.0,0.0,30.0,7.0,0.0
6653,51.0,0.0,30.0,2.0,0.0
6654,54.0,0.0,30.0,5.0,0.0
6655,51.0,0.0,30.0,7.0,0.0
6656,54.0,1.0,30.0,3.0,0.0
6657,52.0,0.0,60.0,3.0,0.0
6658,49.0,0.0,60.0,2.0,0.0
6659,52.0,1.0,30.0,7.0,0.0
6660,52.0,1.0,60.0,5.0,0.0
6661,68.0,0.0,30.0,6.0,0.0
6662,51.0,0.0,30.0,7.0,0.0
6663,68.0,0.0,30.0,4.0,0.0
6664,68.0,29.0,30.0,0.0,0.0
6665,73.0,1.0,30.0,6.0,0.0
6666,73.0,0.0,30.0,0.0,0.0
6667,51.0,29.0,30.0,3.0,0.0
6668,73.0,0.0,30.0,4.0,0.0
6669,49.0,0.0,30.0,7.0,0.0
6670,51.0,1.0,60.0,5.0,0.0
6671,75.0,29.0,30.0,0.0,0.0
6672,48.0,0.0,30.0,7.0,0.0
6673,75.0,0.0,30.0,4.0,0.0
6674,75.0,0.0,30.0,6.0,0.0
6675,49.0,0.0,30.0,7.0,0.0
6676,76.0,0.0,30.0,0.0,0.0
6677,76.0,0.0,30.0,4.0,0.0
6678,76.0,1.0,30.0,6.0,0.0
6679,49.0,0.0,60.0,5.0,0.0
6680,49.0,29.0,30.0,3.0,0.0
6681,57.0,29.0,120.0,2.0,0.0
6682,75.0,1.0,30.0,4.0,0.0
6683,75.0,29.0,30.0,0.0,0.0
6684,47.0,0.0,30.0,7.0,0.0
6685,75.0,0.0,30.0,6.0,0.0
6686,73.0,1.0,30.0,6.0,0.0
6687,73.0,29.0,30.0,0.0,0.0
6688,45.0,0.0,30.0,7.0,0.0
6689,52.0,0.0,30.0,3.0,0.0
6690,52.0,0.0,30.0,5.0,0.0
6691,73.0,0.0,30.0,4.0,0.0
6692,51.0,0.0,30.0,5.0,0.0
6693,51.0,0.0,30.0,3.0,0.0
6694,71.0,0.0,30.0,4.0,0.0
6695,71.0,0.0,30.0,6.0,0.0
6696,71.0,0.0,30.0,0.0,0.0
6697,47.0,1.0,30.0,7.0,0.0
6698,49.0,1.0,30.0,7.0,0.0
6699,69.0,0.0,60.0,6.0,0.0
6700,64.0,29.0,30.0,1.0,0.0
6701,49.0,0.0,60.0,3.0,0.0
6702,49.0,0.0,60.0,5.0,0.0
6703,69.0,1.0,60.0,4.0,0.0
6704,63.0,0.0,30.0,1.0,0.0
6705,47.0,0.0,30.0,7.0,0.0
6706,69.0,0.0,60.0,6.0,0.0
6707,61.0,29.0,30.0,1.0,0.0
6708,69.0,29.0,15.0,0.0,0.0
6709,52.0,0.0,30.0,5.0,0.0
6710,45.0,1.0,30.0,7.0,0.0
6711,69.0,0.0,60.0,4.0,0.0
6712,52.0,0.0,30.0,3.0,0.0
6713,51.0,0.0,30.0,5.0,0.0
6714,51.0,0.0,30.0,3.0,0.0
6715,47.0,1.0,30.0,7.0,0.0
6716,59.0,29.0,30.0,1.0,0.0
6717,52.0,29.0,30.0,2.0,0.0
6718,69.0,0.0,150.0,6.0,0.0
6719,69.0,0.0,150.0,0.0,0.0
6720,49.0,0.0,60.0,5.0,0.0
6721,49.0,1.0,60.0,3.0,0.0
6722,69.0,29.0,150.0,4.0,0.0
6723,57.0,29.0,60.0,1.0,0.0
6724,49.0,1.0,30.0,7.0,0.0
6725,51.0,0.0,30.0,2.0,0.0
6726,47.0,0.0,30.0,7.0,0.0
6727,49.0,29.0,30.0,2.0,0.0
6728,45.0,0.0,30.0,7.0,0.0
6729,52.0,1.0,30.0,5.0,0.0
6730,52.0,0.0,30.0,3.0,0.0
6731,52.0,0.0,60.0,1.0,0.0
6732,47.0,0.0,30.0,7.0,0.0
6733,51.0,0.0,30.0,3.0,0.0
6734,47.0,29.0,30.0,2.0,0.0
6735,51.0,1.0,30.0,5.0,0.0
6736,49.0,1.0,30.0,7.0,0.0
6737,49.0,0.0,60.0,3.0,0.0
6738,49.0,0.0,60.0,5.0,0.0
6739,45.0,29.0,60.0,2.0,0.0
6740,64.0,1.0,30.0,6.0,0.0
6741,64.0,0.0,30.0,4.0,0.0
6742,47.0,0.0,30.0,7.0,0.0
6743,64.0,0.0,30.0,0.0,0.0
6744,45.0,0.0,30.0,7.0,0.0
6745,69.0,0.0,30.0,4.0,0.0
6746,69.0,29.0,30.0,0.0,0.0
6747,47.0,0.0,60.0,5.0,0.0
6748,69.0,1.0,30.0,6.0,0.0
6749,47.0,0.0,30.0,3.0,0.0
6750,44.0,0.0,30.0,7.0,0.0
6751,71.0,29.0,30.0,0.0,0.0
6752,71.0,1.0,30.0,4.0,0.0
6753,71.0,0.0,30.0,6.0,0.0
6754,73.0,0.0,30.0,4.0,0.0
6755,73.0,29.0,30.0,0.0,0.0
6756,45.0,0.0,30.0,3.0,0.0
6757,73.0,1.0,30.0,6.0,0.0
6758,45.0,1.0,60.0,7.0,0.0
6759,45.0,0.0,30.0,5.0,0.0
6760,75.0,0.0,30.0,6.0,0.0
6761,75.0,0.0,30.0,4.0,0.0
6762,44.0,0.0,30.0,5.0,0.0
6763,75.0,29.0,30.0,0.0,0.0
6764,44.0,0.0,30.0,3.0,0.0
6765,76.0,0.0,30.0,6.0,0.0
6766,43.0,1.0,30.0,3.0,0.0
6767,58.0,29.0,30.0,1.0,0.0
6768,76.0,0.0,30.0,0.0,0.0
6769,49.0,0.0,60.0,7.0,0.0
6770,43.0,0.0,30.0,5.0,0.0
6771,61.0,0.0,30.0,2.0,0.0
6772,76.0,0.0,30.0,4.0,0.0
6773,75.0,1.0,30.0,4.0,0.0
6774,75.0,0.0,30.0,6.0,0.0
6775,44.0,0.0,30.0,3.0,0.0
6776,59.0,0.0,30.0,2.0,0.0
6777,59.0,0.0,30.0,1.0,0.0
6778,44.0,0.0,30.0,5.0,0.0
6779,75.0,29.0,30.0,0.0,0.0
6780,61.0,0.0,30.0,1.0,0.0
6781,46.0,1.0,30.0,5.0,0.0
6782,73.0,0.0,30.0,0.0,0.0
6783,73.0,0.0,30.0,6.0,0.0
6784,46.0,0.0,30.0,3.0,0.0
6785,73.0,0.0,30.0,4.0,0.0
6786,40.0,0.0,60.0,7.0,0.0
6787,58.0,29.0,30.0,2.0,0.0
6788,71.0,29.0,30.0,0.0,0.0
6789,71.0,1.0,30.0,4.0,0.0
6790,63.0,0.0,30.0,1.0,0.0
6791,71.0,0.0,30.0,6.0,0.0
6792,56.0,0.0,30.0,2.0,0.0
6793,47.0,0.0,30.0,5.0,0.0
6794,47.0,0.0,30.0,3.0,0.0
6795,70.0,0.0,30.0,4.0,0.0
6796,55.0,29.0,30.0,2.0,0.0
6797,64.0,0.0,60.0,1.0,0.0
6798,49.0,0.0,120.0,7.0,0.0
6799,70.0,1.0,30.0,6.0,0.0
6800,70.0,0.0,30.0,0.0,0.0
6801,49.0,0.0,120.0,5.0,0.0
6802,49.0,1.0,120.0,3.0,0.0
6803,68.0,1.0,30.0,4.0,0.0
6804,56.0,0.0,30.0,2.0,0.0
6805,68.0,59.0,30.0,0.0,0.0
6806,68.0,0.0,30.0,6.0,0.0
6807,67.0,0.0,60.0,0.0,0.0
6808,58.0,0.0,60.0,2.0,0.0
6809,67.0,0.0,60.0,4.0,0.0
6810,67.0,0.0,60.0,6.0,0.0
6811,47.0,0.0,60.0,5.0,0.0
6812,56.0,0.0,30.0,5.0,0.0
6813,56.0,0.0,60.0,2.0,0.0
6814,75.0,0.0,60.0,6.0,0.0
6815,63.0,29.0,15.0,1.0,0.0
6816,75.0,0.0,60.0,0.0,0.0
6817,75.0,0.0,60.0,4.0,0.0
6818,47.0,0.0,60.0,3.0,0.0
6819,56.0,30.0,30.0,7.0,0.0
6820,47.0,1.0,60.0,7.0,0.0
6821,55.0,0.0,30.0,5.0,0.0
6822,55.0,0.0,30.0,7.0,0.0
6823,52.0,0.0,60.0,7.0,0.0
6824,68.0,1.0,60.0,4.0,0.0
6825,68.0,0.0,60.0,6.0,0.0
6826,52.0,0.0,60.0,5.0,0.0
6827,56.0,0.0,60.0,5.0,0.0
6828,68.0,59.0,60.0,0.0,0.0
6829,56.0,0.0,60.0,7.0,0.0
6830,59.0,0.0,60.0,2.0,0.0
6831,52.0,0.0,60.0,3.0,0.0
6832,49.0,0.0,60.0,7.0,0.0
6833,52.0,0.0,60.0,7.0,0.0
6834,68.0,0.0,15.0,1.0,0.0
6835,64.0,59.0,60.0,2.0,0.0
6836,73.0,0.0,60.0,0.0,0.0
6837,49.0,0.0,60.0,3.0,0.0
6838,73.0,0.0,60.0,4.0,0.0
6839,68.0,0.0,60.0,6.0,0.0
6840,52.0,0.0,60.0,5.0,0.0
6841,68.0,0.0,60.0,4.0,0.0
6842,49.0,0.0,60.0,5.0,0.0
6843,73.0,1.0,60.0,6.0,0.0
6844,51.0,0.0,60.0,3.0,0.0
6845,68.0,0.0,120.0,6.0,0.0
6846,68.0,29.0,90.0,1.0,0.0
6847,71.0,0.0,90.0,0.0,0.0
6848,63.0,29.0,60.0,2.0,0.0
6849,51.0,0.0,60.0,7.0,0.0
6850,51.0,1.0,60.0,5.0,0.0
6851,71.0,0.0,90.0,4.0,0.0
6852,68.0,0.0,90.0,4.0,0.0
6853,71.0,1.0,90.0,6.0,0.0
6854,49.0,1.0,60.0,3.0,0.0
6855,49.0,0.0,60.0,7.0,0.0
6856,49.0,0.0,60.0,5.0,0.0
6857,64.0,0.0,60.0,2.0,0.0
6858,70.0,0.0,30.0,4.0,0.0
6859,70.0,0.0,30.0,0.0,0.0
6860,70.0,0.0,30.0,6.0,0.0
6861,70.0,15.0,30.0,1.0,0.0
6862,70.0,0.0,15.0,4.0,0.0
6863,51.0,0.0,60.0,5.0,0.0
6864,51.0,0.0,60.0,7.0,0.0
6865,67.0,0.0,120.0,4.0,0.0
6866,67.0,239.0,120.0,6.0,0.0
6867,51.0,1.0,60.0,3.0,0.0
6868,70.0,0.0,90.0,0.0,0.0
6869,70.0,15.0,15.0,6.0,0.0
6870,63.0,0.0,60.0,2.0,0.0
6871,67.0,29.0,90.0,1.0,0.0
6872,71.0,0.0,15.0,4.0,0.0
6873,71.0,15.0,15.0,6.0,0.0
6874,70.0,0.0,15.0,4.0,0.0
6875,70.0,14.0,15.0,6.0,0.0
6876,71.0,30.0,15.0,6.0,0.0
6877,71.0,0.0,15.0,4.0,0.0
6878,39.0,0.0,60.0,7.0,0.0
6879,39.0,0.0,60.0,5.0,0.0
6880,70.0,0.0,30.0,4.0,0.0
6881,61.0,0.0,60.0,2.0,0.0
6882,39.0,0.0,60.0,3.0,0.0
6883,70.0,0.0,30.0,6.0,0.0
6884,68.0,0.0,30.0,4.0,0.0
6885,68.0,1.0,30.0,6.0,0.0
6886,32.0,1.0,240.0,7.0,0.0
6887,63.0,0.0,15.0,1.0,0.0
6888,59.0,0.0,240.0,4.0,0.0
6889,68.0,0.0,240.0,4.0,0.0
6890,68.0,0.0,15.0,0.0,0.0
6891,44.0,0.0,240.0,5.0,0.0
6892,47.0,0.0,240.0,5.0,0.0
6893,51.0,0.0,240.0,5.0,0.0
6894,63.0,0.0,240.0,4.0,0.0
6895,44.0,0.0,240.0,7.0,0.0
6896,32.0,0.0,240.0,3.0,0.0
6897,59.0,0.0,240.0,2.0,0.0
6898,59.0,0.0,240.0,6.0,0.0
6899,68.0,0.0,240.0,6.0,0.0
6900,63.0,0.0,240.0,6.0,0.0
6901,23.0,0.0,120.0,14.0,0.0
6902,47.0,30.0,30.0,7.0,0.0
6903,35.0,30.0,120.0,13.0,0.0
6904,66.0,30.0,210.0,6.0,0.0
6905,46.0,30.0,30.0,7.0,0.0
6906,66.0,1.0,60.0,11.0,0.0
6907,71.0,0.0,60.0,10.0,0.0
6908,63.0,0.0,60.0,12.0,0.0
6909,47.0,29.0,30.0,7.0,0.0
6910,42.0,0.0,30.0,7.0,0.0
6911,70.0,0.0,60.0,10.0,0.0
6912,64.0,0.0,60.0,11.0,0.0
6913,25.0,0.0,60.0,14.0,0.0
6914,49.0,29.0,30.0,7.0,0.0
6915,37.0,0.0,60.0,13.0,0.0
6916,61.0,1.0,60.0,12.0,0.0
6917,42.0,30.0,30.0,7.0,0.0
6918,39.0,30.0,120.0,13.0,0.0
6919,51.0,0.0,60.0,7.0,0.0
6920,27.0,0.0,120.0,14.0,0.0
6921,68.0,30.0,30.0,6.0,0.0
6922,39.0,0.0,60.0,7.0,0.0
6923,59.0,0.0,60.0,12.0,0.0
6924,66.0,0.0,60.0,11.0,0.0
6925,71.0,1.0,60.0,10.0,0.0
6926,66.0,29.0,30.0,6.0,0.0
6927,64.0,0.0,30.0,6.0,0.0
6928,59.0,0.0,60.0,12.0,0.0
6929,40.0,0.0,60.0,13.0,0.0
6930,66.0,29.0,30.0,6.0,0.0
6931,64.0,1.0,60.0,11.0,0.0
6932,28.0,0.0,60.0,14.0,0.0
6933,40.0,0.0,60.0,7.0,0.0
6934,68.0,0.0,60.0,10.0,0.0
6935,68.0,30.0,30.0,6.0,0.0
6936,30.0,30.0,120.0,14.0,0.0
6937,42.0,0.0,120.0,13.0,0.0
6938,42.0,30.0,30.0,7.0,0.0
6939,58.0,30.0,210.0,6.0,0.0
6940,46.0,30.0,30.0,7.0,0.0
6941,54.0,0.0,60.0,11.0,0.0
6942,61.0,1.0,60.0,10.0,0.0
6943,58.0,0.0,60.0,12.0,0.0
6944,49.0,29.0,30.0,7.0,0.0
6945,54.0,0.0,30.0,7.0,0.0
6946,54.0,0.0,60.0,13.0,0.0
6947,61.0,1.0,60.0,12.0,0.0
6948,58.0,0.0,60.0,11.0,0.0
6949,66.0,0.0,60.0,10.0,0.0
6950,52.0,29.0,30.0,7.0,0.0
6951,42.0,0.0,60.0,14.0,0.0
6952,51.0,30.0,30.0,7.0,0.0
6953,40.0,30.0,120.0,14.0,0.0
6954,52.0,30.0,60.0,7.0,0.0
6955,52.0,0.0,120.0,13.0,0.0
6956,56.0,0.0,30.0,6.0,0.0
6957,66.0,0.0,60.0,10.0,0.0
6958,61.0,0.0,60.0,11.0,0.0
6959,40.0,0.0,60.0,7.0,0.0
6960,58.0,29.0,30.0,6.0,0.0
6961,58.0,1.0,60.0,12.0,0.0
6962,59.0,0.0,30.0,6.0,0.0
6963,66.0,0.0,60.0,11.0,0.0
6964,61.0,29.0,30.0,6.0,0.0
6965,39.0,0.0,60.0,7.0,0.0
6966,39.0,30.0,60.0,14.0,0.0
6967,51.0,0.0,60.0,13.0,0.0
6968,54.0,1.0,60.0,12.0,0.0
6969,71.0,0.0,60.0,10.0,0.0
6970,63.0,0.0,30.0,6.0,0.0
6971,37.0,0.0,120.0,14.0,0.0
6972,37.0,30.0,60.0,7.0,0.0
6973,64.0,30.0,30.0,6.0,0.0
6974,49.0,59.0,120.0,13.0,0.0
6975,68.0,0.0,30.0,6.0,0.0
6976,61.0,0.0,60.0,11.0,0.0
6977,70.0,1.0,60.0,10.0,0.0
6978,66.0,29.0,30.0,6.0,0.0
6979,52.0,0.0,60.0,12.0,0.0
6980,49.0,0.0,60.0,7.0,0.0
6981,64.0,0.0,30.0,6.0,0.0
6982,35.0,0.0,60.0,14.0,0.0
6983,64.0,0.0,60.0,11.0,0.0
6984,47.0,30.0,60.0,13.0,0.0
6985,56.0,0.0,60.0,12.0,0.0
6986,73.0,30.0,90.0,6.0,0.0
6987,47.0,0.0,60.0,7.0,0.0
6988,68.0,1.0,60.0,10.0,0.0
6989,46.0,30.0,60.0,7.0,0.0
6990,34.0,0.0,60.0,14.0,0.0
6991,46.0,0.0,60.0,13.0,0.0
6992,71.0,0.0,30.0,6.0,0.0
6993,30.0,0.0,60.0,14.0,0.0
6994,70.0,29.0,30.0,6.0,0.0
6995,42.0,0.0,60.0,7.0,0.0
6996,42.0,30.0,60.0,13.0,0.0
6997,58.0,0.0,60.0,12.0,0.0
6998,66.0,0.0,60.0,10.0,0.0
6999,66.0,1.0,60.0,11.0,0.0
7000,68.0,0.0,30.0,6.0,0.0
7001,61.0,1.0,60.0,12.0,0.0
7002,46.0,0.0,60.0,7.0,0.0
7003,61.0,0.0,60.0,11.0,0.0
7004,66.0,29.0,30.0,6.0,0.0
7005,46.0,0.0,60.0,13.0,0.0
7006,34.0,30.0,60.0,14.0,0.0
7007,64.0,0.0,60.0,10.0,0.0
7008,64.0,0.0,30.0,6.0,0.0
7009,47.0,0.0,60.0,7.0,0.0
7010,63.0,30.0,30.0,6.0,0.0
7011,47.0,30.0,60.0,13.0,0.0
7012,35.0,0.0,60.0,14.0,0.0
7013,66.0,0.0,30.0,6.0,0.0
7014,39.0,0.0,60.0,14.0,0.0
7015,54.0,1.0,60.0,12.0,0.0
7016,71.0,29.0,30.0,6.0,0.0
7017,51.0,0.0,60.0,7.0,0.0
7018,63.0,0.0,60.0,10.0,0.0
7019,59.0,0.0,60.0,11.0,0.0
7020,51.0,59.0,60.0,13.0,0.0
7021,73.0,0.0,30.0,6.0,0.0
7022,35.0,0.0,60.0,14.0,0.0
7023,47.0,0.0,60.0,13.0,0.0
7024,58.0,0.0,60.0,12.0,0.0
7025,75.0,30.0,90.0,6.0,0.0
7026,66.0,0.0,60.0,10.0,0.0
7027,54.0,1.0,60.0,11.0,0.0
7028,47.0,30.0,60.0,7.0,0.0
7029,44.0,0.0,60.0,7.0,0.0
7030,44.0,0.0,60.0,13.0,0.0
7031,32.0,0.0,60.0,14.0,0.0
7032,78.0,30.0,30.0,6.0,0.0
7033,49.0,30.0,60.0,13.0,0.0
7034,37.0,0.0,60.0,14.0,0.0
7035,58.0,0.0,60.0,12.0,0.0
7036,71.0,0.0,60.0,10.0,0.0
7037,77.0,29.0,30.0,6.0,0.0
7038,56.0,1.0,60.0,11.0,0.0
7039,49.0,0.0,60.0,7.0,0.0
7040,75.0,0.0,30.0,6.0,0.0
7041,37.0,0.0,60.0,7.0,0.0
7042,73.0,29.0,30.0,6.0,0.0
7043,65.0,1.0,60.0,11.0,0.0
7044,25.0,0.0,60.0,14.0,0.0
7045,68.0,0.0,60.0,10.0,0.0
7046,59.0,0.0,60.0,12.0,0.0
7047,37.0,0.0,60.0,13.0,0.0
7048,71.0,8.0,30.0,6.0,0.0
7049,54.0,0.0,30.0,5.0,0.0
7050,42.0,0.0,120.0,13.0,0.0
7051,42.0,0.0,120.0,7.0,0.0
7052,30.0,30.0,120.0,14.0,0.0
7053,73.0,7.0,15.0,4.0,0.0
7054,70.0,30.0,30.0,6.0,0.0
7055,75.0,15.0,15.0,4.0,0.0
7056,73.0,30.0,180.0,4.0,0.0
7057,53.0,30.0,30.0,5.0,0.0
7058,73.0,0.0,30.0,6.0,0.0
7059,71.0,0.0,30.0,6.0,0.0
7060,58.0,0.0,60.0,12.0,0.0
7061,66.0,0.0,60.0,10.0,0.0
7062,54.0,30.0,30.0,5.0,0.0
7063,61.0,0.0,60.0,11.0,0.0
7064,70.0,0.0,30.0,6.0,0.0
7065,49.0,0.0,30.0,5.0,0.0
7066,65.0,0.0,60.0,10.0,0.0
7067,56.0,0.0,30.0,5.0,0.0
7068,59.0,0.0,60.0,12.0,0.0
7069,68.0,30.0,30.0,6.0,0.0
7070,59.0,30.0,60.0,11.0,0.0
7071,44.0,0.0,60.0,13.0,0.0
7072,32.0,0.0,60.0,14.0,0.0
7073,66.0,0.0,30.0,6.0,0.0
7074,49.0,0.0,30.0,5.0,0.0
7075,78.0,0.0,60.0,6.0,0.0
7076,34.0,0.0,120.0,14.0,0.0
7077,46.0,0.0,120.0,13.0,0.0
7078,58.0,30.0,60.0,5.0,0.0
7079,75.0,0.0,30.0,4.0,0.0
7080,59.0,0.0,30.0,7.0,0.0
7081,61.0,0.0,60.0,12.0,0.0
7082,58.0,30.0,30.0,7.0,0.0
7083,58.0,0.0,60.0,11.0,0.0
7084,46.0,0.0,60.0,5.0,0.0
7085,73.0,0.0,30.0,4.0,0.0
7086,66.0,0.0,60.0,10.0,0.0
7087,71.0,30.0,30.0,4.0,0.0
7088,56.0,0.0,30.0,7.0,0.0
7089,47.0,0.0,60.0,5.0,0.0
7090,35.0,30.0,60.0,14.0,0.0
7091,54.0,0.0,60.0,11.0,0.0
7092,47.0,0.0,60.0,13.0,0.0
7093,59.0,0.0,60.0,12.0,0.0
7094,58.0,0.0,30.0,7.0,0.0
7095,73.0,30.0,30.0,4.0,0.0
7096,63.0,0.0,60.0,10.0,0.0
7097,75.0,0.0,30.0,4.0,0.0
7098,54.0,0.0,30.0,7.0,0.0
7099,37.0,0.0,120.0,13.0,0.0
7100,49.0,30.0,30.0,5.0,0.0
7101,61.0,0.0,60.0,7.0,0.0
7102,65.0,30.0,210.0,4.0,0.0
7103,25.0,0.0,120.0,14.0,0.0
7104,68.0,0.0,30.0,6.0,0.0
7105,53.0,30.0,30.0,5.0,0.0
7106,61.0,0.0,60.0,10.0,0.0
7107,66.0,30.0,30.0,6.0,0.0
7108,56.0,0.0,60.0,11.0,0.0
7109,53.0,0.0,60.0,12.0,0.0
7110,56.0,0.0,30.0,5.0,0.0
7111,61.0,0.0,30.0,5.0,0.0
7112,65.0,30.0,30.0,6.0,0.0
7113,63.0,0.0,30.0,6.0,0.0
7114,56.0,0.0,60.0,12.0,0.0
7115,59.0,0.0,60.0,11.0,0.0
7116,65.0,30.0,60.0,10.0,0.0
7117,59.0,30.0,30.0,5.0,0.0
7118,37.0,0.0,60.0,14.0,0.0
7119,49.0,0.0,60.0,13.0,0.0
7120,61.0,0.0,30.0,6.0,0.0
7121,58.0,0.0,30.0,5.0,0.0
7122,73.0,0.0,60.0,6.0,0.0
7123,59.0,30.0,60.0,5.0,0.0
7124,47.0,0.0,120.0,13.0,0.0
7125,35.0,0.0,120.0,14.0,0.0
7126,63.0,0.0,30.0,4.0,0.0
7127,56.0,0.0,30.0,7.0,0.0
7128,68.0,0.0,60.0,10.0,0.0
7129,49.0,0.0,30.0,7.0,0.0
7130,61.0,0.0,60.0,11.0,0.0
7131,65.0,30.0,30.0,4.0,0.0
7132,61.0,0.0,60.0,12.0,0.0
7133,47.0,30.0,60.0,5.0,0.0
7134,51.0,0.0,30.0,7.0,0.0
7135,66.0,0.0,30.0,4.0,0.0
7136,53.0,0.0,30.0,7.0,0.0
7137,34.0,0.0,60.0,14.0,0.0
7138,54.0,0.0,60.0,11.0,0.0
7139,73.0,0.0,60.0,10.0,0.0
7140,68.0,30.0,30.0,4.0,0.0
7141,49.0,0.0,60.0,12.0,0.0
7142,46.0,0.0,60.0,5.0,0.0
7143,46.0,0.0,60.0,13.0,0.0
7144,54.0,30.0,30.0,7.0,0.0
7145,70.0,0.0,30.0,4.0,0.0
7146,44.0,0.0,60.0,5.0,0.0
7147,32.0,0.0,120.0,14.0,0.0
7148,71.0,30.0,30.0,4.0,0.0
7149,44.0,0.0,120.0,13.0,0.0
7150,56.0,0.0,60.0,7.0,0.0
7151,75.0,30.0,30.0,4.0,0.0
7152,56.0,0.0,60.0,5.0,0.0
7153,51.0,0.0,60.0,12.0,0.0
7154,56.0,0.0,60.0,6.0,0.0
7155,44.0,0.0,60.0,7.0,0.0
7156,75.0,60.0,60.0,10.0,0.0
7157,73.0,30.0,30.0,4.0,0.0
7158,68.0,0.0,60.0,11.0,0.0
7159,71.0,0.0,30.0,4.0,0.0
7160,30.0,0.0,60.0,14.0,0.0
7161,63.0,0.0,60.0,11.0,0.0
7162,42.0,0.0,60.0,13.0,0.0
7163,54.0,0.0,60.0,5.0,0.0
7164,59.0,0.0,60.0,6.0,0.0
7165,80.0,30.0,90.0,4.0,0.0
7166,71.0,0.0,60.0,10.0,0.0
7167,56.0,30.0,60.0,12.0,0.0
7168,29.0,0.0,60.0,14.0,0.0
7169,53.0,0.0,60.0,5.0,0.0
7170,63.0,30.0,60.0,6.0,0.0
7171,41.0,0.0,60.0,13.0,0.0
7172,78.0,0.0,30.0,4.0,0.0
7173,77.0,30.0,30.0,4.0,0.0
7174,25.0,0.0,60.0,14.0,0.0
7175,68.0,0.0,180.0,6.0,0.0
7176,37.0,0.0,60.0,13.0,0.0
7177,61.0,0.0,60.0,11.0,0.0
7178,56.0,0.0,60.0,12.0,0.0
7179,49.0,0.0,30.0,7.0,0.0
7180,49.0,30.0,60.0,5.0,0.0
7181,68.0,0.0,60.0,10.0,0.0
7182,75.0,0.0,30.0,4.0,0.0
7183,51.0,0.0,30.0,7.0,0.0
7184,53.0,0.0,60.0,12.0,0.0
7185,29.0,0.0,60.0,14.0,0.0
7186,41.0,0.0,60.0,13.0,0.0
7187,73.0,30.0,30.0,4.0,0.0
7188,68.0,0.0,60.0,11.0,0.0
7189,53.0,0.0,60.0,5.0,0.0
7190,53.0,0.0,30.0,7.0,0.0
7191,73.0,30.0,60.0,10.0,0.0
7192,49.0,0.0,30.0,7.0,0.0
7193,71.0,0.0,30.0,4.0,0.0
7194,54.0,0.0,60.0,7.0,0.0
7195,54.0,0.0,60.0,5.0,0.0
7196,30.0,30.0,60.0,14.0,0.0
7197,70.0,30.0,30.0,4.0,0.0
7198,42.0,0.0,60.0,13.0,0.0
7199,73.0,0.0,30.0,4.0,0.0
7200,66.0,0.0,60.0,11.0,0.0
7201,42.0,0.0,60.0,7.0,0.0
7202,75.0,30.0,30.0,4.0,0.0
7203,54.0,0.0,60.0,13.0,0.0
7204,70.0,0.0,60.0,10.0,0.0
7205,42.0,30.0,60.0,5.0,0.0
7206,66.0,0.0,30.0,6.0,0.0
7207,61.0,0.0,60.0,12.0,0.0
7208,42.0,0.0,60.0,14.0,0.0
7209,64.0,0.0,30.0,6.0,0.0
7210,76.0,0.0,30.0,4.0,0.0
7211,52.0,0.0,60.0,13.0,0.0
7212,58.0,0.0,60.0,12.0,0.0
7213,78.0,30.0,90.0,4.0,0.0
7214,40.0,0.0,60.0,14.0,0.0
7215,66.0,30.0,60.0,10.0,0.0
7216,63.0,30.0,30.0,6.0,0.0
7217,70.0,0.0,60.0,11.0,0.0
7218,40.0,0.0,60.0,5.0,0.0
7219,61.0,0.0,30.0,6.0,0.0
7220,39.0,0.0,60.0,5.0,0.0
7221,39.0,0.0,60.0,14.0,0.0
7222,60.0,0.0,60.0,6.0,0.0
7223,51.0,0.0,60.0,13.0,0.0
7224,81.0,30.0,30.0,4.0,0.0
7225,63.0,0.0,60.0,11.0,0.0
7226,48.0,30.0,60.0,5.0,0.0
7227,48.0,0.0,60.0,13.0,0.0
7228,36.0,0.0,60.0,14.0,0.0
7229,60.0,0.0,60.0,12.0,0.0
7230,80.0,30.0,30.0,4.0,0.0
7231,68.0,0.0,60.0,10.0,0.0
7232,78.0,0.0,30.0,4.0,0.0
7233,72.0,0.0,60.0,10.0,0.0
7234,68.0,0.0,60.0,11.0,0.0
7235,63.0,0.0,60.0,12.0,0.0
7236,44.0,0.0,60.0,5.0,0.0
7237,32.0,60.0,60.0,14.0,0.0
7238,76.0,30.0,30.0,4.0,0.0
7239,44.0,0.0,60.0,13.0,0.0
7240,75.0,0.0,30.0,4.0,0.0
7241,37.0,0.0,120.0,14.0,0.0
7242,49.0,0.0,60.0,5.0,0.0
7243,76.0,0.0,60.0,4.0,0.0
7244,49.0,0.0,120.0,13.0,0.0
7245,68.0,30.0,30.0,6.0,0.0
7246,70.0,30.0,30.0,6.0,0.0
7247,64.0,0.0,60.0,11.0,0.0
7248,73.0,0.0,60.0,10.0,0.0
7249,61.0,60.0,60.0,12.0,0.0
7250,49.0,0.0,60.0,7.0,0.0
7251,71.0,0.0,30.0,6.0,0.0
7252,47.0,0.0,60.0,13.0,0.0
7253,73.0,30.0,90.0,6.0,0.0
7254,47.0,0.0,60.0,7.0,0.0
7255,56.0,30.0,60.0,12.0,0.0
7256,35.0,0.0,60.0,14.0,0.0
7257,76.0,0.0,60.0,10.0,0.0
7258,61.0,0.0,60.0,11.0,0.0
7259,46.0,0.0,60.0,13.0,0.0
7260,34.0,0.0,60.0,14.0,0.0
7261,46.0,30.0,60.0,7.0,0.0
7262,76.0,0.0,30.0,6.0,0.0
7263,55.0,0.0,60.0,12.0,0.0
7264,63.0,0.0,60.0,11.0,0.0
7265,31.0,0.0,60.0,14.0,0.0
7266,43.0,0.0,60.0,13.0,0.0
7267,55.0,30.0,60.0,7.0,0.0
7268,75.0,30.0,30.0,6.0,0.0
7269,70.0,0.0,60.0,10.0,0.0
7270,73.0,0.0,30.0,6.0,0.0
7271,67.0,0.0,60.0,11.0,0.0
7272,75.0,0.0,60.0,10.0,0.0
7273,39.0,0.0,60.0,13.0,0.0
7274,58.0,60.0,60.0,12.0,0.0
7275,27.0,0.0,60.0,14.0,0.0
7276,71.0,30.0,30.0,6.0,0.0
7277,51.0,0.0,60.0,7.0,0.0
7278,70.0,0.0,30.0,6.0,0.0
7279,32.0,0.0,120.0,14.0,0.0
7280,71.0,0.0,120.0,6.0,0.0
7281,56.0,0.0,60.0,7.0,0.0
7282,44.0,0.0,120.0,13.0,0.0
7283,63.0,30.0,30.0,4.0,0.0
7284,44.0,0.0,60.0,5.0,0.0
7285,68.0,0.0,60.0,11.0,0.0
7286,71.0,0.0,60.0,10.0,0.0
7287,51.0,0.0,60.0,12.0,0.0
7288,44.0,60.0,60.0,7.0,0.0
7289,68.0,30.0,30.0,4.0,0.0
7290,70.0,0.0,30.0,4.0,0.0
7291,71.0,30.0,90.0,4.0,0.0
7292,63.0,0.0,60.0,11.0,0.0
7293,56.0,0.0,60.0,12.0,0.0
7294,68.0,0.0,60.0,10.0,0.0
7295,42.0,0.0,60.0,13.0,0.0
7296,42.0,30.0,60.0,5.0,0.0
7297,30.0,0.0,60.0,14.0,0.0
7298,40.0,0.0,60.0,5.0,0.0
7299,28.0,0.0,60.0,14.0,0.0
7300,40.0,30.0,60.0,13.0,0.0
7301,75.0,0.0,30.0,4.0,0.0
7302,40.0,0.0,60.0,14.0,0.0
7303,52.0,0.0,60.0,5.0,0.0
7304,68.0,0.0,60.0,11.0,0.0
7305,73.0,30.0,30.0,4.0,0.0
7306,73.0,0.0,60.0,10.0,0.0
7307,52.0,0.0,60.0,13.0,0.0
7308,56.0,30.0,60.0,12.0,0.0
7309,71.0,0.0,30.0,4.0,0.0
7310,76.0,0.0,60.0,10.0,0.0
7311,49.0,0.0,60.0,5.0,0.0
7312,37.0,0.0,60.0,14.0,0.0
7313,49.0,0.0,60.0,13.0,0.0
7314,58.0,0.0,60.0,12.0,0.0
7315,70.0,30.0,30.0,4.0,0.0
7316,73.0,8.0,60.0,11.0,0.0
7317,68.0,0.0,30.0,4.0,0.0
7318,51.0,0.0,120.0,13.0,0.0
7319,67.0,30.0,30.0,4.0,0.0
7320,75.0,7.0,15.0,6.0,0.0
7321,39.0,0.0,120.0,14.0,0.0
7322,51.0,0.0,120.0,5.0,0.0
7323,39.0,0.0,30.0,7.0,0.0
7324,76.0,15.0,15.0,6.0,0.0
7325,75.0,30.0,180.0,6.0,0.0
7326,70.0,0.0,30.0,4.0,0.0
7327,43.0,30.0,30.0,7.0,0.0
7328,68.0,0.0,30.0,4.0,0.0
7329,58.0,0.0,60.0,12.0,0.0
7330,46.0,30.0,30.0,7.0,0.0
7331,70.0,30.0,60.0,11.0,0.0
7332,75.0,0.0,60.0,10.0,0.0
7333,67.0,0.0,30.0,4.0,0.0
7334,51.0,0.0,30.0,7.0,0.0
7335,63.0,0.0,60.0,12.0,0.0
7336,49.0,0.0,60.0,13.0,0.0
7337,37.0,0.0,60.0,14.0,0.0
7338,65.0,0.0,30.0,4.0,0.0
7339,70.0,30.0,60.0,10.0,0.0
7340,67.0,0.0,60.0,11.0,0.0
7341,49.0,30.0,30.0,7.0,0.0
7342,46.0,0.0,30.0,7.0,0.0
7343,63.0,0.0,30.0,4.0,0.0
7344,35.0,30.0,120.0,14.0,0.0
7345,47.0,30.0,60.0,7.0,0.0
7346,47.0,0.0,120.0,13.0,0.0
7347,75.0,0.0,60.0,4.0,0.0
7348,61.0,0.0,30.0,5.0,0.0
7349,76.0,0.0,30.0,6.0,0.0
7350,56.0,0.0,60.0,12.0,0.0
7351,63.0,0.0,60.0,11.0,0.0
7352,35.0,0.0,60.0,7.0,0.0
7353,59.0,0.0,30.0,5.0,0.0
7354,75.0,30.0,30.0,6.0,0.0
7355,68.0,0.0,60.0,10.0,0.0
7356,58.0,0.0,30.0,5.0,0.0
7357,73.0,0.0,30.0,6.0,0.0
7358,32.0,0.0,60.0,14.0,0.0
7359,32.0,30.0,60.0,7.0,0.0
7360,71.0,0.0,60.0,10.0,0.0
7361,75.0,0.0,30.0,6.0,0.0
7362,51.0,0.0,60.0,12.0,0.0
7363,59.0,30.0,30.0,5.0,0.0
7364,44.0,0.0,60.0,13.0,0.0
7365,68.0,0.0,60.0,11.0,0.0
7366,76.0,0.0,30.0,6.0,0.0
7367,56.0,0.0,30.0,5.0,0.0
7368,39.0,0.0,120.0,13.0,0.0
7369,27.0,0.0,120.0,14.0,0.0
7370,63.0,30.0,60.0,5.0,0.0
7371,67.0,30.0,210.0,6.0,0.0
7372,39.0,30.0,30.0,7.0,0.0
7373,76.0,0.0,30.0,4.0,0.0
7374,46.0,0.0,30.0,7.0,0.0
7375,75.0,30.0,30.0,4.0,0.0
7376,67.0,0.0,60.0,11.0,0.0
7377,70.0,0.0,60.0,10.0,0.0
7378,49.0,0.0,30.0,7.0,0.0
7379,63.0,30.0,60.0,12.0,0.0
7380,73.0,0.0,30.0,4.0,0.0
7381,52.0,0.0,30.0,7.0,0.0
7382,71.0,30.0,30.0,4.0,0.0
7383,51.0,0.0,60.0,12.0,0.0
7384,63.0,30.0,60.0,11.0,0.0
7385,51.0,0.0,60.0,13.0,0.0
7386,67.0,0.0,60.0,10.0,0.0
7387,51.0,0.0,30.0,7.0,0.0
7388,39.0,0.0,60.0,14.0,0.0
7389,70.0,0.0,30.0,4.0,0.0
7390,49.0,0.0,30.0,7.0,0.0
7391,37.0,0.0,120.0,14.0,0.0
7392,51.0,0.0,60.0,7.0,0.0
7393,82.0,0.0,60.0,4.0,0.0
7394,49.0,30.0,120.0,13.0,0.0
7395,65.0,30.0,30.0,6.0,0.0
7396,59.0,0.0,30.0,5.0,0.0
7397,49.0,0.0,60.0,7.0,0.0
7398,58.0,0.0,60.0,11.0,0.0
7399,63.0,0.0,60.0,10.0,0.0
7400,58.0,30.0,30.0,5.0,0.0
7401,67.0,0.0,30.0,6.0,0.0
7402,58.0,0.0,60.0,12.0,0.0
7403,68.0,0.0,30.0,6.0,0.0
7404,56.0,0.0,30.0,5.0,0.0
7405,47.0,0.0,60.0,7.0,0.0
7406,56.0,0.0,60.0,12.0,0.0
7407,70.0,30.0,30.0,6.0,0.0
7408,68.0,30.0,60.0,10.0,0.0
7409,35.0,0.0,60.0,14.0,0.0
7410,63.0,0.0,60.0,11.0,0.0
7411,55.0,0.0,30.0,5.0,0.0
7412,47.0,0.0,60.0,13.0,0.0
7413,56.0,0.0,30.0,5.0,0.0
7414,71.0,0.0,30.0,6.0,0.0
7415,34.0,0.0,120.0,14.0,0.0
7416,52.0,30.0,60.0,5.0,0.0
7417,46.0,60.0,120.0,13.0,0.0
7418,46.0,0.0,60.0,7.0,0.0
7419,73.0,30.0,30.0,6.0,0.0
7420,76.0,0.0,30.0,6.0,0.0
7421,75.0,30.0,30.0,6.0,0.0
7422,64.0,0.0,60.0,12.0,0.0
7423,58.0,0.0,60.0,7.0,0.0
7424,67.0,0.0,60.0,10.0,0.0
7425,61.0,0.0,60.0,11.0,0.0
7426,64.0,0.0,60.0,5.0,0.0
7427,73.0,0.0,30.0,6.0,0.0
7428,82.0,30.0,90.0,6.0,0.0
7429,32.0,0.0,60.0,14.0,0.0
7430,64.0,0.0,60.0,11.0,0.0
7431,73.0,0.0,60.0,10.0,0.0
7432,44.0,30.0,60.0,13.0,0.0
7433,56.0,0.0,60.0,7.0,0.0
7434,61.0,0.0,60.0,12.0,0.0
7435,43.0,0.0,60.0,13.0,0.0
7436,55.0,0.0,60.0,7.0,0.0
7437,31.0,0.0,60.0,14.0,0.0
7438,80.0,30.0,30.0,6.0,0.0
7439,79.0,30.0,30.0,6.0,0.0
7440,58.0,0.0,60.0,11.0,0.0
7441,58.0,0.0,60.0,12.0,0.0
7442,75.0,0.0,60.0,10.0,0.0
7443,58.0,0.0,60.0,7.0,0.0
7444,27.0,30.0,60.0,14.0,0.0
7445,39.0,0.0,60.0,13.0,0.0
7446,51.0,0.0,30.0,5.0,0.0
7447,77.0,0.0,30.0,6.0,0.0
7448,53.0,0.0,30.0,5.0,0.0
7449,55.0,30.0,30.0,5.0,0.0
7450,70.0,0.0,60.0,10.0,0.0
7451,43.0,0.0,60.0,13.0,0.0
7452,55.0,0.0,60.0,12.0,0.0
7453,75.0,0.0,30.0,6.0,0.0
7454,63.0,0.0,60.0,11.0,0.0
7455,51.0,0.0,60.0,7.0,0.0
7456,31.0,8.0,60.0,14.0,0.0
7457,73.0,0.0,30.0,6.0,0.0
7458,51.0,0.0,30.0,5.0,0.0
7459,71.0,0.0,30.0,6.0,0.0
7460,75.0,7.0,15.0,4.0,0.0
7461,44.0,0.0,120.0,13.0,0.0
7462,32.0,30.0,120.0,14.0,0.0
7463,56.0,30.0,30.0,5.0,0.0
7464,56.0,0.0,60.0,7.0,0.0
7465,76.0,15.0,15.0,4.0,0.0
7466,75.0,30.0,180.0,4.0,0.0
7467,55.0,0.0,30.0,5.0,0.0
7468,63.0,30.0,30.0,6.0,0.0
7469,71.0,0.0,60.0,10.0,0.0
7470,61.0,0.0,30.0,6.0,0.0
7471,63.0,0.0,60.0,11.0,0.0
7472,51.0,0.0,60.0,12.0,0.0
7473,56.0,30.0,30.0,5.0,0.0
7474,44.0,0.0,60.0,7.0,0.0
7475,51.0,0.0,30.0,5.0,0.0
7476,59.0,0.0,30.0,6.0,0.0
7477,58.0,30.0,30.0,5.0,0.0
7478,61.0,0.0,60.0,11.0,0.0
7479,58.0,0.0,30.0,6.0,0.0
7480,67.0,0.0,60.0,10.0,0.0
7481,58.0,0.0,60.0,12.0,0.0
7482,46.0,0.0,60.0,7.0,0.0
7483,34.0,0.0,60.0,14.0,0.0
7484,46.0,0.0,60.0,13.0,0.0
7485,56.0,30.0,30.0,6.0,0.0
7486,51.0,0.0,30.0,5.0,0.0
7487,59.0,0.0,60.0,5.0,0.0
7488,35.0,0.0,120.0,14.0,0.0
7489,47.0,0.0,60.0,7.0,0.0
7490,47.0,0.0,120.0,13.0,0.0
7491,68.0,30.0,60.0,6.0,0.0
7492,76.0,0.0,30.0,4.0,0.0
7493,47.0,0.0,60.0,5.0,0.0
7494,44.0,0.0,60.0,7.0,0.0
7495,63.0,0.0,60.0,11.0,0.0
7496,56.0,0.0,60.0,12.0,0.0
7497,75.0,30.0,30.0,4.0,0.0
7498,68.0,0.0,60.0,10.0,0.0
7499,73.0,30.0,30.0,4.0,0.0
7500,64.0,0.0,60.0,10.0,0.0
7501,52.0,0.0,60.0,7.0,0.0
7502,49.0,0.0,60.0,5.0,0.0
7503,75.0,30.0,30.0,4.0,0.0
7504,49.0,0.0,60.0,13.0,0.0
7505,61.0,0.0,60.0,11.0,0.0
7506,37.0,0.0,60.0,14.0,0.0
7507,56.0,29.0,60.0,12.0,0.0
7508,76.0,0.0,30.0,4.0,0.0
7509,27.0,0.0,120.0,14.0,0.0
7510,51.0,0.0,60.0,7.0,0.0
7511,39.0,0.0,120.0,13.0,0.0
7512,67.0,30.0,210.0,4.0,0.0
7513,51.0,30.0,30.0,5.0,0.0
7514,55.0,0.0,30.0,5.0,0.0
7515,70.0,30.0,30.0,6.0,0.0
7516,58.0,0.0,60.0,11.0,0.0
7517,63.0,30.0,60.0,10.0,0.0
7518,51.0,0.0,60.0,12.0,0.0
7519,58.0,0.0,30.0,5.0,0.0
7520,68.0,30.0,30.0,6.0,0.0
7521,67.0,0.0,30.0,6.0,0.0
7522,63.0,0.0,30.0,5.0,0.0
7523,65.0,0.0,30.0,6.0,0.0
7524,58.0,0.0,60.0,12.0,0.0
7525,51.0,0.0,60.0,13.0,0.0
7526,39.0,0.0,60.0,14.0,0.0
7527,61.0,0.0,60.0,11.0,0.0
7528,67.0,0.0,60.0,10.0,0.0
7529,61.0,30.0,30.0,5.0,0.0
7530,63.0,0.0,30.0,6.0,0.0
7531,59.0,30.0,30.0,5.0,0.0
7532,61.0,0.0,60.0,5.0,0.0
7533,49.0,0.0,120.0,13.0,0.0
7534,37.0,0.0,120.0,14.0,0.0
7535,75.0,30.0,60.0,6.0,0.0
7536,58.0,0.0,30.0,7.0,0.0
7537,65.0,0.0,30.0,4.0,0.0
7538,67.0,30.0,30.0,4.0,0.0
7539,63.0,0.0,60.0,11.0,0.0
7540,63.0,0.0,60.0,12.0,0.0
7541,70.0,0.0,60.0,10.0,0.0
7542,51.0,0.0,30.0,7.0,0.0
7543,49.0,0.0,60.0,5.0,0.0
7544,68.0,0.0,30.0,4.0,0.0
7545,53.0,30.0,30.0,7.0,0.0
7546,35.0,0.0,60.0,14.0,0.0
7547,51.0,30.0,60.0,12.0,0.0
7548,55.0,0.0,30.0,7.0,0.0
7549,75.0,0.0,60.0,10.0,0.0
7550,56.0,0.0,60.0,11.0,0.0
7551,47.0,0.0,60.0,13.0,0.0
7552,70.0,30.0,30.0,4.0,0.0
7553,47.0,0.0,60.0,5.0,0.0
7554,71.0,0.0,30.0,4.0,0.0
7555,56.0,0.0,30.0,7.0,0.0
7556,34.0,60.0,120.0,14.0,0.0
7557,73.0,30.0,30.0,4.0,0.0
7558,46.0,0.0,120.0,13.0,0.0
7559,58.0,30.0,60.0,7.0,0.0
7560,46.0,0.0,60.0,5.0,0.0
7561,76.0,0.0,30.0,4.0,0.0
7562,46.0,0.0,60.0,7.0,0.0
7563,61.0,0.0,60.0,12.0,0.0
7564,75.0,30.0,30.0,4.0,0.0
7565,76.0,0.0,60.0,10.0,0.0
7566,58.0,0.0,60.0,6.0,0.0
7567,58.0,0.0,60.0,11.0,0.0
7568,58.0,0.0,60.0,5.0,0.0
7569,73.0,0.0,30.0,4.0,0.0
7570,61.0,30.0,60.0,6.0,0.0
7571,73.0,0.0,60.0,10.0,0.0
7572,82.0,30.0,90.0,4.0,0.0
7573,32.0,0.0,60.0,14.0,0.0
7574,56.0,0.0,60.0,5.0,0.0
7575,44.0,0.0,60.0,13.0,0.0
7576,64.0,0.0,60.0,11.0,0.0
7577,58.0,0.0,60.0,12.0,0.0
7578,55.0,0.0,60.0,5.0,0.0
7579,64.0,0.0,60.0,6.0,0.0
7580,43.0,0.0,60.0,13.0,0.0
7581,31.0,0.0,60.0,14.0,0.0
7582,80.0,30.0,30.0,4.0,0.0
7583,39.0,0.0,60.0,13.0,0.0
7584,63.0,0.0,60.0,11.0,0.0
7585,39.0,0.0,30.0,7.0,0.0
7586,79.0,0.0,30.0,4.0,0.0
7587,71.0,30.0,30.0,6.0,0.0
7588,27.0,0.0,60.0,14.0,0.0
7589,58.0,0.0,60.0,12.0,0.0
7590,51.0,0.0,60.0,5.0,0.0
7591,70.0,0.0,60.0,10.0,0.0
7592,70.0,30.0,120.0,6.0,0.0
7593,77.0,0.0,30.0,4.0,0.0
7594,41.0,30.0,30.0,7.0,0.0
7595,70.0,0.0,60.0,11.0,0.0
7596,75.0,0.0,30.0,4.0,0.0
7597,31.0,0.0,60.0,14.0,0.0
7598,55.0,0.0,60.0,12.0,0.0
7599,43.0,30.0,30.0,7.0,0.0
7600,75.0,0.0,60.0,10.0,0.0
7601,55.0,0.0,60.0,5.0,0.0
7602,43.0,30.0,60.0,13.0,0.0
7603,39.0,0.0,30.0,7.0,0.0
7604,73.0,0.0,30.0,4.0,0.0
7605,44.0,0.0,60.0,7.0,0.0
7606,32.0,0.0,120.0,14.0,0.0
7607,71.0,30.0,210.0,4.0,0.0
7608,44.0,0.0,120.0,13.0,0.0
7609,56.0,30.0,60.0,5.0,0.0
7610,71.0,0.0,30.0,6.0,0.0
7611,75.0,30.0,60.0,10.0,0.0
7612,70.0,30.0,30.0,6.0,0.0
7613,71.0,0.0,60.0,11.0,0.0
7614,44.0,0.0,60.0,5.0,0.0
7615,56.0,0.0,60.0,7.0,0.0
7616,51.0,0.0,60.0,12.0,0.0
7617,68.0,0.0,30.0,6.0,0.0
7618,70.0,30.0,30.0,6.0,0.0
7619,54.0,0.0,60.0,7.0,0.0
7620,30.0,30.0,60.0,14.0,0.0
7621,42.0,0.0,60.0,5.0,0.0
7622,70.0,0.0,60.0,11.0,0.0
7623,54.0,0.0,60.0,12.0,0.0
7624,63.0,0.0,60.0,10.0,0.0
7625,42.0,0.0,60.0,13.0,0.0
7626,71.0,0.0,30.0,6.0,0.0
7627,28.0,0.0,120.0,14.0,0.0
7628,40.0,0.0,120.0,13.0,0.0
7629,40.0,30.0,60.0,5.0,0.0
7630,52.0,0.0,60.0,7.0,0.0
7631,68.0,30.0,210.0,6.0,0.0
7632,73.0,0.0,30.0,4.0,0.0
7633,68.0,0.0,60.0,10.0,0.0
7634,40.0,0.0,60.0,7.0,0.0
7635,68.0,0.0,60.0,11.0,0.0
7636,56.0,30.0,60.0,12.0,0.0
7637,71.0,30.0,30.0,4.0,0.0
7638,52.0,0.0,60.0,5.0,0.0
7639,70.0,0.0,30.0,4.0,0.0
7640,71.0,0.0,60.0,10.0,0.0
7641,51.0,0.0,60.0,5.0,0.0
7642,66.0,0.0,60.0,11.0,0.0
7643,39.0,30.0,60.0,7.0,0.0
7644,63.0,0.0,60.0,12.0,0.0
7645,39.0,0.0,60.0,13.0,0.0
7646,27.0,0.0,60.0,14.0,0.0
7647,71.0,30.0,30.0,4.0,0.0
7648,73.0,0.0,30.0,4.0,0.0
7649,49.0,30.0,60.0,5.0,0.0
7650,25.0,0.0,120.0,14.0,0.0
7651,70.0,30.0,210.0,4.0,0.0
7652,37.0,0.0,60.0,7.0,0.0
7653,37.0,0.0,120.0,13.0,0.0
7654,70.0,0.0,30.0,6.0,0.0
7655,49.0,0.0,60.0,7.0,0.0
7656,68.0,30.0,30.0,6.0,0.0
7657,37.0,0.0,60.0,5.0,0.0
7658,64.0,30.0,60.0,11.0,0.0
7659,58.0,0.0,60.0,12.0,0.0
7660,76.0,0.0,60.0,10.0,0.0
7661,67.0,0.0,30.0,6.0,0.0
7662,37.0,0.0,60.0,14.0,0.0
7663,70.0,0.0,60.0,10.0,0.0
7664,37.0,0.0,60.0,7.0,0.0
7665,64.0,0.0,60.0,12.0,0.0
7666,49.0,0.0,60.0,13.0,0.0
7667,61.0,0.0,60.0,11.0,0.0
7668,49.0,0.0,60.0,5.0,0.0
7669,68.0,30.0,30.0,6.0,0.0
7670,70.0,30.0,30.0,6.0,0.0
7671,51.0,30.0,60.0,5.0,0.0
7672,51.0,0.0,120.0,13.0,0.0
7673,39.0,0.0,120.0,14.0,0.0
7674,39.0,0.0,60.0,7.0,0.0
7675,71.0,30.0,210.0,6.0,0.0
7676,71.0,0.0,30.0,4.0,0.0
7677,59.0,0.0,60.0,12.0,0.0
7678,51.0,0.0,60.0,7.0,0.0
7679,67.0,0.0,60.0,10.0,0.0
7680,59.0,30.0,60.0,11.0,0.0
7681,70.0,30.0,30.0,4.0,0.0
7682,39.0,0.0,60.0,5.0,0.0
7683,68.0,0.0,30.0,4.0,0.0
7684,39.0,0.0,60.0,7.0,0.0
7685,63.0,0.0,60.0,10.0,0.0
7686,27.0,30.0,60.0,14.0,0.0
7687,51.0,0.0,60.0,5.0,0.0
7688,63.0,0.0,60.0,12.0,0.0
7689,39.0,0.0,60.0,13.0,0.0
7690,70.0,30.0,30.0,4.0,0.0
7691,68.0,0.0,60.0,11.0,0.0
7692,71.0,0.0,30.0,4.0,0.0
7693,52.0,0.0,60.0,5.0,0.0
7694,73.0,0.0,30.0,4.0,0.0
7695,28.0,0.0,120.0,14.0,0.0
7696,40.0,0.0,120.0,13.0,0.0
7697,40.0,0.0,60.0,7.0,0.0
7698,76.0,0.0,30.0,4.0,0.0
7699,73.0,30.0,30.0,6.0,0.0
7700,75.0,0.0,30.0,4.0,0.0
7701,71.0,30.0,30.0,6.0,0.0
7702,52.0,0.0,60.0,7.0,0.0
7703,68.0,0.0,60.0,11.0,0.0
7704,40.0,0.0,60.0,5.0,0.0
7705,64.0,30.0,60.0,12.0,0.0
7706,56.0,0.0,60.0,10.0,0.0
7707,70.0,0.0,30.0,6.0,0.0
7708,73.0,0.0,30.0,4.0,0.0
7709,40.0,0.0,60.0,7.0,0.0
7710,75.0,0.0,30.0,4.0,0.0
7711,40.0,0.0,60.0,14.0,0.0
7712,61.0,0.0,60.0,12.0,0.0
7713,71.0,30.0,30.0,6.0,0.0
7714,56.0,0.0,60.0,11.0,0.0
7715,52.0,0.0,60.0,5.0,0.0
7716,52.0,0.0,60.0,13.0,0.0
7717,68.0,0.0,60.0,10.0,0.0
7718,73.0,30.0,30.0,6.0,0.0
7719,76.0,0.0,30.0,4.0,0.0
7720,51.0,30.0,60.0,5.0,0.0
7721,39.0,30.0,120.0,14.0,0.0
7722,39.0,0.0,60.0,7.0,0.0
7723,75.0,30.0,30.0,6.0,0.0
7724,68.0,30.0,210.0,4.0,0.0
7725,51.0,0.0,120.0,13.0,0.0
7726,76.0,0.0,30.0,6.0,0.0
7727,71.0,0.0,60.0,10.0,0.0
7728,68.0,0.0,60.0,12.0,0.0
7729,75.0,30.0,30.0,6.0,0.0
7730,51.0,0.0,60.0,7.0,0.0
7731,63.0,0.0,60.0,11.0,0.0
7732,39.0,0.0,60.0,5.0,0.0
7733,73.0,0.0,30.0,6.0,0.0
7734,37.0,0.0,60.0,5.0,0.0
7735,49.0,30.0,60.0,13.0,0.0
7736,64.0,0.0,60.0,12.0,0.0
7737,37.0,0.0,60.0,14.0,0.0
7738,75.0,30.0,30.0,6.0,0.0
7739,70.0,0.0,60.0,10.0,0.0
7740,49.0,0.0,60.0,7.0,0.0
7741,58.0,0.0,60.0,11.0,0.0
7742,76.0,0.0,30.0,6.0,0.0
7743,39.0,0.0,60.0,5.0,0.0
7744,51.0,0.0,120.0,13.0,0.0
7745,39.0,0.0,120.0,14.0,0.0
7746,51.0,0.0,60.0,7.0,0.0
7747,71.0,0.0,180.0,6.0,0.0
7748,70.0,30.0,30.0,4.0,0.0
7749,51.0,0.0,60.0,5.0,0.0
7750,68.0,0.0,60.0,12.0,0.0
7751,39.0,0.0,60.0,7.0,0.0
7752,68.0,30.0,30.0,4.0,0.0
7753,71.0,0.0,60.0,10.0,0.0
7754,63.0,0.0,60.0,11.0,0.0
7755,67.0,30.0,30.0,4.0,0.0
7756,68.0,0.0,60.0,11.0,0.0
7757,49.0,0.0,60.0,13.0,0.0
7758,37.0,0.0,60.0,7.0,0.0
7759,76.0,0.0,60.0,10.0,0.0
7760,49.0,0.0,60.0,5.0,0.0
7761,68.0,30.0,30.0,4.0,0.0
7762,64.0,0.0,60.0,12.0,0.0
7763,37.0,0.0,60.0,14.0,0.0
7764,70.0,60.0,30.0,4.0,0.0
7765,39.0,0.0,60.0,7.0,0.0
7766,67.0,0.0,120.0,4.0,0.0
7767,51.0,60.0,60.0,5.0,0.0
7768,39.0,60.0,120.0,14.0,0.0
7769,70.0,0.0,120.0,6.0,0.0
7770,51.0,0.0,120.0,13.0,0.0
7771,58.0,0.0,60.0,12.0,0.0
7772,51.0,0.0,60.0,7.0,0.0
7773,67.0,0.0,60.0,11.0,0.0
7774,39.0,0.0,60.0,5.0,0.0
7775,75.0,0.0,60.0,10.0,0.0
7776,70.0,0.0,60.0,11.0,0.0
7777,39.0,0.0,60.0,13.0,0.0
7778,73.0,0.0,60.0,10.0,0.0
7779,68.0,0.0,60.0,4.0,0.0
7780,68.0,0.0,60.0,6.0,0.0
7781,27.0,30.0,60.0,14.0,0.0
7782,63.0,0.0,60.0,12.0,0.0
7783,39.0,0.0,60.0,7.0,0.0
7784,51.0,0.0,60.0,5.0,0.0
7785,44.0,30.0,60.0,5.0,0.0
7786,68.0,0.0,180.0,4.0,0.0
7787,68.0,30.0,30.0,6.0,0.0
7788,32.0,0.0,120.0,14.0,0.0
7789,44.0,0.0,120.0,13.0,0.0
7790,44.0,0.0,60.0,7.0,0.0
7791,63.0,0.0,30.0,6.0,0.0
7792,65.0,30.0,30.0,6.0,0.0
7793,63.0,0.0,60.0,12.0,0.0
7794,71.0,30.0,60.0,10.0,0.0
7795,56.0,0.0,60.0,5.0,0.0
7796,56.0,0.0,150.0,7.0,0.0
7797,68.0,0.0,60.0,11.0,0.0
7798,67.0,0.0,30.0,6.0,0.0
7799,30.0,0.0,60.0,14.0,0.0
7800,59.0,0.0,60.0,12.0,0.0
7801,54.0,0.0,60.0,5.0,0.0
7802,71.0,0.0,60.0,11.0,0.0
7803,42.0,0.0,60.0,13.0,0.0
7804,68.0,30.0,30.0,6.0,0.0
7805,75.0,30.0,60.0,10.0,0.0
7806,70.0,0.0,30.0,6.0,0.0
7807,71.0,30.0,30.0,6.0,0.0
7808,53.0,0.0,60.0,5.0,0.0
7809,41.0,30.0,120.0,13.0,0.0
7810,29.0,0.0,120.0,14.0,0.0
7811,58.0,30.0,30.0,7.0,0.0
7812,73.0,0.0,30.0,6.0,0.0
7813,56.0,0.0,30.0,7.0,0.0
7814,68.0,0.0,60.0,10.0,0.0
7815,41.0,0.0,60.0,5.0,0.0
7816,71.0,30.0,30.0,6.0,0.0
7817,59.0,0.0,60.0,12.0,0.0
7818,61.0,0.0,60.0,11.0,0.0
7819,54.0,0.0,30.0,7.0,0.0
7820,70.0,0.0,30.0,6.0,0.0
7821,71.0,0.0,30.0,6.0,0.0
7822,56.0,30.0,30.0,7.0,0.0
7823,71.0,0.0,60.0,10.0,0.0
7824,39.0,0.0,60.0,5.0,0.0
7825,54.0,0.0,60.0,12.0,0.0
7826,27.0,0.0,60.0,14.0,0.0
7827,63.0,0.0,60.0,11.0,0.0
7828,39.0,0.0,60.0,13.0,0.0
7829,71.0,30.0,90.0,4.0,0.0
7830,68.0,30.0,30.0,6.0,0.0
7831,59.0,0.0,30.0,7.0,0.0
7832,37.0,0.0,60.0,5.0,0.0
7833,65.0,0.0,60.0,6.0,0.0
7834,61.0,30.0,60.0,7.0,0.0
7835,37.0,0.0,120.0,13.0,0.0
7836,25.0,0.0,120.0,14.0,0.0
7837,68.0,0.0,30.0,4.0,0.0
7838,49.0,30.0,60.0,7.0,0.0
7839,68.0,0.0,60.0,11.0,0.0
7840,56.0,0.0,60.0,6.0,0.0
7841,53.0,0.0,150.0,5.0,0.0
7842,73.0,30.0,30.0,4.0,0.0
7843,65.0,0.0,60.0,10.0,0.0
7844,61.0,0.0,60.0,12.0,0.0
7845,75.0,0.0,30.0,4.0,0.0
7846,77.0,30.0,30.0,4.0,0.0
7847,65.0,0.0,60.0,11.0,0.0
7848,61.0,0.0,60.0,6.0,0.0
7849,68.0,0.0,60.0,10.0,0.0
7850,35.0,0.0,60.0,14.0,0.0
7851,47.0,0.0,60.0,13.0,0.0
7852,56.0,0.0,60.0,12.0,0.0
7853,47.0,0.0,60.0,7.0,0.0
7854,78.0,30.0,30.0,4.0,0.0
7855,46.0,0.0,120.0,13.0,0.0
7856,34.0,0.0,120.0,14.0,0.0
7857,65.0,0.0,60.0,6.0,0.0
7858,80.0,30.0,30.0,4.0,0.0
7859,46.0,0.0,60.0,7.0,0.0
7860,54.0,0.0,30.0,5.0,0.0
7861,82.0,30.0,30.0,4.0,0.0
7862,80.0,0.0,30.0,4.0,0.0
7863,53.0,30.0,30.0,5.0,0.0
7864,61.0,0.0,60.0,12.0,0.0
7865,71.0,30.0,150.0,6.0,0.0
7866,58.0,0.0,60.0,7.0,0.0
7867,53.0,0.0,60.0,11.0,0.0
7868,61.0,30.0,60.0,10.0,0.0
7869,51.0,0.0,30.0,5.0,0.0
7870,78.0,0.0,30.0,4.0,0.0
7871,32.0,0.0,60.0,14.0,0.0
7872,59.0,0.0,60.0,12.0,0.0
7873,44.0,0.0,60.0,13.0,0.0
7874,65.0,30.0,60.0,10.0,0.0
7875,56.0,0.0,60.0,11.0,0.0
7876,56.0,0.0,60.0,7.0,0.0
7877,80.0,0.0,30.0,4.0,0.0
7878,53.0,30.0,30.0,5.0,0.0
7879,49.0,0.0,30.0,5.0,0.0
7880,77.0,0.0,30.0,4.0,0.0
7881,42.0,0.0,120.0,13.0,0.0
7882,30.0,0.0,120.0,14.0,0.0
7883,73.0,0.0,60.0,4.0,0.0
7884,54.0,30.0,60.0,7.0,0.0
7885,42.0,0.0,60.0,5.0,0.0
7886,65.0,0.0,30.0,6.0,0.0
7887,58.0,30.0,150.0,7.0,0.0
7888,54.0,0.0,60.0,5.0,0.0
7889,70.0,0.0,60.0,10.0,0.0
7890,66.0,30.0,30.0,6.0,0.0
7891,61.0,0.0,60.0,4.0,0.0
7892,61.0,0.0,60.0,11.0,0.0
7893,66.0,0.0,60.0,12.0,0.0
7894,68.0,30.0,30.0,6.0,0.0
7895,61.0,0.0,60.0,12.0,0.0
7896,40.0,0.0,60.0,13.0,0.0
7897,28.0,0.0,60.0,14.0,0.0
7898,58.0,0.0,60.0,11.0,0.0
7899,66.0,0.0,60.0,4.0,0.0
7900,66.0,0.0,60.0,10.0,0.0
7901,70.0,30.0,30.0,6.0,0.0
7902,52.0,0.0,60.0,5.0,0.0
7903,71.0,30.0,30.0,6.0,0.0
7904,73.0,0.0,30.0,6.0,0.0
7905,70.0,0.0,60.0,4.0,0.0
7906,51.0,0.0,60.0,5.0,0.0
7907,39.0,0.0,120.0,13.0,0.0
7908,27.0,0.0,120.0,14.0,0.0
7909,59.0,30.0,30.0,7.0,0.0
7910,75.0,0.0,30.0,6.0,0.0
7911,54.0,0.0,60.0,12.0,0.0
7912,39.0,0.0,60.0,5.0,0.0
7913,63.0,0.0,60.0,11.0,0.0
7914,73.0,0.0,30.0,6.0,0.0
7915,58.0,30.0,30.0,7.0,0.0
7916,73.0,30.0,150.0,4.0,0.0
7917,78.0,0.0,60.0,10.0,0.0
7918,56.0,0.0,30.0,7.0,0.0
7919,71.0,30.0,30.0,6.0,0.0
7920,76.0,0.0,60.0,10.0,0.0
7921,25.0,0.0,60.0,14.0,0.0
7922,73.0,30.0,30.0,6.0,0.0
7923,58.0,30.0,60.0,12.0,0.0
7924,37.0,0.0,60.0,13.0,0.0
7925,37.0,0.0,60.0,5.0,0.0
7926,58.0,0.0,30.0,7.0,0.0
7927,64.0,0.0,60.0,11.0,0.0
7928,70.0,0.0,30.0,6.0,0.0
7929,54.0,0.0,30.0,7.0,0.0
7930,35.0,0.0,120.0,13.0,0.0
7931,23.0,0.0,120.0,14.0,0.0
7932,47.0,0.0,60.0,7.0,0.0
7933,66.0,30.0,60.0,6.0,0.0
7934,35.0,0.0,60.0,5.0,0.0
7935,66.0,0.0,30.0,4.0,0.0
7936,59.0,30.0,60.0,12.0,0.0
7937,71.0,30.0,30.0,4.0,0.0
7938,66.0,0.0,60.0,11.0,0.0
7939,59.0,0.0,60.0,7.0,0.0
7940,51.0,30.0,150.0,5.0,0.0
7941,75.0,0.0,60.0,10.0,0.0
7942,63.0,0.0,60.0,6.0,0.0
7943,73.0,0.0,30.0,4.0,0.0
7944,58.0,0.0,60.0,7.0,0.0
7945,34.0,0.0,60.0,14.0,0.0
7946,71.0,0.0,60.0,10.0,0.0
7947,75.0,30.0,30.0,4.0,0.0
7948,63.0,30.0,60.0,11.0,0.0
7949,66.0,0.0,60.0,6.0,0.0
7950,54.0,0.0,60.0,12.0,0.0
7951,46.0,0.0,60.0,13.0,0.0
7952,76.0,0.0,30.0,4.0,0.0
7953,78.0,0.0,30.0,4.0,0.0
7954,56.0,30.0,60.0,7.0,0.0
7955,32.0,0.0,120.0,14.0,0.0
7956,71.0,0.0,60.0,6.0,0.0
7957,44.0,30.0,120.0,13.0,0.0
7958,80.0,0.0,30.0,4.0,0.0
7959,52.0,0.0,30.0,5.0,0.0
7960,63.0,0.0,60.0,11.0,0.0
7961,59.0,0.0,60.0,12.0,0.0
7962,75.0,0.0,180.0,6.0,0.0
7963,51.0,0.0,30.0,5.0,0.0
7964,71.0,0.0,60.0,10.0,0.0
7965,78.0,30.0,30.0,4.0,0.0
7966,44.0,0.0,60.0,7.0,0.0
7967,76.0,0.0,30.0,4.0,0.0
7968,49.0,0.0,30.0,5.0,0.0
7969,63.0,0.0,60.0,12.0,0.0
7970,42.0,0.0,60.0,13.0,0.0
7971,68.0,0.0,60.0,10.0,0.0
7972,51.0,0.0,30.0,5.0,0.0
7973,78.0,30.0,30.0,4.0,0.0
7974,42.0,0.0,60.0,7.0,0.0
7975,59.0,0.0,60.0,11.0,0.0
7976,30.0,30.0,60.0,14.0,0.0
7977,54.0,0.0,30.0,5.0,0.0
7978,75.0,0.0,30.0,4.0,0.0
7979,56.0,0.0,60.0,5.0,0.0
7980,29.0,0.0,60.0,14.0,0.0
7981,71.0,0.0,30.0,4.0,0.0
7982,41.0,30.0,30.0,7.0,0.0
7983,41.0,30.0,60.0,13.0,0.0
7984,73.0,0.0,30.0,4.0,0.0
7985,58.0,0.0,30.0,7.0,0.0
7986,56.0,0.0,60.0,12.0,0.0
7987,61.0,0.0,60.0,10.0,0.0
7988,56.0,30.0,30.0,7.0,0.0
7989,61.0,30.0,60.0,11.0,0.0
7990,65.0,0.0,60.0,6.0,0.0
7991,44.0,0.0,60.0,5.0,0.0
7992,71.0,0.0,30.0,4.0,0.0
7993,32.0,0.0,60.0,14.0,0.0
7994,44.0,0.0,60.0,13.0,0.0
7995,70.0,0.0,30.0,4.0,0.0
7996,54.0,0.0,30.0,7.0,0.0
7997,68.0,0.0,60.0,6.0,0.0
7998,61.0,0.0,60.0,12.0,0.0
7999,29.0,0.0,60.0,14.0,0.0
8000,73.0,0.0,60.0,10.0,0.0
8001,41.0,30.0,60.0,5.0,0.0
8002,71.0,0.0,30.0,4.0,0.0
8003,41.0,0.0,60.0,13.0,0.0
8004,65.0,0.0,60.0,11.0,0.0
8005,56.0,30.0,30.0,7.0,0.0
8006,53.0,0.0,30.0,7.0,0.0
8007,68.0,0.0,30.0,4.0,0.0
8008,25.0,0.0,60.0,14.0,0.0
8009,65.0,30.0,30.0,4.0,0.0
8010,49.0,30.0,60.0,7.0,0.0
8011,73.0,0.0,60.0,6.0,0.0
8012,37.0,0.0,60.0,13.0,0.0
8013,37.0,0.0,60.0,5.0,0.0
8014,68.0,0.0,30.0,4.0,0.0
8015,27.0,0.0,60.0,14.0,0.0
8016,71.0,0.0,60.0,10.0,0.0
8017,66.0,0.0,60.0,11.0,0.0
8018,71.0,30.0,150.0,6.0,0.0
8019,51.0,0.0,60.0,7.0,0.0
8020,39.0,0.0,60.0,13.0,0.0
8021,39.0,0.0,60.0,5.0,0.0
8022,66.0,30.0,30.0,4.0,0.0
8023,54.0,30.0,60.0,12.0,0.0
8024,65.0,0.0,30.0,4.0,0.0
8025,68.0,0.0,60.0,11.0,0.0
8026,53.0,0.0,60.0,7.0,0.0
8027,61.0,0.0,60.0,12.0,0.0
8028,68.0,30.0,60.0,10.0,0.0
8029,63.0,30.0,30.0,4.0,0.0
8030,29.0,0.0,60.0,14.0,0.0
8031,41.0,0.0,60.0,5.0,0.0
8032,41.0,0.0,60.0,13.0,0.0
8033,61.0,0.0,30.0,4.0,0.0
8034,73.0,0.0,240.0,4.0,0.0
8035,42.0,0.0,60.0,5.0,0.0
8036,42.0,0.0,120.0,13.0,0.0
8037,30.0,0.0,120.0,14.0,0.0
8038,54.0,30.0,60.0,7.0,0.0
8039,61.0,0.0,30.0,6.0,0.0
8040,70.0,0.0,60.0,10.0,0.0
8041,54.0,0.0,60.0,5.0,0.0
8042,63.0,30.0,30.0,6.0,0.0
8043,42.0,30.0,60.0,7.0,0.0
8044,61.0,0.0,60.0,12.0,0.0
8045,66.0,0.0,60.0,11.0,0.0
8046,65.0,0.0,30.0,6.0,0.0
8047,41.0,0.0,60.0,7.0,0.0
8048,66.0,30.0,30.0,6.0,0.0
8049,58.0,0.0,60.0,12.0,0.0
8050,70.0,0.0,60.0,11.0,0.0
8051,41.0,0.0,60.0,13.0,0.0
8052,73.0,0.0,60.0,10.0,0.0
8053,29.0,0.0,60.0,14.0,0.0
8054,53.0,30.0,60.0,5.0,0.0
8055,68.0,0.0,30.0,6.0,0.0
8056,51.0,0.0,30.0,5.0,0.0
8057,70.0,30.0,30.0,6.0,0.0
8058,39.0,0.0,120.0,13.0,0.0
8059,39.0,0.0,60.0,7.0,0.0
8060,27.0,0.0,120.0,14.0,0.0
8061,49.0,30.0,30.0,5.0,0.0
8062,72.0,0.0,30.0,6.0,0.0
8063,66.0,30.0,30.0,4.0,0.0
8064,63.0,30.0,60.0,12.0,0.0
8065,66.0,0.0,60.0,11.0,0.0
8066,51.0,0.0,60.0,5.0,0.0
8067,72.0,0.0,90.0,6.0,0.0
8068,72.0,0.0,60.0,10.0,0.0
8069,51.0,0.0,60.0,7.0,0.0
8070,65.0,0.0,30.0,4.0,0.0
8071,44.0,30.0,60.0,7.0,0.0
8072,44.0,0.0,60.0,5.0,0.0
8073,63.0,0.0,60.0,11.0,0.0
8074,60.0,0.0,60.0,12.0,0.0
8075,32.0,0.0,60.0,14.0,0.0
8076,44.0,0.0,60.0,13.0,0.0
8077,66.0,15.0,30.0,4.0,0.0
8078,75.0,0.0,60.0,10.0,0.0
8079,75.0,0.0,30.0,4.0,0.0
8080,70.0,15.0,15.0,6.0,0.0
8081,72.0,0.0,15.0,6.0,0.0
8082,49.0,0.0,60.0,5.0,0.0
8083,73.0,30.0,210.0,6.0,0.0
8084,49.0,30.0,30.0,7.0,0.0
8085,25.0,0.0,120.0,14.0,0.0
8086,65.0,0.0,60.0,4.0,0.0
8087,37.0,30.0,120.0,13.0,0.0
8088,53.0,30.0,30.0,7.0,0.0
8089,65.0,0.0,60.0,12.0,0.0
8090,68.0,0.0,60.0,11.0,0.0
8091,73.0,0.0,60.0,10.0,0.0
8092,56.0,30.0,30.0,7.0,0.0
8093,61.0,0.0,30.0,7.0,0.0
8094,59.0,30.0,30.0,7.0,0.0
8095,56.0,30.0,60.0,11.0,0.0
8096,23.0,0.0,60.0,14.0,0.0
8097,35.0,0.0,60.0,13.0,0.0
8098,61.0,0.0,60.0,12.0,0.0
8099,65.0,0.0,60.0,10.0,0.0
8100,58.0,0.0,30.0,7.0,0.0
8101,59.0,0.0,60.0,7.0,0.0
8102,34.0,0.0,120.0,13.0,0.0
8103,22.0,0.0,120.0,14.0,0.0
8104,75.0,30.0,30.0,6.0,0.0
8105,66.0,0.0,60.0,10.0,0.0
8106,46.0,0.0,60.0,7.0,0.0
8107,54.0,0.0,60.0,12.0,0.0
8108,61.0,0.0,60.0,11.0,0.0
8109,73.0,30.0,30.0,6.0,0.0
8110,71.0,30.0,30.0,6.0,0.0
8111,23.0,0.0,60.0,14.0,0.0
8112,35.0,30.0,60.0,13.0,0.0
8113,54.0,0.0,60.0,12.0,0.0
8114,73.0,30.0,30.0,6.0,0.0
8115,47.0,0.0,60.0,7.0,0.0
8116,59.0,0.0,60.0,11.0,0.0
8117,63.0,0.0,60.0,10.0,0.0
8118,75.0,0.0,30.0,6.0,0.0
8119,37.0,0.0,120.0,13.0,0.0
8120,49.0,30.0,30.0,7.0,0.0
8121,25.0,0.0,120.0,14.0,0.0
8122,65.0,30.0,210.0,6.0,0.0
8123,53.0,30.0,30.0,7.0,0.0
8124,56.0,30.0,30.0,7.0,0.0
8125,56.0,0.0,60.0,10.0,0.0
8126,61.0,0.0,60.0,12.0,0.0
8127,59.0,0.0,60.0,11.0,0.0
8128,61.0,30.0,30.0,7.0,0.0
8129,61.0,0.0,60.0,10.0,0.0
8130,56.0,30.0,60.0,11.0,0.0
8131,49.0,0.0,60.0,13.0,0.0
8132,37.0,0.0,60.0,14.0,0.0
8133,59.0,30.0,30.0,7.0,0.0
8134,65.0,0.0,60.0,12.0,0.0
8135,58.0,0.0,30.0,7.0,0.0
8136,47.0,30.0,120.0,13.0,0.0
8137,59.0,0.0,60.0,7.0,0.0
8138,35.0,0.0,120.0,14.0,0.0
8139,63.0,30.0,30.0,6.0,0.0
8140,47.0,0.0,60.0,7.0,0.0
8141,65.0,30.0,30.0,6.0,0.0
8142,65.0,0.0,60.0,12.0,0.0
8143,56.0,0.0,60.0,11.0,0.0
8144,61.0,0.0,60.0,10.0,0.0
8145,66.0,0.0,30.0,6.0,0.0
8146,46.0,0.0,60.0,7.0,0.0
8147,34.0,0.0,60.0,14.0,0.0
8148,61.0,0.0,60.0,11.0,0.0
8149,68.0,30.0,30.0,6.0,0.0
8150,66.0,0.0,60.0,10.0,0.0
8151,61.0,0.0,60.0,12.0,0.0
8152,46.0,0.0,60.0,13.0,0.0
8153,70.0,30.0,30.0,6.0,0.0
8154,44.0,30.0,60.0,7.0,0.0
8155,71.0,30.0,30.0,6.0,0.0
8156,32.0,0.0,120.0,14.0,0.0
8157,44.0,0.0,120.0,13.0,0.0
8158,75.0,0.0,30.0,6.0,0.0
8159,56.0,0.0,60.0,11.0,0.0
8160,59.0,0.0,60.0,12.0,0.0
8161,56.0,0.0,60.0,7.0,0.0
8162,73.0,30.0,30.0,6.0,0.0
8163,65.0,60.0,60.0,10.0,0.0
8164,71.0,0.0,30.0,6.0,0.0
8165,80.0,30.0,90.0,6.0,0.0
8166,63.0,0.0,60.0,12.0,0.0
8167,30.0,0.0,60.0,14.0,0.0
8168,54.0,30.0,60.0,7.0,0.0
8169,59.0,0.0,60.0,11.0,0.0
8170,42.0,0.0,60.0,13.0,0.0
8171,63.0,0.0,60.0,10.0,0.0
8172,29.0,0.0,60.0,14.0,0.0
8173,41.0,0.0,60.0,13.0,0.0
8174,53.0,30.0,60.0,7.0,0.0
8175,78.0,0.0,30.0,6.0,0.0
8176,61.0,30.0,60.0,10.0,0.0
8177,49.0,0.0,60.0,7.0,0.0
8178,65.0,0.0,60.0,12.0,0.0
8179,37.0,0.0,60.0,13.0,0.0
8180,77.0,30.0,30.0,6.0,0.0
8181,61.0,0.0,60.0,11.0,0.0
8182,25.0,0.0,60.0,14.0,0.0
8183,75.0,0.0,30.0,6.0,0.0
8184,59.0,0.0,60.0,10.0,0.0
8185,53.0,0.0,60.0,7.0,0.0
8186,41.0,30.0,60.0,13.0,0.0
8187,56.0,0.0,60.0,11.0,0.0
8188,73.0,30.0,30.0,6.0,0.0
8189,68.0,0.0,60.0,12.0,0.0
8190,29.0,0.0,60.0,14.0,0.0
8191,71.0,0.0,30.0,6.0,0.0
8192,42.0,0.0,60.0,13.0,0.0
8193,54.0,0.0,30.0,7.0,0.0
8194,30.0,30.0,60.0,14.0,0.0
8195,70.0,30.0,30.0,6.0,0.0
8196,56.0,0.0,30.0,7.0,0.0
8197,68.0,0.0,30.0,6.0,0.0
8198,66.0,30.0,30.0,6.0,0.0
8199,66.0,0.0,60.0,12.0,0.0
8200,58.0,0.0,30.0,7.0,0.0
8201,58.0,0.0,60.0,10.0,0.0
8202,34.0,30.0,60.0,14.0,0.0
8203,46.0,0.0,60.0,13.0,0.0
8204,61.0,0.0,60.0,11.0,0.0
8205,60.0,0.0,30.0,7.0,0.0
8206,68.0,0.0,30.0,6.0,0.0
8207,66.0,0.0,60.0,11.0,0.0
8208,61.0,30.0,30.0,7.0,0.0
8209,61.0,0.0,60.0,12.0,0.0
8210,37.0,30.0,60.0,14.0,0.0
8211,69.0,30.0,90.0,6.0,0.0
8212,54.0,0.0,60.0,10.0,0.0
8213,49.0,0.0,60.0,13.0,0.0
8214,63.0,0.0,30.0,7.0,0.0
8215,36.0,0.0,60.0,14.0,0.0
8216,48.0,0.0,60.0,13.0,0.0
8217,60.0,30.0,60.0,7.0,0.0
8218,73.0,0.0,30.0,6.0,0.0
8219,44.0,0.0,60.0,13.0,0.0
8220,72.0,30.0,30.0,6.0,0.0
8221,32.0,30.0,60.0,14.0,0.0
8222,63.0,0.0,60.0,11.0,0.0
8223,56.0,0.0,60.0,7.0,0.0
8224,60.0,0.0,60.0,12.0,0.0
8225,66.0,0.0,60.0,10.0,0.0
8226,75.0,0.0,30.0,6.0,0.0
8227,48.0,30.0,60.0,13.0,0.0
8228,63.0,0.0,60.0,12.0,0.0
8229,68.0,30.0,30.0,6.0,0.0
8230,60.0,0.0,60.0,7.0,0.0
8231,60.0,0.0,60.0,11.0,0.0
8232,36.0,0.0,60.0,14.0,0.0
8233,63.0,0.0,60.0,10.0,0.0
8234,66.0,0.0,30.0,6.0,0.0
8235,68.0,30.0,210.0,4.0,0.0
8236,37.0,0.0,120.0,13.0,0.0
8237,64.0,0.0,30.0,6.0,0.0
8238,61.0,0.0,60.0,7.0,0.0
8239,25.0,0.0,120.0,14.0,0.0
8240,49.0,30.0,30.0,5.0,0.0
8241,68.0,30.0,30.0,6.0,0.0
8242,48.0,0.0,30.0,5.0,0.0
8243,56.0,30.0,60.0,11.0,0.0
8244,49.0,0.0,30.0,5.0,0.0
8245,61.0,0.0,60.0,10.0,0.0
8246,52.0,0.0,60.0,12.0,0.0
8247,66.0,30.0,30.0,6.0,0.0
8248,44.0,0.0,30.0,5.0,0.0
8249,64.0,0.0,30.0,6.0,0.0
8250,54.0,0.0,60.0,12.0,0.0
8251,51.0,30.0,30.0,5.0,0.0
8252,63.0,0.0,30.0,6.0,0.0
8253,39.0,0.0,60.0,13.0,0.0
8254,27.0,0.0,60.0,14.0,0.0
8255,60.0,0.0,60.0,10.0,0.0
8256,54.0,30.0,60.0,11.0,0.0
8257,61.0,0.0,30.0,6.0,0.0
8258,44.0,0.0,30.0,5.0,0.0
8259,52.0,0.0,60.0,5.0,0.0
8260,73.0,0.0,60.0,6.0,0.0
8261,40.0,30.0,120.0,13.0,0.0
8262,28.0,0.0,120.0,14.0,0.0
8263,54.0,0.0,30.0,7.0,0.0
8264,69.0,30.0,30.0,4.0,0.0
8265,68.0,0.0,30.0,4.0,0.0
8266,52.0,0.0,60.0,11.0,0.0
8267,61.0,0.0,60.0,10.0,0.0
8268,56.0,0.0,60.0,12.0,0.0
8269,40.0,0.0,60.0,5.0,0.0
8270,52.0,30.0,30.0,7.0,0.0
8271,66.0,0.0,30.0,4.0,0.0
8272,51.0,0.0,30.0,7.0,0.0
8273,68.0,30.0,30.0,4.0,0.0
8274,57.0,0.0,60.0,10.0,0.0
8275,30.0,0.0,60.0,14.0,0.0
8276,61.0,0.0,60.0,11.0,0.0
8277,42.0,0.0,60.0,13.0,0.0
8278,52.0,0.0,30.0,7.0,0.0
8279,42.0,0.0,60.0,5.0,0.0
8280,54.0,0.0,60.0,12.0,0.0
8281,69.0,0.0,30.0,4.0,0.0
8282,49.0,30.0,30.0,7.0,0.0
8283,60.0,30.0,210.0,4.0,0.0
8284,44.0,30.0,30.0,5.0,0.0
8285,32.0,0.0,120.0,14.0,0.0
8286,56.0,29.0,60.0,7.0,0.0
8287,44.0,0.0,120.0,13.0,0.0
8288,48.0,0.0,30.0,5.0,0.0
8289,75.0,1.0,30.0,6.0,0.0
8290,60.0,0.0,60.0,12.0,0.0
8291,51.0,30.0,60.0,11.0,0.0
8292,73.0,30.0,30.0,6.0,0.0
8293,51.0,0.0,30.0,5.0,0.0
8294,56.0,0.0,60.0,10.0,0.0
8295,56.0,0.0,30.0,5.0,0.0
8296,72.0,0.0,30.0,6.0,0.0
8297,56.0,0.0,60.0,11.0,0.0
8298,70.0,0.0,30.0,6.0,0.0
8299,60.0,0.0,60.0,10.0,0.0
8300,44.0,30.0,60.0,14.0,0.0
8301,54.0,30.0,30.0,5.0,0.0
8302,56.0,0.0,60.0,13.0,0.0
8303,63.0,0.0,60.0,12.0,0.0
8304,52.0,0.0,30.0,5.0,0.0
8305,68.0,0.0,30.0,6.0,0.0
8306,42.0,0.0,120.0,14.0,0.0
8307,54.0,0.0,120.0,13.0,0.0
8308,80.0,0.0,60.0,6.0,0.0
8309,54.0,1.0,60.0,5.0,0.0
8310,58.0,0.0,30.0,4.0,0.0
8311,51.0,29.0,30.0,7.0,0.0
8312,42.0,1.0,60.0,5.0,0.0
8313,60.0,1.0,30.0,4.0,0.0
8314,59.0,0.0,60.0,12.0,0.0
8315,68.0,0.0,60.0,11.0,0.0
8316,63.0,0.0,60.0,10.0,0.0
8317,56.0,29.0,30.0,7.0,0.0
8318,58.0,29.0,30.0,7.0,0.0
8319,61.0,0.0,30.0,4.0,0.0
8320,56.0,0.0,60.0,12.0,0.0
8321,61.0,1.0,60.0,11.0,0.0
8322,63.0,1.0,30.0,4.0,0.0
8323,60.0,29.0,30.0,7.0,0.0
8324,52.0,0.0,60.0,13.0,0.0
8325,40.0,0.0,60.0,14.0,0.0
8326,40.0,0.0,60.0,5.0,0.0
8327,68.0,0.0,60.0,10.0,0.0
8328,64.0,0.0,30.0,4.0,0.0
8329,61.0,29.0,30.0,7.0,0.0
8330,51.0,0.0,120.0,13.0,0.0
8331,63.0,30.0,60.0,7.0,0.0
8332,39.0,0.0,120.0,14.0,0.0
8333,39.0,0.0,60.0,5.0,0.0
8334,66.0,30.0,30.0,4.0,0.0
8335,69.0,0.0,30.0,4.0,0.0
8336,63.0,0.0,60.0,11.0,0.0
8337,51.0,0.0,60.0,7.0,0.0
8338,51.0,60.0,60.0,5.0,0.0
8339,69.0,0.0,60.0,10.0,0.0
8340,68.0,30.0,30.0,4.0,0.0
8341,60.0,0.0,60.0,12.0,0.0
8342,66.0,0.0,30.0,4.0,0.0
8343,49.0,0.0,60.0,13.0,0.0
8344,75.0,30.0,90.0,4.0,0.0
8345,63.0,0.0,60.0,12.0,0.0
8346,37.0,30.0,60.0,14.0,0.0
8347,69.0,0.0,60.0,11.0,0.0
8348,49.0,0.0,60.0,5.0,0.0
8349,66.0,0.0,60.0,10.0,0.0
8350,48.0,0.0,60.0,13.0,0.0
8351,36.0,0.0,60.0,14.0,0.0
8352,48.0,0.0,60.0,5.0,0.0
8353,73.0,30.0,30.0,4.0,0.0
8354,68.0,0.0,60.0,11.0,0.0
8355,63.0,0.0,60.0,12.0,0.0
8356,72.0,0.0,30.0,4.0,0.0
8357,63.0,0.0,60.0,10.0,0.0
8358,56.0,30.0,30.0,7.0,0.0
8359,32.0,30.0,60.0,14.0,0.0
8360,44.0,0.0,60.0,5.0,0.0
8361,44.0,0.0,60.0,13.0,0.0
8362,75.0,0.0,30.0,4.0,0.0
8363,58.0,0.0,30.0,7.0,0.0
8364,60.0,0.0,30.0,7.0,0.0
8365,68.0,0.0,60.0,10.0,0.0
8366,48.0,0.0,60.0,5.0,0.0
8367,48.0,0.0,60.0,13.0,0.0
8368,60.0,0.0,60.0,12.0,0.0
8369,63.0,60.0,60.0,11.0,0.0
8370,68.0,30.0,30.0,4.0,0.0
8371,36.0,0.0,60.0,14.0,0.0
8372,56.0,0.0,30.0,7.0,0.0
8373,66.0,0.0,30.0,4.0,0.0
8374,37.0,30.0,60.0,13.0,0.0
8375,64.0,60.0,120.0,4.0,0.0
8376,61.0,0.0,60.0,7.0,0.0
8377,49.0,0.0,120.0,5.0,0.0
8378,25.0,0.0,60.0,14.0,0.0
8379,68.0,0.0,30.0,6.0,0.0
8380,61.0,0.0,60.0,11.0,0.0
8381,37.0,0.0,60.0,14.0,0.0
8382,49.0,0.0,60.0,7.0,0.0
8383,64.0,0.0,60.0,10.0,0.0
8384,56.0,0.0,60.0,12.0,0.0
8385,49.0,0.0,60.0,13.0,0.0
8386,70.0,30.0,30.0,6.0,0.0
8387,71.0,0.0,30.0,6.0,0.0
8388,61.0,0.0,60.0,10.0,0.0
8389,73.0,30.0,90.0,6.0,0.0
8390,47.0,0.0,60.0,13.0,0.0
8391,52.0,30.0,60.0,12.0,0.0
8392,47.0,0.0,60.0,7.0,0.0
8393,35.0,0.0,60.0,14.0,0.0
8394,64.0,0.0,60.0,11.0,0.0
8395,46.0,0.0,60.0,7.0,0.0
8396,46.0,30.0,60.0,13.0,0.0
8397,34.0,0.0,60.0,14.0,0.0
8398,76.0,0.0,30.0,6.0,0.0
8399,75.0,30.0,30.0,6.0,0.0
8400,55.0,0.0,60.0,12.0,0.0
8401,55.0,30.0,60.0,7.0,0.0
8402,58.0,0.0,60.0,11.0,0.0
8403,63.0,0.0,60.0,10.0,0.0
8404,31.0,0.0,60.0,14.0,0.0
8405,43.0,0.0,60.0,13.0,0.0
8406,73.0,0.0,30.0,6.0,0.0
8407,71.0,30.0,30.0,6.0,0.0
8408,39.0,0.0,60.0,13.0,0.0
8409,27.0,0.0,60.0,14.0,0.0
8410,51.0,0.0,60.0,7.0,0.0
8411,63.0,0.0,60.0,11.0,0.0
8412,67.0,0.0,60.0,10.0,0.0
8413,58.0,60.0,60.0,12.0,0.0
8414,70.0,0.0,30.0,6.0,0.0
8415,44.0,0.0,60.0,13.0,0.0
8416,71.0,0.0,120.0,6.0,0.0
8417,32.0,0.0,60.0,14.0,0.0
8418,56.0,0.0,120.0,7.0,0.0
8419,63.0,30.0,30.0,4.0,0.0
8420,59.0,0.0,60.0,11.0,0.0
8421,68.0,0.0,60.0,10.0,0.0
8422,65.0,30.0,30.0,4.0,0.0
8423,44.0,0.0,60.0,14.0,0.0
8424,56.0,60.0,60.0,13.0,0.0
8425,56.0,0.0,60.0,12.0,0.0
8426,44.0,0.0,60.0,5.0,0.0
8427,66.0,0.0,30.0,4.0,0.0
8428,54.0,0.0,60.0,13.0,0.0
8429,42.0,30.0,60.0,14.0,0.0
8430,42.0,0.0,60.0,5.0,0.0
8431,51.0,0.0,60.0,12.0,0.0
8432,56.0,0.0,60.0,11.0,0.0
8433,71.0,0.0,60.0,10.0,0.0
8434,68.0,30.0,90.0,4.0,0.0
8435,53.0,0.0,60.0,13.0,0.0
8436,41.0,0.0,60.0,14.0,0.0
8437,41.0,0.0,60.0,5.0,0.0
8438,71.0,30.0,30.0,4.0,0.0
8439,38.0,0.0,60.0,14.0,0.0
8440,65.0,0.0,60.0,10.0,0.0
8441,50.0,0.0,60.0,13.0,0.0
8442,50.0,0.0,60.0,5.0,0.0
8443,58.0,0.0,60.0,11.0,0.0
8444,50.0,0.0,60.0,12.0,0.0
8445,70.0,30.0,30.0,4.0,0.0
8446,68.0,30.0,30.0,4.0,0.0
8447,46.0,0.0,60.0,13.0,0.0
8448,46.0,0.0,60.0,5.0,0.0
8449,34.0,0.0,60.0,14.0,0.0
8450,70.0,0.0,60.0,10.0,0.0
8451,62.0,0.0,60.0,11.0,0.0
8452,66.0,30.0,30.0,4.0,0.0
8453,53.0,60.0,60.0,12.0,0.0
8454,65.0,0.0,30.0,4.0,0.0
8455,27.0,0.0,120.0,14.0,0.0
8456,39.0,0.0,120.0,13.0,0.0
8457,66.0,0.0,120.0,4.0,0.0
8458,51.0,60.0,120.0,5.0,0.0
8459,58.0,30.0,30.0,6.0,0.0
8460,63.0,0.0,60.0,11.0,0.0
8461,46.0,0.0,60.0,12.0,0.0
8462,51.0,0.0,60.0,7.0,0.0
8463,66.0,0.0,60.0,10.0,0.0
8464,63.0,30.0,30.0,6.0,0.0
8465,65.0,0.0,30.0,6.0,0.0
8466,51.0,0.0,60.0,12.0,0.0
8467,63.0,0.0,60.0,10.0,0.0
8468,25.0,30.0,60.0,14.0,0.0
8469,37.0,0.0,60.0,13.0,0.0
8470,58.0,0.0,60.0,11.0,0.0
8471,49.0,0.0,60.0,7.0,0.0
8472,66.0,30.0,90.0,6.0,0.0
8473,47.0,30.0,60.0,7.0,0.0
8474,23.0,0.0,60.0,14.0,0.0
8475,35.0,0.0,60.0,13.0,0.0
8476,70.0,0.0,30.0,6.0,0.0
8477,51.0,0.0,60.0,12.0,0.0
8478,47.0,0.0,60.0,13.0,0.0
8479,59.0,0.0,60.0,7.0,0.0
8480,63.0,0.0,60.0,11.0,0.0
8481,68.0,0.0,60.0,10.0,0.0
8482,68.0,30.0,30.0,6.0,0.0
8483,35.0,30.0,60.0,14.0,0.0
8484,66.0,0.0,30.0,6.0,0.0
8485,32.0,0.0,60.0,14.0,0.0
8486,71.0,30.0,60.0,10.0,0.0
8487,65.0,30.0,30.0,6.0,0.0
8488,44.0,0.0,60.0,13.0,0.0
8489,55.0,0.0,60.0,12.0,0.0
8490,56.0,0.0,60.0,7.0,0.0
8491,68.0,0.0,60.0,11.0,0.0
8492,63.0,0.0,30.0,6.0,0.0
8493,70.0,30.0,210.0,4.0,0.0
8494,58.0,0.0,120.0,7.0,0.0
8495,46.0,0.0,120.0,13.0,0.0
8496,62.0,0.0,30.0,6.0,0.0
8497,34.0,0.0,120.0,14.0,0.0
8498,46.0,30.0,30.0,5.0,0.0
8499,50.0,0.0,30.0,5.0,0.0
8500,65.0,30.0,30.0,6.0,0.0
8501,70.0,30.0,60.0,10.0,0.0
8502,53.0,0.0,30.0,5.0,0.0
8503,65.0,0.0,60.0,11.0,0.0
8504,53.0,0.0,60.0,12.0,0.0
8505,63.0,30.0,30.0,6.0,0.0
8506,62.0,0.0,30.0,6.0,0.0
8507,58.0,0.0,30.0,5.0,0.0
8508,60.0,30.0,30.0,6.0,0.0
8509,32.0,0.0,60.0,14.0,0.0
8510,58.0,0.0,60.0,12.0,0.0
8511,56.0,0.0,30.0,5.0,0.0
8512,44.0,0.0,60.0,13.0,0.0
8513,62.0,0.0,60.0,11.0,0.0
8514,65.0,0.0,60.0,10.0,0.0
8515,58.0,30.0,30.0,6.0,0.0
8516,53.0,0.0,30.0,5.0,0.0
8517,70.0,30.0,60.0,6.0,0.0
8518,30.0,0.0,120.0,14.0,0.0
8519,54.0,0.0,60.0,5.0,0.0
8520,42.0,0.0,120.0,13.0,0.0
8521,71.0,0.0,30.0,4.0,0.0
8522,56.0,0.0,30.0,7.0,0.0
8523,42.0,0.0,60.0,5.0,0.0
8524,70.0,0.0,30.0,4.0,0.0
8525,63.0,0.0,60.0,10.0,0.0
8526,58.0,30.0,60.0,11.0,0.0
8527,54.0,30.0,30.0,7.0,0.0
8528,63.0,0.0,60.0,12.0,0.0
8529,68.0,0.0,30.0,4.0,0.0
8530,53.0,0.0,30.0,7.0,0.0
8531,39.0,0.0,60.0,5.0,0.0
8532,66.0,0.0,60.0,10.0,0.0
8533,27.0,0.0,60.0,14.0,0.0
8534,63.0,0.0,60.0,11.0,0.0
8535,70.0,0.0,30.0,4.0,0.0
8536,39.0,0.0,60.0,13.0,0.0
8537,58.0,0.0,60.0,12.0,0.0
8538,54.0,30.0,30.0,7.0,0.0
8539,51.0,0.0,30.0,7.0,0.0
8540,71.0,30.0,30.0,4.0,0.0
8541,34.0,0.0,120.0,13.0,0.0
8542,46.0,30.0,30.0,5.0,0.0
8543,58.0,0.0,60.0,7.0,0.0
8544,22.0,0.0,120.0,14.0,0.0
8545,62.0,30.0,210.0,4.0,0.0
8546,53.0,0.0,30.0,5.0,0.0
8547,71.0,30.0,30.0,6.0,0.0
8548,65.0,0.0,60.0,10.0,0.0
8549,70.0,0.0,30.0,6.0,0.0
8550,62.0,30.0,60.0,11.0,0.0
8551,56.0,30.0,30.0,5.0,0.0
8552,58.0,0.0,60.0,12.0,0.0
8553,68.0,0.0,30.0,6.0,0.0
8554,59.0,0.0,30.0,5.0,0.0
8555,62.0,0.0,60.0,10.0,0.0
8556,46.0,0.0,60.0,13.0,0.0
8557,46.0,0.0,60.0,12.0,0.0
8558,66.0,0.0,30.0,6.0,0.0
8559,58.0,30.0,30.0,5.0,0.0
8560,34.0,0.0,60.0,14.0,0.0
8561,58.0,30.0,60.0,11.0,0.0
8562,56.0,0.0,30.0,5.0,0.0
8563,65.0,0.0,30.0,6.0,0.0
8564,32.0,0.0,120.0,14.0,0.0
8565,77.0,0.0,60.0,6.0,0.0
8566,58.0,0.0,60.0,5.0,0.0
8567,44.0,0.0,120.0,13.0,0.0
8568,54.0,0.0,30.0,7.0,0.0
8569,60.0,30.0,30.0,4.0,0.0
8570,56.0,0.0,60.0,5.0,0.0
8571,52.0,0.0,60.0,12.0,0.0
8572,62.0,0.0,30.0,4.0,0.0
8573,58.0,0.0,60.0,10.0,0.0
8574,53.0,0.0,60.0,11.0,0.0
8575,53.0,30.0,30.0,7.0,0.0
8576,51.0,0.0,30.0,7.0,0.0
8577,63.0,30.0,30.0,4.0,0.0
8578,63.0,0.0,60.0,10.0,0.0
8579,51.0,30.0,60.0,12.0,0.0
8580,30.0,0.0,60.0,14.0,0.0
8581,50.0,30.0,30.0,7.0,0.0
8582,58.0,0.0,60.0,11.0,0.0
8583,42.0,0.0,60.0,13.0,0.0
8584,54.0,0.0,60.0,5.0,0.0
8585,65.0,0.0,30.0,4.0,0.0
8586,66.0,0.0,30.0,4.0,0.0
8587,51.0,0.0,30.0,7.0,0.0
8588,68.0,30.0,30.0,4.0,0.0
8589,41.0,0.0,120.0,13.0,0.0
8590,47.0,0.0,60.0,7.0,0.0
8591,53.0,0.0,60.0,5.0,0.0
8592,29.0,0.0,120.0,14.0,0.0
8593,71.0,30.0,30.0,4.0,0.0
8594,59.0,60.0,60.0,12.0,0.0
8595,70.0,30.0,30.0,4.0,0.0
8596,62.0,0.0,60.0,10.0,0.0
8597,41.0,0.0,60.0,5.0,0.0
8598,59.0,0.0,60.0,7.0,0.0
8599,56.0,0.0,60.0,11.0,0.0
8600,68.0,0.0,30.0,4.0,0.0
8601,39.0,0.0,60.0,13.0,0.0
8602,77.0,30.0,90.0,4.0,0.0
8603,39.0,0.0,60.0,5.0,0.0
8604,59.0,0.0,60.0,11.0,0.0
8605,56.0,0.0,60.0,12.0,0.0
8606,27.0,30.0,60.0,14.0,0.0
8607,68.0,0.0,60.0,10.0,0.0
8608,38.0,0.0,60.0,5.0,0.0
8609,26.0,30.0,60.0,14.0,0.0
8610,38.0,0.0,60.0,13.0,0.0
8611,75.0,0.0,30.0,4.0,0.0
8612,70.0,0.0,60.0,10.0,0.0
8613,34.0,0.0,60.0,13.0,0.0
8614,22.0,0.0,60.0,14.0,0.0
8615,46.0,30.0,30.0,7.0,0.0
8616,34.0,0.0,60.0,5.0,0.0
8617,53.0,30.0,60.0,11.0,0.0
8618,53.0,0.0,60.0,12.0,0.0
8619,74.0,0.0,30.0,4.0,0.0
8620,77.0,0.0,30.0,4.0,0.0
8621,48.0,0.0,30.0,7.0,0.0
8622,38.0,0.0,60.0,13.0,0.0
8623,50.0,0.0,60.0,12.0,0.0
8624,65.0,30.0,60.0,10.0,0.0
8625,58.0,0.0,60.0,11.0,0.0
8626,38.0,0.0,60.0,5.0,0.0
8627,70.0,30.0,30.0,4.0,0.0
8628,26.0,0.0,60.0,14.0,0.0
8629,50.0,0.0,30.0,7.0,0.0
8630,68.0,0.0,30.0,4.0,0.0
8631,46.0,0.0,30.0,7.0,0.0
8632,39.0,30.0,60.0,5.0,0.0
8633,66.0,30.0,30.0,4.0,0.0
8634,70.0,30.0,210.0,6.0,0.0
8635,27.0,0.0,120.0,14.0,0.0
8636,51.0,0.0,30.0,7.0,0.0
8637,39.0,30.0,120.0,13.0,0.0
8638,50.0,0.0,30.0,7.0,0.0
8639,71.0,0.0,30.0,4.0,0.0
8640,46.0,0.0,60.0,12.0,0.0
8641,70.0,0.0,30.0,4.0,0.0
8642,51.0,30.0,30.0,7.0,0.0
8643,51.0,0.0,60.0,5.0,0.0
8644,58.0,0.0,60.0,11.0,0.0
8645,66.0,0.0,60.0,10.0,0.0
8646,68.0,0.0,30.0,4.0,0.0
8647,46.0,0.0,30.0,7.0,0.0
8648,41.0,0.0,60.0,5.0,0.0
8649,29.0,0.0,60.0,14.0,0.0
8650,53.0,30.0,30.0,7.0,0.0
8651,41.0,0.0,60.0,13.0,0.0
8652,62.0,30.0,60.0,10.0,0.0
8653,66.0,0.0,30.0,4.0,0.0
8654,56.0,0.0,60.0,11.0,0.0
8655,53.0,0.0,60.0,12.0,0.0
8656,65.0,0.0,30.0,4.0,0.0
8657,46.0,0.0,30.0,7.0,0.0
8658,42.0,0.0,120.0,13.0,0.0
8659,54.0,0.0,60.0,7.0,0.0
8660,42.0,0.0,60.0,5.0,0.0
8661,75.0,30.0,60.0,4.0,0.0
8662,30.0,0.0,120.0,14.0,0.0
8663,71.0,0.0,30.0,6.0,0.0
8664,39.0,0.0,60.0,5.0,0.0
8665,42.0,0.0,60.0,7.0,0.0
8666,70.0,30.0,30.0,6.0,0.0
8667,58.0,0.0,60.0,11.0,0.0
8668,51.0,30.0,60.0,12.0,0.0
8669,63.0,0.0,60.0,10.0,0.0
8670,68.0,0.0,30.0,6.0,0.0
8671,56.0,0.0,60.0,11.0,0.0
8672,32.0,0.0,60.0,14.0,0.0
8673,59.0,0.0,60.0,10.0,0.0
8674,44.0,0.0,60.0,5.0,0.0
8675,44.0,0.0,60.0,7.0,0.0
8676,44.0,0.0,60.0,13.0,0.0
8677,70.0,30.0,30.0,6.0,0.0
8678,51.0,30.0,60.0,12.0,0.0
8679,71.0,0.0,30.0,6.0,0.0
8680,46.0,0.0,120.0,13.0,0.0
8681,34.0,30.0,120.0,14.0,0.0
8682,62.0,30.0,210.0,6.0,0.0
8683,46.0,0.0,60.0,5.0,0.0
8684,46.0,30.0,30.0,7.0,0.0
8685,77.0,30.0,30.0,4.0,0.0
8686,50.0,0.0,30.0,7.0,0.0
8687,58.0,0.0,60.0,10.0,0.0
8688,46.0,0.0,60.0,12.0,0.0
8689,53.0,30.0,30.0,7.0,0.0
8690,53.0,0.0,60.0,11.0,0.0
8691,75.0,0.0,30.0,4.0,0.0
8692,58.0,0.0,30.0,7.0,0.0
8693,74.0,0.0,30.0,4.0,0.0
8694,72.0,30.0,30.0,4.0,0.0
8695,46.0,0.0,60.0,14.0,0.0
8696,53.0,30.0,60.0,12.0,0.0
8697,58.0,0.0,60.0,13.0,0.0
8698,56.0,0.0,60.0,11.0,0.0
8699,62.0,0.0,60.0,10.0,0.0
8700,56.0,0.0,30.0,7.0,0.0
8701,54.0,0.0,30.0,7.0,0.0
8702,70.0,0.0,30.0,4.0,0.0
8703,82.0,30.0,60.0,4.0,0.0
8704,56.0,0.0,60.0,7.0,0.0
8705,56.0,0.0,120.0,13.0,0.0
8706,44.0,0.0,120.0,14.0,0.0
8707,53.0,0.0,30.0,5.0,0.0
8708,60.0,0.0,30.0,6.0,0.0
8709,65.0,30.0,60.0,10.0,0.0
8710,58.0,0.0,60.0,12.0,0.0
8711,58.0,0.0,60.0,11.0,0.0
8712,62.0,30.0,30.0,6.0,0.0
8713,58.0,0.0,30.0,5.0,0.0
8714,44.0,0.0,60.0,7.0,0.0
8715,60.0,0.0,30.0,5.0,0.0
8716,63.0,0.0,30.0,6.0,0.0
8717,54.0,0.0,60.0,13.0,0.0
8718,46.0,0.0,60.0,12.0,0.0
8719,42.0,0.0,60.0,14.0,0.0
8720,62.0,0.0,30.0,5.0,0.0
8721,65.0,30.0,30.0,6.0,0.0
8722,42.0,0.0,60.0,7.0,0.0
8723,70.0,0.0,60.0,10.0,0.0
8724,51.0,30.0,60.0,11.0,0.0
8725,63.0,0.0,30.0,5.0,0.0
8726,66.0,0.0,30.0,6.0,0.0
8727,41.0,30.0,60.0,7.0,0.0
8728,53.0,0.0,120.0,13.0,0.0
8729,65.0,0.0,60.0,5.0,0.0
8730,41.0,0.0,120.0,14.0,0.0
8731,68.0,30.0,30.0,6.0,0.0
8732,71.0,0.0,30.0,6.0,0.0
8733,53.0,0.0,60.0,5.0,0.0
8734,53.0,0.0,60.0,11.0,0.0
8735,70.0,30.0,30.0,6.0,0.0
8736,53.0,0.0,60.0,7.0,0.0
8737,56.0,0.0,60.0,12.0,0.0
8738,71.0,0.0,60.0,10.0,0.0
8739,65.0,60.0,60.0,4.0,0.0
8740,68.0,0.0,30.0,6.0,0.0
8741,39.0,0.0,60.0,14.0,0.0
8742,51.0,0.0,60.0,13.0,0.0
8743,51.0,0.0,60.0,7.0,0.0
8744,68.0,0.0,60.0,4.0,0.0
8745,53.0,30.0,60.0,12.0,0.0
8746,68.0,0.0,60.0,10.0,0.0
8747,59.0,0.0,60.0,11.0,0.0
8748,77.0,30.0,90.0,6.0,0.0
8749,71.0,0.0,60.0,4.0,0.0
8750,38.0,0.0,60.0,14.0,0.0
8751,50.0,0.0,60.0,7.0,0.0
8752,50.0,30.0,60.0,13.0,0.0
8753,75.0,0.0,30.0,6.0,0.0
8754,74.0,30.0,30.0,6.0,0.0
8755,58.0,0.0,60.0,11.0,0.0
8756,78.0,0.0,30.0,4.0,0.0
8757,53.0,0.0,60.0,12.0,0.0
8758,65.0,0.0,60.0,10.0,0.0
8759,46.0,0.0,30.0,5.0,0.0
8760,34.0,0.0,60.0,14.0,0.0
8761,46.0,0.0,60.0,7.0,0.0
8762,46.0,0.0,60.0,13.0,0.0
8763,48.0,30.0,30.0,5.0,0.0
8764,77.0,0.0,30.0,6.0,0.0
8765,77.0,30.0,120.0,4.0,0.0
8766,50.0,30.0,60.0,7.0,0.0
8767,65.0,0.0,60.0,11.0,0.0
8768,70.0,0.0,30.0,6.0,0.0
8769,50.0,0.0,60.0,12.0,0.0
8770,38.0,0.0,60.0,14.0,0.0
8771,70.0,0.0,60.0,10.0,0.0
8772,50.0,30.0,30.0,5.0,0.0
8773,50.0,0.0,60.0,13.0,0.0
8774,46.0,0.0,30.0,5.0,0.0
8775,68.0,0.0,30.0,6.0,0.0
8776,51.0,0.0,120.0,13.0,0.0
8777,66.0,30.0,210.0,6.0,0.0
8778,51.0,0.0,60.0,5.0,0.0
8779,51.0,30.0,60.0,7.0,0.0
8780,39.0,0.0,120.0,14.0,0.0
8781,78.0,0.0,30.0,4.0,0.0
8782,58.0,0.0,60.0,12.0,0.0
8783,39.0,30.0,60.0,7.0,0.0
8784,70.0,0.0,60.0,10.0,0.0
8785,77.0,30.0,30.0,4.0,0.0
8786,66.0,0.0,60.0,11.0,0.0
8787,63.0,0.0,60.0,5.0,0.0
8788,75.0,0.0,30.0,4.0,0.0
8789,49.0,30.0,60.0,13.0,0.0
8790,61.0,0.0,60.0,5.0,0.0
8791,37.0,0.0,60.0,7.0,0.0
8792,65.0,0.0,60.0,11.0,0.0
8793,61.0,0.0,60.0,12.0,0.0
8794,37.0,0.0,60.0,14.0,0.0
8795,77.0,30.0,30.0,4.0,0.0
8796,58.0,0.0,60.0,10.0,0.0
8797,78.0,0.0,30.0,4.0,0.0
8798,47.0,0.0,120.0,13.0,0.0
8799,35.0,0.0,60.0,7.0,0.0
8800,75.0,30.0,210.0,4.0,0.0
8801,35.0,0.0,120.0,14.0,0.0
8802,59.0,30.0,60.0,5.0,0.0
8803,68.0,0.0,30.0,6.0,0.0
8804,63.0,0.0,60.0,10.0,0.0
8805,47.0,0.0,60.0,5.0,0.0
8806,63.0,0.0,60.0,12.0,0.0
8807,66.0,30.0,30.0,6.0,0.0
8808,47.0,0.0,60.0,7.0,0.0
8809,63.0,30.0,60.0,11.0,0.0
8810,65.0,0.0,30.0,6.0,0.0
8811,34.0,0.0,60.0,14.0,0.0
8812,46.0,0.0,60.0,5.0,0.0
8813,46.0,0.0,60.0,13.0,0.0
8814,61.0,0.0,60.0,11.0,0.0
8815,66.0,30.0,30.0,6.0,0.0
8816,46.0,0.0,60.0,7.0,0.0
8817,66.0,0.0,60.0,10.0,0.0
8818,70.0,30.0,60.0,12.0,0.0
8819,68.0,0.0,30.0,6.0,0.0
8820,65.0,30.0,210.0,6.0,0.0
8821,44.0,0.0,60.0,7.0,0.0
8822,44.0,0.0,120.0,13.0,0.0
8823,32.0,0.0,120.0,14.0,0.0
8824,44.0,30.0,60.0,5.0,0.0
8825,77.0,0.0,30.0,4.0,0.0
8826,75.0,30.0,30.0,4.0,0.0
8827,71.0,0.0,60.0,10.0,0.0
8828,59.0,0.0,60.0,11.0,0.0
8829,53.0,0.0,60.0,12.0,0.0
8830,56.0,0.0,60.0,5.0,0.0
8831,32.0,30.0,60.0,7.0,0.0
8832,74.0,0.0,30.0,4.0,0.0
8833,20.0,0.0,60.0,14.0,0.0
8834,44.0,0.0,60.0,5.0,0.0
8835,65.0,0.0,60.0,10.0,0.0
8836,59.0,0.0,60.0,12.0,0.0
8837,44.0,0.0,60.0,7.0,0.0
8838,32.0,0.0,60.0,13.0,0.0
8839,75.0,30.0,30.0,4.0,0.0
8840,56.0,30.0,60.0,11.0,0.0
8841,77.0,0.0,30.0,4.0,0.0
8842,46.0,0.0,60.0,7.0,0.0
8843,46.0,0.0,60.0,5.0,0.0
8844,22.0,0.0,120.0,14.0,0.0
8845,34.0,0.0,120.0,13.0,0.0
8846,66.0,0.0,210.0,4.0,0.0
8847,66.0,30.0,30.0,6.0,0.0
8848,62.0,30.0,60.0,10.0,0.0
8849,46.0,0.0,60.0,12.0,0.0
8850,65.0,30.0,30.0,6.0,0.0
8851,54.0,0.0,60.0,11.0,0.0
8852,58.0,0.0,60.0,5.0,0.0
8853,34.0,0.0,60.0,7.0,0.0
8854,63.0,0.0,30.0,6.0,0.0
8855,58.0,0.0,60.0,10.0,0.0
8856,63.0,0.0,60.0,11.0,0.0
8857,46.0,0.0,60.0,7.0,0.0
8858,58.0,0.0,60.0,12.0,0.0
8859,65.0,30.0,30.0,6.0,0.0
8860,46.0,0.0,60.0,5.0,0.0
8861,34.0,0.0,60.0,14.0,0.0
8862,46.0,0.0,60.0,13.0,0.0
8863,66.0,30.0,30.0,6.0,0.0
8864,47.0,29.0,120.0,13.0,0.0
8865,47.0,0.0,60.0,5.0,0.0
8866,47.0,0.0,60.0,7.0,0.0
8867,68.0,30.0,30.0,6.0,0.0
8868,35.0,0.0,120.0,14.0,0.0
8869,68.0,30.0,30.0,4.0,0.0
8870,71.0,0.0,30.0,6.0,0.0
8871,59.0,0.0,60.0,12.0,0.0
8872,59.0,0.0,60.0,5.0,0.0
8873,35.0,0.0,60.0,7.0,0.0
8874,51.0,0.0,60.0,10.0,0.0
8875,70.0,0.0,30.0,6.0,0.0
8876,66.0,30.0,30.0,4.0,0.0
8877,63.0,1.0,60.0,11.0,0.0
8878,68.0,0.0,30.0,6.0,0.0
8879,65.0,0.0,30.0,4.0,0.0
8880,51.0,0.0,60.0,11.0,0.0
8881,35.0,0.0,60.0,13.0,0.0
8882,56.0,0.0,60.0,12.0,0.0
8883,47.0,0.0,60.0,5.0,0.0
8884,63.0,0.0,60.0,10.0,0.0
8885,66.0,0.0,30.0,4.0,0.0
8886,23.0,30.0,60.0,14.0,0.0
8887,47.0,0.0,60.0,7.0,0.0
8888,70.0,30.0,30.0,6.0,0.0
8889,68.0,0.0,30.0,4.0,0.0
8890,71.0,0.0,30.0,6.0,0.0
8891,34.0,29.0,120.0,13.0,0.0
8892,22.0,0.0,120.0,14.0,0.0
8893,63.0,30.0,210.0,6.0,0.0
8894,70.0,30.0,30.0,4.0,0.0
8895,46.0,0.0,60.0,7.0,0.0
8896,46.0,30.0,60.0,5.0,0.0
8897,71.0,0.0,30.0,4.0,0.0
8898,58.0,0.0,60.0,5.0,0.0
8899,70.0,30.0,30.0,4.0,0.0
8900,66.0,0.0,60.0,10.0,0.0
8901,63.0,0.0,60.0,12.0,0.0
8902,58.0,0.0,60.0,11.0,0.0
8903,34.0,0.0,60.0,7.0,0.0
8904,68.0,1.0,30.0,4.0,0.0
8905,56.0,0.0,60.0,5.0,0.0
8906,59.0,0.0,60.0,12.0,0.0
8907,53.0,0.0,60.0,11.0,0.0
8908,70.0,30.0,30.0,4.0,0.0
8909,32.0,0.0,60.0,13.0,0.0
8910,32.0,0.0,60.0,7.0,0.0
8911,20.0,0.0,60.0,14.0,0.0
8912,65.0,0.0,60.0,10.0,0.0
8913,71.0,30.0,30.0,4.0,0.0
8914,58.0,0.0,60.0,5.0,0.0
8915,66.0,0.0,180.0,4.0,0.0
8916,34.0,29.0,120.0,13.0,0.0
8917,34.0,0.0,60.0,7.0,0.0
8918,22.0,0.0,120.0,14.0,0.0
8919,65.0,30.0,30.0,6.0,0.0
8920,46.0,0.0,60.0,5.0,0.0
8921,46.0,1.0,60.0,7.0,0.0
8922,58.0,0.0,60.0,11.0,0.0
8923,63.0,0.0,60.0,12.0,0.0
8924,63.0,30.0,30.0,6.0,0.0
8925,66.0,0.0,60.0,10.0,0.0
8926,62.0,0.0,30.0,6.0,0.0
8927,44.0,0.0,60.0,13.0,0.0
8928,32.0,60.0,60.0,14.0,0.0
8929,59.0,0.0,60.0,12.0,0.0
8930,71.0,0.0,60.0,10.0,0.0
8931,44.0,0.0,60.0,7.0,0.0
8932,63.0,0.0,60.0,11.0,0.0
8933,63.0,30.0,30.0,6.0,0.0
8934,44.0,0.0,60.0,5.0,0.0
8935,65.0,0.0,30.0,6.0,0.0
8936,46.0,0.0,60.0,7.0,0.0
8937,34.0,0.0,120.0,14.0,0.0
8938,65.0,0.0,120.0,4.0,0.0
8939,46.0,59.0,120.0,13.0,0.0
8940,62.0,0.0,120.0,6.0,0.0
8941,46.0,60.0,60.0,5.0,0.0
8942,53.0,1.0,60.0,12.0,0.0
8943,58.0,0.0,60.0,5.0,0.0
8944,70.0,0.0,60.0,10.0,0.0
8945,62.0,0.0,60.0,11.0,0.0
8946,34.0,0.0,60.0,7.0,0.0
8947,34.0,0.0,60.0,13.0,0.0
8948,46.0,0.0,60.0,7.0,0.0
8949,58.0,0.0,60.0,12.0,0.0
8950,63.0,0.0,60.0,6.0,0.0
8951,68.0,0.0,60.0,10.0,0.0
8952,63.0,60.0,60.0,4.0,0.0
8953,65.0,0.0,60.0,11.0,0.0
8954,22.0,0.0,60.0,14.0,0.0
8955,46.0,0.0,60.0,5.0,0.0
8956,63.0,0.0,1080.0,11.0,0.0
8957,70.0,0.0,1080.0,10.0,0.0
8958,58.0,29.0,360.0,12.0,0.0
8959,39.0,60.0,60.0,7.0,0.0
8960,27.0,0.0,120.0,14.0,0.0
8961,63.0,0.0,180.0,6.0,0.0
8962,63.0,0.0,120.0,4.0,0.0
8963,51.0,0.0,120.0,5.0,0.0
8964,39.0,0.0,120.0,13.0,0.0
8965,51.0,60.0,60.0,7.0,0.0
8966,53.0,60.0,60.0,7.0,0.0
8967,41.0,0.0,60.0,13.0,0.0
8968,29.0,0.0,60.0,14.0,0.0
8969,42.0,0.0,60.0,13.0,0.0
8970,30.0,60.0,60.0,14.0,0.0
8971,54.0,0.0,60.0,7.0,0.0
8972,53.0,60.0,60.0,7.0,0.0
8973,29.0,0.0,60.0,14.0,0.0
8974,41.0,0.0,60.0,13.0,0.0
8975,39.0,0.0,60.0,13.0,0.0
8976,27.0,1.0,60.0,14.0,0.0
8977,61.0,0.0,60.0,6.0,0.0
8978,51.0,0.0,60.0,7.0,0.0
8979,60.0,30.0,30.0,6.0,0.0
8980,56.0,0.0,60.0,7.0,0.0
8981,32.0,30.0,120.0,14.0,0.0
8982,60.0,29.0,720.0,12.0,0.0
8983,44.0,0.0,120.0,13.0,0.0
8984,61.0,30.0,30.0,6.0,0.0
8985,44.0,0.0,60.0,7.0,0.0
8986,60.0,30.0,30.0,6.0,0.0
8987,58.0,0.0,30.0,6.0,0.0
8988,46.0,30.0,60.0,7.0,0.0
8989,60.0,30.0,30.0,6.0,0.0
8990,34.0,0.0,60.0,14.0,0.0
8991,46.0,0.0,60.0,13.0,0.0
8992,61.0,0.0,30.0,6.0,0.0
8993,48.0,30.0,30.0,7.0,0.0
8994,63.0,0.0,30.0,6.0,0.0
8995,36.0,30.0,120.0,14.0,0.0
8996,48.0,0.0,120.0,13.0,0.0
8997,64.0,0.0,30.0,6.0,0.0
8998,49.0,30.0,30.0,7.0,0.0
8999,48.0,0.0,30.0,7.0,0.0
9000,63.0,30.0,30.0,6.0,0.0
9001,61.0,0.0,30.0,6.0,0.0
9002,46.0,0.0,30.0,7.0,0.0
9003,49.0,30.0,60.0,13.0,0.0
9004,63.0,30.0,30.0,6.0,0.0
9005,48.0,0.0,30.0,7.0,0.0
9006,37.0,0.0,60.0,14.0,0.0
9007,49.0,0.0,30.0,7.0,0.0
9008,64.0,0.0,30.0,6.0,0.0
9009,39.0,0.0,120.0,14.0,0.0
9010,51.0,0.0,120.0,13.0,0.0
9011,51.0,0.0,30.0,7.0,0.0
9012,66.0,30.0,30.0,6.0,0.0
9013,52.0,0.0,30.0,7.0,0.0
9014,68.0,30.0,30.0,6.0,0.0
9015,51.0,30.0,30.0,7.0,0.0
9016,66.0,0.0,30.0,6.0,0.0
9017,57.0,0.0,60.0,5.0,0.0
9018,64.0,30.0,30.0,6.0,0.0
9019,49.0,0.0,30.0,7.0,0.0
9020,37.0,0.0,60.0,14.0,0.0
9021,66.0,30.0,30.0,6.0,0.0
9022,51.0,0.0,30.0,7.0,0.0
9023,49.0,0.0,60.0,13.0,0.0
9024,54.0,30.0,60.0,5.0,0.0
9025,52.0,0.0,30.0,7.0,0.0
9026,68.0,0.0,30.0,6.0,0.0
9027,48.0,30.0,120.0,13.0,0.0
9028,69.0,30.0,30.0,6.0,0.0
9029,51.0,30.0,60.0,5.0,0.0
9030,36.0,0.0,120.0,14.0,0.0
9031,54.0,0.0,30.0,7.0,0.0
9032,56.0,0.0,30.0,7.0,0.0
9033,68.0,0.0,30.0,6.0,0.0
9034,54.0,30.0,30.0,7.0,0.0
9035,48.0,0.0,60.0,5.0,0.0
9036,52.0,0.0,30.0,7.0,0.0
9037,44.0,1.0,60.0,13.0,0.0
9038,54.0,0.0,30.0,7.0,0.0
9039,66.0,30.0,30.0,6.0,0.0
9040,32.0,0.0,60.0,14.0,0.0
9041,63.0,30.0,90.0,4.0,0.0
9042,44.0,0.0,60.0,5.0,0.0
9043,56.0,0.0,30.0,7.0,0.0
9044,37.0,30.0,60.0,5.0,0.0
9045,37.0,0.0,120.0,13.0,0.0
9046,25.0,0.0,120.0,14.0,0.0
9047,59.0,29.0,480.0,12.0,0.0
9048,49.0,0.0,60.0,7.0,0.0
9049,65.0,29.0,720.0,10.0,0.0
9050,65.0,0.0,60.0,6.0,0.0
9051,61.0,29.0,1440.0,11.0,0.0
9052,66.0,0.0,30.0,4.0,0.0
9053,53.0,0.0,60.0,7.0,0.0
9054,68.0,0.0,60.0,6.0,0.0
9055,49.0,30.0,60.0,5.0,0.0
9056,65.0,30.0,30.0,4.0,0.0
9057,63.0,0.0,30.0,4.0,0.0
9058,65.0,30.0,30.0,4.0,0.0
9059,27.0,0.0,60.0,14.0,0.0
9060,56.0,0.0,60.0,7.0,0.0
9061,51.0,30.0,60.0,5.0,0.0
9062,39.0,0.0,60.0,13.0,0.0
9063,71.0,0.0,60.0,6.0,0.0
9064,66.0,0.0,30.0,4.0,0.0
9065,41.0,0.0,120.0,13.0,0.0
9066,53.0,30.0,30.0,5.0,0.0
9067,68.0,0.0,30.0,4.0,0.0
9068,61.0,0.0,120.0,6.0,0.0
9069,59.0,0.0,120.0,7.0,0.0
9070,29.0,0.0,120.0,14.0,0.0
9071,54.0,0.0,30.0,5.0,0.0
9072,70.0,30.0,30.0,4.0,0.0
9073,53.0,0.0,30.0,5.0,0.0
9074,68.0,30.0,30.0,4.0,0.0
9075,66.0,0.0,30.0,4.0,0.0
9076,51.0,30.0,30.0,5.0,0.0
9077,68.0,0.0,30.0,4.0,0.0
9078,42.0,0.0,60.0,13.0,0.0
9079,30.0,0.0,60.0,14.0,0.0
9080,53.0,30.0,30.0,5.0,0.0
9081,54.0,0.0,30.0,5.0,0.0
9082,70.0,30.0,30.0,4.0,0.0
9083,32.0,1.0,120.0,14.0,0.0
9084,56.0,0.0,30.0,5.0,0.0
9085,44.0,0.0,120.0,13.0,0.0
9086,71.0,30.0,30.0,4.0,0.0
9087,73.0,0.0,30.0,4.0,0.0
9088,58.0,30.0,30.0,5.0,0.0
9089,71.0,0.0,30.0,4.0,0.0
9090,56.0,30.0,30.0,5.0,0.0
9091,56.0,0.0,60.0,7.0,0.0
9092,70.0,0.0,30.0,4.0,0.0
9093,54.0,0.0,30.0,5.0,0.0
9094,30.0,1.0,60.0,14.0,0.0
9095,56.0,30.0,30.0,5.0,0.0
9096,54.0,0.0,60.0,7.0,0.0
9097,42.0,0.0,60.0,13.0,0.0
9098,58.0,29.0,60.0,12.0,0.0
9099,71.0,0.0,30.0,4.0,0.0
9100,73.0,0.0,30.0,4.0,0.0
9101,58.0,0.0,30.0,5.0,0.0
9102,41.0,0.0,120.0,13.0,0.0
9103,75.0,30.0,30.0,4.0,0.0
9104,53.0,0.0,60.0,7.0,0.0
9105,59.0,0.0,30.0,5.0,0.0
9106,56.0,29.0,120.0,12.0,0.0
9107,29.0,1.0,120.0,14.0,0.0
9108,61.0,30.0,30.0,5.0,0.0
9109,56.0,0.0,60.0,7.0,0.0
9110,59.0,30.0,30.0,5.0,0.0
9111,73.0,0.0,30.0,4.0,0.0
9112,58.0,0.0,30.0,5.0,0.0
9113,25.0,0.0,60.0,14.0,0.0
9114,59.0,30.0,30.0,5.0,0.0
9115,71.0,0.0,30.0,4.0,0.0
9116,37.0,0.0,60.0,13.0,0.0
9117,56.0,30.0,90.0,6.0,0.0
9118,49.0,0.0,60.0,7.0,0.0
9119,53.0,0.0,60.0,12.0,0.0
9120,61.0,1.0,30.0,5.0,0.0
9121,58.0,0.0,720.0,12.0,0.0
9122,70.0,0.0,60.0,4.0,0.0
9123,54.0,0.0,60.0,5.0,0.0
9124,42.0,0.0,120.0,13.0,0.0
9125,64.0,0.0,720.0,10.0,0.0
9126,54.0,0.0,60.0,7.0,0.0
9127,30.0,0.0,120.0,14.0,0.0
9128,59.0,30.0,30.0,6.0,0.0
9129,58.0,0.0,60.0,5.0,0.0
9130,73.0,0.0,60.0,4.0,0.0
9131,58.0,30.0,30.0,6.0,0.0
9132,42.0,0.0,60.0,7.0,0.0
9133,56.0,30.0,30.0,6.0,0.0
9134,44.0,0.0,60.0,13.0,0.0
9135,44.0,0.0,60.0,7.0,0.0
9136,61.0,30.0,60.0,5.0,0.0
9137,58.0,30.0,30.0,6.0,0.0
9138,76.0,0.0,60.0,4.0,0.0
9139,32.0,0.0,60.0,14.0,0.0
9140,59.0,0.0,30.0,6.0,0.0
9141,46.0,0.0,120.0,13.0,0.0
9142,66.0,0.0,120.0,4.0,0.0
9143,46.0,0.0,30.0,7.0,0.0
9144,61.0,30.0,30.0,6.0,0.0
9145,64.0,30.0,120.0,5.0,0.0
9146,34.0,0.0,120.0,14.0,0.0
9147,47.0,0.0,30.0,7.0,0.0
9148,63.0,30.0,30.0,6.0,0.0
9149,46.0,30.0,30.0,7.0,0.0
9150,61.0,0.0,30.0,6.0,0.0
9151,44.0,0.0,30.0,7.0,0.0
9152,59.0,0.0,30.0,6.0,0.0
9153,46.0,30.0,30.0,7.0,0.0
9154,61.0,0.0,30.0,6.0,0.0
9155,35.0,0.0,60.0,14.0,0.0
9156,47.0,0.0,60.0,13.0,0.0
9157,47.0,30.0,30.0,7.0,0.0
9158,63.0,0.0,30.0,6.0,0.0
9159,64.0,0.0,30.0,6.0,0.0
9160,49.0,30.0,120.0,13.0,0.0
9161,49.0,30.0,30.0,7.0,0.0
9162,37.0,0.0,120.0,14.0,0.0
9163,66.0,0.0,30.0,6.0,0.0
9164,51.0,30.0,30.0,7.0,0.0
9165,64.0,30.0,30.0,6.0,0.0
9166,61.0,0.0,60.0,5.0,0.0
9167,49.0,0.0,30.0,7.0,0.0
9168,63.0,0.0,30.0,6.0,0.0
9169,47.0,0.0,30.0,7.0,0.0
9170,64.0,30.0,30.0,6.0,0.0
9171,47.0,0.0,60.0,13.0,0.0
9172,49.0,0.0,30.0,7.0,0.0
9173,59.0,0.0,60.0,5.0,0.0
9174,35.0,0.0,60.0,14.0,0.0
9175,51.0,0.0,30.0,7.0,0.0
9176,66.0,30.0,30.0,6.0,0.0
9177,34.0,0.0,120.0,14.0,0.0
9178,58.0,0.0,60.0,5.0,0.0
9179,52.0,30.0,30.0,7.0,0.0
9180,46.0,0.0,120.0,13.0,0.0
9181,68.0,0.0,30.0,6.0,0.0
9182,54.0,30.0,30.0,7.0,0.0
9183,61.0,30.0,60.0,5.0,0.0
9184,52.0,0.0,30.0,7.0,0.0
9185,66.0,30.0,30.0,6.0,0.0
9186,51.0,0.0,30.0,7.0,0.0
9187,54.0,1.0,60.0,5.0,0.0
9188,64.0,30.0,30.0,6.0,0.0
9189,61.0,30.0,90.0,4.0,0.0
9190,52.0,0.0,30.0,7.0,0.0
9191,42.0,0.0,60.0,13.0,0.0
9192,30.0,0.0,60.0,14.0,0.0
9193,54.0,0.0,30.0,7.0,0.0
9194,59.0,0.0,60.0,5.0,0.0
9195,63.0,30.0,60.0,6.0,0.0
9196,35.0,30.0,120.0,13.0,0.0
9197,57.0,29.0,480.0,12.0,0.0
9198,63.0,0.0,780.0,10.0,0.0
9199,47.0,0.0,60.0,7.0,0.0
9200,23.0,0.0,120.0,14.0,0.0
9201,64.0,0.0,30.0,4.0,0.0
9202,51.0,0.0,60.0,7.0,0.0
9203,66.0,0.0,60.0,6.0,0.0
9204,47.0,0.0,60.0,5.0,0.0
9205,63.0,30.0,30.0,4.0,0.0
9206,61.0,0.0,30.0,4.0,0.0
9207,63.0,30.0,30.0,4.0,0.0
9208,25.0,0.0,60.0,14.0,0.0
9209,48.0,0.0,60.0,5.0,0.0
9210,54.0,0.0,60.0,7.0,0.0
9211,69.0,30.0,60.0,6.0,0.0
9212,37.0,0.0,60.0,13.0,0.0
9213,64.0,0.0,30.0,4.0,0.0
9214,39.0,0.0,120.0,13.0,0.0
9215,59.0,0.0,120.0,6.0,0.0
9216,27.0,0.0,120.0,14.0,0.0
9217,51.0,0.0,30.0,5.0,0.0
9218,57.0,0.0,120.0,7.0,0.0
9219,66.0,30.0,30.0,4.0,0.0
9220,52.0,0.0,30.0,5.0,0.0
9221,68.0,30.0,30.0,4.0,0.0
9222,51.0,0.0,30.0,5.0,0.0
9223,66.0,30.0,30.0,4.0,0.0
9224,49.0,30.0,30.0,5.0,0.0
9225,64.0,0.0,30.0,4.0,0.0
9226,28.0,0.0,60.0,14.0,0.0
9227,40.0,0.0,60.0,13.0,0.0
9228,66.0,30.0,30.0,4.0,0.0
9229,51.0,0.0,30.0,5.0,0.0
9230,68.0,0.0,30.0,4.0,0.0
9231,52.0,30.0,30.0,5.0,0.0
9232,54.0,0.0,30.0,5.0,0.0
9233,42.0,0.0,120.0,13.0,0.0
9234,30.0,0.0,120.0,14.0,0.0
9235,69.0,30.0,30.0,4.0,0.0
9236,56.0,0.0,30.0,5.0,0.0
9237,71.0,30.0,30.0,4.0,0.0
9238,54.0,1.0,60.0,7.0,0.0
9239,69.0,0.0,30.0,4.0,0.0
9240,54.0,30.0,30.0,5.0,0.0
9241,52.0,0.0,30.0,5.0,0.0
9242,68.0,0.0,30.0,4.0,0.0
9243,52.0,1.0,60.0,7.0,0.0
9244,56.0,29.0,60.0,12.0,0.0
9245,69.0,30.0,30.0,4.0,0.0
9246,40.0,0.0,60.0,13.0,0.0
9247,54.0,0.0,30.0,5.0,0.0
9248,28.0,0.0,60.0,14.0,0.0
9249,71.0,0.0,30.0,4.0,0.0
9250,56.0,0.0,30.0,5.0,0.0
9251,51.0,30.0,60.0,7.0,0.0
9252,27.0,0.0,120.0,14.0,0.0
9253,57.0,30.0,30.0,5.0,0.0
9254,54.0,29.0,120.0,12.0,0.0
9255,73.0,0.0,30.0,4.0,0.0
9256,39.0,1.0,120.0,13.0,0.0
9257,59.0,0.0,30.0,5.0,0.0
9258,71.0,0.0,30.0,4.0,0.0
9259,57.0,30.0,30.0,5.0,0.0
9260,54.0,0.0,60.0,7.0,0.0
9261,56.0,0.0,30.0,5.0,0.0
9262,69.0,0.0,30.0,4.0,0.0
9263,47.0,1.0,60.0,13.0,0.0
9264,35.0,0.0,60.0,14.0,0.0
9265,51.0,29.0,60.0,12.0,0.0
9266,47.0,0.0,60.0,7.0,0.0
9267,57.0,30.0,30.0,5.0,0.0
9268,78.0,30.0,90.0,6.0,0.0
9269,59.0,0.0,30.0,5.0,0.0
9270,40.0,0.0,120.0,14.0,0.0
9271,68.0,30.0,210.0,4.0,0.0
9272,52.0,0.0,120.0,13.0,0.0
9273,52.0,1.0,60.0,5.0,0.0
9274,56.0,0.0,60.0,12.0,0.0
9275,40.0,0.0,60.0,7.0,0.0
9276,80.0,0.0,30.0,6.0,0.0
9277,40.0,0.0,60.0,5.0,0.0
9278,68.0,0.0,60.0,10.0,0.0
9279,59.0,29.0,15.0,11.0,0.0
9280,78.0,30.0,30.0,6.0,0.0
9281,64.0,29.0,60.0,12.0,0.0
9282,52.0,1.0,60.0,7.0,0.0
9283,76.0,0.0,30.0,6.0,0.0
9284,78.0,30.0,30.0,6.0,0.0
9285,39.0,0.0,60.0,14.0,0.0
9286,39.0,1.0,60.0,5.0,0.0
9287,68.0,29.0,60.0,12.0,0.0
9288,51.0,0.0,60.0,13.0,0.0
9289,51.0,0.0,60.0,7.0,0.0
9290,63.0,0.0,60.0,11.0,0.0
9291,72.0,0.0,60.0,10.0,0.0
9292,75.0,0.0,30.0,6.0,0.0
9293,49.0,0.0,120.0,13.0,0.0
9294,37.0,0.0,120.0,14.0,0.0
9295,76.0,30.0,210.0,6.0,0.0
9296,49.0,30.0,60.0,7.0,0.0
9297,37.0,0.0,60.0,5.0,0.0
9298,69.0,0.0,30.0,4.0,0.0
9299,49.0,0.0,60.0,5.0,0.0
9300,68.0,30.0,30.0,4.0,0.0
9301,68.0,0.0,60.0,11.0,0.0
9302,37.0,0.0,60.0,7.0,0.0
9303,64.0,29.0,60.0,12.0,0.0
9304,73.0,0.0,60.0,10.0,0.0
9305,66.0,1.0,30.0,4.0,0.0
9306,76.0,1.0,60.0,10.0,0.0
9307,47.0,0.0,60.0,13.0,0.0
9308,35.0,0.0,60.0,14.0,0.0
9309,35.0,0.0,60.0,7.0,0.0
9310,47.0,0.0,60.0,5.0,0.0
9311,68.0,30.0,30.0,4.0,0.0
9312,73.0,0.0,60.0,11.0,0.0
9313,68.0,29.0,60.0,12.0,0.0
9314,64.0,0.0,30.0,4.0,0.0
9315,66.0,30.0,210.0,4.0,0.0
9316,46.0,0.0,60.0,5.0,0.0
9317,46.0,0.0,120.0,13.0,0.0
9318,34.0,0.0,60.0,7.0,0.0
9319,34.0,0.0,120.0,14.0,0.0
9320,78.0,30.0,30.0,6.0,0.0
9321,66.0,0.0,60.0,10.0,0.0
9322,61.0,1.0,60.0,11.0,0.0
9323,76.0,30.0,30.0,6.0,0.0
9324,42.0,0.0,60.0,5.0,0.0
9325,66.0,29.0,60.0,12.0,0.0
9326,46.0,0.0,60.0,7.0,0.0
9327,75.0,0.0,30.0,6.0,0.0
9328,61.0,29.0,60.0,12.0,0.0
9329,70.0,0.0,60.0,10.0,0.0
9330,42.0,0.0,60.0,13.0,0.0
9331,42.0,0.0,60.0,7.0,0.0
9332,30.0,0.0,60.0,14.0,0.0
9333,76.0,30.0,30.0,6.0,0.0
9334,66.0,0.0,60.0,11.0,0.0
9335,54.0,1.0,60.0,5.0,0.0
9336,73.0,0.0,30.0,6.0,0.0
9337,47.0,30.0,60.0,5.0,0.0
9338,35.0,0.0,120.0,14.0,0.0
9339,47.0,0.0,60.0,7.0,0.0
9340,47.0,0.0,120.0,13.0,0.0
9341,75.0,30.0,210.0,6.0,0.0
9342,68.0,0.0,30.0,4.0,0.0
9343,71.0,0.0,60.0,10.0,0.0
9344,66.0,30.0,30.0,4.0,0.0
9345,35.0,0.0,60.0,7.0,0.0
9346,51.0,0.0,60.0,5.0,0.0
9347,66.0,1.0,60.0,11.0,0.0
9348,63.0,29.0,60.0,12.0,0.0
9349,64.0,0.0,30.0,4.0,0.0
9350,47.0,1.0,60.0,7.0,0.0
9351,66.0,29.0,60.0,12.0,0.0
9352,47.0,0.0,60.0,5.0,0.0
9353,35.0,0.0,60.0,13.0,0.0
9354,23.0,0.0,60.0,14.0,0.0
9355,66.0,30.0,30.0,4.0,0.0
9356,71.0,0.0,60.0,11.0,0.0
9357,75.0,0.0,60.0,10.0,0.0
9358,63.0,0.0,30.0,4.0,0.0
9359,40.0,1.0,120.0,13.0,0.0
9360,28.0,0.0,120.0,14.0,0.0
9361,52.0,30.0,60.0,5.0,0.0
9362,68.0,0.0,210.0,4.0,0.0
9363,52.0,0.0,240.0,7.0,0.0
9364,76.0,0.0,30.0,6.0,0.0
9365,75.0,30.0,30.0,6.0,0.0
9366,71.0,0.0,60.0,10.0,0.0
9367,40.0,0.0,60.0,5.0,0.0
9368,68.0,0.0,60.0,11.0,0.0
9369,64.0,29.0,60.0,12.0,0.0
9370,73.0,0.0,30.0,6.0,0.0
9371,47.0,0.0,60.0,5.0,0.0
9372,75.0,30.0,30.0,6.0,0.0
9373,59.0,29.0,60.0,12.0,0.0
9374,64.0,0.0,60.0,11.0,0.0
9375,35.0,0.0,60.0,14.0,0.0
9376,68.0,0.0,60.0,10.0,0.0
9377,47.0,0.0,60.0,13.0,0.0
9378,71.0,1.0,30.0,6.0,0.0
9379,52.0,30.0,210.0,5.0,0.0
9380,40.0,0.0,300.0,14.0,0.0
9381,52.0,29.0,300.0,13.0,0.0
9382,73.0,30.0,30.0,6.0,0.0
9383,70.0,30.0,30.0,4.0,0.0
9384,76.0,0.0,30.0,6.0,0.0
9385,75.0,30.0,30.0,6.0,0.0
9386,56.0,29.0,60.0,12.0,0.0
9387,64.0,1.0,60.0,10.0,0.0
9388,40.0,0.0,60.0,7.0,0.0
9389,59.0,0.0,60.0,11.0,0.0
9390,71.0,0.0,30.0,4.0,0.0
9391,70.0,0.0,30.0,4.0,0.0
9392,73.0,0.0,30.0,6.0,0.0
9393,71.0,30.0,30.0,4.0,0.0
9394,52.0,29.0,60.0,12.0,0.0
9395,59.0,0.0,60.0,10.0,0.0
9396,56.0,1.0,60.0,11.0,0.0
9397,47.0,0.0,60.0,7.0,0.0
9398,75.0,0.0,30.0,6.0,0.0
9399,76.0,0.0,30.0,6.0,0.0
9400,73.0,0.0,30.0,4.0,0.0
9401,52.0,0.0,60.0,7.0,0.0
9402,70.0,0.0,30.0,6.0,0.0
9403,66.0,30.0,210.0,4.0,0.0
9404,66.0,30.0,30.0,6.0,0.0
9405,51.0,0.0,30.0,5.0,0.0
9406,64.0,0.0,30.0,6.0,0.0
9407,61.0,0.0,60.0,11.0,0.0
9408,66.0,0.0,60.0,10.0,0.0
9409,46.0,0.0,60.0,7.0,0.0
9410,58.0,0.0,60.0,12.0,0.0
9411,49.0,30.0,30.0,5.0,0.0
9412,51.0,1.0,30.0,5.0,0.0
9413,63.0,0.0,30.0,6.0,0.0
9414,52.0,30.0,30.0,5.0,0.0
9415,66.0,0.0,60.0,11.0,0.0
9416,61.0,29.0,60.0,12.0,0.0
9417,61.0,0.0,30.0,6.0,0.0
9418,28.0,0.0,60.0,14.0,0.0
9419,40.0,0.0,60.0,13.0,0.0
9420,70.0,1.0,60.0,10.0,0.0
9421,59.0,0.0,30.0,6.0,0.0
9422,49.0,0.0,30.0,5.0,0.0
9423,39.0,0.0,120.0,13.0,0.0
9424,71.0,0.0,60.0,6.0,0.0
9425,27.0,0.0,120.0,14.0,0.0
9426,51.0,0.0,60.0,5.0,0.0
9427,52.0,30.0,30.0,7.0,0.0
9428,68.0,0.0,30.0,4.0,0.0
9429,51.0,0.0,30.0,7.0,0.0
9430,39.0,0.0,60.0,5.0,0.0
9431,66.0,30.0,30.0,4.0,0.0
9432,66.0,0.0,60.0,11.0,0.0
9433,71.0,1.0,60.0,10.0,0.0
9434,63.0,29.0,60.0,12.0,0.0
9435,64.0,0.0,30.0,4.0,0.0
9436,49.0,0.0,30.0,7.0,0.0
9437,40.0,0.0,60.0,5.0,0.0
9438,64.0,0.0,60.0,11.0,0.0
9439,51.0,30.0,30.0,7.0,0.0
9440,59.0,29.0,60.0,12.0,0.0
9441,68.0,0.0,60.0,10.0,0.0
9442,66.0,0.0,30.0,4.0,0.0
9443,28.0,0.0,60.0,14.0,0.0
9444,40.0,1.0,60.0,13.0,0.0
9445,68.0,0.0,30.0,4.0,0.0
9446,47.0,0.0,30.0,7.0,0.0
9447,58.0,30.0,210.0,4.0,0.0
9448,54.0,30.0,60.0,7.0,0.0
9449,30.0,0.0,120.0,14.0,0.0
9450,42.0,30.0,30.0,5.0,0.0
9451,42.0,0.0,120.0,13.0,0.0
9452,73.0,0.0,30.0,6.0,0.0
9453,46.0,0.0,30.0,5.0,0.0
9454,54.0,0.0,60.0,11.0,0.0
9455,58.0,29.0,60.0,12.0,0.0
9456,49.0,30.0,30.0,5.0,0.0
9457,71.0,0.0,30.0,6.0,0.0
9458,61.0,0.0,60.0,10.0,0.0
9459,54.0,1.0,30.0,5.0,0.0
9460,70.0,0.0,30.0,6.0,0.0
9461,54.0,0.0,60.0,13.0,0.0
9462,61.0,29.0,60.0,12.0,0.0
9463,66.0,0.0,60.0,10.0,0.0
9464,68.0,0.0,30.0,6.0,0.0
9465,52.0,30.0,30.0,5.0,0.0
9466,58.0,0.0,60.0,11.0,0.0
9467,42.0,0.0,60.0,14.0,0.0
9468,66.0,0.0,30.0,6.0,0.0
9469,51.0,1.0,30.0,5.0,0.0
9470,78.0,0.0,60.0,6.0,0.0
9471,52.0,0.0,120.0,13.0,0.0
9472,40.0,0.0,120.0,14.0,0.0
9473,52.0,0.0,60.0,5.0,0.0
9474,56.0,30.0,30.0,4.0,0.0
9475,49.0,0.0,30.0,7.0,0.0
9476,40.0,0.0,60.0,5.0,0.0
9477,61.0,0.0,60.0,11.0,0.0
9478,66.0,0.0,60.0,10.0,0.0
9479,58.0,0.0,30.0,4.0,0.0
9480,54.0,30.0,30.0,7.0,0.0
9481,58.0,29.0,60.0,12.0,0.0
9482,56.0,1.0,30.0,7.0,0.0
9483,59.0,0.0,30.0,4.0,0.0
9484,39.0,0.0,60.0,5.0,0.0
9485,58.0,0.0,30.0,7.0,0.0
9486,54.0,29.0,60.0,12.0,0.0
9487,39.0,0.0,60.0,14.0,0.0
9488,51.0,0.0,60.0,13.0,0.0
9489,66.0,0.0,60.0,11.0,0.0
9490,61.0,30.0,30.0,4.0,0.0
9491,71.0,0.0,60.0,10.0,0.0
9492,63.0,0.0,30.0,4.0,0.0
9493,59.0,1.0,30.0,7.0,0.0
9494,61.0,30.0,60.0,7.0,0.0
9495,37.0,0.0,120.0,14.0,0.0
9496,49.0,0.0,120.0,13.0,0.0
9497,37.0,0.0,60.0,5.0,0.0
9498,64.0,30.0,30.0,4.0,0.0
9499,68.0,0.0,30.0,4.0,0.0
9500,70.0,1.0,60.0,10.0,0.0
9501,66.0,30.0,30.0,4.0,0.0
9502,61.0,0.0,60.0,11.0,0.0
9503,49.0,0.0,60.0,5.0,0.0
9504,49.0,0.0,60.0,7.0,0.0
9505,52.0,59.0,60.0,12.0,0.0
9506,64.0,0.0,30.0,4.0,0.0
9507,56.0,29.0,60.0,12.0,0.0
9508,47.0,0.0,60.0,5.0,0.0
9509,73.0,30.0,90.0,4.0,0.0
9510,35.0,1.0,60.0,14.0,0.0
9511,64.0,0.0,60.0,11.0,0.0
9512,47.0,0.0,60.0,13.0,0.0
9513,68.0,0.0,60.0,10.0,0.0
9514,34.0,0.0,60.0,14.0,0.0
9515,46.0,0.0,60.0,5.0,0.0
9516,46.0,30.0,60.0,13.0,0.0
9517,71.0,0.0,30.0,4.0,0.0
9518,70.0,30.0,30.0,4.0,0.0
9519,42.0,0.0,30.0,7.0,0.0
9520,61.0,29.0,60.0,12.0,0.0
9521,42.0,0.0,60.0,13.0,0.0
9522,42.0,0.0,60.0,5.0,0.0
9523,66.0,0.0,60.0,10.0,0.0
9524,30.0,0.0,60.0,14.0,0.0
9525,66.0,1.0,60.0,11.0,0.0
9526,44.0,0.0,30.0,7.0,0.0
9527,68.0,0.0,30.0,4.0,0.0
9528,58.0,29.0,60.0,12.0,0.0
9529,66.0,30.0,30.0,4.0,0.0
9530,46.0,0.0,60.0,13.0,0.0
9531,73.0,0.0,60.0,10.0,0.0
9532,34.0,0.0,60.0,14.0,0.0
9533,46.0,0.0,30.0,7.0,0.0
9534,46.0,0.0,60.0,5.0,0.0
9535,61.0,0.0,60.0,11.0,0.0
9536,42.0,0.0,30.0,7.0,0.0
9537,64.0,1.0,30.0,4.0,0.0
9538,63.0,0.0,30.0,4.0,0.0
9539,66.0,30.0,210.0,6.0,0.0
9540,35.0,0.0,120.0,14.0,0.0
9541,47.0,30.0,30.0,7.0,0.0
9542,47.0,0.0,120.0,13.0,0.0
9543,47.0,0.0,120.0,5.0,0.0
9544,46.0,30.0,30.0,7.0,0.0
9545,66.0,0.0,30.0,4.0,0.0
9546,66.0,0.0,60.0,11.0,0.0
9547,54.0,29.0,60.0,12.0,0.0
9548,71.0,0.0,60.0,10.0,0.0
9549,47.0,30.0,30.0,7.0,0.0
9550,64.0,0.0,30.0,4.0,0.0
9551,42.0,0.0,30.0,7.0,0.0
9552,63.0,1.0,30.0,4.0,0.0
9553,61.0,29.0,60.0,12.0,0.0
9554,70.0,0.0,60.0,10.0,0.0
9555,49.0,1.0,60.0,13.0,0.0
9556,49.0,0.0,30.0,7.0,0.0
9557,61.0,30.0,30.0,4.0,0.0
9558,37.0,0.0,60.0,14.0,0.0
9559,64.0,0.0,60.0,11.0,0.0
9560,59.0,0.0,30.0,4.0,0.0
9561,42.0,0.0,30.0,7.0,0.0
9562,39.0,0.0,120.0,14.0,0.0
9563,71.0,0.0,60.0,4.0,0.0
9564,51.0,0.0,60.0,7.0,0.0
9565,51.0,0.0,120.0,13.0,0.0
9566,52.0,0.0,30.0,5.0,0.0
9567,68.0,30.0,30.0,6.0,0.0
9568,66.0,0.0,60.0,11.0,0.0
9569,71.0,1.0,60.0,10.0,0.0
9570,59.0,29.0,60.0,12.0,0.0
9571,51.0,30.0,30.0,5.0,0.0
9572,39.0,0.0,60.0,7.0,0.0
9573,66.0,0.0,30.0,6.0,0.0
9574,64.0,0.0,30.0,6.0,0.0
9575,49.0,0.0,30.0,5.0,0.0
9576,51.0,30.0,30.0,5.0,0.0
9577,68.0,0.0,60.0,10.0,0.0
9578,59.0,29.0,60.0,12.0,0.0
9579,66.0,0.0,30.0,6.0,0.0
9580,40.0,1.0,60.0,14.0,0.0
9581,52.0,0.0,60.0,13.0,0.0
9582,64.0,0.0,60.0,11.0,0.0
9583,40.0,0.0,60.0,7.0,0.0
9584,47.0,0.0,30.0,5.0,0.0
9585,68.0,0.0,30.0,6.0,0.0
9586,30.0,1.0,120.0,14.0,0.0
9587,42.0,30.0,30.0,7.0,0.0
9588,58.0,30.0,210.0,6.0,0.0
9589,54.0,0.0,60.0,5.0,0.0
9590,42.0,0.0,120.0,13.0,0.0
9591,73.0,0.0,30.0,4.0,0.0
9592,46.0,30.0,30.0,7.0,0.0
9593,54.0,29.0,60.0,12.0,0.0
9594,61.0,0.0,60.0,11.0,0.0
9595,71.0,0.0,30.0,4.0,0.0
9596,49.0,30.0,30.0,7.0,0.0
9597,66.0,0.0,60.0,10.0,0.0
9598,70.0,0.0,30.0,4.0,0.0
9599,54.0,0.0,30.0,7.0,0.0
9600,54.0,0.0,60.0,13.0,0.0
9601,42.0,0.0,60.0,14.0,0.0
9602,70.0,0.0,60.0,10.0,0.0
9603,64.0,0.0,60.0,11.0,0.0
9604,61.0,29.0,60.0,12.0,0.0
9605,68.0,30.0,30.0,4.0,0.0
9606,52.0,0.0,30.0,7.0,0.0
9607,51.0,1.0,30.0,7.0,0.0
9608,66.0,0.0,30.0,4.0,0.0
9609,40.0,0.0,120.0,14.0,0.0
9610,52.0,30.0,60.0,7.0,0.0
9611,52.0,0.0,120.0,13.0,0.0
9612,78.0,0.0,60.0,4.0,0.0
9613,56.0,0.0,30.0,6.0,0.0
9614,49.0,0.0,30.0,5.0,0.0
9615,66.0,29.0,60.0,12.0,0.0
9616,66.0,1.0,60.0,11.0,0.0
9617,73.0,0.0,60.0,10.0,0.0
9618,54.0,0.0,30.0,5.0,0.0
9619,40.0,0.0,60.0,7.0,0.0
9620,58.0,30.0,30.0,6.0,0.0
9621,56.0,0.0,30.0,5.0,0.0
9622,59.0,0.0,30.0,6.0,0.0
9623,54.0,29.0,60.0,12.0,0.0
9624,61.0,30.0,30.0,6.0,0.0
9625,51.0,0.0,60.0,13.0,0.0
9626,59.0,0.0,60.0,11.0,0.0
9627,78.0,1.0,60.0,10.0,0.0
9628,58.0,0.0,30.0,5.0,0.0
9629,39.0,0.0,60.0,14.0,0.0
9630,39.0,0.0,60.0,7.0,0.0
9631,59.0,0.0,30.0,5.0,0.0
9632,63.0,0.0,30.0,6.0,0.0
9633,37.0,0.0,120.0,14.0,0.0
9634,64.0,30.0,30.0,6.0,0.0
9635,37.0,0.0,60.0,7.0,0.0
9636,49.0,0.0,120.0,13.0,0.0
9637,61.0,30.0,60.0,5.0,0.0
9638,68.0,0.0,30.0,6.0,0.0
9639,49.0,0.0,60.0,5.0,0.0
9640,66.0,30.0,30.0,6.0,0.0
9641,61.0,0.0,60.0,11.0,0.0
9642,64.0,59.0,60.0,12.0,0.0
9643,68.0,0.0,60.0,10.0,0.0
9644,49.0,1.0,60.0,7.0,0.0
9645,61.0,0.0,60.0,4.0,0.0
9646,64.0,0.0,30.0,6.0,0.0
9647,35.0,0.0,60.0,14.0,0.0
9648,68.0,0.0,60.0,11.0,0.0
9649,61.0,29.0,60.0,12.0,0.0
9650,64.0,0.0,60.0,4.0,0.0
9651,64.0,0.0,60.0,10.0,0.0
9652,47.0,0.0,60.0,13.0,0.0
9653,47.0,1.0,60.0,7.0,0.0
9654,73.0,30.0,90.0,6.0,0.0
9655,46.0,0.0,60.0,7.0,0.0
9656,34.0,0.0,60.0,14.0,0.0
9657,46.0,0.0,60.0,13.0,0.0
9658,68.0,30.0,60.0,4.0,0.0
9659,71.0,0.0,30.0,6.0,0.0
9660,61.0,0.0,60.0,10.0,0.0
9661,61.0,29.0,60.0,12.0,0.0
9662,42.0,0.0,60.0,7.0,0.0
9663,73.0,30.0,150.0,4.0,0.0
9664,30.0,0.0,60.0,14.0,0.0
9665,70.0,30.0,30.0,6.0,0.0
9666,66.0,0.0,60.0,11.0,0.0
9667,42.0,0.0,60.0,13.0,0.0
9668,42.0,0.0,30.0,5.0,0.0
9669,68.0,0.0,30.0,6.0,0.0
9670,44.0,1.0,30.0,5.0,0.0
9671,46.0,0.0,30.0,5.0,0.0
9672,46.0,1.0,60.0,7.0,0.0
9673,34.0,0.0,60.0,14.0,0.0
9674,58.0,29.0,60.0,12.0,0.0
9675,66.0,30.0,30.0,6.0,0.0
9676,73.0,0.0,60.0,11.0,0.0
9677,46.0,0.0,60.0,13.0,0.0
9678,66.0,0.0,60.0,10.0,0.0
9679,42.0,0.0,30.0,5.0,0.0
9680,64.0,0.0,30.0,6.0,0.0
9681,63.0,30.0,210.0,6.0,0.0
9682,47.0,0.0,120.0,13.0,0.0
9683,47.0,30.0,60.0,7.0,0.0
9684,47.0,0.0,60.0,5.0,0.0
9685,35.0,0.0,120.0,14.0,0.0
9686,75.0,0.0,30.0,4.0,0.0
9687,54.0,29.0,60.0,12.0,0.0
9688,66.0,0.0,60.0,10.0,0.0
9689,75.0,0.0,60.0,11.0,0.0
9690,35.0,0.0,60.0,7.0,0.0
9691,73.0,30.0,30.0,4.0,0.0
9692,59.0,1.0,60.0,5.0,0.0
9693,71.0,0.0,30.0,4.0,0.0
9694,34.0,1.0,60.0,7.0,0.0
9695,58.0,29.0,60.0,12.0,0.0
9696,34.0,0.0,60.0,14.0,0.0
9697,73.0,0.0,60.0,11.0,0.0
9698,54.0,0.0,60.0,10.0,0.0
9699,73.0,30.0,30.0,4.0,0.0
9700,58.0,0.0,60.0,5.0,0.0
9701,46.0,0.0,60.0,13.0,0.0
9702,75.0,0.0,30.0,4.0,0.0
9703,32.0,0.0,120.0,14.0,0.0
9704,71.0,30.0,210.0,4.0,0.0
9705,32.0,0.0,60.0,7.0,0.0
9706,44.0,0.0,120.0,13.0,0.0
9707,56.0,0.0,60.0,5.0,0.0
9708,64.0,30.0,30.0,6.0,0.0
9709,56.0,1.0,60.0,7.0,0.0
9710,59.0,29.0,60.0,12.0,0.0
9711,44.0,0.0,60.0,5.0,0.0
9712,71.0,0.0,60.0,11.0,0.0
9713,59.0,0.0,60.0,10.0,0.0
9714,63.0,30.0,30.0,6.0,0.0
9715,61.0,0.0,30.0,6.0,0.0
9716,63.0,30.0,30.0,6.0,0.0
9717,30.0,0.0,60.0,14.0,0.0
9718,63.0,0.0,60.0,10.0,0.0
9719,70.0,1.0,60.0,11.0,0.0
9720,66.0,29.0,60.0,12.0,0.0
9721,42.0,0.0,60.0,13.0,0.0
9722,54.0,0.0,60.0,7.0,0.0
9723,42.0,0.0,60.0,5.0,0.0
9724,64.0,0.0,30.0,6.0,0.0
9725,61.0,30.0,210.0,6.0,0.0
9726,28.0,0.0,120.0,14.0,0.0
9727,40.0,0.0,60.0,5.0,0.0
9728,40.0,0.0,120.0,13.0,0.0
9729,52.0,0.0,60.0,7.0,0.0
9730,73.0,30.0,30.0,4.0,0.0
9731,71.0,30.0,30.0,4.0,0.0
9732,61.0,29.0,60.0,12.0,0.0
9733,40.0,0.0,60.0,7.0,0.0
9734,52.0,0.0,60.0,5.0,0.0
9735,68.0,0.0,60.0,10.0,0.0
9736,68.0,0.0,60.0,11.0,0.0
9737,70.0,1.0,30.0,4.0,0.0
9738,52.0,0.0,60.0,7.0,0.0
9739,61.0,0.0,60.0,10.0,0.0
9740,64.0,0.0,60.0,11.0,0.0
9741,71.0,30.0,30.0,4.0,0.0
9742,40.0,1.0,60.0,5.0,0.0
9743,52.0,0.0,60.0,13.0,0.0
9744,68.0,29.0,60.0,12.0,0.0
9745,40.0,0.0,60.0,14.0,0.0
9746,73.0,0.0,30.0,4.0,0.0
9747,42.0,0.0,120.0,14.0,0.0
9748,54.0,0.0,60.0,7.0,0.0
9749,54.0,0.0,120.0,13.0,0.0
9750,63.0,30.0,210.0,4.0,0.0
9751,42.0,30.0,60.0,5.0,0.0
9752,63.0,0.0,30.0,6.0,0.0
9753,54.0,1.0,60.0,5.0,0.0
9754,63.0,0.0,60.0,11.0,0.0
9755,61.0,30.0,30.0,6.0,0.0
9756,42.0,0.0,60.0,7.0,0.0
9757,54.0,29.0,60.0,12.0,0.0
9758,70.0,0.0,60.0,10.0,0.0
9759,59.0,0.0,30.0,6.0,0.0
9760,42.0,0.0,60.0,5.0,0.0
9761,61.0,0.0,60.0,11.0,0.0
9762,66.0,0.0,60.0,10.0,0.0
9763,58.0,29.0,60.0,12.0,0.0
9764,54.0,0.0,60.0,7.0,0.0
9765,30.0,0.0,60.0,14.0,0.0
9766,42.0,1.0,60.0,13.0,0.0
9767,61.0,30.0,30.0,6.0,0.0
9768,63.0,0.0,30.0,6.0,0.0
9769,32.0,0.0,120.0,14.0,0.0
9770,56.0,0.0,60.0,7.0,0.0
9771,64.0,0.0,30.0,6.0,0.0
9772,44.0,0.0,120.0,13.0,0.0
9773,44.0,0.0,60.0,5.0,0.0
9774,64.0,30.0,30.0,4.0,0.0
9775,68.0,0.0,30.0,6.0,0.0
9776,63.0,30.0,30.0,4.0,0.0
9777,44.0,0.0,60.0,7.0,0.0
9778,59.0,1.0,60.0,11.0,0.0
9779,66.0,0.0,30.0,6.0,0.0
9780,56.0,0.0,60.0,5.0,0.0
9781,56.0,29.0,60.0,12.0,0.0
9782,71.0,0.0,60.0,10.0,0.0
9783,61.0,0.0,30.0,4.0,0.0
9784,64.0,0.0,30.0,6.0,0.0
9785,52.0,29.0,60.0,12.0,0.0
9786,71.0,0.0,60.0,11.0,0.0
9787,44.0,0.0,60.0,14.0,0.0
9788,56.0,1.0,60.0,7.0,0.0
9789,63.0,0.0,30.0,4.0,0.0
9790,59.0,0.0,60.0,10.0,0.0
9791,44.0,0.0,60.0,5.0,0.0
9792,56.0,0.0,60.0,13.0,0.0
9793,66.0,30.0,30.0,6.0,0.0
9794,64.0,0.0,30.0,4.0,0.0
9795,68.0,0.0,30.0,6.0,0.0
9796,42.0,0.0,60.0,5.0,0.0
9797,42.0,0.0,120.0,14.0,0.0
9798,59.0,30.0,210.0,6.0,0.0
9799,54.0,30.0,60.0,7.0,0.0
9800,66.0,30.0,30.0,4.0,0.0
9801,54.0,0.0,120.0,13.0,0.0
9802,68.0,0.0,30.0,4.0,0.0
9803,42.0,0.0,60.0,7.0,0.0
9804,54.0,0.0,60.0,11.0,0.0
9805,63.0,1.0,60.0,10.0,0.0
9806,59.0,29.0,60.0,12.0,0.0
9807,66.0,30.0,30.0,4.0,0.0
9808,54.0,0.0,60.0,5.0,0.0
9809,64.0,0.0,30.0,4.0,0.0
9810,40.0,0.0,60.0,7.0,0.0
9811,66.0,30.0,30.0,4.0,0.0
9812,52.0,0.0,60.0,13.0,0.0
9813,61.0,0.0,60.0,11.0,0.0
9814,61.0,0.0,60.0,10.0,0.0
9815,40.0,0.0,60.0,14.0,0.0
9816,52.0,1.0,60.0,5.0,0.0
9817,56.0,29.0,60.0,12.0,0.0
9818,68.0,0.0,30.0,4.0,0.0
9819,54.0,0.0,120.0,13.0,0.0
9820,42.0,0.0,120.0,14.0,0.0
9821,42.0,30.0,60.0,7.0,0.0
9822,54.0,0.0,60.0,5.0,0.0
9823,63.0,1.0,180.0,4.0,0.0
9824,61.0,0.0,30.0,6.0,0.0
9825,63.0,0.0,60.0,10.0,0.0
9826,59.0,29.0,60.0,12.0,0.0
9827,54.0,1.0,60.0,11.0,0.0
9828,54.0,0.0,60.0,7.0,0.0
9829,42.0,0.0,60.0,5.0,0.0
9830,59.0,30.0,30.0,6.0,0.0
9831,58.0,0.0,30.0,6.0,0.0
9832,40.0,0.0,60.0,5.0,0.0
9833,56.0,59.0,60.0,12.0,0.0
9834,59.0,0.0,60.0,11.0,0.0
9835,68.0,0.0,60.0,10.0,0.0
9836,52.0,0.0,60.0,7.0,0.0
9837,59.0,30.0,30.0,6.0,0.0
9838,40.0,0.0,60.0,14.0,0.0
9839,52.0,0.0,60.0,13.0,0.0
9840,61.0,0.0,30.0,6.0,0.0
9841,54.0,0.0,120.0,13.0,0.0
9842,58.0,0.0,120.0,6.0,0.0
9843,61.0,0.0,120.0,4.0,0.0
9844,54.0,0.0,60.0,7.0,0.0
9845,42.0,60.0,60.0,5.0,0.0
9846,42.0,0.0,120.0,14.0,0.0
9847,54.0,0.0,60.0,5.0,0.0
9848,42.0,0.0,60.0,7.0,0.0
9849,58.0,1.0,60.0,11.0,0.0
9850,66.0,0.0,60.0,10.0,0.0
9851,49.0,59.0,60.0,12.0,0.0
9852,54.0,29.0,60.0,12.0,0.0
9853,30.0,0.0,60.0,14.0,0.0
9854,59.0,0.0,60.0,6.0,0.0
9855,64.0,1.0,60.0,10.0,0.0
9856,54.0,0.0,60.0,7.0,0.0
9857,42.0,0.0,60.0,13.0,0.0
9858,59.0,0.0,60.0,4.0,0.0
9859,42.0,0.0,60.0,5.0,0.0
9860,61.0,0.0,60.0,11.0,0.0
9861,47.0,30.0,30.0,5.0,0.0
9862,47.0,30.0,60.0,7.0,0.0
9863,59.0,30.0,210.0,4.0,0.0
9864,35.0,1.0,120.0,14.0,0.0
9865,47.0,0.0,120.0,13.0,0.0
9866,59.0,29.0,1110.0,6.0,0.0
9867,49.0,0.0,30.0,5.0,0.0
9868,35.0,0.0,60.0,7.0,0.0
9869,59.0,0.0,60.0,11.0,0.0
9870,47.0,30.0,30.0,5.0,0.0
9871,63.0,0.0,60.0,10.0,0.0
9872,54.0,29.0,60.0,12.0,0.0
9873,46.0,0.0,30.0,5.0,0.0
9874,59.0,1.0,60.0,10.0,0.0
9875,54.0,0.0,60.0,11.0,0.0
9876,47.0,30.0,30.0,5.0,0.0
9877,23.0,0.0,60.0,14.0,0.0
9878,47.0,0.0,60.0,7.0,0.0
9879,35.0,0.0,60.0,13.0,0.0
9880,51.0,29.0,60.0,12.0,0.0
9881,51.0,0.0,30.0,5.0,0.0
9882,49.0,0.0,30.0,5.0,0.0
9883,37.0,0.0,120.0,13.0,0.0
9884,25.0,0.0,120.0,14.0,0.0
9885,49.0,30.0,60.0,7.0,0.0
9886,52.0,0.0,30.0,5.0,0.0
9887,73.0,0.0,30.0,4.0,0.0
9888,37.0,0.0,60.0,7.0,0.0
9889,56.0,29.0,60.0,12.0,0.0
9890,51.0,0.0,30.0,5.0,0.0
9891,71.0,30.0,30.0,4.0,0.0
9892,61.0,0.0,60.0,11.0,0.0
9893,64.0,0.0,60.0,10.0,0.0
9894,70.0,0.0,30.0,4.0,0.0
9895,49.0,1.0,30.0,5.0,0.0
9896,71.0,30.0,30.0,4.0,0.0
9897,39.0,0.0,60.0,13.0,0.0
9898,59.0,0.0,60.0,11.0,0.0
9899,51.0,0.0,30.0,5.0,0.0
9900,27.0,0.0,60.0,14.0,0.0
9901,39.0,0.0,60.0,7.0,0.0
9902,54.0,29.0,60.0,12.0,0.0
9903,66.0,1.0,60.0,10.0,0.0
9904,54.0,0.0,30.0,5.0,0.0
9905,75.0,0.0,30.0,4.0,0.0
9906,52.0,0.0,60.0,5.0,0.0
9907,28.0,0.0,120.0,14.0,0.0
9908,40.0,30.0,30.0,7.0,0.0
9909,68.0,30.0,210.0,4.0,0.0
9910,40.0,0.0,120.0,13.0,0.0
9911,54.0,30.0,30.0,7.0,0.0
9912,68.0,1.0,60.0,10.0,0.0
9913,40.0,0.0,60.0,5.0,0.0
9914,59.0,0.0,60.0,11.0,0.0
9915,52.0,30.0,30.0,7.0,0.0
9916,52.0,29.0,60.0,12.0,0.0
9917,51.0,0.0,30.0,7.0,0.0
9918,39.0,0.0,60.0,5.0,0.0
9919,39.0,0.0,60.0,13.0,0.0
9920,52.0,30.0,30.0,7.0,0.0
9921,27.0,0.0,60.0,14.0,0.0
9922,56.0,29.0,60.0,12.0,0.0
9923,71.0,0.0,60.0,10.0,0.0
9924,64.0,1.0,60.0,11.0,0.0
9925,56.0,0.0,30.0,7.0,0.0
9926,40.0,30.0,60.0,5.0,0.0
9927,40.0,0.0,120.0,13.0,0.0
9928,47.0,0.0,30.0,7.0,0.0
9929,28.0,0.0,120.0,14.0,0.0
9930,70.0,0.0,30.0,4.0,0.0
9931,49.0,0.0,30.0,7.0,0.0
9932,47.0,0.0,30.0,7.0,0.0
9933,59.0,29.0,60.0,12.0,0.0
9934,68.0,0.0,60.0,11.0,0.0
9935,76.0,1.0,60.0,10.0,0.0
9936,68.0,30.0,30.0,4.0,0.0
9937,52.0,0.0,60.0,5.0,0.0
9938,46.0,0.0,30.0,7.0,0.0
9939,67.0,0.0,30.0,4.0,0.0
9940,47.0,0.0,30.0,7.0,0.0
9941,30.0,0.0,60.0,14.0,0.0
9942,42.0,0.0,60.0,13.0,0.0
9943,71.0,0.0,60.0,11.0,0.0
9944,63.0,29.0,60.0,12.0,0.0
9945,75.0,0.0,60.0,10.0,0.0
9946,68.0,30.0,30.0,4.0,0.0
9947,47.0,0.0,60.0,5.0,0.0
9948,51.0,0.0,30.0,7.0,0.0
9949,71.0,1.0,30.0,4.0,0.0
9950,44.0,30.0,30.0,5.0,0.0
9951,44.0,0.0,120.0,13.0,0.0
9952,32.0,0.0,120.0,14.0,0.0
9953,64.0,0.0,210.0,4.0,0.0
9954,44.0,0.0,30.0,7.0,0.0
9955,54.0,30.0,30.0,5.0,0.0
9956,45.0,0.0,30.0,7.0,0.0
9957,52.0,30.0,30.0,5.0,0.0
9958,71.0,0.0,60.0,11.0,0.0
9959,76.0,0.0,60.0,10.0,0.0
9960,44.0,0.0,30.0,7.0,0.0
9961,52.0,29.0,60.0,12.0,0.0
9962,42.0,1.0,30.0,7.0,0.0
9963,51.0,0.0,30.0,5.0,0.0
9964,68.0,0.0,60.0,11.0,0.0
9965,40.0,1.0,60.0,13.0,0.0
9966,52.0,0.0,30.0,5.0,0.0
9967,64.0,29.0,60.0,12.0,0.0
9968,44.0,30.0,30.0,7.0,0.0
9969,28.0,0.0,60.0,14.0,0.0
9970,71.0,0.0,60.0,10.0,0.0
9971,40.0,0.0,30.0,7.0,0.0
9972,47.0,0.0,30.0,5.0,0.0
9973,47.0,30.0,30.0,7.0,0.0
9974,35.0,0.0,120.0,14.0,0.0
9975,47.0,0.0,120.0,13.0,0.0
9976,56.0,0.0,30.0,5.0,0.0
9977,66.0,0.0,30.0,4.0,0.0
9978,57.0,30.0,30.0,5.0,0.0
9979,45.0,0.0,30.0,7.0,0.0
9980,47.0,30.0,30.0,7.0,0.0
9981,64.0,0.0,60.0,11.0,0.0
9982,59.0,29.0,60.0,12.0,0.0
9983,68.0,0.0,60.0,10.0,0.0
9984,64.0,0.0,30.0,4.0,0.0
9985,56.0,0.0,30.0,5.0,0.0
9986,51.0,1.0,30.0,7.0,0.0
9987,63.0,0.0,30.0,4.0,0.0
9988,55.0,0.0,30.0,5.0,0.0
9989,56.0,0.0,30.0,5.0,0.0
9990,71.0,0.0,60.0,10.0,0.0
9991,44.0,0.0,30.0,7.0,0.0
9992,64.0,30.0,30.0,4.0,0.0
9993,64.0,30.0,60.0,12.0,0.0
9994,32.0,0.0,60.0,14.0,0.0
9995,44.0,0.0,60.0,13.0,0.0
9996,68.0,1.0,60.0,11.0,0.0
9997,44.0,0.0,30.0,5.0,0.0
9998,47.0,0.0,30.0,7.0,0.0
9999,68.0,0.0,30.0,4.0,0.0
10000,62.0,29.0,180.0,12.0,0.0
10001,68.0,1.0,180.0,11.0,0.0
10002,65.0,0.0,180.0,10.0,0.0
10003,46.0,0.0,120.0,7.0,0.0
10004,46.0,0.0,180.0,13.0,0.0
10005,46.0,0.0,180.0,5.0,0.0
10006,62.0,0.0,180.0,4.0,0.0
10007,34.0,0.0,180.0,14.0,0.0
10008,59.0,30.0,30.0,6.0,0.0
10009,58.0,30.0,30.0,6.0,0.0
10010,56.0,30.0,30.0,6.0,0.0
10011,58.0,30.0,30.0,6.0,0.0
10012,60.0,0.0,30.0,6.0,0.0
10013,62.0,30.0,30.0,6.0,0.0
10014,63.0,0.0,30.0,6.0,0.0
10015,51.0,30.0,30.0,7.0,0.0
10016,53.0,0.0,30.0,7.0,0.0
10017,62.0,30.0,30.0,6.0,0.0
10018,54.0,0.0,30.0,7.0,0.0
10019,60.0,30.0,30.0,6.0,0.0
10020,53.0,0.0,30.0,7.0,0.0
10021,62.0,30.0,30.0,6.0,0.0
10022,63.0,30.0,30.0,6.0,0.0
10023,51.0,0.0,30.0,7.0,0.0
10024,50.0,30.0,30.0,7.0,0.0
10025,65.0,0.0,30.0,6.0,0.0
10026,66.0,30.0,30.0,6.0,0.0
10027,48.0,0.0,30.0,7.0,0.0
10028,50.0,30.0,30.0,7.0,0.0
10029,65.0,0.0,30.0,6.0,0.0
10030,63.0,30.0,30.0,6.0,0.0
10031,51.0,0.0,30.0,7.0,0.0
10032,50.0,0.0,30.0,7.0,0.0
10033,65.0,30.0,30.0,6.0,0.0
10034,48.0,30.0,30.0,7.0,0.0
10035,67.0,0.0,30.0,6.0,0.0
10036,68.0,30.0,30.0,6.0,0.0
10037,34.0,0.0,180.0,13.0,0.0
10038,22.0,359.0,180.0,14.0,0.0
10039,74.0,1.0,180.0,10.0,0.0
10040,58.0,0.0,180.0,7.0,0.0
10041,46.0,0.0,180.0,7.0,0.0
10042,50.0,0.0,180.0,7.0,0.0
10043,65.0,0.0,180.0,5.0,0.0
10044,58.0,0.0,180.0,12.0,0.0
10045,65.0,0.0,180.0,11.0,0.0
10046,70.0,0.0,180.0,10.0,0.0
10047,58.0,0.0,180.0,5.0,0.0
10048,68.0,0.0,180.0,4.0,0.0
10049,74.0,0.0,180.0,4.0,0.0
10050,53.0,0.0,180.0,7.0,0.0
10051,68.0,0.0,180.0,11.0,0.0
10052,70.0,30.0,30.0,6.0,0.0
10053,68.0,30.0,30.0,6.0,0.0
10054,67.0,30.0,30.0,6.0,0.0
10055,68.0,30.0,30.0,6.0,0.0
10056,70.0,0.0,30.0,6.0,0.0
10057,67.0,0.0,360.0,6.0,0.0
10058,70.0,0.0,360.0,10.0,0.0
10059,75.0,0.0,360.0,10.0,0.0
10060,58.0,0.0,360.0,12.0,0.0
10061,39.0,0.0,360.0,13.0,0.0
10062,51.0,0.0,360.0,5.0,0.0
10063,58.0,0.0,360.0,5.0,0.0
10064,63.0,0.0,360.0,5.0,0.0
10065,58.0,0.0,360.0,7.0,0.0
10066,51.0,0.0,360.0,7.0,0.0
10067,67.0,1.0,360.0,11.0,0.0
10068,75.0,0.0,360.0,4.0,0.0
10069,67.0,0.0,360.0,4.0,0.0
10070,63.0,0.0,360.0,11.0,0.0
10071,27.0,959.0,360.0,14.0,0.0
10072,68.0,0.0,60.0,4.0,0.0
10073,68.0,0.0,60.0,6.0,0.0
10074,68.0,60.0,60.0,0.0,0.0
10075,63.0,60.0,60.0,6.0,0.0
10076,63.0,0.0,60.0,4.0,0.0
10077,63.0,0.0,60.0,0.0,0.0
10078,68.0,0.0,60.0,6.0,0.0
10079,68.0,0.0,60.0,4.0,0.0
10080,68.0,60.0,60.0,0.0,0.0
10081,61.0,0.0,60.0,0.0,0.0
10082,61.0,60.0,60.0,6.0,0.0
10083,61.0,0.0,60.0,4.0,0.0
10084,68.0,0.0,60.0,6.0,0.0
10085,68.0,0.0,60.0,0.0,0.0
10086,68.0,30.0,60.0,4.0,0.0
10087,59.0,0.0,30.0,4.0,0.0
10088,59.0,0.0,30.0,0.0,0.0
10089,59.0,30.0,30.0,6.0,0.0
10090,58.0,0.0,30.0,0.0,0.0
10091,58.0,0.0,30.0,4.0,0.0
10092,58.0,30.0,30.0,6.0,0.0
10093,59.0,0.0,30.0,6.0,0.0
10094,59.0,0.0,30.0,0.0,0.0
10095,59.0,30.0,30.0,4.0,0.0
10096,58.0,0.0,30.0,6.0,0.0
10097,58.0,60.0,30.0,0.0,0.0
10098,58.0,0.0,30.0,4.0,0.0
10099,56.0,0.0,60.0,0.0,0.0
10100,56.0,0.0,60.0,4.0,0.0
10101,56.0,60.0,60.0,6.0,0.0
10102,56.0,0.0,60.0,3.0,0.0
10103,56.0,0.0,60.0,5.0,0.0
10104,63.0,30.0,60.0,2.0,0.0
10105,68.0,0.0,60.0,1.0,0.0
10106,71.0,0.0,60.0,4.0,0.0
10107,71.0,0.0,60.0,0.0,0.0
10108,71.0,0.0,60.0,6.0,0.0
10109,56.0,0.0,60.0,7.0,0.0
10110,54.0,30.0,30.0,7.0,0.0
10111,70.0,0.0,60.0,1.0,0.0
10112,70.0,30.0,60.0,6.0,0.0
10113,54.0,0.0,30.0,3.0,0.0
10114,70.0,0.0,60.0,4.0,0.0
10115,54.0,0.0,30.0,5.0,0.0
10116,70.0,0.0,60.0,0.0,0.0
10117,51.0,0.0,60.0,2.0,0.0
10118,56.0,0.0,30.0,3.0,0.0
10119,56.0,0.0,30.0,5.0,0.0
10120,56.0,0.0,30.0,7.0,0.0
10121,54.0,0.0,30.0,3.0,0.0
10122,54.0,0.0,30.0,5.0,0.0
10123,75.0,0.0,120.0,4.0,0.0
10124,51.0,0.0,60.0,2.0,0.0
10125,54.0,30.0,30.0,7.0,0.0
10126,58.0,0.0,60.0,1.0,0.0
10127,75.0,0.0,120.0,0.0,0.0
10128,75.0,0.0,120.0,6.0,0.0
10129,56.0,30.0,30.0,7.0,0.0
10130,56.0,0.0,30.0,5.0,0.0
10131,56.0,0.0,30.0,3.0,0.0
10132,52.0,0.0,30.0,7.0,0.0
10133,52.0,30.0,30.0,5.0,0.0
10134,56.0,0.0,60.0,2.0,0.0
10135,52.0,0.0,30.0,3.0,0.0
10136,59.0,0.0,60.0,1.0,0.0
10137,54.0,30.0,30.0,5.0,0.0
10138,54.0,0.0,30.0,7.0,0.0
10139,54.0,0.0,30.0,3.0,0.0
10140,52.0,30.0,30.0,7.0,0.0
10141,68.0,30.0,60.0,6.0,0.0
10142,56.0,0.0,60.0,2.0,0.0
10143,68.0,0.0,60.0,4.0,0.0
10144,52.0,0.0,30.0,3.0,0.0
10145,68.0,0.0,60.0,0.0,0.0
10146,52.0,0.0,30.0,5.0,0.0
10147,61.0,0.0,60.0,1.0,0.0
10148,54.0,0.0,30.0,5.0,0.0
10149,54.0,0.0,30.0,7.0,0.0
10150,54.0,0.0,30.0,3.0,0.0
10151,58.0,0.0,60.0,2.0,0.0
10152,63.0,30.0,30.0,1.0,0.0
10153,67.0,0.0,30.0,4.0,0.0
10154,51.0,0.0,60.0,7.0,0.0
10155,51.0,0.0,60.0,3.0,0.0
10156,67.0,0.0,30.0,0.0,0.0
10157,51.0,30.0,60.0,5.0,0.0
10158,67.0,0.0,30.0,6.0,0.0
10159,65.0,0.0,30.0,6.0,0.0
10160,65.0,0.0,30.0,0.0,0.0
10161,65.0,0.0,30.0,1.0,0.0
10162,65.0,0.0,30.0,4.0,0.0
10163,46.0,0.0,60.0,7.0,0.0
10164,67.0,0.0,30.0,6.0,0.0
10165,46.0,0.0,60.0,5.0,0.0
10166,67.0,0.0,30.0,4.0,0.0
10167,58.0,0.0,60.0,2.0,0.0
10168,67.0,0.0,30.0,0.0,0.0
10169,63.0,30.0,30.0,1.0,0.0
10170,46.0,0.0,60.0,3.0,0.0
10171,65.0,30.0,30.0,0.0,0.0
10172,65.0,0.0,30.0,4.0,0.0
10173,65.0,0.0,30.0,1.0,0.0
10174,65.0,0.0,30.0,6.0,0.0
10175,63.0,0.0,30.0,0.0,0.0
10176,63.0,0.0,30.0,4.0,0.0
10177,39.0,0.0,60.0,7.0,0.0
10178,58.0,0.0,60.0,2.0,0.0
10179,39.0,0.0,60.0,3.0,0.0
10180,67.0,30.0,30.0,1.0,0.0
10181,63.0,0.0,30.0,6.0,0.0
10182,39.0,0.0,60.0,5.0,0.0
10183,65.0,0.0,30.0,6.0,0.0
10184,65.0,0.0,30.0,4.0,0.0
10185,65.0,0.0,30.0,0.0,0.0
10186,68.0,30.0,30.0,1.0,0.0
10187,70.0,0.0,30.0,1.0,0.0
10188,67.0,30.0,30.0,6.0,0.0
10189,49.0,0.0,60.0,3.0,0.0
10190,67.0,0.0,30.0,0.0,0.0
10191,49.0,30.0,60.0,5.0,0.0
10192,67.0,0.0,30.0,4.0,0.0
10193,49.0,0.0,60.0,7.0,0.0
10194,58.0,0.0,60.0,2.0,0.0
10195,67.0,0.0,30.0,1.0,0.0
10196,63.0,0.0,30.0,4.0,0.0
10197,63.0,0.0,30.0,6.0,0.0
10198,63.0,0.0,30.0,0.0,0.0
10199,59.0,0.0,60.0,2.0,0.0
10200,68.0,0.0,60.0,0.0,0.0
10201,47.0,0.0,30.0,7.0,0.0
10202,47.0,0.0,30.0,5.0,0.0
10203,47.0,30.0,30.0,3.0,0.0
10204,68.0,0.0,60.0,4.0,0.0
10205,68.0,0.0,60.0,6.0,0.0
10206,63.0,30.0,60.0,1.0,0.0
10207,49.0,0.0,30.0,5.0,0.0
10208,49.0,0.0,30.0,7.0,0.0
10209,49.0,0.0,30.0,3.0,0.0
10210,47.0,0.0,30.0,3.0,0.0
10211,63.0,0.0,60.0,4.0,0.0
10212,59.0,0.0,60.0,2.0,0.0
10213,68.0,30.0,120.0,1.0,0.0
10214,47.0,0.0,30.0,5.0,0.0
10215,63.0,0.0,60.0,0.0,0.0
10216,63.0,30.0,60.0,6.0,0.0
10217,47.0,30.0,30.0,7.0,0.0
10218,49.0,0.0,30.0,3.0,0.0
10219,49.0,0.0,30.0,7.0,0.0
10220,49.0,0.0,30.0,5.0,0.0
10221,46.0,30.0,30.0,7.0,0.0
10222,46.0,0.0,30.0,3.0,0.0
10223,61.0,0.0,60.0,2.0,0.0
10224,70.0,0.0,60.0,4.0,0.0
10225,70.0,0.0,60.0,6.0,0.0
10226,46.0,0.0,30.0,5.0,0.0
10227,70.0,0.0,60.0,0.0,0.0
10228,47.0,0.0,30.0,5.0,0.0
10229,47.0,0.0,30.0,3.0,0.0
10230,47.0,0.0,30.0,7.0,0.0
10231,46.0,30.0,30.0,7.0,0.0
10232,67.0,0.0,60.0,1.0,0.0
10233,63.0,0.0,60.0,6.0,0.0
10234,46.0,0.0,30.0,3.0,0.0
10235,46.0,0.0,30.0,5.0,0.0
10236,63.0,30.0,60.0,4.0,0.0
10237,63.0,0.0,60.0,0.0,0.0
10238,61.0,0.0,60.0,2.0,0.0
10239,47.0,0.0,30.0,7.0,0.0
10240,47.0,0.0,30.0,3.0,0.0
10241,47.0,0.0,30.0,5.0,0.0
10242,44.0,0.0,30.0,5.0,0.0
10243,44.0,30.0,30.0,7.0,0.0
10244,68.0,0.0,120.0,4.0,0.0
10245,73.0,30.0,60.0,6.0,0.0
10246,68.0,0.0,60.0,1.0,0.0
10247,73.0,0.0,60.0,0.0,0.0
10248,73.0,0.0,60.0,4.0,0.0
10249,63.0,30.0,180.0,2.0,0.0
10250,63.0,29.0,120.0,4.0,0.0
10251,44.0,0.0,30.0,3.0,0.0
10252,46.0,0.0,30.0,3.0,0.0
10253,46.0,0.0,30.0,7.0,0.0
10254,46.0,0.0,30.0,5.0,0.0
10255,71.0,0.0,90.0,4.0,0.0
10256,44.0,0.0,30.0,7.0,0.0
10257,44.0,0.0,30.0,3.0,0.0
10258,63.0,1.0,60.0,1.0,0.0
10259,44.0,30.0,30.0,5.0,0.0
10260,71.0,30.0,90.0,0.0,0.0
10261,71.0,0.0,90.0,6.0,0.0
10262,46.0,0.0,30.0,5.0,0.0
10263,46.0,0.0,30.0,7.0,0.0
10264,46.0,0.0,30.0,3.0,0.0
10265,42.0,0.0,30.0,5.0,0.0
10266,42.0,0.0,30.0,3.0,0.0
10267,42.0,0.0,30.0,7.0,0.0
10268,68.0,0.0,60.0,1.0,0.0
10269,68.0,0.0,30.0,0.0,0.0
10270,68.0,0.0,30.0,4.0,0.0
10271,44.0,0.0,30.0,7.0,0.0
10272,44.0,0.0,30.0,3.0,0.0
10273,44.0,0.0,30.0,5.0,0.0
10274,68.0,0.0,30.0,6.0,0.0
10275,70.0,0.0,30.0,6.0,0.0
10276,70.0,0.0,30.0,4.0,0.0
10277,42.0,0.0,30.0,5.0,0.0
10278,42.0,30.0,30.0,3.0,0.0
10279,63.0,30.0,60.0,2.0,0.0
10280,42.0,0.0,30.0,7.0,0.0
10281,70.0,0.0,30.0,0.0,0.0
10282,63.0,0.0,60.0,1.0,0.0
10283,72.0,0.0,30.0,0.0,0.0
10284,72.0,0.0,30.0,6.0,0.0
10285,72.0,0.0,30.0,4.0,0.0
10286,44.0,0.0,30.0,7.0,0.0
10287,44.0,0.0,30.0,5.0,0.0
10288,44.0,0.0,30.0,3.0,0.0
10289,64.0,0.0,60.0,2.0,0.0
10290,40.0,0.0,30.0,7.0,0.0
10291,40.0,30.0,30.0,3.0,0.0
10292,68.0,0.0,60.0,1.0,0.0
10293,40.0,0.0,30.0,5.0,0.0
10294,73.0,0.0,60.0,0.0,0.0
10295,73.0,0.0,60.0,6.0,0.0
10296,73.0,0.0,60.0,4.0,0.0
10297,42.0,0.0,30.0,5.0,0.0
10298,42.0,0.0,30.0,3.0,0.0
10299,42.0,30.0,30.0,7.0,0.0
10300,40.0,30.0,30.0,7.0,0.0
10301,64.0,0.0,60.0,2.0,0.0
10302,68.0,0.0,60.0,4.0,0.0
10303,73.0,0.0,120.0,1.0,0.0
10304,68.0,0.0,60.0,0.0,0.0
10305,40.0,0.0,30.0,3.0,0.0
10306,40.0,0.0,30.0,5.0,0.0
10307,68.0,30.0,60.0,6.0,0.0
10308,42.0,0.0,30.0,3.0,0.0
10309,42.0,0.0,30.0,5.0,0.0
10310,42.0,0.0,30.0,7.0,0.0
10311,66.0,0.0,60.0,2.0,0.0
10312,75.0,0.0,60.0,4.0,0.0
10313,75.0,0.0,60.0,6.0,0.0
10314,75.0,0.0,60.0,0.0,0.0
10315,39.0,0.0,30.0,5.0,0.0
10316,39.0,0.0,30.0,3.0,0.0
10317,39.0,30.0,30.0,7.0,0.0
10318,40.0,0.0,30.0,3.0,0.0
10319,40.0,30.0,30.0,5.0,0.0
10320,40.0,0.0,30.0,7.0,0.0
10321,68.0,0.0,60.0,4.0,0.0
10322,68.0,0.0,60.0,6.0,0.0
10323,68.0,0.0,60.0,0.0,0.0
10324,66.0,0.0,60.0,2.0,0.0
10325,39.0,30.0,30.0,7.0,0.0
10326,72.0,0.0,60.0,1.0,0.0
10327,39.0,0.0,30.0,5.0,0.0
10328,39.0,0.0,30.0,3.0,0.0
10329,40.0,0.0,30.0,7.0,0.0
10330,40.0,30.0,30.0,5.0,0.0
10331,40.0,0.0,30.0,3.0,0.0
10332,37.0,30.0,30.0,5.0,0.0
10333,37.0,0.0,30.0,3.0,0.0
10334,78.0,0.0,60.0,0.0,0.0
10335,68.0,0.0,180.0,2.0,0.0
10336,73.0,0.0,60.0,1.0,0.0
10337,68.0,29.0,120.0,4.0,0.0
10338,37.0,0.0,30.0,7.0,0.0
10339,73.0,0.0,120.0,4.0,0.0
10340,78.0,0.0,60.0,4.0,0.0
10341,78.0,0.0,60.0,6.0,0.0
10342,36.0,0.0,30.0,3.0,0.0
10343,36.0,30.0,30.0,7.0,0.0
10344,36.0,0.0,30.0,5.0,0.0
10345,37.0,0.0,30.0,3.0,0.0
10346,37.0,0.0,30.0,7.0,0.0
10347,37.0,30.0,30.0,5.0,0.0
10348,76.0,0.0,90.0,4.0,0.0
10349,76.0,0.0,90.0,0.0,0.0
10350,76.0,0.0,90.0,6.0,0.0
10351,68.0,0.0,60.0,1.0,0.0
10352,39.0,0.0,30.0,7.0,0.0
10353,39.0,1.0,30.0,3.0,0.0
10354,39.0,0.0,30.0,5.0,0.0
10355,40.0,0.0,30.0,5.0,0.0
10356,40.0,0.0,30.0,3.0,0.0
10357,73.0,0.0,60.0,1.0,0.0
10358,40.0,30.0,30.0,7.0,0.0
10359,75.0,0.0,30.0,6.0,0.0
10360,75.0,0.0,30.0,0.0,0.0
10361,75.0,30.0,30.0,4.0,0.0
10362,42.0,0.0,30.0,7.0,0.0
10363,42.0,0.0,30.0,3.0,0.0
10364,42.0,0.0,30.0,5.0,0.0
10365,76.0,0.0,30.0,4.0,0.0
10366,61.0,30.0,60.0,2.0,0.0
10367,44.0,0.0,30.0,5.0,0.0
10368,44.0,0.0,30.0,7.0,0.0
10369,76.0,0.0,30.0,0.0,0.0
10370,68.0,0.0,60.0,1.0,0.0
10371,76.0,0.0,30.0,6.0,0.0
10372,44.0,30.0,30.0,3.0,0.0
10373,46.0,0.0,30.0,3.0,0.0
10374,46.0,0.0,30.0,5.0,0.0
10375,46.0,0.0,30.0,7.0,0.0
10376,73.0,0.0,30.0,0.0,0.0
10377,73.0,0.0,30.0,6.0,0.0
10378,73.0,0.0,30.0,4.0,0.0
10379,68.0,0.0,30.0,0.0,0.0
10380,48.0,0.0,60.0,7.0,0.0
10381,48.0,0.0,60.0,3.0,0.0
10382,75.0,0.0,60.0,1.0,0.0
10383,63.0,0.0,60.0,2.0,0.0
10384,48.0,0.0,60.0,5.0,0.0
10385,68.0,0.0,30.0,4.0,0.0
10386,68.0,30.0,30.0,6.0,0.0
10387,67.0,30.0,30.0,6.0,0.0
10388,67.0,0.0,30.0,4.0,0.0
10389,67.0,0.0,30.0,0.0,0.0
10390,51.0,0.0,60.0,3.0,0.0
10391,68.0,30.0,30.0,0.0,0.0
10392,68.0,0.0,30.0,4.0,0.0
10393,63.0,0.0,60.0,2.0,0.0
10394,51.0,0.0,60.0,5.0,0.0
10395,68.0,0.0,30.0,6.0,0.0
10396,68.0,0.0,60.0,1.0,0.0
10397,51.0,30.0,60.0,7.0,0.0
10398,70.0,0.0,30.0,0.0,0.0
10399,70.0,0.0,30.0,4.0,0.0
10400,70.0,0.0,30.0,6.0,0.0
10401,75.0,30.0,60.0,1.0,0.0
10402,44.0,0.0,60.0,3.0,0.0
10403,44.0,0.0,60.0,5.0,0.0
10404,72.0,30.0,30.0,6.0,0.0
10405,44.0,0.0,60.0,7.0,0.0
10406,68.0,0.0,60.0,2.0,0.0
10407,72.0,0.0,30.0,4.0,0.0
10408,72.0,0.0,30.0,0.0,0.0
10409,73.0,0.0,30.0,0.0,0.0
10410,73.0,0.0,30.0,6.0,0.0
10411,73.0,0.0,30.0,4.0,0.0
10412,75.0,30.0,30.0,6.0,0.0
10413,48.0,0.0,60.0,7.0,0.0
10414,48.0,0.0,60.0,3.0,0.0
10415,68.0,0.0,60.0,1.0,0.0
10416,48.0,0.0,60.0,5.0,0.0
10417,75.0,0.0,30.0,4.0,0.0
10418,68.0,0.0,60.0,2.0,0.0
10419,75.0,0.0,30.0,0.0,0.0
10420,76.0,30.0,30.0,4.0,0.0
10421,76.0,0.0,30.0,0.0,0.0
10422,76.0,0.0,30.0,6.0,0.0
10423,78.0,0.0,30.0,6.0,0.0
10424,49.0,0.0,60.0,5.0,0.0
10425,78.0,0.0,30.0,0.0,0.0
10426,68.0,0.0,60.0,2.0,0.0
10427,49.0,0.0,60.0,3.0,0.0
10428,49.0,0.0,60.0,7.0,0.0
10429,78.0,30.0,30.0,4.0,0.0
10430,73.0,30.0,60.0,1.0,0.0
10431,75.0,0.0,30.0,4.0,0.0
10432,75.0,0.0,30.0,6.0,0.0
10433,75.0,0.0,30.0,0.0,0.0
10434,37.0,0.0,60.0,7.0,0.0
10435,37.0,0.0,60.0,3.0,0.0
10436,76.0,30.0,30.0,0.0,0.0
10437,64.0,0.0,60.0,2.0,0.0
10438,68.0,0.0,60.0,1.0,0.0
10439,76.0,0.0,30.0,6.0,0.0
10440,76.0,0.0,30.0,4.0,0.0
10441,37.0,30.0,60.0,5.0,0.0
10442,73.0,0.0,30.0,6.0,0.0
10443,73.0,0.0,30.0,0.0,0.0
10444,73.0,0.0,30.0,4.0,0.0
10445,68.0,30.0,30.0,4.0,0.0
10446,73.0,0.0,60.0,1.0,0.0
10447,40.0,30.0,60.0,7.0,0.0
10448,68.0,0.0,30.0,6.0,0.0
10449,68.0,0.0,30.0,0.0,0.0
10450,40.0,0.0,60.0,5.0,0.0
10451,40.0,0.0,60.0,3.0,0.0
10452,61.0,0.0,60.0,2.0,0.0
10453,73.0,0.0,30.0,6.0,0.0
10454,73.0,0.0,30.0,0.0,0.0
10455,73.0,0.0,30.0,4.0,0.0
10456,44.0,0.0,60.0,5.0,0.0
10457,44.0,0.0,60.0,7.0,0.0
10458,76.0,0.0,30.0,4.0,0.0
10459,76.0,30.0,30.0,0.0,0.0
10460,44.0,0.0,60.0,3.0,0.0
10461,76.0,0.0,30.0,6.0,0.0
10462,61.0,30.0,60.0,2.0,0.0
10463,68.0,0.0,60.0,1.0,0.0
10464,73.0,0.0,30.0,4.0,0.0
10465,73.0,0.0,30.0,0.0,0.0
10466,73.0,0.0,30.0,6.0,0.0
10467,48.0,0.0,60.0,5.0,0.0
10468,75.0,0.0,60.0,1.0,0.0
10469,63.0,0.0,60.0,2.0,0.0
10470,48.0,0.0,60.0,3.0,0.0
10471,68.0,0.0,30.0,4.0,0.0
10472,68.0,0.0,30.0,6.0,0.0
10473,48.0,0.0,60.0,7.0,0.0
10474,68.0,30.0,30.0,0.0,0.0
10475,67.0,30.0,30.0,4.0,0.0
10476,67.0,0.0,30.0,0.0,0.0
10477,67.0,0.0,30.0,6.0,0.0
10478,68.0,30.0,30.0,0.0,0.0
10479,51.0,0.0,60.0,5.0,0.0
10480,68.0,0.0,30.0,6.0,0.0
10481,51.0,0.0,60.0,7.0,0.0
10482,51.0,0.0,60.0,3.0,0.0
10483,68.0,0.0,60.0,1.0,0.0
10484,63.0,0.0,60.0,2.0,0.0
10485,68.0,0.0,30.0,4.0,0.0
10486,70.0,0.0,30.0,0.0,0.0
10487,70.0,0.0,30.0,6.0,0.0
10488,70.0,30.0,30.0,4.0,0.0
10489,44.0,0.0,60.0,5.0,0.0
10490,44.0,0.0,60.0,3.0,0.0
10491,72.0,0.0,30.0,6.0,0.0
10492,75.0,0.0,60.0,1.0,0.0
10493,68.0,0.0,60.0,2.0,0.0
10494,44.0,0.0,60.0,7.0,0.0
10495,72.0,0.0,30.0,4.0,0.0
10496,72.0,30.0,30.0,0.0,0.0
10497,73.0,30.0,30.0,0.0,0.0
10498,73.0,0.0,30.0,6.0,0.0
10499,73.0,0.0,30.0,4.0,0.0
10500,68.0,0.0,60.0,1.0,0.0
10501,48.0,0.0,60.0,5.0,0.0
10502,75.0,30.0,30.0,4.0,0.0
10503,48.0,0.0,60.0,3.0,0.0
10504,68.0,30.0,60.0,2.0,0.0
10505,75.0,0.0,30.0,6.0,0.0
10506,75.0,0.0,30.0,0.0,0.0
10507,48.0,0.0,60.0,7.0,0.0
10508,76.0,0.0,30.0,0.0,0.0
10509,76.0,0.0,30.0,4.0,0.0
10510,76.0,0.0,30.0,6.0,0.0
10511,49.0,0.0,60.0,5.0,0.0
10512,78.0,0.0,30.0,0.0,0.0
10513,78.0,30.0,30.0,6.0,0.0
10514,68.0,0.0,60.0,2.0,0.0
10515,73.0,0.0,60.0,1.0,0.0
10516,49.0,0.0,60.0,7.0,0.0
10517,78.0,0.0,30.0,4.0,0.0
10518,49.0,30.0,60.0,3.0,0.0
10519,75.0,0.0,30.0,6.0,0.0
10520,75.0,0.0,30.0,0.0,0.0
10521,75.0,0.0,30.0,4.0,0.0
10522,37.0,0.0,60.0,7.0,0.0
10523,37.0,0.0,60.0,3.0,0.0
10524,37.0,0.0,60.0,5.0,0.0
10525,76.0,30.0,30.0,0.0,0.0
10526,68.0,0.0,60.0,1.0,0.0
10527,76.0,0.0,30.0,4.0,0.0
10528,76.0,0.0,30.0,6.0,0.0
10529,64.0,30.0,60.0,2.0,0.0
10530,73.0,0.0,30.0,6.0,0.0
10531,73.0,0.0,30.0,0.0,0.0
10532,73.0,0.0,30.0,4.0,0.0
10533,68.0,30.0,30.0,0.0,0.0
10534,68.0,0.0,30.0,4.0,0.0
10535,73.0,0.0,60.0,1.0,0.0
10536,61.0,30.0,60.0,2.0,0.0
10537,40.0,0.0,60.0,7.0,0.0
10538,68.0,0.0,30.0,6.0,0.0
10539,40.0,0.0,60.0,5.0,0.0
10540,40.0,0.0,60.0,3.0,0.0
10541,73.0,0.0,30.0,6.0,0.0
10542,73.0,0.0,30.0,0.0,0.0
10543,73.0,0.0,30.0,4.0,0.0
10544,76.0,0.0,30.0,6.0,0.0
10545,44.0,0.0,60.0,3.0,0.0
10546,76.0,0.0,30.0,4.0,0.0
10547,76.0,30.0,30.0,0.0,0.0
10548,68.0,0.0,60.0,1.0,0.0
10549,61.0,0.0,60.0,2.0,0.0
10550,44.0,30.0,60.0,7.0,0.0
10551,44.0,0.0,60.0,5.0,0.0
10552,73.0,0.0,30.0,6.0,0.0
10553,73.0,0.0,30.0,4.0,0.0
10554,73.0,0.0,30.0,0.0,0.0
10555,61.0,0.0,60.0,2.0,0.0
10556,73.0,0.0,60.0,1.0,0.0
10557,46.0,30.0,60.0,7.0,0.0
10558,46.0,0.0,60.0,5.0,0.0
10559,46.0,0.0,60.0,3.0,0.0
10560,66.0,0.0,30.0,6.0,0.0
10561,66.0,0.0,30.0,4.0,0.0
10562,66.0,30.0,30.0,0.0,0.0
10563,65.0,0.0,30.0,6.0,0.0
10564,65.0,0.0,30.0,4.0,0.0
10565,65.0,0.0,30.0,0.0,0.0
10566,49.0,0.0,60.0,5.0,0.0
10567,66.0,0.0,30.0,6.0,0.0
10568,66.0,0.0,60.0,1.0,0.0
10569,61.0,30.0,60.0,2.0,0.0
10570,49.0,0.0,60.0,7.0,0.0
10571,49.0,0.0,60.0,3.0,0.0
10572,66.0,0.0,30.0,4.0,0.0
10573,66.0,30.0,30.0,0.0,0.0
10574,68.0,0.0,30.0,6.0,0.0
10575,68.0,0.0,30.0,4.0,0.0
10576,68.0,0.0,30.0,0.0,0.0
10577,70.0,0.0,30.0,4.0,0.0
10578,70.0,30.0,30.0,6.0,0.0
10579,66.0,0.0,60.0,2.0,0.0
10580,42.0,0.0,60.0,7.0,0.0
10581,42.0,0.0,60.0,3.0,0.0
10582,70.0,0.0,30.0,0.0,0.0
10583,73.0,30.0,60.0,1.0,0.0
10584,42.0,0.0,60.0,5.0,0.0
10585,71.0,0.0,30.0,4.0,0.0
10586,71.0,0.0,30.0,0.0,0.0
10587,71.0,0.0,30.0,6.0,0.0
10588,73.0,0.0,30.0,0.0,0.0
10589,46.0,30.0,60.0,3.0,0.0
10590,46.0,0.0,60.0,7.0,0.0
10591,46.0,0.0,60.0,5.0,0.0
10592,66.0,0.0,60.0,1.0,0.0
10593,73.0,30.0,30.0,6.0,0.0
10594,66.0,0.0,60.0,2.0,0.0
10595,73.0,0.0,30.0,4.0,0.0
10596,75.0,0.0,30.0,0.0,0.0
10597,75.0,0.0,30.0,4.0,0.0
10598,75.0,0.0,30.0,6.0,0.0
10599,47.0,0.0,60.0,7.0,0.0
10600,76.0,30.0,30.0,0.0,0.0
10601,47.0,0.0,60.0,3.0,0.0
10602,71.0,0.0,60.0,1.0,0.0
10603,76.0,0.0,30.0,6.0,0.0
10604,66.0,30.0,60.0,2.0,0.0
10605,47.0,0.0,60.0,5.0,0.0
10606,76.0,0.0,30.0,4.0,0.0
10607,73.0,0.0,30.0,0.0,0.0
10608,73.0,0.0,30.0,6.0,0.0
10609,73.0,0.0,30.0,4.0,0.0
10610,61.0,0.0,60.0,2.0,0.0
10611,66.0,0.0,60.0,1.0,0.0
10612,75.0,30.0,30.0,6.0,0.0
10613,35.0,0.0,60.0,7.0,0.0
10614,75.0,0.0,30.0,4.0,0.0
10615,35.0,0.0,60.0,5.0,0.0
10616,75.0,0.0,30.0,0.0,0.0
10617,35.0,0.0,60.0,3.0,0.0
10618,71.0,30.0,30.0,0.0,0.0
10619,71.0,0.0,30.0,6.0,0.0
10620,71.0,0.0,30.0,4.0,0.0
10621,39.0,0.0,60.0,5.0,0.0
10622,39.0,0.0,60.0,7.0,0.0
10623,39.0,0.0,60.0,3.0,0.0
10624,66.0,0.0,30.0,4.0,0.0
10625,66.0,30.0,30.0,6.0,0.0
10626,66.0,0.0,30.0,0.0,0.0
10627,59.0,0.0,60.0,2.0,0.0
10628,71.0,0.0,60.0,1.0,0.0
10629,71.0,0.0,30.0,6.0,0.0
10630,71.0,30.0,30.0,0.0,0.0
10631,71.0,0.0,30.0,4.0,0.0
10632,75.0,30.0,30.0,4.0,0.0
10633,42.0,30.0,60.0,3.0,0.0
10634,66.0,0.0,60.0,1.0,0.0
10635,42.0,0.0,60.0,7.0,0.0
10636,75.0,0.0,30.0,0.0,0.0
10637,42.0,0.0,60.0,5.0,0.0
10638,75.0,0.0,30.0,6.0,0.0
10639,59.0,0.0,60.0,2.0,0.0
10640,71.0,0.0,30.0,0.0,0.0
10641,71.0,0.0,30.0,6.0,0.0
10642,71.0,0.0,30.0,4.0,0.0
10643,66.0,0.0,30.0,4.0,0.0
10644,46.0,0.0,60.0,5.0,0.0
10645,73.0,0.0,60.0,1.0,0.0
10646,61.0,0.0,60.0,2.0,0.0
10647,66.0,0.0,30.0,0.0,0.0
10648,46.0,0.0,60.0,7.0,0.0
10649,46.0,0.0,60.0,3.0,0.0
10650,66.0,30.0,30.0,6.0,0.0
10651,65.0,30.0,30.0,4.0,0.0
10652,65.0,0.0,30.0,6.0,0.0
10653,65.0,0.0,30.0,0.0,0.0
10654,61.0,0.0,60.0,2.0,0.0
10655,66.0,30.0,30.0,6.0,0.0
10656,66.0,0.0,60.0,1.0,0.0
10657,66.0,0.0,30.0,4.0,0.0
10658,49.0,0.0,60.0,7.0,0.0
10659,49.0,30.0,60.0,5.0,0.0
10660,49.0,0.0,60.0,3.0,0.0
10661,66.0,0.0,30.0,0.0,0.0
10662,68.0,0.0,30.0,0.0,0.0
10663,68.0,0.0,30.0,4.0,0.0
10664,68.0,0.0,30.0,6.0,0.0
10665,70.0,0.0,30.0,0.0,0.0
10666,42.0,0.0,60.0,5.0,0.0
10667,70.0,30.0,30.0,6.0,0.0
10668,73.0,0.0,60.0,1.0,0.0
10669,42.0,0.0,60.0,7.0,0.0
10670,70.0,0.0,30.0,4.0,0.0
10671,66.0,0.0,60.0,2.0,0.0
10672,42.0,30.0,60.0,3.0,0.0
10673,71.0,0.0,30.0,4.0,0.0
10674,71.0,0.0,30.0,6.0,0.0
10675,71.0,0.0,30.0,0.0,0.0
10676,66.0,0.0,60.0,1.0,0.0
10677,73.0,0.0,30.0,0.0,0.0
10678,66.0,0.0,60.0,2.0,0.0
10679,73.0,0.0,30.0,4.0,0.0
10680,46.0,0.0,60.0,7.0,0.0
10681,73.0,30.0,30.0,6.0,0.0
10682,46.0,0.0,60.0,5.0,0.0
10683,46.0,0.0,60.0,3.0,0.0
10684,75.0,30.0,30.0,4.0,0.0
10685,75.0,0.0,30.0,0.0,0.0
10686,75.0,0.0,30.0,6.0,0.0
10687,76.0,0.0,30.0,0.0,0.0
10688,76.0,0.0,30.0,4.0,0.0
10689,71.0,0.0,60.0,1.0,0.0
10690,35.0,0.0,60.0,5.0,0.0
10691,35.0,0.0,60.0,7.0,0.0
10692,76.0,30.0,30.0,6.0,0.0
10693,66.0,30.0,60.0,2.0,0.0
10694,35.0,0.0,60.0,3.0,0.0
10695,73.0,0.0,30.0,4.0,0.0
10696,73.0,0.0,30.0,6.0,0.0
10697,73.0,0.0,30.0,0.0,0.0
10698,75.0,0.0,30.0,6.0,0.0
10699,75.0,0.0,30.0,0.0,0.0
10700,75.0,30.0,30.0,4.0,0.0
10701,66.0,0.0,60.0,1.0,0.0
10702,47.0,30.0,60.0,5.0,0.0
10703,47.0,0.0,60.0,3.0,0.0
10704,47.0,0.0,60.0,7.0,0.0
10705,63.0,0.0,60.0,2.0,0.0
10706,71.0,0.0,30.0,4.0,0.0
10707,71.0,0.0,30.0,6.0,0.0
10708,71.0,0.0,30.0,0.0,0.0
10709,66.0,0.0,30.0,0.0,0.0
10710,66.0,30.0,30.0,4.0,0.0
10711,66.0,0.0,30.0,6.0,0.0
10712,71.0,0.0,60.0,1.0,0.0
10713,51.0,0.0,60.0,7.0,0.0
10714,51.0,0.0,60.0,3.0,0.0
10715,59.0,0.0,60.0,2.0,0.0
10716,51.0,0.0,60.0,5.0,0.0
10717,71.0,0.0,30.0,0.0,0.0
10718,71.0,0.0,30.0,6.0,0.0
10719,71.0,30.0,30.0,4.0,0.0
10720,59.0,0.0,60.0,2.0,0.0
10721,75.0,30.0,30.0,0.0,0.0
10722,47.0,0.0,60.0,5.0,0.0
10723,47.0,30.0,60.0,7.0,0.0
10724,75.0,0.0,30.0,6.0,0.0
10725,47.0,0.0,60.0,3.0,0.0
10726,66.0,0.0,60.0,1.0,0.0
10727,75.0,0.0,30.0,4.0,0.0
10728,71.0,0.0,30.0,6.0,0.0
10729,71.0,0.0,30.0,0.0,0.0
10730,71.0,0.0,30.0,4.0,0.0
10731,73.0,0.0,60.0,4.0,0.0
10732,67.0,0.0,60.0,1.0,0.0
10733,46.0,0.0,60.0,3.0,0.0
10734,46.0,0.0,60.0,7.0,0.0
10735,73.0,0.0,60.0,0.0,0.0
10736,73.0,0.0,60.0,6.0,0.0
10737,64.0,30.0,30.0,2.0,0.0
10738,46.0,0.0,60.0,5.0,0.0
10739,66.0,30.0,30.0,2.0,0.0
10740,52.0,30.0,60.0,3.0,0.0
10741,52.0,0.0,60.0,5.0,0.0
10742,68.0,0.0,120.0,1.0,0.0
10743,52.0,0.0,60.0,7.0,0.0
10744,64.0,30.0,30.0,2.0,0.0
10745,66.0,0.0,30.0,2.0,0.0
10746,73.0,0.0,60.0,4.0,0.0
10747,44.0,0.0,60.0,3.0,0.0
10748,73.0,30.0,60.0,6.0,0.0
10749,44.0,0.0,60.0,5.0,0.0
10750,64.0,30.0,30.0,2.0,0.0
10751,44.0,0.0,60.0,7.0,0.0
10752,73.0,0.0,60.0,0.0,0.0
10753,66.0,0.0,30.0,2.0,0.0
10754,52.0,0.0,60.0,3.0,0.0
10755,64.0,30.0,30.0,2.0,0.0
10756,52.0,0.0,60.0,5.0,0.0
10757,52.0,0.0,60.0,7.0,0.0
10758,70.0,0.0,60.0,1.0,0.0
10759,66.0,30.0,30.0,2.0,0.0
10760,43.0,0.0,30.0,3.0,0.0
10761,73.0,30.0,120.0,6.0,0.0
10762,43.0,0.0,30.0,7.0,0.0
10763,73.0,0.0,120.0,0.0,0.0
10764,63.0,0.0,30.0,2.0,0.0
10765,73.0,0.0,120.0,4.0,0.0
10766,70.0,0.0,120.0,1.0,0.0
10767,43.0,30.0,30.0,5.0,0.0
10768,61.0,30.0,30.0,2.0,0.0
10769,41.0,0.0,30.0,3.0,0.0
10770,41.0,0.0,30.0,7.0,0.0
10771,41.0,0.0,30.0,5.0,0.0
10772,43.0,0.0,30.0,5.0,0.0
10773,43.0,0.0,30.0,7.0,0.0
10774,43.0,0.0,30.0,3.0,0.0
10775,63.0,30.0,30.0,2.0,0.0
10776,41.0,0.0,30.0,7.0,0.0
10777,41.0,0.0,30.0,5.0,0.0
10778,41.0,0.0,30.0,3.0,0.0
10779,61.0,0.0,30.0,2.0,0.0
10780,63.0,30.0,120.0,2.0,0.0
10781,39.0,0.0,30.0,5.0,0.0
10782,39.0,30.0,30.0,7.0,0.0
10783,39.0,0.0,30.0,3.0,0.0
10784,41.0,0.0,30.0,3.0,0.0
10785,68.0,0.0,30.0,1.0,0.0
10786,71.0,0.0,30.0,6.0,0.0
10787,71.0,0.0,30.0,0.0,0.0
10788,41.0,0.0,30.0,7.0,0.0
10789,41.0,0.0,30.0,5.0,0.0
10790,71.0,30.0,30.0,4.0,0.0
10791,70.0,0.0,30.0,0.0,0.0
10792,43.0,0.0,30.0,3.0,0.0
10793,70.0,0.0,30.0,4.0,0.0
10794,43.0,0.0,30.0,5.0,0.0
10795,70.0,0.0,30.0,6.0,0.0
10796,71.0,0.0,30.0,1.0,0.0
10797,43.0,30.0,30.0,7.0,0.0
10798,67.0,0.0,30.0,1.0,0.0
10799,73.0,0.0,30.0,0.0,0.0
10800,73.0,0.0,30.0,4.0,0.0
10801,39.0,0.0,30.0,3.0,0.0
10802,39.0,0.0,30.0,5.0,0.0
10803,73.0,0.0,30.0,6.0,0.0
10804,39.0,0.0,30.0,7.0,0.0
10805,44.0,0.0,60.0,7.0,0.0
10806,44.0,0.0,60.0,5.0,0.0
10807,68.0,30.0,60.0,1.0,0.0
10808,71.0,0.0,30.0,6.0,0.0
10809,71.0,0.0,30.0,0.0,0.0
10810,71.0,30.0,30.0,4.0,0.0
10811,44.0,0.0,60.0,3.0,0.0
10812,70.0,0.0,30.0,6.0,0.0
10813,70.0,0.0,30.0,0.0,0.0
10814,70.0,0.0,30.0,4.0,0.0
10815,64.0,0.0,30.0,2.0,0.0
10816,63.0,30.0,30.0,2.0,0.0
10817,51.0,0.0,60.0,5.0,0.0
10818,51.0,0.0,60.0,7.0,0.0
10819,51.0,30.0,60.0,3.0,0.0
10820,71.0,0.0,90.0,0.0,0.0
10821,71.0,30.0,90.0,4.0,0.0
10822,71.0,0.0,90.0,6.0,0.0
10823,64.0,0.0,30.0,2.0,0.0
10824,42.0,0.0,60.0,3.0,0.0
10825,42.0,0.0,60.0,5.0,0.0
10826,68.0,0.0,60.0,1.0,0.0
10827,42.0,30.0,60.0,7.0,0.0
10828,63.0,0.0,30.0,2.0,0.0
10829,70.0,0.0,30.0,6.0,0.0
10830,64.0,0.0,30.0,2.0,0.0
10831,70.0,0.0,30.0,0.0,0.0
10832,70.0,0.0,30.0,4.0,0.0
10833,71.0,0.0,90.0,0.0,0.0
10834,51.0,0.0,60.0,5.0,0.0
10835,51.0,0.0,60.0,3.0,0.0
10836,51.0,0.0,60.0,7.0,0.0
10837,71.0,0.0,90.0,6.0,0.0
10838,71.0,0.0,90.0,4.0,0.0
10839,63.0,30.0,30.0,2.0,0.0
10840,64.0,30.0,30.0,2.0,0.0
10841,68.0,0.0,180.0,1.0,0.0
10842,41.0,0.0,30.0,5.0,0.0
10843,41.0,30.0,30.0,3.0,0.0
10844,41.0,0.0,30.0,7.0,0.0
10845,62.0,0.0,30.0,2.0,0.0
10846,39.0,0.0,30.0,3.0,0.0
10847,39.0,0.0,30.0,5.0,0.0
10848,63.0,0.0,30.0,2.0,0.0
10849,68.0,0.0,30.0,6.0,0.0
10850,68.0,0.0,30.0,4.0,0.0
10851,68.0,30.0,30.0,0.0,0.0
10852,39.0,0.0,30.0,7.0,0.0
10853,71.0,0.0,120.0,6.0,0.0
10854,41.0,0.0,30.0,5.0,0.0
10855,62.0,0.0,30.0,2.0,0.0
10856,71.0,0.0,120.0,0.0,0.0
10857,41.0,30.0,30.0,7.0,0.0
10858,71.0,0.0,120.0,4.0,0.0
10859,41.0,0.0,30.0,3.0,0.0
10860,39.0,0.0,30.0,3.0,0.0
10861,39.0,0.0,30.0,7.0,0.0
10862,39.0,0.0,30.0,5.0,0.0
10863,63.0,30.0,30.0,2.0,0.0
10864,38.0,0.0,30.0,5.0,0.0
10865,38.0,0.0,30.0,7.0,0.0
10866,38.0,30.0,30.0,3.0,0.0
10867,65.0,0.0,60.0,2.0,0.0
10868,39.0,0.0,30.0,3.0,0.0
10869,39.0,0.0,30.0,7.0,0.0
10870,39.0,30.0,30.0,5.0,0.0
10871,41.0,0.0,30.0,7.0,0.0
10872,70.0,0.0,30.0,6.0,0.0
10873,41.0,0.0,30.0,3.0,0.0
10874,62.0,0.0,60.0,2.0,0.0
10875,70.0,0.0,30.0,4.0,0.0
10876,41.0,0.0,30.0,5.0,0.0
10877,70.0,30.0,30.0,0.0,0.0
10878,58.0,0.0,60.0,1.0,0.0
10879,68.0,0.0,30.0,4.0,0.0
10880,68.0,0.0,30.0,0.0,0.0
10881,38.0,0.0,30.0,7.0,0.0
10882,38.0,30.0,30.0,5.0,0.0
10883,38.0,0.0,30.0,3.0,0.0
10884,68.0,0.0,30.0,6.0,0.0
10885,63.0,0.0,60.0,1.0,0.0
10886,67.0,0.0,60.0,4.0,0.0
10887,39.0,0.0,30.0,3.0,0.0
10888,39.0,0.0,30.0,7.0,0.0
10889,67.0,0.0,60.0,6.0,0.0
10890,39.0,30.0,30.0,5.0,0.0
10891,67.0,0.0,60.0,0.0,0.0
10892,58.0,0.0,60.0,2.0,0.0
10893,40.0,30.0,30.0,3.0,0.0
10894,40.0,0.0,30.0,7.0,0.0
10895,40.0,0.0,30.0,5.0,0.0
10896,67.0,0.0,60.0,1.0,0.0
10897,70.0,0.0,60.0,0.0,0.0
10898,63.0,0.0,60.0,2.0,0.0
10899,39.0,0.0,30.0,3.0,0.0
10900,39.0,0.0,30.0,5.0,0.0
10901,39.0,30.0,30.0,7.0,0.0
10902,70.0,0.0,60.0,4.0,0.0
10903,70.0,0.0,60.0,6.0,0.0
10904,40.0,0.0,30.0,3.0,0.0
10905,40.0,30.0,30.0,7.0,0.0
10906,40.0,0.0,30.0,5.0,0.0
10907,61.0,30.0,60.0,0.0,0.0
10908,67.0,0.0,60.0,2.0,0.0
10909,61.0,0.0,60.0,4.0,0.0
10910,39.0,0.0,30.0,7.0,0.0
10911,70.0,0.0,180.0,1.0,0.0
10912,39.0,0.0,30.0,5.0,0.0
10913,61.0,0.0,60.0,6.0,0.0
10914,39.0,30.0,30.0,3.0,0.0
10915,40.0,0.0,30.0,3.0,0.0
10916,40.0,0.0,30.0,7.0,0.0
10917,40.0,0.0,30.0,5.0,0.0
10918,37.0,30.0,30.0,5.0,0.0
10919,70.0,30.0,60.0,0.0,0.0
10920,55.0,0.0,60.0,2.0,0.0
10921,37.0,0.0,30.0,7.0,0.0
10922,37.0,0.0,30.0,3.0,0.0
10923,70.0,0.0,60.0,6.0,0.0
10924,70.0,0.0,60.0,4.0,0.0
10925,39.0,0.0,30.0,3.0,0.0
10926,39.0,0.0,30.0,7.0,0.0
10927,39.0,0.0,30.0,5.0,0.0
10928,56.0,0.0,120.0,2.0,0.0
10929,59.0,0.0,30.0,4.0,0.0
10930,40.0,30.0,30.0,7.0,0.0
10931,40.0,0.0,30.0,3.0,0.0
10932,59.0,0.0,30.0,6.0,0.0
10933,40.0,0.0,30.0,5.0,0.0
10934,59.0,0.0,30.0,0.0,0.0
10935,52.0,0.0,30.0,3.0,0.0
10936,58.0,0.0,30.0,4.0,0.0
10937,52.0,0.0,30.0,7.0,0.0
10938,58.0,0.0,30.0,6.0,0.0
10939,52.0,30.0,30.0,5.0,0.0
10940,58.0,0.0,30.0,0.0,0.0
10941,59.0,0.0,30.0,6.0,0.0
10942,59.0,0.0,30.0,4.0,0.0
10943,51.0,0.0,30.0,5.0,0.0
10944,68.0,0.0,30.0,1.0,0.0
10945,59.0,0.0,30.0,0.0,0.0
10946,51.0,0.0,30.0,3.0,0.0
10947,51.0,30.0,30.0,7.0,0.0
10948,67.0,30.0,30.0,1.0,0.0
10949,49.0,0.0,30.0,7.0,0.0
10950,49.0,0.0,30.0,5.0,0.0
10951,58.0,0.0,30.0,6.0,0.0
10952,49.0,0.0,30.0,3.0,0.0
10953,58.0,0.0,30.0,0.0,0.0
10954,58.0,0.0,30.0,4.0,0.0
10955,47.0,30.0,30.0,3.0,0.0
10956,47.0,0.0,30.0,5.0,0.0
10957,56.0,0.0,60.0,6.0,0.0
10958,47.0,0.0,30.0,7.0,0.0
10959,56.0,0.0,60.0,4.0,0.0
10960,56.0,0.0,60.0,0.0,0.0
10961,68.0,30.0,60.0,1.0,0.0
10962,61.0,0.0,30.0,2.0,0.0
10963,52.0,0.0,30.0,5.0,0.0
10964,52.0,0.0,30.0,3.0,0.0
10965,52.0,0.0,30.0,7.0,0.0
10966,71.0,0.0,30.0,0.0,0.0
10967,71.0,0.0,30.0,4.0,0.0
10968,51.0,0.0,30.0,5.0,0.0
10969,71.0,0.0,30.0,6.0,0.0
10970,56.0,30.0,30.0,1.0,0.0
10971,51.0,0.0,30.0,7.0,0.0
10972,59.0,0.0,30.0,2.0,0.0
10973,51.0,0.0,30.0,3.0,0.0
10974,58.0,0.0,30.0,2.0,0.0
10975,58.0,30.0,30.0,1.0,0.0
10976,49.0,0.0,30.0,7.0,0.0
10977,49.0,0.0,30.0,5.0,0.0
10978,73.0,0.0,30.0,4.0,0.0
10979,73.0,0.0,30.0,6.0,0.0
10980,49.0,0.0,30.0,3.0,0.0
10981,73.0,0.0,30.0,0.0,0.0
10982,59.0,0.0,60.0,1.0,0.0
10983,75.0,0.0,60.0,4.0,0.0
10984,56.0,0.0,60.0,2.0,0.0
10985,47.0,0.0,30.0,5.0,0.0
10986,47.0,0.0,30.0,7.0,0.0
10987,47.0,30.0,30.0,3.0,0.0
10988,75.0,0.0,60.0,0.0,0.0
10989,75.0,0.0,60.0,6.0,0.0
10990,52.0,0.0,30.0,5.0,0.0
10991,52.0,30.0,30.0,7.0,0.0
10992,52.0,0.0,30.0,3.0,0.0
10993,64.0,60.0,60.0,1.0,0.0
10994,58.0,0.0,60.0,2.0,0.0
10995,51.0,0.0,30.0,7.0,0.0
10996,51.0,0.0,30.0,3.0,0.0
10997,68.0,0.0,60.0,0.0,0.0
10998,68.0,0.0,60.0,6.0,0.0
10999,51.0,30.0,30.0,5.0,0.0
11000,68.0,0.0,60.0,4.0,0.0
11001,49.0,0.0,30.0,7.0,0.0
11002,49.0,0.0,30.0,3.0,0.0
11003,49.0,0.0,30.0,5.0,0.0
11004,63.0,0.0,60.0,1.0,0.0
11005,63.0,0.0,60.0,0.0,0.0
11006,51.0,60.0,60.0,5.0,0.0
11007,63.0,0.0,60.0,6.0,0.0
11008,51.0,0.0,60.0,3.0,0.0
11009,51.0,0.0,60.0,7.0,0.0
11010,59.0,0.0,60.0,2.0,0.0
11011,63.0,0.0,60.0,4.0,0.0
11012,39.0,0.0,60.0,7.0,0.0
11013,58.0,60.0,60.0,2.0,0.0
11014,67.0,0.0,60.0,0.0,0.0
11015,67.0,0.0,60.0,6.0,0.0
11016,39.0,0.0,60.0,5.0,0.0
11017,63.0,0.0,60.0,1.0,0.0
11018,39.0,0.0,60.0,3.0,0.0
11019,67.0,0.0,60.0,4.0,0.0
11020,68.0,0.0,120.0,0.0,0.0
11021,68.0,0.0,120.0,6.0,0.0
11022,63.0,0.0,120.0,1.0,0.0
11023,44.0,60.0,60.0,3.0,0.0
11024,44.0,0.0,60.0,7.0,0.0
11025,68.0,0.0,120.0,4.0,0.0
11026,44.0,0.0,60.0,5.0,0.0
11027,59.0,0.0,120.0,2.0,0.0
11028,39.0,0.0,60.0,3.0,0.0
11029,39.0,60.0,60.0,7.0,0.0
11030,39.0,0.0,60.0,5.0,0.0
11031,32.0,0.0,60.0,5.0,0.0
11032,32.0,0.0,60.0,7.0,0.0
11033,32.0,30.0,60.0,3.0,0.0
11034,56.0,30.0,30.0,4.0,0.0
11035,68.0,0.0,60.0,6.0,0.0
11036,58.0,30.0,30.0,4.0,0.0
11037,59.0,30.0,30.0,4.0,0.0
11038,63.0,0.0,60.0,6.0,0.0
11039,61.0,30.0,30.0,4.0,0.0
11040,68.0,0.0,60.0,6.0,0.0
11041,59.0,30.0,30.0,4.0,0.0
11042,61.0,30.0,30.0,4.0,0.0
11043,58.0,30.0,30.0,4.0,0.0
11044,61.0,30.0,60.0,6.0,0.0
11045,59.0,0.0,30.0,4.0,0.0
11046,68.0,0.0,60.0,6.0,0.0
11047,58.0,30.0,30.0,4.0,0.0
11048,59.0,30.0,30.0,4.0,0.0
11049,56.0,0.0,60.0,4.0,0.0
11050,59.0,30.0,30.0,6.0,0.0
11051,58.0,30.0,30.0,6.0,0.0
11052,63.0,0.0,60.0,4.0,0.0
11053,59.0,30.0,30.0,6.0,0.0
11054,58.0,60.0,30.0,6.0,0.0
11055,71.0,30.0,60.0,4.0,0.0
11056,56.0,0.0,180.0,6.0,0.0
11057,59.0,0.0,30.0,2.0,0.0
11058,63.0,0.0,30.0,1.0,0.0
11059,44.0,0.0,30.0,5.0,0.0
11060,44.0,0.0,30.0,7.0,0.0
11061,44.0,30.0,30.0,3.0,0.0
11062,68.0,0.0,60.0,0.0,0.0
11063,68.0,0.0,60.0,4.0,0.0
11064,61.0,0.0,30.0,2.0,0.0
11065,46.0,0.0,30.0,3.0,0.0
11066,46.0,30.0,30.0,5.0,0.0
11067,46.0,0.0,30.0,7.0,0.0
11068,61.0,0.0,30.0,1.0,0.0
11069,47.0,0.0,30.0,7.0,0.0
11070,47.0,30.0,30.0,5.0,0.0
11071,63.0,0.0,30.0,1.0,0.0
11072,63.0,0.0,60.0,4.0,0.0
11073,47.0,0.0,60.0,3.0,0.0
11074,59.0,0.0,30.0,2.0,0.0
11075,63.0,0.0,30.0,0.0,0.0
11076,64.0,0.0,30.0,1.0,0.0
11077,46.0,0.0,30.0,5.0,0.0
11078,61.0,0.0,30.0,2.0,0.0
11079,46.0,30.0,30.0,7.0,0.0
11080,44.0,0.0,60.0,3.0,0.0
11081,47.0,0.0,30.0,5.0,0.0
11082,68.0,0.0,120.0,6.0,0.0
11083,68.0,0.0,30.0,0.0,0.0
11084,68.0,0.0,60.0,4.0,0.0
11085,47.0,0.0,30.0,7.0,0.0
11086,63.0,0.0,30.0,1.0,0.0
11087,59.0,30.0,30.0,2.0,0.0
11088,61.0,30.0,30.0,2.0,0.0
11089,44.0,0.0,30.0,7.0,0.0
11090,64.0,0.0,30.0,1.0,0.0
11091,44.0,0.0,30.0,5.0,0.0
11092,61.0,0.0,60.0,4.0,0.0
11093,61.0,0.0,30.0,1.0,0.0
11094,61.0,0.0,30.0,0.0,0.0
11095,51.0,0.0,30.0,5.0,0.0
11096,58.0,0.0,30.0,2.0,0.0
11097,51.0,30.0,30.0,7.0,0.0
11098,51.0,30.0,60.0,3.0,0.0
11099,63.0,0.0,30.0,1.0,0.0
11100,49.0,0.0,30.0,5.0,0.0
11101,49.0,0.0,30.0,7.0,0.0
11102,59.0,0.0,30.0,2.0,0.0
11103,51.0,30.0,30.0,7.0,0.0
11104,61.0,0.0,30.0,1.0,0.0
11105,70.0,0.0,30.0,0.0,0.0
11106,51.0,0.0,30.0,5.0,0.0
11107,70.0,0.0,60.0,4.0,0.0
11108,39.0,0.0,60.0,3.0,0.0
11109,67.0,0.0,60.0,6.0,0.0
11110,58.0,0.0,30.0,2.0,0.0
11111,63.0,30.0,30.0,1.0,0.0
11112,39.0,0.0,30.0,7.0,0.0
11113,59.0,0.0,30.0,2.0,0.0
11114,39.0,0.0,30.0,5.0,0.0
11115,68.0,0.0,30.0,6.0,0.0
11116,59.0,30.0,30.0,4.0,0.0
11117,44.0,0.0,60.0,5.0,0.0
11118,44.0,30.0,60.0,7.0,0.0
11119,59.0,0.0,30.0,0.0,0.0
11120,56.0,0.0,30.0,2.0,0.0
11121,59.0,0.0,30.0,1.0,0.0
11122,44.0,0.0,60.0,3.0,0.0
11123,61.0,0.0,30.0,1.0,0.0
11124,55.0,0.0,30.0,2.0,0.0
11125,70.0,0.0,30.0,6.0,0.0
11126,58.0,0.0,30.0,4.0,0.0
11127,58.0,0.0,30.0,0.0,0.0
11128,39.0,0.0,60.0,7.0,0.0
11129,59.0,30.0,30.0,1.0,0.0
11130,56.0,0.0,30.0,2.0,0.0
11131,59.0,0.0,30.0,0.0,0.0
11132,39.0,30.0,60.0,5.0,0.0
11133,68.0,0.0,30.0,6.0,0.0
11134,59.0,0.0,30.0,4.0,0.0
11135,39.0,0.0,60.0,3.0,0.0
11136,61.0,0.0,30.0,1.0,0.0
11137,58.0,0.0,30.0,0.0,0.0
11138,55.0,0.0,30.0,2.0,0.0
11139,70.0,0.0,30.0,6.0,0.0
11140,58.0,0.0,30.0,4.0,0.0
11141,32.0,0.0,60.0,5.0,0.0
11142,71.0,0.0,60.0,6.0,0.0
11143,32.0,0.0,60.0,7.0,0.0
11144,56.0,30.0,60.0,2.0,0.0
11145,63.0,0.0,60.0,1.0,0.0
11146,56.0,30.0,30.0,4.0,0.0
11147,56.0,0.0,60.0,0.0,0.0
11148,32.0,0.0,60.0,3.0,0.0
11149,58.0,0.0,30.0,4.0,0.0
11150,59.0,0.0,30.0,4.0,0.0
11151,70.0,30.0,30.0,6.0,0.0
11152,68.0,0.0,30.0,6.0,0.0
11153,61.0,30.0,30.0,4.0,0.0
11154,63.0,30.0,30.0,4.0,0.0
11155,66.0,30.0,60.0,6.0,0.0
11156,64.0,0.0,30.0,4.0,0.0
11157,63.0,30.0,30.0,4.0,0.0
11158,71.0,0.0,60.0,6.0,0.0
11159,64.0,30.0,30.0,4.0,0.0
11160,64.0,30.0,60.0,6.0,0.0
11161,61.0,30.0,30.0,4.0,0.0
11162,63.0,0.0,30.0,4.0,0.0
11163,71.0,30.0,60.0,6.0,0.0
11164,61.0,30.0,30.0,4.0,0.0
11165,63.0,0.0,30.0,4.0,0.0
11166,59.0,0.0,60.0,4.0,0.0
11167,63.0,30.0,30.0,6.0,0.0
11168,61.0,30.0,30.0,6.0,0.0
11169,66.0,60.0,60.0,4.0,0.0
11170,63.0,30.0,30.0,6.0,0.0
11171,61.0,0.0,30.0,6.0,0.0
11172,75.0,30.0,60.0,4.0,0.0
11173,59.0,0.0,180.0,6.0,0.0
11174,71.0,0.0,60.0,4.0,0.0
11175,47.0,0.0,30.0,7.0,0.0
11176,63.0,30.0,30.0,2.0,0.0
11177,66.0,0.0,30.0,1.0,0.0
11178,71.0,0.0,60.0,0.0,0.0
11179,47.0,0.0,30.0,5.0,0.0
11180,47.0,0.0,30.0,3.0,0.0
11181,64.0,30.0,30.0,1.0,0.0
11182,49.0,0.0,30.0,3.0,0.0
11183,49.0,0.0,30.0,7.0,0.0
11184,49.0,0.0,30.0,5.0,0.0
11185,64.0,0.0,30.0,2.0,0.0
11186,66.0,30.0,60.0,4.0,0.0
11187,51.0,30.0,30.0,5.0,0.0
11188,51.0,0.0,30.0,7.0,0.0
11189,66.0,0.0,30.0,1.0,0.0
11190,51.0,0.0,60.0,3.0,0.0
11191,63.0,0.0,30.0,2.0,0.0
11192,66.0,0.0,60.0,0.0,0.0
11193,49.0,0.0,30.0,7.0,0.0
11194,49.0,0.0,30.0,5.0,0.0
11195,68.0,0.0,30.0,1.0,0.0
11196,64.0,0.0,30.0,2.0,0.0
11197,71.0,0.0,60.0,4.0,0.0
11198,66.0,0.0,30.0,1.0,0.0
11199,63.0,0.0,30.0,2.0,0.0
11200,51.0,0.0,30.0,7.0,0.0
11201,71.0,0.0,60.0,0.0,0.0
11202,71.0,0.0,120.0,6.0,0.0
11203,51.0,30.0,30.0,5.0,0.0
11204,47.0,0.0,60.0,3.0,0.0
11205,64.0,0.0,30.0,2.0,0.0
11206,47.0,0.0,30.0,7.0,0.0
11207,47.0,0.0,30.0,5.0,0.0
11208,68.0,30.0,30.0,1.0,0.0
11209,64.0,30.0,60.0,4.0,0.0
11210,61.0,0.0,30.0,2.0,0.0
11211,54.0,0.0,30.0,7.0,0.0
11212,54.0,0.0,60.0,3.0,0.0
11213,64.0,0.0,60.0,0.0,0.0
11214,54.0,30.0,30.0,5.0,0.0
11215,64.0,0.0,30.0,1.0,0.0
11216,52.0,0.0,30.0,5.0,0.0
11217,63.0,0.0,30.0,2.0,0.0
11218,66.0,0.0,30.0,1.0,0.0
11219,52.0,0.0,30.0,7.0,0.0
11220,73.0,0.0,60.0,4.0,0.0
11221,54.0,0.0,30.0,5.0,0.0
11222,73.0,30.0,60.0,0.0,0.0
11223,42.0,0.0,60.0,3.0,0.0
11224,61.0,0.0,30.0,2.0,0.0
11225,70.0,0.0,60.0,6.0,0.0
11226,64.0,0.0,30.0,1.0,0.0
11227,54.0,30.0,30.0,7.0,0.0
11228,42.0,0.0,30.0,7.0,0.0
11229,63.0,0.0,30.0,2.0,0.0
11230,42.0,0.0,30.0,5.0,0.0
11231,66.0,0.0,30.0,1.0,0.0
11232,59.0,0.0,30.0,2.0,0.0
11233,47.0,30.0,60.0,3.0,0.0
11234,47.0,0.0,60.0,5.0,0.0
11235,63.0,0.0,30.0,0.0,0.0
11236,71.0,0.0,30.0,6.0,0.0
11237,47.0,0.0,60.0,7.0,0.0
11238,63.0,0.0,30.0,1.0,0.0
11239,63.0,30.0,30.0,4.0,0.0
11240,58.0,0.0,30.0,2.0,0.0
11241,61.0,0.0,30.0,0.0,0.0
11242,73.0,0.0,30.0,6.0,0.0
11243,61.0,0.0,30.0,4.0,0.0
11244,64.0,0.0,30.0,1.0,0.0
11245,42.0,0.0,60.0,3.0,0.0
11246,63.0,30.0,30.0,1.0,0.0
11247,42.0,0.0,60.0,7.0,0.0
11248,59.0,0.0,30.0,2.0,0.0
11249,42.0,30.0,60.0,5.0,0.0
11250,63.0,0.0,30.0,0.0,0.0
11251,63.0,0.0,30.0,4.0,0.0
11252,71.0,0.0,30.0,6.0,0.0
11253,61.0,0.0,30.0,0.0,0.0
11254,58.0,0.0,30.0,2.0,0.0
11255,64.0,0.0,30.0,1.0,0.0
11256,61.0,0.0,30.0,4.0,0.0
11257,73.0,0.0,30.0,6.0,0.0
11258,75.0,30.0,180.0,6.0,0.0
11259,59.0,0.0,60.0,2.0,0.0
11260,59.0,0.0,30.0,4.0,0.0
11261,35.0,0.0,60.0,5.0,0.0
11262,35.0,30.0,30.0,7.0,0.0
11263,66.0,0.0,60.0,1.0,0.0
11264,59.0,30.0,60.0,0.0,0.0
11265,35.0,0.0,60.0,3.0,0.0
11266,63.0,0.0,30.0,4.0,0.0
11267,47.0,0.0,30.0,7.0,0.0
11268,47.0,0.0,60.0,5.0,0.0
11269,66.0,30.0,30.0,4.0,0.0
11270,47.0,30.0,60.0,3.0,0.0
11271,51.0,0.0,30.0,7.0,0.0
11272,69.0,0.0,30.0,4.0,0.0
11273,47.0,0.0,30.0,7.0,0.0
11274,52.0,0.0,60.0,7.0,0.0
11275,68.0,0.0,30.0,4.0,0.0
11276,52.0,0.0,60.0,3.0,0.0
11277,64.0,0.0,240.0,2.0,0.0
11278,52.0,30.0,30.0,5.0,0.0
11279,71.0,0.0,30.0,4.0,0.0
11280,56.0,0.0,30.0,5.0,0.0
11281,49.0,0.0,60.0,7.0,0.0
11282,73.0,30.0,30.0,4.0,0.0
11283,52.0,0.0,30.0,5.0,0.0
11284,76.0,0.0,30.0,6.0,0.0
11285,49.0,0.0,60.0,3.0,0.0
11286,56.0,0.0,30.0,5.0,0.0
11287,75.0,30.0,30.0,6.0,0.0
11288,75.0,0.0,30.0,4.0,0.0
11289,46.0,30.0,60.0,3.0,0.0
11290,46.0,0.0,60.0,5.0,0.0
11291,73.0,0.0,60.0,6.0,0.0
11292,76.0,0.0,30.0,4.0,0.0
11293,46.0,30.0,30.0,7.0,0.0
11294,73.0,0.0,30.0,4.0,0.0
11295,54.0,0.0,30.0,7.0,0.0
11296,73.0,0.0,60.0,6.0,0.0
11297,70.0,0.0,30.0,4.0,0.0
11298,42.0,0.0,60.0,3.0,0.0
11299,54.0,0.0,60.0,5.0,0.0
11300,52.0,30.0,30.0,7.0,0.0
11301,68.0,15.0,30.0,4.0,0.0
11302,54.0,0.0,30.0,7.0,0.0
11303,66.0,30.0,30.0,4.0,0.0
11304,59.0,0.0,30.0,5.0,0.0
11305,63.0,30.0,240.0,2.0,0.0
11306,73.0,15.0,15.0,6.0,0.0
11307,47.0,0.0,60.0,7.0,0.0
11308,75.0,0.0,15.0,6.0,0.0
11309,70.0,0.0,30.0,4.0,0.0
11310,54.0,0.0,30.0,5.0,0.0
11311,73.0,30.0,30.0,6.0,0.0
11312,51.0,0.0,30.0,5.0,0.0
11313,71.0,0.0,60.0,6.0,0.0
11314,51.0,0.0,60.0,7.0,0.0
11315,47.0,30.0,30.0,3.0,0.0
11316,71.0,0.0,30.0,4.0,0.0
11317,54.0,0.0,30.0,5.0,0.0
11318,46.0,0.0,30.0,3.0,0.0
11319,73.0,30.0,30.0,4.0,0.0
11320,75.0,0.0,30.0,4.0,0.0
11321,44.0,30.0,30.0,7.0,0.0
11322,47.0,0.0,60.0,5.0,0.0
11323,44.0,0.0,60.0,3.0,0.0
11324,56.0,30.0,30.0,7.0,0.0
11325,71.0,0.0,30.0,4.0,0.0
11326,70.0,0.0,30.0,4.0,0.0
11327,40.0,29.0,30.0,3.0,0.0
11328,71.0,0.0,120.0,6.0,0.0
11329,52.0,0.0,60.0,5.0,0.0
11330,55.0,1.0,30.0,7.0,0.0
11331,56.0,0.0,30.0,7.0,0.0
11332,68.0,0.0,30.0,4.0,0.0
11333,61.0,0.0,240.0,2.0,0.0
11334,46.0,0.0,60.0,7.0,0.0
11335,67.0,0.0,30.0,4.0,0.0
11336,46.0,30.0,30.0,5.0,0.0
11337,46.0,30.0,60.0,3.0,0.0
11338,52.0,0.0,30.0,5.0,0.0
11339,68.0,0.0,30.0,4.0,0.0
11340,49.0,0.0,30.0,5.0,0.0
11341,70.0,0.0,30.0,4.0,0.0
11342,44.0,0.0,60.0,7.0,0.0
11343,44.0,30.0,60.0,3.0,0.0
11344,73.0,30.0,30.0,6.0,0.0
11345,52.0,0.0,30.0,5.0,0.0
11346,71.0,0.0,30.0,4.0,0.0
11347,71.0,0.0,30.0,6.0,0.0
11348,43.0,0.0,30.0,7.0,0.0
11349,70.0,0.0,60.0,6.0,0.0
11350,43.0,0.0,60.0,5.0,0.0
11351,43.0,0.0,60.0,3.0,0.0
11352,73.0,30.0,30.0,4.0,0.0
11353,70.0,30.0,30.0,4.0,0.0
11354,51.0,0.0,30.0,7.0,0.0
11355,70.0,0.0,60.0,6.0,0.0
11356,49.0,0.0,30.0,7.0,0.0
11357,39.0,0.0,60.0,3.0,0.0
11358,51.0,0.0,60.0,5.0,0.0
11359,67.0,30.0,30.0,4.0,0.0
11360,51.0,0.0,30.0,7.0,0.0
11361,65.0,15.0,30.0,4.0,0.0
11362,59.0,0.0,240.0,2.0,0.0
11363,63.0,0.0,30.0,4.0,0.0
11364,56.0,30.0,30.0,5.0,0.0
11365,70.0,15.0,15.0,6.0,0.0
11366,44.0,0.0,60.0,7.0,0.0
11367,71.0,0.0,15.0,6.0,0.0
11368,70.0,0.0,30.0,6.0,0.0
11369,51.0,30.0,30.0,5.0,0.0
11370,67.0,0.0,30.0,4.0,0.0
11371,47.0,30.0,30.0,5.0,0.0
11372,44.0,0.0,30.0,3.0,0.0
11373,68.0,0.0,30.0,4.0,0.0
11374,47.0,30.0,60.0,7.0,0.0
11375,68.0,0.0,60.0,6.0,0.0
11376,70.0,0.0,30.0,4.0,0.0
11377,42.0,0.0,30.0,3.0,0.0
11378,51.0,0.0,30.0,5.0,0.0
11379,41.0,0.0,60.0,3.0,0.0
11380,71.0,30.0,30.0,4.0,0.0
11381,44.0,0.0,60.0,5.0,0.0
11382,41.0,0.0,30.0,7.0,0.0
11383,44.0,30.0,30.0,7.0,0.0
11384,68.0,0.0,30.0,4.0,0.0
11385,68.0,0.0,30.0,6.0,0.0
11386,47.0,1.0,30.0,7.0,0.0
11387,56.0,0.0,60.0,5.0,0.0
11388,39.0,29.0,30.0,3.0,0.0
11389,65.0,0.0,30.0,4.0,0.0
11390,66.0,0.0,30.0,4.0,0.0
11391,39.0,0.0,30.0,7.0,0.0
11392,66.0,30.0,30.0,6.0,0.0
11393,65.0,0.0,60.0,6.0,0.0
11394,68.0,30.0,30.0,4.0,0.0
11395,50.0,30.0,60.0,5.0,0.0
11396,38.0,0.0,30.0,7.0,0.0
11397,38.0,0.0,60.0,3.0,0.0
11398,70.0,0.0,30.0,4.0,0.0
11399,50.0,0.0,30.0,7.0,0.0
11400,58.0,0.0,60.0,2.0,0.0
11401,53.0,0.0,30.0,7.0,0.0
11402,68.0,30.0,30.0,4.0,0.0
11403,70.0,30.0,60.0,6.0,0.0
11404,46.0,0.0,60.0,5.0,0.0
11405,50.0,0.0,60.0,3.0,0.0
11406,70.0,0.0,30.0,4.0,0.0
11407,50.0,0.0,30.0,7.0,0.0
11408,63.0,0.0,60.0,6.0,0.0
11409,58.0,0.0,60.0,2.0,0.0
11410,51.0,0.0,60.0,7.0,0.0
11411,66.0,30.0,30.0,4.0,0.0
11412,51.0,0.0,30.0,5.0,0.0
11413,51.0,0.0,60.0,3.0,0.0
11414,50.0,0.0,30.0,5.0,0.0
11415,68.0,30.0,30.0,4.0,0.0
11416,63.0,0.0,60.0,2.0,0.0
11417,66.0,30.0,30.0,4.0,0.0
11418,71.0,0.0,60.0,6.0,0.0
11419,44.0,0.0,60.0,7.0,0.0
11420,51.0,0.0,30.0,5.0,0.0
11421,47.0,30.0,60.0,3.0,0.0
11422,68.0,0.0,30.0,4.0,0.0
11423,44.0,0.0,30.0,5.0,0.0
11424,65.0,30.0,30.0,4.0,0.0
11425,62.0,0.0,30.0,6.0,0.0
11426,46.0,29.0,300.0,7.0,0.0
11427,58.0,30.0,120.0,2.0,0.0
11428,46.0,0.0,630.0,3.0,0.0
11429,46.0,0.0,60.0,5.0,0.0
11430,66.0,30.0,30.0,4.0,0.0
11431,60.0,0.0,30.0,6.0,0.0
11432,58.0,0.0,60.0,5.0,0.0
11433,62.0,0.0,30.0,6.0,0.0
11434,65.0,30.0,30.0,4.0,0.0
11435,60.0,0.0,30.0,6.0,0.0
11436,66.0,0.0,30.0,4.0,0.0
11437,58.0,0.0,60.0,6.0,0.0
11438,50.0,0.0,60.0,5.0,0.0
11439,68.0,30.0,30.0,4.0,0.0
11440,70.0,30.0,30.0,4.0,0.0
11441,58.0,0.0,60.0,2.0,0.0
11442,66.0,30.0,30.0,4.0,0.0
11443,58.0,0.0,60.0,0.0,0.0
11444,75.0,0.0,60.0,6.0,0.0
11445,51.0,0.0,60.0,5.0,0.0
11446,58.0,0.0,60.0,1.0,0.0
11447,68.0,30.0,30.0,4.0,0.0
11448,74.0,30.0,30.0,6.0,0.0
11449,65.0,0.0,30.0,4.0,0.0
11450,56.0,0.0,60.0,2.0,0.0
11451,46.0,29.0,390.0,5.0,0.0
11452,56.0,1.0,60.0,1.0,0.0
11453,56.0,0.0,60.0,0.0,0.0
11454,75.0,0.0,30.0,6.0,0.0
11455,66.0,0.0,30.0,4.0,0.0
11456,65.0,0.0,60.0,2.0,0.0
11457,74.0,30.0,30.0,6.0,0.0
11458,65.0,0.0,60.0,1.0,0.0
11459,56.0,30.0,60.0,7.0,0.0
11460,65.0,0.0,30.0,4.0,0.0
11461,65.0,0.0,60.0,0.0,0.0
11462,75.0,0.0,30.0,6.0,0.0
11463,66.0,0.0,30.0,4.0,0.0
11464,54.0,0.0,60.0,0.0,0.0
11465,63.0,30.0,30.0,4.0,0.0
11466,46.0,0.0,60.0,7.0,0.0
11467,54.0,0.0,60.0,2.0,0.0
11468,72.0,0.0,30.0,6.0,0.0
11469,54.0,30.0,60.0,1.0,0.0
11470,65.0,0.0,30.0,4.0,0.0
11471,74.0,0.0,30.0,6.0,0.0
11472,63.0,0.0,30.0,4.0,0.0
11473,54.0,0.0,60.0,7.0,0.0
11474,63.0,0.0,60.0,2.0,0.0
11475,63.0,0.0,60.0,1.0,0.0
11476,72.0,30.0,30.0,6.0,0.0
11477,63.0,30.0,60.0,0.0,0.0
11478,74.0,0.0,30.0,6.0,0.0
11479,65.0,0.0,30.0,4.0,0.0
11480,53.0,0.0,30.0,0.0,0.0
11481,62.0,30.0,30.0,4.0,0.0
11482,46.0,0.0,150.0,7.0,0.0
11483,62.0,0.0,30.0,2.0,0.0
11484,70.0,0.0,60.0,6.0,0.0
11485,53.0,0.0,30.0,1.0,0.0
11486,53.0,0.0,60.0,7.0,0.0
11487,51.0,30.0,30.0,1.0,0.0
11488,60.0,0.0,30.0,2.0,0.0
11489,60.0,0.0,30.0,4.0,0.0
11490,51.0,0.0,30.0,0.0,0.0
11491,53.0,30.0,30.0,0.0,0.0
11492,65.0,0.0,60.0,6.0,0.0
11493,53.0,0.0,30.0,1.0,0.0
11494,58.0,0.0,60.0,7.0,0.0
11495,62.0,0.0,30.0,2.0,0.0
11496,62.0,0.0,30.0,4.0,0.0
11497,51.0,0.0,30.0,1.0,0.0
11498,60.0,0.0,30.0,4.0,0.0
11499,60.0,31.0,30.0,2.0,0.0
11500,51.0,0.0,30.0,0.0,0.0
11501,53.0,30.0,60.0,1.0,0.0
11502,53.0,0.0,60.0,0.0,0.0
11503,58.0,0.0,60.0,4.0,0.0
11504,62.0,0.0,60.0,6.0,0.0
11505,58.0,0.0,60.0,2.0,0.0
11506,47.0,0.0,30.0,7.0,0.0
11507,47.0,0.0,30.0,3.0,0.0
11508,47.0,0.0,30.0,5.0,0.0
11509,44.0,0.0,30.0,5.0,0.0
11510,44.0,0.0,30.0,3.0,0.0
11511,75.0,0.0,60.0,6.0,0.0
11512,44.0,30.0,30.0,7.0,0.0
11513,75.0,0.0,60.0,0.0,0.0
11514,75.0,30.0,60.0,4.0,0.0
11515,46.0,0.0,30.0,5.0,0.0
11516,46.0,0.0,30.0,7.0,0.0
11517,46.0,0.0,30.0,3.0,0.0
11518,70.0,0.0,60.0,4.0,0.0
11519,70.0,0.0,60.0,0.0,0.0
11520,42.0,0.0,30.0,7.0,0.0
11521,42.0,30.0,30.0,3.0,0.0
11522,70.0,0.0,60.0,6.0,0.0
11523,42.0,0.0,30.0,5.0,0.0
11524,44.0,0.0,30.0,7.0,0.0
11525,44.0,30.0,30.0,3.0,0.0
11526,44.0,0.0,30.0,5.0,0.0
11527,75.0,0.0,60.0,6.0,0.0
11528,42.0,0.0,30.0,7.0,0.0
11529,75.0,0.0,60.0,4.0,0.0
11530,42.0,0.0,30.0,3.0,0.0
11531,42.0,30.0,30.0,5.0,0.0
11532,75.0,30.0,60.0,0.0,0.0
11533,44.0,0.0,30.0,3.0,0.0
11534,44.0,0.0,30.0,7.0,0.0
11535,44.0,0.0,30.0,5.0,0.0
11536,68.0,0.0,60.0,6.0,0.0
11537,41.0,30.0,30.0,5.0,0.0
11538,41.0,0.0,30.0,3.0,0.0
11539,68.0,30.0,60.0,4.0,0.0
11540,68.0,0.0,60.0,0.0,0.0
11541,41.0,0.0,30.0,7.0,0.0
11542,42.0,0.0,30.0,7.0,0.0
11543,42.0,0.0,30.0,5.0,0.0
11544,42.0,0.0,30.0,3.0,0.0
11545,41.0,30.0,30.0,3.0,0.0
11546,75.0,0.0,60.0,6.0,0.0
11547,41.0,0.0,30.0,7.0,0.0
11548,75.0,0.0,60.0,4.0,0.0
11549,41.0,0.0,30.0,5.0,0.0
11550,75.0,30.0,60.0,0.0,0.0
11551,42.0,0.0,30.0,5.0,0.0
11552,42.0,0.0,30.0,7.0,0.0
11553,42.0,0.0,30.0,3.0,0.0
11554,39.0,0.0,60.0,7.0,0.0
11555,66.0,30.0,30.0,0.0,0.0
11556,66.0,0.0,30.0,6.0,0.0
11557,39.0,0.0,60.0,5.0,0.0
11558,66.0,0.0,30.0,4.0,0.0
11559,39.0,0.0,60.0,3.0,0.0
11560,65.0,30.0,30.0,4.0,0.0
11561,65.0,0.0,30.0,6.0,0.0
11562,65.0,0.0,30.0,0.0,0.0
11563,58.0,0.0,30.0,5.0,0.0
11564,58.0,0.0,60.0,3.0,0.0
11565,66.0,0.0,30.0,6.0,0.0
11566,66.0,0.0,30.0,0.0,0.0
11567,66.0,30.0,30.0,4.0,0.0
11568,58.0,0.0,30.0,7.0,0.0
11569,65.0,0.0,30.0,4.0,0.0
11570,65.0,0.0,30.0,0.0,0.0
11571,56.0,0.0,30.0,7.0,0.0
11572,56.0,0.0,30.0,5.0,0.0
11573,65.0,30.0,30.0,6.0,0.0
11574,54.0,30.0,30.0,5.0,0.0
11575,63.0,0.0,60.0,4.0,0.0
11576,54.0,0.0,60.0,3.0,0.0
11577,54.0,0.0,30.0,7.0,0.0
11578,63.0,0.0,60.0,6.0,0.0
11579,63.0,30.0,60.0,0.0,0.0
11580,53.0,0.0,30.0,7.0,0.0
11581,53.0,0.0,30.0,5.0,0.0
11582,51.0,30.0,60.0,3.0,0.0
11583,51.0,30.0,30.0,7.0,0.0
11584,78.0,0.0,60.0,4.0,0.0
11585,78.0,0.0,60.0,0.0,0.0
11586,70.0,0.0,60.0,2.0,0.0
11587,51.0,0.0,30.0,5.0,0.0
11588,75.0,0.0,60.0,1.0,0.0
11589,78.0,0.0,60.0,6.0,0.0
11590,53.0,0.0,30.0,5.0,0.0
11591,53.0,0.0,30.0,7.0,0.0
11592,49.0,0.0,30.0,5.0,0.0
11593,58.0,0.0,60.0,2.0,0.0
11594,49.0,0.0,30.0,7.0,0.0
11595,49.0,30.0,30.0,3.0,0.0
11596,77.0,30.0,60.0,6.0,0.0
11597,77.0,0.0,60.0,4.0,0.0
11598,77.0,0.0,60.0,0.0,0.0
11599,77.0,0.0,60.0,1.0,0.0
11600,51.0,0.0,30.0,7.0,0.0
11601,51.0,0.0,30.0,5.0,0.0
11602,51.0,0.0,30.0,3.0,0.0
11603,82.0,0.0,120.0,4.0,0.0
11604,82.0,0.0,120.0,0.0,0.0
11605,58.0,0.0,60.0,2.0,0.0
11606,82.0,30.0,120.0,6.0,0.0
11607,49.0,0.0,30.0,3.0,0.0
11608,49.0,30.0,30.0,7.0,0.0
11609,49.0,0.0,30.0,5.0,0.0
11610,65.0,0.0,60.0,1.0,0.0
11611,51.0,0.0,30.0,7.0,0.0
11612,51.0,30.0,30.0,3.0,0.0
11613,51.0,0.0,30.0,5.0,0.0
11614,47.0,0.0,30.0,7.0,0.0
11615,47.0,0.0,30.0,5.0,0.0
11616,66.0,0.0,60.0,1.0,0.0
11617,63.0,0.0,60.0,2.0,0.0
11618,47.0,30.0,30.0,3.0,0.0
11619,49.0,0.0,30.0,5.0,0.0
11620,49.0,0.0,30.0,7.0,0.0
11621,49.0,0.0,30.0,3.0,0.0
11622,75.0,0.0,60.0,0.0,0.0
11623,75.0,0.0,60.0,4.0,0.0
11624,75.0,0.0,60.0,6.0,0.0
11625,63.0,0.0,60.0,2.0,0.0
11626,47.0,30.0,30.0,7.0,0.0
11627,47.0,0.0,30.0,5.0,0.0
11628,68.0,30.0,60.0,1.0,0.0
11629,47.0,0.0,30.0,3.0,0.0
11630,49.0,0.0,30.0,5.0,0.0
11631,49.0,0.0,30.0,3.0,0.0
11632,49.0,0.0,30.0,7.0,0.0
11633,46.0,0.0,60.0,5.0,0.0
11634,46.0,30.0,60.0,7.0,0.0
11635,46.0,0.0,60.0,3.0,0.0
11636,74.0,0.0,30.0,6.0,0.0
11637,65.0,0.0,30.0,2.0,0.0
11638,74.0,0.0,30.0,0.0,0.0
11639,74.0,30.0,30.0,4.0,0.0
11640,70.0,0.0,30.0,1.0,0.0
11641,72.0,0.0,30.0,4.0,0.0
11642,72.0,0.0,30.0,6.0,0.0
11643,63.0,0.0,30.0,2.0,0.0
11644,72.0,0.0,30.0,1.0,0.0
11645,72.0,0.0,30.0,0.0,0.0
11646,74.0,0.0,30.0,4.0,0.0
11647,70.0,0.0,30.0,1.0,0.0
11648,65.0,30.0,30.0,2.0,0.0
11649,74.0,0.0,30.0,6.0,0.0
11650,41.0,30.0,60.0,5.0,0.0
11651,74.0,0.0,30.0,0.0,0.0
11652,41.0,0.0,60.0,7.0,0.0
11653,41.0,0.0,60.0,3.0,0.0
11654,72.0,0.0,30.0,0.0,0.0
11655,72.0,0.0,30.0,1.0,0.0
11656,72.0,0.0,30.0,4.0,0.0
11657,63.0,0.0,30.0,2.0,0.0
11658,72.0,0.0,30.0,6.0,0.0
11659,74.0,0.0,60.0,1.0,0.0
11660,70.0,30.0,60.0,6.0,0.0
11661,34.0,0.0,60.0,5.0,0.0
11662,70.0,0.0,60.0,0.0,0.0
11663,65.0,0.0,60.0,2.0,0.0
11664,34.0,0.0,60.0,7.0,0.0
11665,34.0,0.0,60.0,3.0,0.0
11666,70.0,30.0,30.0,4.0,0.0
11667,68.0,0.0,30.0,4.0,0.0
11668,58.0,30.0,60.0,6.0,0.0
11669,66.0,30.0,30.0,4.0,0.0
11670,65.0,0.0,30.0,4.0,0.0
11671,63.0,0.0,60.0,6.0,0.0
11672,66.0,30.0,30.0,4.0,0.0
11673,70.0,30.0,30.0,4.0,0.0
11674,66.0,30.0,30.0,4.0,0.0
11675,58.0,0.0,60.0,6.0,0.0
11676,63.0,30.0,30.0,4.0,0.0
11677,65.0,30.0,60.0,6.0,0.0
11678,62.0,30.0,30.0,4.0,0.0
11679,65.0,0.0,30.0,4.0,0.0
11680,58.0,0.0,60.0,6.0,0.0
11681,62.0,30.0,30.0,4.0,0.0
11682,58.0,30.0,30.0,4.0,0.0
11683,63.0,30.0,30.0,4.0,0.0
11684,66.0,0.0,60.0,6.0,0.0
11685,66.0,30.0,30.0,4.0,0.0
11686,63.0,30.0,30.0,4.0,0.0
11687,58.0,30.0,60.0,6.0,0.0
11688,58.0,0.0,30.0,4.0,0.0
11689,68.0,0.0,60.0,6.0,0.0
11690,65.0,30.0,30.0,4.0,0.0
11691,68.0,30.0,30.0,4.0,0.0
11692,65.0,30.0,30.0,4.0,0.0
11693,46.0,0.0,60.0,7.0,0.0
11694,62.0,0.0,60.0,2.0,0.0
11695,62.0,0.0,60.0,1.0,0.0
11696,46.0,0.0,60.0,3.0,0.0
11697,62.0,0.0,60.0,0.0,0.0
11698,58.0,0.0,60.0,6.0,0.0
11699,46.0,0.0,60.0,5.0,0.0
11700,58.0,30.0,30.0,4.0,0.0
11701,51.0,0.0,60.0,3.0,0.0
11702,66.0,30.0,30.0,6.0,0.0
11703,63.0,0.0,60.0,2.0,0.0
11704,51.0,0.0,60.0,7.0,0.0
11705,63.0,0.0,60.0,1.0,0.0
11706,63.0,0.0,60.0,0.0,0.0
11707,58.0,30.0,60.0,4.0,0.0
11708,51.0,0.0,60.0,5.0,0.0
11709,65.0,0.0,30.0,6.0,0.0
11710,63.0,30.0,30.0,6.0,0.0
11711,58.0,0.0,60.0,1.0,0.0
11712,58.0,0.0,60.0,0.0,0.0
11713,42.0,0.0,60.0,7.0,0.0
11714,42.0,30.0,60.0,5.0,0.0
11715,42.0,0.0,60.0,3.0,0.0
11716,63.0,0.0,60.0,4.0,0.0
11717,58.0,0.0,60.0,2.0,0.0
11718,66.0,0.0,30.0,6.0,0.0
11719,44.0,0.0,60.0,5.0,0.0
11720,65.0,0.0,60.0,0.0,0.0
11721,65.0,0.0,30.0,6.0,0.0
11722,65.0,0.0,60.0,2.0,0.0
11723,44.0,0.0,60.0,3.0,0.0
11724,65.0,30.0,30.0,4.0,0.0
11725,44.0,30.0,60.0,7.0,0.0
11726,65.0,0.0,60.0,1.0,0.0
11727,63.0,0.0,30.0,6.0,0.0
11728,66.0,0.0,30.0,4.0,0.0
11729,46.0,0.0,60.0,5.0,0.0
11730,62.0,0.0,30.0,6.0,0.0
11731,58.0,0.0,60.0,0.0,0.0
11732,58.0,0.0,60.0,1.0,0.0
11733,68.0,30.0,30.0,4.0,0.0
11734,58.0,30.0,60.0,2.0,0.0
11735,46.0,0.0,60.0,3.0,0.0
11736,46.0,0.0,60.0,7.0,0.0
11737,65.0,0.0,30.0,6.0,0.0
11738,65.0,0.0,30.0,4.0,0.0
11739,63.0,0.0,30.0,6.0,0.0
11740,39.0,0.0,60.0,7.0,0.0
11741,66.0,0.0,30.0,4.0,0.0
11742,39.0,0.0,60.0,3.0,0.0
11743,66.0,0.0,30.0,1.0,0.0
11744,39.0,0.0,60.0,5.0,0.0
11745,66.0,0.0,30.0,0.0,0.0
11746,66.0,30.0,30.0,2.0,0.0
11747,65.0,0.0,30.0,4.0,0.0
11748,65.0,0.0,30.0,1.0,0.0
11749,62.0,0.0,30.0,6.0,0.0
11750,65.0,30.0,30.0,0.0,0.0
11751,65.0,0.0,30.0,2.0,0.0
11752,66.0,0.0,30.0,1.0,0.0
11753,46.0,0.0,60.0,5.0,0.0
11754,66.0,0.0,30.0,0.0,0.0
11755,46.0,30.0,60.0,3.0,0.0
11756,46.0,0.0,60.0,7.0,0.0
11757,63.0,0.0,30.0,6.0,0.0
11758,66.0,30.0,30.0,2.0,0.0
11759,66.0,0.0,30.0,4.0,0.0
11760,62.0,0.0,30.0,6.0,0.0
11761,65.0,0.0,30.0,1.0,0.0
11762,65.0,0.0,30.0,2.0,0.0
11763,65.0,0.0,30.0,4.0,0.0
11764,65.0,0.0,30.0,0.0,0.0
11765,63.0,0.0,60.0,1.0,0.0
11766,63.0,0.0,60.0,0.0,0.0
11767,51.0,0.0,60.0,3.0,0.0
11768,63.0,30.0,60.0,6.0,0.0
11769,63.0,30.0,30.0,4.0,0.0
11770,51.0,0.0,60.0,7.0,0.0
11771,51.0,0.0,60.0,5.0,0.0
11772,63.0,0.0,60.0,2.0,0.0
11773,61.0,0.0,30.0,4.0,0.0
11774,63.0,30.0,60.0,6.0,0.0
11775,59.0,30.0,30.0,4.0,0.0
11776,58.0,0.0,30.0,4.0,0.0
11777,68.0,30.0,60.0,6.0,0.0
11778,59.0,30.0,30.0,4.0,0.0
11779,63.0,0.0,30.0,4.0,0.0
11780,63.0,30.0,60.0,6.0,0.0
11781,59.0,30.0,30.0,4.0,0.0
11782,56.0,0.0,30.0,4.0,0.0
11783,70.0,30.0,60.0,6.0,0.0
11784,55.0,30.0,30.0,4.0,0.0
11785,58.0,0.0,30.0,4.0,0.0
11786,55.0,30.0,30.0,4.0,0.0
11787,63.0,30.0,60.0,6.0,0.0
11788,51.0,0.0,30.0,4.0,0.0
11789,56.0,30.0,30.0,4.0,0.0
11790,71.0,30.0,60.0,6.0,0.0
11791,59.0,0.0,30.0,4.0,0.0
11792,63.0,0.0,60.0,6.0,0.0
11793,56.0,30.0,30.0,4.0,0.0
11794,51.0,30.0,30.0,4.0,0.0
11795,73.0,0.0,60.0,6.0,0.0
11796,58.0,30.0,30.0,4.0,0.0
11797,61.0,30.0,30.0,4.0,0.0
11798,67.0,0.0,60.0,0.0,0.0
11799,63.0,0.0,60.0,6.0,0.0
11800,51.0,0.0,60.0,3.0,0.0
11801,67.0,0.0,60.0,2.0,0.0
11802,39.0,0.0,60.0,5.0,0.0
11803,51.0,0.0,60.0,7.0,0.0
11804,67.0,30.0,60.0,1.0,0.0
11805,58.0,30.0,30.0,4.0,0.0
11806,51.0,0.0,30.0,4.0,0.0
11807,68.0,30.0,60.0,0.0,0.0
11808,68.0,0.0,60.0,2.0,0.0
11809,63.0,0.0,60.0,4.0,0.0
11810,56.0,0.0,60.0,3.0,0.0
11811,44.0,0.0,60.0,5.0,0.0
11812,68.0,0.0,60.0,1.0,0.0
11813,71.0,30.0,30.0,6.0,0.0
11814,56.0,0.0,60.0,7.0,0.0
11815,70.0,0.0,30.0,6.0,0.0
11816,63.0,0.0,60.0,1.0,0.0
11817,47.0,0.0,60.0,3.0,0.0
11818,63.0,0.0,60.0,0.0,0.0
11819,68.0,30.0,30.0,6.0,0.0
11820,47.0,0.0,60.0,5.0,0.0
11821,47.0,0.0,60.0,7.0,0.0
11822,63.0,30.0,60.0,2.0,0.0
11823,68.0,0.0,60.0,4.0,0.0
11824,71.0,0.0,30.0,6.0,0.0
11825,70.0,30.0,60.0,0.0,0.0
11826,70.0,30.0,30.0,6.0,0.0
11827,49.0,0.0,60.0,5.0,0.0
11828,70.0,0.0,60.0,1.0,0.0
11829,49.0,0.0,60.0,3.0,0.0
11830,70.0,0.0,60.0,2.0,0.0
11831,70.0,0.0,30.0,4.0,0.0
11832,49.0,0.0,60.0,7.0,0.0
11833,68.0,0.0,30.0,6.0,0.0
11834,71.0,0.0,30.0,4.0,0.0
11835,63.0,0.0,60.0,2.0,0.0
11836,63.0,0.0,60.0,1.0,0.0
11837,73.0,30.0,30.0,4.0,0.0
11838,51.0,0.0,60.0,7.0,0.0
11839,51.0,0.0,60.0,5.0,0.0
11840,63.0,0.0,60.0,0.0,0.0
11841,67.0,0.0,30.0,6.0,0.0
11842,51.0,30.0,60.0,3.0,0.0
11843,70.0,0.0,30.0,6.0,0.0
11844,70.0,0.0,30.0,4.0,0.0
11845,44.0,0.0,60.0,3.0,0.0
11846,44.0,0.0,60.0,5.0,0.0
11847,71.0,0.0,30.0,0.0,0.0
11848,44.0,0.0,60.0,7.0,0.0
11849,68.0,0.0,30.0,6.0,0.0
11850,71.0,1.0,30.0,2.0,0.0
11851,71.0,29.0,30.0,1.0,0.0
11852,71.0,0.0,30.0,4.0,0.0
11853,70.0,0.0,30.0,4.0,0.0
11854,70.0,0.0,30.0,0.0,0.0
11855,70.0,1.0,30.0,2.0,0.0
11856,70.0,29.0,30.0,1.0,0.0
11857,67.0,0.0,30.0,6.0,0.0
11858,71.0,0.0,30.0,0.0,0.0
11859,71.0,29.0,30.0,1.0,0.0
11860,39.0,0.0,60.0,5.0,0.0
11861,71.0,1.0,30.0,4.0,0.0
11862,71.0,0.0,30.0,2.0,0.0
11863,39.0,0.0,60.0,3.0,0.0
11864,51.0,0.0,60.0,7.0,0.0
11865,68.0,0.0,30.0,6.0,0.0
11866,70.0,0.0,30.0,2.0,0.0
11867,70.0,0.0,30.0,4.0,0.0
11868,70.0,29.0,30.0,1.0,0.0
11869,70.0,0.0,30.0,0.0,0.0
11870,67.0,1.0,30.0,6.0,0.0
11871,68.0,0.0,60.0,0.0,0.0
11872,68.0,30.0,30.0,4.0,0.0
11873,32.0,0.0,60.0,3.0,0.0
11874,32.0,30.0,60.0,5.0,0.0
11875,68.0,0.0,60.0,1.0,0.0
11876,68.0,0.0,60.0,2.0,0.0
11877,56.0,0.0,60.0,7.0,0.0
11878,68.0,0.0,60.0,6.0,0.0
11879,70.0,0.0,30.0,4.0,0.0
11880,71.0,30.0,30.0,4.0,0.0
11881,56.0,0.0,60.0,3.0,0.0
11882,63.0,30.0,120.0,7.0,0.0
11883,71.0,30.0,60.0,6.0,0.0
11884,44.0,0.0,60.0,5.0,0.0
11885,68.0,0.0,30.0,4.0,0.0
11886,43.0,0.0,60.0,5.0,0.0
11887,55.0,0.0,60.0,3.0,0.0
11888,70.0,0.0,60.0,6.0,0.0
11889,63.0,30.0,30.0,4.0,0.0
11890,62.0,0.0,30.0,4.0,0.0
11891,61.0,0.0,30.0,7.0,0.0
11892,67.0,30.0,30.0,6.0,0.0
11893,63.0,0.0,30.0,4.0,0.0
11894,46.0,30.0,60.0,5.0,0.0
11895,58.0,0.0,60.0,3.0,0.0
11896,65.0,0.0,30.0,4.0,0.0
11897,68.0,0.0,30.0,6.0,0.0
11898,59.0,0.0,30.0,7.0,0.0
11899,70.0,0.0,60.0,6.0,0.0
11900,39.0,0.0,60.0,5.0,0.0
11901,51.0,0.0,60.0,3.0,0.0
11902,67.0,30.0,30.0,4.0,0.0
11903,58.0,0.0,30.0,7.0,0.0
11904,56.0,0.0,30.0,7.0,0.0
11905,68.0,30.0,30.0,4.0,0.0
11906,55.0,30.0,60.0,3.0,0.0
11907,70.0,0.0,30.0,4.0,0.0
11908,43.0,0.0,60.0,5.0,0.0
11909,55.0,30.0,30.0,7.0,0.0
11910,75.0,0.0,120.0,6.0,0.0
11911,53.0,0.0,30.0,7.0,0.0
11912,71.0,0.0,30.0,4.0,0.0
11913,56.0,0.0,60.0,3.0,0.0
11914,73.0,0.0,30.0,4.0,0.0
11915,44.0,0.0,60.0,5.0,0.0
11916,51.0,30.0,30.0,7.0,0.0
11917,70.0,0.0,30.0,4.0,0.0
11918,55.0,30.0,30.0,7.0,0.0
11919,56.0,0.0,30.0,7.0,0.0
11920,44.0,0.0,60.0,3.0,0.0
11921,68.0,0.0,60.0,6.0,0.0
11922,51.0,0.0,60.0,5.0,0.0
11923,71.0,30.0,30.0,4.0,0.0
11924,68.0,30.0,30.0,4.0,0.0
11925,51.0,0.0,30.0,7.0,0.0
11926,56.0,0.0,60.0,5.0,0.0
11927,47.0,0.0,30.0,7.0,0.0
11928,56.0,0.0,60.0,3.0,0.0
11929,71.0,0.0,60.0,6.0,0.0
11930,63.0,30.0,30.0,4.0,0.0
11931,51.0,30.0,30.0,7.0,0.0
11932,68.0,0.0,30.0,4.0,0.0
11933,71.0,30.0,30.0,4.0,0.0
11934,44.0,0.0,30.0,7.0,0.0
11935,75.0,0.0,60.0,6.0,0.0
11936,68.0,0.0,60.0,0.0,0.0
11937,68.0,0.0,60.0,1.0,0.0
11938,68.0,30.0,60.0,2.0,0.0
11939,63.0,0.0,120.0,5.0,0.0
11940,47.0,0.0,30.0,7.0,0.0
11941,68.0,0.0,30.0,4.0,0.0
11942,67.0,0.0,60.0,0.0,0.0
11943,67.0,0.0,60.0,1.0,0.0
11944,43.0,0.0,60.0,7.0,0.0
11945,70.0,30.0,60.0,4.0,0.0
11946,67.0,0.0,60.0,2.0,0.0
11947,63.0,30.0,30.0,6.0,0.0
11948,62.0,0.0,30.0,6.0,0.0
11949,70.0,0.0,60.0,1.0,0.0
11950,63.0,0.0,30.0,6.0,0.0
11951,70.0,30.0,60.0,2.0,0.0
11952,61.0,30.0,30.0,5.0,0.0
11953,70.0,0.0,60.0,0.0,0.0
11954,67.0,0.0,30.0,4.0,0.0
11955,46.0,0.0,60.0,7.0,0.0
11956,65.0,0.0,30.0,6.0,0.0
11957,59.0,0.0,30.0,5.0,0.0
11958,68.0,0.0,30.0,4.0,0.0
11959,63.0,0.0,60.0,2.0,0.0
11960,67.0,30.0,30.0,6.0,0.0
11961,63.0,0.0,60.0,1.0,0.0
11962,39.0,0.0,60.0,7.0,0.0
11963,70.0,0.0,60.0,4.0,0.0
11964,63.0,30.0,60.0,0.0,0.0
11965,58.0,0.0,30.0,5.0,0.0
11966,56.0,0.0,30.0,5.0,0.0
11967,68.0,0.0,30.0,6.0,0.0
11968,67.0,0.0,60.0,2.0,0.0
11969,43.0,30.0,60.0,7.0,0.0
11970,67.0,0.0,60.0,0.0,0.0
11971,70.0,0.0,30.0,6.0,0.0
11972,51.0,0.0,60.0,3.0,0.0
11973,75.0,0.0,120.0,4.0,0.0
11974,67.0,0.0,60.0,1.0,0.0
11975,55.0,30.0,30.0,5.0,0.0
11976,53.0,0.0,30.0,5.0,0.0
11977,71.0,0.0,30.0,6.0,0.0
11978,44.0,0.0,60.0,7.0,0.0
11979,68.0,0.0,60.0,1.0,0.0
11980,73.0,0.0,30.0,6.0,0.0
11981,56.0,0.0,60.0,3.0,0.0
11982,68.0,0.0,60.0,0.0,0.0
11983,68.0,30.0,60.0,2.0,0.0
11984,51.0,30.0,30.0,5.0,0.0
11985,55.0,0.0,30.0,5.0,0.0
11986,70.0,0.0,30.0,6.0,0.0
11987,56.0,0.0,30.0,5.0,0.0
11988,51.0,0.0,60.0,7.0,0.0
11989,63.0,0.0,60.0,1.0,0.0
11990,68.0,0.0,60.0,4.0,0.0
11991,44.0,0.0,60.0,3.0,0.0
11992,63.0,0.0,60.0,0.0,0.0
11993,71.0,30.0,30.0,6.0,0.0
11994,63.0,30.0,60.0,2.0,0.0
11995,68.0,0.0,30.0,6.0,0.0
11996,51.0,0.0,30.0,5.0,0.0
11997,63.0,0.0,30.0,6.0,0.0
11998,71.0,0.0,60.0,4.0,0.0
11999,56.0,0.0,60.0,7.0,0.0
12000,56.0,0.0,60.0,2.0,0.0
12001,56.0,0.0,60.0,3.0,0.0
12002,56.0,30.0,60.0,1.0,0.0
12003,47.0,30.0,30.0,5.0,0.0
12004,56.0,0.0,60.0,0.0,0.0
12005,68.0,0.0,30.0,6.0,0.0
12006,51.0,0.0,30.0,5.0,0.0
12007,54.0,30.0,60.0,3.0,0.0
12008,44.0,0.0,30.0,5.0,0.0
12009,71.0,30.0,30.0,6.0,0.0
12010,63.0,0.0,60.0,7.0,0.0
12011,75.0,0.0,60.0,4.0,0.0
12012,47.0,0.0,30.0,5.0,0.0
12013,70.0,0.0,30.0,6.0,0.0
12014,61.0,30.0,60.0,7.0,0.0
12015,41.0,0.0,60.0,5.0,0.0
12016,53.0,0.0,60.0,3.0,0.0
12017,61.0,30.0,30.0,4.0,0.0
12018,71.0,0.0,60.0,6.0,0.0
12019,60.0,0.0,30.0,4.0,0.0
12020,59.0,0.0,30.0,7.0,0.0
12021,65.0,0.0,30.0,6.0,0.0
12022,61.0,30.0,30.0,4.0,0.0
12023,56.0,0.0,60.0,3.0,0.0
12024,44.0,30.0,60.0,5.0,0.0
12025,63.0,0.0,30.0,4.0,0.0
12026,58.0,0.0,30.0,7.0,0.0
12027,66.0,0.0,30.0,6.0,0.0
12028,56.0,30.0,30.0,7.0,0.0
12029,49.0,0.0,60.0,3.0,0.0
12030,37.0,30.0,60.0,5.0,0.0
12031,68.0,0.0,60.0,6.0,0.0
12032,65.0,0.0,30.0,4.0,0.0
12033,66.0,0.0,30.0,4.0,0.0
12034,54.0,0.0,30.0,7.0,0.0
12035,68.0,30.0,30.0,4.0,0.0
12036,53.0,0.0,30.0,7.0,0.0
12037,41.0,0.0,60.0,5.0,0.0
12038,73.0,30.0,120.0,6.0,0.0
12039,53.0,0.0,60.0,3.0,0.0
12040,51.0,0.0,30.0,7.0,0.0
12041,70.0,30.0,30.0,4.0,0.0
12042,49.0,0.0,30.0,7.0,0.0
12043,54.0,0.0,60.0,3.0,0.0
12044,42.0,0.0,60.0,5.0,0.0
12045,71.0,30.0,30.0,4.0,0.0
12046,68.0,0.0,30.0,4.0,0.0
12047,53.0,0.0,30.0,7.0,0.0
12048,70.0,0.0,30.0,4.0,0.0
12049,42.0,0.0,60.0,3.0,0.0
12050,49.0,0.0,60.0,5.0,0.0
12051,54.0,30.0,30.0,7.0,0.0
12052,66.0,30.0,60.0,6.0,0.0
12053,49.0,0.0,30.0,7.0,0.0
12054,66.0,0.0,30.0,4.0,0.0
12055,54.0,0.0,60.0,3.0,0.0
12056,54.0,0.0,60.0,5.0,0.0
12057,70.0,0.0,60.0,6.0,0.0
12058,46.0,0.0,30.0,7.0,0.0
12059,61.0,30.0,30.0,4.0,0.0
12060,66.0,30.0,30.0,4.0,0.0
12061,49.0,0.0,30.0,7.0,0.0
12062,61.0,0.0,120.0,5.0,0.0
12063,73.0,0.0,60.0,6.0,0.0
12064,42.0,0.0,30.0,7.0,0.0
12065,66.0,30.0,60.0,1.0,0.0
12066,66.0,0.0,60.0,2.0,0.0
12067,70.0,30.0,30.0,4.0,0.0
12068,66.0,0.0,60.0,0.0,0.0
12069,46.0,0.0,30.0,7.0,0.0
12070,66.0,0.0,30.0,4.0,0.0
12071,65.0,0.0,60.0,2.0,0.0
12072,68.0,30.0,60.0,4.0,0.0
12073,41.0,0.0,60.0,7.0,0.0
12074,61.0,30.0,30.0,6.0,0.0
12075,65.0,0.0,60.0,1.0,0.0
12076,65.0,0.0,60.0,0.0,0.0
12077,60.0,0.0,30.0,6.0,0.0
12078,59.0,30.0,30.0,5.0,0.0
12079,44.0,0.0,60.0,7.0,0.0
12080,65.0,0.0,30.0,4.0,0.0
12081,68.0,0.0,60.0,2.0,0.0
12082,68.0,0.0,60.0,0.0,0.0
12083,61.0,0.0,30.0,6.0,0.0
12084,68.0,0.0,60.0,1.0,0.0
12085,66.0,30.0,30.0,4.0,0.0
12086,63.0,0.0,30.0,6.0,0.0
12087,58.0,0.0,30.0,5.0,0.0
12088,61.0,0.0,60.0,2.0,0.0
12089,56.0,0.0,30.0,5.0,0.0
12090,65.0,30.0,30.0,6.0,0.0
12091,68.0,0.0,60.0,4.0,0.0
12092,37.0,0.0,60.0,7.0,0.0
12093,61.0,0.0,60.0,0.0,0.0
12094,61.0,0.0,60.0,1.0,0.0
12095,54.0,0.0,30.0,5.0,0.0
12096,66.0,30.0,30.0,6.0,0.0
12097,53.0,30.0,30.0,5.0,0.0
12098,65.0,0.0,60.0,0.0,0.0
12099,41.0,0.0,60.0,7.0,0.0
12100,65.0,0.0,60.0,1.0,0.0
12101,65.0,0.0,60.0,2.0,0.0
12102,73.0,0.0,120.0,4.0,0.0
12103,68.0,0.0,30.0,6.0,0.0
12104,49.0,0.0,60.0,3.0,0.0
12105,70.0,30.0,30.0,6.0,0.0
12106,51.0,0.0,30.0,5.0,0.0
12107,66.0,0.0,60.0,1.0,0.0
12108,49.0,0.0,30.0,5.0,0.0
12109,66.0,30.0,60.0,2.0,0.0
12110,42.0,0.0,60.0,7.0,0.0
12111,66.0,0.0,60.0,0.0,0.0
12112,54.0,0.0,60.0,3.0,0.0
12113,71.0,30.0,30.0,6.0,0.0
12114,68.0,0.0,30.0,6.0,0.0
12115,53.0,0.0,30.0,5.0,0.0
12116,61.0,0.0,60.0,0.0,0.0
12117,61.0,0.0,60.0,2.0,0.0
12118,42.0,0.0,60.0,3.0,0.0
12119,61.0,0.0,60.0,1.0,0.0
12120,66.0,0.0,60.0,4.0,0.0
12121,49.0,30.0,60.0,7.0,0.0
12122,70.0,0.0,30.0,6.0,0.0
12123,54.0,30.0,30.0,5.0,0.0
12124,66.0,0.0,30.0,6.0,0.0
12125,49.0,0.0,30.0,5.0,0.0
12126,46.0,0.0,30.0,5.0,0.0
12127,54.0,0.0,60.0,2.0,0.0
12128,54.0,0.0,60.0,3.0,0.0
12129,54.0,0.0,60.0,7.0,0.0
12130,61.0,30.0,30.0,6.0,0.0
12131,70.0,0.0,60.0,4.0,0.0
12132,54.0,0.0,60.0,0.0,0.0
12133,54.0,0.0,60.0,1.0,0.0
12134,49.0,0.0,30.0,5.0,0.0
12135,66.0,30.0,30.0,6.0,0.0
12136,59.0,0.0,60.0,3.0,0.0
12137,47.0,30.0,30.0,5.0,0.0
12138,63.0,0.0,60.0,1.0,0.0
12139,54.0,0.0,60.0,2.0,0.0
12140,47.0,0.0,60.0,7.0,0.0
12141,63.0,30.0,60.0,4.0,0.0
12142,70.0,0.0,30.0,6.0,0.0
12143,63.0,0.0,60.0,0.0,0.0
12144,51.0,0.0,30.0,5.0,0.0
12145,66.0,0.0,30.0,6.0,0.0
12146,68.0,0.0,120.0,4.0,0.0
12147,41.0,0.0,60.0,5.0,0.0
12148,53.0,29.0,30.0,3.0,0.0
12149,41.0,30.0,60.0,7.0,0.0
12150,53.0,1.0,30.0,2.0,0.0
12151,68.0,0.0,60.0,0.0,0.0
12152,62.0,0.0,60.0,1.0,0.0
12153,68.0,0.0,120.0,6.0,0.0
12154,54.0,0.0,30.0,2.0,0.0
12155,59.0,30.0,60.0,7.0,0.0
12156,56.0,1.0,30.0,2.0,0.0
12157,59.0,0.0,60.0,5.0,0.0
12158,59.0,29.0,30.0,3.0,0.0
12159,63.0,0.0,120.0,1.0,0.0
12160,58.0,0.0,30.0,2.0,0.0
12161,68.0,0.0,60.0,0.0,0.0
12162,68.0,0.0,120.0,6.0,0.0
12163,51.0,29.0,30.0,3.0,0.0
12164,59.0,1.0,30.0,2.0,0.0
12165,51.0,30.0,60.0,5.0,0.0
12166,68.0,30.0,120.0,4.0,0.0
12167,51.0,0.0,60.0,7.0,0.0
12168,61.0,0.0,30.0,2.0,0.0
12169,59.0,0.0,60.0,5.0,0.0
12170,65.0,0.0,60.0,1.0,0.0
12171,59.0,29.0,30.0,3.0,0.0
12172,59.0,1.0,30.0,2.0,0.0
12173,59.0,0.0,60.0,7.0,0.0
12174,61.0,0.0,30.0,2.0,0.0
12175,50.0,30.0,30.0,3.0,0.0
12176,50.0,0.0,30.0,7.0,0.0
12177,58.0,0.0,30.0,2.0,0.0
12178,68.0,30.0,120.0,6.0,0.0
12179,68.0,0.0,120.0,4.0,0.0
12180,50.0,0.0,30.0,5.0,0.0
12181,65.0,0.0,120.0,1.0,0.0
12182,68.0,0.0,120.0,0.0,0.0
12183,48.0,0.0,30.0,5.0,0.0
12184,56.0,0.0,30.0,2.0,0.0
12185,48.0,30.0,30.0,7.0,0.0
12186,48.0,0.0,30.0,3.0,0.0
12187,50.0,0.0,30.0,5.0,0.0
12188,50.0,0.0,30.0,7.0,0.0
12189,58.0,30.0,30.0,2.0,0.0
12190,50.0,0.0,30.0,3.0,0.0
12191,48.0,0.0,30.0,5.0,0.0
12192,48.0,0.0,30.0,7.0,0.0
12193,48.0,0.0,30.0,3.0,0.0
12194,56.0,0.0,30.0,2.0,0.0
12195,58.0,0.0,120.0,2.0,0.0
12196,46.0,0.0,30.0,5.0,0.0
12197,46.0,0.0,30.0,7.0,0.0
12198,46.0,30.0,30.0,3.0,0.0
12199,66.0,0.0,30.0,6.0,0.0
12200,48.0,0.0,30.0,3.0,0.0
12201,48.0,0.0,30.0,5.0,0.0
12202,48.0,0.0,30.0,7.0,0.0
12203,66.0,0.0,30.0,4.0,0.0
12204,63.0,0.0,30.0,1.0,0.0
12205,66.0,30.0,30.0,0.0,0.0
12206,50.0,0.0,30.0,3.0,0.0
12207,50.0,0.0,30.0,5.0,0.0
12208,65.0,0.0,30.0,4.0,0.0
12209,50.0,0.0,30.0,7.0,0.0
12210,65.0,30.0,30.0,6.0,0.0
12211,65.0,0.0,30.0,0.0,0.0
12212,65.0,0.0,30.0,1.0,0.0
12213,46.0,0.0,30.0,5.0,0.0
12214,46.0,30.0,30.0,3.0,0.0
12215,62.0,0.0,30.0,1.0,0.0
12216,68.0,0.0,30.0,6.0,0.0
12217,68.0,0.0,30.0,4.0,0.0
12218,46.0,0.0,30.0,7.0,0.0
12219,68.0,0.0,30.0,0.0,0.0
12220,66.0,0.0,30.0,0.0,0.0
12221,39.0,30.0,60.0,7.0,0.0
12222,66.0,0.0,30.0,6.0,0.0
12223,51.0,29.0,30.0,3.0,0.0
12224,66.0,1.0,30.0,4.0,0.0
12225,63.0,0.0,60.0,1.0,0.0
12226,39.0,0.0,60.0,5.0,0.0
12227,65.0,0.0,30.0,6.0,0.0
12228,65.0,0.0,30.0,0.0,0.0
12229,59.0,0.0,30.0,2.0,0.0
12230,65.0,0.0,30.0,4.0,0.0
12231,58.0,0.0,60.0,5.0,0.0
12232,66.0,0.0,90.0,0.0,0.0
12233,66.0,0.0,90.0,4.0,0.0
12234,58.0,29.0,30.0,3.0,0.0
12235,58.0,1.0,30.0,2.0,0.0
12236,66.0,1.0,90.0,6.0,0.0
12237,58.0,30.0,60.0,7.0,0.0
12238,59.0,0.0,30.0,2.0,0.0
12239,58.0,0.0,30.0,2.0,0.0
12240,49.0,0.0,60.0,5.0,0.0
12241,49.0,29.0,30.0,3.0,0.0
12242,49.0,0.0,60.0,7.0,0.0
12243,63.0,30.0,60.0,1.0,0.0
12244,65.0,0.0,30.0,6.0,0.0
12245,59.0,0.0,30.0,2.0,0.0
12246,65.0,0.0,30.0,4.0,0.0
12247,65.0,0.0,30.0,0.0,0.0
12248,58.0,0.0,60.0,7.0,0.0
12249,58.0,29.0,30.0,3.0,0.0
12250,66.0,0.0,90.0,4.0,0.0
12251,58.0,1.0,30.0,2.0,0.0
12252,66.0,0.0,90.0,6.0,0.0
12253,58.0,0.0,60.0,5.0,0.0
12254,66.0,30.0,90.0,0.0,0.0
12255,59.0,30.0,30.0,2.0,0.0
12256,48.0,0.0,30.0,3.0,0.0
12257,48.0,0.0,30.0,7.0,0.0
12258,57.0,0.0,30.0,2.0,0.0
12259,63.0,0.0,180.0,1.0,0.0
12260,48.0,0.0,30.0,5.0,0.0
12261,63.0,0.0,30.0,6.0,0.0
12262,58.0,30.0,30.0,2.0,0.0
12263,63.0,0.0,30.0,0.0,0.0
12264,46.0,0.0,30.0,3.0,0.0
12265,46.0,0.0,30.0,5.0,0.0
12266,63.0,0.0,30.0,4.0,0.0
12267,46.0,0.0,30.0,7.0,0.0
12268,66.0,0.0,120.0,4.0,0.0
12269,66.0,0.0,120.0,0.0,0.0
12270,48.0,30.0,30.0,5.0,0.0
12271,66.0,0.0,120.0,6.0,0.0
12272,48.0,0.0,30.0,7.0,0.0
12273,48.0,0.0,30.0,3.0,0.0
12274,57.0,0.0,30.0,2.0,0.0
12275,58.0,0.0,30.0,2.0,0.0
12276,46.0,0.0,30.0,7.0,0.0
12277,46.0,0.0,30.0,3.0,0.0
12278,46.0,30.0,30.0,5.0,0.0
12279,45.0,0.0,30.0,5.0,0.0
12280,45.0,30.0,30.0,7.0,0.0
12281,60.0,0.0,60.0,2.0,0.0
12282,45.0,0.0,30.0,3.0,0.0
12283,46.0,30.0,30.0,5.0,0.0
12284,46.0,0.0,30.0,3.0,0.0
12285,46.0,0.0,30.0,7.0,0.0
12286,65.0,0.0,30.0,6.0,0.0
12287,53.0,0.0,60.0,1.0,0.0
12288,48.0,0.0,30.0,7.0,0.0
12289,65.0,0.0,30.0,4.0,0.0
12290,48.0,0.0,30.0,3.0,0.0
12291,65.0,30.0,30.0,0.0,0.0
12292,48.0,0.0,30.0,5.0,0.0
12293,57.0,0.0,60.0,2.0,0.0
12294,63.0,0.0,30.0,6.0,0.0
12295,45.0,0.0,30.0,5.0,0.0
12296,45.0,0.0,30.0,7.0,0.0
12297,63.0,0.0,30.0,4.0,0.0
12298,63.0,30.0,30.0,0.0,0.0
12299,45.0,0.0,30.0,3.0,0.0
12300,58.0,0.0,60.0,1.0,0.0
12301,62.0,0.0,60.0,0.0,0.0
12302,53.0,0.0,60.0,2.0,0.0
12303,46.0,30.0,30.0,5.0,0.0
12304,46.0,0.0,30.0,3.0,0.0
12305,62.0,0.0,60.0,6.0,0.0
12306,62.0,0.0,60.0,4.0,0.0
12307,46.0,0.0,30.0,7.0,0.0
12308,47.0,30.0,30.0,7.0,0.0
12309,47.0,0.0,30.0,5.0,0.0
12310,47.0,0.0,30.0,3.0,0.0
12311,46.0,0.0,30.0,7.0,0.0
12312,46.0,0.0,30.0,5.0,0.0
12313,65.0,0.0,60.0,6.0,0.0
12314,65.0,0.0,60.0,4.0,0.0
12315,65.0,0.0,60.0,0.0,0.0
12316,46.0,30.0,30.0,3.0,0.0
12317,58.0,0.0,60.0,2.0,0.0
12318,62.0,0.0,60.0,1.0,0.0
12319,47.0,0.0,30.0,3.0,0.0
12320,47.0,0.0,30.0,7.0,0.0
12321,47.0,30.0,30.0,5.0,0.0
12322,68.0,0.0,60.0,4.0,0.0
12323,46.0,30.0,30.0,3.0,0.0
12324,46.0,0.0,30.0,7.0,0.0
12325,46.0,0.0,30.0,5.0,0.0
12326,65.0,30.0,180.0,1.0,0.0
12327,68.0,30.0,60.0,0.0,0.0
12328,62.0,0.0,60.0,2.0,0.0
12329,68.0,0.0,60.0,6.0,0.0
12330,47.0,0.0,30.0,5.0,0.0
12331,47.0,0.0,30.0,3.0,0.0
12332,47.0,0.0,30.0,7.0,0.0
12333,77.0,0.0,60.0,6.0,0.0
12334,44.0,0.0,30.0,7.0,0.0
12335,50.0,0.0,60.0,2.0,0.0
12336,44.0,30.0,30.0,3.0,0.0
12337,44.0,0.0,30.0,5.0,0.0
12338,77.0,0.0,60.0,4.0,0.0
12339,77.0,0.0,60.0,0.0,0.0
12340,46.0,30.0,30.0,3.0,0.0
12341,46.0,0.0,30.0,5.0,0.0
12342,46.0,0.0,30.0,7.0,0.0
12343,47.0,0.0,60.0,7.0,0.0
12344,66.0,0.0,30.0,0.0,0.0
12345,66.0,0.0,30.0,4.0,0.0
12346,51.0,0.0,120.0,2.0,0.0
12347,47.0,0.0,60.0,3.0,0.0
12348,66.0,30.0,30.0,6.0,0.0
12349,47.0,0.0,60.0,5.0,0.0
12350,65.0,0.0,30.0,0.0,0.0
12351,65.0,0.0,30.0,6.0,0.0
12352,65.0,0.0,30.0,4.0,0.0
12353,66.0,30.0,30.0,4.0,0.0
12354,46.0,0.0,30.0,3.0,0.0
12355,66.0,0.0,30.0,6.0,0.0
12356,46.0,0.0,30.0,7.0,0.0
12357,66.0,0.0,30.0,0.0,0.0
12358,63.0,0.0,30.0,1.0,0.0
12359,46.0,0.0,30.0,5.0,0.0
12360,65.0,0.0,30.0,6.0,0.0
12361,44.0,0.0,30.0,5.0,0.0
12362,44.0,0.0,30.0,7.0,0.0
12363,62.0,0.0,30.0,1.0,0.0
12364,65.0,30.0,30.0,0.0,0.0
12365,65.0,0.0,30.0,4.0,0.0
12366,44.0,0.0,30.0,3.0,0.0
12367,63.0,30.0,30.0,0.0,0.0
12368,42.0,0.0,30.0,3.0,0.0
12369,42.0,0.0,30.0,7.0,0.0
12370,42.0,0.0,30.0,5.0,0.0
12371,63.0,0.0,30.0,6.0,0.0
12372,63.0,0.0,30.0,4.0,0.0
12373,63.0,0.0,60.0,1.0,0.0
12374,65.0,0.0,30.0,6.0,0.0
12375,47.0,0.0,30.0,7.0,0.0
12376,65.0,0.0,30.0,4.0,0.0
12377,65.0,0.0,30.0,0.0,0.0
12378,47.0,0.0,30.0,3.0,0.0
12379,56.0,30.0,30.0,2.0,0.0
12380,47.0,0.0,30.0,5.0,0.0
12381,46.0,0.0,30.0,5.0,0.0
12382,51.0,0.0,30.0,1.0,0.0
12383,66.0,0.0,30.0,4.0,0.0
12384,66.0,0.0,30.0,0.0,0.0
12385,54.0,0.0,30.0,2.0,0.0
12386,66.0,0.0,30.0,6.0,0.0
12387,46.0,0.0,30.0,3.0,0.0
12388,46.0,30.0,30.0,7.0,0.0
12389,44.0,30.0,30.0,7.0,0.0
12390,68.0,0.0,30.0,6.0,0.0
12391,53.0,0.0,30.0,2.0,0.0
12392,68.0,0.0,30.0,0.0,0.0
12393,68.0,0.0,30.0,4.0,0.0
12394,53.0,0.0,30.0,1.0,0.0
12395,44.0,0.0,30.0,5.0,0.0
12396,44.0,0.0,30.0,3.0,0.0
12397,70.0,0.0,60.0,4.0,0.0
12398,42.0,0.0,30.0,5.0,0.0
12399,70.0,0.0,60.0,0.0,0.0
12400,54.0,0.0,60.0,1.0,0.0
12401,51.0,0.0,60.0,2.0,0.0
12402,70.0,30.0,60.0,6.0,0.0
12403,42.0,30.0,30.0,3.0,0.0
12404,42.0,0.0,30.0,7.0,0.0
12405,47.0,0.0,30.0,7.0,0.0
12406,47.0,0.0,30.0,3.0,0.0
12407,47.0,0.0,30.0,5.0,0.0
12408,53.0,0.0,60.0,2.0,0.0
12409,46.0,0.0,30.0,3.0,0.0
12410,46.0,30.0,30.0,7.0,0.0
12411,46.0,0.0,30.0,5.0,0.0
12412,63.0,0.0,60.0,0.0,0.0
12413,63.0,0.0,60.0,6.0,0.0
12414,63.0,0.0,60.0,4.0,0.0
12415,59.0,0.0,60.0,1.0,0.0
12416,44.0,0.0,30.0,3.0,0.0
12417,44.0,60.0,30.0,5.0,0.0
12418,44.0,0.0,30.0,7.0,0.0
12419,54.0,0.0,60.0,2.0,0.0
12420,58.0,0.0,60.0,1.0,0.0
12421,46.0,0.0,60.0,5.0,0.0
12422,46.0,0.0,60.0,3.0,0.0
12423,46.0,0.0,60.0,7.0,0.0
12424,58.0,0.0,60.0,4.0,0.0
12425,58.0,60.0,60.0,6.0,0.0
12426,58.0,0.0,60.0,0.0,0.0
12427,62.0,0.0,60.0,0.0,0.0
12428,62.0,0.0,60.0,4.0,0.0
12429,34.0,0.0,60.0,7.0,0.0
12430,34.0,0.0,60.0,3.0,0.0
12431,62.0,0.0,60.0,6.0,0.0
12432,53.0,0.0,60.0,2.0,0.0
12433,58.0,0.0,60.0,1.0,0.0
12434,34.0,30.0,60.0,5.0,0.0
12435,54.0,0.0,120.0,2.0,0.0
12436,63.0,30.0,30.0,4.0,0.0
12437,63.0,0.0,120.0,0.0,0.0
12438,63.0,30.0,120.0,6.0,0.0
12439,39.0,30.0,90.0,5.0,0.0
12440,39.0,0.0,120.0,3.0,0.0
12441,58.0,0.0,120.0,1.0,0.0
12442,39.0,0.0,120.0,7.0,0.0
12443,58.0,30.0,30.0,4.0,0.0
12444,60.0,0.0,30.0,4.0,0.0
12445,62.0,0.0,30.0,4.0,0.0
12446,46.0,0.0,30.0,5.0,0.0
12447,63.0,0.0,30.0,4.0,0.0
12448,48.0,30.0,30.0,5.0,0.0
12449,65.0,0.0,30.0,4.0,0.0
12450,50.0,30.0,30.0,5.0,0.0
12451,70.0,21.0,60.0,6.0,0.0
12452,66.0,0.0,30.0,4.0,0.0
12453,51.0,30.0,30.0,5.0,0.0
12454,39.0,0.0,60.0,7.0,0.0
12455,53.0,0.0,30.0,5.0,0.0
12456,68.0,0.0,30.0,4.0,0.0
12457,70.0,20.0,20.0,4.0,0.0
12458,54.0,0.0,60.0,5.0,0.0
12459,70.0,20.0,1080.0,0.0,0.0
12460,51.0,0.0,120.0,3.0,0.0
12461,58.0,0.0,840.0,2.0,0.0
12462,63.0,0.0,240.0,1.0,0.0
12463,51.0,1.0,120.0,7.0,0.0
12464,66.0,1.0,60.0,6.0,0.0
12465,75.0,19.0,20.0,4.0,0.0
12466,77.0,20.0,20.0,4.0,0.0
12467,78.0,20.0,20.0,4.0,0.0
12468,70.0,0.0,60.0,6.0,0.0
12469,51.0,0.0,60.0,5.0,0.0
12470,77.0,19.0,20.0,4.0,0.0
12471,75.0,20.0,20.0,4.0,0.0
12472,54.0,0.0,120.0,7.0,0.0
12473,54.0,0.0,120.0,3.0,0.0
12474,63.0,1.0,60.0,6.0,0.0
12475,54.0,0.0,60.0,5.0,0.0
12476,70.0,20.0,20.0,4.0,0.0
12477,75.0,19.0,20.0,4.0,0.0
12478,77.0,20.0,20.0,4.0,0.0
12479,70.0,0.0,60.0,6.0,0.0
12480,51.0,1.0,60.0,5.0,0.0
12481,78.0,20.0,20.0,4.0,0.0
12482,77.0,19.0,20.0,4.0,0.0
12483,75.0,20.0,20.0,4.0,0.0
12484,58.0,0.0,120.0,3.0,0.0
12485,58.0,0.0,120.0,7.0,0.0
12486,70.0,9.0,20.0,4.0,0.0
12487,62.0,11.0,30.0,6.0,0.0
12488,65.0,0.0,240.0,1.0,0.0
12489,58.0,0.0,120.0,5.0,0.0
12490,74.0,19.0,20.0,4.0,0.0
12491,60.0,1.0,30.0,6.0,0.0
12492,75.0,20.0,20.0,4.0,0.0
12493,62.0,11.0,30.0,6.0,0.0
12494,77.0,9.0,20.0,4.0,0.0
12495,75.0,19.0,20.0,4.0,0.0
12496,60.0,1.0,30.0,6.0,0.0
12497,74.0,20.0,20.0,4.0,0.0
12498,58.0,1.0,60.0,6.0,0.0
12499,70.0,20.0,20.0,4.0,0.0
12500,74.0,19.0,20.0,4.0,0.0
12501,75.0,20.0,20.0,4.0,0.0
12502,56.0,0.0,60.0,3.0,0.0
12503,77.0,20.0,20.0,4.0,0.0
12504,56.0,1.0,60.0,5.0,0.0
12505,75.0,19.0,20.0,4.0,0.0
12506,74.0,20.0,20.0,4.0,0.0
12507,66.0,0.0,240.0,1.0,0.0
12508,70.0,10.0,20.0,4.0,0.0
12509,54.0,1.0,60.0,5.0,0.0
12510,54.0,10.0,30.0,3.0,0.0
12511,75.0,19.0,20.0,4.0,0.0
12512,77.0,20.0,20.0,4.0,0.0
12513,58.0,10.0,30.0,3.0,0.0
12514,58.0,1.0,60.0,5.0,0.0
12515,78.0,10.0,20.0,4.0,0.0
12516,77.0,19.0,20.0,4.0,0.0
12517,75.0,20.0,20.0,4.0,0.0
12518,51.0,1.0,60.0,5.0,0.0
12519,51.0,10.0,30.0,3.0,0.0
12520,70.0,10.0,20.0,4.0,0.0
12521,75.0,19.0,20.0,4.0,0.0
12522,77.0,20.0,20.0,4.0,0.0
12523,58.0,10.0,30.0,3.0,0.0
12524,78.0,10.0,20.0,4.0,0.0
12525,58.0,1.0,60.0,5.0,0.0
12526,77.0,19.0,20.0,4.0,0.0
12527,75.0,20.0,20.0,4.0,0.0
12528,70.0,9.0,20.0,4.0,0.0
12529,50.0,1.0,30.0,3.0,0.0
12530,50.0,10.0,30.0,5.0,0.0
12531,65.0,1.0,180.0,1.0,0.0
12532,74.0,19.0,20.0,4.0,0.0
12533,48.0,1.0,30.0,3.0,0.0
12534,48.0,0.0,30.0,5.0,0.0
12535,75.0,20.0,20.0,4.0,0.0
12536,77.0,9.0,20.0,4.0,0.0
12537,50.0,1.0,30.0,3.0,0.0
12538,50.0,10.0,30.0,5.0,0.0
12539,75.0,19.0,20.0,4.0,0.0
12540,48.0,1.0,30.0,3.0,0.0
12541,48.0,0.0,30.0,5.0,0.0
12542,74.0,20.0,20.0,4.0,0.0
12543,62.0,0.0,120.0,2.0,0.0
12544,46.0,0.0,60.0,5.0,0.0
12545,46.0,0.0,60.0,3.0,0.0
12546,70.0,20.0,20.0,4.0,0.0
12547,74.0,19.0,20.0,4.0,0.0
12548,75.0,20.0,20.0,4.0,0.0
12549,46.0,1.0,60.0,7.0,0.0
12550,65.0,0.0,60.0,6.0,0.0
12551,68.0,0.0,60.0,1.0,0.0
12552,77.0,20.0,20.0,4.0,0.0
12553,75.0,19.0,20.0,4.0,0.0
12554,74.0,20.0,20.0,4.0,0.0
12555,66.0,1.0,240.0,1.0,0.0
12556,70.0,20.0,20.0,4.0,0.0
12557,51.0,1.0,60.0,3.0,0.0
12558,63.0,0.0,240.0,2.0,0.0
12559,66.0,0.0,60.0,6.0,0.0
12560,51.0,1.0,120.0,7.0,0.0
12561,75.0,19.0,20.0,4.0,0.0
12562,77.0,20.0,20.0,4.0,0.0
12563,78.0,20.0,20.0,4.0,0.0
12564,39.0,0.0,60.0,5.0,0.0
12565,70.0,0.0,60.0,6.0,0.0
12566,77.0,19.0,20.0,4.0,0.0
12567,75.0,0.0,20.0,4.0,0.0
12568,71.0,20.0,20.0,4.0,0.0
12569,51.0,0.0,60.0,5.0,0.0
12570,39.0,0.0,60.0,3.0,0.0
12571,71.0,20.0,120.0,0.0,0.0
12572,63.0,1.0,60.0,6.0,0.0
12573,39.0,0.0,120.0,7.0,0.0
12574,75.0,19.0,20.0,4.0,0.0
12575,77.0,20.0,20.0,4.0,0.0
12576,78.0,20.0,20.0,4.0,0.0
12577,47.0,0.0,60.0,5.0,0.0
12578,71.0,11.0,90.0,6.0,0.0
12579,77.0,19.0,20.0,4.0,0.0
12580,75.0,0.0,20.0,4.0,0.0
12581,41.0,1.0,120.0,3.0,0.0
12582,41.0,0.0,120.0,7.0,0.0
12583,73.0,29.0,1200.0,0.0,0.0
12584,71.0,9.0,20.0,4.0,0.0
12585,61.0,1.0,240.0,2.0,0.0
12586,68.0,0.0,240.0,1.0,0.0
12587,53.0,0.0,120.0,5.0,0.0
12588,77.0,19.0,20.0,4.0,0.0
12589,70.0,1.0,30.0,6.0,0.0
12590,78.0,20.0,20.0,4.0,0.0
12591,80.0,9.0,20.0,4.0,0.0
12592,71.0,11.0,30.0,6.0,0.0
12593,78.0,19.0,20.0,4.0,0.0
12594,70.0,0.0,30.0,6.0,0.0
12595,77.0,20.0,20.0,4.0,0.0
12596,68.0,1.0,60.0,6.0,0.0
12597,73.0,20.0,20.0,4.0,0.0
12598,77.0,19.0,20.0,4.0,0.0
12599,78.0,20.0,20.0,4.0,0.0
12600,49.0,0.0,60.0,5.0,0.0
12601,49.0,0.0,60.0,3.0,0.0
12602,80.0,20.0,20.0,4.0,0.0
12603,78.0,19.0,20.0,4.0,0.0
12604,77.0,20.0,20.0,4.0,0.0
12605,70.0,0.0,240.0,1.0,0.0
12606,46.0,10.0,30.0,3.0,0.0
12607,66.0,0.0,240.0,2.0,0.0
12608,46.0,1.0,60.0,5.0,0.0
12609,73.0,10.0,20.0,4.0,0.0
12610,78.0,19.0,20.0,4.0,0.0
12611,80.0,20.0,20.0,4.0,0.0
12612,49.0,10.0,30.0,3.0,0.0
12613,49.0,1.0,60.0,5.0,0.0
12614,82.0,10.0,20.0,4.0,0.0
12615,80.0,19.0,20.0,4.0,0.0
12616,78.0,20.0,20.0,4.0,0.0
12617,42.0,10.0,30.0,3.0,0.0
12618,42.0,1.0,60.0,5.0,0.0
12619,73.0,10.0,20.0,4.0,0.0
12620,78.0,19.0,20.0,4.0,0.0
12621,80.0,20.0,20.0,4.0,0.0
12622,46.0,10.0,30.0,3.0,0.0
12623,46.0,1.0,60.0,5.0,0.0
12624,82.0,10.0,20.0,4.0,0.0
12625,80.0,19.0,20.0,4.0,0.0
12626,78.0,20.0,20.0,4.0,0.0
12627,41.0,11.0,30.0,5.0,0.0
12628,68.0,0.0,120.0,1.0,0.0
12629,73.0,9.0,20.0,4.0,0.0
12630,41.0,0.0,30.0,3.0,0.0
12631,61.0,0.0,180.0,2.0,0.0
12632,77.0,19.0,20.0,4.0,0.0
12633,39.0,0.0,30.0,3.0,0.0
12634,39.0,1.0,30.0,5.0,0.0
12635,78.0,20.0,20.0,4.0,0.0
12636,80.0,9.0,20.0,4.0,0.0
12637,41.0,11.0,30.0,5.0,0.0
12638,41.0,0.0,30.0,3.0,0.0
12639,78.0,19.0,20.0,4.0,0.0
12640,39.0,0.0,30.0,5.0,0.0
12641,39.0,1.0,30.0,3.0,0.0
12642,77.0,20.0,20.0,4.0,0.0
12643,37.0,1.0,60.0,3.0,0.0
12644,65.0,0.0,240.0,1.0,0.0
12645,73.0,20.0,20.0,4.0,0.0
12646,37.0,0.0,60.0,5.0,0.0
12647,77.0,19.0,20.0,4.0,0.0
12648,78.0,20.0,20.0,4.0,0.0
12649,59.0,1.0,60.0,2.0,0.0
12650,68.0,0.0,60.0,6.0,0.0
12651,80.0,20.0,20.0,4.0,0.0
12652,41.0,0.0,60.0,7.0,0.0
12653,78.0,19.0,20.0,4.0,0.0
12654,77.0,29.0,20.0,4.0,0.0
12655,73.0,30.0,60.0,6.0,0.0
12656,58.0,0.0,60.0,2.0,0.0
12657,34.0,0.0,120.0,7.0,0.0
12658,82.0,30.0,30.0,4.0,0.0
12659,73.0,0.0,30.0,4.0,0.0
12660,82.0,1.0,30.0,4.0,0.0
12661,70.0,30.0,60.0,6.0,0.0
12662,46.0,29.0,30.0,3.0,0.0
12663,73.0,0.0,30.0,4.0,0.0
12664,64.0,1.0,30.0,4.0,0.0
12665,46.0,0.0,120.0,7.0,0.0
12666,64.0,0.0,120.0,1.0,0.0
12667,34.0,29.0,30.0,3.0,0.0
12668,73.0,30.0,60.0,6.0,0.0
12669,73.0,0.0,30.0,4.0,0.0
12670,64.0,30.0,30.0,4.0,0.0
12671,58.0,0.0,60.0,2.0,0.0
12672,68.0,30.0,60.0,6.0,0.0
12673,73.0,0.0,30.0,4.0,0.0
12674,63.0,0.0,480.0,1.0,0.0
12675,67.0,0.0,30.0,6.0,0.0
12676,63.0,0.0,60.0,2.0,0.0
12677,82.0,30.0,30.0,4.0,0.0
12678,39.0,0.0,120.0,7.0,0.0
12679,73.0,30.0,30.0,4.0,0.0
12680,65.0,0.0,30.0,6.0,0.0
12681,51.0,29.0,30.0,3.0,0.0
12682,67.0,1.0,30.0,6.0,0.0
12683,82.0,0.0,30.0,4.0,0.0
12684,73.0,0.0,30.0,4.0,0.0
12685,65.0,30.0,30.0,6.0,0.0
12686,63.0,1.0,30.0,4.0,0.0
12687,39.0,29.0,30.0,3.0,0.0
12688,63.0,30.0,60.0,6.0,0.0
12689,73.0,0.0,30.0,4.0,0.0
12690,43.0,1.0,60.0,7.0,0.0
12691,70.0,0.0,60.0,6.0,0.0
12692,63.0,0.0,60.0,2.0,0.0
12693,63.0,30.0,30.0,4.0,0.0
12694,73.0,0.0,30.0,4.0,0.0
12695,32.0,30.0,120.0,7.0,0.0
12696,71.0,19.0,480.0,0.0,0.0
12697,71.0,0.0,60.0,6.0,0.0
12698,56.0,0.0,60.0,2.0,0.0
12699,80.0,30.0,30.0,4.0,0.0
12700,71.0,30.0,30.0,4.0,0.0
12701,68.0,0.0,60.0,6.0,0.0
12702,44.0,29.0,30.0,3.0,0.0
12703,80.0,1.0,30.0,4.0,0.0
12704,71.0,0.0,30.0,4.0,0.0
12705,71.0,30.0,60.0,6.0,0.0
12706,44.0,0.0,120.0,7.0,0.0
12707,63.0,1.0,30.0,4.0,0.0
12708,32.0,29.0,30.0,3.0,0.0
12709,71.0,0.0,30.0,4.0,0.0
12710,63.0,30.0,30.0,4.0,0.0
12711,66.0,0.0,60.0,6.0,0.0
12712,56.0,0.0,60.0,2.0,0.0
12713,71.0,30.0,30.0,4.0,0.0
12714,61.0,0.0,60.0,2.0,0.0
12715,80.0,30.0,30.0,4.0,0.0
12716,65.0,0.0,30.0,6.0,0.0
12717,37.0,0.0,120.0,7.0,0.0
12718,61.0,0.0,240.0,1.0,0.0
12719,71.0,30.0,30.0,4.0,0.0
12720,63.0,0.0,30.0,6.0,0.0
12721,49.0,29.0,30.0,3.0,0.0
12722,65.0,1.0,30.0,6.0,0.0
12723,80.0,0.0,30.0,4.0,0.0
12724,63.0,0.0,30.0,6.0,0.0
12725,71.0,30.0,30.0,4.0,0.0
12726,61.0,30.0,60.0,6.0,0.0
12727,65.0,1.0,30.0,4.0,0.0
12728,37.0,29.0,30.0,3.0,0.0
12729,71.0,0.0,30.0,4.0,0.0
12730,49.0,0.0,60.0,3.0,0.0
12731,65.0,30.0,30.0,4.0,0.0
12732,71.0,1.0,30.0,4.0,0.0
12733,70.0,20.0,20.0,4.0,0.0
12734,54.0,20.0,60.0,3.0,0.0
12735,78.0,20.0,20.0,4.0,0.0
12736,80.0,0.0,20.0,4.0,0.0
12737,82.0,20.0,20.0,4.0,0.0
12738,42.0,31.0,60.0,5.0,0.0
12739,51.0,0.0,60.0,3.0,0.0
12740,80.0,20.0,20.0,4.0,0.0
12741,78.0,0.0,20.0,4.0,0.0
12742,73.0,29.0,30.0,4.0,0.0
12743,46.0,0.0,60.0,5.0,0.0
12744,58.0,0.0,60.0,3.0,0.0
12745,78.0,30.0,30.0,4.0,0.0
12746,42.0,20.0,60.0,5.0,0.0
12747,49.0,0.0,60.0,3.0,0.0
12748,70.0,30.0,30.0,4.0,0.0
12749,78.0,0.0,30.0,4.0,0.0
12750,51.0,20.0,60.0,3.0,0.0
12751,72.0,20.0,20.0,4.0,0.0
12752,78.0,20.0,20.0,4.0,0.0
12753,80.0,0.0,20.0,4.0,0.0
12754,81.0,20.0,20.0,4.0,0.0
12755,39.0,30.0,60.0,5.0,0.0
12756,54.0,0.0,60.0,3.0,0.0
12757,80.0,20.0,20.0,4.0,0.0
12758,78.0,0.0,20.0,4.0,0.0
12759,72.0,30.0,30.0,4.0,0.0
12760,44.0,30.0,60.0,5.0,0.0
12761,51.0,0.0,60.0,3.0,0.0
12762,81.0,0.0,30.0,4.0,0.0
12763,80.0,30.0,30.0,4.0,0.0
12764,48.0,0.0,60.0,3.0,0.0
12765,32.0,0.0,60.0,5.0,0.0
12766,78.0,20.0,30.0,4.0,0.0
12767,49.0,0.0,60.0,3.0,0.0
12768,76.0,20.0,20.0,4.0,0.0
12769,73.0,20.0,20.0,4.0,0.0
12770,75.0,20.0,20.0,4.0,0.0
12771,37.0,0.0,60.0,5.0,0.0
12772,45.0,0.0,60.0,3.0,0.0
12773,76.0,20.0,20.0,4.0,0.0
12774,75.0,20.0,20.0,4.0,0.0
12775,73.0,30.0,20.0,4.0,0.0
12776,42.0,0.0,60.0,5.0,0.0
12777,81.0,30.0,30.0,4.0,0.0
12778,42.0,30.0,60.0,3.0,0.0
12779,72.0,0.0,30.0,4.0,0.0
12780,45.0,30.0,60.0,5.0,0.0
12781,75.0,30.0,30.0,4.0,0.0
12782,39.0,0.0,60.0,3.0,0.0
12783,67.0,0.0,30.0,4.0,0.0
12784,68.0,30.0,30.0,4.0,0.0
12785,44.0,30.0,60.0,3.0,0.0
12786,44.0,0.0,30.0,5.0,0.0
12787,72.0,0.0,30.0,4.0,0.0
12788,48.0,30.0,30.0,5.0,0.0
12789,39.0,0.0,60.0,3.0,0.0
12790,75.0,0.0,30.0,4.0,0.0
12791,51.0,30.0,30.0,5.0,0.0
12792,78.0,0.0,30.0,4.0,0.0
12793,76.0,0.0,90.0,4.0,0.0
12794,32.0,0.0,60.0,3.0,0.0
12795,56.0,30.0,30.0,5.0,0.0
12796,44.0,30.0,30.0,5.0,0.0
12797,46.0,30.0,30.0,5.0,0.0
12798,73.0,0.0,60.0,6.0,0.0
12799,73.0,0.0,60.0,0.0,0.0
12800,75.0,30.0,30.0,4.0,0.0
12801,48.0,0.0,30.0,5.0,0.0
12802,49.0,30.0,60.0,5.0,0.0
12803,68.0,0.0,60.0,6.0,0.0
12804,76.0,30.0,30.0,4.0,0.0
12805,68.0,0.0,60.0,0.0,0.0
12806,78.0,0.0,30.0,4.0,0.0
12807,73.0,0.0,60.0,0.0,0.0
12808,61.0,0.0,120.0,5.0,0.0
12809,73.0,30.0,60.0,6.0,0.0
12810,76.0,30.0,30.0,4.0,0.0
12811,78.0,0.0,30.0,4.0,0.0
12812,75.0,30.0,30.0,4.0,0.0
12813,66.0,30.0,60.0,0.0,0.0
12814,66.0,0.0,60.0,6.0,0.0
12815,76.0,0.0,30.0,4.0,0.0
12816,75.0,30.0,30.0,4.0,0.0
12817,60.0,30.0,60.0,5.0,0.0
12818,73.0,0.0,60.0,0.0,0.0
12819,75.0,0.0,60.0,6.0,0.0
12820,76.0,0.0,30.0,4.0,0.0
12821,64.0,0.0,30.0,6.0,0.0
12822,64.0,30.0,30.0,0.0,0.0
12823,73.0,0.0,60.0,4.0,0.0
12824,61.0,0.0,30.0,5.0,0.0
12825,63.0,30.0,30.0,6.0,0.0
12826,60.0,0.0,30.0,5.0,0.0
12827,63.0,0.0,30.0,0.0,0.0
12828,68.0,0.0,60.0,4.0,0.0
12829,61.0,30.0,30.0,5.0,0.0
12830,64.0,0.0,30.0,0.0,0.0
12831,64.0,0.0,30.0,6.0,0.0
12832,63.0,0.0,30.0,6.0,0.0
12833,56.0,0.0,30.0,5.0,0.0
12834,63.0,30.0,30.0,0.0,0.0
12835,61.0,0.0,60.0,4.0,0.0
12836,61.0,0.0,60.0,6.0,0.0
12837,49.0,30.0,30.0,5.0,0.0
12838,61.0,0.0,60.0,0.0,0.0
12839,51.0,30.0,30.0,5.0,0.0
12840,49.0,30.0,30.0,5.0,0.0
12841,49.0,0.0,60.0,7.0,0.0
12842,76.0,0.0,60.0,0.0,0.0
12843,68.0,0.0,60.0,2.0,0.0
12844,76.0,30.0,60.0,6.0,0.0
12845,49.0,0.0,60.0,3.0,0.0
12846,73.0,0.0,60.0,1.0,0.0
12847,76.0,0.0,60.0,4.0,0.0
12848,51.0,0.0,30.0,5.0,0.0
12849,75.0,0.0,60.0,0.0,0.0
12850,47.0,30.0,30.0,5.0,0.0
12851,75.0,0.0,60.0,4.0,0.0
12852,47.0,0.0,30.0,3.0,0.0
12853,75.0,0.0,60.0,1.0,0.0
12854,47.0,0.0,30.0,7.0,0.0
12855,56.0,0.0,60.0,2.0,0.0
12856,75.0,0.0,60.0,6.0,0.0
12857,49.0,0.0,30.0,3.0,0.0
12858,49.0,30.0,30.0,7.0,0.0
12859,49.0,0.0,30.0,5.0,0.0
12860,80.0,30.0,120.0,4.0,0.0
12861,63.0,30.0,60.0,1.0,0.0
12862,80.0,0.0,120.0,6.0,0.0
12863,80.0,0.0,120.0,0.0,0.0
12864,47.0,0.0,30.0,7.0,0.0
12865,47.0,30.0,30.0,3.0,0.0
12866,56.0,0.0,60.0,2.0,0.0
12867,47.0,0.0,30.0,5.0,0.0
12868,49.0,0.0,30.0,5.0,0.0
12869,49.0,0.0,30.0,7.0,0.0
12870,49.0,0.0,30.0,3.0,0.0
12871,45.0,30.0,30.0,3.0,0.0
12872,64.0,0.0,60.0,1.0,0.0
12873,61.0,0.0,60.0,2.0,0.0
12874,45.0,0.0,30.0,5.0,0.0
12875,45.0,0.0,30.0,7.0,0.0
12876,47.0,0.0,30.0,5.0,0.0
12877,47.0,0.0,30.0,7.0,0.0
12878,47.0,0.0,30.0,3.0,0.0
12879,73.0,0.0,60.0,0.0,0.0
12880,73.0,0.0,60.0,6.0,0.0
12881,45.0,30.0,30.0,5.0,0.0
12882,73.0,0.0,60.0,4.0,0.0
12883,45.0,0.0,30.0,7.0,0.0
12884,66.0,30.0,60.0,1.0,0.0
12885,61.0,0.0,60.0,2.0,0.0
12886,45.0,0.0,30.0,3.0,0.0
12887,47.0,0.0,30.0,7.0,0.0
12888,47.0,0.0,30.0,3.0,0.0
12889,47.0,0.0,30.0,5.0,0.0
12890,72.0,0.0,30.0,0.0,0.0
12891,44.0,0.0,60.0,5.0,0.0
12892,63.0,0.0,60.0,2.0,0.0
12893,68.0,30.0,30.0,1.0,0.0
12894,44.0,0.0,60.0,7.0,0.0
12895,72.0,0.0,30.0,6.0,0.0
12896,72.0,0.0,30.0,4.0,0.0
12897,44.0,0.0,60.0,3.0,0.0
12898,70.0,0.0,30.0,4.0,0.0
12899,70.0,0.0,30.0,0.0,0.0
12900,70.0,0.0,30.0,6.0,0.0
12901,70.0,30.0,30.0,1.0,0.0
12902,39.0,0.0,60.0,5.0,0.0
12903,72.0,30.0,30.0,4.0,0.0
12904,72.0,0.0,30.0,6.0,0.0
12905,68.0,0.0,30.0,1.0,0.0
12906,63.0,0.0,60.0,2.0,0.0
12907,39.0,0.0,60.0,3.0,0.0
12908,72.0,0.0,30.0,0.0,0.0
12909,39.0,30.0,60.0,7.0,0.0
12910,70.0,0.0,30.0,1.0,0.0
12911,70.0,0.0,30.0,6.0,0.0
12912,70.0,0.0,30.0,4.0,0.0
12913,70.0,0.0,30.0,0.0,0.0
12914,68.0,0.0,60.0,6.0,0.0
12915,63.0,0.0,60.0,2.0,0.0
12916,32.0,30.0,30.0,5.0,0.0
12917,68.0,0.0,60.0,0.0,0.0
12918,72.0,0.0,60.0,1.0,0.0
12919,32.0,0.0,60.0,3.0,0.0
12920,68.0,0.0,60.0,4.0,0.0
12921,32.0,0.0,30.0,7.0,0.0
12922,44.0,0.0,30.0,5.0,0.0
12923,44.0,30.0,30.0,7.0,0.0
12924,75.0,0.0,60.0,4.0,0.0
12925,48.0,0.0,60.0,3.0,0.0
12926,68.0,0.0,60.0,1.0,0.0
12927,48.0,30.0,30.0,5.0,0.0
12928,75.0,0.0,60.0,6.0,0.0
12929,63.0,0.0,60.0,2.0,0.0
12930,48.0,0.0,30.0,7.0,0.0
12931,75.0,30.0,60.0,0.0,0.0
12932,44.0,0.0,30.0,7.0,0.0
12933,44.0,0.0,30.0,5.0,0.0
12934,49.0,0.0,30.0,7.0,0.0
12935,49.0,0.0,30.0,5.0,0.0
12936,76.0,0.0,60.0,0.0,0.0
12937,76.0,30.0,30.0,4.0,0.0
12938,49.0,0.0,30.0,3.0,0.0
12939,68.0,0.0,60.0,1.0,0.0
12940,61.0,0.0,60.0,2.0,0.0
12941,76.0,29.0,960.0,6.0,0.0
12942,51.0,0.0,30.0,5.0,0.0
12943,51.0,0.0,30.0,7.0,0.0
12944,51.0,0.0,30.0,3.0,0.0
12945,78.0,30.0,30.0,4.0,0.0
12946,49.0,0.0,30.0,3.0,0.0
12947,73.0,0.0,60.0,0.0,0.0
12948,49.0,30.0,30.0,7.0,0.0
12949,49.0,0.0,30.0,5.0,0.0
12950,76.0,0.0,30.0,4.0,0.0
12951,51.0,0.0,30.0,7.0,0.0
12952,51.0,0.0,30.0,5.0,0.0
12953,51.0,0.0,30.0,3.0,0.0
12954,78.0,30.0,30.0,4.0,0.0
12955,71.0,0.0,60.0,1.0,0.0
12956,68.0,30.0,60.0,0.0,0.0
12957,47.0,0.0,30.0,7.0,0.0
12958,75.0,0.0,30.0,4.0,0.0
12959,47.0,30.0,30.0,3.0,0.0
12960,68.0,0.0,60.0,2.0,0.0
12961,47.0,0.0,30.0,5.0,0.0
12962,76.0,0.0,30.0,4.0,0.0
12963,49.0,0.0,30.0,3.0,0.0
12964,49.0,0.0,30.0,7.0,0.0
12965,49.0,0.0,30.0,5.0,0.0
12966,75.0,0.0,60.0,0.0,0.0
12967,47.0,0.0,30.0,3.0,0.0
12968,47.0,0.0,30.0,5.0,0.0
12969,47.0,30.0,30.0,7.0,0.0
12970,75.0,0.0,30.0,4.0,0.0
12971,49.0,30.0,30.0,3.0,0.0
12972,49.0,0.0,30.0,7.0,0.0
12973,49.0,0.0,30.0,5.0,0.0
12974,76.0,0.0,30.0,4.0,0.0
12975,76.0,0.0,60.0,0.0,0.0
12976,46.0,0.0,30.0,7.0,0.0
12977,46.0,30.0,30.0,5.0,0.0
12978,73.0,0.0,30.0,4.0,0.0
12979,73.0,0.0,60.0,1.0,0.0
12980,61.0,0.0,60.0,2.0,0.0
12981,46.0,0.0,30.0,3.0,0.0
12982,47.0,0.0,30.0,5.0,0.0
12983,75.0,30.0,30.0,4.0,0.0
12984,47.0,0.0,30.0,7.0,0.0
12985,47.0,0.0,30.0,3.0,0.0
12986,46.0,0.0,30.0,3.0,0.0
12987,73.0,0.0,60.0,0.0,0.0
12988,46.0,0.0,30.0,7.0,0.0
12989,73.0,30.0,30.0,4.0,0.0
12990,46.0,0.0,30.0,5.0,0.0
12991,47.0,0.0,30.0,5.0,0.0
12992,75.0,0.0,30.0,4.0,0.0
12993,47.0,30.0,30.0,7.0,0.0
12994,47.0,0.0,30.0,3.0,0.0
12995,44.0,30.0,30.0,3.0,0.0
12996,44.0,0.0,30.0,5.0,0.0
12997,64.0,0.0,60.0,0.0,0.0
12998,44.0,0.0,30.0,7.0,0.0
12999,71.0,0.0,30.0,4.0,0.0
13000,46.0,0.0,30.0,5.0,0.0
13001,73.0,0.0,30.0,4.0,0.0
13002,46.0,0.0,30.0,3.0,0.0
13003,46.0,30.0,30.0,7.0,0.0
13004,44.0,30.0,30.0,7.0,0.0
13005,44.0,0.0,30.0,3.0,0.0
13006,75.0,0.0,60.0,0.0,0.0
13007,59.0,0.0,60.0,1.0,0.0
13008,71.0,0.0,30.0,4.0,0.0
13009,44.0,0.0,30.0,5.0,0.0
13010,59.0,0.0,60.0,2.0,0.0
13011,46.0,0.0,30.0,3.0,0.0
13012,46.0,0.0,30.0,7.0,0.0
13013,46.0,0.0,30.0,5.0,0.0
13014,73.0,30.0,30.0,4.0,0.0
13015,54.0,30.0,30.0,3.0,0.0
13016,42.0,0.0,60.0,5.0,0.0
13017,42.0,30.0,60.0,7.0,0.0
13018,66.0,0.0,30.0,1.0,0.0
13019,76.0,0.0,60.0,0.0,0.0
13020,70.0,0.0,30.0,4.0,0.0
13021,66.0,0.0,30.0,2.0,0.0
13022,68.0,0.0,30.0,2.0,0.0
13023,71.0,0.0,30.0,4.0,0.0
13024,56.0,0.0,30.0,3.0,0.0
13025,68.0,0.0,30.0,1.0,0.0
13026,70.0,0.0,30.0,4.0,0.0
13027,54.0,30.0,30.0,3.0,0.0
13028,66.0,0.0,30.0,1.0,0.0
13029,66.0,0.0,30.0,2.0,0.0
13030,73.0,0.0,60.0,0.0,0.0
13031,68.0,0.0,30.0,1.0,0.0
13032,71.0,30.0,30.0,4.0,0.0
13033,56.0,0.0,30.0,3.0,0.0
13034,68.0,0.0,30.0,2.0,0.0
13035,52.0,30.0,30.0,3.0,0.0
13036,73.0,0.0,30.0,4.0,0.0
13037,66.0,0.0,60.0,0.0,0.0
13038,64.0,0.0,30.0,1.0,0.0
13039,64.0,0.0,30.0,2.0,0.0
13040,40.0,0.0,60.0,7.0,0.0
13041,40.0,0.0,60.0,5.0,0.0
13042,54.0,0.0,30.0,3.0,0.0
13043,66.0,0.0,30.0,2.0,0.0
13044,75.0,30.0,30.0,4.0,0.0
13045,66.0,0.0,30.0,1.0,0.0
13046,64.0,0.0,30.0,1.0,0.0
13047,64.0,0.0,30.0,2.0,0.0
13048,73.0,30.0,30.0,4.0,0.0
13049,73.0,0.0,60.0,0.0,0.0
13050,52.0,0.0,30.0,3.0,0.0
13051,66.0,0.0,30.0,2.0,0.0
13052,54.0,30.0,30.0,3.0,0.0
13053,75.0,0.0,30.0,4.0,0.0
13054,66.0,0.0,30.0,1.0,0.0
13055,63.0,30.0,30.0,1.0,0.0
13056,39.0,0.0,60.0,5.0,0.0
13057,76.0,0.0,60.0,0.0,0.0
13058,39.0,30.0,60.0,7.0,0.0
13059,66.0,0.0,30.0,4.0,0.0
13060,51.0,0.0,30.0,3.0,0.0
13061,63.0,0.0,30.0,2.0,0.0
13062,68.0,0.0,30.0,4.0,0.0
13063,64.0,0.0,30.0,2.0,0.0
13064,64.0,0.0,30.0,1.0,0.0
13065,52.0,0.0,30.0,3.0,0.0
13066,73.0,0.0,60.0,0.0,0.0
13067,66.0,30.0,30.0,4.0,0.0
13068,63.0,0.0,30.0,2.0,0.0
13069,63.0,0.0,30.0,1.0,0.0
13070,51.0,0.0,30.0,3.0,0.0
13071,64.0,0.0,30.0,1.0,0.0
13072,68.0,0.0,30.0,4.0,0.0
13073,64.0,30.0,30.0,2.0,0.0
13074,52.0,0.0,30.0,3.0,0.0
13075,61.0,30.0,30.0,1.0,0.0
13076,37.0,0.0,60.0,7.0,0.0
13077,37.0,0.0,60.0,5.0,0.0
13078,61.0,0.0,30.0,2.0,0.0
13079,49.0,0.0,30.0,3.0,0.0
13080,70.0,30.0,60.0,4.0,0.0
13081,70.0,0.0,60.0,0.0,0.0
13082,63.0,0.0,30.0,2.0,0.0
13083,51.0,0.0,30.0,3.0,0.0
13084,63.0,0.0,30.0,1.0,0.0
13085,61.0,0.0,30.0,2.0,0.0
13086,49.0,30.0,30.0,3.0,0.0
13087,66.0,1.0,60.0,4.0,0.0
13088,73.0,0.0,60.0,0.0,0.0
13089,61.0,0.0,30.0,1.0,0.0
13090,63.0,0.0,30.0,1.0,0.0
13091,63.0,0.0,30.0,2.0,0.0
13092,51.0,0.0,30.0,3.0,0.0
13093,75.0,0.0,30.0,6.0,0.0
13094,47.0,30.0,30.0,7.0,0.0
13095,59.0,0.0,60.0,2.0,0.0
13096,75.0,0.0,60.0,0.0,0.0
13097,75.0,29.0,960.0,4.0,0.0
13098,59.0,30.0,60.0,1.0,0.0
13099,47.0,0.0,30.0,3.0,0.0
13100,47.0,0.0,30.0,5.0,0.0
13101,49.0,0.0,30.0,7.0,0.0
13102,49.0,0.0,30.0,5.0,0.0
13103,76.0,0.0,30.0,6.0,0.0
13104,49.0,0.0,30.0,3.0,0.0
13105,47.0,0.0,30.0,3.0,0.0
13106,47.0,0.0,30.0,7.0,0.0
13107,75.0,0.0,30.0,6.0,0.0
13108,47.0,30.0,30.0,5.0,0.0
13109,71.0,0.0,60.0,0.0,0.0
13110,76.0,0.0,30.0,6.0,0.0
13111,49.0,0.0,30.0,5.0,0.0
13112,49.0,30.0,30.0,7.0,0.0
13113,49.0,0.0,30.0,3.0,0.0
13114,46.0,0.0,30.0,7.0,0.0
13115,46.0,0.0,30.0,3.0,0.0
13116,66.0,0.0,60.0,0.0,0.0
13117,66.0,0.0,60.0,1.0,0.0
13118,46.0,0.0,30.0,5.0,0.0
13119,54.0,0.0,60.0,2.0,0.0
13120,73.0,30.0,30.0,6.0,0.0
13121,47.0,0.0,30.0,5.0,0.0
13122,75.0,30.0,30.0,6.0,0.0
13123,47.0,0.0,30.0,3.0,0.0
13124,47.0,0.0,30.0,7.0,0.0
13125,46.0,0.0,30.0,3.0,0.0
13126,46.0,0.0,30.0,5.0,0.0
13127,73.0,0.0,60.0,0.0,0.0
13128,73.0,30.0,30.0,6.0,0.0
13129,46.0,0.0,30.0,7.0,0.0
13130,47.0,0.0,30.0,3.0,0.0
13131,47.0,30.0,30.0,5.0,0.0
13132,47.0,0.0,30.0,7.0,0.0
13133,75.0,0.0,30.0,6.0,0.0
13134,44.0,0.0,30.0,3.0,0.0
13135,44.0,30.0,30.0,5.0,0.0
13136,47.0,0.0,60.0,2.0,0.0
13137,75.0,0.0,60.0,0.0,0.0
13138,44.0,0.0,30.0,7.0,0.0
13139,71.0,0.0,30.0,6.0,0.0
13140,71.0,30.0,60.0,1.0,0.0
13141,46.0,0.0,30.0,5.0,0.0
13142,46.0,0.0,30.0,3.0,0.0
13143,73.0,0.0,30.0,6.0,0.0
13144,46.0,0.0,30.0,7.0,0.0
13145,44.0,0.0,30.0,5.0,0.0
13146,71.0,0.0,60.0,0.0,0.0
13147,44.0,30.0,30.0,7.0,0.0
13148,71.0,0.0,30.0,6.0,0.0
13149,44.0,0.0,30.0,3.0,0.0
13150,46.0,0.0,30.0,3.0,0.0
13151,46.0,0.0,30.0,7.0,0.0
13152,73.0,0.0,30.0,6.0,0.0
13153,46.0,30.0,30.0,5.0,0.0
13154,70.0,0.0,30.0,6.0,0.0
13155,42.0,30.0,30.0,7.0,0.0
13156,42.0,0.0,30.0,5.0,0.0
13157,42.0,0.0,30.0,3.0,0.0
13158,63.0,30.0,60.0,0.0,0.0
13159,44.0,0.0,30.0,5.0,0.0
13160,71.0,0.0,30.0,6.0,0.0
13161,44.0,0.0,30.0,3.0,0.0
13162,44.0,0.0,30.0,7.0,0.0
13163,42.0,0.0,30.0,7.0,0.0
13164,58.0,0.0,60.0,1.0,0.0
13165,42.0,0.0,30.0,3.0,0.0
13166,70.0,30.0,30.0,6.0,0.0
13167,42.0,0.0,30.0,5.0,0.0
13168,73.0,0.0,60.0,0.0,0.0
13169,58.0,0.0,60.0,2.0,0.0
13170,44.0,30.0,30.0,7.0,0.0
13171,44.0,0.0,30.0,5.0,0.0
13172,44.0,0.0,30.0,3.0,0.0
13173,71.0,0.0,30.0,6.0,0.0
13174,75.0,0.0,60.0,0.0,0.0
13175,64.0,0.0,30.0,1.0,0.0
13176,68.0,0.0,30.0,6.0,0.0
13177,64.0,0.0,30.0,2.0,0.0
13178,40.0,0.0,60.0,7.0,0.0
13179,40.0,0.0,60.0,5.0,0.0
13180,52.0,30.0,30.0,3.0,0.0
13181,66.0,30.0,30.0,2.0,0.0
13182,70.0,0.0,30.0,6.0,0.0
13183,54.0,0.0,30.0,3.0,0.0
13184,66.0,0.0,30.0,1.0,0.0
13185,71.0,0.0,60.0,0.0,0.0
13186,64.0,0.0,30.0,1.0,0.0
13187,52.0,0.0,30.0,3.0,0.0
13188,68.0,30.0,30.0,6.0,0.0
13189,64.0,0.0,30.0,2.0,0.0
13190,66.0,0.0,30.0,2.0,0.0
13191,70.0,0.0,30.0,6.0,0.0
13192,66.0,30.0,30.0,1.0,0.0
13193,54.0,0.0,30.0,3.0,0.0
13194,51.0,0.0,30.0,3.0,0.0
13195,71.0,30.0,30.0,6.0,0.0
13196,39.0,0.0,60.0,7.0,0.0
13197,64.0,0.0,60.0,0.0,0.0
13198,63.0,0.0,30.0,2.0,0.0
13199,63.0,0.0,30.0,1.0,0.0
13200,39.0,30.0,60.0,5.0,0.0
13201,64.0,0.0,30.0,2.0,0.0
13202,52.0,0.0,30.0,3.0,0.0
13203,64.0,0.0,30.0,1.0,0.0
13204,73.0,0.0,30.0,6.0,0.0
13205,63.0,0.0,30.0,2.0,0.0
13206,71.0,30.0,30.0,6.0,0.0
13207,51.0,0.0,30.0,3.0,0.0
13208,71.0,0.0,60.0,0.0,0.0
13209,63.0,0.0,30.0,1.0,0.0
13210,73.0,0.0,30.0,6.0,0.0
13211,64.0,0.0,30.0,1.0,0.0
13212,52.0,30.0,30.0,3.0,0.0
13213,64.0,0.0,30.0,2.0,0.0
13214,64.0,30.0,30.0,6.0,0.0
13215,61.0,0.0,30.0,2.0,0.0
13216,37.0,0.0,60.0,7.0,0.0
13217,49.0,0.0,30.0,3.0,0.0
13218,61.0,0.0,30.0,1.0,0.0
13219,75.0,0.0,60.0,0.0,0.0
13220,37.0,0.0,60.0,5.0,0.0
13221,63.0,0.0,30.0,1.0,0.0
13222,66.0,0.0,30.0,6.0,0.0
13223,63.0,30.0,30.0,2.0,0.0
13224,51.0,0.0,30.0,3.0,0.0
13225,61.0,0.0,30.0,2.0,0.0
13226,64.0,0.0,30.0,6.0,0.0
13227,49.0,30.0,30.0,3.0,0.0
13228,71.0,0.0,60.0,0.0,0.0
13229,61.0,0.0,30.0,1.0,0.0
13230,51.0,0.0,30.0,3.0,0.0
13231,66.0,0.0,30.0,6.0,0.0
13232,63.0,0.0,30.0,2.0,0.0
13233,63.0,30.0,30.0,1.0,0.0
13234,59.0,0.0,30.0,2.0,0.0
13235,68.0,0.0,60.0,6.0,0.0
13236,35.0,0.0,60.0,7.0,0.0
13237,68.0,0.0,60.0,0.0,0.0
13238,47.0,30.0,30.0,3.0,0.0
13239,35.0,0.0,60.0,5.0,0.0
13240,59.0,0.0,30.0,1.0,0.0
13241,61.0,0.0,30.0,2.0,0.0
13242,61.0,0.0,30.0,1.0,0.0
13243,49.0,30.0,30.0,3.0,0.0
13244,64.0,0.0,60.0,6.0,0.0
13245,47.0,30.0,30.0,3.0,0.0
13246,59.0,0.0,30.0,2.0,0.0
13247,59.0,0.0,30.0,1.0,0.0
13248,71.0,0.0,60.0,0.0,0.0
13249,49.0,0.0,30.0,3.0,0.0
13250,61.0,0.0,30.0,1.0,0.0
13251,61.0,1.0,30.0,2.0,0.0
13252,73.0,29.0,960.0,6.0,0.0
13253,73.0,0.0,30.0,4.0,0.0
13254,58.0,0.0,60.0,2.0,0.0
13255,46.0,0.0,30.0,3.0,0.0
13256,58.0,0.0,60.0,1.0,0.0
13257,46.0,0.0,30.0,5.0,0.0
13258,73.0,0.0,60.0,0.0,0.0
13259,46.0,30.0,30.0,7.0,0.0
13260,75.0,0.0,30.0,4.0,0.0
13261,47.0,30.0,30.0,5.0,0.0
13262,47.0,0.0,30.0,7.0,0.0
13263,47.0,0.0,30.0,3.0,0.0
13264,70.0,30.0,60.0,0.0,0.0
13265,73.0,0.0,30.0,4.0,0.0
13266,46.0,0.0,30.0,3.0,0.0
13267,46.0,0.0,30.0,5.0,0.0
13268,46.0,30.0,30.0,7.0,0.0
13269,47.0,0.0,30.0,7.0,0.0
13270,75.0,0.0,30.0,4.0,0.0
13271,47.0,0.0,30.0,5.0,0.0
13272,47.0,0.0,30.0,3.0,0.0
13273,44.0,0.0,30.0,5.0,0.0
13274,44.0,0.0,30.0,3.0,0.0
13275,71.0,30.0,30.0,4.0,0.0
13276,64.0,0.0,60.0,2.0,0.0
13277,44.0,0.0,30.0,7.0,0.0
13278,64.0,0.0,60.0,0.0,0.0
13279,61.0,0.0,60.0,1.0,0.0
13280,46.0,0.0,30.0,3.0,0.0
13281,46.0,0.0,30.0,5.0,0.0
13282,73.0,0.0,30.0,4.0,0.0
13283,46.0,30.0,30.0,7.0,0.0
13284,44.0,0.0,30.0,5.0,0.0
13285,71.0,0.0,60.0,0.0,0.0
13286,44.0,0.0,30.0,3.0,0.0
13287,44.0,0.0,30.0,7.0,0.0
13288,71.0,30.0,30.0,4.0,0.0
13289,46.0,0.0,30.0,3.0,0.0
13290,46.0,30.0,30.0,7.0,0.0
13291,73.0,0.0,30.0,4.0,0.0
13292,46.0,0.0,30.0,5.0,0.0
13293,43.0,30.0,30.0,3.0,0.0
13294,58.0,30.0,60.0,2.0,0.0
13295,43.0,0.0,30.0,7.0,0.0
13296,63.0,0.0,60.0,1.0,0.0
13297,70.0,0.0,30.0,4.0,0.0
13298,43.0,0.0,30.0,5.0,0.0
13299,73.0,0.0,60.0,0.0,0.0
13300,44.0,0.0,30.0,7.0,0.0
13301,44.0,0.0,30.0,3.0,0.0
13302,71.0,0.0,30.0,4.0,0.0
13303,44.0,0.0,30.0,5.0,0.0
13304,43.0,0.0,30.0,7.0,0.0
13305,70.0,0.0,60.0,0.0,0.0
13306,43.0,0.0,30.0,5.0,0.0
13307,43.0,30.0,30.0,3.0,0.0
13308,70.0,0.0,30.0,4.0,0.0
13309,71.0,0.0,30.0,4.0,0.0
13310,44.0,0.0,30.0,5.0,0.0
13311,44.0,0.0,30.0,7.0,0.0
13312,44.0,30.0,30.0,3.0,0.0
13313,61.0,0.0,60.0,0.0,0.0
13314,41.0,0.0,30.0,5.0,0.0
13315,41.0,30.0,30.0,7.0,0.0
13316,68.0,0.0,30.0,4.0,0.0
13317,41.0,0.0,30.0,3.0,0.0
13318,43.0,0.0,30.0,5.0,0.0
13319,43.0,0.0,30.0,3.0,0.0
13320,43.0,30.0,30.0,7.0,0.0
13321,70.0,0.0,30.0,4.0,0.0
13322,56.0,0.0,60.0,2.0,0.0
13323,41.0,0.0,30.0,3.0,0.0
13324,68.0,0.0,30.0,4.0,0.0
13325,41.0,30.0,30.0,7.0,0.0
13326,41.0,0.0,30.0,5.0,0.0
13327,71.0,0.0,60.0,0.0,0.0
13328,56.0,30.0,60.0,1.0,0.0
13329,43.0,0.0,30.0,5.0,0.0
13330,70.0,0.0,30.0,4.0,0.0
13331,43.0,0.0,30.0,3.0,0.0
13332,43.0,0.0,30.0,7.0,0.0
13333,51.0,0.0,30.0,3.0,0.0
13334,67.0,0.0,30.0,4.0,0.0
13335,63.0,30.0,30.0,1.0,0.0
13336,63.0,0.0,30.0,2.0,0.0
13337,39.0,0.0,60.0,7.0,0.0
13338,73.0,0.0,60.0,0.0,0.0
13339,39.0,0.0,60.0,5.0,0.0
13340,52.0,0.0,30.0,3.0,0.0
13341,68.0,30.0,30.0,4.0,0.0
13342,64.0,0.0,30.0,1.0,0.0
13343,64.0,0.0,30.0,2.0,0.0
13344,63.0,0.0,30.0,2.0,0.0
13345,67.0,0.0,30.0,4.0,0.0
13346,70.0,0.0,60.0,0.0,0.0
13347,63.0,0.0,30.0,1.0,0.0
13348,51.0,30.0,30.0,3.0,0.0
13349,64.0,0.0,30.0,1.0,0.0
13350,52.0,0.0,30.0,3.0,0.0
13351,68.0,0.0,30.0,4.0,0.0
13352,64.0,30.0,30.0,2.0,0.0
13353,49.0,0.0,30.0,3.0,0.0
13354,37.0,0.0,60.0,5.0,0.0
13355,37.0,0.0,60.0,7.0,0.0
13356,70.0,30.0,30.0,4.0,0.0
13357,63.0,30.0,60.0,0.0,0.0
13358,61.0,0.0,30.0,1.0,0.0
13359,61.0,0.0,30.0,2.0,0.0
13360,63.0,0.0,30.0,1.0,0.0
13361,63.0,0.0,30.0,2.0,0.0
13362,71.0,0.0,30.0,4.0,0.0
13363,51.0,0.0,30.0,3.0,0.0
13364,61.0,0.0,30.0,1.0,0.0
13365,61.0,0.0,30.0,2.0,0.0
13366,49.0,30.0,30.0,3.0,0.0
13367,70.0,0.0,30.0,4.0,0.0
13368,70.0,30.0,60.0,0.0,0.0
13369,63.0,0.0,30.0,2.0,0.0
13370,63.0,0.0,30.0,1.0,0.0
13371,51.0,0.0,30.0,3.0,0.0
13372,71.0,0.0,30.0,4.0,0.0
13373,73.0,0.0,60.0,0.0,0.0
13374,59.0,30.0,30.0,1.0,0.0
13375,35.0,0.0,60.0,7.0,0.0
13376,59.0,0.0,30.0,2.0,0.0
13377,47.0,0.0,30.0,3.0,0.0
13378,35.0,0.0,60.0,5.0,0.0
13379,63.0,0.0,30.0,4.0,0.0
13380,61.0,0.0,30.0,2.0,0.0
13381,61.0,0.0,30.0,1.0,0.0
13382,65.0,30.0,30.0,4.0,0.0
13383,49.0,0.0,30.0,3.0,0.0
13384,63.0,0.0,30.0,4.0,0.0
13385,47.0,0.0,30.0,3.0,0.0
13386,70.0,30.0,60.0,0.0,0.0
13387,59.0,0.0,30.0,1.0,0.0
13388,59.0,30.0,30.0,2.0,0.0
13389,49.0,0.0,30.0,3.0,0.0
13390,65.0,0.0,30.0,4.0,0.0
13391,61.0,0.0,30.0,1.0,0.0
13392,61.0,0.0,30.0,2.0,0.0
13393,58.0,30.0,30.0,2.0,0.0
13394,46.0,0.0,30.0,3.0,0.0
13395,34.0,30.0,60.0,7.0,0.0
13396,34.0,0.0,60.0,5.0,0.0
13397,67.0,0.0,60.0,4.0,0.0
13398,58.0,0.0,30.0,1.0,0.0
13399,67.0,0.0,60.0,0.0,0.0
13400,47.0,0.0,30.0,3.0,0.0
13401,59.0,0.0,30.0,1.0,0.0
13402,59.0,0.0,30.0,2.0,0.0
13403,46.0,0.0,30.0,3.0,0.0
13404,58.0,0.0,30.0,1.0,0.0
13405,70.0,0.0,60.0,4.0,0.0
13406,58.0,30.0,30.0,2.0,0.0
13407,70.0,0.0,60.0,0.0,0.0
13408,47.0,1.0,30.0,3.0,0.0
13409,59.0,0.0,30.0,2.0,0.0
13410,59.0,0.0,30.0,1.0,0.0
13411,44.0,0.0,60.0,3.0,0.0
13412,71.0,0.0,60.0,0.0,0.0
13413,56.0,0.0,60.0,1.0,0.0
13414,71.0,30.0,30.0,6.0,0.0
13415,63.0,0.0,60.0,4.0,0.0
13416,32.0,0.0,60.0,5.0,0.0
13417,32.0,30.0,60.0,7.0,0.0
13418,56.0,0.0,60.0,2.0,0.0
13419,73.0,0.0,30.0,6.0,0.0
13420,68.0,0.0,60.0,4.0,0.0
13421,71.0,30.0,30.0,6.0,0.0
13422,56.0,30.0,120.0,7.0,0.0
13423,73.0,30.0,30.0,6.0,0.0
13424,61.0,0.0,60.0,4.0,0.0
13425,70.0,30.0,30.0,6.0,0.0
13426,71.0,0.0,30.0,6.0,0.0
13427,55.0,0.0,60.0,7.0,0.0
13428,70.0,30.0,30.0,6.0,0.0
13429,70.0,30.0,60.0,4.0,0.0
13430,71.0,0.0,30.0,6.0,0.0
13431,56.0,30.0,30.0,7.0,0.0
13432,68.0,0.0,60.0,6.0,0.0
13433,59.0,0.0,30.0,4.0,0.0
13434,58.0,0.0,30.0,4.0,0.0
13435,51.0,30.0,30.0,7.0,0.0
13436,63.0,0.0,60.0,6.0,0.0
13437,59.0,0.0,30.0,4.0,0.0
13438,47.0,30.0,30.0,7.0,0.0
13439,44.0,0.0,30.0,5.0,0.0
13440,58.0,0.0,30.0,4.0,0.0
13441,43.0,0.0,30.0,5.0,0.0
13442,51.0,30.0,30.0,7.0,0.0
13443,44.0,0.0,30.0,5.0,0.0
13444,59.0,0.0,60.0,6.0,0.0
13445,44.0,30.0,30.0,7.0,0.0
13446,56.0,0.0,180.0,4.0,0.0
13447,46.0,30.0,30.0,7.0,0.0
13448,46.0,0.0,30.0,5.0,0.0
13449,68.0,0.0,60.0,0.0,0.0
13450,44.0,0.0,30.0,3.0,0.0
13451,59.0,0.0,30.0,2.0,0.0
13452,63.0,30.0,30.0,1.0,0.0
13453,68.0,30.0,60.0,6.0,0.0
13454,44.0,0.0,30.0,7.0,0.0
13455,44.0,0.0,30.0,5.0,0.0
13456,61.0,0.0,30.0,1.0,0.0
13457,46.0,0.0,30.0,3.0,0.0
13458,46.0,0.0,30.0,7.0,0.0
13459,61.0,0.0,30.0,2.0,0.0
13460,46.0,0.0,30.0,5.0,0.0
13461,47.0,0.0,60.0,3.0,0.0
13462,47.0,0.0,30.0,7.0,0.0
13463,63.0,0.0,30.0,1.0,0.0
13464,63.0,0.0,60.0,0.0,0.0
13465,59.0,30.0,30.0,2.0,0.0
13466,63.0,0.0,60.0,6.0,0.0
13467,47.0,0.0,30.0,5.0,0.0
13468,61.0,30.0,30.0,2.0,0.0
13469,46.0,0.0,30.0,7.0,0.0
13470,64.0,0.0,30.0,1.0,0.0
13471,46.0,0.0,30.0,5.0,0.0
13472,63.0,30.0,30.0,1.0,0.0
13473,68.0,0.0,60.0,0.0,0.0
13474,68.0,0.0,60.0,6.0,0.0
13475,59.0,0.0,30.0,2.0,0.0
13476,47.0,0.0,30.0,7.0,0.0
13477,47.0,0.0,30.0,5.0,0.0
13478,44.0,0.0,60.0,3.0,0.0
13479,68.0,0.0,120.0,4.0,0.0
13480,61.0,0.0,30.0,2.0,0.0
13481,44.0,0.0,30.0,7.0,0.0
13482,44.0,30.0,30.0,5.0,0.0
13483,64.0,0.0,30.0,1.0,0.0
13484,61.0,0.0,60.0,6.0,0.0
13485,51.0,30.0,60.0,3.0,0.0
13486,51.0,0.0,30.0,7.0,0.0
13487,51.0,0.0,30.0,5.0,0.0
13488,61.0,0.0,30.0,1.0,0.0
13489,61.0,0.0,60.0,0.0,0.0
13490,58.0,30.0,30.0,2.0,0.0
13491,49.0,0.0,30.0,7.0,0.0
13492,63.0,0.0,30.0,1.0,0.0
13493,49.0,0.0,30.0,5.0,0.0
13494,59.0,0.0,30.0,2.0,0.0
13495,51.0,0.0,30.0,7.0,0.0
13496,61.0,30.0,30.0,1.0,0.0
13497,70.0,0.0,60.0,0.0,0.0
13498,67.0,0.0,60.0,4.0,0.0
13499,51.0,0.0,30.0,5.0,0.0
13500,58.0,0.0,30.0,2.0,0.0
13501,70.0,0.0,60.0,6.0,0.0
13502,39.0,0.0,60.0,3.0,0.0
13503,39.0,0.0,30.0,5.0,0.0
13504,59.0,0.0,30.0,2.0,0.0
13505,39.0,30.0,30.0,7.0,0.0
13506,63.0,0.0,30.0,1.0,0.0
13507,59.0,0.0,30.0,1.0,0.0
13508,68.0,30.0,30.0,4.0,0.0
13509,59.0,0.0,30.0,6.0,0.0
13510,59.0,0.0,30.0,0.0,0.0
13511,44.0,0.0,60.0,7.0,0.0
13512,44.0,0.0,60.0,5.0,0.0
13513,56.0,0.0,30.0,2.0,0.0
13514,44.0,30.0,60.0,3.0,0.0
13515,58.0,0.0,30.0,6.0,0.0
13516,58.0,0.0,30.0,0.0,0.0
13517,61.0,0.0,30.0,1.0,0.0
13518,70.0,0.0,30.0,4.0,0.0
13519,55.0,0.0,30.0,2.0,0.0
13520,68.0,0.0,30.0,4.0,0.0
13521,59.0,0.0,30.0,1.0,0.0
13522,39.0,0.0,60.0,7.0,0.0
13523,39.0,0.0,60.0,5.0,0.0
13524,59.0,30.0,30.0,0.0,0.0
13525,59.0,0.0,30.0,6.0,0.0
13526,56.0,0.0,30.0,2.0,0.0
13527,39.0,0.0,60.0,3.0,0.0
13528,58.0,30.0,30.0,0.0,0.0
13529,55.0,0.0,30.0,2.0,0.0
13530,58.0,0.0,30.0,6.0,0.0
13531,61.0,0.0,30.0,1.0,0.0
13532,70.0,0.0,30.0,4.0,0.0
13533,71.0,0.0,60.0,4.0,0.0
13534,63.0,0.0,60.0,1.0,0.0
13535,56.0,0.0,60.0,0.0,0.0
13536,32.0,0.0,60.0,5.0,0.0
13537,32.0,0.0,60.0,7.0,0.0
13538,56.0,30.0,30.0,6.0,0.0
13539,56.0,0.0,60.0,2.0,0.0
13540,32.0,0.0,60.0,3.0,0.0
13541,58.0,30.0,30.0,6.0,0.0
13542,44.0,0.0,30.0,7.0,0.0
13543,70.0,0.0,30.0,4.0,0.0
13544,59.0,30.0,30.0,6.0,0.0
13545,68.0,30.0,30.0,4.0,0.0
13546,46.0,0.0,30.0,7.0,0.0
13547,61.0,0.0,30.0,6.0,0.0
13548,47.0,30.0,30.0,7.0,0.0
13549,66.0,0.0,60.0,4.0,0.0
13550,63.0,0.0,30.0,6.0,0.0
13551,64.0,0.0,30.0,6.0,0.0
13552,46.0,30.0,30.0,7.0,0.0
13553,71.0,0.0,60.0,4.0,0.0
13554,47.0,0.0,120.0,7.0,0.0
13555,63.0,30.0,30.0,6.0,0.0
13556,64.0,30.0,30.0,6.0,0.0
13557,64.0,30.0,60.0,4.0,0.0
13558,61.0,30.0,30.0,6.0,0.0
13559,63.0,0.0,30.0,6.0,0.0
13560,73.0,0.0,60.0,4.0,0.0
13561,61.0,30.0,30.0,6.0,0.0
13562,46.0,30.0,60.0,7.0,0.0
13563,63.0,0.0,30.0,6.0,0.0
13564,59.0,30.0,60.0,6.0,0.0
13565,63.0,30.0,30.0,4.0,0.0
13566,47.0,0.0,30.0,7.0,0.0
13567,61.0,0.0,30.0,4.0,0.0
13568,42.0,0.0,30.0,7.0,0.0
13569,63.0,0.0,30.0,4.0,0.0
13570,39.0,0.0,30.0,7.0,0.0
13571,66.0,30.0,60.0,6.0,0.0
13572,47.0,30.0,30.0,5.0,0.0
13573,61.0,0.0,30.0,4.0,0.0
13574,42.0,0.0,30.0,7.0,0.0
13575,46.0,0.0,30.0,5.0,0.0
13576,75.0,0.0,60.0,6.0,0.0
13577,47.0,30.0,30.0,5.0,0.0
13578,35.0,0.0,30.0,7.0,0.0
13579,59.0,0.0,180.0,4.0,0.0
13580,49.0,30.0,30.0,5.0,0.0
13581,42.0,0.0,30.0,7.0,0.0
13582,71.0,30.0,60.0,6.0,0.0
13583,71.0,0.0,60.0,0.0,0.0
13584,66.0,0.0,30.0,1.0,0.0
13585,63.0,30.0,30.0,2.0,0.0
13586,47.0,0.0,30.0,3.0,0.0
13587,47.0,0.0,30.0,5.0,0.0
13588,47.0,0.0,30.0,7.0,0.0
13589,49.0,0.0,30.0,5.0,0.0
13590,65.0,0.0,30.0,1.0,0.0
13591,49.0,0.0,30.0,3.0,0.0
13592,64.0,0.0,30.0,2.0,0.0
13593,49.0,0.0,30.0,7.0,0.0
13594,51.0,0.0,30.0,7.0,0.0
13595,63.0,0.0,30.0,2.0,0.0
13596,66.0,0.0,60.0,0.0,0.0
13597,51.0,0.0,30.0,5.0,0.0
13598,51.0,30.0,60.0,3.0,0.0
13599,66.0,30.0,30.0,1.0,0.0
13600,66.0,0.0,60.0,6.0,0.0
13601,68.0,0.0,30.0,1.0,0.0
13602,49.0,0.0,30.0,5.0,0.0
13603,49.0,0.0,30.0,7.0,0.0
13604,64.0,0.0,30.0,2.0,0.0
13605,66.0,0.0,30.0,1.0,0.0
13606,71.0,0.0,60.0,0.0,0.0
13607,51.0,0.0,30.0,5.0,0.0
13608,63.0,0.0,30.0,2.0,0.0
13609,71.0,30.0,120.0,4.0,0.0
13610,47.0,0.0,60.0,3.0,0.0
13611,71.0,0.0,60.0,6.0,0.0
13612,51.0,30.0,30.0,7.0,0.0
13613,68.0,30.0,30.0,1.0,0.0
13614,64.0,0.0,30.0,2.0,0.0
13615,47.0,0.0,30.0,5.0,0.0
13616,47.0,0.0,30.0,7.0,0.0
13617,64.0,0.0,60.0,6.0,0.0
13618,54.0,0.0,60.0,3.0,0.0
13619,64.0,0.0,30.0,1.0,0.0
13620,61.0,30.0,30.0,2.0,0.0
13621,64.0,0.0,60.0,0.0,0.0
13622,54.0,0.0,30.0,5.0,0.0
13623,54.0,0.0,30.0,7.0,0.0
13624,66.0,0.0,30.0,1.0,0.0
13625,52.0,0.0,30.0,7.0,0.0
13626,52.0,0.0,30.0,5.0,0.0
13627,63.0,0.0,30.0,2.0,0.0
13628,61.0,30.0,30.0,2.0,0.0
13629,64.0,0.0,30.0,1.0,0.0
13630,73.0,0.0,60.0,0.0,0.0
13631,70.0,0.0,60.0,4.0,0.0
13632,73.0,0.0,60.0,6.0,0.0
13633,54.0,0.0,30.0,5.0,0.0
13634,54.0,0.0,30.0,7.0,0.0
13635,42.0,0.0,60.0,3.0,0.0
13636,42.0,30.0,30.0,5.0,0.0
13637,42.0,0.0,30.0,7.0,0.0
13638,66.0,0.0,30.0,1.0,0.0
13639,63.0,0.0,30.0,2.0,0.0
13640,66.0,0.0,30.0,6.0,0.0
13641,63.0,30.0,30.0,1.0,0.0
13642,47.0,0.0,60.0,3.0,0.0
13643,71.0,0.0,120.0,4.0,0.0
13644,59.0,0.0,30.0,2.0,0.0
13645,47.0,30.0,60.0,5.0,0.0
13646,63.0,0.0,30.0,0.0,0.0
13647,47.0,0.0,60.0,7.0,0.0
13648,64.0,0.0,30.0,1.0,0.0
13649,64.0,0.0,30.0,6.0,0.0
13650,61.0,0.0,30.0,0.0,0.0
13651,58.0,0.0,30.0,2.0,0.0
13652,42.0,0.0,60.0,7.0,0.0
13653,59.0,0.0,30.0,2.0,0.0
13654,63.0,0.0,30.0,0.0,0.0
13655,63.0,30.0,30.0,1.0,0.0
13656,42.0,0.0,60.0,5.0,0.0
13657,42.0,0.0,60.0,3.0,0.0
13658,66.0,0.0,30.0,6.0,0.0
13659,64.0,30.0,30.0,6.0,0.0
13660,64.0,0.0,30.0,1.0,0.0
13661,58.0,0.0,30.0,2.0,0.0
13662,61.0,0.0,30.0,0.0,0.0
13663,59.0,0.0,60.0,6.0,0.0
13664,59.0,30.0,60.0,2.0,0.0
13665,66.0,0.0,60.0,1.0,0.0
13666,59.0,0.0,60.0,0.0,0.0
13667,35.0,0.0,60.0,3.0,0.0
13668,47.0,0.0,60.0,7.0,0.0
13669,35.0,30.0,30.0,5.0,0.0
13670,34.0,0.0,30.0,5.0,0.0
13671,35.0,0.0,30.0,5.0,0.0
13672,51.0,30.0,30.0,7.0,0.0
13673,71.0,0.0,60.0,4.0,0.0
13674,47.0,0.0,30.0,3.0,0.0
13675,66.0,30.0,120.0,6.0,0.0
13676,37.0,0.0,30.0,5.0,0.0
13677,54.0,0.0,30.0,7.0,0.0
13678,49.0,30.0,30.0,3.0,0.0
13679,39.0,0.0,60.0,5.0,0.0
13680,51.0,0.0,60.0,3.0,0.0
13681,59.0,0.0,60.0,7.0,0.0
13682,59.0,30.0,30.0,4.0,0.0
13683,58.0,0.0,30.0,4.0,0.0
13684,63.0,0.0,30.0,6.0,0.0
13685,54.0,0.0,60.0,3.0,0.0
13686,42.0,0.0,60.0,5.0,0.0
13687,57.0,30.0,30.0,7.0,0.0
13688,59.0,0.0,30.0,4.0,0.0
13689,56.0,30.0,30.0,7.0,0.0
13690,61.0,0.0,30.0,4.0,0.0
13691,64.0,0.0,30.0,6.0,0.0
13692,35.0,30.0,60.0,5.0,0.0
13693,47.0,0.0,60.0,3.0,0.0
13694,54.0,30.0,30.0,7.0,0.0
13695,63.0,0.0,30.0,4.0,0.0
13696,66.0,0.0,60.0,6.0,0.0
13697,52.0,0.0,30.0,7.0,0.0
13698,64.0,0.0,30.0,4.0,0.0
13699,66.0,30.0,30.0,4.0,0.0
13700,71.0,30.0,120.0,6.0,0.0
13701,51.0,0.0,30.0,7.0,0.0
13702,51.0,30.0,60.0,3.0,0.0
13703,39.0,0.0,60.0,5.0,0.0
13704,49.0,0.0,30.0,7.0,0.0
13705,68.0,0.0,30.0,4.0,0.0
13706,47.0,30.0,30.0,7.0,0.0
13707,52.0,0.0,60.0,3.0,0.0
13708,69.0,0.0,30.0,4.0,0.0
13709,40.0,0.0,60.0,5.0,0.0
13710,51.0,0.0,30.0,7.0,0.0
13711,66.0,0.0,30.0,4.0,0.0
13712,64.0,30.0,60.0,6.0,0.0
13713,52.0,0.0,30.0,7.0,0.0
13714,68.0,30.0,30.0,4.0,0.0
13715,40.0,0.0,60.0,3.0,0.0
13716,47.0,0.0,60.0,5.0,0.0
13717,64.0,0.0,30.0,4.0,0.0
13718,47.0,0.0,30.0,7.0,0.0
13719,44.0,30.0,30.0,7.0,0.0
13720,68.0,0.0,60.0,6.0,0.0
13721,52.0,0.0,60.0,3.0,0.0
13722,59.0,0.0,30.0,4.0,0.0
13723,52.0,0.0,60.0,5.0,0.0
13724,64.0,0.0,30.0,4.0,0.0
13725,47.0,30.0,30.0,7.0,0.0
13726,40.0,0.0,30.0,7.0,0.0
13727,64.0,0.0,60.0,0.0,0.0
13728,64.0,30.0,60.0,2.0,0.0
13729,71.0,0.0,60.0,6.0,0.0
13730,64.0,0.0,60.0,1.0,0.0
13731,59.0,0.0,120.0,5.0,0.0
13732,68.0,30.0,30.0,4.0,0.0
13733,64.0,0.0,30.0,4.0,0.0
13734,44.0,0.0,30.0,7.0,0.0
13735,63.0,0.0,60.0,2.0,0.0
13736,63.0,0.0,60.0,0.0,0.0
13737,63.0,0.0,60.0,1.0,0.0
13738,39.0,0.0,60.0,7.0,0.0
13739,66.0,30.0,60.0,4.0,0.0
13740,59.0,30.0,30.0,6.0,0.0
13741,58.0,0.0,30.0,6.0,0.0
13742,42.0,0.0,60.0,7.0,0.0
13743,63.0,30.0,30.0,4.0,0.0
13744,66.0,0.0,60.0,0.0,0.0
13745,59.0,0.0,30.0,6.0,0.0
13746,66.0,0.0,60.0,2.0,0.0
13747,66.0,0.0,60.0,1.0,0.0
13748,57.0,0.0,30.0,5.0,0.0
13749,61.0,0.0,30.0,6.0,0.0
13750,64.0,0.0,30.0,4.0,0.0
13751,56.0,30.0,30.0,5.0,0.0
13752,63.0,0.0,30.0,6.0,0.0
13753,66.0,0.0,60.0,4.0,0.0
13754,59.0,0.0,60.0,2.0,0.0
13755,54.0,30.0,30.0,5.0,0.0
13756,59.0,0.0,60.0,0.0,0.0
13757,35.0,0.0,60.0,7.0,0.0
13758,59.0,30.0,60.0,1.0,0.0
13759,52.0,0.0,30.0,5.0,0.0
13760,64.0,0.0,30.0,6.0,0.0
13761,63.0,30.0,60.0,1.0,0.0
13762,51.0,0.0,30.0,5.0,0.0
13763,63.0,0.0,60.0,2.0,0.0
13764,66.0,30.0,30.0,6.0,0.0
13765,71.0,0.0,120.0,4.0,0.0
13766,63.0,0.0,60.0,0.0,0.0
13767,39.0,0.0,60.0,7.0,0.0
13768,47.0,0.0,60.0,3.0,0.0
13769,68.0,0.0,30.0,6.0,0.0
13770,49.0,0.0,30.0,5.0,0.0
13771,64.0,0.0,60.0,1.0,0.0
13772,64.0,0.0,60.0,0.0,0.0
13773,47.0,0.0,30.0,5.0,0.0
13774,52.0,0.0,60.0,3.0,0.0
13775,40.0,0.0,60.0,7.0,0.0
13776,69.0,30.0,30.0,6.0,0.0
13777,64.0,0.0,60.0,2.0,0.0
13778,51.0,30.0,30.0,5.0,0.0
13779,66.0,0.0,30.0,6.0,0.0
13780,59.0,0.0,60.0,2.0,0.0
13781,68.0,30.0,30.0,6.0,0.0
13782,59.0,0.0,60.0,1.0,0.0
13783,40.0,0.0,60.0,3.0,0.0
13784,59.0,0.0,60.0,0.0,0.0
13785,64.0,0.0,60.0,4.0,0.0
13786,47.0,0.0,60.0,7.0,0.0
13787,52.0,0.0,30.0,5.0,0.0
13788,47.0,0.0,30.0,5.0,0.0
13789,64.0,30.0,30.0,6.0,0.0
13790,52.0,0.0,60.0,0.0,0.0
13791,52.0,0.0,60.0,3.0,0.0
13792,52.0,0.0,60.0,1.0,0.0
13793,59.0,0.0,30.0,6.0,0.0
13794,44.0,0.0,30.0,5.0,0.0
13795,52.0,30.0,30.0,7.0,0.0
13796,52.0,0.0,60.0,2.0,0.0
13797,68.0,0.0,60.0,4.0,0.0
13798,64.0,0.0,30.0,6.0,0.0
13799,47.0,30.0,30.0,5.0,0.0
13800,47.0,0.0,30.0,7.0,0.0
13801,52.0,30.0,30.0,7.0,0.0
13802,49.0,0.0,30.0,3.0,0.0
13803,71.0,30.0,60.0,4.0,0.0
13804,40.0,0.0,30.0,5.0,0.0
13805,68.0,30.0,120.0,6.0,0.0
13806,51.0,0.0,30.0,3.0,0.0
13807,39.0,0.0,30.0,5.0,0.0
13808,56.0,0.0,30.0,7.0,0.0
13809,61.0,30.0,30.0,4.0,0.0
13810,41.0,0.0,60.0,5.0,0.0
13811,53.0,0.0,60.0,3.0,0.0
13812,61.0,0.0,60.0,7.0,0.0
13813,60.0,0.0,30.0,4.0,0.0
13814,65.0,0.0,30.0,6.0,0.0
13815,44.0,0.0,60.0,5.0,0.0
13816,56.0,0.0,60.0,3.0,0.0
13817,59.0,30.0,30.0,7.0,0.0
13818,61.0,0.0,30.0,4.0,0.0
13819,63.0,0.0,30.0,4.0,0.0
13820,66.0,0.0,30.0,6.0,0.0
13821,58.0,30.0,30.0,7.0,0.0
13822,68.0,0.0,60.0,6.0,0.0
13823,56.0,0.0,30.0,7.0,0.0
13824,49.0,0.0,60.0,3.0,0.0
13825,37.0,30.0,60.0,5.0,0.0
13826,65.0,30.0,30.0,4.0,0.0
13827,54.0,0.0,30.0,7.0,0.0
13828,66.0,0.0,30.0,4.0,0.0
13829,68.0,30.0,30.0,4.0,0.0
13830,73.0,30.0,120.0,6.0,0.0
13831,53.0,0.0,30.0,7.0,0.0
13832,53.0,30.0,60.0,3.0,0.0
13833,41.0,0.0,60.0,5.0,0.0
13834,70.0,0.0,30.0,4.0,0.0
13835,51.0,0.0,30.0,7.0,0.0
13836,42.0,0.0,60.0,5.0,0.0
13837,71.0,0.0,30.0,4.0,0.0
13838,49.0,30.0,30.0,7.0,0.0
13839,54.0,0.0,60.0,3.0,0.0
13840,68.0,0.0,30.0,4.0,0.0
13841,53.0,0.0,30.0,7.0,0.0
13842,42.0,0.0,60.0,3.0,0.0
13843,66.0,0.0,60.0,6.0,0.0
13844,49.0,0.0,60.0,5.0,0.0
13845,54.0,30.0,30.0,7.0,0.0
13846,70.0,0.0,30.0,4.0,0.0
13847,66.0,0.0,30.0,4.0,0.0
13848,49.0,30.0,30.0,7.0,0.0
13849,54.0,0.0,60.0,5.0,0.0
13850,61.0,0.0,30.0,4.0,0.0
13851,70.0,0.0,60.0,6.0,0.0
13852,46.0,30.0,30.0,7.0,0.0
13853,54.0,0.0,60.0,3.0,0.0
13854,49.0,30.0,30.0,7.0,0.0
13855,66.0,0.0,30.0,4.0,0.0
13856,66.0,0.0,60.0,1.0,0.0
13857,61.0,0.0,120.0,5.0,0.0
13858,66.0,0.0,60.0,0.0,0.0
13859,70.0,30.0,30.0,4.0,0.0
13860,73.0,0.0,60.0,6.0,0.0
13861,42.0,0.0,30.0,7.0,0.0
13862,66.0,30.0,60.0,2.0,0.0
13863,46.0,0.0,30.0,7.0,0.0
13864,66.0,0.0,30.0,4.0,0.0
13865,65.0,0.0,60.0,2.0,0.0
13866,68.0,0.0,60.0,4.0,0.0
13867,65.0,0.0,60.0,1.0,0.0
13868,65.0,0.0,60.0,0.0,0.0
13869,61.0,30.0,30.0,6.0,0.0
13870,41.0,0.0,60.0,7.0,0.0
13871,60.0,30.0,30.0,6.0,0.0
13872,44.0,0.0,60.0,7.0,0.0
13873,61.0,30.0,30.0,6.0,0.0
13874,68.0,0.0,60.0,2.0,0.0
13875,59.0,0.0,30.0,5.0,0.0
13876,65.0,0.0,30.0,4.0,0.0
13877,68.0,0.0,60.0,0.0,0.0
13878,68.0,30.0,60.0,1.0,0.0
13879,58.0,0.0,30.0,5.0,0.0
13880,66.0,0.0,30.0,4.0,0.0
13881,63.0,0.0,30.0,6.0,0.0
13882,61.0,0.0,60.0,0.0,0.0
13883,37.0,30.0,60.0,7.0,0.0
13884,61.0,0.0,60.0,2.0,0.0
13885,61.0,0.0,60.0,1.0,0.0
13886,56.0,30.0,30.0,5.0,0.0
13887,65.0,0.0,30.0,6.0,0.0
13888,68.0,0.0,60.0,4.0,0.0
13889,66.0,0.0,30.0,6.0,0.0
13890,54.0,0.0,30.0,5.0,0.0
13891,65.0,0.0,60.0,1.0,0.0
13892,68.0,0.0,30.0,6.0,0.0
13893,53.0,30.0,30.0,5.0,0.0
13894,65.0,0.0,60.0,2.0,0.0
13895,65.0,0.0,60.0,0.0,0.0
13896,49.0,0.0,60.0,3.0,0.0
13897,73.0,0.0,120.0,4.0,0.0
13898,41.0,0.0,60.0,7.0,0.0
13899,70.0,0.0,30.0,6.0,0.0
13900,51.0,30.0,30.0,5.0,0.0
13901,49.0,0.0,30.0,5.0,0.0
13902,42.0,0.0,60.0,7.0,0.0
13903,66.0,30.0,60.0,1.0,0.0
13904,71.0,30.0,30.0,6.0,0.0
13905,66.0,0.0,60.0,2.0,0.0
13906,54.0,0.0,60.0,3.0,0.0
13907,66.0,0.0,60.0,0.0,0.0
13908,68.0,0.0,30.0,6.0,0.0
13909,53.0,0.0,30.0,5.0,0.0
13910,42.0,0.0,60.0,3.0,0.0
13911,61.0,0.0,60.0,2.0,0.0
13912,70.0,30.0,30.0,6.0,0.0
13913,61.0,0.0,60.0,1.0,0.0
13914,61.0,0.0,60.0,0.0,0.0
13915,66.0,0.0,60.0,4.0,0.0
13916,49.0,30.0,60.0,7.0,0.0
13917,54.0,0.0,30.0,5.0,0.0
13918,49.0,0.0,30.0,5.0,0.0
13919,66.0,0.0,30.0,6.0,0.0
13920,54.0,0.0,60.0,2.0,0.0
13921,70.0,0.0,60.0,4.0,0.0
13922,54.0,0.0,60.0,0.0,0.0
13923,61.0,0.0,30.0,6.0,0.0
13924,54.0,0.0,60.0,3.0,0.0
13925,54.0,30.0,30.0,7.0,0.0
13926,54.0,0.0,60.0,1.0,0.0
13927,46.0,0.0,30.0,5.0,0.0
13928,66.0,0.0,30.0,6.0,0.0
13929,49.0,30.0,30.0,5.0,0.0
13930,49.0,0.0,30.0,7.0,0.0
13931,73.0,0.0,60.0,4.0,0.0
13932,54.0,0.0,30.0,7.0,0.0
13933,51.0,30.0,30.0,3.0,0.0
13934,70.0,0.0,120.0,6.0,0.0
13935,42.0,0.0,30.0,5.0,0.0
13936,58.0,0.0,30.0,7.0,0.0
13937,41.0,0.0,30.0,5.0,0.0
13938,53.0,30.0,30.0,3.0,0.0
13939,63.0,0.0,60.0,7.0,0.0
13940,43.0,0.0,60.0,5.0,0.0
13941,54.0,30.0,60.0,3.0,0.0
13942,63.0,30.0,30.0,4.0,0.0
13943,62.0,0.0,30.0,4.0,0.0
13944,67.0,0.0,30.0,6.0,0.0
13945,58.0,0.0,60.0,3.0,0.0
13946,61.0,0.0,30.0,7.0,0.0
13947,46.0,30.0,60.0,5.0,0.0
13948,63.0,30.0,30.0,4.0,0.0
13949,59.0,0.0,30.0,7.0,0.0
13950,68.0,0.0,30.0,6.0,0.0
13951,65.0,0.0,30.0,4.0,0.0
13952,67.0,0.0,30.0,4.0,0.0
13953,70.0,0.0,60.0,6.0,0.0
13954,39.0,0.0,60.0,5.0,0.0
13955,51.0,0.0,60.0,3.0,0.0
13956,58.0,30.0,30.0,7.0,0.0
13957,56.0,30.0,30.0,7.0,0.0
13958,68.0,0.0,30.0,4.0,0.0
13959,55.0,0.0,30.0,7.0,0.0
13960,43.0,0.0,60.0,5.0,0.0
13961,70.0,30.0,30.0,4.0,0.0
13962,54.0,0.0,60.0,3.0,0.0
13963,75.0,0.0,120.0,6.0,0.0
13964,71.0,30.0,30.0,4.0,0.0
13965,53.0,0.0,30.0,7.0,0.0
13966,51.0,0.0,30.0,7.0,0.0
13967,73.0,30.0,30.0,4.0,0.0
13968,56.0,0.0,60.0,3.0,0.0
13969,44.0,30.0,60.0,5.0,0.0
13970,55.0,0.0,30.0,7.0,0.0
13971,70.0,0.0,30.0,4.0,0.0
13972,71.0,30.0,30.0,4.0,0.0
13973,68.0,0.0,60.0,6.0,0.0
13974,56.0,0.0,30.0,7.0,0.0
13975,44.0,30.0,60.0,3.0,0.0
13976,51.0,0.0,60.0,5.0,0.0
13977,68.0,0.0,30.0,4.0,0.0
13978,51.0,0.0,30.0,7.0,0.0
13979,47.0,0.0,30.0,7.0,0.0
13980,63.0,30.0,30.0,4.0,0.0
13981,71.0,0.0,60.0,6.0,0.0
13982,56.0,0.0,60.0,5.0,0.0
13983,56.0,0.0,60.0,3.0,0.0
13984,51.0,0.0,30.0,7.0,0.0
13985,68.0,30.0,30.0,4.0,0.0
13986,68.0,0.0,60.0,2.0,0.0
13987,68.0,0.0,60.0,1.0,0.0
13988,44.0,0.0,30.0,7.0,0.0
13989,75.0,30.0,60.0,6.0,0.0
13990,68.0,0.0,60.0,0.0,0.0
13991,63.0,0.0,120.0,5.0,0.0
13992,71.0,30.0,30.0,4.0,0.0
13993,68.0,0.0,30.0,4.0,0.0
13994,47.0,0.0,30.0,7.0,0.0
13995,43.0,0.0,60.0,7.0,0.0
13996,67.0,0.0,60.0,2.0,0.0
13997,67.0,0.0,60.0,1.0,0.0
13998,70.0,0.0,60.0,4.0,0.0
13999,67.0,30.0,60.0,0.0,0.0
14000,63.0,30.0,30.0,6.0,0.0
14001,62.0,0.0,30.0,6.0,0.0
14002,61.0,0.0,30.0,5.0,0.0
14003,46.0,0.0,60.0,7.0,0.0
14004,67.0,30.0,30.0,4.0,0.0
14005,70.0,0.0,60.0,2.0,0.0
14006,63.0,0.0,30.0,6.0,0.0
14007,70.0,0.0,60.0,1.0,0.0
14008,70.0,30.0,60.0,0.0,0.0
14009,65.0,0.0,30.0,6.0,0.0
14010,59.0,0.0,30.0,5.0,0.0
14011,68.0,0.0,30.0,4.0,0.0
14012,63.0,0.0,60.0,0.0,0.0
14013,67.0,30.0,30.0,6.0,0.0
14014,58.0,0.0,30.0,5.0,0.0
14015,63.0,0.0,60.0,1.0,0.0
14016,70.0,0.0,60.0,4.0,0.0
14017,63.0,0.0,60.0,2.0,0.0
14018,39.0,0.0,60.0,7.0,0.0
14019,56.0,30.0,30.0,5.0,0.0
14020,68.0,0.0,30.0,6.0,0.0
14021,75.0,30.0,120.0,4.0,0.0
14022,67.0,0.0,60.0,1.0,0.0
14023,67.0,30.0,60.0,0.0,0.0
14024,67.0,0.0,60.0,2.0,0.0
14025,70.0,0.0,30.0,6.0,0.0
14026,55.0,30.0,30.0,5.0,0.0
14027,51.0,0.0,60.0,3.0,0.0
14028,43.0,0.0,60.0,7.0,0.0
14029,71.0,0.0,30.0,6.0,0.0
14030,53.0,0.0,30.0,5.0,0.0
14031,56.0,0.0,60.0,3.0,0.0
14032,73.0,0.0,30.0,6.0,0.0
14033,51.0,30.0,30.0,5.0,0.0
14034,68.0,0.0,60.0,2.0,0.0
14035,68.0,0.0,60.0,1.0,0.0
14036,44.0,0.0,60.0,7.0,0.0
14037,68.0,0.0,60.0,0.0,0.0
14038,70.0,0.0,30.0,6.0,0.0
14039,55.0,0.0,30.0,5.0,0.0
14040,68.0,0.0,60.0,4.0,0.0
14041,51.0,0.0,60.0,7.0,0.0
14042,56.0,0.0,30.0,5.0,0.0
14043,63.0,0.0,60.0,1.0,0.0
14044,71.0,30.0,30.0,6.0,0.0
14045,63.0,0.0,60.0,2.0,0.0
14046,63.0,0.0,60.0,0.0,0.0
14047,44.0,0.0,60.0,3.0,0.0
14048,68.0,0.0,30.0,6.0,0.0
14049,51.0,30.0,30.0,5.0,0.0
14050,47.0,30.0,30.0,5.0,0.0
14051,71.0,0.0,60.0,4.0,0.0
14052,56.0,0.0,60.0,7.0,0.0
14053,63.0,0.0,30.0,6.0,0.0
14054,56.0,0.0,60.0,0.0,0.0
14055,56.0,0.0,60.0,3.0,0.0
14056,56.0,0.0,60.0,1.0,0.0
14057,56.0,30.0,60.0,2.0,0.0
14058,68.0,0.0,30.0,6.0,0.0
14059,51.0,0.0,30.0,5.0,0.0
14060,68.0,0.0,60.0,0.0,0.0
14061,63.0,30.0,60.0,2.0,0.0
14062,44.0,0.0,30.0,5.0,0.0
14063,47.0,0.0,60.0,7.0,0.0
14064,68.0,0.0,60.0,1.0,0.0
14065,75.0,0.0,60.0,4.0,0.0
14066,71.0,30.0,30.0,6.0,0.0
14067,47.0,0.0,60.0,3.0,0.0
14068,68.0,0.0,30.0,6.0,0.0
14069,47.0,0.0,30.0,5.0,0.0
14070,46.0,0.0,60.0,5.0,0.0
14071,73.0,0.0,120.0,6.0,0.0
14072,46.0,0.0,60.0,7.0,0.0
14073,46.0,0.0,60.0,3.0,0.0
14074,73.0,0.0,60.0,0.0,0.0
14075,67.0,0.0,60.0,1.0,0.0
14076,64.0,30.0,30.0,2.0,0.0
14077,73.0,0.0,120.0,4.0,0.0
14078,66.0,30.0,30.0,2.0,0.0
14079,52.0,0.0,60.0,3.0,0.0
14080,52.0,0.0,60.0,7.0,0.0
14081,64.0,30.0,30.0,2.0,0.0
14082,68.0,30.0,120.0,1.0,0.0
14083,52.0,30.0,60.0,5.0,0.0
14084,66.0,0.0,30.0,2.0,0.0
14085,64.0,30.0,30.0,2.0,0.0
14086,44.0,0.0,60.0,3.0,0.0
14087,73.0,0.0,60.0,0.0,0.0
14088,44.0,0.0,60.0,7.0,0.0
14089,73.0,0.0,120.0,6.0,0.0
14090,73.0,0.0,120.0,4.0,0.0
14091,44.0,0.0,60.0,5.0,0.0
14092,66.0,0.0,30.0,2.0,0.0
14093,52.0,0.0,60.0,7.0,0.0
14094,52.0,0.0,60.0,5.0,0.0
14095,52.0,0.0,60.0,3.0,0.0
14096,64.0,30.0,30.0,2.0,0.0
14097,70.0,30.0,60.0,1.0,0.0
14098,66.0,0.0,30.0,2.0,0.0
14099,73.0,0.0,120.0,4.0,0.0
14100,73.0,0.0,120.0,6.0,0.0
14101,43.0,30.0,30.0,3.0,0.0
14102,43.0,0.0,30.0,5.0,0.0
14103,70.0,0.0,120.0,1.0,0.0
14104,63.0,0.0,30.0,2.0,0.0
14105,43.0,0.0,30.0,7.0,0.0
14106,73.0,0.0,120.0,0.0,0.0
14107,41.0,30.0,30.0,5.0,0.0
14108,41.0,0.0,30.0,7.0,0.0
14109,61.0,0.0,30.0,2.0,0.0
14110,41.0,0.0,30.0,3.0,0.0
14111,63.0,0.0,30.0,2.0,0.0
14112,43.0,0.0,30.0,7.0,0.0
14113,43.0,30.0,30.0,5.0,0.0
14114,43.0,0.0,30.0,3.0,0.0
14115,41.0,0.0,30.0,5.0,0.0
14116,41.0,30.0,30.0,7.0,0.0
14117,41.0,0.0,30.0,3.0,0.0
14118,61.0,0.0,30.0,2.0,0.0
14119,63.0,0.0,120.0,2.0,0.0
14120,39.0,0.0,30.0,5.0,0.0
14121,39.0,0.0,30.0,3.0,0.0
14122,39.0,30.0,30.0,7.0,0.0
14123,71.0,0.0,30.0,0.0,0.0
14124,41.0,0.0,30.0,7.0,0.0
14125,71.0,0.0,30.0,6.0,0.0
14126,71.0,0.0,30.0,4.0,0.0
14127,41.0,0.0,30.0,5.0,0.0
14128,41.0,30.0,30.0,3.0,0.0
14129,68.0,0.0,30.0,1.0,0.0
14130,43.0,30.0,30.0,5.0,0.0
14131,70.0,0.0,30.0,4.0,0.0
14132,70.0,0.0,30.0,1.0,0.0
14133,70.0,0.0,30.0,0.0,0.0
14134,43.0,0.0,30.0,3.0,0.0
14135,70.0,0.0,30.0,6.0,0.0
14136,43.0,0.0,30.0,7.0,0.0
14137,73.0,0.0,30.0,4.0,0.0
14138,39.0,0.0,30.0,7.0,0.0
14139,73.0,0.0,30.0,6.0,0.0
14140,39.0,0.0,30.0,3.0,0.0
14141,67.0,0.0,30.0,1.0,0.0
14142,39.0,0.0,30.0,5.0,0.0
14143,73.0,30.0,30.0,0.0,0.0
14144,71.0,0.0,30.0,0.0,0.0
14145,68.0,0.0,60.0,1.0,0.0
14146,44.0,0.0,60.0,3.0,0.0
14147,44.0,30.0,60.0,7.0,0.0
14148,71.0,30.0,30.0,6.0,0.0
14149,71.0,0.0,30.0,4.0,0.0
14150,44.0,0.0,60.0,5.0,0.0
14151,70.0,0.0,30.0,4.0,0.0
14152,64.0,0.0,30.0,2.0,0.0
14153,70.0,0.0,30.0,0.0,0.0
14154,70.0,0.0,30.0,6.0,0.0
14155,71.0,30.0,90.0,6.0,0.0
14156,71.0,0.0,90.0,0.0,0.0
14157,51.0,0.0,60.0,5.0,0.0
14158,51.0,30.0,60.0,3.0,0.0
14159,71.0,0.0,90.0,4.0,0.0
14160,63.0,30.0,30.0,2.0,0.0
14161,51.0,0.0,60.0,7.0,0.0
14162,64.0,0.0,30.0,2.0,0.0
14163,68.0,0.0,60.0,1.0,0.0
14164,42.0,0.0,60.0,7.0,0.0
14165,42.0,0.0,60.0,5.0,0.0
14166,63.0,0.0,30.0,2.0,0.0
14167,42.0,0.0,60.0,3.0,0.0
14168,64.0,0.0,30.0,2.0,0.0
14169,70.0,0.0,30.0,0.0,0.0
14170,70.0,0.0,30.0,4.0,0.0
14171,70.0,30.0,30.0,6.0,0.0
14172,71.0,30.0,90.0,6.0,0.0
14173,71.0,0.0,90.0,4.0,0.0
14174,51.0,0.0,60.0,5.0,0.0
14175,51.0,0.0,60.0,7.0,0.0
14176,51.0,0.0,60.0,3.0,0.0
14177,63.0,30.0,30.0,2.0,0.0
14178,71.0,0.0,90.0,0.0,0.0
14179,64.0,30.0,30.0,2.0,0.0
14180,63.0,0.0,30.0,2.0,0.0
14181,41.0,0.0,30.0,7.0,0.0
14182,68.0,0.0,180.0,1.0,0.0
14183,41.0,0.0,30.0,5.0,0.0
14184,41.0,0.0,30.0,3.0,0.0
14185,39.0,0.0,30.0,3.0,0.0
14186,62.0,0.0,30.0,2.0,0.0
14187,68.0,30.0,30.0,4.0,0.0
14188,39.0,0.0,30.0,5.0,0.0
14189,68.0,0.0,30.0,0.0,0.0
14190,68.0,0.0,30.0,6.0,0.0
14191,39.0,0.0,30.0,7.0,0.0
14192,71.0,0.0,120.0,6.0,0.0
14193,71.0,30.0,120.0,0.0,0.0
14194,63.0,30.0,30.0,2.0,0.0
14195,41.0,0.0,30.0,3.0,0.0
14196,41.0,0.0,30.0,5.0,0.0
14197,71.0,0.0,120.0,4.0,0.0
14198,41.0,0.0,30.0,7.0,0.0
14199,39.0,30.0,30.0,5.0,0.0
14200,39.0,0.0,30.0,7.0,0.0
14201,39.0,0.0,30.0,3.0,0.0
14202,62.0,0.0,30.0,2.0,0.0
14203,38.0,30.0,30.0,5.0,0.0
14204,38.0,0.0,30.0,3.0,0.0
14205,65.0,0.0,60.0,2.0,0.0
14206,38.0,0.0,30.0,7.0,0.0
14207,39.0,0.0,30.0,5.0,0.0
14208,39.0,0.0,30.0,7.0,0.0
14209,39.0,0.0,30.0,3.0,0.0
14210,41.0,0.0,30.0,3.0,0.0
14211,70.0,0.0,30.0,6.0,0.0
14212,62.0,0.0,60.0,2.0,0.0
14213,70.0,30.0,30.0,4.0,0.0
14214,58.0,20.0,60.0,1.0,0.0
14215,41.0,0.0,30.0,7.0,0.0
14216,70.0,0.0,30.0,0.0,0.0
14217,41.0,0.0,30.0,5.0,0.0
14218,68.0,0.0,30.0,0.0,0.0
14219,38.0,0.0,30.0,5.0,0.0
14220,38.0,0.0,30.0,3.0,0.0
14221,68.0,0.0,30.0,6.0,0.0
14222,68.0,0.0,30.0,4.0,0.0
14223,38.0,0.0,30.0,7.0,0.0
14224,39.0,0.0,60.0,5.0,0.0
14225,58.0,0.0,480.0,2.0,0.0
14226,39.0,0.0,60.0,7.0,0.0
14227,39.0,29.0,2400.0,3.0,0.0
14228,67.0,0.0,60.0,6.0,0.0
14229,67.0,0.0,480.0,0.0,0.0
14230,63.0,19.0,960.0,1.0,0.0
14231,67.0,20.0,20.0,4.0,0.0
14232,58.0,20.0,20.0,4.0,0.0
14233,59.0,20.0,20.0,4.0,0.0
14234,61.0,20.0,20.0,4.0,0.0
14235,51.0,0.0,60.0,7.0,0.0
14236,70.0,0.0,60.0,6.0,0.0
14237,59.0,20.0,20.0,4.0,0.0
14238,58.0,20.0,20.0,4.0,0.0
14239,51.0,20.0,20.0,4.0,0.0
14240,61.0,0.0,60.0,6.0,0.0
14241,55.0,0.0,60.0,7.0,0.0
14242,51.0,0.0,60.0,5.0,0.0
14243,58.0,20.0,20.0,4.0,0.0
14244,59.0,20.0,20.0,4.0,0.0
14245,51.0,20.0,60.0,7.0,0.0
14246,70.0,0.0,60.0,6.0,0.0
14247,61.0,20.0,20.0,4.0,0.0
14248,59.0,20.0,20.0,4.0,0.0
14249,58.0,0.0,20.0,4.0,0.0
14250,39.0,20.0,60.0,5.0,0.0
14251,39.0,0.0,60.0,7.0,0.0
14252,67.0,20.0,20.0,4.0,0.0
14253,67.0,0.0,60.0,6.0,0.0
14254,58.0,20.0,20.0,4.0,0.0
14255,59.0,0.0,20.0,4.0,0.0
14256,70.0,0.0,60.0,6.0,0.0
14257,51.0,20.0,60.0,7.0,0.0
14258,61.0,20.0,20.0,4.0,0.0
14259,59.0,20.0,20.0,4.0,0.0
14260,58.0,0.0,20.0,4.0,0.0
14261,61.0,20.0,60.0,6.0,0.0
14262,51.0,20.0,20.0,4.0,0.0
14263,51.0,0.0,60.0,5.0,0.0
14264,55.0,0.0,60.0,7.0,0.0
14265,58.0,20.0,20.0,4.0,0.0
14266,59.0,0.0,20.0,4.0,0.0
14267,70.0,20.0,60.0,6.0,0.0
14268,61.0,20.0,20.0,4.0,0.0
14269,51.0,0.0,60.0,7.0,0.0
14270,59.0,20.0,20.0,4.0,0.0
14271,58.0,0.0,20.0,4.0,0.0
14272,68.0,20.0,20.0,4.0,0.0
14273,63.0,0.0,60.0,6.0,0.0
14274,59.0,0.0,480.0,2.0,0.0
14275,68.0,1.0,480.0,0.0,0.0
14276,39.0,20.0,60.0,5.0,0.0
14277,39.0,0.0,60.0,7.0,0.0
14278,59.0,20.0,20.0,4.0,0.0
14279,61.0,0.0,20.0,4.0,0.0
14280,63.0,20.0,20.0,4.0,0.0
14281,47.0,0.0,60.0,7.0,0.0
14282,68.0,0.0,60.0,6.0,0.0
14283,61.0,20.0,20.0,4.0,0.0
14284,59.0,20.0,20.0,4.0,0.0
14285,51.0,20.0,20.0,4.0,0.0
14286,56.0,0.0,60.0,7.0,0.0
14287,51.0,0.0,60.0,5.0,0.0
14288,59.0,20.0,60.0,6.0,0.0
14289,59.0,20.0,20.0,4.0,0.0
14290,61.0,0.0,20.0,4.0,0.0
14291,63.0,20.0,20.0,4.0,0.0
14292,68.0,0.0,60.0,6.0,0.0
14293,47.0,20.0,60.0,7.0,0.0
14294,61.0,20.0,20.0,4.0,0.0
14295,59.0,0.0,20.0,4.0,0.0
14296,39.0,0.0,60.0,5.0,0.0
14297,56.0,10.0,30.0,6.0,0.0
14298,39.0,0.0,60.0,7.0,0.0
14299,68.0,10.0,20.0,4.0,0.0
14300,59.0,20.0,20.0,4.0,0.0
14301,58.0,20.0,30.0,6.0,0.0
14302,61.0,0.0,20.0,4.0,0.0
14303,44.0,20.0,60.0,7.0,0.0
14304,59.0,10.0,30.0,6.0,0.0
14305,63.0,10.0,20.0,4.0,0.0
14306,61.0,20.0,20.0,4.0,0.0
14307,58.0,0.0,30.0,6.0,0.0
14308,59.0,0.0,20.0,4.0,0.0
14309,56.0,0.0,60.0,6.0,0.0
14310,47.0,20.0,60.0,7.0,0.0
14311,51.0,0.0,60.0,5.0,0.0
14312,51.0,20.0,20.0,4.0,0.0
14313,59.0,20.0,20.0,4.0,0.0
14314,61.0,0.0,20.0,4.0,0.0
14315,44.0,0.0,60.0,7.0,0.0
14316,63.0,20.0,20.0,4.0,0.0
14317,71.0,0.0,60.0,6.0,0.0
14318,61.0,20.0,20.0,4.0,0.0
14319,59.0,0.0,20.0,4.0,0.0
14320,70.0,0.0,720.0,0.0,0.0
14321,70.0,10.0,30.0,6.0,0.0
14322,67.0,19.0,720.0,1.0,0.0
14323,39.0,0.0,60.0,7.0,0.0
14324,39.0,20.0,60.0,5.0,0.0
14325,70.0,10.0,20.0,4.0,0.0
14326,61.0,0.0,480.0,2.0,0.0
14327,61.0,20.0,20.0,4.0,0.0
14328,71.0,0.0,30.0,6.0,0.0
14329,63.0,0.0,20.0,4.0,0.0
14330,64.0,20.0,20.0,4.0,0.0
14331,55.0,0.0,60.0,7.0,0.0
14332,73.0,10.0,90.0,6.0,0.0
14333,63.0,20.0,20.0,4.0,0.0
14334,61.0,20.0,20.0,4.0,0.0
14335,51.0,10.0,20.0,4.0,0.0
14336,58.0,0.0,60.0,7.0,0.0
14337,51.0,0.0,60.0,5.0,0.0
14338,61.0,20.0,20.0,4.0,0.0
14339,71.0,20.0,30.0,6.0,0.0
14340,63.0,0.0,20.0,4.0,0.0
14341,64.0,10.0,20.0,4.0,0.0
14342,55.0,20.0,60.0,7.0,0.0
14343,70.0,10.0,30.0,6.0,0.0
14344,61.0,20.0,20.0,4.0,0.0
14345,68.0,0.0,30.0,6.0,0.0
14346,61.0,0.0,20.0,4.0,0.0
14347,39.0,20.0,60.0,5.0,0.0
14348,39.0,0.0,60.0,7.0,0.0
14349,67.0,10.0,30.0,6.0,0.0
14350,70.0,10.0,20.0,4.0,0.0
14351,61.0,20.0,20.0,4.0,0.0
14352,68.0,0.0,30.0,6.0,0.0
14353,63.0,0.0,20.0,4.0,0.0
14354,55.0,20.0,60.0,7.0,0.0
14355,64.0,10.0,20.0,4.0,0.0
14356,70.0,10.0,30.0,6.0,0.0
14357,63.0,20.0,20.0,4.0,0.0
14358,67.0,0.0,30.0,6.0,0.0
14359,61.0,0.0,20.0,4.0,0.0
14360,51.0,0.0,60.0,5.0,0.0
14361,51.0,20.0,20.0,4.0,0.0
14362,63.0,0.0,60.0,6.0,0.0
14363,58.0,20.0,60.0,7.0,0.0
14364,61.0,20.0,20.0,4.0,0.0
14365,63.0,0.0,20.0,4.0,0.0
14366,70.0,20.0,60.0,6.0,0.0
14367,64.0,20.0,20.0,4.0,0.0
14368,55.0,0.0,60.0,7.0,0.0
14369,63.0,20.0,20.0,4.0,0.0
14370,61.0,0.0,20.0,4.0,0.0
14371,59.0,0.0,480.0,2.0,0.0
14372,63.0,0.0,60.0,6.0,0.0
14373,39.0,0.0,60.0,7.0,0.0
14374,70.0,20.0,20.0,4.0,0.0
14375,39.0,0.0,60.0,5.0,0.0
14376,59.0,20.0,20.0,4.0,0.0
14377,61.0,20.0,20.0,4.0,0.0
14378,51.0,0.0,60.0,7.0,0.0
14379,70.0,0.0,60.0,6.0,0.0
14380,63.0,20.0,20.0,4.0,0.0
14381,61.0,20.0,20.0,4.0,0.0
14382,59.0,20.0,20.0,4.0,0.0
14383,51.0,20.0,20.0,4.0,0.0
14384,59.0,0.0,60.0,6.0,0.0
14385,51.0,20.0,60.0,5.0,0.0
14386,55.0,0.0,60.0,7.0,0.0
14387,59.0,20.0,20.0,4.0,0.0
14388,61.0,0.0,20.0,4.0,0.0
14389,63.0,20.0,20.0,4.0,0.0
14390,70.0,0.0,60.0,6.0,0.0
14391,51.0,1.0,60.0,7.0,0.0
14392,61.0,20.0,20.0,4.0,0.0
14393,59.0,0.0,20.0,4.0,0.0
14394,63.0,9.0,630.0,1.0,0.0
14395,68.0,20.0,20.0,4.0,0.0
14396,39.0,20.0,60.0,5.0,0.0
14397,68.0,0.0,480.0,0.0,0.0
14398,63.0,0.0,60.0,6.0,0.0
14399,39.0,0.0,60.0,7.0,0.0
14400,59.0,20.0,20.0,4.0,0.0
14401,61.0,0.0,20.0,4.0,0.0
14402,51.0,20.0,60.0,7.0,0.0
14403,63.0,20.0,20.0,4.0,0.0
14404,68.0,0.0,60.0,6.0,0.0
14405,61.0,20.0,20.0,4.0,0.0
14406,59.0,0.0,20.0,4.0,0.0
14407,51.0,20.0,20.0,4.0,0.0
14408,56.0,0.0,60.0,7.0,0.0
14409,51.0,0.0,60.0,5.0,0.0
14410,59.0,20.0,60.0,6.0,0.0
14411,59.0,20.0,20.0,4.0,0.0
14412,61.0,0.0,20.0,4.0,0.0
14413,63.0,20.0,20.0,4.0,0.0
14414,68.0,0.0,60.0,6.0,0.0
14415,51.0,20.0,60.0,7.0,0.0
14416,61.0,20.0,20.0,4.0,0.0
14417,59.0,0.0,20.0,4.0,0.0
14418,39.0,0.0,60.0,5.0,0.0
14419,58.0,0.0,480.0,2.0,0.0
14420,68.0,20.0,20.0,4.0,0.0
14421,39.0,20.0,60.0,7.0,0.0
14422,61.0,0.0,60.0,6.0,0.0
14423,58.0,20.0,20.0,4.0,0.0
14424,59.0,0.0,20.0,4.0,0.0
14425,61.0,20.0,20.0,4.0,0.0
14426,46.0,0.0,60.0,7.0,0.0
14427,68.0,0.0,60.0,6.0,0.0
14428,59.0,20.0,20.0,4.0,0.0
14429,58.0,20.0,20.0,4.0,0.0
14430,51.0,0.0,60.0,5.0,0.0
14431,58.0,0.0,60.0,6.0,0.0
14432,51.0,20.0,60.0,7.0,0.0
14433,51.0,20.0,20.0,4.0,0.0
14434,58.0,20.0,20.0,4.0,0.0
14435,59.0,0.0,20.0,4.0,0.0
14436,61.0,20.0,20.0,4.0,0.0
14437,68.0,0.0,60.0,6.0,0.0
14438,46.0,0.0,60.0,7.0,0.0
14439,59.0,20.0,20.0,4.0,0.0
14440,58.0,20.0,20.0,4.0,0.0
14441,61.0,20.0,60.0,6.0,0.0
14442,39.0,0.0,60.0,7.0,0.0
14443,67.0,20.0,20.0,4.0,0.0
14444,67.0,0.0,240.0,0.0,0.0
14445,39.0,0.0,60.0,5.0,0.0
14446,58.0,20.0,20.0,4.0,0.0
14447,59.0,0.0,20.0,4.0,0.0
14448,61.0,20.0,20.0,4.0,0.0
14449,46.0,0.0,60.0,7.0,0.0
14450,67.0,20.0,60.0,6.0,0.0
14451,59.0,20.0,20.0,4.0,0.0
14452,58.0,0.0,20.0,4.0,0.0
14453,51.0,0.0,60.0,7.0,0.0
14454,51.0,0.0,60.0,5.0,0.0
14455,51.0,11.0,20.0,4.0,0.0
14456,58.0,0.0,60.0,6.0,0.0
14457,58.0,20.0,20.0,4.0,0.0
14458,64.0,0.0,30.0,1.0,0.0
14459,59.0,20.0,20.0,4.0,0.0
14460,39.0,1.0,60.0,7.0,0.0
14461,67.0,0.0,60.0,6.0,0.0
14462,61.0,10.0,30.0,1.0,0.0
14463,61.0,10.0,20.0,4.0,0.0
14464,59.0,20.0,20.0,4.0,0.0
14465,63.0,0.0,30.0,1.0,0.0
14466,58.0,0.0,20.0,4.0,0.0
14467,59.0,0.0,30.0,2.0,0.0
14468,59.0,0.0,60.0,4.0,0.0
14469,63.0,0.0,60.0,6.0,0.0
14470,44.0,0.0,120.0,7.0,0.0
14471,59.0,30.0,30.0,1.0,0.0
14472,68.0,30.0,60.0,0.0,0.0
14473,44.0,0.0,60.0,5.0,0.0
14474,32.0,0.0,120.0,3.0,0.0
14475,61.0,0.0,30.0,2.0,0.0
14476,61.0,0.0,30.0,1.0,0.0
14477,59.0,30.0,30.0,2.0,0.0
14478,59.0,0.0,30.0,1.0,0.0
14479,68.0,0.0,60.0,6.0,0.0
14480,68.0,0.0,60.0,4.0,0.0
14481,68.0,30.0,60.0,0.0,0.0
14482,61.0,0.0,30.0,1.0,0.0
14483,61.0,0.0,30.0,2.0,0.0
14484,61.0,0.0,60.0,4.0,0.0
14485,61.0,0.0,60.0,6.0,0.0
14486,58.0,30.0,30.0,2.0,0.0
14487,61.0,0.0,60.0,0.0,0.0
14488,58.0,0.0,30.0,1.0,0.0
14489,59.0,0.0,30.0,1.0,0.0
14490,59.0,30.0,30.0,2.0,0.0
14491,58.0,0.0,30.0,2.0,0.0
14492,68.0,0.0,60.0,4.0,0.0
14493,68.0,0.0,60.0,6.0,0.0
14494,58.0,30.0,30.0,1.0,0.0
14495,68.0,0.0,60.0,0.0,0.0
14496,59.0,0.0,30.0,2.0,0.0
14497,59.0,30.0,30.0,1.0,0.0
14498,56.0,0.0,60.0,2.0,0.0
14499,59.0,0.0,30.0,0.0,0.0
14500,59.0,0.0,30.0,6.0,0.0
14501,56.0,0.0,60.0,1.0,0.0
14502,59.0,30.0,30.0,4.0,0.0
14503,58.0,0.0,30.0,6.0,0.0
14504,58.0,0.0,30.0,0.0,0.0
14505,58.0,30.0,30.0,4.0,0.0
14506,59.0,0.0,30.0,4.0,0.0
14507,56.0,60.0,60.0,2.0,0.0
14508,59.0,0.0,60.0,1.0,0.0
14509,59.0,30.0,30.0,6.0,0.0
14510,59.0,0.0,30.0,0.0,0.0
14511,58.0,0.0,30.0,0.0,0.0
14512,58.0,0.0,30.0,6.0,0.0
14513,58.0,0.0,30.0,4.0,0.0
14514,63.0,0.0,60.0,1.0,0.0
14515,59.0,0.0,60.0,2.0,0.0
14516,56.0,0.0,60.0,0.0,0.0
14517,56.0,60.0,60.0,4.0,0.0
14518,56.0,0.0,60.0,6.0,0.0
14519,56.0,0.0,60.0,7.0,0.0
14520,71.0,0.0,60.0,0.0,0.0
14521,56.0,0.0,60.0,5.0,0.0
14522,56.0,0.0,60.0,3.0,0.0
14523,71.0,0.0,60.0,4.0,0.0
14524,71.0,30.0,60.0,6.0,0.0
14525,68.0,0.0,60.0,1.0,0.0
14526,63.0,0.0,60.0,2.0,0.0
14527,54.0,0.0,30.0,7.0,0.0
14528,70.0,0.0,60.0,1.0,0.0
14529,51.0,0.0,60.0,2.0,0.0
14530,54.0,0.0,30.0,3.0,0.0
14531,70.0,0.0,60.0,6.0,0.0
14532,70.0,0.0,60.0,0.0,0.0
14533,70.0,30.0,60.0,4.0,0.0
14534,54.0,30.0,30.0,5.0,0.0
14535,56.0,0.0,30.0,5.0,0.0
14536,56.0,0.0,30.0,7.0,0.0
14537,56.0,0.0,30.0,3.0,0.0
14538,75.0,0.0,120.0,0.0,0.0
14539,51.0,0.0,60.0,2.0,0.0
14540,75.0,0.0,120.0,6.0,0.0
14541,54.0,0.0,30.0,5.0,0.0
14542,75.0,0.0,120.0,4.0,0.0
14543,54.0,30.0,30.0,7.0,0.0
14544,54.0,0.0,30.0,3.0,0.0
14545,58.0,0.0,60.0,1.0,0.0
14546,56.0,0.0,30.0,5.0,0.0
14547,56.0,30.0,30.0,7.0,0.0
14548,56.0,0.0,30.0,3.0,0.0
14549,52.0,0.0,30.0,7.0,0.0
14550,56.0,0.0,60.0,2.0,0.0
14551,59.0,0.0,60.0,1.0,0.0
14552,52.0,0.0,30.0,3.0,0.0
14553,52.0,30.0,30.0,5.0,0.0
14554,54.0,0.0,30.0,5.0,0.0
14555,54.0,30.0,30.0,3.0,0.0
14556,54.0,0.0,30.0,7.0,0.0
14557,68.0,0.0,60.0,6.0,0.0
14558,68.0,0.0,60.0,4.0,0.0
14559,52.0,0.0,30.0,3.0,0.0
14560,61.0,0.0,60.0,1.0,0.0
14561,52.0,0.0,30.0,7.0,0.0
14562,56.0,0.0,60.0,2.0,0.0
14563,52.0,30.0,30.0,5.0,0.0
14564,68.0,0.0,60.0,0.0,0.0
14565,54.0,30.0,30.0,3.0,0.0
14566,54.0,0.0,30.0,7.0,0.0
14567,54.0,0.0,30.0,5.0,0.0
14568,51.0,0.0,60.0,3.0,0.0
14569,58.0,0.0,30.0,2.0,0.0
14570,51.0,0.0,60.0,5.0,0.0
14571,63.0,0.0,30.0,1.0,0.0
14572,51.0,0.0,60.0,7.0,0.0
14573,67.0,30.0,30.0,6.0,0.0
14574,67.0,0.0,30.0,4.0,0.0
14575,67.0,0.0,30.0,0.0,0.0
14576,56.0,30.0,30.0,2.0,0.0
14577,65.0,0.0,30.0,4.0,0.0
14578,65.0,0.0,30.0,1.0,0.0
14579,65.0,0.0,30.0,6.0,0.0
14580,65.0,0.0,30.0,0.0,0.0
14581,58.0,0.0,30.0,2.0,0.0
14582,67.0,0.0,30.0,0.0,0.0
14583,46.0,0.0,60.0,7.0,0.0
14584,46.0,0.0,60.0,5.0,0.0
14585,67.0,0.0,30.0,6.0,0.0
14586,63.0,0.0,30.0,1.0,0.0
14587,46.0,0.0,60.0,3.0,0.0
14588,67.0,30.0,30.0,4.0,0.0
14589,65.0,30.0,30.0,1.0,0.0
14590,65.0,0.0,30.0,0.0,0.0
14591,56.0,0.0,30.0,2.0,0.0
14592,65.0,0.0,30.0,6.0,0.0
14593,65.0,0.0,30.0,4.0,0.0
14594,67.0,0.0,60.0,1.0,0.0
14595,63.0,30.0,30.0,4.0,0.0
14596,39.0,30.0,60.0,7.0,0.0
14597,63.0,0.0,60.0,6.0,0.0
14598,39.0,0.0,60.0,3.0,0.0
14599,58.0,0.0,60.0,2.0,0.0
14600,39.0,0.0,60.0,5.0,0.0
14601,63.0,0.0,60.0,0.0,0.0
14602,61.0,0.0,30.0,4.0,0.0
14603,63.0,30.0,60.0,6.0,0.0
14604,59.0,30.0,30.0,4.0,0.0
14605,58.0,0.0,30.0,4.0,0.0
14606,59.0,30.0,30.0,4.0,0.0
14607,68.0,0.0,60.0,6.0,0.0
14608,63.0,30.0,30.0,4.0,0.0
14609,63.0,0.0,60.0,6.0,0.0
14610,59.0,30.0,30.0,4.0,0.0
14611,56.0,30.0,30.0,4.0,0.0
14612,70.0,0.0,60.0,6.0,0.0
14613,55.0,30.0,30.0,4.0,0.0
14614,58.0,30.0,30.0,4.0,0.0
14615,63.0,0.0,60.0,6.0,0.0
14616,55.0,30.0,30.0,4.0,0.0
14617,51.0,30.0,30.0,4.0,0.0
14618,56.0,30.0,30.0,4.0,0.0
14619,71.0,0.0,60.0,6.0,0.0
14620,59.0,30.0,30.0,4.0,0.0
14621,63.0,0.0,60.0,6.0,0.0
14622,56.0,30.0,30.0,4.0,0.0
14623,51.0,30.0,30.0,4.0,0.0
14624,73.0,0.0,60.0,6.0,0.0
14625,58.0,30.0,30.0,4.0,0.0
14626,61.0,30.0,30.0,4.0,0.0
14627,58.0,30.0,30.0,4.0,0.0
14628,55.0,30.0,60.0,1.0,0.0
14629,55.0,0.0,60.0,0.0,0.0
14630,39.0,0.0,60.0,3.0,0.0
14631,63.0,0.0,60.0,6.0,0.0
14632,39.0,0.0,60.0,5.0,0.0
14633,55.0,0.0,60.0,2.0,0.0
14634,39.0,0.0,60.0,7.0,0.0
14635,51.0,0.0,30.0,4.0,0.0
14636,44.0,0.0,60.0,3.0,0.0
14637,44.0,0.0,60.0,7.0,0.0
14638,56.0,0.0,60.0,0.0,0.0
14639,56.0,0.0,60.0,1.0,0.0
14640,71.0,30.0,30.0,6.0,0.0
14641,63.0,0.0,30.0,4.0,0.0
14642,44.0,0.0,60.0,5.0,0.0
14643,56.0,0.0,60.0,2.0,0.0
14644,70.0,30.0,30.0,6.0,0.0
14645,70.0,0.0,30.0,4.0,0.0
14646,35.0,0.0,60.0,3.0,0.0
14647,51.0,0.0,60.0,2.0,0.0
14648,51.0,0.0,60.0,0.0,0.0
14649,71.0,0.0,30.0,4.0,0.0
14650,35.0,30.0,60.0,5.0,0.0
14651,51.0,0.0,60.0,1.0,0.0
14652,35.0,0.0,60.0,7.0,0.0
14653,68.0,30.0,30.0,6.0,0.0
14654,68.0,0.0,30.0,4.0,0.0
14655,71.0,0.0,30.0,6.0,0.0
14656,70.0,30.0,30.0,6.0,0.0
14657,37.0,0.0,60.0,3.0,0.0
14658,58.0,0.0,60.0,1.0,0.0
14659,58.0,0.0,60.0,2.0,0.0
14660,37.0,30.0,60.0,7.0,0.0
14661,58.0,0.0,60.0,0.0,0.0
14662,37.0,0.0,60.0,5.0,0.0
14663,70.0,0.0,30.0,4.0,0.0
14664,71.0,0.0,30.0,4.0,0.0
14665,68.0,0.0,30.0,6.0,0.0
14666,51.0,0.0,60.0,0.0,0.0
14667,39.0,0.0,60.0,7.0,0.0
14668,39.0,0.0,60.0,5.0,0.0
14669,39.0,30.0,60.0,3.0,0.0
14670,67.0,30.0,30.0,6.0,0.0
14671,51.0,0.0,60.0,2.0,0.0
14672,73.0,0.0,30.0,4.0,0.0
14673,51.0,0.0,60.0,1.0,0.0
14674,67.0,0.0,30.0,4.0,0.0
14675,70.0,0.0,30.0,6.0,0.0
14676,32.0,0.0,60.0,5.0,0.0
14677,59.0,0.0,30.0,1.0,0.0
14678,68.0,0.0,120.0,4.0,0.0
14679,32.0,0.0,60.0,7.0,0.0
14680,32.0,0.0,60.0,3.0,0.0
14681,59.0,30.0,30.0,0.0,0.0
14682,59.0,0.0,30.0,2.0,0.0
14683,68.0,0.0,30.0,6.0,0.0
14684,67.0,0.0,30.0,6.0,0.0
14685,58.0,0.0,30.0,0.0,0.0
14686,58.0,0.0,30.0,1.0,0.0
14687,58.0,30.0,30.0,2.0,0.0
14688,39.0,0.0,60.0,3.0,0.0
14689,59.0,0.0,30.0,1.0,0.0
14690,68.0,0.0,30.0,6.0,0.0
14691,59.0,30.0,30.0,0.0,0.0
14692,39.0,0.0,60.0,7.0,0.0
14693,39.0,0.0,60.0,5.0,0.0
14694,59.0,0.0,30.0,2.0,0.0
14695,58.0,0.0,30.0,2.0,0.0
14696,67.0,0.0,30.0,6.0,0.0
14697,58.0,0.0,30.0,1.0,0.0
14698,58.0,30.0,30.0,0.0,0.0
14699,56.0,0.0,60.0,2.0,0.0
14700,44.0,0.0,60.0,5.0,0.0
14701,56.0,0.0,60.0,0.0,0.0
14702,68.0,30.0,30.0,6.0,0.0
14703,56.0,0.0,60.0,1.0,0.0
14704,44.0,30.0,60.0,3.0,0.0
14705,44.0,0.0,60.0,7.0,0.0
14706,70.0,0.0,30.0,6.0,0.0
14707,70.0,0.0,30.0,4.0,0.0
14708,66.0,30.0,30.0,4.0,0.0
14709,71.0,0.0,30.0,6.0,0.0
14710,68.0,0.0,30.0,4.0,0.0
14711,68.0,30.0,30.0,6.0,0.0
14712,64.0,30.0,30.0,4.0,0.0
14713,73.0,30.0,60.0,6.0,0.0
14714,68.0,0.0,30.0,4.0,0.0
14715,68.0,0.0,60.0,6.0,0.0
14716,64.0,30.0,30.0,4.0,0.0
14717,61.0,30.0,30.0,4.0,0.0
14718,75.0,0.0,60.0,6.0,0.0
14719,60.0,30.0,30.0,4.0,0.0
14720,63.0,30.0,30.0,4.0,0.0
14721,68.0,0.0,60.0,6.0,0.0
14722,60.0,30.0,30.0,4.0,0.0
14723,56.0,30.0,30.0,4.0,0.0
14724,76.0,30.0,60.0,6.0,0.0
14725,61.0,30.0,30.0,4.0,0.0
14726,64.0,0.0,30.0,4.0,0.0
14727,68.0,0.0,60.0,6.0,0.0
14728,61.0,30.0,30.0,4.0,0.0
14729,56.0,30.0,30.0,4.0,0.0
14730,63.0,30.0,30.0,4.0,0.0
14731,78.0,0.0,60.0,6.0,0.0
14732,66.0,30.0,30.0,4.0,0.0
14733,60.0,0.0,60.0,2.0,0.0
14734,44.0,0.0,60.0,5.0,0.0
14735,63.0,30.0,30.0,4.0,0.0
14736,44.0,0.0,60.0,3.0,0.0
14737,44.0,0.0,60.0,7.0,0.0
14738,60.0,30.0,60.0,1.0,0.0
14739,60.0,0.0,60.0,0.0,0.0
14740,68.0,0.0,60.0,6.0,0.0
14741,56.0,0.0,30.0,4.0,0.0
14742,49.0,0.0,60.0,3.0,0.0
14743,68.0,30.0,30.0,4.0,0.0
14744,76.0,0.0,30.0,6.0,0.0
14745,61.0,0.0,60.0,0.0,0.0
14746,49.0,30.0,60.0,7.0,0.0
14747,61.0,0.0,60.0,1.0,0.0
14748,61.0,0.0,60.0,2.0,0.0
14749,49.0,0.0,60.0,5.0,0.0
14750,75.0,0.0,30.0,4.0,0.0
14751,75.0,0.0,30.0,6.0,0.0
14752,76.0,0.0,30.0,4.0,0.0
14753,73.0,30.0,30.0,6.0,0.0
14754,56.0,0.0,60.0,2.0,0.0
14755,40.0,0.0,60.0,7.0,0.0
14756,40.0,0.0,60.0,3.0,0.0
14757,56.0,0.0,60.0,0.0,0.0
14758,40.0,30.0,60.0,5.0,0.0
14759,56.0,0.0,60.0,1.0,0.0
14760,76.0,0.0,30.0,6.0,0.0
14761,73.0,0.0,30.0,4.0,0.0
14762,75.0,0.0,30.0,6.0,0.0
14763,42.0,0.0,60.0,3.0,0.0
14764,63.0,0.0,60.0,0.0,0.0
14765,42.0,0.0,60.0,5.0,0.0
14766,63.0,0.0,60.0,2.0,0.0
14767,63.0,30.0,60.0,1.0,0.0
14768,42.0,0.0,60.0,7.0,0.0
14769,75.0,30.0,30.0,4.0,0.0
14770,76.0,0.0,30.0,4.0,0.0
14771,73.0,0.0,30.0,6.0,0.0
14772,78.0,0.0,30.0,4.0,0.0
14773,44.0,30.0,60.0,3.0,0.0
14774,56.0,0.0,60.0,2.0,0.0
14775,56.0,0.0,60.0,0.0,0.0
14776,56.0,0.0,60.0,1.0,0.0
14777,44.0,0.0,60.0,7.0,0.0
14778,44.0,0.0,60.0,5.0,0.0
14779,72.0,30.0,30.0,6.0,0.0
14780,72.0,0.0,30.0,4.0,0.0
14781,75.0,0.0,30.0,6.0,0.0
14782,73.0,0.0,60.0,6.0,0.0
14783,37.0,0.0,60.0,5.0,0.0
14784,64.0,0.0,30.0,1.0,0.0
14785,37.0,0.0,60.0,3.0,0.0
14786,64.0,0.0,30.0,0.0,0.0
14787,73.0,30.0,30.0,4.0,0.0
14788,37.0,30.0,60.0,7.0,0.0
14789,64.0,0.0,30.0,2.0,0.0
14790,63.0,0.0,30.0,1.0,0.0
14791,75.0,0.0,30.0,4.0,0.0
14792,63.0,0.0,30.0,0.0,0.0
14793,63.0,0.0,30.0,2.0,0.0
14794,64.0,30.0,30.0,2.0,0.0
14795,76.0,0.0,30.0,4.0,0.0
14796,44.0,0.0,60.0,7.0,0.0
14797,64.0,0.0,30.0,1.0,0.0
14798,64.0,0.0,30.0,0.0,0.0
14799,44.0,0.0,60.0,3.0,0.0
14800,44.0,0.0,60.0,5.0,0.0
14801,61.0,30.0,60.0,6.0,0.0
14802,78.0,0.0,30.0,4.0,0.0
14803,63.0,0.0,30.0,0.0,0.0
14804,63.0,0.0,30.0,2.0,0.0
14805,63.0,0.0,30.0,1.0,0.0
14806,61.0,30.0,60.0,1.0,0.0
14807,61.0,0.0,60.0,0.0,0.0
14808,68.0,0.0,180.0,6.0,0.0
14809,61.0,0.0,60.0,2.0,0.0
14810,49.0,0.0,60.0,3.0,0.0
14811,76.0,30.0,30.0,4.0,0.0
14812,49.0,0.0,30.0,7.0,0.0
14813,49.0,0.0,60.0,5.0,0.0
14814,75.0,0.0,30.0,4.0,0.0
14815,51.0,0.0,30.0,7.0,0.0
14816,52.0,0.0,30.0,7.0,0.0
14817,73.0,30.0,30.0,4.0,0.0
14818,52.0,30.0,60.0,3.0,0.0
14819,37.0,0.0,60.0,5.0,0.0
14820,71.0,0.0,30.0,4.0,0.0
14821,49.0,0.0,30.0,7.0,0.0
14822,69.0,0.0,240.0,2.0,0.0
14823,69.0,0.0,30.0,4.0,0.0
14824,54.0,0.0,60.0,3.0,0.0
14825,54.0,0.0,60.0,7.0,0.0
14826,42.0,30.0,30.0,5.0,0.0
14827,73.0,30.0,30.0,4.0,0.0
14828,45.0,0.0,30.0,5.0,0.0
14829,52.0,0.0,60.0,3.0,0.0
14830,49.0,0.0,30.0,5.0,0.0
14831,69.0,30.0,30.0,6.0,0.0
14832,52.0,0.0,60.0,7.0,0.0
14833,78.0,0.0,30.0,4.0,0.0
14834,52.0,0.0,30.0,5.0,0.0
14835,80.0,0.0,30.0,4.0,0.0
14836,68.0,30.0,30.0,6.0,0.0
14837,81.0,0.0,30.0,4.0,0.0
14838,51.0,30.0,60.0,5.0,0.0
14839,51.0,0.0,60.0,3.0,0.0
14840,51.0,30.0,30.0,7.0,0.0
14841,66.0,0.0,60.0,6.0,0.0
14842,78.0,0.0,30.0,4.0,0.0
14843,59.0,0.0,30.0,7.0,0.0
14844,66.0,0.0,60.0,6.0,0.0
14845,75.0,30.0,30.0,4.0,0.0
14846,57.0,0.0,30.0,7.0,0.0
14847,47.0,0.0,60.0,3.0,0.0
14848,59.0,0.0,60.0,5.0,0.0
14849,59.0,15.0,30.0,7.0,0.0
14850,73.0,0.0,30.0,4.0,0.0
14851,66.0,15.0,15.0,6.0,0.0
14852,71.0,0.0,30.0,4.0,0.0
14853,64.0,0.0,30.0,5.0,0.0
14854,68.0,0.0,240.0,2.0,0.0
14855,52.0,30.0,60.0,7.0,0.0
14856,68.0,30.0,15.0,6.0,0.0
14857,66.0,0.0,30.0,6.0,0.0
14858,59.0,0.0,30.0,5.0,0.0
14859,75.0,0.0,30.0,4.0,0.0
14860,52.0,0.0,30.0,3.0,0.0
14861,56.0,0.0,30.0,5.0,0.0
14862,64.0,0.0,60.0,6.0,0.0
14863,76.0,30.0,30.0,4.0,0.0
14864,56.0,0.0,60.0,7.0,0.0
14865,59.0,0.0,30.0,5.0,0.0
14866,78.0,30.0,30.0,4.0,0.0
14867,51.0,0.0,30.0,3.0,0.0
14868,49.0,0.0,60.0,3.0,0.0
14869,52.0,0.0,60.0,5.0,0.0
14870,49.0,0.0,30.0,7.0,0.0
14871,80.0,30.0,30.0,4.0,0.0
14872,61.0,0.0,30.0,7.0,0.0
14873,76.0,30.0,30.0,4.0,0.0
14874,75.0,0.0,30.0,4.0,0.0
14875,60.0,0.0,30.0,7.0,0.0
14876,45.0,30.0,30.0,3.0,0.0
14877,57.0,0.0,60.0,5.0,0.0
14878,64.0,0.0,120.0,6.0,0.0
14879,61.0,0.0,30.0,7.0,0.0
14880,73.0,30.0,30.0,4.0,0.0
14881,51.0,0.0,30.0,5.0,0.0
14882,51.0,0.0,60.0,7.0,0.0
14883,51.0,0.0,60.0,3.0,0.0
14884,66.0,0.0,240.0,2.0,0.0
14885,72.0,30.0,30.0,4.0,0.0
14886,57.0,0.0,30.0,5.0,0.0
14887,73.0,30.0,30.0,4.0,0.0
14888,66.0,0.0,30.0,6.0,0.0
14889,49.0,0.0,60.0,3.0,0.0
14890,75.0,0.0,30.0,4.0,0.0
14891,49.0,0.0,60.0,7.0,0.0
14892,54.0,30.0,30.0,5.0,0.0
14893,64.0,0.0,30.0,6.0,0.0
14894,76.0,30.0,30.0,4.0,0.0
14895,57.0,0.0,30.0,5.0,0.0
14896,48.0,0.0,30.0,7.0,0.0
14897,48.0,0.0,60.0,3.0,0.0
14898,78.0,30.0,30.0,4.0,0.0
14899,48.0,0.0,60.0,5.0,0.0
14900,63.0,0.0,60.0,6.0,0.0
14901,56.0,0.0,30.0,7.0,0.0
14902,75.0,30.0,30.0,4.0,0.0
14903,56.0,15.0,60.0,5.0,0.0
14904,44.0,0.0,60.0,3.0,0.0
14905,63.0,0.0,60.0,6.0,0.0
14906,54.0,0.0,30.0,7.0,0.0
14907,72.0,30.0,30.0,4.0,0.0
14908,56.0,0.0,30.0,7.0,0.0
14909,70.0,0.0,30.0,4.0,0.0
14910,49.0,0.0,60.0,7.0,0.0
14911,64.0,0.0,240.0,2.0,0.0
14912,68.0,0.0,30.0,4.0,0.0
14913,63.0,15.0,15.0,6.0,0.0
14914,61.0,0.0,30.0,5.0,0.0
14915,64.0,30.0,15.0,6.0,0.0
14916,56.0,0.0,30.0,5.0,0.0
14917,72.0,0.0,30.0,4.0,0.0
14918,63.0,30.0,30.0,6.0,0.0
14919,73.0,0.0,30.0,4.0,0.0
14920,52.0,0.0,60.0,7.0,0.0
14921,52.0,0.0,30.0,5.0,0.0
14922,49.0,30.0,30.0,3.0,0.0
14923,61.0,0.0,60.0,6.0,0.0
14924,75.0,0.0,30.0,4.0,0.0
14925,56.0,0.0,30.0,5.0,0.0
14926,47.0,30.0,30.0,3.0,0.0
14927,46.0,0.0,60.0,3.0,0.0
14928,49.0,0.0,60.0,5.0,0.0
14929,76.0,30.0,30.0,4.0,0.0
14930,46.0,0.0,30.0,7.0,0.0
14931,73.0,0.0,30.0,4.0,0.0
14932,49.0,30.0,30.0,7.0,0.0
14933,44.0,0.0,30.0,3.0,0.0
14934,73.0,0.0,30.0,6.0,0.0
14935,61.0,0.0,60.0,5.0,0.0
14936,70.0,30.0,30.0,4.0,0.0
14937,52.0,0.0,30.0,7.0,0.0
14938,71.0,0.0,30.0,4.0,0.0
14939,71.0,30.0,30.0,6.0,0.0
14940,44.0,0.0,30.0,7.0,0.0
14941,43.0,0.0,60.0,3.0,0.0
14942,55.0,30.0,60.0,5.0,0.0
14943,73.0,0.0,30.0,4.0,0.0
14944,43.0,30.0,30.0,7.0,0.0
14945,70.0,0.0,60.0,6.0,0.0
14946,55.0,0.0,30.0,7.0,0.0
14947,75.0,0.0,30.0,4.0,0.0
14948,58.0,0.0,30.0,7.0,0.0
14949,73.0,30.0,30.0,4.0,0.0
14950,75.0,0.0,60.0,6.0,0.0
14951,55.0,0.0,60.0,3.0,0.0
14952,51.0,0.0,60.0,5.0,0.0
14953,63.0,0.0,60.0,2.0,0.0
14954,75.0,0.0,30.0,4.0,0.0
14955,55.0,30.0,30.0,7.0,0.0
14956,68.0,30.0,60.0,6.0,0.0
14957,63.0,0.0,60.0,2.0,0.0
14958,71.0,0.0,30.0,4.0,0.0
14959,56.0,0.0,60.0,7.0,0.0
14960,56.0,30.0,30.0,5.0,0.0
14961,56.0,0.0,60.0,3.0,0.0
14962,55.0,0.0,30.0,5.0,0.0
14963,73.0,0.0,30.0,4.0,0.0
14964,76.0,0.0,60.0,6.0,0.0
14965,56.0,0.0,30.0,5.0,0.0
14966,49.0,0.0,60.0,7.0,0.0
14967,49.0,0.0,60.0,3.0,0.0
14968,68.0,0.0,60.0,2.0,0.0
14969,71.0,30.0,30.0,4.0,0.0
14970,49.0,30.0,30.0,5.0,0.0
14971,73.0,0.0,30.0,4.0,0.0
14972,51.0,0.0,60.0,5.0,0.0
14973,63.0,0.0,120.0,2.0,0.0
14974,70.0,0.0,30.0,4.0,0.0
14975,51.0,29.0,300.0,7.0,0.0
14976,67.0,30.0,30.0,6.0,0.0
14977,51.0,0.0,630.0,3.0,0.0
14978,71.0,0.0,30.0,4.0,0.0
14979,65.0,30.0,30.0,6.0,0.0
14980,67.0,0.0,30.0,6.0,0.0
14981,70.0,30.0,30.0,4.0,0.0
14982,63.0,30.0,60.0,5.0,0.0
14983,71.0,0.0,30.0,4.0,0.0
14984,65.0,0.0,30.0,6.0,0.0
14985,63.0,30.0,60.0,6.0,0.0
14986,73.0,30.0,30.0,4.0,0.0
14987,55.0,0.0,60.0,5.0,0.0
14988,75.0,0.0,30.0,4.0,0.0
14989,56.0,0.0,60.0,5.0,0.0
14990,63.0,30.0,60.0,1.0,0.0
14991,63.0,0.0,60.0,2.0,0.0
14992,80.0,0.0,60.0,6.0,0.0
14993,71.0,30.0,30.0,4.0,0.0
14994,63.0,0.0,60.0,0.0,0.0
14995,73.0,0.0,30.0,4.0,0.0
14996,70.0,30.0,30.0,4.0,0.0
14997,61.0,0.0,60.0,1.0,0.0
14998,79.0,0.0,30.0,6.0,0.0
14999,61.0,0.0,60.0,0.0,0.0
15000,61.0,0.0,60.0,2.0,0.0
15001,51.0,0.0,390.0,5.0,0.0
15002,71.0,0.0,30.0,4.0,0.0
15003,80.0,1.0,30.0,6.0,0.0
15004,70.0,0.0,60.0,0.0,0.0
15005,70.0,0.0,30.0,4.0,0.0
15006,70.0,0.0,60.0,2.0,0.0
15007,61.0,30.0,60.0,7.0,0.0
15008,70.0,0.0,60.0,1.0,0.0
15009,79.0,30.0,30.0,6.0,0.0
15010,71.0,0.0,30.0,4.0,0.0
15011,80.0,0.0,30.0,6.0,0.0
15012,68.0,0.0,30.0,4.0,0.0
15013,77.0,30.0,30.0,6.0,0.0
15014,51.0,30.0,60.0,7.0,0.0
15015,59.0,0.0,60.0,1.0,0.0
15016,59.0,0.0,60.0,0.0,0.0
15017,59.0,0.0,60.0,2.0,0.0
15018,79.0,0.0,30.0,6.0,0.0
15019,70.0,0.0,30.0,4.0,0.0
15020,56.0,0.0,60.0,7.0,0.0
15021,68.0,30.0,60.0,2.0,0.0
15022,68.0,0.0,30.0,4.0,0.0
15023,68.0,0.0,60.0,1.0,0.0
15024,68.0,0.0,60.0,0.0,0.0
15025,77.0,30.0,30.0,6.0,0.0
15026,79.0,0.0,30.0,6.0,0.0
15027,70.0,0.0,30.0,4.0,0.0
15028,51.0,29.0,150.0,7.0,0.0
15029,75.0,0.0,60.0,6.0,0.0
15030,67.0,0.0,30.0,4.0,0.0
15031,58.0,0.0,30.0,1.0,0.0
15032,58.0,30.0,30.0,2.0,0.0
15033,58.0,0.0,30.0,0.0,0.0
15034,58.0,0.0,60.0,7.0,0.0
15035,65.0,0.0,30.0,4.0,0.0
15036,56.0,30.0,30.0,0.0,0.0
15037,56.0,0.0,30.0,1.0,0.0
15038,56.0,0.0,30.0,2.0,0.0
15039,70.0,31.0,60.0,6.0,0.0
15040,67.0,0.0,30.0,4.0,0.0
15041,63.0,0.0,60.0,7.0,0.0
15042,58.0,0.0,30.0,0.0,0.0
15043,58.0,0.0,30.0,1.0,0.0
15044,58.0,30.0,30.0,2.0,0.0
15045,56.0,0.0,30.0,2.0,0.0
15046,56.0,0.0,30.0,0.0,0.0
15047,56.0,0.0,30.0,1.0,0.0
15048,65.0,0.0,30.0,4.0,0.0
15049,55.0,0.0,60.0,2.0,0.0
15050,63.0,0.0,60.0,6.0,0.0
15051,55.0,0.0,60.0,1.0,0.0
15052,55.0,30.0,60.0,0.0,0.0
15053,63.0,0.0,60.0,4.0,0.0
15054,52.0,0.0,30.0,5.0,0.0
15055,52.0,0.0,30.0,3.0,0.0
15056,52.0,0.0,30.0,7.0,0.0
15057,68.0,0.0,60.0,4.0,0.0
15058,49.0,0.0,30.0,3.0,0.0
15059,68.0,0.0,60.0,6.0,0.0
15060,68.0,30.0,60.0,0.0,0.0
15061,49.0,0.0,30.0,5.0,0.0
15062,49.0,30.0,30.0,7.0,0.0
15063,51.0,0.0,30.0,3.0,0.0
15064,51.0,0.0,30.0,5.0,0.0
15065,51.0,0.0,30.0,7.0,0.0
15066,63.0,0.0,60.0,0.0,0.0
15067,63.0,0.0,60.0,6.0,0.0
15068,47.0,0.0,30.0,7.0,0.0
15069,47.0,0.0,30.0,5.0,0.0
15070,47.0,30.0,30.0,3.0,0.0
15071,63.0,0.0,60.0,4.0,0.0
15072,49.0,0.0,30.0,3.0,0.0
15073,49.0,0.0,30.0,5.0,0.0
15074,49.0,30.0,30.0,7.0,0.0
15075,47.0,30.0,30.0,7.0,0.0
15076,68.0,0.0,60.0,4.0,0.0
15077,47.0,0.0,30.0,5.0,0.0
15078,68.0,0.0,60.0,0.0,0.0
15079,68.0,30.0,60.0,6.0,0.0
15080,47.0,0.0,30.0,3.0,0.0
15081,49.0,0.0,30.0,3.0,0.0
15082,49.0,0.0,30.0,5.0,0.0
15083,49.0,0.0,30.0,7.0,0.0
15084,61.0,0.0,60.0,4.0,0.0
15085,46.0,0.0,30.0,7.0,0.0
15086,61.0,0.0,60.0,6.0,0.0
15087,46.0,30.0,30.0,5.0,0.0
15088,61.0,30.0,60.0,0.0,0.0
15089,46.0,0.0,30.0,3.0,0.0
15090,47.0,0.0,30.0,7.0,0.0
15091,47.0,0.0,30.0,3.0,0.0
15092,47.0,0.0,30.0,5.0,0.0
15093,68.0,30.0,60.0,6.0,0.0
15094,68.0,0.0,60.0,4.0,0.0
15095,46.0,30.0,30.0,7.0,0.0
15096,46.0,0.0,30.0,3.0,0.0
15097,46.0,0.0,30.0,5.0,0.0
15098,68.0,0.0,60.0,0.0,0.0
15099,47.0,0.0,30.0,5.0,0.0
15100,47.0,0.0,30.0,7.0,0.0
15101,47.0,0.0,30.0,3.0,0.0
15102,59.0,0.0,30.0,0.0,0.0
15103,59.0,0.0,30.0,4.0,0.0
15104,44.0,0.0,60.0,7.0,0.0
15105,59.0,30.0,30.0,6.0,0.0
15106,44.0,0.0,60.0,3.0,0.0
15107,44.0,0.0,60.0,5.0,0.0
15108,58.0,0.0,30.0,6.0,0.0
15109,58.0,30.0,30.0,0.0,0.0
15110,51.0,0.0,30.0,4.0,0.0
15111,56.0,0.0,30.0,4.0,0.0
15112,51.0,0.0,60.0,3.0,0.0
15113,59.0,30.0,30.0,0.0,0.0
15114,51.0,30.0,60.0,5.0,0.0
15115,39.0,0.0,60.0,7.0,0.0
15116,59.0,0.0,30.0,6.0,0.0
15117,58.0,0.0,30.0,0.0,0.0
15118,58.0,0.0,30.0,6.0,0.0
15119,58.0,0.0,30.0,4.0,0.0
15120,56.0,0.0,60.0,0.0,0.0
15121,59.0,30.0,30.0,4.0,0.0
15122,32.0,0.0,60.0,7.0,0.0
15123,56.0,0.0,60.0,5.0,0.0
15124,47.0,0.0,60.0,3.0,0.0
15125,56.0,30.0,60.0,6.0,0.0
15126,63.0,0.0,30.0,4.0,0.0
15127,71.0,0.0,60.0,6.0,0.0
15128,68.0,30.0,60.0,1.0,0.0
15129,44.0,0.0,60.0,7.0,0.0
15130,44.0,0.0,60.0,3.0,0.0
15131,44.0,0.0,60.0,5.0,0.0
15132,71.0,0.0,60.0,0.0,0.0
15133,63.0,0.0,60.0,2.0,0.0
15134,68.0,30.0,30.0,4.0,0.0
15135,71.0,0.0,30.0,4.0,0.0
15136,42.0,30.0,30.0,3.0,0.0
15137,70.0,30.0,60.0,4.0,0.0
15138,51.0,0.0,60.0,2.0,0.0
15139,70.0,0.0,60.0,1.0,0.0
15140,42.0,0.0,30.0,5.0,0.0
15141,70.0,0.0,60.0,6.0,0.0
15142,70.0,0.0,60.0,0.0,0.0
15143,42.0,0.0,30.0,7.0,0.0
15144,44.0,0.0,30.0,5.0,0.0
15145,44.0,0.0,30.0,3.0,0.0
15146,44.0,0.0,30.0,7.0,0.0
15147,75.0,0.0,120.0,4.0,0.0
15148,75.0,0.0,120.0,6.0,0.0
15149,42.0,30.0,30.0,5.0,0.0
15150,58.0,0.0,60.0,1.0,0.0
15151,42.0,0.0,30.0,3.0,0.0
15152,51.0,0.0,60.0,2.0,0.0
15153,75.0,0.0,120.0,0.0,0.0
15154,42.0,0.0,30.0,7.0,0.0
15155,44.0,30.0,30.0,3.0,0.0
15156,44.0,0.0,30.0,5.0,0.0
15157,44.0,0.0,30.0,7.0,0.0
15158,40.0,0.0,30.0,7.0,0.0
15159,59.0,0.0,60.0,1.0,0.0
15160,56.0,0.0,60.0,2.0,0.0
15161,40.0,0.0,30.0,5.0,0.0
15162,40.0,30.0,30.0,3.0,0.0
15163,42.0,0.0,30.0,3.0,0.0
15164,42.0,0.0,30.0,7.0,0.0
15165,42.0,30.0,30.0,5.0,0.0
15166,40.0,0.0,30.0,3.0,0.0
15167,56.0,0.0,60.0,2.0,0.0
15168,68.0,30.0,60.0,4.0,0.0
15169,68.0,0.0,60.0,0.0,0.0
15170,40.0,30.0,30.0,5.0,0.0
15171,40.0,0.0,30.0,7.0,0.0
15172,61.0,0.0,60.0,1.0,0.0
15173,68.0,0.0,60.0,6.0,0.0
15174,42.0,0.0,30.0,7.0,0.0
15175,42.0,0.0,30.0,5.0,0.0
15176,42.0,0.0,30.0,3.0,0.0
15177,39.0,0.0,60.0,3.0,0.0
15178,67.0,0.0,30.0,4.0,0.0
15179,39.0,0.0,60.0,5.0,0.0
15180,67.0,30.0,30.0,6.0,0.0
15181,39.0,0.0,60.0,7.0,0.0
15182,58.0,0.0,60.0,2.0,0.0
15183,63.0,0.0,30.0,1.0,0.0
15184,67.0,0.0,30.0,0.0,0.0
15185,65.0,0.0,30.0,4.0,0.0
15186,65.0,30.0,30.0,0.0,0.0
15187,65.0,0.0,30.0,1.0,0.0
15188,65.0,0.0,30.0,6.0,0.0
15189,63.0,0.0,30.0,1.0,0.0
15190,67.0,0.0,30.0,0.0,0.0
15191,46.0,0.0,60.0,7.0,0.0
15192,46.0,0.0,60.0,3.0,0.0
15193,46.0,0.0,60.0,5.0,0.0
15194,58.0,0.0,60.0,2.0,0.0
15195,67.0,0.0,30.0,4.0,0.0
15196,67.0,30.0,30.0,6.0,0.0
15197,65.0,0.0,30.0,4.0,0.0
15198,65.0,0.0,30.0,1.0,0.0
15199,65.0,0.0,30.0,6.0,0.0
15200,65.0,30.0,30.0,0.0,0.0
15201,51.0,0.0,60.0,7.0,0.0
15202,58.0,0.0,60.0,2.0,0.0
15203,63.0,0.0,30.0,6.0,0.0
15204,51.0,0.0,60.0,3.0,0.0
15205,63.0,0.0,30.0,4.0,0.0
15206,51.0,30.0,60.0,5.0,0.0
15207,63.0,0.0,30.0,0.0,0.0
15208,67.0,30.0,30.0,1.0,0.0
15209,65.0,0.0,30.0,6.0,0.0
15210,68.0,0.0,30.0,1.0,0.0
15211,65.0,0.0,30.0,4.0,0.0
15212,65.0,0.0,30.0,0.0,0.0
15213,67.0,0.0,30.0,6.0,0.0
15214,67.0,30.0,30.0,4.0,0.0
15215,58.0,30.0,60.0,2.0,0.0
15216,49.0,0.0,60.0,5.0,0.0
15217,49.0,0.0,60.0,7.0,0.0
15218,70.0,0.0,30.0,1.0,0.0
15219,49.0,0.0,60.0,3.0,0.0
15220,67.0,0.0,30.0,0.0,0.0
15221,63.0,0.0,30.0,6.0,0.0
15222,67.0,0.0,30.0,1.0,0.0
15223,63.0,0.0,30.0,0.0,0.0
15224,63.0,0.0,30.0,4.0,0.0
15225,68.0,0.0,60.0,0.0,0.0
15226,63.0,0.0,60.0,1.0,0.0
15227,59.0,0.0,60.0,2.0,0.0
15228,68.0,0.0,60.0,4.0,0.0
15229,47.0,0.0,30.0,7.0,0.0
15230,68.0,0.0,60.0,6.0,0.0
15231,47.0,30.0,30.0,3.0,0.0
15232,47.0,0.0,30.0,5.0,0.0
15233,49.0,0.0,30.0,7.0,0.0
15234,49.0,30.0,30.0,3.0,0.0
15235,49.0,0.0,30.0,5.0,0.0
15236,63.0,0.0,60.0,0.0,0.0
15237,63.0,0.0,60.0,4.0,0.0
15238,47.0,30.0,30.0,3.0,0.0
15239,59.0,0.0,60.0,2.0,0.0
15240,63.0,0.0,60.0,6.0,0.0
15241,47.0,0.0,30.0,5.0,0.0
15242,68.0,0.0,120.0,1.0,0.0
15243,47.0,0.0,30.0,7.0,0.0
15244,49.0,0.0,30.0,3.0,0.0
15245,49.0,0.0,30.0,5.0,0.0
15246,49.0,30.0,30.0,7.0,0.0
15247,46.0,30.0,30.0,3.0,0.0
15248,70.0,0.0,60.0,6.0,0.0
15249,61.0,30.0,60.0,2.0,0.0
15250,70.0,0.0,60.0,0.0,0.0
15251,46.0,0.0,30.0,5.0,0.0
15252,46.0,0.0,30.0,7.0,0.0
15253,70.0,0.0,60.0,4.0,0.0
15254,47.0,0.0,30.0,5.0,0.0
15255,47.0,0.0,30.0,7.0,0.0
15256,47.0,0.0,30.0,3.0,0.0
15257,46.0,0.0,30.0,5.0,0.0
15258,63.0,0.0,60.0,4.0,0.0
15259,46.0,30.0,30.0,3.0,0.0
15260,67.0,0.0,60.0,1.0,0.0
15261,63.0,30.0,60.0,0.0,0.0
15262,46.0,0.0,30.0,7.0,0.0
15263,63.0,0.0,60.0,6.0,0.0
15264,61.0,0.0,60.0,2.0,0.0
15265,47.0,0.0,30.0,3.0,0.0
15266,47.0,0.0,30.0,7.0,0.0
15267,47.0,0.0,30.0,5.0,0.0
15268,68.0,0.0,120.0,4.0,0.0
15269,73.0,0.0,60.0,4.0,0.0
15270,44.0,0.0,30.0,3.0,0.0
15271,63.0,0.0,120.0,4.0,0.0
15272,73.0,0.0,60.0,0.0,0.0
15273,68.0,30.0,60.0,1.0,0.0
15274,44.0,30.0,30.0,7.0,0.0
15275,63.0,0.0,180.0,2.0,0.0
15276,73.0,0.0,60.0,6.0,0.0
15277,68.0,29.0,120.0,6.0,0.0
15278,63.0,0.0,120.0,6.0,0.0
15279,44.0,0.0,30.0,5.0,0.0
15280,46.0,0.0,30.0,7.0,0.0
15281,46.0,0.0,30.0,3.0,0.0
15282,46.0,0.0,30.0,5.0,0.0
15283,63.0,0.0,60.0,1.0,0.0
15284,44.0,0.0,30.0,5.0,0.0
15285,71.0,30.0,90.0,6.0,0.0
15286,44.0,30.0,30.0,3.0,0.0
15287,44.0,0.0,30.0,7.0,0.0
15288,71.0,0.0,90.0,4.0,0.0
15289,71.0,0.0,90.0,0.0,0.0
15290,46.0,0.0,30.0,7.0,0.0
15291,46.0,0.0,30.0,5.0,0.0
15292,46.0,1.0,30.0,3.0,0.0
15293,42.0,0.0,30.0,3.0,0.0
15294,42.0,0.0,30.0,7.0,0.0
15295,68.0,0.0,60.0,1.0,0.0
15296,42.0,0.0,30.0,5.0,0.0
15297,68.0,0.0,30.0,0.0,0.0
15298,44.0,30.0,30.0,3.0,0.0
15299,68.0,0.0,30.0,6.0,0.0
15300,68.0,0.0,30.0,4.0,0.0
15301,44.0,0.0,30.0,7.0,0.0
15302,44.0,0.0,30.0,5.0,0.0
15303,63.0,0.0,60.0,2.0,0.0
15304,42.0,0.0,30.0,5.0,0.0
15305,42.0,0.0,30.0,7.0,0.0
15306,42.0,30.0,30.0,3.0,0.0
15307,70.0,0.0,30.0,6.0,0.0
15308,70.0,0.0,30.0,0.0,0.0
15309,70.0,0.0,30.0,4.0,0.0
15310,63.0,0.0,60.0,1.0,0.0
15311,44.0,0.0,30.0,7.0,0.0
15312,44.0,0.0,30.0,3.0,0.0
15313,72.0,0.0,30.0,6.0,0.0
15314,72.0,0.0,30.0,4.0,0.0
15315,72.0,30.0,30.0,0.0,0.0
15316,44.0,0.0,30.0,5.0,0.0
15317,40.0,30.0,30.0,3.0,0.0
15318,40.0,0.0,30.0,5.0,0.0
15319,68.0,0.0,60.0,1.0,0.0
15320,73.0,0.0,60.0,4.0,0.0
15321,73.0,30.0,60.0,6.0,0.0
15322,40.0,0.0,30.0,7.0,0.0
15323,73.0,0.0,60.0,0.0,0.0
15324,64.0,0.0,60.0,2.0,0.0
15325,42.0,0.0,30.0,5.0,0.0
15326,42.0,0.0,30.0,3.0,0.0
15327,42.0,0.0,30.0,7.0,0.0
15328,73.0,0.0,120.0,1.0,0.0
15329,40.0,0.0,30.0,7.0,0.0
15330,40.0,30.0,30.0,3.0,0.0
15331,68.0,0.0,60.0,0.0,0.0
15332,64.0,0.0,60.0,2.0,0.0
15333,68.0,30.0,60.0,4.0,0.0
15334,68.0,0.0,60.0,6.0,0.0
15335,40.0,0.0,30.0,5.0,0.0
15336,42.0,0.0,30.0,5.0,0.0
15337,42.0,0.0,30.0,7.0,0.0
15338,42.0,0.0,30.0,3.0,0.0
15339,39.0,0.0,30.0,3.0,0.0
15340,75.0,0.0,60.0,6.0,0.0
15341,75.0,30.0,60.0,0.0,0.0
15342,66.0,0.0,60.0,2.0,0.0
15343,75.0,0.0,60.0,4.0,0.0
15344,39.0,30.0,30.0,5.0,0.0
15345,39.0,0.0,30.0,7.0,0.0
15346,40.0,0.0,30.0,5.0,0.0
15347,40.0,0.0,30.0,3.0,0.0
15348,40.0,0.0,30.0,7.0,0.0
15349,68.0,0.0,60.0,0.0,0.0
15350,39.0,0.0,30.0,5.0,0.0
15351,66.0,0.0,60.0,2.0,0.0
15352,72.0,0.0,60.0,1.0,0.0
15353,39.0,30.0,30.0,3.0,0.0
15354,68.0,0.0,60.0,4.0,0.0
15355,68.0,0.0,60.0,6.0,0.0
15356,39.0,0.0,30.0,7.0,0.0
15357,40.0,30.0,30.0,3.0,0.0
15358,40.0,0.0,30.0,7.0,0.0
15359,40.0,0.0,30.0,5.0,0.0
15360,73.0,0.0,60.0,1.0,0.0
15361,37.0,0.0,30.0,5.0,0.0
15362,78.0,0.0,60.0,4.0,0.0
15363,73.0,0.0,120.0,4.0,0.0
15364,68.0,0.0,120.0,4.0,0.0
15365,78.0,0.0,60.0,6.0,0.0
15366,37.0,0.0,30.0,7.0,0.0
15367,68.0,0.0,120.0,6.0,0.0
15368,37.0,30.0,30.0,3.0,0.0
15369,68.0,0.0,180.0,2.0,0.0
15370,78.0,0.0,60.0,0.0,0.0
15371,73.0,29.0,120.0,6.0,0.0
15372,36.0,0.0,30.0,3.0,0.0
15373,36.0,30.0,30.0,7.0,0.0
15374,36.0,0.0,30.0,5.0,0.0
15375,76.0,0.0,90.0,6.0,0.0
15376,68.0,0.0,60.0,1.0,0.0
15377,76.0,29.0,90.0,0.0,0.0
15378,76.0,0.0,90.0,4.0,0.0
15379,37.0,0.0,30.0,5.0,0.0
15380,37.0,30.0,30.0,7.0,0.0
15381,37.0,0.0,30.0,3.0,0.0
15382,39.0,0.0,30.0,7.0,0.0
15383,39.0,1.0,30.0,3.0,0.0
15384,39.0,0.0,30.0,5.0,0.0
15385,40.0,0.0,30.0,3.0,0.0
15386,73.0,0.0,60.0,1.0,0.0
15387,40.0,1.0,30.0,7.0,0.0
15388,40.0,0.0,30.0,5.0,0.0
15389,75.0,0.0,30.0,4.0,0.0
15390,75.0,0.0,30.0,0.0,0.0
15391,42.0,0.0,30.0,5.0,0.0
15392,42.0,0.0,30.0,3.0,0.0
15393,75.0,0.0,30.0,6.0,0.0
15394,42.0,30.0,30.0,7.0,0.0
15395,76.0,0.0,30.0,0.0,0.0
15396,76.0,30.0,30.0,4.0,0.0
15397,44.0,0.0,30.0,7.0,0.0
15398,61.0,30.0,60.0,2.0,0.0
15399,44.0,0.0,30.0,3.0,0.0
15400,44.0,0.0,30.0,5.0,0.0
15401,76.0,0.0,30.0,6.0,0.0
15402,68.0,0.0,60.0,1.0,0.0
15403,46.0,0.0,30.0,7.0,0.0
15404,73.0,0.0,30.0,6.0,0.0
15405,46.0,0.0,30.0,3.0,0.0
15406,73.0,0.0,30.0,0.0,0.0
15407,73.0,0.0,30.0,4.0,0.0
15408,46.0,0.0,30.0,5.0,0.0
15409,48.0,0.0,60.0,3.0,0.0
15410,68.0,0.0,30.0,4.0,0.0
15411,68.0,0.0,30.0,0.0,0.0
15412,48.0,0.0,60.0,7.0,0.0
15413,75.0,0.0,60.0,1.0,0.0
15414,48.0,30.0,60.0,5.0,0.0
15415,68.0,30.0,30.0,6.0,0.0
15416,63.0,0.0,60.0,2.0,0.0
15417,67.0,0.0,30.0,4.0,0.0
15418,67.0,0.0,30.0,0.0,0.0
15419,67.0,0.0,30.0,6.0,0.0
15420,51.0,0.0,60.0,5.0,0.0
15421,63.0,0.0,60.0,2.0,0.0
15422,68.0,0.0,30.0,6.0,0.0
15423,51.0,0.0,60.0,7.0,0.0
15424,68.0,0.0,60.0,1.0,0.0
15425,51.0,0.0,60.0,3.0,0.0
15426,68.0,30.0,30.0,0.0,0.0
15427,68.0,0.0,30.0,4.0,0.0
15428,70.0,0.0,30.0,6.0,0.0
15429,70.0,0.0,30.0,4.0,0.0
15430,70.0,30.0,30.0,0.0,0.0
15431,72.0,0.0,30.0,6.0,0.0
15432,44.0,0.0,60.0,3.0,0.0
15433,68.0,0.0,60.0,2.0,0.0
15434,72.0,30.0,30.0,4.0,0.0
15435,44.0,0.0,60.0,7.0,0.0
15436,75.0,0.0,60.0,1.0,0.0
15437,44.0,30.0,60.0,5.0,0.0
15438,72.0,0.0,30.0,0.0,0.0
15439,73.0,0.0,30.0,4.0,0.0
15440,73.0,0.0,30.0,6.0,0.0
15441,73.0,0.0,30.0,0.0,0.0
15442,75.0,0.0,30.0,6.0,0.0
15443,68.0,0.0,60.0,2.0,0.0
15444,48.0,0.0,60.0,5.0,0.0
15445,48.0,0.0,60.0,7.0,0.0
15446,75.0,30.0,30.0,4.0,0.0
15447,48.0,0.0,60.0,3.0,0.0
15448,75.0,0.0,30.0,0.0,0.0
15449,68.0,0.0,60.0,1.0,0.0
15450,76.0,0.0,30.0,6.0,0.0
15451,76.0,30.0,30.0,0.0,0.0
15452,76.0,0.0,30.0,4.0,0.0
15453,78.0,30.0,30.0,4.0,0.0
15454,73.0,30.0,60.0,1.0,0.0
15455,49.0,0.0,60.0,7.0,0.0
15456,49.0,0.0,60.0,5.0,0.0
15457,49.0,0.0,60.0,3.0,0.0
15458,78.0,0.0,30.0,0.0,0.0
15459,68.0,0.0,60.0,2.0,0.0
15460,78.0,0.0,30.0,6.0,0.0
15461,75.0,0.0,30.0,0.0,0.0
15462,75.0,0.0,30.0,4.0,0.0
15463,75.0,0.0,30.0,6.0,0.0
15464,76.0,0.0,30.0,6.0,0.0
15465,37.0,0.0,60.0,7.0,0.0
15466,68.0,30.0,60.0,1.0,0.0
15467,37.0,0.0,60.0,5.0,0.0
15468,37.0,0.0,60.0,3.0,0.0
15469,76.0,0.0,30.0,4.0,0.0
15470,64.0,0.0,60.0,2.0,0.0
15471,76.0,30.0,30.0,0.0,0.0
15472,73.0,0.0,30.0,6.0,0.0
15473,73.0,0.0,30.0,4.0,0.0
15474,73.0,0.0,30.0,0.0,0.0
15475,73.0,0.0,60.0,1.0,0.0
15476,61.0,0.0,60.0,2.0,0.0
15477,40.0,0.0,60.0,3.0,0.0
15478,68.0,30.0,30.0,4.0,0.0
15479,68.0,0.0,30.0,0.0,0.0
15480,40.0,30.0,60.0,5.0,0.0
15481,68.0,0.0,30.0,6.0,0.0
15482,40.0,0.0,60.0,7.0,0.0
15483,73.0,0.0,30.0,0.0,0.0
15484,73.0,0.0,30.0,4.0,0.0
15485,73.0,0.0,30.0,6.0,0.0
15486,61.0,0.0,60.0,2.0,0.0
15487,76.0,0.0,30.0,4.0,0.0
15488,68.0,0.0,60.0,1.0,0.0
15489,44.0,0.0,60.0,5.0,0.0
15490,76.0,30.0,30.0,6.0,0.0
15491,44.0,0.0,60.0,7.0,0.0
15492,44.0,0.0,60.0,3.0,0.0
15493,76.0,0.0,30.0,0.0,0.0
15494,73.0,0.0,30.0,0.0,0.0
15495,73.0,0.0,30.0,4.0,0.0
15496,73.0,30.0,30.0,6.0,0.0
15497,68.0,30.0,30.0,0.0,0.0
15498,48.0,0.0,60.0,5.0,0.0
15499,68.0,0.0,30.0,4.0,0.0
15500,63.0,0.0,60.0,2.0,0.0
15501,48.0,0.0,60.0,7.0,0.0
15502,75.0,30.0,60.0,1.0,0.0
15503,68.0,0.0,30.0,6.0,0.0
15504,48.0,0.0,60.0,3.0,0.0
15505,67.0,0.0,30.0,0.0,0.0
15506,67.0,0.0,30.0,4.0,0.0
15507,67.0,0.0,30.0,6.0,0.0
15508,51.0,0.0,60.0,7.0,0.0
15509,68.0,0.0,30.0,4.0,0.0
15510,68.0,30.0,30.0,0.0,0.0
15511,51.0,0.0,60.0,3.0,0.0
15512,63.0,0.0,60.0,2.0,0.0
15513,68.0,0.0,60.0,1.0,0.0
15514,51.0,0.0,60.0,5.0,0.0
15515,68.0,0.0,30.0,6.0,0.0
15516,70.0,0.0,30.0,6.0,0.0
15517,70.0,0.0,30.0,4.0,0.0
15518,70.0,30.0,30.0,0.0,0.0
15519,72.0,30.0,30.0,6.0,0.0
15520,72.0,0.0,30.0,4.0,0.0
15521,44.0,0.0,60.0,3.0,0.0
15522,44.0,0.0,60.0,7.0,0.0
15523,75.0,0.0,60.0,1.0,0.0
15524,68.0,0.0,60.0,2.0,0.0
15525,72.0,0.0,30.0,0.0,0.0
15526,44.0,0.0,60.0,5.0,0.0
15527,73.0,0.0,30.0,4.0,0.0
15528,73.0,0.0,30.0,0.0,0.0
15529,73.0,30.0,30.0,6.0,0.0
15530,75.0,0.0,30.0,6.0,0.0
15531,48.0,0.0,60.0,7.0,0.0
15532,75.0,0.0,30.0,4.0,0.0
15533,68.0,0.0,60.0,2.0,0.0
15534,75.0,30.0,30.0,0.0,0.0
15535,48.0,0.0,60.0,5.0,0.0
15536,68.0,30.0,60.0,1.0,0.0
15537,48.0,0.0,60.0,3.0,0.0
15538,76.0,0.0,30.0,0.0,0.0
15539,76.0,0.0,30.0,4.0,0.0
15540,76.0,0.0,30.0,6.0,0.0
15541,49.0,0.0,60.0,3.0,0.0
15542,49.0,0.0,60.0,7.0,0.0
15543,68.0,0.0,60.0,2.0,0.0
15544,49.0,0.0,60.0,5.0,0.0
15545,73.0,0.0,60.0,1.0,0.0
15546,78.0,30.0,30.0,0.0,0.0
15547,78.0,0.0,30.0,6.0,0.0
15548,78.0,0.0,30.0,4.0,0.0
15549,75.0,0.0,30.0,0.0,0.0
15550,75.0,0.0,30.0,4.0,0.0
15551,75.0,30.0,30.0,6.0,0.0
15552,37.0,0.0,60.0,3.0,0.0
15553,64.0,0.0,60.0,2.0,0.0
15554,76.0,30.0,30.0,6.0,0.0
15555,68.0,0.0,60.0,1.0,0.0
15556,37.0,0.0,60.0,7.0,0.0
15557,37.0,0.0,60.0,5.0,0.0
15558,76.0,0.0,30.0,0.0,0.0
15559,76.0,0.0,30.0,4.0,0.0
15560,73.0,30.0,30.0,6.0,0.0
15561,73.0,0.0,30.0,0.0,0.0
15562,73.0,0.0,30.0,4.0,0.0
15563,68.0,30.0,30.0,0.0,0.0
15564,40.0,0.0,60.0,7.0,0.0
15565,68.0,0.0,30.0,6.0,0.0
15566,68.0,0.0,30.0,4.0,0.0
15567,40.0,0.0,60.0,3.0,0.0
15568,73.0,0.0,60.0,1.0,0.0
15569,61.0,30.0,60.0,2.0,0.0
15570,40.0,0.0,60.0,5.0,0.0
15571,73.0,0.0,30.0,4.0,0.0
15572,73.0,0.0,30.0,6.0,0.0
15573,73.0,0.0,30.0,0.0,0.0
15574,76.0,0.0,30.0,4.0,0.0
15575,76.0,30.0,30.0,0.0,0.0
15576,44.0,30.0,60.0,3.0,0.0
15577,76.0,0.0,30.0,6.0,0.0
15578,68.0,0.0,60.0,1.0,0.0
15579,44.0,0.0,60.0,5.0,0.0
15580,61.0,0.0,60.0,2.0,0.0
15581,44.0,0.0,60.0,7.0,0.0
15582,73.0,0.0,30.0,0.0,0.0
15583,73.0,0.0,30.0,4.0,0.0
15584,73.0,0.0,30.0,6.0,0.0
15585,46.0,0.0,60.0,3.0,0.0
15586,61.0,0.0,60.0,2.0,0.0
15587,46.0,0.0,60.0,5.0,0.0
15588,46.0,0.0,60.0,7.0,0.0
15589,66.0,30.0,30.0,6.0,0.0
15590,73.0,0.0,60.0,1.0,0.0
15591,66.0,0.0,30.0,4.0,0.0
15592,66.0,0.0,30.0,0.0,0.0
15593,65.0,0.0,30.0,0.0,0.0
15594,65.0,0.0,30.0,6.0,0.0
15595,65.0,30.0,30.0,4.0,0.0
15596,66.0,0.0,60.0,1.0,0.0
15597,49.0,0.0,60.0,3.0,0.0
15598,49.0,0.0,60.0,7.0,0.0
15599,66.0,0.0,30.0,0.0,0.0
15600,49.0,0.0,60.0,5.0,0.0
15601,61.0,30.0,60.0,2.0,0.0
15602,66.0,0.0,30.0,6.0,0.0
15603,66.0,30.0,30.0,4.0,0.0
15604,68.0,0.0,30.0,6.0,0.0
15605,68.0,0.0,30.0,4.0,0.0
15606,68.0,0.0,30.0,0.0,0.0
15607,42.0,0.0,60.0,5.0,0.0
15608,42.0,0.0,60.0,3.0,0.0
15609,70.0,0.0,30.0,0.0,0.0
15610,66.0,0.0,60.0,2.0,0.0
15611,42.0,0.0,60.0,7.0,0.0
15612,73.0,0.0,60.0,1.0,0.0
15613,70.0,0.0,30.0,4.0,0.0
15614,70.0,30.0,30.0,6.0,0.0
15615,71.0,0.0,30.0,0.0,0.0
15616,71.0,30.0,30.0,4.0,0.0
15617,71.0,0.0,30.0,6.0,0.0
15618,46.0,0.0,60.0,3.0,0.0
15619,46.0,0.0,60.0,5.0,0.0
15620,66.0,0.0,60.0,2.0,0.0
15621,46.0,0.0,60.0,7.0,0.0
15622,73.0,0.0,30.0,6.0,0.0
15623,73.0,0.0,30.0,4.0,0.0
15624,73.0,30.0,30.0,0.0,0.0
15625,66.0,0.0,60.0,1.0,0.0
15626,75.0,0.0,30.0,6.0,0.0
15627,75.0,0.0,30.0,0.0,0.0
15628,75.0,30.0,30.0,4.0,0.0
15629,71.0,30.0,60.0,1.0,0.0
15630,47.0,0.0,60.0,3.0,0.0
15631,47.0,0.0,60.0,5.0,0.0
15632,47.0,0.0,60.0,7.0,0.0
15633,66.0,0.0,60.0,2.0,0.0
15634,76.0,30.0,30.0,0.0,0.0
15635,76.0,0.0,30.0,4.0,0.0
15636,76.0,0.0,30.0,6.0,0.0
15637,73.0,0.0,30.0,4.0,0.0
15638,73.0,0.0,30.0,6.0,0.0
15639,73.0,0.0,30.0,0.0,0.0
15640,75.0,0.0,30.0,4.0,0.0
15641,35.0,0.0,60.0,3.0,0.0
15642,63.0,30.0,60.0,2.0,0.0
15643,35.0,0.0,60.0,7.0,0.0
15644,35.0,0.0,60.0,5.0,0.0
15645,75.0,0.0,30.0,6.0,0.0
15646,75.0,30.0,30.0,0.0,0.0
15647,66.0,0.0,60.0,1.0,0.0
15648,71.0,0.0,30.0,0.0,0.0
15649,71.0,0.0,30.0,4.0,0.0
15650,71.0,0.0,30.0,6.0,0.0
15651,39.0,0.0,60.0,3.0,0.0
15652,71.0,0.0,60.0,1.0,0.0
15653,39.0,0.0,60.0,5.0,0.0
15654,39.0,0.0,60.0,7.0,0.0
15655,66.0,30.0,30.0,6.0,0.0
15656,66.0,0.0,30.0,4.0,0.0
15657,66.0,0.0,30.0,0.0,0.0
15658,59.0,0.0,60.0,2.0,0.0
15659,71.0,0.0,30.0,4.0,0.0
15660,71.0,30.0,30.0,6.0,0.0
15661,71.0,0.0,30.0,0.0,0.0
15662,75.0,30.0,30.0,4.0,0.0
15663,66.0,0.0,60.0,1.0,0.0
15664,75.0,0.0,30.0,0.0,0.0
15665,42.0,0.0,60.0,5.0,0.0
15666,75.0,0.0,30.0,6.0,0.0
15667,42.0,0.0,60.0,7.0,0.0
15668,59.0,30.0,60.0,2.0,0.0
15669,42.0,0.0,60.0,3.0,0.0
15670,71.0,0.0,30.0,6.0,0.0
15671,71.0,0.0,30.0,0.0,0.0
15672,71.0,0.0,30.0,4.0,0.0
15673,46.0,0.0,60.0,7.0,0.0
15674,46.0,0.0,60.0,5.0,0.0
15675,73.0,0.0,60.0,1.0,0.0
15676,66.0,30.0,30.0,4.0,0.0
15677,66.0,0.0,30.0,6.0,0.0
15678,46.0,0.0,60.0,3.0,0.0
15679,61.0,0.0,60.0,2.0,0.0
15680,66.0,0.0,30.0,0.0,0.0
15681,65.0,0.0,30.0,4.0,0.0
15682,65.0,30.0,30.0,0.0,0.0
15683,65.0,0.0,30.0,6.0,0.0
15684,49.0,0.0,60.0,3.0,0.0
15685,61.0,30.0,60.0,2.0,0.0
15686,66.0,30.0,30.0,4.0,0.0
15687,66.0,0.0,30.0,0.0,0.0
15688,66.0,0.0,60.0,1.0,0.0
15689,66.0,0.0,30.0,6.0,0.0
15690,49.0,0.0,60.0,7.0,0.0
15691,49.0,0.0,60.0,5.0,0.0
15692,68.0,0.0,30.0,0.0,0.0
15693,68.0,0.0,30.0,6.0,0.0
15694,68.0,0.0,30.0,4.0,0.0
15695,42.0,0.0,60.0,5.0,0.0
15696,70.0,30.0,30.0,6.0,0.0
15697,42.0,0.0,60.0,3.0,0.0
15698,70.0,0.0,30.0,0.0,0.0
15699,70.0,0.0,30.0,4.0,0.0
15700,73.0,0.0,60.0,1.0,0.0
15701,66.0,0.0,60.0,2.0,0.0
15702,42.0,0.0,60.0,7.0,0.0
15703,71.0,0.0,30.0,0.0,0.0
15704,71.0,0.0,30.0,6.0,0.0
15705,71.0,30.0,30.0,4.0,0.0
15706,73.0,0.0,30.0,4.0,0.0
15707,73.0,0.0,30.0,0.0,0.0
15708,46.0,0.0,60.0,7.0,0.0
15709,46.0,30.0,60.0,3.0,0.0
15710,66.0,0.0,60.0,1.0,0.0
15711,66.0,0.0,60.0,2.0,0.0
15712,46.0,0.0,60.0,5.0,0.0
15713,73.0,30.0,30.0,6.0,0.0
15714,75.0,0.0,30.0,0.0,0.0
15715,75.0,0.0,30.0,4.0,0.0
15716,75.0,0.0,30.0,6.0,0.0
15717,35.0,0.0,60.0,5.0,0.0
15718,35.0,30.0,60.0,7.0,0.0
15719,76.0,0.0,30.0,6.0,0.0
15720,66.0,0.0,60.0,2.0,0.0
15721,35.0,0.0,60.0,3.0,0.0
15722,76.0,30.0,30.0,0.0,0.0
15723,76.0,0.0,30.0,4.0,0.0
15724,71.0,0.0,60.0,1.0,0.0
15725,73.0,0.0,30.0,0.0,0.0
15726,73.0,0.0,30.0,4.0,0.0
15727,73.0,0.0,30.0,6.0,0.0
15728,75.0,0.0,30.0,0.0,0.0
15729,47.0,0.0,60.0,5.0,0.0
15730,47.0,0.0,60.0,7.0,0.0
15731,63.0,0.0,60.0,2.0,0.0
15732,47.0,0.0,60.0,3.0,0.0
15733,66.0,0.0,60.0,1.0,0.0
15734,75.0,0.0,30.0,6.0,0.0
15735,75.0,30.0,30.0,4.0,0.0
15736,71.0,30.0,30.0,6.0,0.0
15737,71.0,0.0,30.0,4.0,0.0
15738,71.0,0.0,30.0,0.0,0.0
15739,51.0,0.0,60.0,7.0,0.0
15740,66.0,0.0,30.0,4.0,0.0
15741,66.0,0.0,30.0,6.0,0.0
15742,51.0,0.0,60.0,3.0,0.0
15743,66.0,30.0,30.0,0.0,0.0
15744,71.0,0.0,60.0,1.0,0.0
15745,51.0,0.0,60.0,5.0,0.0
15746,59.0,0.0,60.0,2.0,0.0
15747,71.0,0.0,30.0,0.0,0.0
15748,71.0,30.0,30.0,6.0,0.0
15749,71.0,0.0,30.0,4.0,0.0
15750,75.0,0.0,30.0,4.0,0.0
15751,47.0,30.0,60.0,3.0,0.0
15752,75.0,0.0,30.0,6.0,0.0
15753,47.0,0.0,60.0,5.0,0.0
15754,75.0,30.0,30.0,0.0,0.0
15755,59.0,0.0,60.0,2.0,0.0
15756,47.0,0.0,60.0,7.0,0.0
15757,66.0,0.0,60.0,1.0,0.0
15758,71.0,0.0,30.0,6.0,0.0
15759,71.0,0.0,30.0,0.0,0.0
15760,71.0,0.0,30.0,4.0,0.0
15761,46.0,0.0,60.0,7.0,0.0
15762,46.0,0.0,60.0,3.0,0.0
15763,46.0,0.0,60.0,5.0,0.0
15764,73.0,30.0,60.0,0.0,0.0
15765,73.0,0.0,60.0,6.0,0.0
15766,73.0,0.0,60.0,4.0,0.0
15767,64.0,30.0,30.0,2.0,0.0
15768,67.0,0.0,60.0,1.0,0.0
15769,66.0,0.0,30.0,2.0,0.0
15770,64.0,30.0,30.0,2.0,0.0
15771,68.0,0.0,120.0,1.0,0.0
15772,52.0,0.0,60.0,5.0,0.0
15773,52.0,30.0,60.0,3.0,0.0
15774,52.0,0.0,60.0,7.0,0.0
15775,66.0,0.0,30.0,2.0,0.0
15776,44.0,0.0,60.0,5.0,0.0
15777,44.0,0.0,60.0,3.0,0.0
15778,44.0,0.0,60.0,7.0,0.0
15779,64.0,30.0,30.0,2.0,0.0
15780,73.0,0.0,60.0,0.0,0.0
15781,73.0,30.0,60.0,4.0,0.0
15782,73.0,0.0,60.0,6.0,0.0
15783,66.0,0.0,30.0,2.0,0.0
15784,52.0,0.0,60.0,5.0,0.0
15785,64.0,30.0,30.0,2.0,0.0
15786,52.0,0.0,60.0,7.0,0.0
15787,70.0,0.0,60.0,1.0,0.0
15788,52.0,0.0,60.0,3.0,0.0
15789,66.0,30.0,30.0,2.0,0.0
15790,43.0,0.0,30.0,5.0,0.0
15791,43.0,0.0,30.0,3.0,0.0
15792,43.0,30.0,30.0,7.0,0.0
15793,73.0,30.0,120.0,0.0,0.0
15794,63.0,0.0,30.0,2.0,0.0
15795,73.0,0.0,120.0,6.0,0.0
15796,70.0,0.0,120.0,1.0,0.0
15797,73.0,0.0,120.0,4.0,0.0
15798,41.0,0.0,30.0,5.0,0.0
15799,61.0,0.0,30.0,2.0,0.0
15800,41.0,30.0,30.0,3.0,0.0
15801,41.0,0.0,30.0,7.0,0.0
15802,43.0,30.0,30.0,5.0,0.0
15803,43.0,0.0,30.0,3.0,0.0
15804,43.0,0.0,30.0,7.0,0.0
15805,63.0,0.0,30.0,2.0,0.0
15806,41.0,0.0,30.0,3.0,0.0
15807,41.0,0.0,30.0,7.0,0.0
15808,41.0,0.0,30.0,5.0,0.0
15809,61.0,0.0,30.0,2.0,0.0
15810,63.0,30.0,120.0,2.0,0.0
15811,39.0,0.0,30.0,5.0,0.0
15812,39.0,0.0,30.0,3.0,0.0
15813,39.0,30.0,30.0,7.0,0.0
15814,41.0,30.0,30.0,7.0,0.0
15815,41.0,0.0,30.0,3.0,0.0
15816,71.0,0.0,30.0,0.0,0.0
15817,71.0,0.0,30.0,6.0,0.0
15818,71.0,0.0,30.0,4.0,0.0
15819,41.0,0.0,30.0,5.0,0.0
15820,68.0,0.0,30.0,1.0,0.0
15821,70.0,0.0,30.0,6.0,0.0
15822,43.0,0.0,30.0,5.0,0.0
15823,70.0,0.0,30.0,1.0,0.0
15824,43.0,0.0,30.0,3.0,0.0
15825,43.0,30.0,30.0,7.0,0.0
15826,70.0,0.0,30.0,4.0,0.0
15827,70.0,0.0,30.0,0.0,0.0
15828,39.0,0.0,30.0,3.0,0.0
15829,73.0,0.0,30.0,6.0,0.0
15830,73.0,0.0,30.0,4.0,0.0
15831,39.0,0.0,30.0,7.0,0.0
15832,39.0,0.0,30.0,5.0,0.0
15833,67.0,0.0,30.0,1.0,0.0
15834,73.0,0.0,30.0,0.0,0.0
15835,44.0,0.0,60.0,5.0,0.0
15836,68.0,0.0,60.0,1.0,0.0
15837,71.0,0.0,30.0,6.0,0.0
15838,44.0,0.0,60.0,3.0,0.0
15839,71.0,30.0,30.0,4.0,0.0
15840,44.0,0.0,60.0,7.0,0.0
15841,71.0,0.0,30.0,0.0,0.0
15842,64.0,30.0,30.0,2.0,0.0
15843,70.0,0.0,30.0,4.0,0.0
15844,70.0,0.0,30.0,6.0,0.0
15845,70.0,0.0,30.0,0.0,0.0
15846,63.0,30.0,30.0,2.0,0.0
15847,71.0,0.0,90.0,4.0,0.0
15848,51.0,30.0,60.0,3.0,0.0
15849,51.0,0.0,60.0,7.0,0.0
15850,51.0,0.0,60.0,5.0,0.0
15851,71.0,30.0,90.0,0.0,0.0
15852,71.0,0.0,90.0,6.0,0.0
15853,64.0,0.0,30.0,2.0,0.0
15854,42.0,0.0,60.0,7.0,0.0
15855,63.0,0.0,30.0,2.0,0.0
15856,68.0,0.0,60.0,1.0,0.0
15857,42.0,0.0,60.0,5.0,0.0
15858,42.0,30.0,60.0,3.0,0.0
15859,70.0,0.0,30.0,0.0,0.0
15860,64.0,0.0,30.0,2.0,0.0
15861,70.0,0.0,30.0,4.0,0.0
15862,70.0,0.0,30.0,6.0,0.0
15863,71.0,0.0,90.0,6.0,0.0
15864,51.0,0.0,60.0,3.0,0.0
15865,71.0,0.0,90.0,4.0,0.0
15866,63.0,30.0,30.0,2.0,0.0
15867,51.0,0.0,60.0,5.0,0.0
15868,71.0,0.0,90.0,0.0,0.0
15869,51.0,30.0,60.0,7.0,0.0
15870,64.0,0.0,30.0,2.0,0.0
15871,62.0,0.0,30.0,2.0,0.0
15872,41.0,0.0,30.0,7.0,0.0
15873,68.0,0.0,180.0,1.0,0.0
15874,41.0,30.0,30.0,3.0,0.0
15875,41.0,0.0,30.0,5.0,0.0
15876,39.0,0.0,30.0,7.0,0.0
15877,39.0,0.0,30.0,5.0,0.0
15878,63.0,0.0,30.0,2.0,0.0
15879,68.0,0.0,30.0,6.0,0.0
15880,68.0,0.0,30.0,0.0,0.0
15881,39.0,0.0,30.0,3.0,0.0
15882,68.0,30.0,30.0,4.0,0.0
15883,41.0,0.0,30.0,3.0,0.0
15884,71.0,30.0,120.0,0.0,0.0
15885,71.0,0.0,120.0,6.0,0.0
15886,71.0,0.0,120.0,4.0,0.0
15887,41.0,30.0,30.0,7.0,0.0
15888,41.0,0.0,30.0,5.0,0.0
15889,62.0,0.0,30.0,2.0,0.0
15890,39.0,0.0,30.0,5.0,0.0
15891,63.0,0.0,30.0,2.0,0.0
15892,39.0,30.0,30.0,3.0,0.0
15893,39.0,0.0,30.0,7.0,0.0
15894,38.0,0.0,30.0,3.0,0.0
15895,38.0,30.0,30.0,5.0,0.0
15896,65.0,0.0,60.0,2.0,0.0
15897,38.0,0.0,30.0,7.0,0.0
15898,39.0,0.0,30.0,3.0,0.0
15899,39.0,0.0,30.0,5.0,0.0
15900,39.0,0.0,30.0,7.0,0.0
15901,70.0,30.0,30.0,0.0,0.0
15902,41.0,0.0,30.0,7.0,0.0
15903,58.0,30.0,60.0,1.0,0.0
15904,70.0,0.0,30.0,6.0,0.0
15905,70.0,0.0,30.0,4.0,0.0
15906,41.0,0.0,30.0,3.0,0.0
15907,62.0,0.0,60.0,2.0,0.0
15908,41.0,0.0,30.0,5.0,0.0
15909,38.0,0.0,30.0,5.0,0.0
15910,68.0,0.0,30.0,4.0,0.0
15911,38.0,0.0,30.0,3.0,0.0
15912,68.0,0.0,30.0,0.0,0.0
15913,38.0,0.0,30.0,7.0,0.0
15914,68.0,0.0,30.0,6.0,0.0
15915,39.0,0.0,30.0,5.0,0.0
15916,39.0,30.0,30.0,3.0,0.0
15917,67.0,0.0,60.0,0.0,0.0
15918,58.0,0.0,60.0,2.0,0.0
15919,67.0,0.0,60.0,4.0,0.0
15920,39.0,0.0,30.0,7.0,0.0
15921,67.0,0.0,60.0,6.0,0.0
15922,63.0,0.0,60.0,1.0,0.0
15923,40.0,0.0,30.0,7.0,0.0
15924,40.0,0.0,30.0,5.0,0.0
15925,40.0,30.0,30.0,3.0,0.0
15926,39.0,30.0,30.0,3.0,0.0
15927,70.0,0.0,60.0,4.0,0.0
15928,63.0,0.0,60.0,2.0,0.0
15929,70.0,0.0,60.0,0.0,0.0
15930,39.0,0.0,30.0,7.0,0.0
15931,70.0,0.0,60.0,6.0,0.0
15932,39.0,0.0,30.0,5.0,0.0
15933,67.0,0.0,60.0,1.0,0.0
15934,40.0,0.0,30.0,7.0,0.0
15935,40.0,30.0,30.0,3.0,0.0
15936,40.0,0.0,30.0,5.0,0.0
15937,61.0,0.0,60.0,4.0,0.0
15938,61.0,0.0,60.0,6.0,0.0
15939,67.0,0.0,60.0,2.0,0.0
15940,39.0,0.0,30.0,3.0,0.0
15941,39.0,30.0,30.0,7.0,0.0
15942,39.0,0.0,30.0,5.0,0.0
15943,70.0,0.0,180.0,1.0,0.0
15944,61.0,0.0,60.0,0.0,0.0
15945,40.0,0.0,30.0,3.0,0.0
15946,40.0,30.0,30.0,5.0,0.0
15947,40.0,0.0,30.0,7.0,0.0
15948,37.0,0.0,30.0,7.0,0.0
15949,70.0,0.0,60.0,0.0,0.0
15950,37.0,30.0,30.0,5.0,0.0
15951,70.0,0.0,60.0,4.0,0.0
15952,55.0,0.0,60.0,2.0,0.0
15953,37.0,0.0,30.0,3.0,0.0
15954,70.0,0.0,60.0,6.0,0.0
15955,39.0,0.0,30.0,7.0,0.0
15956,39.0,30.0,30.0,3.0,0.0
15957,39.0,0.0,30.0,5.0,0.0
15958,59.0,30.0,30.0,6.0,0.0
15959,40.0,0.0,30.0,7.0,0.0
15960,59.0,0.0,30.0,0.0,0.0
15961,40.0,0.0,30.0,3.0,0.0
15962,59.0,0.0,30.0,4.0,0.0
15963,56.0,0.0,120.0,2.0,0.0
15964,40.0,0.0,30.0,5.0,0.0
15965,52.0,0.0,30.0,5.0,0.0
15966,58.0,30.0,30.0,0.0,0.0
15967,52.0,0.0,30.0,3.0,0.0
15968,58.0,0.0,30.0,6.0,0.0
15969,58.0,0.0,30.0,4.0,0.0
15970,52.0,0.0,30.0,7.0,0.0
15971,59.0,0.0,30.0,6.0,0.0
15972,51.0,30.0,30.0,7.0,0.0
15973,51.0,0.0,30.0,3.0,0.0
15974,59.0,0.0,30.0,4.0,0.0
15975,68.0,0.0,30.0,1.0,0.0
15976,51.0,0.0,30.0,5.0,0.0
15977,59.0,0.0,30.0,0.0,0.0
15978,58.0,0.0,30.0,0.0,0.0
15979,67.0,0.0,30.0,1.0,0.0
15980,58.0,30.0,30.0,6.0,0.0
15981,49.0,0.0,30.0,5.0,0.0
15982,58.0,0.0,30.0,4.0,0.0
15983,49.0,0.0,30.0,7.0,0.0
15984,49.0,0.0,30.0,3.0,0.0
15985,47.0,0.0,30.0,3.0,0.0
15986,68.0,0.0,60.0,1.0,0.0
15987,56.0,0.0,60.0,6.0,0.0
15988,47.0,30.0,30.0,7.0,0.0
15989,47.0,0.0,30.0,5.0,0.0
15990,56.0,30.0,60.0,4.0,0.0
15991,56.0,0.0,60.0,0.0,0.0
15992,61.0,0.0,30.0,2.0,0.0
15993,52.0,0.0,30.0,3.0,0.0
15994,52.0,0.0,30.0,7.0,0.0
15995,52.0,0.0,30.0,5.0,0.0
15996,51.0,0.0,30.0,5.0,0.0
15997,51.0,0.0,30.0,7.0,0.0
15998,71.0,0.0,30.0,0.0,0.0
15999,71.0,0.0,30.0,4.0,0.0
16000,59.0,0.0,30.0,2.0,0.0
16001,51.0,0.0,30.0,3.0,0.0
16002,71.0,0.0,30.0,6.0,0.0
16003,56.0,30.0,30.0,1.0,0.0
16004,49.0,0.0,30.0,5.0,0.0
16005,58.0,0.0,30.0,1.0,0.0
16006,73.0,0.0,30.0,6.0,0.0
16007,73.0,0.0,30.0,0.0,0.0
16008,58.0,0.0,30.0,2.0,0.0
16009,49.0,30.0,30.0,7.0,0.0
16010,73.0,0.0,30.0,4.0,0.0
16011,49.0,0.0,30.0,3.0,0.0
16012,75.0,0.0,60.0,0.0,0.0
16013,47.0,30.0,30.0,3.0,0.0
16014,59.0,0.0,60.0,1.0,0.0
16015,75.0,0.0,60.0,6.0,0.0
16016,56.0,0.0,60.0,2.0,0.0
16017,75.0,0.0,60.0,4.0,0.0
16018,47.0,0.0,30.0,7.0,0.0
16019,47.0,0.0,30.0,5.0,0.0
16020,52.0,30.0,30.0,3.0,0.0
16021,52.0,0.0,30.0,7.0,0.0
16022,52.0,0.0,30.0,5.0,0.0
16023,51.0,0.0,30.0,5.0,0.0
16024,51.0,0.0,30.0,7.0,0.0
16025,68.0,0.0,60.0,0.0,0.0
16026,58.0,0.0,60.0,2.0,0.0
16027,68.0,0.0,60.0,4.0,0.0
16028,64.0,0.0,60.0,1.0,0.0
16029,51.0,30.0,30.0,3.0,0.0
16030,68.0,0.0,60.0,6.0,0.0
16031,49.0,0.0,30.0,7.0,0.0
16032,49.0,60.0,30.0,5.0,0.0
16033,49.0,0.0,30.0,3.0,0.0
16034,51.0,0.0,60.0,5.0,0.0
16035,51.0,0.0,60.0,3.0,0.0
16036,63.0,60.0,60.0,4.0,0.0
16037,51.0,0.0,60.0,7.0,0.0
16038,63.0,0.0,60.0,0.0,0.0
16039,63.0,0.0,60.0,1.0,0.0
16040,59.0,0.0,60.0,2.0,0.0
16041,63.0,0.0,60.0,6.0,0.0
16042,61.0,0.0,60.0,4.0,0.0
16043,58.0,0.0,60.0,4.0,0.0
16044,58.0,0.0,60.0,2.0,0.0
16045,67.0,0.0,60.0,0.0,0.0
16046,67.0,0.0,60.0,4.0,0.0
16047,67.0,0.0,60.0,6.0,0.0
16048,39.0,0.0,60.0,7.0,0.0
16049,61.0,0.0,60.0,6.0,0.0
16050,58.0,0.0,60.0,6.0,0.0
16051,63.0,0.0,60.0,4.0,0.0
16052,39.0,0.0,60.0,5.0,0.0
16053,39.0,0.0,60.0,3.0,0.0
16054,63.0,120.0,60.0,6.0,0.0
16055,63.0,0.0,60.0,1.0,0.0
16056,56.0,0.0,120.0,6.0,0.0
16057,63.0,0.0,120.0,6.0,0.0
16058,59.0,0.0,120.0,6.0,0.0
16059,68.0,0.0,120.0,6.0,0.0
16060,32.0,0.0,120.0,5.0,0.0
16061,68.0,0.0,120.0,0.0,0.0
16062,59.0,0.0,120.0,4.0,0.0
16063,63.0,0.0,120.0,4.0,0.0
16064,68.0,1.0,120.0,4.0,0.0
16065,44.0,0.0,120.0,5.0,0.0
16066,32.0,0.0,120.0,7.0,0.0
16067,44.0,0.0,120.0,7.0,0.0
16068,32.0,0.0,120.0,3.0,0.0
16069,59.0,0.0,120.0,2.0,0.0
16070,56.0,0.0,120.0,4.0,0.0
16071,63.0,0.0,120.0,1.0,0.0
