,note,step,duration,channel,velocity
0,64.0,84.0,870.0,1.0,0.0
1,64.0,0.0,870.0,10.0,0.0
2,64.0,0.0,870.0,5.0,0.0
3,52.0,0.0,870.0,10.0,0.0
4,64.0,0.0,120.0,2.0,0.0
5,64.0,120.0,120.0,7.0,0.0
6,63.0,120.0,120.0,7.0,0.0
7,63.0,0.0,120.0,2.0,0.0
8,64.0,0.0,120.0,7.0,0.0
9,64.0,120.0,120.0,2.0,0.0
10,66.0,0.0,120.0,7.0,0.0
11,66.0,120.0,120.0,2.0,0.0
12,68.0,0.0,120.0,7.0,0.0
13,68.0,36.0,120.0,2.0,0.0
14,69.0,120.0,120.0,7.0,0.0
15,69.0,0.0,120.0,2.0,0.0
16,51.0,0.0,870.0,10.0,0.0
17,71.0,0.0,120.0,2.0,0.0
18,71.0,120.0,120.0,7.0,0.0
19,63.0,72.0,870.0,10.0,0.0
20,63.0,0.0,870.0,1.0,0.0
21,63.0,0.0,870.0,5.0,0.0
22,70.0,0.0,120.0,7.0,0.0
23,70.0,120.0,120.0,2.0,0.0
24,71.0,108.0,120.0,2.0,0.0
25,71.0,0.0,120.0,7.0,0.0
26,66.0,0.0,210.0,8.0,0.0
27,66.0,12.0,210.0,4.0,0.0
28,73.0,0.0,120.0,7.0,0.0
29,73.0,120.0,120.0,2.0,0.0
30,75.0,108.0,120.0,7.0,0.0
31,75.0,0.0,120.0,2.0,0.0
32,71.0,0.0,210.0,8.0,0.0
33,71.0,12.0,210.0,4.0,0.0
34,73.0,0.0,120.0,7.0,0.0
35,73.0,120.0,120.0,2.0,0.0
36,75.0,36.0,120.0,2.0,0.0
37,71.0,0.0,210.0,8.0,0.0
38,75.0,0.0,120.0,7.0,0.0
39,71.0,12.0,210.0,4.0,0.0
40,71.0,120.0,120.0,7.0,0.0
41,71.0,0.0,120.0,2.0,0.0
42,71.0,0.0,210.0,8.0,0.0
43,61.0,0.0,870.0,1.0,0.0
44,61.0,84.0,870.0,10.0,0.0
45,76.0,0.0,120.0,2.0,0.0
46,71.0,12.0,210.0,4.0,0.0
47,49.0,0.0,870.0,10.0,0.0
48,76.0,108.0,120.0,7.0,0.0
49,61.0,0.0,870.0,5.0,0.0
50,75.0,0.0,120.0,2.0,0.0
51,75.0,120.0,120.0,7.0,0.0
52,76.0,0.0,120.0,2.0,0.0
53,70.0,0.0,120.0,8.0,0.0
54,76.0,0.0,120.0,7.0,0.0
55,70.0,120.0,120.0,4.0,0.0
56,78.0,0.0,120.0,2.0,0.0
57,68.0,0.0,120.0,4.0,0.0
58,78.0,0.0,120.0,7.0,0.0
59,68.0,120.0,120.0,8.0,0.0
60,70.0,120.0,120.0,4.0,0.0
61,76.0,0.0,120.0,7.0,0.0
62,76.0,0.0,120.0,2.0,0.0
63,70.0,0.0,120.0,8.0,0.0
64,71.0,0.0,120.0,8.0,0.0
65,80.0,0.0,120.0,7.0,0.0
66,71.0,120.0,120.0,4.0,0.0
67,80.0,0.0,120.0,2.0,0.0
68,68.0,36.0,120.0,8.0,0.0
69,78.0,0.0,120.0,7.0,0.0
70,78.0,0.0,120.0,2.0,0.0
71,68.0,0.0,120.0,4.0,0.0
72,70.0,120.0,120.0,4.0,0.0
73,70.0,0.0,120.0,8.0,0.0
74,76.0,0.0,120.0,2.0,0.0
75,76.0,0.0,120.0,7.0,0.0
76,71.0,0.0,120.0,4.0,0.0
77,59.0,0.0,120.0,5.0,0.0
78,47.0,12.0,210.0,10.0,0.0
79,59.0,0.0,120.0,1.0,0.0
80,59.0,0.0,210.0,10.0,0.0
81,75.0,0.0,120.0,2.0,0.0
82,71.0,0.0,120.0,8.0,0.0
83,75.0,108.0,120.0,7.0,0.0
84,66.0,120.0,120.0,1.0,0.0
85,75.0,0.0,120.0,8.0,0.0
86,78.0,0.0,120.0,7.0,0.0
87,78.0,0.0,120.0,2.0,0.0
88,75.0,0.0,120.0,4.0,0.0
89,69.0,0.0,120.0,5.0,0.0
90,68.0,0.0,120.0,5.0,0.0
91,71.0,0.0,120.0,7.0,0.0
92,59.0,0.0,120.0,3.0,0.0
93,76.0,0.0,120.0,4.0,0.0
94,71.0,0.0,120.0,2.0,0.0
95,76.0,120.0,120.0,8.0,0.0
96,68.0,0.0,120.0,1.0,0.0
97,59.0,0.0,120.0,10.0,0.0
98,47.0,0.0,120.0,10.0,0.0
99,69.0,0.0,120.0,1.0,0.0
100,75.0,0.0,120.0,2.0,0.0
101,66.0,0.0,120.0,5.0,0.0
102,78.0,0.0,120.0,8.0,0.0
103,45.0,0.0,120.0,10.0,0.0
104,57.0,0.0,120.0,10.0,0.0
105,78.0,0.0,120.0,4.0,0.0
106,57.0,0.0,120.0,3.0,0.0
107,75.0,0.0,120.0,7.0,0.0
108,80.0,0.0,210.0,4.0,0.0
109,56.0,0.0,210.0,10.0,0.0
110,83.0,0.0,600.0,6.0,0.0
111,76.0,0.0,120.0,7.0,0.0
112,71.0,0.0,120.0,1.0,0.0
113,76.0,108.0,120.0,2.0,0.0
114,56.0,0.0,210.0,3.0,0.0
115,44.0,0.0,210.0,10.0,0.0
116,80.0,0.0,210.0,8.0,0.0
117,64.0,0.0,690.0,5.0,0.0
118,83.0,108.0,600.0,0.0,0.0
119,80.0,120.0,120.0,7.0,0.0
120,80.0,0.0,120.0,2.0,0.0
121,76.0,0.0,120.0,1.0,0.0
122,80.0,0.0,210.0,4.0,0.0
123,52.0,0.0,210.0,3.0,0.0
124,68.0,108.0,120.0,1.0,0.0
125,71.0,0.0,120.0,2.0,0.0
126,80.0,0.0,210.0,8.0,0.0
127,71.0,0.0,120.0,7.0,0.0
128,52.0,0.0,210.0,10.0,0.0
129,40.0,0.0,210.0,10.0,0.0
130,75.0,120.0,120.0,7.0,0.0
131,71.0,0.0,120.0,1.0,0.0
132,75.0,0.0,120.0,2.0,0.0
133,57.0,0.0,210.0,10.0,0.0
134,80.0,0.0,210.0,4.0,0.0
135,73.0,0.0,120.0,7.0,0.0
136,57.0,0.0,210.0,3.0,0.0
137,69.0,0.0,600.0,1.0,0.0
138,80.0,0.0,210.0,8.0,0.0
139,45.0,12.0,210.0,10.0,0.0
140,73.0,0.0,120.0,2.0,0.0
141,76.0,0.0,120.0,2.0,0.0
142,76.0,0.0,120.0,0.0,0.0
143,76.0,120.0,120.0,6.0,0.0
144,76.0,0.0,120.0,7.0,0.0
145,73.0,0.0,120.0,0.0,0.0
146,78.0,0.0,120.0,4.0,0.0
147,78.0,0.0,120.0,8.0,0.0
148,56.0,0.0,210.0,3.0,0.0
149,44.0,0.0,210.0,10.0,0.0
150,73.0,0.0,120.0,6.0,0.0
151,66.0,108.0,120.0,5.0,0.0
152,56.0,12.0,210.0,10.0,0.0
153,69.0,0.0,120.0,2.0,0.0
154,69.0,0.0,120.0,7.0,0.0
155,76.0,0.0,120.0,8.0,0.0
156,76.0,120.0,120.0,0.0,0.0
157,68.0,0.0,120.0,5.0,0.0
158,76.0,0.0,120.0,6.0,0.0
159,73.0,0.0,120.0,2.0,0.0
160,76.0,0.0,120.0,4.0,0.0
161,73.0,0.0,120.0,7.0,0.0
162,78.0,0.0,210.0,8.0,0.0
163,54.0,12.0,210.0,10.0,0.0
164,69.0,0.0,210.0,5.0,0.0
165,78.0,0.0,210.0,4.0,0.0
166,54.0,0.0,210.0,3.0,0.0
167,75.0,0.0,120.0,7.0,0.0
168,81.0,0.0,600.0,6.0,0.0
169,75.0,108.0,120.0,2.0,0.0
170,42.0,0.0,210.0,10.0,0.0
171,81.0,108.0,600.0,0.0,0.0
172,78.0,0.0,120.0,7.0,0.0
173,75.0,120.0,120.0,1.0,0.0
174,78.0,0.0,120.0,2.0,0.0
175,39.0,0.0,210.0,10.0,0.0
176,78.0,12.0,210.0,8.0,0.0
177,78.0,0.0,210.0,4.0,0.0
178,71.0,0.0,210.0,5.0,0.0
179,66.0,0.0,120.0,1.0,0.0
180,69.0,0.0,120.0,7.0,0.0
181,69.0,108.0,120.0,2.0,0.0
182,51.0,0.0,210.0,10.0,0.0
183,51.0,0.0,210.0,3.0,0.0
184,69.0,0.0,120.0,1.0,0.0
185,73.0,0.0,120.0,7.0,0.0
186,73.0,120.0,120.0,2.0,0.0
187,71.0,0.0,120.0,2.0,0.0
188,78.0,0.0,210.0,8.0,0.0
189,68.0,0.0,600.0,1.0,0.0
190,63.0,0.0,210.0,5.0,0.0
191,71.0,0.0,120.0,7.0,0.0
192,78.0,12.0,210.0,4.0,0.0
193,75.0,120.0,120.0,6.0,0.0
194,75.0,0.0,120.0,2.0,0.0
195,75.0,0.0,120.0,7.0,0.0
196,75.0,0.0,120.0,0.0,0.0
197,68.0,0.0,120.0,7.0,0.0
198,56.0,0.0,120.0,3.0,0.0
199,64.0,0.0,120.0,5.0,0.0
200,68.0,0.0,120.0,2.0,0.0
201,56.0,0.0,120.0,10.0,0.0
202,76.0,0.0,120.0,8.0,0.0
203,76.0,0.0,120.0,4.0,0.0
204,71.0,120.0,120.0,0.0,0.0
205,71.0,0.0,120.0,6.0,0.0
206,44.0,0.0,120.0,10.0,0.0
207,66.0,0.0,120.0,5.0,0.0
208,75.0,120.0,120.0,0.0,0.0
209,54.0,0.0,120.0,3.0,0.0
210,42.0,0.0,120.0,10.0,0.0
211,54.0,0.0,120.0,10.0,0.0
212,71.0,0.0,120.0,7.0,0.0
213,75.0,0.0,120.0,4.0,0.0
214,71.0,0.0,120.0,2.0,0.0
215,75.0,0.0,120.0,8.0,0.0
216,75.0,0.0,120.0,6.0,0.0
217,52.0,0.0,210.0,10.0,0.0
218,80.0,0.0,600.0,0.0,0.0
219,76.0,0.0,690.0,4.0,0.0
220,80.0,0.0,600.0,6.0,0.0
221,73.0,108.0,120.0,2.0,0.0
222,68.0,0.0,210.0,5.0,0.0
223,76.0,0.0,690.0,8.0,0.0
224,40.0,0.0,210.0,10.0,0.0
225,73.0,0.0,120.0,7.0,0.0
226,52.0,12.0,210.0,3.0,0.0
227,73.0,0.0,120.0,1.0,0.0
228,76.0,120.0,120.0,7.0,0.0
229,76.0,0.0,120.0,2.0,0.0
230,37.0,12.0,210.0,10.0,0.0
231,64.0,0.0,120.0,1.0,0.0
232,68.0,0.0,120.0,2.0,0.0
233,68.0,108.0,120.0,7.0,0.0
234,49.0,0.0,210.0,10.0,0.0
235,73.0,0.0,210.0,5.0,0.0
236,49.0,0.0,210.0,3.0,0.0
237,71.0,120.0,120.0,7.0,0.0
238,71.0,0.0,120.0,2.0,0.0
239,68.0,0.0,120.0,1.0,0.0
240,54.0,0.0,210.0,10.0,0.0
241,66.0,0.0,600.0,1.0,0.0
242,69.0,0.0,120.0,7.0,0.0
243,69.0,108.0,120.0,2.0,0.0
244,61.0,12.0,210.0,5.0,0.0
245,54.0,0.0,210.0,3.0,0.0
246,42.0,0.0,210.0,10.0,0.0
247,73.0,120.0,120.0,0.0,0.0
248,73.0,0.0,120.0,2.0,0.0
249,73.0,0.0,120.0,7.0,0.0
250,73.0,0.0,120.0,6.0,0.0
251,69.0,0.0,120.0,6.0,0.0
252,66.0,0.0,120.0,2.0,0.0
253,69.0,108.0,120.0,0.0,0.0
254,52.0,0.0,210.0,10.0,0.0
255,75.0,0.0,120.0,8.0,0.0
256,52.0,0.0,210.0,3.0,0.0
257,63.0,0.0,120.0,5.0,0.0
258,75.0,0.0,120.0,4.0,0.0
259,40.0,12.0,210.0,10.0,0.0
260,66.0,0.0,120.0,7.0,0.0
261,69.0,0.0,120.0,7.0,0.0
262,69.0,0.0,120.0,2.0,0.0
263,73.0,120.0,120.0,0.0,0.0
264,64.0,0.0,120.0,5.0,0.0
265,73.0,0.0,120.0,6.0,0.0
266,73.0,0.0,120.0,4.0,0.0
267,73.0,0.0,120.0,8.0,0.0
268,51.0,12.0,210.0,10.0,0.0
269,39.0,0.0,210.0,10.0,0.0
270,75.0,108.0,120.0,4.0,0.0
271,78.0,0.0,600.0,0.0,0.0
272,78.0,108.0,600.0,6.0,0.0
273,71.0,0.0,120.0,2.0,0.0
274,71.0,0.0,690.0,8.0,0.0
275,66.0,0.0,120.0,5.0,0.0
276,51.0,0.0,210.0,3.0,0.0
277,71.0,0.0,120.0,7.0,0.0
278,75.0,0.0,120.0,7.0,0.0
279,59.0,0.0,120.0,5.0,0.0
280,78.0,0.0,120.0,4.0,0.0
281,71.0,0.0,120.0,1.0,0.0
282,75.0,120.0,120.0,2.0,0.0
283,66.0,0.0,120.0,2.0,0.0
284,63.0,0.0,120.0,1.0,0.0
285,83.0,0.0,360.0,4.0,0.0
286,47.0,12.0,210.0,3.0,0.0
287,66.0,108.0,120.0,7.0,0.0
288,47.0,0.0,210.0,10.0,0.0
289,35.0,0.0,210.0,10.0,0.0
290,63.0,0.0,120.0,5.0,0.0
291,66.0,120.0,120.0,1.0,0.0
292,59.0,0.0,120.0,5.0,0.0
293,69.0,0.0,120.0,7.0,0.0
294,69.0,0.0,120.0,2.0,0.0
295,64.0,0.0,210.0,5.0,0.0
296,64.0,0.0,600.0,1.0,0.0
297,68.0,0.0,120.0,7.0,0.0
298,52.0,0.0,210.0,3.0,0.0
299,52.0,0.0,210.0,10.0,0.0
300,68.0,0.0,120.0,2.0,0.0
301,40.0,12.0,210.0,10.0,0.0
302,80.0,0.0,120.0,4.0,0.0
303,71.0,0.0,120.0,2.0,0.0
304,71.0,120.0,120.0,7.0,0.0
305,71.0,0.0,120.0,0.0,0.0
306,71.0,0.0,120.0,6.0,0.0
307,68.0,0.0,120.0,6.0,0.0
308,68.0,0.0,120.0,0.0,0.0
309,64.0,0.0,120.0,2.0,0.0
310,76.0,108.0,120.0,4.0,0.0
311,68.0,12.0,210.0,5.0,0.0
312,62.0,0.0,210.0,8.0,0.0
313,64.0,0.0,120.0,7.0,0.0
314,68.0,0.0,120.0,7.0,0.0
315,71.0,0.0,120.0,0.0,0.0
316,68.0,120.0,120.0,2.0,0.0
317,62.0,0.0,120.0,3.0,0.0
318,71.0,0.0,120.0,6.0,0.0
319,71.0,0.0,120.0,4.0,0.0
320,61.0,0.0,120.0,3.0,0.0
321,69.0,108.0,120.0,2.0,0.0
322,76.0,0.0,600.0,6.0,0.0
323,76.0,108.0,600.0,0.0,0.0
324,64.0,0.0,210.0,5.0,0.0
325,73.0,0.0,120.0,4.0,0.0
326,69.0,0.0,120.0,7.0,0.0
327,61.0,12.0,210.0,8.0,0.0
328,69.0,0.0,120.0,1.0,0.0
329,57.0,0.0,120.0,3.0,0.0
330,73.0,0.0,120.0,2.0,0.0
331,73.0,120.0,120.0,7.0,0.0
332,76.0,0.0,120.0,4.0,0.0
333,61.0,0.0,120.0,3.0,0.0
334,61.0,0.0,210.0,5.0,0.0
335,69.0,108.0,120.0,4.0,0.0
336,64.0,0.0,120.0,2.0,0.0
337,64.0,0.0,120.0,7.0,0.0
338,52.0,12.0,210.0,10.0,0.0
339,61.0,0.0,120.0,1.0,0.0
340,73.0,0.0,210.0,8.0,0.0
341,40.0,0.0,210.0,10.0,0.0
342,69.0,0.0,120.0,7.0,0.0
343,64.0,0.0,120.0,1.0,0.0
344,69.0,0.0,120.0,2.0,0.0
345,57.0,120.0,120.0,3.0,0.0
346,73.0,0.0,120.0,4.0,0.0
347,68.0,0.0,120.0,7.0,0.0
348,62.0,0.0,210.0,5.0,0.0
349,52.0,108.0,600.0,1.0,0.0
350,68.0,0.0,120.0,2.0,0.0
351,52.0,0.0,210.0,10.0,0.0
352,71.0,0.0,210.0,8.0,0.0
353,40.0,0.0,210.0,10.0,0.0
354,71.0,0.0,120.0,4.0,0.0
355,64.0,12.0,210.0,3.0,0.0
356,78.0,120.0,120.0,6.0,0.0
357,71.0,0.0,120.0,7.0,0.0
358,74.0,0.0,120.0,4.0,0.0
359,71.0,0.0,120.0,2.0,0.0
360,78.0,0.0,120.0,0.0,0.0
361,59.0,12.0,210.0,5.0,0.0
362,40.0,0.0,210.0,10.0,0.0
363,52.0,0.0,120.0,3.0,0.0
364,68.0,108.0,120.0,4.0,0.0
365,64.0,0.0,120.0,2.0,0.0
366,76.0,0.0,120.0,6.0,0.0
367,76.0,0.0,120.0,0.0,0.0
368,28.0,0.0,210.0,10.0,0.0
369,64.0,0.0,120.0,7.0,0.0
370,68.0,0.0,210.0,8.0,0.0
371,78.0,0.0,120.0,0.0,0.0
372,50.0,120.0,120.0,3.0,0.0
373,78.0,0.0,120.0,6.0,0.0
374,68.0,0.0,120.0,7.0,0.0
375,68.0,0.0,120.0,2.0,0.0
376,71.0,0.0,120.0,4.0,0.0
377,49.0,0.0,120.0,3.0,0.0
378,69.0,0.0,120.0,7.0,0.0
379,69.0,0.0,120.0,2.0,0.0
380,61.0,12.0,210.0,5.0,0.0
381,76.0,24.0,900.0,0.0,0.0
382,64.0,0.0,210.0,8.0,0.0
383,76.0,0.0,120.0,4.0,0.0
384,76.0,0.0,900.0,6.0,0.0
385,57.0,0.0,120.0,1.0,0.0
386,73.0,0.0,120.0,7.0,0.0
387,73.0,0.0,120.0,2.0,0.0
388,45.0,0.0,120.0,3.0,0.0
389,64.0,120.0,120.0,4.0,0.0
390,49.0,108.0,120.0,3.0,0.0
391,57.0,0.0,120.0,5.0,0.0
392,52.0,0.0,210.0,10.0,0.0
393,73.0,12.0,210.0,8.0,0.0
394,49.0,0.0,120.0,1.0,0.0
395,64.0,0.0,120.0,2.0,0.0
396,64.0,0.0,120.0,7.0,0.0
397,40.0,0.0,210.0,10.0,0.0
398,69.0,0.0,120.0,4.0,0.0
399,69.0,120.0,120.0,7.0,0.0
400,73.0,0.0,120.0,4.0,0.0
401,52.0,0.0,120.0,1.0,0.0
402,45.0,0.0,120.0,3.0,0.0
403,52.0,0.0,120.0,5.0,0.0
404,69.0,0.0,120.0,2.0,0.0
405,68.0,0.0,120.0,2.0,0.0
406,71.0,0.0,210.0,4.0,0.0
407,64.0,0.0,210.0,5.0,0.0
408,40.0,0.0,210.0,1.0,0.0
409,52.0,12.0,210.0,3.0,0.0
410,68.0,108.0,120.0,7.0,0.0
411,71.0,0.0,420.0,8.0,0.0
412,52.0,0.0,210.0,10.0,0.0
413,40.0,0.0,210.0,10.0,0.0
414,71.0,120.0,120.0,7.0,0.0
415,71.0,0.0,120.0,2.0,0.0
416,28.0,12.0,210.0,10.0,0.0
417,40.0,0.0,210.0,10.0,0.0
418,64.0,84.0,120.0,2.0,0.0
419,59.0,0.0,210.0,1.0,0.0
420,64.0,0.0,210.0,7.0,0.0
421,68.0,120.0,120.0,2.0,0.0
422,56.0,12.0,210.0,1.0,0.0
423,73.0,108.0,120.0,2.0,0.0
424,76.0,66.0,120.0,2.0,0.0
425,37.0,12.0,210.0,10.0,0.0
426,80.0,54.0,60.0,0.0,0.0
427,61.0,0.0,450.0,3.0,0.0
428,49.0,0.0,210.0,10.0,0.0
429,68.0,6.0,120.0,2.0,0.0
430,64.0,0.0,450.0,1.0,0.0
431,78.0,60.0,60.0,0.0,0.0
432,76.0,42.0,60.0,0.0,0.0
433,71.0,6.0,120.0,2.0,0.0
434,75.0,60.0,60.0,0.0,0.0
435,70.0,6.0,120.0,2.0,0.0
436,54.0,12.0,210.0,10.0,0.0
437,42.0,0.0,210.0,10.0,0.0
438,73.0,54.0,60.0,0.0,0.0
439,71.0,60.0,60.0,0.0,0.0
440,70.0,42.0,60.0,0.0,0.0
441,73.0,6.0,120.0,2.0,0.0
442,68.0,114.0,60.0,0.0,0.0
443,42.0,12.0,210.0,10.0,0.0
444,61.0,0.0,210.0,1.0,0.0
445,76.0,0.0,210.0,0.0,0.0
446,30.0,0.0,210.0,10.0,0.0
447,58.0,0.0,210.0,3.0,0.0
448,66.0,108.0,120.0,2.0,0.0
449,70.0,120.0,120.0,2.0,0.0
450,54.0,0.0,210.0,3.0,0.0
451,58.0,12.0,210.0,1.0,0.0
452,75.0,108.0,120.0,2.0,0.0
453,78.0,66.0,120.0,2.0,0.0
454,66.0,0.0,450.0,1.0,0.0
455,39.0,0.0,210.0,10.0,0.0
456,51.0,12.0,210.0,10.0,0.0
457,63.0,0.0,450.0,3.0,0.0
458,70.0,6.0,120.0,2.0,0.0
459,82.0,54.0,60.0,0.0,0.0
460,80.0,60.0,60.0,0.0,0.0
461,78.0,42.0,60.0,0.0,0.0
462,73.0,6.0,120.0,2.0,0.0
463,76.0,60.0,60.0,0.0,0.0
464,75.0,54.0,60.0,0.0,0.0
465,71.0,6.0,120.0,2.0,0.0
466,44.0,0.0,210.0,10.0,0.0
467,56.0,12.0,210.0,10.0,0.0
468,73.0,60.0,60.0,0.0,0.0
469,71.0,42.0,60.0,0.0,0.0
470,75.0,6.0,120.0,2.0,0.0
471,70.0,114.0,60.0,0.0,0.0
472,59.0,0.0,210.0,3.0,0.0
473,63.0,0.0,210.0,1.0,0.0
474,78.0,0.0,210.0,0.0,0.0
475,32.0,0.0,210.0,10.0,0.0
476,68.0,108.0,120.0,2.0,0.0
477,44.0,12.0,210.0,10.0,0.0
478,71.0,120.0,120.0,2.0,0.0
479,76.0,108.0,120.0,2.0,0.0
480,56.0,0.0,210.0,3.0,0.0
481,59.0,12.0,210.0,1.0,0.0
482,80.0,66.0,120.0,2.0,0.0
483,68.0,12.0,450.0,1.0,0.0
484,44.0,0.0,210.0,10.0,0.0
485,71.0,6.0,120.0,2.0,0.0
486,83.0,54.0,60.0,0.0,0.0
487,64.0,0.0,450.0,3.0,0.0
488,56.0,12.0,210.0,10.0,0.0
489,82.0,60.0,60.0,0.0,0.0
490,75.0,6.0,120.0,2.0,0.0
491,80.0,42.0,60.0,0.0,0.0
492,78.0,60.0,60.0,0.0,0.0
493,58.0,0.0,210.0,10.0,0.0
494,73.0,6.0,120.0,2.0,0.0
495,76.0,54.0,60.0,0.0,0.0
496,46.0,0.0,210.0,10.0,0.0
497,75.0,60.0,60.0,0.0,0.0
498,73.0,42.0,60.0,0.0,0.0
499,76.0,6.0,120.0,2.0,0.0
500,71.0,60.0,60.0,0.0,0.0
501,64.0,0.0,210.0,1.0,0.0
502,34.0,0.0,210.0,10.0,0.0
503,46.0,0.0,210.0,10.0,0.0
504,70.0,6.0,120.0,2.0,0.0
505,76.0,54.0,60.0,0.0,0.0
506,61.0,12.0,210.0,3.0,0.0
507,75.0,60.0,60.0,0.0,0.0
508,73.0,6.0,120.0,2.0,0.0
509,73.0,42.0,60.0,0.0,0.0
510,71.0,114.0,60.0,0.0,0.0
511,78.0,108.0,120.0,2.0,0.0
512,58.0,0.0,210.0,3.0,0.0
513,61.0,0.0,210.0,1.0,0.0
514,76.0,12.0,210.0,0.0,0.0
515,82.0,120.0,120.0,2.0,0.0
516,66.0,108.0,360.0,3.0,0.0
517,73.0,108.0,120.0,2.0,0.0
518,54.0,0.0,210.0,10.0,0.0
519,42.0,0.0,210.0,10.0,0.0
520,70.0,12.0,210.0,1.0,0.0
521,76.0,120.0,120.0,2.0,0.0
522,59.0,0.0,870.0,10.0,0.0
523,59.0,72.0,870.0,5.0,0.0
524,71.0,12.0,210.0,1.0,0.0
525,75.0,0.0,210.0,2.0,0.0
526,47.0,0.0,870.0,10.0,0.0
527,64.0,120.0,120.0,3.0,0.0
528,63.0,0.0,120.0,3.0,0.0
529,66.0,12.0,210.0,1.0,0.0
530,71.0,0.0,120.0,0.0,0.0
531,71.0,108.0,120.0,6.0,0.0
532,61.0,0.0,120.0,3.0,0.0
533,70.0,120.0,120.0,6.0,0.0
534,70.0,0.0,120.0,0.0,0.0
535,71.0,108.0,120.0,0.0,0.0
536,71.0,0.0,120.0,6.0,0.0
537,59.0,0.0,210.0,3.0,0.0
538,63.0,12.0,210.0,1.0,0.0
539,73.0,0.0,120.0,6.0,0.0
540,73.0,120.0,120.0,0.0,0.0
541,59.0,12.0,210.0,1.0,0.0
542,75.0,0.0,120.0,0.0,0.0
543,75.0,36.0,120.0,6.0,0.0
544,66.0,0.0,360.0,3.0,0.0
545,76.0,0.0,120.0,0.0,0.0
546,76.0,120.0,120.0,6.0,0.0
547,46.0,0.0,870.0,10.0,0.0
548,58.0,0.0,870.0,5.0,0.0
549,78.0,0.0,120.0,6.0,0.0
550,78.0,120.0,120.0,0.0,0.0
551,58.0,72.0,870.0,10.0,0.0
552,77.0,120.0,120.0,6.0,0.0
553,59.0,0.0,120.0,3.0,0.0
554,77.0,0.0,120.0,0.0,0.0
555,66.0,0.0,210.0,1.0,0.0
556,78.0,0.0,120.0,0.0,0.0
557,73.0,0.0,210.0,2.0,0.0
558,58.0,108.0,120.0,3.0,0.0
559,73.0,12.0,210.0,7.0,0.0
560,78.0,0.0,120.0,6.0,0.0
561,80.0,0.0,120.0,6.0,0.0
562,80.0,0.0,120.0,0.0,0.0
563,56.0,120.0,120.0,3.0,0.0
564,54.0,0.0,210.0,3.0,0.0
565,78.0,12.0,210.0,7.0,0.0
566,61.0,0.0,210.0,1.0,0.0
567,82.0,0.0,120.0,0.0,0.0
568,82.0,108.0,120.0,6.0,0.0
569,78.0,0.0,210.0,2.0,0.0
570,80.0,0.0,120.0,0.0,0.0
571,80.0,120.0,120.0,6.0,0.0
572,82.0,36.0,120.0,0.0,0.0
573,78.0,0.0,210.0,2.0,0.0
574,66.0,0.0,210.0,3.0,0.0
575,78.0,0.0,210.0,7.0,0.0
576,82.0,0.0,120.0,6.0,0.0
577,58.0,12.0,210.0,1.0,0.0
578,78.0,0.0,120.0,6.0,0.0
579,78.0,120.0,120.0,0.0,0.0
580,44.0,84.0,870.0,10.0,0.0
581,78.0,12.0,210.0,7.0,0.0
582,68.0,0.0,120.0,3.0,0.0
583,56.0,0.0,870.0,10.0,0.0
584,83.0,0.0,120.0,6.0,0.0
585,56.0,0.0,870.0,5.0,0.0
586,83.0,108.0,120.0,0.0,0.0
587,78.0,0.0,210.0,2.0,0.0
588,82.0,120.0,120.0,0.0,0.0
589,66.0,0.0,120.0,3.0,0.0
590,82.0,0.0,120.0,6.0,0.0
591,77.0,0.0,120.0,2.0,0.0
592,68.0,12.0,210.0,1.0,0.0
593,83.0,108.0,120.0,6.0,0.0
594,77.0,0.0,120.0,7.0,0.0
595,68.0,0.0,120.0,3.0,0.0
596,83.0,0.0,120.0,0.0,0.0
597,85.0,0.0,120.0,0.0,0.0
598,75.0,0.0,120.0,2.0,0.0
599,75.0,0.0,120.0,7.0,0.0
600,70.0,120.0,120.0,3.0,0.0
601,85.0,0.0,120.0,6.0,0.0
602,61.0,0.0,120.0,1.0,0.0
603,77.0,0.0,120.0,7.0,0.0
604,83.0,0.0,120.0,6.0,0.0
605,83.0,0.0,120.0,0.0,0.0
606,68.0,120.0,120.0,3.0,0.0
607,77.0,0.0,120.0,2.0,0.0
608,87.0,0.0,120.0,6.0,0.0
609,87.0,0.0,120.0,0.0,0.0
610,70.0,0.0,120.0,3.0,0.0
611,59.0,120.0,120.0,1.0,0.0
612,78.0,0.0,120.0,2.0,0.0
613,78.0,0.0,120.0,7.0,0.0
614,85.0,0.0,120.0,6.0,0.0
615,75.0,0.0,120.0,7.0,0.0
616,66.0,0.0,120.0,3.0,0.0
617,85.0,36.0,120.0,0.0,0.0
618,58.0,0.0,120.0,1.0,0.0
619,75.0,0.0,120.0,2.0,0.0
620,77.0,0.0,120.0,2.0,0.0
621,68.0,120.0,120.0,3.0,0.0
622,83.0,0.0,120.0,0.0,0.0
623,83.0,0.0,120.0,6.0,0.0
624,59.0,0.0,120.0,1.0,0.0
625,77.0,0.0,120.0,7.0,0.0
626,82.0,0.0,120.0,6.0,0.0
627,78.0,108.0,120.0,2.0,0.0
628,42.0,0.0,120.0,10.0,0.0
629,54.0,0.0,120.0,10.0,0.0
630,82.0,0.0,120.0,0.0,0.0
631,54.0,0.0,120.0,5.0,0.0
632,61.0,12.0,210.0,1.0,0.0
633,78.0,0.0,120.0,7.0,0.0
634,70.0,0.0,120.0,3.0,0.0
635,56.0,0.0,120.0,10.0,0.0
636,61.0,0.0,120.0,5.0,0.0
637,82.0,0.0,120.0,2.0,0.0
638,64.0,120.0,120.0,3.0,0.0
639,82.0,0.0,120.0,7.0,0.0
640,44.0,0.0,120.0,10.0,0.0
641,85.0,0.0,120.0,0.0,0.0
642,85.0,0.0,120.0,6.0,0.0
643,78.0,0.0,120.0,6.0,0.0
644,63.0,0.0,120.0,5.0,0.0
645,78.0,0.0,120.0,0.0,0.0
646,83.0,0.0,120.0,2.0,0.0
647,66.0,0.0,120.0,1.0,0.0
648,83.0,0.0,120.0,7.0,0.0
649,54.0,0.0,120.0,10.0,0.0
650,63.0,0.0,120.0,3.0,0.0
651,42.0,120.0,120.0,10.0,0.0
652,40.0,0.0,120.0,10.0,0.0
653,61.0,0.0,120.0,3.0,0.0
654,85.0,0.0,120.0,7.0,0.0
655,52.0,0.0,120.0,10.0,0.0
656,82.0,0.0,120.0,6.0,0.0
657,82.0,0.0,120.0,0.0,0.0
658,64.0,120.0,120.0,5.0,0.0
659,64.0,0.0,120.0,1.0,0.0
660,85.0,0.0,120.0,2.0,0.0
661,83.0,0.0,120.0,0.0,0.0
662,63.0,0.0,210.0,1.0,0.0
663,83.0,108.0,120.0,6.0,0.0
664,66.0,0.0,120.0,5.0,0.0
665,78.0,0.0,600.0,8.0,0.0
666,78.0,0.0,600.0,4.0,0.0
667,87.0,0.0,210.0,2.0,0.0
668,51.0,0.0,210.0,10.0,0.0
669,87.0,0.0,210.0,7.0,0.0
670,39.0,12.0,210.0,10.0,0.0
671,59.0,0.0,690.0,3.0,0.0
672,87.0,0.0,120.0,0.0,0.0
673,87.0,0.0,120.0,6.0,0.0
674,71.0,120.0,120.0,5.0,0.0
675,78.0,0.0,120.0,0.0,0.0
676,87.0,0.0,210.0,2.0,0.0
677,78.0,108.0,120.0,6.0,0.0
678,87.0,0.0,210.0,7.0,0.0
679,47.0,0.0,210.0,10.0,0.0
680,63.0,0.0,120.0,5.0,0.0
681,35.0,12.0,210.0,10.0,0.0
682,59.0,0.0,210.0,1.0,0.0
683,82.0,0.0,120.0,6.0,0.0
684,82.0,0.0,120.0,0.0,0.0
685,66.0,120.0,120.0,5.0,0.0
686,64.0,0.0,210.0,1.0,0.0
687,80.0,108.0,120.0,6.0,0.0
688,87.0,0.0,210.0,7.0,0.0
689,52.0,0.0,210.0,10.0,0.0
690,80.0,0.0,120.0,0.0,0.0
691,64.0,108.0,600.0,5.0,0.0
692,87.0,12.0,210.0,2.0,0.0
693,40.0,0.0,210.0,10.0,0.0
694,71.0,0.0,120.0,8.0,0.0
695,83.0,0.0,120.0,0.0,0.0
696,83.0,0.0,120.0,6.0,0.0
697,71.0,120.0,120.0,4.0,0.0
698,68.0,108.0,120.0,4.0,0.0
699,85.0,0.0,120.0,7.0,0.0
700,39.0,0.0,210.0,10.0,0.0
701,76.0,0.0,120.0,0.0,0.0
702,61.0,0.0,120.0,3.0,0.0
703,85.0,0.0,120.0,2.0,0.0
704,76.0,0.0,120.0,6.0,0.0
705,51.0,12.0,210.0,10.0,0.0
706,63.0,0.0,210.0,1.0,0.0
707,68.0,0.0,120.0,8.0,0.0
708,63.0,0.0,120.0,3.0,0.0
709,71.0,0.0,120.0,4.0,0.0
710,83.0,0.0,120.0,7.0,0.0
711,80.0,0.0,120.0,6.0,0.0
712,80.0,120.0,120.0,0.0,0.0
713,71.0,0.0,120.0,8.0,0.0
714,83.0,0.0,120.0,2.0,0.0
715,61.0,0.0,210.0,1.0,0.0
716,85.0,0.0,210.0,2.0,0.0
717,37.0,0.0,210.0,10.0,0.0
718,64.0,0.0,210.0,3.0,0.0
719,49.0,12.0,210.0,10.0,0.0
720,82.0,0.0,120.0,0.0,0.0
721,76.0,0.0,600.0,4.0,0.0
722,76.0,0.0,600.0,8.0,0.0
723,85.0,0.0,210.0,7.0,0.0
724,82.0,0.0,120.0,6.0,0.0
725,85.0,0.0,120.0,6.0,0.0
726,85.0,120.0,120.0,0.0,0.0
727,70.0,0.0,120.0,5.0,0.0
728,58.0,0.0,210.0,1.0,0.0
729,85.0,0.0,210.0,7.0,0.0
730,76.0,0.0,120.0,6.0,0.0
731,76.0,0.0,120.0,0.0,0.0
732,85.0,0.0,210.0,2.0,0.0
733,34.0,0.0,210.0,10.0,0.0
734,46.0,12.0,210.0,10.0,0.0
735,70.0,0.0,210.0,3.0,0.0
736,61.0,108.0,120.0,5.0,0.0
737,80.0,0.0,120.0,0.0,0.0
738,64.0,0.0,120.0,5.0,0.0
739,80.0,120.0,120.0,6.0,0.0
740,63.0,0.0,600.0,5.0,0.0
741,78.0,108.0,120.0,0.0,0.0
742,85.0,0.0,210.0,7.0,0.0
743,78.0,0.0,120.0,6.0,0.0
744,85.0,0.0,210.0,2.0,0.0
745,58.0,12.0,210.0,3.0,0.0
746,82.0,0.0,120.0,6.0,0.0
747,70.0,120.0,120.0,8.0,0.0
748,70.0,0.0,120.0,4.0,0.0
749,82.0,0.0,120.0,0.0,0.0
750,83.0,120.0,120.0,2.0,0.0
751,83.0,0.0,120.0,7.0,0.0
752,39.0,0.0,120.0,10.0,0.0
753,59.0,0.0,120.0,3.0,0.0
754,63.0,0.0,120.0,1.0,0.0
755,66.0,0.0,120.0,4.0,0.0
756,75.0,0.0,120.0,0.0,0.0
757,66.0,0.0,120.0,8.0,0.0
758,51.0,0.0,120.0,10.0,0.0
759,75.0,0.0,120.0,6.0,0.0
760,70.0,0.0,120.0,4.0,0.0
761,37.0,120.0,120.0,10.0,0.0
762,78.0,0.0,120.0,0.0,0.0
763,82.0,0.0,120.0,2.0,0.0
764,61.0,0.0,120.0,3.0,0.0
765,70.0,0.0,120.0,8.0,0.0
766,49.0,0.0,120.0,10.0,0.0
767,82.0,0.0,120.0,7.0,0.0
768,61.0,0.0,120.0,1.0,0.0
769,78.0,0.0,120.0,6.0,0.0
770,80.0,0.0,120.0,6.0,0.0
771,75.0,0.0,600.0,8.0,0.0
772,83.0,0.0,690.0,2.0,0.0
773,35.0,0.0,210.0,10.0,0.0
774,83.0,0.0,690.0,7.0,0.0
775,47.0,0.0,210.0,10.0,0.0
776,63.0,12.0,210.0,3.0,0.0
777,80.0,108.0,120.0,0.0,0.0
778,75.0,108.0,600.0,4.0,0.0
779,59.0,0.0,210.0,1.0,0.0
780,68.0,0.0,120.0,5.0,0.0
781,83.0,0.0,120.0,0.0,0.0
782,83.0,120.0,120.0,6.0,0.0
783,44.0,12.0,210.0,10.0,0.0
784,59.0,0.0,120.0,5.0,0.0
785,32.0,0.0,210.0,10.0,0.0
786,68.0,0.0,210.0,3.0,0.0
787,75.0,108.0,120.0,6.0,0.0
788,75.0,0.0,120.0,0.0,0.0
789,56.0,0.0,210.0,1.0,0.0
790,63.0,120.0,120.0,5.0,0.0
791,78.0,0.0,120.0,6.0,0.0
792,78.0,0.0,120.0,0.0,0.0
793,49.0,0.0,210.0,10.0,0.0
794,76.0,0.0,120.0,6.0,0.0
795,61.0,0.0,210.0,1.0,0.0
796,37.0,0.0,210.0,10.0,0.0
797,76.0,0.0,120.0,0.0,0.0
798,56.0,12.0,210.0,3.0,0.0
799,61.0,0.0,600.0,5.0,0.0
800,80.0,120.0,120.0,0.0,0.0
801,68.0,0.0,120.0,4.0,0.0
802,80.0,0.0,120.0,6.0,0.0
803,68.0,0.0,120.0,8.0,0.0
804,47.0,12.0,210.0,10.0,0.0
805,82.0,0.0,120.0,2.0,0.0
806,35.0,0.0,210.0,10.0,0.0
807,58.0,0.0,120.0,3.0,0.0
808,73.0,0.0,120.0,0.0,0.0
809,64.0,0.0,120.0,8.0,0.0
810,59.0,0.0,210.0,1.0,0.0
811,73.0,0.0,120.0,6.0,0.0
812,82.0,108.0,120.0,7.0,0.0
813,64.0,0.0,120.0,4.0,0.0
814,76.0,0.0,120.0,6.0,0.0
815,80.0,0.0,120.0,7.0,0.0
816,80.0,0.0,120.0,2.0,0.0
817,76.0,66.0,120.0,0.0,0.0
818,68.0,0.0,120.0,4.0,0.0
819,68.0,0.0,120.0,8.0,0.0
820,59.0,0.0,120.0,3.0,0.0
821,34.0,12.0,210.0,10.0,0.0
822,73.0,0.0,600.0,4.0,0.0
823,82.0,54.0,60.0,2.0,0.0
824,46.0,0.0,210.0,10.0,0.0
825,73.0,108.0,600.0,8.0,0.0
826,78.0,6.0,120.0,0.0,0.0
827,58.0,0.0,210.0,1.0,0.0
828,78.0,12.0,690.0,7.0,0.0
829,78.0,0.0,120.0,6.0,0.0
830,61.0,0.0,120.0,3.0,0.0
831,83.0,102.0,60.0,2.0,0.0
832,54.0,0.0,120.0,3.0,0.0
833,82.0,0.0,120.0,6.0,0.0
834,66.0,0.0,120.0,5.0,0.0
835,82.0,108.0,120.0,0.0,0.0
836,85.0,12.0,210.0,2.0,0.0
837,42.0,0.0,210.0,10.0,0.0
838,73.0,0.0,120.0,6.0,0.0
839,58.0,108.0,120.0,5.0,0.0
840,30.0,12.0,210.0,10.0,0.0
841,54.0,0.0,210.0,1.0,0.0
842,58.0,0.0,120.0,3.0,0.0
843,73.0,0.0,120.0,0.0,0.0
844,61.0,0.0,120.0,5.0,0.0
845,54.0,0.0,120.0,3.0,0.0
846,82.0,120.0,120.0,2.0,0.0
847,76.0,0.0,120.0,0.0,0.0
848,76.0,0.0,120.0,6.0,0.0
849,59.0,0.0,210.0,3.0,0.0
850,59.0,0.0,210.0,1.0,0.0
851,78.0,0.0,120.0,2.0,0.0
852,47.0,0.0,210.0,10.0,0.0
853,75.0,0.0,120.0,6.0,0.0
854,75.0,0.0,120.0,0.0,0.0
855,35.0,0.0,210.0,10.0,0.0
856,59.0,0.0,600.0,5.0,0.0
857,66.0,120.0,120.0,4.0,0.0
858,78.0,0.0,120.0,0.0,0.0
859,78.0,0.0,120.0,6.0,0.0
860,75.0,0.0,120.0,2.0,0.0
861,66.0,0.0,120.0,8.0,0.0
862,71.0,0.0,120.0,6.0,0.0
863,71.0,108.0,120.0,2.0,0.0
864,69.0,0.0,210.0,7.0,0.0
865,63.0,12.0,210.0,3.0,0.0
866,71.0,0.0,120.0,0.0,0.0
867,63.0,0.0,120.0,8.0,0.0
868,63.0,0.0,120.0,4.0,0.0
869,75.0,0.0,120.0,0.0,0.0
870,66.0,120.0,120.0,2.0,0.0
871,75.0,0.0,120.0,6.0,0.0
872,69.0,0.0,120.0,1.0,0.0
873,66.0,0.0,120.0,8.0,0.0
874,66.0,0.0,120.0,4.0,0.0
875,76.0,0.0,120.0,0.0,0.0
876,71.0,0.0,600.0,4.0,0.0
877,68.0,0.0,120.0,1.0,0.0
878,68.0,0.0,210.0,7.0,0.0
879,68.0,108.0,120.0,2.0,0.0
880,59.0,12.0,210.0,3.0,0.0
881,71.0,0.0,600.0,8.0,0.0
882,76.0,0.0,120.0,6.0,0.0
883,64.0,0.0,120.0,1.0,0.0
884,80.0,0.0,120.0,0.0,0.0
885,80.0,120.0,120.0,6.0,0.0
886,71.0,0.0,120.0,2.0,0.0
887,64.0,0.0,120.0,5.0,0.0
888,56.0,108.0,120.0,5.0,0.0
889,80.0,0.0,210.0,7.0,0.0
890,71.0,0.0,120.0,0.0,0.0
891,56.0,12.0,210.0,3.0,0.0
892,47.0,0.0,210.0,10.0,0.0
893,64.0,0.0,120.0,2.0,0.0
894,68.0,0.0,120.0,1.0,0.0
895,59.0,0.0,210.0,10.0,0.0
896,71.0,0.0,120.0,6.0,0.0
897,64.0,0.0,120.0,1.0,0.0
898,76.0,0.0,120.0,0.0,0.0
899,76.0,0.0,120.0,6.0,0.0
900,59.0,0.0,120.0,5.0,0.0
901,68.0,120.0,120.0,2.0,0.0
902,66.0,0.0,120.0,2.0,0.0
903,57.0,12.0,210.0,3.0,0.0
904,75.0,0.0,120.0,6.0,0.0
905,71.0,0.0,210.0,1.0,0.0
906,59.0,0.0,210.0,10.0,0.0
907,78.0,0.0,210.0,7.0,0.0
908,47.0,0.0,210.0,10.0,0.0
909,47.0,108.0,600.0,5.0,0.0
910,75.0,108.0,120.0,0.0,0.0
911,69.0,0.0,120.0,2.0,0.0
912,78.0,0.0,120.0,6.0,0.0
913,73.0,120.0,120.0,8.0,0.0
914,73.0,0.0,120.0,4.0,0.0
915,78.0,0.0,120.0,0.0,0.0
916,35.0,0.0,210.0,10.0,0.0
917,63.0,108.0,120.0,2.0,0.0
918,47.0,0.0,210.0,10.0,0.0
919,71.0,0.0,120.0,4.0,0.0
920,75.0,12.0,210.0,7.0,0.0
921,71.0,0.0,120.0,0.0,0.0
922,71.0,0.0,120.0,8.0,0.0
923,54.0,0.0,210.0,3.0,0.0
924,71.0,0.0,120.0,6.0,0.0
925,59.0,0.0,120.0,1.0,0.0
926,66.0,0.0,120.0,2.0,0.0
927,75.0,0.0,120.0,6.0,0.0
928,73.0,0.0,120.0,4.0,0.0
929,73.0,0.0,120.0,8.0,0.0
930,57.0,120.0,120.0,1.0,0.0
931,75.0,0.0,120.0,0.0,0.0
932,76.0,0.0,120.0,0.0,0.0
933,76.0,0.0,120.0,6.0,0.0
934,64.0,0.0,120.0,2.0,0.0
935,56.0,0.0,120.0,1.0,0.0
936,71.0,0.0,690.0,8.0,0.0
937,71.0,12.0,210.0,7.0,0.0
938,56.0,0.0,210.0,3.0,0.0
939,71.0,0.0,690.0,4.0,0.0
940,80.0,0.0,120.0,6.0,0.0
941,52.0,120.0,120.0,5.0,0.0
942,59.0,0.0,120.0,2.0,0.0
943,80.0,0.0,120.0,0.0,0.0
944,52.0,0.0,120.0,1.0,0.0
945,52.0,108.0,120.0,3.0,0.0
946,47.0,0.0,210.0,10.0,0.0
947,80.0,12.0,210.0,7.0,0.0
948,44.0,0.0,120.0,5.0,0.0
949,56.0,0.0,120.0,1.0,0.0
950,71.0,0.0,120.0,0.0,0.0
951,71.0,0.0,120.0,6.0,0.0
952,59.0,0.0,210.0,10.0,0.0
953,64.0,0.0,120.0,2.0,0.0
954,52.0,0.0,120.0,1.0,0.0
955,68.0,0.0,120.0,2.0,0.0
956,47.0,120.0,120.0,3.0,0.0
957,76.0,0.0,120.0,0.0,0.0
958,47.0,0.0,120.0,5.0,0.0
959,76.0,0.0,120.0,6.0,0.0
960,59.0,108.0,120.0,1.0,0.0
961,66.0,0.0,210.0,2.0,0.0
962,59.0,0.0,210.0,3.0,0.0
963,78.0,0.0,210.0,7.0,0.0
964,75.0,12.0,210.0,6.0,0.0
965,59.0,0.0,210.0,10.0,0.0
966,35.0,0.0,210.0,5.0,0.0
967,75.0,0.0,120.0,0.0,0.0
968,47.0,0.0,210.0,10.0,0.0
969,78.0,0.0,120.0,0.0,0.0
970,63.0,120.0,120.0,1.0,0.0
971,57.0,0.0,210.0,10.0,0.0
972,80.0,108.0,120.0,0.0,0.0
973,65.0,0.0,120.0,1.0,0.0
974,45.0,12.0,210.0,10.0,0.0
975,66.0,228.0,120.0,1.0,0.0
976,81.0,0.0,120.0,0.0,0.0
977,56.0,0.0,210.0,10.0,0.0
978,44.0,12.0,210.0,10.0,0.0
979,83.0,108.0,600.0,0.0,0.0
980,68.0,0.0,690.0,1.0,0.0
981,75.0,0.0,120.0,2.0,0.0
982,59.0,120.0,120.0,3.0,0.0
983,42.0,12.0,210.0,10.0,0.0
984,77.0,108.0,120.0,2.0,0.0
985,54.0,0.0,210.0,10.0,0.0
986,61.0,0.0,120.0,3.0,0.0
987,62.0,120.0,120.0,3.0,0.0
988,78.0,0.0,120.0,2.0,0.0
989,53.0,0.0,210.0,10.0,0.0
990,61.0,0.0,210.0,3.0,0.0
991,41.0,12.0,210.0,10.0,0.0
992,80.0,0.0,210.0,2.0,0.0
993,85.0,0.0,120.0,0.0,0.0
994,68.0,120.0,120.0,4.0,0.0
995,73.0,0.0,210.0,7.0,0.0
996,42.0,0.0,210.0,10.0,0.0
997,61.0,0.0,210.0,1.0,0.0
998,66.0,0.0,210.0,3.0,0.0
999,54.0,12.0,210.0,10.0,0.0
1000,66.0,0.0,210.0,8.0,0.0
1001,78.0,24.0,420.0,6.0,0.0
1002,83.0,108.0,120.0,0.0,0.0
1003,78.0,0.0,420.0,2.0,0.0
1004,54.0,0.0,210.0,5.0,0.0
1005,69.0,0.0,120.0,4.0,0.0
1006,71.0,0.0,120.0,4.0,0.0
1007,81.0,120.0,120.0,0.0,0.0
1008,73.0,0.0,210.0,7.0,0.0
1009,61.0,12.0,210.0,10.0,0.0
1010,61.0,24.0,330.0,3.0,0.0
1011,73.0,0.0,600.0,1.0,0.0
1012,68.0,0.0,210.0,8.0,0.0
1013,61.0,0.0,210.0,5.0,0.0
1014,49.0,0.0,210.0,10.0,0.0
1015,80.0,84.0,120.0,0.0,0.0
1016,73.0,24.0,420.0,4.0,0.0
1017,81.0,0.0,120.0,0.0,0.0
1018,66.0,96.0,120.0,4.0,0.0
1019,83.0,0.0,120.0,0.0,0.0
1020,49.0,0.0,210.0,5.0,0.0
1021,68.0,84.0,120.0,4.0,0.0
1022,77.0,12.0,210.0,2.0,0.0
1023,49.0,0.0,210.0,10.0,0.0
1024,73.0,0.0,210.0,7.0,0.0
1025,37.0,0.0,210.0,10.0,0.0
1026,77.0,0.0,210.0,6.0,0.0
1027,68.0,0.0,210.0,8.0,0.0
1028,65.0,66.0,120.0,4.0,0.0
1029,59.0,0.0,120.0,3.0,0.0
1030,80.0,0.0,120.0,0.0,0.0
1031,61.0,54.0,60.0,4.0,0.0
1032,66.0,0.0,210.0,8.0,0.0
1033,78.0,6.0,120.0,2.0,0.0
1034,57.0,0.0,120.0,3.0,0.0
1035,78.0,0.0,210.0,6.0,0.0
1036,30.0,0.0,210.0,10.0,0.0
1037,42.0,0.0,210.0,10.0,0.0
1038,81.0,24.0,420.0,0.0,0.0
1039,42.0,0.0,210.0,5.0,0.0
1040,73.0,12.0,210.0,7.0,0.0
1041,71.0,60.0,60.0,4.0,0.0
1042,77.0,0.0,120.0,2.0,0.0
1043,61.0,0.0,120.0,3.0,0.0
1044,69.0,42.0,60.0,4.0,0.0
1045,71.0,6.0,120.0,1.0,0.0
1046,68.0,114.0,60.0,4.0,0.0
1047,69.0,0.0,120.0,1.0,0.0
1048,49.0,0.0,210.0,10.0,0.0
1049,37.0,12.0,210.0,10.0,0.0
1050,78.0,84.0,120.0,2.0,0.0
1051,63.0,0.0,120.0,3.0,0.0
1052,66.0,0.0,210.0,4.0,0.0
1053,68.0,0.0,120.0,1.0,0.0
1054,65.0,120.0,120.0,3.0,0.0
1055,80.0,0.0,120.0,2.0,0.0
1056,66.0,0.0,690.0,3.0,0.0
1057,42.0,12.0,210.0,10.0,0.0
1058,66.0,108.0,120.0,1.0,0.0
1059,54.0,0.0,210.0,10.0,0.0
1060,81.0,108.0,600.0,2.0,0.0
1061,73.0,0.0,120.0,0.0,0.0
1062,57.0,120.0,120.0,1.0,0.0
1063,59.0,0.0,120.0,1.0,0.0
1064,52.0,12.0,210.0,10.0,0.0
1065,40.0,0.0,210.0,10.0,0.0
1066,75.0,108.0,120.0,0.0,0.0
1067,61.0,0.0,120.0,1.0,0.0
1068,76.0,120.0,120.0,0.0,0.0
1069,39.0,0.0,210.0,10.0,0.0
1070,59.0,0.0,210.0,1.0,0.0
1071,51.0,0.0,210.0,10.0,0.0
1072,78.0,12.0,210.0,0.0,0.0
1073,83.0,120.0,120.0,2.0,0.0
1074,66.0,0.0,120.0,4.0,0.0
1075,59.0,0.0,210.0,3.0,0.0
1076,40.0,0.0,210.0,10.0,0.0
1077,81.0,0.0,120.0,2.0,0.0
1078,68.0,108.0,120.0,4.0,0.0
1079,76.0,24.0,420.0,6.0,0.0
1080,76.0,0.0,420.0,0.0,0.0
1081,49.0,12.0,210.0,5.0,0.0
1082,52.0,0.0,210.0,10.0,0.0
1083,64.0,0.0,210.0,1.0,0.0
1084,64.0,0.0,210.0,8.0,0.0
1085,71.0,0.0,210.0,7.0,0.0
1086,69.0,120.0,120.0,4.0,0.0
1087,80.0,0.0,120.0,2.0,0.0
1088,71.0,6.0,600.0,3.0,0.0
1089,71.0,0.0,210.0,7.0,0.0
1090,59.0,24.0,330.0,1.0,0.0
1091,66.0,0.0,210.0,8.0,0.0
1092,47.0,12.0,210.0,10.0,0.0
1093,59.0,0.0,210.0,10.0,0.0
1094,78.0,84.0,120.0,2.0,0.0
1095,59.0,0.0,210.0,5.0,0.0
1096,71.0,24.0,420.0,4.0,0.0
1097,80.0,96.0,120.0,2.0,0.0
1098,64.0,0.0,120.0,4.0,0.0
1099,66.0,84.0,120.0,4.0,0.0
1100,47.0,0.0,210.0,5.0,0.0
1101,71.0,0.0,210.0,7.0,0.0
1102,81.0,0.0,120.0,2.0,0.0
1103,35.0,12.0,210.0,10.0,0.0
1104,66.0,0.0,210.0,8.0,0.0
1105,47.0,0.0,210.0,10.0,0.0
1106,75.0,0.0,210.0,0.0,0.0
1107,75.0,0.0,210.0,6.0,0.0
1108,57.0,0.0,120.0,1.0,0.0
1109,63.0,0.0,120.0,4.0,0.0
1110,78.0,66.0,120.0,2.0,0.0
1111,59.0,54.0,60.0,4.0,0.0
1112,40.0,0.0,120.0,5.0,0.0
1113,76.0,0.0,120.0,0.0,0.0
1114,80.0,108.0,600.0,2.0,0.0
1115,71.0,0.0,210.0,7.0,0.0
1116,56.0,0.0,120.0,1.0,0.0
1117,40.0,0.0,210.0,10.0,0.0
1118,64.0,0.0,210.0,8.0,0.0
1119,52.0,12.0,210.0,10.0,0.0
1120,76.0,0.0,210.0,6.0,0.0
1121,69.0,60.0,60.0,4.0,0.0
1122,68.0,42.0,60.0,4.0,0.0
1123,59.0,0.0,120.0,1.0,0.0
1124,59.0,0.0,120.0,3.0,0.0
1125,59.0,6.0,120.0,5.0,0.0
1126,75.0,0.0,120.0,0.0,0.0
1127,66.0,114.0,60.0,4.0,0.0
1128,61.0,0.0,120.0,5.0,0.0
1129,39.0,0.0,210.0,10.0,0.0
1130,51.0,12.0,210.0,10.0,0.0
1131,61.0,108.0,120.0,1.0,0.0
1132,64.0,0.0,210.0,4.0,0.0
1133,61.0,0.0,120.0,3.0,0.0
1134,76.0,0.0,120.0,0.0,0.0
1135,63.0,0.0,120.0,1.0,0.0
1136,63.0,0.0,120.0,5.0,0.0
1137,63.0,120.0,120.0,3.0,0.0
1138,78.0,0.0,120.0,0.0,0.0
1139,37.0,12.0,210.0,10.0,0.0
1140,64.0,0.0,600.0,1.0,0.0
1141,64.0,0.0,600.0,3.0,0.0
1142,80.0,0.0,120.0,0.0,0.0
1143,64.0,108.0,600.0,5.0,0.0
1144,49.0,0.0,210.0,10.0,0.0
1145,80.0,120.0,120.0,2.0,0.0
1146,78.0,0.0,120.0,0.0,0.0
1147,47.0,12.0,210.0,10.0,0.0
1148,76.0,0.0,120.0,0.0,0.0
1149,82.0,108.0,120.0,2.0,0.0
1150,35.0,0.0,210.0,10.0,0.0
1151,75.0,120.0,120.0,0.0,0.0
1152,83.0,0.0,120.0,2.0,0.0
1153,46.0,12.0,210.0,10.0,0.0
1154,34.0,0.0,210.0,10.0,0.0
1155,73.0,0.0,120.0,0.0,0.0
1156,85.0,0.0,210.0,2.0,0.0
1157,70.0,0.0,120.0,0.0,0.0
1158,66.0,0.0,120.0,3.0,0.0
1159,66.0,0.0,120.0,1.0,0.0
1160,66.0,120.0,120.0,5.0,0.0
1161,63.0,0.0,120.0,3.0,0.0
1162,66.0,0.0,210.0,8.0,0.0
1163,83.0,0.0,420.0,2.0,0.0
1164,78.0,0.0,360.0,0.0,0.0
1165,35.0,0.0,210.0,10.0,0.0
1166,63.0,0.0,120.0,1.0,0.0
1167,71.0,0.0,210.0,7.0,0.0
1168,47.0,12.0,210.0,10.0,0.0
1169,83.0,24.0,420.0,6.0,0.0
1170,63.0,108.0,120.0,5.0,0.0
1171,64.0,0.0,120.0,1.0,0.0
1172,64.0,120.0,120.0,3.0,0.0
1173,64.0,0.0,120.0,5.0,0.0
1174,73.0,12.0,210.0,7.0,0.0
1175,54.0,0.0,210.0,10.0,0.0
1176,61.0,0.0,120.0,3.0,0.0
1177,61.0,66.0,120.0,5.0,0.0
1178,42.0,0.0,210.0,10.0,0.0
1179,66.0,0.0,210.0,8.0,0.0
1180,61.0,0.0,120.0,1.0,0.0
1181,63.0,6.0,120.0,1.0,0.0
1182,63.0,0.0,120.0,5.0,0.0
1183,63.0,0.0,120.0,3.0,0.0
1184,76.0,18.0,60.0,0.0,0.0
1185,75.0,60.0,60.0,0.0,0.0
1186,73.0,54.0,60.0,0.0,0.0
1187,73.0,0.0,210.0,7.0,0.0
1188,82.0,12.0,210.0,6.0,0.0
1189,42.0,0.0,210.0,10.0,0.0
1190,64.0,0.0,120.0,1.0,0.0
1191,64.0,0.0,120.0,5.0,0.0
1192,30.0,0.0,210.0,10.0,0.0
1193,82.0,0.0,210.0,2.0,0.0
1194,66.0,0.0,210.0,8.0,0.0
1195,64.0,6.0,120.0,3.0,0.0
1196,71.0,60.0,60.0,0.0,0.0
1197,61.0,0.0,120.0,3.0,0.0
1198,61.0,6.0,120.0,1.0,0.0
1199,61.0,0.0,120.0,5.0,0.0
1200,70.0,42.0,60.0,0.0,0.0
1201,68.0,114.0,60.0,0.0,0.0
1202,63.0,0.0,120.0,3.0,0.0
1203,63.0,0.0,120.0,5.0,0.0
1204,35.0,0.0,210.0,10.0,0.0
1205,71.0,12.0,210.0,7.0,0.0
1206,66.0,0.0,210.0,8.0,0.0
1207,66.0,0.0,120.0,0.0,0.0
1208,47.0,0.0,210.0,10.0,0.0
1209,83.0,0.0,210.0,2.0,0.0
1210,83.0,0.0,120.0,6.0,0.0
1211,63.0,108.0,120.0,1.0,0.0
1212,66.0,120.0,120.0,1.0,0.0
1213,81.0,0.0,120.0,4.0,0.0
1214,66.0,0.0,120.0,3.0,0.0
1215,66.0,0.0,120.0,5.0,0.0
1216,75.0,0.0,120.0,6.0,0.0
1217,75.0,0.0,120.0,0.0,0.0
1218,59.0,0.0,120.0,1.0,0.0
1219,80.0,0.0,120.0,4.0,0.0
1220,59.0,0.0,120.0,10.0,0.0
1221,59.0,0.0,120.0,5.0,0.0
1222,76.0,108.0,120.0,0.0,0.0
1223,76.0,0.0,120.0,6.0,0.0
1224,71.0,12.0,210.0,2.0,0.0
1225,59.0,0.0,120.0,3.0,0.0
1226,47.0,0.0,120.0,10.0,0.0
1227,78.0,0.0,120.0,0.0,0.0
1228,45.0,120.0,120.0,10.0,0.0
1229,78.0,0.0,120.0,6.0,0.0
1230,78.0,0.0,120.0,4.0,0.0
1231,63.0,0.0,120.0,5.0,0.0
1232,57.0,0.0,120.0,10.0,0.0
1233,63.0,0.0,120.0,1.0,0.0
1234,63.0,0.0,120.0,3.0,0.0
1235,76.0,0.0,120.0,4.0,0.0
1236,64.0,0.0,120.0,1.0,0.0
1237,44.0,0.0,210.0,10.0,0.0
1238,64.0,0.0,120.0,5.0,0.0
1239,83.0,0.0,600.0,7.0,0.0
1240,64.0,108.0,120.0,3.0,0.0
1241,83.0,108.0,600.0,2.0,0.0
1242,80.0,12.0,210.0,0.0,0.0
1243,56.0,0.0,210.0,10.0,0.0
1244,80.0,0.0,210.0,6.0,0.0
1245,68.0,0.0,120.0,1.0,0.0
1246,71.0,120.0,120.0,4.0,0.0
1247,68.0,0.0,120.0,5.0,0.0
1248,68.0,0.0,120.0,3.0,0.0
1249,59.0,0.0,120.0,3.0,0.0
1250,68.0,0.0,210.0,8.0,0.0
1251,68.0,0.0,120.0,4.0,0.0
1252,52.0,0.0,210.0,10.0,0.0
1253,80.0,0.0,210.0,0.0,0.0
1254,59.0,108.0,120.0,1.0,0.0
1255,80.0,12.0,210.0,6.0,0.0
1256,59.0,0.0,120.0,5.0,0.0
1257,40.0,0.0,210.0,10.0,0.0
1258,71.0,0.0,120.0,4.0,0.0
1259,63.0,120.0,120.0,3.0,0.0
1260,63.0,0.0,120.0,1.0,0.0
1261,63.0,0.0,120.0,5.0,0.0
1262,61.0,0.0,120.0,5.0,0.0
1263,61.0,0.0,120.0,1.0,0.0
1264,61.0,0.0,120.0,3.0,0.0
1265,80.0,0.0,210.0,0.0,0.0
1266,80.0,0.0,210.0,6.0,0.0
1267,45.0,0.0,210.0,10.0,0.0
1268,73.0,12.0,210.0,8.0,0.0
1269,64.0,0.0,210.0,4.0,0.0
1270,57.0,0.0,210.0,10.0,0.0
1271,64.0,120.0,120.0,3.0,0.0
1272,64.0,0.0,120.0,1.0,0.0
1273,76.0,0.0,120.0,7.0,0.0
1274,64.0,0.0,120.0,5.0,0.0
1275,76.0,0.0,120.0,2.0,0.0
1276,56.0,12.0,210.0,10.0,0.0
1277,44.0,0.0,210.0,10.0,0.0
1278,73.0,0.0,120.0,7.0,0.0
1279,76.0,0.0,210.0,4.0,0.0
1280,73.0,0.0,120.0,2.0,0.0
1281,57.0,0.0,120.0,3.0,0.0
1282,57.0,0.0,120.0,1.0,0.0
1283,78.0,0.0,120.0,6.0,0.0
1284,78.0,0.0,120.0,0.0,0.0
1285,57.0,108.0,120.0,5.0,0.0
1286,61.0,0.0,120.0,5.0,0.0
1287,76.0,120.0,120.0,7.0,0.0
1288,61.0,0.0,120.0,3.0,0.0
1289,61.0,0.0,120.0,1.0,0.0
1290,76.0,0.0,120.0,2.0,0.0
1291,76.0,0.0,120.0,0.0,0.0
1292,76.0,0.0,120.0,6.0,0.0
1293,81.0,108.0,600.0,2.0,0.0
1294,42.0,0.0,210.0,10.0,0.0
1295,63.0,0.0,120.0,1.0,0.0
1296,78.0,12.0,210.0,6.0,0.0
1297,78.0,0.0,210.0,0.0,0.0
1298,54.0,0.0,210.0,10.0,0.0
1299,81.0,0.0,600.0,7.0,0.0
1300,63.0,108.0,120.0,5.0,0.0
1301,63.0,0.0,120.0,3.0,0.0
1302,66.0,120.0,120.0,5.0,0.0
1303,66.0,0.0,120.0,3.0,0.0
1304,69.0,0.0,120.0,4.0,0.0
1305,66.0,0.0,120.0,1.0,0.0
1306,57.0,108.0,120.0,1.0,0.0
1307,78.0,0.0,210.0,6.0,0.0
1308,66.0,0.0,120.0,4.0,0.0
1309,39.0,0.0,210.0,10.0,0.0
1310,57.0,0.0,120.0,5.0,0.0
1311,57.0,0.0,120.0,3.0,0.0
1312,51.0,12.0,210.0,10.0,0.0
1313,66.0,0.0,210.0,8.0,0.0
1314,78.0,0.0,210.0,0.0,0.0
1315,61.0,0.0,120.0,1.0,0.0
1316,61.0,0.0,120.0,5.0,0.0
1317,61.0,0.0,120.0,3.0,0.0
1318,69.0,120.0,120.0,4.0,0.0
1319,59.0,0.0,120.0,3.0,0.0
1320,71.0,12.0,210.0,8.0,0.0
1321,59.0,0.0,120.0,5.0,0.0
1322,59.0,0.0,120.0,1.0,0.0
1323,63.0,0.0,210.0,4.0,0.0
1324,78.0,0.0,210.0,6.0,0.0
1325,78.0,0.0,210.0,0.0,0.0
1326,63.0,0.0,120.0,1.0,0.0
1327,63.0,0.0,120.0,5.0,0.0
1328,75.0,120.0,120.0,7.0,0.0
1329,63.0,0.0,120.0,3.0,0.0
1330,75.0,0.0,120.0,2.0,0.0
1331,56.0,0.0,120.0,3.0,0.0
1332,76.0,0.0,120.0,6.0,0.0
1333,56.0,108.0,120.0,10.0,0.0
1334,56.0,0.0,120.0,1.0,0.0
1335,76.0,0.0,120.0,0.0,0.0
1336,71.0,0.0,120.0,7.0,0.0
1337,75.0,12.0,210.0,4.0,0.0
1338,71.0,0.0,120.0,2.0,0.0
1339,56.0,0.0,120.0,5.0,0.0
1340,44.0,0.0,120.0,10.0,0.0
1341,59.0,0.0,120.0,3.0,0.0
1342,59.0,0.0,120.0,5.0,0.0
1343,75.0,0.0,120.0,0.0,0.0
1344,42.0,0.0,120.0,10.0,0.0
1345,59.0,0.0,120.0,1.0,0.0
1346,54.0,0.0,120.0,10.0,0.0
1347,75.0,120.0,120.0,6.0,0.0
1348,75.0,0.0,120.0,7.0,0.0
1349,75.0,0.0,120.0,2.0,0.0
1350,61.0,108.0,120.0,5.0,0.0
1351,76.0,12.0,690.0,0.0,0.0
1352,80.0,0.0,600.0,2.0,0.0
1353,61.0,0.0,120.0,1.0,0.0
1354,52.0,0.0,210.0,10.0,0.0
1355,76.0,0.0,690.0,6.0,0.0
1356,80.0,0.0,600.0,7.0,0.0
1357,40.0,12.0,210.0,10.0,0.0
1358,61.0,0.0,120.0,3.0,0.0
1359,64.0,120.0,120.0,1.0,0.0
1360,68.0,0.0,120.0,4.0,0.0
1361,64.0,0.0,120.0,3.0,0.0
1362,64.0,0.0,120.0,5.0,0.0
1363,64.0,0.0,210.0,8.0,0.0
1364,56.0,0.0,120.0,3.0,0.0
1365,56.0,0.0,120.0,1.0,0.0
1366,37.0,0.0,210.0,10.0,0.0
1367,56.0,108.0,120.0,5.0,0.0
1368,64.0,0.0,120.0,4.0,0.0
1369,49.0,12.0,210.0,10.0,0.0
1370,68.0,120.0,120.0,4.0,0.0
1371,59.0,0.0,120.0,5.0,0.0
1372,59.0,0.0,120.0,3.0,0.0
1373,59.0,0.0,120.0,1.0,0.0
1374,57.0,0.0,120.0,5.0,0.0
1375,69.0,0.0,210.0,8.0,0.0
1376,57.0,0.0,120.0,3.0,0.0
1377,57.0,108.0,120.0,1.0,0.0
1378,54.0,0.0,210.0,10.0,0.0
1379,61.0,0.0,210.0,4.0,0.0
1380,42.0,0.0,210.0,10.0,0.0
1381,61.0,120.0,120.0,3.0,0.0
1382,61.0,0.0,120.0,1.0,0.0
1383,73.0,0.0,120.0,2.0,0.0
1384,61.0,0.0,120.0,5.0,0.0
1385,73.0,0.0,120.0,7.0,0.0
1386,75.0,0.0,120.0,0.0,0.0
1387,69.0,0.0,120.0,7.0,0.0
1388,75.0,0.0,120.0,6.0,0.0
1389,54.0,0.0,120.0,3.0,0.0
1390,54.0,0.0,120.0,1.0,0.0
1391,40.0,12.0,210.0,10.0,0.0
1392,52.0,0.0,210.0,10.0,0.0
1393,54.0,0.0,120.0,5.0,0.0
1394,69.0,108.0,120.0,2.0,0.0
1395,73.0,0.0,210.0,4.0,0.0
1396,73.0,0.0,120.0,2.0,0.0
1397,57.0,0.0,120.0,1.0,0.0
1398,57.0,0.0,120.0,5.0,0.0
1399,73.0,0.0,120.0,0.0,0.0
1400,73.0,0.0,120.0,7.0,0.0
1401,57.0,120.0,120.0,3.0,0.0
1402,73.0,0.0,120.0,6.0,0.0
1403,59.0,0.0,120.0,3.0,0.0
1404,59.0,0.0,120.0,5.0,0.0
1405,78.0,0.0,600.0,2.0,0.0
1406,75.0,108.0,120.0,0.0,0.0
1407,51.0,0.0,210.0,10.0,0.0
1408,59.0,0.0,120.0,1.0,0.0
1409,78.0,0.0,600.0,7.0,0.0
1410,39.0,12.0,210.0,10.0,0.0
1411,71.0,0.0,690.0,6.0,0.0
1412,78.0,120.0,120.0,0.0,0.0
1413,63.0,0.0,120.0,1.0,0.0
1414,63.0,0.0,120.0,5.0,0.0
1415,63.0,0.0,120.0,3.0,0.0
1416,66.0,0.0,120.0,4.0,0.0
1417,54.0,0.0,120.0,1.0,0.0
1418,47.0,12.0,210.0,10.0,0.0
1419,54.0,108.0,120.0,3.0,0.0
1420,63.0,0.0,210.0,8.0,0.0
1421,83.0,0.0,360.0,0.0,0.0
1422,35.0,0.0,210.0,10.0,0.0
1423,54.0,0.0,120.0,5.0,0.0
1424,63.0,0.0,120.0,4.0,0.0
1425,57.0,0.0,120.0,3.0,0.0
1426,57.0,0.0,120.0,5.0,0.0
1427,66.0,0.0,120.0,4.0,0.0
1428,57.0,120.0,120.0,1.0,0.0
1429,59.0,0.0,210.0,4.0,0.0
1430,56.0,0.0,120.0,5.0,0.0
1431,40.0,12.0,210.0,10.0,0.0
1432,52.0,0.0,210.0,10.0,0.0
1433,56.0,0.0,120.0,3.0,0.0
1434,68.0,0.0,210.0,8.0,0.0
1435,56.0,108.0,120.0,1.0,0.0
1436,59.0,0.0,120.0,1.0,0.0
1437,59.0,0.0,120.0,5.0,0.0
1438,80.0,0.0,120.0,0.0,0.0
1439,71.0,0.0,120.0,7.0,0.0
1440,59.0,0.0,120.0,3.0,0.0
1441,71.0,120.0,120.0,2.0,0.0
1442,52.0,0.0,120.0,1.0,0.0
1443,68.0,0.0,120.0,7.0,0.0
1444,52.0,108.0,120.0,5.0,0.0
1445,71.0,0.0,210.0,4.0,0.0
1446,76.0,0.0,120.0,6.0,0.0
1447,28.0,0.0,210.0,10.0,0.0
1448,40.0,12.0,210.0,10.0,0.0
1449,76.0,0.0,120.0,0.0,0.0
1450,52.0,0.0,120.0,3.0,0.0
1451,68.0,0.0,120.0,2.0,0.0
1452,59.0,0.0,210.0,8.0,0.0
1453,56.0,120.0,120.0,3.0,0.0
1454,71.0,0.0,120.0,7.0,0.0
1455,56.0,0.0,120.0,1.0,0.0
1456,74.0,0.0,120.0,6.0,0.0
1457,56.0,0.0,120.0,5.0,0.0
1458,71.0,0.0,120.0,0.0,0.0
1459,71.0,0.0,120.0,2.0,0.0
1460,73.0,108.0,120.0,0.0,0.0
1461,76.0,0.0,600.0,7.0,0.0
1462,40.0,0.0,210.0,10.0,0.0
1463,76.0,0.0,600.0,2.0,0.0
1464,57.0,0.0,120.0,5.0,0.0
1465,57.0,0.0,120.0,1.0,0.0
1466,73.0,0.0,120.0,6.0,0.0
1467,57.0,0.0,120.0,3.0,0.0
1468,28.0,0.0,210.0,10.0,0.0
1469,61.0,12.0,210.0,8.0,0.0
1470,61.0,0.0,120.0,1.0,0.0
1471,76.0,0.0,120.0,4.0,0.0
1472,61.0,0.0,120.0,3.0,0.0
1473,76.0,120.0,120.0,6.0,0.0
1474,61.0,0.0,120.0,5.0,0.0
1475,76.0,0.0,120.0,0.0,0.0
1476,52.0,0.0,120.0,3.0,0.0
1477,73.0,0.0,120.0,4.0,0.0
1478,40.0,0.0,210.0,10.0,0.0
1479,69.0,0.0,120.0,6.0,0.0
1480,52.0,12.0,210.0,10.0,0.0
1481,69.0,0.0,120.0,0.0,0.0
1482,64.0,0.0,210.0,8.0,0.0
1483,52.0,108.0,120.0,1.0,0.0
1484,52.0,0.0,120.0,5.0,0.0
1485,73.0,0.0,120.0,0.0,0.0
1486,57.0,120.0,120.0,3.0,0.0
1487,73.0,0.0,120.0,6.0,0.0
1488,57.0,0.0,120.0,1.0,0.0
1489,57.0,0.0,120.0,5.0,0.0
1490,69.0,0.0,120.0,4.0,0.0
1491,71.0,0.0,120.0,6.0,0.0
1492,40.0,0.0,210.0,10.0,0.0
1493,56.0,108.0,120.0,1.0,0.0
1494,71.0,0.0,120.0,0.0,0.0
1495,56.0,0.0,120.0,3.0,0.0
1496,71.0,12.0,210.0,4.0,0.0
1497,56.0,0.0,120.0,5.0,0.0
1498,68.0,0.0,210.0,8.0,0.0
1499,52.0,0.0,210.0,10.0,0.0
1500,78.0,0.0,120.0,2.0,0.0
1501,74.0,0.0,120.0,0.0,0.0
1502,74.0,0.0,120.0,6.0,0.0
1503,59.0,120.0,120.0,5.0,0.0
1504,59.0,0.0,120.0,1.0,0.0
1505,78.0,0.0,120.0,7.0,0.0
1506,59.0,0.0,120.0,3.0,0.0
1507,76.0,0.0,210.0,4.0,0.0
1508,76.0,108.0,120.0,7.0,0.0
1509,71.0,0.0,210.0,8.0,0.0
1510,28.0,0.0,210.0,10.0,0.0
1511,68.0,0.0,120.0,6.0,0.0
1512,68.0,0.0,120.0,0.0,0.0
1513,52.0,0.0,120.0,5.0,0.0
1514,52.0,0.0,120.0,3.0,0.0
1515,52.0,0.0,120.0,1.0,0.0
1516,40.0,12.0,210.0,10.0,0.0
1517,76.0,0.0,120.0,2.0,0.0
1518,71.0,0.0,120.0,6.0,0.0
1519,56.0,120.0,120.0,1.0,0.0
1520,56.0,0.0,120.0,3.0,0.0
1521,78.0,0.0,120.0,2.0,0.0
1522,78.0,0.0,120.0,7.0,0.0
1523,56.0,0.0,120.0,5.0,0.0
1524,71.0,0.0,120.0,0.0,0.0
1525,76.0,0.0,690.0,7.0,0.0
1526,40.0,0.0,210.0,10.0,0.0
1527,57.0,0.0,120.0,5.0,0.0
1528,57.0,108.0,120.0,3.0,0.0
1529,57.0,0.0,120.0,1.0,0.0
1530,76.0,0.0,120.0,6.0,0.0
1531,28.0,0.0,210.0,10.0,0.0
1532,73.0,12.0,210.0,8.0,0.0
1533,76.0,0.0,120.0,0.0,0.0
1534,76.0,0.0,690.0,2.0,0.0
1535,61.0,0.0,120.0,5.0,0.0
1536,61.0,0.0,120.0,3.0,0.0
1537,61.0,0.0,120.0,1.0,0.0
1538,76.0,0.0,120.0,4.0,0.0
1539,64.0,0.0,120.0,6.0,0.0
1540,64.0,120.0,120.0,0.0,0.0
1541,52.0,0.0,120.0,1.0,0.0
1542,52.0,0.0,120.0,3.0,0.0
1543,52.0,0.0,210.0,10.0,0.0
1544,69.0,0.0,120.0,0.0,0.0
1545,52.0,108.0,120.0,5.0,0.0
1546,69.0,0.0,120.0,6.0,0.0
1547,76.0,0.0,210.0,8.0,0.0
1548,40.0,12.0,210.0,10.0,0.0
1549,73.0,0.0,120.0,4.0,0.0
1550,73.0,0.0,120.0,0.0,0.0
1551,57.0,120.0,120.0,1.0,0.0
1552,69.0,0.0,120.0,4.0,0.0
1553,73.0,0.0,120.0,6.0,0.0
1554,57.0,0.0,120.0,3.0,0.0
1555,57.0,0.0,120.0,5.0,0.0
1556,40.0,72.0,870.0,10.0,0.0
1557,56.0,0.0,210.0,3.0,0.0
1558,64.0,12.0,210.0,8.0,0.0
1559,71.0,0.0,120.0,4.0,0.0
1560,71.0,0.0,120.0,6.0,0.0
1561,52.0,0.0,870.0,10.0,0.0
1562,71.0,0.0,120.0,0.0,0.0
1563,56.0,0.0,120.0,5.0,0.0
1564,56.0,108.0,120.0,1.0,0.0
1565,52.0,120.0,120.0,5.0,0.0
1566,68.0,0.0,120.0,6.0,0.0
1567,68.0,0.0,120.0,4.0,0.0
1568,68.0,0.0,120.0,0.0,0.0
1569,59.0,0.0,120.0,1.0,0.0
1570,56.0,0.0,120.0,1.0,0.0
1571,64.0,0.0,120.0,0.0,0.0
1572,64.0,108.0,120.0,2.0,0.0
1573,56.0,0.0,120.0,5.0,0.0
1574,68.0,0.0,210.0,7.0,0.0
1575,64.0,0.0,120.0,6.0,0.0
1576,64.0,0.0,120.0,4.0,0.0
1577,59.0,12.0,210.0,8.0,0.0
1578,59.0,0.0,210.0,3.0,0.0
1579,63.0,0.0,120.0,0.0,0.0
1580,54.0,0.0,120.0,5.0,0.0
1581,59.0,120.0,120.0,1.0,0.0
1582,63.0,0.0,120.0,6.0,0.0
1583,63.0,0.0,120.0,4.0,0.0
1584,63.0,0.0,120.0,2.0,0.0
1585,71.0,12.0,210.0,7.0,0.0
1586,56.0,0.0,120.0,5.0,0.0
1587,64.0,108.0,120.0,2.0,0.0
1588,56.0,0.0,210.0,3.0,0.0
1589,64.0,0.0,120.0,6.0,0.0
1590,52.0,0.0,210.0,1.0,0.0
1591,64.0,0.0,120.0,0.0,0.0
1592,64.0,0.0,120.0,4.0,0.0
1593,64.0,0.0,210.0,8.0,0.0
1594,66.0,0.0,120.0,0.0,0.0
1595,66.0,0.0,120.0,2.0,0.0
1596,57.0,120.0,120.0,5.0,0.0
1597,66.0,0.0,120.0,4.0,0.0
1598,66.0,0.0,120.0,6.0,0.0
1599,59.0,0.0,210.0,8.0,0.0
1600,68.0,0.0,120.0,4.0,0.0
1601,59.0,0.0,120.0,5.0,0.0
1602,68.0,36.0,120.0,0.0,0.0
1603,76.0,12.0,210.0,7.0,0.0
1604,68.0,0.0,120.0,2.0,0.0
1605,52.0,0.0,210.0,3.0,0.0
1606,68.0,0.0,120.0,6.0,0.0
1607,69.0,0.0,120.0,4.0,0.0
1608,61.0,0.0,120.0,5.0,0.0
1609,69.0,0.0,120.0,0.0,0.0
1610,69.0,120.0,120.0,6.0,0.0
1611,69.0,0.0,120.0,2.0,0.0
1612,51.0,0.0,870.0,10.0,0.0
1613,71.0,0.0,120.0,4.0,0.0
1614,71.0,0.0,120.0,2.0,0.0
1615,71.0,120.0,120.0,0.0,0.0
1616,71.0,0.0,120.0,6.0,0.0
1617,39.0,72.0,870.0,10.0,0.0
1618,63.0,0.0,120.0,5.0,0.0
1619,70.0,0.0,120.0,0.0,0.0
1620,61.0,0.0,120.0,5.0,0.0
1621,70.0,120.0,120.0,4.0,0.0
1622,70.0,0.0,120.0,6.0,0.0
1623,70.0,0.0,120.0,2.0,0.0
1624,63.0,0.0,120.0,5.0,0.0
1625,71.0,0.0,120.0,4.0,0.0
1626,63.0,0.0,210.0,8.0,0.0
1627,54.0,12.0,210.0,3.0,0.0
1628,71.0,0.0,120.0,2.0,0.0
1629,71.0,0.0,120.0,7.0,0.0
1630,71.0,108.0,120.0,6.0,0.0
1631,54.0,0.0,210.0,1.0,0.0
1632,71.0,0.0,120.0,0.0,0.0
1633,73.0,0.0,120.0,6.0,0.0
1634,64.0,120.0,120.0,5.0,0.0
1635,73.0,0.0,120.0,4.0,0.0
1636,73.0,0.0,120.0,0.0,0.0
1637,73.0,0.0,120.0,2.0,0.0
1638,70.0,0.0,120.0,7.0,0.0
1639,75.0,0.0,120.0,4.0,0.0
1640,75.0,0.0,120.0,0.0,0.0
1641,71.0,0.0,210.0,7.0,0.0
1642,75.0,108.0,120.0,6.0,0.0
1643,66.0,0.0,210.0,8.0,0.0
1644,66.0,0.0,120.0,5.0,0.0
1645,75.0,0.0,120.0,2.0,0.0
1646,51.0,12.0,210.0,3.0,0.0
1647,59.0,0.0,210.0,1.0,0.0
1648,64.0,120.0,120.0,5.0,0.0
1649,73.0,0.0,120.0,6.0,0.0
1650,73.0,0.0,120.0,4.0,0.0
1651,73.0,0.0,120.0,2.0,0.0
1652,73.0,0.0,120.0,0.0,0.0
1653,75.0,0.0,120.0,0.0,0.0
1654,75.0,0.0,120.0,4.0,0.0
1655,47.0,0.0,210.0,3.0,0.0
1656,59.0,12.0,210.0,1.0,0.0
1657,66.0,0.0,210.0,7.0,0.0
1658,66.0,0.0,120.0,5.0,0.0
1659,71.0,0.0,210.0,8.0,0.0
1660,75.0,0.0,120.0,2.0,0.0
1661,75.0,36.0,120.0,6.0,0.0
1662,63.0,120.0,120.0,5.0,0.0
1663,71.0,0.0,120.0,2.0,0.0
1664,71.0,0.0,120.0,0.0,0.0
1665,71.0,0.0,120.0,4.0,0.0
1666,71.0,0.0,120.0,6.0,0.0
1667,76.0,0.0,120.0,4.0,0.0
1668,59.0,12.0,210.0,1.0,0.0
1669,37.0,72.0,870.0,10.0,0.0
1670,76.0,0.0,120.0,2.0,0.0
1671,49.0,0.0,870.0,10.0,0.0
1672,68.0,0.0,210.0,5.0,0.0
1673,76.0,0.0,120.0,0.0,0.0
1674,76.0,108.0,120.0,6.0,0.0
1675,75.0,0.0,120.0,0.0,0.0
1676,75.0,0.0,120.0,4.0,0.0
1677,75.0,0.0,120.0,6.0,0.0
1678,59.0,0.0,120.0,3.0,0.0
1679,75.0,120.0,120.0,2.0,0.0
1680,58.0,0.0,120.0,8.0,0.0
1681,73.0,0.0,120.0,7.0,0.0
1682,58.0,0.0,120.0,1.0,0.0
1683,76.0,0.0,120.0,2.0,0.0
1684,61.0,0.0,120.0,3.0,0.0
1685,76.0,120.0,120.0,4.0,0.0
1686,73.0,0.0,120.0,5.0,0.0
1687,76.0,0.0,120.0,0.0,0.0
1688,76.0,0.0,120.0,6.0,0.0
1689,63.0,0.0,120.0,3.0,0.0
1690,56.0,0.0,120.0,1.0,0.0
1691,78.0,0.0,120.0,4.0,0.0
1692,56.0,0.0,120.0,8.0,0.0
1693,71.0,120.0,120.0,5.0,0.0
1694,78.0,0.0,120.0,2.0,0.0
1695,78.0,0.0,120.0,0.0,0.0
1696,71.0,0.0,120.0,7.0,0.0
1697,78.0,0.0,120.0,6.0,0.0
1698,58.0,0.0,120.0,1.0,0.0
1699,73.0,0.0,210.0,5.0,0.0
1700,76.0,0.0,120.0,2.0,0.0
1701,58.0,0.0,120.0,8.0,0.0
1702,76.0,0.0,120.0,4.0,0.0
1703,76.0,0.0,120.0,0.0,0.0
1704,76.0,0.0,120.0,6.0,0.0
1705,73.0,12.0,210.0,7.0,0.0
1706,61.0,108.0,120.0,3.0,0.0
1707,80.0,0.0,120.0,4.0,0.0
1708,80.0,0.0,120.0,0.0,0.0
1709,64.0,120.0,120.0,3.0,0.0
1710,80.0,0.0,120.0,6.0,0.0
1711,59.0,0.0,120.0,8.0,0.0
1712,59.0,0.0,120.0,1.0,0.0
1713,80.0,0.0,120.0,2.0,0.0
1714,78.0,0.0,120.0,0.0,0.0
1715,56.0,0.0,120.0,1.0,0.0
1716,61.0,0.0,210.0,5.0,0.0
1717,78.0,0.0,120.0,6.0,0.0
1718,61.0,12.0,210.0,7.0,0.0
1719,56.0,36.0,120.0,8.0,0.0
1720,78.0,0.0,120.0,2.0,0.0
1721,61.0,0.0,120.0,3.0,0.0
1722,78.0,0.0,120.0,4.0,0.0
1723,76.0,0.0,120.0,6.0,0.0
1724,58.0,120.0,120.0,1.0,0.0
1725,58.0,0.0,120.0,8.0,0.0
1726,58.0,0.0,120.0,3.0,0.0
1727,76.0,0.0,120.0,0.0,0.0
1728,76.0,0.0,120.0,2.0,0.0
1729,76.0,0.0,120.0,4.0,0.0
1730,59.0,0.0,210.0,8.0,0.0
1731,75.0,0.0,120.0,0.0,0.0
1732,66.0,12.0,210.0,7.0,0.0
1733,54.0,108.0,120.0,3.0,0.0
1734,75.0,0.0,120.0,6.0,0.0
1735,59.0,0.0,120.0,1.0,0.0
1736,35.0,0.0,120.0,10.0,0.0
1737,66.0,0.0,120.0,5.0,0.0
1738,75.0,0.0,120.0,2.0,0.0
1739,75.0,0.0,120.0,4.0,0.0
1740,47.0,0.0,120.0,10.0,0.0
1741,78.0,0.0,120.0,2.0,0.0
1742,78.0,0.0,120.0,4.0,0.0
1743,39.0,120.0,120.0,10.0,0.0
1744,51.0,0.0,120.0,10.0,0.0
1745,63.0,0.0,120.0,3.0,0.0
1746,78.0,0.0,120.0,6.0,0.0
1747,51.0,0.0,120.0,1.0,0.0
1748,63.0,0.0,120.0,5.0,0.0
1749,78.0,0.0,120.0,0.0,0.0
1750,71.0,0.0,120.0,4.0,0.0
1751,71.0,108.0,120.0,2.0,0.0
1752,40.0,0.0,120.0,10.0,0.0
1753,52.0,0.0,120.0,1.0,0.0
1754,64.0,0.0,120.0,5.0,0.0
1755,71.0,0.0,120.0,0.0,0.0
1756,71.0,0.0,120.0,6.0,0.0
1757,52.0,0.0,120.0,10.0,0.0
1758,68.0,0.0,120.0,7.0,0.0
1759,71.0,12.0,210.0,8.0,0.0
1760,64.0,0.0,120.0,3.0,0.0
1761,54.0,0.0,120.0,1.0,0.0
1762,66.0,0.0,120.0,5.0,0.0
1763,66.0,0.0,120.0,3.0,0.0
1764,75.0,0.0,120.0,4.0,0.0
1765,75.0,0.0,120.0,6.0,0.0
1766,75.0,0.0,120.0,0.0,0.0
1767,69.0,0.0,120.0,7.0,0.0
1768,54.0,0.0,120.0,10.0,0.0
1769,42.0,120.0,120.0,10.0,0.0
1770,75.0,0.0,120.0,2.0,0.0
1771,56.0,12.0,210.0,1.0,0.0
1772,76.0,0.0,120.0,4.0,0.0
1773,76.0,0.0,120.0,6.0,0.0
1774,68.0,0.0,210.0,3.0,0.0
1775,68.0,0.0,210.0,5.0,0.0
1776,76.0,108.0,120.0,0.0,0.0
1777,71.0,0.0,210.0,7.0,0.0
1778,68.0,0.0,210.0,8.0,0.0
1779,56.0,0.0,210.0,10.0,0.0
1780,76.0,0.0,120.0,2.0,0.0
1781,44.0,0.0,210.0,10.0,0.0
1782,80.0,120.0,120.0,0.0,0.0
1783,80.0,0.0,120.0,2.0,0.0
1784,80.0,0.0,120.0,6.0,0.0
1785,80.0,0.0,120.0,4.0,0.0
1786,56.0,0.0,210.0,1.0,0.0
1787,68.0,0.0,210.0,3.0,0.0
1788,71.0,0.0,120.0,4.0,0.0
1789,71.0,0.0,120.0,6.0,0.0
1790,71.0,108.0,120.0,0.0,0.0
1791,71.0,0.0,120.0,2.0,0.0
1792,64.0,0.0,450.0,8.0,0.0
1793,76.0,0.0,210.0,7.0,0.0
1794,56.0,12.0,210.0,10.0,0.0
1795,44.0,0.0,210.0,10.0,0.0
1796,68.0,0.0,210.0,5.0,0.0
1797,75.0,120.0,120.0,0.0,0.0
1798,75.0,0.0,120.0,4.0,0.0
1799,75.0,0.0,120.0,6.0,0.0
1800,75.0,0.0,120.0,2.0,0.0
1801,68.0,0.0,210.0,5.0,0.0
1802,81.0,48.0,660.0,7.0,0.0
1803,68.0,0.0,210.0,3.0,0.0
1804,73.0,0.0,120.0,2.0,0.0
1805,73.0,0.0,120.0,0.0,0.0
1806,73.0,108.0,120.0,6.0,0.0
1807,56.0,0.0,210.0,1.0,0.0
1808,73.0,0.0,120.0,4.0,0.0
1809,44.0,0.0,210.0,10.0,0.0
1810,56.0,12.0,210.0,10.0,0.0
1811,76.0,0.0,120.0,0.0,0.0
1812,76.0,120.0,120.0,2.0,0.0
1813,76.0,0.0,120.0,4.0,0.0
1814,76.0,0.0,120.0,6.0,0.0
1815,69.0,0.0,120.0,2.0,0.0
1816,42.0,0.0,120.0,10.0,0.0
1817,69.0,0.0,120.0,6.0,0.0
1818,66.0,0.0,120.0,5.0,0.0
1819,66.0,0.0,120.0,3.0,0.0
1820,54.0,0.0,120.0,1.0,0.0
1821,66.0,0.0,120.0,8.0,0.0
1822,69.0,0.0,120.0,4.0,0.0
1823,54.0,0.0,120.0,10.0,0.0
1824,69.0,120.0,120.0,0.0,0.0
1825,73.0,0.0,120.0,0.0,0.0
1826,73.0,0.0,120.0,2.0,0.0
1827,73.0,120.0,120.0,6.0,0.0
1828,40.0,0.0,120.0,10.0,0.0
1829,64.0,0.0,120.0,3.0,0.0
1830,52.0,0.0,120.0,1.0,0.0
1831,64.0,0.0,120.0,5.0,0.0
1832,73.0,0.0,120.0,4.0,0.0
1833,68.0,0.0,120.0,8.0,0.0
1834,52.0,0.0,120.0,10.0,0.0
1835,75.0,60.0,120.0,6.0,0.0
1836,66.0,12.0,210.0,5.0,0.0
1837,66.0,0.0,210.0,8.0,0.0
1838,75.0,0.0,120.0,4.0,0.0
1839,54.0,0.0,210.0,10.0,0.0
1840,54.0,0.0,210.0,1.0,0.0
1841,75.0,0.0,120.0,0.0,0.0
1842,66.0,0.0,210.0,3.0,0.0
1843,75.0,0.0,120.0,2.0,0.0
1844,42.0,0.0,210.0,10.0,0.0
1845,78.0,0.0,120.0,4.0,0.0
1846,78.0,0.0,120.0,2.0,0.0
1847,78.0,120.0,120.0,6.0,0.0
1848,78.0,0.0,120.0,0.0,0.0
1849,69.0,0.0,120.0,4.0,0.0
1850,75.0,0.0,210.0,7.0,0.0
1851,54.0,0.0,210.0,1.0,0.0
1852,42.0,0.0,210.0,10.0,0.0
1853,69.0,0.0,210.0,8.0,0.0
1854,54.0,12.0,210.0,10.0,0.0
1855,69.0,0.0,120.0,2.0,0.0
1856,69.0,0.0,120.0,6.0,0.0
1857,69.0,108.0,120.0,0.0,0.0
1858,66.0,0.0,360.0,3.0,0.0
1859,66.0,0.0,360.0,5.0,0.0
1860,73.0,0.0,120.0,0.0,0.0
1861,73.0,120.0,120.0,6.0,0.0
1862,73.0,0.0,120.0,2.0,0.0
1863,73.0,0.0,120.0,4.0,0.0
1864,63.0,12.0,210.0,8.0,0.0
1865,80.0,48.0,660.0,7.0,0.0
1866,71.0,108.0,120.0,0.0,0.0
1867,54.0,0.0,120.0,1.0,0.0
1868,54.0,0.0,120.0,10.0,0.0
1869,71.0,0.0,120.0,2.0,0.0
1870,71.0,0.0,120.0,4.0,0.0
1871,42.0,0.0,120.0,10.0,0.0
1872,71.0,0.0,120.0,6.0,0.0
1873,59.0,0.0,120.0,3.0,0.0
1874,35.0,120.0,120.0,10.0,0.0
1875,47.0,0.0,120.0,1.0,0.0
1876,75.0,0.0,120.0,4.0,0.0
1877,47.0,0.0,120.0,10.0,0.0
1878,59.0,0.0,120.0,5.0,0.0
1879,75.0,0.0,120.0,6.0,0.0
1880,75.0,0.0,120.0,2.0,0.0
1881,75.0,0.0,120.0,0.0,0.0
1882,49.0,0.0,120.0,1.0,0.0
1883,68.0,0.0,120.0,0.0,0.0
1884,49.0,0.0,120.0,10.0,0.0
1885,68.0,0.0,120.0,4.0,0.0
1886,68.0,120.0,120.0,2.0,0.0
1887,61.0,0.0,120.0,5.0,0.0
1888,64.0,0.0,120.0,8.0,0.0
1889,68.0,0.0,120.0,6.0,0.0
1890,61.0,0.0,120.0,3.0,0.0
1891,37.0,0.0,120.0,10.0,0.0
1892,51.0,0.0,120.0,1.0,0.0
1893,63.0,0.0,120.0,3.0,0.0
1894,63.0,120.0,120.0,5.0,0.0
1895,71.0,0.0,120.0,0.0,0.0
1896,71.0,0.0,120.0,2.0,0.0
1897,71.0,0.0,120.0,4.0,0.0
1898,51.0,0.0,120.0,10.0,0.0
1899,39.0,0.0,120.0,10.0,0.0
1900,71.0,0.0,120.0,6.0,0.0
1901,66.0,0.0,120.0,8.0,0.0
1902,73.0,0.0,120.0,6.0,0.0
1903,73.0,0.0,120.0,4.0,0.0
1904,64.0,0.0,690.0,3.0,0.0
1905,52.0,0.0,690.0,10.0,0.0
1906,64.0,12.0,210.0,8.0,0.0
1907,64.0,0.0,690.0,5.0,0.0
1908,73.0,0.0,120.0,0.0,0.0
1909,73.0,60.0,120.0,2.0,0.0
1910,52.0,0.0,690.0,1.0,0.0
1911,40.0,12.0,690.0,10.0,0.0
1912,76.0,0.0,120.0,4.0,0.0
1913,76.0,120.0,120.0,0.0,0.0
1914,76.0,0.0,120.0,2.0,0.0
1915,76.0,0.0,120.0,6.0,0.0
1916,68.0,12.0,210.0,8.0,0.0
1917,68.0,0.0,120.0,4.0,0.0
1918,73.0,0.0,210.0,7.0,0.0
1919,68.0,0.0,120.0,6.0,0.0
1920,68.0,0.0,120.0,0.0,0.0
1921,68.0,108.0,120.0,2.0,0.0
1922,71.0,120.0,120.0,6.0,0.0
1923,71.0,0.0,120.0,0.0,0.0
1924,71.0,0.0,120.0,4.0,0.0
1925,71.0,0.0,120.0,2.0,0.0
1926,69.0,0.0,120.0,6.0,0.0
1927,61.0,0.0,210.0,8.0,0.0
1928,69.0,108.0,120.0,4.0,0.0
1929,78.0,48.0,660.0,7.0,0.0
1930,69.0,0.0,120.0,2.0,0.0
1931,69.0,0.0,120.0,0.0,0.0
1932,73.0,0.0,120.0,2.0,0.0
1933,73.0,0.0,120.0,6.0,0.0
1934,73.0,0.0,120.0,0.0,0.0
1935,73.0,120.0,120.0,4.0,0.0
1936,39.0,0.0,120.0,10.0,0.0
1937,66.0,120.0,120.0,2.0,0.0
1938,63.0,0.0,120.0,8.0,0.0
1939,66.0,0.0,120.0,6.0,0.0
1940,66.0,0.0,120.0,4.0,0.0
1941,66.0,0.0,120.0,0.0,0.0
1942,63.0,0.0,120.0,5.0,0.0
1943,51.0,0.0,120.0,10.0,0.0
1944,51.0,0.0,120.0,1.0,0.0
1945,63.0,0.0,120.0,3.0,0.0
1946,49.0,0.0,120.0,10.0,0.0
1947,61.0,120.0,120.0,3.0,0.0
1948,61.0,0.0,120.0,5.0,0.0
1949,49.0,0.0,120.0,1.0,0.0
1950,69.0,0.0,120.0,4.0,0.0
1951,64.0,0.0,120.0,8.0,0.0
1952,69.0,0.0,120.0,2.0,0.0
1953,69.0,0.0,120.0,6.0,0.0
1954,69.0,0.0,120.0,0.0,0.0
1955,37.0,0.0,120.0,10.0,0.0
1956,63.0,0.0,210.0,3.0,0.0
1957,71.0,60.0,120.0,0.0,0.0
1958,71.0,0.0,120.0,6.0,0.0
1959,71.0,0.0,120.0,2.0,0.0
1960,51.0,12.0,210.0,1.0,0.0
1961,51.0,0.0,210.0,10.0,0.0
1962,63.0,0.0,210.0,5.0,0.0
1963,39.0,0.0,210.0,10.0,0.0
1964,66.0,0.0,210.0,8.0,0.0
1965,71.0,0.0,120.0,4.0,0.0
1966,75.0,0.0,120.0,2.0,0.0
1967,75.0,0.0,120.0,4.0,0.0
1968,75.0,120.0,120.0,6.0,0.0
1969,75.0,0.0,120.0,0.0,0.0
1970,47.0,0.0,210.0,10.0,0.0
1971,47.0,0.0,210.0,1.0,0.0
1972,59.0,0.0,210.0,3.0,0.0
1973,66.0,108.0,120.0,0.0,0.0
1974,59.0,12.0,210.0,5.0,0.0
1975,66.0,0.0,120.0,2.0,0.0
1976,66.0,0.0,120.0,6.0,0.0
1977,76.0,0.0,120.0,7.0,0.0
1978,35.0,0.0,210.0,10.0,0.0
1979,71.0,0.0,210.0,8.0,0.0
1980,66.0,0.0,120.0,4.0,0.0
1981,69.0,0.0,120.0,4.0,0.0
1982,69.0,0.0,120.0,2.0,0.0
1983,69.0,0.0,120.0,0.0,0.0
1984,75.0,228.0,120.0,7.0,0.0
1985,69.0,0.0,120.0,6.0,0.0
1986,52.0,0.0,210.0,10.0,0.0
1987,64.0,0.0,210.0,3.0,0.0
1988,68.0,0.0,210.0,2.0,0.0
1989,76.0,0.0,210.0,7.0,0.0
1990,40.0,0.0,210.0,10.0,0.0
1991,64.0,0.0,210.0,5.0,0.0
1992,68.0,0.0,210.0,0.0,0.0
1993,52.0,0.0,210.0,1.0,0.0
1994,68.0,0.0,210.0,6.0,0.0
1995,71.0,0.0,210.0,8.0,0.0
1996,68.0,96.0,210.0,4.0,0.0
1997,64.0,40.0,420.0,10.0,0.0
1998,56.0,0.0,60.0,1.0,0.0
1999,52.0,0.0,420.0,10.0,0.0
2000,71.0,80.0,60.0,0.0,0.0
2001,54.0,80.0,60.0,1.0,0.0
2002,69.0,0.0,60.0,0.0,0.0
2003,71.0,0.0,60.0,0.0,0.0
2004,56.0,80.0,60.0,1.0,0.0
2005,73.0,80.0,60.0,0.0,0.0
2006,58.0,0.0,60.0,1.0,0.0
2007,71.0,0.0,60.0,0.0,0.0
2008,56.0,40.0,60.0,1.0,0.0
2009,73.0,0.0,60.0,0.0,0.0
2010,58.0,80.0,60.0,1.0,0.0
2011,60.0,80.0,60.0,1.0,0.0
2012,75.0,0.0,60.0,0.0,0.0
2013,63.0,16.0,210.0,10.0,0.0
2014,51.0,0.0,210.0,10.0,0.0
2015,58.0,0.0,60.0,1.0,0.0
2016,73.0,64.0,60.0,0.0,0.0
2017,60.0,0.0,60.0,1.0,0.0
2018,75.0,224.0,60.0,0.0,0.0
2019,61.0,0.0,540.0,1.0,0.0
2020,61.0,0.0,210.0,10.0,0.0
2021,49.0,96.0,210.0,10.0,0.0
2022,76.0,0.0,540.0,0.0,0.0
2023,37.0,0.0,210.0,10.0,0.0
2024,49.0,0.0,60.0,3.0,0.0
2025,61.0,0.0,60.0,5.0,0.0
2026,76.0,0.0,210.0,6.0,0.0
2027,49.0,16.0,210.0,10.0,0.0
2028,76.0,0.0,60.0,2.0,0.0
2029,76.0,24.0,420.0,7.0,0.0
2030,76.0,80.0,60.0,4.0,0.0
2031,69.0,0.0,210.0,8.0,0.0
2032,74.0,0.0,60.0,2.0,0.0
2033,59.0,64.0,60.0,5.0,0.0
2034,74.0,0.0,60.0,4.0,0.0
2035,47.0,0.0,60.0,3.0,0.0
2036,61.0,0.0,60.0,5.0,0.0
2037,76.0,0.0,60.0,4.0,0.0
2038,76.0,80.0,60.0,2.0,0.0
2039,49.0,0.0,60.0,3.0,0.0
2040,62.0,0.0,60.0,5.0,0.0
2041,50.0,0.0,210.0,10.0,0.0
2042,78.0,0.0,60.0,2.0,0.0
2043,78.0,0.0,210.0,6.0,0.0
2044,78.0,0.0,60.0,4.0,0.0
2045,57.0,16.0,210.0,8.0,0.0
2046,50.0,80.0,60.0,3.0,0.0
2047,38.0,0.0,210.0,10.0,0.0
2048,61.0,0.0,60.0,5.0,0.0
2049,49.0,0.0,60.0,3.0,0.0
2050,76.0,0.0,60.0,4.0,0.0
2051,78.0,0.0,60.0,0.0,0.0
2052,62.0,40.0,60.0,1.0,0.0
2053,76.0,0.0,60.0,2.0,0.0
2054,61.0,0.0,60.0,1.0,0.0
2055,76.0,0.0,60.0,0.0,0.0
2056,78.0,0.0,60.0,2.0,0.0
2057,62.0,80.0,60.0,5.0,0.0
2058,78.0,0.0,60.0,4.0,0.0
2059,50.0,0.0,60.0,3.0,0.0
2060,74.0,0.0,60.0,0.0,0.0
2061,74.0,0.0,210.0,7.0,0.0
2062,80.0,0.0,210.0,6.0,0.0
2063,64.0,0.0,60.0,5.0,0.0
2064,64.0,0.0,210.0,8.0,0.0
2065,59.0,0.0,60.0,1.0,0.0
2066,40.0,16.0,210.0,10.0,0.0
2067,52.0,80.0,60.0,3.0,0.0
2068,52.0,0.0,210.0,10.0,0.0
2069,80.0,0.0,60.0,2.0,0.0
2070,80.0,0.0,60.0,4.0,0.0
2071,61.0,0.0,60.0,1.0,0.0
2072,62.0,64.0,60.0,5.0,0.0
2073,78.0,0.0,60.0,4.0,0.0
2074,50.0,0.0,60.0,3.0,0.0
2075,76.0,0.0,60.0,0.0,0.0
2076,78.0,0.0,60.0,2.0,0.0
2077,80.0,0.0,60.0,4.0,0.0
2078,74.0,0.0,60.0,0.0,0.0
2079,59.0,0.0,60.0,1.0,0.0
2080,52.0,0.0,60.0,3.0,0.0
2081,64.0,224.0,60.0,5.0,0.0
2082,80.0,0.0,60.0,2.0,0.0
2083,81.0,0.0,210.0,4.0,0.0
2084,45.0,0.0,210.0,3.0,0.0
2085,81.0,0.0,210.0,2.0,0.0
2086,57.0,0.0,210.0,1.0,0.0
2087,81.0,0.0,210.0,6.0,0.0
2088,45.0,96.0,210.0,10.0,0.0
2089,33.0,0.0,210.0,10.0,0.0
2090,73.0,0.0,210.0,7.0,0.0
2091,57.0,0.0,210.0,5.0,0.0
2092,64.0,0.0,210.0,8.0,0.0
2093,73.0,0.0,210.0,0.0,0.0
2094,73.0,0.0,60.0,4.0,0.0
2095,45.0,0.0,420.0,10.0,0.0
2096,57.0,40.0,420.0,10.0,0.0
2097,64.0,80.0,60.0,5.0,0.0
2098,71.0,0.0,60.0,4.0,0.0
2099,63.0,80.0,60.0,5.0,0.0
2100,64.0,80.0,60.0,5.0,0.0
2101,73.0,0.0,60.0,4.0,0.0
2102,66.0,80.0,60.0,5.0,0.0
2103,75.0,0.0,60.0,4.0,0.0
2104,64.0,40.0,60.0,5.0,0.0
2105,73.0,0.0,60.0,4.0,0.0
2106,66.0,80.0,60.0,5.0,0.0
2107,75.0,0.0,60.0,4.0,0.0
2108,44.0,0.0,210.0,10.0,0.0
2109,56.0,16.0,210.0,10.0,0.0
2110,68.0,0.0,60.0,5.0,0.0
2111,77.0,80.0,60.0,4.0,0.0
2112,75.0,64.0,60.0,4.0,0.0
2113,66.0,0.0,60.0,5.0,0.0
2114,77.0,0.0,60.0,4.0,0.0
2115,68.0,224.0,60.0,5.0,0.0
2116,42.0,96.0,210.0,10.0,0.0
2117,58.0,0.0,210.0,5.0,0.0
2118,78.0,0.0,540.0,4.0,0.0
2119,54.0,0.0,210.0,10.0,0.0
2120,63.0,0.0,60.0,3.0,0.0
2121,78.0,24.0,420.0,7.0,0.0
2122,78.0,0.0,210.0,6.0,0.0
2123,78.0,80.0,60.0,0.0,0.0
2124,78.0,0.0,60.0,2.0,0.0
2125,39.0,0.0,210.0,10.0,0.0
2126,63.0,0.0,300.0,5.0,0.0
2127,51.0,0.0,60.0,1.0,0.0
2128,51.0,16.0,210.0,10.0,0.0
2129,71.0,0.0,210.0,8.0,0.0
2130,76.0,64.0,60.0,2.0,0.0
2131,61.0,0.0,60.0,3.0,0.0
2132,49.0,0.0,60.0,1.0,0.0
2133,76.0,0.0,60.0,0.0,0.0
2134,51.0,0.0,60.0,1.0,0.0
2135,78.0,80.0,60.0,0.0,0.0
2136,63.0,0.0,60.0,3.0,0.0
2137,78.0,0.0,60.0,2.0,0.0
2138,80.0,0.0,60.0,0.0,0.0
2139,64.0,0.0,60.0,3.0,0.0
2140,80.0,0.0,60.0,2.0,0.0
2141,59.0,0.0,210.0,8.0,0.0
2142,52.0,16.0,210.0,10.0,0.0
2143,40.0,0.0,210.0,10.0,0.0
2144,80.0,0.0,210.0,6.0,0.0
2145,52.0,80.0,60.0,1.0,0.0
2146,51.0,0.0,60.0,1.0,0.0
2147,64.0,0.0,60.0,5.0,0.0
2148,63.0,0.0,60.0,3.0,0.0
2149,78.0,0.0,60.0,2.0,0.0
2150,78.0,40.0,60.0,0.0,0.0
2151,80.0,0.0,60.0,4.0,0.0
2152,78.0,80.0,60.0,4.0,0.0
2153,80.0,0.0,60.0,2.0,0.0
2154,64.0,0.0,60.0,3.0,0.0
2155,80.0,0.0,60.0,0.0,0.0
2156,63.0,0.0,60.0,5.0,0.0
2157,52.0,0.0,60.0,1.0,0.0
2158,66.0,0.0,210.0,8.0,0.0
2159,76.0,0.0,60.0,4.0,0.0
2160,76.0,16.0,210.0,7.0,0.0
2161,82.0,0.0,210.0,6.0,0.0
2162,61.0,0.0,60.0,5.0,0.0
2163,54.0,0.0,60.0,1.0,0.0
2164,82.0,80.0,60.0,2.0,0.0
2165,54.0,0.0,210.0,10.0,0.0
2166,66.0,0.0,60.0,3.0,0.0
2167,42.0,0.0,210.0,10.0,0.0
2168,82.0,0.0,60.0,0.0,0.0
2169,64.0,64.0,60.0,3.0,0.0
2170,80.0,0.0,60.0,0.0,0.0
2171,80.0,0.0,60.0,2.0,0.0
2172,78.0,0.0,60.0,4.0,0.0
2173,63.0,0.0,60.0,5.0,0.0
2174,52.0,0.0,60.0,1.0,0.0
2175,54.0,0.0,60.0,1.0,0.0
2176,82.0,224.0,60.0,0.0,0.0
2177,76.0,0.0,60.0,4.0,0.0
2178,82.0,0.0,60.0,2.0,0.0
2179,66.0,0.0,60.0,3.0,0.0
2180,61.0,0.0,60.0,5.0,0.0
2181,66.0,0.0,210.0,8.0,0.0
2182,47.0,0.0,210.0,1.0,0.0
2183,59.0,0.0,210.0,3.0,0.0
2184,83.0,0.0,210.0,2.0,0.0
2185,59.0,0.0,210.0,5.0,0.0
2186,83.0,0.0,210.0,0.0,0.0
2187,75.0,0.0,210.0,7.0,0.0
2188,35.0,96.0,210.0,10.0,0.0
2189,83.0,0.0,210.0,6.0,0.0
2190,47.0,0.0,210.0,10.0,0.0
2191,75.0,0.0,210.0,4.0,0.0
2192,75.0,0.0,60.0,2.0,0.0
2193,66.0,80.0,60.0,3.0,0.0
2194,59.0,0.0,420.0,10.0,0.0
2195,47.0,40.0,420.0,10.0,0.0
2196,73.0,0.0,60.0,2.0,0.0
2197,64.0,80.0,60.0,3.0,0.0
2198,75.0,80.0,60.0,2.0,0.0
2199,66.0,0.0,60.0,3.0,0.0
2200,76.0,80.0,60.0,2.0,0.0
2201,68.0,0.0,60.0,3.0,0.0
2202,66.0,40.0,60.0,3.0,0.0
2203,75.0,0.0,60.0,2.0,0.0
2204,76.0,80.0,60.0,2.0,0.0
2205,68.0,0.0,60.0,3.0,0.0
2206,69.0,0.0,60.0,3.0,0.0
2207,57.0,0.0,210.0,10.0,0.0
2208,78.0,80.0,60.0,2.0,0.0
2209,45.0,16.0,210.0,10.0,0.0
2210,68.0,0.0,60.0,3.0,0.0
2211,76.0,64.0,60.0,2.0,0.0
2212,69.0,224.0,60.0,3.0,0.0
2213,78.0,0.0,60.0,2.0,0.0
2214,80.0,80.0,540.0,2.0,0.0
2215,56.0,0.0,210.0,10.0,0.0
2216,44.0,0.0,210.0,10.0,0.0
2217,60.0,96.0,210.0,3.0,0.0
2218,73.0,0.0,210.0,8.0,0.0
2219,80.0,0.0,60.0,0.0,0.0
2220,52.0,80.0,60.0,5.0,0.0
2221,80.0,0.0,210.0,6.0,0.0
2222,52.0,16.0,210.0,10.0,0.0
2223,80.0,0.0,60.0,4.0,0.0
2224,64.0,0.0,60.0,1.0,0.0
2225,40.0,0.0,210.0,10.0,0.0
2226,64.0,0.0,300.0,3.0,0.0
2227,80.0,24.0,420.0,7.0,0.0
2228,78.0,0.0,60.0,4.0,0.0
2229,51.0,0.0,60.0,5.0,0.0
2230,78.0,0.0,60.0,0.0,0.0
2231,63.0,64.0,60.0,1.0,0.0
2232,80.0,0.0,60.0,0.0,0.0
2233,80.0,0.0,60.0,4.0,0.0
2234,52.0,80.0,60.0,5.0,0.0
2235,64.0,0.0,60.0,1.0,0.0
2236,54.0,0.0,60.0,5.0,0.0
2237,42.0,0.0,210.0,10.0,0.0
2238,54.0,0.0,210.0,10.0,0.0
2239,66.0,0.0,60.0,1.0,0.0
2240,82.0,0.0,60.0,4.0,0.0
2241,82.0,0.0,60.0,0.0,0.0
2242,61.0,0.0,210.0,8.0,0.0
2243,82.0,16.0,210.0,6.0,0.0
2244,66.0,0.0,60.0,3.0,0.0
2245,80.0,0.0,60.0,4.0,0.0
2246,52.0,40.0,60.0,5.0,0.0
2247,80.0,0.0,60.0,0.0,0.0
2248,64.0,0.0,60.0,1.0,0.0
2249,81.0,0.0,60.0,2.0,0.0
2250,64.0,0.0,60.0,3.0,0.0
2251,80.0,0.0,60.0,2.0,0.0
2252,54.0,0.0,60.0,5.0,0.0
2253,82.0,0.0,60.0,0.0,0.0
2254,66.0,80.0,60.0,1.0,0.0
2255,82.0,0.0,60.0,4.0,0.0
2256,56.0,0.0,210.0,10.0,0.0
2257,68.0,0.0,210.0,8.0,0.0
2258,56.0,0.0,60.0,5.0,0.0
2259,44.0,0.0,210.0,10.0,0.0
2260,63.0,80.0,60.0,3.0,0.0
2261,68.0,0.0,60.0,1.0,0.0
2262,84.0,16.0,210.0,6.0,0.0
2263,84.0,0.0,60.0,0.0,0.0
2264,78.0,0.0,210.0,7.0,0.0
2265,84.0,0.0,60.0,4.0,0.0
2266,78.0,0.0,60.0,2.0,0.0
2267,64.0,0.0,60.0,3.0,0.0
2268,54.0,64.0,60.0,5.0,0.0
2269,66.0,0.0,60.0,1.0,0.0
2270,82.0,0.0,60.0,4.0,0.0
2271,82.0,0.0,60.0,0.0,0.0
2272,80.0,0.0,60.0,2.0,0.0
2273,68.0,0.0,60.0,1.0,0.0
2274,84.0,0.0,60.0,4.0,0.0
2275,78.0,0.0,60.0,2.0,0.0
2276,84.0,0.0,60.0,0.0,0.0
2277,56.0,116.0,60.0,5.0,0.0
2278,63.0,0.0,60.0,3.0,0.0
2279,69.0,0.0,210.0,1.0,0.0
2280,85.0,0.0,120.0,4.0,0.0
2281,85.0,0.0,600.0,6.0,0.0
2282,45.0,108.0,120.0,10.0,0.0
2283,57.0,0.0,120.0,10.0,0.0
2284,57.0,0.0,120.0,5.0,0.0
2285,61.0,0.0,120.0,3.0,0.0
2286,73.0,0.0,210.0,8.0,0.0
2287,85.0,108.0,600.0,0.0,0.0
2288,76.0,54.0,300.0,2.0,0.0
2289,76.0,12.0,210.0,7.0,0.0
2290,44.0,0.0,120.0,10.0,0.0
2291,56.0,0.0,120.0,5.0,0.0
2292,56.0,0.0,120.0,10.0,0.0
2293,63.0,66.0,120.0,3.0,0.0
2294,83.0,0.0,120.0,4.0,0.0
2295,57.0,0.0,120.0,5.0,0.0
2296,61.0,0.0,120.0,3.0,0.0
2297,64.0,0.0,210.0,8.0,0.0
2298,57.0,0.0,120.0,1.0,0.0
2299,57.0,0.0,120.0,10.0,0.0
2300,45.0,6.0,120.0,10.0,0.0
2301,73.0,12.0,210.0,7.0,0.0
2302,81.0,0.0,120.0,4.0,0.0
2303,75.0,60.0,60.0,2.0,0.0
2304,80.0,6.0,120.0,4.0,0.0
2305,56.0,0.0,120.0,1.0,0.0
2306,59.0,0.0,120.0,5.0,0.0
2307,76.0,42.0,60.0,2.0,0.0
2308,47.0,0.0,120.0,10.0,0.0
2309,59.0,0.0,120.0,3.0,0.0
2310,59.0,0.0,120.0,10.0,0.0
2311,78.0,114.0,60.0,2.0,0.0
2312,45.0,0.0,120.0,10.0,0.0
2313,57.0,0.0,120.0,10.0,0.0
2314,78.0,24.0,330.0,2.0,0.0
2315,57.0,0.0,120.0,5.0,0.0
2316,69.0,0.0,210.0,8.0,0.0
2317,78.0,0.0,120.0,4.0,0.0
2318,78.0,12.0,210.0,7.0,0.0
2319,57.0,0.0,120.0,1.0,0.0
2320,57.0,0.0,120.0,3.0,0.0
2321,88.0,0.0,120.0,6.0,0.0
2322,61.0,0.0,120.0,5.0,0.0
2323,61.0,0.0,120.0,1.0,0.0
2324,88.0,0.0,120.0,0.0,0.0
2325,61.0,0.0,120.0,3.0,0.0
2326,73.0,96.0,120.0,4.0,0.0
2327,49.0,0.0,120.0,10.0,0.0
2328,61.0,0.0,120.0,10.0,0.0
2329,72.0,0.0,120.0,4.0,0.0
2330,54.0,0.0,120.0,5.0,0.0
2331,54.0,0.0,120.0,1.0,0.0
2332,81.0,0.0,210.0,7.0,0.0
2333,54.0,0.0,120.0,3.0,0.0
2334,87.0,0.0,120.0,0.0,0.0
2335,87.0,0.0,120.0,6.0,0.0
2336,63.0,12.0,210.0,8.0,0.0
2337,54.0,0.0,120.0,10.0,0.0
2338,42.0,108.0,120.0,10.0,0.0
2339,57.0,0.0,120.0,1.0,0.0
2340,80.0,0.0,120.0,2.0,0.0
2341,57.0,0.0,120.0,10.0,0.0
2342,85.0,0.0,120.0,0.0,0.0
2343,57.0,0.0,120.0,5.0,0.0
2344,73.0,0.0,120.0,4.0,0.0
2345,85.0,0.0,120.0,6.0,0.0
2346,45.0,0.0,120.0,10.0,0.0
2347,57.0,120.0,120.0,3.0,0.0
2348,56.0,0.0,120.0,3.0,0.0
2349,84.0,0.0,210.0,0.0,0.0
2350,80.0,0.0,600.0,2.0,0.0
2351,84.0,12.0,210.0,6.0,0.0
2352,68.0,0.0,210.0,8.0,0.0
2353,44.0,0.0,120.0,10.0,0.0
2354,56.0,108.0,120.0,10.0,0.0
2355,56.0,0.0,120.0,1.0,0.0
2356,75.0,24.0,420.0,7.0,0.0
2357,56.0,0.0,120.0,5.0,0.0
2358,75.0,0.0,210.0,4.0,0.0
2359,57.0,0.0,120.0,1.0,0.0
2360,57.0,0.0,120.0,3.0,0.0
2361,45.0,0.0,120.0,10.0,0.0
2362,57.0,0.0,120.0,5.0,0.0
2363,57.0,120.0,120.0,10.0,0.0
2364,51.0,0.0,120.0,10.0,0.0
2365,51.0,0.0,120.0,5.0,0.0
2366,39.0,0.0,120.0,10.0,0.0
2367,80.0,12.0,210.0,6.0,0.0
2368,51.0,0.0,120.0,3.0,0.0
2369,72.0,0.0,210.0,8.0,0.0
2370,51.0,84.0,120.0,1.0,0.0
2371,80.0,0.0,210.0,0.0,0.0
2372,54.0,0.0,120.0,10.0,0.0
2373,54.0,0.0,120.0,3.0,0.0
2374,54.0,0.0,120.0,1.0,0.0
2375,54.0,0.0,120.0,5.0,0.0
2376,42.0,120.0,120.0,10.0,0.0
2377,80.0,0.0,210.0,7.0,0.0
2378,85.0,0.0,210.0,6.0,0.0
2379,85.0,12.0,210.0,0.0,0.0
2380,52.0,0.0,120.0,1.0,0.0
2381,52.0,0.0,120.0,3.0,0.0
2382,40.0,108.0,120.0,10.0,0.0
2383,52.0,0.0,120.0,5.0,0.0
2384,80.0,0.0,210.0,4.0,0.0
2385,52.0,0.0,120.0,10.0,0.0
2386,61.0,0.0,210.0,8.0,0.0
2387,56.0,0.0,120.0,5.0,0.0
2388,78.0,0.0,120.0,2.0,0.0
2389,56.0,0.0,120.0,1.0,0.0
2390,56.0,0.0,120.0,3.0,0.0
2391,44.0,0.0,120.0,10.0,0.0
2392,56.0,120.0,120.0,10.0,0.0
2393,49.0,0.0,120.0,5.0,0.0
2394,80.0,0.0,210.0,6.0,0.0
2395,76.0,0.0,210.0,7.0,0.0
2396,37.0,108.0,120.0,10.0,0.0
2397,80.0,0.0,210.0,4.0,0.0
2398,76.0,0.0,120.0,2.0,0.0
2399,73.0,0.0,210.0,8.0,0.0
2400,49.0,0.0,120.0,3.0,0.0
2401,49.0,0.0,120.0,10.0,0.0
2402,49.0,0.0,120.0,1.0,0.0
2403,80.0,12.0,210.0,0.0,0.0
2404,52.0,0.0,120.0,5.0,0.0
2405,52.0,0.0,120.0,3.0,0.0
2406,75.0,0.0,120.0,2.0,0.0
2407,52.0,0.0,120.0,10.0,0.0
2408,52.0,120.0,120.0,1.0,0.0
2409,40.0,0.0,120.0,10.0,0.0
2410,81.0,12.0,210.0,6.0,0.0
2411,54.0,0.0,120.0,10.0,0.0
2412,54.0,0.0,120.0,1.0,0.0
2413,73.0,0.0,120.0,2.0,0.0
2414,54.0,108.0,120.0,3.0,0.0
2415,81.0,0.0,210.0,0.0,0.0
2416,80.0,0.0,210.0,4.0,0.0
2417,69.0,0.0,420.0,8.0,0.0
2418,73.0,24.0,420.0,7.0,0.0
2419,54.0,0.0,120.0,5.0,0.0
2420,42.0,0.0,120.0,10.0,0.0
2421,57.0,0.0,120.0,3.0,0.0
2422,78.0,120.0,120.0,2.0,0.0
2423,45.0,0.0,120.0,10.0,0.0
2424,57.0,0.0,120.0,5.0,0.0
2425,57.0,0.0,120.0,10.0,0.0
2426,57.0,0.0,120.0,1.0,0.0
2427,78.0,0.0,210.0,0.0,0.0
2428,49.0,0.0,120.0,5.0,0.0
2429,69.0,0.0,120.0,2.0,0.0
2430,78.0,0.0,120.0,4.0,0.0
2431,37.0,0.0,120.0,10.0,0.0
2432,49.0,84.0,120.0,1.0,0.0
2433,49.0,0.0,120.0,3.0,0.0
2434,78.0,12.0,210.0,6.0,0.0
2435,49.0,0.0,120.0,10.0,0.0
2436,40.0,0.0,120.0,10.0,0.0
2437,52.0,0.0,120.0,3.0,0.0
2438,52.0,0.0,120.0,5.0,0.0
2439,52.0,0.0,120.0,1.0,0.0
2440,52.0,0.0,120.0,10.0,0.0
2441,76.0,120.0,120.0,4.0,0.0
2442,73.0,0.0,120.0,2.0,0.0
2443,83.0,0.0,120.0,0.0,0.0
2444,66.0,0.0,210.0,2.0,0.0
2445,78.0,0.0,210.0,7.0,0.0
2446,51.0,0.0,120.0,3.0,0.0
2447,51.0,0.0,120.0,5.0,0.0
2448,83.0,0.0,120.0,6.0,0.0
2449,51.0,108.0,120.0,10.0,0.0
2450,51.0,0.0,120.0,1.0,0.0
2451,78.0,0.0,210.0,4.0,0.0
2452,59.0,12.0,210.0,8.0,0.0
2453,39.0,0.0,120.0,10.0,0.0
2454,42.0,0.0,120.0,10.0,0.0
2455,54.0,0.0,120.0,5.0,0.0
2456,81.0,120.0,120.0,0.0,0.0
2457,54.0,0.0,120.0,10.0,0.0
2458,54.0,0.0,120.0,3.0,0.0
2459,81.0,0.0,120.0,6.0,0.0
2460,54.0,0.0,120.0,1.0,0.0
2461,35.0,0.0,120.0,10.0,0.0
2462,47.0,0.0,120.0,5.0,0.0
2463,80.0,0.0,120.0,6.0,0.0
2464,71.0,0.0,210.0,8.0,0.0
2465,75.0,0.0,210.0,4.0,0.0
2466,47.0,0.0,120.0,3.0,0.0
2467,80.0,0.0,120.0,0.0,0.0
2468,47.0,0.0,120.0,10.0,0.0
2469,47.0,108.0,120.0,1.0,0.0
2470,78.0,0.0,360.0,2.0,0.0
2471,75.0,12.0,210.0,7.0,0.0
2472,78.0,0.0,120.0,6.0,0.0
2473,51.0,0.0,120.0,10.0,0.0
2474,51.0,0.0,120.0,5.0,0.0
2475,78.0,120.0,120.0,0.0,0.0
2476,51.0,0.0,120.0,1.0,0.0
2477,39.0,0.0,120.0,10.0,0.0
2478,51.0,0.0,120.0,3.0,0.0
2479,52.0,0.0,120.0,1.0,0.0
2480,81.0,0.0,120.0,0.0,0.0
2481,71.0,24.0,420.0,7.0,0.0
2482,81.0,0.0,120.0,6.0,0.0
2483,52.0,0.0,120.0,10.0,0.0
2484,52.0,0.0,120.0,3.0,0.0
2485,71.0,12.0,210.0,4.0,0.0
2486,52.0,0.0,120.0,5.0,0.0
2487,64.0,0.0,210.0,8.0,0.0
2488,40.0,108.0,120.0,10.0,0.0
2489,76.0,0.0,120.0,2.0,0.0
2490,80.0,120.0,120.0,0.0,0.0
2491,56.0,0.0,120.0,10.0,0.0
2492,56.0,0.0,120.0,1.0,0.0
2493,56.0,0.0,120.0,3.0,0.0
2494,44.0,0.0,120.0,10.0,0.0
2495,80.0,0.0,120.0,6.0,0.0
2496,56.0,0.0,120.0,5.0,0.0
2497,47.0,0.0,120.0,1.0,0.0
2498,47.0,0.0,120.0,5.0,0.0
2499,78.0,0.0,120.0,0.0,0.0
2500,78.0,0.0,120.0,2.0,0.0
2501,68.0,12.0,210.0,8.0,0.0
2502,35.0,0.0,120.0,10.0,0.0
2503,78.0,0.0,120.0,6.0,0.0
2504,47.0,84.0,120.0,3.0,0.0
2505,47.0,0.0,120.0,10.0,0.0
2506,83.0,0.0,120.0,2.0,0.0
2507,51.0,0.0,120.0,5.0,0.0
2508,39.0,0.0,120.0,10.0,0.0
2509,76.0,0.0,120.0,6.0,0.0
2510,76.0,0.0,120.0,0.0,0.0
2511,51.0,0.0,120.0,1.0,0.0
2512,51.0,120.0,120.0,10.0,0.0
2513,51.0,0.0,120.0,3.0,0.0
2514,37.0,108.0,120.0,10.0,0.0
2515,76.0,0.0,120.0,2.0,0.0
2516,57.0,0.0,210.0,8.0,0.0
2517,76.0,0.0,210.0,4.0,0.0
2518,49.0,0.0,120.0,5.0,0.0
2519,49.0,0.0,120.0,1.0,0.0
2520,49.0,0.0,120.0,3.0,0.0
2521,81.0,12.0,210.0,0.0,0.0
2522,81.0,0.0,210.0,6.0,0.0
2523,76.0,0.0,690.0,7.0,0.0
2524,49.0,0.0,120.0,10.0,0.0
2525,52.0,0.0,120.0,10.0,0.0
2526,75.0,0.0,120.0,2.0,0.0
2527,52.0,0.0,120.0,3.0,0.0
2528,40.0,0.0,120.0,10.0,0.0
2529,52.0,120.0,120.0,1.0,0.0
2530,52.0,0.0,120.0,5.0,0.0
2531,76.0,0.0,210.0,6.0,0.0
2532,69.0,0.0,210.0,8.0,0.0
2533,45.0,0.0,120.0,10.0,0.0
2534,73.0,0.0,120.0,2.0,0.0
2535,45.0,0.0,120.0,5.0,0.0
2536,45.0,0.0,120.0,1.0,0.0
2537,45.0,0.0,120.0,3.0,0.0
2538,76.0,12.0,210.0,4.0,0.0
2539,33.0,108.0,120.0,10.0,0.0
2540,76.0,0.0,210.0,0.0,0.0
2541,37.0,120.0,120.0,10.0,0.0
2542,49.0,0.0,120.0,10.0,0.0
2543,49.0,0.0,120.0,1.0,0.0
2544,49.0,0.0,120.0,3.0,0.0
2545,71.0,0.0,120.0,2.0,0.0
2546,49.0,0.0,120.0,5.0,0.0
2547,51.0,0.0,120.0,3.0,0.0
2548,51.0,0.0,120.0,10.0,0.0
2549,76.0,0.0,210.0,4.0,0.0
2550,69.0,0.0,120.0,2.0,0.0
2551,66.0,24.0,420.0,8.0,0.0
2552,78.0,12.0,210.0,6.0,0.0
2553,51.0,0.0,120.0,5.0,0.0
2554,78.0,0.0,210.0,0.0,0.0
2555,39.0,0.0,120.0,10.0,0.0
2556,51.0,108.0,120.0,1.0,0.0
2557,54.0,0.0,120.0,1.0,0.0
2558,54.0,0.0,120.0,5.0,0.0
2559,54.0,120.0,120.0,3.0,0.0
2560,42.0,0.0,120.0,10.0,0.0
2561,75.0,0.0,120.0,2.0,0.0
2562,54.0,0.0,120.0,10.0,0.0
2563,46.0,0.0,120.0,1.0,0.0
2564,34.0,0.0,120.0,10.0,0.0
2565,75.0,0.0,120.0,7.0,0.0
2566,66.0,0.0,120.0,2.0,0.0
2567,75.0,12.0,210.0,6.0,0.0
2568,46.0,0.0,120.0,5.0,0.0
2569,46.0,84.0,120.0,3.0,0.0
2570,75.0,0.0,210.0,0.0,0.0
2571,75.0,0.0,120.0,4.0,0.0
2572,46.0,0.0,120.0,10.0,0.0
2573,73.0,0.0,120.0,4.0,0.0
2574,73.0,0.0,120.0,7.0,0.0
2575,49.0,0.0,120.0,3.0,0.0
2576,49.0,0.0,120.0,10.0,0.0
2577,69.0,120.0,120.0,2.0,0.0
2578,49.0,0.0,120.0,5.0,0.0
2579,37.0,0.0,120.0,10.0,0.0
2580,49.0,0.0,120.0,1.0,0.0
2581,36.0,0.0,210.0,10.0,0.0
2582,48.0,0.0,210.0,5.0,0.0
2583,48.0,12.0,210.0,10.0,0.0
2584,75.0,0.0,210.0,7.0,0.0
2585,80.0,108.0,120.0,6.0,0.0
2586,56.0,0.0,210.0,8.0,0.0
2587,63.0,0.0,210.0,2.0,0.0
2588,48.0,0.0,210.0,3.0,0.0
2589,75.0,0.0,210.0,4.0,0.0
2590,48.0,0.0,210.0,1.0,0.0
2591,80.0,0.0,120.0,0.0,0.0
2592,78.0,120.0,120.0,0.0,0.0
2593,78.0,0.0,120.0,6.0,0.0
2594,76.0,108.0,120.0,0.0,0.0
2595,76.0,0.0,120.0,6.0,0.0
2596,72.0,0.0,210.0,4.0,0.0
2597,44.0,0.0,210.0,3.0,0.0
2598,44.0,0.0,210.0,1.0,0.0
2599,72.0,12.0,210.0,7.0,0.0
2600,32.0,0.0,210.0,10.0,0.0
2601,44.0,0.0,210.0,5.0,0.0
2602,84.0,0.0,210.0,2.0,0.0
2603,44.0,0.0,210.0,10.0,0.0
2604,68.0,0.0,210.0,8.0,0.0
2605,75.0,120.0,120.0,6.0,0.0
2606,75.0,0.0,120.0,0.0,0.0
2607,49.0,0.0,210.0,3.0,0.0
2608,49.0,0.0,210.0,5.0,0.0
2609,49.0,12.0,210.0,1.0,0.0
2610,76.0,108.0,120.0,6.0,0.0
2611,76.0,0.0,120.0,0.0,0.0
2612,64.0,0.0,210.0,8.0,0.0
2613,37.0,0.0,210.0,10.0,0.0
2614,85.0,0.0,600.0,2.0,0.0
2615,68.0,0.0,210.0,4.0,0.0
2616,49.0,0.0,210.0,10.0,0.0
2617,68.0,0.0,210.0,7.0,0.0
2618,80.0,0.0,120.0,0.0,0.0
2619,80.0,120.0,120.0,6.0,0.0
2620,85.0,0.0,360.0,7.0,0.0
2621,61.0,0.0,210.0,3.0,0.0
2622,73.0,0.0,120.0,6.0,0.0
2623,80.0,12.0,210.0,4.0,0.0
2624,68.0,0.0,210.0,8.0,0.0
2625,73.0,108.0,120.0,0.0,0.0
2626,76.0,0.0,120.0,0.0,0.0
2627,61.0,0.0,120.0,5.0,0.0
2628,71.0,120.0,120.0,1.0,0.0
2629,76.0,0.0,120.0,6.0,0.0
2630,81.0,0.0,210.0,4.0,0.0
2631,61.0,0.0,210.0,3.0,0.0
2632,69.0,0.0,120.0,1.0,0.0
2633,78.0,108.0,120.0,6.0,0.0
2634,78.0,0.0,120.0,0.0,0.0
2635,61.0,12.0,210.0,8.0,0.0
2636,81.0,0.0,120.0,0.0,0.0
2637,87.0,0.0,120.0,2.0,0.0
2638,54.0,120.0,120.0,5.0,0.0
2639,66.0,0.0,120.0,1.0,0.0
2640,87.0,0.0,120.0,7.0,0.0
2641,81.0,0.0,120.0,6.0,0.0
2642,78.0,0.0,210.0,4.0,0.0
2643,49.0,0.0,210.0,10.0,0.0
2644,73.0,0.0,120.0,0.0,0.0
2645,61.0,12.0,210.0,10.0,0.0
2646,49.0,0.0,210.0,3.0,0.0
2647,85.0,0.0,120.0,7.0,0.0
2648,69.0,0.0,210.0,8.0,0.0
2649,69.0,0.0,120.0,1.0,0.0
2650,73.0,108.0,120.0,6.0,0.0
2651,66.0,0.0,120.0,5.0,0.0
2652,85.0,0.0,120.0,2.0,0.0
2653,78.0,0.0,120.0,0.0,0.0
2654,87.0,0.0,120.0,2.0,0.0
2655,87.0,120.0,120.0,7.0,0.0
2656,69.0,0.0,120.0,5.0,0.0
2657,66.0,0.0,120.0,1.0,0.0
2658,78.0,0.0,120.0,6.0,0.0
2659,61.0,12.0,210.0,10.0,0.0
2660,49.0,0.0,210.0,10.0,0.0
2661,80.0,0.0,210.0,4.0,0.0
2662,85.0,0.0,600.0,7.0,0.0
2663,68.0,0.0,210.0,8.0,0.0
2664,73.0,108.0,120.0,5.0,0.0
2665,76.0,0.0,120.0,0.0,0.0
2666,85.0,0.0,600.0,2.0,0.0
2667,73.0,0.0,210.0,1.0,0.0
2668,76.0,0.0,120.0,6.0,0.0
2669,80.0,0.0,120.0,0.0,0.0
2670,80.0,0.0,120.0,6.0,0.0
2671,76.0,120.0,120.0,5.0,0.0
2672,68.0,0.0,120.0,5.0,0.0
2673,61.0,0.0,120.0,1.0,0.0
2674,37.0,12.0,210.0,10.0,0.0
2675,64.0,0.0,210.0,8.0,0.0
2676,73.0,0.0,120.0,6.0,0.0
2677,85.0,0.0,120.0,4.0,0.0
2678,49.0,0.0,210.0,10.0,0.0
2679,61.0,0.0,210.0,3.0,0.0
2680,73.0,108.0,120.0,0.0,0.0
2681,59.0,0.0,120.0,1.0,0.0
2682,76.0,0.0,120.0,0.0,0.0
2683,73.0,120.0,120.0,5.0,0.0
2684,80.0,0.0,120.0,4.0,0.0
2685,76.0,0.0,120.0,6.0,0.0
2686,66.0,0.0,120.0,5.0,0.0
2687,78.0,108.0,120.0,6.0,0.0
2688,81.0,12.0,210.0,4.0,0.0
2689,61.0,0.0,210.0,8.0,0.0
2690,57.0,0.0,120.0,1.0,0.0
2691,61.0,0.0,210.0,3.0,0.0
2692,78.0,0.0,120.0,0.0,0.0
2693,87.0,120.0,120.0,2.0,0.0
2694,87.0,0.0,120.0,7.0,0.0
2695,81.0,0.0,120.0,0.0,0.0
2696,61.0,0.0,120.0,5.0,0.0
2697,81.0,0.0,120.0,6.0,0.0
2698,54.0,0.0,120.0,1.0,0.0
2699,57.0,0.0,120.0,1.0,0.0
2700,66.0,0.0,120.0,5.0,0.0
2701,49.0,0.0,210.0,3.0,0.0
2702,85.0,0.0,120.0,2.0,0.0
2703,73.0,108.0,120.0,6.0,0.0
2704,73.0,0.0,120.0,0.0,0.0
2705,49.0,0.0,210.0,10.0,0.0
2706,61.0,12.0,210.0,10.0,0.0
2707,69.0,0.0,210.0,8.0,0.0
2708,85.0,0.0,120.0,7.0,0.0
2709,78.0,0.0,210.0,4.0,0.0
2710,87.0,120.0,120.0,2.0,0.0
2711,78.0,0.0,120.0,6.0,0.0
2712,69.0,0.0,120.0,5.0,0.0
2713,78.0,0.0,120.0,0.0,0.0
2714,54.0,0.0,120.0,1.0,0.0
2715,87.0,0.0,120.0,7.0,0.0
2716,73.0,0.0,120.0,5.0,0.0
2717,85.0,0.0,210.0,7.0,0.0
2718,76.0,108.0,120.0,0.0,0.0
2719,61.0,24.0,330.0,1.0,0.0
2720,85.0,0.0,210.0,2.0,0.0
2721,80.0,0.0,210.0,4.0,0.0
2722,68.0,12.0,210.0,8.0,0.0
2723,49.0,0.0,210.0,10.0,0.0
2724,76.0,0.0,120.0,6.0,0.0
2725,61.0,0.0,210.0,10.0,0.0
2726,75.0,96.0,120.0,6.0,0.0
2727,66.0,0.0,120.0,5.0,0.0
2728,75.0,0.0,120.0,0.0,0.0
2729,73.0,120.0,120.0,6.0,0.0
2730,37.0,0.0,120.0,10.0,0.0
2731,61.0,0.0,120.0,3.0,0.0
2732,73.0,0.0,120.0,2.0,0.0
2733,73.0,0.0,120.0,0.0,0.0
2734,64.0,0.0,120.0,5.0,0.0
2735,49.0,0.0,120.0,10.0,0.0
2736,73.0,0.0,120.0,4.0,0.0
2737,36.0,0.0,120.0,10.0,0.0
2738,75.0,0.0,120.0,0.0,0.0
2739,75.0,0.0,120.0,4.0,0.0
2740,75.0,0.0,120.0,6.0,0.0
2741,60.0,0.0,120.0,3.0,0.0
2742,48.0,0.0,120.0,10.0,0.0
2743,75.0,0.0,120.0,2.0,0.0
2744,60.0,120.0,120.0,1.0,0.0
2745,63.0,0.0,120.0,5.0,0.0
2746,61.0,0.0,120.0,1.0,0.0
2747,76.0,0.0,120.0,0.0,0.0
2748,61.0,0.0,120.0,3.0,0.0
2749,49.0,108.0,120.0,10.0,0.0
2750,76.0,0.0,120.0,2.0,0.0
2751,76.0,0.0,120.0,4.0,0.0
2752,76.0,0.0,120.0,6.0,0.0
2753,37.0,0.0,120.0,10.0,0.0
2754,61.0,12.0,210.0,5.0,0.0
2755,78.0,0.0,120.0,6.0,0.0
2756,39.0,120.0,120.0,10.0,0.0
2757,78.0,0.0,120.0,4.0,0.0
2758,63.0,0.0,120.0,3.0,0.0
2759,78.0,0.0,120.0,0.0,0.0
2760,51.0,0.0,120.0,10.0,0.0
2761,78.0,0.0,120.0,2.0,0.0
2762,63.0,0.0,120.0,1.0,0.0
2763,76.0,120.0,120.0,4.0,0.0
2764,76.0,0.0,120.0,6.0,0.0
2765,68.0,0.0,120.0,8.0,0.0
2766,73.0,0.0,120.0,7.0,0.0
2767,37.0,0.0,120.0,10.0,0.0
2768,61.0,0.0,120.0,1.0,0.0
2769,49.0,0.0,120.0,5.0,0.0
2770,76.0,0.0,120.0,2.0,0.0
2771,76.0,0.0,120.0,0.0,0.0
2772,49.0,0.0,120.0,10.0,0.0
2773,61.0,0.0,120.0,3.0,0.0
2774,39.0,0.0,120.0,10.0,0.0
2775,78.0,0.0,120.0,2.0,0.0
2776,72.0,120.0,120.0,7.0,0.0
2777,51.0,0.0,120.0,5.0,0.0
2778,51.0,0.0,120.0,10.0,0.0
2779,78.0,0.0,120.0,4.0,0.0
2780,63.0,0.0,120.0,1.0,0.0
2781,78.0,0.0,120.0,6.0,0.0
2782,66.0,0.0,120.0,8.0,0.0
2783,78.0,0.0,120.0,0.0,0.0
2784,63.0,0.0,120.0,3.0,0.0
2785,80.0,0.0,210.0,0.0,0.0
2786,64.0,0.0,120.0,1.0,0.0
2787,52.0,0.0,120.0,5.0,0.0
2788,40.0,108.0,120.0,10.0,0.0
2789,64.0,0.0,120.0,3.0,0.0
2790,80.0,0.0,210.0,2.0,0.0
2791,64.0,12.0,210.0,8.0,0.0
2792,80.0,0.0,210.0,6.0,0.0
2793,80.0,0.0,210.0,4.0,0.0
2794,52.0,0.0,120.0,10.0,0.0
2795,73.0,0.0,210.0,7.0,0.0
2796,54.0,0.0,120.0,10.0,0.0
2797,54.0,120.0,120.0,5.0,0.0
2798,42.0,0.0,120.0,10.0,0.0
2799,66.0,0.0,120.0,1.0,0.0
2800,66.0,0.0,120.0,3.0,0.0
2801,40.0,0.0,120.0,10.0,0.0
2802,52.0,108.0,120.0,5.0,0.0
2803,73.0,0.0,210.0,0.0,0.0
2804,73.0,0.0,210.0,6.0,0.0
2805,73.0,12.0,210.0,4.0,0.0
2806,64.0,0.0,120.0,3.0,0.0
2807,52.0,0.0,120.0,10.0,0.0
2808,68.0,0.0,210.0,7.0,0.0
2809,64.0,0.0,210.0,8.0,0.0
2810,73.0,0.0,210.0,2.0,0.0
2811,64.0,0.0,120.0,1.0,0.0
2812,66.0,0.0,120.0,3.0,0.0
2813,54.0,0.0,120.0,10.0,0.0
2814,66.0,0.0,120.0,1.0,0.0
2815,42.0,120.0,120.0,10.0,0.0
2816,54.0,0.0,120.0,5.0,0.0
2817,68.0,0.0,210.0,2.0,0.0
2818,56.0,0.0,210.0,10.0,0.0
2819,56.0,0.0,210.0,5.0,0.0
2820,63.0,0.0,210.0,7.0,0.0
2821,68.0,0.0,120.0,3.0,0.0
2822,68.0,0.0,210.0,4.0,0.0
2823,68.0,0.0,210.0,0.0,0.0
2824,68.0,108.0,120.0,1.0,0.0
2825,60.0,12.0,210.0,8.0,0.0
2826,68.0,0.0,210.0,6.0,0.0
2827,44.0,0.0,210.0,10.0,0.0
2828,69.0,0.0,120.0,1.0,0.0
2829,69.0,120.0,120.0,3.0,0.0
2830,72.0,0.0,210.0,2.0,0.0
2831,63.0,0.0,120.0,3.0,0.0
2832,68.0,0.0,120.0,5.0,0.0
2833,72.0,0.0,210.0,0.0,0.0
2834,32.0,12.0,210.0,10.0,0.0
2835,63.0,108.0,120.0,1.0,0.0
2836,44.0,0.0,210.0,10.0,0.0
2837,72.0,0.0,210.0,6.0,0.0
2838,63.0,0.0,210.0,8.0,0.0
2839,72.0,0.0,210.0,4.0,0.0
2840,68.0,0.0,210.0,7.0,0.0
2841,66.0,0.0,120.0,3.0,0.0
2842,66.0,0.0,120.0,5.0,0.0
2843,66.0,120.0,120.0,1.0,0.0
2844,64.0,0.0,120.0,3.0,0.0
2845,73.0,0.0,600.0,6.0,0.0
2846,64.0,108.0,120.0,5.0,0.0
2847,64.0,0.0,120.0,1.0,0.0
2848,37.0,0.0,210.0,10.0,0.0
2849,49.0,12.0,210.0,10.0,0.0
2850,68.0,0.0,210.0,7.0,0.0
2851,73.0,0.0,600.0,4.0,0.0
2852,73.0,0.0,600.0,0.0,0.0
2853,64.0,0.0,210.0,8.0,0.0
2854,73.0,0.0,600.0,2.0,0.0
2855,68.0,120.0,120.0,1.0,0.0
2856,68.0,0.0,120.0,3.0,0.0
2857,68.0,0.0,120.0,5.0,0.0
2858,49.0,0.0,120.0,10.0,0.0
2859,61.0,0.0,120.0,5.0,0.0
2860,61.0,0.0,120.0,10.0,0.0
2861,61.0,120.0,120.0,3.0,0.0
2862,61.0,0.0,120.0,1.0,0.0
2863,59.0,0.0,120.0,10.0,0.0
2864,64.0,0.0,120.0,1.0,0.0
2865,64.0,120.0,120.0,5.0,0.0
2866,47.0,0.0,120.0,10.0,0.0
2867,64.0,0.0,120.0,3.0,0.0
2868,66.0,0.0,120.0,5.0,0.0
2869,45.0,108.0,120.0,10.0,0.0
2870,66.0,0.0,210.0,8.0,0.0
2871,66.0,0.0,120.0,1.0,0.0
2872,69.0,12.0,210.0,7.0,0.0
2873,57.0,0.0,120.0,10.0,0.0
2874,66.0,0.0,120.0,3.0,0.0
2875,75.0,0.0,120.0,4.0,0.0
2876,75.0,0.0,120.0,2.0,0.0
2877,69.0,0.0,120.0,3.0,0.0
2878,75.0,0.0,120.0,6.0,0.0
2879,54.0,0.0,120.0,10.0,0.0
2880,75.0,0.0,120.0,0.0,0.0
2881,69.0,0.0,120.0,5.0,0.0
2882,42.0,120.0,120.0,10.0,0.0
2883,69.0,0.0,120.0,1.0,0.0
2884,73.0,0.0,120.0,2.0,0.0
2885,61.0,0.0,120.0,5.0,0.0
2886,57.0,0.0,120.0,10.0,0.0
2887,73.0,0.0,120.0,6.0,0.0
2888,73.0,0.0,120.0,0.0,0.0
2889,61.0,0.0,120.0,3.0,0.0
2890,73.0,0.0,120.0,4.0,0.0
2891,61.0,0.0,120.0,1.0,0.0
2892,45.0,120.0,120.0,10.0,0.0
2893,75.0,0.0,120.0,4.0,0.0
2894,42.0,0.0,120.0,10.0,0.0
2895,66.0,0.0,120.0,5.0,0.0
2896,66.0,0.0,120.0,3.0,0.0
2897,75.0,0.0,120.0,6.0,0.0
2898,75.0,0.0,120.0,0.0,0.0
2899,75.0,0.0,120.0,2.0,0.0
2900,66.0,120.0,120.0,1.0,0.0
2901,54.0,0.0,120.0,10.0,0.0
2902,73.0,0.0,600.0,2.0,0.0
2903,73.0,0.0,600.0,6.0,0.0
2904,64.0,0.0,120.0,1.0,0.0
2905,64.0,0.0,120.0,5.0,0.0
2906,61.0,12.0,210.0,10.0,0.0
2907,64.0,0.0,210.0,8.0,0.0
2908,68.0,0.0,210.0,7.0,0.0
2909,73.0,0.0,600.0,4.0,0.0
2910,49.0,0.0,210.0,10.0,0.0
2911,64.0,108.0,120.0,3.0,0.0
2912,73.0,0.0,600.0,0.0,0.0
2913,68.0,120.0,120.0,1.0,0.0
2914,68.0,0.0,120.0,5.0,0.0
2915,68.0,0.0,120.0,3.0,0.0
2916,61.0,0.0,120.0,3.0,0.0
2917,37.0,120.0,120.0,10.0,0.0
2918,49.0,0.0,120.0,10.0,0.0
2919,61.0,0.0,120.0,5.0,0.0
2920,61.0,0.0,120.0,1.0,0.0
2921,47.0,0.0,120.0,10.0,0.0
2922,64.0,0.0,120.0,1.0,0.0
2923,64.0,0.0,120.0,3.0,0.0
2924,64.0,0.0,120.0,5.0,0.0
2925,35.0,120.0,120.0,10.0,0.0
2926,66.0,108.0,120.0,3.0,0.0
2927,69.0,0.0,210.0,8.0,0.0
2928,78.0,12.0,210.0,7.0,0.0
2929,66.0,0.0,120.0,1.0,0.0
2930,33.0,0.0,120.0,10.0,0.0
2931,66.0,0.0,120.0,5.0,0.0
2932,45.0,0.0,120.0,10.0,0.0
2933,69.0,0.0,120.0,1.0,0.0
2934,69.0,120.0,120.0,3.0,0.0
2935,75.0,0.0,120.0,4.0,0.0
2936,75.0,0.0,120.0,2.0,0.0
2937,42.0,0.0,120.0,10.0,0.0
2938,69.0,0.0,120.0,5.0,0.0
2939,75.0,0.0,120.0,6.0,0.0
2940,75.0,0.0,120.0,0.0,0.0
2941,30.0,0.0,120.0,10.0,0.0
2942,61.0,120.0,120.0,5.0,0.0
2943,33.0,0.0,120.0,10.0,0.0
2944,73.0,0.0,120.0,2.0,0.0
2945,45.0,0.0,120.0,10.0,0.0
2946,73.0,0.0,120.0,4.0,0.0
2947,61.0,0.0,120.0,1.0,0.0
2948,73.0,0.0,120.0,6.0,0.0
2949,73.0,0.0,120.0,0.0,0.0
2950,61.0,0.0,120.0,3.0,0.0
2951,75.0,0.0,120.0,0.0,0.0
2952,75.0,0.0,120.0,2.0,0.0
2953,75.0,0.0,120.0,6.0,0.0
2954,42.0,0.0,120.0,10.0,0.0
2955,75.0,0.0,120.0,4.0,0.0
2956,66.0,120.0,120.0,5.0,0.0
2957,30.0,0.0,120.0,10.0,0.0
2958,66.0,0.0,120.0,1.0,0.0
2959,66.0,0.0,120.0,3.0,0.0
2960,68.0,0.0,210.0,8.0,0.0
2961,73.0,0.0,210.0,6.0,0.0
2962,64.0,0.0,210.0,5.0,0.0
2963,73.0,0.0,210.0,2.0,0.0
2964,64.0,0.0,210.0,3.0,0.0
2965,64.0,0.0,210.0,1.0,0.0
2966,76.0,0.0,210.0,7.0,0.0
2967,37.0,0.0,210.0,10.0,0.0
2968,49.0,12.0,210.0,10.0,0.0
2969,73.0,0.0,210.0,0.0,0.0
2970,73.0,108.0,120.0,4.0,0.0
2971,75.0,120.0,120.0,4.0,0.0
2972,61.0,12.0,210.0,10.0,0.0
2973,49.0,0.0,210.0,10.0,0.0
2974,76.0,108.0,120.0,4.0,0.0
2975,61.0,0.0,210.0,5.0,0.0
2976,78.0,120.0,120.0,4.0,0.0
2977,80.0,66.0,120.0,4.0,0.0
2978,82.0,60.0,60.0,4.0,0.0
2979,84.0,60.0,60.0,4.0,0.0
2980,49.0,0.0,120.0,10.0,0.0
2981,61.0,6.0,120.0,5.0,0.0
2982,85.0,54.0,60.0,4.0,0.0
2983,61.0,0.0,120.0,10.0,0.0
2984,84.0,60.0,60.0,4.0,0.0
2985,51.0,0.0,120.0,10.0,0.0
2986,63.0,0.0,120.0,10.0,0.0
2987,82.0,54.0,60.0,4.0,0.0
2988,63.0,6.0,120.0,5.0,0.0
2989,84.0,114.0,60.0,4.0,0.0
2990,64.0,12.0,210.0,5.0,0.0
2991,64.0,0.0,210.0,10.0,0.0
2992,52.0,0.0,210.0,10.0,0.0
2993,85.0,108.0,120.0,4.0,0.0
2994,80.0,120.0,120.0,4.0,0.0
2995,61.0,0.0,210.0,10.0,0.0
2996,61.0,0.0,210.0,5.0,0.0
2997,82.0,108.0,120.0,4.0,0.0
2998,49.0,12.0,210.0,10.0,0.0
2999,77.0,120.0,120.0,4.0,0.0
3000,51.0,0.0,210.0,10.0,0.0
3001,79.0,108.0,120.0,4.0,0.0
3002,63.0,0.0,210.0,5.0,0.0
3003,63.0,12.0,210.0,10.0,0.0
3004,73.0,120.0,120.0,4.0,0.0
3005,51.0,12.0,210.0,5.0,0.0
3006,39.0,0.0,210.0,10.0,0.0
3007,70.0,0.0,210.0,0.0,0.0
3008,73.0,0.0,210.0,0.0,0.0
3009,75.0,0.0,210.0,0.0,0.0
3010,79.0,0.0,210.0,0.0,0.0
3011,63.0,0.0,210.0,1.0,0.0
3012,75.0,108.0,120.0,4.0,0.0
3013,51.0,0.0,210.0,10.0,0.0
3014,70.0,120.0,120.0,4.0,0.0
3015,32.0,0.0,210.0,10.0,0.0
3016,56.0,0.0,210.0,5.0,0.0
3017,68.0,0.0,210.0,1.0,0.0
3018,44.0,12.0,210.0,10.0,0.0
3019,71.0,0.0,210.0,0.0,0.0
3020,75.0,0.0,210.0,0.0,0.0
3021,80.0,0.0,210.0,0.0,0.0
3022,71.0,108.0,120.0,4.0,0.0
3023,67.0,120.0,120.0,4.0,0.0
3024,75.0,0.0,210.0,2.0,0.0
3025,68.0,108.0,120.0,4.0,0.0
3026,71.0,0.0,210.0,2.0,0.0
3027,56.0,12.0,210.0,3.0,0.0
3028,68.0,0.0,210.0,2.0,0.0
3029,71.0,120.0,120.0,4.0,0.0
3030,44.0,12.0,210.0,3.0,0.0
3031,63.0,0.0,210.0,2.0,0.0
3032,68.0,0.0,210.0,2.0,0.0
3033,71.0,0.0,210.0,2.0,0.0
3034,75.0,108.0,120.0,4.0,0.0
3035,79.0,120.0,120.0,4.0,0.0
3036,59.0,0.0,120.0,5.0,0.0
3037,59.0,0.0,120.0,10.0,0.0
3038,80.0,120.0,120.0,4.0,0.0
3039,47.0,0.0,120.0,10.0,0.0
3040,61.0,0.0,120.0,5.0,0.0
3041,61.0,0.0,120.0,10.0,0.0
3042,49.0,0.0,120.0,10.0,0.0
3043,81.0,66.0,120.0,4.0,0.0
3044,62.0,0.0,210.0,10.0,0.0
3045,62.0,18.0,210.0,5.0,0.0
3046,50.0,0.0,210.0,10.0,0.0
3047,83.0,60.0,60.0,4.0,0.0
3048,81.0,60.0,60.0,4.0,0.0
3049,80.0,42.0,60.0,4.0,0.0
3050,78.0,114.0,60.0,4.0,0.0
3051,59.0,0.0,210.0,5.0,0.0
3052,59.0,12.0,210.0,10.0,0.0
3053,80.0,108.0,120.0,4.0,0.0
3054,47.0,0.0,210.0,10.0,0.0
3055,75.0,120.0,120.0,4.0,0.0
3056,61.0,0.0,210.0,5.0,0.0
3057,77.0,108.0,120.0,4.0,0.0
3058,61.0,0.0,210.0,10.0,0.0
3059,49.0,12.0,210.0,10.0,0.0
3060,71.0,120.0,120.0,4.0,0.0
3061,49.0,12.0,210.0,5.0,0.0
3062,77.0,0.0,210.0,0.0,0.0
3063,49.0,0.0,210.0,10.0,0.0
3064,71.0,0.0,210.0,0.0,0.0
3065,73.0,0.0,210.0,0.0,0.0
3066,61.0,0.0,210.0,1.0,0.0
3067,73.0,108.0,120.0,4.0,0.0
3068,37.0,0.0,210.0,10.0,0.0
3069,68.0,120.0,120.0,4.0,0.0
3070,42.0,0.0,210.0,10.0,0.0
3071,54.0,12.0,210.0,5.0,0.0
3072,69.0,0.0,210.0,0.0,0.0
3073,73.0,0.0,210.0,0.0,0.0
3074,78.0,0.0,210.0,0.0,0.0
3075,69.0,108.0,120.0,4.0,0.0
3076,66.0,0.0,210.0,1.0,0.0
3077,30.0,0.0,210.0,10.0,0.0
3078,65.0,120.0,120.0,4.0,0.0
3079,73.0,0.0,210.0,2.0,0.0
3080,66.0,108.0,120.0,4.0,0.0
3081,54.0,0.0,210.0,3.0,0.0
3082,66.0,12.0,210.0,2.0,0.0
3083,69.0,0.0,210.0,2.0,0.0
3084,69.0,120.0,120.0,4.0,0.0
3085,73.0,108.0,120.0,4.0,0.0
3086,61.0,0.0,210.0,2.0,0.0
3087,69.0,0.0,210.0,2.0,0.0
3088,66.0,12.0,210.0,2.0,0.0
3089,42.0,0.0,210.0,3.0,0.0
3090,77.0,120.0,120.0,4.0,0.0
3091,57.0,0.0,120.0,10.0,0.0
3092,57.0,0.0,120.0,5.0,0.0
3093,78.0,0.0,120.0,4.0,0.0
3094,45.0,120.0,120.0,10.0,0.0
3095,47.0,0.0,120.0,10.0,0.0
3096,80.0,0.0,120.0,4.0,0.0
3097,59.0,66.0,120.0,10.0,0.0
3098,59.0,0.0,120.0,5.0,0.0
3099,61.0,0.0,210.0,5.0,0.0
3100,49.0,0.0,210.0,10.0,0.0
3101,61.0,18.0,210.0,10.0,0.0
3102,81.0,60.0,60.0,4.0,0.0
3103,80.0,60.0,60.0,4.0,0.0
3104,78.0,42.0,60.0,4.0,0.0
3105,76.0,114.0,60.0,4.0,0.0
3106,45.0,0.0,210.0,10.0,0.0
3107,78.0,108.0,120.0,4.0,0.0
3108,57.0,0.0,210.0,10.0,0.0
3109,57.0,12.0,210.0,5.0,0.0
3110,73.0,120.0,120.0,4.0,0.0
3111,75.0,108.0,120.0,4.0,0.0
3112,59.0,12.0,210.0,10.0,0.0
3113,59.0,0.0,210.0,5.0,0.0
3114,47.0,0.0,210.0,10.0,0.0
3115,69.0,120.0,120.0,4.0,0.0
3116,35.0,0.0,210.0,10.0,0.0
3117,75.0,0.0,210.0,0.0,0.0
3118,71.0,12.0,210.0,0.0,0.0
3119,59.0,0.0,210.0,1.0,0.0
3120,71.0,108.0,120.0,4.0,0.0
3121,47.0,0.0,210.0,5.0,0.0
3122,47.0,0.0,210.0,10.0,0.0
3123,69.0,0.0,210.0,0.0,0.0
3124,66.0,120.0,120.0,4.0,0.0
3125,68.0,108.0,120.0,4.0,0.0
3126,52.0,0.0,210.0,5.0,0.0
3127,64.0,0.0,210.0,1.0,0.0
3128,68.0,12.0,210.0,0.0,0.0
3129,71.0,0.0,210.0,0.0,0.0
3130,76.0,0.0,210.0,0.0,0.0
3131,40.0,0.0,210.0,10.0,0.0
3132,28.0,0.0,210.0,10.0,0.0
3133,63.0,120.0,120.0,4.0,0.0
3134,71.0,0.0,210.0,2.0,0.0
3135,52.0,12.0,210.0,3.0,0.0
3136,68.0,0.0,210.0,2.0,0.0
3137,64.0,0.0,210.0,2.0,0.0
3138,64.0,108.0,120.0,4.0,0.0
3139,68.0,120.0,120.0,4.0,0.0
3140,40.0,12.0,210.0,3.0,0.0
3141,71.0,108.0,120.0,4.0,0.0
3142,59.0,0.0,210.0,2.0,0.0
3143,64.0,0.0,210.0,2.0,0.0
3144,68.0,0.0,210.0,2.0,0.0
3145,75.0,0.0,120.0,4.0,0.0
3146,68.0,120.0,120.0,5.0,0.0
3147,52.0,0.0,120.0,10.0,0.0
3148,64.0,120.0,120.0,10.0,0.0
3149,64.0,0.0,120.0,5.0,0.0
3150,76.0,0.0,120.0,4.0,0.0
3151,54.0,0.0,120.0,10.0,0.0
3152,80.0,0.0,120.0,4.0,0.0
3153,59.0,66.0,120.0,5.0,0.0
3154,66.0,0.0,120.0,10.0,0.0
3155,56.0,18.0,210.0,5.0,0.0
3156,83.0,60.0,60.0,4.0,0.0
3157,56.0,0.0,210.0,10.0,0.0
3158,68.0,0.0,210.0,10.0,0.0
3159,85.0,60.0,60.0,4.0,0.0
3160,86.0,42.0,60.0,4.0,0.0
3161,85.0,60.0,60.0,4.0,0.0
3162,83.0,60.0,60.0,4.0,0.0
3163,80.0,0.0,210.0,7.0,0.0
3164,68.0,54.0,300.0,5.0,0.0
3165,83.0,0.0,210.0,6.0,0.0
3166,56.0,0.0,210.0,10.0,0.0
3167,75.0,0.0,210.0,8.0,0.0
3168,44.0,18.0,210.0,10.0,0.0
3169,81.0,60.0,60.0,4.0,0.0
3170,80.0,42.0,60.0,4.0,0.0
3171,78.0,60.0,60.0,4.0,0.0
3172,49.0,0.0,210.0,10.0,0.0
3173,73.0,12.0,210.0,8.0,0.0
3174,61.0,0.0,210.0,10.0,0.0
3175,77.0,6.0,120.0,4.0,0.0
3176,83.0,0.0,210.0,6.0,0.0
3177,80.0,0.0,210.0,7.0,0.0
3178,66.0,60.0,60.0,5.0,0.0
3179,85.0,6.0,120.0,4.0,0.0
3180,65.0,42.0,60.0,5.0,0.0
3181,63.0,60.0,60.0,5.0,0.0
3182,53.0,12.0,210.0,10.0,0.0
3183,80.0,6.0,120.0,4.0,0.0
3184,73.0,0.0,210.0,8.0,0.0
3185,61.0,54.0,60.0,5.0,0.0
3186,83.0,0.0,210.0,6.0,0.0
3187,80.0,0.0,210.0,7.0,0.0
3188,65.0,0.0,210.0,10.0,0.0
3189,59.0,60.0,60.0,5.0,0.0
3190,57.0,42.0,60.0,5.0,0.0
3191,83.0,6.0,120.0,4.0,0.0
3192,56.0,60.0,60.0,5.0,0.0
3193,81.0,60.0,60.0,4.0,0.0
3194,54.0,0.0,210.0,10.0,0.0
3195,54.0,0.0,210.0,5.0,0.0
3196,66.0,18.0,210.0,10.0,0.0
3197,83.0,60.0,60.0,4.0,0.0
3198,85.0,42.0,60.0,4.0,0.0
3199,83.0,60.0,60.0,4.0,0.0
3200,81.0,0.0,210.0,6.0,0.0
3201,81.0,60.0,60.0,4.0,0.0
3202,73.0,0.0,210.0,8.0,0.0
3203,42.0,18.0,210.0,10.0,0.0
3204,54.0,0.0,210.0,10.0,0.0
3205,66.0,54.0,300.0,5.0,0.0
3206,78.0,0.0,210.0,7.0,0.0
3207,80.0,60.0,60.0,4.0,0.0
3208,78.0,42.0,60.0,4.0,0.0
3209,76.0,60.0,60.0,4.0,0.0
3210,59.0,0.0,210.0,10.0,0.0
3211,47.0,0.0,210.0,10.0,0.0
3212,78.0,12.0,210.0,7.0,0.0
3213,81.0,0.0,210.0,6.0,0.0
3214,71.0,0.0,210.0,8.0,0.0
3215,75.0,6.0,120.0,4.0,0.0
3216,64.0,60.0,60.0,5.0,0.0
3217,83.0,6.0,120.0,4.0,0.0
3218,63.0,42.0,60.0,5.0,0.0
3219,61.0,60.0,60.0,5.0,0.0
3220,81.0,0.0,210.0,6.0,0.0
3221,78.0,12.0,210.0,7.0,0.0
3222,59.0,54.0,60.0,5.0,0.0
3223,78.0,6.0,120.0,4.0,0.0
3224,63.0,0.0,210.0,10.0,0.0
3225,71.0,0.0,210.0,8.0,0.0
3226,51.0,0.0,210.0,10.0,0.0
3227,57.0,60.0,60.0,5.0,0.0
3228,56.0,42.0,60.0,5.0,0.0
3229,81.0,6.0,120.0,4.0,0.0
3230,54.0,60.0,60.0,5.0,0.0
3231,64.0,0.0,210.0,10.0,0.0
3232,80.0,60.0,60.0,4.0,0.0
3233,52.0,0.0,210.0,10.0,0.0
3234,52.0,18.0,210.0,5.0,0.0
3235,81.0,60.0,60.0,4.0,0.0
3236,83.0,42.0,60.0,4.0,0.0
3237,81.0,60.0,60.0,4.0,0.0
3238,64.0,54.0,300.0,5.0,0.0
3239,80.0,0.0,210.0,6.0,0.0
3240,40.0,18.0,210.0,10.0,0.0
3241,80.0,60.0,60.0,4.0,0.0
3242,71.0,0.0,210.0,8.0,0.0
3243,76.0,0.0,210.0,7.0,0.0
3244,52.0,0.0,210.0,10.0,0.0
3245,78.0,60.0,60.0,4.0,0.0
3246,76.0,42.0,60.0,4.0,0.0
3247,75.0,60.0,60.0,4.0,0.0
3248,45.0,12.0,210.0,10.0,0.0
3249,76.0,0.0,210.0,7.0,0.0
3250,69.0,0.0,210.0,8.0,0.0
3251,80.0,0.0,210.0,6.0,0.0
3252,73.0,6.0,120.0,4.0,0.0
3253,57.0,0.0,210.0,10.0,0.0
3254,63.0,60.0,60.0,5.0,0.0
3255,81.0,6.0,120.0,4.0,0.0
3256,61.0,42.0,60.0,5.0,0.0
3257,59.0,60.0,60.0,5.0,0.0
3258,76.0,0.0,210.0,7.0,0.0
3259,69.0,0.0,210.0,8.0,0.0
3260,57.0,54.0,60.0,5.0,0.0
3261,76.0,6.0,120.0,4.0,0.0
3262,80.0,12.0,210.0,6.0,0.0
3263,61.0,0.0,210.0,10.0,0.0
3264,49.0,0.0,210.0,10.0,0.0
3265,56.0,60.0,60.0,5.0,0.0
3266,54.0,42.0,60.0,5.0,0.0
3267,80.0,6.0,120.0,4.0,0.0
3268,52.0,60.0,60.0,5.0,0.0
3269,51.0,18.0,210.0,10.0,0.0
3270,51.0,0.0,210.0,5.0,0.0
3271,78.0,60.0,60.0,4.0,0.0
3272,63.0,0.0,210.0,10.0,0.0
3273,80.0,60.0,60.0,4.0,0.0
3274,81.0,42.0,60.0,4.0,0.0
3275,80.0,60.0,60.0,4.0,0.0
3276,63.0,54.0,300.0,5.0,0.0
3277,75.0,0.0,210.0,7.0,0.0
3278,78.0,0.0,210.0,6.0,0.0
3279,69.0,0.0,210.0,8.0,0.0
3280,78.0,60.0,60.0,4.0,0.0
3281,51.0,18.0,210.0,10.0,0.0
3282,39.0,0.0,210.0,10.0,0.0
3283,76.0,60.0,60.0,4.0,0.0
3284,75.0,42.0,60.0,4.0,0.0
3285,73.0,60.0,60.0,4.0,0.0
3286,44.0,0.0,210.0,10.0,0.0
3287,72.0,6.0,120.0,4.0,0.0
3288,78.0,0.0,210.0,6.0,0.0
3289,68.0,12.0,210.0,8.0,0.0
3290,56.0,0.0,210.0,10.0,0.0
3291,75.0,0.0,210.0,7.0,0.0
3292,61.0,60.0,60.0,5.0,0.0
3293,60.0,42.0,60.0,5.0,0.0
3294,80.0,6.0,120.0,4.0,0.0
3295,58.0,60.0,60.0,5.0,0.0
3296,75.0,12.0,210.0,7.0,0.0
3297,78.0,0.0,210.0,6.0,0.0
3298,75.0,6.0,120.0,4.0,0.0
3299,68.0,0.0,210.0,8.0,0.0
3300,56.0,54.0,60.0,5.0,0.0
3301,48.0,0.0,210.0,10.0,0.0
3302,60.0,0.0,210.0,10.0,0.0
3303,54.0,60.0,60.0,5.0,0.0
3304,78.0,6.0,120.0,4.0,0.0
3305,52.0,42.0,60.0,5.0,0.0
3306,51.0,120.0,60.0,5.0,0.0
3307,61.0,0.0,210.0,10.0,0.0
3308,49.0,18.0,210.0,10.0,0.0
3309,73.0,0.0,1380.0,7.0,0.0
3310,49.0,0.0,210.0,5.0,0.0
3311,68.0,36.0,1380.0,8.0,0.0
3312,76.0,30.0,870.0,6.0,0.0
3313,73.0,60.0,60.0,4.0,0.0
3314,75.0,42.0,60.0,4.0,0.0
3315,76.0,60.0,60.0,4.0,0.0
3316,49.0,0.0,120.0,10.0,0.0
3317,37.0,6.0,120.0,10.0,0.0
3318,80.0,54.0,60.0,4.0,0.0
3319,76.0,60.0,60.0,4.0,0.0
3320,51.0,0.0,120.0,10.0,0.0
3321,39.0,6.0,120.0,10.0,0.0
3322,75.0,54.0,60.0,4.0,0.0
3323,73.0,114.0,60.0,4.0,0.0
3324,52.0,6.0,120.0,10.0,0.0
3325,40.0,0.0,120.0,10.0,0.0
3326,61.0,12.0,210.0,5.0,0.0
3327,73.0,60.0,60.0,4.0,0.0
3328,39.0,0.0,120.0,10.0,0.0
3329,51.0,6.0,120.0,10.0,0.0
3330,75.0,42.0,60.0,4.0,0.0
3331,76.0,60.0,60.0,4.0,0.0
3332,80.0,54.0,60.0,4.0,0.0
3333,52.0,6.0,120.0,10.0,0.0
3334,40.0,0.0,120.0,10.0,0.0
3335,76.0,30.0,60.0,4.0,0.0
3336,42.0,6.0,120.0,10.0,0.0
3337,75.0,54.0,60.0,4.0,0.0
3338,54.0,0.0,120.0,10.0,0.0
3339,73.0,114.0,60.0,4.0,0.0
3340,56.0,6.0,120.0,10.0,0.0
3341,75.0,0.0,420.0,6.0,0.0
3342,68.0,12.0,210.0,5.0,0.0
3343,44.0,0.0,120.0,10.0,0.0
3344,73.0,60.0,60.0,4.0,0.0
3345,43.0,6.0,120.0,10.0,0.0
3346,55.0,0.0,120.0,10.0,0.0
3347,75.0,42.0,60.0,4.0,0.0
3348,79.0,60.0,60.0,4.0,0.0
3349,44.0,6.0,120.0,10.0,0.0
3350,56.0,0.0,120.0,10.0,0.0
3351,80.0,54.0,60.0,4.0,0.0
3352,79.0,60.0,60.0,4.0,0.0
3353,58.0,0.0,120.0,10.0,0.0
3354,75.0,18.0,60.0,4.0,0.0
3355,46.0,6.0,120.0,10.0,0.0
3356,73.0,114.0,60.0,4.0,0.0
3357,63.0,0.0,1650.0,8.0,0.0
3358,80.0,36.0,900.0,6.0,0.0
3359,71.0,36.0,420.0,7.0,0.0
3360,59.0,6.0,120.0,10.0,0.0
3361,56.0,12.0,210.0,5.0,0.0
3362,47.0,0.0,120.0,10.0,0.0
3363,71.0,60.0,60.0,4.0,0.0
3364,58.0,6.0,120.0,10.0,0.0
3365,73.0,42.0,60.0,4.0,0.0
3366,46.0,0.0,120.0,10.0,0.0
3367,75.0,60.0,60.0,4.0,0.0
3368,80.0,54.0,60.0,4.0,0.0
3369,47.0,0.0,120.0,10.0,0.0
3370,59.0,6.0,120.0,10.0,0.0
3371,75.0,60.0,60.0,4.0,0.0
3372,61.0,0.0,120.0,10.0,0.0
3373,73.0,18.0,60.0,4.0,0.0
3374,49.0,6.0,120.0,10.0,0.0
3375,71.0,114.0,60.0,4.0,0.0
3376,51.0,0.0,120.0,10.0,0.0
3377,63.0,12.0,210.0,5.0,0.0
3378,63.0,6.0,120.0,10.0,0.0
3379,70.0,30.0,870.0,7.0,0.0
3380,70.0,60.0,60.0,4.0,0.0
3381,71.0,42.0,60.0,4.0,0.0
3382,61.0,6.0,120.0,10.0,0.0
3383,49.0,0.0,120.0,10.0,0.0
3384,73.0,60.0,60.0,4.0,0.0
3385,80.0,54.0,60.0,4.0,0.0
3386,63.0,6.0,120.0,10.0,0.0
3387,51.0,0.0,120.0,10.0,0.0
3388,73.0,60.0,60.0,4.0,0.0
3389,52.0,6.0,120.0,10.0,0.0
3390,64.0,0.0,120.0,10.0,0.0
3391,71.0,18.0,60.0,4.0,0.0
3392,70.0,114.0,60.0,4.0,0.0
3393,78.0,12.0,690.0,6.0,0.0
3394,51.0,12.0,210.0,5.0,0.0
3395,54.0,0.0,120.0,10.0,0.0
3396,66.0,6.0,120.0,10.0,0.0
3397,70.0,60.0,60.0,4.0,0.0
3398,52.0,0.0,120.0,10.0,0.0
3399,64.0,6.0,120.0,10.0,0.0
3400,71.0,42.0,60.0,4.0,0.0
3401,73.0,60.0,60.0,4.0,0.0
3402,66.0,6.0,120.0,10.0,0.0
3403,79.0,54.0,60.0,4.0,0.0
3404,54.0,0.0,120.0,10.0,0.0
3405,73.0,30.0,60.0,4.0,0.0
3406,51.0,0.0,120.0,10.0,0.0
3407,63.0,6.0,120.0,10.0,0.0
3408,71.0,54.0,60.0,4.0,0.0
3409,70.0,114.0,60.0,4.0,0.0
3410,72.0,30.0,870.0,7.0,0.0
3411,56.0,6.0,120.0,10.0,0.0
3412,68.0,0.0,120.0,10.0,0.0
3413,56.0,0.0,210.0,5.0,0.0
3414,72.0,60.0,60.0,4.0,0.0
3415,73.0,42.0,60.0,4.0,0.0
3416,66.0,6.0,120.0,10.0,0.0
3417,54.0,0.0,120.0,10.0,0.0
3418,75.0,60.0,60.0,4.0,0.0
3419,75.0,12.0,210.0,6.0,0.0
3420,68.0,6.0,120.0,10.0,0.0
3421,78.0,54.0,60.0,4.0,0.0
3422,68.0,0.0,930.0,8.0,0.0
3423,56.0,0.0,120.0,10.0,0.0
3424,75.0,60.0,60.0,4.0,0.0
3425,73.0,42.0,60.0,4.0,0.0
3426,69.0,6.0,120.0,10.0,0.0
3427,57.0,0.0,120.0,10.0,0.0
3428,72.0,114.0,60.0,4.0,0.0
3429,68.0,6.0,120.0,10.0,0.0
3430,56.0,0.0,120.0,10.0,0.0
3431,80.0,0.0,210.0,6.0,0.0
3432,44.0,12.0,210.0,5.0,0.0
3433,72.0,60.0,60.0,4.0,0.0
3434,66.0,6.0,120.0,10.0,0.0
3435,73.0,42.0,60.0,4.0,0.0
3436,54.0,0.0,120.0,10.0,0.0
3437,75.0,60.0,60.0,4.0,0.0
3438,52.0,0.0,120.0,10.0,0.0
3439,78.0,12.0,210.0,6.0,0.0
3440,64.0,6.0,120.0,10.0,0.0
3441,78.0,54.0,60.0,4.0,0.0
3442,75.0,30.0,60.0,4.0,0.0
3443,73.0,42.0,60.0,4.0,0.0
3444,63.0,0.0,120.0,10.0,0.0
3445,51.0,6.0,120.0,10.0,0.0
3446,72.0,114.0,60.0,4.0,0.0
3447,77.0,30.0,870.0,6.0,0.0
3448,71.0,12.0,210.0,7.0,0.0
3449,49.0,6.0,120.0,10.0,0.0
3450,49.0,0.0,210.0,5.0,0.0
3451,61.0,0.0,120.0,10.0,0.0
3452,71.0,60.0,60.0,4.0,0.0
3453,73.0,42.0,60.0,4.0,0.0
3454,59.0,6.0,120.0,10.0,0.0
3455,47.0,0.0,120.0,10.0,0.0
3456,74.0,60.0,60.0,4.0,0.0
3457,77.0,54.0,60.0,4.0,0.0
3458,61.0,0.0,930.0,8.0,0.0
3459,49.0,0.0,120.0,10.0,0.0
3460,68.0,12.0,210.0,7.0,0.0
3461,61.0,6.0,120.0,10.0,0.0
3462,74.0,60.0,60.0,4.0,0.0
3463,62.0,0.0,120.0,10.0,0.0
3464,73.0,42.0,60.0,4.0,0.0
3465,50.0,6.0,120.0,10.0,0.0
3466,71.0,114.0,60.0,4.0,0.0
3467,61.0,0.0,120.0,10.0,0.0
3468,73.0,12.0,210.0,7.0,0.0
3469,49.0,6.0,120.0,10.0,0.0
3470,61.0,0.0,210.0,5.0,0.0
3471,71.0,60.0,60.0,4.0,0.0
3472,47.0,0.0,120.0,10.0,0.0
3473,73.0,42.0,60.0,4.0,0.0
3474,59.0,6.0,120.0,10.0,0.0
3475,74.0,60.0,60.0,4.0,0.0
3476,57.0,0.0,120.0,10.0,0.0
3477,71.0,12.0,210.0,7.0,0.0
3478,77.0,54.0,60.0,4.0,0.0
3479,45.0,6.0,120.0,10.0,0.0
3480,74.0,30.0,60.0,4.0,0.0
3481,44.0,0.0,120.0,10.0,0.0
3482,73.0,42.0,60.0,4.0,0.0
3483,56.0,6.0,120.0,10.0,0.0
3484,71.0,114.0,60.0,4.0,0.0
3485,54.0,6.0,120.0,10.0,0.0
3486,70.0,30.0,870.0,7.0,0.0
3487,76.0,0.0,210.0,6.0,0.0
3488,66.0,12.0,210.0,5.0,0.0
3489,42.0,0.0,120.0,10.0,0.0
3490,70.0,60.0,60.0,4.0,0.0
3491,40.0,0.0,120.0,10.0,0.0
3492,52.0,6.0,120.0,10.0,0.0
3493,71.0,42.0,60.0,4.0,0.0
3494,73.0,60.0,60.0,4.0,0.0
3495,73.0,12.0,210.0,6.0,0.0
3496,76.0,54.0,60.0,4.0,0.0
3497,42.0,0.0,120.0,10.0,0.0
3498,54.0,6.0,120.0,10.0,0.0
3499,66.0,0.0,930.0,8.0,0.0
3500,73.0,60.0,60.0,4.0,0.0
3501,44.0,6.0,120.0,10.0,0.0
3502,71.0,42.0,60.0,4.0,0.0
3503,56.0,0.0,120.0,10.0,0.0
3504,70.0,114.0,60.0,4.0,0.0
3505,54.0,12.0,210.0,5.0,0.0
3506,78.0,0.0,210.0,6.0,0.0
3507,42.0,6.0,120.0,10.0,0.0
3508,54.0,0.0,120.0,10.0,0.0
3509,70.0,60.0,60.0,4.0,0.0
3510,52.0,6.0,120.0,10.0,0.0
3511,40.0,0.0,120.0,10.0,0.0
3512,71.0,42.0,60.0,4.0,0.0
3513,73.0,60.0,60.0,4.0,0.0
3514,76.0,54.0,60.0,4.0,0.0
3515,51.0,0.0,120.0,10.0,0.0
3516,39.0,6.0,120.0,10.0,0.0
3517,76.0,12.0,210.0,6.0,0.0
3518,73.0,30.0,60.0,4.0,0.0
3519,37.0,0.0,120.0,10.0,0.0
3520,71.0,42.0,60.0,4.0,0.0
3521,49.0,6.0,120.0,10.0,0.0
3522,70.0,114.0,60.0,4.0,0.0
3523,75.0,30.0,870.0,6.0,0.0
3524,69.0,12.0,210.0,7.0,0.0
3525,47.0,0.0,210.0,5.0,0.0
3526,59.0,0.0,120.0,10.0,0.0
3527,47.0,6.0,120.0,10.0,0.0
3528,69.0,60.0,60.0,4.0,0.0
3529,71.0,42.0,60.0,4.0,0.0
3530,57.0,6.0,120.0,10.0,0.0
3531,45.0,0.0,120.0,10.0,0.0
3532,72.0,60.0,60.0,4.0,0.0
3533,75.0,54.0,60.0,4.0,0.0
3534,66.0,12.0,210.0,7.0,0.0
3535,47.0,6.0,120.0,10.0,0.0
3536,59.0,12.0,930.0,8.0,0.0
3537,59.0,0.0,120.0,10.0,0.0
3538,72.0,60.0,60.0,4.0,0.0
3539,71.0,42.0,60.0,4.0,0.0
3540,61.0,0.0,120.0,10.0,0.0
3541,49.0,6.0,120.0,10.0,0.0
3542,69.0,114.0,60.0,4.0,0.0
3543,71.0,0.0,210.0,7.0,0.0
3544,59.0,12.0,210.0,5.0,0.0
3545,47.0,0.0,120.0,10.0,0.0
3546,59.0,6.0,120.0,10.0,0.0
3547,69.0,60.0,60.0,4.0,0.0
3548,71.0,42.0,60.0,4.0,0.0
3549,45.0,6.0,120.0,10.0,0.0
3550,57.0,0.0,120.0,10.0,0.0
3551,72.0,60.0,60.0,4.0,0.0
3552,44.0,6.0,120.0,10.0,0.0
3553,75.0,54.0,60.0,4.0,0.0
3554,69.0,12.0,210.0,7.0,0.0
3555,56.0,0.0,120.0,10.0,0.0
3556,72.0,30.0,60.0,4.0,0.0
3557,42.0,6.0,120.0,10.0,0.0
3558,54.0,0.0,120.0,10.0,0.0
3559,71.0,42.0,60.0,4.0,0.0
3560,69.0,114.0,60.0,4.0,0.0
3561,40.0,6.0,120.0,10.0,0.0
3562,74.0,0.0,210.0,6.0,0.0
3563,68.0,0.0,1170.0,7.0,0.0
3564,64.0,0.0,210.0,5.0,0.0
3565,52.0,0.0,120.0,10.0,0.0
3566,68.0,60.0,60.0,4.0,0.0
3567,51.0,0.0,120.0,10.0,0.0
3568,69.0,42.0,60.0,4.0,0.0
3569,39.0,6.0,120.0,10.0,0.0
3570,71.0,60.0,60.0,4.0,0.0
3571,74.0,54.0,60.0,4.0,0.0
3572,71.0,12.0,210.0,6.0,0.0
3573,52.0,0.0,120.0,10.0,0.0
3574,64.0,6.0,660.0,8.0,0.0
3575,40.0,6.0,120.0,10.0,0.0
3576,71.0,60.0,60.0,4.0,0.0
3577,69.0,42.0,60.0,4.0,0.0
3578,42.0,6.0,120.0,10.0,0.0
3579,54.0,0.0,120.0,10.0,0.0
3580,68.0,114.0,60.0,4.0,0.0
3581,76.0,0.0,210.0,6.0,0.0
3582,40.0,6.0,120.0,10.0,0.0
3583,52.0,0.0,120.0,10.0,0.0
3584,52.0,12.0,210.0,5.0,0.0
3585,68.0,60.0,60.0,4.0,0.0
3586,69.0,42.0,60.0,4.0,0.0
3587,50.0,0.0,120.0,10.0,0.0
3588,38.0,6.0,120.0,10.0,0.0
3589,71.0,60.0,60.0,4.0,0.0
3590,74.0,54.0,60.0,4.0,0.0
3591,37.0,6.0,120.0,10.0,0.0
3592,49.0,0.0,120.0,10.0,0.0
3593,74.0,12.0,210.0,6.0,0.0
3594,71.0,54.0,60.0,4.0,0.0
3595,69.0,42.0,60.0,4.0,0.0
3596,35.0,6.0,120.0,10.0,0.0
3597,47.0,0.0,120.0,10.0,0.0
3598,68.0,114.0,60.0,4.0,0.0
3599,64.0,12.0,210.0,8.0,0.0
3600,46.0,0.0,210.0,5.0,0.0
3601,46.0,0.0,120.0,10.0,0.0
3602,58.0,6.0,120.0,10.0,0.0
3603,73.0,0.0,1170.0,6.0,0.0
3604,68.0,60.0,60.0,4.0,0.0
3605,70.0,42.0,60.0,4.0,0.0
3606,56.0,0.0,120.0,10.0,0.0
3607,44.0,6.0,120.0,10.0,0.0
3608,71.0,60.0,60.0,4.0,0.0
3609,65.0,12.0,210.0,7.0,0.0
3610,58.0,12.0,930.0,8.0,0.0
3611,73.0,54.0,60.0,4.0,0.0
3612,46.0,0.0,120.0,10.0,0.0
3613,58.0,6.0,120.0,10.0,0.0
3614,71.0,60.0,60.0,4.0,0.0
3615,70.0,42.0,60.0,4.0,0.0
3616,59.0,6.0,120.0,10.0,0.0
3617,47.0,0.0,120.0,10.0,0.0
3618,68.0,114.0,60.0,4.0,0.0
3619,58.0,0.0,120.0,10.0,0.0
3620,70.0,12.0,210.0,7.0,0.0
3621,58.0,0.0,210.0,5.0,0.0
3622,46.0,6.0,120.0,10.0,0.0
3623,68.0,60.0,60.0,4.0,0.0
3624,70.0,42.0,60.0,4.0,0.0
3625,56.0,0.0,120.0,10.0,0.0
3626,44.0,6.0,120.0,10.0,0.0
3627,71.0,60.0,60.0,4.0,0.0
3628,73.0,54.0,60.0,4.0,0.0
3629,55.0,0.0,120.0,10.0,0.0
3630,68.0,12.0,210.0,7.0,0.0
3631,43.0,6.0,120.0,10.0,0.0
3632,71.0,60.0,60.0,4.0,0.0
3633,41.0,0.0,120.0,10.0,0.0
3634,53.0,6.0,120.0,10.0,0.0
3635,70.0,42.0,60.0,4.0,0.0
3636,68.0,114.0,60.0,4.0,0.0
3637,39.0,0.0,120.0,10.0,0.0
3638,63.0,0.0,210.0,5.0,0.0
3639,51.0,6.0,120.0,10.0,0.0
3640,67.0,30.0,870.0,7.0,0.0
3641,67.0,60.0,60.0,4.0,0.0
3642,68.0,42.0,60.0,4.0,0.0
3643,37.0,0.0,120.0,10.0,0.0
3644,49.0,6.0,120.0,10.0,0.0
3645,70.0,60.0,60.0,4.0,0.0
3646,63.0,108.0,840.0,8.0,0.0
3647,51.0,6.0,120.0,10.0,0.0
3648,73.0,54.0,60.0,4.0,0.0
3649,39.0,0.0,120.0,10.0,0.0
3650,70.0,12.0,210.0,6.0,0.0
3651,70.0,60.0,60.0,4.0,0.0
3652,68.0,42.0,60.0,4.0,0.0
3653,52.0,6.0,120.0,10.0,0.0
3654,40.0,0.0,120.0,10.0,0.0
3655,67.0,114.0,60.0,4.0,0.0
3656,39.0,0.0,120.0,10.0,0.0
3657,51.0,6.0,120.0,10.0,0.0
3658,51.0,0.0,210.0,5.0,0.0
3659,75.0,12.0,210.0,6.0,0.0
3660,67.0,60.0,60.0,4.0,0.0
3661,37.0,6.0,120.0,10.0,0.0
3662,68.0,42.0,60.0,4.0,0.0
3663,49.0,0.0,120.0,10.0,0.0
3664,70.0,60.0,60.0,4.0,0.0
3665,47.0,0.0,120.0,10.0,0.0
3666,73.0,12.0,210.0,6.0,0.0
3667,35.0,6.0,120.0,10.0,0.0
3668,73.0,54.0,60.0,4.0,0.0
3669,70.0,30.0,60.0,4.0,0.0
3670,34.0,6.0,120.0,10.0,0.0
3671,46.0,0.0,120.0,10.0,0.0
3672,68.0,42.0,60.0,4.0,0.0
3673,67.0,114.0,60.0,4.0,0.0
3674,44.0,0.0,210.0,5.0,0.0
3675,68.0,0.0,210.0,4.0,0.0
3676,68.0,0.0,210.0,7.0,0.0
3677,56.0,0.0,870.0,10.0,0.0
3678,71.0,12.0,210.0,6.0,0.0
3679,44.0,72.0,870.0,10.0,0.0
3680,61.0,120.0,120.0,8.0,0.0
3681,56.0,0.0,120.0,5.0,0.0
3682,75.0,12.0,210.0,6.0,0.0
3683,59.0,108.0,120.0,4.0,0.0
3684,71.0,0.0,210.0,2.0,0.0
3685,56.0,0.0,120.0,1.0,0.0
3686,71.0,0.0,210.0,7.0,0.0
3687,75.0,0.0,210.0,0.0,0.0
3688,56.0,0.0,120.0,3.0,0.0
3689,59.0,0.0,120.0,8.0,0.0
3690,55.0,0.0,120.0,1.0,0.0
3691,55.0,0.0,120.0,5.0,0.0
3692,58.0,0.0,120.0,8.0,0.0
3693,58.0,120.0,120.0,4.0,0.0
3694,55.0,0.0,120.0,3.0,0.0
3695,59.0,0.0,120.0,4.0,0.0
3696,75.0,0.0,210.0,2.0,0.0
3697,59.0,108.0,120.0,8.0,0.0
3698,56.0,0.0,120.0,3.0,0.0
3699,56.0,0.0,120.0,5.0,0.0
3700,56.0,0.0,120.0,1.0,0.0
3701,71.0,12.0,210.0,0.0,0.0
3702,71.0,0.0,210.0,6.0,0.0
3703,75.0,0.0,210.0,7.0,0.0
3704,58.0,0.0,120.0,3.0,0.0
3705,58.0,0.0,120.0,1.0,0.0
3706,61.0,120.0,120.0,4.0,0.0
3707,61.0,0.0,120.0,8.0,0.0
3708,58.0,0.0,120.0,5.0,0.0
3709,71.0,0.0,210.0,2.0,0.0
3710,59.0,0.0,120.0,5.0,0.0
3711,63.0,0.0,120.0,8.0,0.0
3712,59.0,36.0,120.0,1.0,0.0
3713,63.0,0.0,120.0,4.0,0.0
3714,59.0,0.0,120.0,3.0,0.0
3715,68.0,0.0,210.0,6.0,0.0
3716,68.0,0.0,210.0,0.0,0.0
3717,71.0,12.0,210.0,7.0,0.0
3718,64.0,0.0,120.0,8.0,0.0
3719,61.0,0.0,120.0,3.0,0.0
3720,61.0,120.0,120.0,1.0,0.0
3721,64.0,0.0,120.0,4.0,0.0
3722,61.0,0.0,120.0,5.0,0.0
3723,63.0,0.0,120.0,5.0,0.0
3724,63.0,0.0,120.0,1.0,0.0
3725,70.0,12.0,210.0,2.0,0.0
3726,54.0,72.0,870.0,10.0,0.0
3727,66.0,0.0,120.0,8.0,0.0
3728,66.0,108.0,120.0,4.0,0.0
3729,42.0,0.0,870.0,10.0,0.0
3730,63.0,0.0,120.0,3.0,0.0
3731,70.0,0.0,210.0,7.0,0.0
3732,61.0,0.0,120.0,5.0,0.0
3733,64.0,0.0,120.0,8.0,0.0
3734,64.0,0.0,120.0,4.0,0.0
3735,61.0,120.0,120.0,3.0,0.0
3736,61.0,0.0,120.0,1.0,0.0
3737,63.0,0.0,120.0,3.0,0.0
3738,63.0,0.0,120.0,5.0,0.0
3739,63.0,0.0,210.0,7.0,0.0
3740,66.0,0.0,120.0,4.0,0.0
3741,75.0,0.0,120.0,2.0,0.0
3742,66.0,0.0,120.0,8.0,0.0
3743,63.0,108.0,120.0,1.0,0.0
3744,82.0,0.0,210.0,0.0,0.0
3745,82.0,12.0,210.0,6.0,0.0
3746,64.0,0.0,120.0,5.0,0.0
3747,68.0,0.0,120.0,4.0,0.0
3748,68.0,0.0,120.0,8.0,0.0
3749,73.0,0.0,120.0,2.0,0.0
3750,64.0,0.0,120.0,1.0,0.0
3751,64.0,120.0,120.0,3.0,0.0
3752,70.0,0.0,120.0,4.0,0.0
3753,70.0,0.0,120.0,8.0,0.0
3754,75.0,12.0,690.0,7.0,0.0
3755,66.0,108.0,120.0,3.0,0.0
3756,66.0,0.0,120.0,1.0,0.0
3757,78.0,0.0,210.0,6.0,0.0
3758,66.0,0.0,120.0,5.0,0.0
3759,78.0,12.0,210.0,0.0,0.0
3760,75.0,0.0,600.0,2.0,0.0
3761,68.0,0.0,120.0,8.0,0.0
3762,64.0,120.0,120.0,5.0,0.0
3763,64.0,0.0,120.0,1.0,0.0
3764,68.0,0.0,120.0,4.0,0.0
3765,64.0,0.0,120.0,3.0,0.0
3766,70.0,0.0,120.0,4.0,0.0
3767,75.0,0.0,210.0,0.0,0.0
3768,70.0,0.0,120.0,8.0,0.0
3769,66.0,0.0,120.0,3.0,0.0
3770,66.0,36.0,120.0,5.0,0.0
3771,75.0,12.0,210.0,6.0,0.0
3772,66.0,0.0,120.0,1.0,0.0
3773,66.0,0.0,120.0,8.0,0.0
3774,63.0,0.0,120.0,5.0,0.0
3775,63.0,0.0,120.0,3.0,0.0
3776,68.0,0.0,120.0,4.0,0.0
3777,63.0,120.0,120.0,1.0,0.0
3778,68.0,108.0,120.0,1.0,0.0
3779,68.0,0.0,120.0,5.0,0.0
3780,71.0,0.0,120.0,4.0,0.0
3781,71.0,0.0,120.0,8.0,0.0
3782,68.0,0.0,120.0,3.0,0.0
3783,40.0,0.0,870.0,10.0,0.0
3784,52.0,72.0,870.0,10.0,0.0
3785,70.0,120.0,120.0,8.0,0.0
3786,67.0,0.0,120.0,5.0,0.0
3787,67.0,0.0,120.0,3.0,0.0
3788,70.0,0.0,120.0,4.0,0.0
3789,67.0,0.0,120.0,1.0,0.0
3790,76.0,0.0,120.0,2.0,0.0
3791,71.0,0.0,120.0,8.0,0.0
3792,71.0,0.0,120.0,4.0,0.0
3793,80.0,108.0,120.0,0.0,0.0
3794,75.0,0.0,120.0,2.0,0.0
3795,68.0,0.0,120.0,1.0,0.0
3796,68.0,0.0,120.0,3.0,0.0
3797,68.0,12.0,210.0,7.0,0.0
3798,68.0,0.0,120.0,5.0,0.0
3799,80.0,0.0,120.0,6.0,0.0
3800,73.0,0.0,120.0,2.0,0.0
3801,70.0,0.0,120.0,5.0,0.0
3802,79.0,0.0,120.0,6.0,0.0
3803,73.0,120.0,120.0,4.0,0.0
3804,70.0,0.0,120.0,1.0,0.0
3805,73.0,0.0,120.0,8.0,0.0
3806,70.0,0.0,120.0,3.0,0.0
3807,79.0,0.0,120.0,0.0,0.0
3808,75.0,0.0,120.0,4.0,0.0
3809,80.0,0.0,120.0,0.0,0.0
3810,71.0,0.0,120.0,2.0,0.0
3811,68.0,0.0,120.0,3.0,0.0
3812,80.0,0.0,120.0,6.0,0.0
3813,68.0,0.0,120.0,1.0,0.0
3814,68.0,0.0,120.0,5.0,0.0
3815,75.0,120.0,120.0,8.0,0.0
3816,80.0,0.0,120.0,7.0,0.0
3817,73.0,0.0,120.0,4.0,0.0
3818,79.0,0.0,120.0,7.0,0.0
3819,71.0,0.0,120.0,3.0,0.0
3820,73.0,0.0,120.0,8.0,0.0
3821,71.0,0.0,120.0,5.0,0.0
3822,82.0,120.0,120.0,6.0,0.0
3823,71.0,0.0,120.0,1.0,0.0
3824,75.0,0.0,120.0,2.0,0.0
3825,82.0,0.0,120.0,0.0,0.0
3826,83.0,0.0,120.0,0.0,0.0
3827,80.0,0.0,210.0,2.0,0.0
3828,80.0,12.0,210.0,7.0,0.0
3829,75.0,0.0,120.0,8.0,0.0
3830,83.0,36.0,120.0,6.0,0.0
3831,70.0,0.0,120.0,5.0,0.0
3832,70.0,0.0,120.0,1.0,0.0
3833,75.0,0.0,120.0,4.0,0.0
3834,70.0,0.0,120.0,3.0,0.0
3835,76.0,0.0,120.0,8.0,0.0
3836,68.0,0.0,120.0,1.0,0.0
3837,68.0,0.0,120.0,5.0,0.0
3838,85.0,0.0,120.0,0.0,0.0
3839,76.0,120.0,120.0,4.0,0.0
3840,68.0,0.0,120.0,3.0,0.0
3841,85.0,0.0,120.0,6.0,0.0
3842,82.0,0.0,120.0,7.0,0.0
3843,51.0,12.0,210.0,10.0,0.0
3844,70.0,0.0,120.0,4.0,0.0
3845,67.0,0.0,120.0,1.0,0.0
3846,67.0,0.0,120.0,5.0,0.0
3847,67.0,0.0,120.0,3.0,0.0
3848,70.0,0.0,210.0,8.0,0.0
3849,82.0,108.0,120.0,2.0,0.0
3850,87.0,0.0,120.0,6.0,0.0
3851,39.0,0.0,210.0,10.0,0.0
3852,87.0,0.0,120.0,0.0,0.0
3853,70.0,0.0,120.0,5.0,0.0
3854,70.0,0.0,120.0,3.0,0.0
3855,82.0,0.0,120.0,0.0,0.0
3856,75.0,120.0,120.0,4.0,0.0
3857,79.0,0.0,120.0,2.0,0.0
3858,70.0,0.0,120.0,1.0,0.0
3859,79.0,0.0,120.0,7.0,0.0
3860,82.0,0.0,120.0,6.0,0.0
3861,79.0,0.0,120.0,6.0,0.0
3862,63.0,0.0,120.0,5.0,0.0
3863,79.0,0.0,120.0,4.0,0.0
3864,82.0,0.0,120.0,7.0,0.0
3865,75.0,24.0,420.0,8.0,0.0
3866,51.0,0.0,120.0,10.0,0.0
3867,63.0,0.0,120.0,10.0,0.0
3868,82.0,0.0,120.0,2.0,0.0
3869,79.0,0.0,120.0,0.0,0.0
3870,63.0,120.0,120.0,3.0,0.0
3871,63.0,0.0,120.0,1.0,0.0
3872,87.0,0.0,120.0,2.0,0.0
3873,61.0,0.0,120.0,10.0,0.0
3874,67.0,0.0,120.0,5.0,0.0
3875,87.0,120.0,120.0,7.0,0.0
3876,49.0,0.0,120.0,10.0,0.0
3877,75.0,0.0,120.0,4.0,0.0
3878,67.0,0.0,120.0,1.0,0.0
3879,67.0,0.0,120.0,3.0,0.0
3880,82.0,0.0,120.0,6.0,0.0
3881,82.0,0.0,120.0,0.0,0.0
3882,68.0,0.0,120.0,5.0,0.0
3883,59.0,0.0,210.0,10.0,0.0
3884,75.0,12.0,210.0,2.0,0.0
3885,68.0,0.0,120.0,1.0,0.0
3886,80.0,84.0,120.0,4.0,0.0
3887,87.0,108.0,600.0,6.0,0.0
3888,68.0,0.0,120.0,3.0,0.0
3889,47.0,0.0,210.0,10.0,0.0
3890,80.0,0.0,210.0,7.0,0.0
3891,87.0,0.0,600.0,0.0,0.0
3892,75.0,120.0,120.0,4.0,0.0
3893,71.0,0.0,120.0,1.0,0.0
3894,71.0,0.0,120.0,5.0,0.0
3895,71.0,0.0,120.0,3.0,0.0
3896,63.0,0.0,120.0,1.0,0.0
3897,83.0,0.0,210.0,7.0,0.0
3898,63.0,0.0,120.0,5.0,0.0
3899,71.0,108.0,120.0,4.0,0.0
3900,83.0,0.0,210.0,2.0,0.0
3901,44.0,0.0,210.0,10.0,0.0
3902,71.0,0.0,210.0,8.0,0.0
3903,56.0,12.0,210.0,10.0,0.0
3904,63.0,0.0,120.0,3.0,0.0
3905,66.0,0.0,120.0,3.0,0.0
3906,66.0,120.0,120.0,5.0,0.0
3907,66.0,0.0,120.0,1.0,0.0
3908,75.0,0.0,120.0,4.0,0.0
3909,83.0,12.0,210.0,7.0,0.0
3910,64.0,0.0,120.0,3.0,0.0
3911,64.0,0.0,120.0,1.0,0.0
3912,61.0,0.0,210.0,10.0,0.0
3913,68.0,0.0,120.0,4.0,0.0
3914,49.0,0.0,210.0,10.0,0.0
3915,68.0,0.0,210.0,8.0,0.0
3916,64.0,0.0,120.0,5.0,0.0
3917,83.0,0.0,210.0,2.0,0.0
3918,80.0,120.0,120.0,0.0,0.0
3919,71.0,0.0,120.0,4.0,0.0
3920,68.0,0.0,120.0,5.0,0.0
3921,68.0,0.0,120.0,3.0,0.0
3922,68.0,0.0,120.0,1.0,0.0
3923,80.0,0.0,120.0,6.0,0.0
3924,76.0,0.0,120.0,6.0,0.0
3925,47.0,12.0,210.0,10.0,0.0
3926,76.0,108.0,120.0,0.0,0.0
3927,76.0,0.0,360.0,4.0,0.0
3928,59.0,0.0,210.0,10.0,0.0
3929,61.0,0.0,120.0,5.0,0.0
3930,82.0,0.0,120.0,2.0,0.0
3931,61.0,0.0,120.0,3.0,0.0
3932,73.0,24.0,420.0,8.0,0.0
3933,61.0,0.0,120.0,1.0,0.0
3934,82.0,0.0,120.0,7.0,0.0
3935,80.0,0.0,120.0,2.0,0.0
3936,80.0,0.0,120.0,7.0,0.0
3937,80.0,0.0,120.0,0.0,0.0
3938,80.0,0.0,120.0,6.0,0.0
3939,64.0,0.0,120.0,5.0,0.0
3940,64.0,120.0,120.0,3.0,0.0
3941,64.0,0.0,120.0,1.0,0.0
3942,82.0,0.0,210.0,2.0,0.0
3943,66.0,84.0,120.0,5.0,0.0
3944,85.0,0.0,600.0,6.0,0.0
3945,66.0,0.0,120.0,1.0,0.0
3946,46.0,0.0,210.0,10.0,0.0
3947,58.0,0.0,210.0,10.0,0.0
3948,85.0,0.0,600.0,0.0,0.0
3949,66.0,0.0,120.0,3.0,0.0
3950,82.0,12.0,210.0,7.0,0.0
3951,73.0,0.0,120.0,4.0,0.0
3952,70.0,0.0,120.0,3.0,0.0
3953,70.0,120.0,120.0,5.0,0.0
3954,70.0,0.0,120.0,1.0,0.0
3955,70.0,108.0,120.0,4.0,0.0
3956,42.0,0.0,210.0,10.0,0.0
3957,82.0,0.0,210.0,7.0,0.0
3958,61.0,0.0,120.0,3.0,0.0
3959,70.0,0.0,210.0,8.0,0.0
3960,61.0,0.0,120.0,1.0,0.0
3961,54.0,0.0,210.0,10.0,0.0
3962,82.0,12.0,210.0,2.0,0.0
3963,61.0,0.0,120.0,5.0,0.0
3964,64.0,0.0,120.0,3.0,0.0
3965,64.0,120.0,120.0,5.0,0.0
3966,64.0,0.0,120.0,1.0,0.0
3967,73.0,0.0,120.0,4.0,0.0
3968,66.0,0.0,120.0,4.0,0.0
3969,66.0,12.0,210.0,8.0,0.0
3970,82.0,0.0,210.0,7.0,0.0
3971,63.0,0.0,120.0,5.0,0.0
3972,63.0,108.0,120.0,3.0,0.0
3973,63.0,0.0,120.0,1.0,0.0
3974,82.0,0.0,210.0,2.0,0.0
3975,66.0,0.0,120.0,5.0,0.0
3976,70.0,120.0,120.0,4.0,0.0
3977,66.0,0.0,120.0,1.0,0.0
3978,66.0,0.0,120.0,3.0,0.0
3979,78.0,0.0,120.0,6.0,0.0
3980,78.0,0.0,120.0,0.0,0.0
3981,59.0,0.0,120.0,5.0,0.0
3982,75.0,0.0,360.0,4.0,0.0
3983,47.0,0.0,120.0,10.0,0.0
3984,59.0,0.0,120.0,1.0,0.0
3985,71.0,24.0,420.0,8.0,0.0
3986,59.0,0.0,120.0,10.0,0.0
3987,80.0,0.0,120.0,2.0,0.0
3988,80.0,0.0,120.0,7.0,0.0
3989,75.0,0.0,120.0,6.0,0.0
3990,59.0,120.0,120.0,3.0,0.0
3991,75.0,0.0,120.0,0.0,0.0
3992,46.0,0.0,120.0,10.0,0.0
3993,79.0,0.0,120.0,7.0,0.0
3994,63.0,0.0,120.0,5.0,0.0
3995,58.0,0.0,120.0,10.0,0.0
3996,78.0,0.0,120.0,0.0,0.0
3997,63.0,0.0,120.0,3.0,0.0
3998,63.0,120.0,120.0,1.0,0.0
3999,78.0,0.0,120.0,6.0,0.0
4000,79.0,0.0,120.0,2.0,0.0
4001,64.0,84.0,120.0,1.0,0.0
4002,56.0,0.0,210.0,10.0,0.0
4003,83.0,0.0,600.0,6.0,0.0
4004,64.0,0.0,120.0,5.0,0.0
4005,80.0,0.0,210.0,7.0,0.0
4006,64.0,0.0,120.0,3.0,0.0
4007,80.0,12.0,210.0,2.0,0.0
4008,83.0,0.0,600.0,0.0,0.0
4009,44.0,0.0,210.0,10.0,0.0
4010,71.0,0.0,120.0,4.0,0.0
4011,68.0,120.0,120.0,5.0,0.0
4012,68.0,0.0,120.0,3.0,0.0
4013,68.0,0.0,120.0,1.0,0.0
4014,52.0,0.0,210.0,10.0,0.0
4015,59.0,108.0,120.0,3.0,0.0
4016,80.0,0.0,210.0,7.0,0.0
4017,59.0,0.0,120.0,5.0,0.0
4018,80.0,0.0,210.0,2.0,0.0
4019,68.0,12.0,210.0,8.0,0.0
4020,40.0,0.0,210.0,10.0,0.0
4021,68.0,0.0,120.0,4.0,0.0
4022,59.0,0.0,120.0,1.0,0.0
4023,63.0,120.0,120.0,5.0,0.0
4024,63.0,0.0,120.0,1.0,0.0
4025,63.0,0.0,120.0,3.0,0.0
4026,71.0,0.0,120.0,4.0,0.0
4027,61.0,0.0,120.0,5.0,0.0
4028,61.0,0.0,120.0,1.0,0.0
4029,80.0,12.0,210.0,7.0,0.0
4030,46.0,0.0,210.0,10.0,0.0
4031,80.0,0.0,210.0,2.0,0.0
4032,61.0,0.0,120.0,3.0,0.0
4033,58.0,0.0,210.0,10.0,0.0
4034,64.0,108.0,120.0,4.0,0.0
4035,64.0,0.0,210.0,8.0,0.0
4036,64.0,0.0,120.0,3.0,0.0
4037,76.0,0.0,120.0,0.0,0.0
4038,68.0,120.0,120.0,4.0,0.0
4039,76.0,0.0,120.0,6.0,0.0
4040,64.0,0.0,120.0,1.0,0.0
4041,64.0,0.0,120.0,5.0,0.0
4042,56.0,0.0,210.0,10.0,0.0
4043,73.0,0.0,360.0,4.0,0.0
4044,73.0,0.0,120.0,6.0,0.0
4045,78.0,0.0,120.0,7.0,0.0
4046,44.0,12.0,210.0,10.0,0.0
4047,58.0,0.0,120.0,3.0,0.0
4048,58.0,0.0,120.0,5.0,0.0
4049,73.0,0.0,120.0,0.0,0.0
4050,70.0,36.0,420.0,8.0,0.0
4051,78.0,108.0,120.0,2.0,0.0
4052,58.0,0.0,120.0,1.0,0.0
4053,76.0,0.0,120.0,6.0,0.0
4054,61.0,0.0,120.0,5.0,0.0
4055,61.0,0.0,120.0,1.0,0.0
4056,77.0,0.0,120.0,7.0,0.0
4057,76.0,120.0,120.0,0.0,0.0
4058,61.0,0.0,120.0,3.0,0.0
4059,77.0,0.0,120.0,2.0,0.0
4060,54.0,12.0,690.0,10.0,0.0
4061,78.0,0.0,120.0,7.0,0.0
4062,63.0,0.0,120.0,3.0,0.0
4063,63.0,0.0,120.0,1.0,0.0
4064,63.0,84.0,120.0,5.0,0.0
4065,78.0,0.0,120.0,2.0,0.0
4066,82.0,0.0,120.0,6.0,0.0
4067,82.0,0.0,120.0,0.0,0.0
4068,42.0,0.0,690.0,10.0,0.0
4069,66.0,0.0,120.0,1.0,0.0
4070,66.0,0.0,120.0,5.0,0.0
4071,66.0,0.0,120.0,3.0,0.0
4072,82.0,120.0,120.0,2.0,0.0
4073,78.0,0.0,120.0,6.0,0.0
4074,82.0,0.0,120.0,7.0,0.0
4075,70.0,0.0,120.0,4.0,0.0
4076,78.0,0.0,120.0,0.0,0.0
4077,75.0,108.0,120.0,6.0,0.0
4078,66.0,12.0,210.0,8.0,0.0
4079,58.0,0.0,120.0,3.0,0.0
4080,58.0,0.0,120.0,5.0,0.0
4081,58.0,0.0,120.0,1.0,0.0
4082,66.0,0.0,120.0,4.0,0.0
4083,75.0,0.0,120.0,0.0,0.0
4084,87.0,0.0,360.0,7.0,0.0
4085,87.0,0.0,360.0,2.0,0.0
4086,61.0,120.0,120.0,1.0,0.0
4087,70.0,0.0,120.0,4.0,0.0
4088,78.0,0.0,120.0,6.0,0.0
4089,61.0,0.0,120.0,5.0,0.0
4090,78.0,0.0,120.0,0.0,0.0
4091,61.0,0.0,120.0,3.0,0.0
4092,60.0,108.0,120.0,1.0,0.0
4093,80.0,0.0,210.0,0.0,0.0
4094,60.0,0.0,120.0,5.0,0.0
4095,60.0,0.0,120.0,3.0,0.0
4096,63.0,0.0,120.0,4.0,0.0
4097,63.0,0.0,210.0,8.0,0.0
4098,80.0,0.0,210.0,6.0,0.0
4099,63.0,0.0,120.0,5.0,0.0
4100,63.0,0.0,120.0,1.0,0.0
4101,63.0,0.0,120.0,3.0,0.0
4102,84.0,0.0,120.0,2.0,0.0
4103,68.0,0.0,120.0,4.0,0.0
4104,84.0,120.0,120.0,7.0,0.0
4105,72.0,0.0,120.0,4.0,0.0
4106,80.0,0.0,120.0,2.0,0.0
4107,68.0,12.0,210.0,6.0,0.0
4108,56.0,0.0,120.0,3.0,0.0
4109,72.0,0.0,210.0,8.0,0.0
4110,56.0,0.0,120.0,1.0,0.0
4111,56.0,0.0,120.0,5.0,0.0
4112,56.0,108.0,120.0,10.0,0.0
4113,68.0,0.0,210.0,0.0,0.0
4114,80.0,0.0,120.0,7.0,0.0
4115,44.0,0.0,120.0,10.0,0.0
4116,75.0,0.0,120.0,7.0,0.0
4117,60.0,120.0,120.0,1.0,0.0
4118,60.0,0.0,120.0,5.0,0.0
4119,75.0,0.0,120.0,2.0,0.0
4120,60.0,0.0,120.0,3.0,0.0
4121,54.0,0.0,120.0,10.0,0.0
4122,75.0,0.0,120.0,4.0,0.0
4123,42.0,0.0,120.0,10.0,0.0
4124,80.0,0.0,600.0,0.0,0.0
4125,61.0,0.0,120.0,3.0,0.0
4126,68.0,0.0,210.0,8.0,0.0
4127,68.0,0.0,120.0,4.0,0.0
4128,61.0,0.0,120.0,1.0,0.0
4129,76.0,0.0,120.0,7.0,0.0
4130,80.0,0.0,600.0,6.0,0.0
4131,76.0,0.0,120.0,2.0,0.0
4132,52.0,0.0,210.0,10.0,0.0
4133,61.0,108.0,120.0,5.0,0.0
4134,40.0,12.0,210.0,10.0,0.0
4135,80.0,120.0,120.0,7.0,0.0
4136,80.0,0.0,120.0,2.0,0.0
4137,64.0,0.0,120.0,5.0,0.0
4138,64.0,0.0,120.0,3.0,0.0
4139,73.0,0.0,120.0,4.0,0.0
4140,64.0,0.0,120.0,1.0,0.0
4141,56.0,0.0,120.0,3.0,0.0
4142,76.0,0.0,120.0,4.0,0.0
4143,52.0,12.0,210.0,10.0,0.0
4144,40.0,0.0,210.0,10.0,0.0
4145,73.0,0.0,120.0,2.0,0.0
4146,64.0,0.0,210.0,8.0,0.0
4147,56.0,0.0,120.0,1.0,0.0
4148,56.0,0.0,120.0,5.0,0.0
4149,73.0,108.0,120.0,7.0,0.0
4150,76.0,0.0,120.0,7.0,0.0
4151,61.0,120.0,120.0,5.0,0.0
4152,80.0,0.0,120.0,4.0,0.0
4153,61.0,0.0,120.0,1.0,0.0
4154,61.0,0.0,120.0,3.0,0.0
4155,76.0,0.0,120.0,2.0,0.0
4156,60.0,108.0,120.0,5.0,0.0
4157,75.0,0.0,120.0,2.0,0.0
4158,48.0,12.0,210.0,10.0,0.0
4159,60.0,0.0,120.0,3.0,0.0
4160,68.0,0.0,120.0,4.0,0.0
4161,36.0,0.0,210.0,10.0,0.0
4162,60.0,0.0,120.0,1.0,0.0
4163,66.0,0.0,210.0,8.0,0.0
4164,75.0,0.0,120.0,7.0,0.0
4165,78.0,0.0,120.0,7.0,0.0
4166,81.0,0.0,120.0,6.0,0.0
4167,63.0,0.0,120.0,5.0,0.0
4168,78.0,0.0,120.0,2.0,0.0
4169,72.0,0.0,120.0,4.0,0.0
4170,81.0,120.0,120.0,0.0,0.0
4171,63.0,0.0,120.0,1.0,0.0
4172,63.0,0.0,120.0,3.0,0.0
4173,75.0,0.0,210.0,8.0,0.0
4174,56.0,0.0,120.0,3.0,0.0
4175,48.0,0.0,210.0,10.0,0.0
4176,72.0,0.0,120.0,7.0,0.0
4177,36.0,12.0,210.0,10.0,0.0
4178,75.0,108.0,120.0,4.0,0.0
4179,80.0,0.0,120.0,6.0,0.0
4180,80.0,0.0,120.0,0.0,0.0
4181,56.0,0.0,120.0,1.0,0.0
4182,72.0,0.0,120.0,2.0,0.0
4183,56.0,0.0,120.0,5.0,0.0
4184,72.0,0.0,120.0,4.0,0.0
4185,81.0,120.0,120.0,0.0,0.0
4186,75.0,0.0,120.0,7.0,0.0
4187,60.0,0.0,120.0,5.0,0.0
4188,81.0,0.0,120.0,6.0,0.0
4189,75.0,0.0,120.0,2.0,0.0
4190,60.0,0.0,120.0,3.0,0.0
4191,60.0,0.0,120.0,1.0,0.0
4192,61.0,0.0,120.0,3.0,0.0
4193,49.0,0.0,210.0,10.0,0.0
4194,76.0,0.0,120.0,7.0,0.0
4195,76.0,108.0,120.0,2.0,0.0
4196,61.0,0.0,120.0,1.0,0.0
4197,61.0,0.0,120.0,5.0,0.0
4198,37.0,0.0,210.0,10.0,0.0
4199,73.0,12.0,210.0,8.0,0.0
4200,80.0,0.0,690.0,0.0,0.0
4201,80.0,0.0,690.0,6.0,0.0
4202,68.0,0.0,120.0,4.0,0.0
4203,64.0,120.0,120.0,1.0,0.0
4204,80.0,0.0,120.0,2.0,0.0
4205,64.0,0.0,120.0,5.0,0.0
4206,73.0,0.0,120.0,4.0,0.0
4207,64.0,0.0,120.0,3.0,0.0
4208,80.0,0.0,120.0,7.0,0.0
4209,64.0,0.0,210.0,8.0,0.0
4210,73.0,108.0,120.0,7.0,0.0
4211,56.0,0.0,120.0,1.0,0.0
4212,76.0,0.0,120.0,4.0,0.0
4213,37.0,0.0,210.0,10.0,0.0
4214,73.0,0.0,120.0,2.0,0.0
4215,56.0,0.0,120.0,3.0,0.0
4216,56.0,0.0,120.0,5.0,0.0
4217,49.0,12.0,210.0,10.0,0.0
4218,61.0,228.0,120.0,1.0,0.0
4219,61.0,0.0,120.0,3.0,0.0
4220,76.0,0.0,120.0,2.0,0.0
4221,61.0,0.0,120.0,5.0,0.0
4222,76.0,0.0,120.0,7.0,0.0
4223,80.0,0.0,120.0,4.0,0.0
4224,68.0,0.0,210.0,4.0,0.0
4225,68.0,0.0,210.0,8.0,0.0
4226,44.0,0.0,210.0,10.0,0.0
4227,60.0,0.0,210.0,1.0,0.0
4228,60.0,0.0,210.0,5.0,0.0
4229,75.0,96.0,210.0,7.0,0.0
4230,56.0,0.0,210.0,10.0,0.0
4231,75.0,0.0,210.0,2.0,0.0
4232,60.0,0.0,210.0,3.0,0.0
4233,44.0,0.0,420.0,10.0,0.0
4234,32.0,40.0,420.0,10.0,0.0
4235,75.0,80.0,60.0,4.0,0.0
4236,60.0,0.0,60.0,5.0,0.0
4237,73.0,0.0,60.0,4.0,0.0
4238,58.0,80.0,60.0,5.0,0.0
4239,75.0,0.0,60.0,4.0,0.0
4240,60.0,80.0,60.0,5.0,0.0
4241,76.0,0.0,60.0,4.0,0.0
4242,61.0,80.0,60.0,5.0,0.0
4243,75.0,0.0,60.0,4.0,0.0
4244,60.0,40.0,60.0,5.0,0.0
4245,76.0,80.0,60.0,4.0,0.0
4246,61.0,0.0,60.0,5.0,0.0
4247,78.0,80.0,60.0,4.0,0.0
4248,63.0,0.0,60.0,5.0,0.0
4249,42.0,16.0,210.0,10.0,0.0
4250,30.0,0.0,210.0,10.0,0.0
4251,61.0,0.0,60.0,5.0,0.0
4252,76.0,64.0,60.0,4.0,0.0
4253,63.0,0.0,60.0,5.0,0.0
4254,78.0,224.0,60.0,4.0,0.0
4255,80.0,80.0,540.0,4.0,0.0
4256,40.0,0.0,210.0,10.0,0.0
4257,28.0,96.0,210.0,10.0,0.0
4258,64.0,0.0,540.0,5.0,0.0
4259,73.0,0.0,210.0,8.0,0.0
4260,64.0,0.0,60.0,1.0,0.0
4261,40.0,0.0,210.0,10.0,0.0
4262,80.0,0.0,210.0,6.0,0.0
4263,80.0,0.0,60.0,0.0,0.0
4264,52.0,0.0,60.0,3.0,0.0
4265,80.0,24.0,420.0,7.0,0.0
4266,52.0,16.0,210.0,10.0,0.0
4267,80.0,80.0,60.0,2.0,0.0
4268,78.0,64.0,60.0,0.0,0.0
4269,78.0,0.0,60.0,2.0,0.0
4270,51.0,0.0,60.0,3.0,0.0
4271,63.0,0.0,60.0,1.0,0.0
4272,80.0,80.0,60.0,0.0,0.0
4273,52.0,0.0,60.0,3.0,0.0
4274,64.0,0.0,60.0,1.0,0.0
4275,80.0,0.0,60.0,2.0,0.0
4276,82.0,0.0,60.0,0.0,0.0
4277,82.0,0.0,210.0,6.0,0.0
4278,42.0,16.0,210.0,10.0,0.0
4279,82.0,0.0,60.0,2.0,0.0
4280,54.0,0.0,60.0,3.0,0.0
4281,61.0,0.0,210.0,8.0,0.0
4282,54.0,0.0,210.0,10.0,0.0
4283,66.0,0.0,60.0,1.0,0.0
4284,52.0,0.0,60.0,3.0,0.0
4285,66.0,40.0,60.0,5.0,0.0
4286,80.0,0.0,60.0,0.0,0.0
4287,64.0,0.0,60.0,1.0,0.0
4288,81.0,0.0,60.0,4.0,0.0
4289,80.0,0.0,60.0,2.0,0.0
4290,82.0,0.0,60.0,0.0,0.0
4291,66.0,0.0,60.0,1.0,0.0
4292,54.0,80.0,60.0,3.0,0.0
4293,64.0,0.0,60.0,5.0,0.0
4294,82.0,0.0,60.0,2.0,0.0
4295,80.0,0.0,60.0,4.0,0.0
4296,78.0,0.0,210.0,7.0,0.0
4297,84.0,0.0,60.0,2.0,0.0
4298,68.0,0.0,210.0,8.0,0.0
4299,68.0,80.0,60.0,1.0,0.0
4300,56.0,0.0,210.0,10.0,0.0
4301,84.0,0.0,60.0,0.0,0.0
4302,44.0,0.0,210.0,10.0,0.0
4303,56.0,0.0,60.0,3.0,0.0
4304,84.0,16.0,210.0,6.0,0.0
4305,63.0,0.0,60.0,5.0,0.0
4306,78.0,0.0,60.0,4.0,0.0
4307,64.0,0.0,60.0,5.0,0.0
4308,82.0,0.0,60.0,0.0,0.0
4309,66.0,64.0,60.0,1.0,0.0
4310,80.0,0.0,60.0,4.0,0.0
4311,82.0,0.0,60.0,2.0,0.0
4312,54.0,0.0,60.0,3.0,0.0
4313,84.0,0.0,60.0,2.0,0.0
4314,68.0,0.0,60.0,1.0,0.0
4315,56.0,0.0,60.0,3.0,0.0
4316,78.0,0.0,60.0,4.0,0.0
4317,63.0,0.0,60.0,5.0,0.0
4318,84.0,224.0,60.0,0.0,0.0
4319,85.0,0.0,210.0,2.0,0.0
4320,85.0,0.0,210.0,0.0,0.0
4321,76.0,0.0,210.0,4.0,0.0
4322,37.0,0.0,210.0,10.0,0.0
4323,61.0,0.0,210.0,1.0,0.0
4324,85.0,0.0,210.0,6.0,0.0
4325,76.0,0.0,210.0,7.0,0.0
4326,49.0,0.0,210.0,3.0,0.0
4327,49.0,96.0,210.0,10.0,0.0
4328,61.0,0.0,210.0,5.0,0.0
4329,68.0,0.0,210.0,8.0,0.0
4330,61.0,0.0,420.0,10.0,0.0
4331,49.0,40.0,420.0,10.0,0.0
4332,68.0,80.0,60.0,2.0,0.0
4333,52.0,0.0,60.0,3.0,0.0
4334,51.0,0.0,60.0,3.0,0.0
4335,66.0,80.0,60.0,2.0,0.0
4336,52.0,0.0,60.0,3.0,0.0
4337,68.0,80.0,60.0,2.0,0.0
4338,54.0,0.0,60.0,3.0,0.0
4339,69.0,80.0,60.0,2.0,0.0
4340,52.0,0.0,60.0,3.0,0.0
4341,68.0,40.0,60.0,2.0,0.0
4342,69.0,0.0,60.0,2.0,0.0
4343,54.0,80.0,60.0,3.0,0.0
4344,47.0,0.0,210.0,10.0,0.0
4345,59.0,16.0,210.0,10.0,0.0
4346,56.0,0.0,60.0,3.0,0.0
4347,71.0,80.0,60.0,2.0,0.0
4348,54.0,0.0,60.0,3.0,0.0
4349,69.0,64.0,60.0,2.0,0.0
4350,71.0,224.0,60.0,2.0,0.0
4351,56.0,0.0,60.0,3.0,0.0
4352,73.0,0.0,540.0,2.0,0.0
4353,57.0,0.0,540.0,3.0,0.0
4354,57.0,96.0,210.0,10.0,0.0
4355,45.0,0.0,210.0,10.0,0.0
4356,73.0,0.0,210.0,6.0,0.0
4357,45.0,0.0,210.0,10.0,0.0
4358,33.0,16.0,210.0,10.0,0.0
4359,73.0,0.0,60.0,0.0,0.0
4360,73.0,0.0,60.0,4.0,0.0
4361,45.0,0.0,60.0,5.0,0.0
4362,57.0,80.0,60.0,1.0,0.0
4363,73.0,24.0,420.0,7.0,0.0
4364,66.0,0.0,210.0,8.0,0.0
4365,71.0,0.0,60.0,4.0,0.0
4366,56.0,0.0,60.0,1.0,0.0
4367,44.0,64.0,60.0,5.0,0.0
4368,71.0,0.0,60.0,0.0,0.0
4369,57.0,0.0,60.0,1.0,0.0
4370,73.0,80.0,60.0,4.0,0.0
4371,45.0,0.0,60.0,5.0,0.0
4372,73.0,0.0,60.0,0.0,0.0
4373,54.0,0.0,210.0,8.0,0.0
4374,35.0,0.0,210.0,10.0,0.0
4375,75.0,80.0,60.0,4.0,0.0
4376,75.0,0.0,210.0,6.0,0.0
4377,47.0,16.0,210.0,10.0,0.0
4378,75.0,0.0,60.0,0.0,0.0
4379,59.0,0.0,60.0,1.0,0.0
4380,47.0,0.0,60.0,5.0,0.0
4381,59.0,0.0,60.0,3.0,0.0
4382,45.0,0.0,60.0,5.0,0.0
4383,73.0,0.0,60.0,0.0,0.0
4384,74.0,0.0,60.0,2.0,0.0
4385,57.0,0.0,60.0,1.0,0.0
4386,73.0,40.0,60.0,4.0,0.0
4387,75.0,80.0,60.0,4.0,0.0
4388,75.0,0.0,60.0,0.0,0.0
4389,57.0,0.0,60.0,3.0,0.0
4390,47.0,0.0,60.0,5.0,0.0
4391,59.0,0.0,60.0,1.0,0.0
4392,73.0,0.0,60.0,2.0,0.0
4393,77.0,0.0,210.0,6.0,0.0
4394,37.0,0.0,210.0,10.0,0.0
4395,77.0,0.0,60.0,4.0,0.0
4396,49.0,80.0,60.0,5.0,0.0
4397,49.0,0.0,210.0,10.0,0.0
4398,61.0,0.0,60.0,1.0,0.0
4399,77.0,0.0,60.0,0.0,0.0
4400,61.0,0.0,210.0,8.0,0.0
4401,71.0,0.0,60.0,2.0,0.0
4402,71.0,16.0,210.0,7.0,0.0
4403,56.0,0.0,60.0,3.0,0.0
4404,59.0,0.0,60.0,1.0,0.0
4405,57.0,0.0,60.0,3.0,0.0
4406,47.0,0.0,60.0,5.0,0.0
4407,73.0,64.0,60.0,2.0,0.0
4408,75.0,0.0,60.0,4.0,0.0
4409,75.0,0.0,60.0,0.0,0.0
4410,61.0,0.0,60.0,1.0,0.0
4411,56.0,0.0,60.0,3.0,0.0
4412,77.0,0.0,60.0,4.0,0.0
4413,77.0,224.0,60.0,0.0,0.0
4414,71.0,0.0,60.0,2.0,0.0
4415,49.0,0.0,60.0,5.0,0.0
4416,30.0,0.0,210.0,10.0,0.0
4417,78.0,0.0,210.0,6.0,0.0
4418,78.0,0.0,210.0,0.0,0.0
4419,70.0,0.0,210.0,7.0,0.0
4420,61.0,0.0,210.0,8.0,0.0
4421,54.0,0.0,210.0,1.0,0.0
4422,70.0,0.0,210.0,2.0,0.0
4423,42.0,0.0,210.0,10.0,0.0
4424,42.0,0.0,210.0,5.0,0.0
4425,54.0,96.0,210.0,3.0,0.0
4426,78.0,0.0,210.0,4.0,0.0
4427,54.0,40.0,420.0,10.0,0.0
4428,66.0,0.0,420.0,10.0,0.0
4429,61.0,0.0,60.0,3.0,0.0
4430,70.0,80.0,60.0,4.0,0.0
4431,66.0,0.0,60.0,5.0,0.0
4432,68.0,0.0,60.0,4.0,0.0
4433,64.0,0.0,60.0,5.0,0.0
4434,59.0,80.0,60.0,3.0,0.0
4435,66.0,0.0,60.0,5.0,0.0
4436,70.0,0.0,60.0,4.0,0.0
4437,61.0,80.0,60.0,3.0,0.0
4438,71.0,0.0,60.0,4.0,0.0
4439,68.0,0.0,60.0,5.0,0.0
4440,63.0,80.0,60.0,3.0,0.0
4441,70.0,0.0,60.0,4.0,0.0
4442,61.0,0.0,60.0,3.0,0.0
4443,66.0,40.0,60.0,5.0,0.0
4444,68.0,80.0,60.0,5.0,0.0
4445,63.0,0.0,60.0,3.0,0.0
4446,71.0,0.0,60.0,4.0,0.0
4447,64.0,0.0,210.0,10.0,0.0
4448,73.0,0.0,60.0,4.0,0.0
4449,70.0,0.0,60.0,5.0,0.0
4450,64.0,80.0,60.0,3.0,0.0
4451,52.0,16.0,210.0,10.0,0.0
4452,68.0,0.0,60.0,5.0,0.0
4453,63.0,0.0,60.0,3.0,0.0
4454,71.0,64.0,60.0,4.0,0.0
4455,70.0,224.0,60.0,5.0,0.0
4456,64.0,0.0,60.0,3.0,0.0
4457,73.0,0.0,60.0,4.0,0.0
4458,63.0,0.0,210.0,10.0,0.0
4459,75.0,80.0,540.0,4.0,0.0
4460,51.0,0.0,210.0,10.0,0.0
4461,66.0,0.0,540.0,3.0,0.0
4462,71.0,96.0,210.0,5.0,0.0
4463,78.0,0.0,60.0,0.0,0.0
4464,78.0,0.0,60.0,2.0,0.0
4465,75.0,24.0,420.0,7.0,0.0
4466,63.0,80.0,60.0,1.0,0.0
4467,39.0,16.0,210.0,10.0,0.0
4468,78.0,0.0,210.0,6.0,0.0
4469,51.0,0.0,210.0,10.0,0.0
4470,71.0,0.0,210.0,8.0,0.0
4471,51.0,0.0,60.0,5.0,0.0
4472,49.0,64.0,60.0,5.0,0.0
4473,76.0,0.0,60.0,2.0,0.0
4474,76.0,0.0,60.0,0.0,0.0
4475,61.0,0.0,60.0,1.0,0.0
4476,78.0,0.0,60.0,2.0,0.0
4477,51.0,80.0,60.0,5.0,0.0
4478,63.0,0.0,60.0,1.0,0.0
4479,78.0,0.0,60.0,0.0,0.0
4480,52.0,0.0,210.0,10.0,0.0
4481,80.0,0.0,60.0,2.0,0.0
4482,80.0,16.0,210.0,6.0,0.0
4483,64.0,0.0,60.0,1.0,0.0
4484,59.0,0.0,210.0,8.0,0.0
4485,80.0,0.0,60.0,0.0,0.0
4486,40.0,0.0,210.0,10.0,0.0
4487,52.0,0.0,60.0,5.0,0.0
4488,68.0,0.0,60.0,3.0,0.0
4489,63.0,0.0,60.0,1.0,0.0
4490,78.0,0.0,60.0,0.0,0.0
4491,51.0,0.0,60.0,5.0,0.0
4492,78.0,40.0,60.0,2.0,0.0
4493,76.0,0.0,60.0,4.0,0.0
4494,80.0,0.0,60.0,2.0,0.0
4495,66.0,80.0,60.0,3.0,0.0
4496,75.0,0.0,60.0,4.0,0.0
4497,52.0,0.0,60.0,5.0,0.0
4498,64.0,0.0,60.0,1.0,0.0
4499,80.0,0.0,60.0,0.0,0.0
4500,66.0,80.0,60.0,1.0,0.0
4501,42.0,0.0,210.0,10.0,0.0
4502,82.0,0.0,60.0,0.0,0.0
4503,82.0,0.0,60.0,2.0,0.0
4504,54.0,0.0,60.0,5.0,0.0
4505,66.0,16.0,210.0,8.0,0.0
4506,73.0,0.0,60.0,4.0,0.0
4507,64.0,0.0,60.0,3.0,0.0
4508,54.0,0.0,210.0,10.0,0.0
4509,82.0,0.0,210.0,6.0,0.0
4510,73.0,0.0,210.0,7.0,0.0
4511,66.0,0.0,60.0,3.0,0.0
4512,52.0,64.0,60.0,5.0,0.0
4513,75.0,0.0,60.0,4.0,0.0
4514,80.0,0.0,60.0,2.0,0.0
4515,80.0,0.0,60.0,0.0,0.0
4516,64.0,0.0,60.0,1.0,0.0
4517,66.0,0.0,60.0,1.0,0.0
4518,54.0,0.0,60.0,5.0,0.0
4519,73.0,0.0,60.0,4.0,0.0
4520,82.0,0.0,60.0,0.0,0.0
4521,64.0,224.0,60.0,3.0,0.0
4522,82.0,0.0,60.0,2.0,0.0
4523,35.0,0.0,210.0,10.0,0.0
4524,47.0,0.0,210.0,5.0,0.0
4525,63.0,0.0,210.0,3.0,0.0
4526,83.0,0.0,210.0,0.0,0.0
4527,71.0,0.0,210.0,4.0,0.0
4528,83.0,0.0,210.0,2.0,0.0
4529,66.0,0.0,210.0,8.0,0.0
4530,59.0,0.0,210.0,1.0,0.0
4531,71.0,96.0,210.0,7.0,0.0
4532,83.0,0.0,210.0,6.0,0.0
4533,47.0,0.0,210.0,10.0,0.0
4534,71.0,0.0,60.0,3.0,0.0
4535,75.0,80.0,60.0,2.0,0.0
4536,59.0,0.0,420.0,10.0,0.0
4537,66.0,0.0,60.0,1.0,0.0
4538,47.0,40.0,420.0,10.0,0.0
4539,64.0,0.0,60.0,1.0,0.0
4540,73.0,0.0,60.0,2.0,0.0
4541,69.0,80.0,60.0,3.0,0.0
4542,75.0,0.0,60.0,2.0,0.0
4543,71.0,0.0,60.0,3.0,0.0
4544,66.0,80.0,60.0,1.0,0.0
4545,73.0,0.0,60.0,3.0,0.0
4546,68.0,80.0,60.0,1.0,0.0
4547,76.0,0.0,60.0,2.0,0.0
4548,71.0,0.0,60.0,3.0,0.0
4549,75.0,40.0,60.0,2.0,0.0
4550,66.0,0.0,60.0,1.0,0.0
4551,76.0,0.0,60.0,2.0,0.0
4552,68.0,80.0,60.0,1.0,0.0
4553,73.0,0.0,60.0,3.0,0.0
4554,75.0,0.0,60.0,3.0,0.0
4555,69.0,80.0,60.0,1.0,0.0
4556,78.0,0.0,60.0,2.0,0.0
4557,45.0,16.0,210.0,10.0,0.0
4558,57.0,0.0,210.0,10.0,0.0
4559,76.0,0.0,60.0,2.0,0.0
4560,73.0,64.0,60.0,3.0,0.0
4561,68.0,0.0,60.0,1.0,0.0
4562,69.0,0.0,60.0,1.0,0.0
4563,75.0,224.0,60.0,3.0,0.0
4564,78.0,0.0,60.0,2.0,0.0
4565,56.0,0.0,210.0,10.0,0.0
4566,76.0,0.0,210.0,3.0,0.0
4567,80.0,0.0,540.0,2.0,0.0
4568,71.0,0.0,540.0,1.0,0.0
4569,44.0,96.0,210.0,10.0,0.0
4570,44.0,16.0,210.0,10.0,0.0
4571,56.0,80.0,60.0,3.0,0.0
4572,83.0,0.0,60.0,4.0,0.0
4573,83.0,0.0,210.0,6.0,0.0
4574,76.0,0.0,210.0,8.0,0.0
4575,80.0,24.0,420.0,7.0,0.0
4576,44.0,0.0,60.0,5.0,0.0
4577,83.0,0.0,60.0,0.0,0.0
4578,32.0,0.0,210.0,10.0,0.0
4579,81.0,0.0,60.0,4.0,0.0
4580,42.0,0.0,60.0,5.0,0.0
4581,54.0,0.0,60.0,3.0,0.0
4582,81.0,64.0,60.0,0.0,0.0
4583,44.0,0.0,60.0,5.0,0.0
4584,83.0,0.0,60.0,4.0,0.0
4585,83.0,0.0,60.0,0.0,0.0
4586,56.0,80.0,60.0,3.0,0.0
4587,45.0,0.0,60.0,5.0,0.0
4588,85.0,0.0,210.0,6.0,0.0
4589,85.0,0.0,60.0,4.0,0.0
4590,57.0,80.0,60.0,3.0,0.0
4591,85.0,0.0,60.0,0.0,0.0
4592,45.0,0.0,210.0,10.0,0.0
4593,64.0,16.0,210.0,8.0,0.0
4594,33.0,0.0,210.0,10.0,0.0
4595,44.0,0.0,60.0,5.0,0.0
4596,81.0,0.0,60.0,2.0,0.0
4597,56.0,0.0,60.0,3.0,0.0
4598,83.0,0.0,60.0,0.0,0.0
4599,83.0,0.0,60.0,4.0,0.0
4600,73.0,40.0,60.0,1.0,0.0
4601,45.0,80.0,60.0,5.0,0.0
4602,80.0,0.0,60.0,2.0,0.0
4603,85.0,0.0,60.0,0.0,0.0
4604,57.0,0.0,60.0,3.0,0.0
4605,85.0,0.0,60.0,4.0,0.0
4606,71.0,0.0,60.0,1.0,0.0
4607,87.0,80.0,60.0,0.0,0.0
4608,78.0,0.0,60.0,2.0,0.0
4609,69.0,0.0,60.0,1.0,0.0
4610,71.0,0.0,210.0,8.0,0.0
4611,78.0,16.0,210.0,7.0,0.0
4612,59.0,0.0,60.0,3.0,0.0
4613,87.0,0.0,210.0,6.0,0.0
4614,47.0,0.0,210.0,10.0,0.0
4615,35.0,0.0,210.0,10.0,0.0
4616,47.0,0.0,60.0,5.0,0.0
4617,87.0,0.0,60.0,4.0,0.0
4618,80.0,64.0,60.0,2.0,0.0
4619,71.0,0.0,60.0,1.0,0.0
4620,57.0,0.0,60.0,3.0,0.0
4621,85.0,0.0,60.0,0.0,0.0
4622,85.0,0.0,60.0,4.0,0.0
4623,45.0,0.0,60.0,5.0,0.0
4624,47.0,0.0,60.0,5.0,0.0
4625,87.0,80.0,60.0,4.0,0.0
4626,59.0,0.0,60.0,3.0,0.0
4627,78.0,0.0,60.0,2.0,0.0
4628,87.0,0.0,60.0,0.0,0.0
4629,69.0,0.0,60.0,1.0,0.0
4630,88.0,16.0,210.0,6.0,0.0
4631,40.0,0.0,150.0,5.0,0.0
4632,71.0,0.0,210.0,8.0,0.0
4633,88.0,0.0,210.0,4.0,0.0
4634,68.0,0.0,300.0,1.0,0.0
4635,76.0,80.0,60.0,2.0,0.0
4636,88.0,0.0,60.0,0.0,0.0
4637,76.0,54.0,150.0,7.0,0.0
4638,52.0,0.0,210.0,3.0,0.0
4639,28.0,0.0,210.0,10.0,0.0
4640,40.0,0.0,210.0,10.0,0.0
4641,80.0,10.0,60.0,2.0,0.0
4642,87.0,0.0,60.0,0.0,0.0
4643,88.0,2.0,60.0,0.0,0.0
4644,78.0,0.0,60.0,2.0,0.0
4645,59.0,78.0,60.0,5.0,0.0
4646,78.0,0.0,60.0,7.0,0.0
4647,52.0,16.0,210.0,10.0,0.0
4648,80.0,0.0,210.0,7.0,0.0
4649,64.0,54.0,390.0,5.0,0.0
4650,83.0,80.0,60.0,0.0,0.0
4651,40.0,0.0,210.0,10.0,0.0
4652,80.0,0.0,390.0,2.0,0.0
4653,85.0,0.0,60.0,0.0,0.0
4654,69.0,64.0,60.0,1.0,0.0
4655,71.0,0.0,60.0,1.0,0.0
4656,86.0,2.0,60.0,0.0,0.0
4657,83.0,78.0,60.0,4.0,0.0
4658,68.0,0.0,60.0,8.0,0.0
4659,83.0,0.0,60.0,6.0,0.0
4660,68.0,0.0,60.0,3.0,0.0
4661,45.0,16.0,210.0,10.0,0.0
4662,64.0,0.0,210.0,8.0,0.0
4663,57.0,0.0,210.0,10.0,0.0
4664,85.0,0.0,60.0,0.0,0.0
4665,85.0,0.0,210.0,6.0,0.0
4666,69.0,54.0,390.0,3.0,0.0
4667,85.0,0.0,390.0,4.0,0.0
4668,69.0,80.0,60.0,1.0,0.0
4669,83.0,10.0,60.0,0.0,0.0
4670,68.0,0.0,60.0,1.0,0.0
4671,85.0,2.0,60.0,0.0,0.0
4672,69.0,0.0,60.0,1.0,0.0
4673,76.0,0.0,60.0,2.0,0.0
4674,76.0,0.0,60.0,7.0,0.0
4675,61.0,78.0,60.0,5.0,0.0
4676,78.0,0.0,210.0,7.0,0.0
4677,39.0,16.0,210.0,10.0,0.0
4678,81.0,0.0,60.0,0.0,0.0
4679,66.0,80.0,60.0,1.0,0.0
4680,51.0,0.0,210.0,10.0,0.0
4681,63.0,0.0,390.0,5.0,0.0
4682,78.0,54.0,390.0,2.0,0.0
4683,83.0,10.0,60.0,0.0,0.0
4684,68.0,0.0,60.0,1.0,0.0
4685,69.0,0.0,60.0,1.0,0.0
4686,85.0,2.0,60.0,0.0,0.0
4687,81.0,0.0,60.0,4.0,0.0
4688,66.0,0.0,60.0,8.0,0.0
4689,81.0,78.0,60.0,6.0,0.0
4690,66.0,0.0,60.0,3.0,0.0
4691,83.0,0.0,60.0,0.0,0.0
4692,68.0,80.0,60.0,1.0,0.0
4693,63.0,0.0,210.0,8.0,0.0
4694,44.0,0.0,210.0,10.0,0.0
4695,68.0,0.0,390.0,3.0,0.0
4696,56.0,0.0,210.0,10.0,0.0
4697,83.0,54.0,390.0,4.0,0.0
4698,83.0,16.0,210.0,6.0,0.0
4699,81.0,0.0,60.0,0.0,0.0
4700,66.0,10.0,60.0,1.0,0.0
4701,83.0,2.0,60.0,0.0,0.0
4702,68.0,0.0,60.0,1.0,0.0
4703,59.0,78.0,60.0,5.0,0.0
4704,75.0,0.0,60.0,2.0,0.0
4705,75.0,0.0,60.0,7.0,0.0
4706,61.0,54.0,390.0,5.0,0.0
4707,37.0,16.0,210.0,10.0,0.0
4708,76.0,0.0,210.0,7.0,0.0
4709,64.0,80.0,60.0,1.0,0.0
4710,76.0,0.0,390.0,2.0,0.0
4711,80.0,0.0,60.0,0.0,0.0
4712,49.0,0.0,210.0,10.0,0.0
4713,81.0,0.0,60.0,0.0,0.0
4714,66.0,10.0,60.0,1.0,0.0
4715,68.0,0.0,60.0,1.0,0.0
4716,83.0,2.0,60.0,0.0,0.0
4717,64.0,0.0,60.0,3.0,0.0
4718,80.0,78.0,60.0,6.0,0.0
4719,80.0,0.0,60.0,4.0,0.0
4720,64.0,0.0,60.0,8.0,0.0
4721,81.0,0.0,60.0,0.0,0.0
4722,54.0,0.0,210.0,10.0,0.0
4723,81.0,0.0,210.0,6.0,0.0
4724,66.0,54.0,390.0,3.0,0.0
4725,81.0,0.0,390.0,4.0,0.0
4726,61.0,0.0,210.0,8.0,0.0
4727,66.0,80.0,60.0,1.0,0.0
4728,42.0,16.0,210.0,10.0,0.0
4729,80.0,0.0,60.0,0.0,0.0
4730,64.0,10.0,60.0,1.0,0.0
4731,81.0,0.0,60.0,0.0,0.0
4732,66.0,2.0,60.0,1.0,0.0
4733,73.0,0.0,60.0,7.0,0.0
4734,73.0,0.0,60.0,2.0,0.0
4735,57.0,78.0,60.0,5.0,0.0
4736,75.0,0.0,150.0,7.0,0.0
4737,47.0,16.0,210.0,10.0,0.0
4738,35.0,0.0,210.0,10.0,0.0
4739,59.0,0.0,390.0,5.0,0.0
4740,78.0,0.0,60.0,0.0,0.0
4741,75.0,0.0,210.0,2.0,0.0
4742,63.0,80.0,60.0,1.0,0.0
4743,80.0,10.0,60.0,0.0,0.0
4744,64.0,0.0,60.0,1.0,0.0
4745,66.0,0.0,60.0,1.0,0.0
4746,81.0,2.0,60.0,0.0,0.0
4747,59.0,0.0,60.0,8.0,0.0
4748,75.0,78.0,60.0,7.0,0.0
4749,59.0,0.0,60.0,3.0,0.0
4750,78.0,0.0,60.0,4.0,0.0
4751,78.0,0.0,60.0,6.0,0.0
4752,80.0,0.0,150.0,6.0,0.0
4753,80.0,24.0,660.0,4.0,0.0
4754,52.0,0.0,210.0,10.0,0.0
4755,71.0,0.0,210.0,8.0,0.0
4756,64.0,54.0,390.0,3.0,0.0
4757,76.0,0.0,150.0,2.0,0.0
4758,64.0,0.0,60.0,1.0,0.0
4759,80.0,80.0,60.0,0.0,0.0
4760,76.0,54.0,150.0,7.0,0.0
4761,40.0,16.0,210.0,10.0,0.0
4762,81.0,0.0,60.0,0.0,0.0
4763,59.0,10.0,60.0,1.0,0.0
4764,57.0,2.0,60.0,1.0,0.0
4765,83.0,0.0,60.0,0.0,0.0
4766,63.0,0.0,60.0,5.0,0.0
4767,71.0,0.0,60.0,7.0,0.0
4768,71.0,78.0,60.0,2.0,0.0
4769,76.0,0.0,60.0,6.0,0.0
4770,56.0,80.0,60.0,1.0,0.0
4771,80.0,0.0,420.0,7.0,0.0
4772,83.0,24.0,420.0,6.0,0.0
4773,83.0,0.0,420.0,2.0,0.0
4774,32.0,0.0,210.0,10.0,0.0
4775,44.0,16.0,210.0,10.0,0.0
4776,64.0,0.0,150.0,5.0,0.0
4777,76.0,0.0,60.0,0.0,0.0
4778,78.0,0.0,60.0,0.0,0.0
4779,54.0,10.0,60.0,1.0,0.0
4780,52.0,2.0,60.0,1.0,0.0
4781,80.0,0.0,60.0,0.0,0.0
4782,64.0,78.0,60.0,8.0,0.0
4783,62.0,0.0,60.0,5.0,0.0
4784,59.0,0.0,60.0,3.0,0.0
4785,61.0,0.0,60.0,5.0,0.0
4786,61.0,0.0,60.0,3.0,0.0
4787,33.0,0.0,210.0,10.0,0.0
4788,57.0,0.0,60.0,1.0,0.0
4789,73.0,16.0,210.0,8.0,0.0
4790,45.0,0.0,210.0,10.0,0.0
4791,73.0,80.0,60.0,0.0,0.0
4792,57.0,16.0,60.0,3.0,0.0
4793,54.0,0.0,60.0,5.0,0.0
4794,61.0,0.0,60.0,1.0,0.0
4795,75.0,0.0,60.0,0.0,0.0
4796,76.0,0.0,60.0,0.0,0.0
4797,59.0,0.0,60.0,1.0,0.0
4798,59.0,0.0,60.0,3.0,0.0
4799,56.0,80.0,60.0,5.0,0.0
4800,57.0,0.0,60.0,5.0,0.0
4801,78.0,0.0,150.0,4.0,0.0
4802,42.0,16.0,210.0,10.0,0.0
4803,57.0,0.0,60.0,1.0,0.0
4804,30.0,0.0,210.0,10.0,0.0
4805,61.0,0.0,60.0,3.0,0.0
4806,78.0,80.0,60.0,0.0,0.0
4807,81.0,0.0,150.0,6.0,0.0
4808,81.0,54.0,150.0,2.0,0.0
4809,78.0,0.0,150.0,7.0,0.0
4810,56.0,10.0,60.0,1.0,0.0
4811,80.0,0.0,60.0,0.0,0.0
4812,59.0,0.0,60.0,5.0,0.0
4813,63.0,0.0,60.0,3.0,0.0
4814,64.0,0.0,60.0,3.0,0.0
4815,81.0,2.0,60.0,0.0,0.0
4816,61.0,0.0,60.0,5.0,0.0
4817,54.0,0.0,60.0,1.0,0.0
4818,69.0,0.0,60.0,8.0,0.0
4819,76.0,0.0,60.0,4.0,0.0
4820,80.0,0.0,60.0,6.0,0.0
4821,76.0,0.0,60.0,7.0,0.0
4822,80.0,114.0,60.0,2.0,0.0
4823,75.0,0.0,210.0,7.0,0.0
4824,59.0,0.0,210.0,1.0,0.0
4825,47.0,0.0,210.0,10.0,0.0
4826,54.0,0.0,210.0,5.0,0.0
4827,78.0,12.0,210.0,6.0,0.0
4828,75.0,108.0,120.0,0.0,0.0
4829,59.0,0.0,120.0,3.0,0.0
4830,35.0,0.0,210.0,10.0,0.0
4831,78.0,0.0,120.0,2.0,0.0
4832,75.0,0.0,120.0,4.0,0.0
4833,71.0,0.0,210.0,8.0,0.0
4834,75.0,0.0,120.0,2.0,0.0
4835,78.0,120.0,120.0,4.0,0.0
4836,71.0,0.0,120.0,3.0,0.0
4837,78.0,0.0,120.0,0.0,0.0
4838,69.0,12.0,210.0,8.0,0.0
4839,71.0,0.0,120.0,0.0,0.0
4840,71.0,0.0,120.0,4.0,0.0
4841,66.0,108.0,120.0,3.0,0.0
4842,59.0,0.0,210.0,5.0,0.0
4843,71.0,0.0,120.0,2.0,0.0
4844,69.0,120.0,120.0,1.0,0.0
4845,75.0,0.0,120.0,4.0,0.0
4846,75.0,0.0,120.0,2.0,0.0
4847,78.0,0.0,120.0,6.0,0.0
4848,63.0,0.0,120.0,3.0,0.0
4849,75.0,0.0,120.0,0.0,0.0
4850,75.0,0.0,120.0,7.0,0.0
4851,76.0,0.0,120.0,4.0,0.0
4852,68.0,12.0,210.0,8.0,0.0
4853,80.0,0.0,120.0,6.0,0.0
4854,76.0,0.0,120.0,0.0,0.0
4855,76.0,0.0,120.0,7.0,0.0
4856,59.0,0.0,120.0,3.0,0.0
4857,76.0,108.0,120.0,2.0,0.0
4858,68.0,0.0,120.0,1.0,0.0
4859,59.0,0.0,210.0,5.0,0.0
4860,80.0,0.0,120.0,0.0,0.0
4861,64.0,0.0,120.0,1.0,0.0
4862,80.0,120.0,120.0,4.0,0.0
4863,71.0,0.0,120.0,7.0,0.0
4864,71.0,0.0,120.0,3.0,0.0
4865,83.0,0.0,120.0,6.0,0.0
4866,80.0,0.0,120.0,2.0,0.0
4867,76.0,0.0,120.0,6.0,0.0
4868,68.0,0.0,120.0,1.0,0.0
4869,59.0,12.0,210.0,10.0,0.0
4870,47.0,0.0,210.0,5.0,0.0
4871,68.0,108.0,120.0,7.0,0.0
4872,71.0,0.0,210.0,8.0,0.0
4873,71.0,0.0,120.0,4.0,0.0
4874,71.0,0.0,120.0,0.0,0.0
4875,68.0,0.0,120.0,3.0,0.0
4876,47.0,0.0,210.0,10.0,0.0
4877,71.0,0.0,120.0,2.0,0.0
4878,71.0,0.0,120.0,3.0,0.0
4879,76.0,0.0,120.0,0.0,0.0
4880,80.0,0.0,120.0,6.0,0.0
4881,71.0,0.0,120.0,7.0,0.0
4882,64.0,120.0,120.0,1.0,0.0
4883,76.0,0.0,120.0,4.0,0.0
4884,76.0,0.0,120.0,2.0,0.0
4885,75.0,0.0,120.0,7.0,0.0
4886,59.0,0.0,120.0,3.0,0.0
4887,47.0,0.0,210.0,10.0,0.0
4888,75.0,0.0,120.0,0.0,0.0
4889,59.0,0.0,210.0,8.0,0.0
4890,59.0,12.0,210.0,10.0,0.0
4891,75.0,0.0,120.0,4.0,0.0
4892,78.0,0.0,120.0,6.0,0.0
4893,75.0,108.0,120.0,2.0,0.0
4894,71.0,0.0,210.0,1.0,0.0
4895,78.0,120.0,120.0,2.0,0.0
4896,71.0,0.0,120.0,3.0,0.0
4897,78.0,0.0,120.0,4.0,0.0
4898,71.0,0.0,120.0,7.0,0.0
4899,81.0,0.0,120.0,6.0,0.0
4900,78.0,0.0,120.0,0.0,0.0
4901,75.0,0.0,120.0,6.0,0.0
4902,71.0,0.0,120.0,0.0,0.0
4903,66.0,108.0,120.0,7.0,0.0
4904,59.0,0.0,120.0,1.0,0.0
4905,47.0,0.0,210.0,10.0,0.0
4906,66.0,0.0,120.0,3.0,0.0
4907,59.0,12.0,210.0,8.0,0.0
4908,35.0,0.0,210.0,10.0,0.0
4909,71.0,0.0,120.0,4.0,0.0
4910,59.0,0.0,210.0,5.0,0.0
4911,71.0,0.0,120.0,2.0,0.0
4912,63.0,0.0,120.0,3.0,0.0
4913,75.0,0.0,120.0,2.0,0.0
4914,78.0,0.0,120.0,6.0,0.0
4915,75.0,0.0,120.0,4.0,0.0
4916,75.0,120.0,120.0,0.0,0.0
4917,57.0,0.0,120.0,1.0,0.0
4918,71.0,0.0,120.0,7.0,0.0
4919,76.0,0.0,120.0,2.0,0.0
4920,76.0,108.0,120.0,0.0,0.0
4921,59.0,0.0,120.0,3.0,0.0
4922,76.0,0.0,120.0,4.0,0.0
4923,59.0,0.0,210.0,5.0,0.0
4924,71.0,0.0,120.0,7.0,0.0
4925,76.0,0.0,120.0,6.0,0.0
4926,56.0,12.0,210.0,8.0,0.0
4927,56.0,0.0,120.0,1.0,0.0
4928,80.0,0.0,120.0,6.0,0.0
4929,71.0,0.0,120.0,3.0,0.0
4930,76.0,120.0,120.0,7.0,0.0
4931,80.0,0.0,120.0,4.0,0.0
4932,80.0,0.0,120.0,2.0,0.0
4933,52.0,0.0,120.0,1.0,0.0
4934,80.0,0.0,120.0,0.0,0.0
4935,47.0,0.0,210.0,5.0,0.0
4936,71.0,0.0,120.0,6.0,0.0
4937,59.0,12.0,210.0,10.0,0.0
4938,68.0,0.0,120.0,3.0,0.0
4939,71.0,0.0,120.0,0.0,0.0
4940,68.0,0.0,120.0,7.0,0.0
4941,71.0,108.0,120.0,2.0,0.0
4942,64.0,0.0,210.0,8.0,0.0
4943,47.0,0.0,210.0,10.0,0.0
4944,71.0,0.0,120.0,4.0,0.0
4945,56.0,0.0,120.0,1.0,0.0
4946,76.0,0.0,120.0,4.0,0.0
4947,71.0,0.0,120.0,7.0,0.0
4948,71.0,0.0,120.0,3.0,0.0
4949,76.0,0.0,120.0,0.0,0.0
4950,76.0,0.0,120.0,2.0,0.0
4951,52.0,66.0,120.0,1.0,0.0
4952,76.0,0.0,120.0,6.0,0.0
4953,75.0,0.0,210.0,0.0,0.0
4954,66.0,42.0,420.0,8.0,0.0
4955,47.0,0.0,2130.0,10.0,0.0
4956,75.0,0.0,210.0,4.0,0.0
4957,59.0,0.0,210.0,1.0,0.0
4958,59.0,0.0,210.0,3.0,0.0
4959,75.0,0.0,420.0,6.0,0.0
4960,47.0,18.0,210.0,5.0,0.0
4961,71.0,0.0,420.0,7.0,0.0
4962,59.0,18.0,2130.0,10.0,0.0
4963,75.0,60.0,60.0,2.0,0.0
4964,78.0,60.0,60.0,2.0,0.0
4965,80.0,42.0,60.0,2.0,0.0
4966,81.0,60.0,60.0,2.0,0.0
4967,83.0,60.0,60.0,2.0,0.0
4968,81.0,60.0,60.0,2.0,0.0
4969,80.0,18.0,60.0,2.0,0.0
4970,78.0,60.0,60.0,2.0,0.0
4971,68.0,0.0,420.0,7.0,0.0
4972,80.0,60.0,60.0,2.0,0.0
4973,76.0,42.0,420.0,6.0,0.0
4974,71.0,0.0,420.0,8.0,0.0
4975,63.0,0.0,60.0,3.0,0.0
4976,78.0,60.0,60.0,2.0,0.0
4977,76.0,0.0,60.0,2.0,0.0
4978,64.0,60.0,60.0,3.0,0.0
4979,66.0,0.0,60.0,3.0,0.0
4980,75.0,60.0,60.0,2.0,0.0
4981,76.0,0.0,60.0,2.0,0.0
4982,68.0,60.0,60.0,3.0,0.0
4983,75.0,60.0,60.0,2.0,0.0
4984,66.0,0.0,60.0,3.0,0.0
4985,64.0,18.0,60.0,3.0,0.0
4986,73.0,0.0,60.0,2.0,0.0
4987,63.0,60.0,60.0,3.0,0.0
4988,71.0,0.0,60.0,2.0,0.0
4989,61.0,18.0,210.0,3.0,0.0
4990,73.0,0.0,870.0,8.0,0.0
4991,76.0,30.0,870.0,7.0,0.0
4992,70.0,60.0,60.0,2.0,0.0
4993,79.0,42.0,420.0,6.0,0.0
4994,71.0,60.0,60.0,2.0,0.0
4995,73.0,42.0,60.0,2.0,0.0
4996,75.0,60.0,60.0,2.0,0.0
4997,76.0,60.0,60.0,2.0,0.0
4998,75.0,60.0,60.0,2.0,0.0
4999,73.0,18.0,60.0,2.0,0.0
5000,71.0,60.0,60.0,2.0,0.0
5001,70.0,60.0,60.0,2.0,0.0
5002,82.0,42.0,420.0,6.0,0.0
5003,68.0,60.0,60.0,2.0,0.0
5004,66.0,60.0,60.0,2.0,0.0
5005,64.0,60.0,60.0,2.0,0.0
5006,63.0,60.0,60.0,3.0,0.0
5007,61.0,30.0,60.0,3.0,0.0
5008,59.0,18.0,60.0,3.0,0.0
5009,58.0,60.0,60.0,3.0,0.0
5010,75.0,0.0,210.0,8.0,0.0
5011,83.0,0.0,1170.0,6.0,0.0
5012,47.0,60.0,60.0,3.0,0.0
5013,78.0,0.0,210.0,7.0,0.0
5014,63.0,60.0,60.0,2.0,0.0
5015,59.0,0.0,60.0,3.0,0.0
5016,61.0,42.0,60.0,2.0,0.0
5017,58.0,0.0,60.0,3.0,0.0
5018,59.0,0.0,60.0,3.0,0.0
5019,63.0,60.0,60.0,2.0,0.0
5020,49.0,0.0,60.0,3.0,0.0
5021,64.0,60.0,60.0,2.0,0.0
5022,49.0,0.0,210.0,10.0,0.0
5023,61.0,18.0,210.0,10.0,0.0
5024,59.0,60.0,60.0,3.0,0.0
5025,63.0,0.0,60.0,2.0,0.0
5026,58.0,42.0,60.0,3.0,0.0
5027,61.0,0.0,60.0,2.0,0.0
5028,63.0,60.0,60.0,2.0,0.0
5029,59.0,0.0,60.0,3.0,0.0
5030,66.0,60.0,60.0,2.0,0.0
5031,63.0,18.0,210.0,10.0,0.0
5032,51.0,0.0,210.0,10.0,0.0
5033,51.0,0.0,60.0,3.0,0.0
5034,59.0,0.0,60.0,3.0,0.0
5035,63.0,60.0,60.0,2.0,0.0
5036,61.0,42.0,60.0,2.0,0.0
5037,58.0,0.0,60.0,3.0,0.0
5038,63.0,60.0,60.0,2.0,0.0
5039,59.0,0.0,60.0,3.0,0.0
5040,68.0,60.0,60.0,2.0,0.0
5041,49.0,18.0,210.0,10.0,0.0
5042,52.0,0.0,60.0,3.0,0.0
5043,61.0,0.0,210.0,10.0,0.0
5044,59.0,60.0,60.0,3.0,0.0
5045,63.0,0.0,60.0,2.0,0.0
5046,61.0,0.0,60.0,2.0,0.0
5047,58.0,42.0,60.0,3.0,0.0
5048,63.0,0.0,60.0,2.0,0.0
5049,59.0,60.0,60.0,3.0,0.0
5050,69.0,60.0,60.0,2.0,0.0
5051,59.0,18.0,210.0,10.0,0.0
5052,47.0,0.0,210.0,10.0,0.0
5053,54.0,0.0,60.0,3.0,0.0
5054,59.0,0.0,60.0,3.0,0.0
5055,63.0,60.0,60.0,2.0,0.0
5056,58.0,0.0,60.0,3.0,0.0
5057,61.0,42.0,60.0,2.0,0.0
5058,59.0,60.0,60.0,3.0,0.0
5059,63.0,0.0,60.0,2.0,0.0
5060,66.0,0.0,60.0,2.0,0.0
5061,51.0,60.0,60.0,3.0,0.0
5062,78.0,0.0,210.0,7.0,0.0
5063,63.0,0.0,210.0,8.0,0.0
5064,71.0,0.0,210.0,6.0,0.0
5065,45.0,0.0,210.0,10.0,0.0
5066,57.0,18.0,210.0,10.0,0.0
5067,59.0,0.0,60.0,3.0,0.0
5068,63.0,60.0,60.0,2.0,0.0
5069,61.0,42.0,60.0,2.0,0.0
5070,58.0,0.0,60.0,3.0,0.0
5071,63.0,0.0,60.0,2.0,0.0
5072,59.0,60.0,60.0,3.0,0.0
5073,71.0,0.0,210.0,7.0,0.0
5074,52.0,0.0,60.0,3.0,0.0
5075,44.0,0.0,210.0,10.0,0.0
5076,76.0,0.0,210.0,6.0,0.0
5077,64.0,0.0,210.0,8.0,0.0
5078,56.0,18.0,210.0,10.0,0.0
5079,71.0,60.0,60.0,2.0,0.0
5080,59.0,0.0,60.0,3.0,0.0
5081,63.0,60.0,60.0,2.0,0.0
5082,61.0,42.0,60.0,2.0,0.0
5083,58.0,0.0,60.0,3.0,0.0
5084,59.0,0.0,60.0,3.0,0.0
5085,63.0,60.0,60.0,2.0,0.0
5086,69.0,0.0,60.0,2.0,0.0
5087,78.0,0.0,210.0,6.0,0.0
5088,75.0,0.0,210.0,7.0,0.0
5089,69.0,18.0,210.0,8.0,0.0
5090,54.0,0.0,210.0,10.0,0.0
5091,54.0,60.0,60.0,3.0,0.0
5092,42.0,0.0,210.0,10.0,0.0
5093,59.0,60.0,60.0,3.0,0.0
5094,63.0,0.0,60.0,2.0,0.0
5095,61.0,42.0,60.0,2.0,0.0
5096,58.0,0.0,60.0,3.0,0.0
5097,59.0,60.0,60.0,3.0,0.0
5098,63.0,0.0,60.0,2.0,0.0
5099,80.0,42.0,420.0,6.0,0.0
5100,68.0,60.0,60.0,2.0,0.0
5101,71.0,0.0,420.0,8.0,0.0
5102,52.0,0.0,2130.0,10.0,0.0
5103,76.0,0.0,420.0,7.0,0.0
5104,52.0,18.0,210.0,3.0,0.0
5105,40.0,18.0,2130.0,10.0,0.0
5106,71.0,60.0,60.0,2.0,0.0
5107,73.0,42.0,60.0,2.0,0.0
5108,75.0,60.0,60.0,2.0,0.0
5109,76.0,60.0,60.0,2.0,0.0
5110,75.0,60.0,60.0,2.0,0.0
5111,73.0,18.0,60.0,2.0,0.0
5112,71.0,60.0,60.0,2.0,0.0
5113,73.0,0.0,420.0,7.0,0.0
5114,76.0,0.0,420.0,8.0,0.0
5115,81.0,42.0,420.0,6.0,0.0
5116,73.0,60.0,60.0,2.0,0.0
5117,56.0,60.0,60.0,3.0,0.0
5118,71.0,0.0,60.0,2.0,0.0
5119,69.0,0.0,60.0,2.0,0.0
5120,57.0,60.0,60.0,3.0,0.0
5121,59.0,0.0,60.0,3.0,0.0
5122,68.0,60.0,60.0,2.0,0.0
5123,61.0,60.0,60.0,3.0,0.0
5124,69.0,0.0,60.0,2.0,0.0
5125,68.0,0.0,60.0,2.0,0.0
5126,59.0,60.0,60.0,3.0,0.0
5127,66.0,0.0,60.0,2.0,0.0
5128,57.0,18.0,60.0,3.0,0.0
5129,64.0,0.0,60.0,2.0,0.0
5130,56.0,60.0,60.0,3.0,0.0
5131,81.0,0.0,870.0,7.0,0.0
5132,63.0,60.0,60.0,2.0,0.0
5133,84.0,42.0,420.0,6.0,0.0
5134,54.0,18.0,210.0,3.0,0.0
5135,78.0,30.0,870.0,8.0,0.0
5136,64.0,60.0,60.0,2.0,0.0
5137,66.0,42.0,60.0,2.0,0.0
5138,68.0,60.0,60.0,2.0,0.0
5139,69.0,60.0,60.0,2.0,0.0
5140,68.0,60.0,60.0,2.0,0.0
5141,66.0,18.0,60.0,2.0,0.0
5142,64.0,60.0,60.0,2.0,0.0
5143,87.0,42.0,420.0,6.0,0.0
5144,63.0,60.0,60.0,2.0,0.0
5145,61.0,60.0,60.0,2.0,0.0
5146,59.0,60.0,60.0,2.0,0.0
5147,57.0,60.0,60.0,2.0,0.0
5148,56.0,60.0,60.0,2.0,0.0
5149,54.0,30.0,60.0,2.0,0.0
5150,52.0,18.0,60.0,2.0,0.0
5151,51.0,60.0,60.0,2.0,0.0
5152,40.0,60.0,60.0,3.0,0.0
5153,80.0,0.0,210.0,8.0,0.0
5154,88.0,0.0,1170.0,6.0,0.0
5155,83.0,0.0,210.0,7.0,0.0
5156,52.0,60.0,60.0,3.0,0.0
5157,56.0,0.0,60.0,2.0,0.0
5158,54.0,0.0,60.0,2.0,0.0
5159,51.0,42.0,60.0,3.0,0.0
5160,56.0,60.0,60.0,2.0,0.0
5161,52.0,0.0,60.0,3.0,0.0
5162,54.0,0.0,210.0,10.0,0.0
5163,57.0,0.0,60.0,2.0,0.0
5164,42.0,18.0,210.0,10.0,0.0
5165,42.0,60.0,60.0,3.0,0.0
5166,56.0,0.0,60.0,2.0,0.0
5167,52.0,60.0,60.0,3.0,0.0
5168,54.0,0.0,60.0,2.0,0.0
5169,51.0,42.0,60.0,3.0,0.0
5170,56.0,60.0,60.0,2.0,0.0
5171,52.0,0.0,60.0,3.0,0.0
5172,44.0,18.0,210.0,10.0,0.0
5173,44.0,60.0,60.0,3.0,0.0
5174,59.0,0.0,60.0,2.0,0.0
5175,56.0,0.0,210.0,10.0,0.0
5176,52.0,0.0,60.0,3.0,0.0
5177,56.0,60.0,60.0,2.0,0.0
5178,51.0,42.0,60.0,3.0,0.0
5179,54.0,0.0,60.0,2.0,0.0
5180,52.0,60.0,60.0,3.0,0.0
5181,56.0,0.0,60.0,2.0,0.0
5182,42.0,0.0,210.0,10.0,0.0
5183,61.0,60.0,60.0,2.0,0.0
5184,54.0,18.0,210.0,10.0,0.0
5185,45.0,0.0,60.0,3.0,0.0
5186,52.0,0.0,60.0,3.0,0.0
5187,56.0,60.0,60.0,2.0,0.0
5188,54.0,42.0,60.0,2.0,0.0
5189,51.0,0.0,60.0,3.0,0.0
5190,52.0,60.0,60.0,3.0,0.0
5191,56.0,0.0,60.0,2.0,0.0
5192,47.0,60.0,60.0,3.0,0.0
5193,40.0,18.0,210.0,10.0,0.0
5194,52.0,0.0,210.0,10.0,0.0
5195,62.0,0.0,60.0,2.0,0.0
5196,56.0,0.0,60.0,2.0,0.0
5197,52.0,60.0,60.0,3.0,0.0
5198,51.0,0.0,60.0,3.0,0.0
5199,54.0,42.0,60.0,2.0,0.0
5200,52.0,60.0,60.0,3.0,0.0
5201,56.0,0.0,60.0,2.0,0.0
5202,83.0,0.0,210.0,7.0,0.0
5203,59.0,0.0,60.0,2.0,0.0
5204,50.0,18.0,210.0,10.0,0.0
5205,76.0,0.0,210.0,6.0,0.0
5206,68.0,0.0,210.0,8.0,0.0
5207,44.0,60.0,60.0,3.0,0.0
5208,38.0,0.0,210.0,10.0,0.0
5209,52.0,0.0,60.0,3.0,0.0
5210,56.0,60.0,60.0,2.0,0.0
5211,51.0,42.0,60.0,3.0,0.0
5212,54.0,0.0,60.0,2.0,0.0
5213,56.0,0.0,60.0,2.0,0.0
5214,52.0,60.0,60.0,3.0,0.0
5215,49.0,0.0,210.0,10.0,0.0
5216,64.0,0.0,60.0,2.0,0.0
5217,81.0,0.0,210.0,6.0,0.0
5218,76.0,0.0,210.0,7.0,0.0
5219,37.0,18.0,210.0,10.0,0.0
5220,69.0,0.0,210.0,8.0,0.0
5221,49.0,60.0,60.0,3.0,0.0
5222,56.0,60.0,60.0,2.0,0.0
5223,52.0,0.0,60.0,3.0,0.0
5224,54.0,42.0,60.0,2.0,0.0
5225,51.0,0.0,60.0,3.0,0.0
5226,56.0,0.0,60.0,2.0,0.0
5227,52.0,60.0,60.0,3.0,0.0
5228,35.0,0.0,210.0,10.0,0.0
5229,80.0,0.0,210.0,7.0,0.0
5230,47.0,0.0,210.0,10.0,0.0
5231,62.0,60.0,60.0,2.0,0.0
5232,47.0,0.0,60.0,3.0,0.0
5233,74.0,18.0,210.0,8.0,0.0
5234,83.0,0.0,210.0,6.0,0.0
5235,56.0,60.0,60.0,2.0,0.0
5236,52.0,0.0,60.0,3.0,0.0
5237,54.0,42.0,60.0,2.0,0.0
5238,51.0,0.0,60.0,3.0,0.0
5239,56.0,60.0,60.0,2.0,0.0
5240,52.0,0.0,60.0,3.0,0.0
5241,61.0,54.0,60.0,2.0,0.0
5242,85.0,12.0,210.0,6.0,0.0
5243,81.0,0.0,210.0,7.0,0.0
5244,45.0,0.0,120.0,10.0,0.0
5245,33.0,0.0,120.0,10.0,0.0
5246,76.0,0.0,210.0,8.0,0.0
5247,45.0,6.0,120.0,3.0,0.0
5248,57.0,60.0,60.0,2.0,0.0
5249,32.0,0.0,120.0,10.0,0.0
5250,44.0,6.0,120.0,10.0,0.0
5251,52.0,42.0,60.0,2.0,0.0
5252,49.0,60.0,60.0,2.0,0.0
5253,45.0,54.0,60.0,2.0,0.0
5254,76.0,12.0,210.0,6.0,0.0
5255,45.0,6.0,120.0,10.0,0.0
5256,33.0,0.0,120.0,10.0,0.0
5257,56.0,60.0,60.0,3.0,0.0
5258,35.0,6.0,120.0,10.0,0.0
5259,47.0,0.0,120.0,10.0,0.0
5260,57.0,42.0,60.0,3.0,0.0
5261,59.0,114.0,60.0,3.0,0.0
5262,61.0,0.0,120.0,3.0,0.0
5263,49.0,6.0,120.0,10.0,0.0
5264,81.0,24.0,900.0,6.0,0.0
5265,37.0,0.0,120.0,10.0,0.0
5266,76.0,60.0,60.0,2.0,0.0
5267,59.0,0.0,120.0,3.0,0.0
5268,78.0,54.0,60.0,2.0,0.0
5269,47.0,6.0,120.0,10.0,0.0
5270,35.0,0.0,120.0,10.0,0.0
5271,80.0,60.0,60.0,2.0,0.0
5272,81.0,54.0,60.0,2.0,0.0
5273,61.0,0.0,120.0,3.0,0.0
5274,37.0,0.0,120.0,10.0,0.0
5275,49.0,6.0,120.0,10.0,0.0
5276,76.0,60.0,60.0,2.0,0.0
5277,63.0,6.0,120.0,3.0,0.0
5278,39.0,0.0,120.0,10.0,0.0
5279,51.0,0.0,120.0,10.0,0.0
5280,73.0,54.0,60.0,2.0,0.0
5281,69.0,60.0,60.0,2.0,0.0
5282,64.0,0.0,120.0,3.0,0.0
5283,40.0,6.0,120.0,10.0,0.0
5284,81.0,54.0,60.0,2.0,0.0
5285,52.0,0.0,120.0,10.0,0.0
5286,71.0,60.0,60.0,2.0,0.0
5287,81.0,54.0,60.0,2.0,0.0
5288,63.0,0.0,120.0,3.0,0.0
5289,51.0,0.0,120.0,10.0,0.0
5290,39.0,6.0,120.0,10.0,0.0
5291,71.0,60.0,60.0,2.0,0.0
5292,64.0,6.0,120.0,3.0,0.0
5293,81.0,54.0,60.0,2.0,0.0
5294,52.0,0.0,120.0,10.0,0.0
5295,71.0,12.0,210.0,7.0,0.0
5296,40.0,0.0,120.0,10.0,0.0
5297,71.0,60.0,60.0,2.0,0.0
5298,81.0,18.0,60.0,2.0,0.0
5299,54.0,0.0,120.0,10.0,0.0
5300,42.0,0.0,120.0,10.0,0.0
5301,66.0,6.0,120.0,3.0,0.0
5302,71.0,60.0,60.0,2.0,0.0
5303,76.0,24.0,900.0,7.0,0.0
5304,80.0,36.0,420.0,6.0,0.0
5305,56.0,6.0,120.0,10.0,0.0
5306,68.0,0.0,120.0,3.0,0.0
5307,80.0,54.0,60.0,2.0,0.0
5308,44.0,0.0,120.0,10.0,0.0
5309,76.0,60.0,60.0,2.0,0.0
5310,66.0,0.0,120.0,3.0,0.0
5311,80.0,54.0,60.0,2.0,0.0
5312,54.0,0.0,120.0,10.0,0.0
5313,42.0,6.0,120.0,10.0,0.0
5314,76.0,60.0,60.0,2.0,0.0
5315,44.0,0.0,120.0,10.0,0.0
5316,56.0,6.0,120.0,10.0,0.0
5317,80.0,54.0,60.0,2.0,0.0
5318,68.0,0.0,120.0,3.0,0.0
5319,76.0,60.0,60.0,2.0,0.0
5320,69.0,0.0,120.0,3.0,0.0
5321,80.0,18.0,60.0,2.0,0.0
5322,45.0,6.0,120.0,10.0,0.0
5323,57.0,0.0,120.0,10.0,0.0
5324,76.0,60.0,60.0,2.0,0.0
5325,59.0,0.0,120.0,3.0,0.0
5326,47.0,6.0,120.0,10.0,0.0
5327,35.0,0.0,120.0,10.0,0.0
5328,78.0,54.0,60.0,2.0,0.0
5329,78.0,12.0,210.0,6.0,0.0
5330,76.0,60.0,60.0,2.0,0.0
5331,46.0,6.0,120.0,10.0,0.0
5332,34.0,0.0,120.0,10.0,0.0
5333,58.0,0.0,120.0,3.0,0.0
5334,78.0,42.0,60.0,2.0,0.0
5335,76.0,60.0,60.0,2.0,0.0
5336,47.0,0.0,120.0,10.0,0.0
5337,35.0,6.0,120.0,10.0,0.0
5338,71.0,12.0,210.0,6.0,0.0
5339,78.0,54.0,60.0,2.0,0.0
5340,59.0,0.0,120.0,3.0,0.0
5341,76.0,60.0,60.0,2.0,0.0
5342,49.0,0.0,120.0,10.0,0.0
5343,61.0,0.0,120.0,3.0,0.0
5344,75.0,18.0,60.0,2.0,0.0
5345,37.0,6.0,120.0,10.0,0.0
5346,73.0,60.0,60.0,2.0,0.0
5347,51.0,6.0,120.0,10.0,0.0
5348,39.0,0.0,120.0,10.0,0.0
5349,63.0,0.0,120.0,3.0,0.0
5350,71.0,54.0,60.0,2.0,0.0
5351,83.0,24.0,900.0,6.0,0.0
5352,75.0,36.0,420.0,7.0,0.0
5353,78.0,60.0,60.0,2.0,0.0
5354,61.0,6.0,120.0,3.0,0.0
5355,49.0,0.0,120.0,10.0,0.0
5356,80.0,54.0,60.0,2.0,0.0
5357,37.0,0.0,120.0,10.0,0.0
5358,81.0,60.0,60.0,2.0,0.0
5359,39.0,6.0,120.0,10.0,0.0
5360,51.0,0.0,120.0,10.0,0.0
5361,63.0,0.0,120.0,3.0,0.0
5362,83.0,54.0,60.0,2.0,0.0
5363,78.0,60.0,60.0,2.0,0.0
5364,40.0,6.0,120.0,10.0,0.0
5365,52.0,0.0,120.0,10.0,0.0
5366,64.0,0.0,120.0,3.0,0.0
5367,75.0,18.0,60.0,2.0,0.0
5368,71.0,60.0,60.0,2.0,0.0
5369,42.0,0.0,120.0,10.0,0.0
5370,66.0,0.0,120.0,3.0,0.0
5371,83.0,54.0,60.0,2.0,0.0
5372,54.0,6.0,120.0,10.0,0.0
5373,73.0,12.0,210.0,7.0,0.0
5374,73.0,60.0,60.0,2.0,0.0
5375,53.0,0.0,120.0,10.0,0.0
5376,41.0,6.0,120.0,10.0,0.0
5377,83.0,42.0,60.0,2.0,0.0
5378,65.0,0.0,120.0,3.0,0.0
5379,73.0,60.0,60.0,2.0,0.0
5380,66.0,6.0,120.0,3.0,0.0
5381,83.0,54.0,60.0,2.0,0.0
5382,54.0,0.0,120.0,10.0,0.0
5383,42.0,0.0,120.0,10.0,0.0
5384,66.0,12.0,210.0,7.0,0.0
5385,73.0,60.0,60.0,2.0,0.0
5386,44.0,0.0,120.0,10.0,0.0
5387,56.0,0.0,120.0,10.0,0.0
5388,68.0,6.0,120.0,3.0,0.0
5389,83.0,18.0,60.0,2.0,0.0
5390,73.0,60.0,60.0,2.0,0.0
5391,78.0,24.0,900.0,7.0,0.0
5392,81.0,54.0,60.0,2.0,0.0
5393,81.0,36.0,420.0,6.0,0.0
5394,57.0,0.0,120.0,10.0,0.0
5395,69.0,6.0,120.0,3.0,0.0
5396,45.0,0.0,120.0,10.0,0.0
5397,78.0,60.0,60.0,2.0,0.0
5398,56.0,6.0,120.0,10.0,0.0
5399,44.0,0.0,120.0,10.0,0.0
5400,68.0,0.0,120.0,3.0,0.0
5401,81.0,54.0,60.0,2.0,0.0
5402,78.0,60.0,60.0,2.0,0.0
5403,69.0,0.0,120.0,3.0,0.0
5404,45.0,6.0,120.0,10.0,0.0
5405,57.0,0.0,120.0,10.0,0.0
5406,81.0,54.0,60.0,2.0,0.0
5407,78.0,60.0,60.0,2.0,0.0
5408,81.0,18.0,60.0,2.0,0.0
5409,47.0,0.0,120.0,10.0,0.0
5410,71.0,0.0,120.0,3.0,0.0
5411,59.0,6.0,120.0,10.0,0.0
5412,78.0,60.0,60.0,2.0,0.0
5413,61.0,6.0,120.0,3.0,0.0
5414,49.0,0.0,120.0,10.0,0.0
5415,37.0,0.0,120.0,10.0,0.0
5416,80.0,12.0,210.0,6.0,0.0
5417,80.0,54.0,60.0,2.0,0.0
5418,78.0,60.0,60.0,2.0,0.0
5419,36.0,6.0,120.0,10.0,0.0
5420,80.0,42.0,60.0,2.0,0.0
5421,60.0,0.0,120.0,3.0,0.0
5422,48.0,0.0,120.0,10.0,0.0
5423,78.0,60.0,60.0,2.0,0.0
5424,73.0,12.0,210.0,6.0,0.0
5425,80.0,54.0,60.0,2.0,0.0
5426,49.0,6.0,120.0,10.0,0.0
5427,37.0,0.0,120.0,10.0,0.0
5428,61.0,0.0,120.0,3.0,0.0
5429,78.0,60.0,60.0,2.0,0.0
5430,51.0,6.0,120.0,10.0,0.0
5431,39.0,0.0,120.0,10.0,0.0
5432,63.0,0.0,120.0,3.0,0.0
5433,76.0,18.0,60.0,2.0,0.0
5434,75.0,60.0,60.0,2.0,0.0
5435,73.0,54.0,60.0,2.0,0.0
5436,40.0,0.0,120.0,10.0,0.0
5437,76.0,36.0,420.0,7.0,0.0
5438,52.0,0.0,120.0,10.0,0.0
5439,85.0,36.0,900.0,6.0,0.0
5440,64.0,6.0,120.0,3.0,0.0
5441,80.0,60.0,60.0,2.0,0.0
5442,51.0,0.0,120.0,10.0,0.0
5443,82.0,54.0,60.0,2.0,0.0
5444,63.0,0.0,120.0,3.0,0.0
5445,39.0,6.0,120.0,10.0,0.0
5446,84.0,60.0,60.0,2.0,0.0
5447,85.0,54.0,60.0,2.0,0.0
5448,64.0,0.0,120.0,3.0,0.0
5449,40.0,0.0,120.0,10.0,0.0
5450,52.0,6.0,120.0,10.0,0.0
5451,80.0,60.0,60.0,2.0,0.0
5452,76.0,18.0,60.0,2.0,0.0
5453,37.0,0.0,120.0,10.0,0.0
5454,61.0,0.0,120.0,3.0,0.0
5455,49.0,6.0,120.0,10.0,0.0
5456,73.0,60.0,60.0,2.0,0.0
5457,42.0,0.0,120.0,10.0,0.0
5458,85.0,54.0,60.0,2.0,0.0
5459,66.0,6.0,120.0,3.0,0.0
5460,54.0,0.0,120.0,10.0,0.0
5461,74.0,30.0,870.0,7.0,0.0
5462,74.0,60.0,60.0,2.0,0.0
5463,85.0,54.0,60.0,2.0,0.0
5464,44.0,0.0,120.0,10.0,0.0
5465,68.0,0.0,120.0,3.0,0.0
5466,56.0,6.0,120.0,10.0,0.0
5467,74.0,60.0,60.0,2.0,0.0
5468,69.0,0.0,120.0,3.0,0.0
5469,45.0,6.0,120.0,10.0,0.0
5470,85.0,54.0,60.0,2.0,0.0
5471,57.0,0.0,120.0,10.0,0.0
5472,74.0,60.0,60.0,2.0,0.0
5473,66.0,0.0,120.0,3.0,0.0
5474,54.0,0.0,120.0,10.0,0.0
5475,85.0,18.0,60.0,2.0,0.0
5476,42.0,6.0,120.0,10.0,0.0
5477,74.0,60.0,60.0,2.0,0.0
5478,56.0,0.0,120.0,10.0,0.0
5479,83.0,54.0,60.0,2.0,0.0
5480,68.0,0.0,120.0,3.0,0.0
5481,44.0,6.0,120.0,10.0,0.0
5482,83.0,36.0,900.0,6.0,0.0
5483,74.0,60.0,60.0,2.0,0.0
5484,83.0,54.0,60.0,2.0,0.0
5485,40.0,0.0,120.0,10.0,0.0
5486,52.0,0.0,120.0,10.0,0.0
5487,64.0,6.0,120.0,3.0,0.0
5488,74.0,60.0,60.0,2.0,0.0
5489,83.0,54.0,60.0,2.0,0.0
5490,54.0,0.0,120.0,10.0,0.0
5491,42.0,6.0,120.0,10.0,0.0
5492,66.0,0.0,120.0,3.0,0.0
5493,74.0,30.0,60.0,2.0,0.0
5494,68.0,6.0,120.0,3.0,0.0
5495,56.0,0.0,120.0,10.0,0.0
5496,44.0,0.0,120.0,10.0,0.0
5497,83.0,54.0,60.0,2.0,0.0
5498,74.0,60.0,60.0,2.0,0.0
5499,57.0,0.0,120.0,10.0,0.0
5500,45.0,6.0,120.0,10.0,0.0
5501,83.0,54.0,60.0,2.0,0.0
5502,73.0,30.0,870.0,7.0,0.0
5503,69.0,0.0,120.0,3.0,0.0
5504,73.0,60.0,60.0,2.0,0.0
5505,71.0,6.0,120.0,3.0,0.0
5506,59.0,0.0,120.0,10.0,0.0
5507,83.0,54.0,60.0,2.0,0.0
5508,47.0,0.0,120.0,10.0,0.0
5509,73.0,60.0,60.0,2.0,0.0
5510,57.0,0.0,120.0,10.0,0.0
5511,69.0,0.0,120.0,3.0,0.0
5512,45.0,6.0,120.0,10.0,0.0
5513,83.0,54.0,60.0,2.0,0.0
5514,73.0,60.0,60.0,2.0,0.0
5515,44.0,6.0,120.0,10.0,0.0
5516,56.0,0.0,120.0,10.0,0.0
5517,68.0,0.0,120.0,3.0,0.0
5518,83.0,18.0,60.0,2.0,0.0
5519,73.0,60.0,60.0,2.0,0.0
5520,42.0,6.0,120.0,10.0,0.0
5521,66.0,0.0,120.0,3.0,0.0
5522,54.0,0.0,120.0,10.0,0.0
5523,81.0,54.0,60.0,2.0,0.0
5524,81.0,36.0,900.0,6.0,0.0
5525,73.0,60.0,60.0,2.0,0.0
5526,40.0,6.0,120.0,10.0,0.0
5527,64.0,0.0,120.0,3.0,0.0
5528,52.0,0.0,120.0,10.0,0.0
5529,81.0,54.0,60.0,2.0,0.0
5530,73.0,60.0,60.0,2.0,0.0
5531,39.0,0.0,120.0,10.0,0.0
5532,81.0,54.0,60.0,2.0,0.0
5533,51.0,0.0,120.0,10.0,0.0
5534,63.0,6.0,120.0,3.0,0.0
5535,73.0,30.0,60.0,2.0,0.0
5536,37.0,0.0,120.0,10.0,0.0
5537,61.0,0.0,120.0,3.0,0.0
5538,81.0,54.0,60.0,2.0,0.0
5539,49.0,6.0,120.0,10.0,0.0
5540,73.0,60.0,60.0,2.0,0.0
5541,51.0,0.0,120.0,10.0,0.0
5542,63.0,0.0,120.0,3.0,0.0
5543,81.0,54.0,60.0,2.0,0.0
5544,71.0,30.0,870.0,7.0,0.0
5545,39.0,6.0,120.0,10.0,0.0
5546,71.0,60.0,60.0,2.0,0.0
5547,81.0,54.0,60.0,2.0,0.0
5548,47.0,6.0,120.0,10.0,0.0
5549,35.0,0.0,120.0,10.0,0.0
5550,59.0,0.0,120.0,3.0,0.0
5551,71.0,60.0,60.0,2.0,0.0
5552,81.0,54.0,60.0,2.0,0.0
5553,37.0,6.0,120.0,10.0,0.0
5554,49.0,0.0,120.0,10.0,0.0
5555,61.0,0.0,120.0,3.0,0.0
5556,71.0,60.0,60.0,2.0,0.0
5557,39.0,0.0,120.0,10.0,0.0
5558,51.0,0.0,120.0,10.0,0.0
5559,63.0,6.0,120.0,3.0,0.0
5560,81.0,18.0,60.0,2.0,0.0
5561,71.0,60.0,60.0,2.0,0.0
5562,40.0,6.0,120.0,10.0,0.0
5563,80.0,54.0,60.0,2.0,0.0
5564,64.0,0.0,120.0,3.0,0.0
5565,80.0,36.0,900.0,6.0,0.0
5566,52.0,0.0,120.0,10.0,0.0
5567,71.0,60.0,60.0,2.0,0.0
5568,61.0,0.0,120.0,3.0,0.0
5569,80.0,54.0,60.0,2.0,0.0
5570,49.0,0.0,120.0,10.0,0.0
5571,37.0,6.0,120.0,10.0,0.0
5572,71.0,60.0,60.0,2.0,0.0
5573,63.0,0.0,120.0,3.0,0.0
5574,51.0,0.0,120.0,10.0,0.0
5575,39.0,6.0,120.0,10.0,0.0
5576,80.0,54.0,60.0,2.0,0.0
5577,71.0,30.0,60.0,2.0,0.0
5578,52.0,0.0,120.0,10.0,0.0
5579,40.0,6.0,120.0,10.0,0.0
5580,64.0,0.0,120.0,3.0,0.0
5581,80.0,54.0,60.0,2.0,0.0
5582,71.0,60.0,60.0,2.0,0.0
5583,42.0,6.0,120.0,10.0,0.0
5584,69.0,6.0,660.0,7.0,0.0
5585,66.0,0.0,120.0,3.0,0.0
5586,80.0,54.0,60.0,2.0,0.0
5587,54.0,0.0,120.0,10.0,0.0
5588,69.0,60.0,60.0,2.0,0.0
5589,56.0,6.0,120.0,10.0,0.0
5590,44.0,0.0,120.0,10.0,0.0
5591,68.0,0.0,120.0,3.0,0.0
5592,80.0,54.0,60.0,2.0,0.0
5593,69.0,60.0,60.0,2.0,0.0
5594,42.0,0.0,120.0,10.0,0.0
5595,80.0,54.0,60.0,2.0,0.0
5596,66.0,6.0,120.0,3.0,0.0
5597,54.0,0.0,120.0,10.0,0.0
5598,69.0,60.0,60.0,2.0,0.0
5599,64.0,0.0,120.0,3.0,0.0
5600,80.0,18.0,60.0,2.0,0.0
5601,40.0,0.0,120.0,10.0,0.0
5602,52.0,6.0,120.0,10.0,0.0
5603,69.0,60.0,60.0,2.0,0.0
5604,63.0,6.0,120.0,3.0,0.0
5605,78.0,12.0,690.0,6.0,0.0
5606,39.0,0.0,120.0,10.0,0.0
5607,51.0,0.0,120.0,10.0,0.0
5608,78.0,54.0,60.0,2.0,0.0
5609,76.0,54.0,60.0,2.0,0.0
5610,75.0,54.0,60.0,2.0,0.0
5611,54.0,0.0,120.0,10.0,0.0
5612,66.0,0.0,120.0,3.0,0.0
5613,42.0,6.0,120.0,10.0,0.0
5614,73.0,60.0,60.0,2.0,0.0
5615,76.0,54.0,60.0,2.0,0.0
5616,59.0,6.0,120.0,10.0,0.0
5617,66.0,12.0,210.0,7.0,0.0
5618,71.0,0.0,120.0,3.0,0.0
5619,47.0,0.0,120.0,10.0,0.0
5620,75.0,60.0,60.0,2.0,0.0
5621,45.0,0.0,120.0,10.0,0.0
5622,57.0,0.0,120.0,10.0,0.0
5623,69.0,6.0,120.0,3.0,0.0
5624,73.0,42.0,60.0,2.0,0.0
5625,71.0,60.0,60.0,2.0,0.0
5626,68.0,0.0,120.0,3.0,0.0
5627,71.0,6.0,660.0,7.0,0.0
5628,56.0,6.0,120.0,10.0,0.0
5629,44.0,0.0,120.0,10.0,0.0
5630,83.0,54.0,60.0,2.0,0.0
5631,75.0,60.0,60.0,2.0,0.0
5632,83.0,42.0,60.0,2.0,0.0
5633,69.0,0.0,120.0,3.0,0.0
5634,57.0,6.0,120.0,10.0,0.0
5635,45.0,0.0,120.0,10.0,0.0
5636,75.0,60.0,60.0,2.0,0.0
5637,68.0,6.0,120.0,3.0,0.0
5638,75.0,12.0,210.0,6.0,0.0
5639,56.0,0.0,120.0,10.0,0.0
5640,44.0,0.0,120.0,10.0,0.0
5641,81.0,54.0,60.0,2.0,0.0
5642,75.0,60.0,60.0,2.0,0.0
5643,54.0,0.0,120.0,10.0,0.0
5644,66.0,0.0,120.0,3.0,0.0
5645,81.0,42.0,60.0,2.0,0.0
5646,42.0,6.0,120.0,10.0,0.0
5647,75.0,60.0,60.0,2.0,0.0
5648,40.0,0.0,120.0,10.0,0.0
5649,52.0,0.0,120.0,10.0,0.0
5650,64.0,6.0,120.0,3.0,0.0
5651,80.0,12.0,690.0,6.0,0.0
5652,80.0,54.0,60.0,2.0,0.0
5653,78.0,54.0,60.0,2.0,0.0
5654,56.0,0.0,120.0,10.0,0.0
5655,76.0,54.0,60.0,2.0,0.0
5656,44.0,0.0,120.0,10.0,0.0
5657,68.0,6.0,120.0,3.0,0.0
5658,75.0,60.0,60.0,2.0,0.0
5659,68.0,12.0,210.0,7.0,0.0
5660,78.0,54.0,60.0,2.0,0.0
5661,73.0,6.0,120.0,3.0,0.0
5662,49.0,0.0,120.0,10.0,0.0
5663,61.0,0.0,120.0,10.0,0.0
5664,76.0,60.0,60.0,2.0,0.0
5665,71.0,0.0,120.0,3.0,0.0
5666,47.0,6.0,120.0,10.0,0.0
5667,59.0,0.0,120.0,10.0,0.0
5668,75.0,42.0,60.0,2.0,0.0
5669,73.0,60.0,60.0,2.0,0.0
5670,45.0,0.0,120.0,10.0,0.0
5671,57.0,6.0,120.0,10.0,0.0
5672,85.0,54.0,60.0,2.0,0.0
5673,69.0,0.0,120.0,3.0,0.0
5674,73.0,6.0,660.0,7.0,0.0
5675,76.0,60.0,60.0,2.0,0.0
5676,85.0,42.0,60.0,2.0,0.0
5677,59.0,0.0,120.0,10.0,0.0
5678,71.0,0.0,120.0,3.0,0.0
5679,47.0,6.0,120.0,10.0,0.0
5680,76.0,60.0,60.0,2.0,0.0
5681,69.0,6.0,120.0,3.0,0.0
5682,57.0,0.0,120.0,10.0,0.0
5683,45.0,0.0,120.0,10.0,0.0
5684,76.0,12.0,210.0,6.0,0.0
5685,83.0,54.0,60.0,2.0,0.0
5686,76.0,60.0,60.0,2.0,0.0
5687,56.0,0.0,120.0,10.0,0.0
5688,44.0,0.0,120.0,10.0,0.0
5689,68.0,6.0,120.0,3.0,0.0
5690,83.0,42.0,60.0,2.0,0.0
5691,76.0,60.0,60.0,2.0,0.0
5692,66.0,6.0,120.0,3.0,0.0
5693,81.0,54.0,60.0,2.0,0.0
5694,81.0,36.0,900.0,6.0,0.0
5695,54.0,0.0,120.0,10.0,0.0
5696,42.0,0.0,120.0,10.0,0.0
5697,80.0,54.0,60.0,2.0,0.0
5698,52.0,0.0,120.0,10.0,0.0
5699,40.0,6.0,120.0,10.0,0.0
5700,78.0,54.0,60.0,2.0,0.0
5701,68.0,0.0,120.0,3.0,0.0
5702,76.0,60.0,60.0,2.0,0.0
5703,39.0,0.0,120.0,10.0,0.0
5704,51.0,0.0,120.0,10.0,0.0
5705,66.0,12.0,210.0,7.0,0.0
5706,78.0,54.0,60.0,2.0,0.0
5707,69.0,6.0,120.0,3.0,0.0
5708,76.0,60.0,60.0,2.0,0.0
5709,75.0,42.0,60.0,2.0,0.0
5710,37.0,0.0,120.0,10.0,0.0
5711,49.0,6.0,120.0,10.0,0.0
5712,66.0,0.0,120.0,3.0,0.0
5713,73.0,60.0,60.0,2.0,0.0
5714,35.0,12.0,5010.0,10.0,0.0
5715,75.0,12.0,210.0,7.0,0.0
5716,75.0,54.0,60.0,2.0,0.0
5717,47.0,0.0,5010.0,10.0,0.0
5718,71.0,6.0,120.0,3.0,0.0
5719,78.0,60.0,60.0,2.0,0.0
5720,75.0,42.0,60.0,2.0,0.0
5721,66.0,6.0,120.0,3.0,0.0
5722,71.0,60.0,60.0,2.0,0.0
5723,78.0,36.0,420.0,7.0,0.0
5724,63.0,6.0,120.0,3.0,0.0
5725,78.0,54.0,60.0,2.0,0.0
5726,81.0,60.0,60.0,2.0,0.0
5727,59.0,6.0,120.0,3.0,0.0
5728,78.0,18.0,60.0,2.0,0.0
5729,71.0,60.0,60.0,2.0,0.0
5730,78.0,54.0,60.0,2.0,0.0
5731,64.0,6.0,120.0,3.0,0.0
5732,80.0,24.0,420.0,6.0,0.0
5733,80.0,60.0,60.0,2.0,0.0
5734,78.0,18.0,60.0,2.0,0.0
5735,66.0,6.0,120.0,3.0,0.0
5736,71.0,60.0,60.0,2.0,0.0
5737,76.0,12.0,210.0,7.0,0.0
5738,76.0,54.0,60.0,2.0,0.0
5739,68.0,6.0,120.0,3.0,0.0
5740,80.0,60.0,60.0,2.0,0.0
5741,76.0,18.0,60.0,2.0,0.0
5742,58.0,6.0,120.0,3.0,0.0
5743,71.0,60.0,60.0,2.0,0.0
5744,59.0,6.0,120.0,3.0,0.0
5745,78.0,12.0,210.0,6.0,0.0
5746,76.0,0.0,210.0,7.0,0.0
5747,76.0,54.0,60.0,2.0,0.0
5748,78.0,60.0,60.0,2.0,0.0
5749,76.0,42.0,60.0,2.0,0.0
5750,61.0,6.0,120.0,3.0,0.0
5751,71.0,60.0,60.0,2.0,0.0
5752,83.0,12.0,210.0,6.0,0.0
5753,75.0,36.0,420.0,7.0,0.0
5754,75.0,54.0,60.0,2.0,0.0
5755,63.0,6.0,120.0,3.0,0.0
5756,83.0,60.0,60.0,2.0,0.0
5757,59.0,6.0,120.0,3.0,0.0
5758,75.0,42.0,60.0,2.0,0.0
5759,71.0,60.0,60.0,2.0,0.0
5760,76.0,36.0,420.0,6.0,0.0
5761,56.0,6.0,120.0,3.0,0.0
5762,75.0,54.0,60.0,2.0,0.0
5763,76.0,60.0,60.0,2.0,0.0
5764,75.0,18.0,60.0,2.0,0.0
5765,61.0,6.0,120.0,3.0,0.0
5766,68.0,60.0,60.0,2.0,0.0
5767,73.0,0.0,450.0,7.0,0.0
5768,73.0,54.0,60.0,2.0,0.0
5769,58.0,6.0,120.0,3.0,0.0
5770,76.0,60.0,60.0,2.0,0.0
5771,54.0,6.0,120.0,3.0,0.0
5772,73.0,18.0,60.0,2.0,0.0
5773,70.0,60.0,60.0,2.0,0.0
5774,75.0,12.0,210.0,6.0,0.0
5775,73.0,54.0,60.0,2.0,0.0
5776,59.0,6.0,120.0,3.0,0.0
5777,75.0,60.0,60.0,2.0,0.0
5778,57.0,6.0,120.0,3.0,0.0
5779,73.0,42.0,60.0,2.0,0.0
5780,66.0,60.0,60.0,2.0,0.0
5781,80.0,12.0,210.0,6.0,0.0
5782,71.0,36.0,420.0,7.0,0.0
5783,56.0,6.0,120.0,3.0,0.0
5784,71.0,54.0,60.0,2.0,0.0
5785,80.0,60.0,60.0,2.0,0.0
5786,71.0,42.0,60.0,2.0,0.0
5787,54.0,6.0,120.0,3.0,0.0
5788,68.0,60.0,60.0,2.0,0.0
5789,52.0,6.0,120.0,3.0,0.0
5790,73.0,36.0,420.0,6.0,0.0
5791,71.0,54.0,60.0,2.0,0.0
5792,73.0,60.0,60.0,2.0,0.0
5793,71.0,18.0,60.0,2.0,0.0
5794,56.0,6.0,120.0,3.0,0.0
5795,64.0,60.0,60.0,2.0,0.0
5796,54.0,6.0,120.0,3.0,0.0
5797,69.0,54.0,60.0,2.0,0.0
5798,69.0,0.0,450.0,7.0,0.0
5799,73.0,60.0,60.0,2.0,0.0
5800,52.0,6.0,120.0,3.0,0.0
5801,69.0,18.0,60.0,2.0,0.0
5802,66.0,60.0,60.0,2.0,0.0
5803,69.0,54.0,60.0,2.0,0.0
5804,71.0,12.0,210.0,6.0,0.0
5805,51.0,6.0,120.0,3.0,0.0
5806,71.0,60.0,60.0,2.0,0.0
5807,69.0,42.0,60.0,2.0,0.0
5808,54.0,6.0,120.0,3.0,0.0
5809,63.0,60.0,60.0,2.0,0.0
5810,68.0,54.0,60.0,2.0,0.0
5811,52.0,6.0,120.0,3.0,0.0
5812,76.0,12.0,210.0,6.0,0.0
5813,68.0,36.0,420.0,7.0,0.0
5814,76.0,60.0,60.0,2.0,0.0
5815,68.0,42.0,60.0,2.0,0.0
5816,51.0,6.0,120.0,3.0,0.0
5817,64.0,60.0,60.0,2.0,0.0
5818,69.0,36.0,420.0,6.0,0.0
5819,68.0,54.0,60.0,2.0,0.0
5820,49.0,6.0,120.0,3.0,0.0
5821,69.0,60.0,60.0,2.0,0.0
5822,68.0,18.0,60.0,2.0,0.0
5823,52.0,6.0,120.0,3.0,0.0
5824,61.0,60.0,60.0,2.0,0.0
5825,66.0,12.0,450.0,7.0,0.0
5826,51.0,6.0,120.0,3.0,0.0
5827,66.0,54.0,60.0,2.0,0.0
5828,69.0,60.0,60.0,2.0,0.0
5829,66.0,18.0,60.0,2.0,0.0
5830,54.0,6.0,120.0,3.0,0.0
5831,63.0,60.0,60.0,2.0,0.0
5832,52.0,6.0,120.0,3.0,0.0
5833,66.0,54.0,60.0,2.0,0.0
5834,68.0,6.0,660.0,6.0,0.0
5835,68.0,60.0,60.0,2.0,0.0
5836,66.0,42.0,60.0,2.0,0.0
5837,54.0,6.0,120.0,3.0,0.0
5838,63.0,60.0,60.0,2.0,0.0
5839,64.0,6.0,120.0,7.0,0.0
5840,64.0,54.0,60.0,2.0,0.0
5841,56.0,0.0,120.0,3.0,0.0
5842,68.0,60.0,60.0,2.0,0.0
5843,63.0,0.0,120.0,7.0,0.0
5844,66.0,54.0,60.0,2.0,0.0
5845,57.0,6.0,120.0,3.0,0.0
5846,64.0,60.0,60.0,2.0,0.0
5847,64.0,18.0,210.0,7.0,0.0
5848,71.0,60.0,60.0,2.0,0.0
5849,56.0,0.0,60.0,3.0,0.0
5850,59.0,0.0,60.0,3.0,0.0
5851,75.0,54.0,60.0,2.0,0.0
5852,73.0,0.0,60.0,2.0,0.0
5853,58.0,42.0,60.0,3.0,0.0
5854,56.0,60.0,60.0,3.0,0.0
5855,71.0,0.0,60.0,2.0,0.0
5856,76.0,60.0,60.0,2.0,0.0
5857,61.0,18.0,210.0,7.0,0.0
5858,70.0,0.0,210.0,6.0,0.0
5859,54.0,0.0,60.0,3.0,0.0
5860,80.0,0.0,60.0,2.0,0.0
5861,52.0,60.0,60.0,3.0,0.0
5862,51.0,0.0,60.0,3.0,0.0
5863,78.0,42.0,60.0,2.0,0.0
5864,76.0,222.0,60.0,2.0,0.0
5865,49.0,0.0,60.0,3.0,0.0
5866,47.0,0.0,210.0,3.0,0.0
5867,63.0,0.0,210.0,7.0,0.0
5868,75.0,0.0,210.0,2.0,0.0
5869,71.0,0.0,210.0,6.0,0.0
5870,54.0,0.0,120.0,5.0,0.0
5871,70.0,120.0,120.0,4.0,0.0
5872,45.0,12.0,210.0,10.0,0.0
5873,33.0,0.0,210.0,10.0,0.0
5874,56.0,0.0,120.0,5.0,0.0
5875,71.0,108.0,120.0,4.0,0.0
5876,73.0,228.0,120.0,4.0,0.0
5877,58.0,0.0,120.0,5.0,0.0
5878,74.0,108.0,600.0,4.0,0.0
5879,32.0,0.0,210.0,10.0,0.0
5880,59.0,0.0,690.0,5.0,0.0
5881,44.0,12.0,210.0,10.0,0.0
5882,78.0,120.0,120.0,2.0,0.0
5883,62.0,0.0,120.0,3.0,0.0
5884,64.0,0.0,120.0,3.0,0.0
5885,42.0,12.0,210.0,10.0,0.0
5886,30.0,0.0,210.0,10.0,0.0
5887,80.0,108.0,120.0,2.0,0.0
5888,66.0,120.0,120.0,3.0,0.0
5889,81.0,0.0,120.0,2.0,0.0
5890,83.0,12.0,210.0,2.0,0.0
5891,40.0,0.0,210.0,10.0,0.0
5892,28.0,0.0,210.0,10.0,0.0
5893,64.0,0.0,210.0,3.0,0.0
5894,76.0,0.0,120.0,4.0,0.0
5895,59.0,120.0,120.0,0.0,0.0
5896,81.0,24.0,420.0,6.0,0.0
5897,74.0,0.0,120.0,4.0,0.0
5898,52.0,0.0,210.0,5.0,0.0
5899,57.0,0.0,210.0,8.0,0.0
5900,76.0,0.0,210.0,7.0,0.0
5901,33.0,0.0,210.0,10.0,0.0
5902,45.0,12.0,210.0,1.0,0.0
5903,45.0,0.0,210.0,10.0,0.0
5904,61.0,108.0,120.0,0.0,0.0
5905,69.0,0.0,210.0,3.0,0.0
5906,81.0,0.0,420.0,2.0,0.0
5907,62.0,0.0,120.0,0.0,0.0
5908,73.0,120.0,120.0,4.0,0.0
5909,52.0,0.0,210.0,10.0,0.0
5910,71.0,84.0,120.0,4.0,0.0
5911,52.0,0.0,210.0,1.0,0.0
5912,64.0,6.0,600.0,5.0,0.0
5913,76.0,0.0,210.0,7.0,0.0
5914,64.0,24.0,330.0,3.0,0.0
5915,64.0,24.0,420.0,0.0,0.0
5916,59.0,0.0,210.0,8.0,0.0
5917,40.0,12.0,210.0,10.0,0.0
5918,73.0,0.0,120.0,4.0,0.0
5919,57.0,96.0,120.0,0.0,0.0
5920,59.0,0.0,120.0,0.0,0.0
5921,71.0,0.0,210.0,8.0,0.0
5922,40.0,0.0,210.0,1.0,0.0
5923,40.0,0.0,210.0,10.0,0.0
5924,74.0,84.0,120.0,4.0,0.0
5925,80.0,0.0,210.0,6.0,0.0
5926,28.0,12.0,210.0,10.0,0.0
5927,80.0,0.0,210.0,2.0,0.0
5928,76.0,0.0,210.0,7.0,0.0
5929,56.0,66.0,120.0,0.0,0.0
5930,62.0,0.0,120.0,3.0,0.0
5931,71.0,0.0,120.0,4.0,0.0
5932,81.0,0.0,120.0,2.0,0.0
5933,57.0,0.0,210.0,10.0,0.0
5934,45.0,0.0,210.0,10.0,0.0
5935,81.0,0.0,210.0,6.0,0.0
5936,52.0,54.0,60.0,0.0,0.0
5937,73.0,0.0,210.0,8.0,0.0
5938,45.0,12.0,210.0,1.0,0.0
5939,76.0,0.0,210.0,7.0,0.0
5940,73.0,24.0,420.0,4.0,0.0
5941,61.0,0.0,120.0,3.0,0.0
5942,62.0,60.0,60.0,0.0,0.0
5943,62.0,0.0,120.0,5.0,0.0
5944,61.0,42.0,60.0,0.0,0.0
5945,76.0,0.0,120.0,2.0,0.0
5946,61.0,6.0,120.0,3.0,0.0
5947,59.0,114.0,60.0,0.0,0.0
5948,78.0,0.0,120.0,2.0,0.0
5949,63.0,0.0,120.0,3.0,0.0
5950,56.0,0.0,210.0,10.0,0.0
5951,44.0,12.0,210.0,10.0,0.0
5952,57.0,0.0,210.0,0.0,0.0
5953,61.0,84.0,120.0,5.0,0.0
5954,64.0,0.0,120.0,3.0,0.0
5955,59.0,0.0,120.0,5.0,0.0
5956,80.0,120.0,120.0,2.0,0.0
5957,42.0,0.0,210.0,10.0,0.0
5958,54.0,12.0,210.0,10.0,0.0
5959,66.0,0.0,690.0,3.0,0.0
5960,81.0,108.0,600.0,2.0,0.0
5961,61.0,108.0,120.0,5.0,0.0
5962,57.0,0.0,120.0,5.0,0.0
5963,73.0,120.0,120.0,4.0,0.0
5964,59.0,0.0,120.0,5.0,0.0
5965,75.0,108.0,120.0,4.0,0.0
5966,40.0,12.0,210.0,10.0,0.0
5967,52.0,0.0,210.0,10.0,0.0
5968,61.0,0.0,120.0,5.0,0.0
5969,76.0,120.0,120.0,4.0,0.0
5970,51.0,0.0,210.0,10.0,0.0
5971,59.0,0.0,210.0,5.0,0.0
5972,39.0,12.0,210.0,10.0,0.0
5973,78.0,0.0,210.0,4.0,0.0
5974,83.0,120.0,120.0,2.0,0.0
5975,66.0,0.0,120.0,0.0,0.0
5976,81.0,0.0,120.0,2.0,0.0
5977,52.0,0.0,210.0,1.0,0.0
5978,76.0,0.0,420.0,4.0,0.0
5979,68.0,108.0,120.0,0.0,0.0
5980,71.0,12.0,210.0,7.0,0.0
5981,40.0,0.0,210.0,10.0,0.0
5982,59.0,0.0,210.0,3.0,0.0
5983,52.0,0.0,210.0,10.0,0.0
5984,64.0,0.0,210.0,5.0,0.0
5985,64.0,0.0,210.0,8.0,0.0
5986,76.0,24.0,420.0,6.0,0.0
5987,80.0,120.0,120.0,2.0,0.0
5988,69.0,0.0,120.0,0.0,0.0
5989,59.0,0.0,210.0,10.0,0.0
5990,66.0,12.0,210.0,8.0,0.0
5991,71.0,0.0,600.0,0.0,0.0
5992,71.0,0.0,210.0,7.0,0.0
5993,59.0,24.0,330.0,5.0,0.0
5994,78.0,84.0,120.0,2.0,0.0
5995,59.0,0.0,210.0,1.0,0.0
5996,47.0,0.0,210.0,10.0,0.0
5997,71.0,0.0,600.0,3.0,0.0
5998,64.0,96.0,120.0,0.0,0.0
5999,80.0,0.0,120.0,2.0,0.0
6000,75.0,0.0,210.0,6.0,0.0
6001,66.0,0.0,210.0,8.0,0.0
6002,47.0,12.0,210.0,10.0,0.0
6003,71.0,0.0,210.0,7.0,0.0
6004,66.0,0.0,120.0,0.0,0.0
6005,47.0,0.0,210.0,1.0,0.0
6006,75.0,0.0,210.0,4.0,0.0
6007,35.0,0.0,210.0,10.0,0.0
6008,81.0,108.0,120.0,2.0,0.0
6009,78.0,120.0,120.0,2.0,0.0
6010,57.0,0.0,120.0,5.0,0.0
6011,63.0,0.0,120.0,0.0,0.0
6012,68.0,0.0,210.0,8.0,0.0
6013,56.0,0.0,120.0,5.0,0.0
6014,71.0,0.0,210.0,7.0,0.0
6015,40.0,0.0,210.0,10.0,0.0
6016,52.0,0.0,210.0,10.0,0.0
6017,68.0,108.0,120.0,0.0,0.0
6018,76.0,0.0,600.0,4.0,0.0
6019,76.0,12.0,210.0,6.0,0.0
6020,52.0,0.0,120.0,1.0,0.0
6021,80.0,0.0,600.0,2.0,0.0
6022,57.0,0.0,120.0,3.0,0.0
6023,68.0,0.0,120.0,0.0,0.0
6024,54.0,120.0,120.0,5.0,0.0
6025,83.0,0.0,120.0,0.0,0.0
6026,52.0,108.0,120.0,5.0,0.0
6027,56.0,0.0,120.0,3.0,0.0
6028,70.0,0.0,120.0,0.0,0.0
6029,51.0,12.0,210.0,10.0,0.0
6030,85.0,0.0,120.0,0.0,0.0
6031,39.0,0.0,210.0,10.0,0.0
6032,51.0,0.0,120.0,5.0,0.0
6033,71.0,0.0,120.0,0.0,0.0
6034,54.0,0.0,120.0,3.0,0.0
6035,87.0,120.0,120.0,0.0,0.0
6036,73.0,0.0,690.0,0.0,0.0
6037,88.0,108.0,600.0,0.0,0.0
6038,49.0,0.0,120.0,5.0,0.0
6039,52.0,108.0,120.0,3.0,0.0
6040,49.0,12.0,210.0,10.0,0.0
6041,37.0,0.0,210.0,10.0,0.0
6042,64.0,120.0,120.0,3.0,0.0
6043,78.0,0.0,120.0,4.0,0.0
6044,51.0,0.0,120.0,5.0,0.0
6045,80.0,0.0,120.0,2.0,0.0
6046,49.0,108.0,120.0,5.0,0.0
6047,76.0,0.0,120.0,4.0,0.0
6048,47.0,0.0,210.0,10.0,0.0
6049,82.0,0.0,120.0,2.0,0.0
6050,35.0,12.0,210.0,10.0,0.0
6051,66.0,0.0,120.0,3.0,0.0
6052,47.0,0.0,120.0,5.0,0.0
6053,75.0,0.0,120.0,4.0,0.0
6054,68.0,120.0,120.0,3.0,0.0
6055,83.0,0.0,120.0,2.0,0.0
6056,46.0,0.0,210.0,10.0,0.0
6057,85.0,12.0,210.0,2.0,0.0
6058,73.0,0.0,120.0,4.0,0.0
6059,46.0,0.0,210.0,5.0,0.0
6060,70.0,0.0,120.0,3.0,0.0
6061,34.0,0.0,210.0,10.0,0.0
6062,87.0,0.0,120.0,0.0,0.0
6063,66.0,120.0,120.0,4.0,0.0
6064,66.0,0.0,120.0,3.0,0.0
6065,35.0,0.0,210.0,10.0,0.0
6066,63.0,108.0,120.0,3.0,0.0
6067,78.0,0.0,210.0,7.0,0.0
6068,47.0,0.0,210.0,10.0,0.0
6069,47.0,0.0,210.0,5.0,0.0
6070,88.0,0.0,120.0,0.0,0.0
6071,78.0,0.0,210.0,4.0,0.0
6072,71.0,0.0,210.0,8.0,0.0
6073,83.0,24.0,420.0,6.0,0.0
6074,66.0,12.0,210.0,0.0,0.0
6075,83.0,0.0,420.0,2.0,0.0
6076,87.0,120.0,120.0,0.0,0.0
6077,59.0,0.0,120.0,3.0,0.0
6078,42.0,0.0,210.0,10.0,0.0
6079,78.0,0.0,210.0,7.0,0.0
6080,78.0,18.0,690.0,0.0,0.0
6081,73.0,0.0,210.0,8.0,0.0
6082,88.0,0.0,120.0,0.0,0.0
6083,54.0,0.0,210.0,10.0,0.0
6084,61.0,84.0,120.0,3.0,0.0
6085,54.0,12.0,210.0,5.0,0.0
6086,78.0,24.0,420.0,4.0,0.0
6087,87.0,120.0,120.0,0.0,0.0
6088,71.0,0.0,120.0,4.0,0.0
6089,66.0,0.0,120.0,3.0,0.0
6090,78.0,12.0,210.0,7.0,0.0
6091,73.0,0.0,210.0,8.0,0.0
6092,82.0,0.0,210.0,2.0,0.0
6093,82.0,0.0,210.0,6.0,0.0
6094,88.0,84.0,120.0,0.0,0.0
6095,42.0,0.0,210.0,10.0,0.0
6096,73.0,0.0,120.0,4.0,0.0
6097,42.0,0.0,210.0,5.0,0.0
6098,30.0,0.0,210.0,10.0,0.0
6099,64.0,0.0,120.0,3.0,0.0
6100,85.0,0.0,120.0,0.0,0.0
6101,70.0,66.0,120.0,4.0,0.0
6102,66.0,0.0,120.0,3.0,0.0
6103,66.0,60.0,60.0,4.0,0.0
6104,47.0,0.0,210.0,5.0,0.0
6105,71.0,0.0,210.0,8.0,0.0
6106,83.0,0.0,210.0,2.0,0.0
6107,87.0,72.0,870.0,6.0,0.0
6108,59.0,0.0,210.0,3.0,0.0
6109,87.0,0.0,870.0,0.0,0.0
6110,78.0,0.0,210.0,7.0,0.0
6111,76.0,60.0,60.0,4.0,0.0
6112,75.0,42.0,60.0,4.0,0.0
6113,73.0,114.0,60.0,4.0,0.0
6114,71.0,0.0,210.0,4.0,0.0
6115,47.0,108.0,120.0,1.0,0.0
6116,78.0,12.0,210.0,2.0,0.0
6117,47.0,0.0,120.0,5.0,0.0
6118,47.0,0.0,120.0,10.0,0.0
6119,35.0,0.0,120.0,10.0,0.0
6120,47.0,0.0,120.0,3.0,0.0
6121,78.0,0.0,210.0,7.0,0.0
6122,46.0,0.0,120.0,10.0,0.0
6123,34.0,0.0,120.0,10.0,0.0
6124,46.0,0.0,120.0,1.0,0.0
6125,46.0,120.0,120.0,5.0,0.0
6126,46.0,0.0,120.0,3.0,0.0
6127,47.0,0.0,120.0,5.0,0.0
6128,35.0,0.0,120.0,10.0,0.0
6129,83.0,0.0,210.0,7.0,0.0
6130,47.0,0.0,120.0,10.0,0.0
6131,83.0,12.0,210.0,2.0,0.0
6132,47.0,0.0,120.0,3.0,0.0
6133,47.0,108.0,120.0,1.0,0.0
6134,49.0,0.0,120.0,1.0,0.0
6135,49.0,0.0,120.0,10.0,0.0
6136,49.0,0.0,120.0,3.0,0.0
6137,37.0,0.0,120.0,10.0,0.0
6138,49.0,120.0,120.0,5.0,0.0
6139,51.0,0.0,120.0,5.0,0.0
6140,51.0,0.0,120.0,3.0,0.0
6141,83.0,12.0,210.0,7.0,0.0
6142,51.0,0.0,120.0,1.0,0.0
6143,39.0,0.0,120.0,10.0,0.0
6144,83.0,0.0,210.0,2.0,0.0
6145,51.0,36.0,120.0,10.0,0.0
6146,52.0,0.0,120.0,3.0,0.0
6147,52.0,0.0,120.0,5.0,0.0
6148,40.0,0.0,120.0,10.0,0.0
6149,52.0,120.0,120.0,1.0,0.0
6150,52.0,0.0,120.0,10.0,0.0
6151,83.0,12.0,210.0,7.0,0.0
6152,83.0,0.0,210.0,2.0,0.0
6153,54.0,0.0,120.0,10.0,0.0
6154,85.0,12.0,1170.0,6.0,0.0
6155,85.0,0.0,1170.0,0.0,0.0
6156,54.0,0.0,120.0,5.0,0.0
6157,54.0,0.0,120.0,1.0,0.0
6158,42.0,0.0,120.0,10.0,0.0
6159,54.0,108.0,120.0,3.0,0.0
6160,53.0,0.0,120.0,10.0,0.0
6161,53.0,0.0,120.0,1.0,0.0
6162,53.0,0.0,120.0,3.0,0.0
6163,53.0,0.0,120.0,5.0,0.0
6164,41.0,120.0,120.0,10.0,0.0
6165,54.0,0.0,120.0,1.0,0.0
6166,73.0,12.0,210.0,8.0,0.0
6167,82.0,0.0,120.0,7.0,0.0
6168,82.0,0.0,120.0,2.0,0.0
6169,73.0,0.0,210.0,4.0,0.0
6170,54.0,108.0,120.0,3.0,0.0
6171,42.0,0.0,120.0,10.0,0.0
6172,54.0,0.0,120.0,10.0,0.0
6173,54.0,0.0,120.0,5.0,0.0
6174,56.0,0.0,120.0,5.0,0.0
6175,56.0,0.0,120.0,1.0,0.0
6176,80.0,0.0,120.0,7.0,0.0
6177,56.0,0.0,120.0,3.0,0.0
6178,80.0,0.0,120.0,2.0,0.0
6179,56.0,0.0,120.0,10.0,0.0
6180,44.0,120.0,120.0,10.0,0.0
6181,46.0,0.0,120.0,10.0,0.0
6182,78.0,0.0,210.0,8.0,0.0
6183,78.0,0.0,120.0,2.0,0.0
6184,58.0,108.0,120.0,1.0,0.0
6185,58.0,0.0,120.0,5.0,0.0
6186,78.0,0.0,120.0,7.0,0.0
6187,58.0,0.0,120.0,10.0,0.0
6188,78.0,12.0,210.0,4.0,0.0
6189,58.0,0.0,120.0,3.0,0.0
6190,44.0,120.0,120.0,10.0,0.0
6191,56.0,0.0,120.0,3.0,0.0
6192,80.0,0.0,120.0,2.0,0.0
6193,56.0,0.0,120.0,10.0,0.0
6194,80.0,0.0,120.0,7.0,0.0
6195,56.0,0.0,120.0,5.0,0.0
6196,56.0,0.0,120.0,1.0,0.0
6197,58.0,0.0,120.0,5.0,0.0
6198,58.0,0.0,120.0,1.0,0.0
6199,76.0,0.0,120.0,7.0,0.0
6200,78.0,12.0,210.0,8.0,0.0
6201,78.0,0.0,210.0,4.0,0.0
6202,58.0,0.0,120.0,10.0,0.0
6203,76.0,0.0,120.0,2.0,0.0
6204,58.0,108.0,120.0,3.0,0.0
6205,46.0,0.0,120.0,10.0,0.0
6206,54.0,0.0,120.0,3.0,0.0
6207,54.0,0.0,120.0,10.0,0.0
6208,78.0,120.0,120.0,7.0,0.0
6209,78.0,0.0,120.0,2.0,0.0
6210,54.0,0.0,120.0,1.0,0.0
6211,54.0,0.0,120.0,5.0,0.0
6212,42.0,0.0,120.0,10.0,0.0
6213,59.0,108.0,120.0,3.0,0.0
6214,59.0,0.0,120.0,5.0,0.0
6215,59.0,0.0,120.0,10.0,0.0
6216,75.0,0.0,600.0,7.0,0.0
6217,78.0,0.0,210.0,8.0,0.0
6218,59.0,0.0,120.0,1.0,0.0
6219,78.0,0.0,210.0,4.0,0.0
6220,75.0,0.0,120.0,2.0,0.0
6221,47.0,0.0,120.0,10.0,0.0
6222,58.0,0.0,120.0,5.0,0.0
6223,73.0,0.0,120.0,2.0,0.0
6224,58.0,120.0,120.0,10.0,0.0
6225,58.0,0.0,120.0,3.0,0.0
6226,46.0,0.0,120.0,10.0,0.0
6227,58.0,0.0,120.0,1.0,0.0
6228,80.0,120.0,120.0,8.0,0.0
6229,83.0,0.0,120.0,0.0,0.0
6230,59.0,0.0,120.0,3.0,0.0
6231,83.0,0.0,120.0,6.0,0.0
6232,47.0,0.0,120.0,10.0,0.0
6233,75.0,120.0,360.0,2.0,0.0
6234,59.0,0.0,120.0,5.0,0.0
6235,59.0,0.0,120.0,1.0,0.0
6236,59.0,0.0,120.0,10.0,0.0
6237,80.0,0.0,120.0,4.0,0.0
6238,61.0,0.0,120.0,10.0,0.0
6239,78.0,0.0,120.0,4.0,0.0
6240,82.0,0.0,120.0,0.0,0.0
6241,78.0,120.0,120.0,8.0,0.0
6242,82.0,0.0,120.0,6.0,0.0
6243,61.0,0.0,120.0,5.0,0.0
6244,61.0,0.0,120.0,1.0,0.0
6245,61.0,0.0,120.0,3.0,0.0
6246,49.0,0.0,120.0,10.0,0.0
6247,76.0,0.0,120.0,4.0,0.0
6248,80.0,0.0,120.0,0.0,0.0
6249,80.0,0.0,120.0,6.0,0.0
6250,59.0,0.0,120.0,10.0,0.0
6251,59.0,0.0,120.0,1.0,0.0
6252,59.0,0.0,120.0,3.0,0.0
6253,76.0,12.0,690.0,8.0,0.0
6254,59.0,0.0,120.0,5.0,0.0
6255,47.0,0.0,120.0,10.0,0.0
6256,71.0,0.0,120.0,7.0,0.0
6257,63.0,120.0,120.0,10.0,0.0
6258,63.0,0.0,120.0,5.0,0.0
6259,71.0,0.0,120.0,2.0,0.0
6260,51.0,0.0,120.0,10.0,0.0
6261,83.0,0.0,120.0,6.0,0.0
6262,63.0,0.0,120.0,3.0,0.0
6263,83.0,0.0,120.0,0.0,0.0
6264,75.0,0.0,120.0,4.0,0.0
6265,63.0,0.0,120.0,1.0,0.0
6266,76.0,0.0,450.0,4.0,0.0
6267,82.0,0.0,120.0,0.0,0.0
6268,61.0,0.0,120.0,10.0,0.0
6269,61.0,0.0,120.0,1.0,0.0
6270,73.0,0.0,120.0,7.0,0.0
6271,73.0,0.0,120.0,2.0,0.0
6272,49.0,0.0,120.0,10.0,0.0
6273,61.0,0.0,120.0,3.0,0.0
6274,61.0,120.0,120.0,5.0,0.0
6275,82.0,0.0,120.0,6.0,0.0
6276,59.0,0.0,120.0,3.0,0.0
6277,75.0,0.0,120.0,7.0,0.0
6278,59.0,0.0,120.0,10.0,0.0
6279,47.0,120.0,120.0,10.0,0.0
6280,80.0,0.0,120.0,0.0,0.0
6281,80.0,0.0,120.0,6.0,0.0
6282,59.0,0.0,120.0,1.0,0.0
6283,59.0,0.0,120.0,5.0,0.0
6284,75.0,0.0,120.0,2.0,0.0
6285,78.0,72.0,870.0,6.0,0.0
6286,58.0,0.0,120.0,1.0,0.0
6287,78.0,0.0,870.0,0.0,0.0
6288,58.0,0.0,120.0,5.0,0.0
6289,58.0,0.0,120.0,3.0,0.0
6290,58.0,0.0,120.0,10.0,0.0
6291,73.0,0.0,120.0,7.0,0.0
6292,73.0,0.0,120.0,2.0,0.0
6293,46.0,108.0,120.0,10.0,0.0
6294,82.0,120.0,120.0,7.0,0.0
6295,61.0,0.0,120.0,1.0,0.0
6296,61.0,0.0,120.0,5.0,0.0
6297,49.0,0.0,120.0,10.0,0.0
6298,61.0,0.0,120.0,10.0,0.0
6299,82.0,0.0,120.0,2.0,0.0
6300,61.0,0.0,120.0,3.0,0.0
6301,83.0,0.0,120.0,2.0,0.0
6302,83.0,0.0,120.0,7.0,0.0
6303,75.0,0.0,120.0,4.0,0.0
6304,42.0,120.0,120.0,10.0,0.0
6305,75.0,0.0,120.0,8.0,0.0
6306,54.0,0.0,120.0,10.0,0.0
6307,54.0,0.0,120.0,1.0,0.0
6308,54.0,0.0,120.0,3.0,0.0
6309,54.0,0.0,120.0,5.0,0.0
6310,58.0,0.0,120.0,3.0,0.0
6311,85.0,0.0,120.0,2.0,0.0
6312,58.0,0.0,120.0,10.0,0.0
6313,73.0,0.0,120.0,4.0,0.0
6314,85.0,0.0,120.0,7.0,0.0
6315,46.0,0.0,120.0,10.0,0.0
6316,58.0,120.0,120.0,5.0,0.0
6317,58.0,0.0,120.0,1.0,0.0
6318,73.0,0.0,120.0,8.0,0.0
6319,71.0,0.0,120.0,4.0,0.0
6320,47.0,0.0,120.0,10.0,0.0
6321,71.0,0.0,120.0,8.0,0.0
6322,87.0,12.0,210.0,7.0,0.0
6323,59.0,0.0,120.0,10.0,0.0
6324,59.0,0.0,120.0,3.0,0.0
6325,87.0,0.0,210.0,2.0,0.0
6326,59.0,0.0,120.0,1.0,0.0
6327,59.0,108.0,120.0,5.0,0.0
6328,70.0,0.0,120.0,4.0,0.0
6329,63.0,120.0,120.0,5.0,0.0
6330,63.0,0.0,120.0,3.0,0.0
6331,63.0,0.0,120.0,1.0,0.0
6332,51.0,0.0,120.0,10.0,0.0
6333,63.0,0.0,120.0,10.0,0.0
6334,70.0,0.0,120.0,8.0,0.0
6335,54.0,0.0,120.0,1.0,0.0
6336,54.0,0.0,120.0,3.0,0.0
6337,54.0,0.0,120.0,5.0,0.0
6338,71.0,0.0,120.0,8.0,0.0
6339,87.0,12.0,210.0,2.0,0.0
6340,42.0,0.0,120.0,10.0,0.0
6341,87.0,0.0,210.0,7.0,0.0
6342,54.0,36.0,120.0,10.0,0.0
6343,71.0,0.0,120.0,4.0,0.0
6344,58.0,0.0,120.0,1.0,0.0
6345,46.0,120.0,120.0,10.0,0.0
6346,66.0,0.0,120.0,4.0,0.0
6347,58.0,0.0,120.0,3.0,0.0
6348,66.0,0.0,120.0,8.0,0.0
6349,58.0,0.0,120.0,5.0,0.0
6350,58.0,0.0,120.0,10.0,0.0
6351,56.0,108.0,120.0,3.0,0.0
6352,87.0,0.0,210.0,7.0,0.0
6353,56.0,0.0,120.0,1.0,0.0
6354,56.0,0.0,120.0,5.0,0.0
6355,76.0,0.0,870.0,0.0,0.0
6356,56.0,0.0,120.0,10.0,0.0
6357,87.0,12.0,210.0,2.0,0.0
6358,76.0,72.0,870.0,6.0,0.0
6359,71.0,0.0,120.0,4.0,0.0
6360,71.0,0.0,120.0,8.0,0.0
6361,44.0,0.0,120.0,10.0,0.0
6362,59.0,120.0,120.0,5.0,0.0
6363,59.0,0.0,120.0,10.0,0.0
6364,70.0,0.0,120.0,8.0,0.0
6365,59.0,0.0,120.0,3.0,0.0
6366,59.0,0.0,120.0,1.0,0.0
6367,75.0,0.0,120.0,4.0,0.0
6368,47.0,0.0,120.0,10.0,0.0
6369,52.0,0.0,120.0,5.0,0.0
6370,52.0,0.0,120.0,1.0,0.0
6371,85.0,0.0,120.0,2.0,0.0
6372,85.0,0.0,120.0,7.0,0.0
6373,52.0,0.0,120.0,10.0,0.0
6374,40.0,0.0,120.0,10.0,0.0
6375,68.0,0.0,120.0,4.0,0.0
6376,68.0,0.0,360.0,8.0,0.0
6377,52.0,120.0,120.0,3.0,0.0
6378,56.0,0.0,120.0,10.0,0.0
6379,71.0,0.0,120.0,4.0,0.0
6380,44.0,0.0,120.0,10.0,0.0
6381,56.0,0.0,120.0,1.0,0.0
6382,56.0,0.0,120.0,3.0,0.0
6383,83.0,0.0,120.0,2.0,0.0
6384,56.0,120.0,120.0,5.0,0.0
6385,83.0,0.0,120.0,7.0,0.0
6386,85.0,0.0,210.0,7.0,0.0
6387,58.0,108.0,120.0,1.0,0.0
6388,46.0,0.0,120.0,10.0,0.0
6389,64.0,0.0,120.0,4.0,0.0
6390,58.0,0.0,120.0,10.0,0.0
6391,85.0,12.0,210.0,2.0,0.0
6392,58.0,0.0,120.0,5.0,0.0
6393,58.0,0.0,120.0,3.0,0.0
6394,61.0,0.0,120.0,5.0,0.0
6395,70.0,0.0,120.0,4.0,0.0
6396,70.0,0.0,120.0,8.0,0.0
6397,61.0,0.0,120.0,10.0,0.0
6398,61.0,0.0,120.0,1.0,0.0
6399,61.0,0.0,120.0,3.0,0.0
6400,49.0,120.0,120.0,10.0,0.0
6401,52.0,0.0,120.0,3.0,0.0
6402,85.0,0.0,210.0,7.0,0.0
6403,52.0,0.0,120.0,5.0,0.0
6404,40.0,0.0,120.0,10.0,0.0
6405,52.0,0.0,120.0,1.0,0.0
6406,85.0,12.0,210.0,2.0,0.0
6407,73.0,0.0,120.0,8.0,0.0
6408,73.0,36.0,120.0,4.0,0.0
6409,52.0,0.0,120.0,10.0,0.0
6410,56.0,0.0,120.0,3.0,0.0
6411,56.0,120.0,120.0,5.0,0.0
6412,56.0,0.0,120.0,1.0,0.0
6413,56.0,0.0,120.0,10.0,0.0
6414,44.0,0.0,120.0,10.0,0.0
6415,64.0,0.0,120.0,4.0,0.0
6416,64.0,0.0,120.0,8.0,0.0
6417,85.0,120.0,120.0,2.0,0.0
6418,42.0,0.0,120.0,10.0,0.0
6419,54.0,0.0,120.0,10.0,0.0
6420,75.0,0.0,870.0,6.0,0.0
6421,75.0,72.0,870.0,0.0,0.0
6422,85.0,0.0,120.0,7.0,0.0
6423,70.0,0.0,120.0,4.0,0.0
6424,70.0,0.0,120.0,8.0,0.0
6425,54.0,0.0,120.0,5.0,0.0
6426,54.0,0.0,120.0,1.0,0.0
6427,54.0,0.0,120.0,3.0,0.0
6428,46.0,0.0,120.0,10.0,0.0
6429,73.0,120.0,120.0,4.0,0.0
6430,78.0,0.0,120.0,7.0,0.0
6431,58.0,0.0,120.0,1.0,0.0
6432,73.0,0.0,120.0,8.0,0.0
6433,78.0,0.0,120.0,2.0,0.0
6434,58.0,0.0,120.0,10.0,0.0
6435,58.0,0.0,120.0,3.0,0.0
6436,58.0,0.0,120.0,5.0,0.0
6437,39.0,0.0,120.0,10.0,0.0
6438,80.0,120.0,120.0,2.0,0.0
6439,51.0,0.0,120.0,10.0,0.0
6440,51.0,0.0,120.0,1.0,0.0
6441,51.0,0.0,120.0,3.0,0.0
6442,51.0,0.0,120.0,5.0,0.0
6443,71.0,0.0,120.0,4.0,0.0
6444,71.0,0.0,120.0,8.0,0.0
6445,80.0,0.0,120.0,7.0,0.0
6446,70.0,0.0,120.0,4.0,0.0
6447,42.0,0.0,120.0,10.0,0.0
6448,54.0,0.0,120.0,3.0,0.0
6449,82.0,0.0,120.0,7.0,0.0
6450,54.0,0.0,120.0,10.0,0.0
6451,70.0,0.0,120.0,8.0,0.0
6452,82.0,120.0,120.0,2.0,0.0
6453,54.0,0.0,120.0,5.0,0.0
6454,54.0,0.0,120.0,1.0,0.0
6455,68.0,0.0,120.0,4.0,0.0
6456,83.0,12.0,210.0,2.0,0.0
6457,56.0,108.0,120.0,10.0,0.0
6458,68.0,12.0,690.0,8.0,0.0
6459,83.0,0.0,210.0,7.0,0.0
6460,56.0,0.0,120.0,1.0,0.0
6461,56.0,0.0,120.0,5.0,0.0
6462,44.0,0.0,120.0,10.0,0.0
6463,56.0,0.0,120.0,3.0,0.0
6464,47.0,0.0,120.0,10.0,0.0
6465,59.0,0.0,120.0,10.0,0.0
6466,59.0,0.0,120.0,1.0,0.0
6467,63.0,120.0,120.0,4.0,0.0
6468,59.0,0.0,120.0,5.0,0.0
6469,59.0,0.0,120.0,3.0,0.0
6470,51.0,36.0,120.0,1.0,0.0
6471,51.0,0.0,120.0,10.0,0.0
6472,51.0,0.0,120.0,5.0,0.0
6473,39.0,0.0,120.0,10.0,0.0
6474,68.0,0.0,120.0,4.0,0.0
6475,51.0,0.0,120.0,3.0,0.0
6476,83.0,0.0,210.0,2.0,0.0
6477,83.0,12.0,210.0,7.0,0.0
6478,42.0,120.0,120.0,10.0,0.0
6479,54.0,0.0,120.0,10.0,0.0
6480,66.0,0.0,120.0,4.0,0.0
6481,54.0,0.0,120.0,1.0,0.0
6482,54.0,0.0,120.0,5.0,0.0
6483,54.0,0.0,120.0,3.0,0.0
6484,83.0,0.0,210.0,2.0,0.0
6485,52.0,0.0,120.0,3.0,0.0
6486,83.0,0.0,210.0,7.0,0.0
6487,73.0,0.0,870.0,0.0,0.0
6488,40.0,108.0,120.0,10.0,0.0
6489,68.0,0.0,210.0,4.0,0.0
6490,73.0,84.0,870.0,6.0,0.0
6491,52.0,0.0,120.0,1.0,0.0
6492,52.0,0.0,120.0,5.0,0.0
6493,52.0,0.0,120.0,10.0,0.0
6494,56.0,120.0,120.0,1.0,0.0
6495,56.0,0.0,120.0,3.0,0.0
6496,56.0,0.0,120.0,5.0,0.0
6497,56.0,0.0,120.0,10.0,0.0
6498,44.0,0.0,120.0,10.0,0.0
6499,85.0,0.0,120.0,2.0,0.0
6500,37.0,108.0,120.0,10.0,0.0
6501,49.0,0.0,120.0,5.0,0.0
6502,64.0,0.0,210.0,4.0,0.0
6503,49.0,0.0,120.0,3.0,0.0
6504,64.0,12.0,210.0,8.0,0.0
6505,49.0,0.0,120.0,1.0,0.0
6506,49.0,0.0,120.0,10.0,0.0
6507,85.0,0.0,120.0,7.0,0.0
6508,83.0,120.0,120.0,2.0,0.0
6509,52.0,0.0,120.0,5.0,0.0
6510,52.0,0.0,120.0,3.0,0.0
6511,40.0,0.0,120.0,10.0,0.0
6512,52.0,0.0,120.0,10.0,0.0
6513,52.0,0.0,120.0,1.0,0.0
6514,83.0,0.0,120.0,7.0,0.0
6515,54.0,0.0,120.0,10.0,0.0
6516,54.0,108.0,120.0,5.0,0.0
6517,54.0,0.0,120.0,1.0,0.0
6518,82.0,0.0,120.0,2.0,0.0
6519,54.0,0.0,120.0,3.0,0.0
6520,42.0,0.0,120.0,10.0,0.0
6521,82.0,0.0,120.0,7.0,0.0
6522,61.0,12.0,210.0,4.0,0.0
6523,61.0,0.0,210.0,8.0,0.0
6524,46.0,120.0,120.0,10.0,0.0
6525,85.0,0.0,120.0,7.0,0.0
6526,85.0,0.0,120.0,2.0,0.0
6527,58.0,0.0,120.0,5.0,0.0
6528,58.0,0.0,120.0,3.0,0.0
6529,58.0,0.0,120.0,10.0,0.0
6530,58.0,0.0,120.0,1.0,0.0
6531,66.0,120.0,360.0,4.0,0.0
6532,66.0,0.0,360.0,8.0,0.0
6533,49.0,0.0,120.0,5.0,0.0
6534,37.0,0.0,120.0,10.0,0.0
6535,83.0,0.0,120.0,7.0,0.0
6536,49.0,0.0,120.0,3.0,0.0
6537,49.0,36.0,120.0,1.0,0.0
6538,83.0,0.0,120.0,2.0,0.0
6539,49.0,0.0,120.0,10.0,0.0
6540,52.0,0.0,120.0,3.0,0.0
6541,52.0,0.0,120.0,1.0,0.0
6542,40.0,0.0,120.0,10.0,0.0
6543,52.0,120.0,120.0,10.0,0.0
6544,82.0,0.0,120.0,2.0,0.0
6545,52.0,0.0,120.0,5.0,0.0
6546,82.0,0.0,120.0,7.0,0.0
6547,39.0,0.0,120.0,10.0,0.0
6548,83.0,0.0,120.0,7.0,0.0
6549,51.0,0.0,120.0,1.0,0.0
6550,51.0,0.0,120.0,10.0,0.0
6551,51.0,0.0,120.0,3.0,0.0
6552,71.0,0.0,600.0,6.0,0.0
6553,51.0,0.0,120.0,5.0,0.0
6554,71.0,0.0,600.0,0.0,0.0
6555,83.0,0.0,120.0,2.0,0.0
6556,78.0,0.0,120.0,7.0,0.0
6557,78.0,0.0,120.0,2.0,0.0
6558,54.0,0.0,120.0,10.0,0.0
6559,54.0,0.0,120.0,1.0,0.0
6560,71.0,0.0,120.0,4.0,0.0
6561,54.0,120.0,120.0,5.0,0.0
6562,71.0,0.0,120.0,8.0,0.0
6563,54.0,0.0,120.0,3.0,0.0
6564,42.0,0.0,120.0,10.0,0.0
6565,35.0,0.0,120.0,10.0,0.0
6566,75.0,0.0,120.0,2.0,0.0
6567,75.0,0.0,120.0,7.0,0.0
6568,47.0,0.0,120.0,1.0,0.0
6569,66.0,0.0,120.0,4.0,0.0
6570,66.0,0.0,120.0,8.0,0.0
6571,47.0,0.0,120.0,3.0,0.0
6572,47.0,120.0,120.0,5.0,0.0
6573,47.0,0.0,120.0,10.0,0.0
6574,51.0,0.0,120.0,10.0,0.0
6575,39.0,0.0,120.0,10.0,0.0
6576,51.0,0.0,120.0,1.0,0.0
6577,51.0,0.0,120.0,5.0,0.0
6578,78.0,120.0,120.0,2.0,0.0
6579,51.0,0.0,120.0,3.0,0.0
6580,63.0,0.0,120.0,4.0,0.0
6581,78.0,0.0,120.0,7.0,0.0
6582,63.0,0.0,120.0,8.0,0.0
6583,80.0,0.0,120.0,2.0,0.0
6584,52.0,0.0,120.0,5.0,0.0
6585,80.0,0.0,120.0,7.0,0.0
6586,40.0,0.0,120.0,10.0,0.0
6587,59.0,0.0,210.0,8.0,0.0
6588,52.0,108.0,120.0,1.0,0.0
6589,59.0,12.0,210.0,4.0,0.0
6590,52.0,0.0,120.0,10.0,0.0
6591,52.0,0.0,120.0,3.0,0.0
6592,73.0,0.0,120.0,6.0,0.0
6593,73.0,0.0,120.0,0.0,0.0
6594,56.0,0.0,120.0,10.0,0.0
6595,78.0,0.0,120.0,7.0,0.0
6596,56.0,0.0,120.0,3.0,0.0
6597,56.0,120.0,120.0,1.0,0.0
6598,56.0,0.0,120.0,5.0,0.0
6599,78.0,0.0,120.0,2.0,0.0
6600,44.0,0.0,120.0,10.0,0.0
6601,71.0,120.0,120.0,0.0,0.0
6602,71.0,0.0,360.0,8.0,0.0
6603,80.0,0.0,120.0,2.0,0.0
6604,47.0,0.0,120.0,3.0,0.0
6605,47.0,0.0,120.0,10.0,0.0
6606,47.0,0.0,120.0,1.0,0.0
6607,35.0,0.0,120.0,10.0,0.0
6608,80.0,0.0,120.0,7.0,0.0
6609,71.0,0.0,120.0,6.0,0.0
6610,47.0,0.0,120.0,5.0,0.0
6611,71.0,0.0,360.0,4.0,0.0
6612,52.0,0.0,120.0,1.0,0.0
6613,73.0,0.0,120.0,0.0,0.0
6614,76.0,0.0,120.0,7.0,0.0
6615,73.0,120.0,120.0,6.0,0.0
6616,52.0,0.0,120.0,5.0,0.0
6617,76.0,0.0,120.0,2.0,0.0
6618,40.0,0.0,120.0,10.0,0.0
6619,52.0,0.0,120.0,10.0,0.0
6620,52.0,0.0,120.0,3.0,0.0
6621,51.0,0.0,120.0,3.0,0.0
6622,51.0,0.0,120.0,10.0,0.0
6623,71.0,0.0,600.0,6.0,0.0
6624,51.0,0.0,120.0,5.0,0.0
6625,78.0,0.0,120.0,2.0,0.0
6626,71.0,0.0,600.0,0.0,0.0
6627,51.0,0.0,120.0,1.0,0.0
6628,78.0,120.0,120.0,7.0,0.0
6629,39.0,0.0,120.0,10.0,0.0
6630,66.0,0.0,120.0,8.0,0.0
6631,54.0,0.0,120.0,3.0,0.0
6632,42.0,0.0,120.0,10.0,0.0
6633,54.0,0.0,120.0,10.0,0.0
6634,66.0,0.0,120.0,4.0,0.0
6635,54.0,0.0,120.0,5.0,0.0
6636,54.0,120.0,120.0,1.0,0.0
6637,83.0,0.0,120.0,2.0,0.0
6638,83.0,0.0,120.0,7.0,0.0
6639,63.0,0.0,120.0,8.0,0.0
6640,78.0,0.0,120.0,7.0,0.0
6641,47.0,0.0,120.0,5.0,0.0
6642,35.0,0.0,120.0,10.0,0.0
6643,47.0,120.0,120.0,1.0,0.0
6644,47.0,0.0,120.0,10.0,0.0
6645,63.0,0.0,120.0,4.0,0.0
6646,47.0,0.0,120.0,3.0,0.0
6647,78.0,0.0,120.0,2.0,0.0
6648,51.0,0.0,120.0,1.0,0.0
6649,39.0,0.0,120.0,10.0,0.0
6650,75.0,0.0,120.0,7.0,0.0
6651,66.0,0.0,120.0,4.0,0.0
6652,51.0,0.0,120.0,10.0,0.0
6653,66.0,120.0,120.0,8.0,0.0
6654,75.0,0.0,120.0,2.0,0.0
6655,51.0,0.0,120.0,5.0,0.0
6656,51.0,0.0,120.0,3.0,0.0
6657,68.0,0.0,120.0,4.0,0.0
6658,71.0,0.0,120.0,7.0,0.0
6659,52.0,0.0,120.0,1.0,0.0
6660,52.0,0.0,120.0,5.0,0.0
6661,52.0,0.0,120.0,10.0,0.0
6662,68.0,12.0,210.0,8.0,0.0
6663,52.0,0.0,120.0,3.0,0.0
6664,71.0,108.0,120.0,2.0,0.0
6665,40.0,0.0,120.0,10.0,0.0
6666,73.0,0.0,120.0,0.0,0.0
6667,76.0,0.0,120.0,2.0,0.0
6668,56.0,0.0,120.0,10.0,0.0
6669,44.0,120.0,120.0,10.0,0.0
6670,71.0,0.0,120.0,4.0,0.0
6671,73.0,0.0,120.0,6.0,0.0
6672,56.0,0.0,120.0,3.0,0.0
6673,76.0,0.0,120.0,7.0,0.0
6674,56.0,0.0,120.0,5.0,0.0
6675,56.0,0.0,120.0,1.0,0.0
6676,71.0,0.0,120.0,6.0,0.0
6677,47.0,0.0,120.0,1.0,0.0
6678,68.0,0.0,120.0,4.0,0.0
6679,64.0,12.0,210.0,8.0,0.0
6680,71.0,0.0,120.0,7.0,0.0
6681,47.0,0.0,120.0,3.0,0.0
6682,35.0,0.0,120.0,10.0,0.0
6683,47.0,0.0,120.0,5.0,0.0
6684,71.0,0.0,120.0,2.0,0.0
6685,71.0,108.0,120.0,0.0,0.0
6686,47.0,0.0,120.0,10.0,0.0
6687,52.0,0.0,120.0,3.0,0.0
6688,40.0,0.0,120.0,10.0,0.0
6689,52.0,0.0,120.0,5.0,0.0
6690,52.0,0.0,120.0,10.0,0.0
6691,68.0,0.0,120.0,2.0,0.0
6692,73.0,66.0,120.0,0.0,0.0
6693,73.0,0.0,120.0,6.0,0.0
6694,68.0,0.0,120.0,7.0,0.0
6695,52.0,0.0,120.0,1.0,0.0
6696,64.0,0.0,120.0,4.0,0.0
6697,51.0,0.0,210.0,5.0,0.0
6698,59.0,0.0,210.0,4.0,0.0
6699,66.0,0.0,210.0,2.0,0.0
6700,71.0,0.0,210.0,6.0,0.0
6701,59.0,0.0,210.0,8.0,0.0
6702,51.0,18.0,210.0,1.0,0.0
6703,51.0,0.0,210.0,10.0,0.0
6704,66.0,0.0,210.0,7.0,0.0
6705,51.0,0.0,210.0,3.0,0.0
6706,39.0,0.0,210.0,10.0,0.0
6707,71.0,60.0,60.0,0.0,0.0
6708,66.0,60.0,60.0,0.0,0.0
6709,68.0,42.0,60.0,0.0,0.0
6710,70.0,60.0,60.0,0.0,0.0
6711,71.0,60.0,60.0,0.0,0.0
6712,73.0,60.0,60.0,0.0,0.0
6713,75.0,60.0,60.0,0.0,0.0
6714,76.0,60.0,60.0,0.0,0.0
6715,78.0,60.0,60.0,0.0,0.0
6716,76.0,60.0,60.0,0.0,0.0
6717,59.0,60.0,60.0,1.0,0.0
6718,75.0,0.0,60.0,0.0,0.0
6719,76.0,0.0,60.0,0.0,0.0
6720,61.0,60.0,60.0,1.0,0.0
6721,78.0,60.0,60.0,0.0,0.0
6722,63.0,0.0,60.0,1.0,0.0
6723,64.0,0.0,60.0,1.0,0.0
6724,80.0,60.0,60.0,0.0,0.0
6725,66.0,0.0,60.0,1.0,0.0
6726,81.0,60.0,60.0,0.0,0.0
6727,83.0,0.0,60.0,0.0,0.0
6728,68.0,60.0,60.0,1.0,0.0
6729,84.0,60.0,60.0,0.0,0.0
6730,69.0,0.0,210.0,1.0,0.0
6731,42.0,0.0,210.0,10.0,0.0
6732,75.0,0.0,210.0,6.0,0.0
6733,54.0,0.0,210.0,10.0,0.0
6734,69.0,0.0,210.0,7.0,0.0
6735,66.0,18.0,210.0,8.0,0.0
6736,83.0,60.0,60.0,0.0,0.0
6737,81.0,42.0,60.0,0.0,0.0
6738,80.0,114.0,60.0,0.0,0.0
6739,72.0,12.0,210.0,1.0,0.0
6740,81.0,108.0,120.0,0.0,0.0
6741,78.0,120.0,120.0,0.0,0.0
6742,87.0,108.0,120.0,0.0,0.0
6743,69.0,12.0,210.0,1.0,0.0
6744,78.0,120.0,120.0,0.0,0.0
6745,81.0,108.0,120.0,0.0,0.0
6746,66.0,12.0,210.0,1.0,0.0
6747,75.0,66.0,120.0,0.0,0.0
6748,72.0,0.0,210.0,7.0,0.0
6749,39.0,0.0,210.0,10.0,0.0
6750,78.0,0.0,210.0,6.0,0.0
6751,69.0,18.0,210.0,1.0,0.0
6752,51.0,0.0,210.0,10.0,0.0
6753,78.0,60.0,60.0,0.0,0.0
6754,69.0,0.0,210.0,8.0,0.0
6755,76.0,60.0,60.0,0.0,0.0
6756,75.0,42.0,60.0,0.0,0.0
6757,73.0,114.0,60.0,0.0,0.0
6758,66.0,12.0,210.0,1.0,0.0
6759,75.0,108.0,120.0,0.0,0.0
6760,69.0,120.0,120.0,0.0,0.0
6761,60.0,12.0,210.0,1.0,0.0
6762,78.0,108.0,120.0,0.0,0.0
6763,69.0,120.0,120.0,0.0,0.0
6764,72.0,108.0,120.0,0.0,0.0
6765,57.0,12.0,210.0,1.0,0.0
6766,66.0,66.0,120.0,0.0,0.0
6767,66.0,0.0,210.0,7.0,0.0
6768,69.0,60.0,60.0,0.0,0.0
6769,47.0,0.0,210.0,10.0,0.0
6770,35.0,0.0,210.0,10.0,0.0
6771,81.0,0.0,210.0,6.0,0.0
6772,63.0,0.0,210.0,8.0,0.0
6773,63.0,18.0,210.0,1.0,0.0
6774,67.0,60.0,60.0,0.0,0.0
6775,66.0,42.0,60.0,0.0,0.0
6776,64.0,114.0,60.0,0.0,0.0
6777,54.0,12.0,210.0,1.0,0.0
6778,47.0,0.0,210.0,10.0,0.0
6779,66.0,108.0,120.0,0.0,0.0
6780,71.0,0.0,210.0,7.0,0.0
6781,51.0,0.0,210.0,1.0,0.0
6782,35.0,0.0,210.0,10.0,0.0
6783,47.0,0.0,210.0,1.0,0.0
6784,66.0,0.0,210.0,8.0,0.0
6785,75.0,0.0,210.0,6.0,0.0
6786,63.0,120.0,120.0,0.0,0.0
6787,69.0,12.0,210.0,7.0,0.0
6788,35.0,0.0,210.0,10.0,0.0
6789,75.0,0.0,210.0,6.0,0.0
6790,72.0,108.0,120.0,0.0,0.0
6791,47.0,0.0,210.0,10.0,0.0
6792,54.0,0.0,210.0,1.0,0.0
6793,51.0,0.0,210.0,1.0,0.0
6794,66.0,0.0,210.0,8.0,0.0
6795,47.0,0.0,210.0,1.0,0.0
6796,66.0,120.0,120.0,0.0,0.0
6797,59.0,0.0,210.0,8.0,0.0
6798,75.0,0.0,210.0,6.0,0.0
6799,47.0,12.0,210.0,10.0,0.0
6800,54.0,0.0,210.0,1.0,0.0
6801,51.0,0.0,210.0,1.0,0.0
6802,47.0,0.0,210.0,1.0,0.0
6803,35.0,0.0,210.0,10.0,0.0
6804,69.0,108.0,120.0,0.0,0.0
6805,69.0,0.0,210.0,7.0,0.0
6806,63.0,66.0,120.0,0.0,0.0
6807,67.0,60.0,60.0,0.0,0.0
6808,67.0,0.0,210.0,7.0,0.0
6809,52.0,0.0,210.0,1.0,0.0
6810,59.0,0.0,210.0,8.0,0.0
6811,40.0,0.0,210.0,10.0,0.0
6812,76.0,18.0,210.0,6.0,0.0
6813,52.0,0.0,210.0,10.0,0.0
6814,59.0,60.0,60.0,0.0,0.0
6815,61.0,42.0,60.0,0.0,0.0
6816,63.0,60.0,60.0,0.0,0.0
6817,64.0,60.0,60.0,0.0,0.0
6818,66.0,60.0,60.0,0.0,0.0
6819,67.0,60.0,60.0,0.0,0.0
6820,69.0,60.0,60.0,0.0,0.0
6821,71.0,60.0,60.0,0.0,0.0
6822,69.0,60.0,60.0,0.0,0.0
6823,67.0,0.0,60.0,0.0,0.0
6824,52.0,60.0,60.0,1.0,0.0
6825,54.0,60.0,60.0,1.0,0.0
6826,69.0,0.0,60.0,0.0,0.0
6827,71.0,0.0,60.0,0.0,0.0
6828,55.0,60.0,60.0,1.0,0.0
6829,72.0,0.0,60.0,0.0,0.0
6830,57.0,60.0,60.0,1.0,0.0
6831,59.0,0.0,60.0,1.0,0.0
6832,74.0,60.0,60.0,0.0,0.0
6833,60.0,60.0,60.0,1.0,0.0
6834,76.0,0.0,60.0,0.0,0.0
6835,62.0,0.0,210.0,1.0,0.0
6836,62.0,0.0,210.0,7.0,0.0
6837,77.0,60.0,60.0,0.0,0.0
6838,59.0,18.0,210.0,8.0,0.0
6839,35.0,0.0,210.0,10.0,0.0
6840,47.0,0.0,210.0,10.0,0.0
6841,68.0,0.0,210.0,6.0,0.0
6842,76.0,60.0,60.0,0.0,0.0
6843,74.0,42.0,60.0,0.0,0.0
6844,73.0,114.0,60.0,0.0,0.0
6845,74.0,108.0,120.0,0.0,0.0
6846,65.0,12.0,210.0,1.0,0.0
6847,71.0,120.0,120.0,0.0,0.0
6848,62.0,12.0,210.0,1.0,0.0
6849,80.0,108.0,120.0,0.0,0.0
6850,71.0,120.0,120.0,0.0,0.0
6851,59.0,12.0,210.0,1.0,0.0
6852,74.0,108.0,120.0,0.0,0.0
6853,68.0,66.0,120.0,0.0,0.0
6854,71.0,60.0,60.0,0.0,0.0
6855,71.0,18.0,210.0,6.0,0.0
6856,62.0,0.0,210.0,1.0,0.0
6857,44.0,0.0,210.0,10.0,0.0
6858,62.0,0.0,210.0,8.0,0.0
6859,32.0,0.0,210.0,10.0,0.0
6860,65.0,0.0,210.0,7.0,0.0
6861,69.0,60.0,60.0,0.0,0.0
6862,68.0,42.0,60.0,0.0,0.0
6863,66.0,114.0,60.0,0.0,0.0
6864,68.0,108.0,120.0,0.0,0.0
6865,59.0,12.0,210.0,1.0,0.0
6866,62.0,120.0,120.0,0.0,0.0
6867,53.0,12.0,210.0,1.0,0.0
6868,71.0,108.0,120.0,0.0,0.0
6869,62.0,120.0,120.0,0.0,0.0
6870,50.0,12.0,210.0,1.0,0.0
6871,65.0,108.0,120.0,0.0,0.0
6872,59.0,66.0,120.0,0.0,0.0
6873,56.0,0.0,210.0,1.0,0.0
6874,40.0,0.0,210.0,10.0,0.0
6875,56.0,18.0,210.0,8.0,0.0
6876,59.0,0.0,210.0,7.0,0.0
6877,28.0,0.0,210.0,10.0,0.0
6878,74.0,0.0,210.0,6.0,0.0
6879,62.0,60.0,60.0,0.0,0.0
6880,60.0,60.0,60.0,0.0,0.0
6881,59.0,42.0,60.0,0.0,0.0
6882,57.0,114.0,60.0,0.0,0.0
6883,52.0,0.0,210.0,1.0,0.0
6884,47.0,12.0,210.0,1.0,0.0
6885,28.0,0.0,210.0,10.0,0.0
6886,44.0,0.0,210.0,1.0,0.0
6887,40.0,0.0,210.0,1.0,0.0
6888,68.0,0.0,210.0,6.0,0.0
6889,59.0,108.0,120.0,0.0,0.0
6890,64.0,0.0,210.0,7.0,0.0
6891,40.0,0.0,210.0,10.0,0.0
6892,59.0,0.0,210.0,8.0,0.0
6893,56.0,120.0,120.0,0.0,0.0
6894,68.0,0.0,210.0,6.0,0.0
6895,44.0,0.0,210.0,1.0,0.0
6896,47.0,0.0,210.0,1.0,0.0
6897,52.0,0.0,210.0,1.0,0.0
6898,40.0,0.0,210.0,1.0,0.0
6899,40.0,12.0,210.0,10.0,0.0
6900,59.0,0.0,210.0,8.0,0.0
6901,62.0,0.0,210.0,7.0,0.0
6902,28.0,0.0,210.0,10.0,0.0
6903,65.0,108.0,120.0,0.0,0.0
6904,59.0,120.0,120.0,0.0,0.0
6905,68.0,0.0,210.0,6.0,0.0
6906,62.0,108.0,120.0,0.0,0.0
6907,28.0,0.0,210.0,10.0,0.0
6908,52.0,0.0,210.0,8.0,0.0
6909,62.0,0.0,210.0,7.0,0.0
6910,40.0,0.0,210.0,1.0,0.0
6911,44.0,0.0,210.0,1.0,0.0
6912,47.0,0.0,210.0,1.0,0.0
6913,52.0,0.0,210.0,1.0,0.0
6914,40.0,12.0,210.0,10.0,0.0
6915,56.0,66.0,120.0,0.0,0.0
6916,45.0,0.0,210.0,10.0,0.0
6917,45.0,0.0,210.0,1.0,0.0
6918,52.0,0.0,210.0,1.0,0.0
6919,69.0,0.0,210.0,6.0,0.0
6920,60.0,60.0,60.0,0.0,0.0
6921,60.0,0.0,210.0,7.0,0.0
6922,52.0,18.0,210.0,8.0,0.0
6923,33.0,0.0,210.0,10.0,0.0
6924,64.0,60.0,60.0,0.0,0.0
6925,66.0,42.0,60.0,0.0,0.0
6926,68.0,60.0,60.0,0.0,0.0
6927,69.0,60.0,60.0,0.0,0.0
6928,68.0,60.0,60.0,0.0,0.0
6929,69.0,60.0,60.0,0.0,0.0
6930,71.0,60.0,60.0,0.0,0.0
6931,72.0,60.0,60.0,0.0,0.0
6932,52.0,60.0,60.0,1.0,0.0
6933,71.0,0.0,60.0,0.0,0.0
6934,69.0,60.0,60.0,0.0,0.0
6935,54.0,0.0,60.0,1.0,0.0
6936,56.0,0.0,60.0,1.0,0.0
6937,71.0,60.0,60.0,0.0,0.0
6938,57.0,0.0,60.0,1.0,0.0
6939,72.0,60.0,60.0,0.0,0.0
6940,71.0,60.0,60.0,0.0,0.0
6941,56.0,0.0,60.0,1.0,0.0
6942,57.0,0.0,60.0,1.0,0.0
6943,72.0,60.0,60.0,0.0,0.0
6944,74.0,60.0,60.0,0.0,0.0
6945,59.0,0.0,60.0,1.0,0.0
6946,45.0,0.0,210.0,10.0,0.0
6947,33.0,18.0,210.0,10.0,0.0
6948,76.0,60.0,60.0,0.0,0.0
6949,64.0,72.0,1830.0,8.0,0.0
6950,69.0,0.0,3540.0,7.0,0.0
6951,60.0,0.0,210.0,1.0,0.0
6952,72.0,6.0,3540.0,6.0,0.0
6953,74.0,60.0,60.0,0.0,0.0
6954,72.0,42.0,60.0,0.0,0.0
6955,71.0,114.0,60.0,0.0,0.0
6956,33.0,12.0,210.0,10.0,0.0
6957,72.0,108.0,120.0,0.0,0.0
6958,45.0,0.0,210.0,10.0,0.0
6959,57.0,0.0,210.0,1.0,0.0
6960,69.0,120.0,120.0,0.0,0.0
6961,45.0,0.0,210.0,10.0,0.0
6962,76.0,108.0,120.0,0.0,0.0
6963,60.0,0.0,210.0,1.0,0.0
6964,33.0,12.0,210.0,10.0,0.0
6965,72.0,120.0,120.0,0.0,0.0
6966,64.0,0.0,210.0,1.0,0.0
6967,33.0,0.0,210.0,10.0,0.0
6968,81.0,108.0,120.0,0.0,0.0
6969,45.0,12.0,210.0,10.0,0.0
6970,76.0,66.0,120.0,0.0,0.0
6971,69.0,0.0,210.0,1.0,0.0
6972,84.0,60.0,60.0,0.0,0.0
6973,33.0,18.0,210.0,10.0,0.0
6974,45.0,0.0,210.0,10.0,0.0
6975,83.0,60.0,60.0,0.0,0.0
6976,81.0,42.0,60.0,0.0,0.0
6977,80.0,114.0,60.0,0.0,0.0
6978,81.0,108.0,120.0,0.0,0.0
6979,64.0,0.0,210.0,1.0,0.0
6980,45.0,0.0,210.0,10.0,0.0
6981,33.0,12.0,210.0,10.0,0.0
6982,84.0,120.0,120.0,0.0,0.0
6983,76.0,66.0,120.0,0.0,0.0
6984,33.0,0.0,210.0,10.0,0.0
6985,45.0,0.0,210.0,10.0,0.0
6986,60.0,18.0,210.0,1.0,0.0
6987,81.0,42.0,60.0,0.0,0.0
6988,80.0,114.0,60.0,0.0,0.0
6989,33.0,0.0,210.0,10.0,0.0
6990,81.0,36.0,120.0,0.0,0.0
6991,57.0,0.0,210.0,1.0,0.0
6992,45.0,12.0,210.0,10.0,0.0
6993,76.0,120.0,120.0,0.0,0.0
6994,65.0,0.0,1620.0,8.0,0.0
6995,33.0,18.0,210.0,10.0,0.0
6996,72.0,66.0,120.0,0.0,0.0
6997,45.0,0.0,210.0,10.0,0.0
6998,77.0,0.0,60.0,0.0,0.0
6999,69.0,42.0,60.0,1.0,0.0
7000,76.0,114.0,60.0,0.0,0.0
7001,67.0,0.0,60.0,1.0,0.0
7002,69.0,0.0,120.0,1.0,0.0
7003,77.0,108.0,120.0,0.0,0.0
7004,33.0,12.0,210.0,10.0,0.0
7005,45.0,0.0,210.0,10.0,0.0
7006,65.0,0.0,120.0,1.0,0.0
7007,72.0,120.0,120.0,0.0,0.0
7008,69.0,108.0,120.0,0.0,0.0
7009,33.0,0.0,210.0,10.0,0.0
7010,45.0,12.0,210.0,10.0,0.0
7011,60.0,0.0,120.0,1.0,0.0
7012,65.0,0.0,120.0,0.0,0.0
7013,57.0,120.0,120.0,1.0,0.0
7014,45.0,12.0,210.0,10.0,0.0
7015,72.0,0.0,120.0,0.0,0.0
7016,33.0,0.0,210.0,10.0,0.0
7017,53.0,108.0,120.0,1.0,0.0
7018,58.0,120.0,120.0,1.0,0.0
7019,64.0,0.0,120.0,0.0,0.0
7020,45.0,0.0,210.0,10.0,0.0
7021,33.0,18.0,210.0,10.0,0.0
7022,65.0,66.0,120.0,0.0,0.0
7023,57.0,0.0,210.0,1.0,0.0
7024,69.0,42.0,60.0,0.0,0.0
7025,65.0,114.0,60.0,0.0,0.0
7026,33.0,18.0,210.0,10.0,0.0
7027,60.0,66.0,120.0,1.0,0.0
7028,45.0,0.0,210.0,10.0,0.0
7029,65.0,42.0,60.0,1.0,0.0
7030,60.0,114.0,60.0,1.0,0.0
7031,33.0,18.0,210.0,10.0,0.0
7032,45.0,0.0,210.0,10.0,0.0
7033,57.0,60.0,120.0,1.0,0.0
7034,60.0,42.0,60.0,1.0,0.0
7035,57.0,114.0,60.0,1.0,0.0
7036,33.0,0.0,210.0,10.0,0.0
7037,65.0,12.0,210.0,8.0,0.0
7038,53.0,66.0,120.0,1.0,0.0
7039,83.0,0.0,120.0,6.0,0.0
7040,45.0,0.0,210.0,10.0,0.0
7041,72.0,0.0,210.0,7.0,0.0
7042,57.0,42.0,60.0,1.0,0.0
7043,81.0,6.0,120.0,6.0,0.0
7044,53.0,114.0,60.0,1.0,0.0
7045,78.0,0.0,210.0,6.0,0.0
7046,66.0,0.0,210.0,8.0,0.0
7047,72.0,0.0,210.0,7.0,0.0
7048,33.0,12.0,210.0,10.0,0.0
7049,51.0,108.0,120.0,1.0,0.0
7050,45.0,0.0,210.0,10.0,0.0
7051,54.0,120.0,120.0,1.0,0.0
7052,57.0,108.0,120.0,1.0,0.0
7053,60.0,0.0,210.0,10.0,0.0
7054,48.0,12.0,210.0,10.0,0.0
7055,60.0,120.0,120.0,1.0,0.0
7056,57.0,0.0,210.0,10.0,0.0
7057,45.0,12.0,210.0,10.0,0.0
7058,66.0,108.0,120.0,0.0,0.0
7059,69.0,120.0,120.0,0.0,0.0
7060,54.0,12.0,210.0,10.0,0.0
7061,63.0,108.0,120.0,0.0,0.0
7062,42.0,0.0,210.0,10.0,0.0
7063,66.0,120.0,120.0,0.0,0.0
7064,51.0,0.0,210.0,10.0,0.0
7065,78.0,0.0,210.0,7.0,0.0
7066,69.0,0.0,210.0,8.0,0.0
7067,39.0,0.0,210.0,10.0,0.0
7068,84.0,12.0,210.0,6.0,0.0
7069,57.0,108.0,120.0,1.0,0.0
7070,63.0,120.0,120.0,1.0,0.0
7071,66.0,108.0,120.0,1.0,0.0
7072,45.0,12.0,210.0,10.0,0.0
7073,57.0,0.0,210.0,10.0,0.0
7074,69.0,120.0,120.0,0.0,0.0
7075,72.0,108.0,120.0,0.0,0.0
7076,54.0,0.0,210.0,10.0,0.0
7077,42.0,12.0,210.0,10.0,0.0
7078,78.0,120.0,120.0,0.0,0.0
7079,69.0,108.0,120.0,0.0,0.0
7080,39.0,0.0,210.0,10.0,0.0
7081,51.0,12.0,210.0,10.0,0.0
7082,72.0,120.0,120.0,0.0,0.0
7083,47.0,12.0,210.0,10.0,0.0
7084,66.0,108.0,120.0,1.0,0.0
7085,35.0,0.0,210.0,10.0,0.0
7086,69.0,120.0,120.0,1.0,0.0
7087,71.0,0.0,210.0,7.0,0.0
7088,75.0,12.0,210.0,6.0,0.0
7089,75.0,108.0,120.0,1.0,0.0
7090,66.0,0.0,210.0,8.0,0.0
7091,35.0,0.0,210.0,10.0,0.0
7092,47.0,0.0,210.0,10.0,0.0
7093,78.0,120.0,120.0,0.0,0.0
7094,81.0,108.0,120.0,0.0,0.0
7095,71.0,0.0,210.0,7.0,0.0
7096,66.0,12.0,210.0,8.0,0.0
7097,75.0,0.0,210.0,6.0,0.0
7098,35.0,0.0,210.0,10.0,0.0
7099,47.0,0.0,210.0,10.0,0.0
7100,69.0,120.0,120.0,1.0,0.0
7101,84.0,0.0,120.0,0.0,0.0
7102,66.0,0.0,210.0,8.0,0.0
7103,35.0,0.0,210.0,10.0,0.0
7104,71.0,0.0,210.0,7.0,0.0
7105,75.0,0.0,210.0,6.0,0.0
7106,83.0,108.0,120.0,0.0,0.0
7107,67.0,0.0,120.0,1.0,0.0
7108,47.0,12.0,210.0,10.0,0.0
7109,81.0,66.0,120.0,0.0,0.0
7110,66.0,0.0,120.0,1.0,0.0
7111,40.0,0.0,210.0,10.0,0.0
7112,52.0,0.0,210.0,10.0,0.0
7113,64.0,18.0,210.0,1.0,0.0
7114,67.0,0.0,870.0,8.0,0.0
7115,71.0,30.0,870.0,7.0,0.0
7116,79.0,60.0,60.0,0.0,0.0
7117,76.0,18.0,2130.0,6.0,0.0
7118,81.0,60.0,60.0,0.0,0.0
7119,83.0,42.0,60.0,0.0,0.0
7120,81.0,60.0,60.0,0.0,0.0
7121,52.0,18.0,210.0,10.0,0.0
7122,79.0,60.0,60.0,0.0,0.0
7123,40.0,0.0,210.0,10.0,0.0
7124,78.0,60.0,60.0,0.0,0.0
7125,76.0,42.0,60.0,0.0,0.0
7126,75.0,60.0,60.0,0.0,0.0
7127,67.0,0.0,60.0,1.0,0.0
7128,76.0,60.0,60.0,0.0,0.0
7129,40.0,18.0,210.0,10.0,0.0
7130,52.0,0.0,210.0,10.0,0.0
7131,78.0,60.0,60.0,0.0,0.0
7132,69.0,0.0,60.0,1.0,0.0
7133,79.0,0.0,60.0,0.0,0.0
7134,71.0,42.0,60.0,1.0,0.0
7135,69.0,60.0,60.0,1.0,0.0
7136,78.0,0.0,60.0,0.0,0.0
7137,76.0,0.0,60.0,0.0,0.0
7138,67.0,60.0,60.0,1.0,0.0
7139,52.0,0.0,210.0,10.0,0.0
7140,40.0,18.0,210.0,10.0,0.0
7141,66.0,30.0,60.0,1.0,0.0
7142,74.0,0.0,60.0,0.0,0.0
7143,64.0,0.0,60.0,1.0,0.0
7144,72.0,42.0,60.0,0.0,0.0
7145,62.0,0.0,60.0,1.0,0.0
7146,71.0,60.0,60.0,0.0,0.0
7147,48.0,18.0,210.0,10.0,0.0
7148,69.0,30.0,870.0,7.0,0.0
7149,36.0,0.0,210.0,10.0,0.0
7150,69.0,60.0,540.0,0.0,0.0
7151,64.0,0.0,1170.0,8.0,0.0
7152,64.0,60.0,60.0,1.0,0.0
7153,52.0,60.0,60.0,1.0,0.0
7154,54.0,42.0,60.0,1.0,0.0
7155,56.0,60.0,60.0,1.0,0.0
7156,36.0,18.0,210.0,10.0,0.0
7157,48.0,0.0,210.0,10.0,0.0
7158,57.0,60.0,60.0,1.0,0.0
7159,59.0,60.0,60.0,1.0,0.0
7160,60.0,42.0,60.0,1.0,0.0
7161,62.0,60.0,60.0,1.0,0.0
7162,64.0,0.0,690.0,1.0,0.0
7163,36.0,18.0,210.0,10.0,0.0
7164,48.0,0.0,210.0,10.0,0.0
7165,68.0,60.0,60.0,0.0,0.0
7166,69.0,42.0,60.0,0.0,0.0
7167,71.0,60.0,60.0,0.0,0.0
7168,48.0,0.0,210.0,10.0,0.0
7169,36.0,18.0,210.0,10.0,0.0
7170,72.0,60.0,60.0,0.0,0.0
7171,74.0,30.0,60.0,0.0,0.0
7172,76.0,42.0,60.0,0.0,0.0
7173,78.0,60.0,60.0,0.0,0.0
7174,49.0,0.0,210.0,10.0,0.0
7175,79.0,60.0,60.0,0.0,0.0
7176,37.0,0.0,210.0,10.0,0.0
7177,70.0,0.0,210.0,7.0,0.0
7178,78.0,60.0,60.0,0.0,0.0
7179,76.0,42.0,60.0,0.0,0.0
7180,75.0,114.0,60.0,0.0,0.0
7181,67.0,12.0,210.0,1.0,0.0
7182,76.0,108.0,120.0,0.0,0.0
7183,73.0,120.0,120.0,0.0,0.0
7184,79.0,108.0,120.0,0.0,0.0
7185,64.0,12.0,210.0,1.0,0.0
7186,73.0,120.0,120.0,0.0,0.0
7187,76.0,108.0,120.0,0.0,0.0
7188,61.0,12.0,210.0,1.0,0.0
7189,70.0,66.0,120.0,0.0,0.0
7190,34.0,18.0,210.0,10.0,0.0
7191,79.0,0.0,210.0,6.0,0.0
7192,73.0,60.0,60.0,0.0,0.0
7193,46.0,0.0,210.0,10.0,0.0
7194,76.0,0.0,210.0,7.0,0.0
7195,64.0,0.0,210.0,1.0,0.0
7196,61.0,0.0,210.0,8.0,0.0
7197,71.0,60.0,60.0,0.0,0.0
7198,70.0,42.0,60.0,0.0,0.0
7199,68.0,114.0,60.0,0.0,0.0
7200,70.0,108.0,120.0,0.0,0.0
7201,61.0,12.0,210.0,1.0,0.0
7202,64.0,120.0,120.0,0.0,0.0
7203,73.0,108.0,120.0,0.0,0.0
7204,55.0,12.0,210.0,1.0,0.0
7205,64.0,120.0,120.0,0.0,0.0
7206,67.0,108.0,120.0,0.0,0.0
7207,52.0,12.0,210.0,1.0,0.0
7208,61.0,66.0,120.0,0.0,0.0
7209,58.0,0.0,210.0,1.0,0.0
7210,42.0,0.0,210.0,10.0,0.0
7211,30.0,18.0,210.0,10.0,0.0
7212,64.0,60.0,60.0,0.0,0.0
7213,62.0,60.0,60.0,0.0,0.0
7214,61.0,42.0,60.0,0.0,0.0
7215,59.0,114.0,60.0,0.0,0.0
7216,61.0,108.0,120.0,0.0,0.0
7217,49.0,0.0,210.0,1.0,0.0
7218,42.0,0.0,210.0,10.0,0.0
7219,76.0,0.0,210.0,7.0,0.0
7220,42.0,12.0,210.0,1.0,0.0
7221,73.0,0.0,210.0,8.0,0.0
7222,82.0,0.0,210.0,6.0,0.0
7223,46.0,0.0,210.0,1.0,0.0
7224,30.0,0.0,210.0,10.0,0.0
7225,58.0,120.0,120.0,0.0,0.0
7226,42.0,0.0,210.0,1.0,0.0
7227,46.0,0.0,210.0,1.0,0.0
7228,49.0,0.0,210.0,1.0,0.0
7229,67.0,108.0,120.0,0.0,0.0
7230,76.0,0.0,210.0,7.0,0.0
7231,42.0,0.0,210.0,10.0,0.0
7232,30.0,0.0,210.0,10.0,0.0
7233,82.0,12.0,210.0,6.0,0.0
7234,73.0,0.0,210.0,8.0,0.0
7235,61.0,120.0,120.0,0.0,0.0
7236,76.0,0.0,210.0,7.0,0.0
7237,66.0,0.0,210.0,8.0,0.0
7238,42.0,0.0,210.0,1.0,0.0
7239,30.0,0.0,210.0,10.0,0.0
7240,42.0,0.0,210.0,10.0,0.0
7241,82.0,0.0,210.0,6.0,0.0
7242,49.0,12.0,210.0,1.0,0.0
7243,46.0,0.0,210.0,1.0,0.0
7244,64.0,108.0,120.0,0.0,0.0
7245,58.0,120.0,120.0,0.0,0.0
7246,75.0,72.0,870.0,7.0,0.0
7247,47.0,108.0,120.0,1.0,0.0
7248,47.0,0.0,210.0,10.0,0.0
7249,83.0,0.0,1830.0,6.0,0.0
7250,66.0,0.0,870.0,8.0,0.0
7251,35.0,12.0,210.0,10.0,0.0
7252,51.0,120.0,120.0,1.0,0.0
7253,54.0,108.0,120.0,1.0,0.0
7254,47.0,0.0,210.0,10.0,0.0
7255,35.0,12.0,210.0,10.0,0.0
7256,58.0,120.0,120.0,1.0,0.0
7257,59.0,108.0,120.0,0.0,0.0
7258,47.0,0.0,210.0,10.0,0.0
7259,35.0,12.0,210.0,10.0,0.0
7260,63.0,120.0,120.0,0.0,0.0
7261,59.0,36.0,120.0,0.0,0.0
7262,47.0,0.0,210.0,10.0,0.0
7263,35.0,12.0,210.0,10.0,0.0
7264,66.0,120.0,120.0,0.0,0.0
7265,35.0,0.0,210.0,10.0,0.0
7266,47.0,108.0,120.0,1.0,0.0
7267,67.0,0.0,870.0,8.0,0.0
7268,76.0,72.0,870.0,7.0,0.0
7269,47.0,12.0,210.0,10.0,0.0
7270,52.0,120.0,120.0,1.0,0.0
7271,35.0,12.0,210.0,10.0,0.0
7272,47.0,0.0,210.0,10.0,0.0
7273,55.0,108.0,120.0,1.0,0.0
7274,58.0,120.0,120.0,1.0,0.0
7275,47.0,0.0,210.0,10.0,0.0
7276,59.0,108.0,120.0,0.0,0.0
7277,35.0,12.0,210.0,10.0,0.0
7278,64.0,120.0,120.0,0.0,0.0
7279,59.0,36.0,120.0,0.0,0.0
7280,35.0,0.0,210.0,10.0,0.0
7281,47.0,12.0,210.0,10.0,0.0
7282,67.0,120.0,120.0,0.0,0.0
7283,81.0,72.0,870.0,6.0,0.0
7284,47.0,108.0,120.0,1.0,0.0
7285,63.0,0.0,870.0,8.0,0.0
7286,78.0,0.0,870.0,7.0,0.0
7287,47.0,12.0,210.0,10.0,0.0
7288,35.0,0.0,210.0,10.0,0.0
7289,54.0,120.0,120.0,1.0,0.0
7290,35.0,12.0,210.0,10.0,0.0
7291,57.0,108.0,120.0,1.0,0.0
7292,47.0,0.0,210.0,10.0,0.0
7293,59.0,120.0,120.0,0.0,0.0
7294,35.0,12.0,210.0,10.0,0.0
7295,63.0,108.0,120.0,0.0,0.0
7296,47.0,0.0,210.0,10.0,0.0
7297,59.0,120.0,120.0,0.0,0.0
7298,63.0,36.0,120.0,0.0,0.0
7299,47.0,0.0,210.0,10.0,0.0
7300,35.0,12.0,210.0,10.0,0.0
7301,69.0,120.0,120.0,0.0,0.0
7302,64.0,0.0,1830.0,8.0,0.0
7303,79.0,24.0,2340.0,6.0,0.0
7304,71.0,72.0,870.0,7.0,0.0
7305,47.0,12.0,210.0,10.0,0.0
7306,47.0,108.0,120.0,1.0,0.0
7307,35.0,0.0,210.0,10.0,0.0
7308,52.0,120.0,120.0,1.0,0.0
7309,55.0,108.0,120.0,1.0,0.0
7310,35.0,0.0,210.0,10.0,0.0
7311,47.0,12.0,210.0,10.0,0.0
7312,59.0,120.0,120.0,0.0,0.0
7313,64.0,108.0,120.0,0.0,0.0
7314,35.0,12.0,210.0,10.0,0.0
7315,47.0,0.0,210.0,10.0,0.0
7316,67.0,120.0,120.0,0.0,0.0
7317,47.0,12.0,210.0,10.0,0.0
7318,64.0,36.0,120.0,0.0,0.0
7319,35.0,0.0,210.0,10.0,0.0
7320,71.0,120.0,120.0,0.0,0.0
7321,47.0,12.0,210.0,10.0,0.0
7322,35.0,0.0,210.0,10.0,0.0
7323,73.0,72.0,870.0,7.0,0.0
7324,47.0,108.0,120.0,1.0,0.0
7325,52.0,120.0,120.0,1.0,0.0
7326,55.0,108.0,120.0,1.0,0.0
7327,35.0,0.0,210.0,10.0,0.0
7328,47.0,12.0,210.0,10.0,0.0
7329,61.0,120.0,120.0,0.0,0.0
7330,35.0,12.0,210.0,10.0,0.0
7331,64.0,108.0,120.0,0.0,0.0
7332,47.0,0.0,210.0,10.0,0.0
7333,67.0,120.0,120.0,0.0,0.0
7334,64.0,36.0,120.0,0.0,0.0
7335,35.0,0.0,210.0,10.0,0.0
7336,47.0,12.0,210.0,10.0,0.0
7337,71.0,120.0,120.0,0.0,0.0
7338,35.0,0.0,210.0,10.0,0.0
7339,47.0,108.0,120.0,1.0,0.0
7340,61.0,0.0,870.0,8.0,0.0
7341,70.0,48.0,870.0,7.0,0.0
7342,47.0,12.0,210.0,10.0,0.0
7343,52.0,120.0,120.0,1.0,0.0
7344,55.0,84.0,120.0,1.0,0.0
7345,35.0,0.0,210.0,10.0,0.0
7346,47.0,12.0,210.0,10.0,0.0
7347,61.0,120.0,120.0,0.0,0.0
7348,64.0,108.0,120.0,0.0,0.0
7349,35.0,0.0,210.0,10.0,0.0
7350,47.0,12.0,210.0,10.0,0.0
7351,76.0,24.0,420.0,6.0,0.0
7352,67.0,120.0,120.0,0.0,0.0
7353,64.0,36.0,120.0,0.0,0.0
7354,35.0,0.0,210.0,10.0,0.0
7355,47.0,12.0,210.0,10.0,0.0
7356,70.0,120.0,120.0,0.0,0.0
7357,47.0,0.0,210.0,10.0,0.0
7358,35.0,12.0,210.0,10.0,0.0
7359,75.0,0.0,210.0,6.0,0.0
7360,71.0,0.0,210.0,7.0,0.0
7361,66.0,0.0,210.0,8.0,0.0
7362,47.0,108.0,120.0,1.0,0.0
7363,51.0,120.0,120.0,1.0,0.0
7364,54.0,120.0,120.0,1.0,0.0
7365,59.0,120.0,120.0,1.0,0.0
7366,63.0,120.0,120.0,0.0,0.0
7367,66.0,120.0,120.0,0.0,0.0
7368,71.0,120.0,120.0,0.0,0.0
7369,59.0,120.0,120.0,1.0,0.0
7370,63.0,120.0,120.0,1.0,0.0
7371,66.0,120.0,120.0,1.0,0.0
7372,71.0,120.0,120.0,1.0,0.0
7373,75.0,120.0,120.0,0.0,0.0
7374,78.0,120.0,120.0,0.0,0.0
7375,83.0,120.0,120.0,0.0,0.0
7376,84.0,120.0,120.0,0.0,0.0
7377,82.0,120.0,120.0,0.0,0.0
7378,83.0,120.0,120.0,0.0,0.0
7379,79.0,120.0,120.0,0.0,0.0
7380,81.0,120.0,120.0,0.0,0.0
7381,78.0,120.0,120.0,0.0,0.0
7382,79.0,120.0,120.0,0.0,0.0
7383,76.0,120.0,120.0,0.0,0.0
7384,77.0,120.0,120.0,0.0,0.0
7385,75.0,120.0,120.0,0.0,0.0
7386,76.0,120.0,120.0,0.0,0.0
7387,72.0,120.0,120.0,0.0,0.0
7388,70.0,120.0,120.0,0.0,0.0
7389,71.0,120.0,120.0,0.0,0.0
7390,66.0,120.0,120.0,0.0,0.0
7391,67.0,120.0,120.0,0.0,0.0
7392,63.0,120.0,120.0,0.0,0.0
7393,64.0,120.0,120.0,0.0,0.0
7394,59.0,120.0,120.0,1.0,0.0
7395,67.0,120.0,120.0,1.0,0.0
7396,63.0,120.0,120.0,1.0,0.0
7397,64.0,120.0,120.0,1.0,0.0
7398,59.0,120.0,120.0,1.0,0.0
7399,60.0,120.0,120.0,1.0,0.0
7400,57.0,120.0,120.0,1.0,0.0
7401,59.0,120.0,120.0,1.0,0.0
7402,55.0,120.0,120.0,1.0,0.0
7403,64.0,120.0,120.0,1.0,0.0
7404,58.0,120.0,120.0,1.0,0.0
7405,59.0,120.0,120.0,1.0,0.0
7406,54.0,120.0,120.0,1.0,0.0
7407,55.0,120.0,120.0,1.0,0.0
7408,51.0,120.0,120.0,1.0,0.0
7409,52.0,120.0,120.0,1.0,0.0
7410,47.0,120.0,120.0,1.0,0.0
7411,55.0,120.0,120.0,1.0,0.0
7412,51.0,120.0,120.0,1.0,0.0
7413,52.0,120.0,120.0,1.0,0.0
7414,47.0,120.0,120.0,1.0,0.0
7415,48.0,120.0,120.0,1.0,0.0
7416,46.0,120.0,120.0,1.0,0.0
7417,47.0,360.0,120.0,1.0,0.0
7418,64.0,48.0,870.0,3.0,0.0
7419,52.0,0.0,870.0,10.0,0.0
7420,40.0,36.0,420.0,1.0,0.0
7421,64.0,0.0,870.0,10.0,0.0
7422,59.0,0.0,120.0,4.0,0.0
7423,56.0,84.0,120.0,5.0,0.0
7424,64.0,0.0,120.0,0.0,0.0
7425,64.0,0.0,120.0,6.0,0.0
7426,54.0,0.0,120.0,5.0,0.0
7427,63.0,120.0,120.0,0.0,0.0
7428,57.0,0.0,120.0,4.0,0.0
7429,63.0,0.0,120.0,6.0,0.0
7430,56.0,0.0,120.0,5.0,0.0
7431,64.0,0.0,120.0,0.0,0.0
7432,52.0,36.0,420.0,1.0,0.0
7433,59.0,0.0,120.0,4.0,0.0
7434,64.0,120.0,120.0,6.0,0.0
7435,66.0,0.0,120.0,6.0,0.0
7436,57.0,0.0,120.0,5.0,0.0
7437,66.0,0.0,120.0,0.0,0.0
7438,61.0,120.0,120.0,4.0,0.0
7439,68.0,0.0,120.0,6.0,0.0
7440,68.0,36.0,120.0,0.0,0.0
7441,59.0,0.0,120.0,5.0,0.0
7442,63.0,0.0,120.0,4.0,0.0
7443,61.0,0.0,120.0,5.0,0.0
7444,69.0,0.0,120.0,0.0,0.0
7445,64.0,0.0,120.0,4.0,0.0
7446,69.0,120.0,120.0,6.0,0.0
7447,71.0,0.0,120.0,6.0,0.0
7448,63.0,72.0,870.0,10.0,0.0
7449,63.0,0.0,870.0,3.0,0.0
7450,51.0,0.0,870.0,1.0,0.0
7451,71.0,0.0,120.0,0.0,0.0
7452,51.0,0.0,870.0,10.0,0.0
7453,66.0,12.0,210.0,4.0,0.0
7454,63.0,108.0,120.0,5.0,0.0
7455,70.0,0.0,120.0,0.0,0.0
7456,70.0,120.0,120.0,6.0,0.0
7457,61.0,0.0,120.0,5.0,0.0
7458,71.0,0.0,120.0,6.0,0.0
7459,71.0,108.0,120.0,0.0,0.0
7460,78.0,0.0,210.0,4.0,0.0
7461,66.0,0.0,210.0,7.0,0.0
7462,66.0,12.0,210.0,2.0,0.0
7463,63.0,0.0,120.0,5.0,0.0
7464,73.0,0.0,120.0,0.0,0.0
7465,64.0,0.0,120.0,5.0,0.0
7466,73.0,120.0,120.0,6.0,0.0
7467,71.0,0.0,210.0,7.0,0.0
7468,75.0,108.0,120.0,6.0,0.0
7469,71.0,12.0,210.0,2.0,0.0
7470,75.0,0.0,210.0,4.0,0.0
7471,66.0,0.0,120.0,5.0,0.0
7472,75.0,0.0,120.0,0.0,0.0
7473,73.0,0.0,120.0,6.0,0.0
7474,64.0,0.0,120.0,5.0,0.0
7475,73.0,120.0,120.0,0.0,0.0
7476,66.0,0.0,120.0,5.0,0.0
7477,75.0,36.0,120.0,0.0,0.0
7478,71.0,0.0,210.0,4.0,0.0
7479,71.0,12.0,210.0,2.0,0.0
7480,71.0,0.0,210.0,7.0,0.0
7481,75.0,0.0,120.0,6.0,0.0
7482,63.0,0.0,120.0,5.0,0.0
7483,71.0,0.0,120.0,0.0,0.0
7484,71.0,120.0,120.0,6.0,0.0
7485,76.0,0.0,120.0,0.0,0.0
7486,80.0,0.0,210.0,4.0,0.0
7487,49.0,30.0,870.0,10.0,0.0
7488,71.0,12.0,210.0,7.0,0.0
7489,61.0,0.0,870.0,10.0,0.0
7490,49.0,0.0,870.0,1.0,0.0
7491,64.0,108.0,120.0,5.0,0.0
7492,61.0,0.0,870.0,3.0,0.0
7493,76.0,0.0,120.0,6.0,0.0
7494,71.0,0.0,210.0,2.0,0.0
7495,75.0,0.0,120.0,0.0,0.0
7496,75.0,120.0,120.0,6.0,0.0
7497,68.0,0.0,120.0,5.0,0.0
7498,76.0,12.0,210.0,4.0,0.0
7499,70.0,0.0,120.0,7.0,0.0
7500,61.0,0.0,120.0,5.0,0.0
7501,70.0,0.0,120.0,2.0,0.0
7502,76.0,108.0,120.0,0.0,0.0
7503,76.0,0.0,120.0,6.0,0.0
7504,68.0,0.0,120.0,2.0,0.0
7505,68.0,0.0,120.0,7.0,0.0
7506,63.0,0.0,120.0,5.0,0.0
7507,78.0,0.0,120.0,0.0,0.0
7508,78.0,120.0,120.0,6.0,0.0
7509,76.0,0.0,120.0,6.0,0.0
7510,70.0,0.0,120.0,2.0,0.0
7511,70.0,120.0,120.0,7.0,0.0
7512,73.0,24.0,330.0,4.0,0.0
7513,76.0,0.0,120.0,0.0,0.0
7514,64.0,0.0,120.0,5.0,0.0
7515,80.0,0.0,120.0,6.0,0.0
7516,80.0,0.0,120.0,0.0,0.0
7517,71.0,0.0,120.0,2.0,0.0
7518,61.0,0.0,120.0,5.0,0.0
7519,71.0,96.0,120.0,7.0,0.0
7520,78.0,36.0,120.0,0.0,0.0
7521,68.0,0.0,120.0,2.0,0.0
7522,78.0,0.0,120.0,6.0,0.0
7523,63.0,0.0,120.0,5.0,0.0
7524,68.0,0.0,120.0,7.0,0.0
7525,70.0,0.0,120.0,7.0,0.0
7526,76.0,0.0,120.0,6.0,0.0
7527,64.0,6.0,120.0,5.0,0.0
7528,76.0,0.0,120.0,0.0,0.0
7529,70.0,0.0,120.0,2.0,0.0
7530,71.0,54.0,60.0,4.0,0.0
7531,73.0,114.0,60.0,4.0,0.0
7532,75.0,0.0,120.0,6.0,0.0
7533,75.0,0.0,120.0,0.0,0.0
7534,75.0,12.0,210.0,4.0,0.0
7535,47.0,0.0,120.0,10.0,0.0
7536,59.0,0.0,120.0,10.0,0.0
7537,59.0,0.0,120.0,3.0,0.0
7538,71.0,0.0,120.0,2.0,0.0
7539,66.0,0.0,120.0,5.0,0.0
7540,47.0,0.0,210.0,1.0,0.0
7541,71.0,108.0,120.0,7.0,0.0
7542,78.0,0.0,120.0,6.0,0.0
7543,75.0,0.0,120.0,2.0,0.0
7544,75.0,0.0,120.0,7.0,0.0
7545,61.0,120.0,120.0,10.0,0.0
7546,49.0,0.0,120.0,10.0,0.0
7547,69.0,0.0,120.0,5.0,0.0
7548,78.0,0.0,120.0,0.0,0.0
7549,54.0,0.0,120.0,3.0,0.0
7550,47.0,0.0,120.0,10.0,0.0
7551,76.0,0.0,120.0,2.0,0.0
7552,59.0,0.0,120.0,10.0,0.0
7553,76.0,0.0,120.0,7.0,0.0
7554,59.0,0.0,120.0,1.0,0.0
7555,71.0,0.0,120.0,6.0,0.0
7556,56.0,0.0,120.0,3.0,0.0
7557,68.0,0.0,120.0,5.0,0.0
7558,71.0,0.0,120.0,0.0,0.0
7559,66.0,120.0,120.0,5.0,0.0
7560,78.0,0.0,120.0,7.0,0.0
7561,75.0,0.0,120.0,6.0,0.0
7562,78.0,0.0,120.0,2.0,0.0
7563,57.0,0.0,120.0,1.0,0.0
7564,75.0,0.0,120.0,0.0,0.0
7565,57.0,0.0,120.0,3.0,0.0
7566,57.0,0.0,120.0,10.0,0.0
7567,45.0,0.0,120.0,10.0,0.0
7568,80.0,12.0,210.0,7.0,0.0
7569,59.0,0.0,120.0,3.0,0.0
7570,76.0,108.0,120.0,0.0,0.0
7571,44.0,0.0,120.0,10.0,0.0
7572,64.0,0.0,120.0,5.0,0.0
7573,71.0,0.0,600.0,8.0,0.0
7574,80.0,0.0,210.0,2.0,0.0
7575,56.0,0.0,120.0,1.0,0.0
7576,71.0,108.0,600.0,4.0,0.0
7577,56.0,0.0,120.0,10.0,0.0
7578,76.0,0.0,120.0,6.0,0.0
7579,54.0,0.0,120.0,10.0,0.0
7580,80.0,0.0,120.0,0.0,0.0
7581,59.0,120.0,120.0,5.0,0.0
7582,59.0,0.0,120.0,1.0,0.0
7583,80.0,0.0,120.0,6.0,0.0
7584,42.0,0.0,120.0,10.0,0.0
7585,64.0,0.0,120.0,3.0,0.0
7586,71.0,0.0,120.0,0.0,0.0
7587,71.0,108.0,120.0,6.0,0.0
7588,56.0,0.0,120.0,3.0,0.0
7589,56.0,0.0,120.0,1.0,0.0
7590,80.0,0.0,210.0,7.0,0.0
7591,64.0,0.0,120.0,5.0,0.0
7592,56.0,0.0,120.0,10.0,0.0
7593,44.0,0.0,120.0,10.0,0.0
7594,80.0,0.0,210.0,2.0,0.0
7595,75.0,0.0,120.0,0.0,0.0
7596,52.0,120.0,120.0,1.0,0.0
7597,56.0,0.0,120.0,5.0,0.0
7598,40.0,0.0,90.0,10.0,0.0
7599,75.0,0.0,120.0,6.0,0.0
7600,59.0,0.0,120.0,3.0,0.0
7601,52.0,0.0,90.0,10.0,0.0
7602,73.0,0.0,120.0,6.0,0.0
7603,57.0,0.0,600.0,3.0,0.0
7604,57.0,0.0,120.0,10.0,0.0
7605,80.0,0.0,210.0,7.0,0.0
7606,73.0,0.0,120.0,0.0,0.0
7607,45.0,0.0,120.0,10.0,0.0
7608,80.0,12.0,210.0,2.0,0.0
7609,57.0,0.0,120.0,1.0,0.0
7610,57.0,108.0,600.0,5.0,0.0
7611,76.0,0.0,120.0,0.0,0.0
7612,47.0,0.0,120.0,10.0,0.0
7613,59.0,0.0,120.0,10.0,0.0
7614,64.0,120.0,120.0,8.0,0.0
7615,76.0,0.0,120.0,6.0,0.0
7616,64.0,0.0,120.0,4.0,0.0
7617,45.0,0.0,120.0,1.0,0.0
7618,45.0,0.0,120.0,10.0,0.0
7619,57.0,108.0,120.0,1.0,0.0
7620,78.0,0.0,120.0,2.0,0.0
7621,69.0,0.0,120.0,0.0,0.0
7622,61.0,0.0,120.0,8.0,0.0
7623,78.0,0.0,120.0,7.0,0.0
7624,57.0,0.0,120.0,10.0,0.0
7625,69.0,0.0,120.0,6.0,0.0
7626,61.0,0.0,120.0,4.0,0.0
7627,56.0,0.0,90.0,10.0,0.0
7628,73.0,0.0,120.0,0.0,0.0
7629,73.0,0.0,120.0,6.0,0.0
7630,64.0,0.0,120.0,8.0,0.0
7631,76.0,0.0,120.0,7.0,0.0
7632,56.0,0.0,120.0,1.0,0.0
7633,64.0,0.0,120.0,4.0,0.0
7634,44.0,0.0,90.0,10.0,0.0
7635,76.0,120.0,120.0,2.0,0.0
7636,69.0,0.0,600.0,8.0,0.0
7637,54.0,0.0,120.0,10.0,0.0
7638,78.0,12.0,210.0,2.0,0.0
7639,75.0,0.0,120.0,6.0,0.0
7640,42.0,0.0,120.0,10.0,0.0
7641,78.0,0.0,210.0,7.0,0.0
7642,54.0,0.0,120.0,1.0,0.0
7643,69.0,0.0,600.0,4.0,0.0
7644,75.0,0.0,120.0,0.0,0.0
7645,57.0,0.0,120.0,5.0,0.0
7646,63.0,0.0,120.0,3.0,0.0
7647,57.0,0.0,120.0,1.0,0.0
7648,52.0,0.0,120.0,10.0,0.0
7649,40.0,120.0,120.0,10.0,0.0
7650,78.0,0.0,120.0,0.0,0.0
7651,78.0,0.0,120.0,6.0,0.0
7652,78.0,0.0,210.0,2.0,0.0
7653,69.0,0.0,120.0,0.0,0.0
7654,54.0,0.0,120.0,10.0,0.0
7655,69.0,0.0,120.0,6.0,0.0
7656,42.0,108.0,120.0,10.0,0.0
7657,54.0,0.0,120.0,1.0,0.0
7658,54.0,0.0,120.0,3.0,0.0
7659,63.0,0.0,120.0,5.0,0.0
7660,78.0,0.0,210.0,7.0,0.0
7661,57.0,120.0,120.0,3.0,0.0
7662,39.0,0.0,90.0,10.0,0.0
7663,54.0,0.0,120.0,5.0,0.0
7664,51.0,0.0,120.0,1.0,0.0
7665,73.0,0.0,120.0,6.0,0.0
7666,51.0,0.0,90.0,10.0,0.0
7667,73.0,0.0,120.0,0.0,0.0
7668,78.0,120.0,120.0,2.0,0.0
7669,78.0,0.0,120.0,7.0,0.0
7670,71.0,0.0,120.0,0.0,0.0
7671,56.0,0.0,600.0,5.0,0.0
7672,56.0,0.0,600.0,3.0,0.0
7673,56.0,0.0,120.0,10.0,0.0
7674,71.0,0.0,120.0,6.0,0.0
7675,44.0,0.0,120.0,10.0,0.0
7676,56.0,0.0,120.0,1.0,0.0
7677,57.0,0.0,120.0,10.0,0.0
7678,44.0,0.0,120.0,1.0,0.0
7679,45.0,0.0,120.0,10.0,0.0
7680,75.0,0.0,120.0,0.0,0.0
7681,63.0,120.0,120.0,8.0,0.0
7682,71.0,0.0,120.0,2.0,0.0
7683,71.0,0.0,120.0,7.0,0.0
7684,63.0,0.0,120.0,4.0,0.0
7685,75.0,0.0,120.0,6.0,0.0
7686,56.0,0.0,120.0,10.0,0.0
7687,73.0,0.0,120.0,2.0,0.0
7688,73.0,0.0,120.0,7.0,0.0
7689,59.0,0.0,120.0,8.0,0.0
7690,59.0,0.0,120.0,4.0,0.0
7691,68.0,0.0,120.0,6.0,0.0
7692,68.0,0.0,120.0,0.0,0.0
7693,44.0,0.0,120.0,10.0,0.0
7694,56.0,0.0,120.0,1.0,0.0
7695,71.0,120.0,120.0,6.0,0.0
7696,54.0,0.0,120.0,1.0,0.0
7697,42.0,0.0,120.0,10.0,0.0
7698,75.0,0.0,120.0,7.0,0.0
7699,75.0,0.0,120.0,2.0,0.0
7700,63.0,0.0,120.0,8.0,0.0
7701,54.0,0.0,120.0,10.0,0.0
7702,71.0,0.0,120.0,0.0,0.0
7703,63.0,0.0,120.0,4.0,0.0
7704,73.0,0.0,120.0,0.0,0.0
7705,40.0,0.0,120.0,10.0,0.0
7706,76.0,0.0,210.0,7.0,0.0
7707,68.0,0.0,600.0,4.0,0.0
7708,52.0,0.0,120.0,10.0,0.0
7709,76.0,12.0,210.0,2.0,0.0
7710,68.0,0.0,600.0,8.0,0.0
7711,52.0,0.0,120.0,1.0,0.0
7712,73.0,108.0,120.0,6.0,0.0
7713,76.0,0.0,120.0,6.0,0.0
7714,39.0,0.0,120.0,10.0,0.0
7715,61.0,120.0,120.0,3.0,0.0
7716,56.0,0.0,120.0,5.0,0.0
7717,76.0,0.0,120.0,0.0,0.0
7718,56.0,0.0,120.0,1.0,0.0
7719,51.0,0.0,120.0,10.0,0.0
7720,52.0,0.0,120.0,10.0,0.0
7721,52.0,0.0,120.0,3.0,0.0
7722,68.0,0.0,120.0,0.0,0.0
7723,61.0,0.0,120.0,5.0,0.0
7724,68.0,0.0,120.0,6.0,0.0
7725,76.0,12.0,210.0,7.0,0.0
7726,52.0,0.0,120.0,1.0,0.0
7727,40.0,108.0,120.0,10.0,0.0
7728,76.0,0.0,210.0,2.0,0.0
7729,56.0,0.0,120.0,3.0,0.0
7730,71.0,120.0,120.0,0.0,0.0
7731,52.0,0.0,120.0,5.0,0.0
7732,49.0,0.0,90.0,10.0,0.0
7733,37.0,0.0,90.0,10.0,0.0
7734,49.0,0.0,120.0,1.0,0.0
7735,71.0,0.0,120.0,6.0,0.0
7736,69.0,0.0,120.0,6.0,0.0
7737,76.0,12.0,210.0,2.0,0.0
7738,54.0,108.0,600.0,3.0,0.0
7739,42.0,0.0,120.0,10.0,0.0
7740,69.0,108.0,120.0,0.0,0.0
7741,54.0,0.0,600.0,5.0,0.0
7742,54.0,0.0,120.0,1.0,0.0
7743,76.0,0.0,210.0,7.0,0.0
7744,54.0,0.0,120.0,10.0,0.0
7745,73.0,0.0,120.0,6.0,0.0
7746,61.0,0.0,120.0,4.0,0.0
7747,73.0,0.0,120.0,0.0,0.0
7748,42.0,0.0,120.0,1.0,0.0
7749,44.0,120.0,120.0,10.0,0.0
7750,61.0,0.0,120.0,8.0,0.0
7751,56.0,0.0,120.0,10.0,0.0
7752,42.0,0.0,120.0,10.0,0.0
7753,54.0,0.0,120.0,1.0,0.0
7754,57.0,0.0,120.0,4.0,0.0
7755,66.0,0.0,120.0,6.0,0.0
7756,75.0,0.0,120.0,2.0,0.0
7757,57.0,0.0,120.0,8.0,0.0
7758,54.0,0.0,120.0,10.0,0.0
7759,66.0,0.0,120.0,0.0,0.0
7760,75.0,108.0,120.0,7.0,0.0
7761,73.0,0.0,120.0,7.0,0.0
7762,52.0,120.0,120.0,1.0,0.0
7763,69.0,0.0,120.0,0.0,0.0
7764,69.0,0.0,120.0,6.0,0.0
7765,73.0,0.0,120.0,2.0,0.0
7766,52.0,0.0,90.0,10.0,0.0
7767,40.0,0.0,90.0,10.0,0.0
7768,61.0,0.0,120.0,8.0,0.0
7769,61.0,0.0,120.0,4.0,0.0
7770,66.0,0.0,600.0,4.0,0.0
7771,71.0,0.0,600.0,7.0,0.0
7772,71.0,12.0,210.0,2.0,0.0
7773,71.0,0.0,120.0,6.0,0.0
7774,39.0,0.0,120.0,10.0,0.0
7775,71.0,0.0,120.0,0.0,0.0
7776,51.0,0.0,120.0,10.0,0.0
7777,66.0,0.0,600.0,8.0,0.0
7778,51.0,0.0,120.0,1.0,0.0
7779,75.0,0.0,120.0,0.0,0.0
7780,75.0,0.0,120.0,6.0,0.0
7781,49.0,0.0,120.0,10.0,0.0
7782,37.0,120.0,120.0,10.0,0.0
7783,59.0,0.0,120.0,3.0,0.0
7784,54.0,0.0,120.0,1.0,0.0
7785,54.0,0.0,120.0,5.0,0.0
7786,66.0,0.0,120.0,0.0,0.0
7787,66.0,0.0,120.0,6.0,0.0
7788,59.0,0.0,120.0,5.0,0.0
7789,83.0,108.0,360.0,2.0,0.0
7790,51.0,0.0,120.0,10.0,0.0
7791,51.0,0.0,120.0,3.0,0.0
7792,39.0,108.0,120.0,10.0,0.0
7793,51.0,0.0,120.0,1.0,0.0
7794,47.0,0.0,120.0,1.0,0.0
7795,69.0,0.0,120.0,6.0,0.0
7796,54.0,120.0,120.0,3.0,0.0
7797,47.0,0.0,90.0,10.0,0.0
7798,69.0,0.0,120.0,0.0,0.0
7799,35.0,0.0,90.0,10.0,0.0
7800,51.0,0.0,120.0,5.0,0.0
7801,68.0,0.0,120.0,6.0,0.0
7802,52.0,0.0,210.0,3.0,0.0
7803,52.0,0.0,210.0,10.0,0.0
7804,68.0,0.0,120.0,0.0,0.0
7805,52.0,0.0,120.0,1.0,0.0
7806,52.0,0.0,600.0,5.0,0.0
7807,40.0,0.0,210.0,10.0,0.0
7808,71.0,0.0,120.0,6.0,0.0
7809,59.0,0.0,120.0,4.0,0.0
7810,40.0,0.0,120.0,1.0,0.0
7811,59.0,120.0,120.0,8.0,0.0
7812,80.0,0.0,120.0,2.0,0.0
7813,71.0,0.0,120.0,0.0,0.0
7814,68.0,0.0,120.0,7.0,0.0
7815,56.0,0.0,120.0,4.0,0.0
7816,52.0,12.0,210.0,3.0,0.0
7817,76.0,108.0,120.0,2.0,0.0
7818,52.0,0.0,120.0,1.0,0.0
7819,56.0,0.0,120.0,8.0,0.0
7820,71.0,0.0,120.0,7.0,0.0
7821,64.0,0.0,120.0,0.0,0.0
7822,64.0,0.0,120.0,6.0,0.0
7823,71.0,0.0,120.0,2.0,0.0
7824,59.0,0.0,120.0,4.0,0.0
7825,68.0,0.0,120.0,0.0,0.0
7826,59.0,0.0,120.0,8.0,0.0
7827,68.0,0.0,120.0,6.0,0.0
7828,76.0,0.0,120.0,7.0,0.0
7829,50.0,120.0,120.0,1.0,0.0
7830,49.0,108.0,120.0,1.0,0.0
7831,69.0,0.0,120.0,6.0,0.0
7832,73.0,0.0,120.0,7.0,0.0
7833,64.0,0.0,210.0,8.0,0.0
7834,64.0,0.0,600.0,4.0,0.0
7835,52.0,12.0,210.0,3.0,0.0
7836,73.0,0.0,120.0,2.0,0.0
7837,69.0,0.0,120.0,0.0,0.0
7838,73.0,0.0,120.0,6.0,0.0
7839,69.0,0.0,120.0,2.0,0.0
7840,52.0,0.0,120.0,1.0,0.0
7841,49.0,0.0,120.0,5.0,0.0
7842,73.0,120.0,120.0,0.0,0.0
7843,69.0,0.0,120.0,7.0,0.0
7844,45.0,0.0,120.0,5.0,0.0
7845,40.0,0.0,210.0,3.0,0.0
7846,61.0,0.0,210.0,8.0,0.0
7847,73.0,0.0,120.0,7.0,0.0
7848,49.0,0.0,120.0,1.0,0.0
7849,52.0,0.0,210.0,10.0,0.0
7850,40.0,0.0,210.0,10.0,0.0
7851,73.0,0.0,120.0,2.0,0.0
7852,64.0,0.0,120.0,0.0,0.0
7853,64.0,108.0,120.0,6.0,0.0
7854,69.0,0.0,120.0,0.0,0.0
7855,76.0,0.0,120.0,7.0,0.0
7856,69.0,120.0,120.0,6.0,0.0
7857,40.0,0.0,120.0,5.0,0.0
7858,45.0,0.0,120.0,1.0,0.0
7859,76.0,0.0,120.0,2.0,0.0
7860,68.0,0.0,120.0,6.0,0.0
7861,52.0,0.0,120.0,1.0,0.0
7862,64.0,0.0,120.0,7.0,0.0
7863,52.0,0.0,600.0,5.0,0.0
7864,40.0,12.0,210.0,10.0,0.0
7865,68.0,108.0,120.0,0.0,0.0
7866,59.0,0.0,210.0,8.0,0.0
7867,71.0,0.0,120.0,2.0,0.0
7868,52.0,0.0,210.0,10.0,0.0
7869,40.0,120.0,120.0,1.0,0.0
7870,59.0,0.0,120.0,4.0,0.0
7871,71.0,0.0,120.0,0.0,0.0
7872,71.0,0.0,120.0,6.0,0.0
7873,68.0,0.0,120.0,7.0,0.0
7874,68.0,0.0,120.0,2.0,0.0
7875,28.0,0.0,210.0,10.0,0.0
7876,56.0,0.0,120.0,4.0,0.0
7877,71.0,0.0,120.0,2.0,0.0
7878,64.0,0.0,120.0,0.0,0.0
7879,71.0,0.0,120.0,7.0,0.0
7880,68.0,12.0,210.0,8.0,0.0
7881,52.0,108.0,120.0,1.0,0.0
7882,40.0,0.0,210.0,10.0,0.0
7883,52.0,0.0,210.0,3.0,0.0
7884,64.0,0.0,120.0,6.0,0.0
7885,76.0,0.0,120.0,7.0,0.0
7886,68.0,120.0,120.0,0.0,0.0
7887,76.0,0.0,120.0,2.0,0.0
7888,59.0,0.0,120.0,4.0,0.0
7889,68.0,0.0,120.0,6.0,0.0
7890,50.0,0.0,120.0,1.0,0.0
7891,69.0,0.0,120.0,7.0,0.0
7892,69.0,0.0,120.0,0.0,0.0
7893,69.0,108.0,120.0,6.0,0.0
7894,52.0,12.0,210.0,3.0,0.0
7895,69.0,0.0,120.0,2.0,0.0
7896,49.0,0.0,120.0,1.0,0.0
7897,64.0,0.0,600.0,4.0,0.0
7898,64.0,0.0,210.0,8.0,0.0
7899,73.0,120.0,120.0,6.0,0.0
7900,73.0,0.0,120.0,0.0,0.0
7901,49.0,0.0,120.0,5.0,0.0
7902,64.0,0.0,120.0,2.0,0.0
7903,52.0,0.0,120.0,1.0,0.0
7904,64.0,0.0,120.0,7.0,0.0
7905,64.0,0.0,120.0,0.0,0.0
7906,49.0,0.0,120.0,1.0,0.0
7907,69.0,0.0,120.0,2.0,0.0
7908,69.0,0.0,120.0,7.0,0.0
7909,40.0,0.0,210.0,3.0,0.0
7910,45.0,0.0,120.0,5.0,0.0
7911,40.0,0.0,210.0,10.0,0.0
7912,64.0,108.0,120.0,6.0,0.0
7913,52.0,0.0,210.0,10.0,0.0
7914,73.0,12.0,210.0,8.0,0.0
7915,69.0,0.0,120.0,6.0,0.0
7916,73.0,120.0,120.0,2.0,0.0
7917,45.0,0.0,120.0,1.0,0.0
7918,73.0,0.0,120.0,7.0,0.0
7919,69.0,0.0,120.0,0.0,0.0
7920,40.0,0.0,120.0,5.0,0.0
7921,40.0,0.0,210.0,10.0,0.0
7922,68.0,108.0,120.0,0.0,0.0
7923,52.0,0.0,210.0,3.0,0.0
7924,52.0,0.0,210.0,10.0,0.0
7925,68.0,0.0,120.0,6.0,0.0
7926,76.0,0.0,210.0,7.0,0.0
7927,71.0,0.0,210.0,8.0,0.0
7928,52.0,0.0,210.0,1.0,0.0
7929,52.0,12.0,210.0,5.0,0.0
7930,68.0,0.0,120.0,2.0,0.0
7931,64.0,0.0,120.0,4.0,0.0
7932,64.0,120.0,120.0,6.0,0.0
7933,64.0,0.0,120.0,0.0,0.0
7934,64.0,0.0,120.0,2.0,0.0
7935,66.0,0.0,120.0,2.0,0.0
7936,66.0,0.0,120.0,4.0,0.0
7937,66.0,0.0,120.0,0.0,0.0
7938,66.0,120.0,120.0,6.0,0.0
7939,68.0,120.0,120.0,6.0,0.0
7940,68.0,0.0,120.0,0.0,0.0
7941,68.0,0.0,120.0,4.0,0.0
7942,68.0,0.0,120.0,2.0,0.0
7943,69.0,0.0,120.0,0.0,0.0
7944,69.0,0.0,120.0,2.0,0.0
7945,69.0,120.0,120.0,4.0,0.0
7946,69.0,0.0,120.0,6.0,0.0
7947,71.0,120.0,120.0,2.0,0.0
7948,71.0,0.0,120.0,0.0,0.0
7949,71.0,0.0,120.0,6.0,0.0
7950,71.0,0.0,120.0,4.0,0.0
7951,73.0,0.0,120.0,2.0,0.0
7952,69.0,0.0,210.0,7.0,0.0
7953,54.0,0.0,210.0,1.0,0.0
7954,54.0,0.0,210.0,5.0,0.0
7955,73.0,108.0,120.0,6.0,0.0
7956,73.0,0.0,120.0,0.0,0.0
7957,54.0,0.0,210.0,3.0,0.0
7958,66.0,12.0,210.0,8.0,0.0
7959,54.0,0.0,210.0,10.0,0.0
7960,42.0,0.0,210.0,10.0,0.0
7961,73.0,0.0,120.0,4.0,0.0
7962,75.0,0.0,120.0,0.0,0.0
7963,75.0,228.0,120.0,4.0,0.0
7964,75.0,0.0,120.0,2.0,0.0
7965,75.0,0.0,120.0,6.0,0.0
7966,44.0,0.0,210.0,10.0,0.0
7967,76.0,0.0,210.0,6.0,0.0
7968,56.0,0.0,210.0,3.0,0.0
7969,76.0,240.0,210.0,0.0,0.0
7970,71.0,0.0,210.0,7.0,0.0
7971,56.0,0.0,210.0,5.0,0.0
7972,56.0,0.0,210.0,10.0,0.0
7973,56.0,0.0,210.0,1.0,0.0
7974,76.0,0.0,210.0,4.0,0.0
7975,76.0,0.0,210.0,2.0,0.0
7976,64.0,0.0,210.0,8.0,0.0
7977,69.0,0.0,210.0,0.0,0.0
7978,73.0,0.0,210.0,0.0,0.0
7979,69.0,0.0,210.0,8.0,0.0
7980,78.0,240.0,210.0,0.0,0.0
7981,57.0,0.0,210.0,3.0,0.0
7982,78.0,0.0,210.0,6.0,0.0
7983,57.0,0.0,210.0,1.0,0.0
7984,57.0,0.0,210.0,10.0,0.0
7985,78.0,0.0,210.0,4.0,0.0
7986,73.0,0.0,210.0,4.0,0.0
7987,73.0,0.0,210.0,7.0,0.0
7988,69.0,0.0,210.0,4.0,0.0
7989,45.0,0.0,210.0,10.0,0.0
7990,73.0,0.0,210.0,2.0,0.0
7991,69.0,0.0,210.0,2.0,0.0
7992,78.0,0.0,210.0,2.0,0.0
7993,57.0,0.0,210.0,5.0,0.0
7994,59.0,0.0,210.0,10.0,0.0
7995,71.0,0.0,210.0,4.0,0.0
7996,68.0,0.0,210.0,4.0,0.0
7997,68.0,0.0,210.0,8.0,0.0
7998,59.0,0.0,210.0,5.0,0.0
7999,59.0,0.0,210.0,3.0,0.0
8000,71.0,0.0,210.0,6.0,0.0
8001,68.0,0.0,210.0,0.0,0.0
8002,47.0,0.0,210.0,10.0,0.0
8003,71.0,132.0,210.0,0.0,0.0
8004,71.0,0.0,210.0,2.0,0.0
8005,59.0,0.0,210.0,1.0,0.0
8006,71.0,0.0,210.0,7.0,0.0
8007,68.0,0.0,210.0,2.0,0.0
8008,66.0,0.0,210.0,8.0,0.0
8009,47.0,0.0,210.0,10.0,0.0
8010,69.0,0.0,210.0,7.0,0.0
8011,66.0,0.0,210.0,0.0,0.0
8012,69.0,0.0,210.0,0.0,0.0
8013,47.0,0.0,120.0,5.0,0.0
8014,75.0,0.0,210.0,0.0,0.0
8015,47.0,0.0,120.0,3.0,0.0
8016,35.0,12.0,210.0,10.0,0.0
8017,66.0,0.0,210.0,2.0,0.0
8018,69.0,0.0,210.0,2.0,0.0
8019,75.0,0.0,210.0,6.0,0.0
8020,47.0,108.0,120.0,1.0,0.0
8021,75.0,0.0,210.0,2.0,0.0
8022,69.0,0.0,210.0,4.0,0.0
8023,66.0,0.0,210.0,4.0,0.0
8024,75.0,0.0,210.0,4.0,0.0
8025,54.0,0.0,120.0,1.0,0.0
8026,54.0,120.0,120.0,3.0,0.0
8027,54.0,0.0,120.0,5.0,0.0
8028,76.0,0.0,210.0,4.0,0.0
8029,71.0,0.0,210.0,4.0,0.0
8030,76.0,0.0,210.0,2.0,0.0
8031,71.0,0.0,210.0,2.0,0.0
8032,68.0,0.0,210.0,4.0,0.0
8033,64.0,0.0,210.0,4.0,0.0
8034,52.0,0.0,210.0,10.0,0.0
8035,68.0,0.0,210.0,7.0,0.0
8036,56.0,0.0,120.0,1.0,0.0
8037,71.0,0.0,210.0,0.0,0.0
8038,76.0,0.0,600.0,6.0,0.0
8039,76.0,0.0,600.0,0.0,0.0
8040,64.0,0.0,210.0,0.0,0.0
8041,68.0,0.0,210.0,0.0,0.0
8042,64.0,0.0,210.0,8.0,0.0
8043,40.0,12.0,210.0,10.0,0.0
8044,64.0,0.0,210.0,2.0,0.0
8045,56.0,108.0,120.0,3.0,0.0
8046,56.0,0.0,120.0,5.0,0.0
8047,68.0,0.0,210.0,2.0,0.0
8048,59.0,0.0,120.0,1.0,0.0
8049,59.0,0.0,120.0,3.0,0.0
8050,59.0,120.0,120.0,5.0,0.0
8051,74.0,12.0,210.0,2.0,0.0
8052,71.0,0.0,210.0,4.0,0.0
8053,71.0,0.0,210.0,8.0,0.0
8054,28.0,0.0,210.0,10.0,0.0
8055,52.0,108.0,120.0,1.0,0.0
8056,40.0,0.0,210.0,10.0,0.0
8057,52.0,0.0,120.0,3.0,0.0
8058,74.0,0.0,210.0,7.0,0.0
8059,52.0,0.0,120.0,5.0,0.0
8060,56.0,0.0,120.0,5.0,0.0
8061,56.0,0.0,120.0,1.0,0.0
8062,56.0,120.0,120.0,3.0,0.0
8063,73.0,0.0,330.0,2.0,0.0
8064,57.0,108.0,120.0,1.0,0.0
8065,40.0,0.0,210.0,10.0,0.0
8066,28.0,0.0,210.0,10.0,0.0
8067,69.0,24.0,330.0,4.0,0.0
8068,73.0,0.0,210.0,7.0,0.0
8069,57.0,0.0,120.0,5.0,0.0
8070,69.0,12.0,210.0,8.0,0.0
8071,57.0,0.0,120.0,3.0,0.0
8072,61.0,0.0,120.0,5.0,0.0
8073,61.0,96.0,120.0,3.0,0.0
8074,61.0,0.0,120.0,1.0,0.0
8075,78.0,0.0,120.0,6.0,0.0
8076,78.0,0.0,120.0,0.0,0.0
8077,69.0,12.0,210.0,7.0,0.0
8078,40.0,0.0,210.0,10.0,0.0
8079,52.0,0.0,120.0,3.0,0.0
8080,52.0,0.0,120.0,1.0,0.0
8081,61.0,0.0,210.0,8.0,0.0
8082,76.0,0.0,120.0,6.0,0.0
8083,76.0,0.0,120.0,0.0,0.0
8084,52.0,0.0,210.0,10.0,0.0
8085,52.0,66.0,120.0,5.0,0.0
8086,57.0,0.0,120.0,5.0,0.0
8087,78.0,0.0,120.0,0.0,0.0
8088,68.0,0.0,60.0,4.0,0.0
8089,74.0,42.0,60.0,2.0,0.0
8090,78.0,0.0,120.0,6.0,0.0
8091,57.0,6.0,120.0,3.0,0.0
8092,57.0,0.0,120.0,1.0,0.0
8093,69.0,114.0,60.0,4.0,0.0
8094,73.0,0.0,60.0,2.0,0.0
8095,64.0,12.0,210.0,8.0,0.0
8096,71.0,0.0,210.0,2.0,0.0
8097,56.0,0.0,120.0,5.0,0.0
8098,76.0,0.0,600.0,6.0,0.0
8099,56.0,0.0,120.0,1.0,0.0
8100,76.0,0.0,600.0,0.0,0.0
8101,56.0,108.0,120.0,3.0,0.0
8102,52.0,0.0,210.0,10.0,0.0
8103,40.0,0.0,210.0,10.0,0.0
8104,71.0,0.0,210.0,7.0,0.0
8105,76.0,0.0,210.0,4.0,0.0
8106,59.0,0.0,120.0,1.0,0.0
8107,59.0,0.0,120.0,5.0,0.0
8108,59.0,120.0,120.0,3.0,0.0
8109,74.0,0.0,210.0,7.0,0.0
8110,40.0,0.0,210.0,10.0,0.0
8111,52.0,0.0,120.0,3.0,0.0
8112,52.0,0.0,120.0,5.0,0.0
8113,71.0,0.0,210.0,4.0,0.0
8114,28.0,12.0,210.0,10.0,0.0
8115,52.0,108.0,120.0,1.0,0.0
8116,74.0,0.0,210.0,2.0,0.0
8117,71.0,0.0,210.0,8.0,0.0
8118,56.0,120.0,120.0,5.0,0.0
8119,56.0,0.0,120.0,3.0,0.0
8120,56.0,0.0,120.0,1.0,0.0
8121,73.0,0.0,330.0,2.0,0.0
8122,69.0,0.0,210.0,8.0,0.0
8123,73.0,0.0,210.0,7.0,0.0
8124,57.0,108.0,120.0,3.0,0.0
8125,69.0,24.0,330.0,4.0,0.0
8126,57.0,0.0,120.0,5.0,0.0
8127,40.0,12.0,210.0,10.0,0.0
8128,28.0,0.0,210.0,10.0,0.0
8129,57.0,0.0,120.0,1.0,0.0
8130,61.0,0.0,120.0,5.0,0.0
8131,78.0,0.0,120.0,0.0,0.0
8132,61.0,96.0,120.0,1.0,0.0
8133,61.0,0.0,120.0,3.0,0.0
8134,78.0,0.0,120.0,6.0,0.0
8135,52.0,12.0,210.0,10.0,0.0
8136,61.0,0.0,210.0,8.0,0.0
8137,52.0,0.0,120.0,3.0,0.0
8138,69.0,0.0,210.0,7.0,0.0
8139,52.0,0.0,120.0,5.0,0.0
8140,52.0,0.0,120.0,1.0,0.0
8141,40.0,0.0,210.0,10.0,0.0
8142,76.0,0.0,120.0,6.0,0.0
8143,76.0,66.0,120.0,0.0,0.0
8144,57.0,0.0,120.0,1.0,0.0
8145,57.0,0.0,120.0,3.0,0.0
8146,78.0,0.0,120.0,0.0,0.0
8147,78.0,6.0,120.0,6.0,0.0
8148,68.0,42.0,60.0,4.0,0.0
8149,57.0,0.0,120.0,5.0,0.0
8150,74.0,0.0,60.0,2.0,0.0
8151,73.0,0.0,60.0,2.0,0.0
8152,69.0,222.0,60.0,4.0,0.0
8153,56.0,0.0,210.0,3.0,0.0
8154,76.0,96.0,210.0,6.0,0.0
8155,64.0,0.0,210.0,8.0,0.0
8156,52.0,0.0,210.0,10.0,0.0
8157,40.0,0.0,210.0,10.0,0.0
8158,56.0,0.0,210.0,1.0,0.0
8159,71.0,0.0,210.0,7.0,0.0
8160,71.0,0.0,210.0,2.0,0.0
8161,56.0,0.0,210.0,5.0,0.0
8162,64.0,0.0,210.0,4.0,0.0
8163,76.0,0.0,210.0,0.0,0.0
8164,76.0,0.0,210.0,4.0,0.0
8165,71.0,0.0,210.0,4.0,0.0
8166,83.0,0.0,60.0,0.0,0.0
8167,68.0,80.0,60.0,1.0,0.0
8168,81.0,0.0,60.0,0.0,0.0
8169,66.0,80.0,60.0,1.0,0.0
8170,68.0,80.0,60.0,1.0,0.0
8171,83.0,0.0,60.0,0.0,0.0
8172,69.0,0.0,60.0,1.0,0.0
8173,85.0,80.0,60.0,0.0,0.0
8174,83.0,0.0,60.0,0.0,0.0
8175,68.0,80.0,60.0,1.0,0.0
8176,69.0,0.0,60.0,1.0,0.0
8177,85.0,80.0,60.0,0.0,0.0
8178,66.0,0.0,60.0,1.0,0.0
8179,87.0,80.0,60.0,0.0,0.0
8180,64.0,0.0,60.0,1.0,0.0
8181,85.0,80.0,60.0,0.0,0.0
8182,87.0,0.0,60.0,0.0,0.0
8183,66.0,224.0,60.0,1.0,0.0
8184,59.0,0.0,210.0,5.0,0.0
8185,56.0,0.0,210.0,5.0,0.0
8186,52.0,96.0,210.0,5.0,0.0
8187,28.0,0.0,210.0,10.0,0.0
8188,80.0,0.0,210.0,6.0,0.0
8189,88.0,0.0,210.0,0.0,0.0
8190,64.0,0.0,210.0,4.0,0.0
8191,68.0,0.0,210.0,4.0,0.0
8192,71.0,0.0,210.0,4.0,0.0
8193,68.0,0.0,210.0,1.0,0.0
8194,40.0,0.0,210.0,10.0,0.0
8195,71.0,0.0,210.0,8.0,0.0
8196,76.0,0.0,210.0,7.0,0.0
8197,59.0,0.0,60.0,3.0,0.0
8198,80.0,80.0,60.0,2.0,0.0
8199,78.0,0.0,60.0,2.0,0.0
8200,57.0,80.0,60.0,3.0,0.0
8201,80.0,0.0,60.0,2.0,0.0
8202,59.0,80.0,60.0,3.0,0.0
8203,81.0,0.0,60.0,2.0,0.0
8204,61.0,80.0,60.0,3.0,0.0
8205,80.0,0.0,60.0,2.0,0.0
8206,59.0,80.0,60.0,3.0,0.0
8207,81.0,0.0,60.0,2.0,0.0
8208,61.0,80.0,60.0,3.0,0.0
8209,63.0,80.0,60.0,3.0,0.0
8210,78.0,0.0,60.0,2.0,0.0
8211,76.0,0.0,60.0,2.0,0.0
8212,61.0,80.0,60.0,3.0,0.0
8213,78.0,0.0,60.0,2.0,0.0
8214,63.0,224.0,60.0,3.0,0.0
8215,64.0,0.0,210.0,1.0,0.0
8216,80.0,0.0,210.0,7.0,0.0
8217,52.0,96.0,210.0,10.0,0.0
8218,88.0,0.0,210.0,0.0,0.0
8219,76.0,0.0,210.0,0.0,0.0
8220,80.0,0.0,210.0,2.0,0.0
8221,80.0,0.0,210.0,0.0,0.0
8222,83.0,0.0,210.0,0.0,0.0
8223,40.0,0.0,210.0,10.0,0.0
8224,76.0,0.0,210.0,8.0,0.0
8225,64.0,0.0,210.0,3.0,0.0
8226,83.0,0.0,210.0,6.0,0.0
8227,68.0,0.0,210.0,1.0,0.0
8228,71.0,0.0,210.0,1.0,0.0
8229,71.0,0.0,60.0,4.0,0.0
8230,56.0,80.0,60.0,5.0,0.0
8231,69.0,80.0,60.0,4.0,0.0
8232,54.0,0.0,60.0,5.0,0.0
8233,56.0,80.0,60.0,5.0,0.0
8234,71.0,0.0,60.0,4.0,0.0
8235,73.0,80.0,60.0,4.0,0.0
8236,57.0,0.0,60.0,5.0,0.0
8237,71.0,0.0,60.0,4.0,0.0
8238,56.0,80.0,60.0,5.0,0.0
8239,57.0,80.0,60.0,5.0,0.0
8240,73.0,0.0,60.0,4.0,0.0
8241,75.0,80.0,60.0,4.0,0.0
8242,54.0,0.0,60.0,5.0,0.0
8243,73.0,80.0,60.0,4.0,0.0
8244,52.0,0.0,60.0,5.0,0.0
8245,54.0,224.0,60.0,5.0,0.0
8246,75.0,0.0,60.0,4.0,0.0
8247,76.0,0.0,210.0,7.0,0.0
8248,64.0,240.0,210.0,10.0,0.0
8249,80.0,0.0,210.0,6.0,0.0
8250,56.0,0.0,210.0,5.0,0.0
8251,71.0,0.0,210.0,8.0,0.0
8252,52.0,0.0,210.0,10.0,0.0
8253,76.0,0.0,210.0,4.0,0.0
8254,69.0,0.0,210.0,0.0,0.0
8255,73.0,0.0,210.0,0.0,0.0
8256,78.0,0.0,210.0,0.0,0.0
8257,69.0,0.0,210.0,8.0,0.0
8258,45.0,0.0,210.0,10.0,0.0
8259,57.0,0.0,210.0,10.0,0.0
8260,57.0,0.0,210.0,1.0,0.0
8261,69.0,0.0,210.0,2.0,0.0
8262,73.0,0.0,210.0,2.0,0.0
8263,73.0,0.0,210.0,7.0,0.0
8264,78.0,0.0,210.0,2.0,0.0
8265,78.0,0.0,210.0,4.0,0.0
8266,78.0,0.0,210.0,6.0,0.0
8267,69.0,0.0,210.0,4.0,0.0
8268,73.0,240.0,210.0,4.0,0.0
8269,57.0,0.0,210.0,3.0,0.0
8270,57.0,0.0,210.0,5.0,0.0
8271,59.0,0.0,210.0,3.0,0.0
8272,47.0,0.0,210.0,10.0,0.0
8273,71.0,0.0,210.0,2.0,0.0
8274,68.0,0.0,210.0,2.0,0.0
8275,71.0,0.0,210.0,7.0,0.0
8276,68.0,240.0,210.0,8.0,0.0
8277,59.0,0.0,210.0,5.0,0.0
8278,68.0,0.0,210.0,0.0,0.0
8279,71.0,0.0,210.0,0.0,0.0
8280,59.0,0.0,210.0,1.0,0.0
8281,68.0,0.0,210.0,4.0,0.0
8282,71.0,0.0,210.0,4.0,0.0
8283,71.0,0.0,210.0,6.0,0.0
8284,59.0,0.0,210.0,10.0,0.0
8285,66.0,0.0,210.0,2.0,0.0
8286,66.0,0.0,210.0,4.0,0.0
8287,69.0,0.0,210.0,4.0,0.0
8288,71.0,0.0,210.0,4.0,0.0
8289,35.0,0.0,210.0,10.0,0.0
8290,66.0,0.0,210.0,0.0,0.0
8291,47.0,888.0,210.0,3.0,0.0
8292,75.0,0.0,210.0,2.0,0.0
8293,71.0,0.0,210.0,2.0,0.0
8294,69.0,0.0,210.0,2.0,0.0
8295,75.0,0.0,210.0,4.0,0.0
8296,69.0,0.0,210.0,0.0,0.0
8297,47.0,0.0,210.0,10.0,0.0
8298,75.0,0.0,210.0,0.0,0.0
8299,75.0,0.0,210.0,6.0,0.0
8300,66.0,0.0,210.0,8.0,0.0
8301,71.0,0.0,210.0,7.0,0.0
8302,71.0,0.0,210.0,0.0,0.0
8303,47.0,0.0,210.0,1.0,0.0
8304,47.0,0.0,210.0,5.0,0.0
8305,28.0,0.0,870.0,10.0,0.0
8306,76.0,0.0,870.0,4.0,0.0
8307,71.0,0.0,870.0,4.0,0.0
8308,68.0,0.0,870.0,4.0,0.0
8309,64.0,0.0,870.0,4.0,0.0
8310,40.0,0.0,870.0,10.0,0.0
8311,71.0,0.0,870.0,7.0,0.0
8312,76.0,0.0,870.0,6.0,0.0
8313,52.0,0.0,870.0,1.0,0.0
8314,52.0,0.0,870.0,5.0,0.0
8315,40.0,0.0,870.0,1.0,0.0
8316,40.0,0.0,870.0,5.0,0.0
8317,64.0,0.0,870.0,0.0,0.0
8318,64.0,0.0,870.0,2.0,0.0
8319,68.0,0.0,870.0,2.0,0.0
8320,68.0,0.0,870.0,0.0,0.0
8321,71.0,0.0,870.0,0.0,0.0
8322,52.0,0.0,870.0,3.0,0.0
8323,40.0,0.0,870.0,3.0,0.0
8324,76.0,0.0,870.0,0.0,0.0
8325,68.0,0.0,870.0,8.0,0.0
8326,76.0,0.0,870.0,2.0,0.0
8327,71.0,0.0,870.0,2.0,0.0
