,note,step,duration,channel,velocity
0,63.0,0.0,120.0,1.0,0.0
1,47.0,60.0,60.0,0.0,0.0
2,46.0,120.0,60.0,0.0,0.0
3,47.0,0.0,120.0,0.0,0.0
4,59.0,120.0,120.0,1.0,0.0
5,54.0,120.0,120.0,1.0,0.0
6,59.0,60.0,120.0,1.0,0.0
7,63.0,60.0,120.0,1.0,0.0
8,82.0,60.0,60.0,0.0,0.0
9,83.0,0.0,60.0,0.0,0.0
10,85.0,60.0,60.0,0.0,0.0
11,59.0,60.0,120.0,1.0,0.0
12,83.0,0.0,60.0,0.0,0.0
13,66.0,0.0,120.0,1.0,0.0
14,85.0,60.0,60.0,0.0,0.0
15,83.0,60.0,60.0,0.0,0.0
16,63.0,0.0,120.0,1.0,0.0
17,85.0,60.0,60.0,0.0,0.0
18,83.0,60.0,60.0,0.0,0.0
19,59.0,60.0,120.0,1.0,0.0
20,85.0,60.0,60.0,0.0,0.0
21,83.0,0.0,60.0,0.0,0.0
22,63.0,60.0,120.0,1.0,0.0
23,85.0,60.0,60.0,0.0,0.0
24,83.0,0.0,60.0,0.0,0.0
25,85.0,60.0,60.0,0.0,0.0
26,61.0,0.0,120.0,1.0,0.0
27,83.0,60.0,60.0,0.0,0.0
28,59.0,0.0,120.0,1.0,0.0
29,82.0,60.0,60.0,0.0,0.0
30,83.0,120.0,60.0,0.0,0.0
31,66.0,120.0,120.0,1.0,0.0
32,85.0,0.0,240.0,0.0,0.0
33,61.0,120.0,120.0,1.0,0.0
34,58.0,120.0,120.0,1.0,0.0
35,61.0,60.0,120.0,1.0,0.0
36,58.0,60.0,60.0,0.0,0.0
37,66.0,120.0,120.0,1.0,0.0
38,56.0,0.0,60.0,0.0,0.0
39,58.0,120.0,480.0,0.0,0.0
40,61.0,120.0,120.0,1.0,0.0
41,73.0,120.0,120.0,1.0,0.0
42,70.0,120.0,120.0,1.0,0.0
43,66.0,0.0,120.0,1.0,0.0
44,70.0,0.0,120.0,1.0,0.0
45,61.0,120.0,120.0,0.0,0.0
46,68.0,0.0,120.0,1.0,0.0
47,59.0,120.0,120.0,0.0,0.0
48,66.0,120.0,120.0,1.0,0.0
49,58.0,0.0,120.0,0.0,0.0
50,56.0,0.0,240.0,0.0,0.0
51,71.0,120.0,120.0,1.0,0.0
52,68.0,120.0,120.0,1.0,0.0
53,63.0,120.0,120.0,1.0,0.0
54,68.0,120.0,120.0,1.0,0.0
55,71.0,120.0,120.0,1.0,0.0
56,80.0,0.0,240.0,0.0,0.0
57,68.0,120.0,120.0,1.0,0.0
58,78.0,120.0,240.0,0.0,0.0
59,75.0,120.0,120.0,1.0,0.0
60,71.0,0.0,120.0,1.0,0.0
61,68.0,120.0,120.0,1.0,0.0
62,77.0,0.0,240.0,0.0,0.0
63,75.0,120.0,120.0,1.0,0.0
64,78.0,120.0,120.0,0.0,0.0
65,73.0,0.0,120.0,1.0,0.0
66,71.0,0.0,120.0,1.0,0.0
67,80.0,120.0,120.0,0.0,0.0
68,78.0,120.0,120.0,1.0,0.0
69,70.0,120.0,240.0,0.0,0.0
70,73.0,0.0,120.0,1.0,0.0
71,70.0,120.0,120.0,1.0,0.0
72,73.0,60.0,120.0,1.0,0.0
73,54.0,60.0,60.0,0.0,0.0
74,78.0,0.0,120.0,1.0,0.0
75,52.0,60.0,60.0,0.0,0.0
76,73.0,0.0,120.0,1.0,0.0
77,54.0,60.0,60.0,0.0,0.0
78,52.0,60.0,60.0,0.0,0.0
79,54.0,60.0,60.0,0.0,0.0
80,85.0,0.0,120.0,1.0,0.0
81,52.0,60.0,60.0,0.0,0.0
82,54.0,60.0,60.0,0.0,0.0
83,82.0,0.0,120.0,1.0,0.0
84,52.0,60.0,60.0,0.0,0.0
85,78.0,0.0,120.0,1.0,0.0
86,54.0,60.0,60.0,0.0,0.0
87,52.0,60.0,60.0,0.0,0.0
88,54.0,60.0,60.0,0.0,0.0
89,82.0,0.0,120.0,1.0,0.0
90,52.0,60.0,60.0,0.0,0.0
91,54.0,60.0,60.0,0.0,0.0
92,80.0,0.0,120.0,1.0,0.0
93,52.0,60.0,60.0,0.0,0.0
94,78.0,0.0,120.0,1.0,0.0
95,51.0,60.0,60.0,0.0,0.0
96,52.0,120.0,60.0,0.0,0.0
97,51.0,0.0,240.0,0.0,0.0
98,83.0,120.0,120.0,1.0,0.0
99,78.0,120.0,120.0,1.0,0.0
100,47.0,0.0,240.0,0.0,0.0
101,75.0,120.0,120.0,1.0,0.0
102,78.0,120.0,120.0,1.0,0.0
103,51.0,0.0,240.0,0.0,0.0
104,83.0,120.0,120.0,1.0,0.0
105,78.0,120.0,120.0,1.0,0.0
106,54.0,0.0,240.0,0.0,0.0
107,87.0,120.0,120.0,1.0,0.0
108,83.0,120.0,120.0,1.0,0.0
109,59.0,0.0,240.0,0.0,0.0
110,78.0,120.0,120.0,1.0,0.0
111,81.0,120.0,120.0,1.0,0.0
112,51.0,0.0,240.0,0.0,0.0
113,80.0,120.0,120.0,1.0,0.0
114,78.0,120.0,120.0,1.0,0.0
115,52.0,0.0,240.0,0.0,0.0
116,80.0,120.0,120.0,1.0,0.0
117,76.0,120.0,120.0,1.0,0.0
118,56.0,120.0,240.0,0.0,0.0
119,71.0,120.0,120.0,1.0,0.0
120,76.0,0.0,120.0,1.0,0.0
121,80.0,120.0,120.0,1.0,0.0
122,59.0,120.0,240.0,0.0,0.0
123,76.0,0.0,120.0,1.0,0.0
124,83.0,120.0,120.0,1.0,0.0
125,64.0,120.0,240.0,0.0,0.0
126,80.0,0.0,120.0,1.0,0.0
127,56.0,120.0,240.0,0.0,0.0
128,76.0,120.0,120.0,1.0,0.0
129,78.0,0.0,120.0,1.0,0.0
130,76.0,120.0,120.0,1.0,0.0
131,59.0,0.0,240.0,0.0,0.0
132,75.0,120.0,120.0,1.0,0.0
133,73.0,120.0,120.0,1.0,0.0
134,58.0,0.0,240.0,0.0,0.0
135,70.0,120.0,120.0,1.0,0.0
136,61.0,0.0,240.0,0.0,0.0
137,66.0,120.0,120.0,1.0,0.0
138,70.0,120.0,120.0,1.0,0.0
139,54.0,0.0,240.0,0.0,0.0
140,73.0,120.0,120.0,1.0,0.0
141,70.0,120.0,120.0,1.0,0.0
142,78.0,120.0,120.0,1.0,0.0
143,58.0,0.0,240.0,0.0,0.0
144,73.0,120.0,120.0,1.0,0.0
145,61.0,120.0,240.0,0.0,0.0
146,70.0,120.0,120.0,1.0,0.0
147,73.0,0.0,120.0,1.0,0.0
148,64.0,120.0,240.0,0.0,0.0
149,71.0,120.0,120.0,1.0,0.0
150,70.0,0.0,120.0,1.0,0.0
151,63.0,0.0,240.0,0.0,0.0
152,71.0,120.0,120.0,1.0,0.0
153,66.0,120.0,120.0,1.0,0.0
154,63.0,120.0,120.0,1.0,0.0
155,59.0,0.0,240.0,0.0,0.0
156,66.0,120.0,120.0,1.0,0.0
157,63.0,120.0,240.0,0.0,0.0
158,71.0,120.0,120.0,1.0,0.0
159,66.0,0.0,120.0,1.0,0.0
160,66.0,0.0,240.0,0.0,0.0
161,75.0,120.0,120.0,1.0,0.0
162,71.0,120.0,120.0,1.0,0.0
163,71.0,0.0,240.0,0.0,0.0
164,78.0,120.0,120.0,1.0,0.0
165,76.0,120.0,120.0,1.0,0.0
166,75.0,120.0,120.0,1.0,0.0
167,73.0,180.0,120.0,1.0,0.0
168,71.0,120.0,240.0,1.0,0.0
169,87.0,60.0,60.0,0.0,0.0
170,85.0,0.0,60.0,0.0,0.0
171,87.0,60.0,120.0,0.0,0.0
172,83.0,60.0,60.0,1.0,0.0
173,82.0,120.0,60.0,1.0,0.0
174,83.0,60.0,120.0,1.0,0.0
175,80.0,60.0,60.0,0.0,0.0
176,78.0,120.0,60.0,0.0,0.0
177,80.0,60.0,120.0,0.0,0.0
178,77.0,60.0,60.0,1.0,0.0
179,75.0,120.0,60.0,1.0,0.0
180,77.0,60.0,120.0,1.0,0.0
181,73.0,60.0,60.0,0.0,0.0
182,71.0,120.0,60.0,0.0,0.0
183,73.0,60.0,120.0,0.0,0.0
184,70.0,60.0,60.0,1.0,0.0
185,68.0,120.0,60.0,1.0,0.0
186,70.0,60.0,120.0,1.0,0.0
187,85.0,60.0,60.0,0.0,0.0
188,83.0,120.0,60.0,0.0,0.0
189,85.0,60.0,120.0,0.0,0.0
190,82.0,60.0,60.0,1.0,0.0
191,80.0,120.0,60.0,1.0,0.0
192,82.0,60.0,120.0,1.0,0.0
193,78.0,60.0,60.0,0.0,0.0
194,77.0,120.0,60.0,0.0,0.0
195,78.0,60.0,120.0,0.0,0.0
196,75.0,60.0,60.0,1.0,0.0
197,73.0,120.0,60.0,1.0,0.0
198,75.0,60.0,120.0,1.0,0.0
199,71.0,60.0,60.0,0.0,0.0
200,70.0,120.0,60.0,0.0,0.0
201,71.0,60.0,120.0,0.0,0.0
202,68.0,60.0,60.0,1.0,0.0
203,66.0,120.0,60.0,1.0,0.0
204,68.0,60.0,120.0,1.0,0.0
205,83.0,60.0,60.0,0.0,0.0
206,82.0,120.0,60.0,0.0,0.0
207,83.0,60.0,120.0,0.0,0.0
208,80.0,60.0,60.0,1.0,0.0
209,78.0,120.0,60.0,1.0,0.0
210,80.0,60.0,120.0,1.0,0.0
211,75.0,60.0,60.0,0.0,0.0
212,73.0,120.0,60.0,0.0,0.0
213,75.0,60.0,120.0,0.0,0.0
214,71.0,60.0,60.0,1.0,0.0
215,70.0,120.0,60.0,1.0,0.0
216,71.0,60.0,120.0,1.0,0.0
217,68.0,60.0,60.0,0.0,0.0
218,66.0,120.0,60.0,0.0,0.0
219,68.0,60.0,120.0,0.0,0.0
220,65.0,60.0,60.0,1.0,0.0
221,63.0,120.0,60.0,1.0,0.0
222,65.0,60.0,120.0,1.0,0.0
223,59.0,60.0,60.0,0.0,0.0
224,58.0,120.0,60.0,0.0,0.0
225,59.0,60.0,120.0,0.0,0.0
226,56.0,60.0,60.0,1.0,0.0
227,54.0,120.0,60.0,1.0,0.0
228,56.0,60.0,120.0,1.0,0.0
229,53.0,60.0,60.0,0.0,0.0
230,51.0,120.0,60.0,0.0,0.0
231,53.0,60.0,120.0,0.0,0.0
232,49.0,60.0,60.0,1.0,0.0
233,47.0,120.0,60.0,1.0,0.0
234,49.0,60.0,120.0,1.0,0.0
235,47.0,60.0,60.0,0.0,0.0
236,46.0,120.0,60.0,0.0,0.0
237,47.0,60.0,120.0,0.0,0.0
238,46.0,60.0,60.0,1.0,0.0
239,44.0,120.0,60.0,1.0,0.0
240,46.0,60.0,240.0,1.0,0.0
241,66.0,60.0,60.0,0.0,0.0
242,68.0,60.0,60.0,0.0,0.0
243,70.0,0.0,60.0,0.0,0.0
244,73.0,60.0,60.0,0.0,0.0
245,70.0,60.0,60.0,0.0,0.0
246,68.0,60.0,60.0,0.0,0.0
247,66.0,120.0,60.0,0.0,0.0
248,78.0,60.0,240.0,1.0,0.0
249,66.0,60.0,60.0,0.0,0.0
250,68.0,60.0,60.0,0.0,0.0
251,70.0,0.0,60.0,0.0,0.0
252,73.0,60.0,60.0,0.0,0.0
253,70.0,60.0,60.0,0.0,0.0
254,68.0,60.0,60.0,0.0,0.0
255,66.0,120.0,60.0,0.0,0.0
256,76.0,60.0,240.0,1.0,0.0
257,66.0,60.0,60.0,0.0,0.0
258,68.0,60.0,60.0,0.0,0.0
259,70.0,0.0,60.0,0.0,0.0
260,73.0,60.0,60.0,0.0,0.0
261,70.0,60.0,60.0,0.0,0.0
262,68.0,60.0,60.0,0.0,0.0
263,66.0,120.0,60.0,0.0,0.0
264,75.0,60.0,240.0,0.0,0.0
265,59.0,60.0,60.0,1.0,0.0
266,61.0,60.0,60.0,1.0,0.0
267,63.0,0.0,60.0,1.0,0.0
268,66.0,60.0,60.0,1.0,0.0
269,63.0,60.0,60.0,1.0,0.0
270,61.0,60.0,60.0,1.0,0.0
271,59.0,120.0,60.0,1.0,0.0
272,57.0,60.0,240.0,0.0,0.0
273,59.0,60.0,60.0,1.0,0.0
274,61.0,60.0,60.0,1.0,0.0
275,62.0,0.0,60.0,1.0,0.0
276,66.0,60.0,60.0,1.0,0.0
277,62.0,60.0,60.0,1.0,0.0
278,61.0,60.0,60.0,1.0,0.0
279,59.0,120.0,60.0,1.0,0.0
280,56.0,0.0,240.0,0.0,0.0
281,60.0,60.0,60.0,1.0,0.0
282,61.0,60.0,60.0,1.0,0.0
283,63.0,60.0,60.0,1.0,0.0
284,66.0,60.0,60.0,1.0,0.0
285,63.0,60.0,60.0,1.0,0.0
286,61.0,60.0,60.0,1.0,0.0
287,60.0,120.0,60.0,1.0,0.0
288,61.0,60.0,120.0,1.0,0.0
289,65.0,0.0,60.0,1.0,0.0
290,68.0,60.0,60.0,0.0,0.0
291,63.0,0.0,60.0,1.0,0.0
292,66.0,120.0,60.0,0.0,0.0
293,65.0,0.0,120.0,1.0,0.0
294,68.0,60.0,120.0,0.0,0.0
295,58.0,60.0,60.0,1.0,0.0
296,73.0,0.0,60.0,0.0,0.0
297,56.0,120.0,60.0,1.0,0.0
298,71.0,0.0,60.0,0.0,0.0
299,73.0,60.0,120.0,0.0,0.0
300,58.0,0.0,120.0,1.0,0.0
301,63.0,0.0,60.0,1.0,0.0
302,66.0,60.0,60.0,0.0,0.0
303,61.0,0.0,60.0,1.0,0.0
304,65.0,120.0,60.0,0.0,0.0
305,66.0,0.0,120.0,0.0,0.0
306,63.0,60.0,120.0,1.0,0.0
307,56.0,60.0,60.0,1.0,0.0
308,71.0,0.0,60.0,0.0,0.0
309,70.0,0.0,60.0,0.0,0.0
310,54.0,120.0,60.0,1.0,0.0
311,56.0,60.0,120.0,1.0,0.0
312,71.0,0.0,120.0,0.0,0.0
313,65.0,0.0,60.0,0.0,0.0
314,61.0,60.0,60.0,1.0,0.0
315,59.0,0.0,60.0,1.0,0.0
316,63.0,120.0,60.0,0.0,0.0
317,61.0,60.0,120.0,1.0,0.0
318,65.0,0.0,120.0,0.0,0.0
319,70.0,0.0,60.0,0.0,0.0
320,54.0,60.0,60.0,1.0,0.0
321,68.0,60.0,60.0,0.0,0.0
322,53.0,0.0,60.0,1.0,0.0
323,70.0,60.0,120.0,0.0,0.0
324,54.0,60.0,60.0,1.0,0.0
325,56.0,0.0,60.0,1.0,0.0
326,66.0,0.0,120.0,0.0,0.0
327,58.0,60.0,60.0,1.0,0.0
328,59.0,60.0,60.0,1.0,0.0
329,61.0,60.0,60.0,1.0,0.0
330,65.0,60.0,120.0,0.0,0.0
331,59.0,0.0,60.0,1.0,0.0
332,66.0,0.0,120.0,0.0,0.0
333,58.0,60.0,60.0,1.0,0.0
334,56.0,60.0,60.0,1.0,0.0
335,70.0,60.0,60.0,0.0,0.0
336,54.0,120.0,120.0,1.0,0.0
337,68.0,0.0,60.0,0.0,0.0
338,58.0,60.0,120.0,1.0,0.0
339,66.0,0.0,120.0,0.0,0.0
340,49.0,120.0,120.0,1.0,0.0
341,73.0,60.0,60.0,0.0,0.0
342,71.0,0.0,60.0,0.0,0.0
343,70.0,240.0,120.0,0.0,0.0
344,54.0,0.0,120.0,1.0,0.0
345,78.0,0.0,240.0,0.0,0.0
346,42.0,300.0,240.0,1.0,0.0
347,47.0,60.0,60.0,0.0,0.0
348,63.0,120.0,120.0,1.0,0.0
349,46.0,0.0,60.0,0.0,0.0
350,59.0,120.0,120.0,1.0,0.0
351,47.0,0.0,120.0,0.0,0.0
352,54.0,120.0,120.0,1.0,0.0
353,59.0,60.0,120.0,1.0,0.0
354,63.0,0.0,120.0,1.0,0.0
355,82.0,60.0,60.0,0.0,0.0
356,83.0,60.0,60.0,0.0,0.0
357,59.0,0.0,120.0,1.0,0.0
358,85.0,60.0,60.0,0.0,0.0
359,83.0,60.0,60.0,0.0,0.0
360,66.0,0.0,120.0,1.0,0.0
361,85.0,60.0,60.0,0.0,0.0
362,83.0,60.0,60.0,0.0,0.0
363,85.0,60.0,60.0,0.0,0.0
364,63.0,60.0,120.0,1.0,0.0
365,83.0,0.0,60.0,0.0,0.0
366,85.0,60.0,60.0,0.0,0.0
367,59.0,0.0,120.0,1.0,0.0
368,83.0,60.0,60.0,0.0,0.0
369,63.0,0.0,120.0,1.0,0.0
370,85.0,60.0,60.0,0.0,0.0
371,83.0,60.0,60.0,0.0,0.0
372,85.0,60.0,60.0,0.0,0.0
373,61.0,60.0,120.0,1.0,0.0
374,83.0,0.0,60.0,0.0,0.0
375,82.0,60.0,60.0,0.0,0.0
376,59.0,0.0,120.0,1.0,0.0
377,83.0,120.0,60.0,0.0,0.0
378,66.0,120.0,120.0,1.0,0.0
379,85.0,0.0,240.0,0.0,0.0
380,61.0,120.0,120.0,1.0,0.0
381,58.0,120.0,120.0,1.0,0.0
382,61.0,60.0,120.0,1.0,0.0
383,58.0,60.0,60.0,0.0,0.0
384,66.0,0.0,120.0,1.0,0.0
385,56.0,120.0,60.0,0.0,0.0
386,61.0,120.0,120.0,1.0,0.0
387,58.0,120.0,480.0,0.0,0.0
388,73.0,120.0,120.0,1.0,0.0
389,70.0,120.0,120.0,1.0,0.0
390,66.0,0.0,120.0,1.0,0.0
391,70.0,120.0,120.0,1.0,0.0
392,61.0,0.0,120.0,0.0,0.0
393,59.0,0.0,120.0,0.0,0.0
394,68.0,120.0,120.0,1.0,0.0
395,66.0,120.0,120.0,1.0,0.0
396,58.0,0.0,120.0,0.0,0.0
397,71.0,120.0,120.0,1.0,0.0
398,56.0,120.0,240.0,0.0,0.0
399,68.0,0.0,120.0,1.0,0.0
400,63.0,120.0,120.0,1.0,0.0
401,68.0,120.0,120.0,1.0,0.0
402,80.0,0.0,240.0,0.0,0.0
403,71.0,120.0,120.0,1.0,0.0
404,68.0,120.0,120.0,1.0,0.0
405,78.0,120.0,240.0,0.0,0.0
406,75.0,120.0,120.0,1.0,0.0
407,71.0,0.0,120.0,1.0,0.0
408,68.0,120.0,120.0,1.0,0.0
409,77.0,120.0,240.0,0.0,0.0
410,75.0,0.0,120.0,1.0,0.0
411,73.0,0.0,120.0,1.0,0.0
412,78.0,120.0,120.0,0.0,0.0
413,71.0,120.0,120.0,1.0,0.0
414,80.0,0.0,120.0,0.0,0.0
415,70.0,120.0,240.0,0.0,0.0
416,78.0,120.0,120.0,1.0,0.0
417,73.0,0.0,120.0,1.0,0.0
418,70.0,120.0,120.0,1.0,0.0
419,73.0,60.0,120.0,1.0,0.0
420,78.0,60.0,120.0,1.0,0.0
421,54.0,60.0,60.0,0.0,0.0
422,52.0,0.0,60.0,0.0,0.0
423,54.0,60.0,60.0,0.0,0.0
424,73.0,60.0,120.0,1.0,0.0
425,52.0,0.0,60.0,0.0,0.0
426,54.0,60.0,60.0,0.0,0.0
427,85.0,0.0,120.0,1.0,0.0
428,52.0,60.0,60.0,0.0,0.0
429,82.0,60.0,120.0,1.0,0.0
430,54.0,60.0,60.0,0.0,0.0
431,52.0,0.0,60.0,0.0,0.0
432,54.0,60.0,60.0,0.0,0.0
433,78.0,60.0,120.0,1.0,0.0
434,52.0,0.0,60.0,0.0,0.0
435,54.0,60.0,60.0,0.0,0.0
436,82.0,60.0,120.0,1.0,0.0
437,52.0,0.0,60.0,0.0,0.0
438,80.0,0.0,120.0,1.0,0.0
439,54.0,60.0,60.0,0.0,0.0
440,52.0,60.0,60.0,0.0,0.0
441,78.0,120.0,120.0,1.0,0.0
442,51.0,60.0,60.0,0.0,0.0
443,52.0,0.0,60.0,0.0,0.0
444,51.0,0.0,240.0,0.0,0.0
445,83.0,120.0,120.0,1.0,0.0
446,78.0,120.0,120.0,1.0,0.0
447,47.0,0.0,240.0,0.0,0.0
448,75.0,120.0,120.0,1.0,0.0
449,78.0,120.0,120.0,1.0,0.0
450,51.0,120.0,240.0,0.0,0.0
451,83.0,120.0,120.0,1.0,0.0
452,78.0,0.0,120.0,1.0,0.0
453,87.0,120.0,120.0,1.0,0.0
454,54.0,120.0,240.0,0.0,0.0
455,83.0,0.0,120.0,1.0,0.0
456,59.0,120.0,240.0,0.0,0.0
457,78.0,120.0,120.0,1.0,0.0
458,81.0,0.0,120.0,1.0,0.0
459,80.0,120.0,120.0,1.0,0.0
460,51.0,0.0,240.0,0.0,0.0
461,78.0,120.0,120.0,1.0,0.0
462,52.0,120.0,240.0,0.0,0.0
463,80.0,120.0,120.0,1.0,0.0
464,76.0,0.0,120.0,1.0,0.0
465,56.0,120.0,240.0,0.0,0.0
466,71.0,120.0,120.0,1.0,0.0
467,76.0,0.0,120.0,1.0,0.0
468,59.0,0.0,240.0,0.0,0.0
469,80.0,120.0,120.0,1.0,0.0
470,76.0,120.0,120.0,1.0,0.0
471,83.0,120.0,120.0,1.0,0.0
472,64.0,120.0,240.0,0.0,0.0
473,80.0,0.0,120.0,1.0,0.0
474,76.0,120.0,120.0,1.0,0.0
475,56.0,120.0,240.0,0.0,0.0
476,78.0,0.0,120.0,1.0,0.0
477,76.0,120.0,120.0,1.0,0.0
478,59.0,120.0,240.0,0.0,0.0
479,75.0,0.0,120.0,1.0,0.0
480,58.0,0.0,240.0,0.0,0.0
481,73.0,120.0,120.0,1.0,0.0
482,70.0,120.0,120.0,1.0,0.0
483,66.0,120.0,120.0,1.0,0.0
484,61.0,120.0,240.0,0.0,0.0
485,70.0,0.0,120.0,1.0,0.0
486,54.0,0.0,240.0,0.0,0.0
487,73.0,120.0,120.0,1.0,0.0
488,70.0,120.0,120.0,1.0,0.0
489,58.0,120.0,240.0,0.0,0.0
490,78.0,120.0,120.0,1.0,0.0
491,73.0,0.0,120.0,1.0,0.0
492,70.0,120.0,120.0,1.0,0.0
493,61.0,120.0,240.0,0.0,0.0
494,73.0,0.0,120.0,1.0,0.0
495,64.0,0.0,240.0,0.0,0.0
496,71.0,120.0,120.0,1.0,0.0
497,70.0,120.0,120.0,1.0,0.0
498,71.0,120.0,120.0,1.0,0.0
499,63.0,0.0,240.0,0.0,0.0
500,66.0,120.0,120.0,1.0,0.0
501,63.0,120.0,120.0,1.0,0.0
502,59.0,120.0,240.0,0.0,0.0
503,66.0,0.0,120.0,1.0,0.0
504,71.0,120.0,120.0,1.0,0.0
505,63.0,0.0,240.0,0.0,0.0
506,66.0,120.0,120.0,1.0,0.0
507,75.0,120.0,120.0,1.0,0.0
508,66.0,120.0,240.0,0.0,0.0
509,71.0,0.0,120.0,1.0,0.0
510,78.0,120.0,120.0,1.0,0.0
511,71.0,0.0,240.0,0.0,0.0
512,76.0,120.0,120.0,1.0,0.0
513,75.0,120.0,120.0,1.0,0.0
514,73.0,180.0,120.0,1.0,0.0
515,71.0,120.0,240.0,1.0,0.0
516,87.0,60.0,60.0,0.0,0.0
517,85.0,0.0,60.0,0.0,0.0
518,87.0,60.0,120.0,0.0,0.0
519,83.0,60.0,60.0,1.0,0.0
520,82.0,120.0,60.0,1.0,0.0
521,83.0,60.0,120.0,1.0,0.0
522,80.0,60.0,60.0,0.0,0.0
523,78.0,120.0,60.0,0.0,0.0
524,80.0,60.0,120.0,0.0,0.0
525,77.0,60.0,60.0,1.0,0.0
526,75.0,120.0,60.0,1.0,0.0
527,77.0,60.0,120.0,1.0,0.0
528,73.0,60.0,60.0,0.0,0.0
529,71.0,120.0,60.0,0.0,0.0
530,73.0,60.0,120.0,0.0,0.0
531,70.0,60.0,60.0,1.0,0.0
532,68.0,120.0,60.0,1.0,0.0
533,70.0,60.0,120.0,1.0,0.0
534,85.0,60.0,60.0,0.0,0.0
535,83.0,120.0,60.0,0.0,0.0
536,85.0,60.0,120.0,0.0,0.0
537,82.0,60.0,60.0,1.0,0.0
538,80.0,120.0,60.0,1.0,0.0
539,82.0,60.0,120.0,1.0,0.0
540,78.0,60.0,60.0,0.0,0.0
541,77.0,120.0,60.0,0.0,0.0
542,78.0,60.0,120.0,0.0,0.0
543,75.0,60.0,60.0,1.0,0.0
544,73.0,120.0,60.0,1.0,0.0
545,75.0,60.0,120.0,1.0,0.0
546,71.0,60.0,60.0,0.0,0.0
547,70.0,120.0,60.0,0.0,0.0
548,71.0,60.0,120.0,0.0,0.0
549,68.0,60.0,60.0,1.0,0.0
550,66.0,120.0,60.0,1.0,0.0
551,68.0,60.0,120.0,1.0,0.0
552,83.0,60.0,60.0,0.0,0.0
553,82.0,120.0,60.0,0.0,0.0
554,83.0,60.0,120.0,0.0,0.0
555,80.0,60.0,60.0,1.0,0.0
556,78.0,120.0,60.0,1.0,0.0
557,80.0,60.0,120.0,1.0,0.0
558,75.0,60.0,60.0,0.0,0.0
559,73.0,120.0,60.0,0.0,0.0
560,75.0,60.0,120.0,0.0,0.0
561,71.0,60.0,60.0,1.0,0.0
562,70.0,120.0,60.0,1.0,0.0
563,71.0,60.0,120.0,1.0,0.0
564,68.0,60.0,60.0,0.0,0.0
565,66.0,120.0,60.0,0.0,0.0
566,68.0,60.0,120.0,0.0,0.0
567,65.0,60.0,60.0,1.0,0.0
568,63.0,120.0,60.0,1.0,0.0
569,65.0,60.0,120.0,1.0,0.0
570,59.0,60.0,60.0,0.0,0.0
571,58.0,120.0,60.0,0.0,0.0
572,59.0,60.0,120.0,0.0,0.0
573,56.0,60.0,60.0,1.0,0.0
574,54.0,120.0,60.0,1.0,0.0
575,56.0,60.0,120.0,1.0,0.0
576,53.0,60.0,60.0,0.0,0.0
577,51.0,120.0,60.0,0.0,0.0
578,53.0,60.0,120.0,0.0,0.0
579,49.0,60.0,60.0,1.0,0.0
580,47.0,120.0,60.0,1.0,0.0
581,49.0,60.0,120.0,1.0,0.0
582,47.0,60.0,60.0,0.0,0.0
583,46.0,120.0,60.0,0.0,0.0
584,47.0,60.0,120.0,0.0,0.0
585,46.0,60.0,60.0,1.0,0.0
586,44.0,120.0,60.0,1.0,0.0
587,46.0,0.0,240.0,1.0,0.0
588,66.0,60.0,60.0,0.0,0.0
589,68.0,60.0,60.0,0.0,0.0
590,70.0,60.0,60.0,0.0,0.0
591,73.0,60.0,60.0,0.0,0.0
592,70.0,60.0,60.0,0.0,0.0
593,68.0,60.0,60.0,0.0,0.0
594,66.0,120.0,60.0,0.0,0.0
595,78.0,0.0,240.0,1.0,0.0
596,66.0,60.0,60.0,0.0,0.0
597,68.0,60.0,60.0,0.0,0.0
598,70.0,60.0,60.0,0.0,0.0
599,73.0,60.0,60.0,0.0,0.0
600,70.0,60.0,60.0,0.0,0.0
601,68.0,60.0,60.0,0.0,0.0
602,66.0,120.0,60.0,0.0,0.0
603,76.0,60.0,240.0,1.0,0.0
604,66.0,60.0,60.0,0.0,0.0
605,68.0,60.0,60.0,0.0,0.0
606,70.0,0.0,60.0,0.0,0.0
607,73.0,60.0,60.0,0.0,0.0
608,70.0,60.0,60.0,0.0,0.0
609,68.0,60.0,60.0,0.0,0.0
610,66.0,120.0,60.0,0.0,0.0
611,75.0,60.0,240.0,0.0,0.0
612,59.0,60.0,60.0,1.0,0.0
613,61.0,60.0,60.0,1.0,0.0
614,63.0,0.0,60.0,1.0,0.0
615,66.0,60.0,60.0,1.0,0.0
616,63.0,60.0,60.0,1.0,0.0
617,61.0,60.0,60.0,1.0,0.0
618,59.0,120.0,60.0,1.0,0.0
619,57.0,60.0,240.0,0.0,0.0
620,59.0,60.0,60.0,1.0,0.0
621,61.0,60.0,60.0,1.0,0.0
622,62.0,0.0,60.0,1.0,0.0
623,66.0,60.0,60.0,1.0,0.0
624,62.0,60.0,60.0,1.0,0.0
625,61.0,60.0,60.0,1.0,0.0
626,59.0,120.0,60.0,1.0,0.0
627,56.0,0.0,240.0,0.0,0.0
628,60.0,60.0,60.0,1.0,0.0
629,61.0,60.0,60.0,1.0,0.0
630,63.0,60.0,60.0,1.0,0.0
631,66.0,60.0,60.0,1.0,0.0
632,63.0,60.0,60.0,1.0,0.0
633,61.0,60.0,60.0,1.0,0.0
634,60.0,120.0,60.0,1.0,0.0
635,61.0,60.0,120.0,1.0,0.0
636,68.0,60.0,60.0,0.0,0.0
637,65.0,0.0,60.0,1.0,0.0
638,63.0,120.0,60.0,1.0,0.0
639,66.0,0.0,60.0,0.0,0.0
640,68.0,60.0,120.0,0.0,0.0
641,65.0,0.0,120.0,1.0,0.0
642,58.0,60.0,60.0,1.0,0.0
643,73.0,0.0,60.0,0.0,0.0
644,71.0,0.0,60.0,0.0,0.0
645,56.0,120.0,60.0,1.0,0.0
646,73.0,60.0,120.0,0.0,0.0
647,58.0,0.0,120.0,1.0,0.0
648,63.0,60.0,60.0,1.0,0.0
649,66.0,0.0,60.0,0.0,0.0
650,65.0,0.0,60.0,0.0,0.0
651,61.0,120.0,60.0,1.0,0.0
652,66.0,0.0,120.0,0.0,0.0
653,63.0,60.0,120.0,1.0,0.0
654,71.0,60.0,60.0,0.0,0.0
655,56.0,0.0,60.0,1.0,0.0
656,54.0,0.0,60.0,1.0,0.0
657,70.0,120.0,60.0,0.0,0.0
658,71.0,0.0,120.0,0.0,0.0
659,56.0,60.0,120.0,1.0,0.0
660,65.0,0.0,60.0,0.0,0.0
661,61.0,60.0,60.0,1.0,0.0
662,63.0,0.0,60.0,0.0,0.0
663,59.0,120.0,60.0,1.0,0.0
664,61.0,0.0,120.0,1.0,0.0
665,65.0,60.0,120.0,0.0,0.0
666,70.0,0.0,60.0,0.0,0.0
667,54.0,60.0,60.0,1.0,0.0
668,53.0,60.0,60.0,1.0,0.0
669,68.0,0.0,60.0,0.0,0.0
670,54.0,60.0,60.0,1.0,0.0
671,70.0,60.0,120.0,0.0,0.0
672,56.0,0.0,60.0,1.0,0.0
673,58.0,60.0,60.0,1.0,0.0
674,66.0,60.0,120.0,0.0,0.0
675,59.0,0.0,60.0,1.0,0.0
676,61.0,60.0,60.0,1.0,0.0
677,65.0,60.0,120.0,0.0,0.0
678,59.0,0.0,60.0,1.0,0.0
679,58.0,60.0,60.0,1.0,0.0
680,66.0,60.0,120.0,0.0,0.0
681,56.0,0.0,60.0,1.0,0.0
682,54.0,0.0,120.0,1.0,0.0
683,70.0,60.0,60.0,0.0,0.0
684,68.0,120.0,60.0,0.0,0.0
685,58.0,0.0,120.0,1.0,0.0
686,66.0,60.0,120.0,0.0,0.0
687,49.0,120.0,120.0,1.0,0.0
688,73.0,60.0,60.0,0.0,0.0
689,71.0,0.0,60.0,0.0,0.0
690,70.0,0.0,120.0,0.0,0.0
691,54.0,240.0,120.0,1.0,0.0
692,78.0,0.0,240.0,0.0,0.0
693,42.0,360.0,240.0,1.0,0.0
694,82.0,120.0,120.0,0.0,0.0
695,54.0,120.0,240.0,1.0,0.0
696,85.0,0.0,120.0,0.0,0.0
697,90.0,120.0,120.0,0.0,0.0
698,85.0,60.0,120.0,0.0,0.0
699,82.0,60.0,120.0,0.0,0.0
700,87.0,60.0,60.0,1.0,0.0
701,88.0,0.0,60.0,1.0,0.0
702,85.0,0.0,120.0,0.0,0.0
703,90.0,60.0,60.0,1.0,0.0
704,88.0,60.0,60.0,1.0,0.0
705,90.0,60.0,60.0,1.0,0.0
706,78.0,0.0,120.0,0.0,0.0
707,88.0,60.0,60.0,1.0,0.0
708,82.0,60.0,120.0,0.0,0.0
709,90.0,60.0,60.0,1.0,0.0
710,88.0,0.0,60.0,1.0,0.0
711,90.0,60.0,60.0,1.0,0.0
712,85.0,0.0,120.0,0.0,0.0
713,88.0,60.0,60.0,1.0,0.0
714,90.0,60.0,60.0,1.0,0.0
715,82.0,0.0,120.0,0.0,0.0
716,88.0,60.0,60.0,1.0,0.0
717,83.0,60.0,120.0,0.0,0.0
718,90.0,60.0,60.0,1.0,0.0
719,88.0,0.0,60.0,1.0,0.0
720,87.0,60.0,60.0,1.0,0.0
721,85.0,0.0,120.0,0.0,0.0
722,88.0,120.0,60.0,1.0,0.0
723,78.0,120.0,120.0,0.0,0.0
724,87.0,0.0,240.0,1.0,0.0
725,83.0,120.0,120.0,0.0,0.0
726,87.0,120.0,120.0,0.0,0.0
727,83.0,60.0,120.0,0.0,0.0
728,78.0,120.0,120.0,0.0,0.0
729,69.0,60.0,60.0,1.0,0.0
730,68.0,0.0,60.0,1.0,0.0
731,69.0,0.0,480.0,1.0,0.0
732,83.0,120.0,120.0,0.0,0.0
733,75.0,120.0,120.0,0.0,0.0
734,78.0,120.0,120.0,0.0,0.0
735,83.0,120.0,120.0,0.0,0.0
736,73.0,120.0,120.0,1.0,0.0
737,75.0,0.0,120.0,0.0,0.0
738,76.0,0.0,120.0,0.0,0.0
739,71.0,120.0,120.0,1.0,0.0
740,69.0,120.0,120.0,1.0,0.0
741,78.0,0.0,120.0,0.0,0.0
742,71.0,120.0,120.0,0.0,0.0
743,68.0,0.0,240.0,1.0,0.0
744,76.0,120.0,120.0,0.0,0.0
745,80.0,120.0,120.0,0.0,0.0
746,76.0,120.0,120.0,0.0,0.0
747,73.0,120.0,120.0,0.0,0.0
748,82.0,0.0,240.0,1.0,0.0
749,76.0,120.0,120.0,0.0,0.0
750,85.0,0.0,240.0,1.0,0.0
751,70.0,120.0,120.0,0.0,0.0
752,73.0,120.0,120.0,0.0,0.0
753,79.0,120.0,240.0,1.0,0.0
754,76.0,120.0,120.0,0.0,0.0
755,70.0,0.0,120.0,0.0,0.0
756,80.0,120.0,120.0,1.0,0.0
757,71.0,0.0,120.0,0.0,0.0
758,73.0,120.0,120.0,0.0,0.0
759,82.0,0.0,120.0,1.0,0.0
760,67.0,120.0,120.0,0.0,0.0
761,75.0,0.0,240.0,1.0,0.0
762,70.0,120.0,120.0,0.0,0.0
763,75.0,120.0,120.0,0.0,0.0
764,70.0,60.0,120.0,0.0,0.0
765,51.0,60.0,60.0,1.0,0.0
766,67.0,0.0,120.0,0.0,0.0
767,49.0,60.0,60.0,1.0,0.0
768,70.0,60.0,120.0,0.0,0.0
769,47.0,60.0,60.0,1.0,0.0
770,49.0,0.0,60.0,1.0,0.0
771,51.0,60.0,60.0,1.0,0.0
772,63.0,60.0,120.0,0.0,0.0
773,49.0,0.0,60.0,1.0,0.0
774,51.0,60.0,60.0,1.0,0.0
775,67.0,60.0,120.0,0.0,0.0
776,49.0,0.0,60.0,1.0,0.0
777,70.0,0.0,120.0,0.0,0.0
778,51.0,60.0,60.0,1.0,0.0
779,49.0,60.0,60.0,1.0,0.0
780,51.0,60.0,60.0,1.0,0.0
781,67.0,60.0,120.0,0.0,0.0
782,49.0,0.0,60.0,1.0,0.0
783,51.0,60.0,60.0,1.0,0.0
784,68.0,60.0,120.0,0.0,0.0
785,49.0,0.0,60.0,1.0,0.0
786,47.0,60.0,60.0,1.0,0.0
787,70.0,120.0,120.0,0.0,0.0
788,49.0,0.0,60.0,1.0,0.0
789,47.0,0.0,240.0,1.0,0.0
790,63.0,120.0,120.0,0.0,0.0
791,68.0,120.0,120.0,0.0,0.0
792,71.0,120.0,120.0,0.0,0.0
793,44.0,120.0,240.0,1.0,0.0
794,68.0,0.0,120.0,0.0,0.0
795,47.0,0.0,240.0,1.0,0.0
796,63.0,120.0,120.0,0.0,0.0
797,68.0,120.0,120.0,0.0,0.0
798,51.0,0.0,240.0,1.0,0.0
799,59.0,120.0,120.0,0.0,0.0
800,63.0,120.0,120.0,0.0,0.0
801,47.0,0.0,240.0,1.0,0.0
802,68.0,120.0,120.0,0.0,0.0
803,67.0,120.0,120.0,0.0,0.0
804,44.0,0.0,240.0,1.0,0.0
805,68.0,120.0,120.0,0.0,0.0
806,71.0,120.0,120.0,0.0,0.0
807,64.0,120.0,120.0,0.0,0.0
808,49.0,0.0,240.0,1.0,0.0
809,69.0,120.0,120.0,0.0,0.0
810,37.0,0.0,240.0,1.0,0.0
811,73.0,120.0,120.0,0.0,0.0
812,69.0,120.0,120.0,0.0,0.0
813,64.0,120.0,120.0,0.0,0.0
814,49.0,0.0,240.0,1.0,0.0
815,69.0,120.0,120.0,0.0,0.0
816,52.0,120.0,240.0,1.0,0.0
817,61.0,120.0,120.0,0.0,0.0
818,64.0,0.0,120.0,0.0,0.0
819,51.0,120.0,240.0,1.0,0.0
820,69.0,120.0,120.0,0.0,0.0
821,68.0,0.0,120.0,0.0,0.0
822,49.0,120.0,240.0,1.0,0.0
823,69.0,120.0,120.0,0.0,0.0
824,73.0,0.0,120.0,0.0,0.0
825,51.0,0.0,240.0,1.0,0.0
826,67.0,120.0,120.0,0.0,0.0
827,70.0,120.0,120.0,0.0,0.0
828,55.0,0.0,240.0,1.0,0.0
829,73.0,120.0,120.0,0.0,0.0
830,70.0,120.0,120.0,0.0,0.0
831,58.0,0.0,240.0,1.0,0.0
832,67.0,120.0,120.0,0.0,0.0
833,70.0,120.0,120.0,0.0,0.0
834,63.0,120.0,240.0,1.0,0.0
835,63.0,120.0,120.0,0.0,0.0
836,67.0,0.0,120.0,0.0,0.0
837,58.0,120.0,120.0,0.0,0.0
838,51.0,120.0,240.0,1.0,0.0
839,61.0,0.0,120.0,0.0,0.0
840,68.0,0.0,120.0,1.0,0.0
841,59.0,120.0,120.0,0.0,0.0
842,58.0,0.0,120.0,0.0,0.0
843,67.0,120.0,120.0,1.0,0.0
844,68.0,120.0,240.0,1.0,0.0
845,59.0,120.0,120.0,0.0,0.0
846,63.0,0.0,120.0,0.0,0.0
847,68.0,120.0,120.0,0.0,0.0
848,71.0,0.0,240.0,1.0,0.0
849,63.0,120.0,120.0,0.0,0.0
850,75.0,0.0,240.0,1.0,0.0
851,59.0,120.0,120.0,0.0,0.0
852,63.0,120.0,120.0,0.0,0.0
853,80.0,0.0,120.0,1.0,0.0
854,56.0,120.0,120.0,0.0,0.0
855,58.0,120.0,120.0,0.0,0.0
856,79.0,0.0,120.0,1.0,0.0
857,59.0,120.0,120.0,0.0,0.0
858,80.0,0.0,240.0,1.0,0.0
859,56.0,120.0,120.0,0.0,0.0
860,59.0,120.0,120.0,0.0,0.0
861,63.0,120.0,120.0,0.0,0.0
862,68.0,60.0,120.0,0.0,0.0
863,52.0,60.0,60.0,1.0,0.0
864,51.0,120.0,60.0,1.0,0.0
865,52.0,60.0,120.0,1.0,0.0
866,56.0,60.0,60.0,0.0,0.0
867,54.0,120.0,60.0,0.0,0.0
868,56.0,60.0,120.0,0.0,0.0
869,61.0,60.0,60.0,1.0,0.0
870,60.0,120.0,60.0,1.0,0.0
871,61.0,60.0,120.0,1.0,0.0
872,64.0,60.0,60.0,0.0,0.0
873,63.0,120.0,60.0,0.0,0.0
874,64.0,60.0,120.0,0.0,0.0
875,68.0,60.0,60.0,1.0,0.0
876,66.0,120.0,60.0,1.0,0.0
877,68.0,60.0,120.0,1.0,0.0
878,73.0,60.0,60.0,0.0,0.0
879,71.0,120.0,60.0,0.0,0.0
880,73.0,60.0,120.0,0.0,0.0
881,51.0,60.0,60.0,1.0,0.0
882,49.0,120.0,60.0,1.0,0.0
883,51.0,60.0,120.0,1.0,0.0
884,54.0,60.0,60.0,0.0,0.0
885,52.0,120.0,60.0,0.0,0.0
886,54.0,60.0,120.0,0.0,0.0
887,59.0,60.0,60.0,1.0,0.0
888,58.0,120.0,60.0,1.0,0.0
889,59.0,60.0,120.0,1.0,0.0
890,63.0,60.0,60.0,0.0,0.0
891,61.0,120.0,60.0,0.0,0.0
892,63.0,60.0,120.0,0.0,0.0
893,66.0,60.0,60.0,1.0,0.0
894,64.0,120.0,60.0,1.0,0.0
895,66.0,60.0,120.0,1.0,0.0
896,71.0,60.0,60.0,0.0,0.0
897,70.0,120.0,60.0,0.0,0.0
898,71.0,60.0,120.0,0.0,0.0
899,49.0,60.0,60.0,1.0,0.0
900,47.0,120.0,60.0,1.0,0.0
901,49.0,60.0,120.0,1.0,0.0
902,52.0,60.0,60.0,0.0,0.0
903,51.0,120.0,60.0,0.0,0.0
904,52.0,60.0,120.0,0.0,0.0
905,56.0,60.0,60.0,1.0,0.0
906,54.0,120.0,60.0,1.0,0.0
907,56.0,60.0,120.0,1.0,0.0
908,61.0,60.0,60.0,0.0,0.0
909,59.0,120.0,60.0,0.0,0.0
910,61.0,60.0,120.0,0.0,0.0
911,64.0,60.0,60.0,1.0,0.0
912,63.0,120.0,60.0,1.0,0.0
913,64.0,60.0,120.0,1.0,0.0
914,70.0,60.0,60.0,0.0,0.0
915,68.0,120.0,60.0,0.0,0.0
916,70.0,60.0,120.0,0.0,0.0
917,73.0,60.0,60.0,1.0,0.0
918,71.0,120.0,60.0,1.0,0.0
919,73.0,60.0,120.0,1.0,0.0
920,78.0,60.0,60.0,0.0,0.0
921,76.0,120.0,60.0,0.0,0.0
922,78.0,60.0,120.0,0.0,0.0
923,82.0,60.0,60.0,1.0,0.0
924,80.0,120.0,60.0,1.0,0.0
925,82.0,60.0,120.0,1.0,0.0
926,83.0,60.0,60.0,0.0,0.0
927,82.0,120.0,60.0,0.0,0.0
928,83.0,60.0,120.0,0.0,0.0
929,85.0,60.0,60.0,1.0,0.0
930,83.0,120.0,60.0,1.0,0.0
931,85.0,60.0,120.0,1.0,0.0
932,87.0,60.0,60.0,0.0,0.0
933,85.0,120.0,60.0,0.0,0.0
934,87.0,60.0,240.0,0.0,0.0
935,71.0,60.0,60.0,1.0,0.0
936,73.0,60.0,60.0,1.0,0.0
937,75.0,0.0,60.0,1.0,0.0
938,78.0,60.0,60.0,1.0,0.0
939,75.0,60.0,60.0,1.0,0.0
940,73.0,60.0,60.0,1.0,0.0
941,71.0,120.0,60.0,1.0,0.0
942,66.0,0.0,240.0,0.0,0.0
943,71.0,60.0,60.0,1.0,0.0
944,73.0,60.0,60.0,1.0,0.0
945,75.0,60.0,60.0,1.0,0.0
946,78.0,60.0,60.0,1.0,0.0
947,75.0,60.0,60.0,1.0,0.0
948,73.0,60.0,60.0,1.0,0.0
949,71.0,120.0,60.0,1.0,0.0
950,69.0,60.0,240.0,0.0,0.0
951,71.0,60.0,60.0,1.0,0.0
952,73.0,60.0,60.0,1.0,0.0
953,75.0,0.0,60.0,1.0,0.0
954,78.0,60.0,60.0,1.0,0.0
955,75.0,60.0,60.0,1.0,0.0
956,73.0,60.0,60.0,1.0,0.0
957,71.0,120.0,60.0,1.0,0.0
958,76.0,0.0,240.0,1.0,0.0
959,68.0,60.0,60.0,0.0,0.0
960,69.0,60.0,60.0,0.0,0.0
961,71.0,60.0,60.0,0.0,0.0
962,76.0,60.0,60.0,0.0,0.0
963,71.0,60.0,60.0,0.0,0.0
964,69.0,60.0,60.0,0.0,0.0
965,68.0,120.0,60.0,0.0,0.0
966,61.0,0.0,240.0,1.0,0.0
967,70.0,60.0,60.0,0.0,0.0
968,71.0,60.0,60.0,0.0,0.0
969,73.0,60.0,60.0,0.0,0.0
970,76.0,60.0,60.0,0.0,0.0
971,73.0,60.0,60.0,0.0,0.0
972,71.0,60.0,60.0,0.0,0.0
973,70.0,120.0,60.0,0.0,0.0
974,56.0,60.0,240.0,1.0,0.0
975,71.0,60.0,60.0,0.0,0.0
976,73.0,60.0,60.0,0.0,0.0
977,74.0,0.0,60.0,0.0,0.0
978,77.0,60.0,60.0,0.0,0.0
979,74.0,60.0,60.0,0.0,0.0
980,73.0,60.0,60.0,0.0,0.0
981,71.0,120.0,60.0,0.0,0.0
982,58.0,0.0,120.0,1.0,0.0
983,78.0,60.0,120.0,0.0,0.0
984,61.0,0.0,60.0,1.0,0.0
985,76.0,60.0,60.0,0.0,0.0
986,59.0,0.0,60.0,1.0,0.0
987,75.0,120.0,60.0,0.0,0.0
988,61.0,60.0,120.0,1.0,0.0
989,76.0,0.0,120.0,0.0,0.0
990,66.0,60.0,60.0,1.0,0.0
991,75.0,0.0,60.0,0.0,0.0
992,64.0,120.0,60.0,1.0,0.0
993,73.0,0.0,60.0,0.0,0.0
994,75.0,60.0,120.0,0.0,0.0
995,66.0,0.0,120.0,1.0,0.0
996,59.0,0.0,60.0,1.0,0.0
997,74.0,60.0,60.0,0.0,0.0
998,58.0,0.0,60.0,1.0,0.0
999,73.0,120.0,60.0,0.0,0.0
1000,74.0,0.0,120.0,0.0,0.0
1001,59.0,60.0,120.0,1.0,0.0
1002,73.0,0.0,60.0,0.0,0.0
1003,64.0,60.0,60.0,1.0,0.0
1004,71.0,120.0,60.0,0.0,0.0
1005,63.0,0.0,60.0,1.0,0.0
1006,64.0,60.0,120.0,1.0,0.0
1007,73.0,0.0,120.0,0.0,0.0
1008,58.0,0.0,60.0,1.0,0.0
1009,78.0,60.0,60.0,0.0,0.0
1010,76.0,120.0,60.0,0.0,0.0
1011,56.0,0.0,60.0,1.0,0.0
1012,58.0,60.0,120.0,1.0,0.0
1013,78.0,0.0,120.0,0.0,0.0
1014,71.0,60.0,60.0,0.0,0.0
1015,63.0,0.0,60.0,1.0,0.0
1016,61.0,60.0,60.0,1.0,0.0
1017,70.0,0.0,60.0,0.0,0.0
1018,71.0,60.0,60.0,0.0,0.0
1019,63.0,0.0,120.0,1.0,0.0
1020,73.0,60.0,60.0,0.0,0.0
1021,75.0,60.0,60.0,0.0,0.0
1022,59.0,60.0,120.0,1.0,0.0
1023,76.0,0.0,60.0,0.0,0.0
1024,78.0,60.0,60.0,0.0,0.0
1025,58.0,60.0,120.0,1.0,0.0
1026,76.0,0.0,60.0,0.0,0.0
1027,75.0,60.0,60.0,0.0,0.0
1028,59.0,0.0,120.0,1.0,0.0
1029,73.0,60.0,60.0,0.0,0.0
1030,71.0,0.0,120.0,0.0,0.0
1031,63.0,60.0,60.0,1.0,0.0
1032,61.0,120.0,60.0,1.0,0.0
1033,75.0,60.0,120.0,0.0,0.0
1034,59.0,0.0,120.0,1.0,0.0
1035,66.0,60.0,60.0,1.0,0.0
1036,66.0,0.0,120.0,0.0,0.0
1037,64.0,120.0,60.0,1.0,0.0
1038,63.0,240.0,120.0,1.0,0.0
1039,71.0,0.0,120.0,0.0,0.0
1040,71.0,0.0,240.0,1.0,0.0
1041,59.0,360.0,240.0,0.0,0.0
1042,54.0,0.0,240.0,1.0,0.0
1043,82.0,120.0,120.0,0.0,0.0
1044,85.0,120.0,120.0,0.0,0.0
1045,90.0,120.0,120.0,0.0,0.0
1046,85.0,60.0,120.0,0.0,0.0
1047,87.0,60.0,60.0,1.0,0.0
1048,82.0,60.0,120.0,0.0,0.0
1049,88.0,0.0,60.0,1.0,0.0
1050,85.0,0.0,120.0,0.0,0.0
1051,90.0,60.0,60.0,1.0,0.0
1052,88.0,60.0,60.0,1.0,0.0
1053,90.0,60.0,60.0,1.0,0.0
1054,78.0,0.0,120.0,0.0,0.0
1055,88.0,60.0,60.0,1.0,0.0
1056,82.0,60.0,120.0,0.0,0.0
1057,90.0,60.0,60.0,1.0,0.0
1058,88.0,0.0,60.0,1.0,0.0
1059,90.0,60.0,60.0,1.0,0.0
1060,85.0,0.0,120.0,0.0,0.0
1061,88.0,60.0,60.0,1.0,0.0
1062,82.0,60.0,120.0,0.0,0.0
1063,90.0,60.0,60.0,1.0,0.0
1064,88.0,0.0,60.0,1.0,0.0
1065,83.0,60.0,120.0,0.0,0.0
1066,90.0,60.0,60.0,1.0,0.0
1067,88.0,0.0,60.0,1.0,0.0
1068,87.0,60.0,60.0,1.0,0.0
1069,85.0,120.0,120.0,0.0,0.0
1070,88.0,0.0,60.0,1.0,0.0
1071,87.0,120.0,240.0,1.0,0.0
1072,78.0,120.0,120.0,0.0,0.0
1073,83.0,0.0,120.0,0.0,0.0
1074,87.0,120.0,120.0,0.0,0.0
1075,83.0,60.0,120.0,0.0,0.0
1076,69.0,60.0,60.0,1.0,0.0
1077,78.0,120.0,120.0,0.0,0.0
1078,68.0,0.0,60.0,1.0,0.0
1079,69.0,0.0,480.0,1.0,0.0
1080,83.0,120.0,120.0,0.0,0.0
1081,75.0,120.0,120.0,0.0,0.0
1082,78.0,120.0,120.0,0.0,0.0
1083,83.0,120.0,120.0,0.0,0.0
1084,73.0,0.0,120.0,1.0,0.0
1085,75.0,120.0,120.0,0.0,0.0
1086,71.0,120.0,120.0,1.0,0.0
1087,76.0,0.0,120.0,0.0,0.0
1088,78.0,0.0,120.0,0.0,0.0
1089,69.0,120.0,120.0,1.0,0.0
1090,68.0,120.0,240.0,1.0,0.0
1091,71.0,120.0,120.0,0.0,0.0
1092,76.0,0.0,120.0,0.0,0.0
1093,80.0,120.0,120.0,0.0,0.0
1094,76.0,120.0,120.0,0.0,0.0
1095,73.0,120.0,120.0,0.0,0.0
1096,82.0,120.0,240.0,1.0,0.0
1097,76.0,0.0,120.0,0.0,0.0
1098,85.0,0.0,240.0,1.0,0.0
1099,70.0,120.0,120.0,0.0,0.0
1100,73.0,120.0,120.0,0.0,0.0
1101,79.0,120.0,240.0,1.0,0.0
1102,76.0,120.0,120.0,0.0,0.0
1103,70.0,0.0,120.0,0.0,0.0
1104,80.0,0.0,120.0,1.0,0.0
1105,71.0,120.0,120.0,0.0,0.0
1106,82.0,0.0,120.0,1.0,0.0
1107,73.0,120.0,120.0,0.0,0.0
1108,67.0,120.0,120.0,0.0,0.0
1109,75.0,120.0,240.0,1.0,0.0
1110,70.0,0.0,120.0,0.0,0.0
1111,75.0,120.0,120.0,0.0,0.0
1112,70.0,60.0,120.0,0.0,0.0
1113,67.0,0.0,120.0,0.0,0.0
1114,51.0,60.0,60.0,1.0,0.0
1115,49.0,60.0,60.0,1.0,0.0
1116,70.0,0.0,120.0,0.0,0.0
1117,47.0,60.0,60.0,1.0,0.0
1118,49.0,60.0,60.0,1.0,0.0
1119,63.0,0.0,120.0,0.0,0.0
1120,51.0,60.0,60.0,1.0,0.0
1121,49.0,60.0,60.0,1.0,0.0
1122,67.0,0.0,120.0,0.0,0.0
1123,51.0,60.0,60.0,1.0,0.0
1124,49.0,60.0,60.0,1.0,0.0
1125,70.0,60.0,120.0,0.0,0.0
1126,51.0,60.0,60.0,1.0,0.0
1127,49.0,0.0,60.0,1.0,0.0
1128,51.0,60.0,60.0,1.0,0.0
1129,67.0,60.0,120.0,0.0,0.0
1130,49.0,0.0,60.0,1.0,0.0
1131,51.0,60.0,60.0,1.0,0.0
1132,68.0,60.0,120.0,0.0,0.0
1133,49.0,0.0,60.0,1.0,0.0
1134,47.0,60.0,60.0,1.0,0.0
1135,70.0,120.0,120.0,0.0,0.0
1136,49.0,0.0,60.0,1.0,0.0
1137,63.0,120.0,120.0,0.0,0.0
1138,47.0,0.0,240.0,1.0,0.0
1139,68.0,120.0,120.0,0.0,0.0
1140,44.0,0.0,240.0,1.0,0.0
1141,71.0,120.0,120.0,0.0,0.0
1142,68.0,120.0,120.0,0.0,0.0
1143,47.0,120.0,240.0,1.0,0.0
1144,63.0,120.0,120.0,0.0,0.0
1145,68.0,0.0,120.0,0.0,0.0
1146,59.0,120.0,120.0,0.0,0.0
1147,51.0,0.0,240.0,1.0,0.0
1148,63.0,120.0,120.0,0.0,0.0
1149,68.0,120.0,120.0,0.0,0.0
1150,47.0,120.0,240.0,1.0,0.0
1151,67.0,0.0,120.0,0.0,0.0
1152,44.0,0.0,240.0,1.0,0.0
1153,68.0,120.0,120.0,0.0,0.0
1154,71.0,120.0,120.0,0.0,0.0
1155,49.0,120.0,240.0,1.0,0.0
1156,64.0,120.0,120.0,0.0,0.0
1157,69.0,0.0,120.0,0.0,0.0
1158,73.0,120.0,120.0,0.0,0.0
1159,37.0,0.0,240.0,1.0,0.0
1160,69.0,120.0,120.0,0.0,0.0
1161,49.0,0.0,240.0,1.0,0.0
1162,64.0,120.0,120.0,0.0,0.0
1163,69.0,120.0,120.0,0.0,0.0
1164,52.0,0.0,240.0,1.0,0.0
1165,61.0,120.0,120.0,0.0,0.0
1166,64.0,120.0,120.0,0.0,0.0
1167,69.0,120.0,120.0,0.0,0.0
1168,51.0,0.0,240.0,1.0,0.0
1169,68.0,120.0,120.0,0.0,0.0
1170,69.0,120.0,120.0,0.0,0.0
1171,49.0,120.0,240.0,1.0,0.0
1172,73.0,0.0,120.0,0.0,0.0
1173,67.0,120.0,120.0,0.0,0.0
1174,51.0,0.0,240.0,1.0,0.0
1175,70.0,120.0,120.0,0.0,0.0
1176,73.0,120.0,120.0,0.0,0.0
1177,55.0,0.0,240.0,1.0,0.0
1178,70.0,120.0,120.0,0.0,0.0
1179,67.0,120.0,120.0,0.0,0.0
1180,58.0,0.0,240.0,1.0,0.0
1181,70.0,120.0,120.0,0.0,0.0
1182,63.0,120.0,120.0,0.0,0.0
1183,63.0,0.0,240.0,1.0,0.0
1184,67.0,120.0,120.0,0.0,0.0
1185,51.0,120.0,240.0,1.0,0.0
1186,58.0,120.0,120.0,0.0,0.0
1187,61.0,0.0,120.0,0.0,0.0
1188,59.0,0.0,120.0,0.0,0.0
1189,68.0,120.0,120.0,1.0,0.0
1190,58.0,120.0,120.0,0.0,0.0
1191,67.0,0.0,120.0,1.0,0.0
1192,59.0,120.0,120.0,0.0,0.0
1193,68.0,0.0,240.0,1.0,0.0
1194,63.0,120.0,120.0,0.0,0.0
1195,71.0,120.0,240.0,1.0,0.0
1196,68.0,120.0,120.0,0.0,0.0
1197,63.0,0.0,120.0,0.0,0.0
1198,59.0,120.0,120.0,0.0,0.0
1199,75.0,0.0,240.0,1.0,0.0
1200,63.0,120.0,120.0,0.0,0.0
1201,56.0,0.0,120.0,0.0,0.0
1202,80.0,120.0,120.0,1.0,0.0
1203,58.0,0.0,120.0,0.0,0.0
1204,79.0,120.0,120.0,1.0,0.0
1205,80.0,0.0,240.0,1.0,0.0
1206,59.0,120.0,120.0,0.0,0.0
1207,56.0,120.0,120.0,0.0,0.0
1208,59.0,120.0,120.0,0.0,0.0
1209,63.0,120.0,120.0,0.0,0.0
1210,68.0,60.0,120.0,0.0,0.0
1211,52.0,60.0,60.0,1.0,0.0
1212,51.0,120.0,60.0,1.0,0.0
1213,52.0,60.0,120.0,1.0,0.0
1214,56.0,60.0,60.0,0.0,0.0
1215,54.0,120.0,60.0,0.0,0.0
1216,56.0,60.0,120.0,0.0,0.0
1217,61.0,60.0,60.0,1.0,0.0
1218,60.0,120.0,60.0,1.0,0.0
1219,61.0,60.0,120.0,1.0,0.0
1220,64.0,60.0,60.0,0.0,0.0
1221,63.0,120.0,60.0,0.0,0.0
1222,64.0,60.0,120.0,0.0,0.0
1223,68.0,60.0,60.0,1.0,0.0
1224,66.0,120.0,60.0,1.0,0.0
1225,68.0,60.0,120.0,1.0,0.0
1226,73.0,60.0,60.0,0.0,0.0
1227,71.0,120.0,60.0,0.0,0.0
1228,73.0,60.0,120.0,0.0,0.0
1229,51.0,60.0,60.0,1.0,0.0
1230,49.0,120.0,60.0,1.0,0.0
1231,51.0,60.0,120.0,1.0,0.0
1232,54.0,60.0,60.0,0.0,0.0
1233,52.0,120.0,60.0,0.0,0.0
1234,54.0,60.0,120.0,0.0,0.0
1235,59.0,60.0,60.0,1.0,0.0
1236,58.0,120.0,60.0,1.0,0.0
1237,59.0,60.0,120.0,1.0,0.0
1238,63.0,60.0,60.0,0.0,0.0
1239,61.0,120.0,60.0,0.0,0.0
1240,63.0,60.0,120.0,0.0,0.0
1241,66.0,60.0,60.0,1.0,0.0
1242,64.0,120.0,60.0,1.0,0.0
1243,66.0,60.0,120.0,1.0,0.0
1244,71.0,60.0,60.0,0.0,0.0
1245,70.0,120.0,60.0,0.0,0.0
1246,71.0,60.0,120.0,0.0,0.0
1247,49.0,60.0,60.0,1.0,0.0
1248,47.0,120.0,60.0,1.0,0.0
1249,49.0,60.0,120.0,1.0,0.0
1250,52.0,60.0,60.0,0.0,0.0
1251,51.0,120.0,60.0,0.0,0.0
1252,52.0,60.0,120.0,0.0,0.0
1253,56.0,60.0,60.0,1.0,0.0
1254,54.0,120.0,60.0,1.0,0.0
1255,56.0,60.0,120.0,1.0,0.0
1256,61.0,60.0,60.0,0.0,0.0
1257,59.0,120.0,60.0,0.0,0.0
1258,61.0,60.0,120.0,0.0,0.0
1259,64.0,60.0,60.0,1.0,0.0
1260,63.0,120.0,60.0,1.0,0.0
1261,64.0,60.0,120.0,1.0,0.0
1262,70.0,60.0,60.0,0.0,0.0
1263,68.0,120.0,60.0,0.0,0.0
1264,70.0,60.0,120.0,0.0,0.0
1265,73.0,60.0,60.0,1.0,0.0
1266,71.0,120.0,60.0,1.0,0.0
1267,73.0,60.0,120.0,1.0,0.0
1268,78.0,60.0,60.0,0.0,0.0
1269,76.0,120.0,60.0,0.0,0.0
1270,78.0,60.0,120.0,0.0,0.0
1271,82.0,60.0,60.0,1.0,0.0
1272,80.0,120.0,60.0,1.0,0.0
1273,82.0,60.0,120.0,1.0,0.0
1274,83.0,60.0,60.0,0.0,0.0
1275,82.0,120.0,60.0,0.0,0.0
1276,83.0,60.0,120.0,0.0,0.0
1277,85.0,60.0,60.0,1.0,0.0
1278,83.0,120.0,60.0,1.0,0.0
1279,85.0,60.0,120.0,1.0,0.0
1280,87.0,60.0,60.0,0.0,0.0
1281,85.0,120.0,60.0,0.0,0.0
1282,87.0,0.0,240.0,0.0,0.0
1283,71.0,60.0,60.0,1.0,0.0
1284,73.0,60.0,60.0,1.0,0.0
1285,75.0,60.0,60.0,1.0,0.0
1286,78.0,60.0,60.0,1.0,0.0
1287,75.0,60.0,60.0,1.0,0.0
1288,73.0,60.0,60.0,1.0,0.0
1289,71.0,120.0,60.0,1.0,0.0
1290,66.0,60.0,240.0,0.0,0.0
1291,71.0,60.0,60.0,1.0,0.0
1292,73.0,60.0,60.0,1.0,0.0
1293,75.0,0.0,60.0,1.0,0.0
1294,78.0,60.0,60.0,1.0,0.0
1295,75.0,60.0,60.0,1.0,0.0
1296,73.0,60.0,60.0,1.0,0.0
1297,71.0,120.0,60.0,1.0,0.0
1298,69.0,0.0,240.0,0.0,0.0
1299,71.0,60.0,60.0,1.0,0.0
1300,73.0,60.0,60.0,1.0,0.0
1301,75.0,60.0,60.0,1.0,0.0
1302,78.0,60.0,60.0,1.0,0.0
1303,75.0,60.0,60.0,1.0,0.0
1304,73.0,60.0,60.0,1.0,0.0
1305,71.0,120.0,60.0,1.0,0.0
1306,76.0,60.0,240.0,1.0,0.0
1307,68.0,60.0,60.0,0.0,0.0
1308,69.0,60.0,60.0,0.0,0.0
1309,71.0,0.0,60.0,0.0,0.0
1310,76.0,60.0,60.0,0.0,0.0
1311,71.0,60.0,60.0,0.0,0.0
1312,69.0,60.0,60.0,0.0,0.0
1313,68.0,120.0,60.0,0.0,0.0
1314,61.0,0.0,240.0,1.0,0.0
1315,70.0,60.0,60.0,0.0,0.0
1316,71.0,60.0,60.0,0.0,0.0
1317,73.0,60.0,60.0,0.0,0.0
1318,76.0,60.0,60.0,0.0,0.0
1319,73.0,60.0,60.0,0.0,0.0
1320,71.0,60.0,60.0,0.0,0.0
1321,70.0,120.0,60.0,0.0,0.0
1322,56.0,0.0,240.0,1.0,0.0
1323,71.0,60.0,60.0,0.0,0.0
1324,73.0,60.0,60.0,0.0,0.0
1325,74.0,60.0,60.0,0.0,0.0
1326,77.0,60.0,60.0,0.0,0.0
1327,74.0,60.0,60.0,0.0,0.0
1328,73.0,60.0,60.0,0.0,0.0
1329,71.0,120.0,60.0,0.0,0.0
1330,78.0,0.0,120.0,0.0,0.0
1331,58.0,60.0,120.0,1.0,0.0
1332,76.0,0.0,60.0,0.0,0.0
1333,61.0,60.0,60.0,1.0,0.0
1334,75.0,120.0,60.0,0.0,0.0
1335,59.0,0.0,60.0,1.0,0.0
1336,61.0,60.0,120.0,1.0,0.0
1337,76.0,0.0,120.0,0.0,0.0
1338,75.0,60.0,60.0,0.0,0.0
1339,66.0,0.0,60.0,1.0,0.0
1340,64.0,0.0,60.0,1.0,0.0
1341,73.0,120.0,60.0,0.0,0.0
1342,75.0,0.0,120.0,0.0,0.0
1343,66.0,60.0,120.0,1.0,0.0
1344,74.0,0.0,60.0,0.0,0.0
1345,59.0,60.0,60.0,1.0,0.0
1346,73.0,0.0,60.0,0.0,0.0
1347,58.0,120.0,60.0,1.0,0.0
1348,59.0,0.0,120.0,1.0,0.0
1349,74.0,60.0,120.0,0.0,0.0
1350,73.0,60.0,60.0,0.0,0.0
1351,64.0,0.0,60.0,1.0,0.0
1352,71.0,120.0,60.0,0.0,0.0
1353,63.0,0.0,60.0,1.0,0.0
1354,64.0,60.0,120.0,1.0,0.0
1355,73.0,0.0,120.0,0.0,0.0
1356,78.0,60.0,60.0,0.0,0.0
1357,58.0,0.0,60.0,1.0,0.0
1358,76.0,120.0,60.0,0.0,0.0
1359,56.0,0.0,60.0,1.0,0.0
1360,58.0,60.0,120.0,1.0,0.0
1361,78.0,0.0,120.0,0.0,0.0
1362,63.0,0.0,60.0,1.0,0.0
1363,71.0,60.0,60.0,0.0,0.0
1364,61.0,0.0,60.0,1.0,0.0
1365,70.0,60.0,60.0,0.0,0.0
1366,63.0,0.0,120.0,1.0,0.0
1367,71.0,60.0,60.0,0.0,0.0
1368,73.0,60.0,60.0,0.0,0.0
1369,59.0,60.0,120.0,1.0,0.0
1370,75.0,60.0,60.0,0.0,0.0
1371,76.0,0.0,60.0,0.0,0.0
1372,78.0,60.0,60.0,0.0,0.0
1373,58.0,60.0,120.0,1.0,0.0
1374,76.0,0.0,60.0,0.0,0.0
1375,75.0,60.0,60.0,0.0,0.0
1376,59.0,0.0,120.0,1.0,0.0
1377,73.0,60.0,60.0,0.0,0.0
1378,71.0,0.0,120.0,0.0,0.0
1379,63.0,60.0,60.0,1.0,0.0
1380,61.0,120.0,60.0,1.0,0.0
1381,75.0,0.0,120.0,0.0,0.0
1382,59.0,60.0,120.0,1.0,0.0
1383,66.0,0.0,120.0,0.0,0.0
1384,66.0,60.0,60.0,1.0,0.0
1385,64.0,120.0,60.0,1.0,0.0
1386,71.0,0.0,120.0,0.0,0.0
1387,63.0,240.0,120.0,1.0,0.0
1388,71.0,0.0,240.0,1.0,0.0
1389,59.0,0.0,240.0,0.0,0.0
