,note,step,duration,channel,velocity
0,68.0,1024.0,1020.0,0.0,0.0
1,44.0,0.0,1020.0,3.0,0.0
2,60.0,0.0,1020.0,2.0,0.0
3,51.0,0.0,1020.0,3.0,0.0
4,55.0,0.0,1020.0,2.0,0.0
5,63.0,0.0,15.0,1.0,0.0
6,70.0,0.0,1020.0,0.0,0.0
7,72.0,1024.0,1020.0,0.0,0.0
8,56.0,0.0,1020.0,2.0,0.0
9,56.0,0.0,1020.0,3.0,0.0
10,63.0,1024.0,15.0,1.0,0.0
11,58.0,512.0,1020.0,2.0,0.0
12,63.0,0.0,1020.0,1.0,0.0
13,55.0,0.0,1020.0,3.0,0.0
14,70.0,0.0,1020.0,0.0,0.0
15,68.0,1024.0,1020.0,0.0,0.0
16,60.0,512.0,510.0,2.0,0.0
17,53.0,0.0,1020.0,3.0,0.0
18,65.0,0.0,1020.0,1.0,0.0
19,62.0,0.0,510.0,2.0,0.0
20,63.0,0.0,1020.0,2.0,0.0
21,51.0,512.0,1020.0,3.0,0.0
22,67.0,0.0,1020.0,0.0,0.0
23,58.0,0.0,15.0,1.0,0.0
24,63.0,512.0,510.0,2.0,0.0
25,46.0,0.0,1020.0,3.0,0.0
26,65.0,0.0,1020.0,0.0,0.0
27,62.0,0.0,510.0,2.0,0.0
28,51.0,0.0,1020.0,3.0,0.0
29,55.0,0.0,1020.0,2.0,0.0
30,58.0,1024.0,1020.0,1.0,0.0
31,63.0,0.0,1020.0,0.0,0.0
32,68.0,512.0,1020.0,0.0,0.0
33,56.0,0.0,1020.0,2.0,0.0
34,63.0,0.0,1020.0,1.0,0.0
35,48.0,0.0,1020.0,3.0,0.0
36,46.0,0.0,1020.0,3.0,0.0
37,61.0,0.0,1020.0,2.0,0.0
38,70.0,512.0,1020.0,0.0,0.0
39,65.0,512.0,510.0,1.0,0.0
40,67.0,0.0,510.0,1.0,0.0
41,68.0,0.0,510.0,1.0,0.0
42,63.0,512.0,510.0,2.0,0.0
43,72.0,0.0,1020.0,0.0,0.0
44,44.0,512.0,1020.0,3.0,0.0
45,63.0,0.0,510.0,1.0,0.0
46,56.0,0.0,510.0,2.0,0.0
47,58.0,512.0,1530.0,2.0,0.0
48,63.0,0.0,1020.0,1.0,0.0
49,70.0,256.0,510.0,0.0,0.0
50,43.0,512.0,1020.0,3.0,0.0
51,72.0,256.0,270.0,0.0,0.0
52,73.0,0.0,270.0,0.0,0.0
53,44.0,512.0,1020.0,3.0,0.0
54,63.0,0.0,1020.0,1.0,0.0
55,72.0,0.0,1020.0,0.0,0.0
56,70.0,256.0,780.0,0.0,0.0
57,63.0,0.0,1020.0,1.0,0.0
58,56.0,0.0,15.0,2.0,0.0
59,39.0,0.0,1020.0,3.0,0.0
60,55.0,0.0,510.0,2.0,0.0
61,44.0,0.0,2040.0,3.0,0.0
62,60.0,0.0,2040.0,2.0,0.0
63,68.0,2048.0,15.0,0.0,0.0
64,68.0,0.0,1020.0,0.0,0.0
65,63.0,1024.0,15.0,1.0,0.0
66,60.0,0.0,1020.0,2.0,0.0
67,44.0,1024.0,1020.0,3.0,0.0
68,51.0,0.0,1020.0,3.0,0.0
69,55.0,1024.0,1020.0,2.0,0.0
70,63.0,0.0,1020.0,1.0,0.0
71,70.0,0.0,1020.0,0.0,0.0
72,72.0,1024.0,1020.0,0.0,0.0
73,56.0,0.0,1020.0,3.0,0.0
74,56.0,0.0,1020.0,2.0,0.0
75,70.0,0.0,1020.0,0.0,0.0
76,63.0,0.0,15.0,1.0,0.0
77,58.0,512.0,1020.0,2.0,0.0
78,55.0,0.0,1020.0,3.0,0.0
79,53.0,0.0,1020.0,3.0,0.0
80,68.0,0.0,1020.0,0.0,0.0
81,65.0,0.0,1020.0,1.0,0.0
82,60.0,512.0,510.0,2.0,0.0
83,62.0,1024.0,510.0,2.0,0.0
84,67.0,512.0,1020.0,0.0,0.0
85,51.0,0.0,1020.0,3.0,0.0
86,46.0,1024.0,1020.0,3.0,0.0
87,63.0,0.0,15.0,2.0,0.0
88,65.0,0.0,1020.0,0.0,0.0
89,58.0,0.0,15.0,1.0,0.0
90,62.0,0.0,510.0,2.0,0.0
91,63.0,1024.0,1020.0,0.0,0.0
92,58.0,0.0,15.0,1.0,0.0
93,55.0,0.0,1020.0,2.0,0.0
94,51.0,0.0,1020.0,3.0,0.0
95,56.0,0.0,1020.0,2.0,0.0
96,48.0,0.0,1020.0,3.0,0.0
97,68.0,512.0,1020.0,0.0,0.0
98,63.0,0.0,1020.0,1.0,0.0
99,46.0,0.0,1020.0,3.0,0.0
100,65.0,512.0,510.0,1.0,0.0
101,70.0,0.0,1020.0,0.0,0.0
102,61.0,0.0,1020.0,2.0,0.0
103,67.0,512.0,510.0,1.0,0.0
104,63.0,0.0,510.0,2.0,0.0
105,44.0,0.0,1020.0,3.0,0.0
106,72.0,0.0,1020.0,0.0,0.0
107,68.0,512.0,510.0,1.0,0.0
108,56.0,0.0,510.0,2.0,0.0
109,43.0,0.0,1020.0,3.0,0.0
110,63.0,512.0,15.0,1.0,0.0
111,58.0,512.0,1530.0,2.0,0.0
112,70.0,256.0,510.0,0.0,0.0
113,72.0,256.0,270.0,0.0,0.0
114,73.0,0.0,270.0,0.0,0.0
115,44.0,512.0,1020.0,3.0,0.0
116,72.0,0.0,1020.0,0.0,0.0
117,63.0,0.0,1020.0,1.0,0.0
118,56.0,0.0,15.0,2.0,0.0
119,70.0,256.0,780.0,0.0,0.0
120,39.0,0.0,1020.0,3.0,0.0
121,55.0,0.0,510.0,2.0,0.0
122,68.0,0.0,270.0,0.0,0.0
123,68.0,0.0,2040.0,0.0,0.0
124,63.0,2048.0,15.0,1.0,0.0
125,60.0,1024.0,2040.0,2.0,0.0
126,44.0,0.0,2040.0,3.0,0.0
127,56.0,0.0,1020.0,3.0,0.0
128,72.0,0.0,1020.0,0.0,0.0
129,63.0,512.0,1020.0,1.0,0.0
130,73.0,1024.0,1020.0,0.0,0.0
131,65.0,256.0,510.0,1.0,0.0
132,56.0,0.0,15.0,2.0,0.0
133,53.0,0.0,1020.0,3.0,0.0
134,66.0,256.0,270.0,1.0,0.0
135,68.0,0.0,270.0,1.0,0.0
136,56.0,0.0,15.0,2.0,0.0
137,66.0,512.0,1020.0,1.0,0.0
138,48.0,0.0,1020.0,3.0,0.0
139,75.0,0.0,1020.0,0.0,0.0
140,73.0,512.0,1020.0,0.0,0.0
141,65.0,0.0,1020.0,1.0,0.0
142,49.0,0.0,1020.0,3.0,0.0
143,56.0,512.0,510.0,2.0,0.0
144,58.0,0.0,510.0,2.0,0.0
145,45.0,512.0,1020.0,3.0,0.0
146,60.0,512.0,510.0,2.0,0.0
147,72.0,0.0,1020.0,0.0,0.0
148,63.0,0.0,1020.0,1.0,0.0
149,53.0,0.0,510.0,2.0,0.0
150,53.0,256.0,510.0,2.0,0.0
151,61.0,0.0,510.0,1.0,0.0
152,46.0,0.0,1020.0,3.0,0.0
153,70.0,2048.0,1020.0,0.0,0.0
154,55.0,0.0,510.0,2.0,0.0
155,65.0,256.0,270.0,1.0,0.0
156,64.0,0.0,270.0,1.0,0.0
157,57.0,0.0,2040.0,2.0,0.0
158,41.0,512.0,2040.0,3.0,0.0
159,65.0,0.0,2040.0,1.0,0.0
160,72.0,0.0,2040.0,0.0,0.0
161,75.0,0.0,1020.0,0.0,0.0
162,56.0,512.0,510.0,2.0,0.0
163,48.0,1024.0,1020.0,3.0,0.0
164,63.0,0.0,1020.0,1.0,0.0
165,58.0,0.0,510.0,2.0,0.0
166,60.0,512.0,1020.0,2.0,0.0
167,75.0,0.0,1020.0,0.0,0.0
168,68.0,0.0,1020.0,1.0,0.0
169,44.0,0.0,1020.0,3.0,0.0
170,49.0,0.0,1020.0,3.0,0.0
171,77.0,0.0,1020.0,0.0,0.0
172,68.0,0.0,1020.0,1.0,0.0
173,61.0,512.0,510.0,2.0,0.0
174,60.0,1024.0,510.0,2.0,0.0
175,58.0,0.0,1020.0,2.0,0.0
176,75.0,512.0,1020.0,0.0,0.0
177,51.0,0.0,1020.0,3.0,0.0
178,67.0,0.0,1020.0,1.0,0.0
179,65.0,512.0,1020.0,1.0,0.0
180,53.0,512.0,510.0,3.0,0.0
181,56.0,0.0,1020.0,2.0,0.0
182,73.0,0.0,1020.0,0.0,0.0
183,55.0,0.0,510.0,3.0,0.0
184,63.0,512.0,510.0,1.0,0.0
185,56.0,0.0,1020.0,3.0,0.0
186,72.0,0.0,1020.0,0.0,0.0
187,56.0,0.0,1020.0,2.0,0.0
188,62.0,2048.0,510.0,1.0,0.0
189,70.0,0.0,2040.0,0.0,0.0
190,55.0,0.0,2040.0,2.0,0.0
191,51.0,512.0,2040.0,3.0,0.0
192,63.0,0.0,15.0,1.0,0.0
193,56.0,512.0,510.0,2.0,0.0
194,72.0,0.0,1020.0,0.0,0.0
195,56.0,0.0,1020.0,3.0,0.0
196,58.0,0.0,510.0,2.0,0.0
197,44.0,0.0,1020.0,3.0,0.0
198,75.0,0.0,1020.0,0.0,0.0
199,60.0,0.0,1020.0,2.0,0.0
200,68.0,512.0,510.0,1.0,0.0
201,67.0,512.0,510.0,1.0,0.0
202,65.0,512.0,510.0,1.0,0.0
203,46.0,0.0,1020.0,3.0,0.0
204,73.0,512.0,1020.0,0.0,0.0
205,61.0,0.0,1020.0,2.0,0.0
206,67.0,0.0,510.0,1.0,0.0
207,68.0,0.0,1020.0,1.0,0.0
208,63.0,0.0,510.0,2.0,0.0
209,48.0,0.0,1020.0,3.0,0.0
210,72.0,512.0,510.0,0.0,0.0
211,51.0,0.0,510.0,2.0,0.0
212,70.0,512.0,510.0,0.0,0.0
213,68.0,0.0,1020.0,0.0,0.0
214,49.0,0.0,1020.0,3.0,0.0
215,53.0,512.0,510.0,2.0,0.0
216,60.0,0.0,510.0,2.0,0.0
217,50.0,0.0,1020.0,3.0,0.0
218,65.0,512.0,15.0,1.0,0.0
219,58.0,512.0,510.0,2.0,0.0
220,70.0,1024.0,1020.0,0.0,0.0
221,56.0,0.0,510.0,2.0,0.0
222,72.0,0.0,2040.0,0.0,0.0
223,55.0,0.0,2040.0,2.0,0.0
224,51.0,0.0,1020.0,3.0,0.0
225,67.0,1024.0,1020.0,1.0,0.0
226,60.0,0.0,1020.0,1.0,0.0
227,52.0,2048.0,1020.0,3.0,0.0
228,68.0,512.0,2040.0,0.0,0.0
229,60.0,0.0,2040.0,1.0,0.0
230,53.0,0.0,2040.0,3.0,0.0
231,53.0,0.0,2040.0,2.0,0.0
232,63.0,512.0,510.0,1.0,0.0
233,51.0,0.0,1020.0,3.0,0.0
234,54.0,1024.0,1020.0,2.0,0.0
235,72.0,0.0,1020.0,0.0,0.0
236,65.0,0.0,510.0,1.0,0.0
237,66.0,0.0,1020.0,1.0,0.0
238,75.0,512.0,1020.0,0.0,0.0
239,44.0,0.0,1020.0,3.0,0.0
240,48.0,0.0,1020.0,2.0,0.0
241,46.0,0.0,1020.0,3.0,0.0
242,49.0,512.0,1020.0,2.0,0.0
243,65.0,512.0,510.0,1.0,0.0
244,73.0,0.0,1020.0,0.0,0.0
245,67.0,0.0,510.0,1.0,0.0
246,68.0,0.0,1020.0,1.0,0.0
247,72.0,512.0,1020.0,0.0,0.0
248,48.0,512.0,510.0,3.0,0.0
249,51.0,0.0,510.0,2.0,0.0
250,49.0,0.0,510.0,3.0,0.0
251,53.0,0.0,510.0,2.0,0.0
252,70.0,0.0,1020.0,0.0,0.0
253,51.0,512.0,510.0,3.0,0.0
254,55.0,512.0,1020.0,2.0,0.0
255,49.0,0.0,510.0,3.0,0.0
256,56.0,256.0,1530.0,2.0,0.0
257,63.0,0.0,15.0,1.0,0.0
258,68.0,0.0,1020.0,0.0,0.0
259,48.0,512.0,510.0,3.0,0.0
260,44.0,512.0,510.0,3.0,0.0
261,39.0,0.0,2040.0,3.0,0.0
262,63.0,0.0,15.0,1.0,0.0
263,70.0,0.0,2040.0,0.0,0.0
264,55.0,256.0,270.0,2.0,0.0
265,53.0,512.0,270.0,2.0,0.0
266,55.0,512.0,510.0,2.0,0.0
267,61.0,0.0,510.0,2.0,0.0
268,68.0,0.0,2040.0,0.0,0.0
269,63.0,2048.0,15.0,1.0,0.0
270,44.0,0.0,2040.0,3.0,0.0
271,60.0,1.0,2040.0,2.0,0.0
