,note,step,duration,channel,velocity
0,69.0,54.0,90.0,13.0,0.0
1,49.0,0.0,180.0,12.0,0.0
2,76.0,0.0,90.0,2.0,0.0
3,69.0,0.0,180.0,4.0,0.0
4,76.0,0.0,90.0,13.0,0.0
5,57.0,0.0,90.0,0.0,0.0
6,76.0,0.0,90.0,7.0,0.0
7,61.0,0.0,180.0,11.0,0.0
8,61.0,0.0,180.0,5.0,0.0
9,69.0,0.0,180.0,14.0,0.0
10,73.0,0.0,90.0,3.0,0.0
11,61.0,0.0,180.0,13.0,0.0
12,73.0,0.0,90.0,8.0,0.0
13,76.0,0.0,90.0,6.0,0.0
14,57.0,42.0,40.0,0.0,0.0
15,79.0,0.0,90.0,2.0,0.0
16,76.0,6.0,90.0,13.0,0.0
17,76.0,0.0,90.0,3.0,0.0
18,76.0,0.0,90.0,8.0,0.0
19,79.0,0.0,90.0,7.0,0.0
20,67.0,0.0,90.0,13.0,0.0
21,79.0,0.0,90.0,6.0,0.0
22,57.0,48.0,40.0,0.0,0.0
23,57.0,42.0,40.0,0.0,0.0
24,62.0,0.0,90.0,11.0,0.0
25,78.0,0.0,90.0,6.0,0.0
26,74.0,0.0,90.0,3.0,0.0
27,62.0,0.0,90.0,5.0,0.0
28,62.0,0.0,90.0,13.0,0.0
29,78.0,0.0,90.0,13.0,0.0
30,69.0,0.0,90.0,14.0,0.0
31,78.0,0.0,90.0,2.0,0.0
32,69.0,0.0,90.0,13.0,0.0
33,74.0,0.0,90.0,8.0,0.0
34,69.0,6.0,90.0,4.0,0.0
35,78.0,0.0,90.0,7.0,0.0
36,50.0,0.0,90.0,12.0,0.0
37,57.0,16.0,40.0,0.0,0.0
38,76.0,0.0,90.0,6.0,0.0
39,64.0,0.0,90.0,5.0,0.0
40,52.0,0.0,90.0,12.0,0.0
41,57.0,0.0,90.0,0.0,0.0
42,73.0,0.0,90.0,3.0,0.0
43,79.0,0.0,90.0,13.0,0.0
44,57.0,0.0,90.0,1.0,0.0
45,64.0,0.0,90.0,11.0,0.0
46,76.0,0.0,90.0,2.0,0.0
47,64.0,0.0,90.0,13.0,0.0
48,69.0,12.0,15.0,14.0,0.0
49,76.0,0.0,90.0,7.0,0.0
50,67.0,10.0,90.0,4.0,0.0
51,73.0,0.0,90.0,8.0,0.0
52,73.0,0.0,90.0,13.0,0.0
53,67.0,12.0,15.0,14.0,0.0
54,69.0,12.0,15.0,14.0,0.0
55,67.0,12.0,15.0,14.0,0.0
56,69.0,12.0,15.0,14.0,0.0
57,67.0,12.0,15.0,14.0,0.0
58,69.0,2.0,15.0,14.0,0.0
59,67.0,44.0,15.0,14.0,0.0
60,69.0,6.0,90.0,8.0,0.0
61,74.0,0.0,90.0,13.0,0.0
62,74.0,42.0,40.0,2.0,0.0
63,69.0,0.0,90.0,3.0,0.0
64,57.0,0.0,40.0,1.0,0.0
65,67.0,0.0,90.0,11.0,0.0
66,67.0,0.0,90.0,5.0,0.0
67,55.0,0.0,90.0,12.0,0.0
68,79.0,0.0,90.0,13.0,0.0
69,67.0,0.0,90.0,13.0,0.0
70,74.0,0.0,40.0,6.0,0.0
71,74.0,0.0,40.0,7.0,0.0
72,66.0,0.0,40.0,4.0,0.0
73,66.0,0.0,40.0,14.0,0.0
74,57.0,0.0,40.0,1.0,0.0
75,64.0,0.0,40.0,14.0,0.0
76,73.0,48.0,40.0,6.0,0.0
77,73.0,0.0,40.0,2.0,0.0
78,64.0,0.0,40.0,4.0,0.0
79,73.0,0.0,40.0,7.0,0.0
80,69.0,0.0,90.0,8.0,0.0
81,66.0,0.0,90.0,11.0,0.0
82,57.0,42.0,40.0,1.0,0.0
83,74.0,0.0,90.0,2.0,0.0
84,74.0,0.0,90.0,13.0,0.0
85,66.0,0.0,90.0,13.0,0.0
86,69.0,0.0,90.0,3.0,0.0
87,54.0,0.0,90.0,12.0,0.0
88,66.0,0.0,90.0,4.0,0.0
89,66.0,0.0,90.0,14.0,0.0
90,74.0,0.0,90.0,6.0,0.0
91,74.0,0.0,90.0,7.0,0.0
92,66.0,6.0,90.0,5.0,0.0
93,57.0,90.0,40.0,1.0,0.0
94,64.0,0.0,90.0,11.0,0.0
95,76.0,0.0,90.0,2.0,0.0
96,52.0,0.0,90.0,12.0,0.0
97,73.0,0.0,90.0,8.0,0.0
98,73.0,0.0,90.0,3.0,0.0
99,76.0,0.0,90.0,7.0,0.0
100,76.0,0.0,90.0,6.0,0.0
101,64.0,0.0,90.0,5.0,0.0
102,67.0,0.0,90.0,14.0,0.0
103,64.0,0.0,90.0,13.0,0.0
104,73.0,0.0,90.0,13.0,0.0
105,67.0,0.0,90.0,4.0,0.0
106,79.0,0.0,90.0,13.0,0.0
107,57.0,0.0,90.0,0.0,0.0
108,57.0,54.0,90.0,1.0,0.0
109,79.0,0.0,90.0,6.0,0.0
110,79.0,0.0,90.0,7.0,0.0
111,50.0,0.0,40.0,12.0,0.0
112,62.0,42.0,40.0,5.0,0.0
113,76.0,0.0,90.0,8.0,0.0
114,64.0,0.0,90.0,14.0,0.0
115,64.0,0.0,90.0,4.0,0.0
116,79.0,0.0,90.0,2.0,0.0
117,62.0,0.0,40.0,13.0,0.0
118,76.0,0.0,90.0,13.0,0.0
119,57.0,0.0,40.0,0.0,0.0
120,76.0,0.0,90.0,3.0,0.0
121,62.0,0.0,40.0,11.0,0.0
122,67.0,6.0,90.0,13.0,0.0
123,57.0,0.0,40.0,0.0,0.0
124,61.0,0.0,40.0,11.0,0.0
125,61.0,48.0,40.0,5.0,0.0
126,61.0,0.0,40.0,13.0,0.0
127,49.0,0.0,40.0,12.0,0.0
128,78.0,0.0,90.0,6.0,0.0
129,78.0,0.0,90.0,2.0,0.0
130,69.0,0.0,90.0,4.0,0.0
131,74.0,0.0,90.0,3.0,0.0
132,57.0,42.0,40.0,0.0,0.0
133,69.0,0.0,90.0,14.0,0.0
134,62.0,0.0,90.0,5.0,0.0
135,78.0,0.0,90.0,7.0,0.0
136,62.0,6.0,90.0,13.0,0.0
137,78.0,0.0,90.0,13.0,0.0
138,69.0,0.0,90.0,13.0,0.0
139,74.0,0.0,90.0,8.0,0.0
140,62.0,0.0,90.0,11.0,0.0
141,50.0,0.0,90.0,12.0,0.0
142,57.0,16.0,40.0,0.0,0.0
143,61.0,0.0,90.0,13.0,0.0
144,76.0,0.0,90.0,13.0,0.0
145,57.0,0.0,90.0,1.0,0.0
146,69.0,0.0,180.0,4.0,0.0
147,76.0,10.0,90.0,3.0,0.0
148,78.0,0.0,15.0,7.0,0.0
149,49.0,0.0,90.0,12.0,0.0
150,69.0,0.0,90.0,13.0,0.0
151,78.0,0.0,15.0,6.0,0.0
152,78.0,12.0,15.0,2.0,0.0
153,76.0,0.0,90.0,8.0,0.0
154,61.0,0.0,90.0,11.0,0.0
155,69.0,0.0,180.0,14.0,0.0
156,57.0,0.0,90.0,0.0,0.0
157,61.0,0.0,90.0,5.0,0.0
158,76.0,0.0,15.0,6.0,0.0
159,76.0,12.0,15.0,2.0,0.0
160,76.0,0.0,15.0,7.0,0.0
161,78.0,0.0,15.0,7.0,0.0
162,78.0,12.0,15.0,6.0,0.0
163,78.0,0.0,15.0,2.0,0.0
164,76.0,0.0,15.0,7.0,0.0
165,76.0,0.0,15.0,6.0,0.0
166,76.0,12.0,15.0,2.0,0.0
167,78.0,0.0,15.0,2.0,0.0
168,78.0,0.0,15.0,7.0,0.0
169,78.0,12.0,15.0,6.0,0.0
170,76.0,0.0,15.0,2.0,0.0
171,76.0,12.0,15.0,6.0,0.0
172,76.0,0.0,15.0,7.0,0.0
173,78.0,0.0,15.0,7.0,0.0
174,78.0,0.0,15.0,6.0,0.0
175,78.0,2.0,15.0,2.0,0.0
176,76.0,0.0,15.0,6.0,0.0
177,76.0,12.0,15.0,2.0,0.0
178,76.0,0.0,15.0,7.0,0.0
179,78.0,0.0,15.0,2.0,0.0
180,62.0,4.0,40.0,13.0,0.0
181,74.0,6.0,90.0,13.0,0.0
182,69.0,0.0,90.0,13.0,0.0
183,57.0,0.0,40.0,1.0,0.0
184,78.0,12.0,15.0,6.0,0.0
185,62.0,0.0,40.0,5.0,0.0
186,78.0,0.0,15.0,7.0,0.0
187,50.0,0.0,40.0,12.0,0.0
188,62.0,0.0,40.0,11.0,0.0
189,74.0,0.0,90.0,8.0,0.0
190,74.0,0.0,90.0,3.0,0.0
191,76.0,12.0,15.0,6.0,0.0
192,76.0,0.0,15.0,2.0,0.0
193,76.0,0.0,15.0,7.0,0.0
194,78.0,0.0,15.0,2.0,0.0
195,78.0,0.0,15.0,6.0,0.0
196,78.0,8.0,15.0,7.0,0.0
197,76.0,0.0,15.0,2.0,0.0
198,76.0,0.0,15.0,7.0,0.0
199,76.0,12.0,15.0,6.0,0.0
200,78.0,0.0,15.0,6.0,0.0
201,61.0,0.0,40.0,5.0,0.0
202,78.0,0.0,15.0,2.0,0.0
203,49.0,0.0,40.0,12.0,0.0
204,57.0,4.0,40.0,1.0,0.0
205,61.0,0.0,40.0,11.0,0.0
206,78.0,12.0,15.0,7.0,0.0
207,61.0,0.0,40.0,13.0,0.0
208,76.0,0.0,15.0,6.0,0.0
209,76.0,12.0,15.0,7.0,0.0
210,76.0,0.0,15.0,2.0,0.0
211,78.0,2.0,15.0,6.0,0.0
212,78.0,0.0,15.0,2.0,0.0
213,78.0,0.0,15.0,7.0,0.0
214,76.0,0.0,15.0,2.0,0.0
215,76.0,0.0,15.0,6.0,0.0
216,76.0,44.0,15.0,7.0,0.0
217,81.0,6.0,90.0,6.0,0.0
218,59.0,0.0,40.0,11.0,0.0
219,73.0,0.0,90.0,3.0,0.0
220,57.0,0.0,40.0,1.0,0.0
221,47.0,0.0,40.0,12.0,0.0
222,73.0,0.0,90.0,8.0,0.0
223,64.0,0.0,90.0,4.0,0.0
224,81.0,0.0,90.0,2.0,0.0
225,64.0,0.0,90.0,14.0,0.0
226,81.0,0.0,90.0,7.0,0.0
227,59.0,0.0,40.0,5.0,0.0
228,64.0,0.0,90.0,13.0,0.0
229,73.0,0.0,90.0,13.0,0.0
230,59.0,42.0,40.0,13.0,0.0
231,57.0,0.0,40.0,13.0,0.0
232,57.0,16.0,40.0,5.0,0.0
233,45.0,0.0,40.0,12.0,0.0
234,57.0,0.0,40.0,1.0,0.0
235,57.0,0.0,40.0,11.0,0.0
236,56.0,0.0,180.0,5.0,0.0
237,74.0,0.0,90.0,7.0,0.0
238,71.0,0.0,180.0,3.0,0.0
239,64.0,0.0,180.0,14.0,0.0
240,74.0,0.0,90.0,2.0,0.0
241,64.0,0.0,90.0,1.0,0.0
242,64.0,0.0,180.0,4.0,0.0
243,64.0,0.0,90.0,0.0,0.0
244,71.0,0.0,180.0,8.0,0.0
245,71.0,0.0,90.0,13.0,0.0
246,57.0,0.0,15.0,13.0,0.0
247,57.0,0.0,15.0,11.0,0.0
248,74.0,0.0,90.0,6.0,0.0
249,45.0,12.0,15.0,12.0,0.0
250,76.0,10.0,90.0,13.0,0.0
251,56.0,0.0,15.0,13.0,0.0
252,56.0,0.0,15.0,11.0,0.0
253,44.0,12.0,15.0,12.0,0.0
254,57.0,0.0,15.0,11.0,0.0
255,57.0,0.0,15.0,13.0,0.0
256,45.0,12.0,15.0,12.0,0.0
257,44.0,0.0,15.0,12.0,0.0
258,56.0,0.0,15.0,13.0,0.0
259,56.0,12.0,15.0,11.0,0.0
260,45.0,12.0,15.0,12.0,0.0
261,57.0,0.0,15.0,13.0,0.0
262,57.0,0.0,15.0,11.0,0.0
263,56.0,12.0,15.0,13.0,0.0
264,56.0,0.0,15.0,11.0,0.0
265,44.0,0.0,15.0,12.0,0.0
266,57.0,0.0,15.0,11.0,0.0
267,57.0,0.0,15.0,13.0,0.0
268,45.0,2.0,15.0,12.0,0.0
269,44.0,0.0,15.0,12.0,0.0
270,56.0,0.0,15.0,11.0,0.0
271,56.0,12.0,15.0,13.0,0.0
272,64.0,0.0,90.0,13.0,0.0
273,71.0,0.0,90.0,13.0,0.0
274,57.0,0.0,15.0,13.0,0.0
275,71.0,0.0,90.0,7.0,0.0
276,71.0,6.0,90.0,2.0,0.0
277,71.0,0.0,90.0,6.0,0.0
278,45.0,0.0,15.0,12.0,0.0
279,57.0,12.0,15.0,11.0,0.0
280,64.0,4.0,40.0,0.0,0.0
281,56.0,0.0,15.0,11.0,0.0
282,44.0,12.0,15.0,12.0,0.0
283,56.0,0.0,15.0,13.0,0.0
284,57.0,0.0,15.0,13.0,0.0
285,57.0,0.0,15.0,11.0,0.0
286,45.0,8.0,15.0,12.0,0.0
287,44.0,0.0,15.0,12.0,0.0
288,56.0,0.0,15.0,11.0,0.0
289,56.0,12.0,15.0,13.0,0.0
290,57.0,0.0,15.0,13.0,0.0
291,57.0,0.0,15.0,11.0,0.0
292,64.0,4.0,40.0,0.0,0.0
293,45.0,12.0,15.0,12.0,0.0
294,56.0,0.0,15.0,11.0,0.0
295,56.0,0.0,15.0,13.0,0.0
296,44.0,12.0,15.0,12.0,0.0
297,57.0,2.0,15.0,13.0,0.0
298,57.0,0.0,15.0,11.0,0.0
299,45.0,0.0,15.0,12.0,0.0
300,44.0,44.0,15.0,12.0,0.0
301,56.0,0.0,15.0,11.0,0.0
302,56.0,0.0,15.0,13.0,0.0
303,73.0,6.0,90.0,13.0,0.0
304,73.0,0.0,90.0,7.0,0.0
305,64.0,0.0,90.0,14.0,0.0
306,64.0,0.0,90.0,4.0,0.0
307,69.0,0.0,90.0,3.0,0.0
308,57.0,0.0,90.0,13.0,0.0
309,64.0,0.0,90.0,13.0,0.0
310,73.0,0.0,90.0,6.0,0.0
311,57.0,0.0,90.0,5.0,0.0
312,45.0,0.0,90.0,12.0,0.0
313,69.0,0.0,90.0,8.0,0.0
314,64.0,42.0,40.0,0.0,0.0
315,57.0,0.0,90.0,11.0,0.0
316,73.0,0.0,90.0,2.0,0.0
317,64.0,48.0,40.0,0.0,0.0
318,68.0,0.0,40.0,8.0,0.0
319,59.0,0.0,90.0,14.0,0.0
320,74.0,0.0,90.0,13.0,0.0
321,59.0,0.0,90.0,11.0,0.0
322,59.0,0.0,90.0,13.0,0.0
323,64.0,0.0,90.0,0.0,0.0
324,68.0,0.0,90.0,13.0,0.0
325,74.0,0.0,90.0,2.0,0.0
326,47.0,0.0,90.0,12.0,0.0
327,74.0,6.0,90.0,6.0,0.0
328,68.0,42.0,40.0,3.0,0.0
329,74.0,0.0,90.0,7.0,0.0
330,59.0,0.0,90.0,5.0,0.0
331,68.0,0.0,90.0,4.0,0.0
332,64.0,0.0,90.0,1.0,0.0
333,69.0,0.0,40.0,8.0,0.0
334,69.0,16.0,40.0,3.0,0.0
335,78.0,0.0,180.0,6.0,0.0
336,78.0,0.0,180.0,7.0,0.0
337,57.0,0.0,40.0,5.0,0.0
338,78.0,0.0,180.0,2.0,0.0
339,71.0,12.0,15.0,8.0,0.0
340,57.0,0.0,40.0,11.0,0.0
341,73.0,0.0,90.0,13.0,0.0
342,57.0,0.0,40.0,13.0,0.0
343,71.0,0.0,15.0,3.0,0.0
344,64.0,4.0,40.0,1.0,0.0
345,73.0,0.0,40.0,4.0,0.0
346,61.0,6.0,90.0,14.0,0.0
347,45.0,0.0,40.0,12.0,0.0
348,66.0,0.0,90.0,13.0,0.0
349,69.0,0.0,15.0,3.0,0.0
350,69.0,12.0,15.0,8.0,0.0
351,71.0,0.0,15.0,8.0,0.0
352,71.0,8.0,15.0,3.0,0.0
353,69.0,12.0,15.0,8.0,0.0
354,69.0,0.0,15.0,3.0,0.0
355,56.0,0.0,40.0,11.0,0.0
356,71.0,0.0,40.0,4.0,0.0
357,56.0,4.0,40.0,13.0,0.0
358,71.0,0.0,15.0,3.0,0.0
359,64.0,0.0,40.0,1.0,0.0
360,56.0,0.0,40.0,5.0,0.0
361,44.0,0.0,40.0,12.0,0.0
362,71.0,12.0,15.0,8.0,0.0
363,69.0,12.0,15.0,8.0,0.0
364,69.0,0.0,15.0,3.0,0.0
365,71.0,0.0,15.0,3.0,0.0
366,71.0,2.0,15.0,8.0,0.0
367,69.0,12.0,15.0,8.0,0.0
368,69.0,0.0,15.0,3.0,0.0
369,57.0,0.0,90.0,11.0,0.0
370,71.0,12.0,15.0,8.0,0.0
371,78.0,0.0,90.0,13.0,0.0
372,73.0,0.0,90.0,13.0,0.0
373,57.0,6.0,90.0,14.0,0.0
374,64.0,4.0,40.0,1.0,0.0
375,73.0,0.0,90.0,4.0,0.0
376,45.0,0.0,90.0,12.0,0.0
377,71.0,0.0,15.0,3.0,0.0
378,57.0,0.0,90.0,13.0,0.0
379,57.0,0.0,90.0,5.0,0.0
380,69.0,12.0,15.0,3.0,0.0
381,69.0,0.0,15.0,8.0,0.0
382,71.0,0.0,15.0,8.0,0.0
383,71.0,8.0,15.0,3.0,0.0
384,69.0,0.0,15.0,8.0,0.0
385,69.0,23.0,15.0,3.0,0.0
386,64.0,3.0,40.0,1.0,0.0
387,68.0,15.0,20.0,3.0,0.0
388,68.0,0.0,20.0,8.0,0.0
389,69.0,0.0,20.0,3.0,0.0
390,69.0,13.0,20.0,8.0,0.0
391,71.0,0.0,90.0,3.0,0.0
392,56.0,0.0,90.0,5.0,0.0
393,76.0,12.0,15.0,7.0,0.0
394,71.0,0.0,90.0,4.0,0.0
395,64.0,10.0,90.0,0.0,0.0
396,64.0,0.0,180.0,14.0,0.0
397,44.0,0.0,90.0,12.0,0.0
398,71.0,0.0,90.0,8.0,0.0
399,74.0,0.0,90.0,2.0,0.0
400,56.0,0.0,90.0,11.0,0.0
401,56.0,0.0,90.0,13.0,0.0
402,76.0,0.0,90.0,13.0,0.0
403,71.0,0.0,90.0,13.0,0.0
404,76.0,0.0,15.0,6.0,0.0
405,64.0,0.0,90.0,1.0,0.0
406,74.0,0.0,15.0,7.0,0.0
407,74.0,12.0,15.0,6.0,0.0
408,76.0,12.0,15.0,6.0,0.0
409,76.0,0.0,15.0,7.0,0.0
410,74.0,12.0,15.0,7.0,0.0
411,74.0,0.0,15.0,6.0,0.0
412,76.0,0.0,15.0,7.0,0.0
413,76.0,12.0,15.0,6.0,0.0
414,74.0,12.0,15.0,7.0,0.0
415,74.0,0.0,15.0,6.0,0.0
416,76.0,0.0,15.0,7.0,0.0
417,76.0,2.0,15.0,6.0,0.0
418,74.0,0.0,15.0,6.0,0.0
419,74.0,44.0,15.0,7.0,0.0
420,73.0,0.0,40.0,2.0,0.0
421,73.0,0.0,40.0,6.0,0.0
422,45.0,0.0,40.0,12.0,0.0
423,73.0,0.0,40.0,7.0,0.0
424,69.0,6.0,90.0,3.0,0.0
425,57.0,42.0,40.0,5.0,0.0
426,69.0,0.0,90.0,8.0,0.0
427,57.0,0.0,40.0,13.0,0.0
428,64.0,0.0,40.0,0.0,0.0
429,64.0,0.0,90.0,4.0,0.0
430,64.0,0.0,90.0,13.0,0.0
431,73.0,0.0,90.0,13.0,0.0
432,57.0,0.0,40.0,11.0,0.0
433,56.0,0.0,40.0,5.0,0.0
434,56.0,0.0,40.0,11.0,0.0
435,71.0,0.0,40.0,2.0,0.0
436,71.0,0.0,40.0,7.0,0.0
437,56.0,0.0,40.0,13.0,0.0
438,64.0,0.0,40.0,0.0,0.0
439,71.0,48.0,40.0,6.0,0.0
440,44.0,0.0,40.0,12.0,0.0
441,68.0,0.0,90.0,13.0,0.0
442,76.0,6.0,90.0,13.0,0.0
443,54.0,0.0,40.0,13.0,0.0
444,68.0,0.0,90.0,3.0,0.0
445,64.0,0.0,40.0,0.0,0.0
446,42.0,42.0,40.0,12.0,0.0
447,76.0,0.0,90.0,6.0,0.0
448,68.0,0.0,90.0,8.0,0.0
449,64.0,0.0,90.0,4.0,0.0
450,76.0,0.0,90.0,7.0,0.0
451,64.0,0.0,90.0,14.0,0.0
452,54.0,0.0,40.0,5.0,0.0
453,54.0,0.0,40.0,11.0,0.0
454,76.0,0.0,90.0,2.0,0.0
455,52.0,0.0,40.0,11.0,0.0
456,52.0,0.0,40.0,13.0,0.0
457,40.0,16.0,40.0,12.0,0.0
458,52.0,0.0,40.0,5.0,0.0
459,64.0,0.0,40.0,0.0,0.0
460,57.0,0.0,90.0,11.0,0.0
461,64.0,0.0,180.0,4.0,0.0
462,64.0,0.0,180.0,14.0,0.0
463,74.0,12.0,15.0,7.0,0.0
464,57.0,0.0,90.0,5.0,0.0
465,69.0,0.0,180.0,3.0,0.0
466,73.0,0.0,90.0,13.0,0.0
467,73.0,0.0,180.0,2.0,0.0
468,64.0,10.0,90.0,13.0,0.0
469,64.0,0.0,90.0,1.0,0.0
470,74.0,0.0,15.0,6.0,0.0
471,64.0,0.0,90.0,0.0,0.0
472,69.0,0.0,180.0,8.0,0.0
473,45.0,0.0,90.0,12.0,0.0
474,57.0,0.0,90.0,13.0,0.0
475,73.0,12.0,15.0,6.0,0.0
476,73.0,0.0,15.0,7.0,0.0
477,74.0,0.0,15.0,6.0,0.0
478,74.0,12.0,15.0,7.0,0.0
479,73.0,0.0,15.0,6.0,0.0
480,73.0,12.0,15.0,7.0,0.0
481,74.0,0.0,15.0,6.0,0.0
482,74.0,12.0,15.0,7.0,0.0
483,73.0,0.0,15.0,6.0,0.0
484,73.0,12.0,15.0,7.0,0.0
485,74.0,2.0,15.0,6.0,0.0
486,74.0,0.0,15.0,7.0,0.0
487,73.0,0.0,15.0,6.0,0.0
488,73.0,12.0,15.0,7.0,0.0
489,73.0,6.0,90.0,13.0,0.0
490,56.0,0.0,40.0,13.0,0.0
491,64.0,0.0,40.0,1.0,0.0
492,74.0,12.0,15.0,6.0,0.0
493,74.0,0.0,15.0,7.0,0.0
494,44.0,4.0,40.0,12.0,0.0
495,56.0,0.0,40.0,5.0,0.0
496,76.0,0.0,90.0,13.0,0.0
497,56.0,0.0,40.0,11.0,0.0
498,73.0,0.0,15.0,6.0,0.0
499,73.0,12.0,15.0,7.0,0.0
500,74.0,8.0,15.0,7.0,0.0
501,74.0,0.0,15.0,6.0,0.0
502,73.0,12.0,15.0,7.0,0.0
503,73.0,0.0,15.0,6.0,0.0
504,74.0,0.0,15.0,6.0,0.0
505,74.0,12.0,15.0,7.0,0.0
506,54.0,0.0,40.0,5.0,0.0
507,64.0,0.0,40.0,1.0,0.0
508,54.0,4.0,40.0,13.0,0.0
509,42.0,0.0,40.0,12.0,0.0
510,54.0,0.0,40.0,11.0,0.0
511,73.0,0.0,15.0,7.0,0.0
512,73.0,12.0,15.0,6.0,0.0
513,74.0,2.0,15.0,7.0,0.0
514,74.0,0.0,15.0,6.0,0.0
515,73.0,0.0,15.0,7.0,0.0
516,73.0,44.0,15.0,6.0,0.0
517,64.0,0.0,90.0,14.0,0.0
518,76.0,0.0,90.0,13.0,0.0
519,64.0,42.0,40.0,1.0,0.0
520,56.0,0.0,90.0,13.0,0.0
521,71.0,0.0,90.0,13.0,0.0
522,71.0,0.0,90.0,3.0,0.0
523,64.0,0.0,90.0,4.0,0.0
524,71.0,6.0,90.0,8.0,0.0
525,71.0,0.0,90.0,6.0,0.0
526,56.0,0.0,90.0,11.0,0.0
527,56.0,0.0,90.0,5.0,0.0
528,71.0,0.0,90.0,2.0,0.0
529,71.0,0.0,90.0,7.0,0.0
530,44.0,0.0,90.0,12.0,0.0
531,64.0,16.0,40.0,1.0,0.0
532,71.0,0.0,90.0,0.0,0.0
533,75.0,0.0,40.0,6.0,0.0
534,69.0,0.0,90.0,3.0,0.0
535,54.0,0.0,90.0,5.0,0.0
536,66.0,0.0,90.0,4.0,0.0
537,75.0,0.0,40.0,7.0,0.0
538,71.0,0.0,90.0,1.0,0.0
539,69.0,6.0,90.0,8.0,0.0
540,69.0,0.0,90.0,13.0,0.0
541,75.0,0.0,90.0,13.0,0.0
542,54.0,0.0,90.0,13.0,0.0
543,68.0,12.0,15.0,14.0,0.0
544,75.0,4.0,40.0,2.0,0.0
545,54.0,0.0,90.0,11.0,0.0
546,42.0,0.0,90.0,12.0,0.0
547,66.0,12.0,15.0,14.0,0.0
548,68.0,8.0,15.0,14.0,0.0
549,66.0,12.0,15.0,14.0,0.0
550,76.0,0.0,40.0,6.0,0.0
551,76.0,4.0,40.0,2.0,0.0
552,76.0,0.0,40.0,7.0,0.0
553,68.0,12.0,15.0,14.0,0.0
554,66.0,12.0,15.0,14.0,0.0
555,68.0,2.0,15.0,14.0,0.0
556,66.0,12.0,15.0,14.0,0.0
557,56.0,0.0,90.0,13.0,0.0
558,78.0,12.0,15.0,6.0,0.0
559,44.0,0.0,90.0,12.0,0.0
560,71.0,0.0,180.0,8.0,0.0
561,71.0,0.0,90.0,13.0,0.0
562,76.0,0.0,90.0,13.0,0.0
563,56.0,0.0,90.0,11.0,0.0
564,64.0,0.0,40.0,14.0,0.0
565,78.0,0.0,15.0,2.0,0.0
566,78.0,0.0,15.0,7.0,0.0
567,64.0,4.0,40.0,4.0,0.0
568,71.0,0.0,180.0,3.0,0.0
569,71.0,0.0,40.0,0.0,0.0
570,56.0,6.0,90.0,5.0,0.0
571,76.0,0.0,15.0,2.0,0.0
572,76.0,12.0,15.0,7.0,0.0
573,76.0,0.0,15.0,6.0,0.0
574,78.0,0.0,15.0,7.0,0.0
575,78.0,8.0,15.0,6.0,0.0
576,78.0,0.0,15.0,2.0,0.0
577,76.0,0.0,15.0,6.0,0.0
578,76.0,0.0,15.0,2.0,0.0
579,76.0,12.0,15.0,7.0,0.0
580,78.0,12.0,15.0,2.0,0.0
581,78.0,0.0,15.0,6.0,0.0
582,78.0,0.0,15.0,7.0,0.0
583,66.0,4.0,40.0,4.0,0.0
584,66.0,0.0,40.0,14.0,0.0
585,71.0,0.0,40.0,0.0,0.0
586,76.0,0.0,15.0,7.0,0.0
587,76.0,12.0,15.0,2.0,0.0
588,76.0,0.0,15.0,6.0,0.0
589,78.0,2.0,15.0,2.0,0.0
590,78.0,0.0,15.0,6.0,0.0
591,78.0,0.0,15.0,7.0,0.0
592,76.0,12.0,15.0,7.0,0.0
593,76.0,0.0,15.0,2.0,0.0
594,76.0,0.0,15.0,6.0,0.0
595,68.0,0.0,90.0,14.0,0.0
596,78.0,12.0,15.0,6.0,0.0
597,68.0,0.0,90.0,4.0,0.0
598,71.0,6.0,90.0,13.0,0.0
599,80.0,0.0,90.0,13.0,0.0
600,52.0,0.0,90.0,13.0,0.0
601,78.0,0.0,15.0,2.0,0.0
602,52.0,0.0,90.0,5.0,0.0
603,78.0,0.0,15.0,7.0,0.0
604,52.0,0.0,90.0,11.0,0.0
605,71.0,4.0,40.0,0.0,0.0
606,40.0,0.0,90.0,12.0,0.0
607,76.0,0.0,15.0,7.0,0.0
608,76.0,12.0,15.0,2.0,0.0
609,76.0,0.0,15.0,6.0,0.0
610,78.0,0.0,15.0,6.0,0.0
611,78.0,0.0,15.0,2.0,0.0
612,78.0,8.0,15.0,7.0,0.0
613,76.0,0.0,15.0,2.0,0.0
614,76.0,23.0,15.0,6.0,0.0
615,76.0,0.0,15.0,7.0,0.0
616,75.0,15.0,20.0,2.0,0.0
617,71.0,3.0,40.0,0.0,0.0
618,75.0,0.0,20.0,6.0,0.0
619,75.0,0.0,20.0,7.0,0.0
620,76.0,0.0,20.0,7.0,0.0
621,76.0,0.0,20.0,6.0,0.0
622,76.0,87.0,20.0,2.0,0.0
623,78.0,0.0,90.0,13.0,0.0
624,71.0,0.0,90.0,13.0,0.0
625,71.0,0.0,90.0,1.0,0.0
626,66.0,0.0,180.0,4.0,0.0
627,71.0,0.0,90.0,0.0,0.0
628,51.0,54.0,90.0,11.0,0.0
629,71.0,0.0,180.0,3.0,0.0
630,66.0,6.0,180.0,14.0,0.0
631,51.0,0.0,90.0,13.0,0.0
632,78.0,0.0,90.0,7.0,0.0
633,51.0,0.0,90.0,5.0,0.0
634,78.0,0.0,90.0,2.0,0.0
635,71.0,0.0,180.0,8.0,0.0
636,39.0,0.0,90.0,12.0,0.0
637,78.0,0.0,90.0,6.0,0.0
638,49.0,0.0,40.0,5.0,0.0
639,76.0,0.0,90.0,13.0,0.0
640,76.0,0.0,40.0,7.0,0.0
641,49.0,42.0,40.0,13.0,0.0
642,71.0,0.0,90.0,13.0,0.0
643,37.0,0.0,40.0,12.0,0.0
644,76.0,0.0,40.0,2.0,0.0
645,71.0,0.0,40.0,1.0,0.0
646,76.0,0.0,40.0,6.0,0.0
647,49.0,0.0,40.0,11.0,0.0
648,47.0,0.0,40.0,5.0,0.0
649,75.0,0.0,40.0,7.0,0.0
650,71.0,0.0,40.0,1.0,0.0
651,47.0,0.0,40.0,11.0,0.0
652,75.0,0.0,40.0,6.0,0.0
653,35.0,0.0,40.0,12.0,0.0
654,75.0,0.0,40.0,2.0,0.0
655,47.0,48.0,40.0,13.0,0.0
656,33.0,0.0,40.0,12.0,0.0
657,71.0,0.0,90.0,13.0,0.0
658,76.0,0.0,90.0,6.0,0.0
659,71.0,0.0,90.0,8.0,0.0
660,45.0,0.0,40.0,11.0,0.0
661,45.0,0.0,40.0,5.0,0.0
662,76.0,0.0,90.0,7.0,0.0
663,76.0,6.0,90.0,13.0,0.0
664,45.0,0.0,40.0,13.0,0.0
665,68.0,0.0,90.0,14.0,0.0
666,71.0,0.0,90.0,3.0,0.0
667,76.0,0.0,90.0,2.0,0.0
668,71.0,42.0,40.0,1.0,0.0
669,68.0,0.0,90.0,4.0,0.0
670,71.0,0.0,40.0,1.0,0.0
671,44.0,0.0,40.0,11.0,0.0
672,44.0,0.0,40.0,5.0,0.0
673,32.0,0.0,40.0,12.0,0.0
674,44.0,48.0,40.0,13.0,0.0
675,64.0,6.0,90.0,14.0,0.0
676,76.0,0.0,90.0,13.0,0.0
677,73.0,0.0,40.0,3.0,0.0
678,76.0,0.0,40.0,0.0,0.0
679,49.0,0.0,40.0,13.0,0.0
680,49.0,0.0,40.0,11.0,0.0
681,69.0,0.0,90.0,13.0,0.0
682,37.0,0.0,40.0,12.0,0.0
683,81.0,0.0,40.0,7.0,0.0
684,81.0,0.0,40.0,2.0,0.0
685,64.0,0.0,90.0,4.0,0.0
686,73.0,0.0,40.0,8.0,0.0
687,81.0,0.0,40.0,6.0,0.0
688,73.0,0.0,90.0,1.0,0.0
689,49.0,42.0,40.0,5.0,0.0
690,83.0,0.0,40.0,7.0,0.0
691,83.0,16.0,40.0,6.0,0.0
692,45.0,0.0,40.0,11.0,0.0
693,75.0,0.0,40.0,8.0,0.0
694,83.0,0.0,40.0,2.0,0.0
695,33.0,0.0,40.0,12.0,0.0
696,45.0,0.0,40.0,13.0,0.0
697,75.0,0.0,40.0,3.0,0.0
698,45.0,0.0,40.0,5.0,0.0
699,75.0,0.0,40.0,0.0,0.0
700,47.0,0.0,90.0,11.0,0.0
701,75.0,0.0,120.0,0.0,0.0
702,35.0,0.0,90.0,12.0,0.0
703,71.0,4.0,40.0,1.0,0.0
704,47.0,0.0,90.0,13.0,0.0
705,75.0,0.0,120.0,8.0,0.0
706,76.0,12.0,15.0,3.0,0.0
707,78.0,0.0,120.0,7.0,0.0
708,47.0,0.0,90.0,5.0,0.0
709,71.0,0.0,90.0,14.0,0.0
710,78.0,6.0,120.0,2.0,0.0
711,66.0,6.0,90.0,13.0,0.0
712,71.0,0.0,90.0,4.0,0.0
713,78.0,0.0,120.0,6.0,0.0
714,74.0,0.0,90.0,13.0,0.0
715,75.0,12.0,15.0,3.0,0.0
716,76.0,8.0,15.0,3.0,0.0
717,75.0,12.0,15.0,3.0,0.0
718,71.0,4.0,40.0,1.0,0.0
719,76.0,12.0,15.0,3.0,0.0
720,75.0,12.0,15.0,3.0,0.0
721,76.0,2.0,15.0,3.0,0.0
722,75.0,12.0,15.0,3.0,0.0
723,47.0,0.0,90.0,11.0,0.0
724,47.0,0.0,90.0,5.0,0.0
725,69.0,0.0,90.0,14.0,0.0
726,69.0,0.0,90.0,4.0,0.0
727,76.0,12.0,15.0,3.0,0.0
728,47.0,0.0,90.0,13.0,0.0
729,74.0,6.0,90.0,13.0,0.0
730,35.0,0.0,90.0,12.0,0.0
731,69.0,0.0,90.0,13.0,0.0
732,71.0,4.0,40.0,1.0,0.0
733,75.0,12.0,15.0,3.0,0.0
734,76.0,2.0,15.0,3.0,0.0
735,75.0,38.0,15.0,3.0,0.0
736,71.0,0.0,40.0,1.0,0.0
737,71.0,0.0,40.0,8.0,0.0
738,76.0,90.0,40.0,0.0,0.0
739,71.0,0.0,40.0,3.0,0.0
740,76.0,0.0,40.0,6.0,0.0
741,76.0,0.0,40.0,7.0,0.0
742,76.0,0.0,40.0,2.0,0.0
743,71.0,0.0,270.0,1.0,0.0
744,28.0,0.0,90.0,12.0,0.0
745,76.0,0.0,270.0,7.0,0.0
746,76.0,0.0,270.0,6.0,0.0
747,80.0,0.0,90.0,13.0,0.0
748,40.0,0.0,90.0,13.0,0.0
749,68.0,0.0,270.0,4.0,0.0
750,40.0,0.0,90.0,5.0,0.0
751,40.0,54.0,90.0,11.0,0.0
752,71.0,0.0,270.0,3.0,0.0
753,76.0,0.0,270.0,2.0,0.0
754,68.0,0.0,270.0,14.0,0.0
755,71.0,0.0,270.0,8.0,0.0
756,71.0,0.0,90.0,13.0,0.0
757,76.0,6.0,270.0,0.0,0.0
758,52.0,0.0,40.0,5.0,0.0
759,52.0,0.0,40.0,11.0,0.0
760,40.0,48.0,40.0,12.0,0.0
761,52.0,0.0,40.0,13.0,0.0
762,64.0,0.0,40.0,13.0,0.0
763,38.0,0.0,40.0,12.0,0.0
764,50.0,0.0,40.0,5.0,0.0
765,50.0,0.0,40.0,11.0,0.0
766,62.0,0.0,40.0,13.0,0.0
767,50.0,48.0,40.0,13.0,0.0
768,37.0,42.0,40.0,12.0,0.0
769,61.0,0.0,40.0,13.0,0.0
770,49.0,0.0,40.0,5.0,0.0
771,49.0,0.0,40.0,13.0,0.0
772,49.0,0.0,40.0,11.0,0.0
773,47.0,0.0,40.0,5.0,0.0
774,47.0,0.0,40.0,11.0,0.0
775,35.0,0.0,40.0,12.0,0.0
776,47.0,90.0,40.0,13.0,0.0
777,59.0,0.0,40.0,13.0,0.0
778,69.0,0.0,180.0,14.0,0.0
779,45.0,0.0,90.0,5.0,0.0
780,73.0,0.0,90.0,3.0,0.0
781,45.0,0.0,90.0,11.0,0.0
782,45.0,0.0,90.0,13.0,0.0
783,64.0,0.0,90.0,13.0,0.0
784,76.0,0.0,90.0,6.0,0.0
785,73.0,0.0,90.0,8.0,0.0
786,69.0,0.0,180.0,4.0,0.0
787,76.0,0.0,90.0,7.0,0.0
788,33.0,0.0,90.0,12.0,0.0
789,73.0,0.0,90.0,13.0,0.0
790,57.0,0.0,90.0,0.0,0.0
791,76.0,54.0,90.0,2.0,0.0
792,79.0,0.0,90.0,2.0,0.0
793,76.0,6.0,90.0,3.0,0.0
794,49.0,0.0,90.0,12.0,0.0
795,57.0,42.0,40.0,0.0,0.0
796,79.0,0.0,90.0,6.0,0.0
797,79.0,0.0,90.0,7.0,0.0
798,61.0,0.0,90.0,11.0,0.0
799,61.0,0.0,90.0,13.0,0.0
800,76.0,0.0,90.0,13.0,0.0
801,67.0,0.0,90.0,13.0,0.0
802,76.0,0.0,90.0,8.0,0.0
803,61.0,0.0,90.0,5.0,0.0
804,57.0,48.0,40.0,0.0,0.0
805,69.0,0.0,90.0,13.0,0.0
806,62.0,0.0,90.0,13.0,0.0
807,57.0,42.0,40.0,0.0,0.0
808,78.0,6.0,90.0,7.0,0.0
809,78.0,0.0,90.0,13.0,0.0
810,69.0,0.0,90.0,4.0,0.0
811,50.0,0.0,90.0,12.0,0.0
812,69.0,0.0,90.0,14.0,0.0
813,62.0,0.0,90.0,11.0,0.0
814,62.0,0.0,90.0,5.0,0.0
815,78.0,0.0,90.0,6.0,0.0
816,78.0,0.0,90.0,2.0,0.0
817,74.0,0.0,90.0,3.0,0.0
818,74.0,0.0,90.0,8.0,0.0
819,57.0,16.0,40.0,0.0,0.0
820,67.0,0.0,90.0,4.0,0.0
821,76.0,0.0,90.0,6.0,0.0
822,57.0,0.0,90.0,0.0,0.0
823,73.0,0.0,90.0,8.0,0.0
824,76.0,10.0,90.0,7.0,0.0
825,69.0,12.0,15.0,14.0,0.0
826,64.0,0.0,90.0,11.0,0.0
827,64.0,0.0,90.0,13.0,0.0
828,73.0,0.0,90.0,13.0,0.0
829,57.0,0.0,90.0,1.0,0.0
830,76.0,0.0,90.0,2.0,0.0
831,79.0,0.0,90.0,13.0,0.0
832,52.0,0.0,90.0,12.0,0.0
833,64.0,0.0,90.0,5.0,0.0
834,73.0,0.0,90.0,3.0,0.0
835,67.0,12.0,15.0,14.0,0.0
836,69.0,12.0,15.0,14.0,0.0
837,67.0,12.0,15.0,14.0,0.0
838,69.0,12.0,15.0,14.0,0.0
839,67.0,12.0,15.0,14.0,0.0
840,69.0,2.0,15.0,14.0,0.0
841,67.0,44.0,15.0,14.0,0.0
842,66.0,0.0,40.0,14.0,0.0
843,74.0,0.0,90.0,13.0,0.0
844,79.0,0.0,90.0,13.0,0.0
845,69.0,0.0,90.0,3.0,0.0
846,74.0,0.0,40.0,7.0,0.0
847,55.0,0.0,90.0,12.0,0.0
848,67.0,0.0,90.0,13.0,0.0
849,57.0,0.0,40.0,1.0,0.0
850,67.0,0.0,90.0,11.0,0.0
851,69.0,0.0,90.0,8.0,0.0
852,67.0,6.0,90.0,5.0,0.0
853,74.0,0.0,40.0,2.0,0.0
854,74.0,0.0,40.0,6.0,0.0
855,66.0,42.0,40.0,4.0,0.0
856,73.0,0.0,40.0,2.0,0.0
857,73.0,0.0,40.0,7.0,0.0
858,64.0,0.0,40.0,14.0,0.0
859,73.0,0.0,40.0,6.0,0.0
860,64.0,0.0,40.0,4.0,0.0
861,57.0,48.0,40.0,1.0,0.0
862,57.0,42.0,40.0,1.0,0.0
863,66.0,0.0,90.0,14.0,0.0
864,66.0,0.0,90.0,4.0,0.0
865,74.0,0.0,90.0,6.0,0.0
866,74.0,0.0,90.0,7.0,0.0
867,74.0,0.0,90.0,13.0,0.0
868,66.0,0.0,90.0,5.0,0.0
869,54.0,0.0,90.0,12.0,0.0
870,69.0,0.0,90.0,8.0,0.0
871,66.0,6.0,90.0,11.0,0.0
872,69.0,0.0,90.0,3.0,0.0
873,66.0,0.0,90.0,13.0,0.0
874,74.0,0.0,90.0,2.0,0.0
875,57.0,90.0,40.0,1.0,0.0
876,64.0,0.0,90.0,11.0,0.0
877,64.0,0.0,90.0,13.0,0.0
878,79.0,0.0,90.0,13.0,0.0
879,73.0,0.0,90.0,13.0,0.0
880,57.0,0.0,90.0,0.0,0.0
881,52.0,0.0,90.0,12.0,0.0
882,73.0,0.0,90.0,3.0,0.0
883,67.0,0.0,90.0,14.0,0.0
884,76.0,0.0,90.0,2.0,0.0
885,57.0,0.0,90.0,1.0,0.0
886,76.0,0.0,90.0,6.0,0.0
887,73.0,54.0,90.0,8.0,0.0
888,76.0,0.0,90.0,7.0,0.0
889,67.0,0.0,90.0,4.0,0.0
890,64.0,0.0,90.0,5.0,0.0
891,76.0,0.0,90.0,3.0,0.0
892,67.0,0.0,90.0,13.0,0.0
893,76.0,6.0,90.0,13.0,0.0
894,62.0,0.0,40.0,13.0,0.0
895,79.0,0.0,90.0,2.0,0.0
896,62.0,0.0,40.0,11.0,0.0
897,76.0,0.0,90.0,8.0,0.0
898,50.0,0.0,40.0,12.0,0.0
899,79.0,0.0,90.0,6.0,0.0
900,62.0,42.0,40.0,5.0,0.0
901,79.0,0.0,90.0,7.0,0.0
902,64.0,0.0,90.0,4.0,0.0
903,64.0,0.0,90.0,14.0,0.0
904,57.0,0.0,40.0,0.0,0.0
905,61.0,48.0,40.0,13.0,0.0
906,49.0,0.0,40.0,12.0,0.0
907,57.0,0.0,40.0,0.0,0.0
908,61.0,0.0,40.0,5.0,0.0
909,61.0,0.0,40.0,11.0,0.0
910,62.0,0.0,90.0,11.0,0.0
911,69.0,0.0,90.0,14.0,0.0
912,74.0,0.0,90.0,3.0,0.0
913,69.0,0.0,90.0,13.0,0.0
914,74.0,0.0,90.0,8.0,0.0
915,62.0,0.0,90.0,13.0,0.0
916,69.0,6.0,90.0,4.0,0.0
917,78.0,0.0,90.0,2.0,0.0
918,50.0,0.0,90.0,12.0,0.0
919,62.0,0.0,90.0,5.0,0.0
920,78.0,0.0,90.0,7.0,0.0
921,57.0,42.0,40.0,0.0,0.0
922,78.0,0.0,90.0,13.0,0.0
923,78.0,0.0,90.0,6.0,0.0
924,57.0,16.0,40.0,0.0,0.0
925,78.0,12.0,15.0,7.0,0.0
926,49.0,0.0,90.0,12.0,0.0
927,57.0,0.0,90.0,0.0,0.0
928,57.0,0.0,90.0,1.0,0.0
929,69.0,6.0,180.0,14.0,0.0
930,76.0,10.0,90.0,13.0,0.0
931,61.0,0.0,90.0,13.0,0.0
932,78.0,0.0,15.0,2.0,0.0
933,69.0,0.0,180.0,4.0,0.0
934,61.0,0.0,90.0,11.0,0.0
935,78.0,0.0,15.0,6.0,0.0
936,69.0,0.0,90.0,13.0,0.0
937,61.0,0.0,90.0,5.0,0.0
938,76.0,0.0,90.0,3.0,0.0
939,76.0,0.0,90.0,8.0,0.0
940,76.0,0.0,15.0,2.0,0.0
941,76.0,12.0,15.0,7.0,0.0
942,76.0,0.0,15.0,6.0,0.0
943,78.0,12.0,15.0,6.0,0.0
944,78.0,0.0,15.0,2.0,0.0
945,78.0,0.0,15.0,7.0,0.0
946,76.0,12.0,15.0,2.0,0.0
947,76.0,0.0,15.0,6.0,0.0
948,76.0,0.0,15.0,7.0,0.0
949,78.0,12.0,15.0,2.0,0.0
950,78.0,0.0,15.0,7.0,0.0
951,78.0,0.0,15.0,6.0,0.0
952,76.0,0.0,15.0,2.0,0.0
953,76.0,0.0,15.0,7.0,0.0
954,76.0,12.0,15.0,6.0,0.0
955,78.0,0.0,15.0,2.0,0.0
956,78.0,0.0,15.0,6.0,0.0
957,78.0,2.0,15.0,7.0,0.0
958,76.0,12.0,15.0,6.0,0.0
959,76.0,0.0,15.0,2.0,0.0
960,76.0,0.0,15.0,7.0,0.0
961,74.0,0.0,90.0,3.0,0.0
962,74.0,0.0,90.0,13.0,0.0
963,74.0,0.0,90.0,8.0,0.0
964,62.0,0.0,40.0,5.0,0.0
965,78.0,0.0,15.0,2.0,0.0
966,62.0,0.0,40.0,11.0,0.0
967,57.0,0.0,40.0,1.0,0.0
968,62.0,4.0,40.0,13.0,0.0
969,78.0,12.0,15.0,6.0,0.0
970,69.0,0.0,90.0,13.0,0.0
971,78.0,0.0,15.0,7.0,0.0
972,50.0,0.0,40.0,12.0,0.0
973,76.0,0.0,15.0,7.0,0.0
974,76.0,0.0,15.0,2.0,0.0
975,76.0,12.0,15.0,6.0,0.0
976,78.0,0.0,15.0,7.0,0.0
977,78.0,0.0,15.0,2.0,0.0
978,78.0,8.0,15.0,6.0,0.0
979,76.0,0.0,15.0,2.0,0.0
980,76.0,0.0,15.0,6.0,0.0
981,76.0,12.0,15.0,7.0,0.0
982,61.0,0.0,40.0,11.0,0.0
983,78.0,12.0,15.0,2.0,0.0
984,49.0,0.0,40.0,12.0,0.0
985,61.0,0.0,40.0,13.0,0.0
986,57.0,4.0,40.0,1.0,0.0
987,78.0,0.0,15.0,7.0,0.0
988,78.0,0.0,15.0,6.0,0.0
989,61.0,0.0,40.0,5.0,0.0
990,76.0,12.0,15.0,6.0,0.0
991,76.0,0.0,15.0,7.0,0.0
992,76.0,0.0,15.0,2.0,0.0
993,78.0,0.0,15.0,6.0,0.0
994,78.0,2.0,15.0,7.0,0.0
995,78.0,0.0,15.0,2.0,0.0
996,76.0,44.0,15.0,2.0,0.0
997,76.0,0.0,15.0,7.0,0.0
998,76.0,0.0,15.0,6.0,0.0
999,81.0,0.0,90.0,6.0,0.0
1000,59.0,0.0,40.0,5.0,0.0
1001,64.0,0.0,90.0,14.0,0.0
1002,47.0,0.0,40.0,12.0,0.0
1003,81.0,0.0,90.0,2.0,0.0
1004,73.0,0.0,90.0,8.0,0.0
1005,64.0,0.0,90.0,4.0,0.0
1006,59.0,42.0,40.0,13.0,0.0
1007,64.0,6.0,90.0,13.0,0.0
1008,73.0,0.0,90.0,13.0,0.0
1009,57.0,0.0,40.0,1.0,0.0
1010,81.0,0.0,90.0,7.0,0.0
1011,59.0,0.0,40.0,11.0,0.0
1012,73.0,0.0,90.0,3.0,0.0
1013,45.0,0.0,40.0,12.0,0.0
1014,57.0,0.0,40.0,1.0,0.0
1015,57.0,16.0,40.0,13.0,0.0
1016,57.0,0.0,40.0,11.0,0.0
1017,57.0,0.0,40.0,5.0,0.0
1018,56.0,0.0,180.0,5.0,0.0
1019,74.0,0.0,90.0,2.0,0.0
1020,57.0,0.0,15.0,11.0,0.0
1021,71.0,0.0,90.0,13.0,0.0
1022,64.0,0.0,180.0,14.0,0.0
1023,76.0,0.0,90.0,13.0,0.0
1024,71.0,0.0,180.0,8.0,0.0
1025,64.0,10.0,90.0,0.0,0.0
1026,57.0,0.0,15.0,13.0,0.0
1027,74.0,0.0,90.0,6.0,0.0
1028,64.0,0.0,90.0,1.0,0.0
1029,64.0,0.0,180.0,4.0,0.0
1030,45.0,12.0,15.0,12.0,0.0
1031,71.0,0.0,180.0,3.0,0.0
1032,74.0,0.0,90.0,7.0,0.0
1033,56.0,12.0,15.0,13.0,0.0
1034,44.0,0.0,15.0,12.0,0.0
1035,56.0,0.0,15.0,11.0,0.0
1036,57.0,0.0,15.0,13.0,0.0
1037,45.0,0.0,15.0,12.0,0.0
1038,57.0,12.0,15.0,11.0,0.0
1039,56.0,0.0,15.0,13.0,0.0
1040,56.0,0.0,15.0,11.0,0.0
1041,44.0,12.0,15.0,12.0,0.0
1042,57.0,0.0,15.0,13.0,0.0
1043,57.0,12.0,15.0,11.0,0.0
1044,45.0,0.0,15.0,12.0,0.0
1045,56.0,0.0,15.0,11.0,0.0
1046,56.0,12.0,15.0,13.0,0.0
1047,44.0,0.0,15.0,12.0,0.0
1048,57.0,2.0,15.0,11.0,0.0
1049,45.0,0.0,15.0,12.0,0.0
1050,57.0,0.0,15.0,13.0,0.0
1051,44.0,12.0,15.0,12.0,0.0
1052,56.0,0.0,15.0,11.0,0.0
1053,56.0,0.0,15.0,13.0,0.0
1054,71.0,0.0,90.0,2.0,0.0
1055,71.0,0.0,90.0,13.0,0.0
1056,64.0,0.0,90.0,13.0,0.0
1057,45.0,0.0,15.0,12.0,0.0
1058,71.0,6.0,90.0,6.0,0.0
1059,64.0,4.0,40.0,0.0,0.0
1060,71.0,0.0,90.0,7.0,0.0
1061,57.0,12.0,15.0,11.0,0.0
1062,57.0,0.0,15.0,13.0,0.0
1063,56.0,12.0,15.0,13.0,0.0
1064,56.0,0.0,15.0,11.0,0.0
1065,44.0,0.0,15.0,12.0,0.0
1066,57.0,0.0,15.0,11.0,0.0
1067,57.0,0.0,15.0,13.0,0.0
1068,45.0,8.0,15.0,12.0,0.0
1069,44.0,0.0,15.0,12.0,0.0
1070,56.0,12.0,15.0,13.0,0.0
1071,56.0,0.0,15.0,11.0,0.0
1072,64.0,4.0,40.0,0.0,0.0
1073,57.0,0.0,15.0,11.0,0.0
1074,57.0,12.0,15.0,13.0,0.0
1075,45.0,0.0,15.0,12.0,0.0
1076,56.0,0.0,15.0,11.0,0.0
1077,56.0,0.0,15.0,13.0,0.0
1078,44.0,12.0,15.0,12.0,0.0
1079,57.0,2.0,15.0,13.0,0.0
1080,45.0,0.0,15.0,12.0,0.0
1081,57.0,0.0,15.0,11.0,0.0
1082,44.0,0.0,15.0,12.0,0.0
1083,56.0,44.0,15.0,11.0,0.0
1084,56.0,0.0,15.0,13.0,0.0
1085,73.0,6.0,90.0,6.0,0.0
1086,64.0,0.0,90.0,4.0,0.0
1087,69.0,0.0,90.0,8.0,0.0
1088,64.0,0.0,90.0,13.0,0.0
1089,69.0,0.0,90.0,3.0,0.0
1090,57.0,0.0,90.0,5.0,0.0
1091,73.0,0.0,90.0,7.0,0.0
1092,73.0,0.0,90.0,13.0,0.0
1093,57.0,0.0,90.0,13.0,0.0
1094,64.0,42.0,40.0,0.0,0.0
1095,57.0,0.0,90.0,11.0,0.0
1096,45.0,0.0,90.0,12.0,0.0
1097,73.0,0.0,90.0,2.0,0.0
1098,64.0,0.0,90.0,14.0,0.0
1099,64.0,48.0,40.0,0.0,0.0
1100,74.0,0.0,90.0,13.0,0.0
1101,64.0,0.0,90.0,0.0,0.0
1102,68.0,42.0,40.0,3.0,0.0
1103,74.0,0.0,90.0,6.0,0.0
1104,68.0,0.0,40.0,8.0,0.0
1105,59.0,0.0,90.0,13.0,0.0
1106,59.0,0.0,90.0,14.0,0.0
1107,68.0,0.0,90.0,13.0,0.0
1108,59.0,0.0,90.0,11.0,0.0
1109,59.0,6.0,90.0,5.0,0.0
1110,68.0,0.0,90.0,4.0,0.0
1111,74.0,0.0,90.0,2.0,0.0
1112,47.0,0.0,90.0,12.0,0.0
1113,74.0,0.0,90.0,7.0,0.0
1114,64.0,0.0,90.0,1.0,0.0
1115,69.0,16.0,40.0,3.0,0.0
1116,69.0,0.0,40.0,8.0,0.0
1117,57.0,0.0,40.0,5.0,0.0
1118,66.0,0.0,90.0,13.0,0.0
1119,73.0,6.0,90.0,13.0,0.0
1120,61.0,0.0,90.0,14.0,0.0
1121,78.0,0.0,180.0,2.0,0.0
1122,57.0,0.0,40.0,11.0,0.0
1123,78.0,6.0,180.0,7.0,0.0
1124,73.0,0.0,40.0,4.0,0.0
1125,57.0,0.0,40.0,13.0,0.0
1126,45.0,4.0,40.0,12.0,0.0
1127,71.0,0.0,15.0,8.0,0.0
1128,71.0,12.0,15.0,3.0,0.0
1129,78.0,0.0,180.0,6.0,0.0
1130,64.0,0.0,40.0,1.0,0.0
1131,69.0,0.0,15.0,3.0,0.0
1132,69.0,12.0,15.0,8.0,0.0
1133,71.0,8.0,15.0,3.0,0.0
1134,71.0,0.0,15.0,8.0,0.0
1135,69.0,0.0,15.0,3.0,0.0
1136,69.0,12.0,15.0,8.0,0.0
1137,56.0,4.0,40.0,11.0,0.0
1138,71.0,12.0,15.0,3.0,0.0
1139,71.0,0.0,15.0,8.0,0.0
1140,56.0,0.0,40.0,5.0,0.0
1141,71.0,0.0,40.0,4.0,0.0
1142,64.0,0.0,40.0,1.0,0.0
1143,44.0,0.0,40.0,12.0,0.0
1144,56.0,0.0,40.0,13.0,0.0
1145,69.0,12.0,15.0,3.0,0.0
1146,69.0,0.0,15.0,8.0,0.0
1147,71.0,0.0,15.0,3.0,0.0
1148,71.0,2.0,15.0,8.0,0.0
1149,69.0,12.0,15.0,3.0,0.0
1150,69.0,0.0,15.0,8.0,0.0
1151,71.0,0.0,15.0,3.0,0.0
1152,57.0,0.0,90.0,14.0,0.0
1153,57.0,0.0,90.0,5.0,0.0
1154,64.0,4.0,40.0,1.0,0.0
1155,78.0,0.0,90.0,13.0,0.0
1156,71.0,12.0,15.0,8.0,0.0
1157,73.0,0.0,90.0,4.0,0.0
1158,57.0,0.0,90.0,11.0,0.0
1159,73.0,0.0,90.0,13.0,0.0
1160,57.0,0.0,90.0,13.0,0.0
1161,45.0,0.0,90.0,12.0,0.0
1162,69.0,12.0,15.0,3.0,0.0
1163,69.0,0.0,15.0,8.0,0.0
1164,71.0,0.0,15.0,3.0,0.0
1165,71.0,8.0,15.0,8.0,0.0
1166,69.0,23.0,15.0,3.0,0.0
1167,69.0,0.0,15.0,8.0,0.0
1168,68.0,0.0,20.0,3.0,0.0
1169,64.0,3.0,40.0,1.0,0.0
1170,68.0,15.0,20.0,8.0,0.0
1171,69.0,13.0,20.0,3.0,0.0
1172,69.0,0.0,20.0,8.0,0.0
1173,56.0,0.0,90.0,11.0,0.0
1174,74.0,0.0,90.0,2.0,0.0
1175,71.0,0.0,90.0,8.0,0.0
1176,44.0,0.0,90.0,12.0,0.0
1177,71.0,0.0,90.0,3.0,0.0
1178,56.0,0.0,90.0,5.0,0.0
1179,64.0,6.0,180.0,14.0,0.0
1180,76.0,12.0,15.0,6.0,0.0
1181,76.0,0.0,15.0,7.0,0.0
1182,64.0,10.0,90.0,1.0,0.0
1183,71.0,0.0,90.0,13.0,0.0
1184,64.0,0.0,90.0,0.0,0.0
1185,76.0,0.0,90.0,13.0,0.0
1186,56.0,0.0,90.0,13.0,0.0
1187,71.0,0.0,90.0,4.0,0.0
1188,74.0,12.0,15.0,7.0,0.0
1189,74.0,0.0,15.0,6.0,0.0
1190,76.0,12.0,15.0,6.0,0.0
1191,76.0,0.0,15.0,7.0,0.0
1192,74.0,0.0,15.0,7.0,0.0
1193,74.0,12.0,15.0,6.0,0.0
1194,76.0,0.0,15.0,6.0,0.0
1195,76.0,12.0,15.0,7.0,0.0
1196,74.0,0.0,15.0,6.0,0.0
1197,74.0,12.0,15.0,7.0,0.0
1198,76.0,0.0,15.0,6.0,0.0
1199,76.0,2.0,15.0,7.0,0.0
1200,74.0,0.0,15.0,7.0,0.0
1201,74.0,44.0,15.0,6.0,0.0
1202,69.0,0.0,90.0,8.0,0.0
1203,57.0,0.0,40.0,11.0,0.0
1204,57.0,0.0,40.0,5.0,0.0
1205,73.0,0.0,40.0,2.0,0.0
1206,64.0,0.0,40.0,0.0,0.0
1207,45.0,0.0,40.0,12.0,0.0
1208,69.0,0.0,90.0,3.0,0.0
1209,64.0,0.0,90.0,4.0,0.0
1210,73.0,42.0,40.0,7.0,0.0
1211,57.0,0.0,40.0,13.0,0.0
1212,73.0,0.0,90.0,13.0,0.0
1213,64.0,0.0,90.0,13.0,0.0
1214,73.0,0.0,40.0,6.0,0.0
1215,44.0,0.0,40.0,12.0,0.0
1216,71.0,0.0,40.0,2.0,0.0
1217,64.0,0.0,40.0,0.0,0.0
1218,71.0,48.0,40.0,7.0,0.0
1219,56.0,0.0,40.0,11.0,0.0
1220,56.0,0.0,40.0,5.0,0.0
1221,71.0,0.0,40.0,6.0,0.0
1222,56.0,0.0,40.0,13.0,0.0
1223,76.0,0.0,90.0,2.0,0.0
1224,54.0,0.0,40.0,11.0,0.0
1225,64.0,0.0,40.0,0.0,0.0
1226,68.0,0.0,90.0,3.0,0.0
1227,64.0,0.0,90.0,14.0,0.0
1228,76.0,0.0,90.0,13.0,0.0
1229,68.0,0.0,90.0,13.0,0.0
1230,68.0,0.0,90.0,8.0,0.0
1231,54.0,0.0,40.0,13.0,0.0
1232,54.0,42.0,40.0,5.0,0.0
1233,64.0,6.0,90.0,4.0,0.0
1234,42.0,0.0,40.0,12.0,0.0
1235,76.0,0.0,90.0,6.0,0.0
1236,76.0,0.0,90.0,7.0,0.0
1237,64.0,0.0,40.0,0.0,0.0
1238,52.0,0.0,40.0,11.0,0.0
1239,40.0,0.0,40.0,12.0,0.0
1240,52.0,0.0,40.0,13.0,0.0
1241,52.0,16.0,40.0,5.0,0.0
1242,45.0,0.0,90.0,12.0,0.0
1243,74.0,12.0,15.0,7.0,0.0
1244,64.0,0.0,90.0,13.0,0.0
1245,69.0,0.0,180.0,3.0,0.0
1246,73.0,0.0,90.0,13.0,0.0
1247,74.0,0.0,15.0,6.0,0.0
1248,73.0,6.0,180.0,2.0,0.0
1249,64.0,10.0,90.0,0.0,0.0
1250,57.0,0.0,90.0,11.0,0.0
1251,64.0,0.0,180.0,4.0,0.0
1252,57.0,0.0,90.0,13.0,0.0
1253,69.0,0.0,180.0,8.0,0.0
1254,64.0,0.0,180.0,14.0,0.0
1255,64.0,0.0,90.0,1.0,0.0
1256,57.0,0.0,90.0,5.0,0.0
1257,73.0,0.0,15.0,6.0,0.0
1258,73.0,12.0,15.0,7.0,0.0
1259,74.0,0.0,15.0,6.0,0.0
1260,74.0,12.0,15.0,7.0,0.0
1261,73.0,12.0,15.0,6.0,0.0
1262,73.0,0.0,15.0,7.0,0.0
1263,74.0,0.0,15.0,7.0,0.0
1264,74.0,12.0,15.0,6.0,0.0
1265,73.0,0.0,15.0,6.0,0.0
1266,73.0,12.0,15.0,7.0,0.0
1267,74.0,0.0,15.0,6.0,0.0
1268,74.0,2.0,15.0,7.0,0.0
1269,73.0,0.0,15.0,7.0,0.0
1270,73.0,12.0,15.0,6.0,0.0
1271,56.0,0.0,40.0,5.0,0.0
1272,44.0,0.0,40.0,12.0,0.0
1273,64.0,4.0,40.0,1.0,0.0
1274,56.0,0.0,40.0,11.0,0.0
1275,74.0,0.0,15.0,7.0,0.0
1276,56.0,0.0,40.0,13.0,0.0
1277,76.0,0.0,90.0,13.0,0.0
1278,74.0,12.0,15.0,6.0,0.0
1279,73.0,0.0,90.0,13.0,0.0
1280,73.0,12.0,15.0,6.0,0.0
1281,73.0,0.0,15.0,7.0,0.0
1282,74.0,0.0,15.0,7.0,0.0
1283,74.0,8.0,15.0,6.0,0.0
1284,73.0,12.0,15.0,7.0,0.0
1285,73.0,0.0,15.0,6.0,0.0
1286,74.0,0.0,15.0,7.0,0.0
1287,54.0,0.0,40.0,13.0,0.0
1288,54.0,0.0,40.0,5.0,0.0
1289,42.0,4.0,40.0,12.0,0.0
1290,74.0,12.0,15.0,6.0,0.0
1291,64.0,0.0,40.0,1.0,0.0
1292,54.0,0.0,40.0,11.0,0.0
1293,73.0,0.0,15.0,7.0,0.0
1294,73.0,12.0,15.0,6.0,0.0
1295,74.0,0.0,15.0,7.0,0.0
1296,74.0,2.0,15.0,6.0,0.0
1297,73.0,44.0,15.0,6.0,0.0
1298,73.0,0.0,15.0,7.0,0.0
1299,76.0,0.0,90.0,13.0,0.0
1300,56.0,0.0,90.0,13.0,0.0
1301,71.0,0.0,90.0,7.0,0.0
1302,64.0,0.0,90.0,14.0,0.0
1303,56.0,0.0,90.0,11.0,0.0
1304,71.0,0.0,90.0,13.0,0.0
1305,64.0,42.0,40.0,1.0,0.0
1306,71.0,0.0,90.0,8.0,0.0
1307,44.0,0.0,90.0,12.0,0.0
1308,71.0,0.0,90.0,6.0,0.0
1309,64.0,6.0,90.0,4.0,0.0
1310,71.0,0.0,90.0,2.0,0.0
1311,71.0,0.0,90.0,3.0,0.0
1312,56.0,0.0,90.0,5.0,0.0
1313,64.0,16.0,40.0,1.0,0.0
1314,69.0,6.0,90.0,13.0,0.0
1315,75.0,0.0,90.0,13.0,0.0
1316,69.0,0.0,90.0,3.0,0.0
1317,75.0,0.0,40.0,2.0,0.0
1318,69.0,0.0,90.0,8.0,0.0
1319,54.0,0.0,90.0,11.0,0.0
1320,68.0,12.0,15.0,14.0,0.0
1321,54.0,0.0,90.0,13.0,0.0
1322,42.0,0.0,90.0,12.0,0.0
1323,66.0,0.0,90.0,4.0,0.0
1324,71.0,0.0,90.0,0.0,0.0
1325,75.0,4.0,40.0,6.0,0.0
1326,71.0,0.0,90.0,1.0,0.0
1327,54.0,0.0,90.0,5.0,0.0
1328,75.0,0.0,40.0,7.0,0.0
1329,66.0,12.0,15.0,14.0,0.0
1330,68.0,8.0,15.0,14.0,0.0
1331,66.0,12.0,15.0,14.0,0.0
1332,76.0,0.0,40.0,6.0,0.0
1333,76.0,4.0,40.0,2.0,0.0
1334,76.0,0.0,40.0,7.0,0.0
1335,68.0,12.0,15.0,14.0,0.0
1336,66.0,12.0,15.0,14.0,0.0
1337,68.0,2.0,15.0,14.0,0.0
1338,66.0,12.0,15.0,14.0,0.0
1339,71.0,6.0,180.0,3.0,0.0
1340,64.0,0.0,40.0,4.0,0.0
1341,78.0,0.0,15.0,6.0,0.0
1342,56.0,6.0,90.0,11.0,0.0
1343,71.0,0.0,40.0,0.0,0.0
1344,64.0,4.0,40.0,14.0,0.0
1345,56.0,0.0,90.0,13.0,0.0
1346,78.0,12.0,15.0,2.0,0.0
1347,76.0,0.0,90.0,13.0,0.0
1348,71.0,0.0,90.0,13.0,0.0
1349,44.0,0.0,90.0,12.0,0.0
1350,71.0,0.0,180.0,8.0,0.0
1351,78.0,0.0,15.0,7.0,0.0
1352,56.0,0.0,90.0,5.0,0.0
1353,76.0,12.0,15.0,7.0,0.0
1354,76.0,0.0,15.0,2.0,0.0
1355,76.0,0.0,15.0,6.0,0.0
1356,78.0,0.0,15.0,2.0,0.0
1357,78.0,8.0,15.0,7.0,0.0
1358,78.0,0.0,15.0,6.0,0.0
1359,76.0,0.0,15.0,2.0,0.0
1360,76.0,0.0,15.0,6.0,0.0
1361,76.0,12.0,15.0,7.0,0.0
1362,78.0,0.0,15.0,6.0,0.0
1363,78.0,12.0,15.0,2.0,0.0
1364,66.0,4.0,40.0,14.0,0.0
1365,66.0,0.0,40.0,4.0,0.0
1366,71.0,0.0,40.0,0.0,0.0
1367,78.0,0.0,15.0,7.0,0.0
1368,76.0,12.0,15.0,2.0,0.0
1369,76.0,0.0,15.0,7.0,0.0
1370,76.0,0.0,15.0,6.0,0.0
1371,78.0,2.0,15.0,2.0,0.0
1372,78.0,0.0,15.0,6.0,0.0
1373,78.0,0.0,15.0,7.0,0.0
1374,76.0,0.0,15.0,2.0,0.0
1375,76.0,0.0,15.0,6.0,0.0
1376,76.0,12.0,15.0,7.0,0.0
1377,40.0,0.0,90.0,12.0,0.0
1378,78.0,12.0,15.0,2.0,0.0
1379,52.0,0.0,90.0,11.0,0.0
1380,52.0,0.0,90.0,5.0,0.0
1381,78.0,0.0,15.0,6.0,0.0
1382,71.0,4.0,40.0,0.0,0.0
1383,78.0,0.0,15.0,7.0,0.0
1384,68.0,0.0,90.0,14.0,0.0
1385,52.0,0.0,90.0,13.0,0.0
1386,80.0,0.0,90.0,13.0,0.0
1387,71.0,0.0,90.0,13.0,0.0
1388,68.0,0.0,90.0,4.0,0.0
1389,76.0,12.0,15.0,2.0,0.0
1390,76.0,0.0,15.0,6.0,0.0
1391,76.0,0.0,15.0,7.0,0.0
1392,78.0,0.0,15.0,6.0,0.0
1393,78.0,8.0,15.0,7.0,0.0
1394,78.0,0.0,15.0,2.0,0.0
1395,76.0,0.0,15.0,2.0,0.0
1396,76.0,23.0,15.0,7.0,0.0
1397,76.0,0.0,15.0,6.0,0.0
1398,75.0,0.0,20.0,6.0,0.0
1399,71.0,3.0,40.0,0.0,0.0
1400,75.0,0.0,20.0,2.0,0.0
1401,75.0,15.0,20.0,7.0,0.0
1402,76.0,0.0,20.0,6.0,0.0
1403,76.0,87.0,20.0,2.0,0.0
1404,76.0,0.0,20.0,7.0,0.0
1405,78.0,0.0,90.0,2.0,0.0
1406,78.0,0.0,90.0,6.0,0.0
1407,66.0,6.0,180.0,14.0,0.0
1408,71.0,0.0,180.0,3.0,0.0
1409,66.0,0.0,180.0,4.0,0.0
1410,51.0,54.0,90.0,13.0,0.0
1411,71.0,0.0,90.0,13.0,0.0
1412,71.0,0.0,90.0,1.0,0.0
1413,71.0,0.0,90.0,0.0,0.0
1414,39.0,0.0,90.0,12.0,0.0
1415,51.0,0.0,90.0,11.0,0.0
1416,78.0,0.0,90.0,7.0,0.0
1417,51.0,0.0,90.0,5.0,0.0
1418,71.0,0.0,180.0,8.0,0.0
1419,78.0,0.0,90.0,13.0,0.0
1420,49.0,0.0,40.0,5.0,0.0
1421,49.0,0.0,40.0,13.0,0.0
1422,71.0,0.0,90.0,13.0,0.0
1423,37.0,0.0,40.0,12.0,0.0
1424,76.0,0.0,90.0,13.0,0.0
1425,76.0,0.0,40.0,7.0,0.0
1426,71.0,0.0,40.0,1.0,0.0
1427,49.0,0.0,40.0,11.0,0.0
1428,76.0,0.0,40.0,6.0,0.0
1429,76.0,42.0,40.0,2.0,0.0
1430,47.0,0.0,40.0,11.0,0.0
1431,47.0,0.0,40.0,13.0,0.0
1432,35.0,0.0,40.0,12.0,0.0
1433,71.0,48.0,40.0,1.0,0.0
1434,75.0,0.0,40.0,6.0,0.0
1435,75.0,0.0,40.0,2.0,0.0
1436,47.0,0.0,40.0,5.0,0.0
1437,75.0,0.0,40.0,7.0,0.0
1438,45.0,42.0,40.0,11.0,0.0
1439,71.0,0.0,90.0,3.0,0.0
1440,76.0,0.0,90.0,2.0,0.0
1441,71.0,0.0,40.0,1.0,0.0
1442,76.0,0.0,90.0,6.0,0.0
1443,45.0,0.0,40.0,5.0,0.0
1444,71.0,0.0,90.0,8.0,0.0
1445,68.0,0.0,90.0,4.0,0.0
1446,76.0,0.0,90.0,7.0,0.0
1447,71.0,0.0,90.0,13.0,0.0
1448,76.0,0.0,90.0,13.0,0.0
1449,45.0,0.0,40.0,13.0,0.0
1450,68.0,6.0,90.0,14.0,0.0
1451,33.0,0.0,40.0,12.0,0.0
1452,71.0,0.0,40.0,1.0,0.0
1453,44.0,0.0,40.0,13.0,0.0
1454,44.0,0.0,40.0,11.0,0.0
1455,44.0,48.0,40.0,5.0,0.0
1456,32.0,0.0,40.0,12.0,0.0
1457,73.0,0.0,40.0,3.0,0.0
1458,49.0,0.0,40.0,5.0,0.0
1459,81.0,0.0,40.0,2.0,0.0
1460,49.0,0.0,40.0,11.0,0.0
1461,81.0,42.0,40.0,6.0,0.0
1462,73.0,0.0,40.0,8.0,0.0
1463,69.0,0.0,90.0,13.0,0.0
1464,76.0,0.0,90.0,13.0,0.0
1465,49.0,0.0,40.0,13.0,0.0
1466,73.0,0.0,90.0,1.0,0.0
1467,64.0,6.0,90.0,14.0,0.0
1468,76.0,0.0,40.0,0.0,0.0
1469,81.0,0.0,40.0,7.0,0.0
1470,37.0,0.0,40.0,12.0,0.0
1471,64.0,0.0,90.0,4.0,0.0
1472,75.0,0.0,40.0,8.0,0.0
1473,83.0,0.0,40.0,7.0,0.0
1474,75.0,0.0,40.0,3.0,0.0
1475,45.0,0.0,40.0,11.0,0.0
1476,75.0,0.0,40.0,0.0,0.0
1477,83.0,0.0,40.0,6.0,0.0
1478,45.0,16.0,40.0,13.0,0.0
1479,83.0,0.0,40.0,2.0,0.0
1480,33.0,0.0,40.0,12.0,0.0
1481,45.0,0.0,40.0,5.0,0.0
1482,78.0,0.0,120.0,2.0,0.0
1483,75.0,0.0,120.0,8.0,0.0
1484,75.0,0.0,120.0,0.0,0.0
1485,35.0,0.0,90.0,12.0,0.0
1486,47.0,0.0,90.0,11.0,0.0
1487,47.0,6.0,90.0,5.0,0.0
1488,78.0,6.0,120.0,7.0,0.0
1489,74.0,0.0,90.0,13.0,0.0
1490,76.0,12.0,15.0,3.0,0.0
1491,78.0,0.0,120.0,6.0,0.0
1492,71.0,0.0,90.0,4.0,0.0
1493,47.0,0.0,90.0,13.0,0.0
1494,71.0,4.0,40.0,1.0,0.0
1495,66.0,0.0,90.0,13.0,0.0
1496,71.0,0.0,90.0,14.0,0.0
1497,75.0,12.0,15.0,3.0,0.0
1498,76.0,8.0,15.0,3.0,0.0
1499,75.0,12.0,15.0,3.0,0.0
1500,71.0,4.0,40.0,1.0,0.0
1501,76.0,12.0,15.0,3.0,0.0
1502,75.0,12.0,15.0,3.0,0.0
1503,76.0,2.0,15.0,3.0,0.0
1504,75.0,12.0,15.0,3.0,0.0
1505,74.0,0.0,90.0,13.0,0.0
1506,47.0,0.0,90.0,11.0,0.0
1507,76.0,12.0,15.0,3.0,0.0
1508,69.0,0.0,90.0,13.0,0.0
1509,47.0,0.0,90.0,5.0,0.0
1510,35.0,6.0,90.0,12.0,0.0
1511,47.0,0.0,90.0,13.0,0.0
1512,69.0,0.0,90.0,4.0,0.0
1513,69.0,0.0,90.0,14.0,0.0
1514,71.0,4.0,40.0,1.0,0.0
1515,75.0,12.0,15.0,3.0,0.0
1516,76.0,2.0,15.0,3.0,0.0
1517,75.0,38.0,15.0,3.0,0.0
1518,76.0,0.0,40.0,0.0,0.0
1519,76.0,0.0,40.0,6.0,0.0
1520,71.0,0.0,40.0,8.0,0.0
1521,71.0,0.0,40.0,3.0,0.0
1522,71.0,90.0,40.0,1.0,0.0
1523,76.0,0.0,40.0,7.0,0.0
1524,76.0,0.0,40.0,2.0,0.0
1525,76.0,0.0,270.0,2.0,0.0
1526,71.0,0.0,270.0,8.0,0.0
1527,28.0,0.0,90.0,12.0,0.0
1528,40.0,0.0,90.0,11.0,0.0
1529,40.0,96.0,90.0,5.0,0.0
1530,68.0,96.0,270.0,14.0,0.0
1531,71.0,0.0,270.0,13.0,0.0
1532,68.0,0.0,270.0,4.0,0.0
1533,80.0,0.0,270.0,13.0,0.0
1534,40.0,0.0,90.0,13.0,0.0
1535,76.0,0.0,270.0,0.0,0.0
1536,76.0,0.0,270.0,7.0,0.0
1537,76.0,0.0,270.0,6.0,0.0
1538,71.0,0.0,270.0,1.0,0.0
1539,71.0,0.0,270.0,3.0,0.0
1540,52.0,0.0,90.0,11.0,0.0
1541,52.0,96.0,90.0,13.0,0.0
1542,40.0,0.0,90.0,12.0,0.0
1543,52.0,0.0,90.0,5.0,0.0
1544,54.0,0.0,90.0,5.0,0.0
1545,54.0,0.0,90.0,11.0,0.0
1546,42.0,0.0,90.0,12.0,0.0
1547,54.0,0.0,90.0,13.0,0.0
1548,76.0,0.0,90.0,3.0,0.0
1549,71.0,6.0,180.0,4.0,0.0
1550,71.0,0.0,180.0,14.0,0.0
1551,83.0,0.0,90.0,6.0,0.0
1552,56.0,0.0,180.0,11.0,0.0
1553,56.0,0.0,180.0,5.0,0.0
1554,83.0,0.0,90.0,2.0,0.0
1555,64.0,54.0,90.0,0.0,0.0
1556,56.0,0.0,180.0,13.0,0.0
1557,76.0,0.0,90.0,13.0,0.0
1558,71.0,0.0,90.0,13.0,0.0
1559,83.0,0.0,90.0,7.0,0.0
1560,76.0,0.0,90.0,8.0,0.0
1561,44.0,0.0,180.0,12.0,0.0
1562,74.0,0.0,90.0,13.0,0.0
1563,86.0,0.0,90.0,2.0,0.0
1564,71.0,0.0,90.0,13.0,0.0
1565,83.0,0.0,90.0,8.0,0.0
1566,83.0,0.0,90.0,3.0,0.0
1567,64.0,42.0,40.0,0.0,0.0
1568,86.0,0.0,90.0,6.0,0.0
1569,86.0,0.0,90.0,7.0,0.0
1570,64.0,48.0,40.0,0.0,0.0
1571,73.0,0.0,90.0,13.0,0.0
1572,85.0,0.0,90.0,7.0,0.0
1573,45.0,0.0,90.0,12.0,0.0
1574,85.0,6.0,90.0,2.0,0.0
1575,76.0,0.0,90.0,4.0,0.0
1576,64.0,0.0,90.0,13.0,0.0
1577,57.0,0.0,90.0,5.0,0.0
1578,57.0,0.0,90.0,13.0,0.0
1579,81.0,0.0,90.0,8.0,0.0
1580,85.0,0.0,90.0,6.0,0.0
1581,57.0,0.0,90.0,11.0,0.0
1582,76.0,0.0,90.0,14.0,0.0
1583,64.0,42.0,40.0,0.0,0.0
1584,81.0,0.0,90.0,3.0,0.0
1585,64.0,16.0,40.0,0.0,0.0
1586,59.0,0.0,90.0,5.0,0.0
1587,76.0,0.0,15.0,14.0,0.0
1588,64.0,0.0,90.0,1.0,0.0
1589,85.0,12.0,15.0,6.0,0.0
1590,68.0,0.0,90.0,13.0,0.0
1591,80.0,0.0,90.0,8.0,0.0
1592,83.0,0.0,90.0,7.0,0.0
1593,83.0,0.0,90.0,2.0,0.0
1594,64.0,0.0,90.0,0.0,0.0
1595,59.0,0.0,90.0,13.0,0.0
1596,74.0,0.0,90.0,13.0,0.0
1597,74.0,10.0,90.0,4.0,0.0
1598,59.0,0.0,90.0,11.0,0.0
1599,80.0,0.0,90.0,3.0,0.0
1600,47.0,0.0,90.0,12.0,0.0
1601,83.0,12.0,15.0,6.0,0.0
1602,74.0,0.0,15.0,14.0,0.0
1603,76.0,0.0,15.0,14.0,0.0
1604,85.0,12.0,15.0,6.0,0.0
1605,74.0,12.0,15.0,14.0,0.0
1606,83.0,0.0,15.0,6.0,0.0
1607,76.0,0.0,15.0,14.0,0.0
1608,85.0,12.0,15.0,6.0,0.0
1609,74.0,12.0,15.0,14.0,0.0
1610,83.0,0.0,15.0,6.0,0.0
1611,76.0,0.0,15.0,14.0,0.0
1612,85.0,2.0,15.0,6.0,0.0
1613,83.0,44.0,15.0,6.0,0.0
1614,74.0,0.0,15.0,14.0,0.0
1615,64.0,42.0,40.0,1.0,0.0
1616,68.0,0.0,90.0,13.0,0.0
1617,76.0,0.0,90.0,13.0,0.0
1618,62.0,6.0,90.0,13.0,0.0
1619,76.0,0.0,90.0,8.0,0.0
1620,81.0,0.0,40.0,7.0,0.0
1621,50.0,0.0,90.0,12.0,0.0
1622,81.0,0.0,40.0,2.0,0.0
1623,62.0,0.0,90.0,11.0,0.0
1624,73.0,0.0,40.0,4.0,0.0
1625,73.0,0.0,40.0,14.0,0.0
1626,76.0,0.0,90.0,3.0,0.0
1627,62.0,0.0,90.0,5.0,0.0
1628,81.0,0.0,40.0,6.0,0.0
1629,64.0,0.0,40.0,1.0,0.0
1630,80.0,0.0,40.0,2.0,0.0
1631,80.0,0.0,40.0,6.0,0.0
1632,80.0,0.0,40.0,7.0,0.0
1633,71.0,0.0,40.0,4.0,0.0
1634,71.0,48.0,40.0,14.0,0.0
1635,61.0,0.0,90.0,13.0,0.0
1636,81.0,0.0,90.0,2.0,0.0
1637,49.0,0.0,90.0,12.0,0.0
1638,64.0,42.0,40.0,1.0,0.0
1639,61.0,6.0,90.0,11.0,0.0
1640,76.0,0.0,90.0,3.0,0.0
1641,73.0,0.0,90.0,14.0,0.0
1642,69.0,0.0,90.0,13.0,0.0
1643,76.0,0.0,90.0,13.0,0.0
1644,73.0,0.0,90.0,4.0,0.0
1645,81.0,0.0,90.0,7.0,0.0
1646,81.0,0.0,90.0,6.0,0.0
1647,76.0,0.0,90.0,8.0,0.0
1648,61.0,0.0,90.0,5.0,0.0
1649,64.0,90.0,40.0,1.0,0.0
1650,83.0,0.0,90.0,2.0,0.0
1651,64.0,0.0,90.0,0.0,0.0
1652,83.0,0.0,90.0,7.0,0.0
1653,83.0,0.0,90.0,6.0,0.0
1654,59.0,0.0,90.0,11.0,0.0
1655,74.0,0.0,90.0,4.0,0.0
1656,59.0,0.0,90.0,13.0,0.0
1657,74.0,0.0,90.0,13.0,0.0
1658,68.0,0.0,90.0,13.0,0.0
1659,59.0,0.0,90.0,5.0,0.0
1660,80.0,0.0,90.0,8.0,0.0
1661,47.0,0.0,90.0,12.0,0.0
1662,64.0,0.0,90.0,1.0,0.0
1663,74.0,54.0,90.0,14.0,0.0
1664,80.0,0.0,90.0,3.0,0.0
1665,71.0,0.0,90.0,14.0,0.0
1666,71.0,0.0,90.0,4.0,0.0
1667,45.0,0.0,40.0,12.0,0.0
1668,83.0,0.0,90.0,8.0,0.0
1669,57.0,0.0,40.0,13.0,0.0
1670,74.0,0.0,90.0,13.0,0.0
1671,86.0,6.0,90.0,2.0,0.0
1672,66.0,0.0,90.0,13.0,0.0
1673,83.0,0.0,90.0,3.0,0.0
1674,86.0,0.0,90.0,6.0,0.0
1675,57.0,0.0,40.0,11.0,0.0
1676,86.0,0.0,90.0,7.0,0.0
1677,64.0,42.0,40.0,0.0,0.0
1678,57.0,0.0,40.0,5.0,0.0
1679,56.0,0.0,40.0,11.0,0.0
1680,64.0,48.0,40.0,0.0,0.0
1681,44.0,0.0,40.0,12.0,0.0
1682,56.0,0.0,40.0,13.0,0.0
1683,56.0,0.0,40.0,5.0,0.0
1684,73.0,0.0,90.0,13.0,0.0
1685,76.0,6.0,90.0,14.0,0.0
1686,85.0,0.0,90.0,7.0,0.0
1687,85.0,0.0,90.0,2.0,0.0
1688,45.0,0.0,90.0,12.0,0.0
1689,57.0,0.0,90.0,5.0,0.0
1690,64.0,42.0,40.0,0.0,0.0
1691,64.0,0.0,90.0,13.0,0.0
1692,57.0,0.0,90.0,13.0,0.0
1693,57.0,0.0,90.0,11.0,0.0
1694,81.0,0.0,90.0,8.0,0.0
1695,81.0,0.0,90.0,3.0,0.0
1696,85.0,0.0,90.0,6.0,0.0
1697,76.0,0.0,90.0,4.0,0.0
1698,64.0,16.0,40.0,0.0,0.0
1699,76.0,0.0,180.0,4.0,0.0
1700,56.0,0.0,90.0,5.0,0.0
1701,64.0,0.0,90.0,1.0,0.0
1702,85.0,12.0,15.0,7.0,0.0
1703,44.0,0.0,90.0,12.0,0.0
1704,64.0,0.0,90.0,0.0,0.0
1705,83.0,10.0,90.0,3.0,0.0
1706,64.0,0.0,90.0,13.0,0.0
1707,71.0,0.0,90.0,13.0,0.0
1708,56.0,0.0,90.0,13.0,0.0
1709,83.0,0.0,90.0,8.0,0.0
1710,85.0,0.0,15.0,2.0,0.0
1711,56.0,0.0,90.0,11.0,0.0
1712,76.0,0.0,180.0,14.0,0.0
1713,85.0,0.0,15.0,6.0,0.0
1714,83.0,0.0,15.0,2.0,0.0
1715,83.0,0.0,15.0,7.0,0.0
1716,83.0,12.0,15.0,6.0,0.0
1717,85.0,0.0,15.0,7.0,0.0
1718,85.0,12.0,15.0,6.0,0.0
1719,85.0,0.0,15.0,2.0,0.0
1720,83.0,0.0,15.0,7.0,0.0
1721,83.0,0.0,15.0,2.0,0.0
1722,83.0,12.0,15.0,6.0,0.0
1723,85.0,12.0,15.0,7.0,0.0
1724,85.0,0.0,15.0,2.0,0.0
1725,85.0,0.0,15.0,6.0,0.0
1726,83.0,0.0,15.0,2.0,0.0
1727,83.0,12.0,15.0,6.0,0.0
1728,83.0,0.0,15.0,7.0,0.0
1729,85.0,0.0,15.0,2.0,0.0
1730,85.0,0.0,15.0,7.0,0.0
1731,85.0,2.0,15.0,6.0,0.0
1732,83.0,0.0,15.0,6.0,0.0
1733,83.0,12.0,15.0,2.0,0.0
1734,83.0,0.0,15.0,7.0,0.0
1735,81.0,0.0,90.0,3.0,0.0
1736,57.0,4.0,40.0,13.0,0.0
1737,76.0,6.0,90.0,13.0,0.0
1738,69.0,0.0,90.0,13.0,0.0
1739,81.0,0.0,90.0,8.0,0.0
1740,85.0,12.0,15.0,7.0,0.0
1741,85.0,0.0,15.0,6.0,0.0
1742,85.0,0.0,15.0,2.0,0.0
1743,57.0,0.0,40.0,11.0,0.0
1744,64.0,0.0,40.0,1.0,0.0
1745,45.0,0.0,40.0,12.0,0.0
1746,57.0,0.0,40.0,5.0,0.0
1747,83.0,0.0,15.0,7.0,0.0
1748,83.0,0.0,15.0,2.0,0.0
1749,83.0,12.0,15.0,6.0,0.0
1750,85.0,8.0,15.0,2.0,0.0
1751,85.0,0.0,15.0,6.0,0.0
1752,85.0,0.0,15.0,7.0,0.0
1753,83.0,0.0,15.0,2.0,0.0
1754,83.0,12.0,15.0,6.0,0.0
1755,83.0,0.0,15.0,7.0,0.0
1756,56.0,0.0,40.0,13.0,0.0
1757,85.0,12.0,15.0,7.0,0.0
1758,56.0,0.0,40.0,11.0,0.0
1759,56.0,0.0,40.0,5.0,0.0
1760,85.0,0.0,15.0,2.0,0.0
1761,44.0,4.0,40.0,12.0,0.0
1762,85.0,0.0,15.0,6.0,0.0
1763,64.0,0.0,40.0,1.0,0.0
1764,83.0,12.0,15.0,6.0,0.0
1765,83.0,0.0,15.0,7.0,0.0
1766,83.0,0.0,15.0,2.0,0.0
1767,85.0,0.0,15.0,7.0,0.0
1768,85.0,0.0,15.0,6.0,0.0
1769,85.0,2.0,15.0,2.0,0.0
1770,83.0,0.0,15.0,6.0,0.0
1771,83.0,44.0,15.0,7.0,0.0
1772,83.0,0.0,15.0,2.0,0.0
1773,71.0,0.0,90.0,13.0,0.0
1774,80.0,0.0,90.0,13.0,0.0
1775,54.0,0.0,40.0,13.0,0.0
1776,54.0,42.0,40.0,5.0,0.0
1777,88.0,0.0,90.0,7.0,0.0
1778,80.0,0.0,90.0,3.0,0.0
1779,88.0,0.0,90.0,2.0,0.0
1780,80.0,0.0,90.0,8.0,0.0
1781,88.0,6.0,90.0,6.0,0.0
1782,42.0,0.0,40.0,12.0,0.0
1783,71.0,0.0,90.0,4.0,0.0
1784,64.0,0.0,40.0,1.0,0.0
1785,54.0,0.0,40.0,11.0,0.0
1786,71.0,0.0,90.0,14.0,0.0
1787,64.0,0.0,40.0,1.0,0.0
1788,52.0,0.0,40.0,13.0,0.0
1789,52.0,16.0,40.0,5.0,0.0
1790,40.0,0.0,40.0,12.0,0.0
1791,52.0,0.0,40.0,11.0,0.0
1792,71.0,0.0,180.0,4.0,0.0
1793,40.0,11.0,15.0,12.0,0.0
1794,71.0,0.0,90.0,1.0,0.0
1795,71.0,0.0,90.0,0.0,0.0
1796,78.0,0.0,180.0,8.0,0.0
1797,81.0,0.0,90.0,6.0,0.0
1798,81.0,0.0,90.0,7.0,0.0
1799,52.0,0.0,15.0,11.0,0.0
1800,52.0,0.0,15.0,13.0,0.0
1801,71.0,0.0,180.0,14.0,0.0
1802,78.0,0.0,180.0,3.0,0.0
1803,52.0,1.0,20.0,5.0,0.0
1804,71.0,0.0,90.0,13.0,0.0
1805,78.0,0.0,90.0,13.0,0.0
1806,81.0,9.0,90.0,2.0,0.0
1807,51.0,12.0,15.0,11.0,0.0
1808,39.0,0.0,15.0,12.0,0.0
1809,51.0,0.0,15.0,13.0,0.0
1810,52.0,11.0,15.0,13.0,0.0
1811,51.0,1.0,20.0,5.0,0.0
1812,52.0,0.0,15.0,11.0,0.0
1813,40.0,0.0,15.0,12.0,0.0
1814,51.0,0.0,15.0,13.0,0.0
1815,39.0,0.0,15.0,12.0,0.0
1816,51.0,12.0,15.0,11.0,0.0
1817,52.0,0.0,15.0,11.0,0.0
1818,52.0,1.0,20.0,5.0,0.0
1819,52.0,11.0,15.0,13.0,0.0
1820,40.0,0.0,15.0,12.0,0.0
1821,51.0,0.0,15.0,13.0,0.0
1822,39.0,12.0,15.0,12.0,0.0
1823,51.0,0.0,15.0,11.0,0.0
1824,51.0,1.0,20.0,5.0,0.0
1825,40.0,0.0,15.0,12.0,0.0
1826,52.0,2.0,15.0,11.0,0.0
1827,52.0,0.0,15.0,13.0,0.0
1828,51.0,0.0,15.0,11.0,0.0
1829,39.0,0.0,15.0,12.0,0.0
1830,51.0,12.0,15.0,13.0,0.0
1831,71.0,3.0,40.0,0.0,0.0
1832,75.0,6.0,90.0,13.0,0.0
1833,52.0,0.0,15.0,13.0,0.0
1834,52.0,11.0,15.0,11.0,0.0
1835,40.0,0.0,15.0,12.0,0.0
1836,78.0,0.0,90.0,7.0,0.0
1837,66.0,0.0,90.0,13.0,0.0
1838,78.0,0.0,90.0,2.0,0.0
1839,78.0,0.0,90.0,6.0,0.0
1840,52.0,1.0,20.0,5.0,0.0
1841,51.0,12.0,15.0,13.0,0.0
1842,39.0,0.0,15.0,12.0,0.0
1843,51.0,0.0,15.0,11.0,0.0
1844,52.0,0.0,15.0,11.0,0.0
1845,51.0,1.0,20.0,5.0,0.0
1846,40.0,0.0,15.0,12.0,0.0
1847,52.0,8.0,15.0,13.0,0.0
1848,51.0,12.0,15.0,11.0,0.0
1849,51.0,0.0,15.0,13.0,0.0
1850,39.0,0.0,15.0,12.0,0.0
1851,40.0,0.0,15.0,12.0,0.0
1852,52.0,1.0,20.0,5.0,0.0
1853,52.0,11.0,15.0,11.0,0.0
1854,52.0,0.0,15.0,13.0,0.0
1855,71.0,3.0,40.0,0.0,0.0
1856,39.0,12.0,15.0,12.0,0.0
1857,51.0,0.0,15.0,11.0,0.0
1858,51.0,0.0,15.0,13.0,0.0
1859,52.0,2.0,15.0,13.0,0.0
1860,40.0,0.0,15.0,12.0,0.0
1861,52.0,0.0,15.0,11.0,0.0
1862,51.0,1.0,20.0,5.0,0.0
1863,51.0,44.0,15.0,13.0,0.0
1864,39.0,0.0,15.0,12.0,0.0
1865,51.0,0.0,15.0,11.0,0.0
1866,76.0,0.0,90.0,8.0,0.0
1867,71.0,42.0,40.0,0.0,0.0
1868,80.0,0.0,90.0,2.0,0.0
1869,52.0,0.0,90.0,5.0,0.0
1870,80.0,0.0,90.0,7.0,0.0
1871,80.0,0.0,90.0,13.0,0.0
1872,52.0,0.0,90.0,13.0,0.0
1873,52.0,0.0,90.0,11.0,0.0
1874,40.0,0.0,90.0,12.0,0.0
1875,71.0,0.0,90.0,4.0,0.0
1876,76.0,0.0,90.0,3.0,0.0
1877,71.0,6.0,90.0,14.0,0.0
1878,80.0,0.0,90.0,6.0,0.0
1879,71.0,0.0,90.0,13.0,0.0
1880,71.0,48.0,40.0,0.0,0.0
1881,42.0,0.0,90.0,12.0,0.0
1882,81.0,0.0,90.0,13.0,0.0
1883,54.0,0.0,90.0,13.0,0.0
1884,71.0,0.0,90.0,1.0,0.0
1885,75.0,0.0,90.0,13.0,0.0
1886,54.0,0.0,90.0,11.0,0.0
1887,81.0,0.0,90.0,6.0,0.0
1888,75.0,0.0,40.0,3.0,0.0
1889,66.0,6.0,90.0,14.0,0.0
1890,54.0,0.0,90.0,5.0,0.0
1891,75.0,42.0,40.0,8.0,0.0
1892,81.0,0.0,90.0,2.0,0.0
1893,71.0,0.0,90.0,0.0,0.0
1894,81.0,0.0,90.0,7.0,0.0
1895,66.0,0.0,90.0,4.0,0.0
1896,76.0,0.0,40.0,3.0,0.0
1897,76.0,16.0,40.0,8.0,0.0
1898,71.0,0.0,40.0,1.0,0.0
1899,68.0,6.0,90.0,4.0,0.0
1900,80.0,0.0,90.0,13.0,0.0
1901,78.0,12.0,15.0,8.0,0.0
1902,40.0,0.0,40.0,12.0,0.0
1903,52.0,0.0,40.0,11.0,0.0
1904,52.0,0.0,40.0,5.0,0.0
1905,78.0,0.0,15.0,3.0,0.0
1906,85.0,0.0,180.0,7.0,0.0
1907,85.0,0.0,180.0,2.0,0.0
1908,73.0,0.0,90.0,13.0,0.0
1909,68.0,0.0,90.0,14.0,0.0
1910,52.0,4.0,40.0,13.0,0.0
1911,85.0,0.0,180.0,6.0,0.0
1912,76.0,0.0,15.0,3.0,0.0
1913,76.0,12.0,15.0,8.0,0.0
1914,78.0,0.0,15.0,3.0,0.0
1915,78.0,8.0,15.0,8.0,0.0
1916,76.0,12.0,15.0,8.0,0.0
1917,76.0,0.0,15.0,3.0,0.0
1918,51.0,4.0,40.0,5.0,0.0
1919,71.0,0.0,40.0,1.0,0.0
1920,51.0,0.0,40.0,11.0,0.0
1921,39.0,0.0,40.0,12.0,0.0
1922,78.0,12.0,15.0,3.0,0.0
1923,51.0,0.0,40.0,13.0,0.0
1924,78.0,0.0,15.0,8.0,0.0
1925,76.0,0.0,15.0,3.0,0.0
1926,76.0,12.0,15.0,8.0,0.0
1927,78.0,0.0,15.0,3.0,0.0
1928,78.0,2.0,15.0,8.0,0.0
1929,76.0,12.0,15.0,3.0,0.0
1930,76.0,0.0,15.0,8.0,0.0
1931,78.0,12.0,15.0,3.0,0.0
1932,52.0,0.0,90.0,11.0,0.0
1933,64.0,0.0,90.0,4.0,0.0
1934,40.0,0.0,90.0,12.0,0.0
1935,71.0,4.0,40.0,1.0,0.0
1936,64.0,0.0,90.0,14.0,0.0
1937,73.0,6.0,90.0,13.0,0.0
1938,76.0,0.0,90.0,13.0,0.0
1939,52.0,0.0,90.0,13.0,0.0
1940,52.0,0.0,90.0,5.0,0.0
1941,78.0,0.0,15.0,8.0,0.0
1942,76.0,0.0,15.0,8.0,0.0
1943,76.0,12.0,15.0,3.0,0.0
1944,78.0,0.0,15.0,8.0,0.0
1945,78.0,8.0,15.0,3.0,0.0
1946,76.0,0.0,15.0,3.0,0.0
1947,76.0,23.0,15.0,8.0,0.0
1948,75.0,15.0,20.0,8.0,0.0
1949,71.0,3.0,40.0,1.0,0.0
1950,75.0,0.0,20.0,3.0,0.0
1951,76.0,0.0,20.0,3.0,0.0
1952,76.0,87.0,20.0,8.0,0.0
1953,81.0,0.0,90.0,6.0,0.0
1954,51.0,0.0,90.0,13.0,0.0
1955,71.0,0.0,180.0,4.0,0.0
1956,78.0,0.0,90.0,8.0,0.0
1957,71.0,0.0,180.0,14.0,0.0
1958,81.0,0.0,90.0,2.0,0.0
1959,71.0,0.0,90.0,1.0,0.0
1960,51.0,0.0,90.0,11.0,0.0
1961,51.0,0.0,90.0,5.0,0.0
1962,71.0,54.0,90.0,13.0,0.0
1963,71.0,0.0,90.0,0.0,0.0
1964,81.0,0.0,90.0,7.0,0.0
1965,78.0,0.0,90.0,13.0,0.0
1966,39.0,0.0,90.0,12.0,0.0
1967,78.0,0.0,90.0,3.0,0.0
1968,71.0,0.0,90.0,13.0,0.0
1969,80.0,6.0,90.0,13.0,0.0
1970,52.0,0.0,40.0,13.0,0.0
1971,52.0,42.0,40.0,11.0,0.0
1972,80.0,0.0,40.0,6.0,0.0
1973,76.0,0.0,90.0,3.0,0.0
1974,80.0,0.0,40.0,2.0,0.0
1975,76.0,0.0,90.0,8.0,0.0
1976,40.0,0.0,40.0,12.0,0.0
1977,52.0,0.0,40.0,5.0,0.0
1978,71.0,0.0,40.0,0.0,0.0
1979,80.0,0.0,40.0,7.0,0.0
1980,78.0,0.0,40.0,7.0,0.0
1981,78.0,0.0,40.0,2.0,0.0
1982,51.0,48.0,40.0,13.0,0.0
1983,78.0,0.0,40.0,6.0,0.0
1984,51.0,0.0,40.0,5.0,0.0
1985,39.0,0.0,40.0,12.0,0.0
1986,71.0,0.0,40.0,0.0,0.0
1987,51.0,0.0,40.0,11.0,0.0
1988,75.0,0.0,90.0,13.0,0.0
1989,83.0,0.0,90.0,7.0,0.0
1990,75.0,0.0,90.0,8.0,0.0
1991,83.0,0.0,90.0,6.0,0.0
1992,37.0,42.0,40.0,12.0,0.0
1993,49.0,0.0,40.0,5.0,0.0
1994,83.0,0.0,90.0,2.0,0.0
1995,66.0,6.0,90.0,13.0,0.0
1996,49.0,0.0,40.0,11.0,0.0
1997,71.0,0.0,90.0,4.0,0.0
1998,71.0,0.0,90.0,14.0,0.0
1999,75.0,0.0,90.0,3.0,0.0
2000,49.0,0.0,40.0,13.0,0.0
2001,71.0,0.0,40.0,0.0,0.0
2002,47.0,0.0,40.0,11.0,0.0
2003,35.0,0.0,40.0,12.0,0.0
2004,47.0,90.0,40.0,5.0,0.0
2005,47.0,0.0,40.0,13.0,0.0
2006,71.0,0.0,40.0,0.0,0.0
2007,71.0,0.0,90.0,0.0,0.0
2008,80.0,0.0,120.0,2.0,0.0
2009,71.0,0.0,270.0,14.0,0.0
2010,80.0,6.0,120.0,6.0,0.0
2011,76.0,0.0,270.0,3.0,0.0
2012,76.0,0.0,270.0,8.0,0.0
2013,71.0,6.0,270.0,4.0,0.0
2014,40.0,0.0,90.0,12.0,0.0
2015,71.0,0.0,90.0,1.0,0.0
2016,80.0,0.0,120.0,7.0,0.0
2017,52.0,0.0,90.0,13.0,0.0
2018,80.0,0.0,90.0,13.0,0.0
2019,71.0,0.0,90.0,13.0,0.0
2020,52.0,0.0,90.0,11.0,0.0
2021,52.0,48.0,90.0,5.0,0.0
2022,50.0,0.0,40.0,5.0,0.0
2023,69.0,6.0,90.0,13.0,0.0
2024,78.0,0.0,90.0,13.0,0.0
2025,71.0,0.0,40.0,1.0,0.0
2026,50.0,0.0,40.0,13.0,0.0
2027,38.0,0.0,40.0,12.0,0.0
2028,50.0,42.0,40.0,11.0,0.0
2029,49.0,0.0,40.0,11.0,0.0
2030,49.0,0.0,40.0,5.0,0.0
2031,81.0,0.0,40.0,2.0,0.0
2032,71.0,0.0,40.0,1.0,0.0
2033,49.0,0.0,40.0,13.0,0.0
2034,81.0,0.0,40.0,6.0,0.0
2035,81.0,16.0,40.0,7.0,0.0
2036,37.0,0.0,40.0,12.0,0.0
2037,35.0,0.0,40.0,12.0,0.0
2038,83.0,0.0,15.0,2.0,0.0
2039,71.0,0.0,40.0,1.0,0.0
2040,47.0,0.0,40.0,13.0,0.0
2041,78.0,0.0,90.0,13.0,0.0
2042,47.0,0.0,40.0,11.0,0.0
2043,83.0,0.0,15.0,7.0,0.0
2044,69.0,0.0,90.0,13.0,0.0
2045,83.0,12.0,15.0,6.0,0.0
2046,47.0,4.0,40.0,5.0,0.0
2047,81.0,12.0,15.0,6.0,0.0
2048,81.0,0.0,15.0,7.0,0.0
2049,81.0,0.0,15.0,2.0,0.0
2050,83.0,0.0,15.0,6.0,0.0
2051,83.0,8.0,15.0,2.0,0.0
2052,83.0,0.0,15.0,7.0,0.0
2053,81.0,0.0,15.0,6.0,0.0
2054,81.0,0.0,15.0,7.0,0.0
2055,81.0,12.0,15.0,2.0,0.0
2056,33.0,0.0,40.0,12.0,0.0
2057,83.0,0.0,15.0,7.0,0.0
2058,83.0,0.0,15.0,6.0,0.0
2059,71.0,4.0,40.0,1.0,0.0
2060,45.0,0.0,40.0,13.0,0.0
2061,45.0,0.0,40.0,11.0,0.0
2062,83.0,12.0,15.0,2.0,0.0
2063,45.0,0.0,40.0,5.0,0.0
2064,81.0,0.0,15.0,6.0,0.0
2065,81.0,0.0,15.0,7.0,0.0
2066,81.0,12.0,15.0,2.0,0.0
2067,80.0,0.0,15.0,2.0,0.0
2068,80.0,0.0,15.0,6.0,0.0
2069,80.0,2.0,15.0,7.0,0.0
2070,81.0,0.0,15.0,2.0,0.0
2071,81.0,0.0,15.0,7.0,0.0
2072,81.0,44.0,15.0,6.0,0.0
2073,44.0,6.0,90.0,13.0,0.0
2074,44.0,0.0,90.0,5.0,0.0
2075,76.0,0.0,180.0,8.0,0.0
2076,76.0,0.0,90.0,0.0,0.0
2077,32.0,0.0,90.0,12.0,0.0
2078,83.0,0.0,40.0,7.0,0.0
2079,83.0,0.0,40.0,6.0,0.0
2080,71.0,0.0,90.0,4.0,0.0
2081,71.0,42.0,40.0,14.0,0.0
2082,71.0,0.0,90.0,1.0,0.0
2083,44.0,0.0,90.0,11.0,0.0
2084,76.0,6.0,180.0,3.0,0.0
2085,71.0,0.0,90.0,13.0,0.0
2086,83.0,0.0,40.0,2.0,0.0
2087,76.0,0.0,90.0,13.0,0.0
2088,85.0,0.0,40.0,6.0,0.0
2089,69.0,16.0,40.0,14.0,0.0
2090,85.0,0.0,40.0,7.0,0.0
2091,85.0,0.0,40.0,2.0,0.0
2092,33.0,0.0,40.0,12.0,0.0
2093,45.0,0.0,40.0,11.0,0.0
2094,86.0,0.0,15.0,7.0,0.0
2095,45.0,0.0,40.0,5.0,0.0
2096,73.0,0.0,90.0,13.0,0.0
2097,76.0,4.0,40.0,0.0,0.0
2098,86.0,0.0,15.0,6.0,0.0
2099,71.0,0.0,15.0,4.0,0.0
2100,45.0,0.0,40.0,13.0,0.0
2101,64.0,0.0,90.0,13.0,0.0
2102,71.0,0.0,15.0,14.0,0.0
2103,86.0,12.0,15.0,2.0,0.0
2104,69.0,0.0,15.0,14.0,0.0
2105,85.0,0.0,15.0,2.0,0.0
2106,69.0,0.0,15.0,4.0,0.0
2107,85.0,0.0,15.0,6.0,0.0
2108,85.0,12.0,15.0,7.0,0.0
2109,71.0,8.0,15.0,14.0,0.0
2110,86.0,0.0,15.0,2.0,0.0
2111,86.0,0.0,15.0,7.0,0.0
2112,71.0,0.0,15.0,4.0,0.0
2113,86.0,0.0,15.0,6.0,0.0
2114,85.0,0.0,15.0,2.0,0.0
2115,85.0,0.0,15.0,7.0,0.0
2116,85.0,12.0,15.0,6.0,0.0
2117,69.0,0.0,15.0,14.0,0.0
2118,69.0,0.0,15.0,4.0,0.0
2119,76.0,4.0,40.0,0.0,0.0
2120,71.0,0.0,15.0,14.0,0.0
2121,44.0,0.0,40.0,5.0,0.0
2122,44.0,0.0,40.0,11.0,0.0
2123,86.0,0.0,15.0,2.0,0.0
2124,71.0,0.0,15.0,4.0,0.0
2125,44.0,0.0,40.0,13.0,0.0
2126,86.0,12.0,15.0,6.0,0.0
2127,32.0,0.0,40.0,12.0,0.0
2128,86.0,0.0,15.0,7.0,0.0
2129,69.0,0.0,15.0,14.0,0.0
2130,85.0,12.0,15.0,2.0,0.0
2131,69.0,0.0,15.0,4.0,0.0
2132,85.0,0.0,15.0,6.0,0.0
2133,85.0,0.0,15.0,7.0,0.0
2134,71.0,0.0,15.0,4.0,0.0
2135,86.0,2.0,15.0,6.0,0.0
2136,71.0,0.0,15.0,14.0,0.0
2137,86.0,0.0,15.0,7.0,0.0
2138,86.0,0.0,15.0,2.0,0.0
2139,85.0,0.0,15.0,7.0,0.0
2140,69.0,0.0,15.0,14.0,0.0
2141,85.0,0.0,15.0,6.0,0.0
2142,69.0,0.0,15.0,4.0,0.0
2143,85.0,12.0,15.0,2.0,0.0
2144,42.0,0.0,40.0,13.0,0.0
2145,81.0,0.0,90.0,13.0,0.0
2146,73.0,0.0,90.0,13.0,0.0
2147,81.0,0.0,90.0,3.0,0.0
2148,86.0,0.0,15.0,6.0,0.0
2149,71.0,0.0,15.0,14.0,0.0
2150,71.0,0.0,15.0,4.0,0.0
2151,30.0,0.0,40.0,12.0,0.0
2152,86.0,12.0,15.0,2.0,0.0
2153,81.0,6.0,90.0,8.0,0.0
2154,42.0,4.0,40.0,11.0,0.0
2155,76.0,0.0,40.0,0.0,0.0
2156,42.0,0.0,40.0,5.0,0.0
2157,86.0,0.0,15.0,7.0,0.0
2158,69.0,0.0,15.0,14.0,0.0
2159,85.0,0.0,15.0,6.0,0.0
2160,85.0,0.0,15.0,7.0,0.0
2161,85.0,0.0,15.0,2.0,0.0
2162,69.0,12.0,15.0,4.0,0.0
2163,86.0,0.0,15.0,6.0,0.0
2164,86.0,8.0,15.0,7.0,0.0
2165,86.0,0.0,15.0,2.0,0.0
2166,71.0,0.0,15.0,4.0,0.0
2167,71.0,0.0,15.0,14.0,0.0
2168,85.0,23.0,15.0,6.0,0.0
2169,85.0,0.0,15.0,2.0,0.0
2170,85.0,0.0,15.0,7.0,0.0
2171,69.0,0.0,15.0,4.0,0.0
2172,69.0,0.0,15.0,14.0,0.0
2173,44.0,0.0,40.0,13.0,0.0
2174,83.0,0.0,20.0,6.0,0.0
2175,68.0,0.0,20.0,4.0,0.0
2176,83.0,0.0,20.0,7.0,0.0
2177,83.0,0.0,20.0,2.0,0.0
2178,44.0,0.0,40.0,11.0,0.0
2179,32.0,0.0,40.0,12.0,0.0
2180,44.0,0.0,40.0,5.0,0.0
2181,68.0,15.0,20.0,14.0,0.0
2182,76.0,3.0,40.0,0.0,0.0
2183,69.0,0.0,20.0,14.0,0.0
2184,85.0,0.0,20.0,7.0,0.0
2185,85.0,0.0,20.0,2.0,0.0
2186,85.0,87.0,20.0,6.0,0.0
2187,69.0,0.0,20.0,4.0,0.0
2188,86.0,0.0,90.0,7.0,0.0
2189,40.0,0.0,90.0,5.0,0.0
2190,40.0,0.0,90.0,13.0,0.0
2191,80.0,0.0,90.0,8.0,0.0
2192,80.0,0.0,90.0,13.0,0.0
2193,71.0,0.0,90.0,13.0,0.0
2194,80.0,0.0,90.0,3.0,0.0
2195,71.0,0.0,90.0,14.0,0.0
2196,86.0,0.0,90.0,2.0,0.0
2197,28.0,22.0,90.0,12.0,0.0
2198,71.0,0.0,90.0,4.0,0.0
2199,76.0,0.0,180.0,0.0,0.0
2200,71.0,0.0,90.0,1.0,0.0
2201,86.0,0.0,90.0,6.0,0.0
2202,40.0,0.0,90.0,11.0,0.0
2203,81.0,0.0,90.0,13.0,0.0
2204,76.0,0.0,90.0,14.0,0.0
2205,85.0,0.0,40.0,7.0,0.0
2206,52.0,0.0,40.0,11.0,0.0
2207,81.0,0.0,90.0,8.0,0.0
2208,52.0,0.0,40.0,13.0,0.0
2209,85.0,4.0,40.0,2.0,0.0
2210,52.0,0.0,40.0,5.0,0.0
2211,73.0,0.0,90.0,13.0,0.0
2212,40.0,0.0,40.0,12.0,0.0
2213,83.0,12.0,15.0,3.0,0.0
2214,85.0,0.0,40.0,6.0,0.0
2215,64.0,0.0,40.0,1.0,0.0
2216,76.0,6.0,90.0,4.0,0.0
2217,81.0,12.0,15.0,3.0,0.0
2218,83.0,8.0,15.0,3.0,0.0
2219,81.0,12.0,15.0,3.0,0.0
2220,54.0,0.0,40.0,5.0,0.0
2221,83.0,0.0,40.0,2.0,0.0
2222,54.0,0.0,40.0,13.0,0.0
2223,42.0,0.0,40.0,12.0,0.0
2224,83.0,12.0,15.0,3.0,0.0
2225,64.0,0.0,40.0,1.0,0.0
2226,54.0,0.0,40.0,11.0,0.0
2227,83.0,4.0,40.0,7.0,0.0
2228,83.0,0.0,40.0,6.0,0.0
2229,81.0,12.0,15.0,3.0,0.0
2230,83.0,2.0,15.0,3.0,0.0
2231,81.0,44.0,15.0,3.0,0.0
2232,76.0,6.0,90.0,13.0,0.0
2233,88.0,0.0,90.0,2.0,0.0
2234,56.0,0.0,40.0,11.0,0.0
2235,88.0,0.0,90.0,7.0,0.0
2236,68.0,0.0,90.0,4.0,0.0
2237,83.0,0.0,90.0,13.0,0.0
2238,56.0,0.0,40.0,5.0,0.0
2239,74.0,0.0,90.0,0.0,0.0
2240,68.0,0.0,90.0,14.0,0.0
2241,56.0,0.0,40.0,13.0,0.0
2242,88.0,0.0,90.0,6.0,0.0
2243,83.0,0.0,90.0,3.0,0.0
2244,83.0,0.0,90.0,8.0,0.0
2245,44.0,0.0,40.0,12.0,0.0
2246,64.0,42.0,40.0,1.0,0.0
2247,52.0,0.0,40.0,13.0,0.0
2248,40.0,0.0,40.0,12.0,0.0
2249,52.0,0.0,40.0,5.0,0.0
2250,52.0,0.0,40.0,11.0,0.0
2251,64.0,48.0,40.0,1.0,0.0
2252,81.0,0.0,40.0,2.0,0.0
2253,54.0,0.0,40.0,11.0,0.0
2254,78.0,0.0,90.0,8.0,0.0
2255,73.0,0.0,40.0,14.0,0.0
2256,73.0,0.0,90.0,13.0,0.0
2257,81.0,0.0,90.0,13.0,0.0
2258,54.0,0.0,40.0,13.0,0.0
2259,78.0,0.0,90.0,3.0,0.0
2260,81.0,0.0,40.0,7.0,0.0
2261,73.0,0.0,40.0,4.0,0.0
2262,81.0,0.0,40.0,6.0,0.0
2263,54.0,42.0,40.0,5.0,0.0
2264,42.0,0.0,40.0,12.0,0.0
2265,69.0,6.0,90.0,1.0,0.0
2266,73.0,0.0,90.0,0.0,0.0
2267,83.0,16.0,40.0,2.0,0.0
2268,83.0,0.0,40.0,7.0,0.0
2269,38.0,0.0,40.0,12.0,0.0
2270,74.0,0.0,40.0,4.0,0.0
2271,50.0,0.0,40.0,11.0,0.0
2272,50.0,0.0,40.0,13.0,0.0
2273,50.0,0.0,40.0,5.0,0.0
2274,74.0,0.0,40.0,14.0,0.0
2275,83.0,0.0,40.0,6.0,0.0
2276,80.0,6.0,120.0,6.0,0.0
2277,71.0,0.0,15.0,14.0,0.0
2278,74.0,0.0,40.0,0.0,0.0
2279,52.0,0.0,90.0,5.0,0.0
2280,40.0,0.0,90.0,12.0,0.0
2281,64.0,4.0,40.0,1.0,0.0
2282,52.0,0.0,90.0,13.0,0.0
2283,80.0,0.0,90.0,13.0,0.0
2284,78.0,0.0,15.0,8.0,0.0
2285,52.0,6.0,90.0,11.0,0.0
2286,71.0,0.0,90.0,13.0,0.0
2287,78.0,12.0,15.0,3.0,0.0
2288,80.0,0.0,120.0,7.0,0.0
2289,80.0,0.0,120.0,2.0,0.0
2290,71.0,0.0,120.0,4.0,0.0
2291,69.0,12.0,15.0,14.0,0.0
2292,76.0,0.0,15.0,3.0,0.0
2293,76.0,0.0,15.0,8.0,0.0
2294,71.0,0.0,15.0,14.0,0.0
2295,78.0,8.0,15.0,3.0,0.0
2296,78.0,0.0,15.0,8.0,0.0
2297,69.0,0.0,15.0,14.0,0.0
2298,76.0,0.0,15.0,8.0,0.0
2299,76.0,12.0,15.0,3.0,0.0
2300,78.0,0.0,15.0,3.0,0.0
2301,73.0,0.0,40.0,0.0,0.0
2302,78.0,0.0,15.0,8.0,0.0
2303,64.0,4.0,40.0,1.0,0.0
2304,71.0,12.0,15.0,14.0,0.0
2305,76.0,12.0,15.0,8.0,0.0
2306,69.0,0.0,15.0,14.0,0.0
2307,76.0,0.0,15.0,3.0,0.0
2308,78.0,2.0,15.0,8.0,0.0
2309,71.0,0.0,15.0,14.0,0.0
2310,78.0,0.0,15.0,3.0,0.0
2311,76.0,0.0,15.0,3.0,0.0
2312,69.0,0.0,15.0,14.0,0.0
2313,76.0,12.0,15.0,8.0,0.0
2314,71.0,4.0,40.0,0.0,0.0
2315,64.0,0.0,40.0,1.0,0.0
2316,71.0,0.0,15.0,14.0,0.0
2317,40.0,0.0,90.0,5.0,0.0
2318,40.0,0.0,90.0,11.0,0.0
2319,40.0,0.0,90.0,13.0,0.0
2320,68.0,6.0,90.0,13.0,0.0
2321,78.0,0.0,15.0,8.0,0.0
2322,28.0,0.0,90.0,12.0,0.0
2323,78.0,12.0,15.0,3.0,0.0
2324,71.0,0.0,90.0,13.0,0.0
2325,69.0,0.0,15.0,14.0,0.0
2326,76.0,0.0,15.0,8.0,0.0
2327,76.0,12.0,15.0,3.0,0.0
2328,78.0,0.0,15.0,3.0,0.0
2329,71.0,0.0,15.0,14.0,0.0
2330,78.0,2.0,15.0,8.0,0.0
2331,76.0,0.0,15.0,8.0,0.0
2332,69.0,38.0,15.0,14.0,0.0
2333,76.0,0.0,15.0,3.0,0.0
2334,81.0,0.0,40.0,7.0,0.0
2335,73.0,48.0,40.0,0.0,0.0
2336,81.0,0.0,40.0,6.0,0.0
2337,73.0,0.0,40.0,4.0,0.0
2338,81.0,0.0,40.0,2.0,0.0
2339,64.0,0.0,40.0,1.0,0.0
2340,76.0,0.0,40.0,3.0,0.0
2341,76.0,0.0,40.0,8.0,0.0
2342,73.0,0.0,40.0,14.0,0.0
2343,64.0,6.0,270.0,13.0,0.0
2344,76.0,6.0,180.0,8.0,0.0
2345,73.0,0.0,270.0,14.0,0.0
2346,45.0,0.0,40.0,11.0,0.0
2347,81.0,0.0,270.0,6.0,0.0
2348,69.0,0.0,270.0,0.0,0.0
2349,73.0,0.0,270.0,4.0,0.0
2350,45.0,0.0,40.0,5.0,0.0
2351,61.0,0.0,270.0,1.0,0.0
2352,81.0,0.0,270.0,7.0,0.0
2353,33.0,48.0,40.0,12.0,0.0
2354,76.0,0.0,270.0,3.0,0.0
2355,81.0,0.0,270.0,2.0,0.0
2356,73.0,0.0,270.0,13.0,0.0
2357,45.0,0.0,40.0,13.0,0.0
2358,47.0,0.0,40.0,5.0,0.0
2359,47.0,0.0,40.0,13.0,0.0
2360,47.0,48.0,40.0,11.0,0.0
2361,35.0,0.0,40.0,12.0,0.0
2362,49.0,0.0,40.0,11.0,0.0
2363,49.0,0.0,40.0,5.0,0.0
2364,49.0,42.0,40.0,13.0,0.0
2365,37.0,0.0,40.0,12.0,0.0
2366,50.0,0.0,40.0,13.0,0.0
2367,38.0,48.0,40.0,12.0,0.0
2368,50.0,0.0,40.0,5.0,0.0
2369,50.0,0.0,40.0,11.0,0.0
2370,52.0,0.0,40.0,11.0,0.0
2371,40.0,0.0,40.0,12.0,0.0
2372,52.0,42.0,40.0,5.0,0.0
2373,52.0,0.0,40.0,13.0,0.0
2374,54.0,90.0,40.0,5.0,0.0
2375,54.0,0.0,40.0,11.0,0.0
2376,42.0,0.0,40.0,12.0,0.0
2377,54.0,0.0,40.0,13.0,0.0
2378,83.0,54.0,90.0,6.0,0.0
2379,71.0,0.0,180.0,4.0,0.0
2380,76.0,0.0,90.0,8.0,0.0
2381,71.0,0.0,180.0,14.0,0.0
2382,83.0,0.0,90.0,2.0,0.0
2383,76.0,0.0,90.0,3.0,0.0
2384,56.0,0.0,180.0,11.0,0.0
2385,83.0,0.0,90.0,7.0,0.0
2386,56.0,0.0,180.0,5.0,0.0
2387,64.0,0.0,90.0,0.0,0.0
2388,56.0,0.0,180.0,13.0,0.0
2389,44.0,0.0,180.0,12.0,0.0
2390,76.0,0.0,90.0,13.0,0.0
2391,71.0,0.0,90.0,13.0,0.0
2392,86.0,0.0,90.0,7.0,0.0
2393,83.0,0.0,90.0,8.0,0.0
2394,86.0,0.0,90.0,6.0,0.0
2395,86.0,0.0,90.0,2.0,0.0
2396,64.0,42.0,40.0,0.0,0.0
2397,83.0,0.0,90.0,3.0,0.0
2398,74.0,0.0,90.0,13.0,0.0
2399,71.0,6.0,90.0,13.0,0.0
2400,64.0,48.0,40.0,0.0,0.0
2401,73.0,0.0,90.0,13.0,0.0
2402,64.0,0.0,90.0,13.0,0.0
2403,81.0,0.0,90.0,3.0,0.0
2404,85.0,0.0,90.0,2.0,0.0
2405,81.0,0.0,90.0,8.0,0.0
2406,85.0,0.0,90.0,7.0,0.0
2407,57.0,0.0,90.0,11.0,0.0
2408,85.0,6.0,90.0,6.0,0.0
2409,57.0,0.0,90.0,13.0,0.0
2410,57.0,0.0,90.0,5.0,0.0
2411,76.0,0.0,90.0,14.0,0.0
2412,45.0,0.0,90.0,12.0,0.0
2413,76.0,0.0,90.0,4.0,0.0
2414,64.0,42.0,40.0,0.0,0.0
2415,64.0,16.0,40.0,0.0,0.0
2416,59.0,0.0,90.0,13.0,0.0
2417,83.0,0.0,90.0,7.0,0.0
2418,74.0,0.0,90.0,4.0,0.0
2419,59.0,0.0,90.0,11.0,0.0
2420,80.0,0.0,90.0,3.0,0.0
2421,80.0,0.0,90.0,8.0,0.0
2422,74.0,0.0,90.0,13.0,0.0
2423,76.0,12.0,15.0,14.0,0.0
2424,85.0,0.0,15.0,6.0,0.0
2425,68.0,0.0,90.0,13.0,0.0
2426,64.0,0.0,90.0,0.0,0.0
2427,47.0,0.0,90.0,12.0,0.0
2428,83.0,10.0,90.0,2.0,0.0
2429,64.0,0.0,90.0,1.0,0.0
2430,59.0,0.0,90.0,5.0,0.0
2431,83.0,0.0,15.0,6.0,0.0
2432,74.0,12.0,15.0,14.0,0.0
2433,76.0,0.0,15.0,14.0,0.0
2434,85.0,12.0,15.0,6.0,0.0
2435,83.0,12.0,15.0,6.0,0.0
2436,74.0,0.0,15.0,14.0,0.0
2437,76.0,0.0,15.0,14.0,0.0
2438,85.0,12.0,15.0,6.0,0.0
2439,74.0,0.0,15.0,14.0,0.0
2440,83.0,12.0,15.0,6.0,0.0
2441,76.0,2.0,15.0,14.0,0.0
2442,85.0,0.0,15.0,6.0,0.0
2443,83.0,0.0,15.0,6.0,0.0
2444,74.0,44.0,15.0,14.0,0.0
2445,76.0,0.0,90.0,13.0,0.0
2446,73.0,0.0,40.0,4.0,0.0
2447,73.0,0.0,40.0,14.0,0.0
2448,62.0,0.0,90.0,13.0,0.0
2449,50.0,0.0,90.0,12.0,0.0
2450,81.0,0.0,40.0,2.0,0.0
2451,62.0,0.0,90.0,5.0,0.0
2452,81.0,0.0,40.0,7.0,0.0
2453,64.0,42.0,40.0,1.0,0.0
2454,81.0,0.0,40.0,6.0,0.0
2455,76.0,0.0,90.0,8.0,0.0
2456,76.0,0.0,90.0,3.0,0.0
2457,68.0,6.0,90.0,13.0,0.0
2458,62.0,0.0,90.0,11.0,0.0
2459,80.0,0.0,40.0,7.0,0.0
2460,64.0,0.0,40.0,1.0,0.0
2461,71.0,0.0,40.0,4.0,0.0
2462,80.0,48.0,40.0,6.0,0.0
2463,80.0,0.0,40.0,2.0,0.0
2464,71.0,0.0,40.0,14.0,0.0
2465,73.0,0.0,90.0,4.0,0.0
2466,61.0,0.0,90.0,11.0,0.0
2467,61.0,0.0,90.0,5.0,0.0
2468,81.0,0.0,90.0,2.0,0.0
2469,76.0,0.0,90.0,3.0,0.0
2470,81.0,0.0,90.0,6.0,0.0
2471,64.0,42.0,40.0,1.0,0.0
2472,81.0,6.0,90.0,7.0,0.0
2473,73.0,0.0,90.0,14.0,0.0
2474,76.0,0.0,90.0,8.0,0.0
2475,76.0,0.0,90.0,13.0,0.0
2476,61.0,0.0,90.0,13.0,0.0
2477,69.0,0.0,90.0,13.0,0.0
2478,49.0,0.0,90.0,12.0,0.0
2479,64.0,90.0,40.0,1.0,0.0
2480,64.0,0.0,90.0,1.0,0.0
2481,80.0,0.0,90.0,8.0,0.0
2482,47.0,0.0,90.0,12.0,0.0
2483,83.0,0.0,90.0,6.0,0.0
2484,83.0,0.0,90.0,7.0,0.0
2485,74.0,0.0,90.0,14.0,0.0
2486,59.0,0.0,90.0,13.0,0.0
2487,74.0,0.0,90.0,13.0,0.0
2488,68.0,0.0,90.0,13.0,0.0
2489,64.0,0.0,90.0,0.0,0.0
2490,59.0,54.0,90.0,11.0,0.0
2491,74.0,0.0,90.0,4.0,0.0
2492,59.0,0.0,90.0,5.0,0.0
2493,83.0,0.0,90.0,2.0,0.0
2494,80.0,0.0,90.0,3.0,0.0
2495,86.0,0.0,90.0,6.0,0.0
2496,64.0,0.0,40.0,0.0,0.0
2497,86.0,0.0,90.0,2.0,0.0
2498,71.0,0.0,90.0,14.0,0.0
2499,57.0,0.0,40.0,11.0,0.0
2500,45.0,0.0,40.0,12.0,0.0
2501,57.0,42.0,40.0,13.0,0.0
2502,74.0,0.0,90.0,13.0,0.0
2503,71.0,0.0,90.0,4.0,0.0
2504,86.0,6.0,90.0,7.0,0.0
2505,83.0,0.0,90.0,3.0,0.0
2506,57.0,0.0,40.0,5.0,0.0
2507,83.0,0.0,90.0,8.0,0.0
2508,66.0,0.0,90.0,13.0,0.0
2509,44.0,48.0,40.0,12.0,0.0
2510,56.0,0.0,40.0,11.0,0.0
2511,56.0,0.0,40.0,13.0,0.0
2512,56.0,0.0,40.0,5.0,0.0
2513,64.0,0.0,40.0,0.0,0.0
2514,57.0,0.0,90.0,11.0,0.0
2515,73.0,0.0,90.0,13.0,0.0
2516,64.0,0.0,90.0,13.0,0.0
2517,85.0,0.0,90.0,6.0,0.0
2518,81.0,6.0,90.0,3.0,0.0
2519,76.0,0.0,90.0,14.0,0.0
2520,64.0,42.0,40.0,0.0,0.0
2521,85.0,0.0,90.0,7.0,0.0
2522,57.0,0.0,90.0,5.0,0.0
2523,76.0,0.0,90.0,4.0,0.0
2524,57.0,0.0,90.0,13.0,0.0
2525,81.0,0.0,90.0,8.0,0.0
2526,45.0,0.0,90.0,12.0,0.0
2527,85.0,0.0,90.0,2.0,0.0
2528,64.0,16.0,40.0,0.0,0.0
2529,56.0,0.0,90.0,5.0,0.0
2530,64.0,0.0,90.0,1.0,0.0
2531,44.0,0.0,90.0,12.0,0.0
2532,64.0,0.0,90.0,0.0,0.0
2533,76.0,0.0,180.0,14.0,0.0
2534,85.0,0.0,15.0,2.0,0.0
2535,56.0,0.0,90.0,13.0,0.0
2536,83.0,0.0,90.0,3.0,0.0
2537,83.0,0.0,90.0,8.0,0.0
2538,85.0,12.0,15.0,7.0,0.0
2539,76.0,6.0,180.0,4.0,0.0
2540,56.0,0.0,90.0,11.0,0.0
2541,64.0,0.0,90.0,13.0,0.0
2542,71.0,10.0,90.0,13.0,0.0
2543,85.0,0.0,15.0,6.0,0.0
2544,83.0,0.0,15.0,6.0,0.0
2545,83.0,12.0,15.0,7.0,0.0
2546,83.0,0.0,15.0,2.0,0.0
2547,85.0,12.0,15.0,6.0,0.0
2548,85.0,0.0,15.0,2.0,0.0
2549,85.0,0.0,15.0,7.0,0.0
2550,83.0,0.0,15.0,7.0,0.0
2551,83.0,12.0,15.0,2.0,0.0
2552,83.0,0.0,15.0,6.0,0.0
2553,85.0,0.0,15.0,2.0,0.0
2554,85.0,0.0,15.0,6.0,0.0
2555,85.0,12.0,15.0,7.0,0.0
2556,83.0,0.0,15.0,7.0,0.0
2557,83.0,12.0,15.0,2.0,0.0
2558,83.0,0.0,15.0,6.0,0.0
2559,85.0,0.0,15.0,7.0,0.0
2560,85.0,2.0,15.0,6.0,0.0
2561,85.0,0.0,15.0,2.0,0.0
2562,83.0,12.0,15.0,7.0,0.0
2563,83.0,0.0,15.0,6.0,0.0
2564,83.0,0.0,15.0,2.0,0.0
2565,81.0,0.0,90.0,8.0,0.0
2566,57.0,4.0,40.0,11.0,0.0
2567,85.0,0.0,15.0,7.0,0.0
2568,76.0,0.0,90.0,13.0,0.0
2569,57.0,0.0,40.0,13.0,0.0
2570,85.0,12.0,15.0,6.0,0.0
2571,81.0,0.0,90.0,3.0,0.0
2572,45.0,0.0,40.0,12.0,0.0
2573,85.0,0.0,15.0,2.0,0.0
2574,57.0,0.0,40.0,5.0,0.0
2575,64.0,0.0,40.0,1.0,0.0
2576,69.0,0.0,90.0,13.0,0.0
2577,83.0,0.0,15.0,2.0,0.0
2578,83.0,12.0,15.0,6.0,0.0
2579,83.0,0.0,15.0,7.0,0.0
2580,85.0,0.0,15.0,2.0,0.0
2581,85.0,8.0,15.0,6.0,0.0
2582,85.0,0.0,15.0,7.0,0.0
2583,83.0,12.0,15.0,2.0,0.0
2584,83.0,0.0,15.0,7.0,0.0
2585,83.0,0.0,15.0,6.0,0.0
2586,56.0,0.0,40.0,13.0,0.0
2587,85.0,0.0,15.0,7.0,0.0
2588,44.0,4.0,40.0,12.0,0.0
2589,56.0,0.0,40.0,11.0,0.0
2590,56.0,0.0,40.0,5.0,0.0
2591,64.0,0.0,40.0,1.0,0.0
2592,85.0,12.0,15.0,6.0,0.0
2593,85.0,0.0,15.0,2.0,0.0
2594,83.0,0.0,15.0,2.0,0.0
2595,83.0,0.0,15.0,7.0,0.0
2596,83.0,12.0,15.0,6.0,0.0
2597,85.0,0.0,15.0,2.0,0.0
2598,85.0,2.0,15.0,7.0,0.0
2599,85.0,0.0,15.0,6.0,0.0
2600,83.0,0.0,15.0,7.0,0.0
2601,83.0,0.0,15.0,2.0,0.0
2602,83.0,44.0,15.0,6.0,0.0
2603,88.0,0.0,90.0,2.0,0.0
2604,64.0,0.0,40.0,1.0,0.0
2605,54.0,42.0,40.0,5.0,0.0
2606,71.0,0.0,90.0,14.0,0.0
2607,42.0,0.0,40.0,12.0,0.0
2608,88.0,0.0,90.0,7.0,0.0
2609,54.0,0.0,40.0,13.0,0.0
2610,71.0,0.0,90.0,4.0,0.0
2611,80.0,6.0,90.0,13.0,0.0
2612,88.0,0.0,90.0,6.0,0.0
2613,54.0,0.0,40.0,11.0,0.0
2614,71.0,0.0,90.0,13.0,0.0
2615,80.0,0.0,90.0,8.0,0.0
2616,80.0,0.0,90.0,3.0,0.0
2617,64.0,0.0,40.0,1.0,0.0
2618,52.0,16.0,40.0,11.0,0.0
2619,40.0,0.0,40.0,12.0,0.0
2620,52.0,0.0,40.0,5.0,0.0
2621,52.0,0.0,40.0,13.0,0.0
2622,71.0,0.0,90.0,0.0,0.0
2623,81.0,0.0,90.0,6.0,0.0
2624,40.0,0.0,15.0,12.0,0.0
2625,78.0,6.0,180.0,3.0,0.0
2626,52.0,0.0,15.0,11.0,0.0
2627,81.0,9.0,90.0,7.0,0.0
2628,71.0,0.0,90.0,1.0,0.0
2629,81.0,0.0,90.0,2.0,0.0
2630,71.0,0.0,90.0,13.0,0.0
2631,78.0,0.0,180.0,8.0,0.0
2632,52.0,1.0,20.0,5.0,0.0
2633,71.0,0.0,180.0,4.0,0.0
2634,52.0,11.0,15.0,13.0,0.0
2635,78.0,0.0,90.0,13.0,0.0
2636,71.0,0.0,180.0,14.0,0.0
2637,51.0,0.0,15.0,13.0,0.0
2638,51.0,12.0,15.0,11.0,0.0
2639,39.0,0.0,15.0,12.0,0.0
2640,51.0,1.0,20.0,5.0,0.0
2641,52.0,0.0,15.0,13.0,0.0
2642,40.0,0.0,15.0,12.0,0.0
2643,52.0,11.0,15.0,11.0,0.0
2644,51.0,0.0,15.0,13.0,0.0
2645,39.0,0.0,15.0,12.0,0.0
2646,51.0,12.0,15.0,11.0,0.0
2647,52.0,0.0,15.0,13.0,0.0
2648,52.0,1.0,20.0,5.0,0.0
2649,40.0,11.0,15.0,12.0,0.0
2650,52.0,0.0,15.0,11.0,0.0
2651,51.0,0.0,15.0,13.0,0.0
2652,51.0,0.0,15.0,11.0,0.0
2653,39.0,12.0,15.0,12.0,0.0
2654,52.0,2.0,15.0,11.0,0.0
2655,52.0,0.0,15.0,13.0,0.0
2656,40.0,0.0,15.0,12.0,0.0
2657,51.0,1.0,20.0,5.0,0.0
2658,51.0,0.0,15.0,11.0,0.0
2659,39.0,0.0,15.0,12.0,0.0
2660,51.0,12.0,15.0,13.0,0.0
2661,78.0,0.0,90.0,7.0,0.0
2662,40.0,0.0,15.0,12.0,0.0
2663,52.0,0.0,15.0,11.0,0.0
2664,52.0,11.0,15.0,13.0,0.0
2665,78.0,0.0,90.0,6.0,0.0
2666,71.0,3.0,40.0,0.0,0.0
2667,66.0,0.0,90.0,13.0,0.0
2668,78.0,0.0,90.0,2.0,0.0
2669,52.0,1.0,20.0,5.0,0.0
2670,75.0,0.0,90.0,13.0,0.0
2671,51.0,0.0,15.0,13.0,0.0
2672,39.0,0.0,15.0,12.0,0.0
2673,51.0,12.0,15.0,11.0,0.0
2674,52.0,0.0,15.0,13.0,0.0
2675,40.0,8.0,15.0,12.0,0.0
2676,52.0,0.0,15.0,11.0,0.0
2677,51.0,1.0,20.0,5.0,0.0
2678,39.0,0.0,15.0,12.0,0.0
2679,51.0,0.0,15.0,13.0,0.0
2680,51.0,12.0,15.0,11.0,0.0
2681,52.0,0.0,15.0,13.0,0.0
2682,52.0,1.0,20.0,5.0,0.0
2683,52.0,11.0,15.0,11.0,0.0
2684,71.0,3.0,40.0,0.0,0.0
2685,40.0,0.0,15.0,12.0,0.0
2686,39.0,0.0,15.0,12.0,0.0
2687,51.0,0.0,15.0,11.0,0.0
2688,51.0,12.0,15.0,13.0,0.0
2689,40.0,2.0,15.0,12.0,0.0
2690,52.0,0.0,15.0,13.0,0.0
2691,52.0,0.0,15.0,11.0,0.0
2692,51.0,1.0,20.0,5.0,0.0
2693,51.0,44.0,15.0,13.0,0.0
2694,51.0,0.0,15.0,11.0,0.0
2695,39.0,0.0,15.0,12.0,0.0
2696,71.0,0.0,90.0,13.0,0.0
2697,80.0,0.0,90.0,13.0,0.0
2698,52.0,0.0,90.0,13.0,0.0
2699,80.0,0.0,90.0,6.0,0.0
2700,71.0,0.0,90.0,4.0,0.0
2701,80.0,6.0,90.0,2.0,0.0
2702,52.0,0.0,90.0,5.0,0.0
2703,52.0,0.0,90.0,11.0,0.0
2704,76.0,0.0,90.0,3.0,0.0
2705,40.0,0.0,90.0,12.0,0.0
2706,71.0,0.0,90.0,14.0,0.0
2707,71.0,42.0,40.0,0.0,0.0
2708,80.0,0.0,90.0,7.0,0.0
2709,76.0,0.0,90.0,8.0,0.0
2710,71.0,48.0,40.0,0.0,0.0
2711,75.0,0.0,90.0,13.0,0.0
2712,81.0,0.0,90.0,13.0,0.0
2713,71.0,0.0,90.0,1.0,0.0
2714,81.0,6.0,90.0,2.0,0.0
2715,75.0,0.0,40.0,8.0,0.0
2716,54.0,0.0,90.0,13.0,0.0
2717,81.0,0.0,90.0,6.0,0.0
2718,71.0,0.0,90.0,0.0,0.0
2719,66.0,0.0,90.0,4.0,0.0
2720,81.0,0.0,90.0,7.0,0.0
2721,66.0,0.0,90.0,14.0,0.0
2722,42.0,0.0,90.0,12.0,0.0
2723,54.0,0.0,90.0,11.0,0.0
2724,54.0,0.0,90.0,5.0,0.0
2725,75.0,42.0,40.0,3.0,0.0
2726,76.0,0.0,40.0,8.0,0.0
2727,76.0,16.0,40.0,3.0,0.0
2728,40.0,0.0,40.0,12.0,0.0
2729,85.0,6.0,180.0,2.0,0.0
2730,85.0,0.0,180.0,6.0,0.0
2731,68.0,0.0,90.0,4.0,0.0
2732,68.0,6.0,90.0,14.0,0.0
2733,52.0,4.0,40.0,5.0,0.0
2734,73.0,0.0,90.0,13.0,0.0
2735,85.0,0.0,180.0,7.0,0.0
2736,80.0,0.0,90.0,13.0,0.0
2737,52.0,0.0,40.0,13.0,0.0
2738,78.0,12.0,15.0,3.0,0.0
2739,52.0,0.0,40.0,11.0,0.0
2740,78.0,0.0,15.0,8.0,0.0
2741,71.0,0.0,40.0,1.0,0.0
2742,76.0,12.0,15.0,8.0,0.0
2743,76.0,0.0,15.0,3.0,0.0
2744,78.0,8.0,15.0,8.0,0.0
2745,78.0,0.0,15.0,3.0,0.0
2746,76.0,0.0,15.0,3.0,0.0
2747,76.0,12.0,15.0,8.0,0.0
2748,71.0,0.0,40.0,1.0,0.0
2749,51.0,0.0,40.0,11.0,0.0
2750,51.0,0.0,40.0,13.0,0.0
2751,51.0,4.0,40.0,5.0,0.0
2752,78.0,0.0,15.0,8.0,0.0
2753,78.0,12.0,15.0,3.0,0.0
2754,39.0,0.0,40.0,12.0,0.0
2755,76.0,12.0,15.0,3.0,0.0
2756,76.0,0.0,15.0,8.0,0.0
2757,78.0,0.0,15.0,3.0,0.0
2758,78.0,2.0,15.0,8.0,0.0
2759,76.0,0.0,15.0,8.0,0.0
2760,76.0,12.0,15.0,3.0,0.0
2761,64.0,0.0,90.0,4.0,0.0
2762,52.0,0.0,90.0,13.0,0.0
2763,64.0,0.0,90.0,14.0,0.0
2764,76.0,0.0,90.0,13.0,0.0
2765,73.0,0.0,90.0,13.0,0.0
2766,71.0,4.0,40.0,1.0,0.0
2767,78.0,0.0,15.0,8.0,0.0
2768,40.0,0.0,90.0,12.0,0.0
2769,52.0,0.0,90.0,11.0,0.0
2770,78.0,12.0,15.0,3.0,0.0
2771,52.0,0.0,90.0,5.0,0.0
2772,76.0,0.0,15.0,3.0,0.0
2773,76.0,12.0,15.0,8.0,0.0
2774,78.0,0.0,15.0,8.0,0.0
2775,78.0,8.0,15.0,3.0,0.0
2776,76.0,0.0,15.0,8.0,0.0
2777,76.0,23.0,15.0,3.0,0.0
2778,75.0,15.0,20.0,8.0,0.0
2779,75.0,0.0,20.0,3.0,0.0
2780,71.0,3.0,40.0,1.0,0.0
2781,76.0,0.0,20.0,8.0,0.0
2782,76.0,87.0,20.0,3.0,0.0
2783,78.0,0.0,90.0,13.0,0.0
2784,39.0,0.0,90.0,12.0,0.0
2785,81.0,0.0,90.0,7.0,0.0
2786,51.0,0.0,90.0,11.0,0.0
2787,71.0,0.0,90.0,1.0,0.0
2788,81.0,0.0,90.0,6.0,0.0
2789,71.0,0.0,90.0,13.0,0.0
2790,71.0,0.0,180.0,4.0,0.0
2791,71.0,0.0,90.0,0.0,0.0
2792,51.0,0.0,90.0,5.0,0.0
2793,78.0,0.0,90.0,3.0,0.0
2794,78.0,0.0,90.0,8.0,0.0
2795,81.0,0.0,90.0,2.0,0.0
2796,51.0,54.0,90.0,13.0,0.0
2797,71.0,0.0,180.0,14.0,0.0
2798,80.0,0.0,40.0,6.0,0.0
2799,71.0,0.0,40.0,0.0,0.0
2800,76.0,0.0,90.0,8.0,0.0
2801,80.0,42.0,40.0,2.0,0.0
2802,52.0,0.0,40.0,13.0,0.0
2803,80.0,0.0,90.0,13.0,0.0
2804,52.0,0.0,40.0,5.0,0.0
2805,71.0,0.0,90.0,13.0,0.0
2806,76.0,6.0,90.0,3.0,0.0
2807,40.0,0.0,40.0,12.0,0.0
2808,80.0,0.0,40.0,7.0,0.0
2809,52.0,0.0,40.0,11.0,0.0
2810,51.0,0.0,40.0,11.0,0.0
2811,78.0,48.0,40.0,7.0,0.0
2812,71.0,0.0,40.0,0.0,0.0
2813,51.0,0.0,40.0,5.0,0.0
2814,51.0,0.0,40.0,13.0,0.0
2815,78.0,0.0,40.0,6.0,0.0
2816,39.0,0.0,40.0,12.0,0.0
2817,78.0,0.0,40.0,2.0,0.0
2818,71.0,42.0,40.0,0.0,0.0
2819,49.0,0.0,40.0,11.0,0.0
2820,75.0,0.0,90.0,8.0,0.0
2821,83.0,0.0,90.0,2.0,0.0
2822,75.0,0.0,90.0,3.0,0.0
2823,83.0,0.0,90.0,6.0,0.0
2824,83.0,0.0,90.0,7.0,0.0
2825,66.0,0.0,90.0,13.0,0.0
2826,75.0,0.0,90.0,13.0,0.0
2827,49.0,0.0,40.0,13.0,0.0
2828,49.0,0.0,40.0,5.0,0.0
2829,37.0,0.0,40.0,12.0,0.0
2830,71.0,0.0,90.0,14.0,0.0
2831,71.0,6.0,90.0,4.0,0.0
2832,71.0,0.0,40.0,0.0,0.0
2833,47.0,0.0,40.0,5.0,0.0
2834,35.0,90.0,40.0,12.0,0.0
2835,47.0,0.0,40.0,11.0,0.0
2836,47.0,0.0,40.0,13.0,0.0
2837,80.0,0.0,120.0,7.0,0.0
2838,71.0,0.0,270.0,4.0,0.0
2839,71.0,0.0,90.0,0.0,0.0
2840,76.0,6.0,270.0,8.0,0.0
2841,71.0,48.0,90.0,1.0,0.0
2842,80.0,0.0,90.0,13.0,0.0
2843,76.0,0.0,270.0,3.0,0.0
2844,71.0,0.0,270.0,14.0,0.0
2845,52.0,0.0,90.0,5.0,0.0
2846,80.0,6.0,120.0,6.0,0.0
2847,52.0,0.0,90.0,13.0,0.0
2848,52.0,0.0,90.0,11.0,0.0
2849,71.0,0.0,90.0,13.0,0.0
2850,80.0,0.0,120.0,2.0,0.0
2851,40.0,0.0,90.0,12.0,0.0
2852,69.0,6.0,90.0,13.0,0.0
2853,71.0,0.0,40.0,1.0,0.0
2854,50.0,0.0,40.0,11.0,0.0
2855,78.0,0.0,90.0,13.0,0.0
2856,50.0,0.0,40.0,5.0,0.0
2857,38.0,0.0,40.0,12.0,0.0
2858,50.0,42.0,40.0,13.0,0.0
2859,81.0,0.0,40.0,7.0,0.0
2860,81.0,0.0,40.0,2.0,0.0
2861,37.0,0.0,40.0,12.0,0.0
2862,71.0,16.0,40.0,1.0,0.0
2863,49.0,0.0,40.0,5.0,0.0
2864,49.0,0.0,40.0,13.0,0.0
2865,81.0,0.0,40.0,6.0,0.0
2866,49.0,0.0,40.0,11.0,0.0
2867,47.0,0.0,40.0,5.0,0.0
2868,83.0,0.0,15.0,2.0,0.0
2869,47.0,0.0,40.0,13.0,0.0
2870,78.0,0.0,90.0,13.0,0.0
2871,83.0,0.0,15.0,7.0,0.0
2872,69.0,0.0,90.0,13.0,0.0
2873,71.0,0.0,40.0,1.0,0.0
2874,47.0,4.0,40.0,11.0,0.0
2875,83.0,12.0,15.0,6.0,0.0
2876,35.0,0.0,40.0,12.0,0.0
2877,81.0,12.0,15.0,7.0,0.0
2878,81.0,0.0,15.0,2.0,0.0
2879,81.0,0.0,15.0,6.0,0.0
2880,83.0,0.0,15.0,6.0,0.0
2881,83.0,0.0,15.0,7.0,0.0
2882,83.0,8.0,15.0,2.0,0.0
2883,81.0,0.0,15.0,7.0,0.0
2884,81.0,12.0,15.0,6.0,0.0
2885,81.0,0.0,15.0,2.0,0.0
2886,83.0,0.0,15.0,6.0,0.0
2887,71.0,0.0,40.0,1.0,0.0
2888,45.0,0.0,40.0,13.0,0.0
2889,45.0,0.0,40.0,11.0,0.0
2890,83.0,0.0,15.0,2.0,0.0
2891,45.0,4.0,40.0,5.0,0.0
2892,33.0,0.0,40.0,12.0,0.0
2893,83.0,12.0,15.0,7.0,0.0
2894,81.0,12.0,15.0,2.0,0.0
2895,81.0,0.0,15.0,6.0,0.0
2896,81.0,0.0,15.0,7.0,0.0
2897,80.0,0.0,15.0,2.0,0.0
2898,80.0,2.0,15.0,7.0,0.0
2899,80.0,0.0,15.0,6.0,0.0
2900,81.0,44.0,15.0,6.0,0.0
2901,81.0,0.0,15.0,2.0,0.0
2902,81.0,0.0,15.0,7.0,0.0
2903,83.0,0.0,40.0,7.0,0.0
2904,32.0,0.0,90.0,12.0,0.0
2905,76.0,0.0,90.0,13.0,0.0
2906,71.0,0.0,90.0,13.0,0.0
2907,76.0,6.0,180.0,3.0,0.0
2908,76.0,6.0,90.0,0.0,0.0
2909,76.0,0.0,180.0,8.0,0.0
2910,83.0,0.0,40.0,6.0,0.0
2911,44.0,0.0,90.0,5.0,0.0
2912,44.0,0.0,90.0,13.0,0.0
2913,71.0,0.0,90.0,1.0,0.0
2914,71.0,0.0,40.0,14.0,0.0
2915,71.0,0.0,90.0,4.0,0.0
2916,44.0,0.0,90.0,11.0,0.0
2917,83.0,42.0,40.0,2.0,0.0
2918,85.0,0.0,40.0,2.0,0.0
2919,85.0,16.0,40.0,6.0,0.0
2920,85.0,0.0,40.0,7.0,0.0
2921,69.0,0.0,40.0,14.0,0.0
2922,45.0,0.0,40.0,5.0,0.0
2923,33.0,0.0,40.0,12.0,0.0
2924,86.0,0.0,15.0,6.0,0.0
2925,45.0,0.0,40.0,11.0,0.0
2926,71.0,0.0,15.0,14.0,0.0
2927,76.0,0.0,40.0,0.0,0.0
2928,71.0,0.0,15.0,4.0,0.0
2929,86.0,12.0,15.0,7.0,0.0
2930,45.0,4.0,40.0,13.0,0.0
2931,86.0,0.0,15.0,2.0,0.0
2932,64.0,0.0,90.0,13.0,0.0
2933,73.0,0.0,90.0,13.0,0.0
2934,85.0,12.0,15.0,2.0,0.0
2935,69.0,0.0,15.0,4.0,0.0
2936,69.0,0.0,15.0,14.0,0.0
2937,85.0,0.0,15.0,6.0,0.0
2938,85.0,0.0,15.0,7.0,0.0
2939,71.0,0.0,15.0,4.0,0.0
2940,71.0,0.0,15.0,14.0,0.0
2941,86.0,8.0,15.0,7.0,0.0
2942,86.0,0.0,15.0,2.0,0.0
2943,86.0,0.0,15.0,6.0,0.0
2944,69.0,0.0,15.0,14.0,0.0
2945,69.0,0.0,15.0,4.0,0.0
2946,85.0,0.0,15.0,2.0,0.0
2947,85.0,12.0,15.0,7.0,0.0
2948,85.0,0.0,15.0,6.0,0.0
2949,44.0,0.0,40.0,11.0,0.0
2950,86.0,0.0,15.0,6.0,0.0
2951,71.0,0.0,15.0,4.0,0.0
2952,44.0,0.0,40.0,5.0,0.0
2953,32.0,4.0,40.0,12.0,0.0
2954,86.0,12.0,15.0,2.0,0.0
2955,86.0,0.0,15.0,7.0,0.0
2956,44.0,0.0,40.0,13.0,0.0
2957,76.0,0.0,40.0,0.0,0.0
2958,71.0,0.0,15.0,14.0,0.0
2959,85.0,0.0,15.0,2.0,0.0
2960,69.0,0.0,15.0,4.0,0.0
2961,85.0,0.0,15.0,6.0,0.0
2962,85.0,12.0,15.0,7.0,0.0
2963,69.0,0.0,15.0,14.0,0.0
2964,86.0,0.0,15.0,7.0,0.0
2965,86.0,0.0,15.0,6.0,0.0
2966,71.0,2.0,15.0,4.0,0.0
2967,71.0,0.0,15.0,14.0,0.0
2968,86.0,0.0,15.0,2.0,0.0
2969,85.0,0.0,15.0,6.0,0.0
2970,85.0,12.0,15.0,7.0,0.0
2971,69.0,0.0,15.0,4.0,0.0
2972,69.0,0.0,15.0,14.0,0.0
2973,85.0,0.0,15.0,2.0,0.0
2974,71.0,0.0,15.0,4.0,0.0
2975,76.0,0.0,40.0,0.0,0.0
2976,86.0,0.0,15.0,6.0,0.0
2977,86.0,0.0,15.0,7.0,0.0
2978,81.0,6.0,90.0,3.0,0.0
2979,81.0,0.0,90.0,8.0,0.0
2980,42.0,0.0,40.0,5.0,0.0
2981,73.0,0.0,90.0,13.0,0.0
2982,81.0,0.0,90.0,13.0,0.0
2983,42.0,0.0,40.0,13.0,0.0
2984,42.0,0.0,40.0,11.0,0.0
2985,30.0,4.0,40.0,12.0,0.0
2986,86.0,0.0,15.0,2.0,0.0
2987,71.0,12.0,15.0,14.0,0.0
2988,85.0,12.0,15.0,6.0,0.0
2989,69.0,0.0,15.0,14.0,0.0
2990,85.0,0.0,15.0,7.0,0.0
2991,85.0,0.0,15.0,2.0,0.0
2992,69.0,0.0,15.0,4.0,0.0
2993,86.0,0.0,15.0,7.0,0.0
2994,86.0,0.0,15.0,2.0,0.0
2995,71.0,0.0,15.0,4.0,0.0
2996,71.0,0.0,15.0,14.0,0.0
2997,86.0,8.0,15.0,6.0,0.0
2998,69.0,0.0,15.0,14.0,0.0
2999,85.0,0.0,15.0,2.0,0.0
3000,85.0,0.0,15.0,6.0,0.0
3001,69.0,0.0,15.0,4.0,0.0
3002,85.0,23.0,15.0,7.0,0.0
3003,32.0,3.0,40.0,12.0,0.0
3004,83.0,15.0,20.0,7.0,0.0
3005,68.0,0.0,20.0,14.0,0.0
3006,44.0,0.0,40.0,13.0,0.0
3007,83.0,0.0,20.0,6.0,0.0
3008,44.0,0.0,40.0,5.0,0.0
3009,76.0,0.0,40.0,0.0,0.0
3010,44.0,0.0,40.0,11.0,0.0
3011,68.0,0.0,20.0,4.0,0.0
3012,83.0,0.0,20.0,2.0,0.0
3013,85.0,0.0,20.0,2.0,0.0
3014,69.0,0.0,20.0,4.0,0.0
3015,85.0,0.0,20.0,6.0,0.0
3016,69.0,87.0,20.0,14.0,0.0
3017,85.0,0.0,20.0,7.0,0.0
3018,28.0,0.0,90.0,12.0,0.0
3019,71.0,0.0,90.0,1.0,0.0
3020,40.0,0.0,90.0,5.0,0.0
3021,40.0,0.0,90.0,11.0,0.0
3022,71.0,22.0,90.0,14.0,0.0
3023,80.0,0.0,90.0,3.0,0.0
3024,76.0,0.0,180.0,0.0,0.0
3025,40.0,0.0,90.0,13.0,0.0
3026,80.0,0.0,90.0,13.0,0.0
3027,71.0,0.0,90.0,13.0,0.0
3028,86.0,0.0,90.0,6.0,0.0
3029,71.0,0.0,90.0,4.0,0.0
3030,86.0,0.0,90.0,2.0,0.0
3031,86.0,0.0,90.0,7.0,0.0
3032,80.0,0.0,90.0,8.0,0.0
3033,64.0,0.0,40.0,1.0,0.0
3034,40.0,4.0,40.0,12.0,0.0
3035,85.0,0.0,40.0,6.0,0.0
3036,52.0,0.0,40.0,11.0,0.0
3037,85.0,0.0,40.0,7.0,0.0
3038,81.0,6.0,90.0,8.0,0.0
3039,81.0,0.0,90.0,13.0,0.0
3040,85.0,0.0,40.0,2.0,0.0
3041,83.0,12.0,15.0,3.0,0.0
3042,76.0,0.0,90.0,4.0,0.0
3043,52.0,0.0,40.0,5.0,0.0
3044,76.0,0.0,90.0,14.0,0.0
3045,73.0,0.0,90.0,13.0,0.0
3046,52.0,0.0,40.0,13.0,0.0
3047,81.0,12.0,15.0,3.0,0.0
3048,83.0,8.0,15.0,3.0,0.0
3049,81.0,12.0,15.0,3.0,0.0
3050,54.0,0.0,40.0,11.0,0.0
3051,54.0,0.0,40.0,5.0,0.0
3052,83.0,12.0,15.0,3.0,0.0
3053,83.0,0.0,40.0,6.0,0.0
3054,54.0,0.0,40.0,13.0,0.0
3055,83.0,0.0,40.0,7.0,0.0
3056,42.0,4.0,40.0,12.0,0.0
3057,64.0,0.0,40.0,1.0,0.0
3058,83.0,0.0,40.0,2.0,0.0
3059,81.0,12.0,15.0,3.0,0.0
3060,83.0,2.0,15.0,3.0,0.0
3061,81.0,44.0,15.0,3.0,0.0
3062,83.0,0.0,90.0,8.0,0.0
3063,88.0,0.0,90.0,7.0,0.0
3064,64.0,0.0,40.0,1.0,0.0
3065,83.0,0.0,90.0,3.0,0.0
3066,68.0,0.0,90.0,14.0,0.0
3067,44.0,0.0,40.0,12.0,0.0
3068,88.0,0.0,90.0,6.0,0.0
3069,56.0,0.0,40.0,13.0,0.0
3070,83.0,6.0,90.0,13.0,0.0
3071,76.0,0.0,90.0,13.0,0.0
3072,68.0,0.0,90.0,4.0,0.0
3073,88.0,0.0,90.0,2.0,0.0
3074,56.0,42.0,40.0,5.0,0.0
3075,74.0,0.0,90.0,0.0,0.0
3076,56.0,0.0,40.0,11.0,0.0
3077,52.0,0.0,40.0,11.0,0.0
3078,52.0,48.0,40.0,13.0,0.0
3079,40.0,0.0,40.0,12.0,0.0
3080,52.0,0.0,40.0,5.0,0.0
3081,64.0,0.0,40.0,1.0,0.0
3082,69.0,0.0,90.0,1.0,0.0
3083,54.0,0.0,40.0,13.0,0.0
3084,81.0,0.0,90.0,13.0,0.0
3085,78.0,0.0,90.0,8.0,0.0
3086,73.0,0.0,90.0,0.0,0.0
3087,78.0,6.0,90.0,3.0,0.0
3088,73.0,0.0,90.0,13.0,0.0
3089,81.0,0.0,40.0,2.0,0.0
3090,81.0,0.0,40.0,6.0,0.0
3091,81.0,0.0,40.0,7.0,0.0
3092,54.0,42.0,40.0,11.0,0.0
3093,73.0,0.0,40.0,14.0,0.0
3094,54.0,0.0,40.0,5.0,0.0
3095,42.0,0.0,40.0,12.0,0.0
3096,73.0,0.0,40.0,4.0,0.0
3097,83.0,0.0,40.0,2.0,0.0
3098,50.0,0.0,40.0,13.0,0.0
3099,50.0,0.0,40.0,11.0,0.0
3100,50.0,0.0,40.0,5.0,0.0
3101,83.0,0.0,40.0,6.0,0.0
3102,38.0,0.0,40.0,12.0,0.0
3103,74.0,16.0,40.0,4.0,0.0
3104,83.0,0.0,40.0,7.0,0.0
3105,74.0,0.0,40.0,14.0,0.0
3106,78.0,0.0,15.0,8.0,0.0
3107,71.0,0.0,15.0,14.0,0.0
3108,40.0,0.0,90.0,12.0,0.0
3109,74.0,0.0,40.0,0.0,0.0
3110,80.0,6.0,120.0,7.0,0.0
3111,64.0,4.0,40.0,1.0,0.0
3112,52.0,0.0,90.0,11.0,0.0
3113,78.0,12.0,15.0,3.0,0.0
3114,80.0,0.0,120.0,6.0,0.0
3115,71.0,0.0,120.0,4.0,0.0
3116,52.0,0.0,90.0,5.0,0.0
3117,52.0,0.0,90.0,13.0,0.0
3118,80.0,6.0,90.0,13.0,0.0
3119,71.0,0.0,90.0,13.0,0.0
3120,80.0,0.0,120.0,2.0,0.0
3121,69.0,0.0,15.0,14.0,0.0
3122,76.0,12.0,15.0,8.0,0.0
3123,76.0,0.0,15.0,3.0,0.0
3124,71.0,0.0,15.0,14.0,0.0
3125,78.0,0.0,15.0,8.0,0.0
3126,78.0,8.0,15.0,3.0,0.0
3127,69.0,0.0,15.0,14.0,0.0
3128,76.0,0.0,15.0,3.0,0.0
3129,76.0,12.0,15.0,8.0,0.0
3130,78.0,0.0,15.0,3.0,0.0
3131,78.0,0.0,15.0,8.0,0.0
3132,71.0,12.0,15.0,14.0,0.0
3133,64.0,4.0,40.0,1.0,0.0
3134,73.0,0.0,40.0,0.0,0.0
3135,69.0,0.0,15.0,14.0,0.0
3136,76.0,12.0,15.0,3.0,0.0
3137,76.0,0.0,15.0,8.0,0.0
3138,71.0,0.0,15.0,14.0,0.0
3139,78.0,0.0,15.0,8.0,0.0
3140,78.0,2.0,15.0,3.0,0.0
3141,76.0,12.0,15.0,8.0,0.0
3142,69.0,0.0,15.0,14.0,0.0
3143,76.0,0.0,15.0,3.0,0.0
3144,40.0,0.0,90.0,5.0,0.0
3145,68.0,0.0,90.0,13.0,0.0
3146,71.0,6.0,90.0,13.0,0.0
3147,40.0,0.0,90.0,13.0,0.0
3148,28.0,0.0,90.0,12.0,0.0
3149,78.0,0.0,15.0,3.0,0.0
3150,71.0,4.0,40.0,0.0,0.0
3151,40.0,0.0,90.0,11.0,0.0
3152,64.0,0.0,40.0,1.0,0.0
3153,71.0,0.0,15.0,14.0,0.0
3154,78.0,12.0,15.0,8.0,0.0
3155,69.0,12.0,15.0,14.0,0.0
3156,76.0,0.0,15.0,3.0,0.0
3157,76.0,0.0,15.0,8.0,0.0
3158,71.0,0.0,15.0,14.0,0.0
3159,78.0,0.0,15.0,8.0,0.0
3160,78.0,2.0,15.0,3.0,0.0
3161,76.0,0.0,15.0,8.0,0.0
3162,76.0,0.0,15.0,3.0,0.0
3163,69.0,38.0,15.0,14.0,0.0
3164,64.0,0.0,40.0,1.0,0.0
3165,76.0,0.0,40.0,3.0,0.0
3166,81.0,0.0,40.0,7.0,0.0
3167,73.0,0.0,40.0,0.0,0.0
3168,73.0,0.0,40.0,14.0,0.0
3169,73.0,0.0,40.0,4.0,0.0
3170,81.0,186.0,40.0,2.0,0.0
3171,81.0,0.0,40.0,6.0,0.0
3172,76.0,0.0,40.0,8.0,0.0
3173,45.0,0.0,270.0,5.0,0.0
3174,73.0,0.0,270.0,14.0,0.0
3175,81.0,0.0,270.0,6.0,0.0
3176,73.0,0.0,270.0,4.0,0.0
3177,81.0,0.0,270.0,7.0,0.0
3178,33.0,384.0,270.0,12.0,0.0
3179,69.0,0.0,270.0,0.0,0.0
3180,73.0,0.0,270.0,13.0,0.0
3181,45.0,0.0,270.0,13.0,0.0
3182,45.0,0.0,270.0,11.0,0.0
3183,76.0,96.0,180.0,8.0,0.0
3184,61.0,0.0,270.0,1.0,0.0
3185,64.0,0.0,270.0,13.0,0.0
3186,76.0,0.0,270.0,3.0,0.0
3187,81.0,0.0,270.0,2.0,0.0
3188,81.0,0.0,180.0,2.0,0.0
3189,73.0,96.0,180.0,3.0,0.0
3190,66.0,96.0,90.0,5.0,0.0
3191,64.0,0.0,90.0,5.0,0.0
3192,83.0,96.0,90.0,2.0,0.0
3193,62.0,0.0,90.0,5.0,0.0
3194,74.0,0.0,90.0,3.0,0.0
3195,71.0,0.0,180.0,3.0,0.0
3196,64.0,96.0,90.0,5.0,0.0
3197,80.0,96.0,180.0,2.0,0.0
3198,62.0,0.0,90.0,5.0,0.0
3199,81.0,0.0,90.0,2.0,0.0
3200,61.0,96.0,90.0,5.0,0.0
3201,73.0,0.0,90.0,3.0,0.0
3202,78.0,0.0,90.0,2.0,0.0
3203,62.0,96.0,90.0,5.0,0.0
3204,69.0,0.0,90.0,3.0,0.0
3205,78.0,0.0,180.0,3.0,0.0
3206,61.0,96.0,90.0,5.0,0.0
3207,86.0,22.0,180.0,2.0,0.0
3208,59.0,0.0,90.0,5.0,0.0
3209,64.0,10.0,90.0,5.0,0.0
3210,81.0,0.0,15.0,3.0,0.0
3211,85.0,12.0,15.0,2.0,0.0
3212,83.0,12.0,15.0,2.0,0.0
3213,80.0,0.0,15.0,3.0,0.0
3214,81.0,0.0,15.0,3.0,0.0
3215,85.0,12.0,15.0,2.0,0.0
3216,80.0,0.0,15.0,3.0,0.0
3217,83.0,12.0,15.0,2.0,0.0
3218,81.0,12.0,15.0,3.0,0.0
3219,85.0,0.0,15.0,2.0,0.0
3220,80.0,0.0,15.0,3.0,0.0
3221,83.0,12.0,15.0,2.0,0.0
3222,85.0,2.0,15.0,2.0,0.0
3223,81.0,0.0,15.0,3.0,0.0
3224,80.0,12.0,15.0,3.0,0.0
3225,83.0,0.0,15.0,2.0,0.0
3226,85.0,12.0,15.0,2.0,0.0
3227,81.0,0.0,15.0,3.0,0.0
3228,52.0,9.0,90.0,5.0,0.0
3229,83.0,0.0,15.0,2.0,0.0
3230,80.0,12.0,15.0,3.0,0.0
3231,81.0,0.0,15.0,3.0,0.0
3232,85.0,12.0,15.0,2.0,0.0
3233,80.0,0.0,15.0,3.0,0.0
3234,83.0,23.0,15.0,2.0,0.0
3235,78.0,15.0,20.0,3.0,0.0
3236,81.0,0.0,20.0,2.0,0.0
3237,83.0,87.0,20.0,2.0,0.0
3238,80.0,0.0,20.0,3.0,0.0
3239,57.0,0.0,90.0,5.0,0.0
3240,85.0,0.0,90.0,2.0,0.0
3241,81.0,96.0,90.0,3.0,0.0
3242,78.0,0.0,180.0,2.0,0.0
3243,62.0,96.0,90.0,5.0,0.0
3244,69.0,96.0,180.0,3.0,0.0
3245,61.0,0.0,90.0,5.0,0.0
3246,80.0,96.0,90.0,2.0,0.0
3247,71.0,0.0,90.0,3.0,0.0
3248,59.0,0.0,90.0,5.0,0.0
3249,61.0,54.0,90.0,5.0,0.0
3250,68.0,0.0,180.0,3.0,0.0
3251,77.0,0.0,90.0,2.0,0.0
3252,59.0,6.0,90.0,5.0,0.0
3253,75.0,42.0,40.0,2.0,0.0
3254,73.0,48.0,40.0,2.0,0.0
3255,78.0,0.0,90.0,2.0,0.0
3256,57.0,6.0,90.0,5.0,0.0
3257,73.0,42.0,40.0,3.0,0.0
3258,75.0,48.0,40.0,3.0,0.0
3259,56.0,6.0,90.0,5.0,0.0
3260,77.0,42.0,40.0,3.0,0.0
3261,80.0,0.0,40.0,2.0,0.0
3262,78.0,0.0,40.0,3.0,0.0
3263,81.0,16.0,40.0,2.0,0.0
3264,80.0,0.0,15.0,3.0,0.0
3265,83.0,12.0,15.0,2.0,0.0
3266,54.0,10.0,90.0,5.0,0.0
3267,81.0,0.0,15.0,2.0,0.0
3268,78.0,12.0,15.0,3.0,0.0
3269,83.0,12.0,15.0,2.0,0.0
3270,80.0,0.0,15.0,3.0,0.0
3271,78.0,12.0,15.0,3.0,0.0
3272,81.0,0.0,15.0,2.0,0.0
3273,83.0,0.0,15.0,2.0,0.0
3274,80.0,12.0,15.0,3.0,0.0
3275,78.0,0.0,15.0,3.0,0.0
3276,81.0,12.0,15.0,2.0,0.0
3277,83.0,2.0,15.0,2.0,0.0
3278,80.0,0.0,15.0,3.0,0.0
3279,78.0,0.0,15.0,3.0,0.0
3280,81.0,12.0,15.0,2.0,0.0
3281,42.0,6.0,90.0,5.0,0.0
3282,83.0,12.0,15.0,2.0,0.0
3283,80.0,0.0,15.0,3.0,0.0
3284,78.0,0.0,15.0,3.0,0.0
3285,81.0,12.0,15.0,2.0,0.0
3286,80.0,0.0,15.0,3.0,0.0
3287,83.0,12.0,15.0,2.0,0.0
3288,81.0,0.0,15.0,2.0,0.0
3289,78.0,38.0,15.0,3.0,0.0
3290,80.0,0.0,40.0,2.0,0.0
3291,77.0,90.0,40.0,3.0,0.0
3292,80.0,6.0,270.0,2.0,0.0
3293,49.0,54.0,90.0,5.0,0.0
3294,77.0,0.0,270.0,3.0,0.0
3295,61.0,48.0,40.0,5.0,0.0
3296,63.0,48.0,40.0,5.0,0.0
3297,65.0,42.0,40.0,5.0,0.0
3298,61.0,90.0,40.0,5.0,0.0
3299,66.0,96.0,90.0,5.0,0.0
3300,73.0,96.0,180.0,3.0,0.0
3301,81.0,0.0,180.0,2.0,0.0
3302,64.0,0.0,90.0,5.0,0.0
3303,83.0,96.0,90.0,2.0,0.0
3304,62.0,0.0,90.0,5.0,0.0
3305,74.0,0.0,90.0,3.0,0.0
3306,64.0,96.0,90.0,5.0,0.0
3307,71.0,96.0,180.0,3.0,0.0
3308,80.0,0.0,180.0,2.0,0.0
3309,62.0,0.0,90.0,5.0,0.0
3310,73.0,0.0,90.0,3.0,0.0
3311,61.0,0.0,90.0,5.0,0.0
3312,81.0,96.0,90.0,2.0,0.0
3313,62.0,0.0,90.0,5.0,0.0
3314,69.0,96.0,90.0,3.0,0.0
3315,78.0,0.0,90.0,2.0,0.0
3316,86.0,22.0,180.0,2.0,0.0
3317,61.0,96.0,90.0,5.0,0.0
3318,78.0,0.0,180.0,3.0,0.0
3319,59.0,0.0,90.0,5.0,0.0
3320,85.0,12.0,15.0,2.0,0.0
3321,64.0,10.0,90.0,5.0,0.0
3322,81.0,0.0,15.0,3.0,0.0
3323,83.0,12.0,15.0,2.0,0.0
3324,80.0,0.0,15.0,3.0,0.0
3325,85.0,12.0,15.0,2.0,0.0
3326,81.0,0.0,15.0,3.0,0.0
3327,80.0,12.0,15.0,3.0,0.0
3328,83.0,0.0,15.0,2.0,0.0
3329,85.0,0.0,15.0,2.0,0.0
3330,81.0,12.0,15.0,3.0,0.0
3331,80.0,0.0,15.0,3.0,0.0
3332,83.0,12.0,15.0,2.0,0.0
3333,85.0,0.0,15.0,2.0,0.0
3334,81.0,2.0,15.0,3.0,0.0
3335,83.0,12.0,15.0,2.0,0.0
3336,80.0,0.0,15.0,3.0,0.0
3337,85.0,0.0,15.0,2.0,0.0
3338,81.0,12.0,15.0,3.0,0.0
3339,52.0,9.0,90.0,5.0,0.0
3340,83.0,12.0,15.0,2.0,0.0
3341,80.0,0.0,15.0,3.0,0.0
3342,85.0,0.0,15.0,2.0,0.0
3343,81.0,12.0,15.0,3.0,0.0
3344,83.0,0.0,15.0,2.0,0.0
3345,80.0,23.0,15.0,3.0,0.0
3346,78.0,0.0,20.0,3.0,0.0
3347,81.0,15.0,20.0,2.0,0.0
3348,80.0,87.0,20.0,3.0,0.0
3349,83.0,0.0,20.0,2.0,0.0
3350,57.0,96.0,90.0,5.0,0.0
3351,81.0,0.0,90.0,3.0,0.0
3352,85.0,0.0,90.0,2.0,0.0
3353,78.0,0.0,180.0,2.0,0.0
3354,69.0,0.0,180.0,3.0,0.0
3355,62.0,96.0,90.0,5.0,0.0
3356,61.0,96.0,90.0,5.0,0.0
3357,71.0,96.0,90.0,3.0,0.0
3358,59.0,0.0,90.0,5.0,0.0
3359,80.0,0.0,90.0,2.0,0.0
3360,61.0,0.0,90.0,5.0,0.0
3361,77.0,54.0,90.0,2.0,0.0
3362,68.0,0.0,180.0,3.0,0.0
3363,75.0,42.0,40.0,2.0,0.0
3364,59.0,6.0,90.0,5.0,0.0
3365,73.0,48.0,40.0,2.0,0.0
3366,73.0,42.0,40.0,3.0,0.0
3367,57.0,0.0,90.0,5.0,0.0
3368,78.0,6.0,90.0,2.0,0.0
3369,75.0,48.0,40.0,3.0,0.0
3370,77.0,42.0,40.0,3.0,0.0
3371,56.0,6.0,90.0,5.0,0.0
3372,80.0,0.0,40.0,2.0,0.0
3373,81.0,0.0,40.0,2.0,0.0
3374,78.0,16.0,40.0,3.0,0.0
3375,54.0,10.0,90.0,5.0,0.0
3376,83.0,0.0,15.0,2.0,0.0
3377,80.0,12.0,15.0,3.0,0.0
3378,81.0,0.0,15.0,2.0,0.0
3379,78.0,12.0,15.0,3.0,0.0
3380,83.0,0.0,15.0,2.0,0.0
3381,80.0,12.0,15.0,3.0,0.0
3382,78.0,12.0,15.0,3.0,0.0
3383,81.0,0.0,15.0,2.0,0.0
3384,80.0,0.0,15.0,3.0,0.0
3385,83.0,12.0,15.0,2.0,0.0
3386,81.0,0.0,15.0,2.0,0.0
3387,78.0,12.0,15.0,3.0,0.0
3388,80.0,0.0,15.0,3.0,0.0
3389,83.0,2.0,15.0,2.0,0.0
3390,78.0,12.0,15.0,3.0,0.0
3391,81.0,0.0,15.0,2.0,0.0
3392,42.0,6.0,90.0,5.0,0.0
3393,80.0,12.0,15.0,3.0,0.0
3394,83.0,0.0,15.0,2.0,0.0
3395,81.0,0.0,15.0,2.0,0.0
3396,78.0,12.0,15.0,3.0,0.0
3397,83.0,0.0,15.0,2.0,0.0
3398,80.0,12.0,15.0,3.0,0.0
3399,78.0,0.0,15.0,3.0,0.0
3400,81.0,38.0,15.0,2.0,0.0
3401,80.0,0.0,40.0,2.0,0.0
3402,77.0,90.0,40.0,3.0,0.0
3403,77.0,0.0,270.0,3.0,0.0
3404,49.0,96.0,90.0,5.0,0.0
3405,80.0,96.0,270.0,2.0,0.0
3406,53.0,96.0,90.0,5.0,0.0
3407,56.0,0.0,90.0,5.0,0.0
3408,80.0,0.0,180.0,2.0,0.0
3409,77.0,0.0,180.0,3.0,0.0
3410,61.0,96.0,90.0,5.0,0.0
3411,59.0,96.0,90.0,5.0,0.0
3412,81.0,0.0,90.0,2.0,0.0
3413,57.0,0.0,90.0,5.0,0.0
3414,78.0,96.0,90.0,3.0,0.0
3415,56.0,0.0,90.0,5.0,0.0
3416,80.0,96.0,90.0,3.0,0.0
3417,83.0,96.0,180.0,2.0,0.0
3418,61.0,0.0,90.0,5.0,0.0
3419,76.0,22.0,270.0,3.0,0.0
3420,80.0,0.0,90.0,2.0,0.0
3421,49.0,96.0,90.0,5.0,0.0
3422,81.0,0.0,90.0,2.0,0.0
3423,54.0,0.0,90.0,5.0,0.0
3424,76.0,12.0,15.0,3.0,0.0
3425,59.0,10.0,90.0,5.0,0.0
3426,78.0,4.0,40.0,2.0,0.0
3427,75.0,12.0,15.0,3.0,0.0
3428,76.0,8.0,15.0,3.0,0.0
3429,75.0,12.0,15.0,3.0,0.0
3430,76.0,0.0,15.0,3.0,0.0
3431,80.0,12.0,15.0,2.0,0.0
3432,75.0,12.0,15.0,3.0,0.0
3433,78.0,0.0,15.0,2.0,0.0
3434,80.0,0.0,15.0,2.0,0.0
3435,76.0,2.0,15.0,3.0,0.0
3436,78.0,0.0,15.0,2.0,0.0
3437,75.0,12.0,15.0,3.0,0.0
3438,83.0,9.0,90.0,2.0,0.0
3439,47.0,0.0,90.0,5.0,0.0
3440,76.0,12.0,15.0,3.0,0.0
3441,75.0,12.0,15.0,3.0,0.0
3442,76.0,12.0,15.0,3.0,0.0
3443,75.0,23.0,15.0,3.0,0.0
3444,73.0,15.0,20.0,3.0,0.0
3445,75.0,45.0,20.0,3.0,0.0
3446,76.0,6.0,90.0,3.0,0.0
3447,52.0,9.0,570.0,5.0,0.0
3448,81.0,42.0,40.0,2.0,0.0
3449,80.0,48.0,40.0,2.0,0.0
3450,71.0,6.0,90.0,3.0,0.0
3451,78.0,42.0,40.0,2.0,0.0
3452,80.0,48.0,40.0,2.0,0.0
3453,76.0,0.0,40.0,2.0,0.0
3454,68.0,48.0,40.0,3.0,0.0
3455,69.0,48.0,40.0,3.0,0.0
3456,78.0,0.0,40.0,2.0,0.0
3457,71.0,48.0,40.0,3.0,0.0
3458,80.0,0.0,40.0,2.0,0.0
3459,82.0,16.0,40.0,2.0,0.0
3460,73.0,0.0,40.0,3.0,0.0
3461,83.0,0.0,15.0,2.0,0.0
3462,74.0,12.0,15.0,3.0,0.0
3463,82.0,12.0,15.0,2.0,0.0
3464,73.0,0.0,15.0,3.0,0.0
3465,83.0,12.0,15.0,2.0,0.0
3466,74.0,0.0,15.0,3.0,0.0
3467,73.0,0.0,15.0,3.0,0.0
3468,82.0,12.0,15.0,2.0,0.0
3469,74.0,0.0,15.0,3.0,0.0
3470,83.0,12.0,15.0,2.0,0.0
3471,73.0,12.0,15.0,3.0,0.0
3472,82.0,0.0,15.0,2.0,0.0
3473,83.0,0.0,15.0,2.0,0.0
3474,74.0,12.0,15.0,3.0,0.0
3475,82.0,12.0,15.0,2.0,0.0
3476,73.0,0.0,15.0,3.0,0.0
3477,83.0,0.0,15.0,2.0,0.0
3478,74.0,12.0,15.0,3.0,0.0
3479,82.0,0.0,15.0,2.0,0.0
3480,73.0,12.0,15.0,3.0,0.0
3481,74.0,12.0,15.0,3.0,0.0
3482,83.0,0.0,15.0,2.0,0.0
3483,73.0,0.0,15.0,3.0,0.0
3484,82.0,23.0,15.0,2.0,0.0
3485,71.0,0.0,20.0,3.0,0.0
3486,80.0,15.0,20.0,2.0,0.0
3487,73.0,45.0,20.0,3.0,0.0
3488,82.0,0.0,20.0,2.0,0.0
3489,83.0,0.0,40.0,2.0,0.0
3490,50.0,6.0,90.0,5.0,0.0
3491,74.0,42.0,40.0,3.0,0.0
3492,85.0,16.0,40.0,2.0,0.0
3493,76.0,0.0,40.0,3.0,0.0
3494,62.0,10.0,90.0,5.0,0.0
3495,86.0,12.0,15.0,2.0,0.0
3496,78.0,0.0,15.0,3.0,0.0
3497,76.0,12.0,15.0,3.0,0.0
3498,85.0,0.0,15.0,2.0,0.0
3499,78.0,12.0,15.0,3.0,0.0
3500,86.0,0.0,15.0,2.0,0.0
3501,85.0,12.0,15.0,2.0,0.0
3502,76.0,0.0,15.0,3.0,0.0
3503,78.0,12.0,15.0,3.0,0.0
3504,86.0,0.0,15.0,2.0,0.0
3505,85.0,12.0,15.0,2.0,0.0
3506,76.0,0.0,15.0,3.0,0.0
3507,86.0,2.0,15.0,2.0,0.0
3508,78.0,0.0,15.0,3.0,0.0
3509,76.0,0.0,15.0,3.0,0.0
3510,85.0,12.0,15.0,2.0,0.0
3511,78.0,0.0,15.0,3.0,0.0
3512,61.0,9.0,90.0,5.0,0.0
3513,86.0,12.0,15.0,2.0,0.0
3514,85.0,0.0,15.0,2.0,0.0
3515,76.0,12.0,15.0,3.0,0.0
3516,86.0,0.0,15.0,2.0,0.0
3517,78.0,12.0,15.0,3.0,0.0
3518,85.0,23.0,15.0,2.0,0.0
3519,76.0,0.0,15.0,3.0,0.0
3520,74.0,15.0,20.0,3.0,0.0
3521,83.0,0.0,20.0,2.0,0.0
3522,85.0,0.0,20.0,2.0,0.0
3523,76.0,87.0,20.0,3.0,0.0
3524,86.0,0.0,90.0,2.0,0.0
3525,59.0,0.0,90.0,5.0,0.0
3526,78.0,96.0,90.0,3.0,0.0
3527,83.0,96.0,90.0,2.0,0.0
3528,74.0,0.0,90.0,3.0,0.0
3529,52.0,0.0,90.0,5.0,0.0
3530,82.0,96.0,90.0,2.0,0.0
3531,73.0,0.0,90.0,3.0,0.0
3532,54.0,0.0,90.0,5.0,0.0
3533,83.0,0.0,270.0,2.0,0.0
3534,74.0,0.0,270.0,3.0,0.0
3535,47.0,96.0,90.0,5.0,0.0
3536,59.0,96.0,90.0,5.0,0.0
3537,57.0,96.0,90.0,5.0,0.0
3538,83.0,0.0,570.0,3.0,0.0
3539,56.0,96.0,90.0,5.0,0.0
3540,86.0,96.0,270.0,2.0,0.0
3541,54.0,96.0,90.0,5.0,0.0
3542,52.0,0.0,90.0,5.0,0.0
3543,45.0,96.0,90.0,5.0,0.0
3544,85.0,0.0,570.0,2.0,0.0
3545,57.0,96.0,90.0,5.0,0.0
3546,56.0,96.0,90.0,5.0,0.0
3547,81.0,10.0,360.0,3.0,0.0
3548,54.0,96.0,90.0,5.0,0.0
3549,52.0,96.0,90.0,5.0,0.0
3550,51.0,22.0,90.0,5.0,0.0
3551,56.0,0.0,90.0,5.0,0.0
3552,85.0,12.0,15.0,2.0,0.0
3553,83.0,12.0,15.0,2.0,0.0
3554,85.0,12.0,15.0,2.0,0.0
3555,83.0,12.0,15.0,2.0,0.0
3556,85.0,12.0,15.0,2.0,0.0
3557,83.0,12.0,15.0,2.0,0.0
3558,85.0,2.0,15.0,2.0,0.0
3559,83.0,12.0,15.0,2.0,0.0
3560,80.0,4.0,40.0,3.0,0.0
3561,85.0,12.0,15.0,2.0,0.0
3562,54.0,6.0,90.0,5.0,0.0
3563,83.0,12.0,15.0,2.0,0.0
3564,85.0,8.0,15.0,2.0,0.0
3565,83.0,23.0,15.0,2.0,0.0
3566,81.0,15.0,20.0,2.0,0.0
3567,78.0,3.0,40.0,3.0,0.0
3568,83.0,87.0,20.0,2.0,0.0
3569,85.0,0.0,90.0,2.0,0.0
3570,53.0,0.0,90.0,5.0,0.0
3571,80.0,96.0,90.0,3.0,0.0
3572,81.0,96.0,180.0,2.0,0.0
3573,54.0,96.0,90.0,5.0,0.0
3574,73.0,0.0,180.0,3.0,0.0
3575,52.0,0.0,90.0,5.0,0.0
3576,74.0,96.0,90.0,3.0,0.0
3577,50.0,0.0,90.0,5.0,0.0
3578,83.0,0.0,90.0,2.0,0.0
3579,71.0,96.0,180.0,3.0,0.0
3580,52.0,96.0,90.0,5.0,0.0
3581,80.0,0.0,180.0,2.0,0.0
3582,50.0,0.0,90.0,5.0,0.0
3583,81.0,0.0,90.0,2.0,0.0
3584,73.0,96.0,90.0,3.0,0.0
3585,49.0,0.0,90.0,5.0,0.0
3586,78.0,0.0,90.0,2.0,0.0
3587,69.0,0.0,90.0,3.0,0.0
3588,50.0,96.0,90.0,5.0,0.0
3589,86.0,0.0,180.0,2.0,0.0
3590,78.0,0.0,180.0,3.0,0.0
3591,49.0,96.0,90.0,5.0,0.0
3592,47.0,22.0,90.0,5.0,0.0
3593,52.0,10.0,90.0,5.0,0.0
3594,81.0,12.0,15.0,3.0,0.0
3595,85.0,0.0,15.0,2.0,0.0
3596,83.0,0.0,15.0,2.0,0.0
3597,80.0,12.0,15.0,3.0,0.0
3598,81.0,12.0,15.0,3.0,0.0
3599,85.0,0.0,15.0,2.0,0.0
3600,83.0,0.0,15.0,2.0,0.0
3601,80.0,12.0,15.0,3.0,0.0
3602,81.0,0.0,15.0,3.0,0.0
3603,85.0,12.0,15.0,2.0,0.0
3604,80.0,0.0,15.0,3.0,0.0
3605,83.0,12.0,15.0,2.0,0.0
3606,81.0,0.0,15.0,3.0,0.0
3607,85.0,2.0,15.0,2.0,0.0
3608,80.0,0.0,15.0,3.0,0.0
3609,83.0,12.0,15.0,2.0,0.0
3610,40.0,9.0,90.0,5.0,0.0
3611,85.0,0.0,15.0,2.0,0.0
3612,81.0,12.0,15.0,3.0,0.0
3613,83.0,0.0,15.0,2.0,0.0
3614,80.0,12.0,15.0,3.0,0.0
3615,85.0,12.0,15.0,2.0,0.0
3616,81.0,0.0,15.0,3.0,0.0
3617,83.0,11.0,15.0,2.0,0.0
3618,78.0,12.0,20.0,3.0,0.0
3619,81.0,12.0,20.0,2.0,0.0
3620,80.0,3.0,20.0,3.0,0.0
3621,83.0,75.0,20.0,2.0,0.0
3622,81.0,12.0,90.0,3.0,0.0
3623,45.0,0.0,90.0,5.0,0.0
3624,85.0,96.0,90.0,2.0,0.0
3625,78.0,96.0,180.0,2.0,0.0
3626,69.0,0.0,180.0,3.0,0.0
3627,50.0,96.0,90.0,5.0,0.0
3628,49.0,0.0,90.0,5.0,0.0
3629,80.0,0.0,90.0,2.0,0.0
3630,71.0,0.0,90.0,3.0,0.0
3631,47.0,54.0,90.0,5.0,0.0
3632,77.0,42.0,40.0,2.0,0.0
3633,68.0,22.0,180.0,3.0,0.0
3634,49.0,6.0,90.0,5.0,0.0
3635,80.0,90.0,40.0,2.0,0.0
3636,83.0,10.0,120.0,2.0,0.0
3637,53.0,0.0,90.0,5.0,0.0
3638,78.0,12.0,15.0,3.0,0.0
3639,49.0,6.0,90.0,5.0,0.0
3640,77.0,12.0,15.0,3.0,0.0
3641,78.0,2.0,15.0,3.0,0.0
3642,77.0,12.0,15.0,3.0,0.0
3643,85.0,4.0,40.0,2.0,0.0
3644,78.0,12.0,15.0,3.0,0.0
3645,77.0,12.0,15.0,3.0,0.0
3646,78.0,2.0,15.0,3.0,0.0
3647,77.0,44.0,15.0,3.0,0.0
3648,78.0,0.0,40.0,3.0,0.0
3649,83.0,42.0,40.0,2.0,0.0
3650,54.0,6.0,90.0,5.0,0.0
3651,73.0,0.0,40.0,3.0,0.0
3652,81.0,48.0,40.0,2.0,0.0
3653,80.0,0.0,40.0,2.0,0.0
3654,61.0,6.0,90.0,5.0,0.0
3655,71.0,42.0,40.0,3.0,0.0
3656,69.0,48.0,40.0,3.0,0.0
3657,78.0,0.0,40.0,2.0,0.0
3658,80.0,42.0,40.0,2.0,0.0
3659,49.0,6.0,90.0,5.0,0.0
3660,71.0,0.0,40.0,3.0,0.0
3661,68.0,0.0,40.0,3.0,0.0
3662,77.0,90.0,40.0,2.0,0.0
3663,69.0,6.0,270.0,3.0,0.0
3664,42.0,54.0,90.0,5.0,0.0
3665,78.0,0.0,270.0,2.0,0.0
3666,54.0,48.0,40.0,5.0,0.0
3667,56.0,48.0,40.0,5.0,0.0
3668,57.0,42.0,40.0,5.0,0.0
3669,54.0,90.0,40.0,5.0,0.0
3670,80.0,0.0,180.0,2.0,0.0
3671,77.0,0.0,180.0,3.0,0.0
3672,61.0,96.0,90.0,5.0,0.0
3673,59.0,96.0,90.0,5.0,0.0
3674,57.0,96.0,90.0,5.0,0.0
3675,78.0,0.0,90.0,3.0,0.0
3676,81.0,0.0,90.0,2.0,0.0
3677,56.0,96.0,90.0,5.0,0.0
3678,80.0,0.0,90.0,3.0,0.0
3679,83.0,0.0,180.0,2.0,0.0
3680,61.0,96.0,90.0,5.0,0.0
3681,76.0,22.0,270.0,3.0,0.0
3682,49.0,96.0,90.0,5.0,0.0
3683,80.0,0.0,90.0,2.0,0.0
3684,54.0,0.0,90.0,5.0,0.0
3685,81.0,0.0,90.0,2.0,0.0
3686,76.0,12.0,15.0,3.0,0.0
3687,59.0,10.0,90.0,5.0,0.0
3688,78.0,4.0,40.0,2.0,0.0
3689,75.0,12.0,15.0,3.0,0.0
3690,76.0,8.0,15.0,3.0,0.0
3691,75.0,12.0,15.0,3.0,0.0
3692,80.0,12.0,15.0,2.0,0.0
3693,76.0,0.0,15.0,3.0,0.0
3694,78.0,0.0,15.0,2.0,0.0
3695,75.0,12.0,15.0,3.0,0.0
3696,80.0,2.0,15.0,2.0,0.0
3697,76.0,0.0,15.0,3.0,0.0
3698,78.0,0.0,15.0,2.0,0.0
3699,75.0,12.0,15.0,3.0,0.0
3700,76.0,12.0,15.0,3.0,0.0
3701,47.0,9.0,90.0,5.0,0.0
3702,83.0,0.0,90.0,2.0,0.0
3703,75.0,12.0,15.0,3.0,0.0
3704,76.0,12.0,15.0,3.0,0.0
3705,75.0,23.0,15.0,3.0,0.0
3706,73.0,15.0,20.0,3.0,0.0
3707,75.0,45.0,20.0,3.0,0.0
3708,81.0,42.0,40.0,2.0,0.0
3709,52.0,9.0,570.0,5.0,0.0
3710,76.0,6.0,90.0,3.0,0.0
3711,80.0,48.0,40.0,2.0,0.0
3712,78.0,42.0,40.0,2.0,0.0
3713,71.0,6.0,90.0,3.0,0.0
3714,80.0,48.0,40.0,2.0,0.0
3715,76.0,48.0,40.0,2.0,0.0
3716,68.0,0.0,40.0,3.0,0.0
3717,69.0,48.0,40.0,3.0,0.0
3718,78.0,0.0,40.0,2.0,0.0
3719,80.0,48.0,40.0,2.0,0.0
3720,71.0,0.0,40.0,3.0,0.0
3721,82.0,0.0,40.0,2.0,0.0
3722,73.0,16.0,40.0,3.0,0.0
3723,74.0,12.0,15.0,3.0,0.0
3724,83.0,0.0,15.0,2.0,0.0
3725,82.0,0.0,15.0,2.0,0.0
3726,73.0,12.0,15.0,3.0,0.0
3727,74.0,12.0,15.0,3.0,0.0
3728,83.0,0.0,15.0,2.0,0.0
3729,82.0,12.0,15.0,2.0,0.0
3730,73.0,0.0,15.0,3.0,0.0
3731,83.0,12.0,15.0,2.0,0.0
3732,74.0,0.0,15.0,3.0,0.0
3733,82.0,0.0,15.0,2.0,0.0
3734,73.0,12.0,15.0,3.0,0.0
3735,83.0,12.0,15.0,2.0,0.0
3736,74.0,0.0,15.0,3.0,0.0
3737,82.0,0.0,15.0,2.0,0.0
3738,73.0,12.0,15.0,3.0,0.0
3739,83.0,0.0,15.0,2.0,0.0
3740,74.0,12.0,15.0,3.0,0.0
3741,82.0,12.0,15.0,2.0,0.0
3742,73.0,0.0,15.0,3.0,0.0
3743,74.0,0.0,15.0,3.0,0.0
3744,83.0,12.0,15.0,2.0,0.0
3745,73.0,0.0,15.0,3.0,0.0
3746,82.0,23.0,15.0,2.0,0.0
3747,80.0,0.0,20.0,2.0,0.0
3748,71.0,15.0,20.0,3.0,0.0
3749,82.0,0.0,20.0,2.0,0.0
3750,73.0,45.0,20.0,3.0,0.0
3751,83.0,0.0,40.0,2.0,0.0
3752,74.0,42.0,40.0,3.0,0.0
3753,50.0,6.0,90.0,5.0,0.0
3754,76.0,0.0,40.0,3.0,0.0
3755,85.0,16.0,40.0,2.0,0.0
3756,62.0,10.0,90.0,5.0,0.0
3757,86.0,0.0,15.0,2.0,0.0
3758,78.0,12.0,15.0,3.0,0.0
3759,76.0,12.0,15.0,3.0,0.0
3760,85.0,0.0,15.0,2.0,0.0
3761,86.0,12.0,15.0,2.0,0.0
3762,78.0,0.0,15.0,3.0,0.0
3763,85.0,12.0,15.0,2.0,0.0
3764,76.0,0.0,15.0,3.0,0.0
3765,86.0,12.0,15.0,2.0,0.0
3766,78.0,0.0,15.0,3.0,0.0
3767,85.0,12.0,15.0,2.0,0.0
3768,76.0,0.0,15.0,3.0,0.0
3769,86.0,0.0,15.0,2.0,0.0
3770,78.0,2.0,15.0,3.0,0.0
3771,76.0,12.0,15.0,3.0,0.0
3772,85.0,0.0,15.0,2.0,0.0
3773,86.0,0.0,15.0,2.0,0.0
3774,78.0,12.0,15.0,3.0,0.0
3775,61.0,9.0,90.0,5.0,0.0
3776,85.0,0.0,15.0,2.0,0.0
3777,76.0,12.0,15.0,3.0,0.0
3778,86.0,12.0,15.0,2.0,0.0
3779,78.0,0.0,15.0,3.0,0.0
3780,76.0,0.0,15.0,3.0,0.0
3781,85.0,23.0,15.0,2.0,0.0
3782,83.0,15.0,20.0,2.0,0.0
3783,74.0,0.0,20.0,3.0,0.0
3784,85.0,0.0,20.0,2.0,0.0
3785,76.0,87.0,20.0,3.0,0.0
3786,86.0,96.0,90.0,2.0,0.0
3787,59.0,0.0,90.0,5.0,0.0
3788,78.0,0.0,90.0,3.0,0.0
3789,74.0,0.0,90.0,3.0,0.0
3790,83.0,0.0,90.0,2.0,0.0
3791,52.0,96.0,90.0,5.0,0.0
3792,73.0,0.0,90.0,3.0,0.0
3793,54.0,0.0,90.0,5.0,0.0
3794,82.0,96.0,90.0,2.0,0.0
3795,74.0,0.0,270.0,3.0,0.0
3796,47.0,96.0,90.0,5.0,0.0
3797,83.0,96.0,270.0,2.0,0.0
3798,59.0,96.0,90.0,5.0,0.0
3799,57.0,0.0,90.0,5.0,0.0
3800,56.0,96.0,90.0,5.0,0.0
3801,83.0,96.0,570.0,3.0,0.0
3802,86.0,0.0,270.0,2.0,0.0
3803,54.0,96.0,90.0,5.0,0.0
3804,52.0,96.0,90.0,5.0,0.0
3805,45.0,96.0,90.0,5.0,0.0
3806,85.0,22.0,570.0,2.0,0.0
3807,57.0,96.0,90.0,5.0,0.0
3808,56.0,0.0,90.0,5.0,0.0
3809,54.0,96.0,90.0,5.0,0.0
3810,81.0,10.0,360.0,3.0,0.0
3811,52.0,96.0,90.0,5.0,0.0
3812,51.0,0.0,90.0,5.0,0.0
3813,56.0,0.0,90.0,5.0,0.0
3814,85.0,12.0,15.0,2.0,0.0
3815,83.0,12.0,15.0,2.0,0.0
3816,85.0,12.0,15.0,2.0,0.0
3817,83.0,12.0,15.0,2.0,0.0
3818,85.0,12.0,15.0,2.0,0.0
3819,83.0,12.0,15.0,2.0,0.0
3820,85.0,2.0,15.0,2.0,0.0
3821,83.0,12.0,15.0,2.0,0.0
3822,54.0,6.0,90.0,5.0,0.0
3823,85.0,12.0,15.0,2.0,0.0
3824,80.0,4.0,40.0,3.0,0.0
3825,83.0,12.0,15.0,2.0,0.0
3826,85.0,8.0,15.0,2.0,0.0
3827,83.0,23.0,15.0,2.0,0.0
3828,78.0,3.0,40.0,3.0,0.0
3829,81.0,15.0,20.0,2.0,0.0
3830,83.0,87.0,20.0,2.0,0.0
3831,53.0,0.0,90.0,5.0,0.0
3832,80.0,0.0,90.0,3.0,0.0
3833,85.0,96.0,90.0,2.0,0.0
3834,73.0,0.0,180.0,3.0,0.0
3835,54.0,96.0,90.0,5.0,0.0
3836,81.0,96.0,180.0,2.0,0.0
3837,52.0,0.0,90.0,5.0,0.0
3838,83.0,0.0,90.0,2.0,0.0
3839,74.0,96.0,90.0,3.0,0.0
3840,50.0,0.0,90.0,5.0,0.0
3841,52.0,96.0,90.0,5.0,0.0
3842,80.0,96.0,180.0,2.0,0.0
3843,71.0,0.0,180.0,3.0,0.0
3844,50.0,0.0,90.0,5.0,0.0
3845,73.0,96.0,90.0,3.0,0.0
3846,49.0,0.0,90.0,5.0,0.0
3847,81.0,0.0,90.0,2.0,0.0
3848,50.0,0.0,90.0,5.0,0.0
3849,69.0,0.0,90.0,3.0,0.0
3850,78.0,96.0,90.0,2.0,0.0
3851,86.0,22.0,180.0,2.0,0.0
3852,78.0,0.0,180.0,3.0,0.0
3853,49.0,96.0,90.0,5.0,0.0
3854,47.0,0.0,90.0,5.0,0.0
3855,81.0,0.0,15.0,3.0,0.0
3856,52.0,10.0,90.0,5.0,0.0
3857,85.0,12.0,15.0,2.0,0.0
3858,83.0,12.0,15.0,2.0,0.0
3859,80.0,0.0,15.0,3.0,0.0
3860,85.0,12.0,15.0,2.0,0.0
3861,81.0,0.0,15.0,3.0,0.0
3862,83.0,12.0,15.0,2.0,0.0
3863,80.0,0.0,15.0,3.0,0.0
3864,85.0,0.0,15.0,2.0,0.0
3865,81.0,12.0,15.0,3.0,0.0
3866,83.0,12.0,15.0,2.0,0.0
3867,80.0,0.0,15.0,3.0,0.0
3868,85.0,0.0,15.0,2.0,0.0
3869,81.0,2.0,15.0,3.0,0.0
3870,80.0,0.0,15.0,3.0,0.0
3871,83.0,12.0,15.0,2.0,0.0
3872,81.0,0.0,15.0,3.0,0.0
3873,40.0,9.0,90.0,5.0,0.0
3874,85.0,12.0,15.0,2.0,0.0
3875,80.0,12.0,15.0,3.0,0.0
3876,83.0,0.0,15.0,2.0,0.0
3877,81.0,0.0,15.0,3.0,0.0
3878,85.0,12.0,15.0,2.0,0.0
3879,78.0,12.0,20.0,3.0,0.0
3880,83.0,11.0,15.0,2.0,0.0
3881,81.0,12.0,20.0,2.0,0.0
3882,80.0,3.0,20.0,3.0,0.0
3883,83.0,75.0,20.0,2.0,0.0
3884,81.0,12.0,90.0,3.0,0.0
3885,45.0,0.0,90.0,5.0,0.0
3886,85.0,96.0,90.0,2.0,0.0
3887,69.0,96.0,180.0,3.0,0.0
3888,50.0,96.0,90.0,5.0,0.0
3889,78.0,0.0,180.0,2.0,0.0
3890,49.0,0.0,90.0,5.0,0.0
3891,71.0,0.0,90.0,3.0,0.0
3892,47.0,54.0,90.0,5.0,0.0
3893,80.0,0.0,90.0,2.0,0.0
3894,49.0,6.0,90.0,5.0,0.0
3895,77.0,42.0,40.0,2.0,0.0
3896,68.0,0.0,180.0,3.0,0.0
3897,80.0,90.0,40.0,2.0,0.0
3898,83.0,10.0,120.0,2.0,0.0
3899,53.0,22.0,90.0,5.0,0.0
3900,78.0,12.0,15.0,3.0,0.0
3901,49.0,6.0,90.0,5.0,0.0
3902,77.0,12.0,15.0,3.0,0.0
3903,78.0,2.0,15.0,3.0,0.0
3904,77.0,12.0,15.0,3.0,0.0
3905,85.0,4.0,40.0,2.0,0.0
3906,78.0,12.0,15.0,3.0,0.0
3907,77.0,12.0,15.0,3.0,0.0
3908,78.0,2.0,15.0,3.0,0.0
3909,77.0,44.0,15.0,3.0,0.0
3910,83.0,42.0,40.0,2.0,0.0
3911,54.0,6.0,90.0,5.0,0.0
3912,78.0,0.0,40.0,3.0,0.0
3913,81.0,48.0,40.0,2.0,0.0
3914,73.0,0.0,40.0,3.0,0.0
3915,80.0,42.0,40.0,2.0,0.0
3916,61.0,6.0,90.0,5.0,0.0
3917,71.0,0.0,40.0,3.0,0.0
3918,78.0,0.0,40.0,2.0,0.0
3919,69.0,48.0,40.0,3.0,0.0
3920,49.0,6.0,90.0,5.0,0.0
3921,71.0,0.0,40.0,3.0,0.0
3922,80.0,42.0,40.0,2.0,0.0
3923,68.0,282.0,40.0,3.0,0.0
3924,77.0,0.0,40.0,2.0,0.0
3925,69.0,0.0,270.0,3.0,0.0
3926,78.0,384.0,270.0,2.0,0.0
3927,42.0,0.0,270.0,5.0,0.0
3928,61.0,0.0,180.0,5.0,0.0
3929,69.0,54.0,90.0,13.0,0.0
3930,69.0,0.0,180.0,14.0,0.0
3931,76.0,0.0,90.0,13.0,0.0
3932,61.0,0.0,180.0,13.0,0.0
3933,73.0,0.0,90.0,3.0,0.0
3934,73.0,0.0,90.0,8.0,0.0
3935,49.0,0.0,180.0,12.0,0.0
3936,76.0,0.0,90.0,6.0,0.0
3937,76.0,0.0,90.0,2.0,0.0
3938,69.0,0.0,180.0,4.0,0.0
3939,61.0,0.0,180.0,11.0,0.0
3940,76.0,0.0,90.0,7.0,0.0
3941,57.0,0.0,90.0,0.0,0.0
3942,57.0,42.0,40.0,0.0,0.0
3943,79.0,0.0,90.0,2.0,0.0
3944,67.0,0.0,90.0,13.0,0.0
3945,76.0,0.0,90.0,13.0,0.0
3946,76.0,0.0,90.0,3.0,0.0
3947,76.0,0.0,90.0,8.0,0.0
3948,79.0,6.0,90.0,7.0,0.0
3949,79.0,0.0,90.0,6.0,0.0
3950,57.0,48.0,40.0,0.0,0.0
3951,69.0,0.0,90.0,4.0,0.0
3952,62.0,0.0,90.0,11.0,0.0
3953,74.0,0.0,90.0,3.0,0.0
3954,57.0,42.0,40.0,0.0,0.0
3955,74.0,0.0,90.0,8.0,0.0
3956,69.0,0.0,90.0,14.0,0.0
3957,78.0,0.0,90.0,13.0,0.0
3958,78.0,0.0,90.0,7.0,0.0
3959,62.0,0.0,90.0,5.0,0.0
3960,78.0,0.0,90.0,6.0,0.0
3961,62.0,0.0,90.0,13.0,0.0
3962,50.0,0.0,90.0,12.0,0.0
3963,69.0,0.0,90.0,13.0,0.0
3964,78.0,6.0,90.0,2.0,0.0
3965,57.0,16.0,40.0,0.0,0.0
3966,79.0,0.0,90.0,13.0,0.0
3967,73.0,0.0,90.0,13.0,0.0
3968,64.0,0.0,90.0,13.0,0.0
3969,64.0,0.0,90.0,5.0,0.0
3970,73.0,10.0,90.0,8.0,0.0
3971,76.0,0.0,90.0,6.0,0.0
3972,67.0,0.0,90.0,4.0,0.0
3973,64.0,0.0,90.0,11.0,0.0
3974,76.0,0.0,90.0,2.0,0.0
3975,73.0,0.0,90.0,3.0,0.0
3976,52.0,0.0,90.0,12.0,0.0
3977,57.0,0.0,90.0,0.0,0.0
3978,69.0,12.0,15.0,14.0,0.0
3979,57.0,0.0,90.0,1.0,0.0
3980,76.0,0.0,90.0,7.0,0.0
3981,67.0,12.0,15.0,14.0,0.0
3982,69.0,12.0,15.0,14.0,0.0
3983,67.0,12.0,15.0,14.0,0.0
3984,69.0,12.0,15.0,14.0,0.0
3985,67.0,12.0,15.0,14.0,0.0
3986,69.0,2.0,15.0,14.0,0.0
3987,67.0,44.0,15.0,14.0,0.0
3988,66.0,0.0,40.0,14.0,0.0
3989,74.0,42.0,40.0,6.0,0.0
3990,66.0,0.0,40.0,4.0,0.0
3991,79.0,0.0,90.0,13.0,0.0
3992,74.0,0.0,40.0,7.0,0.0
3993,55.0,0.0,90.0,12.0,0.0
3994,69.0,0.0,90.0,3.0,0.0
3995,74.0,0.0,90.0,13.0,0.0
3996,69.0,0.0,90.0,8.0,0.0
3997,67.0,0.0,90.0,13.0,0.0
3998,67.0,6.0,90.0,5.0,0.0
3999,67.0,0.0,90.0,11.0,0.0
4000,57.0,0.0,40.0,1.0,0.0
4001,74.0,0.0,40.0,2.0,0.0
4002,64.0,0.0,40.0,14.0,0.0
4003,73.0,0.0,40.0,2.0,0.0
4004,73.0,0.0,40.0,7.0,0.0
4005,73.0,48.0,40.0,6.0,0.0
4006,64.0,0.0,40.0,4.0,0.0
4007,57.0,0.0,40.0,1.0,0.0
4008,69.0,0.0,90.0,8.0,0.0
4009,66.0,0.0,90.0,13.0,0.0
4010,66.0,0.0,90.0,11.0,0.0
4011,66.0,0.0,90.0,4.0,0.0
4012,69.0,0.0,90.0,3.0,0.0
4013,66.0,0.0,90.0,14.0,0.0
4014,74.0,0.0,90.0,6.0,0.0
4015,74.0,0.0,90.0,2.0,0.0
4016,74.0,0.0,90.0,13.0,0.0
4017,66.0,0.0,90.0,5.0,0.0
4018,54.0,6.0,90.0,12.0,0.0
4019,57.0,42.0,40.0,1.0,0.0
4020,74.0,0.0,90.0,7.0,0.0
4021,57.0,90.0,40.0,1.0,0.0
4022,76.0,0.0,90.0,6.0,0.0
4023,52.0,0.0,90.0,12.0,0.0
4024,73.0,0.0,90.0,13.0,0.0
4025,79.0,0.0,90.0,13.0,0.0
4026,64.0,0.0,90.0,13.0,0.0
4027,67.0,0.0,90.0,4.0,0.0
4028,73.0,54.0,90.0,8.0,0.0
4029,64.0,0.0,90.0,5.0,0.0
4030,73.0,0.0,90.0,3.0,0.0
4031,67.0,0.0,90.0,14.0,0.0
4032,64.0,0.0,90.0,11.0,0.0
4033,57.0,0.0,90.0,1.0,0.0
4034,76.0,0.0,90.0,7.0,0.0
4035,76.0,0.0,90.0,2.0,0.0
4036,57.0,0.0,90.0,0.0,0.0
4037,62.0,0.0,40.0,5.0,0.0
4038,62.0,42.0,40.0,13.0,0.0
4039,76.0,0.0,90.0,13.0,0.0
4040,64.0,0.0,90.0,14.0,0.0
4041,67.0,0.0,90.0,13.0,0.0
4042,76.0,0.0,90.0,8.0,0.0
4043,64.0,0.0,90.0,4.0,0.0
4044,62.0,0.0,40.0,11.0,0.0
4045,79.0,0.0,90.0,7.0,0.0
4046,79.0,0.0,90.0,6.0,0.0
4047,79.0,6.0,90.0,2.0,0.0
4048,50.0,0.0,40.0,12.0,0.0
4049,76.0,0.0,90.0,3.0,0.0
4050,57.0,0.0,40.0,0.0,0.0
4051,49.0,0.0,40.0,12.0,0.0
4052,61.0,48.0,40.0,5.0,0.0
4053,61.0,0.0,40.0,11.0,0.0
4054,57.0,0.0,40.0,0.0,0.0
4055,61.0,0.0,40.0,13.0,0.0
4056,74.0,0.0,90.0,3.0,0.0
4057,57.0,42.0,40.0,0.0,0.0
4058,69.0,0.0,90.0,13.0,0.0
4059,78.0,0.0,90.0,13.0,0.0
4060,62.0,0.0,90.0,13.0,0.0
4061,69.0,6.0,90.0,4.0,0.0
4062,78.0,0.0,90.0,7.0,0.0
4063,62.0,0.0,90.0,5.0,0.0
4064,50.0,0.0,90.0,12.0,0.0
4065,69.0,0.0,90.0,14.0,0.0
4066,78.0,0.0,90.0,2.0,0.0
4067,62.0,0.0,90.0,11.0,0.0
4068,74.0,0.0,90.0,8.0,0.0
4069,78.0,0.0,90.0,6.0,0.0
4070,57.0,16.0,40.0,0.0,0.0
4071,61.0,0.0,90.0,5.0,0.0
4072,69.0,0.0,90.0,13.0,0.0
4073,76.0,0.0,90.0,13.0,0.0
4074,78.0,0.0,15.0,6.0,0.0
4075,69.0,0.0,180.0,14.0,0.0
4076,49.0,0.0,90.0,12.0,0.0
4077,57.0,0.0,90.0,1.0,0.0
4078,78.0,0.0,15.0,7.0,0.0
4079,61.0,0.0,90.0,13.0,0.0
4080,61.0,0.0,90.0,11.0,0.0
4081,76.0,10.0,90.0,8.0,0.0
4082,57.0,0.0,90.0,0.0,0.0
4083,69.0,0.0,180.0,4.0,0.0
4084,76.0,0.0,90.0,3.0,0.0
4085,78.0,12.0,15.0,2.0,0.0
4086,76.0,12.0,15.0,7.0,0.0
4087,76.0,0.0,15.0,6.0,0.0
4088,76.0,0.0,15.0,2.0,0.0
4089,78.0,0.0,15.0,2.0,0.0
4090,78.0,0.0,15.0,7.0,0.0
4091,78.0,12.0,15.0,6.0,0.0
4092,76.0,0.0,15.0,2.0,0.0
4093,76.0,12.0,15.0,7.0,0.0
4094,76.0,0.0,15.0,6.0,0.0
4095,78.0,0.0,15.0,6.0,0.0
4096,78.0,0.0,15.0,7.0,0.0
4097,78.0,12.0,15.0,2.0,0.0
4098,76.0,0.0,15.0,7.0,0.0
4099,76.0,12.0,15.0,2.0,0.0
4100,76.0,0.0,15.0,6.0,0.0
4101,78.0,2.0,15.0,6.0,0.0
4102,78.0,0.0,15.0,2.0,0.0
4103,78.0,0.0,15.0,7.0,0.0
4104,76.0,12.0,15.0,7.0,0.0
4105,76.0,0.0,15.0,6.0,0.0
4106,76.0,0.0,15.0,2.0,0.0
4107,69.0,0.0,90.0,13.0,0.0
4108,78.0,0.0,15.0,6.0,0.0
4109,62.0,4.0,40.0,5.0,0.0
4110,74.0,0.0,90.0,13.0,0.0
4111,78.0,12.0,15.0,2.0,0.0
4112,50.0,0.0,40.0,12.0,0.0
4113,78.0,0.0,15.0,7.0,0.0
4114,62.0,0.0,40.0,13.0,0.0
4115,74.0,6.0,90.0,3.0,0.0
4116,62.0,0.0,40.0,11.0,0.0
4117,74.0,0.0,90.0,8.0,0.0
4118,57.0,0.0,40.0,1.0,0.0
4119,76.0,0.0,15.0,7.0,0.0
4120,76.0,12.0,15.0,6.0,0.0
4121,76.0,0.0,15.0,2.0,0.0
4122,78.0,8.0,15.0,2.0,0.0
4123,78.0,0.0,15.0,7.0,0.0
4124,78.0,0.0,15.0,6.0,0.0
4125,76.0,0.0,15.0,2.0,0.0
4126,76.0,12.0,15.0,6.0,0.0
4127,76.0,0.0,15.0,7.0,0.0
4128,61.0,4.0,40.0,5.0,0.0
4129,61.0,0.0,40.0,13.0,0.0
4130,57.0,0.0,40.0,1.0,0.0
4131,78.0,12.0,15.0,6.0,0.0
4132,78.0,0.0,15.0,7.0,0.0
4133,78.0,0.0,15.0,2.0,0.0
4134,49.0,0.0,40.0,12.0,0.0
4135,61.0,0.0,40.0,11.0,0.0
4136,76.0,0.0,15.0,2.0,0.0
4137,76.0,0.0,15.0,6.0,0.0
4138,76.0,12.0,15.0,7.0,0.0
4139,78.0,0.0,15.0,2.0,0.0
4140,78.0,2.0,15.0,7.0,0.0
4141,78.0,0.0,15.0,6.0,0.0
4142,76.0,0.0,15.0,2.0,0.0
4143,76.0,0.0,15.0,7.0,0.0
4144,76.0,44.0,15.0,6.0,0.0
4145,73.0,0.0,90.0,13.0,0.0
4146,59.0,0.0,40.0,13.0,0.0
4147,73.0,0.0,90.0,8.0,0.0
4148,64.0,0.0,90.0,14.0,0.0
4149,73.0,0.0,90.0,3.0,0.0
4150,64.0,0.0,90.0,4.0,0.0
4151,59.0,0.0,40.0,11.0,0.0
4152,59.0,0.0,40.0,5.0,0.0
4153,64.0,0.0,90.0,13.0,0.0
4154,47.0,42.0,40.0,12.0,0.0
4155,57.0,0.0,40.0,1.0,0.0
4156,81.0,0.0,90.0,7.0,0.0
4157,81.0,0.0,90.0,2.0,0.0
4158,81.0,6.0,90.0,6.0,0.0
4159,57.0,0.0,40.0,13.0,0.0
4160,57.0,16.0,40.0,5.0,0.0
4161,57.0,0.0,40.0,1.0,0.0
4162,57.0,0.0,40.0,11.0,0.0
4163,45.0,0.0,40.0,12.0,0.0
4164,56.0,0.0,180.0,5.0,0.0
4165,74.0,0.0,90.0,6.0,0.0
4166,74.0,10.0,90.0,7.0,0.0
4167,45.0,0.0,15.0,12.0,0.0
4168,71.0,0.0,90.0,13.0,0.0
4169,57.0,0.0,15.0,13.0,0.0
4170,74.0,0.0,90.0,2.0,0.0
4171,64.0,0.0,90.0,1.0,0.0
4172,76.0,0.0,90.0,13.0,0.0
4173,57.0,12.0,15.0,11.0,0.0
4174,64.0,6.0,180.0,14.0,0.0
4175,64.0,0.0,180.0,4.0,0.0
4176,64.0,0.0,90.0,0.0,0.0
4177,71.0,0.0,180.0,8.0,0.0
4178,71.0,0.0,180.0,3.0,0.0
4179,56.0,12.0,15.0,13.0,0.0
4180,56.0,0.0,15.0,11.0,0.0
4181,44.0,0.0,15.0,12.0,0.0
4182,57.0,12.0,15.0,13.0,0.0
4183,57.0,0.0,15.0,11.0,0.0
4184,45.0,0.0,15.0,12.0,0.0
4185,44.0,12.0,15.0,12.0,0.0
4186,56.0,0.0,15.0,11.0,0.0
4187,56.0,0.0,15.0,13.0,0.0
4188,57.0,12.0,15.0,11.0,0.0
4189,57.0,0.0,15.0,13.0,0.0
4190,45.0,0.0,15.0,12.0,0.0
4191,44.0,0.0,15.0,12.0,0.0
4192,56.0,0.0,15.0,13.0,0.0
4193,56.0,12.0,15.0,11.0,0.0
4194,57.0,0.0,15.0,13.0,0.0
4195,57.0,2.0,15.0,11.0,0.0
4196,45.0,0.0,15.0,12.0,0.0
4197,44.0,0.0,15.0,12.0,0.0
4198,56.0,0.0,15.0,13.0,0.0
4199,56.0,12.0,15.0,11.0,0.0
4200,57.0,12.0,15.0,11.0,0.0
4201,64.0,4.0,40.0,0.0,0.0
4202,45.0,0.0,15.0,12.0,0.0
4203,71.0,0.0,90.0,6.0,0.0
4204,71.0,0.0,90.0,2.0,0.0
4205,64.0,0.0,90.0,13.0,0.0
4206,71.0,0.0,90.0,7.0,0.0
4207,71.0,0.0,90.0,13.0,0.0
4208,57.0,0.0,15.0,13.0,0.0
4209,56.0,12.0,15.0,13.0,0.0
4210,44.0,0.0,15.0,12.0,0.0
4211,56.0,0.0,15.0,11.0,0.0
4212,45.0,0.0,15.0,12.0,0.0
4213,57.0,0.0,15.0,13.0,0.0
4214,57.0,8.0,15.0,11.0,0.0
4215,44.0,12.0,15.0,12.0,0.0
4216,56.0,0.0,15.0,13.0,0.0
4217,56.0,0.0,15.0,11.0,0.0
4218,45.0,0.0,15.0,12.0,0.0
4219,64.0,4.0,40.0,0.0,0.0
4220,57.0,0.0,15.0,11.0,0.0
4221,57.0,12.0,15.0,13.0,0.0
4222,56.0,12.0,15.0,13.0,0.0
4223,44.0,0.0,15.0,12.0,0.0
4224,56.0,0.0,15.0,11.0,0.0
4225,45.0,0.0,15.0,12.0,0.0
4226,57.0,0.0,15.0,11.0,0.0
4227,57.0,2.0,15.0,13.0,0.0
4228,56.0,0.0,15.0,13.0,0.0
4229,44.0,0.0,15.0,12.0,0.0
4230,56.0,44.0,15.0,11.0,0.0
4231,64.0,0.0,90.0,13.0,0.0
4232,73.0,0.0,90.0,13.0,0.0
4233,57.0,6.0,90.0,13.0,0.0
4234,64.0,42.0,40.0,0.0,0.0
4235,45.0,0.0,90.0,12.0,0.0
4236,64.0,0.0,90.0,4.0,0.0
4237,57.0,0.0,90.0,11.0,0.0
4238,73.0,0.0,90.0,2.0,0.0
4239,69.0,0.0,90.0,8.0,0.0
4240,64.0,0.0,90.0,14.0,0.0
4241,57.0,0.0,90.0,5.0,0.0
4242,73.0,0.0,90.0,7.0,0.0
4243,73.0,0.0,90.0,6.0,0.0
4244,69.0,0.0,90.0,3.0,0.0
4245,64.0,48.0,40.0,0.0,0.0
4246,68.0,0.0,90.0,4.0,0.0
4247,59.0,0.0,90.0,5.0,0.0
4248,74.0,0.0,90.0,7.0,0.0
4249,59.0,0.0,90.0,14.0,0.0
4250,68.0,42.0,40.0,3.0,0.0
4251,47.0,6.0,90.0,12.0,0.0
4252,74.0,0.0,90.0,6.0,0.0
4253,59.0,0.0,90.0,11.0,0.0
4254,68.0,0.0,90.0,13.0,0.0
4255,74.0,0.0,90.0,13.0,0.0
4256,59.0,0.0,90.0,13.0,0.0
4257,74.0,0.0,90.0,2.0,0.0
4258,64.0,0.0,90.0,0.0,0.0
4259,64.0,0.0,90.0,1.0,0.0
4260,68.0,0.0,40.0,8.0,0.0
4261,69.0,0.0,40.0,8.0,0.0
4262,69.0,16.0,40.0,3.0,0.0
4263,71.0,12.0,15.0,3.0,0.0
4264,73.0,0.0,40.0,4.0,0.0
4265,66.0,0.0,90.0,13.0,0.0
4266,57.0,0.0,40.0,11.0,0.0
4267,64.0,0.0,40.0,1.0,0.0
4268,73.0,0.0,90.0,13.0,0.0
4269,71.0,0.0,15.0,8.0,0.0
4270,45.0,0.0,40.0,12.0,0.0
4271,61.0,6.0,90.0,14.0,0.0
4272,57.0,4.0,40.0,13.0,0.0
4273,78.0,0.0,180.0,7.0,0.0
4274,78.0,0.0,180.0,6.0,0.0
4275,57.0,0.0,40.0,5.0,0.0
4276,78.0,0.0,180.0,2.0,0.0
4277,69.0,0.0,15.0,8.0,0.0
4278,69.0,12.0,15.0,3.0,0.0
4279,71.0,0.0,15.0,8.0,0.0
4280,71.0,8.0,15.0,3.0,0.0
4281,69.0,0.0,15.0,8.0,0.0
4282,69.0,12.0,15.0,3.0,0.0
4283,71.0,0.0,40.0,4.0,0.0
4284,71.0,0.0,15.0,8.0,0.0
4285,56.0,0.0,40.0,13.0,0.0
4286,64.0,0.0,40.0,1.0,0.0
4287,56.0,4.0,40.0,11.0,0.0
4288,44.0,0.0,40.0,12.0,0.0
4289,71.0,12.0,15.0,3.0,0.0
4290,56.0,0.0,40.0,5.0,0.0
4291,69.0,0.0,15.0,8.0,0.0
4292,69.0,12.0,15.0,3.0,0.0
4293,71.0,2.0,15.0,8.0,0.0
4294,71.0,0.0,15.0,3.0,0.0
4295,69.0,0.0,15.0,8.0,0.0
4296,69.0,12.0,15.0,3.0,0.0
4297,57.0,6.0,90.0,11.0,0.0
4298,45.0,0.0,90.0,12.0,0.0
4299,71.0,0.0,15.0,8.0,0.0
4300,57.0,0.0,90.0,14.0,0.0
4301,57.0,0.0,90.0,5.0,0.0
4302,71.0,12.0,15.0,3.0,0.0
4303,78.0,0.0,90.0,13.0,0.0
4304,57.0,0.0,90.0,13.0,0.0
4305,64.0,4.0,40.0,1.0,0.0
4306,73.0,0.0,90.0,13.0,0.0
4307,73.0,0.0,90.0,4.0,0.0
4308,69.0,12.0,15.0,8.0,0.0
4309,69.0,0.0,15.0,3.0,0.0
4310,71.0,0.0,15.0,8.0,0.0
4311,71.0,8.0,15.0,3.0,0.0
4312,69.0,0.0,15.0,8.0,0.0
4313,69.0,23.0,15.0,3.0,0.0
4314,64.0,3.0,40.0,1.0,0.0
4315,68.0,15.0,20.0,8.0,0.0
4316,68.0,0.0,20.0,3.0,0.0
4317,69.0,13.0,20.0,3.0,0.0
4318,69.0,0.0,20.0,8.0,0.0
4319,44.0,0.0,90.0,12.0,0.0
4320,76.0,12.0,15.0,6.0,0.0
4321,64.0,0.0,90.0,0.0,0.0
4322,71.0,0.0,90.0,4.0,0.0
4323,71.0,0.0,90.0,3.0,0.0
4324,76.0,0.0,90.0,13.0,0.0
4325,56.0,10.0,90.0,13.0,0.0
4326,74.0,0.0,90.0,2.0,0.0
4327,64.0,0.0,180.0,14.0,0.0
4328,71.0,0.0,90.0,8.0,0.0
4329,56.0,0.0,90.0,5.0,0.0
4330,56.0,0.0,90.0,11.0,0.0
4331,64.0,0.0,90.0,1.0,0.0
4332,76.0,0.0,15.0,7.0,0.0
4333,71.0,0.0,90.0,13.0,0.0
4334,74.0,0.0,15.0,7.0,0.0
4335,74.0,12.0,15.0,6.0,0.0
4336,76.0,0.0,15.0,7.0,0.0
4337,76.0,12.0,15.0,6.0,0.0
4338,74.0,0.0,15.0,7.0,0.0
4339,74.0,12.0,15.0,6.0,0.0
4340,76.0,0.0,15.0,6.0,0.0
4341,76.0,12.0,15.0,7.0,0.0
4342,74.0,12.0,15.0,7.0,0.0
4343,74.0,0.0,15.0,6.0,0.0
4344,76.0,2.0,15.0,6.0,0.0
4345,76.0,0.0,15.0,7.0,0.0
4346,74.0,44.0,15.0,6.0,0.0
4347,74.0,0.0,15.0,7.0,0.0
4348,73.0,0.0,40.0,7.0,0.0
4349,57.0,42.0,40.0,13.0,0.0
4350,73.0,0.0,40.0,2.0,0.0
4351,73.0,0.0,90.0,13.0,0.0
4352,64.0,6.0,90.0,13.0,0.0
4353,64.0,0.0,90.0,4.0,0.0
4354,57.0,0.0,40.0,11.0,0.0
4355,69.0,0.0,90.0,3.0,0.0
4356,69.0,0.0,90.0,8.0,0.0
4357,45.0,0.0,40.0,12.0,0.0
4358,64.0,0.0,40.0,0.0,0.0
4359,73.0,0.0,40.0,6.0,0.0
4360,57.0,0.0,40.0,5.0,0.0
4361,64.0,48.0,40.0,0.0,0.0
4362,44.0,0.0,40.0,12.0,0.0
4363,71.0,0.0,40.0,6.0,0.0
4364,71.0,0.0,40.0,7.0,0.0
4365,71.0,0.0,40.0,2.0,0.0
4366,56.0,0.0,40.0,13.0,0.0
4367,56.0,0.0,40.0,5.0,0.0
4368,56.0,0.0,40.0,11.0,0.0
4369,64.0,0.0,90.0,4.0,0.0
4370,42.0,42.0,40.0,12.0,0.0
4371,76.0,0.0,90.0,6.0,0.0
4372,68.0,0.0,90.0,8.0,0.0
4373,64.0,0.0,40.0,0.0,0.0
4374,64.0,0.0,90.0,14.0,0.0
4375,76.0,0.0,90.0,2.0,0.0
4376,54.0,0.0,40.0,11.0,0.0
4377,68.0,0.0,90.0,13.0,0.0
4378,76.0,6.0,90.0,13.0,0.0
4379,54.0,0.0,40.0,13.0,0.0
4380,54.0,0.0,40.0,5.0,0.0
4381,76.0,0.0,90.0,7.0,0.0
4382,68.0,0.0,90.0,3.0,0.0
4383,52.0,0.0,40.0,5.0,0.0
4384,52.0,0.0,40.0,11.0,0.0
4385,52.0,16.0,40.0,13.0,0.0
4386,40.0,0.0,40.0,12.0,0.0
4387,64.0,0.0,40.0,0.0,0.0
4388,74.0,12.0,15.0,7.0,0.0
4389,64.0,0.0,90.0,1.0,0.0
4390,57.0,0.0,90.0,11.0,0.0
4391,69.0,6.0,180.0,3.0,0.0
4392,69.0,0.0,180.0,8.0,0.0
4393,57.0,0.0,90.0,13.0,0.0
4394,73.0,0.0,90.0,13.0,0.0
4395,64.0,0.0,90.0,13.0,0.0
4396,64.0,0.0,180.0,4.0,0.0
4397,64.0,0.0,180.0,14.0,0.0
4398,57.0,0.0,90.0,5.0,0.0
4399,73.0,0.0,180.0,2.0,0.0
4400,74.0,0.0,15.0,6.0,0.0
4401,45.0,0.0,90.0,12.0,0.0
4402,64.0,10.0,90.0,0.0,0.0
4403,73.0,12.0,15.0,6.0,0.0
4404,73.0,0.0,15.0,7.0,0.0
4405,74.0,12.0,15.0,7.0,0.0
4406,74.0,0.0,15.0,6.0,0.0
4407,73.0,12.0,15.0,7.0,0.0
4408,73.0,0.0,15.0,6.0,0.0
4409,74.0,12.0,15.0,7.0,0.0
4410,74.0,0.0,15.0,6.0,0.0
4411,73.0,12.0,15.0,6.0,0.0
4412,73.0,0.0,15.0,7.0,0.0
4413,74.0,0.0,15.0,7.0,0.0
4414,74.0,2.0,15.0,6.0,0.0
4415,73.0,12.0,15.0,7.0,0.0
4416,73.0,0.0,15.0,6.0,0.0
4417,74.0,0.0,15.0,6.0,0.0
4418,73.0,0.0,90.0,13.0,0.0
4419,56.0,0.0,40.0,11.0,0.0
4420,64.0,0.0,40.0,1.0,0.0
4421,56.0,4.0,40.0,5.0,0.0
4422,44.0,0.0,40.0,12.0,0.0
4423,74.0,12.0,15.0,7.0,0.0
4424,56.0,0.0,40.0,13.0,0.0
4425,76.0,0.0,90.0,13.0,0.0
4426,73.0,0.0,15.0,6.0,0.0
4427,73.0,12.0,15.0,7.0,0.0
4428,74.0,8.0,15.0,7.0,0.0
4429,74.0,0.0,15.0,6.0,0.0
4430,73.0,12.0,15.0,7.0,0.0
4431,73.0,0.0,15.0,6.0,0.0
4432,54.0,0.0,40.0,5.0,0.0
4433,54.0,0.0,40.0,11.0,0.0
4434,64.0,0.0,40.0,1.0,0.0
4435,74.0,0.0,15.0,6.0,0.0
4436,54.0,0.0,40.0,13.0,0.0
4437,74.0,12.0,15.0,7.0,0.0
4438,42.0,4.0,40.0,12.0,0.0
4439,73.0,0.0,15.0,7.0,0.0
4440,73.0,12.0,15.0,6.0,0.0
4441,74.0,2.0,15.0,7.0,0.0
4442,74.0,0.0,15.0,6.0,0.0
4443,73.0,44.0,15.0,6.0,0.0
4444,73.0,0.0,15.0,7.0,0.0
4445,56.0,0.0,90.0,5.0,0.0
4446,71.0,0.0,90.0,2.0,0.0
4447,56.0,0.0,90.0,11.0,0.0
4448,71.0,0.0,90.0,13.0,0.0
4449,76.0,0.0,90.0,13.0,0.0
4450,56.0,6.0,90.0,13.0,0.0
4451,44.0,0.0,90.0,12.0,0.0
4452,71.0,0.0,90.0,8.0,0.0
4453,71.0,0.0,90.0,6.0,0.0
4454,64.0,0.0,90.0,4.0,0.0
4455,71.0,0.0,90.0,3.0,0.0
4456,71.0,0.0,90.0,7.0,0.0
4457,64.0,0.0,90.0,14.0,0.0
4458,64.0,42.0,40.0,1.0,0.0
4459,64.0,16.0,40.0,1.0,0.0
4460,75.0,4.0,40.0,6.0,0.0
4461,75.0,0.0,40.0,7.0,0.0
4462,75.0,0.0,40.0,2.0,0.0
4463,69.0,0.0,90.0,3.0,0.0
4464,66.0,0.0,90.0,4.0,0.0
4465,71.0,0.0,90.0,1.0,0.0
4466,54.0,0.0,90.0,11.0,0.0
4467,75.0,6.0,90.0,13.0,0.0
4468,69.0,0.0,90.0,13.0,0.0
4469,54.0,0.0,90.0,5.0,0.0
4470,69.0,0.0,90.0,8.0,0.0
4471,54.0,0.0,90.0,13.0,0.0
4472,42.0,0.0,90.0,12.0,0.0
4473,71.0,0.0,90.0,0.0,0.0
4474,68.0,12.0,15.0,14.0,0.0
4475,66.0,12.0,15.0,14.0,0.0
4476,68.0,8.0,15.0,14.0,0.0
4477,66.0,12.0,15.0,14.0,0.0
4478,76.0,0.0,40.0,7.0,0.0
4479,68.0,12.0,15.0,14.0,0.0
4480,76.0,0.0,40.0,6.0,0.0
4481,76.0,4.0,40.0,2.0,0.0
4482,66.0,12.0,15.0,14.0,0.0
4483,68.0,2.0,15.0,14.0,0.0
4484,66.0,12.0,15.0,14.0,0.0
4485,64.0,0.0,40.0,14.0,0.0
4486,56.0,0.0,90.0,13.0,0.0
4487,76.0,0.0,90.0,13.0,0.0
4488,71.0,0.0,90.0,13.0,0.0
4489,56.0,0.0,90.0,5.0,0.0
4490,44.0,0.0,90.0,12.0,0.0
4491,71.0,0.0,180.0,8.0,0.0
4492,56.0,6.0,90.0,11.0,0.0
4493,64.0,4.0,40.0,4.0,0.0
4494,78.0,12.0,15.0,6.0,0.0
4495,71.0,0.0,180.0,3.0,0.0
4496,71.0,0.0,40.0,0.0,0.0
4497,78.0,0.0,15.0,7.0,0.0
4498,78.0,0.0,15.0,2.0,0.0
4499,76.0,0.0,15.0,2.0,0.0
4500,76.0,12.0,15.0,6.0,0.0
4501,76.0,0.0,15.0,7.0,0.0
4502,78.0,8.0,15.0,2.0,0.0
4503,78.0,0.0,15.0,7.0,0.0
4504,78.0,0.0,15.0,6.0,0.0
4505,76.0,0.0,15.0,2.0,0.0
4506,76.0,12.0,15.0,6.0,0.0
4507,76.0,0.0,15.0,7.0,0.0
4508,78.0,0.0,15.0,7.0,0.0
4509,71.0,4.0,40.0,0.0,0.0
4510,66.0,0.0,40.0,4.0,0.0
4511,78.0,0.0,15.0,2.0,0.0
4512,78.0,12.0,15.0,6.0,0.0
4513,66.0,0.0,40.0,14.0,0.0
4514,76.0,0.0,15.0,7.0,0.0
4515,76.0,0.0,15.0,6.0,0.0
4516,76.0,12.0,15.0,2.0,0.0
4517,78.0,0.0,15.0,6.0,0.0
4518,78.0,2.0,15.0,2.0,0.0
4519,78.0,0.0,15.0,7.0,0.0
4520,76.0,12.0,15.0,7.0,0.0
4521,76.0,0.0,15.0,6.0,0.0
4522,76.0,0.0,15.0,2.0,0.0
4523,52.0,0.0,90.0,11.0,0.0
4524,40.0,0.0,90.0,12.0,0.0
4525,68.0,6.0,90.0,4.0,0.0
4526,68.0,0.0,90.0,14.0,0.0
4527,78.0,12.0,15.0,7.0,0.0
4528,52.0,0.0,90.0,13.0,0.0
4529,80.0,0.0,90.0,13.0,0.0
4530,78.0,0.0,15.0,2.0,0.0
4531,78.0,0.0,15.0,6.0,0.0
4532,71.0,4.0,40.0,0.0,0.0
4533,71.0,0.0,90.0,13.0,0.0
4534,52.0,0.0,90.0,5.0,0.0
4535,76.0,0.0,15.0,2.0,0.0
4536,76.0,0.0,15.0,7.0,0.0
4537,76.0,12.0,15.0,6.0,0.0
4538,78.0,0.0,15.0,6.0,0.0
4539,78.0,0.0,15.0,2.0,0.0
4540,78.0,8.0,15.0,7.0,0.0
4541,76.0,0.0,15.0,6.0,0.0
4542,76.0,23.0,15.0,7.0,0.0
4543,76.0,0.0,15.0,2.0,0.0
4544,75.0,0.0,20.0,6.0,0.0
4545,75.0,15.0,20.0,2.0,0.0
4546,71.0,3.0,40.0,0.0,0.0
4547,75.0,0.0,20.0,7.0,0.0
4548,76.0,0.0,20.0,6.0,0.0
4549,76.0,0.0,20.0,2.0,0.0
4550,76.0,87.0,20.0,7.0,0.0
4551,78.0,54.0,90.0,6.0,0.0
4552,78.0,0.0,90.0,2.0,0.0
4553,66.0,0.0,180.0,4.0,0.0
4554,51.0,0.0,90.0,13.0,0.0
4555,78.0,0.0,90.0,13.0,0.0
4556,71.0,0.0,90.0,13.0,0.0
4557,66.0,0.0,180.0,14.0,0.0
4558,71.0,6.0,180.0,8.0,0.0
4559,71.0,0.0,90.0,1.0,0.0
4560,71.0,0.0,90.0,0.0,0.0
4561,71.0,0.0,180.0,3.0,0.0
4562,78.0,0.0,90.0,7.0,0.0
4563,51.0,0.0,90.0,5.0,0.0
4564,51.0,0.0,90.0,11.0,0.0
4565,39.0,0.0,90.0,12.0,0.0
4566,76.0,0.0,40.0,2.0,0.0
4567,49.0,0.0,40.0,11.0,0.0
4568,76.0,0.0,90.0,13.0,0.0
4569,37.0,0.0,40.0,12.0,0.0
4570,71.0,0.0,90.0,13.0,0.0
4571,76.0,0.0,40.0,7.0,0.0
4572,71.0,0.0,40.0,1.0,0.0
4573,76.0,0.0,40.0,6.0,0.0
4574,49.0,0.0,40.0,5.0,0.0
4575,49.0,42.0,40.0,13.0,0.0
4576,47.0,0.0,40.0,11.0,0.0
4577,47.0,0.0,40.0,5.0,0.0
4578,71.0,0.0,40.0,1.0,0.0
4579,35.0,0.0,40.0,12.0,0.0
4580,75.0,0.0,40.0,6.0,0.0
4581,75.0,0.0,40.0,2.0,0.0
4582,75.0,48.0,40.0,7.0,0.0
4583,47.0,0.0,40.0,13.0,0.0
4584,71.0,0.0,90.0,8.0,0.0
4585,76.0,0.0,90.0,6.0,0.0
4586,33.0,0.0,40.0,12.0,0.0
4587,45.0,0.0,40.0,5.0,0.0
4588,76.0,0.0,90.0,7.0,0.0
4589,45.0,42.0,40.0,13.0,0.0
4590,71.0,0.0,90.0,3.0,0.0
4591,68.0,0.0,90.0,14.0,0.0
4592,68.0,0.0,90.0,4.0,0.0
4593,76.0,0.0,90.0,2.0,0.0
4594,71.0,0.0,90.0,13.0,0.0
4595,45.0,0.0,40.0,11.0,0.0
4596,76.0,6.0,90.0,13.0,0.0
4597,71.0,0.0,40.0,1.0,0.0
4598,71.0,0.0,40.0,1.0,0.0
4599,32.0,0.0,40.0,12.0,0.0
4600,44.0,0.0,40.0,11.0,0.0
4601,44.0,0.0,40.0,5.0,0.0
4602,44.0,48.0,40.0,13.0,0.0
4603,69.0,0.0,90.0,13.0,0.0
4604,37.0,0.0,40.0,12.0,0.0
4605,49.0,0.0,40.0,5.0,0.0
4606,64.0,0.0,90.0,4.0,0.0
4607,73.0,0.0,40.0,3.0,0.0
4608,76.0,0.0,40.0,0.0,0.0
4609,81.0,0.0,40.0,6.0,0.0
4610,49.0,0.0,40.0,11.0,0.0
4611,49.0,42.0,40.0,13.0,0.0
4612,64.0,0.0,90.0,14.0,0.0
4613,76.0,6.0,90.0,13.0,0.0
4614,81.0,0.0,40.0,2.0,0.0
4615,73.0,0.0,90.0,1.0,0.0
4616,73.0,0.0,40.0,8.0,0.0
4617,81.0,0.0,40.0,7.0,0.0
4618,83.0,0.0,40.0,7.0,0.0
4619,45.0,0.0,40.0,13.0,0.0
4620,75.0,0.0,40.0,0.0,0.0
4621,33.0,0.0,40.0,12.0,0.0
4622,45.0,0.0,40.0,5.0,0.0
4623,83.0,0.0,40.0,6.0,0.0
4624,45.0,16.0,40.0,11.0,0.0
4625,75.0,0.0,40.0,8.0,0.0
4626,83.0,0.0,40.0,2.0,0.0
4627,75.0,0.0,40.0,3.0,0.0
4628,47.0,0.0,90.0,11.0,0.0
4629,35.0,0.0,90.0,12.0,0.0
4630,75.0,0.0,120.0,0.0,0.0
4631,78.0,0.0,120.0,2.0,0.0
4632,66.0,0.0,90.0,13.0,0.0
4633,78.0,0.0,120.0,7.0,0.0
4634,76.0,12.0,15.0,3.0,0.0
4635,47.0,0.0,90.0,5.0,0.0
4636,75.0,6.0,120.0,8.0,0.0
4637,71.0,4.0,40.0,1.0,0.0
4638,47.0,6.0,90.0,13.0,0.0
4639,78.0,0.0,120.0,6.0,0.0
4640,74.0,0.0,90.0,13.0,0.0
4641,71.0,0.0,90.0,14.0,0.0
4642,71.0,0.0,90.0,4.0,0.0
4643,75.0,12.0,15.0,3.0,0.0
4644,76.0,8.0,15.0,3.0,0.0
4645,75.0,12.0,15.0,3.0,0.0
4646,76.0,12.0,15.0,3.0,0.0
4647,71.0,4.0,40.0,1.0,0.0
4648,75.0,12.0,15.0,3.0,0.0
4649,76.0,2.0,15.0,3.0,0.0
4650,75.0,12.0,15.0,3.0,0.0
4651,47.0,0.0,90.0,13.0,0.0
4652,71.0,4.0,40.0,1.0,0.0
4653,35.0,0.0,90.0,12.0,0.0
4654,76.0,12.0,15.0,3.0,0.0
4655,74.0,0.0,90.0,13.0,0.0
4656,69.0,0.0,90.0,14.0,0.0
4657,69.0,0.0,90.0,4.0,0.0
4658,47.0,0.0,90.0,5.0,0.0
4659,47.0,6.0,90.0,11.0,0.0
4660,69.0,0.0,90.0,13.0,0.0
4661,75.0,12.0,15.0,3.0,0.0
4662,76.0,2.0,15.0,3.0,0.0
4663,75.0,38.0,15.0,3.0,0.0
4664,71.0,0.0,40.0,3.0,0.0
4665,71.0,0.0,40.0,8.0,0.0
4666,71.0,90.0,40.0,1.0,0.0
4667,76.0,0.0,40.0,6.0,0.0
4668,76.0,0.0,40.0,7.0,0.0
4669,76.0,0.0,40.0,0.0,0.0
4670,76.0,0.0,40.0,2.0,0.0
4671,76.0,0.0,270.0,2.0,0.0
4672,68.0,0.0,270.0,4.0,0.0
4673,40.0,0.0,90.0,5.0,0.0
4674,76.0,0.0,270.0,6.0,0.0
4675,28.0,54.0,90.0,12.0,0.0
4676,71.0,0.0,270.0,8.0,0.0
4677,71.0,6.0,270.0,1.0,0.0
4678,76.0,0.0,270.0,0.0,0.0
4679,40.0,0.0,90.0,11.0,0.0
4680,80.0,0.0,90.0,13.0,0.0
4681,40.0,0.0,90.0,13.0,0.0
4682,71.0,0.0,90.0,13.0,0.0
4683,71.0,0.0,270.0,3.0,0.0
4684,76.0,0.0,270.0,7.0,0.0
4685,68.0,0.0,270.0,14.0,0.0
4686,52.0,0.0,40.0,5.0,0.0
4687,64.0,48.0,40.0,13.0,0.0
4688,52.0,0.0,40.0,11.0,0.0
4689,52.0,0.0,40.0,13.0,0.0
4690,40.0,0.0,40.0,12.0,0.0
4691,50.0,0.0,40.0,11.0,0.0
4692,50.0,0.0,40.0,5.0,0.0
4693,38.0,0.0,40.0,12.0,0.0
4694,62.0,48.0,40.0,13.0,0.0
4695,50.0,0.0,40.0,13.0,0.0
4696,61.0,0.0,40.0,13.0,0.0
4697,49.0,0.0,40.0,13.0,0.0
4698,49.0,0.0,40.0,11.0,0.0
4699,37.0,0.0,40.0,12.0,0.0
4700,49.0,42.0,40.0,5.0,0.0
4701,47.0,90.0,40.0,13.0,0.0
4702,35.0,0.0,40.0,12.0,0.0
4703,47.0,0.0,40.0,11.0,0.0
4704,47.0,0.0,40.0,5.0,0.0
4705,59.0,0.0,40.0,13.0,0.0
4706,64.0,0.0,90.0,13.0,0.0
4707,76.0,0.0,90.0,6.0,0.0
4708,73.0,0.0,90.0,3.0,0.0
4709,69.0,0.0,180.0,4.0,0.0
4710,76.0,0.0,90.0,2.0,0.0
4711,73.0,0.0,90.0,8.0,0.0
4712,57.0,54.0,90.0,0.0,0.0
4713,69.0,0.0,180.0,14.0,0.0
4714,76.0,0.0,90.0,7.0,0.0
4715,45.0,0.0,90.0,5.0,0.0
4716,45.0,0.0,90.0,11.0,0.0
4717,45.0,0.0,90.0,13.0,0.0
4718,73.0,0.0,90.0,13.0,0.0
4719,33.0,0.0,90.0,12.0,0.0
4720,79.0,6.0,90.0,6.0,0.0
4721,76.0,0.0,90.0,8.0,0.0
4722,61.0,0.0,90.0,13.0,0.0
4723,79.0,0.0,90.0,2.0,0.0
4724,61.0,0.0,90.0,11.0,0.0
4725,76.0,0.0,90.0,13.0,0.0
4726,67.0,0.0,90.0,13.0,0.0
4727,76.0,0.0,90.0,3.0,0.0
4728,57.0,42.0,40.0,0.0,0.0
4729,49.0,0.0,90.0,12.0,0.0
4730,79.0,0.0,90.0,7.0,0.0
4731,61.0,0.0,90.0,5.0,0.0
4732,57.0,48.0,40.0,0.0,0.0
4733,62.0,0.0,90.0,5.0,0.0
4734,62.0,0.0,90.0,11.0,0.0
4735,78.0,0.0,90.0,7.0,0.0
4736,69.0,6.0,90.0,14.0,0.0
4737,57.0,42.0,40.0,0.0,0.0
4738,50.0,0.0,90.0,12.0,0.0
4739,78.0,0.0,90.0,13.0,0.0
4740,74.0,0.0,90.0,8.0,0.0
4741,74.0,0.0,90.0,3.0,0.0
4742,62.0,0.0,90.0,13.0,0.0
4743,78.0,0.0,90.0,6.0,0.0
4744,69.0,0.0,90.0,13.0,0.0
4745,78.0,0.0,90.0,2.0,0.0
4746,69.0,0.0,90.0,4.0,0.0
4747,57.0,16.0,40.0,0.0,0.0
4748,57.0,0.0,90.0,0.0,0.0
4749,73.0,0.0,90.0,3.0,0.0
4750,73.0,0.0,90.0,13.0,0.0
4751,79.0,0.0,90.0,13.0,0.0
4752,64.0,0.0,90.0,13.0,0.0
4753,76.0,0.0,90.0,2.0,0.0
4754,76.0,0.0,90.0,6.0,0.0
4755,52.0,10.0,90.0,12.0,0.0
4756,69.0,12.0,15.0,14.0,0.0
4757,64.0,0.0,90.0,11.0,0.0
4758,64.0,0.0,90.0,5.0,0.0
4759,67.0,0.0,90.0,4.0,0.0
4760,57.0,0.0,90.0,1.0,0.0
4761,73.0,0.0,90.0,8.0,0.0
4762,76.0,0.0,90.0,7.0,0.0
4763,67.0,12.0,15.0,14.0,0.0
4764,69.0,12.0,15.0,14.0,0.0
4765,67.0,12.0,15.0,14.0,0.0
4766,69.0,12.0,15.0,14.0,0.0
4767,67.0,12.0,15.0,14.0,0.0
4768,69.0,2.0,15.0,14.0,0.0
4769,67.0,44.0,15.0,14.0,0.0
4770,55.0,0.0,90.0,12.0,0.0
4771,74.0,0.0,40.0,6.0,0.0
4772,66.0,0.0,40.0,4.0,0.0
4773,66.0,0.0,40.0,14.0,0.0
4774,69.0,0.0,90.0,8.0,0.0
4775,74.0,6.0,90.0,13.0,0.0
4776,57.0,0.0,40.0,1.0,0.0
4777,79.0,0.0,90.0,13.0,0.0
4778,67.0,0.0,90.0,13.0,0.0
4779,74.0,42.0,40.0,7.0,0.0
4780,69.0,0.0,90.0,3.0,0.0
4781,74.0,0.0,40.0,2.0,0.0
4782,67.0,0.0,90.0,11.0,0.0
4783,67.0,0.0,90.0,5.0,0.0
4784,73.0,0.0,40.0,6.0,0.0
4785,64.0,0.0,40.0,4.0,0.0
4786,57.0,48.0,40.0,1.0,0.0
4787,64.0,0.0,40.0,14.0,0.0
4788,73.0,0.0,40.0,2.0,0.0
4789,73.0,0.0,40.0,7.0,0.0
4790,54.0,0.0,90.0,12.0,0.0
4791,66.0,0.0,90.0,11.0,0.0
4792,74.0,0.0,90.0,6.0,0.0
4793,66.0,0.0,90.0,5.0,0.0
4794,69.0,0.0,90.0,8.0,0.0
4795,74.0,0.0,90.0,13.0,0.0
4796,66.0,0.0,90.0,4.0,0.0
4797,66.0,0.0,90.0,13.0,0.0
4798,69.0,0.0,90.0,3.0,0.0
4799,74.0,0.0,90.0,7.0,0.0
4800,66.0,0.0,90.0,14.0,0.0
4801,74.0,6.0,90.0,2.0,0.0
4802,57.0,42.0,40.0,1.0,0.0
4803,57.0,90.0,40.0,1.0,0.0
4804,64.0,0.0,90.0,11.0,0.0
4805,76.0,0.0,90.0,6.0,0.0
4806,64.0,0.0,90.0,5.0,0.0
4807,57.0,0.0,90.0,0.0,0.0
4808,57.0,0.0,90.0,1.0,0.0
4809,73.0,54.0,90.0,3.0,0.0
4810,76.0,0.0,90.0,7.0,0.0
4811,73.0,0.0,90.0,13.0,0.0
4812,79.0,0.0,90.0,13.0,0.0
4813,64.0,0.0,90.0,13.0,0.0
4814,73.0,0.0,90.0,8.0,0.0
4815,67.0,0.0,90.0,4.0,0.0
4816,76.0,0.0,90.0,2.0,0.0
4817,52.0,0.0,90.0,12.0,0.0
4818,67.0,0.0,90.0,14.0,0.0
4819,79.0,0.0,90.0,6.0,0.0
4820,76.0,0.0,90.0,8.0,0.0
4821,76.0,0.0,90.0,3.0,0.0
4822,64.0,0.0,90.0,4.0,0.0
4823,64.0,0.0,90.0,14.0,0.0
4824,57.0,42.0,40.0,0.0,0.0
4825,50.0,0.0,40.0,12.0,0.0
4826,67.0,0.0,90.0,13.0,0.0
4827,76.0,0.0,90.0,13.0,0.0
4828,62.0,0.0,40.0,13.0,0.0
4829,62.0,0.0,40.0,11.0,0.0
4830,62.0,0.0,40.0,5.0,0.0
4831,79.0,0.0,90.0,2.0,0.0
4832,79.0,6.0,90.0,7.0,0.0
4833,61.0,0.0,40.0,11.0,0.0
4834,61.0,48.0,40.0,13.0,0.0
4835,57.0,0.0,40.0,0.0,0.0
4836,49.0,0.0,40.0,12.0,0.0
4837,61.0,0.0,40.0,5.0,0.0
4838,62.0,6.0,90.0,5.0,0.0
4839,57.0,42.0,40.0,0.0,0.0
4840,78.0,0.0,90.0,6.0,0.0
4841,62.0,0.0,90.0,11.0,0.0
4842,69.0,0.0,90.0,4.0,0.0
4843,74.0,0.0,90.0,8.0,0.0
4844,78.0,0.0,90.0,13.0,0.0
4845,74.0,0.0,90.0,3.0,0.0
4846,62.0,0.0,90.0,13.0,0.0
4847,78.0,0.0,90.0,7.0,0.0
4848,78.0,0.0,90.0,2.0,0.0
4849,50.0,0.0,90.0,12.0,0.0
4850,69.0,0.0,90.0,14.0,0.0
4851,69.0,0.0,90.0,13.0,0.0
4852,57.0,16.0,40.0,0.0,0.0
4853,49.0,0.0,90.0,12.0,0.0
4854,76.0,0.0,90.0,8.0,0.0
4855,57.0,0.0,90.0,0.0,0.0
4856,78.0,12.0,15.0,2.0,0.0
4857,78.0,0.0,15.0,7.0,0.0
4858,69.0,0.0,180.0,14.0,0.0
4859,57.0,0.0,90.0,1.0,0.0
4860,69.0,0.0,180.0,4.0,0.0
4861,61.0,10.0,90.0,5.0,0.0
4862,78.0,0.0,15.0,6.0,0.0
4863,76.0,0.0,90.0,3.0,0.0
4864,69.0,0.0,90.0,13.0,0.0
4865,76.0,0.0,90.0,13.0,0.0
4866,61.0,0.0,90.0,13.0,0.0
4867,61.0,0.0,90.0,11.0,0.0
4868,76.0,0.0,15.0,2.0,0.0
4869,76.0,0.0,15.0,7.0,0.0
4870,76.0,12.0,15.0,6.0,0.0
4871,78.0,0.0,15.0,7.0,0.0
4872,78.0,0.0,15.0,2.0,0.0
4873,78.0,12.0,15.0,6.0,0.0
4874,76.0,0.0,15.0,7.0,0.0
4875,76.0,0.0,15.0,2.0,0.0
4876,76.0,12.0,15.0,6.0,0.0
4877,78.0,0.0,15.0,2.0,0.0
4878,78.0,12.0,15.0,7.0,0.0
4879,78.0,0.0,15.0,6.0,0.0
4880,76.0,0.0,15.0,6.0,0.0
4881,76.0,12.0,15.0,2.0,0.0
4882,76.0,0.0,15.0,7.0,0.0
4883,78.0,2.0,15.0,6.0,0.0
4884,78.0,0.0,15.0,7.0,0.0
4885,78.0,0.0,15.0,2.0,0.0
4886,76.0,0.0,15.0,2.0,0.0
4887,76.0,12.0,15.0,7.0,0.0
4888,76.0,0.0,15.0,6.0,0.0
4889,78.0,12.0,15.0,6.0,0.0
4890,62.0,0.0,40.0,11.0,0.0
4891,74.0,0.0,90.0,3.0,0.0
4892,78.0,0.0,15.0,2.0,0.0
4893,78.0,0.0,15.0,7.0,0.0
4894,57.0,4.0,40.0,1.0,0.0
4895,50.0,0.0,40.0,12.0,0.0
4896,74.0,6.0,90.0,8.0,0.0
4897,62.0,0.0,40.0,13.0,0.0
4898,74.0,0.0,90.0,13.0,0.0
4899,62.0,0.0,40.0,5.0,0.0
4900,69.0,0.0,90.0,13.0,0.0
4901,76.0,12.0,15.0,6.0,0.0
4902,76.0,0.0,15.0,2.0,0.0
4903,76.0,0.0,15.0,7.0,0.0
4904,78.0,8.0,15.0,6.0,0.0
4905,78.0,0.0,15.0,2.0,0.0
4906,78.0,0.0,15.0,7.0,0.0
4907,76.0,0.0,15.0,2.0,0.0
4908,76.0,0.0,15.0,7.0,0.0
4909,76.0,12.0,15.0,6.0,0.0
4910,61.0,0.0,40.0,11.0,0.0
4911,61.0,4.0,40.0,5.0,0.0
4912,78.0,0.0,15.0,7.0,0.0
4913,78.0,12.0,15.0,2.0,0.0
4914,78.0,0.0,15.0,6.0,0.0
4915,61.0,0.0,40.0,13.0,0.0
4916,57.0,0.0,40.0,1.0,0.0
4917,49.0,0.0,40.0,12.0,0.0
4918,76.0,12.0,15.0,6.0,0.0
4919,76.0,0.0,15.0,2.0,0.0
4920,76.0,0.0,15.0,7.0,0.0
4921,78.0,0.0,15.0,7.0,0.0
4922,78.0,0.0,15.0,2.0,0.0
4923,78.0,2.0,15.0,6.0,0.0
4924,76.0,0.0,15.0,2.0,0.0
4925,76.0,0.0,15.0,7.0,0.0
4926,76.0,44.0,15.0,6.0,0.0
4927,73.0,0.0,90.0,3.0,0.0
4928,64.0,0.0,90.0,13.0,0.0
4929,73.0,0.0,90.0,13.0,0.0
4930,81.0,0.0,90.0,6.0,0.0
4931,59.0,0.0,40.0,13.0,0.0
4932,73.0,6.0,90.0,8.0,0.0
4933,57.0,0.0,40.0,1.0,0.0
4934,81.0,0.0,90.0,7.0,0.0
4935,59.0,42.0,40.0,5.0,0.0
4936,64.0,0.0,90.0,4.0,0.0
4937,47.0,0.0,40.0,12.0,0.0
4938,81.0,0.0,90.0,2.0,0.0
4939,59.0,0.0,40.0,11.0,0.0
4940,64.0,0.0,90.0,14.0,0.0
4941,57.0,16.0,40.0,5.0,0.0
4942,57.0,0.0,40.0,13.0,0.0
4943,45.0,0.0,40.0,12.0,0.0
4944,57.0,0.0,40.0,11.0,0.0
4945,57.0,0.0,40.0,1.0,0.0
4946,64.0,0.0,90.0,0.0,0.0
4947,45.0,12.0,15.0,12.0,0.0
4948,56.0,6.0,180.0,5.0,0.0
4949,74.0,0.0,90.0,2.0,0.0
4950,57.0,0.0,15.0,11.0,0.0
4951,71.0,0.0,180.0,3.0,0.0
4952,74.0,0.0,90.0,6.0,0.0
4953,64.0,0.0,90.0,1.0,0.0
4954,64.0,0.0,180.0,4.0,0.0
4955,57.0,0.0,15.0,13.0,0.0
4956,76.0,0.0,90.0,13.0,0.0
4957,71.0,0.0,90.0,13.0,0.0
4958,64.0,0.0,180.0,14.0,0.0
4959,71.0,0.0,180.0,8.0,0.0
4960,74.0,10.0,90.0,7.0,0.0
4961,56.0,0.0,15.0,11.0,0.0
4962,44.0,0.0,15.0,12.0,0.0
4963,56.0,12.0,15.0,13.0,0.0
4964,57.0,0.0,15.0,13.0,0.0
4965,45.0,0.0,15.0,12.0,0.0
4966,57.0,12.0,15.0,11.0,0.0
4967,56.0,0.0,15.0,13.0,0.0
4968,56.0,12.0,15.0,11.0,0.0
4969,44.0,0.0,15.0,12.0,0.0
4970,45.0,0.0,15.0,12.0,0.0
4971,57.0,12.0,15.0,13.0,0.0
4972,57.0,0.0,15.0,11.0,0.0
4973,44.0,0.0,15.0,12.0,0.0
4974,56.0,12.0,15.0,11.0,0.0
4975,56.0,0.0,15.0,13.0,0.0
4976,57.0,2.0,15.0,13.0,0.0
4977,57.0,0.0,15.0,11.0,0.0
4978,45.0,0.0,15.0,12.0,0.0
4979,56.0,0.0,15.0,13.0,0.0
4980,44.0,12.0,15.0,12.0,0.0
4981,56.0,0.0,15.0,11.0,0.0
4982,71.0,0.0,90.0,13.0,0.0
4983,57.0,0.0,15.0,13.0,0.0
4984,71.0,0.0,90.0,7.0,0.0
4985,57.0,12.0,15.0,11.0,0.0
4986,71.0,0.0,90.0,6.0,0.0
4987,71.0,0.0,90.0,2.0,0.0
4988,64.0,4.0,40.0,0.0,0.0
4989,64.0,0.0,90.0,13.0,0.0
4990,45.0,0.0,15.0,12.0,0.0
4991,44.0,0.0,15.0,12.0,0.0
4992,56.0,0.0,15.0,11.0,0.0
4993,56.0,12.0,15.0,13.0,0.0
4994,57.0,8.0,15.0,11.0,0.0
4995,57.0,0.0,15.0,13.0,0.0
4996,45.0,0.0,15.0,12.0,0.0
4997,44.0,0.0,15.0,12.0,0.0
4998,56.0,0.0,15.0,11.0,0.0
4999,56.0,12.0,15.0,13.0,0.0
5000,57.0,0.0,15.0,11.0,0.0
5001,45.0,0.0,15.0,12.0,0.0
5002,57.0,12.0,15.0,13.0,0.0
5003,64.0,4.0,40.0,0.0,0.0
5004,56.0,0.0,15.0,13.0,0.0
5005,56.0,0.0,15.0,11.0,0.0
5006,44.0,12.0,15.0,12.0,0.0
5007,45.0,0.0,15.0,12.0,0.0
5008,57.0,0.0,15.0,11.0,0.0
5009,57.0,2.0,15.0,13.0,0.0
5010,56.0,44.0,15.0,13.0,0.0
5011,44.0,0.0,15.0,12.0,0.0
5012,56.0,0.0,15.0,11.0,0.0
5013,69.0,0.0,90.0,8.0,0.0
5014,64.0,42.0,40.0,0.0,0.0
5015,45.0,6.0,90.0,12.0,0.0
5016,57.0,0.0,90.0,11.0,0.0
5017,73.0,0.0,90.0,2.0,0.0
5018,73.0,0.0,90.0,6.0,0.0
5019,57.0,0.0,90.0,5.0,0.0
5020,64.0,0.0,90.0,4.0,0.0
5021,69.0,0.0,90.0,3.0,0.0
5022,64.0,0.0,90.0,13.0,0.0
5023,57.0,0.0,90.0,13.0,0.0
5024,73.0,0.0,90.0,7.0,0.0
5025,73.0,0.0,90.0,13.0,0.0
5026,64.0,0.0,90.0,14.0,0.0
5027,64.0,48.0,40.0,0.0,0.0
5028,74.0,0.0,90.0,7.0,0.0
5029,59.0,0.0,90.0,5.0,0.0
5030,59.0,0.0,90.0,11.0,0.0
5031,64.0,0.0,90.0,0.0,0.0
5032,68.0,0.0,40.0,8.0,0.0
5033,74.0,0.0,90.0,6.0,0.0
5034,64.0,0.0,90.0,1.0,0.0
5035,68.0,42.0,40.0,3.0,0.0
5036,59.0,0.0,90.0,14.0,0.0
5037,68.0,0.0,90.0,13.0,0.0
5038,74.0,0.0,90.0,2.0,0.0
5039,74.0,0.0,90.0,13.0,0.0
5040,59.0,0.0,90.0,13.0,0.0
5041,68.0,6.0,90.0,4.0,0.0
5042,47.0,0.0,90.0,12.0,0.0
5043,69.0,16.0,40.0,3.0,0.0
5044,69.0,0.0,40.0,8.0,0.0
5045,61.0,0.0,90.0,14.0,0.0
5046,45.0,0.0,40.0,12.0,0.0
5047,78.0,0.0,180.0,7.0,0.0
5048,73.0,0.0,40.0,4.0,0.0
5049,71.0,0.0,15.0,3.0,0.0
5050,71.0,12.0,15.0,8.0,0.0
5051,78.0,6.0,180.0,6.0,0.0
5052,78.0,0.0,180.0,2.0,0.0
5053,64.0,4.0,40.0,1.0,0.0
5054,57.0,0.0,40.0,5.0,0.0
5055,66.0,6.0,90.0,13.0,0.0
5056,73.0,0.0,90.0,13.0,0.0
5057,57.0,0.0,40.0,13.0,0.0
5058,57.0,0.0,40.0,11.0,0.0
5059,69.0,0.0,15.0,8.0,0.0
5060,69.0,12.0,15.0,3.0,0.0
5061,71.0,0.0,15.0,8.0,0.0
5062,71.0,8.0,15.0,3.0,0.0
5063,69.0,12.0,15.0,8.0,0.0
5064,69.0,0.0,15.0,3.0,0.0
5065,44.0,0.0,40.0,12.0,0.0
5066,64.0,4.0,40.0,1.0,0.0
5067,56.0,0.0,40.0,13.0,0.0
5068,71.0,12.0,15.0,3.0,0.0
5069,56.0,0.0,40.0,5.0,0.0
5070,71.0,0.0,15.0,8.0,0.0
5071,56.0,0.0,40.0,11.0,0.0
5072,71.0,0.0,40.0,4.0,0.0
5073,69.0,12.0,15.0,3.0,0.0
5074,69.0,0.0,15.0,8.0,0.0
5075,71.0,0.0,15.0,8.0,0.0
5076,71.0,2.0,15.0,3.0,0.0
5077,69.0,0.0,15.0,3.0,0.0
5078,69.0,12.0,15.0,8.0,0.0
5079,78.0,0.0,90.0,13.0,0.0
5080,57.0,0.0,90.0,13.0,0.0
5081,57.0,0.0,90.0,5.0,0.0
5082,64.0,4.0,40.0,1.0,0.0
5083,57.0,0.0,90.0,11.0,0.0
5084,57.0,0.0,90.0,14.0,0.0
5085,71.0,12.0,15.0,8.0,0.0
5086,73.0,0.0,90.0,13.0,0.0
5087,73.0,0.0,90.0,4.0,0.0
5088,45.0,0.0,90.0,12.0,0.0
5089,71.0,0.0,15.0,3.0,0.0
5090,69.0,0.0,15.0,3.0,0.0
5091,69.0,12.0,15.0,8.0,0.0
5092,71.0,8.0,15.0,3.0,0.0
5093,71.0,0.0,15.0,8.0,0.0
5094,69.0,0.0,15.0,3.0,0.0
5095,69.0,23.0,15.0,8.0,0.0
5096,68.0,15.0,20.0,3.0,0.0
5097,68.0,0.0,20.0,8.0,0.0
5098,64.0,3.0,40.0,1.0,0.0
5099,69.0,0.0,20.0,8.0,0.0
5100,69.0,13.0,20.0,3.0,0.0
5101,44.0,0.0,90.0,12.0,0.0
5102,56.0,0.0,90.0,11.0,0.0
5103,71.0,0.0,90.0,4.0,0.0
5104,76.0,0.0,15.0,6.0,0.0
5105,56.0,0.0,90.0,5.0,0.0
5106,76.0,0.0,90.0,13.0,0.0
5107,64.0,0.0,90.0,1.0,0.0
5108,76.0,12.0,15.0,7.0,0.0
5109,64.0,0.0,180.0,14.0,0.0
5110,71.0,0.0,90.0,8.0,0.0
5111,74.0,10.0,90.0,2.0,0.0
5112,64.0,0.0,90.0,0.0,0.0
5113,71.0,0.0,90.0,3.0,0.0
5114,56.0,0.0,90.0,13.0,0.0
5115,71.0,0.0,90.0,13.0,0.0
5116,74.0,12.0,15.0,7.0,0.0
5117,74.0,0.0,15.0,6.0,0.0
5118,76.0,12.0,15.0,7.0,0.0
5119,76.0,0.0,15.0,6.0,0.0
5120,74.0,12.0,15.0,7.0,0.0
5121,74.0,0.0,15.0,6.0,0.0
5122,76.0,0.0,15.0,6.0,0.0
5123,76.0,12.0,15.0,7.0,0.0
5124,74.0,0.0,15.0,7.0,0.0
5125,74.0,12.0,15.0,6.0,0.0
5126,76.0,2.0,15.0,6.0,0.0
5127,76.0,0.0,15.0,7.0,0.0
5128,74.0,44.0,15.0,7.0,0.0
5129,74.0,0.0,15.0,6.0,0.0
5130,57.0,0.0,40.0,5.0,0.0
5131,73.0,0.0,40.0,7.0,0.0
5132,73.0,0.0,40.0,6.0,0.0
5133,64.0,0.0,40.0,0.0,0.0
5134,69.0,6.0,90.0,8.0,0.0
5135,73.0,0.0,40.0,2.0,0.0
5136,73.0,0.0,90.0,13.0,0.0
5137,64.0,0.0,90.0,13.0,0.0
5138,69.0,0.0,90.0,3.0,0.0
5139,45.0,0.0,40.0,12.0,0.0
5140,57.0,42.0,40.0,11.0,0.0
5141,64.0,0.0,90.0,4.0,0.0
5142,57.0,0.0,40.0,13.0,0.0
5143,56.0,0.0,40.0,5.0,0.0
5144,56.0,0.0,40.0,11.0,0.0
5145,71.0,0.0,40.0,6.0,0.0
5146,71.0,0.0,40.0,7.0,0.0
5147,44.0,0.0,40.0,12.0,0.0
5148,71.0,48.0,40.0,2.0,0.0
5149,64.0,0.0,40.0,0.0,0.0
5150,56.0,0.0,40.0,13.0,0.0
5151,64.0,0.0,90.0,14.0,0.0
5152,54.0,0.0,40.0,13.0,0.0
5153,42.0,42.0,40.0,12.0,0.0
5154,76.0,0.0,90.0,13.0,0.0
5155,68.0,0.0,90.0,13.0,0.0
5156,68.0,0.0,90.0,3.0,0.0
5157,76.0,6.0,90.0,7.0,0.0
5158,54.0,0.0,40.0,11.0,0.0
5159,64.0,0.0,40.0,0.0,0.0
5160,76.0,0.0,90.0,2.0,0.0
5161,76.0,0.0,90.0,6.0,0.0
5162,64.0,0.0,90.0,4.0,0.0
5163,54.0,0.0,40.0,5.0,0.0
5164,68.0,0.0,90.0,8.0,0.0
5165,52.0,0.0,40.0,13.0,0.0
5166,64.0,16.0,40.0,0.0,0.0
5167,52.0,0.0,40.0,5.0,0.0
5168,52.0,0.0,40.0,11.0,0.0
5169,40.0,0.0,40.0,12.0,0.0
5170,64.0,0.0,90.0,0.0,0.0
5171,57.0,0.0,90.0,5.0,0.0
5172,64.0,0.0,180.0,4.0,0.0
5173,45.0,10.0,90.0,12.0,0.0
5174,69.0,0.0,180.0,8.0,0.0
5175,64.0,0.0,90.0,1.0,0.0
5176,74.0,12.0,15.0,6.0,0.0
5177,64.0,0.0,180.0,14.0,0.0
5178,69.0,0.0,180.0,3.0,0.0
5179,73.0,0.0,90.0,13.0,0.0
5180,57.0,0.0,90.0,11.0,0.0
5181,73.0,6.0,180.0,2.0,0.0
5182,57.0,0.0,90.0,13.0,0.0
5183,64.0,0.0,90.0,13.0,0.0
5184,74.0,0.0,15.0,7.0,0.0
5185,73.0,12.0,15.0,6.0,0.0
5186,73.0,0.0,15.0,7.0,0.0
5187,74.0,12.0,15.0,7.0,0.0
5188,74.0,0.0,15.0,6.0,0.0
5189,73.0,12.0,15.0,7.0,0.0
5190,73.0,0.0,15.0,6.0,0.0
5191,74.0,0.0,15.0,6.0,0.0
5192,74.0,12.0,15.0,7.0,0.0
5193,73.0,0.0,15.0,6.0,0.0
5194,73.0,12.0,15.0,7.0,0.0
5195,74.0,0.0,15.0,7.0,0.0
5196,74.0,2.0,15.0,6.0,0.0
5197,73.0,12.0,15.0,7.0,0.0
5198,73.0,0.0,15.0,6.0,0.0
5199,73.0,0.0,90.0,13.0,0.0
5200,56.0,0.0,40.0,11.0,0.0
5201,44.0,0.0,40.0,12.0,0.0
5202,74.0,12.0,15.0,7.0,0.0
5203,74.0,0.0,15.0,6.0,0.0
5204,64.0,0.0,40.0,1.0,0.0
5205,56.0,4.0,40.0,5.0,0.0
5206,56.0,0.0,40.0,13.0,0.0
5207,76.0,0.0,90.0,13.0,0.0
5208,73.0,12.0,15.0,7.0,0.0
5209,73.0,0.0,15.0,6.0,0.0
5210,74.0,0.0,15.0,6.0,0.0
5211,74.0,8.0,15.0,7.0,0.0
5212,73.0,0.0,15.0,6.0,0.0
5213,73.0,12.0,15.0,7.0,0.0
5214,42.0,4.0,40.0,12.0,0.0
5215,74.0,0.0,15.0,7.0,0.0
5216,54.0,0.0,40.0,13.0,0.0
5217,64.0,0.0,40.0,1.0,0.0
5218,74.0,12.0,15.0,6.0,0.0
5219,54.0,0.0,40.0,5.0,0.0
5220,54.0,0.0,40.0,11.0,0.0
5221,73.0,0.0,15.0,7.0,0.0
5222,73.0,12.0,15.0,6.0,0.0
5223,74.0,2.0,15.0,7.0,0.0
5224,74.0,0.0,15.0,6.0,0.0
5225,73.0,44.0,15.0,6.0,0.0
5226,73.0,0.0,15.0,7.0,0.0
5227,71.0,0.0,90.0,3.0,0.0
5228,64.0,6.0,90.0,14.0,0.0
5229,71.0,0.0,90.0,7.0,0.0
5230,76.0,0.0,90.0,13.0,0.0
5231,56.0,0.0,90.0,11.0,0.0
5232,71.0,0.0,90.0,2.0,0.0
5233,71.0,0.0,90.0,13.0,0.0
5234,56.0,0.0,90.0,13.0,0.0
5235,44.0,0.0,90.0,12.0,0.0
5236,56.0,0.0,90.0,5.0,0.0
5237,64.0,42.0,40.0,1.0,0.0
5238,71.0,0.0,90.0,6.0,0.0
5239,71.0,0.0,90.0,8.0,0.0
5240,64.0,0.0,90.0,4.0,0.0
5241,64.0,16.0,40.0,1.0,0.0
5242,75.0,4.0,40.0,2.0,0.0
5243,54.0,6.0,90.0,11.0,0.0
5244,69.0,0.0,90.0,13.0,0.0
5245,54.0,0.0,90.0,5.0,0.0
5246,75.0,0.0,90.0,13.0,0.0
5247,69.0,0.0,90.0,8.0,0.0
5248,54.0,0.0,90.0,13.0,0.0
5249,69.0,0.0,90.0,3.0,0.0
5250,42.0,0.0,90.0,12.0,0.0
5251,71.0,0.0,90.0,0.0,0.0
5252,66.0,0.0,90.0,4.0,0.0
5253,75.0,0.0,40.0,6.0,0.0
5254,75.0,0.0,40.0,7.0,0.0
5255,71.0,0.0,90.0,1.0,0.0
5256,68.0,12.0,15.0,14.0,0.0
5257,66.0,12.0,15.0,14.0,0.0
5258,68.0,8.0,15.0,14.0,0.0
5259,66.0,12.0,15.0,14.0,0.0
5260,76.0,4.0,40.0,6.0,0.0
5261,76.0,0.0,40.0,2.0,0.0
5262,76.0,0.0,40.0,7.0,0.0
5263,68.0,12.0,15.0,14.0,0.0
5264,66.0,12.0,15.0,14.0,0.0
5265,68.0,2.0,15.0,14.0,0.0
5266,66.0,12.0,15.0,14.0,0.0
5267,71.0,0.0,180.0,3.0,0.0
5268,71.0,0.0,40.0,0.0,0.0
5269,56.0,0.0,90.0,13.0,0.0
5270,78.0,0.0,15.0,2.0,0.0
5271,76.0,0.0,90.0,13.0,0.0
5272,64.0,4.0,40.0,4.0,0.0
5273,71.0,0.0,90.0,13.0,0.0
5274,56.0,0.0,90.0,5.0,0.0
5275,44.0,0.0,90.0,12.0,0.0
5276,64.0,0.0,40.0,14.0,0.0
5277,71.0,0.0,180.0,8.0,0.0
5278,56.0,6.0,90.0,11.0,0.0
5279,78.0,0.0,15.0,7.0,0.0
5280,78.0,12.0,15.0,6.0,0.0
5281,76.0,12.0,15.0,2.0,0.0
5282,76.0,0.0,15.0,7.0,0.0
5283,76.0,0.0,15.0,6.0,0.0
5284,78.0,0.0,15.0,2.0,0.0
5285,78.0,8.0,15.0,6.0,0.0
5286,78.0,0.0,15.0,7.0,0.0
5287,76.0,0.0,15.0,2.0,0.0
5288,76.0,12.0,15.0,6.0,0.0
5289,76.0,0.0,15.0,7.0,0.0
5290,78.0,12.0,15.0,2.0,0.0
5291,66.0,4.0,40.0,4.0,0.0
5292,78.0,0.0,15.0,7.0,0.0
5293,78.0,0.0,15.0,6.0,0.0
5294,71.0,0.0,40.0,0.0,0.0
5295,66.0,0.0,40.0,14.0,0.0
5296,76.0,0.0,15.0,6.0,0.0
5297,76.0,12.0,15.0,2.0,0.0
5298,76.0,0.0,15.0,7.0,0.0
5299,78.0,0.0,15.0,2.0,0.0
5300,78.0,2.0,15.0,7.0,0.0
5301,78.0,0.0,15.0,6.0,0.0
5302,76.0,0.0,15.0,2.0,0.0
5303,76.0,12.0,15.0,6.0,0.0
5304,76.0,0.0,15.0,7.0,0.0
5305,52.0,0.0,90.0,11.0,0.0
5306,68.0,0.0,90.0,4.0,0.0
5307,52.0,6.0,90.0,13.0,0.0
5308,80.0,0.0,90.0,13.0,0.0
5309,78.0,0.0,15.0,7.0,0.0
5310,78.0,12.0,15.0,6.0,0.0
5311,71.0,0.0,90.0,13.0,0.0
5312,40.0,0.0,90.0,12.0,0.0
5313,52.0,0.0,90.0,5.0,0.0
5314,78.0,0.0,15.0,2.0,0.0
5315,71.0,4.0,40.0,0.0,0.0
5316,68.0,0.0,90.0,14.0,0.0
5317,76.0,0.0,15.0,2.0,0.0
5318,76.0,0.0,15.0,7.0,0.0
5319,76.0,12.0,15.0,6.0,0.0
5320,78.0,0.0,15.0,7.0,0.0
5321,78.0,0.0,15.0,6.0,0.0
5322,78.0,8.0,15.0,2.0,0.0
5323,76.0,0.0,15.0,6.0,0.0
5324,76.0,0.0,15.0,7.0,0.0
5325,76.0,23.0,15.0,2.0,0.0
5326,75.0,0.0,20.0,6.0,0.0
5327,71.0,3.0,40.0,0.0,0.0
5328,75.0,0.0,20.0,7.0,0.0
5329,75.0,15.0,20.0,2.0,0.0
5330,76.0,0.0,20.0,6.0,0.0
5331,76.0,87.0,20.0,2.0,0.0
5332,76.0,0.0,20.0,7.0,0.0
5333,78.0,0.0,90.0,6.0,0.0
5334,71.0,0.0,90.0,0.0,0.0
5335,71.0,0.0,90.0,13.0,0.0
5336,78.0,54.0,90.0,13.0,0.0
5337,51.0,0.0,90.0,13.0,0.0
5338,39.0,0.0,90.0,12.0,0.0
5339,71.0,0.0,180.0,3.0,0.0
5340,51.0,0.0,90.0,5.0,0.0
5341,71.0,0.0,90.0,1.0,0.0
5342,51.0,0.0,90.0,11.0,0.0
5343,78.0,0.0,90.0,2.0,0.0
5344,66.0,6.0,180.0,14.0,0.0
5345,66.0,0.0,180.0,4.0,0.0
5346,71.0,0.0,180.0,8.0,0.0
5347,78.0,0.0,90.0,7.0,0.0
5348,71.0,0.0,90.0,13.0,0.0
5349,76.0,0.0,90.0,13.0,0.0
5350,49.0,0.0,40.0,13.0,0.0
5351,71.0,0.0,40.0,1.0,0.0
5352,76.0,0.0,40.0,7.0,0.0
5353,76.0,0.0,40.0,2.0,0.0
5354,37.0,0.0,40.0,12.0,0.0
5355,49.0,42.0,40.0,11.0,0.0
5356,49.0,0.0,40.0,5.0,0.0
5357,76.0,0.0,40.0,6.0,0.0
5358,75.0,0.0,40.0,7.0,0.0
5359,71.0,0.0,40.0,1.0,0.0
5360,75.0,0.0,40.0,6.0,0.0
5361,35.0,0.0,40.0,12.0,0.0
5362,47.0,48.0,40.0,5.0,0.0
5363,75.0,0.0,40.0,2.0,0.0
5364,47.0,0.0,40.0,13.0,0.0
5365,47.0,0.0,40.0,11.0,0.0
5366,76.0,0.0,90.0,13.0,0.0
5367,71.0,0.0,90.0,13.0,0.0
5368,68.0,0.0,90.0,14.0,0.0
5369,76.0,0.0,90.0,6.0,0.0
5370,33.0,0.0,40.0,12.0,0.0
5371,45.0,42.0,40.0,13.0,0.0
5372,76.0,0.0,90.0,7.0,0.0
5373,71.0,0.0,40.0,1.0,0.0
5374,71.0,0.0,90.0,3.0,0.0
5375,76.0,0.0,90.0,2.0,0.0
5376,71.0,6.0,90.0,8.0,0.0
5377,45.0,0.0,40.0,11.0,0.0
5378,68.0,0.0,90.0,4.0,0.0
5379,45.0,0.0,40.0,5.0,0.0
5380,44.0,48.0,40.0,5.0,0.0
5381,32.0,0.0,40.0,12.0,0.0
5382,44.0,0.0,40.0,13.0,0.0
5383,44.0,0.0,40.0,11.0,0.0
5384,71.0,0.0,40.0,1.0,0.0
5385,64.0,0.0,90.0,14.0,0.0
5386,73.0,0.0,40.0,3.0,0.0
5387,81.0,42.0,40.0,2.0,0.0
5388,73.0,0.0,90.0,1.0,0.0
5389,49.0,0.0,40.0,11.0,0.0
5390,73.0,0.0,40.0,8.0,0.0
5391,49.0,0.0,40.0,5.0,0.0
5392,76.0,0.0,40.0,0.0,0.0
5393,69.0,0.0,90.0,13.0,0.0
5394,81.0,0.0,40.0,7.0,0.0
5395,76.0,0.0,90.0,13.0,0.0
5396,49.0,0.0,40.0,13.0,0.0
5397,37.0,0.0,40.0,12.0,0.0
5398,81.0,0.0,40.0,6.0,0.0
5399,64.0,6.0,90.0,4.0,0.0
5400,83.0,0.0,40.0,7.0,0.0
5401,83.0,0.0,40.0,6.0,0.0
5402,45.0,0.0,40.0,11.0,0.0
5403,83.0,0.0,40.0,2.0,0.0
5404,45.0,0.0,40.0,13.0,0.0
5405,75.0,0.0,40.0,0.0,0.0
5406,33.0,16.0,40.0,12.0,0.0
5407,75.0,0.0,40.0,3.0,0.0
5408,75.0,0.0,40.0,8.0,0.0
5409,45.0,0.0,40.0,5.0,0.0
5410,74.0,0.0,90.0,13.0,0.0
5411,71.0,4.0,40.0,1.0,0.0
5412,66.0,0.0,90.0,13.0,0.0
5413,78.0,6.0,120.0,6.0,0.0
5414,35.0,0.0,90.0,12.0,0.0
5415,78.0,0.0,120.0,7.0,0.0
5416,47.0,0.0,90.0,5.0,0.0
5417,71.0,6.0,90.0,14.0,0.0
5418,47.0,0.0,90.0,11.0,0.0
5419,75.0,0.0,120.0,8.0,0.0
5420,75.0,0.0,120.0,0.0,0.0
5421,78.0,0.0,120.0,2.0,0.0
5422,71.0,0.0,90.0,4.0,0.0
5423,47.0,0.0,90.0,13.0,0.0
5424,76.0,12.0,15.0,3.0,0.0
5425,75.0,12.0,15.0,3.0,0.0
5426,76.0,8.0,15.0,3.0,0.0
5427,75.0,12.0,15.0,3.0,0.0
5428,76.0,12.0,15.0,3.0,0.0
5429,71.0,4.0,40.0,1.0,0.0
5430,75.0,12.0,15.0,3.0,0.0
5431,76.0,2.0,15.0,3.0,0.0
5432,75.0,12.0,15.0,3.0,0.0
5433,47.0,0.0,90.0,11.0,0.0
5434,71.0,4.0,40.0,1.0,0.0
5435,35.0,0.0,90.0,12.0,0.0
5436,69.0,0.0,90.0,13.0,0.0
5437,69.0,0.0,90.0,14.0,0.0
5438,74.0,0.0,90.0,13.0,0.0
5439,47.0,6.0,90.0,13.0,0.0
5440,69.0,0.0,90.0,4.0,0.0
5441,76.0,12.0,15.0,3.0,0.0
5442,47.0,0.0,90.0,5.0,0.0
5443,75.0,12.0,15.0,3.0,0.0
5444,76.0,2.0,15.0,3.0,0.0
5445,75.0,38.0,15.0,3.0,0.0
5446,71.0,0.0,40.0,3.0,0.0
5447,76.0,0.0,40.0,0.0,0.0
5448,71.0,0.0,40.0,8.0,0.0
5449,76.0,0.0,40.0,7.0,0.0
5450,71.0,90.0,40.0,1.0,0.0
5451,76.0,0.0,40.0,6.0,0.0
5452,76.0,0.0,40.0,2.0,0.0
5453,80.0,0.0,270.0,13.0,0.0
5454,71.0,0.0,270.0,13.0,0.0
5455,76.0,0.0,270.0,7.0,0.0
5456,71.0,0.0,270.0,1.0,0.0
5457,28.0,96.0,90.0,12.0,0.0
5458,40.0,0.0,90.0,13.0,0.0
5459,68.0,0.0,270.0,14.0,0.0
5460,68.0,0.0,270.0,4.0,0.0
5461,76.0,0.0,270.0,2.0,0.0
5462,71.0,0.0,270.0,3.0,0.0
5463,76.0,0.0,270.0,0.0,0.0
5464,76.0,0.0,270.0,6.0,0.0
5465,40.0,0.0,90.0,11.0,0.0
5466,40.0,0.0,90.0,5.0,0.0
5467,71.0,96.0,270.0,8.0,0.0
5468,40.0,0.0,90.0,12.0,0.0
5469,52.0,0.0,90.0,11.0,0.0
5470,52.0,0.0,90.0,5.0,0.0
5471,52.0,96.0,90.0,13.0,0.0
5472,42.0,0.0,90.0,12.0,0.0
5473,54.0,0.0,90.0,5.0,0.0
5474,54.0,0.0,90.0,13.0,0.0
5475,54.0,0.0,90.0,11.0,0.0
5476,83.0,0.0,90.0,7.0,0.0
5477,76.0,0.0,90.0,13.0,0.0
5478,83.0,0.0,90.0,2.0,0.0
5479,71.0,0.0,180.0,4.0,0.0
5480,71.0,0.0,90.0,13.0,0.0
5481,76.0,0.0,90.0,3.0,0.0
5482,76.0,0.0,90.0,8.0,0.0
5483,83.0,0.0,90.0,6.0,0.0
5484,71.0,0.0,180.0,14.0,0.0
5485,56.0,6.0,180.0,11.0,0.0
5486,64.0,54.0,90.0,0.0,0.0
5487,44.0,0.0,180.0,12.0,0.0
5488,56.0,0.0,180.0,5.0,0.0
5489,56.0,0.0,180.0,13.0,0.0
5490,86.0,0.0,90.0,7.0,0.0
5491,83.0,0.0,90.0,3.0,0.0
5492,64.0,42.0,40.0,0.0,0.0
5493,83.0,0.0,90.0,8.0,0.0
5494,71.0,0.0,90.0,13.0,0.0
5495,74.0,0.0,90.0,13.0,0.0
5496,86.0,0.0,90.0,2.0,0.0
5497,86.0,0.0,90.0,6.0,0.0
5498,64.0,48.0,40.0,0.0,0.0
5499,57.0,0.0,90.0,5.0,0.0
5500,57.0,6.0,90.0,13.0,0.0
5501,64.0,42.0,40.0,0.0,0.0
5502,73.0,0.0,90.0,13.0,0.0
5503,64.0,0.0,90.0,13.0,0.0
5504,76.0,0.0,90.0,14.0,0.0
5505,45.0,0.0,90.0,12.0,0.0
5506,85.0,0.0,90.0,2.0,0.0
5507,81.0,0.0,90.0,3.0,0.0
5508,81.0,0.0,90.0,8.0,0.0
5509,85.0,0.0,90.0,7.0,0.0
5510,76.0,0.0,90.0,4.0,0.0
5511,57.0,0.0,90.0,11.0,0.0
5512,85.0,0.0,90.0,6.0,0.0
5513,64.0,16.0,40.0,0.0,0.0
5514,68.0,0.0,90.0,13.0,0.0
5515,74.0,0.0,90.0,4.0,0.0
5516,59.0,0.0,90.0,13.0,0.0
5517,47.0,0.0,90.0,12.0,0.0
5518,80.0,10.0,90.0,3.0,0.0
5519,59.0,0.0,90.0,11.0,0.0
5520,83.0,0.0,90.0,2.0,0.0
5521,74.0,0.0,90.0,13.0,0.0
5522,64.0,0.0,90.0,1.0,0.0
5523,64.0,0.0,90.0,0.0,0.0
5524,83.0,0.0,90.0,7.0,0.0
5525,59.0,0.0,90.0,5.0,0.0
5526,80.0,0.0,90.0,8.0,0.0
5527,76.0,12.0,15.0,14.0,0.0
5528,85.0,0.0,15.0,6.0,0.0
5529,74.0,0.0,15.0,14.0,0.0
5530,83.0,12.0,15.0,6.0,0.0
5531,76.0,0.0,15.0,14.0,0.0
5532,85.0,12.0,15.0,6.0,0.0
5533,74.0,0.0,15.0,14.0,0.0
5534,83.0,12.0,15.0,6.0,0.0
5535,85.0,12.0,15.0,6.0,0.0
5536,76.0,0.0,15.0,14.0,0.0
5537,83.0,12.0,15.0,6.0,0.0
5538,74.0,0.0,15.0,14.0,0.0
5539,76.0,0.0,15.0,14.0,0.0
5540,85.0,2.0,15.0,6.0,0.0
5541,74.0,44.0,15.0,14.0,0.0
5542,83.0,0.0,15.0,6.0,0.0
5543,50.0,0.0,90.0,12.0,0.0
5544,73.0,0.0,40.0,4.0,0.0
5545,73.0,0.0,40.0,14.0,0.0
5546,62.0,0.0,90.0,5.0,0.0
5547,81.0,42.0,40.0,7.0,0.0
5548,68.0,0.0,90.0,13.0,0.0
5549,76.0,6.0,90.0,13.0,0.0
5550,62.0,0.0,90.0,13.0,0.0
5551,76.0,0.0,90.0,8.0,0.0
5552,81.0,0.0,40.0,2.0,0.0
5553,62.0,0.0,90.0,11.0,0.0
5554,64.0,0.0,40.0,1.0,0.0
5555,76.0,0.0,90.0,3.0,0.0
5556,81.0,0.0,40.0,6.0,0.0
5557,80.0,0.0,40.0,2.0,0.0
5558,80.0,0.0,40.0,7.0,0.0
5559,71.0,0.0,40.0,4.0,0.0
5560,80.0,48.0,40.0,6.0,0.0
5561,71.0,0.0,40.0,14.0,0.0
5562,64.0,0.0,40.0,1.0,0.0
5563,64.0,42.0,40.0,1.0,0.0
5564,61.0,0.0,90.0,5.0,0.0
5565,73.0,6.0,90.0,4.0,0.0
5566,69.0,0.0,90.0,13.0,0.0
5567,49.0,0.0,90.0,12.0,0.0
5568,61.0,0.0,90.0,13.0,0.0
5569,81.0,0.0,90.0,2.0,0.0
5570,76.0,0.0,90.0,13.0,0.0
5571,76.0,0.0,90.0,3.0,0.0
5572,76.0,0.0,90.0,8.0,0.0
5573,73.0,0.0,90.0,14.0,0.0
5574,81.0,0.0,90.0,6.0,0.0
5575,81.0,0.0,90.0,7.0,0.0
5576,61.0,0.0,90.0,11.0,0.0
5577,64.0,90.0,40.0,1.0,0.0
5578,59.0,0.0,90.0,5.0,0.0
5579,64.0,0.0,90.0,0.0,0.0
5580,80.0,0.0,90.0,3.0,0.0
5581,83.0,54.0,90.0,6.0,0.0
5582,59.0,0.0,90.0,13.0,0.0
5583,74.0,0.0,90.0,4.0,0.0
5584,74.0,0.0,90.0,13.0,0.0
5585,80.0,0.0,90.0,8.0,0.0
5586,47.0,0.0,90.0,12.0,0.0
5587,74.0,0.0,90.0,14.0,0.0
5588,64.0,0.0,90.0,1.0,0.0
5589,83.0,0.0,90.0,2.0,0.0
5590,59.0,0.0,90.0,11.0,0.0
5591,83.0,0.0,90.0,7.0,0.0
5592,68.0,0.0,90.0,13.0,0.0
5593,83.0,0.0,90.0,8.0,0.0
5594,66.0,0.0,90.0,13.0,0.0
5595,86.0,0.0,90.0,6.0,0.0
5596,74.0,0.0,90.0,13.0,0.0
5597,45.0,0.0,40.0,12.0,0.0
5598,71.0,0.0,90.0,4.0,0.0
5599,57.0,42.0,40.0,5.0,0.0
5600,57.0,0.0,40.0,13.0,0.0
5601,57.0,0.0,40.0,11.0,0.0
5602,64.0,0.0,40.0,0.0,0.0
5603,83.0,0.0,90.0,3.0,0.0
5604,71.0,0.0,90.0,14.0,0.0
5605,86.0,0.0,90.0,2.0,0.0
5606,86.0,6.0,90.0,7.0,0.0
5607,44.0,0.0,40.0,12.0,0.0
5608,56.0,48.0,40.0,5.0,0.0
5609,56.0,0.0,40.0,11.0,0.0
5610,56.0,0.0,40.0,13.0,0.0
5611,64.0,0.0,40.0,0.0,0.0
5612,76.0,0.0,90.0,14.0,0.0
5613,81.0,6.0,90.0,3.0,0.0
5614,45.0,0.0,90.0,12.0,0.0
5615,64.0,42.0,40.0,0.0,0.0
5616,85.0,0.0,90.0,7.0,0.0
5617,57.0,0.0,90.0,5.0,0.0
5618,64.0,0.0,90.0,13.0,0.0
5619,73.0,0.0,90.0,13.0,0.0
5620,57.0,0.0,90.0,13.0,0.0
5621,81.0,0.0,90.0,8.0,0.0
5622,85.0,0.0,90.0,2.0,0.0
5623,57.0,0.0,90.0,11.0,0.0
5624,85.0,0.0,90.0,6.0,0.0
5625,76.0,0.0,90.0,4.0,0.0
5626,64.0,16.0,40.0,0.0,0.0
5627,83.0,0.0,90.0,8.0,0.0
5628,56.0,0.0,90.0,5.0,0.0
5629,76.0,0.0,180.0,4.0,0.0
5630,64.0,10.0,90.0,0.0,0.0
5631,71.0,0.0,90.0,13.0,0.0
5632,83.0,0.0,90.0,3.0,0.0
5633,76.0,6.0,180.0,14.0,0.0
5634,56.0,0.0,90.0,13.0,0.0
5635,64.0,0.0,90.0,13.0,0.0
5636,44.0,0.0,90.0,12.0,0.0
5637,56.0,0.0,90.0,11.0,0.0
5638,85.0,0.0,15.0,7.0,0.0
5639,85.0,0.0,15.0,6.0,0.0
5640,85.0,12.0,15.0,2.0,0.0
5641,64.0,0.0,90.0,1.0,0.0
5642,83.0,0.0,15.0,6.0,0.0
5643,83.0,12.0,15.0,7.0,0.0
5644,83.0,0.0,15.0,2.0,0.0
5645,85.0,12.0,15.0,7.0,0.0
5646,85.0,0.0,15.0,6.0,0.0
5647,85.0,0.0,15.0,2.0,0.0
5648,83.0,0.0,15.0,6.0,0.0
5649,83.0,12.0,15.0,2.0,0.0
5650,83.0,0.0,15.0,7.0,0.0
5651,85.0,0.0,15.0,2.0,0.0
5652,85.0,12.0,15.0,6.0,0.0
5653,85.0,0.0,15.0,7.0,0.0
5654,83.0,12.0,15.0,6.0,0.0
5655,83.0,0.0,15.0,2.0,0.0
5656,83.0,0.0,15.0,7.0,0.0
5657,85.0,2.0,15.0,6.0,0.0
5658,85.0,0.0,15.0,2.0,0.0
5659,85.0,0.0,15.0,7.0,0.0
5660,83.0,0.0,15.0,6.0,0.0
5661,83.0,0.0,15.0,2.0,0.0
5662,83.0,12.0,15.0,7.0,0.0
5663,69.0,0.0,90.0,13.0,0.0
5664,57.0,0.0,40.0,5.0,0.0
5665,85.0,0.0,15.0,2.0,0.0
5666,64.0,0.0,40.0,1.0,0.0
5667,57.0,0.0,40.0,11.0,0.0
5668,45.0,4.0,40.0,12.0,0.0
5669,76.0,0.0,90.0,13.0,0.0
5670,81.0,0.0,90.0,8.0,0.0
5671,57.0,0.0,40.0,13.0,0.0
5672,85.0,0.0,15.0,6.0,0.0
5673,81.0,0.0,90.0,3.0,0.0
5674,85.0,12.0,15.0,7.0,0.0
5675,83.0,0.0,15.0,7.0,0.0
5676,83.0,0.0,15.0,6.0,0.0
5677,83.0,12.0,15.0,2.0,0.0
5678,85.0,8.0,15.0,7.0,0.0
5679,85.0,0.0,15.0,2.0,0.0
5680,85.0,0.0,15.0,6.0,0.0
5681,83.0,12.0,15.0,2.0,0.0
5682,83.0,0.0,15.0,7.0,0.0
5683,83.0,0.0,15.0,6.0,0.0
5684,85.0,12.0,15.0,7.0,0.0
5685,56.0,0.0,40.0,13.0,0.0
5686,85.0,0.0,15.0,2.0,0.0
5687,56.0,0.0,40.0,11.0,0.0
5688,44.0,4.0,40.0,12.0,0.0
5689,56.0,0.0,40.0,5.0,0.0
5690,85.0,0.0,15.0,6.0,0.0
5691,64.0,0.0,40.0,1.0,0.0
5692,83.0,0.0,15.0,2.0,0.0
5693,83.0,12.0,15.0,7.0,0.0
5694,83.0,0.0,15.0,6.0,0.0
5695,85.0,2.0,15.0,7.0,0.0
5696,85.0,0.0,15.0,6.0,0.0
5697,85.0,0.0,15.0,2.0,0.0
5698,83.0,0.0,15.0,2.0,0.0
5699,83.0,0.0,15.0,7.0,0.0
5700,83.0,44.0,15.0,6.0,0.0
5701,42.0,0.0,40.0,12.0,0.0
5702,71.0,0.0,90.0,4.0,0.0
5703,71.0,0.0,90.0,14.0,0.0
5704,54.0,42.0,40.0,13.0,0.0
5705,71.0,0.0,90.0,13.0,0.0
5706,80.0,6.0,90.0,3.0,0.0
5707,64.0,0.0,40.0,1.0,0.0
5708,88.0,0.0,90.0,7.0,0.0
5709,80.0,0.0,90.0,13.0,0.0
5710,54.0,0.0,40.0,11.0,0.0
5711,80.0,0.0,90.0,8.0,0.0
5712,88.0,0.0,90.0,6.0,0.0
5713,88.0,0.0,90.0,2.0,0.0
5714,54.0,0.0,40.0,5.0,0.0
5715,52.0,0.0,40.0,11.0,0.0
5716,40.0,16.0,40.0,12.0,0.0
5717,52.0,0.0,40.0,5.0,0.0
5718,64.0,0.0,40.0,1.0,0.0
5719,52.0,0.0,40.0,13.0,0.0
5720,71.0,0.0,180.0,14.0,0.0
5721,52.0,0.0,15.0,11.0,0.0
5722,52.0,1.0,20.0,5.0,0.0
5723,71.0,0.0,90.0,0.0,0.0
5724,71.0,0.0,90.0,1.0,0.0
5725,81.0,9.0,90.0,2.0,0.0
5726,78.0,0.0,180.0,3.0,0.0
5727,81.0,0.0,90.0,6.0,0.0
5728,81.0,0.0,90.0,7.0,0.0
5729,78.0,0.0,180.0,8.0,0.0
5730,71.0,0.0,90.0,13.0,0.0
5731,78.0,0.0,90.0,13.0,0.0
5732,52.0,0.0,15.0,13.0,0.0
5733,71.0,0.0,180.0,4.0,0.0
5734,40.0,11.0,15.0,12.0,0.0
5735,51.0,0.0,15.0,13.0,0.0
5736,39.0,0.0,15.0,12.0,0.0
5737,51.0,12.0,15.0,11.0,0.0
5738,52.0,0.0,15.0,11.0,0.0
5739,52.0,0.0,15.0,13.0,0.0
5740,51.0,1.0,20.0,5.0,0.0
5741,40.0,11.0,15.0,12.0,0.0
5742,51.0,0.0,15.0,13.0,0.0
5743,51.0,12.0,15.0,11.0,0.0
5744,39.0,0.0,15.0,12.0,0.0
5745,52.0,0.0,15.0,11.0,0.0
5746,40.0,11.0,15.0,12.0,0.0
5747,52.0,0.0,15.0,13.0,0.0
5748,52.0,1.0,20.0,5.0,0.0
5749,51.0,0.0,15.0,11.0,0.0
5750,39.0,0.0,15.0,12.0,0.0
5751,51.0,12.0,15.0,13.0,0.0
5752,40.0,0.0,15.0,12.0,0.0
5753,52.0,2.0,15.0,13.0,0.0
5754,52.0,0.0,15.0,11.0,0.0
5755,51.0,1.0,20.0,5.0,0.0
5756,51.0,0.0,15.0,11.0,0.0
5757,39.0,12.0,15.0,12.0,0.0
5758,51.0,0.0,15.0,13.0,0.0
5759,52.0,0.0,15.0,11.0,0.0
5760,78.0,0.0,90.0,2.0,0.0
5761,40.0,0.0,15.0,12.0,0.0
5762,78.0,0.0,90.0,7.0,0.0
5763,71.0,3.0,40.0,0.0,0.0
5764,52.0,1.0,20.0,5.0,0.0
5765,78.0,0.0,90.0,6.0,0.0
5766,66.0,6.0,90.0,13.0,0.0
5767,75.0,0.0,90.0,13.0,0.0
5768,52.0,11.0,15.0,13.0,0.0
5769,51.0,12.0,15.0,13.0,0.0
5770,51.0,0.0,15.0,11.0,0.0
5771,39.0,0.0,15.0,12.0,0.0
5772,51.0,1.0,20.0,5.0,0.0
5773,52.0,0.0,15.0,13.0,0.0
5774,40.0,0.0,15.0,12.0,0.0
5775,52.0,8.0,15.0,11.0,0.0
5776,51.0,12.0,15.0,13.0,0.0
5777,51.0,0.0,15.0,11.0,0.0
5778,39.0,0.0,15.0,12.0,0.0
5779,52.0,0.0,15.0,13.0,0.0
5780,52.0,0.0,15.0,11.0,0.0
5781,40.0,11.0,15.0,12.0,0.0
5782,71.0,3.0,40.0,0.0,0.0
5783,52.0,1.0,20.0,5.0,0.0
5784,51.0,0.0,15.0,11.0,0.0
5785,39.0,0.0,15.0,12.0,0.0
5786,51.0,12.0,15.0,13.0,0.0
5787,52.0,2.0,15.0,13.0,0.0
5788,52.0,0.0,15.0,11.0,0.0
5789,51.0,1.0,20.0,5.0,0.0
5790,40.0,0.0,15.0,12.0,0.0
5791,51.0,0.0,15.0,11.0,0.0
5792,51.0,44.0,15.0,13.0,0.0
5793,39.0,0.0,15.0,12.0,0.0
5794,80.0,6.0,90.0,7.0,0.0
5795,76.0,0.0,90.0,3.0,0.0
5796,52.0,0.0,90.0,13.0,0.0
5797,80.0,0.0,90.0,13.0,0.0
5798,76.0,0.0,90.0,8.0,0.0
5799,80.0,0.0,90.0,6.0,0.0
5800,71.0,0.0,90.0,13.0,0.0
5801,71.0,0.0,90.0,4.0,0.0
5802,71.0,42.0,40.0,0.0,0.0
5803,52.0,0.0,90.0,11.0,0.0
5804,80.0,0.0,90.0,2.0,0.0
5805,52.0,0.0,90.0,5.0,0.0
5806,40.0,0.0,90.0,12.0,0.0
5807,71.0,0.0,90.0,14.0,0.0
5808,71.0,48.0,40.0,0.0,0.0
5809,81.0,0.0,90.0,13.0,0.0
5810,54.0,0.0,90.0,13.0,0.0
5811,81.0,0.0,90.0,7.0,0.0
5812,66.0,0.0,90.0,14.0,0.0
5813,71.0,6.0,90.0,1.0,0.0
5814,75.0,42.0,40.0,8.0,0.0
5815,75.0,0.0,90.0,13.0,0.0
5816,54.0,0.0,90.0,5.0,0.0
5817,75.0,0.0,40.0,3.0,0.0
5818,71.0,0.0,90.0,0.0,0.0
5819,81.0,0.0,90.0,2.0,0.0
5820,54.0,0.0,90.0,11.0,0.0
5821,81.0,0.0,90.0,6.0,0.0
5822,66.0,0.0,90.0,4.0,0.0
5823,42.0,0.0,90.0,12.0,0.0
5824,76.0,16.0,40.0,8.0,0.0
5825,76.0,0.0,40.0,3.0,0.0
5826,80.0,6.0,90.0,13.0,0.0
5827,52.0,0.0,40.0,13.0,0.0
5828,73.0,0.0,90.0,13.0,0.0
5829,85.0,0.0,180.0,7.0,0.0
5830,85.0,0.0,180.0,2.0,0.0
5831,52.0,4.0,40.0,11.0,0.0
5832,71.0,0.0,40.0,1.0,0.0
5833,52.0,0.0,40.0,5.0,0.0
5834,68.0,0.0,90.0,4.0,0.0
5835,85.0,0.0,180.0,6.0,0.0
5836,78.0,0.0,15.0,8.0,0.0
5837,40.0,0.0,40.0,12.0,0.0
5838,68.0,0.0,90.0,14.0,0.0
5839,78.0,12.0,15.0,3.0,0.0
5840,76.0,12.0,15.0,8.0,0.0
5841,76.0,0.0,15.0,3.0,0.0
5842,78.0,8.0,15.0,8.0,0.0
5843,78.0,0.0,15.0,3.0,0.0
5844,76.0,12.0,15.0,3.0,0.0
5845,76.0,0.0,15.0,8.0,0.0
5846,71.0,0.0,40.0,1.0,0.0
5847,78.0,0.0,15.0,3.0,0.0
5848,51.0,0.0,40.0,13.0,0.0
5849,78.0,12.0,15.0,8.0,0.0
5850,39.0,0.0,40.0,12.0,0.0
5851,51.0,0.0,40.0,5.0,0.0
5852,51.0,4.0,40.0,11.0,0.0
5853,76.0,0.0,15.0,3.0,0.0
5854,76.0,12.0,15.0,8.0,0.0
5855,78.0,0.0,15.0,8.0,0.0
5856,78.0,2.0,15.0,3.0,0.0
5857,76.0,12.0,15.0,8.0,0.0
5858,76.0,0.0,15.0,3.0,0.0
5859,52.0,0.0,90.0,5.0,0.0
5860,40.0,0.0,90.0,12.0,0.0
5861,64.0,0.0,90.0,4.0,0.0
5862,52.0,0.0,90.0,13.0,0.0
5863,64.0,6.0,90.0,14.0,0.0
5864,78.0,12.0,15.0,3.0,0.0
5865,78.0,0.0,15.0,8.0,0.0
5866,73.0,0.0,90.0,13.0,0.0
5867,76.0,0.0,90.0,13.0,0.0
5868,52.0,0.0,90.0,11.0,0.0
5869,71.0,4.0,40.0,1.0,0.0
5870,76.0,0.0,15.0,8.0,0.0
5871,76.0,12.0,15.0,3.0,0.0
5872,78.0,8.0,15.0,3.0,0.0
5873,78.0,0.0,15.0,8.0,0.0
5874,76.0,0.0,15.0,8.0,0.0
5875,76.0,23.0,15.0,3.0,0.0
5876,71.0,3.0,40.0,1.0,0.0
5877,75.0,15.0,20.0,8.0,0.0
5878,75.0,0.0,20.0,3.0,0.0
5879,76.0,87.0,20.0,3.0,0.0
5880,76.0,0.0,20.0,8.0,0.0
5881,78.0,0.0,90.0,8.0,0.0
5882,71.0,0.0,180.0,14.0,0.0
5883,71.0,0.0,90.0,0.0,0.0
5884,81.0,0.0,90.0,6.0,0.0
5885,51.0,0.0,90.0,11.0,0.0
5886,78.0,0.0,90.0,3.0,0.0
5887,39.0,0.0,90.0,12.0,0.0
5888,81.0,54.0,90.0,7.0,0.0
5889,81.0,0.0,90.0,2.0,0.0
5890,51.0,0.0,90.0,13.0,0.0
5891,78.0,0.0,90.0,13.0,0.0
5892,71.0,0.0,90.0,13.0,0.0
5893,71.0,0.0,90.0,1.0,0.0
5894,51.0,0.0,90.0,5.0,0.0
5895,71.0,0.0,180.0,4.0,0.0
5896,80.0,0.0,40.0,2.0,0.0
5897,76.0,0.0,90.0,8.0,0.0
5898,80.0,0.0,40.0,6.0,0.0
5899,40.0,0.0,40.0,12.0,0.0
5900,52.0,0.0,40.0,5.0,0.0
5901,52.0,0.0,40.0,11.0,0.0
5902,71.0,0.0,40.0,0.0,0.0
5903,80.0,42.0,40.0,7.0,0.0
5904,76.0,0.0,90.0,3.0,0.0
5905,71.0,6.0,90.0,13.0,0.0
5906,80.0,0.0,90.0,13.0,0.0
5907,52.0,0.0,40.0,13.0,0.0
5908,39.0,0.0,40.0,12.0,0.0
5909,51.0,0.0,40.0,11.0,0.0
5910,78.0,0.0,40.0,7.0,0.0
5911,51.0,0.0,40.0,5.0,0.0
5912,71.0,48.0,40.0,0.0,0.0
5913,78.0,0.0,40.0,6.0,0.0
5914,51.0,0.0,40.0,13.0,0.0
5915,78.0,0.0,40.0,2.0,0.0
5916,49.0,0.0,40.0,11.0,0.0
5917,49.0,0.0,40.0,5.0,0.0
5918,71.0,0.0,40.0,0.0,0.0
5919,71.0,6.0,90.0,14.0,0.0
5920,75.0,0.0,90.0,8.0,0.0
5921,75.0,0.0,90.0,3.0,0.0
5922,71.0,0.0,90.0,4.0,0.0
5923,83.0,0.0,90.0,2.0,0.0
5924,83.0,0.0,90.0,6.0,0.0
5925,66.0,0.0,90.0,13.0,0.0
5926,75.0,0.0,90.0,13.0,0.0
5927,83.0,0.0,90.0,7.0,0.0
5928,37.0,0.0,40.0,12.0,0.0
5929,49.0,42.0,40.0,13.0,0.0
5930,71.0,0.0,40.0,0.0,0.0
5931,47.0,0.0,40.0,11.0,0.0
5932,47.0,0.0,40.0,5.0,0.0
5933,35.0,0.0,40.0,12.0,0.0
5934,47.0,90.0,40.0,13.0,0.0
5935,52.0,0.0,90.0,13.0,0.0
5936,71.0,6.0,270.0,14.0,0.0
5937,40.0,0.0,90.0,12.0,0.0
5938,71.0,48.0,90.0,0.0,0.0
5939,52.0,0.0,90.0,5.0,0.0
5940,80.0,0.0,120.0,7.0,0.0
5941,71.0,0.0,270.0,4.0,0.0
5942,71.0,0.0,90.0,13.0,0.0
5943,52.0,0.0,90.0,11.0,0.0
5944,71.0,0.0,90.0,1.0,0.0
5945,80.0,0.0,90.0,13.0,0.0
5946,76.0,0.0,270.0,3.0,0.0
5947,80.0,0.0,120.0,2.0,0.0
5948,80.0,6.0,120.0,6.0,0.0
5949,76.0,0.0,270.0,8.0,0.0
5950,69.0,0.0,90.0,13.0,0.0
5951,78.0,6.0,90.0,13.0,0.0
5952,71.0,42.0,40.0,1.0,0.0
5953,50.0,0.0,40.0,11.0,0.0
5954,38.0,0.0,40.0,12.0,0.0
5955,50.0,0.0,40.0,13.0,0.0
5956,50.0,0.0,40.0,5.0,0.0
5957,71.0,0.0,40.0,1.0,0.0
5958,49.0,0.0,40.0,11.0,0.0
5959,81.0,0.0,40.0,7.0,0.0
5960,49.0,0.0,40.0,5.0,0.0
5961,81.0,0.0,40.0,2.0,0.0
5962,49.0,0.0,40.0,13.0,0.0
5963,81.0,0.0,40.0,6.0,0.0
5964,37.0,16.0,40.0,12.0,0.0
5965,47.0,4.0,40.0,13.0,0.0
5966,78.0,0.0,90.0,13.0,0.0
5967,71.0,0.0,40.0,1.0,0.0
5968,83.0,0.0,15.0,6.0,0.0
5969,83.0,0.0,15.0,7.0,0.0
5970,35.0,0.0,40.0,12.0,0.0
5971,69.0,0.0,90.0,13.0,0.0
5972,83.0,12.0,15.0,2.0,0.0
5973,47.0,0.0,40.0,11.0,0.0
5974,47.0,0.0,40.0,5.0,0.0
5975,81.0,12.0,15.0,2.0,0.0
5976,81.0,0.0,15.0,6.0,0.0
5977,81.0,0.0,15.0,7.0,0.0
5978,83.0,0.0,15.0,6.0,0.0
5979,83.0,0.0,15.0,7.0,0.0
5980,83.0,8.0,15.0,2.0,0.0
5981,81.0,12.0,15.0,6.0,0.0
5982,81.0,0.0,15.0,2.0,0.0
5983,81.0,0.0,15.0,7.0,0.0
5984,45.0,0.0,40.0,13.0,0.0
5985,45.0,4.0,40.0,5.0,0.0
5986,45.0,0.0,40.0,11.0,0.0
5987,33.0,0.0,40.0,12.0,0.0
5988,71.0,0.0,40.0,1.0,0.0
5989,83.0,0.0,15.0,2.0,0.0
5990,83.0,0.0,15.0,7.0,0.0
5991,83.0,12.0,15.0,6.0,0.0
5992,81.0,0.0,15.0,7.0,0.0
5993,81.0,0.0,15.0,2.0,0.0
5994,81.0,12.0,15.0,6.0,0.0
5995,80.0,0.0,15.0,2.0,0.0
5996,80.0,0.0,15.0,6.0,0.0
5997,80.0,2.0,15.0,7.0,0.0
5998,81.0,44.0,15.0,2.0,0.0
5999,81.0,0.0,15.0,7.0,0.0
6000,81.0,0.0,15.0,6.0,0.0
6001,83.0,42.0,40.0,2.0,0.0
6002,44.0,0.0,90.0,5.0,0.0
6003,71.0,6.0,90.0,13.0,0.0
6004,76.0,0.0,180.0,8.0,0.0
6005,76.0,0.0,90.0,0.0,0.0
6006,71.0,0.0,90.0,4.0,0.0
6007,71.0,0.0,40.0,14.0,0.0
6008,83.0,0.0,40.0,6.0,0.0
6009,44.0,0.0,90.0,13.0,0.0
6010,76.0,0.0,90.0,13.0,0.0
6011,44.0,0.0,90.0,11.0,0.0
6012,71.0,0.0,90.0,1.0,0.0
6013,83.0,0.0,40.0,7.0,0.0
6014,32.0,0.0,90.0,12.0,0.0
6015,76.0,0.0,180.0,3.0,0.0
6016,85.0,16.0,40.0,6.0,0.0
6017,69.0,0.0,40.0,14.0,0.0
6018,85.0,0.0,40.0,7.0,0.0
6019,85.0,0.0,40.0,2.0,0.0
6020,71.0,12.0,15.0,14.0,0.0
6021,76.0,0.0,40.0,0.0,0.0
6022,45.0,0.0,40.0,5.0,0.0
6023,45.0,4.0,40.0,11.0,0.0
6024,64.0,6.0,90.0,13.0,0.0
6025,86.0,0.0,15.0,2.0,0.0
6026,86.0,0.0,15.0,7.0,0.0
6027,73.0,0.0,90.0,13.0,0.0
6028,45.0,0.0,40.0,13.0,0.0
6029,33.0,0.0,40.0,12.0,0.0
6030,86.0,0.0,15.0,6.0,0.0
6031,71.0,0.0,15.0,4.0,0.0
6032,69.0,0.0,15.0,14.0,0.0
6033,85.0,0.0,15.0,2.0,0.0
6034,85.0,0.0,15.0,7.0,0.0
6035,69.0,12.0,15.0,4.0,0.0
6036,85.0,0.0,15.0,6.0,0.0
6037,86.0,8.0,15.0,7.0,0.0
6038,71.0,0.0,15.0,14.0,0.0
6039,86.0,0.0,15.0,2.0,0.0
6040,71.0,0.0,15.0,4.0,0.0
6041,86.0,0.0,15.0,6.0,0.0
6042,69.0,0.0,15.0,14.0,0.0
6043,85.0,0.0,15.0,6.0,0.0
6044,85.0,12.0,15.0,7.0,0.0
6045,69.0,0.0,15.0,4.0,0.0
6046,85.0,0.0,15.0,2.0,0.0
6047,71.0,0.0,15.0,14.0,0.0
6048,44.0,0.0,40.0,11.0,0.0
6049,44.0,0.0,40.0,5.0,0.0
6050,32.0,0.0,40.0,12.0,0.0
6051,86.0,0.0,15.0,7.0,0.0
6052,44.0,4.0,40.0,13.0,0.0
6053,86.0,12.0,15.0,2.0,0.0
6054,71.0,0.0,15.0,4.0,0.0
6055,76.0,0.0,40.0,0.0,0.0
6056,86.0,0.0,15.0,6.0,0.0
6057,85.0,0.0,15.0,2.0,0.0
6058,69.0,0.0,15.0,14.0,0.0
6059,85.0,0.0,15.0,7.0,0.0
6060,69.0,0.0,15.0,4.0,0.0
6061,85.0,12.0,15.0,6.0,0.0
6062,71.0,0.0,15.0,14.0,0.0
6063,86.0,0.0,15.0,2.0,0.0
6064,86.0,0.0,15.0,7.0,0.0
6065,71.0,2.0,15.0,4.0,0.0
6066,86.0,0.0,15.0,6.0,0.0
6067,85.0,0.0,15.0,2.0,0.0
6068,69.0,0.0,15.0,14.0,0.0
6069,69.0,12.0,15.0,4.0,0.0
6070,85.0,0.0,15.0,6.0,0.0
6071,85.0,0.0,15.0,7.0,0.0
6072,42.0,0.0,40.0,13.0,0.0
6073,42.0,4.0,40.0,5.0,0.0
6074,42.0,0.0,40.0,11.0,0.0
6075,30.0,0.0,40.0,12.0,0.0
6076,86.0,0.0,15.0,7.0,0.0
6077,76.0,0.0,40.0,0.0,0.0
6078,81.0,0.0,90.0,3.0,0.0
6079,71.0,0.0,15.0,4.0,0.0
6080,86.0,0.0,15.0,6.0,0.0
6081,81.0,0.0,90.0,8.0,0.0
6082,81.0,0.0,90.0,13.0,0.0
6083,73.0,6.0,90.0,13.0,0.0
6084,86.0,0.0,15.0,2.0,0.0
6085,71.0,12.0,15.0,14.0,0.0
6086,85.0,0.0,15.0,2.0,0.0
6087,85.0,12.0,15.0,7.0,0.0
6088,69.0,0.0,15.0,14.0,0.0
6089,85.0,0.0,15.0,6.0,0.0
6090,69.0,0.0,15.0,4.0,0.0
6091,86.0,8.0,15.0,2.0,0.0
6092,71.0,0.0,15.0,14.0,0.0
6093,86.0,0.0,15.0,7.0,0.0
6094,71.0,0.0,15.0,4.0,0.0
6095,86.0,0.0,15.0,6.0,0.0
6096,85.0,0.0,15.0,7.0,0.0
6097,69.0,0.0,15.0,14.0,0.0
6098,85.0,0.0,15.0,6.0,0.0
6099,69.0,23.0,15.0,4.0,0.0
6100,85.0,0.0,15.0,2.0,0.0
6101,44.0,0.0,40.0,5.0,0.0
6102,32.0,0.0,40.0,12.0,0.0
6103,76.0,0.0,40.0,0.0,0.0
6104,83.0,0.0,20.0,2.0,0.0
6105,44.0,0.0,40.0,11.0,0.0
6106,68.0,15.0,20.0,14.0,0.0
6107,68.0,0.0,20.0,4.0,0.0
6108,83.0,0.0,20.0,7.0,0.0
6109,44.0,3.0,40.0,13.0,0.0
6110,83.0,0.0,20.0,6.0,0.0
6111,69.0,87.0,20.0,4.0,0.0
6112,85.0,0.0,20.0,2.0,0.0
6113,85.0,0.0,20.0,7.0,0.0
6114,85.0,0.0,20.0,6.0,0.0
6115,69.0,0.0,20.0,14.0,0.0
6116,40.0,22.0,90.0,11.0,0.0
6117,80.0,0.0,90.0,3.0,0.0
6118,40.0,0.0,90.0,13.0,0.0
6119,71.0,0.0,90.0,14.0,0.0
6120,40.0,0.0,90.0,5.0,0.0
6121,80.0,0.0,90.0,13.0,0.0
6122,86.0,0.0,90.0,2.0,0.0
6123,86.0,0.0,90.0,7.0,0.0
6124,71.0,0.0,90.0,1.0,0.0
6125,76.0,0.0,180.0,0.0,0.0
6126,71.0,0.0,90.0,13.0,0.0
6127,71.0,0.0,90.0,4.0,0.0
6128,80.0,0.0,90.0,8.0,0.0
6129,28.0,0.0,90.0,12.0,0.0
6130,86.0,0.0,90.0,6.0,0.0
6131,73.0,0.0,90.0,13.0,0.0
6132,64.0,0.0,40.0,1.0,0.0
6133,40.0,0.0,40.0,12.0,0.0
6134,76.0,0.0,90.0,14.0,0.0
6135,76.0,0.0,90.0,4.0,0.0
6136,85.0,0.0,40.0,2.0,0.0
6137,81.0,6.0,90.0,13.0,0.0
6138,83.0,12.0,15.0,3.0,0.0
6139,85.0,0.0,40.0,7.0,0.0
6140,52.0,0.0,40.0,5.0,0.0
6141,81.0,0.0,90.0,8.0,0.0
6142,52.0,0.0,40.0,11.0,0.0
6143,85.0,4.0,40.0,6.0,0.0
6144,52.0,0.0,40.0,13.0,0.0
6145,81.0,12.0,15.0,3.0,0.0
6146,83.0,8.0,15.0,3.0,0.0
6147,81.0,12.0,15.0,3.0,0.0
6148,64.0,0.0,40.0,1.0,0.0
6149,42.0,0.0,40.0,12.0,0.0
6150,54.0,0.0,40.0,5.0,0.0
6151,83.0,0.0,40.0,7.0,0.0
6152,83.0,12.0,15.0,3.0,0.0
6153,83.0,0.0,40.0,2.0,0.0
6154,54.0,0.0,40.0,11.0,0.0
6155,54.0,4.0,40.0,13.0,0.0
6156,83.0,0.0,40.0,6.0,0.0
6157,81.0,12.0,15.0,3.0,0.0
6158,83.0,2.0,15.0,3.0,0.0
6159,81.0,44.0,15.0,3.0,0.0
6160,64.0,0.0,40.0,1.0,0.0
6161,56.0,0.0,40.0,11.0,0.0
6162,88.0,0.0,90.0,7.0,0.0
6163,68.0,6.0,90.0,14.0,0.0
6164,88.0,0.0,90.0,6.0,0.0
6165,88.0,0.0,90.0,2.0,0.0
6166,83.0,0.0,90.0,3.0,0.0
6167,68.0,0.0,90.0,4.0,0.0
6168,56.0,42.0,40.0,5.0,0.0
6169,44.0,0.0,40.0,12.0,0.0
6170,83.0,0.0,90.0,8.0,0.0
6171,56.0,0.0,40.0,13.0,0.0
6172,83.0,0.0,90.0,13.0,0.0
6173,76.0,0.0,90.0,13.0,0.0
6174,74.0,0.0,90.0,0.0,0.0
6175,52.0,0.0,40.0,11.0,0.0
6176,64.0,0.0,40.0,1.0,0.0
6177,40.0,0.0,40.0,12.0,0.0
6178,52.0,0.0,40.0,13.0,0.0
6179,52.0,48.0,40.0,5.0,0.0
6180,78.0,0.0,90.0,3.0,0.0
6181,73.0,0.0,90.0,13.0,0.0
6182,81.0,0.0,90.0,13.0,0.0
6183,54.0,0.0,40.0,13.0,0.0
6184,81.0,0.0,40.0,2.0,0.0
6185,73.0,0.0,90.0,0.0,0.0
6186,54.0,42.0,40.0,5.0,0.0
6187,42.0,0.0,40.0,12.0,0.0
6188,81.0,0.0,40.0,7.0,0.0
6189,69.0,0.0,90.0,1.0,0.0
6190,73.0,0.0,40.0,14.0,0.0
6191,81.0,0.0,40.0,6.0,0.0
6192,78.0,6.0,90.0,8.0,0.0
6193,54.0,0.0,40.0,11.0,0.0
6194,73.0,0.0,40.0,4.0,0.0
6195,38.0,0.0,40.0,12.0,0.0
6196,50.0,0.0,40.0,13.0,0.0
6197,83.0,0.0,40.0,2.0,0.0
6198,83.0,0.0,40.0,6.0,0.0
6199,74.0,16.0,40.0,14.0,0.0
6200,83.0,0.0,40.0,7.0,0.0
6201,50.0,0.0,40.0,11.0,0.0
6202,50.0,0.0,40.0,5.0,0.0
6203,74.0,0.0,40.0,4.0,0.0
6204,71.0,6.0,120.0,4.0,0.0
6205,64.0,0.0,40.0,1.0,0.0
6206,80.0,0.0,120.0,6.0,0.0
6207,52.0,0.0,90.0,11.0,0.0
6208,80.0,0.0,120.0,7.0,0.0
6209,40.0,0.0,90.0,12.0,0.0
6210,74.0,4.0,40.0,0.0,0.0
6211,78.0,0.0,15.0,8.0,0.0
6212,80.0,0.0,90.0,13.0,0.0
6213,71.0,0.0,15.0,14.0,0.0
6214,71.0,6.0,90.0,13.0,0.0
6215,80.0,0.0,120.0,2.0,0.0
6216,78.0,12.0,15.0,3.0,0.0
6217,52.0,0.0,90.0,5.0,0.0
6218,52.0,0.0,90.0,13.0,0.0
6219,76.0,0.0,15.0,8.0,0.0
6220,76.0,12.0,15.0,3.0,0.0
6221,69.0,0.0,15.0,14.0,0.0
6222,71.0,0.0,15.0,14.0,0.0
6223,78.0,0.0,15.0,8.0,0.0
6224,78.0,8.0,15.0,3.0,0.0
6225,69.0,0.0,15.0,14.0,0.0
6226,76.0,12.0,15.0,8.0,0.0
6227,76.0,0.0,15.0,3.0,0.0
6228,73.0,4.0,40.0,0.0,0.0
6229,78.0,12.0,15.0,3.0,0.0
6230,71.0,0.0,15.0,14.0,0.0
6231,78.0,0.0,15.0,8.0,0.0
6232,64.0,0.0,40.0,1.0,0.0
6233,76.0,0.0,15.0,8.0,0.0
6234,69.0,0.0,15.0,14.0,0.0
6235,76.0,12.0,15.0,3.0,0.0
6236,78.0,0.0,15.0,8.0,0.0
6237,71.0,0.0,15.0,14.0,0.0
6238,78.0,2.0,15.0,3.0,0.0
6239,69.0,12.0,15.0,14.0,0.0
6240,76.0,0.0,15.0,3.0,0.0
6241,76.0,0.0,15.0,8.0,0.0
6242,40.0,0.0,90.0,11.0,0.0
6243,78.0,0.0,15.0,3.0,0.0
6244,71.0,4.0,40.0,0.0,0.0
6245,71.0,0.0,15.0,14.0,0.0
6246,28.0,0.0,90.0,12.0,0.0
6247,68.0,0.0,90.0,13.0,0.0
6248,78.0,12.0,15.0,8.0,0.0
6249,64.0,0.0,40.0,1.0,0.0
6250,71.0,0.0,90.0,13.0,0.0
6251,40.0,0.0,90.0,13.0,0.0
6252,40.0,6.0,90.0,5.0,0.0
6253,76.0,0.0,15.0,3.0,0.0
6254,76.0,12.0,15.0,8.0,0.0
6255,69.0,0.0,15.0,14.0,0.0
6256,78.0,2.0,15.0,3.0,0.0
6257,71.0,0.0,15.0,14.0,0.0
6258,78.0,0.0,15.0,8.0,0.0
6259,76.0,0.0,15.0,3.0,0.0
6260,76.0,38.0,15.0,8.0,0.0
6261,69.0,0.0,15.0,14.0,0.0
6262,73.0,0.0,40.0,0.0,0.0
6263,76.0,0.0,40.0,8.0,0.0
6264,73.0,0.0,40.0,14.0,0.0
6265,73.0,0.0,40.0,4.0,0.0
6266,81.0,0.0,40.0,6.0,0.0
6267,81.0,0.0,40.0,2.0,0.0
6268,64.0,48.0,40.0,1.0,0.0
6269,76.0,0.0,40.0,3.0,0.0
6270,81.0,0.0,40.0,7.0,0.0
6271,33.0,0.0,40.0,12.0,0.0
6272,45.0,48.0,40.0,11.0,0.0
6273,81.0,0.0,270.0,6.0,0.0
6274,45.0,0.0,40.0,13.0,0.0
6275,73.0,0.0,270.0,13.0,0.0
6276,73.0,0.0,270.0,14.0,0.0
6277,61.0,0.0,270.0,1.0,0.0
6278,64.0,0.0,270.0,13.0,0.0
6279,76.0,6.0,180.0,8.0,0.0
6280,45.0,0.0,40.0,5.0,0.0
6281,81.0,6.0,270.0,7.0,0.0
6282,69.0,0.0,270.0,0.0,0.0
6283,81.0,0.0,270.0,2.0,0.0
6284,76.0,0.0,270.0,3.0,0.0
6285,73.0,0.0,270.0,4.0,0.0
6286,35.0,48.0,40.0,12.0,0.0
6287,47.0,0.0,40.0,13.0,0.0
6288,47.0,0.0,40.0,5.0,0.0
6289,47.0,0.0,40.0,11.0,0.0
6290,49.0,0.0,40.0,5.0,0.0
6291,49.0,0.0,40.0,11.0,0.0
6292,49.0,0.0,40.0,13.0,0.0
6293,37.0,42.0,40.0,12.0,0.0
6294,50.0,0.0,40.0,13.0,0.0
6295,50.0,0.0,40.0,5.0,0.0
6296,50.0,48.0,40.0,11.0,0.0
6297,38.0,0.0,40.0,12.0,0.0
6298,52.0,0.0,40.0,11.0,0.0
6299,52.0,42.0,40.0,13.0,0.0
6300,52.0,0.0,40.0,5.0,0.0
6301,40.0,0.0,40.0,12.0,0.0
6302,42.0,0.0,40.0,12.0,0.0
6303,54.0,90.0,40.0,11.0,0.0
6304,54.0,0.0,40.0,5.0,0.0
6305,54.0,0.0,40.0,13.0,0.0
6306,83.0,0.0,90.0,7.0,0.0
6307,56.0,0.0,180.0,11.0,0.0
6308,64.0,54.0,90.0,0.0,0.0
6309,71.0,0.0,180.0,14.0,0.0
6310,83.0,0.0,90.0,6.0,0.0
6311,44.0,0.0,180.0,12.0,0.0
6312,76.0,0.0,90.0,8.0,0.0
6313,71.0,0.0,180.0,4.0,0.0
6314,56.0,0.0,180.0,5.0,0.0
6315,83.0,0.0,90.0,2.0,0.0
6316,71.0,0.0,90.0,13.0,0.0
6317,76.0,0.0,90.0,3.0,0.0
6318,76.0,0.0,90.0,13.0,0.0
6319,56.0,0.0,180.0,13.0,0.0
6320,86.0,0.0,90.0,6.0,0.0
6321,83.0,0.0,90.0,3.0,0.0
6322,74.0,0.0,90.0,13.0,0.0
6323,86.0,0.0,90.0,7.0,0.0
6324,86.0,0.0,90.0,2.0,0.0
6325,83.0,0.0,90.0,8.0,0.0
6326,64.0,42.0,40.0,0.0,0.0
6327,71.0,6.0,90.0,13.0,0.0
6328,64.0,48.0,40.0,0.0,0.0
6329,85.0,0.0,90.0,7.0,0.0
6330,76.0,0.0,90.0,4.0,0.0
6331,45.0,0.0,90.0,12.0,0.0
6332,57.0,0.0,90.0,11.0,0.0
6333,85.0,0.0,90.0,6.0,0.0
6334,64.0,42.0,40.0,0.0,0.0
6335,81.0,0.0,90.0,3.0,0.0
6336,76.0,0.0,90.0,14.0,0.0
6337,85.0,0.0,90.0,2.0,0.0
6338,57.0,0.0,90.0,13.0,0.0
6339,73.0,6.0,90.0,13.0,0.0
6340,81.0,0.0,90.0,8.0,0.0
6341,64.0,0.0,90.0,13.0,0.0
6342,57.0,0.0,90.0,5.0,0.0
6343,64.0,16.0,40.0,0.0,0.0
6344,80.0,0.0,90.0,3.0,0.0
6345,83.0,10.0,90.0,7.0,0.0
6346,85.0,12.0,15.0,6.0,0.0
6347,47.0,0.0,90.0,12.0,0.0
6348,68.0,0.0,90.0,13.0,0.0
6349,74.0,0.0,90.0,13.0,0.0
6350,59.0,0.0,90.0,13.0,0.0
6351,74.0,0.0,90.0,4.0,0.0
6352,76.0,0.0,15.0,14.0,0.0
6353,64.0,0.0,90.0,0.0,0.0
6354,64.0,0.0,90.0,1.0,0.0
6355,59.0,0.0,90.0,11.0,0.0
6356,83.0,0.0,90.0,2.0,0.0
6357,59.0,0.0,90.0,5.0,0.0
6358,80.0,0.0,90.0,8.0,0.0
6359,74.0,0.0,15.0,14.0,0.0
6360,83.0,12.0,15.0,6.0,0.0
6361,76.0,12.0,15.0,14.0,0.0
6362,85.0,0.0,15.0,6.0,0.0
6363,83.0,0.0,15.0,6.0,0.0
6364,74.0,12.0,15.0,14.0,0.0
6365,85.0,0.0,15.0,6.0,0.0
6366,76.0,12.0,15.0,14.0,0.0
6367,74.0,0.0,15.0,14.0,0.0
6368,83.0,12.0,15.0,6.0,0.0
6369,85.0,2.0,15.0,6.0,0.0
6370,76.0,0.0,15.0,14.0,0.0
6371,83.0,0.0,15.0,6.0,0.0
6372,74.0,44.0,15.0,14.0,0.0
6373,81.0,0.0,40.0,7.0,0.0
6374,73.0,0.0,40.0,14.0,0.0
6375,81.0,0.0,40.0,6.0,0.0
6376,64.0,0.0,40.0,1.0,0.0
6377,76.0,0.0,90.0,8.0,0.0
6378,62.0,0.0,90.0,13.0,0.0
6379,68.0,0.0,90.0,13.0,0.0
6380,62.0,6.0,90.0,5.0,0.0
6381,50.0,0.0,90.0,12.0,0.0
6382,81.0,0.0,40.0,2.0,0.0
6383,76.0,0.0,90.0,13.0,0.0
6384,73.0,42.0,40.0,4.0,0.0
6385,62.0,0.0,90.0,11.0,0.0
6386,76.0,0.0,90.0,3.0,0.0
6387,80.0,0.0,40.0,7.0,0.0
6388,80.0,0.0,40.0,6.0,0.0
6389,71.0,0.0,40.0,14.0,0.0
6390,80.0,0.0,40.0,2.0,0.0
6391,64.0,48.0,40.0,1.0,0.0
6392,71.0,0.0,40.0,4.0,0.0
6393,61.0,0.0,90.0,11.0,0.0
6394,76.0,0.0,90.0,3.0,0.0
6395,64.0,42.0,40.0,1.0,0.0
6396,61.0,6.0,90.0,13.0,0.0
6397,81.0,0.0,90.0,2.0,0.0
6398,76.0,0.0,90.0,8.0,0.0
6399,61.0,0.0,90.0,5.0,0.0
6400,76.0,0.0,90.0,13.0,0.0
6401,81.0,0.0,90.0,7.0,0.0
6402,69.0,0.0,90.0,13.0,0.0
6403,81.0,0.0,90.0,6.0,0.0
6404,49.0,0.0,90.0,12.0,0.0
6405,73.0,0.0,90.0,4.0,0.0
6406,73.0,0.0,90.0,14.0,0.0
6407,64.0,90.0,40.0,1.0,0.0
6408,68.0,0.0,90.0,13.0,0.0
6409,74.0,0.0,90.0,4.0,0.0
6410,80.0,0.0,90.0,8.0,0.0
6411,74.0,0.0,90.0,13.0,0.0
6412,59.0,0.0,90.0,13.0,0.0
6413,83.0,0.0,90.0,7.0,0.0
6414,64.0,0.0,90.0,1.0,0.0
6415,83.0,0.0,90.0,6.0,0.0
6416,74.0,0.0,90.0,14.0,0.0
6417,64.0,0.0,90.0,0.0,0.0
6418,47.0,54.0,90.0,12.0,0.0
6419,83.0,0.0,90.0,2.0,0.0
6420,80.0,0.0,90.0,3.0,0.0
6421,59.0,0.0,90.0,5.0,0.0
6422,59.0,0.0,90.0,11.0,0.0
6423,86.0,0.0,90.0,6.0,0.0
6424,57.0,0.0,40.0,13.0,0.0
6425,57.0,42.0,40.0,5.0,0.0
6426,74.0,0.0,90.0,13.0,0.0
6427,71.0,6.0,90.0,14.0,0.0
6428,66.0,0.0,90.0,13.0,0.0
6429,86.0,0.0,90.0,7.0,0.0
6430,86.0,0.0,90.0,2.0,0.0
6431,57.0,0.0,40.0,11.0,0.0
6432,83.0,0.0,90.0,8.0,0.0
6433,71.0,0.0,90.0,4.0,0.0
6434,83.0,0.0,90.0,3.0,0.0
6435,45.0,0.0,40.0,12.0,0.0
6436,64.0,0.0,40.0,0.0,0.0
6437,56.0,0.0,40.0,5.0,0.0
6438,44.0,48.0,40.0,12.0,0.0
6439,56.0,0.0,40.0,11.0,0.0
6440,64.0,0.0,40.0,0.0,0.0
6441,56.0,0.0,40.0,13.0,0.0
6442,57.0,0.0,90.0,13.0,0.0
6443,64.0,0.0,90.0,13.0,0.0
6444,57.0,6.0,90.0,11.0,0.0
6445,45.0,0.0,90.0,12.0,0.0
6446,85.0,0.0,90.0,2.0,0.0
6447,73.0,0.0,90.0,13.0,0.0
6448,81.0,0.0,90.0,8.0,0.0
6449,85.0,0.0,90.0,7.0,0.0
6450,76.0,0.0,90.0,4.0,0.0
6451,76.0,0.0,90.0,14.0,0.0
6452,57.0,0.0,90.0,5.0,0.0
6453,81.0,0.0,90.0,3.0,0.0
6454,85.0,0.0,90.0,6.0,0.0
6455,64.0,42.0,40.0,0.0,0.0
6456,64.0,16.0,40.0,0.0,0.0
6457,76.0,0.0,180.0,14.0,0.0
6458,56.0,0.0,90.0,5.0,0.0
6459,83.0,0.0,90.0,3.0,0.0
6460,83.0,0.0,90.0,8.0,0.0
6461,76.0,0.0,180.0,4.0,0.0
6462,44.0,0.0,90.0,12.0,0.0
6463,85.0,0.0,15.0,2.0,0.0
6464,64.0,10.0,90.0,0.0,0.0
6465,85.0,0.0,15.0,6.0,0.0
6466,56.0,0.0,90.0,11.0,0.0
6467,71.0,0.0,90.0,13.0,0.0
6468,56.0,0.0,90.0,13.0,0.0
6469,64.0,0.0,90.0,1.0,0.0
6470,64.0,0.0,90.0,13.0,0.0
6471,85.0,12.0,15.0,7.0,0.0
6472,83.0,0.0,15.0,2.0,0.0
6473,83.0,12.0,15.0,6.0,0.0
6474,83.0,0.0,15.0,7.0,0.0
6475,85.0,12.0,15.0,6.0,0.0
6476,85.0,0.0,15.0,7.0,0.0
6477,85.0,0.0,15.0,2.0,0.0
6478,83.0,0.0,15.0,6.0,0.0
6479,83.0,0.0,15.0,7.0,0.0
6480,83.0,12.0,15.0,2.0,0.0
6481,85.0,0.0,15.0,6.0,0.0
6482,85.0,0.0,15.0,7.0,0.0
6483,85.0,12.0,15.0,2.0,0.0
6484,83.0,0.0,15.0,6.0,0.0
6485,83.0,0.0,15.0,7.0,0.0
6486,83.0,12.0,15.0,2.0,0.0
6487,85.0,0.0,15.0,6.0,0.0
6488,85.0,0.0,15.0,2.0,0.0
6489,85.0,2.0,15.0,7.0,0.0
6490,83.0,0.0,15.0,2.0,0.0
6491,83.0,12.0,15.0,6.0,0.0
6492,83.0,0.0,15.0,7.0,0.0
6493,57.0,4.0,40.0,11.0,0.0
6494,64.0,0.0,40.0,1.0,0.0
6495,69.0,0.0,90.0,13.0,0.0
6496,81.0,6.0,90.0,3.0,0.0
6497,85.0,0.0,15.0,6.0,0.0
6498,85.0,0.0,15.0,7.0,0.0
6499,57.0,0.0,40.0,5.0,0.0
6500,81.0,0.0,90.0,8.0,0.0
6501,85.0,12.0,15.0,2.0,0.0
6502,76.0,0.0,90.0,13.0,0.0
6503,57.0,0.0,40.0,13.0,0.0
6504,45.0,0.0,40.0,12.0,0.0
6505,83.0,0.0,15.0,7.0,0.0
6506,83.0,0.0,15.0,6.0,0.0
6507,83.0,12.0,15.0,2.0,0.0
6508,85.0,8.0,15.0,6.0,0.0
6509,85.0,0.0,15.0,2.0,0.0
6510,85.0,0.0,15.0,7.0,0.0
6511,83.0,0.0,15.0,6.0,0.0
6512,83.0,0.0,15.0,2.0,0.0
6513,83.0,12.0,15.0,7.0,0.0
6514,56.0,0.0,40.0,13.0,0.0
6515,85.0,0.0,15.0,2.0,0.0
6516,44.0,0.0,40.0,12.0,0.0
6517,85.0,0.0,15.0,6.0,0.0
6518,85.0,12.0,15.0,7.0,0.0
6519,64.0,0.0,40.0,1.0,0.0
6520,56.0,4.0,40.0,11.0,0.0
6521,56.0,0.0,40.0,5.0,0.0
6522,83.0,0.0,15.0,7.0,0.0
6523,83.0,0.0,15.0,2.0,0.0
6524,83.0,12.0,15.0,6.0,0.0
6525,85.0,2.0,15.0,2.0,0.0
6526,85.0,0.0,15.0,7.0,0.0
6527,85.0,0.0,15.0,6.0,0.0
6528,83.0,0.0,15.0,7.0,0.0
6529,83.0,44.0,15.0,6.0,0.0
6530,83.0,0.0,15.0,2.0,0.0
6531,80.0,0.0,90.0,3.0,0.0
6532,71.0,0.0,90.0,4.0,0.0
6533,88.0,0.0,90.0,7.0,0.0
6534,54.0,0.0,40.0,11.0,0.0
6535,71.0,0.0,90.0,13.0,0.0
6536,42.0,42.0,40.0,12.0,0.0
6537,80.0,0.0,90.0,13.0,0.0
6538,54.0,0.0,40.0,5.0,0.0
6539,64.0,0.0,40.0,1.0,0.0
6540,88.0,0.0,90.0,6.0,0.0
6541,88.0,0.0,90.0,2.0,0.0
6542,71.0,6.0,90.0,14.0,0.0
6543,80.0,0.0,90.0,8.0,0.0
6544,54.0,0.0,40.0,13.0,0.0
6545,40.0,0.0,40.0,12.0,0.0
6546,52.0,16.0,40.0,5.0,0.0
6547,52.0,0.0,40.0,11.0,0.0
6548,52.0,0.0,40.0,13.0,0.0
6549,64.0,0.0,40.0,1.0,0.0
6550,40.0,11.0,15.0,12.0,0.0
6551,71.0,0.0,90.0,1.0,0.0
6552,71.0,6.0,180.0,4.0,0.0
6553,78.0,0.0,180.0,3.0,0.0
6554,78.0,0.0,180.0,8.0,0.0
6555,81.0,0.0,90.0,2.0,0.0
6556,52.0,0.0,15.0,13.0,0.0
6557,71.0,0.0,90.0,13.0,0.0
6558,78.0,0.0,90.0,13.0,0.0
6559,71.0,0.0,90.0,0.0,0.0
6560,81.0,9.0,90.0,6.0,0.0
6561,81.0,0.0,90.0,7.0,0.0
6562,52.0,0.0,15.0,11.0,0.0
6563,71.0,0.0,180.0,14.0,0.0
6564,52.0,1.0,20.0,5.0,0.0
6565,51.0,12.0,15.0,13.0,0.0
6566,51.0,0.0,15.0,11.0,0.0
6567,39.0,0.0,15.0,12.0,0.0
6568,52.0,0.0,15.0,13.0,0.0
6569,52.0,0.0,15.0,11.0,0.0
6570,40.0,11.0,15.0,12.0,0.0
6571,51.0,1.0,20.0,5.0,0.0
6572,51.0,0.0,15.0,13.0,0.0
6573,39.0,12.0,15.0,12.0,0.0
6574,51.0,0.0,15.0,11.0,0.0
6575,40.0,0.0,15.0,12.0,0.0
6576,52.0,11.0,15.0,11.0,0.0
6577,52.0,0.0,15.0,13.0,0.0
6578,52.0,1.0,20.0,5.0,0.0
6579,51.0,0.0,15.0,13.0,0.0
6580,51.0,12.0,15.0,11.0,0.0
6581,39.0,0.0,15.0,12.0,0.0
6582,52.0,0.0,15.0,13.0,0.0
6583,40.0,2.0,15.0,12.0,0.0
6584,52.0,0.0,15.0,11.0,0.0
6585,51.0,1.0,20.0,5.0,0.0
6586,39.0,12.0,15.0,12.0,0.0
6587,51.0,0.0,15.0,11.0,0.0
6588,51.0,0.0,15.0,13.0,0.0
6589,52.0,11.0,15.0,11.0,0.0
6590,52.0,1.0,20.0,5.0,0.0
6591,78.0,0.0,90.0,2.0,0.0
6592,71.0,3.0,40.0,0.0,0.0
6593,66.0,0.0,90.0,13.0,0.0
6594,78.0,0.0,90.0,6.0,0.0
6595,40.0,0.0,15.0,12.0,0.0
6596,75.0,0.0,90.0,13.0,0.0
6597,52.0,0.0,15.0,13.0,0.0
6598,78.0,0.0,90.0,7.0,0.0
6599,39.0,0.0,15.0,12.0,0.0
6600,51.0,0.0,15.0,11.0,0.0
6601,51.0,12.0,15.0,13.0,0.0
6602,52.0,0.0,15.0,11.0,0.0
6603,40.0,0.0,15.0,12.0,0.0
6604,51.0,1.0,20.0,5.0,0.0
6605,52.0,8.0,15.0,13.0,0.0
6606,51.0,12.0,15.0,11.0,0.0
6607,51.0,0.0,15.0,13.0,0.0
6608,39.0,0.0,15.0,12.0,0.0
6609,52.0,0.0,15.0,11.0,0.0
6610,52.0,1.0,20.0,5.0,0.0
6611,52.0,11.0,15.0,13.0,0.0
6612,40.0,0.0,15.0,12.0,0.0
6613,71.0,3.0,40.0,0.0,0.0
6614,39.0,0.0,15.0,12.0,0.0
6615,51.0,0.0,15.0,13.0,0.0
6616,51.0,12.0,15.0,11.0,0.0
6617,52.0,0.0,15.0,13.0,0.0
6618,52.0,2.0,15.0,11.0,0.0
6619,51.0,1.0,20.0,5.0,0.0
6620,40.0,0.0,15.0,12.0,0.0
6621,39.0,0.0,15.0,12.0,0.0
6622,51.0,0.0,15.0,13.0,0.0
6623,51.0,44.0,15.0,11.0,0.0
6624,71.0,0.0,90.0,14.0,0.0
6625,80.0,0.0,90.0,2.0,0.0
6626,80.0,0.0,90.0,7.0,0.0
6627,80.0,0.0,90.0,6.0,0.0
6628,52.0,0.0,90.0,5.0,0.0
6629,40.0,0.0,90.0,12.0,0.0
6630,52.0,0.0,90.0,13.0,0.0
6631,80.0,0.0,90.0,13.0,0.0
6632,71.0,0.0,90.0,13.0,0.0
6633,52.0,6.0,90.0,11.0,0.0
6634,71.0,0.0,90.0,4.0,0.0
6635,76.0,0.0,90.0,8.0,0.0
6636,76.0,0.0,90.0,3.0,0.0
6637,71.0,42.0,40.0,0.0,0.0
6638,71.0,48.0,40.0,0.0,0.0
6639,66.0,0.0,90.0,4.0,0.0
6640,75.0,42.0,40.0,8.0,0.0
6641,75.0,0.0,90.0,13.0,0.0
6642,81.0,0.0,90.0,13.0,0.0
6643,54.0,0.0,90.0,13.0,0.0
6644,81.0,0.0,90.0,6.0,0.0
6645,71.0,0.0,90.0,0.0,0.0
6646,81.0,6.0,90.0,2.0,0.0
6647,54.0,0.0,90.0,5.0,0.0
6648,42.0,0.0,90.0,12.0,0.0
6649,81.0,0.0,90.0,7.0,0.0
6650,66.0,0.0,90.0,14.0,0.0
6651,54.0,0.0,90.0,11.0,0.0
6652,71.0,0.0,90.0,1.0,0.0
6653,75.0,0.0,40.0,3.0,0.0
6654,76.0,16.0,40.0,3.0,0.0
6655,76.0,0.0,40.0,8.0,0.0
6656,68.0,0.0,90.0,4.0,0.0
6657,73.0,6.0,90.0,13.0,0.0
6658,52.0,0.0,40.0,11.0,0.0
6659,80.0,0.0,90.0,13.0,0.0
6660,52.0,0.0,40.0,13.0,0.0
6661,85.0,0.0,180.0,6.0,0.0
6662,78.0,12.0,15.0,8.0,0.0
6663,78.0,0.0,15.0,3.0,0.0
6664,71.0,4.0,40.0,1.0,0.0
6665,40.0,0.0,40.0,12.0,0.0
6666,68.0,0.0,90.0,14.0,0.0
6667,85.0,0.0,180.0,2.0,0.0
6668,85.0,0.0,180.0,7.0,0.0
6669,52.0,0.0,40.0,5.0,0.0
6670,76.0,12.0,15.0,8.0,0.0
6671,76.0,0.0,15.0,3.0,0.0
6672,78.0,0.0,15.0,8.0,0.0
6673,78.0,8.0,15.0,3.0,0.0
6674,76.0,12.0,15.0,3.0,0.0
6675,76.0,0.0,15.0,8.0,0.0
6676,78.0,0.0,15.0,8.0,0.0
6677,51.0,0.0,40.0,11.0,0.0
6678,39.0,4.0,40.0,12.0,0.0
6679,78.0,12.0,15.0,3.0,0.0
6680,51.0,0.0,40.0,13.0,0.0
6681,71.0,0.0,40.0,1.0,0.0
6682,51.0,0.0,40.0,5.0,0.0
6683,76.0,0.0,15.0,3.0,0.0
6684,76.0,12.0,15.0,8.0,0.0
6685,78.0,2.0,15.0,8.0,0.0
6686,78.0,0.0,15.0,3.0,0.0
6687,76.0,12.0,15.0,3.0,0.0
6688,76.0,0.0,15.0,8.0,0.0
6689,40.0,0.0,90.0,12.0,0.0
6690,78.0,0.0,15.0,8.0,0.0
6691,64.0,0.0,90.0,14.0,0.0
6692,52.0,0.0,90.0,5.0,0.0
6693,78.0,12.0,15.0,3.0,0.0
6694,71.0,4.0,40.0,1.0,0.0
6695,52.0,0.0,90.0,13.0,0.0
6696,76.0,0.0,90.0,13.0,0.0
6697,52.0,6.0,90.0,11.0,0.0
6698,73.0,0.0,90.0,13.0,0.0
6699,64.0,0.0,90.0,4.0,0.0
6700,76.0,0.0,15.0,3.0,0.0
6701,76.0,12.0,15.0,8.0,0.0
6702,78.0,0.0,15.0,3.0,0.0
6703,78.0,8.0,15.0,8.0,0.0
6704,76.0,23.0,15.0,3.0,0.0
6705,76.0,0.0,15.0,8.0,0.0
6706,75.0,0.0,20.0,3.0,0.0
6707,75.0,15.0,20.0,8.0,0.0
6708,71.0,3.0,40.0,1.0,0.0
6709,76.0,87.0,20.0,3.0,0.0
6710,76.0,0.0,20.0,8.0,0.0
6711,71.0,0.0,90.0,0.0,0.0
6712,71.0,54.0,90.0,1.0,0.0
6713,81.0,0.0,90.0,6.0,0.0
6714,78.0,0.0,90.0,8.0,0.0
6715,71.0,0.0,180.0,4.0,0.0
6716,51.0,0.0,90.0,5.0,0.0
6717,78.0,0.0,90.0,3.0,0.0
6718,39.0,0.0,90.0,12.0,0.0
6719,71.0,0.0,180.0,14.0,0.0
6720,71.0,0.0,90.0,13.0,0.0
6721,78.0,0.0,90.0,13.0,0.0
6722,51.0,0.0,90.0,13.0,0.0
6723,81.0,0.0,90.0,7.0,0.0
6724,51.0,0.0,90.0,11.0,0.0
6725,81.0,0.0,90.0,2.0,0.0
6726,52.0,0.0,40.0,11.0,0.0
6727,40.0,0.0,40.0,12.0,0.0
6728,71.0,0.0,40.0,0.0,0.0
6729,80.0,0.0,90.0,13.0,0.0
6730,76.0,0.0,90.0,8.0,0.0
6731,71.0,6.0,90.0,13.0,0.0
6732,52.0,42.0,40.0,5.0,0.0
6733,80.0,0.0,40.0,6.0,0.0
6734,80.0,0.0,40.0,7.0,0.0
6735,76.0,0.0,90.0,3.0,0.0
6736,80.0,0.0,40.0,2.0,0.0
6737,52.0,0.0,40.0,13.0,0.0
6738,39.0,0.0,40.0,12.0,0.0
6739,78.0,0.0,40.0,6.0,0.0
6740,71.0,0.0,40.0,0.0,0.0
6741,51.0,48.0,40.0,5.0,0.0
6742,51.0,0.0,40.0,11.0,0.0
6743,78.0,0.0,40.0,7.0,0.0
6744,78.0,0.0,40.0,2.0,0.0
6745,51.0,0.0,40.0,13.0,0.0
6746,71.0,0.0,90.0,14.0,0.0
6747,83.0,0.0,90.0,7.0,0.0
6748,49.0,0.0,40.0,5.0,0.0
6749,37.0,42.0,40.0,12.0,0.0
6750,83.0,0.0,90.0,2.0,0.0
6751,75.0,0.0,90.0,8.0,0.0
6752,71.0,0.0,90.0,4.0,0.0
6753,83.0,6.0,90.0,6.0,0.0
6754,66.0,0.0,90.0,13.0,0.0
6755,75.0,0.0,90.0,13.0,0.0
6756,49.0,0.0,40.0,11.0,0.0
6757,75.0,0.0,90.0,3.0,0.0
6758,49.0,0.0,40.0,13.0,0.0
6759,71.0,0.0,40.0,0.0,0.0
6760,47.0,0.0,40.0,13.0,0.0
6761,35.0,0.0,40.0,12.0,0.0
6762,71.0,90.0,40.0,0.0,0.0
6763,47.0,0.0,40.0,5.0,0.0
6764,47.0,0.0,40.0,11.0,0.0
6765,71.0,0.0,90.0,1.0,0.0
6766,80.0,0.0,120.0,6.0,0.0
6767,71.0,0.0,90.0,13.0,0.0
6768,80.0,0.0,90.0,13.0,0.0
6769,80.0,6.0,120.0,2.0,0.0
6770,52.0,0.0,90.0,13.0,0.0
6771,52.0,0.0,90.0,5.0,0.0
6772,80.0,0.0,120.0,7.0,0.0
6773,76.0,6.0,270.0,3.0,0.0
6774,71.0,0.0,270.0,4.0,0.0
6775,40.0,0.0,90.0,12.0,0.0
6776,76.0,0.0,270.0,8.0,0.0
6777,52.0,0.0,90.0,11.0,0.0
6778,71.0,0.0,270.0,14.0,0.0
6779,71.0,48.0,90.0,0.0,0.0
6780,50.0,0.0,40.0,13.0,0.0
6781,78.0,0.0,90.0,13.0,0.0
6782,69.0,6.0,90.0,13.0,0.0
6783,50.0,0.0,40.0,5.0,0.0
6784,50.0,42.0,40.0,11.0,0.0
6785,71.0,0.0,40.0,1.0,0.0
6786,38.0,0.0,40.0,12.0,0.0
6787,81.0,0.0,40.0,7.0,0.0
6788,49.0,16.0,40.0,13.0,0.0
6789,37.0,0.0,40.0,12.0,0.0
6790,81.0,0.0,40.0,2.0,0.0
6791,49.0,0.0,40.0,5.0,0.0
6792,49.0,0.0,40.0,11.0,0.0
6793,81.0,0.0,40.0,6.0,0.0
6794,71.0,0.0,40.0,1.0,0.0
6795,83.0,12.0,15.0,7.0,0.0
6796,47.0,0.0,40.0,11.0,0.0
6797,47.0,0.0,40.0,13.0,0.0
6798,78.0,0.0,90.0,13.0,0.0
6799,47.0,0.0,40.0,5.0,0.0
6800,71.0,4.0,40.0,1.0,0.0
6801,35.0,0.0,40.0,12.0,0.0
6802,83.0,0.0,15.0,2.0,0.0
6803,69.0,0.0,90.0,13.0,0.0
6804,83.0,0.0,15.0,6.0,0.0
6805,81.0,0.0,15.0,6.0,0.0
6806,81.0,0.0,15.0,2.0,0.0
6807,81.0,12.0,15.0,7.0,0.0
6808,83.0,0.0,15.0,6.0,0.0
6809,83.0,8.0,15.0,7.0,0.0
6810,83.0,0.0,15.0,2.0,0.0
6811,81.0,0.0,15.0,2.0,0.0
6812,81.0,12.0,15.0,6.0,0.0
6813,81.0,0.0,15.0,7.0,0.0
6814,83.0,0.0,15.0,7.0,0.0
6815,45.0,0.0,40.0,11.0,0.0
6816,71.0,4.0,40.0,1.0,0.0
6817,83.0,12.0,15.0,2.0,0.0
6818,45.0,0.0,40.0,5.0,0.0
6819,33.0,0.0,40.0,12.0,0.0
6820,45.0,0.0,40.0,13.0,0.0
6821,83.0,0.0,15.0,6.0,0.0
6822,81.0,0.0,15.0,2.0,0.0
6823,81.0,12.0,15.0,6.0,0.0
6824,81.0,0.0,15.0,7.0,0.0
6825,80.0,0.0,15.0,7.0,0.0
6826,80.0,2.0,15.0,6.0,0.0
6827,80.0,0.0,15.0,2.0,0.0
6828,81.0,44.0,15.0,2.0,0.0
6829,81.0,0.0,15.0,6.0,0.0
6830,81.0,0.0,15.0,7.0,0.0
6831,71.0,0.0,40.0,14.0,0.0
6832,44.0,0.0,90.0,11.0,0.0
6833,76.0,6.0,180.0,3.0,0.0
6834,44.0,0.0,90.0,13.0,0.0
6835,76.0,0.0,90.0,13.0,0.0
6836,71.0,0.0,90.0,13.0,0.0
6837,83.0,0.0,40.0,6.0,0.0
6838,76.0,0.0,180.0,8.0,0.0
6839,76.0,0.0,90.0,0.0,0.0
6840,44.0,0.0,90.0,5.0,0.0
6841,83.0,0.0,40.0,2.0,0.0
6842,71.0,0.0,90.0,1.0,0.0
6843,71.0,0.0,90.0,4.0,0.0
6844,32.0,6.0,90.0,12.0,0.0
6845,83.0,42.0,40.0,7.0,0.0
6846,85.0,0.0,40.0,2.0,0.0
6847,69.0,0.0,40.0,14.0,0.0
6848,85.0,0.0,40.0,7.0,0.0
6849,85.0,16.0,40.0,6.0,0.0
6850,45.0,0.0,40.0,11.0,0.0
6851,86.0,12.0,15.0,2.0,0.0
6852,86.0,0.0,15.0,7.0,0.0
6853,45.0,0.0,40.0,13.0,0.0
6854,71.0,0.0,15.0,14.0,0.0
6855,71.0,0.0,15.0,4.0,0.0
6856,45.0,4.0,40.0,5.0,0.0
6857,33.0,0.0,40.0,12.0,0.0
6858,86.0,0.0,15.0,6.0,0.0
6859,76.0,0.0,40.0,0.0,0.0
6860,64.0,0.0,90.0,13.0,0.0
6861,73.0,0.0,90.0,13.0,0.0
6862,85.0,0.0,15.0,6.0,0.0
6863,85.0,0.0,15.0,2.0,0.0
6864,69.0,0.0,15.0,14.0,0.0
6865,69.0,12.0,15.0,4.0,0.0
6866,85.0,0.0,15.0,7.0,0.0
6867,71.0,0.0,15.0,14.0,0.0
6868,86.0,8.0,15.0,2.0,0.0
6869,71.0,0.0,15.0,4.0,0.0
6870,86.0,0.0,15.0,7.0,0.0
6871,86.0,0.0,15.0,6.0,0.0
6872,85.0,0.0,15.0,6.0,0.0
6873,69.0,0.0,15.0,14.0,0.0
6874,85.0,12.0,15.0,2.0,0.0
6875,85.0,0.0,15.0,7.0,0.0
6876,69.0,0.0,15.0,4.0,0.0
6877,71.0,12.0,15.0,14.0,0.0
6878,44.0,4.0,40.0,13.0,0.0
6879,86.0,0.0,15.0,6.0,0.0
6880,32.0,0.0,40.0,12.0,0.0
6881,44.0,0.0,40.0,5.0,0.0
6882,86.0,0.0,15.0,2.0,0.0
6883,71.0,0.0,15.0,4.0,0.0
6884,86.0,0.0,15.0,7.0,0.0
6885,44.0,0.0,40.0,11.0,0.0
6886,76.0,0.0,40.0,0.0,0.0
6887,85.0,0.0,15.0,2.0,0.0
6888,69.0,0.0,15.0,4.0,0.0
6889,69.0,0.0,15.0,14.0,0.0
6890,85.0,12.0,15.0,6.0,0.0
6891,85.0,0.0,15.0,7.0,0.0
6892,86.0,0.0,15.0,7.0,0.0
6893,86.0,0.0,15.0,2.0,0.0
6894,71.0,0.0,15.0,14.0,0.0
6895,71.0,2.0,15.0,4.0,0.0
6896,86.0,0.0,15.0,6.0,0.0
6897,85.0,0.0,15.0,2.0,0.0
6898,69.0,0.0,15.0,4.0,0.0
6899,69.0,0.0,15.0,14.0,0.0
6900,85.0,0.0,15.0,6.0,0.0
6901,85.0,12.0,15.0,7.0,0.0
6902,73.0,0.0,90.0,13.0,0.0
6903,71.0,0.0,15.0,4.0,0.0
6904,42.0,0.0,40.0,11.0,0.0
6905,76.0,4.0,40.0,0.0,0.0
6906,42.0,0.0,40.0,5.0,0.0
6907,86.0,0.0,15.0,6.0,0.0
6908,86.0,0.0,15.0,2.0,0.0
6909,86.0,12.0,15.0,7.0,0.0
6910,42.0,0.0,40.0,13.0,0.0
6911,81.0,0.0,90.0,8.0,0.0
6912,71.0,0.0,15.0,14.0,0.0
6913,81.0,0.0,90.0,13.0,0.0
6914,30.0,0.0,40.0,12.0,0.0
6915,81.0,6.0,90.0,3.0,0.0
6916,85.0,0.0,15.0,2.0,0.0
6917,85.0,0.0,15.0,6.0,0.0
6918,69.0,12.0,15.0,4.0,0.0
6919,85.0,0.0,15.0,7.0,0.0
6920,69.0,0.0,15.0,14.0,0.0
6921,71.0,0.0,15.0,4.0,0.0
6922,86.0,0.0,15.0,7.0,0.0
6923,86.0,8.0,15.0,2.0,0.0
6924,86.0,0.0,15.0,6.0,0.0
6925,71.0,0.0,15.0,14.0,0.0
6926,85.0,0.0,15.0,7.0,0.0
6927,69.0,0.0,15.0,4.0,0.0
6928,69.0,23.0,15.0,14.0,0.0
6929,85.0,0.0,15.0,2.0,0.0
6930,85.0,0.0,15.0,6.0,0.0
6931,68.0,0.0,20.0,14.0,0.0
6932,83.0,15.0,20.0,7.0,0.0
6933,44.0,0.0,40.0,13.0,0.0
6934,76.0,0.0,40.0,0.0,0.0
6935,44.0,0.0,40.0,5.0,0.0
6936,83.0,0.0,20.0,6.0,0.0
6937,83.0,0.0,20.0,2.0,0.0
6938,44.0,0.0,40.0,11.0,0.0
6939,68.0,0.0,20.0,4.0,0.0
6940,32.0,3.0,40.0,12.0,0.0
6941,85.0,0.0,20.0,7.0,0.0
6942,85.0,0.0,20.0,6.0,0.0
6943,85.0,0.0,20.0,2.0,0.0
6944,69.0,0.0,20.0,14.0,0.0
6945,69.0,87.0,20.0,4.0,0.0
6946,86.0,0.0,90.0,6.0,0.0
6947,28.0,0.0,90.0,12.0,0.0
6948,80.0,0.0,90.0,3.0,0.0
6949,71.0,0.0,90.0,4.0,0.0
6950,71.0,0.0,90.0,14.0,0.0
6951,71.0,0.0,90.0,13.0,0.0
6952,40.0,0.0,90.0,13.0,0.0
6953,86.0,0.0,90.0,7.0,0.0
6954,40.0,0.0,90.0,5.0,0.0
6955,40.0,0.0,90.0,11.0,0.0
6956,80.0,0.0,90.0,13.0,0.0
6957,80.0,22.0,90.0,8.0,0.0
6958,71.0,0.0,90.0,1.0,0.0
6959,86.0,0.0,90.0,2.0,0.0
6960,76.0,0.0,180.0,0.0,0.0
6961,52.0,0.0,40.0,5.0,0.0
6962,85.0,0.0,40.0,6.0,0.0
6963,81.0,0.0,90.0,8.0,0.0
6964,83.0,12.0,15.0,3.0,0.0
6965,85.0,0.0,40.0,2.0,0.0
6966,76.0,0.0,90.0,14.0,0.0
6967,40.0,0.0,40.0,12.0,0.0
6968,52.0,0.0,40.0,11.0,0.0
6969,85.0,4.0,40.0,7.0,0.0
6970,76.0,6.0,90.0,4.0,0.0
6971,73.0,0.0,90.0,13.0,0.0
6972,81.0,0.0,90.0,13.0,0.0
6973,52.0,0.0,40.0,13.0,0.0
6974,64.0,0.0,40.0,1.0,0.0
6975,81.0,12.0,15.0,3.0,0.0
6976,83.0,8.0,15.0,3.0,0.0
6977,81.0,12.0,15.0,3.0,0.0
6978,64.0,0.0,40.0,1.0,0.0
6979,83.0,12.0,15.0,3.0,0.0
6980,54.0,0.0,40.0,5.0,0.0
6981,83.0,0.0,40.0,7.0,0.0
6982,42.0,4.0,40.0,12.0,0.0
6983,83.0,0.0,40.0,6.0,0.0
6984,54.0,0.0,40.0,11.0,0.0
6985,54.0,0.0,40.0,13.0,0.0
6986,83.0,0.0,40.0,2.0,0.0
6987,81.0,12.0,15.0,3.0,0.0
6988,83.0,2.0,15.0,3.0,0.0
6989,81.0,44.0,15.0,3.0,0.0
6990,83.0,0.0,90.0,13.0,0.0
6991,88.0,0.0,90.0,6.0,0.0
6992,88.0,0.0,90.0,2.0,0.0
6993,83.0,6.0,90.0,3.0,0.0
6994,76.0,0.0,90.0,13.0,0.0
6995,56.0,42.0,40.0,5.0,0.0
6996,64.0,0.0,40.0,1.0,0.0
6997,74.0,0.0,90.0,0.0,0.0
6998,88.0,0.0,90.0,7.0,0.0
6999,68.0,0.0,90.0,14.0,0.0
7000,56.0,0.0,40.0,11.0,0.0
7001,56.0,0.0,40.0,13.0,0.0
7002,44.0,0.0,40.0,12.0,0.0
7003,68.0,0.0,90.0,4.0,0.0
7004,83.0,0.0,90.0,8.0,0.0
7005,64.0,0.0,40.0,1.0,0.0
7006,52.0,0.0,40.0,5.0,0.0
7007,52.0,0.0,40.0,11.0,0.0
7008,40.0,48.0,40.0,12.0,0.0
7009,52.0,0.0,40.0,13.0,0.0
7010,54.0,0.0,40.0,11.0,0.0
7011,81.0,42.0,40.0,6.0,0.0
7012,54.0,0.0,40.0,5.0,0.0
7013,78.0,0.0,90.0,3.0,0.0
7014,81.0,0.0,40.0,2.0,0.0
7015,78.0,6.0,90.0,8.0,0.0
7016,73.0,0.0,90.0,0.0,0.0
7017,69.0,0.0,90.0,1.0,0.0
7018,73.0,0.0,40.0,4.0,0.0
7019,81.0,0.0,40.0,7.0,0.0
7020,73.0,0.0,40.0,14.0,0.0
7021,42.0,0.0,40.0,12.0,0.0
7022,54.0,0.0,40.0,13.0,0.0
7023,81.0,0.0,90.0,13.0,0.0
7024,73.0,0.0,90.0,13.0,0.0
7025,50.0,0.0,40.0,11.0,0.0
7026,83.0,0.0,40.0,7.0,0.0
7027,74.0,0.0,40.0,4.0,0.0
7028,83.0,0.0,40.0,2.0,0.0
7029,74.0,0.0,40.0,14.0,0.0
7030,38.0,0.0,40.0,12.0,0.0
7031,50.0,0.0,40.0,13.0,0.0
7032,50.0,0.0,40.0,5.0,0.0
7033,83.0,16.0,40.0,6.0,0.0
7034,71.0,0.0,120.0,4.0,0.0
7035,71.0,0.0,90.0,13.0,0.0
7036,74.0,0.0,40.0,0.0,0.0
7037,52.0,6.0,90.0,13.0,0.0
7038,71.0,0.0,15.0,14.0,0.0
7039,80.0,6.0,120.0,7.0,0.0
7040,78.0,12.0,15.0,3.0,0.0
7041,80.0,0.0,90.0,13.0,0.0
7042,52.0,0.0,90.0,5.0,0.0
7043,64.0,4.0,40.0,1.0,0.0
7044,80.0,0.0,120.0,6.0,0.0
7045,40.0,0.0,90.0,12.0,0.0
7046,80.0,0.0,120.0,2.0,0.0
7047,52.0,0.0,90.0,11.0,0.0
7048,78.0,0.0,15.0,8.0,0.0
7049,76.0,0.0,15.0,8.0,0.0
7050,69.0,12.0,15.0,14.0,0.0
7051,76.0,0.0,15.0,3.0,0.0
7052,78.0,0.0,15.0,8.0,0.0
7053,78.0,0.0,15.0,3.0,0.0
7054,71.0,8.0,15.0,14.0,0.0
7055,69.0,12.0,15.0,14.0,0.0
7056,76.0,0.0,15.0,3.0,0.0
7057,76.0,0.0,15.0,8.0,0.0
7058,64.0,0.0,40.0,1.0,0.0
7059,71.0,12.0,15.0,14.0,0.0
7060,78.0,0.0,15.0,3.0,0.0
7061,78.0,0.0,15.0,8.0,0.0
7062,73.0,4.0,40.0,0.0,0.0
7063,69.0,12.0,15.0,14.0,0.0
7064,76.0,0.0,15.0,3.0,0.0
7065,76.0,0.0,15.0,8.0,0.0
7066,78.0,0.0,15.0,3.0,0.0
7067,78.0,2.0,15.0,8.0,0.0
7068,71.0,0.0,15.0,14.0,0.0
7069,76.0,12.0,15.0,8.0,0.0
7070,76.0,0.0,15.0,3.0,0.0
7071,69.0,0.0,15.0,14.0,0.0
7072,40.0,0.0,90.0,5.0,0.0
7073,78.0,0.0,15.0,3.0,0.0
7074,64.0,0.0,40.0,1.0,0.0
7075,71.0,4.0,40.0,0.0,0.0
7076,40.0,0.0,90.0,11.0,0.0
7077,78.0,12.0,15.0,8.0,0.0
7078,28.0,0.0,90.0,12.0,0.0
7079,71.0,0.0,15.0,14.0,0.0
7080,71.0,0.0,90.0,13.0,0.0
7081,40.0,6.0,90.0,13.0,0.0
7082,68.0,0.0,90.0,13.0,0.0
7083,76.0,12.0,15.0,8.0,0.0
7084,76.0,0.0,15.0,3.0,0.0
7085,69.0,0.0,15.0,14.0,0.0
7086,71.0,0.0,15.0,14.0,0.0
7087,78.0,2.0,15.0,3.0,0.0
7088,78.0,0.0,15.0,8.0,0.0
7089,76.0,0.0,15.0,8.0,0.0
7090,69.0,0.0,15.0,14.0,0.0
7091,76.0,38.0,15.0,3.0,0.0
7092,76.0,0.0,40.0,8.0,0.0
7093,81.0,186.0,40.0,7.0,0.0
7094,81.0,0.0,40.0,6.0,0.0
7095,76.0,0.0,40.0,3.0,0.0
7096,64.0,0.0,40.0,1.0,0.0
7097,73.0,0.0,40.0,4.0,0.0
7098,73.0,0.0,40.0,14.0,0.0
7099,73.0,0.0,40.0,0.0,0.0
7100,81.0,0.0,40.0,2.0,0.0
7101,64.0,0.0,270.0,13.0,0.0
7102,33.0,0.0,270.0,12.0,0.0
7103,73.0,438.0,270.0,4.0,0.0
7104,45.0,0.0,270.0,11.0,0.0
7105,76.0,96.0,180.0,8.0,0.0
7106,81.0,0.0,270.0,2.0,0.0
7107,76.0,0.0,270.0,3.0,0.0
7108,81.0,0.0,270.0,6.0,0.0
7109,81.0,0.0,270.0,7.0,0.0
7110,69.0,0.0,270.0,0.0,0.0
7111,73.0,0.0,270.0,13.0,0.0
7112,45.0,0.0,270.0,13.0,0.0
7113,61.0,0.0,270.0,1.0,0.0
7114,73.0,0.0,270.0,14.0,0.0
7115,45.0,0.0,270.0,5.0,0.0
7116,61.0,0.0,40.0,8.0,0.0
7117,57.0,0.0,40.0,14.0,0.0
7118,64.0,0.0,40.0,13.0,0.0
7119,73.0,27.0,40.0,13.0,0.0
7120,45.0,0.0,40.0,13.0,0.0
7121,64.0,0.0,40.0,7.0,0.0
7122,61.0,0.0,40.0,14.0,0.0
7123,69.0,21.0,20.0,7.0,0.0
7124,45.0,3.0,40.0,13.0,0.0
7125,64.0,0.0,40.0,8.0,0.0
7126,73.0,0.0,40.0,13.0,0.0
7127,64.0,0.0,40.0,13.0,0.0
7128,73.0,24.0,20.0,7.0,0.0
7129,71.0,21.0,20.0,7.0,0.0
7130,68.0,0.0,40.0,8.0,0.0
7131,62.0,0.0,40.0,14.0,0.0
7132,45.0,3.0,40.0,13.0,0.0
7133,71.0,0.0,40.0,13.0,0.0
7134,62.0,0.0,40.0,13.0,0.0
7135,68.0,24.0,20.0,7.0,0.0
7136,61.0,0.0,40.0,14.0,0.0
7137,69.0,21.0,20.0,7.0,0.0
7138,64.0,0.0,40.0,13.0,0.0
7139,64.0,3.0,40.0,8.0,0.0
7140,45.0,0.0,40.0,13.0,0.0
7141,73.0,0.0,40.0,13.0,0.0
7142,64.0,24.0,20.0,7.0,0.0
7143,71.0,21.0,20.0,7.0,0.0
7144,62.0,0.0,40.0,14.0,0.0
7145,68.0,0.0,40.0,8.0,0.0
7146,62.0,3.0,40.0,13.0,0.0
7147,71.0,0.0,40.0,13.0,0.0
7148,45.0,0.0,40.0,13.0,0.0
7149,74.0,24.0,20.0,7.0,0.0
7150,64.0,0.0,40.0,14.0,0.0
7151,69.0,0.0,40.0,8.0,0.0
7152,73.0,21.0,20.0,7.0,0.0
7153,64.0,0.0,40.0,13.0,0.0
7154,73.0,3.0,40.0,13.0,0.0
7155,45.0,0.0,40.0,13.0,0.0
7156,69.0,24.0,20.0,7.0,0.0
7157,62.0,3.0,40.0,14.0,0.0
7158,71.0,21.0,20.0,7.0,0.0
7159,62.0,0.0,40.0,13.0,0.0
7160,71.0,0.0,40.0,13.0,0.0
7161,45.0,0.0,40.0,13.0,0.0
7162,68.0,0.0,40.0,8.0,0.0
7163,64.0,24.0,20.0,7.0,0.0
7164,73.0,21.0,20.0,7.0,0.0
7165,64.0,0.0,40.0,13.0,0.0
7166,73.0,0.0,40.0,13.0,0.0
7167,45.0,0.0,40.0,13.0,0.0
7168,69.0,3.0,40.0,8.0,0.0
7169,64.0,0.0,40.0,14.0,0.0
7170,76.0,24.0,20.0,7.0,0.0
7171,68.0,0.0,40.0,14.0,0.0
7172,71.0,0.0,40.0,8.0,0.0
7173,62.0,0.0,40.0,13.0,0.0
7174,74.0,21.0,20.0,7.0,0.0
7175,71.0,0.0,40.0,13.0,0.0
7176,45.0,3.0,40.0,13.0,0.0
7177,71.0,24.0,20.0,7.0,0.0
7178,71.0,0.0,40.0,13.0,0.0
7179,45.0,0.0,40.0,13.0,0.0
7180,64.0,0.0,40.0,14.0,0.0
7181,69.0,0.0,40.0,8.0,0.0
7182,73.0,21.0,20.0,7.0,0.0
7183,64.0,3.0,40.0,13.0,0.0
7184,69.0,45.0,20.0,7.0,0.0
7185,74.0,0.0,40.0,7.0,0.0
7186,71.0,0.0,40.0,8.0,0.0
7187,45.0,48.0,40.0,13.0,0.0
7188,71.0,0.0,40.0,13.0,0.0
7189,68.0,0.0,40.0,14.0,0.0
7190,62.0,0.0,40.0,13.0,0.0
7191,71.0,0.0,40.0,13.0,0.0
7192,71.0,0.0,40.0,8.0,0.0
7193,74.0,27.0,60.0,7.0,0.0
7194,62.0,21.0,40.0,13.0,0.0
7195,68.0,0.0,40.0,14.0,0.0
7196,45.0,0.0,40.0,13.0,0.0
7197,68.0,0.0,40.0,14.0,0.0
7198,62.0,0.0,40.0,13.0,0.0
7199,71.0,3.0,40.0,13.0,0.0
7200,71.0,0.0,40.0,8.0,0.0
7201,45.0,0.0,40.0,13.0,0.0
7202,71.0,24.0,20.0,7.0,0.0
7203,73.0,21.0,20.0,7.0,0.0
7204,64.0,0.0,40.0,13.0,0.0
7205,73.0,0.0,40.0,13.0,0.0
7206,69.0,3.0,40.0,8.0,0.0
7207,45.0,0.0,40.0,13.0,0.0
7208,64.0,0.0,40.0,14.0,0.0
7209,69.0,45.0,20.0,7.0,0.0
7210,45.0,0.0,40.0,13.0,0.0
7211,61.0,0.0,40.0,14.0,0.0
7212,76.0,27.0,60.0,7.0,0.0
7213,69.0,21.0,40.0,8.0,0.0
7214,73.0,0.0,40.0,13.0,0.0
7215,64.0,0.0,40.0,13.0,0.0
7216,62.0,3.0,40.0,13.0,0.0
7217,45.0,0.0,40.0,13.0,0.0
7218,68.0,0.0,40.0,8.0,0.0
7219,62.0,0.0,40.0,14.0,0.0
7220,71.0,0.0,40.0,13.0,0.0
7221,71.0,24.0,20.0,7.0,0.0
7222,45.0,3.0,40.0,13.0,0.0
7223,73.0,0.0,40.0,13.0,0.0
7224,64.0,0.0,40.0,13.0,0.0
7225,73.0,21.0,20.0,7.0,0.0
7226,64.0,0.0,40.0,14.0,0.0
7227,69.0,0.0,40.0,8.0,0.0
7228,69.0,45.0,20.0,7.0,0.0
7229,45.0,21.0,40.0,13.0,0.0
7230,71.0,0.0,40.0,13.0,0.0
7231,62.0,0.0,40.0,13.0,0.0
7232,71.0,27.0,60.0,7.0,0.0
7233,68.0,0.0,40.0,8.0,0.0
7234,62.0,0.0,40.0,14.0,0.0
7235,62.0,0.0,40.0,8.0,0.0
7236,62.0,3.0,40.0,13.0,0.0
7237,71.0,0.0,40.0,13.0,0.0
7238,59.0,0.0,40.0,14.0,0.0
7239,45.0,0.0,40.0,13.0,0.0
7240,68.0,24.0,20.0,7.0,0.0
7241,64.0,0.0,40.0,13.0,0.0
7242,69.0,21.0,20.0,7.0,0.0
7243,64.0,0.0,40.0,8.0,0.0
7244,61.0,0.0,40.0,14.0,0.0
7245,73.0,0.0,40.0,13.0,0.0
7246,45.0,3.0,40.0,13.0,0.0
7247,64.0,24.0,20.0,7.0,0.0
7248,64.0,0.0,40.0,8.0,0.0
7249,44.0,0.0,40.0,13.0,0.0
7250,71.0,3.0,40.0,13.0,0.0
7251,80.0,0.0,40.0,13.0,0.0
7252,74.0,21.0,20.0,7.0,0.0
7253,59.0,0.0,40.0,14.0,0.0
7254,71.0,24.0,20.0,7.0,0.0
7255,73.0,0.0,40.0,13.0,0.0
7256,45.0,0.0,40.0,13.0,0.0
7257,57.0,0.0,40.0,14.0,0.0
7258,64.0,3.0,40.0,8.0,0.0
7259,73.0,21.0,20.0,7.0,0.0
7260,64.0,0.0,40.0,13.0,0.0
7261,69.0,45.0,20.0,7.0,0.0
7262,71.0,27.0,40.0,7.0,0.0
7263,40.0,0.0,40.0,13.0,0.0
7264,80.0,0.0,40.0,13.0,0.0
7265,64.0,0.0,40.0,8.0,0.0
7266,56.0,0.0,40.0,14.0,0.0
7267,71.0,0.0,40.0,13.0,0.0
7268,69.0,0.0,40.0,13.0,0.0
7269,42.0,3.0,40.0,13.0,0.0
7270,75.0,0.0,40.0,13.0,0.0
7271,63.0,0.0,40.0,8.0,0.0
7272,57.0,0.0,40.0,14.0,0.0
7273,69.0,21.0,20.0,7.0,0.0
7274,68.0,24.0,20.0,7.0,0.0
7275,64.0,0.0,40.0,8.0,0.0
7276,64.0,0.0,40.0,13.0,0.0
7277,71.0,3.0,40.0,13.0,0.0
7278,44.0,0.0,40.0,13.0,0.0
7279,59.0,0.0,40.0,14.0,0.0
7280,66.0,21.0,20.0,7.0,0.0
7281,64.0,24.0,20.0,7.0,0.0
7282,69.0,21.0,20.0,7.0,0.0
7283,64.0,0.0,40.0,8.0,0.0
7284,64.0,0.0,40.0,13.0,0.0
7285,61.0,0.0,40.0,14.0,0.0
7286,45.0,3.0,40.0,13.0,0.0
7287,73.0,0.0,40.0,13.0,0.0
7288,73.0,24.0,20.0,7.0,0.0
7289,71.0,21.0,20.0,7.0,0.0
7290,68.0,0.0,40.0,8.0,0.0
7291,71.0,0.0,40.0,13.0,0.0
7292,45.0,0.0,40.0,13.0,0.0
7293,62.0,0.0,40.0,14.0,0.0
7294,62.0,3.0,40.0,13.0,0.0
7295,68.0,24.0,20.0,7.0,0.0
7296,73.0,0.0,40.0,13.0,0.0
7297,45.0,3.0,40.0,13.0,0.0
7298,69.0,21.0,20.0,7.0,0.0
7299,64.0,0.0,40.0,8.0,0.0
7300,64.0,0.0,40.0,13.0,0.0
7301,61.0,0.0,40.0,14.0,0.0
7302,64.0,24.0,20.0,7.0,0.0
7303,71.0,21.0,20.0,7.0,0.0
7304,71.0,0.0,40.0,13.0,0.0
7305,62.0,0.0,40.0,14.0,0.0
7306,45.0,0.0,40.0,13.0,0.0
7307,68.0,3.0,40.0,8.0,0.0
7308,62.0,0.0,40.0,13.0,0.0
7309,74.0,24.0,20.0,7.0,0.0
7310,45.0,0.0,40.0,13.0,0.0
7311,73.0,0.0,40.0,13.0,0.0
7312,64.0,3.0,40.0,13.0,0.0
7313,64.0,0.0,40.0,14.0,0.0
7314,69.0,0.0,40.0,8.0,0.0
7315,73.0,21.0,20.0,7.0,0.0
7316,69.0,24.0,20.0,7.0,0.0
7317,45.0,0.0,40.0,13.0,0.0
7318,62.0,3.0,40.0,13.0,0.0
7319,62.0,0.0,40.0,14.0,0.0
7320,71.0,21.0,20.0,7.0,0.0
7321,68.0,0.0,40.0,8.0,0.0
7322,71.0,0.0,40.0,13.0,0.0
7323,64.0,24.0,20.0,7.0,0.0
7324,45.0,0.0,40.0,13.0,0.0
7325,73.0,0.0,40.0,13.0,0.0
7326,64.0,0.0,40.0,13.0,0.0
7327,69.0,3.0,40.0,8.0,0.0
7328,73.0,21.0,20.0,7.0,0.0
7329,64.0,0.0,40.0,14.0,0.0
7330,76.0,24.0,20.0,7.0,0.0
7331,45.0,0.0,40.0,13.0,0.0
7332,71.0,3.0,40.0,8.0,0.0
7333,71.0,0.0,40.0,13.0,0.0
7334,68.0,0.0,40.0,14.0,0.0
7335,74.0,21.0,20.0,7.0,0.0
7336,62.0,0.0,40.0,13.0,0.0
7337,71.0,24.0,20.0,7.0,0.0
7338,64.0,0.0,40.0,14.0,0.0
7339,73.0,21.0,20.0,7.0,0.0
7340,45.0,0.0,40.0,13.0,0.0
7341,73.0,0.0,40.0,13.0,0.0
7342,64.0,0.0,40.0,13.0,0.0
7343,69.0,3.0,40.0,8.0,0.0
7344,69.0,45.0,20.0,7.0,0.0
7345,75.0,0.0,40.0,7.0,0.0
7346,66.0,0.0,40.0,13.0,0.0
7347,66.0,0.0,40.0,14.0,0.0
7348,75.0,0.0,40.0,13.0,0.0
7349,45.0,48.0,40.0,13.0,0.0
7350,71.0,0.0,40.0,8.0,0.0
7351,66.0,0.0,40.0,13.0,0.0
7352,75.0,21.0,40.0,13.0,0.0
7353,66.0,0.0,40.0,14.0,0.0
7354,75.0,27.0,60.0,7.0,0.0
7355,45.0,0.0,40.0,13.0,0.0
7356,71.0,0.0,40.0,8.0,0.0
7357,66.0,3.0,40.0,14.0,0.0
7358,71.0,0.0,40.0,8.0,0.0
7359,66.0,0.0,40.0,13.0,0.0
7360,75.0,0.0,40.0,13.0,0.0
7361,45.0,0.0,40.0,13.0,0.0
7362,71.0,24.0,20.0,7.0,0.0
7363,45.0,0.0,40.0,13.0,0.0
7364,78.0,21.0,20.0,7.0,0.0
7365,75.0,0.0,40.0,8.0,0.0
7366,66.0,0.0,40.0,13.0,0.0
7367,75.0,3.0,40.0,13.0,0.0
7368,71.0,0.0,40.0,14.0,0.0
7369,75.0,24.0,20.0,7.0,0.0
7370,66.0,0.0,40.0,13.0,0.0
7371,45.0,0.0,40.0,13.0,0.0
7372,75.0,0.0,40.0,13.0,0.0
7373,66.0,0.0,40.0,14.0,0.0
7374,75.0,3.0,40.0,8.0,0.0
7375,81.0,21.0,20.0,7.0,0.0
7376,78.0,24.0,20.0,7.0,0.0
7377,45.0,0.0,40.0,13.0,0.0
7378,71.0,3.0,40.0,13.0,0.0
7379,64.0,0.0,40.0,13.0,0.0
7380,76.0,0.0,40.0,8.0,0.0
7381,80.0,21.0,20.0,7.0,0.0
7382,64.0,0.0,40.0,14.0,0.0
7383,76.0,24.0,20.0,7.0,0.0
7384,75.0,0.0,40.0,8.0,0.0
7385,71.0,0.0,40.0,13.0,0.0
7386,63.0,0.0,40.0,13.0,0.0
7387,45.0,3.0,40.0,13.0,0.0
7388,71.0,0.0,40.0,14.0,0.0
7389,78.0,21.0,20.0,7.0,0.0
7390,75.0,24.0,20.0,7.0,0.0
7391,64.0,3.0,40.0,13.0,0.0
7392,73.0,0.0,40.0,13.0,0.0
7393,45.0,0.0,40.0,13.0,0.0
7394,76.0,21.0,20.0,7.0,0.0
7395,73.0,0.0,40.0,8.0,0.0
7396,68.0,0.0,40.0,14.0,0.0
7397,73.0,24.0,20.0,7.0,0.0
7398,66.0,0.0,40.0,14.0,0.0
7399,75.0,21.0,20.0,7.0,0.0
7400,45.0,0.0,40.0,13.0,0.0
7401,71.0,0.0,40.0,13.0,0.0
7402,66.0,0.0,40.0,13.0,0.0
7403,71.0,3.0,40.0,8.0,0.0
7404,71.0,45.0,20.0,7.0,0.0
7405,44.0,0.0,40.0,13.0,0.0
7406,71.0,0.0,40.0,13.0,0.0
7407,64.0,0.0,40.0,13.0,0.0
7408,64.0,27.0,40.0,14.0,0.0
7409,83.0,0.0,40.0,7.0,0.0
7410,71.0,0.0,40.0,8.0,0.0
7411,64.0,0.0,40.0,14.0,0.0
7412,64.0,0.0,40.0,13.0,0.0
7413,73.0,0.0,40.0,13.0,0.0
7414,45.0,3.0,40.0,13.0,0.0
7415,73.0,21.0,20.0,8.0,0.0
7416,81.0,0.0,20.0,7.0,0.0
7417,71.0,24.0,20.0,8.0,0.0
7418,80.0,0.0,20.0,7.0,0.0
7419,78.0,0.0,20.0,7.0,0.0
7420,66.0,0.0,40.0,13.0,0.0
7421,69.0,21.0,20.0,8.0,0.0
7422,63.0,0.0,40.0,14.0,0.0
7423,47.0,3.0,40.0,13.0,0.0
7424,75.0,0.0,40.0,13.0,0.0
7425,68.0,0.0,20.0,8.0,0.0
7426,76.0,24.0,20.0,7.0,0.0
7427,69.0,0.0,20.0,8.0,0.0
7428,59.0,3.0,40.0,14.0,0.0
7429,66.0,0.0,40.0,13.0,0.0
7430,71.0,0.0,40.0,13.0,0.0
7431,40.0,0.0,40.0,13.0,0.0
7432,78.0,21.0,20.0,7.0,0.0
7433,75.0,0.0,20.0,7.0,0.0
7434,66.0,24.0,20.0,8.0,0.0
7435,59.0,0.0,30.0,14.0,0.0
7436,68.0,0.0,30.0,8.0,0.0
7437,76.0,14.0,30.0,7.0,0.0
7438,64.0,0.0,30.0,13.0,0.0
7439,71.0,0.0,30.0,13.0,0.0
7440,52.0,10.0,20.0,13.0,0.0
7441,50.0,24.0,20.0,13.0,0.0
7442,57.0,0.0,40.0,14.0,0.0
7443,49.0,21.0,20.0,13.0,0.0
7444,76.0,0.0,40.0,13.0,0.0
7445,69.0,0.0,40.0,13.0,0.0
7446,61.0,0.0,40.0,8.0,0.0
7447,64.0,3.0,40.0,7.0,0.0
7448,47.0,24.0,20.0,13.0,0.0
7449,69.0,21.0,20.0,7.0,0.0
7450,64.0,0.0,40.0,8.0,0.0
7451,73.0,0.0,40.0,13.0,0.0
7452,64.0,0.0,40.0,13.0,0.0
7453,45.0,3.0,40.0,13.0,0.0
7454,61.0,0.0,40.0,14.0,0.0
7455,73.0,24.0,20.0,7.0,0.0
7456,45.0,0.0,40.0,13.0,0.0
7457,71.0,21.0,20.0,7.0,0.0
7458,62.0,3.0,40.0,14.0,0.0
7459,68.0,0.0,40.0,8.0,0.0
7460,62.0,0.0,40.0,13.0,0.0
7461,71.0,0.0,40.0,13.0,0.0
7462,68.0,24.0,20.0,7.0,0.0
7463,69.0,21.0,20.0,7.0,0.0
7464,64.0,3.0,40.0,8.0,0.0
7465,61.0,0.0,40.0,14.0,0.0
7466,45.0,0.0,40.0,13.0,0.0
7467,73.0,0.0,40.0,13.0,0.0
7468,64.0,0.0,40.0,13.0,0.0
7469,64.0,24.0,20.0,7.0,0.0
7470,71.0,21.0,20.0,7.0,0.0
7471,62.0,0.0,40.0,14.0,0.0
7472,62.0,0.0,40.0,13.0,0.0
7473,71.0,3.0,40.0,13.0,0.0
7474,45.0,0.0,40.0,13.0,0.0
7475,68.0,0.0,40.0,8.0,0.0
7476,74.0,24.0,20.0,7.0,0.0
7477,64.0,0.0,40.0,13.0,0.0
7478,64.0,0.0,40.0,14.0,0.0
7479,69.0,0.0,40.0,8.0,0.0
7480,73.0,0.0,40.0,13.0,0.0
7481,73.0,21.0,20.0,7.0,0.0
7482,45.0,3.0,40.0,13.0,0.0
7483,69.0,24.0,20.0,7.0,0.0
7484,62.0,3.0,40.0,13.0,0.0
7485,62.0,0.0,40.0,14.0,0.0
7486,68.0,0.0,40.0,8.0,0.0
7487,71.0,21.0,20.0,7.0,0.0
7488,71.0,0.0,40.0,13.0,0.0
7489,45.0,0.0,40.0,13.0,0.0
7490,64.0,24.0,20.0,7.0,0.0
7491,45.0,0.0,40.0,13.0,0.0
7492,73.0,3.0,40.0,13.0,0.0
7493,64.0,0.0,40.0,14.0,0.0
7494,64.0,0.0,40.0,13.0,0.0
7495,69.0,0.0,40.0,8.0,0.0
7496,73.0,21.0,20.0,7.0,0.0
7497,76.0,24.0,20.0,7.0,0.0
7498,68.0,0.0,40.0,14.0,0.0
7499,71.0,0.0,40.0,13.0,0.0
7500,74.0,21.0,20.0,7.0,0.0
7501,45.0,0.0,40.0,13.0,0.0
7502,62.0,3.0,40.0,13.0,0.0
7503,71.0,0.0,40.0,8.0,0.0
7504,71.0,24.0,20.0,7.0,0.0
7505,64.0,0.0,40.0,14.0,0.0
7506,71.0,0.0,40.0,13.0,0.0
7507,73.0,21.0,20.0,7.0,0.0
7508,64.0,0.0,40.0,13.0,0.0
7509,69.0,0.0,40.0,8.0,0.0
7510,45.0,3.0,40.0,13.0,0.0
7511,69.0,45.0,20.0,7.0,0.0
7512,62.0,0.0,40.0,13.0,0.0
7513,71.0,0.0,40.0,13.0,0.0
7514,45.0,0.0,40.0,13.0,0.0
7515,71.0,0.0,40.0,8.0,0.0
7516,74.0,48.0,40.0,7.0,0.0
7517,68.0,0.0,40.0,14.0,0.0
7518,68.0,0.0,40.0,14.0,0.0
7519,62.0,0.0,40.0,13.0,0.0
7520,74.0,27.0,60.0,7.0,0.0
7521,45.0,0.0,40.0,13.0,0.0
7522,71.0,0.0,40.0,13.0,0.0
7523,71.0,21.0,40.0,8.0,0.0
7524,62.0,3.0,40.0,13.0,0.0
7525,68.0,0.0,40.0,14.0,0.0
7526,71.0,0.0,40.0,13.0,0.0
7527,45.0,0.0,40.0,13.0,0.0
7528,71.0,0.0,40.0,8.0,0.0
7529,71.0,24.0,20.0,7.0,0.0
7530,64.0,0.0,40.0,13.0,0.0
7531,73.0,0.0,40.0,13.0,0.0
7532,45.0,3.0,40.0,13.0,0.0
7533,64.0,0.0,40.0,14.0,0.0
7534,69.0,0.0,40.0,8.0,0.0
7535,73.0,21.0,20.0,7.0,0.0
7536,69.0,45.0,20.0,7.0,0.0
7537,69.0,0.0,40.0,8.0,0.0
7538,61.0,0.0,40.0,14.0,0.0
7539,45.0,21.0,40.0,13.0,0.0
7540,76.0,27.0,60.0,7.0,0.0
7541,64.0,0.0,40.0,13.0,0.0
7542,73.0,0.0,40.0,13.0,0.0
7543,62.0,3.0,40.0,13.0,0.0
7544,71.0,0.0,40.0,13.0,0.0
7545,45.0,0.0,40.0,13.0,0.0
7546,62.0,0.0,40.0,14.0,0.0
7547,68.0,0.0,40.0,8.0,0.0
7548,71.0,24.0,20.0,7.0,0.0
7549,73.0,21.0,20.0,7.0,0.0
7550,64.0,0.0,40.0,14.0,0.0
7551,45.0,0.0,40.0,13.0,0.0
7552,73.0,3.0,40.0,13.0,0.0
7553,64.0,0.0,40.0,13.0,0.0
7554,69.0,0.0,40.0,8.0,0.0
7555,69.0,45.0,20.0,7.0,0.0
7556,62.0,0.0,40.0,13.0,0.0
7557,71.0,0.0,40.0,13.0,0.0
7558,71.0,27.0,60.0,7.0,0.0
7559,45.0,0.0,40.0,13.0,0.0
7560,62.0,21.0,40.0,14.0,0.0
7561,68.0,0.0,40.0,8.0,0.0
7562,59.0,3.0,40.0,14.0,0.0
7563,62.0,0.0,40.0,8.0,0.0
7564,62.0,0.0,40.0,13.0,0.0
7565,71.0,0.0,40.0,13.0,0.0
7566,45.0,0.0,40.0,13.0,0.0
7567,68.0,24.0,20.0,7.0,0.0
7568,45.0,0.0,40.0,13.0,0.0
7569,64.0,3.0,40.0,13.0,0.0
7570,64.0,0.0,40.0,8.0,0.0
7571,69.0,21.0,20.0,7.0,0.0
7572,73.0,0.0,40.0,13.0,0.0
7573,61.0,0.0,40.0,14.0,0.0
7574,64.0,24.0,20.0,7.0,0.0
7575,71.0,0.0,40.0,13.0,0.0
7576,80.0,0.0,40.0,13.0,0.0
7577,44.0,0.0,40.0,13.0,0.0
7578,59.0,0.0,40.0,14.0,0.0
7579,64.0,3.0,40.0,8.0,0.0
7580,74.0,21.0,20.0,7.0,0.0
7581,71.0,24.0,20.0,7.0,0.0
7582,73.0,21.0,20.0,7.0,0.0
7583,57.0,0.0,40.0,14.0,0.0
7584,64.0,0.0,40.0,8.0,0.0
7585,45.0,0.0,40.0,13.0,0.0
7586,73.0,0.0,40.0,13.0,0.0
7587,64.0,3.0,40.0,13.0,0.0
7588,69.0,45.0,20.0,7.0,0.0
7589,80.0,0.0,40.0,13.0,0.0
7590,64.0,0.0,40.0,8.0,0.0
7591,71.0,0.0,40.0,13.0,0.0
7592,40.0,0.0,40.0,13.0,0.0
7593,71.0,0.0,40.0,7.0,0.0
7594,56.0,27.0,40.0,14.0,0.0
7595,57.0,3.0,40.0,14.0,0.0
7596,69.0,21.0,20.0,7.0,0.0
7597,63.0,0.0,40.0,8.0,0.0
7598,69.0,0.0,40.0,13.0,0.0
7599,75.0,0.0,40.0,13.0,0.0
7600,42.0,0.0,40.0,13.0,0.0
7601,68.0,24.0,20.0,7.0,0.0
7602,64.0,0.0,40.0,13.0,0.0
7603,71.0,0.0,40.0,13.0,0.0
7604,44.0,0.0,40.0,13.0,0.0
7605,64.0,3.0,40.0,8.0,0.0
7606,59.0,0.0,40.0,14.0,0.0
7607,66.0,21.0,20.0,7.0,0.0
7608,64.0,24.0,20.0,7.0,0.0
7609,64.0,3.0,40.0,13.0,0.0
7610,73.0,0.0,40.0,13.0,0.0
7611,45.0,0.0,40.0,13.0,0.0
7612,69.0,21.0,20.0,7.0,0.0
7613,61.0,0.0,40.0,14.0,0.0
7614,64.0,0.0,40.0,8.0,0.0
7615,73.0,24.0,20.0,7.0,0.0
7616,68.0,0.0,40.0,8.0,0.0
7617,62.0,0.0,40.0,13.0,0.0
7618,71.0,3.0,40.0,13.0,0.0
7619,45.0,0.0,40.0,13.0,0.0
7620,71.0,21.0,20.0,7.0,0.0
7621,62.0,0.0,40.0,14.0,0.0
7622,68.0,24.0,20.0,7.0,0.0
7623,64.0,0.0,40.0,8.0,0.0
7624,61.0,3.0,40.0,14.0,0.0
7625,69.0,21.0,20.0,7.0,0.0
7626,64.0,0.0,40.0,13.0,0.0
7627,73.0,0.0,40.0,13.0,0.0
7628,45.0,0.0,40.0,13.0,0.0
7629,64.0,24.0,20.0,7.0,0.0
7630,68.0,0.0,40.0,8.0,0.0
7631,62.0,0.0,40.0,14.0,0.0
7632,45.0,3.0,40.0,13.0,0.0
7633,71.0,0.0,40.0,13.0,0.0
7634,71.0,21.0,20.0,7.0,0.0
7635,62.0,0.0,40.0,13.0,0.0
7636,74.0,24.0,20.0,7.0,0.0
7637,73.0,0.0,40.0,13.0,0.0
7638,64.0,0.0,40.0,13.0,0.0
7639,73.0,21.0,20.0,7.0,0.0
7640,69.0,0.0,40.0,8.0,0.0
7641,45.0,0.0,40.0,13.0,0.0
7642,64.0,3.0,40.0,14.0,0.0
7643,69.0,24.0,20.0,7.0,0.0
7644,71.0,0.0,40.0,13.0,0.0
7645,62.0,3.0,40.0,14.0,0.0
7646,68.0,0.0,40.0,8.0,0.0
7647,45.0,0.0,40.0,13.0,0.0
7648,62.0,0.0,40.0,13.0,0.0
7649,71.0,21.0,20.0,7.0,0.0
7650,64.0,24.0,20.0,7.0,0.0
7651,45.0,0.0,40.0,13.0,0.0
7652,64.0,0.0,40.0,14.0,0.0
7653,64.0,3.0,40.0,13.0,0.0
7654,73.0,21.0,20.0,7.0,0.0
7655,73.0,0.0,40.0,13.0,0.0
7656,69.0,0.0,40.0,8.0,0.0
7657,76.0,24.0,20.0,7.0,0.0
7658,71.0,3.0,40.0,8.0,0.0
7659,62.0,0.0,40.0,13.0,0.0
7660,71.0,0.0,40.0,13.0,0.0
7661,74.0,21.0,20.0,7.0,0.0
7662,45.0,0.0,40.0,13.0,0.0
7663,68.0,0.0,40.0,14.0,0.0
7664,71.0,24.0,20.0,7.0,0.0
7665,45.0,0.0,40.0,13.0,0.0
7666,73.0,0.0,40.0,13.0,0.0
7667,64.0,0.0,40.0,13.0,0.0
7668,64.0,0.0,40.0,14.0,0.0
7669,73.0,21.0,20.0,7.0,0.0
7670,69.0,3.0,40.0,8.0,0.0
7671,69.0,45.0,20.0,7.0,0.0
7672,66.0,48.0,40.0,13.0,0.0
7673,45.0,0.0,40.0,13.0,0.0
7674,71.0,0.0,40.0,8.0,0.0
7675,66.0,0.0,40.0,14.0,0.0
7676,75.0,0.0,40.0,7.0,0.0
7677,75.0,0.0,40.0,13.0,0.0
7678,75.0,27.0,60.0,7.0,0.0
7679,71.0,0.0,40.0,8.0,0.0
7680,66.0,0.0,40.0,14.0,0.0
7681,45.0,0.0,40.0,13.0,0.0
7682,75.0,0.0,40.0,13.0,0.0
7683,66.0,21.0,40.0,13.0,0.0
7684,66.0,3.0,40.0,13.0,0.0
7685,75.0,0.0,40.0,13.0,0.0
7686,45.0,0.0,40.0,13.0,0.0
7687,71.0,0.0,40.0,8.0,0.0
7688,66.0,0.0,40.0,14.0,0.0
7689,71.0,24.0,20.0,7.0,0.0
7690,75.0,3.0,40.0,8.0,0.0
7691,45.0,0.0,40.0,13.0,0.0
7692,75.0,0.0,40.0,13.0,0.0
7693,71.0,0.0,40.0,14.0,0.0
7694,66.0,0.0,40.0,13.0,0.0
7695,78.0,21.0,20.0,7.0,0.0
7696,75.0,24.0,20.0,7.0,0.0
7697,45.0,3.0,40.0,13.0,0.0
7698,66.0,0.0,40.0,14.0,0.0
7699,75.0,0.0,40.0,13.0,0.0
7700,66.0,0.0,40.0,13.0,0.0
7701,81.0,21.0,20.0,7.0,0.0
7702,75.0,0.0,40.0,8.0,0.0
7703,78.0,24.0,20.0,7.0,0.0
7704,64.0,0.0,40.0,13.0,0.0
7705,71.0,0.0,40.0,13.0,0.0
7706,80.0,21.0,20.0,7.0,0.0
7707,45.0,3.0,40.0,13.0,0.0
7708,76.0,0.0,40.0,8.0,0.0
7709,64.0,0.0,40.0,14.0,0.0
7710,76.0,24.0,20.0,7.0,0.0
7711,71.0,0.0,40.0,14.0,0.0
7712,63.0,3.0,40.0,13.0,0.0
7713,71.0,0.0,40.0,13.0,0.0
7714,45.0,0.0,40.0,13.0,0.0
7715,78.0,21.0,20.0,7.0,0.0
7716,75.0,0.0,40.0,8.0,0.0
7717,75.0,24.0,20.0,7.0,0.0
7718,76.0,21.0,20.0,7.0,0.0
7719,64.0,0.0,40.0,13.0,0.0
7720,73.0,0.0,40.0,13.0,0.0
7721,73.0,3.0,40.0,8.0,0.0
7722,45.0,0.0,40.0,13.0,0.0
7723,68.0,0.0,40.0,14.0,0.0
7724,73.0,24.0,20.0,7.0,0.0
7725,66.0,0.0,40.0,13.0,0.0
7726,71.0,3.0,40.0,13.0,0.0
7727,45.0,0.0,40.0,13.0,0.0
7728,66.0,0.0,40.0,14.0,0.0
7729,71.0,0.0,40.0,8.0,0.0
7730,75.0,21.0,20.0,7.0,0.0
7731,71.0,45.0,20.0,7.0,0.0
7732,64.0,27.0,40.0,14.0,0.0
7733,71.0,0.0,40.0,8.0,0.0
7734,71.0,0.0,40.0,13.0,0.0
7735,64.0,0.0,40.0,13.0,0.0
7736,83.0,0.0,40.0,7.0,0.0
7737,44.0,0.0,40.0,13.0,0.0
7738,73.0,0.0,40.0,13.0,0.0
7739,45.0,3.0,40.0,13.0,0.0
7740,64.0,0.0,40.0,13.0,0.0
7741,73.0,0.0,20.0,8.0,0.0
7742,81.0,21.0,20.0,7.0,0.0
7743,64.0,0.0,40.0,14.0,0.0
7744,71.0,24.0,20.0,8.0,0.0
7745,80.0,0.0,20.0,7.0,0.0
7746,69.0,0.0,20.0,8.0,0.0
7747,63.0,0.0,40.0,14.0,0.0
7748,78.0,21.0,20.0,7.0,0.0
7749,66.0,0.0,40.0,13.0,0.0
7750,75.0,0.0,40.0,13.0,0.0
7751,47.0,3.0,40.0,13.0,0.0
7752,76.0,0.0,20.0,7.0,0.0
7753,68.0,24.0,20.0,8.0,0.0
7754,78.0,21.0,20.0,7.0,0.0
7755,59.0,3.0,40.0,14.0,0.0
7756,40.0,0.0,40.0,13.0,0.0
7757,66.0,0.0,40.0,13.0,0.0
7758,69.0,0.0,20.0,8.0,0.0
7759,71.0,0.0,40.0,13.0,0.0
7760,75.0,0.0,20.0,7.0,0.0
7761,66.0,34.0,20.0,8.0,0.0
7762,80.0,0.0,30.0,13.0,0.0
7763,71.0,0.0,30.0,13.0,0.0
7764,40.0,48.0,40.0,13.0,0.0
7765,76.0,0.0,30.0,7.0,0.0
7766,59.0,0.0,30.0,14.0,0.0
7767,68.0,11.0,30.0,8.0,0.0
7768,71.0,0.0,40.0,13.0,0.0
7769,68.0,0.0,40.0,8.0,0.0
7770,71.0,6.0,40.0,7.0,0.0
7771,64.0,0.0,40.0,14.0,0.0
7772,80.0,0.0,40.0,13.0,0.0
7773,76.0,21.0,20.0,7.0,0.0
7774,52.0,21.0,15.0,13.0,0.0
7775,80.0,0.0,40.0,13.0,0.0
7776,71.0,0.0,40.0,13.0,0.0
7777,71.0,0.0,40.0,8.0,0.0
7778,68.0,0.0,40.0,14.0,0.0
7779,80.0,24.0,20.0,7.0,0.0
7780,69.0,0.0,40.0,13.0,0.0
7781,52.0,0.0,40.0,13.0,0.0
7782,78.0,21.0,20.0,7.0,0.0
7783,75.0,0.0,40.0,8.0,0.0
7784,78.0,3.0,40.0,13.0,0.0
7785,69.0,0.0,40.0,14.0,0.0
7786,75.0,24.0,20.0,7.0,0.0
7787,80.0,3.0,40.0,13.0,0.0
7788,68.0,0.0,40.0,14.0,0.0
7789,76.0,21.0,20.0,7.0,0.0
7790,52.0,0.0,40.0,13.0,0.0
7791,71.0,0.0,40.0,13.0,0.0
7792,71.0,0.0,40.0,8.0,0.0
7793,71.0,24.0,20.0,7.0,0.0
7794,69.0,0.0,40.0,13.0,0.0
7795,52.0,0.0,40.0,13.0,0.0
7796,78.0,0.0,40.0,13.0,0.0
7797,69.0,0.0,40.0,14.0,0.0
7798,75.0,3.0,40.0,8.0,0.0
7799,78.0,21.0,20.0,7.0,0.0
7800,81.0,24.0,20.0,7.0,0.0
7801,80.0,21.0,20.0,7.0,0.0
7802,80.0,3.0,40.0,13.0,0.0
7803,71.0,0.0,40.0,13.0,0.0
7804,76.0,0.0,40.0,8.0,0.0
7805,52.0,0.0,40.0,13.0,0.0
7806,71.0,0.0,40.0,14.0,0.0
7807,76.0,24.0,20.0,7.0,0.0
7808,69.0,3.0,40.0,14.0,0.0
7809,75.0,0.0,40.0,8.0,0.0
7810,78.0,0.0,40.0,13.0,0.0
7811,52.0,0.0,40.0,13.0,0.0
7812,69.0,0.0,40.0,13.0,0.0
7813,78.0,21.0,20.0,7.0,0.0
7814,71.0,24.0,20.0,7.0,0.0
7815,52.0,0.0,40.0,13.0,0.0
7816,71.0,0.0,40.0,13.0,0.0
7817,76.0,0.0,40.0,8.0,0.0
7818,80.0,0.0,40.0,13.0,0.0
7819,80.0,21.0,20.0,7.0,0.0
7820,71.0,3.0,40.0,14.0,0.0
7821,83.0,24.0,20.0,7.0,0.0
7822,81.0,21.0,20.0,7.0,0.0
7823,75.0,0.0,40.0,14.0,0.0
7824,78.0,0.0,40.0,8.0,0.0
7825,69.0,0.0,40.0,13.0,0.0
7826,78.0,3.0,40.0,13.0,0.0
7827,52.0,0.0,40.0,13.0,0.0
7828,78.0,24.0,20.0,7.0,0.0
7829,80.0,21.0,20.0,7.0,0.0
7830,71.0,0.0,40.0,14.0,0.0
7831,76.0,3.0,40.0,8.0,0.0
7832,52.0,0.0,40.0,13.0,0.0
7833,80.0,0.0,40.0,13.0,0.0
7834,71.0,0.0,40.0,13.0,0.0
7835,71.0,45.0,20.0,7.0,0.0
7836,71.0,0.0,40.0,14.0,0.0
7837,53.0,48.0,40.0,13.0,0.0
7838,71.0,0.0,40.0,13.0,0.0
7839,86.0,0.0,40.0,7.0,0.0
7840,80.0,0.0,40.0,8.0,0.0
7841,80.0,0.0,40.0,13.0,0.0
7842,80.0,0.0,40.0,13.0,0.0
7843,71.0,0.0,40.0,13.0,0.0
7844,53.0,0.0,40.0,13.0,0.0
7845,71.0,0.0,40.0,14.0,0.0
7846,86.0,27.0,60.0,7.0,0.0
7847,80.0,21.0,40.0,8.0,0.0
7848,56.0,0.0,40.0,13.0,0.0
7849,71.0,0.0,40.0,13.0,0.0
7850,71.0,3.0,40.0,14.0,0.0
7851,78.0,0.0,40.0,8.0,0.0
7852,78.0,0.0,40.0,13.0,0.0
7853,85.0,24.0,20.0,7.0,0.0
7854,80.0,0.0,40.0,13.0,0.0
7855,77.0,0.0,40.0,8.0,0.0
7856,49.0,0.0,40.0,13.0,0.0
7857,71.0,0.0,40.0,13.0,0.0
7858,68.0,3.0,40.0,14.0,0.0
7859,83.0,21.0,20.0,7.0,0.0
7860,80.0,24.0,20.0,7.0,0.0
7861,69.0,0.0,40.0,13.0,0.0
7862,81.0,21.0,20.0,7.0,0.0
7863,78.0,0.0,40.0,13.0,0.0
7864,78.0,0.0,40.0,8.0,0.0
7865,73.0,3.0,40.0,14.0,0.0
7866,49.0,0.0,40.0,13.0,0.0
7867,78.0,24.0,20.0,7.0,0.0
7868,68.0,0.0,40.0,14.0,0.0
7869,49.0,3.0,40.0,13.0,0.0
7870,77.0,0.0,40.0,13.0,0.0
7871,68.0,0.0,40.0,13.0,0.0
7872,77.0,21.0,20.0,7.0,0.0
7873,73.0,0.0,40.0,8.0,0.0
7874,73.0,24.0,20.0,7.0,0.0
7875,71.0,0.0,40.0,13.0,0.0
7876,77.0,0.0,40.0,13.0,0.0
7877,49.0,3.0,40.0,13.0,0.0
7878,74.0,21.0,20.0,7.0,0.0
7879,71.0,0.0,40.0,8.0,0.0
7880,65.0,0.0,40.0,14.0,0.0
7881,71.0,24.0,20.0,7.0,0.0
7882,69.0,3.0,40.0,8.0,0.0
7883,73.0,21.0,20.0,7.0,0.0
7884,69.0,0.0,40.0,13.0,0.0
7885,77.0,0.0,40.0,13.0,0.0
7886,61.0,0.0,40.0,14.0,0.0
7887,49.0,0.0,40.0,13.0,0.0
7888,69.0,24.0,20.0,7.0,0.0
7889,68.0,21.0,20.0,7.0,0.0
7890,65.0,3.0,40.0,8.0,0.0
7891,49.0,0.0,40.0,13.0,0.0
7892,77.0,0.0,40.0,13.0,0.0
7893,61.0,0.0,40.0,14.0,0.0
7894,68.0,0.0,40.0,13.0,0.0
7895,71.0,24.0,20.0,7.0,0.0
7896,61.0,0.0,40.0,14.0,0.0
7897,54.0,3.0,40.0,13.0,0.0
7898,73.0,0.0,40.0,13.0,0.0
7899,81.0,0.0,40.0,13.0,0.0
7900,69.0,21.0,20.0,7.0,0.0
7901,66.0,0.0,40.0,8.0,0.0
7902,74.0,24.0,20.0,7.0,0.0
7903,73.0,21.0,20.0,7.0,0.0
7904,73.0,0.0,40.0,13.0,0.0
7905,78.0,0.0,40.0,13.0,0.0
7906,61.0,3.0,40.0,14.0,0.0
7907,45.0,0.0,40.0,13.0,0.0
7908,66.0,0.0,20.0,8.0,0.0
7909,69.0,24.0,20.0,8.0,0.0
7910,78.0,0.0,20.0,7.0,0.0
7911,61.0,0.0,40.0,14.0,0.0
7912,77.0,0.0,20.0,7.0,0.0
7913,68.0,0.0,40.0,13.0,0.0
7914,68.0,21.0,20.0,8.0,0.0
7915,49.0,3.0,40.0,13.0,0.0
7916,77.0,0.0,40.0,13.0,0.0
7917,81.0,24.0,20.0,7.0,0.0
7918,73.0,0.0,20.0,8.0,0.0
7919,61.0,0.0,40.0,14.0,0.0
7920,80.0,0.0,20.0,7.0,0.0
7921,80.0,0.0,40.0,13.0,0.0
7922,71.0,21.0,20.0,8.0,0.0
7923,42.0,0.0,40.0,13.0,0.0
7924,73.0,3.0,40.0,13.0,0.0
7925,68.0,45.0,20.0,8.0,0.0
7926,77.0,0.0,20.0,7.0,0.0
7927,61.0,0.0,40.0,14.0,0.0
7928,78.0,27.0,60.0,7.0,0.0
7929,54.0,0.0,40.0,13.0,0.0
7930,69.0,21.0,40.0,8.0,0.0
7931,81.0,0.0,40.0,13.0,0.0
7932,73.0,0.0,40.0,13.0,0.0
7933,61.0,0.0,40.0,14.0,0.0
7934,69.0,3.0,40.0,8.0,0.0
7935,76.0,0.0,40.0,13.0,0.0
7936,69.0,0.0,40.0,13.0,0.0
7937,52.0,0.0,40.0,13.0,0.0
7938,81.0,22.0,20.0,7.0,0.0
7939,66.0,0.0,20.0,13.0,0.0
7940,50.0,0.0,20.0,13.0,0.0
7941,74.0,2.0,20.0,8.0,0.0
7942,74.0,0.0,20.0,13.0,0.0
7943,81.0,13.0,20.0,7.0,0.0
7944,66.0,0.0,20.0,14.0,0.0
7945,79.0,12.0,15.0,7.0,0.0
7946,78.0,21.0,15.0,7.0,0.0
7947,64.0,2.0,20.0,13.0,0.0
7948,64.0,0.0,20.0,14.0,0.0
7949,73.0,0.0,20.0,13.0,0.0
7950,50.0,0.0,20.0,13.0,0.0
7951,73.0,0.0,20.0,8.0,0.0
7952,79.0,13.0,20.0,7.0,0.0
7953,78.0,12.0,15.0,7.0,0.0
7954,76.0,21.0,15.0,7.0,0.0
7955,71.0,0.0,20.0,8.0,0.0
7956,71.0,0.0,20.0,13.0,0.0
7957,62.0,0.0,20.0,13.0,0.0
7958,50.0,2.0,20.0,13.0,0.0
7959,78.0,13.0,20.0,7.0,0.0
7960,62.0,0.0,20.0,14.0,0.0
7961,76.0,12.0,15.0,7.0,0.0
7962,74.0,21.0,15.0,7.0,0.0
7963,73.0,0.0,20.0,8.0,0.0
7964,76.0,13.0,20.0,7.0,0.0
7965,67.0,0.0,20.0,13.0,0.0
7966,67.0,2.0,20.0,14.0,0.0
7967,73.0,0.0,20.0,13.0,0.0
7968,50.0,0.0,20.0,13.0,0.0
7969,78.0,12.0,15.0,7.0,0.0
7970,79.0,21.0,15.0,7.0,0.0
7971,78.0,13.0,20.0,7.0,0.0
7972,74.0,0.0,20.0,13.0,0.0
7973,50.0,0.0,20.0,13.0,0.0
7974,69.0,0.0,20.0,13.0,0.0
7975,69.0,0.0,20.0,14.0,0.0
7976,74.0,2.0,20.0,8.0,0.0
7977,76.0,12.0,15.0,7.0,0.0
7978,74.0,21.0,15.0,7.0,0.0
7979,73.0,0.0,20.0,13.0,0.0
7980,67.0,0.0,20.0,13.0,0.0
7981,67.0,2.0,20.0,14.0,0.0
7982,73.0,0.0,20.0,8.0,0.0
7983,76.0,13.0,20.0,7.0,0.0
7984,50.0,0.0,20.0,13.0,0.0
7985,74.0,12.0,15.0,7.0,0.0
7986,73.0,21.0,15.0,7.0,0.0
7987,71.0,0.0,20.0,13.0,0.0
7988,71.0,0.0,20.0,8.0,0.0
7989,66.0,0.0,20.0,14.0,0.0
7990,50.0,0.0,20.0,13.0,0.0
7991,74.0,13.0,20.0,7.0,0.0
7992,78.0,2.0,20.0,13.0,0.0
7993,73.0,12.0,15.0,7.0,0.0
7994,71.0,21.0,15.0,7.0,0.0
7995,73.0,13.0,20.0,7.0,0.0
7996,69.0,0.0,20.0,13.0,0.0
7997,50.0,2.0,20.0,13.0,0.0
7998,66.0,0.0,20.0,14.0,0.0
7999,78.0,0.0,20.0,13.0,0.0
8000,69.0,0.0,20.0,8.0,0.0
8001,74.0,12.0,15.0,7.0,0.0
8002,76.0,21.0,15.0,7.0,0.0
8003,50.0,0.0,20.0,13.0,0.0
8004,71.0,2.0,20.0,13.0,0.0
8005,74.0,13.0,20.0,7.0,0.0
8006,80.0,0.0,20.0,13.0,0.0
8007,68.0,0.0,20.0,14.0,0.0
8008,71.0,0.0,20.0,8.0,0.0
8009,73.0,12.0,15.0,7.0,0.0
8010,71.0,21.0,15.0,7.0,0.0
8011,69.0,0.0,20.0,14.0,0.0
8012,69.0,2.0,20.0,13.0,0.0
8013,73.0,13.0,20.0,7.0,0.0
8014,51.0,4.0,40.0,13.0,0.0
8015,66.0,0.0,20.0,8.0,0.0
8016,78.0,0.0,20.0,13.0,0.0
8017,71.0,8.0,15.0,7.0,0.0
8018,69.0,21.0,15.0,7.0,0.0
8019,52.0,0.0,20.0,13.0,0.0
8020,68.0,13.0,20.0,7.0,0.0
8021,59.0,0.0,20.0,8.0,0.0
8022,71.0,0.0,20.0,13.0,0.0
8023,64.0,0.0,20.0,14.0,0.0
8024,76.0,2.0,20.0,13.0,0.0
8025,54.0,1.0,20.0,13.0,0.0
8026,69.0,11.0,15.0,7.0,0.0
8027,71.0,21.0,15.0,7.0,0.0
8028,71.0,0.0,20.0,13.0,0.0
8029,73.0,0.0,20.0,13.0,0.0
8030,56.0,24.0,20.0,13.0,0.0
8031,64.0,0.0,20.0,7.0,0.0
8032,59.0,2.0,20.0,8.0,0.0
8033,59.0,0.0,20.0,14.0,0.0
8034,62.0,0.0,20.0,7.0,0.0
8035,52.0,22.0,20.0,13.0,0.0
8036,61.0,21.0,20.0,7.0,0.0
8037,57.0,3.0,40.0,13.0,0.0
8038,76.0,0.0,40.0,13.0,0.0
8039,69.0,0.0,40.0,13.0,0.0
8040,57.0,0.0,20.0,14.0,0.0
8041,61.0,2.0,20.0,8.0,0.0
8042,64.0,24.0,20.0,7.0,0.0
8043,61.0,0.0,20.0,14.0,0.0
8044,57.0,0.0,40.0,13.0,0.0
8045,62.0,21.0,20.0,7.0,0.0
8046,71.0,0.0,40.0,13.0,0.0
8047,59.0,0.0,20.0,14.0,0.0
8048,62.0,3.0,40.0,13.0,0.0
8049,59.0,24.0,20.0,7.0,0.0
8050,56.0,0.0,20.0,14.0,0.0
8051,69.0,0.0,40.0,13.0,0.0
8052,57.0,3.0,40.0,13.0,0.0
8053,57.0,0.0,20.0,14.0,0.0
8054,61.0,21.0,20.0,7.0,0.0
8055,61.0,0.0,40.0,13.0,0.0
8056,61.0,0.0,20.0,14.0,0.0
8057,64.0,24.0,20.0,7.0,0.0
8058,54.0,0.0,40.0,13.0,0.0
8059,78.0,0.0,40.0,13.0,0.0
8060,69.0,3.0,40.0,13.0,0.0
8061,69.0,21.0,20.0,7.0,0.0
8062,61.0,0.0,20.0,8.0,0.0
8063,66.0,0.0,20.0,14.0,0.0
8064,66.0,0.0,20.0,8.0,0.0
8065,69.0,0.0,20.0,14.0,0.0
8066,73.0,24.0,20.0,7.0,0.0
8067,77.0,0.0,40.0,13.0,0.0
8068,71.0,21.0,20.0,7.0,0.0
8069,68.0,0.0,20.0,14.0,0.0
8070,62.0,0.0,20.0,8.0,0.0
8071,54.0,0.0,40.0,13.0,0.0
8072,71.0,3.0,40.0,13.0,0.0
8073,59.0,0.0,20.0,8.0,0.0
8074,68.0,24.0,20.0,7.0,0.0
8075,65.0,0.0,20.0,14.0,0.0
8076,66.0,0.0,20.0,14.0,0.0
8077,61.0,21.0,20.0,8.0,0.0
8078,69.0,0.0,20.0,7.0,0.0
8079,73.0,3.0,40.0,13.0,0.0
8080,81.0,0.0,40.0,13.0,0.0
8081,54.0,0.0,40.0,13.0,0.0
8082,69.0,0.0,20.0,14.0,0.0
8083,73.0,45.0,20.0,7.0,0.0
8084,66.0,0.0,20.0,8.0,0.0
8085,57.0,27.0,40.0,14.0,0.0
8086,76.0,0.0,40.0,13.0,0.0
8087,64.0,0.0,40.0,8.0,0.0
8088,49.0,0.0,40.0,13.0,0.0
8089,69.0,0.0,40.0,13.0,0.0
8090,76.0,0.0,40.0,7.0,0.0
8091,57.0,0.0,40.0,14.0,0.0
8092,50.0,0.0,40.0,13.0,0.0
8093,78.0,3.0,40.0,13.0,0.0
8094,74.0,21.0,20.0,7.0,0.0
8095,69.0,0.0,40.0,13.0,0.0
8096,66.0,0.0,20.0,8.0,0.0
8097,64.0,0.0,20.0,8.0,0.0
8098,73.0,24.0,20.0,7.0,0.0
8099,52.0,0.0,40.0,13.0,0.0
8100,80.0,0.0,40.0,13.0,0.0
8101,71.0,0.0,40.0,13.0,0.0
8102,62.0,21.0,20.0,8.0,0.0
8103,71.0,0.0,20.0,7.0,0.0
8104,56.0,3.0,40.0,14.0,0.0
8105,69.0,0.0,20.0,7.0,0.0
8106,61.0,24.0,20.0,8.0,0.0
8107,62.0,0.0,20.0,8.0,0.0
8108,76.0,0.0,40.0,13.0,0.0
8109,45.0,0.0,20.0,13.0,0.0
8110,52.0,0.0,40.0,14.0,0.0
8111,71.0,21.0,20.0,7.0,0.0
8112,71.0,3.0,40.0,13.0,0.0
8113,59.0,24.0,20.0,8.0,0.0
8114,68.0,0.0,20.0,7.0,0.0
8115,61.0,0.0,20.0,13.0,0.0
8116,52.0,0.0,30.0,14.0,0.0
8117,61.0,0.0,30.0,8.0,0.0
8118,59.0,10.0,20.0,13.0,0.0
8119,69.0,14.0,30.0,13.0,0.0
8120,69.0,0.0,30.0,7.0,0.0
8121,76.0,0.0,30.0,13.0,0.0
8122,57.0,24.0,20.0,13.0,0.0
8123,68.0,0.0,40.0,8.0,0.0
8124,76.0,0.0,40.0,13.0,0.0
8125,64.0,3.0,40.0,14.0,0.0
8126,71.0,0.0,40.0,7.0,0.0
8127,56.0,21.0,20.0,13.0,0.0
8128,71.0,0.0,40.0,13.0,0.0
8129,54.0,24.0,20.0,13.0,0.0
8130,71.0,0.0,40.0,8.0,0.0
8131,76.0,21.0,20.0,7.0,0.0
8132,71.0,0.0,40.0,13.0,0.0
8133,80.0,3.0,40.0,13.0,0.0
8134,52.0,0.0,40.0,13.0,0.0
8135,68.0,0.0,40.0,14.0,0.0
8136,80.0,24.0,20.0,7.0,0.0
8137,69.0,3.0,40.0,13.0,0.0
8138,78.0,0.0,40.0,13.0,0.0
8139,52.0,0.0,40.0,13.0,0.0
8140,75.0,0.0,40.0,8.0,0.0
8141,78.0,21.0,20.0,7.0,0.0
8142,69.0,0.0,40.0,14.0,0.0
8143,75.0,24.0,20.0,7.0,0.0
8144,76.0,21.0,20.0,7.0,0.0
8145,52.0,0.0,40.0,13.0,0.0
8146,68.0,0.0,40.0,14.0,0.0
8147,71.0,0.0,40.0,8.0,0.0
8148,71.0,3.0,40.0,13.0,0.0
8149,80.0,0.0,40.0,13.0,0.0
8150,71.0,24.0,20.0,7.0,0.0
8151,78.0,0.0,40.0,13.0,0.0
8152,52.0,3.0,40.0,13.0,0.0
8153,69.0,0.0,40.0,13.0,0.0
8154,78.0,21.0,20.0,7.0,0.0
8155,75.0,0.0,40.0,8.0,0.0
8156,69.0,0.0,40.0,14.0,0.0
8157,81.0,24.0,20.0,7.0,0.0
8158,71.0,0.0,40.0,14.0,0.0
8159,71.0,0.0,40.0,13.0,0.0
8160,80.0,21.0,20.0,7.0,0.0
8161,80.0,3.0,40.0,13.0,0.0
8162,76.0,0.0,40.0,8.0,0.0
8163,52.0,0.0,40.0,13.0,0.0
8164,76.0,24.0,20.0,7.0,0.0
8165,69.0,0.0,40.0,14.0,0.0
8166,52.0,0.0,40.0,13.0,0.0
8167,69.0,3.0,40.0,13.0,0.0
8168,78.0,0.0,40.0,13.0,0.0
8169,75.0,0.0,40.0,8.0,0.0
8170,78.0,21.0,20.0,7.0,0.0
8171,71.0,24.0,20.0,7.0,0.0
8172,80.0,0.0,40.0,13.0,0.0
8173,76.0,0.0,40.0,8.0,0.0
8174,52.0,3.0,40.0,13.0,0.0
8175,80.0,21.0,20.0,7.0,0.0
8176,71.0,0.0,40.0,14.0,0.0
8177,71.0,0.0,40.0,13.0,0.0
8178,83.0,24.0,20.0,7.0,0.0
8179,81.0,21.0,20.0,7.0,0.0
8180,75.0,0.0,40.0,14.0,0.0
8181,78.0,0.0,40.0,8.0,0.0
8182,69.0,3.0,40.0,13.0,0.0
8183,52.0,0.0,40.0,13.0,0.0
8184,78.0,0.0,40.0,13.0,0.0
8185,78.0,24.0,20.0,7.0,0.0
8186,71.0,3.0,40.0,14.0,0.0
8187,52.0,0.0,40.0,13.0,0.0
8188,80.0,0.0,40.0,13.0,0.0
8189,71.0,0.0,40.0,13.0,0.0
8190,80.0,21.0,20.0,7.0,0.0
8191,76.0,0.0,40.0,8.0,0.0
8192,71.0,45.0,20.0,7.0,0.0
8193,71.0,0.0,40.0,14.0,0.0
8194,53.0,0.0,40.0,13.0,0.0
8195,80.0,0.0,40.0,13.0,0.0
8196,71.0,0.0,40.0,13.0,0.0
8197,86.0,0.0,40.0,7.0,0.0
8198,80.0,48.0,40.0,8.0,0.0
8199,80.0,0.0,40.0,13.0,0.0
8200,71.0,21.0,40.0,13.0,0.0
8201,53.0,0.0,40.0,13.0,0.0
8202,80.0,0.0,40.0,8.0,0.0
8203,86.0,27.0,60.0,7.0,0.0
8204,71.0,0.0,40.0,14.0,0.0
8205,71.0,3.0,40.0,14.0,0.0
8206,71.0,0.0,40.0,13.0,0.0
8207,78.0,0.0,40.0,8.0,0.0
8208,56.0,0.0,40.0,13.0,0.0
8209,78.0,0.0,40.0,13.0,0.0
8210,85.0,24.0,20.0,7.0,0.0
8211,71.0,0.0,40.0,13.0,0.0
8212,83.0,21.0,20.0,7.0,0.0
8213,80.0,0.0,40.0,13.0,0.0
8214,49.0,0.0,40.0,13.0,0.0
8215,77.0,3.0,40.0,8.0,0.0
8216,68.0,0.0,40.0,14.0,0.0
8217,80.0,24.0,20.0,7.0,0.0
8218,78.0,0.0,40.0,8.0,0.0
8219,73.0,0.0,40.0,14.0,0.0
8220,49.0,0.0,40.0,13.0,0.0
8221,69.0,3.0,40.0,13.0,0.0
8222,78.0,0.0,40.0,13.0,0.0
8223,81.0,21.0,20.0,7.0,0.0
8224,78.0,24.0,20.0,7.0,0.0
8225,68.0,0.0,40.0,14.0,0.0
8226,77.0,21.0,20.0,7.0,0.0
8227,73.0,0.0,40.0,8.0,0.0
8228,68.0,0.0,40.0,13.0,0.0
8229,77.0,3.0,40.0,13.0,0.0
8230,49.0,0.0,40.0,13.0,0.0
8231,73.0,24.0,20.0,7.0,0.0
8232,71.0,0.0,40.0,13.0,0.0
8233,71.0,3.0,40.0,8.0,0.0
8234,65.0,0.0,40.0,14.0,0.0
8235,77.0,0.0,40.0,13.0,0.0
8236,49.0,0.0,40.0,13.0,0.0
8237,74.0,21.0,20.0,7.0,0.0
8238,71.0,24.0,20.0,7.0,0.0
8239,69.0,0.0,40.0,13.0,0.0
8240,61.0,0.0,40.0,14.0,0.0
8241,69.0,0.0,40.0,8.0,0.0
8242,77.0,3.0,40.0,13.0,0.0
8243,73.0,21.0,20.0,7.0,0.0
8244,49.0,0.0,40.0,13.0,0.0
8245,69.0,24.0,20.0,7.0,0.0
8246,68.0,21.0,20.0,7.0,0.0
8247,61.0,0.0,40.0,14.0,0.0
8248,68.0,0.0,40.0,13.0,0.0
8249,65.0,0.0,40.0,8.0,0.0
8250,49.0,3.0,40.0,13.0,0.0
8251,77.0,0.0,40.0,13.0,0.0
8252,71.0,24.0,20.0,7.0,0.0
8253,81.0,0.0,40.0,13.0,0.0
8254,73.0,0.0,40.0,13.0,0.0
8255,61.0,3.0,40.0,14.0,0.0
8256,54.0,0.0,40.0,13.0,0.0
8257,66.0,0.0,40.0,8.0,0.0
8258,69.0,21.0,20.0,7.0,0.0
8259,74.0,24.0,20.0,7.0,0.0
8260,66.0,0.0,20.0,8.0,0.0
8261,61.0,3.0,40.0,14.0,0.0
8262,73.0,0.0,40.0,13.0,0.0
8263,45.0,0.0,40.0,13.0,0.0
8264,78.0,0.0,40.0,13.0,0.0
8265,73.0,21.0,20.0,7.0,0.0
8266,69.0,0.0,20.0,8.0,0.0
8267,78.0,24.0,20.0,7.0,0.0
8268,61.0,0.0,40.0,14.0,0.0
8269,49.0,3.0,40.0,13.0,0.0
8270,68.0,0.0,40.0,13.0,0.0
8271,77.0,21.0,20.0,7.0,0.0
8272,77.0,0.0,40.0,13.0,0.0
8273,68.0,0.0,20.0,8.0,0.0
8274,73.0,0.0,20.0,8.0,0.0
8275,81.0,24.0,20.0,7.0,0.0
8276,61.0,3.0,40.0,14.0,0.0
8277,42.0,0.0,40.0,13.0,0.0
8278,71.0,21.0,20.0,8.0,0.0
8279,80.0,0.0,40.0,13.0,0.0
8280,80.0,0.0,20.0,7.0,0.0
8281,73.0,0.0,40.0,13.0,0.0
8282,77.0,45.0,20.0,7.0,0.0
8283,68.0,0.0,20.0,8.0,0.0
8284,81.0,0.0,40.0,13.0,0.0
8285,69.0,21.0,40.0,8.0,0.0
8286,61.0,0.0,40.0,14.0,0.0
8287,78.0,27.0,60.0,7.0,0.0
8288,73.0,0.0,40.0,13.0,0.0
8289,54.0,0.0,40.0,13.0,0.0
8290,69.0,0.0,40.0,8.0,0.0
8291,52.0,0.0,40.0,13.0,0.0
8292,61.0,0.0,40.0,14.0,0.0
8293,69.0,0.0,40.0,13.0,0.0
8294,76.0,3.0,40.0,13.0,0.0
8295,81.0,22.0,20.0,7.0,0.0
8296,74.0,2.0,20.0,8.0,0.0
8297,74.0,0.0,20.0,13.0,0.0
8298,66.0,0.0,20.0,14.0,0.0
8299,81.0,13.0,20.0,7.0,0.0
8300,66.0,0.0,20.0,13.0,0.0
8301,50.0,0.0,20.0,13.0,0.0
8302,79.0,12.0,15.0,7.0,0.0
8303,78.0,21.0,15.0,7.0,0.0
8304,64.0,0.0,20.0,13.0,0.0
8305,79.0,13.0,20.0,7.0,0.0
8306,73.0,0.0,20.0,13.0,0.0
8307,50.0,0.0,20.0,13.0,0.0
8308,73.0,0.0,20.0,8.0,0.0
8309,64.0,2.0,20.0,14.0,0.0
8310,78.0,12.0,15.0,7.0,0.0
8311,76.0,21.0,15.0,7.0,0.0
8312,71.0,0.0,20.0,8.0,0.0
8313,78.0,13.0,20.0,7.0,0.0
8314,62.0,0.0,20.0,14.0,0.0
8315,62.0,2.0,20.0,13.0,0.0
8316,71.0,0.0,20.0,13.0,0.0
8317,50.0,0.0,20.0,13.0,0.0
8318,76.0,12.0,15.0,7.0,0.0
8319,74.0,21.0,15.0,7.0,0.0
8320,50.0,0.0,20.0,13.0,0.0
8321,76.0,13.0,20.0,7.0,0.0
8322,73.0,0.0,20.0,13.0,0.0
8323,73.0,2.0,20.0,8.0,0.0
8324,67.0,0.0,20.0,14.0,0.0
8325,67.0,0.0,20.0,13.0,0.0
8326,78.0,12.0,15.0,7.0,0.0
8327,79.0,21.0,15.0,7.0,0.0
8328,78.0,13.0,20.0,7.0,0.0
8329,50.0,0.0,20.0,13.0,0.0
8330,74.0,0.0,20.0,8.0,0.0
8331,69.0,0.0,20.0,13.0,0.0
8332,69.0,2.0,20.0,14.0,0.0
8333,74.0,0.0,20.0,13.0,0.0
8334,76.0,12.0,15.0,7.0,0.0
8335,74.0,21.0,15.0,7.0,0.0
8336,67.0,0.0,20.0,14.0,0.0
8337,73.0,0.0,20.0,13.0,0.0
8338,76.0,13.0,20.0,7.0,0.0
8339,73.0,2.0,20.0,8.0,0.0
8340,50.0,0.0,20.0,13.0,0.0
8341,67.0,0.0,20.0,13.0,0.0
8342,74.0,12.0,15.0,7.0,0.0
8343,73.0,21.0,15.0,7.0,0.0
8344,78.0,0.0,20.0,13.0,0.0
8345,50.0,0.0,20.0,13.0,0.0
8346,66.0,0.0,20.0,14.0,0.0
8347,74.0,13.0,20.0,7.0,0.0
8348,71.0,2.0,20.0,13.0,0.0
8349,71.0,0.0,20.0,8.0,0.0
8350,73.0,12.0,15.0,7.0,0.0
8351,71.0,21.0,15.0,7.0,0.0
8352,69.0,0.0,20.0,13.0,0.0
8353,50.0,0.0,20.0,13.0,0.0
8354,78.0,0.0,20.0,13.0,0.0
8355,66.0,2.0,20.0,14.0,0.0
8356,69.0,0.0,20.0,8.0,0.0
8357,73.0,13.0,20.0,7.0,0.0
8358,74.0,12.0,15.0,7.0,0.0
8359,76.0,21.0,15.0,7.0,0.0
8360,50.0,2.0,20.0,13.0,0.0
8361,71.0,0.0,20.0,8.0,0.0
8362,74.0,13.0,20.0,7.0,0.0
8363,71.0,0.0,20.0,13.0,0.0
8364,80.0,0.0,20.0,13.0,0.0
8365,68.0,0.0,20.0,14.0,0.0
8366,73.0,12.0,15.0,7.0,0.0
8367,71.0,21.0,15.0,7.0,0.0
8368,69.0,0.0,20.0,13.0,0.0
8369,78.0,2.0,20.0,13.0,0.0
8370,69.0,0.0,20.0,14.0,0.0
8371,51.0,4.0,40.0,13.0,0.0
8372,66.0,0.0,20.0,8.0,0.0
8373,73.0,13.0,20.0,7.0,0.0
8374,71.0,8.0,15.0,7.0,0.0
8375,69.0,21.0,15.0,7.0,0.0
8376,64.0,2.0,20.0,14.0,0.0
8377,68.0,13.0,20.0,7.0,0.0
8378,52.0,0.0,20.0,13.0,0.0
8379,76.0,0.0,20.0,13.0,0.0
8380,71.0,0.0,20.0,13.0,0.0
8381,59.0,0.0,20.0,8.0,0.0
8382,54.0,1.0,20.0,13.0,0.0
8383,69.0,11.0,15.0,7.0,0.0
8384,71.0,21.0,15.0,7.0,0.0
8385,59.0,0.0,20.0,14.0,0.0
8386,64.0,0.0,20.0,7.0,0.0
8387,56.0,24.0,20.0,13.0,0.0
8388,73.0,0.0,20.0,13.0,0.0
8389,71.0,0.0,20.0,13.0,0.0
8390,59.0,2.0,20.0,8.0,0.0
8391,52.0,0.0,20.0,13.0,0.0
8392,62.0,22.0,20.0,7.0,0.0
8393,57.0,0.0,20.0,14.0,0.0
8394,76.0,0.0,40.0,13.0,0.0
8395,69.0,3.0,40.0,13.0,0.0
8396,57.0,0.0,40.0,13.0,0.0
8397,61.0,2.0,20.0,8.0,0.0
8398,61.0,21.0,20.0,7.0,0.0
8399,61.0,24.0,20.0,14.0,0.0
8400,64.0,0.0,20.0,7.0,0.0
8401,57.0,0.0,40.0,13.0,0.0
8402,71.0,3.0,40.0,13.0,0.0
8403,62.0,0.0,40.0,13.0,0.0
8404,62.0,0.0,20.0,7.0,0.0
8405,59.0,21.0,20.0,14.0,0.0
8406,56.0,0.0,20.0,14.0,0.0
8407,59.0,24.0,20.0,7.0,0.0
8408,57.0,0.0,40.0,13.0,0.0
8409,57.0,0.0,20.0,14.0,0.0
8410,61.0,21.0,20.0,7.0,0.0
8411,69.0,3.0,40.0,13.0,0.0
8412,61.0,0.0,40.0,13.0,0.0
8413,64.0,0.0,20.0,7.0,0.0
8414,61.0,24.0,20.0,14.0,0.0
8415,78.0,3.0,40.0,13.0,0.0
8416,69.0,0.0,20.0,7.0,0.0
8417,54.0,0.0,40.0,13.0,0.0
8418,61.0,21.0,20.0,8.0,0.0
8419,69.0,0.0,40.0,13.0,0.0
8420,66.0,0.0,20.0,14.0,0.0
8421,69.0,0.0,20.0,14.0,0.0
8422,73.0,24.0,20.0,7.0,0.0
8423,66.0,0.0,20.0,8.0,0.0
8424,68.0,0.0,20.0,14.0,0.0
8425,71.0,0.0,20.0,7.0,0.0
8426,62.0,21.0,20.0,8.0,0.0
8427,54.0,0.0,40.0,13.0,0.0
8428,77.0,0.0,40.0,13.0,0.0
8429,71.0,3.0,40.0,13.0,0.0
8430,65.0,24.0,20.0,14.0,0.0
8431,59.0,0.0,20.0,8.0,0.0
8432,68.0,0.0,20.0,7.0,0.0
8433,66.0,0.0,20.0,14.0,0.0
8434,61.0,21.0,20.0,8.0,0.0
8435,81.0,0.0,40.0,13.0,0.0
8436,69.0,0.0,20.0,7.0,0.0
8437,54.0,3.0,40.0,13.0,0.0
8438,73.0,0.0,40.0,13.0,0.0
8439,66.0,45.0,20.0,8.0,0.0
8440,73.0,0.0,20.0,7.0,0.0
8441,69.0,0.0,20.0,14.0,0.0
8442,69.0,0.0,40.0,13.0,0.0
8443,76.0,0.0,40.0,13.0,0.0
8444,49.0,0.0,40.0,13.0,0.0
8445,57.0,0.0,40.0,14.0,0.0
8446,64.0,27.0,40.0,8.0,0.0
8447,76.0,0.0,40.0,7.0,0.0
8448,50.0,0.0,40.0,13.0,0.0
8449,78.0,3.0,40.0,13.0,0.0
8450,69.0,0.0,40.0,13.0,0.0
8451,57.0,0.0,40.0,14.0,0.0
8452,74.0,21.0,20.0,7.0,0.0
8453,66.0,0.0,20.0,8.0,0.0
8454,64.0,0.0,20.0,8.0,0.0
8455,73.0,24.0,20.0,7.0,0.0
8456,80.0,0.0,40.0,13.0,0.0
8457,71.0,0.0,40.0,13.0,0.0
8458,62.0,21.0,20.0,8.0,0.0
8459,52.0,0.0,40.0,13.0,0.0
8460,71.0,0.0,20.0,7.0,0.0
8461,56.0,3.0,40.0,14.0,0.0
8462,61.0,0.0,20.0,8.0,0.0
8463,69.0,22.0,20.0,7.0,0.0
8464,71.0,12.0,20.0,7.0,0.0
8465,62.0,0.0,20.0,8.0,0.0
8466,52.0,0.0,20.0,14.0,0.0
8467,45.0,0.0,20.0,13.0,0.0
8468,76.0,2.0,20.0,13.0,0.0
8469,71.0,0.0,20.0,13.0,0.0
8470,68.0,99.0,15.0,7.0,0.0
8471,59.0,0.0,15.0,8.0,0.0
8472,61.0,0.0,90.0,8.0,0.0
8473,69.0,0.0,90.0,7.0,0.0
8474,76.0,0.0,90.0,13.0,0.0
8475,69.0,0.0,90.0,13.0,0.0
8476,45.0,0.0,90.0,13.0,0.0
8477,52.0,0.0,90.0,14.0,0.0
