,note,step,duration,channel,velocity
0,51.0,120.0,240.0,2.0,0.0
1,63.0,0.0,120.0,0.0,0.0
2,63.0,120.0,120.0,0.0,0.0
3,39.0,120.0,240.0,2.0,0.0
4,61.0,0.0,120.0,0.0,0.0
5,61.0,120.0,120.0,0.0,0.0
6,59.0,120.0,120.0,0.0,0.0
7,59.0,120.0,120.0,0.0,0.0
8,51.0,60.0,360.0,2.0,0.0
9,58.0,120.0,15.0,0.0,0.0
10,70.0,0.0,120.0,1.0,0.0
11,50.0,60.0,60.0,2.0,0.0
12,48.0,120.0,60.0,2.0,0.0
13,50.0,120.0,240.0,2.0,0.0
14,70.0,120.0,120.0,1.0,0.0
15,72.0,0.0,120.0,1.0,0.0
16,72.0,120.0,120.0,1.0,0.0
17,56.0,0.0,120.0,0.0,0.0
18,74.0,120.0,120.0,1.0,0.0
19,46.0,120.0,240.0,2.0,0.0
20,54.0,120.0,120.0,0.0,0.0
21,74.0,0.0,120.0,1.0,0.0
22,75.0,0.0,120.0,1.0,0.0
23,53.0,0.0,120.0,0.0,0.0
24,75.0,120.0,600.0,1.0,0.0
25,51.0,120.0,120.0,0.0,0.0
26,47.0,60.0,240.0,2.0,0.0
27,57.0,0.0,120.0,0.0,0.0
28,48.0,0.0,240.0,2.0,0.0
29,57.0,60.0,60.0,0.0,0.0
30,58.0,120.0,60.0,0.0,0.0
31,57.0,120.0,120.0,0.0,0.0
32,63.0,0.0,720.0,0.0,0.0
33,77.0,120.0,120.0,1.0,0.0
34,78.0,120.0,120.0,1.0,0.0
35,59.0,0.0,240.0,2.0,0.0
36,80.0,120.0,120.0,1.0,0.0
37,82.0,0.0,120.0,1.0,0.0
38,58.0,120.0,120.0,2.0,0.0
39,77.0,0.0,120.0,1.0,0.0
40,57.0,60.0,120.0,2.0,0.0
41,62.0,0.0,120.0,0.0,0.0
42,58.0,0.0,240.0,2.0,0.0
43,77.0,60.0,60.0,1.0,0.0
44,76.0,120.0,60.0,1.0,0.0
45,60.0,0.0,120.0,0.0,0.0
46,77.0,120.0,120.0,1.0,0.0
47,70.0,120.0,720.0,1.0,0.0
48,62.0,120.0,120.0,0.0,0.0
49,56.0,120.0,120.0,2.0,0.0
50,54.0,120.0,120.0,2.0,0.0
51,63.0,0.0,15.0,0.0,0.0
52,65.0,60.0,120.0,0.0,0.0
53,53.0,0.0,120.0,2.0,0.0
54,66.0,0.0,240.0,0.0,0.0
55,51.0,60.0,60.0,2.0,0.0
56,50.0,120.0,60.0,2.0,0.0
57,51.0,0.0,120.0,2.0,0.0
58,71.0,0.0,120.0,1.0,0.0
59,44.0,120.0,120.0,2.0,0.0
60,51.0,0.0,120.0,2.0,0.0
61,73.0,120.0,120.0,1.0,0.0
62,71.0,0.0,120.0,1.0,0.0
63,56.0,120.0,120.0,2.0,0.0
64,50.0,0.0,120.0,2.0,0.0
65,65.0,0.0,240.0,0.0,0.0
66,70.0,120.0,15.0,1.0,0.0
67,50.0,120.0,120.0,2.0,0.0
68,68.0,60.0,120.0,1.0,0.0
69,51.0,0.0,120.0,2.0,0.0
70,51.0,120.0,120.0,2.0,0.0
71,58.0,60.0,60.0,0.0,0.0
72,66.0,0.0,240.0,1.0,0.0
73,56.0,0.0,60.0,0.0,0.0
74,50.0,0.0,120.0,2.0,0.0
75,59.0,120.0,120.0,0.0,0.0
76,51.0,120.0,120.0,2.0,0.0
77,58.0,0.0,120.0,0.0,0.0
78,56.0,0.0,120.0,0.0,0.0
79,53.0,120.0,120.0,2.0,0.0
80,46.0,120.0,240.0,2.0,0.0
81,54.0,120.0,120.0,0.0,0.0
82,53.0,0.0,120.0,0.0,0.0
83,68.0,60.0,240.0,1.0,0.0
84,51.0,120.0,120.0,0.0,0.0
85,47.0,0.0,240.0,2.0,0.0
86,53.0,0.0,120.0,0.0,0.0
87,75.0,60.0,60.0,1.0,0.0
88,42.0,0.0,240.0,2.0,0.0
89,54.0,120.0,120.0,0.0,0.0
90,77.0,0.0,60.0,1.0,0.0
91,74.0,0.0,120.0,1.0,0.0
92,58.0,120.0,120.0,0.0,0.0
93,54.0,0.0,120.0,2.0,0.0
94,63.0,0.0,480.0,0.0,0.0
95,75.0,120.0,120.0,1.0,0.0
96,77.0,120.0,120.0,1.0,0.0
97,56.0,0.0,120.0,2.0,0.0
98,78.0,120.0,120.0,1.0,0.0
99,80.0,0.0,120.0,1.0,0.0
100,58.0,120.0,15.0,2.0,0.0
101,62.0,0.0,240.0,0.0,0.0
102,82.0,120.0,120.0,1.0,0.0
103,80.0,0.0,120.0,1.0,0.0
104,63.0,0.0,240.0,0.0,0.0
105,78.0,120.0,120.0,1.0,0.0
106,51.0,60.0,240.0,2.0,0.0
107,75.0,0.0,120.0,1.0,0.0
108,70.0,0.0,480.0,1.0,0.0
109,42.0,60.0,60.0,2.0,0.0
110,44.0,60.0,60.0,2.0,0.0
111,46.0,60.0,60.0,2.0,0.0
112,42.0,240.0,60.0,2.0,0.0
113,39.0,120.0,240.0,2.0,0.0
114,62.0,0.0,120.0,0.0,0.0
115,71.0,120.0,240.0,1.0,0.0
116,63.0,120.0,120.0,0.0,0.0
117,65.0,0.0,120.0,0.0,0.0
118,70.0,0.0,240.0,1.0,0.0
119,66.0,120.0,120.0,0.0,0.0
120,50.0,120.0,120.0,2.0,0.0
121,65.0,0.0,15.0,0.0,0.0
122,51.0,120.0,120.0,2.0,0.0
123,53.0,0.0,120.0,2.0,0.0
124,63.0,120.0,15.0,0.0,0.0
125,54.0,0.0,240.0,2.0,0.0
126,62.0,0.0,120.0,0.0,0.0
127,71.0,120.0,120.0,1.0,0.0
128,53.0,120.0,240.0,2.0,0.0
129,70.0,0.0,120.0,1.0,0.0
130,62.0,120.0,120.0,0.0,0.0
131,68.0,0.0,120.0,1.0,0.0
132,63.0,0.0,120.0,0.0,0.0
133,66.0,120.0,120.0,1.0,0.0
134,51.0,0.0,120.0,2.0,0.0
135,63.0,120.0,240.0,0.0,0.0
136,68.0,0.0,120.0,1.0,0.0
137,50.0,0.0,240.0,2.0,0.0
138,68.0,120.0,120.0,1.0,0.0
139,48.0,0.0,120.0,2.0,0.0
140,50.0,60.0,60.0,2.0,0.0
141,70.0,60.0,15.0,1.0,0.0
142,53.0,120.0,60.0,2.0,0.0
143,51.0,0.0,240.0,2.0,0.0
144,71.0,120.0,15.0,1.0,0.0
145,56.0,0.0,240.0,0.0,0.0
146,50.0,0.0,120.0,2.0,0.0
147,70.0,120.0,120.0,1.0,0.0
148,54.0,0.0,240.0,0.0,0.0
149,70.0,0.0,240.0,1.0,0.0
150,51.0,120.0,120.0,2.0,0.0
151,53.0,120.0,120.0,2.0,0.0
152,63.0,0.0,120.0,0.0,0.0
153,54.0,120.0,120.0,2.0,0.0
154,61.0,0.0,240.0,0.0,0.0
155,53.0,60.0,120.0,2.0,0.0
156,51.0,60.0,60.0,2.0,0.0
157,53.0,120.0,60.0,2.0,0.0
158,60.0,0.0,240.0,0.0,0.0
159,51.0,60.0,120.0,2.0,0.0
160,49.0,60.0,60.0,2.0,0.0
161,77.0,0.0,240.0,1.0,0.0
162,51.0,120.0,60.0,2.0,0.0
163,58.0,0.0,120.0,0.0,0.0
164,49.0,120.0,120.0,2.0,0.0
165,48.0,120.0,120.0,2.0,0.0
166,78.0,0.0,240.0,1.0,0.0
167,57.0,120.0,240.0,0.0,0.0
168,49.0,0.0,120.0,2.0,0.0
169,70.0,0.0,120.0,1.0,0.0
170,66.0,0.0,240.0,0.0,0.0
171,51.0,120.0,120.0,2.0,0.0
172,72.0,0.0,240.0,1.0,0.0
173,48.0,120.0,120.0,2.0,0.0
174,65.0,120.0,240.0,0.0,0.0
175,45.0,120.0,120.0,2.0,0.0
176,73.0,120.0,240.0,1.0,0.0
177,46.0,0.0,120.0,2.0,0.0
178,48.0,0.0,120.0,2.0,0.0
179,57.0,0.0,240.0,0.0,0.0
180,45.0,0.0,120.0,2.0,0.0
181,75.0,60.0,120.0,1.0,0.0
182,49.0,60.0,60.0,2.0,0.0
183,77.0,0.0,240.0,1.0,0.0
184,48.0,120.0,60.0,2.0,0.0
185,46.0,60.0,120.0,2.0,0.0
186,66.0,120.0,240.0,1.0,0.0
187,51.0,120.0,480.0,2.0,0.0
188,58.0,60.0,60.0,0.0,0.0
189,57.0,120.0,60.0,0.0,0.0
190,58.0,120.0,240.0,0.0,0.0
191,68.0,0.0,240.0,1.0,0.0
192,58.0,120.0,240.0,0.0,0.0
193,77.0,120.0,240.0,1.0,0.0
194,50.0,0.0,240.0,2.0,0.0
195,58.0,60.0,240.0,0.0,0.0
196,54.0,60.0,240.0,2.0,0.0
197,60.0,60.0,60.0,0.0,0.0
198,58.0,0.0,60.0,0.0,0.0
199,57.0,0.0,120.0,0.0,0.0
200,75.0,60.0,60.0,1.0,0.0
201,48.0,0.0,240.0,2.0,0.0
202,77.0,120.0,60.0,1.0,0.0
203,75.0,120.0,240.0,1.0,0.0
204,55.0,120.0,120.0,0.0,0.0
205,53.0,120.0,240.0,2.0,0.0
206,57.0,0.0,120.0,0.0,0.0
207,60.0,0.0,120.0,0.0,0.0
208,75.0,120.0,240.0,1.0,0.0
209,65.0,0.0,240.0,0.0,0.0
210,45.0,120.0,240.0,2.0,0.0
211,75.0,60.0,240.0,1.0,0.0
212,46.0,120.0,240.0,2.0,0.0
213,73.0,60.0,60.0,1.0,0.0
214,75.0,0.0,60.0,1.0,0.0
215,77.0,0.0,120.0,1.0,0.0
216,49.0,120.0,120.0,2.0,0.0
217,58.0,60.0,360.0,0.0,0.0
218,48.0,0.0,120.0,2.0,0.0
219,78.0,120.0,120.0,1.0,0.0
220,49.0,0.0,240.0,2.0,0.0
221,77.0,0.0,120.0,1.0,0.0
222,73.0,60.0,120.0,1.0,0.0
223,60.0,60.0,60.0,0.0,0.0
224,61.0,0.0,60.0,0.0,0.0
225,53.0,0.0,240.0,2.0,0.0
226,69.0,120.0,240.0,1.0,0.0
227,60.0,60.0,60.0,0.0,0.0
228,58.0,120.0,60.0,0.0,0.0
229,60.0,0.0,120.0,0.0,0.0
230,58.0,0.0,480.0,0.0,0.0
231,58.0,60.0,120.0,2.0,0.0
232,56.0,60.0,60.0,2.0,0.0
233,54.0,60.0,60.0,2.0,0.0
234,53.0,60.0,60.0,2.0,0.0
235,75.0,60.0,360.0,1.0,0.0
236,51.0,120.0,60.0,2.0,0.0
237,53.0,120.0,120.0,2.0,0.0
238,46.0,240.0,480.0,2.0,0.0
239,74.0,60.0,60.0,1.0,0.0
240,72.0,240.0,60.0,1.0,0.0
241,74.0,0.0,240.0,1.0,0.0
242,51.0,0.0,240.0,2.0,0.0
243,63.0,120.0,120.0,0.0,0.0
244,39.0,120.0,240.0,2.0,0.0
245,63.0,120.0,120.0,0.0,0.0
246,61.0,0.0,120.0,0.0,0.0
247,61.0,120.0,120.0,0.0,0.0
248,59.0,120.0,15.0,0.0,0.0
249,51.0,60.0,360.0,2.0,0.0
250,58.0,120.0,15.0,0.0,0.0
251,70.0,120.0,120.0,1.0,0.0
252,50.0,60.0,60.0,2.0,0.0
253,48.0,0.0,60.0,2.0,0.0
254,50.0,120.0,240.0,2.0,0.0
255,70.0,120.0,120.0,1.0,0.0
256,72.0,0.0,120.0,1.0,0.0
257,72.0,120.0,120.0,1.0,0.0
258,56.0,0.0,120.0,0.0,0.0
259,46.0,120.0,240.0,2.0,0.0
260,74.0,120.0,15.0,1.0,0.0
261,54.0,120.0,120.0,0.0,0.0
262,75.0,0.0,120.0,1.0,0.0
263,53.0,0.0,120.0,0.0,0.0
264,51.0,120.0,120.0,0.0,0.0
265,47.0,0.0,240.0,2.0,0.0
266,75.0,120.0,600.0,1.0,0.0
267,48.0,0.0,240.0,2.0,0.0
268,57.0,60.0,15.0,0.0,0.0
269,58.0,120.0,60.0,0.0,0.0
270,57.0,120.0,120.0,0.0,0.0
271,63.0,60.0,720.0,0.0,0.0
272,77.0,120.0,120.0,1.0,0.0
273,78.0,120.0,120.0,1.0,0.0
274,59.0,120.0,240.0,2.0,0.0
275,80.0,0.0,120.0,1.0,0.0
276,58.0,120.0,120.0,2.0,0.0
277,82.0,0.0,120.0,1.0,0.0
278,57.0,0.0,120.0,2.0,0.0
279,77.0,0.0,15.0,1.0,0.0
280,62.0,120.0,120.0,0.0,0.0
281,58.0,120.0,240.0,2.0,0.0
282,76.0,0.0,60.0,1.0,0.0
283,77.0,0.0,120.0,1.0,0.0
284,60.0,0.0,120.0,0.0,0.0
285,70.0,0.0,720.0,1.0,0.0
286,62.0,120.0,120.0,0.0,0.0
287,56.0,120.0,120.0,2.0,0.0
288,54.0,120.0,120.0,2.0,0.0
289,63.0,0.0,15.0,0.0,0.0
290,65.0,0.0,120.0,0.0,0.0
291,53.0,60.0,120.0,2.0,0.0
292,66.0,0.0,240.0,0.0,0.0
293,51.0,60.0,60.0,2.0,0.0
294,50.0,120.0,60.0,2.0,0.0
295,51.0,120.0,120.0,2.0,0.0
296,44.0,0.0,120.0,2.0,0.0
297,71.0,120.0,120.0,1.0,0.0
298,73.0,0.0,120.0,1.0,0.0
299,51.0,120.0,120.0,2.0,0.0
300,71.0,120.0,120.0,1.0,0.0
301,56.0,0.0,120.0,2.0,0.0
302,50.0,0.0,120.0,2.0,0.0
303,50.0,0.0,120.0,2.0,0.0
304,65.0,0.0,240.0,0.0,0.0
305,70.0,120.0,15.0,1.0,0.0
306,68.0,60.0,120.0,1.0,0.0
307,51.0,0.0,15.0,2.0,0.0
308,58.0,60.0,60.0,0.0,0.0
309,66.0,0.0,240.0,1.0,0.0
310,56.0,120.0,60.0,0.0,0.0
311,59.0,120.0,120.0,0.0,0.0
312,50.0,0.0,120.0,2.0,0.0
313,51.0,0.0,120.0,2.0,0.0
314,58.0,120.0,120.0,0.0,0.0
315,53.0,0.0,120.0,2.0,0.0
316,56.0,120.0,120.0,0.0,0.0
317,46.0,0.0,240.0,2.0,0.0
318,54.0,120.0,120.0,0.0,0.0
319,53.0,120.0,120.0,0.0,0.0
320,47.0,60.0,240.0,2.0,0.0
321,51.0,120.0,120.0,0.0,0.0
322,68.0,0.0,240.0,1.0,0.0
323,53.0,0.0,120.0,0.0,0.0
324,75.0,60.0,60.0,1.0,0.0
325,54.0,0.0,120.0,0.0,0.0
326,42.0,120.0,240.0,2.0,0.0
327,77.0,120.0,60.0,1.0,0.0
328,58.0,0.0,120.0,0.0,0.0
329,74.0,0.0,120.0,1.0,0.0
330,63.0,0.0,480.0,0.0,0.0
331,75.0,0.0,120.0,1.0,0.0
332,54.0,120.0,120.0,2.0,0.0
333,56.0,0.0,120.0,2.0,0.0
334,77.0,120.0,120.0,1.0,0.0
335,78.0,120.0,120.0,1.0,0.0
336,58.0,0.0,240.0,2.0,0.0
337,80.0,120.0,120.0,1.0,0.0
338,58.0,120.0,240.0,2.0,0.0
339,82.0,120.0,120.0,1.0,0.0
340,62.0,0.0,240.0,0.0,0.0
341,80.0,0.0,120.0,1.0,0.0
342,78.0,120.0,120.0,1.0,0.0
343,63.0,60.0,240.0,0.0,0.0
344,51.0,0.0,240.0,2.0,0.0
345,75.0,0.0,120.0,1.0,0.0
346,42.0,60.0,60.0,2.0,0.0
347,70.0,120.0,480.0,1.0,0.0
348,44.0,60.0,60.0,2.0,0.0
349,46.0,60.0,60.0,2.0,0.0
350,42.0,240.0,60.0,2.0,0.0
351,39.0,0.0,240.0,2.0,0.0
352,62.0,0.0,120.0,0.0,0.0
353,63.0,120.0,120.0,0.0,0.0
354,71.0,120.0,240.0,1.0,0.0
355,65.0,0.0,120.0,0.0,0.0
356,66.0,120.0,120.0,0.0,0.0
357,70.0,0.0,240.0,1.0,0.0
358,50.0,120.0,120.0,2.0,0.0
359,65.0,0.0,15.0,0.0,0.0
360,51.0,120.0,120.0,2.0,0.0
361,53.0,120.0,120.0,2.0,0.0
362,63.0,0.0,15.0,0.0,0.0
363,54.0,120.0,240.0,2.0,0.0
364,71.0,0.0,120.0,1.0,0.0
365,62.0,0.0,120.0,0.0,0.0
366,62.0,120.0,120.0,0.0,0.0
367,53.0,0.0,240.0,2.0,0.0
368,70.0,0.0,120.0,1.0,0.0
369,68.0,0.0,120.0,1.0,0.0
370,51.0,0.0,120.0,2.0,0.0
371,66.0,120.0,120.0,1.0,0.0
372,63.0,120.0,15.0,0.0,0.0
373,50.0,0.0,240.0,2.0,0.0
374,68.0,120.0,15.0,1.0,0.0
375,48.0,60.0,120.0,2.0,0.0
376,70.0,0.0,120.0,1.0,0.0
377,70.0,0.0,120.0,1.0,0.0
378,50.0,60.0,60.0,2.0,0.0
379,53.0,120.0,60.0,2.0,0.0
380,71.0,120.0,120.0,1.0,0.0
381,51.0,120.0,240.0,2.0,0.0
382,56.0,120.0,240.0,0.0,0.0
383,71.0,0.0,120.0,1.0,0.0
384,50.0,0.0,120.0,2.0,0.0
385,54.0,0.0,240.0,0.0,0.0
386,51.0,120.0,120.0,2.0,0.0
387,70.0,0.0,15.0,1.0,0.0
388,53.0,120.0,120.0,2.0,0.0
389,54.0,0.0,120.0,2.0,0.0
390,63.0,120.0,120.0,0.0,0.0
391,53.0,60.0,120.0,2.0,0.0
392,61.0,0.0,240.0,0.0,0.0
393,51.0,60.0,60.0,2.0,0.0
394,53.0,120.0,60.0,2.0,0.0
395,60.0,120.0,240.0,0.0,0.0
396,51.0,60.0,120.0,2.0,0.0
397,49.0,60.0,60.0,2.0,0.0
398,77.0,0.0,240.0,1.0,0.0
399,51.0,0.0,60.0,2.0,0.0
400,58.0,0.0,120.0,0.0,0.0
401,49.0,120.0,120.0,2.0,0.0
402,57.0,0.0,240.0,0.0,0.0
403,48.0,120.0,120.0,2.0,0.0
404,78.0,120.0,240.0,1.0,0.0
405,49.0,0.0,120.0,2.0,0.0
406,66.0,120.0,240.0,0.0,0.0
407,51.0,0.0,120.0,2.0,0.0
408,70.0,120.0,120.0,1.0,0.0
409,72.0,0.0,240.0,1.0,0.0
410,48.0,0.0,120.0,2.0,0.0
411,45.0,120.0,120.0,2.0,0.0
412,65.0,0.0,240.0,0.0,0.0
413,73.0,120.0,240.0,1.0,0.0
414,46.0,120.0,120.0,2.0,0.0
415,57.0,0.0,240.0,0.0,0.0
416,48.0,0.0,120.0,2.0,0.0
417,45.0,0.0,120.0,2.0,0.0
418,75.0,60.0,120.0,1.0,0.0
419,49.0,60.0,60.0,2.0,0.0
420,77.0,0.0,240.0,1.0,0.0
421,48.0,120.0,60.0,2.0,0.0
422,46.0,60.0,120.0,2.0,0.0
423,58.0,60.0,60.0,0.0,0.0
424,66.0,120.0,240.0,1.0,0.0
425,51.0,0.0,480.0,2.0,0.0
426,57.0,120.0,60.0,0.0,0.0
427,58.0,120.0,240.0,0.0,0.0
428,68.0,120.0,240.0,1.0,0.0
429,50.0,0.0,240.0,2.0,0.0
430,77.0,120.0,240.0,1.0,0.0
431,58.0,120.0,15.0,0.0,0.0
432,54.0,60.0,240.0,2.0,0.0
433,60.0,60.0,60.0,0.0,0.0
434,58.0,0.0,60.0,0.0,0.0
435,57.0,120.0,120.0,0.0,0.0
436,75.0,60.0,60.0,1.0,0.0
437,48.0,120.0,240.0,2.0,0.0
438,77.0,0.0,60.0,1.0,0.0
439,55.0,0.0,120.0,0.0,0.0
440,57.0,120.0,120.0,0.0,0.0
441,53.0,0.0,240.0,2.0,0.0
442,75.0,0.0,15.0,1.0,0.0
443,60.0,120.0,120.0,0.0,0.0
444,45.0,0.0,240.0,2.0,0.0
445,65.0,120.0,240.0,0.0,0.0
446,75.0,60.0,240.0,1.0,0.0
447,46.0,120.0,240.0,2.0,0.0
448,73.0,60.0,60.0,1.0,0.0
449,75.0,0.0,60.0,1.0,0.0
450,49.0,120.0,120.0,2.0,0.0
451,58.0,60.0,360.0,0.0,0.0
452,77.0,0.0,120.0,1.0,0.0
453,48.0,120.0,120.0,2.0,0.0
454,78.0,0.0,120.0,1.0,0.0
455,77.0,0.0,120.0,1.0,0.0
456,49.0,0.0,240.0,2.0,0.0
457,73.0,0.0,120.0,1.0,0.0
458,60.0,60.0,60.0,0.0,0.0
459,61.0,60.0,60.0,0.0,0.0
460,53.0,0.0,240.0,2.0,0.0
461,69.0,120.0,240.0,1.0,0.0
462,60.0,60.0,60.0,0.0,0.0
463,58.0,120.0,60.0,0.0,0.0
464,60.0,0.0,120.0,0.0,0.0
465,58.0,0.0,480.0,0.0,0.0
466,58.0,60.0,120.0,2.0,0.0
467,56.0,60.0,60.0,2.0,0.0
468,54.0,60.0,60.0,2.0,0.0
469,75.0,60.0,360.0,1.0,0.0
470,53.0,60.0,60.0,2.0,0.0
471,51.0,120.0,60.0,2.0,0.0
472,53.0,120.0,120.0,2.0,0.0
473,46.0,120.0,480.0,2.0,0.0
474,74.0,60.0,60.0,1.0,0.0
475,72.0,240.0,60.0,1.0,0.0
476,74.0,0.0,240.0,1.0,0.0
477,46.0,120.0,120.0,2.0,0.0
478,59.0,120.0,15.0,2.0,0.0
479,62.0,0.0,240.0,0.0,0.0
480,58.0,120.0,120.0,2.0,0.0
481,63.0,120.0,240.0,0.0,0.0
482,58.0,120.0,120.0,2.0,0.0
483,56.0,0.0,120.0,2.0,0.0
484,56.0,120.0,120.0,2.0,0.0
485,65.0,120.0,240.0,0.0,0.0
486,54.0,0.0,120.0,2.0,0.0
487,58.0,0.0,120.0,0.0,0.0
488,54.0,120.0,120.0,2.0,0.0
489,70.0,0.0,240.0,0.0,0.0
490,50.0,120.0,120.0,2.0,0.0
491,71.0,0.0,240.0,1.0,0.0
492,50.0,120.0,120.0,2.0,0.0
493,68.0,120.0,240.0,0.0,0.0
494,70.0,120.0,240.0,1.0,0.0
495,51.0,120.0,15.0,2.0,0.0
496,66.0,120.0,240.0,0.0,0.0
497,46.0,0.0,15.0,2.0,0.0
498,68.0,120.0,240.0,1.0,0.0
499,65.0,0.0,120.0,0.0,0.0
500,66.0,0.0,240.0,0.0,0.0
501,75.0,60.0,120.0,1.0,0.0
502,63.0,120.0,240.0,1.0,0.0
503,44.0,60.0,60.0,2.0,0.0
504,42.0,120.0,60.0,2.0,0.0
505,44.0,0.0,120.0,2.0,0.0
506,59.0,0.0,240.0,0.0,0.0
507,64.0,120.0,240.0,1.0,0.0
508,37.0,120.0,120.0,2.0,0.0
509,58.0,0.0,240.0,0.0,0.0
510,49.0,0.0,120.0,2.0,0.0
511,66.0,120.0,240.0,1.0,0.0
512,42.0,120.0,120.0,2.0,0.0
513,47.0,0.0,360.0,2.0,0.0
514,63.0,120.0,240.0,0.0,0.0
515,68.0,0.0,120.0,1.0,0.0
516,66.0,0.0,240.0,1.0,0.0
517,61.0,60.0,120.0,0.0,0.0
518,63.0,0.0,120.0,0.0,0.0
519,46.0,60.0,60.0,2.0,0.0
520,44.0,60.0,60.0,2.0,0.0
521,64.0,0.0,240.0,0.0,0.0
522,73.0,0.0,240.0,1.0,0.0
523,46.0,60.0,60.0,2.0,0.0
524,44.0,120.0,60.0,2.0,0.0
525,42.0,120.0,120.0,2.0,0.0
526,75.0,0.0,240.0,1.0,0.0
527,47.0,120.0,120.0,2.0,0.0
528,66.0,120.0,240.0,0.0,0.0
529,39.0,120.0,120.0,2.0,0.0
530,40.0,0.0,120.0,2.0,0.0
531,70.0,120.0,240.0,1.0,0.0
532,64.0,0.0,120.0,0.0,0.0
533,42.0,0.0,120.0,2.0,0.0
534,71.0,120.0,120.0,1.0,0.0
535,32.0,0.0,120.0,2.0,0.0
536,63.0,0.0,120.0,0.0,0.0
537,66.0,0.0,120.0,0.0,0.0
538,39.0,0.0,120.0,2.0,0.0
539,70.0,120.0,120.0,1.0,0.0
540,71.0,120.0,120.0,0.0,0.0
541,44.0,0.0,120.0,2.0,0.0
542,68.0,0.0,240.0,1.0,0.0
543,42.0,0.0,120.0,2.0,0.0
544,75.0,120.0,120.0,0.0,0.0
545,40.0,120.0,120.0,2.0,0.0
546,73.0,0.0,120.0,0.0,0.0
547,71.0,0.0,120.0,0.0,0.0
548,39.0,120.0,120.0,2.0,0.0
549,66.0,0.0,240.0,1.0,0.0
550,70.0,120.0,120.0,0.0,0.0
551,40.0,120.0,360.0,2.0,0.0
552,68.0,0.0,120.0,1.0,0.0
553,68.0,120.0,120.0,0.0,0.0
554,66.0,0.0,1080.0,0.0,0.0
555,70.0,0.0,120.0,1.0,0.0
556,52.0,0.0,120.0,2.0,0.0
557,66.0,120.0,120.0,1.0,0.0
558,54.0,120.0,120.0,2.0,0.0
559,61.0,0.0,120.0,1.0,0.0
560,58.0,0.0,120.0,1.0,0.0
561,52.0,120.0,120.0,2.0,0.0
562,59.0,0.0,120.0,1.0,0.0
563,51.0,120.0,120.0,2.0,0.0
564,61.0,120.0,120.0,1.0,0.0
565,49.0,0.0,120.0,2.0,0.0
566,63.0,120.0,120.0,1.0,0.0
567,47.0,0.0,120.0,2.0,0.0
568,49.0,0.0,120.0,2.0,0.0
569,64.0,120.0,120.0,1.0,0.0
570,66.0,60.0,1080.0,1.0,0.0
571,51.0,60.0,120.0,2.0,0.0
572,52.0,0.0,120.0,2.0,0.0
573,64.0,60.0,60.0,0.0,0.0
574,63.0,60.0,60.0,0.0,0.0
575,61.0,60.0,60.0,0.0,0.0
576,54.0,0.0,240.0,2.0,0.0
577,63.0,120.0,60.0,0.0,0.0
578,64.0,120.0,120.0,0.0,0.0
579,63.0,60.0,120.0,0.0,0.0
580,42.0,120.0,360.0,2.0,0.0
581,61.0,60.0,60.0,0.0,0.0
582,59.0,60.0,60.0,0.0,0.0
583,61.0,60.0,60.0,0.0,0.0
584,59.0,0.0,60.0,0.0,0.0
585,52.0,0.0,120.0,2.0,0.0
586,58.0,120.0,120.0,0.0,0.0
587,51.0,0.0,120.0,2.0,0.0
588,59.0,60.0,240.0,0.0,0.0
589,49.0,0.0,120.0,2.0,0.0
590,68.0,60.0,60.0,1.0,0.0
591,70.0,0.0,60.0,1.0,0.0
592,49.0,120.0,120.0,2.0,0.0
593,71.0,60.0,60.0,1.0,0.0
594,70.0,0.0,60.0,1.0,0.0
595,68.0,0.0,120.0,1.0,0.0
596,47.0,120.0,120.0,2.0,0.0
597,70.0,60.0,120.0,1.0,0.0
598,49.0,0.0,120.0,2.0,0.0
599,51.0,60.0,120.0,2.0,0.0
600,71.0,60.0,60.0,1.0,0.0
601,73.0,0.0,60.0,1.0,0.0
602,71.0,60.0,60.0,1.0,0.0
603,51.0,120.0,120.0,2.0,0.0
604,73.0,0.0,60.0,1.0,0.0
605,75.0,0.0,120.0,1.0,0.0
606,52.0,240.0,120.0,2.0,0.0
607,73.0,0.0,240.0,1.0,0.0
608,44.0,120.0,240.0,2.0,0.0
609,64.0,0.0,120.0,0.0,0.0
610,43.0,120.0,240.0,2.0,0.0
611,64.0,120.0,120.0,0.0,0.0
612,63.0,0.0,120.0,0.0,0.0
613,62.0,120.0,120.0,0.0,0.0
614,41.0,0.0,120.0,2.0,0.0
615,61.0,120.0,120.0,0.0,0.0
616,70.0,120.0,120.0,0.0,0.0
617,43.0,0.0,120.0,2.0,0.0
618,61.0,0.0,120.0,0.0,0.0
619,39.0,240.0,120.0,2.0,0.0
620,44.0,120.0,240.0,2.0,0.0
621,59.0,120.0,600.0,0.0,0.0
622,68.0,0.0,15.0,1.0,0.0
623,56.0,0.0,240.0,2.0,0.0
624,70.0,120.0,120.0,1.0,0.0
625,71.0,0.0,120.0,1.0,0.0
626,72.0,120.0,120.0,1.0,0.0
627,58.0,0.0,120.0,0.0,0.0
628,63.0,0.0,120.0,1.0,0.0
629,56.0,120.0,120.0,0.0,0.0
630,44.0,0.0,360.0,2.0,0.0
631,72.0,120.0,120.0,1.0,0.0
632,54.0,0.0,120.0,0.0,0.0
633,74.0,0.0,600.0,1.0,0.0
634,53.0,120.0,120.0,0.0,0.0
635,54.0,0.0,120.0,0.0,0.0
636,58.0,120.0,120.0,2.0,0.0
637,56.0,0.0,120.0,0.0,0.0
638,59.0,120.0,120.0,2.0,0.0
639,58.0,120.0,120.0,0.0,0.0
640,54.0,0.0,120.0,2.0,0.0
641,53.0,120.0,120.0,2.0,0.0
642,59.0,0.0,120.0,0.0,0.0
643,75.0,0.0,120.0,1.0,0.0
644,54.0,0.0,120.0,2.0,0.0
645,58.0,120.0,120.0,0.0,0.0
646,56.0,0.0,120.0,2.0,0.0
647,59.0,120.0,360.0,0.0,0.0
648,77.0,120.0,120.0,1.0,0.0
649,78.0,120.0,120.0,1.0,0.0
650,51.0,0.0,120.0,2.0,0.0
651,51.0,0.0,240.0,2.0,0.0
652,80.0,0.0,120.0,1.0,0.0
653,56.0,0.0,120.0,0.0,0.0
654,78.0,120.0,120.0,1.0,0.0
655,50.0,120.0,120.0,2.0,0.0
656,58.0,0.0,240.0,0.0,0.0
657,77.0,0.0,120.0,1.0,0.0
658,75.0,120.0,120.0,1.0,0.0
659,51.0,0.0,120.0,2.0,0.0
660,74.0,0.0,120.0,1.0,0.0
661,53.0,60.0,120.0,2.0,0.0
662,75.0,0.0,120.0,1.0,0.0
663,54.0,60.0,60.0,2.0,0.0
664,56.0,60.0,60.0,2.0,0.0
665,58.0,60.0,60.0,2.0,0.0
666,65.0,60.0,240.0,0.0,0.0
667,74.0,120.0,360.0,1.0,0.0
668,59.0,120.0,60.0,2.0,0.0
669,56.0,0.0,120.0,2.0,0.0
670,54.0,60.0,60.0,2.0,0.0
671,70.0,120.0,360.0,0.0,0.0
672,58.0,0.0,60.0,2.0,0.0
673,56.0,0.0,120.0,2.0,0.0
674,77.0,60.0,120.0,1.0,0.0
675,54.0,60.0,60.0,2.0,0.0
676,75.0,0.0,240.0,1.0,0.0
677,56.0,0.0,60.0,2.0,0.0
678,53.0,0.0,120.0,2.0,0.0
679,68.0,60.0,120.0,0.0,0.0
680,66.0,120.0,120.0,0.0,0.0
681,51.0,60.0,60.0,2.0,0.0
682,53.0,0.0,60.0,2.0,0.0
683,49.0,60.0,120.0,2.0,0.0
684,65.0,0.0,120.0,0.0,0.0
685,68.0,0.0,240.0,1.0,0.0
686,63.0,0.0,120.0,0.0,0.0
687,47.0,60.0,60.0,2.0,0.0
688,49.0,120.0,60.0,2.0,0.0
689,61.0,120.0,120.0,0.0,0.0
690,46.0,0.0,120.0,2.0,0.0
691,63.0,0.0,360.0,1.0,0.0
692,44.0,0.0,120.0,2.0,0.0
693,59.0,60.0,120.0,0.0,0.0
694,58.0,120.0,120.0,0.0,0.0
695,47.0,60.0,60.0,2.0,0.0
696,46.0,0.0,60.0,2.0,0.0
697,47.0,120.0,120.0,2.0,0.0
698,56.0,0.0,120.0,0.0,0.0
699,65.0,0.0,120.0,1.0,0.0
700,59.0,0.0,120.0,0.0,0.0
701,38.0,120.0,120.0,2.0,0.0
702,58.0,120.0,120.0,0.0,0.0
703,66.0,0.0,120.0,1.0,0.0
704,39.0,0.0,240.0,2.0,0.0
705,68.0,0.0,120.0,1.0,0.0
706,60.0,60.0,120.0,0.0,0.0
707,70.0,120.0,120.0,1.0,0.0
708,62.0,60.0,60.0,0.0,0.0
709,63.0,0.0,60.0,0.0,0.0
710,53.0,0.0,240.0,0.0,0.0
711,72.0,0.0,120.0,1.0,0.0
712,44.0,120.0,120.0,2.0,0.0
713,74.0,120.0,120.0,1.0,0.0
714,46.0,0.0,240.0,2.0,0.0
715,75.0,120.0,120.0,1.0,0.0
716,59.0,0.0,120.0,0.0,0.0
717,58.0,0.0,120.0,0.0,0.0
718,77.0,120.0,120.0,1.0,0.0
719,56.0,120.0,120.0,0.0,0.0
720,74.0,0.0,120.0,1.0,0.0
721,47.0,0.0,120.0,2.0,0.0
722,54.0,0.0,120.0,0.0,0.0
723,75.0,120.0,120.0,1.0,0.0
724,44.0,0.0,240.0,2.0,0.0
725,53.0,0.0,120.0,0.0,0.0
726,74.0,60.0,120.0,1.0,0.0
727,51.0,120.0,120.0,0.0,0.0
728,72.0,60.0,60.0,1.0,0.0
729,46.0,120.0,240.0,2.0,0.0
730,70.0,0.0,60.0,1.0,0.0
731,80.0,0.0,240.0,1.0,0.0
732,50.0,0.0,120.0,0.0,0.0
733,51.0,0.0,480.0,0.0,0.0
734,51.0,60.0,120.0,2.0,0.0
735,46.0,60.0,60.0,2.0,0.0
736,74.0,60.0,120.0,1.0,0.0
737,44.0,0.0,60.0,2.0,0.0
738,42.0,60.0,60.0,2.0,0.0
739,75.0,120.0,120.0,1.0,0.0
740,44.0,0.0,60.0,2.0,0.0
741,77.0,120.0,120.0,1.0,0.0
742,41.0,0.0,120.0,2.0,0.0
743,39.0,120.0,480.0,2.0,0.0
744,78.0,120.0,120.0,1.0,0.0
745,80.0,240.0,120.0,1.0,0.0
746,82.0,0.0,240.0,1.0,0.0
747,46.0,120.0,120.0,2.0,0.0
748,59.0,120.0,120.0,2.0,0.0
749,59.0,120.0,120.0,2.0,0.0
750,62.0,120.0,240.0,0.0,0.0
751,58.0,0.0,120.0,2.0,0.0
752,58.0,120.0,120.0,2.0,0.0
753,63.0,0.0,240.0,0.0,0.0
754,65.0,120.0,240.0,0.0,0.0
755,56.0,120.0,15.0,2.0,0.0
756,54.0,0.0,120.0,2.0,0.0
757,58.0,0.0,120.0,0.0,0.0
758,54.0,120.0,120.0,2.0,0.0
759,70.0,0.0,240.0,0.0,0.0
760,50.0,120.0,120.0,2.0,0.0
761,71.0,0.0,240.0,1.0,0.0
762,50.0,120.0,120.0,2.0,0.0
763,68.0,120.0,240.0,0.0,0.0
764,51.0,120.0,15.0,2.0,0.0
765,70.0,0.0,240.0,1.0,0.0
766,46.0,120.0,120.0,2.0,0.0
767,66.0,120.0,240.0,0.0,0.0
768,68.0,120.0,240.0,1.0,0.0
769,46.0,60.0,360.0,2.0,0.0
770,65.0,0.0,120.0,0.0,0.0
771,66.0,120.0,240.0,0.0,0.0
772,75.0,0.0,120.0,1.0,0.0
773,63.0,0.0,240.0,1.0,0.0
774,44.0,60.0,60.0,2.0,0.0
775,42.0,0.0,60.0,2.0,0.0
776,44.0,120.0,120.0,2.0,0.0
777,59.0,0.0,240.0,0.0,0.0
778,64.0,0.0,240.0,1.0,0.0
779,37.0,120.0,120.0,2.0,0.0
780,58.0,120.0,240.0,0.0,0.0
781,49.0,120.0,120.0,2.0,0.0
782,42.0,0.0,120.0,2.0,0.0
783,66.0,120.0,240.0,1.0,0.0
784,63.0,0.0,240.0,0.0,0.0
785,47.0,60.0,360.0,2.0,0.0
786,68.0,120.0,120.0,1.0,0.0
787,66.0,0.0,240.0,1.0,0.0
788,61.0,0.0,120.0,0.0,0.0
789,63.0,60.0,120.0,0.0,0.0
790,46.0,60.0,60.0,2.0,0.0
791,44.0,0.0,60.0,2.0,0.0
792,64.0,0.0,240.0,0.0,0.0
793,73.0,0.0,240.0,1.0,0.0
794,46.0,60.0,60.0,2.0,0.0
795,44.0,120.0,60.0,2.0,0.0
796,42.0,120.0,120.0,2.0,0.0
797,75.0,120.0,240.0,1.0,0.0
798,47.0,120.0,120.0,2.0,0.0
799,39.0,0.0,120.0,2.0,0.0
800,66.0,120.0,240.0,0.0,0.0
801,70.0,0.0,240.0,1.0,0.0
802,40.0,0.0,120.0,2.0,0.0
803,42.0,120.0,120.0,2.0,0.0
804,64.0,0.0,120.0,0.0,0.0
805,63.0,0.0,120.0,0.0,0.0
806,32.0,0.0,120.0,2.0,0.0
807,71.0,120.0,120.0,1.0,0.0
808,66.0,0.0,120.0,0.0,0.0
809,39.0,120.0,120.0,2.0,0.0
810,70.0,0.0,120.0,1.0,0.0
811,68.0,0.0,240.0,1.0,0.0
812,44.0,120.0,120.0,2.0,0.0
813,71.0,0.0,120.0,0.0,0.0
814,42.0,120.0,120.0,2.0,0.0
815,75.0,0.0,120.0,0.0,0.0
816,40.0,120.0,120.0,2.0,0.0
817,73.0,0.0,120.0,0.0,0.0
818,71.0,0.0,120.0,0.0,0.0
819,39.0,120.0,120.0,2.0,0.0
820,66.0,0.0,240.0,1.0,0.0
821,40.0,120.0,360.0,2.0,0.0
822,70.0,120.0,120.0,0.0,0.0
823,68.0,0.0,120.0,0.0,0.0
824,68.0,120.0,120.0,1.0,0.0
825,70.0,0.0,120.0,1.0,0.0
826,66.0,60.0,1080.0,0.0,0.0
827,66.0,120.0,120.0,1.0,0.0
828,52.0,0.0,120.0,2.0,0.0
829,54.0,120.0,120.0,2.0,0.0
830,61.0,0.0,120.0,1.0,0.0
831,52.0,0.0,120.0,2.0,0.0
832,58.0,120.0,120.0,1.0,0.0
833,59.0,0.0,120.0,1.0,0.0
834,51.0,120.0,120.0,2.0,0.0
835,61.0,0.0,120.0,1.0,0.0
836,49.0,120.0,120.0,2.0,0.0
837,63.0,120.0,120.0,1.0,0.0
838,47.0,0.0,120.0,2.0,0.0
839,49.0,0.0,120.0,2.0,0.0
840,64.0,120.0,120.0,1.0,0.0
841,66.0,0.0,1080.0,1.0,0.0
842,51.0,0.0,120.0,2.0,0.0
843,52.0,0.0,120.0,2.0,0.0
844,64.0,60.0,60.0,0.0,0.0
845,63.0,60.0,60.0,0.0,0.0
846,54.0,120.0,240.0,2.0,0.0
847,61.0,60.0,60.0,0.0,0.0
848,63.0,120.0,60.0,0.0,0.0
849,64.0,0.0,120.0,0.0,0.0
850,63.0,60.0,120.0,0.0,0.0
851,42.0,0.0,360.0,2.0,0.0
852,61.0,60.0,60.0,0.0,0.0
853,59.0,60.0,60.0,0.0,0.0
854,61.0,60.0,60.0,0.0,0.0
855,59.0,120.0,60.0,0.0,0.0
856,58.0,0.0,120.0,0.0,0.0
857,52.0,120.0,120.0,2.0,0.0
858,59.0,0.0,240.0,0.0,0.0
859,51.0,60.0,120.0,2.0,0.0
860,68.0,60.0,60.0,1.0,0.0
861,49.0,0.0,120.0,2.0,0.0
862,70.0,60.0,60.0,1.0,0.0
863,49.0,0.0,120.0,2.0,0.0
864,71.0,60.0,60.0,1.0,0.0
865,70.0,120.0,60.0,1.0,0.0
866,47.0,0.0,120.0,2.0,0.0
867,68.0,120.0,120.0,1.0,0.0
868,49.0,60.0,120.0,2.0,0.0
869,70.0,0.0,120.0,1.0,0.0
870,71.0,60.0,60.0,1.0,0.0
871,51.0,0.0,120.0,2.0,0.0
872,73.0,60.0,60.0,1.0,0.0
873,51.0,0.0,120.0,2.0,0.0
874,71.0,60.0,60.0,1.0,0.0
875,73.0,120.0,60.0,1.0,0.0
876,52.0,240.0,120.0,2.0,0.0
877,75.0,0.0,120.0,1.0,0.0
878,44.0,0.0,240.0,2.0,0.0
879,73.0,0.0,240.0,1.0,0.0
880,64.0,120.0,15.0,0.0,0.0
881,43.0,0.0,240.0,2.0,0.0
882,63.0,120.0,120.0,0.0,0.0
883,62.0,120.0,120.0,0.0,0.0
884,41.0,120.0,120.0,2.0,0.0
885,61.0,0.0,120.0,0.0,0.0
886,70.0,120.0,120.0,0.0,0.0
887,43.0,0.0,120.0,2.0,0.0
888,61.0,240.0,120.0,0.0,0.0
889,39.0,0.0,120.0,2.0,0.0
890,44.0,0.0,240.0,2.0,0.0
891,59.0,120.0,600.0,0.0,0.0
892,56.0,120.0,240.0,2.0,0.0
893,68.0,120.0,15.0,1.0,0.0
894,70.0,0.0,120.0,1.0,0.0
895,71.0,0.0,120.0,1.0,0.0
896,72.0,0.0,120.0,1.0,0.0
897,58.0,120.0,120.0,0.0,0.0
898,63.0,120.0,120.0,1.0,0.0
899,56.0,0.0,120.0,0.0,0.0
900,44.0,0.0,360.0,2.0,0.0
901,54.0,120.0,120.0,0.0,0.0
902,72.0,0.0,120.0,1.0,0.0
903,74.0,120.0,600.0,1.0,0.0
904,53.0,120.0,120.0,0.0,0.0
905,58.0,120.0,120.0,2.0,0.0
906,54.0,0.0,120.0,0.0,0.0
907,59.0,0.0,120.0,2.0,0.0
908,56.0,120.0,120.0,0.0,0.0
909,54.0,120.0,120.0,2.0,0.0
910,58.0,0.0,120.0,0.0,0.0
911,53.0,0.0,120.0,2.0,0.0
912,59.0,0.0,120.0,0.0,0.0
913,58.0,0.0,120.0,0.0,0.0
914,54.0,0.0,120.0,2.0,0.0
915,75.0,120.0,120.0,1.0,0.0
916,56.0,120.0,120.0,2.0,0.0
917,77.0,0.0,120.0,1.0,0.0
918,59.0,0.0,360.0,0.0,0.0
919,78.0,0.0,120.0,1.0,0.0
920,51.0,120.0,15.0,2.0,0.0
921,80.0,120.0,120.0,1.0,0.0
922,56.0,0.0,120.0,0.0,0.0
923,78.0,0.0,120.0,1.0,0.0
924,50.0,0.0,120.0,2.0,0.0
925,77.0,120.0,120.0,1.0,0.0
926,58.0,120.0,240.0,0.0,0.0
927,51.0,0.0,120.0,2.0,0.0
928,75.0,0.0,120.0,1.0,0.0
929,53.0,60.0,120.0,2.0,0.0
930,74.0,0.0,120.0,1.0,0.0
931,75.0,60.0,120.0,1.0,0.0
932,54.0,60.0,60.0,2.0,0.0
933,56.0,0.0,60.0,2.0,0.0
934,65.0,60.0,240.0,0.0,0.0
935,74.0,0.0,360.0,1.0,0.0
936,58.0,60.0,60.0,2.0,0.0
937,59.0,120.0,60.0,2.0,0.0
938,56.0,0.0,120.0,2.0,0.0
939,54.0,60.0,60.0,2.0,0.0
940,70.0,0.0,360.0,0.0,0.0
941,58.0,120.0,60.0,2.0,0.0
942,77.0,0.0,120.0,1.0,0.0
943,56.0,60.0,120.0,2.0,0.0
944,75.0,0.0,240.0,1.0,0.0
945,54.0,60.0,60.0,2.0,0.0
946,56.0,120.0,60.0,2.0,0.0
947,53.0,60.0,120.0,2.0,0.0
948,68.0,0.0,120.0,0.0,0.0
949,66.0,120.0,120.0,0.0,0.0
950,51.0,60.0,60.0,2.0,0.0
951,53.0,0.0,60.0,2.0,0.0
952,65.0,0.0,120.0,0.0,0.0
953,49.0,60.0,120.0,2.0,0.0
954,63.0,0.0,120.0,0.0,0.0
955,47.0,60.0,60.0,2.0,0.0
956,68.0,0.0,240.0,1.0,0.0
957,49.0,120.0,60.0,2.0,0.0
958,61.0,120.0,120.0,0.0,0.0
959,46.0,0.0,120.0,2.0,0.0
960,44.0,60.0,120.0,2.0,0.0
961,59.0,0.0,120.0,0.0,0.0
962,63.0,0.0,360.0,1.0,0.0
963,58.0,120.0,120.0,0.0,0.0
964,47.0,60.0,60.0,2.0,0.0
965,46.0,0.0,60.0,2.0,0.0
966,47.0,0.0,120.0,2.0,0.0
967,56.0,120.0,120.0,0.0,0.0
968,65.0,0.0,120.0,1.0,0.0
969,38.0,120.0,120.0,2.0,0.0
970,59.0,0.0,120.0,0.0,0.0
971,66.0,0.0,120.0,1.0,0.0
972,39.0,60.0,240.0,2.0,0.0
973,58.0,120.0,120.0,0.0,0.0
974,60.0,0.0,120.0,0.0,0.0
975,68.0,0.0,120.0,1.0,0.0
976,62.0,60.0,60.0,0.0,0.0
977,70.0,0.0,120.0,1.0,0.0
978,63.0,120.0,60.0,0.0,0.0
979,72.0,0.0,120.0,1.0,0.0
980,53.0,0.0,240.0,0.0,0.0
981,44.0,120.0,120.0,2.0,0.0
982,46.0,120.0,240.0,2.0,0.0
983,74.0,120.0,120.0,1.0,0.0
984,59.0,0.0,120.0,0.0,0.0
985,75.0,0.0,120.0,1.0,0.0
986,58.0,0.0,120.0,0.0,0.0
987,77.0,120.0,120.0,1.0,0.0
988,74.0,120.0,120.0,1.0,0.0
989,56.0,0.0,120.0,0.0,0.0
990,47.0,0.0,120.0,2.0,0.0
991,44.0,0.0,240.0,2.0,0.0
992,75.0,0.0,120.0,1.0,0.0
993,54.0,120.0,120.0,0.0,0.0
994,74.0,0.0,120.0,1.0,0.0
995,53.0,60.0,120.0,0.0,0.0
996,72.0,60.0,60.0,1.0,0.0
997,51.0,120.0,120.0,0.0,0.0
998,46.0,120.0,240.0,2.0,0.0
999,70.0,0.0,60.0,1.0,0.0
1000,50.0,0.0,120.0,0.0,0.0
1001,80.0,0.0,240.0,1.0,0.0
1002,51.0,60.0,120.0,2.0,0.0
1003,51.0,0.0,480.0,0.0,0.0
1004,46.0,60.0,60.0,2.0,0.0
1005,74.0,60.0,120.0,1.0,0.0
1006,44.0,0.0,60.0,2.0,0.0
1007,42.0,60.0,60.0,2.0,0.0
1008,75.0,0.0,120.0,1.0,0.0
1009,44.0,120.0,60.0,2.0,0.0
1010,41.0,0.0,120.0,2.0,0.0
1011,77.0,120.0,120.0,1.0,0.0
1012,39.0,0.0,480.0,2.0,0.0
1013,78.0,120.0,120.0,1.0,0.0
1014,80.0,240.0,120.0,1.0,0.0
1015,82.0,0.0,240.0,1.0,0.0
