,note,step,duration,channel,velocity
0,48.0,512.0,1020.0,5.0,0.0
1,55.0,0.0,1020.0,5.0,0.0
2,48.0,256.0,270.0,6.0,0.0
3,50.0,256.0,270.0,6.0,0.0
4,51.0,256.0,270.0,6.0,0.0
5,45.0,256.0,270.0,6.0,0.0
6,55.0,256.0,780.0,5.0,0.0
7,48.0,256.0,270.0,6.0,0.0
8,51.0,256.0,780.0,6.0,0.0
9,56.0,256.0,270.0,5.0,0.0
10,53.0,256.0,1020.0,5.0,0.0
11,51.0,256.0,270.0,6.0,0.0
12,50.0,256.0,270.0,6.0,0.0
13,48.0,0.0,270.0,6.0,0.0
14,47.0,256.0,270.0,6.0,0.0
15,50.0,256.0,270.0,6.0,0.0
16,53.0,256.0,780.0,6.0,0.0
17,55.0,256.0,15.0,5.0,0.0
18,48.0,0.0,780.0,5.0,0.0
19,53.0,256.0,270.0,6.0,0.0
20,51.0,256.0,270.0,6.0,0.0
21,50.0,0.0,270.0,5.0,0.0
22,50.0,256.0,270.0,6.0,0.0
23,51.0,256.0,1020.0,5.0,0.0
24,48.0,256.0,270.0,6.0,0.0
25,55.0,0.0,1020.0,4.0,0.0
26,43.0,256.0,270.0,6.0,0.0
27,48.0,256.0,270.0,6.0,0.0
28,46.0,0.0,270.0,6.0,0.0
29,44.0,256.0,270.0,6.0,0.0
30,51.0,256.0,1020.0,5.0,0.0
31,41.0,256.0,270.0,6.0,0.0
32,43.0,256.0,270.0,6.0,0.0
33,44.0,0.0,270.0,6.0,0.0
34,60.0,0.0,15.0,4.0,0.0
35,50.0,0.0,2040.0,5.0,0.0
36,38.0,256.0,270.0,6.0,0.0
37,41.0,256.0,270.0,6.0,0.0
38,62.0,256.0,270.0,4.0,0.0
39,59.0,256.0,1020.0,4.0,0.0
40,44.0,256.0,15.0,6.0,0.0
41,43.0,256.0,270.0,6.0,0.0
42,41.0,0.0,270.0,6.0,0.0
43,60.0,0.0,1020.0,4.0,0.0
44,40.0,256.0,270.0,6.0,0.0
45,48.0,256.0,780.0,5.0,0.0
46,43.0,256.0,270.0,6.0,0.0
47,48.0,256.0,780.0,6.0,0.0
48,50.0,256.0,270.0,5.0,0.0
49,52.0,0.0,780.0,5.0,0.0
50,55.0,256.0,780.0,4.0,0.0
51,48.0,256.0,270.0,6.0,0.0
52,46.0,0.0,270.0,6.0,0.0
53,57.0,0.0,270.0,4.0,0.0
54,54.0,256.0,270.0,5.0,0.0
55,45.0,0.0,270.0,6.0,0.0
56,43.0,256.0,270.0,6.0,0.0
57,55.0,256.0,780.0,5.0,0.0
58,38.0,256.0,270.0,6.0,0.0
59,43.0,0.0,270.0,6.0,0.0
60,41.0,0.0,270.0,6.0,0.0
61,50.0,256.0,270.0,5.0,0.0
62,58.0,0.0,15.0,4.0,0.0
63,55.0,0.0,780.0,5.0,0.0
64,39.0,256.0,270.0,6.0,0.0
65,34.0,256.0,270.0,6.0,0.0
66,36.0,256.0,270.0,6.0,0.0
67,53.0,0.0,270.0,5.0,0.0
68,38.0,256.0,270.0,6.0,0.0
69,36.0,256.0,270.0,6.0,0.0
70,51.0,256.0,780.0,5.0,0.0
71,57.0,0.0,2040.0,4.0,0.0
72,39.0,256.0,270.0,6.0,0.0
73,43.0,0.0,1020.0,6.0,0.0
74,50.0,256.0,270.0,5.0,0.0
75,48.0,256.0,270.0,5.0,0.0
76,51.0,256.0,270.0,5.0,0.0
77,41.0,256.0,780.0,6.0,0.0
78,50.0,256.0,270.0,5.0,0.0
79,48.0,256.0,270.0,5.0,0.0
80,47.0,0.0,1020.0,5.0,0.0
81,55.0,256.0,2040.0,4.0,0.0
82,44.0,256.0,270.0,6.0,0.0
83,43.0,256.0,270.0,6.0,0.0
84,41.0,256.0,270.0,6.0,0.0
85,39.0,256.0,270.0,6.0,0.0
86,47.0,256.0,270.0,5.0,0.0
87,41.0,0.0,270.0,6.0,0.0
88,39.0,256.0,270.0,6.0,0.0
89,48.0,0.0,270.0,5.0,0.0
90,38.0,0.0,270.0,6.0,0.0
91,50.0,0.0,270.0,5.0,0.0
92,51.0,256.0,270.0,5.0,0.0
93,36.0,0.0,270.0,6.0,0.0
94,36.0,0.0,1020.0,7.0,0.0
95,50.0,0.0,270.0,5.0,0.0
96,59.0,256.0,270.0,4.0,0.0
97,51.0,256.0,270.0,5.0,0.0
98,60.0,0.0,270.0,4.0,0.0
99,62.0,0.0,270.0,4.0,0.0
100,53.0,256.0,270.0,5.0,0.0
101,55.0,0.0,270.0,5.0,0.0
102,63.0,256.0,270.0,4.0,0.0
103,51.0,256.0,270.0,5.0,0.0
104,60.0,0.0,270.0,4.0,0.0
105,62.0,256.0,270.0,4.0,0.0
106,53.0,0.0,270.0,5.0,0.0
107,63.0,0.0,270.0,4.0,0.0
108,55.0,256.0,270.0,5.0,0.0
109,57.0,256.0,270.0,4.0,0.0
110,48.0,256.0,780.0,5.0,0.0
111,43.0,0.0,15.0,7.0,0.0
112,60.0,256.0,270.0,4.0,0.0
113,63.0,0.0,780.0,4.0,0.0
114,58.0,0.0,270.0,5.0,0.0
115,56.0,256.0,270.0,5.0,0.0
116,41.0,0.0,1020.0,7.0,0.0
117,55.0,0.0,270.0,5.0,0.0
118,63.0,256.0,270.0,4.0,0.0
119,53.0,0.0,270.0,5.0,0.0
120,62.0,256.0,270.0,4.0,0.0
121,51.0,0.0,270.0,5.0,0.0
122,60.0,256.0,270.0,4.0,0.0
123,50.0,256.0,270.0,5.0,0.0
124,43.0,256.0,1020.0,7.0,0.0
125,59.0,0.0,270.0,4.0,0.0
126,43.0,0.0,270.0,5.0,0.0
127,62.0,256.0,270.0,4.0,0.0
128,45.0,256.0,270.0,5.0,0.0
129,47.0,0.0,270.0,5.0,0.0
130,48.0,0.0,270.0,5.0,0.0
131,36.0,0.0,1020.0,7.0,0.0
132,65.0,256.0,15.0,4.0,0.0
133,50.0,0.0,270.0,5.0,0.0
134,51.0,256.0,270.0,5.0,0.0
135,63.0,0.0,270.0,4.0,0.0
136,62.0,256.0,270.0,4.0,0.0
137,53.0,0.0,270.0,5.0,0.0
138,55.0,256.0,780.0,5.0,0.0
139,60.0,256.0,270.0,4.0,0.0
140,63.0,256.0,270.0,4.0,0.0
141,67.0,0.0,780.0,4.0,0.0
142,53.0,0.0,270.0,5.0,0.0
143,51.0,256.0,270.0,5.0,0.0
144,39.0,256.0,15.0,7.0,0.0
145,55.0,0.0,270.0,5.0,0.0
146,63.0,256.0,270.0,4.0,0.0
147,68.0,256.0,270.0,4.0,0.0
148,60.0,256.0,780.0,5.0,0.0
149,67.0,256.0,270.0,4.0,0.0
150,38.0,0.0,2040.0,7.0,0.0
151,65.0,256.0,1290.0,4.0,0.0
152,57.0,256.0,270.0,5.0,0.0
153,62.0,256.0,270.0,5.0,0.0
154,60.0,256.0,270.0,5.0,0.0
155,59.0,256.0,1020.0,5.0,0.0
156,62.0,256.0,270.0,4.0,0.0
157,67.0,256.0,270.0,4.0,0.0
158,65.0,0.0,270.0,4.0,0.0
159,63.0,0.0,780.0,4.0,0.0
160,60.0,256.0,270.0,5.0,0.0
161,36.0,0.0,4110.0,7.0,0.0
162,48.0,256.0,270.0,5.0,0.0
163,60.0,256.0,270.0,5.0,0.0
164,62.0,256.0,270.0,4.0,0.0
165,58.0,0.0,270.0,5.0,0.0
166,60.0,256.0,780.0,4.0,0.0
167,56.0,256.0,270.0,5.0,0.0
168,48.0,256.0,270.0,5.0,0.0
169,56.0,0.0,270.0,5.0,0.0
170,58.0,0.0,270.0,4.0,0.0
171,55.0,256.0,270.0,5.0,0.0
172,56.0,256.0,780.0,4.0,0.0
173,53.0,256.0,270.0,5.0,0.0
174,60.0,0.0,1020.0,2.0,0.0
175,48.0,256.0,270.0,5.0,0.0
176,53.0,256.0,780.0,5.0,0.0
177,58.0,256.0,270.0,4.0,0.0
178,55.0,0.0,510.0,4.0,0.0
179,67.0,256.0,1020.0,2.0,0.0
180,48.0,256.0,270.0,5.0,0.0
181,50.0,256.0,270.0,5.0,0.0
182,60.0,0.0,510.0,4.0,0.0
183,51.0,0.0,270.0,5.0,0.0
184,45.0,256.0,270.0,5.0,0.0
185,63.0,256.0,510.0,4.0,0.0
186,67.0,256.0,780.0,2.0,0.0
187,48.0,0.0,270.0,5.0,0.0
188,51.0,256.0,780.0,5.0,0.0
189,60.0,256.0,510.0,4.0,0.0
190,68.0,0.0,270.0,2.0,0.0
191,65.0,0.0,1020.0,2.0,0.0
192,57.0,256.0,510.0,4.0,0.0
193,51.0,0.0,270.0,5.0,0.0
194,50.0,0.0,270.0,5.0,0.0
195,59.0,256.0,270.0,4.0,0.0
196,48.0,256.0,270.0,5.0,0.0
197,60.0,0.0,270.0,4.0,0.0
198,62.0,0.0,270.0,4.0,0.0
199,47.0,256.0,270.0,5.0,0.0
200,67.0,256.0,1020.0,2.0,0.0
201,65.0,0.0,270.0,4.0,0.0
202,50.0,256.0,270.0,5.0,0.0
203,59.0,256.0,270.0,4.0,0.0
204,55.0,0.0,510.0,4.0,0.0
205,60.0,0.0,780.0,2.0,0.0
206,53.0,256.0,15.0,5.0,0.0
207,56.0,256.0,270.0,4.0,0.0
208,51.0,256.0,270.0,5.0,0.0
209,50.0,0.0,270.0,5.0,0.0
210,62.0,256.0,270.0,2.0,0.0
211,48.0,256.0,270.0,5.0,0.0
212,36.0,256.0,270.0,6.0,0.0
213,48.0,256.0,270.0,6.0,0.0
214,55.0,0.0,15.0,4.0,0.0
215,46.0,0.0,270.0,6.0,0.0
216,44.0,256.0,270.0,6.0,0.0
217,60.0,0.0,780.0,4.0,0.0
218,63.0,256.0,15.0,2.0,0.0
219,36.0,256.0,270.0,6.0,0.0
220,44.0,256.0,270.0,6.0,0.0
221,43.0,256.0,270.0,6.0,0.0
222,58.0,0.0,270.0,4.0,0.0
223,56.0,0.0,1530.0,4.0,0.0
224,41.0,256.0,270.0,6.0,0.0
225,63.0,0.0,15.0,2.0,0.0
226,44.0,256.0,270.0,6.0,0.0
227,65.0,256.0,270.0,2.0,0.0
228,48.0,256.0,780.0,6.0,0.0
229,63.0,256.0,270.0,2.0,0.0
230,62.0,0.0,270.0,2.0,0.0
231,46.0,256.0,270.0,6.0,0.0
232,63.0,0.0,270.0,2.0,0.0
233,44.0,0.0,270.0,6.0,0.0
234,60.0,256.0,270.0,2.0,0.0
235,60.0,256.0,1800.0,4.0,0.0
236,62.0,0.0,270.0,2.0,0.0
237,43.0,256.0,270.0,6.0,0.0
238,62.0,0.0,2040.0,2.0,0.0
239,42.0,256.0,270.0,6.0,0.0
240,45.0,256.0,270.0,6.0,0.0
241,50.0,256.0,270.0,6.0,0.0
242,42.0,256.0,270.0,6.0,0.0
243,43.0,256.0,780.0,6.0,0.0
244,57.0,256.0,270.0,4.0,0.0
245,59.0,0.0,510.0,4.0,0.0
246,43.0,256.0,270.0,6.0,0.0
247,53.0,0.0,270.0,5.0,0.0
248,60.0,0.0,270.0,2.0,0.0
249,60.0,256.0,270.0,4.0,0.0
250,52.0,256.0,780.0,5.0,0.0
251,36.0,0.0,780.0,6.0,0.0
252,55.0,256.0,270.0,2.0,0.0
253,60.0,256.0,780.0,2.0,0.0
254,38.0,0.0,270.0,6.0,0.0
255,53.0,256.0,270.0,5.0,0.0
256,40.0,256.0,780.0,6.0,0.0
257,55.0,256.0,1290.0,5.0,0.0
258,58.0,256.0,270.0,2.0,0.0
259,56.0,0.0,270.0,2.0,0.0
260,55.0,0.0,270.0,2.0,0.0
261,36.0,256.0,270.0,6.0,0.0
262,56.0,256.0,780.0,2.0,0.0
263,41.0,0.0,780.0,6.0,0.0
264,48.0,256.0,270.0,5.0,0.0
265,53.0,256.0,780.0,5.0,0.0
266,58.0,256.0,270.0,2.0,0.0
267,43.0,0.0,270.0,6.0,0.0
268,60.0,256.0,510.0,2.0,0.0
269,44.0,0.0,780.0,6.0,0.0
270,56.0,256.0,780.0,5.0,0.0
271,65.0,0.0,510.0,2.0,0.0
272,65.0,256.0,270.0,4.0,0.0
273,59.0,0.0,270.0,4.0,0.0
274,41.0,0.0,270.0,6.0,0.0
275,55.0,0.0,270.0,5.0,0.0
276,64.0,256.0,270.0,2.0,0.0
277,60.0,256.0,780.0,4.0,0.0
278,48.0,256.0,2310.0,6.0,0.0
279,58.0,0.0,270.0,5.0,0.0
280,67.0,256.0,270.0,2.0,0.0
281,56.0,0.0,270.0,5.0,0.0
282,70.0,0.0,510.0,2.0,0.0
283,55.0,0.0,270.0,5.0,0.0
284,64.0,256.0,270.0,4.0,0.0
285,68.0,0.0,270.0,2.0,0.0
286,65.0,256.0,2550.0,4.0,0.0
287,53.0,256.0,270.0,5.0,0.0
288,72.0,0.0,270.0,2.0,0.0
289,56.0,256.0,270.0,5.0,0.0
290,77.0,0.0,270.0,2.0,0.0
291,55.0,256.0,270.0,5.0,0.0
292,53.0,0.0,270.0,5.0,0.0
293,71.0,256.0,270.0,2.0,0.0
294,72.0,256.0,2310.0,2.0,0.0
295,55.0,256.0,510.0,5.0,0.0
296,48.0,0.0,3840.0,6.0,0.0
297,60.0,256.0,270.0,5.0,0.0
298,59.0,256.0,270.0,5.0,0.0
299,60.0,256.0,270.0,5.0,0.0
300,55.0,512.0,2820.0,5.0,0.0
301,64.0,256.0,270.0,4.0,0.0
302,62.0,256.0,270.0,4.0,0.0
303,64.0,0.0,2040.0,4.0,0.0
304,67.0,256.0,270.0,2.0,0.0
305,72.0,256.0,270.0,2.0,0.0
306,71.0,256.0,270.0,2.0,0.0
307,72.0,256.0,270.0,2.0,0.0
308,72.0,0.0,1020.0,3.0,0.0
309,67.0,0.0,780.0,3.0,0.0
310,67.0,512.0,270.0,2.0,0.0
311,60.0,0.0,510.0,2.0,0.0
312,60.0,256.0,270.0,3.0,0.0
313,58.0,256.0,270.0,3.0,0.0
314,56.0,0.0,270.0,3.0,0.0
315,51.0,512.0,15.0,5.0,0.0
316,55.0,0.0,780.0,3.0,0.0
317,48.0,256.0,270.0,6.0,0.0
318,46.0,256.0,270.0,6.0,0.0
319,44.0,0.0,270.0,6.0,0.0
320,56.0,0.0,270.0,3.0,0.0
321,58.0,0.0,1530.0,3.0,0.0
322,43.0,256.0,270.0,6.0,0.0
323,51.0,256.0,15.0,5.0,0.0
324,46.0,256.0,270.0,6.0,0.0
325,39.0,256.0,780.0,6.0,0.0
326,49.0,256.0,270.0,5.0,0.0
327,48.0,256.0,780.0,5.0,0.0
328,44.0,256.0,270.0,6.0,0.0
329,56.0,512.0,510.0,3.0,0.0
330,32.0,0.0,510.0,6.0,0.0
331,50.0,0.0,270.0,5.0,0.0
332,51.0,256.0,1020.0,5.0,0.0
333,55.0,256.0,780.0,3.0,0.0
334,32.0,256.0,270.0,6.0,0.0
335,48.0,256.0,780.0,6.0,0.0
336,63.0,256.0,1020.0,3.0,0.0
337,53.0,256.0,1020.0,5.0,0.0
338,38.0,256.0,270.0,6.0,0.0
339,46.0,256.0,780.0,6.0,0.0
340,62.0,256.0,1020.0,3.0,0.0
341,55.0,0.0,1020.0,5.0,0.0
342,39.0,256.0,270.0,6.0,0.0
343,51.0,256.0,780.0,6.0,0.0
344,60.0,256.0,270.0,3.0,0.0
345,53.0,0.0,1020.0,5.0,0.0
346,68.0,256.0,780.0,3.0,0.0
347,41.0,256.0,270.0,6.0,0.0
348,50.0,256.0,780.0,6.0,0.0
349,59.0,256.0,270.0,3.0,0.0
350,67.0,256.0,780.0,3.0,0.0
351,51.0,0.0,1020.0,5.0,0.0
352,43.0,256.0,270.0,6.0,0.0
353,48.0,256.0,780.0,6.0,0.0
354,57.0,256.0,270.0,3.0,0.0
355,65.0,256.0,780.0,3.0,0.0
356,50.0,256.0,1020.0,5.0,0.0
357,45.0,256.0,270.0,6.0,0.0
358,47.0,0.0,510.0,6.0,0.0
359,55.0,0.0,270.0,3.0,0.0
360,48.0,256.0,270.0,5.0,0.0
361,63.0,256.0,1290.0,3.0,0.0
362,60.0,256.0,270.0,5.0,0.0
363,58.0,256.0,270.0,5.0,0.0
364,56.0,256.0,270.0,5.0,0.0
365,55.0,0.0,1020.0,5.0,0.0
366,48.0,0.0,15.0,6.0,0.0
367,63.0,0.0,270.0,3.0,0.0
368,46.0,0.0,270.0,6.0,0.0
369,62.0,256.0,270.0,3.0,0.0
370,60.0,0.0,270.0,3.0,0.0
371,45.0,512.0,270.0,6.0,0.0
372,43.0,512.0,1020.0,6.0,0.0
373,55.0,256.0,270.0,5.0,0.0
374,53.0,256.0,270.0,5.0,0.0
375,51.0,0.0,270.0,5.0,0.0
376,58.0,0.0,15.0,3.0,0.0
377,50.0,256.0,780.0,5.0,0.0
378,43.0,256.0,270.0,6.0,0.0
379,41.0,0.0,270.0,6.0,0.0
380,39.0,0.0,270.0,6.0,0.0
381,51.0,0.0,270.0,5.0,0.0
382,38.0,256.0,270.0,6.0,0.0
383,53.0,0.0,1530.0,5.0,0.0
384,58.0,256.0,15.0,3.0,0.0
385,41.0,256.0,270.0,6.0,0.0
386,46.0,256.0,780.0,6.0,0.0
387,56.0,256.0,270.0,3.0,0.0
388,55.0,256.0,780.0,3.0,0.0
389,39.0,256.0,270.0,6.0,0.0
390,51.0,0.0,510.0,6.0,0.0
391,51.0,512.0,510.0,5.0,0.0
392,57.0,0.0,270.0,3.0,0.0
393,58.0,256.0,1020.0,3.0,0.0
394,50.0,256.0,780.0,5.0,0.0
395,43.0,256.0,270.0,6.0,0.0
396,55.0,256.0,780.0,6.0,0.0
397,58.0,256.0,1020.0,5.0,0.0
398,60.0,256.0,1020.0,3.0,0.0
399,45.0,256.0,270.0,6.0,0.0
400,53.0,256.0,780.0,6.0,0.0
401,57.0,256.0,1020.0,5.0,0.0
402,62.0,256.0,1020.0,3.0,0.0
403,46.0,256.0,270.0,6.0,0.0
404,58.0,256.0,780.0,6.0,0.0
405,55.0,0.0,270.0,5.0,0.0
406,60.0,0.0,1020.0,3.0,0.0
407,63.0,256.0,780.0,5.0,0.0
408,48.0,256.0,270.0,6.0,0.0
409,57.0,256.0,780.0,6.0,0.0
410,54.0,256.0,270.0,5.0,0.0
411,62.0,256.0,780.0,5.0,0.0
412,58.0,0.0,1020.0,3.0,0.0
413,50.0,256.0,270.0,6.0,0.0
414,55.0,256.0,780.0,6.0,0.0
415,52.0,256.0,270.0,5.0,0.0
416,57.0,0.0,1020.0,3.0,0.0
417,60.0,256.0,780.0,5.0,0.0
418,52.0,256.0,270.0,6.0,0.0
419,54.0,0.0,510.0,6.0,0.0
420,50.0,256.0,270.0,5.0,0.0
421,55.0,0.0,510.0,6.0,0.0
422,55.0,256.0,270.0,3.0,0.0
423,58.0,256.0,1290.0,5.0,0.0
424,67.0,256.0,270.0,3.0,0.0
425,43.0,0.0,780.0,6.0,0.0
426,65.0,256.0,270.0,3.0,0.0
427,63.0,256.0,270.0,3.0,0.0
428,62.0,0.0,1020.0,3.0,0.0
429,44.0,0.0,270.0,6.0,0.0
430,60.0,256.0,270.0,5.0,0.0
431,43.0,0.0,270.0,6.0,0.0
432,58.0,256.0,270.0,5.0,0.0
433,41.0,256.0,270.0,6.0,0.0
434,56.0,0.0,270.0,5.0,0.0
435,55.0,0.0,270.0,5.0,0.0
436,63.0,256.0,270.0,3.0,0.0
437,39.0,0.0,270.0,6.0,0.0
438,72.0,256.0,270.0,3.0,0.0
439,70.0,256.0,270.0,3.0,0.0
440,68.0,512.0,270.0,3.0,0.0
441,39.0,0.0,15.0,7.0,0.0
442,67.0,256.0,780.0,3.0,0.0
443,60.0,256.0,270.0,5.0,0.0
444,58.0,0.0,270.0,5.0,0.0
445,56.0,0.0,270.0,5.0,0.0
446,68.0,0.0,270.0,3.0,0.0
447,70.0,256.0,780.0,3.0,0.0
448,55.0,256.0,270.0,5.0,0.0
449,39.0,0.0,1020.0,7.0,0.0
450,58.0,256.0,270.0,5.0,0.0
451,51.0,256.0,780.0,5.0,0.0
452,60.0,256.0,270.0,3.0,0.0
453,36.0,0.0,1020.0,7.0,0.0
454,68.0,256.0,780.0,3.0,0.0
455,56.0,256.0,270.0,5.0,0.0
456,44.0,512.0,510.0,5.0,0.0
457,62.0,0.0,270.0,3.0,0.0
458,67.0,256.0,780.0,3.0,0.0
459,39.0,256.0,1020.0,7.0,0.0
460,44.0,256.0,270.0,5.0,0.0
461,60.0,256.0,780.0,5.0,0.0
462,63.0,0.0,270.0,3.0,0.0
463,68.0,256.0,780.0,3.0,0.0
464,41.0,0.0,1020.0,7.0,0.0
465,50.0,256.0,270.0,5.0,0.0
466,58.0,256.0,780.0,5.0,0.0
467,65.0,256.0,270.0,3.0,0.0
468,43.0,256.0,1020.0,7.0,0.0
469,70.0,256.0,780.0,3.0,0.0
470,51.0,256.0,270.0,5.0,0.0
471,63.0,256.0,780.0,5.0,0.0
472,67.0,0.0,270.0,3.0,0.0
473,41.0,0.0,1020.0,7.0,0.0
474,68.0,256.0,780.0,3.0,0.0
475,53.0,256.0,270.0,5.0,0.0
476,62.0,256.0,780.0,5.0,0.0
477,59.0,256.0,270.0,3.0,0.0
478,39.0,256.0,1020.0,7.0,0.0
479,67.0,256.0,780.0,3.0,0.0
480,55.0,256.0,270.0,5.0,0.0
481,60.0,256.0,780.0,5.0,0.0
482,57.0,0.0,270.0,3.0,0.0
483,65.0,256.0,780.0,3.0,0.0
484,38.0,512.0,1020.0,7.0,0.0
485,57.0,256.0,270.0,5.0,0.0
486,59.0,0.0,510.0,5.0,0.0
487,55.0,0.0,270.0,3.0,0.0
488,36.0,0.0,2040.0,7.0,0.0
489,63.0,256.0,1020.0,3.0,0.0
490,60.0,256.0,270.0,5.0,0.0
491,58.0,256.0,270.0,5.0,0.0
492,56.0,0.0,270.0,5.0,0.0
493,55.0,256.0,270.0,5.0,0.0
494,53.0,0.0,270.0,5.0,0.0
495,62.0,256.0,270.0,3.0,0.0
496,51.0,256.0,270.0,5.0,0.0
497,60.0,0.0,270.0,3.0,0.0
498,59.0,256.0,270.0,3.0,0.0
499,50.0,0.0,270.0,5.0,0.0
500,48.0,512.0,1020.0,5.0,0.0
501,60.0,256.0,270.0,3.0,0.0
502,60.0,256.0,270.0,3.0,0.0
503,58.0,256.0,270.0,3.0,0.0
504,56.0,0.0,270.0,3.0,0.0
505,63.0,0.0,15.0,2.0,0.0
506,55.0,256.0,780.0,3.0,0.0
507,48.0,256.0,270.0,6.0,0.0
508,46.0,0.0,270.0,6.0,0.0
509,44.0,0.0,270.0,6.0,0.0
510,56.0,0.0,270.0,3.0,0.0
511,58.0,0.0,1530.0,3.0,0.0
512,63.0,256.0,15.0,2.0,0.0
513,43.0,256.0,270.0,6.0,0.0
514,46.0,256.0,270.0,6.0,0.0
515,39.0,256.0,780.0,6.0,0.0
516,61.0,256.0,270.0,2.0,0.0
517,60.0,256.0,780.0,2.0,0.0
518,44.0,256.0,270.0,6.0,0.0
519,32.0,0.0,510.0,6.0,0.0
520,56.0,0.0,510.0,3.0,0.0
521,62.0,512.0,270.0,2.0,0.0
522,55.0,256.0,780.0,3.0,0.0
523,63.0,0.0,1020.0,2.0,0.0
524,36.0,256.0,270.0,6.0,0.0
525,48.0,256.0,780.0,6.0,0.0
526,51.0,256.0,270.0,3.0,0.0
527,56.0,256.0,780.0,3.0,0.0
528,65.0,0.0,1020.0,2.0,0.0
529,38.0,256.0,270.0,6.0,0.0
530,46.0,256.0,780.0,6.0,0.0
531,53.0,256.0,270.0,3.0,0.0
532,67.0,0.0,1020.0,2.0,0.0
533,58.0,256.0,780.0,3.0,0.0
534,39.0,256.0,270.0,6.0,0.0
535,51.0,256.0,780.0,6.0,0.0
536,60.0,256.0,270.0,3.0,0.0
537,56.0,256.0,780.0,3.0,0.0
538,65.0,256.0,1020.0,2.0,0.0
539,41.0,256.0,270.0,6.0,0.0
540,50.0,256.0,780.0,6.0,0.0
541,58.0,0.0,270.0,3.0,0.0
542,55.0,256.0,780.0,3.0,0.0
543,63.0,256.0,1020.0,2.0,0.0
544,43.0,256.0,270.0,6.0,0.0
545,48.0,256.0,780.0,6.0,0.0
546,56.0,0.0,270.0,3.0,0.0
547,53.0,256.0,780.0,3.0,0.0
548,62.0,0.0,1020.0,2.0,0.0
549,45.0,256.0,270.0,6.0,0.0
550,47.0,256.0,510.0,6.0,0.0
551,55.0,0.0,270.0,3.0,0.0
552,52.0,256.0,510.0,3.0,0.0
553,60.0,256.0,3330.0,2.0,0.0
554,48.0,256.0,270.0,6.0,0.0
555,44.0,0.0,270.0,6.0,0.0
556,53.0,0.0,510.0,3.0,0.0
557,43.0,256.0,270.0,6.0,0.0
558,41.0,512.0,270.0,6.0,0.0
559,40.0,256.0,1020.0,6.0,0.0
560,55.0,256.0,1290.0,3.0,0.0
561,49.0,256.0,270.0,5.0,0.0
562,48.0,256.0,270.0,5.0,0.0
563,46.0,0.0,270.0,5.0,0.0
564,41.0,0.0,2040.0,6.0,0.0
565,45.0,0.0,1020.0,5.0,0.0
566,55.0,256.0,270.0,3.0,0.0
567,53.0,256.0,270.0,3.0,0.0
568,52.0,256.0,270.0,3.0,0.0
569,62.0,256.0,270.0,2.0,0.0
570,60.0,256.0,270.0,2.0,0.0
571,59.0,256.0,270.0,2.0,0.0
572,60.0,512.0,2040.0,2.0,0.0
573,53.0,256.0,15.0,3.0,0.0
574,44.0,0.0,15.0,5.0,0.0
575,51.0,256.0,270.0,3.0,0.0
576,43.0,0.0,270.0,5.0,0.0
577,41.0,0.0,270.0,5.0,0.0
578,50.0,256.0,270.0,3.0,0.0
579,43.0,0.0,1020.0,5.0,0.0
580,36.0,512.0,510.0,5.0,0.0
581,51.0,0.0,1020.0,3.0,0.0
582,36.0,256.0,15.0,6.0,0.0
583,48.0,0.0,510.0,5.0,0.0
584,63.0,256.0,270.0,2.0,0.0
585,62.0,256.0,270.0,2.0,0.0
586,61.0,0.0,270.0,2.0,0.0
587,60.0,256.0,270.0,2.0,0.0
588,51.0,256.0,15.0,3.0,0.0
589,59.0,256.0,270.0,2.0,0.0
590,58.0,256.0,270.0,2.0,0.0
591,56.0,512.0,270.0,2.0,0.0
592,51.0,0.0,15.0,3.0,0.0
593,55.0,256.0,510.0,2.0,0.0
594,48.0,0.0,270.0,5.0,0.0
595,47.0,256.0,270.0,5.0,0.0
596,56.0,0.0,270.0,2.0,0.0
597,58.0,0.0,270.0,2.0,0.0
598,46.0,256.0,270.0,5.0,0.0
599,48.0,0.0,1020.0,3.0,0.0
600,45.0,256.0,270.0,5.0,0.0
601,60.0,0.0,270.0,2.0,0.0
602,62.0,0.0,270.0,2.0,0.0
603,44.0,256.0,270.0,5.0,0.0
604,43.0,0.0,270.0,5.0,0.0
605,63.0,256.0,270.0,2.0,0.0
606,41.0,256.0,270.0,5.0,0.0
607,65.0,0.0,270.0,2.0,0.0
608,51.0,256.0,1020.0,3.0,0.0
609,39.0,0.0,270.0,5.0,0.0
610,67.0,256.0,270.0,2.0,0.0
611,75.0,0.0,270.0,2.0,0.0
612,46.0,256.0,270.0,5.0,0.0
613,47.0,256.0,270.0,5.0,0.0
614,74.0,0.0,270.0,2.0,0.0
615,72.0,0.0,270.0,2.0,0.0
616,48.0,0.0,270.0,5.0,0.0
617,70.0,0.0,270.0,2.0,0.0
618,49.0,256.0,270.0,5.0,0.0
619,53.0,256.0,1020.0,3.0,0.0
620,68.0,0.0,270.0,2.0,0.0
621,50.0,256.0,270.0,5.0,0.0
622,51.0,256.0,270.0,5.0,0.0
623,67.0,0.0,270.0,2.0,0.0
624,53.0,0.0,510.0,5.0,0.0
625,65.0,0.0,270.0,2.0,0.0
626,63.0,128.0,270.0,2.0,0.0
627,55.0,256.0,1020.0,3.0,0.0
628,51.0,128.0,120.0,5.0,0.0
629,60.0,0.0,270.0,2.0,0.0
630,50.0,256.0,120.0,5.0,0.0
631,59.0,256.0,270.0,2.0,0.0
632,51.0,128.0,780.0,5.0,0.0
633,58.0,0.0,270.0,2.0,0.0
634,53.0,0.0,1020.0,3.0,0.0
635,57.0,0.0,270.0,2.0,0.0
636,56.0,0.0,270.0,2.0,0.0
637,50.0,128.0,120.0,5.0,0.0
638,48.0,256.0,120.0,5.0,0.0
639,55.0,256.0,270.0,2.0,0.0
640,50.0,0.0,510.0,5.0,0.0
641,53.0,512.0,270.0,2.0,0.0
642,51.0,0.0,1020.0,3.0,0.0
643,55.0,256.0,1020.0,2.0,0.0
644,51.0,256.0,270.0,5.0,0.0
645,50.0,256.0,270.0,5.0,0.0
646,49.0,0.0,270.0,5.0,0.0
647,48.0,256.0,270.0,5.0,0.0
648,47.0,256.0,270.0,5.0,0.0
649,46.0,256.0,270.0,5.0,0.0
650,44.0,512.0,270.0,5.0,0.0
651,43.0,256.0,510.0,5.0,0.0
652,67.0,0.0,270.0,2.0,0.0
653,45.0,0.0,270.0,5.0,0.0
654,66.0,256.0,270.0,2.0,0.0
655,47.0,0.0,270.0,5.0,0.0
656,65.0,256.0,270.0,2.0,0.0
657,48.0,0.0,510.0,5.0,0.0
658,64.0,256.0,270.0,2.0,0.0
659,63.0,256.0,270.0,2.0,0.0
660,42.0,0.0,510.0,5.0,0.0
661,62.0,256.0,270.0,2.0,0.0
662,60.0,256.0,270.0,2.0,0.0
663,43.0,256.0,270.0,5.0,0.0
664,58.0,0.0,1020.0,2.0,0.0
665,46.0,256.0,270.0,5.0,0.0
666,45.0,256.0,270.0,5.0,0.0
667,44.0,256.0,270.0,5.0,0.0
668,43.0,256.0,270.0,5.0,0.0
669,58.0,512.0,1020.0,2.0,0.0
670,42.0,256.0,270.0,5.0,0.0
671,41.0,256.0,270.0,5.0,0.0
672,39.0,0.0,270.0,5.0,0.0
673,38.0,256.0,510.0,5.0,0.0
674,58.0,0.0,1020.0,2.0,0.0
675,55.0,0.0,270.0,3.0,0.0
676,54.0,0.0,270.0,3.0,0.0
677,39.0,256.0,270.0,5.0,0.0
678,41.0,256.0,270.0,5.0,0.0
679,53.0,0.0,270.0,3.0,0.0
680,52.0,0.0,270.0,3.0,0.0
681,43.0,256.0,270.0,5.0,0.0
682,55.0,256.0,1020.0,2.0,0.0
683,51.0,256.0,270.0,3.0,0.0
684,45.0,0.0,270.0,5.0,0.0
685,50.0,256.0,270.0,3.0,0.0
686,46.0,0.0,270.0,5.0,0.0
687,48.0,0.0,270.0,5.0,0.0
688,48.0,0.0,270.0,3.0,0.0
689,50.0,256.0,270.0,5.0,0.0
690,46.0,0.0,270.0,3.0,0.0
691,58.0,256.0,1020.0,2.0,0.0
692,53.0,0.0,270.0,3.0,0.0
693,46.0,256.0,270.0,5.0,0.0
694,54.0,256.0,270.0,3.0,0.0
695,45.0,0.0,270.0,5.0,0.0
696,43.0,0.0,270.0,5.0,0.0
697,55.0,0.0,270.0,3.0,0.0
698,56.0,256.0,270.0,3.0,0.0
699,41.0,0.0,270.0,5.0,0.0
700,60.0,256.0,1020.0,2.0,0.0
701,39.0,0.0,270.0,5.0,0.0
702,57.0,256.0,270.0,3.0,0.0
703,58.0,0.0,270.0,3.0,0.0
704,38.0,256.0,270.0,5.0,0.0
705,60.0,0.0,510.0,3.0,0.0
706,36.0,0.0,270.0,5.0,0.0
707,62.0,0.0,1020.0,2.0,0.0
708,34.0,128.0,270.0,5.0,0.0
709,55.0,0.0,270.0,5.0,0.0
710,58.0,128.0,120.0,3.0,0.0
711,57.0,256.0,120.0,3.0,0.0
712,58.0,128.0,780.0,3.0,0.0
713,54.0,256.0,270.0,5.0,0.0
714,53.0,256.0,270.0,5.0,0.0
715,60.0,0.0,1020.0,2.0,0.0
716,52.0,0.0,270.0,5.0,0.0
717,51.0,256.0,270.0,5.0,0.0
718,57.0,128.0,120.0,3.0,0.0
719,55.0,0.0,120.0,3.0,0.0
720,50.0,256.0,270.0,5.0,0.0
721,57.0,0.0,510.0,3.0,0.0
722,48.0,256.0,270.0,5.0,0.0
723,50.0,256.0,270.0,5.0,0.0
724,58.0,256.0,1020.0,2.0,0.0
725,58.0,0.0,270.0,3.0,0.0
726,46.0,256.0,270.0,5.0,0.0
727,48.0,0.0,270.0,5.0,0.0
728,57.0,256.0,270.0,3.0,0.0
729,56.0,0.0,270.0,3.0,0.0
730,50.0,0.0,270.0,5.0,0.0
731,55.0,256.0,270.0,3.0,0.0
732,51.0,0.0,510.0,5.0,0.0
733,54.0,256.0,270.0,3.0,0.0
734,45.0,256.0,510.0,5.0,0.0
735,53.0,256.0,270.0,3.0,0.0
736,51.0,0.0,270.0,3.0,0.0
737,50.0,256.0,270.0,3.0,0.0
738,46.0,0.0,270.0,5.0,0.0
739,48.0,0.0,270.0,5.0,0.0
740,48.0,256.0,270.0,3.0,0.0
741,47.0,0.0,270.0,5.0,0.0
742,50.0,256.0,270.0,3.0,0.0
743,52.0,256.0,270.0,3.0,0.0
744,46.0,0.0,270.0,5.0,0.0
745,45.0,256.0,270.0,5.0,0.0
746,53.0,256.0,510.0,3.0,0.0
747,44.0,0.0,270.0,5.0,0.0
748,47.0,256.0,510.0,3.0,0.0
749,43.0,256.0,270.0,5.0,0.0
750,41.0,0.0,270.0,5.0,0.0
751,39.0,256.0,510.0,5.0,0.0
752,48.0,256.0,270.0,3.0,0.0
753,39.0,0.0,1020.0,7.0,0.0
754,63.0,0.0,270.0,3.0,0.0
755,62.0,256.0,270.0,3.0,0.0
756,41.0,0.0,270.0,5.0,0.0
757,61.0,256.0,270.0,3.0,0.0
758,43.0,0.0,270.0,5.0,0.0
759,60.0,256.0,270.0,3.0,0.0
760,44.0,0.0,270.0,5.0,0.0
761,46.0,0.0,270.0,5.0,0.0
762,59.0,256.0,270.0,3.0,0.0
763,58.0,256.0,270.0,3.0,0.0
764,48.0,0.0,270.0,5.0,0.0
765,56.0,0.0,270.0,3.0,0.0
766,50.0,0.0,270.0,5.0,0.0
767,51.0,256.0,270.0,5.0,0.0
768,39.0,256.0,15.0,7.0,0.0
769,55.0,256.0,510.0,3.0,0.0
770,48.0,0.0,270.0,5.0,0.0
771,56.0,0.0,270.0,3.0,0.0
772,47.0,256.0,270.0,5.0,0.0
773,58.0,256.0,270.0,3.0,0.0
774,46.0,0.0,270.0,5.0,0.0
775,36.0,0.0,1020.0,7.0,0.0
776,45.0,0.0,270.0,5.0,0.0
777,60.0,256.0,270.0,3.0,0.0
778,62.0,256.0,270.0,3.0,0.0
779,44.0,0.0,270.0,5.0,0.0
780,63.0,256.0,270.0,3.0,0.0
781,43.0,0.0,270.0,5.0,0.0
782,41.0,0.0,270.0,5.0,0.0
783,65.0,256.0,270.0,3.0,0.0
784,39.0,256.0,270.0,5.0,0.0
785,39.0,256.0,1020.0,7.0,0.0
786,67.0,0.0,270.0,3.0,0.0
787,75.0,256.0,270.0,3.0,0.0
788,46.0,0.0,270.0,5.0,0.0
789,74.0,256.0,270.0,3.0,0.0
790,47.0,0.0,270.0,5.0,0.0
791,72.0,0.0,270.0,3.0,0.0
792,48.0,0.0,270.0,5.0,0.0
793,70.0,0.0,270.0,3.0,0.0
794,49.0,256.0,270.0,5.0,0.0
795,41.0,0.0,1020.0,7.0,0.0
796,50.0,0.0,270.0,5.0,0.0
797,68.0,256.0,270.0,3.0,0.0
798,51.0,256.0,270.0,5.0,0.0
799,67.0,0.0,270.0,3.0,0.0
800,53.0,128.0,510.0,5.0,0.0
801,65.0,256.0,270.0,3.0,0.0
802,63.0,0.0,270.0,3.0,0.0
803,43.0,256.0,1020.0,7.0,0.0
804,51.0,128.0,120.0,5.0,0.0
805,60.0,256.0,270.0,3.0,0.0
806,50.0,0.0,120.0,5.0,0.0
807,59.0,256.0,270.0,3.0,0.0
808,51.0,0.0,780.0,5.0,0.0
809,58.0,0.0,270.0,3.0,0.0
810,57.0,128.0,270.0,3.0,0.0
811,41.0,0.0,1020.0,7.0,0.0
812,50.0,128.0,120.0,5.0,0.0
813,56.0,256.0,270.0,3.0,0.0
814,48.0,0.0,120.0,5.0,0.0
815,50.0,0.0,510.0,5.0,0.0
816,55.0,256.0,270.0,3.0,0.0
817,53.0,512.0,270.0,3.0,0.0
818,63.0,0.0,1020.0,2.0,0.0
819,39.0,0.0,13320.0,7.0,0.0
820,55.0,256.0,510.0,3.0,0.0
821,51.0,0.0,270.0,5.0,0.0
822,53.0,0.0,270.0,3.0,0.0
823,50.0,256.0,270.0,5.0,0.0
824,55.0,256.0,270.0,3.0,0.0
825,49.0,0.0,270.0,5.0,0.0
826,48.0,256.0,270.0,5.0,0.0
827,56.0,0.0,270.0,3.0,0.0
828,63.0,0.0,1020.0,2.0,0.0
829,58.0,256.0,270.0,3.0,0.0
830,47.0,0.0,270.0,5.0,0.0
831,46.0,256.0,270.0,5.0,0.0
832,60.0,0.0,270.0,3.0,0.0
833,44.0,0.0,270.0,5.0,0.0
834,62.0,256.0,270.0,3.0,0.0
835,43.0,256.0,510.0,5.0,0.0
836,63.0,256.0,270.0,3.0,0.0
837,63.0,256.0,1020.0,2.0,0.0
838,60.0,0.0,270.0,3.0,0.0
839,44.0,0.0,270.0,5.0,0.0
840,59.0,256.0,270.0,3.0,0.0
841,58.0,0.0,270.0,3.0,0.0
842,46.0,0.0,270.0,5.0,0.0
843,57.0,256.0,270.0,3.0,0.0
844,60.0,0.0,1020.0,2.0,0.0
845,48.0,0.0,270.0,5.0,0.0
846,56.0,256.0,270.0,3.0,0.0
847,50.0,0.0,270.0,5.0,0.0
848,55.0,0.0,270.0,3.0,0.0
849,51.0,256.0,270.0,5.0,0.0
850,53.0,256.0,270.0,5.0,0.0
851,53.0,0.0,270.0,3.0,0.0
852,63.0,0.0,1020.0,2.0,0.0
853,55.0,256.0,270.0,5.0,0.0
854,51.0,0.0,270.0,3.0,0.0
855,58.0,256.0,270.0,3.0,0.0
856,51.0,0.0,270.0,5.0,0.0
857,50.0,0.0,270.0,5.0,0.0
858,59.0,256.0,270.0,3.0,0.0
859,48.0,0.0,270.0,5.0,0.0
860,60.0,256.0,270.0,3.0,0.0
861,65.0,0.0,1020.0,2.0,0.0
862,61.0,0.0,270.0,3.0,0.0
863,46.0,256.0,270.0,5.0,0.0
864,62.0,0.0,270.0,3.0,0.0
865,44.0,256.0,270.0,5.0,0.0
866,43.0,256.0,270.0,5.0,0.0
867,63.0,0.0,270.0,3.0,0.0
868,65.0,128.0,510.0,3.0,0.0
869,41.0,256.0,270.0,5.0,0.0
870,67.0,256.0,1020.0,2.0,0.0
871,39.0,0.0,270.0,5.0,0.0
872,60.0,0.0,270.0,5.0,0.0
873,63.0,128.0,120.0,3.0,0.0
874,62.0,256.0,120.0,3.0,0.0
875,63.0,0.0,780.0,3.0,0.0
876,59.0,256.0,270.0,5.0,0.0
877,58.0,0.0,270.0,5.0,0.0
878,57.0,128.0,270.0,5.0,0.0
879,65.0,0.0,1020.0,2.0,0.0
880,56.0,256.0,270.0,5.0,0.0
881,62.0,128.0,120.0,3.0,0.0
882,60.0,0.0,120.0,3.0,0.0
883,62.0,256.0,510.0,3.0,0.0
884,55.0,256.0,270.0,5.0,0.0
885,53.0,0.0,270.0,5.0,0.0
886,55.0,256.0,270.0,5.0,0.0
887,63.0,0.0,270.0,2.0,0.0
888,63.0,0.0,510.0,3.0,0.0
889,75.0,256.0,270.0,2.0,0.0
890,51.0,0.0,270.0,5.0,0.0
891,53.0,0.0,270.0,5.0,0.0
892,74.0,256.0,270.0,2.0,0.0
893,55.0,0.0,270.0,5.0,0.0
894,73.0,256.0,270.0,2.0,0.0
895,56.0,256.0,270.0,5.0,0.0
896,72.0,0.0,270.0,2.0,0.0
897,71.0,0.0,270.0,2.0,0.0
898,58.0,256.0,270.0,5.0,0.0
899,70.0,256.0,270.0,2.0,0.0
900,60.0,0.0,270.0,5.0,0.0
901,68.0,0.0,270.0,2.0,0.0
902,62.0,256.0,270.0,5.0,0.0
903,63.0,0.0,1020.0,5.0,0.0
904,67.0,256.0,270.0,2.0,0.0
905,43.0,0.0,270.0,6.0,0.0
906,46.0,0.0,270.0,6.0,0.0
907,71.0,256.0,270.0,2.0,0.0
908,63.0,0.0,270.0,3.0,0.0
909,71.0,0.0,270.0,2.0,0.0
910,44.0,256.0,270.0,6.0,0.0
911,47.0,0.0,270.0,6.0,0.0
912,62.0,0.0,270.0,3.0,0.0
913,70.0,0.0,270.0,2.0,0.0
914,61.0,0.0,270.0,3.0,0.0
915,46.0,0.0,270.0,6.0,0.0
916,49.0,256.0,270.0,6.0,0.0
917,60.0,0.0,270.0,3.0,0.0
918,69.0,256.0,270.0,2.0,0.0
919,48.0,0.0,270.0,6.0,0.0
920,51.0,0.0,270.0,6.0,0.0
921,53.0,256.0,270.0,6.0,0.0
922,68.0,0.0,270.0,2.0,0.0
923,59.0,0.0,270.0,3.0,0.0
924,50.0,0.0,270.0,6.0,0.0
925,67.0,0.0,270.0,2.0,0.0
926,58.0,0.0,270.0,3.0,0.0
927,51.0,0.0,270.0,6.0,0.0
928,55.0,256.0,270.0,6.0,0.0
929,56.0,0.0,270.0,3.0,0.0
930,53.0,0.0,270.0,6.0,0.0
931,65.0,1024.0,270.0,2.0,0.0
932,56.0,0.0,270.0,6.0,0.0
933,55.0,0.0,1020.0,6.0,0.0
934,63.0,0.0,1020.0,2.0,0.0
935,55.0,0.0,1020.0,3.0,0.0
936,58.0,256.0,1020.0,6.0,0.0
937,60.0,256.0,1020.0,6.0,0.0
938,63.0,128.0,120.0,5.0,0.0
939,65.0,128.0,120.0,5.0,0.0
940,67.0,512.0,120.0,5.0,0.0
941,68.0,256.0,780.0,5.0,0.0
942,75.0,0.0,270.0,3.0,0.0
943,74.0,256.0,780.0,3.0,0.0
944,58.0,256.0,510.0,6.0,0.0
945,67.0,0.0,270.0,5.0,0.0
946,65.0,256.0,780.0,5.0,0.0
947,56.0,0.0,510.0,6.0,0.0
948,72.0,256.0,270.0,3.0,0.0
949,55.0,0.0,510.0,6.0,0.0
950,70.0,256.0,780.0,3.0,0.0
951,63.0,256.0,270.0,5.0,0.0
952,53.0,128.0,510.0,6.0,0.0
953,62.0,128.0,630.0,5.0,0.0
954,68.0,0.0,270.0,3.0,0.0
955,67.0,128.0,630.0,3.0,0.0
956,51.0,256.0,1020.0,6.0,0.0
957,55.0,128.0,120.0,5.0,0.0
958,57.0,128.0,120.0,5.0,0.0
959,59.0,128.0,120.0,5.0,0.0
960,60.0,0.0,780.0,5.0,0.0
961,63.0,128.0,120.0,3.0,0.0
962,65.0,128.0,120.0,3.0,0.0
963,67.0,0.0,120.0,3.0,0.0
964,68.0,256.0,270.0,3.0,0.0
965,53.0,0.0,1020.0,6.0,0.0
966,63.0,256.0,270.0,5.0,0.0
967,67.0,0.0,270.0,3.0,0.0
968,65.0,0.0,1020.0,3.0,0.0
969,62.0,256.0,270.0,5.0,0.0
970,60.0,256.0,270.0,5.0,0.0
971,55.0,0.0,1020.0,6.0,0.0
972,58.0,256.0,270.0,5.0,0.0
973,62.0,256.0,270.0,5.0,0.0
974,63.0,256.0,1020.0,3.0,0.0
975,60.0,256.0,270.0,5.0,0.0
976,58.0,256.0,270.0,5.0,0.0
977,53.0,256.0,1020.0,6.0,0.0
978,57.0,256.0,270.0,5.0,0.0
979,60.0,0.0,270.0,5.0,0.0
980,58.0,256.0,270.0,5.0,0.0
981,62.0,256.0,1020.0,3.0,0.0
982,56.0,0.0,270.0,5.0,0.0
983,55.0,256.0,270.0,5.0,0.0
984,51.0,0.0,1020.0,6.0,0.0
985,58.0,0.0,270.0,5.0,0.0
986,60.0,0.0,1020.0,3.0,0.0
987,56.0,256.0,270.0,5.0,0.0
988,55.0,256.0,270.0,5.0,0.0
989,50.0,256.0,1020.0,6.0,0.0
990,53.0,256.0,270.0,5.0,0.0
991,56.0,256.0,270.0,5.0,0.0
992,59.0,0.0,510.0,3.0,0.0
993,55.0,256.0,270.0,5.0,0.0
994,53.0,0.0,270.0,5.0,0.0
995,51.0,256.0,270.0,5.0,0.0
996,48.0,0.0,1020.0,6.0,0.0
997,60.0,512.0,1020.0,3.0,0.0
998,53.0,256.0,270.0,5.0,0.0
999,51.0,256.0,270.0,5.0,0.0
1000,50.0,0.0,270.0,5.0,0.0
1001,48.0,256.0,1020.0,5.0,0.0
1002,51.0,0.0,270.0,6.0,0.0
1003,60.0,256.0,270.0,3.0,0.0
1004,62.0,256.0,270.0,3.0,0.0
1005,50.0,0.0,270.0,6.0,0.0
1006,48.0,0.0,270.0,6.0,0.0
1007,63.0,0.0,270.0,3.0,0.0
1008,46.0,256.0,270.0,6.0,0.0
1009,65.0,128.0,1020.0,3.0,0.0
1010,44.0,256.0,270.0,6.0,0.0
1011,43.0,256.0,270.0,6.0,0.0
1012,41.0,0.0,270.0,6.0,0.0
1013,67.0,256.0,1020.0,3.0,0.0
1014,39.0,128.0,120.0,6.0,0.0
1015,46.0,128.0,120.0,6.0,0.0
1016,48.0,128.0,120.0,6.0,0.0
1017,50.0,512.0,120.0,6.0,0.0
1018,51.0,256.0,780.0,6.0,0.0
1019,58.0,0.0,270.0,5.0,0.0
1020,57.0,256.0,780.0,5.0,0.0
1021,65.0,256.0,510.0,3.0,0.0
1022,50.0,0.0,270.0,6.0,0.0
1023,48.0,256.0,780.0,6.0,0.0
1024,63.0,0.0,510.0,3.0,0.0
1025,55.0,256.0,270.0,5.0,0.0
1026,62.0,256.0,510.0,3.0,0.0
1027,53.0,256.0,780.0,5.0,0.0
1028,46.0,0.0,270.0,6.0,0.0
1029,45.0,128.0,630.0,6.0,0.0
1030,60.0,0.0,510.0,3.0,0.0
1031,51.0,128.0,270.0,5.0,0.0
1032,58.0,256.0,1020.0,3.0,0.0
1033,50.0,128.0,630.0,5.0,0.0
1034,38.0,128.0,120.0,6.0,0.0
1035,40.0,128.0,120.0,6.0,0.0
1036,42.0,128.0,120.0,6.0,0.0
1037,43.0,0.0,780.0,6.0,0.0
1038,58.0,128.0,120.0,5.0,0.0
1039,60.0,128.0,120.0,5.0,0.0
1040,62.0,0.0,120.0,5.0,0.0
1041,63.0,256.0,270.0,5.0,0.0
1042,60.0,256.0,1020.0,3.0,0.0
1043,62.0,256.0,270.0,5.0,0.0
1044,46.0,0.0,270.0,6.0,0.0
1045,45.0,256.0,270.0,6.0,0.0
1046,60.0,256.0,1020.0,5.0,0.0
1047,43.0,0.0,270.0,6.0,0.0
1048,41.0,256.0,270.0,6.0,0.0
1049,62.0,256.0,1020.0,3.0,0.0
1050,44.0,0.0,270.0,6.0,0.0
1051,58.0,0.0,1020.0,5.0,0.0
1052,43.0,256.0,270.0,6.0,0.0
1053,41.0,0.0,270.0,6.0,0.0
1054,40.0,256.0,270.0,6.0,0.0
1055,60.0,256.0,1020.0,3.0,0.0
1056,43.0,256.0,270.0,6.0,0.0
1057,57.0,0.0,1020.0,5.0,0.0
1058,41.0,256.0,270.0,6.0,0.0
1059,39.0,0.0,270.0,6.0,0.0
1060,38.0,256.0,270.0,6.0,0.0
1061,58.0,0.0,1020.0,3.0,0.0
1062,41.0,256.0,270.0,6.0,0.0
1063,55.0,0.0,1020.0,5.0,0.0
1064,39.0,256.0,270.0,6.0,0.0
1065,38.0,256.0,270.0,6.0,0.0
1066,57.0,0.0,1020.0,3.0,0.0
1067,36.0,256.0,270.0,6.0,0.0
1068,39.0,256.0,270.0,6.0,0.0
1069,38.0,256.0,270.0,6.0,0.0
1070,54.0,256.0,510.0,5.0,0.0
1071,36.0,0.0,270.0,6.0,0.0
1072,55.0,0.0,270.0,5.0,0.0
1073,34.0,256.0,270.0,6.0,0.0
1074,55.0,0.0,1020.0,3.0,0.0
1075,48.0,256.0,270.0,6.0,0.0
1076,51.0,0.0,270.0,5.0,0.0
1077,46.0,0.0,270.0,6.0,0.0
1078,50.0,256.0,270.0,5.0,0.0
1079,45.0,0.0,270.0,6.0,0.0
1080,48.0,256.0,270.0,5.0,0.0
1081,46.0,256.0,270.0,5.0,0.0
1082,43.0,0.0,510.0,6.0,0.0
1083,58.0,0.0,270.0,3.0,0.0
1084,55.0,256.0,270.0,5.0,0.0
1085,56.0,0.0,270.0,3.0,0.0
1086,44.0,0.0,510.0,6.0,0.0
1087,53.0,256.0,270.0,5.0,0.0
1088,55.0,0.0,270.0,3.0,0.0
1089,51.0,256.0,270.0,5.0,0.0
1090,46.0,0.0,510.0,6.0,0.0
1091,46.0,128.0,1020.0,7.0,0.0
1092,50.0,128.0,510.0,5.0,0.0
1093,53.0,128.0,270.0,3.0,0.0
1094,55.0,128.0,120.0,3.0,0.0
1095,56.0,0.0,120.0,3.0,0.0
1096,58.0,128.0,120.0,3.0,0.0
1097,58.0,128.0,120.0,5.0,0.0
1098,60.0,128.0,120.0,5.0,0.0
1099,62.0,0.0,120.0,5.0,0.0
1100,63.0,128.0,120.0,5.0,0.0
1101,48.0,0.0,1020.0,7.0,0.0
1102,63.0,128.0,120.0,3.0,0.0
1103,65.0,128.0,120.0,3.0,0.0
1104,67.0,512.0,120.0,3.0,0.0
1105,68.0,256.0,780.0,3.0,0.0
1106,63.0,256.0,270.0,5.0,0.0
1107,46.0,256.0,510.0,7.0,0.0
1108,62.0,256.0,780.0,5.0,0.0
1109,67.0,0.0,270.0,3.0,0.0
1110,44.0,0.0,510.0,7.0,0.0
1111,65.0,256.0,780.0,3.0,0.0
1112,60.0,256.0,270.0,5.0,0.0
1113,58.0,256.0,780.0,5.0,0.0
1114,43.0,256.0,510.0,7.0,0.0
1115,63.0,0.0,270.0,3.0,0.0
1116,62.0,128.0,630.0,3.0,0.0
1117,41.0,0.0,510.0,7.0,0.0
1118,56.0,128.0,270.0,5.0,0.0
1119,39.0,256.0,1020.0,7.0,0.0
1120,55.0,128.0,630.0,5.0,0.0
1121,55.0,128.0,120.0,3.0,0.0
1122,57.0,128.0,120.0,3.0,0.0
1123,59.0,128.0,120.0,3.0,0.0
1124,60.0,256.0,780.0,3.0,0.0
1125,51.0,128.0,120.0,5.0,0.0
1126,53.0,128.0,120.0,5.0,0.0
1127,55.0,0.0,120.0,5.0,0.0
1128,56.0,0.0,270.0,5.0,0.0
1129,41.0,0.0,1020.0,7.0,0.0
1130,55.0,0.0,270.0,5.0,0.0
1131,63.0,256.0,270.0,3.0,0.0
1132,53.0,256.0,1020.0,5.0,0.0
1133,62.0,256.0,270.0,3.0,0.0
1134,60.0,256.0,270.0,3.0,0.0
1135,59.0,256.0,270.0,3.0,0.0
1136,43.0,256.0,1020.0,7.0,0.0
1137,62.0,0.0,270.0,3.0,0.0
1138,51.0,0.0,1020.0,5.0,0.0
1139,60.0,256.0,270.0,3.0,0.0
1140,58.0,0.0,270.0,3.0,0.0
1141,57.0,256.0,270.0,3.0,0.0
1142,41.0,256.0,1020.0,7.0,0.0
1143,60.0,256.0,270.0,3.0,0.0
1144,58.0,256.0,270.0,3.0,0.0
1145,50.0,256.0,1020.0,5.0,0.0
1146,56.0,0.0,270.0,3.0,0.0
1147,39.0,0.0,1020.0,7.0,0.0
1148,55.0,256.0,270.0,3.0,0.0
1149,58.0,0.0,270.0,3.0,0.0
1150,56.0,256.0,270.0,3.0,0.0
1151,48.0,0.0,1020.0,5.0,0.0
1152,55.0,256.0,270.0,3.0,0.0
1153,53.0,256.0,270.0,3.0,0.0
1154,38.0,256.0,1020.0,7.0,0.0
1155,56.0,256.0,270.0,3.0,0.0
1156,55.0,256.0,270.0,3.0,0.0
1157,47.0,0.0,510.0,5.0,0.0
1158,53.0,0.0,270.0,3.0,0.0
1159,36.0,256.0,510.0,7.0,0.0
1160,51.0,256.0,270.0,3.0,0.0
1161,48.0,0.0,510.0,5.0,0.0
1162,53.0,0.0,270.0,3.0,0.0
1163,51.0,256.0,270.0,3.0,0.0
1164,38.0,0.0,510.0,7.0,0.0
1165,50.0,256.0,270.0,3.0,0.0
1166,39.0,256.0,510.0,7.0,0.0
1167,48.0,256.0,270.0,3.0,0.0
1168,63.0,0.0,270.0,3.0,0.0
1169,55.0,0.0,270.0,5.0,0.0
1170,62.0,0.0,270.0,3.0,0.0
1171,41.0,0.0,510.0,7.0,0.0
1172,53.0,256.0,270.0,5.0,0.0
1173,60.0,128.0,270.0,3.0,0.0
1174,51.0,0.0,270.0,5.0,0.0
1175,58.0,128.0,120.0,5.0,0.0
1176,50.0,0.0,510.0,6.0,0.0
1177,70.0,0.0,1020.0,2.0,0.0
1178,43.0,128.0,1020.0,7.0,0.0
1179,68.0,128.0,120.0,5.0,0.0
1180,67.0,128.0,120.0,5.0,0.0
1181,65.0,128.0,120.0,5.0,0.0
1182,51.0,128.0,120.0,6.0,0.0
1183,63.0,0.0,630.0,5.0,0.0
1184,61.0,128.0,120.0,6.0,0.0
1185,60.0,128.0,120.0,6.0,0.0
1186,58.0,0.0,120.0,6.0,0.0
1187,44.0,256.0,1020.0,7.0,0.0
1188,56.0,128.0,120.0,6.0,0.0
1189,72.0,0.0,1020.0,2.0,0.0
1190,63.0,128.0,120.0,5.0,0.0
1191,60.0,0.0,120.0,6.0,0.0
1192,62.0,128.0,120.0,6.0,0.0
1193,65.0,0.0,120.0,5.0,0.0
1194,63.0,0.0,120.0,6.0,0.0
1195,67.0,256.0,120.0,5.0,0.0
1196,68.0,256.0,780.0,5.0,0.0
1197,65.0,256.0,270.0,6.0,0.0
1198,63.0,0.0,270.0,6.0,0.0
1199,62.0,256.0,780.0,6.0,0.0
1200,70.0,256.0,510.0,2.0,0.0
1201,46.0,0.0,2040.0,7.0,0.0
1202,67.0,0.0,270.0,5.0,0.0
1203,65.0,256.0,780.0,5.0,0.0
1204,68.0,0.0,510.0,2.0,0.0
1205,60.0,256.0,270.0,6.0,0.0
1206,67.0,256.0,510.0,2.0,0.0
1207,58.0,256.0,780.0,6.0,0.0
1208,63.0,0.0,270.0,5.0,0.0
1209,62.0,128.0,630.0,5.0,0.0
1210,65.0,0.0,510.0,2.0,0.0
1211,56.0,128.0,270.0,6.0,0.0
1212,48.0,0.0,510.0,7.0,0.0
1213,55.0,128.0,630.0,6.0,0.0
1214,63.0,0.0,1020.0,2.0,0.0
1215,55.0,128.0,120.0,5.0,0.0
1216,57.0,128.0,120.0,5.0,0.0
1217,59.0,128.0,120.0,5.0,0.0
1218,46.0,256.0,510.0,7.0,0.0
1219,60.0,256.0,780.0,5.0,0.0
1220,51.0,128.0,120.0,6.0,0.0
1221,53.0,128.0,120.0,6.0,0.0
1222,55.0,0.0,120.0,6.0,0.0
1223,44.0,0.0,1020.0,7.0,0.0
1224,65.0,0.0,1020.0,2.0,0.0
1225,56.0,0.0,270.0,6.0,0.0
1226,55.0,256.0,270.0,6.0,0.0
1227,63.0,0.0,270.0,5.0,0.0
1228,62.0,256.0,270.0,5.0,0.0
1229,53.0,256.0,1020.0,6.0,0.0
1230,60.0,256.0,270.0,5.0,0.0
1231,67.0,0.0,1020.0,2.0,0.0
1232,59.0,256.0,270.0,5.0,0.0
1233,43.0,0.0,4110.0,7.0,0.0
1234,62.0,0.0,270.0,5.0,0.0
1235,51.0,0.0,1020.0,6.0,0.0
1236,60.0,256.0,270.0,5.0,0.0
1237,58.0,256.0,270.0,5.0,0.0
1238,57.0,256.0,270.0,5.0,0.0
1239,65.0,256.0,1020.0,2.0,0.0
1240,60.0,256.0,270.0,5.0,0.0
1241,50.0,0.0,1020.0,6.0,0.0
1242,58.0,256.0,270.0,5.0,0.0
1243,56.0,0.0,270.0,5.0,0.0
1244,63.0,0.0,1020.0,2.0,0.0
1245,55.0,256.0,270.0,5.0,0.0
1246,58.0,256.0,270.0,5.0,0.0
1247,56.0,256.0,270.0,5.0,0.0
1248,48.0,0.0,1020.0,6.0,0.0
1249,55.0,256.0,270.0,5.0,0.0
1250,62.0,128.0,1020.0,2.0,0.0
1251,53.0,256.0,270.0,5.0,0.0
1252,56.0,256.0,270.0,5.0,0.0
1253,55.0,256.0,270.0,5.0,0.0
1254,46.0,128.0,630.0,6.0,0.0
1255,53.0,0.0,270.0,5.0,0.0
1256,36.0,0.0,14340.0,7.0,0.0
1257,52.0,256.0,1290.0,5.0,0.0
1258,60.0,128.0,2190.0,2.0,0.0
1259,43.0,128.0,120.0,6.0,0.0
1260,44.0,128.0,120.0,6.0,0.0
1261,46.0,256.0,120.0,6.0,0.0
1262,48.0,256.0,270.0,6.0,0.0
1263,46.0,256.0,270.0,6.0,0.0
1264,45.0,0.0,510.0,6.0,0.0
1265,48.0,512.0,270.0,5.0,0.0
1266,44.0,128.0,510.0,6.0,0.0
1267,53.0,0.0,1020.0,5.0,0.0
1268,69.0,0.0,510.0,1.0,0.0
1269,48.0,0.0,510.0,6.0,0.0
1270,43.0,0.0,1020.0,7.0,0.0
1271,55.0,128.0,120.0,2.0,0.0
1272,56.0,128.0,120.0,2.0,0.0
1273,58.0,256.0,120.0,2.0,0.0
1274,52.0,0.0,510.0,5.0,0.0
1275,68.0,512.0,510.0,1.0,0.0
1276,60.0,256.0,270.0,2.0,0.0
1277,58.0,0.0,270.0,2.0,0.0
1278,41.0,256.0,1020.0,7.0,0.0
1279,53.0,0.0,1020.0,5.0,0.0
1280,57.0,512.0,510.0,4.0,0.0
1281,60.0,0.0,270.0,2.0,0.0
1282,65.0,256.0,1020.0,2.0,0.0
1283,56.0,0.0,510.0,4.0,0.0
1284,60.0,0.0,2040.0,4.0,0.0
1285,48.0,0.0,10230.0,7.0,0.0
1286,55.0,0.0,1020.0,5.0,0.0
1287,67.0,128.0,120.0,0.0,0.0
1288,68.0,128.0,120.0,0.0,0.0
1289,70.0,0.0,120.0,0.0,0.0
1290,72.0,256.0,270.0,0.0,0.0
1291,64.0,0.0,510.0,2.0,0.0
1292,70.0,512.0,270.0,0.0,0.0
1293,65.0,256.0,1800.0,2.0,0.0
1294,53.0,128.0,1140.0,5.0,0.0
1295,72.0,256.0,270.0,0.0,0.0
1296,77.0,256.0,270.0,0.0,0.0
1297,71.0,128.0,270.0,0.0,0.0
1298,72.0,256.0,3840.0,0.0,0.0
1299,68.0,0.0,780.0,1.0,0.0
1300,55.0,128.0,120.0,5.0,0.0
1301,56.0,128.0,120.0,5.0,0.0
1302,58.0,256.0,120.0,5.0,0.0
1303,60.0,0.0,270.0,5.0,0.0
1304,55.0,0.0,270.0,5.0,0.0
1305,70.0,256.0,270.0,1.0,0.0
1306,64.0,0.0,270.0,2.0,0.0
1307,68.0,128.0,1410.0,1.0,0.0
1308,56.0,256.0,270.0,5.0,0.0
1309,65.0,128.0,1140.0,2.0,0.0
1310,52.0,512.0,270.0,5.0,0.0
1311,53.0,4096.0,2550.0,5.0,0.0
1312,47.0,128.0,270.0,6.0,0.0
1313,48.0,0.0,6150.0,6.0,0.0
1314,64.0,128.0,120.0,2.0,0.0
1315,65.0,256.0,510.0,2.0,0.0
1316,67.0,256.0,120.0,1.0,0.0
1317,68.0,0.0,1530.0,1.0,0.0
1318,64.0,512.0,270.0,2.0,0.0
1319,65.0,0.0,1020.0,2.0,0.0
1320,59.0,256.0,270.0,4.0,0.0
1321,60.0,0.0,4620.0,4.0,0.0
1322,71.0,0.0,270.0,0.0,0.0
1323,67.0,0.0,4110.0,1.0,0.0
1324,64.0,0.0,4110.0,2.0,0.0
1325,72.0,0.0,4110.0,0.0,0.0
1326,55.0,0.0,4110.0,5.0,0.0
