,note,step,duration,channel,velocity
0,48.0,512.0,1020.0,4.0,0.0
1,72.0,512.0,510.0,0.0,0.0
2,67.0,0.0,510.0,0.0,0.0
3,72.0,512.0,510.0,0.0,0.0
4,51.0,0.0,1020.0,4.0,0.0
5,75.0,512.0,510.0,0.0,0.0
6,47.0,0.0,1020.0,4.0,0.0
7,79.0,512.0,510.0,0.0,0.0
8,74.0,512.0,510.0,0.0,0.0
9,48.0,0.0,1020.0,4.0,0.0
10,75.0,0.0,1530.0,0.0,0.0
11,67.0,512.0,510.0,1.0,0.0
12,60.0,512.0,510.0,1.0,0.0
13,36.0,0.0,1020.0,4.0,0.0
14,63.0,512.0,510.0,1.0,0.0
15,67.0,512.0,510.0,1.0,0.0
16,74.0,0.0,510.0,0.0,0.0
17,72.0,0.0,510.0,1.0,0.0
18,75.0,512.0,510.0,0.0,0.0
19,69.0,0.0,510.0,1.0,0.0
20,72.0,512.0,510.0,0.0,0.0
21,55.0,512.0,510.0,4.0,0.0
22,70.0,512.0,1530.0,1.0,0.0
23,74.0,0.0,510.0,0.0,0.0
24,43.0,512.0,510.0,4.0,0.0
25,76.0,0.0,510.0,0.0,0.0
26,48.0,0.0,510.0,4.0,0.0
27,76.0,256.0,1530.0,0.0,0.0
28,68.0,0.0,510.0,1.0,0.0
29,52.0,512.0,510.0,4.0,0.0
30,70.0,0.0,510.0,1.0,0.0
31,55.0,0.0,510.0,4.0,0.0
32,48.0,512.0,510.0,4.0,0.0
33,67.0,0.0,510.0,1.0,0.0
34,74.0,256.0,270.0,0.0,0.0
35,76.0,0.0,270.0,0.0,0.0
36,77.0,512.0,3570.0,0.0,0.0
37,69.0,512.0,510.0,1.0,0.0
38,53.0,0.0,510.0,4.0,0.0
39,51.0,0.0,510.0,4.0,0.0
40,50.0,512.0,510.0,4.0,0.0
41,71.0,512.0,15.0,1.0,0.0
42,48.0,512.0,510.0,4.0,0.0
43,50.0,0.0,510.0,4.0,0.0
44,69.0,256.0,270.0,1.0,0.0
45,55.0,512.0,510.0,4.0,0.0
46,71.0,0.0,270.0,1.0,0.0
47,72.0,256.0,2310.0,1.0,0.0
48,48.0,0.0,1020.0,4.0,0.0
49,75.0,512.0,510.0,0.0,0.0
50,80.0,512.0,510.0,0.0,0.0
51,41.0,256.0,1020.0,4.0,0.0
52,77.0,0.0,510.0,0.0,0.0
53,72.0,256.0,510.0,0.0,0.0
54,44.0,0.0,1020.0,4.0,0.0
55,70.0,0.0,270.0,1.0,0.0
56,68.0,256.0,270.0,1.0,0.0
57,75.0,0.0,1020.0,0.0,0.0
58,67.0,512.0,270.0,1.0,0.0
59,46.0,0.0,1020.0,4.0,0.0
60,65.0,256.0,510.0,1.0,0.0
61,74.0,512.0,510.0,0.0,0.0
62,67.0,256.0,270.0,1.0,0.0
63,68.0,0.0,270.0,1.0,0.0
64,39.0,0.0,1020.0,4.0,0.0
65,79.0,512.0,510.0,0.0,0.0
66,70.0,256.0,1290.0,1.0,0.0
67,75.0,256.0,510.0,0.0,0.0
68,43.0,0.0,1020.0,4.0,0.0
69,70.0,256.0,510.0,0.0,0.0
70,68.0,0.0,270.0,1.0,0.0
71,67.0,256.0,270.0,1.0,0.0
72,73.0,0.0,1020.0,0.0,0.0
73,65.0,512.0,270.0,1.0,0.0
74,63.0,256.0,510.0,1.0,0.0
75,44.0,0.0,1020.0,4.0,0.0
76,65.0,256.0,270.0,1.0,0.0
77,72.0,0.0,510.0,0.0,0.0
78,67.0,512.0,270.0,1.0,0.0
79,71.0,0.0,1530.0,0.0,0.0
80,68.0,512.0,510.0,1.0,0.0
81,38.0,512.0,1020.0,4.0,0.0
82,65.0,0.0,510.0,1.0,0.0
83,43.0,0.0,1020.0,4.0,0.0
84,62.0,512.0,510.0,1.0,0.0
85,72.0,512.0,510.0,0.0,0.0
86,67.0,512.0,1020.0,1.0,0.0
87,39.0,0.0,510.0,4.0,0.0
88,72.0,0.0,510.0,0.0,0.0
89,68.0,0.0,510.0,0.0,0.0
90,41.0,512.0,510.0,4.0,0.0
91,65.0,0.0,510.0,1.0,0.0
92,63.0,0.0,510.0,1.0,0.0
93,67.0,512.0,510.0,0.0,0.0
94,75.0,512.0,510.0,0.0,0.0
95,60.0,0.0,510.0,1.0,0.0
96,59.0,256.0,510.0,1.0,0.0
97,43.0,0.0,15.0,4.0,0.0
98,74.0,0.0,510.0,0.0,0.0
99,67.0,0.0,510.0,1.0,0.0
100,72.0,256.0,270.0,0.0,0.0
101,71.0,512.0,270.0,0.0,0.0
102,48.0,512.0,510.0,4.0,0.0
103,72.0,0.0,1020.0,0.0,0.0
104,48.0,0.0,1020.0,3.0,0.0
105,63.0,0.0,1020.0,1.0,0.0
106,43.0,512.0,510.0,4.0,0.0
107,48.0,0.0,1020.0,3.0,0.0
108,48.0,512.0,510.0,4.0,0.0
109,51.0,512.0,510.0,4.0,0.0
110,47.0,512.0,510.0,4.0,0.0
111,55.0,0.0,1020.0,3.0,0.0
112,43.0,1024.0,510.0,4.0,0.0
113,51.0,512.0,1530.0,3.0,0.0
114,67.0,512.0,1020.0,2.0,0.0
115,48.0,0.0,1020.0,4.0,0.0
116,36.0,512.0,1020.0,4.0,0.0
117,67.0,0.0,1020.0,2.0,0.0
118,50.0,0.0,510.0,3.0,0.0
119,51.0,512.0,510.0,3.0,0.0
120,72.0,0.0,1020.0,2.0,0.0
121,48.0,512.0,510.0,3.0,0.0
122,55.0,512.0,510.0,4.0,0.0
123,50.0,0.0,1020.0,3.0,0.0
124,70.0,512.0,1530.0,2.0,0.0
125,43.0,512.0,510.0,4.0,0.0
126,52.0,0.0,510.0,3.0,0.0
127,48.0,0.0,510.0,4.0,0.0
128,53.0,0.0,510.0,3.0,0.0
129,68.0,512.0,510.0,2.0,0.0
130,52.0,0.0,510.0,4.0,0.0
131,55.0,512.0,510.0,4.0,0.0
132,50.0,0.0,510.0,3.0,0.0
133,70.0,0.0,510.0,2.0,0.0
134,52.0,0.0,510.0,3.0,0.0
135,67.0,1024.0,510.0,2.0,0.0
136,48.0,0.0,510.0,4.0,0.0
137,53.0,0.0,1020.0,3.0,0.0
138,68.0,0.0,1020.0,2.0,0.0
139,53.0,0.0,1530.0,4.0,0.0
140,65.0,512.0,510.0,0.0,0.0
141,68.0,512.0,510.0,0.0,0.0
142,48.0,0.0,1530.0,3.0,0.0
143,68.0,0.0,510.0,2.0,0.0
144,51.0,512.0,510.0,4.0,0.0
145,67.0,0.0,510.0,2.0,0.0
146,72.0,0.0,510.0,0.0,0.0
147,68.0,0.0,2040.0,2.0,0.0
148,77.0,0.0,510.0,0.0,0.0
149,50.0,512.0,510.0,4.0,0.0
150,53.0,0.0,510.0,3.0,0.0
151,72.0,1024.0,510.0,0.0,0.0
152,48.0,0.0,510.0,4.0,0.0
153,47.0,0.0,1530.0,3.0,0.0
154,47.0,0.0,1020.0,4.0,0.0
155,74.0,512.0,1020.0,0.0,0.0
156,62.0,0.0,510.0,1.0,0.0
157,62.0,0.0,1020.0,0.0,0.0
158,67.0,256.0,510.0,2.0,0.0
159,43.0,0.0,510.0,4.0,0.0
160,67.0,0.0,510.0,1.0,0.0
161,71.0,0.0,510.0,1.0,0.0
162,48.0,256.0,270.0,3.0,0.0
163,65.0,512.0,510.0,2.0,0.0
164,45.0,0.0,510.0,4.0,0.0
165,50.0,0.0,270.0,3.0,0.0
166,43.0,0.0,1020.0,3.0,0.0
167,47.0,0.0,510.0,4.0,0.0
168,67.0,512.0,510.0,2.0,0.0
169,74.0,0.0,510.0,1.0,0.0
170,62.0,512.0,510.0,2.0,0.0
171,71.0,0.0,510.0,1.0,0.0
172,43.0,0.0,510.0,4.0,0.0
173,55.0,0.0,1020.0,3.0,0.0
174,72.0,0.0,1020.0,1.0,0.0
175,63.0,0.0,1530.0,2.0,0.0
176,48.0,512.0,510.0,4.0,0.0
177,47.0,512.0,510.0,4.0,0.0
178,60.0,0.0,1020.0,1.0,0.0
179,51.0,256.0,510.0,3.0,0.0
180,48.0,0.0,510.0,4.0,0.0
181,65.0,256.0,270.0,2.0,0.0
182,50.0,512.0,510.0,4.0,0.0
183,50.0,0.0,510.0,3.0,0.0
184,67.0,0.0,270.0,2.0,0.0
185,51.0,0.0,510.0,3.0,0.0
186,51.0,512.0,510.0,4.0,0.0
187,60.0,0.0,1020.0,2.0,0.0
188,48.0,0.0,510.0,4.0,0.0
189,48.0,512.0,510.0,3.0,0.0
190,72.0,0.0,1020.0,2.0,0.0
191,56.0,0.0,3570.0,3.0,0.0
192,53.0,512.0,510.0,4.0,0.0
193,41.0,512.0,510.0,4.0,0.0
194,68.0,0.0,510.0,2.0,0.0
195,44.0,512.0,510.0,4.0,0.0
196,67.0,512.0,510.0,2.0,0.0
197,48.0,0.0,510.0,4.0,0.0
198,53.0,0.0,510.0,4.0,0.0
199,68.0,512.0,510.0,2.0,0.0
200,65.0,512.0,510.0,2.0,0.0
201,48.0,0.0,510.0,4.0,0.0
202,50.0,256.0,510.0,4.0,0.0
203,70.0,256.0,3570.0,2.0,0.0
204,46.0,0.0,510.0,4.0,0.0
205,50.0,256.0,270.0,3.0,0.0
206,51.0,512.0,270.0,3.0,0.0
207,50.0,256.0,510.0,4.0,0.0
208,53.0,0.0,510.0,3.0,0.0
209,56.0,256.0,270.0,3.0,0.0
210,53.0,0.0,510.0,4.0,0.0
211,55.0,512.0,270.0,3.0,0.0
212,58.0,256.0,510.0,4.0,0.0
213,56.0,0.0,510.0,3.0,0.0
214,50.0,0.0,510.0,4.0,0.0
215,55.0,256.0,270.0,3.0,0.0
216,53.0,512.0,270.0,3.0,0.0
217,51.0,0.0,510.0,4.0,0.0
218,55.0,0.0,1020.0,3.0,0.0
219,50.0,256.0,270.0,4.0,0.0
220,67.0,0.0,270.0,2.0,0.0
221,69.0,512.0,270.0,2.0,0.0
222,48.0,0.0,270.0,4.0,0.0
223,71.0,256.0,510.0,2.0,0.0
224,55.0,0.0,9210.0,3.0,0.0
225,50.0,0.0,510.0,4.0,0.0
226,74.0,256.0,270.0,2.0,0.0
227,55.0,512.0,510.0,4.0,0.0
228,72.0,0.0,270.0,2.0,0.0
229,53.0,256.0,510.0,4.0,0.0
230,74.0,0.0,510.0,2.0,0.0
231,72.0,256.0,270.0,2.0,0.0
232,55.0,512.0,510.0,4.0,0.0
233,71.0,0.0,270.0,2.0,0.0
234,51.0,256.0,510.0,4.0,0.0
235,72.0,0.0,510.0,2.0,0.0
236,72.0,256.0,270.0,2.0,0.0
237,55.0,512.0,510.0,4.0,0.0
238,71.0,0.0,270.0,2.0,0.0
239,51.0,0.0,510.0,4.0,0.0
240,72.0,256.0,510.0,2.0,0.0
241,75.0,256.0,270.0,2.0,0.0
242,48.0,512.0,510.0,4.0,0.0
243,74.0,0.0,270.0,2.0,0.0
244,75.0,256.0,510.0,2.0,0.0
245,43.0,0.0,510.0,4.0,0.0
246,48.0,512.0,510.0,4.0,0.0
247,74.0,256.0,270.0,2.0,0.0
248,72.0,0.0,270.0,2.0,0.0
249,74.0,0.0,510.0,2.0,0.0
250,47.0,256.0,510.0,4.0,0.0
251,55.0,0.0,510.0,4.0,0.0
252,74.0,256.0,270.0,2.0,0.0
253,72.0,512.0,270.0,2.0,0.0
254,50.0,256.0,510.0,4.0,0.0
255,74.0,0.0,510.0,2.0,0.0
256,47.0,512.0,510.0,4.0,0.0
257,77.0,256.0,270.0,2.0,0.0
258,75.0,0.0,270.0,2.0,0.0
259,43.0,256.0,510.0,4.0,0.0
260,77.0,0.0,510.0,2.0,0.0
261,75.0,256.0,270.0,2.0,0.0
262,47.0,0.0,510.0,4.0,0.0
263,74.0,512.0,270.0,2.0,0.0
264,48.0,512.0,510.0,4.0,0.0
265,75.0,0.0,510.0,2.0,0.0
266,39.0,0.0,510.0,4.0,0.0
267,72.0,512.0,510.0,2.0,0.0
268,41.0,512.0,510.0,4.0,0.0
269,53.0,0.0,510.0,3.0,0.0
270,68.0,0.0,2550.0,2.0,0.0
271,48.0,0.0,510.0,4.0,0.0
272,51.0,512.0,510.0,3.0,0.0
273,53.0,0.0,510.0,3.0,0.0
274,53.0,512.0,510.0,4.0,0.0
275,44.0,512.0,510.0,4.0,0.0
276,48.0,0.0,510.0,3.0,0.0
277,50.0,0.0,510.0,3.0,0.0
278,46.0,256.0,510.0,4.0,0.0
279,53.0,0.0,510.0,3.0,0.0
280,38.0,512.0,510.0,4.0,0.0
281,67.0,256.0,270.0,2.0,0.0
282,65.0,0.0,270.0,2.0,0.0
283,67.0,0.0,2550.0,2.0,0.0
284,39.0,0.0,510.0,4.0,0.0
285,51.0,512.0,510.0,3.0,0.0
286,46.0,0.0,510.0,4.0,0.0
287,50.0,512.0,510.0,3.0,0.0
288,51.0,512.0,510.0,4.0,0.0
289,48.0,0.0,510.0,3.0,0.0
290,47.0,0.0,510.0,3.0,0.0
291,43.0,512.0,510.0,4.0,0.0
292,48.0,256.0,510.0,3.0,0.0
293,44.0,512.0,1020.0,4.0,0.0
294,72.0,256.0,270.0,2.0,0.0
295,51.0,0.0,510.0,3.0,0.0
296,68.0,0.0,270.0,2.0,0.0
297,65.0,512.0,2040.0,2.0,0.0
298,50.0,256.0,510.0,3.0,0.0
299,32.0,512.0,1020.0,4.0,0.0
300,51.0,256.0,270.0,3.0,0.0
301,53.0,0.0,270.0,3.0,0.0
302,51.0,512.0,510.0,3.0,0.0
303,44.0,0.0,1020.0,4.0,0.0
304,50.0,0.0,510.0,3.0,0.0
305,47.0,0.0,1020.0,3.0,0.0
306,74.0,512.0,510.0,0.0,0.0
307,67.0,0.0,1020.0,2.0,0.0
308,43.0,0.0,1020.0,4.0,0.0
309,67.0,512.0,510.0,0.0,0.0
310,43.0,0.0,1020.0,3.0,0.0
311,55.0,512.0,1020.0,4.0,0.0
312,71.0,512.0,510.0,0.0,0.0
313,74.0,0.0,510.0,0.0,0.0
314,79.0,512.0,510.0,0.0,0.0
315,47.0,512.0,1020.0,4.0,0.0
316,74.0,0.0,510.0,0.0,0.0
317,75.0,512.0,1530.0,0.0,0.0
318,67.0,512.0,510.0,1.0,0.0
319,48.0,0.0,1020.0,4.0,0.0
320,60.0,512.0,510.0,1.0,0.0
321,36.0,512.0,1020.0,4.0,0.0
322,63.0,0.0,510.0,1.0,0.0
323,67.0,0.0,510.0,1.0,0.0
324,74.0,0.0,510.0,0.0,0.0
325,75.0,0.0,510.0,0.0,0.0
326,72.0,512.0,510.0,1.0,0.0
327,72.0,0.0,510.0,0.0,0.0
328,69.0,512.0,510.0,1.0,0.0
329,70.0,0.0,1530.0,1.0,0.0
330,55.0,512.0,510.0,4.0,0.0
331,74.0,0.0,510.0,0.0,0.0
332,76.0,0.0,510.0,0.0,0.0
333,43.0,512.0,510.0,4.0,0.0
334,76.0,0.0,1530.0,0.0,0.0
335,48.0,512.0,510.0,4.0,0.0
336,68.0,0.0,510.0,1.0,0.0
337,52.0,512.0,510.0,4.0,0.0
338,55.0,256.0,510.0,4.0,0.0
339,70.0,0.0,510.0,1.0,0.0
340,67.0,512.0,510.0,1.0,0.0
341,74.0,256.0,270.0,0.0,0.0
342,48.0,0.0,510.0,4.0,0.0
343,76.0,0.0,270.0,0.0,0.0
344,53.0,0.0,510.0,4.0,0.0
345,77.0,512.0,3570.0,0.0,0.0
346,69.0,512.0,510.0,1.0,0.0
347,51.0,512.0,510.0,4.0,0.0
348,71.0,0.0,510.0,1.0,0.0
349,50.0,512.0,510.0,4.0,0.0
350,71.0,0.0,1530.0,1.0,0.0
351,48.0,512.0,510.0,4.0,0.0
352,50.0,256.0,510.0,4.0,0.0
353,69.0,256.0,270.0,1.0,0.0
354,55.0,512.0,510.0,4.0,0.0
355,71.0,0.0,270.0,1.0,0.0
356,72.0,256.0,2310.0,1.0,0.0
357,48.0,512.0,1020.0,4.0,0.0
358,75.0,0.0,510.0,0.0,0.0
359,41.0,0.0,1020.0,4.0,0.0
360,80.0,512.0,510.0,0.0,0.0
361,77.0,256.0,510.0,0.0,0.0
362,44.0,512.0,1020.0,4.0,0.0
363,72.0,256.0,510.0,0.0,0.0
364,70.0,0.0,270.0,1.0,0.0
365,75.0,256.0,1020.0,0.0,0.0
366,68.0,256.0,270.0,1.0,0.0
367,67.0,0.0,270.0,1.0,0.0
368,65.0,0.0,510.0,1.0,0.0
369,46.0,512.0,1020.0,4.0,0.0
370,74.0,0.0,510.0,0.0,0.0
371,67.0,256.0,270.0,1.0,0.0
372,68.0,0.0,270.0,1.0,0.0
373,79.0,512.0,510.0,0.0,0.0
374,70.0,256.0,1290.0,1.0,0.0
375,39.0,0.0,1020.0,4.0,0.0
376,75.0,256.0,510.0,0.0,0.0
377,43.0,512.0,1020.0,4.0,0.0
378,70.0,0.0,510.0,0.0,0.0
379,68.0,256.0,270.0,1.0,0.0
380,67.0,256.0,270.0,1.0,0.0
381,73.0,0.0,1020.0,0.0,0.0
382,65.0,0.0,270.0,1.0,0.0
383,63.0,256.0,510.0,1.0,0.0
384,44.0,0.0,1020.0,4.0,0.0
385,72.0,0.0,510.0,0.0,0.0
386,65.0,256.0,270.0,1.0,0.0
387,67.0,512.0,270.0,1.0,0.0
388,71.0,512.0,1530.0,0.0,0.0
389,38.0,0.0,1020.0,4.0,0.0
390,68.0,512.0,510.0,1.0,0.0
391,65.0,512.0,510.0,1.0,0.0
392,41.0,512.0,1020.0,4.0,0.0
393,62.0,0.0,510.0,1.0,0.0
394,67.0,0.0,1020.0,1.0,0.0
395,72.0,0.0,510.0,0.0,0.0
396,72.0,0.0,510.0,0.0,0.0
397,39.0,512.0,510.0,4.0,0.0
398,68.0,512.0,510.0,0.0,0.0
399,65.0,0.0,510.0,1.0,0.0
400,41.0,0.0,510.0,4.0,0.0
401,63.0,0.0,510.0,1.0,0.0
402,67.0,512.0,510.0,0.0,0.0
403,60.0,512.0,510.0,1.0,0.0
404,75.0,0.0,510.0,0.0,0.0
405,43.0,0.0,15.0,4.0,0.0
406,59.0,0.0,510.0,1.0,0.0
407,74.0,256.0,510.0,0.0,0.0
408,67.0,0.0,510.0,1.0,0.0
409,72.0,256.0,270.0,0.0,0.0
410,71.0,0.0,270.0,0.0,0.0
411,63.0,0.0,1020.0,1.0,0.0
412,36.0,512.0,510.0,4.0,0.0
413,72.0,512.0,1020.0,0.0,0.0
414,39.0,0.0,510.0,4.0,0.0
415,67.0,0.0,15.0,2.0,0.0
416,43.0,512.0,510.0,4.0,0.0
417,48.0,512.0,510.0,4.0,0.0
418,72.0,1024.0,1020.0,2.0,0.0
419,51.0,512.0,510.0,4.0,0.0
420,48.0,0.0,510.0,4.0,0.0
421,70.0,512.0,1530.0,2.0,0.0
422,55.0,0.0,1020.0,4.0,0.0
423,43.0,0.0,1020.0,4.0,0.0
424,50.0,512.0,15.0,3.0,0.0
425,69.0,0.0,510.0,2.0,0.0
426,70.0,512.0,510.0,2.0,0.0
427,55.0,512.0,1020.0,3.0,0.0
428,67.0,0.0,510.0,2.0,0.0
429,53.0,512.0,1530.0,3.0,0.0
430,69.0,0.0,1020.0,2.0,0.0
431,50.0,512.0,510.0,4.0,0.0
432,38.0,512.0,510.0,4.0,0.0
433,71.0,0.0,510.0,2.0,0.0
434,43.0,0.0,510.0,4.0,0.0
435,72.0,0.0,510.0,2.0,0.0
436,47.0,0.0,510.0,4.0,0.0
437,51.0,512.0,510.0,3.0,0.0
438,50.0,0.0,510.0,4.0,0.0
439,53.0,0.0,510.0,3.0,0.0
440,69.0,512.0,510.0,2.0,0.0
441,43.0,1024.0,510.0,4.0,0.0
442,71.0,0.0,510.0,2.0,0.0
443,50.0,0.0,510.0,3.0,0.0
444,72.0,0.0,1020.0,2.0,0.0
445,48.0,0.0,1530.0,4.0,0.0
446,51.0,512.0,1020.0,3.0,0.0
447,62.0,0.0,510.0,1.0,0.0
448,65.0,512.0,510.0,1.0,0.0
449,67.0,512.0,1530.0,2.0,0.0
450,51.0,0.0,510.0,3.0,0.0
451,50.0,0.0,510.0,3.0,0.0
452,46.0,0.0,510.0,4.0,0.0
453,68.0,512.0,510.0,1.0,0.0
454,51.0,0.0,2040.0,3.0,0.0
455,74.0,0.0,510.0,1.0,0.0
456,45.0,0.0,510.0,4.0,0.0
457,51.0,0.0,510.0,4.0,0.0
458,68.0,1024.0,510.0,1.0,0.0
459,72.0,0.0,510.0,2.0,0.0
460,50.0,512.0,1020.0,4.0,0.0
461,69.0,0.0,1020.0,1.0,0.0
462,66.0,0.0,1530.0,2.0,0.0
463,69.0,0.0,510.0,0.0,0.0
464,66.0,0.0,1020.0,1.0,0.0
465,74.0,256.0,510.0,0.0,0.0
466,50.0,0.0,510.0,3.0,0.0
467,48.0,0.0,510.0,3.0,0.0
468,67.0,256.0,270.0,2.0,0.0
469,44.0,512.0,510.0,4.0,0.0
470,78.0,0.0,510.0,0.0,0.0
471,69.0,0.0,270.0,2.0,0.0
472,50.0,0.0,510.0,3.0,0.0
473,42.0,512.0,510.0,4.0,0.0
474,81.0,0.0,510.0,0.0,0.0
475,62.0,0.0,1020.0,2.0,0.0
476,78.0,0.0,510.0,0.0,0.0
477,38.0,512.0,510.0,4.0,0.0
478,45.0,0.0,510.0,3.0,0.0
479,74.0,0.0,1020.0,2.0,0.0
480,79.0,512.0,1020.0,0.0,0.0
481,43.0,512.0,510.0,4.0,0.0
482,46.0,256.0,1530.0,3.0,0.0
483,38.0,0.0,510.0,4.0,0.0
484,43.0,0.0,510.0,4.0,0.0
485,70.0,0.0,510.0,2.0,0.0
486,67.0,0.0,1020.0,0.0,0.0
487,46.0,512.0,510.0,4.0,0.0
488,48.0,256.0,270.0,3.0,0.0
489,69.0,0.0,510.0,2.0,0.0
490,50.0,0.0,270.0,3.0,0.0
491,43.0,0.0,1020.0,3.0,0.0
492,50.0,0.0,510.0,4.0,0.0
493,70.0,512.0,510.0,2.0,0.0
494,67.0,0.0,510.0,2.0,0.0
495,46.0,512.0,510.0,4.0,0.0
496,55.0,512.0,1020.0,3.0,0.0
497,75.0,0.0,3570.0,2.0,0.0
498,48.0,512.0,510.0,4.0,0.0
499,36.0,0.0,510.0,4.0,0.0
500,39.0,512.0,510.0,4.0,0.0
501,51.0,0.0,510.0,3.0,0.0
502,43.0,512.0,510.0,4.0,0.0
503,50.0,0.0,510.0,3.0,0.0
504,51.0,0.0,510.0,3.0,0.0
505,48.0,512.0,510.0,4.0,0.0
506,44.0,512.0,510.0,4.0,0.0
507,48.0,0.0,510.0,3.0,0.0
508,53.0,0.0,3570.0,3.0,0.0
509,45.0,256.0,510.0,4.0,0.0
510,41.0,0.0,510.0,4.0,0.0
511,69.0,256.0,270.0,2.0,0.0
512,70.0,512.0,270.0,2.0,0.0
513,45.0,0.0,510.0,4.0,0.0
514,72.0,256.0,510.0,2.0,0.0
515,75.0,256.0,270.0,2.0,0.0
516,48.0,0.0,510.0,4.0,0.0
517,74.0,512.0,270.0,2.0,0.0
518,75.0,256.0,510.0,2.0,0.0
519,53.0,0.0,510.0,4.0,0.0
520,74.0,256.0,270.0,2.0,0.0
521,45.0,512.0,510.0,4.0,0.0
522,72.0,0.0,270.0,2.0,0.0
523,74.0,512.0,10230.0,2.0,0.0
524,46.0,256.0,510.0,4.0,0.0
525,50.0,0.0,270.0,3.0,0.0
526,45.0,256.0,270.0,4.0,0.0
527,52.0,0.0,270.0,3.0,0.0
528,43.0,512.0,270.0,4.0,0.0
529,45.0,0.0,510.0,4.0,0.0
530,54.0,256.0,510.0,3.0,0.0
531,50.0,0.0,510.0,4.0,0.0
532,57.0,256.0,270.0,3.0,0.0
533,55.0,512.0,270.0,3.0,0.0
534,48.0,0.0,510.0,4.0,0.0
535,57.0,256.0,510.0,3.0,0.0
536,50.0,512.0,510.0,4.0,0.0
537,55.0,256.0,270.0,3.0,0.0
538,54.0,0.0,270.0,3.0,0.0
539,46.0,256.0,510.0,4.0,0.0
540,55.0,0.0,15.0,3.0,0.0
541,50.0,512.0,510.0,4.0,0.0
542,54.0,0.0,270.0,3.0,0.0
543,46.0,256.0,510.0,4.0,0.0
544,55.0,0.0,510.0,3.0,0.0
545,43.0,0.0,510.0,4.0,0.0
546,58.0,256.0,270.0,3.0,0.0
547,57.0,512.0,270.0,3.0,0.0
548,58.0,0.0,510.0,3.0,0.0
549,38.0,256.0,510.0,4.0,0.0
550,57.0,256.0,270.0,3.0,0.0
551,43.0,512.0,510.0,4.0,0.0
552,55.0,0.0,270.0,3.0,0.0
553,57.0,256.0,510.0,3.0,0.0
554,42.0,0.0,510.0,4.0,0.0
555,57.0,256.0,270.0,3.0,0.0
556,50.0,512.0,510.0,4.0,0.0
557,55.0,0.0,270.0,3.0,0.0
558,45.0,0.0,510.0,4.0,0.0
559,57.0,256.0,510.0,3.0,0.0
560,42.0,512.0,510.0,4.0,0.0
561,60.0,256.0,270.0,3.0,0.0
562,58.0,0.0,270.0,3.0,0.0
563,60.0,0.0,510.0,3.0,0.0
564,38.0,256.0,510.0,4.0,0.0
565,58.0,256.0,270.0,3.0,0.0
566,42.0,512.0,510.0,4.0,0.0
567,57.0,0.0,270.0,3.0,0.0
568,43.0,0.0,510.0,4.0,0.0
569,58.0,512.0,510.0,3.0,0.0
570,46.0,0.0,510.0,4.0,0.0
571,55.0,0.0,510.0,3.0,0.0
572,51.0,512.0,510.0,4.0,0.0
573,72.0,0.0,510.0,2.0,0.0
574,51.0,0.0,2550.0,3.0,0.0
575,55.0,0.0,510.0,4.0,0.0
576,70.0,512.0,510.0,2.0,0.0
577,60.0,0.0,510.0,4.0,0.0
578,72.0,512.0,510.0,2.0,0.0
579,51.0,0.0,510.0,4.0,0.0
580,67.0,512.0,510.0,2.0,0.0
581,53.0,256.0,510.0,4.0,0.0
582,69.0,0.0,510.0,2.0,0.0
583,50.0,256.0,270.0,3.0,0.0
584,45.0,512.0,510.0,4.0,0.0
585,70.0,0.0,270.0,2.0,0.0
586,72.0,0.0,270.0,2.0,0.0
587,48.0,0.0,270.0,3.0,0.0
588,70.0,0.0,510.0,2.0,0.0
589,50.0,512.0,510.0,4.0,0.0
590,50.0,0.0,2550.0,3.0,0.0
591,53.0,512.0,510.0,4.0,0.0
592,69.0,0.0,510.0,2.0,0.0
593,67.0,512.0,510.0,2.0,0.0
594,58.0,0.0,510.0,4.0,0.0
595,50.0,0.0,510.0,4.0,0.0
596,66.0,512.0,510.0,2.0,0.0
597,51.0,0.0,510.0,4.0,0.0
598,67.0,256.0,510.0,2.0,0.0
599,48.0,0.0,510.0,4.0,0.0
600,51.0,256.0,270.0,3.0,0.0
601,69.0,0.0,510.0,2.0,0.0
602,48.0,1024.0,270.0,3.0,0.0
603,66.0,0.0,2040.0,2.0,0.0
604,46.0,0.0,1020.0,3.0,0.0
605,50.0,512.0,1020.0,4.0,0.0
606,38.0,512.0,1020.0,4.0,0.0
607,45.0,512.0,510.0,3.0,0.0
608,43.0,0.0,510.0,3.0,0.0
609,67.0,512.0,510.0,1.0,0.0
610,67.0,0.0,1020.0,2.0,0.0
611,43.0,0.0,1020.0,3.0,0.0
612,43.0,0.0,1020.0,4.0,0.0
613,62.0,512.0,510.0,1.0,0.0
614,46.0,0.0,1020.0,4.0,0.0
615,67.0,512.0,510.0,1.0,0.0
616,74.0,512.0,510.0,1.0,0.0
617,42.0,512.0,1020.0,4.0,0.0
618,70.0,512.0,510.0,1.0,0.0
619,69.0,0.0,510.0,1.0,0.0
620,70.0,0.0,1530.0,1.0,0.0
621,74.0,512.0,510.0,0.0,0.0
622,43.0,512.0,1020.0,4.0,0.0
623,67.0,0.0,510.0,0.0,0.0
624,70.0,512.0,510.0,0.0,0.0
625,55.0,512.0,1020.0,4.0,0.0
626,74.0,0.0,510.0,0.0,0.0
627,69.0,0.0,510.0,1.0,0.0
628,70.0,0.0,510.0,1.0,0.0
629,79.0,512.0,510.0,0.0,0.0
630,67.0,0.0,510.0,1.0,0.0
631,76.0,512.0,510.0,0.0,0.0
632,69.0,512.0,510.0,1.0,0.0
633,77.0,512.0,1530.0,0.0,0.0
634,50.0,0.0,510.0,4.0,0.0
635,38.0,0.0,510.0,4.0,0.0
636,43.0,0.0,510.0,4.0,0.0
637,71.0,512.0,15.0,1.0,0.0
638,75.0,0.0,510.0,0.0,0.0
639,47.0,512.0,510.0,4.0,0.0
640,50.0,0.0,510.0,4.0,0.0
641,77.0,256.0,510.0,0.0,0.0
642,74.0,0.0,510.0,0.0,0.0
643,43.0,512.0,510.0,4.0,0.0
644,69.0,256.0,270.0,1.0,0.0
645,71.0,0.0,270.0,1.0,0.0
646,48.0,0.0,510.0,4.0,0.0
647,72.0,512.0,3570.0,1.0,0.0
648,76.0,512.0,510.0,0.0,0.0
649,46.0,512.0,510.0,4.0,0.0
650,78.0,0.0,15.0,0.0,0.0
651,45.0,512.0,510.0,4.0,0.0
652,43.0,512.0,510.0,4.0,0.0
653,45.0,256.0,510.0,4.0,0.0
654,76.0,256.0,270.0,0.0,0.0
655,50.0,0.0,510.0,4.0,0.0
656,78.0,512.0,270.0,0.0,0.0
657,43.0,512.0,1020.0,4.0,0.0
658,79.0,256.0,2310.0,0.0,0.0
659,70.0,0.0,510.0,1.0,0.0
660,75.0,512.0,510.0,1.0,0.0
661,48.0,256.0,1020.0,4.0,0.0
662,72.0,0.0,510.0,1.0,0.0
663,67.0,256.0,510.0,1.0,0.0
664,51.0,512.0,1020.0,4.0,0.0
665,77.0,0.0,270.0,0.0,0.0
666,70.0,0.0,1020.0,1.0,0.0
667,75.0,256.0,270.0,0.0,0.0
668,74.0,0.0,270.0,0.0,0.0
669,72.0,256.0,510.0,0.0,0.0
670,53.0,512.0,1020.0,4.0,0.0
671,74.0,256.0,270.0,0.0,0.0
672,69.0,0.0,510.0,1.0,0.0
673,75.0,0.0,270.0,0.0,0.0
674,46.0,256.0,1020.0,4.0,0.0
675,77.0,256.0,1290.0,0.0,0.0
676,74.0,512.0,510.0,1.0,0.0
677,70.0,0.0,510.0,1.0,0.0
678,50.0,512.0,1020.0,4.0,0.0
679,65.0,0.0,510.0,1.0,0.0
680,75.0,256.0,270.0,0.0,0.0
681,68.0,256.0,1020.0,1.0,0.0
682,74.0,256.0,270.0,0.0,0.0
683,72.0,0.0,270.0,0.0,0.0
684,70.0,0.0,510.0,0.0,0.0
685,51.0,0.0,1020.0,4.0,0.0
686,67.0,0.0,510.0,1.0,0.0
687,72.0,256.0,270.0,0.0,0.0
688,74.0,512.0,270.0,0.0,0.0
689,66.0,512.0,1530.0,1.0,0.0
690,45.0,0.0,1020.0,4.0,0.0
691,75.0,512.0,510.0,0.0,0.0
692,72.0,512.0,510.0,0.0,0.0
693,48.0,0.0,1020.0,4.0,0.0
694,69.0,0.0,510.0,0.0,0.0
695,74.0,512.0,1020.0,0.0,0.0
696,67.0,512.0,510.0,1.0,0.0
697,67.0,0.0,510.0,1.0,0.0
698,46.0,0.0,510.0,4.0,0.0
699,48.0,0.0,510.0,4.0,0.0
700,63.0,0.0,510.0,1.0,0.0
701,72.0,512.0,510.0,0.0,0.0
702,70.0,512.0,510.0,0.0,0.0
703,62.0,0.0,510.0,1.0,0.0
704,50.0,512.0,1020.0,4.0,0.0
705,67.0,0.0,510.0,0.0,0.0
706,70.0,0.0,510.0,1.0,0.0
707,69.0,256.0,510.0,1.0,0.0
708,66.0,0.0,510.0,0.0,0.0
709,38.0,0.0,1020.0,4.0,0.0
710,67.0,256.0,270.0,1.0,0.0
711,74.0,512.0,510.0,0.0,0.0
712,66.0,0.0,270.0,1.0,0.0
713,70.0,0.0,1020.0,0.0,0.0
714,67.0,0.0,1020.0,1.0,0.0
715,43.0,512.0,510.0,4.0,0.0
716,50.0,0.0,1020.0,3.0,0.0
717,50.0,512.0,510.0,4.0,0.0
718,55.0,0.0,510.0,4.0,0.0
719,51.0,512.0,510.0,3.0,0.0
720,53.0,512.0,510.0,4.0,0.0
721,50.0,0.0,510.0,3.0,0.0
722,51.0,0.0,510.0,4.0,0.0
723,48.0,512.0,510.0,3.0,0.0
724,50.0,1024.0,510.0,4.0,0.0
725,50.0,0.0,510.0,3.0,0.0
726,48.0,0.0,1020.0,4.0,0.0
727,67.0,0.0,1020.0,2.0,0.0
728,51.0,0.0,1020.0,3.0,0.0
729,73.0,512.0,510.0,0.0,0.0
730,72.0,512.0,510.0,0.0,0.0
731,68.0,0.0,510.0,2.0,0.0
732,52.0,0.0,2040.0,3.0,0.0
733,70.0,0.0,510.0,0.0,0.0
734,67.0,512.0,510.0,2.0,0.0
735,68.0,512.0,510.0,0.0,0.0
736,36.0,0.0,15.0,4.0,0.0
737,65.0,0.0,510.0,2.0,0.0
738,67.0,0.0,510.0,2.0,0.0
739,67.0,512.0,510.0,0.0,0.0
740,68.0,0.0,1020.0,2.0,0.0
741,53.0,512.0,510.0,3.0,0.0
742,41.0,0.0,1020.0,4.0,0.0
743,65.0,0.0,1020.0,0.0,0.0
744,48.0,0.0,510.0,3.0,0.0
745,66.0,512.0,510.0,1.0,0.0
746,69.0,512.0,2040.0,2.0,0.0
747,49.0,0.0,510.0,3.0,0.0
748,53.0,0.0,1020.0,4.0,0.0
749,65.0,512.0,510.0,1.0,0.0
750,48.0,0.0,510.0,3.0,0.0
751,63.0,512.0,510.0,1.0,0.0
752,46.0,512.0,510.0,3.0,0.0
753,61.0,0.0,510.0,1.0,0.0
754,53.0,0.0,1020.0,4.0,0.0
755,48.0,0.0,510.0,3.0,0.0
756,60.0,0.0,510.0,1.0,0.0
757,58.0,0.0,1020.0,1.0,0.0
758,46.0,512.0,1020.0,4.0,0.0
759,49.0,0.0,1020.0,3.0,0.0
760,70.0,512.0,510.0,2.0,0.0
761,71.0,0.0,510.0,0.0,0.0
762,65.0,0.0,510.0,2.0,0.0
763,66.0,512.0,510.0,2.0,0.0
764,34.0,0.0,1020.0,4.0,0.0
765,50.0,0.0,2040.0,3.0,0.0
766,70.0,0.0,510.0,0.0,0.0
767,68.0,512.0,510.0,0.0,0.0
768,65.0,0.0,510.0,2.0,0.0
769,63.0,0.0,510.0,2.0,0.0
770,66.0,512.0,510.0,0.0,0.0
771,34.0,0.0,1020.0,4.0,0.0
772,65.0,0.0,510.0,2.0,0.0
773,65.0,512.0,510.0,0.0,0.0
774,63.0,512.0,510.0,0.0,0.0
775,66.0,0.0,1020.0,2.0,0.0
776,39.0,512.0,1020.0,4.0,0.0
777,51.0,0.0,5130.0,3.0,0.0
778,64.0,0.0,510.0,1.0,0.0
779,63.0,512.0,510.0,1.0,0.0
780,51.0,0.0,1020.0,4.0,0.0
781,67.0,512.0,2040.0,2.0,0.0
782,61.0,512.0,510.0,1.0,0.0
783,60.0,512.0,510.0,1.0,0.0
784,51.0,0.0,1020.0,4.0,0.0
785,58.0,0.0,510.0,1.0,0.0
786,44.0,0.0,1020.0,4.0,0.0
787,68.0,512.0,1020.0,2.0,0.0
788,63.0,0.0,510.0,0.0,0.0
789,60.0,512.0,15.0,1.0,0.0
790,63.0,0.0,510.0,1.0,0.0
791,32.0,0.0,1020.0,4.0,0.0
792,68.0,512.0,510.0,0.0,0.0
793,67.0,0.0,2040.0,2.0,0.0
794,68.0,0.0,510.0,1.0,0.0
795,72.0,512.0,510.0,0.0,0.0
796,72.0,0.0,510.0,1.0,0.0
797,32.0,512.0,1020.0,4.0,0.0
798,75.0,512.0,510.0,0.0,0.0
799,72.0,0.0,510.0,0.0,0.0
800,63.0,0.0,510.0,1.0,0.0
801,65.0,0.0,1020.0,1.0,0.0
802,73.0,0.0,1020.0,0.0,0.0
803,65.0,0.0,1020.0,2.0,0.0
804,37.0,512.0,510.0,4.0,0.0
805,41.0,512.0,510.0,4.0,0.0
806,65.0,0.0,1020.0,2.0,0.0
807,46.0,512.0,510.0,4.0,0.0
808,48.0,512.0,510.0,4.0,0.0
809,70.0,0.0,1020.0,2.0,0.0
810,49.0,512.0,510.0,4.0,0.0
811,46.0,1024.0,510.0,4.0,0.0
812,53.0,512.0,1020.0,4.0,0.0
813,69.0,512.0,1530.0,2.0,0.0
814,48.0,0.0,15.0,3.0,0.0
815,41.0,0.0,1020.0,4.0,0.0
816,67.0,512.0,510.0,2.0,0.0
817,68.0,512.0,510.0,2.0,0.0
818,53.0,512.0,1020.0,3.0,0.0
819,38.0,0.0,1020.0,4.0,0.0
820,65.0,0.0,510.0,2.0,0.0
821,67.0,512.0,1020.0,2.0,0.0
822,39.0,512.0,510.0,4.0,0.0
823,51.0,0.0,1530.0,3.0,0.0
824,36.0,0.0,510.0,4.0,0.0
825,41.0,512.0,510.0,4.0,0.0
826,69.0,0.0,510.0,2.0,0.0
827,45.0,0.0,510.0,4.0,0.0
828,70.0,0.0,510.0,2.0,0.0
829,49.0,512.0,510.0,3.0,0.0
830,67.0,0.0,510.0,2.0,0.0
831,48.0,0.0,510.0,4.0,0.0
832,51.0,512.0,510.0,3.0,0.0
833,41.0,1024.0,510.0,4.0,0.0
834,48.0,0.0,510.0,3.0,0.0
835,69.0,0.0,510.0,2.0,0.0
836,70.0,512.0,1020.0,2.0,0.0
837,46.0,512.0,1530.0,4.0,0.0
838,58.0,0.0,510.0,1.0,0.0
839,61.0,0.0,510.0,1.0,0.0
840,49.0,0.0,15.0,3.0,0.0
841,65.0,0.0,510.0,2.0,0.0
842,48.0,512.0,510.0,3.0,0.0
843,64.0,0.0,510.0,2.0,0.0
844,65.0,0.0,510.0,1.0,0.0
845,44.0,0.0,510.0,4.0,0.0
846,49.0,512.0,2040.0,3.0,0.0
847,65.0,0.0,510.0,2.0,0.0
848,70.0,512.0,510.0,1.0,0.0
849,43.0,0.0,510.0,4.0,0.0
850,70.0,0.0,510.0,2.0,0.0
851,49.0,0.0,510.0,4.0,0.0
852,65.0,1024.0,510.0,1.0,0.0
853,64.0,256.0,1530.0,2.0,0.0
854,67.0,0.0,1020.0,1.0,0.0
855,48.0,0.0,1020.0,4.0,0.0
856,67.0,0.0,510.0,0.0,0.0
857,72.0,0.0,510.0,0.0,0.0
858,64.0,0.0,1020.0,1.0,0.0
859,48.0,0.0,510.0,3.0,0.0
860,65.0,256.0,270.0,2.0,0.0
861,46.0,512.0,510.0,3.0,0.0
862,76.0,0.0,510.0,0.0,0.0
863,43.0,0.0,510.0,4.0,0.0
864,67.0,0.0,270.0,2.0,0.0
865,60.0,0.0,1020.0,2.0,0.0
866,40.0,0.0,510.0,4.0,0.0
867,79.0,512.0,510.0,0.0,0.0
868,48.0,0.0,510.0,3.0,0.0
869,43.0,0.0,510.0,3.0,0.0
870,76.0,0.0,510.0,0.0,0.0
871,36.0,512.0,510.0,4.0,0.0
872,77.0,512.0,1020.0,0.0,0.0
873,44.0,0.0,1530.0,3.0,0.0
874,41.0,512.0,510.0,4.0,0.0
875,36.0,0.0,510.0,4.0,0.0
876,72.0,0.0,510.0,2.0,0.0
877,68.0,0.0,510.0,2.0,0.0
878,65.0,512.0,1020.0,0.0,0.0
879,72.0,0.0,3060.0,1.0,0.0
880,41.0,256.0,510.0,4.0,0.0
881,67.0,0.0,510.0,2.0,0.0
882,46.0,256.0,270.0,3.0,0.0
883,44.0,0.0,510.0,4.0,0.0
884,48.0,0.0,270.0,3.0,0.0
885,48.0,0.0,510.0,4.0,0.0
886,68.0,512.0,510.0,2.0,0.0
887,41.0,0.0,1020.0,3.0,0.0
888,44.0,512.0,510.0,4.0,0.0
889,65.0,0.0,510.0,2.0,0.0
890,73.0,256.0,3570.0,2.0,0.0
891,46.0,512.0,510.0,4.0,0.0
892,53.0,0.0,510.0,3.0,0.0
893,34.0,512.0,510.0,4.0,0.0
894,70.0,512.0,1020.0,1.0,0.0
895,77.0,0.0,3060.0,0.0,0.0
896,49.0,0.0,510.0,3.0,0.0
897,37.0,512.0,510.0,4.0,0.0
898,48.0,0.0,510.0,3.0,0.0
899,41.0,0.0,510.0,4.0,0.0
900,49.0,0.0,510.0,3.0,0.0
901,65.0,0.0,1020.0,1.0,0.0
902,46.0,512.0,510.0,4.0,0.0
903,41.0,0.0,510.0,4.0,0.0
904,46.0,512.0,510.0,3.0,0.0
905,58.0,512.0,1020.0,1.0,0.0
906,43.0,0.0,510.0,4.0,0.0
907,51.0,0.0,3570.0,3.0,0.0
908,67.0,256.0,270.0,2.0,0.0
909,39.0,0.0,510.0,4.0,0.0
910,68.0,0.0,270.0,2.0,0.0
911,70.0,0.0,510.0,2.0,0.0
912,43.0,256.0,510.0,4.0,0.0
913,75.0,0.0,1020.0,0.0,0.0
914,46.0,512.0,510.0,4.0,0.0
915,73.0,256.0,270.0,2.0,0.0
916,72.0,0.0,270.0,2.0,0.0
917,73.0,256.0,510.0,2.0,0.0
918,70.0,256.0,1530.0,1.0,0.0
919,51.0,0.0,510.0,4.0,0.0
920,70.0,0.0,1020.0,0.0,0.0
921,43.0,512.0,510.0,4.0,0.0
922,72.0,256.0,270.0,2.0,0.0
923,70.0,0.0,270.0,2.0,0.0
924,72.0,0.0,10230.0,2.0,0.0
925,63.0,0.0,1020.0,0.0,0.0
926,44.0,0.0,510.0,4.0,0.0
927,43.0,0.0,270.0,4.0,0.0
928,72.0,0.0,510.0,1.0,0.0
929,48.0,256.0,270.0,3.0,0.0
930,41.0,0.0,270.0,4.0,0.0
931,50.0,512.0,270.0,3.0,0.0
932,70.0,0.0,510.0,1.0,0.0
933,52.0,0.0,510.0,3.0,0.0
934,43.0,256.0,510.0,4.0,0.0
935,55.0,256.0,270.0,3.0,0.0
936,68.0,0.0,510.0,1.0,0.0
937,48.0,0.0,510.0,4.0,0.0
938,53.0,512.0,270.0,3.0,0.0
939,46.0,0.0,510.0,4.0,0.0
940,70.0,0.0,510.0,1.0,0.0
941,55.0,256.0,510.0,3.0,0.0
942,48.0,512.0,510.0,4.0,0.0
943,53.0,256.0,270.0,3.0,0.0
944,67.0,0.0,510.0,1.0,0.0
945,52.0,0.0,270.0,3.0,0.0
946,68.0,512.0,1020.0,1.0,0.0
947,41.0,256.0,510.0,4.0,0.0
948,53.0,0.0,15.0,3.0,0.0
949,48.0,0.0,510.0,4.0,0.0
950,68.0,0.0,270.0,0.0,0.0
951,67.0,0.0,270.0,0.0,0.0
952,52.0,0.0,270.0,3.0,0.0
953,44.0,256.0,510.0,4.0,0.0
954,68.0,0.0,510.0,0.0,0.0
955,53.0,0.0,510.0,3.0,0.0
956,41.0,0.0,510.0,4.0,0.0
957,72.0,0.0,270.0,0.0,0.0
958,56.0,256.0,270.0,3.0,0.0
959,55.0,0.0,270.0,3.0,0.0
960,70.0,512.0,270.0,0.0,0.0
961,36.0,0.0,510.0,4.0,0.0
962,56.0,256.0,510.0,3.0,0.0
963,72.0,0.0,510.0,0.0,0.0
964,41.0,0.0,510.0,4.0,0.0
965,70.0,0.0,270.0,0.0,0.0
966,55.0,256.0,270.0,3.0,0.0
967,68.0,0.0,270.0,0.0,0.0
968,53.0,512.0,270.0,3.0,0.0
969,70.0,0.0,510.0,0.0,0.0
970,40.0,256.0,510.0,4.0,0.0
971,55.0,0.0,15.0,3.0,0.0
972,64.0,0.0,270.0,0.0,0.0
973,48.0,512.0,510.0,4.0,0.0
974,60.0,0.0,270.0,1.0,0.0
975,62.0,0.0,270.0,0.0,0.0
976,53.0,0.0,270.0,3.0,0.0
977,58.0,0.0,270.0,1.0,0.0
978,55.0,0.0,510.0,3.0,0.0
979,60.0,0.0,510.0,1.0,0.0
980,43.0,0.0,510.0,4.0,0.0
981,64.0,256.0,510.0,0.0,0.0
982,40.0,0.0,510.0,4.0,0.0
983,58.0,256.0,270.0,3.0,0.0
984,64.0,0.0,270.0,1.0,0.0
985,67.0,0.0,270.0,0.0,0.0
986,56.0,0.0,270.0,3.0,0.0
987,65.0,0.0,270.0,0.0,0.0
988,62.0,512.0,270.0,1.0,0.0
989,36.0,0.0,510.0,4.0,0.0
990,58.0,256.0,510.0,3.0,0.0
991,67.0,0.0,510.0,0.0,0.0
992,64.0,0.0,510.0,1.0,0.0
993,56.0,0.0,270.0,3.0,0.0
994,48.0,0.0,510.0,4.0,0.0
995,65.0,256.0,270.0,0.0,0.0
996,64.0,512.0,270.0,0.0,0.0
997,55.0,0.0,270.0,3.0,0.0
998,60.0,0.0,15.0,1.0,0.0
999,65.0,0.0,510.0,0.0,0.0
1000,56.0,0.0,510.0,3.0,0.0
1001,41.0,0.0,510.0,4.0,0.0
1002,53.0,512.0,510.0,3.0,0.0
1003,44.0,0.0,510.0,4.0,0.0
1004,70.0,0.0,510.0,2.0,0.0
1005,49.0,0.0,510.0,4.0,0.0
1006,49.0,512.0,510.0,3.0,0.0
1007,68.0,0.0,510.0,2.0,0.0
1008,48.0,512.0,510.0,3.0,0.0
1009,53.0,0.0,510.0,4.0,0.0
1010,70.0,512.0,510.0,2.0,0.0
1011,58.0,0.0,510.0,4.0,0.0
1012,49.0,256.0,1530.0,3.0,0.0
1013,49.0,0.0,510.0,4.0,0.0
1014,65.0,512.0,510.0,2.0,0.0
1015,51.0,0.0,510.0,4.0,0.0
1016,67.0,0.0,510.0,2.0,0.0
1017,70.0,512.0,510.0,2.0,0.0
1018,48.0,256.0,270.0,3.0,0.0
1019,43.0,0.0,510.0,4.0,0.0
1020,46.0,0.0,270.0,3.0,0.0
1021,48.0,0.0,2550.0,3.0,0.0
1022,48.0,512.0,510.0,4.0,0.0
1023,68.0,0.0,510.0,2.0,0.0
1024,67.0,0.0,510.0,2.0,0.0
1025,51.0,512.0,510.0,4.0,0.0
1026,56.0,0.0,510.0,4.0,0.0
1027,65.0,512.0,510.0,2.0,0.0
1028,64.0,0.0,510.0,2.0,0.0
1029,48.0,512.0,510.0,4.0,0.0
1030,65.0,256.0,510.0,2.0,0.0
1031,49.0,0.0,510.0,4.0,0.0
1032,49.0,256.0,270.0,3.0,0.0
1033,67.0,1024.0,510.0,2.0,0.0
1034,46.0,0.0,510.0,4.0,0.0
1035,46.0,0.0,270.0,3.0,0.0
1036,44.0,0.0,1020.0,3.0,0.0
1037,48.0,512.0,1020.0,4.0,0.0
1038,64.0,512.0,2040.0,2.0,0.0
1039,43.0,512.0,510.0,3.0,0.0
1040,36.0,0.0,1020.0,4.0,0.0
1041,41.0,0.0,510.0,3.0,0.0
1042,65.0,512.0,510.0,1.0,0.0
1043,41.0,0.0,1020.0,4.0,0.0
1044,65.0,512.0,1020.0,2.0,0.0
1045,41.0,0.0,1020.0,3.0,0.0
1046,60.0,0.0,510.0,1.0,0.0
1047,44.0,0.0,1020.0,4.0,0.0
1048,65.0,512.0,510.0,1.0,0.0
1049,68.0,512.0,510.0,1.0,0.0
1050,40.0,0.0,1020.0,4.0,0.0
1051,72.0,512.0,510.0,1.0,0.0
1052,67.0,512.0,510.0,1.0,0.0
1053,68.0,0.0,1530.0,1.0,0.0
1054,72.0,512.0,510.0,0.0,0.0
1055,41.0,0.0,1020.0,4.0,0.0
1056,65.0,512.0,510.0,0.0,0.0
1057,53.0,512.0,1020.0,4.0,0.0
1058,68.0,512.0,510.0,0.0,0.0
1059,72.0,0.0,510.0,0.0,0.0
1060,67.0,0.0,510.0,1.0,0.0
1061,68.0,0.0,510.0,1.0,0.0
1062,77.0,512.0,510.0,0.0,0.0
1063,65.0,0.0,510.0,1.0,0.0
1064,74.0,512.0,510.0,0.0,0.0
1065,48.0,0.0,510.0,4.0,0.0
1066,67.0,512.0,510.0,1.0,0.0
1067,75.0,0.0,1530.0,0.0,0.0
1068,36.0,0.0,510.0,4.0,0.0
1069,69.0,512.0,15.0,1.0,0.0
1070,41.0,512.0,510.0,4.0,0.0
1071,73.0,512.0,510.0,0.0,0.0
1072,45.0,0.0,510.0,4.0,0.0
1073,75.0,0.0,510.0,0.0,0.0
1074,48.0,256.0,510.0,4.0,0.0
1075,67.0,256.0,270.0,1.0,0.0
1076,72.0,0.0,510.0,0.0,0.0
1077,41.0,512.0,510.0,4.0,0.0
1078,69.0,0.0,270.0,1.0,0.0
1079,70.0,512.0,3570.0,1.0,0.0
1080,74.0,0.0,510.0,0.0,0.0
1081,46.0,512.0,510.0,4.0,0.0
1082,76.0,0.0,510.0,0.0,0.0
1083,44.0,512.0,510.0,4.0,0.0
1084,43.0,512.0,510.0,4.0,0.0
1085,76.0,0.0,1530.0,0.0,0.0
1086,41.0,512.0,510.0,4.0,0.0
1087,43.0,256.0,510.0,4.0,0.0
1088,48.0,0.0,510.0,4.0,0.0
1089,74.0,256.0,270.0,0.0,0.0
1090,76.0,512.0,270.0,0.0,0.0
1091,41.0,512.0,1020.0,4.0,0.0
1092,77.0,256.0,2310.0,0.0,0.0
1093,68.0,0.0,510.0,1.0,0.0
1094,46.0,256.0,1020.0,4.0,0.0
1095,73.0,512.0,510.0,1.0,0.0
1096,70.0,0.0,510.0,1.0,0.0
1097,49.0,0.0,1020.0,4.0,0.0
1098,65.0,256.0,510.0,1.0,0.0
1099,75.0,0.0,270.0,0.0,0.0
1100,68.0,256.0,1020.0,1.0,0.0
1101,73.0,256.0,270.0,0.0,0.0
1102,72.0,512.0,270.0,0.0,0.0
1103,70.0,0.0,510.0,0.0,0.0
1104,51.0,0.0,1020.0,4.0,0.0
1105,72.0,256.0,270.0,0.0,0.0
1106,67.0,512.0,510.0,1.0,0.0
1107,73.0,0.0,270.0,0.0,0.0
1108,44.0,256.0,1020.0,4.0,0.0
1109,72.0,512.0,510.0,1.0,0.0
1110,75.0,256.0,1290.0,0.0,0.0
1111,68.0,0.0,510.0,1.0,0.0
1112,63.0,0.0,510.0,1.0,0.0
1113,48.0,512.0,1020.0,4.0,0.0
1114,73.0,256.0,270.0,0.0,0.0
1115,66.0,0.0,1020.0,1.0,0.0
1116,72.0,256.0,270.0,0.0,0.0
1117,70.0,0.0,270.0,0.0,0.0
1118,68.0,256.0,510.0,0.0,0.0
1119,49.0,0.0,1020.0,4.0,0.0
1120,65.0,0.0,510.0,1.0,0.0
1121,70.0,256.0,270.0,0.0,0.0
1122,72.0,512.0,270.0,0.0,0.0
1123,43.0,512.0,1020.0,4.0,0.0
1124,73.0,512.0,510.0,0.0,0.0
1125,64.0,512.0,1530.0,1.0,0.0
1126,70.0,0.0,510.0,0.0,0.0
1127,46.0,0.0,1020.0,4.0,0.0
1128,67.0,0.0,510.0,0.0,0.0
1129,72.0,0.0,1020.0,0.0,0.0
1130,65.0,512.0,510.0,1.0,0.0
1131,44.0,0.0,510.0,4.0,0.0
1132,65.0,512.0,510.0,1.0,0.0
1133,46.0,0.0,510.0,4.0,0.0
1134,70.0,512.0,510.0,0.0,0.0
1135,61.0,0.0,510.0,1.0,0.0
1136,60.0,512.0,510.0,1.0,0.0
1137,68.0,0.0,510.0,0.0,0.0
1138,48.0,0.0,1020.0,4.0,0.0
1139,68.0,0.0,510.0,1.0,0.0
1140,65.0,512.0,510.0,0.0,0.0
1141,36.0,1024.0,1020.0,4.0,0.0
1142,67.0,256.0,510.0,1.0,0.0
1143,64.0,0.0,510.0,0.0,0.0
1144,72.0,0.0,510.0,0.0,0.0
1145,65.0,256.0,270.0,1.0,0.0
1146,64.0,0.0,270.0,1.0,0.0
1147,65.0,0.0,1020.0,1.0,0.0
1148,48.0,0.0,1020.0,3.0,0.0
1149,41.0,0.0,1020.0,4.0,0.0
1150,68.0,0.0,1020.0,0.0,0.0
1151,68.0,512.0,1020.0,2.0,0.0
1152,49.0,512.0,510.0,3.0,0.0
1153,70.0,0.0,510.0,2.0,0.0
1154,53.0,512.0,1020.0,4.0,0.0
1155,68.0,0.0,510.0,2.0,0.0
1156,48.0,0.0,510.0,3.0,0.0
1157,41.0,0.0,1020.0,4.0,0.0
1158,67.0,512.0,510.0,2.0,0.0
1159,46.0,0.0,510.0,3.0,0.0
1160,48.0,1024.0,510.0,3.0,0.0
1161,68.0,0.0,510.0,2.0,0.0
1162,46.0,0.0,1020.0,4.0,0.0
1163,65.0,0.0,1020.0,2.0,0.0
1164,49.0,512.0,1020.0,3.0,0.0
1165,70.0,0.0,510.0,0.0,0.0
1166,70.0,512.0,1020.0,2.0,0.0
1167,65.0,512.0,510.0,0.0,0.0
1168,50.0,1024.0,2040.0,3.0,0.0
1169,62.0,0.0,510.0,0.0,0.0
1170,58.0,512.0,510.0,0.0,0.0
1171,34.0,0.0,15.0,4.0,0.0
1172,68.0,0.0,1020.0,2.0,0.0
1173,65.0,0.0,510.0,0.0,0.0
1174,51.0,0.0,1020.0,3.0,0.0
1175,67.0,0.0,1020.0,2.0,0.0
1176,39.0,0.0,1020.0,4.0,0.0
1177,67.0,512.0,1020.0,0.0,0.0
1178,72.0,0.0,510.0,1.0,0.0
1179,36.0,0.0,1020.0,4.0,0.0
1180,52.0,0.0,2040.0,3.0,0.0
1181,67.0,512.0,510.0,1.0,0.0
1182,72.0,512.0,1020.0,2.0,0.0
1183,64.0,0.0,510.0,1.0,0.0
1184,60.0,512.0,510.0,1.0,0.0
1185,70.0,0.0,1020.0,2.0,0.0
1186,36.0,512.0,1020.0,4.0,0.0
1187,67.0,0.0,510.0,1.0,0.0
1188,41.0,512.0,510.0,4.0,0.0
1189,68.0,0.0,1020.0,1.0,0.0
1190,53.0,0.0,3060.0,3.0,0.0
1191,68.0,0.0,1020.0,2.0,0.0
1192,50.0,512.0,510.0,4.0,0.0
1193,59.0,0.0,510.0,0.0,0.0
1194,67.0,0.0,3060.0,2.0,0.0
1195,62.0,512.0,510.0,0.0,0.0
1196,47.0,0.0,510.0,4.0,0.0
1197,65.0,0.0,510.0,0.0,0.0
1198,50.0,512.0,510.0,4.0,0.0
1199,43.0,512.0,510.0,4.0,0.0
1200,67.0,0.0,510.0,0.0,0.0
1201,62.0,0.0,510.0,0.0,0.0
1202,47.0,1024.0,510.0,4.0,0.0
1203,48.0,0.0,1020.0,4.0,0.0
1204,51.0,0.0,1020.0,3.0,0.0
1205,63.0,512.0,1020.0,0.0,0.0
1206,68.0,512.0,510.0,2.0,0.0
1207,53.0,0.0,510.0,3.0,0.0
1208,36.0,0.0,1020.0,4.0,0.0
1209,51.0,0.0,510.0,3.0,0.0
1210,67.0,512.0,510.0,2.0,0.0
1211,50.0,0.0,510.0,3.0,0.0
1212,65.0,512.0,510.0,2.0,0.0
1213,48.0,0.0,1020.0,4.0,0.0
1214,51.0,0.0,510.0,3.0,0.0
1215,67.0,1024.0,510.0,2.0,0.0
1216,68.0,0.0,1020.0,2.0,0.0
1217,41.0,512.0,1020.0,4.0,0.0
1218,48.0,0.0,1020.0,3.0,0.0
1219,77.0,0.0,510.0,1.0,0.0
1220,53.0,512.0,1020.0,3.0,0.0
1221,72.0,512.0,510.0,1.0,0.0
1222,69.0,0.0,2040.0,2.0,0.0
1223,69.0,0.0,510.0,1.0,0.0
1224,51.0,0.0,1020.0,3.0,0.0
1225,53.0,0.0,15.0,4.0,0.0
1226,65.0,512.0,510.0,1.0,0.0
1227,72.0,0.0,510.0,1.0,0.0
1228,74.0,0.0,1020.0,1.0,0.0
1229,50.0,0.0,1020.0,3.0,0.0
1230,46.0,0.0,1020.0,4.0,0.0
1231,70.0,0.0,1020.0,2.0,0.0
1232,79.0,512.0,510.0,0.0,0.0
1233,71.0,0.0,2040.0,2.0,0.0
1234,74.0,512.0,510.0,0.0,0.0
1235,55.0,0.0,1020.0,3.0,0.0
1236,55.0,0.0,1020.0,4.0,0.0
1237,71.0,512.0,510.0,0.0,0.0
1238,53.0,0.0,1020.0,3.0,0.0
1239,67.0,512.0,510.0,0.0,0.0
1240,55.0,512.0,1020.0,4.0,0.0
1241,74.0,0.0,510.0,0.0,0.0
1242,48.0,512.0,510.0,4.0,0.0
1243,51.0,512.0,1020.0,3.0,0.0
1244,72.0,512.0,3060.0,2.0,0.0
1245,75.0,0.0,1020.0,0.0,0.0
1246,66.0,0.0,510.0,1.0,0.0
1247,45.0,0.0,510.0,4.0,0.0
1248,42.0,512.0,510.0,4.0,0.0
1249,50.0,0.0,2040.0,3.0,0.0
1250,69.0,0.0,510.0,1.0,0.0
1251,45.0,512.0,510.0,4.0,0.0
1252,72.0,0.0,510.0,1.0,0.0
1253,74.0,512.0,510.0,1.0,0.0
1254,38.0,0.0,510.0,4.0,0.0
1255,69.0,0.0,510.0,1.0,0.0
1256,42.0,0.0,510.0,4.0,0.0
1257,71.0,0.0,1020.0,1.0,0.0
1258,71.0,0.0,1020.0,2.0,0.0
1259,43.0,512.0,510.0,4.0,0.0
1260,42.0,512.0,510.0,4.0,0.0
1261,50.0,0.0,15.0,3.0,0.0
1262,43.0,512.0,510.0,4.0,0.0
1263,45.0,512.0,510.0,4.0,0.0
1264,55.0,0.0,1020.0,3.0,0.0
1265,47.0,512.0,510.0,4.0,0.0
1266,43.0,1024.0,510.0,4.0,0.0
1267,51.0,512.0,1530.0,3.0,0.0
1268,48.0,512.0,1020.0,4.0,0.0
1269,67.0,0.0,1020.0,2.0,0.0
1270,36.0,512.0,1020.0,4.0,0.0
1271,67.0,0.0,1020.0,2.0,0.0
1272,50.0,0.0,510.0,3.0,0.0
1273,51.0,512.0,510.0,3.0,0.0
1274,72.0,1024.0,1020.0,2.0,0.0
1275,48.0,0.0,510.0,3.0,0.0
1276,50.0,512.0,1020.0,3.0,0.0
1277,70.0,0.0,1530.0,2.0,0.0
1278,43.0,0.0,510.0,4.0,0.0
1279,48.0,512.0,510.0,4.0,0.0
1280,52.0,0.0,510.0,3.0,0.0
1281,53.0,0.0,510.0,3.0,0.0
1282,52.0,512.0,510.0,4.0,0.0
1283,68.0,0.0,510.0,2.0,0.0
1284,50.0,0.0,510.0,3.0,0.0
1285,70.0,0.0,510.0,2.0,0.0
1286,55.0,512.0,510.0,4.0,0.0
1287,52.0,0.0,510.0,3.0,0.0
1288,67.0,0.0,510.0,2.0,0.0
1289,48.0,1024.0,510.0,4.0,0.0
1290,53.0,0.0,1020.0,3.0,0.0
1291,68.0,0.0,1020.0,2.0,0.0
1292,53.0,512.0,1530.0,4.0,0.0
1293,65.0,512.0,510.0,0.0,0.0
1294,68.0,0.0,510.0,0.0,0.0
1295,48.0,0.0,510.0,3.0,0.0
1296,68.0,0.0,510.0,2.0,0.0
1297,47.0,0.0,510.0,3.0,0.0
1298,72.0,0.0,510.0,0.0,0.0
1299,67.0,0.0,510.0,2.0,0.0
1300,51.0,512.0,510.0,4.0,0.0
1301,68.0,0.0,2040.0,2.0,0.0
1302,77.0,512.0,510.0,0.0,0.0
1303,48.0,0.0,510.0,3.0,0.0
1304,50.0,0.0,510.0,4.0,0.0
1305,72.0,0.0,510.0,0.0,0.0
1306,56.0,1024.0,510.0,4.0,0.0
1307,53.0,0.0,510.0,3.0,0.0
1308,47.0,256.0,1530.0,3.0,0.0
1309,74.0,512.0,1020.0,0.0,0.0
1310,55.0,0.0,1020.0,4.0,0.0
1311,62.0,0.0,510.0,1.0,0.0
1312,67.0,0.0,510.0,2.0,0.0
1313,67.0,0.0,510.0,1.0,0.0
1314,71.0,0.0,1020.0,0.0,0.0
1315,71.0,0.0,510.0,1.0,0.0
1316,65.0,0.0,510.0,2.0,0.0
1317,48.0,256.0,270.0,3.0,0.0
1318,50.0,0.0,510.0,4.0,0.0
1319,50.0,512.0,270.0,3.0,0.0
1320,47.0,512.0,510.0,4.0,0.0
1321,67.0,0.0,510.0,2.0,0.0
1322,74.0,0.0,510.0,1.0,0.0
1323,43.0,0.0,1020.0,3.0,0.0
1324,43.0,0.0,510.0,4.0,0.0
1325,62.0,0.0,510.0,2.0,0.0
1326,71.0,512.0,510.0,1.0,0.0
1327,72.0,512.0,1020.0,1.0,0.0
1328,48.0,512.0,510.0,4.0,0.0
1329,63.0,256.0,1530.0,2.0,0.0
1330,43.0,0.0,510.0,4.0,0.0
1331,55.0,0.0,510.0,3.0,0.0
1332,51.0,0.0,510.0,3.0,0.0
1333,48.0,0.0,510.0,4.0,0.0
1334,79.0,0.0,3060.0,0.0,0.0
1335,60.0,0.0,1020.0,1.0,0.0
1336,50.0,0.0,510.0,3.0,0.0
1337,51.0,512.0,510.0,4.0,0.0
1338,65.0,256.0,270.0,2.0,0.0
1339,67.0,0.0,270.0,2.0,0.0
1340,55.0,512.0,510.0,4.0,0.0
1341,51.0,0.0,510.0,3.0,0.0
1342,60.0,0.0,1020.0,2.0,0.0
1343,51.0,512.0,510.0,4.0,0.0
1344,48.0,0.0,510.0,3.0,0.0
1345,53.0,512.0,510.0,4.0,0.0
1346,56.0,0.0,3570.0,3.0,0.0
1347,72.0,512.0,510.0,2.0,0.0
1348,41.0,0.0,510.0,4.0,0.0
1349,72.0,0.0,3060.0,1.0,0.0
1350,77.0,512.0,1020.0,0.0,0.0
1351,68.0,0.0,510.0,2.0,0.0
1352,44.0,512.0,510.0,4.0,0.0
1353,48.0,0.0,510.0,4.0,0.0
1354,67.0,0.0,510.0,2.0,0.0
1355,53.0,0.0,510.0,4.0,0.0
1356,68.0,512.0,510.0,2.0,0.0
1357,72.0,0.0,1020.0,0.0,0.0
1358,48.0,0.0,510.0,4.0,0.0
1359,65.0,512.0,510.0,2.0,0.0
1360,50.0,256.0,510.0,4.0,0.0
1361,65.0,512.0,1020.0,0.0,0.0
1362,70.0,256.0,3570.0,2.0,0.0
1363,50.0,256.0,270.0,3.0,0.0
1364,46.0,0.0,510.0,4.0,0.0
1365,51.0,0.0,270.0,3.0,0.0
1366,53.0,0.0,510.0,3.0,0.0
1367,50.0,256.0,510.0,4.0,0.0
1368,70.0,0.0,1020.0,1.0,0.0
1369,56.0,256.0,270.0,3.0,0.0
1370,53.0,0.0,510.0,4.0,0.0
1371,55.0,512.0,270.0,3.0,0.0
1372,77.0,0.0,1530.0,0.0,0.0
1373,56.0,0.0,510.0,4.0,0.0
1374,56.0,256.0,510.0,3.0,0.0
1375,65.0,0.0,1020.0,1.0,0.0
1376,50.0,512.0,510.0,4.0,0.0
1377,55.0,256.0,270.0,3.0,0.0
1378,53.0,0.0,270.0,3.0,0.0
1379,55.0,0.0,10230.0,3.0,0.0
1380,58.0,512.0,1020.0,1.0,0.0
1381,51.0,0.0,510.0,4.0,0.0
1382,79.0,0.0,510.0,0.0,0.0
1383,50.0,256.0,270.0,4.0,0.0
1384,67.0,0.0,270.0,2.0,0.0
1385,68.0,0.0,270.0,2.0,0.0
1386,48.0,0.0,270.0,4.0,0.0
1387,50.0,0.0,510.0,4.0,0.0
1388,71.0,0.0,510.0,2.0,0.0
1389,77.0,256.0,510.0,0.0,0.0
1390,55.0,512.0,510.0,4.0,0.0
1391,74.0,256.0,270.0,2.0,0.0
1392,75.0,0.0,510.0,0.0,0.0
1393,72.0,0.0,270.0,2.0,0.0
1394,77.0,0.0,510.0,0.0,0.0
1395,53.0,256.0,510.0,4.0,0.0
1396,74.0,0.0,510.0,2.0,0.0
1397,72.0,256.0,270.0,2.0,0.0
1398,74.0,512.0,510.0,0.0,0.0
1399,55.0,0.0,510.0,4.0,0.0
1400,71.0,0.0,270.0,2.0,0.0
1401,48.0,256.0,510.0,4.0,0.0
1402,75.0,0.0,1020.0,0.0,0.0
1403,63.0,256.0,270.0,1.0,0.0
1404,72.0,0.0,15.0,2.0,0.0
1405,55.0,0.0,510.0,4.0,0.0
1406,62.0,0.0,270.0,1.0,0.0
1407,71.0,512.0,270.0,2.0,0.0
1408,72.0,256.0,510.0,2.0,0.0
1409,51.0,0.0,510.0,4.0,0.0
1410,63.0,0.0,510.0,1.0,0.0
1411,48.0,0.0,510.0,4.0,0.0
1412,75.0,256.0,270.0,2.0,0.0
1413,67.0,0.0,270.0,1.0,0.0
1414,65.0,512.0,270.0,1.0,0.0
1415,74.0,0.0,270.0,2.0,0.0
1416,43.0,0.0,510.0,4.0,0.0
1417,75.0,256.0,510.0,2.0,0.0
1418,67.0,0.0,510.0,1.0,0.0
1419,65.0,0.0,270.0,1.0,0.0
1420,48.0,512.0,510.0,4.0,0.0
1421,74.0,256.0,270.0,2.0,0.0
1422,63.0,0.0,270.0,1.0,0.0
1423,72.0,0.0,270.0,2.0,0.0
1424,47.0,0.0,510.0,4.0,0.0
1425,62.0,0.0,510.0,1.0,0.0
1426,71.0,0.0,270.0,0.0,0.0
1427,55.0,0.0,510.0,4.0,0.0
1428,65.0,256.0,270.0,1.0,0.0
1429,74.0,256.0,15.0,2.0,0.0
1430,72.0,0.0,270.0,2.0,0.0
1431,69.0,512.0,270.0,0.0,0.0
1432,63.0,0.0,270.0,1.0,0.0
1433,65.0,256.0,510.0,1.0,0.0
1434,50.0,0.0,510.0,4.0,0.0
1435,74.0,0.0,510.0,2.0,0.0
1436,71.0,0.0,510.0,0.0,0.0
1437,74.0,0.0,270.0,0.0,0.0
1438,62.0,0.0,510.0,1.0,0.0
1439,77.0,256.0,270.0,2.0,0.0
1440,46.0,0.0,510.0,4.0,0.0
1441,75.0,512.0,270.0,2.0,0.0
1442,72.0,0.0,270.0,0.0,0.0
1443,74.0,0.0,510.0,0.0,0.0
1444,43.0,256.0,510.0,4.0,0.0
1445,71.0,0.0,510.0,1.0,0.0
1446,77.0,0.0,510.0,2.0,0.0
1447,72.0,256.0,270.0,0.0,0.0
1448,67.0,0.0,510.0,1.0,0.0
1449,75.0,0.0,270.0,2.0,0.0
1450,55.0,0.0,510.0,4.0,0.0
1451,74.0,0.0,270.0,2.0,0.0
1452,71.0,512.0,270.0,0.0,0.0
1453,75.0,0.0,510.0,2.0,0.0
1454,67.0,512.0,510.0,1.0,0.0
1455,48.0,0.0,510.0,4.0,0.0
1456,72.0,0.0,510.0,0.0,0.0
1457,72.0,512.0,510.0,2.0,0.0
1458,39.0,0.0,510.0,4.0,0.0
1459,68.0,0.0,510.0,2.0,0.0
1460,41.0,512.0,510.0,4.0,0.0
1461,53.0,0.0,510.0,3.0,0.0
1462,48.0,0.0,510.0,4.0,0.0
1463,51.0,512.0,510.0,3.0,0.0
1464,67.0,0.0,510.0,2.0,0.0
1465,68.0,0.0,1530.0,2.0,0.0
1466,53.0,0.0,510.0,4.0,0.0
1467,53.0,512.0,510.0,3.0,0.0
1468,48.0,0.0,510.0,3.0,0.0
1469,44.0,512.0,510.0,4.0,0.0
1470,46.0,256.0,510.0,4.0,0.0
1471,50.0,0.0,510.0,3.0,0.0
1472,38.0,0.0,510.0,4.0,0.0
1473,53.0,0.0,510.0,3.0,0.0
1474,67.0,256.0,270.0,2.0,0.0
1475,65.0,512.0,270.0,2.0,0.0
1476,39.0,0.0,510.0,4.0,0.0
1477,51.0,512.0,510.0,3.0,0.0
1478,67.0,0.0,2550.0,2.0,0.0
1479,46.0,512.0,510.0,4.0,0.0
1480,50.0,0.0,510.0,3.0,0.0
1481,48.0,512.0,510.0,3.0,0.0
1482,51.0,0.0,510.0,4.0,0.0
1483,43.0,0.0,510.0,4.0,0.0
1484,47.0,512.0,510.0,3.0,0.0
1485,44.0,0.0,510.0,4.0,0.0
1486,48.0,256.0,510.0,3.0,0.0
1487,68.0,256.0,270.0,2.0,0.0
1488,41.0,1024.0,510.0,4.0,0.0
1489,50.0,0.0,510.0,3.0,0.0
1490,65.0,0.0,270.0,2.0,0.0
1491,47.0,0.0,2040.0,3.0,0.0
1492,63.0,0.0,1020.0,2.0,0.0
1493,62.0,512.0,510.0,2.0,0.0
1494,43.0,512.0,15.0,4.0,0.0
1495,60.0,0.0,15.0,2.0,0.0
1496,36.0,0.0,1020.0,4.0,0.0
1497,48.0,0.0,2040.0,3.0,0.0
1498,72.0,512.0,510.0,0.0,0.0
1499,67.0,512.0,510.0,0.0,0.0
1500,51.0,0.0,1020.0,4.0,0.0
1501,72.0,512.0,510.0,0.0,0.0
1502,75.0,0.0,510.0,0.0,0.0
1503,47.0,0.0,1020.0,4.0,0.0
1504,79.0,512.0,510.0,0.0,0.0
1505,74.0,512.0,510.0,0.0,0.0
1506,48.0,0.0,1020.0,4.0,0.0
1507,67.0,512.0,510.0,1.0,0.0
1508,75.0,0.0,1530.0,0.0,0.0
1509,60.0,512.0,510.0,1.0,0.0
1510,63.0,512.0,510.0,1.0,0.0
1511,36.0,512.0,1020.0,4.0,0.0
1512,67.0,0.0,510.0,1.0,0.0
1513,74.0,0.0,510.0,0.0,0.0
1514,75.0,512.0,510.0,0.0,0.0
1515,72.0,0.0,510.0,1.0,0.0
1516,69.0,0.0,510.0,1.0,0.0
1517,72.0,512.0,510.0,0.0,0.0
1518,55.0,512.0,510.0,4.0,0.0
1519,74.0,0.0,510.0,0.0,0.0
1520,70.0,512.0,1530.0,1.0,0.0
1521,43.0,0.0,510.0,4.0,0.0
1522,76.0,512.0,15.0,0.0,0.0
1523,48.0,0.0,510.0,4.0,0.0
1524,52.0,0.0,510.0,4.0,0.0
1525,68.0,512.0,510.0,1.0,0.0
1526,70.0,256.0,510.0,1.0,0.0
1527,55.0,0.0,510.0,4.0,0.0
1528,67.0,0.0,510.0,1.0,0.0
1529,74.0,256.0,270.0,0.0,0.0
1530,48.0,512.0,510.0,4.0,0.0
1531,76.0,0.0,270.0,0.0,0.0
1532,77.0,512.0,3570.0,0.0,0.0
1533,53.0,0.0,510.0,4.0,0.0
1534,69.0,512.0,510.0,1.0,0.0
1535,71.0,512.0,510.0,1.0,0.0
1536,51.0,0.0,510.0,4.0,0.0
1537,50.0,512.0,510.0,4.0,0.0
1538,71.0,256.0,1530.0,1.0,0.0
1539,48.0,512.0,510.0,4.0,0.0
1540,50.0,0.0,510.0,4.0,0.0
1541,55.0,0.0,510.0,4.0,0.0
1542,69.0,256.0,270.0,1.0,0.0
1543,71.0,512.0,270.0,1.0,0.0
1544,48.0,512.0,1020.0,4.0,0.0
1545,72.0,256.0,2310.0,1.0,0.0
1546,75.0,0.0,510.0,0.0,0.0
1547,80.0,512.0,510.0,0.0,0.0
1548,41.0,256.0,1020.0,4.0,0.0
1549,77.0,0.0,510.0,0.0,0.0
1550,72.0,256.0,510.0,0.0,0.0
1551,44.0,512.0,1020.0,4.0,0.0
1552,70.0,0.0,270.0,1.0,0.0
1553,75.0,0.0,1020.0,0.0,0.0
1554,68.0,256.0,270.0,1.0,0.0
1555,67.0,0.0,270.0,1.0,0.0
1556,46.0,0.0,1020.0,4.0,0.0
1557,65.0,256.0,510.0,1.0,0.0
1558,67.0,256.0,270.0,1.0,0.0
1559,74.0,512.0,510.0,0.0,0.0
1560,68.0,0.0,270.0,1.0,0.0
1561,70.0,256.0,1290.0,1.0,0.0
1562,79.0,512.0,510.0,0.0,0.0
1563,39.0,256.0,1020.0,4.0,0.0
1564,75.0,0.0,510.0,0.0,0.0
1565,70.0,256.0,510.0,0.0,0.0
1566,43.0,512.0,1020.0,4.0,0.0
1567,68.0,0.0,270.0,1.0,0.0
1568,67.0,256.0,270.0,1.0,0.0
1569,73.0,0.0,1020.0,0.0,0.0
1570,65.0,0.0,270.0,1.0,0.0
1571,63.0,256.0,510.0,1.0,0.0
1572,44.0,0.0,1020.0,4.0,0.0
1573,65.0,256.0,270.0,1.0,0.0
1574,72.0,512.0,510.0,0.0,0.0
1575,67.0,0.0,270.0,1.0,0.0
1576,68.0,512.0,510.0,1.0,0.0
1577,38.0,0.0,1020.0,4.0,0.0
1578,71.0,512.0,1530.0,0.0,0.0
1579,65.0,512.0,510.0,1.0,0.0
1580,62.0,0.0,510.0,1.0,0.0
1581,43.0,512.0,1020.0,4.0,0.0
1582,67.0,0.0,1020.0,1.0,0.0
1583,72.0,0.0,510.0,0.0,0.0
1584,72.0,512.0,510.0,0.0,0.0
1585,39.0,0.0,510.0,4.0,0.0
1586,41.0,0.0,510.0,4.0,0.0
1587,68.0,512.0,510.0,0.0,0.0
1588,65.0,0.0,510.0,1.0,0.0
1589,67.0,0.0,510.0,0.0,0.0
1590,63.0,512.0,510.0,1.0,0.0
1591,60.0,0.0,510.0,1.0,0.0
1592,75.0,0.0,510.0,0.0,0.0
1593,74.0,256.0,510.0,0.0,0.0
1594,43.0,512.0,15.0,4.0,0.0
1595,59.0,0.0,510.0,1.0,0.0
1596,72.0,256.0,270.0,0.0,0.0
1597,67.0,3072.0,510.0,1.0,0.0
1598,71.0,0.0,270.0,0.0,0.0
1599,48.0,1.0,3060.0,4.0,0.0
1600,72.0,0.0,3060.0,0.0,0.0
1601,63.0,0.0,3060.0,1.0,0.0
