,note,step,duration,channel,velocity
0,65.0,0.0,1020.0,2.0,0.0
1,49.0,0.0,1020.0,3.0,0.0
2,68.0,1024.0,1020.0,1.0,0.0
3,73.0,0.0,1020.0,0.0,0.0
4,51.0,0.0,1020.0,3.0,0.0
5,63.0,0.0,1020.0,2.0,0.0
6,72.0,1024.0,1020.0,0.0,0.0
7,66.0,0.0,1020.0,1.0,0.0
8,68.0,0.0,1020.0,1.0,0.0
9,61.0,0.0,2040.0,2.0,0.0
10,53.0,1024.0,1020.0,3.0,0.0
11,73.0,0.0,1020.0,0.0,0.0
12,70.0,0.0,1020.0,1.0,0.0
13,75.0,1024.0,1020.0,0.0,0.0
14,55.0,0.0,1020.0,3.0,0.0
15,60.0,0.0,1020.0,2.0,0.0
16,57.0,512.0,1020.0,3.0,0.0
17,65.0,0.0,1020.0,1.0,0.0
18,75.0,0.0,1020.0,0.0,0.0
19,65.0,0.0,1020.0,1.0,0.0
20,58.0,512.0,510.0,3.0,0.0
21,61.0,0.0,1020.0,2.0,0.0
22,73.0,512.0,1020.0,0.0,0.0
23,56.0,0.0,510.0,3.0,0.0
24,54.0,0.0,1020.0,3.0,0.0
25,70.0,0.0,1020.0,1.0,0.0
26,60.0,512.0,510.0,2.0,0.0
27,75.0,0.0,1020.0,0.0,0.0
28,58.0,2048.0,510.0,2.0,0.0
29,60.0,0.0,2040.0,2.0,0.0
30,53.0,0.0,2040.0,3.0,0.0
31,69.0,1536.0,2040.0,1.0,0.0
32,77.0,0.0,2040.0,0.0,0.0
33,78.0,0.0,1020.0,0.0,0.0
34,70.0,0.0,1020.0,1.0,0.0
35,58.0,512.0,510.0,3.0,0.0
36,60.0,0.0,510.0,3.0,0.0
37,77.0,0.0,1020.0,0.0,0.0
38,61.0,0.0,1530.0,3.0,0.0
39,68.0,512.0,510.0,1.0,0.0
40,61.0,512.0,15.0,2.0,0.0
41,65.0,0.0,510.0,1.0,0.0
42,67.0,512.0,510.0,1.0,0.0
43,75.0,0.0,1020.0,0.0,0.0
44,63.0,0.0,1020.0,2.0,0.0
45,60.0,0.0,510.0,3.0,0.0
46,69.0,512.0,510.0,1.0,0.0
47,73.0,0.0,1020.0,0.0,0.0
48,70.0,0.0,1020.0,1.0,0.0
49,58.0,512.0,510.0,3.0,0.0
50,65.0,0.0,1020.0,2.0,0.0
51,56.0,512.0,510.0,3.0,0.0
52,72.0,0.0,510.0,0.0,0.0
53,68.0,0.0,1020.0,1.0,0.0
54,63.0,0.0,510.0,2.0,0.0
55,54.0,512.0,510.0,3.0,0.0
56,61.0,0.0,510.0,2.0,0.0
57,73.0,0.0,510.0,0.0,0.0
58,53.0,512.0,510.0,3.0,0.0
59,54.0,512.0,510.0,3.0,0.0
60,70.0,0.0,1020.0,1.0,0.0
61,61.0,512.0,1020.0,2.0,0.0
62,75.0,0.0,2040.0,0.0,0.0
63,51.0,0.0,510.0,3.0,0.0
64,68.0,512.0,510.0,1.0,0.0
65,56.0,0.0,1020.0,3.0,0.0
66,60.0,0.0,1020.0,2.0,0.0
67,66.0,2048.0,510.0,1.0,0.0
68,56.0,0.0,2040.0,2.0,0.0
69,49.0,0.0,2040.0,3.0,0.0
70,73.0,0.0,2040.0,0.0,0.0
71,65.0,2048.0,2040.0,1.0,0.0
72,68.0,1024.0,1020.0,1.0,0.0
73,65.0,0.0,1020.0,2.0,0.0
74,73.0,0.0,1020.0,0.0,0.0
75,49.0,0.0,1020.0,3.0,0.0
76,51.0,0.0,1020.0,3.0,0.0
77,66.0,0.0,1020.0,1.0,0.0
78,72.0,1024.0,1020.0,0.0,0.0
79,63.0,0.0,1020.0,2.0,0.0
80,68.0,0.0,1020.0,1.0,0.0
81,61.0,0.0,2040.0,2.0,0.0
82,73.0,0.0,1020.0,0.0,0.0
83,53.0,1024.0,1020.0,3.0,0.0
84,70.0,1024.0,1020.0,1.0,0.0
85,55.0,0.0,1020.0,3.0,0.0
86,57.0,0.0,1020.0,3.0,0.0
87,75.0,0.0,15.0,0.0,0.0
88,60.0,0.0,1020.0,2.0,0.0
89,73.0,512.0,1020.0,0.0,0.0
90,58.0,512.0,510.0,3.0,0.0
91,65.0,512.0,15.0,1.0,0.0
92,61.0,0.0,1020.0,2.0,0.0
93,56.0,0.0,510.0,3.0,0.0
94,60.0,512.0,510.0,2.0,0.0
95,70.0,2048.0,1020.0,1.0,0.0
96,54.0,0.0,1020.0,3.0,0.0
97,75.0,0.0,1020.0,0.0,0.0
98,58.0,0.0,510.0,2.0,0.0
99,77.0,1536.0,2040.0,0.0,0.0
100,69.0,0.0,2040.0,1.0,0.0
101,60.0,0.0,2040.0,2.0,0.0
102,53.0,0.0,2040.0,3.0,0.0
103,58.0,512.0,510.0,3.0,0.0
104,61.0,0.0,1020.0,2.0,0.0
105,70.0,0.0,1020.0,1.0,0.0
106,78.0,512.0,1020.0,0.0,0.0
107,60.0,0.0,510.0,3.0,0.0
108,61.0,512.0,1530.0,3.0,0.0
109,68.0,512.0,510.0,1.0,0.0
110,77.0,0.0,1020.0,0.0,0.0
111,61.0,0.0,1020.0,2.0,0.0
112,65.0,512.0,510.0,1.0,0.0
113,63.0,0.0,1020.0,2.0,0.0
114,75.0,512.0,1020.0,0.0,0.0
115,67.0,0.0,510.0,1.0,0.0
116,69.0,0.0,510.0,1.0,0.0
117,60.0,0.0,510.0,3.0,0.0
118,70.0,0.0,1020.0,1.0,0.0
119,65.0,0.0,1020.0,2.0,0.0
120,73.0,512.0,1020.0,0.0,0.0
121,58.0,512.0,510.0,3.0,0.0
122,56.0,0.0,510.0,3.0,0.0
123,54.0,512.0,510.0,3.0,0.0
124,72.0,0.0,510.0,0.0,0.0
125,63.0,0.0,510.0,2.0,0.0
126,68.0,0.0,1020.0,1.0,0.0
127,73.0,512.0,510.0,0.0,0.0
128,61.0,0.0,510.0,2.0,0.0
129,53.0,0.0,510.0,3.0,0.0
130,54.0,512.0,510.0,3.0,0.0
131,70.0,0.0,1020.0,1.0,0.0
132,75.0,0.0,2040.0,0.0,0.0
133,61.0,0.0,1020.0,2.0,0.0
134,51.0,512.0,510.0,3.0,0.0
135,68.0,512.0,510.0,1.0,0.0
136,56.0,2048.0,1020.0,3.0,0.0
137,60.0,0.0,1020.0,2.0,0.0
138,66.0,0.0,510.0,1.0,0.0
139,56.0,0.0,2040.0,2.0,0.0
140,73.0,0.0,2040.0,0.0,0.0
141,65.0,2048.0,2040.0,1.0,0.0
142,49.0,0.0,2040.0,3.0,0.0
143,65.0,0.0,1020.0,2.0,0.0
144,73.0,0.0,1020.0,0.0,0.0
145,68.0,512.0,1020.0,1.0,0.0
146,61.0,0.0,2040.0,3.0,0.0
147,70.0,512.0,1020.0,1.0,0.0
148,66.0,512.0,510.0,2.0,0.0
149,75.0,0.0,510.0,0.0,0.0
150,65.0,0.0,510.0,2.0,0.0
151,77.0,0.0,510.0,0.0,0.0
152,60.0,0.0,510.0,3.0,0.0
153,63.0,512.0,510.0,2.0,0.0
154,78.0,0.0,1020.0,0.0,0.0
155,69.0,0.0,510.0,1.0,0.0
156,61.0,512.0,510.0,2.0,0.0
157,58.0,0.0,510.0,3.0,0.0
158,70.0,0.0,510.0,1.0,0.0
159,57.0,512.0,1020.0,3.0,0.0
160,60.0,0.0,1020.0,2.0,0.0
161,77.0,512.0,510.0,0.0,0.0
162,72.0,0.0,1020.0,1.0,0.0
163,75.0,0.0,510.0,0.0,0.0
164,61.0,0.0,510.0,2.0,0.0
165,65.0,0.0,1020.0,1.0,0.0
166,58.0,512.0,510.0,3.0,0.0
167,73.0,0.0,1020.0,0.0,0.0
168,56.0,512.0,510.0,3.0,0.0
169,60.0,0.0,510.0,2.0,0.0
170,70.0,0.0,1530.0,1.0,0.0
171,58.0,0.0,1020.0,2.0,0.0
172,75.0,0.0,510.0,0.0,0.0
173,54.0,512.0,510.0,3.0,0.0
174,73.0,512.0,510.0,0.0,0.0
175,51.0,0.0,510.0,3.0,0.0
176,65.0,512.0,510.0,2.0,0.0
177,72.0,0.0,1020.0,0.0,0.0
178,53.0,0.0,1020.0,3.0,0.0
179,63.0,2048.0,510.0,2.0,0.0
180,69.0,0.0,510.0,1.0,0.0
181,70.0,0.0,2040.0,0.0,0.0
182,46.0,0.0,2040.0,3.0,0.0
183,65.0,0.0,2040.0,1.0,0.0
184,61.0,2048.0,2040.0,2.0,0.0
185,67.0,512.0,1020.0,1.0,0.0
186,60.0,0.0,1020.0,2.0,0.0
187,52.0,0.0,1020.0,3.0,0.0
188,72.0,0.0,1020.0,0.0,0.0
189,68.0,512.0,1020.0,0.0,0.0
190,53.0,512.0,510.0,3.0,0.0
191,68.0,0.0,510.0,1.0,0.0
192,60.0,0.0,1020.0,2.0,0.0
193,51.0,0.0,510.0,3.0,0.0
194,66.0,512.0,1020.0,1.0,0.0
195,49.0,0.0,1530.0,3.0,0.0
196,61.0,512.0,1020.0,2.0,0.0
197,68.0,0.0,1020.0,0.0,0.0
198,65.0,0.0,510.0,1.0,0.0
199,67.0,0.0,510.0,1.0,0.0
200,75.0,512.0,1020.0,0.0,0.0
201,58.0,512.0,510.0,2.0,0.0
202,48.0,0.0,510.0,3.0,0.0
203,68.0,0.0,510.0,1.0,0.0
204,60.0,0.0,510.0,2.0,0.0
205,59.0,512.0,510.0,2.0,0.0
206,68.0,0.0,1020.0,1.0,0.0
207,50.0,512.0,1020.0,3.0,0.0
208,77.0,0.0,1020.0,0.0,0.0
209,58.0,0.0,510.0,2.0,0.0
210,78.0,512.0,510.0,0.0,0.0
211,66.0,0.0,510.0,1.0,0.0
212,58.0,0.0,510.0,2.0,0.0
213,51.0,512.0,1530.0,3.0,0.0
214,77.0,512.0,510.0,0.0,0.0
215,54.0,0.0,510.0,2.0,0.0
216,70.0,0.0,510.0,1.0,0.0
217,71.0,1024.0,2040.0,1.0,0.0
218,66.0,0.0,1020.0,2.0,0.0
219,75.0,1024.0,1020.0,0.0,0.0
220,53.0,0.0,510.0,3.0,0.0
221,73.0,2048.0,2040.0,0.0,0.0
222,54.0,0.0,2040.0,3.0,0.0
223,66.0,0.0,2040.0,2.0,0.0
224,70.0,0.0,1020.0,1.0,0.0
225,48.0,512.0,1020.0,3.0,0.0
226,75.0,0.0,1530.0,1.0,0.0
227,80.0,0.0,1020.0,0.0,0.0
228,68.0,0.0,15.0,2.0,0.0
229,49.0,256.0,510.0,3.0,0.0
230,53.0,0.0,510.0,3.0,0.0
231,73.0,256.0,270.0,1.0,0.0
232,72.0,0.0,270.0,1.0,0.0
233,65.0,256.0,510.0,2.0,0.0
234,58.0,0.0,510.0,3.0,0.0
235,77.0,0.0,15.0,0.0,0.0
236,73.0,256.0,1530.0,1.0,0.0
237,56.0,0.0,510.0,3.0,0.0
238,66.0,256.0,270.0,2.0,0.0
239,68.0,512.0,270.0,2.0,0.0
240,54.0,512.0,1530.0,3.0,0.0
241,75.0,0.0,1020.0,0.0,0.0
242,70.0,0.0,510.0,2.0,0.0
243,68.0,512.0,510.0,2.0,0.0
244,72.0,256.0,270.0,1.0,0.0
245,70.0,0.0,270.0,1.0,0.0
246,68.0,512.0,1020.0,1.0,0.0
247,73.0,0.0,1020.0,0.0,0.0
248,61.0,0.0,1020.0,2.0,0.0
249,53.0,0.0,510.0,3.0,0.0
250,51.0,0.0,510.0,3.0,0.0
251,66.0,512.0,510.0,2.0,0.0
252,68.0,0.0,1020.0,1.0,0.0
253,72.0,0.0,1020.0,0.0,0.0
254,56.0,0.0,510.0,3.0,0.0
255,63.0,512.0,510.0,2.0,0.0
256,61.0,0.0,2040.0,2.0,0.0
257,73.0,0.0,1020.0,0.0,0.0
258,53.0,512.0,510.0,3.0,0.0
259,49.0,0.0,510.0,3.0,0.0
260,68.0,1024.0,15.0,1.0,0.0
261,56.0,512.0,1020.0,3.0,0.0
262,75.0,2048.0,2040.0,0.0,0.0
263,60.0,0.0,1020.0,2.0,0.0
264,44.0,0.0,1020.0,3.0,0.0
265,66.0,0.0,510.0,1.0,0.0
266,73.0,0.0,2040.0,0.0,0.0
267,65.0,0.0,2040.0,1.0,0.0
268,56.0,1.0,2040.0,2.0,0.0
269,49.0,0.0,2040.0,3.0,0.0
