,note,step,duration,channel,velocity
0,31.0,0.0,1020.0,4.0,0.0
1,43.0,768.0,1020.0,3.0,0.0
2,55.0,0.0,1020.0,3.0,0.0
3,71.0,0.0,780.0,1.0,0.0
4,62.0,256.0,780.0,2.0,0.0
5,43.0,768.0,1020.0,4.0,0.0
6,72.0,0.0,270.0,1.0,0.0
7,64.0,0.0,270.0,2.0,0.0
8,50.0,512.0,1020.0,3.0,0.0
9,69.0,128.0,780.0,1.0,0.0
10,60.0,0.0,780.0,2.0,0.0
11,38.0,0.0,1020.0,4.0,0.0
12,67.0,128.0,120.0,1.0,0.0
13,59.0,0.0,120.0,2.0,0.0
14,60.0,0.0,120.0,2.0,0.0
15,69.0,0.0,120.0,1.0,0.0
16,67.0,512.0,510.0,1.0,0.0
17,59.0,512.0,1020.0,2.0,0.0
18,40.0,0.0,1020.0,4.0,0.0
19,52.0,0.0,1020.0,3.0,0.0
20,69.0,0.0,510.0,1.0,0.0
21,52.0,0.0,1020.0,4.0,0.0
22,71.0,256.0,510.0,1.0,0.0
23,64.0,768.0,1020.0,3.0,0.0
24,67.0,256.0,780.0,2.0,0.0
25,72.0,0.0,510.0,1.0,0.0
26,69.0,0.0,270.0,2.0,0.0
27,65.0,128.0,780.0,2.0,0.0
28,74.0,512.0,1530.0,1.0,0.0
29,59.0,0.0,1020.0,3.0,0.0
30,47.0,512.0,1020.0,4.0,0.0
31,64.0,128.0,120.0,2.0,0.0
32,65.0,0.0,120.0,2.0,0.0
33,60.0,512.0,1020.0,3.0,0.0
34,48.0,0.0,1020.0,4.0,0.0
35,64.0,512.0,1530.0,2.0,0.0
36,76.0,0.0,510.0,1.0,0.0
37,45.0,512.0,1020.0,4.0,0.0
38,72.0,256.0,1530.0,1.0,0.0
39,57.0,0.0,1020.0,3.0,0.0
40,62.0,0.0,510.0,2.0,0.0
41,50.0,0.0,1020.0,4.0,0.0
42,62.0,512.0,1020.0,3.0,0.0
43,64.0,0.0,510.0,2.0,0.0
44,71.0,256.0,270.0,1.0,0.0
45,66.0,0.0,510.0,2.0,0.0
46,72.0,0.0,270.0,1.0,0.0
47,55.0,0.0,1020.0,3.0,0.0
48,67.0,0.0,1020.0,2.0,0.0
49,71.0,512.0,510.0,1.0,0.0
50,43.0,768.0,1020.0,4.0,0.0
51,69.0,0.0,510.0,1.0,0.0
52,42.0,0.0,1020.0,4.0,0.0
53,54.0,0.0,1020.0,3.0,0.0
54,71.0,0.0,780.0,1.0,0.0
55,62.0,256.0,780.0,2.0,0.0
56,72.0,0.0,270.0,1.0,0.0
57,40.0,512.0,1020.0,4.0,0.0
58,64.0,768.0,15.0,2.0,0.0
59,52.0,0.0,1020.0,3.0,0.0
60,72.0,128.0,780.0,1.0,0.0
61,62.0,128.0,120.0,2.0,0.0
62,71.0,0.0,120.0,1.0,0.0
63,72.0,0.0,120.0,1.0,0.0
64,64.0,0.0,120.0,2.0,0.0
65,74.0,512.0,3570.0,1.0,0.0
66,50.0,0.0,2040.0,3.0,0.0
67,66.0,512.0,510.0,2.0,0.0
68,38.0,0.0,2040.0,4.0,0.0
69,64.0,768.0,510.0,2.0,0.0
70,66.0,256.0,780.0,2.0,0.0
71,40.0,0.0,1020.0,4.0,0.0
72,52.0,0.0,1020.0,3.0,0.0
73,67.0,768.0,15.0,2.0,0.0
74,66.0,128.0,120.0,2.0,0.0
75,67.0,512.0,120.0,2.0,0.0
76,42.0,0.0,1020.0,4.0,0.0
77,69.0,512.0,1530.0,2.0,0.0
78,54.0,0.0,1020.0,3.0,0.0
79,72.0,512.0,510.0,1.0,0.0
80,43.0,0.0,1020.0,4.0,0.0
81,55.0,512.0,1020.0,3.0,0.0
82,71.0,0.0,1020.0,1.0,0.0
83,67.0,0.0,510.0,2.0,0.0
84,45.0,0.0,2040.0,4.0,0.0
85,69.0,0.0,510.0,1.0,0.0
86,57.0,0.0,2040.0,3.0,0.0
87,66.0,512.0,510.0,2.0,0.0
88,67.0,512.0,510.0,1.0,0.0
89,64.0,0.0,510.0,2.0,0.0
90,62.0,0.0,1530.0,2.0,0.0
91,66.0,512.0,510.0,1.0,0.0
92,72.0,512.0,510.0,1.0,0.0
93,55.0,0.0,2040.0,3.0,0.0
94,43.0,0.0,2040.0,4.0,0.0
95,71.0,512.0,510.0,1.0,0.0
96,69.0,512.0,510.0,1.0,0.0
97,59.0,0.0,510.0,2.0,0.0
98,64.0,512.0,1530.0,2.0,0.0
99,67.0,512.0,510.0,1.0,0.0
100,71.0,512.0,510.0,1.0,0.0
101,54.0,0.0,1530.0,3.0,0.0
102,42.0,512.0,1530.0,4.0,0.0
103,69.0,0.0,510.0,1.0,0.0
104,67.0,512.0,510.0,1.0,0.0
105,57.0,0.0,510.0,2.0,0.0
106,66.0,0.0,510.0,1.0,0.0
107,62.0,0.0,3060.0,2.0,0.0
108,48.0,0.0,510.0,4.0,0.0
109,60.0,0.0,510.0,3.0,0.0
110,69.0,512.0,510.0,1.0,0.0
111,47.0,0.0,510.0,4.0,0.0
112,59.0,512.0,510.0,3.0,0.0
113,67.0,0.0,510.0,1.0,0.0
114,45.0,0.0,510.0,4.0,0.0
115,66.0,0.0,510.0,1.0,0.0
116,57.0,512.0,510.0,3.0,0.0
117,64.0,0.0,510.0,1.0,0.0
118,55.0,0.0,510.0,3.0,0.0
119,43.0,512.0,510.0,4.0,0.0
120,66.0,0.0,510.0,1.0,0.0
121,54.0,0.0,510.0,3.0,0.0
122,42.0,512.0,510.0,4.0,0.0
123,67.0,512.0,1020.0,1.0,0.0
124,61.0,0.0,1530.0,2.0,0.0
125,52.0,512.0,510.0,3.0,0.0
126,40.0,0.0,510.0,4.0,0.0
127,47.0,0.0,510.0,4.0,0.0
128,59.0,0.0,510.0,3.0,0.0
129,45.0,0.0,510.0,4.0,0.0
130,66.0,256.0,510.0,1.0,0.0
131,57.0,0.0,510.0,3.0,0.0
132,55.0,0.0,510.0,3.0,0.0
133,59.0,256.0,270.0,2.0,0.0
134,43.0,512.0,510.0,4.0,0.0
135,64.0,0.0,510.0,1.0,0.0
136,61.0,0.0,270.0,2.0,0.0
137,62.0,256.0,1530.0,1.0,0.0
138,62.0,512.0,510.0,2.0,0.0
139,54.0,0.0,1020.0,3.0,0.0
140,42.0,512.0,1020.0,4.0,0.0
141,60.0,0.0,510.0,2.0,0.0
142,59.0,256.0,780.0,2.0,0.0
143,55.0,768.0,1020.0,3.0,0.0
144,43.0,0.0,1020.0,4.0,0.0
145,64.0,0.0,510.0,1.0,0.0
146,60.0,0.0,270.0,2.0,0.0
147,57.0,128.0,780.0,2.0,0.0
148,66.0,0.0,1020.0,1.0,0.0
149,39.0,512.0,1020.0,4.0,0.0
150,51.0,0.0,1020.0,3.0,0.0
151,55.0,128.0,120.0,2.0,0.0
152,57.0,0.0,120.0,2.0,0.0
153,55.0,0.0,510.0,2.0,0.0
154,52.0,0.0,1020.0,3.0,0.0
155,64.0,512.0,510.0,1.0,0.0
156,71.0,0.0,3060.0,0.0,0.0
157,57.0,0.0,510.0,2.0,0.0
158,66.0,512.0,510.0,1.0,0.0
159,40.0,0.0,15.0,4.0,0.0
160,59.0,512.0,510.0,2.0,0.0
161,67.0,0.0,3060.0,1.0,0.0
162,52.0,0.0,1020.0,3.0,0.0
163,60.0,0.0,510.0,2.0,0.0
164,47.0,0.0,1020.0,3.0,0.0
165,62.0,512.0,510.0,2.0,0.0
166,35.0,0.0,1020.0,4.0,0.0
167,55.0,512.0,510.0,2.0,0.0
168,48.0,0.0,1020.0,3.0,0.0
169,69.0,0.0,3060.0,0.0,0.0
170,64.0,512.0,510.0,2.0,0.0
171,36.0,0.0,1020.0,4.0,0.0
172,62.0,512.0,510.0,2.0,0.0
173,66.0,0.0,510.0,1.0,0.0
174,33.0,0.0,1020.0,4.0,0.0
175,45.0,0.0,1020.0,3.0,0.0
176,60.0,512.0,510.0,2.0,0.0
177,64.0,0.0,510.0,2.0,0.0
178,64.0,512.0,510.0,1.0,0.0
179,66.0,256.0,1530.0,1.0,0.0
180,62.0,512.0,510.0,2.0,0.0
181,50.0,0.0,1020.0,3.0,0.0
182,38.0,512.0,1020.0,4.0,0.0
183,60.0,0.0,510.0,2.0,0.0
184,67.0,0.0,2040.0,0.0,0.0
185,40.0,0.0,1020.0,3.0,0.0
186,59.0,512.0,1530.0,2.0,0.0
187,28.0,512.0,1020.0,4.0,0.0
188,64.0,256.0,270.0,1.0,0.0
189,63.0,0.0,270.0,1.0,0.0
190,64.0,0.0,1020.0,1.0,0.0
191,52.0,0.0,1020.0,3.0,0.0
192,40.0,0.0,1020.0,4.0,0.0
193,60.0,512.0,510.0,2.0,0.0
194,42.0,0.0,1020.0,4.0,0.0
195,69.0,128.0,780.0,0.0,0.0
196,62.0,256.0,1530.0,1.0,0.0
197,54.0,0.0,1020.0,3.0,0.0
198,59.0,256.0,510.0,2.0,0.0
199,57.0,0.0,510.0,2.0,0.0
200,71.0,128.0,120.0,0.0,0.0
201,72.0,512.0,120.0,0.0,0.0
202,55.0,0.0,1020.0,3.0,0.0
203,55.0,0.0,1020.0,2.0,0.0
204,43.0,512.0,1020.0,4.0,0.0
205,71.0,256.0,780.0,0.0,0.0
206,67.0,0.0,510.0,1.0,0.0
207,66.0,256.0,510.0,1.0,0.0
208,57.0,0.0,1020.0,3.0,0.0
209,45.0,0.0,1020.0,4.0,0.0
210,72.0,0.0,15.0,0.0,0.0
211,64.0,0.0,510.0,1.0,0.0
212,71.0,128.0,120.0,0.0,0.0
213,72.0,512.0,120.0,0.0,0.0
214,62.0,512.0,510.0,1.0,0.0
215,47.0,256.0,1020.0,4.0,0.0
216,74.0,256.0,1290.0,0.0,0.0
217,59.0,0.0,1020.0,3.0,0.0
218,71.0,0.0,510.0,1.0,0.0
219,69.0,256.0,510.0,1.0,0.0
220,48.0,512.0,1020.0,4.0,0.0
221,60.0,0.0,1020.0,3.0,0.0
222,77.0,0.0,270.0,0.0,0.0
223,67.0,0.0,510.0,1.0,0.0
224,76.0,256.0,270.0,0.0,0.0
225,74.0,0.0,270.0,0.0,0.0
226,72.0,256.0,1530.0,0.0,0.0
227,66.0,512.0,510.0,1.0,0.0
228,45.0,0.0,1020.0,4.0,0.0
229,57.0,0.0,1020.0,3.0,0.0
230,67.0,512.0,510.0,1.0,0.0
231,50.0,0.0,1020.0,4.0,0.0
232,62.0,0.0,1020.0,3.0,0.0
233,64.0,0.0,510.0,1.0,0.0
234,66.0,0.0,510.0,1.0,0.0
235,71.0,256.0,270.0,0.0,0.0
236,72.0,512.0,270.0,0.0,0.0
237,43.0,0.0,2040.0,4.0,0.0
238,67.0,512.0,510.0,1.0,0.0
239,55.0,0.0,2040.0,3.0,0.0
240,71.0,0.0,5130.0,0.0,0.0
241,69.0,512.0,510.0,1.0,0.0
242,71.0,768.0,1020.0,2.0,0.0
243,71.0,512.0,510.0,1.0,0.0
244,72.0,0.0,510.0,1.0,0.0
245,42.0,0.0,1020.0,4.0,0.0
246,75.0,0.0,1020.0,1.0,0.0
247,69.0,128.0,780.0,2.0,0.0
248,54.0,0.0,1020.0,3.0,0.0
249,67.0,128.0,120.0,2.0,0.0
250,69.0,512.0,120.0,2.0,0.0
251,76.0,0.0,510.0,1.0,0.0
252,40.0,0.0,1020.0,4.0,0.0
253,52.0,512.0,1020.0,3.0,0.0
254,67.0,512.0,510.0,2.0,0.0
255,64.0,0.0,510.0,2.0,0.0
256,67.0,0.0,510.0,1.0,0.0
257,66.0,256.0,510.0,2.0,0.0
258,52.0,0.0,1020.0,4.0,0.0
259,69.0,256.0,780.0,1.0,0.0
260,64.0,0.0,1020.0,3.0,0.0
261,69.0,0.0,510.0,2.0,0.0
262,50.0,0.0,1020.0,4.0,0.0
263,71.0,512.0,15.0,1.0,0.0
264,62.0,0.0,1020.0,3.0,0.0
265,67.0,256.0,510.0,2.0,0.0
266,66.0,0.0,510.0,2.0,0.0
267,69.0,128.0,120.0,1.0,0.0
268,71.0,512.0,120.0,1.0,0.0
269,64.0,512.0,510.0,2.0,0.0
270,60.0,768.0,1020.0,3.0,0.0
271,48.0,0.0,1020.0,4.0,0.0
272,72.0,512.0,3570.0,1.0,0.0
273,62.0,0.0,510.0,2.0,0.0
274,48.0,0.0,1020.0,3.0,0.0
275,64.0,256.0,780.0,2.0,0.0
276,36.0,0.0,1020.0,4.0,0.0
277,65.0,768.0,270.0,2.0,0.0
278,50.0,512.0,1020.0,3.0,0.0
279,65.0,128.0,780.0,2.0,0.0
280,38.0,0.0,1020.0,4.0,0.0
281,64.0,128.0,120.0,2.0,0.0
282,65.0,0.0,120.0,2.0,0.0
283,40.0,512.0,1020.0,4.0,0.0
284,52.0,0.0,1020.0,3.0,0.0
285,67.0,0.0,1020.0,2.0,0.0
286,76.0,0.0,510.0,1.0,0.0
287,53.0,512.0,1020.0,3.0,0.0
288,74.0,512.0,510.0,1.0,0.0
289,41.0,0.0,1020.0,4.0,0.0
290,69.0,0.0,1020.0,2.0,0.0
291,72.0,0.0,510.0,1.0,0.0
292,62.0,512.0,1020.0,2.0,0.0
293,71.0,512.0,510.0,1.0,0.0
294,55.0,0.0,2040.0,3.0,0.0
295,43.0,512.0,2040.0,4.0,0.0
296,74.0,0.0,510.0,1.0,0.0
297,64.0,0.0,2040.0,2.0,0.0
298,72.0,512.0,510.0,1.0,0.0
299,71.0,0.0,510.0,1.0,0.0
300,53.0,0.0,2040.0,3.0,0.0
301,69.0,512.0,510.0,1.0,0.0
302,41.0,512.0,2040.0,4.0,0.0
303,72.0,512.0,510.0,1.0,0.0
304,62.0,512.0,1530.0,2.0,0.0
305,71.0,512.0,510.0,1.0,0.0
306,69.0,0.0,510.0,1.0,0.0
307,52.0,512.0,2040.0,3.0,0.0
308,40.0,0.0,2040.0,4.0,0.0
309,68.0,0.0,1530.0,1.0,0.0
310,65.0,512.0,510.0,2.0,0.0
311,64.0,512.0,510.0,2.0,0.0
312,62.0,0.0,510.0,2.0,0.0
313,68.0,0.0,510.0,1.0,0.0
314,41.0,0.0,1020.0,4.0,0.0
315,53.0,512.0,1020.0,3.0,0.0
316,60.0,0.0,510.0,2.0,0.0
317,69.0,512.0,510.0,1.0,0.0
318,59.0,0.0,510.0,2.0,0.0
319,68.0,0.0,510.0,1.0,0.0
320,38.0,0.0,1020.0,4.0,0.0
321,60.0,0.0,510.0,2.0,0.0
322,69.0,512.0,510.0,1.0,0.0
323,50.0,0.0,1020.0,3.0,0.0
324,62.0,0.0,510.0,2.0,0.0
325,71.0,512.0,510.0,1.0,0.0
326,59.0,512.0,510.0,2.0,0.0
327,52.0,0.0,1020.0,3.0,0.0
328,40.0,512.0,1020.0,4.0,0.0
329,68.0,0.0,1530.0,1.0,0.0
330,65.0,0.0,510.0,2.0,0.0
331,64.0,256.0,510.0,2.0,0.0
332,40.0,0.0,1020.0,3.0,0.0
333,28.0,0.0,1020.0,4.0,0.0
334,66.0,256.0,270.0,1.0,0.0
335,62.0,0.0,510.0,2.0,0.0
336,68.0,512.0,270.0,1.0,0.0
337,60.0,512.0,510.0,2.0,0.0
338,33.0,512.0,1020.0,4.0,0.0
339,69.0,0.0,2040.0,1.0,0.0
340,45.0,0.0,1020.0,3.0,0.0
341,59.0,0.0,510.0,2.0,0.0
342,45.0,0.0,1020.0,4.0,0.0
343,57.0,0.0,1020.0,3.0,0.0
344,60.0,512.0,510.0,2.0,0.0
345,57.0,512.0,510.0,2.0,0.0
346,43.0,0.0,1020.0,4.0,0.0
347,55.0,512.0,1020.0,3.0,0.0
348,59.0,512.0,510.0,2.0,0.0
349,61.0,0.0,510.0,2.0,0.0
350,54.0,0.0,2040.0,3.0,0.0
351,62.0,512.0,510.0,2.0,0.0
352,42.0,256.0,2040.0,4.0,0.0
353,57.0,768.0,510.0,2.0,0.0
354,69.0,256.0,780.0,1.0,0.0
355,62.0,256.0,1530.0,2.0,0.0
356,71.0,0.0,270.0,1.0,0.0
357,69.0,256.0,270.0,1.0,0.0
358,40.0,0.0,1020.0,4.0,0.0
359,52.0,0.0,1020.0,3.0,0.0
360,67.0,0.0,270.0,1.0,0.0
361,66.0,256.0,270.0,1.0,0.0
362,61.0,0.0,510.0,2.0,0.0
363,67.0,512.0,270.0,1.0,0.0
364,62.0,0.0,1020.0,2.0,0.0
365,50.0,0.0,510.0,3.0,0.0
366,38.0,512.0,510.0,4.0,0.0
367,66.0,0.0,1020.0,1.0,0.0
368,74.0,0.0,3060.0,0.0,0.0
369,64.0,0.0,510.0,3.0,0.0
370,52.0,512.0,510.0,4.0,0.0
371,62.0,0.0,510.0,3.0,0.0
372,67.0,0.0,1020.0,1.0,0.0
373,64.0,512.0,1020.0,2.0,0.0
374,50.0,512.0,510.0,4.0,0.0
375,60.0,0.0,510.0,3.0,0.0
376,48.0,0.0,510.0,4.0,0.0
377,47.0,512.0,510.0,4.0,0.0
378,59.0,0.0,510.0,3.0,0.0
379,69.0,0.0,1020.0,1.0,0.0
380,66.0,512.0,1020.0,2.0,0.0
381,57.0,0.0,510.0,3.0,0.0
382,45.0,0.0,510.0,4.0,0.0
383,71.0,0.0,1020.0,1.0,0.0
384,43.0,512.0,510.0,4.0,0.0
385,67.0,0.0,1020.0,2.0,0.0
386,55.0,0.0,510.0,3.0,0.0
387,71.0,0.0,3060.0,0.0,0.0
388,42.0,512.0,510.0,4.0,0.0
389,54.0,0.0,510.0,3.0,0.0
390,68.0,0.0,2040.0,2.0,0.0
391,52.0,0.0,510.0,3.0,0.0
392,76.0,512.0,1020.0,1.0,0.0
393,40.0,512.0,510.0,4.0,0.0
394,50.0,0.0,510.0,3.0,0.0
395,38.0,0.0,510.0,4.0,0.0
396,74.0,0.0,1020.0,1.0,0.0
397,36.0,0.0,510.0,4.0,0.0
398,48.0,512.0,510.0,3.0,0.0
399,47.0,512.0,510.0,3.0,0.0
400,35.0,0.0,510.0,4.0,0.0
401,72.0,512.0,510.0,1.0,0.0
402,33.0,0.0,2040.0,4.0,0.0
403,69.0,0.0,510.0,2.0,0.0
404,45.0,0.0,2040.0,3.0,0.0
405,67.0,0.0,510.0,2.0,0.0
406,71.0,512.0,510.0,1.0,0.0
407,66.0,0.0,510.0,2.0,0.0
408,69.0,512.0,1020.0,1.0,0.0
409,72.0,512.0,15.0,0.0,0.0
410,64.0,0.0,510.0,2.0,0.0
411,62.0,512.0,1530.0,2.0,0.0
412,47.0,0.0,1020.0,3.0,0.0
413,71.0,0.0,510.0,0.0,0.0
414,67.0,512.0,510.0,1.0,0.0
415,35.0,0.0,1020.0,4.0,0.0
416,65.0,0.0,510.0,1.0,0.0
417,69.0,512.0,510.0,0.0,0.0
418,48.0,0.0,2040.0,3.0,0.0
419,64.0,0.0,1020.0,1.0,0.0
420,67.0,0.0,510.0,0.0,0.0
421,36.0,0.0,2040.0,4.0,0.0
422,69.0,0.0,510.0,0.0,0.0
423,60.0,768.0,510.0,2.0,0.0
424,62.0,512.0,1530.0,1.0,0.0
425,54.0,0.0,1020.0,2.0,0.0
426,69.0,128.0,780.0,0.0,0.0
427,67.0,128.0,120.0,0.0,0.0
428,69.0,512.0,120.0,0.0,0.0
429,35.0,0.0,1020.0,4.0,0.0
430,47.0,0.0,1020.0,3.0,0.0
431,71.0,256.0,1290.0,0.0,0.0
432,62.0,256.0,510.0,1.0,0.0
433,36.0,512.0,1020.0,4.0,0.0
434,48.0,0.0,1020.0,3.0,0.0
435,64.0,0.0,1020.0,1.0,0.0
436,76.0,256.0,270.0,0.0,0.0
437,74.0,256.0,270.0,0.0,0.0
438,72.0,0.0,270.0,0.0,0.0
439,62.0,512.0,2550.0,1.0,0.0
440,38.0,0.0,1020.0,4.0,0.0
441,50.0,0.0,1020.0,3.0,0.0
442,71.0,512.0,1020.0,0.0,0.0
443,55.0,512.0,15.0,2.0,0.0
444,69.0,0.0,510.0,0.0,0.0
445,48.0,512.0,1020.0,3.0,0.0
446,36.0,0.0,1020.0,4.0,0.0
447,54.0,256.0,510.0,2.0,0.0
448,67.0,256.0,270.0,0.0,0.0
449,55.0,0.0,510.0,2.0,0.0
450,69.0,0.0,270.0,0.0,0.0
451,35.0,512.0,2040.0,4.0,0.0
452,67.0,0.0,15360.0,0.0,0.0
453,57.0,512.0,1530.0,2.0,0.0
454,47.0,0.0,2040.0,3.0,0.0
455,64.0,512.0,510.0,1.0,0.0
456,65.0,0.0,1020.0,1.0,0.0
457,62.0,512.0,1020.0,2.0,0.0
458,48.0,512.0,1020.0,3.0,0.0
459,64.0,0.0,1020.0,1.0,0.0
460,36.0,0.0,1020.0,4.0,0.0
461,60.0,512.0,1020.0,2.0,0.0
462,38.0,0.0,1020.0,4.0,0.0
463,50.0,512.0,1020.0,3.0,0.0
464,62.0,0.0,1020.0,1.0,0.0
465,59.0,512.0,1020.0,2.0,0.0
466,60.0,512.0,1530.0,1.0,0.0
467,40.0,0.0,1020.0,4.0,0.0
468,52.0,512.0,1020.0,3.0,0.0
469,57.0,0.0,510.0,2.0,0.0
470,55.0,0.0,1530.0,2.0,0.0
471,41.0,512.0,1020.0,4.0,0.0
472,53.0,0.0,1020.0,3.0,0.0
473,59.0,0.0,510.0,1.0,0.0
474,52.0,0.0,1020.0,3.0,0.0
475,60.0,512.0,510.0,1.0,0.0
476,40.0,0.0,1020.0,4.0,0.0
477,59.0,0.0,510.0,2.0,0.0
478,62.0,512.0,510.0,1.0,0.0
479,50.0,512.0,1020.0,3.0,0.0
480,64.0,512.0,510.0,1.0,0.0
481,38.0,0.0,1020.0,4.0,0.0
482,60.0,0.0,510.0,2.0,0.0
483,65.0,0.0,510.0,1.0,0.0
484,62.0,0.0,510.0,2.0,0.0
485,64.0,512.0,510.0,2.0,0.0
486,36.0,0.0,1020.0,4.0,0.0
487,67.0,512.0,1530.0,1.0,0.0
488,48.0,0.0,1020.0,3.0,0.0
489,60.0,512.0,510.0,2.0,0.0
490,57.0,512.0,1020.0,2.0,0.0
491,38.0,0.0,1020.0,4.0,0.0
492,50.0,0.0,1020.0,3.0,0.0
493,69.0,0.0,510.0,1.0,0.0
494,36.0,0.0,1020.0,4.0,0.0
495,65.0,256.0,1530.0,1.0,0.0
496,59.0,512.0,510.0,2.0,0.0
497,48.0,512.0,1020.0,3.0,0.0
498,60.0,0.0,510.0,2.0,0.0
499,47.0,0.0,1020.0,3.0,0.0
500,35.0,0.0,1020.0,4.0,0.0
501,64.0,256.0,270.0,1.0,0.0
502,65.0,512.0,270.0,1.0,0.0
503,64.0,512.0,1530.0,1.0,0.0
504,36.0,512.0,3060.0,4.0,0.0
505,48.0,0.0,3060.0,3.0,0.0
506,62.0,512.0,15.0,2.0,0.0
507,60.0,0.0,510.0,2.0,0.0
508,59.0,0.0,510.0,2.0,0.0
509,62.0,512.0,510.0,1.0,0.0
510,64.0,512.0,510.0,1.0,0.0
511,60.0,0.0,510.0,2.0,0.0
512,57.0,0.0,510.0,2.0,0.0
513,66.0,0.0,510.0,1.0,0.0
514,59.0,0.0,510.0,2.0,0.0
515,43.0,0.0,1020.0,3.0,0.0
516,31.0,0.0,1020.0,4.0,0.0
517,67.0,512.0,510.0,1.0,0.0
518,60.0,768.0,510.0,2.0,0.0
519,69.0,0.0,510.0,1.0,0.0
520,43.0,0.0,1020.0,4.0,0.0
521,62.0,0.0,780.0,2.0,0.0
522,71.0,256.0,780.0,1.0,0.0
523,55.0,768.0,1020.0,3.0,0.0
524,72.0,0.0,270.0,1.0,0.0
525,64.0,0.0,270.0,2.0,0.0
526,69.0,0.0,780.0,1.0,0.0
527,38.0,0.0,1020.0,4.0,0.0
528,60.0,128.0,780.0,2.0,0.0
529,50.0,0.0,1020.0,3.0,0.0
530,59.0,0.0,120.0,2.0,0.0
531,67.0,128.0,120.0,1.0,0.0
532,60.0,0.0,120.0,2.0,0.0
533,69.0,512.0,120.0,1.0,0.0
534,67.0,512.0,510.0,1.0,0.0
535,52.0,0.0,1020.0,3.0,0.0
536,40.0,512.0,1020.0,4.0,0.0
537,59.0,0.0,1020.0,2.0,0.0
538,69.0,0.0,510.0,1.0,0.0
539,52.0,0.0,1020.0,4.0,0.0
540,64.0,0.0,1020.0,3.0,0.0
541,71.0,256.0,510.0,1.0,0.0
542,67.0,256.0,780.0,2.0,0.0
543,72.0,768.0,510.0,1.0,0.0
544,69.0,0.0,270.0,2.0,0.0
545,47.0,0.0,1020.0,4.0,0.0
546,74.0,512.0,1530.0,1.0,0.0
547,65.0,128.0,780.0,2.0,0.0
548,59.0,512.0,1020.0,3.0,0.0
549,64.0,128.0,120.0,2.0,0.0
550,65.0,0.0,120.0,2.0,0.0
551,60.0,0.0,1020.0,3.0,0.0
552,64.0,512.0,1530.0,2.0,0.0
553,48.0,512.0,1020.0,4.0,0.0
554,76.0,0.0,510.0,1.0,0.0
555,57.0,0.0,1020.0,3.0,0.0
556,72.0,256.0,1530.0,1.0,0.0
557,45.0,512.0,1020.0,4.0,0.0
558,62.0,0.0,510.0,2.0,0.0
559,50.0,512.0,1020.0,4.0,0.0
560,64.0,0.0,510.0,2.0,0.0
561,62.0,0.0,1020.0,3.0,0.0
562,71.0,256.0,270.0,1.0,0.0
563,66.0,0.0,510.0,2.0,0.0
564,72.0,0.0,270.0,1.0,0.0
565,71.0,512.0,510.0,1.0,0.0
566,43.0,0.0,1020.0,4.0,0.0
567,67.0,768.0,1020.0,2.0,0.0
568,55.0,0.0,1020.0,3.0,0.0
569,69.0,0.0,510.0,1.0,0.0
570,62.0,0.0,780.0,2.0,0.0
571,54.0,0.0,1020.0,3.0,0.0
572,42.0,0.0,1020.0,4.0,0.0
573,71.0,256.0,780.0,1.0,0.0
574,72.0,0.0,270.0,1.0,0.0
575,72.0,0.0,780.0,1.0,0.0
576,64.0,768.0,15.0,2.0,0.0
577,40.0,0.0,1020.0,4.0,0.0
578,52.0,0.0,1020.0,3.0,0.0
579,71.0,0.0,120.0,1.0,0.0
580,62.0,128.0,120.0,2.0,0.0
581,72.0,0.0,120.0,1.0,0.0
582,64.0,512.0,120.0,2.0,0.0
583,38.0,0.0,2040.0,4.0,0.0
584,74.0,512.0,3570.0,1.0,0.0
585,50.0,768.0,2040.0,3.0,0.0
586,66.0,512.0,510.0,2.0,0.0
587,64.0,768.0,510.0,2.0,0.0
588,66.0,256.0,780.0,2.0,0.0
589,67.0,0.0,270.0,2.0,0.0
590,40.0,0.0,1020.0,4.0,0.0
591,52.0,0.0,1020.0,3.0,0.0
592,67.0,128.0,780.0,2.0,0.0
593,66.0,128.0,120.0,2.0,0.0
594,67.0,512.0,120.0,2.0,0.0
595,69.0,512.0,1530.0,2.0,0.0
596,42.0,0.0,1020.0,4.0,0.0
597,54.0,512.0,1020.0,3.0,0.0
598,72.0,0.0,510.0,1.0,0.0
599,43.0,0.0,1020.0,4.0,0.0
600,71.0,0.0,1020.0,1.0,0.0
601,55.0,512.0,1020.0,3.0,0.0
602,67.0,0.0,510.0,2.0,0.0
603,66.0,0.0,510.0,2.0,0.0
604,45.0,512.0,2040.0,4.0,0.0
605,57.0,0.0,2040.0,3.0,0.0
606,69.0,512.0,510.0,1.0,0.0
607,64.0,512.0,510.0,2.0,0.0
608,67.0,0.0,510.0,1.0,0.0
609,62.0,512.0,1530.0,2.0,0.0
610,66.0,512.0,510.0,1.0,0.0
611,72.0,0.0,510.0,1.0,0.0
612,71.0,0.0,510.0,1.0,0.0
613,55.0,0.0,2040.0,3.0,0.0
614,43.0,512.0,2040.0,4.0,0.0
615,69.0,0.0,510.0,1.0,0.0
616,59.0,512.0,510.0,2.0,0.0
617,64.0,0.0,1530.0,2.0,0.0
618,67.0,512.0,510.0,1.0,0.0
619,71.0,0.0,510.0,1.0,0.0
620,54.0,0.0,1530.0,3.0,0.0
621,69.0,512.0,510.0,1.0,0.0
622,42.0,512.0,1530.0,4.0,0.0
623,57.0,512.0,510.0,2.0,0.0
624,67.0,0.0,510.0,1.0,0.0
625,66.0,0.0,510.0,1.0,0.0
626,62.0,0.0,3060.0,2.0,0.0
627,60.0,0.0,510.0,3.0,0.0
628,69.0,0.0,510.0,1.0,0.0
629,48.0,512.0,510.0,4.0,0.0
630,47.0,0.0,510.0,4.0,0.0
631,67.0,512.0,510.0,1.0,0.0
632,59.0,0.0,510.0,3.0,0.0
633,57.0,512.0,510.0,3.0,0.0
634,45.0,0.0,510.0,4.0,0.0
635,66.0,0.0,510.0,1.0,0.0
636,43.0,512.0,510.0,4.0,0.0
637,55.0,0.0,510.0,3.0,0.0
638,64.0,0.0,510.0,1.0,0.0
639,54.0,0.0,510.0,3.0,0.0
640,42.0,0.0,510.0,4.0,0.0
641,66.0,512.0,510.0,1.0,0.0
642,52.0,0.0,510.0,3.0,0.0
643,61.0,256.0,1530.0,2.0,0.0
644,67.0,0.0,1020.0,1.0,0.0
645,40.0,512.0,510.0,4.0,0.0
646,59.0,0.0,510.0,3.0,0.0
647,47.0,512.0,510.0,4.0,0.0
648,66.0,0.0,510.0,1.0,0.0
649,57.0,0.0,510.0,3.0,0.0
650,45.0,0.0,510.0,4.0,0.0
651,59.0,256.0,270.0,2.0,0.0
652,43.0,0.0,510.0,4.0,0.0
653,64.0,512.0,510.0,1.0,0.0
654,55.0,0.0,510.0,3.0,0.0
655,61.0,0.0,270.0,2.0,0.0
656,54.0,0.0,1020.0,3.0,0.0
657,42.0,0.0,1020.0,4.0,0.0
658,62.0,512.0,510.0,2.0,0.0
659,62.0,256.0,1530.0,1.0,0.0
660,60.0,512.0,510.0,2.0,0.0
661,43.0,0.0,1020.0,4.0,0.0
662,55.0,768.0,1020.0,3.0,0.0
663,59.0,256.0,780.0,2.0,0.0
664,64.0,0.0,510.0,1.0,0.0
665,60.0,0.0,270.0,2.0,0.0
666,66.0,0.0,1020.0,1.0,0.0
667,57.0,128.0,780.0,2.0,0.0
668,39.0,0.0,1020.0,4.0,0.0
669,51.0,512.0,1020.0,3.0,0.0
670,55.0,128.0,120.0,2.0,0.0
671,57.0,0.0,120.0,2.0,0.0
672,64.0,0.0,510.0,1.0,0.0
673,71.0,0.0,3060.0,0.0,0.0
674,55.0,512.0,510.0,2.0,0.0
675,66.0,0.0,510.0,1.0,0.0
676,57.0,512.0,510.0,2.0,0.0
677,52.0,0.0,15.0,3.0,0.0
678,67.0,0.0,3060.0,1.0,0.0
679,40.0,0.0,15.0,4.0,0.0
680,59.0,512.0,510.0,2.0,0.0
681,60.0,512.0,510.0,2.0,0.0
682,62.0,512.0,510.0,2.0,0.0
683,35.0,0.0,1020.0,4.0,0.0
684,47.0,512.0,1020.0,3.0,0.0
685,55.0,0.0,510.0,2.0,0.0
686,69.0,0.0,3060.0,0.0,0.0
687,48.0,512.0,1020.0,3.0,0.0
688,36.0,0.0,1020.0,4.0,0.0
689,64.0,512.0,510.0,2.0,0.0
690,62.0,0.0,510.0,2.0,0.0
691,60.0,512.0,510.0,2.0,0.0
692,45.0,0.0,1020.0,3.0,0.0
693,33.0,512.0,1020.0,4.0,0.0
694,66.0,0.0,510.0,1.0,0.0
695,64.0,0.0,510.0,1.0,0.0
696,64.0,0.0,510.0,2.0,0.0
697,50.0,0.0,1020.0,3.0,0.0
698,62.0,512.0,510.0,2.0,0.0
699,66.0,256.0,1530.0,1.0,0.0
700,38.0,512.0,1020.0,4.0,0.0
701,60.0,0.0,510.0,2.0,0.0
702,40.0,0.0,1020.0,3.0,0.0
703,28.0,512.0,1020.0,4.0,0.0
704,59.0,512.0,1530.0,2.0,0.0
705,67.0,0.0,2040.0,0.0,0.0
706,64.0,256.0,270.0,1.0,0.0
707,63.0,0.0,270.0,1.0,0.0
708,40.0,0.0,1020.0,4.0,0.0
709,52.0,0.0,1020.0,3.0,0.0
710,64.0,0.0,1020.0,1.0,0.0
711,60.0,512.0,510.0,2.0,0.0
712,69.0,128.0,780.0,0.0,0.0
713,42.0,512.0,1020.0,4.0,0.0
714,54.0,0.0,1020.0,3.0,0.0
715,62.0,256.0,1530.0,1.0,0.0
716,59.0,256.0,510.0,2.0,0.0
717,57.0,0.0,510.0,2.0,0.0
718,71.0,128.0,120.0,0.0,0.0
719,72.0,0.0,120.0,0.0,0.0
720,43.0,0.0,1020.0,4.0,0.0
721,71.0,256.0,780.0,0.0,0.0
722,55.0,512.0,1020.0,3.0,0.0
723,55.0,0.0,1020.0,2.0,0.0
724,67.0,0.0,510.0,1.0,0.0
725,72.0,0.0,270.0,0.0,0.0
726,57.0,512.0,1020.0,3.0,0.0
727,66.0,256.0,510.0,1.0,0.0
728,45.0,0.0,1020.0,4.0,0.0
729,72.0,128.0,780.0,0.0,0.0
730,64.0,0.0,510.0,1.0,0.0
731,71.0,128.0,120.0,0.0,0.0
732,72.0,0.0,120.0,0.0,0.0
733,74.0,256.0,1290.0,0.0,0.0
734,62.0,512.0,510.0,1.0,0.0
735,59.0,0.0,1020.0,3.0,0.0
736,47.0,0.0,1020.0,4.0,0.0
737,71.0,256.0,510.0,1.0,0.0
738,60.0,0.0,1020.0,3.0,0.0
739,48.0,0.0,1020.0,4.0,0.0
740,69.0,256.0,510.0,1.0,0.0
741,77.0,0.0,270.0,0.0,0.0
742,67.0,512.0,510.0,1.0,0.0
743,76.0,256.0,270.0,0.0,0.0
744,74.0,0.0,270.0,0.0,0.0
745,57.0,512.0,1020.0,3.0,0.0
746,66.0,512.0,510.0,1.0,0.0
747,45.0,0.0,1020.0,4.0,0.0
748,72.0,256.0,1530.0,0.0,0.0
749,67.0,0.0,510.0,1.0,0.0
750,62.0,0.0,1020.0,3.0,0.0
751,50.0,0.0,1020.0,4.0,0.0
752,64.0,0.0,510.0,1.0,0.0
753,66.0,0.0,510.0,1.0,0.0
754,71.0,256.0,270.0,0.0,0.0
755,72.0,512.0,270.0,0.0,0.0
756,43.0,0.0,2040.0,4.0,0.0
757,55.0,0.0,2040.0,3.0,0.0
758,67.0,512.0,510.0,1.0,0.0
759,71.0,0.0,5130.0,0.0,0.0
760,69.0,512.0,510.0,1.0,0.0
761,71.0,512.0,510.0,1.0,0.0
762,71.0,0.0,1020.0,2.0,0.0
763,72.0,768.0,510.0,1.0,0.0
764,54.0,0.0,1020.0,3.0,0.0
765,69.0,128.0,780.0,2.0,0.0
766,42.0,0.0,1020.0,4.0,0.0
767,75.0,0.0,1020.0,1.0,0.0
768,67.0,128.0,120.0,2.0,0.0
769,69.0,512.0,120.0,2.0,0.0
770,40.0,0.0,1020.0,4.0,0.0
771,67.0,0.0,510.0,2.0,0.0
772,52.0,512.0,1020.0,3.0,0.0
773,76.0,512.0,510.0,1.0,0.0
774,64.0,0.0,510.0,2.0,0.0
775,67.0,0.0,510.0,1.0,0.0
776,66.0,256.0,510.0,2.0,0.0
777,69.0,256.0,780.0,1.0,0.0
778,52.0,0.0,1020.0,4.0,0.0
779,64.0,0.0,1020.0,3.0,0.0
780,69.0,512.0,510.0,2.0,0.0
781,71.0,0.0,270.0,1.0,0.0
782,62.0,0.0,1020.0,3.0,0.0
783,50.0,512.0,1020.0,4.0,0.0
784,67.0,256.0,510.0,2.0,0.0
785,71.0,128.0,780.0,1.0,0.0
786,66.0,0.0,510.0,2.0,0.0
787,69.0,128.0,120.0,1.0,0.0
788,71.0,0.0,120.0,1.0,0.0
789,72.0,512.0,3570.0,1.0,0.0
790,60.0,768.0,1020.0,3.0,0.0
791,48.0,0.0,1020.0,4.0,0.0
792,64.0,512.0,510.0,2.0,0.0
793,62.0,0.0,510.0,2.0,0.0
794,48.0,0.0,1020.0,3.0,0.0
795,36.0,768.0,1020.0,4.0,0.0
796,64.0,256.0,780.0,2.0,0.0
797,65.0,0.0,270.0,2.0,0.0
798,65.0,128.0,780.0,2.0,0.0
799,50.0,0.0,1020.0,3.0,0.0
800,38.0,512.0,1020.0,4.0,0.0
801,64.0,128.0,120.0,2.0,0.0
802,65.0,0.0,120.0,2.0,0.0
803,52.0,0.0,1020.0,3.0,0.0
804,67.0,0.0,1020.0,2.0,0.0
805,40.0,512.0,1020.0,4.0,0.0
806,76.0,0.0,510.0,1.0,0.0
807,53.0,512.0,1020.0,3.0,0.0
808,69.0,0.0,1020.0,2.0,0.0
809,74.0,512.0,510.0,1.0,0.0
810,41.0,0.0,1020.0,4.0,0.0
811,72.0,0.0,510.0,1.0,0.0
812,43.0,0.0,2040.0,4.0,0.0
813,55.0,512.0,2040.0,3.0,0.0
814,62.0,512.0,1020.0,2.0,0.0
815,71.0,512.0,510.0,1.0,0.0
816,74.0,0.0,510.0,1.0,0.0
817,72.0,512.0,510.0,1.0,0.0
818,64.0,0.0,2040.0,2.0,0.0
819,71.0,0.0,510.0,1.0,0.0
820,69.0,512.0,510.0,1.0,0.0
821,53.0,0.0,2040.0,3.0,0.0
822,41.0,512.0,2040.0,4.0,0.0
823,72.0,512.0,510.0,1.0,0.0
824,62.0,512.0,1530.0,2.0,0.0
825,71.0,512.0,510.0,1.0,0.0
826,69.0,0.0,510.0,1.0,0.0
827,68.0,512.0,1530.0,1.0,0.0
828,52.0,0.0,2040.0,3.0,0.0
829,40.0,512.0,2040.0,4.0,0.0
830,65.0,512.0,510.0,2.0,0.0
831,64.0,0.0,510.0,2.0,0.0
832,62.0,0.0,510.0,2.0,0.0
833,68.0,0.0,510.0,1.0,0.0
834,60.0,512.0,510.0,2.0,0.0
835,69.0,0.0,510.0,1.0,0.0
836,41.0,0.0,1020.0,4.0,0.0
837,53.0,512.0,1020.0,3.0,0.0
838,68.0,0.0,510.0,1.0,0.0
839,59.0,0.0,510.0,2.0,0.0
840,69.0,512.0,510.0,1.0,0.0
841,60.0,0.0,510.0,2.0,0.0
842,38.0,512.0,1020.0,4.0,0.0
843,50.0,0.0,1020.0,3.0,0.0
844,62.0,0.0,510.0,2.0,0.0
845,71.0,0.0,510.0,1.0,0.0
846,68.0,0.0,1530.0,1.0,0.0
847,40.0,0.0,1020.0,4.0,0.0
848,52.0,512.0,1020.0,3.0,0.0
849,59.0,512.0,510.0,2.0,0.0
850,65.0,0.0,510.0,2.0,0.0
851,64.0,256.0,510.0,2.0,0.0
852,40.0,0.0,1020.0,3.0,0.0
853,28.0,0.0,1020.0,4.0,0.0
854,62.0,512.0,510.0,2.0,0.0
855,66.0,256.0,270.0,1.0,0.0
856,68.0,0.0,270.0,1.0,0.0
857,45.0,512.0,1020.0,3.0,0.0
858,33.0,0.0,1020.0,4.0,0.0
859,69.0,0.0,2040.0,1.0,0.0
860,60.0,512.0,510.0,2.0,0.0
861,59.0,0.0,510.0,2.0,0.0
862,57.0,512.0,1020.0,3.0,0.0
863,45.0,0.0,1020.0,4.0,0.0
864,60.0,512.0,510.0,2.0,0.0
865,57.0,0.0,510.0,2.0,0.0
866,55.0,0.0,1020.0,3.0,0.0
867,59.0,512.0,510.0,2.0,0.0
868,43.0,0.0,1020.0,4.0,0.0
869,61.0,512.0,510.0,2.0,0.0
870,42.0,0.0,2040.0,4.0,0.0
871,62.0,512.0,510.0,2.0,0.0
872,54.0,0.0,2040.0,3.0,0.0
873,57.0,768.0,510.0,2.0,0.0
874,62.0,256.0,1530.0,2.0,0.0
875,69.0,256.0,780.0,1.0,0.0
876,71.0,256.0,270.0,1.0,0.0
877,52.0,0.0,1020.0,3.0,0.0
878,40.0,0.0,1020.0,4.0,0.0
879,69.0,256.0,270.0,1.0,0.0
880,67.0,0.0,270.0,1.0,0.0
881,66.0,256.0,270.0,1.0,0.0
882,61.0,0.0,510.0,2.0,0.0
883,67.0,512.0,270.0,1.0,0.0
884,62.0,0.0,1020.0,2.0,0.0
885,38.0,0.0,510.0,4.0,0.0
886,74.0,512.0,3060.0,0.0,0.0
887,50.0,512.0,510.0,3.0,0.0
888,66.0,0.0,1020.0,1.0,0.0
889,52.0,512.0,510.0,4.0,0.0
890,64.0,0.0,510.0,3.0,0.0
891,50.0,512.0,510.0,4.0,0.0
892,64.0,0.0,1020.0,2.0,0.0
893,62.0,0.0,510.0,3.0,0.0
894,67.0,512.0,1020.0,1.0,0.0
895,60.0,0.0,510.0,3.0,0.0
896,48.0,0.0,510.0,4.0,0.0
897,59.0,0.0,510.0,3.0,0.0
898,69.0,0.0,1020.0,1.0,0.0
899,66.0,0.0,1020.0,2.0,0.0
900,47.0,512.0,510.0,4.0,0.0
901,45.0,0.0,510.0,4.0,0.0
902,57.0,0.0,510.0,3.0,0.0
903,43.0,512.0,510.0,4.0,0.0
904,67.0,512.0,1020.0,2.0,0.0
905,55.0,0.0,510.0,3.0,0.0
906,71.0,0.0,1020.0,1.0,0.0
907,71.0,0.0,3060.0,0.0,0.0
908,42.0,0.0,510.0,4.0,0.0
909,54.0,0.0,510.0,3.0,0.0
910,52.0,0.0,510.0,3.0,0.0
911,40.0,512.0,510.0,4.0,0.0
912,76.0,0.0,1020.0,1.0,0.0
913,68.0,0.0,2040.0,2.0,0.0
914,50.0,512.0,510.0,3.0,0.0
915,38.0,0.0,510.0,4.0,0.0
916,36.0,512.0,510.0,4.0,0.0
917,74.0,0.0,1020.0,1.0,0.0
918,48.0,0.0,510.0,3.0,0.0
919,47.0,512.0,510.0,3.0,0.0
920,35.0,0.0,510.0,4.0,0.0
921,69.0,0.0,510.0,2.0,0.0
922,72.0,512.0,510.0,1.0,0.0
923,33.0,0.0,2040.0,4.0,0.0
924,72.0,0.0,1530.0,0.0,0.0
925,45.0,512.0,2040.0,3.0,0.0
926,71.0,512.0,510.0,1.0,0.0
927,67.0,0.0,510.0,2.0,0.0
928,66.0,512.0,510.0,2.0,0.0
929,69.0,0.0,1020.0,1.0,0.0
930,72.0,0.0,510.0,0.0,0.0
931,64.0,0.0,510.0,2.0,0.0
932,62.0,512.0,1530.0,2.0,0.0
933,35.0,0.0,1020.0,4.0,0.0
934,67.0,0.0,510.0,1.0,0.0
935,47.0,0.0,1020.0,3.0,0.0
936,71.0,512.0,510.0,0.0,0.0
937,65.0,512.0,510.0,1.0,0.0
938,69.0,0.0,510.0,0.0,0.0
939,67.0,0.0,510.0,0.0,0.0
940,36.0,0.0,2040.0,4.0,0.0
941,64.0,0.0,1020.0,1.0,0.0
942,48.0,512.0,2040.0,3.0,0.0
943,60.0,0.0,510.0,2.0,0.0
944,69.0,768.0,15.0,0.0,0.0
945,62.0,512.0,1530.0,1.0,0.0
946,54.0,0.0,1020.0,2.0,0.0
947,67.0,128.0,120.0,0.0,0.0
948,69.0,0.0,120.0,0.0,0.0
949,55.0,512.0,2550.0,2.0,0.0
950,71.0,256.0,1290.0,0.0,0.0
951,35.0,0.0,1020.0,4.0,0.0
952,47.0,256.0,1020.0,3.0,0.0
953,62.0,0.0,510.0,1.0,0.0
954,36.0,0.0,1020.0,4.0,0.0
955,64.0,0.0,1020.0,1.0,0.0
956,48.0,0.0,1020.0,3.0,0.0
957,76.0,256.0,270.0,0.0,0.0
958,74.0,256.0,270.0,0.0,0.0
959,72.0,512.0,270.0,0.0,0.0
960,38.0,0.0,1020.0,4.0,0.0
961,50.0,0.0,1020.0,3.0,0.0
962,62.0,512.0,2550.0,1.0,0.0
963,71.0,512.0,1020.0,0.0,0.0
964,55.0,0.0,510.0,2.0,0.0
965,36.0,0.0,1020.0,4.0,0.0
966,54.0,256.0,510.0,2.0,0.0
967,48.0,0.0,1020.0,3.0,0.0
968,69.0,0.0,510.0,0.0,0.0
969,67.0,256.0,270.0,0.0,0.0
970,55.0,0.0,510.0,2.0,0.0
971,69.0,512.0,270.0,0.0,0.0
972,57.0,512.0,1530.0,2.0,0.0
973,35.0,0.0,2040.0,4.0,0.0
974,47.0,512.0,2040.0,3.0,0.0
975,67.0,0.0,15360.0,0.0,0.0
976,64.0,512.0,510.0,1.0,0.0
977,65.0,0.0,1020.0,1.0,0.0
978,62.0,512.0,1020.0,2.0,0.0
979,64.0,512.0,1020.0,1.0,0.0
980,36.0,0.0,1020.0,4.0,0.0
981,48.0,0.0,1020.0,3.0,0.0
982,60.0,512.0,1020.0,2.0,0.0
983,38.0,512.0,1020.0,4.0,0.0
984,50.0,0.0,1020.0,3.0,0.0
985,62.0,0.0,1020.0,1.0,0.0
986,59.0,512.0,1020.0,2.0,0.0
987,40.0,0.0,1020.0,4.0,0.0
988,52.0,512.0,1020.0,3.0,0.0
989,60.0,512.0,1530.0,1.0,0.0
990,57.0,0.0,510.0,2.0,0.0
991,41.0,0.0,1020.0,4.0,0.0
992,55.0,0.0,1530.0,2.0,0.0
993,53.0,0.0,1020.0,3.0,0.0
994,59.0,512.0,510.0,1.0,0.0
995,40.0,0.0,1020.0,4.0,0.0
996,52.0,0.0,1020.0,3.0,0.0
997,60.0,512.0,510.0,1.0,0.0
998,59.0,512.0,510.0,2.0,0.0
999,62.0,0.0,510.0,1.0,0.0
1000,64.0,0.0,510.0,1.0,0.0
1001,38.0,0.0,1020.0,4.0,0.0
1002,50.0,512.0,1020.0,3.0,0.0
1003,60.0,512.0,510.0,2.0,0.0
1004,65.0,0.0,510.0,1.0,0.0
1005,62.0,0.0,510.0,2.0,0.0
1006,36.0,0.0,1020.0,4.0,0.0
1007,67.0,512.0,1530.0,1.0,0.0
1008,64.0,512.0,510.0,2.0,0.0
1009,48.0,512.0,1020.0,3.0,0.0
1010,60.0,0.0,510.0,2.0,0.0
1011,57.0,512.0,1020.0,2.0,0.0
1012,38.0,0.0,1020.0,4.0,0.0
1013,50.0,0.0,1020.0,3.0,0.0
1014,69.0,0.0,510.0,1.0,0.0
1015,65.0,256.0,1530.0,1.0,0.0
1016,48.0,0.0,1020.0,3.0,0.0
1017,36.0,0.0,1020.0,4.0,0.0
1018,59.0,512.0,510.0,2.0,0.0
1019,60.0,512.0,510.0,2.0,0.0
1020,47.0,0.0,1020.0,3.0,0.0
1021,35.0,512.0,1020.0,4.0,0.0
1022,64.0,256.0,270.0,1.0,0.0
1023,65.0,0.0,270.0,1.0,0.0
1024,64.0,0.0,1530.0,1.0,0.0
1025,48.0,1024.0,3060.0,3.0,0.0
1026,36.0,0.0,3060.0,4.0,0.0
1027,62.0,512.0,15.0,2.0,0.0
1028,60.0,512.0,510.0,2.0,0.0
1029,62.0,0.0,510.0,1.0,0.0
1030,59.0,512.0,510.0,2.0,0.0
1031,60.0,512.0,510.0,2.0,0.0
1032,64.0,0.0,510.0,1.0,0.0
1033,57.0,0.0,510.0,2.0,0.0
1034,65.0,0.0,510.0,1.0,0.0
1035,31.0,0.0,1020.0,4.0,0.0
1036,59.0,1024.0,1020.0,2.0,0.0
1037,62.0,0.0,1020.0,1.0,0.0
1038,43.0,0.0,1020.0,3.0,0.0
1039,55.0,0.0,1020.0,3.0,0.0
1040,43.0,512.0,1020.0,4.0,0.0
1041,62.0,0.0,510.0,1.0,0.0
1042,54.0,512.0,1020.0,3.0,0.0
1043,64.0,512.0,510.0,1.0,0.0
1044,42.0,0.0,1020.0,4.0,0.0
1045,66.0,0.0,510.0,1.0,0.0
1046,40.0,0.0,2040.0,4.0,0.0
1047,52.0,512.0,2040.0,3.0,0.0
1048,67.0,512.0,510.0,1.0,0.0
1049,66.0,1024.0,510.0,1.0,0.0
1050,67.0,512.0,2550.0,1.0,0.0
1051,59.0,0.0,510.0,2.0,0.0
1052,38.0,0.0,1020.0,4.0,0.0
1053,61.0,512.0,510.0,2.0,0.0
1054,50.0,512.0,1020.0,3.0,0.0
1055,62.0,0.0,510.0,2.0,0.0
1056,37.0,0.0,1530.0,4.0,0.0
1057,49.0,0.0,1530.0,3.0,0.0
1058,64.0,0.0,510.0,2.0,0.0
1059,62.0,0.0,510.0,2.0,0.0
1060,66.0,512.0,510.0,1.0,0.0
1061,64.0,0.0,3060.0,2.0,0.0
1062,67.0,512.0,510.0,1.0,0.0
1063,45.0,0.0,510.0,3.0,0.0
1064,33.0,0.0,510.0,4.0,0.0
1065,71.0,512.0,510.0,1.0,0.0
1066,47.0,0.0,510.0,3.0,0.0
1067,35.0,512.0,510.0,4.0,0.0
1068,69.0,0.0,510.0,1.0,0.0
1069,67.0,512.0,510.0,1.0,0.0
1070,49.0,0.0,510.0,3.0,0.0
1071,37.0,0.0,510.0,4.0,0.0
1072,38.0,0.0,510.0,4.0,0.0
1073,50.0,512.0,510.0,3.0,0.0
1074,66.0,0.0,510.0,1.0,0.0
1075,49.0,0.0,510.0,3.0,0.0
1076,37.0,512.0,510.0,4.0,0.0
1077,67.0,0.0,510.0,1.0,0.0
1078,66.0,512.0,510.0,1.0,0.0
1079,50.0,0.0,1020.0,3.0,0.0
1080,62.0,0.0,510.0,2.0,0.0
1081,38.0,0.0,1020.0,4.0,0.0
1082,67.0,512.0,510.0,1.0,0.0
1083,64.0,0.0,510.0,2.0,0.0
1084,42.0,512.0,1020.0,3.0,0.0
1085,30.0,0.0,1020.0,4.0,0.0
1086,62.0,512.0,510.0,2.0,0.0
1087,69.0,0.0,2040.0,1.0,0.0
1088,60.0,0.0,510.0,2.0,0.0
1089,43.0,0.0,1020.0,3.0,0.0
1090,31.0,512.0,1020.0,4.0,0.0
1091,62.0,512.0,510.0,2.0,0.0
1092,65.0,0.0,510.0,2.0,0.0
1093,40.0,0.0,1020.0,3.0,0.0
1094,62.0,512.0,510.0,2.0,0.0
1095,67.0,0.0,510.0,1.0,0.0
1096,28.0,0.0,1020.0,4.0,0.0
1097,69.0,0.0,510.0,1.0,0.0
1098,65.0,512.0,510.0,2.0,0.0
1099,47.0,0.0,1020.0,4.0,0.0
1100,59.0,512.0,1020.0,3.0,0.0
1101,67.0,512.0,510.0,1.0,0.0
1102,66.0,512.0,3060.0,2.0,0.0
1103,66.0,0.0,510.0,1.0,0.0
1104,64.0,512.0,510.0,1.0,0.0
1105,55.0,0.0,1020.0,3.0,0.0
1106,43.0,0.0,1020.0,4.0,0.0
1107,66.0,512.0,510.0,1.0,0.0
1108,40.0,0.0,1020.0,4.0,0.0
1109,64.0,512.0,510.0,1.0,0.0
1110,52.0,0.0,1020.0,3.0,0.0
1111,66.0,0.0,510.0,1.0,0.0
1112,67.0,512.0,510.0,1.0,0.0
1113,57.0,0.0,1020.0,3.0,0.0
1114,45.0,1024.0,1020.0,4.0,0.0
1115,61.0,0.0,1020.0,2.0,0.0
1116,69.0,0.0,510.0,1.0,0.0
1117,66.0,0.0,1020.0,1.0,0.0
1118,50.0,0.0,1020.0,3.0,0.0
1119,38.0,0.0,1020.0,4.0,0.0
1120,62.0,512.0,510.0,2.0,0.0
1121,67.0,0.0,1020.0,1.0,0.0
1122,40.0,0.0,1020.0,4.0,0.0
1123,60.0,512.0,510.0,2.0,0.0
1124,52.0,0.0,1020.0,3.0,0.0
1125,59.0,512.0,510.0,2.0,0.0
1126,42.0,0.0,1020.0,4.0,0.0
1127,57.0,512.0,510.0,2.0,0.0
1128,69.0,512.0,1530.0,1.0,0.0
1129,54.0,0.0,1020.0,3.0,0.0
1130,60.0,512.0,510.0,2.0,0.0
1131,43.0,512.0,4110.0,4.0,0.0
1132,55.0,0.0,4110.0,3.0,0.0
1133,59.0,0.0,510.0,2.0,0.0
1134,74.0,512.0,3060.0,0.0,0.0
1135,67.0,512.0,510.0,1.0,0.0
1136,64.0,0.0,510.0,2.0,0.0
1137,62.0,512.0,510.0,2.0,0.0
1138,66.0,0.0,510.0,1.0,0.0
1139,69.0,0.0,510.0,1.0,0.0
1140,60.0,512.0,510.0,2.0,0.0
1141,59.0,512.0,510.0,2.0,0.0
1142,67.0,0.0,510.0,1.0,0.0
1143,71.0,0.0,510.0,1.0,0.0
1144,62.0,0.0,510.0,2.0,0.0
1145,61.0,0.0,510.0,2.0,0.0
1146,76.0,512.0,510.0,0.0,0.0
1147,69.0,0.0,2040.0,1.0,0.0
1148,63.0,0.0,510.0,2.0,0.0
1149,78.0,0.0,510.0,0.0,0.0
1150,42.0,0.0,510.0,4.0,0.0
1151,78.0,0.0,1530.0,0.0,0.0
1152,54.0,512.0,510.0,3.0,0.0
1153,63.0,256.0,1530.0,2.0,0.0
1154,59.0,512.0,510.0,3.0,0.0
1155,47.0,0.0,510.0,4.0,0.0
1156,45.0,0.0,510.0,4.0,0.0
1157,57.0,0.0,510.0,3.0,0.0
1158,47.0,0.0,510.0,4.0,0.0
1159,59.0,1024.0,510.0,3.0,0.0
1160,76.0,0.0,270.0,0.0,0.0
1161,61.0,256.0,270.0,2.0,0.0
1162,78.0,0.0,270.0,0.0,0.0
1163,63.0,0.0,270.0,2.0,0.0
1164,40.0,512.0,1020.0,4.0,0.0
1165,52.0,0.0,1020.0,3.0,0.0
1166,64.0,512.0,2550.0,2.0,0.0
1167,66.0,0.0,510.0,1.0,0.0
1168,67.0,512.0,510.0,1.0,0.0
1169,54.0,512.0,1020.0,3.0,0.0
1170,42.0,0.0,1020.0,4.0,0.0
1171,69.0,0.0,510.0,1.0,0.0
1172,71.0,512.0,1530.0,1.0,0.0
1173,43.0,0.0,1020.0,4.0,0.0
1174,79.0,0.0,15.0,0.0,0.0
1175,55.0,0.0,1020.0,3.0,0.0
1176,62.0,512.0,510.0,2.0,0.0
1177,61.0,512.0,2550.0,2.0,0.0
1178,57.0,0.0,2040.0,3.0,0.0
1179,45.0,512.0,2040.0,4.0,0.0
1180,71.0,512.0,510.0,1.0,0.0
1181,69.0,512.0,510.0,1.0,0.0
1182,78.0,0.0,1020.0,0.0,0.0
1183,67.0,0.0,510.0,1.0,0.0
1184,76.0,0.0,1020.0,0.0,0.0
1185,58.0,512.0,1020.0,3.0,0.0
1186,66.0,0.0,3060.0,1.0,0.0
1187,46.0,0.0,1020.0,4.0,0.0
1188,61.0,0.0,510.0,2.0,0.0
1189,59.0,512.0,510.0,2.0,0.0
1190,47.0,0.0,1020.0,4.0,0.0
1191,59.0,512.0,1020.0,3.0,0.0
1192,74.0,0.0,510.0,0.0,0.0
1193,61.0,0.0,510.0,2.0,0.0
1194,76.0,0.0,510.0,0.0,0.0
1195,74.0,512.0,510.0,0.0,0.0
1196,59.0,0.0,510.0,2.0,0.0
1197,45.0,0.0,510.0,4.0,0.0
1198,57.0,0.0,510.0,3.0,0.0
1199,55.0,768.0,510.0,3.0,0.0
1200,61.0,0.0,510.0,2.0,0.0
1201,43.0,0.0,510.0,4.0,0.0
1202,76.0,0.0,510.0,0.0,0.0
1203,62.0,0.0,3060.0,2.0,0.0
1204,42.0,0.0,1020.0,4.0,0.0
1205,54.0,512.0,1020.0,3.0,0.0
1206,78.0,256.0,780.0,0.0,0.0
1207,69.0,0.0,510.0,1.0,0.0
1208,79.0,0.0,270.0,0.0,0.0
1209,78.0,128.0,780.0,0.0,0.0
1210,71.0,256.0,510.0,1.0,0.0
1211,43.0,0.0,1020.0,4.0,0.0
1212,55.0,0.0,1020.0,3.0,0.0
1213,69.0,512.0,510.0,1.0,0.0
1214,79.0,128.0,120.0,0.0,0.0
1215,76.0,0.0,120.0,0.0,0.0
1216,76.0,0.0,1530.0,0.0,0.0
1217,57.0,0.0,1020.0,3.0,0.0
1218,67.0,512.0,510.0,1.0,0.0
1219,45.0,0.0,1020.0,4.0,0.0
1220,66.0,512.0,510.0,1.0,0.0
1221,64.0,256.0,510.0,1.0,0.0
1222,61.0,0.0,1020.0,2.0,0.0
1223,33.0,512.0,1020.0,4.0,0.0
1224,45.0,0.0,1020.0,3.0,0.0
1225,67.0,0.0,510.0,1.0,0.0
1226,74.0,256.0,270.0,0.0,0.0
1227,76.0,0.0,270.0,0.0,0.0
1228,74.0,512.0,5130.0,0.0,0.0
1229,62.0,0.0,1020.0,2.0,0.0
1230,66.0,512.0,510.0,1.0,0.0
1231,50.0,0.0,1020.0,3.0,0.0
1232,38.0,0.0,1020.0,4.0,0.0
1233,74.0,512.0,510.0,1.0,0.0
1234,52.0,512.0,1020.0,3.0,0.0
1235,40.0,0.0,1020.0,4.0,0.0
1236,72.0,512.0,510.0,1.0,0.0
1237,71.0,0.0,510.0,1.0,0.0
1238,54.0,1024.0,1020.0,3.0,0.0
1239,42.0,0.0,1020.0,4.0,0.0
1240,69.0,512.0,510.0,1.0,0.0
1241,72.0,0.0,510.0,1.0,0.0
1242,55.0,0.0,1020.0,3.0,0.0
1243,71.0,0.0,1020.0,1.0,0.0
1244,43.0,0.0,1020.0,4.0,0.0
1245,67.0,512.0,510.0,2.0,0.0
1246,72.0,0.0,1020.0,1.0,0.0
1247,57.0,0.0,1020.0,3.0,0.0
1248,45.0,0.0,1020.0,4.0,0.0
1249,65.0,512.0,510.0,2.0,0.0
1250,64.0,0.0,510.0,2.0,0.0
1251,47.0,0.0,1020.0,4.0,0.0
1252,74.0,512.0,1530.0,1.0,0.0
1253,62.0,512.0,510.0,2.0,0.0
1254,59.0,0.0,1020.0,3.0,0.0
1255,65.0,512.0,510.0,2.0,0.0
1256,60.0,0.0,3570.0,3.0,0.0
1257,64.0,0.0,510.0,2.0,0.0
1258,74.0,0.0,510.0,1.0,0.0
1259,65.0,512.0,510.0,2.0,0.0
1260,64.0,512.0,510.0,2.0,0.0
1261,72.0,0.0,510.0,1.0,0.0
1262,62.0,512.0,510.0,2.0,0.0
1263,71.0,0.0,510.0,1.0,0.0
1264,60.0,512.0,510.0,2.0,0.0
1265,69.0,0.0,510.0,1.0,0.0
1266,72.0,0.0,510.0,1.0,0.0
1267,64.0,512.0,510.0,2.0,0.0
1268,66.0,512.0,1020.0,1.0,0.0
1269,74.0,0.0,3060.0,0.0,0.0
1270,57.0,0.0,1020.0,2.0,0.0
1271,60.0,0.0,510.0,3.0,0.0
1272,48.0,512.0,15.0,4.0,0.0
1273,47.0,512.0,510.0,4.0,0.0
1274,59.0,0.0,510.0,3.0,0.0
1275,67.0,0.0,510.0,1.0,0.0
1276,59.0,0.0,510.0,2.0,0.0
1277,57.0,0.0,510.0,3.0,0.0
1278,45.0,512.0,510.0,4.0,0.0
1279,69.0,0.0,510.0,1.0,0.0
1280,60.0,0.0,510.0,2.0,0.0
1281,43.0,512.0,510.0,4.0,0.0
1282,55.0,0.0,510.0,3.0,0.0
1283,47.0,512.0,510.0,4.0,0.0
1284,59.0,0.0,510.0,3.0,0.0
1285,37.0,0.0,1020.0,4.0,0.0
1286,49.0,0.0,1020.0,3.0,0.0
1287,76.0,256.0,780.0,0.0,0.0
1288,62.0,0.0,15.0,2.0,0.0
1289,71.0,256.0,15.0,1.0,0.0
1290,78.0,0.0,270.0,0.0,0.0
1291,51.0,0.0,2040.0,3.0,0.0
1292,39.0,0.0,2040.0,4.0,0.0
1293,69.0,512.0,510.0,1.0,0.0
1294,78.0,0.0,1530.0,0.0,0.0
1295,60.0,0.0,510.0,2.0,0.0
1296,67.0,0.0,510.0,1.0,0.0
1297,59.0,512.0,510.0,2.0,0.0
1298,57.0,0.0,510.0,2.0,0.0
1299,66.0,256.0,510.0,1.0,0.0
1300,76.0,256.0,270.0,0.0,0.0
1301,69.0,0.0,510.0,1.0,0.0
1302,60.0,0.0,510.0,2.0,0.0
1303,78.0,512.0,270.0,0.0,0.0
1304,79.0,512.0,2040.0,0.0,0.0
1305,59.0,512.0,510.0,2.0,0.0
1306,52.0,512.0,1020.0,3.0,0.0
1307,40.0,0.0,1020.0,4.0,0.0
1308,67.0,0.0,1020.0,1.0,0.0
1309,64.0,0.0,510.0,2.0,0.0
1310,69.0,0.0,1020.0,1.0,0.0
1311,62.0,512.0,510.0,2.0,0.0
1312,42.0,0.0,1020.0,4.0,0.0
1313,54.0,0.0,1020.0,3.0,0.0
1314,60.0,0.0,510.0,2.0,0.0
1315,43.0,0.0,1020.0,4.0,0.0
1316,55.0,0.0,1020.0,3.0,0.0
1317,59.0,512.0,510.0,2.0,0.0
1318,79.0,512.0,1530.0,0.0,0.0
1319,71.0,512.0,1020.0,1.0,0.0
1320,62.0,0.0,510.0,2.0,0.0
1321,64.0,512.0,1020.0,1.0,0.0
1322,45.0,512.0,3060.0,4.0,0.0
1323,57.0,0.0,3060.0,3.0,0.0
1324,61.0,0.0,1020.0,2.0,0.0
1325,83.0,0.0,510.0,0.0,0.0
1326,66.0,0.0,1020.0,1.0,0.0
1327,81.0,512.0,510.0,0.0,0.0
1328,62.0,512.0,1020.0,2.0,0.0
1329,79.0,0.0,510.0,0.0,0.0
1330,67.0,0.0,2040.0,1.0,0.0
1331,64.0,0.0,2040.0,2.0,0.0
1332,78.0,512.0,510.0,0.0,0.0
1333,76.0,0.0,510.0,0.0,0.0
1334,58.0,0.0,1020.0,3.0,0.0
1335,74.0,512.0,510.0,0.0,0.0
1336,46.0,512.0,1020.0,4.0,0.0
1337,73.0,0.0,510.0,0.0,0.0
1338,47.0,256.0,2040.0,4.0,0.0
1339,59.0,0.0,2040.0,3.0,0.0
1340,74.0,0.0,510.0,0.0,0.0
1341,62.0,512.0,510.0,2.0,0.0
1342,73.0,0.0,510.0,0.0,0.0
1343,64.0,512.0,510.0,2.0,0.0
1344,74.0,256.0,1290.0,0.0,0.0
1345,65.0,0.0,1530.0,2.0,0.0
1346,68.0,512.0,15.0,1.0,0.0
1347,69.0,512.0,3570.0,1.0,0.0
1348,57.0,0.0,2040.0,3.0,0.0
1349,45.0,512.0,2040.0,4.0,0.0
1350,73.0,256.0,270.0,0.0,0.0
1351,62.0,512.0,1020.0,2.0,0.0
1352,74.0,256.0,270.0,0.0,0.0
1353,79.0,512.0,270.0,0.0,0.0
1354,78.0,0.0,1020.0,0.0,0.0
1355,61.0,0.0,510.0,2.0,0.0
1356,76.0,0.0,510.0,0.0,0.0
1357,59.0,256.0,510.0,2.0,0.0
1358,55.0,0.0,1020.0,3.0,0.0
1359,43.0,0.0,1020.0,4.0,0.0
1360,74.0,256.0,270.0,0.0,0.0
1361,61.0,0.0,510.0,2.0,0.0
1362,76.0,512.0,270.0,0.0,0.0
1363,42.0,0.0,1020.0,4.0,0.0
1364,54.0,512.0,1020.0,3.0,0.0
1365,62.0,512.0,3570.0,2.0,0.0
1366,74.0,0.0,5130.0,0.0,0.0
1367,66.0,0.0,510.0,1.0,0.0
1368,40.0,512.0,1020.0,4.0,0.0
1369,67.0,512.0,510.0,1.0,0.0
1370,52.0,0.0,1020.0,3.0,0.0
1371,69.0,0.0,510.0,1.0,0.0
1372,38.0,512.0,1020.0,4.0,0.0
1373,71.0,512.0,510.0,1.0,0.0
1374,50.0,0.0,1020.0,3.0,0.0
1375,72.0,0.0,510.0,1.0,0.0
1376,71.0,512.0,3570.0,1.0,0.0
1377,55.0,512.0,3060.0,3.0,0.0
1378,43.0,0.0,3060.0,4.0,0.0
1379,59.0,512.0,510.0,2.0,0.0
1380,60.0,512.0,510.0,2.0,0.0
1381,62.0,512.0,510.0,2.0,0.0
1382,64.0,512.0,510.0,2.0,0.0
1383,65.0,0.0,510.0,2.0,0.0
1384,44.0,512.0,1020.0,4.0,0.0
1385,64.0,512.0,3570.0,2.0,0.0
1386,56.0,0.0,1020.0,3.0,0.0
1387,68.0,0.0,510.0,1.0,0.0
1388,54.0,0.0,1020.0,3.0,0.0
1389,42.0,0.0,1020.0,4.0,0.0
1390,69.0,512.0,510.0,1.0,0.0
1391,71.0,512.0,510.0,1.0,0.0
1392,52.0,0.0,1020.0,3.0,0.0
1393,40.0,0.0,1020.0,4.0,0.0
1394,72.0,512.0,510.0,1.0,0.0
1395,74.0,512.0,510.0,1.0,0.0
1396,57.0,512.0,3060.0,3.0,0.0
1397,45.0,0.0,3060.0,4.0,0.0
1398,72.0,512.0,3570.0,1.0,0.0
1399,60.0,512.0,510.0,2.0,0.0
1400,62.0,512.0,510.0,2.0,0.0
1401,64.0,512.0,510.0,2.0,0.0
1402,65.0,512.0,510.0,2.0,0.0
1403,67.0,0.0,510.0,2.0,0.0
1404,38.0,512.0,1020.0,4.0,0.0
1405,65.0,512.0,3570.0,2.0,0.0
1406,50.0,0.0,1020.0,3.0,0.0
1407,76.0,0.0,510.0,1.0,0.0
1408,52.0,512.0,1020.0,3.0,0.0
1409,74.0,512.0,510.0,1.0,0.0
1410,40.0,0.0,1020.0,4.0,0.0
1411,72.0,0.0,510.0,1.0,0.0
1412,41.0,0.0,1020.0,4.0,0.0
1413,71.0,512.0,510.0,1.0,0.0
1414,53.0,512.0,1020.0,3.0,0.0
1415,69.0,0.0,510.0,1.0,0.0
1416,52.0,0.0,1020.0,3.0,0.0
1417,40.0,512.0,1020.0,4.0,0.0
1418,68.0,0.0,1020.0,1.0,0.0
1419,65.0,0.0,510.0,2.0,0.0
1420,54.0,0.0,1020.0,3.0,0.0
1421,69.0,512.0,1020.0,1.0,0.0
1422,64.0,512.0,510.0,2.0,0.0
1423,42.0,0.0,1020.0,4.0,0.0
1424,62.0,0.0,510.0,2.0,0.0
1425,44.0,0.0,1020.0,4.0,0.0
1426,71.0,512.0,1530.0,1.0,0.0
1427,60.0,512.0,510.0,2.0,0.0
1428,56.0,512.0,1020.0,3.0,0.0
1429,59.0,0.0,510.0,2.0,0.0
1430,45.0,512.0,1020.0,4.0,0.0
1431,60.0,0.0,4110.0,2.0,0.0
1432,57.0,0.0,1020.0,3.0,0.0
1433,74.0,0.0,510.0,1.0,0.0
1434,47.0,512.0,1020.0,4.0,0.0
1435,72.0,512.0,510.0,1.0,0.0
1436,59.0,0.0,1020.0,3.0,0.0
1437,71.0,0.0,510.0,1.0,0.0
1438,60.0,0.0,1020.0,3.0,0.0
1439,69.0,512.0,510.0,1.0,0.0
1440,48.0,0.0,1020.0,4.0,0.0
1441,67.0,512.0,510.0,1.0,0.0
1442,65.0,512.0,510.0,1.0,0.0
1443,50.0,512.0,1020.0,3.0,0.0
1444,38.0,0.0,1020.0,4.0,0.0
1445,69.0,0.0,510.0,1.0,0.0
1446,67.0,512.0,510.0,1.0,0.0
1447,55.0,0.0,1020.0,3.0,0.0
1448,59.0,0.0,1530.0,2.0,0.0
1449,43.0,512.0,1020.0,4.0,0.0
1450,65.0,0.0,510.0,1.0,0.0
1451,64.0,256.0,510.0,1.0,0.0
1452,43.0,0.0,1020.0,3.0,0.0
1453,31.0,0.0,1020.0,4.0,0.0
1454,57.0,256.0,270.0,2.0,0.0
1455,62.0,512.0,510.0,1.0,0.0
1456,59.0,0.0,270.0,2.0,0.0
1457,48.0,0.0,3570.0,3.0,0.0
1458,60.0,512.0,510.0,2.0,0.0
1459,36.0,512.0,3570.0,4.0,0.0
1460,64.0,0.0,510.0,1.0,0.0
1461,62.0,0.0,510.0,2.0,0.0
1462,65.0,512.0,510.0,1.0,0.0
1463,67.0,512.0,510.0,1.0,0.0
1464,64.0,0.0,510.0,2.0,0.0
1465,69.0,512.0,510.0,1.0,0.0
1466,66.0,0.0,510.0,2.0,0.0
1467,67.0,512.0,510.0,2.0,0.0
1468,71.0,0.0,510.0,1.0,0.0
1469,69.0,512.0,510.0,2.0,0.0
1470,72.0,0.0,510.0,1.0,0.0
1471,69.0,0.0,3060.0,0.0,0.0
1472,66.0,0.0,2040.0,1.0,0.0
1473,62.0,512.0,1020.0,2.0,0.0
1474,52.0,0.0,510.0,3.0,0.0
1475,40.0,0.0,510.0,4.0,0.0
1476,38.0,512.0,510.0,4.0,0.0
1477,57.0,0.0,1020.0,2.0,0.0
1478,50.0,0.0,510.0,3.0,0.0
1479,36.0,0.0,510.0,4.0,0.0
1480,48.0,512.0,510.0,3.0,0.0
1481,47.0,512.0,510.0,3.0,0.0
1482,62.0,0.0,2040.0,2.0,0.0
1483,35.0,0.0,510.0,4.0,0.0
1484,65.0,0.0,2040.0,1.0,0.0
1485,45.0,0.0,510.0,3.0,0.0
1486,33.0,512.0,510.0,4.0,0.0
1487,32.0,0.0,510.0,4.0,0.0
1488,44.0,512.0,510.0,3.0,0.0
1489,71.0,512.0,3060.0,0.0,0.0
1490,41.0,512.0,510.0,4.0,0.0
1491,53.0,0.0,510.0,3.0,0.0
1492,56.0,0.0,2040.0,2.0,0.0
1493,52.0,512.0,510.0,3.0,0.0
1494,59.0,0.0,1020.0,1.0,0.0
1495,40.0,0.0,510.0,4.0,0.0
1496,38.0,0.0,510.0,4.0,0.0
1497,50.0,512.0,510.0,3.0,0.0
1498,64.0,0.0,2040.0,1.0,0.0
1499,36.0,0.0,510.0,4.0,0.0
1500,48.0,512.0,510.0,3.0,0.0
1501,35.0,0.0,510.0,4.0,0.0
1502,47.0,0.0,510.0,3.0,0.0
1503,45.0,0.0,1020.0,3.0,0.0
1504,33.0,512.0,1020.0,4.0,0.0
1505,57.0,512.0,510.0,2.0,0.0
1506,72.0,0.0,2040.0,0.0,0.0
1507,59.0,0.0,510.0,2.0,0.0
1508,60.0,512.0,510.0,2.0,0.0
1509,47.0,0.0,1020.0,3.0,0.0
1510,35.0,0.0,1020.0,4.0,0.0
1511,62.0,512.0,510.0,2.0,0.0
1512,48.0,0.0,1020.0,3.0,0.0
1513,36.0,512.0,1020.0,4.0,0.0
1514,72.0,0.0,2040.0,0.0,0.0
1515,64.0,512.0,510.0,2.0,0.0
1516,57.0,0.0,510.0,2.0,0.0
1517,65.0,512.0,510.0,2.0,0.0
1518,50.0,0.0,1020.0,3.0,0.0
1519,38.0,0.0,1020.0,4.0,0.0
1520,57.0,512.0,510.0,2.0,0.0
1521,71.0,512.0,510.0,0.0,0.0
1522,56.0,0.0,510.0,2.0,0.0
1523,40.0,0.0,1020.0,4.0,0.0
1524,52.0,0.0,1020.0,3.0,0.0
1525,62.0,0.0,510.0,2.0,0.0
1526,68.0,512.0,510.0,0.0,0.0
1527,41.0,512.0,1020.0,4.0,0.0
1528,60.0,0.0,510.0,2.0,0.0
1529,53.0,0.0,1020.0,3.0,0.0
1530,69.0,512.0,510.0,0.0,0.0
1531,56.0,0.0,510.0,2.0,0.0
1532,77.0,0.0,510.0,0.0,0.0
1533,76.0,512.0,510.0,0.0,0.0
1534,57.0,0.0,2040.0,2.0,0.0
1535,48.0,0.0,1020.0,3.0,0.0
1536,36.0,0.0,1020.0,4.0,0.0
1537,69.0,0.0,510.0,0.0,0.0
1538,64.0,512.0,510.0,1.0,0.0
1539,38.0,0.0,1020.0,4.0,0.0
1540,65.0,512.0,510.0,1.0,0.0
1541,72.0,512.0,1020.0,0.0,0.0
1542,50.0,0.0,1020.0,3.0,0.0
1543,64.0,0.0,510.0,1.0,0.0
1544,71.0,256.0,510.0,0.0,0.0
1545,52.0,0.0,1020.0,3.0,0.0
1546,56.0,0.0,1020.0,2.0,0.0
1547,40.0,0.0,1020.0,4.0,0.0
1548,62.0,0.0,510.0,1.0,0.0
1549,64.0,0.0,510.0,1.0,0.0
1550,69.0,256.0,270.0,0.0,0.0
1551,71.0,512.0,270.0,0.0,0.0
1552,61.0,512.0,510.0,1.0,0.0
1553,57.0,512.0,1020.0,2.0,0.0
1554,69.0,0.0,8190.0,0.0,0.0
1555,45.0,0.0,1020.0,3.0,0.0
1556,33.0,0.0,1020.0,4.0,0.0
1557,69.0,512.0,1020.0,1.0,0.0
1558,59.0,0.0,1020.0,2.0,0.0
1559,67.0,512.0,510.0,1.0,0.0
1560,61.0,512.0,1020.0,2.0,0.0
1561,65.0,512.0,510.0,1.0,0.0
1562,57.0,0.0,1020.0,3.0,0.0
1563,45.0,0.0,1020.0,4.0,0.0
1564,64.0,0.0,510.0,1.0,0.0
1565,62.0,512.0,1530.0,2.0,0.0
1566,65.0,512.0,510.0,1.0,0.0
1567,62.0,512.0,1020.0,3.0,0.0
1568,50.0,0.0,1020.0,4.0,0.0
1569,69.0,0.0,510.0,1.0,0.0
1570,74.0,0.0,510.0,1.0,0.0
1571,73.0,0.0,510.0,1.0,0.0
1572,64.0,512.0,510.0,2.0,0.0
1573,50.0,0.0,1020.0,3.0,0.0
1574,74.0,0.0,510.0,1.0,0.0
1575,65.0,512.0,510.0,2.0,0.0
1576,38.0,512.0,1020.0,4.0,0.0
1577,76.0,0.0,510.0,1.0,0.0
1578,67.0,0.0,510.0,2.0,0.0
1579,73.0,0.0,1020.0,1.0,0.0
1580,69.0,512.0,510.0,2.0,0.0
1581,33.0,512.0,1020.0,4.0,0.0
1582,45.0,0.0,1020.0,3.0,0.0
1583,70.0,0.0,510.0,2.0,0.0
1584,69.0,512.0,510.0,2.0,0.0
1585,74.0,512.0,1020.0,1.0,0.0
1586,47.0,0.0,1020.0,3.0,0.0
1587,35.0,0.0,1020.0,4.0,0.0
1588,67.0,0.0,510.0,2.0,0.0
1589,65.0,512.0,510.0,2.0,0.0
1590,76.0,512.0,1020.0,1.0,0.0
1591,37.0,0.0,1020.0,4.0,0.0
1592,49.0,0.0,1020.0,3.0,0.0
1593,64.0,0.0,510.0,2.0,0.0
1594,62.0,512.0,510.0,2.0,0.0
1595,38.0,512.0,1020.0,4.0,0.0
1596,50.0,0.0,1020.0,3.0,0.0
1597,77.0,512.0,3570.0,1.0,0.0
1598,76.0,0.0,510.0,2.0,0.0
1599,74.0,512.0,510.0,2.0,0.0
1600,52.0,0.0,1020.0,3.0,0.0
1601,40.0,512.0,1020.0,4.0,0.0
1602,72.0,0.0,510.0,2.0,0.0
1603,53.0,0.0,1020.0,3.0,0.0
1604,41.0,0.0,1020.0,4.0,0.0
1605,70.0,512.0,510.0,2.0,0.0
1606,69.0,512.0,510.0,2.0,0.0
1607,55.0,0.0,1020.0,3.0,0.0
1608,70.0,512.0,1530.0,2.0,0.0
1609,43.0,0.0,1020.0,4.0,0.0
1610,81.0,512.0,510.0,1.0,0.0
1611,45.0,0.0,1020.0,4.0,0.0
1612,79.0,0.0,510.0,1.0,0.0
1613,57.0,512.0,1020.0,3.0,0.0
1614,69.0,0.0,510.0,2.0,0.0
1615,77.0,0.0,510.0,1.0,0.0
1616,58.0,0.0,1020.0,3.0,0.0
1617,67.0,0.0,1530.0,2.0,0.0
1618,76.0,256.0,510.0,1.0,0.0
1619,46.0,0.0,1020.0,4.0,0.0
1620,77.0,256.0,270.0,1.0,0.0
1621,79.0,512.0,270.0,1.0,0.0
1622,45.0,0.0,510.0,4.0,0.0
1623,57.0,512.0,510.0,3.0,0.0
1624,73.0,0.0,1530.0,1.0,0.0
1625,43.0,0.0,510.0,4.0,0.0
1626,70.0,0.0,510.0,2.0,0.0
1627,55.0,512.0,510.0,3.0,0.0
1628,41.0,0.0,510.0,4.0,0.0
1629,69.0,0.0,510.0,2.0,0.0
1630,53.0,512.0,510.0,3.0,0.0
1631,67.0,0.0,510.0,2.0,0.0
1632,52.0,0.0,510.0,3.0,0.0
1633,40.0,512.0,510.0,4.0,0.0
1634,73.0,0.0,510.0,1.0,0.0
1635,65.0,512.0,1530.0,2.0,0.0
1636,50.0,0.0,510.0,3.0,0.0
1637,38.0,512.0,510.0,4.0,0.0
1638,74.0,0.0,1530.0,1.0,0.0
1639,36.0,512.0,510.0,4.0,0.0
1640,48.0,0.0,510.0,3.0,0.0
1641,34.0,0.0,510.0,4.0,0.0
1642,46.0,0.0,510.0,3.0,0.0
1643,31.0,512.0,510.0,4.0,0.0
1644,43.0,0.0,510.0,3.0,0.0
1645,76.0,0.0,510.0,1.0,0.0
1646,67.0,0.0,510.0,2.0,0.0
1647,64.0,512.0,510.0,2.0,0.0
1648,45.0,0.0,1020.0,3.0,0.0
1649,33.0,512.0,1020.0,4.0,0.0
1650,73.0,0.0,1530.0,1.0,0.0
1651,69.0,0.0,510.0,2.0,0.0
1652,45.0,0.0,1020.0,4.0,0.0
1653,67.0,512.0,510.0,2.0,0.0
1654,57.0,0.0,1020.0,3.0,0.0
1655,69.0,512.0,510.0,2.0,0.0
1656,73.0,0.0,510.0,1.0,0.0
1657,50.0,0.0,1020.0,3.0,0.0
1658,74.0,0.0,1020.0,1.0,0.0
1659,38.0,0.0,1020.0,4.0,0.0
1660,66.0,512.0,510.0,2.0,0.0
1661,64.0,768.0,510.0,2.0,0.0
1662,69.0,0.0,780.0,1.0,0.0
1663,62.0,0.0,1020.0,3.0,0.0
1664,50.0,768.0,1020.0,4.0,0.0
1665,66.0,256.0,780.0,2.0,0.0
1666,67.0,0.0,270.0,2.0,0.0
1667,71.0,0.0,270.0,1.0,0.0
1668,57.0,0.0,1020.0,3.0,0.0
1669,45.0,0.0,1020.0,4.0,0.0
1670,64.0,0.0,780.0,2.0,0.0
1671,67.0,128.0,780.0,1.0,0.0
1672,66.0,0.0,120.0,1.0,0.0
1673,62.0,128.0,120.0,2.0,0.0
1674,67.0,512.0,120.0,1.0,0.0
1675,64.0,0.0,120.0,2.0,0.0
1676,59.0,512.0,1020.0,3.0,0.0
1677,62.0,512.0,510.0,2.0,0.0
1678,47.0,0.0,1020.0,4.0,0.0
1679,66.0,0.0,1020.0,1.0,0.0
1680,64.0,0.0,510.0,2.0,0.0
1681,35.0,0.0,1020.0,4.0,0.0
1682,47.0,0.0,1020.0,3.0,0.0
1683,66.0,256.0,510.0,2.0,0.0
1684,74.0,256.0,780.0,1.0,0.0
1685,67.0,0.0,510.0,2.0,0.0
1686,76.0,768.0,270.0,1.0,0.0
1687,54.0,0.0,1020.0,3.0,0.0
1688,72.0,128.0,780.0,1.0,0.0
1689,42.0,0.0,1020.0,4.0,0.0
1690,69.0,256.0,1800.0,2.0,0.0
1691,71.0,128.0,120.0,1.0,0.0
1692,72.0,768.0,120.0,1.0,0.0
1693,43.0,512.0,1020.0,4.0,0.0
1694,71.0,512.0,1530.0,1.0,0.0
1695,55.0,0.0,1020.0,3.0,0.0
1696,71.0,0.0,270.0,2.0,0.0
1697,67.0,0.0,1530.0,2.0,0.0
1698,52.0,0.0,1020.0,3.0,0.0
1699,40.0,0.0,1020.0,4.0,0.0
1700,69.0,512.0,510.0,1.0,0.0
1701,45.0,0.0,1020.0,4.0,0.0
1702,71.0,256.0,510.0,1.0,0.0
1703,57.0,0.0,1020.0,3.0,0.0
1704,73.0,0.0,510.0,1.0,0.0
1705,66.0,256.0,270.0,2.0,0.0
1706,67.0,512.0,270.0,2.0,0.0
1707,50.0,0.0,1020.0,3.0,0.0
1708,38.0,512.0,1020.0,4.0,0.0
1709,74.0,0.0,2550.0,1.0,0.0
1710,66.0,512.0,510.0,2.0,0.0
1711,64.0,0.0,510.0,2.0,0.0
1712,62.0,512.0,510.0,2.0,0.0
1713,52.0,0.0,1020.0,3.0,0.0
1714,40.0,0.0,1020.0,4.0,0.0
1715,60.0,512.0,510.0,2.0,0.0
1716,54.0,512.0,1020.0,3.0,0.0
1717,42.0,0.0,1020.0,4.0,0.0
1718,59.0,512.0,510.0,2.0,0.0
1719,57.0,0.0,510.0,2.0,0.0
1720,72.0,0.0,510.0,1.0,0.0
1721,71.0,512.0,510.0,1.0,0.0
1722,43.0,768.0,2040.0,4.0,0.0
1723,55.0,768.0,1020.0,2.0,0.0
1724,55.0,0.0,2040.0,3.0,0.0
1725,69.0,0.0,510.0,1.0,0.0
1726,62.0,256.0,780.0,2.0,0.0
1727,71.0,0.0,780.0,1.0,0.0
1728,72.0,0.0,270.0,1.0,0.0
1729,64.0,0.0,270.0,2.0,0.0
1730,50.0,0.0,1020.0,3.0,0.0
1731,69.0,0.0,780.0,1.0,0.0
1732,60.0,128.0,780.0,2.0,0.0
1733,38.0,0.0,1020.0,4.0,0.0
1734,59.0,0.0,120.0,2.0,0.0
1735,67.0,128.0,120.0,1.0,0.0
1736,60.0,0.0,120.0,2.0,0.0
1737,69.0,512.0,120.0,1.0,0.0
1738,67.0,512.0,510.0,1.0,0.0
1739,40.0,0.0,1020.0,4.0,0.0
1740,52.0,512.0,1020.0,3.0,0.0
1741,59.0,0.0,1020.0,2.0,0.0
1742,69.0,0.0,510.0,1.0,0.0
1743,52.0,0.0,1020.0,4.0,0.0
1744,64.0,768.0,1020.0,3.0,0.0
1745,67.0,256.0,780.0,2.0,0.0
1746,71.0,256.0,510.0,1.0,0.0
1747,72.0,0.0,510.0,1.0,0.0
1748,69.0,0.0,270.0,2.0,0.0
1749,65.0,128.0,780.0,2.0,0.0
1750,47.0,512.0,1020.0,4.0,0.0
1751,74.0,512.0,1530.0,1.0,0.0
1752,59.0,0.0,1020.0,3.0,0.0
1753,64.0,128.0,120.0,2.0,0.0
1754,65.0,0.0,120.0,2.0,0.0
1755,64.0,512.0,1530.0,2.0,0.0
1756,60.0,0.0,1020.0,3.0,0.0
1757,48.0,512.0,1020.0,4.0,0.0
1758,76.0,0.0,510.0,1.0,0.0
1759,45.0,512.0,1020.0,4.0,0.0
1760,57.0,0.0,1020.0,3.0,0.0
1761,72.0,0.0,1530.0,1.0,0.0
1762,62.0,0.0,510.0,2.0,0.0
1763,62.0,512.0,1020.0,3.0,0.0
1764,50.0,0.0,1020.0,4.0,0.0
1765,64.0,256.0,510.0,2.0,0.0
1766,71.0,256.0,270.0,1.0,0.0
1767,66.0,0.0,510.0,2.0,0.0
1768,72.0,0.0,270.0,1.0,0.0
1769,71.0,0.0,510.0,1.0,0.0
1770,67.0,512.0,510.0,2.0,0.0
1771,43.0,0.0,1020.0,4.0,0.0
1772,55.0,512.0,1020.0,3.0,0.0
1773,72.0,0.0,510.0,1.0,0.0
1774,69.0,0.0,510.0,2.0,0.0
1775,71.0,0.0,510.0,1.0,0.0
1776,45.0,0.0,1020.0,4.0,0.0
1777,67.0,512.0,510.0,2.0,0.0
1778,57.0,512.0,1020.0,3.0,0.0
1779,69.0,0.0,510.0,1.0,0.0
1780,66.0,0.0,510.0,2.0,0.0
1781,59.0,0.0,1020.0,3.0,0.0
1782,64.0,512.0,510.0,2.0,0.0
1783,67.0,0.0,510.0,1.0,0.0
1784,47.0,0.0,1020.0,4.0,0.0
1785,63.0,0.0,510.0,2.0,0.0
1786,66.0,512.0,510.0,1.0,0.0
1787,52.0,0.0,510.0,3.0,0.0
1788,40.0,512.0,510.0,4.0,0.0
1789,67.0,0.0,510.0,1.0,0.0
1790,64.0,0.0,1020.0,2.0,0.0
1791,71.0,512.0,1530.0,0.0,0.0
1792,43.0,0.0,510.0,4.0,0.0
1793,71.0,512.0,510.0,1.0,0.0
1794,55.0,0.0,510.0,3.0,0.0
1795,69.0,0.0,510.0,1.0,0.0
1796,42.0,0.0,510.0,4.0,0.0
1797,54.0,0.0,510.0,3.0,0.0
1798,67.0,0.0,510.0,1.0,0.0
1799,52.0,512.0,510.0,3.0,0.0
1800,40.0,0.0,510.0,4.0,0.0
1801,72.0,0.0,15.0,0.0,0.0
1802,38.0,0.0,510.0,4.0,0.0
1803,50.0,0.0,510.0,3.0,0.0
1804,65.0,256.0,510.0,1.0,0.0
1805,48.0,512.0,510.0,3.0,0.0
1806,36.0,0.0,510.0,4.0,0.0
1807,64.0,0.0,510.0,1.0,0.0
1808,71.0,128.0,120.0,0.0,0.0
1809,72.0,0.0,120.0,0.0,0.0
1810,35.0,0.0,510.0,4.0,0.0
1811,47.0,512.0,510.0,3.0,0.0
1812,62.0,0.0,1530.0,1.0,0.0
1813,74.0,0.0,3060.0,0.0,0.0
1814,54.0,0.0,510.0,2.0,0.0
1815,48.0,512.0,510.0,3.0,0.0
1816,36.0,0.0,510.0,4.0,0.0
1817,55.0,0.0,510.0,2.0,0.0
1818,47.0,0.0,510.0,3.0,0.0
1819,35.0,512.0,510.0,4.0,0.0
1820,59.0,0.0,510.0,2.0,0.0
1821,45.0,0.0,510.0,3.0,0.0
1822,62.0,0.0,510.0,1.0,0.0
1823,33.0,512.0,510.0,4.0,0.0
1824,31.0,0.0,510.0,4.0,0.0
1825,43.0,512.0,510.0,3.0,0.0
1826,60.0,0.0,510.0,2.0,0.0
1827,64.0,0.0,510.0,1.0,0.0
1828,30.0,512.0,510.0,4.0,0.0
1829,62.0,0.0,510.0,2.0,0.0
1830,42.0,0.0,510.0,3.0,0.0
1831,66.0,0.0,510.0,1.0,0.0
1832,72.0,1024.0,1020.0,0.0,0.0
1833,28.0,0.0,1020.0,4.0,0.0
1834,40.0,0.0,1020.0,3.0,0.0
1835,64.0,512.0,510.0,2.0,0.0
1836,67.0,0.0,510.0,1.0,0.0
1837,66.0,0.0,510.0,2.0,0.0
1838,69.0,0.0,510.0,1.0,0.0
1839,71.0,512.0,1020.0,1.0,0.0
1840,67.0,0.0,1020.0,2.0,0.0
1841,52.0,0.0,1020.0,3.0,0.0
1842,40.0,0.0,1020.0,4.0,0.0
1843,71.0,0.0,510.0,0.0,0.0
1844,35.0,0.0,1020.0,4.0,0.0
1845,62.0,0.0,1020.0,2.0,0.0
1846,47.0,128.0,1020.0,3.0,0.0
1847,74.0,256.0,510.0,0.0,0.0
1848,67.0,0.0,1020.0,1.0,0.0
1849,72.0,256.0,270.0,0.0,0.0
1850,71.0,0.0,270.0,0.0,0.0
1851,48.0,0.0,1020.0,3.0,0.0
1852,64.0,512.0,510.0,1.0,0.0
1853,36.0,512.0,1020.0,4.0,0.0
1854,69.0,384.0,120.0,0.0,0.0
1855,60.0,0.0,510.0,2.0,0.0
1856,67.0,0.0,390.0,0.0,0.0
1857,72.0,0.0,510.0,0.0,0.0
1858,66.0,0.0,510.0,1.0,0.0
1859,57.0,0.0,510.0,2.0,0.0
1860,67.0,256.0,510.0,1.0,0.0
1861,71.0,0.0,510.0,0.0,0.0
1862,64.0,0.0,510.0,2.0,0.0
1863,72.0,128.0,270.0,0.0,0.0
1864,45.0,0.0,510.0,3.0,0.0
1865,66.0,0.0,510.0,1.0,0.0
1866,60.0,512.0,510.0,2.0,0.0
1867,33.0,0.0,510.0,4.0,0.0
1868,74.0,128.0,120.0,0.0,0.0
1869,76.0,0.0,120.0,0.0,0.0
1870,35.0,0.0,510.0,4.0,0.0
1871,62.0,512.0,1020.0,2.0,0.0
1872,47.0,512.0,510.0,3.0,0.0
1873,67.0,0.0,510.0,1.0,0.0
1874,74.0,256.0,1530.0,0.0,0.0
1875,42.0,0.0,510.0,3.0,0.0
1876,30.0,0.0,510.0,4.0,0.0
1877,69.0,0.0,510.0,1.0,0.0
1878,71.0,0.0,510.0,1.0,0.0
1879,67.0,512.0,1530.0,2.0,0.0
1880,43.0,0.0,510.0,3.0,0.0
1881,31.0,0.0,510.0,4.0,0.0
1882,36.0,0.0,510.0,4.0,0.0
1883,69.0,0.0,510.0,1.0,0.0
1884,48.0,0.0,510.0,3.0,0.0
1885,76.0,256.0,270.0,0.0,0.0
1886,72.0,512.0,270.0,0.0,0.0
1887,71.0,0.0,1020.0,0.0,0.0
1888,50.0,512.0,2040.0,3.0,0.0
1889,38.0,0.0,2040.0,4.0,0.0
1890,71.0,0.0,510.0,1.0,0.0
1891,72.0,768.0,510.0,1.0,0.0
1892,64.0,0.0,510.0,2.0,0.0
1893,69.0,128.0,780.0,0.0,0.0
1894,65.0,0.0,2040.0,2.0,0.0
1895,74.0,512.0,1530.0,1.0,0.0
1896,67.0,128.0,120.0,0.0,0.0
1897,69.0,0.0,120.0,0.0,0.0
1898,40.0,512.0,1530.0,4.0,0.0
1899,52.0,0.0,1530.0,3.0,0.0
1900,67.0,0.0,15360.0,0.0,0.0
1901,67.0,512.0,510.0,1.0,0.0
1902,64.0,0.0,510.0,2.0,0.0
1903,72.0,512.0,2550.0,1.0,0.0
1904,65.0,0.0,510.0,2.0,0.0
1905,50.0,0.0,510.0,3.0,0.0
1906,38.0,512.0,510.0,4.0,0.0
1907,67.0,0.0,510.0,2.0,0.0
1908,40.0,0.0,510.0,4.0,0.0
1909,52.0,512.0,510.0,3.0,0.0
1910,54.0,0.0,510.0,3.0,0.0
1911,42.0,0.0,510.0,4.0,0.0
1912,69.0,512.0,510.0,2.0,0.0
1913,43.0,0.0,1530.0,4.0,0.0
1914,55.0,0.0,1530.0,3.0,0.0
1915,62.0,512.0,3570.0,2.0,0.0
1916,72.0,512.0,510.0,1.0,0.0
1917,71.0,512.0,510.0,1.0,0.0
1918,69.0,0.0,510.0,1.0,0.0
1919,43.0,512.0,510.0,4.0,0.0
1920,55.0,0.0,510.0,3.0,0.0
1921,67.0,0.0,510.0,1.0,0.0
1922,57.0,512.0,510.0,3.0,0.0
1923,45.0,0.0,510.0,4.0,0.0
1924,47.0,0.0,510.0,4.0,0.0
1925,65.0,512.0,510.0,1.0,0.0
1926,59.0,0.0,510.0,3.0,0.0
1927,60.0,512.0,1530.0,3.0,0.0
1928,48.0,0.0,1530.0,4.0,0.0
1929,62.0,512.0,510.0,2.0,0.0
1930,60.0,0.0,510.0,2.0,0.0
1931,38.0,0.0,510.0,4.0,0.0
1932,59.0,0.0,510.0,2.0,0.0
1933,50.0,512.0,510.0,3.0,0.0
1934,52.0,0.0,510.0,3.0,0.0
1935,40.0,512.0,510.0,4.0,0.0
1936,42.0,512.0,510.0,3.0,0.0
1937,30.0,0.0,510.0,4.0,0.0
1938,31.0,0.0,6150.0,4.0,0.0
1939,43.0,0.0,6150.0,3.0,0.0
1940,64.0,512.0,15.0,1.0,0.0
1941,62.0,0.0,5130.0,1.0,0.0
1942,60.0,512.0,15.0,2.0,0.0
1943,59.0,512.0,510.0,2.0,0.0
1944,57.0,3072.0,510.0,2.0,0.0
1945,59.0,0.0,3060.0,2.0,0.0
