,note,step,duration,channel,velocity
0,75.0,0.0,20.0,0.0,0.0
1,56.0,0.0,20.0,3.0,0.0
2,44.0,0.0,20.0,4.0,0.0
3,75.0,0.0,20.0,5.0,0.0
4,44.0,9.0,20.0,6.0,0.0
5,80.0,0.0,15.0,0.0,0.0
6,44.0,0.0,30.0,3.0,0.0
7,32.0,1.0,30.0,4.0,0.0
8,80.0,0.0,15.0,5.0,0.0
9,56.0,6.0,15.0,6.0,0.0
10,55.0,12.0,15.0,6.0,0.0
11,79.0,0.0,15.0,0.0,0.0
12,79.0,12.0,15.0,5.0,0.0
13,56.0,2.0,30.0,6.0,0.0
14,80.0,0.0,15.0,0.0,0.0
15,75.0,1.0,20.0,1.0,0.0
16,80.0,6.0,15.0,5.0,0.0
17,84.0,0.0,15.0,0.0,0.0
18,84.0,12.0,15.0,5.0,0.0
19,80.0,0.0,15.0,0.0,0.0
20,72.0,1.0,20.0,1.0,0.0
21,80.0,11.0,15.0,5.0,0.0
22,75.0,0.0,15.0,0.0,0.0
23,75.0,12.0,15.0,5.0,0.0
24,72.0,0.0,15.0,0.0,0.0
25,68.0,0.0,20.0,1.0,0.0
26,75.0,0.0,20.0,2.0,0.0
27,56.0,0.0,20.0,3.0,0.0
28,44.0,0.0,20.0,4.0,0.0
29,72.0,11.0,15.0,5.0,0.0
30,44.0,1.0,20.0,6.0,0.0
31,75.0,0.0,15.0,0.0,0.0
32,75.0,8.0,15.0,5.0,0.0
33,68.0,0.0,15.0,0.0,0.0
34,72.0,1.0,20.0,2.0,0.0
35,44.0,0.0,30.0,3.0,0.0
36,32.0,1.0,30.0,4.0,0.0
37,68.0,2.0,15.0,5.0,0.0
38,56.0,4.0,15.0,6.0,0.0
39,55.0,9.0,15.0,6.0,0.0
40,75.0,0.0,15.0,0.0,0.0
41,75.0,12.0,15.0,5.0,0.0
42,56.0,2.0,30.0,6.0,0.0
43,72.0,0.0,15.0,0.0,0.0
44,75.0,0.0,20.0,1.0,0.0
45,68.0,1.0,20.0,2.0,0.0
46,72.0,8.0,15.0,5.0,0.0
47,75.0,0.0,15.0,0.0,0.0
48,75.0,12.0,15.0,5.0,0.0
49,68.0,0.0,15.0,0.0,0.0
50,72.0,1.0,20.0,1.0,0.0
51,68.0,11.0,15.0,5.0,0.0
52,75.0,0.0,15.0,0.0,0.0
53,75.0,12.0,15.0,5.0,0.0
54,72.0,0.0,15.0,0.0,0.0
55,68.0,0.0,20.0,1.0,0.0
56,75.0,0.0,20.0,2.0,0.0
57,56.0,0.0,20.0,3.0,0.0
58,44.0,0.0,20.0,4.0,0.0
59,72.0,11.0,15.0,5.0,0.0
60,44.0,1.0,20.0,6.0,0.0
61,75.0,0.0,15.0,0.0,0.0
62,75.0,12.0,15.0,5.0,0.0
63,80.0,9.0,15.0,0.0,0.0
64,72.0,1.0,20.0,2.0,0.0
65,44.0,0.0,30.0,3.0,0.0
66,32.0,0.0,30.0,4.0,0.0
67,80.0,2.0,15.0,5.0,0.0
68,56.0,3.0,30.0,6.0,0.0
69,79.0,10.0,15.0,0.0,0.0
70,79.0,2.0,15.0,5.0,0.0
71,80.0,6.0,15.0,0.0,0.0
72,75.0,0.0,20.0,1.0,0.0
73,68.0,1.0,20.0,2.0,0.0
74,80.0,2.0,15.0,5.0,0.0
75,84.0,0.0,15.0,0.0,0.0
76,84.0,12.0,15.0,5.0,0.0
77,80.0,0.0,15.0,0.0,0.0
78,72.0,1.0,20.0,1.0,0.0
79,80.0,11.0,15.0,5.0,0.0
80,75.0,0.0,15.0,0.0,0.0
81,75.0,12.0,15.0,5.0,0.0
82,72.0,0.0,15.0,0.0,0.0
83,68.0,0.0,20.0,1.0,0.0
84,75.0,0.0,20.0,2.0,0.0
85,56.0,0.0,20.0,3.0,0.0
86,44.0,0.0,20.0,4.0,0.0
87,72.0,11.0,15.0,5.0,0.0
88,44.0,1.0,20.0,6.0,0.0
89,75.0,0.0,15.0,0.0,0.0
90,75.0,12.0,15.0,5.0,0.0
91,68.0,0.0,15.0,0.0,0.0
92,72.0,0.0,20.0,2.0,0.0
93,44.0,0.0,20.0,3.0,0.0
94,32.0,0.0,20.0,4.0,0.0
95,68.0,11.0,15.0,5.0,0.0
96,56.0,1.0,20.0,6.0,0.0
97,75.0,0.0,15.0,0.0,0.0
98,75.0,12.0,15.0,5.0,0.0
99,72.0,0.0,15.0,0.0,0.0
100,80.0,0.0,20.0,1.0,0.0
101,75.0,0.0,20.0,2.0,0.0
102,56.0,0.0,20.0,3.0,0.0
103,44.0,0.0,20.0,4.0,0.0
104,72.0,11.0,15.0,5.0,0.0
105,44.0,1.0,20.0,6.0,0.0
106,75.0,0.0,15.0,0.0,0.0
107,75.0,12.0,15.0,5.0,0.0
108,80.0,0.0,15.0,0.0,0.0
109,75.0,0.0,20.0,1.0,0.0
110,63.0,0.0,20.0,2.0,0.0
111,60.0,0.0,20.0,3.0,0.0
112,48.0,0.0,20.0,4.0,0.0
113,80.0,11.0,15.0,5.0,0.0
114,48.0,1.0,20.0,6.0,0.0
115,75.0,0.0,15.0,0.0,0.0
116,75.0,12.0,15.0,5.0,0.0
117,82.0,0.0,15.0,0.0,0.0
118,79.0,0.0,20.0,1.0,0.0
119,75.0,0.0,20.0,2.0,0.0
120,63.0,0.0,20.0,3.0,0.0
121,51.0,0.0,20.0,4.0,0.0
122,82.0,11.0,15.0,5.0,0.0
123,51.0,1.0,20.0,6.0,0.0
124,75.0,0.0,15.0,0.0,0.0
125,75.0,14.0,15.0,5.0,0.0
126,84.0,9.0,15.0,0.0,0.0
127,80.0,0.0,20.0,1.0,0.0
128,75.0,0.0,20.0,2.0,0.0
129,68.0,0.0,20.0,3.0,0.0
130,56.0,0.0,20.0,4.0,0.0
131,84.0,0.0,20.0,5.0,0.0
132,56.0,9.0,20.0,6.0,0.0
133,82.0,6.0,15.0,0.0,0.0
134,82.0,0.0,20.0,1.0,0.0
135,75.0,0.0,20.0,2.0,0.0
136,67.0,0.0,20.0,3.0,0.0
137,55.0,0.0,20.0,4.0,0.0
138,82.0,6.0,15.0,5.0,0.0
139,55.0,3.0,20.0,6.0,0.0
140,84.0,0.0,15.0,0.0,0.0
141,84.0,3.0,15.0,5.0,0.0
142,82.0,0.0,15.0,0.0,0.0
143,82.0,6.0,15.0,5.0,0.0
144,84.0,0.0,15.0,0.0,0.0
145,80.0,0.0,20.0,1.0,0.0
146,68.0,0.0,20.0,2.0,0.0
147,65.0,0.0,20.0,3.0,0.0
148,53.0,0.0,20.0,4.0,0.0
149,84.0,9.0,15.0,5.0,0.0
150,53.0,1.0,20.0,6.0,0.0
151,85.0,6.0,15.0,0.0,0.0
152,85.0,14.0,15.0,5.0,0.0
153,84.0,9.0,15.0,0.0,0.0
154,80.0,0.0,20.0,1.0,0.0
155,72.0,0.0,20.0,2.0,0.0
156,63.0,0.0,20.0,3.0,0.0
157,51.0,0.0,20.0,4.0,0.0
158,84.0,0.0,20.0,5.0,0.0
159,51.0,9.0,20.0,6.0,0.0
160,82.0,6.0,15.0,0.0,0.0
161,79.0,0.0,20.0,1.0,0.0
162,75.0,0.0,20.0,2.0,0.0
163,61.0,0.0,20.0,3.0,0.0
164,49.0,0.0,20.0,4.0,0.0
165,82.0,0.0,20.0,5.0,0.0
166,49.0,1.0,20.0,6.0,0.0
167,84.0,9.0,15.0,0.0,0.0
168,82.0,23.0,15.0,0.0,0.0
169,80.0,0.0,20.0,0.0,0.0
170,80.0,0.0,20.0,1.0,0.0
171,63.0,0.0,20.0,2.0,0.0
172,60.0,0.0,20.0,3.0,0.0
173,48.0,0.0,20.0,4.0,0.0
174,80.0,0.0,20.0,5.0,0.0
175,48.0,37.0,20.0,6.0,0.0
176,87.0,9.0,60.0,0.0,0.0
177,87.0,8.0,60.0,5.0,0.0
178,80.0,11.0,15.0,1.0,0.0
179,75.0,0.0,20.0,2.0,0.0
180,60.0,0.0,20.0,3.0,0.0
181,48.0,0.0,20.0,4.0,0.0
182,60.0,1.0,20.0,6.0,0.0
183,79.0,6.0,15.0,1.0,0.0
184,80.0,0.0,20.0,1.0,0.0
185,72.0,0.0,20.0,2.0,0.0
186,65.0,0.0,20.0,3.0,0.0
187,53.0,0.0,20.0,4.0,0.0
188,65.0,1.0,20.0,6.0,0.0
189,80.0,10.0,15.0,0.0,0.0
190,80.0,2.0,15.0,5.0,0.0
191,79.0,9.0,15.0,0.0,0.0
192,84.0,0.0,20.0,1.0,0.0
193,75.0,0.0,20.0,2.0,0.0
194,63.0,0.0,20.0,3.0,0.0
195,51.0,0.0,20.0,4.0,0.0
196,79.0,2.0,15.0,5.0,0.0
197,63.0,1.0,20.0,6.0,0.0
198,80.0,21.0,15.0,0.0,0.0
199,80.0,2.0,15.0,5.0,0.0
200,82.0,21.0,20.0,0.0,0.0
201,79.0,0.0,20.0,1.0,0.0
202,75.0,0.0,20.0,2.0,0.0
203,61.0,0.0,20.0,3.0,0.0
204,49.0,0.0,20.0,4.0,0.0
205,82.0,0.0,20.0,5.0,0.0
206,61.0,3.0,20.0,6.0,0.0
207,80.0,10.0,20.0,0.0,0.0
208,80.0,0.0,20.0,1.0,0.0
209,63.0,0.0,20.0,2.0,0.0
210,60.0,0.0,20.0,3.0,0.0
211,48.0,0.0,20.0,4.0,0.0
212,80.0,0.0,20.0,5.0,0.0
213,60.0,3.0,20.0,6.0,0.0
214,79.0,9.0,15.0,0.0,0.0
215,73.0,0.0,20.0,1.0,0.0
216,70.0,0.0,20.0,2.0,0.0
217,58.0,0.0,20.0,3.0,0.0
218,46.0,0.0,20.0,4.0,0.0
219,79.0,2.0,15.0,5.0,0.0
220,58.0,1.0,20.0,6.0,0.0
221,80.0,10.0,15.0,0.0,0.0
222,80.0,2.0,15.0,5.0,0.0
223,82.0,9.0,15.0,0.0,0.0
224,77.0,0.0,20.0,1.0,0.0
225,73.0,0.0,20.0,2.0,0.0
226,56.0,0.0,20.0,3.0,0.0
227,44.0,0.0,20.0,4.0,0.0
228,82.0,2.0,15.0,5.0,0.0
229,56.0,1.0,20.0,6.0,0.0
230,79.0,3.0,15.0,0.0,0.0
231,79.0,2.0,15.0,5.0,0.0
232,75.0,0.0,15.0,0.0,0.0
233,70.0,0.0,20.0,1.0,0.0
234,75.0,0.0,20.0,2.0,0.0
235,55.0,0.0,20.0,3.0,0.0
236,43.0,0.0,20.0,4.0,0.0
237,75.0,18.0,15.0,5.0,0.0
238,55.0,3.0,20.0,6.0,0.0
239,85.0,0.0,15.0,0.0,0.0
240,85.0,12.0,15.0,5.0,0.0
241,84.0,0.0,15.0,0.0,0.0
242,79.0,0.0,20.0,1.0,0.0
243,75.0,0.0,20.0,2.0,0.0
244,51.0,0.0,20.0,3.0,0.0
245,39.0,0.0,20.0,4.0,0.0
246,84.0,9.0,15.0,5.0,0.0
247,51.0,1.0,20.0,6.0,0.0
248,82.0,0.0,15.0,0.0,0.0
249,82.0,5.0,15.0,5.0,0.0
250,75.0,0.0,15.0,0.0,0.0
251,80.0,0.0,20.0,1.0,0.0
252,75.0,0.0,20.0,2.0,0.0
253,56.0,0.0,20.0,3.0,0.0
254,44.0,0.0,20.0,4.0,0.0
255,75.0,18.0,15.0,5.0,0.0
256,56.0,3.0,20.0,6.0,0.0
257,84.0,0.0,15.0,0.0,0.0
258,84.0,12.0,15.0,5.0,0.0
259,82.0,0.0,15.0,0.0,0.0
260,82.0,10.0,15.0,5.0,0.0
261,80.0,0.0,15.0,0.0,0.0
262,80.0,5.0,15.0,5.0,0.0
263,75.0,0.0,15.0,0.0,0.0
264,70.0,0.0,20.0,1.0,0.0
265,75.0,0.0,20.0,2.0,0.0
266,55.0,0.0,20.0,3.0,0.0
267,43.0,0.0,20.0,4.0,0.0
268,75.0,18.0,15.0,5.0,0.0
269,55.0,3.0,20.0,6.0,0.0
270,82.0,0.0,15.0,0.0,0.0
271,82.0,12.0,15.0,5.0,0.0
272,80.0,0.0,15.0,0.0,0.0
273,80.0,10.0,15.0,5.0,0.0
274,79.0,0.0,15.0,0.0,0.0
275,79.0,5.0,15.0,5.0,0.0
276,80.0,0.0,15.0,0.0,0.0
277,72.0,0.0,20.0,1.0,0.0
278,77.0,0.0,20.0,2.0,0.0
279,53.0,0.0,20.0,3.0,0.0
280,41.0,0.0,20.0,4.0,0.0
281,80.0,18.0,15.0,5.0,0.0
282,53.0,3.0,20.0,6.0,0.0
283,73.0,0.0,15.0,0.0,0.0
284,73.0,12.0,15.0,5.0,0.0
285,72.0,0.0,15.0,0.0,0.0
286,72.0,10.0,15.0,5.0,0.0
287,70.0,0.0,15.0,0.0,0.0
288,70.0,5.0,15.0,5.0,0.0
289,68.0,0.0,15.0,0.0,0.0
290,75.0,0.0,20.0,1.0,0.0
291,68.0,0.0,20.0,2.0,0.0
292,48.0,0.0,20.0,3.0,0.0
293,36.0,0.0,20.0,4.0,0.0
294,68.0,18.0,15.0,5.0,0.0
295,48.0,3.0,20.0,6.0,0.0
296,78.0,0.0,15.0,0.0,0.0
297,78.0,12.0,15.0,5.0,0.0
298,77.0,0.0,15.0,0.0,0.0
299,72.0,0.0,20.0,1.0,0.0
300,68.0,5.0,30.0,2.0,0.0
301,44.0,0.0,20.0,3.0,0.0
302,32.0,0.0,20.0,4.0,0.0
303,77.0,9.0,15.0,5.0,0.0
304,44.0,1.0,20.0,6.0,0.0
305,75.0,0.0,15.0,0.0,0.0
306,75.0,9.0,15.0,5.0,0.0
307,77.0,0.0,15.0,0.0,0.0
308,73.0,0.0,20.0,1.0,0.0
309,49.0,0.0,20.0,3.0,0.0
310,37.0,0.0,20.0,4.0,0.0
311,77.0,9.0,15.0,5.0,0.0
312,49.0,1.0,20.0,6.0,0.0
313,75.0,0.0,15.0,0.0,0.0
314,66.0,2.0,15.0,2.0,0.0
315,75.0,10.0,15.0,5.0,0.0
316,73.0,0.0,15.0,0.0,0.0
317,68.0,0.0,20.0,1.0,0.0
318,65.0,2.0,15.0,2.0,0.0
319,53.0,0.0,20.0,3.0,0.0
320,41.0,0.0,20.0,4.0,0.0
321,73.0,9.0,15.0,5.0,0.0
322,53.0,1.0,20.0,6.0,0.0
323,72.0,0.0,15.0,0.0,0.0
324,63.0,0.0,15.0,2.0,0.0
325,72.0,12.0,15.0,5.0,0.0
326,70.0,0.0,15.0,0.0,0.0
327,77.0,0.0,15.0,1.0,0.0
328,61.0,0.0,20.0,2.0,0.0
329,58.0,0.0,20.0,3.0,0.0
330,46.0,0.0,20.0,4.0,0.0
331,70.0,11.0,15.0,5.0,0.0
332,58.0,1.0,20.0,6.0,0.0
333,84.0,0.0,15.0,0.0,0.0
334,75.0,0.0,15.0,1.0,0.0
335,84.0,12.0,15.0,5.0,0.0
336,82.0,0.0,15.0,0.0,0.0
337,73.0,0.0,15.0,1.0,0.0
338,70.0,5.0,30.0,2.0,0.0
339,61.0,0.0,20.0,3.0,0.0
340,49.0,0.0,20.0,4.0,0.0
341,82.0,11.0,15.0,5.0,0.0
342,61.0,1.0,20.0,6.0,0.0
343,80.0,0.0,15.0,0.0,0.0
344,72.0,0.0,15.0,1.0,0.0
345,80.0,9.0,15.0,5.0,0.0
346,79.0,0.0,15.0,0.0,0.0
347,70.0,0.0,20.0,1.0,0.0
348,51.0,0.0,20.0,3.0,0.0
349,39.0,0.0,20.0,4.0,0.0
350,79.0,9.0,15.0,5.0,0.0
351,51.0,1.0,20.0,6.0,0.0
352,77.0,0.0,15.0,0.0,0.0
353,68.0,2.0,15.0,2.0,0.0
354,77.0,10.0,15.0,5.0,0.0
355,75.0,0.0,15.0,0.0,0.0
356,79.0,3.0,30.0,1.0,0.0
357,67.0,2.0,15.0,2.0,0.0
358,55.0,0.0,20.0,3.0,0.0
359,43.0,0.0,20.0,4.0,0.0
360,75.0,9.0,15.0,5.0,0.0
361,55.0,1.0,20.0,6.0,0.0
362,73.0,0.0,15.0,0.0,0.0
363,65.0,0.0,15.0,2.0,0.0
364,73.0,9.0,15.0,5.0,0.0
365,72.0,0.0,15.0,0.0,0.0
366,63.0,0.0,20.0,2.0,0.0
367,60.0,0.0,20.0,3.0,0.0
368,48.0,0.0,20.0,4.0,0.0
369,72.0,11.0,15.0,5.0,0.0
370,60.0,1.0,20.0,6.0,0.0
371,85.0,0.0,15.0,0.0,0.0
372,77.0,0.0,15.0,1.0,0.0
373,85.0,12.0,15.0,5.0,0.0
374,84.0,0.0,15.0,0.0,0.0
375,75.0,0.0,15.0,1.0,0.0
376,72.0,5.0,30.0,2.0,0.0
377,63.0,0.0,20.0,3.0,0.0
378,51.0,0.0,20.0,4.0,0.0
379,84.0,11.0,15.0,5.0,0.0
380,63.0,1.0,20.0,6.0,0.0
381,82.0,0.0,15.0,0.0,0.0
382,73.0,0.0,15.0,1.0,0.0
383,82.0,9.0,15.0,5.0,0.0
384,80.0,0.0,15.0,0.0,0.0
385,72.0,0.0,20.0,1.0,0.0
386,53.0,0.0,20.0,3.0,0.0
387,41.0,0.0,20.0,4.0,0.0
388,80.0,9.0,15.0,5.0,0.0
389,53.0,1.0,20.0,6.0,0.0
390,79.0,0.0,15.0,0.0,0.0
391,70.0,2.0,15.0,2.0,0.0
392,79.0,10.0,15.0,5.0,0.0
393,77.0,0.0,15.0,0.0,0.0
394,80.0,3.0,30.0,1.0,0.0
395,68.0,2.0,15.0,2.0,0.0
396,56.0,0.0,20.0,3.0,0.0
397,44.0,0.0,20.0,4.0,0.0
398,77.0,9.0,15.0,5.0,0.0
399,56.0,1.0,20.0,6.0,0.0
400,75.0,0.0,15.0,0.0,0.0
401,67.0,0.0,15.0,2.0,0.0
402,75.0,9.0,15.0,5.0,0.0
403,73.0,0.0,15.0,0.0,0.0
404,65.0,0.0,20.0,2.0,0.0
405,61.0,0.0,20.0,3.0,0.0
406,49.0,0.0,20.0,4.0,0.0
407,73.0,11.0,15.0,5.0,0.0
408,61.0,1.0,20.0,6.0,0.0
409,87.0,0.0,15.0,0.0,0.0
410,79.0,0.0,15.0,1.0,0.0
411,87.0,12.0,15.0,5.0,0.0
412,85.0,0.0,15.0,0.0,0.0
413,77.0,0.0,15.0,1.0,0.0
414,73.0,3.0,30.0,2.0,0.0
415,65.0,0.0,20.0,3.0,0.0
416,53.0,0.0,20.0,4.0,0.0
417,85.0,11.0,15.0,5.0,0.0
418,65.0,1.0,20.0,6.0,0.0
419,84.0,0.0,15.0,0.0,0.0
420,75.0,0.0,15.0,1.0,0.0
421,84.0,9.0,15.0,5.0,0.0
422,82.0,0.0,15.0,0.0,0.0
423,73.0,2.0,15.0,1.0,0.0
424,55.0,0.0,20.0,3.0,0.0
425,43.0,0.0,20.0,4.0,0.0
426,82.0,9.0,15.0,5.0,0.0
427,55.0,1.0,20.0,6.0,0.0
428,80.0,0.0,15.0,0.0,0.0
429,72.0,0.0,15.0,1.0,0.0
430,75.0,2.0,15.0,2.0,0.0
431,80.0,10.0,15.0,5.0,0.0
432,79.0,0.0,15.0,0.0,0.0
433,70.0,0.0,15.0,1.0,0.0
434,73.0,2.0,15.0,2.0,0.0
435,58.0,0.0,20.0,3.0,0.0
436,46.0,0.0,20.0,4.0,0.0
437,79.0,9.0,15.0,5.0,0.0
438,58.0,1.0,20.0,6.0,0.0
439,77.0,0.0,15.0,0.0,0.0
440,68.0,0.0,15.0,1.0,0.0
441,72.0,0.0,15.0,2.0,0.0
442,77.0,12.0,15.0,5.0,0.0
443,75.0,0.0,15.0,0.0,0.0
444,67.0,0.0,15.0,1.0,0.0
445,70.0,0.0,20.0,2.0,0.0
446,63.0,0.0,20.0,3.0,0.0
447,51.0,0.0,20.0,4.0,0.0
448,75.0,11.0,15.0,5.0,0.0
449,63.0,1.0,20.0,6.0,0.0
450,73.0,0.0,15.0,0.0,0.0
451,65.0,0.0,15.0,1.0,0.0
452,73.0,12.0,15.0,5.0,0.0
453,72.0,0.0,15.0,0.0,0.0
454,63.0,0.0,15.0,1.0,0.0
455,68.0,0.0,15.0,2.0,0.0
456,51.0,0.0,20.0,3.0,0.0
457,39.0,0.0,20.0,4.0,0.0
458,72.0,11.0,15.0,5.0,0.0
459,51.0,1.0,20.0,6.0,0.0
460,70.0,0.0,15.0,0.0,0.0
461,61.0,0.0,15.0,1.0,0.0
462,67.0,0.0,15.0,2.0,0.0
463,70.0,14.0,15.0,5.0,0.0
464,68.0,5.0,30.0,0.0,0.0
465,60.0,0.0,20.0,1.0,0.0
466,68.0,0.0,20.0,2.0,0.0
467,53.0,0.0,20.0,3.0,0.0
468,41.0,0.0,20.0,4.0,0.0
469,68.0,6.0,15.0,5.0,0.0
470,53.0,3.0,20.0,6.0,0.0
471,70.0,3.0,15.0,5.0,0.0
472,68.0,6.0,15.0,5.0,0.0
473,68.0,3.0,30.0,1.0,0.0
474,65.0,0.0,20.0,2.0,0.0
475,49.0,0.0,20.0,3.0,0.0
476,37.0,0.0,20.0,4.0,0.0
477,67.0,1.0,15.0,5.0,0.0
478,49.0,1.0,20.0,6.0,0.0
479,68.0,9.0,15.0,5.0,0.0
480,70.0,0.0,15.0,0.0,0.0
481,70.0,20.0,15.0,5.0,0.0
482,70.0,0.0,30.0,0.0,0.0
483,63.0,0.0,20.0,2.0,0.0
484,51.0,0.0,20.0,3.0,0.0
485,39.0,0.0,20.0,4.0,0.0
486,70.0,14.0,30.0,5.0,0.0
487,51.0,10.0,20.0,6.0,0.0
488,67.0,0.0,20.0,1.0,0.0
489,61.0,0.0,20.0,2.0,0.0
490,51.0,0.0,20.0,3.0,0.0
491,39.0,0.0,20.0,4.0,0.0
492,51.0,1.0,20.0,6.0,0.0
493,68.0,0.0,15.0,0.0,0.0
494,68.0,23.0,15.0,5.0,0.0
495,68.0,0.0,20.0,0.0,0.0
496,68.0,0.0,20.0,1.0,0.0
497,60.0,9.0,20.0,2.0,0.0
498,44.0,0.0,30.0,3.0,0.0
499,32.0,0.0,30.0,4.0,0.0
500,68.0,0.0,30.0,5.0,0.0
501,44.0,3.0,30.0,6.0,0.0
502,80.0,12.0,15.0,0.0,0.0
503,75.0,0.0,20.0,1.0,0.0
504,72.0,9.0,20.0,2.0,0.0
505,80.0,15.0,15.0,0.0,0.0
506,75.0,0.0,20.0,1.0,0.0
507,72.0,9.0,20.0,2.0,0.0
508,75.0,15.0,15.0,0.0,0.0
509,72.0,0.0,20.0,1.0,0.0
510,68.0,0.0,20.0,2.0,0.0
511,63.0,9.0,20.0,5.0,0.0
512,75.0,4.0,15.0,0.0,0.0
513,72.0,0.0,20.0,1.0,0.0
514,68.0,1.0,20.0,2.0,0.0
515,68.0,11.0,15.0,5.0,0.0
516,70.0,8.0,15.0,5.0,0.0
517,72.0,0.0,15.0,0.0,0.0
518,68.0,0.0,20.0,1.0,0.0
519,63.0,9.0,20.0,2.0,0.0
520,72.0,15.0,15.0,5.0,0.0
521,72.0,4.0,15.0,0.0,0.0
522,68.0,0.0,20.0,1.0,0.0
523,63.0,1.0,20.0,2.0,0.0
524,72.0,11.0,15.0,5.0,0.0
525,73.0,8.0,15.0,5.0,0.0
526,68.0,0.0,15.0,0.0,0.0
527,63.0,0.0,20.0,1.0,0.0
528,60.0,13.0,20.0,2.0,0.0
529,75.0,15.0,15.0,5.0,0.0
530,68.0,0.0,20.0,0.0,0.0
531,63.0,0.0,20.0,1.0,0.0
532,60.0,1.0,20.0,2.0,0.0
533,75.0,11.0,15.0,5.0,0.0
534,77.0,8.0,15.0,5.0,0.0
535,63.0,0.0,20.0,0.0,0.0
536,60.0,0.0,20.0,1.0,0.0
537,56.0,24.0,20.0,2.0,0.0
538,79.0,15.0,15.0,5.0,0.0
539,63.0,0.0,20.0,0.0,0.0
540,60.0,0.0,20.0,1.0,0.0
541,56.0,0.0,20.0,2.0,0.0
542,80.0,9.0,20.0,5.0,0.0
543,80.0,6.0,15.0,5.0,0.0
544,62.0,0.0,20.0,6.0,0.0
545,53.0,1.0,20.0,6.0,0.0
546,82.0,9.0,15.0,5.0,0.0
547,84.0,23.0,15.0,5.0,0.0
548,82.0,0.0,20.0,5.0,0.0
549,63.0,14.0,30.0,6.0,0.0
550,55.0,10.0,20.0,6.0,0.0
551,80.0,0.0,20.0,5.0,0.0
552,56.0,1.0,20.0,6.0,0.0
553,65.0,8.0,15.0,6.0,0.0
554,79.0,6.0,15.0,5.0,0.0
555,58.0,1.0,20.0,6.0,0.0
556,80.0,9.0,15.0,5.0,0.0
557,79.0,11.0,15.0,5.0,0.0
558,63.0,12.0,20.0,6.0,0.0
559,77.0,0.0,20.0,5.0,0.0
560,56.0,1.0,20.0,6.0,0.0
561,62.0,14.0,15.0,6.0,0.0
562,75.0,9.0,15.0,5.0,0.0
563,63.0,6.0,60.0,6.0,0.0
564,58.0,0.0,20.0,6.0,0.0
565,55.0,1.0,20.0,6.0,0.0
566,74.0,14.0,15.0,5.0,0.0
567,75.0,9.0,15.0,5.0,0.0
568,56.0,0.0,20.0,6.0,0.0
569,53.0,1.0,20.0,6.0,0.0
570,74.0,12.0,15.0,5.0,0.0
571,75.0,5.0,15.0,5.0,0.0
572,58.0,0.0,20.0,6.0,0.0
573,55.0,1.0,20.0,6.0,0.0
574,82.0,12.0,15.0,5.0,0.0
575,84.0,11.0,15.0,5.0,0.0
576,63.0,0.0,20.0,6.0,0.0
577,56.0,1.0,20.0,6.0,0.0
578,80.0,14.0,15.0,5.0,0.0
579,75.0,9.0,15.0,5.0,0.0
580,63.0,6.0,60.0,6.0,0.0
581,58.0,0.0,20.0,6.0,0.0
582,55.0,1.0,20.0,6.0,0.0
583,74.0,14.0,15.0,5.0,0.0
584,75.0,9.0,15.0,5.0,0.0
585,56.0,0.0,20.0,6.0,0.0
586,53.0,1.0,20.0,6.0,0.0
587,74.0,12.0,15.0,5.0,0.0
588,75.0,5.0,15.0,5.0,0.0
589,58.0,0.0,20.0,6.0,0.0
590,55.0,1.0,20.0,6.0,0.0
591,84.0,12.0,15.0,5.0,0.0
592,85.0,11.0,15.0,5.0,0.0
593,58.0,0.0,20.0,6.0,0.0
594,55.0,0.0,20.0,6.0,0.0
595,51.0,1.0,20.0,6.0,0.0
596,82.0,14.0,15.0,5.0,0.0
597,75.0,9.0,15.0,5.0,0.0
598,60.0,0.0,20.0,6.0,0.0
599,56.0,1.0,20.0,6.0,0.0
600,74.0,14.0,15.0,5.0,0.0
601,75.0,9.0,15.0,5.0,0.0
602,58.0,1.0,20.0,6.0,0.0
603,74.0,12.0,15.0,5.0,0.0
604,75.0,11.0,15.0,5.0,0.0
605,60.0,1.0,20.0,6.0,0.0
606,85.0,12.0,15.0,5.0,0.0
607,87.0,11.0,15.0,5.0,0.0
608,68.0,0.0,20.0,6.0,0.0
609,60.0,0.0,20.0,6.0,0.0
610,56.0,1.0,20.0,6.0,0.0
611,84.0,12.0,15.0,5.0,0.0
612,85.0,11.0,15.0,5.0,0.0
613,67.0,0.0,20.0,6.0,0.0
614,58.0,1.0,20.0,6.0,0.0
615,84.0,12.0,15.0,5.0,0.0
616,85.0,11.0,15.0,5.0,0.0
617,56.0,1.0,20.0,6.0,0.0
618,82.0,7.0,15.0,5.0,0.0
619,75.0,6.0,15.0,5.0,0.0
620,55.0,2.0,20.0,6.0,0.0
621,77.0,6.0,15.0,5.0,0.0
622,79.0,4.0,15.0,5.0,0.0
623,80.0,6.0,15.0,5.0,0.0
624,82.0,6.0,15.0,5.0,0.0
625,63.0,0.0,20.0,6.0,0.0
626,58.0,0.0,20.0,6.0,0.0
627,55.0,0.0,20.0,6.0,0.0
628,51.0,1.0,20.0,6.0,0.0
629,84.0,10.0,15.0,5.0,0.0
630,85.0,12.0,15.0,5.0,0.0
631,84.0,11.0,15.0,5.0,0.0
632,63.0,0.0,20.0,6.0,0.0
633,56.0,1.0,20.0,6.0,0.0
634,82.0,12.0,15.0,5.0,0.0
635,84.0,11.0,15.0,5.0,0.0
636,58.0,1.0,20.0,6.0,0.0
637,80.0,8.0,15.0,5.0,0.0
638,75.0,6.0,15.0,5.0,0.0
639,60.0,3.0,20.0,6.0,0.0
640,74.0,6.0,15.0,5.0,0.0
641,75.0,3.0,15.0,5.0,0.0
642,77.0,6.0,15.0,5.0,0.0
643,79.0,6.0,15.0,5.0,0.0
644,68.0,0.0,20.0,6.0,0.0
645,63.0,0.0,20.0,6.0,0.0
646,60.0,0.0,20.0,6.0,0.0
647,56.0,2.0,20.0,6.0,0.0
648,80.0,6.0,15.0,5.0,0.0
649,82.0,3.0,15.0,5.0,0.0
650,84.0,4.0,15.0,5.0,0.0
651,85.0,12.0,15.0,5.0,0.0
652,67.0,0.0,20.0,6.0,0.0
653,58.0,6.0,20.0,6.0,0.0
654,84.0,6.0,15.0,5.0,0.0
655,82.0,12.0,15.0,5.0,0.0
656,63.0,6.0,20.0,6.0,0.0
657,80.0,6.0,15.0,5.0,0.0
658,79.0,12.0,15.0,5.0,0.0
659,51.0,6.0,20.0,6.0,0.0
660,77.0,6.0,15.0,5.0,0.0
661,75.0,12.0,15.0,5.0,0.0
662,63.0,0.0,20.0,6.0,0.0
663,58.0,0.0,20.0,6.0,0.0
664,55.0,13.0,20.0,6.0,0.0
665,73.0,6.0,15.0,5.0,0.0
666,72.0,11.0,15.0,5.0,0.0
667,56.0,1.0,20.0,6.0,0.0
668,68.0,12.0,15.0,5.0,0.0
669,63.0,11.0,15.0,5.0,0.0
670,44.0,1.0,20.0,6.0,0.0
671,60.0,23.0,15.0,5.0,0.0
672,56.0,1.0,20.0,6.0,0.0
673,75.0,12.0,15.0,5.0,0.0
674,80.0,11.0,15.0,5.0,0.0
675,62.0,0.0,20.0,6.0,0.0
676,53.0,1.0,20.0,6.0,0.0
677,84.0,12.0,15.0,5.0,0.0
678,82.0,12.0,15.0,5.0,0.0
679,63.0,0.0,30.0,6.0,0.0
680,55.0,3.0,30.0,6.0,0.0
681,87.0,12.0,15.0,5.0,0.0
682,82.0,0.0,20.0,0.0,0.0
683,79.0,1.0,20.0,1.0,0.0
684,86.0,8.0,15.0,5.0,0.0
685,87.0,7.0,15.0,5.0,0.0
686,80.0,0.0,20.0,0.0,0.0
687,74.0,2.0,20.0,1.0,0.0
688,77.0,6.0,15.0,5.0,0.0
689,79.0,6.0,15.0,5.0,0.0
690,77.0,4.0,15.0,5.0,0.0
691,75.0,11.0,15.0,5.0,0.0
692,79.0,0.0,20.0,0.0,0.0
693,75.0,0.0,20.0,1.0,0.0
694,77.0,11.0,15.0,5.0,0.0
695,58.0,0.0,20.0,6.0,0.0
696,51.0,1.0,20.0,6.0,0.0
697,79.0,12.0,15.0,5.0,0.0
698,80.0,12.0,15.0,5.0,0.0
699,62.0,0.0,30.0,6.0,0.0
700,53.0,3.0,30.0,6.0,0.0
701,87.0,12.0,15.0,5.0,0.0
702,80.0,0.0,20.0,0.0,0.0
703,77.0,1.0,20.0,1.0,0.0
704,86.0,8.0,15.0,5.0,0.0
705,87.0,7.0,15.0,5.0,0.0
706,79.0,0.0,20.0,0.0,0.0
707,72.0,2.0,20.0,1.0,0.0
708,75.0,6.0,15.0,5.0,0.0
709,77.0,6.0,15.0,5.0,0.0
710,75.0,4.0,15.0,5.0,0.0
711,74.0,11.0,15.0,5.0,0.0
712,77.0,0.0,20.0,0.0,0.0
713,74.0,0.0,20.0,1.0,0.0
714,58.0,0.0,20.0,3.0,0.0
715,46.0,0.0,20.0,4.0,0.0
716,75.0,11.0,15.0,5.0,0.0
717,58.0,1.0,20.0,6.0,0.0
718,77.0,23.0,15.0,5.0,0.0
719,63.0,0.0,20.0,3.0,0.0
720,51.0,0.0,20.0,4.0,0.0
721,79.0,0.0,20.0,5.0,0.0
722,63.0,24.0,20.0,6.0,0.0
723,77.0,0.0,20.0,0.0,0.0
724,70.0,0.0,20.0,1.0,0.0
725,65.0,0.0,20.0,2.0,0.0
726,62.0,0.0,20.0,3.0,0.0
727,50.0,0.0,20.0,4.0,0.0
728,77.0,0.0,20.0,5.0,0.0
729,62.0,8.0,20.0,6.0,0.0
730,75.0,0.0,20.0,0.0,0.0
731,63.0,0.0,20.0,1.0,0.0
732,68.0,0.0,20.0,2.0,0.0
733,60.0,0.0,20.0,3.0,0.0
734,48.0,0.0,20.0,4.0,0.0
735,77.0,6.0,15.0,5.0,0.0
736,60.0,1.0,20.0,6.0,0.0
737,79.0,10.0,15.0,5.0,0.0
738,80.0,8.0,15.0,5.0,0.0
739,75.0,0.0,20.0,0.0,0.0
740,70.0,0.0,20.0,1.0,0.0
741,70.0,0.0,20.0,2.0,0.0
742,58.0,0.0,20.0,3.0,0.0
743,46.0,0.0,20.0,4.0,0.0
744,79.0,15.0,15.0,5.0,0.0
745,58.0,9.0,20.0,6.0,0.0
746,74.0,0.0,20.0,0.0,0.0
747,70.0,0.0,20.0,1.0,0.0
748,58.0,0.0,20.0,2.0,0.0
749,56.0,0.0,20.0,3.0,0.0
750,44.0,0.0,20.0,4.0,0.0
751,77.0,6.0,15.0,5.0,0.0
752,56.0,1.0,20.0,6.0,0.0
753,79.0,9.0,15.0,5.0,0.0
754,77.0,12.0,15.0,5.0,0.0
755,75.0,0.0,20.0,0.0,0.0
756,70.0,0.0,20.0,1.0,0.0
757,63.0,0.0,20.0,2.0,0.0
758,55.0,0.0,20.0,3.0,0.0
759,43.0,0.0,20.0,4.0,0.0
760,75.0,1.0,20.0,5.0,0.0
761,55.0,11.0,15.0,6.0,0.0
762,58.0,8.0,15.0,6.0,0.0
763,84.0,4.0,15.0,5.0,0.0
764,63.0,2.0,15.0,6.0,0.0
765,82.0,10.0,15.0,5.0,0.0
766,84.0,4.0,30.0,5.0,0.0
767,54.0,12.0,15.0,6.0,0.0
768,82.0,0.0,20.0,0.0,0.0
769,70.0,0.0,20.0,1.0,0.0
770,75.0,0.0,20.0,2.0,0.0
771,54.0,0.0,20.0,3.0,0.0
772,42.0,1.0,20.0,4.0,0.0
773,63.0,11.0,15.0,6.0,0.0
774,54.0,8.0,15.0,6.0,0.0
775,81.0,0.0,90.0,0.0,0.0
776,77.0,0.0,90.0,1.0,0.0
777,75.0,9.0,90.0,2.0,0.0
778,53.0,0.0,20.0,3.0,0.0
779,41.0,1.0,20.0,4.0,0.0
780,53.0,11.0,15.0,6.0,0.0
781,82.0,0.0,15.0,5.0,0.0
782,61.0,12.0,15.0,6.0,0.0
783,60.0,0.0,20.0,3.0,0.0
784,48.0,1.0,20.0,4.0,0.0
785,81.0,0.0,15.0,5.0,0.0
786,60.0,11.0,15.0,6.0,0.0
787,82.0,0.0,15.0,5.0,0.0
788,58.0,12.0,15.0,6.0,0.0
789,57.0,0.0,20.0,3.0,0.0
790,45.0,1.0,20.0,4.0,0.0
791,84.0,0.0,15.0,5.0,0.0
792,57.0,11.0,15.0,6.0,0.0
793,75.0,0.0,15.0,5.0,0.0
794,55.0,12.0,15.0,6.0,0.0
795,53.0,0.0,20.0,3.0,0.0
796,41.0,1.0,20.0,4.0,0.0
797,74.0,0.0,15.0,5.0,0.0
798,53.0,2.0,15.0,6.0,0.0
799,75.0,0.0,15.0,5.0,0.0
800,55.0,12.0,15.0,6.0,0.0
801,82.0,0.0,30.0,0.0,0.0
802,77.0,0.0,30.0,1.0,0.0
803,74.0,0.0,30.0,2.0,0.0
804,56.0,0.0,30.0,3.0,0.0
805,44.0,4.0,30.0,4.0,0.0
806,74.0,0.0,15.0,5.0,0.0
807,56.0,12.0,15.0,6.0,0.0
808,77.0,0.0,15.0,5.0,0.0
809,62.0,12.0,15.0,6.0,0.0
810,80.0,0.0,15.0,5.0,0.0
811,65.0,8.0,15.0,6.0,0.0
812,84.0,0.0,15.0,5.0,0.0
813,68.0,12.0,15.0,6.0,0.0
814,82.0,6.0,60.0,5.0,0.0
815,62.0,12.0,15.0,6.0,0.0
816,65.0,12.0,15.0,6.0,0.0
817,86.0,0.0,20.0,0.0,0.0
818,82.0,0.0,20.0,1.0,0.0
819,77.0,0.0,20.0,2.0,0.0
820,56.0,0.0,20.0,3.0,0.0
821,44.0,1.0,20.0,4.0,0.0
822,58.0,11.0,15.0,6.0,0.0
823,56.0,17.0,15.0,6.0,0.0
824,87.0,0.0,20.0,0.0,0.0
825,82.0,0.0,20.0,1.0,0.0
826,70.0,0.0,20.0,2.0,0.0
827,55.0,0.0,20.0,3.0,0.0
828,43.0,0.0,20.0,4.0,0.0
829,55.0,24.0,20.0,6.0,0.0
830,75.0,0.0,20.0,5.0,0.0
831,60.0,13.0,20.0,6.0,0.0
832,79.0,11.0,15.0,5.0,0.0
833,56.0,1.0,20.0,6.0,0.0
834,77.0,12.0,15.0,5.0,0.0
835,75.0,11.0,15.0,5.0,0.0
836,58.0,1.0,20.0,6.0,0.0
837,74.0,23.0,15.0,5.0,0.0
838,75.0,3.0,30.0,5.0,0.0
839,51.0,13.0,20.0,6.0,0.0
840,75.0,0.0,15.0,0.0,0.0
841,70.0,1.0,20.0,1.0,0.0
842,67.0,0.0,15.0,2.0,0.0
843,63.0,0.0,15.0,3.0,0.0
844,51.0,0.0,15.0,4.0,0.0
845,63.0,8.0,15.0,6.0,0.0
846,77.0,0.0,15.0,0.0,0.0
847,68.0,0.0,15.0,2.0,0.0
848,61.0,0.0,15.0,3.0,0.0
849,49.0,0.0,15.0,4.0,0.0
850,61.0,12.0,15.0,6.0,0.0
851,79.0,0.0,15.0,0.0,0.0
852,75.0,0.0,20.0,1.0,0.0
853,70.0,11.0,15.0,2.0,0.0
854,60.0,0.0,20.0,3.0,0.0
855,48.0,0.0,20.0,4.0,0.0
856,60.0,1.0,20.0,6.0,0.0
857,80.0,0.0,15.0,0.0,0.0
858,72.0,0.0,15.0,2.0,0.0
859,63.0,12.0,15.0,5.0,0.0
860,82.0,0.0,15.0,0.0,0.0
861,79.0,0.0,20.0,1.0,0.0
862,73.0,0.0,15.0,2.0,0.0
863,58.0,0.0,20.0,3.0,0.0
864,46.0,0.0,20.0,4.0,0.0
865,61.0,11.0,15.0,5.0,0.0
866,58.0,1.0,20.0,6.0,0.0
867,79.0,0.0,15.0,0.0,0.0
868,70.0,0.0,15.0,2.0,0.0
869,63.0,12.0,15.0,5.0,0.0
870,80.0,9.0,15.0,0.0,0.0
871,72.0,0.0,20.0,1.0,0.0
872,75.0,0.0,20.0,2.0,0.0
873,60.0,0.0,20.0,3.0,0.0
874,48.0,1.0,20.0,4.0,0.0
875,68.0,0.0,15.0,5.0,0.0
876,60.0,2.0,15.0,6.0,0.0
877,79.0,6.0,15.0,0.0,0.0
878,70.0,0.0,15.0,5.0,0.0
879,61.0,2.0,15.0,6.0,0.0
880,80.0,9.0,15.0,0.0,0.0
881,68.0,0.0,20.0,1.0,0.0
882,72.0,0.0,20.0,2.0,0.0
883,72.0,6.0,15.0,5.0,0.0
884,63.0,1.0,20.0,6.0,0.0
885,84.0,12.0,15.0,0.0,0.0
886,80.0,0.0,15.0,0.0,0.0
887,68.0,0.0,20.0,1.0,0.0
888,72.0,1.0,20.0,2.0,0.0
889,72.0,0.0,15.0,5.0,0.0
890,56.0,11.0,15.0,6.0,0.0
891,75.0,0.0,15.0,0.0,0.0
892,73.0,0.0,15.0,5.0,0.0
893,58.0,8.0,15.0,6.0,0.0
894,72.0,11.0,15.0,0.0,0.0
895,63.0,0.0,20.0,1.0,0.0
896,68.0,0.0,20.0,2.0,0.0
897,75.0,4.0,15.0,5.0,0.0
898,60.0,1.0,20.0,6.0,0.0
899,75.0,12.0,15.0,0.0,0.0
900,68.0,0.0,15.0,0.0,0.0
901,63.0,0.0,20.0,1.0,0.0
902,68.0,1.0,20.0,2.0,0.0
903,75.0,0.0,15.0,5.0,0.0
904,60.0,11.0,15.0,6.0,0.0
905,75.0,0.0,15.0,0.0,0.0
906,77.0,0.0,15.0,5.0,0.0
907,61.0,8.0,15.0,6.0,0.0
908,72.0,0.0,15.0,0.0,0.0
909,63.0,0.0,20.0,1.0,0.0
910,60.0,1.0,20.0,2.0,0.0
911,63.0,0.0,15.0,3.0,0.0
912,51.0,0.0,15.0,4.0,0.0
913,79.0,4.0,15.0,5.0,0.0
914,63.0,11.0,15.0,6.0,0.0
915,75.0,0.0,15.0,0.0,0.0
916,61.0,0.0,15.0,3.0,0.0
917,49.0,0.0,15.0,4.0,0.0
918,61.0,12.0,15.0,6.0,0.0
919,68.0,0.0,15.0,0.0,0.0
920,63.0,0.0,20.0,1.0,0.0
921,60.0,0.0,20.0,2.0,0.0
922,60.0,0.0,15.0,3.0,0.0
923,48.0,0.0,15.0,4.0,0.0
924,80.0,1.0,20.0,5.0,0.0
925,60.0,11.0,15.0,6.0,0.0
926,75.0,0.0,15.0,0.0,0.0
927,58.0,0.0,15.0,3.0,0.0
928,46.0,0.0,15.0,4.0,0.0
929,58.0,12.0,15.0,6.0,0.0
930,72.0,0.0,15.0,0.0,0.0
931,56.0,0.0,15.0,3.0,0.0
932,44.0,0.0,15.0,4.0,0.0
933,80.0,0.0,15.0,5.0,0.0
934,56.0,12.0,15.0,6.0,0.0
935,75.0,0.0,15.0,0.0,0.0
936,55.0,0.0,15.0,3.0,0.0
937,43.0,0.0,15.0,4.0,0.0
938,82.0,0.0,15.0,5.0,0.0
939,55.0,7.0,15.0,6.0,0.0
940,80.0,1.0,15.0,0.0,0.0
941,56.0,0.0,20.0,3.0,0.0
942,44.0,0.0,20.0,4.0,0.0
943,84.0,5.0,15.0,5.0,0.0
944,56.0,1.0,20.0,6.0,0.0
945,85.0,6.0,15.0,5.0,0.0
946,79.0,1.0,15.0,0.0,0.0
947,84.0,4.0,15.0,5.0,0.0
948,82.0,11.0,15.0,5.0,0.0
949,80.0,0.0,15.0,0.0,0.0
950,84.0,11.0,15.0,5.0,0.0
951,51.0,1.0,20.0,6.0,0.0
952,84.0,0.0,15.0,0.0,0.0
953,79.0,12.0,15.0,5.0,0.0
954,80.0,0.0,15.0,0.0,0.0
955,80.0,11.0,15.0,5.0,0.0
956,53.0,1.0,20.0,6.0,0.0
957,75.0,0.0,15.0,0.0,0.0
958,84.0,12.0,15.0,5.0,0.0
959,72.0,0.0,15.0,0.0,0.0
960,87.0,11.0,15.0,5.0,0.0
961,55.0,1.0,20.0,6.0,0.0
962,75.0,0.0,15.0,0.0,0.0
963,82.0,12.0,15.0,5.0,0.0
964,68.0,0.0,15.0,0.0,0.0
965,85.0,11.0,15.0,5.0,0.0
966,56.0,1.0,20.0,6.0,0.0
967,75.0,0.0,15.0,0.0,0.0
968,84.0,12.0,15.0,5.0,0.0
969,72.0,0.0,15.0,0.0,0.0
970,82.0,11.0,15.0,5.0,0.0
971,51.0,1.0,20.0,6.0,0.0
972,75.0,0.0,15.0,0.0,0.0
973,80.0,12.0,15.0,5.0,0.0
974,80.0,0.0,15.0,0.0,0.0
975,80.0,11.0,15.0,5.0,0.0
976,48.0,1.0,20.0,6.0,0.0
977,75.0,0.0,15.0,0.0,0.0
978,84.0,12.0,15.0,5.0,0.0
979,82.0,0.0,15.0,0.0,0.0
980,79.0,0.0,20.0,1.0,0.0
981,75.0,0.0,20.0,2.0,0.0
982,63.0,0.0,20.0,3.0,0.0
983,51.0,0.0,20.0,4.0,0.0
984,82.0,11.0,15.0,5.0,0.0
985,51.0,1.0,20.0,6.0,0.0
986,75.0,0.0,15.0,0.0,0.0
987,85.0,8.0,15.0,5.0,0.0
988,84.0,0.0,20.0,0.0,0.0
989,80.0,0.0,20.0,1.0,0.0
990,75.0,0.0,20.0,2.0,0.0
991,68.0,0.0,20.0,3.0,0.0
992,56.0,0.0,20.0,4.0,0.0
993,84.0,15.0,15.0,5.0,0.0
994,56.0,6.0,20.0,6.0,0.0
995,82.0,0.0,20.0,0.0,0.0
996,82.0,0.0,20.0,1.0,0.0
997,75.0,0.0,20.0,2.0,0.0
998,67.0,0.0,20.0,3.0,0.0
999,55.0,0.0,20.0,4.0,0.0
1000,82.0,15.0,15.0,5.0,0.0
1001,55.0,3.0,20.0,6.0,0.0
1002,84.0,3.0,15.0,5.0,0.0
1003,82.0,6.0,15.0,5.0,0.0
1004,85.0,0.0,20.0,0.0,0.0
1005,80.0,0.0,20.0,1.0,0.0
1006,68.0,0.0,20.0,2.0,0.0
1007,65.0,0.0,20.0,3.0,0.0
1008,53.0,0.0,20.0,4.0,0.0
1009,84.0,4.0,15.0,5.0,0.0
1010,53.0,9.0,20.0,6.0,0.0
1011,85.0,11.0,15.0,5.0,0.0
1012,84.0,0.0,20.0,0.0,0.0
1013,80.0,0.0,20.0,1.0,0.0
1014,72.0,0.0,20.0,2.0,0.0
1015,63.0,0.0,20.0,3.0,0.0
1016,51.0,0.0,20.0,4.0,0.0
1017,84.0,15.0,15.0,5.0,0.0
1018,51.0,9.0,20.0,6.0,0.0
1019,82.0,0.0,20.0,0.0,0.0
1020,79.0,0.0,20.0,1.0,0.0
1021,75.0,0.0,20.0,2.0,0.0
1022,61.0,0.0,20.0,3.0,0.0
1023,49.0,0.0,20.0,4.0,0.0
1024,82.0,6.0,15.0,5.0,0.0
1025,49.0,1.0,20.0,6.0,0.0
1026,84.0,9.0,15.0,5.0,0.0
1027,82.0,23.0,15.0,5.0,0.0
1028,80.0,0.0,20.0,0.0,0.0
1029,80.0,0.0,20.0,1.0,0.0
1030,63.0,0.0,20.0,2.0,0.0
1031,60.0,0.0,20.0,3.0,0.0
1032,48.0,0.0,20.0,4.0,0.0
1033,80.0,0.0,20.0,5.0,0.0
1034,48.0,37.0,20.0,6.0,0.0
1035,87.0,0.0,60.0,0.0,0.0
1036,87.0,17.0,60.0,5.0,0.0
1037,80.0,11.0,15.0,1.0,0.0
1038,75.0,0.0,20.0,2.0,0.0
1039,60.0,0.0,20.0,3.0,0.0
1040,48.0,0.0,20.0,4.0,0.0
1041,60.0,1.0,20.0,6.0,0.0
1042,79.0,6.0,15.0,1.0,0.0
1043,80.0,0.0,20.0,1.0,0.0
1044,72.0,0.0,20.0,2.0,0.0
1045,65.0,0.0,20.0,3.0,0.0
1046,53.0,0.0,20.0,4.0,0.0
1047,65.0,1.0,20.0,6.0,0.0
1048,80.0,0.0,15.0,0.0,0.0
1049,80.0,12.0,15.0,5.0,0.0
1050,79.0,0.0,15.0,0.0,0.0
1051,84.0,0.0,20.0,1.0,0.0
1052,75.0,0.0,20.0,2.0,0.0
1053,63.0,0.0,20.0,3.0,0.0
1054,51.0,0.0,20.0,4.0,0.0
1055,79.0,11.0,15.0,5.0,0.0
1056,63.0,1.0,20.0,6.0,0.0
1057,80.0,0.0,15.0,0.0,0.0
1058,80.0,12.0,15.0,5.0,0.0
1059,82.0,0.0,20.0,0.0,0.0
1060,79.0,0.0,20.0,1.0,0.0
1061,75.0,0.0,20.0,2.0,0.0
1062,61.0,0.0,20.0,3.0,0.0
1063,49.0,0.0,20.0,4.0,0.0
1064,82.0,11.0,15.0,5.0,0.0
1065,61.0,1.0,20.0,6.0,0.0
1066,84.0,8.0,15.0,5.0,0.0
1067,80.0,0.0,20.0,0.0,0.0
1068,80.0,0.0,20.0,1.0,0.0
1069,63.0,0.0,20.0,2.0,0.0
1070,60.0,0.0,20.0,3.0,0.0
1071,48.0,0.0,20.0,4.0,0.0
1072,85.0,5.0,15.0,5.0,0.0
1073,60.0,2.0,20.0,6.0,0.0
1074,84.0,6.0,15.0,5.0,0.0
1075,82.0,4.0,15.0,5.0,0.0
1076,84.0,11.0,15.0,5.0,0.0
1077,79.0,11.0,15.0,0.0,0.0
1078,73.0,0.0,20.0,1.0,0.0
1079,70.0,0.0,20.0,2.0,0.0
1080,58.0,0.0,20.0,3.0,0.0
1081,46.0,0.0,20.0,4.0,0.0
1082,85.0,6.0,60.0,5.0,0.0
1083,58.0,1.0,20.0,6.0,0.0
1084,80.0,12.0,15.0,0.0,0.0
1085,82.0,11.0,15.0,0.0,0.0
1086,77.0,0.0,20.0,1.0,0.0
1087,73.0,0.0,20.0,2.0,0.0
1088,56.0,0.0,20.0,3.0,0.0
1089,44.0,0.0,20.0,4.0,0.0
1090,56.0,1.0,20.0,6.0,0.0
1091,79.0,6.0,15.0,0.0,0.0
1092,75.0,11.0,15.0,0.0,0.0
1093,70.0,0.0,20.0,1.0,0.0
1094,75.0,0.0,20.0,2.0,0.0
1095,55.0,0.0,20.0,3.0,0.0
1096,43.0,0.0,20.0,4.0,0.0
1097,55.0,1.0,20.0,6.0,0.0
1098,85.0,0.0,15.0,0.0,0.0
1099,79.0,12.0,15.0,5.0,0.0
1100,84.0,0.0,15.0,0.0,0.0
1101,75.0,0.0,20.0,1.0,0.0
1102,67.0,0.0,20.0,2.0,0.0
1103,51.0,0.0,20.0,3.0,0.0
1104,39.0,0.0,20.0,4.0,0.0
1105,80.0,11.0,15.0,5.0,0.0
1106,51.0,1.0,20.0,6.0,0.0
1107,82.0,0.0,15.0,0.0,0.0
1108,82.0,12.0,15.0,5.0,0.0
1109,84.0,0.0,20.0,0.0,0.0
1110,75.0,0.0,20.0,1.0,0.0
1111,68.0,0.0,20.0,2.0,0.0
1112,56.0,0.0,20.0,3.0,0.0
1113,44.0,0.0,20.0,4.0,0.0
1114,75.0,11.0,15.0,5.0,0.0
1115,56.0,3.0,20.0,6.0,0.0
1116,84.0,12.0,15.0,5.0,0.0
1117,82.0,9.0,15.0,5.0,0.0
1118,63.0,1.0,20.0,6.0,0.0
1119,80.0,12.0,15.0,5.0,0.0
1120,82.0,0.0,20.0,0.0,0.0
1121,75.0,0.0,20.0,1.0,0.0
1122,70.0,0.0,20.0,2.0,0.0
1123,55.0,0.0,20.0,3.0,0.0
1124,43.0,0.0,20.0,4.0,0.0
1125,75.0,11.0,15.0,5.0,0.0
1126,55.0,3.0,20.0,6.0,0.0
1127,82.0,12.0,15.0,5.0,0.0
1128,80.0,9.0,15.0,5.0,0.0
1129,63.0,1.0,20.0,6.0,0.0
1130,79.0,12.0,15.0,5.0,0.0
1131,80.0,0.0,20.0,0.0,0.0
1132,77.0,0.0,20.0,1.0,0.0
1133,72.0,0.0,20.0,2.0,0.0
1134,53.0,0.0,20.0,3.0,0.0
1135,41.0,0.0,20.0,4.0,0.0
1136,80.0,11.0,15.0,5.0,0.0
1137,53.0,3.0,20.0,6.0,0.0
1138,73.0,12.0,15.0,5.0,0.0
1139,72.0,9.0,15.0,5.0,0.0
1140,56.0,1.0,20.0,6.0,0.0
1141,70.0,12.0,15.0,5.0,0.0
1142,78.0,0.0,20.0,0.0,0.0
1143,75.0,0.0,20.0,1.0,0.0
1144,68.0,0.0,20.0,2.0,0.0
1145,48.0,0.0,20.0,3.0,0.0
1146,36.0,0.0,20.0,4.0,0.0
1147,68.0,11.0,15.0,5.0,0.0
1148,48.0,3.0,20.0,6.0,0.0
1149,78.0,12.0,15.0,5.0,0.0
1150,77.0,9.0,15.0,5.0,0.0
1151,56.0,1.0,20.0,6.0,0.0
1152,75.0,14.0,15.0,5.0,0.0
1153,77.0,0.0,20.0,0.0,0.0
1154,73.0,0.0,20.0,1.0,0.0
1155,68.0,0.0,20.0,2.0,0.0
1156,49.0,0.0,20.0,3.0,0.0
1157,37.0,0.0,20.0,4.0,0.0
1158,77.0,9.0,15.0,5.0,0.0
1159,49.0,3.0,20.0,6.0,0.0
1160,75.0,12.0,15.0,5.0,0.0
1161,73.0,9.0,15.0,5.0,0.0
1162,56.0,1.0,20.0,6.0,0.0
1163,72.0,12.0,15.0,5.0,0.0
1164,79.0,0.0,20.0,0.0,0.0
1165,73.0,0.0,20.0,1.0,0.0
1166,63.0,0.0,20.0,2.0,0.0
1167,51.0,0.0,20.0,3.0,0.0
1168,39.0,0.0,20.0,4.0,0.0
1169,70.0,11.0,15.0,5.0,0.0
1170,51.0,1.0,20.0,6.0,0.0
1171,77.0,12.0,15.0,5.0,0.0
1172,75.0,11.0,15.0,5.0,0.0
1173,55.0,1.0,20.0,6.0,0.0
1174,73.0,12.0,15.0,5.0,0.0
1175,80.0,0.0,20.0,0.0,0.0
1176,72.0,0.0,20.0,1.0,0.0
1177,63.0,0.0,20.0,2.0,0.0
1178,44.0,0.0,20.0,3.0,0.0
1179,32.0,0.0,20.0,4.0,0.0
1180,72.0,11.0,15.0,5.0,0.0
1181,44.0,1.0,20.0,6.0,0.0
1182,73.0,12.0,15.0,5.0,0.0
1183,75.0,12.0,15.0,5.0,0.0
1184,56.0,14.0,30.0,6.0,0.0
1185,72.0,9.0,15.0,5.0,0.0
1186,68.0,1.0,20.0,5.0,0.0
1187,58.0,8.0,15.0,6.0,0.0
1188,80.0,4.0,15.0,5.0,0.0
1189,60.0,12.0,15.0,6.0,0.0
1190,56.0,12.0,15.0,6.0,0.0
1191,80.0,0.0,15.0,5.0,0.0
1192,53.0,12.0,15.0,6.0,0.0
1193,79.0,0.0,15.0,5.0,0.0
1194,58.0,8.0,15.0,6.0,0.0
1195,77.0,4.0,15.0,5.0,0.0
1196,56.0,12.0,15.0,6.0,0.0
1197,55.0,12.0,15.0,6.0,0.0
1198,77.0,0.0,15.0,5.0,0.0
1199,56.0,12.0,15.0,6.0,0.0
1200,75.0,0.0,15.0,5.0,0.0
1201,67.0,8.0,15.0,6.0,0.0
1202,74.0,4.0,15.0,5.0,0.0
1203,65.0,12.0,15.0,6.0,0.0
1204,63.0,12.0,15.0,6.0,0.0
1205,74.0,11.0,15.0,5.0,0.0
1206,65.0,1.0,20.0,6.0,0.0
1207,77.0,8.0,15.0,5.0,0.0
1208,77.0,0.0,20.0,0.0,0.0
1209,74.0,0.0,20.0,1.0,0.0
1210,70.0,0.0,20.0,2.0,0.0
1211,56.0,0.0,20.0,3.0,0.0
1212,44.0,0.0,20.0,4.0,0.0
1213,82.0,15.0,15.0,5.0,0.0
1214,56.0,9.0,20.0,6.0,0.0
1215,77.0,0.0,20.0,0.0,0.0
1216,74.0,0.0,20.0,1.0,0.0
1217,70.0,0.0,20.0,2.0,0.0
1218,56.0,0.0,20.0,3.0,0.0
1219,44.0,24.0,20.0,4.0,0.0
1220,82.0,6.0,15.0,5.0,0.0
1221,80.0,9.0,15.0,5.0,0.0
1222,82.0,4.0,30.0,5.0,0.0
1223,74.0,0.0,20.0,0.0,0.0
1224,70.0,0.0,20.0,1.0,0.0
1225,65.0,0.0,20.0,2.0,0.0
1226,56.0,0.0,20.0,3.0,0.0
1227,44.0,0.0,20.0,4.0,0.0
1228,56.0,9.0,20.0,6.0,0.0
1229,75.0,0.0,30.0,0.0,0.0
1230,70.0,0.0,30.0,1.0,0.0
1231,67.0,0.0,30.0,2.0,0.0
1232,55.0,0.0,30.0,3.0,0.0
1233,43.0,4.0,30.0,4.0,0.0
1234,55.0,12.0,15.0,6.0,0.0
1235,84.0,0.0,15.0,5.0,0.0
1236,51.0,12.0,15.0,6.0,0.0
1237,82.0,0.0,15.0,5.0,0.0
1238,55.0,7.0,15.0,6.0,0.0
1239,80.0,1.0,15.0,5.0,0.0
1240,58.0,1.0,15.0,6.0,0.0
1241,79.0,11.0,15.0,5.0,0.0
1242,79.0,0.0,15.0,5.0,0.0
1243,63.0,12.0,15.0,6.0,0.0
1244,80.0,0.0,15.0,5.0,0.0
1245,58.0,12.0,15.0,6.0,0.0
1246,79.0,0.0,15.0,5.0,0.0
1247,63.0,7.0,15.0,6.0,0.0
1248,77.0,5.0,15.0,5.0,0.0
1249,65.0,1.0,15.0,6.0,0.0
1250,75.0,11.0,15.0,5.0,0.0
1251,75.0,11.0,15.0,5.0,0.0
1252,67.0,1.0,20.0,6.0,0.0
1253,79.0,8.0,15.0,5.0,0.0
1254,79.0,0.0,20.0,0.0,0.0
1255,75.0,0.0,20.0,1.0,0.0
1256,72.0,0.0,20.0,2.0,0.0
1257,58.0,0.0,20.0,3.0,0.0
1258,46.0,0.0,20.0,4.0,0.0
1259,84.0,15.0,15.0,5.0,0.0
1260,58.0,24.0,20.0,6.0,0.0
1261,79.0,0.0,20.0,0.0,0.0
1262,75.0,0.0,20.0,1.0,0.0
1263,72.0,0.0,20.0,2.0,0.0
1264,58.0,0.0,20.0,3.0,0.0
1265,46.0,24.0,20.0,4.0,0.0
1266,84.0,11.0,60.0,5.0,0.0
1267,75.0,0.0,20.0,0.0,0.0
1268,72.0,0.0,20.0,1.0,0.0
1269,67.0,0.0,20.0,2.0,0.0
1270,58.0,0.0,20.0,3.0,0.0
1271,46.0,0.0,20.0,4.0,0.0
1272,58.0,2.0,20.0,6.0,0.0
1273,77.0,0.0,30.0,0.0,0.0
1274,72.0,0.0,30.0,1.0,0.0
1275,68.0,0.0,30.0,2.0,0.0
1276,56.0,0.0,30.0,3.0,0.0
1277,44.0,4.0,30.0,4.0,0.0
1278,56.0,1.0,15.0,6.0,0.0
1279,82.0,6.0,15.0,5.0,0.0
1280,80.0,5.0,15.0,5.0,0.0
1281,60.0,1.0,15.0,6.0,0.0
1282,79.0,11.0,15.0,5.0,0.0
1283,80.0,0.0,15.0,5.0,0.0
1284,62.0,8.0,15.0,6.0,0.0
1285,80.0,0.0,15.0,5.0,0.0
1286,64.0,7.0,15.0,6.0,0.0
1287,80.0,5.0,15.0,5.0,0.0
1288,65.0,1.0,15.0,6.0,0.0
1289,79.0,6.0,15.0,5.0,0.0
1290,77.0,5.0,15.0,5.0,0.0
1291,67.0,1.0,15.0,6.0,0.0
1292,76.0,11.0,15.0,5.0,0.0
1293,77.0,11.0,15.0,5.0,0.0
1294,68.0,1.0,20.0,6.0,0.0
1295,77.0,12.0,15.0,5.0,0.0
1296,77.0,11.0,15.0,5.0,0.0
1297,68.0,1.0,20.0,6.0,0.0
1298,80.0,23.0,15.0,5.0,0.0
1299,80.0,0.0,20.0,0.0,0.0
1300,77.0,0.0,20.0,1.0,0.0
1301,68.0,0.0,20.0,2.0,0.0
1302,53.0,0.0,20.0,3.0,0.0
1303,41.0,0.0,20.0,4.0,0.0
1304,86.0,14.0,30.0,5.0,0.0
1305,65.0,10.0,20.0,6.0,0.0
1306,80.0,0.0,20.0,0.0,0.0
1307,74.0,0.0,20.0,1.0,0.0
1308,65.0,0.0,20.0,2.0,0.0
1309,58.0,0.0,20.0,3.0,0.0
1310,46.0,0.0,20.0,4.0,0.0
1311,70.0,1.0,20.0,6.0,0.0
1312,79.0,23.0,15.0,5.0,0.0
1313,77.0,0.0,20.0,0.0,0.0
1314,74.0,0.0,20.0,1.0,0.0
1315,70.0,0.0,20.0,2.0,0.0
1316,46.0,0.0,20.0,3.0,0.0
1317,34.0,0.0,20.0,4.0,0.0
1318,80.0,10.0,30.0,5.0,0.0
1319,58.0,10.0,20.0,6.0,0.0
1320,79.0,0.0,30.0,0.0,0.0
1321,75.0,0.0,30.0,1.0,0.0
1322,70.0,4.0,30.0,2.0,0.0
1323,51.0,0.0,20.0,3.0,0.0
1324,39.0,2.0,20.0,4.0,0.0
1325,63.0,3.0,30.0,6.0,0.0
1326,79.0,4.0,15.0,5.0,0.0
1327,77.0,8.0,15.0,5.0,0.0
1328,79.0,8.0,15.0,5.0,0.0
1329,82.0,0.0,15.0,5.0,0.0
1330,62.0,12.0,15.0,6.0,0.0
1331,87.0,0.0,15.0,5.0,0.0
1332,60.0,12.0,15.0,6.0,0.0
1333,86.0,0.0,15.0,5.0,0.0
1334,58.0,12.0,15.0,6.0,0.0
1335,87.0,14.0,30.0,5.0,0.0
1336,57.0,12.0,15.0,6.0,0.0
1337,55.0,9.0,15.0,6.0,0.0
1338,57.0,1.0,20.0,6.0,0.0
1339,82.0,12.0,15.0,5.0,0.0
1340,81.0,11.0,15.0,5.0,0.0
1341,60.0,1.0,20.0,6.0,0.0
1342,84.0,7.0,15.0,5.0,0.0
1343,87.0,6.0,15.0,5.0,0.0
1344,53.0,1.0,20.0,6.0,0.0
1345,86.0,10.0,15.0,5.0,0.0
1346,84.0,12.0,15.0,5.0,0.0
1347,86.0,11.0,15.0,5.0,0.0
1348,65.0,1.0,20.0,6.0,0.0
1349,87.0,12.0,15.0,5.0,0.0
1350,86.0,11.0,15.0,5.0,0.0
1351,70.0,1.0,20.0,6.0,0.0
1352,87.0,12.0,15.0,5.0,0.0
1353,89.0,11.0,15.0,5.0,0.0
1354,58.0,1.0,20.0,6.0,0.0
1355,86.0,12.0,15.0,5.0,0.0
1356,80.0,11.0,15.0,5.0,0.0
1357,60.0,1.0,20.0,6.0,0.0
1358,84.0,12.0,15.0,5.0,0.0
1359,82.0,11.0,15.0,5.0,0.0
1360,62.0,1.0,20.0,6.0,0.0
1361,80.0,14.0,15.0,5.0,0.0
1362,80.0,9.0,15.0,5.0,0.0
1363,63.0,12.0,20.0,6.0,0.0
1364,79.0,12.0,20.0,5.0,0.0
1365,56.0,1.0,20.0,6.0,0.0
1366,77.0,8.0,15.0,5.0,0.0
1367,79.0,6.0,15.0,5.0,0.0
1368,58.0,3.0,20.0,6.0,0.0
1369,77.0,6.0,15.0,5.0,0.0
1370,79.0,3.0,15.0,5.0,0.0
1371,77.0,6.0,15.0,5.0,0.0
1372,70.0,0.0,20.0,0.0,0.0
1373,79.0,5.0,15.0,5.0,0.0
1374,46.0,1.0,20.0,6.0,0.0
1375,77.0,10.0,15.0,5.0,0.0
1376,75.0,12.0,15.0,5.0,0.0
1377,75.0,2.0,15.0,0.0,0.0
1378,75.0,10.0,15.0,5.0,0.0
1379,48.0,3.0,30.0,6.0,0.0
1380,74.0,2.0,15.0,0.0,0.0
1381,77.0,10.0,15.0,5.0,0.0
1382,75.0,0.0,15.0,0.0,0.0
1383,75.0,1.0,20.0,1.0,0.0
1384,79.0,8.0,15.0,5.0,0.0
1385,79.0,0.0,15.0,0.0,0.0
1386,79.0,12.0,15.0,5.0,0.0
1387,75.0,2.0,15.0,0.0,0.0
1388,75.0,1.0,20.0,1.0,0.0
1389,79.0,9.0,15.0,5.0,0.0
1390,70.0,2.0,15.0,0.0,0.0
1391,80.0,10.0,15.0,5.0,0.0
1392,67.0,0.0,15.0,0.0,0.0
1393,70.0,0.0,20.0,1.0,0.0
1394,75.0,0.0,20.0,2.0,0.0
1395,82.0,11.0,15.0,5.0,0.0
1396,55.0,1.0,20.0,6.0,0.0
1397,70.0,0.0,15.0,0.0,0.0
1398,82.0,12.0,15.0,5.0,0.0
1399,63.0,2.0,15.0,0.0,0.0
1400,70.0,0.0,20.0,1.0,0.0
1401,75.0,1.0,20.0,2.0,0.0
1402,82.0,6.0,15.0,5.0,0.0
1403,43.0,3.0,30.0,6.0,0.0
1404,70.0,2.0,15.0,0.0,0.0
1405,84.0,3.0,15.0,5.0,0.0
1406,86.0,10.0,15.0,5.0,0.0
1407,67.0,2.0,15.0,0.0,0.0
1408,75.0,0.0,20.0,1.0,0.0
1409,70.0,1.0,20.0,2.0,0.0
1410,84.0,6.0,15.0,5.0,0.0
1411,70.0,0.0,15.0,0.0,0.0
1412,82.0,7.0,15.0,5.0,0.0
1413,63.0,1.0,15.0,0.0,0.0
1414,75.0,0.0,20.0,1.0,0.0
1415,70.0,1.0,20.0,2.0,0.0
1416,87.0,5.0,15.0,5.0,0.0
1417,82.0,6.0,15.0,5.0,0.0
1418,70.0,0.0,15.0,0.0,0.0
1419,84.0,4.0,15.0,5.0,0.0
1420,67.0,1.0,15.0,6.0,0.0
1421,85.0,11.0,15.0,5.0,0.0
1422,67.0,0.0,15.0,0.0,0.0
1423,63.0,0.0,20.0,1.0,0.0
1424,75.0,1.0,20.0,2.0,0.0
1425,84.0,0.0,15.0,5.0,0.0
1426,63.0,11.0,15.0,6.0,0.0
1427,70.0,0.0,15.0,0.0,0.0
1428,82.0,0.0,15.0,5.0,0.0
1429,67.0,12.0,15.0,6.0,0.0
1430,75.0,2.0,15.0,0.0,0.0
1431,63.0,0.0,20.0,1.0,0.0
1432,68.0,0.0,20.0,2.0,0.0
1433,82.0,9.0,15.0,5.0,0.0
1434,68.0,1.0,20.0,6.0,0.0
1435,74.0,11.0,15.0,0.0,0.0
1436,84.0,1.0,20.0,5.0,0.0
1437,75.0,0.0,15.0,0.0,0.0
1438,56.0,12.0,15.0,6.0,0.0
1439,79.0,0.0,15.0,0.0,0.0
1440,82.0,0.0,15.0,5.0,0.0
1441,58.0,12.0,15.0,6.0,0.0
1442,75.0,0.0,15.0,0.0,0.0
1443,80.0,12.0,15.0,5.0,0.0
1444,60.0,1.0,60.0,6.0,0.0
1445,70.0,0.0,15.0,0.0,0.0
1446,79.0,12.0,15.0,5.0,0.0
1447,67.0,0.0,15.0,0.0,0.0
1448,77.0,12.0,15.0,5.0,0.0
1449,70.0,0.0,15.0,0.0,0.0
1450,75.0,6.0,15.0,5.0,0.0
1451,63.0,1.0,20.0,0.0,0.0
1452,80.0,6.0,15.0,5.0,0.0
1453,82.0,6.0,15.0,5.0,0.0
1454,80.0,4.0,15.0,5.0,0.0
1455,58.0,1.0,15.0,6.0,0.0
1456,79.0,11.0,15.0,5.0,0.0
1457,80.0,0.0,15.0,5.0,0.0
1458,60.0,12.0,15.0,6.0,0.0
1459,77.0,0.0,15.0,5.0,0.0
1460,56.0,23.0,15.0,6.0,0.0
1461,75.0,0.0,20.0,5.0,0.0
1462,58.0,19.0,20.0,6.0,0.0
1463,77.0,0.0,20.0,0.0,0.0
1464,74.0,0.0,20.0,1.0,0.0
1465,70.0,0.0,20.0,2.0,0.0
1466,58.0,0.0,20.0,3.0,0.0
1467,46.0,0.0,20.0,4.0,0.0
1468,74.0,5.0,15.0,5.0,0.0
1469,46.0,2.0,20.0,6.0,0.0
1470,75.0,11.0,15.0,5.0,0.0
1471,79.0,0.0,20.0,0.0,0.0
1472,75.0,0.0,20.0,1.0,0.0
1473,70.0,0.0,20.0,2.0,0.0
1474,63.0,0.0,20.0,3.0,0.0
1475,51.0,0.0,20.0,4.0,0.0
1476,75.0,11.0,15.0,5.0,0.0
1477,51.0,1.0,20.0,6.0,0.0
1478,79.0,14.0,15.0,5.0,0.0
1479,77.0,0.0,20.0,0.0,0.0
1480,77.0,0.0,20.0,1.0,0.0
1481,70.0,0.0,20.0,2.0,0.0
1482,62.0,0.0,20.0,3.0,0.0
1483,50.0,0.0,20.0,4.0,0.0
1484,77.0,6.0,15.0,5.0,0.0
1485,50.0,3.0,20.0,6.0,0.0
1486,79.0,3.0,15.0,5.0,0.0
1487,77.0,6.0,15.0,5.0,0.0
1488,80.0,0.0,20.0,0.0,0.0
1489,75.0,0.0,20.0,1.0,0.0
1490,63.0,0.0,20.0,2.0,0.0
1491,60.0,0.0,20.0,3.0,0.0
1492,48.0,0.0,20.0,4.0,0.0
1493,79.0,15.0,15.0,5.0,0.0
1494,48.0,1.0,20.0,6.0,0.0
1495,80.0,23.0,15.0,5.0,0.0
1496,79.0,0.0,20.0,0.0,0.0
1497,75.0,0.0,20.0,1.0,0.0
1498,67.0,0.0,20.0,2.0,0.0
1499,58.0,0.0,20.0,3.0,0.0
1500,46.0,0.0,20.0,4.0,0.0
1501,79.0,0.0,20.0,5.0,0.0
1502,46.0,24.0,20.0,6.0,0.0
1503,77.0,0.0,20.0,0.0,0.0
1504,74.0,0.0,20.0,1.0,0.0
1505,70.0,0.0,20.0,2.0,0.0
1506,56.0,0.0,20.0,3.0,0.0
1507,44.0,0.0,20.0,4.0,0.0
1508,77.0,0.0,20.0,5.0,0.0
1509,44.0,24.0,20.0,6.0,0.0
1510,75.0,0.0,20.0,0.0,0.0
1511,75.0,0.0,20.0,1.0,0.0
1512,58.0,0.0,20.0,2.0,0.0
1513,55.0,0.0,20.0,3.0,0.0
1514,43.0,0.0,20.0,4.0,0.0
1515,75.0,0.0,20.0,5.0,0.0
1516,43.0,37.0,20.0,6.0,0.0
1517,82.0,0.0,60.0,0.0,0.0
1518,82.0,17.0,60.0,5.0,0.0
1519,75.0,11.0,15.0,1.0,0.0
1520,70.0,0.0,20.0,2.0,0.0
1521,55.0,0.0,20.0,3.0,0.0
1522,43.0,0.0,20.0,4.0,0.0
1523,55.0,1.0,20.0,6.0,0.0
1524,74.0,6.0,15.0,1.0,0.0
1525,75.0,0.0,20.0,1.0,0.0
1526,67.0,0.0,20.0,2.0,0.0
1527,60.0,0.0,20.0,3.0,0.0
1528,48.0,0.0,20.0,4.0,0.0
1529,60.0,1.0,20.0,6.0,0.0
1530,75.0,0.0,15.0,0.0,0.0
1531,75.0,12.0,15.0,5.0,0.0
1532,74.0,0.0,15.0,0.0,0.0
1533,79.0,0.0,20.0,1.0,0.0
1534,70.0,0.0,20.0,2.0,0.0
1535,58.0,0.0,20.0,3.0,0.0
1536,46.0,0.0,20.0,4.0,0.0
1537,74.0,11.0,15.0,5.0,0.0
1538,58.0,1.0,20.0,6.0,0.0
1539,75.0,0.0,15.0,0.0,0.0
1540,75.0,23.0,15.0,5.0,0.0
1541,77.0,0.0,20.0,0.0,0.0
1542,74.0,0.0,20.0,1.0,0.0
1543,70.0,0.0,20.0,2.0,0.0
1544,56.0,0.0,20.0,3.0,0.0
1545,44.0,0.0,20.0,4.0,0.0
1546,77.0,0.0,20.0,5.0,0.0
1547,56.0,24.0,20.0,6.0,0.0
1548,75.0,0.0,20.0,0.0,0.0
1549,75.0,0.0,20.0,1.0,0.0
1550,58.0,0.0,20.0,2.0,0.0
1551,55.0,0.0,20.0,3.0,0.0
1552,43.0,0.0,20.0,4.0,0.0
1553,75.0,0.0,20.0,5.0,0.0
1554,55.0,13.0,20.0,6.0,0.0
1555,74.0,0.0,15.0,0.0,0.0
1556,68.0,0.0,20.0,1.0,0.0
1557,65.0,0.0,20.0,2.0,0.0
1558,53.0,0.0,20.0,3.0,0.0
1559,41.0,0.0,20.0,4.0,0.0
1560,74.0,11.0,15.0,5.0,0.0
1561,53.0,1.0,20.0,6.0,0.0
1562,75.0,0.0,15.0,0.0,0.0
1563,75.0,12.0,15.0,5.0,0.0
1564,77.0,0.0,15.0,0.0,0.0
1565,72.0,0.0,20.0,1.0,0.0
1566,68.0,0.0,20.0,2.0,0.0
1567,51.0,0.0,20.0,3.0,0.0
1568,39.0,0.0,20.0,4.0,0.0
1569,77.0,11.0,15.0,5.0,0.0
1570,51.0,1.0,20.0,6.0,0.0
1571,74.0,0.0,15.0,0.0,0.0
1572,74.0,12.0,15.0,5.0,0.0
1573,70.0,0.0,15.0,0.0,0.0
1574,65.0,0.0,20.0,1.0,0.0
1575,70.0,0.0,20.0,2.0,0.0
1576,50.0,0.0,20.0,3.0,0.0
1577,38.0,0.0,20.0,4.0,0.0
1578,70.0,11.0,15.0,5.0,0.0
1579,50.0,3.0,20.0,6.0,0.0
1580,80.0,0.0,15.0,0.0,0.0
1581,80.0,12.0,15.0,5.0,0.0
1582,79.0,0.0,15.0,0.0,0.0
1583,74.0,0.0,20.0,1.0,0.0
1584,70.0,0.0,20.0,2.0,0.0
1585,46.0,0.0,20.0,3.0,0.0
1586,34.0,0.0,20.0,4.0,0.0
1587,79.0,9.0,15.0,5.0,0.0
1588,46.0,1.0,20.0,6.0,0.0
1589,77.0,0.0,15.0,0.0,0.0
1590,77.0,12.0,15.0,5.0,0.0
1591,70.0,0.0,15.0,0.0,0.0
1592,75.0,0.0,20.0,1.0,0.0
1593,70.0,0.0,20.0,2.0,0.0
1594,51.0,0.0,20.0,3.0,0.0
1595,39.0,0.0,20.0,4.0,0.0
1596,70.0,11.0,15.0,5.0,0.0
1597,51.0,3.0,20.0,6.0,0.0
1598,79.0,0.0,15.0,0.0,0.0
1599,79.0,12.0,15.0,5.0,0.0
1600,77.0,0.0,15.0,0.0,0.0
1601,77.0,10.0,15.0,5.0,0.0
1602,75.0,0.0,15.0,0.0,0.0
1603,75.0,12.0,15.0,5.0,0.0
1604,70.0,0.0,15.0,0.0,0.0
1605,65.0,0.0,20.0,1.0,0.0
1606,70.0,0.0,20.0,2.0,0.0
1607,50.0,0.0,20.0,3.0,0.0
1608,38.0,0.0,20.0,4.0,0.0
1609,70.0,11.0,15.0,5.0,0.0
1610,50.0,3.0,20.0,6.0,0.0
1611,77.0,0.0,15.0,0.0,0.0
1612,77.0,12.0,15.0,5.0,0.0
1613,75.0,0.0,15.0,0.0,0.0
1614,75.0,10.0,15.0,5.0,0.0
1615,74.0,0.0,15.0,0.0,0.0
1616,74.0,12.0,15.0,5.0,0.0
1617,75.0,0.0,15.0,0.0,0.0
1618,67.0,0.0,20.0,1.0,0.0
1619,72.0,0.0,20.0,2.0,0.0
1620,48.0,0.0,20.0,3.0,0.0
1621,36.0,0.0,20.0,4.0,0.0
1622,75.0,11.0,15.0,5.0,0.0
1623,48.0,3.0,20.0,6.0,0.0
1624,68.0,0.0,15.0,0.0,0.0
1625,68.0,12.0,15.0,5.0,0.0
1626,67.0,0.0,15.0,0.0,0.0
1627,67.0,10.0,15.0,5.0,0.0
1628,65.0,0.0,15.0,0.0,0.0
1629,65.0,12.0,15.0,5.0,0.0
1630,63.0,0.0,15.0,0.0,0.0
1631,70.0,0.0,20.0,1.0,0.0
1632,63.0,0.0,20.0,2.0,0.0
1633,43.0,0.0,20.0,3.0,0.0
1634,31.0,0.0,20.0,4.0,0.0
1635,63.0,11.0,15.0,5.0,0.0
1636,43.0,3.0,20.0,6.0,0.0
1637,73.0,0.0,15.0,0.0,0.0
1638,73.0,12.0,15.0,5.0,0.0
1639,72.0,0.0,15.0,0.0,0.0
1640,67.0,0.0,20.0,1.0,0.0
1641,63.0,3.0,30.0,2.0,0.0
1642,51.0,0.0,20.0,3.0,0.0
1643,39.0,0.0,20.0,4.0,0.0
1644,72.0,9.0,15.0,5.0,0.0
1645,51.0,1.0,20.0,6.0,0.0
1646,70.0,0.0,15.0,0.0,0.0
1647,70.0,9.0,15.0,5.0,0.0
1648,72.0,0.0,15.0,0.0,0.0
1649,68.0,0.0,20.0,1.0,0.0
1650,44.0,0.0,20.0,3.0,0.0
1651,32.0,0.0,20.0,4.0,0.0
1652,72.0,11.0,15.0,5.0,0.0
1653,44.0,1.0,20.0,6.0,0.0
1654,70.0,0.0,15.0,0.0,0.0
1655,61.0,0.0,15.0,2.0,0.0
1656,70.0,12.0,15.0,5.0,0.0
1657,68.0,0.0,15.0,0.0,0.0
1658,63.0,0.0,20.0,1.0,0.0
1659,60.0,0.0,15.0,2.0,0.0
1660,48.0,0.0,20.0,3.0,0.0
1661,36.0,0.0,20.0,4.0,0.0
1662,68.0,11.0,15.0,5.0,0.0
1663,48.0,1.0,20.0,6.0,0.0
1664,67.0,0.0,15.0,0.0,0.0
1665,58.0,0.0,15.0,2.0,0.0
1666,67.0,12.0,15.0,5.0,0.0
1667,65.0,0.0,15.0,0.0,0.0
1668,72.0,0.0,15.0,1.0,0.0
1669,56.0,0.0,20.0,2.0,0.0
1670,53.0,0.0,20.0,3.0,0.0
1671,41.0,0.0,20.0,4.0,0.0
1672,65.0,11.0,15.0,5.0,0.0
1673,53.0,1.0,20.0,6.0,0.0
1674,79.0,0.0,15.0,0.0,0.0
1675,70.0,0.0,15.0,1.0,0.0
1676,79.0,12.0,15.0,5.0,0.0
1677,77.0,0.0,15.0,0.0,0.0
1678,68.0,0.0,15.0,1.0,0.0
1679,65.0,3.0,30.0,2.0,0.0
1680,56.0,0.0,20.0,3.0,0.0
1681,44.0,0.0,20.0,4.0,0.0
1682,77.0,11.0,15.0,5.0,0.0
1683,56.0,1.0,20.0,6.0,0.0
1684,75.0,0.0,15.0,0.0,0.0
1685,67.0,0.0,15.0,1.0,0.0
1686,75.0,9.0,15.0,5.0,0.0
1687,74.0,0.0,15.0,0.0,0.0
1688,65.0,0.0,20.0,1.0,0.0
1689,46.0,0.0,20.0,3.0,0.0
1690,34.0,0.0,20.0,4.0,0.0
1691,74.0,11.0,15.0,5.0,0.0
1692,46.0,1.0,20.0,6.0,0.0
1693,72.0,0.0,15.0,0.0,0.0
1694,63.0,0.0,15.0,2.0,0.0
1695,72.0,12.0,15.0,5.0,0.0
1696,70.0,0.0,15.0,0.0,0.0
1697,74.0,3.0,30.0,1.0,0.0
1698,62.0,0.0,15.0,2.0,0.0
1699,50.0,0.0,20.0,3.0,0.0
1700,38.0,0.0,20.0,4.0,0.0
1701,70.0,11.0,15.0,5.0,0.0
1702,50.0,1.0,20.0,6.0,0.0
1703,68.0,0.0,15.0,0.0,0.0
1704,60.0,0.0,15.0,2.0,0.0
1705,68.0,9.0,15.0,5.0,0.0
1706,67.0,0.0,15.0,0.0,0.0
1707,58.0,0.0,20.0,2.0,0.0
1708,55.0,0.0,20.0,3.0,0.0
1709,43.0,0.0,20.0,4.0,0.0
1710,67.0,11.0,15.0,5.0,0.0
1711,55.0,1.0,20.0,6.0,0.0
1712,80.0,0.0,15.0,0.0,0.0
1713,72.0,0.0,15.0,1.0,0.0
1714,80.0,12.0,15.0,5.0,0.0
1715,79.0,0.0,15.0,0.0,0.0
1716,70.0,0.0,15.0,1.0,0.0
1717,67.0,3.0,30.0,2.0,0.0
1718,58.0,0.0,20.0,3.0,0.0
1719,46.0,0.0,20.0,4.0,0.0
1720,79.0,11.0,15.0,5.0,0.0
1721,58.0,1.0,20.0,6.0,0.0
1722,77.0,0.0,15.0,0.0,0.0
1723,68.0,0.0,15.0,1.0,0.0
1724,77.0,9.0,15.0,5.0,0.0
1725,75.0,0.0,15.0,0.0,0.0
1726,67.0,0.0,20.0,1.0,0.0
1727,48.0,0.0,20.0,3.0,0.0
1728,36.0,0.0,20.0,4.0,0.0
1729,75.0,11.0,15.0,5.0,0.0
1730,48.0,1.0,20.0,6.0,0.0
1731,74.0,0.0,15.0,0.0,0.0
1732,65.0,0.0,15.0,2.0,0.0
1733,74.0,12.0,15.0,5.0,0.0
1734,72.0,0.0,15.0,0.0,0.0
1735,75.0,3.0,30.0,1.0,0.0
1736,63.0,0.0,15.0,2.0,0.0
1737,51.0,0.0,20.0,3.0,0.0
1738,39.0,0.0,20.0,4.0,0.0
1739,72.0,11.0,15.0,5.0,0.0
1740,51.0,1.0,20.0,6.0,0.0
1741,70.0,0.0,15.0,0.0,0.0
1742,62.0,0.0,15.0,2.0,0.0
1743,70.0,9.0,15.0,5.0,0.0
1744,68.0,0.0,15.0,0.0,0.0
1745,60.0,0.0,20.0,2.0,0.0
1746,56.0,0.0,20.0,3.0,0.0
1747,44.0,0.0,20.0,4.0,0.0
1748,68.0,11.0,15.0,5.0,0.0
1749,56.0,1.0,20.0,6.0,0.0
1750,82.0,0.0,15.0,0.0,0.0
1751,74.0,0.0,15.0,1.0,0.0
1752,82.0,12.0,15.0,5.0,0.0
1753,80.0,0.0,15.0,0.0,0.0
1754,72.0,0.0,15.0,1.0,0.0
1755,68.0,3.0,30.0,2.0,0.0
1756,60.0,0.0,20.0,3.0,0.0
1757,48.0,0.0,20.0,4.0,0.0
1758,80.0,11.0,15.0,5.0,0.0
1759,60.0,1.0,20.0,6.0,0.0
1760,79.0,0.0,15.0,0.0,0.0
1761,70.0,0.0,15.0,1.0,0.0
1762,79.0,9.0,15.0,5.0,0.0
1763,77.0,0.0,15.0,0.0,0.0
1764,68.0,0.0,15.0,1.0,0.0
1765,50.0,0.0,20.0,3.0,0.0
1766,38.0,0.0,20.0,4.0,0.0
1767,77.0,11.0,15.0,5.0,0.0
1768,50.0,1.0,20.0,6.0,0.0
1769,75.0,0.0,15.0,0.0,0.0
1770,79.0,0.0,15.0,1.0,0.0
1771,70.0,0.0,15.0,2.0,0.0
1772,75.0,12.0,15.0,5.0,0.0
1773,74.0,0.0,15.0,0.0,0.0
1774,77.0,0.0,15.0,1.0,0.0
1775,68.0,0.0,15.0,2.0,0.0
1776,53.0,0.0,20.0,3.0,0.0
1777,41.0,0.0,20.0,4.0,0.0
1778,74.0,11.0,15.0,5.0,0.0
1779,53.0,1.0,20.0,6.0,0.0
1780,72.0,0.0,15.0,0.0,0.0
1781,75.0,0.0,15.0,1.0,0.0
1782,67.0,0.0,15.0,2.0,0.0
1783,72.0,12.0,15.0,5.0,0.0
1784,70.0,0.0,15.0,0.0,0.0
1785,74.0,0.0,15.0,1.0,0.0
1786,65.0,0.0,20.0,2.0,0.0
1787,58.0,0.0,20.0,3.0,0.0
1788,46.0,0.0,20.0,4.0,0.0
1789,70.0,11.0,15.0,5.0,0.0
1790,58.0,1.0,20.0,6.0,0.0
1791,84.0,0.0,15.0,0.0,0.0
1792,80.0,0.0,15.0,1.0,0.0
1793,84.0,12.0,15.0,5.0,0.0
1794,82.0,0.0,15.0,0.0,0.0
1795,79.0,0.0,15.0,1.0,0.0
1796,70.0,0.0,20.0,2.0,0.0
1797,62.0,0.0,20.0,3.0,0.0
1798,50.0,0.0,20.0,4.0,0.0
1799,82.0,11.0,15.0,5.0,0.0
1800,62.0,1.0,20.0,6.0,0.0
1801,80.0,0.0,15.0,0.0,0.0
1802,77.0,0.0,15.0,1.0,0.0
1803,80.0,14.0,15.0,5.0,0.0
1804,79.0,2.0,30.0,0.0,0.0
1805,75.0,0.0,20.0,1.0,0.0
1806,70.0,0.0,20.0,2.0,0.0
1807,63.0,0.0,20.0,3.0,0.0
1808,51.0,0.0,20.0,4.0,0.0
1809,80.0,9.0,15.0,5.0,0.0
1810,63.0,10.0,20.0,6.0,0.0
1811,79.0,12.0,20.0,5.0,0.0
1812,75.0,0.0,30.0,1.0,0.0
1813,72.0,0.0,20.0,2.0,0.0
1814,56.0,0.0,20.0,3.0,0.0
1815,44.0,0.0,20.0,4.0,0.0
1816,56.0,1.0,20.0,6.0,0.0
1817,77.0,0.0,15.0,0.0,0.0
1818,77.0,8.0,15.0,5.0,0.0
1819,77.0,4.0,30.0,0.0,0.0
1820,70.0,0.0,20.0,2.0,0.0
1821,58.0,0.0,20.0,3.0,0.0
1822,46.0,0.0,20.0,4.0,0.0
1823,79.0,6.0,15.0,5.0,0.0
1824,58.0,3.0,20.0,6.0,0.0
1825,77.0,6.0,15.0,5.0,0.0
1826,79.0,3.0,15.0,5.0,0.0
1827,77.0,6.0,15.0,5.0,0.0
1828,74.0,0.0,20.0,1.0,0.0
1829,68.0,0.0,20.0,2.0,0.0
1830,46.0,0.0,20.0,3.0,0.0
1831,34.0,0.0,20.0,4.0,0.0
1832,79.0,1.0,15.0,5.0,0.0
1833,46.0,1.0,20.0,6.0,0.0
1834,77.0,10.0,15.0,5.0,0.0
1835,75.0,0.0,15.0,0.0,0.0
1836,75.0,23.0,15.0,5.0,0.0
1837,75.0,0.0,20.0,0.0,0.0
1838,75.0,0.0,20.0,1.0,0.0
1839,67.0,21.0,20.0,2.0,0.0
1840,51.0,0.0,30.0,3.0,0.0
1841,39.0,0.0,30.0,4.0,0.0
1842,75.0,0.0,30.0,5.0,0.0
1843,51.0,3.0,30.0,6.0,0.0
1844,77.0,0.0,20.0,0.0,0.0
1845,72.0,0.0,20.0,1.0,0.0
1846,68.0,24.0,20.0,2.0,0.0
1847,75.0,0.0,20.0,0.0,0.0
1848,70.0,0.0,20.0,1.0,0.0
1849,67.0,24.0,20.0,2.0,0.0
1850,74.0,0.0,20.0,0.0,0.0
1851,68.0,0.0,20.0,1.0,0.0
1852,65.0,0.0,20.0,2.0,0.0
1853,70.0,13.0,20.0,5.0,0.0
1854,75.0,0.0,30.0,0.0,0.0
1855,67.0,0.0,30.0,1.0,0.0
1856,63.0,3.0,30.0,2.0,0.0
1857,70.0,12.0,15.0,5.0,0.0
1858,72.0,8.0,15.0,5.0,0.0
1859,73.0,12.0,15.0,5.0,0.0
1860,53.0,15.0,20.0,6.0,0.0
1861,75.0,9.0,15.0,5.0,0.0
1862,55.0,3.0,20.0,6.0,0.0
1863,73.0,12.0,15.0,5.0,0.0
1864,72.0,9.0,15.0,5.0,0.0
1865,56.0,1.0,20.0,6.0,0.0
1866,70.0,12.0,15.0,5.0,0.0
1867,79.0,0.0,150.0,0.0,0.0
1868,70.0,0.0,150.0,1.0,0.0
1869,64.0,9.0,150.0,2.0,0.0
1870,79.0,0.0,15.0,5.0,0.0
1871,58.0,12.0,15.0,6.0,0.0
1872,77.0,0.0,15.0,5.0,0.0
1873,60.0,12.0,15.0,6.0,0.0
1874,79.0,1.0,20.0,5.0,0.0
1875,58.0,11.0,15.0,6.0,0.0
1876,56.0,12.0,15.0,6.0,0.0
1877,70.0,0.0,15.0,5.0,0.0
1878,55.0,12.0,15.0,6.0,0.0
1879,73.0,0.0,15.0,5.0,0.0
1880,53.0,12.0,15.0,6.0,0.0
1881,72.0,0.0,15.0,5.0,0.0
1882,52.0,12.0,15.0,6.0,0.0
1883,70.0,0.0,15.0,5.0,0.0
1884,55.0,12.0,15.0,6.0,0.0
1885,79.0,11.0,15.0,5.0,0.0
1886,48.0,1.0,20.0,6.0,0.0
1887,76.0,12.0,15.0,5.0,0.0
1888,77.0,11.0,15.0,5.0,0.0
1889,50.0,1.0,20.0,6.0,0.0
1890,79.0,12.0,15.0,5.0,0.0
1891,72.0,2.0,15.0,5.0,0.0
1892,52.0,1.0,20.0,6.0,0.0
1893,82.0,12.0,15.0,5.0,0.0
1894,77.0,0.0,15.0,0.0,0.0
1895,72.0,0.0,20.0,1.0,0.0
1896,70.0,0.0,20.0,2.0,0.0
1897,80.0,11.0,15.0,5.0,0.0
1898,48.0,1.0,20.0,6.0,0.0
1899,76.0,0.0,15.0,0.0,0.0
1900,79.0,12.0,15.0,5.0,0.0
1901,77.0,0.0,30.0,0.0,0.0
1902,72.0,0.0,30.0,1.0,0.0
1903,68.0,3.0,30.0,2.0,0.0
1904,82.0,11.0,15.0,5.0,0.0
1905,53.0,1.0,20.0,6.0,0.0
1906,80.0,12.0,15.0,5.0,0.0
1907,79.0,8.0,15.0,5.0,0.0
1908,55.0,1.0,20.0,6.0,0.0
1909,80.0,12.0,15.0,5.0,0.0
1910,77.0,1.0,20.0,5.0,0.0
1911,56.0,11.0,15.0,6.0,0.0
1912,53.0,12.0,15.0,6.0,0.0
1913,84.0,14.0,30.0,5.0,0.0
1914,55.0,12.0,15.0,6.0,0.0
1915,56.0,9.0,15.0,6.0,0.0
1916,58.0,1.0,20.0,6.0,0.0
1917,82.0,12.0,15.0,5.0,0.0
1918,80.0,11.0,15.0,5.0,0.0
1919,60.0,1.0,20.0,6.0,0.0
1920,84.0,12.0,15.0,5.0,0.0
1921,82.0,11.0,15.0,5.0,0.0
1922,61.0,1.0,20.0,6.0,0.0
1923,80.0,12.0,15.0,5.0,0.0
1924,79.0,11.0,15.0,5.0,0.0
1925,58.0,1.0,20.0,6.0,0.0
1926,77.0,12.0,15.0,5.0,0.0
1927,76.0,11.0,15.0,5.0,0.0
1928,60.0,1.0,20.0,6.0,0.0
1929,77.0,12.0,15.0,5.0,0.0
1930,82.0,0.0,20.0,0.0,0.0
1931,79.0,0.0,20.0,1.0,0.0
1932,76.0,0.0,20.0,2.0,0.0
1933,79.0,11.0,15.0,5.0,0.0
1934,48.0,1.0,20.0,6.0,0.0
1935,76.0,12.0,15.0,5.0,0.0
1936,82.0,0.0,20.0,0.0,0.0
1937,79.0,0.0,20.0,1.0,0.0
1938,76.0,1.0,20.0,2.0,0.0
1939,72.0,11.0,15.0,5.0,0.0
1940,76.0,12.0,15.0,5.0,0.0
1941,79.0,0.0,20.0,0.0,0.0
1942,76.0,0.0,20.0,1.0,0.0
1943,72.0,0.0,20.0,2.0,0.0
1944,79.0,11.0,15.0,5.0,0.0
1945,60.0,1.0,20.0,6.0,0.0
1946,82.0,8.0,15.0,5.0,0.0
1947,80.0,0.0,20.0,0.0,0.0
1948,77.0,0.0,20.0,1.0,0.0
1949,72.0,1.0,20.0,2.0,0.0
1950,80.0,2.0,15.0,5.0,0.0
1951,65.0,4.0,15.0,6.0,0.0
1952,63.0,9.0,15.0,6.0,0.0
1953,79.0,11.0,15.0,5.0,0.0
1954,65.0,1.0,20.0,6.0,0.0
1955,77.0,12.0,15.0,5.0,0.0
1956,84.0,0.0,15.0,5.0,0.0
1957,63.0,6.0,15.0,6.0,0.0
1958,82.0,1.0,15.0,5.0,0.0
1959,61.0,4.0,15.0,6.0,0.0
1960,63.0,2.0,15.0,6.0,0.0
1961,61.0,11.0,15.0,6.0,0.0
1962,80.0,0.0,15.0,5.0,0.0
1963,60.0,12.0,15.0,6.0,0.0
1964,79.0,11.0,15.0,5.0,0.0
1965,61.0,1.0,20.0,6.0,0.0
1966,77.0,8.0,15.0,5.0,0.0
1967,85.0,4.0,15.0,5.0,0.0
1968,60.0,2.0,15.0,6.0,0.0
1969,84.0,6.0,15.0,5.0,0.0
1970,85.0,4.0,15.0,5.0,0.0
1971,48.0,2.0,15.0,6.0,0.0
1972,84.0,6.0,15.0,5.0,0.0
1973,85.0,4.0,15.0,5.0,0.0
1974,60.0,2.0,15.0,6.0,0.0
1975,84.0,6.0,15.0,5.0,0.0
1976,85.0,4.0,15.0,5.0,0.0
1977,58.0,2.0,15.0,6.0,0.0
1978,84.0,6.0,15.0,5.0,0.0
1979,85.0,4.0,15.0,5.0,0.0
1980,56.0,2.0,15.0,6.0,0.0
1981,84.0,6.0,15.0,5.0,0.0
1982,85.0,4.0,15.0,5.0,0.0
1983,55.0,2.0,15.0,6.0,0.0
1984,84.0,6.0,15.0,5.0,0.0
1985,72.0,0.0,20.0,0.0,0.0
1986,79.0,0.0,20.0,1.0,0.0
1987,67.0,0.0,20.0,2.0,0.0
1988,58.0,0.0,20.0,3.0,0.0
1989,46.0,1.0,20.0,4.0,0.0
1990,85.0,4.0,15.0,5.0,0.0
1991,53.0,2.0,15.0,6.0,0.0
1992,84.0,6.0,15.0,5.0,0.0
1993,85.0,3.0,15.0,5.0,0.0
1994,52.0,2.0,15.0,6.0,0.0
1995,84.0,6.0,15.0,5.0,0.0
1996,77.0,2.0,15.0,0.0,0.0
1997,80.0,0.0,20.0,1.0,0.0
1998,65.0,0.0,30.0,2.0,0.0
1999,56.0,0.0,30.0,3.0,0.0
2000,44.0,0.0,30.0,4.0,0.0
2001,85.0,4.0,15.0,5.0,0.0
2002,53.0,1.0,20.0,6.0,0.0
2003,84.0,6.0,15.0,5.0,0.0
2004,76.0,2.0,15.0,0.0,0.0
2005,85.0,3.0,15.0,5.0,0.0
2006,84.0,6.0,15.0,5.0,0.0
2007,77.0,2.0,15.0,0.0,0.0
2008,84.0,0.0,20.0,1.0,0.0
2009,85.0,4.0,15.0,5.0,0.0
2010,56.0,1.0,20.0,6.0,0.0
2011,84.0,6.0,15.0,5.0,0.0
2012,80.0,2.0,15.0,0.0,0.0
2013,85.0,3.0,15.0,5.0,0.0
2014,84.0,6.0,15.0,5.0,0.0
2015,77.0,2.0,15.0,0.0,0.0
2016,80.0,0.0,20.0,1.0,0.0
2017,85.0,4.0,15.0,5.0,0.0
2018,60.0,1.0,20.0,6.0,0.0
2019,84.0,6.0,15.0,5.0,0.0
2020,72.0,2.0,15.0,0.0,0.0
2021,85.0,3.0,15.0,5.0,0.0
2022,84.0,6.0,15.0,5.0,0.0
2023,68.0,2.0,15.0,0.0,0.0
2024,77.0,0.0,20.0,1.0,0.0
2025,72.0,0.0,20.0,2.0,0.0
2026,60.0,0.0,20.0,3.0,0.0
2027,48.0,0.0,20.0,4.0,0.0
2028,85.0,4.0,15.0,5.0,0.0
2029,65.0,1.0,20.0,6.0,0.0
2030,84.0,6.0,15.0,5.0,0.0
2031,72.0,2.0,15.0,0.0,0.0
2032,85.0,3.0,15.0,5.0,0.0
2033,84.0,6.0,15.0,5.0,0.0
2034,65.0,2.0,15.0,0.0,0.0
2035,68.0,0.0,20.0,2.0,0.0
2036,65.0,0.0,30.0,3.0,0.0
2037,53.0,0.0,30.0,4.0,0.0
2038,85.0,4.0,15.0,5.0,0.0
2039,56.0,1.0,20.0,6.0,0.0
2040,84.0,6.0,15.0,5.0,0.0
2041,72.0,2.0,15.0,0.0,0.0
2042,85.0,3.0,15.0,5.0,0.0
2043,84.0,6.0,15.0,5.0,0.0
2044,68.0,2.0,15.0,0.0,0.0
2045,72.0,0.0,20.0,1.0,0.0
2046,65.0,0.0,20.0,2.0,0.0
2047,85.0,4.0,15.0,5.0,0.0
2048,60.0,1.0,20.0,6.0,0.0
2049,84.0,6.0,15.0,5.0,0.0
2050,72.0,2.0,15.0,0.0,0.0
2051,85.0,3.0,15.0,5.0,0.0
2052,84.0,6.0,15.0,5.0,0.0
2053,65.0,2.0,15.0,0.0,0.0
2054,68.0,0.0,20.0,1.0,0.0
2055,85.0,4.0,15.0,5.0,0.0
2056,65.0,1.0,20.0,6.0,0.0
2057,84.0,6.0,15.0,5.0,0.0
2058,72.0,2.0,15.0,0.0,0.0
2059,85.0,3.0,15.0,5.0,0.0
2060,84.0,6.0,15.0,5.0,0.0
2061,68.0,2.0,15.0,0.0,0.0
2062,65.0,0.0,20.0,1.0,0.0
2063,60.0,0.0,20.0,2.0,0.0
2064,60.0,0.0,20.0,3.0,0.0
2065,48.0,0.0,20.0,4.0,0.0
2066,85.0,4.0,15.0,5.0,0.0
2067,68.0,1.0,20.0,6.0,0.0
2068,84.0,6.0,15.0,5.0,0.0
2069,72.0,2.0,15.0,0.0,0.0
2070,85.0,3.0,15.0,5.0,0.0
2071,84.0,6.0,15.0,5.0,0.0
2072,77.0,2.0,15.0,0.0,0.0
2073,56.0,0.0,20.0,2.0,0.0
2074,65.0,0.0,20.0,3.0,0.0
2075,53.0,0.0,20.0,4.0,0.0
2076,85.0,4.0,15.0,5.0,0.0
2077,65.0,1.0,20.0,6.0,0.0
2078,84.0,6.0,15.0,5.0,0.0
2079,76.0,2.0,15.0,0.0,0.0
2080,85.0,3.0,15.0,5.0,0.0
2081,84.0,6.0,15.0,5.0,0.0
2082,77.0,2.0,15.0,0.0,0.0
2083,53.0,0.0,20.0,2.0,0.0
2084,60.0,0.0,20.0,3.0,0.0
2085,48.0,0.0,20.0,4.0,0.0
2086,85.0,4.0,15.0,5.0,0.0
2087,60.0,1.0,20.0,6.0,0.0
2088,84.0,6.0,15.0,5.0,0.0
2089,80.0,2.0,15.0,0.0,0.0
2090,85.0,3.0,15.0,5.0,0.0
2091,84.0,6.0,15.0,5.0,0.0
2092,77.0,11.0,15.0,0.0,0.0
2093,56.0,0.0,20.0,3.0,0.0
2094,44.0,0.0,20.0,4.0,0.0
2095,85.0,4.0,15.0,5.0,0.0
2096,56.0,1.0,20.0,6.0,0.0
2097,84.0,11.0,30.0,5.0,0.0
2098,72.0,12.0,15.0,0.0,0.0
2099,68.0,11.0,15.0,0.0,0.0
2100,53.0,0.0,20.0,3.0,0.0
2101,41.0,0.0,20.0,4.0,0.0
2102,53.0,1.0,20.0,6.0,0.0
2103,72.0,2.0,15.0,0.0,0.0
2104,65.0,0.0,20.0,0.0,0.0
2105,49.0,0.0,20.0,3.0,0.0
2106,37.0,0.0,20.0,4.0,0.0
2107,49.0,2.0,20.0,6.0,0.0
2108,82.0,6.0,15.0,5.0,0.0
2109,84.0,4.0,15.0,5.0,0.0
2110,85.0,11.0,15.0,5.0,0.0
2111,84.0,11.0,15.0,5.0,0.0
2112,64.0,1.0,20.0,6.0,0.0
2113,82.0,12.0,15.0,5.0,0.0
2114,80.0,11.0,15.0,5.0,0.0
2115,65.0,1.0,20.0,6.0,0.0
2116,79.0,12.0,15.0,5.0,0.0
2117,61.0,0.0,20.0,3.0,0.0
2118,49.0,0.0,20.0,4.0,0.0
2119,77.0,11.0,15.0,5.0,0.0
2120,67.0,0.0,20.0,6.0,0.0
2121,61.0,1.0,20.0,6.0,0.0
2122,76.0,14.0,15.0,5.0,0.0
2123,60.0,0.0,20.0,3.0,0.0
2124,48.0,0.0,20.0,4.0,0.0
2125,77.0,6.0,15.0,5.0,0.0
2126,68.0,0.0,20.0,6.0,0.0
2127,60.0,3.0,20.0,6.0,0.0
2128,79.0,3.0,15.0,5.0,0.0
2129,77.0,6.0,15.0,5.0,0.0
2130,58.0,0.0,20.0,3.0,0.0
2131,46.0,0.0,20.0,4.0,0.0
2132,76.0,6.0,15.0,5.0,0.0
2133,61.0,0.0,20.0,6.0,0.0
2134,58.0,1.0,20.0,6.0,0.0
2135,77.0,9.0,15.0,5.0,0.0
2136,79.0,23.0,15.0,5.0,0.0
2137,60.0,0.0,20.0,3.0,0.0
2138,48.0,10.0,20.0,4.0,0.0
2139,79.0,11.0,30.0,5.0,0.0
2140,76.0,0.0,30.0,6.0,0.0
2141,60.0,3.0,30.0,6.0,0.0
2142,48.0,0.0,20.0,3.0,0.0
2143,36.0,0.0,20.0,4.0,0.0
2144,48.0,1.0,20.0,6.0,0.0
2145,77.0,12.0,15.0,5.0,0.0
2146,86.0,3.0,120.0,0.0,0.0
2147,77.0,9.0,90.0,1.0,0.0
2148,71.0,0.0,30.0,2.0,0.0
2149,55.0,0.0,30.0,3.0,0.0
2150,43.0,0.0,30.0,4.0,0.0
2151,77.0,12.0,15.0,5.0,0.0
2152,62.0,0.0,30.0,6.0,0.0
2153,59.0,0.0,30.0,6.0,0.0
2154,55.0,4.0,30.0,6.0,0.0
2155,80.0,12.0,15.0,5.0,0.0
2156,79.0,8.0,15.0,5.0,0.0
2157,77.0,14.0,15.0,5.0,0.0
2158,67.0,6.0,60.0,2.0,0.0
2159,83.0,12.0,15.0,5.0,0.0
2160,84.0,10.0,15.0,5.0,0.0
2161,59.0,0.0,20.0,3.0,0.0
2162,47.0,0.0,20.0,4.0,0.0
2163,86.0,2.0,15.0,5.0,0.0
2164,59.0,1.0,20.0,6.0,0.0
2165,77.0,14.0,15.0,5.0,0.0
2166,75.0,3.0,30.0,1.0,0.0
2167,60.0,0.0,20.0,3.0,0.0
2168,48.0,5.0,20.0,4.0,0.0
2169,75.0,9.0,30.0,5.0,0.0
2170,60.0,6.0,60.0,6.0,0.0
2171,84.0,0.0,20.0,0.0,0.0
2172,72.0,0.0,20.0,2.0,0.0
2173,56.0,0.0,20.0,3.0,0.0
2174,44.0,0.0,20.0,4.0,0.0
2175,56.0,2.0,20.0,6.0,0.0
2176,74.0,6.0,15.0,5.0,0.0
2177,72.0,1.0,15.0,5.0,0.0
2178,74.0,16.0,15.0,5.0,0.0
2179,53.0,0.0,20.0,3.0,0.0
2180,41.0,0.0,20.0,4.0,0.0
2181,74.0,14.0,30.0,5.0,0.0
2182,53.0,10.0,20.0,6.0,0.0
2183,55.0,0.0,20.0,3.0,0.0
2184,43.0,0.0,20.0,4.0,0.0
2185,59.0,0.0,20.0,6.0,0.0
2186,55.0,1.0,20.0,6.0,0.0
2187,72.0,23.0,15.0,5.0,0.0
2188,48.0,0.0,20.0,3.0,0.0
2189,36.0,0.0,20.0,4.0,0.0
2190,72.0,10.0,240.0,5.0,0.0
2191,48.0,1.0,20.0,6.0,0.0
2192,72.0,12.0,15.0,0.0,0.0
2193,75.0,0.0,15.0,0.0,0.0
2194,60.0,0.0,15.0,3.0,0.0
2195,48.0,0.0,15.0,4.0,0.0
2196,60.0,12.0,15.0,6.0,0.0
2197,79.0,0.0,15.0,0.0,0.0
2198,62.0,0.0,15.0,3.0,0.0
2199,50.0,0.0,15.0,4.0,0.0
2200,62.0,12.0,15.0,6.0,0.0
2201,84.0,11.0,15.0,0.0,0.0
2202,63.0,0.0,20.0,3.0,0.0
2203,51.0,0.0,20.0,4.0,0.0
2204,63.0,1.0,20.0,6.0,0.0
2205,82.0,12.0,15.0,0.0,0.0
2206,80.0,11.0,15.0,0.0,0.0
2207,75.0,0.0,20.0,1.0,0.0
2208,72.0,0.0,20.0,2.0,0.0
2209,60.0,0.0,20.0,3.0,0.0
2210,48.0,0.0,20.0,4.0,0.0
2211,60.0,1.0,20.0,6.0,0.0
2212,79.0,5.0,15.0,0.0,0.0
2213,72.0,7.0,15.0,0.0,0.0
2214,74.0,0.0,20.0,1.0,0.0
2215,68.0,0.0,20.0,2.0,0.0
2216,65.0,0.0,20.0,3.0,0.0
2217,53.0,1.0,20.0,4.0,0.0
2218,53.0,11.0,15.0,6.0,0.0
2219,80.0,10.0,15.0,0.0,0.0
2220,65.0,2.0,15.0,6.0,0.0
2221,79.0,10.0,15.0,0.0,0.0
2222,63.0,2.0,15.0,6.0,0.0
2223,77.0,0.0,15.0,0.0,0.0
2224,62.0,5.0,15.0,6.0,0.0
2225,72.0,7.0,15.0,0.0,0.0
2226,75.0,0.0,20.0,1.0,0.0
2227,67.0,0.0,20.0,2.0,0.0
2228,63.0,0.0,20.0,3.0,0.0
2229,51.0,1.0,20.0,4.0,0.0
2230,51.0,11.0,15.0,6.0,0.0
2231,79.0,10.0,15.0,0.0,0.0
2232,63.0,2.0,15.0,6.0,0.0
2233,77.0,10.0,15.0,0.0,0.0
2234,62.0,2.0,15.0,6.0,0.0
2235,75.0,0.0,15.0,0.0,0.0
2236,60.0,5.0,15.0,6.0,0.0
2237,65.0,7.0,15.0,0.0,0.0
2238,77.0,0.0,20.0,1.0,0.0
2239,65.0,0.0,20.0,2.0,0.0
2240,62.0,0.0,20.0,3.0,0.0
2241,50.0,1.0,20.0,4.0,0.0
2242,50.0,11.0,15.0,6.0,0.0
2243,77.0,10.0,15.0,0.0,0.0
2244,62.0,2.0,15.0,6.0,0.0
2245,75.0,10.0,15.0,0.0,0.0
2246,60.0,2.0,15.0,6.0,0.0
2247,74.0,0.0,15.0,0.0,0.0
2248,59.0,2.0,15.0,6.0,0.0
2249,75.0,0.0,20.0,0.0,0.0
2250,75.0,0.0,20.0,1.0,0.0
2251,67.0,0.0,20.0,2.0,0.0
2252,60.0,0.0,20.0,3.0,0.0
2253,48.0,1.0,20.0,4.0,0.0
2254,60.0,11.0,15.0,6.0,0.0
2255,75.0,0.0,15.0,5.0,0.0
2256,58.0,12.0,15.0,6.0,0.0
2257,84.0,1.0,20.0,0.0,0.0
2258,77.0,0.0,15.0,5.0,0.0
2259,56.0,11.0,15.0,6.0,0.0
2260,79.0,0.0,15.0,5.0,0.0
2261,55.0,12.0,15.0,6.0,0.0
2262,84.0,9.0,150.0,0.0,0.0
2263,72.0,0.0,20.0,1.0,0.0
2264,65.0,0.0,20.0,2.0,0.0
2265,53.0,0.0,20.0,3.0,0.0
2266,41.0,0.0,20.0,4.0,0.0
2267,80.0,11.0,15.0,5.0,0.0
2268,53.0,1.0,20.0,6.0,0.0
2269,83.0,12.0,15.0,5.0,0.0
2270,84.0,11.0,15.0,5.0,0.0
2271,65.0,1.0,20.0,6.0,0.0
2272,86.0,12.0,15.0,5.0,0.0
2273,75.0,0.0,20.0,1.0,0.0
2274,67.0,0.0,20.0,2.0,0.0
2275,51.0,0.0,20.0,3.0,0.0
2276,39.0,0.0,20.0,4.0,0.0
2277,79.0,11.0,15.0,5.0,0.0
2278,63.0,1.0,20.0,6.0,0.0
2279,83.0,12.0,15.0,5.0,0.0
2280,84.0,11.0,15.0,5.0,0.0
2281,51.0,1.0,20.0,6.0,0.0
2282,86.0,12.0,15.0,5.0,0.0
2283,77.0,0.0,20.0,1.0,0.0
2284,74.0,0.0,20.0,2.0,0.0
2285,50.0,0.0,20.0,3.0,0.0
2286,38.0,0.0,20.0,4.0,0.0
2287,77.0,11.0,15.0,5.0,0.0
2288,50.0,1.0,20.0,6.0,0.0
2289,83.0,12.0,15.0,5.0,0.0
2290,84.0,11.0,15.0,5.0,0.0
2291,62.0,1.0,20.0,6.0,0.0
2292,86.0,12.0,15.0,5.0,0.0
2293,79.0,0.0,20.0,1.0,0.0
2294,75.0,0.0,20.0,2.0,0.0
2295,48.0,0.0,20.0,3.0,0.0
2296,36.0,0.0,20.0,4.0,0.0
2297,75.0,2.0,15.0,5.0,0.0
2298,60.0,1.0,20.0,6.0,0.0
2299,79.0,12.0,15.0,5.0,0.0
2300,83.0,0.0,20.0,0.0,0.0
2301,77.0,0.0,20.0,1.0,0.0
2302,79.0,0.0,20.0,2.0,0.0
2303,55.0,0.0,20.0,3.0,0.0
2304,43.0,0.0,20.0,4.0,0.0
2305,83.0,11.0,15.0,5.0,0.0
2306,55.0,1.0,20.0,6.0,0.0
2307,86.0,12.0,15.0,5.0,0.0
2308,84.0,3.0,30.0,0.0,0.0
2309,75.0,0.0,20.0,1.0,0.0
2310,72.0,0.0,20.0,2.0,0.0
2311,56.0,0.0,20.0,3.0,0.0
2312,44.0,0.0,20.0,4.0,0.0
2313,84.0,11.0,15.0,5.0,0.0
2314,56.0,1.0,20.0,6.0,0.0
2315,83.0,9.0,15.0,5.0,0.0
2316,84.0,0.0,20.0,1.0,0.0
2317,68.0,0.0,20.0,2.0,0.0
2318,53.0,0.0,20.0,3.0,0.0
2319,41.0,0.0,20.0,4.0,0.0
2320,84.0,11.0,15.0,5.0,0.0
2321,53.0,1.0,20.0,6.0,0.0
2322,89.0,0.0,15.0,0.0,0.0
2323,89.0,23.0,15.0,5.0,0.0
2324,86.0,0.0,30.0,0.0,0.0
2325,84.0,0.0,20.0,1.0,0.0
2326,67.0,0.0,20.0,2.0,0.0
2327,55.0,0.0,20.0,3.0,0.0
2328,43.0,0.0,20.0,4.0,0.0
2329,86.0,14.0,30.0,5.0,0.0
2330,55.0,10.0,20.0,6.0,0.0
2331,83.0,0.0,20.0,1.0,0.0
2332,74.0,0.0,20.0,2.0,0.0
2333,43.0,0.0,20.0,3.0,0.0
2334,31.0,0.0,20.0,4.0,0.0
2335,43.0,1.0,20.0,6.0,0.0
2336,84.0,0.0,15.0,0.0,0.0
2337,84.0,44.0,15.0,5.0,0.0
2338,84.0,0.0,30.0,0.0,0.0
2339,79.0,0.0,30.0,1.0,0.0
2340,75.0,0.0,30.0,2.0,0.0
2341,48.0,0.0,30.0,3.0,0.0
2342,36.0,0.0,30.0,4.0,0.0
2343,84.0,0.0,30.0,5.0,0.0
2344,48.0,51.0,30.0,6.0,0.0
2345,75.0,0.0,20.0,0.0,0.0
2346,68.0,0.0,20.0,1.0,0.0
2347,60.0,0.0,20.0,2.0,0.0
2348,75.0,13.0,20.0,5.0,0.0
2349,80.0,0.0,15.0,0.0,0.0
2350,68.0,0.0,20.0,1.0,0.0
2351,60.0,1.0,20.0,2.0,0.0
2352,44.0,0.0,30.0,3.0,0.0
2353,32.0,3.0,30.0,4.0,0.0
2354,72.0,7.0,15.0,5.0,0.0
2355,79.0,1.0,15.0,0.0,0.0
2356,70.0,4.0,15.0,5.0,0.0
2357,68.0,11.0,15.0,5.0,0.0
2358,80.0,0.0,15.0,0.0,0.0
2359,72.0,0.0,20.0,1.0,0.0
2360,63.0,0.0,20.0,2.0,0.0
2361,63.0,7.0,15.0,5.0,0.0
2362,56.0,1.0,20.0,6.0,0.0
2363,84.0,1.0,15.0,0.0,0.0
2364,68.0,1.0,15.0,5.0,0.0
2365,70.0,11.0,15.0,5.0,0.0
2366,80.0,0.0,15.0,0.0,0.0
2367,72.0,0.0,20.0,1.0,0.0
2368,63.0,1.0,20.0,2.0,0.0
2369,72.0,7.0,15.0,5.0,0.0
2370,44.0,3.0,30.0,6.0,0.0
2371,75.0,1.0,15.0,0.0,0.0
2372,70.0,4.0,15.0,5.0,0.0
2373,68.0,11.0,15.0,5.0,0.0
2374,72.0,0.0,15.0,0.0,0.0
2375,75.0,0.0,20.0,1.0,0.0
2376,68.0,0.0,20.0,2.0,0.0
2377,56.0,0.0,20.0,3.0,0.0
2378,44.0,1.0,20.0,4.0,0.0
2379,63.0,7.0,15.0,5.0,0.0
2380,75.0,1.0,15.0,0.0,0.0
2381,68.0,1.0,15.0,5.0,0.0
2382,70.0,11.0,15.0,5.0,0.0
2383,68.0,0.0,15.0,0.0,0.0
2384,75.0,0.0,20.0,1.0,0.0
2385,68.0,1.0,20.0,2.0,0.0
2386,44.0,0.0,30.0,3.0,0.0
2387,32.0,3.0,30.0,4.0,0.0
2388,72.0,7.0,15.0,5.0,0.0
2389,75.0,1.0,15.0,0.0,0.0
2390,70.0,4.0,15.0,5.0,0.0
2391,68.0,11.0,15.0,5.0,0.0
2392,72.0,0.0,15.0,0.0,0.0
2393,80.0,0.0,20.0,1.0,0.0
2394,72.0,0.0,20.0,2.0,0.0
2395,75.0,7.0,15.0,5.0,0.0
2396,56.0,1.0,20.0,6.0,0.0
2397,75.0,1.0,15.0,0.0,0.0
2398,73.0,1.0,15.0,5.0,0.0
2399,72.0,11.0,15.0,5.0,0.0
2400,68.0,0.0,15.0,0.0,0.0
2401,80.0,0.0,20.0,1.0,0.0
2402,72.0,1.0,20.0,2.0,0.0
2403,80.0,11.0,15.0,5.0,0.0
2404,44.0,3.0,30.0,6.0,0.0
2405,75.0,0.0,15.0,0.0,0.0
2406,75.0,12.0,15.0,5.0,0.0
2407,72.0,0.0,15.0,0.0,0.0
2408,56.0,0.0,20.0,3.0,0.0
2409,44.0,1.0,20.0,4.0,0.0
2410,80.0,8.0,15.0,5.0,0.0
2411,75.0,0.0,15.0,0.0,0.0
2412,82.0,12.0,15.0,5.0,0.0
2413,80.0,0.0,15.0,0.0,0.0
2414,44.0,0.0,30.0,3.0,0.0
2415,32.0,3.0,30.0,4.0,0.0
2416,84.0,12.0,15.0,5.0,0.0
2417,79.0,0.0,15.0,0.0,0.0
2418,82.0,12.0,15.0,5.0,0.0
2419,80.0,0.0,15.0,0.0,0.0
2420,84.0,8.0,15.0,5.0,0.0
2421,56.0,1.0,20.0,6.0,0.0
2422,84.0,0.0,15.0,0.0,0.0
2423,87.0,12.0,15.0,5.0,0.0
2424,80.0,0.0,15.0,0.0,0.0
2425,84.0,12.0,15.0,5.0,0.0
2426,44.0,3.0,30.0,6.0,0.0
2427,75.0,0.0,15.0,0.0,0.0
2428,80.0,12.0,15.0,5.0,0.0
2429,72.0,0.0,15.0,0.0,0.0
2430,56.0,0.0,20.0,3.0,0.0
2431,44.0,1.0,20.0,4.0,0.0
2432,75.0,8.0,15.0,5.0,0.0
2433,75.0,0.0,15.0,0.0,0.0
2434,80.0,12.0,15.0,5.0,0.0
2435,68.0,0.0,15.0,0.0,0.0
2436,44.0,0.0,20.0,3.0,0.0
2437,32.0,1.0,20.0,4.0,0.0
2438,72.0,11.0,15.0,5.0,0.0
2439,75.0,0.0,15.0,0.0,0.0
2440,80.0,12.0,15.0,5.0,0.0
2441,72.0,0.0,15.0,0.0,0.0
2442,56.0,0.0,20.0,3.0,0.0
2443,44.0,0.0,20.0,4.0,0.0
2444,75.0,11.0,15.0,5.0,0.0
2445,44.0,1.0,20.0,6.0,0.0
2446,75.0,0.0,15.0,0.0,0.0
2447,72.0,12.0,15.0,5.0,0.0
2448,80.0,11.0,15.0,0.0,0.0
2449,60.0,0.0,20.0,3.0,0.0
2450,48.0,0.0,20.0,4.0,0.0
2451,68.0,0.0,20.0,5.0,0.0
2452,48.0,1.0,20.0,6.0,0.0
2453,75.0,8.0,15.0,0.0,0.0
2454,82.0,2.0,15.0,0.0,0.0
2455,79.0,0.0,20.0,1.0,0.0
2456,75.0,0.0,20.0,2.0,0.0
2457,63.0,0.0,20.0,3.0,0.0
2458,51.0,0.0,20.0,4.0,0.0
2459,84.0,4.0,15.0,5.0,0.0
2460,51.0,1.0,20.0,6.0,0.0
2461,82.0,6.0,15.0,5.0,0.0
2462,75.0,1.0,15.0,0.0,0.0
2463,80.0,3.0,15.0,5.0,0.0
2464,82.0,7.0,15.0,5.0,0.0
2465,84.0,0.0,20.0,0.0,0.0
2466,80.0,0.0,20.0,1.0,0.0
2467,75.0,0.0,20.0,2.0,0.0
2468,68.0,0.0,20.0,3.0,0.0
2469,56.0,0.0,20.0,4.0,0.0
2470,84.0,15.0,15.0,5.0,0.0
2471,56.0,9.0,20.0,6.0,0.0
2472,82.0,0.0,20.0,0.0,0.0
2473,82.0,0.0,20.0,1.0,0.0
2474,75.0,0.0,20.0,2.0,0.0
2475,67.0,0.0,20.0,3.0,0.0
2476,55.0,0.0,20.0,4.0,0.0
2477,82.0,15.0,15.0,5.0,0.0
2478,55.0,9.0,20.0,6.0,0.0
2479,85.0,0.0,20.0,0.0,0.0
2480,80.0,0.0,20.0,1.0,0.0
2481,68.0,0.0,20.0,2.0,0.0
2482,65.0,0.0,20.0,3.0,0.0
2483,53.0,0.0,20.0,4.0,0.0
2484,85.0,15.0,15.0,5.0,0.0
2485,53.0,9.0,20.0,6.0,0.0
2486,84.0,0.0,20.0,0.0,0.0
2487,80.0,0.0,20.0,1.0,0.0
2488,72.0,0.0,20.0,2.0,0.0
2489,63.0,0.0,20.0,3.0,0.0
2490,51.0,0.0,20.0,4.0,0.0
2491,84.0,15.0,15.0,5.0,0.0
2492,51.0,9.0,20.0,6.0,0.0
2493,82.0,0.0,20.0,0.0,0.0
2494,79.0,0.0,20.0,1.0,0.0
2495,75.0,0.0,20.0,2.0,0.0
2496,61.0,0.0,20.0,3.0,0.0
2497,49.0,0.0,20.0,4.0,0.0
2498,82.0,6.0,15.0,5.0,0.0
2499,49.0,1.0,20.0,6.0,0.0
2500,84.0,9.0,15.0,5.0,0.0
2501,82.0,23.0,15.0,5.0,0.0
2502,80.0,0.0,20.0,0.0,0.0
2503,80.0,0.0,20.0,1.0,0.0
2504,75.0,0.0,20.0,2.0,0.0
2505,60.0,0.0,20.0,3.0,0.0
2506,48.0,0.0,20.0,4.0,0.0
2507,80.0,0.0,20.0,5.0,0.0
2508,48.0,25.0,20.0,6.0,0.0
2509,87.0,17.0,60.0,5.0,0.0
2510,60.0,0.0,15.0,3.0,0.0
2511,48.0,0.0,15.0,4.0,0.0
2512,60.0,12.0,15.0,6.0,0.0
2513,87.0,0.0,20.0,0.0,0.0
2514,82.0,0.0,20.0,1.0,0.0
2515,67.0,1.0,20.0,2.0,0.0
2516,61.0,0.0,15.0,3.0,0.0
2517,49.0,0.0,15.0,4.0,0.0
2518,61.0,11.0,15.0,6.0,0.0
2519,63.0,0.0,15.0,3.0,0.0
2520,51.0,0.0,15.0,4.0,0.0
2521,63.0,6.0,15.0,6.0,0.0
2522,87.0,0.0,20.0,0.0,0.0
2523,84.0,0.0,20.0,1.0,0.0
2524,68.0,0.0,20.0,2.0,0.0
2525,56.0,0.0,20.0,3.0,0.0
2526,44.0,0.0,20.0,4.0,0.0
2527,56.0,1.0,20.0,6.0,0.0
2528,78.0,12.0,15.0,5.0,0.0
2529,84.0,0.0,20.0,0.0,0.0
2530,80.0,0.0,20.0,1.0,0.0
2531,75.0,0.0,20.0,2.0,0.0
2532,68.0,0.0,20.0,3.0,0.0
2533,56.0,0.0,20.0,4.0,0.0
2534,77.0,11.0,15.0,5.0,0.0
2535,68.0,1.0,20.0,6.0,0.0
2536,78.0,23.0,15.0,5.0,0.0
2537,84.0,0.0,20.0,0.0,0.0
2538,80.0,0.0,20.0,1.0,0.0
2539,75.0,0.0,20.0,2.0,0.0
2540,80.0,1.0,20.0,5.0,0.0
2541,56.0,0.0,15.0,3.0,0.0
2542,44.0,0.0,15.0,4.0,0.0
2543,56.0,12.0,15.0,6.0,0.0
2544,80.0,0.0,20.0,0.0,0.0
2545,75.0,0.0,20.0,1.0,0.0
2546,72.0,0.0,20.0,2.0,0.0
2547,58.0,0.0,15.0,3.0,0.0
2548,46.0,0.0,15.0,4.0,0.0
2549,78.0,1.0,20.0,5.0,0.0
2550,58.0,11.0,15.0,6.0,0.0
2551,60.0,0.0,15.0,3.0,0.0
2552,48.0,0.0,15.0,4.0,0.0
2553,60.0,12.0,15.0,6.0,0.0
2554,80.0,0.0,15.0,0.0,0.0
2555,77.0,0.0,30.0,1.0,0.0
2556,68.0,3.0,30.0,2.0,0.0
2557,61.0,0.0,20.0,3.0,0.0
2558,49.0,0.0,20.0,4.0,0.0
2559,77.0,11.0,15.0,5.0,0.0
2560,61.0,1.0,20.0,6.0,0.0
2561,78.0,0.0,15.0,0.0,0.0
2562,75.0,12.0,15.0,5.0,0.0
2563,77.0,0.0,15.0,0.0,0.0
2564,49.0,0.0,20.0,3.0,0.0
2565,37.0,0.0,20.0,4.0,0.0
2566,73.0,8.0,15.0,5.0,0.0
2567,49.0,1.0,20.0,6.0,0.0
2568,75.0,0.0,15.0,0.0,0.0
2569,77.0,23.0,15.0,5.0,0.0
2570,73.0,1.0,20.0,0.0,0.0
2571,82.0,17.0,60.0,5.0,0.0
2572,58.0,0.0,15.0,3.0,0.0
2573,46.0,0.0,15.0,4.0,0.0
2574,58.0,12.0,15.0,6.0,0.0
2575,82.0,0.0,20.0,0.0,0.0
2576,77.0,0.0,20.0,1.0,0.0
2577,73.0,1.0,20.0,2.0,0.0
2578,60.0,0.0,15.0,3.0,0.0
2579,48.0,0.0,15.0,4.0,0.0
2580,60.0,11.0,15.0,6.0,0.0
2581,61.0,0.0,15.0,3.0,0.0
2582,49.0,0.0,15.0,4.0,0.0
2583,61.0,6.0,15.0,6.0,0.0
2584,82.0,0.0,20.0,0.0,0.0
2585,75.0,0.0,20.0,1.0,0.0
2586,70.0,0.0,20.0,2.0,0.0
2587,55.0,0.0,20.0,3.0,0.0
2588,43.0,0.0,20.0,4.0,0.0
2589,55.0,1.0,20.0,6.0,0.0
2590,73.0,12.0,15.0,5.0,0.0
2591,79.0,0.0,20.0,0.0,0.0
2592,75.0,0.0,20.0,1.0,0.0
2593,70.0,0.0,20.0,2.0,0.0
2594,63.0,0.0,20.0,3.0,0.0
2595,51.0,0.0,20.0,4.0,0.0
2596,72.0,11.0,15.0,5.0,0.0
2597,63.0,1.0,20.0,6.0,0.0
2598,73.0,23.0,15.0,5.0,0.0
2599,79.0,0.0,20.0,0.0,0.0
2600,75.0,0.0,20.0,1.0,0.0
2601,70.0,0.0,20.0,2.0,0.0
2602,75.0,1.0,20.0,5.0,0.0
2603,51.0,0.0,15.0,3.0,0.0
2604,39.0,0.0,15.0,4.0,0.0
2605,51.0,12.0,15.0,6.0,0.0
2606,75.0,0.0,20.0,0.0,0.0
2607,70.0,0.0,20.0,1.0,0.0
2608,67.0,0.0,20.0,2.0,0.0
2609,53.0,0.0,15.0,3.0,0.0
2610,41.0,0.0,15.0,4.0,0.0
2611,73.0,1.0,20.0,5.0,0.0
2612,53.0,11.0,15.0,6.0,0.0
2613,55.0,0.0,15.0,3.0,0.0
2614,43.0,0.0,15.0,4.0,0.0
2615,55.0,12.0,15.0,6.0,0.0
2616,75.0,0.0,15.0,0.0,0.0
2617,72.0,0.0,30.0,1.0,0.0
2618,63.0,3.0,30.0,2.0,0.0
2619,56.0,0.0,20.0,3.0,0.0
2620,44.0,0.0,20.0,4.0,0.0
2621,72.0,11.0,15.0,5.0,0.0
2622,56.0,1.0,20.0,6.0,0.0
2623,73.0,0.0,15.0,0.0,0.0
2624,75.0,12.0,15.0,5.0,0.0
2625,72.0,0.0,15.0,0.0,0.0
2626,44.0,0.0,20.0,3.0,0.0
2627,32.0,0.0,20.0,4.0,0.0
2628,80.0,8.0,15.0,5.0,0.0
2629,44.0,1.0,20.0,6.0,0.0
2630,70.0,0.0,15.0,0.0,0.0
2631,82.0,23.0,15.0,5.0,0.0
2632,68.0,1.0,20.0,0.0,0.0
2633,84.0,6.0,60.0,5.0,0.0
2634,80.0,0.0,15.0,1.0,0.0
2635,56.0,0.0,15.0,3.0,0.0
2636,44.0,0.0,15.0,4.0,0.0
2637,56.0,12.0,15.0,6.0,0.0
2638,75.0,1.0,20.0,0.0,0.0
2639,79.0,0.0,15.0,1.0,0.0
2640,58.0,0.0,15.0,3.0,0.0
2641,46.0,0.0,15.0,4.0,0.0
2642,58.0,11.0,15.0,6.0,0.0
2643,80.0,0.0,15.0,1.0,0.0
2644,60.0,0.0,15.0,3.0,0.0
2645,48.0,0.0,15.0,4.0,0.0
2646,60.0,6.0,15.0,6.0,0.0
2647,77.0,11.0,15.0,0.0,0.0
2648,77.0,17.0,60.0,1.0,0.0
2649,61.0,0.0,20.0,3.0,0.0
2650,49.0,0.0,20.0,4.0,0.0
2651,61.0,1.0,20.0,6.0,0.0
2652,80.0,0.0,15.0,0.0,0.0
2653,65.0,0.0,15.0,2.0,0.0
2654,80.0,6.0,15.0,5.0,0.0
2655,82.0,0.0,15.0,0.0,0.0
2656,67.0,1.0,15.0,2.0,0.0
2657,49.0,0.0,20.0,3.0,0.0
2658,37.0,0.0,20.0,4.0,0.0
2659,79.0,4.0,15.0,5.0,0.0
2660,49.0,1.0,20.0,6.0,0.0
2661,80.0,2.0,15.0,5.0,0.0
2662,79.0,10.0,15.0,5.0,0.0
2663,84.0,0.0,15.0,0.0,0.0
2664,68.0,0.0,15.0,2.0,0.0
2665,77.0,6.0,15.0,5.0,0.0
2666,85.0,1.0,20.0,0.0,0.0
2667,70.0,6.0,60.0,2.0,0.0
2668,85.0,5.0,60.0,5.0,0.0
2669,73.0,0.0,15.0,1.0,0.0
2670,58.0,0.0,15.0,3.0,0.0
2671,46.0,0.0,15.0,4.0,0.0
2672,58.0,12.0,15.0,6.0,0.0
2673,82.0,1.0,20.0,0.0,0.0
2674,75.0,0.0,15.0,1.0,0.0
2675,60.0,0.0,15.0,3.0,0.0
2676,48.0,0.0,15.0,4.0,0.0
2677,60.0,11.0,15.0,6.0,0.0
2678,77.0,0.0,15.0,1.0,0.0
2679,61.0,0.0,15.0,3.0,0.0
2680,49.0,0.0,15.0,4.0,0.0
2681,61.0,1.0,15.0,6.0,0.0
2682,79.0,1.0,15.0,0.0,0.0
2683,79.0,17.0,60.0,1.0,0.0
2684,63.0,0.0,20.0,3.0,0.0
2685,51.0,0.0,20.0,4.0,0.0
2686,63.0,1.0,20.0,6.0,0.0
2687,80.0,6.0,15.0,5.0,0.0
2688,82.0,0.0,15.0,0.0,0.0
2689,67.0,1.0,15.0,2.0,0.0
2690,79.0,4.0,15.0,5.0,0.0
2691,77.0,11.0,15.0,5.0,0.0
2692,84.0,0.0,15.0,0.0,0.0
2693,68.0,0.0,15.0,2.0,0.0
2694,51.0,0.0,20.0,3.0,0.0
2695,39.0,0.0,20.0,4.0,0.0
2696,79.0,11.0,15.0,5.0,0.0
2697,51.0,1.0,20.0,6.0,0.0
2698,85.0,0.0,15.0,0.0,0.0
2699,70.0,0.0,15.0,2.0,0.0
2700,82.0,6.0,15.0,5.0,0.0
2701,87.0,1.0,20.0,0.0,0.0
2702,72.0,6.0,60.0,2.0,0.0
2703,87.0,11.0,60.0,5.0,0.0
2704,75.0,0.0,15.0,1.0,0.0
2705,60.0,0.0,15.0,3.0,0.0
2706,48.0,0.0,15.0,4.0,0.0
2707,60.0,12.0,15.0,6.0,0.0
2708,84.0,1.0,20.0,0.0,0.0
2709,77.0,0.0,15.0,1.0,0.0
2710,61.0,0.0,15.0,3.0,0.0
2711,49.0,0.0,15.0,4.0,0.0
2712,61.0,11.0,15.0,6.0,0.0
2713,79.0,0.0,15.0,1.0,0.0
2714,63.0,0.0,15.0,3.0,0.0
2715,51.0,0.0,15.0,4.0,0.0
2716,63.0,6.0,15.0,6.0,0.0
2717,80.0,0.0,20.0,0.0,0.0
2718,80.0,0.0,20.0,1.0,0.0
2719,65.0,0.0,20.0,3.0,0.0
2720,53.0,0.0,20.0,4.0,0.0
2721,65.0,1.0,20.0,6.0,0.0
2722,85.0,12.0,15.0,5.0,0.0
2723,79.0,0.0,20.0,0.0,0.0
2724,84.0,0.0,20.0,1.0,0.0
2725,72.0,0.0,20.0,2.0,0.0
2726,63.0,0.0,20.0,3.0,0.0
2727,51.0,0.0,20.0,4.0,0.0
2728,84.0,11.0,15.0,5.0,0.0
2729,63.0,1.0,20.0,6.0,0.0
2730,82.0,12.0,15.0,5.0,0.0
2731,80.0,0.0,20.0,0.0,0.0
2732,77.0,0.0,20.0,1.0,0.0
2733,72.0,0.0,20.0,2.0,0.0
2734,65.0,0.0,20.0,3.0,0.0
2735,53.0,0.0,20.0,4.0,0.0
2736,80.0,11.0,15.0,5.0,0.0
2737,65.0,1.0,20.0,6.0,0.0
2738,84.0,12.0,15.0,5.0,0.0
2739,77.0,0.0,20.0,0.0,0.0
2740,82.0,0.0,20.0,1.0,0.0
2741,65.0,0.0,20.0,2.0,0.0
2742,62.0,0.0,20.0,3.0,0.0
2743,50.0,0.0,20.0,4.0,0.0
2744,82.0,11.0,15.0,5.0,0.0
2745,62.0,1.0,20.0,6.0,0.0
2746,80.0,12.0,15.0,5.0,0.0
2747,79.0,0.0,20.0,0.0,0.0
2748,70.0,0.0,20.0,1.0,0.0
2749,63.0,0.0,20.0,2.0,0.0
2750,63.0,0.0,20.0,3.0,0.0
2751,51.0,0.0,20.0,4.0,0.0
2752,79.0,11.0,15.0,5.0,0.0
2753,63.0,1.0,20.0,6.0,0.0
2754,80.0,12.0,15.0,5.0,0.0
2755,75.0,0.0,20.0,0.0,0.0
2756,75.0,0.0,20.0,1.0,0.0
2757,67.0,0.0,20.0,2.0,0.0
2758,61.0,0.0,20.0,3.0,0.0
2759,49.0,0.0,20.0,4.0,0.0
2760,82.0,11.0,15.0,5.0,0.0
2761,61.0,1.0,20.0,6.0,0.0
2762,79.0,23.0,15.0,5.0,0.0
2763,60.0,0.0,20.0,3.0,0.0
2764,48.0,0.0,20.0,4.0,0.0
2765,75.0,0.0,20.0,5.0,0.0
2766,60.0,1.0,20.0,6.0,0.0
2767,75.0,12.0,15.0,0.0,0.0
2768,77.0,11.0,15.0,0.0,0.0
2769,58.0,0.0,20.0,3.0,0.0
2770,46.0,0.0,20.0,4.0,0.0
2771,73.0,0.0,20.0,5.0,0.0
2772,58.0,1.0,20.0,6.0,0.0
2773,79.0,12.0,15.0,0.0,0.0
2774,80.0,0.0,15.0,0.0,0.0
2775,56.0,0.0,20.0,3.0,0.0
2776,44.0,0.0,20.0,4.0,0.0
2777,72.0,11.0,15.0,5.0,0.0
2778,56.0,1.0,20.0,6.0,0.0
2779,79.0,0.0,15.0,0.0,0.0
2780,70.0,12.0,15.0,5.0,0.0
2781,80.0,0.0,15.0,0.0,0.0
2782,80.0,0.0,20.0,1.0,0.0
2783,72.0,0.0,20.0,2.0,0.0
2784,68.0,0.0,20.0,3.0,0.0
2785,56.0,0.0,20.0,4.0,0.0
2786,72.0,11.0,15.0,5.0,0.0
2787,68.0,1.0,20.0,6.0,0.0
2788,84.0,0.0,15.0,0.0,0.0
2789,75.0,12.0,15.0,5.0,0.0
2790,80.0,0.0,15.0,0.0,0.0
2791,80.0,0.0,20.0,1.0,0.0
2792,72.0,1.0,20.0,2.0,0.0
2793,72.0,11.0,15.0,5.0,0.0
2794,75.0,0.0,15.0,0.0,0.0
2795,75.0,12.0,15.0,5.0,0.0
2796,72.0,0.0,15.0,0.0,0.0
2797,75.0,0.0,20.0,1.0,0.0
2798,68.0,1.0,20.0,2.0,0.0
2799,56.0,0.0,15.0,3.0,0.0
2800,44.0,0.0,15.0,4.0,0.0
2801,80.0,0.0,15.0,5.0,0.0
2802,56.0,11.0,15.0,6.0,0.0
2803,75.0,0.0,15.0,0.0,0.0
2804,55.0,0.0,15.0,3.0,0.0
2805,43.0,0.0,15.0,4.0,0.0
2806,75.0,0.0,15.0,5.0,0.0
2807,55.0,12.0,15.0,6.0,0.0
2808,68.0,0.0,15.0,0.0,0.0
2809,77.0,0.0,20.0,1.0,0.0
2810,68.0,0.0,20.0,2.0,0.0
2811,53.0,0.0,20.0,3.0,0.0
2812,41.0,0.0,20.0,4.0,0.0
2813,84.0,11.0,15.0,5.0,0.0
2814,53.0,1.0,20.0,6.0,0.0
2815,75.0,0.0,15.0,0.0,0.0
2816,82.0,12.0,15.0,5.0,0.0
2817,72.0,0.0,15.0,0.0,0.0
2818,84.0,0.0,20.0,1.0,0.0
2819,77.0,0.0,20.0,2.0,0.0
2820,65.0,0.0,20.0,3.0,0.0
2821,53.0,0.0,20.0,4.0,0.0
2822,80.0,11.0,15.0,5.0,0.0
2823,65.0,1.0,20.0,6.0,0.0
2824,75.0,0.0,15.0,0.0,0.0
2825,79.0,12.0,15.0,5.0,0.0
2826,68.0,11.0,15.0,0.0,0.0
2827,84.0,0.0,20.0,1.0,0.0
2828,77.0,0.0,20.0,2.0,0.0
2829,80.0,1.0,20.0,5.0,0.0
2830,75.0,0.0,15.0,0.0,0.0
2831,53.0,0.0,15.0,3.0,0.0
2832,41.0,0.0,15.0,4.0,0.0
2833,53.0,12.0,15.0,6.0,0.0
2834,72.0,0.0,15.0,0.0,0.0
2835,80.0,0.0,20.0,1.0,0.0
2836,72.0,1.0,20.0,2.0,0.0
2837,51.0,0.0,15.0,3.0,0.0
2838,39.0,0.0,15.0,4.0,0.0
2839,87.0,3.0,30.0,5.0,0.0
2840,51.0,11.0,15.0,6.0,0.0
2841,75.0,0.0,15.0,0.0,0.0
2842,49.0,0.0,15.0,3.0,0.0
2843,37.0,0.0,15.0,4.0,0.0
2844,49.0,9.0,15.0,6.0,0.0
2845,80.0,11.0,15.0,0.0,0.0
2846,80.0,0.0,20.0,1.0,0.0
2847,72.0,0.0,20.0,2.0,0.0
2848,48.0,0.0,20.0,3.0,0.0
2849,36.0,0.0,20.0,4.0,0.0
2850,48.0,1.0,20.0,6.0,0.0
2851,79.0,0.0,15.0,0.0,0.0
2852,89.0,12.0,15.0,5.0,0.0
2853,80.0,0.0,15.0,0.0,0.0
2854,68.0,0.0,20.0,1.0,0.0
2855,63.0,0.0,20.0,2.0,0.0
2856,60.0,0.0,20.0,3.0,0.0
2857,48.0,0.0,20.0,4.0,0.0
2858,87.0,11.0,15.0,5.0,0.0
2859,60.0,1.0,20.0,6.0,0.0
2860,84.0,0.0,15.0,0.0,0.0
2861,85.0,12.0,15.0,5.0,0.0
2862,80.0,0.0,15.0,0.0,0.0
2863,72.0,0.0,20.0,1.0,0.0
2864,68.0,1.0,20.0,2.0,0.0
2865,84.0,11.0,15.0,5.0,0.0
2866,75.0,0.0,15.0,0.0,0.0
2867,82.0,12.0,15.0,5.0,0.0
2868,72.0,0.0,15.0,0.0,0.0
2869,75.0,0.0,20.0,1.0,0.0
2870,72.0,1.0,20.0,2.0,0.0
2871,48.0,0.0,15.0,3.0,0.0
2872,36.0,0.0,15.0,4.0,0.0
2873,80.0,0.0,15.0,5.0,0.0
2874,48.0,11.0,15.0,6.0,0.0
2875,75.0,0.0,15.0,0.0,0.0
2876,46.0,0.0,15.0,3.0,0.0
2877,34.0,0.0,15.0,4.0,0.0
2878,79.0,0.0,15.0,5.0,0.0
2879,46.0,12.0,15.0,6.0,0.0
2880,68.0,0.0,15.0,0.0,0.0
2881,80.0,0.0,15.0,1.0,0.0
2882,75.0,0.0,20.0,2.0,0.0
2883,44.0,0.0,20.0,3.0,0.0
2884,32.0,0.0,20.0,4.0,0.0
2885,80.0,11.0,15.0,5.0,0.0
2886,44.0,1.0,20.0,6.0,0.0
2887,75.0,0.0,15.0,0.0,0.0
2888,79.0,0.0,15.0,1.0,0.0
2889,75.0,12.0,15.0,5.0,0.0
2890,72.0,0.0,15.0,0.0,0.0
2891,80.0,0.0,15.0,1.0,0.0
2892,63.0,0.0,20.0,2.0,0.0
2893,56.0,0.0,20.0,3.0,0.0
2894,44.0,0.0,20.0,4.0,0.0
2895,72.0,11.0,15.0,5.0,0.0
2896,56.0,1.0,20.0,6.0,0.0
2897,75.0,0.0,15.0,0.0,0.0
2898,79.0,0.0,15.0,1.0,0.0
2899,75.0,12.0,15.0,5.0,0.0
2900,80.0,0.0,15.0,0.0,0.0
2901,80.0,0.0,20.0,1.0,0.0
2902,75.0,0.0,20.0,2.0,0.0
2903,60.0,0.0,20.0,3.0,0.0
2904,48.0,0.0,20.0,4.0,0.0
2905,80.0,11.0,15.0,5.0,0.0
2906,60.0,1.0,20.0,6.0,0.0
2907,75.0,0.0,15.0,0.0,0.0
2908,84.0,12.0,15.0,5.0,0.0
2909,82.0,0.0,15.0,0.0,0.0
2910,79.0,0.0,20.0,1.0,0.0
2911,75.0,0.0,20.0,2.0,0.0
2912,63.0,0.0,20.0,3.0,0.0
2913,51.0,0.0,20.0,4.0,0.0
2914,82.0,11.0,15.0,5.0,0.0
2915,63.0,1.0,20.0,6.0,0.0
2916,75.0,0.0,15.0,0.0,0.0
2917,85.0,23.0,15.0,5.0,0.0
2918,84.0,0.0,20.0,0.0,0.0
2919,80.0,0.0,20.0,1.0,0.0
2920,75.0,0.0,20.0,2.0,0.0
2921,68.0,0.0,20.0,3.0,0.0
2922,56.0,0.0,20.0,4.0,0.0
2923,84.0,0.0,20.0,5.0,0.0
2924,68.0,24.0,20.0,6.0,0.0
2925,82.0,0.0,20.0,0.0,0.0
2926,82.0,0.0,20.0,1.0,0.0
2927,75.0,0.0,20.0,2.0,0.0
2928,67.0,0.0,20.0,3.0,0.0
2929,55.0,0.0,20.0,4.0,0.0
2930,82.0,0.0,20.0,5.0,0.0
2931,67.0,24.0,20.0,6.0,0.0
2932,85.0,0.0,20.0,0.0,0.0
2933,80.0,0.0,20.0,1.0,0.0
2934,68.0,0.0,20.0,2.0,0.0
2935,65.0,0.0,20.0,3.0,0.0
2936,53.0,0.0,20.0,4.0,0.0
2937,85.0,0.0,20.0,5.0,0.0
2938,65.0,24.0,20.0,6.0,0.0
2939,84.0,0.0,20.0,0.0,0.0
2940,80.0,0.0,20.0,1.0,0.0
2941,72.0,0.0,20.0,2.0,0.0
2942,63.0,0.0,20.0,3.0,0.0
2943,51.0,0.0,20.0,4.0,0.0
2944,84.0,0.0,20.0,5.0,0.0
2945,63.0,9.0,20.0,6.0,0.0
2946,82.0,0.0,20.0,0.0,0.0
2947,79.0,0.0,20.0,1.0,0.0
2948,75.0,0.0,20.0,2.0,0.0
2949,61.0,0.0,20.0,3.0,0.0
2950,49.0,0.0,20.0,4.0,0.0
2951,82.0,6.0,15.0,5.0,0.0
2952,61.0,1.0,20.0,6.0,0.0
2953,84.0,9.0,15.0,5.0,0.0
2954,82.0,23.0,15.0,5.0,0.0
2955,80.0,0.0,20.0,0.0,0.0
2956,80.0,0.0,20.0,1.0,0.0
2957,63.0,0.0,20.0,2.0,0.0
2958,60.0,0.0,20.0,3.0,0.0
2959,48.0,0.0,20.0,4.0,0.0
2960,80.0,0.0,20.0,5.0,0.0
2961,60.0,37.0,20.0,6.0,0.0
2962,87.0,0.0,60.0,0.0,0.0
2963,87.0,17.0,60.0,5.0,0.0
2964,80.0,11.0,15.0,1.0,0.0
2965,75.0,0.0,20.0,2.0,0.0
2966,60.0,0.0,20.0,3.0,0.0
2967,48.0,0.0,20.0,4.0,0.0
2968,60.0,1.0,20.0,6.0,0.0
2969,79.0,6.0,15.0,1.0,0.0
2970,80.0,0.0,20.0,1.0,0.0
2971,72.0,0.0,20.0,2.0,0.0
2972,65.0,0.0,20.0,3.0,0.0
2973,53.0,0.0,20.0,4.0,0.0
2974,65.0,1.0,20.0,6.0,0.0
2975,80.0,0.0,15.0,0.0,0.0
2976,80.0,12.0,15.0,5.0,0.0
2977,79.0,0.0,15.0,0.0,0.0
2978,84.0,0.0,20.0,1.0,0.0
2979,75.0,0.0,20.0,2.0,0.0
2980,63.0,0.0,20.0,3.0,0.0
2981,51.0,0.0,20.0,4.0,0.0
2982,79.0,11.0,15.0,5.0,0.0
2983,63.0,1.0,20.0,6.0,0.0
2984,80.0,0.0,15.0,0.0,0.0
2985,80.0,23.0,15.0,5.0,0.0
2986,82.0,0.0,20.0,0.0,0.0
2987,79.0,0.0,20.0,1.0,0.0
2988,75.0,0.0,20.0,2.0,0.0
2989,61.0,0.0,20.0,3.0,0.0
2990,49.0,0.0,20.0,4.0,0.0
2991,82.0,0.0,20.0,5.0,0.0
2992,61.0,24.0,20.0,6.0,0.0
2993,80.0,0.0,20.0,0.0,0.0
2994,80.0,0.0,20.0,1.0,0.0
2995,63.0,0.0,20.0,2.0,0.0
2996,60.0,0.0,20.0,3.0,0.0
2997,48.0,0.0,20.0,4.0,0.0
2998,80.0,0.0,20.0,5.0,0.0
2999,60.0,13.0,20.0,6.0,0.0
3000,79.0,0.0,15.0,0.0,0.0
3001,73.0,0.0,20.0,1.0,0.0
3002,70.0,0.0,20.0,2.0,0.0
3003,58.0,0.0,20.0,3.0,0.0
3004,46.0,0.0,20.0,4.0,0.0
3005,79.0,11.0,15.0,5.0,0.0
3006,58.0,1.0,20.0,6.0,0.0
3007,80.0,0.0,15.0,0.0,0.0
3008,80.0,12.0,15.0,5.0,0.0
3009,82.0,0.0,15.0,0.0,0.0
3010,77.0,0.0,20.0,1.0,0.0
3011,73.0,0.0,20.0,2.0,0.0
3012,56.0,0.0,20.0,3.0,0.0
3013,44.0,0.0,20.0,4.0,0.0
3014,82.0,11.0,15.0,5.0,0.0
3015,56.0,1.0,20.0,6.0,0.0
3016,79.0,0.0,15.0,0.0,0.0
3017,79.0,12.0,15.0,5.0,0.0
3018,75.0,0.0,15.0,0.0,0.0
3019,70.0,0.0,20.0,1.0,0.0
3020,75.0,0.0,20.0,2.0,0.0
3021,55.0,0.0,20.0,3.0,0.0
3022,43.0,0.0,20.0,4.0,0.0
3023,75.0,11.0,15.0,5.0,0.0
3024,55.0,1.0,20.0,6.0,0.0
3025,85.0,2.0,15.0,0.0,0.0
3026,85.0,10.0,15.0,5.0,0.0
3027,84.0,2.0,15.0,0.0,0.0
3028,82.0,0.0,20.0,1.0,0.0
3029,75.0,0.0,20.0,2.0,0.0
3030,51.0,0.0,20.0,3.0,0.0
3031,39.0,0.0,20.0,4.0,0.0
3032,84.0,9.0,15.0,5.0,0.0
3033,51.0,1.0,20.0,6.0,0.0
3034,82.0,0.0,15.0,0.0,0.0
3035,82.0,12.0,15.0,5.0,0.0
3036,84.0,0.0,20.0,0.0,0.0
3037,80.0,0.0,15.0,1.0,0.0
3038,63.0,0.0,20.0,2.0,0.0
3039,56.0,0.0,20.0,3.0,0.0
3040,44.0,0.0,20.0,4.0,0.0
3041,75.0,11.0,15.0,5.0,0.0
3042,56.0,1.0,20.0,6.0,0.0
3043,75.0,2.0,15.0,1.0,0.0
3044,84.0,10.0,15.0,5.0,0.0
3045,73.0,2.0,15.0,1.0,0.0
3046,82.0,10.0,15.0,5.0,0.0
3047,72.0,0.0,15.0,1.0,0.0
3048,80.0,12.0,15.0,5.0,0.0
3049,70.0,0.0,20.0,1.0,0.0
3050,67.0,0.0,20.0,2.0,0.0
3051,55.0,0.0,20.0,3.0,0.0
3052,43.0,0.0,20.0,4.0,0.0
3053,75.0,11.0,15.0,5.0,0.0
3054,55.0,1.0,20.0,6.0,0.0
3055,82.0,2.0,15.0,0.0,0.0
3056,82.0,10.0,15.0,5.0,0.0
3057,80.0,2.0,15.0,0.0,0.0
3058,80.0,10.0,15.0,5.0,0.0
3059,79.0,0.0,15.0,0.0,0.0
3060,79.0,12.0,15.0,5.0,0.0
3061,80.0,0.0,20.0,0.0,0.0
3062,60.0,0.0,20.0,2.0,0.0
3063,53.0,0.0,20.0,3.0,0.0
3064,41.0,0.0,20.0,4.0,0.0
3065,80.0,11.0,15.0,5.0,0.0
3066,53.0,1.0,20.0,6.0,0.0
3067,65.0,2.0,15.0,1.0,0.0
3068,73.0,10.0,15.0,5.0,0.0
3069,63.0,2.0,15.0,1.0,0.0
3070,72.0,10.0,15.0,5.0,0.0
3071,61.0,0.0,15.0,1.0,0.0
3072,70.0,12.0,15.0,5.0,0.0
3073,63.0,0.0,20.0,1.0,0.0
3074,68.0,9.0,90.0,2.0,0.0
3075,48.0,0.0,20.0,3.0,0.0
3076,36.0,0.0,20.0,4.0,0.0
3077,68.0,11.0,15.0,5.0,0.0
3078,48.0,1.0,20.0,6.0,0.0
3079,78.0,2.0,15.0,0.0,0.0
3080,78.0,10.0,15.0,5.0,0.0
3081,77.0,2.0,15.0,0.0,0.0
3082,44.0,0.0,20.0,3.0,0.0
3083,32.0,0.0,20.0,4.0,0.0
3084,77.0,9.0,15.0,5.0,0.0
3085,44.0,1.0,20.0,6.0,0.0
3086,75.0,0.0,15.0,0.0,0.0
3087,75.0,12.0,15.0,5.0,0.0
3088,77.0,0.0,15.0,0.0,0.0
3089,49.0,0.0,20.0,3.0,0.0
3090,37.0,0.0,20.0,4.0,0.0
3091,77.0,11.0,15.0,5.0,0.0
3092,49.0,1.0,20.0,6.0,0.0
3093,75.0,0.0,15.0,0.0,0.0
3094,85.0,12.0,15.0,5.0,0.0
3095,73.0,2.0,15.0,0.0,0.0
3096,68.0,0.0,20.0,1.0,0.0
3097,53.0,0.0,20.0,3.0,0.0
3098,41.0,0.0,20.0,4.0,0.0
3099,77.0,3.0,30.0,5.0,0.0
3100,53.0,1.0,20.0,6.0,0.0
3101,72.0,9.0,15.0,0.0,0.0
3102,70.0,11.0,15.0,0.0,0.0
3103,73.0,0.0,20.0,1.0,0.0
3104,70.0,9.0,90.0,2.0,0.0
3105,49.0,0.0,20.0,3.0,0.0
3106,37.0,0.0,20.0,4.0,0.0
3107,49.0,1.0,20.0,6.0,0.0
3108,84.0,0.0,15.0,0.0,0.0
3109,75.0,12.0,15.0,5.0,0.0
3110,82.0,0.0,15.0,0.0,0.0
3111,77.0,3.0,30.0,1.0,0.0
3112,46.0,0.0,20.0,3.0,0.0
3113,34.0,0.0,20.0,4.0,0.0
3114,73.0,11.0,15.0,5.0,0.0
3115,46.0,1.0,20.0,6.0,0.0
3116,80.0,0.0,15.0,0.0,0.0
3117,72.0,12.0,15.0,5.0,0.0
3118,79.0,0.0,15.0,0.0,0.0
3119,51.0,0.0,20.0,3.0,0.0
3120,39.0,0.0,20.0,4.0,0.0
3121,70.0,8.0,15.0,5.0,0.0
3122,51.0,1.0,20.0,6.0,0.0
3123,77.0,0.0,15.0,0.0,0.0
3124,80.0,12.0,15.0,5.0,0.0
3125,75.0,2.0,15.0,0.0,0.0
3126,70.0,0.0,20.0,1.0,0.0
3127,55.0,0.0,20.0,3.0,0.0
3128,43.0,0.0,20.0,4.0,0.0
3129,79.0,3.0,30.0,5.0,0.0
3130,55.0,1.0,20.0,6.0,0.0
3131,73.0,9.0,15.0,0.0,0.0
3132,72.0,11.0,15.0,0.0,0.0
3133,75.0,0.0,20.0,1.0,0.0
3134,72.0,9.0,90.0,2.0,0.0
3135,51.0,0.0,20.0,3.0,0.0
3136,39.0,0.0,20.0,4.0,0.0
3137,51.0,1.0,20.0,6.0,0.0
3138,85.0,0.0,15.0,0.0,0.0
3139,77.0,12.0,15.0,5.0,0.0
3140,84.0,0.0,15.0,0.0,0.0
3141,79.0,3.0,30.0,1.0,0.0
3142,48.0,0.0,20.0,3.0,0.0
3143,36.0,0.0,20.0,4.0,0.0
3144,75.0,11.0,15.0,5.0,0.0
3145,48.0,1.0,20.0,6.0,0.0
3146,82.0,0.0,15.0,0.0,0.0
3147,73.0,12.0,15.0,5.0,0.0
3148,80.0,0.0,15.0,0.0,0.0
3149,53.0,0.0,20.0,3.0,0.0
3150,41.0,0.0,20.0,4.0,0.0
3151,72.0,8.0,15.0,5.0,0.0
3152,53.0,1.0,20.0,6.0,0.0
3153,79.0,0.0,15.0,0.0,0.0
3154,82.0,12.0,15.0,5.0,0.0
3155,77.0,2.0,15.0,0.0,0.0
3156,72.0,0.0,20.0,1.0,0.0
3157,56.0,0.0,20.0,3.0,0.0
3158,44.0,0.0,20.0,4.0,0.0
3159,80.0,3.0,30.0,5.0,0.0
3160,56.0,1.0,20.0,6.0,0.0
3161,75.0,9.0,15.0,0.0,0.0
3162,73.0,11.0,15.0,0.0,0.0
3163,77.0,0.0,20.0,1.0,0.0
3164,73.0,0.0,20.0,2.0,0.0
3165,53.0,0.0,20.0,3.0,0.0
3166,41.0,0.0,20.0,4.0,0.0
3167,53.0,1.0,20.0,6.0,0.0
3168,87.0,0.0,15.0,0.0,0.0
3169,79.0,12.0,15.0,5.0,0.0
3170,85.0,0.0,15.0,0.0,0.0
3171,80.0,0.0,20.0,1.0,0.0
3172,77.0,0.0,20.0,2.0,0.0
3173,49.0,0.0,20.0,3.0,0.0
3174,37.0,0.0,20.0,4.0,0.0
3175,77.0,11.0,15.0,5.0,0.0
3176,49.0,1.0,20.0,6.0,0.0
3177,84.0,0.0,15.0,0.0,0.0
3178,75.0,12.0,15.0,5.0,0.0
3179,82.0,0.0,15.0,0.0,0.0
3180,82.0,0.0,30.0,1.0,0.0
3181,77.0,10.0,20.0,2.0,0.0
3182,43.0,0.0,30.0,3.0,0.0
3183,31.0,0.0,30.0,4.0,0.0
3184,73.0,12.0,15.0,5.0,0.0
3185,43.0,3.0,30.0,6.0,0.0
3186,80.0,0.0,15.0,0.0,0.0
3187,84.0,2.0,15.0,5.0,0.0
3188,79.0,0.0,15.0,0.0,0.0
3189,75.0,1.0,20.0,2.0,0.0
3190,82.0,8.0,15.0,5.0,0.0
3191,77.0,0.0,15.0,0.0,0.0
3192,80.0,12.0,15.0,5.0,0.0
3193,75.0,0.0,15.0,0.0,0.0
3194,79.0,12.0,15.0,5.0,0.0
3195,73.0,0.0,15.0,0.0,0.0
3196,77.0,12.0,15.0,5.0,0.0
3197,72.0,0.0,15.0,0.0,0.0
3198,82.0,0.0,20.0,1.0,0.0
3199,75.0,0.0,20.0,2.0,0.0
3200,55.0,0.0,20.0,3.0,0.0
3201,43.0,0.0,20.0,4.0,0.0
3202,75.0,11.0,15.0,5.0,0.0
3203,55.0,1.0,20.0,6.0,0.0
3204,70.0,0.0,15.0,0.0,0.0
3205,73.0,23.0,15.0,5.0,0.0
3206,68.0,14.0,30.0,0.0,0.0
3207,75.0,0.0,20.0,1.0,0.0
3208,63.0,0.0,20.0,2.0,0.0
3209,56.0,0.0,20.0,3.0,0.0
3210,44.0,0.0,20.0,4.0,0.0
3211,72.0,0.0,20.0,5.0,0.0
3212,56.0,10.0,20.0,6.0,0.0
3213,77.0,0.0,20.0,1.0,0.0
3214,68.0,0.0,20.0,2.0,0.0
3215,53.0,0.0,20.0,3.0,0.0
3216,41.0,0.0,20.0,4.0,0.0
3217,80.0,0.0,20.0,5.0,0.0
3218,53.0,1.0,20.0,6.0,0.0
3219,70.0,23.0,15.0,0.0,0.0
3220,70.0,5.0,30.0,0.0,0.0
3221,77.0,0.0,20.0,1.0,0.0
3222,65.0,0.0,20.0,2.0,0.0
3223,49.0,0.0,20.0,3.0,0.0
3224,37.0,0.0,20.0,4.0,0.0
3225,70.0,0.0,20.0,5.0,0.0
3226,49.0,9.0,20.0,6.0,0.0
3227,75.0,0.0,20.0,1.0,0.0
3228,70.0,0.0,20.0,2.0,0.0
3229,51.0,0.0,20.0,3.0,0.0
3230,39.0,0.0,20.0,4.0,0.0
3231,80.0,1.0,15.0,5.0,0.0
3232,51.0,1.0,20.0,6.0,0.0
3233,79.0,6.0,15.0,5.0,0.0
3234,68.0,1.0,15.0,0.0,0.0
3235,80.0,3.0,15.0,5.0,0.0
3236,79.0,22.0,15.0,5.0,0.0
3237,68.0,0.0,30.0,0.0,0.0
3238,75.0,0.0,30.0,1.0,0.0
3239,72.0,0.0,30.0,2.0,0.0
3240,44.0,0.0,30.0,3.0,0.0
3241,32.0,0.0,30.0,4.0,0.0
3242,80.0,4.0,30.0,5.0,0.0
3243,44.0,13.0,20.0,6.0,0.0
3244,68.0,8.0,15.0,6.0,0.0
3245,67.0,12.0,15.0,6.0,0.0
3246,68.0,12.0,15.0,6.0,0.0
3247,70.0,12.0,15.0,6.0,0.0
3248,84.0,1.0,20.0,5.0,0.0
3249,68.0,11.0,15.0,6.0,0.0
3250,67.0,8.0,15.0,6.0,0.0
3251,82.0,6.0,15.0,5.0,0.0
3252,65.0,9.0,120.0,6.0,0.0
3253,84.0,6.0,15.0,5.0,0.0
3254,85.0,6.0,15.0,5.0,0.0
3255,84.0,6.0,15.0,5.0,0.0
3256,85.0,6.0,15.0,5.0,0.0
3257,53.0,2.0,20.0,6.0,0.0
3258,84.0,6.0,15.0,5.0,0.0
3259,82.0,3.0,15.0,5.0,0.0
3260,84.0,11.0,15.0,5.0,0.0
3261,85.0,11.0,15.0,5.0,0.0
3262,58.0,1.0,20.0,6.0,0.0
3263,84.0,12.0,15.0,5.0,0.0
3264,82.0,11.0,15.0,5.0,0.0
3265,55.0,1.0,20.0,6.0,0.0
3266,85.0,7.0,15.0,5.0,0.0
3267,53.0,0.0,30.0,3.0,0.0
3268,41.0,3.0,30.0,4.0,0.0
3269,84.0,6.0,15.0,5.0,0.0
3270,56.0,1.0,20.0,6.0,0.0
3271,82.0,1.0,15.0,5.0,0.0
3272,80.0,7.0,15.0,5.0,0.0
3273,77.0,0.0,20.0,0.0,0.0
3274,77.0,0.0,20.0,1.0,0.0
3275,77.0,0.0,20.0,2.0,0.0
3276,82.0,6.0,15.0,5.0,0.0
3277,65.0,0.0,20.0,6.0,0.0
3278,61.0,1.0,20.0,6.0,0.0
3279,80.0,7.0,15.0,5.0,0.0
3280,79.0,12.0,15.0,5.0,0.0
3281,65.0,0.0,30.0,0.0,0.0
3282,65.0,0.0,30.0,1.0,0.0
3283,65.0,3.0,30.0,2.0,0.0
3284,80.0,11.0,15.0,5.0,0.0
3285,65.0,0.0,20.0,6.0,0.0
3286,60.0,1.0,20.0,6.0,0.0
3287,77.0,20.0,15.0,5.0,0.0
3288,84.0,0.0,20.0,5.0,0.0
3289,64.0,0.0,20.0,6.0,0.0
3290,58.0,13.0,20.0,6.0,0.0
3291,84.0,7.0,15.0,5.0,0.0
3292,65.0,3.0,30.0,6.0,0.0
3293,56.0,2.0,20.0,6.0,0.0
3294,85.0,4.0,15.0,5.0,0.0
3295,84.0,11.0,15.0,5.0,0.0
3296,82.0,8.0,15.0,5.0,0.0
3297,53.0,1.0,20.0,6.0,0.0
3298,84.0,12.0,15.0,5.0,0.0
3299,85.0,11.0,15.0,5.0,0.0
3300,58.0,1.0,20.0,6.0,0.0
3301,84.0,12.0,15.0,5.0,0.0
3302,82.0,11.0,15.0,5.0,0.0
3303,58.0,0.0,20.0,6.0,0.0
3304,46.0,1.0,20.0,6.0,0.0
3305,85.0,12.0,15.0,5.0,0.0
3306,53.0,0.0,30.0,3.0,0.0
3307,41.0,3.0,30.0,4.0,0.0
3308,84.0,11.0,15.0,5.0,0.0
3309,56.0,0.0,20.0,6.0,0.0
3310,53.0,1.0,20.0,6.0,0.0
3311,80.0,20.0,15.0,5.0,0.0
3312,77.0,0.0,20.0,0.0,0.0
3313,77.0,0.0,20.0,1.0,0.0
3314,77.0,0.0,20.0,2.0,0.0
3315,77.0,0.0,20.0,5.0,0.0
3316,58.0,0.0,20.0,6.0,0.0
3317,55.0,24.0,20.0,6.0,0.0
3318,65.0,0.0,30.0,0.0,0.0
3319,65.0,0.0,30.0,1.0,0.0
3320,65.0,3.0,30.0,2.0,0.0
3321,60.0,0.0,20.0,6.0,0.0
3322,56.0,21.0,20.0,6.0,0.0
3323,80.0,0.0,20.0,5.0,0.0
3324,65.0,0.0,20.0,6.0,0.0
3325,53.0,9.0,20.0,6.0,0.0
3326,58.0,0.0,20.0,3.0,0.0
3327,46.0,0.0,20.0,4.0,0.0
3328,79.0,15.0,15.0,5.0,0.0
3329,65.0,10.0,120.0,6.0,0.0
3330,58.0,9.0,20.0,6.0,0.0
3331,79.0,6.0,15.0,5.0,0.0
3332,61.0,1.0,20.0,6.0,0.0
3333,81.0,9.0,15.0,5.0,0.0
3334,82.0,8.0,15.0,5.0,0.0
3335,60.0,0.0,20.0,3.0,0.0
3336,48.0,0.0,20.0,4.0,0.0
3337,81.0,15.0,15.0,5.0,0.0
3338,60.0,9.0,20.0,6.0,0.0
3339,81.0,6.0,15.0,5.0,0.0
3340,63.0,1.0,20.0,6.0,0.0
3341,82.0,9.0,15.0,5.0,0.0
3342,84.0,12.0,15.0,5.0,0.0
3343,61.0,0.0,20.0,3.0,0.0
3344,49.0,1.0,20.0,4.0,0.0
3345,84.0,0.0,20.0,5.0,0.0
3346,61.0,11.0,15.0,6.0,0.0
3347,60.0,2.0,15.0,6.0,0.0
3348,77.0,0.0,20.0,0.0,0.0
3349,77.0,0.0,20.0,1.0,0.0
3350,77.0,0.0,20.0,2.0,0.0
3351,82.0,1.0,20.0,5.0,0.0
3352,61.0,11.0,15.0,6.0,0.0
3353,58.0,12.0,15.0,6.0,0.0
3354,65.0,0.0,30.0,0.0,0.0
3355,65.0,0.0,30.0,1.0,0.0
3356,65.0,3.0,30.0,2.0,0.0
3357,63.0,0.0,20.0,3.0,0.0
3358,51.0,1.0,20.0,4.0,0.0
3359,63.0,11.0,15.0,6.0,0.0
3360,61.0,12.0,15.0,6.0,0.0
3361,81.0,1.0,20.0,5.0,0.0
3362,63.0,8.0,15.0,6.0,0.0
3363,60.0,8.0,15.0,6.0,0.0
3364,61.0,0.0,20.0,3.0,0.0
3365,49.0,1.0,20.0,4.0,0.0
3366,82.0,4.0,15.0,5.0,0.0
3367,61.0,11.0,15.0,6.0,0.0
3368,60.0,12.0,15.0,6.0,0.0
3369,82.0,0.0,15.0,5.0,0.0
3370,61.0,12.0,15.0,6.0,0.0
3371,85.0,0.0,15.0,5.0,0.0
3372,58.0,8.0,15.0,6.0,0.0
3373,65.0,0.0,20.0,3.0,0.0
3374,53.0,1.0,20.0,4.0,0.0
3375,84.0,4.0,15.0,5.0,0.0
3376,57.0,11.0,15.0,6.0,0.0
3377,55.0,12.0,15.0,6.0,0.0
3378,84.0,0.0,15.0,5.0,0.0
3379,57.0,12.0,15.0,6.0,0.0
3380,87.0,0.0,15.0,5.0,0.0
3381,53.0,8.0,15.0,6.0,0.0
3382,58.0,0.0,20.0,3.0,0.0
3383,46.0,0.0,20.0,4.0,0.0
3384,85.0,6.0,15.0,5.0,0.0
3385,58.0,1.0,20.0,6.0,0.0
3386,87.0,9.0,15.0,5.0,0.0
3387,85.0,12.0,15.0,5.0,0.0
3388,77.0,0.0,20.0,0.0,0.0
3389,77.0,0.0,20.0,1.0,0.0
3390,77.0,0.0,20.0,2.0,0.0
3391,53.0,0.0,20.0,3.0,0.0
3392,41.0,0.0,20.0,4.0,0.0
3393,84.0,1.0,20.0,5.0,0.0
3394,53.0,11.0,15.0,6.0,0.0
3395,55.0,12.0,15.0,6.0,0.0
3396,65.0,0.0,30.0,0.0,0.0
3397,65.0,0.0,30.0,1.0,0.0
3398,65.0,3.0,30.0,2.0,0.0
3399,57.0,12.0,15.0,6.0,0.0
3400,53.0,8.0,15.0,6.0,0.0
3401,85.0,6.0,15.0,5.0,0.0
3402,58.0,1.0,20.0,6.0,0.0
3403,84.0,6.0,15.0,5.0,0.0
3404,82.0,23.0,15.0,5.0,0.0
3405,87.0,0.0,20.0,5.0,0.0
3406,54.0,24.0,20.0,6.0,0.0
3407,80.0,0.0,20.0,0.0,0.0
3408,85.0,0.0,20.0,5.0,0.0
3409,58.0,24.0,20.0,6.0,0.0
3410,78.0,0.0,20.0,0.0,0.0
3411,63.0,1.0,20.0,6.0,0.0
3412,84.0,7.0,15.0,5.0,0.0
3413,77.0,0.0,20.0,0.0,0.0
3414,85.0,6.0,15.0,5.0,0.0
3415,65.0,1.0,20.0,6.0,0.0
3416,84.0,10.0,15.0,5.0,0.0
3417,82.0,12.0,15.0,5.0,0.0
3418,84.0,0.0,15.0,5.0,0.0
3419,66.0,12.0,15.0,6.0,0.0
3420,81.0,0.0,15.0,5.0,0.0
3421,65.0,12.0,15.0,6.0,0.0
3422,77.0,0.0,20.0,0.0,0.0
3423,82.0,1.0,20.0,5.0,0.0
3424,63.0,11.0,15.0,6.0,0.0
3425,61.0,12.0,15.0,6.0,0.0
3426,75.0,1.0,20.0,0.0,0.0
3427,80.0,21.0,20.0,5.0,0.0
3428,60.0,11.0,15.0,6.0,0.0
3429,57.0,2.0,15.0,6.0,0.0
3430,73.0,0.0,20.0,0.0,0.0
3431,78.0,15.0,30.0,5.0,0.0
3432,58.0,10.0,20.0,6.0,0.0
3433,72.0,0.0,30.0,0.0,0.0
3434,57.0,4.0,30.0,6.0,0.0
3435,77.0,12.0,15.0,5.0,0.0
3436,75.0,8.0,15.0,5.0,0.0
3437,78.0,12.0,15.0,5.0,0.0
3438,77.0,7.0,15.0,5.0,0.0
3439,75.0,6.0,15.0,5.0,0.0
3440,73.0,11.0,15.0,5.0,0.0
3441,75.0,11.0,15.0,5.0,0.0
3442,53.0,1.0,20.0,6.0,0.0
3443,72.0,12.0,15.0,5.0,0.0
3444,73.0,11.0,15.0,5.0,0.0
3445,58.0,1.0,20.0,6.0,0.0
3446,77.0,12.0,15.0,5.0,0.0
3447,82.0,11.0,15.0,5.0,0.0
3448,54.0,1.0,20.0,6.0,0.0
3449,84.0,23.0,15.0,5.0,0.0
3450,84.0,14.0,30.0,5.0,0.0
3451,51.0,10.0,20.0,6.0,0.0
3452,77.0,0.0,20.0,0.0,0.0
3453,53.0,1.0,20.0,6.0,0.0
3454,82.0,12.0,15.0,5.0,0.0
3455,82.0,11.0,15.0,0.0,0.0
3456,82.0,4.0,30.0,5.0,0.0
3457,54.0,1.0,20.0,6.0,0.0
3458,81.0,12.0,15.0,0.0,0.0
3459,82.0,0.0,15.0,0.0,0.0
3460,53.0,8.0,15.0,6.0,0.0
3461,85.0,0.0,15.0,0.0,0.0
3462,51.0,12.0,15.0,6.0,0.0
3463,82.0,11.0,15.0,0.0,0.0
3464,49.0,1.0,20.0,6.0,0.0
3465,77.0,12.0,15.0,0.0,0.0
3466,73.0,11.0,15.0,0.0,0.0
3467,77.0,0.0,20.0,5.0,0.0
3468,46.0,1.0,20.0,6.0,0.0
3469,77.0,12.0,15.0,0.0,0.0
3470,70.0,2.0,15.0,0.0,0.0
3471,78.0,9.0,15.0,5.0,0.0
3472,51.0,1.0,20.0,6.0,0.0
3473,77.0,0.0,15.0,0.0,0.0
3474,81.0,8.0,15.0,5.0,0.0
3475,73.0,2.0,15.0,0.0,0.0
3476,82.0,0.0,15.0,5.0,0.0
3477,53.0,4.0,15.0,6.0,0.0
3478,51.0,10.0,15.0,6.0,0.0
3479,77.0,0.0,15.0,0.0,0.0
3480,49.0,12.0,15.0,6.0,0.0
3481,70.0,2.0,15.0,0.0,0.0
3482,78.0,9.0,15.0,5.0,0.0
3483,51.0,1.0,20.0,6.0,0.0
3484,77.0,0.0,15.0,0.0,0.0
3485,77.0,8.0,15.0,5.0,0.0
3486,73.0,2.0,15.0,0.0,0.0
3487,82.0,0.0,15.0,5.0,0.0
3488,53.0,4.0,15.0,6.0,0.0
3489,51.0,10.0,15.0,6.0,0.0
3490,77.0,0.0,15.0,0.0,0.0
3491,49.0,7.0,15.0,6.0,0.0
3492,82.0,1.0,15.0,0.0,0.0
3493,75.0,5.0,15.0,5.0,0.0
3494,48.0,1.0,20.0,6.0,0.0
3495,73.0,10.0,15.0,5.0,0.0
3496,81.0,0.0,15.0,0.0,0.0
3497,72.0,8.0,15.0,5.0,0.0
3498,82.0,11.0,15.0,0.0,0.0
3499,46.0,0.0,20.0,3.0,0.0
3500,34.0,0.0,20.0,4.0,0.0
3501,73.0,4.0,15.0,5.0,0.0
3502,46.0,1.0,20.0,6.0,0.0
3503,85.0,12.0,15.0,0.0,0.0
3504,82.0,11.0,15.0,0.0,0.0
3505,49.0,0.0,20.0,3.0,0.0
3506,37.0,0.0,20.0,4.0,0.0
3507,49.0,1.0,20.0,6.0,0.0
3508,77.0,12.0,15.0,0.0,0.0
3509,73.0,11.0,15.0,0.0,0.0
3510,81.0,0.0,20.0,1.0,0.0
3511,65.0,0.0,20.0,2.0,0.0
3512,53.0,0.0,20.0,3.0,0.0
3513,41.0,0.0,20.0,4.0,0.0
3514,77.0,0.0,20.0,5.0,0.0
3515,53.0,1.0,20.0,6.0,0.0
3516,77.0,8.0,15.0,0.0,0.0
3517,70.0,0.0,15.0,0.0,0.0
3518,82.0,0.0,20.0,1.0,0.0
3519,65.0,1.0,20.0,2.0,0.0
3520,58.0,0.0,30.0,3.0,0.0
3521,46.0,3.0,30.0,4.0,0.0
3522,75.0,4.0,15.0,5.0,0.0
3523,58.0,1.0,15.0,6.0,0.0
3524,73.0,10.0,15.0,5.0,0.0
3525,77.0,0.0,15.0,0.0,0.0
3526,72.0,0.0,15.0,5.0,0.0
3527,57.0,12.0,15.0,6.0,0.0
3528,73.0,0.0,15.0,0.0,0.0
3529,77.0,0.0,20.0,1.0,0.0
3530,70.0,0.0,20.0,2.0,0.0
3531,70.0,8.0,15.0,5.0,0.0
3532,58.0,1.0,20.0,6.0,0.0
3533,77.0,0.0,15.0,0.0,0.0
3534,72.0,12.0,15.0,5.0,0.0
3535,82.0,2.0,15.0,0.0,0.0
3536,70.0,0.0,20.0,1.0,0.0
3537,65.0,1.0,20.0,2.0,0.0
3538,73.0,9.0,15.0,5.0,0.0
3539,77.0,0.0,15.0,0.0,0.0
3540,72.0,12.0,15.0,5.0,0.0
3541,84.0,2.0,15.0,0.0,0.0
3542,81.0,0.0,20.0,1.0,0.0
3543,63.0,0.0,20.0,2.0,0.0
3544,46.0,0.0,20.0,3.0,0.0
3545,34.0,0.0,20.0,4.0,0.0
3546,75.0,9.0,15.0,5.0,0.0
3547,46.0,1.0,20.0,6.0,0.0
3548,77.0,0.0,15.0,0.0,0.0
3549,73.0,14.0,15.0,5.0,0.0
3550,85.0,0.0,20.0,0.0,0.0
3551,82.0,0.0,20.0,1.0,0.0
3552,61.0,0.0,20.0,2.0,0.0
3553,58.0,0.0,20.0,3.0,0.0
3554,46.0,0.0,20.0,4.0,0.0
3555,77.0,9.0,15.0,5.0,0.0
3556,58.0,1.0,20.0,6.0,0.0
3557,75.0,14.0,15.0,5.0,0.0
3558,84.0,0.0,20.0,0.0,0.0
3559,84.0,0.0,20.0,1.0,0.0
3560,68.0,0.0,20.0,2.0,0.0
3561,56.0,0.0,20.0,3.0,0.0
3562,44.0,0.0,20.0,4.0,0.0
3563,78.0,9.0,15.0,5.0,0.0
3564,56.0,1.0,20.0,6.0,0.0
3565,77.0,14.0,15.0,5.0,0.0
3566,87.0,0.0,20.0,0.0,0.0
3567,82.0,0.0,20.0,1.0,0.0
3568,63.0,0.0,20.0,2.0,0.0
3569,54.0,0.0,20.0,3.0,0.0
3570,42.0,0.0,20.0,4.0,0.0
3571,82.0,9.0,15.0,5.0,0.0
3572,54.0,1.0,20.0,6.0,0.0
3573,80.0,14.0,15.0,5.0,0.0
3574,85.0,0.0,20.0,0.0,0.0
3575,82.0,0.0,20.0,1.0,0.0
3576,65.0,0.0,20.0,2.0,0.0
3577,53.0,0.0,20.0,3.0,0.0
3578,41.0,0.0,20.0,4.0,0.0
3579,80.0,9.0,15.0,5.0,0.0
3580,53.0,1.0,20.0,6.0,0.0
3581,78.0,14.0,15.0,5.0,0.0
3582,84.0,0.0,20.0,0.0,0.0
3583,81.0,0.0,20.0,1.0,0.0
3584,72.0,0.0,20.0,2.0,0.0
3585,51.0,0.0,20.0,3.0,0.0
3586,39.0,0.0,20.0,4.0,0.0
3587,78.0,9.0,15.0,5.0,0.0
3588,51.0,1.0,20.0,6.0,0.0
3589,77.0,14.0,15.0,5.0,0.0
3590,82.0,0.0,20.0,0.0,0.0
3591,82.0,0.0,20.0,1.0,0.0
3592,73.0,0.0,20.0,2.0,0.0
3593,49.0,0.0,20.0,3.0,0.0
3594,37.0,0.0,20.0,4.0,0.0
3595,77.0,9.0,15.0,5.0,0.0
3596,49.0,1.0,20.0,6.0,0.0
3597,75.0,14.0,15.0,5.0,0.0
3598,89.0,6.0,60.0,0.0,0.0
3599,84.0,0.0,20.0,1.0,0.0
3600,72.0,0.0,20.0,2.0,0.0
3601,45.0,0.0,20.0,3.0,0.0
3602,33.0,0.0,20.0,4.0,0.0
3603,75.0,9.0,15.0,5.0,0.0
3604,45.0,1.0,20.0,6.0,0.0
3605,73.0,14.0,15.0,5.0,0.0
3606,82.0,0.0,20.0,1.0,0.0
3607,65.0,0.0,20.0,2.0,0.0
3608,46.0,0.0,20.0,3.0,0.0
3609,34.0,0.0,20.0,4.0,0.0
3610,73.0,9.0,15.0,5.0,0.0
3611,46.0,1.0,20.0,6.0,0.0
3612,72.0,6.0,15.0,5.0,0.0
3613,81.0,0.0,30.0,1.0,0.0
3614,65.0,0.0,30.0,2.0,0.0
3615,51.0,0.0,30.0,3.0,0.0
3616,39.0,0.0,30.0,4.0,0.0
3617,72.0,12.0,15.0,5.0,0.0
3618,51.0,0.0,30.0,6.0,0.0
3619,39.0,4.0,30.0,6.0,0.0
3620,82.0,0.0,15.0,0.0,0.0
3621,73.0,12.0,15.0,5.0,0.0
3622,81.0,0.0,15.0,0.0,0.0
3623,75.0,8.0,15.0,5.0,0.0
3624,82.0,0.0,15.0,0.0,0.0
3625,72.0,12.0,15.0,5.0,0.0
3626,84.0,2.0,20.0,0.0,0.0
3627,69.0,7.0,15.0,5.0,0.0
3628,72.0,4.0,15.0,5.0,0.0
3629,75.0,13.0,15.0,5.0,0.0
3630,82.0,0.0,20.0,0.0,0.0
3631,78.0,9.0,15.0,1.0,0.0
3632,63.0,0.0,20.0,2.0,0.0
3633,48.0,0.0,20.0,3.0,0.0
3634,36.0,0.0,20.0,4.0,0.0
3635,78.0,9.0,30.0,5.0,0.0
3636,48.0,1.0,20.0,6.0,0.0
3637,75.0,4.0,15.0,1.0,0.0
3638,81.0,0.0,30.0,0.0,0.0
3639,72.0,0.0,30.0,1.0,0.0
3640,63.0,0.0,30.0,2.0,0.0
3641,53.0,0.0,30.0,3.0,0.0
3642,41.0,3.0,30.0,4.0,0.0
3643,53.0,2.0,20.0,6.0,0.0
3644,77.0,6.0,15.0,5.0,0.0
3645,75.0,4.0,15.0,5.0,0.0
3646,73.0,11.0,15.0,5.0,0.0
3647,75.0,8.0,15.0,5.0,0.0
3648,57.0,1.0,20.0,6.0,0.0
3649,78.0,12.0,15.0,5.0,0.0
3650,81.0,11.0,15.0,5.0,0.0
3651,60.0,1.0,20.0,6.0,0.0
3652,75.0,12.0,15.0,5.0,0.0
3653,81.0,0.0,20.0,0.0,0.0
3654,84.0,11.0,15.0,5.0,0.0
3655,53.0,1.0,20.0,6.0,0.0
3656,75.0,12.0,15.0,5.0,0.0
3657,82.0,11.0,15.0,0.0,0.0
3658,73.0,3.0,30.0,5.0,0.0
3659,58.0,1.0,20.0,6.0,0.0
3660,77.0,9.0,15.0,0.0,0.0
3661,78.0,11.0,15.0,0.0,0.0
3662,63.0,1.0,20.0,6.0,0.0
3663,87.0,0.0,15.0,0.0,0.0
3664,72.0,23.0,15.0,5.0,0.0
3665,81.0,0.0,30.0,0.0,0.0
3666,72.0,14.0,30.0,5.0,0.0
3667,65.0,10.0,20.0,6.0,0.0
3668,53.0,1.0,20.0,6.0,0.0
3669,82.0,0.0,15.0,0.0,0.0
3670,70.0,12.0,15.0,5.0,0.0
3671,82.0,11.0,15.0,0.0,0.0
3672,70.0,4.0,30.0,5.0,0.0
3673,58.0,1.0,20.0,6.0,0.0
3674,70.0,12.0,15.0,0.0,0.0
3675,73.0,0.0,15.0,0.0,0.0
3676,46.0,0.0,15.0,3.0,0.0
3677,34.0,0.0,15.0,4.0,0.0
3678,46.0,8.0,15.0,6.0,0.0
3679,77.0,0.0,15.0,0.0,0.0
3680,48.0,0.0,15.0,3.0,0.0
3681,36.0,0.0,15.0,4.0,0.0
3682,48.0,12.0,15.0,6.0,0.0
3683,82.0,11.0,15.0,0.0,0.0
3684,49.0,0.0,20.0,3.0,0.0
3685,37.0,0.0,20.0,4.0,0.0
3686,49.0,1.0,20.0,6.0,0.0
3687,80.0,12.0,15.0,0.0,0.0
3688,78.0,11.0,15.0,0.0,0.0
3689,73.0,0.0,20.0,1.0,0.0
3690,70.0,0.0,20.0,2.0,0.0
3691,46.0,0.0,20.0,3.0,0.0
3692,34.0,0.0,20.0,4.0,0.0
3693,82.0,0.0,20.0,5.0,0.0
3694,46.0,1.0,20.0,6.0,0.0
3695,77.0,12.0,15.0,0.0,0.0
3696,70.0,2.0,15.0,0.0,0.0
3697,75.0,0.0,20.0,1.0,0.0
3698,70.0,0.0,20.0,2.0,0.0
3699,51.0,0.0,20.0,3.0,0.0
3700,39.0,0.0,20.0,4.0,0.0
3701,78.0,9.0,15.0,5.0,0.0
3702,51.0,1.0,20.0,6.0,0.0
3703,78.0,6.0,15.0,0.0,0.0
3704,81.0,2.0,15.0,5.0,0.0
3705,77.0,10.0,15.0,0.0,0.0
3706,82.0,6.0,15.0,5.0,0.0
3707,75.0,12.0,15.0,0.0,0.0
3708,70.0,11.0,15.0,0.0,0.0
3709,65.0,0.0,20.0,1.0,0.0
3710,70.0,0.0,20.0,2.0,0.0
3711,49.0,0.0,20.0,3.0,0.0
3712,37.0,0.0,20.0,4.0,0.0
3713,49.0,3.0,20.0,6.0,0.0
3714,77.0,12.0,15.0,0.0,0.0
3715,75.0,9.0,15.0,0.0,0.0
3716,77.0,1.0,20.0,5.0,0.0
3717,73.0,12.0,15.0,0.0,0.0
3718,69.0,2.0,15.0,0.0,0.0
3719,69.0,0.0,20.0,1.0,0.0
3720,72.0,0.0,20.0,2.0,0.0
3721,48.0,0.0,20.0,3.0,0.0
3722,36.0,0.0,20.0,4.0,0.0
3723,75.0,9.0,15.0,5.0,0.0
3724,48.0,1.0,20.0,6.0,0.0
3725,75.0,6.0,15.0,0.0,0.0
3726,81.0,2.0,15.0,5.0,0.0
3727,73.0,10.0,15.0,0.0,0.0
3728,82.0,6.0,15.0,5.0,0.0
3729,72.0,23.0,15.0,0.0,0.0
3730,73.0,0.0,20.0,0.0,0.0
3731,70.0,0.0,20.0,1.0,0.0
3732,65.0,0.0,20.0,2.0,0.0
3733,46.0,0.0,20.0,3.0,0.0
3734,34.0,0.0,20.0,4.0,0.0
3735,46.0,1.0,20.0,6.0,0.0
3736,73.0,12.0,15.0,5.0,0.0
3737,85.0,3.0,30.0,0.0,0.0
3738,75.0,12.0,15.0,5.0,0.0
3739,77.0,5.0,15.0,5.0,0.0
3740,78.0,15.0,15.0,5.0,0.0
3741,51.0,3.0,20.0,6.0,0.0
3742,81.0,12.0,15.0,5.0,0.0
3743,84.0,3.0,30.0,0.0,0.0
3744,82.0,10.0,15.0,5.0,0.0
3745,84.0,5.0,15.0,5.0,0.0
3746,77.0,15.0,15.0,5.0,0.0
3747,49.0,3.0,20.0,6.0,0.0
3748,81.0,12.0,15.0,5.0,0.0
3749,82.0,3.0,30.0,0.0,0.0
3750,82.0,10.0,15.0,5.0,0.0
3751,84.0,5.0,15.0,5.0,0.0
3752,75.0,15.0,15.0,5.0,0.0
3753,48.0,3.0,20.0,6.0,0.0
3754,81.0,12.0,15.0,5.0,0.0
3755,81.0,1.0,20.0,0.0,0.0
3756,82.0,9.0,15.0,5.0,0.0
3757,84.0,5.0,15.0,5.0,0.0
3758,82.0,0.0,20.0,0.0,0.0
3759,73.0,18.0,15.0,5.0,0.0
3760,46.0,3.0,20.0,6.0,0.0
3761,77.0,10.0,15.0,5.0,0.0
3762,84.0,2.0,15.0,0.0,0.0
3763,77.0,0.0,20.0,1.0,0.0
3764,75.0,0.0,20.0,2.0,0.0
3765,53.0,0.0,20.0,3.0,0.0
3766,41.0,0.0,20.0,4.0,0.0
3767,81.0,9.0,15.0,5.0,0.0
3768,53.0,1.0,20.0,6.0,0.0
3769,81.0,0.0,15.0,0.0,0.0
3770,84.0,14.0,15.0,5.0,0.0
3771,82.0,3.0,30.0,0.0,0.0
3772,70.0,0.0,20.0,1.0,0.0
3773,73.0,0.0,20.0,2.0,0.0
3774,54.0,0.0,20.0,3.0,0.0
3775,42.0,0.0,20.0,4.0,0.0
3776,82.0,9.0,15.0,5.0,0.0
3777,54.0,3.0,20.0,6.0,0.0
3778,81.0,7.0,15.0,5.0,0.0
3779,78.0,0.0,20.0,1.0,0.0
3780,72.0,0.0,20.0,2.0,0.0
3781,51.0,0.0,20.0,3.0,0.0
3782,39.0,0.0,20.0,4.0,0.0
3783,82.0,11.0,15.0,5.0,0.0
3784,63.0,1.0,20.0,6.0,0.0
3785,84.0,0.0,15.0,0.0,0.0
3786,87.0,23.0,15.0,5.0,0.0
3787,81.0,0.0,30.0,0.0,0.0
3788,77.0,0.0,20.0,1.0,0.0
3789,72.0,0.0,20.0,2.0,0.0
3790,53.0,0.0,20.0,3.0,0.0
3791,41.0,0.0,20.0,4.0,0.0
3792,84.0,14.0,30.0,5.0,0.0
3793,65.0,10.0,20.0,6.0,0.0
3794,77.0,0.0,20.0,1.0,0.0
3795,75.0,0.0,20.0,2.0,0.0
3796,41.0,0.0,20.0,3.0,0.0
3797,29.0,0.0,20.0,4.0,0.0
3798,53.0,1.0,20.0,6.0,0.0
3799,82.0,0.0,15.0,0.0,0.0
3800,82.0,14.0,15.0,5.0,0.0
3801,82.0,0.0,30.0,0.0,0.0
3802,77.0,0.0,30.0,1.0,0.0
3803,73.0,0.0,30.0,2.0,0.0
3804,46.0,0.0,30.0,3.0,0.0
3805,34.0,3.0,30.0,4.0,0.0
3806,82.0,9.0,15.0,5.0,0.0
3807,46.0,1.0,20.0,6.0,0.0
3808,80.0,14.0,15.0,5.0,0.0
3809,80.0,6.0,15.0,5.0,0.0
3810,53.0,1.0,20.0,6.0,0.0
3811,79.0,14.0,15.0,5.0,0.0
3812,79.0,9.0,15.0,5.0,0.0
3813,58.0,1.0,20.0,6.0,0.0
3814,77.0,14.0,15.0,5.0,0.0
3815,77.0,9.0,15.0,5.0,0.0
3816,61.0,1.0,20.0,6.0,0.0
3817,76.0,12.0,15.0,5.0,0.0
3818,76.0,12.0,15.0,5.0,0.0
3819,60.0,15.0,30.0,6.0,0.0
3820,85.0,9.0,15.0,5.0,0.0
3821,84.0,14.0,30.0,5.0,0.0
3822,58.0,9.0,15.0,6.0,0.0
3823,84.0,0.0,20.0,0.0,0.0
3824,75.0,0.0,20.0,1.0,0.0
3825,65.0,0.0,20.0,2.0,0.0
3826,57.0,1.0,20.0,6.0,0.0
3827,75.0,12.0,15.0,5.0,0.0
3828,77.0,11.0,15.0,5.0,0.0
3829,53.0,1.0,20.0,6.0,0.0
3830,78.0,12.0,15.0,5.0,0.0
3831,74.0,12.0,15.0,5.0,0.0
3832,58.0,15.0,30.0,6.0,0.0
3833,84.0,9.0,15.0,5.0,0.0
3834,82.0,14.0,30.0,5.0,0.0
3835,56.0,9.0,15.0,6.0,0.0
3836,82.0,0.0,20.0,0.0,0.0
3837,73.0,0.0,20.0,1.0,0.0
3838,70.0,0.0,20.0,2.0,0.0
3839,55.0,3.0,20.0,6.0,0.0
3840,73.0,12.0,15.0,5.0,0.0
3841,75.0,9.0,15.0,5.0,0.0
3842,51.0,1.0,20.0,6.0,0.0
3843,77.0,5.0,15.0,5.0,0.0
3844,72.0,18.0,15.0,5.0,0.0
3845,56.0,3.0,20.0,6.0,0.0
3846,82.0,12.0,15.0,5.0,0.0
3847,80.0,9.0,15.0,5.0,0.0
3848,60.0,1.0,20.0,6.0,0.0
3849,79.0,5.0,15.0,5.0,0.0
3850,80.0,0.0,20.0,0.0,0.0
3851,77.0,0.0,20.0,1.0,0.0
3852,72.0,0.0,20.0,2.0,0.0
3853,77.0,18.0,15.0,5.0,0.0
3854,62.0,3.0,20.0,6.0,0.0
3855,87.0,12.0,15.0,5.0,0.0
3856,86.0,9.0,15.0,5.0,0.0
3857,65.0,1.0,20.0,6.0,0.0
3858,84.0,12.0,15.0,5.0,0.0
3859,79.0,0.0,20.0,0.0,0.0
3860,74.0,0.0,20.0,1.0,0.0
3861,71.0,0.0,20.0,2.0,0.0
3862,83.0,11.0,15.0,5.0,0.0
3863,55.0,1.0,20.0,6.0,0.0
3864,80.0,12.0,15.0,5.0,0.0
3865,79.0,11.0,15.0,5.0,0.0
3866,59.0,1.0,20.0,6.0,0.0
3867,77.0,12.0,15.0,5.0,0.0
3868,75.0,11.0,15.0,5.0,0.0
3869,48.0,1.0,20.0,6.0,0.0
3870,74.0,12.0,15.0,5.0,0.0
3871,72.0,11.0,15.0,5.0,0.0
3872,67.0,0.0,20.0,6.0,0.0
3873,51.0,1.0,20.0,6.0,0.0
3874,71.0,12.0,15.0,5.0,0.0
3875,72.0,11.0,15.0,5.0,0.0
3876,65.0,0.0,20.0,6.0,0.0
3877,56.0,1.0,20.0,6.0,0.0
3878,76.0,12.0,15.0,5.0,0.0
3879,77.0,11.0,15.0,5.0,0.0
3880,71.0,0.0,20.0,6.0,0.0
3881,50.0,1.0,20.0,6.0,0.0
3882,80.0,12.0,15.0,5.0,0.0
3883,79.0,11.0,15.0,5.0,0.0
3884,72.0,3.0,30.0,6.0,0.0
3885,60.0,0.0,20.0,6.0,0.0
3886,51.0,1.0,20.0,6.0,0.0
3887,83.0,12.0,15.0,5.0,0.0
3888,84.0,8.0,15.0,5.0,0.0
3889,48.0,1.0,20.0,6.0,0.0
3890,87.0,12.0,15.0,5.0,0.0
3891,75.0,0.0,120.0,0.0,0.0
3892,72.0,9.0,90.0,1.0,0.0
3893,68.0,0.0,120.0,2.0,0.0
3894,78.0,12.0,15.0,5.0,0.0
3895,77.0,23.0,15.0,5.0,0.0
3896,63.0,0.0,20.0,3.0,0.0
3897,51.0,0.0,20.0,4.0,0.0
3898,78.0,14.0,30.0,5.0,0.0
3899,63.0,10.0,20.0,6.0,0.0
3900,60.0,0.0,20.0,3.0,0.0
3901,48.0,0.0,20.0,4.0,0.0
3902,60.0,1.0,20.0,6.0,0.0
3903,82.0,12.0,15.0,5.0,0.0
3904,56.0,0.0,20.0,3.0,0.0
3905,44.0,0.0,20.0,4.0,0.0
3906,80.0,2.0,15.0,5.0,0.0
3907,56.0,1.0,20.0,6.0,0.0
3908,78.0,14.0,15.0,5.0,0.0
3909,77.0,0.0,20.0,1.0,0.0
3910,61.0,0.0,20.0,3.0,0.0
3911,49.0,0.0,20.0,4.0,0.0
3912,77.0,9.0,15.0,5.0,0.0
3913,61.0,1.0,20.0,6.0,0.0
3914,75.0,14.0,15.0,5.0,0.0
3915,73.0,0.0,20.0,0.0,0.0
3916,70.0,0.0,20.0,1.0,0.0
3917,73.0,3.0,30.0,2.0,0.0
3918,58.0,0.0,20.0,3.0,0.0
3919,46.0,0.0,20.0,4.0,0.0
3920,78.0,9.0,15.0,5.0,0.0
3921,58.0,1.0,20.0,6.0,0.0
3922,77.0,14.0,15.0,5.0,0.0
3923,82.0,6.0,60.0,0.0,0.0
3924,75.0,0.0,20.0,1.0,0.0
3925,54.0,0.0,20.0,3.0,0.0
3926,42.0,0.0,20.0,4.0,0.0
3927,75.0,6.0,15.0,5.0,0.0
3928,54.0,3.0,20.0,6.0,0.0
3929,73.0,12.0,15.0,5.0,0.0
3930,78.0,0.0,20.0,1.0,0.0
3931,75.0,0.0,20.0,2.0,0.0
3932,51.0,0.0,20.0,3.0,0.0
3933,39.0,0.0,20.0,4.0,0.0
3934,72.0,9.0,15.0,5.0,0.0
3935,51.0,1.0,20.0,6.0,0.0
3936,73.0,14.0,15.0,5.0,0.0
3937,72.0,0.0,30.0,1.0,0.0
3938,63.0,3.0,30.0,2.0,0.0
3939,56.0,0.0,20.0,3.0,0.0
3940,44.0,0.0,20.0,4.0,0.0
3941,75.0,3.0,15.0,5.0,0.0
3942,56.0,3.0,20.0,6.0,0.0
3943,72.0,12.0,15.0,5.0,0.0
3944,80.0,0.0,20.0,0.0,0.0
3945,51.0,0.0,20.0,3.0,0.0
3946,39.0,0.0,20.0,4.0,0.0
3947,70.0,6.0,15.0,5.0,0.0
3948,51.0,1.0,20.0,6.0,0.0
3949,68.0,12.0,15.0,5.0,0.0
3950,48.0,0.0,20.0,3.0,0.0
3951,36.0,0.0,20.0,4.0,0.0
3952,80.0,11.0,15.0,5.0,0.0
3953,48.0,1.0,20.0,6.0,0.0
3954,78.0,12.0,15.0,5.0,0.0
3955,72.0,0.0,20.0,0.0,0.0
3956,44.0,0.0,20.0,3.0,0.0
3957,32.0,0.0,20.0,4.0,0.0
3958,77.0,11.0,15.0,5.0,0.0
3959,44.0,1.0,20.0,6.0,0.0
3960,78.0,12.0,15.0,5.0,0.0
3961,73.0,2.0,15.0,0.0,0.0
3962,49.0,0.0,30.0,3.0,0.0
3963,37.0,3.0,30.0,4.0,0.0
3964,78.0,9.0,15.0,5.0,0.0
3965,49.0,1.0,20.0,6.0,0.0
3966,72.0,0.0,15.0,0.0,0.0
3967,77.0,12.0,15.0,5.0,0.0
3968,73.0,2.0,15.0,0.0,0.0
3969,75.0,6.0,15.0,5.0,0.0
3970,53.0,1.0,20.0,6.0,0.0
3971,77.0,0.0,15.0,0.0,0.0
3972,73.0,12.0,15.0,5.0,0.0
3973,73.0,11.0,15.0,0.0,0.0
3974,56.0,1.0,20.0,6.0,0.0
3975,68.0,12.0,15.0,0.0,0.0
3976,65.0,0.0,15.0,0.0,0.0
3977,80.0,1.0,20.0,5.0,0.0
3978,61.0,11.0,15.0,6.0,0.0
3979,68.0,0.0,15.0,0.0,0.0
3980,53.0,12.0,15.0,6.0,0.0
3981,61.0,0.0,15.0,0.0,0.0
3982,82.0,11.0,15.0,5.0,0.0
3983,54.0,1.0,20.0,6.0,0.0
3984,68.0,0.0,15.0,0.0,0.0
3985,84.0,12.0,15.0,5.0,0.0
3986,65.0,0.0,15.0,0.0,0.0
3987,85.0,11.0,15.0,5.0,0.0
3988,56.0,1.0,20.0,6.0,0.0
3989,68.0,0.0,15.0,0.0,0.0
3990,84.0,12.0,15.0,5.0,0.0
3991,61.0,11.0,15.0,0.0,0.0
3992,85.0,0.0,20.0,5.0,0.0
3993,58.0,1.0,20.0,6.0,0.0
3994,68.0,12.0,15.0,0.0,0.0
3995,65.0,11.0,15.0,0.0,0.0
3996,80.0,0.0,20.0,5.0,0.0
3997,61.0,1.0,20.0,6.0,0.0
3998,68.0,8.0,15.0,0.0,0.0
3999,73.0,2.0,15.0,0.0,0.0
4000,84.0,4.0,15.0,5.0,0.0
4001,54.0,1.0,20.0,6.0,0.0
4002,82.0,6.0,15.0,5.0,0.0
4003,72.0,1.0,15.0,0.0,0.0
4004,84.0,3.0,15.0,5.0,0.0
4005,82.0,11.0,15.0,5.0,0.0
4006,73.0,0.0,15.0,0.0,0.0
4007,80.0,1.0,20.0,5.0,0.0
4008,53.0,11.0,15.0,6.0,0.0
4009,77.0,0.0,15.0,0.0,0.0
4010,51.0,12.0,15.0,6.0,0.0
4011,73.0,11.0,15.0,0.0,0.0
4012,53.0,1.0,20.0,6.0,0.0
4013,68.0,12.0,15.0,0.0,0.0
4014,65.0,2.0,15.0,0.0,0.0
4015,80.0,9.0,15.0,5.0,0.0
4016,49.0,1.0,20.0,6.0,0.0
4017,68.0,0.0,15.0,0.0,0.0
4018,83.0,12.0,15.0,5.0,0.0
4019,61.0,2.0,15.0,0.0,0.0
4020,82.0,9.0,15.0,5.0,0.0
4021,54.0,1.0,20.0,6.0,0.0
4022,68.0,12.0,15.0,0.0,0.0
4023,65.0,11.0,15.0,0.0,0.0
4024,80.0,0.0,20.0,5.0,0.0
4025,61.0,1.0,20.0,6.0,0.0
4026,68.0,12.0,15.0,0.0,0.0
4027,73.0,11.0,15.0,0.0,0.0
4028,78.0,0.0,20.0,5.0,0.0
4029,58.0,1.0,20.0,6.0,0.0
4030,68.0,8.0,15.0,0.0,0.0
4031,75.0,2.0,15.0,0.0,0.0
4032,77.0,4.0,15.0,5.0,0.0
4033,60.0,1.0,20.0,6.0,0.0
4034,78.0,9.0,15.0,5.0,0.0
4035,68.0,0.0,15.0,0.0,0.0
4036,80.0,12.0,15.0,5.0,0.0
4037,77.0,0.0,20.0,0.0,0.0
4038,77.0,11.0,15.0,5.0,0.0
4039,61.0,1.0,20.0,6.0,0.0
4040,73.0,8.0,15.0,5.0,0.0
4041,75.0,0.0,20.0,0.0,0.0
4042,75.0,6.0,15.0,5.0,0.0
4043,60.0,1.0,20.0,6.0,0.0
4044,73.0,9.0,15.0,5.0,0.0
4045,75.0,23.0,15.0,5.0,0.0
4046,78.0,0.0,20.0,0.0,0.0
4047,58.0,9.0,20.0,6.0,0.0
4048,77.0,0.0,20.0,0.0,0.0
4049,85.0,6.0,15.0,5.0,0.0
4050,56.0,1.0,20.0,6.0,0.0
4051,84.0,9.0,15.0,5.0,0.0
4052,82.0,12.0,15.0,5.0,0.0
4053,75.0,0.0,20.0,0.0,0.0
4054,84.0,11.0,15.0,5.0,0.0
4055,54.0,1.0,20.0,6.0,0.0
4056,85.0,8.0,15.0,5.0,0.0
4057,73.0,1.0,20.0,0.0,0.0
4058,87.0,4.0,15.0,5.0,0.0
4059,53.0,1.0,15.0,6.0,0.0
4060,85.0,6.0,15.0,5.0,0.0
4061,84.0,4.0,15.0,5.0,0.0
4062,51.0,1.0,15.0,6.0,0.0
4063,85.0,11.0,15.0,5.0,0.0
4064,80.0,2.0,60.0,0.0,0.0
4065,87.0,1.0,20.0,5.0,0.0
4066,49.0,11.0,15.0,6.0,0.0
4067,48.0,12.0,15.0,6.0,0.0
4068,78.0,1.0,20.0,5.0,0.0
4069,46.0,11.0,15.0,6.0,0.0
4070,48.0,6.0,15.0,6.0,0.0
4071,78.0,6.0,15.0,5.0,0.0
4072,49.0,1.0,20.0,6.0,0.0
4073,77.0,6.0,15.0,5.0,0.0
4074,82.0,2.0,15.0,0.0,0.0
4075,78.0,3.0,15.0,5.0,0.0
4076,77.0,6.0,15.0,5.0,0.0
4077,84.0,1.0,15.0,0.0,0.0
4078,78.0,4.0,15.0,5.0,0.0
4079,54.0,1.0,20.0,6.0,0.0
4080,77.0,10.0,15.0,5.0,0.0
4081,85.0,0.0,15.0,0.0,0.0
4082,75.0,8.0,15.0,5.0,0.0
4083,84.0,2.0,15.0,0.0,0.0
4084,77.0,4.0,15.0,5.0,0.0
4085,56.0,1.0,20.0,6.0,0.0
4086,75.0,6.0,15.0,5.0,0.0
4087,82.0,2.0,15.0,0.0,0.0
4088,77.0,3.0,15.0,5.0,0.0
4089,75.0,6.0,15.0,5.0,0.0
4090,80.0,1.0,15.0,0.0,0.0
4091,72.0,0.0,20.0,1.0,0.0
4092,68.0,0.0,20.0,2.0,0.0
4093,44.0,0.0,20.0,3.0,0.0
4094,32.0,0.0,20.0,4.0,0.0
4095,77.0,4.0,15.0,5.0,0.0
4096,44.0,1.0,20.0,6.0,0.0
4097,75.0,10.0,15.0,5.0,0.0
4098,78.0,0.0,15.0,0.0,0.0
4099,73.0,12.0,15.0,5.0,0.0
4100,77.0,11.0,15.0,0.0,0.0
4101,73.0,10.0,90.0,1.0,0.0
4102,68.0,6.0,60.0,2.0,0.0
4103,49.0,0.0,20.0,3.0,0.0
4104,37.0,0.0,20.0,4.0,0.0
4105,73.0,3.0,30.0,5.0,0.0
4106,49.0,1.0,20.0,6.0,0.0
4107,75.0,12.0,15.0,0.0,0.0
4108,73.0,8.0,15.0,0.0,0.0
4109,53.0,0.0,20.0,3.0,0.0
4110,41.0,0.0,20.0,4.0,0.0
4111,53.0,1.0,20.0,6.0,0.0
4112,72.0,12.0,15.0,0.0,0.0
4113,70.0,5.0,15.0,0.0,0.0
4114,58.0,0.0,20.0,3.0,0.0
4115,46.0,0.0,20.0,4.0,0.0
4116,58.0,1.0,20.0,6.0,0.0
4117,83.0,0.0,15.0,0.0,0.0
4118,83.0,12.0,15.0,5.0,0.0
4119,82.0,0.0,15.0,0.0,0.0
4120,66.0,0.0,15.0,2.0,0.0
4121,61.0,0.0,20.0,3.0,0.0
4122,49.0,0.0,20.0,4.0,0.0
4123,82.0,11.0,15.0,5.0,0.0
4124,61.0,1.0,20.0,6.0,0.0
4125,80.0,0.0,15.0,0.0,0.0
4126,65.0,0.0,15.0,2.0,0.0
4127,80.0,2.0,15.0,5.0,0.0
4128,78.0,0.0,15.0,0.0,0.0
4129,63.0,0.0,20.0,2.0,0.0
4130,51.0,0.0,20.0,3.0,0.0
4131,39.0,0.0,20.0,4.0,0.0
4132,78.0,11.0,15.0,5.0,0.0
4133,51.0,1.0,20.0,6.0,0.0
4134,77.0,0.0,15.0,0.0,0.0
4135,80.0,0.0,15.0,1.0,0.0
4136,77.0,12.0,15.0,5.0,0.0
4137,75.0,0.0,15.0,0.0,0.0
4138,78.0,0.0,15.0,1.0,0.0
4139,70.0,0.0,20.0,2.0,0.0
4140,54.0,0.0,20.0,3.0,0.0
4141,42.0,0.0,20.0,4.0,0.0
4142,75.0,11.0,15.0,5.0,0.0
4143,54.0,1.0,20.0,6.0,0.0
4144,73.0,0.0,15.0,0.0,0.0
4145,77.0,0.0,15.0,1.0,0.0
4146,73.0,12.0,15.0,5.0,0.0
4147,72.0,0.0,15.0,0.0,0.0
4148,75.0,6.0,60.0,1.0,0.0
4149,72.0,0.0,20.0,2.0,0.0
4150,56.0,0.0,20.0,3.0,0.0
4151,44.0,0.0,20.0,4.0,0.0
4152,72.0,11.0,15.0,5.0,0.0
4153,56.0,1.0,20.0,6.0,0.0
4154,70.0,0.0,15.0,0.0,0.0
4155,70.0,12.0,15.0,5.0,0.0
4156,68.0,0.0,15.0,0.0,0.0
4157,75.0,0.0,20.0,2.0,0.0
4158,60.0,0.0,20.0,3.0,0.0
4159,48.0,0.0,20.0,4.0,0.0
4160,68.0,11.0,15.0,5.0,0.0
4161,60.0,1.0,20.0,6.0,0.0
4162,66.0,0.0,15.0,0.0,0.0
4163,66.0,14.0,15.0,5.0,0.0
4164,65.0,0.0,20.0,0.0,0.0
4165,68.0,0.0,20.0,2.0,0.0
4166,61.0,0.0,20.0,3.0,0.0
4167,49.0,0.0,20.0,4.0,0.0
4168,65.0,3.0,15.0,5.0,0.0
4169,61.0,15.0,20.0,6.0,0.0
4170,73.0,0.0,20.0,0.0,0.0
4171,73.0,0.0,20.0,1.0,0.0
4172,70.0,0.0,20.0,2.0,0.0
4173,58.0,0.0,20.0,3.0,0.0
4174,46.0,0.0,20.0,4.0,0.0
4175,73.0,9.0,15.0,5.0,0.0
4176,58.0,15.0,20.0,6.0,0.0
4177,63.0,0.0,20.0,0.0,0.0
4178,70.0,0.0,20.0,1.0,0.0
4179,70.0,0.0,20.0,2.0,0.0
4180,54.0,0.0,20.0,3.0,0.0
4181,42.0,0.0,20.0,4.0,0.0
4182,63.0,9.0,15.0,5.0,0.0
4183,54.0,9.0,20.0,6.0,0.0
4184,72.0,0.0,20.0,0.0,0.0
4185,68.0,0.0,20.0,1.0,0.0
4186,63.0,0.0,20.0,2.0,0.0
4187,56.0,0.0,20.0,3.0,0.0
4188,44.0,0.0,20.0,4.0,0.0
4189,73.0,6.0,15.0,5.0,0.0
4190,56.0,2.0,20.0,6.0,0.0
4191,72.0,6.0,15.0,5.0,0.0
4192,70.0,3.0,15.0,5.0,0.0
4193,72.0,13.0,15.0,5.0,0.0
4194,73.0,0.0,15.0,0.0,0.0
4195,68.0,0.0,15.0,1.0,0.0
4196,65.0,9.0,15.0,2.0,0.0
4197,49.0,0.0,20.0,3.0,0.0
4198,37.0,0.0,20.0,4.0,0.0
4199,72.0,12.0,20.0,5.0,0.0
4200,49.0,1.0,20.0,6.0,0.0
4201,77.0,0.0,15.0,0.0,0.0
4202,73.0,0.0,15.0,1.0,0.0
4203,68.0,2.0,15.0,2.0,0.0
4204,77.0,0.0,15.0,0.0,0.0
4205,73.0,0.0,15.0,1.0,0.0
4206,68.0,9.0,15.0,2.0,0.0
4207,61.0,0.0,20.0,3.0,0.0
4208,49.0,0.0,20.0,4.0,0.0
4209,73.0,0.0,20.0,5.0,0.0
4210,61.0,1.0,20.0,6.0,0.0
4211,81.0,0.0,15.0,0.0,0.0
4212,75.0,0.0,15.0,1.0,0.0
4213,72.0,8.0,15.0,2.0,0.0
4214,81.0,0.0,15.0,0.0,0.0
4215,75.0,0.0,15.0,1.0,0.0
4216,72.0,0.0,15.0,2.0,0.0
4217,60.0,0.0,20.0,3.0,0.0
4218,48.0,1.0,20.0,4.0,0.0
4219,60.0,6.0,15.0,6.0,0.0
4220,61.0,9.0,15.0,6.0,0.0
4221,82.0,0.0,15.0,0.0,0.0
4222,77.0,0.0,15.0,1.0,0.0
4223,73.0,0.0,15.0,2.0,0.0
4224,60.0,14.0,15.0,6.0,0.0
4225,82.0,0.0,15.0,0.0,0.0
4226,77.0,0.0,15.0,1.0,0.0
4227,73.0,0.0,15.0,2.0,0.0
4228,58.0,0.0,20.0,3.0,0.0
4229,46.0,0.0,20.0,4.0,0.0
4230,77.0,6.0,15.0,5.0,0.0
4231,58.0,1.0,20.0,6.0,0.0
4232,84.0,0.0,15.0,0.0,0.0
4233,72.0,0.0,15.0,1.0,0.0
4234,75.0,2.0,15.0,2.0,0.0
4235,75.0,3.0,15.0,5.0,0.0
4236,77.0,6.0,15.0,5.0,0.0
4237,84.0,0.0,30.0,0.0,0.0
4238,72.0,0.0,30.0,1.0,0.0
4239,75.0,0.0,30.0,2.0,0.0
4240,57.0,0.0,30.0,3.0,0.0
4241,45.0,3.0,30.0,4.0,0.0
4242,75.0,6.0,15.0,5.0,0.0
4243,57.0,1.0,20.0,6.0,0.0
4244,77.0,9.0,15.0,5.0,0.0
4245,78.0,14.0,15.0,5.0,0.0
4246,77.0,6.0,15.0,5.0,0.0
4247,60.0,3.0,20.0,6.0,0.0
4248,75.0,12.0,15.0,5.0,0.0
4249,73.0,9.0,15.0,5.0,0.0
4250,65.0,1.0,20.0,6.0,0.0
4251,72.0,23.0,15.0,5.0,0.0
4252,81.0,0.0,20.0,1.0,0.0
4253,72.0,0.0,20.0,2.0,0.0
4254,53.0,0.0,20.0,3.0,0.0
4255,41.0,0.0,20.0,4.0,0.0
4256,77.0,0.0,20.0,5.0,0.0
4257,53.0,13.0,20.0,6.0,0.0
4258,82.0,0.0,30.0,1.0,0.0
4259,70.0,0.0,30.0,2.0,0.0
4260,58.0,0.0,30.0,3.0,0.0
4261,46.0,3.0,30.0,4.0,0.0
4262,75.0,11.0,15.0,5.0,0.0
4263,58.0,1.0,20.0,6.0,0.0
4264,77.0,0.0,15.0,0.0,0.0
4265,73.0,12.0,15.0,5.0,0.0
4266,78.0,0.0,15.0,0.0,0.0
4267,72.0,8.0,15.0,5.0,0.0
4268,61.0,1.0,20.0,6.0,0.0
4269,80.0,0.0,15.0,0.0,0.0
4270,70.0,8.0,15.0,5.0,0.0
4271,82.0,2.0,15.0,0.0,0.0
4272,85.0,4.0,15.0,5.0,0.0
4273,55.0,1.0,20.0,6.0,0.0
4274,84.0,9.0,15.0,5.0,0.0
4275,76.0,12.0,15.0,0.0,0.0
4276,85.0,15.0,30.0,5.0,0.0
4277,77.0,11.0,15.0,0.0,0.0
4278,82.0,0.0,20.0,1.0,0.0
4279,73.0,0.0,20.0,2.0,0.0
4280,58.0,0.0,20.0,3.0,0.0
4281,46.0,0.0,20.0,4.0,0.0
4282,58.0,1.0,20.0,6.0,0.0
4283,78.0,8.0,15.0,0.0,0.0
4284,70.0,0.0,20.0,0.0,0.0
4285,79.0,0.0,30.0,1.0,0.0
4286,73.0,0.0,30.0,2.0,0.0
4287,52.0,0.0,30.0,3.0,0.0
4288,40.0,3.0,30.0,4.0,0.0
4289,52.0,3.0,20.0,6.0,0.0
4290,79.0,12.0,15.0,5.0,0.0
4291,80.0,6.0,15.0,5.0,0.0
4292,55.0,1.0,20.0,6.0,0.0
4293,82.0,14.0,15.0,5.0,0.0
4294,76.0,9.0,15.0,5.0,0.0
4295,48.0,1.0,20.0,6.0,0.0
4296,79.0,14.0,15.0,5.0,0.0
4297,77.0,0.0,20.0,1.0,0.0
4298,72.0,0.0,20.0,2.0,0.0
4299,53.0,0.0,20.0,3.0,0.0
4300,41.0,0.0,20.0,4.0,0.0
4301,77.0,9.0,15.0,5.0,0.0
4302,53.0,1.0,20.0,6.0,0.0
4303,80.0,12.0,15.0,5.0,0.0
4304,84.0,0.0,300.0,0.0,0.0
4305,76.0,0.0,20.0,1.0,0.0
4306,72.0,0.0,20.0,2.0,0.0
4307,48.0,0.0,20.0,3.0,0.0
4308,36.0,0.0,20.0,4.0,0.0
4309,79.0,11.0,15.0,5.0,0.0
4310,60.0,3.0,20.0,6.0,0.0
4311,76.0,12.0,15.0,5.0,0.0
4312,74.0,10.0,15.0,5.0,0.0
4313,72.0,14.0,15.0,5.0,0.0
4314,72.0,0.0,20.0,1.0,0.0
4315,65.0,0.0,20.0,2.0,0.0
4316,44.0,0.0,20.0,3.0,0.0
4317,32.0,0.0,20.0,4.0,0.0
4318,77.0,6.0,15.0,5.0,0.0
4319,56.0,2.0,20.0,6.0,0.0
4320,79.0,3.0,15.0,5.0,0.0
4321,80.0,13.0,15.0,5.0,0.0
4322,76.0,0.0,20.0,1.0,0.0
4323,72.0,0.0,20.0,2.0,0.0
4324,48.0,0.0,20.0,3.0,0.0
4325,36.0,0.0,20.0,4.0,0.0
4326,79.0,6.0,15.0,5.0,0.0
4327,60.0,2.0,20.0,6.0,0.0
4328,80.0,3.0,15.0,5.0,0.0
4329,82.0,11.0,15.0,5.0,0.0
4330,77.0,0.0,20.0,1.0,0.0
4331,72.0,0.0,20.0,2.0,0.0
4332,53.0,0.0,20.0,3.0,0.0
4333,41.0,0.0,20.0,4.0,0.0
4334,80.0,11.0,15.0,5.0,0.0
4335,65.0,3.0,20.0,6.0,0.0
4336,77.0,12.0,15.0,5.0,0.0
4337,76.0,10.0,15.0,5.0,0.0
4338,74.0,12.0,15.0,5.0,0.0
4339,79.0,0.0,20.0,1.0,0.0
4340,72.0,0.0,20.0,2.0,0.0
4341,52.0,0.0,20.0,3.0,0.0
4342,40.0,0.0,20.0,4.0,0.0
4343,79.0,11.0,15.0,5.0,0.0
4344,64.0,1.0,20.0,6.0,0.0
4345,82.0,12.0,15.0,5.0,0.0
4346,77.0,0.0,20.0,1.0,0.0
4347,72.0,0.0,20.0,2.0,0.0
4348,53.0,0.0,20.0,3.0,0.0
4349,41.0,0.0,20.0,4.0,0.0
4350,80.0,11.0,15.0,5.0,0.0
4351,65.0,1.0,20.0,6.0,0.0
4352,84.0,5.0,15.0,5.0,0.0
4353,76.0,0.0,20.0,1.0,0.0
4354,67.0,0.0,20.0,2.0,0.0
4355,55.0,0.0,20.0,3.0,0.0
4356,43.0,0.0,20.0,4.0,0.0
4357,82.0,18.0,15.0,5.0,0.0
4358,67.0,3.0,20.0,6.0,0.0
4359,79.0,12.0,15.0,5.0,0.0
4360,77.0,10.0,15.0,5.0,0.0
4361,76.0,5.0,15.0,5.0,0.0
4362,79.0,0.0,20.0,1.0,0.0
4363,72.0,0.0,20.0,2.0,0.0
4364,52.0,0.0,20.0,3.0,0.0
4365,40.0,0.0,20.0,4.0,0.0
4366,79.0,18.0,15.0,5.0,0.0
4367,64.0,3.0,20.0,6.0,0.0
4368,73.0,12.0,15.0,5.0,0.0
4369,76.0,0.0,20.0,1.0,0.0
4370,67.0,0.0,20.0,2.0,0.0
4371,48.0,0.0,20.0,3.0,0.0
4372,36.0,0.0,20.0,4.0,0.0
4373,72.0,9.0,15.0,5.0,0.0
4374,60.0,1.0,20.0,6.0,0.0
4375,70.0,5.0,15.0,5.0,0.0
4376,77.0,0.0,20.0,1.0,0.0
4377,69.0,0.0,20.0,2.0,0.0
4378,53.0,0.0,20.0,3.0,0.0
4379,41.0,0.0,20.0,4.0,0.0
4380,69.0,18.0,15.0,5.0,0.0
4381,65.0,3.0,20.0,6.0,0.0
4382,78.0,12.0,15.0,5.0,0.0
4383,77.0,9.0,15.0,5.0,0.0
4384,60.0,1.0,20.0,6.0,0.0
4385,75.0,5.0,15.0,5.0,0.0
4386,77.0,18.0,15.0,5.0,0.0
4387,62.0,3.0,20.0,6.0,0.0
4388,71.0,12.0,15.0,5.0,0.0
4389,70.0,9.0,15.0,5.0,0.0
4390,58.0,1.0,20.0,6.0,0.0
4391,68.0,5.0,15.0,5.0,0.0
4392,67.0,18.0,15.0,5.0,0.0
4393,63.0,3.0,20.0,6.0,0.0
4394,77.0,12.0,15.0,5.0,0.0
4395,75.0,9.0,15.0,5.0,0.0
4396,60.0,1.0,20.0,6.0,0.0
4397,74.0,5.0,15.0,5.0,0.0
4398,84.0,6.0,60.0,0.0,0.0
4399,75.0,18.0,15.0,5.0,0.0
4400,57.0,3.0,20.0,6.0,0.0
4401,70.0,12.0,15.0,5.0,0.0
4402,72.0,0.0,20.0,1.0,0.0
4403,69.0,0.0,20.0,2.0,0.0
4404,53.0,0.0,20.0,3.0,0.0
4405,41.0,0.0,20.0,4.0,0.0
4406,69.0,9.0,15.0,5.0,0.0
4407,53.0,1.0,20.0,6.0,0.0
4408,67.0,5.0,15.0,5.0,0.0
4409,73.0,0.0,20.0,1.0,0.0
4410,70.0,0.0,20.0,2.0,0.0
4411,58.0,0.0,20.0,3.0,0.0
4412,46.0,0.0,20.0,4.0,0.0
4413,65.0,12.0,15.0,5.0,0.0
4414,58.0,3.0,20.0,6.0,0.0
4415,73.0,12.0,15.0,5.0,0.0
4416,82.0,3.0,30.0,0.0,0.0
4417,72.0,9.0,15.0,5.0,0.0
4418,55.0,1.0,20.0,6.0,0.0
4419,70.0,5.0,15.0,5.0,0.0
4420,72.0,0.0,20.0,1.0,0.0
4421,67.0,0.0,20.0,2.0,0.0
4422,60.0,0.0,20.0,3.0,0.0
4423,48.0,0.0,20.0,4.0,0.0
4424,76.0,15.0,15.0,5.0,0.0
4425,60.0,3.0,20.0,6.0,0.0
4426,73.0,12.0,15.0,5.0,0.0
4427,80.0,14.0,30.0,0.0,0.0
4428,72.0,9.0,15.0,5.0,0.0
4429,48.0,1.0,20.0,6.0,0.0
4430,70.0,5.0,15.0,5.0,0.0
4431,72.0,0.0,20.0,1.0,0.0
4432,65.0,0.0,20.0,2.0,0.0
4433,61.0,0.0,20.0,3.0,0.0
4434,49.0,0.0,20.0,4.0,0.0
4435,77.0,4.0,15.0,5.0,0.0
4436,49.0,1.0,20.0,6.0,0.0
4437,77.0,2.0,15.0,0.0,0.0
4438,73.0,10.0,15.0,5.0,0.0
4439,76.0,2.0,15.0,0.0,0.0
4440,72.0,9.0,15.0,5.0,0.0
4441,61.0,1.0,20.0,6.0,0.0
4442,77.0,0.0,15.0,0.0,0.0
4443,70.0,5.0,15.0,5.0,0.0
4444,79.0,0.0,20.0,0.0,0.0
4445,70.0,0.0,20.0,1.0,0.0
4446,72.0,0.0,20.0,2.0,0.0
4447,52.0,0.0,20.0,3.0,0.0
4448,40.0,0.0,20.0,4.0,0.0
4449,79.0,18.0,15.0,5.0,0.0
4450,52.0,3.0,20.0,6.0,0.0
4451,73.0,12.0,15.0,5.0,0.0
4452,84.0,0.0,30.0,0.0,0.0
4453,72.0,9.0,15.0,5.0,0.0
4454,64.0,1.0,20.0,6.0,0.0
4455,70.0,8.0,15.0,5.0,0.0
4456,68.0,0.0,20.0,1.0,0.0
4457,65.0,0.0,20.0,2.0,0.0
4458,53.0,0.0,20.0,3.0,0.0
4459,41.0,0.0,20.0,4.0,0.0
4460,80.0,6.0,15.0,5.0,0.0
4461,65.0,3.0,20.0,6.0,0.0
4462,79.0,6.0,15.0,5.0,0.0
4463,77.0,3.0,15.0,5.0,0.0
4464,76.0,12.0,15.0,5.0,0.0
4465,80.0,0.0,20.0,0.0,0.0
4466,72.0,3.0,30.0,1.0,0.0
4467,65.0,0.0,20.0,2.0,0.0
4468,56.0,0.0,20.0,3.0,0.0
4469,44.0,0.0,20.0,4.0,0.0
4470,77.0,9.0,15.0,5.0,0.0
4471,56.0,1.0,20.0,6.0,0.0
4472,72.0,12.0,15.0,5.0,0.0
4473,77.0,0.0,20.0,0.0,0.0
4474,65.0,0.0,20.0,2.0,0.0
4475,58.0,0.0,20.0,3.0,0.0
4476,46.0,0.0,20.0,4.0,0.0
4477,73.0,8.0,15.0,5.0,0.0
4478,58.0,3.0,20.0,6.0,0.0
4479,79.0,12.0,15.0,5.0,0.0
4480,82.0,0.0,20.0,0.0,0.0
4481,70.0,3.0,30.0,1.0,0.0
4482,73.0,0.0,20.0,2.0,0.0
4483,55.0,0.0,20.0,3.0,0.0
4484,43.0,0.0,20.0,4.0,0.0
4485,80.0,9.0,15.0,5.0,0.0
4486,55.0,1.0,20.0,6.0,0.0
4487,82.0,12.0,15.0,5.0,0.0
4488,79.0,0.0,20.0,0.0,0.0
4489,72.0,0.0,20.0,2.0,0.0
4490,60.0,0.0,20.0,3.0,0.0
4491,48.0,0.0,20.0,4.0,0.0
4492,76.0,8.0,15.0,5.0,0.0
4493,60.0,1.0,20.0,6.0,0.0
4494,85.0,12.0,15.0,5.0,0.0
4495,76.0,0.0,20.0,0.0,0.0
4496,67.0,0.0,20.0,1.0,0.0
4497,72.0,0.0,20.0,2.0,0.0
4498,48.0,0.0,20.0,3.0,0.0
4499,36.0,0.0,20.0,4.0,0.0
4500,84.0,11.0,15.0,5.0,0.0
4501,48.0,1.0,20.0,6.0,0.0
4502,82.0,12.0,15.0,5.0,0.0
4503,72.0,0.0,20.0,0.0,0.0
4504,68.0,0.0,20.0,1.0,0.0
4505,72.0,0.0,20.0,2.0,0.0
4506,53.0,0.0,20.0,3.0,0.0
4507,41.0,0.0,20.0,4.0,0.0
4508,80.0,11.0,15.0,5.0,0.0
4509,53.0,1.0,20.0,6.0,0.0
4510,82.0,8.0,15.0,5.0,0.0
4511,84.0,5.0,15.0,5.0,0.0
4512,55.0,2.0,20.0,6.0,0.0
4513,82.0,6.0,15.0,5.0,0.0
4514,80.0,4.0,15.0,5.0,0.0
4515,82.0,22.0,15.0,5.0,0.0
4516,84.0,14.0,30.0,5.0,0.0
4517,56.0,10.0,20.0,6.0,0.0
4518,61.0,1.0,20.0,6.0,0.0
4519,77.0,8.0,15.0,5.0,0.0
4520,79.0,6.0,15.0,5.0,0.0
4521,58.0,1.0,20.0,6.0,0.0
4522,77.0,9.0,15.0,5.0,0.0
4523,79.0,8.0,15.0,5.0,0.0
4524,72.0,0.0,20.0,0.0,0.0
4525,60.0,0.0,20.0,3.0,0.0
4526,48.0,0.0,20.0,4.0,0.0
4527,77.0,6.0,15.0,5.0,0.0
4528,60.0,2.0,20.0,6.0,0.0
4529,76.0,6.0,15.0,5.0,0.0
4530,74.0,3.0,15.0,5.0,0.0
4531,76.0,11.0,15.0,5.0,0.0
4532,77.0,0.0,15.0,0.0,0.0
4533,72.0,9.0,90.0,1.0,0.0
4534,68.0,0.0,180.0,2.0,0.0
4535,53.0,0.0,20.0,3.0,0.0
4536,41.0,1.0,20.0,4.0,0.0
4537,77.0,3.0,30.0,5.0,0.0
4538,53.0,11.0,15.0,6.0,0.0
4539,76.0,0.0,15.0,0.0,0.0
4540,55.0,8.0,15.0,6.0,0.0
4541,77.0,8.0,15.0,0.0,0.0
4542,56.0,0.0,20.0,3.0,0.0
4543,44.0,1.0,20.0,4.0,0.0
4544,56.0,4.0,15.0,6.0,0.0
4545,80.0,12.0,15.0,0.0,0.0
4546,77.0,0.0,15.0,0.0,0.0
4547,56.0,0.0,20.0,3.0,0.0
4548,44.0,1.0,20.0,4.0,0.0
4549,56.0,11.0,15.0,6.0,0.0
4550,72.0,0.0,15.0,0.0,0.0
4551,58.0,8.0,15.0,6.0,0.0
4552,68.0,2.0,15.0,0.0,0.0
4553,60.0,0.0,20.0,3.0,0.0
4554,48.0,0.0,20.0,4.0,0.0
4555,72.0,1.0,20.0,5.0,0.0
4556,60.0,4.0,15.0,6.0,0.0
4557,72.0,8.0,15.0,0.0,0.0
4558,65.0,0.0,15.0,0.0,0.0
4559,77.0,0.0,90.0,1.0,0.0
4560,60.0,0.0,20.0,3.0,0.0
4561,48.0,1.0,20.0,4.0,0.0
4562,82.0,4.0,15.0,5.0,0.0
4563,60.0,2.0,15.0,6.0,0.0
4564,80.0,6.0,15.0,5.0,0.0
4565,72.0,0.0,15.0,0.0,0.0
4566,82.0,3.0,15.0,5.0,0.0
4567,61.0,2.0,15.0,6.0,0.0
4568,80.0,6.0,15.0,5.0,0.0
4569,68.0,2.0,15.0,0.0,0.0
4570,63.0,0.0,20.0,3.0,0.0
4571,51.0,1.0,20.0,4.0,0.0
4572,82.0,0.0,15.0,5.0,0.0
4573,63.0,4.0,15.0,6.0,0.0
4574,80.0,6.0,15.0,5.0,0.0
4575,72.0,2.0,15.0,0.0,0.0
4576,82.0,3.0,15.0,5.0,0.0
4577,80.0,6.0,15.0,5.0,0.0
4578,65.0,0.0,15.0,0.0,0.0
4579,63.0,0.0,20.0,3.0,0.0
4580,51.0,1.0,20.0,4.0,0.0
4581,82.0,4.0,15.0,5.0,0.0
4582,63.0,2.0,15.0,6.0,0.0
4583,80.0,6.0,15.0,5.0,0.0
4584,72.0,0.0,15.0,0.0,0.0
4585,82.0,3.0,15.0,5.0,0.0
4586,65.0,2.0,15.0,6.0,0.0
4587,80.0,6.0,15.0,5.0,0.0
4588,68.0,2.0,15.0,0.0,0.0
4589,66.0,0.0,20.0,3.0,0.0
4590,54.0,1.0,20.0,4.0,0.0
4591,82.0,0.0,15.0,5.0,0.0
4592,66.0,4.0,15.0,6.0,0.0
4593,80.0,6.0,15.0,5.0,0.0
4594,72.0,2.0,15.0,0.0,0.0
4595,82.0,3.0,15.0,5.0,0.0
4596,80.0,6.0,15.0,5.0,0.0
4597,75.0,2.0,15.0,0.0,0.0
4598,75.0,0.0,90.0,1.0,0.0
4599,72.0,9.0,90.0,2.0,0.0
4600,66.0,0.0,20.0,3.0,0.0
4601,54.0,0.0,20.0,4.0,0.0
4602,82.0,4.0,15.0,5.0,0.0
4603,66.0,1.0,20.0,6.0,0.0
4604,81.0,6.0,15.0,5.0,0.0
4605,73.0,2.0,15.0,0.0,0.0
4606,82.0,3.0,15.0,5.0,0.0
4607,81.0,6.0,15.0,5.0,0.0
4608,75.0,2.0,15.0,0.0,0.0
4609,63.0,0.0,20.0,3.0,0.0
4610,51.0,0.0,20.0,4.0,0.0
4611,82.0,4.0,15.0,5.0,0.0
4612,63.0,1.0,20.0,6.0,0.0
4613,81.0,6.0,15.0,5.0,0.0
4614,78.0,2.0,15.0,0.0,0.0
4615,82.0,3.0,15.0,5.0,0.0
4616,81.0,6.0,15.0,5.0,0.0
4617,75.0,2.0,15.0,0.0,0.0
4618,60.0,0.0,20.0,3.0,0.0
4619,48.0,0.0,20.0,4.0,0.0
4620,82.0,4.0,15.0,5.0,0.0
4621,60.0,1.0,20.0,6.0,0.0
4622,81.0,6.0,15.0,5.0,0.0
4623,72.0,2.0,15.0,0.0,0.0
4624,82.0,3.0,15.0,5.0,0.0
4625,81.0,6.0,15.0,5.0,0.0
4626,69.0,2.0,15.0,0.0,0.0
4627,65.0,0.0,20.0,3.0,0.0
4628,53.0,0.0,20.0,4.0,0.0
4629,82.0,4.0,15.0,5.0,0.0
4630,65.0,1.0,20.0,6.0,0.0
4631,81.0,12.0,15.0,5.0,0.0
4632,72.0,0.0,15.0,0.0,0.0
4633,65.0,11.0,15.0,0.0,0.0
4634,77.0,0.0,30.0,1.0,0.0
4635,70.0,0.0,30.0,2.0,0.0
4636,61.0,0.0,20.0,3.0,0.0
4637,49.0,0.0,20.0,4.0,0.0
4638,82.0,4.0,30.0,5.0,0.0
4639,61.0,1.0,20.0,6.0,0.0
4640,77.0,12.0,15.0,0.0,0.0
4641,73.0,0.0,15.0,0.0,0.0
4642,65.0,0.0,15.0,3.0,0.0
4643,53.0,0.0,15.0,4.0,0.0
4644,65.0,8.0,15.0,6.0,0.0
4645,77.0,0.0,15.0,0.0,0.0
4646,63.0,0.0,15.0,3.0,0.0
4647,51.0,0.0,15.0,4.0,0.0
4648,63.0,12.0,15.0,6.0,0.0
4649,82.0,0.0,15.0,0.0,0.0
4650,61.0,0.0,15.0,3.0,0.0
4651,49.0,0.0,15.0,4.0,0.0
4652,61.0,12.0,15.0,6.0,0.0
4653,77.0,0.0,15.0,0.0,0.0
4654,60.0,0.0,15.0,3.0,0.0
4655,48.0,0.0,15.0,4.0,0.0
4656,60.0,12.0,15.0,6.0,0.0
4657,84.0,0.0,15.0,0.0,0.0
4658,77.0,0.0,20.0,1.0,0.0
4659,75.0,0.0,20.0,2.0,0.0
4660,58.0,0.0,15.0,3.0,0.0
4661,46.0,0.0,15.0,4.0,0.0
4662,77.0,1.0,20.0,5.0,0.0
4663,58.0,11.0,15.0,6.0,0.0
4664,77.0,0.0,15.0,0.0,0.0
4665,57.0,0.0,15.0,3.0,0.0
4666,45.0,0.0,15.0,4.0,0.0
4667,57.0,12.0,15.0,6.0,0.0
4668,85.0,9.0,180.0,0.0,0.0
4669,77.0,0.0,20.0,1.0,0.0
4670,73.0,0.0,20.0,2.0,0.0
4671,58.0,0.0,20.0,3.0,0.0
4672,46.0,0.0,20.0,4.0,0.0
4673,70.0,11.0,15.0,5.0,0.0
4674,58.0,1.0,20.0,6.0,0.0
4675,72.0,8.0,15.0,5.0,0.0
4676,73.0,0.0,20.0,1.0,0.0
4677,70.0,0.0,20.0,2.0,0.0
4678,53.0,0.0,20.0,3.0,0.0
4679,41.0,0.0,20.0,4.0,0.0
4680,73.0,15.0,15.0,5.0,0.0
4681,53.0,13.0,20.0,6.0,0.0
4682,73.0,0.0,20.0,1.0,0.0
4683,70.0,0.0,20.0,2.0,0.0
4684,53.0,0.0,20.0,3.0,0.0
4685,41.0,0.0,20.0,4.0,0.0
4686,73.0,11.0,15.0,5.0,0.0
4687,53.0,1.0,20.0,6.0,0.0
4688,75.0,8.0,15.0,5.0,0.0
4689,70.0,0.0,20.0,1.0,0.0
4690,65.0,0.0,20.0,2.0,0.0
4691,49.0,0.0,20.0,3.0,0.0
4692,37.0,0.0,20.0,4.0,0.0
4693,77.0,15.0,15.0,5.0,0.0
4694,49.0,13.0,20.0,6.0,0.0
4695,70.0,0.0,20.0,1.0,0.0
4696,65.0,1.0,20.0,2.0,0.0
4697,49.0,0.0,15.0,3.0,0.0
4698,37.0,0.0,15.0,4.0,0.0
4699,77.0,0.0,15.0,5.0,0.0
4700,49.0,11.0,15.0,6.0,0.0
4701,51.0,0.0,15.0,3.0,0.0
4702,39.0,0.0,15.0,4.0,0.0
4703,79.0,0.0,15.0,5.0,0.0
4704,51.0,8.0,15.0,6.0,0.0
4705,77.0,0.0,15.0,1.0,0.0
4706,61.0,0.0,15.0,2.0,0.0
4707,49.0,0.0,15.0,3.0,0.0
4708,37.0,0.0,15.0,4.0,0.0
4709,81.0,4.0,15.0,5.0,0.0
4710,49.0,12.0,15.0,6.0,0.0
4711,75.0,0.0,15.0,1.0,0.0
4712,63.0,0.0,15.0,2.0,0.0
4713,48.0,0.0,15.0,3.0,0.0
4714,36.0,0.0,15.0,4.0,0.0
4715,48.0,12.0,15.0,6.0,0.0
4716,73.0,11.0,15.0,1.0,0.0
4717,65.0,0.0,20.0,2.0,0.0
4718,46.0,0.0,20.0,3.0,0.0
4719,34.0,0.0,20.0,4.0,0.0
4720,82.0,0.0,20.0,5.0,0.0
4721,46.0,1.0,20.0,6.0,0.0
4722,72.0,7.0,15.0,1.0,0.0
4723,70.0,1.0,15.0,1.0,0.0
4724,65.0,1.0,20.0,2.0,0.0
4725,58.0,0.0,30.0,3.0,0.0
4726,46.0,0.0,30.0,4.0,0.0
4727,82.0,5.0,15.0,5.0,0.0
4728,58.0,3.0,30.0,6.0,0.0
4729,84.0,1.0,15.0,5.0,0.0
4730,68.0,0.0,15.0,1.0,0.0
4731,85.0,20.0,15.0,5.0,0.0
4732,84.0,10.0,240.0,0.0,0.0
4733,67.0,0.0,20.0,1.0,0.0
4734,72.0,0.0,20.0,2.0,0.0
4735,76.0,9.0,20.0,5.0,0.0
4736,68.0,0.0,20.0,1.0,0.0
4737,74.0,0.0,20.0,2.0,0.0
4738,56.0,0.0,20.0,3.0,0.0
4739,44.0,0.0,20.0,4.0,0.0
4740,79.0,6.0,15.0,5.0,0.0
4741,56.0,2.0,20.0,6.0,0.0
4742,77.0,6.0,15.0,5.0,0.0
4743,76.0,3.0,15.0,5.0,0.0
4744,77.0,22.0,15.0,5.0,0.0
4745,70.0,0.0,20.0,1.0,0.0
4746,76.0,0.0,20.0,2.0,0.0
4747,55.0,0.0,20.0,3.0,0.0
4748,43.0,0.0,20.0,4.0,0.0
4749,79.0,0.0,20.0,5.0,0.0
4750,55.0,24.0,20.0,6.0,0.0
4751,72.0,0.0,20.0,1.0,0.0
4752,77.0,0.0,20.0,2.0,0.0
4753,53.0,0.0,20.0,3.0,0.0
4754,41.0,0.0,20.0,4.0,0.0
4755,80.0,0.0,20.0,5.0,0.0
4756,53.0,15.0,20.0,6.0,0.0
4757,72.0,0.0,30.0,1.0,0.0
4758,76.0,3.0,30.0,2.0,0.0
4759,48.0,0.0,20.0,3.0,0.0
4760,36.0,0.0,20.0,4.0,0.0
4761,79.0,9.0,15.0,5.0,0.0
4762,48.0,3.0,20.0,6.0,0.0
4763,77.0,12.0,15.0,5.0,0.0
4764,50.0,0.0,20.0,3.0,0.0
4765,38.0,0.0,20.0,4.0,0.0
4766,76.0,6.0,15.0,5.0,0.0
4767,50.0,1.0,20.0,6.0,0.0
4768,74.0,12.0,15.0,5.0,0.0
4769,52.0,0.0,20.0,3.0,0.0
4770,40.0,0.0,20.0,4.0,0.0
4771,72.0,11.0,15.0,5.0,0.0
4772,52.0,1.0,20.0,6.0,0.0
4773,79.0,12.0,15.0,5.0,0.0
4774,77.0,0.0,20.0,1.0,0.0
4775,72.0,0.0,20.0,2.0,0.0
4776,53.0,0.0,20.0,3.0,0.0
4777,41.0,0.0,20.0,4.0,0.0
4778,80.0,11.0,15.0,5.0,0.0
4779,53.0,1.0,20.0,6.0,0.0
4780,77.0,14.0,15.0,5.0,0.0
4781,76.0,0.0,20.0,1.0,0.0
4782,60.0,3.0,20.0,2.0,0.0
4783,48.0,0.0,30.0,3.0,0.0
4784,36.0,0.0,30.0,4.0,0.0
4785,79.0,9.0,15.0,5.0,0.0
4786,48.0,3.0,30.0,6.0,0.0
4787,77.0,12.0,15.0,5.0,0.0
4788,77.0,0.0,20.0,1.0,0.0
4789,62.0,1.0,20.0,2.0,0.0
4790,76.0,6.0,15.0,5.0,0.0
4791,74.0,2.0,15.0,5.0,0.0
4792,79.0,0.0,20.0,1.0,0.0
4793,64.0,1.0,20.0,2.0,0.0
4794,72.0,11.0,15.0,5.0,0.0
4795,84.0,12.0,15.0,5.0,0.0
4796,84.0,0.0,20.0,0.0,0.0
4797,77.0,0.0,20.0,1.0,0.0
4798,65.0,1.0,20.0,2.0,0.0
4799,80.0,11.0,15.0,5.0,0.0
4800,77.0,12.0,15.0,5.0,0.0
4801,72.0,0.0,20.0,0.0,0.0
4802,76.0,1.0,20.0,1.0,0.0
4803,60.0,0.0,30.0,2.0,0.0
4804,48.0,0.0,30.0,3.0,0.0
4805,36.0,0.0,30.0,4.0,0.0
4806,79.0,11.0,15.0,5.0,0.0
4807,48.0,3.0,30.0,6.0,0.0
4808,77.0,12.0,15.0,5.0,0.0
4809,74.0,0.0,20.0,0.0,0.0
4810,77.0,1.0,20.0,1.0,0.0
4811,76.0,8.0,15.0,5.0,0.0
4812,74.0,23.0,15.0,5.0,0.0
4813,76.0,0.0,20.0,0.0,0.0
4814,79.0,0.0,20.0,1.0,0.0
4815,72.0,13.0,20.0,5.0,0.0
4816,77.0,0.0,20.0,0.0,0.0
4817,77.0,1.0,20.0,1.0,0.0
4818,75.0,11.0,15.0,5.0,0.0
4819,73.0,12.0,15.0,5.0,0.0
4820,78.0,9.0,90.0,0.0,0.0
4821,75.0,0.0,120.0,1.0,0.0
4822,69.0,3.0,30.0,2.0,0.0
4823,60.0,0.0,20.0,3.0,0.0
4824,48.0,10.0,20.0,4.0,0.0
4825,75.0,1.0,20.0,5.0,0.0
4826,60.0,11.0,15.0,6.0,0.0
4827,61.0,2.0,15.0,6.0,0.0
4828,60.0,0.0,20.0,3.0,0.0
4829,48.0,1.0,20.0,4.0,0.0
4830,78.0,0.0,15.0,5.0,0.0
4831,63.0,8.0,15.0,6.0,0.0
4832,77.0,0.0,15.0,5.0,0.0
4833,61.0,12.0,15.0,6.0,0.0
4834,72.0,7.0,60.0,2.0,0.0
4835,57.0,0.0,20.0,3.0,0.0
4836,45.0,10.0,20.0,4.0,0.0
4837,78.0,1.0,20.0,5.0,0.0
4838,63.0,11.0,15.0,6.0,0.0
4839,57.0,2.0,15.0,6.0,0.0
4840,57.0,0.0,20.0,3.0,0.0
4841,45.0,0.0,20.0,4.0,0.0
4842,75.0,1.0,20.0,5.0,0.0
4843,58.0,2.0,15.0,6.0,0.0
4844,60.0,12.0,15.0,6.0,0.0
4845,77.0,9.0,90.0,0.0,0.0
4846,53.0,0.0,20.0,3.0,0.0
4847,41.0,0.0,20.0,4.0,0.0
4848,81.0,3.0,15.0,5.0,0.0
4849,53.0,2.0,15.0,6.0,0.0
4850,82.0,10.0,15.0,5.0,0.0
4851,61.0,2.0,15.0,6.0,0.0
4852,72.0,0.0,20.0,1.0,0.0
4853,69.0,0.0,20.0,2.0,0.0
4854,53.0,0.0,20.0,3.0,0.0
4855,41.0,1.0,20.0,4.0,0.0
4856,84.0,9.0,15.0,5.0,0.0
4857,63.0,2.0,15.0,6.0,0.0
4858,81.0,0.0,15.0,5.0,0.0
4859,60.0,12.0,15.0,6.0,0.0
4860,65.0,0.0,20.0,1.0,0.0
4861,73.0,1.0,20.0,2.0,0.0
4862,49.0,0.0,20.0,3.0,0.0
4863,37.0,10.0,20.0,4.0,0.0
4864,82.0,0.0,15.0,5.0,0.0
4865,61.0,11.0,15.0,6.0,0.0
4866,70.0,0.0,15.0,5.0,0.0
4867,65.0,2.0,15.0,6.0,0.0
4868,61.0,0.0,20.0,1.0,0.0
4869,70.0,0.0,20.0,2.0,0.0
4870,49.0,0.0,20.0,3.0,0.0
4871,37.0,1.0,20.0,4.0,0.0
4872,73.0,0.0,15.0,5.0,0.0
4873,63.0,2.0,15.0,6.0,0.0
4874,72.0,0.0,15.0,5.0,0.0
4875,65.0,12.0,15.0,6.0,0.0
4876,76.0,9.0,90.0,0.0,0.0
4877,73.0,3.0,120.0,1.0,0.0
4878,67.0,3.0,30.0,2.0,0.0
4879,58.0,0.0,20.0,3.0,0.0
4880,46.0,10.0,20.0,4.0,0.0
4881,73.0,10.0,15.0,5.0,0.0
4882,58.0,2.0,15.0,6.0,0.0
4883,70.0,0.0,15.0,5.0,0.0
4884,60.0,2.0,15.0,6.0,0.0
4885,58.0,0.0,20.0,3.0,0.0
4886,46.0,1.0,20.0,4.0,0.0
4887,76.0,6.0,15.0,5.0,0.0
4888,61.0,2.0,15.0,6.0,0.0
4889,75.0,0.0,15.0,5.0,0.0
4890,60.0,12.0,15.0,6.0,0.0
4891,70.0,7.0,60.0,2.0,0.0
4892,55.0,0.0,20.0,3.0,0.0
4893,43.0,10.0,20.0,4.0,0.0
4894,76.0,0.0,15.0,5.0,0.0
4895,61.0,12.0,15.0,6.0,0.0
4896,73.0,0.0,15.0,5.0,0.0
4897,55.0,2.0,15.0,6.0,0.0
4898,55.0,0.0,20.0,3.0,0.0
4899,43.0,1.0,20.0,4.0,0.0
4900,79.0,0.0,15.0,5.0,0.0
4901,56.0,2.0,15.0,6.0,0.0
4902,77.0,0.0,15.0,5.0,0.0
4903,58.0,12.0,15.0,6.0,0.0
4904,75.0,6.0,60.0,0.0,0.0
4905,51.0,0.0,20.0,3.0,0.0
4906,39.0,10.0,20.0,4.0,0.0
4907,79.0,0.0,15.0,5.0,0.0
4908,51.0,2.0,15.0,6.0,0.0
4909,80.0,0.0,15.0,5.0,0.0
4910,60.0,2.0,15.0,6.0,0.0
4911,70.0,0.0,20.0,1.0,0.0
4912,67.0,0.0,20.0,2.0,0.0
4913,51.0,0.0,20.0,3.0,0.0
4914,39.0,1.0,20.0,4.0,0.0
4915,82.0,0.0,15.0,5.0,0.0
4916,61.0,11.0,15.0,6.0,0.0
4917,79.0,0.0,15.0,5.0,0.0
4918,58.0,12.0,15.0,6.0,0.0
4919,63.0,0.0,20.0,1.0,0.0
4920,72.0,0.0,20.0,2.0,0.0
4921,48.0,0.0,20.0,3.0,0.0
4922,36.0,0.0,20.0,4.0,0.0
4923,80.0,1.0,20.0,5.0,0.0
4924,60.0,5.0,15.0,6.0,0.0
4925,65.0,8.0,15.0,6.0,0.0
4926,84.0,0.0,20.0,0.0,0.0
4927,60.0,0.0,20.0,1.0,0.0
4928,68.0,0.0,15.0,2.0,0.0
4929,53.0,0.0,20.0,3.0,0.0
4930,41.0,1.0,20.0,4.0,0.0
4931,80.0,4.0,15.0,5.0,0.0
4932,64.0,2.0,15.0,6.0,0.0
4933,82.0,9.0,15.0,5.0,0.0
4934,65.0,0.0,15.0,2.0,0.0
4935,84.0,0.0,15.0,5.0,0.0
4936,65.0,12.0,15.0,6.0,0.0
4937,77.0,0.0,20.0,0.0,0.0
4938,61.0,0.0,20.0,1.0,0.0
4939,70.0,0.0,20.0,2.0,0.0
4940,49.0,0.0,20.0,3.0,0.0
4941,37.0,0.0,20.0,4.0,0.0
4942,82.0,1.0,20.0,5.0,0.0
4943,61.0,11.0,15.0,6.0,0.0
4944,63.0,12.0,15.0,6.0,0.0
4945,80.0,1.0,20.0,5.0,0.0
4946,65.0,11.0,15.0,6.0,0.0
4947,61.0,8.0,15.0,6.0,0.0
4948,82.0,0.0,20.0,0.0,0.0
4949,73.0,0.0,20.0,1.0,0.0
4950,70.0,0.0,20.0,2.0,0.0
4951,46.0,0.0,20.0,3.0,0.0
4952,34.0,1.0,20.0,4.0,0.0
4953,79.0,4.0,15.0,5.0,0.0
4954,58.0,2.0,15.0,6.0,0.0
4955,80.0,9.0,15.0,5.0,0.0
4956,79.0,0.0,15.0,5.0,0.0
4957,60.0,12.0,15.0,6.0,0.0
4958,77.0,1.0,20.0,5.0,0.0
4959,61.0,11.0,15.0,6.0,0.0
4960,58.0,14.0,15.0,6.0,0.0
4961,82.0,0.0,20.0,0.0,0.0
4962,72.0,0.0,20.0,1.0,0.0
4963,67.0,0.0,20.0,2.0,0.0
4964,48.0,0.0,20.0,3.0,0.0
4965,36.0,0.0,20.0,4.0,0.0
4966,72.0,9.0,15.0,5.0,0.0
4967,52.0,1.0,20.0,6.0,0.0
4968,71.0,14.0,15.0,5.0,0.0
4969,72.0,9.0,15.0,5.0,0.0
4970,48.0,1.0,20.0,6.0,0.0
4971,71.0,12.0,15.0,5.0,0.0
4972,80.0,0.0,20.0,0.0,0.0
4973,72.0,0.0,20.0,1.0,0.0
4974,65.0,0.0,20.0,2.0,0.0
4975,48.0,0.0,20.0,3.0,0.0
4976,36.0,0.0,20.0,4.0,0.0
4977,72.0,11.0,15.0,5.0,0.0
4978,53.0,1.0,20.0,6.0,0.0
4979,79.0,12.0,15.0,5.0,0.0
4980,80.0,11.0,15.0,5.0,0.0
4981,50.0,1.0,20.0,6.0,0.0
4982,77.0,14.0,15.0,5.0,0.0
4983,79.0,0.0,20.0,0.0,0.0
4984,72.0,0.0,20.0,1.0,0.0
4985,67.0,0.0,20.0,2.0,0.0
4986,48.0,0.0,20.0,3.0,0.0
4987,36.0,0.0,20.0,4.0,0.0
4988,72.0,9.0,15.0,5.0,0.0
4989,52.0,1.0,20.0,6.0,0.0
4990,71.0,14.0,15.0,5.0,0.0
4991,72.0,9.0,15.0,5.0,0.0
4992,48.0,1.0,20.0,6.0,0.0
4993,71.0,12.0,15.0,5.0,0.0
4994,77.0,0.0,20.0,0.0,0.0
4995,72.0,0.0,20.0,1.0,0.0
4996,68.0,0.0,20.0,2.0,0.0
4997,48.0,0.0,20.0,3.0,0.0
4998,36.0,0.0,20.0,4.0,0.0
4999,72.0,11.0,15.0,5.0,0.0
5000,53.0,1.0,20.0,6.0,0.0
5001,80.0,12.0,15.0,5.0,0.0
5002,82.0,11.0,15.0,5.0,0.0
5003,50.0,1.0,20.0,6.0,0.0
5004,79.0,14.0,15.0,5.0,0.0
5005,79.0,0.0,20.0,0.0,0.0
5006,72.0,0.0,20.0,1.0,0.0
5007,70.0,0.0,20.0,2.0,0.0
5008,72.0,9.0,15.0,5.0,0.0
5009,52.0,1.0,20.0,6.0,0.0
5010,71.0,14.0,15.0,5.0,0.0
5011,60.0,0.0,20.0,3.0,0.0
5012,48.0,0.0,20.0,4.0,0.0
5013,72.0,9.0,15.0,5.0,0.0
5014,48.0,1.0,20.0,6.0,0.0
5015,71.0,12.0,15.0,5.0,0.0
5016,77.0,0.0,20.0,0.0,0.0
5017,72.0,0.0,20.0,1.0,0.0
5018,68.0,0.0,20.0,2.0,0.0
5019,56.0,0.0,20.0,3.0,0.0
5020,44.0,0.0,20.0,4.0,0.0
5021,72.0,11.0,15.0,5.0,0.0
5022,44.0,1.0,20.0,6.0,0.0
5023,82.0,12.0,15.0,5.0,0.0
5024,53.0,0.0,20.0,3.0,0.0
5025,41.0,0.0,20.0,4.0,0.0
5026,84.0,11.0,15.0,5.0,0.0
5027,41.0,1.0,20.0,6.0,0.0
5028,80.0,12.0,15.0,5.0,0.0
5029,76.0,0.0,20.0,0.0,0.0
5030,72.0,0.0,150.0,1.0,0.0
5031,67.0,9.0,150.0,2.0,0.0
5032,48.0,0.0,20.0,3.0,0.0
5033,36.0,1.0,20.0,4.0,0.0
5034,82.0,0.0,15.0,5.0,0.0
5035,48.0,7.0,15.0,6.0,0.0
5036,84.0,4.0,15.0,5.0,0.0
5037,50.0,1.0,15.0,6.0,0.0
5038,85.0,7.0,15.0,5.0,0.0
5039,79.0,0.0,20.0,0.0,0.0
5040,52.0,0.0,20.0,3.0,0.0
5041,40.0,10.0,20.0,4.0,0.0
5042,84.0,3.0,30.0,5.0,0.0
5043,52.0,15.0,15.0,6.0,0.0
5044,79.0,0.0,20.0,0.0,0.0
5045,52.0,0.0,20.0,3.0,0.0
5046,40.0,1.0,20.0,4.0,0.0
5047,52.0,11.0,15.0,6.0,0.0
5048,77.0,0.0,15.0,5.0,0.0
5049,53.0,8.0,15.0,6.0,0.0
5050,82.0,0.0,20.0,0.0,0.0
5051,55.0,0.0,20.0,3.0,0.0
5052,43.0,1.0,20.0,4.0,0.0
5053,76.0,11.0,15.0,5.0,0.0
5054,55.0,4.0,15.0,6.0,0.0
5055,79.0,12.0,15.0,5.0,0.0
5056,76.0,0.0,20.0,0.0,0.0
5057,55.0,0.0,20.0,3.0,0.0
5058,43.0,1.0,20.0,4.0,0.0
5059,70.0,6.0,15.0,5.0,0.0
5060,55.0,2.0,15.0,6.0,0.0
5061,72.0,3.0,15.0,5.0,0.0
5062,56.0,1.0,15.0,6.0,0.0
5063,73.0,7.0,15.0,5.0,0.0
5064,79.0,0.0,20.0,0.0,0.0
5065,58.0,0.0,20.0,3.0,0.0
5066,46.0,10.0,20.0,4.0,0.0
5067,72.0,5.0,30.0,5.0,0.0
5068,58.0,15.0,15.0,6.0,0.0
5069,79.0,0.0,20.0,0.0,0.0
5070,58.0,0.0,20.0,3.0,0.0
5071,46.0,0.0,20.0,4.0,0.0
5072,58.0,1.0,20.0,6.0,0.0
5073,76.0,12.0,15.0,5.0,0.0
5074,82.0,0.0,20.0,0.0,0.0
5075,79.0,0.0,20.0,1.0,0.0
5076,67.0,0.0,20.0,2.0,0.0
5077,52.0,0.0,20.0,3.0,0.0
5078,40.0,0.0,20.0,4.0,0.0
5079,79.0,11.0,15.0,5.0,0.0
5080,52.0,1.0,20.0,6.0,0.0
5081,82.0,14.0,15.0,5.0,0.0
5082,80.0,0.0,20.0,0.0,0.0
5083,77.0,0.0,20.0,1.0,0.0
5084,68.0,0.0,20.0,2.0,0.0
5085,53.0,0.0,20.0,3.0,0.0
5086,41.0,0.0,20.0,4.0,0.0
5087,85.0,9.0,15.0,5.0,0.0
5088,53.0,3.0,20.0,6.0,0.0
5089,84.0,12.0,15.0,5.0,0.0
5090,73.0,3.0,30.0,2.0,0.0
5091,49.0,0.0,20.0,3.0,0.0
5092,37.0,0.0,20.0,4.0,0.0
5093,82.0,9.0,15.0,5.0,0.0
5094,49.0,1.0,20.0,6.0,0.0
5095,80.0,14.0,15.0,5.0,0.0
5096,76.0,0.0,20.0,1.0,0.0
5097,46.0,0.0,20.0,3.0,0.0
5098,34.0,0.0,20.0,4.0,0.0
5099,84.0,6.0,15.0,5.0,0.0
5100,46.0,3.0,20.0,6.0,0.0
5101,82.0,12.0,15.0,5.0,0.0
5102,72.0,0.0,20.0,2.0,0.0
5103,48.0,0.0,20.0,3.0,0.0
5104,36.0,0.0,20.0,4.0,0.0
5105,80.0,9.0,15.0,5.0,0.0
5106,48.0,1.0,20.0,6.0,0.0
5107,79.0,23.0,15.0,5.0,0.0
5108,77.0,0.0,20.0,1.0,0.0
5109,68.0,0.0,20.0,2.0,0.0
5110,49.0,0.0,20.0,3.0,0.0
5111,37.0,0.0,20.0,4.0,0.0
5112,77.0,3.0,30.0,5.0,0.0
5113,49.0,1.0,20.0,6.0,0.0
5114,65.0,12.0,15.0,0.0,0.0
5115,68.0,8.0,15.0,0.0,0.0
5116,61.0,1.0,20.0,6.0,0.0
5117,72.0,12.0,15.0,0.0,0.0
5118,77.0,11.0,15.0,0.0,0.0
5119,72.0,0.0,20.0,1.0,0.0
5120,65.0,0.0,20.0,2.0,0.0
5121,57.0,0.0,20.0,3.0,0.0
5122,45.0,0.0,20.0,4.0,0.0
5123,57.0,1.0,20.0,6.0,0.0
5124,75.0,12.0,15.0,0.0,0.0
5125,73.0,11.0,15.0,0.0,0.0
5126,77.0,0.0,20.0,5.0,0.0
5127,53.0,1.0,20.0,6.0,0.0
5128,72.0,5.0,15.0,0.0,0.0
5129,65.0,9.0,15.0,0.0,0.0
5130,70.0,0.0,20.0,1.0,0.0
5131,65.0,0.0,20.0,2.0,0.0
5132,58.0,0.0,20.0,3.0,0.0
5133,46.0,0.0,20.0,4.0,0.0
5134,73.0,9.0,15.0,5.0,0.0
5135,58.0,3.0,20.0,6.0,0.0
5136,73.0,0.0,15.0,0.0,0.0
5137,76.0,12.0,15.0,5.0,0.0
5138,72.0,9.0,15.0,0.0,0.0
5139,77.0,0.0,20.0,5.0,0.0
5140,46.0,1.0,20.0,6.0,0.0
5141,70.0,5.0,15.0,0.0,0.0
5142,65.0,18.0,15.0,0.0,0.0
5143,72.0,0.0,20.0,1.0,0.0
5144,68.0,0.0,20.0,2.0,0.0
5145,56.0,0.0,20.0,3.0,0.0
5146,44.0,0.0,20.0,4.0,0.0
5147,44.0,3.0,20.0,6.0,0.0
5148,72.0,12.0,15.0,0.0,0.0
5149,70.0,9.0,15.0,0.0,0.0
5150,72.0,0.0,20.0,5.0,0.0
5151,56.0,1.0,20.0,6.0,0.0
5152,68.0,5.0,15.0,0.0,0.0
5153,64.0,9.0,15.0,0.0,0.0
5154,76.0,0.0,20.0,1.0,0.0
5155,70.0,0.0,20.0,2.0,0.0
5156,55.0,0.0,20.0,3.0,0.0
5157,43.0,0.0,20.0,4.0,0.0
5158,70.0,9.0,15.0,5.0,0.0
5159,55.0,3.0,20.0,6.0,0.0
5160,70.0,0.0,15.0,0.0,0.0
5161,76.0,12.0,15.0,5.0,0.0
5162,68.0,9.0,15.0,0.0,0.0
5163,77.0,0.0,20.0,5.0,0.0
5164,43.0,1.0,20.0,6.0,0.0
5165,67.0,23.0,15.0,0.0,0.0
5166,68.0,0.0,20.0,0.0,0.0
5167,77.0,0.0,20.0,1.0,0.0
5168,72.0,0.0,20.0,2.0,0.0
5169,53.0,0.0,20.0,3.0,0.0
5170,41.0,0.0,20.0,4.0,0.0
5171,41.0,1.0,20.0,6.0,0.0
5172,80.0,12.0,15.0,5.0,0.0
5173,80.0,3.0,30.0,0.0,0.0
5174,76.0,11.0,15.0,5.0,0.0
5175,53.0,1.0,20.0,6.0,0.0
5176,77.0,5.0,15.0,5.0,0.0
5177,65.0,0.0,20.0,1.0,0.0
5178,70.0,0.0,20.0,2.0,0.0
5179,58.0,0.0,20.0,3.0,0.0
5180,46.0,0.0,20.0,4.0,0.0
5181,73.0,15.0,15.0,5.0,0.0
5182,46.0,3.0,20.0,6.0,0.0
5183,76.0,12.0,15.0,5.0,0.0
5184,79.0,3.0,30.0,0.0,0.0
5185,77.0,9.0,15.0,5.0,0.0
5186,58.0,1.0,20.0,6.0,0.0
5187,79.0,5.0,15.0,5.0,0.0
5188,68.0,0.0,20.0,1.0,0.0
5189,72.0,0.0,20.0,2.0,0.0
5190,56.0,0.0,20.0,3.0,0.0
5191,44.0,0.0,20.0,4.0,0.0
5192,72.0,15.0,15.0,5.0,0.0
5193,56.0,3.0,20.0,6.0,0.0
5194,76.0,12.0,15.0,5.0,0.0
5195,77.0,3.0,30.0,0.0,0.0
5196,77.0,9.0,15.0,5.0,0.0
5197,44.0,1.0,20.0,6.0,0.0
5198,79.0,5.0,15.0,5.0,0.0
5199,70.0,0.0,20.0,1.0,0.0
5200,72.0,0.0,20.0,2.0,0.0
5201,55.0,0.0,20.0,3.0,0.0
5202,43.0,0.0,20.0,4.0,0.0
5203,70.0,15.0,15.0,5.0,0.0
5204,43.0,3.0,20.0,6.0,0.0
5205,76.0,12.0,15.0,5.0,0.0
5206,76.0,0.0,20.0,0.0,0.0
5207,77.0,9.0,15.0,5.0,0.0
5208,55.0,1.0,20.0,6.0,0.0
5209,79.0,12.0,15.0,5.0,0.0
5210,77.0,0.0,20.0,0.0,0.0
5211,68.0,0.0,20.0,1.0,0.0
5212,72.0,0.0,20.0,2.0,0.0
5213,53.0,0.0,20.0,3.0,0.0
5214,41.0,0.0,20.0,4.0,0.0
5215,68.0,11.0,15.0,5.0,0.0
5216,53.0,1.0,20.0,6.0,0.0
5217,72.0,23.0,15.0,5.0,0.0
5218,80.0,0.0,20.0,0.0,0.0
5219,72.0,0.0,20.0,1.0,0.0
5220,65.0,0.0,20.0,2.0,0.0
5221,53.0,0.0,20.0,3.0,0.0
5222,41.0,0.0,20.0,4.0,0.0
5223,77.0,14.0,30.0,5.0,0.0
5224,41.0,10.0,20.0,6.0,0.0
5225,82.0,0.0,20.0,0.0,0.0
5226,70.0,0.0,20.0,1.0,0.0
5227,73.0,0.0,20.0,2.0,0.0
5228,55.0,0.0,20.0,3.0,0.0
5229,43.0,0.0,20.0,4.0,0.0
5230,43.0,1.0,20.0,6.0,0.0
5231,78.0,12.0,15.0,5.0,0.0
5232,55.0,0.0,20.0,3.0,0.0
5233,43.0,0.0,20.0,4.0,0.0
5234,77.0,11.0,15.0,5.0,0.0
5235,55.0,1.0,20.0,6.0,0.0
5236,73.0,12.0,15.0,5.0,0.0
5237,84.0,0.0,20.0,0.0,0.0
5238,77.0,0.0,20.0,1.0,0.0
5239,72.0,0.0,20.0,2.0,0.0
5240,57.0,0.0,20.0,3.0,0.0
5241,45.0,0.0,20.0,4.0,0.0
5242,75.0,11.0,15.0,5.0,0.0
5243,57.0,1.0,20.0,6.0,0.0
5244,77.0,12.0,15.0,5.0,0.0
5245,57.0,0.0,20.0,3.0,0.0
5246,45.0,0.0,20.0,4.0,0.0
5247,75.0,11.0,15.0,5.0,0.0
5248,45.0,1.0,20.0,6.0,0.0
5249,72.0,12.0,15.0,5.0,0.0
5250,77.0,0.0,20.0,0.0,0.0
5251,73.0,0.0,20.0,1.0,0.0
5252,70.0,0.0,20.0,2.0,0.0
5253,58.0,0.0,20.0,3.0,0.0
5254,46.0,0.0,20.0,4.0,0.0
5255,73.0,11.0,15.0,5.0,0.0
5256,46.0,1.0,20.0,6.0,0.0
5257,70.0,8.0,15.0,5.0,0.0
5258,79.0,4.0,15.0,5.0,0.0
5259,58.0,12.0,15.0,6.0,0.0
5260,56.0,23.0,15.0,6.0,0.0
5261,79.0,17.0,60.0,5.0,0.0
5262,58.0,24.0,20.0,6.0,0.0
5263,82.0,0.0,20.0,0.0,0.0
5264,76.0,0.0,20.0,1.0,0.0
5265,70.0,0.0,20.0,2.0,0.0
5266,55.0,0.0,20.0,3.0,0.0
5267,43.0,0.0,20.0,4.0,0.0
5268,43.0,7.0,20.0,6.0,0.0
5269,84.0,0.0,20.0,0.0,0.0
5270,72.0,0.0,20.0,1.0,0.0
5271,68.0,0.0,20.0,2.0,0.0
5272,56.0,0.0,20.0,3.0,0.0
5273,44.0,0.0,20.0,4.0,0.0
5274,44.0,3.0,20.0,6.0,0.0
5275,80.0,12.0,15.0,5.0,0.0
5276,56.0,0.0,20.0,3.0,0.0
5277,44.0,0.0,20.0,4.0,0.0
5278,79.0,6.0,15.0,5.0,0.0
5279,56.0,2.0,20.0,6.0,0.0
5280,77.0,3.0,15.0,5.0,0.0
5281,76.0,13.0,15.0,5.0,0.0
5282,85.0,0.0,20.0,0.0,0.0
5283,79.0,0.0,20.0,1.0,0.0
5284,73.0,0.0,20.0,2.0,0.0
5285,58.0,0.0,20.0,3.0,0.0
5286,46.0,0.0,20.0,4.0,0.0
5287,77.0,9.0,15.0,5.0,0.0
5288,58.0,3.0,20.0,6.0,0.0
5289,79.0,12.0,15.0,5.0,0.0
5290,58.0,0.0,20.0,3.0,0.0
5291,46.0,0.0,20.0,4.0,0.0
5292,77.0,6.0,15.0,5.0,0.0
5293,46.0,2.0,20.0,6.0,0.0
5294,76.0,3.0,15.0,5.0,0.0
5295,74.0,11.0,15.0,5.0,0.0
5296,79.0,0.0,20.0,0.0,0.0
5297,76.0,0.0,20.0,1.0,0.0
5298,72.0,0.0,20.0,2.0,0.0
5299,60.0,0.0,20.0,3.0,0.0
5300,48.0,0.0,20.0,4.0,0.0
5301,76.0,11.0,15.0,5.0,0.0
5302,48.0,1.0,20.0,6.0,0.0
5303,72.0,8.0,15.0,5.0,0.0
5304,80.0,4.0,15.0,5.0,0.0
5305,60.0,12.0,15.0,6.0,0.0
5306,58.0,23.0,15.0,6.0,0.0
5307,80.0,17.0,60.0,5.0,0.0
5308,60.0,24.0,20.0,6.0,0.0
5309,84.0,0.0,20.0,0.0,0.0
5310,77.0,0.0,20.0,1.0,0.0
5311,72.0,0.0,20.0,2.0,0.0
5312,56.0,0.0,20.0,3.0,0.0
5313,44.0,0.0,20.0,4.0,0.0
5314,44.0,7.0,20.0,6.0,0.0
5315,85.0,0.0,20.0,0.0,0.0
5316,73.0,0.0,20.0,1.0,0.0
5317,65.0,0.0,20.0,2.0,0.0
5318,58.0,0.0,20.0,3.0,0.0
5319,46.0,0.0,20.0,4.0,0.0
5320,46.0,9.0,20.0,6.0,0.0
5321,82.0,6.0,20.0,5.0,0.0
5322,58.0,0.0,20.0,3.0,0.0
5323,46.0,0.0,20.0,4.0,0.0
5324,58.0,2.0,20.0,6.0,0.0
5325,80.0,6.0,15.0,5.0,0.0
5326,79.0,3.0,15.0,5.0,0.0
5327,77.0,13.0,15.0,5.0,0.0
5328,87.0,0.0,20.0,0.0,0.0
5329,80.0,0.0,20.0,1.0,0.0
5330,63.0,0.0,20.0,2.0,0.0
5331,60.0,0.0,20.0,3.0,0.0
5332,48.0,0.0,20.0,4.0,0.0
5333,78.0,9.0,15.0,5.0,0.0
5334,60.0,9.0,20.0,6.0,0.0
5335,80.0,6.0,20.0,5.0,0.0
5336,60.0,0.0,20.0,3.0,0.0
5337,48.0,0.0,20.0,4.0,0.0
5338,48.0,2.0,20.0,6.0,0.0
5339,78.0,6.0,15.0,5.0,0.0
5340,77.0,3.0,15.0,5.0,0.0
5341,76.0,11.0,15.0,5.0,0.0
5342,80.0,0.0,20.0,0.0,0.0
5343,77.0,0.0,20.0,1.0,0.0
5344,61.0,0.0,20.0,2.0,0.0
5345,61.0,0.0,15.0,3.0,0.0
5346,49.0,9.0,15.0,4.0,0.0
5347,77.0,2.0,15.0,5.0,0.0
5348,49.0,1.0,20.0,6.0,0.0
5349,60.0,0.0,15.0,3.0,0.0
5350,48.0,6.0,15.0,4.0,0.0
5351,81.0,2.0,15.0,5.0,0.0
5352,61.0,0.0,15.0,3.0,0.0
5353,49.0,10.0,15.0,4.0,0.0
5354,82.0,4.0,15.0,5.0,0.0
5355,61.0,2.0,15.0,6.0,0.0
5356,58.0,0.0,15.0,3.0,0.0
5357,46.0,0.0,15.0,4.0,0.0
5358,58.0,12.0,15.0,6.0,0.0
5359,55.0,0.0,15.0,3.0,0.0
5360,43.0,10.0,15.0,4.0,0.0
5361,82.0,17.0,60.0,5.0,0.0
5362,55.0,2.0,15.0,6.0,0.0
5363,53.0,0.0,15.0,3.0,0.0
5364,41.0,10.0,15.0,4.0,0.0
5365,58.0,2.0,15.0,6.0,0.0
5366,85.0,0.0,20.0,0.0,0.0
5367,79.0,0.0,20.0,1.0,0.0
5368,70.0,1.0,20.0,2.0,0.0
5369,55.0,0.0,15.0,3.0,0.0
5370,43.0,9.0,15.0,4.0,0.0
5371,52.0,2.0,15.0,6.0,0.0
5372,52.0,0.0,15.0,3.0,0.0
5373,40.0,0.0,15.0,4.0,0.0
5374,55.0,6.0,15.0,6.0,0.0
5375,85.0,10.0,20.0,0.0,0.0
5376,76.0,0.0,20.0,1.0,0.0
5377,67.0,1.0,20.0,2.0,0.0
5378,48.0,0.0,690.0,3.0,0.0
5379,36.0,0.0,690.0,4.0,0.0
5380,48.0,9.0,690.0,6.0,0.0
5381,84.0,2.0,15.0,5.0,0.0
5382,84.0,1.0,20.0,0.0,0.0
5383,82.0,11.0,15.0,5.0,0.0
5384,79.0,14.0,15.0,5.0,0.0
5385,84.0,0.0,20.0,0.0,0.0
5386,77.0,0.0,20.0,1.0,0.0
5387,72.0,3.0,20.0,2.0,0.0
5388,80.0,9.0,15.0,5.0,0.0
5389,82.0,12.0,15.0,5.0,0.0
5390,82.0,1.0,20.0,0.0,0.0
5391,80.0,9.0,15.0,5.0,0.0
5392,77.0,14.0,15.0,5.0,0.0
5393,82.0,0.0,20.0,0.0,0.0
5394,76.0,0.0,20.0,1.0,0.0
5395,72.0,3.0,20.0,2.0,0.0
5396,79.0,9.0,15.0,5.0,0.0
5397,80.0,12.0,15.0,5.0,0.0
5398,80.0,1.0,20.0,0.0,0.0
5399,79.0,9.0,15.0,5.0,0.0
5400,76.0,14.0,15.0,5.0,0.0
5401,80.0,0.0,20.0,0.0,0.0
5402,72.0,0.0,20.0,1.0,0.0
5403,65.0,3.0,20.0,2.0,0.0
5404,77.0,9.0,15.0,5.0,0.0
5405,79.0,12.0,15.0,5.0,0.0
5406,79.0,1.0,20.0,0.0,0.0
5407,77.0,9.0,15.0,5.0,0.0
5408,74.0,12.0,15.0,5.0,0.0
5409,79.0,0.0,20.0,0.0,0.0
5410,72.0,1.0,20.0,1.0,0.0
5411,72.0,10.0,20.0,2.0,0.0
5412,76.0,11.0,15.0,5.0,0.0
5413,72.0,2.0,15.0,5.0,0.0
5414,70.0,1.0,20.0,2.0,0.0
5415,74.0,11.0,15.0,5.0,0.0
5416,76.0,12.0,15.0,5.0,0.0
5417,68.0,10.0,20.0,2.0,0.0
5418,77.0,12.0,15.0,5.0,0.0
5419,79.0,2.0,15.0,5.0,0.0
5420,80.0,0.0,20.0,0.0,0.0
5421,77.0,0.0,20.0,1.0,0.0
5422,65.0,1.0,20.0,2.0,0.0
5423,80.0,11.0,15.0,5.0,0.0
5424,77.0,12.0,15.0,5.0,0.0
5425,80.0,0.0,20.0,0.0,0.0
5426,77.0,0.0,20.0,1.0,0.0
5427,67.0,10.0,20.0,2.0,0.0
5428,70.0,12.0,15.0,5.0,0.0
5429,74.0,2.0,15.0,5.0,0.0
5430,79.0,0.0,20.0,0.0,0.0
5431,76.0,0.0,20.0,1.0,0.0
5432,70.0,1.0,20.0,2.0,0.0
5433,76.0,11.0,15.0,5.0,0.0
5434,77.0,12.0,15.0,5.0,0.0
5435,64.0,10.0,20.0,2.0,0.0
5436,79.0,12.0,15.0,5.0,0.0
5437,80.0,2.0,15.0,5.0,0.0
5438,82.0,0.0,20.0,0.0,0.0
5439,79.0,0.0,20.0,1.0,0.0
5440,67.0,1.0,20.0,2.0,0.0
5441,82.0,11.0,15.0,5.0,0.0
5442,79.0,12.0,15.0,5.0,0.0
5443,82.0,0.0,20.0,0.0,0.0
5444,79.0,0.0,20.0,1.0,0.0
5445,68.0,10.0,20.0,2.0,0.0
5446,72.0,12.0,15.0,5.0,0.0
5447,76.0,2.0,15.0,5.0,0.0
5448,80.0,0.0,20.0,0.0,0.0
5449,77.0,0.0,20.0,1.0,0.0
5450,72.0,1.0,20.0,2.0,0.0
5451,77.0,11.0,15.0,5.0,0.0
5452,79.0,12.0,15.0,5.0,0.0
5453,65.0,10.0,20.0,2.0,0.0
5454,80.0,12.0,15.0,5.0,0.0
5455,82.0,2.0,15.0,5.0,0.0
5456,84.0,0.0,20.0,0.0,0.0
5457,80.0,0.0,20.0,1.0,0.0
5458,68.0,1.0,20.0,2.0,0.0
5459,84.0,11.0,15.0,5.0,0.0
5460,80.0,12.0,15.0,5.0,0.0
5461,84.0,0.0,20.0,0.0,0.0
5462,80.0,0.0,20.0,1.0,0.0
5463,70.0,10.0,20.0,2.0,0.0
5464,73.0,12.0,15.0,5.0,0.0
5465,77.0,2.0,15.0,5.0,0.0
5466,82.0,0.0,20.0,0.0,0.0
5467,79.0,0.0,20.0,1.0,0.0
5468,73.0,1.0,20.0,2.0,0.0
5469,79.0,11.0,15.0,5.0,0.0
5470,81.0,12.0,15.0,5.0,0.0
5471,67.0,10.0,20.0,2.0,0.0
5472,82.0,12.0,15.0,5.0,0.0
5473,84.0,2.0,15.0,5.0,0.0
5474,85.0,0.0,20.0,0.0,0.0
5475,82.0,0.0,20.0,1.0,0.0
5476,70.0,1.0,20.0,2.0,0.0
5477,85.0,11.0,15.0,5.0,0.0
5478,82.0,5.0,15.0,5.0,0.0
5479,85.0,0.0,15.0,0.0,0.0
5480,82.0,9.0,15.0,1.0,0.0
5481,72.0,1.0,20.0,2.0,0.0
5482,76.0,9.0,15.0,5.0,0.0
5483,82.0,0.0,15.0,0.0,0.0
5484,79.0,2.0,15.0,1.0,0.0
5485,85.0,6.0,15.0,5.0,0.0
5486,84.0,0.0,15.0,0.0,0.0
5487,80.0,6.0,15.0,1.0,0.0
5488,84.0,10.0,15.0,5.0,0.0
5489,82.0,5.0,15.0,5.0,0.0
5490,84.0,0.0,15.0,0.0,0.0
5491,80.0,9.0,15.0,1.0,0.0
5492,72.0,1.0,20.0,2.0,0.0
5493,77.0,9.0,15.0,5.0,0.0
5494,80.0,0.0,15.0,0.0,0.0
5495,77.0,2.0,15.0,1.0,0.0
5496,85.0,6.0,15.0,5.0,0.0
5497,82.0,0.0,15.0,0.0,0.0
5498,79.0,6.0,15.0,1.0,0.0
5499,84.0,10.0,15.0,5.0,0.0
5500,82.0,5.0,15.0,5.0,0.0
5501,82.0,0.0,20.0,0.0,0.0
5502,79.0,0.0,20.0,1.0,0.0
5503,76.0,3.0,20.0,2.0,0.0
5504,79.0,9.0,15.0,5.0,0.0
5505,85.0,10.0,15.0,5.0,0.0
5506,84.0,10.0,15.0,5.0,0.0
5507,50.0,2.0,15.0,6.0,0.0
5508,82.0,0.0,15.0,5.0,0.0
5509,52.0,12.0,15.0,6.0,0.0
5510,80.0,0.0,15.0,5.0,0.0
5511,53.0,12.0,15.0,6.0,0.0
5512,76.0,0.0,15.0,5.0,0.0
5513,55.0,12.0,15.0,6.0,0.0
5514,77.0,0.0,15.0,5.0,0.0
5515,56.0,12.0,15.0,6.0,0.0
5516,85.0,0.0,15.0,5.0,0.0
5517,55.0,12.0,15.0,6.0,0.0
5518,84.0,1.0,20.0,5.0,0.0
5519,56.0,11.0,15.0,6.0,0.0
5520,58.0,12.0,15.0,6.0,0.0
5521,60.0,12.0,15.0,6.0,0.0
5522,59.0,5.0,15.0,6.0,0.0
5523,76.0,0.0,30.0,0.0,0.0
5524,72.0,0.0,20.0,1.0,0.0
5525,60.0,0.0,30.0,2.0,0.0
5526,48.0,0.0,30.0,3.0,0.0
5527,36.0,3.0,30.0,4.0,0.0
5528,82.0,3.0,15.0,5.0,0.0
5529,60.0,3.0,20.0,6.0,0.0
5530,80.0,3.0,15.0,5.0,0.0
5531,82.0,3.0,15.0,5.0,0.0
5532,80.0,3.0,15.0,5.0,0.0
5533,82.0,3.0,15.0,5.0,0.0
5534,80.0,3.0,15.0,5.0,0.0
5535,82.0,0.0,15.0,5.0,0.0
5536,80.0,3.0,15.0,5.0,0.0
5537,70.0,0.0,20.0,1.0,0.0
5538,82.0,8.0,15.0,5.0,0.0
5539,48.0,2.0,20.0,6.0,0.0
5540,80.0,6.0,15.0,5.0,0.0
5541,79.0,1.0,15.0,5.0,0.0
5542,77.0,64.0,15.0,5.0,0.0
5543,77.0,0.0,60.0,0.0,0.0
5544,68.0,0.0,60.0,1.0,0.0
5545,60.0,0.0,60.0,2.0,0.0
5546,53.0,0.0,60.0,3.0,0.0
5547,41.0,0.0,60.0,4.0,0.0
5548,77.0,0.0,60.0,5.0,0.0
5549,53.0,30.0,60.0,6.0,0.0
5550,75.0,0.0,20.0,0.0,0.0
5551,56.0,0.0,20.0,3.0,0.0
5552,44.0,0.0,20.0,4.0,0.0
5553,75.0,0.0,20.0,5.0,0.0
5554,44.0,9.0,20.0,6.0,0.0
5555,80.0,0.0,15.0,0.0,0.0
5556,44.0,0.0,30.0,3.0,0.0
5557,32.0,1.0,30.0,4.0,0.0
5558,80.0,0.0,15.0,5.0,0.0
5559,56.0,6.0,15.0,6.0,0.0
5560,55.0,12.0,15.0,6.0,0.0
5561,79.0,0.0,15.0,0.0,0.0
5562,79.0,12.0,15.0,5.0,0.0
5563,56.0,2.0,30.0,6.0,0.0
5564,80.0,0.0,15.0,0.0,0.0
5565,75.0,1.0,20.0,1.0,0.0
5566,80.0,6.0,15.0,5.0,0.0
5567,84.0,0.0,15.0,0.0,0.0
5568,84.0,12.0,15.0,5.0,0.0
5569,80.0,0.0,15.0,0.0,0.0
5570,72.0,1.0,20.0,1.0,0.0
5571,80.0,11.0,15.0,5.0,0.0
5572,75.0,0.0,15.0,0.0,0.0
5573,75.0,12.0,15.0,5.0,0.0
5574,72.0,0.0,15.0,0.0,0.0
5575,68.0,0.0,20.0,1.0,0.0
5576,75.0,0.0,20.0,2.0,0.0
5577,56.0,0.0,20.0,3.0,0.0
5578,44.0,0.0,20.0,4.0,0.0
5579,72.0,11.0,15.0,5.0,0.0
5580,44.0,1.0,20.0,6.0,0.0
5581,75.0,0.0,15.0,0.0,0.0
5582,75.0,8.0,15.0,5.0,0.0
5583,68.0,0.0,15.0,0.0,0.0
5584,72.0,1.0,20.0,2.0,0.0
5585,44.0,0.0,30.0,3.0,0.0
5586,32.0,1.0,30.0,4.0,0.0
5587,68.0,2.0,15.0,5.0,0.0
5588,56.0,4.0,15.0,6.0,0.0
5589,55.0,9.0,15.0,6.0,0.0
5590,75.0,0.0,15.0,0.0,0.0
5591,75.0,12.0,15.0,5.0,0.0
5592,56.0,2.0,30.0,6.0,0.0
5593,72.0,0.0,15.0,0.0,0.0
5594,75.0,0.0,20.0,1.0,0.0
5595,68.0,1.0,20.0,2.0,0.0
5596,72.0,8.0,15.0,5.0,0.0
5597,75.0,0.0,15.0,0.0,0.0
5598,75.0,12.0,15.0,5.0,0.0
5599,68.0,0.0,15.0,0.0,0.0
5600,72.0,1.0,20.0,1.0,0.0
5601,68.0,11.0,15.0,5.0,0.0
5602,75.0,0.0,15.0,0.0,0.0
5603,75.0,12.0,15.0,5.0,0.0
5604,72.0,0.0,15.0,0.0,0.0
5605,68.0,0.0,20.0,1.0,0.0
5606,75.0,0.0,20.0,2.0,0.0
5607,56.0,0.0,20.0,3.0,0.0
5608,44.0,0.0,20.0,4.0,0.0
5609,72.0,11.0,15.0,5.0,0.0
5610,44.0,1.0,20.0,6.0,0.0
5611,75.0,0.0,15.0,0.0,0.0
5612,75.0,12.0,15.0,5.0,0.0
5613,80.0,9.0,15.0,0.0,0.0
5614,72.0,1.0,20.0,2.0,0.0
5615,44.0,0.0,30.0,3.0,0.0
5616,32.0,0.0,30.0,4.0,0.0
5617,80.0,2.0,15.0,5.0,0.0
5618,56.0,3.0,30.0,6.0,0.0
5619,79.0,10.0,15.0,0.0,0.0
5620,79.0,2.0,15.0,5.0,0.0
5621,80.0,6.0,15.0,0.0,0.0
5622,75.0,0.0,20.0,1.0,0.0
5623,68.0,1.0,20.0,2.0,0.0
5624,80.0,2.0,15.0,5.0,0.0
5625,84.0,0.0,15.0,0.0,0.0
5626,84.0,12.0,15.0,5.0,0.0
5627,80.0,0.0,15.0,0.0,0.0
5628,72.0,1.0,20.0,1.0,0.0
5629,80.0,11.0,15.0,5.0,0.0
5630,75.0,0.0,15.0,0.0,0.0
5631,75.0,12.0,15.0,5.0,0.0
5632,72.0,0.0,15.0,0.0,0.0
5633,68.0,0.0,20.0,1.0,0.0
5634,75.0,0.0,20.0,2.0,0.0
5635,56.0,0.0,20.0,3.0,0.0
5636,44.0,0.0,20.0,4.0,0.0
5637,72.0,11.0,15.0,5.0,0.0
5638,44.0,1.0,20.0,6.0,0.0
5639,75.0,0.0,15.0,0.0,0.0
5640,75.0,12.0,15.0,5.0,0.0
5641,68.0,0.0,15.0,0.0,0.0
5642,72.0,0.0,20.0,2.0,0.0
5643,44.0,0.0,20.0,3.0,0.0
5644,32.0,0.0,20.0,4.0,0.0
5645,68.0,11.0,15.0,5.0,0.0
5646,56.0,1.0,20.0,6.0,0.0
5647,75.0,0.0,15.0,0.0,0.0
5648,75.0,12.0,15.0,5.0,0.0
5649,72.0,0.0,15.0,0.0,0.0
5650,80.0,0.0,20.0,1.0,0.0
5651,75.0,0.0,20.0,2.0,0.0
5652,56.0,0.0,20.0,3.0,0.0
5653,44.0,0.0,20.0,4.0,0.0
5654,72.0,11.0,15.0,5.0,0.0
5655,44.0,1.0,20.0,6.0,0.0
5656,75.0,0.0,15.0,0.0,0.0
5657,75.0,12.0,15.0,5.0,0.0
5658,80.0,0.0,15.0,0.0,0.0
5659,75.0,0.0,20.0,1.0,0.0
5660,63.0,0.0,20.0,2.0,0.0
5661,60.0,0.0,20.0,3.0,0.0
5662,48.0,0.0,20.0,4.0,0.0
5663,80.0,11.0,15.0,5.0,0.0
5664,48.0,1.0,20.0,6.0,0.0
5665,75.0,0.0,15.0,0.0,0.0
5666,75.0,12.0,15.0,5.0,0.0
5667,82.0,0.0,15.0,0.0,0.0
5668,79.0,0.0,20.0,1.0,0.0
5669,75.0,0.0,20.0,2.0,0.0
5670,63.0,0.0,20.0,3.0,0.0
5671,51.0,0.0,20.0,4.0,0.0
5672,82.0,11.0,15.0,5.0,0.0
5673,51.0,1.0,20.0,6.0,0.0
5674,75.0,0.0,15.0,0.0,0.0
5675,75.0,14.0,15.0,5.0,0.0
5676,84.0,9.0,15.0,0.0,0.0
5677,80.0,0.0,20.0,1.0,0.0
5678,75.0,0.0,20.0,2.0,0.0
5679,68.0,0.0,20.0,3.0,0.0
5680,56.0,0.0,20.0,4.0,0.0
5681,84.0,0.0,20.0,5.0,0.0
5682,56.0,9.0,20.0,6.0,0.0
5683,82.0,6.0,15.0,0.0,0.0
5684,82.0,0.0,20.0,1.0,0.0
5685,75.0,0.0,20.0,2.0,0.0
5686,67.0,0.0,20.0,3.0,0.0
5687,55.0,0.0,20.0,4.0,0.0
5688,82.0,6.0,15.0,5.0,0.0
5689,55.0,3.0,20.0,6.0,0.0
5690,84.0,0.0,15.0,0.0,0.0
5691,84.0,3.0,15.0,5.0,0.0
5692,82.0,0.0,15.0,0.0,0.0
5693,82.0,6.0,15.0,5.0,0.0
5694,84.0,0.0,15.0,0.0,0.0
5695,80.0,0.0,20.0,1.0,0.0
5696,68.0,0.0,20.0,2.0,0.0
5697,65.0,0.0,20.0,3.0,0.0
5698,53.0,0.0,20.0,4.0,0.0
5699,84.0,9.0,15.0,5.0,0.0
5700,53.0,1.0,20.0,6.0,0.0
5701,85.0,6.0,15.0,0.0,0.0
5702,85.0,14.0,15.0,5.0,0.0
5703,84.0,9.0,15.0,0.0,0.0
5704,80.0,0.0,20.0,1.0,0.0
5705,72.0,0.0,20.0,2.0,0.0
5706,63.0,0.0,20.0,3.0,0.0
5707,51.0,0.0,20.0,4.0,0.0
5708,84.0,0.0,20.0,5.0,0.0
5709,51.0,9.0,20.0,6.0,0.0
5710,82.0,6.0,15.0,0.0,0.0
5711,79.0,0.0,20.0,1.0,0.0
5712,75.0,0.0,20.0,2.0,0.0
5713,61.0,0.0,20.0,3.0,0.0
5714,49.0,0.0,20.0,4.0,0.0
5715,82.0,0.0,20.0,5.0,0.0
5716,49.0,1.0,20.0,6.0,0.0
5717,84.0,9.0,15.0,0.0,0.0
5718,82.0,23.0,15.0,0.0,0.0
5719,80.0,0.0,20.0,0.0,0.0
5720,80.0,0.0,20.0,1.0,0.0
5721,63.0,0.0,20.0,2.0,0.0
5722,60.0,0.0,20.0,3.0,0.0
5723,48.0,0.0,20.0,4.0,0.0
5724,80.0,0.0,20.0,5.0,0.0
5725,48.0,37.0,20.0,6.0,0.0
5726,87.0,0.0,60.0,0.0,0.0
5727,87.0,17.0,60.0,5.0,0.0
5728,80.0,11.0,15.0,1.0,0.0
5729,75.0,0.0,20.0,2.0,0.0
5730,60.0,0.0,20.0,3.0,0.0
5731,48.0,0.0,20.0,4.0,0.0
5732,60.0,1.0,20.0,6.0,0.0
5733,79.0,6.0,15.0,1.0,0.0
5734,80.0,0.0,20.0,1.0,0.0
5735,72.0,0.0,20.0,2.0,0.0
5736,65.0,0.0,20.0,3.0,0.0
5737,53.0,0.0,20.0,4.0,0.0
5738,65.0,1.0,20.0,6.0,0.0
5739,80.0,0.0,15.0,0.0,0.0
5740,80.0,12.0,15.0,5.0,0.0
5741,79.0,0.0,15.0,0.0,0.0
5742,84.0,0.0,20.0,1.0,0.0
5743,75.0,0.0,20.0,2.0,0.0
5744,63.0,0.0,20.0,3.0,0.0
5745,51.0,0.0,20.0,4.0,0.0
5746,79.0,11.0,15.0,5.0,0.0
5747,63.0,1.0,20.0,6.0,0.0
5748,80.0,0.0,15.0,0.0,0.0
5749,80.0,23.0,15.0,5.0,0.0
5750,82.0,0.0,20.0,0.0,0.0
5751,79.0,0.0,20.0,1.0,0.0
5752,75.0,0.0,20.0,2.0,0.0
5753,61.0,0.0,20.0,3.0,0.0
5754,49.0,0.0,20.0,4.0,0.0
5755,82.0,0.0,20.0,5.0,0.0
5756,61.0,24.0,20.0,6.0,0.0
5757,80.0,0.0,20.0,0.0,0.0
5758,80.0,0.0,20.0,1.0,0.0
5759,63.0,0.0,20.0,2.0,0.0
5760,60.0,0.0,20.0,3.0,0.0
5761,48.0,0.0,20.0,4.0,0.0
5762,80.0,0.0,20.0,5.0,0.0
5763,60.0,13.0,20.0,6.0,0.0
5764,79.0,0.0,15.0,0.0,0.0
5765,73.0,0.0,20.0,1.0,0.0
5766,70.0,0.0,20.0,2.0,0.0
5767,58.0,0.0,20.0,3.0,0.0
5768,46.0,0.0,20.0,4.0,0.0
5769,79.0,11.0,15.0,5.0,0.0
5770,58.0,1.0,20.0,6.0,0.0
5771,80.0,0.0,15.0,0.0,0.0
5772,80.0,12.0,15.0,5.0,0.0
5773,82.0,0.0,15.0,0.0,0.0
5774,77.0,0.0,20.0,1.0,0.0
5775,73.0,0.0,20.0,2.0,0.0
5776,56.0,0.0,20.0,3.0,0.0
5777,44.0,0.0,20.0,4.0,0.0
5778,82.0,11.0,15.0,5.0,0.0
5779,56.0,1.0,20.0,6.0,0.0
5780,79.0,0.0,15.0,0.0,0.0
5781,79.0,5.0,15.0,5.0,0.0
5782,75.0,0.0,15.0,0.0,0.0
5783,70.0,0.0,20.0,1.0,0.0
5784,75.0,0.0,20.0,2.0,0.0
5785,55.0,0.0,20.0,3.0,0.0
5786,43.0,0.0,20.0,4.0,0.0
5787,75.0,18.0,15.0,5.0,0.0
5788,55.0,3.0,20.0,6.0,0.0
5789,85.0,0.0,15.0,0.0,0.0
5790,85.0,12.0,15.0,5.0,0.0
5791,84.0,0.0,15.0,0.0,0.0
5792,79.0,0.0,20.0,1.0,0.0
5793,75.0,0.0,20.0,2.0,0.0
5794,51.0,0.0,20.0,3.0,0.0
5795,39.0,0.0,20.0,4.0,0.0
5796,84.0,9.0,15.0,5.0,0.0
5797,51.0,1.0,20.0,6.0,0.0
5798,82.0,0.0,15.0,0.0,0.0
5799,82.0,5.0,15.0,5.0,0.0
5800,75.0,0.0,15.0,0.0,0.0
5801,80.0,0.0,20.0,1.0,0.0
5802,75.0,0.0,20.0,2.0,0.0
5803,56.0,0.0,20.0,3.0,0.0
5804,44.0,0.0,20.0,4.0,0.0
5805,75.0,18.0,15.0,5.0,0.0
5806,56.0,3.0,20.0,6.0,0.0
5807,84.0,0.0,15.0,0.0,0.0
5808,84.0,12.0,15.0,5.0,0.0
5809,82.0,0.0,15.0,0.0,0.0
5810,82.0,10.0,15.0,5.0,0.0
5811,80.0,0.0,15.0,0.0,0.0
5812,80.0,5.0,15.0,5.0,0.0
5813,75.0,0.0,15.0,0.0,0.0
5814,70.0,0.0,20.0,1.0,0.0
5815,75.0,0.0,20.0,2.0,0.0
5816,55.0,0.0,20.0,3.0,0.0
5817,43.0,0.0,20.0,4.0,0.0
5818,75.0,18.0,15.0,5.0,0.0
5819,55.0,3.0,20.0,6.0,0.0
5820,82.0,0.0,15.0,0.0,0.0
5821,82.0,12.0,15.0,5.0,0.0
5822,80.0,0.0,15.0,0.0,0.0
5823,80.0,10.0,15.0,5.0,0.0
5824,79.0,0.0,15.0,0.0,0.0
5825,79.0,5.0,15.0,5.0,0.0
5826,80.0,0.0,15.0,0.0,0.0
5827,72.0,0.0,20.0,1.0,0.0
5828,77.0,0.0,20.0,2.0,0.0
5829,53.0,0.0,20.0,3.0,0.0
5830,41.0,0.0,20.0,4.0,0.0
5831,80.0,18.0,15.0,5.0,0.0
5832,53.0,3.0,20.0,6.0,0.0
5833,73.0,0.0,15.0,0.0,0.0
5834,73.0,12.0,15.0,5.0,0.0
5835,72.0,0.0,15.0,0.0,0.0
5836,72.0,10.0,15.0,5.0,0.0
5837,70.0,0.0,15.0,0.0,0.0
5838,70.0,5.0,15.0,5.0,0.0
5839,68.0,0.0,15.0,0.0,0.0
5840,75.0,0.0,20.0,1.0,0.0
5841,68.0,0.0,20.0,2.0,0.0
5842,48.0,0.0,20.0,3.0,0.0
5843,36.0,0.0,20.0,4.0,0.0
5844,68.0,18.0,15.0,5.0,0.0
5845,48.0,3.0,20.0,6.0,0.0
5846,78.0,0.0,15.0,0.0,0.0
5847,78.0,12.0,15.0,5.0,0.0
5848,77.0,0.0,15.0,0.0,0.0
5849,72.0,0.0,20.0,1.0,0.0
5850,68.0,5.0,30.0,2.0,0.0
5851,44.0,0.0,20.0,3.0,0.0
5852,32.0,0.0,20.0,4.0,0.0
5853,77.0,9.0,15.0,5.0,0.0
5854,44.0,1.0,20.0,6.0,0.0
5855,75.0,0.0,15.0,0.0,0.0
5856,75.0,9.0,15.0,5.0,0.0
5857,77.0,0.0,15.0,0.0,0.0
5858,73.0,0.0,20.0,1.0,0.0
5859,49.0,0.0,20.0,3.0,0.0
5860,37.0,0.0,20.0,4.0,0.0
5861,77.0,9.0,15.0,5.0,0.0
5862,49.0,1.0,20.0,6.0,0.0
5863,75.0,0.0,15.0,0.0,0.0
5864,66.0,2.0,15.0,2.0,0.0
5865,75.0,10.0,15.0,5.0,0.0
5866,73.0,0.0,15.0,0.0,0.0
5867,68.0,0.0,20.0,1.0,0.0
5868,65.0,2.0,15.0,2.0,0.0
5869,53.0,0.0,20.0,3.0,0.0
5870,41.0,0.0,20.0,4.0,0.0
5871,73.0,9.0,15.0,5.0,0.0
5872,53.0,1.0,20.0,6.0,0.0
5873,72.0,0.0,15.0,0.0,0.0
5874,63.0,0.0,15.0,2.0,0.0
5875,72.0,12.0,15.0,5.0,0.0
5876,70.0,0.0,15.0,0.0,0.0
5877,77.0,0.0,15.0,1.0,0.0
5878,61.0,0.0,20.0,2.0,0.0
5879,58.0,0.0,20.0,3.0,0.0
5880,46.0,0.0,20.0,4.0,0.0
5881,70.0,11.0,15.0,5.0,0.0
5882,58.0,1.0,20.0,6.0,0.0
5883,84.0,0.0,15.0,0.0,0.0
5884,75.0,0.0,15.0,1.0,0.0
5885,84.0,12.0,15.0,5.0,0.0
5886,82.0,0.0,15.0,0.0,0.0
5887,73.0,0.0,15.0,1.0,0.0
5888,70.0,5.0,30.0,2.0,0.0
5889,61.0,0.0,20.0,3.0,0.0
5890,49.0,0.0,20.0,4.0,0.0
5891,82.0,11.0,15.0,5.0,0.0
5892,61.0,1.0,20.0,6.0,0.0
5893,80.0,0.0,15.0,0.0,0.0
5894,72.0,0.0,15.0,1.0,0.0
5895,80.0,9.0,15.0,5.0,0.0
5896,79.0,0.0,15.0,0.0,0.0
5897,70.0,0.0,20.0,1.0,0.0
5898,51.0,0.0,20.0,3.0,0.0
5899,39.0,0.0,20.0,4.0,0.0
5900,79.0,9.0,15.0,5.0,0.0
5901,51.0,1.0,20.0,6.0,0.0
5902,77.0,0.0,15.0,0.0,0.0
5903,68.0,2.0,15.0,2.0,0.0
5904,77.0,10.0,15.0,5.0,0.0
5905,75.0,0.0,15.0,0.0,0.0
5906,79.0,3.0,30.0,1.0,0.0
5907,67.0,2.0,15.0,2.0,0.0
5908,55.0,0.0,20.0,3.0,0.0
5909,43.0,0.0,20.0,4.0,0.0
5910,75.0,9.0,15.0,5.0,0.0
5911,55.0,1.0,20.0,6.0,0.0
5912,73.0,0.0,15.0,0.0,0.0
5913,65.0,0.0,15.0,2.0,0.0
5914,73.0,9.0,15.0,5.0,0.0
5915,72.0,0.0,15.0,0.0,0.0
5916,63.0,0.0,20.0,2.0,0.0
5917,60.0,0.0,20.0,3.0,0.0
5918,48.0,0.0,20.0,4.0,0.0
5919,72.0,11.0,15.0,5.0,0.0
5920,60.0,1.0,20.0,6.0,0.0
5921,85.0,0.0,15.0,0.0,0.0
5922,77.0,0.0,15.0,1.0,0.0
5923,85.0,12.0,15.0,5.0,0.0
5924,84.0,0.0,15.0,0.0,0.0
5925,75.0,0.0,15.0,1.0,0.0
5926,72.0,5.0,30.0,2.0,0.0
5927,63.0,0.0,20.0,3.0,0.0
5928,51.0,0.0,20.0,4.0,0.0
5929,84.0,11.0,15.0,5.0,0.0
5930,63.0,1.0,20.0,6.0,0.0
5931,82.0,0.0,15.0,0.0,0.0
5932,73.0,0.0,15.0,1.0,0.0
5933,82.0,9.0,15.0,5.0,0.0
5934,80.0,0.0,15.0,0.0,0.0
5935,72.0,0.0,20.0,1.0,0.0
5936,53.0,0.0,20.0,3.0,0.0
5937,41.0,0.0,20.0,4.0,0.0
5938,80.0,9.0,15.0,5.0,0.0
5939,53.0,1.0,20.0,6.0,0.0
5940,79.0,0.0,15.0,0.0,0.0
5941,70.0,2.0,15.0,2.0,0.0
5942,79.0,10.0,15.0,5.0,0.0
5943,77.0,0.0,15.0,0.0,0.0
5944,80.0,3.0,30.0,1.0,0.0
5945,68.0,2.0,15.0,2.0,0.0
5946,56.0,0.0,20.0,3.0,0.0
5947,44.0,0.0,20.0,4.0,0.0
5948,77.0,9.0,15.0,5.0,0.0
5949,56.0,1.0,20.0,6.0,0.0
5950,75.0,0.0,15.0,0.0,0.0
5951,67.0,0.0,15.0,2.0,0.0
5952,75.0,9.0,15.0,5.0,0.0
5953,73.0,0.0,15.0,0.0,0.0
5954,65.0,0.0,20.0,2.0,0.0
5955,61.0,0.0,20.0,3.0,0.0
5956,49.0,0.0,20.0,4.0,0.0
5957,73.0,11.0,15.0,5.0,0.0
5958,61.0,1.0,20.0,6.0,0.0
5959,87.0,0.0,15.0,0.0,0.0
5960,79.0,0.0,15.0,1.0,0.0
5961,87.0,12.0,15.0,5.0,0.0
5962,85.0,0.0,15.0,0.0,0.0
5963,77.0,0.0,15.0,1.0,0.0
5964,73.0,3.0,30.0,2.0,0.0
5965,65.0,0.0,20.0,3.0,0.0
5966,53.0,0.0,20.0,4.0,0.0
5967,85.0,11.0,15.0,5.0,0.0
5968,65.0,1.0,20.0,6.0,0.0
5969,84.0,0.0,15.0,0.0,0.0
5970,75.0,0.0,15.0,1.0,0.0
5971,84.0,9.0,15.0,5.0,0.0
5972,82.0,0.0,15.0,0.0,0.0
5973,73.0,2.0,15.0,1.0,0.0
5974,55.0,0.0,20.0,3.0,0.0
5975,43.0,0.0,20.0,4.0,0.0
5976,82.0,9.0,15.0,5.0,0.0
5977,55.0,1.0,20.0,6.0,0.0
5978,80.0,0.0,15.0,0.0,0.0
5979,72.0,0.0,15.0,1.0,0.0
5980,75.0,2.0,15.0,2.0,0.0
5981,80.0,10.0,15.0,5.0,0.0
5982,79.0,0.0,15.0,0.0,0.0
5983,70.0,0.0,15.0,1.0,0.0
5984,73.0,2.0,15.0,2.0,0.0
5985,58.0,0.0,20.0,3.0,0.0
5986,46.0,0.0,20.0,4.0,0.0
5987,79.0,9.0,15.0,5.0,0.0
5988,58.0,1.0,20.0,6.0,0.0
5989,77.0,0.0,15.0,0.0,0.0
5990,68.0,0.0,15.0,1.0,0.0
5991,72.0,0.0,15.0,2.0,0.0
5992,77.0,12.0,15.0,5.0,0.0
5993,75.0,0.0,15.0,0.0,0.0
5994,67.0,0.0,15.0,1.0,0.0
5995,70.0,0.0,20.0,2.0,0.0
5996,63.0,0.0,20.0,3.0,0.0
5997,51.0,0.0,20.0,4.0,0.0
5998,75.0,11.0,15.0,5.0,0.0
5999,63.0,1.0,20.0,6.0,0.0
6000,73.0,0.0,15.0,0.0,0.0
6001,65.0,0.0,15.0,1.0,0.0
6002,73.0,12.0,15.0,5.0,0.0
6003,72.0,0.0,15.0,0.0,0.0
6004,63.0,0.0,15.0,1.0,0.0
6005,68.0,0.0,15.0,2.0,0.0
6006,51.0,0.0,20.0,3.0,0.0
6007,39.0,0.0,20.0,4.0,0.0
6008,72.0,11.0,15.0,5.0,0.0
6009,51.0,1.0,20.0,6.0,0.0
6010,70.0,0.0,15.0,0.0,0.0
6011,61.0,0.0,15.0,1.0,0.0
6012,67.0,0.0,15.0,2.0,0.0
6013,70.0,14.0,15.0,5.0,0.0
6014,68.0,5.0,30.0,0.0,0.0
6015,60.0,0.0,20.0,1.0,0.0
6016,68.0,0.0,20.0,2.0,0.0
6017,53.0,0.0,20.0,3.0,0.0
6018,41.0,0.0,20.0,4.0,0.0
6019,68.0,6.0,15.0,5.0,0.0
6020,53.0,3.0,20.0,6.0,0.0
6021,70.0,3.0,15.0,5.0,0.0
6022,68.0,6.0,15.0,5.0,0.0
6023,68.0,3.0,30.0,1.0,0.0
6024,65.0,0.0,20.0,2.0,0.0
6025,49.0,0.0,20.0,3.0,0.0
6026,37.0,0.0,20.0,4.0,0.0
6027,67.0,1.0,15.0,5.0,0.0
6028,49.0,1.0,20.0,6.0,0.0
6029,68.0,9.0,15.0,5.0,0.0
6030,70.0,0.0,15.0,0.0,0.0
6031,70.0,20.0,15.0,5.0,0.0
6032,70.0,0.0,30.0,0.0,0.0
6033,63.0,0.0,20.0,2.0,0.0
6034,51.0,0.0,20.0,3.0,0.0
6035,39.0,0.0,20.0,4.0,0.0
6036,70.0,14.0,30.0,5.0,0.0
6037,51.0,10.0,20.0,6.0,0.0
6038,67.0,0.0,20.0,1.0,0.0
6039,61.0,0.0,20.0,2.0,0.0
6040,51.0,0.0,20.0,3.0,0.0
6041,39.0,0.0,20.0,4.0,0.0
6042,51.0,1.0,20.0,6.0,0.0
6043,68.0,0.0,15.0,0.0,0.0
6044,68.0,23.0,15.0,5.0,0.0
6045,68.0,0.0,20.0,0.0,0.0
6046,68.0,0.0,20.0,1.0,0.0
6047,60.0,9.0,20.0,2.0,0.0
6048,44.0,0.0,30.0,3.0,0.0
6049,32.0,0.0,30.0,4.0,0.0
6050,68.0,0.0,30.0,5.0,0.0
6051,44.0,3.0,30.0,6.0,0.0
6052,80.0,12.0,15.0,0.0,0.0
6053,75.0,0.0,20.0,1.0,0.0
6054,72.0,9.0,20.0,2.0,0.0
6055,80.0,15.0,15.0,0.0,0.0
6056,75.0,0.0,20.0,1.0,0.0
6057,72.0,9.0,20.0,2.0,0.0
6058,75.0,15.0,15.0,0.0,0.0
6059,72.0,0.0,20.0,1.0,0.0
6060,68.0,0.0,20.0,2.0,0.0
6061,63.0,9.0,20.0,5.0,0.0
6062,75.0,4.0,15.0,0.0,0.0
6063,72.0,0.0,20.0,1.0,0.0
6064,68.0,1.0,20.0,2.0,0.0
6065,68.0,11.0,15.0,5.0,0.0
6066,70.0,8.0,15.0,5.0,0.0
6067,72.0,0.0,15.0,0.0,0.0
6068,68.0,0.0,20.0,1.0,0.0
6069,63.0,9.0,20.0,2.0,0.0
6070,72.0,15.0,15.0,5.0,0.0
6071,72.0,4.0,15.0,0.0,0.0
6072,68.0,0.0,20.0,1.0,0.0
6073,63.0,1.0,20.0,2.0,0.0
6074,72.0,11.0,15.0,5.0,0.0
6075,73.0,8.0,15.0,5.0,0.0
6076,68.0,0.0,15.0,0.0,0.0
6077,63.0,0.0,20.0,1.0,0.0
6078,60.0,13.0,20.0,2.0,0.0
6079,75.0,15.0,15.0,5.0,0.0
6080,68.0,0.0,20.0,0.0,0.0
6081,63.0,0.0,20.0,1.0,0.0
6082,60.0,1.0,20.0,2.0,0.0
6083,75.0,11.0,15.0,5.0,0.0
6084,77.0,8.0,15.0,5.0,0.0
6085,63.0,0.0,20.0,0.0,0.0
6086,60.0,0.0,20.0,1.0,0.0
6087,56.0,24.0,20.0,2.0,0.0
6088,79.0,15.0,15.0,5.0,0.0
6089,63.0,0.0,20.0,0.0,0.0
6090,60.0,0.0,20.0,1.0,0.0
6091,56.0,0.0,20.0,2.0,0.0
6092,80.0,9.0,20.0,5.0,0.0
6093,80.0,6.0,15.0,5.0,0.0
6094,62.0,0.0,20.0,6.0,0.0
6095,53.0,1.0,20.0,6.0,0.0
6096,82.0,9.0,15.0,5.0,0.0
6097,84.0,23.0,15.0,5.0,0.0
6098,82.0,0.0,20.0,5.0,0.0
6099,63.0,14.0,30.0,6.0,0.0
6100,55.0,10.0,20.0,6.0,0.0
6101,80.0,0.0,20.0,5.0,0.0
6102,56.0,1.0,20.0,6.0,0.0
6103,65.0,8.0,15.0,6.0,0.0
6104,79.0,6.0,15.0,5.0,0.0
6105,58.0,1.0,20.0,6.0,0.0
6106,80.0,9.0,15.0,5.0,0.0
6107,79.0,11.0,15.0,5.0,0.0
6108,63.0,12.0,20.0,6.0,0.0
6109,77.0,0.0,20.0,5.0,0.0
6110,56.0,1.0,20.0,6.0,0.0
6111,62.0,14.0,15.0,6.0,0.0
6112,75.0,9.0,15.0,5.0,0.0
6113,63.0,6.0,60.0,6.0,0.0
6114,58.0,0.0,20.0,6.0,0.0
6115,55.0,1.0,20.0,6.0,0.0
6116,74.0,14.0,15.0,5.0,0.0
6117,75.0,9.0,15.0,5.0,0.0
6118,56.0,0.0,20.0,6.0,0.0
6119,53.0,1.0,20.0,6.0,0.0
6120,74.0,12.0,15.0,5.0,0.0
6121,75.0,5.0,15.0,5.0,0.0
6122,58.0,0.0,20.0,6.0,0.0
6123,55.0,1.0,20.0,6.0,0.0
6124,82.0,12.0,15.0,5.0,0.0
6125,84.0,11.0,15.0,5.0,0.0
6126,63.0,0.0,20.0,6.0,0.0
6127,56.0,1.0,20.0,6.0,0.0
6128,80.0,14.0,15.0,5.0,0.0
6129,75.0,9.0,15.0,5.0,0.0
6130,63.0,6.0,60.0,6.0,0.0
6131,58.0,0.0,20.0,6.0,0.0
6132,55.0,1.0,20.0,6.0,0.0
6133,74.0,14.0,15.0,5.0,0.0
6134,75.0,9.0,15.0,5.0,0.0
6135,56.0,0.0,20.0,6.0,0.0
6136,53.0,1.0,20.0,6.0,0.0
6137,74.0,12.0,15.0,5.0,0.0
6138,75.0,5.0,15.0,5.0,0.0
6139,58.0,0.0,20.0,6.0,0.0
6140,55.0,1.0,20.0,6.0,0.0
6141,84.0,12.0,15.0,5.0,0.0
6142,85.0,11.0,15.0,5.0,0.0
6143,58.0,0.0,20.0,6.0,0.0
6144,55.0,0.0,20.0,6.0,0.0
6145,51.0,1.0,20.0,6.0,0.0
6146,82.0,14.0,15.0,5.0,0.0
6147,75.0,9.0,15.0,5.0,0.0
6148,60.0,0.0,20.0,6.0,0.0
6149,56.0,1.0,20.0,6.0,0.0
6150,74.0,14.0,15.0,5.0,0.0
6151,75.0,9.0,15.0,5.0,0.0
6152,58.0,1.0,20.0,6.0,0.0
6153,74.0,12.0,15.0,5.0,0.0
6154,75.0,11.0,15.0,5.0,0.0
6155,60.0,1.0,20.0,6.0,0.0
6156,85.0,12.0,15.0,5.0,0.0
6157,87.0,11.0,15.0,5.0,0.0
6158,68.0,0.0,20.0,6.0,0.0
6159,60.0,0.0,20.0,6.0,0.0
6160,56.0,1.0,20.0,6.0,0.0
6161,84.0,12.0,15.0,5.0,0.0
6162,85.0,11.0,15.0,5.0,0.0
6163,67.0,0.0,20.0,6.0,0.0
6164,58.0,1.0,20.0,6.0,0.0
6165,84.0,12.0,15.0,5.0,0.0
6166,85.0,11.0,15.0,5.0,0.0
6167,56.0,1.0,20.0,6.0,0.0
6168,82.0,7.0,15.0,5.0,0.0
6169,75.0,6.0,15.0,5.0,0.0
6170,55.0,2.0,20.0,6.0,0.0
6171,77.0,6.0,15.0,5.0,0.0
6172,79.0,4.0,15.0,5.0,0.0
6173,80.0,6.0,15.0,5.0,0.0
6174,82.0,6.0,15.0,5.0,0.0
6175,63.0,0.0,20.0,6.0,0.0
6176,58.0,0.0,20.0,6.0,0.0
6177,55.0,0.0,20.0,6.0,0.0
6178,51.0,1.0,20.0,6.0,0.0
6179,84.0,10.0,15.0,5.0,0.0
6180,85.0,12.0,15.0,5.0,0.0
6181,84.0,11.0,15.0,5.0,0.0
6182,63.0,0.0,20.0,6.0,0.0
6183,56.0,1.0,20.0,6.0,0.0
6184,82.0,12.0,15.0,5.0,0.0
6185,84.0,11.0,15.0,5.0,0.0
6186,58.0,1.0,20.0,6.0,0.0
6187,80.0,8.0,15.0,5.0,0.0
6188,75.0,6.0,15.0,5.0,0.0
6189,60.0,3.0,20.0,6.0,0.0
6190,74.0,6.0,15.0,5.0,0.0
6191,75.0,3.0,15.0,5.0,0.0
6192,77.0,6.0,15.0,5.0,0.0
6193,79.0,6.0,15.0,5.0,0.0
6194,68.0,0.0,20.0,6.0,0.0
6195,63.0,0.0,20.0,6.0,0.0
6196,60.0,0.0,20.0,6.0,0.0
6197,56.0,2.0,20.0,6.0,0.0
6198,80.0,6.0,15.0,5.0,0.0
6199,82.0,3.0,15.0,5.0,0.0
6200,84.0,4.0,15.0,5.0,0.0
6201,85.0,12.0,15.0,5.0,0.0
6202,67.0,0.0,20.0,6.0,0.0
6203,58.0,6.0,20.0,6.0,0.0
6204,84.0,6.0,15.0,5.0,0.0
6205,82.0,12.0,15.0,5.0,0.0
6206,63.0,6.0,20.0,6.0,0.0
6207,80.0,6.0,15.0,5.0,0.0
6208,79.0,12.0,15.0,5.0,0.0
6209,51.0,6.0,20.0,6.0,0.0
6210,77.0,6.0,15.0,5.0,0.0
6211,75.0,12.0,15.0,5.0,0.0
6212,63.0,0.0,20.0,6.0,0.0
6213,58.0,0.0,20.0,6.0,0.0
6214,55.0,13.0,20.0,6.0,0.0
6215,73.0,6.0,15.0,5.0,0.0
6216,72.0,11.0,15.0,5.0,0.0
6217,56.0,1.0,20.0,6.0,0.0
6218,68.0,12.0,15.0,5.0,0.0
6219,63.0,11.0,15.0,5.0,0.0
6220,44.0,1.0,20.0,6.0,0.0
6221,60.0,23.0,15.0,5.0,0.0
6222,56.0,1.0,20.0,6.0,0.0
6223,75.0,12.0,15.0,5.0,0.0
6224,80.0,11.0,15.0,5.0,0.0
6225,62.0,0.0,20.0,6.0,0.0
6226,53.0,1.0,20.0,6.0,0.0
6227,84.0,12.0,15.0,5.0,0.0
6228,82.0,12.0,15.0,5.0,0.0
6229,63.0,0.0,30.0,6.0,0.0
6230,55.0,3.0,30.0,6.0,0.0
6231,87.0,12.0,15.0,5.0,0.0
6232,82.0,0.0,20.0,0.0,0.0
6233,79.0,1.0,20.0,1.0,0.0
6234,86.0,8.0,15.0,5.0,0.0
6235,87.0,7.0,15.0,5.0,0.0
6236,80.0,0.0,20.0,0.0,0.0
6237,74.0,2.0,20.0,1.0,0.0
6238,77.0,6.0,15.0,5.0,0.0
6239,79.0,6.0,15.0,5.0,0.0
6240,77.0,4.0,15.0,5.0,0.0
6241,75.0,11.0,15.0,5.0,0.0
6242,79.0,0.0,20.0,0.0,0.0
6243,75.0,0.0,20.0,1.0,0.0
6244,77.0,11.0,15.0,5.0,0.0
6245,58.0,0.0,20.0,6.0,0.0
6246,51.0,1.0,20.0,6.0,0.0
6247,79.0,12.0,15.0,5.0,0.0
6248,80.0,12.0,15.0,5.0,0.0
6249,62.0,0.0,30.0,6.0,0.0
6250,53.0,3.0,30.0,6.0,0.0
6251,87.0,12.0,15.0,5.0,0.0
6252,80.0,0.0,20.0,0.0,0.0
6253,77.0,1.0,20.0,1.0,0.0
6254,86.0,8.0,15.0,5.0,0.0
6255,87.0,7.0,15.0,5.0,0.0
6256,79.0,0.0,20.0,0.0,0.0
6257,72.0,2.0,20.0,1.0,0.0
6258,75.0,6.0,15.0,5.0,0.0
6259,77.0,6.0,15.0,5.0,0.0
6260,75.0,4.0,15.0,5.0,0.0
6261,74.0,11.0,15.0,5.0,0.0
6262,77.0,0.0,20.0,0.0,0.0
6263,74.0,0.0,20.0,1.0,0.0
6264,58.0,0.0,20.0,3.0,0.0
6265,46.0,0.0,20.0,4.0,0.0
6266,75.0,11.0,15.0,5.0,0.0
6267,58.0,1.0,20.0,6.0,0.0
6268,77.0,23.0,15.0,5.0,0.0
6269,63.0,0.0,20.0,3.0,0.0
6270,51.0,0.0,20.0,4.0,0.0
6271,79.0,0.0,20.0,5.0,0.0
6272,63.0,24.0,20.0,6.0,0.0
6273,77.0,0.0,20.0,0.0,0.0
6274,70.0,0.0,20.0,1.0,0.0
6275,65.0,0.0,20.0,2.0,0.0
6276,62.0,0.0,20.0,3.0,0.0
6277,50.0,0.0,20.0,4.0,0.0
6278,77.0,0.0,20.0,5.0,0.0
6279,62.0,8.0,20.0,6.0,0.0
6280,75.0,0.0,20.0,0.0,0.0
6281,63.0,0.0,20.0,1.0,0.0
6282,68.0,0.0,20.0,2.0,0.0
6283,60.0,0.0,20.0,3.0,0.0
6284,48.0,0.0,20.0,4.0,0.0
6285,77.0,6.0,15.0,5.0,0.0
6286,60.0,1.0,20.0,6.0,0.0
6287,79.0,10.0,15.0,5.0,0.0
6288,80.0,8.0,15.0,5.0,0.0
6289,75.0,0.0,20.0,0.0,0.0
6290,70.0,0.0,20.0,1.0,0.0
6291,70.0,0.0,20.0,2.0,0.0
6292,58.0,0.0,20.0,3.0,0.0
6293,46.0,0.0,20.0,4.0,0.0
6294,79.0,15.0,15.0,5.0,0.0
6295,58.0,9.0,20.0,6.0,0.0
6296,74.0,0.0,20.0,0.0,0.0
6297,70.0,0.0,20.0,1.0,0.0
6298,58.0,0.0,20.0,2.0,0.0
6299,56.0,0.0,20.0,3.0,0.0
6300,44.0,0.0,20.0,4.0,0.0
6301,77.0,6.0,15.0,5.0,0.0
6302,56.0,1.0,20.0,6.0,0.0
6303,79.0,9.0,15.0,5.0,0.0
6304,77.0,12.0,15.0,5.0,0.0
6305,75.0,0.0,20.0,0.0,0.0
6306,70.0,0.0,20.0,1.0,0.0
6307,63.0,0.0,20.0,2.0,0.0
6308,55.0,0.0,20.0,3.0,0.0
6309,43.0,0.0,20.0,4.0,0.0
6310,75.0,1.0,20.0,5.0,0.0
6311,55.0,11.0,15.0,6.0,0.0
6312,58.0,8.0,15.0,6.0,0.0
6313,84.0,4.0,15.0,5.0,0.0
6314,63.0,2.0,15.0,6.0,0.0
6315,82.0,10.0,15.0,5.0,0.0
6316,84.0,4.0,30.0,5.0,0.0
6317,54.0,12.0,15.0,6.0,0.0
6318,82.0,0.0,20.0,0.0,0.0
6319,70.0,0.0,20.0,1.0,0.0
6320,75.0,0.0,20.0,2.0,0.0
6321,54.0,0.0,20.0,3.0,0.0
6322,42.0,1.0,20.0,4.0,0.0
6323,63.0,11.0,15.0,6.0,0.0
6324,54.0,8.0,15.0,6.0,0.0
6325,81.0,0.0,90.0,0.0,0.0
6326,77.0,0.0,90.0,1.0,0.0
6327,75.0,9.0,90.0,2.0,0.0
6328,53.0,0.0,20.0,3.0,0.0
6329,41.0,1.0,20.0,4.0,0.0
6330,53.0,11.0,15.0,6.0,0.0
6331,82.0,0.0,15.0,5.0,0.0
6332,61.0,12.0,15.0,6.0,0.0
6333,60.0,0.0,20.0,3.0,0.0
6334,48.0,1.0,20.0,4.0,0.0
6335,81.0,0.0,15.0,5.0,0.0
6336,60.0,11.0,15.0,6.0,0.0
6337,82.0,0.0,15.0,5.0,0.0
6338,58.0,12.0,15.0,6.0,0.0
6339,57.0,0.0,20.0,3.0,0.0
6340,45.0,1.0,20.0,4.0,0.0
6341,84.0,0.0,15.0,5.0,0.0
6342,57.0,11.0,15.0,6.0,0.0
6343,75.0,0.0,15.0,5.0,0.0
6344,55.0,12.0,15.0,6.0,0.0
6345,53.0,0.0,20.0,3.0,0.0
6346,41.0,1.0,20.0,4.0,0.0
6347,74.0,0.0,15.0,5.0,0.0
6348,53.0,2.0,15.0,6.0,0.0
6349,75.0,0.0,15.0,5.0,0.0
6350,55.0,12.0,15.0,6.0,0.0
6351,82.0,0.0,30.0,0.0,0.0
6352,77.0,0.0,30.0,1.0,0.0
6353,74.0,0.0,30.0,2.0,0.0
6354,56.0,0.0,30.0,3.0,0.0
6355,44.0,4.0,30.0,4.0,0.0
6356,74.0,0.0,15.0,5.0,0.0
6357,56.0,12.0,15.0,6.0,0.0
6358,77.0,0.0,15.0,5.0,0.0
6359,62.0,12.0,15.0,6.0,0.0
6360,80.0,0.0,15.0,5.0,0.0
6361,65.0,8.0,15.0,6.0,0.0
6362,84.0,0.0,15.0,5.0,0.0
6363,68.0,12.0,15.0,6.0,0.0
6364,82.0,6.0,60.0,5.0,0.0
6365,62.0,12.0,15.0,6.0,0.0
6366,65.0,12.0,15.0,6.0,0.0
6367,86.0,0.0,20.0,0.0,0.0
6368,82.0,0.0,20.0,1.0,0.0
6369,77.0,0.0,20.0,2.0,0.0
6370,56.0,0.0,20.0,3.0,0.0
6371,44.0,1.0,20.0,4.0,0.0
6372,58.0,11.0,15.0,6.0,0.0
6373,56.0,17.0,15.0,6.0,0.0
6374,87.0,0.0,20.0,0.0,0.0
6375,82.0,0.0,20.0,1.0,0.0
6376,70.0,0.0,20.0,2.0,0.0
6377,55.0,0.0,20.0,3.0,0.0
6378,43.0,0.0,20.0,4.0,0.0
6379,55.0,24.0,20.0,6.0,0.0
6380,75.0,0.0,20.0,5.0,0.0
6381,60.0,13.0,20.0,6.0,0.0
6382,79.0,11.0,15.0,5.0,0.0
6383,56.0,1.0,20.0,6.0,0.0
6384,77.0,12.0,15.0,5.0,0.0
6385,75.0,11.0,15.0,5.0,0.0
6386,58.0,1.0,20.0,6.0,0.0
6387,74.0,23.0,15.0,5.0,0.0
6388,75.0,3.0,30.0,5.0,0.0
6389,51.0,13.0,20.0,6.0,0.0
6390,75.0,0.0,15.0,0.0,0.0
6391,70.0,1.0,20.0,1.0,0.0
6392,67.0,0.0,15.0,2.0,0.0
6393,63.0,0.0,15.0,3.0,0.0
6394,51.0,0.0,15.0,4.0,0.0
6395,63.0,8.0,15.0,6.0,0.0
6396,77.0,0.0,15.0,0.0,0.0
6397,68.0,0.0,15.0,2.0,0.0
6398,61.0,0.0,15.0,3.0,0.0
6399,49.0,0.0,15.0,4.0,0.0
6400,61.0,12.0,15.0,6.0,0.0
6401,79.0,0.0,15.0,0.0,0.0
6402,75.0,0.0,20.0,1.0,0.0
6403,70.0,11.0,15.0,2.0,0.0
6404,60.0,0.0,20.0,3.0,0.0
6405,48.0,0.0,20.0,4.0,0.0
6406,60.0,1.0,20.0,6.0,0.0
6407,80.0,0.0,15.0,0.0,0.0
6408,72.0,0.0,15.0,2.0,0.0
6409,63.0,12.0,15.0,5.0,0.0
6410,82.0,0.0,15.0,0.0,0.0
6411,79.0,0.0,20.0,1.0,0.0
6412,73.0,0.0,15.0,2.0,0.0
6413,58.0,0.0,20.0,3.0,0.0
6414,46.0,0.0,20.0,4.0,0.0
6415,61.0,11.0,15.0,5.0,0.0
6416,58.0,1.0,20.0,6.0,0.0
6417,79.0,0.0,15.0,0.0,0.0
6418,70.0,0.0,15.0,2.0,0.0
6419,63.0,12.0,15.0,5.0,0.0
6420,80.0,9.0,15.0,0.0,0.0
6421,72.0,0.0,20.0,1.0,0.0
6422,75.0,0.0,20.0,2.0,0.0
6423,60.0,0.0,20.0,3.0,0.0
6424,48.0,1.0,20.0,4.0,0.0
6425,68.0,0.0,15.0,5.0,0.0
6426,60.0,2.0,15.0,6.0,0.0
6427,79.0,6.0,15.0,0.0,0.0
6428,70.0,0.0,15.0,5.0,0.0
6429,61.0,2.0,15.0,6.0,0.0
6430,80.0,9.0,15.0,0.0,0.0
6431,68.0,0.0,20.0,1.0,0.0
6432,72.0,0.0,20.0,2.0,0.0
6433,72.0,6.0,15.0,5.0,0.0
6434,63.0,1.0,20.0,6.0,0.0
6435,84.0,12.0,15.0,0.0,0.0
6436,80.0,0.0,15.0,0.0,0.0
6437,68.0,0.0,20.0,1.0,0.0
6438,72.0,1.0,20.0,2.0,0.0
6439,72.0,0.0,15.0,5.0,0.0
6440,56.0,11.0,15.0,6.0,0.0
6441,75.0,0.0,15.0,0.0,0.0
6442,73.0,0.0,15.0,5.0,0.0
6443,58.0,8.0,15.0,6.0,0.0
6444,72.0,11.0,15.0,0.0,0.0
6445,63.0,0.0,20.0,1.0,0.0
6446,68.0,0.0,20.0,2.0,0.0
6447,75.0,4.0,15.0,5.0,0.0
6448,60.0,1.0,20.0,6.0,0.0
6449,75.0,12.0,15.0,0.0,0.0
6450,68.0,0.0,15.0,0.0,0.0
6451,63.0,0.0,20.0,1.0,0.0
6452,68.0,1.0,20.0,2.0,0.0
6453,75.0,0.0,15.0,5.0,0.0
6454,60.0,11.0,15.0,6.0,0.0
6455,75.0,0.0,15.0,0.0,0.0
6456,77.0,0.0,15.0,5.0,0.0
6457,61.0,8.0,15.0,6.0,0.0
6458,72.0,0.0,15.0,0.0,0.0
6459,63.0,0.0,20.0,1.0,0.0
6460,60.0,1.0,20.0,2.0,0.0
6461,63.0,0.0,15.0,3.0,0.0
6462,51.0,0.0,15.0,4.0,0.0
6463,79.0,4.0,15.0,5.0,0.0
6464,63.0,11.0,15.0,6.0,0.0
6465,75.0,0.0,15.0,0.0,0.0
6466,61.0,0.0,15.0,3.0,0.0
6467,49.0,0.0,15.0,4.0,0.0
6468,61.0,12.0,15.0,6.0,0.0
6469,68.0,0.0,15.0,0.0,0.0
6470,63.0,0.0,20.0,1.0,0.0
6471,60.0,0.0,20.0,2.0,0.0
6472,60.0,0.0,15.0,3.0,0.0
6473,48.0,0.0,15.0,4.0,0.0
6474,80.0,1.0,20.0,5.0,0.0
6475,60.0,11.0,15.0,6.0,0.0
6476,75.0,0.0,15.0,0.0,0.0
6477,58.0,0.0,15.0,3.0,0.0
6478,46.0,0.0,15.0,4.0,0.0
6479,58.0,12.0,15.0,6.0,0.0
6480,72.0,0.0,15.0,0.0,0.0
6481,56.0,0.0,15.0,3.0,0.0
6482,44.0,0.0,15.0,4.0,0.0
6483,80.0,0.0,15.0,5.0,0.0
6484,56.0,12.0,15.0,6.0,0.0
6485,75.0,0.0,15.0,0.0,0.0
6486,55.0,0.0,15.0,3.0,0.0
6487,43.0,0.0,15.0,4.0,0.0
6488,82.0,0.0,15.0,5.0,0.0
6489,55.0,7.0,15.0,6.0,0.0
6490,80.0,1.0,15.0,0.0,0.0
6491,56.0,0.0,20.0,3.0,0.0
6492,44.0,0.0,20.0,4.0,0.0
6493,84.0,5.0,15.0,5.0,0.0
6494,56.0,1.0,20.0,6.0,0.0
6495,85.0,6.0,15.0,5.0,0.0
6496,79.0,1.0,15.0,0.0,0.0
6497,84.0,4.0,15.0,5.0,0.0
6498,82.0,11.0,15.0,5.0,0.0
6499,80.0,0.0,15.0,0.0,0.0
6500,84.0,11.0,15.0,5.0,0.0
6501,51.0,1.0,20.0,6.0,0.0
6502,84.0,0.0,15.0,0.0,0.0
6503,79.0,12.0,15.0,5.0,0.0
6504,80.0,0.0,15.0,0.0,0.0
6505,80.0,11.0,15.0,5.0,0.0
6506,53.0,1.0,20.0,6.0,0.0
6507,75.0,0.0,15.0,0.0,0.0
6508,84.0,12.0,15.0,5.0,0.0
6509,72.0,0.0,15.0,0.0,0.0
6510,87.0,11.0,15.0,5.0,0.0
6511,55.0,1.0,20.0,6.0,0.0
6512,75.0,0.0,15.0,0.0,0.0
6513,82.0,12.0,15.0,5.0,0.0
6514,68.0,0.0,15.0,0.0,0.0
6515,85.0,11.0,15.0,5.0,0.0
6516,56.0,1.0,20.0,6.0,0.0
6517,75.0,0.0,15.0,0.0,0.0
6518,84.0,12.0,15.0,5.0,0.0
6519,72.0,0.0,15.0,0.0,0.0
6520,82.0,11.0,15.0,5.0,0.0
6521,51.0,1.0,20.0,6.0,0.0
6522,75.0,11.0,15.0,0.0,0.0
6523,80.0,1.0,20.0,5.0,0.0
6524,80.0,11.0,15.0,0.0,0.0
6525,48.0,1.0,20.0,6.0,0.0
6526,75.0,0.0,15.0,0.0,0.0
6527,84.0,12.0,15.0,5.0,0.0
6528,82.0,0.0,15.0,0.0,0.0
6529,79.0,0.0,20.0,1.0,0.0
6530,75.0,0.0,20.0,2.0,0.0
6531,63.0,0.0,20.0,3.0,0.0
6532,51.0,0.0,20.0,4.0,0.0
6533,82.0,11.0,15.0,5.0,0.0
6534,51.0,1.0,20.0,6.0,0.0
6535,75.0,0.0,15.0,0.0,0.0
6536,85.0,8.0,15.0,5.0,0.0
6537,84.0,0.0,20.0,0.0,0.0
6538,80.0,0.0,20.0,1.0,0.0
6539,75.0,0.0,20.0,2.0,0.0
6540,68.0,0.0,20.0,3.0,0.0
6541,56.0,0.0,20.0,4.0,0.0
6542,84.0,15.0,15.0,5.0,0.0
6543,56.0,6.0,20.0,6.0,0.0
6544,82.0,0.0,20.0,0.0,0.0
6545,82.0,0.0,20.0,1.0,0.0
6546,75.0,0.0,20.0,2.0,0.0
6547,67.0,0.0,20.0,3.0,0.0
6548,55.0,0.0,20.0,4.0,0.0
6549,82.0,15.0,15.0,5.0,0.0
6550,55.0,3.0,20.0,6.0,0.0
6551,84.0,3.0,15.0,5.0,0.0
6552,82.0,6.0,15.0,5.0,0.0
6553,85.0,0.0,20.0,0.0,0.0
6554,80.0,0.0,20.0,1.0,0.0
6555,68.0,0.0,20.0,2.0,0.0
6556,65.0,0.0,20.0,3.0,0.0
6557,53.0,0.0,20.0,4.0,0.0
6558,84.0,4.0,15.0,5.0,0.0
6559,53.0,9.0,20.0,6.0,0.0
6560,85.0,11.0,15.0,5.0,0.0
6561,84.0,0.0,20.0,0.0,0.0
6562,80.0,0.0,20.0,1.0,0.0
6563,72.0,0.0,20.0,2.0,0.0
6564,63.0,0.0,20.0,3.0,0.0
6565,51.0,0.0,20.0,4.0,0.0
6566,84.0,15.0,15.0,5.0,0.0
6567,51.0,9.0,20.0,6.0,0.0
6568,82.0,0.0,20.0,0.0,0.0
6569,79.0,0.0,20.0,1.0,0.0
6570,75.0,0.0,20.0,2.0,0.0
6571,61.0,0.0,20.0,3.0,0.0
6572,49.0,0.0,20.0,4.0,0.0
6573,82.0,6.0,15.0,5.0,0.0
6574,49.0,1.0,20.0,6.0,0.0
6575,84.0,9.0,15.0,5.0,0.0
6576,82.0,23.0,15.0,5.0,0.0
6577,80.0,0.0,20.0,0.0,0.0
6578,80.0,0.0,20.0,1.0,0.0
6579,63.0,0.0,20.0,2.0,0.0
6580,60.0,0.0,20.0,3.0,0.0
6581,48.0,0.0,20.0,4.0,0.0
6582,80.0,0.0,20.0,5.0,0.0
6583,48.0,37.0,20.0,6.0,0.0
6584,87.0,0.0,60.0,0.0,0.0
6585,87.0,17.0,60.0,5.0,0.0
6586,80.0,11.0,15.0,1.0,0.0
6587,75.0,0.0,20.0,2.0,0.0
6588,60.0,0.0,20.0,3.0,0.0
6589,48.0,0.0,20.0,4.0,0.0
6590,60.0,1.0,20.0,6.0,0.0
6591,79.0,6.0,15.0,1.0,0.0
6592,80.0,0.0,20.0,1.0,0.0
6593,72.0,0.0,20.0,2.0,0.0
6594,65.0,0.0,20.0,3.0,0.0
6595,53.0,0.0,20.0,4.0,0.0
6596,65.0,1.0,20.0,6.0,0.0
6597,80.0,0.0,15.0,0.0,0.0
6598,80.0,12.0,15.0,5.0,0.0
6599,79.0,0.0,15.0,0.0,0.0
6600,84.0,0.0,20.0,1.0,0.0
6601,75.0,0.0,20.0,2.0,0.0
6602,63.0,0.0,20.0,3.0,0.0
6603,51.0,0.0,20.0,4.0,0.0
6604,79.0,11.0,15.0,5.0,0.0
6605,63.0,1.0,20.0,6.0,0.0
6606,80.0,0.0,15.0,0.0,0.0
6607,80.0,12.0,15.0,5.0,0.0
6608,82.0,0.0,20.0,0.0,0.0
6609,79.0,0.0,20.0,1.0,0.0
6610,75.0,0.0,20.0,2.0,0.0
6611,61.0,0.0,20.0,3.0,0.0
6612,49.0,0.0,20.0,4.0,0.0
6613,82.0,11.0,15.0,5.0,0.0
6614,61.0,1.0,20.0,6.0,0.0
6615,84.0,8.0,15.0,5.0,0.0
6616,80.0,0.0,20.0,0.0,0.0
6617,80.0,0.0,20.0,1.0,0.0
6618,63.0,0.0,20.0,2.0,0.0
6619,60.0,0.0,20.0,3.0,0.0
6620,48.0,0.0,20.0,4.0,0.0
6621,85.0,5.0,15.0,5.0,0.0
6622,60.0,2.0,20.0,6.0,0.0
6623,84.0,6.0,15.0,5.0,0.0
6624,82.0,4.0,15.0,5.0,0.0
6625,84.0,11.0,15.0,5.0,0.0
6626,79.0,11.0,15.0,0.0,0.0
6627,73.0,0.0,20.0,1.0,0.0
6628,70.0,0.0,20.0,2.0,0.0
6629,58.0,0.0,20.0,3.0,0.0
6630,46.0,0.0,20.0,4.0,0.0
6631,85.0,6.0,60.0,5.0,0.0
6632,58.0,1.0,20.0,6.0,0.0
6633,80.0,12.0,15.0,0.0,0.0
6634,82.0,11.0,15.0,0.0,0.0
6635,77.0,0.0,20.0,1.0,0.0
6636,73.0,0.0,20.0,2.0,0.0
6637,56.0,0.0,20.0,3.0,0.0
6638,44.0,0.0,20.0,4.0,0.0
6639,56.0,1.0,20.0,6.0,0.0
6640,79.0,6.0,15.0,0.0,0.0
6641,75.0,11.0,15.0,0.0,0.0
6642,70.0,0.0,20.0,1.0,0.0
6643,75.0,0.0,20.0,2.0,0.0
6644,55.0,0.0,20.0,3.0,0.0
6645,43.0,0.0,20.0,4.0,0.0
6646,55.0,1.0,20.0,6.0,0.0
6647,85.0,0.0,15.0,0.0,0.0
6648,79.0,12.0,15.0,5.0,0.0
6649,84.0,0.0,15.0,0.0,0.0
6650,75.0,0.0,20.0,1.0,0.0
6651,67.0,0.0,20.0,2.0,0.0
6652,51.0,0.0,20.0,3.0,0.0
6653,39.0,0.0,20.0,4.0,0.0
6654,80.0,11.0,15.0,5.0,0.0
6655,51.0,1.0,20.0,6.0,0.0
6656,82.0,0.0,15.0,0.0,0.0
6657,82.0,12.0,15.0,5.0,0.0
6658,84.0,0.0,20.0,0.0,0.0
6659,75.0,0.0,20.0,1.0,0.0
6660,68.0,0.0,20.0,2.0,0.0
6661,56.0,0.0,20.0,3.0,0.0
6662,44.0,0.0,20.0,4.0,0.0
6663,75.0,11.0,15.0,5.0,0.0
6664,56.0,3.0,20.0,6.0,0.0
6665,84.0,12.0,15.0,5.0,0.0
6666,82.0,9.0,15.0,5.0,0.0
6667,63.0,1.0,20.0,6.0,0.0
6668,80.0,12.0,15.0,5.0,0.0
6669,82.0,0.0,20.0,0.0,0.0
6670,75.0,0.0,20.0,1.0,0.0
6671,70.0,0.0,20.0,2.0,0.0
6672,55.0,0.0,20.0,3.0,0.0
6673,43.0,0.0,20.0,4.0,0.0
6674,75.0,11.0,15.0,5.0,0.0
6675,55.0,3.0,20.0,6.0,0.0
6676,82.0,12.0,15.0,5.0,0.0
6677,80.0,9.0,15.0,5.0,0.0
6678,63.0,1.0,20.0,6.0,0.0
6679,79.0,12.0,15.0,5.0,0.0
6680,80.0,0.0,20.0,0.0,0.0
6681,77.0,0.0,20.0,1.0,0.0
6682,72.0,0.0,20.0,2.0,0.0
6683,53.0,0.0,20.0,3.0,0.0
6684,41.0,0.0,20.0,4.0,0.0
6685,80.0,11.0,15.0,5.0,0.0
6686,53.0,3.0,20.0,6.0,0.0
6687,73.0,12.0,15.0,5.0,0.0
6688,72.0,9.0,15.0,5.0,0.0
6689,56.0,1.0,20.0,6.0,0.0
6690,70.0,12.0,15.0,5.0,0.0
6691,78.0,0.0,20.0,0.0,0.0
6692,75.0,0.0,20.0,1.0,0.0
6693,68.0,0.0,20.0,2.0,0.0
6694,48.0,0.0,20.0,3.0,0.0
6695,36.0,0.0,20.0,4.0,0.0
6696,68.0,11.0,15.0,5.0,0.0
6697,48.0,3.0,20.0,6.0,0.0
6698,78.0,12.0,15.0,5.0,0.0
6699,77.0,9.0,15.0,5.0,0.0
6700,56.0,1.0,20.0,6.0,0.0
6701,75.0,14.0,15.0,5.0,0.0
6702,77.0,0.0,20.0,0.0,0.0
6703,73.0,0.0,20.0,1.0,0.0
6704,68.0,0.0,20.0,2.0,0.0
6705,49.0,0.0,20.0,3.0,0.0
6706,37.0,0.0,20.0,4.0,0.0
6707,77.0,9.0,15.0,5.0,0.0
6708,49.0,3.0,20.0,6.0,0.0
6709,75.0,12.0,15.0,5.0,0.0
6710,73.0,9.0,15.0,5.0,0.0
6711,56.0,1.0,20.0,6.0,0.0
6712,72.0,12.0,15.0,5.0,0.0
6713,79.0,0.0,20.0,0.0,0.0
6714,73.0,0.0,20.0,1.0,0.0
6715,63.0,0.0,20.0,2.0,0.0
6716,51.0,0.0,20.0,3.0,0.0
6717,39.0,0.0,20.0,4.0,0.0
6718,70.0,11.0,15.0,5.0,0.0
6719,51.0,1.0,20.0,6.0,0.0
6720,77.0,12.0,15.0,5.0,0.0
6721,75.0,11.0,15.0,5.0,0.0
6722,55.0,1.0,20.0,6.0,0.0
6723,73.0,12.0,15.0,5.0,0.0
6724,80.0,0.0,20.0,0.0,0.0
6725,72.0,0.0,20.0,1.0,0.0
6726,63.0,0.0,20.0,2.0,0.0
6727,44.0,0.0,20.0,3.0,0.0
6728,32.0,0.0,20.0,4.0,0.0
6729,72.0,11.0,15.0,5.0,0.0
6730,44.0,1.0,20.0,6.0,0.0
6731,73.0,12.0,15.0,5.0,0.0
6732,75.0,12.0,15.0,5.0,0.0
6733,56.0,14.0,30.0,6.0,0.0
6734,72.0,9.0,15.0,5.0,0.0
6735,68.0,1.0,20.0,5.0,0.0
6736,58.0,8.0,15.0,6.0,0.0
6737,80.0,4.0,15.0,5.0,0.0
6738,60.0,12.0,15.0,6.0,0.0
6739,56.0,12.0,15.0,6.0,0.0
6740,80.0,0.0,15.0,5.0,0.0
6741,53.0,12.0,15.0,6.0,0.0
6742,79.0,0.0,15.0,5.0,0.0
6743,58.0,8.0,15.0,6.0,0.0
6744,77.0,4.0,15.0,5.0,0.0
6745,56.0,12.0,15.0,6.0,0.0
6746,55.0,12.0,15.0,6.0,0.0
6747,77.0,0.0,15.0,5.0,0.0
6748,56.0,12.0,15.0,6.0,0.0
6749,75.0,0.0,15.0,5.0,0.0
6750,67.0,8.0,15.0,6.0,0.0
6751,74.0,4.0,15.0,5.0,0.0
6752,65.0,12.0,15.0,6.0,0.0
6753,63.0,12.0,15.0,6.0,0.0
6754,74.0,11.0,15.0,5.0,0.0
6755,65.0,1.0,20.0,6.0,0.0
6756,77.0,8.0,15.0,5.0,0.0
6757,77.0,0.0,20.0,0.0,0.0
6758,74.0,0.0,20.0,1.0,0.0
6759,70.0,0.0,20.0,2.0,0.0
6760,56.0,0.0,20.0,3.0,0.0
6761,44.0,0.0,20.0,4.0,0.0
6762,82.0,15.0,15.0,5.0,0.0
6763,56.0,9.0,20.0,6.0,0.0
6764,77.0,0.0,20.0,0.0,0.0
6765,74.0,0.0,20.0,1.0,0.0
6766,70.0,0.0,20.0,2.0,0.0
6767,56.0,0.0,20.0,3.0,0.0
6768,44.0,24.0,20.0,4.0,0.0
6769,82.0,6.0,15.0,5.0,0.0
6770,80.0,9.0,15.0,5.0,0.0
6771,82.0,4.0,30.0,5.0,0.0
6772,74.0,0.0,20.0,0.0,0.0
6773,70.0,0.0,20.0,1.0,0.0
6774,65.0,0.0,20.0,2.0,0.0
6775,56.0,0.0,20.0,3.0,0.0
6776,44.0,0.0,20.0,4.0,0.0
6777,56.0,9.0,20.0,6.0,0.0
6778,75.0,0.0,30.0,0.0,0.0
6779,70.0,0.0,30.0,1.0,0.0
6780,67.0,0.0,30.0,2.0,0.0
6781,55.0,0.0,30.0,3.0,0.0
6782,43.0,4.0,30.0,4.0,0.0
6783,55.0,12.0,15.0,6.0,0.0
6784,84.0,0.0,15.0,5.0,0.0
6785,51.0,12.0,15.0,6.0,0.0
6786,82.0,0.0,15.0,5.0,0.0
6787,55.0,7.0,15.0,6.0,0.0
6788,80.0,1.0,15.0,5.0,0.0
6789,58.0,1.0,15.0,6.0,0.0
6790,79.0,11.0,15.0,5.0,0.0
6791,79.0,0.0,15.0,5.0,0.0
6792,63.0,12.0,15.0,6.0,0.0
6793,80.0,0.0,15.0,5.0,0.0
6794,58.0,12.0,15.0,6.0,0.0
6795,79.0,0.0,15.0,5.0,0.0
6796,63.0,7.0,15.0,6.0,0.0
6797,77.0,5.0,15.0,5.0,0.0
6798,65.0,1.0,15.0,6.0,0.0
6799,75.0,11.0,15.0,5.0,0.0
6800,75.0,11.0,15.0,5.0,0.0
6801,67.0,1.0,20.0,6.0,0.0
6802,79.0,8.0,15.0,5.0,0.0
6803,79.0,0.0,20.0,0.0,0.0
6804,75.0,0.0,20.0,1.0,0.0
6805,72.0,0.0,20.0,2.0,0.0
6806,58.0,0.0,20.0,3.0,0.0
6807,46.0,0.0,20.0,4.0,0.0
6808,84.0,15.0,15.0,5.0,0.0
6809,58.0,24.0,20.0,6.0,0.0
6810,79.0,0.0,20.0,0.0,0.0
6811,75.0,0.0,20.0,1.0,0.0
6812,72.0,0.0,20.0,2.0,0.0
6813,58.0,0.0,20.0,3.0,0.0
6814,46.0,24.0,20.0,4.0,0.0
6815,84.0,11.0,60.0,5.0,0.0
6816,75.0,0.0,20.0,0.0,0.0
6817,72.0,0.0,20.0,1.0,0.0
6818,67.0,0.0,20.0,2.0,0.0
6819,58.0,0.0,20.0,3.0,0.0
6820,46.0,0.0,20.0,4.0,0.0
6821,58.0,2.0,20.0,6.0,0.0
6822,77.0,0.0,30.0,0.0,0.0
6823,72.0,0.0,30.0,1.0,0.0
6824,68.0,0.0,30.0,2.0,0.0
6825,56.0,0.0,30.0,3.0,0.0
6826,44.0,4.0,30.0,4.0,0.0
6827,56.0,1.0,15.0,6.0,0.0
6828,82.0,6.0,15.0,5.0,0.0
6829,80.0,5.0,15.0,5.0,0.0
6830,60.0,1.0,15.0,6.0,0.0
6831,79.0,11.0,15.0,5.0,0.0
6832,80.0,0.0,15.0,5.0,0.0
6833,62.0,8.0,15.0,6.0,0.0
6834,80.0,0.0,15.0,5.0,0.0
6835,64.0,7.0,15.0,6.0,0.0
6836,80.0,5.0,15.0,5.0,0.0
6837,65.0,1.0,15.0,6.0,0.0
6838,79.0,6.0,15.0,5.0,0.0
6839,77.0,5.0,15.0,5.0,0.0
6840,67.0,1.0,15.0,6.0,0.0
6841,76.0,11.0,15.0,5.0,0.0
6842,77.0,11.0,15.0,5.0,0.0
6843,68.0,1.0,20.0,6.0,0.0
6844,77.0,12.0,15.0,5.0,0.0
6845,77.0,11.0,15.0,5.0,0.0
6846,68.0,1.0,20.0,6.0,0.0
6847,80.0,23.0,15.0,5.0,0.0
6848,80.0,0.0,20.0,0.0,0.0
6849,77.0,0.0,20.0,1.0,0.0
6850,68.0,0.0,20.0,2.0,0.0
6851,53.0,0.0,20.0,3.0,0.0
6852,41.0,0.0,20.0,4.0,0.0
6853,86.0,14.0,30.0,5.0,0.0
6854,65.0,10.0,20.0,6.0,0.0
6855,80.0,0.0,20.0,0.0,0.0
6856,74.0,0.0,20.0,1.0,0.0
6857,65.0,0.0,20.0,2.0,0.0
6858,58.0,0.0,20.0,3.0,0.0
6859,46.0,0.0,20.0,4.0,0.0
6860,70.0,1.0,20.0,6.0,0.0
6861,79.0,23.0,15.0,5.0,0.0
6862,77.0,0.0,20.0,0.0,0.0
6863,74.0,0.0,20.0,1.0,0.0
6864,70.0,0.0,20.0,2.0,0.0
6865,46.0,0.0,20.0,3.0,0.0
6866,34.0,0.0,20.0,4.0,0.0
6867,80.0,10.0,30.0,5.0,0.0
6868,58.0,10.0,20.0,6.0,0.0
6869,79.0,0.0,30.0,0.0,0.0
6870,75.0,0.0,30.0,1.0,0.0
6871,70.0,4.0,30.0,2.0,0.0
6872,51.0,0.0,20.0,3.0,0.0
6873,39.0,2.0,20.0,4.0,0.0
6874,63.0,3.0,30.0,6.0,0.0
6875,79.0,4.0,15.0,5.0,0.0
6876,77.0,8.0,15.0,5.0,0.0
6877,79.0,8.0,15.0,5.0,0.0
6878,82.0,0.0,15.0,5.0,0.0
6879,62.0,12.0,15.0,6.0,0.0
6880,87.0,0.0,15.0,5.0,0.0
6881,60.0,12.0,15.0,6.0,0.0
6882,86.0,0.0,15.0,5.0,0.0
6883,58.0,12.0,15.0,6.0,0.0
6884,87.0,14.0,30.0,5.0,0.0
6885,57.0,12.0,15.0,6.0,0.0
6886,55.0,9.0,15.0,6.0,0.0
6887,57.0,1.0,20.0,6.0,0.0
6888,82.0,12.0,15.0,5.0,0.0
6889,81.0,11.0,15.0,5.0,0.0
6890,60.0,1.0,20.0,6.0,0.0
6891,84.0,7.0,15.0,5.0,0.0
6892,87.0,6.0,15.0,5.0,0.0
6893,53.0,1.0,20.0,6.0,0.0
6894,86.0,10.0,15.0,5.0,0.0
6895,84.0,12.0,15.0,5.0,0.0
6896,86.0,11.0,15.0,5.0,0.0
6897,65.0,1.0,20.0,6.0,0.0
6898,87.0,12.0,15.0,5.0,0.0
6899,86.0,11.0,15.0,5.0,0.0
6900,70.0,1.0,20.0,6.0,0.0
6901,87.0,12.0,15.0,5.0,0.0
6902,89.0,11.0,15.0,5.0,0.0
6903,58.0,1.0,20.0,6.0,0.0
6904,86.0,12.0,15.0,5.0,0.0
6905,80.0,11.0,15.0,5.0,0.0
6906,60.0,1.0,20.0,6.0,0.0
6907,84.0,12.0,15.0,5.0,0.0
6908,82.0,11.0,15.0,5.0,0.0
6909,62.0,1.0,20.0,6.0,0.0
6910,80.0,14.0,15.0,5.0,0.0
6911,80.0,9.0,15.0,5.0,0.0
6912,63.0,12.0,20.0,6.0,0.0
6913,79.0,12.0,20.0,5.0,0.0
6914,56.0,1.0,20.0,6.0,0.0
6915,77.0,8.0,15.0,5.0,0.0
6916,79.0,6.0,15.0,5.0,0.0
6917,58.0,3.0,20.0,6.0,0.0
6918,77.0,6.0,15.0,5.0,0.0
6919,79.0,3.0,15.0,5.0,0.0
6920,77.0,6.0,15.0,5.0,0.0
6921,70.0,0.0,20.0,0.0,0.0
6922,79.0,5.0,15.0,5.0,0.0
6923,46.0,1.0,20.0,6.0,0.0
6924,77.0,10.0,15.0,5.0,0.0
6925,75.0,12.0,15.0,5.0,0.0
6926,75.0,2.0,15.0,0.0,0.0
6927,75.0,10.0,15.0,5.0,0.0
6928,48.0,3.0,30.0,6.0,0.0
6929,74.0,2.0,15.0,0.0,0.0
6930,77.0,10.0,15.0,5.0,0.0
6931,75.0,0.0,15.0,0.0,0.0
6932,75.0,1.0,20.0,1.0,0.0
6933,79.0,8.0,15.0,5.0,0.0
6934,79.0,0.0,15.0,0.0,0.0
6935,79.0,12.0,15.0,5.0,0.0
6936,75.0,2.0,15.0,0.0,0.0
6937,75.0,1.0,20.0,1.0,0.0
6938,79.0,9.0,15.0,5.0,0.0
6939,70.0,2.0,15.0,0.0,0.0
6940,80.0,10.0,15.0,5.0,0.0
6941,67.0,0.0,15.0,0.0,0.0
6942,70.0,0.0,20.0,1.0,0.0
6943,75.0,0.0,20.0,2.0,0.0
6944,82.0,11.0,15.0,5.0,0.0
6945,55.0,1.0,20.0,6.0,0.0
6946,70.0,0.0,15.0,0.0,0.0
6947,82.0,12.0,15.0,5.0,0.0
6948,63.0,2.0,15.0,0.0,0.0
6949,70.0,0.0,20.0,1.0,0.0
6950,75.0,1.0,20.0,2.0,0.0
6951,82.0,6.0,15.0,5.0,0.0
6952,43.0,3.0,30.0,6.0,0.0
6953,70.0,2.0,15.0,0.0,0.0
6954,84.0,3.0,15.0,5.0,0.0
6955,86.0,10.0,15.0,5.0,0.0
6956,67.0,2.0,15.0,0.0,0.0
6957,75.0,0.0,20.0,1.0,0.0
6958,70.0,1.0,20.0,2.0,0.0
6959,84.0,6.0,15.0,5.0,0.0
6960,70.0,0.0,15.0,0.0,0.0
6961,82.0,7.0,15.0,5.0,0.0
6962,63.0,1.0,15.0,0.0,0.0
6963,75.0,0.0,20.0,1.0,0.0
6964,70.0,1.0,20.0,2.0,0.0
6965,87.0,5.0,15.0,5.0,0.0
6966,82.0,6.0,15.0,5.0,0.0
6967,70.0,0.0,15.0,0.0,0.0
6968,84.0,4.0,15.0,5.0,0.0
6969,67.0,1.0,15.0,6.0,0.0
6970,85.0,11.0,15.0,5.0,0.0
6971,67.0,0.0,15.0,0.0,0.0
6972,63.0,0.0,20.0,1.0,0.0
6973,75.0,1.0,20.0,2.0,0.0
6974,84.0,0.0,15.0,5.0,0.0
6975,63.0,11.0,15.0,6.0,0.0
6976,70.0,0.0,15.0,0.0,0.0
6977,82.0,0.0,15.0,5.0,0.0
6978,67.0,12.0,15.0,6.0,0.0
6979,75.0,2.0,15.0,0.0,0.0
6980,63.0,0.0,20.0,1.0,0.0
6981,68.0,0.0,20.0,2.0,0.0
6982,82.0,9.0,15.0,5.0,0.0
6983,68.0,1.0,20.0,6.0,0.0
6984,74.0,11.0,15.0,0.0,0.0
6985,84.0,1.0,20.0,5.0,0.0
6986,75.0,0.0,15.0,0.0,0.0
6987,56.0,12.0,15.0,6.0,0.0
6988,79.0,0.0,15.0,0.0,0.0
6989,82.0,0.0,15.0,5.0,0.0
6990,58.0,12.0,15.0,6.0,0.0
6991,75.0,0.0,15.0,0.0,0.0
6992,80.0,12.0,15.0,5.0,0.0
6993,60.0,1.0,60.0,6.0,0.0
6994,70.0,0.0,15.0,0.0,0.0
6995,79.0,12.0,15.0,5.0,0.0
6996,67.0,0.0,15.0,0.0,0.0
6997,77.0,12.0,15.0,5.0,0.0
6998,70.0,0.0,15.0,0.0,0.0
6999,75.0,6.0,15.0,5.0,0.0
7000,63.0,1.0,20.0,0.0,0.0
7001,80.0,6.0,15.0,5.0,0.0
7002,82.0,6.0,15.0,5.0,0.0
7003,80.0,4.0,15.0,5.0,0.0
7004,58.0,1.0,15.0,6.0,0.0
7005,79.0,11.0,15.0,5.0,0.0
7006,80.0,0.0,15.0,5.0,0.0
7007,60.0,12.0,15.0,6.0,0.0
7008,77.0,0.0,15.0,5.0,0.0
7009,56.0,23.0,15.0,6.0,0.0
7010,75.0,0.0,20.0,5.0,0.0
7011,58.0,19.0,20.0,6.0,0.0
7012,77.0,0.0,20.0,0.0,0.0
7013,74.0,0.0,20.0,1.0,0.0
7014,70.0,0.0,20.0,2.0,0.0
7015,58.0,0.0,20.0,3.0,0.0
7016,46.0,0.0,20.0,4.0,0.0
7017,74.0,5.0,15.0,5.0,0.0
7018,46.0,2.0,20.0,6.0,0.0
7019,75.0,11.0,15.0,5.0,0.0
7020,79.0,0.0,20.0,0.0,0.0
7021,75.0,0.0,20.0,1.0,0.0
7022,70.0,0.0,20.0,2.0,0.0
7023,63.0,0.0,20.0,3.0,0.0
7024,51.0,0.0,20.0,4.0,0.0
7025,75.0,11.0,15.0,5.0,0.0
7026,51.0,1.0,20.0,6.0,0.0
7027,79.0,14.0,15.0,5.0,0.0
7028,77.0,0.0,20.0,0.0,0.0
7029,77.0,0.0,20.0,1.0,0.0
7030,70.0,0.0,20.0,2.0,0.0
7031,62.0,0.0,20.0,3.0,0.0
7032,50.0,0.0,20.0,4.0,0.0
7033,77.0,6.0,15.0,5.0,0.0
7034,50.0,3.0,20.0,6.0,0.0
7035,79.0,3.0,15.0,5.0,0.0
7036,77.0,6.0,15.0,5.0,0.0
7037,80.0,0.0,20.0,0.0,0.0
7038,75.0,0.0,20.0,1.0,0.0
7039,63.0,0.0,20.0,2.0,0.0
7040,60.0,0.0,20.0,3.0,0.0
7041,48.0,0.0,20.0,4.0,0.0
7042,79.0,15.0,15.0,5.0,0.0
7043,48.0,1.0,20.0,6.0,0.0
7044,80.0,23.0,15.0,5.0,0.0
7045,79.0,0.0,20.0,0.0,0.0
7046,75.0,0.0,20.0,1.0,0.0
7047,67.0,0.0,20.0,2.0,0.0
7048,58.0,0.0,20.0,3.0,0.0
7049,46.0,0.0,20.0,4.0,0.0
7050,79.0,0.0,20.0,5.0,0.0
7051,46.0,24.0,20.0,6.0,0.0
7052,77.0,0.0,20.0,0.0,0.0
7053,74.0,0.0,20.0,1.0,0.0
7054,70.0,0.0,20.0,2.0,0.0
7055,56.0,0.0,20.0,3.0,0.0
7056,44.0,0.0,20.0,4.0,0.0
7057,77.0,0.0,20.0,5.0,0.0
7058,44.0,24.0,20.0,6.0,0.0
7059,75.0,0.0,20.0,0.0,0.0
7060,75.0,0.0,20.0,1.0,0.0
7061,58.0,0.0,20.0,2.0,0.0
7062,55.0,0.0,20.0,3.0,0.0
7063,43.0,0.0,20.0,4.0,0.0
7064,75.0,0.0,20.0,5.0,0.0
7065,43.0,37.0,20.0,6.0,0.0
7066,82.0,0.0,60.0,0.0,0.0
7067,82.0,17.0,60.0,5.0,0.0
7068,75.0,11.0,15.0,1.0,0.0
7069,70.0,0.0,20.0,2.0,0.0
7070,55.0,0.0,20.0,3.0,0.0
7071,43.0,0.0,20.0,4.0,0.0
7072,55.0,1.0,20.0,6.0,0.0
7073,74.0,6.0,15.0,1.0,0.0
7074,75.0,0.0,20.0,1.0,0.0
7075,67.0,0.0,20.0,2.0,0.0
7076,60.0,0.0,20.0,3.0,0.0
7077,48.0,0.0,20.0,4.0,0.0
7078,60.0,1.0,20.0,6.0,0.0
7079,75.0,0.0,15.0,0.0,0.0
7080,75.0,12.0,15.0,5.0,0.0
7081,74.0,0.0,15.0,0.0,0.0
7082,79.0,0.0,20.0,1.0,0.0
7083,70.0,0.0,20.0,2.0,0.0
7084,58.0,0.0,20.0,3.0,0.0
7085,46.0,0.0,20.0,4.0,0.0
7086,74.0,11.0,15.0,5.0,0.0
7087,58.0,1.0,20.0,6.0,0.0
7088,75.0,0.0,15.0,0.0,0.0
7089,75.0,23.0,15.0,5.0,0.0
7090,77.0,0.0,20.0,0.0,0.0
7091,74.0,0.0,20.0,1.0,0.0
7092,70.0,0.0,20.0,2.0,0.0
7093,56.0,0.0,20.0,3.0,0.0
7094,44.0,0.0,20.0,4.0,0.0
7095,77.0,0.0,20.0,5.0,0.0
7096,56.0,24.0,20.0,6.0,0.0
7097,75.0,0.0,20.0,0.0,0.0
7098,75.0,0.0,20.0,1.0,0.0
7099,58.0,0.0,20.0,2.0,0.0
7100,55.0,0.0,20.0,3.0,0.0
7101,43.0,0.0,20.0,4.0,0.0
7102,75.0,0.0,20.0,5.0,0.0
7103,55.0,13.0,20.0,6.0,0.0
7104,74.0,0.0,15.0,0.0,0.0
7105,68.0,0.0,20.0,1.0,0.0
7106,65.0,0.0,20.0,2.0,0.0
7107,53.0,0.0,20.0,3.0,0.0
7108,41.0,0.0,20.0,4.0,0.0
7109,74.0,11.0,15.0,5.0,0.0
7110,53.0,1.0,20.0,6.0,0.0
7111,75.0,0.0,15.0,0.0,0.0
7112,75.0,12.0,15.0,5.0,0.0
7113,77.0,0.0,15.0,0.0,0.0
7114,72.0,0.0,20.0,1.0,0.0
7115,68.0,0.0,20.0,2.0,0.0
7116,51.0,0.0,20.0,3.0,0.0
7117,39.0,0.0,20.0,4.0,0.0
7118,77.0,11.0,15.0,5.0,0.0
7119,51.0,1.0,20.0,6.0,0.0
7120,74.0,0.0,15.0,0.0,0.0
7121,74.0,12.0,15.0,5.0,0.0
7122,70.0,0.0,15.0,0.0,0.0
7123,65.0,0.0,20.0,1.0,0.0
7124,70.0,0.0,20.0,2.0,0.0
7125,50.0,0.0,20.0,3.0,0.0
7126,38.0,0.0,20.0,4.0,0.0
7127,70.0,11.0,15.0,5.0,0.0
7128,50.0,3.0,20.0,6.0,0.0
7129,80.0,0.0,15.0,0.0,0.0
7130,80.0,12.0,15.0,5.0,0.0
7131,79.0,0.0,15.0,0.0,0.0
7132,74.0,0.0,20.0,1.0,0.0
7133,70.0,0.0,20.0,2.0,0.0
7134,46.0,0.0,20.0,3.0,0.0
7135,34.0,0.0,20.0,4.0,0.0
7136,79.0,9.0,15.0,5.0,0.0
7137,46.0,1.0,20.0,6.0,0.0
7138,77.0,0.0,15.0,0.0,0.0
7139,77.0,12.0,15.0,5.0,0.0
7140,70.0,0.0,15.0,0.0,0.0
7141,75.0,0.0,20.0,1.0,0.0
7142,70.0,0.0,20.0,2.0,0.0
7143,51.0,0.0,20.0,3.0,0.0
7144,39.0,0.0,20.0,4.0,0.0
7145,70.0,11.0,15.0,5.0,0.0
7146,51.0,3.0,20.0,6.0,0.0
7147,79.0,0.0,15.0,0.0,0.0
7148,79.0,12.0,15.0,5.0,0.0
7149,77.0,0.0,15.0,0.0,0.0
7150,77.0,10.0,15.0,5.0,0.0
7151,75.0,0.0,15.0,0.0,0.0
7152,75.0,12.0,15.0,5.0,0.0
7153,70.0,0.0,15.0,0.0,0.0
7154,65.0,0.0,20.0,1.0,0.0
7155,70.0,0.0,20.0,2.0,0.0
7156,50.0,0.0,20.0,3.0,0.0
7157,38.0,0.0,20.0,4.0,0.0
7158,70.0,11.0,15.0,5.0,0.0
7159,50.0,3.0,20.0,6.0,0.0
7160,77.0,0.0,15.0,0.0,0.0
7161,77.0,12.0,15.0,5.0,0.0
7162,75.0,0.0,15.0,0.0,0.0
7163,75.0,10.0,15.0,5.0,0.0
7164,74.0,0.0,15.0,0.0,0.0
7165,74.0,12.0,15.0,5.0,0.0
7166,75.0,0.0,15.0,0.0,0.0
7167,67.0,0.0,20.0,1.0,0.0
7168,72.0,0.0,20.0,2.0,0.0
7169,48.0,0.0,20.0,3.0,0.0
7170,36.0,0.0,20.0,4.0,0.0
7171,75.0,11.0,15.0,5.0,0.0
7172,48.0,3.0,20.0,6.0,0.0
7173,68.0,0.0,15.0,0.0,0.0
7174,68.0,12.0,15.0,5.0,0.0
7175,67.0,0.0,15.0,0.0,0.0
7176,67.0,10.0,15.0,5.0,0.0
7177,65.0,0.0,15.0,0.0,0.0
7178,65.0,12.0,15.0,5.0,0.0
7179,63.0,0.0,15.0,0.0,0.0
7180,70.0,0.0,20.0,1.0,0.0
7181,63.0,0.0,20.0,2.0,0.0
7182,43.0,0.0,20.0,3.0,0.0
7183,31.0,0.0,20.0,4.0,0.0
7184,63.0,11.0,15.0,5.0,0.0
7185,43.0,3.0,20.0,6.0,0.0
7186,73.0,0.0,15.0,0.0,0.0
7187,73.0,12.0,15.0,5.0,0.0
7188,72.0,0.0,15.0,0.0,0.0
7189,67.0,0.0,20.0,1.0,0.0
7190,63.0,3.0,30.0,2.0,0.0
7191,51.0,0.0,20.0,3.0,0.0
7192,39.0,0.0,20.0,4.0,0.0
7193,72.0,9.0,15.0,5.0,0.0
7194,51.0,1.0,20.0,6.0,0.0
7195,70.0,0.0,15.0,0.0,0.0
7196,70.0,9.0,15.0,5.0,0.0
7197,72.0,0.0,15.0,0.0,0.0
7198,68.0,0.0,20.0,1.0,0.0
7199,44.0,0.0,20.0,3.0,0.0
7200,32.0,0.0,20.0,4.0,0.0
7201,72.0,11.0,15.0,5.0,0.0
7202,44.0,1.0,20.0,6.0,0.0
7203,70.0,0.0,15.0,0.0,0.0
7204,61.0,0.0,15.0,2.0,0.0
7205,70.0,12.0,15.0,5.0,0.0
7206,68.0,0.0,15.0,0.0,0.0
7207,63.0,0.0,20.0,1.0,0.0
7208,60.0,0.0,15.0,2.0,0.0
7209,48.0,0.0,20.0,3.0,0.0
7210,36.0,0.0,20.0,4.0,0.0
7211,68.0,11.0,15.0,5.0,0.0
7212,48.0,1.0,20.0,6.0,0.0
7213,67.0,0.0,15.0,0.0,0.0
7214,58.0,0.0,15.0,2.0,0.0
7215,67.0,12.0,15.0,5.0,0.0
7216,65.0,0.0,15.0,0.0,0.0
7217,72.0,0.0,15.0,1.0,0.0
7218,56.0,0.0,20.0,2.0,0.0
7219,53.0,0.0,20.0,3.0,0.0
7220,41.0,0.0,20.0,4.0,0.0
7221,65.0,11.0,15.0,5.0,0.0
7222,53.0,1.0,20.0,6.0,0.0
7223,79.0,0.0,15.0,0.0,0.0
7224,70.0,0.0,15.0,1.0,0.0
7225,79.0,12.0,15.0,5.0,0.0
7226,77.0,0.0,15.0,0.0,0.0
7227,68.0,0.0,15.0,1.0,0.0
7228,65.0,3.0,30.0,2.0,0.0
7229,56.0,0.0,20.0,3.0,0.0
7230,44.0,0.0,20.0,4.0,0.0
7231,77.0,11.0,15.0,5.0,0.0
7232,56.0,1.0,20.0,6.0,0.0
7233,75.0,0.0,15.0,0.0,0.0
7234,67.0,0.0,15.0,1.0,0.0
7235,75.0,9.0,15.0,5.0,0.0
7236,74.0,0.0,15.0,0.0,0.0
7237,65.0,0.0,20.0,1.0,0.0
7238,46.0,0.0,20.0,3.0,0.0
7239,34.0,0.0,20.0,4.0,0.0
7240,74.0,11.0,15.0,5.0,0.0
7241,46.0,1.0,20.0,6.0,0.0
7242,72.0,0.0,15.0,0.0,0.0
7243,63.0,0.0,15.0,2.0,0.0
7244,72.0,12.0,15.0,5.0,0.0
7245,70.0,0.0,15.0,0.0,0.0
7246,74.0,3.0,30.0,1.0,0.0
7247,62.0,0.0,15.0,2.0,0.0
7248,50.0,0.0,20.0,3.0,0.0
7249,38.0,0.0,20.0,4.0,0.0
7250,70.0,11.0,15.0,5.0,0.0
7251,50.0,1.0,20.0,6.0,0.0
7252,68.0,0.0,15.0,0.0,0.0
7253,60.0,0.0,15.0,2.0,0.0
7254,68.0,9.0,15.0,5.0,0.0
7255,67.0,0.0,15.0,0.0,0.0
7256,58.0,0.0,20.0,2.0,0.0
7257,55.0,0.0,20.0,3.0,0.0
7258,43.0,0.0,20.0,4.0,0.0
7259,67.0,11.0,15.0,5.0,0.0
7260,55.0,1.0,20.0,6.0,0.0
7261,80.0,0.0,15.0,0.0,0.0
7262,72.0,0.0,15.0,1.0,0.0
7263,80.0,12.0,15.0,5.0,0.0
7264,79.0,0.0,15.0,0.0,0.0
7265,70.0,0.0,15.0,1.0,0.0
7266,67.0,3.0,30.0,2.0,0.0
7267,58.0,0.0,20.0,3.0,0.0
7268,46.0,0.0,20.0,4.0,0.0
7269,79.0,11.0,15.0,5.0,0.0
7270,58.0,1.0,20.0,6.0,0.0
7271,77.0,0.0,15.0,0.0,0.0
7272,68.0,0.0,15.0,1.0,0.0
7273,77.0,9.0,15.0,5.0,0.0
7274,75.0,0.0,15.0,0.0,0.0
7275,67.0,0.0,20.0,1.0,0.0
7276,48.0,0.0,20.0,3.0,0.0
7277,36.0,0.0,20.0,4.0,0.0
7278,75.0,11.0,15.0,5.0,0.0
7279,48.0,1.0,20.0,6.0,0.0
7280,74.0,0.0,15.0,0.0,0.0
7281,65.0,0.0,15.0,2.0,0.0
7282,74.0,12.0,15.0,5.0,0.0
7283,72.0,0.0,15.0,0.0,0.0
7284,75.0,3.0,30.0,1.0,0.0
7285,63.0,0.0,15.0,2.0,0.0
7286,51.0,0.0,20.0,3.0,0.0
7287,39.0,0.0,20.0,4.0,0.0
7288,72.0,11.0,15.0,5.0,0.0
7289,51.0,1.0,20.0,6.0,0.0
7290,70.0,0.0,15.0,0.0,0.0
7291,62.0,0.0,15.0,2.0,0.0
7292,70.0,9.0,15.0,5.0,0.0
7293,68.0,0.0,15.0,0.0,0.0
7294,60.0,0.0,20.0,2.0,0.0
7295,56.0,0.0,20.0,3.0,0.0
7296,44.0,0.0,20.0,4.0,0.0
7297,68.0,11.0,15.0,5.0,0.0
7298,56.0,1.0,20.0,6.0,0.0
7299,82.0,0.0,15.0,0.0,0.0
7300,74.0,0.0,15.0,1.0,0.0
7301,82.0,12.0,15.0,5.0,0.0
7302,80.0,0.0,15.0,0.0,0.0
7303,72.0,0.0,15.0,1.0,0.0
7304,68.0,3.0,30.0,2.0,0.0
7305,60.0,0.0,20.0,3.0,0.0
7306,48.0,0.0,20.0,4.0,0.0
7307,80.0,11.0,15.0,5.0,0.0
7308,60.0,1.0,20.0,6.0,0.0
7309,79.0,0.0,15.0,0.0,0.0
7310,70.0,0.0,15.0,1.0,0.0
7311,79.0,9.0,15.0,5.0,0.0
7312,77.0,0.0,15.0,0.0,0.0
7313,68.0,0.0,15.0,1.0,0.0
7314,50.0,0.0,20.0,3.0,0.0
7315,38.0,0.0,20.0,4.0,0.0
7316,77.0,11.0,15.0,5.0,0.0
7317,50.0,1.0,20.0,6.0,0.0
7318,75.0,0.0,15.0,0.0,0.0
7319,79.0,0.0,15.0,1.0,0.0
7320,70.0,0.0,15.0,2.0,0.0
7321,75.0,12.0,15.0,5.0,0.0
7322,74.0,0.0,15.0,0.0,0.0
7323,77.0,0.0,15.0,1.0,0.0
7324,68.0,0.0,15.0,2.0,0.0
7325,53.0,0.0,20.0,3.0,0.0
7326,41.0,0.0,20.0,4.0,0.0
7327,74.0,11.0,15.0,5.0,0.0
7328,53.0,1.0,20.0,6.0,0.0
7329,72.0,0.0,15.0,0.0,0.0
7330,75.0,0.0,15.0,1.0,0.0
7331,67.0,0.0,15.0,2.0,0.0
7332,72.0,12.0,15.0,5.0,0.0
7333,70.0,0.0,15.0,0.0,0.0
7334,74.0,0.0,15.0,1.0,0.0
7335,65.0,0.0,20.0,2.0,0.0
7336,58.0,0.0,20.0,3.0,0.0
7337,46.0,0.0,20.0,4.0,0.0
7338,70.0,11.0,15.0,5.0,0.0
7339,58.0,1.0,20.0,6.0,0.0
7340,84.0,0.0,15.0,0.0,0.0
7341,80.0,0.0,15.0,1.0,0.0
7342,84.0,12.0,15.0,5.0,0.0
7343,82.0,0.0,15.0,0.0,0.0
7344,79.0,0.0,15.0,1.0,0.0
7345,70.0,0.0,20.0,2.0,0.0
7346,62.0,0.0,20.0,3.0,0.0
7347,50.0,0.0,20.0,4.0,0.0
7348,82.0,11.0,15.0,5.0,0.0
7349,62.0,1.0,20.0,6.0,0.0
7350,80.0,0.0,15.0,0.0,0.0
7351,77.0,0.0,15.0,1.0,0.0
7352,80.0,14.0,15.0,5.0,0.0
7353,79.0,2.0,30.0,0.0,0.0
7354,75.0,0.0,20.0,1.0,0.0
7355,70.0,0.0,20.0,2.0,0.0
7356,63.0,0.0,20.0,3.0,0.0
7357,51.0,0.0,20.0,4.0,0.0
7358,80.0,9.0,15.0,5.0,0.0
7359,63.0,10.0,20.0,6.0,0.0
7360,79.0,12.0,20.0,5.0,0.0
7361,75.0,0.0,30.0,1.0,0.0
7362,72.0,0.0,20.0,2.0,0.0
7363,56.0,0.0,20.0,3.0,0.0
7364,44.0,0.0,20.0,4.0,0.0
7365,56.0,1.0,20.0,6.0,0.0
7366,77.0,0.0,15.0,0.0,0.0
7367,77.0,8.0,15.0,5.0,0.0
7368,77.0,4.0,30.0,0.0,0.0
7369,70.0,0.0,20.0,2.0,0.0
7370,58.0,0.0,20.0,3.0,0.0
7371,46.0,0.0,20.0,4.0,0.0
7372,79.0,6.0,15.0,5.0,0.0
7373,58.0,3.0,20.0,6.0,0.0
7374,77.0,6.0,15.0,5.0,0.0
7375,79.0,3.0,15.0,5.0,0.0
7376,77.0,6.0,15.0,5.0,0.0
7377,74.0,0.0,20.0,1.0,0.0
7378,68.0,0.0,20.0,2.0,0.0
7379,46.0,0.0,20.0,3.0,0.0
7380,34.0,0.0,20.0,4.0,0.0
7381,79.0,1.0,15.0,5.0,0.0
7382,46.0,1.0,20.0,6.0,0.0
7383,77.0,10.0,15.0,5.0,0.0
7384,75.0,0.0,15.0,0.0,0.0
7385,75.0,23.0,15.0,5.0,0.0
7386,75.0,0.0,20.0,0.0,0.0
7387,75.0,0.0,20.0,1.0,0.0
7388,67.0,21.0,20.0,2.0,0.0
7389,51.0,0.0,30.0,3.0,0.0
7390,39.0,0.0,30.0,4.0,0.0
7391,75.0,0.0,30.0,5.0,0.0
7392,51.0,3.0,30.0,6.0,0.0
7393,77.0,0.0,20.0,0.0,0.0
7394,72.0,0.0,20.0,1.0,0.0
7395,68.0,24.0,20.0,2.0,0.0
7396,75.0,0.0,20.0,0.0,0.0
7397,70.0,0.0,20.0,1.0,0.0
7398,67.0,24.0,20.0,2.0,0.0
7399,74.0,0.0,20.0,0.0,0.0
7400,68.0,0.0,20.0,1.0,0.0
7401,65.0,0.0,20.0,2.0,0.0
7402,70.0,13.0,20.0,5.0,0.0
7403,75.0,0.0,30.0,0.0,0.0
7404,67.0,0.0,30.0,1.0,0.0
7405,63.0,3.0,30.0,2.0,0.0
7406,70.0,12.0,15.0,5.0,0.0
7407,72.0,8.0,15.0,5.0,0.0
7408,73.0,12.0,15.0,5.0,0.0
7409,53.0,15.0,20.0,6.0,0.0
7410,75.0,9.0,15.0,5.0,0.0
7411,55.0,3.0,20.0,6.0,0.0
7412,73.0,12.0,15.0,5.0,0.0
7413,72.0,9.0,15.0,5.0,0.0
7414,56.0,1.0,20.0,6.0,0.0
7415,70.0,12.0,15.0,5.0,0.0
7416,79.0,0.0,150.0,0.0,0.0
7417,70.0,0.0,150.0,1.0,0.0
7418,64.0,9.0,150.0,2.0,0.0
7419,79.0,0.0,15.0,5.0,0.0
7420,58.0,12.0,15.0,6.0,0.0
7421,77.0,0.0,15.0,5.0,0.0
7422,60.0,12.0,15.0,6.0,0.0
7423,79.0,1.0,20.0,5.0,0.0
7424,58.0,11.0,15.0,6.0,0.0
7425,56.0,12.0,15.0,6.0,0.0
7426,70.0,0.0,15.0,5.0,0.0
7427,55.0,12.0,15.0,6.0,0.0
7428,73.0,0.0,15.0,5.0,0.0
7429,53.0,12.0,15.0,6.0,0.0
7430,72.0,0.0,15.0,5.0,0.0
7431,52.0,12.0,15.0,6.0,0.0
7432,70.0,0.0,15.0,5.0,0.0
7433,55.0,12.0,15.0,6.0,0.0
7434,79.0,11.0,15.0,5.0,0.0
7435,48.0,1.0,20.0,6.0,0.0
7436,76.0,12.0,15.0,5.0,0.0
7437,77.0,11.0,15.0,5.0,0.0
7438,50.0,1.0,20.0,6.0,0.0
7439,79.0,12.0,15.0,5.0,0.0
7440,72.0,2.0,15.0,5.0,0.0
7441,52.0,1.0,20.0,6.0,0.0
7442,82.0,12.0,15.0,5.0,0.0
7443,77.0,0.0,15.0,0.0,0.0
7444,72.0,0.0,20.0,1.0,0.0
7445,70.0,0.0,20.0,2.0,0.0
7446,80.0,11.0,15.0,5.0,0.0
7447,48.0,1.0,20.0,6.0,0.0
7448,76.0,0.0,15.0,0.0,0.0
7449,79.0,12.0,15.0,5.0,0.0
7450,77.0,0.0,30.0,0.0,0.0
7451,72.0,0.0,30.0,1.0,0.0
7452,68.0,3.0,30.0,2.0,0.0
7453,82.0,11.0,15.0,5.0,0.0
7454,53.0,1.0,20.0,6.0,0.0
7455,80.0,12.0,15.0,5.0,0.0
7456,79.0,8.0,15.0,5.0,0.0
7457,55.0,1.0,20.0,6.0,0.0
7458,80.0,12.0,15.0,5.0,0.0
7459,77.0,1.0,20.0,5.0,0.0
7460,56.0,11.0,15.0,6.0,0.0
7461,53.0,12.0,15.0,6.0,0.0
7462,84.0,14.0,30.0,5.0,0.0
7463,55.0,12.0,15.0,6.0,0.0
7464,56.0,9.0,15.0,6.0,0.0
7465,58.0,1.0,20.0,6.0,0.0
7466,82.0,12.0,15.0,5.0,0.0
7467,80.0,11.0,15.0,5.0,0.0
7468,60.0,1.0,20.0,6.0,0.0
7469,84.0,12.0,15.0,5.0,0.0
7470,82.0,11.0,15.0,5.0,0.0
7471,61.0,1.0,20.0,6.0,0.0
7472,80.0,12.0,15.0,5.0,0.0
7473,79.0,11.0,15.0,5.0,0.0
7474,58.0,1.0,20.0,6.0,0.0
7475,77.0,12.0,15.0,5.0,0.0
7476,76.0,11.0,15.0,5.0,0.0
7477,60.0,1.0,20.0,6.0,0.0
7478,77.0,12.0,15.0,5.0,0.0
7479,82.0,0.0,20.0,0.0,0.0
7480,79.0,0.0,20.0,1.0,0.0
7481,76.0,0.0,20.0,2.0,0.0
7482,79.0,11.0,15.0,5.0,0.0
7483,48.0,1.0,20.0,6.0,0.0
7484,76.0,12.0,15.0,5.0,0.0
7485,82.0,0.0,20.0,0.0,0.0
7486,79.0,0.0,20.0,1.0,0.0
7487,76.0,1.0,20.0,2.0,0.0
7488,72.0,11.0,15.0,5.0,0.0
7489,76.0,12.0,15.0,5.0,0.0
7490,79.0,0.0,20.0,0.0,0.0
7491,76.0,0.0,20.0,1.0,0.0
7492,72.0,0.0,20.0,2.0,0.0
7493,79.0,11.0,15.0,5.0,0.0
7494,60.0,1.0,20.0,6.0,0.0
7495,82.0,8.0,15.0,5.0,0.0
7496,80.0,0.0,20.0,0.0,0.0
7497,77.0,0.0,20.0,1.0,0.0
7498,72.0,1.0,20.0,2.0,0.0
7499,80.0,2.0,15.0,5.0,0.0
7500,65.0,4.0,15.0,6.0,0.0
7501,63.0,9.0,15.0,6.0,0.0
7502,79.0,11.0,15.0,5.0,0.0
7503,65.0,1.0,20.0,6.0,0.0
7504,77.0,12.0,15.0,5.0,0.0
7505,84.0,0.0,15.0,5.0,0.0
7506,63.0,6.0,15.0,6.0,0.0
7507,82.0,1.0,15.0,5.0,0.0
7508,61.0,4.0,15.0,6.0,0.0
7509,63.0,2.0,15.0,6.0,0.0
7510,61.0,11.0,15.0,6.0,0.0
7511,80.0,0.0,15.0,5.0,0.0
7512,60.0,12.0,15.0,6.0,0.0
7513,79.0,11.0,15.0,5.0,0.0
7514,61.0,1.0,20.0,6.0,0.0
7515,77.0,8.0,15.0,5.0,0.0
7516,85.0,4.0,15.0,5.0,0.0
7517,60.0,2.0,15.0,6.0,0.0
7518,84.0,6.0,15.0,5.0,0.0
7519,85.0,4.0,15.0,5.0,0.0
7520,48.0,2.0,15.0,6.0,0.0
7521,84.0,6.0,15.0,5.0,0.0
7522,85.0,4.0,15.0,5.0,0.0
7523,60.0,2.0,15.0,6.0,0.0
7524,84.0,6.0,15.0,5.0,0.0
7525,85.0,4.0,15.0,5.0,0.0
7526,58.0,2.0,15.0,6.0,0.0
7527,84.0,6.0,15.0,5.0,0.0
7528,85.0,4.0,15.0,5.0,0.0
7529,56.0,2.0,15.0,6.0,0.0
7530,84.0,6.0,15.0,5.0,0.0
7531,85.0,4.0,15.0,5.0,0.0
7532,55.0,2.0,15.0,6.0,0.0
7533,84.0,6.0,15.0,5.0,0.0
7534,72.0,0.0,20.0,0.0,0.0
7535,79.0,0.0,20.0,1.0,0.0
7536,67.0,0.0,20.0,2.0,0.0
7537,58.0,0.0,20.0,3.0,0.0
7538,46.0,1.0,20.0,4.0,0.0
7539,85.0,4.0,15.0,5.0,0.0
7540,53.0,2.0,15.0,6.0,0.0
7541,84.0,6.0,15.0,5.0,0.0
7542,85.0,3.0,15.0,5.0,0.0
7543,52.0,2.0,15.0,6.0,0.0
7544,84.0,6.0,15.0,5.0,0.0
7545,77.0,2.0,15.0,0.0,0.0
7546,80.0,0.0,20.0,1.0,0.0
7547,65.0,0.0,30.0,2.0,0.0
7548,56.0,0.0,30.0,3.0,0.0
7549,44.0,0.0,30.0,4.0,0.0
7550,85.0,4.0,15.0,5.0,0.0
7551,53.0,1.0,20.0,6.0,0.0
7552,84.0,6.0,15.0,5.0,0.0
7553,76.0,2.0,15.0,0.0,0.0
7554,85.0,3.0,15.0,5.0,0.0
7555,84.0,6.0,15.0,5.0,0.0
7556,77.0,2.0,15.0,0.0,0.0
7557,84.0,0.0,20.0,1.0,0.0
7558,85.0,4.0,15.0,5.0,0.0
7559,56.0,1.0,20.0,6.0,0.0
7560,84.0,6.0,15.0,5.0,0.0
7561,80.0,2.0,15.0,0.0,0.0
7562,85.0,3.0,15.0,5.0,0.0
7563,84.0,6.0,15.0,5.0,0.0
7564,77.0,2.0,15.0,0.0,0.0
7565,80.0,0.0,20.0,1.0,0.0
7566,85.0,4.0,15.0,5.0,0.0
7567,60.0,1.0,20.0,6.0,0.0
7568,84.0,6.0,15.0,5.0,0.0
7569,72.0,2.0,15.0,0.0,0.0
7570,85.0,3.0,15.0,5.0,0.0
7571,84.0,6.0,15.0,5.0,0.0
7572,68.0,2.0,15.0,0.0,0.0
7573,77.0,0.0,20.0,1.0,0.0
7574,72.0,0.0,20.0,2.0,0.0
7575,60.0,0.0,20.0,3.0,0.0
7576,48.0,0.0,20.0,4.0,0.0
7577,85.0,4.0,15.0,5.0,0.0
7578,65.0,1.0,20.0,6.0,0.0
7579,84.0,6.0,15.0,5.0,0.0
7580,72.0,2.0,15.0,0.0,0.0
7581,85.0,3.0,15.0,5.0,0.0
7582,84.0,6.0,15.0,5.0,0.0
7583,65.0,2.0,15.0,0.0,0.0
7584,68.0,0.0,20.0,2.0,0.0
7585,65.0,0.0,30.0,3.0,0.0
7586,53.0,0.0,30.0,4.0,0.0
7587,85.0,4.0,15.0,5.0,0.0
7588,56.0,1.0,20.0,6.0,0.0
7589,84.0,6.0,15.0,5.0,0.0
7590,72.0,2.0,15.0,0.0,0.0
7591,85.0,3.0,15.0,5.0,0.0
7592,84.0,6.0,15.0,5.0,0.0
7593,68.0,2.0,15.0,0.0,0.0
7594,72.0,0.0,20.0,1.0,0.0
7595,65.0,0.0,20.0,2.0,0.0
7596,85.0,4.0,15.0,5.0,0.0
7597,60.0,1.0,20.0,6.0,0.0
7598,84.0,6.0,15.0,5.0,0.0
7599,72.0,2.0,15.0,0.0,0.0
7600,85.0,3.0,15.0,5.0,0.0
7601,84.0,6.0,15.0,5.0,0.0
7602,65.0,2.0,15.0,0.0,0.0
7603,68.0,0.0,20.0,1.0,0.0
7604,85.0,4.0,15.0,5.0,0.0
7605,65.0,1.0,20.0,6.0,0.0
7606,84.0,6.0,15.0,5.0,0.0
7607,72.0,2.0,15.0,0.0,0.0
7608,85.0,3.0,15.0,5.0,0.0
7609,84.0,6.0,15.0,5.0,0.0
7610,68.0,2.0,15.0,0.0,0.0
7611,65.0,0.0,20.0,1.0,0.0
7612,60.0,0.0,20.0,2.0,0.0
7613,60.0,0.0,20.0,3.0,0.0
7614,48.0,0.0,20.0,4.0,0.0
7615,85.0,4.0,15.0,5.0,0.0
7616,68.0,1.0,20.0,6.0,0.0
7617,84.0,6.0,15.0,5.0,0.0
7618,72.0,2.0,15.0,0.0,0.0
7619,85.0,3.0,15.0,5.0,0.0
7620,84.0,6.0,15.0,5.0,0.0
7621,77.0,2.0,15.0,0.0,0.0
7622,56.0,0.0,20.0,2.0,0.0
7623,65.0,0.0,20.0,3.0,0.0
7624,53.0,0.0,20.0,4.0,0.0
7625,85.0,4.0,15.0,5.0,0.0
7626,65.0,1.0,20.0,6.0,0.0
7627,84.0,6.0,15.0,5.0,0.0
7628,76.0,2.0,15.0,0.0,0.0
7629,85.0,3.0,15.0,5.0,0.0
7630,84.0,6.0,15.0,5.0,0.0
7631,77.0,2.0,15.0,0.0,0.0
7632,53.0,0.0,20.0,2.0,0.0
7633,60.0,0.0,20.0,3.0,0.0
7634,48.0,0.0,20.0,4.0,0.0
7635,85.0,4.0,15.0,5.0,0.0
7636,60.0,1.0,20.0,6.0,0.0
7637,84.0,6.0,15.0,5.0,0.0
7638,80.0,2.0,15.0,0.0,0.0
7639,85.0,3.0,15.0,5.0,0.0
7640,84.0,6.0,15.0,5.0,0.0
7641,77.0,11.0,15.0,0.0,0.0
7642,56.0,0.0,20.0,3.0,0.0
7643,44.0,0.0,20.0,4.0,0.0
7644,85.0,4.0,15.0,5.0,0.0
7645,56.0,1.0,20.0,6.0,0.0
7646,84.0,11.0,30.0,5.0,0.0
7647,72.0,12.0,15.0,0.0,0.0
7648,68.0,11.0,15.0,0.0,0.0
7649,53.0,0.0,20.0,3.0,0.0
7650,41.0,0.0,20.0,4.0,0.0
7651,53.0,1.0,20.0,6.0,0.0
7652,72.0,2.0,15.0,0.0,0.0
7653,65.0,0.0,20.0,0.0,0.0
7654,49.0,0.0,20.0,3.0,0.0
7655,37.0,0.0,20.0,4.0,0.0
7656,49.0,2.0,20.0,6.0,0.0
7657,82.0,6.0,15.0,5.0,0.0
7658,84.0,4.0,15.0,5.0,0.0
7659,85.0,11.0,15.0,5.0,0.0
7660,84.0,11.0,15.0,5.0,0.0
7661,64.0,1.0,20.0,6.0,0.0
7662,82.0,12.0,15.0,5.0,0.0
7663,80.0,11.0,15.0,5.0,0.0
7664,65.0,1.0,20.0,6.0,0.0
7665,79.0,12.0,15.0,5.0,0.0
7666,61.0,0.0,20.0,3.0,0.0
7667,49.0,0.0,20.0,4.0,0.0
7668,77.0,11.0,15.0,5.0,0.0
7669,67.0,0.0,20.0,6.0,0.0
7670,61.0,1.0,20.0,6.0,0.0
7671,76.0,14.0,15.0,5.0,0.0
7672,60.0,0.0,20.0,3.0,0.0
7673,48.0,0.0,20.0,4.0,0.0
7674,77.0,6.0,15.0,5.0,0.0
7675,68.0,0.0,20.0,6.0,0.0
7676,60.0,3.0,20.0,6.0,0.0
7677,79.0,3.0,15.0,5.0,0.0
7678,77.0,6.0,15.0,5.0,0.0
7679,58.0,0.0,20.0,3.0,0.0
7680,46.0,0.0,20.0,4.0,0.0
7681,76.0,6.0,15.0,5.0,0.0
7682,61.0,0.0,20.0,6.0,0.0
7683,58.0,1.0,20.0,6.0,0.0
7684,77.0,9.0,15.0,5.0,0.0
7685,79.0,23.0,15.0,5.0,0.0
7686,60.0,0.0,20.0,3.0,0.0
7687,48.0,10.0,20.0,4.0,0.0
7688,79.0,11.0,30.0,5.0,0.0
7689,76.0,0.0,30.0,6.0,0.0
7690,60.0,3.0,30.0,6.0,0.0
7691,48.0,0.0,20.0,3.0,0.0
7692,36.0,0.0,20.0,4.0,0.0
7693,48.0,1.0,20.0,6.0,0.0
7694,77.0,12.0,15.0,5.0,0.0
7695,86.0,3.0,120.0,0.0,0.0
7696,77.0,9.0,90.0,1.0,0.0
7697,71.0,0.0,30.0,2.0,0.0
7698,55.0,0.0,30.0,3.0,0.0
7699,43.0,0.0,30.0,4.0,0.0
7700,77.0,12.0,15.0,5.0,0.0
7701,62.0,0.0,30.0,6.0,0.0
7702,59.0,0.0,30.0,6.0,0.0
7703,55.0,4.0,30.0,6.0,0.0
7704,80.0,12.0,15.0,5.0,0.0
7705,79.0,8.0,15.0,5.0,0.0
7706,77.0,14.0,15.0,5.0,0.0
7707,67.0,6.0,60.0,2.0,0.0
7708,83.0,12.0,15.0,5.0,0.0
7709,84.0,10.0,15.0,5.0,0.0
7710,59.0,0.0,20.0,3.0,0.0
7711,47.0,0.0,20.0,4.0,0.0
7712,86.0,2.0,15.0,5.0,0.0
7713,59.0,1.0,20.0,6.0,0.0
7714,77.0,14.0,15.0,5.0,0.0
7715,75.0,3.0,30.0,1.0,0.0
7716,60.0,0.0,20.0,3.0,0.0
7717,48.0,5.0,20.0,4.0,0.0
7718,75.0,9.0,30.0,5.0,0.0
7719,60.0,6.0,60.0,6.0,0.0
7720,84.0,0.0,20.0,0.0,0.0
7721,72.0,0.0,20.0,2.0,0.0
7722,56.0,0.0,20.0,3.0,0.0
7723,44.0,0.0,20.0,4.0,0.0
7724,56.0,2.0,20.0,6.0,0.0
7725,74.0,6.0,15.0,5.0,0.0
7726,72.0,1.0,15.0,5.0,0.0
7727,74.0,16.0,15.0,5.0,0.0
7728,53.0,0.0,20.0,3.0,0.0
7729,41.0,0.0,20.0,4.0,0.0
7730,74.0,14.0,30.0,5.0,0.0
7731,53.0,10.0,20.0,6.0,0.0
7732,55.0,0.0,20.0,3.0,0.0
7733,43.0,0.0,20.0,4.0,0.0
7734,59.0,0.0,20.0,6.0,0.0
7735,55.0,1.0,20.0,6.0,0.0
7736,72.0,23.0,15.0,5.0,0.0
7737,48.0,0.0,20.0,3.0,0.0
7738,36.0,0.0,20.0,4.0,0.0
7739,72.0,10.0,240.0,5.0,0.0
7740,48.0,1.0,20.0,6.0,0.0
7741,72.0,12.0,15.0,0.0,0.0
7742,75.0,0.0,15.0,0.0,0.0
7743,60.0,0.0,15.0,3.0,0.0
7744,48.0,0.0,15.0,4.0,0.0
7745,60.0,12.0,15.0,6.0,0.0
7746,79.0,0.0,15.0,0.0,0.0
7747,62.0,0.0,15.0,3.0,0.0
7748,50.0,0.0,15.0,4.0,0.0
7749,62.0,12.0,15.0,6.0,0.0
7750,84.0,11.0,15.0,0.0,0.0
7751,63.0,0.0,20.0,3.0,0.0
7752,51.0,0.0,20.0,4.0,0.0
7753,63.0,1.0,20.0,6.0,0.0
7754,82.0,12.0,15.0,0.0,0.0
7755,80.0,11.0,15.0,0.0,0.0
7756,75.0,0.0,20.0,1.0,0.0
7757,72.0,0.0,20.0,2.0,0.0
7758,60.0,0.0,20.0,3.0,0.0
7759,48.0,0.0,20.0,4.0,0.0
7760,60.0,1.0,20.0,6.0,0.0
7761,79.0,5.0,15.0,0.0,0.0
7762,72.0,7.0,15.0,0.0,0.0
7763,74.0,0.0,20.0,1.0,0.0
7764,68.0,0.0,20.0,2.0,0.0
7765,65.0,0.0,20.0,3.0,0.0
7766,53.0,1.0,20.0,4.0,0.0
7767,53.0,11.0,15.0,6.0,0.0
7768,80.0,10.0,15.0,0.0,0.0
7769,65.0,2.0,15.0,6.0,0.0
7770,79.0,10.0,15.0,0.0,0.0
7771,63.0,2.0,15.0,6.0,0.0
7772,77.0,0.0,15.0,0.0,0.0
7773,62.0,5.0,15.0,6.0,0.0
7774,72.0,7.0,15.0,0.0,0.0
7775,75.0,0.0,20.0,1.0,0.0
7776,67.0,0.0,20.0,2.0,0.0
7777,63.0,0.0,20.0,3.0,0.0
7778,51.0,1.0,20.0,4.0,0.0
7779,51.0,11.0,15.0,6.0,0.0
7780,79.0,10.0,15.0,0.0,0.0
7781,63.0,2.0,15.0,6.0,0.0
7782,77.0,10.0,15.0,0.0,0.0
7783,62.0,2.0,15.0,6.0,0.0
7784,75.0,0.0,15.0,0.0,0.0
7785,60.0,5.0,15.0,6.0,0.0
7786,65.0,7.0,15.0,0.0,0.0
7787,77.0,0.0,20.0,1.0,0.0
7788,65.0,0.0,20.0,2.0,0.0
7789,62.0,0.0,20.0,3.0,0.0
7790,50.0,1.0,20.0,4.0,0.0
7791,50.0,11.0,15.0,6.0,0.0
7792,77.0,10.0,15.0,0.0,0.0
7793,62.0,2.0,15.0,6.0,0.0
7794,75.0,10.0,15.0,0.0,0.0
7795,60.0,2.0,15.0,6.0,0.0
7796,74.0,0.0,15.0,0.0,0.0
7797,59.0,2.0,15.0,6.0,0.0
7798,75.0,0.0,20.0,0.0,0.0
7799,75.0,0.0,20.0,1.0,0.0
7800,67.0,0.0,20.0,2.0,0.0
7801,60.0,0.0,20.0,3.0,0.0
7802,48.0,1.0,20.0,4.0,0.0
7803,60.0,11.0,15.0,6.0,0.0
7804,75.0,0.0,15.0,5.0,0.0
7805,58.0,12.0,15.0,6.0,0.0
7806,84.0,1.0,20.0,0.0,0.0
7807,77.0,0.0,15.0,5.0,0.0
7808,56.0,11.0,15.0,6.0,0.0
7809,79.0,0.0,15.0,5.0,0.0
7810,55.0,12.0,15.0,6.0,0.0
7811,84.0,9.0,150.0,0.0,0.0
7812,72.0,0.0,20.0,1.0,0.0
7813,65.0,0.0,20.0,2.0,0.0
7814,53.0,0.0,20.0,3.0,0.0
7815,41.0,0.0,20.0,4.0,0.0
7816,80.0,11.0,15.0,5.0,0.0
7817,53.0,1.0,20.0,6.0,0.0
7818,83.0,12.0,15.0,5.0,0.0
7819,84.0,11.0,15.0,5.0,0.0
7820,65.0,1.0,20.0,6.0,0.0
7821,86.0,12.0,15.0,5.0,0.0
7822,75.0,0.0,20.0,1.0,0.0
7823,67.0,0.0,20.0,2.0,0.0
7824,51.0,0.0,20.0,3.0,0.0
7825,39.0,0.0,20.0,4.0,0.0
7826,79.0,11.0,15.0,5.0,0.0
7827,63.0,1.0,20.0,6.0,0.0
7828,83.0,12.0,15.0,5.0,0.0
7829,84.0,11.0,15.0,5.0,0.0
7830,51.0,1.0,20.0,6.0,0.0
7831,86.0,12.0,15.0,5.0,0.0
7832,77.0,0.0,20.0,1.0,0.0
7833,74.0,0.0,20.0,2.0,0.0
7834,50.0,0.0,20.0,3.0,0.0
7835,38.0,0.0,20.0,4.0,0.0
7836,77.0,11.0,15.0,5.0,0.0
7837,50.0,1.0,20.0,6.0,0.0
7838,83.0,12.0,15.0,5.0,0.0
7839,84.0,11.0,15.0,5.0,0.0
7840,62.0,1.0,20.0,6.0,0.0
7841,86.0,12.0,15.0,5.0,0.0
7842,79.0,0.0,20.0,1.0,0.0
7843,75.0,0.0,20.0,2.0,0.0
7844,48.0,0.0,20.0,3.0,0.0
7845,36.0,0.0,20.0,4.0,0.0
7846,75.0,2.0,15.0,5.0,0.0
7847,60.0,1.0,20.0,6.0,0.0
7848,79.0,12.0,15.0,5.0,0.0
7849,83.0,0.0,20.0,0.0,0.0
7850,77.0,0.0,20.0,1.0,0.0
7851,79.0,0.0,20.0,2.0,0.0
7852,55.0,0.0,20.0,3.0,0.0
7853,43.0,0.0,20.0,4.0,0.0
7854,83.0,11.0,15.0,5.0,0.0
7855,55.0,1.0,20.0,6.0,0.0
7856,86.0,12.0,15.0,5.0,0.0
7857,84.0,3.0,30.0,0.0,0.0
7858,75.0,0.0,20.0,1.0,0.0
7859,72.0,0.0,20.0,2.0,0.0
7860,56.0,0.0,20.0,3.0,0.0
7861,44.0,0.0,20.0,4.0,0.0
7862,84.0,11.0,15.0,5.0,0.0
7863,56.0,1.0,20.0,6.0,0.0
7864,83.0,9.0,15.0,5.0,0.0
7865,84.0,0.0,20.0,1.0,0.0
7866,68.0,0.0,20.0,2.0,0.0
7867,53.0,0.0,20.0,3.0,0.0
7868,41.0,0.0,20.0,4.0,0.0
7869,84.0,11.0,15.0,5.0,0.0
7870,53.0,1.0,20.0,6.0,0.0
7871,89.0,0.0,15.0,0.0,0.0
7872,89.0,23.0,15.0,5.0,0.0
7873,86.0,0.0,30.0,0.0,0.0
7874,84.0,0.0,20.0,1.0,0.0
7875,67.0,0.0,20.0,2.0,0.0
7876,55.0,0.0,20.0,3.0,0.0
7877,43.0,0.0,20.0,4.0,0.0
7878,86.0,14.0,30.0,5.0,0.0
7879,55.0,10.0,20.0,6.0,0.0
7880,83.0,0.0,20.0,1.0,0.0
7881,74.0,0.0,20.0,2.0,0.0
7882,43.0,0.0,20.0,3.0,0.0
7883,31.0,0.0,20.0,4.0,0.0
7884,43.0,1.0,20.0,6.0,0.0
7885,84.0,0.0,15.0,0.0,0.0
7886,84.0,44.0,15.0,5.0,0.0
7887,84.0,0.0,30.0,0.0,0.0
7888,79.0,0.0,30.0,1.0,0.0
7889,75.0,0.0,30.0,2.0,0.0
7890,48.0,0.0,30.0,3.0,0.0
7891,36.0,0.0,30.0,4.0,0.0
7892,84.0,0.0,30.0,5.0,0.0
7893,48.0,51.0,30.0,6.0,0.0
7894,75.0,0.0,20.0,0.0,0.0
7895,68.0,0.0,20.0,1.0,0.0
7896,60.0,0.0,20.0,2.0,0.0
7897,75.0,13.0,20.0,5.0,0.0
7898,80.0,0.0,15.0,0.0,0.0
7899,68.0,0.0,20.0,1.0,0.0
7900,60.0,1.0,20.0,2.0,0.0
7901,44.0,0.0,30.0,3.0,0.0
7902,32.0,3.0,30.0,4.0,0.0
7903,72.0,7.0,15.0,5.0,0.0
7904,79.0,1.0,15.0,0.0,0.0
7905,70.0,4.0,15.0,5.0,0.0
7906,68.0,11.0,15.0,5.0,0.0
7907,80.0,0.0,15.0,0.0,0.0
7908,72.0,0.0,20.0,1.0,0.0
7909,63.0,0.0,20.0,2.0,0.0
7910,63.0,7.0,15.0,5.0,0.0
7911,56.0,1.0,20.0,6.0,0.0
7912,84.0,1.0,15.0,0.0,0.0
7913,68.0,1.0,15.0,5.0,0.0
7914,70.0,11.0,15.0,5.0,0.0
7915,80.0,0.0,15.0,0.0,0.0
7916,72.0,0.0,20.0,1.0,0.0
7917,63.0,1.0,20.0,2.0,0.0
7918,72.0,7.0,15.0,5.0,0.0
7919,44.0,3.0,30.0,6.0,0.0
7920,75.0,1.0,15.0,0.0,0.0
7921,70.0,4.0,15.0,5.0,0.0
7922,68.0,11.0,15.0,5.0,0.0
7923,72.0,0.0,15.0,0.0,0.0
7924,75.0,0.0,20.0,1.0,0.0
7925,68.0,0.0,20.0,2.0,0.0
7926,56.0,0.0,20.0,3.0,0.0
7927,44.0,1.0,20.0,4.0,0.0
7928,63.0,7.0,15.0,5.0,0.0
7929,75.0,1.0,15.0,0.0,0.0
7930,68.0,1.0,15.0,5.0,0.0
7931,70.0,11.0,15.0,5.0,0.0
7932,68.0,0.0,15.0,0.0,0.0
7933,75.0,0.0,20.0,1.0,0.0
7934,68.0,1.0,20.0,2.0,0.0
7935,44.0,0.0,30.0,3.0,0.0
7936,32.0,3.0,30.0,4.0,0.0
7937,72.0,7.0,15.0,5.0,0.0
7938,75.0,1.0,15.0,0.0,0.0
7939,70.0,4.0,15.0,5.0,0.0
7940,68.0,11.0,15.0,5.0,0.0
7941,72.0,0.0,15.0,0.0,0.0
7942,80.0,0.0,20.0,1.0,0.0
7943,72.0,0.0,20.0,2.0,0.0
7944,75.0,7.0,15.0,5.0,0.0
7945,56.0,1.0,20.0,6.0,0.0
7946,75.0,1.0,15.0,0.0,0.0
7947,73.0,1.0,15.0,5.0,0.0
7948,72.0,11.0,15.0,5.0,0.0
7949,68.0,0.0,15.0,0.0,0.0
7950,80.0,0.0,20.0,1.0,0.0
7951,72.0,1.0,20.0,2.0,0.0
7952,80.0,11.0,15.0,5.0,0.0
7953,44.0,3.0,30.0,6.0,0.0
7954,75.0,0.0,15.0,0.0,0.0
7955,75.0,12.0,15.0,5.0,0.0
7956,72.0,0.0,15.0,0.0,0.0
7957,56.0,0.0,20.0,3.0,0.0
7958,44.0,1.0,20.0,4.0,0.0
7959,80.0,8.0,15.0,5.0,0.0
7960,75.0,0.0,15.0,0.0,0.0
7961,82.0,12.0,15.0,5.0,0.0
7962,80.0,0.0,15.0,0.0,0.0
7963,44.0,0.0,30.0,3.0,0.0
7964,32.0,3.0,30.0,4.0,0.0
7965,84.0,12.0,15.0,5.0,0.0
7966,79.0,0.0,15.0,0.0,0.0
7967,82.0,12.0,15.0,5.0,0.0
7968,80.0,0.0,15.0,0.0,0.0
7969,84.0,8.0,15.0,5.0,0.0
7970,56.0,1.0,20.0,6.0,0.0
7971,84.0,0.0,15.0,0.0,0.0
7972,87.0,12.0,15.0,5.0,0.0
7973,80.0,0.0,15.0,0.0,0.0
7974,84.0,12.0,15.0,5.0,0.0
7975,44.0,3.0,30.0,6.0,0.0
7976,75.0,0.0,15.0,0.0,0.0
7977,80.0,12.0,15.0,5.0,0.0
7978,72.0,0.0,15.0,0.0,0.0
7979,56.0,0.0,20.0,3.0,0.0
7980,44.0,1.0,20.0,4.0,0.0
7981,75.0,8.0,15.0,5.0,0.0
7982,75.0,0.0,15.0,0.0,0.0
7983,80.0,12.0,15.0,5.0,0.0
7984,68.0,0.0,15.0,0.0,0.0
7985,44.0,0.0,20.0,3.0,0.0
7986,32.0,1.0,20.0,4.0,0.0
7987,72.0,11.0,15.0,5.0,0.0
7988,75.0,0.0,15.0,0.0,0.0
7989,80.0,12.0,15.0,5.0,0.0
7990,72.0,0.0,15.0,0.0,0.0
7991,56.0,0.0,20.0,3.0,0.0
7992,44.0,0.0,20.0,4.0,0.0
7993,75.0,11.0,15.0,5.0,0.0
7994,44.0,1.0,20.0,6.0,0.0
7995,75.0,0.0,15.0,0.0,0.0
7996,72.0,12.0,15.0,5.0,0.0
7997,80.0,11.0,15.0,0.0,0.0
7998,60.0,0.0,20.0,3.0,0.0
7999,48.0,0.0,20.0,4.0,0.0
8000,68.0,0.0,20.0,5.0,0.0
8001,48.0,1.0,20.0,6.0,0.0
8002,75.0,8.0,15.0,0.0,0.0
8003,82.0,2.0,15.0,0.0,0.0
8004,79.0,0.0,20.0,1.0,0.0
8005,75.0,0.0,20.0,2.0,0.0
8006,63.0,0.0,20.0,3.0,0.0
8007,51.0,0.0,20.0,4.0,0.0
8008,84.0,4.0,15.0,5.0,0.0
8009,51.0,1.0,20.0,6.0,0.0
8010,82.0,6.0,15.0,5.0,0.0
8011,75.0,1.0,15.0,0.0,0.0
8012,80.0,3.0,15.0,5.0,0.0
8013,82.0,7.0,15.0,5.0,0.0
8014,84.0,0.0,20.0,0.0,0.0
8015,80.0,0.0,20.0,1.0,0.0
8016,75.0,0.0,20.0,2.0,0.0
8017,68.0,0.0,20.0,3.0,0.0
8018,56.0,0.0,20.0,4.0,0.0
8019,84.0,15.0,15.0,5.0,0.0
8020,56.0,9.0,20.0,6.0,0.0
8021,82.0,0.0,20.0,0.0,0.0
8022,82.0,0.0,20.0,1.0,0.0
8023,75.0,0.0,20.0,2.0,0.0
8024,67.0,0.0,20.0,3.0,0.0
8025,55.0,0.0,20.0,4.0,0.0
8026,82.0,15.0,15.0,5.0,0.0
8027,55.0,9.0,20.0,6.0,0.0
8028,85.0,0.0,20.0,0.0,0.0
8029,80.0,0.0,20.0,1.0,0.0
8030,68.0,0.0,20.0,2.0,0.0
8031,65.0,0.0,20.0,3.0,0.0
8032,53.0,0.0,20.0,4.0,0.0
8033,85.0,15.0,15.0,5.0,0.0
8034,53.0,9.0,20.0,6.0,0.0
8035,84.0,0.0,20.0,0.0,0.0
8036,80.0,0.0,20.0,1.0,0.0
8037,72.0,0.0,20.0,2.0,0.0
8038,63.0,0.0,20.0,3.0,0.0
8039,51.0,0.0,20.0,4.0,0.0
8040,84.0,15.0,15.0,5.0,0.0
8041,51.0,9.0,20.0,6.0,0.0
8042,82.0,0.0,20.0,0.0,0.0
8043,79.0,0.0,20.0,1.0,0.0
8044,75.0,0.0,20.0,2.0,0.0
8045,61.0,0.0,20.0,3.0,0.0
8046,49.0,0.0,20.0,4.0,0.0
8047,82.0,6.0,15.0,5.0,0.0
8048,49.0,1.0,20.0,6.0,0.0
8049,84.0,9.0,15.0,5.0,0.0
8050,82.0,23.0,15.0,5.0,0.0
8051,80.0,0.0,20.0,0.0,0.0
8052,80.0,0.0,20.0,1.0,0.0
8053,75.0,0.0,20.0,2.0,0.0
8054,60.0,0.0,20.0,3.0,0.0
8055,48.0,0.0,20.0,4.0,0.0
8056,80.0,0.0,20.0,5.0,0.0
8057,48.0,25.0,20.0,6.0,0.0
8058,87.0,17.0,60.0,5.0,0.0
8059,60.0,0.0,15.0,3.0,0.0
8060,48.0,0.0,15.0,4.0,0.0
8061,60.0,12.0,15.0,6.0,0.0
8062,87.0,0.0,20.0,0.0,0.0
8063,82.0,0.0,20.0,1.0,0.0
8064,67.0,1.0,20.0,2.0,0.0
8065,61.0,0.0,15.0,3.0,0.0
8066,49.0,0.0,15.0,4.0,0.0
8067,61.0,11.0,15.0,6.0,0.0
8068,63.0,0.0,15.0,3.0,0.0
8069,51.0,0.0,15.0,4.0,0.0
8070,63.0,6.0,15.0,6.0,0.0
8071,87.0,0.0,20.0,0.0,0.0
8072,84.0,0.0,20.0,1.0,0.0
8073,68.0,0.0,20.0,2.0,0.0
8074,56.0,0.0,20.0,3.0,0.0
8075,44.0,0.0,20.0,4.0,0.0
8076,56.0,1.0,20.0,6.0,0.0
8077,78.0,12.0,15.0,5.0,0.0
8078,84.0,0.0,20.0,0.0,0.0
8079,80.0,0.0,20.0,1.0,0.0
8080,75.0,0.0,20.0,2.0,0.0
8081,68.0,0.0,20.0,3.0,0.0
8082,56.0,0.0,20.0,4.0,0.0
8083,77.0,11.0,15.0,5.0,0.0
8084,68.0,1.0,20.0,6.0,0.0
8085,78.0,23.0,15.0,5.0,0.0
8086,84.0,0.0,20.0,0.0,0.0
8087,80.0,0.0,20.0,1.0,0.0
8088,75.0,0.0,20.0,2.0,0.0
8089,80.0,1.0,20.0,5.0,0.0
8090,56.0,0.0,15.0,3.0,0.0
8091,44.0,0.0,15.0,4.0,0.0
8092,56.0,12.0,15.0,6.0,0.0
8093,80.0,0.0,20.0,0.0,0.0
8094,75.0,0.0,20.0,1.0,0.0
8095,72.0,0.0,20.0,2.0,0.0
8096,58.0,0.0,15.0,3.0,0.0
8097,46.0,0.0,15.0,4.0,0.0
8098,78.0,1.0,20.0,5.0,0.0
8099,58.0,11.0,15.0,6.0,0.0
8100,60.0,0.0,15.0,3.0,0.0
8101,48.0,0.0,15.0,4.0,0.0
8102,60.0,12.0,15.0,6.0,0.0
8103,80.0,0.0,15.0,0.0,0.0
8104,77.0,0.0,30.0,1.0,0.0
8105,68.0,3.0,30.0,2.0,0.0
8106,61.0,0.0,20.0,3.0,0.0
8107,49.0,0.0,20.0,4.0,0.0
8108,77.0,11.0,15.0,5.0,0.0
8109,61.0,1.0,20.0,6.0,0.0
8110,78.0,0.0,15.0,0.0,0.0
8111,75.0,12.0,15.0,5.0,0.0
8112,77.0,0.0,15.0,0.0,0.0
8113,49.0,0.0,20.0,3.0,0.0
8114,37.0,0.0,20.0,4.0,0.0
8115,73.0,8.0,15.0,5.0,0.0
8116,49.0,1.0,20.0,6.0,0.0
8117,75.0,0.0,15.0,0.0,0.0
8118,77.0,23.0,15.0,5.0,0.0
8119,73.0,1.0,20.0,0.0,0.0
8120,82.0,17.0,60.0,5.0,0.0
8121,58.0,0.0,15.0,3.0,0.0
8122,46.0,0.0,15.0,4.0,0.0
8123,58.0,12.0,15.0,6.0,0.0
8124,82.0,0.0,20.0,0.0,0.0
8125,77.0,0.0,20.0,1.0,0.0
8126,73.0,1.0,20.0,2.0,0.0
8127,60.0,0.0,15.0,3.0,0.0
8128,48.0,0.0,15.0,4.0,0.0
8129,60.0,11.0,15.0,6.0,0.0
8130,61.0,0.0,15.0,3.0,0.0
8131,49.0,0.0,15.0,4.0,0.0
8132,61.0,6.0,15.0,6.0,0.0
8133,82.0,0.0,20.0,0.0,0.0
8134,75.0,0.0,20.0,1.0,0.0
8135,70.0,0.0,20.0,2.0,0.0
8136,55.0,0.0,20.0,3.0,0.0
8137,43.0,0.0,20.0,4.0,0.0
8138,55.0,1.0,20.0,6.0,0.0
8139,73.0,12.0,15.0,5.0,0.0
8140,79.0,0.0,20.0,0.0,0.0
8141,75.0,0.0,20.0,1.0,0.0
8142,70.0,0.0,20.0,2.0,0.0
8143,63.0,0.0,20.0,3.0,0.0
8144,51.0,0.0,20.0,4.0,0.0
8145,72.0,11.0,15.0,5.0,0.0
8146,63.0,1.0,20.0,6.0,0.0
8147,73.0,23.0,15.0,5.0,0.0
8148,79.0,0.0,20.0,0.0,0.0
8149,75.0,0.0,20.0,1.0,0.0
8150,70.0,0.0,20.0,2.0,0.0
8151,75.0,1.0,20.0,5.0,0.0
8152,51.0,0.0,15.0,3.0,0.0
8153,39.0,0.0,15.0,4.0,0.0
8154,51.0,12.0,15.0,6.0,0.0
8155,75.0,0.0,20.0,0.0,0.0
8156,70.0,0.0,20.0,1.0,0.0
8157,67.0,0.0,20.0,2.0,0.0
8158,53.0,0.0,15.0,3.0,0.0
8159,41.0,0.0,15.0,4.0,0.0
8160,73.0,1.0,20.0,5.0,0.0
8161,53.0,11.0,15.0,6.0,0.0
8162,55.0,0.0,15.0,3.0,0.0
8163,43.0,0.0,15.0,4.0,0.0
8164,55.0,12.0,15.0,6.0,0.0
8165,75.0,0.0,15.0,0.0,0.0
8166,72.0,0.0,30.0,1.0,0.0
8167,63.0,3.0,30.0,2.0,0.0
8168,56.0,0.0,20.0,3.0,0.0
8169,44.0,0.0,20.0,4.0,0.0
8170,72.0,11.0,15.0,5.0,0.0
8171,56.0,1.0,20.0,6.0,0.0
8172,73.0,0.0,15.0,0.0,0.0
8173,75.0,12.0,15.0,5.0,0.0
8174,72.0,0.0,15.0,0.0,0.0
8175,44.0,0.0,20.0,3.0,0.0
8176,32.0,0.0,20.0,4.0,0.0
8177,80.0,8.0,15.0,5.0,0.0
8178,44.0,1.0,20.0,6.0,0.0
8179,70.0,0.0,15.0,0.0,0.0
8180,82.0,23.0,15.0,5.0,0.0
8181,68.0,1.0,20.0,0.0,0.0
8182,84.0,6.0,60.0,5.0,0.0
8183,80.0,0.0,15.0,1.0,0.0
8184,56.0,0.0,15.0,3.0,0.0
8185,44.0,0.0,15.0,4.0,0.0
8186,56.0,12.0,15.0,6.0,0.0
8187,75.0,1.0,20.0,0.0,0.0
8188,79.0,0.0,15.0,1.0,0.0
8189,58.0,0.0,15.0,3.0,0.0
8190,46.0,0.0,15.0,4.0,0.0
8191,58.0,11.0,15.0,6.0,0.0
8192,80.0,0.0,15.0,1.0,0.0
8193,60.0,0.0,15.0,3.0,0.0
8194,48.0,0.0,15.0,4.0,0.0
8195,60.0,6.0,15.0,6.0,0.0
8196,77.0,11.0,15.0,0.0,0.0
8197,77.0,17.0,60.0,1.0,0.0
8198,61.0,0.0,20.0,3.0,0.0
8199,49.0,0.0,20.0,4.0,0.0
8200,61.0,1.0,20.0,6.0,0.0
8201,80.0,0.0,15.0,0.0,0.0
8202,65.0,0.0,15.0,2.0,0.0
8203,80.0,6.0,15.0,5.0,0.0
8204,82.0,0.0,15.0,0.0,0.0
8205,67.0,1.0,15.0,2.0,0.0
8206,49.0,0.0,20.0,3.0,0.0
8207,37.0,0.0,20.0,4.0,0.0
8208,79.0,4.0,15.0,5.0,0.0
8209,49.0,1.0,20.0,6.0,0.0
8210,80.0,2.0,15.0,5.0,0.0
8211,79.0,10.0,15.0,5.0,0.0
8212,84.0,0.0,15.0,0.0,0.0
8213,68.0,0.0,15.0,2.0,0.0
8214,77.0,6.0,15.0,5.0,0.0
8215,85.0,1.0,20.0,0.0,0.0
8216,70.0,6.0,60.0,2.0,0.0
8217,85.0,5.0,60.0,5.0,0.0
8218,73.0,0.0,15.0,1.0,0.0
8219,58.0,0.0,15.0,3.0,0.0
8220,46.0,0.0,15.0,4.0,0.0
8221,58.0,12.0,15.0,6.0,0.0
8222,82.0,1.0,20.0,0.0,0.0
8223,75.0,0.0,15.0,1.0,0.0
8224,60.0,0.0,15.0,3.0,0.0
8225,48.0,0.0,15.0,4.0,0.0
8226,60.0,11.0,15.0,6.0,0.0
8227,77.0,0.0,15.0,1.0,0.0
8228,61.0,0.0,15.0,3.0,0.0
8229,49.0,0.0,15.0,4.0,0.0
8230,61.0,1.0,15.0,6.0,0.0
8231,79.0,1.0,15.0,0.0,0.0
8232,79.0,17.0,60.0,1.0,0.0
8233,63.0,0.0,20.0,3.0,0.0
8234,51.0,0.0,20.0,4.0,0.0
8235,63.0,1.0,20.0,6.0,0.0
8236,80.0,6.0,15.0,5.0,0.0
8237,82.0,0.0,15.0,0.0,0.0
8238,67.0,1.0,15.0,2.0,0.0
8239,79.0,4.0,15.0,5.0,0.0
8240,77.0,11.0,15.0,5.0,0.0
8241,84.0,0.0,15.0,0.0,0.0
8242,68.0,0.0,15.0,2.0,0.0
8243,51.0,0.0,20.0,3.0,0.0
8244,39.0,0.0,20.0,4.0,0.0
8245,79.0,11.0,15.0,5.0,0.0
8246,51.0,1.0,20.0,6.0,0.0
8247,85.0,0.0,15.0,0.0,0.0
8248,70.0,0.0,15.0,2.0,0.0
8249,82.0,6.0,15.0,5.0,0.0
8250,87.0,1.0,20.0,0.0,0.0
8251,72.0,6.0,60.0,2.0,0.0
8252,87.0,11.0,60.0,5.0,0.0
8253,75.0,0.0,15.0,1.0,0.0
8254,60.0,0.0,15.0,3.0,0.0
8255,48.0,0.0,15.0,4.0,0.0
8256,60.0,12.0,15.0,6.0,0.0
8257,84.0,1.0,20.0,0.0,0.0
8258,77.0,0.0,15.0,1.0,0.0
8259,61.0,0.0,15.0,3.0,0.0
8260,49.0,0.0,15.0,4.0,0.0
8261,61.0,11.0,15.0,6.0,0.0
8262,79.0,0.0,15.0,1.0,0.0
8263,63.0,0.0,15.0,3.0,0.0
8264,51.0,0.0,15.0,4.0,0.0
8265,63.0,6.0,15.0,6.0,0.0
8266,80.0,0.0,20.0,0.0,0.0
8267,80.0,0.0,20.0,1.0,0.0
8268,65.0,0.0,20.0,3.0,0.0
8269,53.0,0.0,20.0,4.0,0.0
8270,65.0,1.0,20.0,6.0,0.0
8271,85.0,12.0,15.0,5.0,0.0
8272,79.0,0.0,20.0,0.0,0.0
8273,84.0,0.0,20.0,1.0,0.0
8274,72.0,0.0,20.0,2.0,0.0
8275,63.0,0.0,20.0,3.0,0.0
8276,51.0,0.0,20.0,4.0,0.0
8277,84.0,11.0,15.0,5.0,0.0
8278,63.0,1.0,20.0,6.0,0.0
8279,82.0,12.0,15.0,5.0,0.0
8280,80.0,0.0,20.0,0.0,0.0
8281,77.0,0.0,20.0,1.0,0.0
8282,72.0,0.0,20.0,2.0,0.0
8283,65.0,0.0,20.0,3.0,0.0
8284,53.0,0.0,20.0,4.0,0.0
8285,80.0,11.0,15.0,5.0,0.0
8286,65.0,1.0,20.0,6.0,0.0
8287,84.0,12.0,15.0,5.0,0.0
8288,77.0,0.0,20.0,0.0,0.0
8289,82.0,0.0,20.0,1.0,0.0
8290,65.0,0.0,20.0,2.0,0.0
8291,62.0,0.0,20.0,3.0,0.0
8292,50.0,0.0,20.0,4.0,0.0
8293,82.0,11.0,15.0,5.0,0.0
8294,62.0,1.0,20.0,6.0,0.0
8295,80.0,12.0,15.0,5.0,0.0
8296,79.0,0.0,20.0,0.0,0.0
8297,70.0,0.0,20.0,1.0,0.0
8298,63.0,0.0,20.0,2.0,0.0
8299,63.0,0.0,20.0,3.0,0.0
8300,51.0,0.0,20.0,4.0,0.0
8301,79.0,11.0,15.0,5.0,0.0
8302,63.0,1.0,20.0,6.0,0.0
8303,80.0,12.0,15.0,5.0,0.0
8304,75.0,0.0,20.0,0.0,0.0
8305,75.0,0.0,20.0,1.0,0.0
8306,67.0,0.0,20.0,2.0,0.0
8307,61.0,0.0,20.0,3.0,0.0
8308,49.0,0.0,20.0,4.0,0.0
8309,82.0,11.0,15.0,5.0,0.0
8310,61.0,1.0,20.0,6.0,0.0
8311,79.0,23.0,15.0,5.0,0.0
8312,60.0,0.0,20.0,3.0,0.0
8313,48.0,0.0,20.0,4.0,0.0
8314,75.0,0.0,20.0,5.0,0.0
8315,60.0,1.0,20.0,6.0,0.0
8316,75.0,12.0,15.0,0.0,0.0
8317,77.0,11.0,15.0,0.0,0.0
8318,58.0,0.0,20.0,3.0,0.0
8319,46.0,0.0,20.0,4.0,0.0
8320,73.0,0.0,20.0,5.0,0.0
8321,58.0,1.0,20.0,6.0,0.0
8322,79.0,12.0,15.0,0.0,0.0
8323,80.0,0.0,15.0,0.0,0.0
8324,56.0,0.0,20.0,3.0,0.0
8325,44.0,0.0,20.0,4.0,0.0
8326,72.0,11.0,15.0,5.0,0.0
8327,56.0,1.0,20.0,6.0,0.0
8328,79.0,0.0,15.0,0.0,0.0
8329,70.0,12.0,15.0,5.0,0.0
8330,80.0,0.0,15.0,0.0,0.0
8331,80.0,0.0,20.0,1.0,0.0
8332,72.0,0.0,20.0,2.0,0.0
8333,68.0,0.0,20.0,3.0,0.0
8334,56.0,0.0,20.0,4.0,0.0
8335,72.0,11.0,15.0,5.0,0.0
8336,68.0,1.0,20.0,6.0,0.0
8337,84.0,0.0,15.0,0.0,0.0
8338,75.0,12.0,15.0,5.0,0.0
8339,80.0,0.0,15.0,0.0,0.0
8340,80.0,0.0,20.0,1.0,0.0
8341,72.0,1.0,20.0,2.0,0.0
8342,72.0,11.0,15.0,5.0,0.0
8343,75.0,0.0,15.0,0.0,0.0
8344,75.0,12.0,15.0,5.0,0.0
8345,72.0,0.0,15.0,0.0,0.0
8346,75.0,0.0,20.0,1.0,0.0
8347,68.0,1.0,20.0,2.0,0.0
8348,56.0,0.0,15.0,3.0,0.0
8349,44.0,0.0,15.0,4.0,0.0
8350,80.0,0.0,15.0,5.0,0.0
8351,56.0,11.0,15.0,6.0,0.0
8352,75.0,0.0,15.0,0.0,0.0
8353,55.0,0.0,15.0,3.0,0.0
8354,43.0,0.0,15.0,4.0,0.0
8355,75.0,0.0,15.0,5.0,0.0
8356,55.0,12.0,15.0,6.0,0.0
8357,68.0,0.0,15.0,0.0,0.0
8358,77.0,0.0,20.0,1.0,0.0
8359,68.0,0.0,20.0,2.0,0.0
8360,53.0,0.0,20.0,3.0,0.0
8361,41.0,0.0,20.0,4.0,0.0
8362,84.0,11.0,15.0,5.0,0.0
8363,53.0,1.0,20.0,6.0,0.0
8364,75.0,0.0,15.0,0.0,0.0
8365,82.0,12.0,15.0,5.0,0.0
8366,72.0,0.0,15.0,0.0,0.0
8367,84.0,0.0,20.0,1.0,0.0
8368,77.0,0.0,20.0,2.0,0.0
8369,65.0,0.0,20.0,3.0,0.0
8370,53.0,0.0,20.0,4.0,0.0
8371,80.0,11.0,15.0,5.0,0.0
8372,65.0,1.0,20.0,6.0,0.0
8373,75.0,0.0,15.0,0.0,0.0
8374,79.0,12.0,15.0,5.0,0.0
8375,68.0,11.0,15.0,0.0,0.0
8376,84.0,0.0,20.0,1.0,0.0
8377,77.0,0.0,20.0,2.0,0.0
8378,80.0,1.0,20.0,5.0,0.0
8379,75.0,0.0,15.0,0.0,0.0
8380,53.0,0.0,15.0,3.0,0.0
8381,41.0,0.0,15.0,4.0,0.0
8382,53.0,12.0,15.0,6.0,0.0
8383,72.0,0.0,15.0,0.0,0.0
8384,80.0,0.0,20.0,1.0,0.0
8385,72.0,1.0,20.0,2.0,0.0
8386,51.0,0.0,15.0,3.0,0.0
8387,39.0,0.0,15.0,4.0,0.0
8388,87.0,3.0,30.0,5.0,0.0
8389,51.0,11.0,15.0,6.0,0.0
8390,75.0,0.0,15.0,0.0,0.0
8391,49.0,0.0,15.0,3.0,0.0
8392,37.0,0.0,15.0,4.0,0.0
8393,49.0,9.0,15.0,6.0,0.0
8394,80.0,11.0,15.0,0.0,0.0
8395,80.0,0.0,20.0,1.0,0.0
8396,72.0,0.0,20.0,2.0,0.0
8397,48.0,0.0,20.0,3.0,0.0
8398,36.0,0.0,20.0,4.0,0.0
8399,48.0,1.0,20.0,6.0,0.0
8400,79.0,0.0,15.0,0.0,0.0
8401,89.0,12.0,15.0,5.0,0.0
8402,80.0,0.0,15.0,0.0,0.0
8403,68.0,0.0,20.0,1.0,0.0
8404,63.0,0.0,20.0,2.0,0.0
8405,60.0,0.0,20.0,3.0,0.0
8406,48.0,0.0,20.0,4.0,0.0
8407,87.0,11.0,15.0,5.0,0.0
8408,60.0,1.0,20.0,6.0,0.0
8409,84.0,0.0,15.0,0.0,0.0
8410,85.0,12.0,15.0,5.0,0.0
8411,80.0,0.0,15.0,0.0,0.0
8412,72.0,0.0,20.0,1.0,0.0
8413,68.0,1.0,20.0,2.0,0.0
8414,84.0,11.0,15.0,5.0,0.0
8415,75.0,0.0,15.0,0.0,0.0
8416,82.0,12.0,15.0,5.0,0.0
8417,72.0,0.0,15.0,0.0,0.0
8418,75.0,0.0,20.0,1.0,0.0
8419,72.0,1.0,20.0,2.0,0.0
8420,48.0,0.0,15.0,3.0,0.0
8421,36.0,0.0,15.0,4.0,0.0
8422,80.0,0.0,15.0,5.0,0.0
8423,48.0,11.0,15.0,6.0,0.0
8424,75.0,0.0,15.0,0.0,0.0
8425,46.0,0.0,15.0,3.0,0.0
8426,34.0,0.0,15.0,4.0,0.0
8427,79.0,0.0,15.0,5.0,0.0
8428,46.0,12.0,15.0,6.0,0.0
8429,68.0,0.0,15.0,0.0,0.0
8430,80.0,0.0,15.0,1.0,0.0
8431,75.0,0.0,20.0,2.0,0.0
8432,44.0,0.0,20.0,3.0,0.0
8433,32.0,0.0,20.0,4.0,0.0
8434,80.0,11.0,15.0,5.0,0.0
8435,44.0,1.0,20.0,6.0,0.0
8436,75.0,0.0,15.0,0.0,0.0
8437,79.0,0.0,15.0,1.0,0.0
8438,75.0,12.0,15.0,5.0,0.0
8439,72.0,0.0,15.0,0.0,0.0
8440,80.0,0.0,15.0,1.0,0.0
8441,63.0,0.0,20.0,2.0,0.0
8442,56.0,0.0,20.0,3.0,0.0
8443,44.0,0.0,20.0,4.0,0.0
8444,72.0,11.0,15.0,5.0,0.0
8445,56.0,1.0,20.0,6.0,0.0
8446,75.0,0.0,15.0,0.0,0.0
8447,79.0,0.0,15.0,1.0,0.0
8448,75.0,12.0,15.0,5.0,0.0
8449,80.0,0.0,15.0,0.0,0.0
8450,80.0,0.0,20.0,1.0,0.0
8451,75.0,0.0,20.0,2.0,0.0
8452,60.0,0.0,20.0,3.0,0.0
8453,48.0,0.0,20.0,4.0,0.0
8454,80.0,11.0,15.0,5.0,0.0
8455,60.0,1.0,20.0,6.0,0.0
8456,75.0,0.0,15.0,0.0,0.0
8457,84.0,12.0,15.0,5.0,0.0
8458,82.0,0.0,15.0,0.0,0.0
8459,79.0,0.0,20.0,1.0,0.0
8460,75.0,0.0,20.0,2.0,0.0
8461,63.0,0.0,20.0,3.0,0.0
8462,51.0,0.0,20.0,4.0,0.0
8463,82.0,11.0,15.0,5.0,0.0
8464,63.0,1.0,20.0,6.0,0.0
8465,75.0,0.0,15.0,0.0,0.0
8466,85.0,23.0,15.0,5.0,0.0
8467,84.0,0.0,20.0,0.0,0.0
8468,80.0,0.0,20.0,1.0,0.0
8469,75.0,0.0,20.0,2.0,0.0
8470,68.0,0.0,20.0,3.0,0.0
8471,56.0,0.0,20.0,4.0,0.0
8472,84.0,0.0,20.0,5.0,0.0
8473,68.0,24.0,20.0,6.0,0.0
8474,82.0,0.0,20.0,0.0,0.0
8475,82.0,0.0,20.0,1.0,0.0
8476,75.0,0.0,20.0,2.0,0.0
8477,67.0,0.0,20.0,3.0,0.0
8478,55.0,0.0,20.0,4.0,0.0
8479,82.0,0.0,20.0,5.0,0.0
8480,67.0,24.0,20.0,6.0,0.0
8481,85.0,0.0,20.0,0.0,0.0
8482,80.0,0.0,20.0,1.0,0.0
8483,68.0,0.0,20.0,2.0,0.0
8484,65.0,0.0,20.0,3.0,0.0
8485,53.0,0.0,20.0,4.0,0.0
8486,85.0,0.0,20.0,5.0,0.0
8487,65.0,24.0,20.0,6.0,0.0
8488,84.0,0.0,20.0,0.0,0.0
8489,80.0,0.0,20.0,1.0,0.0
8490,72.0,0.0,20.0,2.0,0.0
8491,63.0,0.0,20.0,3.0,0.0
8492,51.0,0.0,20.0,4.0,0.0
8493,84.0,0.0,20.0,5.0,0.0
8494,63.0,9.0,20.0,6.0,0.0
8495,82.0,0.0,20.0,0.0,0.0
8496,79.0,0.0,20.0,1.0,0.0
8497,75.0,0.0,20.0,2.0,0.0
8498,61.0,0.0,20.0,3.0,0.0
8499,49.0,0.0,20.0,4.0,0.0
8500,82.0,6.0,15.0,5.0,0.0
8501,61.0,1.0,20.0,6.0,0.0
8502,84.0,9.0,15.0,5.0,0.0
8503,82.0,23.0,15.0,5.0,0.0
8504,80.0,0.0,20.0,0.0,0.0
8505,80.0,0.0,20.0,1.0,0.0
8506,63.0,0.0,20.0,2.0,0.0
8507,60.0,0.0,20.0,3.0,0.0
8508,48.0,0.0,20.0,4.0,0.0
8509,80.0,0.0,20.0,5.0,0.0
8510,60.0,37.0,20.0,6.0,0.0
8511,87.0,0.0,60.0,0.0,0.0
8512,87.0,17.0,60.0,5.0,0.0
8513,80.0,11.0,15.0,1.0,0.0
8514,75.0,0.0,20.0,2.0,0.0
8515,60.0,0.0,20.0,3.0,0.0
8516,48.0,0.0,20.0,4.0,0.0
8517,60.0,1.0,20.0,6.0,0.0
8518,79.0,6.0,15.0,1.0,0.0
8519,80.0,0.0,20.0,1.0,0.0
8520,72.0,0.0,20.0,2.0,0.0
8521,65.0,0.0,20.0,3.0,0.0
8522,53.0,0.0,20.0,4.0,0.0
8523,65.0,1.0,20.0,6.0,0.0
8524,80.0,0.0,15.0,0.0,0.0
8525,80.0,12.0,15.0,5.0,0.0
8526,79.0,0.0,15.0,0.0,0.0
8527,84.0,0.0,20.0,1.0,0.0
8528,75.0,0.0,20.0,2.0,0.0
8529,63.0,0.0,20.0,3.0,0.0
8530,51.0,0.0,20.0,4.0,0.0
8531,79.0,11.0,15.0,5.0,0.0
8532,63.0,1.0,20.0,6.0,0.0
8533,80.0,0.0,15.0,0.0,0.0
8534,80.0,23.0,15.0,5.0,0.0
8535,82.0,0.0,20.0,0.0,0.0
8536,79.0,0.0,20.0,1.0,0.0
8537,75.0,0.0,20.0,2.0,0.0
8538,61.0,0.0,20.0,3.0,0.0
8539,49.0,0.0,20.0,4.0,0.0
8540,82.0,0.0,20.0,5.0,0.0
8541,61.0,24.0,20.0,6.0,0.0
8542,80.0,0.0,20.0,0.0,0.0
8543,80.0,0.0,20.0,1.0,0.0
8544,63.0,0.0,20.0,2.0,0.0
8545,60.0,0.0,20.0,3.0,0.0
8546,48.0,0.0,20.0,4.0,0.0
8547,80.0,0.0,20.0,5.0,0.0
8548,60.0,13.0,20.0,6.0,0.0
8549,79.0,0.0,15.0,0.0,0.0
8550,73.0,0.0,20.0,1.0,0.0
8551,70.0,0.0,20.0,2.0,0.0
8552,58.0,0.0,20.0,3.0,0.0
8553,46.0,0.0,20.0,4.0,0.0
8554,79.0,11.0,15.0,5.0,0.0
8555,58.0,1.0,20.0,6.0,0.0
8556,80.0,0.0,15.0,0.0,0.0
8557,80.0,12.0,15.0,5.0,0.0
8558,82.0,0.0,15.0,0.0,0.0
8559,77.0,0.0,20.0,1.0,0.0
8560,73.0,0.0,20.0,2.0,0.0
8561,56.0,0.0,20.0,3.0,0.0
8562,44.0,0.0,20.0,4.0,0.0
8563,82.0,11.0,15.0,5.0,0.0
8564,56.0,1.0,20.0,6.0,0.0
8565,79.0,0.0,15.0,0.0,0.0
8566,79.0,12.0,15.0,5.0,0.0
8567,75.0,0.0,15.0,0.0,0.0
8568,70.0,0.0,20.0,1.0,0.0
8569,75.0,0.0,20.0,2.0,0.0
8570,55.0,0.0,20.0,3.0,0.0
8571,43.0,0.0,20.0,4.0,0.0
8572,75.0,11.0,15.0,5.0,0.0
8573,55.0,1.0,20.0,6.0,0.0
8574,85.0,2.0,15.0,0.0,0.0
8575,85.0,10.0,15.0,5.0,0.0
8576,84.0,2.0,15.0,0.0,0.0
8577,82.0,0.0,20.0,1.0,0.0
8578,75.0,0.0,20.0,2.0,0.0
8579,51.0,0.0,20.0,3.0,0.0
8580,39.0,0.0,20.0,4.0,0.0
8581,84.0,9.0,15.0,5.0,0.0
8582,51.0,1.0,20.0,6.0,0.0
8583,82.0,0.0,15.0,0.0,0.0
8584,82.0,12.0,15.0,5.0,0.0
8585,84.0,0.0,20.0,0.0,0.0
8586,80.0,0.0,15.0,1.0,0.0
8587,63.0,0.0,20.0,2.0,0.0
8588,56.0,0.0,20.0,3.0,0.0
8589,44.0,0.0,20.0,4.0,0.0
8590,75.0,11.0,15.0,5.0,0.0
8591,56.0,1.0,20.0,6.0,0.0
8592,75.0,2.0,15.0,1.0,0.0
8593,84.0,10.0,15.0,5.0,0.0
8594,73.0,2.0,15.0,1.0,0.0
8595,82.0,10.0,15.0,5.0,0.0
8596,72.0,0.0,15.0,1.0,0.0
8597,80.0,12.0,15.0,5.0,0.0
8598,70.0,0.0,20.0,1.0,0.0
8599,67.0,0.0,20.0,2.0,0.0
8600,55.0,0.0,20.0,3.0,0.0
8601,43.0,0.0,20.0,4.0,0.0
8602,75.0,11.0,15.0,5.0,0.0
8603,55.0,1.0,20.0,6.0,0.0
8604,82.0,2.0,15.0,0.0,0.0
8605,82.0,10.0,15.0,5.0,0.0
8606,80.0,2.0,15.0,0.0,0.0
8607,80.0,10.0,15.0,5.0,0.0
8608,79.0,0.0,15.0,0.0,0.0
8609,79.0,12.0,15.0,5.0,0.0
8610,80.0,0.0,20.0,0.0,0.0
8611,60.0,0.0,20.0,2.0,0.0
8612,53.0,0.0,20.0,3.0,0.0
8613,41.0,0.0,20.0,4.0,0.0
8614,80.0,11.0,15.0,5.0,0.0
8615,53.0,1.0,20.0,6.0,0.0
8616,65.0,2.0,15.0,1.0,0.0
8617,73.0,10.0,15.0,5.0,0.0
8618,63.0,2.0,15.0,1.0,0.0
8619,72.0,10.0,15.0,5.0,0.0
8620,61.0,0.0,15.0,1.0,0.0
8621,70.0,12.0,15.0,5.0,0.0
8622,63.0,0.0,20.0,1.0,0.0
8623,68.0,9.0,90.0,2.0,0.0
8624,48.0,0.0,20.0,3.0,0.0
8625,36.0,0.0,20.0,4.0,0.0
8626,68.0,11.0,15.0,5.0,0.0
8627,48.0,1.0,20.0,6.0,0.0
8628,78.0,2.0,15.0,0.0,0.0
8629,78.0,10.0,15.0,5.0,0.0
8630,77.0,2.0,15.0,0.0,0.0
8631,44.0,0.0,20.0,3.0,0.0
8632,32.0,0.0,20.0,4.0,0.0
8633,77.0,9.0,15.0,5.0,0.0
8634,44.0,1.0,20.0,6.0,0.0
8635,75.0,0.0,15.0,0.0,0.0
8636,75.0,12.0,15.0,5.0,0.0
8637,77.0,0.0,15.0,0.0,0.0
8638,49.0,0.0,20.0,3.0,0.0
8639,37.0,0.0,20.0,4.0,0.0
8640,77.0,11.0,15.0,5.0,0.0
8641,49.0,1.0,20.0,6.0,0.0
8642,75.0,0.0,15.0,0.0,0.0
8643,85.0,12.0,15.0,5.0,0.0
8644,73.0,2.0,15.0,0.0,0.0
8645,68.0,0.0,20.0,1.0,0.0
8646,53.0,0.0,20.0,3.0,0.0
8647,41.0,0.0,20.0,4.0,0.0
8648,77.0,3.0,30.0,5.0,0.0
8649,53.0,1.0,20.0,6.0,0.0
8650,72.0,9.0,15.0,0.0,0.0
8651,70.0,11.0,15.0,0.0,0.0
8652,73.0,0.0,20.0,1.0,0.0
8653,70.0,9.0,90.0,2.0,0.0
8654,49.0,0.0,20.0,3.0,0.0
8655,37.0,0.0,20.0,4.0,0.0
8656,49.0,1.0,20.0,6.0,0.0
8657,84.0,0.0,15.0,0.0,0.0
8658,75.0,12.0,15.0,5.0,0.0
8659,82.0,0.0,15.0,0.0,0.0
8660,77.0,3.0,30.0,1.0,0.0
8661,46.0,0.0,20.0,3.0,0.0
8662,34.0,0.0,20.0,4.0,0.0
8663,73.0,11.0,15.0,5.0,0.0
8664,46.0,1.0,20.0,6.0,0.0
8665,80.0,0.0,15.0,0.0,0.0
8666,72.0,12.0,15.0,5.0,0.0
8667,79.0,0.0,15.0,0.0,0.0
8668,51.0,0.0,20.0,3.0,0.0
8669,39.0,0.0,20.0,4.0,0.0
8670,70.0,8.0,15.0,5.0,0.0
8671,51.0,1.0,20.0,6.0,0.0
8672,77.0,0.0,15.0,0.0,0.0
8673,80.0,12.0,15.0,5.0,0.0
8674,75.0,2.0,15.0,0.0,0.0
8675,70.0,0.0,20.0,1.0,0.0
8676,55.0,0.0,20.0,3.0,0.0
8677,43.0,0.0,20.0,4.0,0.0
8678,79.0,3.0,30.0,5.0,0.0
8679,55.0,1.0,20.0,6.0,0.0
8680,73.0,9.0,15.0,0.0,0.0
8681,72.0,11.0,15.0,0.0,0.0
8682,75.0,0.0,20.0,1.0,0.0
8683,72.0,9.0,90.0,2.0,0.0
8684,51.0,0.0,20.0,3.0,0.0
8685,39.0,0.0,20.0,4.0,0.0
8686,51.0,1.0,20.0,6.0,0.0
8687,85.0,0.0,15.0,0.0,0.0
8688,77.0,12.0,15.0,5.0,0.0
8689,84.0,0.0,15.0,0.0,0.0
8690,79.0,3.0,30.0,1.0,0.0
8691,48.0,0.0,20.0,3.0,0.0
8692,36.0,0.0,20.0,4.0,0.0
8693,75.0,11.0,15.0,5.0,0.0
8694,48.0,1.0,20.0,6.0,0.0
8695,82.0,0.0,15.0,0.0,0.0
8696,73.0,12.0,15.0,5.0,0.0
8697,80.0,0.0,15.0,0.0,0.0
8698,53.0,0.0,20.0,3.0,0.0
8699,41.0,0.0,20.0,4.0,0.0
8700,72.0,8.0,15.0,5.0,0.0
8701,53.0,1.0,20.0,6.0,0.0
8702,79.0,0.0,15.0,0.0,0.0
8703,82.0,12.0,15.0,5.0,0.0
8704,77.0,2.0,15.0,0.0,0.0
8705,72.0,0.0,20.0,1.0,0.0
8706,56.0,0.0,20.0,3.0,0.0
8707,44.0,0.0,20.0,4.0,0.0
8708,80.0,3.0,30.0,5.0,0.0
8709,56.0,1.0,20.0,6.0,0.0
8710,75.0,9.0,15.0,0.0,0.0
8711,73.0,11.0,15.0,0.0,0.0
8712,77.0,0.0,20.0,1.0,0.0
8713,73.0,0.0,20.0,2.0,0.0
8714,53.0,0.0,20.0,3.0,0.0
8715,41.0,0.0,20.0,4.0,0.0
8716,53.0,1.0,20.0,6.0,0.0
8717,87.0,0.0,15.0,0.0,0.0
8718,79.0,12.0,15.0,5.0,0.0
8719,85.0,0.0,15.0,0.0,0.0
8720,80.0,0.0,20.0,1.0,0.0
8721,77.0,0.0,20.0,2.0,0.0
8722,49.0,0.0,20.0,3.0,0.0
8723,37.0,0.0,20.0,4.0,0.0
8724,77.0,11.0,15.0,5.0,0.0
8725,49.0,1.0,20.0,6.0,0.0
8726,84.0,0.0,15.0,0.0,0.0
8727,75.0,12.0,15.0,5.0,0.0
8728,82.0,0.0,15.0,0.0,0.0
8729,82.0,0.0,30.0,1.0,0.0
8730,77.0,10.0,20.0,2.0,0.0
8731,43.0,0.0,30.0,3.0,0.0
8732,31.0,0.0,30.0,4.0,0.0
8733,73.0,12.0,15.0,5.0,0.0
8734,43.0,3.0,30.0,6.0,0.0
8735,80.0,0.0,15.0,0.0,0.0
8736,84.0,2.0,15.0,5.0,0.0
8737,79.0,0.0,15.0,0.0,0.0
8738,75.0,1.0,20.0,2.0,0.0
8739,82.0,8.0,15.0,5.0,0.0
8740,77.0,0.0,15.0,0.0,0.0
8741,80.0,12.0,15.0,5.0,0.0
8742,75.0,0.0,15.0,0.0,0.0
8743,79.0,12.0,15.0,5.0,0.0
8744,73.0,0.0,15.0,0.0,0.0
8745,77.0,12.0,15.0,5.0,0.0
8746,72.0,0.0,15.0,0.0,0.0
8747,82.0,0.0,20.0,1.0,0.0
8748,75.0,0.0,20.0,2.0,0.0
8749,55.0,0.0,20.0,3.0,0.0
8750,43.0,0.0,20.0,4.0,0.0
8751,75.0,11.0,15.0,5.0,0.0
8752,55.0,1.0,20.0,6.0,0.0
8753,70.0,0.0,15.0,0.0,0.0
8754,73.0,23.0,15.0,5.0,0.0
8755,68.0,14.0,30.0,0.0,0.0
8756,75.0,0.0,20.0,1.0,0.0
8757,63.0,0.0,20.0,2.0,0.0
8758,56.0,0.0,20.0,3.0,0.0
8759,44.0,0.0,20.0,4.0,0.0
8760,72.0,0.0,20.0,5.0,0.0
8761,56.0,10.0,20.0,6.0,0.0
8762,77.0,0.0,20.0,1.0,0.0
8763,68.0,0.0,20.0,2.0,0.0
8764,53.0,0.0,20.0,3.0,0.0
8765,41.0,0.0,20.0,4.0,0.0
8766,80.0,0.0,20.0,5.0,0.0
8767,53.0,1.0,20.0,6.0,0.0
8768,70.0,23.0,15.0,0.0,0.0
8769,70.0,5.0,30.0,0.0,0.0
8770,77.0,0.0,20.0,1.0,0.0
8771,65.0,0.0,20.0,2.0,0.0
8772,49.0,0.0,20.0,3.0,0.0
8773,37.0,0.0,20.0,4.0,0.0
8774,70.0,0.0,20.0,5.0,0.0
8775,49.0,9.0,20.0,6.0,0.0
8776,75.0,0.0,20.0,1.0,0.0
8777,70.0,0.0,20.0,2.0,0.0
8778,51.0,0.0,20.0,3.0,0.0
8779,39.0,0.0,20.0,4.0,0.0
8780,80.0,1.0,15.0,5.0,0.0
8781,51.0,1.0,20.0,6.0,0.0
8782,79.0,6.0,15.0,5.0,0.0
8783,68.0,1.0,15.0,0.0,0.0
8784,80.0,3.0,15.0,5.0,0.0
8785,79.0,49.0,15.0,5.0,0.0
8786,68.0,0.0,60.0,0.0,0.0
8787,75.0,0.0,60.0,1.0,0.0
8788,72.0,0.0,60.0,2.0,0.0
8789,44.0,0.0,60.0,3.0,0.0
8790,32.0,0.0,60.0,4.0,0.0
8791,80.0,0.0,60.0,5.0,0.0
8792,44.0,408.0,60.0,6.0,0.0
