,note,step,duration,channel,velocity
0,66.0,0.0,15.0,1.0,0.0
1,66.0,11.0,15.0,3.0,0.0
2,69.0,6.0,60.0,4.0,0.0
3,54.0,0.0,20.0,5.0,0.0
4,42.0,1.0,20.0,6.0,0.0
5,68.0,0.0,15.0,1.0,0.0
6,68.0,12.0,15.0,3.0,0.0
7,69.0,0.0,15.0,1.0,0.0
8,69.0,11.0,15.0,3.0,0.0
9,66.0,0.0,20.0,5.0,0.0
10,54.0,1.0,20.0,6.0,0.0
11,71.0,0.0,15.0,1.0,0.0
12,71.0,17.0,15.0,3.0,0.0
13,73.0,0.0,20.0,1.0,0.0
14,73.0,0.0,20.0,3.0,0.0
15,64.0,0.0,20.0,5.0,0.0
16,52.0,24.0,20.0,6.0,0.0
17,78.0,0.0,20.0,1.0,0.0
18,78.0,0.0,20.0,3.0,0.0
19,71.0,0.0,20.0,4.0,0.0
20,62.0,0.0,20.0,5.0,0.0
21,50.0,13.0,20.0,6.0,0.0
22,77.0,0.0,20.0,1.0,0.0
23,77.0,0.0,20.0,3.0,0.0
24,73.0,1.0,20.0,4.0,0.0
25,61.0,0.0,15.0,5.0,0.0
26,49.0,11.0,15.0,6.0,0.0
27,59.0,0.0,15.0,5.0,0.0
28,47.0,12.0,15.0,6.0,0.0
29,73.0,0.0,20.0,1.0,0.0
30,73.0,0.0,20.0,3.0,0.0
31,68.0,1.0,20.0,4.0,0.0
32,61.0,0.0,15.0,5.0,0.0
33,49.0,11.0,15.0,6.0,0.0
34,62.0,0.0,15.0,5.0,0.0
35,50.0,12.0,15.0,6.0,0.0
36,68.0,0.0,20.0,1.0,0.0
37,68.0,0.0,20.0,3.0,0.0
38,65.0,1.0,20.0,4.0,0.0
39,61.0,0.0,15.0,5.0,0.0
40,49.0,11.0,15.0,6.0,0.0
41,59.0,0.0,15.0,5.0,0.0
42,47.0,12.0,15.0,6.0,0.0
43,71.0,0.0,20.0,1.0,0.0
44,71.0,1.0,20.0,3.0,0.0
45,57.0,0.0,15.0,5.0,0.0
46,45.0,11.0,15.0,6.0,0.0
47,56.0,0.0,15.0,5.0,0.0
48,44.0,12.0,15.0,6.0,0.0
49,70.0,0.0,20.0,1.0,0.0
50,70.0,1.0,20.0,3.0,0.0
51,54.0,0.0,15.0,5.0,0.0
52,42.0,11.0,15.0,6.0,0.0
53,52.0,0.0,15.0,5.0,0.0
54,40.0,12.0,15.0,6.0,0.0
55,66.0,0.0,20.0,1.0,0.0
56,66.0,1.0,20.0,3.0,0.0
57,70.0,0.0,15.0,4.0,0.0
58,54.0,0.0,15.0,5.0,0.0
59,42.0,11.0,15.0,6.0,0.0
60,71.0,0.0,15.0,4.0,0.0
61,55.0,0.0,15.0,5.0,0.0
62,43.0,12.0,15.0,6.0,0.0
63,76.0,0.0,60.0,1.0,0.0
64,76.0,7.0,60.0,3.0,0.0
65,73.0,1.0,20.0,4.0,0.0
66,54.0,0.0,15.0,5.0,0.0
67,42.0,11.0,15.0,6.0,0.0
68,52.0,0.0,15.0,5.0,0.0
69,40.0,12.0,15.0,6.0,0.0
70,66.0,1.0,20.0,4.0,0.0
71,51.0,0.0,15.0,5.0,0.0
72,39.0,11.0,15.0,6.0,0.0
73,49.0,0.0,15.0,5.0,0.0
74,37.0,12.0,15.0,6.0,0.0
75,71.0,5.0,15.0,4.0,0.0
76,47.0,0.0,180.0,5.0,0.0
77,35.0,1.0,180.0,6.0,0.0
78,70.0,12.0,15.0,4.0,0.0
79,75.0,0.0,15.0,1.0,0.0
80,75.0,0.0,15.0,3.0,0.0
81,71.0,12.0,15.0,4.0,0.0
82,73.0,0.0,15.0,1.0,0.0
83,73.0,0.0,15.0,3.0,0.0
84,73.0,12.0,15.0,4.0,0.0
85,75.0,0.0,20.0,1.0,0.0
86,75.0,1.0,20.0,3.0,0.0
87,71.0,11.0,15.0,4.0,0.0
88,69.0,12.0,15.0,4.0,0.0
89,71.0,0.0,20.0,1.0,0.0
90,71.0,1.0,20.0,3.0,0.0
91,68.0,11.0,15.0,4.0,0.0
92,66.0,12.0,15.0,4.0,0.0
93,68.0,0.0,20.0,1.0,0.0
94,68.0,1.0,20.0,3.0,0.0
95,65.0,11.0,15.0,4.0,0.0
96,66.0,12.0,15.0,4.0,0.0
97,71.0,0.0,20.0,1.0,0.0
98,71.0,1.0,20.0,3.0,0.0
99,68.0,11.0,15.0,4.0,0.0
100,69.0,12.0,15.0,4.0,0.0
101,74.0,0.0,20.0,1.0,0.0
102,74.0,1.0,20.0,3.0,0.0
103,71.0,11.0,15.0,4.0,0.0
104,73.0,12.0,15.0,4.0,0.0
105,66.0,0.0,20.0,1.0,0.0
106,66.0,0.0,20.0,3.0,0.0
107,74.0,11.0,15.0,4.0,0.0
108,71.0,23.0,15.0,4.0,0.0
109,65.0,0.0,20.0,1.0,0.0
110,65.0,0.0,20.0,3.0,0.0
111,73.0,13.0,20.0,4.0,0.0
112,73.0,0.0,20.0,1.0,0.0
113,73.0,0.0,20.0,3.0,0.0
114,65.0,1.0,20.0,4.0,0.0
115,45.0,0.0,15.0,5.0,0.0
116,33.0,11.0,15.0,6.0,0.0
117,44.0,0.0,15.0,5.0,0.0
118,32.0,23.0,15.0,6.0,0.0
119,66.0,0.0,20.0,1.0,0.0
120,66.0,0.0,20.0,3.0,0.0
121,66.0,6.0,90.0,4.0,0.0
122,45.0,0.0,20.0,5.0,0.0
123,33.0,24.0,20.0,6.0,0.0
124,71.0,0.0,20.0,1.0,0.0
125,71.0,0.0,20.0,3.0,0.0
126,50.0,0.0,20.0,5.0,0.0
127,38.0,24.0,20.0,6.0,0.0
128,69.0,0.0,40.0,1.0,0.0
129,69.0,3.0,40.0,3.0,0.0
130,49.0,0.0,20.0,5.0,0.0
131,37.0,15.0,20.0,6.0,0.0
132,47.0,0.0,20.0,5.0,0.0
133,35.0,9.0,20.0,6.0,0.0
134,68.0,0.0,15.0,1.0,0.0
135,68.0,6.0,15.0,3.0,0.0
136,65.0,2.0,40.0,4.0,0.0
137,49.0,0.0,20.0,5.0,0.0
138,37.0,3.0,20.0,6.0,0.0
139,69.0,0.0,15.0,1.0,0.0
140,69.0,6.0,15.0,3.0,0.0
141,68.0,0.0,15.0,1.0,0.0
142,68.0,3.0,15.0,3.0,0.0
143,69.0,0.0,15.0,1.0,0.0
144,69.0,6.0,15.0,3.0,0.0
145,68.0,0.0,15.0,1.0,0.0
146,68.0,6.0,15.0,3.0,0.0
147,49.0,0.0,20.0,5.0,0.0
148,37.0,2.0,20.0,6.0,0.0
149,69.0,0.0,15.0,1.0,0.0
150,69.0,4.0,15.0,3.0,0.0
151,68.0,0.0,15.0,1.0,0.0
152,68.0,2.0,15.0,3.0,0.0
153,69.0,0.0,15.0,1.0,0.0
154,69.0,1.0,15.0,3.0,0.0
155,68.0,0.0,15.0,1.0,0.0
156,68.0,11.0,15.0,3.0,0.0
157,66.0,0.0,15.0,1.0,0.0
158,66.0,11.0,15.0,3.0,0.0
159,66.0,0.0,20.0,4.0,0.0
160,42.0,0.0,20.0,5.0,0.0
161,30.0,1.0,20.0,6.0,0.0
162,65.0,0.0,15.0,1.0,0.0
163,65.0,12.0,15.0,3.0,0.0
164,66.0,0.0,15.0,1.0,0.0
165,66.0,11.0,15.0,3.0,0.0
166,61.0,3.0,30.0,4.0,0.0
167,54.0,0.0,20.0,5.0,0.0
168,42.0,1.0,20.0,6.0,0.0
169,68.0,0.0,15.0,1.0,0.0
170,68.0,9.0,15.0,3.0,0.0
171,70.0,0.0,15.0,1.0,0.0
172,70.0,11.0,15.0,3.0,0.0
173,52.0,0.0,20.0,5.0,0.0
174,40.0,1.0,20.0,6.0,0.0
175,72.0,0.0,15.0,1.0,0.0
176,72.0,0.0,15.0,3.0,0.0
177,63.0,12.0,15.0,4.0,0.0
178,73.0,0.0,15.0,1.0,0.0
179,73.0,0.0,15.0,3.0,0.0
180,64.0,11.0,15.0,4.0,0.0
181,51.0,0.0,20.0,5.0,0.0
182,39.0,1.0,20.0,6.0,0.0
183,75.0,0.0,15.0,1.0,0.0
184,75.0,0.0,15.0,3.0,0.0
185,66.0,12.0,15.0,4.0,0.0
186,73.0,0.0,15.0,0.0,0.0
187,76.0,0.0,15.0,1.0,0.0
188,73.0,0.0,15.0,2.0,0.0
189,76.0,11.0,15.0,3.0,0.0
190,68.0,0.0,20.0,4.0,0.0
191,49.0,0.0,20.0,5.0,0.0
192,37.0,1.0,20.0,6.0,0.0
193,75.0,0.0,15.0,0.0,0.0
194,75.0,0.0,15.0,1.0,0.0
195,75.0,0.0,15.0,2.0,0.0
196,75.0,12.0,15.0,3.0,0.0
197,76.0,0.0,15.0,0.0,0.0
198,73.0,0.0,15.0,1.0,0.0
199,76.0,0.0,15.0,2.0,0.0
200,73.0,11.0,15.0,3.0,0.0
201,64.0,0.0,20.0,4.0,0.0
202,61.0,0.0,20.0,5.0,0.0
203,49.0,1.0,20.0,6.0,0.0
204,78.0,0.0,15.0,0.0,0.0
205,75.0,0.0,15.0,1.0,0.0
206,78.0,0.0,15.0,2.0,0.0
207,75.0,12.0,15.0,3.0,0.0
208,80.0,0.0,20.0,0.0,0.0
209,76.0,0.0,15.0,1.0,0.0
210,80.0,0.0,20.0,2.0,0.0
211,76.0,11.0,15.0,3.0,0.0
212,61.0,3.0,40.0,4.0,0.0
213,59.0,0.0,20.0,5.0,0.0
214,47.0,1.0,20.0,6.0,0.0
215,75.0,0.0,15.0,1.0,0.0
216,75.0,12.0,15.0,3.0,0.0
217,85.0,0.0,20.0,0.0,0.0
218,76.0,0.0,15.0,1.0,0.0
219,85.0,0.0,20.0,2.0,0.0
220,76.0,8.0,15.0,3.0,0.0
221,57.0,0.0,20.0,5.0,0.0
222,45.0,1.0,20.0,6.0,0.0
223,78.0,0.0,15.0,1.0,0.0
224,78.0,12.0,15.0,3.0,0.0
225,84.0,0.0,20.0,0.0,0.0
226,80.0,0.0,90.0,1.0,0.0
227,84.0,0.0,20.0,2.0,0.0
228,80.0,0.0,90.0,3.0,0.0
229,63.0,1.0,20.0,4.0,0.0
230,56.0,0.0,15.0,5.0,0.0
231,44.0,11.0,15.0,6.0,0.0
232,54.0,0.0,15.0,5.0,0.0
233,42.0,12.0,15.0,6.0,0.0
234,80.0,0.0,20.0,0.0,0.0
235,80.0,0.0,20.0,2.0,0.0
236,68.0,1.0,20.0,4.0,0.0
237,56.0,0.0,15.0,5.0,0.0
238,44.0,11.0,15.0,6.0,0.0
239,57.0,0.0,15.0,5.0,0.0
240,45.0,12.0,15.0,6.0,0.0
241,75.0,0.0,20.0,0.0,0.0
242,75.0,1.0,20.0,2.0,0.0
243,72.0,3.0,40.0,4.0,0.0
244,56.0,0.0,15.0,5.0,0.0
245,44.0,11.0,15.0,6.0,0.0
246,54.0,0.0,15.0,5.0,0.0
247,42.0,12.0,15.0,6.0,0.0
248,78.0,0.0,20.0,0.0,0.0
249,78.0,1.0,20.0,2.0,0.0
250,52.0,0.0,15.0,5.0,0.0
251,40.0,8.0,15.0,6.0,0.0
252,51.0,0.0,15.0,5.0,0.0
253,39.0,12.0,15.0,6.0,0.0
254,77.0,0.0,20.0,0.0,0.0
255,77.0,0.0,20.0,2.0,0.0
256,73.0,1.0,20.0,4.0,0.0
257,49.0,0.0,15.0,5.0,0.0
258,37.0,11.0,15.0,6.0,0.0
259,78.0,0.0,15.0,1.0,0.0
260,78.0,0.0,15.0,3.0,0.0
261,48.0,0.0,15.0,5.0,0.0
262,36.0,12.0,15.0,6.0,0.0
263,73.0,0.0,20.0,0.0,0.0
264,77.0,0.0,15.0,1.0,0.0
265,73.0,0.0,20.0,2.0,0.0
266,77.0,0.0,15.0,3.0,0.0
267,68.0,1.0,20.0,4.0,0.0
268,49.0,0.0,15.0,5.0,0.0
269,37.0,11.0,15.0,6.0,0.0
270,75.0,0.0,15.0,1.0,0.0
271,75.0,0.0,15.0,3.0,0.0
272,51.0,0.0,15.0,5.0,0.0
273,39.0,12.0,15.0,6.0,0.0
274,83.0,0.0,60.0,0.0,0.0
275,77.0,0.0,15.0,1.0,0.0
276,83.0,7.0,60.0,2.0,0.0
277,77.0,0.0,15.0,3.0,0.0
278,80.0,1.0,20.0,4.0,0.0
279,49.0,0.0,15.0,5.0,0.0
280,37.0,11.0,15.0,6.0,0.0
281,73.0,0.0,15.0,1.0,0.0
282,73.0,0.0,15.0,3.0,0.0
283,47.0,0.0,15.0,5.0,0.0
284,35.0,12.0,15.0,6.0,0.0
285,75.0,0.0,15.0,1.0,0.0
286,75.0,0.0,15.0,3.0,0.0
287,73.0,1.0,20.0,4.0,0.0
288,45.0,0.0,15.0,5.0,0.0
289,33.0,11.0,15.0,6.0,0.0
290,77.0,0.0,15.0,1.0,0.0
291,77.0,0.0,15.0,3.0,0.0
292,44.0,0.0,15.0,5.0,0.0
293,32.0,12.0,15.0,6.0,0.0
294,78.0,0.0,90.0,1.0,0.0
295,78.0,0.0,90.0,3.0,0.0
296,42.0,0.0,15.0,5.0,0.0
297,30.0,5.0,15.0,6.0,0.0
298,53.0,0.0,15.0,5.0,0.0
299,41.0,12.0,15.0,6.0,0.0
300,82.0,0.0,15.0,0.0,0.0
301,82.0,0.0,15.0,2.0,0.0
302,73.0,1.0,20.0,4.0,0.0
303,54.0,0.0,15.0,5.0,0.0
304,42.0,11.0,15.0,6.0,0.0
305,80.0,0.0,15.0,0.0,0.0
306,80.0,0.0,15.0,2.0,0.0
307,56.0,0.0,15.0,5.0,0.0
308,44.0,12.0,15.0,6.0,0.0
309,82.0,0.0,20.0,0.0,0.0
310,82.0,0.0,20.0,2.0,0.0
311,61.0,1.0,20.0,4.0,0.0
312,54.0,0.0,15.0,5.0,0.0
313,42.0,11.0,15.0,6.0,0.0
314,52.0,0.0,15.0,5.0,0.0
315,40.0,12.0,15.0,6.0,0.0
316,78.0,0.0,20.0,0.0,0.0
317,78.0,0.0,20.0,2.0,0.0
318,66.0,1.0,20.0,4.0,0.0
319,51.0,0.0,15.0,5.0,0.0
320,39.0,11.0,15.0,6.0,0.0
321,49.0,0.0,15.0,5.0,0.0
322,37.0,23.0,15.0,6.0,0.0
323,75.0,0.0,20.0,0.0,0.0
324,75.0,1.0,20.0,2.0,0.0
325,48.0,0.0,40.0,5.0,0.0
326,36.0,3.0,40.0,6.0,0.0
327,76.0,0.0,15.0,1.0,0.0
328,76.0,12.0,15.0,3.0,0.0
329,78.0,0.0,20.0,0.0,0.0
330,75.0,0.0,15.0,1.0,0.0
331,78.0,0.0,20.0,2.0,0.0
332,75.0,8.0,15.0,3.0,0.0
333,69.0,1.0,20.0,4.0,0.0
334,76.0,0.0,15.0,1.0,0.0
335,76.0,12.0,15.0,3.0,0.0
336,81.0,0.0,20.0,0.0,0.0
337,78.0,0.0,15.0,1.0,0.0
338,81.0,0.0,20.0,2.0,0.0
339,78.0,11.0,15.0,3.0,0.0
340,63.0,1.0,20.0,4.0,0.0
341,80.0,0.0,15.0,1.0,0.0
342,80.0,12.0,15.0,3.0,0.0
343,73.0,0.0,20.0,0.0,0.0
344,81.0,0.0,15.0,1.0,0.0
345,73.0,0.0,20.0,2.0,0.0
346,81.0,11.0,15.0,3.0,0.0
347,66.0,1.0,20.0,4.0,0.0
348,54.0,0.0,40.0,5.0,0.0
349,42.0,3.0,40.0,6.0,0.0
350,78.0,0.0,15.0,1.0,0.0
351,78.0,12.0,15.0,3.0,0.0
352,72.0,0.0,20.0,0.0,0.0
353,80.0,0.0,15.0,1.0,0.0
354,72.0,1.0,20.0,2.0,0.0
355,80.0,8.0,15.0,3.0,0.0
356,81.0,0.0,15.0,1.0,0.0
357,81.0,12.0,15.0,3.0,0.0
358,80.0,0.0,20.0,0.0,0.0
359,80.0,0.0,15.0,1.0,0.0
360,80.0,0.0,20.0,2.0,0.0
361,80.0,0.0,15.0,3.0,0.0
362,60.0,1.0,20.0,4.0,0.0
363,52.0,0.0,15.0,5.0,0.0
364,40.0,11.0,15.0,6.0,0.0
365,78.0,0.0,15.0,1.0,0.0
366,78.0,0.0,15.0,3.0,0.0
367,51.0,0.0,15.0,5.0,0.0
368,39.0,12.0,15.0,6.0,0.0
369,73.0,0.0,20.0,0.0,0.0
370,76.0,0.0,15.0,1.0,0.0
371,73.0,0.0,20.0,2.0,0.0
372,76.0,11.0,15.0,3.0,0.0
373,56.0,0.0,20.0,4.0,0.0
374,52.0,0.0,20.0,5.0,0.0
375,40.0,1.0,20.0,6.0,0.0
376,75.0,0.0,15.0,1.0,0.0
377,75.0,12.0,15.0,3.0,0.0
378,78.0,0.0,20.0,0.0,0.0
379,73.0,0.0,15.0,1.0,0.0
380,78.0,0.0,20.0,2.0,0.0
381,73.0,11.0,15.0,3.0,0.0
382,61.0,0.0,20.0,4.0,0.0
383,57.0,0.0,20.0,5.0,0.0
384,45.0,1.0,20.0,6.0,0.0
385,72.0,0.0,15.0,1.0,0.0
386,72.0,23.0,15.0,3.0,0.0
387,76.0,0.0,40.0,0.0,0.0
388,73.0,0.0,20.0,1.0,0.0
389,76.0,3.0,40.0,2.0,0.0
390,73.0,0.0,20.0,3.0,0.0
391,68.0,0.0,20.0,4.0,0.0
392,56.0,0.0,20.0,5.0,0.0
393,44.0,21.0,20.0,6.0,0.0
394,85.0,0.0,40.0,1.0,0.0
395,85.0,0.0,40.0,3.0,0.0
396,69.0,3.0,40.0,4.0,0.0
397,54.0,0.0,20.0,5.0,0.0
398,42.0,9.0,20.0,6.0,0.0
399,75.0,0.0,15.0,0.0,0.0
400,75.0,6.0,15.0,2.0,0.0
401,56.0,0.0,20.0,5.0,0.0
402,44.0,3.0,20.0,6.0,0.0
403,76.0,0.0,15.0,0.0,0.0
404,76.0,6.0,15.0,2.0,0.0
405,75.0,0.0,15.0,0.0,0.0
406,75.0,0.0,15.0,2.0,0.0
407,76.0,0.0,15.0,0.0,0.0
408,76.0,6.0,15.0,2.0,0.0
409,75.0,0.0,15.0,0.0,0.0
410,84.0,0.0,20.0,1.0,0.0
411,75.0,4.0,15.0,2.0,0.0
412,84.0,0.0,20.0,3.0,0.0
413,68.0,2.0,15.0,4.0,0.0
414,44.0,0.0,20.0,5.0,0.0
415,32.0,1.0,20.0,6.0,0.0
416,76.0,0.0,15.0,0.0,0.0
417,76.0,4.0,15.0,2.0,0.0
418,75.0,0.0,15.0,0.0,0.0
419,75.0,4.0,15.0,2.0,0.0
420,66.0,1.0,15.0,4.0,0.0
421,76.0,0.0,15.0,0.0,0.0
422,76.0,1.0,15.0,2.0,0.0
423,75.0,0.0,15.0,0.0,0.0
424,75.0,11.0,15.0,2.0,0.0
425,73.0,0.0,15.0,0.0,0.0
426,85.0,0.0,20.0,1.0,0.0
427,73.0,11.0,15.0,2.0,0.0
428,85.0,0.0,20.0,3.0,0.0
429,64.0,1.0,20.0,4.0,0.0
430,49.0,0.0,40.0,5.0,0.0
431,37.0,3.0,40.0,6.0,0.0
432,72.0,0.0,15.0,0.0,0.0
433,72.0,12.0,15.0,2.0,0.0
434,73.0,0.0,15.0,0.0,0.0
435,73.0,0.0,15.0,1.0,0.0
436,73.0,0.0,15.0,2.0,0.0
437,73.0,8.0,15.0,3.0,0.0
438,68.0,1.0,20.0,4.0,0.0
439,75.0,0.0,15.0,0.0,0.0
440,72.0,0.0,15.0,1.0,0.0
441,75.0,0.0,15.0,2.0,0.0
442,72.0,12.0,15.0,3.0,0.0
443,76.0,0.0,15.0,0.0,0.0
444,73.0,0.0,15.0,1.0,0.0
445,76.0,0.0,15.0,2.0,0.0
446,73.0,11.0,15.0,3.0,0.0
447,73.0,1.0,20.0,4.0,0.0
448,78.0,0.0,15.0,0.0,0.0
449,75.0,0.0,15.0,1.0,0.0
450,78.0,0.0,15.0,2.0,0.0
451,75.0,12.0,15.0,3.0,0.0
452,80.0,0.0,15.0,0.0,0.0
453,76.0,0.0,15.0,1.0,0.0
454,80.0,0.0,15.0,2.0,0.0
455,76.0,11.0,15.0,3.0,0.0
456,61.0,1.0,20.0,4.0,0.0
457,81.0,0.0,15.0,0.0,0.0
458,73.0,0.0,15.0,1.0,0.0
459,81.0,0.0,15.0,2.0,0.0
460,73.0,12.0,15.0,3.0,0.0
461,83.0,0.0,20.0,0.0,0.0
462,75.0,0.0,15.0,1.0,0.0
463,83.0,1.0,20.0,2.0,0.0
464,75.0,11.0,15.0,3.0,0.0
465,68.0,3.0,40.0,4.0,0.0
466,73.0,0.0,15.0,1.0,0.0
467,73.0,12.0,15.0,3.0,0.0
468,71.0,0.0,20.0,0.0,0.0
469,75.0,0.0,15.0,1.0,0.0
470,71.0,1.0,20.0,2.0,0.0
471,75.0,8.0,15.0,3.0,0.0
472,76.0,0.0,15.0,1.0,0.0
473,76.0,12.0,15.0,3.0,0.0
474,83.0,0.0,60.0,0.0,0.0
475,75.0,0.0,15.0,1.0,0.0
476,83.0,7.0,60.0,2.0,0.0
477,75.0,12.0,15.0,3.0,0.0
478,77.0,0.0,15.0,1.0,0.0
479,77.0,12.0,15.0,3.0,0.0
480,78.0,0.0,15.0,1.0,0.0
481,78.0,11.0,15.0,3.0,0.0
482,56.0,1.0,20.0,4.0,0.0
483,75.0,0.0,15.0,1.0,0.0
484,75.0,12.0,15.0,3.0,0.0
485,77.0,0.0,15.0,1.0,0.0
486,77.0,5.0,15.0,3.0,0.0
487,61.0,3.0,40.0,4.0,0.0
488,75.0,0.0,15.0,1.0,0.0
489,75.0,12.0,15.0,3.0,0.0
490,80.0,0.0,20.0,0.0,0.0
491,77.0,0.0,15.0,1.0,0.0
492,80.0,1.0,20.0,2.0,0.0
493,77.0,8.0,15.0,3.0,0.0
494,78.0,0.0,15.0,1.0,0.0
495,78.0,12.0,15.0,3.0,0.0
496,73.0,0.0,20.0,0.0,0.0
497,77.0,0.0,15.0,1.0,0.0
498,73.0,1.0,20.0,2.0,0.0
499,77.0,11.0,15.0,3.0,0.0
500,78.0,0.0,15.0,1.0,0.0
501,78.0,12.0,15.0,3.0,0.0
502,83.0,0.0,20.0,0.0,0.0
503,80.0,0.0,15.0,1.0,0.0
504,83.0,0.0,20.0,2.0,0.0
505,80.0,11.0,15.0,3.0,0.0
506,65.0,1.0,20.0,4.0,0.0
507,77.0,0.0,15.0,1.0,0.0
508,77.0,12.0,15.0,3.0,0.0
509,81.0,0.0,15.0,0.0,0.0
510,78.0,0.0,20.0,1.0,0.0
511,81.0,0.0,15.0,2.0,0.0
512,78.0,1.0,20.0,3.0,0.0
513,73.0,0.0,15.0,4.0,0.0
514,54.0,0.0,15.0,5.0,0.0
515,42.0,11.0,15.0,6.0,0.0
516,80.0,0.0,15.0,0.0,0.0
517,80.0,0.0,15.0,2.0,0.0
518,71.0,0.0,15.0,4.0,0.0
519,56.0,0.0,15.0,5.0,0.0
520,44.0,12.0,15.0,6.0,0.0
521,78.0,0.0,15.0,0.0,0.0
522,85.0,0.0,20.0,1.0,0.0
523,78.0,0.0,15.0,2.0,0.0
524,85.0,1.0,20.0,3.0,0.0
525,69.0,0.0,15.0,4.0,0.0
526,57.0,0.0,15.0,5.0,0.0
527,45.0,11.0,15.0,6.0,0.0
528,80.0,0.0,15.0,0.0,0.0
529,80.0,0.0,15.0,2.0,0.0
530,68.0,0.0,15.0,4.0,0.0
531,59.0,0.0,15.0,5.0,0.0
532,47.0,12.0,15.0,6.0,0.0
533,81.0,0.0,15.0,0.0,0.0
534,81.0,0.0,15.0,2.0,0.0
535,66.0,11.0,15.0,4.0,0.0
536,61.0,0.0,20.0,5.0,0.0
537,49.0,1.0,20.0,6.0,0.0
538,80.0,0.0,15.0,0.0,0.0
539,80.0,0.0,15.0,2.0,0.0
540,65.0,12.0,15.0,4.0,0.0
541,81.0,0.0,15.0,0.0,0.0
542,81.0,0.0,20.0,1.0,0.0
543,81.0,0.0,15.0,2.0,0.0
544,81.0,0.0,20.0,3.0,0.0
545,66.0,11.0,15.0,4.0,0.0
546,66.0,0.0,20.0,5.0,0.0
547,54.0,1.0,20.0,6.0,0.0
548,83.0,0.0,15.0,0.0,0.0
549,83.0,0.0,15.0,2.0,0.0
550,68.0,12.0,15.0,4.0,0.0
551,85.0,0.0,90.0,0.0,0.0
552,80.0,0.0,15.0,1.0,0.0
553,85.0,0.0,90.0,2.0,0.0
554,80.0,11.0,15.0,3.0,0.0
555,61.0,0.0,20.0,4.0,0.0
556,65.0,0.0,20.0,5.0,0.0
557,53.0,1.0,20.0,6.0,0.0
558,78.0,0.0,15.0,1.0,0.0
559,78.0,12.0,15.0,3.0,0.0
560,77.0,0.0,15.0,1.0,0.0
561,77.0,11.0,15.0,3.0,0.0
562,68.0,0.0,20.0,4.0,0.0
563,61.0,0.0,20.0,5.0,0.0
564,49.0,1.0,20.0,6.0,0.0
565,75.0,0.0,15.0,1.0,0.0
566,75.0,12.0,15.0,3.0,0.0
567,77.0,0.0,15.0,1.0,0.0
568,77.0,11.0,15.0,3.0,0.0
569,71.0,0.0,20.0,4.0,0.0
570,56.0,0.0,20.0,5.0,0.0
571,44.0,1.0,20.0,6.0,0.0
572,73.0,0.0,15.0,1.0,0.0
573,73.0,12.0,15.0,3.0,0.0
574,75.0,0.0,15.0,1.0,0.0
575,75.0,11.0,15.0,3.0,0.0
576,68.0,0.0,20.0,4.0,0.0
577,59.0,0.0,20.0,5.0,0.0
578,47.0,1.0,20.0,6.0,0.0
579,77.0,0.0,15.0,1.0,0.0
580,77.0,23.0,15.0,3.0,0.0
581,78.0,0.0,90.0,1.0,0.0
582,78.0,17.0,90.0,3.0,0.0
583,58.0,0.0,20.0,5.0,0.0
584,46.0,1.0,20.0,6.0,0.0
585,83.0,0.0,15.0,0.0,0.0
586,83.0,12.0,15.0,2.0,0.0
587,82.0,0.0,15.0,0.0,0.0
588,82.0,11.0,15.0,2.0,0.0
589,73.0,0.0,20.0,4.0,0.0
590,54.0,0.0,20.0,5.0,0.0
591,42.0,1.0,20.0,6.0,0.0
592,80.0,0.0,15.0,0.0,0.0
593,80.0,12.0,15.0,2.0,0.0
594,82.0,0.0,15.0,0.0,0.0
595,82.0,11.0,15.0,2.0,0.0
596,61.0,1.0,20.0,4.0,0.0
597,64.0,0.0,60.0,5.0,0.0
598,52.0,7.0,60.0,6.0,0.0
599,78.0,0.0,15.0,0.0,0.0
600,78.0,12.0,15.0,2.0,0.0
601,80.0,0.0,15.0,0.0,0.0
602,80.0,11.0,15.0,2.0,0.0
603,73.0,1.0,20.0,4.0,0.0
604,82.0,0.0,15.0,0.0,0.0
605,82.0,0.0,15.0,2.0,0.0
606,83.0,0.0,90.0,0.0,0.0
607,83.0,0.0,90.0,2.0,0.0
608,76.0,0.0,15.0,1.0,0.0
609,76.0,12.0,15.0,3.0,0.0
610,78.0,0.0,15.0,1.0,0.0
611,78.0,0.0,15.0,3.0,0.0
612,66.0,1.0,20.0,4.0,0.0
613,63.0,0.0,15.0,5.0,0.0
614,51.0,11.0,15.0,6.0,0.0
615,80.0,0.0,15.0,1.0,0.0
616,80.0,0.0,15.0,3.0,0.0
617,61.0,0.0,15.0,5.0,0.0
618,49.0,12.0,15.0,6.0,0.0
619,78.0,0.0,15.0,1.0,0.0
620,78.0,11.0,15.0,3.0,0.0
621,71.0,0.0,20.0,4.0,0.0
622,63.0,0.0,20.0,5.0,0.0
623,51.0,1.0,20.0,6.0,0.0
624,81.0,0.0,15.0,1.0,0.0
625,81.0,12.0,15.0,3.0,0.0
626,80.0,0.0,15.0,1.0,0.0
627,80.0,11.0,15.0,3.0,0.0
628,63.0,0.0,20.0,4.0,0.0
629,59.0,0.0,20.0,5.0,0.0
630,47.0,1.0,20.0,6.0,0.0
631,78.0,0.0,15.0,1.0,0.0
632,78.0,23.0,15.0,3.0,0.0
633,80.0,0.0,90.0,1.0,0.0
634,80.0,12.0,90.0,3.0,0.0
635,64.0,0.0,20.0,4.0,0.0
636,56.0,0.0,20.0,5.0,0.0
637,44.0,1.0,20.0,6.0,0.0
638,81.0,0.0,15.0,0.0,0.0
639,81.0,12.0,15.0,2.0,0.0
640,80.0,0.0,15.0,0.0,0.0
641,80.0,11.0,15.0,2.0,0.0
642,65.0,3.0,40.0,4.0,0.0
643,59.0,0.0,20.0,5.0,0.0
644,47.0,1.0,20.0,6.0,0.0
645,81.0,0.0,15.0,0.0,0.0
646,81.0,12.0,15.0,2.0,0.0
647,83.0,0.0,15.0,0.0,0.0
648,83.0,8.0,15.0,2.0,0.0
649,62.0,0.0,20.0,5.0,0.0
650,50.0,1.0,20.0,6.0,0.0
651,85.0,0.0,15.0,0.0,0.0
652,85.0,12.0,15.0,2.0,0.0
653,86.0,0.0,15.0,0.0,0.0
654,86.0,11.0,15.0,2.0,0.0
655,66.0,0.0,20.0,4.0,0.0
656,54.0,0.0,20.0,5.0,0.0
657,42.0,1.0,20.0,6.0,0.0
658,83.0,0.0,15.0,0.0,0.0
659,83.0,0.0,15.0,2.0,0.0
660,85.0,0.0,15.0,0.0,0.0
661,85.0,11.0,15.0,2.0,0.0
662,68.0,0.0,20.0,4.0,0.0
663,53.0,0.0,20.0,5.0,0.0
664,41.0,1.0,20.0,6.0,0.0
665,86.0,0.0,15.0,0.0,0.0
666,78.0,0.0,15.0,1.0,0.0
667,86.0,0.0,15.0,2.0,0.0
668,78.0,12.0,15.0,3.0,0.0
669,85.0,0.0,15.0,0.0,0.0
670,77.0,0.0,15.0,1.0,0.0
671,85.0,0.0,15.0,2.0,0.0
672,77.0,11.0,15.0,3.0,0.0
673,56.0,0.0,20.0,4.0,0.0
674,61.0,0.0,20.0,5.0,0.0
675,49.0,1.0,20.0,6.0,0.0
676,83.0,0.0,15.0,0.0,0.0
677,75.0,0.0,15.0,1.0,0.0
678,83.0,0.0,15.0,2.0,0.0
679,75.0,12.0,15.0,3.0,0.0
680,81.0,0.0,15.0,0.0,0.0
681,73.0,0.0,15.0,1.0,0.0
682,81.0,0.0,15.0,2.0,0.0
683,73.0,11.0,15.0,3.0,0.0
684,57.0,0.0,20.0,4.0,0.0
685,54.0,0.0,20.0,5.0,0.0
686,42.0,1.0,20.0,6.0,0.0
687,80.0,0.0,15.0,0.0,0.0
688,71.0,0.0,15.0,1.0,0.0
689,80.0,0.0,15.0,2.0,0.0
690,71.0,12.0,15.0,3.0,0.0
691,78.0,0.0,15.0,0.0,0.0
692,69.0,0.0,15.0,1.0,0.0
693,78.0,0.0,15.0,2.0,0.0
694,69.0,11.0,15.0,3.0,0.0
695,62.0,0.0,20.0,4.0,0.0
696,59.0,0.0,20.0,5.0,0.0
697,47.0,1.0,20.0,6.0,0.0
698,77.0,0.0,15.0,0.0,0.0
699,68.0,0.0,15.0,1.0,0.0
700,77.0,0.0,15.0,2.0,0.0
701,68.0,12.0,15.0,3.0,0.0
702,78.0,0.0,20.0,0.0,0.0
703,66.0,0.0,15.0,1.0,0.0
704,78.0,0.0,20.0,2.0,0.0
705,66.0,11.0,15.0,3.0,0.0
706,61.0,1.0,20.0,4.0,0.0
707,57.0,0.0,40.0,5.0,0.0
708,45.0,3.0,40.0,6.0,0.0
709,76.0,0.0,15.0,1.0,0.0
710,76.0,12.0,15.0,3.0,0.0
711,90.0,0.0,40.0,0.0,0.0
712,74.0,0.0,15.0,1.0,0.0
713,90.0,3.0,40.0,2.0,0.0
714,74.0,8.0,15.0,3.0,0.0
715,69.0,1.0,20.0,4.0,0.0
716,73.0,0.0,15.0,1.0,0.0
717,73.0,12.0,15.0,3.0,0.0
718,71.0,0.0,15.0,1.0,0.0
719,71.0,8.0,15.0,3.0,0.0
720,74.0,1.0,20.0,4.0,0.0
721,56.0,0.0,40.0,5.0,0.0
722,44.0,3.0,40.0,6.0,0.0
723,69.0,0.0,15.0,1.0,0.0
724,69.0,12.0,15.0,3.0,0.0
725,89.0,0.0,20.0,0.0,0.0
726,68.0,0.0,15.0,1.0,0.0
727,89.0,0.0,20.0,2.0,0.0
728,68.0,8.0,15.0,3.0,0.0
729,71.0,1.0,20.0,4.0,0.0
730,71.0,0.0,15.0,1.0,0.0
731,71.0,12.0,15.0,3.0,0.0
732,90.0,0.0,40.0,0.0,0.0
733,69.0,0.0,20.0,1.0,0.0
734,90.0,3.0,40.0,2.0,0.0
735,69.0,1.0,20.0,3.0,0.0
736,73.0,0.0,15.0,4.0,0.0
737,54.0,0.0,15.0,5.0,0.0
738,42.0,11.0,15.0,6.0,0.0
739,71.0,0.0,15.0,4.0,0.0
740,53.0,0.0,15.0,5.0,0.0
741,41.0,12.0,15.0,6.0,0.0
742,66.0,0.0,20.0,1.0,0.0
743,66.0,1.0,20.0,3.0,0.0
744,69.0,0.0,15.0,4.0,0.0
745,54.0,0.0,15.0,5.0,0.0
746,42.0,8.0,15.0,6.0,0.0
747,68.0,0.0,15.0,4.0,0.0
748,56.0,0.0,15.0,5.0,0.0
749,44.0,12.0,15.0,6.0,0.0
750,73.0,0.0,60.0,1.0,0.0
751,73.0,6.0,60.0,3.0,0.0
752,66.0,0.0,15.0,4.0,0.0
753,57.0,0.0,15.0,5.0,0.0
754,45.0,12.0,15.0,6.0,0.0
755,68.0,0.0,15.0,4.0,0.0
756,59.0,0.0,15.0,5.0,0.0
757,47.0,12.0,15.0,6.0,0.0
758,81.0,0.0,20.0,0.0,0.0
759,81.0,1.0,20.0,2.0,0.0
760,69.0,0.0,15.0,4.0,0.0
761,61.0,0.0,15.0,5.0,0.0
762,49.0,11.0,15.0,6.0,0.0
763,71.0,0.0,15.0,4.0,0.0
764,63.0,0.0,15.0,5.0,0.0
765,51.0,6.0,15.0,6.0,0.0
766,80.0,0.0,20.0,0.0,0.0
767,80.0,0.0,20.0,2.0,0.0
768,73.0,1.0,20.0,4.0,0.0
769,65.0,0.0,15.0,5.0,0.0
770,53.0,11.0,15.0,6.0,0.0
771,75.0,0.0,15.0,1.0,0.0
772,75.0,0.0,15.0,3.0,0.0
773,63.0,0.0,15.0,5.0,0.0
774,51.0,12.0,15.0,6.0,0.0
775,85.0,0.0,20.0,0.0,0.0
776,77.0,0.0,15.0,1.0,0.0
777,85.0,0.0,20.0,2.0,0.0
778,77.0,0.0,15.0,3.0,0.0
779,68.0,1.0,20.0,4.0,0.0
780,61.0,0.0,15.0,5.0,0.0
781,49.0,11.0,15.0,6.0,0.0
782,78.0,0.0,15.0,1.0,0.0
783,78.0,0.0,15.0,3.0,0.0
784,63.0,0.0,15.0,5.0,0.0
785,51.0,12.0,15.0,6.0,0.0
786,73.0,0.0,60.0,0.0,0.0
787,80.0,0.0,20.0,1.0,0.0
788,73.0,6.0,60.0,2.0,0.0
789,80.0,1.0,20.0,3.0,0.0
790,65.0,0.0,15.0,5.0,0.0
791,53.0,11.0,15.0,6.0,0.0
792,61.0,0.0,15.0,5.0,0.0
793,49.0,12.0,15.0,6.0,0.0
794,83.0,0.0,20.0,1.0,0.0
795,83.0,0.0,20.0,3.0,0.0
796,73.0,1.0,20.0,4.0,0.0
797,63.0,0.0,15.0,5.0,0.0
798,51.0,11.0,15.0,6.0,0.0
799,65.0,0.0,15.0,5.0,0.0
800,53.0,17.0,15.0,6.0,0.0
801,82.0,0.0,20.0,1.0,0.0
802,82.0,0.0,20.0,3.0,0.0
803,66.0,13.0,20.0,4.0,0.0
804,66.0,0.0,90.0,5.0,0.0
805,54.0,23.0,90.0,6.0,0.0
806,78.0,0.0,15.0,0.0,0.0
807,78.0,0.0,20.0,1.0,0.0
808,78.0,11.0,15.0,2.0,0.0
809,78.0,0.0,20.0,3.0,0.0
810,70.0,1.0,20.0,4.0,0.0
811,80.0,0.0,15.0,0.0,0.0
812,80.0,12.0,15.0,2.0,0.0
813,82.0,0.0,15.0,0.0,0.0
814,73.0,0.0,20.0,1.0,0.0
815,82.0,11.0,15.0,2.0,0.0
816,73.0,0.0,20.0,3.0,0.0
817,73.0,1.0,20.0,4.0,0.0
818,83.0,0.0,15.0,0.0,0.0
819,83.0,12.0,15.0,2.0,0.0
820,85.0,0.0,15.0,0.0,0.0
821,76.0,0.0,20.0,1.0,0.0
822,85.0,11.0,15.0,2.0,0.0
823,76.0,0.0,20.0,3.0,0.0
824,70.0,1.0,20.0,4.0,0.0
825,82.0,0.0,15.0,0.0,0.0
826,82.0,0.0,15.0,2.0,0.0
827,83.0,0.0,20.0,0.0,0.0
828,75.0,0.0,20.0,1.0,0.0
829,83.0,0.0,20.0,2.0,0.0
830,75.0,0.0,20.0,3.0,0.0
831,66.0,1.0,20.0,4.0,0.0
832,64.0,0.0,15.0,5.0,0.0
833,52.0,12.0,15.0,6.0,0.0
834,78.0,0.0,15.0,0.0,0.0
835,71.0,0.0,20.0,1.0,0.0
836,78.0,0.0,15.0,2.0,0.0
837,71.0,0.0,20.0,3.0,0.0
838,71.0,1.0,20.0,4.0,0.0
839,63.0,0.0,15.0,5.0,0.0
840,51.0,11.0,15.0,6.0,0.0
841,76.0,0.0,15.0,0.0,0.0
842,76.0,0.0,15.0,2.0,0.0
843,61.0,0.0,15.0,5.0,0.0
844,49.0,12.0,15.0,6.0,0.0
845,78.0,0.0,15.0,0.0,0.0
846,81.0,0.0,60.0,1.0,0.0
847,78.0,0.0,15.0,2.0,0.0
848,81.0,6.0,60.0,3.0,0.0
849,63.0,0.0,15.0,5.0,0.0
850,51.0,12.0,15.0,6.0,0.0
851,75.0,0.0,15.0,0.0,0.0
852,75.0,0.0,15.0,2.0,0.0
853,59.0,0.0,15.0,5.0,0.0
854,47.0,12.0,15.0,6.0,0.0
855,76.0,0.0,15.0,0.0,0.0
856,76.0,0.0,15.0,2.0,0.0
857,66.0,8.0,30.0,4.0,0.0
858,61.0,0.0,15.0,5.0,0.0
859,49.0,12.0,15.0,6.0,0.0
860,78.0,0.0,15.0,0.0,0.0
861,78.0,0.0,15.0,2.0,0.0
862,63.0,0.0,15.0,5.0,0.0
863,51.0,9.0,15.0,6.0,0.0
864,71.0,0.0,20.0,0.0,0.0
865,71.0,1.0,20.0,2.0,0.0
866,64.0,0.0,90.0,5.0,0.0
867,52.0,12.0,90.0,6.0,0.0
868,59.0,12.0,15.0,4.0,0.0
869,76.0,0.0,20.0,0.0,0.0
870,80.0,0.0,15.0,1.0,0.0
871,76.0,1.0,20.0,2.0,0.0
872,80.0,0.0,15.0,3.0,0.0
873,61.0,11.0,15.0,4.0,0.0
874,78.0,0.0,15.0,1.0,0.0
875,78.0,0.0,15.0,3.0,0.0
876,63.0,12.0,15.0,4.0,0.0
877,83.0,0.0,60.0,0.0,0.0
878,80.0,0.0,20.0,1.0,0.0
879,83.0,6.0,60.0,2.0,0.0
880,80.0,1.0,20.0,3.0,0.0
881,64.0,11.0,15.0,4.0,0.0
882,66.0,12.0,15.0,4.0,0.0
883,76.0,0.0,20.0,1.0,0.0
884,76.0,1.0,20.0,3.0,0.0
885,67.0,11.0,15.0,4.0,0.0
886,69.0,0.0,15.0,4.0,0.0
887,73.0,0.0,20.0,1.0,0.0
888,73.0,1.0,20.0,3.0,0.0
889,67.0,5.0,15.0,4.0,0.0
890,66.0,0.0,15.0,4.0,0.0
891,62.0,0.0,15.0,5.0,0.0
892,50.0,12.0,15.0,6.0,0.0
893,82.0,0.0,15.0,0.0,0.0
894,76.0,0.0,20.0,1.0,0.0
895,82.0,0.0,15.0,2.0,0.0
896,76.0,1.0,20.0,3.0,0.0
897,64.0,0.0,15.0,4.0,0.0
898,61.0,0.0,15.0,5.0,0.0
899,49.0,11.0,15.0,6.0,0.0
900,83.0,0.0,15.0,0.0,0.0
901,83.0,0.0,15.0,2.0,0.0
902,62.0,0.0,15.0,4.0,0.0
903,62.0,0.0,15.0,5.0,0.0
904,50.0,12.0,15.0,6.0,0.0
905,85.0,0.0,20.0,0.0,0.0
906,79.0,0.0,20.0,1.0,0.0
907,85.0,0.0,20.0,2.0,0.0
908,79.0,1.0,20.0,3.0,0.0
909,61.0,0.0,15.0,4.0,0.0
910,64.0,0.0,15.0,5.0,0.0
911,52.0,11.0,15.0,6.0,0.0
912,62.0,0.0,15.0,4.0,0.0
913,66.0,0.0,15.0,5.0,0.0
914,54.0,12.0,15.0,6.0,0.0
915,76.0,0.0,40.0,0.0,0.0
916,71.0,0.0,20.0,1.0,0.0
917,76.0,3.0,40.0,2.0,0.0
918,71.0,1.0,20.0,3.0,0.0
919,64.0,0.0,15.0,4.0,0.0
920,67.0,0.0,15.0,5.0,0.0
921,55.0,11.0,15.0,6.0,0.0
922,61.0,0.0,15.0,4.0,0.0
923,64.0,0.0,15.0,5.0,0.0
924,52.0,12.0,15.0,6.0,0.0
925,70.0,0.0,20.0,1.0,0.0
926,70.0,1.0,20.0,3.0,0.0
927,73.0,0.0,15.0,4.0,0.0
928,66.0,0.0,15.0,5.0,0.0
929,54.0,8.0,15.0,6.0,0.0
930,71.0,0.0,15.0,4.0,0.0
931,67.0,0.0,15.0,5.0,0.0
932,55.0,12.0,15.0,6.0,0.0
933,74.0,0.0,15.0,0.0,0.0
934,78.0,0.0,20.0,1.0,0.0
935,74.0,0.0,15.0,2.0,0.0
936,78.0,1.0,20.0,3.0,0.0
937,70.0,0.0,15.0,4.0,0.0
938,66.0,0.0,15.0,5.0,0.0
939,54.0,11.0,15.0,6.0,0.0
940,76.0,0.0,15.0,0.0,0.0
941,76.0,0.0,15.0,2.0,0.0
942,68.0,0.0,15.0,4.0,0.0
943,64.0,0.0,15.0,5.0,0.0
944,52.0,12.0,15.0,6.0,0.0
945,78.0,0.0,20.0,0.0,0.0
946,71.0,0.0,20.0,1.0,0.0
947,78.0,0.0,20.0,2.0,0.0
948,71.0,1.0,20.0,3.0,0.0
949,66.0,0.0,15.0,4.0,0.0
950,62.0,0.0,15.0,5.0,0.0
951,50.0,11.0,15.0,6.0,0.0
952,64.0,0.0,15.0,4.0,0.0
953,61.0,0.0,15.0,5.0,0.0
954,49.0,12.0,15.0,6.0,0.0
955,85.0,0.0,40.0,0.0,0.0
956,76.0,0.0,20.0,1.0,0.0
957,85.0,4.0,40.0,2.0,0.0
958,76.0,1.0,20.0,3.0,0.0
959,62.0,0.0,15.0,4.0,0.0
960,59.0,0.0,15.0,5.0,0.0
961,47.0,11.0,15.0,6.0,0.0
962,61.0,0.0,15.0,4.0,0.0
963,58.0,0.0,15.0,5.0,0.0
964,46.0,12.0,15.0,6.0,0.0
965,74.0,0.0,40.0,1.0,0.0
966,74.0,4.0,40.0,3.0,0.0
967,62.0,0.0,15.0,4.0,0.0
968,59.0,0.0,15.0,5.0,0.0
969,47.0,8.0,15.0,6.0,0.0
970,66.0,0.0,15.0,4.0,0.0
971,57.0,0.0,15.0,5.0,0.0
972,45.0,12.0,15.0,6.0,0.0
973,83.0,0.0,40.0,0.0,0.0
974,83.0,3.0,40.0,2.0,0.0
975,65.0,0.0,15.0,4.0,0.0
976,56.0,0.0,15.0,5.0,0.0
977,44.0,8.0,15.0,6.0,0.0
978,66.0,0.0,15.0,4.0,0.0
979,54.0,0.0,15.0,5.0,0.0
980,42.0,12.0,15.0,6.0,0.0
981,73.0,0.0,40.0,1.0,0.0
982,73.0,4.0,40.0,3.0,0.0
983,68.0,1.0,20.0,4.0,0.0
984,53.0,0.0,15.0,5.0,0.0
985,41.0,8.0,15.0,6.0,0.0
986,49.0,0.0,15.0,5.0,0.0
987,37.0,12.0,15.0,6.0,0.0
988,81.0,0.0,40.0,0.0,0.0
989,81.0,0.0,40.0,2.0,0.0
990,66.0,4.0,40.0,4.0,0.0
991,54.0,0.0,15.0,5.0,0.0
992,42.0,8.0,15.0,6.0,0.0
993,52.0,0.0,15.0,5.0,0.0
994,40.0,12.0,15.0,6.0,0.0
995,71.0,0.0,40.0,1.0,0.0
996,71.0,4.0,40.0,3.0,0.0
997,50.0,0.0,15.0,5.0,0.0
998,38.0,8.0,15.0,6.0,0.0
999,54.0,0.0,15.0,5.0,0.0
1000,42.0,12.0,15.0,6.0,0.0
1001,80.0,0.0,15.0,0.0,0.0
1002,80.0,0.0,15.0,2.0,0.0
1003,68.0,0.0,15.0,4.0,0.0
1004,53.0,0.0,15.0,5.0,0.0
1005,41.0,8.0,15.0,6.0,0.0
1006,78.0,0.0,15.0,0.0,0.0
1007,78.0,0.0,15.0,2.0,0.0
1008,69.0,0.0,15.0,4.0,0.0
1009,54.0,0.0,15.0,5.0,0.0
1010,42.0,12.0,15.0,6.0,0.0
1011,77.0,0.0,15.0,0.0,0.0
1012,77.0,0.0,15.0,2.0,0.0
1013,71.0,0.0,15.0,4.0,0.0
1014,56.0,0.0,15.0,5.0,0.0
1015,44.0,12.0,15.0,6.0,0.0
1016,78.0,0.0,15.0,0.0,0.0
1017,78.0,0.0,15.0,2.0,0.0
1018,73.0,0.0,15.0,4.0,0.0
1019,57.0,0.0,15.0,5.0,0.0
1020,45.0,12.0,15.0,6.0,0.0
1021,75.0,0.0,15.0,0.0,0.0
1022,68.0,0.0,20.0,1.0,0.0
1023,75.0,0.0,15.0,2.0,0.0
1024,68.0,1.0,20.0,3.0,0.0
1025,71.0,0.0,15.0,4.0,0.0
1026,59.0,0.0,15.0,5.0,0.0
1027,47.0,11.0,15.0,6.0,0.0
1028,77.0,0.0,15.0,0.0,0.0
1029,77.0,0.0,15.0,2.0,0.0
1030,73.0,0.0,15.0,4.0,0.0
1031,56.0,0.0,15.0,5.0,0.0
1032,44.0,12.0,15.0,6.0,0.0
1033,78.0,0.0,15.0,0.0,0.0
1034,73.0,0.0,90.0,1.0,0.0
1035,78.0,0.0,15.0,2.0,0.0
1036,73.0,0.0,90.0,3.0,0.0
1037,69.0,1.0,20.0,4.0,0.0
1038,57.0,0.0,15.0,5.0,0.0
1039,45.0,11.0,15.0,6.0,0.0
1040,80.0,0.0,15.0,0.0,0.0
1041,80.0,0.0,15.0,2.0,0.0
1042,56.0,0.0,15.0,5.0,0.0
1043,44.0,12.0,15.0,6.0,0.0
1044,81.0,0.0,15.0,0.0,0.0
1045,81.0,0.0,15.0,2.0,0.0
1046,61.0,1.0,20.0,4.0,0.0
1047,54.0,0.0,15.0,5.0,0.0
1048,42.0,11.0,15.0,6.0,0.0
1049,83.0,0.0,15.0,0.0,0.0
1050,83.0,0.0,15.0,2.0,0.0
1051,56.0,0.0,15.0,5.0,0.0
1052,44.0,12.0,15.0,6.0,0.0
1053,85.0,0.0,20.0,0.0,0.0
1054,85.0,0.0,20.0,2.0,0.0
1055,66.0,1.0,20.0,4.0,0.0
1056,57.0,0.0,15.0,5.0,0.0
1057,45.0,11.0,15.0,6.0,0.0
1058,56.0,0.0,15.0,5.0,0.0
1059,44.0,12.0,15.0,6.0,0.0
1060,90.0,0.0,20.0,0.0,0.0
1061,90.0,0.0,20.0,2.0,0.0
1062,69.0,1.0,20.0,4.0,0.0
1063,57.0,0.0,15.0,5.0,0.0
1064,45.0,11.0,15.0,6.0,0.0
1065,59.0,0.0,15.0,5.0,0.0
1066,47.0,23.0,15.0,6.0,0.0
1067,89.0,0.0,20.0,0.0,0.0
1068,89.0,0.0,20.0,2.0,0.0
1069,68.0,1.0,20.0,4.0,0.0
1070,61.0,0.0,90.0,5.0,0.0
1071,49.0,12.0,90.0,6.0,0.0
1072,72.0,0.0,15.0,1.0,0.0
1073,72.0,12.0,15.0,3.0,0.0
1074,85.0,0.0,20.0,0.0,0.0
1075,73.0,0.0,15.0,1.0,0.0
1076,85.0,0.0,20.0,2.0,0.0
1077,73.0,11.0,15.0,3.0,0.0
1078,65.0,1.0,20.0,4.0,0.0
1079,75.0,0.0,15.0,1.0,0.0
1080,75.0,12.0,15.0,3.0,0.0
1081,80.0,0.0,20.0,0.0,0.0
1082,77.0,0.0,15.0,1.0,0.0
1083,80.0,0.0,20.0,2.0,0.0
1084,77.0,11.0,15.0,3.0,0.0
1085,68.0,1.0,20.0,4.0,0.0
1086,78.0,0.0,15.0,1.0,0.0
1087,78.0,12.0,15.0,3.0,0.0
1088,83.0,0.0,20.0,0.0,0.0
1089,80.0,0.0,15.0,1.0,0.0
1090,83.0,0.0,20.0,2.0,0.0
1091,80.0,11.0,15.0,3.0,0.0
1092,65.0,1.0,20.0,4.0,0.0
1093,77.0,0.0,15.0,1.0,0.0
1094,77.0,0.0,15.0,3.0,0.0
1095,82.0,0.0,20.0,0.0,0.0
1096,78.0,0.0,15.0,1.0,0.0
1097,82.0,0.0,20.0,2.0,0.0
1098,78.0,11.0,15.0,3.0,0.0
1099,61.0,1.0,20.0,4.0,0.0
1100,74.0,0.0,15.0,1.0,0.0
1101,74.0,0.0,15.0,3.0,0.0
1102,59.0,0.0,15.0,5.0,0.0
1103,47.0,12.0,15.0,6.0,0.0
1104,78.0,0.0,20.0,0.0,0.0
1105,73.0,0.0,15.0,1.0,0.0
1106,78.0,0.0,20.0,2.0,0.0
1107,73.0,0.0,15.0,3.0,0.0
1108,66.0,1.0,20.0,4.0,0.0
1109,58.0,0.0,15.0,5.0,0.0
1110,46.0,11.0,15.0,6.0,0.0
1111,71.0,0.0,15.0,1.0,0.0
1112,71.0,0.0,15.0,3.0,0.0
1113,56.0,0.0,15.0,5.0,0.0
1114,44.0,12.0,15.0,6.0,0.0
1115,88.0,0.0,60.0,0.0,0.0
1116,73.0,0.0,15.0,1.0,0.0
1117,88.0,6.0,60.0,2.0,0.0
1118,73.0,0.0,15.0,3.0,0.0
1119,58.0,0.0,15.0,5.0,0.0
1120,46.0,12.0,15.0,6.0,0.0
1121,70.0,0.0,15.0,1.0,0.0
1122,70.0,0.0,15.0,3.0,0.0
1123,54.0,0.0,15.0,5.0,0.0
1124,42.0,12.0,15.0,6.0,0.0
1125,71.0,0.0,15.0,1.0,0.0
1126,71.0,0.0,15.0,3.0,0.0
1127,73.0,8.0,30.0,4.0,0.0
1128,56.0,0.0,15.0,5.0,0.0
1129,44.0,12.0,15.0,6.0,0.0
1130,73.0,0.0,15.0,1.0,0.0
1131,73.0,0.0,15.0,3.0,0.0
1132,58.0,0.0,15.0,5.0,0.0
1133,46.0,9.0,15.0,6.0,0.0
1134,66.0,0.0,20.0,1.0,0.0
1135,66.0,1.0,20.0,3.0,0.0
1136,59.0,0.0,90.0,5.0,0.0
1137,47.0,12.0,90.0,6.0,0.0
1138,66.0,12.0,15.0,4.0,0.0
1139,87.0,0.0,15.0,0.0,0.0
1140,71.0,0.0,20.0,1.0,0.0
1141,87.0,0.0,15.0,2.0,0.0
1142,71.0,1.0,20.0,3.0,0.0
1143,68.0,11.0,15.0,4.0,0.0
1144,85.0,0.0,15.0,0.0,0.0
1145,85.0,0.0,15.0,2.0,0.0
1146,69.0,12.0,15.0,4.0,0.0
1147,87.0,0.0,20.0,0.0,0.0
1148,78.0,0.0,60.0,1.0,0.0
1149,87.0,1.0,20.0,2.0,0.0
1150,78.0,6.0,60.0,3.0,0.0
1151,71.0,11.0,15.0,4.0,0.0
1152,73.0,12.0,15.0,4.0,0.0
1153,83.0,0.0,20.0,0.0,0.0
1154,83.0,1.0,20.0,2.0,0.0
1155,74.0,11.0,15.0,4.0,0.0
1156,76.0,0.0,15.0,4.0,0.0
1157,80.0,0.0,20.0,0.0,0.0
1158,80.0,1.0,20.0,2.0,0.0
1159,74.0,5.0,15.0,4.0,0.0
1160,73.0,0.0,15.0,4.0,0.0
1161,57.0,0.0,15.0,5.0,0.0
1162,45.0,12.0,15.0,6.0,0.0
1163,83.0,0.0,20.0,0.0,0.0
1164,77.0,0.0,15.0,1.0,0.0
1165,83.0,1.0,20.0,2.0,0.0
1166,77.0,0.0,15.0,3.0,0.0
1167,74.0,0.0,15.0,4.0,0.0
1168,56.0,0.0,15.0,5.0,0.0
1169,44.0,11.0,15.0,6.0,0.0
1170,78.0,0.0,15.0,1.0,0.0
1171,78.0,0.0,15.0,3.0,0.0
1172,73.0,0.0,15.0,4.0,0.0
1173,57.0,0.0,15.0,5.0,0.0
1174,45.0,12.0,15.0,6.0,0.0
1175,86.0,0.0,20.0,0.0,0.0
1176,80.0,0.0,15.0,1.0,0.0
1177,86.0,0.0,20.0,2.0,0.0
1178,80.0,0.0,15.0,3.0,0.0
1179,71.0,1.0,20.0,4.0,0.0
1180,59.0,0.0,15.0,5.0,0.0
1181,47.0,11.0,15.0,6.0,0.0
1182,81.0,0.0,15.0,1.0,0.0
1183,81.0,0.0,15.0,3.0,0.0
1184,61.0,0.0,15.0,5.0,0.0
1185,49.0,12.0,15.0,6.0,0.0
1186,78.0,0.0,20.0,0.0,0.0
1187,83.0,0.0,30.0,1.0,0.0
1188,78.0,0.0,20.0,2.0,0.0
1189,83.0,3.0,30.0,3.0,0.0
1190,59.0,1.0,20.0,4.0,0.0
1191,62.0,0.0,15.0,5.0,0.0
1192,50.0,11.0,15.0,6.0,0.0
1193,59.0,0.0,15.0,5.0,0.0
1194,47.0,9.0,15.0,6.0,0.0
1195,77.0,0.0,20.0,0.0,0.0
1196,77.0,1.0,20.0,2.0,0.0
1197,68.0,0.0,15.0,4.0,0.0
1198,61.0,0.0,15.0,5.0,0.0
1199,49.0,11.0,15.0,6.0,0.0
1200,80.0,0.0,15.0,1.0,0.0
1201,80.0,0.0,15.0,3.0,0.0
1202,65.0,0.0,15.0,4.0,0.0
1203,62.0,0.0,15.0,5.0,0.0
1204,50.0,12.0,15.0,6.0,0.0
1205,85.0,0.0,20.0,0.0,0.0
1206,81.0,0.0,15.0,1.0,0.0
1207,85.0,1.0,20.0,2.0,0.0
1208,81.0,0.0,15.0,3.0,0.0
1209,66.0,0.0,15.0,4.0,0.0
1210,61.0,0.0,15.0,5.0,0.0
1211,49.0,11.0,15.0,6.0,0.0
1212,83.0,0.0,15.0,1.0,0.0
1213,83.0,0.0,15.0,3.0,0.0
1214,68.0,0.0,15.0,4.0,0.0
1215,59.0,0.0,15.0,5.0,0.0
1216,47.0,12.0,15.0,6.0,0.0
1217,78.0,0.0,20.0,0.0,0.0
1218,85.0,0.0,20.0,1.0,0.0
1219,78.0,0.0,20.0,2.0,0.0
1220,85.0,1.0,20.0,3.0,0.0
1221,69.0,0.0,15.0,4.0,0.0
1222,57.0,0.0,15.0,5.0,0.0
1223,45.0,11.0,15.0,6.0,0.0
1224,71.0,0.0,15.0,4.0,0.0
1225,56.0,0.0,15.0,5.0,0.0
1226,44.0,12.0,15.0,6.0,0.0
1227,83.0,0.0,20.0,0.0,0.0
1228,80.0,0.0,40.0,1.0,0.0
1229,83.0,0.0,20.0,2.0,0.0
1230,80.0,3.0,40.0,3.0,0.0
1231,73.0,1.0,20.0,4.0,0.0
1232,54.0,0.0,15.0,5.0,0.0
1233,42.0,11.0,15.0,6.0,0.0
1234,53.0,0.0,15.0,5.0,0.0
1235,41.0,20.0,15.0,6.0,0.0
1236,81.0,0.0,40.0,0.0,0.0
1237,81.0,3.0,40.0,2.0,0.0
1238,61.0,0.0,20.0,4.0,0.0
1239,54.0,0.0,20.0,5.0,0.0
1240,42.0,21.0,20.0,6.0,0.0
1241,78.0,0.0,40.0,1.0,0.0
1242,78.0,3.0,40.0,3.0,0.0
1243,66.0,0.0,20.0,4.0,0.0
1244,50.0,0.0,20.0,5.0,0.0
1245,38.0,9.0,20.0,6.0,0.0
1246,80.0,0.0,15.0,0.0,0.0
1247,80.0,6.0,15.0,2.0,0.0
1248,74.0,0.0,20.0,4.0,0.0
1249,47.0,0.0,20.0,5.0,0.0
1250,35.0,3.0,20.0,6.0,0.0
1251,81.0,0.0,15.0,0.0,0.0
1252,81.0,6.0,15.0,2.0,0.0
1253,80.0,0.0,15.0,0.0,0.0
1254,80.0,0.0,15.0,2.0,0.0
1255,81.0,0.0,15.0,0.0,0.0
1256,81.0,6.0,15.0,2.0,0.0
1257,80.0,0.0,15.0,0.0,0.0
1258,77.0,0.0,20.0,1.0,0.0
1259,80.0,6.0,15.0,2.0,0.0
1260,77.0,0.0,20.0,3.0,0.0
1261,73.0,0.0,20.0,4.0,0.0
1262,49.0,0.0,20.0,5.0,0.0
1263,37.0,2.0,20.0,6.0,0.0
1264,81.0,0.0,15.0,0.0,0.0
1265,81.0,4.0,15.0,2.0,0.0
1266,80.0,0.0,15.0,0.0,0.0
1267,80.0,4.0,15.0,2.0,0.0
1268,81.0,0.0,15.0,0.0,0.0
1269,81.0,1.0,15.0,2.0,0.0
1270,80.0,0.0,15.0,0.0,0.0
1271,80.0,22.0,15.0,2.0,0.0
1272,78.0,13.0,20.0,0.0,0.0
1273,78.0,0.0,40.0,1.0,0.0
1274,78.0,0.0,40.0,2.0,0.0
1275,78.0,0.0,40.0,3.0,0.0
1276,69.0,0.0,40.0,4.0,0.0
1277,42.0,0.0,40.0,5.0,0.0
1278,30.0,4.0,40.0,6.0,0.0
1279,76.0,8.0,15.0,0.0,0.0
1280,74.0,12.0,15.0,0.0,0.0
1281,73.0,12.0,15.0,0.0,0.0
1282,71.0,12.0,15.0,0.0,0.0
1283,69.0,12.0,15.0,0.0,0.0
1284,68.0,23.0,15.0,0.0,0.0
1285,69.0,0.0,20.0,0.0,0.0
1286,78.0,0.0,20.0,2.0,0.0
1287,73.0,0.0,20.0,3.0,0.0
1288,66.0,0.0,20.0,4.0,0.0
1289,54.0,0.0,20.0,5.0,0.0
1290,42.0,24.0,20.0,6.0,0.0
1291,85.0,24.0,20.0,0.0,0.0
1292,68.0,0.0,20.0,0.0,0.0
1293,77.0,0.0,20.0,2.0,0.0
1294,73.0,0.0,20.0,3.0,0.0
1295,68.0,0.0,20.0,4.0,0.0
1296,49.0,0.0,20.0,5.0,0.0
1297,37.0,24.0,20.0,6.0,0.0
1298,83.0,13.0,20.0,0.0,0.0
1299,66.0,11.0,15.0,0.0,0.0
1300,78.0,0.0,20.0,2.0,0.0
1301,73.0,0.0,20.0,3.0,0.0
1302,69.0,0.0,20.0,4.0,0.0
1303,42.0,0.0,20.0,5.0,0.0
1304,30.0,1.0,20.0,6.0,0.0
1305,83.0,12.0,15.0,0.0,0.0
1306,81.0,12.0,15.0,0.0,0.0
1307,80.0,12.0,15.0,0.0,0.0
1308,78.0,12.0,15.0,0.0,0.0
1309,76.0,12.0,15.0,0.0,0.0
1310,74.0,12.0,15.0,0.0,0.0
1311,73.0,23.0,15.0,0.0,0.0
1312,74.0,0.0,20.0,0.0,0.0
1313,78.0,0.0,20.0,2.0,0.0
1314,71.0,0.0,20.0,3.0,0.0
1315,62.0,0.0,20.0,4.0,0.0
1316,47.0,0.0,20.0,5.0,0.0
1317,35.0,24.0,20.0,6.0,0.0
1318,90.0,24.0,20.0,0.0,0.0
1319,73.0,0.0,20.0,0.0,0.0
1320,78.0,0.0,20.0,2.0,0.0
1321,73.0,0.0,20.0,3.0,0.0
1322,70.0,0.0,20.0,4.0,0.0
1323,54.0,0.0,20.0,5.0,0.0
1324,42.0,24.0,20.0,6.0,0.0
1325,88.0,13.0,20.0,0.0,0.0
1326,71.0,11.0,15.0,0.0,0.0
1327,78.0,0.0,20.0,2.0,0.0
1328,74.0,0.0,20.0,3.0,0.0
1329,71.0,0.0,20.0,4.0,0.0
1330,59.0,0.0,20.0,5.0,0.0
1331,47.0,1.0,20.0,6.0,0.0
1332,88.0,12.0,15.0,0.0,0.0
1333,86.0,12.0,15.0,0.0,0.0
1334,85.0,12.0,15.0,0.0,0.0
1335,83.0,12.0,15.0,0.0,0.0
1336,81.0,12.0,15.0,0.0,0.0
1337,80.0,12.0,15.0,0.0,0.0
1338,78.0,12.0,15.0,0.0,0.0
1339,80.0,11.0,15.0,0.0,0.0
1340,64.0,0.0,20.0,5.0,0.0
1341,52.0,1.0,20.0,6.0,0.0
1342,86.0,12.0,15.0,0.0,0.0
1343,85.0,12.0,15.0,0.0,0.0
1344,83.0,12.0,15.0,0.0,0.0
1345,85.0,11.0,15.0,0.0,0.0
1346,57.0,0.0,20.0,5.0,0.0
1347,45.0,1.0,20.0,6.0,0.0
1348,80.0,12.0,15.0,0.0,0.0
1349,78.0,12.0,15.0,0.0,0.0
1350,77.0,12.0,15.0,0.0,0.0
1351,78.0,11.0,15.0,0.0,0.0
1352,62.0,0.0,20.0,5.0,0.0
1353,50.0,1.0,20.0,6.0,0.0
1354,85.0,12.0,15.0,0.0,0.0
1355,83.0,12.0,15.0,0.0,0.0
1356,81.0,12.0,15.0,0.0,0.0
1357,83.0,11.0,15.0,0.0,0.0
1358,56.0,0.0,20.0,5.0,0.0
1359,44.0,1.0,20.0,6.0,0.0
1360,78.0,12.0,15.0,0.0,0.0
1361,77.0,12.0,15.0,0.0,0.0
1362,75.0,12.0,15.0,0.0,0.0
1363,77.0,11.0,15.0,0.0,0.0
1364,61.0,0.0,20.0,5.0,0.0
1365,49.0,1.0,20.0,6.0,0.0
1366,83.0,12.0,15.0,0.0,0.0
1367,81.0,12.0,15.0,0.0,0.0
1368,80.0,12.0,15.0,0.0,0.0
1369,81.0,11.0,15.0,0.0,0.0
1370,54.0,0.0,20.0,5.0,0.0
1371,42.0,1.0,20.0,6.0,0.0
1372,80.0,12.0,15.0,0.0,0.0
1373,78.0,12.0,15.0,0.0,0.0
1374,81.0,12.0,15.0,0.0,0.0
1375,80.0,11.0,15.0,0.0,0.0
1376,61.0,0.0,20.0,5.0,0.0
1377,49.0,1.0,20.0,6.0,0.0
1378,78.0,12.0,15.0,0.0,0.0
1379,77.0,11.0,15.0,0.0,0.0
1380,56.0,0.0,20.0,5.0,0.0
1381,44.0,1.0,20.0,6.0,0.0
1382,75.0,23.0,15.0,0.0,0.0
1383,73.0,17.0,60.0,0.0,0.0
1384,53.0,0.0,20.0,5.0,0.0
1385,41.0,1.0,20.0,6.0,0.0
1386,71.0,12.0,15.0,1.0,0.0
1387,69.0,11.0,15.0,1.0,0.0
1388,49.0,0.0,20.0,5.0,0.0
1389,37.0,1.0,20.0,6.0,0.0
1390,68.0,6.0,15.0,1.0,0.0
1391,69.0,0.0,20.0,1.0,0.0
1392,78.0,0.0,20.0,2.0,0.0
1393,73.0,0.0,20.0,3.0,0.0
1394,69.0,0.0,20.0,4.0,0.0
1395,54.0,0.0,20.0,5.0,0.0
1396,42.0,1.0,20.0,6.0,0.0
1397,69.0,12.0,15.0,0.0,0.0
1398,66.0,11.0,15.0,0.0,0.0
1399,85.0,1.0,20.0,1.0,0.0
1400,69.0,12.0,15.0,0.0,0.0
1401,71.0,11.0,15.0,0.0,0.0
1402,68.0,0.0,20.0,1.0,0.0
1403,80.0,0.0,20.0,2.0,0.0
1404,77.0,0.0,20.0,3.0,0.0
1405,73.0,0.0,20.0,4.0,0.0
1406,49.0,0.0,20.0,5.0,0.0
1407,37.0,1.0,20.0,6.0,0.0
1408,68.0,12.0,15.0,0.0,0.0
1409,65.0,11.0,15.0,0.0,0.0
1410,83.0,1.0,20.0,1.0,0.0
1411,68.0,12.0,15.0,0.0,0.0
1412,69.0,0.0,20.0,0.0,0.0
1413,66.0,11.0,15.0,1.0,0.0
1414,81.0,0.0,20.0,2.0,0.0
1415,78.0,0.0,20.0,3.0,0.0
1416,73.0,0.0,20.0,4.0,0.0
1417,42.0,0.0,20.0,5.0,0.0
1418,30.0,1.0,20.0,6.0,0.0
1419,83.0,12.0,15.0,1.0,0.0
1420,66.0,1.0,20.0,0.0,0.0
1421,81.0,11.0,15.0,1.0,0.0
1422,80.0,12.0,15.0,1.0,0.0
1423,78.0,17.0,60.0,0.0,0.0
1424,78.0,12.0,15.0,1.0,0.0
1425,76.0,12.0,15.0,1.0,0.0
1426,74.0,12.0,15.0,1.0,0.0
1427,73.0,6.0,15.0,1.0,0.0
1428,74.0,0.0,20.0,1.0,0.0
1429,83.0,0.0,20.0,2.0,0.0
1430,78.0,0.0,20.0,3.0,0.0
1431,71.0,0.0,20.0,4.0,0.0
1432,47.0,0.0,20.0,5.0,0.0
1433,35.0,1.0,20.0,6.0,0.0
1434,74.0,12.0,15.0,0.0,0.0
1435,71.0,11.0,15.0,0.0,0.0
1436,90.0,1.0,20.0,1.0,0.0
1437,74.0,12.0,15.0,0.0,0.0
1438,76.0,11.0,15.0,0.0,0.0
1439,73.0,0.0,20.0,1.0,0.0
1440,82.0,0.0,20.0,2.0,0.0
1441,78.0,0.0,20.0,3.0,0.0
1442,73.0,0.0,20.0,4.0,0.0
1443,54.0,0.0,20.0,5.0,0.0
1444,42.0,1.0,20.0,6.0,0.0
1445,73.0,12.0,15.0,0.0,0.0
1446,70.0,11.0,15.0,0.0,0.0
1447,88.0,1.0,20.0,1.0,0.0
1448,73.0,12.0,15.0,0.0,0.0
1449,74.0,0.0,20.0,0.0,0.0
1450,83.0,11.0,15.0,1.0,0.0
1451,83.0,0.0,20.0,2.0,0.0
1452,78.0,0.0,20.0,3.0,0.0
1453,74.0,0.0,20.0,4.0,0.0
1454,59.0,0.0,20.0,5.0,0.0
1455,47.0,1.0,20.0,6.0,0.0
1456,88.0,12.0,15.0,1.0,0.0
1457,71.0,1.0,20.0,0.0,0.0
1458,86.0,11.0,15.0,1.0,0.0
1459,85.0,12.0,15.0,1.0,0.0
1460,86.0,6.0,60.0,0.0,0.0
1461,83.0,12.0,15.0,1.0,0.0
1462,81.0,12.0,15.0,1.0,0.0
1463,80.0,12.0,15.0,1.0,0.0
1464,78.0,6.0,15.0,1.0,0.0
1465,80.0,11.0,15.0,1.0,0.0
1466,64.0,0.0,20.0,5.0,0.0
1467,52.0,1.0,20.0,6.0,0.0
1468,71.0,0.0,15.0,0.0,0.0
1469,86.0,12.0,15.0,1.0,0.0
1470,69.0,0.0,15.0,0.0,0.0
1471,85.0,12.0,15.0,1.0,0.0
1472,68.0,0.0,15.0,0.0,0.0
1473,83.0,12.0,15.0,1.0,0.0
1474,69.0,0.0,20.0,0.0,0.0
1475,85.0,11.0,15.0,1.0,0.0
1476,57.0,0.0,20.0,5.0,0.0
1477,45.0,1.0,20.0,6.0,0.0
1478,80.0,12.0,15.0,1.0,0.0
1479,85.0,3.0,30.0,0.0,0.0
1480,78.0,12.0,15.0,1.0,0.0
1481,77.0,9.0,15.0,1.0,0.0
1482,78.0,11.0,15.0,1.0,0.0
1483,62.0,0.0,20.0,5.0,0.0
1484,50.0,1.0,20.0,6.0,0.0
1485,69.0,0.0,15.0,0.0,0.0
1486,85.0,12.0,15.0,1.0,0.0
1487,68.0,0.0,15.0,0.0,0.0
1488,83.0,12.0,15.0,1.0,0.0
1489,66.0,0.0,15.0,0.0,0.0
1490,81.0,12.0,15.0,1.0,0.0
1491,68.0,0.0,20.0,0.0,0.0
1492,83.0,11.0,15.0,1.0,0.0
1493,56.0,0.0,20.0,5.0,0.0
1494,44.0,1.0,20.0,6.0,0.0
1495,78.0,12.0,15.0,1.0,0.0
1496,83.0,3.0,30.0,0.0,0.0
1497,77.0,12.0,15.0,1.0,0.0
1498,75.0,9.0,15.0,1.0,0.0
1499,77.0,11.0,15.0,1.0,0.0
1500,61.0,0.0,20.0,5.0,0.0
1501,49.0,1.0,20.0,6.0,0.0
1502,68.0,0.0,15.0,0.0,0.0
1503,83.0,12.0,15.0,1.0,0.0
1504,66.0,0.0,15.0,0.0,0.0
1505,81.0,12.0,15.0,1.0,0.0
1506,65.0,0.0,15.0,0.0,0.0
1507,80.0,12.0,15.0,1.0,0.0
1508,66.0,0.0,20.0,0.0,0.0
1509,81.0,11.0,15.0,1.0,0.0
1510,54.0,0.0,20.0,5.0,0.0
1511,42.0,1.0,20.0,6.0,0.0
1512,80.0,12.0,15.0,1.0,0.0
1513,78.0,3.0,30.0,0.0,0.0
1514,78.0,12.0,15.0,1.0,0.0
1515,81.0,9.0,15.0,1.0,0.0
1516,80.0,11.0,15.0,1.0,0.0
1517,61.0,0.0,20.0,5.0,0.0
1518,49.0,1.0,20.0,6.0,0.0
1519,81.0,0.0,15.0,0.0,0.0
1520,78.0,12.0,15.0,1.0,0.0
1521,80.0,0.0,15.0,0.0,0.0
1522,77.0,11.0,15.0,1.0,0.0
1523,56.0,0.0,20.0,5.0,0.0
1524,44.0,1.0,20.0,6.0,0.0
1525,78.0,0.0,15.0,0.0,0.0
1526,75.0,12.0,15.0,1.0,0.0
1527,80.0,11.0,15.0,0.0,0.0
1528,73.0,6.0,60.0,1.0,0.0
1529,53.0,0.0,20.0,5.0,0.0
1530,41.0,1.0,20.0,6.0,0.0
1531,83.0,12.0,15.0,0.0,0.0
1532,81.0,11.0,15.0,0.0,0.0
1533,49.0,0.0,20.0,5.0,0.0
1534,37.0,1.0,20.0,6.0,0.0
1535,80.0,12.0,15.0,0.0,0.0
1536,81.0,0.0,15.0,0.0,0.0
1537,66.0,0.0,15.0,2.0,0.0
1538,66.0,0.0,15.0,3.0,0.0
1539,66.0,5.0,15.0,4.0,0.0
1540,54.0,0.0,20.0,5.0,0.0
1541,42.0,1.0,20.0,6.0,0.0
1542,73.0,0.0,15.0,0.0,0.0
1543,68.0,0.0,15.0,2.0,0.0
1544,68.0,0.0,15.0,3.0,0.0
1545,68.0,12.0,15.0,4.0,0.0
1546,75.0,0.0,15.0,0.0,0.0
1547,78.0,0.0,15.0,1.0,0.0
1548,69.0,0.0,15.0,2.0,0.0
1549,69.0,0.0,15.0,3.0,0.0
1550,69.0,12.0,15.0,4.0,0.0
1551,77.0,0.0,15.0,0.0,0.0
1552,80.0,0.0,15.0,1.0,0.0
1553,71.0,0.0,15.0,2.0,0.0
1554,71.0,0.0,15.0,3.0,0.0
1555,71.0,12.0,15.0,4.0,0.0
1556,78.0,11.0,15.0,0.0,0.0
1557,81.0,0.0,20.0,1.0,0.0
1558,73.0,0.0,20.0,2.0,0.0
1559,73.0,0.0,20.0,3.0,0.0
1560,73.0,1.0,20.0,4.0,0.0
1561,80.0,12.0,15.0,0.0,0.0
1562,81.0,11.0,15.0,0.0,0.0
1563,66.0,3.0,30.0,1.0,0.0
1564,78.0,0.0,20.0,2.0,0.0
1565,78.0,0.0,20.0,3.0,0.0
1566,78.0,1.0,20.0,4.0,0.0
1567,78.0,9.0,15.0,0.0,0.0
1568,71.0,11.0,15.0,0.0,0.0
1569,75.0,0.0,20.0,2.0,0.0
1570,75.0,0.0,20.0,3.0,0.0
1571,75.0,0.0,20.0,4.0,0.0
1572,59.0,0.0,20.0,5.0,0.0
1573,47.0,1.0,20.0,6.0,0.0
1574,78.0,0.0,15.0,0.0,0.0
1575,64.0,12.0,15.0,1.0,0.0
1576,81.0,14.0,30.0,0.0,0.0
1577,63.0,11.0,15.0,1.0,0.0
1578,71.0,0.0,20.0,2.0,0.0
1579,71.0,0.0,20.0,3.0,0.0
1580,71.0,0.0,20.0,4.0,0.0
1581,54.0,0.0,20.0,5.0,0.0
1582,42.0,1.0,20.0,6.0,0.0
1583,61.0,9.0,15.0,1.0,0.0
1584,63.0,0.0,20.0,1.0,0.0
1585,51.0,0.0,20.0,5.0,0.0
1586,39.0,1.0,20.0,6.0,0.0
1587,78.0,12.0,15.0,0.0,0.0
1588,75.0,11.0,15.0,0.0,0.0
1589,71.0,3.0,40.0,1.0,0.0
1590,47.0,0.0,20.0,5.0,0.0
1591,35.0,1.0,20.0,6.0,0.0
1592,71.0,12.0,15.0,0.0,0.0
1593,80.0,0.0,15.0,0.0,0.0
1594,64.0,0.0,15.0,2.0,0.0
1595,64.0,0.0,15.0,3.0,0.0
1596,64.0,8.0,15.0,4.0,0.0
1597,52.0,0.0,20.0,5.0,0.0
1598,40.0,1.0,20.0,6.0,0.0
1599,71.0,0.0,15.0,0.0,0.0
1600,66.0,0.0,15.0,2.0,0.0
1601,66.0,0.0,15.0,3.0,0.0
1602,66.0,12.0,15.0,4.0,0.0
1603,73.0,0.0,15.0,0.0,0.0
1604,76.0,0.0,15.0,1.0,0.0
1605,68.0,0.0,15.0,2.0,0.0
1606,68.0,0.0,15.0,3.0,0.0
1607,68.0,12.0,15.0,4.0,0.0
1608,75.0,0.0,15.0,0.0,0.0
1609,78.0,0.0,15.0,1.0,0.0
1610,69.0,0.0,15.0,2.0,0.0
1611,69.0,0.0,15.0,3.0,0.0
1612,69.0,12.0,15.0,4.0,0.0
1613,76.0,11.0,15.0,0.0,0.0
1614,80.0,0.0,20.0,1.0,0.0
1615,71.0,0.0,20.0,2.0,0.0
1616,71.0,0.0,20.0,3.0,0.0
1617,71.0,1.0,20.0,4.0,0.0
1618,78.0,12.0,15.0,0.0,0.0
1619,80.0,11.0,15.0,0.0,0.0
1620,64.0,3.0,30.0,1.0,0.0
1621,76.0,0.0,20.0,2.0,0.0
1622,76.0,0.0,20.0,3.0,0.0
1623,76.0,1.0,20.0,4.0,0.0
1624,76.0,9.0,15.0,0.0,0.0
1625,69.0,11.0,15.0,0.0,0.0
1626,73.0,0.0,20.0,2.0,0.0
1627,73.0,0.0,20.0,3.0,0.0
1628,73.0,0.0,20.0,4.0,0.0
1629,57.0,0.0,20.0,5.0,0.0
1630,45.0,1.0,20.0,6.0,0.0
1631,76.0,0.0,15.0,0.0,0.0
1632,62.0,12.0,15.0,1.0,0.0
1633,79.0,14.0,30.0,0.0,0.0
1634,61.0,11.0,15.0,1.0,0.0
1635,69.0,0.0,20.0,2.0,0.0
1636,69.0,0.0,20.0,3.0,0.0
1637,69.0,0.0,20.0,4.0,0.0
1638,52.0,0.0,20.0,5.0,0.0
1639,40.0,1.0,20.0,6.0,0.0
1640,59.0,9.0,15.0,1.0,0.0
1641,61.0,0.0,20.0,1.0,0.0
1642,45.0,0.0,20.0,5.0,0.0
1643,33.0,1.0,20.0,6.0,0.0
1644,76.0,12.0,15.0,0.0,0.0
1645,73.0,11.0,15.0,0.0,0.0
1646,69.0,14.0,30.0,1.0,0.0
1647,49.0,0.0,20.0,5.0,0.0
1648,37.0,1.0,20.0,6.0,0.0
1649,69.0,9.0,15.0,0.0,0.0
1650,78.0,0.0,20.0,0.0,0.0
1651,50.0,0.0,20.0,5.0,0.0
1652,38.0,1.0,20.0,6.0,0.0
1653,71.0,12.0,15.0,1.0,0.0
1654,81.0,10.0,15.0,0.0,0.0
1655,69.0,2.0,15.0,1.0,0.0
1656,54.0,0.0,20.0,5.0,0.0
1657,42.0,10.0,20.0,6.0,0.0
1658,68.0,2.0,15.0,1.0,0.0
1659,83.0,10.0,15.0,0.0,0.0
1660,66.0,2.0,15.0,1.0,0.0
1661,51.0,0.0,20.0,5.0,0.0
1662,39.0,10.0,20.0,6.0,0.0
1663,64.0,2.0,15.0,1.0,0.0
1664,78.0,9.0,15.0,0.0,0.0
1665,63.0,2.0,15.0,1.0,0.0
1666,47.0,0.0,20.0,5.0,0.0
1667,35.0,1.0,20.0,6.0,0.0
1668,61.0,12.0,15.0,1.0,0.0
1669,80.0,9.0,15.0,0.0,0.0
1670,59.0,2.0,15.0,1.0,0.0
1671,52.0,0.0,20.0,5.0,0.0
1672,40.0,1.0,20.0,6.0,0.0
1673,73.0,12.0,15.0,1.0,0.0
1674,83.0,10.0,15.0,0.0,0.0
1675,71.0,2.0,15.0,1.0,0.0
1676,56.0,0.0,20.0,5.0,0.0
1677,44.0,10.0,20.0,6.0,0.0
1678,69.0,2.0,15.0,1.0,0.0
1679,85.0,10.0,15.0,0.0,0.0
1680,68.0,2.0,15.0,1.0,0.0
1681,53.0,0.0,20.0,5.0,0.0
1682,41.0,10.0,20.0,6.0,0.0
1683,66.0,2.0,15.0,1.0,0.0
1684,80.0,9.0,15.0,0.0,0.0
1685,65.0,2.0,15.0,1.0,0.0
1686,49.0,0.0,20.0,5.0,0.0
1687,37.0,1.0,20.0,6.0,0.0
1688,63.0,12.0,15.0,1.0,0.0
1689,81.0,11.0,15.0,0.0,0.0
1690,61.0,0.0,20.0,1.0,0.0
1691,54.0,0.0,20.0,5.0,0.0
1692,42.0,1.0,20.0,6.0,0.0
1693,83.0,12.0,15.0,0.0,0.0
1694,81.0,2.0,15.0,0.0,0.0
1695,73.0,10.0,15.0,1.0,0.0
1696,80.0,12.0,15.0,0.0,0.0
1697,78.0,2.0,15.0,0.0,0.0
1698,74.0,10.0,15.0,1.0,0.0
1699,76.0,12.0,15.0,0.0,0.0
1700,74.0,2.0,15.0,0.0,0.0
1701,69.0,9.0,15.0,1.0,0.0
1702,42.0,0.0,20.0,5.0,0.0
1703,30.0,1.0,20.0,6.0,0.0
1704,73.0,12.0,15.0,0.0,0.0
1705,71.0,2.0,15.0,0.0,0.0
1706,71.0,9.0,15.0,1.0,0.0
1707,44.0,0.0,20.0,5.0,0.0
1708,32.0,1.0,20.0,6.0,0.0
1709,85.0,12.0,15.0,0.0,0.0
1710,83.0,2.0,15.0,0.0,0.0
1711,74.0,10.0,15.0,1.0,0.0
1712,81.0,12.0,15.0,0.0,0.0
1713,80.0,2.0,15.0,0.0,0.0
1714,76.0,10.0,15.0,1.0,0.0
1715,78.0,12.0,15.0,0.0,0.0
1716,76.0,2.0,15.0,0.0,0.0
1717,71.0,9.0,15.0,1.0,0.0
1718,56.0,0.0,20.0,5.0,0.0
1719,44.0,1.0,20.0,6.0,0.0
1720,74.0,12.0,15.0,0.0,0.0
1721,73.0,0.0,20.0,0.0,0.0
1722,73.0,0.0,15.0,1.0,0.0
1723,69.0,0.0,15.0,2.0,0.0
1724,69.0,0.0,15.0,3.0,0.0
1725,69.0,11.0,15.0,4.0,0.0
1726,57.0,0.0,20.0,5.0,0.0
1727,45.0,1.0,20.0,6.0,0.0
1728,76.0,0.0,15.0,1.0,0.0
1729,71.0,0.0,15.0,2.0,0.0
1730,71.0,0.0,15.0,3.0,0.0
1731,71.0,12.0,15.0,4.0,0.0
1732,81.0,0.0,15.0,0.0,0.0
1733,78.0,0.0,15.0,1.0,0.0
1734,73.0,0.0,15.0,2.0,0.0
1735,73.0,0.0,15.0,3.0,0.0
1736,73.0,12.0,15.0,4.0,0.0
1737,83.0,0.0,15.0,0.0,0.0
1738,80.0,0.0,15.0,1.0,0.0
1739,74.0,0.0,15.0,2.0,0.0
1740,74.0,0.0,15.0,3.0,0.0
1741,74.0,12.0,15.0,4.0,0.0
1742,85.0,0.0,20.0,0.0,0.0
1743,81.0,11.0,15.0,1.0,0.0
1744,76.0,0.0,20.0,2.0,0.0
1745,76.0,0.0,20.0,3.0,0.0
1746,76.0,1.0,20.0,4.0,0.0
1747,83.0,12.0,15.0,1.0,0.0
1748,69.0,3.0,30.0,0.0,0.0
1749,85.0,11.0,15.0,1.0,0.0
1750,81.0,0.0,20.0,2.0,0.0
1751,81.0,0.0,20.0,3.0,0.0
1752,69.0,0.0,20.0,4.0,0.0
1753,54.0,0.0,20.0,5.0,0.0
1754,42.0,1.0,20.0,6.0,0.0
1755,81.0,9.0,15.0,1.0,0.0
1756,75.0,11.0,15.0,1.0,0.0
1757,78.0,0.0,20.0,2.0,0.0
1758,78.0,0.0,20.0,3.0,0.0
1759,78.0,0.0,20.0,4.0,0.0
1760,51.0,0.0,20.0,5.0,0.0
1761,39.0,1.0,20.0,6.0,0.0
1762,68.0,0.0,15.0,0.0,0.0
1763,81.0,12.0,15.0,1.0,0.0
1764,66.0,0.0,15.0,0.0,0.0
1765,85.0,14.0,30.0,1.0,0.0
1766,75.0,0.0,20.0,2.0,0.0
1767,75.0,0.0,20.0,3.0,0.0
1768,75.0,1.0,20.0,4.0,0.0
1769,63.0,0.0,15.0,5.0,0.0
1770,51.0,11.0,15.0,6.0,0.0
1771,64.0,0.0,15.0,0.0,0.0
1772,64.0,0.0,15.0,5.0,0.0
1773,52.0,9.0,15.0,6.0,0.0
1774,63.0,0.0,20.0,0.0,0.0
1775,66.0,0.0,20.0,5.0,0.0
1776,54.0,1.0,20.0,6.0,0.0
1777,81.0,12.0,15.0,1.0,0.0
1778,75.0,3.0,40.0,0.0,0.0
1779,78.0,11.0,15.0,1.0,0.0
1780,63.0,0.0,20.0,5.0,0.0
1781,51.0,1.0,20.0,6.0,0.0
1782,75.0,12.0,15.0,1.0,0.0
1783,84.0,0.0,15.0,1.0,0.0
1784,68.0,0.0,15.0,2.0,0.0
1785,68.0,0.0,15.0,3.0,0.0
1786,68.0,8.0,15.0,4.0,0.0
1787,56.0,0.0,20.0,5.0,0.0
1788,44.0,1.0,20.0,6.0,0.0
1789,75.0,0.0,15.0,1.0,0.0
1790,70.0,0.0,15.0,2.0,0.0
1791,70.0,0.0,15.0,3.0,0.0
1792,70.0,12.0,15.0,4.0,0.0
1793,80.0,0.0,15.0,0.0,0.0
1794,76.0,0.0,15.0,1.0,0.0
1795,72.0,0.0,15.0,2.0,0.0
1796,72.0,0.0,15.0,3.0,0.0
1797,72.0,12.0,15.0,4.0,0.0
1798,81.0,0.0,15.0,0.0,0.0
1799,78.0,0.0,15.0,1.0,0.0
1800,73.0,0.0,15.0,2.0,0.0
1801,73.0,0.0,15.0,3.0,0.0
1802,73.0,12.0,15.0,4.0,0.0
1803,83.0,0.0,20.0,0.0,0.0
1804,80.0,11.0,15.0,1.0,0.0
1805,75.0,0.0,20.0,2.0,0.0
1806,75.0,0.0,20.0,3.0,0.0
1807,75.0,1.0,20.0,4.0,0.0
1808,81.0,12.0,15.0,1.0,0.0
1809,68.0,3.0,30.0,0.0,0.0
1810,83.0,11.0,15.0,1.0,0.0
1811,80.0,0.0,20.0,2.0,0.0
1812,80.0,0.0,20.0,3.0,0.0
1813,80.0,0.0,20.0,4.0,0.0
1814,53.0,0.0,20.0,5.0,0.0
1815,41.0,1.0,20.0,6.0,0.0
1816,80.0,9.0,15.0,1.0,0.0
1817,73.0,11.0,15.0,1.0,0.0
1818,77.0,0.0,20.0,2.0,0.0
1819,77.0,0.0,20.0,3.0,0.0
1820,77.0,0.0,20.0,4.0,0.0
1821,49.0,0.0,20.0,5.0,0.0
1822,37.0,1.0,20.0,6.0,0.0
1823,66.0,0.0,15.0,0.0,0.0
1824,80.0,12.0,15.0,1.0,0.0
1825,65.0,0.0,15.0,0.0,0.0
1826,83.0,14.0,30.0,1.0,0.0
1827,73.0,0.0,20.0,2.0,0.0
1828,73.0,0.0,20.0,3.0,0.0
1829,73.0,1.0,20.0,4.0,0.0
1830,61.0,0.0,15.0,5.0,0.0
1831,49.0,11.0,15.0,6.0,0.0
1832,63.0,0.0,15.0,0.0,0.0
1833,63.0,0.0,15.0,5.0,0.0
1834,51.0,9.0,15.0,6.0,0.0
1835,61.0,0.0,20.0,0.0,0.0
1836,65.0,0.0,20.0,5.0,0.0
1837,53.0,1.0,20.0,6.0,0.0
1838,80.0,12.0,15.0,1.0,0.0
1839,73.0,14.0,30.0,0.0,0.0
1840,77.0,11.0,15.0,1.0,0.0
1841,61.0,0.0,20.0,5.0,0.0
1842,49.0,1.0,20.0,6.0,0.0
1843,73.0,9.0,15.0,1.0,0.0
1844,81.0,0.0,20.0,1.0,0.0
1845,54.0,0.0,20.0,5.0,0.0
1846,42.0,1.0,20.0,6.0,0.0
1847,78.0,12.0,15.0,0.0,0.0
1848,81.0,11.0,15.0,0.0,0.0
1849,78.0,1.0,20.0,1.0,0.0
1850,85.0,12.0,15.0,0.0,0.0
1851,90.0,11.0,15.0,0.0,0.0
1852,73.0,1.0,20.0,1.0,0.0
1853,85.0,12.0,15.0,0.0,0.0
1854,81.0,11.0,15.0,0.0,0.0
1855,85.0,3.0,40.0,1.0,0.0
1856,66.0,0.0,20.0,5.0,0.0
1857,54.0,1.0,20.0,6.0,0.0
1858,78.0,12.0,15.0,0.0,0.0
1859,73.0,8.0,15.0,0.0,0.0
1860,64.0,0.0,20.0,5.0,0.0
1861,52.0,1.0,20.0,6.0,0.0
1862,76.0,12.0,15.0,0.0,0.0
1863,80.0,0.0,15.0,0.0,0.0
1864,80.0,12.0,15.0,1.0,0.0
1865,85.0,0.0,15.0,0.0,0.0
1866,76.0,12.0,15.0,1.0,0.0
1867,88.0,12.0,15.0,0.0,0.0
1868,73.0,6.0,60.0,1.0,0.0
1869,85.0,12.0,15.0,0.0,0.0
1870,80.0,11.0,15.0,0.0,0.0
1871,52.0,0.0,20.0,5.0,0.0
1872,40.0,1.0,20.0,6.0,0.0
1873,76.0,12.0,15.0,0.0,0.0
1874,73.0,5.0,15.0,0.0,0.0
1875,57.0,0.0,20.0,5.0,0.0
1876,45.0,1.0,20.0,6.0,0.0
1877,75.0,12.0,15.0,0.0,0.0
1878,78.0,11.0,15.0,0.0,0.0
1879,69.0,1.0,20.0,1.0,0.0
1880,81.0,12.0,15.0,0.0,0.0
1881,87.0,11.0,15.0,0.0,0.0
1882,66.0,1.0,20.0,1.0,0.0
1883,81.0,12.0,15.0,0.0,0.0
1884,78.0,11.0,15.0,0.0,0.0
1885,78.0,3.0,40.0,1.0,0.0
1886,45.0,0.0,20.0,5.0,0.0
1887,33.0,1.0,20.0,6.0,0.0
1888,73.0,12.0,15.0,0.0,0.0
1889,72.0,8.0,15.0,0.0,0.0
1890,44.0,0.0,20.0,5.0,0.0
1891,32.0,1.0,20.0,6.0,0.0
1892,75.0,12.0,15.0,0.0,0.0
1893,78.0,0.0,15.0,0.0,0.0
1894,75.0,12.0,15.0,1.0,0.0
1895,80.0,0.0,15.0,0.0,0.0
1896,72.0,12.0,15.0,1.0,0.0
1897,87.0,1.0,20.0,0.0,0.0
1898,68.0,11.0,15.0,1.0,0.0
1899,66.0,12.0,15.0,1.0,0.0
1900,64.0,12.0,15.0,1.0,0.0
1901,63.0,23.0,15.0,1.0,0.0
1902,64.0,0.0,20.0,1.0,0.0
1903,73.0,0.0,20.0,2.0,0.0
1904,68.0,0.0,20.0,3.0,0.0
1905,61.0,0.0,20.0,4.0,0.0
1906,61.0,0.0,20.0,5.0,0.0
1907,49.0,24.0,20.0,6.0,0.0
1908,80.0,24.0,20.0,1.0,0.0
1909,63.0,0.0,20.0,1.0,0.0
1910,72.0,0.0,20.0,2.0,0.0
1911,68.0,0.0,20.0,3.0,0.0
1912,63.0,0.0,20.0,4.0,0.0
1913,56.0,0.0,20.0,5.0,0.0
1914,44.0,24.0,20.0,6.0,0.0
1915,78.0,13.0,20.0,1.0,0.0
1916,61.0,11.0,15.0,1.0,0.0
1917,73.0,0.0,20.0,2.0,0.0
1918,68.0,0.0,20.0,3.0,0.0
1919,64.0,0.0,20.0,4.0,0.0
1920,49.0,0.0,20.0,5.0,0.0
1921,37.0,1.0,20.0,6.0,0.0
1922,78.0,12.0,15.0,1.0,0.0
1923,76.0,12.0,15.0,1.0,0.0
1924,75.0,12.0,15.0,1.0,0.0
1925,73.0,12.0,15.0,1.0,0.0
1926,71.0,12.0,15.0,1.0,0.0
1927,69.0,12.0,15.0,1.0,0.0
1928,68.0,23.0,15.0,1.0,0.0
1929,69.0,0.0,20.0,1.0,0.0
1930,73.0,0.0,20.0,2.0,0.0
1931,66.0,0.0,20.0,3.0,0.0
1932,69.0,0.0,20.0,4.0,0.0
1933,54.0,0.0,20.0,5.0,0.0
1934,42.0,24.0,20.0,6.0,0.0
1935,85.0,24.0,20.0,1.0,0.0
1936,68.0,0.0,20.0,1.0,0.0
1937,73.0,0.0,20.0,2.0,0.0
1938,68.0,0.0,20.0,3.0,0.0
1939,65.0,0.0,20.0,4.0,0.0
1940,49.0,0.0,20.0,5.0,0.0
1941,37.0,24.0,20.0,6.0,0.0
1942,83.0,13.0,20.0,1.0,0.0
1943,66.0,11.0,15.0,1.0,0.0
1944,73.0,0.0,20.0,2.0,0.0
1945,69.0,0.0,20.0,3.0,0.0
1946,66.0,0.0,20.0,4.0,0.0
1947,42.0,0.0,20.0,5.0,0.0
1948,30.0,1.0,20.0,6.0,0.0
1949,83.0,12.0,15.0,1.0,0.0
1950,81.0,12.0,15.0,1.0,0.0
1951,80.0,12.0,15.0,1.0,0.0
1952,78.0,12.0,15.0,1.0,0.0
1953,76.0,12.0,15.0,1.0,0.0
1954,75.0,12.0,15.0,1.0,0.0
1955,73.0,12.0,15.0,1.0,0.0
1956,75.0,11.0,15.0,1.0,0.0
1957,47.0,0.0,20.0,5.0,0.0
1958,35.0,1.0,20.0,6.0,0.0
1959,81.0,12.0,15.0,1.0,0.0
1960,80.0,12.0,15.0,1.0,0.0
1961,78.0,12.0,15.0,1.0,0.0
1962,80.0,11.0,15.0,1.0,0.0
1963,52.0,0.0,20.0,5.0,0.0
1964,40.0,1.0,20.0,6.0,0.0
1965,75.0,12.0,15.0,1.0,0.0
1966,73.0,12.0,15.0,1.0,0.0
1967,72.0,12.0,15.0,1.0,0.0
1968,73.0,11.0,15.0,1.0,0.0
1969,57.0,0.0,20.0,5.0,0.0
1970,45.0,1.0,20.0,6.0,0.0
1971,80.0,12.0,15.0,1.0,0.0
1972,78.0,12.0,15.0,1.0,0.0
1973,76.0,12.0,15.0,1.0,0.0
1974,78.0,11.0,15.0,1.0,0.0
1975,51.0,0.0,20.0,5.0,0.0
1976,39.0,1.0,20.0,6.0,0.0
1977,73.0,12.0,15.0,1.0,0.0
1978,72.0,12.0,15.0,1.0,0.0
1979,70.0,12.0,15.0,1.0,0.0
1980,72.0,11.0,15.0,1.0,0.0
1981,56.0,0.0,20.0,5.0,0.0
1982,44.0,1.0,20.0,6.0,0.0
1983,78.0,12.0,15.0,1.0,0.0
1984,76.0,12.0,15.0,1.0,0.0
1985,75.0,12.0,15.0,1.0,0.0
1986,76.0,11.0,15.0,1.0,0.0
1987,49.0,0.0,20.0,5.0,0.0
1988,37.0,1.0,20.0,6.0,0.0
1989,75.0,12.0,15.0,1.0,0.0
1990,73.0,12.0,15.0,1.0,0.0
1991,76.0,12.0,15.0,1.0,0.0
1992,75.0,11.0,15.0,1.0,0.0
1993,56.0,0.0,20.0,5.0,0.0
1994,44.0,1.0,20.0,6.0,0.0
1995,73.0,12.0,15.0,1.0,0.0
1996,72.0,11.0,15.0,1.0,0.0
1997,51.0,0.0,20.0,5.0,0.0
1998,39.0,1.0,20.0,6.0,0.0
1999,70.0,23.0,15.0,1.0,0.0
2000,68.0,17.0,60.0,1.0,0.0
2001,48.0,0.0,20.0,5.0,0.0
2002,36.0,1.0,20.0,6.0,0.0
2003,66.0,12.0,15.0,0.0,0.0
2004,64.0,11.0,15.0,0.0,0.0
2005,44.0,0.0,20.0,5.0,0.0
2006,32.0,1.0,20.0,6.0,0.0
2007,63.0,6.0,15.0,0.0,0.0
2008,64.0,0.0,20.0,0.0,0.0
2009,73.0,0.0,20.0,2.0,0.0
2010,68.0,0.0,20.0,3.0,0.0
2011,64.0,0.0,20.0,4.0,0.0
2012,49.0,0.0,20.0,5.0,0.0
2013,37.0,1.0,20.0,6.0,0.0
2014,64.0,12.0,15.0,1.0,0.0
2015,80.0,1.0,20.0,0.0,0.0
2016,61.0,11.0,15.0,1.0,0.0
2017,64.0,12.0,15.0,1.0,0.0
2018,63.0,0.0,20.0,0.0,0.0
2019,66.0,11.0,15.0,1.0,0.0
2020,75.0,0.0,20.0,2.0,0.0
2021,72.0,0.0,20.0,3.0,0.0
2022,68.0,0.0,20.0,4.0,0.0
2023,56.0,0.0,20.0,5.0,0.0
2024,44.0,1.0,20.0,6.0,0.0
2025,63.0,12.0,15.0,1.0,0.0
2026,78.0,1.0,20.0,0.0,0.0
2027,60.0,11.0,15.0,1.0,0.0
2028,63.0,12.0,15.0,1.0,0.0
2029,61.0,11.0,15.0,0.0,0.0
2030,64.0,0.0,20.0,1.0,0.0
2031,76.0,0.0,20.0,2.0,0.0
2032,73.0,0.0,20.0,3.0,0.0
2033,68.0,0.0,20.0,4.0,0.0
2034,61.0,0.0,20.0,5.0,0.0
2035,49.0,1.0,20.0,6.0,0.0
2036,78.0,12.0,15.0,0.0,0.0
2037,76.0,11.0,15.0,0.0,0.0
2038,61.0,1.0,20.0,1.0,0.0
2039,75.0,12.0,15.0,0.0,0.0
2040,73.0,12.0,15.0,0.0,0.0
2041,73.0,17.0,60.0,1.0,0.0
2042,71.0,12.0,15.0,0.0,0.0
2043,69.0,12.0,15.0,0.0,0.0
2044,68.0,6.0,15.0,0.0,0.0
2045,69.0,0.0,20.0,0.0,0.0
2046,78.0,0.0,20.0,2.0,0.0
2047,73.0,0.0,20.0,3.0,0.0
2048,66.0,0.0,20.0,4.0,0.0
2049,54.0,0.0,20.0,5.0,0.0
2050,42.0,1.0,20.0,6.0,0.0
2051,69.0,12.0,15.0,1.0,0.0
2052,85.0,1.0,20.0,0.0,0.0
2053,66.0,11.0,15.0,1.0,0.0
2054,69.0,12.0,15.0,1.0,0.0
2055,68.0,0.0,20.0,0.0,0.0
2056,71.0,11.0,15.0,1.0,0.0
2057,77.0,0.0,20.0,2.0,0.0
2058,73.0,0.0,20.0,3.0,0.0
2059,68.0,0.0,20.0,4.0,0.0
2060,49.0,0.0,20.0,5.0,0.0
2061,37.0,1.0,20.0,6.0,0.0
2062,68.0,12.0,15.0,1.0,0.0
2063,83.0,1.0,20.0,0.0,0.0
2064,65.0,11.0,15.0,1.0,0.0
2065,68.0,12.0,15.0,1.0,0.0
2066,66.0,11.0,15.0,0.0,0.0
2067,69.0,0.0,20.0,1.0,0.0
2068,78.0,0.0,20.0,2.0,0.0
2069,73.0,0.0,20.0,3.0,0.0
2070,69.0,0.0,20.0,4.0,0.0
2071,42.0,0.0,20.0,5.0,0.0
2072,30.0,1.0,20.0,6.0,0.0
2073,83.0,12.0,15.0,0.0,0.0
2074,81.0,11.0,15.0,0.0,0.0
2075,66.0,1.0,20.0,1.0,0.0
2076,80.0,12.0,15.0,0.0,0.0
2077,78.0,12.0,15.0,0.0,0.0
2078,81.0,6.0,60.0,1.0,0.0
2079,76.0,12.0,15.0,0.0,0.0
2080,75.0,12.0,15.0,0.0,0.0
2081,73.0,6.0,15.0,0.0,0.0
2082,75.0,11.0,15.0,0.0,0.0
2083,59.0,0.0,20.0,5.0,0.0
2084,47.0,1.0,20.0,6.0,0.0
2085,81.0,0.0,15.0,0.0,0.0
2086,66.0,12.0,15.0,1.0,0.0
2087,80.0,0.0,15.0,0.0,0.0
2088,64.0,12.0,15.0,1.0,0.0
2089,78.0,0.0,15.0,0.0,0.0
2090,63.0,12.0,15.0,1.0,0.0
2091,80.0,11.0,15.0,0.0,0.0
2092,64.0,0.0,20.0,1.0,0.0
2093,52.0,0.0,20.0,5.0,0.0
2094,40.0,1.0,20.0,6.0,0.0
2095,75.0,12.0,15.0,0.0,0.0
2096,73.0,12.0,15.0,0.0,0.0
2097,80.0,3.0,30.0,1.0,0.0
2098,72.0,9.0,15.0,0.0,0.0
2099,73.0,11.0,15.0,0.0,0.0
2100,57.0,0.0,20.0,5.0,0.0
2101,45.0,1.0,20.0,6.0,0.0
2102,80.0,0.0,15.0,0.0,0.0
2103,64.0,12.0,15.0,1.0,0.0
2104,78.0,0.0,15.0,0.0,0.0
2105,63.0,12.0,15.0,1.0,0.0
2106,76.0,0.0,15.0,0.0,0.0
2107,61.0,12.0,15.0,1.0,0.0
2108,78.0,11.0,15.0,0.0,0.0
2109,63.0,0.0,20.0,1.0,0.0
2110,51.0,0.0,20.0,5.0,0.0
2111,39.0,1.0,20.0,6.0,0.0
2112,73.0,12.0,15.0,0.0,0.0
2113,72.0,12.0,15.0,0.0,0.0
2114,78.0,3.0,30.0,1.0,0.0
2115,70.0,9.0,15.0,0.0,0.0
2116,72.0,11.0,15.0,0.0,0.0
2117,56.0,0.0,20.0,5.0,0.0
2118,44.0,1.0,20.0,6.0,0.0
2119,78.0,0.0,15.0,0.0,0.0
2120,63.0,12.0,15.0,1.0,0.0
2121,76.0,0.0,15.0,0.0,0.0
2122,61.0,12.0,15.0,1.0,0.0
2123,75.0,0.0,15.0,0.0,0.0
2124,60.0,12.0,15.0,1.0,0.0
2125,76.0,11.0,15.0,0.0,0.0
2126,61.0,0.0,20.0,1.0,0.0
2127,49.0,0.0,20.0,5.0,0.0
2128,37.0,1.0,20.0,6.0,0.0
2129,75.0,12.0,15.0,0.0,0.0
2130,73.0,12.0,15.0,0.0,0.0
2131,73.0,3.0,30.0,1.0,0.0
2132,76.0,9.0,15.0,0.0,0.0
2133,75.0,11.0,15.0,0.0,0.0
2134,56.0,0.0,20.0,5.0,0.0
2135,44.0,1.0,20.0,6.0,0.0
2136,73.0,0.0,15.0,0.0,0.0
2137,76.0,12.0,15.0,1.0,0.0
2138,72.0,0.0,15.0,0.0,0.0
2139,75.0,11.0,15.0,1.0,0.0
2140,44.0,0.0,20.0,5.0,0.0
2141,32.0,1.0,20.0,6.0,0.0
2142,70.0,0.0,15.0,0.0,0.0
2143,73.0,12.0,15.0,1.0,0.0
2144,68.0,0.0,20.0,0.0,0.0
2145,75.0,11.0,15.0,1.0,0.0
2146,48.0,0.0,20.0,5.0,0.0
2147,36.0,1.0,20.0,6.0,0.0
2148,78.0,12.0,15.0,1.0,0.0
2149,76.0,11.0,15.0,1.0,0.0
2150,44.0,0.0,20.0,5.0,0.0
2151,32.0,1.0,20.0,6.0,0.0
2152,75.0,12.0,15.0,1.0,0.0
2153,73.0,0.0,15.0,0.0,0.0
2154,76.0,0.0,15.0,1.0,0.0
2155,73.0,11.0,15.0,2.0,0.0
2156,68.0,0.0,20.0,4.0,0.0
2157,49.0,0.0,20.0,5.0,0.0
2158,37.0,1.0,20.0,6.0,0.0
2159,75.0,0.0,15.0,0.0,0.0
2160,75.0,0.0,15.0,1.0,0.0
2161,75.0,12.0,15.0,2.0,0.0
2162,76.0,0.0,15.0,0.0,0.0
2163,73.0,0.0,15.0,1.0,0.0
2164,76.0,0.0,15.0,2.0,0.0
2165,73.0,11.0,15.0,3.0,0.0
2166,64.0,0.0,20.0,4.0,0.0
2167,61.0,0.0,20.0,5.0,0.0
2168,49.0,1.0,20.0,6.0,0.0
2169,78.0,0.0,15.0,0.0,0.0
2170,75.0,0.0,15.0,1.0,0.0
2171,78.0,0.0,15.0,2.0,0.0
2172,75.0,12.0,15.0,3.0,0.0
2173,80.0,0.0,20.0,0.0,0.0
2174,76.0,0.0,15.0,1.0,0.0
2175,80.0,0.0,20.0,2.0,0.0
2176,76.0,11.0,15.0,3.0,0.0
2177,61.0,3.0,40.0,4.0,0.0
2178,59.0,0.0,20.0,5.0,0.0
2179,47.0,1.0,20.0,6.0,0.0
2180,75.0,0.0,15.0,1.0,0.0
2181,75.0,12.0,15.0,3.0,0.0
2182,85.0,0.0,20.0,0.0,0.0
2183,76.0,0.0,15.0,1.0,0.0
2184,85.0,0.0,20.0,2.0,0.0
2185,76.0,8.0,15.0,3.0,0.0
2186,57.0,0.0,20.0,5.0,0.0
2187,45.0,1.0,20.0,6.0,0.0
2188,78.0,0.0,15.0,1.0,0.0
2189,78.0,12.0,15.0,3.0,0.0
2190,84.0,0.0,20.0,0.0,0.0
2191,80.0,0.0,90.0,1.0,0.0
2192,84.0,0.0,20.0,2.0,0.0
2193,80.0,0.0,90.0,3.0,0.0
2194,63.0,1.0,20.0,4.0,0.0
2195,56.0,0.0,15.0,5.0,0.0
2196,44.0,11.0,15.0,6.0,0.0
2197,54.0,0.0,15.0,5.0,0.0
2198,42.0,12.0,15.0,6.0,0.0
2199,80.0,0.0,20.0,0.0,0.0
2200,80.0,0.0,20.0,2.0,0.0
2201,68.0,1.0,20.0,4.0,0.0
2202,56.0,0.0,15.0,5.0,0.0
2203,44.0,11.0,15.0,6.0,0.0
2204,57.0,0.0,15.0,5.0,0.0
2205,45.0,12.0,15.0,6.0,0.0
2206,75.0,0.0,20.0,0.0,0.0
2207,75.0,1.0,20.0,2.0,0.0
2208,72.0,3.0,40.0,4.0,0.0
2209,56.0,0.0,15.0,5.0,0.0
2210,44.0,11.0,15.0,6.0,0.0
2211,54.0,0.0,15.0,5.0,0.0
2212,42.0,12.0,15.0,6.0,0.0
2213,78.0,0.0,20.0,0.0,0.0
2214,78.0,1.0,20.0,2.0,0.0
2215,53.0,0.0,15.0,5.0,0.0
2216,41.0,8.0,15.0,6.0,0.0
2217,51.0,0.0,15.0,5.0,0.0
2218,39.0,12.0,15.0,6.0,0.0
2219,77.0,0.0,20.0,0.0,0.0
2220,77.0,0.0,20.0,2.0,0.0
2221,73.0,1.0,20.0,4.0,0.0
2222,49.0,0.0,15.0,5.0,0.0
2223,37.0,11.0,15.0,6.0,0.0
2224,78.0,0.0,15.0,1.0,0.0
2225,78.0,0.0,15.0,3.0,0.0
2226,48.0,0.0,15.0,5.0,0.0
2227,36.0,12.0,15.0,6.0,0.0
2228,73.0,0.0,20.0,0.0,0.0
2229,77.0,0.0,15.0,1.0,0.0
2230,73.0,0.0,20.0,2.0,0.0
2231,77.0,0.0,15.0,3.0,0.0
2232,68.0,1.0,20.0,4.0,0.0
2233,49.0,0.0,15.0,5.0,0.0
2234,37.0,11.0,15.0,6.0,0.0
2235,75.0,0.0,15.0,1.0,0.0
2236,75.0,0.0,15.0,3.0,0.0
2237,51.0,0.0,15.0,5.0,0.0
2238,39.0,12.0,15.0,6.0,0.0
2239,83.0,0.0,60.0,0.0,0.0
2240,77.0,0.0,15.0,1.0,0.0
2241,83.0,7.0,60.0,2.0,0.0
2242,77.0,0.0,15.0,3.0,0.0
2243,80.0,1.0,20.0,4.0,0.0
2244,49.0,0.0,15.0,5.0,0.0
2245,37.0,11.0,15.0,6.0,0.0
2246,73.0,0.0,15.0,1.0,0.0
2247,73.0,0.0,15.0,3.0,0.0
2248,47.0,0.0,15.0,5.0,0.0
2249,35.0,12.0,15.0,6.0,0.0
2250,75.0,0.0,15.0,1.0,0.0
2251,75.0,0.0,15.0,3.0,0.0
2252,73.0,1.0,20.0,4.0,0.0
2253,45.0,0.0,15.0,5.0,0.0
2254,33.0,11.0,15.0,6.0,0.0
2255,77.0,0.0,15.0,1.0,0.0
2256,77.0,0.0,15.0,3.0,0.0
2257,44.0,0.0,15.0,5.0,0.0
2258,32.0,12.0,15.0,6.0,0.0
2259,78.0,0.0,90.0,1.0,0.0
2260,78.0,0.0,90.0,3.0,0.0
2261,42.0,0.0,15.0,5.0,0.0
2262,30.0,5.0,15.0,6.0,0.0
2263,53.0,0.0,15.0,5.0,0.0
2264,41.0,12.0,15.0,6.0,0.0
2265,82.0,0.0,15.0,0.0,0.0
2266,82.0,0.0,15.0,2.0,0.0
2267,73.0,1.0,20.0,4.0,0.0
2268,54.0,0.0,15.0,5.0,0.0
2269,42.0,11.0,15.0,6.0,0.0
2270,80.0,0.0,15.0,0.0,0.0
2271,80.0,0.0,15.0,2.0,0.0
2272,56.0,0.0,15.0,5.0,0.0
2273,44.0,12.0,15.0,6.0,0.0
2274,82.0,0.0,20.0,0.0,0.0
2275,82.0,0.0,20.0,2.0,0.0
2276,61.0,1.0,20.0,4.0,0.0
2277,54.0,0.0,15.0,5.0,0.0
2278,42.0,11.0,15.0,6.0,0.0
2279,52.0,0.0,15.0,5.0,0.0
2280,40.0,12.0,15.0,6.0,0.0
2281,78.0,0.0,20.0,0.0,0.0
2282,78.0,0.0,20.0,2.0,0.0
2283,66.0,1.0,20.0,4.0,0.0
2284,51.0,0.0,15.0,5.0,0.0
2285,39.0,11.0,15.0,6.0,0.0
2286,49.0,0.0,15.0,5.0,0.0
2287,37.0,23.0,15.0,6.0,0.0
2288,75.0,0.0,20.0,0.0,0.0
2289,75.0,1.0,20.0,2.0,0.0
2290,48.0,0.0,40.0,5.0,0.0
2291,36.0,3.0,40.0,6.0,0.0
2292,76.0,0.0,15.0,1.0,0.0
2293,76.0,12.0,15.0,3.0,0.0
2294,78.0,0.0,20.0,0.0,0.0
2295,75.0,0.0,15.0,1.0,0.0
2296,78.0,0.0,20.0,2.0,0.0
2297,75.0,8.0,15.0,3.0,0.0
2298,69.0,1.0,20.0,4.0,0.0
2299,76.0,0.0,15.0,1.0,0.0
2300,76.0,12.0,15.0,3.0,0.0
2301,81.0,0.0,20.0,0.0,0.0
2302,78.0,0.0,15.0,1.0,0.0
2303,81.0,0.0,20.0,2.0,0.0
2304,78.0,11.0,15.0,3.0,0.0
2305,63.0,1.0,20.0,4.0,0.0
2306,80.0,0.0,15.0,1.0,0.0
2307,80.0,12.0,15.0,3.0,0.0
2308,73.0,0.0,20.0,0.0,0.0
2309,81.0,0.0,15.0,1.0,0.0
2310,73.0,0.0,20.0,2.0,0.0
2311,81.0,11.0,15.0,3.0,0.0
2312,66.0,1.0,20.0,4.0,0.0
2313,54.0,0.0,40.0,5.0,0.0
2314,42.0,3.0,40.0,6.0,0.0
2315,78.0,0.0,15.0,1.0,0.0
2316,78.0,12.0,15.0,3.0,0.0
2317,72.0,0.0,20.0,0.0,0.0
2318,80.0,0.0,15.0,1.0,0.0
2319,72.0,1.0,20.0,2.0,0.0
2320,80.0,8.0,15.0,3.0,0.0
2321,81.0,0.0,15.0,1.0,0.0
2322,81.0,12.0,15.0,3.0,0.0
2323,80.0,0.0,20.0,0.0,0.0
2324,80.0,0.0,15.0,1.0,0.0
2325,80.0,0.0,20.0,2.0,0.0
2326,80.0,0.0,15.0,3.0,0.0
2327,60.0,1.0,20.0,4.0,0.0
2328,52.0,0.0,15.0,5.0,0.0
2329,40.0,11.0,15.0,6.0,0.0
2330,78.0,0.0,15.0,1.0,0.0
2331,78.0,0.0,15.0,3.0,0.0
2332,51.0,0.0,15.0,5.0,0.0
2333,39.0,12.0,15.0,6.0,0.0
2334,73.0,0.0,20.0,0.0,0.0
2335,76.0,0.0,15.0,1.0,0.0
2336,73.0,0.0,20.0,2.0,0.0
2337,76.0,11.0,15.0,3.0,0.0
2338,56.0,0.0,20.0,4.0,0.0
2339,52.0,0.0,20.0,5.0,0.0
2340,40.0,1.0,20.0,6.0,0.0
2341,75.0,0.0,15.0,1.0,0.0
2342,75.0,12.0,15.0,3.0,0.0
2343,78.0,0.0,20.0,0.0,0.0
2344,73.0,0.0,15.0,1.0,0.0
2345,78.0,0.0,20.0,2.0,0.0
2346,73.0,11.0,15.0,3.0,0.0
2347,61.0,0.0,20.0,4.0,0.0
2348,57.0,0.0,20.0,5.0,0.0
2349,45.0,1.0,20.0,6.0,0.0
2350,72.0,0.0,15.0,1.0,0.0
2351,72.0,23.0,15.0,3.0,0.0
2352,76.0,0.0,40.0,0.0,0.0
2353,73.0,0.0,20.0,1.0,0.0
2354,76.0,3.0,40.0,2.0,0.0
2355,73.0,0.0,20.0,3.0,0.0
2356,68.0,0.0,20.0,4.0,0.0
2357,56.0,0.0,20.0,5.0,0.0
2358,44.0,21.0,20.0,6.0,0.0
2359,85.0,0.0,40.0,1.0,0.0
2360,85.0,0.0,40.0,3.0,0.0
2361,69.0,3.0,40.0,4.0,0.0
2362,54.0,0.0,20.0,5.0,0.0
2363,42.0,9.0,20.0,6.0,0.0
2364,75.0,0.0,15.0,0.0,0.0
2365,75.0,6.0,15.0,2.0,0.0
2366,56.0,0.0,20.0,5.0,0.0
2367,44.0,3.0,20.0,6.0,0.0
2368,76.0,0.0,15.0,0.0,0.0
2369,76.0,6.0,15.0,2.0,0.0
2370,75.0,0.0,15.0,0.0,0.0
2371,75.0,0.0,15.0,2.0,0.0
2372,76.0,0.0,15.0,0.0,0.0
2373,76.0,6.0,15.0,2.0,0.0
2374,75.0,0.0,15.0,0.0,0.0
2375,84.0,0.0,20.0,1.0,0.0
2376,75.0,4.0,15.0,2.0,0.0
2377,84.0,0.0,20.0,3.0,0.0
2378,68.0,2.0,15.0,4.0,0.0
2379,44.0,0.0,20.0,5.0,0.0
2380,32.0,1.0,20.0,6.0,0.0
2381,76.0,0.0,15.0,0.0,0.0
2382,76.0,4.0,15.0,2.0,0.0
2383,75.0,0.0,15.0,0.0,0.0
2384,75.0,4.0,15.0,2.0,0.0
2385,66.0,1.0,15.0,4.0,0.0
2386,76.0,0.0,15.0,0.0,0.0
2387,76.0,1.0,15.0,2.0,0.0
2388,75.0,0.0,15.0,0.0,0.0
2389,75.0,22.0,15.0,2.0,0.0
2390,73.0,0.0,40.0,0.0,0.0
2391,85.0,0.0,20.0,1.0,0.0
2392,73.0,0.0,40.0,2.0,0.0
2393,85.0,0.0,40.0,3.0,0.0
2394,64.0,3.0,40.0,4.0,0.0
2395,49.0,0.0,20.0,5.0,0.0
2396,37.0,13.0,20.0,6.0,0.0
2397,83.0,8.0,15.0,1.0,0.0
2398,61.0,0.0,20.0,5.0,0.0
2399,49.0,1.0,20.0,6.0,0.0
2400,81.0,12.0,15.0,1.0,0.0
2401,80.0,11.0,15.0,1.0,0.0
2402,60.0,0.0,20.0,5.0,0.0
2403,48.0,1.0,20.0,6.0,0.0
2404,69.0,0.0,15.0,0.0,0.0
2405,78.0,12.0,15.0,1.0,0.0
2406,68.0,0.0,15.0,0.0,0.0
2407,76.0,11.0,15.0,1.0,0.0
2408,56.0,0.0,20.0,5.0,0.0
2409,44.0,1.0,20.0,6.0,0.0
2410,66.0,0.0,15.0,0.0,0.0
2411,75.0,14.0,15.0,1.0,0.0
2412,64.0,0.0,20.0,0.0,0.0
2413,73.0,9.0,15.0,1.0,0.0
2414,68.0,0.0,300.0,2.0,0.0
2415,68.0,0.0,300.0,3.0,0.0
2416,68.0,4.0,300.0,4.0,0.0
2417,61.0,0.0,20.0,5.0,0.0
2418,49.0,3.0,20.0,6.0,0.0
2419,76.0,10.0,15.0,1.0,0.0
2420,73.0,1.0,20.0,0.0,0.0
2421,80.0,11.0,15.0,1.0,0.0
2422,85.0,14.0,15.0,1.0,0.0
2423,66.0,3.0,20.0,0.0,0.0
2424,75.0,9.0,15.0,1.0,0.0
2425,78.0,10.0,15.0,1.0,0.0
2426,75.0,1.0,20.0,0.0,0.0
2427,80.0,11.0,15.0,1.0,0.0
2428,84.0,12.0,15.0,1.0,0.0
2429,64.0,1.0,20.0,0.0,0.0
2430,85.0,11.0,15.0,1.0,0.0
2431,80.0,12.0,15.0,1.0,0.0
2432,73.0,1.0,20.0,0.0,0.0
2433,76.0,11.0,15.0,1.0,0.0
2434,73.0,14.0,15.0,1.0,0.0
2435,63.0,3.0,20.0,0.0,0.0
2436,72.0,9.0,15.0,1.0,0.0
2437,75.0,10.0,15.0,1.0,0.0
2438,72.0,1.0,20.0,0.0,0.0
2439,78.0,11.0,15.0,1.0,0.0
2440,80.0,14.0,15.0,1.0,0.0
2441,64.0,3.0,20.0,0.0,0.0
2442,73.0,9.0,15.0,1.0,0.0
2443,76.0,10.0,15.0,1.0,0.0
2444,73.0,0.0,20.0,0.0,0.0
2445,80.0,11.0,15.0,1.0,0.0
2446,61.0,0.0,20.0,5.0,0.0
2447,49.0,1.0,20.0,6.0,0.0
2448,85.0,14.0,15.0,1.0,0.0
2449,68.0,0.0,20.0,0.0,0.0
2450,75.0,9.0,15.0,1.0,0.0
2451,60.0,0.0,20.0,5.0,0.0
2452,48.0,3.0,20.0,6.0,0.0
2453,78.0,10.0,15.0,1.0,0.0
2454,75.0,0.0,20.0,0.0,0.0
2455,80.0,11.0,15.0,1.0,0.0
2456,56.0,0.0,20.0,5.0,0.0
2457,44.0,1.0,20.0,6.0,0.0
2458,84.0,8.0,15.0,1.0,0.0
2459,76.0,0.0,20.0,0.0,0.0
2460,85.0,11.0,15.0,1.0,0.0
2461,49.0,0.0,20.0,5.0,0.0
2462,37.0,1.0,20.0,6.0,0.0
2463,80.0,12.0,15.0,1.0,0.0
2464,73.0,1.0,20.0,0.0,0.0
2465,76.0,0.0,15.0,1.0,0.0
2466,61.0,0.0,15.0,5.0,0.0
2467,49.0,11.0,15.0,6.0,0.0
2468,73.0,0.0,15.0,1.0,0.0
2469,63.0,0.0,15.0,5.0,0.0
2470,51.0,12.0,15.0,6.0,0.0
2471,61.0,11.0,15.0,1.0,0.0
2472,64.0,0.0,20.0,5.0,0.0
2473,52.0,1.0,20.0,6.0,0.0
2474,83.0,0.0,15.0,0.0,0.0
2475,74.0,12.0,15.0,1.0,0.0
2476,81.0,0.0,15.0,0.0,0.0
2477,73.0,11.0,15.0,1.0,0.0
2478,65.0,0.0,20.0,5.0,0.0
2479,53.0,1.0,20.0,6.0,0.0
2480,80.0,0.0,15.0,0.0,0.0
2481,71.0,14.0,15.0,1.0,0.0
2482,78.0,9.0,15.0,0.0,0.0
2483,69.0,0.0,20.0,1.0,0.0
2484,61.0,0.0,300.0,2.0,0.0
2485,61.0,1.0,270.0,3.0,0.0
2486,61.0,4.0,300.0,4.0,0.0
2487,66.0,0.0,20.0,5.0,0.0
2488,54.0,3.0,20.0,6.0,0.0
2489,81.0,10.0,15.0,0.0,0.0
2490,85.0,11.0,15.0,0.0,0.0
2491,78.0,1.0,20.0,1.0,0.0
2492,90.0,14.0,15.0,0.0,0.0
2493,80.0,9.0,15.0,0.0,0.0
2494,71.0,3.0,20.0,1.0,0.0
2495,83.0,10.0,15.0,0.0,0.0
2496,85.0,11.0,15.0,0.0,0.0
2497,80.0,1.0,20.0,1.0,0.0
2498,89.0,12.0,15.0,0.0,0.0
2499,90.0,11.0,15.0,0.0,0.0
2500,69.0,1.0,20.0,1.0,0.0
2501,85.0,12.0,15.0,0.0,0.0
2502,81.0,11.0,15.0,0.0,0.0
2503,78.0,1.0,20.0,1.0,0.0
2504,78.0,14.0,15.0,0.0,0.0
2505,77.0,9.0,15.0,0.0,0.0
2506,68.0,3.0,20.0,1.0,0.0
2507,80.0,10.0,15.0,0.0,0.0
2508,83.0,11.0,15.0,0.0,0.0
2509,77.0,1.0,20.0,1.0,0.0
2510,85.0,14.0,15.0,0.0,0.0
2511,78.0,9.0,15.0,0.0,0.0
2512,69.0,3.0,20.0,1.0,0.0
2513,81.0,10.0,15.0,0.0,0.0
2514,85.0,11.0,15.0,0.0,0.0
2515,78.0,0.0,20.0,1.0,0.0
2516,66.0,0.0,20.0,5.0,0.0
2517,54.0,1.0,20.0,6.0,0.0
2518,90.0,14.0,15.0,0.0,0.0
2519,80.0,9.0,15.0,0.0,0.0
2520,73.0,0.0,20.0,1.0,0.0
2521,65.0,0.0,20.0,5.0,0.0
2522,53.0,3.0,20.0,6.0,0.0
2523,83.0,9.0,15.0,0.0,0.0
2524,85.0,11.0,15.0,0.0,0.0
2525,80.0,0.0,20.0,1.0,0.0
2526,61.0,0.0,20.0,5.0,0.0
2527,49.0,1.0,20.0,6.0,0.0
2528,89.0,8.0,15.0,0.0,0.0
2529,90.0,11.0,15.0,0.0,0.0
2530,81.0,0.0,20.0,1.0,0.0
2531,66.0,0.0,20.0,5.0,0.0
2532,54.0,1.0,20.0,6.0,0.0
2533,85.0,12.0,15.0,0.0,0.0
2534,81.0,11.0,15.0,0.0,0.0
2535,78.0,0.0,20.0,1.0,0.0
2536,73.0,0.0,20.0,3.0,0.0
2537,54.0,0.0,20.0,5.0,0.0
2538,42.0,1.0,20.0,6.0,0.0
2539,78.0,12.0,15.0,0.0,0.0
2540,66.0,11.0,15.0,0.0,0.0
2541,78.0,3.0,60.0,3.0,0.0
2542,57.0,0.0,20.0,5.0,0.0
2543,45.0,1.0,20.0,6.0,0.0
2544,68.0,12.0,15.0,0.0,0.0
2545,69.0,11.0,15.0,0.0,0.0
2546,78.0,4.0,40.0,1.0,0.0
2547,66.0,0.0,20.0,2.0,0.0
2548,61.0,0.0,20.0,4.0,0.0
2549,54.0,0.0,20.0,5.0,0.0
2550,42.0,1.0,20.0,6.0,0.0
2551,66.0,12.0,15.0,0.0,0.0
2552,68.0,0.0,15.0,0.0,0.0
2553,68.0,5.0,15.0,2.0,0.0
2554,61.0,0.0,40.0,4.0,0.0
2555,61.0,0.0,40.0,5.0,0.0
2556,49.0,3.0,40.0,6.0,0.0
2557,66.0,0.0,15.0,0.0,0.0
2558,66.0,12.0,15.0,2.0,0.0
2559,68.0,0.0,15.0,0.0,0.0
2560,71.0,0.0,20.0,1.0,0.0
2561,68.0,8.0,15.0,2.0,0.0
2562,71.0,1.0,20.0,3.0,0.0
2563,69.0,0.0,15.0,0.0,0.0
2564,69.0,12.0,15.0,2.0,0.0
2565,68.0,0.0,15.0,0.0,0.0
2566,76.0,0.0,60.0,1.0,0.0
2567,68.0,12.0,15.0,2.0,0.0
2568,76.0,7.0,60.0,3.0,0.0
2569,70.0,0.0,15.0,0.0,0.0
2570,70.0,12.0,15.0,2.0,0.0
2571,71.0,0.0,15.0,0.0,0.0
2572,71.0,11.0,15.0,2.0,0.0
2573,61.0,1.0,20.0,4.0,0.0
2574,68.0,0.0,15.0,0.0,0.0
2575,68.0,12.0,15.0,2.0,0.0
2576,70.0,0.0,15.0,0.0,0.0
2577,70.0,5.0,15.0,2.0,0.0
2578,66.0,3.0,40.0,4.0,0.0
2579,68.0,0.0,15.0,0.0,0.0
2580,68.0,12.0,15.0,2.0,0.0
2581,70.0,0.0,15.0,0.0,0.0
2582,73.0,0.0,20.0,1.0,0.0
2583,70.0,8.0,15.0,2.0,0.0
2584,73.0,1.0,20.0,3.0,0.0
2585,71.0,0.0,15.0,0.0,0.0
2586,71.0,12.0,15.0,2.0,0.0
2587,70.0,0.0,15.0,0.0,0.0
2588,66.0,0.0,20.0,1.0,0.0
2589,70.0,11.0,15.0,2.0,0.0
2590,66.0,1.0,20.0,3.0,0.0
2591,71.0,0.0,15.0,0.0,0.0
2592,71.0,12.0,15.0,2.0,0.0
2593,73.0,0.0,15.0,0.0,0.0
2594,76.0,0.0,20.0,1.0,0.0
2595,73.0,11.0,15.0,2.0,0.0
2596,76.0,0.0,20.0,3.0,0.0
2597,70.0,1.0,20.0,4.0,0.0
2598,70.0,0.0,15.0,0.0,0.0
2599,70.0,12.0,15.0,2.0,0.0
2600,71.0,0.0,20.0,0.0,0.0
2601,74.0,0.0,15.0,1.0,0.0
2602,71.0,1.0,20.0,2.0,0.0
2603,74.0,0.0,15.0,3.0,0.0
2604,78.0,0.0,15.0,4.0,0.0
2605,47.0,0.0,15.0,5.0,0.0
2606,35.0,11.0,15.0,6.0,0.0
2607,73.0,0.0,15.0,1.0,0.0
2608,73.0,0.0,15.0,3.0,0.0
2609,76.0,0.0,15.0,4.0,0.0
2610,49.0,0.0,15.0,5.0,0.0
2611,37.0,12.0,15.0,6.0,0.0
2612,78.0,0.0,20.0,0.0,0.0
2613,71.0,0.0,15.0,1.0,0.0
2614,78.0,1.0,20.0,2.0,0.0
2615,71.0,0.0,15.0,3.0,0.0
2616,74.0,0.0,15.0,4.0,0.0
2617,50.0,0.0,15.0,5.0,0.0
2618,38.0,11.0,15.0,6.0,0.0
2619,73.0,0.0,15.0,1.0,0.0
2620,73.0,0.0,15.0,3.0,0.0
2621,73.0,0.0,15.0,4.0,0.0
2622,52.0,0.0,15.0,5.0,0.0
2623,40.0,12.0,15.0,6.0,0.0
2624,74.0,0.0,15.0,1.0,0.0
2625,74.0,0.0,15.0,3.0,0.0
2626,71.0,11.0,15.0,4.0,0.0
2627,54.0,0.0,20.0,5.0,0.0
2628,42.0,1.0,20.0,6.0,0.0
2629,73.0,0.0,15.0,1.0,0.0
2630,73.0,0.0,15.0,3.0,0.0
2631,70.0,12.0,15.0,4.0,0.0
2632,86.0,0.0,20.0,0.0,0.0
2633,74.0,0.0,15.0,1.0,0.0
2634,86.0,0.0,20.0,2.0,0.0
2635,74.0,0.0,15.0,3.0,0.0
2636,71.0,11.0,15.0,4.0,0.0
2637,59.0,0.0,20.0,5.0,0.0
2638,47.0,1.0,20.0,6.0,0.0
2639,76.0,0.0,15.0,1.0,0.0
2640,76.0,0.0,15.0,3.0,0.0
2641,73.0,12.0,15.0,4.0,0.0
2642,85.0,0.0,15.0,0.0,0.0
2643,78.0,0.0,90.0,1.0,0.0
2644,85.0,11.0,15.0,2.0,0.0
2645,78.0,23.0,90.0,3.0,0.0
2646,66.0,0.0,20.0,4.0,0.0
2647,58.0,0.0,20.0,5.0,0.0
2648,46.0,1.0,20.0,6.0,0.0
2649,83.0,0.0,15.0,0.0,0.0
2650,83.0,12.0,15.0,2.0,0.0
2651,82.0,0.0,15.0,0.0,0.0
2652,82.0,11.0,15.0,2.0,0.0
2653,73.0,0.0,20.0,4.0,0.0
2654,54.0,0.0,20.0,5.0,0.0
2655,42.0,1.0,20.0,6.0,0.0
2656,80.0,0.0,15.0,0.0,0.0
2657,80.0,12.0,15.0,2.0,0.0
2658,82.0,0.0,15.0,0.0,0.0
2659,82.0,11.0,15.0,2.0,0.0
2660,76.0,0.0,20.0,4.0,0.0
2661,49.0,0.0,20.0,5.0,0.0
2662,37.0,1.0,20.0,6.0,0.0
2663,78.0,0.0,15.0,0.0,0.0
2664,78.0,12.0,15.0,2.0,0.0
2665,80.0,0.0,15.0,0.0,0.0
2666,80.0,11.0,15.0,2.0,0.0
2667,73.0,0.0,20.0,4.0,0.0
2668,52.0,0.0,20.0,5.0,0.0
2669,40.0,1.0,20.0,6.0,0.0
2670,82.0,0.0,15.0,0.0,0.0
2671,82.0,0.0,15.0,2.0,0.0
2672,83.0,0.0,90.0,0.0,0.0
2673,83.0,0.0,90.0,2.0,0.0
2674,51.0,0.0,20.0,5.0,0.0
2675,39.0,1.0,20.0,6.0,0.0
2676,76.0,0.0,15.0,1.0,0.0
2677,76.0,12.0,15.0,3.0,0.0
2678,75.0,0.0,15.0,1.0,0.0
2679,75.0,11.0,15.0,3.0,0.0
2680,78.0,0.0,20.0,4.0,0.0
2681,47.0,0.0,20.0,5.0,0.0
2682,35.0,1.0,20.0,6.0,0.0
2683,73.0,0.0,15.0,1.0,0.0
2684,73.0,12.0,15.0,3.0,0.0
2685,75.0,0.0,15.0,1.0,0.0
2686,75.0,11.0,15.0,3.0,0.0
2687,66.0,1.0,20.0,4.0,0.0
2688,57.0,0.0,60.0,5.0,0.0
2689,45.0,7.0,60.0,6.0,0.0
2690,71.0,0.0,15.0,1.0,0.0
2691,71.0,12.0,15.0,3.0,0.0
2692,73.0,0.0,15.0,1.0,0.0
2693,73.0,11.0,15.0,3.0,0.0
2694,78.0,1.0,20.0,4.0,0.0
2695,75.0,0.0,15.0,1.0,0.0
2696,75.0,17.0,15.0,3.0,0.0
2697,76.0,0.0,90.0,1.0,0.0
2698,76.0,23.0,90.0,3.0,0.0
2699,81.0,0.0,15.0,0.0,0.0
2700,81.0,12.0,15.0,2.0,0.0
2701,83.0,0.0,15.0,0.0,0.0
2702,83.0,0.0,15.0,2.0,0.0
2703,71.0,1.0,20.0,4.0,0.0
2704,56.0,0.0,15.0,5.0,0.0
2705,44.0,11.0,15.0,6.0,0.0
2706,85.0,0.0,15.0,0.0,0.0
2707,85.0,0.0,15.0,2.0,0.0
2708,54.0,0.0,15.0,5.0,0.0
2709,42.0,12.0,15.0,6.0,0.0
2710,83.0,0.0,15.0,0.0,0.0
2711,83.0,11.0,15.0,2.0,0.0
2712,76.0,0.0,20.0,4.0,0.0
2713,56.0,0.0,20.0,5.0,0.0
2714,44.0,1.0,20.0,6.0,0.0
2715,86.0,0.0,15.0,0.0,0.0
2716,86.0,12.0,15.0,2.0,0.0
2717,85.0,0.0,15.0,0.0,0.0
2718,85.0,11.0,15.0,2.0,0.0
2719,68.0,0.0,20.0,4.0,0.0
2720,52.0,0.0,20.0,5.0,0.0
2721,40.0,1.0,20.0,6.0,0.0
2722,83.0,0.0,15.0,0.0,0.0
2723,83.0,0.0,15.0,2.0,0.0
2724,85.0,0.0,90.0,0.0,0.0
2725,85.0,0.0,90.0,2.0,0.0
2726,69.0,0.0,20.0,4.0,0.0
2727,49.0,0.0,20.0,5.0,0.0
2728,37.0,1.0,20.0,6.0,0.0
2729,74.0,0.0,15.0,1.0,0.0
2730,74.0,12.0,15.0,3.0,0.0
2731,73.0,0.0,15.0,1.0,0.0
2732,73.0,11.0,15.0,3.0,0.0
2733,70.0,3.0,40.0,4.0,0.0
2734,52.0,0.0,20.0,5.0,0.0
2735,40.0,1.0,20.0,6.0,0.0
2736,74.0,0.0,15.0,1.0,0.0
2737,74.0,12.0,15.0,3.0,0.0
2738,76.0,0.0,15.0,1.0,0.0
2739,76.0,8.0,15.0,3.0,0.0
2740,55.0,0.0,20.0,5.0,0.0
2741,43.0,1.0,20.0,6.0,0.0
2742,78.0,0.0,15.0,1.0,0.0
2743,78.0,12.0,15.0,3.0,0.0
2744,79.0,0.0,15.0,1.0,0.0
2745,79.0,11.0,15.0,3.0,0.0
2746,71.0,0.0,20.0,4.0,0.0
2747,47.0,0.0,20.0,5.0,0.0
2748,35.0,1.0,20.0,6.0,0.0
2749,76.0,0.0,15.0,1.0,0.0
2750,76.0,12.0,15.0,3.0,0.0
2751,78.0,0.0,15.0,1.0,0.0
2752,78.0,11.0,15.0,3.0,0.0
2753,73.0,0.0,20.0,4.0,0.0
2754,46.0,0.0,20.0,5.0,0.0
2755,34.0,1.0,20.0,6.0,0.0
2756,83.0,0.0,15.0,0.0,0.0
2757,79.0,0.0,15.0,1.0,0.0
2758,83.0,0.0,15.0,2.0,0.0
2759,79.0,12.0,15.0,3.0,0.0
2760,82.0,0.0,15.0,0.0,0.0
2761,78.0,0.0,15.0,1.0,0.0
2762,82.0,0.0,15.0,2.0,0.0
2763,78.0,11.0,15.0,3.0,0.0
2764,61.0,0.0,20.0,4.0,0.0
2765,54.0,0.0,20.0,5.0,0.0
2766,42.0,1.0,20.0,6.0,0.0
2767,80.0,0.0,15.0,0.0,0.0
2768,76.0,0.0,15.0,1.0,0.0
2769,80.0,0.0,15.0,2.0,0.0
2770,76.0,12.0,15.0,3.0,0.0
2771,78.0,0.0,15.0,0.0,0.0
2772,74.0,0.0,15.0,1.0,0.0
2773,78.0,0.0,15.0,2.0,0.0
2774,74.0,11.0,15.0,3.0,0.0
2775,62.0,0.0,20.0,4.0,0.0
2776,47.0,0.0,20.0,5.0,0.0
2777,35.0,1.0,20.0,6.0,0.0
2778,76.0,0.0,15.0,0.0,0.0
2779,73.0,0.0,15.0,1.0,0.0
2780,76.0,0.0,15.0,2.0,0.0
2781,73.0,12.0,15.0,3.0,0.0
2782,74.0,0.0,15.0,0.0,0.0
2783,71.0,0.0,15.0,1.0,0.0
2784,74.0,0.0,15.0,2.0,0.0
2785,71.0,11.0,15.0,3.0,0.0
2786,64.0,0.0,20.0,4.0,0.0
2787,55.0,0.0,20.0,5.0,0.0
2788,43.0,1.0,20.0,6.0,0.0
2789,73.0,0.0,15.0,0.0,0.0
2790,70.0,0.0,15.0,1.0,0.0
2791,73.0,0.0,15.0,2.0,0.0
2792,70.0,23.0,15.0,3.0,0.0
2793,74.0,0.0,30.0,0.0,0.0
2794,71.0,0.0,20.0,1.0,0.0
2795,74.0,14.0,30.0,2.0,0.0
2796,71.0,0.0,20.0,3.0,0.0
2797,66.0,0.0,20.0,4.0,0.0
2798,54.0,0.0,20.0,5.0,0.0
2799,42.0,10.0,20.0,6.0,0.0
2800,83.0,0.0,40.0,1.0,0.0
2801,83.0,3.0,40.0,3.0,0.0
2802,67.0,0.0,20.0,4.0,0.0
2803,52.0,0.0,20.0,5.0,0.0
2804,40.0,1.0,20.0,6.0,0.0
2805,76.0,0.0,15.0,0.0,0.0
2806,76.0,20.0,15.0,2.0,0.0
2807,73.0,0.0,30.0,0.0,0.0
2808,73.0,14.0,30.0,2.0,0.0
2809,61.0,0.0,20.0,4.0,0.0
2810,54.0,0.0,20.0,5.0,0.0
2811,42.0,10.0,20.0,6.0,0.0
2812,82.0,0.0,20.0,1.0,0.0
2813,82.0,0.0,20.0,3.0,0.0
2814,66.0,0.0,20.0,4.0,0.0
2815,42.0,0.0,20.0,5.0,0.0
2816,30.0,1.0,20.0,6.0,0.0
2817,71.0,0.0,15.0,0.0,0.0
2818,71.0,12.0,15.0,2.0,0.0
2819,71.0,11.0,15.0,0.0,0.0
2820,83.0,0.0,40.0,1.0,0.0
2821,71.0,0.0,40.0,2.0,0.0
2822,83.0,0.0,40.0,3.0,0.0
2823,62.0,3.0,40.0,4.0,0.0
2824,47.0,0.0,20.0,5.0,0.0
2825,35.0,1.0,20.0,6.0,0.0
2826,83.0,12.0,15.0,0.0,0.0
2827,82.0,8.0,15.0,0.0,0.0
2828,59.0,0.0,20.0,5.0,0.0
2829,47.0,1.0,20.0,6.0,0.0
2830,80.0,12.0,15.0,0.0,0.0
2831,78.0,11.0,15.0,0.0,0.0
2832,58.0,0.0,20.0,5.0,0.0
2833,46.0,1.0,20.0,6.0,0.0
2834,76.0,0.0,15.0,0.0,0.0
2835,67.0,12.0,15.0,1.0,0.0
2836,74.0,0.0,15.0,0.0,0.0
2837,66.0,11.0,15.0,1.0,0.0
2838,54.0,0.0,20.0,5.0,0.0
2839,42.0,1.0,20.0,6.0,0.0
2840,73.0,0.0,15.0,0.0,0.0
2841,64.0,14.0,15.0,1.0,0.0
2842,71.0,9.0,15.0,0.0,0.0
2843,62.0,0.0,20.0,1.0,0.0
2844,66.0,0.0,300.0,2.0,0.0
2845,66.0,0.0,300.0,3.0,0.0
2846,66.0,4.0,300.0,4.0,0.0
2847,59.0,0.0,20.0,5.0,0.0
2848,47.0,3.0,20.0,6.0,0.0
2849,74.0,10.0,15.0,0.0,0.0
2850,78.0,11.0,15.0,0.0,0.0
2851,71.0,1.0,20.0,1.0,0.0
2852,83.0,14.0,15.0,0.0,0.0
2853,73.0,9.0,15.0,0.0,0.0
2854,64.0,3.0,20.0,1.0,0.0
2855,76.0,10.0,15.0,0.0,0.0
2856,78.0,11.0,15.0,0.0,0.0
2857,73.0,1.0,20.0,1.0,0.0
2858,82.0,12.0,15.0,0.0,0.0
2859,83.0,11.0,15.0,0.0,0.0
2860,62.0,1.0,20.0,1.0,0.0
2861,78.0,12.0,15.0,0.0,0.0
2862,74.0,11.0,15.0,0.0,0.0
2863,71.0,1.0,20.0,1.0,0.0
2864,71.0,14.0,15.0,0.0,0.0
2865,70.0,9.0,15.0,0.0,0.0
2866,61.0,3.0,20.0,1.0,0.0
2867,73.0,10.0,15.0,0.0,0.0
2868,76.0,11.0,15.0,0.0,0.0
2869,70.0,1.0,20.0,1.0,0.0
2870,78.0,14.0,15.0,0.0,0.0
2871,71.0,9.0,15.0,0.0,0.0
2872,62.0,3.0,20.0,1.0,0.0
2873,74.0,10.0,15.0,0.0,0.0
2874,78.0,11.0,15.0,0.0,0.0
2875,71.0,0.0,20.0,1.0,0.0
2876,59.0,0.0,20.0,5.0,0.0
2877,47.0,1.0,20.0,6.0,0.0
2878,83.0,14.0,15.0,0.0,0.0
2879,73.0,9.0,15.0,0.0,0.0
2880,66.0,0.0,20.0,1.0,0.0
2881,58.0,0.0,20.0,5.0,0.0
2882,46.0,3.0,20.0,6.0,0.0
2883,76.0,10.0,15.0,0.0,0.0
2884,78.0,11.0,15.0,0.0,0.0
2885,73.0,0.0,20.0,1.0,0.0
2886,54.0,0.0,20.0,5.0,0.0
2887,42.0,1.0,20.0,6.0,0.0
2888,82.0,8.0,15.0,0.0,0.0
2889,83.0,11.0,15.0,0.0,0.0
2890,74.0,0.0,20.0,1.0,0.0
2891,47.0,0.0,20.0,5.0,0.0
2892,35.0,1.0,20.0,6.0,0.0
2893,78.0,12.0,15.0,0.0,0.0
2894,74.0,0.0,15.0,0.0,0.0
2895,71.0,1.0,20.0,1.0,0.0
2896,59.0,0.0,15.0,5.0,0.0
2897,47.0,11.0,15.0,6.0,0.0
2898,71.0,0.0,15.0,0.0,0.0
2899,61.0,0.0,15.0,5.0,0.0
2900,49.0,12.0,15.0,6.0,0.0
2901,59.0,11.0,15.0,0.0,0.0
2902,62.0,0.0,20.0,5.0,0.0
2903,50.0,1.0,20.0,6.0,0.0
2904,72.0,0.0,15.0,0.0,0.0
2905,81.0,12.0,15.0,1.0,0.0
2906,71.0,0.0,15.0,0.0,0.0
2907,79.0,11.0,15.0,1.0,0.0
2908,63.0,0.0,20.0,5.0,0.0
2909,51.0,1.0,20.0,6.0,0.0
2910,69.0,0.0,15.0,0.0,0.0
2911,78.0,14.0,15.0,1.0,0.0
2912,67.0,0.0,20.0,0.0,0.0
2913,76.0,9.0,15.0,1.0,0.0
2914,59.0,0.0,300.0,2.0,0.0
2915,59.0,0.0,300.0,3.0,0.0
2916,59.0,4.0,300.0,4.0,0.0
2917,64.0,0.0,20.0,5.0,0.0
2918,52.0,3.0,20.0,6.0,0.0
2919,79.0,10.0,15.0,1.0,0.0
2920,76.0,1.0,20.0,0.0,0.0
2921,83.0,11.0,15.0,1.0,0.0
2922,88.0,14.0,15.0,1.0,0.0
2923,69.0,3.0,20.0,0.0,0.0
2924,78.0,9.0,15.0,1.0,0.0
2925,81.0,10.0,15.0,1.0,0.0
2926,78.0,1.0,20.0,0.0,0.0
2927,83.0,11.0,15.0,1.0,0.0
2928,87.0,12.0,15.0,1.0,0.0
2929,67.0,1.0,20.0,0.0,0.0
2930,88.0,11.0,15.0,1.0,0.0
2931,83.0,12.0,15.0,1.0,0.0
2932,76.0,1.0,20.0,0.0,0.0
2933,79.0,11.0,15.0,1.0,0.0
2934,76.0,14.0,15.0,1.0,0.0
2935,66.0,3.0,20.0,0.0,0.0
2936,73.0,9.0,15.0,1.0,0.0
2937,78.0,10.0,15.0,1.0,0.0
2938,75.0,1.0,20.0,0.0,0.0
2939,81.0,11.0,15.0,1.0,0.0
2940,83.0,14.0,15.0,1.0,0.0
2941,67.0,3.0,20.0,0.0,0.0
2942,76.0,9.0,15.0,1.0,0.0
2943,79.0,10.0,15.0,1.0,0.0
2944,76.0,0.0,20.0,0.0,0.0
2945,83.0,11.0,15.0,1.0,0.0
2946,52.0,0.0,20.0,5.0,0.0
2947,40.0,1.0,20.0,6.0,0.0
2948,88.0,14.0,15.0,1.0,0.0
2949,71.0,0.0,20.0,0.0,0.0
2950,78.0,9.0,15.0,1.0,0.0
2951,51.0,0.0,20.0,5.0,0.0
2952,39.0,3.0,20.0,6.0,0.0
2953,81.0,10.0,15.0,1.0,0.0
2954,78.0,0.0,20.0,0.0,0.0
2955,83.0,11.0,15.0,1.0,0.0
2956,47.0,0.0,20.0,5.0,0.0
2957,35.0,1.0,20.0,6.0,0.0
2958,87.0,8.0,15.0,1.0,0.0
2959,79.0,0.0,20.0,0.0,0.0
2960,88.0,11.0,15.0,1.0,0.0
2961,40.0,0.0,20.0,5.0,0.0
2962,28.0,1.0,20.0,6.0,0.0
2963,83.0,12.0,15.0,1.0,0.0
2964,76.0,1.0,20.0,0.0,0.0
2965,79.0,0.0,15.0,1.0,0.0
2966,52.0,0.0,15.0,5.0,0.0
2967,40.0,11.0,15.0,6.0,0.0
2968,76.0,0.0,15.0,1.0,0.0
2969,54.0,0.0,15.0,5.0,0.0
2970,42.0,23.0,15.0,6.0,0.0
2971,64.0,0.0,20.0,1.0,0.0
2972,55.0,0.0,20.0,5.0,0.0
2973,43.0,1.0,20.0,6.0,0.0
2974,71.0,12.0,15.0,0.0,0.0
2975,69.0,11.0,15.0,0.0,0.0
2976,79.0,3.0,40.0,1.0,0.0
2977,52.0,0.0,20.0,5.0,0.0
2978,40.0,1.0,20.0,6.0,0.0
2979,71.0,12.0,15.0,0.0,0.0
2980,73.0,8.0,15.0,0.0,0.0
2981,57.0,0.0,20.0,5.0,0.0
2982,45.0,1.0,20.0,6.0,0.0
2983,71.0,12.0,15.0,0.0,0.0
2984,73.0,0.0,15.0,0.0,0.0
2985,69.0,1.0,20.0,1.0,0.0
2986,76.0,0.0,15.0,2.0,0.0
2987,73.0,0.0,15.0,3.0,0.0
2988,67.0,11.0,15.0,4.0,0.0
2989,74.0,0.0,15.0,0.0,0.0
2990,74.0,0.0,15.0,2.0,0.0
2991,71.0,0.0,15.0,3.0,0.0
2992,66.0,12.0,15.0,4.0,0.0
2993,73.0,11.0,15.0,0.0,0.0
2994,79.0,6.0,60.0,1.0,0.0
2995,76.0,0.0,20.0,2.0,0.0
2996,73.0,0.0,20.0,3.0,0.0
2997,64.0,1.0,20.0,4.0,0.0
2998,74.0,12.0,15.0,0.0,0.0
2999,76.0,11.0,15.0,0.0,0.0
3000,49.0,0.0,20.0,5.0,0.0
3001,37.0,1.0,20.0,6.0,0.0
3002,73.0,12.0,15.0,0.0,0.0
3003,74.0,5.0,15.0,0.0,0.0
3004,50.0,0.0,20.0,5.0,0.0
3005,38.0,1.0,20.0,6.0,0.0
3006,73.0,12.0,15.0,0.0,0.0
3007,74.0,0.0,15.0,0.0,0.0
3008,69.0,1.0,20.0,1.0,0.0
3009,78.0,0.0,15.0,2.0,0.0
3010,74.0,0.0,15.0,3.0,0.0
3011,69.0,11.0,15.0,4.0,0.0
3012,76.0,0.0,15.0,0.0,0.0
3013,79.0,0.0,15.0,2.0,0.0
3014,73.0,0.0,15.0,3.0,0.0
3015,67.0,12.0,15.0,4.0,0.0
3016,78.0,11.0,15.0,0.0,0.0
3017,62.0,0.0,20.0,1.0,0.0
3018,78.0,0.0,20.0,2.0,0.0
3019,74.0,0.0,20.0,3.0,0.0
3020,69.0,1.0,20.0,4.0,0.0
3021,76.0,12.0,15.0,0.0,0.0
3022,78.0,0.0,15.0,0.0,0.0
3023,78.0,3.0,40.0,1.0,0.0
3024,50.0,0.0,15.0,5.0,0.0
3025,38.0,12.0,15.0,6.0,0.0
3026,80.0,0.0,15.0,0.0,0.0
3027,52.0,0.0,15.0,5.0,0.0
3028,40.0,12.0,15.0,6.0,0.0
3029,82.0,8.0,15.0,0.0,0.0
3030,54.0,0.0,20.0,5.0,0.0
3031,42.0,1.0,20.0,6.0,0.0
3032,80.0,12.0,15.0,0.0,0.0
3033,82.0,0.0,15.0,0.0,0.0
3034,66.0,1.0,20.0,1.0,0.0
3035,78.0,0.0,15.0,2.0,0.0
3036,73.0,0.0,15.0,3.0,0.0
3037,70.0,11.0,15.0,4.0,0.0
3038,83.0,0.0,15.0,0.0,0.0
3039,80.0,0.0,15.0,2.0,0.0
3040,74.0,0.0,15.0,3.0,0.0
3041,68.0,12.0,15.0,4.0,0.0
3042,82.0,11.0,15.0,0.0,0.0
3043,76.0,6.0,60.0,1.0,0.0
3044,82.0,0.0,20.0,2.0,0.0
3045,76.0,0.0,20.0,3.0,0.0
3046,66.0,1.0,20.0,4.0,0.0
3047,83.0,12.0,15.0,0.0,0.0
3048,85.0,11.0,15.0,0.0,0.0
3049,42.0,0.0,20.0,5.0,0.0
3050,30.0,1.0,20.0,6.0,0.0
3051,82.0,12.0,15.0,0.0,0.0
3052,83.0,5.0,15.0,0.0,0.0
3053,47.0,0.0,20.0,5.0,0.0
3054,35.0,1.0,20.0,6.0,0.0
3055,76.0,12.0,15.0,0.0,0.0
3056,74.0,0.0,15.0,0.0,0.0
3057,66.0,1.0,20.0,1.0,0.0
3058,83.0,0.0,15.0,2.0,0.0
3059,74.0,0.0,15.0,3.0,0.0
3060,66.0,11.0,15.0,4.0,0.0
3061,73.0,0.0,15.0,0.0,0.0
3062,82.0,0.0,15.0,2.0,0.0
3063,76.0,0.0,15.0,3.0,0.0
3064,64.0,12.0,15.0,4.0,0.0
3065,74.0,0.0,15.0,0.0,0.0
3066,59.0,11.0,15.0,1.0,0.0
3067,83.0,0.0,20.0,2.0,0.0
3068,78.0,0.0,20.0,3.0,0.0
3069,62.0,1.0,20.0,4.0,0.0
3070,78.0,0.0,15.0,0.0,0.0
3071,62.0,12.0,15.0,1.0,0.0
3072,83.0,3.0,40.0,0.0,0.0
3073,61.0,11.0,15.0,1.0,0.0
3074,44.0,0.0,20.0,5.0,0.0
3075,32.0,1.0,20.0,6.0,0.0
3076,63.0,12.0,15.0,1.0,0.0
3077,65.0,8.0,15.0,1.0,0.0
3078,49.0,0.0,20.0,5.0,0.0
3079,37.0,1.0,20.0,6.0,0.0
3080,63.0,12.0,15.0,1.0,0.0
3081,73.0,0.0,20.0,0.0,0.0
3082,65.0,0.0,15.0,1.0,0.0
3083,83.0,0.0,15.0,2.0,0.0
3084,80.0,11.0,15.0,3.0,0.0
3085,73.0,1.0,20.0,4.0,0.0
3086,66.0,0.0,15.0,1.0,0.0
3087,81.0,0.0,15.0,2.0,0.0
3088,78.0,12.0,15.0,3.0,0.0
3089,83.0,6.0,60.0,0.0,0.0
3090,65.0,11.0,15.0,1.0,0.0
3091,83.0,0.0,20.0,2.0,0.0
3092,80.0,0.0,20.0,3.0,0.0
3093,68.0,1.0,20.0,4.0,0.0
3094,66.0,12.0,15.0,1.0,0.0
3095,68.0,11.0,15.0,1.0,0.0
3096,49.0,0.0,20.0,5.0,0.0
3097,37.0,1.0,20.0,6.0,0.0
3098,65.0,12.0,15.0,1.0,0.0
3099,66.0,5.0,15.0,1.0,0.0
3100,54.0,0.0,20.0,5.0,0.0
3101,42.0,1.0,20.0,6.0,0.0
3102,65.0,12.0,15.0,1.0,0.0
3103,73.0,1.0,20.0,0.0,0.0
3104,66.0,0.0,15.0,1.0,0.0
3105,81.0,0.0,15.0,2.0,0.0
3106,73.0,0.0,15.0,3.0,0.0
3107,66.0,11.0,15.0,4.0,0.0
3108,68.0,0.0,15.0,1.0,0.0
3109,80.0,0.0,15.0,2.0,0.0
3110,71.0,0.0,15.0,3.0,0.0
3111,65.0,12.0,15.0,4.0,0.0
3112,66.0,0.0,20.0,0.0,0.0
3113,69.0,11.0,15.0,1.0,0.0
3114,78.0,0.0,20.0,2.0,0.0
3115,69.0,0.0,20.0,3.0,0.0
3116,66.0,1.0,20.0,4.0,0.0
3117,68.0,12.0,15.0,1.0,0.0
3118,81.0,3.0,40.0,0.0,0.0
3119,69.0,0.0,15.0,1.0,0.0
3120,54.0,0.0,15.0,5.0,0.0
3121,42.0,12.0,15.0,6.0,0.0
3122,71.0,0.0,15.0,1.0,0.0
3123,55.0,0.0,15.0,5.0,0.0
3124,43.0,12.0,15.0,6.0,0.0
3125,73.0,8.0,15.0,1.0,0.0
3126,57.0,0.0,20.0,5.0,0.0
3127,45.0,1.0,20.0,6.0,0.0
3128,71.0,12.0,15.0,1.0,0.0
3129,69.0,1.0,20.0,0.0,0.0
3130,73.0,0.0,15.0,1.0,0.0
3131,79.0,0.0,15.0,2.0,0.0
3132,69.0,0.0,15.0,3.0,0.0
3133,64.0,11.0,15.0,4.0,0.0
3134,74.0,0.0,15.0,1.0,0.0
3135,78.0,0.0,15.0,2.0,0.0
3136,71.0,0.0,15.0,3.0,0.0
3137,66.0,12.0,15.0,4.0,0.0
3138,79.0,6.0,60.0,0.0,0.0
3139,73.0,11.0,15.0,1.0,0.0
3140,76.0,0.0,20.0,2.0,0.0
3141,73.0,0.0,20.0,3.0,0.0
3142,67.0,1.0,20.0,4.0,0.0
3143,74.0,12.0,15.0,1.0,0.0
3144,76.0,11.0,15.0,1.0,0.0
3145,45.0,0.0,20.0,5.0,0.0
3146,33.0,1.0,20.0,6.0,0.0
3147,73.0,12.0,15.0,1.0,0.0
3148,74.0,5.0,15.0,1.0,0.0
3149,50.0,0.0,20.0,5.0,0.0
3150,38.0,1.0,20.0,6.0,0.0
3151,67.0,12.0,15.0,1.0,0.0
3152,69.0,1.0,20.0,0.0,0.0
3153,66.0,0.0,15.0,1.0,0.0
3154,74.0,0.0,15.0,2.0,0.0
3155,69.0,0.0,15.0,3.0,0.0
3156,66.0,11.0,15.0,4.0,0.0
3157,64.0,0.0,15.0,1.0,0.0
3158,73.0,0.0,15.0,2.0,0.0
3159,67.0,0.0,15.0,3.0,0.0
3160,67.0,12.0,15.0,4.0,0.0
3161,62.0,0.0,20.0,0.0,0.0
3162,66.0,11.0,15.0,1.0,0.0
3163,74.0,0.0,20.0,2.0,0.0
3164,66.0,0.0,20.0,3.0,0.0
3165,69.0,1.0,20.0,4.0,0.0
3166,69.0,12.0,15.0,1.0,0.0
3167,78.0,1.0,20.0,0.0,0.0
3168,74.0,3.0,40.0,1.0,0.0
3169,62.0,0.0,15.0,5.0,0.0
3170,50.0,11.0,15.0,6.0,0.0
3171,61.0,0.0,15.0,5.0,0.0
3172,49.0,14.0,15.0,6.0,0.0
3173,68.0,6.0,15.0,0.0,0.0
3174,59.0,0.0,20.0,5.0,0.0
3175,47.0,3.0,20.0,6.0,0.0
3176,69.0,10.0,15.0,0.0,0.0
3177,71.0,0.0,15.0,0.0,0.0
3178,74.0,1.0,20.0,1.0,0.0
3179,71.0,0.0,15.0,2.0,0.0
3180,71.0,0.0,15.0,3.0,0.0
3181,71.0,11.0,15.0,4.0,0.0
3182,74.0,0.0,15.0,0.0,0.0
3183,69.0,0.0,15.0,2.0,0.0
3184,69.0,0.0,15.0,3.0,0.0
3185,69.0,12.0,15.0,4.0,0.0
3186,77.0,11.0,15.0,0.0,0.0
3187,71.0,0.0,20.0,1.0,0.0
3188,68.0,0.0,20.0,2.0,0.0
3189,68.0,0.0,20.0,3.0,0.0
3190,68.0,1.0,20.0,4.0,0.0
3191,86.0,12.0,15.0,0.0,0.0
3192,85.0,11.0,15.0,0.0,0.0
3193,80.0,3.0,40.0,1.0,0.0
3194,56.0,0.0,20.0,5.0,0.0
3195,44.0,1.0,20.0,6.0,0.0
3196,83.0,14.0,15.0,0.0,0.0
3197,69.0,6.0,15.0,0.0,0.0
3198,57.0,0.0,20.0,5.0,0.0
3199,45.0,3.0,20.0,6.0,0.0
3200,71.0,10.0,15.0,0.0,0.0
3201,73.0,0.0,15.0,0.0,0.0
3202,73.0,1.0,20.0,1.0,0.0
3203,69.0,0.0,15.0,2.0,0.0
3204,69.0,0.0,15.0,3.0,0.0
3205,69.0,11.0,15.0,4.0,0.0
3206,77.0,0.0,15.0,0.0,0.0
3207,68.0,0.0,15.0,2.0,0.0
3208,68.0,0.0,15.0,3.0,0.0
3209,68.0,12.0,15.0,4.0,0.0
3210,78.0,11.0,15.0,0.0,0.0
3211,69.0,0.0,20.0,1.0,0.0
3212,66.0,0.0,20.0,2.0,0.0
3213,66.0,0.0,20.0,3.0,0.0
3214,66.0,1.0,20.0,4.0,0.0
3215,85.0,12.0,15.0,0.0,0.0
3216,83.0,11.0,15.0,0.0,0.0
3217,78.0,3.0,40.0,1.0,0.0
3218,54.0,0.0,20.0,5.0,0.0
3219,42.0,1.0,20.0,6.0,0.0
3220,81.0,14.0,15.0,0.0,0.0
3221,71.0,6.0,15.0,0.0,0.0
3222,56.0,0.0,20.0,5.0,0.0
3223,44.0,3.0,20.0,6.0,0.0
3224,73.0,10.0,15.0,0.0,0.0
3225,77.0,0.0,15.0,0.0,0.0
3226,71.0,1.0,20.0,1.0,0.0
3227,68.0,0.0,15.0,2.0,0.0
3228,68.0,0.0,15.0,3.0,0.0
3229,68.0,11.0,15.0,4.0,0.0
3230,78.0,0.0,15.0,0.0,0.0
3231,66.0,0.0,15.0,2.0,0.0
3232,66.0,0.0,15.0,3.0,0.0
3233,66.0,12.0,15.0,4.0,0.0
3234,80.0,11.0,15.0,0.0,0.0
3235,68.0,0.0,20.0,1.0,0.0
3236,65.0,0.0,20.0,2.0,0.0
3237,65.0,0.0,20.0,3.0,0.0
3238,65.0,1.0,20.0,4.0,0.0
3239,83.0,12.0,15.0,0.0,0.0
3240,81.0,11.0,15.0,0.0,0.0
3241,77.0,0.0,20.0,1.0,0.0
3242,73.0,0.0,20.0,2.0,0.0
3243,73.0,0.0,20.0,3.0,0.0
3244,65.0,0.0,20.0,4.0,0.0
3245,49.0,0.0,20.0,5.0,0.0
3246,37.0,1.0,20.0,6.0,0.0
3247,80.0,14.0,15.0,0.0,0.0
3248,73.0,9.0,15.0,0.0,0.0
3249,78.0,17.0,60.0,1.0,0.0
3250,69.0,0.0,20.0,2.0,0.0
3251,69.0,0.0,20.0,3.0,0.0
3252,73.0,0.0,20.0,4.0,0.0
3253,54.0,0.0,20.0,5.0,0.0
3254,42.0,3.0,20.0,6.0,0.0
3255,77.0,10.0,15.0,0.0,0.0
3256,78.0,11.0,15.0,0.0,0.0
3257,49.0,0.0,20.0,5.0,0.0
3258,37.0,1.0,20.0,6.0,0.0
3259,80.0,6.0,15.0,0.0,0.0
3260,81.0,0.0,20.0,0.0,0.0
3261,42.0,0.0,20.0,5.0,0.0
3262,30.0,1.0,20.0,6.0,0.0
3263,76.0,12.0,15.0,1.0,0.0
3264,78.0,3.0,40.0,0.0,0.0
3265,74.0,11.0,15.0,1.0,0.0
3266,45.0,0.0,20.0,5.0,0.0
3267,33.0,1.0,20.0,6.0,0.0
3268,73.0,12.0,15.0,1.0,0.0
3269,74.0,0.0,15.0,1.0,0.0
3270,59.0,0.0,15.0,2.0,0.0
3271,59.0,0.0,15.0,3.0,0.0
3272,59.0,8.0,15.0,4.0,0.0
3273,47.0,0.0,20.0,5.0,0.0
3274,35.0,1.0,20.0,6.0,0.0
3275,66.0,0.0,15.0,1.0,0.0
3276,61.0,0.0,15.0,2.0,0.0
3277,61.0,0.0,15.0,3.0,0.0
3278,61.0,12.0,15.0,4.0,0.0
3279,83.0,0.0,15.0,0.0,0.0
3280,68.0,0.0,15.0,1.0,0.0
3281,62.0,0.0,15.0,2.0,0.0
3282,62.0,0.0,15.0,3.0,0.0
3283,62.0,12.0,15.0,4.0,0.0
3284,85.0,0.0,15.0,0.0,0.0
3285,70.0,0.0,15.0,1.0,0.0
3286,64.0,0.0,15.0,2.0,0.0
3287,64.0,0.0,15.0,3.0,0.0
3288,64.0,12.0,15.0,4.0,0.0
3289,86.0,0.0,20.0,0.0,0.0
3290,71.0,11.0,15.0,1.0,0.0
3291,66.0,0.0,20.0,2.0,0.0
3292,66.0,0.0,20.0,3.0,0.0
3293,66.0,1.0,20.0,4.0,0.0
3294,73.0,12.0,15.0,1.0,0.0
3295,71.0,3.0,30.0,0.0,0.0
3296,74.0,11.0,15.0,1.0,0.0
3297,71.0,0.0,20.0,2.0,0.0
3298,71.0,0.0,20.0,3.0,0.0
3299,71.0,1.0,20.0,4.0,0.0
3300,71.0,9.0,15.0,1.0,0.0
3301,64.0,11.0,15.0,1.0,0.0
3302,68.0,0.0,20.0,2.0,0.0
3303,68.0,0.0,20.0,3.0,0.0
3304,68.0,0.0,20.0,4.0,0.0
3305,52.0,0.0,20.0,5.0,0.0
3306,40.0,1.0,20.0,6.0,0.0
3307,69.0,0.0,15.0,0.0,0.0
3308,71.0,12.0,15.0,1.0,0.0
3309,68.0,11.0,15.0,0.0,0.0
3310,74.0,14.0,30.0,1.0,0.0
3311,64.0,0.0,20.0,2.0,0.0
3312,64.0,0.0,20.0,3.0,0.0
3313,64.0,0.0,20.0,4.0,0.0
3314,47.0,0.0,20.0,5.0,0.0
3315,35.0,1.0,20.0,6.0,0.0
3316,66.0,9.0,15.0,0.0,0.0
3317,64.0,0.0,20.0,0.0,0.0
3318,44.0,0.0,20.0,5.0,0.0
3319,32.0,1.0,20.0,6.0,0.0
3320,71.0,12.0,15.0,1.0,0.0
3321,76.0,3.0,40.0,0.0,0.0
3322,68.0,11.0,15.0,1.0,0.0
3323,40.0,0.0,20.0,5.0,0.0
3324,28.0,1.0,20.0,6.0,0.0
3325,64.0,12.0,15.0,1.0,0.0
3326,73.0,0.0,15.0,1.0,0.0
3327,57.0,8.0,15.0,4.0,0.0
3328,45.0,0.0,20.0,5.0,0.0
3329,33.0,1.0,20.0,6.0,0.0
3330,64.0,0.0,15.0,1.0,0.0
3331,59.0,0.0,15.0,2.0,0.0
3332,59.0,0.0,15.0,3.0,0.0
3333,59.0,12.0,15.0,4.0,0.0
3334,81.0,0.0,15.0,0.0,0.0
3335,66.0,0.0,15.0,1.0,0.0
3336,61.0,0.0,15.0,2.0,0.0
3337,61.0,0.0,15.0,3.0,0.0
3338,61.0,12.0,15.0,4.0,0.0
3339,83.0,0.0,15.0,0.0,0.0
3340,68.0,0.0,15.0,1.0,0.0
3341,62.0,0.0,15.0,2.0,0.0
3342,62.0,0.0,15.0,3.0,0.0
3343,62.0,12.0,15.0,4.0,0.0
3344,85.0,0.0,20.0,0.0,0.0
3345,69.0,11.0,15.0,1.0,0.0
3346,64.0,0.0,20.0,2.0,0.0
3347,64.0,0.0,20.0,3.0,0.0
3348,64.0,1.0,20.0,4.0,0.0
3349,71.0,12.0,15.0,1.0,0.0
3350,69.0,3.0,30.0,0.0,0.0
3351,73.0,11.0,15.0,1.0,0.0
3352,69.0,0.0,20.0,2.0,0.0
3353,69.0,0.0,20.0,3.0,0.0
3354,69.0,1.0,20.0,4.0,0.0
3355,69.0,9.0,15.0,1.0,0.0
3356,62.0,11.0,15.0,1.0,0.0
3357,66.0,0.0,20.0,2.0,0.0
3358,66.0,0.0,20.0,3.0,0.0
3359,66.0,0.0,20.0,4.0,0.0
3360,50.0,0.0,20.0,5.0,0.0
3361,38.0,1.0,20.0,6.0,0.0
3362,67.0,0.0,15.0,0.0,0.0
3363,69.0,12.0,15.0,1.0,0.0
3364,66.0,11.0,15.0,0.0,0.0
3365,72.0,14.0,30.0,1.0,0.0
3366,62.0,0.0,20.0,2.0,0.0
3367,62.0,0.0,20.0,3.0,0.0
3368,62.0,1.0,20.0,4.0,0.0
3369,57.0,0.0,20.0,5.0,0.0
3370,45.0,7.0,20.0,6.0,0.0
3371,64.0,2.0,15.0,0.0,0.0
3372,62.0,1.0,20.0,0.0,0.0
3373,54.0,0.0,20.0,5.0,0.0
3374,42.0,10.0,20.0,6.0,0.0
3375,69.0,2.0,15.0,1.0,0.0
3376,74.0,14.0,30.0,0.0,0.0
3377,66.0,11.0,15.0,1.0,0.0
3378,50.0,0.0,20.0,5.0,0.0
3379,38.0,1.0,20.0,6.0,0.0
3380,62.0,9.0,15.0,1.0,0.0
3381,71.0,0.0,20.0,1.0,0.0
3382,55.0,0.0,20.0,5.0,0.0
3383,43.0,1.0,20.0,6.0,0.0
3384,76.0,12.0,15.0,0.0,0.0
3385,74.0,2.0,15.0,0.0,0.0
3386,74.0,10.0,15.0,1.0,0.0
3387,59.0,0.0,20.0,5.0,0.0
3388,47.0,10.0,20.0,6.0,0.0
3389,73.0,2.0,15.0,0.0,0.0
3390,71.0,2.0,15.0,0.0,0.0
3391,76.0,10.0,15.0,1.0,0.0
3392,56.0,0.0,20.0,5.0,0.0
3393,44.0,10.0,20.0,6.0,0.0
3394,69.0,2.0,15.0,0.0,0.0
3395,68.0,2.0,15.0,0.0,0.0
3396,71.0,9.0,15.0,1.0,0.0
3397,52.0,0.0,20.0,5.0,0.0
3398,40.0,1.0,20.0,6.0,0.0
3399,66.0,12.0,15.0,0.0,0.0
3400,64.0,2.0,15.0,0.0,0.0
3401,73.0,9.0,15.0,1.0,0.0
3402,57.0,0.0,20.0,5.0,0.0
3403,45.0,1.0,20.0,6.0,0.0
3404,78.0,12.0,15.0,0.0,0.0
3405,76.0,2.0,15.0,0.0,0.0
3406,76.0,10.0,15.0,1.0,0.0
3407,61.0,0.0,20.0,5.0,0.0
3408,49.0,10.0,20.0,6.0,0.0
3409,74.0,2.0,15.0,0.0,0.0
3410,73.0,2.0,15.0,0.0,0.0
3411,78.0,10.0,15.0,1.0,0.0
3412,58.0,0.0,20.0,5.0,0.0
3413,46.0,10.0,20.0,6.0,0.0
3414,71.0,2.0,15.0,0.0,0.0
3415,70.0,2.0,15.0,0.0,0.0
3416,73.0,9.0,15.0,1.0,0.0
3417,54.0,0.0,20.0,5.0,0.0
3418,42.0,1.0,20.0,6.0,0.0
3419,68.0,14.0,15.0,0.0,0.0
3420,66.0,0.0,20.0,0.0,0.0
3421,74.0,9.0,15.0,1.0,0.0
3422,59.0,0.0,20.0,5.0,0.0
3423,47.0,3.0,20.0,6.0,0.0
3424,76.0,10.0,15.0,1.0,0.0
3425,78.0,10.0,15.0,0.0,0.0
3426,74.0,2.0,15.0,1.0,0.0
3427,73.0,12.0,15.0,1.0,0.0
3428,79.0,10.0,15.0,0.0,0.0
3429,71.0,2.0,15.0,1.0,0.0
3430,69.0,12.0,15.0,1.0,0.0
3431,74.0,9.0,15.0,0.0,0.0
3432,67.0,2.0,15.0,1.0,0.0
3433,47.0,0.0,20.0,5.0,0.0
3434,35.0,1.0,20.0,6.0,0.0
3435,66.0,12.0,15.0,1.0,0.0
3436,76.0,9.0,15.0,0.0,0.0
3437,64.0,2.0,15.0,1.0,0.0
3438,49.0,0.0,20.0,5.0,0.0
3439,37.0,1.0,20.0,6.0,0.0
3440,78.0,12.0,15.0,1.0,0.0
3441,79.0,10.0,15.0,0.0,0.0
3442,76.0,2.0,15.0,1.0,0.0
3443,74.0,12.0,15.0,1.0,0.0
3444,81.0,10.0,15.0,0.0,0.0
3445,73.0,2.0,15.0,1.0,0.0
3446,71.0,12.0,15.0,1.0,0.0
3447,76.0,9.0,15.0,0.0,0.0
3448,69.0,2.0,15.0,1.0,0.0
3449,61.0,0.0,20.0,5.0,0.0
3450,49.0,1.0,20.0,6.0,0.0
3451,67.0,12.0,15.0,1.0,0.0
3452,78.0,0.0,15.0,0.0,0.0
3453,66.0,0.0,20.0,1.0,0.0
3454,62.0,0.0,15.0,2.0,0.0
3455,62.0,0.0,15.0,3.0,0.0
3456,62.0,11.0,15.0,4.0,0.0
3457,62.0,0.0,20.0,5.0,0.0
3458,50.0,1.0,20.0,6.0,0.0
3459,81.0,0.0,15.0,0.0,0.0
3460,64.0,0.0,15.0,2.0,0.0
3461,64.0,0.0,15.0,3.0,0.0
3462,64.0,12.0,15.0,4.0,0.0
3463,83.0,0.0,15.0,0.0,0.0
3464,74.0,0.0,15.0,1.0,0.0
3465,66.0,0.0,15.0,2.0,0.0
3466,66.0,0.0,15.0,3.0,0.0
3467,66.0,12.0,15.0,4.0,0.0
3468,85.0,0.0,15.0,0.0,0.0
3469,76.0,0.0,15.0,1.0,0.0
3470,67.0,0.0,15.0,2.0,0.0
3471,67.0,0.0,15.0,3.0,0.0
3472,67.0,12.0,15.0,4.0,0.0
3473,86.0,11.0,15.0,0.0,0.0
3474,78.0,0.0,20.0,1.0,0.0
3475,69.0,0.0,20.0,2.0,0.0
3476,69.0,0.0,20.0,3.0,0.0
3477,69.0,1.0,20.0,4.0,0.0
3478,88.0,12.0,15.0,0.0,0.0
3479,90.0,11.0,15.0,0.0,0.0
3480,74.0,3.0,30.0,1.0,0.0
3481,74.0,0.0,20.0,2.0,0.0
3482,74.0,0.0,20.0,3.0,0.0
3483,74.0,0.0,20.0,4.0,0.0
3484,59.0,0.0,20.0,5.0,0.0
3485,47.0,1.0,20.0,6.0,0.0
3486,86.0,9.0,15.0,0.0,0.0
3487,80.0,11.0,15.0,0.0,0.0
3488,71.0,0.0,20.0,2.0,0.0
3489,71.0,0.0,20.0,3.0,0.0
3490,71.0,0.0,20.0,4.0,0.0
3491,56.0,0.0,20.0,5.0,0.0
3492,44.0,1.0,20.0,6.0,0.0
3493,86.0,0.0,15.0,0.0,0.0
3494,73.0,12.0,15.0,1.0,0.0
3495,90.0,14.0,30.0,0.0,0.0
3496,71.0,0.0,15.0,1.0,0.0
3497,68.0,0.0,20.0,2.0,0.0
3498,68.0,0.0,20.0,3.0,0.0
3499,68.0,1.0,20.0,4.0,0.0
3500,44.0,0.0,15.0,5.0,0.0
3501,32.0,11.0,15.0,6.0,0.0
3502,69.0,0.0,15.0,1.0,0.0
3503,45.0,0.0,15.0,5.0,0.0
3504,33.0,9.0,15.0,6.0,0.0
3505,68.0,0.0,20.0,1.0,0.0
3506,47.0,0.0,20.0,5.0,0.0
3507,35.0,1.0,20.0,6.0,0.0
3508,86.0,12.0,15.0,0.0,0.0
3509,83.0,11.0,15.0,0.0,0.0
3510,80.0,10.0,20.0,1.0,0.0
3511,44.0,0.0,20.0,5.0,0.0
3512,32.0,1.0,20.0,6.0,0.0
3513,80.0,2.0,15.0,0.0,0.0
3514,89.0,0.0,15.0,0.0,0.0
3515,83.0,0.0,20.0,1.0,0.0
3516,61.0,0.0,15.0,2.0,0.0
3517,61.0,0.0,15.0,3.0,0.0
3518,61.0,11.0,15.0,4.0,0.0
3519,49.0,0.0,20.0,5.0,0.0
3520,37.0,1.0,20.0,6.0,0.0
3521,80.0,0.0,15.0,0.0,0.0
3522,63.0,0.0,15.0,2.0,0.0
3523,63.0,0.0,15.0,3.0,0.0
3524,63.0,12.0,15.0,4.0,0.0
3525,81.0,0.0,15.0,0.0,0.0
3526,73.0,0.0,15.0,1.0,0.0
3527,65.0,0.0,15.0,2.0,0.0
3528,65.0,0.0,15.0,3.0,0.0
3529,65.0,12.0,15.0,4.0,0.0
3530,83.0,0.0,15.0,0.0,0.0
3531,74.0,0.0,15.0,1.0,0.0
3532,66.0,0.0,15.0,2.0,0.0
3533,66.0,0.0,15.0,3.0,0.0
3534,66.0,12.0,15.0,4.0,0.0
3535,85.0,11.0,15.0,0.0,0.0
3536,76.0,0.0,20.0,1.0,0.0
3537,68.0,0.0,20.0,2.0,0.0
3538,68.0,0.0,20.0,3.0,0.0
3539,68.0,1.0,20.0,4.0,0.0
3540,86.0,12.0,15.0,0.0,0.0
3541,88.0,11.0,15.0,0.0,0.0
3542,73.0,3.0,30.0,1.0,0.0
3543,73.0,0.0,20.0,2.0,0.0
3544,73.0,0.0,20.0,3.0,0.0
3545,73.0,0.0,20.0,4.0,0.0
3546,58.0,0.0,20.0,5.0,0.0
3547,46.0,1.0,20.0,6.0,0.0
3548,85.0,9.0,15.0,0.0,0.0
3549,78.0,11.0,15.0,0.0,0.0
3550,70.0,0.0,20.0,2.0,0.0
3551,70.0,0.0,20.0,3.0,0.0
3552,70.0,0.0,20.0,4.0,0.0
3553,54.0,0.0,20.0,5.0,0.0
3554,42.0,1.0,20.0,6.0,0.0
3555,85.0,0.0,15.0,0.0,0.0
3556,71.0,12.0,15.0,1.0,0.0
3557,88.0,14.0,30.0,0.0,0.0
3558,70.0,0.0,15.0,1.0,0.0
3559,66.0,0.0,20.0,2.0,0.0
3560,66.0,0.0,20.0,3.0,0.0
3561,66.0,1.0,20.0,4.0,0.0
3562,42.0,0.0,15.0,5.0,0.0
3563,30.0,11.0,15.0,6.0,0.0
3564,68.0,0.0,15.0,1.0,0.0
3565,44.0,0.0,15.0,5.0,0.0
3566,32.0,9.0,15.0,6.0,0.0
3567,66.0,17.0,60.0,1.0,0.0
3568,46.0,0.0,20.0,5.0,0.0
3569,34.0,1.0,20.0,6.0,0.0
3570,85.0,12.0,15.0,0.0,0.0
3571,82.0,11.0,15.0,0.0,0.0
3572,42.0,0.0,20.0,5.0,0.0
3573,30.0,1.0,20.0,6.0,0.0
3574,78.0,6.0,15.0,0.0,0.0
3575,86.0,0.0,20.0,0.0,0.0
3576,47.0,0.0,20.0,5.0,0.0
3577,35.0,1.0,20.0,6.0,0.0
3578,71.0,12.0,15.0,1.0,0.0
3579,83.0,1.0,20.0,0.0,0.0
3580,74.0,11.0,15.0,1.0,0.0
3581,78.0,12.0,15.0,1.0,0.0
3582,78.0,1.0,20.0,0.0,0.0
3583,83.0,11.0,15.0,1.0,0.0
3584,78.0,12.0,15.0,1.0,0.0
3585,90.0,3.0,40.0,0.0,0.0
3586,74.0,11.0,15.0,1.0,0.0
3587,59.0,0.0,20.0,5.0,0.0
3588,47.0,1.0,20.0,6.0,0.0
3589,71.0,14.0,15.0,1.0,0.0
3590,66.0,6.0,15.0,1.0,0.0
3591,57.0,0.0,20.0,5.0,0.0
3592,45.0,3.0,20.0,6.0,0.0
3593,69.0,10.0,15.0,1.0,0.0
3594,85.0,0.0,15.0,0.0,0.0
3595,73.0,12.0,15.0,1.0,0.0
3596,81.0,0.0,15.0,0.0,0.0
3597,78.0,12.0,15.0,1.0,0.0
3598,78.0,6.0,60.0,0.0,0.0
3599,81.0,12.0,15.0,1.0,0.0
3600,78.0,12.0,15.0,1.0,0.0
3601,73.0,11.0,15.0,1.0,0.0
3602,45.0,0.0,20.0,5.0,0.0
3603,33.0,1.0,20.0,6.0,0.0
3604,69.0,14.0,15.0,1.0,0.0
3605,66.0,3.0,15.0,1.0,0.0
3606,50.0,0.0,20.0,5.0,0.0
3607,38.0,3.0,20.0,6.0,0.0
3608,68.0,10.0,15.0,1.0,0.0
3609,74.0,1.0,20.0,0.0,0.0
3610,71.0,11.0,15.0,1.0,0.0
3611,74.0,12.0,15.0,1.0,0.0
3612,71.0,1.0,20.0,0.0,0.0
3613,80.0,11.0,15.0,1.0,0.0
3614,74.0,12.0,15.0,1.0,0.0
3615,83.0,3.0,40.0,0.0,0.0
3616,71.0,11.0,15.0,1.0,0.0
3617,62.0,0.0,20.0,5.0,0.0
3618,50.0,1.0,20.0,6.0,0.0
3619,66.0,14.0,15.0,1.0,0.0
3620,65.0,6.0,15.0,1.0,0.0
3621,61.0,0.0,20.0,5.0,0.0
3622,49.0,3.0,20.0,6.0,0.0
3623,68.0,10.0,15.0,1.0,0.0
3624,80.0,0.0,15.0,0.0,0.0
3625,71.0,12.0,15.0,1.0,0.0
3626,77.0,0.0,15.0,0.0,0.0
3627,73.0,12.0,15.0,1.0,0.0
3628,73.0,11.0,15.0,0.0,0.0
3629,80.0,1.0,20.0,1.0,0.0
3630,71.0,12.0,15.0,0.0,0.0
3631,69.0,12.0,15.0,0.0,0.0
3632,68.0,23.0,15.0,0.0,0.0
3633,69.0,0.0,20.0,0.0,0.0
3634,78.0,0.0,20.0,2.0,0.0
3635,73.0,0.0,20.0,3.0,0.0
3636,66.0,0.0,20.0,4.0,0.0
3637,54.0,0.0,20.0,5.0,0.0
3638,42.0,24.0,20.0,6.0,0.0
3639,85.0,24.0,20.0,0.0,0.0
3640,68.0,0.0,20.0,0.0,0.0
3641,77.0,0.0,20.0,2.0,0.0
3642,73.0,0.0,20.0,3.0,0.0
3643,68.0,0.0,20.0,4.0,0.0
3644,49.0,0.0,20.0,5.0,0.0
3645,37.0,24.0,20.0,6.0,0.0
3646,83.0,13.0,20.0,0.0,0.0
3647,66.0,11.0,15.0,0.0,0.0
3648,78.0,0.0,20.0,2.0,0.0
3649,73.0,0.0,20.0,3.0,0.0
3650,69.0,0.0,20.0,4.0,0.0
3651,42.0,0.0,20.0,5.0,0.0
3652,30.0,1.0,20.0,6.0,0.0
3653,83.0,12.0,15.0,0.0,0.0
3654,81.0,12.0,15.0,0.0,0.0
3655,80.0,12.0,15.0,0.0,0.0
3656,78.0,12.0,15.0,0.0,0.0
3657,76.0,12.0,15.0,0.0,0.0
3658,74.0,12.0,15.0,0.0,0.0
3659,73.0,23.0,15.0,0.0,0.0
3660,74.0,0.0,20.0,0.0,0.0
3661,78.0,0.0,20.0,2.0,0.0
3662,71.0,0.0,20.0,3.0,0.0
3663,74.0,0.0,20.0,4.0,0.0
3664,47.0,0.0,20.0,5.0,0.0
3665,35.0,24.0,20.0,6.0,0.0
3666,90.0,24.0,20.0,0.0,0.0
3667,73.0,0.0,20.0,0.0,0.0
3668,78.0,0.0,20.0,2.0,0.0
3669,73.0,0.0,20.0,3.0,0.0
3670,70.0,0.0,20.0,4.0,0.0
3671,54.0,0.0,20.0,5.0,0.0
3672,42.0,24.0,20.0,6.0,0.0
3673,88.0,13.0,20.0,0.0,0.0
3674,71.0,11.0,15.0,0.0,0.0
3675,78.0,0.0,20.0,2.0,0.0
3676,74.0,0.0,20.0,3.0,0.0
3677,71.0,0.0,20.0,4.0,0.0
3678,59.0,0.0,20.0,5.0,0.0
3679,47.0,1.0,20.0,6.0,0.0
3680,88.0,12.0,15.0,0.0,0.0
3681,86.0,12.0,15.0,0.0,0.0
3682,85.0,12.0,15.0,0.0,0.0
3683,83.0,12.0,15.0,0.0,0.0
3684,81.0,12.0,15.0,0.0,0.0
3685,80.0,12.0,15.0,0.0,0.0
3686,78.0,12.0,15.0,0.0,0.0
3687,80.0,11.0,15.0,0.0,0.0
3688,64.0,0.0,20.0,5.0,0.0
3689,52.0,1.0,20.0,6.0,0.0
3690,86.0,12.0,15.0,0.0,0.0
3691,85.0,12.0,15.0,0.0,0.0
3692,83.0,12.0,15.0,0.0,0.0
3693,85.0,11.0,15.0,0.0,0.0
3694,57.0,0.0,20.0,5.0,0.0
3695,45.0,1.0,20.0,6.0,0.0
3696,80.0,12.0,15.0,0.0,0.0
3697,78.0,12.0,15.0,0.0,0.0
3698,77.0,12.0,15.0,0.0,0.0
3699,78.0,11.0,15.0,0.0,0.0
3700,62.0,0.0,20.0,5.0,0.0
3701,50.0,1.0,20.0,6.0,0.0
3702,85.0,12.0,15.0,0.0,0.0
3703,83.0,12.0,15.0,0.0,0.0
3704,81.0,12.0,15.0,0.0,0.0
3705,83.0,11.0,15.0,0.0,0.0
3706,56.0,0.0,20.0,5.0,0.0
3707,44.0,1.0,20.0,6.0,0.0
3708,78.0,12.0,15.0,0.0,0.0
3709,77.0,12.0,15.0,0.0,0.0
3710,75.0,12.0,15.0,0.0,0.0
3711,77.0,11.0,15.0,0.0,0.0
3712,61.0,0.0,20.0,5.0,0.0
3713,49.0,1.0,20.0,6.0,0.0
3714,83.0,12.0,15.0,0.0,0.0
3715,81.0,12.0,15.0,0.0,0.0
3716,80.0,14.0,15.0,0.0,0.0
3717,81.0,9.0,15.0,0.0,0.0
3718,54.0,0.0,20.0,5.0,0.0
3719,42.0,3.0,20.0,6.0,0.0
3720,80.0,10.0,15.0,0.0,0.0
3721,78.0,12.0,15.0,0.0,0.0
3722,81.0,12.0,15.0,0.0,0.0
3723,80.0,11.0,15.0,0.0,0.0
3724,61.0,0.0,20.0,5.0,0.0
3725,49.0,1.0,20.0,6.0,0.0
3726,78.0,12.0,15.0,0.0,0.0
3727,77.0,11.0,15.0,0.0,0.0
3728,56.0,0.0,20.0,5.0,0.0
3729,44.0,1.0,20.0,6.0,0.0
3730,75.0,23.0,15.0,0.0,0.0
3731,73.0,17.0,60.0,0.0,0.0
3732,53.0,0.0,20.0,5.0,0.0
3733,41.0,1.0,20.0,6.0,0.0
3734,71.0,12.0,15.0,1.0,0.0
3735,69.0,11.0,15.0,1.0,0.0
3736,49.0,0.0,20.0,5.0,0.0
3737,37.0,1.0,20.0,6.0,0.0
3738,68.0,6.0,15.0,1.0,0.0
3739,69.0,0.0,20.0,1.0,0.0
3740,78.0,0.0,20.0,2.0,0.0
3741,73.0,0.0,20.0,3.0,0.0
3742,69.0,0.0,20.0,4.0,0.0
3743,54.0,0.0,20.0,5.0,0.0
3744,42.0,1.0,20.0,6.0,0.0
3745,69.0,12.0,15.0,0.0,0.0
3746,66.0,11.0,15.0,0.0,0.0
3747,85.0,1.0,20.0,1.0,0.0
3748,69.0,12.0,15.0,0.0,0.0
3749,71.0,11.0,15.0,0.0,0.0
3750,68.0,0.0,20.0,1.0,0.0
3751,80.0,0.0,20.0,2.0,0.0
3752,77.0,0.0,20.0,3.0,0.0
3753,73.0,0.0,20.0,4.0,0.0
3754,49.0,0.0,20.0,5.0,0.0
3755,37.0,1.0,20.0,6.0,0.0
3756,68.0,12.0,15.0,0.0,0.0
3757,65.0,11.0,15.0,0.0,0.0
3758,83.0,1.0,20.0,1.0,0.0
3759,68.0,12.0,15.0,0.0,0.0
3760,69.0,0.0,20.0,0.0,0.0
3761,66.0,11.0,15.0,1.0,0.0
3762,81.0,0.0,20.0,2.0,0.0
3763,78.0,0.0,20.0,3.0,0.0
3764,73.0,0.0,20.0,4.0,0.0
3765,42.0,0.0,20.0,5.0,0.0
3766,30.0,1.0,20.0,6.0,0.0
3767,83.0,12.0,15.0,1.0,0.0
3768,66.0,1.0,20.0,0.0,0.0
3769,81.0,11.0,15.0,1.0,0.0
3770,80.0,12.0,15.0,1.0,0.0
3771,78.0,17.0,60.0,0.0,0.0
3772,78.0,12.0,15.0,1.0,0.0
3773,76.0,12.0,15.0,1.0,0.0
3774,74.0,12.0,15.0,1.0,0.0
3775,73.0,6.0,15.0,1.0,0.0
3776,74.0,0.0,20.0,1.0,0.0
3777,83.0,0.0,20.0,2.0,0.0
3778,78.0,0.0,20.0,3.0,0.0
3779,71.0,0.0,20.0,4.0,0.0
3780,47.0,0.0,20.0,5.0,0.0
3781,35.0,1.0,20.0,6.0,0.0
3782,74.0,12.0,15.0,0.0,0.0
3783,71.0,11.0,15.0,0.0,0.0
3784,90.0,1.0,20.0,1.0,0.0
3785,74.0,12.0,15.0,0.0,0.0
3786,76.0,11.0,15.0,0.0,0.0
3787,73.0,0.0,20.0,1.0,0.0
3788,82.0,0.0,20.0,2.0,0.0
3789,78.0,0.0,20.0,3.0,0.0
3790,73.0,0.0,20.0,4.0,0.0
3791,54.0,0.0,20.0,5.0,0.0
3792,42.0,1.0,20.0,6.0,0.0
3793,73.0,12.0,15.0,0.0,0.0
3794,70.0,11.0,15.0,0.0,0.0
3795,88.0,1.0,20.0,1.0,0.0
3796,73.0,12.0,15.0,0.0,0.0
3797,74.0,0.0,20.0,0.0,0.0
3798,71.0,11.0,15.0,1.0,0.0
3799,83.0,0.0,20.0,2.0,0.0
3800,78.0,0.0,20.0,3.0,0.0
3801,74.0,0.0,20.0,4.0,0.0
3802,59.0,0.0,20.0,5.0,0.0
3803,47.0,1.0,20.0,6.0,0.0
3804,88.0,12.0,15.0,1.0,0.0
3805,71.0,1.0,20.0,0.0,0.0
3806,86.0,11.0,15.0,1.0,0.0
3807,85.0,12.0,15.0,1.0,0.0
3808,86.0,6.0,60.0,0.0,0.0
3809,83.0,12.0,15.0,1.0,0.0
3810,81.0,12.0,15.0,1.0,0.0
3811,80.0,12.0,15.0,1.0,0.0
3812,78.0,6.0,15.0,1.0,0.0
3813,80.0,11.0,15.0,1.0,0.0
3814,52.0,0.0,20.0,5.0,0.0
3815,40.0,1.0,20.0,6.0,0.0
3816,71.0,0.0,15.0,0.0,0.0
3817,86.0,12.0,15.0,1.0,0.0
3818,69.0,2.0,15.0,0.0,0.0
3819,85.0,10.0,15.0,1.0,0.0
3820,68.0,2.0,15.0,0.0,0.0
3821,83.0,10.0,15.0,1.0,0.0
3822,69.0,0.0,20.0,0.0,0.0
3823,85.0,11.0,15.0,1.0,0.0
3824,57.0,0.0,20.0,5.0,0.0
3825,45.0,1.0,20.0,6.0,0.0
3826,80.0,12.0,15.0,1.0,0.0
3827,85.0,3.0,30.0,0.0,0.0
3828,78.0,12.0,15.0,1.0,0.0
3829,77.0,9.0,15.0,1.0,0.0
3830,78.0,11.0,15.0,1.0,0.0
3831,50.0,0.0,20.0,5.0,0.0
3832,38.0,1.0,20.0,6.0,0.0
3833,69.0,0.0,15.0,0.0,0.0
3834,85.0,12.0,15.0,1.0,0.0
3835,68.0,0.0,15.0,0.0,0.0
3836,83.0,12.0,15.0,1.0,0.0
3837,66.0,0.0,15.0,0.0,0.0
3838,81.0,12.0,15.0,1.0,0.0
3839,68.0,0.0,20.0,0.0,0.0
3840,83.0,11.0,15.0,1.0,0.0
3841,56.0,0.0,20.0,5.0,0.0
3842,44.0,1.0,20.0,6.0,0.0
3843,78.0,12.0,15.0,1.0,0.0
3844,83.0,3.0,30.0,0.0,0.0
3845,77.0,12.0,15.0,1.0,0.0
3846,75.0,9.0,15.0,1.0,0.0
3847,77.0,11.0,15.0,1.0,0.0
3848,49.0,0.0,20.0,5.0,0.0
3849,37.0,1.0,20.0,6.0,0.0
3850,68.0,0.0,15.0,0.0,0.0
3851,83.0,12.0,15.0,1.0,0.0
3852,66.0,0.0,15.0,0.0,0.0
3853,81.0,12.0,15.0,1.0,0.0
3854,65.0,0.0,15.0,0.0,0.0
3855,80.0,12.0,15.0,1.0,0.0
3856,66.0,0.0,20.0,0.0,0.0
3857,81.0,11.0,15.0,1.0,0.0
3858,54.0,0.0,20.0,5.0,0.0
3859,42.0,1.0,20.0,6.0,0.0
3860,80.0,12.0,15.0,1.0,0.0
3861,78.0,3.0,30.0,0.0,0.0
3862,78.0,12.0,15.0,1.0,0.0
3863,81.0,9.0,15.0,1.0,0.0
3864,80.0,11.0,15.0,1.0,0.0
3865,61.0,0.0,20.0,5.0,0.0
3866,49.0,1.0,20.0,6.0,0.0
3867,81.0,0.0,15.0,0.0,0.0
3868,78.0,12.0,15.0,1.0,0.0
3869,80.0,0.0,15.0,0.0,0.0
3870,77.0,11.0,15.0,1.0,0.0
3871,49.0,0.0,20.0,5.0,0.0
3872,37.0,1.0,20.0,6.0,0.0
3873,78.0,0.0,15.0,0.0,0.0
3874,75.0,12.0,15.0,1.0,0.0
3875,80.0,11.0,15.0,0.0,0.0
3876,73.0,0.0,20.0,1.0,0.0
3877,53.0,0.0,20.0,5.0,0.0
3878,41.0,1.0,20.0,6.0,0.0
3879,83.0,12.0,15.0,0.0,0.0
3880,81.0,11.0,15.0,0.0,0.0
3881,49.0,0.0,20.0,5.0,0.0
3882,37.0,1.0,20.0,6.0,0.0
3883,80.0,12.0,15.0,0.0,0.0
3884,81.0,0.0,15.0,0.0,0.0
3885,78.0,0.0,15.0,2.0,0.0
3886,73.0,1.0,120.0,4.0,0.0
3887,54.0,0.0,15.0,5.0,0.0
3888,42.0,12.0,15.0,6.0,0.0
3889,83.0,0.0,15.0,0.0,0.0
3890,80.0,0.0,15.0,2.0,0.0
3891,53.0,0.0,15.0,5.0,0.0
3892,41.0,12.0,15.0,6.0,0.0
3893,81.0,0.0,15.0,0.0,0.0
3894,73.0,0.0,20.0,1.0,0.0
3895,81.0,0.0,15.0,2.0,0.0
3896,73.0,1.0,20.0,3.0,0.0
3897,54.0,0.0,15.0,5.0,0.0
3898,42.0,11.0,15.0,6.0,0.0
3899,80.0,0.0,15.0,0.0,0.0
3900,83.0,0.0,15.0,2.0,0.0
3901,56.0,0.0,15.0,5.0,0.0
3902,44.0,12.0,15.0,6.0,0.0
3903,78.0,0.0,20.0,0.0,0.0
3904,78.0,0.0,20.0,1.0,0.0
3905,85.0,0.0,20.0,2.0,0.0
3906,78.0,1.0,20.0,3.0,0.0
3907,57.0,0.0,15.0,5.0,0.0
3908,45.0,11.0,15.0,6.0,0.0
3909,56.0,0.0,15.0,5.0,0.0
3910,44.0,12.0,15.0,6.0,0.0
3911,90.0,0.0,20.0,0.0,0.0
3912,81.0,0.0,20.0,1.0,0.0
3913,90.0,0.0,20.0,2.0,0.0
3914,81.0,1.0,20.0,3.0,0.0
3915,57.0,0.0,15.0,5.0,0.0
3916,45.0,11.0,15.0,6.0,0.0
3917,59.0,0.0,15.0,5.0,0.0
3918,47.0,11.0,15.0,6.0,0.0
3919,89.0,0.0,20.0,0.0,0.0
3920,80.0,0.0,20.0,1.0,0.0
3921,89.0,0.0,20.0,2.0,0.0
3922,80.0,1.0,20.0,3.0,0.0
3923,61.0,0.0,15.0,5.0,0.0
3924,49.0,11.0,15.0,6.0,0.0
3925,59.0,0.0,15.0,5.0,0.0
3926,47.0,12.0,15.0,6.0,0.0
3927,85.0,0.0,20.0,0.0,0.0
3928,77.0,0.0,20.0,1.0,0.0
3929,85.0,0.0,20.0,2.0,0.0
3930,77.0,0.0,20.0,3.0,0.0
3931,68.0,1.0,20.0,4.0,0.0
3932,61.0,0.0,15.0,5.0,0.0
3933,49.0,11.0,15.0,6.0,0.0
3934,62.0,0.0,15.0,5.0,0.0
3935,50.0,12.0,15.0,6.0,0.0
3936,80.0,0.0,20.0,0.0,0.0
3937,73.0,0.0,60.0,1.0,0.0
3938,80.0,1.0,20.0,2.0,0.0
3939,73.0,6.0,60.0,3.0,0.0
3940,65.0,3.0,40.0,4.0,0.0
3941,61.0,0.0,15.0,5.0,0.0
3942,49.0,11.0,15.0,6.0,0.0
3943,59.0,0.0,15.0,5.0,0.0
3944,47.0,12.0,15.0,6.0,0.0
3945,83.0,0.0,20.0,0.0,0.0
3946,83.0,1.0,20.0,2.0,0.0
3947,58.0,0.0,15.0,5.0,0.0
3948,46.0,8.0,15.0,6.0,0.0
3949,56.0,0.0,15.0,5.0,0.0
3950,44.0,6.0,15.0,6.0,0.0
3951,82.0,0.0,20.0,0.0,0.0
3952,82.0,0.0,20.0,2.0,0.0
3953,66.0,1.0,20.0,4.0,0.0
3954,54.0,0.0,15.0,5.0,0.0
3955,42.0,11.0,15.0,6.0,0.0
3956,71.0,0.0,15.0,1.0,0.0
3957,71.0,0.0,15.0,3.0,0.0
3958,52.0,0.0,15.0,5.0,0.0
3959,40.0,12.0,15.0,6.0,0.0
3960,78.0,0.0,20.0,0.0,0.0
3961,70.0,0.0,15.0,1.0,0.0
3962,78.0,0.0,20.0,2.0,0.0
3963,70.0,0.0,15.0,3.0,0.0
3964,61.0,1.0,20.0,4.0,0.0
3965,54.0,0.0,15.0,5.0,0.0
3966,42.0,11.0,15.0,6.0,0.0
3967,68.0,0.0,15.0,1.0,0.0
3968,68.0,0.0,15.0,3.0,0.0
3969,55.0,0.0,15.0,5.0,0.0
3970,43.0,12.0,15.0,6.0,0.0
3971,88.0,0.0,60.0,0.0,0.0
3972,70.0,0.0,15.0,1.0,0.0
3973,88.0,7.0,60.0,2.0,0.0
3974,70.0,0.0,15.0,3.0,0.0
3975,73.0,1.0,20.0,4.0,0.0
3976,54.0,0.0,15.0,5.0,0.0
3977,42.0,11.0,15.0,6.0,0.0
3978,66.0,0.0,15.0,1.0,0.0
3979,66.0,0.0,15.0,3.0,0.0
3980,52.0,0.0,15.0,5.0,0.0
3981,40.0,12.0,15.0,6.0,0.0
3982,68.0,0.0,15.0,1.0,0.0
3983,68.0,0.0,15.0,3.0,0.0
3984,66.0,1.0,20.0,4.0,0.0
3985,50.0,0.0,15.0,5.0,0.0
3986,38.0,11.0,15.0,6.0,0.0
3987,70.0,0.0,15.0,1.0,0.0
3988,70.0,0.0,15.0,3.0,0.0
3989,49.0,0.0,15.0,5.0,0.0
3990,37.0,12.0,15.0,6.0,0.0
3991,71.0,0.0,90.0,1.0,0.0
3992,71.0,0.0,90.0,3.0,0.0
3993,47.0,0.0,15.0,5.0,0.0
3994,35.0,5.0,15.0,6.0,0.0
3995,46.0,0.0,15.0,5.0,0.0
3996,34.0,12.0,15.0,6.0,0.0
3997,87.0,0.0,15.0,0.0,0.0
3998,87.0,0.0,15.0,2.0,0.0
3999,78.0,1.0,20.0,4.0,0.0
4000,47.0,0.0,15.0,5.0,0.0
4001,35.0,11.0,15.0,6.0,0.0
4002,85.0,0.0,15.0,0.0,0.0
4003,85.0,0.0,15.0,2.0,0.0
4004,49.0,0.0,15.0,5.0,0.0
4005,37.0,12.0,15.0,6.0,0.0
4006,87.0,0.0,20.0,0.0,0.0
4007,87.0,0.0,20.0,2.0,0.0
4008,66.0,1.0,20.0,4.0,0.0
4009,47.0,0.0,15.0,5.0,0.0
4010,35.0,11.0,15.0,6.0,0.0
4011,45.0,0.0,15.0,5.0,0.0
4012,33.0,12.0,15.0,6.0,0.0
4013,83.0,0.0,20.0,0.0,0.0
4014,83.0,0.0,20.0,2.0,0.0
4015,71.0,1.0,20.0,4.0,0.0
4016,44.0,0.0,15.0,5.0,0.0
4017,32.0,11.0,15.0,6.0,0.0
4018,42.0,0.0,15.0,5.0,0.0
4019,30.0,23.0,15.0,6.0,0.0
4020,80.0,0.0,20.0,0.0,0.0
4021,80.0,1.0,20.0,2.0,0.0
4022,41.0,0.0,40.0,5.0,0.0
4023,29.0,3.0,40.0,6.0,0.0
4024,69.0,0.0,15.0,1.0,0.0
4025,69.0,12.0,15.0,3.0,0.0
4026,83.0,0.0,20.0,0.0,0.0
4027,68.0,0.0,15.0,1.0,0.0
4028,83.0,0.0,20.0,2.0,0.0
4029,68.0,8.0,15.0,3.0,0.0
4030,74.0,1.0,20.0,4.0,0.0
4031,69.0,0.0,15.0,1.0,0.0
4032,69.0,12.0,15.0,3.0,0.0
4033,86.0,0.0,20.0,0.0,0.0
4034,71.0,0.0,15.0,1.0,0.0
4035,86.0,0.0,20.0,2.0,0.0
4036,71.0,11.0,15.0,3.0,0.0
4037,68.0,1.0,20.0,4.0,0.0
4038,73.0,0.0,15.0,1.0,0.0
4039,73.0,12.0,15.0,3.0,0.0
4040,78.0,0.0,20.0,0.0,0.0
4041,74.0,0.0,15.0,1.0,0.0
4042,78.0,0.0,20.0,2.0,0.0
4043,74.0,11.0,15.0,3.0,0.0
4044,71.0,1.0,20.0,4.0,0.0
4045,59.0,0.0,40.0,5.0,0.0
4046,47.0,3.0,40.0,6.0,0.0
4047,71.0,0.0,15.0,1.0,0.0
4048,71.0,12.0,15.0,3.0,0.0
4049,77.0,0.0,20.0,0.0,0.0
4050,73.0,0.0,15.0,1.0,0.0
4051,77.0,1.0,20.0,2.0,0.0
4052,73.0,8.0,15.0,3.0,0.0
4053,74.0,0.0,15.0,1.0,0.0
4054,74.0,12.0,15.0,3.0,0.0
4055,85.0,0.0,20.0,0.0,0.0
4056,73.0,0.0,15.0,1.0,0.0
4057,85.0,0.0,20.0,2.0,0.0
4058,73.0,0.0,15.0,3.0,0.0
4059,65.0,1.0,20.0,4.0,0.0
4060,57.0,0.0,15.0,5.0,0.0
4061,45.0,11.0,15.0,6.0,0.0
4062,71.0,0.0,15.0,1.0,0.0
4063,71.0,0.0,15.0,3.0,0.0
4064,56.0,0.0,15.0,5.0,0.0
4065,44.0,12.0,15.0,6.0,0.0
4066,78.0,0.0,20.0,0.0,0.0
4067,69.0,0.0,15.0,1.0,0.0
4068,78.0,0.0,20.0,2.0,0.0
4069,69.0,11.0,15.0,3.0,0.0
4070,61.0,0.0,20.0,4.0,0.0
4071,57.0,0.0,20.0,5.0,0.0
4072,45.0,1.0,20.0,6.0,0.0
4073,68.0,0.0,15.0,1.0,0.0
4074,68.0,12.0,15.0,3.0,0.0
4075,83.0,0.0,20.0,0.0,0.0
4076,66.0,0.0,15.0,1.0,0.0
4077,83.0,0.0,20.0,2.0,0.0
4078,66.0,11.0,15.0,3.0,0.0
4079,66.0,0.0,20.0,4.0,0.0
4080,62.0,0.0,20.0,5.0,0.0
4081,50.0,1.0,20.0,6.0,0.0
4082,65.0,0.0,15.0,1.0,0.0
4083,65.0,23.0,15.0,3.0,0.0
4084,81.0,0.0,40.0,0.0,0.0
4085,66.0,0.0,20.0,1.0,0.0
4086,81.0,3.0,40.0,2.0,0.0
4087,66.0,0.0,20.0,3.0,0.0
4088,73.0,0.0,20.0,4.0,0.0
4089,61.0,0.0,20.0,5.0,0.0
4090,49.0,21.0,20.0,6.0,0.0
4091,78.0,0.0,40.0,1.0,0.0
4092,78.0,0.0,40.0,3.0,0.0
4093,74.0,3.0,40.0,4.0,0.0
4094,59.0,0.0,20.0,5.0,0.0
4095,47.0,21.0,20.0,6.0,0.0
4096,80.0,0.0,40.0,0.0,0.0
4097,80.0,3.0,40.0,2.0,0.0
4098,61.0,0.0,20.0,5.0,0.0
4099,49.0,13.0,20.0,6.0,0.0
4100,77.0,0.0,20.0,1.0,0.0
4101,77.0,0.0,20.0,3.0,0.0
4102,73.0,8.0,15.0,4.0,0.0
4103,49.0,0.0,20.0,5.0,0.0
4104,37.0,1.0,20.0,6.0,0.0
4105,71.0,170.0,15.0,4.0,0.0
4106,78.0,0.0,180.0,0.0,0.0
4107,78.0,0.0,180.0,1.0,0.0
4108,78.0,0.0,180.0,2.0,0.0
4109,78.0,0.0,180.0,3.0,0.0
4110,70.0,0.0,180.0,4.0,0.0
4111,42.0,0.0,180.0,5.0,0.0
4112,30.0,408.0,180.0,6.0,0.0
