,note,step,duration,channel,velocity
0,79.0,0.0,480.0,0.0,64.0
1,55.0,0.0,480.0,0.0,64.0
2,74.0,0.0,240.0,0.0,64.0
3,71.0,0.0,240.0,0.0,64.0
4,76.0,480.0,240.0,0.0,64.0
5,72.0,0.0,240.0,0.0,64.0
6,71.0,0.0,240.0,0.0,64.0
7,43.0,0.0,480.0,0.0,64.0
8,77.0,0.0,240.0,0.0,64.0
9,74.0,0.0,240.0,0.0,64.0
10,67.0,0.0,240.0,0.0,64.0
11,72.0,0.0,120.0,0.0,64.0
12,67.0,0.0,240.0,0.0,64.0
13,76.0,120.0,120.0,0.0,64.0
14,65.0,0.0,15.0,0.0,64.0
15,74.0,120.0,15.0,0.0,64.0
16,64.0,240.0,120.0,0.0,64.0
17,72.0,0.0,120.0,0.0,64.0
18,74.0,0.0,240.0,0.0,64.0
19,43.0,120.0,240.0,0.0,64.0
20,71.0,0.0,120.0,0.0,64.0
21,72.0,240.0,480.0,0.0,64.0
22,71.0,0.0,15.0,0.0,64.0
23,67.0,0.0,15.0,0.0,64.0
24,55.0,0.0,480.0,0.0,64.0
25,66.0,0.0,120.0,0.0,64.0
26,69.0,240.0,15.0,0.0,64.0
27,78.0,0.0,240.0,0.0,64.0
28,79.0,480.0,240.0,0.0,64.0
29,71.0,0.0,240.0,0.0,64.0
30,81.0,0.0,480.0,0.0,64.0
31,43.0,0.0,480.0,0.0,64.0
32,66.0,120.0,240.0,0.0,64.0
33,69.0,0.0,240.0,0.0,64.0
34,72.0,0.0,240.0,0.0,64.0
35,62.0,0.0,15.0,0.0,64.0
36,67.0,120.0,240.0,0.0,64.0
37,79.0,120.0,120.0,0.0,64.0
38,71.0,0.0,120.0,0.0,64.0
39,76.0,0.0,120.0,0.0,64.0
40,72.0,0.0,15.0,0.0,64.0
41,76.0,0.0,120.0,0.0,64.0
42,74.0,0.0,120.0,0.0,64.0
43,71.0,240.0,120.0,0.0,64.0
44,69.0,0.0,240.0,0.0,64.0
45,43.0,120.0,240.0,0.0,64.0
46,72.0,0.0,120.0,0.0,64.0
47,66.0,0.0,120.0,0.0,64.0
48,62.0,0.0,15.0,0.0,64.0
49,66.0,0.0,120.0,0.0,64.0
50,72.0,120.0,120.0,0.0,64.0
51,55.0,0.0,240.0,0.0,64.0
52,67.0,0.0,120.0,0.0,64.0
53,71.0,0.0,120.0,0.0,64.0
54,62.0,240.0,240.0,0.0,64.0
55,64.0,480.0,240.0,0.0,64.0
56,65.0,120.0,480.0,0.0,64.0
57,68.0,0.0,720.0,0.0,64.0
58,74.0,0.0,720.0,0.0,64.0
59,80.0,0.0,720.0,0.0,64.0
60,64.0,120.0,120.0,0.0,64.0
61,62.0,120.0,15.0,0.0,64.0
62,71.0,0.0,15.0,0.0,64.0
63,64.0,240.0,15.0,0.0,64.0
64,56.0,0.0,240.0,0.0,64.0
65,74.0,0.0,120.0,0.0,64.0
66,71.0,0.0,120.0,0.0,64.0
67,74.0,0.0,15.0,0.0,64.0
68,64.0,120.0,15.0,0.0,64.0
69,45.0,0.0,240.0,0.0,64.0
70,71.0,0.0,15.0,0.0,64.0
71,69.0,0.0,120.0,0.0,64.0
72,72.0,0.0,120.0,0.0,64.0
73,64.0,0.0,15.0,0.0,64.0
74,65.0,480.0,240.0,0.0,64.0
75,67.0,120.0,480.0,0.0,64.0
76,76.0,0.0,720.0,0.0,64.0
77,82.0,0.0,720.0,0.0,64.0
78,70.0,0.0,720.0,0.0,64.0
79,73.0,0.0,720.0,0.0,64.0
80,65.0,120.0,120.0,0.0,64.0
81,64.0,120.0,15.0,0.0,64.0
82,65.0,240.0,120.0,0.0,64.0
83,67.0,0.0,240.0,0.0,64.0
84,57.0,0.0,240.0,0.0,64.0
85,73.0,0.0,240.0,0.0,64.0
86,76.0,120.0,240.0,0.0,64.0
87,85.0,0.0,120.0,0.0,64.0
88,79.0,0.0,120.0,0.0,64.0
89,85.0,120.0,120.0,0.0,64.0
90,79.0,0.0,120.0,0.0,64.0
91,46.0,0.0,240.0,0.0,64.0
92,65.0,0.0,720.0,0.0,64.0
93,86.0,240.0,120.0,0.0,64.0
94,77.0,0.0,120.0,0.0,64.0
95,58.0,120.0,240.0,0.0,64.0
96,74.0,0.0,120.0,0.0,64.0
97,77.0,0.0,15.0,0.0,64.0
98,58.0,0.0,240.0,0.0,64.0
99,74.0,0.0,120.0,0.0,64.0
100,73.0,0.0,120.0,0.0,64.0
101,76.0,240.0,15.0,0.0,64.0
102,46.0,0.0,240.0,0.0,64.0
103,67.0,0.0,240.0,0.0,64.0
104,73.0,0.0,240.0,0.0,64.0
105,45.0,0.0,240.0,0.0,64.0
106,85.0,0.0,15.0,0.0,64.0
107,76.0,0.0,15.0,0.0,64.0
108,67.0,240.0,720.0,0.0,64.0
109,76.0,0.0,120.0,0.0,64.0
110,86.0,0.0,120.0,0.0,64.0
111,77.0,240.0,120.0,0.0,64.0
112,57.0,0.0,240.0,0.0,64.0
113,74.0,0.0,120.0,0.0,64.0
114,57.0,0.0,240.0,0.0,64.0
115,74.0,0.0,120.0,0.0,64.0
116,77.0,120.0,15.0,0.0,64.0
117,73.0,0.0,120.0,0.0,64.0
118,76.0,0.0,120.0,0.0,64.0
119,45.0,0.0,240.0,0.0,64.0
120,77.0,0.0,240.0,0.0,64.0
121,69.0,0.0,120.0,0.0,64.0
122,85.0,120.0,120.0,0.0,64.0
123,44.0,0.0,240.0,0.0,64.0
124,74.0,0.0,15.0,0.0,64.0
125,69.0,0.0,120.0,0.0,64.0
126,65.0,0.0,720.0,0.0,64.0
127,85.0,120.0,120.0,0.0,64.0
128,77.0,60.0,420.0,0.0,64.0
129,86.0,240.0,120.0,0.0,64.0
130,73.0,60.0,120.0,0.0,64.0
131,56.0,0.0,15.0,0.0,64.0
132,73.0,0.0,120.0,0.0,64.0
133,76.0,60.0,60.0,0.0,64.0
134,74.0,60.0,60.0,0.0,64.0
135,72.0,60.0,60.0,0.0,64.0
136,71.0,0.0,15.0,0.0,64.0
137,71.0,60.0,60.0,0.0,64.0
138,44.0,120.0,240.0,0.0,64.0
139,69.0,30.0,60.0,0.0,64.0
140,68.0,30.0,30.0,0.0,64.0
141,69.0,60.0,30.0,0.0,64.0
142,71.0,0.0,60.0,0.0,64.0
143,64.0,0.0,15.0,0.0,64.0
144,71.0,0.0,15.0,0.0,64.0
145,74.0,0.0,15.0,0.0,64.0
146,64.0,0.0,120.0,0.0,64.0
147,43.0,0.0,240.0,0.0,64.0
148,74.0,120.0,15.0,0.0,64.0
149,82.0,60.0,420.0,0.0,64.0
150,55.0,0.0,240.0,0.0,64.0
151,55.0,0.0,240.0,0.0,64.0
152,86.0,60.0,15.0,0.0,64.0
153,81.0,0.0,60.0,0.0,64.0
154,85.0,60.0,120.0,0.0,64.0
155,79.0,60.0,60.0,0.0,64.0
156,77.0,0.0,60.0,0.0,64.0
157,43.0,0.0,240.0,0.0,64.0
158,76.0,60.0,60.0,0.0,64.0
159,74.0,30.0,60.0,0.0,64.0
160,73.0,30.0,30.0,0.0,64.0
161,64.0,0.0,120.0,0.0,64.0
162,74.0,60.0,30.0,0.0,64.0
163,76.0,0.0,60.0,0.0,64.0
164,41.0,0.0,240.0,0.0,64.0
165,69.0,0.0,15.0,0.0,64.0
166,64.0,120.0,120.0,0.0,64.0
167,77.0,0.0,120.0,0.0,64.0
168,62.0,240.0,120.0,0.0,64.0
169,65.0,0.0,15.0,0.0,64.0
170,74.0,0.0,15.0,0.0,64.0
171,46.0,0.0,240.0,0.0,64.0
172,65.0,0.0,120.0,0.0,64.0
173,74.0,0.0,120.0,0.0,64.0
174,43.0,0.0,240.0,0.0,64.0
175,70.0,0.0,15.0,0.0,64.0
176,65.0,0.0,120.0,0.0,64.0
177,74.0,120.0,120.0,0.0,64.0
178,76.0,0.0,120.0,0.0,64.0
179,67.0,0.0,15.0,0.0,64.0
180,45.0,0.0,240.0,0.0,64.0
181,69.0,0.0,240.0,0.0,64.0
182,73.0,0.0,120.0,0.0,64.0
183,50.0,0.0,480.0,0.0,64.0
184,73.0,120.0,120.0,0.0,64.0
185,64.0,0.0,15.0,0.0,64.0
186,74.0,240.0,120.0,0.0,64.0
187,65.0,0.0,120.0,0.0,64.0
188,69.0,0.0,240.0,0.0,64.0
189,77.0,0.0,240.0,0.0,64.0
190,70.0,240.0,240.0,0.0,64.0
191,79.0,0.0,240.0,0.0,64.0
192,72.0,240.0,240.0,0.0,64.0
193,43.0,0.0,240.0,0.0,64.0
194,81.0,0.0,15.0,0.0,64.0
195,74.0,0.0,240.0,0.0,64.0
196,72.0,0.0,240.0,0.0,64.0
197,71.0,0.0,120.0,0.0,64.0
198,55.0,120.0,240.0,0.0,64.0
199,79.0,120.0,120.0,0.0,64.0
200,74.0,0.0,480.0,0.0,64.0
201,77.0,0.0,120.0,0.0,64.0
202,81.0,0.0,120.0,0.0,64.0
203,77.0,120.0,120.0,0.0,64.0
204,81.0,0.0,120.0,0.0,64.0
205,57.0,0.0,240.0,0.0,64.0
206,79.0,0.0,120.0,0.0,64.0
207,76.0,0.0,120.0,0.0,64.0
208,59.0,120.0,240.0,0.0,64.0
209,74.0,0.0,120.0,0.0,64.0
210,67.0,0.0,15.0,0.0,64.0
211,77.0,0.0,15.0,0.0,64.0
212,74.0,120.0,120.0,0.0,64.0
213,48.0,240.0,480.0,0.0,64.0
214,72.0,0.0,120.0,0.0,64.0
215,76.0,240.0,120.0,0.0,64.0
216,81.0,0.0,240.0,0.0,64.0
217,72.0,0.0,240.0,0.0,64.0
218,74.0,240.0,240.0,0.0,64.0
219,83.0,0.0,240.0,0.0,64.0
220,69.0,240.0,240.0,0.0,64.0
221,84.0,0.0,480.0,0.0,64.0
222,72.0,0.0,15.0,0.0,64.0
223,76.0,0.0,240.0,0.0,64.0
224,69.0,120.0,240.0,0.0,64.0
225,40.0,0.0,240.0,0.0,64.0
226,83.0,0.0,120.0,0.0,64.0
227,74.0,120.0,120.0,0.0,64.0
228,68.0,0.0,240.0,0.0,64.0
229,71.0,0.0,240.0,0.0,64.0
230,76.0,0.0,15.0,0.0,64.0
231,52.0,0.0,240.0,0.0,64.0
232,88.0,0.0,120.0,0.0,64.0
233,72.0,0.0,120.0,0.0,64.0
234,72.0,120.0,120.0,0.0,64.0
235,76.0,120.0,15.0,0.0,64.0
236,69.0,0.0,240.0,0.0,64.0
237,54.0,0.0,240.0,0.0,64.0
238,66.0,240.0,240.0,0.0,64.0
239,88.0,0.0,120.0,0.0,64.0
240,86.0,0.0,120.0,0.0,64.0
241,71.0,0.0,120.0,0.0,64.0
242,71.0,0.0,240.0,0.0,64.0
243,56.0,0.0,240.0,0.0,64.0
244,64.0,0.0,240.0,0.0,64.0
245,83.0,0.0,15.0,0.0,64.0
246,45.0,0.0,240.0,0.0,64.0
247,74.0,0.0,15.0,0.0,64.0
248,71.0,0.0,240.0,0.0,64.0
249,74.0,120.0,120.0,0.0,64.0
250,81.0,0.0,120.0,0.0,64.0
251,57.0,0.0,240.0,0.0,64.0
252,72.0,240.0,15.0,0.0,64.0
253,69.0,0.0,720.0,0.0,64.0
254,64.0,0.0,15.0,0.0,64.0
255,84.0,0.0,15.0,0.0,64.0
256,59.0,240.0,240.0,0.0,64.0
257,76.0,120.0,15.0,0.0,64.0
258,83.0,0.0,120.0,0.0,64.0
259,75.0,0.0,120.0,0.0,64.0
260,60.0,0.0,240.0,0.0,64.0
261,81.0,120.0,120.0,0.0,64.0
262,76.0,0.0,120.0,0.0,64.0
263,52.0,120.0,120.0,0.0,64.0
264,78.0,0.0,240.0,0.0,64.0
265,69.0,0.0,240.0,0.0,64.0
266,71.0,0.0,240.0,0.0,64.0
267,81.0,0.0,240.0,0.0,64.0
268,66.0,0.0,240.0,0.0,64.0
269,51.0,240.0,120.0,0.0,64.0
270,69.0,0.0,120.0,0.0,64.0
271,75.0,0.0,120.0,0.0,64.0
272,66.0,0.0,120.0,0.0,64.0
273,60.0,0.0,15.0,0.0,64.0
274,76.0,0.0,240.0,0.0,64.0
275,67.0,0.0,240.0,0.0,64.0
276,59.0,240.0,120.0,0.0,64.0
277,69.0,0.0,240.0,0.0,64.0
278,78.0,0.0,120.0,0.0,64.0
279,72.0,0.0,120.0,0.0,64.0
280,57.0,120.0,120.0,0.0,64.0
281,75.0,0.0,240.0,0.0,64.0
282,66.0,0.0,15.0,0.0,64.0
283,71.0,0.0,120.0,0.0,64.0
284,57.0,0.0,120.0,0.0,64.0
285,55.0,0.0,120.0,0.0,64.0
286,76.0,0.0,120.0,0.0,64.0
287,71.0,0.0,120.0,0.0,64.0
288,69.0,0.0,120.0,0.0,64.0
289,60.0,0.0,120.0,0.0,64.0
290,75.0,0.0,120.0,0.0,64.0
291,76.0,0.0,120.0,0.0,64.0
292,57.0,0.0,120.0,0.0,64.0
293,72.0,120.0,120.0,0.0,64.0
294,84.0,120.0,120.0,0.0,64.0
295,59.0,0.0,240.0,0.0,64.0
296,71.0,0.0,15.0,0.0,64.0
297,83.0,0.0,120.0,0.0,64.0
298,67.0,0.0,15.0,0.0,64.0
299,71.0,0.0,15.0,0.0,64.0
300,76.0,0.0,15.0,0.0,64.0
301,47.0,0.0,240.0,0.0,64.0
302,66.0,30.0,30.0,0.0,64.0
303,67.0,30.0,30.0,0.0,64.0
304,66.0,0.0,30.0,0.0,64.0
305,67.0,30.0,30.0,0.0,64.0
306,75.0,0.0,120.0,0.0,64.0
307,66.0,30.0,30.0,0.0,64.0
308,64.0,30.0,30.0,0.0,64.0
309,66.0,0.0,30.0,0.0,64.0
310,52.0,0.0,240.0,0.0,64.0
311,71.0,0.0,15.0,0.0,64.0
312,67.0,0.0,240.0,0.0,64.0
313,76.0,0.0,240.0,0.0,64.0
314,64.0,240.0,240.0,0.0,64.0
315,65.0,0.0,120.0,0.0,64.0
316,68.0,0.0,120.0,0.0,64.0
317,71.0,0.0,15.0,0.0,64.0
318,65.0,120.0,120.0,0.0,64.0
319,74.0,0.0,15.0,0.0,64.0
320,68.0,0.0,240.0,0.0,64.0
321,64.0,0.0,120.0,0.0,64.0
322,76.0,120.0,120.0,0.0,64.0
323,62.0,120.0,120.0,0.0,64.0
324,77.0,0.0,120.0,0.0,64.0
325,71.0,0.0,240.0,0.0,64.0
326,74.0,0.0,240.0,0.0,64.0
327,80.0,0.0,240.0,0.0,64.0
328,68.0,240.0,240.0,0.0,64.0
329,62.0,120.0,120.0,0.0,64.0
330,60.0,0.0,120.0,0.0,64.0
331,81.0,0.0,240.0,0.0,64.0
332,53.0,0.0,240.0,0.0,64.0
333,72.0,0.0,240.0,0.0,64.0
334,69.0,0.0,240.0,0.0,64.0
335,69.0,0.0,240.0,0.0,64.0
336,72.0,0.0,240.0,0.0,64.0
337,50.0,0.0,240.0,0.0,64.0
338,79.0,0.0,120.0,0.0,64.0
339,84.0,0.0,15.0,0.0,64.0
340,77.0,0.0,120.0,0.0,64.0
341,83.0,120.0,120.0,0.0,64.0
342,52.0,120.0,240.0,0.0,64.0
343,68.0,0.0,240.0,0.0,64.0
344,71.0,0.0,240.0,0.0,64.0
345,76.0,120.0,120.0,0.0,64.0
346,83.0,0.0,120.0,0.0,64.0
347,74.0,0.0,120.0,0.0,64.0
348,45.0,0.0,480.0,0.0,64.0
349,76.0,0.0,15.0,0.0,64.0
350,69.0,0.0,480.0,0.0,64.0
351,84.0,240.0,240.0,0.0,64.0
352,83.0,120.0,120.0,0.0,64.0
353,81.0,0.0,120.0,0.0,64.0
354,72.0,0.0,240.0,0.0,64.0
355,81.0,0.0,240.0,0.0,64.0
356,74.0,480.0,240.0,0.0,64.0
357,83.0,0.0,240.0,0.0,64.0
358,84.0,120.0,480.0,0.0,64.0
359,81.0,0.0,480.0,0.0,64.0
360,76.0,0.0,240.0,0.0,64.0
361,72.0,0.0,480.0,0.0,64.0
362,57.0,0.0,480.0,0.0,64.0
363,74.0,0.0,120.0,0.0,64.0
364,83.0,120.0,120.0,0.0,64.0
365,77.0,0.0,120.0,0.0,64.0
366,77.0,0.0,120.0,0.0,64.0
367,80.0,0.0,240.0,0.0,64.0
368,86.0,0.0,15.0,0.0,64.0
369,84.0,0.0,120.0,0.0,64.0
370,45.0,0.0,240.0,0.0,64.0
371,71.0,240.0,15.0,0.0,64.0
372,76.0,0.0,15.0,0.0,64.0
373,80.0,0.0,240.0,0.0,64.0
374,74.0,0.0,15.0,0.0,64.0
375,45.0,0.0,240.0,0.0,64.0
376,81.0,0.0,240.0,0.0,64.0
377,76.0,120.0,15.0,0.0,64.0
378,68.0,0.0,15.0,0.0,64.0
379,69.0,240.0,120.0,0.0,64.0
380,72.0,0.0,120.0,0.0,64.0
381,76.0,0.0,240.0,0.0,64.0
382,58.0,120.0,15.0,0.0,64.0
383,79.0,0.0,240.0,0.0,64.0
384,76.0,120.0,240.0,0.0,64.0
385,73.0,0.0,240.0,0.0,64.0
386,57.0,0.0,120.0,0.0,64.0
387,81.0,120.0,120.0,0.0,64.0
388,82.0,0.0,120.0,0.0,64.0
389,81.0,0.0,240.0,0.0,64.0
390,76.0,0.0,240.0,0.0,64.0
391,55.0,120.0,15.0,0.0,64.0
392,73.0,0.0,240.0,0.0,64.0
393,53.0,0.0,120.0,0.0,64.0
394,46.0,120.0,240.0,0.0,64.0
395,82.0,0.0,480.0,0.0,64.0
396,77.0,0.0,480.0,0.0,64.0
397,74.0,0.0,240.0,0.0,64.0
398,89.0,0.0,120.0,0.0,64.0
399,43.0,0.0,240.0,0.0,64.0
400,89.0,120.0,120.0,0.0,64.0
401,70.0,0.0,240.0,0.0,64.0
402,88.0,0.0,120.0,0.0,64.0
403,73.0,0.0,240.0,0.0,64.0
404,69.0,120.0,120.0,0.0,64.0
405,45.0,0.0,240.0,0.0,64.0
406,81.0,0.0,240.0,0.0,64.0
407,76.0,0.0,240.0,0.0,64.0
408,67.0,120.0,120.0,0.0,64.0
409,88.0,0.0,15.0,0.0,64.0
410,69.0,0.0,480.0,0.0,64.0
411,50.0,240.0,480.0,0.0,64.0
412,77.0,240.0,240.0,0.0,64.0
413,86.0,0.0,120.0,0.0,64.0
414,65.0,0.0,240.0,0.0,64.0
415,74.0,0.0,240.0,0.0,64.0
416,67.0,0.0,240.0,0.0,64.0
417,76.0,480.0,240.0,0.0,64.0
418,77.0,120.0,240.0,0.0,64.0
419,62.0,0.0,480.0,0.0,64.0
420,74.0,0.0,480.0,0.0,64.0
421,69.0,0.0,240.0,0.0,64.0
422,67.0,120.0,120.0,0.0,64.0
423,76.0,0.0,120.0,0.0,64.0
424,70.0,0.0,120.0,0.0,64.0
425,79.0,120.0,15.0,0.0,64.0
426,70.0,0.0,120.0,0.0,64.0
427,77.0,0.0,120.0,0.0,64.0
428,69.0,0.0,15.0,0.0,64.0
429,73.0,0.0,15.0,0.0,64.0
430,76.0,240.0,15.0,0.0,64.0
431,62.0,0.0,240.0,0.0,64.0
432,79.0,0.0,240.0,0.0,64.0
433,67.0,0.0,120.0,0.0,64.0
434,50.0,0.0,240.0,0.0,64.0
435,67.0,0.0,120.0,0.0,64.0
436,73.0,0.0,15.0,0.0,64.0
437,69.0,0.0,240.0,0.0,64.0
438,77.0,0.0,240.0,0.0,64.0
439,65.0,0.0,120.0,0.0,64.0
440,74.0,0.0,120.0,0.0,64.0
441,61.0,0.0,120.0,0.0,64.0
442,76.0,0.0,120.0,0.0,64.0
443,81.0,0.0,120.0,0.0,64.0
444,70.0,0.0,240.0,0.0,64.0
445,77.0,0.0,240.0,0.0,64.0
446,61.0,0.0,120.0,0.0,64.0
447,81.0,120.0,15.0,0.0,64.0
448,62.0,240.0,120.0,0.0,64.0
449,82.0,0.0,120.0,0.0,64.0
450,82.0,0.0,120.0,0.0,64.0
451,50.0,0.0,120.0,0.0,64.0
452,77.0,0.0,120.0,0.0,64.0
453,50.0,0.0,120.0,0.0,64.0
454,70.0,120.0,15.0,0.0,64.0
455,76.0,120.0,240.0,0.0,64.0
456,82.0,120.0,120.0,0.0,64.0
457,81.0,0.0,120.0,0.0,64.0
458,49.0,0.0,120.0,0.0,64.0
459,81.0,120.0,120.0,0.0,64.0
460,71.0,0.0,120.0,0.0,64.0
461,80.0,0.0,120.0,0.0,64.0
462,59.0,0.0,120.0,0.0,64.0
463,59.0,120.0,120.0,0.0,64.0
464,76.0,0.0,15.0,0.0,64.0
465,69.0,0.0,240.0,0.0,64.0
466,80.0,0.0,120.0,0.0,64.0
467,81.0,0.0,120.0,0.0,64.0
468,60.0,0.0,120.0,0.0,64.0
469,75.0,120.0,15.0,0.0,64.0
470,75.0,0.0,120.0,0.0,64.0
471,48.0,0.0,120.0,0.0,64.0
472,74.0,0.0,15.0,0.0,64.0
473,48.0,0.0,120.0,0.0,64.0
474,81.0,0.0,15.0,0.0,64.0
475,74.0,0.0,240.0,0.0,64.0
476,69.0,120.0,15.0,0.0,64.0
477,47.0,0.0,120.0,0.0,64.0
478,79.0,0.0,15.0,0.0,64.0
479,69.0,0.0,120.0,0.0,64.0
480,57.0,0.0,120.0,0.0,64.0
481,67.0,0.0,240.0,0.0,64.0
482,57.0,0.0,120.0,0.0,64.0
483,74.0,120.0,15.0,0.0,64.0
484,78.0,0.0,15.0,0.0,64.0
485,58.0,0.0,120.0,0.0,64.0
486,79.0,0.0,120.0,0.0,64.0
487,73.0,120.0,15.0,0.0,64.0
488,58.0,0.0,120.0,0.0,64.0
489,74.0,0.0,120.0,0.0,64.0
490,70.0,0.0,120.0,0.0,64.0
491,50.0,0.0,120.0,0.0,64.0
492,79.0,0.0,15.0,0.0,64.0
493,76.0,120.0,120.0,0.0,64.0
494,49.0,0.0,120.0,0.0,64.0
495,69.0,0.0,15.0,0.0,64.0
496,50.0,0.0,240.0,0.0,64.0
497,74.0,0.0,15.0,0.0,64.0
498,77.0,0.0,15.0,0.0,64.0
499,71.0,0.0,240.0,0.0,64.0
500,77.0,120.0,120.0,0.0,64.0
501,43.0,0.0,240.0,0.0,64.0
502,76.0,0.0,15.0,0.0,64.0
503,45.0,0.0,240.0,0.0,64.0
504,79.0,0.0,120.0,0.0,64.0
505,79.0,120.0,120.0,0.0,64.0
506,72.0,0.0,15.0,0.0,64.0
507,50.0,0.0,240.0,0.0,64.0
508,69.0,120.0,240.0,0.0,64.0
509,78.0,0.0,120.0,0.0,64.0
510,52.0,0.0,240.0,0.0,64.0
511,67.0,0.0,240.0,0.0,64.0
512,79.0,0.0,240.0,0.0,64.0
513,48.0,0.0,240.0,0.0,64.0
514,71.0,0.0,15.0,0.0,64.0
515,76.0,0.0,240.0,0.0,64.0
516,79.0,0.0,240.0,0.0,64.0
517,69.0,0.0,120.0,0.0,64.0
518,50.0,0.0,240.0,0.0,64.0
519,74.0,0.0,240.0,0.0,64.0
520,77.0,0.0,240.0,0.0,64.0
521,69.0,120.0,240.0,0.0,64.0
522,72.0,0.0,15.0,0.0,64.0
523,55.0,120.0,240.0,0.0,64.0
524,77.0,0.0,240.0,0.0,64.0
525,74.0,0.0,240.0,0.0,64.0
526,71.0,0.0,120.0,0.0,64.0
527,57.0,0.0,240.0,0.0,64.0
528,76.0,0.0,120.0,0.0,64.0
529,69.0,240.0,240.0,0.0,64.0
530,72.0,120.0,15.0,0.0,64.0
531,53.0,0.0,240.0,0.0,64.0
532,76.0,0.0,15.0,0.0,64.0
533,74.0,0.0,120.0,0.0,64.0
534,55.0,0.0,240.0,0.0,64.0
535,74.0,0.0,15.0,0.0,64.0
536,71.0,0.0,240.0,0.0,64.0
537,77.0,0.0,120.0,0.0,64.0
538,77.0,120.0,120.0,0.0,64.0
539,67.0,0.0,15.0,0.0,64.0
540,48.0,0.0,480.0,0.0,64.0
541,72.0,0.0,240.0,0.0,64.0
542,76.0,240.0,15.0,0.0,64.0
543,79.0,0.0,240.0,0.0,64.0
544,81.0,0.0,240.0,0.0,64.0
545,77.0,240.0,240.0,0.0,64.0
546,70.0,0.0,240.0,0.0,64.0
547,82.0,0.0,480.0,0.0,64.0
548,60.0,0.0,480.0,0.0,64.0
549,79.0,240.0,15.0,0.0,64.0
550,70.0,120.0,240.0,0.0,64.0
551,77.0,0.0,120.0,0.0,64.0
552,72.0,0.0,15.0,0.0,64.0
553,81.0,120.0,120.0,0.0,64.0
554,69.0,0.0,240.0,0.0,64.0
555,70.0,120.0,120.0,0.0,64.0
556,79.0,0.0,120.0,0.0,64.0
557,79.0,0.0,120.0,0.0,64.0
558,70.0,120.0,120.0,0.0,64.0
559,69.0,0.0,120.0,0.0,64.0
560,77.0,240.0,120.0,0.0,64.0
561,60.0,0.0,240.0,0.0,64.0
562,76.0,0.0,120.0,0.0,64.0
563,72.0,0.0,120.0,0.0,64.0
564,67.0,0.0,15.0,0.0,64.0
565,76.0,120.0,15.0,0.0,64.0
566,77.0,0.0,480.0,0.0,64.0
567,48.0,240.0,480.0,0.0,64.0
568,72.0,0.0,120.0,0.0,64.0
569,71.0,240.0,120.0,0.0,64.0
570,74.0,0.0,120.0,0.0,64.0
571,83.0,0.0,240.0,0.0,64.0
572,74.0,0.0,240.0,0.0,64.0
573,76.0,0.0,240.0,0.0,64.0
574,84.0,480.0,240.0,0.0,64.0
575,86.0,120.0,480.0,0.0,64.0
576,60.0,0.0,480.0,0.0,64.0
577,71.0,0.0,240.0,0.0,64.0
578,74.0,0.0,240.0,0.0,64.0
579,77.0,0.0,240.0,0.0,64.0
580,84.0,120.0,120.0,0.0,64.0
581,67.0,0.0,15.0,0.0,64.0
582,72.0,120.0,240.0,0.0,64.0
583,76.0,0.0,120.0,0.0,64.0
584,77.0,0.0,120.0,0.0,64.0
585,77.0,0.0,120.0,0.0,64.0
586,81.0,0.0,15.0,0.0,64.0
587,79.0,240.0,120.0,0.0,64.0
588,76.0,0.0,120.0,0.0,64.0
589,60.0,120.0,240.0,0.0,64.0
590,65.0,0.0,240.0,0.0,64.0
591,74.0,0.0,240.0,0.0,64.0
592,77.0,0.0,120.0,0.0,64.0
593,67.0,0.0,15.0,0.0,64.0
594,64.0,0.0,480.0,0.0,64.0
595,48.0,0.0,240.0,0.0,64.0
596,77.0,0.0,120.0,0.0,64.0
597,71.0,0.0,15.0,0.0,64.0
598,76.0,0.0,120.0,0.0,64.0
599,72.0,240.0,120.0,0.0,64.0
600,55.0,240.0,240.0,0.0,64.0
601,57.0,480.0,240.0,0.0,64.0
602,58.0,120.0,480.0,0.0,64.0
603,85.0,0.0,720.0,0.0,64.0
604,76.0,0.0,720.0,0.0,64.0
605,73.0,0.0,720.0,0.0,64.0
606,57.0,120.0,120.0,0.0,64.0
607,55.0,120.0,15.0,0.0,64.0
608,57.0,0.0,120.0,0.0,64.0
609,49.0,0.0,240.0,0.0,64.0
610,76.0,0.0,15.0,0.0,64.0
611,69.0,0.0,240.0,0.0,64.0
612,67.0,240.0,15.0,0.0,64.0
613,67.0,0.0,15.0,0.0,64.0
614,88.0,0.0,15.0,0.0,64.0
615,50.0,0.0,240.0,0.0,64.0
616,69.0,0.0,240.0,0.0,64.0
617,74.0,0.0,240.0,0.0,64.0
618,65.0,0.0,120.0,0.0,64.0
619,86.0,240.0,120.0,0.0,64.0
620,57.0,240.0,240.0,0.0,64.0
621,58.0,480.0,240.0,0.0,64.0
622,60.0,120.0,480.0,0.0,64.0
623,78.0,0.0,720.0,0.0,64.0
624,75.0,0.0,720.0,0.0,64.0
625,69.0,0.0,720.0,0.0,64.0
626,87.0,0.0,720.0,0.0,64.0
627,58.0,120.0,120.0,0.0,64.0
628,57.0,120.0,15.0,0.0,64.0
629,58.0,240.0,120.0,0.0,64.0
630,69.0,0.0,240.0,0.0,64.0
631,72.0,0.0,240.0,0.0,64.0
632,50.0,120.0,240.0,0.0,64.0
633,78.0,0.0,120.0,0.0,64.0
634,67.0,0.0,720.0,0.0,64.0
635,84.0,0.0,15.0,0.0,64.0
636,78.0,0.0,120.0,0.0,64.0
637,51.0,0.0,240.0,0.0,64.0
638,82.0,0.0,120.0,0.0,64.0
639,79.0,240.0,120.0,0.0,64.0
640,70.0,0.0,15.0,0.0,64.0
641,63.0,0.0,15.0,0.0,64.0
642,79.0,120.0,15.0,0.0,64.0
643,69.0,0.0,15.0,0.0,64.0
644,51.0,0.0,240.0,0.0,64.0
645,78.0,0.0,15.0,0.0,64.0
646,72.0,120.0,240.0,0.0,64.0
647,66.0,0.0,15.0,0.0,64.0
648,50.0,240.0,240.0,0.0,64.0
649,81.0,0.0,15.0,0.0,64.0
650,82.0,0.0,120.0,0.0,64.0
651,67.0,0.0,120.0,0.0,64.0
652,62.0,0.0,240.0,0.0,64.0
653,70.0,0.0,120.0,0.0,64.0
654,62.0,240.0,240.0,0.0,64.0
655,79.0,120.0,15.0,0.0,64.0
656,70.0,120.0,120.0,0.0,64.0
657,78.0,0.0,120.0,0.0,64.0
658,74.0,0.0,15.0,0.0,64.0
659,69.0,0.0,15.0,0.0,64.0
660,50.0,0.0,240.0,0.0,64.0
661,78.0,0.0,120.0,0.0,64.0
662,69.0,0.0,15.0,0.0,64.0
663,49.0,0.0,240.0,0.0,64.0
664,78.0,120.0,15.0,0.0,64.0
665,79.0,0.0,120.0,0.0,64.0
666,70.0,240.0,120.0,0.0,64.0
667,61.0,0.0,240.0,0.0,64.0
668,82.0,60.0,300.0,0.0,64.0
669,66.0,60.0,120.0,0.0,64.0
670,61.0,0.0,240.0,0.0,64.0
671,66.0,60.0,120.0,0.0,64.0
672,81.0,0.0,60.0,0.0,64.0
673,79.0,60.0,60.0,0.0,64.0
674,67.0,0.0,120.0,0.0,64.0
675,77.0,0.0,60.0,0.0,64.0
676,49.0,0.0,240.0,0.0,64.0
677,79.0,0.0,15.0,0.0,64.0
678,76.0,60.0,15.0,0.0,64.0
679,74.0,30.0,60.0,0.0,64.0
680,73.0,30.0,30.0,0.0,64.0
681,67.0,0.0,120.0,0.0,64.0
682,74.0,60.0,30.0,0.0,64.0
683,76.0,0.0,60.0,0.0,64.0
684,69.0,0.0,15.0,0.0,64.0
685,48.0,240.0,240.0,0.0,64.0
686,79.0,0.0,15.0,0.0,64.0
687,67.0,120.0,120.0,0.0,64.0
688,69.0,0.0,120.0,0.0,64.0
689,79.0,0.0,120.0,0.0,64.0
690,75.0,60.0,420.0,0.0,64.0
691,60.0,0.0,240.0,0.0,64.0
692,91.0,60.0,15.0,0.0,64.0
693,60.0,0.0,240.0,0.0,64.0
694,74.0,60.0,60.0,0.0,64.0
695,72.0,60.0,60.0,0.0,64.0
696,90.0,0.0,120.0,0.0,64.0
697,70.0,0.0,60.0,0.0,64.0
698,69.0,60.0,60.0,0.0,64.0
699,48.0,0.0,240.0,0.0,64.0
700,74.0,0.0,240.0,0.0,64.0
701,78.0,0.0,240.0,0.0,64.0
702,67.0,30.0,60.0,0.0,64.0
703,66.0,30.0,30.0,0.0,64.0
704,67.0,60.0,30.0,0.0,64.0
705,69.0,0.0,60.0,0.0,64.0
706,47.0,0.0,240.0,0.0,64.0
707,74.0,0.0,240.0,0.0,64.0
708,81.0,0.0,15.0,0.0,64.0
709,62.0,120.0,120.0,0.0,64.0
710,79.0,0.0,120.0,0.0,64.0
711,52.0,0.0,240.0,0.0,64.0
712,71.0,0.0,15.0,0.0,64.0
713,67.0,240.0,15.0,0.0,64.0
714,76.0,0.0,15.0,0.0,64.0
715,48.0,0.0,240.0,0.0,64.0
716,71.0,0.0,15.0,0.0,64.0
717,79.0,0.0,15.0,0.0,64.0
718,81.0,0.0,120.0,0.0,64.0
719,72.0,0.0,120.0,0.0,64.0
720,50.0,0.0,240.0,0.0,64.0
721,69.0,240.0,15.0,0.0,64.0
722,74.0,0.0,240.0,0.0,64.0
723,66.0,0.0,240.0,0.0,64.0
724,72.0,0.0,120.0,0.0,64.0
725,69.0,0.0,120.0,0.0,64.0
726,74.0,240.0,240.0,0.0,64.0
727,72.0,120.0,120.0,0.0,64.0
728,69.0,0.0,120.0,0.0,64.0
729,43.0,0.0,240.0,0.0,64.0
730,67.0,0.0,120.0,0.0,64.0
731,71.0,0.0,120.0,0.0,64.0
732,48.0,120.0,240.0,0.0,64.0
733,67.0,0.0,120.0,0.0,64.0
734,76.0,0.0,15.0,0.0,64.0
735,72.0,0.0,15.0,0.0,64.0
736,67.0,0.0,15.0,0.0,64.0
737,45.0,0.0,240.0,0.0,64.0
738,78.0,0.0,120.0,0.0,64.0
739,69.0,0.0,120.0,0.0,64.0
740,71.0,0.0,240.0,0.0,64.0
741,47.0,120.0,240.0,0.0,64.0
742,75.0,0.0,240.0,0.0,64.0
743,69.0,0.0,120.0,0.0,64.0
744,66.0,0.0,15.0,0.0,64.0
745,71.0,0.0,240.0,0.0,64.0
746,69.0,120.0,120.0,0.0,64.0
747,40.0,0.0,240.0,0.0,64.0
748,64.0,0.0,120.0,0.0,64.0
749,67.0,0.0,120.0,0.0,64.0
750,72.0,0.0,240.0,0.0,64.0
751,76.0,0.0,15.0,0.0,64.0
752,69.0,0.0,240.0,0.0,64.0
753,57.0,0.0,240.0,0.0,64.0
754,76.0,0.0,120.0,0.0,64.0
755,84.0,0.0,120.0,0.0,64.0
756,53.0,0.0,240.0,0.0,64.0
757,81.0,0.0,240.0,0.0,64.0
758,76.0,120.0,15.0,0.0,64.0
759,84.0,0.0,120.0,0.0,64.0
760,69.0,0.0,240.0,0.0,64.0
761,77.0,0.0,120.0,0.0,64.0
762,86.0,240.0,120.0,0.0,64.0
763,79.0,0.0,240.0,0.0,64.0
764,74.0,0.0,15.0,0.0,64.0
765,55.0,0.0,240.0,0.0,64.0
766,71.0,0.0,240.0,0.0,64.0
767,74.0,0.0,15.0,0.0,64.0
768,83.0,0.0,15.0,0.0,64.0
769,48.0,0.0,240.0,0.0,64.0
770,72.0,0.0,240.0,0.0,64.0
771,76.0,0.0,120.0,0.0,64.0
772,84.0,0.0,120.0,0.0,64.0
773,79.0,240.0,15.0,0.0,64.0
774,71.0,120.0,240.0,0.0,64.0
775,50.0,0.0,240.0,0.0,64.0
776,74.0,0.0,120.0,0.0,64.0
777,83.0,0.0,120.0,0.0,64.0
778,69.0,0.0,240.0,0.0,64.0
779,83.0,0.0,120.0,0.0,64.0
780,52.0,240.0,240.0,0.0,64.0
781,74.0,120.0,120.0,0.0,64.0
782,78.0,0.0,240.0,0.0,64.0
783,81.0,0.0,120.0,0.0,64.0
784,72.0,0.0,120.0,0.0,64.0
785,76.0,0.0,240.0,0.0,64.0
786,48.0,0.0,240.0,0.0,64.0
787,79.0,0.0,120.0,0.0,64.0
788,50.0,0.0,240.0,0.0,64.0
789,71.0,0.0,15.0,0.0,64.0
790,79.0,120.0,120.0,0.0,64.0
791,74.0,0.0,240.0,0.0,64.0
792,69.0,0.0,120.0,0.0,64.0
793,78.0,0.0,120.0,0.0,64.0
794,81.0,0.0,120.0,0.0,64.0
795,66.0,0.0,120.0,0.0,64.0
796,86.0,0.0,120.0,0.0,64.0
797,87.0,240.0,240.0,0.0,64.0
798,82.0,0.0,240.0,0.0,64.0
799,74.0,120.0,15.0,0.0,64.0
800,66.0,120.0,120.0,0.0,64.0
801,75.0,0.0,120.0,0.0,64.0
802,67.0,0.0,120.0,0.0,64.0
803,55.0,0.0,120.0,0.0,64.0
804,75.0,0.0,120.0,0.0,64.0
805,82.0,0.0,120.0,0.0,64.0
806,87.0,0.0,120.0,0.0,64.0
807,75.0,0.0,120.0,0.0,64.0
808,87.0,0.0,240.0,0.0,64.0
809,55.0,120.0,120.0,0.0,64.0
810,81.0,120.0,240.0,0.0,64.0
811,54.0,0.0,120.0,0.0,64.0
812,74.0,0.0,15.0,0.0,64.0
813,76.0,120.0,120.0,0.0,64.0
814,85.0,0.0,120.0,0.0,64.0
815,64.0,0.0,15.0,0.0,64.0
816,86.0,0.0,240.0,0.0,64.0
817,81.0,0.0,15.0,0.0,64.0
818,73.0,0.0,15.0,0.0,64.0
819,74.0,0.0,120.0,0.0,64.0
820,65.0,0.0,120.0,0.0,64.0
821,80.0,120.0,15.0,0.0,64.0
822,86.0,0.0,120.0,0.0,64.0
823,80.0,120.0,15.0,0.0,64.0
824,74.0,0.0,120.0,0.0,64.0
825,53.0,0.0,120.0,0.0,64.0
826,79.0,0.0,15.0,0.0,64.0
827,79.0,0.0,240.0,0.0,64.0
828,53.0,120.0,120.0,0.0,64.0
829,86.0,0.0,240.0,0.0,64.0
830,74.0,0.0,120.0,0.0,64.0
831,52.0,0.0,120.0,0.0,64.0
832,72.0,120.0,15.0,0.0,64.0
833,71.0,120.0,120.0,0.0,64.0
834,74.0,0.0,120.0,0.0,64.0
835,83.0,0.0,120.0,0.0,64.0
836,62.0,0.0,15.0,0.0,64.0
837,84.0,0.0,240.0,0.0,64.0
838,79.0,0.0,15.0,0.0,64.0
839,71.0,120.0,120.0,0.0,64.0
840,72.0,0.0,120.0,0.0,64.0
841,78.0,0.0,120.0,0.0,64.0
842,63.0,0.0,120.0,0.0,64.0
843,78.0,120.0,120.0,0.0,64.0
844,51.0,0.0,120.0,0.0,64.0
845,79.0,0.0,120.0,0.0,64.0
846,72.0,0.0,120.0,0.0,64.0
847,81.0,120.0,120.0,0.0,64.0
848,51.0,0.0,120.0,0.0,64.0
849,78.0,0.0,240.0,0.0,64.0
850,72.0,0.0,240.0,0.0,64.0
851,50.0,0.0,120.0,0.0,64.0
852,74.0,0.0,120.0,0.0,64.0
853,70.0,0.0,120.0,0.0,64.0
854,49.0,0.0,15.0,0.0,64.0
855,76.0,120.0,15.0,0.0,64.0
856,79.0,0.0,15.0,0.0,64.0
857,69.0,0.0,240.0,0.0,64.0
858,50.0,0.0,120.0,0.0,64.0
859,74.0,120.0,120.0,0.0,64.0
860,72.0,0.0,120.0,0.0,64.0
861,69.0,0.0,120.0,0.0,64.0
862,78.0,0.0,120.0,0.0,64.0
863,74.0,240.0,120.0,0.0,64.0
864,50.0,0.0,120.0,0.0,64.0
865,43.0,0.0,480.0,0.0,64.0
866,71.0,0.0,240.0,0.0,64.0
867,79.0,240.0,240.0,0.0,64.0
868,83.0,240.0,240.0,0.0,64.0
869,74.0,0.0,240.0,0.0,64.0
870,76.0,0.0,240.0,0.0,64.0
871,84.0,480.0,240.0,0.0,64.0
872,86.0,120.0,480.0,0.0,64.0
873,71.0,0.0,240.0,0.0,64.0
874,55.0,0.0,480.0,0.0,64.0
875,77.0,0.0,240.0,0.0,64.0
876,74.0,0.0,240.0,0.0,64.0
877,72.0,0.0,240.0,0.0,64.0
878,67.0,0.0,15.0,0.0,64.0
879,76.0,0.0,120.0,0.0,64.0
880,84.0,120.0,120.0,0.0,64.0
881,74.0,0.0,120.0,0.0,64.0
882,77.0,120.0,120.0,0.0,64.0
883,74.0,0.0,120.0,0.0,64.0
884,77.0,120.0,120.0,0.0,64.0
885,72.0,0.0,120.0,0.0,64.0
886,76.0,237.0,120.0,0.0,64.0
887,67.0,0.0,240.0,0.0,64.0
888,74.0,0.0,240.0,0.0,64.0
889,55.0,0.0,240.0,0.0,64.0
890,79.0,0.0,120.0,0.0,64.0
891,71.0,3.0,15.0,0.0,64.0
892,43.0,0.0,480.0,0.0,64.0
893,72.0,2.0,480.0,0.0,64.0
894,66.0,0.0,480.0,0.0,64.0
895,79.0,113.0,120.0,0.0,64.0
896,69.0,7.0,120.0,0.0,64.0
897,78.0,233.0,15.0,0.0,64.0
898,69.0,0.0,240.0,0.0,64.0
899,79.0,7.0,240.0,0.0,64.0
900,71.0,473.0,240.0,0.0,64.0
901,81.0,5.0,480.0,0.0,64.0
902,55.0,0.0,480.0,0.0,64.0
903,62.0,0.0,240.0,0.0,64.0
904,69.0,0.0,240.0,0.0,64.0
905,72.0,2.0,240.0,0.0,64.0
906,79.0,7.0,120.0,0.0,64.0
907,62.0,0.0,240.0,0.0,64.0
908,67.0,2.0,240.0,0.0,64.0
909,71.0,113.0,120.0,0.0,64.0
910,76.0,113.0,120.0,0.0,64.0
911,72.0,5.0,15.0,0.0,64.0
912,76.0,113.0,120.0,0.0,64.0
913,71.0,7.0,120.0,0.0,64.0
914,74.0,233.0,120.0,0.0,64.0
915,62.0,0.0,240.0,0.0,64.0
916,55.0,0.0,240.0,0.0,64.0
917,60.0,2.0,240.0,0.0,64.0
918,66.0,5.0,120.0,0.0,64.0
919,66.0,0.0,15.0,0.0,64.0
920,43.0,0.0,480.0,0.0,64.0
921,59.0,0.0,480.0,0.0,64.0
922,62.0,0.0,480.0,0.0,64.0
923,72.0,113.0,15.0,0.0,64.0
924,67.0,7.0,120.0,0.0,64.0
925,71.0,238.0,120.0,0.0,64.0
