,note,step,duration,channel,velocity
0,81.0,30.0,90.0,1.0,0.0
1,73.0,0.0,40.0,2.0,0.0
2,69.0,0.0,40.0,3.0,0.0
3,64.0,0.0,40.0,4.0,0.0
4,57.0,0.0,40.0,5.0,0.0
5,45.0,27.0,40.0,6.0,0.0
6,45.0,0.0,20.0,5.0,0.0
7,33.0,15.0,20.0,6.0,0.0
8,74.0,0.0,40.0,2.0,0.0
9,62.0,0.0,40.0,3.0,0.0
10,71.0,0.0,40.0,4.0,0.0
11,47.0,0.0,40.0,5.0,0.0
12,35.0,3.0,40.0,6.0,0.0
13,80.0,24.0,20.0,1.0,0.0
14,78.0,0.0,20.0,1.0,0.0
15,59.0,0.0,20.0,5.0,0.0
16,47.0,45.0,20.0,6.0,0.0
17,76.0,30.0,90.0,1.0,0.0
18,76.0,0.0,40.0,2.0,0.0
19,69.0,0.0,40.0,3.0,0.0
20,64.0,0.0,40.0,4.0,0.0
21,61.0,0.0,40.0,5.0,0.0
22,49.0,27.0,40.0,6.0,0.0
23,49.0,0.0,20.0,5.0,0.0
24,37.0,15.0,20.0,6.0,0.0
25,78.0,0.0,40.0,2.0,0.0
26,66.0,0.0,40.0,3.0,0.0
27,57.0,0.0,40.0,4.0,0.0
28,50.0,0.0,40.0,5.0,0.0
29,38.0,3.0,40.0,6.0,0.0
30,74.0,24.0,20.0,1.0,0.0
31,73.0,0.0,20.0,1.0,0.0
32,62.0,0.0,20.0,5.0,0.0
33,50.0,24.0,20.0,6.0,0.0
34,71.0,18.0,20.0,1.0,0.0
35,80.0,3.0,20.0,2.0,0.0
36,71.0,0.0,40.0,3.0,0.0
37,64.0,0.0,40.0,4.0,0.0
38,62.0,0.0,40.0,5.0,0.0
39,50.0,3.0,40.0,6.0,0.0
40,68.0,0.0,20.0,1.0,0.0
41,76.0,24.0,20.0,2.0,0.0
42,69.0,0.0,20.0,1.0,0.0
43,81.0,24.0,40.0,2.0,0.0
44,76.0,0.0,20.0,3.0,0.0
45,64.0,0.0,20.0,4.0,0.0
46,61.0,0.0,20.0,5.0,0.0
47,49.0,21.0,20.0,6.0,0.0
48,74.0,30.0,90.0,1.0,0.0
49,78.0,0.0,40.0,3.0,0.0
50,71.0,0.0,40.0,4.0,0.0
51,59.0,0.0,40.0,5.0,0.0
52,47.0,3.0,40.0,6.0,0.0
53,78.0,24.0,20.0,2.0,0.0
54,80.0,0.0,20.0,2.0,0.0
55,76.0,0.0,20.0,3.0,0.0
56,71.0,0.0,20.0,4.0,0.0
57,64.0,0.0,20.0,5.0,0.0
58,52.0,15.0,20.0,6.0,0.0
59,81.0,0.0,40.0,2.0,0.0
60,76.0,0.0,40.0,3.0,0.0
61,69.0,0.0,40.0,4.0,0.0
62,57.0,0.0,40.0,5.0,0.0
63,45.0,3.0,40.0,6.0,0.0
64,73.0,24.0,20.0,1.0,0.0
65,76.0,0.0,20.0,1.0,0.0
66,76.0,0.0,20.0,2.0,0.0
67,73.0,0.0,20.0,3.0,0.0
68,69.0,0.0,20.0,4.0,0.0
69,61.0,0.0,20.0,5.0,0.0
70,49.0,24.0,20.0,6.0,0.0
71,81.0,15.0,20.0,1.0,0.0
72,76.0,0.0,40.0,2.0,0.0
73,73.0,0.0,40.0,3.0,0.0
74,69.0,0.0,40.0,4.0,0.0
75,54.0,0.0,40.0,5.0,0.0
76,42.0,6.0,40.0,6.0,0.0
77,83.0,6.0,15.0,1.0,0.0
78,81.0,12.0,15.0,1.0,0.0
79,80.0,9.0,15.0,1.0,0.0
80,75.0,0.0,20.0,2.0,0.0
81,71.0,0.0,20.0,3.0,0.0
82,71.0,0.0,20.0,4.0,0.0
83,59.0,0.0,20.0,5.0,0.0
84,47.0,1.0,20.0,6.0,0.0
85,78.0,14.0,15.0,1.0,0.0
86,88.0,0.0,90.0,0.0,0.0
87,80.0,12.0,15.0,1.0,0.0
88,76.0,0.0,40.0,2.0,0.0
89,71.0,0.0,40.0,3.0,0.0
90,68.0,0.0,40.0,4.0,0.0
91,52.0,0.0,40.0,5.0,0.0
92,40.0,4.0,40.0,6.0,0.0
93,78.0,10.0,15.0,1.0,0.0
94,80.0,8.0,15.0,1.0,0.0
95,76.0,12.0,15.0,1.0,0.0
96,71.0,11.0,15.0,1.0,0.0
97,40.0,0.0,20.0,5.0,0.0
98,28.0,1.0,20.0,6.0,0.0
99,76.0,14.0,15.0,1.0,0.0
100,81.0,12.0,15.0,1.0,0.0
101,81.0,0.0,40.0,2.0,0.0
102,69.0,0.0,40.0,3.0,0.0
103,66.0,0.0,40.0,4.0,0.0
104,42.0,0.0,40.0,5.0,0.0
105,30.0,3.0,40.0,6.0,0.0
106,80.0,10.0,15.0,1.0,0.0
107,87.0,1.0,20.0,0.0,0.0
108,81.0,8.0,15.0,1.0,0.0
109,78.0,12.0,15.0,1.0,0.0
110,85.0,0.0,20.0,0.0,0.0
111,75.0,11.0,15.0,1.0,0.0
112,54.0,0.0,20.0,5.0,0.0
113,42.0,1.0,20.0,6.0,0.0
114,78.0,14.0,15.0,1.0,0.0
115,83.0,0.0,90.0,0.0,0.0
116,83.0,12.0,15.0,1.0,0.0
117,80.0,0.0,40.0,2.0,0.0
118,76.0,0.0,40.0,3.0,0.0
119,59.0,0.0,40.0,4.0,0.0
120,56.0,0.0,40.0,5.0,0.0
121,44.0,4.0,40.0,6.0,0.0
122,81.0,10.0,15.0,1.0,0.0
123,83.0,8.0,15.0,1.0,0.0
124,80.0,12.0,15.0,1.0,0.0
125,76.0,11.0,15.0,1.0,0.0
126,44.0,0.0,20.0,5.0,0.0
127,32.0,1.0,20.0,6.0,0.0
128,80.0,14.0,15.0,1.0,0.0
129,85.0,12.0,15.0,1.0,0.0
130,76.0,0.0,40.0,2.0,0.0
131,73.0,0.0,40.0,3.0,0.0
132,64.0,0.0,40.0,4.0,0.0
133,45.0,0.0,40.0,5.0,0.0
134,33.0,3.0,40.0,6.0,0.0
135,83.0,10.0,15.0,1.0,0.0
136,81.0,1.0,20.0,0.0,0.0
137,85.0,8.0,15.0,1.0,0.0
138,81.0,12.0,15.0,1.0,0.0
139,80.0,0.0,20.0,0.0,0.0
140,83.0,11.0,15.0,1.0,0.0
141,57.0,0.0,20.0,5.0,0.0
142,45.0,1.0,20.0,6.0,0.0
143,85.0,23.0,15.0,1.0,0.0
144,78.0,18.0,20.0,0.0,0.0
145,75.0,3.0,20.0,1.0,0.0
146,83.0,0.0,40.0,2.0,0.0
147,78.0,0.0,40.0,3.0,0.0
148,59.0,0.0,40.0,4.0,0.0
149,57.0,0.0,40.0,5.0,0.0
150,45.0,3.0,40.0,6.0,0.0
151,75.0,0.0,20.0,0.0,0.0
152,83.0,24.0,20.0,1.0,0.0
153,76.0,0.0,20.0,0.0,0.0
154,76.0,24.0,40.0,1.0,0.0
155,83.0,0.0,20.0,2.0,0.0
156,80.0,0.0,20.0,3.0,0.0
157,59.0,0.0,20.0,4.0,0.0
158,56.0,0.0,20.0,5.0,0.0
159,44.0,21.0,20.0,6.0,0.0
160,81.0,0.0,90.0,0.0,0.0
161,81.0,0.0,40.0,2.0,0.0
162,73.0,0.0,40.0,3.0,0.0
163,66.0,0.0,40.0,4.0,0.0
164,54.0,0.0,40.0,5.0,0.0
165,42.0,3.0,40.0,6.0,0.0
166,73.0,6.0,20.0,1.0,0.0
167,75.0,3.0,15.0,1.0,0.0
168,78.0,0.0,20.0,2.0,0.0
169,71.0,0.0,20.0,3.0,0.0
170,63.0,0.0,20.0,4.0,0.0
171,59.0,0.0,20.0,5.0,0.0
172,47.0,1.0,20.0,6.0,0.0
173,76.0,3.0,15.0,1.0,0.0
174,75.0,3.0,15.0,1.0,0.0
175,76.0,3.0,15.0,1.0,0.0
176,75.0,3.0,15.0,1.0,0.0
177,76.0,2.0,15.0,1.0,0.0
178,75.0,1.0,15.0,1.0,0.0
179,76.0,2.0,15.0,1.0,0.0
180,75.0,12.0,15.0,1.0,0.0
181,76.0,12.0,15.0,1.0,0.0
182,76.0,0.0,40.0,2.0,0.0
183,71.0,0.0,40.0,3.0,0.0
184,59.0,0.0,40.0,4.0,0.0
185,52.0,0.0,40.0,5.0,0.0
186,40.0,3.0,40.0,6.0,0.0
187,75.0,10.0,15.0,1.0,0.0
188,80.0,1.0,20.0,0.0,0.0
189,76.0,8.0,15.0,1.0,0.0
190,71.0,12.0,15.0,1.0,0.0
191,83.0,0.0,20.0,0.0,0.0
192,68.0,11.0,15.0,1.0,0.0
193,50.0,0.0,20.0,5.0,0.0
194,38.0,1.0,20.0,6.0,0.0
195,71.0,14.0,15.0,1.0,0.0
196,88.0,0.0,40.0,0.0,0.0
197,69.0,12.0,15.0,1.0,0.0
198,49.0,0.0,40.0,5.0,0.0
199,37.0,6.0,40.0,6.0,0.0
200,71.0,12.0,15.0,1.0,0.0
201,73.0,6.0,15.0,1.0,0.0
202,74.0,10.0,15.0,1.0,0.0
203,79.0,0.0,40.0,0.0,0.0
204,76.0,11.0,15.0,1.0,0.0
205,76.0,6.0,40.0,2.0,0.0
206,69.0,0.0,20.0,3.0,0.0
207,61.0,0.0,20.0,4.0,0.0
208,45.0,0.0,20.0,5.0,0.0
209,33.0,1.0,20.0,6.0,0.0
210,73.0,14.0,15.0,1.0,0.0
211,69.0,6.0,15.0,1.0,0.0
212,69.0,0.0,40.0,3.0,0.0
213,62.0,0.0,40.0,4.0,0.0
214,50.0,0.0,40.0,5.0,0.0
215,38.0,3.0,40.0,6.0,0.0
216,67.0,10.0,15.0,1.0,0.0
217,78.0,0.0,20.0,0.0,0.0
218,69.0,8.0,15.0,1.0,0.0
219,74.0,1.0,20.0,2.0,0.0
220,74.0,12.0,15.0,1.0,0.0
221,81.0,0.0,20.0,0.0,0.0
222,66.0,11.0,15.0,1.0,0.0
223,49.0,0.0,20.0,5.0,0.0
224,37.0,1.0,20.0,6.0,0.0
225,69.0,14.0,15.0,1.0,0.0
226,86.0,0.0,40.0,0.0,0.0
227,68.0,12.0,15.0,1.0,0.0
228,47.0,0.0,40.0,5.0,0.0
229,35.0,6.0,40.0,6.0,0.0
230,69.0,12.0,15.0,1.0,0.0
231,71.0,6.0,15.0,1.0,0.0
232,73.0,10.0,15.0,1.0,0.0
233,78.0,0.0,40.0,0.0,0.0
234,74.0,11.0,15.0,1.0,0.0
235,74.0,6.0,40.0,2.0,0.0
236,68.0,0.0,20.0,3.0,0.0
237,59.0,0.0,20.0,4.0,0.0
238,44.0,0.0,20.0,5.0,0.0
239,32.0,1.0,20.0,6.0,0.0
240,71.0,14.0,15.0,1.0,0.0
241,68.0,6.0,15.0,1.0,0.0
242,68.0,0.0,40.0,3.0,0.0
243,61.0,0.0,40.0,4.0,0.0
244,49.0,0.0,40.0,5.0,0.0
245,37.0,3.0,40.0,6.0,0.0
246,66.0,10.0,15.0,1.0,0.0
247,76.0,0.0,20.0,0.0,0.0
248,68.0,8.0,15.0,1.0,0.0
249,73.0,1.0,20.0,2.0,0.0
250,73.0,12.0,15.0,1.0,0.0
251,80.0,0.0,20.0,0.0,0.0
252,64.0,11.0,15.0,1.0,0.0
253,47.0,0.0,20.0,5.0,0.0
254,35.0,1.0,20.0,6.0,0.0
255,68.0,14.0,15.0,1.0,0.0
256,85.0,0.0,40.0,0.0,0.0
257,66.0,12.0,15.0,1.0,0.0
258,45.0,0.0,40.0,5.0,0.0
259,33.0,6.0,40.0,6.0,0.0
260,68.0,12.0,15.0,1.0,0.0
261,69.0,6.0,15.0,1.0,0.0
262,71.0,10.0,15.0,1.0,0.0
263,76.0,0.0,40.0,0.0,0.0
264,73.0,11.0,15.0,1.0,0.0
265,73.0,6.0,40.0,2.0,0.0
266,66.0,0.0,20.0,3.0,0.0
267,57.0,0.0,20.0,4.0,0.0
268,42.0,0.0,20.0,5.0,0.0
269,30.0,1.0,20.0,6.0,0.0
270,69.0,14.0,15.0,1.0,0.0
271,66.0,6.0,15.0,1.0,0.0
272,66.0,0.0,40.0,3.0,0.0
273,59.0,0.0,40.0,4.0,0.0
274,47.0,0.0,40.0,5.0,0.0
275,35.0,3.0,40.0,6.0,0.0
276,64.0,10.0,15.0,1.0,0.0
277,74.0,0.0,20.0,0.0,0.0
278,66.0,8.0,15.0,1.0,0.0
279,71.0,1.0,20.0,2.0,0.0
280,71.0,12.0,15.0,1.0,0.0
281,78.0,0.0,20.0,0.0,0.0
282,62.0,11.0,15.0,1.0,0.0
283,45.0,0.0,20.0,5.0,0.0
284,33.0,1.0,20.0,6.0,0.0
285,66.0,14.0,15.0,1.0,0.0
286,83.0,0.0,40.0,0.0,0.0
287,64.0,12.0,15.0,1.0,0.0
288,44.0,0.0,40.0,5.0,0.0
289,32.0,6.0,40.0,6.0,0.0
290,66.0,12.0,15.0,1.0,0.0
291,68.0,6.0,15.0,1.0,0.0
292,69.0,10.0,15.0,1.0,0.0
293,74.0,0.0,40.0,0.0,0.0
294,71.0,11.0,15.0,1.0,0.0
295,76.0,24.0,40.0,2.0,0.0
296,68.0,0.0,20.0,3.0,0.0
297,71.0,0.0,20.0,4.0,0.0
298,40.0,0.0,20.0,5.0,0.0
299,28.0,1.0,20.0,6.0,0.0
300,68.0,20.0,15.0,1.0,0.0
301,69.0,0.0,40.0,1.0,0.0
302,64.0,0.0,40.0,3.0,0.0
303,69.0,0.0,40.0,4.0,0.0
304,45.0,0.0,40.0,5.0,0.0
305,33.0,3.0,40.0,6.0,0.0
306,73.0,0.0,20.0,0.0,0.0
307,81.0,24.0,20.0,2.0,0.0
308,78.0,0.0,20.0,0.0,0.0
309,78.0,0.0,20.0,2.0,0.0
310,62.0,0.0,20.0,3.0,0.0
311,69.0,0.0,20.0,4.0,0.0
312,50.0,0.0,20.0,5.0,0.0
313,38.0,24.0,20.0,6.0,0.0
314,83.0,15.0,20.0,0.0,0.0
315,78.0,0.0,40.0,2.0,0.0
316,74.0,0.0,40.0,3.0,0.0
317,71.0,0.0,40.0,4.0,0.0
318,44.0,0.0,40.0,5.0,0.0
319,32.0,6.0,40.0,6.0,0.0
320,85.0,6.0,15.0,0.0,0.0
321,83.0,12.0,15.0,0.0,0.0
322,81.0,9.0,15.0,0.0,0.0
323,77.0,0.0,20.0,2.0,0.0
324,73.0,0.0,20.0,3.0,0.0
325,73.0,0.0,20.0,4.0,0.0
326,49.0,0.0,20.0,5.0,0.0
327,37.0,1.0,20.0,6.0,0.0
328,80.0,14.0,15.0,0.0,0.0
329,81.0,12.0,15.0,0.0,0.0
330,78.0,12.0,90.0,1.0,0.0
331,78.0,0.0,40.0,2.0,0.0
332,73.0,0.0,40.0,3.0,0.0
333,69.0,0.0,40.0,4.0,0.0
334,54.0,0.0,40.0,5.0,0.0
335,42.0,4.0,40.0,6.0,0.0
336,80.0,10.0,15.0,0.0,0.0
337,81.0,8.0,15.0,0.0,0.0
338,78.0,12.0,15.0,0.0,0.0
339,73.0,11.0,15.0,0.0,0.0
340,42.0,0.0,20.0,5.0,0.0
341,30.0,1.0,20.0,6.0,0.0
342,78.0,14.0,15.0,0.0,0.0
343,83.0,0.0,15.0,0.0,0.0
344,83.0,0.0,40.0,2.0,0.0
345,71.0,0.0,40.0,3.0,0.0
346,68.0,0.0,40.0,4.0,0.0
347,44.0,0.0,40.0,5.0,0.0
348,32.0,3.0,40.0,6.0,0.0
349,81.0,10.0,15.0,0.0,0.0
350,83.0,8.0,15.0,0.0,0.0
351,76.0,1.0,20.0,1.0,0.0
352,80.0,12.0,15.0,0.0,0.0
353,76.0,11.0,15.0,0.0,0.0
354,74.0,0.0,20.0,1.0,0.0
355,56.0,0.0,20.0,5.0,0.0
356,44.0,1.0,20.0,6.0,0.0
357,80.0,14.0,15.0,0.0,0.0
358,85.0,12.0,15.0,0.0,0.0
359,73.0,12.0,90.0,1.0,0.0
360,76.0,0.0,40.0,2.0,0.0
361,69.0,0.0,40.0,3.0,0.0
362,61.0,0.0,40.0,4.0,0.0
363,57.0,0.0,40.0,5.0,0.0
364,45.0,4.0,40.0,6.0,0.0
365,83.0,10.0,15.0,0.0,0.0
366,85.0,8.0,15.0,0.0,0.0
367,81.0,12.0,15.0,0.0,0.0
368,78.0,11.0,15.0,0.0,0.0
369,45.0,0.0,20.0,5.0,0.0
370,33.0,1.0,20.0,6.0,0.0
371,81.0,14.0,15.0,0.0,0.0
372,86.0,0.0,15.0,0.0,0.0
373,74.0,0.0,40.0,2.0,0.0
374,69.0,0.0,40.0,3.0,0.0
375,66.0,0.0,40.0,4.0,0.0
376,47.0,0.0,40.0,5.0,0.0
377,35.0,3.0,40.0,6.0,0.0
378,85.0,10.0,15.0,0.0,0.0
379,86.0,8.0,15.0,0.0,0.0
380,71.0,1.0,20.0,1.0,0.0
381,83.0,12.0,15.0,0.0,0.0
382,85.0,11.0,15.0,0.0,0.0
383,69.0,0.0,20.0,1.0,0.0
384,59.0,0.0,20.0,5.0,0.0
385,47.0,1.0,20.0,6.0,0.0
386,86.0,23.0,15.0,0.0,0.0
387,77.0,3.0,20.0,0.0,0.0
388,68.0,18.0,20.0,1.0,0.0
389,73.0,0.0,40.0,2.0,0.0
390,68.0,0.0,40.0,3.0,0.0
391,68.0,0.0,40.0,4.0,0.0
392,59.0,0.0,40.0,5.0,0.0
393,47.0,3.0,40.0,6.0,0.0
394,85.0,0.0,20.0,0.0,0.0
395,65.0,24.0,20.0,1.0,0.0
396,78.0,24.0,40.0,0.0,0.0
397,66.0,0.0,20.0,1.0,0.0
398,85.0,0.0,20.0,2.0,0.0
399,61.0,0.0,20.0,3.0,0.0
400,69.0,0.0,20.0,4.0,0.0
401,57.0,0.0,20.0,5.0,0.0
402,45.0,21.0,20.0,6.0,0.0
403,71.0,23.0,60.0,1.0,0.0
404,83.0,0.0,40.0,2.0,0.0
405,68.0,0.0,40.0,3.0,0.0
406,74.0,0.0,40.0,4.0,0.0
407,56.0,0.0,40.0,5.0,0.0
408,44.0,3.0,40.0,6.0,0.0
409,75.0,24.0,20.0,0.0,0.0
410,77.0,0.0,20.0,0.0,0.0
411,80.0,0.0,20.0,2.0,0.0
412,65.0,0.0,20.0,3.0,0.0
413,73.0,0.0,20.0,4.0,0.0
414,61.0,0.0,20.0,5.0,0.0
415,49.0,4.0,20.0,6.0,0.0
416,78.0,0.0,40.0,0.0,0.0
417,78.0,0.0,40.0,2.0,0.0
418,61.0,0.0,40.0,3.0,0.0
419,73.0,0.0,40.0,4.0,0.0
420,54.0,0.0,40.0,5.0,0.0
421,42.0,6.0,40.0,6.0,0.0
422,68.0,12.0,15.0,1.0,0.0
423,70.0,6.0,15.0,1.0,0.0
424,71.0,12.0,15.0,1.0,0.0
425,73.0,9.0,15.0,1.0,0.0
426,66.0,0.0,20.0,5.0,0.0
427,54.0,1.0,20.0,6.0,0.0
428,74.0,12.0,15.0,1.0,0.0
429,76.0,14.0,15.0,1.0,0.0
430,58.0,0.0,40.0,5.0,0.0
431,46.0,6.0,40.0,6.0,0.0
432,79.0,12.0,15.0,1.0,0.0
433,73.0,20.0,60.0,0.0,0.0
434,78.0,6.0,15.0,1.0,0.0
435,76.0,12.0,15.0,1.0,0.0
436,74.0,9.0,15.0,1.0,0.0
437,76.0,0.0,20.0,2.0,0.0
438,70.0,0.0,20.0,3.0,0.0
439,66.0,0.0,20.0,4.0,0.0
440,54.0,0.0,20.0,5.0,0.0
441,42.0,1.0,20.0,6.0,0.0
442,73.0,6.0,15.0,1.0,0.0
443,74.0,0.0,40.0,1.0,0.0
444,74.0,0.0,40.0,2.0,0.0
445,66.0,0.0,40.0,3.0,0.0
446,66.0,0.0,40.0,4.0,0.0
447,59.0,0.0,40.0,5.0,0.0
448,47.0,6.0,40.0,6.0,0.0
449,70.0,12.0,15.0,0.0,0.0
450,71.0,6.0,15.0,0.0,0.0
451,73.0,12.0,15.0,0.0,0.0
452,74.0,9.0,15.0,0.0,0.0
453,67.0,0.0,20.0,5.0,0.0
454,55.0,1.0,20.0,6.0,0.0
455,76.0,14.0,15.0,0.0,0.0
456,78.0,9.0,15.0,0.0,0.0
457,59.0,0.0,20.0,5.0,0.0
458,47.0,3.0,20.0,6.0,0.0
459,81.0,12.0,15.0,0.0,0.0
460,79.0,12.0,15.0,0.0,0.0
461,74.0,20.0,60.0,1.0,0.0
462,78.0,12.0,15.0,0.0,0.0
463,76.0,9.0,15.0,0.0,0.0
464,71.0,0.0,20.0,2.0,0.0
465,67.0,0.0,20.0,3.0,0.0
466,64.0,0.0,20.0,4.0,0.0
467,55.0,0.0,20.0,5.0,0.0
468,43.0,1.0,20.0,6.0,0.0
469,74.0,6.0,15.0,0.0,0.0
470,76.0,6.0,60.0,0.0,0.0
471,69.0,0.0,40.0,2.0,0.0
472,67.0,0.0,40.0,3.0,0.0
473,64.0,0.0,40.0,4.0,0.0
474,61.0,0.0,40.0,5.0,0.0
475,49.0,6.0,40.0,6.0,0.0
476,71.0,12.0,15.0,1.0,0.0
477,73.0,6.0,15.0,1.0,0.0
478,74.0,12.0,15.0,1.0,0.0
479,76.0,3.0,15.0,1.0,0.0
480,69.0,0.0,20.0,5.0,0.0
481,57.0,1.0,20.0,6.0,0.0
482,78.0,12.0,15.0,1.0,0.0
483,79.0,14.0,15.0,1.0,0.0
484,61.0,0.0,40.0,5.0,0.0
485,49.0,6.0,40.0,6.0,0.0
486,83.0,12.0,15.0,1.0,0.0
487,81.0,6.0,15.0,1.0,0.0
488,79.0,12.0,15.0,1.0,0.0
489,78.0,9.0,15.0,1.0,0.0
490,73.0,0.0,20.0,2.0,0.0
491,67.0,0.0,20.0,3.0,0.0
492,69.0,0.0,20.0,4.0,0.0
493,57.0,0.0,20.0,5.0,0.0
494,45.0,1.0,20.0,6.0,0.0
495,76.0,14.0,15.0,1.0,0.0
496,86.0,0.0,90.0,0.0,0.0
497,78.0,12.0,15.0,1.0,0.0
498,74.0,0.0,40.0,2.0,0.0
499,66.0,0.0,40.0,3.0,0.0
500,69.0,0.0,40.0,4.0,0.0
501,62.0,0.0,40.0,5.0,0.0
502,50.0,4.0,40.0,6.0,0.0
503,76.0,10.0,15.0,1.0,0.0
504,78.0,8.0,15.0,1.0,0.0
505,74.0,12.0,15.0,1.0,0.0
506,69.0,11.0,15.0,1.0,0.0
507,50.0,0.0,20.0,5.0,0.0
508,38.0,1.0,20.0,6.0,0.0
509,74.0,14.0,15.0,1.0,0.0
510,79.0,12.0,15.0,1.0,0.0
511,79.0,0.0,40.0,2.0,0.0
512,64.0,0.0,40.0,3.0,0.0
513,67.0,0.0,40.0,4.0,0.0
514,52.0,0.0,40.0,5.0,0.0
515,40.0,3.0,40.0,6.0,0.0
516,78.0,10.0,15.0,1.0,0.0
517,85.0,1.0,20.0,0.0,0.0
518,79.0,8.0,15.0,1.0,0.0
519,76.0,12.0,15.0,1.0,0.0
520,83.0,0.0,20.0,0.0,0.0
521,73.0,11.0,15.0,1.0,0.0
522,64.0,0.0,20.0,5.0,0.0
523,52.0,1.0,20.0,6.0,0.0
524,76.0,14.0,15.0,1.0,0.0
525,81.0,0.0,90.0,0.0,0.0
526,81.0,12.0,15.0,1.0,0.0
527,78.0,0.0,40.0,2.0,0.0
528,69.0,0.0,40.0,3.0,0.0
529,62.0,0.0,40.0,4.0,0.0
530,66.0,0.0,40.0,5.0,0.0
531,54.0,4.0,40.0,6.0,0.0
532,79.0,10.0,15.0,1.0,0.0
533,81.0,8.0,15.0,1.0,0.0
534,78.0,12.0,15.0,1.0,0.0
535,74.0,11.0,15.0,1.0,0.0
536,54.0,0.0,20.0,5.0,0.0
537,42.0,1.0,20.0,6.0,0.0
538,78.0,14.0,15.0,1.0,0.0
539,83.0,12.0,15.0,1.0,0.0
540,83.0,0.0,40.0,2.0,0.0
541,74.0,0.0,40.0,3.0,0.0
542,59.0,0.0,40.0,4.0,0.0
543,55.0,0.0,40.0,5.0,0.0
544,43.0,3.0,40.0,6.0,0.0
545,81.0,10.0,15.0,1.0,0.0
546,79.0,1.0,20.0,0.0,0.0
547,83.0,8.0,15.0,1.0,0.0
548,79.0,12.0,15.0,1.0,0.0
549,78.0,0.0,20.0,0.0,0.0
550,81.0,11.0,15.0,1.0,0.0
551,67.0,0.0,20.0,5.0,0.0
552,55.0,1.0,20.0,6.0,0.0
553,83.0,23.0,15.0,1.0,0.0
554,76.0,18.0,20.0,0.0,0.0
555,73.0,3.0,20.0,1.0,0.0
556,81.0,0.0,40.0,2.0,0.0
557,76.0,0.0,40.0,3.0,0.0
558,64.0,0.0,40.0,4.0,0.0
559,67.0,0.0,40.0,5.0,0.0
560,55.0,3.0,40.0,6.0,0.0
561,73.0,0.0,20.0,0.0,0.0
562,81.0,24.0,20.0,1.0,0.0
563,74.0,0.0,20.0,0.0,0.0
564,74.0,24.0,40.0,1.0,0.0
565,81.0,0.0,20.0,2.0,0.0
566,78.0,0.0,20.0,3.0,0.0
567,57.0,0.0,20.0,4.0,0.0
568,66.0,0.0,20.0,5.0,0.0
569,54.0,21.0,20.0,6.0,0.0
570,79.0,30.0,90.0,0.0,0.0
571,79.0,0.0,40.0,2.0,0.0
572,71.0,0.0,40.0,3.0,0.0
573,64.0,0.0,40.0,4.0,0.0
574,64.0,0.0,40.0,5.0,0.0
575,52.0,3.0,40.0,6.0,0.0
576,71.0,24.0,20.0,1.0,0.0
577,73.0,0.0,20.0,1.0,0.0
578,76.0,0.0,20.0,2.0,0.0
579,69.0,0.0,20.0,3.0,0.0
580,61.0,0.0,20.0,4.0,0.0
581,57.0,0.0,20.0,5.0,0.0
582,45.0,15.0,20.0,6.0,0.0
583,74.0,6.0,60.0,1.0,0.0
584,74.0,0.0,40.0,2.0,0.0
585,69.0,0.0,40.0,3.0,0.0
586,57.0,0.0,40.0,4.0,0.0
587,62.0,0.0,40.0,5.0,0.0
588,50.0,3.0,40.0,6.0,0.0
589,78.0,18.0,20.0,0.0,0.0
590,81.0,0.0,20.0,0.0,0.0
591,81.0,0.0,20.0,2.0,0.0
592,66.0,0.0,20.0,3.0,0.0
593,62.0,0.0,20.0,4.0,0.0
594,66.0,0.0,20.0,5.0,0.0
595,54.0,24.0,20.0,6.0,0.0
596,86.0,15.0,20.0,0.0,0.0
597,81.0,0.0,40.0,2.0,0.0
598,78.0,0.0,40.0,3.0,0.0
599,71.0,0.0,40.0,4.0,0.0
600,59.0,0.0,40.0,5.0,0.0
601,47.0,6.0,40.0,6.0,0.0
602,88.0,6.0,15.0,0.0,0.0
603,86.0,12.0,15.0,0.0,0.0
604,85.0,9.0,15.0,0.0,0.0
605,80.0,0.0,20.0,2.0,0.0
606,76.0,0.0,20.0,3.0,0.0
607,71.0,0.0,20.0,4.0,0.0
608,64.0,0.0,20.0,5.0,0.0
609,52.0,1.0,20.0,6.0,0.0
610,83.0,14.0,15.0,0.0,0.0
611,85.0,12.0,15.0,0.0,0.0
612,81.0,12.0,90.0,1.0,0.0
613,81.0,0.0,40.0,2.0,0.0
614,76.0,0.0,40.0,3.0,0.0
615,69.0,0.0,40.0,4.0,0.0
616,57.0,0.0,40.0,5.0,0.0
617,45.0,4.0,40.0,6.0,0.0
618,83.0,10.0,15.0,0.0,0.0
619,85.0,8.0,15.0,0.0,0.0
620,81.0,12.0,15.0,0.0,0.0
621,76.0,11.0,15.0,0.0,0.0
622,45.0,0.0,20.0,5.0,0.0
623,33.0,1.0,20.0,6.0,0.0
624,81.0,14.0,15.0,0.0,0.0
625,86.0,0.0,15.0,0.0,0.0
626,74.0,0.0,40.0,2.0,0.0
627,71.0,0.0,40.0,3.0,0.0
628,74.0,0.0,40.0,4.0,0.0
629,47.0,0.0,40.0,5.0,0.0
630,35.0,3.0,40.0,6.0,0.0
631,85.0,10.0,15.0,0.0,0.0
632,86.0,8.0,15.0,0.0,0.0
633,80.0,1.0,20.0,1.0,0.0
634,83.0,12.0,15.0,0.0,0.0
635,80.0,11.0,15.0,0.0,0.0
636,78.0,0.0,20.0,1.0,0.0
637,59.0,0.0,20.0,5.0,0.0
638,47.0,1.0,20.0,6.0,0.0
639,83.0,14.0,15.0,0.0,0.0
640,88.0,12.0,15.0,0.0,0.0
641,76.0,12.0,90.0,1.0,0.0
642,81.0,0.0,40.0,2.0,0.0
643,76.0,0.0,40.0,3.0,0.0
644,73.0,0.0,40.0,4.0,0.0
645,61.0,0.0,40.0,5.0,0.0
646,49.0,4.0,40.0,6.0,0.0
647,86.0,10.0,15.0,0.0,0.0
648,88.0,8.0,15.0,0.0,0.0
649,85.0,12.0,15.0,0.0,0.0
650,81.0,11.0,15.0,0.0,0.0
651,49.0,0.0,20.0,5.0,0.0
652,37.0,1.0,20.0,6.0,0.0
653,85.0,14.0,15.0,0.0,0.0
654,90.0,0.0,15.0,0.0,0.0
655,81.0,0.0,40.0,2.0,0.0
656,69.0,0.0,40.0,3.0,0.0
657,66.0,0.0,40.0,4.0,0.0
658,50.0,0.0,40.0,5.0,0.0
659,38.0,3.0,40.0,6.0,0.0
660,88.0,10.0,15.0,0.0,0.0
661,90.0,8.0,15.0,0.0,0.0
662,74.0,1.0,20.0,1.0,0.0
663,86.0,12.0,15.0,0.0,0.0
664,88.0,11.0,15.0,0.0,0.0
665,73.0,0.0,20.0,1.0,0.0
666,62.0,0.0,20.0,5.0,0.0
667,50.0,1.0,20.0,6.0,0.0
668,90.0,23.0,15.0,0.0,0.0
669,80.0,3.0,20.0,0.0,0.0
670,71.0,18.0,20.0,1.0,0.0
671,83.0,0.0,40.0,2.0,0.0
672,76.0,0.0,40.0,3.0,0.0
673,64.0,0.0,40.0,4.0,0.0
674,62.0,0.0,40.0,5.0,0.0
675,50.0,3.0,40.0,6.0,0.0
676,88.0,3.0,20.0,0.0,0.0
677,68.0,21.0,20.0,1.0,0.0
678,81.0,24.0,40.0,0.0,0.0
679,69.0,0.0,20.0,1.0,0.0
680,85.0,0.0,20.0,2.0,0.0
681,76.0,0.0,20.0,3.0,0.0
682,69.0,0.0,20.0,4.0,0.0
683,61.0,0.0,20.0,5.0,0.0
684,49.0,21.0,20.0,6.0,0.0
685,74.0,12.0,90.0,1.0,0.0
686,78.0,0.0,40.0,2.0,0.0
687,74.0,0.0,40.0,3.0,0.0
688,71.0,0.0,40.0,4.0,0.0
689,59.0,0.0,40.0,5.0,0.0
690,47.0,3.0,40.0,6.0,0.0
691,78.0,24.0,20.0,0.0,0.0
692,80.0,0.0,20.0,0.0,0.0
693,76.0,0.0,20.0,2.0,0.0
694,71.0,0.0,20.0,3.0,0.0
695,68.0,0.0,20.0,4.0,0.0
696,52.0,0.0,20.0,5.0,0.0
697,40.0,15.0,20.0,6.0,0.0
698,81.0,0.0,15.0,0.0,0.0
699,76.0,0.0,40.0,2.0,0.0
700,69.0,0.0,40.0,3.0,0.0
701,64.0,0.0,40.0,4.0,0.0
702,57.0,0.0,40.0,5.0,0.0
703,45.0,3.0,40.0,6.0,0.0
704,80.0,10.0,15.0,0.0,0.0
705,81.0,8.0,15.0,0.0,0.0
706,73.0,1.0,20.0,1.0,0.0
707,85.0,12.0,15.0,0.0,0.0
708,80.0,11.0,15.0,0.0,0.0
709,74.0,0.0,20.0,1.0,0.0
710,59.0,0.0,20.0,5.0,0.0
711,47.0,1.0,20.0,6.0,0.0
712,83.0,14.0,15.0,0.0,0.0
713,81.0,12.0,15.0,0.0,0.0
714,76.0,0.0,40.0,1.0,0.0
715,61.0,0.0,40.0,5.0,0.0
716,49.0,6.0,40.0,6.0,0.0
717,83.0,12.0,15.0,0.0,0.0
718,85.0,6.0,15.0,0.0,0.0
719,86.0,12.0,15.0,0.0,0.0
720,88.0,9.0,15.0,0.0,0.0
721,67.0,0.0,40.0,1.0,0.0
722,88.0,6.0,40.0,2.0,0.0
723,69.0,0.0,20.0,3.0,0.0
724,61.0,0.0,20.0,4.0,0.0
725,57.0,0.0,20.0,5.0,0.0
726,45.0,1.0,20.0,6.0,0.0
727,85.0,14.0,15.0,0.0,0.0
728,81.0,6.0,15.0,0.0,0.0
729,69.0,0.0,40.0,3.0,0.0
730,62.0,0.0,40.0,4.0,0.0
731,62.0,0.0,40.0,5.0,0.0
732,50.0,3.0,40.0,6.0,0.0
733,80.0,10.0,15.0,0.0,0.0
734,81.0,8.0,15.0,0.0,0.0
735,66.0,0.0,20.0,1.0,0.0
736,86.0,1.0,20.0,2.0,0.0
737,86.0,12.0,15.0,0.0,0.0
738,78.0,11.0,15.0,0.0,0.0
739,69.0,0.0,20.0,1.0,0.0
740,61.0,0.0,20.0,5.0,0.0
741,49.0,1.0,20.0,6.0,0.0
742,81.0,14.0,15.0,0.0,0.0
743,80.0,12.0,15.0,0.0,0.0
744,74.0,0.0,40.0,1.0,0.0
745,59.0,0.0,40.0,5.0,0.0
746,47.0,6.0,40.0,6.0,0.0
747,81.0,12.0,15.0,0.0,0.0
748,83.0,6.0,15.0,0.0,0.0
749,85.0,12.0,15.0,0.0,0.0
750,86.0,9.0,15.0,0.0,0.0
751,66.0,0.0,40.0,1.0,0.0
752,86.0,6.0,40.0,2.0,0.0
753,68.0,0.0,20.0,3.0,0.0
754,59.0,0.0,20.0,4.0,0.0
755,56.0,0.0,20.0,5.0,0.0
756,44.0,1.0,20.0,6.0,0.0
757,83.0,14.0,15.0,0.0,0.0
758,80.0,6.0,15.0,0.0,0.0
759,68.0,0.0,40.0,3.0,0.0
760,61.0,0.0,40.0,4.0,0.0
761,61.0,0.0,40.0,5.0,0.0
762,49.0,3.0,40.0,6.0,0.0
763,78.0,10.0,15.0,0.0,0.0
764,80.0,8.0,15.0,0.0,0.0
765,64.0,0.0,20.0,1.0,0.0
766,85.0,1.0,20.0,2.0,0.0
767,85.0,12.0,15.0,0.0,0.0
768,76.0,11.0,15.0,0.0,0.0
769,68.0,0.0,20.0,1.0,0.0
770,59.0,0.0,20.0,5.0,0.0
771,47.0,1.0,20.0,6.0,0.0
772,80.0,14.0,15.0,0.0,0.0
773,78.0,12.0,15.0,0.0,0.0
774,73.0,0.0,40.0,1.0,0.0
775,57.0,0.0,40.0,5.0,0.0
776,45.0,6.0,40.0,6.0,0.0
777,80.0,12.0,15.0,0.0,0.0
778,81.0,6.0,15.0,0.0,0.0
779,83.0,10.0,15.0,0.0,0.0
780,85.0,11.0,15.0,0.0,0.0
781,64.0,0.0,40.0,1.0,0.0
782,85.0,6.0,40.0,2.0,0.0
783,66.0,0.0,20.0,3.0,0.0
784,57.0,0.0,20.0,4.0,0.0
785,54.0,0.0,20.0,5.0,0.0
786,42.0,1.0,20.0,6.0,0.0
787,81.0,14.0,15.0,0.0,0.0
788,78.0,6.0,15.0,0.0,0.0
789,66.0,0.0,40.0,3.0,0.0
790,59.0,0.0,40.0,4.0,0.0
791,59.0,0.0,40.0,5.0,0.0
792,47.0,3.0,40.0,6.0,0.0
793,76.0,10.0,15.0,0.0,0.0
794,78.0,8.0,15.0,0.0,0.0
795,62.0,0.0,20.0,1.0,0.0
796,83.0,1.0,20.0,2.0,0.0
797,83.0,12.0,15.0,0.0,0.0
798,74.0,11.0,15.0,0.0,0.0
799,66.0,0.0,20.0,1.0,0.0
800,57.0,0.0,20.0,5.0,0.0
801,45.0,1.0,20.0,6.0,0.0
802,78.0,14.0,15.0,0.0,0.0
803,76.0,12.0,15.0,0.0,0.0
804,71.0,0.0,40.0,1.0,0.0
805,56.0,0.0,40.0,5.0,0.0
806,44.0,6.0,40.0,6.0,0.0
807,78.0,12.0,15.0,0.0,0.0
808,80.0,6.0,15.0,0.0,0.0
809,81.0,10.0,15.0,0.0,0.0
810,83.0,11.0,15.0,0.0,0.0
811,62.0,0.0,40.0,1.0,0.0
812,83.0,6.0,40.0,2.0,0.0
813,68.0,0.0,20.0,3.0,0.0
814,64.0,0.0,20.0,4.0,0.0
815,52.0,0.0,20.0,5.0,0.0
816,40.0,1.0,20.0,6.0,0.0
817,80.0,14.0,15.0,0.0,0.0
818,76.0,6.0,15.0,0.0,0.0
819,69.0,0.0,40.0,3.0,0.0
820,64.0,0.0,40.0,4.0,0.0
821,57.0,0.0,40.0,5.0,0.0
822,45.0,3.0,40.0,6.0,0.0
823,74.0,10.0,15.0,0.0,0.0
824,76.0,8.0,15.0,0.0,0.0
825,61.0,0.0,20.0,1.0,0.0
826,81.0,1.0,20.0,2.0,0.0
827,81.0,14.0,15.0,0.0,0.0
828,74.0,9.0,15.0,0.0,0.0
829,64.0,18.0,20.0,1.0,0.0
830,74.0,0.0,20.0,2.0,0.0
831,69.0,3.0,40.0,3.0,0.0
832,57.0,0.0,20.0,4.0,0.0
833,54.0,0.0,20.0,5.0,0.0
834,42.0,3.0,20.0,6.0,0.0
835,73.0,12.0,20.0,0.0,0.0
836,69.0,0.0,20.0,1.0,0.0
837,73.0,3.0,20.0,2.0,0.0
838,64.0,0.0,40.0,4.0,0.0
839,52.0,0.0,40.0,5.0,0.0
840,40.0,3.0,40.0,6.0,0.0
841,74.0,0.0,20.0,0.0,0.0
842,71.0,6.0,15.0,1.0,0.0
843,74.0,0.0,20.0,2.0,0.0
844,71.0,15.0,20.0,3.0,0.0
845,71.0,0.0,20.0,0.0,0.0
846,68.0,9.0,15.0,1.0,0.0
847,71.0,0.0,20.0,2.0,0.0
848,68.0,0.0,20.0,3.0,0.0
849,62.0,0.0,20.0,4.0,0.0
850,40.0,0.0,20.0,5.0,0.0
851,28.0,15.0,20.0,6.0,0.0
852,69.0,0.0,40.0,0.0,0.0
853,69.0,10.0,15.0,1.0,0.0
854,69.0,0.0,40.0,2.0,0.0
855,64.0,0.0,40.0,3.0,0.0
856,61.0,0.0,40.0,4.0,0.0
857,45.0,0.0,40.0,5.0,0.0
858,33.0,4.0,40.0,6.0,0.0
859,64.0,12.0,15.0,1.0,0.0
860,66.0,8.0,15.0,1.0,0.0
861,62.0,14.0,15.0,1.0,0.0
862,64.0,9.0,15.0,1.0,0.0
863,57.0,0.0,20.0,5.0,0.0
864,45.0,15.0,20.0,6.0,0.0
865,66.0,0.0,15.0,0.0,0.0
866,74.0,24.0,15.0,1.0,0.0
867,57.0,0.0,40.0,5.0,0.0
868,45.0,18.0,40.0,6.0,0.0
869,64.0,0.0,15.0,0.0,0.0
870,73.0,6.0,15.0,1.0,0.0
871,62.0,0.0,15.0,0.0,0.0
872,71.0,9.0,15.0,1.0,0.0
873,45.0,0.0,20.0,5.0,0.0
874,33.0,15.0,20.0,6.0,0.0
875,61.0,10.0,15.0,0.0,0.0
876,69.0,0.0,40.0,1.0,0.0
877,45.0,0.0,40.0,5.0,0.0
878,33.0,4.0,40.0,6.0,0.0
879,64.0,12.0,15.0,0.0,0.0
880,66.0,8.0,15.0,0.0,0.0
881,62.0,14.0,15.0,0.0,0.0
882,64.0,9.0,15.0,0.0,0.0
883,57.0,0.0,20.0,5.0,0.0
884,45.0,15.0,20.0,6.0,0.0
885,74.0,0.0,15.0,0.0,0.0
886,66.0,24.0,15.0,1.0,0.0
887,57.0,0.0,40.0,5.0,0.0
888,45.0,18.0,40.0,6.0,0.0
889,73.0,0.0,15.0,0.0,0.0
890,64.0,6.0,15.0,1.0,0.0
891,71.0,0.0,15.0,0.0,0.0
892,62.0,9.0,15.0,1.0,0.0
893,45.0,0.0,20.0,5.0,0.0
894,33.0,24.0,20.0,6.0,0.0
895,69.0,21.0,20.0,0.0,0.0
896,61.0,0.0,40.0,1.0,0.0
897,45.0,0.0,40.0,5.0,0.0
898,33.0,27.0,40.0,6.0,0.0
899,78.0,27.0,60.0,0.0,0.0
900,78.0,0.0,20.0,2.0,0.0
901,74.0,0.0,20.0,3.0,0.0
902,69.0,18.0,20.0,4.0,0.0
903,74.0,21.0,60.0,1.0,0.0
904,74.0,0.0,40.0,2.0,0.0
905,69.0,0.0,40.0,3.0,0.0
906,66.0,0.0,40.0,4.0,0.0
907,57.0,0.0,40.0,5.0,0.0
908,45.0,6.0,40.0,6.0,0.0
909,80.0,21.0,20.0,0.0,0.0
910,81.0,0.0,20.0,0.0,0.0
911,69.0,0.0,20.0,2.0,0.0
912,66.0,0.0,20.0,3.0,0.0
913,62.0,4.0,20.0,4.0,0.0
914,76.0,30.0,90.0,0.0,0.0
915,45.0,0.0,40.0,5.0,0.0
916,33.0,18.0,40.0,6.0,0.0
917,73.0,14.0,15.0,1.0,0.0
918,80.0,6.0,15.0,1.0,0.0
919,81.0,9.0,15.0,1.0,0.0
920,76.0,0.0,20.0,2.0,0.0
921,73.0,0.0,20.0,3.0,0.0
922,69.0,15.0,20.0,4.0,0.0
923,73.0,21.0,60.0,1.0,0.0
924,73.0,0.0,40.0,2.0,0.0
925,69.0,0.0,40.0,3.0,0.0
926,64.0,0.0,40.0,4.0,0.0
927,57.0,0.0,40.0,5.0,0.0
928,45.0,6.0,40.0,6.0,0.0
929,80.0,21.0,20.0,0.0,0.0
930,81.0,0.0,20.0,0.0,0.0
931,69.0,0.0,20.0,2.0,0.0
932,64.0,0.0,20.0,3.0,0.0
933,61.0,4.0,20.0,4.0,0.0
934,74.0,30.0,90.0,0.0,0.0
935,45.0,0.0,40.0,5.0,0.0
936,33.0,18.0,40.0,6.0,0.0
937,71.0,14.0,15.0,1.0,0.0
938,80.0,6.0,15.0,1.0,0.0
939,81.0,9.0,15.0,1.0,0.0
940,74.0,0.0,20.0,2.0,0.0
941,69.0,0.0,20.0,3.0,0.0
942,66.0,15.0,20.0,4.0,0.0
943,71.0,20.0,60.0,1.0,0.0
944,71.0,0.0,40.0,2.0,0.0
945,68.0,0.0,40.0,3.0,0.0
946,62.0,0.0,40.0,4.0,0.0
947,57.0,0.0,40.0,5.0,0.0
948,45.0,18.0,40.0,6.0,0.0
949,80.0,6.0,40.0,0.0,0.0
950,68.0,0.0,20.0,2.0,0.0
951,62.0,0.0,20.0,3.0,0.0
952,59.0,2.0,20.0,4.0,0.0
953,81.0,3.0,15.0,0.0,0.0
954,83.0,2.0,15.0,0.0,0.0
955,73.0,21.0,60.0,0.0,0.0
956,73.0,3.0,40.0,2.0,0.0
957,64.0,0.0,60.0,3.0,0.0
958,57.0,6.0,60.0,4.0,0.0
959,45.0,0.0,20.0,5.0,0.0
960,33.0,1.0,20.0,6.0,0.0
961,69.0,14.0,15.0,1.0,0.0
962,80.0,6.0,15.0,1.0,0.0
963,47.0,0.0,20.0,5.0,0.0
964,35.0,15.0,20.0,6.0,0.0
965,81.0,3.0,15.0,1.0,0.0
966,49.0,0.0,20.0,5.0,0.0
967,37.0,4.0,20.0,6.0,0.0
968,69.0,12.0,90.0,1.0,0.0
969,42.0,0.0,40.0,5.0,0.0
970,30.0,3.0,40.0,6.0,0.0
971,75.0,5.0,15.0,0.0,0.0
972,76.0,3.0,15.0,0.0,0.0
973,75.0,3.0,15.0,0.0,0.0
974,76.0,3.0,15.0,0.0,0.0
975,75.0,3.0,15.0,0.0,0.0
976,76.0,3.0,15.0,0.0,0.0
977,75.0,0.0,15.0,0.0,0.0
978,76.0,3.0,15.0,0.0,0.0
979,75.0,3.0,15.0,0.0,0.0
980,76.0,3.0,15.0,0.0,0.0
981,47.0,0.0,20.0,5.0,0.0
982,35.0,3.0,20.0,6.0,0.0
983,75.0,3.0,15.0,0.0,0.0
984,76.0,3.0,15.0,0.0,0.0
985,75.0,3.0,15.0,0.0,0.0
986,76.0,3.0,15.0,0.0,0.0
987,75.0,3.0,15.0,0.0,0.0
988,76.0,0.0,15.0,0.0,0.0
989,75.0,12.0,15.0,0.0,0.0
990,76.0,0.0,15.0,0.0,0.0
991,52.0,0.0,40.0,5.0,0.0
992,40.0,3.0,40.0,6.0,0.0
993,75.0,10.0,15.0,0.0,0.0
994,76.0,8.0,15.0,0.0,0.0
995,68.0,1.0,20.0,1.0,0.0
996,80.0,12.0,15.0,0.0,0.0
997,75.0,11.0,15.0,0.0,0.0
998,54.0,0.0,20.0,5.0,0.0
999,42.0,1.0,20.0,6.0,0.0
1000,78.0,14.0,15.0,0.0,0.0
1001,76.0,12.0,15.0,0.0,0.0
1002,83.0,0.0,40.0,1.0,0.0
1003,56.0,0.0,40.0,5.0,0.0
1004,44.0,6.0,40.0,6.0,0.0
1005,78.0,12.0,15.0,0.0,0.0
1006,80.0,6.0,15.0,0.0,0.0
1007,81.0,10.0,15.0,0.0,0.0
1008,83.0,11.0,15.0,0.0,0.0
1009,74.0,0.0,40.0,1.0,0.0
1010,83.0,6.0,40.0,2.0,0.0
1011,76.0,0.0,20.0,3.0,0.0
1012,68.0,0.0,20.0,4.0,0.0
1013,52.0,0.0,20.0,5.0,0.0
1014,40.0,1.0,20.0,6.0,0.0
1015,80.0,14.0,15.0,0.0,0.0
1016,76.0,6.0,15.0,0.0,0.0
1017,76.0,0.0,40.0,3.0,0.0
1018,69.0,0.0,40.0,4.0,0.0
1019,57.0,0.0,40.0,5.0,0.0
1020,45.0,3.0,40.0,6.0,0.0
1021,74.0,10.0,15.0,0.0,0.0
1022,76.0,8.0,15.0,0.0,0.0
1023,73.0,0.0,20.0,1.0,0.0
1024,81.0,1.0,20.0,2.0,0.0
1025,81.0,12.0,15.0,0.0,0.0
1026,73.0,11.0,15.0,0.0,0.0
1027,76.0,0.0,20.0,1.0,0.0
1028,56.0,0.0,20.0,5.0,0.0
1029,44.0,1.0,20.0,6.0,0.0
1030,76.0,14.0,15.0,0.0,0.0
1031,75.0,12.0,15.0,0.0,0.0
1032,81.0,0.0,40.0,1.0,0.0
1033,54.0,0.0,40.0,5.0,0.0
1034,42.0,6.0,40.0,6.0,0.0
1035,76.0,12.0,15.0,0.0,0.0
1036,78.0,6.0,15.0,0.0,0.0
1037,80.0,10.0,15.0,0.0,0.0
1038,81.0,11.0,15.0,0.0,0.0
1039,73.0,0.0,40.0,1.0,0.0
1040,81.0,6.0,40.0,2.0,0.0
1041,75.0,0.0,20.0,3.0,0.0
1042,66.0,0.0,20.0,4.0,0.0
1043,51.0,0.0,20.0,5.0,0.0
1044,39.0,1.0,20.0,6.0,0.0
1045,78.0,14.0,15.0,0.0,0.0
1046,75.0,6.0,15.0,0.0,0.0
1047,75.0,0.0,40.0,3.0,0.0
1048,68.0,0.0,40.0,4.0,0.0
1049,56.0,0.0,40.0,5.0,0.0
1050,44.0,3.0,40.0,6.0,0.0
1051,73.0,10.0,15.0,0.0,0.0
1052,75.0,8.0,15.0,0.0,0.0
1053,71.0,0.0,20.0,1.0,0.0
1054,80.0,1.0,20.0,2.0,0.0
1055,80.0,12.0,15.0,0.0,0.0
1056,71.0,11.0,15.0,0.0,0.0
1057,75.0,0.0,20.0,1.0,0.0
1058,54.0,0.0,20.0,5.0,0.0
1059,42.0,1.0,20.0,6.0,0.0
1060,75.0,14.0,15.0,0.0,0.0
1061,73.0,12.0,15.0,0.0,0.0
1062,80.0,0.0,40.0,1.0,0.0
1063,52.0,0.0,40.0,5.0,0.0
1064,40.0,6.0,40.0,6.0,0.0
1065,75.0,12.0,15.0,0.0,0.0
1066,76.0,6.0,15.0,0.0,0.0
1067,78.0,10.0,15.0,0.0,0.0
1068,80.0,11.0,15.0,0.0,0.0
1069,71.0,0.0,40.0,1.0,0.0
1070,80.0,6.0,40.0,2.0,0.0
1071,73.0,0.0,20.0,3.0,0.0
1072,64.0,0.0,20.0,4.0,0.0
1073,49.0,0.0,20.0,5.0,0.0
1074,37.0,1.0,20.0,6.0,0.0
1075,76.0,14.0,15.0,0.0,0.0
1076,73.0,6.0,15.0,0.0,0.0
1077,73.0,0.0,40.0,3.0,0.0
1078,66.0,0.0,40.0,4.0,0.0
1079,54.0,0.0,40.0,5.0,0.0
1080,42.0,3.0,40.0,6.0,0.0
1081,71.0,10.0,15.0,0.0,0.0
1082,73.0,8.0,15.0,0.0,0.0
1083,69.0,0.0,20.0,1.0,0.0
1084,78.0,1.0,20.0,2.0,0.0
1085,78.0,12.0,15.0,0.0,0.0
1086,69.0,11.0,15.0,0.0,0.0
1087,73.0,0.0,20.0,1.0,0.0
1088,52.0,0.0,20.0,5.0,0.0
1089,40.0,1.0,20.0,6.0,0.0
1090,73.0,14.0,15.0,0.0,0.0
1091,71.0,12.0,15.0,0.0,0.0
1092,78.0,0.0,40.0,1.0,0.0
1093,51.0,0.0,40.0,5.0,0.0
1094,39.0,6.0,40.0,6.0,0.0
1095,73.0,12.0,15.0,0.0,0.0
1096,75.0,6.0,15.0,0.0,0.0
1097,76.0,10.0,15.0,0.0,0.0
1098,78.0,11.0,15.0,0.0,0.0
1099,69.0,6.0,40.0,1.0,0.0
1100,78.0,0.0,20.0,2.0,0.0
1101,75.0,0.0,20.0,3.0,0.0
1102,71.0,0.0,20.0,4.0,0.0
1103,47.0,0.0,20.0,5.0,0.0
1104,35.0,1.0,20.0,6.0,0.0
1105,75.0,20.0,15.0,0.0,0.0
