,note,step,duration,channel,velocity
0,47.0,0.0,480.0,3.0,0.0
1,54.0,120.0,480.0,3.0,0.0
2,51.0,0.0,480.0,3.0,0.0
3,59.0,0.0,480.0,2.0,0.0
4,71.0,60.0,60.0,0.0,0.0
5,73.0,60.0,60.0,0.0,0.0
6,75.0,60.0,60.0,0.0,0.0
7,76.0,60.0,60.0,0.0,0.0
8,78.0,60.0,60.0,0.0,0.0
9,80.0,60.0,60.0,0.0,0.0
10,82.0,360.0,60.0,0.0,0.0
11,83.0,120.0,360.0,0.0,0.0
12,78.0,360.0,120.0,0.0,0.0
13,75.0,120.0,360.0,0.0,0.0
14,63.0,0.0,120.0,2.0,0.0
15,71.0,0.0,120.0,0.0,0.0
16,59.0,60.0,120.0,3.0,0.0
17,58.0,60.0,540.0,3.0,0.0
18,78.0,60.0,60.0,0.0,0.0
19,61.0,60.0,480.0,2.0,0.0
20,76.0,360.0,60.0,0.0,0.0
21,78.0,0.0,600.0,0.0,0.0
22,54.0,60.0,60.0,3.0,0.0
23,56.0,60.0,60.0,3.0,0.0
24,58.0,60.0,60.0,3.0,0.0
25,80.0,0.0,240.0,0.0,0.0
26,59.0,60.0,60.0,3.0,0.0
27,61.0,60.0,60.0,3.0,0.0
28,63.0,60.0,60.0,3.0,0.0
29,64.0,120.0,60.0,3.0,0.0
30,66.0,20.0,360.0,3.0,0.0
31,78.0,60.0,120.0,0.0,0.0
32,76.0,60.0,60.0,0.0,0.0
33,75.0,60.0,60.0,0.0,0.0
34,76.0,40.0,60.0,0.0,0.0
35,78.0,20.0,40.0,0.0,0.0
36,76.0,40.0,40.0,0.0,0.0
37,61.0,20.0,120.0,3.0,0.0
38,78.0,40.0,40.0,0.0,0.0
39,76.0,20.0,40.0,0.0,0.0
40,78.0,40.0,40.0,0.0,0.0
41,58.0,60.0,360.0,3.0,0.0
42,76.0,40.0,40.0,0.0,0.0
43,78.0,40.0,40.0,0.0,0.0
44,76.0,40.0,40.0,0.0,0.0
45,78.0,40.0,40.0,0.0,0.0
46,76.0,40.0,40.0,0.0,0.0
47,78.0,30.0,40.0,0.0,0.0
48,76.0,70.0,30.0,0.0,0.0
49,75.0,0.0,60.0,0.0,0.0
50,76.0,60.0,60.0,0.0,0.0
51,54.0,0.0,120.0,3.0,0.0
52,78.0,360.0,60.0,0.0,0.0
53,56.0,120.0,720.0,3.0,0.0
54,71.0,60.0,360.0,0.0,0.0
55,83.0,60.0,60.0,0.0,0.0
56,82.0,240.0,60.0,0.0,0.0
57,83.0,120.0,360.0,0.0,0.0
58,59.0,60.0,240.0,3.0,0.0
59,80.0,0.0,120.0,0.0,0.0
60,78.0,60.0,120.0,0.0,0.0
61,58.0,60.0,60.0,3.0,0.0
62,56.0,0.0,60.0,3.0,0.0
63,54.0,60.0,60.0,3.0,0.0
64,77.0,40.0,240.0,0.0,0.0
65,56.0,40.0,60.0,3.0,0.0
66,58.0,40.0,40.0,3.0,0.0
67,56.0,40.0,40.0,3.0,0.0
68,58.0,0.0,40.0,3.0,0.0
69,87.0,0.0,120.0,0.0,0.0
70,56.0,40.0,40.0,3.0,0.0
71,58.0,40.0,40.0,3.0,0.0
72,56.0,40.0,40.0,3.0,0.0
73,85.0,0.0,360.0,0.0,0.0
74,58.0,40.0,40.0,3.0,0.0
75,56.0,40.0,40.0,3.0,0.0
76,58.0,40.0,40.0,3.0,0.0
77,56.0,40.0,40.0,3.0,0.0
78,58.0,100.0,40.0,3.0,0.0
79,56.0,60.0,90.0,3.0,0.0
80,54.0,60.0,60.0,3.0,0.0
81,83.0,0.0,120.0,0.0,0.0
82,56.0,60.0,60.0,3.0,0.0
83,58.0,60.0,60.0,3.0,0.0
84,78.0,240.0,480.0,1.0,0.0
85,83.0,60.0,60.0,0.0,0.0
86,54.0,40.0,360.0,3.0,0.0
87,82.0,60.0,60.0,0.0,0.0
88,80.0,60.0,60.0,0.0,0.0
89,82.0,40.0,60.0,0.0,0.0
90,83.0,40.0,40.0,0.0,0.0
91,82.0,40.0,40.0,0.0,0.0
92,83.0,0.0,40.0,0.0,0.0
93,82.0,20.0,40.0,0.0,0.0
94,64.0,20.0,60.0,3.0,0.0
95,83.0,40.0,40.0,0.0,0.0
96,63.0,0.0,60.0,3.0,0.0
97,82.0,120.0,270.0,0.0,0.0
98,64.0,120.0,360.0,3.0,0.0
99,61.0,120.0,120.0,3.0,0.0
100,83.0,0.0,15.0,0.0,0.0
101,58.0,120.0,360.0,3.0,0.0
102,85.0,20.0,1140.0,0.0,0.0
103,68.0,360.0,120.0,3.0,0.0
104,66.0,120.0,360.0,3.0,0.0
105,64.0,60.0,120.0,3.0,0.0
106,64.0,60.0,60.0,3.0,0.0
107,63.0,60.0,60.0,3.0,0.0
108,61.0,60.0,60.0,3.0,0.0
109,63.0,40.0,60.0,3.0,0.0
110,64.0,20.0,40.0,3.0,0.0
111,63.0,40.0,40.0,3.0,0.0
112,85.0,0.0,60.0,0.0,0.0
113,64.0,40.0,40.0,3.0,0.0
114,63.0,20.0,40.0,3.0,0.0
115,83.0,20.0,60.0,0.0,0.0
116,64.0,40.0,40.0,3.0,0.0
117,82.0,240.0,60.0,0.0,0.0
118,63.0,120.0,270.0,3.0,0.0
119,83.0,120.0,360.0,0.0,0.0
120,63.0,120.0,240.0,3.0,0.0
121,78.0,0.0,1080.0,0.0,0.0
122,63.0,60.0,300.0,3.0,0.0
123,80.0,60.0,120.0,1.0,0.0
124,81.0,60.0,60.0,1.0,0.0
125,80.0,60.0,60.0,1.0,0.0
126,81.0,120.0,480.0,1.0,0.0
127,64.0,60.0,60.0,3.0,0.0
128,63.0,60.0,60.0,3.0,0.0
129,61.0,240.0,60.0,3.0,0.0
130,63.0,120.0,360.0,3.0,0.0
131,83.0,0.0,240.0,1.0,0.0
132,59.0,60.0,120.0,3.0,0.0
133,76.0,60.0,240.0,0.0,0.0
134,81.0,0.0,120.0,1.0,0.0
135,64.0,60.0,60.0,3.0,0.0
136,63.0,120.0,60.0,3.0,0.0
137,64.0,0.0,660.0,3.0,0.0
138,80.0,60.0,180.0,1.0,0.0
139,78.0,60.0,60.0,1.0,0.0
140,76.0,60.0,60.0,1.0,0.0
141,75.0,300.0,60.0,1.0,0.0
142,76.0,60.0,300.0,1.0,0.0
143,66.0,60.0,60.0,3.0,0.0
144,75.0,0.0,60.0,1.0,0.0
145,73.0,0.0,60.0,1.0,0.0
146,64.0,60.0,60.0,3.0,0.0
147,71.0,300.0,60.0,1.0,0.0
148,63.0,0.0,60.0,3.0,0.0
149,64.0,60.0,300.0,3.0,0.0
150,63.0,60.0,60.0,3.0,0.0
151,73.0,0.0,15.0,1.0,0.0
152,61.0,60.0,60.0,3.0,0.0
153,59.0,0.0,60.0,3.0,0.0
154,61.0,60.0,300.0,3.0,0.0
155,83.0,60.0,60.0,0.0,0.0
156,82.0,180.0,60.0,0.0,0.0
157,83.0,0.0,240.0,0.0,0.0
158,59.0,60.0,60.0,3.0,0.0
159,58.0,60.0,60.0,3.0,0.0
160,83.0,0.0,120.0,0.0,0.0
161,56.0,480.0,60.0,3.0,0.0
162,75.0,0.0,510.0,2.0,0.0
163,78.0,60.0,480.0,1.0,0.0
164,54.0,60.0,1080.0,3.0,0.0
165,83.0,60.0,540.0,0.0,0.0
166,87.0,60.0,60.0,0.0,0.0
167,85.0,60.0,60.0,0.0,0.0
168,83.0,60.0,60.0,0.0,0.0
169,82.0,60.0,60.0,0.0,0.0
170,80.0,60.0,60.0,0.0,0.0
171,78.0,60.0,60.0,0.0,0.0
172,76.0,120.0,60.0,0.0,0.0
173,85.0,0.0,360.0,0.0,0.0
174,52.0,60.0,60.0,3.0,0.0
175,51.0,60.0,60.0,3.0,0.0
176,49.0,60.0,60.0,3.0,0.0
177,47.0,60.0,60.0,3.0,0.0
178,46.0,60.0,60.0,3.0,0.0
179,76.0,0.0,120.0,0.0,0.0
180,44.0,120.0,60.0,3.0,0.0
181,42.0,120.0,120.0,3.0,0.0
182,85.0,120.0,360.0,0.0,0.0
183,46.0,120.0,120.0,3.0,0.0
184,49.0,0.0,120.0,3.0,0.0
185,76.0,60.0,120.0,0.0,0.0
186,54.0,0.0,120.0,3.0,0.0
187,47.0,60.0,120.0,3.0,0.0
188,76.0,60.0,60.0,0.0,0.0
189,75.0,0.0,60.0,0.0,0.0
190,54.0,0.0,120.0,3.0,0.0
191,73.0,60.0,60.0,0.0,0.0
192,75.0,40.0,60.0,0.0,0.0
193,76.0,40.0,40.0,0.0,0.0
194,56.0,0.0,120.0,3.0,0.0
195,75.0,40.0,40.0,0.0,0.0
196,76.0,40.0,40.0,0.0,0.0
197,58.0,120.0,120.0,3.0,0.0
198,75.0,40.0,40.0,0.0,0.0
199,76.0,40.0,40.0,0.0,0.0
200,75.0,60.0,330.0,0.0,0.0
201,59.0,120.0,120.0,3.0,0.0
202,58.0,60.0,120.0,3.0,0.0
203,59.0,0.0,120.0,3.0,0.0
204,73.0,60.0,60.0,0.0,0.0
205,71.0,60.0,60.0,0.0,0.0
206,61.0,0.0,120.0,3.0,0.0
207,70.0,60.0,60.0,0.0,0.0
208,71.0,0.0,120.0,0.0,0.0
209,64.0,60.0,60.0,3.0,0.0
210,63.0,60.0,60.0,3.0,0.0
211,64.0,60.0,60.0,3.0,0.0
212,78.0,40.0,120.0,0.0,0.0
213,63.0,0.0,60.0,3.0,0.0
214,64.0,40.0,40.0,3.0,0.0
215,80.0,0.0,120.0,0.0,0.0
216,63.0,40.0,40.0,3.0,0.0
217,64.0,40.0,40.0,3.0,0.0
218,82.0,120.0,120.0,0.0,0.0
219,63.0,40.0,40.0,3.0,0.0
220,64.0,40.0,40.0,3.0,0.0
221,63.0,60.0,330.0,3.0,0.0
222,83.0,120.0,120.0,0.0,0.0
223,82.0,60.0,120.0,0.0,0.0
224,83.0,0.0,120.0,0.0,0.0
225,61.0,60.0,60.0,3.0,0.0
226,85.0,120.0,120.0,0.0,0.0
227,59.0,60.0,60.0,3.0,0.0
228,58.0,0.0,60.0,3.0,0.0
229,59.0,120.0,120.0,3.0,0.0
230,87.0,60.0,300.0,0.0,0.0
231,63.0,60.0,120.0,3.0,0.0
232,65.0,0.0,120.0,3.0,0.0
233,85.0,60.0,60.0,0.0,0.0
234,67.0,0.0,120.0,3.0,0.0
235,83.0,60.0,60.0,0.0,0.0
236,82.0,120.0,60.0,0.0,0.0
237,68.0,120.0,120.0,3.0,0.0
238,83.0,60.0,300.0,0.0,0.0
239,67.0,60.0,120.0,3.0,0.0
240,68.0,0.0,120.0,3.0,0.0
241,82.0,60.0,60.0,0.0,0.0
242,80.0,60.0,60.0,0.0,0.0
243,70.0,0.0,120.0,3.0,0.0
244,79.0,360.0,60.0,0.0,0.0
245,71.0,0.0,360.0,3.0,0.0
246,80.0,120.0,360.0,0.0,0.0
247,75.0,40.0,120.0,0.0,0.0
248,59.0,0.0,120.0,3.0,0.0
249,77.0,40.0,40.0,0.0,0.0
250,71.0,120.0,360.0,3.0,0.0
251,75.0,280.0,40.0,0.0,0.0
252,77.0,0.0,270.0,0.0,0.0
253,75.0,0.0,120.0,1.0,0.0
254,71.0,0.0,15.0,3.0,0.0
255,78.0,120.0,15.0,0.0,0.0
256,73.0,300.0,480.0,1.0,0.0
257,77.0,60.0,180.0,0.0,0.0
258,80.0,60.0,60.0,0.0,0.0
259,82.0,60.0,60.0,0.0,0.0
260,83.0,0.0,60.0,0.0,0.0
261,71.0,60.0,60.0,3.0,0.0
262,70.0,60.0,60.0,3.0,0.0
263,85.0,300.0,120.0,1.0,0.0
264,85.0,0.0,15.0,0.0,0.0
265,68.0,0.0,60.0,3.0,0.0
266,85.0,0.0,15.0,0.0,0.0
267,79.0,0.0,360.0,1.0,0.0
268,70.0,60.0,300.0,3.0,0.0
269,63.0,60.0,60.0,3.0,0.0
270,82.0,300.0,120.0,1.0,0.0
271,65.0,60.0,60.0,3.0,0.0
272,67.0,0.0,60.0,3.0,0.0
273,68.0,60.0,360.0,3.0,0.0
274,75.0,0.0,960.0,1.0,0.0
275,85.0,0.0,60.0,0.0,0.0
276,83.0,60.0,60.0,0.0,0.0
277,82.0,300.0,60.0,0.0,0.0
278,83.0,60.0,300.0,0.0,0.0
279,68.0,0.0,15.0,3.0,0.0
280,82.0,60.0,60.0,0.0,0.0
281,80.0,60.0,60.0,0.0,0.0
282,79.0,300.0,60.0,0.0,0.0
283,80.0,60.0,360.0,0.0,0.0
284,64.0,0.0,60.0,3.0,0.0
285,87.0,60.0,120.0,0.0,0.0
286,63.0,60.0,60.0,3.0,0.0
287,61.0,0.0,60.0,3.0,0.0
288,75.0,0.0,960.0,1.0,0.0
289,80.0,60.0,60.0,0.0,0.0
290,60.0,0.0,360.0,3.0,0.0
291,78.0,60.0,60.0,0.0,0.0
292,76.0,60.0,60.0,0.0,0.0
293,78.0,40.0,60.0,0.0,0.0
294,80.0,40.0,40.0,0.0,0.0
295,78.0,40.0,40.0,0.0,0.0
296,80.0,40.0,40.0,0.0,0.0
297,63.0,40.0,120.0,3.0,0.0
298,78.0,40.0,40.0,0.0,0.0
299,80.0,40.0,40.0,0.0,0.0
300,78.0,0.0,40.0,0.0,0.0
301,80.0,200.0,40.0,0.0,0.0
302,56.0,120.0,360.0,3.0,0.0
303,78.0,120.0,210.0,0.0,0.0
304,77.0,0.0,120.0,0.0,0.0
305,75.0,300.0,120.0,0.0,0.0
306,60.0,0.0,120.0,3.0,0.0
307,61.0,40.0,600.0,3.0,0.0
308,73.0,40.0,480.0,1.0,0.0
309,77.0,60.0,300.0,0.0,0.0
310,78.0,60.0,60.0,0.0,0.0
311,77.0,60.0,60.0,0.0,0.0
312,78.0,0.0,60.0,0.0,0.0
313,80.0,40.0,40.0,0.0,0.0
314,75.0,360.0,480.0,1.0,0.0
315,78.0,40.0,40.0,0.0,0.0
316,80.0,0.0,40.0,0.0,0.0
317,49.0,20.0,60.0,3.0,0.0
318,78.0,20.0,40.0,0.0,0.0
319,80.0,40.0,40.0,0.0,0.0
320,51.0,0.0,60.0,3.0,0.0
321,78.0,60.0,40.0,0.0,0.0
322,80.0,0.0,60.0,0.0,0.0
323,53.0,60.0,60.0,3.0,0.0
324,78.0,0.0,60.0,0.0,0.0
325,54.0,60.0,60.0,3.0,0.0
326,56.0,0.0,60.0,3.0,0.0
327,77.0,60.0,60.0,0.0,0.0
328,58.0,0.0,60.0,3.0,0.0
329,78.0,0.0,60.0,0.0,0.0
330,59.0,120.0,360.0,3.0,0.0
331,77.0,60.0,480.0,1.0,0.0
332,80.0,60.0,540.0,0.0,0.0
333,56.0,0.0,120.0,3.0,0.0
334,53.0,60.0,360.0,3.0,0.0
335,78.0,60.0,60.0,0.0,0.0
336,77.0,60.0,60.0,0.0,0.0
337,75.0,60.0,60.0,0.0,0.0
338,73.0,60.0,60.0,0.0,0.0
339,71.0,0.0,60.0,0.0,0.0
340,70.0,60.0,60.0,0.0,0.0
341,49.0,0.0,120.0,3.0,0.0
342,68.0,360.0,60.0,0.0,0.0
343,66.0,120.0,360.0,0.0,0.0
344,58.0,60.0,780.0,3.0,0.0
345,70.0,60.0,120.0,0.0,0.0
346,73.0,60.0,60.0,0.0,0.0
347,71.0,180.0,60.0,0.0,0.0
348,73.0,60.0,240.0,0.0,0.0
349,59.0,0.0,60.0,3.0,0.0
350,75.0,300.0,120.0,0.0,0.0
351,58.0,60.0,60.0,3.0,0.0
352,56.0,0.0,60.0,3.0,0.0
353,54.0,60.0,300.0,3.0,0.0
354,70.0,300.0,480.0,2.0,0.0
355,73.0,0.0,480.0,1.0,0.0
356,52.0,60.0,60.0,3.0,0.0
357,51.0,60.0,60.0,3.0,0.0
358,49.0,0.0,60.0,3.0,0.0
359,47.0,60.0,300.0,3.0,0.0
360,76.0,0.0,15.0,0.0,0.0
361,54.0,0.0,60.0,3.0,0.0
362,56.0,0.0,60.0,3.0,0.0
363,75.0,60.0,60.0,0.0,0.0
364,58.0,60.0,60.0,3.0,0.0
365,73.0,0.0,60.0,0.0,0.0
366,75.0,60.0,300.0,0.0,0.0
367,59.0,60.0,60.0,3.0,0.0
368,58.0,180.0,60.0,3.0,0.0
369,59.0,60.0,240.0,3.0,0.0
370,77.0,0.0,60.0,0.0,0.0
371,47.0,60.0,120.0,3.0,0.0
372,78.0,60.0,60.0,0.0,0.0
373,80.0,0.0,15.0,0.0,0.0
374,78.0,60.0,60.0,0.0,0.0
375,80.0,120.0,60.0,0.0,0.0
376,78.0,60.0,120.0,0.0,0.0
377,77.0,0.0,60.0,0.0,0.0
378,63.0,0.0,120.0,2.0,0.0
379,59.0,60.0,15.0,3.0,0.0
380,78.0,60.0,60.0,0.0,0.0
381,80.0,300.0,60.0,0.0,0.0
382,59.0,0.0,15.0,3.0,0.0
383,73.0,60.0,300.0,0.0,0.0
384,65.0,0.0,480.0,2.0,0.0
385,80.0,60.0,60.0,0.0,0.0
386,82.0,60.0,60.0,0.0,0.0
387,83.0,300.0,60.0,0.0,0.0
388,85.0,0.0,360.0,0.0,0.0
389,59.0,60.0,60.0,3.0,0.0
390,58.0,60.0,60.0,3.0,0.0
391,77.0,180.0,120.0,0.0,0.0
392,56.0,0.0,60.0,3.0,0.0
393,58.0,60.0,180.0,3.0,0.0
394,78.0,0.0,480.0,0.0,0.0
395,54.0,60.0,60.0,3.0,0.0
396,56.0,60.0,60.0,3.0,0.0
397,58.0,60.0,60.0,3.0,0.0
398,59.0,60.0,60.0,3.0,0.0
399,61.0,60.0,60.0,3.0,0.0
400,63.0,120.0,360.0,3.0,0.0
401,80.0,60.0,60.0,0.0,0.0
402,78.0,60.0,60.0,0.0,0.0
403,77.0,60.0,60.0,0.0,0.0
404,78.0,120.0,60.0,0.0,0.0
405,80.0,60.0,240.0,0.0,0.0
406,59.0,0.0,120.0,3.0,0.0
407,82.0,60.0,60.0,0.0,0.0
408,61.0,240.0,480.0,3.0,0.0
409,77.0,0.0,960.0,1.0,0.0
410,80.0,60.0,60.0,0.0,0.0
411,78.0,60.0,60.0,0.0,0.0
412,80.0,40.0,60.0,0.0,0.0
413,82.0,40.0,40.0,0.0,0.0
414,80.0,40.0,40.0,0.0,0.0
415,82.0,40.0,40.0,0.0,0.0
416,80.0,40.0,40.0,0.0,0.0
417,82.0,40.0,40.0,0.0,0.0
418,80.0,240.0,270.0,0.0,0.0
419,49.0,0.0,480.0,3.0,0.0
420,78.0,600.0,240.0,0.0,0.0
421,70.0,0.0,1920.0,1.0,0.0
422,42.0,60.0,600.0,3.0,0.0
423,73.0,0.0,1920.0,2.0,0.0
424,78.0,480.0,1920.0,0.0,0.0
425,54.0,60.0,60.0,3.0,0.0
426,56.0,60.0,60.0,3.0,0.0
427,58.0,60.0,60.0,3.0,0.0
428,59.0,60.0,60.0,3.0,0.0
429,61.0,60.0,60.0,3.0,0.0
430,63.0,360.0,60.0,3.0,0.0
431,64.0,120.0,360.0,3.0,0.0
432,61.0,360.0,120.0,3.0,0.0
433,58.0,120.0,360.0,3.0,0.0
434,54.0,0.0,15.0,3.0,0.0
435,51.0,0.0,480.0,3.0,0.0
436,59.0,0.0,480.0,2.0,0.0
437,47.0,0.0,480.0,3.0,0.0
438,71.0,60.0,60.0,0.0,0.0
439,73.0,60.0,60.0,0.0,0.0
440,75.0,60.0,60.0,0.0,0.0
441,76.0,60.0,60.0,0.0,0.0
442,78.0,60.0,60.0,0.0,0.0
443,80.0,60.0,60.0,0.0,0.0
444,82.0,360.0,60.0,0.0,0.0
445,83.0,120.0,360.0,0.0,0.0
446,78.0,360.0,120.0,0.0,0.0
447,75.0,120.0,360.0,0.0,0.0
448,63.0,60.0,120.0,2.0,0.0
449,71.0,0.0,120.0,0.0,0.0
450,59.0,0.0,120.0,3.0,0.0
451,61.0,60.0,480.0,2.0,0.0
452,58.0,60.0,540.0,3.0,0.0
453,78.0,60.0,60.0,0.0,0.0
454,76.0,360.0,60.0,0.0,0.0
455,78.0,60.0,600.0,0.0,0.0
456,54.0,60.0,60.0,3.0,0.0
457,56.0,60.0,60.0,3.0,0.0
458,58.0,0.0,60.0,3.0,0.0
459,59.0,60.0,60.0,3.0,0.0
460,80.0,0.0,240.0,0.0,0.0
461,61.0,60.0,60.0,3.0,0.0
462,63.0,60.0,60.0,3.0,0.0
463,64.0,120.0,60.0,3.0,0.0
464,78.0,60.0,120.0,0.0,0.0
465,66.0,20.0,360.0,3.0,0.0
466,76.0,60.0,60.0,0.0,0.0
467,75.0,60.0,60.0,0.0,0.0
468,76.0,40.0,60.0,0.0,0.0
469,78.0,20.0,40.0,0.0,0.0
470,76.0,40.0,40.0,0.0,0.0
471,61.0,20.0,120.0,3.0,0.0
472,78.0,40.0,40.0,0.0,0.0
473,76.0,20.0,40.0,0.0,0.0
474,78.0,40.0,40.0,0.0,0.0
475,58.0,60.0,360.0,3.0,0.0
476,76.0,40.0,40.0,0.0,0.0
477,78.0,40.0,40.0,0.0,0.0
478,76.0,40.0,40.0,0.0,0.0
479,78.0,40.0,40.0,0.0,0.0
480,76.0,40.0,40.0,0.0,0.0
481,78.0,30.0,40.0,0.0,0.0
482,76.0,70.0,30.0,0.0,0.0
483,75.0,0.0,60.0,0.0,0.0
484,54.0,0.0,120.0,3.0,0.0
485,76.0,60.0,60.0,0.0,0.0
486,78.0,360.0,60.0,0.0,0.0
487,71.0,60.0,360.0,0.0,0.0
488,56.0,120.0,720.0,3.0,0.0
489,83.0,60.0,60.0,0.0,0.0
490,82.0,240.0,60.0,0.0,0.0
491,83.0,120.0,360.0,0.0,0.0
492,59.0,0.0,240.0,3.0,0.0
493,80.0,60.0,120.0,0.0,0.0
494,78.0,0.0,120.0,0.0,0.0
495,58.0,60.0,60.0,3.0,0.0
496,56.0,60.0,60.0,3.0,0.0
497,54.0,60.0,60.0,3.0,0.0
498,77.0,0.0,240.0,0.0,0.0
499,56.0,40.0,60.0,3.0,0.0
500,58.0,40.0,40.0,3.0,0.0
501,56.0,40.0,40.0,3.0,0.0
502,58.0,40.0,40.0,3.0,0.0
503,56.0,40.0,40.0,3.0,0.0
504,87.0,0.0,120.0,0.0,0.0
505,58.0,40.0,40.0,3.0,0.0
506,56.0,40.0,40.0,3.0,0.0
507,58.0,40.0,40.0,3.0,0.0
508,85.0,60.0,360.0,0.0,0.0
509,56.0,40.0,40.0,3.0,0.0
510,58.0,40.0,40.0,3.0,0.0
511,56.0,40.0,40.0,3.0,0.0
512,58.0,100.0,40.0,3.0,0.0
513,56.0,60.0,90.0,3.0,0.0
514,54.0,0.0,60.0,3.0,0.0
515,56.0,60.0,60.0,3.0,0.0
516,58.0,0.0,60.0,3.0,0.0
517,54.0,0.0,360.0,3.0,0.0
518,83.0,60.0,15.0,0.0,0.0
519,78.0,240.0,480.0,1.0,0.0
520,82.0,60.0,60.0,0.0,0.0
521,80.0,60.0,60.0,0.0,0.0
522,82.0,40.0,60.0,0.0,0.0
523,83.0,40.0,40.0,0.0,0.0
524,82.0,40.0,40.0,0.0,0.0
525,83.0,40.0,40.0,0.0,0.0
526,64.0,20.0,60.0,3.0,0.0
527,82.0,20.0,40.0,0.0,0.0
528,83.0,40.0,40.0,0.0,0.0
529,63.0,0.0,60.0,3.0,0.0
530,82.0,120.0,270.0,0.0,0.0
531,64.0,120.0,360.0,3.0,0.0
532,83.0,120.0,240.0,0.0,0.0
533,61.0,0.0,120.0,3.0,0.0
534,58.0,120.0,360.0,3.0,0.0
535,83.0,240.0,120.0,0.0,0.0
536,68.0,360.0,120.0,3.0,0.0
537,66.0,120.0,360.0,3.0,0.0
538,64.0,60.0,15.0,3.0,0.0
539,63.0,60.0,60.0,3.0,0.0
540,61.0,60.0,60.0,3.0,0.0
541,63.0,40.0,60.0,3.0,0.0
542,64.0,20.0,40.0,3.0,0.0
543,63.0,40.0,40.0,3.0,0.0
544,85.0,20.0,15.0,0.0,0.0
545,64.0,0.0,40.0,3.0,0.0
546,83.0,20.0,60.0,0.0,0.0
547,63.0,20.0,40.0,3.0,0.0
548,64.0,40.0,40.0,3.0,0.0
549,82.0,240.0,60.0,0.0,0.0
550,63.0,120.0,270.0,3.0,0.0
551,83.0,120.0,360.0,0.0,0.0
552,78.0,0.0,1080.0,0.0,0.0
553,63.0,120.0,15.0,3.0,0.0
554,80.0,60.0,120.0,1.0,0.0
555,81.0,60.0,60.0,1.0,0.0
556,80.0,60.0,60.0,1.0,0.0
557,81.0,120.0,480.0,1.0,0.0
558,64.0,60.0,60.0,3.0,0.0
559,63.0,60.0,60.0,3.0,0.0
560,61.0,240.0,60.0,3.0,0.0
561,63.0,120.0,360.0,3.0,0.0
562,83.0,0.0,240.0,1.0,0.0
563,59.0,60.0,120.0,3.0,0.0
564,81.0,0.0,120.0,1.0,0.0
565,76.0,60.0,240.0,0.0,0.0
566,64.0,60.0,60.0,3.0,0.0
567,63.0,120.0,60.0,3.0,0.0
568,64.0,60.0,660.0,3.0,0.0
569,80.0,60.0,180.0,1.0,0.0
570,78.0,60.0,60.0,1.0,0.0
571,76.0,60.0,60.0,1.0,0.0
572,75.0,300.0,60.0,1.0,0.0
573,76.0,0.0,300.0,1.0,0.0
574,75.0,0.0,60.0,1.0,0.0
575,66.0,60.0,60.0,3.0,0.0
576,73.0,60.0,60.0,1.0,0.0
577,64.0,0.0,60.0,3.0,0.0
578,63.0,0.0,60.0,3.0,0.0
579,71.0,300.0,60.0,1.0,0.0
580,64.0,60.0,300.0,3.0,0.0
581,63.0,60.0,60.0,3.0,0.0
582,73.0,0.0,15.0,1.0,0.0
583,61.0,60.0,60.0,3.0,0.0
584,59.0,0.0,60.0,3.0,0.0
585,61.0,60.0,300.0,3.0,0.0
586,83.0,60.0,60.0,0.0,0.0
587,82.0,180.0,60.0,0.0,0.0
588,83.0,60.0,240.0,0.0,0.0
589,59.0,0.0,60.0,3.0,0.0
590,83.0,0.0,120.0,0.0,0.0
591,58.0,60.0,60.0,3.0,0.0
592,56.0,480.0,60.0,3.0,0.0
593,75.0,60.0,510.0,2.0,0.0
594,78.0,0.0,480.0,1.0,0.0
595,54.0,60.0,1080.0,3.0,0.0
596,83.0,60.0,540.0,0.0,0.0
597,87.0,60.0,60.0,0.0,0.0
598,85.0,60.0,60.0,0.0,0.0
599,83.0,60.0,60.0,0.0,0.0
600,82.0,60.0,60.0,0.0,0.0
601,80.0,60.0,60.0,0.0,0.0
602,78.0,60.0,60.0,0.0,0.0
603,76.0,120.0,60.0,0.0,0.0
604,85.0,60.0,360.0,0.0,0.0
605,52.0,60.0,60.0,3.0,0.0
606,51.0,60.0,60.0,3.0,0.0
607,49.0,60.0,60.0,3.0,0.0
608,47.0,0.0,60.0,3.0,0.0
609,46.0,60.0,60.0,3.0,0.0
610,76.0,120.0,120.0,0.0,0.0
611,44.0,0.0,60.0,3.0,0.0
612,42.0,120.0,120.0,3.0,0.0
613,85.0,120.0,360.0,0.0,0.0
614,46.0,120.0,120.0,3.0,0.0
615,49.0,0.0,120.0,3.0,0.0
616,54.0,0.0,120.0,3.0,0.0
617,76.0,60.0,15.0,0.0,0.0
618,47.0,0.0,120.0,3.0,0.0
619,75.0,60.0,60.0,0.0,0.0
620,73.0,60.0,60.0,0.0,0.0
621,54.0,40.0,120.0,3.0,0.0
622,75.0,0.0,60.0,0.0,0.0
623,76.0,40.0,40.0,0.0,0.0
624,56.0,0.0,120.0,3.0,0.0
625,75.0,40.0,40.0,0.0,0.0
626,76.0,40.0,40.0,0.0,0.0
627,75.0,40.0,40.0,0.0,0.0
628,58.0,120.0,120.0,3.0,0.0
629,76.0,40.0,40.0,0.0,0.0
630,75.0,60.0,330.0,0.0,0.0
631,59.0,120.0,120.0,3.0,0.0
632,58.0,60.0,120.0,3.0,0.0
633,59.0,0.0,120.0,3.0,0.0
634,73.0,60.0,60.0,0.0,0.0
635,61.0,0.0,120.0,3.0,0.0
636,71.0,60.0,60.0,0.0,0.0
637,70.0,60.0,60.0,0.0,0.0
638,64.0,60.0,60.0,3.0,0.0
639,71.0,0.0,120.0,0.0,0.0
640,63.0,60.0,60.0,3.0,0.0
641,78.0,40.0,120.0,0.0,0.0
642,64.0,60.0,60.0,3.0,0.0
643,63.0,0.0,60.0,3.0,0.0
644,80.0,40.0,120.0,0.0,0.0
645,64.0,40.0,40.0,3.0,0.0
646,63.0,40.0,40.0,3.0,0.0
647,64.0,0.0,40.0,3.0,0.0
648,82.0,120.0,120.0,0.0,0.0
649,63.0,40.0,40.0,3.0,0.0
650,64.0,40.0,40.0,3.0,0.0
651,63.0,60.0,330.0,3.0,0.0
652,83.0,120.0,120.0,0.0,0.0
653,82.0,60.0,120.0,0.0,0.0
654,83.0,0.0,120.0,0.0,0.0
655,61.0,60.0,60.0,3.0,0.0
656,85.0,0.0,120.0,0.0,0.0
657,59.0,60.0,60.0,3.0,0.0
658,58.0,120.0,60.0,3.0,0.0
659,87.0,60.0,300.0,0.0,0.0
660,59.0,120.0,120.0,3.0,0.0
661,63.0,60.0,120.0,3.0,0.0
662,65.0,0.0,120.0,3.0,0.0
663,85.0,60.0,60.0,0.0,0.0
664,67.0,120.0,120.0,3.0,0.0
665,83.0,60.0,60.0,0.0,0.0
666,82.0,0.0,60.0,0.0,0.0
667,68.0,120.0,120.0,3.0,0.0
668,83.0,60.0,300.0,0.0,0.0
669,67.0,60.0,120.0,3.0,0.0
670,68.0,0.0,120.0,3.0,0.0
671,82.0,60.0,60.0,0.0,0.0
672,70.0,0.0,120.0,3.0,0.0
673,80.0,60.0,60.0,0.0,0.0
674,79.0,360.0,60.0,0.0,0.0
675,71.0,0.0,360.0,3.0,0.0
676,80.0,120.0,360.0,0.0,0.0
677,75.0,40.0,120.0,0.0,0.0
678,59.0,0.0,120.0,3.0,0.0
679,77.0,40.0,40.0,0.0,0.0
680,75.0,280.0,40.0,0.0,0.0
681,77.0,0.0,270.0,0.0,0.0
682,75.0,0.0,120.0,1.0,0.0
683,71.0,120.0,15.0,3.0,0.0
684,78.0,0.0,15.0,0.0,0.0
685,73.0,300.0,480.0,1.0,0.0
686,77.0,60.0,180.0,0.0,0.0
687,80.0,60.0,60.0,0.0,0.0
688,82.0,60.0,60.0,0.0,0.0
689,83.0,0.0,60.0,0.0,0.0
690,71.0,60.0,15.0,3.0,0.0
691,85.0,0.0,15.0,0.0,0.0
692,70.0,60.0,60.0,3.0,0.0
693,85.0,0.0,120.0,1.0,0.0
694,68.0,0.0,60.0,3.0,0.0
695,79.0,0.0,360.0,1.0,0.0
696,70.0,60.0,300.0,3.0,0.0
697,85.0,300.0,15.0,0.0,0.0
698,63.0,60.0,60.0,3.0,0.0
699,82.0,0.0,120.0,1.0,0.0
700,65.0,60.0,60.0,3.0,0.0
701,67.0,300.0,60.0,3.0,0.0
702,75.0,300.0,960.0,1.0,0.0
703,85.0,0.0,60.0,0.0,0.0
704,68.0,60.0,15.0,3.0,0.0
705,83.0,60.0,60.0,0.0,0.0
706,82.0,300.0,60.0,0.0,0.0
707,68.0,0.0,15.0,3.0,0.0
708,83.0,60.0,300.0,0.0,0.0
709,82.0,60.0,60.0,0.0,0.0
710,80.0,60.0,60.0,0.0,0.0
711,79.0,0.0,60.0,0.0,0.0
712,80.0,60.0,360.0,0.0,0.0
713,64.0,0.0,60.0,3.0,0.0
714,63.0,60.0,60.0,3.0,0.0
715,87.0,60.0,120.0,0.0,0.0
716,61.0,0.0,60.0,3.0,0.0
717,75.0,0.0,960.0,1.0,0.0
718,80.0,60.0,60.0,0.0,0.0
719,60.0,0.0,360.0,3.0,0.0
720,78.0,60.0,60.0,0.0,0.0
721,76.0,60.0,60.0,0.0,0.0
722,78.0,40.0,60.0,0.0,0.0
723,80.0,40.0,40.0,0.0,0.0
724,78.0,40.0,40.0,0.0,0.0
725,80.0,40.0,40.0,0.0,0.0
726,78.0,40.0,40.0,0.0,0.0
727,63.0,0.0,120.0,3.0,0.0
728,80.0,40.0,40.0,0.0,0.0
729,78.0,40.0,40.0,0.0,0.0
730,56.0,120.0,360.0,3.0,0.0
731,80.0,200.0,40.0,0.0,0.0
732,78.0,120.0,210.0,0.0,0.0
733,77.0,0.0,120.0,0.0,0.0
734,75.0,0.0,120.0,0.0,0.0
735,60.0,300.0,120.0,3.0,0.0
736,77.0,60.0,300.0,0.0,0.0
737,61.0,0.0,600.0,3.0,0.0
738,73.0,0.0,480.0,1.0,0.0
739,78.0,60.0,60.0,0.0,0.0
740,77.0,60.0,60.0,0.0,0.0
741,78.0,40.0,60.0,0.0,0.0
742,80.0,40.0,40.0,0.0,0.0
743,75.0,0.0,480.0,1.0,0.0
744,78.0,40.0,40.0,0.0,0.0
745,80.0,40.0,40.0,0.0,0.0
746,78.0,20.0,40.0,0.0,0.0
747,49.0,20.0,60.0,3.0,0.0
748,80.0,40.0,40.0,0.0,0.0
749,51.0,60.0,60.0,3.0,0.0
750,78.0,0.0,40.0,0.0,0.0
751,80.0,0.0,60.0,0.0,0.0
752,53.0,60.0,60.0,3.0,0.0
753,78.0,0.0,60.0,0.0,0.0
754,54.0,60.0,60.0,3.0,0.0
755,56.0,0.0,60.0,3.0,0.0
756,77.0,60.0,60.0,0.0,0.0
757,58.0,0.0,60.0,3.0,0.0
758,78.0,360.0,60.0,0.0,0.0
759,59.0,120.0,360.0,3.0,0.0
760,77.0,60.0,480.0,1.0,0.0
761,80.0,60.0,540.0,0.0,0.0
762,56.0,0.0,120.0,3.0,0.0
763,53.0,0.0,360.0,3.0,0.0
764,78.0,60.0,60.0,0.0,0.0
765,77.0,60.0,60.0,0.0,0.0
766,75.0,60.0,60.0,0.0,0.0
767,73.0,60.0,60.0,0.0,0.0
768,71.0,60.0,60.0,0.0,0.0
769,70.0,60.0,60.0,0.0,0.0
770,49.0,360.0,120.0,3.0,0.0
771,68.0,0.0,60.0,0.0,0.0
772,66.0,120.0,360.0,0.0,0.0
773,58.0,60.0,780.0,3.0,0.0
774,70.0,60.0,120.0,0.0,0.0
775,73.0,60.0,60.0,0.0,0.0
776,71.0,180.0,60.0,0.0,0.0
777,73.0,60.0,240.0,0.0,0.0
778,59.0,0.0,60.0,3.0,0.0
779,58.0,60.0,60.0,3.0,0.0
780,75.0,0.0,120.0,0.0,0.0
781,56.0,300.0,60.0,3.0,0.0
782,70.0,300.0,480.0,2.0,0.0
783,76.0,60.0,780.0,0.0,0.0
784,73.0,0.0,480.0,1.0,0.0
785,54.0,60.0,300.0,3.0,0.0
786,52.0,60.0,60.0,3.0,0.0
787,51.0,60.0,60.0,3.0,0.0
788,49.0,0.0,60.0,3.0,0.0
789,47.0,0.0,300.0,3.0,0.0
790,54.0,60.0,60.0,3.0,0.0
791,76.0,0.0,60.0,0.0,0.0
792,75.0,60.0,60.0,0.0,0.0
793,56.0,0.0,60.0,3.0,0.0
794,58.0,0.0,60.0,3.0,0.0
795,73.0,60.0,60.0,0.0,0.0
796,59.0,60.0,60.0,3.0,0.0
797,75.0,60.0,300.0,0.0,0.0
798,58.0,180.0,60.0,3.0,0.0
799,59.0,60.0,240.0,3.0,0.0
800,77.0,0.0,60.0,0.0,0.0
801,78.0,60.0,60.0,0.0,0.0
802,47.0,0.0,120.0,3.0,0.0
803,80.0,60.0,15.0,0.0,0.0
804,78.0,60.0,60.0,0.0,0.0
805,80.0,120.0,60.0,0.0,0.0
806,78.0,60.0,120.0,0.0,0.0
807,77.0,0.0,60.0,0.0,0.0
808,63.0,0.0,120.0,2.0,0.0
809,78.0,60.0,60.0,0.0,0.0
810,59.0,60.0,15.0,3.0,0.0
811,80.0,0.0,60.0,0.0,0.0
812,65.0,300.0,480.0,2.0,0.0
813,73.0,60.0,300.0,0.0,0.0
814,59.0,300.0,15.0,3.0,0.0
815,80.0,60.0,60.0,0.0,0.0
816,82.0,60.0,60.0,0.0,0.0
817,83.0,0.0,60.0,0.0,0.0
818,85.0,0.0,360.0,0.0,0.0
819,59.0,60.0,15.0,3.0,0.0
820,58.0,60.0,60.0,3.0,0.0
821,77.0,0.0,120.0,0.0,0.0
822,56.0,180.0,60.0,3.0,0.0
823,78.0,60.0,480.0,0.0,0.0
824,58.0,60.0,180.0,3.0,0.0
825,54.0,60.0,60.0,3.0,0.0
826,56.0,60.0,60.0,3.0,0.0
827,58.0,60.0,60.0,3.0,0.0
828,59.0,60.0,60.0,3.0,0.0
829,61.0,0.0,60.0,3.0,0.0
830,63.0,120.0,360.0,3.0,0.0
831,80.0,60.0,60.0,0.0,0.0
832,78.0,60.0,60.0,0.0,0.0
833,77.0,60.0,60.0,0.0,0.0
834,78.0,120.0,60.0,0.0,0.0
835,80.0,60.0,240.0,0.0,0.0
836,59.0,0.0,120.0,3.0,0.0
837,77.0,240.0,960.0,1.0,0.0
838,61.0,240.0,480.0,3.0,0.0
839,82.0,60.0,60.0,0.0,0.0
840,80.0,60.0,60.0,0.0,0.0
841,78.0,60.0,60.0,0.0,0.0
842,80.0,40.0,60.0,0.0,0.0
843,82.0,40.0,40.0,0.0,0.0
844,80.0,40.0,40.0,0.0,0.0
845,82.0,40.0,40.0,0.0,0.0
846,80.0,40.0,40.0,0.0,0.0
847,82.0,40.0,40.0,0.0,0.0
848,80.0,240.0,270.0,0.0,0.0
849,49.0,0.0,480.0,3.0,0.0
850,78.0,0.0,240.0,0.0,0.0
851,42.0,0.0,480.0,3.0,0.0
852,78.0,120.0,240.0,0.0,0.0
853,85.0,120.0,120.0,0.0,0.0
854,83.0,120.0,120.0,0.0,0.0
855,82.0,120.0,120.0,0.0,0.0
856,80.0,240.0,120.0,0.0,0.0
857,82.0,60.0,240.0,0.0,0.0
858,78.0,0.0,120.0,1.0,0.0
859,85.0,60.0,60.0,0.0,0.0
860,83.0,60.0,60.0,0.0,0.0
861,76.0,0.0,120.0,1.0,0.0
862,82.0,60.0,60.0,0.0,0.0
863,83.0,120.0,60.0,0.0,0.0
864,85.0,0.0,240.0,0.0,0.0
865,75.0,120.0,120.0,1.0,0.0
866,73.0,120.0,120.0,1.0,0.0
867,78.0,120.0,120.0,0.0,0.0
868,75.0,120.0,240.0,1.0,0.0
869,82.0,0.0,120.0,0.0,0.0
870,76.0,0.0,240.0,1.0,0.0
871,80.0,120.0,120.0,0.0,0.0
872,83.0,120.0,120.0,0.0,0.0
873,82.0,120.0,120.0,0.0,0.0
874,78.0,120.0,240.0,1.0,0.0
875,85.0,0.0,120.0,0.0,0.0
876,83.0,120.0,240.0,0.0,0.0
877,71.0,120.0,120.0,1.0,0.0
878,75.0,0.0,120.0,1.0,0.0
879,73.0,120.0,120.0,1.0,0.0
880,82.0,120.0,240.0,0.0,0.0
881,76.0,0.0,120.0,1.0,0.0
882,75.0,120.0,120.0,1.0,0.0
883,83.0,240.0,240.0,0.0,0.0
884,78.0,0.0,120.0,1.0,0.0
885,80.0,120.0,240.0,0.0,0.0
886,76.0,120.0,840.0,1.0,0.0
887,73.0,120.0,120.0,2.0,0.0
888,79.0,0.0,240.0,0.0,0.0
889,71.0,120.0,120.0,2.0,0.0
890,70.0,120.0,120.0,2.0,0.0
891,80.0,120.0,240.0,0.0,0.0
892,68.0,0.0,120.0,2.0,0.0
893,70.0,0.0,240.0,2.0,0.0
894,85.0,0.0,960.0,0.0,0.0
895,83.0,120.0,120.0,1.0,0.0
896,71.0,120.0,240.0,2.0,0.0
897,82.0,120.0,120.0,1.0,0.0
898,80.0,0.0,120.0,1.0,0.0
899,79.0,120.0,120.0,1.0,0.0
900,73.0,120.0,240.0,2.0,0.0
901,80.0,0.0,120.0,1.0,0.0
902,75.0,120.0,840.0,1.0,0.0
903,67.0,120.0,120.0,2.0,0.0
904,70.0,120.0,120.0,2.0,0.0
905,83.0,0.0,120.0,0.0,0.0
906,68.0,120.0,120.0,2.0,0.0
907,80.0,120.0,120.0,0.0,0.0
908,71.0,0.0,120.0,2.0,0.0
909,70.0,120.0,120.0,2.0,0.0
910,82.0,0.0,120.0,0.0,0.0
911,79.0,120.0,120.0,0.0,0.0
912,73.0,0.0,120.0,2.0,0.0
913,71.0,120.0,240.0,2.0,0.0
914,87.0,120.0,840.0,0.0,0.0
915,77.0,0.0,120.0,1.0,0.0
916,70.0,0.0,240.0,2.0,0.0
917,79.0,0.0,120.0,1.0,0.0
918,63.0,120.0,120.0,3.0,0.0
919,80.0,120.0,120.0,1.0,0.0
920,61.0,0.0,120.0,3.0,0.0
921,59.0,0.0,120.0,3.0,0.0
922,82.0,120.0,120.0,1.0,0.0
923,58.0,0.0,120.0,3.0,0.0
924,79.0,120.0,120.0,1.0,0.0
925,59.0,120.0,240.0,3.0,0.0
926,80.0,0.0,240.0,1.0,0.0
927,88.0,0.0,120.0,0.0,0.0
928,61.0,0.0,240.0,3.0,0.0
929,68.0,120.0,240.0,2.0,0.0
930,87.0,120.0,120.0,0.0,0.0
931,85.0,0.0,120.0,0.0,0.0
932,83.0,120.0,120.0,0.0,0.0
933,63.0,120.0,240.0,3.0,0.0
934,67.0,0.0,240.0,2.0,0.0
935,82.0,0.0,120.0,0.0,0.0
936,56.0,120.0,120.0,3.0,0.0
937,83.0,0.0,120.0,0.0,0.0
938,68.0,120.0,1200.0,2.0,0.0
939,59.0,0.0,120.0,3.0,0.0
940,80.0,120.0,120.0,0.0,0.0
941,58.0,0.0,120.0,3.0,0.0
942,85.0,120.0,120.0,0.0,0.0
943,61.0,0.0,120.0,3.0,0.0
944,80.0,120.0,120.0,0.0,0.0
945,59.0,120.0,120.0,3.0,0.0
946,87.0,0.0,120.0,0.0,0.0
947,80.0,0.0,120.0,0.0,0.0
948,63.0,120.0,120.0,3.0,0.0
949,61.0,120.0,240.0,3.0,0.0
950,88.0,120.0,120.0,0.0,0.0
951,87.0,0.0,120.0,0.0,0.0
952,85.0,120.0,120.0,0.0,0.0
953,63.0,0.0,240.0,3.0,0.0
954,83.0,0.0,120.0,0.0,0.0
955,82.0,120.0,120.0,0.0,0.0
956,64.0,0.0,240.0,3.0,0.0
957,80.0,120.0,120.0,0.0,0.0
958,73.0,120.0,240.0,1.0,0.0
959,78.0,120.0,120.0,0.0,0.0
960,58.0,0.0,120.0,3.0,0.0
961,61.0,0.0,120.0,3.0,0.0
962,82.0,0.0,120.0,0.0,0.0
963,80.0,0.0,120.0,0.0,0.0
964,75.0,120.0,240.0,1.0,0.0
965,59.0,120.0,120.0,3.0,0.0
966,83.0,0.0,120.0,0.0,0.0
967,63.0,0.0,120.0,3.0,0.0
968,61.0,120.0,120.0,3.0,0.0
969,82.0,0.0,120.0,0.0,0.0
970,76.0,0.0,240.0,1.0,0.0
971,64.0,0.0,120.0,3.0,0.0
972,85.0,120.0,120.0,0.0,0.0
973,63.0,0.0,240.0,3.0,0.0
974,78.0,0.0,240.0,1.0,0.0
975,83.0,120.0,120.0,0.0,0.0
976,85.0,60.0,120.0,0.0,0.0
977,64.0,60.0,240.0,3.0,0.0
978,80.0,0.0,240.0,1.0,0.0
979,87.0,60.0,60.0,0.0,0.0
980,85.0,60.0,60.0,0.0,0.0
981,87.0,60.0,60.0,0.0,0.0
982,85.0,0.0,60.0,0.0,0.0
983,82.0,120.0,240.0,1.0,0.0
984,66.0,0.0,240.0,3.0,0.0
985,87.0,60.0,60.0,0.0,0.0
986,85.0,60.0,60.0,0.0,0.0
987,83.0,60.0,60.0,0.0,0.0
988,85.0,0.0,60.0,0.0,0.0
989,87.0,0.0,480.0,0.0,0.0
990,59.0,120.0,120.0,3.0,0.0
991,83.0,120.0,480.0,1.0,0.0
992,63.0,120.0,120.0,3.0,0.0
993,61.0,120.0,120.0,3.0,0.0
994,64.0,0.0,120.0,3.0,0.0
995,63.0,120.0,120.0,3.0,0.0
996,83.0,0.0,240.0,0.0,0.0
997,78.0,240.0,240.0,1.0,0.0
998,66.0,0.0,120.0,3.0,0.0
999,64.0,0.0,240.0,3.0,0.0
1000,71.0,240.0,240.0,1.0,0.0
1001,80.0,0.0,240.0,0.0,0.0
1002,73.0,0.0,240.0,1.0,0.0
1003,82.0,0.0,240.0,0.0,0.0
1004,61.0,240.0,240.0,3.0,0.0
1005,70.0,0.0,240.0,1.0,0.0
1006,79.0,0.0,240.0,0.0,0.0
1007,63.0,240.0,240.0,3.0,0.0
1008,80.0,0.0,480.0,0.0,0.0
1009,71.0,60.0,240.0,1.0,0.0
1010,56.0,0.0,240.0,3.0,0.0
1011,68.0,60.0,120.0,2.0,0.0
1012,73.0,60.0,60.0,1.0,0.0
1013,72.0,0.0,60.0,1.0,0.0
1014,73.0,60.0,60.0,1.0,0.0
1015,66.0,60.0,120.0,2.0,0.0
1016,72.0,0.0,60.0,1.0,0.0
1017,64.0,60.0,120.0,2.0,0.0
1018,73.0,60.0,60.0,1.0,0.0
1019,72.0,0.0,60.0,1.0,0.0
1020,63.0,240.0,120.0,2.0,0.0
1021,70.0,60.0,60.0,1.0,0.0
1022,72.0,0.0,60.0,1.0,0.0
1023,73.0,0.0,480.0,1.0,0.0
1024,64.0,120.0,240.0,2.0,0.0
1025,66.0,0.0,240.0,2.0,0.0
1026,80.0,120.0,120.0,0.0,0.0
1027,78.0,120.0,120.0,0.0,0.0
1028,68.0,120.0,240.0,2.0,0.0
1029,76.0,120.0,120.0,0.0,0.0
1030,72.0,0.0,240.0,1.0,0.0
1031,75.0,0.0,120.0,0.0,0.0
1032,61.0,120.0,120.0,2.0,0.0
1033,73.0,120.0,240.0,1.0,0.0
1034,76.0,0.0,240.0,0.0,0.0
1035,64.0,0.0,120.0,2.0,0.0
1036,71.0,0.0,480.0,1.0,0.0
1037,78.0,120.0,240.0,0.0,0.0
1038,63.0,120.0,120.0,2.0,0.0
1039,66.0,0.0,120.0,2.0,0.0
1040,80.0,120.0,240.0,0.0,0.0
1041,65.0,120.0,120.0,2.0,0.0
1042,68.0,0.0,120.0,2.0,0.0
1043,73.0,120.0,120.0,0.0,0.0
1044,70.0,0.0,240.0,1.0,0.0
1045,66.0,0.0,960.0,2.0,0.0
1046,76.0,120.0,120.0,0.0,0.0
1047,75.0,120.0,120.0,0.0,0.0
1048,71.0,120.0,240.0,1.0,0.0
1049,78.0,0.0,120.0,0.0,0.0
1050,68.0,0.0,240.0,1.0,0.0
1051,77.0,120.0,120.0,0.0,0.0
1052,80.0,60.0,120.0,0.0,0.0
1053,70.0,0.0,120.0,1.0,0.0
1054,78.0,60.0,60.0,0.0,0.0
1055,80.0,120.0,60.0,0.0,0.0
1056,82.0,60.0,120.0,0.0,0.0
1057,54.0,0.0,120.0,3.0,0.0
1058,83.0,60.0,60.0,0.0,0.0
1059,82.0,60.0,60.0,0.0,0.0
1060,52.0,30.0,120.0,3.0,0.0
1061,80.0,60.0,60.0,0.0,0.0
1062,82.0,0.0,60.0,0.0,0.0
1063,83.0,30.0,30.0,0.0,0.0
1064,51.0,0.0,120.0,3.0,0.0
1065,82.0,30.0,30.0,0.0,0.0
1066,83.0,30.0,30.0,0.0,0.0
1067,82.0,60.0,30.0,0.0,0.0
1068,49.0,0.0,120.0,3.0,0.0
1069,80.0,60.0,60.0,0.0,0.0
1070,82.0,240.0,60.0,0.0,0.0
1071,83.0,0.0,240.0,0.0,0.0
1072,51.0,120.0,240.0,3.0,0.0
1073,82.0,120.0,120.0,0.0,0.0
1074,59.0,120.0,240.0,2.0,0.0
1075,52.0,0.0,240.0,3.0,0.0
1076,80.0,0.0,120.0,0.0,0.0
1077,78.0,120.0,120.0,0.0,0.0
1078,58.0,0.0,240.0,2.0,0.0
1079,54.0,0.0,240.0,3.0,0.0
1080,76.0,120.0,120.0,0.0,0.0
1081,59.0,0.0,960.0,2.0,0.0
1082,75.0,0.0,120.0,0.0,0.0
1083,47.0,120.0,120.0,3.0,0.0
1084,78.0,0.0,120.0,0.0,0.0
1085,51.0,120.0,120.0,3.0,0.0
1086,76.0,120.0,120.0,0.0,0.0
1087,49.0,0.0,120.0,3.0,0.0
1088,52.0,0.0,120.0,3.0,0.0
1089,80.0,120.0,120.0,0.0,0.0
1090,51.0,120.0,120.0,3.0,0.0
1091,78.0,0.0,120.0,0.0,0.0
1092,54.0,0.0,120.0,3.0,0.0
1093,81.0,120.0,120.0,0.0,0.0
1094,80.0,120.0,840.0,0.0,0.0
1095,52.0,120.0,120.0,3.0,0.0
1096,51.0,120.0,120.0,3.0,0.0
1097,49.0,120.0,120.0,3.0,0.0
1098,70.0,0.0,240.0,1.0,0.0
1099,47.0,60.0,120.0,3.0,0.0
1100,73.0,60.0,60.0,1.0,0.0
1101,46.0,0.0,120.0,3.0,0.0
1102,71.0,60.0,60.0,1.0,0.0
1103,44.0,0.0,120.0,3.0,0.0
1104,70.0,60.0,60.0,1.0,0.0
1105,71.0,120.0,60.0,1.0,0.0
1106,46.0,0.0,240.0,3.0,0.0
1107,73.0,60.0,240.0,1.0,0.0
1108,78.0,0.0,120.0,0.0,0.0
1109,76.0,0.0,120.0,0.0,0.0
1110,49.0,60.0,60.0,3.0,0.0
1111,47.0,60.0,60.0,3.0,0.0
1112,46.0,60.0,60.0,3.0,0.0
1113,75.0,120.0,120.0,0.0,0.0
1114,47.0,0.0,60.0,3.0,0.0
1115,49.0,0.0,240.0,3.0,0.0
1116,76.0,120.0,120.0,0.0,0.0
1117,82.0,120.0,120.0,0.0,0.0
1118,85.0,120.0,120.0,0.0,0.0
1119,42.0,0.0,120.0,3.0,0.0
1120,46.0,0.0,120.0,3.0,0.0
1121,78.0,120.0,120.0,0.0,0.0
1122,76.0,120.0,120.0,0.0,0.0
1123,44.0,0.0,120.0,3.0,0.0
1124,47.0,0.0,120.0,3.0,0.0
1125,75.0,120.0,120.0,0.0,0.0
1126,46.0,0.0,120.0,3.0,0.0
1127,76.0,120.0,120.0,0.0,0.0
1128,49.0,0.0,120.0,3.0,0.0
1129,73.0,120.0,120.0,0.0,0.0
1130,47.0,60.0,240.0,3.0,0.0
1131,75.0,120.0,120.0,0.0,0.0
1132,80.0,0.0,120.0,0.0,0.0
1133,78.0,0.0,120.0,0.0,0.0
1134,51.0,60.0,60.0,3.0,0.0
1135,49.0,60.0,60.0,3.0,0.0
1136,76.0,120.0,120.0,0.0,0.0
1137,47.0,60.0,60.0,3.0,0.0
1138,49.0,0.0,60.0,3.0,0.0
1139,78.0,120.0,120.0,0.0,0.0
1140,51.0,120.0,240.0,3.0,0.0
1141,84.0,0.0,120.0,0.0,0.0
1142,87.0,0.0,120.0,0.0,0.0
1143,44.0,120.0,120.0,3.0,0.0
1144,48.0,120.0,120.0,3.0,0.0
1145,80.0,0.0,120.0,0.0,0.0
1146,78.0,0.0,120.0,0.0,0.0
1147,46.0,120.0,120.0,3.0,0.0
1148,76.0,120.0,120.0,0.0,0.0
1149,49.0,0.0,120.0,3.0,0.0
1150,48.0,120.0,120.0,3.0,0.0
1151,78.0,0.0,120.0,0.0,0.0
1152,51.0,0.0,120.0,3.0,0.0
1153,75.0,120.0,120.0,0.0,0.0
1154,49.0,120.0,120.0,3.0,0.0
1155,76.0,0.0,840.0,0.0,0.0
1156,71.0,0.0,120.0,1.0,0.0
1157,56.0,120.0,120.0,3.0,0.0
1158,70.0,0.0,120.0,1.0,0.0
1159,61.0,120.0,120.0,3.0,0.0
1160,71.0,120.0,120.0,1.0,0.0
1161,59.0,0.0,120.0,3.0,0.0
1162,73.0,0.0,120.0,1.0,0.0
1163,58.0,120.0,120.0,3.0,0.0
1164,70.0,0.0,120.0,1.0,0.0
1165,56.0,120.0,120.0,3.0,0.0
1166,58.0,120.0,120.0,3.0,0.0
1167,66.0,120.0,840.0,1.0,0.0
1168,59.0,120.0,120.0,3.0,0.0
1169,75.0,0.0,120.0,0.0,0.0
1170,73.0,120.0,120.0,0.0,0.0
1171,58.0,0.0,120.0,3.0,0.0
1172,75.0,0.0,120.0,0.0,0.0
1173,56.0,120.0,120.0,3.0,0.0
1174,76.0,120.0,120.0,0.0,0.0
1175,54.0,0.0,120.0,3.0,0.0
1176,52.0,0.0,120.0,3.0,0.0
1177,73.0,120.0,120.0,0.0,0.0
1178,51.0,0.0,120.0,3.0,0.0
1179,78.0,120.0,480.0,0.0,0.0
1180,70.0,120.0,120.0,1.0,0.0
1181,54.0,0.0,120.0,3.0,0.0
1182,68.0,120.0,120.0,1.0,0.0
1183,52.0,0.0,120.0,3.0,0.0
1184,56.0,0.0,120.0,3.0,0.0
1185,71.0,0.0,120.0,1.0,0.0
1186,54.0,120.0,120.0,3.0,0.0
1187,70.0,240.0,240.0,1.0,0.0
1188,75.0,0.0,240.0,0.0,0.0
1189,58.0,0.0,120.0,3.0,0.0
1190,71.0,240.0,240.0,0.0,0.0
1191,56.0,0.0,240.0,3.0,0.0
1192,63.0,0.0,240.0,1.0,0.0
1193,64.0,240.0,240.0,1.0,0.0
1194,73.0,0.0,240.0,0.0,0.0
1195,52.0,0.0,240.0,3.0,0.0
1196,70.0,120.0,240.0,0.0,0.0
1197,54.0,0.0,240.0,3.0,0.0
1198,61.0,0.0,240.0,1.0,0.0
1199,63.0,0.0,480.0,1.0,0.0
1200,71.0,0.0,480.0,0.0,0.0
1201,47.0,120.0,120.0,3.0,0.0
1202,46.0,120.0,120.0,3.0,0.0
1203,47.0,120.0,120.0,3.0,0.0
1204,49.0,120.0,120.0,3.0,0.0
1205,51.0,120.0,120.0,3.0,0.0
1206,52.0,240.0,120.0,3.0,0.0
1207,54.0,120.0,240.0,3.0,0.0
1208,42.0,0.0,240.0,3.0,0.0
1209,85.0,120.0,120.0,0.0,0.0
1210,83.0,120.0,120.0,0.0,0.0
1211,82.0,120.0,120.0,0.0,0.0
1212,80.0,240.0,120.0,0.0,0.0
1213,82.0,60.0,240.0,0.0,0.0
1214,78.0,0.0,120.0,1.0,0.0
1215,85.0,60.0,60.0,0.0,0.0
1216,83.0,60.0,60.0,0.0,0.0
1217,82.0,60.0,60.0,0.0,0.0
1218,76.0,120.0,120.0,1.0,0.0
1219,83.0,0.0,60.0,0.0,0.0
1220,85.0,120.0,240.0,0.0,0.0
1221,75.0,120.0,120.0,1.0,0.0
1222,73.0,0.0,120.0,1.0,0.0
1223,75.0,120.0,240.0,1.0,0.0
1224,78.0,120.0,120.0,0.0,0.0
1225,82.0,0.0,120.0,0.0,0.0
1226,80.0,120.0,120.0,0.0,0.0
1227,76.0,0.0,240.0,1.0,0.0
1228,83.0,120.0,120.0,0.0,0.0
1229,78.0,0.0,240.0,1.0,0.0
1230,82.0,120.0,120.0,0.0,0.0
1231,85.0,120.0,120.0,0.0,0.0
1232,83.0,120.0,240.0,0.0,0.0
1233,71.0,120.0,120.0,1.0,0.0
1234,75.0,0.0,120.0,1.0,0.0
1235,82.0,0.0,240.0,0.0,0.0
1236,73.0,120.0,120.0,1.0,0.0
1237,76.0,120.0,120.0,1.0,0.0
1238,83.0,240.0,240.0,0.0,0.0
1239,75.0,120.0,120.0,1.0,0.0
1240,78.0,0.0,120.0,1.0,0.0
1241,76.0,120.0,840.0,1.0,0.0
1242,80.0,120.0,240.0,0.0,0.0
1243,73.0,120.0,120.0,2.0,0.0
1244,79.0,120.0,240.0,0.0,0.0
1245,71.0,0.0,120.0,2.0,0.0
1246,70.0,120.0,120.0,2.0,0.0
1247,80.0,120.0,240.0,0.0,0.0
1248,68.0,0.0,120.0,2.0,0.0
1249,85.0,0.0,960.0,0.0,0.0
1250,70.0,0.0,240.0,2.0,0.0
1251,83.0,120.0,120.0,1.0,0.0
1252,71.0,120.0,240.0,2.0,0.0
1253,82.0,120.0,120.0,1.0,0.0
1254,80.0,0.0,120.0,1.0,0.0
1255,73.0,0.0,240.0,2.0,0.0
1256,79.0,120.0,120.0,1.0,0.0
1257,80.0,120.0,120.0,1.0,0.0
1258,75.0,120.0,840.0,1.0,0.0
1259,67.0,120.0,120.0,2.0,0.0
1260,70.0,120.0,120.0,2.0,0.0
1261,83.0,120.0,120.0,0.0,0.0
1262,68.0,0.0,120.0,2.0,0.0
1263,71.0,0.0,120.0,2.0,0.0
1264,80.0,120.0,120.0,0.0,0.0
1265,70.0,0.0,120.0,2.0,0.0
1266,82.0,120.0,120.0,0.0,0.0
1267,79.0,120.0,120.0,0.0,0.0
1268,73.0,0.0,120.0,2.0,0.0
1269,87.0,120.0,840.0,0.0,0.0
1270,71.0,0.0,240.0,2.0,0.0
1271,77.0,120.0,120.0,1.0,0.0
1272,63.0,0.0,120.0,3.0,0.0
1273,70.0,0.0,240.0,2.0,0.0
1274,79.0,120.0,120.0,1.0,0.0
1275,61.0,0.0,120.0,3.0,0.0
1276,80.0,120.0,120.0,1.0,0.0
1277,82.0,0.0,120.0,1.0,0.0
1278,59.0,120.0,120.0,3.0,0.0
1279,79.0,0.0,120.0,1.0,0.0
1280,58.0,120.0,120.0,3.0,0.0
1281,59.0,120.0,240.0,3.0,0.0
1282,80.0,0.0,240.0,1.0,0.0
1283,88.0,0.0,120.0,0.0,0.0
1284,61.0,0.0,240.0,3.0,0.0
1285,68.0,0.0,240.0,2.0,0.0
1286,87.0,120.0,120.0,0.0,0.0
1287,85.0,120.0,120.0,0.0,0.0
1288,63.0,120.0,240.0,3.0,0.0
1289,67.0,0.0,240.0,2.0,0.0
1290,83.0,120.0,120.0,0.0,0.0
1291,82.0,0.0,120.0,0.0,0.0
1292,83.0,0.0,120.0,0.0,0.0
1293,68.0,0.0,1200.0,2.0,0.0
1294,56.0,120.0,120.0,3.0,0.0
1295,80.0,120.0,120.0,0.0,0.0
1296,59.0,0.0,120.0,3.0,0.0
1297,58.0,0.0,120.0,3.0,0.0
1298,85.0,120.0,120.0,0.0,0.0
1299,61.0,120.0,120.0,3.0,0.0
1300,80.0,0.0,120.0,0.0,0.0
1301,87.0,120.0,120.0,0.0,0.0
1302,59.0,0.0,120.0,3.0,0.0
1303,63.0,0.0,120.0,3.0,0.0
1304,80.0,120.0,120.0,0.0,0.0
1305,88.0,120.0,120.0,0.0,0.0
1306,61.0,0.0,240.0,3.0,0.0
1307,87.0,120.0,120.0,0.0,0.0
1308,63.0,0.0,240.0,3.0,0.0
1309,85.0,120.0,120.0,0.0,0.0
1310,83.0,120.0,120.0,0.0,0.0
1311,64.0,0.0,240.0,3.0,0.0
1312,82.0,120.0,120.0,0.0,0.0
1313,80.0,120.0,120.0,0.0,0.0
1314,58.0,0.0,120.0,3.0,0.0
1315,78.0,120.0,120.0,0.0,0.0
1316,73.0,0.0,240.0,1.0,0.0
1317,82.0,120.0,120.0,0.0,0.0
1318,61.0,0.0,120.0,3.0,0.0
1319,75.0,0.0,240.0,1.0,0.0
1320,80.0,120.0,120.0,0.0,0.0
1321,59.0,0.0,120.0,3.0,0.0
1322,63.0,0.0,120.0,3.0,0.0
1323,83.0,120.0,120.0,0.0,0.0
1324,76.0,0.0,240.0,1.0,0.0
1325,61.0,120.0,120.0,3.0,0.0
1326,82.0,0.0,120.0,0.0,0.0
1327,85.0,120.0,120.0,0.0,0.0
1328,64.0,0.0,120.0,3.0,0.0
1329,83.0,120.0,120.0,0.0,0.0
1330,63.0,60.0,240.0,3.0,0.0
1331,78.0,0.0,240.0,1.0,0.0
1332,85.0,0.0,120.0,0.0,0.0
1333,80.0,0.0,240.0,1.0,0.0
1334,87.0,60.0,60.0,0.0,0.0
1335,64.0,60.0,240.0,3.0,0.0
1336,85.0,60.0,60.0,0.0,0.0
1337,87.0,60.0,60.0,0.0,0.0
1338,85.0,0.0,60.0,0.0,0.0
1339,66.0,0.0,240.0,3.0,0.0
1340,82.0,120.0,240.0,1.0,0.0
1341,87.0,60.0,60.0,0.0,0.0
1342,85.0,60.0,60.0,0.0,0.0
1343,83.0,60.0,60.0,0.0,0.0
1344,85.0,0.0,60.0,0.0,0.0
1345,83.0,0.0,480.0,1.0,0.0
1346,87.0,120.0,480.0,0.0,0.0
1347,59.0,120.0,120.0,3.0,0.0
1348,63.0,120.0,120.0,3.0,0.0
1349,61.0,120.0,120.0,3.0,0.0
1350,64.0,0.0,120.0,3.0,0.0
1351,78.0,0.0,240.0,1.0,0.0
1352,83.0,240.0,240.0,0.0,0.0
1353,63.0,120.0,120.0,3.0,0.0
1354,66.0,0.0,120.0,3.0,0.0
1355,64.0,0.0,240.0,3.0,0.0
1356,71.0,0.0,240.0,1.0,0.0
1357,80.0,240.0,240.0,0.0,0.0
1358,73.0,240.0,240.0,1.0,0.0
1359,61.0,0.0,240.0,3.0,0.0
1360,82.0,0.0,240.0,0.0,0.0
1361,70.0,240.0,240.0,1.0,0.0
1362,79.0,0.0,240.0,0.0,0.0
1363,63.0,0.0,240.0,3.0,0.0
1364,56.0,60.0,240.0,3.0,0.0
1365,71.0,0.0,240.0,1.0,0.0
1366,80.0,60.0,480.0,0.0,0.0
1367,73.0,60.0,60.0,1.0,0.0
1368,68.0,60.0,120.0,2.0,0.0
1369,72.0,0.0,60.0,1.0,0.0
1370,73.0,60.0,60.0,1.0,0.0
1371,66.0,0.0,120.0,2.0,0.0
1372,72.0,0.0,60.0,1.0,0.0
1373,64.0,60.0,120.0,2.0,0.0
1374,73.0,60.0,60.0,1.0,0.0
1375,72.0,0.0,60.0,1.0,0.0
1376,63.0,240.0,120.0,2.0,0.0
1377,70.0,60.0,60.0,1.0,0.0
1378,72.0,0.0,60.0,1.0,0.0
1379,73.0,0.0,480.0,1.0,0.0
1380,64.0,120.0,240.0,2.0,0.0
1381,80.0,120.0,120.0,0.0,0.0
1382,66.0,0.0,240.0,2.0,0.0
1383,78.0,120.0,120.0,0.0,0.0
1384,68.0,0.0,240.0,2.0,0.0
1385,72.0,0.0,240.0,1.0,0.0
1386,76.0,120.0,120.0,0.0,0.0
1387,75.0,120.0,120.0,0.0,0.0
1388,61.0,120.0,120.0,2.0,0.0
1389,73.0,120.0,240.0,1.0,0.0
1390,76.0,0.0,240.0,0.0,0.0
1391,64.0,0.0,120.0,2.0,0.0
1392,63.0,120.0,120.0,2.0,0.0
1393,78.0,0.0,240.0,0.0,0.0
1394,71.0,120.0,480.0,1.0,0.0
1395,66.0,120.0,120.0,2.0,0.0
1396,80.0,0.0,240.0,0.0,0.0
1397,65.0,120.0,120.0,2.0,0.0
1398,68.0,0.0,120.0,2.0,0.0
1399,66.0,60.0,960.0,2.0,0.0
1400,73.0,120.0,120.0,0.0,0.0
1401,70.0,120.0,240.0,1.0,0.0
1402,76.0,0.0,120.0,0.0,0.0
1403,75.0,120.0,120.0,0.0,0.0
1404,71.0,0.0,240.0,1.0,0.0
1405,78.0,120.0,120.0,0.0,0.0
1406,68.0,60.0,240.0,1.0,0.0
1407,77.0,120.0,120.0,0.0,0.0
1408,80.0,0.0,120.0,0.0,0.0
1409,78.0,60.0,60.0,0.0,0.0
1410,70.0,0.0,120.0,1.0,0.0
1411,80.0,120.0,60.0,0.0,0.0
1412,82.0,0.0,120.0,0.0,0.0
1413,83.0,60.0,60.0,0.0,0.0
1414,54.0,0.0,120.0,3.0,0.0
1415,82.0,60.0,60.0,0.0,0.0
1416,80.0,60.0,60.0,0.0,0.0
1417,52.0,0.0,120.0,3.0,0.0
1418,82.0,30.0,60.0,0.0,0.0
1419,51.0,60.0,120.0,3.0,0.0
1420,83.0,30.0,30.0,0.0,0.0
1421,82.0,30.0,30.0,0.0,0.0
1422,83.0,30.0,30.0,0.0,0.0
1423,82.0,0.0,30.0,0.0,0.0
1424,80.0,60.0,60.0,0.0,0.0
1425,49.0,0.0,120.0,3.0,0.0
1426,82.0,240.0,60.0,0.0,0.0
1427,83.0,120.0,240.0,0.0,0.0
1428,51.0,0.0,240.0,3.0,0.0
1429,52.0,120.0,240.0,3.0,0.0
1430,59.0,0.0,240.0,2.0,0.0
1431,82.0,120.0,120.0,0.0,0.0
1432,80.0,0.0,120.0,0.0,0.0
1433,58.0,120.0,240.0,2.0,0.0
1434,78.0,120.0,120.0,0.0,0.0
1435,54.0,0.0,240.0,3.0,0.0
1436,76.0,0.0,120.0,0.0,0.0
1437,47.0,0.0,120.0,3.0,0.0
1438,75.0,120.0,120.0,0.0,0.0
1439,59.0,120.0,960.0,2.0,0.0
1440,78.0,120.0,120.0,0.0,0.0
1441,51.0,0.0,120.0,3.0,0.0
1442,49.0,120.0,120.0,3.0,0.0
1443,76.0,0.0,120.0,0.0,0.0
1444,80.0,0.0,120.0,0.0,0.0
1445,52.0,120.0,120.0,3.0,0.0
1446,51.0,0.0,120.0,3.0,0.0
1447,78.0,120.0,120.0,0.0,0.0
1448,81.0,120.0,120.0,0.0,0.0
1449,54.0,0.0,120.0,3.0,0.0
1450,80.0,120.0,840.0,0.0,0.0
1451,52.0,120.0,120.0,3.0,0.0
1452,51.0,0.0,120.0,3.0,0.0
1453,49.0,120.0,120.0,3.0,0.0
1454,70.0,0.0,240.0,1.0,0.0
1455,47.0,60.0,120.0,3.0,0.0
1456,73.0,60.0,60.0,1.0,0.0
1457,46.0,0.0,120.0,3.0,0.0
1458,71.0,60.0,60.0,1.0,0.0
1459,44.0,0.0,120.0,3.0,0.0
1460,70.0,60.0,60.0,1.0,0.0
1461,71.0,120.0,60.0,1.0,0.0
1462,73.0,0.0,240.0,1.0,0.0
1463,46.0,60.0,240.0,3.0,0.0
1464,78.0,0.0,120.0,0.0,0.0
1465,49.0,60.0,60.0,3.0,0.0
1466,76.0,0.0,120.0,0.0,0.0
1467,47.0,60.0,60.0,3.0,0.0
1468,75.0,0.0,120.0,0.0,0.0
1469,46.0,60.0,60.0,3.0,0.0
1470,47.0,120.0,60.0,3.0,0.0
1471,49.0,0.0,240.0,3.0,0.0
1472,76.0,120.0,120.0,0.0,0.0
1473,82.0,120.0,120.0,0.0,0.0
1474,42.0,120.0,120.0,3.0,0.0
1475,85.0,0.0,120.0,0.0,0.0
1476,46.0,0.0,120.0,3.0,0.0
1477,78.0,120.0,120.0,0.0,0.0
1478,44.0,0.0,120.0,3.0,0.0
1479,76.0,120.0,120.0,0.0,0.0
1480,47.0,0.0,120.0,3.0,0.0
1481,75.0,120.0,120.0,0.0,0.0
1482,46.0,120.0,120.0,3.0,0.0
1483,76.0,0.0,120.0,0.0,0.0
1484,49.0,120.0,120.0,3.0,0.0
1485,73.0,0.0,120.0,0.0,0.0
1486,75.0,120.0,120.0,0.0,0.0
1487,47.0,60.0,240.0,3.0,0.0
1488,80.0,0.0,120.0,0.0,0.0
1489,78.0,60.0,120.0,0.0,0.0
1490,51.0,60.0,60.0,3.0,0.0
1491,49.0,0.0,60.0,3.0,0.0
1492,47.0,60.0,60.0,3.0,0.0
1493,76.0,120.0,120.0,0.0,0.0
1494,49.0,0.0,60.0,3.0,0.0
1495,78.0,120.0,120.0,0.0,0.0
1496,51.0,120.0,240.0,3.0,0.0
1497,84.0,0.0,120.0,0.0,0.0
1498,87.0,120.0,120.0,0.0,0.0
1499,44.0,0.0,120.0,3.0,0.0
1500,48.0,0.0,120.0,3.0,0.0
1501,80.0,120.0,120.0,0.0,0.0
1502,46.0,0.0,120.0,3.0,0.0
1503,78.0,120.0,120.0,0.0,0.0
1504,49.0,0.0,120.0,3.0,0.0
1505,76.0,120.0,120.0,0.0,0.0
1506,48.0,0.0,120.0,3.0,0.0
1507,78.0,120.0,120.0,0.0,0.0
1508,51.0,120.0,120.0,3.0,0.0
1509,75.0,0.0,120.0,0.0,0.0
1510,76.0,120.0,840.0,0.0,0.0
1511,49.0,120.0,120.0,3.0,0.0
1512,71.0,120.0,120.0,1.0,0.0
1513,56.0,0.0,120.0,3.0,0.0
1514,61.0,120.0,120.0,3.0,0.0
1515,70.0,0.0,120.0,1.0,0.0
1516,59.0,120.0,120.0,3.0,0.0
1517,71.0,0.0,120.0,1.0,0.0
1518,58.0,0.0,120.0,3.0,0.0
1519,73.0,120.0,120.0,1.0,0.0
1520,70.0,0.0,120.0,1.0,0.0
1521,56.0,120.0,120.0,3.0,0.0
1522,66.0,0.0,840.0,1.0,0.0
1523,58.0,0.0,120.0,3.0,0.0
1524,59.0,0.0,120.0,3.0,0.0
1525,75.0,120.0,120.0,0.0,0.0
1526,58.0,0.0,120.0,3.0,0.0
1527,73.0,120.0,120.0,0.0,0.0
1528,56.0,0.0,120.0,3.0,0.0
1529,75.0,120.0,120.0,0.0,0.0
1530,54.0,0.0,120.0,3.0,0.0
1531,76.0,120.0,120.0,0.0,0.0
1532,52.0,0.0,120.0,3.0,0.0
1533,73.0,120.0,120.0,0.0,0.0
1534,51.0,120.0,120.0,3.0,0.0
1535,78.0,120.0,480.0,0.0,0.0
1536,70.0,0.0,120.0,1.0,0.0
1537,54.0,120.0,120.0,3.0,0.0
1538,68.0,0.0,120.0,1.0,0.0
1539,52.0,120.0,120.0,3.0,0.0
1540,71.0,0.0,120.0,1.0,0.0
1541,56.0,0.0,120.0,3.0,0.0
1542,70.0,0.0,240.0,1.0,0.0
1543,54.0,120.0,120.0,3.0,0.0
1544,75.0,240.0,240.0,0.0,0.0
1545,58.0,0.0,120.0,3.0,0.0
1546,63.0,240.0,240.0,1.0,0.0
1547,71.0,0.0,240.0,0.0,0.0
1548,56.0,0.0,240.0,3.0,0.0
1549,52.0,0.0,240.0,3.0,0.0
1550,73.0,0.0,240.0,0.0,0.0
1551,64.0,240.0,240.0,1.0,0.0
1552,54.0,0.0,240.0,3.0,0.0
1553,70.0,0.0,240.0,0.0,0.0
1554,61.0,1920.0,240.0,1.0,0.0
1555,47.0,0.0,1920.0,3.0,0.0
1556,71.0,0.0,1920.0,0.0,0.0
1557,66.0,0.0,1920.0,1.0,0.0
1558,63.0,0.0,1920.0,2.0,0.0
