,note,step,duration,channel,velocity
0,59.0,0.0,1440.0,3.0,0.0
1,83.0,480.0,480.0,0.0,0.0
2,63.0,0.0,960.0,2.0,0.0
3,83.0,60.0,480.0,0.0,0.0
4,85.0,60.0,60.0,0.0,0.0
5,66.0,0.0,480.0,1.0,0.0
6,83.0,240.0,60.0,0.0,0.0
7,85.0,120.0,240.0,0.0,0.0
8,87.0,240.0,120.0,0.0,0.0
9,58.0,0.0,1440.0,3.0,0.0
10,85.0,120.0,240.0,0.0,0.0
11,83.0,120.0,120.0,0.0,0.0
12,82.0,240.0,120.0,0.0,0.0
13,61.0,0.0,960.0,2.0,0.0
14,80.0,720.0,240.0,0.0,0.0
15,78.0,0.0,720.0,0.0,0.0
16,66.0,60.0,480.0,1.0,0.0
17,71.0,60.0,60.0,0.0,0.0
18,56.0,0.0,1440.0,3.0,0.0
19,70.0,360.0,60.0,0.0,0.0
20,71.0,60.0,360.0,0.0,0.0
21,59.0,60.0,960.0,2.0,0.0
22,73.0,60.0,60.0,0.0,0.0
23,71.0,60.0,60.0,0.0,0.0
24,70.0,60.0,60.0,0.0,0.0
25,71.0,60.0,60.0,0.0,0.0
26,73.0,60.0,60.0,0.0,0.0
27,71.0,60.0,60.0,0.0,0.0
28,73.0,60.0,60.0,0.0,0.0
29,71.0,40.0,60.0,0.0,0.0
30,73.0,40.0,30.0,0.0,0.0
31,65.0,0.0,480.0,1.0,0.0
32,71.0,40.0,30.0,0.0,0.0
33,73.0,40.0,30.0,0.0,0.0
34,71.0,40.0,30.0,0.0,0.0
35,73.0,41.0,30.0,0.0,0.0
36,71.0,119.0,30.0,0.0,0.0
37,70.0,120.0,120.0,0.0,0.0
38,71.0,0.0,120.0,0.0,0.0
39,54.0,240.0,1200.0,3.0,0.0
40,73.0,60.0,60.0,0.0,0.0
41,71.0,120.0,60.0,0.0,0.0
42,70.0,60.0,120.0,0.0,0.0
43,71.0,60.0,60.0,0.0,0.0
44,70.0,120.0,60.0,0.0,0.0
45,68.0,240.0,120.0,0.0,0.0
46,58.0,0.0,960.0,2.0,0.0
47,68.0,480.0,240.0,0.0,0.0
48,66.0,480.0,720.0,0.0,0.0
49,61.0,0.0,480.0,1.0,0.0
50,52.0,0.0,240.0,3.0,0.0
51,51.0,240.0,1440.0,3.0,0.0
52,78.0,480.0,480.0,0.0,0.0
53,78.0,60.0,480.0,0.0,0.0
54,54.0,0.0,960.0,2.0,0.0
55,80.0,60.0,60.0,0.0,0.0
56,59.0,0.0,480.0,1.0,0.0
57,78.0,240.0,60.0,0.0,0.0
58,80.0,120.0,240.0,0.0,0.0
59,81.0,0.0,120.0,0.0,0.0
60,80.0,120.0,240.0,0.0,0.0
61,52.0,0.0,1200.0,3.0,0.0
62,78.0,120.0,120.0,0.0,0.0
63,76.0,240.0,120.0,0.0,0.0
64,56.0,0.0,720.0,2.0,0.0
65,75.0,480.0,240.0,0.0,0.0
66,73.0,60.0,480.0,0.0,0.0
67,61.0,0.0,480.0,1.0,0.0
68,54.0,60.0,240.0,3.0,0.0
69,83.0,60.0,60.0,0.0,0.0
70,82.0,60.0,60.0,0.0,0.0
71,80.0,60.0,60.0,0.0,0.0
72,82.0,0.0,60.0,0.0,0.0
73,56.0,0.0,240.0,3.0,0.0
74,83.0,180.0,60.0,0.0,0.0
75,82.0,60.0,180.0,0.0,0.0
76,64.0,60.0,480.0,1.0,0.0
77,52.0,0.0,240.0,3.0,0.0
78,85.0,180.0,60.0,0.0,0.0
79,83.0,60.0,180.0,0.0,0.0
80,54.0,0.0,960.0,3.0,0.0
81,82.0,180.0,60.0,0.0,0.0
82,80.0,0.0,180.0,0.0,0.0
83,78.0,60.0,60.0,0.0,0.0
84,63.0,120.0,120.0,1.0,0.0
85,76.0,120.0,180.0,0.0,0.0
86,61.0,0.0,120.0,1.0,0.0
87,76.0,0.0,120.0,0.0,0.0
88,59.0,120.0,120.0,1.0,0.0
89,58.0,120.0,120.0,1.0,0.0
90,85.0,0.0,240.0,0.0,0.0
91,56.0,120.0,120.0,1.0,0.0
92,76.0,60.0,120.0,0.0,0.0
93,58.0,0.0,120.0,1.0,0.0
94,47.0,60.0,720.0,3.0,0.0
95,75.0,180.0,60.0,0.0,0.0
96,59.0,120.0,240.0,1.0,0.0
97,71.0,120.0,300.0,0.0,0.0
98,61.0,0.0,240.0,1.0,0.0
99,70.0,240.0,120.0,0.0,0.0
100,63.0,0.0,960.0,1.0,0.0
101,70.0,0.0,240.0,0.0,0.0
102,71.0,60.0,60.0,0.0,0.0
103,54.0,30.0,240.0,3.0,0.0
104,70.0,120.0,60.0,0.0,0.0
105,71.0,0.0,600.0,0.0,0.0
106,56.0,30.0,30.0,3.0,0.0
107,54.0,300.0,30.0,3.0,0.0
108,56.0,120.0,300.0,3.0,0.0
109,58.0,480.0,120.0,3.0,0.0
110,75.0,480.0,480.0,0.0,0.0
111,63.0,0.0,960.0,1.0,0.0
112,75.0,60.0,480.0,0.0,0.0
113,77.0,60.0,60.0,0.0,0.0
114,68.0,0.0,480.0,2.0,0.0
115,75.0,240.0,60.0,0.0,0.0
116,77.0,120.0,240.0,0.0,0.0
117,61.0,0.0,480.0,1.0,0.0
118,78.0,120.0,15.0,0.0,0.0
119,77.0,120.0,120.0,0.0,0.0
120,75.0,120.0,120.0,0.0,0.0
121,73.0,90.0,990.0,0.0,0.0
122,78.0,390.0,960.0,2.0,0.0
123,59.0,40.0,15.0,3.0,0.0
124,58.0,40.0,30.0,3.0,0.0
125,59.0,120.0,30.0,3.0,0.0
126,58.0,240.0,120.0,3.0,0.0
127,56.0,240.0,240.0,3.0,0.0
128,58.0,150.0,240.0,3.0,0.0
129,63.0,0.0,240.0,3.0,0.0
130,71.0,30.0,480.0,0.0,0.0
131,75.0,30.0,480.0,0.0,0.0
132,80.0,30.0,480.0,0.0,0.0
133,83.0,0.0,480.0,0.0,0.0
134,63.0,60.0,240.0,1.0,0.0
135,85.0,60.0,60.0,0.0,0.0
136,68.0,0.0,720.0,2.0,0.0
137,83.0,60.0,60.0,0.0,0.0
138,82.0,60.0,60.0,0.0,0.0
139,83.0,0.0,60.0,0.0,0.0
140,85.0,60.0,60.0,0.0,0.0
141,56.0,60.0,15.0,3.0,0.0
142,83.0,60.0,60.0,0.0,0.0
143,85.0,60.0,60.0,0.0,0.0
144,83.0,0.0,60.0,0.0,0.0
145,85.0,40.0,30.0,0.0,0.0
146,58.0,0.0,240.0,3.0,0.0
147,83.0,40.0,30.0,0.0,0.0
148,85.0,40.0,30.0,0.0,0.0
149,83.0,40.0,30.0,0.0,0.0
150,85.0,40.0,30.0,0.0,0.0
151,83.0,120.0,30.0,0.0,0.0
152,66.0,240.0,240.0,2.0,0.0
153,82.0,120.0,120.0,0.0,0.0
154,59.0,0.0,240.0,3.0,0.0
155,83.0,0.0,120.0,0.0,0.0
156,61.0,60.0,720.0,3.0,0.0
157,65.0,120.0,240.0,2.0,0.0
158,83.0,0.0,240.0,0.0,0.0
159,82.0,120.0,120.0,0.0,0.0
160,66.0,60.0,240.0,2.0,0.0
161,80.0,0.0,120.0,0.0,0.0
162,68.0,120.0,960.0,2.0,0.0
163,78.0,60.0,60.0,0.0,0.0
164,77.0,60.0,60.0,0.0,0.0
165,75.0,60.0,60.0,0.0,0.0
166,77.0,0.0,60.0,0.0,0.0
167,78.0,60.0,60.0,0.0,0.0
168,63.0,240.0,240.0,3.0,0.0
169,77.0,40.0,60.0,0.0,0.0
170,78.0,40.0,30.0,0.0,0.0
171,77.0,40.0,30.0,0.0,0.0
172,78.0,0.0,30.0,0.0,0.0
173,61.0,240.0,240.0,3.0,0.0
174,77.0,0.0,240.0,0.0,0.0
175,59.0,0.0,240.0,3.0,0.0
176,80.0,0.0,240.0,0.0,0.0
177,58.0,0.0,1440.0,3.0,0.0
178,85.0,120.0,120.0,0.0,0.0
179,83.0,120.0,120.0,0.0,0.0
180,82.0,120.0,120.0,0.0,0.0
181,80.0,240.0,120.0,0.0,0.0
182,61.0,120.0,960.0,1.0,0.0
183,78.0,540.0,240.0,0.0,0.0
184,73.0,60.0,540.0,0.0,0.0
185,66.0,0.0,480.0,2.0,0.0
186,75.0,120.0,60.0,0.0,0.0
187,76.0,0.0,120.0,0.0,0.0
188,75.0,120.0,120.0,0.0,0.0
189,59.0,120.0,1440.0,3.0,0.0
190,73.0,120.0,120.0,0.0,0.0
191,71.0,120.0,120.0,0.0,0.0
192,70.0,240.0,120.0,0.0,0.0
193,63.0,300.0,480.0,1.0,0.0
194,68.0,120.0,240.0,0.0,0.0
195,78.0,120.0,120.0,0.0,0.0
196,77.0,60.0,420.0,0.0,0.0
197,68.0,0.0,480.0,2.0,0.0
198,78.0,120.0,60.0,0.0,0.0
199,80.0,0.0,120.0,0.0,0.0
200,61.0,0.0,1440.0,3.0,0.0
201,78.0,120.0,120.0,0.0,0.0
202,70.0,0.0,480.0,2.0,0.0
203,77.0,120.0,120.0,0.0,0.0
204,75.0,120.0,120.0,0.0,0.0
205,73.0,240.0,120.0,0.0,0.0
206,68.0,120.0,360.0,2.0,0.0
207,83.0,120.0,240.0,0.0,0.0
208,75.0,240.0,480.0,0.0,0.0
209,70.0,240.0,120.0,2.0,0.0
210,71.0,0.0,960.0,2.0,0.0
211,77.0,120.0,240.0,0.0,0.0
212,54.0,480.0,1440.0,3.0,0.0
213,77.0,180.0,120.0,0.0,0.0
214,78.0,60.0,180.0,0.0,0.0
215,80.0,60.0,60.0,0.0,0.0
216,78.0,60.0,60.0,0.0,0.0
217,77.0,240.0,15.0,0.0,0.0
218,70.0,0.0,960.0,2.0,0.0
219,61.0,480.0,240.0,1.0,0.0
220,78.0,0.0,720.0,0.0,0.0
221,66.0,0.0,480.0,1.0,0.0
222,59.0,0.0,1440.0,3.0,0.0
223,83.0,480.0,15.0,0.0,0.0
224,63.0,0.0,960.0,2.0,0.0
225,66.0,0.0,480.0,1.0,0.0
226,85.0,60.0,60.0,0.0,0.0
227,83.0,240.0,60.0,0.0,0.0
228,85.0,120.0,240.0,0.0,0.0
229,87.0,240.0,120.0,0.0,0.0
230,58.0,0.0,1440.0,3.0,0.0
231,85.0,120.0,240.0,0.0,0.0
232,83.0,120.0,120.0,0.0,0.0
233,82.0,240.0,120.0,0.0,0.0
234,61.0,0.0,960.0,2.0,0.0
235,80.0,720.0,240.0,0.0,0.0
236,78.0,0.0,720.0,0.0,0.0
237,66.0,60.0,480.0,1.0,0.0
238,56.0,0.0,1440.0,3.0,0.0
239,71.0,60.0,60.0,0.0,0.0
240,70.0,360.0,60.0,0.0,0.0
241,71.0,60.0,360.0,0.0,0.0
242,73.0,60.0,60.0,0.0,0.0
243,59.0,0.0,960.0,2.0,0.0
244,71.0,60.0,60.0,0.0,0.0
245,70.0,60.0,60.0,0.0,0.0
246,71.0,60.0,60.0,0.0,0.0
247,73.0,60.0,60.0,0.0,0.0
248,71.0,60.0,60.0,0.0,0.0
249,73.0,60.0,60.0,0.0,0.0
250,71.0,40.0,60.0,0.0,0.0
251,73.0,40.0,30.0,0.0,0.0
252,65.0,0.0,480.0,1.0,0.0
253,71.0,40.0,30.0,0.0,0.0
254,73.0,40.0,30.0,0.0,0.0
255,71.0,40.0,30.0,0.0,0.0
256,73.0,41.0,30.0,0.0,0.0
257,71.0,119.0,30.0,0.0,0.0
258,70.0,120.0,120.0,0.0,0.0
259,71.0,60.0,120.0,0.0,0.0
260,54.0,240.0,1200.0,3.0,0.0
261,73.0,60.0,60.0,0.0,0.0
262,71.0,120.0,60.0,0.0,0.0
263,70.0,60.0,120.0,0.0,0.0
264,71.0,60.0,60.0,0.0,0.0
265,70.0,120.0,60.0,0.0,0.0
266,68.0,240.0,15.0,0.0,0.0
267,58.0,480.0,960.0,2.0,0.0
268,66.0,0.0,720.0,0.0,0.0
269,61.0,0.0,480.0,1.0,0.0
270,52.0,0.0,240.0,3.0,0.0
271,78.0,480.0,480.0,0.0,0.0
272,51.0,240.0,1440.0,3.0,0.0
273,54.0,0.0,960.0,2.0,0.0
274,78.0,60.0,480.0,0.0,0.0
275,59.0,0.0,480.0,1.0,0.0
276,80.0,60.0,60.0,0.0,0.0
277,78.0,240.0,60.0,0.0,0.0
278,80.0,120.0,240.0,0.0,0.0
279,81.0,0.0,120.0,0.0,0.0
280,52.0,60.0,1200.0,3.0,0.0
281,80.0,120.0,240.0,0.0,0.0
282,78.0,120.0,120.0,0.0,0.0
283,76.0,240.0,120.0,0.0,0.0
284,75.0,480.0,240.0,0.0,0.0
285,56.0,0.0,720.0,2.0,0.0
286,73.0,0.0,480.0,0.0,0.0
287,61.0,0.0,480.0,1.0,0.0
288,83.0,60.0,60.0,0.0,0.0
289,54.0,0.0,240.0,3.0,0.0
290,82.0,60.0,60.0,0.0,0.0
291,80.0,60.0,60.0,0.0,0.0
292,82.0,60.0,60.0,0.0,0.0
293,56.0,60.0,240.0,3.0,0.0
294,83.0,180.0,60.0,0.0,0.0
295,82.0,0.0,180.0,0.0,0.0
296,85.0,180.0,60.0,0.0,0.0
297,52.0,0.0,240.0,3.0,0.0
298,64.0,60.0,480.0,1.0,0.0
299,83.0,60.0,180.0,0.0,0.0
300,82.0,180.0,60.0,0.0,0.0
301,54.0,60.0,960.0,3.0,0.0
302,80.0,0.0,180.0,0.0,0.0
303,63.0,120.0,120.0,1.0,0.0
304,78.0,60.0,60.0,0.0,0.0
305,61.0,120.0,120.0,1.0,0.0
306,59.0,0.0,120.0,1.0,0.0
307,76.0,0.0,15.0,0.0,0.0
308,58.0,120.0,120.0,1.0,0.0
309,85.0,0.0,240.0,0.0,0.0
310,56.0,120.0,120.0,1.0,0.0
311,76.0,0.0,120.0,0.0,0.0
312,58.0,0.0,120.0,1.0,0.0
313,75.0,180.0,60.0,0.0,0.0
314,59.0,120.0,240.0,1.0,0.0
315,47.0,60.0,720.0,3.0,0.0
316,71.0,120.0,300.0,0.0,0.0
317,61.0,0.0,240.0,1.0,0.0
318,70.0,240.0,120.0,0.0,0.0
319,63.0,480.0,960.0,1.0,0.0
320,70.0,0.0,240.0,0.0,0.0
321,54.0,30.0,240.0,3.0,0.0
322,71.0,60.0,60.0,0.0,0.0
323,70.0,120.0,60.0,0.0,0.0
324,71.0,0.0,600.0,0.0,0.0
325,56.0,30.0,30.0,3.0,0.0
326,54.0,300.0,30.0,3.0,0.0
327,56.0,120.0,300.0,3.0,0.0
328,58.0,0.0,120.0,3.0,0.0
329,59.0,0.0,1920.0,3.0,0.0
330,63.0,0.0,960.0,1.0,0.0
331,75.0,480.0,15.0,0.0,0.0
332,77.0,60.0,60.0,0.0,0.0
333,68.0,120.0,480.0,2.0,0.0
334,75.0,240.0,60.0,0.0,0.0
335,77.0,120.0,240.0,0.0,0.0
336,78.0,0.0,15.0,0.0,0.0
337,61.0,40.0,480.0,1.0,0.0
338,77.0,120.0,120.0,0.0,0.0
339,75.0,120.0,120.0,0.0,0.0
340,73.0,90.0,990.0,0.0,0.0
341,78.0,0.0,960.0,2.0,0.0
342,59.0,40.0,30.0,3.0,0.0
343,58.0,40.0,30.0,3.0,0.0
344,59.0,120.0,30.0,3.0,0.0
345,58.0,240.0,120.0,3.0,0.0
346,56.0,240.0,240.0,3.0,0.0
347,58.0,150.0,240.0,3.0,0.0
348,63.0,390.0,240.0,3.0,0.0
349,71.0,30.0,480.0,0.0,0.0
350,75.0,30.0,480.0,0.0,0.0
351,80.0,30.0,480.0,0.0,0.0
352,83.0,60.0,480.0,0.0,0.0
353,56.0,0.0,720.0,3.0,0.0
354,63.0,0.0,240.0,1.0,0.0
355,85.0,60.0,60.0,0.0,0.0
356,68.0,120.0,720.0,2.0,0.0
357,83.0,60.0,60.0,0.0,0.0
358,82.0,60.0,60.0,0.0,0.0
359,83.0,60.0,60.0,0.0,0.0
360,85.0,60.0,60.0,0.0,0.0
361,56.0,0.0,240.0,3.0,0.0
362,83.0,60.0,60.0,0.0,0.0
363,85.0,60.0,60.0,0.0,0.0
364,83.0,40.0,60.0,0.0,0.0
365,85.0,40.0,30.0,0.0,0.0
366,58.0,0.0,240.0,3.0,0.0
367,83.0,40.0,30.0,0.0,0.0
368,85.0,40.0,30.0,0.0,0.0
369,83.0,40.0,30.0,0.0,0.0
370,85.0,40.0,30.0,0.0,0.0
371,83.0,0.0,30.0,0.0,0.0
372,59.0,0.0,240.0,3.0,0.0
373,82.0,120.0,120.0,0.0,0.0
374,66.0,240.0,240.0,2.0,0.0
375,61.0,60.0,720.0,3.0,0.0
376,65.0,0.0,240.0,2.0,0.0
377,83.0,0.0,15.0,0.0,0.0
378,82.0,120.0,120.0,0.0,0.0
379,66.0,0.0,240.0,2.0,0.0
380,80.0,60.0,120.0,0.0,0.0
381,78.0,60.0,60.0,0.0,0.0
382,68.0,0.0,960.0,2.0,0.0
383,77.0,60.0,60.0,0.0,0.0
384,75.0,60.0,60.0,0.0,0.0
385,77.0,0.0,60.0,0.0,0.0
386,78.0,60.0,60.0,0.0,0.0
387,63.0,240.0,240.0,3.0,0.0
388,77.0,40.0,60.0,0.0,0.0
389,78.0,40.0,30.0,0.0,0.0
390,77.0,40.0,30.0,0.0,0.0
391,78.0,0.0,30.0,0.0,0.0
392,77.0,240.0,240.0,0.0,0.0
393,61.0,0.0,240.0,3.0,0.0
394,59.0,120.0,240.0,3.0,0.0
395,80.0,0.0,240.0,0.0,0.0
396,58.0,0.0,1440.0,3.0,0.0
397,85.0,120.0,120.0,0.0,0.0
398,83.0,120.0,120.0,0.0,0.0
399,82.0,120.0,120.0,0.0,0.0
400,80.0,240.0,120.0,0.0,0.0
401,78.0,540.0,240.0,0.0,0.0
402,61.0,120.0,960.0,1.0,0.0
403,73.0,60.0,540.0,0.0,0.0
404,66.0,0.0,480.0,2.0,0.0
405,75.0,120.0,60.0,0.0,0.0
406,76.0,0.0,120.0,0.0,0.0
407,75.0,120.0,120.0,0.0,0.0
408,59.0,0.0,1440.0,3.0,0.0
409,73.0,120.0,120.0,0.0,0.0
410,71.0,120.0,120.0,0.0,0.0
411,70.0,240.0,120.0,0.0,0.0
412,68.0,120.0,240.0,0.0,0.0
413,63.0,300.0,480.0,1.0,0.0
414,78.0,120.0,120.0,0.0,0.0
415,77.0,60.0,420.0,0.0,0.0
416,68.0,0.0,480.0,2.0,0.0
417,78.0,120.0,60.0,0.0,0.0
418,80.0,120.0,120.0,0.0,0.0
419,70.0,240.0,480.0,2.0,0.0
420,61.0,120.0,1440.0,3.0,0.0
421,78.0,120.0,120.0,0.0,0.0
422,77.0,120.0,120.0,0.0,0.0
423,75.0,120.0,120.0,0.0,0.0
424,73.0,0.0,120.0,0.0,0.0
425,83.0,120.0,240.0,0.0,0.0
426,68.0,120.0,360.0,2.0,0.0
427,75.0,240.0,480.0,0.0,0.0
428,70.0,240.0,120.0,2.0,0.0
429,71.0,0.0,960.0,2.0,0.0
430,77.0,0.0,15.0,0.0,0.0
431,54.0,0.0,1440.0,3.0,0.0
432,78.0,60.0,180.0,0.0,0.0
433,80.0,60.0,60.0,0.0,0.0
434,78.0,60.0,60.0,0.0,0.0
435,77.0,240.0,15.0,0.0,0.0
436,70.0,60.0,960.0,2.0,0.0
437,78.0,0.0,720.0,0.0,0.0
438,61.0,480.0,240.0,1.0,0.0
439,66.0,0.0,480.0,1.0,0.0
440,73.0,60.0,60.0,0.0,0.0
441,66.0,1.0,960.0,1.0,0.0
442,71.0,360.0,60.0,0.0,0.0
443,73.0,30.0,360.0,0.0,0.0
444,68.0,0.0,240.0,2.0,0.0
445,70.0,30.0,30.0,2.0,0.0
446,75.0,60.0,60.0,0.0,0.0
447,68.0,0.0,30.0,2.0,0.0
448,73.0,60.0,60.0,0.0,0.0
449,70.0,0.0,900.0,2.0,0.0
450,71.0,60.0,60.0,0.0,0.0
451,73.0,40.0,60.0,0.0,0.0
452,75.0,40.0,30.0,0.0,0.0
453,73.0,40.0,30.0,0.0,0.0
454,75.0,40.0,30.0,0.0,0.0
455,73.0,40.0,30.0,0.0,0.0
456,75.0,40.0,30.0,0.0,0.0
457,73.0,39.0,30.0,0.0,0.0
458,75.0,40.0,30.0,0.0,0.0
459,64.0,0.0,480.0,1.0,0.0
460,73.0,40.0,30.0,0.0,0.0
461,75.0,60.0,30.0,0.0,0.0
462,73.0,60.0,60.0,0.0,0.0
463,75.0,60.0,60.0,0.0,0.0
464,76.0,60.0,60.0,0.0,0.0
465,78.0,120.0,60.0,0.0,0.0
466,80.0,120.0,15.0,0.0,0.0
467,63.0,240.0,720.0,1.0,0.0
468,78.0,120.0,120.0,0.0,0.0
469,76.0,120.0,120.0,0.0,0.0
470,64.0,240.0,240.0,2.0,0.0
471,75.0,0.0,120.0,0.0,0.0
472,66.0,0.0,960.0,2.0,0.0
473,73.0,0.0,240.0,0.0,0.0
474,61.0,240.0,240.0,1.0,0.0
475,71.0,240.0,480.0,0.0,0.0
476,63.0,0.0,480.0,1.0,0.0
477,83.0,120.0,240.0,0.0,0.0
478,64.0,0.0,720.0,1.0,0.0
479,82.0,240.0,120.0,0.0,0.0
480,80.0,60.0,240.0,0.0,0.0
481,68.0,0.0,240.0,2.0,0.0
482,82.0,60.0,60.0,0.0,0.0
483,79.0,240.0,60.0,0.0,0.0
484,79.0,30.0,240.0,0.0,0.0
485,63.0,40.0,240.0,1.0,0.0
486,80.0,30.0,30.0,0.0,0.0
487,79.0,180.0,30.0,0.0,0.0
488,80.0,0.0,420.0,0.0,0.0
489,61.0,240.0,480.0,1.0,0.0
490,71.0,0.0,15.0,2.0,0.0
491,70.0,40.0,30.0,2.0,0.0
492,71.0,120.0,30.0,2.0,0.0
493,70.0,60.0,120.0,2.0,0.0
494,85.0,60.0,60.0,0.0,0.0
495,68.0,0.0,240.0,2.0,0.0
496,87.0,60.0,60.0,0.0,0.0
497,85.0,60.0,60.0,0.0,0.0
498,83.0,0.0,60.0,0.0,0.0
499,67.0,120.0,240.0,2.0,0.0
500,85.0,120.0,360.0,0.0,0.0
501,63.0,240.0,720.0,1.0,0.0
502,68.0,240.0,240.0,2.0,0.0
503,82.0,0.0,120.0,0.0,0.0
504,80.0,0.0,240.0,0.0,0.0
505,70.0,0.0,960.0,2.0,0.0
506,79.0,240.0,480.0,0.0,0.0
507,61.0,240.0,240.0,1.0,0.0
508,59.0,0.0,240.0,1.0,0.0
509,58.0,0.0,240.0,1.0,0.0
510,75.0,60.0,240.0,0.0,0.0
511,56.0,0.0,960.0,1.0,0.0
512,80.0,60.0,60.0,0.0,0.0
513,82.0,240.0,60.0,0.0,0.0
514,83.0,120.0,240.0,0.0,0.0
515,61.0,40.0,15.0,2.0,0.0
516,82.0,0.0,15.0,0.0,0.0
517,59.0,40.0,30.0,2.0,0.0
518,61.0,120.0,30.0,2.0,0.0
519,59.0,240.0,120.0,2.0,0.0
520,58.0,120.0,240.0,2.0,0.0
521,80.0,120.0,360.0,0.0,0.0
522,54.0,60.0,480.0,1.0,0.0
523,59.0,0.0,480.0,2.0,0.0
524,75.0,60.0,120.0,0.0,0.0
525,76.0,60.0,60.0,0.0,0.0
526,75.0,60.0,60.0,0.0,0.0
527,73.0,60.0,60.0,0.0,0.0
528,75.0,0.0,60.0,0.0,0.0
529,52.0,0.0,720.0,1.0,0.0
530,83.0,180.0,60.0,0.0,0.0
531,80.0,60.0,180.0,0.0,0.0
532,82.0,180.0,60.0,0.0,0.0
533,79.0,40.0,15.0,0.0,0.0
534,61.0,0.0,15.0,2.0,0.0
535,59.0,40.0,30.0,2.0,0.0
536,61.0,120.0,30.0,2.0,0.0
537,80.0,120.0,480.0,0.0,0.0
538,59.0,240.0,120.0,2.0,0.0
539,58.0,120.0,240.0,2.0,0.0
540,51.0,0.0,480.0,1.0,0.0
541,59.0,120.0,240.0,2.0,0.0
542,71.0,0.0,120.0,0.0,0.0
543,63.0,240.0,240.0,2.0,0.0
544,70.0,120.0,120.0,0.0,0.0
545,68.0,0.0,120.0,0.0,0.0
546,70.0,0.0,720.0,3.0,0.0
547,70.0,120.0,360.0,0.0,0.0
548,49.0,120.0,240.0,1.0,0.0
549,52.0,0.0,240.0,1.0,0.0
550,51.0,0.0,240.0,1.0,0.0
551,80.0,120.0,15.0,0.0,0.0
552,79.0,60.0,120.0,0.0,0.0
553,49.0,240.0,240.0,1.0,0.0
554,82.0,60.0,60.0,0.0,0.0
555,76.0,0.0,240.0,3.0,0.0
556,83.0,120.0,60.0,0.0,0.0
557,85.0,0.0,120.0,0.0,0.0
558,75.0,0.0,240.0,3.0,0.0
559,83.0,240.0,240.0,0.0,0.0
560,51.0,0.0,480.0,1.0,0.0
561,55.0,120.0,240.0,2.0,0.0
562,73.0,0.0,720.0,3.0,0.0
563,82.0,0.0,15.0,0.0,0.0
564,56.0,0.0,480.0,2.0,0.0
565,56.0,120.0,240.0,1.0,0.0
566,80.0,60.0,240.0,0.0,0.0
567,51.0,240.0,240.0,1.0,0.0
568,82.0,60.0,60.0,0.0,0.0
569,79.0,0.0,60.0,0.0,0.0
570,79.0,0.0,240.0,0.0,0.0
571,71.0,0.0,960.0,3.0,0.0
572,44.0,240.0,240.0,1.0,0.0
573,80.0,240.0,720.0,0.0,0.0
574,51.0,240.0,240.0,1.0,0.0
575,56.0,240.0,240.0,1.0,0.0
576,54.0,0.0,240.0,1.0,0.0
577,52.0,0.0,1440.0,1.0,0.0
578,80.0,120.0,240.0,0.0,0.0
579,78.0,120.0,120.0,0.0,0.0
580,76.0,240.0,120.0,0.0,0.0
581,75.0,480.0,240.0,0.0,0.0
582,56.0,60.0,960.0,2.0,0.0
583,73.0,120.0,480.0,0.0,0.0
584,61.0,0.0,720.0,3.0,0.0
585,75.0,120.0,120.0,0.0,0.0
586,76.0,0.0,120.0,0.0,0.0
587,51.0,0.0,1440.0,1.0,0.0
588,78.0,60.0,60.0,0.0,0.0
589,76.0,120.0,60.0,0.0,0.0
590,75.0,60.0,120.0,0.0,0.0
591,58.0,0.0,240.0,3.0,0.0
592,76.0,60.0,60.0,0.0,0.0
593,75.0,120.0,60.0,0.0,0.0
594,73.0,120.0,15.0,0.0,0.0
595,56.0,120.0,120.0,3.0,0.0
596,54.0,0.0,120.0,3.0,0.0
597,71.0,0.0,480.0,0.0,0.0
598,56.0,120.0,120.0,3.0,0.0
599,58.0,120.0,120.0,3.0,0.0
600,59.0,120.0,120.0,3.0,0.0
601,58.0,120.0,120.0,3.0,0.0
602,59.0,0.0,480.0,3.0,0.0
603,73.0,120.0,120.0,0.0,0.0
604,75.0,120.0,120.0,0.0,0.0
605,49.0,0.0,720.0,1.0,0.0
606,76.0,120.0,120.0,0.0,0.0
607,78.0,120.0,120.0,0.0,0.0
608,76.0,120.0,120.0,0.0,0.0
609,56.0,0.0,240.0,3.0,0.0
610,75.0,120.0,120.0,0.0,0.0
611,76.0,120.0,120.0,0.0,0.0
612,61.0,0.0,240.0,3.0,0.0
613,73.0,120.0,120.0,0.0,0.0
614,68.0,120.0,120.0,0.0,0.0
615,68.0,120.0,360.0,3.0,0.0
616,47.0,120.0,240.0,1.0,0.0
617,73.0,0.0,120.0,0.0,0.0
618,76.0,120.0,600.0,0.0,0.0
619,46.0,0.0,240.0,1.0,0.0
620,75.0,120.0,120.0,3.0,0.0
621,73.0,120.0,120.0,3.0,0.0
622,44.0,120.0,240.0,1.0,0.0
623,71.0,0.0,120.0,3.0,0.0
624,70.0,0.0,480.0,3.0,0.0
625,42.0,0.0,240.0,1.0,0.0
626,78.0,120.0,120.0,0.0,0.0
627,49.0,0.0,240.0,1.0,0.0
628,76.0,120.0,120.0,0.0,0.0
629,75.0,120.0,120.0,0.0,0.0
630,76.0,120.0,120.0,0.0,0.0
631,54.0,0.0,240.0,1.0,0.0
632,73.0,120.0,120.0,0.0,0.0
633,52.0,0.0,240.0,1.0,0.0
634,70.0,120.0,120.0,0.0,0.0
635,70.0,0.0,720.0,3.0,0.0
636,73.0,120.0,120.0,0.0,0.0
637,76.0,120.0,120.0,0.0,0.0
638,51.0,120.0,240.0,1.0,0.0
639,80.0,0.0,120.0,0.0,0.0
640,49.0,0.0,240.0,1.0,0.0
641,78.0,120.0,120.0,0.0,0.0
642,76.0,120.0,120.0,0.0,0.0
643,47.0,0.0,240.0,1.0,0.0
644,71.0,120.0,240.0,3.0,0.0
645,75.0,120.0,120.0,0.0,0.0
646,76.0,0.0,120.0,0.0,0.0
647,75.0,120.0,120.0,0.0,0.0
648,54.0,0.0,240.0,1.0,0.0
649,73.0,120.0,120.0,0.0,0.0
650,59.0,120.0,240.0,1.0,0.0
651,75.0,120.0,120.0,0.0,0.0
652,71.0,0.0,120.0,0.0,0.0
653,66.0,120.0,120.0,0.0,0.0
654,66.0,0.0,360.0,3.0,0.0
655,57.0,120.0,240.0,1.0,0.0
656,71.0,0.0,120.0,0.0,0.0
657,56.0,0.0,240.0,1.0,0.0
658,75.0,120.0,120.0,0.0,0.0
659,71.0,120.0,120.0,0.0,0.0
660,71.0,0.0,840.0,3.0,0.0
661,76.0,120.0,120.0,0.0,0.0
662,54.0,0.0,240.0,1.0,0.0
663,78.0,120.0,120.0,0.0,0.0
664,52.0,0.0,240.0,1.0,0.0
665,80.0,120.0,120.0,0.0,0.0
666,81.0,120.0,120.0,0.0,0.0
667,59.0,120.0,240.0,1.0,0.0
668,80.0,120.0,120.0,0.0,0.0
669,78.0,0.0,120.0,0.0,0.0
670,64.0,0.0,240.0,1.0,0.0
671,80.0,120.0,120.0,0.0,0.0
672,76.0,120.0,120.0,0.0,0.0
673,63.0,0.0,240.0,1.0,0.0
674,71.0,120.0,360.0,3.0,0.0
675,71.0,120.0,120.0,0.0,0.0
676,76.0,120.0,120.0,0.0,0.0
677,61.0,120.0,240.0,1.0,0.0
678,80.0,0.0,120.0,0.0,0.0
679,76.0,0.0,120.0,0.0,0.0
680,76.0,120.0,360.0,3.0,0.0
681,82.0,120.0,120.0,0.0,0.0
682,59.0,0.0,240.0,1.0,0.0
683,83.0,0.0,120.0,0.0,0.0
684,85.0,120.0,120.0,0.0,0.0
685,58.0,0.0,240.0,1.0,0.0
686,76.0,120.0,120.0,0.0,0.0
687,54.0,120.0,240.0,1.0,0.0
688,75.0,120.0,120.0,0.0,0.0
689,73.0,0.0,120.0,0.0,0.0
690,75.0,120.0,120.0,0.0,0.0
691,59.0,120.0,240.0,1.0,0.0
692,76.0,0.0,120.0,0.0,0.0
693,78.0,120.0,120.0,0.0,0.0
694,63.0,120.0,240.0,1.0,0.0
695,71.0,0.0,120.0,0.0,0.0
696,66.0,0.0,240.0,1.0,0.0
697,75.0,120.0,120.0,0.0,0.0
698,73.0,120.0,120.0,0.0,0.0
699,71.0,120.0,120.0,0.0,0.0
700,54.0,240.0,240.0,1.0,0.0
701,70.0,0.0,120.0,0.0,0.0
702,71.0,120.0,600.0,0.0,0.0
703,59.0,120.0,720.0,1.0,0.0
704,64.0,120.0,120.0,3.0,0.0
705,63.0,120.0,120.0,3.0,0.0
706,61.0,120.0,120.0,3.0,0.0
707,63.0,0.0,960.0,3.0,0.0
708,66.0,0.0,120.0,0.0,0.0
709,71.0,120.0,120.0,0.0,0.0
710,54.0,0.0,240.0,1.0,0.0
711,70.0,120.0,120.0,0.0,0.0
712,47.0,60.0,480.0,1.0,0.0
713,70.0,360.0,120.0,0.0,0.0
714,71.0,0.0,360.0,0.0,0.0
715,73.0,60.0,60.0,0.0,0.0
716,66.0,1.0,960.0,1.0,0.0
717,71.0,360.0,60.0,0.0,0.0
718,73.0,30.0,360.0,0.0,0.0
719,68.0,0.0,240.0,2.0,0.0
720,70.0,30.0,30.0,2.0,0.0
721,75.0,60.0,60.0,0.0,0.0
722,68.0,0.0,30.0,2.0,0.0
723,70.0,120.0,900.0,2.0,0.0
724,73.0,60.0,60.0,0.0,0.0
725,71.0,60.0,60.0,0.0,0.0
726,73.0,40.0,60.0,0.0,0.0
727,75.0,40.0,30.0,0.0,0.0
728,73.0,40.0,30.0,0.0,0.0
729,75.0,40.0,30.0,0.0,0.0
730,73.0,40.0,30.0,0.0,0.0
731,75.0,40.0,30.0,0.0,0.0
732,73.0,39.0,30.0,0.0,0.0
733,75.0,40.0,30.0,0.0,0.0
734,64.0,0.0,480.0,1.0,0.0
735,73.0,40.0,30.0,0.0,0.0
736,75.0,60.0,30.0,0.0,0.0
737,73.0,60.0,60.0,0.0,0.0
738,75.0,60.0,60.0,0.0,0.0
739,76.0,60.0,60.0,0.0,0.0
740,78.0,120.0,60.0,0.0,0.0
741,80.0,0.0,120.0,0.0,0.0
742,80.0,120.0,120.0,0.0,0.0
743,63.0,240.0,720.0,1.0,0.0
744,78.0,120.0,120.0,0.0,0.0
745,64.0,0.0,240.0,2.0,0.0
746,76.0,120.0,120.0,0.0,0.0
747,75.0,240.0,120.0,0.0,0.0
748,66.0,0.0,960.0,2.0,0.0
749,73.0,0.0,240.0,0.0,0.0
750,71.0,240.0,480.0,0.0,0.0
751,61.0,240.0,240.0,1.0,0.0
752,63.0,120.0,480.0,1.0,0.0
753,83.0,0.0,240.0,0.0,0.0
754,82.0,240.0,120.0,0.0,0.0
755,64.0,0.0,720.0,1.0,0.0
756,80.0,60.0,240.0,0.0,0.0
757,68.0,0.0,240.0,2.0,0.0
758,82.0,60.0,60.0,0.0,0.0
759,79.0,240.0,15.0,0.0,0.0
760,63.0,40.0,240.0,1.0,0.0
761,80.0,30.0,30.0,0.0,0.0
762,79.0,180.0,30.0,0.0,0.0
763,80.0,60.0,420.0,0.0,0.0
764,71.0,0.0,15.0,2.0,0.0
765,61.0,0.0,480.0,1.0,0.0
766,70.0,40.0,30.0,2.0,0.0
767,71.0,120.0,30.0,2.0,0.0
768,70.0,0.0,120.0,2.0,0.0
769,68.0,240.0,240.0,2.0,0.0
770,85.0,60.0,60.0,0.0,0.0
771,87.0,60.0,60.0,0.0,0.0
772,85.0,60.0,60.0,0.0,0.0
773,83.0,0.0,60.0,0.0,0.0
774,85.0,120.0,360.0,0.0,0.0
775,67.0,120.0,240.0,2.0,0.0
776,63.0,240.0,720.0,1.0,0.0
777,68.0,0.0,240.0,2.0,0.0
778,82.0,240.0,120.0,0.0,0.0
779,70.0,0.0,960.0,2.0,0.0
780,80.0,0.0,240.0,0.0,0.0
781,61.0,240.0,240.0,1.0,0.0
782,79.0,0.0,480.0,0.0,0.0
783,59.0,240.0,240.0,1.0,0.0
784,75.0,60.0,240.0,0.0,0.0
785,58.0,0.0,240.0,1.0,0.0
786,80.0,60.0,60.0,0.0,0.0
787,56.0,0.0,960.0,1.0,0.0
788,82.0,240.0,60.0,0.0,0.0
789,83.0,120.0,240.0,0.0,0.0
790,61.0,0.0,15.0,2.0,0.0
791,82.0,40.0,15.0,0.0,0.0
792,59.0,40.0,30.0,2.0,0.0
793,61.0,120.0,30.0,2.0,0.0
794,59.0,0.0,120.0,2.0,0.0
795,58.0,120.0,240.0,2.0,0.0
796,80.0,120.0,360.0,0.0,0.0
797,54.0,0.0,480.0,1.0,0.0
798,59.0,0.0,480.0,2.0,0.0
799,75.0,60.0,120.0,0.0,0.0
800,76.0,60.0,60.0,0.0,0.0
801,75.0,60.0,60.0,0.0,0.0
802,73.0,60.0,60.0,0.0,0.0
803,75.0,60.0,60.0,0.0,0.0
804,52.0,0.0,720.0,1.0,0.0
805,83.0,180.0,60.0,0.0,0.0
806,80.0,60.0,180.0,0.0,0.0
807,61.0,0.0,240.0,2.0,0.0
808,82.0,180.0,60.0,0.0,0.0
809,79.0,40.0,15.0,0.0,0.0
810,61.0,40.0,30.0,2.0,0.0
811,59.0,40.0,30.0,2.0,0.0
812,61.0,120.0,30.0,2.0,0.0
813,80.0,120.0,480.0,0.0,0.0
814,59.0,240.0,120.0,2.0,0.0
815,58.0,120.0,240.0,2.0,0.0
816,59.0,120.0,240.0,2.0,0.0
817,51.0,0.0,480.0,1.0,0.0
818,71.0,0.0,120.0,0.0,0.0
819,70.0,120.0,120.0,0.0,0.0
820,63.0,0.0,240.0,2.0,0.0
821,68.0,240.0,120.0,0.0,0.0
822,70.0,120.0,360.0,0.0,0.0
823,70.0,60.0,720.0,3.0,0.0
824,49.0,120.0,240.0,1.0,0.0
825,52.0,120.0,240.0,1.0,0.0
826,80.0,0.0,15.0,0.0,0.0
827,51.0,0.0,240.0,1.0,0.0
828,79.0,0.0,120.0,0.0,0.0
829,49.0,0.0,240.0,1.0,0.0
830,76.0,0.0,240.0,3.0,0.0
831,82.0,60.0,60.0,0.0,0.0
832,83.0,120.0,60.0,0.0,0.0
833,85.0,240.0,120.0,0.0,0.0
834,51.0,120.0,480.0,1.0,0.0
835,75.0,0.0,240.0,3.0,0.0
836,83.0,240.0,240.0,0.0,0.0
837,73.0,0.0,720.0,3.0,0.0
838,55.0,0.0,240.0,2.0,0.0
839,82.0,0.0,240.0,0.0,0.0
840,56.0,0.0,480.0,2.0,0.0
841,82.0,120.0,120.0,0.0,0.0
842,56.0,120.0,240.0,1.0,0.0
843,80.0,60.0,240.0,0.0,0.0
844,51.0,240.0,240.0,1.0,0.0
845,82.0,60.0,60.0,0.0,0.0
846,71.0,0.0,960.0,3.0,0.0
847,79.0,0.0,15.0,0.0,0.0
848,44.0,240.0,240.0,1.0,0.0
849,51.0,240.0,240.0,1.0,0.0
850,56.0,240.0,240.0,1.0,0.0
851,54.0,0.0,240.0,1.0,0.0
852,52.0,0.0,1440.0,1.0,0.0
853,80.0,240.0,15.0,0.0,0.0
854,78.0,120.0,120.0,0.0,0.0
855,76.0,240.0,120.0,0.0,0.0
856,75.0,480.0,240.0,0.0,0.0
857,56.0,60.0,960.0,2.0,0.0
858,73.0,120.0,480.0,0.0,0.0
859,61.0,0.0,720.0,3.0,0.0
860,75.0,120.0,120.0,0.0,0.0
861,76.0,0.0,120.0,0.0,0.0
862,51.0,0.0,1440.0,1.0,0.0
863,78.0,60.0,60.0,0.0,0.0
864,76.0,120.0,60.0,0.0,0.0
865,75.0,60.0,120.0,0.0,0.0
866,76.0,60.0,60.0,0.0,0.0
867,58.0,0.0,240.0,3.0,0.0
868,75.0,120.0,60.0,0.0,0.0
869,73.0,120.0,15.0,0.0,0.0
870,56.0,120.0,120.0,3.0,0.0
871,54.0,0.0,120.0,3.0,0.0
872,56.0,120.0,120.0,3.0,0.0
873,71.0,120.0,480.0,0.0,0.0
874,58.0,120.0,120.0,3.0,0.0
875,59.0,120.0,120.0,3.0,0.0
876,58.0,0.0,120.0,3.0,0.0
877,59.0,120.0,480.0,3.0,0.0
878,73.0,120.0,120.0,0.0,0.0
879,75.0,120.0,120.0,0.0,0.0
880,76.0,120.0,120.0,0.0,0.0
881,49.0,0.0,720.0,1.0,0.0
882,78.0,0.0,120.0,0.0,0.0
883,76.0,120.0,120.0,0.0,0.0
884,56.0,120.0,240.0,3.0,0.0
885,75.0,0.0,120.0,0.0,0.0
886,76.0,120.0,120.0,0.0,0.0
887,61.0,120.0,240.0,3.0,0.0
888,73.0,0.0,120.0,0.0,0.0
889,47.0,120.0,240.0,1.0,0.0
890,68.0,120.0,120.0,0.0,0.0
891,68.0,120.0,360.0,3.0,0.0
892,73.0,0.0,120.0,0.0,0.0
893,46.0,120.0,240.0,1.0,0.0
894,76.0,120.0,600.0,0.0,0.0
895,75.0,0.0,120.0,3.0,0.0
896,73.0,120.0,120.0,3.0,0.0
897,44.0,120.0,240.0,1.0,0.0
898,71.0,0.0,120.0,3.0,0.0
899,70.0,0.0,480.0,3.0,0.0
900,42.0,120.0,240.0,1.0,0.0
901,78.0,0.0,120.0,0.0,0.0
902,76.0,120.0,120.0,0.0,0.0
903,49.0,0.0,240.0,1.0,0.0
904,75.0,120.0,120.0,0.0,0.0
905,54.0,0.0,240.0,1.0,0.0
906,76.0,120.0,120.0,0.0,0.0
907,73.0,120.0,120.0,0.0,0.0
908,52.0,0.0,240.0,1.0,0.0
909,70.0,120.0,720.0,3.0,0.0
910,70.0,120.0,120.0,0.0,0.0
911,73.0,120.0,120.0,0.0,0.0
912,51.0,120.0,240.0,1.0,0.0
913,76.0,120.0,120.0,0.0,0.0
914,80.0,0.0,120.0,0.0,0.0
915,78.0,120.0,120.0,0.0,0.0
916,49.0,0.0,240.0,1.0,0.0
917,76.0,0.0,120.0,0.0,0.0
918,71.0,120.0,240.0,3.0,0.0
919,75.0,120.0,120.0,0.0,0.0
920,47.0,0.0,240.0,1.0,0.0
921,76.0,0.0,120.0,0.0,0.0
922,75.0,120.0,120.0,0.0,0.0
923,54.0,120.0,240.0,1.0,0.0
924,73.0,0.0,120.0,0.0,0.0
925,75.0,120.0,120.0,0.0,0.0
926,59.0,0.0,240.0,1.0,0.0
927,71.0,120.0,120.0,0.0,0.0
928,66.0,0.0,360.0,3.0,0.0
929,57.0,0.0,240.0,1.0,0.0
930,66.0,120.0,120.0,0.0,0.0
931,71.0,120.0,120.0,0.0,0.0
932,75.0,120.0,120.0,0.0,0.0
933,56.0,0.0,240.0,1.0,0.0
934,71.0,0.0,840.0,3.0,0.0
935,71.0,120.0,120.0,0.0,0.0
936,76.0,120.0,120.0,0.0,0.0
937,54.0,120.0,240.0,1.0,0.0
938,78.0,0.0,120.0,0.0,0.0
939,80.0,120.0,120.0,0.0,0.0
940,52.0,0.0,240.0,1.0,0.0
941,81.0,120.0,120.0,0.0,0.0
942,59.0,0.0,240.0,1.0,0.0
943,80.0,120.0,120.0,0.0,0.0
944,78.0,120.0,120.0,0.0,0.0
945,64.0,120.0,240.0,1.0,0.0
946,80.0,120.0,120.0,0.0,0.0
947,76.0,0.0,120.0,0.0,0.0
948,71.0,120.0,120.0,0.0,0.0
949,63.0,0.0,240.0,1.0,0.0
950,71.0,120.0,360.0,3.0,0.0
951,76.0,120.0,120.0,0.0,0.0
952,61.0,0.0,240.0,1.0,0.0
953,80.0,0.0,120.0,0.0,0.0
954,76.0,120.0,360.0,3.0,0.0
955,76.0,120.0,120.0,0.0,0.0
956,82.0,120.0,120.0,0.0,0.0
957,59.0,0.0,240.0,1.0,0.0
958,83.0,0.0,120.0,0.0,0.0
959,85.0,120.0,120.0,0.0,0.0
960,58.0,0.0,240.0,1.0,0.0
961,76.0,120.0,120.0,0.0,0.0
962,75.0,120.0,120.0,0.0,0.0
963,54.0,120.0,240.0,1.0,0.0
964,73.0,0.0,120.0,0.0,0.0
965,75.0,120.0,120.0,0.0,0.0
966,59.0,120.0,240.0,1.0,0.0
967,76.0,0.0,120.0,0.0,0.0
968,63.0,0.0,240.0,1.0,0.0
969,78.0,120.0,120.0,0.0,0.0
970,71.0,120.0,120.0,0.0,0.0
971,75.0,120.0,120.0,0.0,0.0
972,66.0,0.0,240.0,1.0,0.0
973,73.0,120.0,120.0,0.0,0.0
974,54.0,240.0,240.0,1.0,0.0
975,71.0,120.0,120.0,0.0,0.0
976,70.0,0.0,120.0,0.0,0.0
977,59.0,120.0,720.0,1.0,0.0
978,71.0,120.0,600.0,0.0,0.0
979,64.0,120.0,120.0,3.0,0.0
980,63.0,120.0,120.0,3.0,0.0
981,61.0,120.0,120.0,3.0,0.0
982,63.0,0.0,960.0,3.0,0.0
983,66.0,0.0,120.0,0.0,0.0
984,54.0,0.0,240.0,1.0,0.0
985,71.0,120.0,120.0,0.0,0.0
986,47.0,0.0,480.0,1.0,0.0
987,70.0,120.0,15.0,0.0,0.0
988,71.0,0.0,360.0,0.0,0.0
