,note,step,duration,channel,velocity
0,59.0,0.0,240.0,1.0,0.0
1,75.0,240.0,120.0,0.0,0.0
2,63.0,0.0,240.0,1.0,0.0
3,71.0,240.0,120.0,0.0,0.0
4,66.0,240.0,240.0,1.0,0.0
5,66.0,0.0,120.0,0.0,0.0
6,71.0,240.0,240.0,1.0,0.0
7,63.0,0.0,120.0,0.0,0.0
8,75.0,120.0,240.0,1.0,0.0
9,59.0,0.0,120.0,0.0,0.0
10,58.0,120.0,120.0,0.0,0.0
11,77.0,0.0,240.0,1.0,0.0
12,56.0,240.0,120.0,0.0,0.0
13,58.0,240.0,240.0,0.0,0.0
14,78.0,0.0,120.0,1.0,0.0
15,61.0,0.0,240.0,0.0,0.0
16,73.0,240.0,120.0,1.0,0.0
17,66.0,0.0,240.0,0.0,0.0
18,70.0,240.0,120.0,1.0,0.0
19,70.0,0.0,240.0,0.0,0.0
20,66.0,240.0,120.0,1.0,0.0
21,73.0,120.0,240.0,0.0,0.0
22,61.0,0.0,120.0,1.0,0.0
23,59.0,120.0,120.0,1.0,0.0
24,78.0,0.0,240.0,0.0,0.0
25,58.0,240.0,120.0,1.0,0.0
26,56.0,240.0,240.0,1.0,0.0
27,71.0,0.0,120.0,0.0,0.0
28,59.0,240.0,240.0,1.0,0.0
29,68.0,0.0,120.0,0.0,0.0
30,61.0,240.0,240.0,1.0,0.0
31,65.0,0.0,120.0,0.0,0.0
32,65.0,0.0,240.0,1.0,0.0
33,61.0,240.0,120.0,0.0,0.0
34,68.0,120.0,240.0,1.0,0.0
35,59.0,0.0,120.0,0.0,0.0
36,71.0,240.0,240.0,1.0,0.0
37,58.0,120.0,120.0,0.0,0.0
38,56.0,0.0,120.0,0.0,0.0
39,54.0,240.0,240.0,0.0,0.0
40,70.0,0.0,120.0,1.0,0.0
41,58.0,240.0,240.0,0.0,0.0
42,66.0,0.0,120.0,1.0,0.0
43,61.0,240.0,240.0,0.0,0.0
44,61.0,0.0,120.0,1.0,0.0
45,66.0,0.0,240.0,0.0,0.0
46,58.0,240.0,120.0,1.0,0.0
47,70.0,0.0,240.0,0.0,0.0
48,56.0,120.0,120.0,1.0,0.0
49,73.0,0.0,240.0,0.0,0.0
50,54.0,120.0,120.0,1.0,0.0
51,52.0,240.0,120.0,1.0,0.0
52,51.0,0.0,240.0,1.0,0.0
53,71.0,240.0,120.0,0.0,0.0
54,54.0,240.0,240.0,1.0,0.0
55,66.0,0.0,120.0,0.0,0.0
56,59.0,240.0,240.0,1.0,0.0
57,63.0,0.0,120.0,0.0,0.0
58,63.0,240.0,240.0,1.0,0.0
59,59.0,0.0,120.0,0.0,0.0
60,66.0,0.0,240.0,1.0,0.0
61,57.0,120.0,120.0,0.0,0.0
62,69.0,0.0,240.0,1.0,0.0
63,56.0,120.0,120.0,0.0,0.0
64,54.0,240.0,120.0,0.0,0.0
65,52.0,0.0,240.0,0.0,0.0
66,68.0,240.0,120.0,1.0,0.0
67,56.0,240.0,240.0,0.0,0.0
68,64.0,0.0,120.0,1.0,0.0
69,59.0,0.0,240.0,0.0,0.0
70,59.0,240.0,120.0,1.0,0.0
71,64.0,0.0,240.0,0.0,0.0
72,56.0,240.0,120.0,1.0,0.0
73,68.0,0.0,240.0,0.0,0.0
74,52.0,120.0,120.0,1.0,0.0
75,51.0,120.0,120.0,1.0,0.0
76,71.0,240.0,240.0,0.0,0.0
77,49.0,0.0,120.0,1.0,0.0
78,54.0,240.0,240.0,1.0,0.0
79,70.0,0.0,120.0,0.0,0.0
80,58.0,240.0,240.0,1.0,0.0
81,66.0,0.0,120.0,0.0,0.0
82,61.0,0.0,240.0,1.0,0.0
83,61.0,240.0,120.0,0.0,0.0
84,66.0,240.0,240.0,1.0,0.0
85,58.0,0.0,120.0,0.0,0.0
86,70.0,120.0,240.0,1.0,0.0
87,54.0,0.0,120.0,0.0,0.0
88,52.0,120.0,120.0,0.0,0.0
89,73.0,240.0,240.0,1.0,0.0
90,54.0,0.0,120.0,0.0,0.0
91,47.0,240.0,240.0,0.0,0.0
92,75.0,0.0,120.0,1.0,0.0
93,51.0,240.0,240.0,0.0,0.0
94,71.0,0.0,120.0,1.0,0.0
95,54.0,240.0,240.0,0.0,0.0
96,66.0,0.0,120.0,1.0,0.0
97,59.0,240.0,240.0,0.0,0.0
98,63.0,0.0,120.0,1.0,0.0
99,58.0,0.0,240.0,0.0,0.0
100,61.0,120.0,120.0,1.0,0.0
101,64.0,80.0,240.0,0.0,0.0
102,59.0,120.0,120.0,1.0,0.0
103,58.0,0.0,120.0,1.0,0.0
104,59.0,0.0,240.0,1.0,0.0
105,63.0,80.0,90.0,0.0,0.0
106,61.0,80.0,90.0,0.0,0.0
107,63.0,80.0,90.0,0.0,0.0
108,64.0,80.0,90.0,0.0,0.0
109,63.0,80.0,90.0,0.0,0.0
110,64.0,40.0,90.0,0.0,0.0
111,66.0,80.0,90.0,0.0,0.0
112,87.0,40.0,30.0,1.0,0.0
113,85.0,0.0,30.0,1.0,0.0
114,87.0,80.0,390.0,1.0,0.0
115,64.0,80.0,90.0,0.0,0.0
116,66.0,80.0,90.0,0.0,0.0
117,68.0,80.0,90.0,0.0,0.0
118,66.0,80.0,90.0,0.0,0.0
119,68.0,0.0,90.0,0.0,0.0
120,70.0,80.0,90.0,0.0,0.0
121,68.0,80.0,90.0,0.0,0.0
122,70.0,80.0,90.0,0.0,0.0
123,71.0,80.0,90.0,0.0,0.0
124,68.0,0.0,240.0,1.0,0.0
125,70.0,80.0,90.0,0.0,0.0
126,71.0,80.0,90.0,0.0,0.0
127,58.0,0.0,240.0,1.0,0.0
128,73.0,80.0,90.0,0.0,0.0
129,71.0,80.0,90.0,0.0,0.0
130,73.0,80.0,90.0,0.0,0.0
131,75.0,80.0,90.0,0.0,0.0
132,73.0,80.0,90.0,0.0,0.0
133,75.0,40.0,90.0,0.0,0.0
134,77.0,80.0,90.0,0.0,0.0
135,85.0,40.0,30.0,1.0,0.0
136,83.0,0.0,30.0,1.0,0.0
137,85.0,0.0,390.0,1.0,0.0
138,75.0,80.0,90.0,0.0,0.0
139,77.0,80.0,90.0,0.0,0.0
140,78.0,80.0,90.0,0.0,0.0
141,77.0,80.0,90.0,0.0,0.0
142,78.0,80.0,90.0,0.0,0.0
143,80.0,80.0,90.0,0.0,0.0
144,78.0,80.0,90.0,0.0,0.0
145,80.0,80.0,90.0,0.0,0.0
146,82.0,80.0,90.0,0.0,0.0
147,66.0,80.0,240.0,1.0,0.0
148,80.0,80.0,90.0,0.0,0.0
149,82.0,0.0,90.0,0.0,0.0
150,83.0,80.0,240.0,0.0,0.0
151,75.0,80.0,90.0,1.0,0.0
152,76.0,80.0,90.0,1.0,0.0
153,75.0,0.0,90.0,1.0,0.0
154,73.0,80.0,90.0,1.0,0.0
155,75.0,80.0,90.0,1.0,0.0
156,73.0,40.0,90.0,1.0,0.0
157,71.0,80.0,90.0,1.0,0.0
158,56.0,40.0,30.0,0.0,0.0
159,54.0,0.0,30.0,0.0,0.0
160,73.0,80.0,90.0,1.0,0.0
161,56.0,0.0,390.0,0.0,0.0
162,71.0,80.0,90.0,1.0,0.0
163,70.0,80.0,90.0,1.0,0.0
164,71.0,80.0,90.0,1.0,0.0
165,70.0,80.0,90.0,1.0,0.0
166,68.0,80.0,90.0,1.0,0.0
167,70.0,80.0,90.0,1.0,0.0
168,68.0,80.0,90.0,1.0,0.0
169,66.0,80.0,90.0,1.0,0.0
170,75.0,0.0,240.0,0.0,0.0
171,68.0,80.0,90.0,1.0,0.0
172,66.0,80.0,90.0,1.0,0.0
173,65.0,80.0,90.0,1.0,0.0
174,83.0,0.0,240.0,0.0,0.0
175,66.0,80.0,90.0,1.0,0.0
176,65.0,80.0,90.0,1.0,0.0
177,63.0,80.0,90.0,1.0,0.0
178,65.0,80.0,90.0,1.0,0.0
179,63.0,40.0,90.0,1.0,0.0
180,61.0,0.0,90.0,1.0,0.0
181,53.0,40.0,30.0,0.0,0.0
182,51.0,80.0,30.0,0.0,0.0
183,63.0,80.0,90.0,1.0,0.0
184,53.0,80.0,390.0,0.0,0.0
185,61.0,80.0,90.0,1.0,0.0
186,59.0,80.0,90.0,1.0,0.0
187,61.0,80.0,90.0,1.0,0.0
188,59.0,0.0,90.0,1.0,0.0
189,58.0,80.0,90.0,1.0,0.0
190,59.0,80.0,90.0,1.0,0.0
191,58.0,80.0,90.0,1.0,0.0
192,56.0,80.0,90.0,1.0,0.0
193,83.0,80.0,240.0,0.0,0.0
194,58.0,80.0,90.0,1.0,0.0
195,56.0,0.0,90.0,1.0,0.0
196,54.0,80.0,240.0,1.0,0.0
197,82.0,80.0,90.0,0.0,0.0
198,85.0,80.0,90.0,0.0,0.0
199,78.0,0.0,90.0,0.0,0.0
200,61.0,80.0,240.0,1.0,0.0
201,80.0,80.0,90.0,0.0,0.0
202,83.0,80.0,90.0,0.0,0.0
203,77.0,0.0,90.0,0.0,0.0
204,78.0,80.0,90.0,0.0,0.0
205,70.0,80.0,240.0,1.0,0.0
206,82.0,80.0,90.0,0.0,0.0
207,75.0,0.0,90.0,0.0,0.0
208,61.0,80.0,240.0,1.0,0.0
209,76.0,80.0,90.0,0.0,0.0
210,80.0,80.0,90.0,0.0,0.0
211,73.0,0.0,90.0,0.0,0.0
212,54.0,0.0,240.0,1.0,0.0
213,75.0,80.0,90.0,0.0,0.0
214,78.0,80.0,90.0,0.0,0.0
215,71.0,80.0,90.0,0.0,0.0
216,64.0,80.0,240.0,1.0,0.0
217,73.0,80.0,90.0,0.0,0.0
218,76.0,80.0,90.0,0.0,0.0
219,70.0,0.0,90.0,0.0,0.0
220,63.0,80.0,90.0,1.0,0.0
221,71.0,0.0,240.0,0.0,0.0
222,59.0,80.0,90.0,1.0,0.0
223,66.0,80.0,90.0,1.0,0.0
224,59.0,0.0,240.0,0.0,0.0
225,65.0,80.0,90.0,1.0,0.0
226,61.0,80.0,90.0,1.0,0.0
227,68.0,80.0,90.0,1.0,0.0
228,66.0,80.0,90.0,1.0,0.0
229,58.0,80.0,240.0,0.0,0.0
230,63.0,80.0,90.0,1.0,0.0
231,70.0,0.0,90.0,1.0,0.0
232,68.0,80.0,90.0,1.0,0.0
233,61.0,0.0,240.0,0.0,0.0
234,65.0,80.0,90.0,1.0,0.0
235,71.0,80.0,90.0,1.0,0.0
236,54.0,0.0,240.0,0.0,0.0
237,70.0,80.0,90.0,1.0,0.0
238,66.0,80.0,90.0,1.0,0.0
239,73.0,80.0,90.0,1.0,0.0
240,66.0,0.0,240.0,0.0,0.0
241,71.0,80.0,90.0,1.0,0.0
242,68.0,80.0,90.0,1.0,0.0
243,75.0,80.0,90.0,1.0,0.0
244,73.0,80.0,330.0,1.0,0.0
245,65.0,80.0,90.0,0.0,0.0
246,61.0,80.0,90.0,0.0,0.0
247,63.0,80.0,90.0,0.0,0.0
248,65.0,0.0,90.0,0.0,0.0
249,66.0,0.0,90.0,0.0,0.0
250,75.0,80.0,90.0,1.0,0.0
251,68.0,0.0,90.0,0.0,0.0
252,77.0,80.0,90.0,1.0,0.0
253,70.0,80.0,330.0,0.0,0.0
254,78.0,80.0,90.0,1.0,0.0
255,77.0,80.0,90.0,1.0,0.0
256,75.0,80.0,90.0,1.0,0.0
257,73.0,80.0,330.0,1.0,0.0
258,68.0,80.0,90.0,0.0,0.0
259,66.0,80.0,90.0,0.0,0.0
260,75.0,60.0,240.0,0.0,0.0
261,71.0,80.0,90.0,1.0,0.0
262,70.0,0.0,90.0,1.0,0.0
263,68.0,40.0,90.0,1.0,0.0
264,78.0,20.0,60.0,0.0,0.0
265,77.0,40.0,60.0,0.0,0.0
266,70.0,20.0,90.0,1.0,0.0
267,75.0,60.0,60.0,0.0,0.0
268,71.0,0.0,90.0,1.0,0.0
269,77.0,80.0,60.0,0.0,0.0
270,70.0,0.0,240.0,1.0,0.0
271,78.0,80.0,90.0,0.0,0.0
272,73.0,80.0,90.0,0.0,0.0
273,70.0,80.0,90.0,0.0,0.0
274,66.0,80.0,90.0,0.0,0.0
275,61.0,80.0,90.0,0.0,0.0
276,58.0,160.0,90.0,0.0,0.0
277,54.0,80.0,240.0,0.0,0.0
278,70.0,80.0,90.0,1.0,0.0
279,73.0,0.0,90.0,1.0,0.0
280,78.0,80.0,90.0,1.0,0.0
281,82.0,80.0,90.0,1.0,0.0
282,85.0,240.0,90.0,1.0,0.0
283,90.0,480.0,240.0,1.0,0.0
284,59.0,240.0,240.0,1.0,0.0
285,75.0,0.0,120.0,0.0,0.0
286,63.0,0.0,240.0,1.0,0.0
287,71.0,240.0,120.0,0.0,0.0
288,66.0,0.0,240.0,1.0,0.0
289,66.0,240.0,120.0,0.0,0.0
290,71.0,240.0,240.0,1.0,0.0
291,63.0,0.0,120.0,0.0,0.0
292,75.0,120.0,240.0,1.0,0.0
293,59.0,0.0,120.0,0.0,0.0
294,77.0,0.0,240.0,1.0,0.0
295,58.0,120.0,120.0,0.0,0.0
296,56.0,240.0,120.0,0.0,0.0
297,58.0,240.0,240.0,0.0,0.0
298,78.0,0.0,120.0,1.0,0.0
299,61.0,0.0,240.0,0.0,0.0
300,73.0,240.0,120.0,1.0,0.0
301,66.0,0.0,240.0,0.0,0.0
302,70.0,240.0,120.0,1.0,0.0
303,70.0,0.0,240.0,0.0,0.0
304,66.0,240.0,120.0,1.0,0.0
305,73.0,120.0,240.0,0.0,0.0
306,61.0,0.0,120.0,1.0,0.0
307,78.0,0.0,240.0,0.0,0.0
308,59.0,120.0,120.0,1.0,0.0
309,58.0,240.0,120.0,1.0,0.0
310,56.0,240.0,240.0,1.0,0.0
311,71.0,0.0,120.0,0.0,0.0
312,59.0,240.0,240.0,1.0,0.0
313,68.0,0.0,120.0,0.0,0.0
314,61.0,0.0,240.0,1.0,0.0
315,65.0,240.0,120.0,0.0,0.0
316,65.0,0.0,240.0,1.0,0.0
317,61.0,240.0,120.0,0.0,0.0
318,68.0,120.0,240.0,1.0,0.0
319,59.0,0.0,120.0,0.0,0.0
320,58.0,120.0,120.0,0.0,0.0
321,71.0,240.0,240.0,1.0,0.0
322,56.0,0.0,120.0,0.0,0.0
323,54.0,240.0,240.0,0.0,0.0
324,70.0,0.0,120.0,1.0,0.0
325,58.0,0.0,240.0,0.0,0.0
326,66.0,240.0,120.0,1.0,0.0
327,61.0,240.0,240.0,0.0,0.0
328,61.0,0.0,120.0,1.0,0.0
329,66.0,240.0,240.0,0.0,0.0
330,58.0,0.0,120.0,1.0,0.0
331,70.0,0.0,240.0,0.0,0.0
332,56.0,120.0,120.0,1.0,0.0
333,73.0,0.0,240.0,0.0,0.0
334,54.0,120.0,120.0,1.0,0.0
335,52.0,240.0,120.0,1.0,0.0
336,51.0,240.0,240.0,1.0,0.0
337,71.0,0.0,120.0,0.0,0.0
338,54.0,0.0,240.0,1.0,0.0
339,66.0,240.0,120.0,0.0,0.0
340,59.0,240.0,240.0,1.0,0.0
341,63.0,0.0,120.0,0.0,0.0
342,63.0,240.0,240.0,1.0,0.0
343,59.0,0.0,120.0,0.0,0.0
344,66.0,0.0,240.0,1.0,0.0
345,57.0,120.0,120.0,0.0,0.0
346,56.0,120.0,120.0,0.0,0.0
347,69.0,240.0,240.0,1.0,0.0
348,54.0,0.0,120.0,0.0,0.0
349,52.0,0.0,240.0,0.0,0.0
350,68.0,240.0,120.0,1.0,0.0
351,56.0,0.0,240.0,0.0,0.0
352,64.0,240.0,120.0,1.0,0.0
353,59.0,0.0,240.0,0.0,0.0
354,59.0,240.0,120.0,1.0,0.0
355,64.0,240.0,240.0,0.0,0.0
356,56.0,0.0,120.0,1.0,0.0
357,68.0,0.0,240.0,0.0,0.0
358,52.0,120.0,120.0,1.0,0.0
359,51.0,120.0,120.0,1.0,0.0
360,71.0,240.0,240.0,0.0,0.0
361,49.0,0.0,120.0,1.0,0.0
362,54.0,240.0,240.0,1.0,0.0
363,70.0,0.0,120.0,0.0,0.0
364,58.0,0.0,240.0,1.0,0.0
365,66.0,240.0,120.0,0.0,0.0
366,61.0,0.0,240.0,1.0,0.0
367,61.0,240.0,120.0,0.0,0.0
368,66.0,240.0,240.0,1.0,0.0
369,58.0,0.0,120.0,0.0,0.0
370,70.0,120.0,240.0,1.0,0.0
371,54.0,0.0,120.0,0.0,0.0
372,73.0,0.0,240.0,1.0,0.0
373,52.0,120.0,120.0,0.0,0.0
374,54.0,240.0,120.0,0.0,0.0
375,47.0,0.0,240.0,0.0,0.0
376,75.0,240.0,120.0,1.0,0.0
377,51.0,0.0,240.0,0.0,0.0
378,71.0,240.0,120.0,1.0,0.0
379,54.0,0.0,240.0,0.0,0.0
380,66.0,240.0,120.0,1.0,0.0
381,59.0,0.0,240.0,0.0,0.0
382,63.0,240.0,120.0,1.0,0.0
383,58.0,120.0,240.0,0.0,0.0
384,61.0,0.0,120.0,1.0,0.0
385,59.0,120.0,120.0,1.0,0.0
386,64.0,80.0,240.0,0.0,0.0
387,58.0,0.0,120.0,1.0,0.0
388,63.0,80.0,90.0,0.0,0.0
389,59.0,80.0,240.0,1.0,0.0
390,61.0,80.0,90.0,0.0,0.0
391,63.0,0.0,90.0,0.0,0.0
392,64.0,80.0,90.0,0.0,0.0
393,63.0,80.0,90.0,0.0,0.0
394,64.0,40.0,90.0,0.0,0.0
395,66.0,80.0,90.0,0.0,0.0
396,87.0,40.0,30.0,1.0,0.0
397,85.0,0.0,30.0,1.0,0.0
398,87.0,0.0,390.0,1.0,0.0
399,64.0,80.0,90.0,0.0,0.0
400,66.0,80.0,90.0,0.0,0.0
401,68.0,80.0,90.0,0.0,0.0
402,66.0,80.0,90.0,0.0,0.0
403,68.0,80.0,90.0,0.0,0.0
404,70.0,80.0,90.0,0.0,0.0
405,68.0,80.0,90.0,0.0,0.0
406,70.0,80.0,90.0,0.0,0.0
407,71.0,80.0,90.0,0.0,0.0
408,68.0,0.0,240.0,1.0,0.0
409,70.0,80.0,90.0,0.0,0.0
410,71.0,80.0,90.0,0.0,0.0
411,58.0,0.0,240.0,1.0,0.0
412,73.0,80.0,90.0,0.0,0.0
413,71.0,80.0,90.0,0.0,0.0
414,73.0,80.0,90.0,0.0,0.0
415,75.0,80.0,90.0,0.0,0.0
416,73.0,80.0,90.0,0.0,0.0
417,75.0,40.0,90.0,0.0,0.0
418,77.0,80.0,90.0,0.0,0.0
419,85.0,40.0,30.0,1.0,0.0
420,83.0,0.0,30.0,1.0,0.0
421,75.0,80.0,90.0,0.0,0.0
422,85.0,0.0,390.0,1.0,0.0
423,77.0,80.0,90.0,0.0,0.0
424,78.0,80.0,90.0,0.0,0.0
425,77.0,80.0,90.0,0.0,0.0
426,78.0,80.0,90.0,0.0,0.0
427,80.0,80.0,90.0,0.0,0.0
428,78.0,80.0,90.0,0.0,0.0
429,80.0,80.0,90.0,0.0,0.0
430,66.0,80.0,240.0,1.0,0.0
431,82.0,80.0,90.0,0.0,0.0
432,80.0,80.0,90.0,0.0,0.0
433,82.0,0.0,90.0,0.0,0.0
434,75.0,80.0,90.0,1.0,0.0
435,83.0,0.0,240.0,0.0,0.0
436,76.0,80.0,90.0,1.0,0.0
437,75.0,80.0,90.0,1.0,0.0
438,73.0,80.0,90.0,1.0,0.0
439,75.0,80.0,90.0,1.0,0.0
440,73.0,40.0,90.0,1.0,0.0
441,71.0,80.0,90.0,1.0,0.0
442,56.0,40.0,30.0,0.0,0.0
443,54.0,0.0,30.0,0.0,0.0
444,56.0,80.0,390.0,0.0,0.0
445,73.0,80.0,90.0,1.0,0.0
446,71.0,80.0,90.0,1.0,0.0
447,70.0,80.0,90.0,1.0,0.0
448,71.0,80.0,90.0,1.0,0.0
449,70.0,0.0,90.0,1.0,0.0
450,68.0,80.0,90.0,1.0,0.0
451,70.0,80.0,90.0,1.0,0.0
452,68.0,80.0,90.0,1.0,0.0
453,75.0,80.0,240.0,0.0,0.0
454,66.0,80.0,90.0,1.0,0.0
455,68.0,80.0,90.0,1.0,0.0
456,66.0,0.0,90.0,1.0,0.0
457,65.0,80.0,90.0,1.0,0.0
458,83.0,80.0,240.0,0.0,0.0
459,66.0,80.0,90.0,1.0,0.0
460,65.0,0.0,90.0,1.0,0.0
461,63.0,80.0,90.0,1.0,0.0
462,65.0,80.0,90.0,1.0,0.0
463,63.0,40.0,90.0,1.0,0.0
464,61.0,80.0,90.0,1.0,0.0
465,53.0,40.0,30.0,0.0,0.0
466,51.0,0.0,30.0,0.0,0.0
467,63.0,80.0,90.0,1.0,0.0
468,53.0,0.0,390.0,0.0,0.0
469,61.0,80.0,90.0,1.0,0.0
470,59.0,80.0,90.0,1.0,0.0
471,61.0,80.0,90.0,1.0,0.0
472,59.0,80.0,90.0,1.0,0.0
473,58.0,80.0,90.0,1.0,0.0
474,59.0,80.0,90.0,1.0,0.0
475,58.0,80.0,90.0,1.0,0.0
476,56.0,80.0,90.0,1.0,0.0
477,83.0,0.0,240.0,0.0,0.0
478,58.0,80.0,90.0,1.0,0.0
479,56.0,80.0,90.0,1.0,0.0
480,82.0,80.0,90.0,0.0,0.0
481,54.0,80.0,240.0,1.0,0.0
482,85.0,80.0,90.0,0.0,0.0
483,78.0,0.0,90.0,0.0,0.0
484,80.0,80.0,90.0,0.0,0.0
485,61.0,0.0,240.0,1.0,0.0
486,83.0,80.0,90.0,0.0,0.0
487,77.0,80.0,90.0,0.0,0.0
488,70.0,0.0,240.0,1.0,0.0
489,78.0,80.0,90.0,0.0,0.0
490,82.0,80.0,90.0,0.0,0.0
491,75.0,80.0,90.0,0.0,0.0
492,76.0,80.0,90.0,0.0,0.0
493,61.0,80.0,240.0,1.0,0.0
494,80.0,80.0,90.0,0.0,0.0
495,73.0,0.0,90.0,0.0,0.0
496,75.0,80.0,90.0,0.0,0.0
497,54.0,0.0,240.0,1.0,0.0
498,78.0,80.0,90.0,0.0,0.0
499,71.0,80.0,90.0,0.0,0.0
500,64.0,80.0,240.0,1.0,0.0
501,73.0,80.0,90.0,0.0,0.0
502,76.0,80.0,90.0,0.0,0.0
503,70.0,0.0,90.0,0.0,0.0
504,71.0,0.0,240.0,0.0,0.0
505,63.0,80.0,90.0,1.0,0.0
506,59.0,80.0,90.0,1.0,0.0
507,66.0,80.0,90.0,1.0,0.0
508,65.0,80.0,90.0,1.0,0.0
509,59.0,0.0,240.0,0.0,0.0
510,61.0,80.0,90.0,1.0,0.0
511,68.0,80.0,90.0,1.0,0.0
512,66.0,80.0,90.0,1.0,0.0
513,58.0,80.0,240.0,0.0,0.0
514,63.0,80.0,90.0,1.0,0.0
515,70.0,0.0,90.0,1.0,0.0
516,61.0,0.0,240.0,0.0,0.0
517,68.0,80.0,90.0,1.0,0.0
518,65.0,80.0,90.0,1.0,0.0
519,71.0,80.0,90.0,1.0,0.0
520,54.0,80.0,240.0,0.0,0.0
521,70.0,80.0,90.0,1.0,0.0
522,66.0,80.0,90.0,1.0,0.0
523,73.0,0.0,90.0,1.0,0.0
524,71.0,80.0,90.0,1.0,0.0
525,66.0,0.0,240.0,0.0,0.0
526,68.0,80.0,90.0,1.0,0.0
527,75.0,80.0,90.0,1.0,0.0
528,65.0,80.0,90.0,0.0,0.0
529,73.0,0.0,330.0,1.0,0.0
530,61.0,80.0,90.0,0.0,0.0
531,63.0,80.0,90.0,0.0,0.0
532,65.0,80.0,90.0,0.0,0.0
533,75.0,0.0,90.0,1.0,0.0
534,66.0,80.0,90.0,0.0,0.0
535,77.0,0.0,90.0,1.0,0.0
536,68.0,80.0,90.0,0.0,0.0
537,78.0,80.0,90.0,1.0,0.0
538,70.0,80.0,330.0,0.0,0.0
539,77.0,80.0,90.0,1.0,0.0
540,75.0,80.0,90.0,1.0,0.0
541,73.0,80.0,330.0,1.0,0.0
542,68.0,80.0,90.0,0.0,0.0
543,66.0,80.0,90.0,0.0,0.0
544,75.0,60.0,240.0,0.0,0.0
545,71.0,80.0,90.0,1.0,0.0
546,70.0,0.0,90.0,1.0,0.0
547,68.0,40.0,90.0,1.0,0.0
548,78.0,20.0,60.0,0.0,0.0
549,77.0,40.0,60.0,0.0,0.0
550,70.0,20.0,90.0,1.0,0.0
551,75.0,60.0,60.0,0.0,0.0
552,71.0,80.0,90.0,1.0,0.0
553,77.0,0.0,60.0,0.0,0.0
554,70.0,0.0,240.0,1.0,0.0
555,78.0,80.0,90.0,0.0,0.0
556,73.0,80.0,90.0,0.0,0.0
557,70.0,80.0,90.0,0.0,0.0
558,66.0,80.0,90.0,0.0,0.0
559,61.0,80.0,90.0,0.0,0.0
560,58.0,160.0,90.0,0.0,0.0
561,54.0,80.0,240.0,0.0,0.0
562,70.0,80.0,90.0,1.0,0.0
563,73.0,0.0,90.0,1.0,0.0
564,78.0,80.0,90.0,1.0,0.0
565,82.0,80.0,90.0,1.0,0.0
566,85.0,240.0,90.0,1.0,0.0
567,90.0,480.0,240.0,1.0,0.0
568,54.0,0.0,240.0,1.0,0.0
569,85.0,240.0,120.0,0.0,0.0
570,42.0,0.0,240.0,1.0,0.0
571,82.0,240.0,120.0,0.0,0.0
572,46.0,240.0,240.0,1.0,0.0
573,78.0,0.0,120.0,0.0,0.0
574,49.0,240.0,240.0,1.0,0.0
575,73.0,0.0,120.0,0.0,0.0
576,54.0,0.0,240.0,1.0,0.0
577,70.0,240.0,120.0,0.0,0.0
578,58.0,0.0,240.0,1.0,0.0
579,66.0,240.0,120.0,0.0,0.0
580,59.0,240.0,240.0,1.0,0.0
581,63.0,0.0,120.0,0.0,0.0
582,63.0,240.0,240.0,1.0,0.0
583,59.0,0.0,120.0,0.0,0.0
584,66.0,0.0,240.0,1.0,0.0
585,54.0,240.0,120.0,0.0,0.0
586,71.0,0.0,240.0,1.0,0.0
587,51.0,60.0,120.0,0.0,0.0
588,75.0,60.0,60.0,1.0,0.0
589,73.0,120.0,60.0,1.0,0.0
590,47.0,120.0,120.0,0.0,0.0
591,75.0,100.0,420.0,1.0,0.0
592,49.0,120.0,120.0,0.0,0.0
593,51.0,60.0,120.0,0.0,0.0
594,52.0,80.0,240.0,0.0,0.0
595,68.0,80.0,90.0,1.0,0.0
596,67.0,0.0,90.0,1.0,0.0
597,68.0,80.0,90.0,1.0,0.0
598,59.0,80.0,240.0,0.0,0.0
599,70.0,80.0,90.0,1.0,0.0
600,71.0,0.0,90.0,1.0,0.0
601,64.0,80.0,240.0,0.0,0.0
602,73.0,80.0,90.0,1.0,0.0
603,71.0,80.0,90.0,1.0,0.0
604,70.0,0.0,90.0,1.0,0.0
605,71.0,80.0,90.0,1.0,0.0
606,68.0,0.0,240.0,0.0,0.0
607,73.0,80.0,90.0,1.0,0.0
608,75.0,80.0,90.0,1.0,0.0
609,76.0,80.0,90.0,1.0,0.0
610,61.0,80.0,240.0,0.0,0.0
611,75.0,80.0,90.0,1.0,0.0
612,73.0,0.0,90.0,1.0,0.0
613,71.0,80.0,90.0,1.0,0.0
614,76.0,80.0,330.0,0.0,0.0
615,70.0,80.0,90.0,1.0,0.0
616,68.0,80.0,90.0,1.0,0.0
617,67.0,0.0,330.0,1.0,0.0
618,75.0,80.0,90.0,0.0,0.0
619,74.0,80.0,90.0,0.0,0.0
620,75.0,80.0,90.0,0.0,0.0
621,68.0,0.0,90.0,1.0,0.0
622,77.0,80.0,90.0,0.0,0.0
623,79.0,0.0,90.0,0.0,0.0
624,70.0,80.0,90.0,1.0,0.0
625,80.0,0.0,90.0,0.0,0.0
626,71.0,80.0,90.0,1.0,0.0
627,79.0,80.0,90.0,0.0,0.0
628,70.0,0.0,90.0,1.0,0.0
629,68.0,0.0,90.0,1.0,0.0
630,77.0,80.0,90.0,0.0,0.0
631,79.0,80.0,90.0,0.0,0.0
632,70.0,0.0,90.0,1.0,0.0
633,80.0,0.0,90.0,0.0,0.0
634,71.0,80.0,90.0,1.0,0.0
635,82.0,0.0,90.0,0.0,0.0
636,73.0,80.0,90.0,1.0,0.0
637,83.0,80.0,90.0,0.0,0.0
638,63.0,0.0,240.0,1.0,0.0
639,82.0,80.0,90.0,0.0,0.0
640,80.0,80.0,90.0,0.0,0.0
641,61.0,0.0,240.0,1.0,0.0
642,82.0,80.0,90.0,0.0,0.0
643,83.0,80.0,90.0,0.0,0.0
644,85.0,80.0,90.0,0.0,0.0
645,59.0,0.0,90.0,1.0,0.0
646,87.0,80.0,90.0,0.0,0.0
647,85.0,0.0,90.0,0.0,0.0
648,58.0,80.0,90.0,1.0,0.0
649,83.0,80.0,90.0,0.0,0.0
650,56.0,0.0,150.0,1.0,0.0
651,85.0,80.0,90.0,0.0,0.0
652,87.0,80.0,90.0,0.0,0.0
653,55.0,0.0,90.0,1.0,0.0
654,56.0,0.0,90.0,1.0,0.0
655,88.0,80.0,90.0,0.0,0.0
656,79.0,0.0,240.0,0.0,0.0
657,57.0,80.0,90.0,1.0,0.0
658,56.0,80.0,90.0,1.0,0.0
659,57.0,80.0,90.0,1.0,0.0
660,88.0,80.0,240.0,0.0,0.0
661,58.0,80.0,90.0,1.0,0.0
662,56.0,80.0,90.0,1.0,0.0
663,58.0,0.0,90.0,1.0,0.0
664,87.0,0.0,240.0,0.0,0.0
665,59.0,80.0,90.0,1.0,0.0
666,58.0,80.0,90.0,1.0,0.0
667,59.0,80.0,90.0,1.0,0.0
668,60.0,80.0,90.0,1.0,0.0
669,78.0,80.0,330.0,0.0,0.0
670,58.0,80.0,90.0,1.0,0.0
671,60.0,80.0,90.0,1.0,0.0
672,61.0,0.0,330.0,1.0,0.0
673,77.0,80.0,90.0,0.0,0.0
674,79.0,80.0,90.0,0.0,0.0
675,80.0,80.0,90.0,0.0,0.0
676,82.0,10.0,90.0,0.0,0.0
677,62.0,70.0,90.0,1.0,0.0
678,63.0,0.0,90.0,1.0,0.0
679,83.0,80.0,90.0,0.0,0.0
680,74.0,80.0,240.0,0.0,0.0
681,64.0,80.0,90.0,1.0,0.0
682,63.0,80.0,90.0,1.0,0.0
683,64.0,0.0,90.0,1.0,0.0
684,65.0,80.0,90.0,1.0,0.0
685,83.0,0.0,240.0,0.0,0.0
686,63.0,80.0,90.0,1.0,0.0
687,65.0,80.0,90.0,1.0,0.0
688,82.0,0.0,240.0,0.0,0.0
689,66.0,80.0,90.0,1.0,0.0
690,65.0,80.0,90.0,1.0,0.0
691,66.0,80.0,90.0,1.0,0.0
692,67.0,80.0,90.0,1.0,0.0
693,73.0,80.0,240.0,0.0,0.0
694,65.0,80.0,90.0,1.0,0.0
695,67.0,0.0,90.0,1.0,0.0
696,68.0,80.0,90.0,1.0,0.0
697,71.0,0.0,240.0,0.0,0.0
698,67.0,80.0,90.0,1.0,0.0
699,68.0,80.0,90.0,1.0,0.0
700,67.0,0.0,240.0,0.0,0.0
701,70.0,80.0,90.0,1.0,0.0
702,68.0,80.0,90.0,1.0,0.0
703,70.0,80.0,90.0,1.0,0.0
704,68.0,0.0,240.0,0.0,0.0
705,71.0,80.0,90.0,1.0,0.0
706,70.0,80.0,90.0,1.0,0.0
707,71.0,80.0,90.0,1.0,0.0
708,64.0,80.0,240.0,0.0,0.0
709,73.0,80.0,90.0,1.0,0.0
710,71.0,80.0,90.0,1.0,0.0
711,73.0,0.0,90.0,1.0,0.0
712,75.0,80.0,90.0,1.0,0.0
713,55.0,80.0,240.0,0.0,0.0
714,73.0,80.0,90.0,1.0,0.0
715,75.0,0.0,90.0,1.0,0.0
716,76.0,80.0,90.0,1.0,0.0
717,79.0,80.0,240.0,0.0,0.0
718,75.0,80.0,90.0,1.0,0.0
719,73.0,0.0,90.0,1.0,0.0
720,71.0,80.0,90.0,1.0,0.0
721,80.0,80.0,240.0,0.0,0.0
722,70.0,80.0,90.0,1.0,0.0
723,71.0,0.0,90.0,1.0,0.0
724,68.0,0.0,240.0,0.0,0.0
725,73.0,80.0,90.0,1.0,0.0
726,71.0,80.0,90.0,1.0,0.0
727,70.0,160.0,90.0,1.0,0.0
728,68.0,0.0,720.0,1.0,0.0
729,71.0,80.0,90.0,0.0,0.0
730,75.0,80.0,90.0,0.0,0.0
731,80.0,80.0,90.0,0.0,0.0
732,83.0,80.0,90.0,0.0,0.0
733,79.0,80.0,90.0,0.0,0.0
734,80.0,80.0,90.0,0.0,0.0
735,75.0,80.0,90.0,0.0,0.0
736,71.0,160.0,90.0,0.0,0.0
737,54.0,20.0,240.0,1.0,0.0
738,72.0,80.0,90.0,0.0,0.0
739,81.0,60.0,90.0,0.0,0.0
740,80.0,80.0,90.0,0.0,0.0
741,52.0,120.0,240.0,1.0,0.0
742,76.0,80.0,90.0,0.0,0.0
743,73.0,0.0,90.0,0.0,0.0
744,68.0,40.0,120.0,1.0,0.0
745,66.0,80.0,90.0,0.0,0.0
746,75.0,120.0,90.0,0.0,0.0
747,68.0,40.0,120.0,1.0,0.0
748,64.0,80.0,90.0,0.0,0.0
749,73.0,120.0,90.0,0.0,0.0
750,68.0,40.0,120.0,1.0,0.0
751,63.0,80.0,90.0,0.0,0.0
752,71.0,120.0,90.0,0.0,0.0
753,68.0,40.0,120.0,1.0,0.0
754,64.0,80.0,90.0,0.0,0.0
755,73.0,160.0,90.0,0.0,0.0
756,52.0,0.0,240.0,1.0,0.0
757,70.0,80.0,90.0,0.0,0.0
758,79.0,80.0,90.0,0.0,0.0
759,51.0,120.0,240.0,1.0,0.0
760,78.0,80.0,90.0,0.0,0.0
761,75.0,80.0,90.0,0.0,0.0
762,71.0,0.0,90.0,0.0,0.0
763,66.0,40.0,120.0,1.0,0.0
764,64.0,80.0,90.0,0.0,0.0
765,73.0,120.0,90.0,0.0,0.0
766,66.0,40.0,120.0,1.0,0.0
767,63.0,80.0,90.0,0.0,0.0
768,71.0,120.0,90.0,0.0,0.0
769,66.0,40.0,120.0,1.0,0.0
770,61.0,80.0,90.0,0.0,0.0
771,70.0,120.0,90.0,0.0,0.0
772,66.0,40.0,120.0,1.0,0.0
773,63.0,80.0,90.0,0.0,0.0
774,71.0,160.0,90.0,0.0,0.0
775,51.0,0.0,240.0,1.0,0.0
776,68.0,80.0,90.0,0.0,0.0
777,78.0,80.0,90.0,0.0,0.0
778,49.0,120.0,240.0,1.0,0.0
779,76.0,80.0,90.0,0.0,0.0
780,73.0,80.0,90.0,0.0,0.0
781,68.0,0.0,90.0,0.0,0.0
782,64.0,40.0,120.0,0.0,0.0
783,63.0,80.0,90.0,1.0,0.0
784,71.0,120.0,90.0,1.0,0.0
785,64.0,40.0,120.0,0.0,0.0
786,61.0,80.0,90.0,1.0,0.0
787,70.0,120.0,90.0,1.0,0.0
788,64.0,40.0,120.0,0.0,0.0
789,59.0,80.0,90.0,1.0,0.0
790,68.0,120.0,90.0,1.0,0.0
791,64.0,40.0,120.0,0.0,0.0
792,58.0,80.0,90.0,1.0,0.0
793,66.0,160.0,90.0,1.0,0.0
794,59.0,80.0,90.0,1.0,0.0
795,68.0,0.0,90.0,1.0,0.0
796,54.0,0.0,240.0,1.0,0.0
797,76.0,80.0,15.0,0.0,0.0
798,73.0,80.0,90.0,0.0,0.0
799,70.0,120.0,90.0,0.0,0.0
800,66.0,40.0,120.0,0.0,0.0
801,61.0,80.0,90.0,1.0,0.0
802,70.0,120.0,90.0,1.0,0.0
803,66.0,40.0,120.0,0.0,0.0
804,63.0,80.0,90.0,1.0,0.0
805,71.0,120.0,90.0,1.0,0.0
806,66.0,40.0,120.0,0.0,0.0
807,64.0,80.0,90.0,1.0,0.0
808,73.0,120.0,90.0,1.0,0.0
809,66.0,40.0,120.0,0.0,0.0
810,63.0,80.0,90.0,1.0,0.0
811,71.0,160.0,90.0,1.0,0.0
812,76.0,80.0,240.0,0.0,0.0
813,61.0,80.0,90.0,1.0,0.0
814,70.0,0.0,90.0,1.0,0.0
815,59.0,0.0,240.0,1.0,0.0
816,75.0,80.0,90.0,0.0,0.0
817,71.0,80.0,90.0,0.0,0.0
818,78.0,80.0,90.0,0.0,0.0
819,76.0,80.0,90.0,0.0,0.0
820,71.0,80.0,330.0,1.0,0.0
821,73.0,80.0,90.0,0.0,0.0
822,80.0,80.0,90.0,0.0,0.0
823,78.0,80.0,240.0,0.0,0.0
824,75.0,80.0,90.0,1.0,0.0
825,68.0,0.0,90.0,1.0,0.0
826,69.0,80.0,90.0,1.0,0.0
827,63.0,0.0,240.0,0.0,0.0
828,73.0,80.0,90.0,1.0,0.0
829,66.0,80.0,90.0,1.0,0.0
830,68.0,80.0,90.0,1.0,0.0
831,59.0,0.0,240.0,0.0,0.0
832,71.0,80.0,90.0,1.0,0.0
833,64.0,80.0,90.0,1.0,0.0
834,81.0,0.0,240.0,0.0,0.0
835,66.0,80.0,90.0,1.0,0.0
836,69.0,80.0,90.0,1.0,0.0
837,63.0,80.0,90.0,1.0,0.0
838,80.0,0.0,90.0,0.0,0.0
839,64.0,80.0,90.0,1.0,0.0
840,59.0,0.0,90.0,1.0,0.0
841,83.0,80.0,90.0,0.0,0.0
842,68.0,80.0,90.0,1.0,0.0
843,76.0,0.0,90.0,0.0,0.0
844,78.0,80.0,90.0,0.0,0.0
845,66.0,0.0,90.0,1.0,0.0
846,63.0,0.0,90.0,1.0,0.0
847,81.0,80.0,90.0,0.0,0.0
848,69.0,80.0,90.0,1.0,0.0
849,75.0,0.0,90.0,0.0,0.0
850,68.0,80.0,240.0,1.0,0.0
851,76.0,80.0,90.0,0.0,0.0
852,80.0,80.0,90.0,0.0,0.0
853,73.0,0.0,90.0,0.0,0.0
854,83.0,0.0,240.0,1.0,0.0
855,75.0,80.0,90.0,0.0,0.0
856,78.0,80.0,90.0,0.0,0.0
857,71.0,80.0,90.0,0.0,0.0
858,88.0,80.0,240.0,1.0,0.0
859,73.0,80.0,90.0,0.0,0.0
860,76.0,80.0,90.0,0.0,0.0
861,70.0,0.0,90.0,0.0,0.0
862,80.0,80.0,240.0,1.0,0.0
863,71.0,80.0,90.0,0.0,0.0
864,75.0,80.0,90.0,0.0,0.0
865,68.0,0.0,90.0,0.0,0.0
866,70.0,80.0,90.0,0.0,0.0
867,78.0,0.0,330.0,1.0,0.0
868,66.0,80.0,90.0,0.0,0.0
869,68.0,80.0,90.0,0.0,0.0
870,70.0,80.0,90.0,0.0,0.0
871,80.0,0.0,90.0,1.0,0.0
872,71.0,80.0,90.0,0.0,0.0
873,73.0,0.0,90.0,0.0,0.0
874,82.0,80.0,90.0,1.0,0.0
875,63.0,80.0,330.0,0.0,0.0
876,83.0,80.0,90.0,1.0,0.0
877,82.0,80.0,90.0,1.0,0.0
878,80.0,80.0,90.0,1.0,0.0
879,78.0,80.0,330.0,1.0,0.0
880,61.0,80.0,90.0,0.0,0.0
881,59.0,80.0,90.0,0.0,0.0
882,68.0,0.0,240.0,0.0,0.0
883,76.0,80.0,90.0,1.0,0.0
884,75.0,60.0,90.0,1.0,0.0
885,71.0,20.0,60.0,0.0,0.0
886,73.0,40.0,90.0,1.0,0.0
887,70.0,40.0,60.0,0.0,0.0
888,75.0,20.0,90.0,1.0,0.0
889,68.0,60.0,60.0,0.0,0.0
890,76.0,80.0,90.0,1.0,0.0
891,70.0,0.0,60.0,0.0,0.0
892,71.0,80.0,90.0,0.0,0.0
893,75.0,80.0,240.0,1.0,0.0
894,66.0,80.0,90.0,0.0,0.0
895,63.0,0.0,90.0,0.0,0.0
896,59.0,80.0,90.0,0.0,0.0
897,54.0,80.0,90.0,0.0,0.0
898,51.0,160.0,90.0,0.0,0.0
899,47.0,80.0,240.0,0.0,0.0
900,63.0,80.0,90.0,1.0,0.0
901,66.0,0.0,90.0,1.0,0.0
902,71.0,80.0,90.0,1.0,0.0
903,75.0,80.0,90.0,1.0,0.0
904,78.0,240.0,90.0,1.0,0.0
905,83.0,480.0,240.0,1.0,0.0
906,54.0,240.0,240.0,1.0,0.0
907,85.0,0.0,120.0,0.0,0.0
908,42.0,240.0,240.0,1.0,0.0
909,82.0,0.0,120.0,0.0,0.0
910,46.0,240.0,240.0,1.0,0.0
911,78.0,0.0,120.0,0.0,0.0
912,49.0,0.0,240.0,1.0,0.0
913,73.0,240.0,120.0,0.0,0.0
914,54.0,0.0,240.0,1.0,0.0
915,70.0,240.0,120.0,0.0,0.0
916,58.0,0.0,240.0,1.0,0.0
917,66.0,240.0,120.0,0.0,0.0
918,59.0,0.0,240.0,1.0,0.0
919,63.0,240.0,120.0,0.0,0.0
920,63.0,240.0,240.0,1.0,0.0
921,59.0,0.0,120.0,0.0,0.0
922,66.0,240.0,240.0,1.0,0.0
923,54.0,0.0,120.0,0.0,0.0
924,71.0,60.0,240.0,1.0,0.0
925,51.0,0.0,120.0,0.0,0.0
926,75.0,60.0,60.0,1.0,0.0
927,73.0,120.0,60.0,1.0,0.0
928,47.0,120.0,120.0,0.0,0.0
929,75.0,100.0,420.0,1.0,0.0
930,49.0,120.0,120.0,0.0,0.0
931,51.0,60.0,120.0,0.0,0.0
932,52.0,0.0,240.0,0.0,0.0
933,68.0,80.0,90.0,1.0,0.0
934,67.0,80.0,90.0,1.0,0.0
935,59.0,0.0,240.0,0.0,0.0
936,68.0,80.0,90.0,1.0,0.0
937,70.0,80.0,90.0,1.0,0.0
938,71.0,80.0,90.0,1.0,0.0
939,73.0,80.0,90.0,1.0,0.0
940,64.0,80.0,240.0,0.0,0.0
941,71.0,80.0,90.0,1.0,0.0
942,70.0,0.0,90.0,1.0,0.0
943,71.0,80.0,90.0,1.0,0.0
944,68.0,80.0,240.0,0.0,0.0
945,73.0,80.0,90.0,1.0,0.0
946,75.0,0.0,90.0,1.0,0.0
947,76.0,80.0,90.0,1.0,0.0
948,61.0,80.0,240.0,0.0,0.0
949,75.0,80.0,90.0,1.0,0.0
950,73.0,0.0,90.0,1.0,0.0
951,71.0,80.0,90.0,1.0,0.0
952,76.0,80.0,330.0,0.0,0.0
953,70.0,80.0,90.0,1.0,0.0
954,68.0,80.0,90.0,1.0,0.0
955,67.0,80.0,330.0,1.0,0.0
956,75.0,80.0,90.0,0.0,0.0
957,74.0,80.0,90.0,0.0,0.0
958,75.0,0.0,90.0,0.0,0.0
959,77.0,80.0,90.0,0.0,0.0
960,68.0,0.0,90.0,1.0,0.0
961,79.0,80.0,90.0,0.0,0.0
962,70.0,0.0,90.0,1.0,0.0
963,71.0,80.0,90.0,1.0,0.0
964,80.0,0.0,90.0,0.0,0.0
965,79.0,80.0,90.0,0.0,0.0
966,70.0,0.0,90.0,1.0,0.0
967,77.0,80.0,90.0,0.0,0.0
968,68.0,0.0,90.0,1.0,0.0
969,70.0,0.0,90.0,1.0,0.0
970,79.0,80.0,90.0,0.0,0.0
971,80.0,80.0,90.0,0.0,0.0
972,71.0,0.0,90.0,1.0,0.0
973,82.0,0.0,90.0,0.0,0.0
974,73.0,80.0,90.0,1.0,0.0
975,83.0,80.0,90.0,0.0,0.0
976,63.0,80.0,240.0,1.0,0.0
977,82.0,80.0,90.0,0.0,0.0
978,80.0,0.0,90.0,0.0,0.0
979,82.0,80.0,90.0,0.0,0.0
980,61.0,0.0,240.0,1.0,0.0
981,83.0,80.0,90.0,0.0,0.0
982,85.0,80.0,90.0,0.0,0.0
983,59.0,0.0,90.0,1.0,0.0
984,87.0,80.0,90.0,0.0,0.0
985,85.0,0.0,90.0,0.0,0.0
986,58.0,80.0,90.0,1.0,0.0
987,56.0,0.0,150.0,1.0,0.0
988,83.0,80.0,90.0,0.0,0.0
989,85.0,80.0,90.0,0.0,0.0
990,87.0,0.0,90.0,0.0,0.0
991,55.0,80.0,90.0,1.0,0.0
992,56.0,80.0,90.0,1.0,0.0
993,88.0,0.0,90.0,0.0,0.0
994,79.0,0.0,240.0,0.0,0.0
995,57.0,80.0,90.0,1.0,0.0
996,56.0,80.0,90.0,1.0,0.0
997,57.0,80.0,90.0,1.0,0.0
998,88.0,80.0,240.0,0.0,0.0
999,58.0,80.0,90.0,1.0,0.0
1000,56.0,80.0,90.0,1.0,0.0
1001,58.0,0.0,90.0,1.0,0.0
1002,87.0,80.0,240.0,0.0,0.0
1003,59.0,80.0,90.0,1.0,0.0
1004,58.0,80.0,90.0,1.0,0.0
1005,59.0,0.0,90.0,1.0,0.0
1006,60.0,80.0,90.0,1.0,0.0
1007,78.0,80.0,330.0,0.0,0.0
1008,58.0,80.0,90.0,1.0,0.0
1009,60.0,80.0,90.0,1.0,0.0
1010,61.0,0.0,330.0,1.0,0.0
1011,77.0,80.0,90.0,0.0,0.0
1012,79.0,80.0,90.0,0.0,0.0
1013,80.0,80.0,90.0,0.0,0.0
1014,82.0,10.0,90.0,0.0,0.0
1015,62.0,70.0,90.0,1.0,0.0
1016,63.0,80.0,90.0,1.0,0.0
1017,83.0,0.0,90.0,0.0,0.0
1018,74.0,80.0,240.0,0.0,0.0
1019,64.0,80.0,90.0,1.0,0.0
1020,63.0,80.0,90.0,1.0,0.0
1021,64.0,0.0,90.0,1.0,0.0
1022,83.0,0.0,240.0,0.0,0.0
1023,65.0,80.0,90.0,1.0,0.0
1024,63.0,80.0,90.0,1.0,0.0
1025,65.0,80.0,90.0,1.0,0.0
1026,66.0,80.0,90.0,1.0,0.0
1027,82.0,80.0,240.0,0.0,0.0
1028,65.0,80.0,90.0,1.0,0.0
1029,66.0,0.0,90.0,1.0,0.0
1030,67.0,80.0,90.0,1.0,0.0
1031,73.0,80.0,240.0,0.0,0.0
1032,65.0,80.0,90.0,1.0,0.0
1033,67.0,0.0,90.0,1.0,0.0
1034,71.0,80.0,240.0,0.0,0.0
1035,68.0,80.0,90.0,1.0,0.0
1036,67.0,80.0,90.0,1.0,0.0
1037,68.0,0.0,90.0,1.0,0.0
1038,70.0,80.0,90.0,1.0,0.0
1039,67.0,80.0,240.0,0.0,0.0
1040,68.0,80.0,90.0,1.0,0.0
1041,70.0,0.0,90.0,1.0,0.0
1042,68.0,80.0,240.0,0.0,0.0
1043,71.0,80.0,90.0,1.0,0.0
1044,70.0,80.0,90.0,1.0,0.0
1045,71.0,0.0,90.0,1.0,0.0
1046,73.0,80.0,90.0,1.0,0.0
1047,64.0,0.0,240.0,0.0,0.0
1048,71.0,80.0,90.0,1.0,0.0
1049,73.0,80.0,90.0,1.0,0.0
1050,75.0,80.0,90.0,1.0,0.0
1051,55.0,80.0,240.0,0.0,0.0
1052,73.0,80.0,90.0,1.0,0.0
1053,75.0,0.0,90.0,1.0,0.0
1054,76.0,80.0,90.0,1.0,0.0
1055,79.0,0.0,240.0,0.0,0.0
1056,75.0,80.0,90.0,1.0,0.0
1057,73.0,80.0,90.0,1.0,0.0
1058,80.0,0.0,240.0,0.0,0.0
1059,71.0,80.0,90.0,1.0,0.0
1060,70.0,80.0,90.0,1.0,0.0
1061,71.0,80.0,90.0,1.0,0.0
1062,68.0,160.0,240.0,0.0,0.0
1063,73.0,80.0,90.0,1.0,0.0
1064,71.0,80.0,90.0,1.0,0.0
1065,70.0,0.0,90.0,1.0,0.0
1066,68.0,160.0,720.0,1.0,0.0
1067,71.0,80.0,90.0,0.0,0.0
1068,75.0,80.0,90.0,0.0,0.0
1069,80.0,80.0,90.0,0.0,0.0
1070,83.0,80.0,90.0,0.0,0.0
1071,79.0,80.0,90.0,0.0,0.0
1072,80.0,80.0,90.0,0.0,0.0
1073,75.0,80.0,90.0,0.0,0.0
1074,71.0,0.0,90.0,0.0,0.0
1075,54.0,20.0,240.0,1.0,0.0
1076,72.0,80.0,90.0,0.0,0.0
1077,81.0,60.0,90.0,0.0,0.0
1078,80.0,80.0,90.0,0.0,0.0
1079,52.0,0.0,240.0,1.0,0.0
1080,76.0,80.0,90.0,0.0,0.0
1081,73.0,120.0,90.0,0.0,0.0
1082,68.0,40.0,120.0,1.0,0.0
1083,66.0,80.0,90.0,0.0,0.0
1084,75.0,120.0,90.0,0.0,0.0
1085,68.0,40.0,120.0,1.0,0.0
1086,64.0,80.0,90.0,0.0,0.0
1087,73.0,120.0,90.0,0.0,0.0
1088,68.0,40.0,120.0,1.0,0.0
1089,63.0,80.0,90.0,0.0,0.0
1090,71.0,120.0,90.0,0.0,0.0
1091,68.0,40.0,120.0,1.0,0.0
1092,64.0,80.0,90.0,0.0,0.0
1093,73.0,160.0,90.0,0.0,0.0
1094,52.0,80.0,240.0,1.0,0.0
1095,70.0,80.0,90.0,0.0,0.0
1096,79.0,0.0,90.0,0.0,0.0
1097,78.0,80.0,90.0,0.0,0.0
1098,51.0,0.0,240.0,1.0,0.0
1099,75.0,80.0,90.0,0.0,0.0
1100,71.0,120.0,90.0,0.0,0.0
1101,66.0,40.0,120.0,1.0,0.0
1102,64.0,80.0,90.0,0.0,0.0
1103,73.0,120.0,90.0,0.0,0.0
1104,66.0,40.0,120.0,1.0,0.0
1105,63.0,80.0,90.0,0.0,0.0
1106,71.0,120.0,90.0,0.0,0.0
1107,66.0,40.0,120.0,1.0,0.0
1108,61.0,80.0,90.0,0.0,0.0
1109,70.0,120.0,90.0,0.0,0.0
1110,66.0,40.0,120.0,1.0,0.0
1111,63.0,80.0,90.0,0.0,0.0
1112,71.0,160.0,90.0,0.0,0.0
1113,51.0,0.0,240.0,1.0,0.0
1114,68.0,80.0,90.0,0.0,0.0
1115,78.0,80.0,90.0,0.0,0.0
1116,49.0,120.0,240.0,1.0,0.0
1117,76.0,80.0,90.0,0.0,0.0
1118,73.0,80.0,90.0,0.0,0.0
1119,68.0,0.0,90.0,0.0,0.0
1120,64.0,40.0,120.0,0.0,0.0
1121,63.0,80.0,90.0,1.0,0.0
1122,71.0,120.0,90.0,1.0,0.0
1123,64.0,40.0,120.0,0.0,0.0
1124,61.0,80.0,90.0,1.0,0.0
1125,70.0,120.0,90.0,1.0,0.0
1126,64.0,40.0,120.0,0.0,0.0
1127,59.0,80.0,90.0,1.0,0.0
1128,68.0,120.0,90.0,1.0,0.0
1129,64.0,40.0,120.0,0.0,0.0
1130,58.0,80.0,90.0,1.0,0.0
1131,66.0,160.0,90.0,1.0,0.0
1132,59.0,80.0,90.0,1.0,0.0
1133,68.0,0.0,90.0,1.0,0.0
1134,76.0,80.0,15.0,0.0,0.0
1135,54.0,120.0,240.0,1.0,0.0
1136,73.0,80.0,90.0,0.0,0.0
1137,70.0,0.0,90.0,0.0,0.0
1138,66.0,40.0,120.0,0.0,0.0
1139,61.0,80.0,90.0,1.0,0.0
1140,70.0,120.0,90.0,1.0,0.0
1141,66.0,40.0,120.0,0.0,0.0
1142,63.0,80.0,90.0,1.0,0.0
1143,71.0,120.0,90.0,1.0,0.0
1144,66.0,40.0,120.0,0.0,0.0
1145,64.0,80.0,90.0,1.0,0.0
1146,73.0,120.0,90.0,1.0,0.0
1147,66.0,40.0,120.0,0.0,0.0
1148,63.0,80.0,90.0,1.0,0.0
1149,71.0,160.0,90.0,1.0,0.0
1150,76.0,0.0,240.0,0.0,0.0
1151,61.0,80.0,90.0,1.0,0.0
1152,70.0,80.0,90.0,1.0,0.0
1153,59.0,80.0,240.0,1.0,0.0
1154,75.0,80.0,90.0,0.0,0.0
1155,71.0,80.0,90.0,0.0,0.0
1156,78.0,0.0,90.0,0.0,0.0
1157,71.0,80.0,330.0,1.0,0.0
1158,76.0,80.0,90.0,0.0,0.0
1159,73.0,80.0,90.0,0.0,0.0
1160,80.0,80.0,90.0,0.0,0.0
1161,78.0,80.0,240.0,0.0,0.0
1162,75.0,80.0,90.0,1.0,0.0
1163,68.0,0.0,90.0,1.0,0.0
1164,69.0,80.0,90.0,1.0,0.0
1165,63.0,0.0,240.0,0.0,0.0
1166,73.0,80.0,90.0,1.0,0.0
1167,66.0,80.0,90.0,1.0,0.0
1168,68.0,80.0,90.0,1.0,0.0
1169,59.0,80.0,240.0,0.0,0.0
1170,71.0,80.0,90.0,1.0,0.0
1171,64.0,0.0,90.0,1.0,0.0
1172,66.0,80.0,90.0,1.0,0.0
1173,81.0,80.0,240.0,0.0,0.0
1174,69.0,80.0,90.0,1.0,0.0
1175,63.0,0.0,90.0,1.0,0.0
1176,64.0,80.0,90.0,1.0,0.0
1177,80.0,0.0,90.0,0.0,0.0
1178,83.0,80.0,90.0,0.0,0.0
1179,59.0,0.0,90.0,1.0,0.0
1180,68.0,0.0,90.0,1.0,0.0
1181,76.0,80.0,90.0,0.0,0.0
1182,66.0,80.0,90.0,1.0,0.0
1183,78.0,0.0,90.0,0.0,0.0
1184,81.0,80.0,90.0,0.0,0.0
1185,63.0,0.0,90.0,1.0,0.0
1186,69.0,0.0,90.0,1.0,0.0
1187,75.0,80.0,90.0,0.0,0.0
1188,76.0,80.0,90.0,0.0,0.0
1189,68.0,0.0,240.0,1.0,0.0
1190,80.0,80.0,90.0,0.0,0.0
1191,73.0,80.0,90.0,0.0,0.0
1192,83.0,80.0,240.0,1.0,0.0
1193,75.0,80.0,90.0,0.0,0.0
1194,78.0,80.0,90.0,0.0,0.0
1195,71.0,0.0,90.0,0.0,0.0
1196,73.0,80.0,90.0,0.0,0.0
1197,88.0,0.0,240.0,1.0,0.0
1198,76.0,80.0,90.0,0.0,0.0
1199,70.0,80.0,90.0,0.0,0.0
1200,80.0,80.0,240.0,1.0,0.0
1201,71.0,80.0,90.0,0.0,0.0
1202,75.0,80.0,90.0,0.0,0.0
1203,68.0,0.0,90.0,0.0,0.0
1204,70.0,80.0,90.0,0.0,0.0
1205,78.0,80.0,330.0,1.0,0.0
1206,66.0,80.0,90.0,0.0,0.0
1207,68.0,80.0,90.0,0.0,0.0
1208,70.0,0.0,90.0,0.0,0.0
1209,71.0,80.0,90.0,0.0,0.0
1210,80.0,0.0,90.0,1.0,0.0
1211,73.0,0.0,90.0,0.0,0.0
1212,82.0,80.0,90.0,1.0,0.0
1213,63.0,80.0,330.0,0.0,0.0
1214,83.0,80.0,90.0,1.0,0.0
1215,82.0,80.0,90.0,1.0,0.0
1216,80.0,80.0,90.0,1.0,0.0
1217,78.0,80.0,330.0,1.0,0.0
1218,61.0,80.0,90.0,0.0,0.0
1219,59.0,80.0,90.0,0.0,0.0
1220,68.0,60.0,240.0,0.0,0.0
1221,76.0,80.0,90.0,1.0,0.0
1222,75.0,0.0,90.0,1.0,0.0
1223,73.0,40.0,90.0,1.0,0.0
1224,71.0,20.0,60.0,0.0,0.0
1225,70.0,40.0,60.0,0.0,0.0
1226,75.0,20.0,90.0,1.0,0.0
1227,68.0,60.0,60.0,0.0,0.0
1228,76.0,0.0,90.0,1.0,0.0
1229,70.0,80.0,60.0,0.0,0.0
1230,71.0,80.0,90.0,0.0,0.0
1231,75.0,80.0,240.0,1.0,0.0
1232,66.0,80.0,90.0,0.0,0.0
1233,63.0,0.0,90.0,0.0,0.0
1234,59.0,80.0,90.0,0.0,0.0
1235,54.0,80.0,90.0,0.0,0.0
1236,51.0,160.0,90.0,0.0,0.0
1237,47.0,80.0,240.0,0.0,0.0
1238,63.0,80.0,90.0,1.0,0.0
1239,66.0,0.0,90.0,1.0,0.0
1240,71.0,80.0,90.0,1.0,0.0
1241,75.0,80.0,90.0,1.0,0.0
1242,78.0,240.0,90.0,1.0,0.0
1243,83.0,0.0,240.0,1.0,0.0
