,note,step,duration,channel,velocity
0,67.0,15.0,210.0,2.0,0.0
1,62.0,0.0,210.0,3.0,0.0
2,70.0,0.0,240.0,1.0,0.0
3,74.0,0.0,480.0,5.0,0.0
4,70.0,0.0,480.0,5.0,0.0
5,67.0,225.0,480.0,5.0,0.0
6,55.0,0.0,720.0,5.0,0.0
7,55.0,15.0,690.0,4.0,0.0
8,70.0,105.0,240.0,0.0,0.0
9,69.0,45.0,180.0,1.0,0.0
10,69.0,0.0,180.0,0.0,0.0
11,66.0,75.0,90.0,2.0,0.0
12,60.0,0.0,90.0,3.0,0.0
13,67.0,0.0,90.0,2.0,0.0
14,58.0,15.0,90.0,3.0,0.0
15,57.0,0.0,450.0,3.0,0.0
16,69.0,0.0,450.0,2.0,0.0
17,74.0,0.0,240.0,5.0,0.0
18,67.0,105.0,240.0,5.0,0.0
19,69.0,0.0,240.0,5.0,0.0
20,62.0,0.0,450.0,1.0,0.0
21,62.0,0.0,450.0,0.0,0.0
22,54.0,0.0,120.0,5.0,0.0
23,74.0,0.0,120.0,5.0,0.0
24,66.0,0.0,120.0,5.0,0.0
25,69.0,105.0,120.0,5.0,0.0
26,54.0,15.0,90.0,4.0,0.0
27,74.0,0.0,120.0,5.0,0.0
28,69.0,225.0,120.0,5.0,0.0
29,55.0,0.0,120.0,5.0,0.0
30,55.0,15.0,90.0,4.0,0.0
31,67.0,0.0,120.0,5.0,0.0
32,72.0,105.0,240.0,0.0,0.0
33,57.0,0.0,210.0,3.0,0.0
34,72.0,0.0,240.0,1.0,0.0
35,66.0,15.0,210.0,2.0,0.0
36,57.0,15.0,690.0,4.0,0.0
37,57.0,0.0,720.0,5.0,0.0
38,72.0,0.0,480.0,5.0,0.0
39,69.0,225.0,480.0,5.0,0.0
40,78.0,0.0,480.0,5.0,0.0
41,70.0,0.0,180.0,1.0,0.0
42,58.0,75.0,90.0,3.0,0.0
43,67.0,0.0,90.0,2.0,0.0
44,70.0,45.0,180.0,0.0,0.0
45,69.0,0.0,90.0,2.0,0.0
46,60.0,15.0,90.0,3.0,0.0
47,62.0,0.0,450.0,1.0,0.0
48,62.0,0.0,450.0,0.0,0.0
49,70.0,0.0,450.0,2.0,0.0
50,62.0,15.0,450.0,3.0,0.0
51,74.0,0.0,240.0,5.0,0.0
52,70.0,0.0,240.0,5.0,0.0
53,78.0,0.0,240.0,5.0,0.0
54,69.0,105.0,240.0,5.0,0.0
55,55.0,15.0,90.0,4.0,0.0
56,55.0,0.0,120.0,5.0,0.0
57,67.0,0.0,120.0,5.0,0.0
58,78.0,0.0,120.0,5.0,0.0
59,74.0,105.0,120.0,5.0,0.0
60,70.0,0.0,120.0,5.0,0.0
61,78.0,0.0,120.0,5.0,0.0
62,57.0,0.0,90.0,4.0,0.0
63,74.0,0.0,120.0,5.0,0.0
64,70.0,0.0,120.0,5.0,0.0
65,69.0,0.0,120.0,5.0,0.0
66,57.0,105.0,120.0,5.0,0.0
67,58.0,105.0,240.0,5.0,0.0
68,58.0,15.0,210.0,4.0,0.0
69,74.0,75.0,90.0,1.0,0.0
70,70.0,0.0,90.0,2.0,0.0
71,74.0,0.0,240.0,5.0,0.0
72,67.0,45.0,180.0,3.0,0.0
73,79.0,0.0,240.0,5.0,0.0
74,74.0,0.0,90.0,0.0,0.0
75,70.0,0.0,240.0,5.0,0.0
76,72.0,0.0,90.0,1.0,0.0
77,69.0,0.0,90.0,2.0,0.0
78,72.0,0.0,90.0,0.0,0.0
79,55.0,0.0,240.0,5.0,0.0
80,67.0,105.0,240.0,5.0,0.0
81,74.0,0.0,90.0,1.0,0.0
82,70.0,0.0,240.0,5.0,0.0
83,55.0,0.0,210.0,4.0,0.0
84,74.0,0.0,240.0,5.0,0.0
85,74.0,75.0,90.0,0.0,0.0
86,70.0,0.0,90.0,2.0,0.0
87,62.0,45.0,180.0,3.0,0.0
88,72.0,0.0,90.0,2.0,0.0
89,75.0,0.0,90.0,1.0,0.0
90,75.0,15.0,90.0,0.0,0.0
91,70.0,0.0,90.0,2.0,0.0
92,55.0,0.0,450.0,3.0,0.0
93,67.0,0.0,480.0,5.0,0.0
94,74.0,120.0,90.0,1.0,0.0
95,50.0,0.0,450.0,4.0,0.0
96,70.0,0.0,480.0,5.0,0.0
97,62.0,0.0,480.0,5.0,0.0
98,50.0,105.0,480.0,5.0,0.0
99,74.0,0.0,90.0,0.0,0.0
100,72.0,0.0,90.0,0.0,0.0
101,69.0,0.0,90.0,2.0,0.0
102,72.0,120.0,90.0,1.0,0.0
103,67.0,0.0,90.0,2.0,0.0
104,70.0,120.0,90.0,1.0,0.0
105,70.0,0.0,90.0,0.0,0.0
106,70.0,15.0,90.0,2.0,0.0
107,74.0,0.0,90.0,1.0,0.0
108,74.0,0.0,90.0,0.0,0.0
109,57.0,15.0,210.0,4.0,0.0
110,72.0,0.0,90.0,1.0,0.0
111,72.0,0.0,90.0,0.0,0.0
112,57.0,0.0,240.0,5.0,0.0
113,69.0,0.0,240.0,5.0,0.0
114,66.0,45.0,180.0,3.0,0.0
115,78.0,105.0,240.0,5.0,0.0
116,74.0,0.0,240.0,5.0,0.0
117,72.0,0.0,240.0,5.0,0.0
118,69.0,75.0,90.0,2.0,0.0
119,70.0,0.0,90.0,0.0,0.0
120,67.0,0.0,90.0,2.0,0.0
121,70.0,0.0,90.0,1.0,0.0
122,54.0,0.0,240.0,5.0,0.0
123,72.0,0.0,240.0,5.0,0.0
124,72.0,75.0,90.0,1.0,0.0
125,69.0,0.0,90.0,2.0,0.0
126,54.0,0.0,210.0,4.0,0.0
127,72.0,0.0,90.0,0.0,0.0
128,74.0,0.0,240.0,5.0,0.0
129,66.0,105.0,240.0,5.0,0.0
130,78.0,0.0,240.0,5.0,0.0
131,62.0,45.0,180.0,3.0,0.0
132,74.0,0.0,90.0,0.0,0.0
133,74.0,0.0,90.0,1.0,0.0
134,70.0,15.0,90.0,2.0,0.0
135,69.0,120.0,90.0,2.0,0.0
136,54.0,15.0,450.0,3.0,0.0
137,50.0,0.0,450.0,4.0,0.0
138,72.0,0.0,480.0,5.0,0.0
139,62.0,0.0,480.0,5.0,0.0
140,50.0,225.0,480.0,5.0,0.0
141,69.0,0.0,480.0,5.0,0.0
142,66.0,0.0,480.0,5.0,0.0
143,72.0,0.0,90.0,1.0,0.0
144,72.0,0.0,90.0,0.0,0.0
145,70.0,0.0,90.0,1.0,0.0
146,70.0,0.0,90.0,0.0,0.0
147,67.0,120.0,90.0,2.0,0.0
148,69.0,0.0,90.0,1.0,0.0
149,69.0,120.0,90.0,0.0,0.0
150,66.0,0.0,90.0,2.0,0.0
151,69.0,0.0,90.0,2.0,0.0
152,72.0,0.0,90.0,0.0,0.0
153,72.0,0.0,90.0,1.0,0.0
154,55.0,105.0,720.0,5.0,0.0
155,74.0,0.0,480.0,5.0,0.0
156,70.0,0.0,240.0,0.0,0.0
157,67.0,0.0,480.0,5.0,0.0
158,67.0,15.0,210.0,2.0,0.0
159,70.0,105.0,240.0,1.0,0.0
160,62.0,0.0,210.0,3.0,0.0
161,55.0,15.0,690.0,4.0,0.0
162,70.0,225.0,480.0,5.0,0.0
163,69.0,0.0,180.0,0.0,0.0
164,69.0,45.0,180.0,1.0,0.0
165,60.0,75.0,90.0,3.0,0.0
166,66.0,0.0,90.0,2.0,0.0
167,67.0,0.0,90.0,2.0,0.0
168,58.0,15.0,90.0,3.0,0.0
169,67.0,0.0,240.0,5.0,0.0
170,74.0,0.0,240.0,5.0,0.0
171,69.0,0.0,240.0,5.0,0.0
172,62.0,15.0,450.0,1.0,0.0
173,62.0,0.0,450.0,0.0,0.0
174,57.0,0.0,450.0,3.0,0.0
175,69.0,0.0,450.0,2.0,0.0
176,72.0,105.0,120.0,5.0,0.0
177,54.0,15.0,90.0,4.0,0.0
178,69.0,0.0,120.0,5.0,0.0
179,54.0,0.0,120.0,5.0,0.0
180,66.0,0.0,120.0,5.0,0.0
181,74.0,0.0,120.0,5.0,0.0
182,69.0,225.0,120.0,5.0,0.0
183,67.0,0.0,120.0,5.0,0.0
184,55.0,0.0,120.0,5.0,0.0
185,55.0,0.0,90.0,4.0,0.0
186,57.0,15.0,690.0,4.0,0.0
187,72.0,105.0,240.0,0.0,0.0
188,66.0,15.0,210.0,2.0,0.0
189,57.0,0.0,720.0,5.0,0.0
190,57.0,0.0,210.0,3.0,0.0
191,72.0,0.0,240.0,1.0,0.0
192,78.0,0.0,480.0,5.0,0.0
193,72.0,0.0,480.0,5.0,0.0
194,69.0,225.0,480.0,5.0,0.0
195,70.0,0.0,180.0,1.0,0.0
196,58.0,75.0,90.0,3.0,0.0
197,67.0,0.0,90.0,2.0,0.0
198,70.0,45.0,180.0,0.0,0.0
199,60.0,0.0,90.0,3.0,0.0
200,69.0,15.0,90.0,2.0,0.0
201,70.0,0.0,240.0,5.0,0.0
202,62.0,0.0,450.0,3.0,0.0
203,70.0,15.0,450.0,2.0,0.0
204,62.0,0.0,450.0,1.0,0.0
205,62.0,0.0,450.0,0.0,0.0
206,78.0,0.0,240.0,5.0,0.0
207,69.0,0.0,240.0,5.0,0.0
208,74.0,105.0,240.0,5.0,0.0
209,74.0,0.0,120.0,5.0,0.0
210,70.0,0.0,120.0,5.0,0.0
211,67.0,0.0,120.0,5.0,0.0
212,55.0,105.0,120.0,5.0,0.0
213,55.0,15.0,90.0,4.0,0.0
214,69.0,0.0,120.0,5.0,0.0
215,70.0,0.0,120.0,5.0,0.0
216,57.0,105.0,120.0,5.0,0.0
217,74.0,0.0,120.0,5.0,0.0
218,57.0,0.0,90.0,4.0,0.0
219,74.0,75.0,90.0,0.0,0.0
220,67.0,45.0,180.0,2.0,0.0
221,70.0,105.0,240.0,5.0,0.0
222,74.0,0.0,240.0,5.0,0.0
223,79.0,0.0,240.0,5.0,0.0
224,58.0,0.0,240.0,5.0,0.0
225,74.0,0.0,90.0,1.0,0.0
226,58.0,0.0,210.0,4.0,0.0
227,62.0,15.0,210.0,3.0,0.0
228,72.0,0.0,90.0,0.0,0.0
229,72.0,0.0,90.0,1.0,0.0
230,74.0,75.0,90.0,1.0,0.0
231,54.0,0.0,210.0,4.0,0.0
232,69.0,45.0,180.0,2.0,0.0
233,60.0,0.0,210.0,3.0,0.0
234,74.0,0.0,240.0,5.0,0.0
235,66.0,0.0,240.0,5.0,0.0
236,74.0,0.0,90.0,0.0,0.0
237,54.0,0.0,240.0,5.0,0.0
238,69.0,105.0,240.0,5.0,0.0
239,75.0,15.0,90.0,1.0,0.0
240,75.0,0.0,90.0,0.0,0.0
241,74.0,0.0,240.0,5.0,0.0
242,74.0,0.0,210.0,0.0,0.0
243,55.0,0.0,210.0,4.0,0.0
244,58.0,75.0,90.0,3.0,0.0
245,67.0,105.0,240.0,5.0,0.0
246,70.0,45.0,180.0,2.0,0.0
247,55.0,0.0,240.0,5.0,0.0
248,70.0,0.0,240.0,5.0,0.0
249,74.0,15.0,210.0,1.0,0.0
250,57.0,0.0,90.0,3.0,0.0
251,51.0,0.0,240.0,5.0,0.0
252,63.0,0.0,240.0,5.0,0.0
253,67.0,15.0,210.0,0.0,0.0
254,58.0,45.0,180.0,2.0,0.0
255,67.0,0.0,240.0,5.0,0.0
256,51.0,0.0,210.0,4.0,0.0
257,58.0,75.0,90.0,3.0,0.0
258,67.0,0.0,210.0,1.0,0.0
259,70.0,180.0,240.0,5.0,0.0
260,55.0,0.0,90.0,3.0,0.0
261,60.0,0.0,240.0,5.0,0.0
262,60.0,0.0,210.0,3.0,0.0
263,48.0,0.0,210.0,4.0,0.0
264,69.0,0.0,210.0,0.0,0.0
265,69.0,180.0,240.0,5.0,0.0
266,69.0,15.0,210.0,1.0,0.0
267,48.0,0.0,240.0,5.0,0.0
268,63.0,45.0,180.0,2.0,0.0
269,63.0,0.0,240.0,5.0,0.0
270,50.0,0.0,210.0,4.0,0.0
271,57.0,0.0,210.0,3.0,0.0
272,66.0,0.0,210.0,1.0,0.0
273,62.0,45.0,180.0,2.0,0.0
274,66.0,15.0,210.0,0.0,0.0
275,69.0,465.0,240.0,5.0,0.0
276,62.0,0.0,240.0,5.0,0.0
277,50.0,0.0,240.0,5.0,0.0
278,66.0,0.0,240.0,5.0,0.0
279,58.0,15.0,450.0,3.0,0.0
280,43.0,0.0,450.0,4.0,0.0
281,67.0,0.0,450.0,0.0,0.0
282,67.0,0.0,450.0,1.0,0.0
283,62.0,0.0,450.0,2.0,0.0
284,55.0,0.0,480.0,5.0,0.0
285,58.0,0.0,480.0,5.0,0.0
286,43.0,225.0,480.0,5.0,0.0
287,62.0,0.0,480.0,5.0,0.0
288,70.0,0.0,240.0,1.0,0.0
289,55.0,15.0,690.0,4.0,0.0
290,70.0,105.0,240.0,0.0,0.0
291,55.0,0.0,720.0,5.0,0.0
292,67.0,15.0,210.0,2.0,0.0
293,62.0,0.0,210.0,3.0,0.0
294,74.0,0.0,480.0,5.0,0.0
295,67.0,225.0,480.0,5.0,0.0
296,70.0,0.0,480.0,5.0,0.0
297,66.0,0.0,90.0,2.0,0.0
298,60.0,75.0,90.0,3.0,0.0
299,69.0,45.0,180.0,1.0,0.0
300,69.0,0.0,180.0,0.0,0.0
301,58.0,0.0,90.0,3.0,0.0
302,67.0,15.0,90.0,2.0,0.0
303,57.0,0.0,450.0,3.0,0.0
304,69.0,0.0,450.0,2.0,0.0
305,67.0,0.0,240.0,5.0,0.0
306,62.0,0.0,450.0,0.0,0.0
307,62.0,15.0,450.0,1.0,0.0
308,74.0,105.0,240.0,5.0,0.0
309,69.0,0.0,240.0,5.0,0.0
310,66.0,0.0,120.0,5.0,0.0
311,69.0,105.0,120.0,5.0,0.0
312,54.0,0.0,120.0,5.0,0.0
313,54.0,15.0,90.0,4.0,0.0
314,74.0,0.0,120.0,5.0,0.0
315,55.0,0.0,90.0,4.0,0.0
316,69.0,0.0,120.0,5.0,0.0
317,55.0,0.0,120.0,5.0,0.0
318,74.0,225.0,120.0,5.0,0.0
319,67.0,0.0,120.0,5.0,0.0
320,72.0,0.0,240.0,1.0,0.0
321,72.0,105.0,240.0,0.0,0.0
322,72.0,225.0,480.0,5.0,0.0
323,57.0,0.0,720.0,5.0,0.0
324,78.0,0.0,480.0,5.0,0.0
325,69.0,0.0,480.0,5.0,0.0
326,57.0,15.0,690.0,4.0,0.0
327,66.0,0.0,210.0,2.0,0.0
328,57.0,15.0,210.0,3.0,0.0
329,58.0,0.0,90.0,3.0,0.0
330,67.0,75.0,90.0,2.0,0.0
331,70.0,0.0,180.0,1.0,0.0
332,70.0,45.0,180.0,0.0,0.0
333,69.0,15.0,90.0,2.0,0.0
334,60.0,0.0,90.0,3.0,0.0
335,70.0,0.0,450.0,2.0,0.0
336,69.0,105.0,240.0,5.0,0.0
337,70.0,0.0,240.0,5.0,0.0
338,78.0,0.0,240.0,5.0,0.0
339,62.0,0.0,450.0,3.0,0.0
340,74.0,0.0,240.0,5.0,0.0
341,62.0,0.0,450.0,0.0,0.0
342,62.0,15.0,450.0,1.0,0.0
343,67.0,0.0,120.0,5.0,0.0
344,55.0,0.0,120.0,5.0,0.0
345,78.0,105.0,120.0,5.0,0.0
346,74.0,0.0,120.0,5.0,0.0
347,70.0,0.0,120.0,5.0,0.0
348,55.0,15.0,90.0,4.0,0.0
349,78.0,0.0,120.0,5.0,0.0
350,57.0,0.0,90.0,4.0,0.0
351,69.0,105.0,120.0,5.0,0.0
352,57.0,0.0,120.0,5.0,0.0
353,74.0,0.0,120.0,5.0,0.0
354,70.0,0.0,120.0,5.0,0.0
355,58.0,0.0,240.0,5.0,0.0
356,70.0,75.0,90.0,2.0,0.0
357,74.0,0.0,90.0,0.0,0.0
358,58.0,0.0,210.0,4.0,0.0
359,67.0,45.0,180.0,3.0,0.0
360,74.0,105.0,240.0,5.0,0.0
361,70.0,0.0,240.0,5.0,0.0
362,74.0,0.0,90.0,1.0,0.0
363,79.0,0.0,240.0,5.0,0.0
364,69.0,0.0,90.0,2.0,0.0
365,72.0,15.0,90.0,0.0,0.0
366,72.0,0.0,90.0,1.0,0.0
367,55.0,0.0,240.0,5.0,0.0
368,62.0,45.0,180.0,3.0,0.0
369,70.0,0.0,240.0,5.0,0.0
370,67.0,105.0,240.0,5.0,0.0
371,74.0,0.0,240.0,5.0,0.0
372,70.0,0.0,90.0,2.0,0.0
373,74.0,75.0,90.0,0.0,0.0
374,55.0,15.0,210.0,4.0,0.0
375,74.0,0.0,90.0,1.0,0.0
376,72.0,0.0,90.0,2.0,0.0
377,75.0,0.0,90.0,1.0,0.0
378,75.0,0.0,90.0,0.0,0.0
379,74.0,0.0,90.0,0.0,0.0
380,50.0,15.0,450.0,4.0,0.0
381,70.0,105.0,480.0,5.0,0.0
382,67.0,0.0,480.0,5.0,0.0
383,74.0,120.0,90.0,1.0,0.0
384,62.0,0.0,480.0,5.0,0.0
385,55.0,0.0,450.0,3.0,0.0
386,50.0,0.0,480.0,5.0,0.0
387,70.0,0.0,90.0,2.0,0.0
388,69.0,0.0,90.0,2.0,0.0
389,72.0,120.0,90.0,1.0,0.0
390,72.0,0.0,90.0,0.0,0.0
391,70.0,0.0,90.0,1.0,0.0
392,70.0,120.0,90.0,0.0,0.0
393,67.0,0.0,90.0,2.0,0.0
394,74.0,0.0,90.0,0.0,0.0
395,74.0,0.0,90.0,1.0,0.0
396,70.0,0.0,90.0,2.0,0.0
397,74.0,0.0,240.0,5.0,0.0
398,72.0,75.0,90.0,0.0,0.0
399,69.0,0.0,90.0,2.0,0.0
400,72.0,0.0,90.0,1.0,0.0
401,78.0,105.0,240.0,5.0,0.0
402,69.0,0.0,240.0,5.0,0.0
403,66.0,45.0,180.0,3.0,0.0
404,72.0,0.0,240.0,5.0,0.0
405,57.0,15.0,210.0,4.0,0.0
406,57.0,0.0,240.0,5.0,0.0
407,70.0,0.0,90.0,1.0,0.0
408,67.0,0.0,90.0,2.0,0.0
409,70.0,0.0,90.0,0.0,0.0
410,78.0,0.0,240.0,5.0,0.0
411,66.0,0.0,240.0,5.0,0.0
412,72.0,105.0,240.0,5.0,0.0
413,69.0,0.0,90.0,2.0,0.0
414,54.0,0.0,240.0,5.0,0.0
415,74.0,0.0,240.0,5.0,0.0
416,72.0,0.0,90.0,1.0,0.0
417,54.0,0.0,210.0,4.0,0.0
418,72.0,75.0,90.0,0.0,0.0
419,62.0,45.0,180.0,3.0,0.0
420,74.0,0.0,90.0,0.0,0.0
421,74.0,15.0,90.0,1.0,0.0
422,70.0,0.0,90.0,2.0,0.0
423,72.0,0.0,90.0,0.0,0.0
424,50.0,0.0,450.0,4.0,0.0
425,69.0,0.0,480.0,5.0,0.0
426,72.0,0.0,480.0,5.0,0.0
427,72.0,120.0,90.0,1.0,0.0
428,69.0,0.0,90.0,2.0,0.0
429,66.0,225.0,480.0,5.0,0.0
430,54.0,15.0,450.0,3.0,0.0
431,62.0,0.0,480.0,5.0,0.0
432,50.0,0.0,480.0,5.0,0.0
433,70.0,0.0,90.0,0.0,0.0
434,67.0,120.0,90.0,2.0,0.0
435,70.0,0.0,90.0,1.0,0.0
436,66.0,0.0,90.0,2.0,0.0
437,69.0,0.0,90.0,0.0,0.0
438,69.0,120.0,90.0,1.0,0.0
439,69.0,0.0,90.0,2.0,0.0
440,72.0,0.0,90.0,0.0,0.0
441,72.0,0.0,90.0,1.0,0.0
442,62.0,15.0,210.0,3.0,0.0
443,67.0,0.0,210.0,2.0,0.0
444,67.0,0.0,480.0,5.0,0.0
445,70.0,0.0,480.0,5.0,0.0
446,55.0,0.0,720.0,5.0,0.0
447,74.0,225.0,480.0,5.0,0.0
448,55.0,15.0,690.0,4.0,0.0
449,70.0,0.0,240.0,1.0,0.0
450,70.0,105.0,240.0,0.0,0.0
451,69.0,0.0,180.0,0.0,0.0
452,60.0,0.0,90.0,3.0,0.0
453,69.0,45.0,180.0,1.0,0.0
454,66.0,75.0,90.0,2.0,0.0
455,58.0,0.0,90.0,3.0,0.0
456,67.0,15.0,90.0,2.0,0.0
457,57.0,0.0,450.0,3.0,0.0
458,62.0,0.0,450.0,0.0,0.0
459,67.0,0.0,240.0,5.0,0.0
460,69.0,0.0,240.0,5.0,0.0
461,62.0,15.0,450.0,1.0,0.0
462,74.0,105.0,240.0,5.0,0.0
463,69.0,0.0,450.0,2.0,0.0
464,72.0,0.0,120.0,5.0,0.0
465,54.0,15.0,90.0,4.0,0.0
466,66.0,105.0,120.0,5.0,0.0
467,69.0,0.0,120.0,5.0,0.0
468,54.0,0.0,120.0,5.0,0.0
469,55.0,0.0,90.0,4.0,0.0
470,55.0,0.0,120.0,5.0,0.0
471,67.0,225.0,120.0,5.0,0.0
472,69.0,0.0,120.0,5.0,0.0
473,74.0,0.0,120.0,5.0,0.0
474,72.0,105.0,240.0,1.0,0.0
475,57.0,105.0,720.0,5.0,0.0
476,78.0,225.0,480.0,5.0,0.0
477,69.0,0.0,480.0,5.0,0.0
478,72.0,0.0,480.0,5.0,0.0
479,57.0,15.0,690.0,4.0,0.0
480,66.0,0.0,210.0,2.0,0.0
481,72.0,0.0,240.0,0.0,0.0
482,57.0,15.0,210.0,3.0,0.0
483,67.0,0.0,90.0,2.0,0.0
484,70.0,0.0,180.0,0.0,0.0
485,70.0,45.0,180.0,1.0,0.0
486,58.0,75.0,90.0,3.0,0.0
487,69.0,15.0,90.0,2.0,0.0
488,60.0,0.0,90.0,3.0,0.0
489,62.0,0.0,450.0,1.0,0.0
490,70.0,0.0,450.0,2.0,0.0
491,62.0,0.0,450.0,0.0,0.0
492,74.0,0.0,240.0,5.0,0.0
493,69.0,0.0,240.0,5.0,0.0
494,70.0,0.0,240.0,5.0,0.0
495,78.0,0.0,240.0,5.0,0.0
496,62.0,0.0,450.0,3.0,0.0
497,74.0,0.0,120.0,5.0,0.0
498,55.0,105.0,120.0,5.0,0.0
499,67.0,0.0,120.0,5.0,0.0
500,70.0,0.0,120.0,5.0,0.0
501,55.0,15.0,90.0,4.0,0.0
502,57.0,15.0,90.0,4.0,0.0
503,74.0,105.0,120.0,5.0,0.0
504,57.0,0.0,120.0,5.0,0.0
505,69.0,0.0,120.0,5.0,0.0
506,70.0,0.0,120.0,5.0,0.0
507,79.0,0.0,240.0,5.0,0.0
508,74.0,0.0,240.0,5.0,0.0
509,74.0,0.0,90.0,1.0,0.0
510,74.0,75.0,90.0,0.0,0.0
511,58.0,0.0,210.0,4.0,0.0
512,67.0,45.0,180.0,2.0,0.0
513,70.0,0.0,240.0,5.0,0.0
514,58.0,105.0,240.0,5.0,0.0
515,62.0,0.0,210.0,3.0,0.0
516,72.0,0.0,90.0,1.0,0.0
517,72.0,15.0,90.0,0.0,0.0
518,54.0,0.0,240.0,5.0,0.0
519,69.0,0.0,240.0,5.0,0.0
520,74.0,0.0,240.0,5.0,0.0
521,74.0,75.0,90.0,0.0,0.0
522,54.0,0.0,210.0,4.0,0.0
523,74.0,0.0,90.0,1.0,0.0
524,60.0,15.0,210.0,3.0,0.0
525,66.0,105.0,240.0,5.0,0.0
526,69.0,45.0,180.0,2.0,0.0
527,75.0,0.0,90.0,1.0,0.0
528,75.0,0.0,90.0,0.0,0.0
529,74.0,0.0,210.0,0.0,0.0
530,55.0,15.0,210.0,4.0,0.0
531,58.0,75.0,90.0,3.0,0.0
532,70.0,45.0,180.0,2.0,0.0
533,70.0,0.0,240.0,5.0,0.0
534,67.0,0.0,240.0,5.0,0.0
535,55.0,0.0,240.0,5.0,0.0
536,74.0,0.0,210.0,1.0,0.0
537,74.0,105.0,240.0,5.0,0.0
538,57.0,0.0,90.0,3.0,0.0
539,63.0,0.0,240.0,5.0,0.0
540,70.0,180.0,240.0,5.0,0.0
541,51.0,0.0,240.0,5.0,0.0
542,51.0,0.0,210.0,4.0,0.0
543,67.0,0.0,210.0,1.0,0.0
544,67.0,0.0,240.0,5.0,0.0
545,58.0,45.0,180.0,2.0,0.0
546,58.0,75.0,90.0,3.0,0.0
547,67.0,15.0,210.0,0.0,0.0
548,55.0,0.0,90.0,3.0,0.0
549,69.0,0.0,210.0,1.0,0.0
550,69.0,15.0,210.0,0.0,0.0
551,48.0,0.0,210.0,4.0,0.0
552,48.0,0.0,240.0,5.0,0.0
553,63.0,45.0,180.0,2.0,0.0
554,60.0,0.0,210.0,3.0,0.0
555,63.0,0.0,240.0,5.0,0.0
556,60.0,0.0,240.0,5.0,0.0
557,69.0,180.0,240.0,5.0,0.0
558,57.0,0.0,210.0,3.0,0.0
559,50.0,0.0,240.0,5.0,0.0
560,66.0,15.0,210.0,1.0,0.0
561,62.0,0.0,240.0,5.0,0.0
562,69.0,0.0,240.0,5.0,0.0
563,66.0,465.0,240.0,5.0,0.0
564,62.0,45.0,180.0,2.0,0.0
565,50.0,0.0,210.0,4.0,0.0
566,66.0,0.0,210.0,0.0,0.0
567,55.0,0.0,480.0,5.0,0.0
568,67.0,0.0,450.0,1.0,0.0
569,43.0,0.0,450.0,4.0,0.0
570,43.0,0.0,480.0,5.0,0.0
571,62.0,0.0,450.0,2.0,0.0
572,62.0,0.0,480.0,5.0,0.0
573,67.0,0.0,450.0,0.0,0.0
574,58.0,105.0,480.0,5.0,0.0
575,58.0,15.0,450.0,3.0,0.0
576,71.0,15.0,90.0,2.0,0.0
577,67.0,0.0,210.0,3.0,0.0
578,74.0,0.0,90.0,1.0,0.0
579,74.0,105.0,120.0,0.0,0.0
580,75.0,0.0,90.0,1.0,0.0
581,75.0,105.0,120.0,0.0,0.0
582,72.0,15.0,90.0,2.0,0.0
583,74.0,105.0,120.0,0.0,0.0
584,67.0,0.0,210.0,3.0,0.0
585,74.0,15.0,90.0,1.0,0.0
586,71.0,0.0,90.0,2.0,0.0
587,72.0,0.0,90.0,1.0,0.0
588,69.0,0.0,90.0,2.0,0.0
589,72.0,195.0,90.0,0.0,0.0
590,74.0,0.0,210.0,1.0,0.0
591,71.0,0.0,180.0,2.0,0.0
592,67.0,195.0,210.0,3.0,0.0
593,74.0,45.0,180.0,0.0,0.0
594,72.0,45.0,180.0,2.0,0.0
595,75.0,195.0,210.0,1.0,0.0
596,75.0,0.0,180.0,0.0,0.0
597,67.0,0.0,210.0,3.0,0.0
598,77.0,45.0,180.0,0.0,0.0
599,67.0,195.0,210.0,3.0,0.0
600,74.0,0.0,180.0,2.0,0.0
601,77.0,0.0,210.0,1.0,0.0
602,72.0,45.0,180.0,2.0,0.0
603,75.0,0.0,210.0,1.0,0.0
604,67.0,120.0,210.0,3.0,0.0
605,75.0,0.0,180.0,0.0,0.0
606,74.0,0.0,210.0,1.0,0.0
607,74.0,0.0,210.0,0.0,0.0
608,71.0,45.0,180.0,2.0,0.0
609,67.0,75.0,90.0,3.0,0.0
610,65.0,120.0,90.0,3.0,0.0
611,79.0,0.0,210.0,1.0,0.0
612,63.0,75.0,90.0,3.0,0.0
613,79.0,0.0,210.0,0.0,0.0
614,72.0,45.0,180.0,2.0,0.0
615,65.0,120.0,90.0,3.0,0.0
616,67.0,15.0,210.0,3.0,0.0
617,71.0,0.0,90.0,2.0,0.0
618,74.0,105.0,120.0,0.0,0.0
619,74.0,15.0,90.0,1.0,0.0
620,75.0,0.0,90.0,1.0,0.0
621,75.0,105.0,120.0,0.0,0.0
622,72.0,0.0,90.0,2.0,0.0
623,74.0,0.0,90.0,1.0,0.0
624,74.0,105.0,120.0,0.0,0.0
625,67.0,0.0,210.0,3.0,0.0
626,71.0,15.0,90.0,2.0,0.0
627,72.0,0.0,90.0,0.0,0.0
628,72.0,0.0,90.0,1.0,0.0
629,69.0,195.0,90.0,2.0,0.0
630,67.0,195.0,210.0,3.0,0.0
631,74.0,0.0,210.0,1.0,0.0
632,74.0,0.0,180.0,0.0,0.0
633,71.0,45.0,180.0,2.0,0.0
634,67.0,0.0,210.0,3.0,0.0
635,75.0,45.0,180.0,0.0,0.0
636,72.0,0.0,180.0,2.0,0.0
637,75.0,195.0,210.0,1.0,0.0
638,77.0,0.0,180.0,0.0,0.0
639,77.0,195.0,210.0,1.0,0.0
640,67.0,0.0,210.0,3.0,0.0
641,74.0,45.0,180.0,2.0,0.0
642,75.0,0.0,180.0,0.0,0.0
643,75.0,120.0,210.0,1.0,0.0
644,67.0,0.0,210.0,3.0,0.0
645,72.0,45.0,180.0,2.0,0.0
646,74.0,0.0,450.0,0.0,0.0
647,74.0,240.0,450.0,1.0,0.0
648,71.0,0.0,450.0,2.0,0.0
649,67.0,120.0,90.0,3.0,0.0
650,65.0,120.0,90.0,3.0,0.0
651,63.0,120.0,90.0,3.0,0.0
652,62.0,0.0,90.0,3.0,0.0
653,60.0,0.0,210.0,3.0,0.0
654,75.0,15.0,210.0,2.0,0.0
655,79.0,105.0,240.0,0.0,0.0
656,48.0,15.0,690.0,4.0,0.0
657,79.0,0.0,240.0,1.0,0.0
658,60.0,225.0,480.0,5.0,0.0
659,48.0,0.0,720.0,5.0,0.0
660,67.0,0.0,480.0,5.0,0.0
661,63.0,0.0,480.0,5.0,0.0
662,59.0,75.0,90.0,3.0,0.0
663,74.0,0.0,90.0,2.0,0.0
664,77.0,45.0,180.0,0.0,0.0
665,77.0,0.0,180.0,1.0,0.0
666,75.0,15.0,90.0,2.0,0.0
667,60.0,0.0,90.0,3.0,0.0
668,68.0,105.0,240.0,5.0,0.0
669,65.0,0.0,240.0,5.0,0.0
670,77.0,15.0,450.0,2.0,0.0
671,62.0,0.0,240.0,5.0,0.0
672,60.0,0.0,240.0,5.0,0.0
673,68.0,0.0,450.0,0.0,0.0
674,62.0,0.0,450.0,3.0,0.0
675,68.0,0.0,450.0,1.0,0.0
676,65.0,105.0,120.0,5.0,0.0
677,62.0,0.0,120.0,5.0,0.0
678,59.0,0.0,120.0,5.0,0.0
679,47.0,0.0,120.0,5.0,0.0
680,47.0,15.0,90.0,4.0,0.0
681,48.0,0.0,90.0,4.0,0.0
682,48.0,225.0,120.0,5.0,0.0
683,60.0,0.0,120.0,5.0,0.0
684,62.0,0.0,120.0,5.0,0.0
685,65.0,0.0,120.0,5.0,0.0
686,68.0,0.0,120.0,5.0,0.0
687,65.0,0.0,480.0,5.0,0.0
688,77.0,105.0,240.0,0.0,0.0
689,50.0,15.0,690.0,4.0,0.0
690,59.0,15.0,210.0,3.0,0.0
691,71.0,0.0,480.0,5.0,0.0
692,77.0,0.0,240.0,1.0,0.0
693,50.0,0.0,720.0,5.0,0.0
694,62.0,225.0,480.0,5.0,0.0
695,68.0,0.0,480.0,5.0,0.0
696,68.0,0.0,210.0,2.0,0.0
697,60.0,0.0,90.0,3.0,0.0
698,75.0,0.0,180.0,0.0,0.0
699,75.0,45.0,180.0,1.0,0.0
700,67.0,75.0,90.0,2.0,0.0
701,62.0,0.0,90.0,3.0,0.0
702,65.0,15.0,90.0,2.0,0.0
703,63.0,15.0,450.0,2.0,0.0
704,71.0,0.0,240.0,5.0,0.0
705,67.0,0.0,240.0,5.0,0.0
706,63.0,105.0,240.0,5.0,0.0
707,62.0,0.0,240.0,5.0,0.0
708,67.0,0.0,450.0,0.0,0.0
709,63.0,0.0,450.0,3.0,0.0
710,67.0,0.0,450.0,1.0,0.0
711,67.0,0.0,120.0,5.0,0.0
712,63.0,105.0,120.0,5.0,0.0
713,60.0,0.0,120.0,5.0,0.0
714,48.0,0.0,120.0,5.0,0.0
715,48.0,15.0,90.0,4.0,0.0
716,47.0,0.0,90.0,4.0,0.0
717,62.0,105.0,120.0,5.0,0.0
718,65.0,0.0,120.0,5.0,0.0
719,47.0,0.0,120.0,5.0,0.0
720,59.0,0.0,120.0,5.0,0.0
721,67.0,120.0,90.0,2.0,0.0
722,60.0,0.0,210.0,3.0,0.0
723,60.0,0.0,240.0,5.0,0.0
724,63.0,0.0,240.0,5.0,0.0
725,75.0,0.0,90.0,0.0,0.0
726,48.0,105.0,240.0,5.0,0.0
727,67.0,0.0,240.0,5.0,0.0
728,48.0,0.0,210.0,4.0,0.0
729,75.0,0.0,90.0,1.0,0.0
730,74.0,0.0,90.0,1.0,0.0
731,65.0,15.0,90.0,2.0,0.0
732,74.0,0.0,90.0,0.0,0.0
733,63.0,0.0,120.0,5.0,0.0
734,59.0,0.0,120.0,5.0,0.0
735,55.0,105.0,120.0,5.0,0.0
736,43.0,0.0,240.0,5.0,0.0
737,67.0,15.0,90.0,2.0,0.0
738,59.0,0.0,210.0,3.0,0.0
739,43.0,0.0,210.0,4.0,0.0
740,75.0,0.0,90.0,0.0,0.0
741,75.0,0.0,90.0,1.0,0.0
742,55.0,0.0,120.0,5.0,0.0
743,59.0,0.0,120.0,5.0,0.0
744,62.0,0.0,120.0,5.0,0.0
745,65.0,105.0,120.0,5.0,0.0
746,77.0,0.0,90.0,1.0,0.0
747,68.0,15.0,90.0,2.0,0.0
748,77.0,0.0,90.0,0.0,0.0
749,44.0,105.0,240.0,5.0,0.0
750,56.0,0.0,240.0,5.0,0.0
751,75.0,0.0,90.0,0.0,0.0
752,63.0,0.0,240.0,5.0,0.0
753,60.0,0.0,240.0,5.0,0.0
754,75.0,120.0,90.0,1.0,0.0
755,67.0,0.0,90.0,2.0,0.0
756,44.0,0.0,210.0,4.0,0.0
757,60.0,0.0,210.0,3.0,0.0
758,74.0,15.0,90.0,1.0,0.0
759,65.0,0.0,90.0,2.0,0.0
760,74.0,0.0,90.0,0.0,0.0
761,63.0,120.0,90.0,2.0,0.0
762,72.0,0.0,90.0,1.0,0.0
763,56.0,0.0,210.0,4.0,0.0
764,75.0,105.0,240.0,5.0,0.0
765,56.0,0.0,240.0,5.0,0.0
766,68.0,0.0,240.0,5.0,0.0
767,72.0,0.0,240.0,5.0,0.0
768,72.0,0.0,90.0,0.0,0.0
769,63.0,0.0,210.0,3.0,0.0
770,75.0,0.0,90.0,1.0,0.0
771,75.0,0.0,90.0,0.0,0.0
772,67.0,15.0,90.0,2.0,0.0
773,74.0,120.0,90.0,1.0,0.0
774,53.0,0.0,210.0,4.0,0.0
775,53.0,0.0,240.0,5.0,0.0
776,65.0,0.0,240.0,5.0,0.0
777,68.0,0.0,210.0,3.0,0.0
778,74.0,0.0,90.0,0.0,0.0
779,74.0,0.0,240.0,5.0,0.0
780,65.0,0.0,90.0,2.0,0.0
781,68.0,105.0,240.0,5.0,0.0
782,72.0,0.0,90.0,1.0,0.0
783,72.0,15.0,90.0,0.0,0.0
784,63.0,0.0,90.0,2.0,0.0
785,71.0,120.0,90.0,1.0,0.0
786,74.0,105.0,240.0,5.0,0.0
787,62.0,0.0,90.0,2.0,0.0
788,67.0,0.0,240.0,5.0,0.0
789,55.0,0.0,210.0,4.0,0.0
790,71.0,0.0,240.0,5.0,0.0
791,71.0,0.0,90.0,0.0,0.0
792,55.0,0.0,240.0,5.0,0.0
793,67.0,0.0,210.0,3.0,0.0
794,65.0,0.0,90.0,2.0,0.0
795,74.0,15.0,90.0,1.0,0.0
796,74.0,0.0,90.0,0.0,0.0
797,67.0,105.0,240.0,5.0,0.0
798,67.0,120.0,90.0,3.0,0.0
799,63.0,0.0,450.0,2.0,0.0
800,48.0,0.0,240.0,5.0,0.0
801,72.0,15.0,450.0,1.0,0.0
802,72.0,0.0,450.0,0.0,0.0
803,63.0,0.0,240.0,5.0,0.0
804,48.0,15.0,210.0,4.0,0.0
805,60.0,0.0,240.0,5.0,0.0
806,65.0,0.0,90.0,3.0,0.0
807,36.0,0.0,240.0,5.0,0.0
808,48.0,0.0,240.0,5.0,0.0
809,51.0,0.0,240.0,5.0,0.0
810,55.0,105.0,240.0,5.0,0.0
811,36.0,0.0,210.0,4.0,0.0
812,63.0,120.0,90.0,3.0,0.0
813,62.0,0.0,90.0,3.0,0.0
814,48.0,15.0,210.0,4.0,0.0
815,60.0,120.0,90.0,3.0,0.0
816,48.0,105.0,240.0,5.0,0.0
817,67.0,0.0,240.0,5.0,0.0
818,63.0,0.0,240.0,5.0,0.0
819,75.0,0.0,930.0,1.0,0.0
820,75.0,0.0,930.0,0.0,0.0
821,67.0,0.0,240.0,2.0,0.0
822,60.0,0.0,240.0,5.0,0.0
823,58.0,0.0,90.0,3.0,0.0
824,45.0,0.0,240.0,5.0,0.0
825,57.0,0.0,240.0,5.0,0.0
826,60.0,0.0,240.0,5.0,0.0
827,65.0,0.0,240.0,5.0,0.0
828,63.0,105.0,240.0,5.0,0.0
829,60.0,75.0,90.0,3.0,0.0
830,45.0,0.0,210.0,4.0,0.0
831,65.0,45.0,180.0,2.0,0.0
832,62.0,15.0,90.0,3.0,0.0
833,57.0,0.0,480.0,5.0,0.0
834,60.0,0.0,480.0,5.0,0.0
835,63.0,105.0,480.0,5.0,0.0
836,53.0,0.0,480.0,5.0,0.0
837,41.0,0.0,450.0,4.0,0.0
838,57.0,15.0,450.0,2.0,0.0
839,60.0,120.0,90.0,3.0,0.0
840,41.0,0.0,480.0,5.0,0.0
841,58.0,120.0,90.0,3.0,0.0
842,57.0,120.0,90.0,3.0,0.0
843,60.0,0.0,90.0,3.0,0.0
844,65.0,0.0,240.0,2.0,0.0
845,58.0,105.0,240.0,5.0,0.0
846,46.0,15.0,210.0,4.0,0.0
847,74.0,15.0,930.0,1.0,0.0
848,58.0,120.0,90.0,3.0,0.0
849,74.0,0.0,930.0,0.0,0.0
850,46.0,0.0,240.0,5.0,0.0
851,65.0,0.0,240.0,5.0,0.0
852,62.0,0.0,240.0,5.0,0.0
853,57.0,0.0,90.0,3.0,0.0
854,55.0,0.0,240.0,5.0,0.0
855,58.0,75.0,90.0,3.0,0.0
856,58.0,0.0,240.0,5.0,0.0
857,43.0,0.0,240.0,5.0,0.0
858,43.0,15.0,210.0,4.0,0.0
859,63.0,105.0,240.0,5.0,0.0
860,62.0,0.0,240.0,5.0,0.0
861,63.0,45.0,180.0,2.0,0.0
862,60.0,0.0,90.0,3.0,0.0
863,55.0,0.0,450.0,2.0,0.0
864,58.0,120.0,90.0,3.0,0.0
865,39.0,0.0,480.0,5.0,0.0
866,51.0,0.0,480.0,5.0,0.0
867,55.0,0.0,480.0,5.0,0.0
868,58.0,105.0,480.0,5.0,0.0
869,39.0,0.0,450.0,4.0,0.0
870,62.0,0.0,480.0,5.0,0.0
871,57.0,120.0,90.0,3.0,0.0
872,55.0,120.0,90.0,3.0,0.0
873,54.0,0.0,90.0,3.0,0.0
874,72.0,0.0,240.0,5.0,0.0
875,67.0,0.0,240.0,5.0,0.0
876,63.0,105.0,240.0,5.0,0.0
877,51.0,0.0,240.0,5.0,0.0
878,60.0,120.0,90.0,2.0,0.0
879,72.0,0.0,570.0,0.0,0.0
880,72.0,120.0,570.0,1.0,0.0
881,51.0,0.0,210.0,4.0,0.0
882,55.0,0.0,210.0,3.0,0.0
883,62.0,15.0,90.0,2.0,0.0
884,60.0,0.0,210.0,3.0,0.0
885,48.0,0.0,210.0,4.0,0.0
886,63.0,120.0,90.0,2.0,0.0
887,48.0,0.0,240.0,5.0,0.0
888,60.0,0.0,240.0,5.0,0.0
889,63.0,0.0,240.0,5.0,0.0
890,67.0,105.0,240.0,5.0,0.0
891,60.0,15.0,90.0,2.0,0.0
892,45.0,0.0,240.0,5.0,0.0
893,45.0,0.0,210.0,4.0,0.0
894,63.0,0.0,210.0,3.0,0.0
895,66.0,0.0,240.0,5.0,0.0
896,60.0,105.0,240.0,5.0,0.0
897,57.0,0.0,240.0,5.0,0.0
898,66.0,15.0,210.0,2.0,0.0
899,70.0,0.0,90.0,0.0,0.0
900,70.0,0.0,90.0,1.0,0.0
901,66.0,105.0,240.0,5.0,0.0
902,54.0,0.0,240.0,5.0,0.0
903,72.0,0.0,240.0,5.0,0.0
904,62.0,15.0,210.0,3.0,0.0
905,72.0,0.0,90.0,1.0,0.0
906,74.0,0.0,240.0,5.0,0.0
907,54.0,0.0,210.0,4.0,0.0
908,69.0,0.0,210.0,2.0,0.0
909,69.0,0.0,240.0,5.0,0.0
910,72.0,120.0,90.0,0.0,0.0
911,74.0,0.0,90.0,1.0,0.0
912,74.0,0.0,90.0,0.0,0.0
913,55.0,15.0,210.0,4.0,0.0
914,62.0,0.0,210.0,2.0,0.0
915,67.0,0.0,210.0,3.0,0.0
916,55.0,0.0,240.0,5.0,0.0
917,67.0,0.0,240.0,5.0,0.0
918,74.0,0.0,240.0,5.0,0.0
919,72.0,0.0,90.0,0.0,0.0
920,70.0,105.0,240.0,5.0,0.0
921,72.0,120.0,90.0,1.0,0.0
922,70.0,0.0,90.0,1.0,0.0
923,70.0,0.0,90.0,0.0,0.0
924,58.0,0.0,210.0,3.0,0.0
925,69.0,0.0,90.0,1.0,0.0
926,64.0,0.0,210.0,2.0,0.0
927,62.0,0.0,240.0,5.0,0.0
928,43.0,0.0,210.0,4.0,0.0
929,58.0,0.0,240.0,5.0,0.0
930,69.0,120.0,90.0,0.0,0.0
931,55.0,105.0,240.0,5.0,0.0
932,43.0,0.0,240.0,5.0,0.0
933,67.0,15.0,90.0,1.0,0.0
934,67.0,0.0,90.0,0.0,0.0
935,66.0,15.0,90.0,2.0,0.0
936,50.0,0.0,90.0,4.0,0.0
937,50.0,0.0,120.0,5.0,0.0
938,62.0,0.0,120.0,5.0,0.0
939,66.0,0.0,120.0,5.0,0.0
940,69.0,105.0,120.0,5.0,0.0
941,69.0,0.0,210.0,0.0,0.0
942,69.0,0.0,210.0,1.0,0.0
943,57.0,0.0,210.0,3.0,0.0
944,67.0,15.0,90.0,2.0,0.0
945,70.0,105.0,120.0,5.0,0.0
946,52.0,0.0,120.0,5.0,0.0
947,52.0,0.0,90.0,4.0,0.0
948,64.0,0.0,120.0,5.0,0.0
949,67.0,0.0,120.0,5.0,0.0
950,69.0,0.0,90.0,2.0,0.0
951,54.0,0.0,120.0,5.0,0.0
952,66.0,0.0,120.0,5.0,0.0
953,69.0,105.0,120.0,5.0,0.0
954,62.0,0.0,210.0,0.0,0.0
955,74.0,0.0,120.0,5.0,0.0
956,62.0,0.0,210.0,3.0,0.0
957,62.0,15.0,210.0,1.0,0.0
958,54.0,15.0,90.0,4.0,0.0
959,62.0,0.0,120.0,5.0,0.0
960,66.0,225.0,120.0,5.0,0.0
961,66.0,0.0,90.0,2.0,0.0
962,50.0,0.0,120.0,5.0,0.0
963,50.0,0.0,90.0,4.0,0.0
964,69.0,0.0,120.0,5.0,0.0
965,62.0,0.0,210.0,3.0,0.0
966,55.0,15.0,690.0,4.0,0.0
967,70.0,105.0,240.0,1.0,0.0
968,74.0,0.0,480.0,5.0,0.0
969,67.0,0.0,480.0,5.0,0.0
970,55.0,0.0,720.0,5.0,0.0
971,70.0,0.0,240.0,0.0,0.0
972,67.0,15.0,210.0,2.0,0.0
973,70.0,225.0,480.0,5.0,0.0
974,60.0,0.0,90.0,3.0,0.0
975,69.0,45.0,180.0,0.0,0.0
976,69.0,0.0,180.0,1.0,0.0
977,66.0,75.0,90.0,2.0,0.0
978,58.0,15.0,90.0,3.0,0.0
979,67.0,0.0,90.0,2.0,0.0
980,62.0,15.0,450.0,0.0,0.0
981,57.0,0.0,450.0,3.0,0.0
982,67.0,0.0,240.0,5.0,0.0
983,69.0,105.0,240.0,5.0,0.0
984,62.0,0.0,450.0,1.0,0.0
985,74.0,0.0,240.0,5.0,0.0
986,69.0,0.0,450.0,2.0,0.0
987,54.0,15.0,90.0,4.0,0.0
988,54.0,105.0,120.0,5.0,0.0
989,66.0,0.0,120.0,5.0,0.0
990,72.0,0.0,120.0,5.0,0.0
991,69.0,0.0,120.0,5.0,0.0
992,74.0,0.0,120.0,5.0,0.0
993,69.0,225.0,120.0,5.0,0.0
994,67.0,0.0,120.0,5.0,0.0
995,55.0,0.0,120.0,5.0,0.0
996,55.0,0.0,90.0,4.0,0.0
997,69.0,225.0,480.0,5.0,0.0
998,57.0,0.0,720.0,5.0,0.0
999,72.0,0.0,480.0,5.0,0.0
1000,72.0,105.0,240.0,0.0,0.0
1001,66.0,0.0,210.0,2.0,0.0
1002,57.0,15.0,690.0,4.0,0.0
1003,78.0,0.0,480.0,5.0,0.0
1004,72.0,0.0,240.0,1.0,0.0
1005,57.0,15.0,210.0,3.0,0.0
1006,58.0,75.0,90.0,3.0,0.0
1007,67.0,0.0,90.0,2.0,0.0
1008,70.0,0.0,180.0,1.0,0.0
1009,70.0,45.0,180.0,0.0,0.0
1010,60.0,0.0,90.0,3.0,0.0
1011,69.0,15.0,90.0,2.0,0.0
1012,62.0,0.0,450.0,1.0,0.0
1013,74.0,0.0,240.0,5.0,0.0
1014,69.0,0.0,240.0,5.0,0.0
1015,70.0,0.0,240.0,5.0,0.0
1016,70.0,15.0,450.0,2.0,0.0
1017,78.0,105.0,240.0,5.0,0.0
1018,62.0,0.0,450.0,3.0,0.0
1019,62.0,0.0,450.0,0.0,0.0
1020,55.0,15.0,90.0,4.0,0.0
1021,74.0,0.0,120.0,5.0,0.0
1022,67.0,0.0,120.0,5.0,0.0
1023,70.0,105.0,120.0,5.0,0.0
1024,55.0,0.0,120.0,5.0,0.0
1025,57.0,0.0,90.0,4.0,0.0
1026,78.0,0.0,120.0,5.0,0.0
1027,57.0,0.0,120.0,5.0,0.0
1028,69.0,0.0,120.0,5.0,0.0
1029,70.0,0.0,120.0,5.0,0.0
1030,74.0,105.0,120.0,5.0,0.0
1031,70.0,0.0,90.0,2.0,0.0
1032,79.0,0.0,240.0,5.0,0.0
1033,74.0,0.0,240.0,5.0,0.0
1034,70.0,0.0,240.0,5.0,0.0
1035,58.0,105.0,240.0,5.0,0.0
1036,74.0,0.0,90.0,1.0,0.0
1037,58.0,0.0,210.0,4.0,0.0
1038,67.0,45.0,180.0,3.0,0.0
1039,74.0,75.0,90.0,0.0,0.0
1040,72.0,0.0,90.0,0.0,0.0
1041,72.0,0.0,90.0,1.0,0.0
1042,69.0,15.0,90.0,2.0,0.0
1043,55.0,0.0,210.0,4.0,0.0
1044,74.0,105.0,240.0,5.0,0.0
1045,67.0,0.0,240.0,5.0,0.0
1046,70.0,0.0,240.0,5.0,0.0
1047,74.0,75.0,90.0,1.0,0.0
1048,62.0,45.0,180.0,3.0,0.0
1049,74.0,0.0,90.0,0.0,0.0
1050,70.0,0.0,90.0,2.0,0.0
1051,55.0,0.0,240.0,5.0,0.0
1052,75.0,0.0,90.0,0.0,0.0
1053,72.0,15.0,90.0,2.0,0.0
1054,75.0,0.0,90.0,1.0,0.0
1055,74.0,0.0,90.0,0.0,0.0
1056,70.0,0.0,480.0,5.0,0.0
1057,70.0,120.0,90.0,2.0,0.0
1058,55.0,0.0,450.0,3.0,0.0
1059,67.0,0.0,480.0,5.0,0.0
1060,62.0,0.0,480.0,5.0,0.0
1061,50.0,105.0,480.0,5.0,0.0
1062,74.0,0.0,90.0,1.0,0.0
1063,50.0,0.0,450.0,4.0,0.0
1064,69.0,120.0,90.0,2.0,0.0
1065,72.0,0.0,90.0,0.0,0.0
1066,72.0,0.0,90.0,1.0,0.0
1067,67.0,0.0,90.0,2.0,0.0
1068,70.0,0.0,90.0,1.0,0.0
1069,70.0,120.0,90.0,0.0,0.0
1070,74.0,0.0,90.0,0.0,0.0
1071,70.0,15.0,90.0,2.0,0.0
1072,74.0,0.0,90.0,1.0,0.0
1073,72.0,75.0,90.0,1.0,0.0
1074,72.0,0.0,90.0,0.0,0.0
1075,57.0,0.0,210.0,4.0,0.0
1076,74.0,0.0,240.0,5.0,0.0
1077,57.0,0.0,240.0,5.0,0.0
1078,69.0,105.0,240.0,5.0,0.0
1079,72.0,0.0,240.0,5.0,0.0
1080,78.0,0.0,240.0,5.0,0.0
1081,69.0,0.0,90.0,2.0,0.0
1082,66.0,45.0,180.0,3.0,0.0
1083,70.0,0.0,90.0,0.0,0.0
1084,70.0,0.0,90.0,1.0,0.0
1085,67.0,15.0,90.0,2.0,0.0
1086,72.0,105.0,240.0,5.0,0.0
1087,74.0,0.0,240.0,5.0,0.0
1088,78.0,0.0,240.0,5.0,0.0
1089,72.0,75.0,90.0,1.0,0.0
1090,54.0,0.0,240.0,5.0,0.0
1091,69.0,0.0,90.0,2.0,0.0
1092,54.0,0.0,210.0,4.0,0.0
1093,62.0,45.0,180.0,3.0,0.0
1094,72.0,0.0,90.0,0.0,0.0
1095,66.0,0.0,240.0,5.0,0.0
1096,70.0,0.0,90.0,2.0,0.0
1097,74.0,15.0,90.0,0.0,0.0
1098,74.0,0.0,90.0,1.0,0.0
1099,72.0,0.0,90.0,1.0,0.0
1100,50.0,0.0,480.0,5.0,0.0
1101,62.0,0.0,480.0,5.0,0.0
1102,66.0,0.0,480.0,5.0,0.0
1103,72.0,0.0,480.0,5.0,0.0
1104,72.0,120.0,90.0,0.0,0.0
1105,69.0,0.0,90.0,2.0,0.0
1106,54.0,0.0,450.0,3.0,0.0
1107,50.0,0.0,450.0,4.0,0.0
1108,69.0,225.0,480.0,5.0,0.0
1109,70.0,0.0,90.0,1.0,0.0
1110,70.0,0.0,90.0,0.0,0.0
1111,67.0,120.0,90.0,2.0,0.0
1112,66.0,0.0,90.0,2.0,0.0
1113,69.0,120.0,90.0,0.0,0.0
1114,69.0,0.0,90.0,1.0,0.0
1115,72.0,0.0,90.0,0.0,0.0
1116,72.0,15.0,90.0,1.0,0.0
1117,69.0,0.0,90.0,2.0,0.0
1118,70.0,225.0,480.0,5.0,0.0
1119,67.0,15.0,210.0,2.0,0.0
1120,62.0,0.0,210.0,3.0,0.0
1121,55.0,15.0,690.0,4.0,0.0
1122,70.0,0.0,240.0,0.0,0.0
1123,55.0,0.0,720.0,5.0,0.0
1124,67.0,0.0,480.0,5.0,0.0
1125,74.0,0.0,480.0,5.0,0.0
1126,70.0,105.0,240.0,1.0,0.0
1127,66.0,0.0,90.0,2.0,0.0
1128,60.0,75.0,90.0,3.0,0.0
1129,69.0,0.0,180.0,1.0,0.0
1130,69.0,45.0,180.0,0.0,0.0
1131,58.0,0.0,90.0,3.0,0.0
1132,67.0,15.0,90.0,2.0,0.0
1133,69.0,0.0,450.0,2.0,0.0
1134,67.0,0.0,240.0,5.0,0.0
1135,62.0,0.0,450.0,0.0,0.0
1136,62.0,0.0,450.0,1.0,0.0
1137,69.0,0.0,240.0,5.0,0.0
1138,74.0,105.0,240.0,5.0,0.0
1139,57.0,15.0,450.0,3.0,0.0
1140,72.0,0.0,120.0,5.0,0.0
1141,54.0,15.0,90.0,4.0,0.0
1142,54.0,105.0,120.0,5.0,0.0
1143,66.0,0.0,120.0,5.0,0.0
1144,69.0,0.0,120.0,5.0,0.0
1145,67.0,0.0,120.0,5.0,0.0
1146,55.0,0.0,90.0,4.0,0.0
1147,74.0,0.0,120.0,5.0,0.0
1148,69.0,0.0,120.0,5.0,0.0
1149,55.0,225.0,120.0,5.0,0.0
1150,66.0,15.0,210.0,2.0,0.0
1151,78.0,0.0,480.0,5.0,0.0
1152,72.0,0.0,480.0,5.0,0.0
1153,57.0,0.0,210.0,3.0,0.0
1154,57.0,15.0,690.0,4.0,0.0
1155,69.0,225.0,480.0,5.0,0.0
1156,72.0,0.0,240.0,1.0,0.0
1157,72.0,105.0,240.0,0.0,0.0
1158,57.0,0.0,720.0,5.0,0.0
1159,67.0,0.0,90.0,2.0,0.0
1160,70.0,0.0,180.0,1.0,0.0
1161,58.0,75.0,90.0,3.0,0.0
1162,70.0,45.0,180.0,0.0,0.0
1163,60.0,15.0,90.0,3.0,0.0
1164,69.0,0.0,90.0,2.0,0.0
1165,62.0,15.0,450.0,3.0,0.0
1166,62.0,0.0,450.0,1.0,0.0
1167,62.0,0.0,450.0,0.0,0.0
1168,70.0,0.0,450.0,2.0,0.0
1169,74.0,105.0,240.0,5.0,0.0
1170,70.0,0.0,240.0,5.0,0.0
1171,69.0,0.0,240.0,5.0,0.0
1172,70.0,0.0,120.0,5.0,0.0
1173,74.0,0.0,120.0,5.0,0.0
1174,67.0,0.0,120.0,5.0,0.0
1175,55.0,15.0,90.0,4.0,0.0
1176,55.0,105.0,120.0,5.0,0.0
1177,57.0,0.0,90.0,4.0,0.0
1178,74.0,0.0,120.0,5.0,0.0
1179,70.0,105.0,120.0,5.0,0.0
1180,69.0,0.0,120.0,5.0,0.0
1181,57.0,0.0,120.0,5.0,0.0
1182,67.0,0.0,210.0,2.0,0.0
1183,58.0,0.0,240.0,5.0,0.0
1184,74.0,0.0,240.0,5.0,0.0
1185,62.0,0.0,210.0,3.0,0.0
1186,79.0,105.0,240.0,5.0,0.0
1187,58.0,0.0,210.0,4.0,0.0
1188,74.0,120.0,90.0,1.0,0.0
1189,70.0,0.0,240.0,5.0,0.0
1190,74.0,0.0,90.0,0.0,0.0
1191,72.0,0.0,90.0,0.0,0.0
1192,72.0,15.0,90.0,1.0,0.0
1193,74.0,120.0,90.0,0.0,0.0
1194,54.0,0.0,210.0,4.0,0.0
1195,69.0,15.0,210.0,2.0,0.0
1196,74.0,0.0,240.0,5.0,0.0
1197,60.0,0.0,210.0,3.0,0.0
1198,72.0,0.0,240.0,5.0,0.0
1199,69.0,0.0,240.0,5.0,0.0
1200,66.0,0.0,240.0,5.0,0.0
1201,54.0,105.0,240.0,5.0,0.0
1202,74.0,0.0,90.0,1.0,0.0
1203,75.0,0.0,90.0,0.0,0.0
1204,75.0,0.0,90.0,1.0,0.0
1205,70.0,0.0,240.0,5.0,0.0
1206,74.0,105.0,240.0,5.0,0.0
1207,55.0,0.0,210.0,4.0,0.0
1208,55.0,0.0,240.0,5.0,0.0
1209,58.0,120.0,90.0,3.0,0.0
1210,74.0,0.0,210.0,0.0,0.0
1211,74.0,0.0,210.0,1.0,0.0
1212,67.0,0.0,240.0,5.0,0.0
1213,70.0,0.0,210.0,2.0,0.0
1214,57.0,15.0,90.0,3.0,0.0
1215,67.0,225.0,240.0,5.0,0.0
1216,58.0,120.0,90.0,3.0,0.0
1217,51.0,0.0,240.0,5.0,0.0
1218,63.0,0.0,240.0,5.0,0.0
1219,70.0,0.0,240.0,5.0,0.0
1220,67.0,0.0,210.0,0.0,0.0
1221,67.0,0.0,210.0,1.0,0.0
1222,58.0,15.0,210.0,2.0,0.0
1223,51.0,0.0,210.0,4.0,0.0
1224,55.0,0.0,90.0,3.0,0.0
1225,63.0,0.0,210.0,2.0,0.0
1226,69.0,0.0,210.0,1.0,0.0
1227,60.0,15.0,210.0,3.0,0.0
1228,48.0,225.0,240.0,5.0,0.0
1229,60.0,0.0,240.0,5.0,0.0
1230,63.0,0.0,240.0,5.0,0.0
1231,69.0,0.0,240.0,5.0,0.0
1232,48.0,0.0,210.0,4.0,0.0
1233,69.0,0.0,210.0,0.0,0.0
1234,66.0,0.0,210.0,1.0,0.0
1235,66.0,15.0,210.0,0.0,0.0
1236,50.0,0.0,210.0,4.0,0.0
1237,62.0,0.0,210.0,2.0,0.0
1238,66.0,0.0,240.0,5.0,0.0
1239,69.0,0.0,240.0,5.0,0.0
1240,62.0,0.0,240.0,5.0,0.0
1241,57.0,0.0,210.0,3.0,0.0
1242,50.0,225.0,240.0,5.0,0.0
1243,62.0,15.0,450.0,2.0,0.0
1244,67.0,0.0,450.0,0.0,0.0
1245,58.0,0.0,450.0,3.0,0.0
1246,67.0,0.0,450.0,1.0,0.0
1247,62.0,0.0,240.0,5.0,0.0
1248,43.0,105.0,240.0,5.0,0.0
1249,55.0,0.0,240.0,5.0,0.0
1250,58.0,0.0,240.0,5.0,0.0
1251,43.0,15.0,210.0,4.0,0.0
1252,46.0,0.0,120.0,5.0,0.0
1253,58.0,0.0,120.0,5.0,0.0
1254,62.0,0.0,120.0,5.0,0.0
1255,46.0,15.0,90.0,4.0,0.0
1256,65.0,105.0,120.0,5.0,0.0
1257,69.0,105.0,120.0,5.0,0.0
1258,62.0,0.0,120.0,5.0,0.0
1259,50.0,0.0,120.0,5.0,0.0
1260,65.0,0.0,120.0,5.0,0.0
1261,50.0,0.0,90.0,4.0,0.0
1262,55.0,0.0,210.0,4.0,0.0
1263,70.0,105.0,120.0,0.0,0.0
1264,70.0,0.0,240.0,5.0,0.0
1265,74.0,105.0,240.0,5.0,0.0
1266,67.0,0.0,240.0,5.0,0.0
1267,55.0,0.0,240.0,5.0,0.0
1268,70.0,15.0,90.0,1.0,0.0
1269,62.0,0.0,210.0,2.0,0.0
1270,55.0,15.0,210.0,3.0,0.0
1271,69.0,0.0,90.0,0.0,0.0
1272,69.0,0.0,90.0,1.0,0.0
1273,62.0,0.0,210.0,3.0,0.0
1274,70.0,105.0,120.0,0.0,0.0
1275,65.0,0.0,240.0,5.0,0.0
1276,53.0,105.0,240.0,5.0,0.0
1277,70.0,0.0,240.0,5.0,0.0
1278,74.0,0.0,240.0,5.0,0.0
1279,67.0,0.0,210.0,2.0,0.0
1280,53.0,0.0,210.0,4.0,0.0
1281,67.0,0.0,240.0,5.0,0.0
1282,70.0,15.0,90.0,1.0,0.0
1283,72.0,0.0,90.0,0.0,0.0
1284,72.0,15.0,90.0,1.0,0.0
1285,70.0,0.0,90.0,1.0,0.0
1286,52.0,0.0,210.0,4.0,0.0
1287,67.0,0.0,210.0,2.0,0.0
1288,70.0,120.0,90.0,0.0,0.0
1289,70.0,105.0,240.0,5.0,0.0
1290,60.0,0.0,210.0,3.0,0.0
1291,72.0,0.0,240.0,5.0,0.0
1292,67.0,0.0,240.0,5.0,0.0
1293,64.0,0.0,240.0,5.0,0.0
1294,52.0,0.0,240.0,5.0,0.0
1295,72.0,15.0,90.0,1.0,0.0
1296,72.0,0.0,90.0,0.0,0.0
1297,70.0,120.0,90.0,1.0,0.0
1298,65.0,0.0,210.0,2.0,0.0
1299,53.0,15.0,210.0,4.0,0.0
1300,69.0,0.0,240.0,5.0,0.0
1301,72.0,105.0,240.0,5.0,0.0
1302,53.0,0.0,240.0,5.0,0.0
1303,60.0,0.0,210.0,3.0,0.0
1304,70.0,0.0,90.0,0.0,0.0
1305,65.0,0.0,240.0,5.0,0.0
1306,69.0,0.0,90.0,0.0,0.0
1307,69.0,0.0,90.0,1.0,0.0
1308,65.0,0.0,210.0,2.0,0.0
1309,46.0,0.0,240.0,5.0,0.0
1310,58.0,0.0,240.0,5.0,0.0
1311,62.0,0.0,240.0,5.0,0.0
1312,65.0,0.0,240.0,5.0,0.0
1313,67.0,105.0,240.0,5.0,0.0
1314,46.0,0.0,210.0,4.0,0.0
1315,67.0,120.0,90.0,0.0,0.0
1316,67.0,0.0,90.0,1.0,0.0
1317,62.0,0.0,210.0,3.0,0.0
1318,69.0,15.0,90.0,1.0,0.0
1319,69.0,0.0,90.0,0.0,0.0
1320,48.0,0.0,240.0,5.0,0.0
1321,64.0,0.0,240.0,5.0,0.0
1322,60.0,0.0,240.0,5.0,0.0
1323,67.0,105.0,240.0,5.0,0.0
1324,60.0,0.0,210.0,3.0,0.0
1325,48.0,0.0,210.0,4.0,0.0
1326,70.0,120.0,90.0,0.0,0.0
1327,64.0,0.0,210.0,2.0,0.0
1328,70.0,0.0,90.0,1.0,0.0
1329,67.0,15.0,90.0,1.0,0.0
1330,67.0,0.0,90.0,0.0,0.0
1331,65.0,0.0,210.0,2.0,0.0
1332,60.0,105.0,240.0,5.0,0.0
1333,69.0,0.0,90.0,0.0,0.0
1334,53.0,0.0,240.0,5.0,0.0
1335,41.0,0.0,240.0,5.0,0.0
1336,69.0,0.0,90.0,1.0,0.0
1337,41.0,0.0,210.0,4.0,0.0
1338,57.0,0.0,240.0,5.0,0.0
1339,60.0,120.0,90.0,3.0,0.0
1340,67.0,0.0,90.0,1.0,0.0
1341,67.0,15.0,90.0,0.0,0.0
1342,58.0,0.0,90.0,3.0,0.0
1343,53.0,0.0,210.0,4.0,0.0
1344,60.0,0.0,210.0,2.0,0.0
1345,69.0,0.0,240.0,5.0,0.0
1346,65.0,0.0,90.0,0.0,0.0
1347,65.0,0.0,240.0,5.0,0.0
1348,53.0,105.0,240.0,5.0,0.0
1349,57.0,0.0,90.0,3.0,0.0
1350,65.0,120.0,90.0,1.0,0.0
1351,72.0,0.0,240.0,5.0,0.0
1352,67.0,0.0,90.0,1.0,0.0
1353,58.0,15.0,90.0,3.0,0.0
1354,67.0,0.0,90.0,0.0,0.0
1355,51.0,105.0,240.0,5.0,0.0
1356,51.0,0.0,210.0,4.0,0.0
1357,72.0,0.0,240.0,5.0,0.0
1358,69.0,0.0,240.0,5.0,0.0
1359,63.0,0.0,240.0,5.0,0.0
1360,60.0,15.0,210.0,3.0,0.0
1361,69.0,0.0,90.0,0.0,0.0
1362,65.0,0.0,240.0,5.0,0.0
1363,65.0,0.0,90.0,2.0,0.0
1364,69.0,120.0,90.0,1.0,0.0
1365,70.0,0.0,90.0,1.0,0.0
1366,67.0,0.0,90.0,2.0,0.0
1367,70.0,0.0,90.0,0.0,0.0
1368,62.0,0.0,240.0,5.0,0.0
1369,69.0,0.0,90.0,2.0,0.0
1370,65.0,0.0,210.0,3.0,0.0
1371,70.0,0.0,240.0,5.0,0.0
1372,50.0,0.0,210.0,4.0,0.0
1373,50.0,105.0,240.0,5.0,0.0
1374,72.0,0.0,90.0,0.0,0.0
1375,72.0,120.0,90.0,1.0,0.0
1376,65.0,0.0,240.0,5.0,0.0
1377,70.0,0.0,90.0,2.0,0.0
1378,74.0,0.0,90.0,1.0,0.0
1379,74.0,15.0,90.0,0.0,0.0
1380,63.0,0.0,240.0,5.0,0.0
1381,69.0,0.0,240.0,5.0,0.0
1382,72.0,0.0,90.0,2.0,0.0
1383,48.0,0.0,210.0,4.0,0.0
1384,75.0,0.0,90.0,0.0,0.0
1385,57.0,15.0,210.0,3.0,0.0
1386,75.0,120.0,90.0,1.0,0.0
1387,60.0,105.0,240.0,5.0,0.0
1388,48.0,0.0,240.0,5.0,0.0
1389,77.0,0.0,90.0,0.0,0.0
1390,77.0,0.0,90.0,1.0,0.0
1391,74.0,0.0,90.0,2.0,0.0
1392,60.0,105.0,240.0,5.0,0.0
1393,75.0,0.0,90.0,0.0,0.0
1394,57.0,0.0,240.0,5.0,0.0
1395,45.0,0.0,240.0,5.0,0.0
1396,53.0,0.0,210.0,3.0,0.0
1397,75.0,0.0,90.0,1.0,0.0
1398,45.0,15.0,210.0,4.0,0.0
1399,63.0,0.0,240.0,5.0,0.0
1400,65.0,0.0,240.0,5.0,0.0
1401,72.0,120.0,90.0,2.0,0.0
1402,74.0,0.0,90.0,1.0,0.0
1403,74.0,0.0,90.0,0.0,0.0
1404,70.0,0.0,90.0,2.0,0.0
1405,57.0,0.0,240.0,5.0,0.0
1406,60.0,0.0,240.0,5.0,0.0
1407,57.0,0.0,210.0,3.0,0.0
1408,41.0,0.0,210.0,4.0,0.0
1409,63.0,105.0,240.0,5.0,0.0
1410,72.0,120.0,90.0,2.0,0.0
1411,75.0,0.0,90.0,1.0,0.0
1412,53.0,0.0,240.0,5.0,0.0
1413,75.0,0.0,90.0,0.0,0.0
1414,41.0,0.0,240.0,5.0,0.0
1415,70.0,0.0,90.0,2.0,0.0
1416,74.0,15.0,90.0,1.0,0.0
1417,74.0,0.0,90.0,0.0,0.0
1418,72.0,120.0,90.0,0.0,0.0
1419,53.0,0.0,240.0,5.0,0.0
1420,65.0,105.0,240.0,5.0,0.0
1421,65.0,15.0,210.0,3.0,0.0
1422,72.0,0.0,90.0,1.0,0.0
1423,69.0,0.0,240.0,5.0,0.0
1424,72.0,0.0,240.0,5.0,0.0
1425,53.0,0.0,210.0,4.0,0.0
1426,69.0,0.0,90.0,2.0,0.0
1427,72.0,0.0,90.0,2.0,0.0
1428,75.0,0.0,90.0,1.0,0.0
1429,75.0,0.0,90.0,0.0,0.0
1430,74.0,120.0,90.0,0.0,0.0
1431,70.0,0.0,450.0,2.0,0.0
1432,74.0,0.0,210.0,1.0,0.0
1433,65.0,0.0,480.0,3.0,0.0
1434,58.0,0.0,480.0,5.0,0.0
1435,46.0,0.0,480.0,5.0,0.0
1436,46.0,105.0,480.0,4.0,0.0
1437,62.0,0.0,480.0,5.0,0.0
1438,65.0,0.0,480.0,5.0,0.0
1439,75.0,120.0,90.0,0.0,0.0
1440,65.0,15.0,210.0,1.0,0.0
1441,77.0,120.0,90.0,0.0,0.0
1442,74.0,0.0,90.0,0.0,0.0
1443,70.0,0.0,930.0,1.0,0.0
1444,79.0,120.0,90.0,0.0,0.0
1445,74.0,105.0,240.0,2.0,0.0
1446,77.0,15.0,90.0,0.0,0.0
1447,76.0,75.0,90.0,0.0,0.0
1448,72.0,45.0,180.0,2.0,0.0
1449,74.0,120.0,90.0,0.0,0.0
1450,72.0,120.0,90.0,0.0,0.0
1451,64.0,0.0,450.0,2.0,0.0
1452,70.0,120.0,90.0,0.0,0.0
1453,69.0,120.0,90.0,0.0,0.0
1454,67.0,120.0,90.0,0.0,0.0
1455,72.0,105.0,240.0,2.0,0.0
1456,69.0,0.0,930.0,1.0,0.0
1457,77.0,120.0,90.0,0.0,0.0
1458,76.0,15.0,90.0,0.0,0.0
1459,74.0,75.0,90.0,0.0,0.0
1460,70.0,45.0,180.0,2.0,0.0
1461,72.0,120.0,90.0,0.0,0.0
1462,70.0,120.0,90.0,0.0,0.0
1463,62.0,0.0,450.0,2.0,0.0
1464,69.0,120.0,90.0,0.0,0.0
1465,67.0,120.0,90.0,0.0,0.0
1466,65.0,120.0,90.0,0.0,0.0
1467,76.0,120.0,90.0,0.0,0.0
1468,70.0,105.0,240.0,2.0,0.0
1469,67.0,120.0,570.0,1.0,0.0
1470,74.0,15.0,90.0,0.0,0.0
1471,73.0,75.0,90.0,0.0,0.0
1472,69.0,45.0,180.0,2.0,0.0
1473,74.0,120.0,90.0,0.0,0.0
1474,76.0,0.0,210.0,0.0,0.0
1475,61.0,0.0,450.0,2.0,0.0
1476,65.0,120.0,90.0,1.0,0.0
1477,67.0,120.0,90.0,1.0,0.0
1478,69.0,120.0,210.0,0.0,0.0
1479,69.0,0.0,90.0,1.0,0.0
1480,81.0,120.0,210.0,0.0,0.0
1481,62.0,0.0,210.0,2.0,0.0
1482,67.0,120.0,90.0,1.0,0.0
1483,65.0,0.0,90.0,1.0,0.0
1484,79.0,0.0,90.0,0.0,0.0
1485,55.0,0.0,210.0,2.0,0.0
1486,64.0,83.0,90.0,1.0,0.0
1487,77.0,37.0,60.0,0.0,0.0
1488,62.0,15.0,90.0,1.0,0.0
1489,77.0,105.0,30.0,0.0,0.0
1490,76.0,0.0,450.0,0.0,0.0
1491,57.0,120.0,90.0,2.0,0.0
1492,61.0,0.0,210.0,1.0,0.0
1493,59.0,120.0,90.0,2.0,0.0
1494,61.0,120.0,90.0,2.0,0.0
1495,57.0,0.0,210.0,1.0,0.0
1496,57.0,120.0,90.0,2.0,0.0
1497,74.0,0.0,120.0,5.0,0.0
1498,69.0,0.0,120.0,5.0,0.0
1499,65.0,0.0,120.0,5.0,0.0
1500,69.0,0.0,240.0,1.0,0.0
1501,62.0,0.0,240.0,3.0,0.0
1502,62.0,15.0,210.0,2.0,0.0
1503,53.0,15.0,90.0,4.0,0.0
1504,69.0,0.0,240.0,0.0,0.0
1505,53.0,105.0,120.0,5.0,0.0
1506,55.0,0.0,90.0,4.0,0.0
1507,67.0,0.0,120.0,5.0,0.0
1508,55.0,105.0,120.0,5.0,0.0
1509,70.0,0.0,120.0,5.0,0.0
1510,74.0,0.0,120.0,5.0,0.0
1511,69.0,0.0,120.0,5.0,0.0
1512,74.0,0.0,120.0,5.0,0.0
1513,73.0,0.0,210.0,2.0,0.0
1514,64.0,0.0,180.0,3.0,0.0
1515,67.0,45.0,180.0,1.0,0.0
1516,53.0,60.0,120.0,5.0,0.0
1517,65.0,0.0,120.0,5.0,0.0
1518,67.0,0.0,180.0,0.0,0.0
1519,53.0,15.0,90.0,4.0,0.0
1520,64.0,0.0,120.0,5.0,0.0
1521,67.0,0.0,120.0,5.0,0.0
1522,73.0,105.0,120.0,5.0,0.0
1523,52.0,0.0,120.0,5.0,0.0
1524,52.0,15.0,90.0,4.0,0.0
1525,50.0,105.0,120.0,5.0,0.0
1526,74.0,0.0,450.0,2.0,0.0
1527,65.0,0.0,120.0,5.0,0.0
1528,69.0,0.0,120.0,5.0,0.0
1529,57.0,15.0,450.0,3.0,0.0
1530,50.0,15.0,90.0,4.0,0.0
1531,77.0,0.0,450.0,0.0,0.0
1532,62.0,0.0,120.0,5.0,0.0
1533,77.0,0.0,450.0,1.0,0.0
1534,52.0,0.0,120.0,5.0,0.0
1535,64.0,0.0,120.0,5.0,0.0
1536,67.0,0.0,120.0,5.0,0.0
1537,70.0,105.0,120.0,5.0,0.0
1538,52.0,15.0,90.0,4.0,0.0
1539,53.0,15.0,90.0,4.0,0.0
1540,65.0,0.0,120.0,5.0,0.0
1541,72.0,0.0,120.0,5.0,0.0
1542,69.0,0.0,120.0,5.0,0.0
1543,53.0,105.0,120.0,5.0,0.0
1544,50.0,0.0,90.0,4.0,0.0
1545,50.0,0.0,120.0,5.0,0.0
1546,65.0,0.0,120.0,5.0,0.0
1547,62.0,0.0,120.0,5.0,0.0
1548,69.0,105.0,120.0,5.0,0.0
1549,70.0,0.0,240.0,1.0,0.0
1550,70.0,0.0,240.0,0.0,0.0
1551,67.0,0.0,240.0,3.0,0.0
1552,52.0,15.0,90.0,4.0,0.0
1553,64.0,105.0,120.0,5.0,0.0
1554,73.0,0.0,210.0,2.0,0.0
1555,52.0,0.0,120.0,5.0,0.0
1556,67.0,0.0,120.0,5.0,0.0
1557,73.0,0.0,120.0,5.0,0.0
1558,53.0,15.0,90.0,4.0,0.0
1559,73.0,0.0,120.0,5.0,0.0
1560,53.0,105.0,120.0,5.0,0.0
1561,65.0,0.0,120.0,5.0,0.0
1562,69.0,0.0,120.0,5.0,0.0
1563,65.0,60.0,120.0,5.0,0.0
1564,65.0,0.0,180.0,3.0,0.0
1565,64.0,0.0,120.0,5.0,0.0
1566,74.0,0.0,210.0,2.0,0.0
1567,52.0,15.0,90.0,4.0,0.0
1568,52.0,0.0,120.0,5.0,0.0
1569,69.0,45.0,180.0,1.0,0.0
1570,69.0,0.0,180.0,0.0,0.0
1571,69.0,0.0,120.0,5.0,0.0
1572,74.0,0.0,120.0,5.0,0.0
1573,50.0,0.0,120.0,5.0,0.0
1574,69.0,0.0,120.0,5.0,0.0
1575,50.0,15.0,90.0,4.0,0.0
1576,65.0,0.0,120.0,5.0,0.0
1577,62.0,105.0,120.0,5.0,0.0
1578,64.0,15.0,450.0,3.0,0.0
1579,49.0,0.0,120.0,5.0,0.0
1580,49.0,15.0,90.0,4.0,0.0
1581,61.0,0.0,120.0,5.0,0.0
1582,63.0,0.0,120.0,5.0,0.0
1583,67.0,0.0,120.0,5.0,0.0
1584,69.0,105.0,120.0,5.0,0.0
1585,79.0,0.0,450.0,0.0,0.0
1586,69.0,0.0,450.0,2.0,0.0
1587,79.0,0.0,450.0,1.0,0.0
1588,62.0,0.0,120.0,5.0,0.0
1589,50.0,0.0,120.0,5.0,0.0
1590,50.0,15.0,90.0,4.0,0.0
1591,65.0,105.0,120.0,5.0,0.0
1592,69.0,0.0,120.0,5.0,0.0
1593,67.0,105.0,120.0,5.0,0.0
1594,64.0,0.0,120.0,5.0,0.0
1595,52.0,15.0,90.0,4.0,0.0
1596,52.0,0.0,120.0,5.0,0.0
1597,70.0,0.0,120.0,5.0,0.0
1598,49.0,0.0,90.0,4.0,0.0
1599,69.0,0.0,120.0,5.0,0.0
1600,67.0,0.0,120.0,5.0,0.0
1601,49.0,105.0,120.0,5.0,0.0
1602,61.0,0.0,120.0,5.0,0.0
1603,63.0,0.0,120.0,5.0,0.0
1604,50.0,0.0,240.0,5.0,0.0
1605,77.0,0.0,90.0,0.0,0.0
1606,62.0,15.0,210.0,3.0,0.0
1607,50.0,0.0,210.0,4.0,0.0
1608,69.0,120.0,90.0,2.0,0.0
1609,77.0,0.0,90.0,1.0,0.0
1610,69.0,105.0,240.0,5.0,0.0
1611,65.0,0.0,240.0,5.0,0.0
1612,62.0,0.0,240.0,5.0,0.0
1613,67.0,0.0,90.0,2.0,0.0
1614,76.0,0.0,90.0,1.0,0.0
1615,76.0,0.0,90.0,0.0,0.0
1616,61.0,0.0,210.0,3.0,0.0
1617,45.0,0.0,210.0,4.0,0.0
1618,65.0,0.0,240.0,5.0,0.0
1619,77.0,0.0,90.0,1.0,0.0
1620,45.0,0.0,240.0,5.0,0.0
1621,57.0,105.0,240.0,5.0,0.0
1622,61.0,0.0,240.0,5.0,0.0
1623,77.0,0.0,90.0,0.0,0.0
1624,69.0,120.0,90.0,2.0,0.0
1625,79.0,0.0,90.0,0.0,0.0
1626,79.0,15.0,90.0,1.0,0.0
1627,70.0,0.0,90.0,2.0,0.0
1628,46.0,0.0,210.0,4.0,0.0
1629,77.0,0.0,90.0,1.0,0.0
1630,46.0,105.0,240.0,5.0,0.0
1631,58.0,0.0,240.0,5.0,0.0
1632,62.0,0.0,240.0,5.0,0.0
1633,65.0,0.0,240.0,5.0,0.0
1634,69.0,0.0,90.0,2.0,0.0
1635,62.0,0.0,210.0,3.0,0.0
1636,77.0,120.0,90.0,0.0,0.0
1637,76.0,0.0,90.0,0.0,0.0
1638,67.0,0.0,90.0,2.0,0.0
1639,76.0,15.0,90.0,1.0,0.0
1640,65.0,0.0,90.0,2.0,0.0
1641,74.0,0.0,90.0,1.0,0.0
1642,65.0,0.0,210.0,3.0,0.0
1643,77.0,0.0,240.0,5.0,0.0
1644,74.0,0.0,240.0,5.0,0.0
1645,70.0,0.0,240.0,5.0,0.0
1646,58.0,105.0,240.0,5.0,0.0
1647,74.0,120.0,90.0,0.0,0.0
1648,58.0,0.0,210.0,4.0,0.0
1649,77.0,0.0,90.0,1.0,0.0
1650,77.0,0.0,90.0,0.0,0.0
1651,69.0,15.0,90.0,2.0,0.0
1652,67.0,0.0,90.0,2.0,0.0
1653,76.0,0.0,90.0,0.0,0.0
1654,55.0,0.0,240.0,5.0,0.0
1655,76.0,0.0,240.0,5.0,0.0
1656,70.0,0.0,240.0,5.0,0.0
1657,67.0,105.0,240.0,5.0,0.0
1658,76.0,120.0,90.0,1.0,0.0
1659,55.0,0.0,210.0,4.0,0.0
1660,70.0,0.0,210.0,3.0,0.0
1661,65.0,0.0,90.0,2.0,0.0
1662,74.0,15.0,90.0,0.0,0.0
1663,74.0,0.0,90.0,1.0,0.0
1664,73.0,0.0,90.0,0.0,0.0
1665,64.0,120.0,90.0,2.0,0.0
1666,73.0,0.0,90.0,1.0,0.0
1667,57.0,0.0,240.0,5.0,0.0
1668,69.0,0.0,240.0,5.0,0.0
1669,73.0,0.0,240.0,5.0,0.0
1670,76.0,105.0,240.0,5.0,0.0
1671,57.0,0.0,210.0,4.0,0.0
1672,69.0,0.0,210.0,3.0,0.0
1673,76.0,15.0,90.0,1.0,0.0
1674,67.0,0.0,90.0,2.0,0.0
1675,76.0,0.0,90.0,0.0,0.0
1676,50.0,0.0,480.0,5.0,0.0
1677,62.0,0.0,480.0,5.0,0.0
1678,74.0,0.0,450.0,1.0,0.0
1679,69.0,120.0,90.0,3.0,0.0
1680,50.0,0.0,480.0,4.0,0.0
1681,74.0,15.0,450.0,0.0,0.0
1682,66.0,0.0,450.0,2.0,0.0
1683,66.0,105.0,480.0,5.0,0.0
1684,69.0,0.0,480.0,5.0,0.0
1685,67.0,120.0,90.0,3.0,0.0
1686,66.0,120.0,90.0,3.0,0.0
1687,64.0,0.0,90.0,3.0,0.0
1688,69.0,0.0,90.0,1.0,0.0
1689,62.0,0.0,210.0,3.0,0.0
1690,69.0,105.0,120.0,0.0,0.0
1691,66.0,15.0,90.0,2.0,0.0
1692,70.0,0.0,90.0,1.0,0.0
1693,70.0,105.0,120.0,0.0,0.0
1694,67.0,15.0,90.0,2.0,0.0
1695,69.0,0.0,90.0,1.0,0.0
1696,66.0,15.0,90.0,2.0,0.0
1697,69.0,105.0,120.0,0.0,0.0
1698,62.0,0.0,210.0,3.0,0.0
1699,67.0,195.0,90.0,0.0,0.0
1700,64.0,0.0,90.0,2.0,0.0
1701,67.0,0.0,90.0,1.0,0.0
1702,69.0,45.0,180.0,0.0,0.0
1703,69.0,0.0,180.0,1.0,0.0
1704,66.0,0.0,180.0,2.0,0.0
1705,62.0,195.0,210.0,3.0,0.0
1706,67.0,0.0,180.0,2.0,0.0
1707,62.0,195.0,210.0,3.0,0.0
1708,70.0,0.0,180.0,0.0,0.0
1709,70.0,45.0,180.0,1.0,0.0
1710,72.0,0.0,180.0,0.0,0.0
1711,62.0,195.0,210.0,3.0,0.0
1712,69.0,45.0,180.0,2.0,0.0
1713,72.0,0.0,180.0,1.0,0.0
1714,62.0,120.0,210.0,3.0,0.0
1715,70.0,0.0,180.0,0.0,0.0
1716,67.0,0.0,180.0,2.0,0.0
1717,70.0,45.0,180.0,1.0,0.0
1718,69.0,0.0,180.0,0.0,0.0
1719,62.0,75.0,90.0,3.0,0.0
1720,66.0,45.0,180.0,2.0,0.0
1721,69.0,0.0,180.0,1.0,0.0
1722,60.0,120.0,90.0,3.0,0.0
1723,74.0,45.0,180.0,1.0,0.0
1724,67.0,0.0,180.0,2.0,0.0
1725,74.0,0.0,180.0,0.0,0.0
1726,58.0,75.0,90.0,3.0,0.0
1727,60.0,120.0,90.0,3.0,0.0
1728,66.0,15.0,90.0,2.0,0.0
1729,62.0,0.0,210.0,3.0,0.0
1730,69.0,105.0,120.0,0.0,0.0
1731,69.0,0.0,90.0,1.0,0.0
1732,70.0,105.0,120.0,0.0,0.0
1733,67.0,0.0,90.0,2.0,0.0
1734,70.0,15.0,90.0,1.0,0.0
1735,69.0,105.0,120.0,0.0,0.0
1736,62.0,0.0,210.0,3.0,0.0
1737,69.0,0.0,90.0,1.0,0.0
1738,66.0,15.0,90.0,2.0,0.0
1739,67.0,195.0,90.0,0.0,0.0
1740,67.0,0.0,90.0,1.0,0.0
1741,64.0,0.0,90.0,2.0,0.0
1742,66.0,45.0,180.0,2.0,0.0
1743,69.0,0.0,180.0,1.0,0.0
1744,69.0,0.0,180.0,0.0,0.0
1745,62.0,195.0,210.0,3.0,0.0
1746,70.0,45.0,180.0,1.0,0.0
1747,70.0,0.0,180.0,0.0,0.0
1748,67.0,0.0,180.0,2.0,0.0
1749,62.0,195.0,210.0,3.0,0.0
1750,72.0,0.0,180.0,1.0,0.0
1751,69.0,0.0,180.0,2.0,0.0
1752,72.0,45.0,180.0,0.0,0.0
1753,62.0,195.0,210.0,3.0,0.0
1754,62.0,15.0,210.0,3.0,0.0
1755,67.0,0.0,180.0,2.0,0.0
1756,70.0,0.0,180.0,1.0,0.0
1757,70.0,45.0,180.0,0.0,0.0
1758,70.0,225.0,30.0,0.0,0.0
1759,66.0,0.0,450.0,2.0,0.0
1760,62.0,0.0,450.0,3.0,0.0
1761,69.0,15.0,450.0,0.0,0.0
1762,69.0,0.0,450.0,1.0,0.0
1763,60.0,0.0,120.0,5.0,0.0
1764,81.0,105.0,120.0,5.0,0.0
1765,78.0,0.0,120.0,5.0,0.0
1766,72.0,0.0,120.0,5.0,0.0
1767,60.0,15.0,90.0,4.0,0.0
1768,58.0,105.0,120.0,5.0,0.0
1769,78.0,0.0,120.0,5.0,0.0
1770,70.0,0.0,120.0,5.0,0.0
1771,74.0,0.0,120.0,5.0,0.0
1772,58.0,15.0,90.0,4.0,0.0
1773,57.0,0.0,90.0,4.0,0.0
1774,75.0,225.0,120.0,5.0,0.0
1775,72.0,0.0,120.0,5.0,0.0
1776,69.0,0.0,120.0,5.0,0.0
1777,57.0,0.0,120.0,5.0,0.0
1778,62.0,0.0,210.0,3.0,0.0
1779,70.0,0.0,240.0,1.0,0.0
1780,67.0,15.0,210.0,2.0,0.0
1781,70.0,105.0,240.0,0.0,0.0
1782,55.0,15.0,690.0,4.0,0.0
1783,70.0,0.0,480.0,5.0,0.0
1784,67.0,225.0,480.0,5.0,0.0
1785,74.0,0.0,480.0,5.0,0.0
1786,55.0,0.0,720.0,5.0,0.0
1787,69.0,45.0,180.0,0.0,0.0
1788,69.0,0.0,180.0,1.0,0.0
1789,60.0,0.0,90.0,3.0,0.0
1790,66.0,75.0,90.0,2.0,0.0
1791,58.0,15.0,90.0,3.0,0.0
1792,67.0,0.0,90.0,2.0,0.0
1793,74.0,105.0,240.0,5.0,0.0
1794,69.0,0.0,240.0,5.0,0.0
1795,69.0,0.0,450.0,2.0,0.0
1796,62.0,0.0,450.0,0.0,0.0
1797,57.0,0.0,450.0,3.0,0.0
1798,62.0,0.0,450.0,1.0,0.0
1799,67.0,0.0,240.0,5.0,0.0
1800,54.0,0.0,120.0,5.0,0.0
1801,74.0,0.0,120.0,5.0,0.0
1802,69.0,0.0,120.0,5.0,0.0
1803,66.0,105.0,120.0,5.0,0.0
1804,54.0,15.0,90.0,4.0,0.0
1805,55.0,0.0,120.0,5.0,0.0
1806,67.0,0.0,120.0,5.0,0.0
1807,69.0,225.0,120.0,5.0,0.0
1808,55.0,15.0,90.0,4.0,0.0
1809,74.0,0.0,120.0,5.0,0.0
1810,57.0,0.0,720.0,5.0,0.0
1811,72.0,0.0,240.0,0.0,0.0
1812,69.0,0.0,480.0,5.0,0.0
1813,57.0,15.0,690.0,4.0,0.0
1814,72.0,0.0,480.0,5.0,0.0
1815,78.0,225.0,480.0,5.0,0.0
1816,72.0,105.0,240.0,1.0,0.0
1817,66.0,0.0,210.0,2.0,0.0
1818,57.0,15.0,210.0,3.0,0.0
1819,70.0,0.0,180.0,1.0,0.0
1820,67.0,75.0,90.0,2.0,0.0
1821,58.0,0.0,90.0,3.0,0.0
1822,70.0,45.0,180.0,0.0,0.0
1823,60.0,0.0,90.0,3.0,0.0
1824,69.0,15.0,90.0,2.0,0.0
1825,70.0,0.0,450.0,2.0,0.0
1826,69.0,0.0,240.0,5.0,0.0
1827,70.0,105.0,240.0,5.0,0.0
1828,74.0,0.0,240.0,5.0,0.0
1829,78.0,0.0,240.0,5.0,0.0
1830,62.0,15.0,450.0,3.0,0.0
1831,62.0,0.0,450.0,1.0,0.0
1832,62.0,0.0,450.0,0.0,0.0
1833,55.0,0.0,120.0,5.0,0.0
1834,55.0,15.0,90.0,4.0,0.0
1835,67.0,0.0,120.0,5.0,0.0
1836,70.0,0.0,120.0,5.0,0.0
1837,74.0,105.0,120.0,5.0,0.0
1838,78.0,0.0,120.0,5.0,0.0
1839,78.0,0.0,120.0,5.0,0.0
1840,74.0,0.0,120.0,5.0,0.0
1841,70.0,105.0,120.0,5.0,0.0
1842,57.0,0.0,120.0,5.0,0.0
1843,69.0,0.0,120.0,5.0,0.0
1844,57.0,0.0,90.0,4.0,0.0
1845,58.0,105.0,240.0,5.0,0.0
1846,70.0,0.0,90.0,2.0,0.0
1847,70.0,0.0,240.0,5.0,0.0
1848,74.0,75.0,90.0,0.0,0.0
1849,58.0,15.0,210.0,4.0,0.0
1850,67.0,45.0,180.0,3.0,0.0
1851,74.0,0.0,240.0,5.0,0.0
1852,79.0,0.0,240.0,5.0,0.0
1853,74.0,0.0,90.0,1.0,0.0
1854,72.0,0.0,90.0,1.0,0.0
1855,72.0,0.0,90.0,0.0,0.0
1856,69.0,0.0,90.0,2.0,0.0
1857,74.0,75.0,90.0,0.0,0.0
1858,62.0,45.0,180.0,3.0,0.0
1859,55.0,15.0,210.0,4.0,0.0
1860,74.0,0.0,90.0,1.0,0.0
1861,74.0,105.0,240.0,5.0,0.0
1862,70.0,0.0,240.0,5.0,0.0
1863,67.0,0.0,240.0,5.0,0.0
1864,55.0,0.0,240.0,5.0,0.0
1865,70.0,0.0,90.0,2.0,0.0
1866,75.0,0.0,90.0,1.0,0.0
1867,72.0,0.0,90.0,2.0,0.0
1868,75.0,0.0,90.0,0.0,0.0
1869,67.0,0.0,480.0,5.0,0.0
1870,62.0,105.0,480.0,5.0,0.0
1871,50.0,0.0,480.0,5.0,0.0
1872,70.0,0.0,480.0,5.0,0.0
1873,74.0,0.0,90.0,0.0,0.0
1874,50.0,0.0,450.0,4.0,0.0
1875,55.0,15.0,450.0,3.0,0.0
1876,74.0,0.0,90.0,1.0,0.0
1877,70.0,120.0,90.0,2.0,0.0
1878,69.0,120.0,90.0,2.0,0.0
1879,72.0,0.0,90.0,0.0,0.0
1880,72.0,0.0,90.0,1.0,0.0
1881,67.0,0.0,90.0,2.0,0.0
1882,70.0,120.0,90.0,0.0,0.0
1883,70.0,0.0,90.0,1.0,0.0
1884,74.0,0.0,90.0,1.0,0.0
1885,70.0,0.0,90.0,2.0,0.0
1886,74.0,0.0,90.0,0.0,0.0
1887,57.0,0.0,240.0,5.0,0.0
1888,72.0,75.0,90.0,0.0,0.0
1889,66.0,45.0,180.0,3.0,0.0
1890,69.0,0.0,90.0,2.0,0.0
1891,69.0,0.0,240.0,5.0,0.0
1892,72.0,0.0,240.0,5.0,0.0
1893,72.0,0.0,90.0,1.0,0.0
1894,74.0,0.0,240.0,5.0,0.0
1895,78.0,105.0,240.0,5.0,0.0
1896,57.0,15.0,210.0,4.0,0.0
1897,67.0,0.0,90.0,2.0,0.0
1898,70.0,0.0,90.0,1.0,0.0
1899,70.0,0.0,90.0,0.0,0.0
1900,54.0,15.0,210.0,4.0,0.0
1901,72.0,0.0,90.0,1.0,0.0
1902,54.0,0.0,240.0,5.0,0.0
1903,69.0,0.0,90.0,2.0,0.0
1904,72.0,105.0,240.0,5.0,0.0
1905,74.0,0.0,240.0,5.0,0.0
1906,78.0,0.0,240.0,5.0,0.0
1907,62.0,45.0,180.0,3.0,0.0
1908,66.0,0.0,240.0,5.0,0.0
1909,72.0,75.0,90.0,0.0,0.0
1910,70.0,0.0,90.0,2.0,0.0
1911,74.0,0.0,90.0,0.0,0.0
1912,74.0,0.0,90.0,1.0,0.0
1913,50.0,0.0,450.0,4.0,0.0
1914,72.0,0.0,480.0,5.0,0.0
1915,72.0,0.0,90.0,1.0,0.0
1916,69.0,0.0,480.0,5.0,0.0
1917,66.0,225.0,480.0,5.0,0.0
1918,62.0,0.0,480.0,5.0,0.0
1919,50.0,0.0,480.0,5.0,0.0
1920,72.0,0.0,90.0,0.0,0.0
1921,69.0,120.0,90.0,2.0,0.0
1922,54.0,0.0,450.0,3.0,0.0
1923,70.0,0.0,90.0,0.0,0.0
1924,70.0,0.0,90.0,1.0,0.0
1925,67.0,120.0,90.0,2.0,0.0
1926,69.0,120.0,90.0,0.0,0.0
1927,66.0,0.0,90.0,2.0,0.0
1928,69.0,0.0,90.0,1.0,0.0
1929,72.0,15.0,90.0,0.0,0.0
1930,69.0,0.0,90.0,2.0,0.0
1931,72.0,0.0,90.0,1.0,0.0
1932,67.0,0.0,480.0,5.0,0.0
1933,67.0,15.0,210.0,2.0,0.0
1934,62.0,0.0,210.0,3.0,0.0
1935,55.0,0.0,720.0,5.0,0.0
1936,70.0,0.0,240.0,1.0,0.0
1937,70.0,105.0,240.0,0.0,0.0
1938,74.0,225.0,480.0,5.0,0.0
1939,70.0,0.0,480.0,5.0,0.0
1940,55.0,15.0,690.0,4.0,0.0
1941,69.0,0.0,180.0,1.0,0.0
1942,66.0,0.0,90.0,2.0,0.0
1943,60.0,75.0,90.0,3.0,0.0
1944,69.0,45.0,180.0,0.0,0.0
1945,58.0,15.0,90.0,3.0,0.0
1946,67.0,0.0,90.0,2.0,0.0
1947,57.0,0.0,450.0,3.0,0.0
1948,62.0,15.0,450.0,1.0,0.0
1949,67.0,0.0,240.0,5.0,0.0
1950,69.0,105.0,240.0,5.0,0.0
1951,74.0,0.0,240.0,5.0,0.0
1952,62.0,0.0,450.0,0.0,0.0
1953,69.0,0.0,450.0,2.0,0.0
1954,66.0,0.0,120.0,5.0,0.0
1955,72.0,0.0,120.0,5.0,0.0
1956,69.0,105.0,120.0,5.0,0.0
1957,54.0,0.0,120.0,5.0,0.0
1958,54.0,15.0,90.0,4.0,0.0
1959,55.0,0.0,120.0,5.0,0.0
1960,55.0,0.0,90.0,4.0,0.0
1961,67.0,0.0,120.0,5.0,0.0
1962,69.0,0.0,120.0,5.0,0.0
1963,74.0,225.0,120.0,5.0,0.0
1964,78.0,225.0,480.0,5.0,0.0
1965,72.0,0.0,480.0,5.0,0.0
1966,57.0,105.0,720.0,5.0,0.0
1967,69.0,0.0,480.0,5.0,0.0
1968,57.0,15.0,210.0,3.0,0.0
1969,57.0,15.0,690.0,4.0,0.0
1970,72.0,0.0,240.0,0.0,0.0
1971,66.0,0.0,210.0,2.0,0.0
1972,72.0,105.0,240.0,1.0,0.0
1973,58.0,75.0,90.0,3.0,0.0
1974,70.0,0.0,180.0,0.0,0.0
1975,70.0,45.0,180.0,1.0,0.0
1976,67.0,0.0,90.0,2.0,0.0
1977,60.0,0.0,90.0,3.0,0.0
1978,69.0,15.0,90.0,2.0,0.0
1979,62.0,15.0,450.0,0.0,0.0
1980,62.0,0.0,450.0,1.0,0.0
1981,78.0,0.0,240.0,5.0,0.0
1982,74.0,0.0,240.0,5.0,0.0
1983,70.0,0.0,240.0,5.0,0.0
1984,69.0,0.0,240.0,5.0,0.0
1985,62.0,0.0,450.0,3.0,0.0
1986,70.0,0.0,450.0,2.0,0.0
1987,55.0,15.0,90.0,4.0,0.0
1988,55.0,0.0,120.0,5.0,0.0
1989,74.0,105.0,120.0,5.0,0.0
1990,67.0,0.0,120.0,5.0,0.0
1991,70.0,0.0,120.0,5.0,0.0
1992,78.0,105.0,120.0,5.0,0.0
1993,74.0,0.0,120.0,5.0,0.0
1994,70.0,0.0,120.0,5.0,0.0
1995,69.0,0.0,120.0,5.0,0.0
1996,57.0,0.0,120.0,5.0,0.0
1997,57.0,0.0,90.0,4.0,0.0
1998,74.0,75.0,90.0,0.0,0.0
1999,79.0,105.0,240.0,5.0,0.0
2000,70.0,0.0,240.0,5.0,0.0
2001,58.0,0.0,210.0,4.0,0.0
2002,58.0,0.0,240.0,5.0,0.0
2003,74.0,0.0,90.0,1.0,0.0
2004,67.0,45.0,180.0,2.0,0.0
2005,62.0,15.0,210.0,3.0,0.0
2006,74.0,0.0,240.0,5.0,0.0
2007,72.0,0.0,90.0,1.0,0.0
2008,72.0,0.0,90.0,0.0,0.0
2009,54.0,0.0,210.0,4.0,0.0
2010,74.0,0.0,90.0,0.0,0.0
2011,69.0,45.0,180.0,2.0,0.0
2012,66.0,105.0,240.0,5.0,0.0
2013,54.0,0.0,240.0,5.0,0.0
2014,69.0,0.0,240.0,5.0,0.0
2015,74.0,0.0,240.0,5.0,0.0
2016,60.0,0.0,210.0,3.0,0.0
2017,74.0,75.0,90.0,1.0,0.0
2018,75.0,0.0,90.0,0.0,0.0
2019,75.0,15.0,90.0,1.0,0.0
2020,70.0,45.0,180.0,2.0,0.0
2021,74.0,0.0,210.0,1.0,0.0
2022,55.0,15.0,210.0,4.0,0.0
2023,55.0,0.0,240.0,5.0,0.0
2024,67.0,0.0,240.0,5.0,0.0
2025,70.0,105.0,240.0,5.0,0.0
2026,74.0,0.0,240.0,5.0,0.0
2027,74.0,0.0,210.0,0.0,0.0
2028,58.0,75.0,90.0,3.0,0.0
2029,57.0,0.0,90.0,3.0,0.0
2030,63.0,0.0,240.0,5.0,0.0
2031,67.0,15.0,210.0,0.0,0.0
2032,51.0,0.0,240.0,5.0,0.0
2033,58.0,75.0,90.0,3.0,0.0
2034,58.0,45.0,180.0,2.0,0.0
2035,51.0,0.0,210.0,4.0,0.0
2036,67.0,0.0,210.0,1.0,0.0
2037,70.0,180.0,240.0,5.0,0.0
2038,67.0,0.0,240.0,5.0,0.0
2039,55.0,0.0,90.0,3.0,0.0
2040,48.0,0.0,210.0,4.0,0.0
2041,69.0,0.0,240.0,5.0,0.0
2042,63.0,45.0,180.0,2.0,0.0
2043,69.0,15.0,210.0,0.0,0.0
2044,63.0,0.0,240.0,5.0,0.0
2045,60.0,0.0,210.0,3.0,0.0
2046,48.0,180.0,240.0,5.0,0.0
2047,60.0,0.0,240.0,5.0,0.0
2048,69.0,0.0,210.0,1.0,0.0
2049,66.0,0.0,210.0,1.0,0.0
2050,69.0,0.0,240.0,5.0,0.0
2051,66.0,0.0,240.0,5.0,0.0
2052,62.0,0.0,240.0,5.0,0.0
2053,50.0,480.0,240.0,5.0,0.0
2054,57.0,15.0,210.0,3.0,0.0
2055,66.0,0.0,210.0,0.0,0.0
2056,50.0,0.0,210.0,4.0,0.0
2057,62.0,45.0,180.0,2.0,0.0
2058,58.0,0.0,480.0,3.0,0.0
2059,62.0,0.0,480.0,5.0,0.0
2060,67.0,0.0,480.0,1.0,0.0
2061,55.0,0.0,480.0,5.0,0.0
2062,43.0,961.0,480.0,4.0,0.0
2063,58.0,0.0,480.0,5.0,0.0
2064,43.0,0.0,480.0,5.0,0.0
2065,67.0,0.0,480.0,0.0,0.0
2066,62.0,0.0,480.0,2.0,0.0
