,note,step,duration,channel,velocity
0,58.0,197.0,780.0,6.0,127.0
1,61.0,393.0,1170.0,10.0,127.0
2,54.0,1.0,1170.0,2.0,127.0
3,73.0,1.0,1170.0,10.0,127.0
4,82.0,196.0,210.0,6.0,127.0
5,80.0,0.0,210.0,4.0,127.0
6,65.0,0.0,780.0,1.0,127.0
7,80.0,394.0,390.0,4.0,127.0
8,61.0,394.0,780.0,10.0,127.0
9,73.0,0.0,390.0,10.0,127.0
10,61.0,0.0,390.0,10.0,127.0
11,59.0,394.0,390.0,7.0,127.0
12,77.0,0.0,390.0,1.0,127.0
13,73.0,0.0,390.0,10.0,127.0
14,65.0,0.0,390.0,1.0,127.0
15,68.0,0.0,390.0,4.0,127.0
16,58.0,0.0,390.0,6.0,127.0
17,61.0,0.0,780.0,10.0,127.0
18,73.0,1.0,1170.0,10.0,127.0
19,70.0,0.0,780.0,6.0,127.0
20,66.0,393.0,780.0,2.0,127.0
21,78.0,394.0,390.0,2.0,127.0
22,80.0,0.0,390.0,4.0,127.0
23,56.0,0.0,390.0,4.0,127.0
24,82.0,394.0,390.0,6.0,127.0
25,54.0,0.0,390.0,2.0,127.0
26,61.0,0.0,390.0,10.0,127.0
27,61.0,0.0,780.0,10.0,127.0
28,68.0,394.0,780.0,4.0,127.0
29,77.0,394.0,390.0,1.0,127.0
30,73.0,0.0,390.0,10.0,127.0
31,73.0,0.0,390.0,10.0,127.0
32,58.0,0.0,390.0,6.0,127.0
33,61.0,0.0,390.0,10.0,127.0
34,70.0,0.0,390.0,6.0,127.0
35,78.0,0.0,390.0,2.0,127.0
36,66.0,394.0,390.0,2.0,127.0
37,73.0,0.0,390.0,10.0,127.0
38,59.0,0.0,390.0,7.0,127.0
39,63.0,1.0,1170.0,12.0,127.0
40,75.0,394.0,390.0,12.0,127.0
41,66.0,0.0,1170.0,2.0,127.0
42,71.0,0.0,390.0,7.0,127.0
43,73.0,393.0,390.0,10.0,127.0
44,58.0,0.0,390.0,6.0,127.0
45,71.0,394.0,390.0,7.0,127.0
46,56.0,0.0,390.0,4.0,127.0
47,73.0,394.0,390.0,10.0,127.0
48,66.0,1.0,1170.0,2.0,127.0
49,58.0,0.0,390.0,6.0,127.0
50,61.0,0.0,1170.0,10.0,127.0
51,71.0,0.0,390.0,7.0,127.0
52,56.0,393.0,390.0,4.0,127.0
53,70.0,197.0,390.0,6.0,127.0
54,54.0,0.0,390.0,2.0,127.0
55,66.0,3.0,390.0,2.0,127.0
56,75.0,194.0,210.0,12.0,127.0
57,59.0,132.0,390.0,7.0,127.0
58,56.0,1.0,780.0,4.0,127.0
59,47.0,0.0,390.0,7.0,127.0
60,68.0,0.0,210.0,4.0,127.0
61,65.0,197.0,600.0,1.0,127.0
62,70.0,66.0,120.0,6.0,127.0
63,49.0,788.0,780.0,10.0,127.0
64,68.0,66.0,60.0,4.0,127.0
65,70.0,66.0,60.0,6.0,127.0
66,68.0,65.0,60.0,4.0,127.0
67,70.0,195.0,60.0,6.0,127.0
68,59.0,0.0,390.0,7.0,127.0
69,68.0,1.0,180.0,4.0,127.0
70,66.0,0.0,210.0,2.0,127.0
71,58.0,0.0,780.0,6.0,127.0
72,54.0,0.0,780.0,2.0,127.0
73,61.0,197.0,780.0,10.0,127.0
74,66.0,0.0,780.0,2.0,127.0
75,73.0,0.0,390.0,10.0,127.0
76,82.0,197.0,210.0,6.0,127.0
77,80.0,394.0,210.0,4.0,127.0
78,80.0,394.0,390.0,4.0,127.0
79,73.0,395.0,1170.0,10.0,127.0
80,61.0,197.0,390.0,10.0,127.0
81,70.0,197.0,210.0,6.0,127.0
82,68.0,393.0,210.0,4.0,127.0
83,68.0,394.0,780.0,4.0,127.0
84,61.0,0.0,390.0,10.0,127.0
85,77.0,394.0,390.0,1.0,127.0
86,73.0,0.0,390.0,10.0,127.0
87,71.0,0.0,390.0,7.0,127.0
88,70.0,0.0,390.0,6.0,127.0
89,75.0,0.0,390.0,12.0,127.0
90,78.0,394.0,390.0,2.0,127.0
91,73.0,0.0,390.0,10.0,127.0
92,80.0,0.0,390.0,4.0,127.0
93,71.0,394.0,390.0,7.0,127.0
94,77.0,0.0,390.0,1.0,127.0
95,68.0,0.0,390.0,4.0,127.0
96,82.0,394.0,390.0,6.0,127.0
97,78.0,0.0,390.0,2.0,127.0
98,73.0,0.0,390.0,10.0,127.0
99,66.0,0.0,390.0,2.0,127.0
100,61.0,394.0,780.0,10.0,127.0
101,68.0,0.0,780.0,4.0,127.0
102,77.0,394.0,390.0,1.0,127.0
103,73.0,0.0,390.0,10.0,127.0
104,65.0,0.0,390.0,1.0,127.0
105,73.0,0.0,390.0,10.0,127.0
106,58.0,0.0,390.0,6.0,127.0
107,61.0,0.0,390.0,10.0,127.0
108,73.0,0.0,390.0,10.0,127.0
109,78.0,0.0,390.0,2.0,127.0
110,66.0,394.0,390.0,2.0,127.0
111,70.0,0.0,390.0,6.0,127.0
112,71.0,0.0,390.0,7.0,127.0
113,66.0,0.0,780.0,2.0,127.0
114,75.0,394.0,390.0,12.0,127.0
115,59.0,0.0,390.0,7.0,127.0
116,70.0,0.0,390.0,6.0,127.0
117,73.0,394.0,390.0,10.0,127.0
118,61.0,0.0,390.0,10.0,127.0
119,71.0,394.0,390.0,7.0,127.0
120,68.0,0.0,390.0,4.0,127.0
121,63.0,0.0,390.0,12.0,127.0
122,58.0,0.0,390.0,6.0,127.0
123,70.0,0.0,390.0,6.0,127.0
124,73.0,394.0,390.0,10.0,127.0
125,66.0,0.0,780.0,2.0,127.0
126,71.0,0.0,390.0,7.0,127.0
127,68.0,394.0,390.0,4.0,127.0
128,59.0,0.0,390.0,7.0,127.0
129,66.0,0.0,390.0,2.0,127.0
130,70.0,197.0,390.0,6.0,127.0
131,61.0,0.0,390.0,10.0,127.0
132,66.0,197.0,780.0,2.0,127.0
133,75.0,197.0,210.0,12.0,127.0
134,59.0,197.0,390.0,7.0,127.0
135,68.0,0.0,210.0,4.0,127.0
136,68.0,197.0,210.0,4.0,127.0
137,61.0,0.0,780.0,10.0,127.0
138,70.0,0.0,210.0,6.0,127.0
139,65.0,3.0,390.0,1.0,127.0
140,71.0,194.0,210.0,7.0,127.0
141,73.0,394.0,210.0,10.0,127.0
142,70.0,0.0,390.0,6.0,127.0
143,66.0,197.0,390.0,2.0,127.0
144,66.0,197.0,210.0,2.0,127.0
145,63.0,394.0,780.0,12.0,127.0
146,68.0,197.0,210.0,4.0,127.0
147,70.0,194.0,210.0,6.0,127.0
148,66.0,3.0,390.0,2.0,127.0
149,71.0,0.0,210.0,7.0,127.0
150,73.0,0.0,390.0,10.0,127.0
151,68.0,0.0,390.0,4.0,127.0
152,70.0,394.0,390.0,6.0,127.0
153,65.0,0.0,390.0,1.0,127.0
154,66.0,394.0,390.0,2.0,127.0
155,72.0,0.0,390.0,8.0,127.0
156,75.0,0.0,390.0,12.0,127.0
157,63.0,0.0,390.0,12.0,127.0
158,61.0,0.0,390.0,10.0,127.0
159,68.0,0.0,390.0,4.0,127.0
160,65.0,0.0,390.0,1.0,127.0
161,73.0,394.0,390.0,10.0,127.0
162,77.0,0.0,390.0,1.0,127.0
163,78.0,0.0,390.0,2.0,127.0
164,68.0,0.0,780.0,4.0,127.0
165,75.0,0.0,780.0,12.0,127.0
166,63.0,197.0,780.0,12.0,127.0
167,60.0,197.0,390.0,8.0,127.0
168,80.0,197.0,210.0,4.0,127.0
169,56.0,0.0,390.0,4.0,127.0
170,78.0,0.0,210.0,2.0,127.0
171,77.0,194.0,210.0,1.0,127.0
172,68.0,3.0,390.0,4.0,127.0
173,73.0,0.0,390.0,10.0,127.0
174,61.0,197.0,390.0,10.0,127.0
175,78.0,0.0,210.0,2.0,127.0
176,75.0,0.0,210.0,12.0,127.0
177,70.0,3.0,390.0,6.0,127.0
178,66.0,194.0,210.0,2.0,127.0
179,54.0,0.0,390.0,2.0,127.0
180,65.0,0.0,210.0,1.0,127.0
181,73.0,132.0,210.0,10.0,127.0
182,73.0,66.0,120.0,10.0,127.0
183,68.0,0.0,780.0,4.0,127.0
184,56.0,0.0,780.0,4.0,127.0
185,63.0,1.0,390.0,12.0,127.0
186,72.0,66.0,60.0,8.0,127.0
187,73.0,66.0,60.0,10.0,127.0
188,72.0,65.0,60.0,8.0,127.0
189,73.0,195.0,60.0,10.0,127.0
190,72.0,198.0,180.0,8.0,127.0
191,66.0,0.0,390.0,2.0,127.0
192,73.0,394.0,210.0,10.0,127.0
193,68.0,394.0,390.0,4.0,127.0
194,73.0,16.0,780.0,10.0,127.0
195,65.0,0.0,780.0,1.0,127.0
196,61.0,0.0,780.0,10.0,127.0
197,80.0,0.0,390.0,4.0,127.0
198,77.0,394.0,390.0,1.0,127.0
199,78.0,788.0,390.0,2.0,127.0
200,82.0,0.0,390.0,6.0,127.0
201,83.0,1.0,1170.0,7.0,127.0
202,80.0,0.0,1170.0,4.0,127.0
203,71.0,393.0,390.0,7.0,127.0
204,68.0,0.0,390.0,4.0,127.0
205,73.0,0.0,390.0,10.0,127.0
206,70.0,394.0,390.0,6.0,127.0
207,71.0,394.0,390.0,7.0,127.0
208,75.0,0.0,390.0,12.0,127.0
209,70.0,0.0,390.0,6.0,127.0
210,73.0,394.0,390.0,10.0,127.0
211,75.0,0.0,390.0,12.0,127.0
212,78.0,0.0,390.0,2.0,127.0
213,68.0,394.0,390.0,4.0,127.0
214,71.0,0.0,390.0,7.0,127.0
215,77.0,0.0,390.0,1.0,127.0
216,80.0,0.0,390.0,4.0,127.0
217,82.0,394.0,390.0,6.0,127.0
218,78.0,0.0,1170.0,2.0,127.0
219,73.0,1.0,1170.0,10.0,127.0
220,66.0,0.0,390.0,2.0,127.0
221,83.0,393.0,390.0,7.0,127.0
222,68.0,0.0,390.0,4.0,127.0
223,85.0,0.0,390.0,10.0,127.0
224,70.0,197.0,390.0,6.0,127.0
225,71.0,165.0,390.0,7.0,127.0
226,87.0,0.0,210.0,12.0,127.0
227,83.0,197.0,210.0,7.0,127.0
228,82.0,0.0,210.0,6.0,127.0
229,85.0,0.0,210.0,10.0,127.0
230,65.0,194.0,390.0,1.0,127.0
231,80.0,197.0,600.0,4.0,127.0
232,82.0,229.0,60.0,6.0,127.0
233,83.0,3.0,390.0,7.0,127.0
234,66.0,394.0,390.0,2.0,127.0
235,78.0,0.0,210.0,2.0,127.0
236,82.0,0.0,210.0,6.0,127.0
237,59.0,197.0,390.0,7.0,127.0
238,80.0,197.0,600.0,4.0,127.0
239,78.0,197.0,780.0,2.0,127.0
240,56.0,0.0,390.0,4.0,127.0
241,82.0,0.0,210.0,6.0,127.0
242,61.0,197.0,390.0,10.0,127.0
243,77.0,3.0,390.0,1.0,127.0
244,83.0,194.0,210.0,7.0,127.0
245,85.0,0.0,210.0,10.0,127.0
246,78.0,1.0,780.0,2.0,127.0
247,66.0,197.0,210.0,2.0,127.0
248,82.0,0.0,210.0,6.0,127.0
249,59.0,132.0,210.0,7.0,127.0
250,83.0,0.0,210.0,7.0,127.0
251,61.0,0.0,390.0,10.0,127.0
252,82.0,66.0,120.0,6.0,127.0
253,80.0,66.0,60.0,4.0,127.0
254,82.0,66.0,60.0,6.0,127.0
255,80.0,65.0,60.0,4.0,127.0
256,82.0,195.0,60.0,6.0,127.0
257,80.0,195.0,180.0,4.0,127.0
258,77.0,3.0,390.0,1.0,127.0
259,49.0,370.0,390.0,10.0,127.0
260,78.0,0.0,210.0,2.0,127.0
261,54.0,21.0,360.0,2.0,127.0
262,73.0,0.0,390.0,10.0,127.0
263,78.0,3.0,390.0,2.0,127.0
264,70.0,607.0,390.0,6.0,127.0
265,70.0,1.0,1170.0,6.0,127.0
266,78.0,197.0,210.0,2.0,127.0
267,77.0,393.0,210.0,1.0,127.0
268,77.0,394.0,390.0,1.0,127.0
269,58.0,197.0,390.0,6.0,127.0
270,70.0,1.0,1170.0,6.0,127.0
271,66.0,197.0,210.0,2.0,127.0
272,75.0,0.0,210.0,12.0,127.0
273,65.0,0.0,210.0,1.0,127.0
274,74.0,393.0,210.0,11.0,127.0
275,74.0,197.0,390.0,11.0,127.0
276,65.0,0.0,390.0,1.0,127.0
277,66.0,0.0,210.0,2.0,127.0
278,75.0,197.0,210.0,12.0,127.0
279,74.0,197.0,210.0,11.0,127.0
280,68.0,0.0,210.0,4.0,127.0
281,75.0,0.0,210.0,12.0,127.0
282,66.0,197.0,210.0,2.0,127.0
283,77.0,394.0,210.0,1.0,127.0
284,65.0,0.0,210.0,1.0,127.0
285,78.0,394.0,390.0,2.0,127.0
286,63.0,197.0,780.0,12.0,127.0
287,75.0,0.0,390.0,12.0,127.0
288,66.0,394.0,390.0,2.0,127.0
289,83.0,197.0,210.0,7.0,127.0
290,63.0,394.0,780.0,12.0,127.0
291,82.0,0.0,210.0,6.0,127.0
292,82.0,0.0,390.0,6.0,127.0
293,65.0,0.0,780.0,1.0,127.0
294,77.0,0.0,390.0,1.0,127.0
295,62.0,394.0,390.0,11.0,127.0
296,78.0,197.0,390.0,2.0,127.0
297,63.0,1.0,1170.0,12.0,127.0
298,80.0,98.0,210.0,4.0,127.0
299,56.0,98.0,390.0,4.0,127.0
300,82.0,98.0,90.0,6.0,127.0
301,83.0,0.0,90.0,7.0,127.0
302,58.0,412.0,780.0,6.0,127.0
303,80.0,98.0,90.0,4.0,127.0
304,78.0,98.0,90.0,2.0,127.0
305,80.0,97.0,90.0,4.0,127.0
306,78.0,197.0,90.0,2.0,127.0
307,77.0,0.0,210.0,1.0,127.0
308,62.0,197.0,210.0,11.0,127.0
309,75.0,0.0,210.0,12.0,127.0
310,63.0,0.0,210.0,12.0,127.0
311,75.0,44.0,780.0,12.0,127.0
312,51.0,335.0,450.0,12.0,127.0
313,63.0,29.0,420.0,12.0,127.0
314,66.0,197.0,390.0,2.0,127.0
315,70.0,0.0,390.0,6.0,127.0
316,63.0,0.0,390.0,12.0,127.0
317,70.0,0.0,780.0,6.0,127.0
318,78.0,197.0,210.0,2.0,127.0
319,51.0,394.0,390.0,12.0,127.0
320,63.0,394.0,780.0,12.0,127.0
321,77.0,0.0,210.0,1.0,127.0
322,58.0,0.0,780.0,6.0,127.0
323,77.0,0.0,390.0,1.0,127.0
324,70.0,394.0,390.0,6.0,127.0
325,62.0,0.0,390.0,11.0,127.0
326,74.0,0.0,390.0,11.0,127.0
327,70.0,0.0,390.0,6.0,127.0
328,65.0,394.0,390.0,1.0,127.0
329,56.0,0.0,390.0,4.0,127.0
330,70.0,5.0,1560.0,6.0,127.0
331,54.0,0.0,390.0,2.0,127.0
332,63.0,1.0,1170.0,12.0,127.0
333,75.0,394.0,390.0,12.0,127.0
334,77.0,0.0,390.0,1.0,127.0
335,53.0,393.0,390.0,1.0,127.0
336,51.0,389.0,390.0,12.0,127.0
337,78.0,0.0,390.0,2.0,127.0
338,74.0,394.0,390.0,11.0,127.0
339,58.0,0.0,780.0,6.0,127.0
340,65.0,410.0,780.0,1.0,127.0
341,70.0,0.0,390.0,6.0,127.0
342,67.0,1.0,390.0,3.0,127.0
343,70.0,0.0,390.0,6.0,127.0
344,87.0,0.0,390.0,12.0,127.0
345,82.0,393.0,390.0,6.0,127.0
346,75.0,0.0,15.0,12.0,127.0
347,80.0,0.0,390.0,4.0,127.0
348,83.0,0.0,390.0,7.0,127.0
349,71.0,0.0,390.0,7.0,127.0
350,68.0,394.0,390.0,4.0,127.0
351,70.0,0.0,390.0,6.0,127.0
352,78.0,0.0,390.0,2.0,127.0
353,82.0,394.0,390.0,6.0,127.0
354,71.0,394.0,390.0,7.0,127.0
355,77.0,0.0,390.0,1.0,127.0
356,80.0,0.0,390.0,4.0,127.0
357,77.0,0.0,780.0,1.0,127.0
358,70.0,394.0,780.0,6.0,127.0
359,62.0,0.0,780.0,11.0,127.0
360,82.0,394.0,390.0,6.0,127.0
361,80.0,0.0,390.0,4.0,127.0
362,63.0,0.0,390.0,12.0,127.0
363,66.0,0.0,390.0,2.0,127.0
364,70.0,197.0,390.0,6.0,127.0
365,78.0,0.0,390.0,2.0,127.0
366,75.0,132.0,780.0,12.0,127.0
367,56.0,0.0,390.0,4.0,127.0
368,65.0,1.0,780.0,1.0,127.0
369,83.0,197.0,210.0,7.0,127.0
370,77.0,0.0,210.0,1.0,127.0
371,58.0,0.0,780.0,6.0,127.0
372,74.0,0.0,780.0,11.0,127.0
373,78.0,66.0,120.0,2.0,127.0
374,77.0,66.0,60.0,1.0,127.0
375,78.0,66.0,60.0,2.0,127.0
376,77.0,65.0,60.0,1.0,127.0
377,78.0,195.0,60.0,2.0,127.0
378,68.0,0.0,390.0,4.0,127.0
379,77.0,198.0,180.0,1.0,127.0
380,75.0,391.0,210.0,12.0,127.0
381,63.0,229.0,780.0,12.0,127.0
382,66.0,3.0,390.0,2.0,127.0
383,75.0,394.0,390.0,12.0,127.0
384,70.0,0.0,390.0,6.0,127.0
385,66.0,4.0,780.0,2.0,127.0
386,71.0,193.0,210.0,7.0,127.0
387,70.0,394.0,210.0,6.0,127.0
388,70.0,394.0,390.0,6.0,127.0
389,54.0,394.0,780.0,2.0,127.0
390,61.0,197.0,390.0,10.0,127.0
391,66.0,0.0,390.0,2.0,127.0
392,66.0,197.0,210.0,2.0,127.0
393,70.0,0.0,390.0,6.0,127.0
394,64.0,0.0,210.0,0.0,127.0
395,63.0,394.0,390.0,12.0,127.0
396,68.0,0.0,390.0,4.0,127.0
397,71.0,0.0,390.0,7.0,127.0
398,73.0,0.0,390.0,10.0,127.0
399,61.0,0.0,390.0,10.0,127.0
400,70.0,394.0,390.0,6.0,127.0
401,59.0,391.0,390.0,7.0,127.0
402,75.0,0.0,390.0,12.0,127.0
403,71.0,0.0,390.0,7.0,127.0
404,66.0,3.0,390.0,2.0,127.0
405,73.0,394.0,390.0,10.0,127.0
406,70.0,405.0,780.0,6.0,127.0
407,66.0,0.0,390.0,2.0,127.0
408,66.0,399.0,390.0,2.0,127.0
409,70.0,0.0,390.0,6.0,127.0
410,73.0,0.0,390.0,10.0,127.0
411,66.0,0.0,390.0,2.0,127.0
412,72.0,0.0,390.0,8.0,127.0
413,75.0,394.0,390.0,12.0,127.0
414,74.0,394.0,390.0,11.0,127.0
415,77.0,0.0,390.0,1.0,127.0
416,65.0,0.0,390.0,1.0,127.0
417,68.0,0.0,390.0,4.0,127.0
418,70.0,0.0,390.0,6.0,127.0
419,75.0,394.0,390.0,12.0,127.0
420,78.0,0.0,390.0,2.0,127.0
421,63.0,0.0,390.0,12.0,127.0
422,77.0,0.0,390.0,1.0,127.0
423,73.0,394.0,390.0,10.0,127.0
424,70.0,0.0,780.0,6.0,127.0
425,73.0,402.0,390.0,10.0,127.0
426,73.0,402.0,390.0,10.0,127.0
427,71.0,0.0,390.0,7.0,127.0
428,77.0,0.0,390.0,1.0,127.0
429,79.0,0.0,390.0,3.0,127.0
430,70.0,0.0,390.0,6.0,127.0
431,73.0,394.0,390.0,10.0,127.0
432,68.0,0.0,390.0,4.0,127.0
433,71.0,394.0,390.0,7.0,127.0
434,75.0,0.0,390.0,12.0,127.0
435,80.0,0.0,390.0,4.0,127.0
436,70.0,0.0,390.0,6.0,127.0
437,67.0,295.0,390.0,3.0,127.0
438,75.0,295.0,780.0,12.0,127.0
439,82.0,0.0,390.0,6.0,127.0
440,83.0,90.0,300.0,7.0,127.0
441,68.0,295.0,780.0,4.0,127.0
442,82.0,8.0,90.0,6.0,127.0
443,80.0,90.0,300.0,4.0,127.0
444,71.0,3.0,390.0,7.0,127.0
445,78.0,5.0,90.0,2.0,127.0
446,68.0,158.0,1170.0,4.0,127.0
447,76.0,90.0,300.0,0.0,127.0
448,61.0,67.0,780.0,10.0,127.0
449,75.0,303.0,90.0,12.0,127.0
450,73.0,90.0,300.0,10.0,127.0
451,71.0,8.0,90.0,7.0,127.0
452,71.0,66.0,60.0,7.0,127.0
453,63.0,591.0,780.0,12.0,127.0
454,70.0,66.0,60.0,6.0,127.0
455,71.0,195.0,60.0,7.0,127.0
456,70.0,229.0,360.0,6.0,127.0
457,67.0,3.0,390.0,3.0,127.0
458,68.0,5.0,210.0,4.0,127.0
459,68.0,0.0,780.0,4.0,127.0
460,56.0,0.0,780.0,4.0,127.0
461,59.0,197.0,600.0,7.0,127.0
462,63.0,16.0,780.0,12.0,127.0
463,75.0,213.0,390.0,12.0,127.0
464,83.0,197.0,210.0,7.0,127.0
465,82.0,394.0,210.0,6.0,127.0
466,82.0,394.0,390.0,6.0,127.0
467,75.0,125.0,1440.0,12.0,127.0
468,63.0,197.0,390.0,12.0,127.0
469,71.0,197.0,210.0,7.0,127.0
470,70.0,581.0,210.0,6.0,127.0
471,70.0,82.0,570.0,6.0,127.0
472,63.0,394.0,390.0,12.0,127.0
473,79.0,0.0,390.0,3.0,127.0
474,75.0,0.0,390.0,12.0,127.0
475,70.0,0.0,390.0,6.0,127.0
476,61.0,391.0,390.0,10.0,127.0
477,63.0,0.0,390.0,12.0,127.0
478,67.0,0.0,390.0,3.0,127.0
479,80.0,394.0,390.0,4.0,127.0
480,75.0,0.0,780.0,12.0,127.0
481,68.0,0.0,780.0,4.0,127.0
482,59.0,3.0,390.0,7.0,127.0
483,63.0,394.0,780.0,12.0,127.0
484,82.0,0.0,390.0,6.0,127.0
485,58.0,0.0,390.0,6.0,127.0
486,83.0,0.0,390.0,7.0,127.0
487,75.0,0.0,390.0,12.0,127.0
488,80.0,394.0,390.0,4.0,127.0
489,68.0,0.0,390.0,4.0,127.0
490,63.0,0.0,390.0,12.0,127.0
491,56.0,0.0,390.0,4.0,127.0
492,79.0,394.0,390.0,3.0,127.0
493,75.0,0.0,390.0,12.0,127.0
494,70.0,0.0,780.0,6.0,127.0
495,63.0,394.0,780.0,12.0,127.0
496,75.0,0.0,390.0,12.0,127.0
497,51.0,0.0,390.0,12.0,127.0
498,80.0,0.0,390.0,4.0,127.0
499,75.0,0.0,390.0,12.0,127.0
500,68.0,0.0,390.0,4.0,127.0
501,71.0,394.0,390.0,7.0,127.0
502,63.0,0.0,390.0,12.0,127.0
503,59.0,0.0,390.0,7.0,127.0
504,76.0,394.0,390.0,0.0,127.0
505,73.0,0.0,390.0,10.0,127.0
506,68.0,394.0,780.0,4.0,127.0
507,64.0,0.0,780.0,0.0,127.0
508,61.0,0.0,390.0,10.0,127.0
509,59.0,0.0,390.0,7.0,127.0
510,75.0,0.0,390.0,12.0,127.0
511,73.0,0.0,390.0,10.0,127.0
512,67.0,0.0,390.0,3.0,127.0
513,63.0,394.0,390.0,12.0,127.0
514,61.0,0.0,390.0,10.0,127.0
515,58.0,0.0,390.0,6.0,127.0
516,68.0,0.0,780.0,4.0,127.0
517,75.0,394.0,390.0,12.0,127.0
518,63.0,0.0,780.0,12.0,127.0
519,59.0,0.0,390.0,7.0,127.0
520,73.0,394.0,390.0,10.0,127.0
521,58.0,0.0,390.0,6.0,127.0
522,71.0,197.0,390.0,7.0,127.0
523,68.0,1.0,1170.0,4.0,127.0
524,63.0,0.0,390.0,12.0,127.0
525,56.0,0.0,390.0,4.0,127.0
526,76.0,197.0,210.0,0.0,127.0
527,61.0,1.0,780.0,10.0,127.0
528,58.0,0.0,780.0,6.0,127.0
529,49.0,0.0,390.0,10.0,127.0
530,70.0,132.0,210.0,6.0,127.0
531,71.0,66.0,120.0,7.0,127.0
532,51.0,394.0,780.0,12.0,127.0
533,70.0,66.0,60.0,6.0,127.0
534,71.0,66.0,60.0,7.0,127.0
535,70.0,64.0,60.0,6.0,127.0
536,71.0,195.0,60.0,7.0,127.0
537,67.0,3.0,390.0,3.0,127.0
538,61.0,0.0,390.0,10.0,127.0
539,70.0,195.0,180.0,6.0,127.0
540,68.0,0.0,210.0,4.0,127.0
541,56.0,0.0,780.0,4.0,127.0
542,68.0,0.0,390.0,4.0,127.0
543,63.0,394.0,390.0,12.0,127.0
544,59.0,16.0,780.0,7.0,127.0
545,80.0,394.0,390.0,4.0,127.0
546,71.0,0.0,390.0,7.0,127.0
547,73.0,804.0,390.0,10.0,127.0
548,82.0,0.0,390.0,6.0,127.0
549,75.0,0.0,1170.0,12.0,127.0
550,83.0,17.0,1170.0,7.0,127.0
551,71.0,0.0,390.0,7.0,127.0
552,68.0,377.0,390.0,4.0,127.0
553,73.0,394.0,390.0,10.0,127.0
554,70.0,0.0,390.0,6.0,127.0
555,75.0,0.0,390.0,12.0,127.0
556,71.0,410.0,390.0,7.0,127.0
557,80.0,0.0,390.0,4.0,127.0
558,71.0,394.0,390.0,7.0,127.0
559,75.0,0.0,390.0,12.0,127.0
560,87.0,0.0,390.0,12.0,127.0
561,75.0,0.0,390.0,12.0,127.0
562,70.0,394.0,390.0,6.0,127.0
563,73.0,0.0,390.0,10.0,127.0
564,79.0,0.0,390.0,3.0,127.0
565,75.0,394.0,780.0,12.0,127.0
566,71.0,0.0,390.0,7.0,127.0
567,68.0,394.0,390.0,4.0,127.0
568,80.0,0.0,390.0,4.0,127.0
569,70.0,0.0,390.0,6.0,127.0
570,67.0,0.0,390.0,3.0,127.0
571,82.0,0.0,390.0,6.0,127.0
572,68.0,0.0,390.0,4.0,127.0
573,83.0,0.0,390.0,7.0,127.0
574,75.0,394.0,390.0,12.0,127.0
575,70.0,394.0,390.0,6.0,127.0
576,63.0,0.0,780.0,12.0,127.0
577,79.0,0.0,390.0,3.0,127.0
578,75.0,0.0,390.0,12.0,127.0
579,67.0,0.0,390.0,3.0,127.0
580,70.0,0.0,390.0,6.0,127.0
581,75.0,394.0,390.0,12.0,127.0
582,63.0,0.0,390.0,12.0,127.0
583,61.0,394.0,390.0,10.0,127.0
584,67.0,0.0,390.0,3.0,127.0
585,59.0,0.0,390.0,7.0,127.0
586,63.0,0.0,390.0,12.0,127.0
587,68.0,394.0,390.0,4.0,127.0
588,65.0,0.0,390.0,1.0,127.0
589,58.0,394.0,390.0,6.0,127.0
590,61.0,0.0,390.0,10.0,127.0
591,67.0,0.0,390.0,3.0,127.0
592,70.0,0.0,390.0,6.0,127.0
593,68.0,394.0,390.0,4.0,127.0
594,71.0,0.0,390.0,7.0,127.0
595,63.0,0.0,390.0,12.0,127.0
596,56.0,0.0,390.0,4.0,127.0
597,55.0,197.0,390.0,3.0,127.0
598,63.0,197.0,780.0,12.0,127.0
599,73.0,197.0,600.0,10.0,127.0
600,70.0,0.0,780.0,6.0,127.0
601,51.0,0.0,390.0,12.0,127.0
602,75.0,0.0,210.0,12.0,127.0
603,56.0,0.0,390.0,4.0,127.0
604,63.0,197.0,390.0,12.0,127.0
605,71.0,197.0,210.0,7.0,127.0
606,68.0,68.0,780.0,4.0,127.0
607,70.0,0.0,210.0,6.0,127.0
608,64.0,0.0,390.0,0.0,127.0
609,49.0,0.0,390.0,10.0,127.0
610,71.0,197.0,210.0,7.0,127.0
611,56.0,0.0,390.0,4.0,127.0
612,73.0,0.0,210.0,10.0,127.0
613,67.0,185.0,600.0,3.0,127.0
614,71.0,66.0,60.0,7.0,127.0
615,51.0,394.0,780.0,12.0,127.0
616,63.0,161.0,390.0,12.0,127.0
617,70.0,66.0,60.0,6.0,127.0
618,71.0,66.0,60.0,7.0,127.0
619,70.0,66.0,60.0,6.0,127.0
620,71.0,64.0,60.0,7.0,127.0
621,70.0,36.0,240.0,6.0,127.0
622,61.0,0.0,390.0,10.0,127.0
623,68.0,12.0,180.0,4.0,127.0
624,59.0,32.0,780.0,7.0,127.0
625,56.0,0.0,780.0,4.0,127.0
626,63.0,87.0,390.0,12.0,127.0
627,68.0,307.0,480.0,4.0,127.0
628,80.0,0.0,390.0,4.0,127.0
629,75.0,0.0,390.0,12.0,127.0
630,71.0,394.0,390.0,7.0,127.0
631,70.0,0.0,390.0,6.0,127.0
632,78.0,0.0,390.0,2.0,127.0
633,73.0,394.0,390.0,10.0,127.0
634,71.0,0.0,390.0,7.0,127.0
635,76.0,0.0,390.0,0.0,127.0
636,68.0,394.0,390.0,4.0,127.0
637,73.0,0.0,390.0,10.0,127.0
638,70.0,0.0,390.0,6.0,127.0
639,78.0,394.0,390.0,2.0,127.0
640,80.0,0.0,390.0,4.0,127.0
641,71.0,394.0,390.0,7.0,127.0
642,75.0,0.0,390.0,12.0,127.0
643,76.0,0.0,390.0,0.0,127.0
644,73.0,0.0,390.0,10.0,127.0
645,82.0,394.0,390.0,6.0,127.0
646,83.0,0.0,390.0,7.0,127.0
647,75.0,394.0,390.0,12.0,127.0
648,78.0,0.0,390.0,2.0,127.0
649,82.0,0.0,390.0,6.0,127.0
650,73.0,394.0,390.0,10.0,127.0
651,76.0,0.0,390.0,0.0,127.0
652,87.0,194.0,600.0,12.0,127.0
653,71.0,1.0,1170.0,7.0,127.0
654,78.0,197.0,390.0,2.0,127.0
655,76.0,3.0,390.0,0.0,127.0
656,85.0,197.0,210.0,10.0,127.0
657,75.0,197.0,600.0,12.0,127.0
658,83.0,196.0,210.0,7.0,127.0
659,82.0,197.0,210.0,6.0,127.0
660,64.0,0.0,390.0,0.0,127.0
661,80.0,0.0,210.0,4.0,127.0
662,82.0,0.0,210.0,6.0,127.0
663,73.0,78.0,210.0,10.0,127.0
664,66.0,394.0,780.0,2.0,127.0
665,73.0,161.0,390.0,10.0,127.0
666,83.0,77.0,90.0,7.0,127.0
667,82.0,67.0,90.0,6.0,127.0
668,83.0,172.0,90.0,7.0,127.0
669,82.0,230.0,330.0,6.0,127.0
670,76.0,3.0,390.0,0.0,127.0
671,83.0,0.0,210.0,7.0,127.0
672,78.0,0.0,390.0,2.0,127.0
673,71.0,0.0,390.0,7.0,127.0
674,75.0,0.0,390.0,12.0,127.0
675,83.0,394.0,390.0,7.0,127.0
676,59.0,16.0,780.0,7.0,127.0
677,71.0,213.0,390.0,7.0,127.0
678,80.0,197.0,210.0,4.0,127.0
679,78.0,394.0,210.0,2.0,127.0
680,78.0,394.0,390.0,2.0,127.0
681,71.0,1.0,1170.0,7.0,127.0
682,59.0,197.0,390.0,7.0,127.0
683,68.0,197.0,210.0,4.0,127.0
684,66.0,393.0,210.0,2.0,127.0
685,66.0,394.0,390.0,2.0,127.0
686,59.0,394.0,390.0,7.0,127.0
687,73.0,394.0,390.0,10.0,127.0
688,64.0,0.0,390.0,0.0,127.0
689,66.0,0.0,390.0,2.0,127.0
690,70.0,0.0,390.0,6.0,127.0
691,63.0,0.0,390.0,12.0,127.0
692,66.0,394.0,390.0,2.0,127.0
693,71.0,0.0,390.0,7.0,127.0
694,75.0,0.0,390.0,12.0,127.0
695,64.0,394.0,390.0,0.0,127.0
696,61.0,0.0,390.0,10.0,127.0
697,73.0,0.0,390.0,10.0,127.0
698,76.0,0.0,390.0,0.0,127.0
699,78.0,394.0,390.0,2.0,127.0
700,75.0,0.0,390.0,12.0,127.0
701,63.0,0.0,390.0,12.0,127.0
702,59.0,0.0,390.0,7.0,127.0
703,61.0,197.0,390.0,10.0,127.0
704,64.0,0.0,390.0,0.0,127.0
705,70.0,197.0,600.0,6.0,127.0
706,59.0,0.0,390.0,7.0,127.0
707,63.0,197.0,390.0,12.0,127.0
708,71.0,0.0,210.0,7.0,127.0
709,58.0,0.0,390.0,6.0,127.0
710,61.0,0.0,390.0,10.0,127.0
711,73.0,197.0,210.0,10.0,127.0
712,75.0,197.0,210.0,12.0,127.0
713,71.0,197.0,210.0,7.0,127.0
714,59.0,197.0,390.0,7.0,127.0
715,63.0,0.0,390.0,12.0,127.0
716,66.0,0.0,210.0,2.0,127.0
717,52.0,391.0,780.0,0.0,127.0
718,64.0,197.0,390.0,0.0,127.0
719,68.0,197.0,210.0,4.0,127.0
720,70.0,0.0,210.0,6.0,127.0
721,63.0,0.0,390.0,12.0,127.0
722,71.0,197.0,210.0,7.0,127.0
723,73.0,0.0,210.0,10.0,127.0
724,70.0,197.0,390.0,6.0,127.0
725,61.0,3.0,390.0,10.0,127.0
726,54.0,197.0,600.0,2.0,127.0
727,66.0,205.0,390.0,2.0,127.0
728,64.0,0.0,210.0,0.0,127.0
729,63.0,197.0,210.0,12.0,127.0
730,73.0,0.0,390.0,10.0,127.0
731,70.0,0.0,390.0,6.0,127.0
732,61.0,394.0,210.0,10.0,127.0
733,59.0,197.0,600.0,7.0,127.0
734,75.0,197.0,390.0,12.0,127.0
735,71.0,0.0,390.0,7.0,127.0
736,76.0,394.0,390.0,0.0,127.0
737,73.0,0.0,390.0,10.0,127.0
738,75.0,0.0,390.0,12.0,127.0
739,57.0,0.0,390.0,5.0,127.0
740,78.0,394.0,390.0,2.0,127.0
741,76.0,0.0,390.0,0.0,127.0
742,56.0,197.0,390.0,4.0,127.0
743,80.0,194.0,600.0,4.0,127.0
744,58.0,197.0,390.0,6.0,127.0
745,73.0,3.0,390.0,10.0,127.0
746,78.0,0.0,210.0,2.0,127.0
747,66.0,197.0,390.0,2.0,127.0
748,76.0,197.0,210.0,0.0,127.0
749,71.0,1.0,1170.0,7.0,127.0
750,59.0,0.0,390.0,7.0,127.0
751,75.0,0.0,210.0,12.0,127.0
752,75.0,197.0,210.0,12.0,127.0
753,68.0,67.0,390.0,4.0,127.0
754,52.0,0.0,390.0,0.0,127.0
755,76.0,0.0,210.0,0.0,127.0
756,54.0,0.0,780.0,2.0,127.0
757,61.0,161.0,390.0,10.0,127.0
758,75.0,72.0,60.0,12.0,127.0
759,73.0,72.0,60.0,10.0,127.0
760,75.0,182.0,60.0,12.0,127.0
761,73.0,230.0,330.0,10.0,127.0
762,66.0,0.0,390.0,2.0,127.0
763,70.0,3.0,390.0,6.0,127.0
764,71.0,394.0,210.0,7.0,127.0
765,71.0,394.0,390.0,7.0,127.0
766,47.0,16.0,780.0,7.0,127.0
767,63.0,0.0,780.0,12.0,127.0
768,66.0,0.0,780.0,2.0,127.0
769,75.0,197.0,390.0,12.0,127.0
770,80.0,197.0,210.0,4.0,127.0
771,78.0,394.0,210.0,2.0,127.0
772,76.0,394.0,390.0,0.0,127.0
773,73.0,197.0,390.0,10.0,127.0
774,61.0,197.0,600.0,10.0,127.0
775,73.0,0.0,210.0,10.0,127.0
776,71.0,394.0,210.0,7.0,127.0
777,70.0,197.0,390.0,6.0,127.0
778,78.0,197.0,210.0,2.0,127.0
779,66.0,197.0,600.0,2.0,127.0
780,76.0,197.0,210.0,0.0,127.0
781,75.0,0.0,210.0,12.0,127.0
782,73.0,394.0,210.0,10.0,127.0
783,71.0,391.0,390.0,7.0,127.0
784,68.0,3.0,390.0,4.0,127.0
785,66.0,197.0,210.0,2.0,127.0
786,73.0,197.0,600.0,10.0,127.0
787,64.0,197.0,210.0,0.0,127.0
788,63.0,197.0,210.0,12.0,127.0
789,61.0,196.0,390.0,10.0,127.0
790,75.0,0.0,210.0,12.0,127.0
791,63.0,194.0,390.0,12.0,127.0
792,73.0,198.0,180.0,10.0,127.0
793,56.0,0.0,780.0,4.0,127.0
794,72.0,3.0,390.0,8.0,127.0
795,68.0,197.0,210.0,4.0,127.0
796,66.0,394.0,210.0,2.0,127.0
797,73.0,0.0,210.0,10.0,127.0
798,73.0,394.0,390.0,10.0,127.0
799,61.0,0.0,780.0,10.0,127.0
800,65.0,0.0,780.0,1.0,127.0
801,77.0,394.0,390.0,1.0,127.0
802,80.0,0.0,390.0,4.0,127.0
803,78.0,394.0,390.0,2.0,127.0
804,82.0,0.0,390.0,6.0,127.0
805,80.0,394.0,390.0,4.0,127.0
806,77.0,0.0,390.0,1.0,127.0
807,65.0,0.0,390.0,1.0,127.0
808,73.0,394.0,1170.0,10.0,127.0
809,61.0,394.0,390.0,10.0,127.0
810,66.0,394.0,390.0,2.0,127.0
811,63.0,0.0,390.0,12.0,127.0
812,65.0,0.0,780.0,1.0,127.0
813,68.0,0.0,780.0,4.0,127.0
814,73.0,394.0,390.0,10.0,127.0
815,70.0,0.0,390.0,6.0,127.0
816,72.0,0.0,390.0,8.0,127.0
817,66.0,0.0,390.0,2.0,127.0
818,63.0,0.0,390.0,12.0,127.0
819,75.0,394.0,390.0,12.0,127.0
820,68.0,0.0,780.0,4.0,127.0
821,73.0,394.0,780.0,10.0,127.0
822,77.0,0.0,780.0,1.0,127.0
823,61.0,394.0,390.0,10.0,127.0
824,60.0,0.0,390.0,8.0,127.0
825,58.0,0.0,390.0,6.0,127.0
826,78.0,194.0,600.0,2.0,127.0
827,73.0,0.0,390.0,10.0,127.0
828,70.0,197.0,390.0,6.0,127.0
829,75.0,3.0,390.0,12.0,127.0
830,68.0,141.0,390.0,4.0,127.0
831,60.0,0.0,390.0,8.0,127.0
832,80.0,0.0,210.0,4.0,127.0
833,61.0,7.0,390.0,10.0,127.0
834,68.0,0.0,780.0,4.0,127.0
835,73.0,197.0,600.0,10.0,127.0
836,78.0,94.0,150.0,2.0,127.0
837,77.0,82.0,90.0,1.0,127.0
838,78.0,75.0,90.0,2.0,127.0
839,77.0,74.0,90.0,1.0,127.0
840,78.0,110.0,90.0,2.0,127.0
841,49.0,394.0,390.0,10.0,127.0
842,77.0,5.0,120.0,1.0,127.0
843,75.0,0.0,210.0,12.0,127.0
844,56.0,0.0,780.0,4.0,127.0
845,75.0,0.0,390.0,12.0,127.0
846,72.0,394.0,390.0,8.0,127.0
847,68.0,0.0,780.0,4.0,127.0
848,72.0,410.0,390.0,8.0,127.0
849,80.0,0.0,390.0,4.0,127.0
850,73.0,394.0,390.0,10.0,127.0
851,82.0,0.0,390.0,6.0,127.0
852,84.0,0.0,390.0,8.0,127.0
853,75.0,394.0,390.0,12.0,127.0
854,66.0,394.0,390.0,2.0,127.0
855,72.0,0.0,390.0,8.0,127.0
856,75.0,0.0,390.0,12.0,127.0
857,82.0,0.0,390.0,6.0,127.0
858,80.0,0.0,390.0,4.0,127.0
859,65.0,0.0,390.0,1.0,127.0
860,73.0,394.0,390.0,10.0,127.0
861,77.0,0.0,390.0,1.0,127.0
862,66.0,0.0,390.0,2.0,127.0
863,70.0,394.0,780.0,6.0,127.0
864,73.0,0.0,780.0,10.0,127.0
865,82.0,394.0,390.0,6.0,127.0
866,65.0,0.0,390.0,1.0,127.0
867,80.0,0.0,390.0,4.0,127.0
868,70.0,0.0,390.0,6.0,127.0
869,63.0,0.0,390.0,12.0,127.0
870,78.0,394.0,390.0,2.0,127.0
871,75.0,197.0,780.0,12.0,127.0
872,80.0,194.0,600.0,4.0,127.0
873,65.0,197.0,780.0,1.0,127.0
874,68.0,0.0,780.0,4.0,127.0
875,73.0,3.0,390.0,10.0,127.0
876,82.0,0.0,210.0,6.0,127.0
877,75.0,3.0,390.0,12.0,127.0
878,80.0,194.0,210.0,4.0,127.0
879,68.0,0.0,390.0,4.0,127.0
880,60.0,591.0,390.0,8.0,127.0
881,78.0,0.0,210.0,2.0,127.0
882,77.0,194.0,600.0,1.0,127.0
883,61.0,197.0,780.0,10.0,127.0
884,68.0,0.0,780.0,4.0,127.0
885,73.0,3.0,390.0,10.0,127.0
886,78.0,0.0,210.0,2.0,127.0
887,57.0,0.0,390.0,5.0,127.0
888,65.0,394.0,390.0,1.0,127.0
889,72.0,3.0,390.0,8.0,127.0
890,77.0,194.0,210.0,1.0,127.0
891,78.0,0.0,210.0,2.0,127.0
892,65.0,0.0,780.0,1.0,127.0
893,58.0,197.0,390.0,6.0,127.0
894,73.0,0.0,390.0,10.0,127.0
895,77.0,194.0,600.0,1.0,127.0
896,57.0,197.0,390.0,5.0,127.0
897,72.0,3.0,390.0,8.0,127.0
898,78.0,0.0,210.0,2.0,127.0
899,77.0,194.0,210.0,1.0,127.0
900,55.0,394.0,390.0,3.0,127.0
901,67.0,0.0,390.0,3.0,127.0
902,70.0,3.0,390.0,6.0,127.0
903,78.0,0.0,210.0,2.0,127.0
904,77.0,194.0,600.0,1.0,127.0
905,72.0,0.0,390.0,8.0,127.0
906,57.0,197.0,390.0,5.0,127.0
907,65.0,0.0,780.0,1.0,127.0
908,53.0,197.0,390.0,1.0,127.0
909,69.0,3.0,390.0,5.0,127.0
910,75.0,0.0,210.0,12.0,127.0
911,70.0,194.0,210.0,6.0,127.0
912,73.0,0.0,210.0,10.0,127.0
913,65.0,3.0,390.0,1.0,127.0
914,58.0,204.0,1170.0,6.0,127.0
915,72.0,197.0,210.0,8.0,127.0
916,66.0,3.0,390.0,2.0,127.0
917,51.0,73.0,390.0,12.0,127.0
918,73.0,194.0,210.0,10.0,127.0
919,75.0,0.0,210.0,12.0,127.0
920,53.0,394.0,780.0,1.0,127.0
921,73.0,69.0,60.0,10.0,127.0
922,65.0,0.0,780.0,1.0,127.0
923,72.0,63.0,60.0,8.0,127.0
924,73.0,189.0,60.0,10.0,127.0
925,72.0,191.0,390.0,8.0,127.0
926,57.0,0.0,390.0,5.0,127.0
927,70.0,0.0,210.0,6.0,127.0
928,65.0,394.0,390.0,1.0,127.0
929,61.0,0.0,390.0,10.0,127.0
930,46.0,36.0,780.0,6.0,127.0
931,58.0,0.0,780.0,6.0,127.0
932,70.0,0.0,390.0,6.0,127.0
933,73.0,193.0,420.0,10.0,127.0
934,75.0,197.0,210.0,12.0,127.0
935,73.0,394.0,210.0,10.0,127.0
936,73.0,394.0,390.0,10.0,127.0
937,61.0,197.0,390.0,10.0,127.0
938,58.0,0.0,390.0,6.0,127.0
939,66.0,0.0,390.0,2.0,127.0
940,78.0,0.0,390.0,2.0,127.0
941,73.0,0.0,390.0,10.0,127.0
942,78.0,0.0,390.0,2.0,127.0
943,75.0,394.0,390.0,12.0,127.0
944,59.0,194.0,210.0,7.0,127.0
945,71.0,0.0,390.0,7.0,127.0
946,63.0,3.0,390.0,12.0,127.0
947,66.0,0.0,390.0,2.0,127.0
948,58.0,0.0,210.0,6.0,127.0
949,61.0,0.0,780.0,10.0,127.0
950,78.0,197.0,600.0,2.0,127.0
951,58.0,197.0,390.0,6.0,127.0
952,66.0,0.0,780.0,2.0,127.0
953,73.0,197.0,780.0,10.0,127.0
954,54.0,0.0,390.0,2.0,127.0
955,80.0,0.0,210.0,4.0,127.0
956,59.0,194.0,210.0,7.0,127.0
957,71.0,0.0,390.0,7.0,127.0
958,78.0,0.0,210.0,2.0,127.0
959,75.0,3.0,390.0,12.0,127.0
960,63.0,0.0,390.0,12.0,127.0
961,58.0,197.0,210.0,6.0,127.0
962,80.0,0.0,210.0,4.0,127.0
963,61.0,197.0,780.0,10.0,127.0
964,58.0,0.0,390.0,6.0,127.0
965,73.0,0.0,780.0,10.0,127.0
966,78.0,197.0,210.0,2.0,127.0
967,66.0,0.0,780.0,2.0,127.0
968,80.0,197.0,210.0,4.0,127.0
969,54.0,0.0,390.0,2.0,127.0
970,78.0,197.0,210.0,2.0,127.0
971,77.0,0.0,210.0,1.0,127.0
972,71.0,0.0,390.0,7.0,127.0
973,66.0,0.0,390.0,2.0,127.0
974,75.0,0.0,210.0,12.0,127.0
975,59.0,194.0,210.0,7.0,127.0
976,63.0,3.0,390.0,12.0,127.0
977,58.0,197.0,210.0,6.0,127.0
978,77.0,0.0,210.0,1.0,127.0
979,66.0,197.0,780.0,2.0,127.0
980,78.0,0.0,210.0,2.0,127.0
981,73.0,0.0,780.0,10.0,127.0
982,58.0,197.0,210.0,6.0,127.0
983,61.0,0.0,210.0,10.0,127.0
984,59.0,394.0,210.0,7.0,127.0
985,80.0,0.0,210.0,4.0,127.0
986,61.0,394.0,780.0,10.0,127.0
987,82.0,0.0,390.0,6.0,127.0
988,49.0,0.0,390.0,10.0,127.0
989,80.0,194.0,210.0,4.0,127.0
990,71.0,3.0,390.0,7.0,127.0
991,77.0,0.0,210.0,1.0,127.0
992,78.0,0.0,210.0,2.0,127.0
993,78.0,0.0,390.0,2.0,127.0
994,70.0,0.0,780.0,6.0,127.0
995,54.0,16.0,780.0,2.0,127.0
996,61.0,0.0,780.0,10.0,127.0
997,73.0,394.0,390.0,10.0,127.0
998,73.0,213.0,390.0,10.0,127.0
999,82.0,197.0,210.0,6.0,127.0
1000,80.0,394.0,210.0,4.0,127.0
1001,80.0,197.0,390.0,4.0,127.0
1002,61.0,197.0,210.0,10.0,127.0
1003,73.0,197.0,390.0,10.0,127.0
1004,68.0,0.0,390.0,4.0,127.0
1005,63.0,0.0,210.0,12.0,127.0
1006,73.0,0.0,210.0,10.0,127.0
1007,65.0,197.0,210.0,1.0,127.0
1008,61.0,788.0,210.0,10.0,127.0
1009,71.0,0.0,210.0,7.0,127.0
1010,66.0,0.0,780.0,2.0,127.0
1011,70.0,0.0,780.0,6.0,127.0
1012,73.0,197.0,390.0,10.0,127.0
1013,82.0,197.0,210.0,6.0,127.0
1014,80.0,197.0,210.0,4.0,127.0
1015,80.0,197.0,210.0,4.0,127.0
1016,78.0,197.0,210.0,2.0,127.0
1017,80.0,0.0,210.0,4.0,127.0
1018,75.0,194.0,210.0,12.0,127.0
1019,60.0,197.0,390.0,8.0,127.0
1020,68.0,3.0,390.0,4.0,127.0
1021,75.0,0.0,210.0,12.0,127.0
1022,72.0,3.0,390.0,8.0,127.0
1023,56.0,0.0,390.0,4.0,127.0
1024,63.0,0.0,390.0,12.0,127.0
1025,77.0,194.0,210.0,1.0,127.0
1026,78.0,197.0,210.0,2.0,127.0
1027,65.0,3.0,390.0,1.0,127.0
1028,61.0,194.0,210.0,10.0,127.0
1029,73.0,0.0,210.0,10.0,127.0
1030,77.0,0.0,210.0,1.0,127.0
1031,68.0,0.0,390.0,4.0,127.0
1032,75.0,0.0,210.0,12.0,127.0
1033,59.0,197.0,210.0,7.0,127.0
1034,58.0,194.0,210.0,6.0,127.0
1035,66.0,3.0,390.0,2.0,127.0
1036,73.0,0.0,390.0,10.0,127.0
1037,70.0,0.0,390.0,6.0,127.0
1038,56.0,197.0,210.0,4.0,127.0
1039,61.0,0.0,390.0,10.0,127.0
1040,54.0,197.0,390.0,2.0,127.0
1041,73.0,3.0,390.0,10.0,127.0
1042,70.0,0.0,390.0,6.0,127.0
1043,78.0,194.0,210.0,2.0,127.0
1044,77.0,0.0,210.0,1.0,127.0
1045,61.0,194.0,210.0,10.0,127.0
1046,65.0,3.0,390.0,1.0,127.0
1047,77.0,0.0,390.0,1.0,127.0
1048,68.0,0.0,390.0,4.0,127.0
1049,73.0,197.0,780.0,10.0,127.0
1050,59.0,197.0,210.0,7.0,127.0
1051,70.0,0.0,390.0,6.0,127.0
1052,66.0,3.0,390.0,2.0,127.0
1053,58.0,194.0,210.0,6.0,127.0
1054,56.0,0.0,210.0,4.0,127.0
1055,61.0,0.0,390.0,10.0,127.0
1056,54.0,0.0,390.0,2.0,127.0
1057,70.0,197.0,210.0,6.0,127.0
1058,66.0,0.0,210.0,2.0,127.0
1059,68.0,197.0,210.0,4.0,127.0
1060,65.0,0.0,210.0,1.0,127.0
1061,61.0,197.0,210.0,10.0,127.0
1062,65.0,0.0,390.0,1.0,127.0
1063,68.0,197.0,390.0,4.0,127.0
1064,59.0,0.0,210.0,7.0,127.0
1065,58.0,194.0,210.0,6.0,127.0
1066,61.0,3.0,390.0,10.0,127.0
1067,66.0,0.0,210.0,2.0,127.0
1068,56.0,197.0,210.0,4.0,127.0
1069,68.0,0.0,210.0,4.0,127.0
1070,78.0,0.0,210.0,2.0,127.0
1071,66.0,3.0,390.0,2.0,127.0
1072,61.0,0.0,390.0,10.0,127.0
1073,54.0,394.0,390.0,2.0,127.0
1074,70.0,194.0,210.0,6.0,127.0
1075,77.0,0.0,210.0,1.0,127.0
1076,66.0,0.0,780.0,2.0,127.0
1077,63.0,197.0,780.0,12.0,127.0
1078,59.0,197.0,390.0,7.0,127.0
1079,75.0,197.0,600.0,12.0,127.0
1080,58.0,0.0,390.0,6.0,127.0
1081,73.0,0.0,210.0,10.0,127.0
1082,65.0,3.0,390.0,1.0,127.0
1083,56.0,197.0,390.0,4.0,127.0
1084,59.0,0.0,390.0,7.0,127.0
1085,71.0,194.0,210.0,7.0,127.0
1086,70.0,0.0,210.0,6.0,127.0
1087,66.0,0.0,780.0,2.0,127.0
1088,54.0,161.0,390.0,2.0,127.0
1089,61.0,1.0,780.0,10.0,127.0
1090,70.0,197.0,210.0,6.0,127.0
1091,71.0,0.0,210.0,7.0,127.0
1092,49.0,0.0,780.0,10.0,127.0
1093,70.0,76.0,150.0,6.0,127.0
1094,68.0,78.0,90.0,4.0,127.0
1095,70.0,77.0,90.0,6.0,127.0
1096,68.0,78.0,90.0,4.0,127.0
1097,59.0,0.0,390.0,7.0,127.0
1098,65.0,3.0,390.0,1.0,127.0
1099,70.0,118.0,90.0,6.0,127.0
1100,68.0,193.0,120.0,4.0,127.0
1101,66.0,394.0,210.0,2.0,127.0
1102,61.0,394.0,390.0,10.0,127.0
1103,58.0,0.0,780.0,6.0,127.0
1104,54.0,17.0,780.0,2.0,127.0
1105,66.0,0.0,390.0,2.0,127.0
1106,73.0,196.0,420.0,10.0,127.0
1107,70.0,0.0,420.0,6.0,127.0
1108,75.0,0.0,210.0,12.0,127.0
1109,71.0,197.0,210.0,7.0,127.0
1110,73.0,197.0,210.0,10.0,127.0
1111,70.0,0.0,210.0,6.0,127.0
1112,73.0,94.0,690.0,10.0,127.0
1113,70.0,0.0,690.0,6.0,127.0
1114,54.0,197.0,210.0,2.0,127.0
1115,52.0,197.0,210.0,0.0,127.0
1116,66.0,197.0,390.0,2.0,127.0
1117,51.0,103.0,210.0,12.0,127.0
1118,49.0,0.0,210.0,10.0,127.0
1119,75.0,0.0,210.0,12.0,127.0
1120,71.0,197.0,210.0,7.0,127.0
1121,47.0,197.0,390.0,7.0,127.0
1122,73.0,0.0,210.0,10.0,127.0
1123,70.0,0.0,210.0,6.0,127.0
1124,73.0,94.0,690.0,10.0,127.0
1125,70.0,0.0,690.0,6.0,127.0
1126,54.0,197.0,210.0,2.0,127.0
1127,52.0,197.0,210.0,0.0,127.0
1128,51.0,103.0,210.0,12.0,127.0
1129,66.0,197.0,390.0,2.0,127.0
1130,49.0,0.0,210.0,10.0,127.0
1131,71.0,197.0,780.0,7.0,127.0
1132,75.0,197.0,210.0,12.0,127.0
1133,47.0,0.0,390.0,7.0,127.0
1134,73.0,394.0,210.0,10.0,127.0
1135,54.0,197.0,780.0,2.0,127.0
1136,73.0,0.0,390.0,10.0,127.0
1137,70.0,3.0,390.0,6.0,127.0
1138,78.0,194.0,210.0,2.0,127.0
1139,76.0,0.0,210.0,0.0,127.0
1140,59.0,0.0,780.0,7.0,127.0
1141,71.0,0.0,210.0,7.0,127.0
1142,75.0,197.0,210.0,12.0,127.0
1143,70.0,197.0,210.0,6.0,127.0
1144,73.0,0.0,210.0,10.0,127.0
1145,71.0,197.0,210.0,7.0,127.0
1146,68.0,0.0,210.0,4.0,127.0
1147,70.0,132.0,210.0,6.0,127.0
1148,66.0,0.0,210.0,2.0,127.0
1149,70.0,66.0,120.0,6.0,127.0
1150,65.0,197.0,600.0,1.0,127.0
1151,61.0,1.0,390.0,10.0,127.0
1152,68.0,66.0,60.0,4.0,127.0
1153,70.0,66.0,60.0,6.0,127.0
1154,68.0,65.0,60.0,4.0,127.0
1155,70.0,195.0,60.0,6.0,127.0
1156,68.0,1.0,180.0,4.0,127.0
1157,49.0,401.0,390.0,10.0,127.0
1158,66.0,0.0,210.0,2.0,127.0
1159,66.0,200.0,390.0,2.0,127.0
1160,54.0,216.0,600.0,2.0,127.0
1161,73.0,200.0,390.0,10.0,127.0
1162,82.0,200.0,210.0,6.0,127.0
1163,80.0,200.0,210.0,4.0,127.0
1164,61.0,197.0,210.0,10.0,127.0
1165,65.0,3.0,390.0,1.0,127.0
1166,80.0,0.0,390.0,4.0,127.0
1167,59.0,200.0,210.0,7.0,127.0
1168,73.0,200.0,390.0,10.0,127.0
1169,66.0,3.0,390.0,2.0,127.0
1170,58.0,197.0,210.0,6.0,127.0
1171,56.0,0.0,210.0,4.0,127.0
1172,66.0,0.0,390.0,2.0,127.0
1173,82.0,200.0,210.0,6.0,127.0
1174,54.0,401.0,390.0,2.0,127.0
1175,61.0,0.0,390.0,10.0,127.0
1176,80.0,0.0,210.0,4.0,127.0
1177,59.0,0.0,390.0,7.0,127.0
1178,66.0,200.0,390.0,2.0,127.0
1179,80.0,200.0,600.0,4.0,127.0
1180,65.0,200.0,390.0,1.0,127.0
1181,61.0,0.0,390.0,10.0,127.0
1182,82.0,0.0,210.0,6.0,127.0
1183,63.0,200.0,390.0,12.0,127.0
1184,66.0,0.0,390.0,2.0,127.0
1185,83.0,200.0,210.0,7.0,127.0
1186,85.0,0.0,210.0,10.0,127.0
1187,82.0,0.0,210.0,6.0,127.0
1188,61.0,200.0,210.0,10.0,127.0
1189,66.0,185.0,810.0,2.0,127.0
1190,59.0,68.0,210.0,7.0,127.0
1191,80.0,0.0,210.0,4.0,127.0
1192,61.0,0.0,810.0,10.0,127.0
1193,82.0,67.0,60.0,6.0,127.0
1194,80.0,67.0,60.0,4.0,127.0
1195,82.0,67.0,60.0,6.0,127.0
1196,80.0,67.0,60.0,4.0,127.0
1197,82.0,66.0,60.0,6.0,127.0
1198,80.0,216.0,240.0,4.0,127.0
1199,65.0,0.0,390.0,1.0,127.0
1200,78.0,411.0,210.0,2.0,127.0
1201,66.0,16.0,1230.0,2.0,127.0
1202,54.0,0.0,1230.0,2.0,127.0
1203,78.0,426.0,420.0,2.0,127.0
1204,78.0,1800.0,2220.0,2.0,127.0
1205,70.0,1.0,420.0,6.0,127.0
1206,73.0,206.0,420.0,10.0,127.0
1207,71.0,0.0,210.0,7.0,127.0
1208,75.0,190.0,210.0,12.0,127.0
1209,70.0,461.0,210.0,6.0,127.0
1210,73.0,0.0,210.0,10.0,127.0
1211,71.0,230.0,450.0,7.0,127.0
1212,73.0,227.0,690.0,10.0,127.0
1213,66.0,0.0,1380.0,2.0,127.0
1214,54.0,1.0,1380.0,2.0,127.0
1215,70.0,4.0,450.0,6.0,127.0
1216,75.0,230.0,240.0,12.0,127.0
1217,71.0,227.0,240.0,7.0,127.0
1218,68.0,4.0,450.0,4.0,127.0
1219,73.0,0.0,240.0,10.0,127.0
1220,54.0,1.0,1800.0,2.0,127.0
1221,66.0,1.0,1800.0,2.0,127.0
1222,70.0,1.0,1800.0,6.0,127.0
1223,73.0,1.0,1800.0,10.0,127.0
1224,78.0,1439.0,1800.0,2.0,127.0
1225,65.0,0.0,1080.0,1.0,127.0
1226,74.0,0.0,1080.0,11.0,127.0
1227,62.0,0.0,1080.0,11.0,127.0
1228,70.0,0.0,1080.0,6.0,127.0
1229,58.0,57.0,1080.0,6.0,127.0
1230,77.0,0.0,1080.0,1.0,127.0
1231,78.0,173.0,60.0,2.0,127.0
1232,77.0,57.0,180.0,1.0,127.0
1233,75.0,173.0,60.0,12.0,127.0
1234,74.0,57.0,180.0,11.0,127.0
1235,78.0,173.0,60.0,2.0,127.0
1236,77.0,57.0,180.0,1.0,127.0
1237,75.0,173.0,60.0,12.0,127.0
1238,80.0,57.0,180.0,4.0,127.0
1239,78.0,173.0,60.0,2.0,127.0
1240,77.0,57.0,180.0,1.0,127.0
1241,75.0,173.0,60.0,12.0,127.0
1242,82.0,57.0,180.0,6.0,127.0
1243,78.0,173.0,60.0,2.0,127.0
1244,77.0,57.0,180.0,1.0,127.0
1245,75.0,457.0,60.0,12.0,127.0
1246,83.0,4.0,450.0,7.0,127.0
1247,77.0,0.0,690.0,1.0,127.0
1248,68.0,229.0,240.0,4.0,127.0
1249,74.0,0.0,690.0,11.0,127.0
1250,62.0,0.0,690.0,11.0,127.0
1251,65.0,0.0,690.0,1.0,127.0
1252,70.0,1.0,240.0,6.0,127.0
1253,82.0,230.0,240.0,6.0,127.0
1254,80.0,44.0,240.0,4.0,127.0
1255,75.0,115.0,330.0,12.0,127.0
1256,80.0,42.0,30.0,4.0,127.0
1257,66.0,0.0,690.0,2.0,127.0
1258,70.0,1.0,690.0,6.0,127.0
1259,51.0,551.0,690.0,12.0,127.0
1260,63.0,0.0,690.0,12.0,127.0
1261,78.0,42.0,30.0,2.0,127.0
1262,80.0,209.0,30.0,4.0,127.0
1263,78.0,8.0,210.0,2.0,127.0
1264,77.0,229.0,120.0,1.0,127.0
1265,75.0,66.0,780.0,12.0,127.0
1266,63.0,25.0,270.0,12.0,127.0
1267,65.0,57.0,60.0,1.0,127.0
1268,66.0,57.0,60.0,2.0,127.0
1269,68.0,57.0,60.0,4.0,127.0
1270,70.0,57.0,60.0,6.0,127.0
1271,71.0,57.0,60.0,7.0,127.0
1272,73.0,57.0,60.0,10.0,127.0
1273,75.0,57.0,60.0,12.0,127.0
1274,77.0,57.0,60.0,1.0,127.0
1275,78.0,57.0,60.0,2.0,127.0
1276,80.0,57.0,60.0,4.0,127.0
1277,82.0,57.0,60.0,6.0,127.0
1278,83.0,57.0,60.0,7.0,127.0
1279,85.0,299.0,60.0,10.0,127.0
1280,87.0,141.0,300.0,12.0,127.0
1281,70.0,15.0,780.0,6.0,127.0
1282,58.0,15.0,390.0,6.0,127.0
1283,61.0,0.0,780.0,10.0,127.0
1284,67.0,0.0,780.0,3.0,127.0
1285,88.0,199.0,210.0,0.0,127.0
1286,58.0,398.0,390.0,6.0,127.0
1287,87.0,184.0,210.0,12.0,127.0
1288,85.0,0.0,210.0,10.0,127.0
1289,83.0,4.0,1590.0,7.0,127.0
1290,56.0,0.0,780.0,4.0,127.0
1291,63.0,0.0,780.0,12.0,127.0
1292,68.0,0.0,780.0,4.0,127.0
1293,82.0,398.0,210.0,6.0,127.0
1294,80.0,1.0,1200.0,4.0,127.0
1295,78.0,199.0,210.0,2.0,127.0
1296,77.0,199.0,210.0,1.0,127.0
1297,61.0,19.0,2370.0,10.0,127.0
1298,75.0,199.0,210.0,12.0,127.0
1299,73.0,193.0,210.0,10.0,127.0
1300,71.0,414.0,210.0,7.0,127.0
1301,70.0,205.0,990.0,6.0,127.0
1302,73.0,6.0,780.0,10.0,127.0
1303,80.0,199.0,210.0,4.0,127.0
1304,78.0,193.0,210.0,2.0,127.0
1305,77.0,193.0,210.0,1.0,127.0
1306,75.0,199.0,390.0,12.0,127.0
1307,71.0,1.0,1200.0,7.0,127.0
1308,70.0,0.0,210.0,6.0,127.0
1309,68.0,179.0,210.0,4.0,127.0
1310,77.0,0.0,210.0,1.0,127.0
1311,66.0,0.0,210.0,2.0,127.0
1312,78.0,397.0,210.0,2.0,127.0
1313,65.0,199.0,780.0,1.0,127.0
1314,80.0,1.0,1200.0,4.0,127.0
1315,75.0,199.0,210.0,12.0,127.0
1316,68.0,3.0,390.0,4.0,127.0
1317,73.0,195.0,210.0,10.0,127.0
1318,71.0,0.0,210.0,7.0,127.0
1319,66.0,198.0,210.0,2.0,127.0
1320,70.0,199.0,780.0,6.0,127.0
1321,65.0,199.0,210.0,1.0,127.0
1322,63.0,199.0,210.0,12.0,127.0
1323,78.0,199.0,600.0,2.0,127.0
1324,75.0,0.0,390.0,12.0,127.0
1325,61.0,0.0,210.0,10.0,127.0
1326,68.0,0.0,780.0,4.0,127.0
1327,60.0,199.0,780.0,8.0,127.0
1328,82.0,199.0,210.0,6.0,127.0
1329,80.0,199.0,210.0,4.0,127.0
1330,78.0,0.0,210.0,2.0,127.0
1331,77.0,0.0,600.0,1.0,127.0
1332,61.0,199.0,210.0,10.0,127.0
1333,68.0,0.0,780.0,4.0,127.0
1334,63.0,199.0,210.0,12.0,127.0
1335,73.0,0.0,210.0,10.0,127.0
1336,61.0,199.0,210.0,10.0,127.0
1337,75.0,0.0,210.0,12.0,127.0
1338,77.0,0.0,210.0,1.0,127.0
1339,59.0,398.0,210.0,7.0,127.0
1340,58.0,5.0,1590.0,6.0,127.0
1341,78.0,0.0,780.0,2.0,127.0
1342,70.0,199.0,210.0,6.0,127.0
1343,80.0,0.0,210.0,4.0,127.0
1344,68.0,199.0,210.0,4.0,127.0
1345,82.0,0.0,210.0,6.0,127.0
1346,83.0,199.0,210.0,7.0,127.0
1347,66.0,0.0,210.0,2.0,127.0
1348,65.0,199.0,210.0,1.0,127.0
1349,73.0,0.0,780.0,10.0,127.0
1350,85.0,1.0,1200.0,10.0,127.0
1351,61.0,199.0,210.0,10.0,127.0
1352,66.0,193.0,210.0,2.0,127.0
1353,64.0,199.0,210.0,0.0,127.0
1354,63.0,398.0,780.0,12.0,127.0
1355,59.0,0.0,780.0,7.0,127.0
1356,78.0,198.0,210.0,2.0,127.0
1357,75.0,199.0,210.0,12.0,127.0
1358,80.0,199.0,210.0,4.0,127.0
1359,83.0,199.0,780.0,7.0,127.0
1360,78.0,0.0,210.0,2.0,127.0
1361,61.0,398.0,780.0,10.0,127.0
1362,68.0,0.0,780.0,4.0,127.0
1363,77.0,5.0,1590.0,1.0,127.0
1364,80.0,0.0,210.0,4.0,127.0
1365,85.0,199.0,210.0,10.0,127.0
1366,83.0,0.0,210.0,7.0,127.0
1367,62.0,200.0,780.0,11.0,127.0
1368,82.0,198.0,990.0,6.0,127.0
1369,65.0,199.0,210.0,1.0,127.0
1370,70.0,193.0,210.0,6.0,127.0
1371,68.0,0.0,210.0,4.0,127.0
1372,75.0,394.0,780.0,12.0,127.0
1373,66.0,0.0,780.0,2.0,127.0
1374,63.0,2.0,1590.0,12.0,127.0
1375,78.0,199.0,210.0,2.0,127.0
1376,83.0,199.0,210.0,7.0,127.0
1377,82.0,0.0,210.0,6.0,127.0
1378,77.0,0.0,390.0,1.0,127.0
1379,68.0,392.0,390.0,4.0,127.0
1380,80.0,3.0,390.0,4.0,127.0
1381,74.0,0.0,210.0,11.0,127.0
1382,66.0,422.0,390.0,2.0,127.0
1383,78.0,0.0,390.0,2.0,127.0
1384,75.0,3.0,390.0,12.0,127.0
1385,72.0,0.0,210.0,8.0,127.0
1386,58.0,6.0,1680.0,6.0,127.0
1387,77.0,0.0,1050.0,1.0,127.0
1388,74.0,211.0,1050.0,11.0,127.0
1389,70.0,0.0,1050.0,6.0,127.0
1390,65.0,211.0,210.0,1.0,127.0
1391,68.0,211.0,210.0,4.0,127.0
1392,66.0,211.0,210.0,2.0,127.0
1393,65.0,0.0,420.0,1.0,127.0
1394,68.0,211.0,210.0,4.0,127.0
1395,63.0,1.0,1350.0,12.0,127.0
1396,71.0,206.0,210.0,7.0,127.0
1397,70.0,466.0,210.0,6.0,127.0
1398,65.0,0.0,930.0,1.0,127.0
1399,58.0,6.0,1860.0,6.0,127.0
1400,68.0,698.0,930.0,4.0,127.0
1401,72.0,233.0,240.0,8.0,127.0
1402,75.0,231.0,240.0,12.0,127.0
1403,74.0,0.0,240.0,11.0,127.0
1404,66.0,0.0,930.0,2.0,127.0
1405,72.0,226.0,690.0,8.0,127.0
1406,63.0,16.0,930.0,12.0,127.0
1407,69.0,0.0,930.0,5.0,127.0
1408,74.0,2216.0,240.0,11.0,127.0
1409,58.0,1.0,2190.0,6.0,127.0
1410,62.0,1.0,2190.0,11.0,127.0
1411,70.0,1.0,2190.0,6.0,127.0
1412,65.0,0.0,2190.0,1.0,127.0
1413,74.0,887.0,2190.0,11.0,127.0
1414,63.0,463.0,450.0,12.0,127.0
1415,70.0,356.0,450.0,6.0,127.0
1416,66.0,116.0,360.0,2.0,127.0
1417,65.0,233.0,120.0,1.0,127.0
1418,63.0,116.0,240.0,12.0,127.0
1419,65.0,116.0,120.0,1.0,127.0
1420,66.0,232.0,120.0,2.0,127.0
1421,68.0,234.0,240.0,4.0,127.0
1422,68.0,233.0,240.0,4.0,127.0
1423,68.0,466.0,240.0,4.0,127.0
1424,68.0,116.0,480.0,4.0,127.0
1425,70.0,233.0,450.0,6.0,127.0
1426,66.0,116.0,120.0,2.0,127.0
1427,65.0,0.0,120.0,1.0,127.0
1428,66.0,116.0,240.0,2.0,127.0
1429,75.0,349.0,450.0,12.0,127.0
1430,65.0,116.0,120.0,1.0,127.0
1431,63.0,0.0,120.0,12.0,127.0
1432,65.0,233.0,450.0,1.0,127.0
1433,73.0,116.0,360.0,10.0,127.0
1434,72.0,0.0,120.0,8.0,127.0
1435,70.0,116.0,240.0,6.0,127.0
1436,66.0,233.0,450.0,2.0,127.0
1437,72.0,116.0,120.0,8.0,127.0
1438,73.0,0.0,120.0,10.0,127.0
1439,67.0,0.0,480.0,3.0,127.0
1440,75.0,233.0,240.0,12.0,127.0
1441,75.0,233.0,240.0,12.0,127.0
1442,69.0,233.0,480.0,5.0,127.0
1443,75.0,233.0,240.0,12.0,127.0
1444,75.0,116.0,480.0,12.0,127.0
1445,70.0,233.0,450.0,6.0,127.0
1446,73.0,116.0,120.0,10.0,127.0
1447,72.0,0.0,120.0,8.0,127.0
1448,73.0,116.0,240.0,10.0,127.0
1449,65.0,0.0,240.0,1.0,127.0
1450,67.0,233.0,240.0,3.0,127.0
1451,71.0,116.0,120.0,7.0,127.0
1452,70.0,0.0,120.0,6.0,127.0
1453,68.0,233.0,240.0,4.0,127.0
1454,71.0,116.0,570.0,7.0,127.0
1455,63.0,116.0,240.0,12.0,127.0
1456,68.0,116.0,690.0,4.0,127.0
1457,70.0,116.0,120.0,6.0,127.0
1458,71.0,116.0,120.0,7.0,127.0
1459,73.0,233.0,120.0,10.0,127.0
1460,70.0,116.0,450.0,6.0,127.0
1461,66.0,116.0,120.0,2.0,127.0
1462,65.0,0.0,120.0,1.0,127.0
1463,66.0,116.0,120.0,2.0,127.0
1464,75.0,116.0,690.0,12.0,127.0
1465,65.0,116.0,120.0,1.0,127.0
1466,66.0,116.0,120.0,2.0,127.0
1467,68.0,233.0,120.0,4.0,127.0
1468,77.0,4.0,450.0,1.0,127.0
1469,70.0,11.0,810.0,6.0,127.0
1470,73.0,113.0,120.0,10.0,127.0
1471,72.0,233.0,120.0,8.0,127.0
1472,73.0,105.0,240.0,10.0,127.0
1473,82.0,4.0,450.0,6.0,127.0
1474,72.0,113.0,120.0,8.0,127.0
1475,70.0,349.0,120.0,6.0,127.0
1476,80.0,113.0,360.0,4.0,127.0
1477,65.0,233.0,480.0,1.0,127.0
1478,72.0,4.0,450.0,8.0,127.0
1479,78.0,0.0,120.0,2.0,127.0
1480,68.0,229.0,690.0,4.0,127.0
1481,77.0,116.0,240.0,1.0,127.0
1482,77.0,116.0,120.0,1.0,127.0
1483,78.0,233.0,120.0,2.0,127.0
1484,80.0,0.0,240.0,4.0,127.0
1485,72.0,4.0,450.0,8.0,127.0
1486,66.0,231.0,240.0,2.0,127.0
1487,80.0,0.0,240.0,4.0,127.0
1488,80.0,1.0,240.0,4.0,127.0
1489,65.0,229.0,240.0,1.0,127.0
1490,74.0,4.0,450.0,11.0,127.0
1491,70.0,229.0,240.0,6.0,127.0
1492,80.0,4.0,450.0,4.0,127.0
1493,63.0,116.0,570.0,12.0,127.0
1494,75.0,116.0,240.0,12.0,127.0
1495,78.0,115.0,120.0,2.0,127.0
1496,70.0,1.0,240.0,6.0,127.0
1497,77.0,116.0,120.0,1.0,127.0
1498,78.0,0.0,450.0,2.0,127.0
1499,75.0,117.0,930.0,12.0,127.0
1500,66.0,116.0,120.0,2.0,127.0
1501,71.0,116.0,120.0,7.0,127.0
1502,70.0,116.0,120.0,6.0,127.0
1503,77.0,115.0,570.0,1.0,127.0
1504,68.0,116.0,120.0,4.0,127.0
1505,65.0,116.0,120.0,1.0,127.0
1506,66.0,116.0,120.0,2.0,127.0
1507,68.0,0.0,120.0,4.0,127.0
1508,74.0,4.0,450.0,11.0,127.0
1509,70.0,116.0,450.0,6.0,127.0
1510,77.0,116.0,120.0,1.0,127.0
1511,82.0,113.0,120.0,6.0,127.0
1512,80.0,0.0,120.0,4.0,127.0
1513,63.0,233.0,450.0,12.0,127.0
1514,75.0,0.0,120.0,12.0,127.0
1515,78.0,116.0,120.0,2.0,127.0
1516,75.0,116.0,120.0,12.0,127.0
1517,73.0,1.0,240.0,10.0,127.0
1518,77.0,115.0,120.0,1.0,127.0
1519,78.0,0.0,120.0,2.0,127.0
1520,80.0,116.0,690.0,4.0,127.0
1521,72.0,0.0,240.0,8.0,127.0
1522,68.0,116.0,240.0,4.0,127.0
1523,66.0,233.0,240.0,2.0,127.0
1524,74.0,116.0,120.0,11.0,127.0
1525,75.0,0.0,120.0,12.0,127.0
1526,65.0,0.0,240.0,1.0,127.0
1527,58.0,4.0,450.0,6.0,127.0
1528,74.0,0.0,450.0,11.0,127.0
1529,78.0,113.0,120.0,2.0,127.0
1530,70.0,4.0,450.0,6.0,127.0
1531,77.0,229.0,120.0,1.0,127.0
1532,63.0,4.0,450.0,12.0,127.0
1533,78.0,116.0,240.0,2.0,127.0
1534,77.0,113.0,120.0,1.0,127.0
1535,66.0,349.0,240.0,2.0,127.0
1536,75.0,0.0,120.0,12.0,127.0
1537,65.0,4.0,450.0,1.0,127.0
1538,61.0,113.0,360.0,10.0,127.0
1539,77.0,0.0,480.0,1.0,127.0
1540,70.0,0.0,480.0,6.0,127.0
1541,60.0,233.0,120.0,8.0,127.0
1542,58.0,116.0,240.0,6.0,127.0
1543,73.0,0.0,450.0,10.0,127.0
1544,78.0,0.0,450.0,2.0,127.0
1545,60.0,116.0,120.0,8.0,127.0
1546,61.0,233.0,120.0,10.0,127.0
1547,79.0,0.0,480.0,3.0,127.0
1548,63.0,233.0,240.0,12.0,127.0
1549,70.0,233.0,480.0,6.0,127.0
1550,63.0,0.0,240.0,12.0,127.0
1551,63.0,233.0,240.0,12.0,127.0
1552,81.0,0.0,480.0,5.0,127.0
1553,72.0,229.0,480.0,8.0,127.0
1554,63.0,120.0,450.0,12.0,127.0
1555,65.0,4.0,450.0,1.0,127.0
1556,77.0,0.0,480.0,1.0,127.0
1557,82.0,0.0,480.0,6.0,127.0
1558,61.0,113.0,120.0,10.0,127.0
1559,60.0,233.0,120.0,8.0,127.0
1560,70.0,0.0,450.0,6.0,127.0
1561,61.0,116.0,240.0,10.0,127.0
1562,73.0,4.0,450.0,10.0,127.0
1563,77.0,0.0,240.0,1.0,127.0
1564,59.0,113.0,120.0,7.0,127.0
1565,79.0,349.0,240.0,3.0,127.0
1566,58.0,0.0,120.0,6.0,127.0
1567,59.0,4.0,450.0,7.0,127.0
1568,68.0,113.0,360.0,4.0,127.0
1569,80.0,116.0,570.0,4.0,127.0
1570,75.0,0.0,450.0,12.0,127.0
1571,66.0,116.0,120.0,2.0,127.0
1572,65.0,116.0,240.0,1.0,127.0
1573,61.0,4.0,450.0,10.0,127.0
1574,80.0,0.0,120.0,4.0,127.0
1575,65.0,113.0,120.0,1.0,127.0
1576,78.0,0.0,120.0,2.0,127.0
1577,66.0,233.0,120.0,2.0,127.0
1578,77.0,0.0,120.0,1.0,127.0
1579,68.0,229.0,240.0,4.0,127.0
1580,60.0,4.0,450.0,8.0,127.0
1581,75.0,233.0,480.0,12.0,127.0
1582,68.0,0.0,240.0,4.0,127.0
1583,62.0,233.0,450.0,11.0,127.0
1584,68.0,229.0,240.0,4.0,127.0
1585,77.0,233.0,930.0,1.0,127.0
1586,68.0,120.0,450.0,4.0,127.0
1587,70.0,0.0,450.0,6.0,127.0
1588,63.0,116.0,690.0,12.0,127.0
1589,66.0,116.0,120.0,2.0,127.0
1590,65.0,0.0,120.0,1.0,127.0
1591,66.0,0.0,240.0,2.0,127.0
1592,75.0,2.0,450.0,12.0,127.0
1593,77.0,0.0,120.0,1.0,127.0
1594,59.0,1.0,240.0,7.0,127.0
1595,65.0,113.0,120.0,1.0,127.0
1596,63.0,349.0,120.0,12.0,127.0
1597,78.0,0.0,120.0,2.0,127.0
1598,73.0,113.0,360.0,10.0,127.0
1599,58.0,0.0,480.0,6.0,127.0
1600,65.0,233.0,480.0,1.0,127.0
1601,77.0,4.0,450.0,1.0,127.0
1602,72.0,0.0,120.0,8.0,127.0
1603,63.0,233.0,450.0,12.0,127.0
1604,66.0,0.0,450.0,2.0,127.0
1605,70.0,116.0,240.0,6.0,127.0
1606,72.0,116.0,120.0,8.0,127.0
1607,73.0,0.0,120.0,10.0,127.0
1608,67.0,0.0,480.0,3.0,127.0
1609,60.0,0.0,480.0,8.0,127.0
1610,75.0,233.0,240.0,12.0,127.0
1611,75.0,233.0,240.0,12.0,127.0
1612,65.0,232.0,480.0,1.0,127.0
1613,69.0,0.0,480.0,5.0,127.0
1614,75.0,233.0,240.0,12.0,127.0
1615,75.0,116.0,480.0,12.0,127.0
1616,70.0,1.0,240.0,6.0,127.0
1617,58.0,116.0,690.0,6.0,127.0
1618,65.0,233.0,240.0,1.0,127.0
1619,73.0,116.0,120.0,10.0,127.0
1620,72.0,0.0,120.0,8.0,127.0
1621,70.0,0.0,240.0,6.0,127.0
1622,73.0,0.0,240.0,10.0,127.0
1623,75.0,116.0,120.0,12.0,127.0
1624,56.0,0.0,240.0,4.0,127.0
1625,72.0,0.0,120.0,8.0,127.0
1626,73.0,233.0,120.0,10.0,127.0
1627,77.0,0.0,120.0,1.0,127.0
1628,54.0,229.0,240.0,2.0,127.0
1629,78.0,0.0,240.0,2.0,127.0
1630,75.0,4.0,450.0,12.0,127.0
1631,53.0,0.0,240.0,1.0,127.0
1632,78.0,233.0,240.0,2.0,127.0
1633,70.0,4.0,450.0,6.0,127.0
1634,54.0,229.0,240.0,2.0,127.0
1635,78.0,0.0,240.0,2.0,127.0
1636,51.0,233.0,240.0,12.0,127.0
1637,78.0,233.0,480.0,2.0,127.0
1638,71.0,0.0,480.0,7.0,127.0
1639,56.0,233.0,480.0,4.0,127.0
1640,77.0,233.0,480.0,1.0,127.0
1641,68.0,229.0,480.0,4.0,127.0
1642,59.0,0.0,480.0,7.0,127.0
1643,75.0,120.0,450.0,12.0,127.0
1644,77.0,0.0,450.0,1.0,127.0
1645,70.0,0.0,450.0,6.0,127.0
1646,58.0,4.0,450.0,6.0,127.0
1647,74.0,113.0,120.0,11.0,127.0
1648,72.0,349.0,120.0,8.0,127.0
1649,74.0,113.0,360.0,11.0,127.0
1650,82.0,4.0,450.0,6.0,127.0
1651,75.0,233.0,120.0,12.0,127.0
1652,78.0,124.0,330.0,2.0,127.0
1653,75.0,108.0,240.0,12.0,127.0
1654,70.0,1.0,240.0,6.0,127.0
1655,77.0,233.0,120.0,1.0,127.0
1656,75.0,116.0,240.0,12.0,127.0
1657,71.0,4.0,450.0,7.0,127.0
1658,77.0,113.0,120.0,1.0,127.0
1659,78.0,233.0,120.0,2.0,127.0
1660,80.0,229.0,240.0,4.0,127.0
1661,72.0,4.0,450.0,8.0,127.0
1662,80.0,231.0,240.0,4.0,127.0
1663,74.0,233.0,450.0,11.0,127.0
1664,80.0,230.0,240.0,4.0,127.0
1665,80.0,4.0,450.0,4.0,127.0
1666,63.0,233.0,450.0,12.0,127.0
1667,75.0,116.0,240.0,12.0,127.0
1668,78.0,114.0,120.0,2.0,127.0
1669,70.0,2.0,240.0,6.0,127.0
1670,77.0,0.0,120.0,1.0,127.0
1671,70.0,0.0,480.0,6.0,127.0
1672,78.0,116.0,240.0,2.0,127.0
1673,73.0,4.0,450.0,10.0,127.0
1674,77.0,113.0,120.0,1.0,127.0
1675,75.0,349.0,120.0,12.0,127.0
1676,71.0,0.0,690.0,7.0,127.0
1677,68.0,116.0,360.0,4.0,127.0
1678,77.0,233.0,450.0,1.0,127.0
1679,66.0,0.0,120.0,2.0,127.0
1680,65.0,116.0,240.0,1.0,127.0
1681,80.0,229.0,690.0,4.0,127.0
1682,65.0,116.0,120.0,1.0,127.0
1683,68.0,0.0,120.0,4.0,127.0
1684,66.0,232.0,120.0,2.0,127.0
1685,70.0,0.0,120.0,6.0,127.0
1686,68.0,1.0,240.0,4.0,127.0
1687,71.0,3.0,450.0,7.0,127.0
1688,68.0,1.0,240.0,4.0,127.0
1689,78.0,233.0,240.0,2.0,127.0
1690,71.0,4.0,450.0,7.0,127.0
1691,68.0,229.0,240.0,4.0,127.0
1692,77.0,0.0,240.0,1.0,127.0
1693,68.0,116.0,480.0,4.0,127.0
1694,75.0,233.0,240.0,12.0,127.0
1695,74.0,0.0,450.0,11.0,127.0
1696,70.0,233.0,450.0,6.0,127.0
1697,66.0,116.0,120.0,2.0,127.0
1698,65.0,0.0,120.0,1.0,127.0
1699,75.0,114.0,570.0,12.0,127.0
1700,70.0,0.0,240.0,6.0,127.0
1701,66.0,116.0,240.0,2.0,127.0
1702,65.0,116.0,120.0,1.0,127.0
1703,71.0,0.0,240.0,7.0,127.0
1704,63.0,117.0,120.0,12.0,127.0
1705,68.0,1.0,240.0,4.0,127.0
1706,53.0,0.0,450.0,1.0,127.0
1707,65.0,0.0,450.0,1.0,127.0
1708,74.0,116.0,120.0,11.0,127.0
1709,75.0,115.0,120.0,12.0,127.0
1710,68.0,1.0,240.0,4.0,127.0
1711,77.0,231.0,120.0,1.0,127.0
1712,58.0,0.0,450.0,6.0,127.0
1713,68.0,109.0,240.0,4.0,127.0
1714,74.0,124.0,330.0,11.0,127.0
1715,65.0,1.0,240.0,1.0,127.0
1716,75.0,349.0,120.0,12.0,127.0
1717,54.0,113.0,360.0,2.0,127.0
1718,75.0,0.0,480.0,12.0,127.0
1719,63.0,4.0,450.0,12.0,127.0
1720,70.0,233.0,480.0,6.0,127.0
1721,53.0,0.0,120.0,1.0,127.0
1722,78.0,0.0,930.0,2.0,127.0
1723,75.0,0.0,930.0,12.0,127.0
1724,51.0,116.0,240.0,12.0,127.0
1725,58.0,4.0,450.0,6.0,127.0
1726,53.0,113.0,120.0,1.0,127.0
1727,54.0,233.0,120.0,2.0,127.0
1728,56.0,229.0,240.0,4.0,127.0
1729,60.0,4.0,450.0,8.0,127.0
1730,56.0,233.0,240.0,4.0,127.0
1731,62.0,4.0,450.0,11.0,127.0
1732,56.0,229.0,240.0,4.0,127.0
1733,70.0,1.0,930.0,6.0,127.0
1734,77.0,229.0,480.0,1.0,127.0
1735,56.0,120.0,450.0,4.0,127.0
1736,75.0,233.0,480.0,12.0,127.0
1737,63.0,3.0,450.0,12.0,127.0
1738,54.0,113.0,120.0,2.0,127.0
1739,53.0,0.0,120.0,1.0,127.0
1740,70.0,0.0,450.0,6.0,127.0
1741,75.0,349.0,450.0,12.0,127.0
1742,54.0,116.0,240.0,2.0,127.0
1743,53.0,116.0,120.0,1.0,127.0
1744,51.0,0.0,120.0,12.0,127.0
1745,53.0,0.0,450.0,1.0,127.0
1746,68.0,0.0,450.0,4.0,127.0
1747,73.0,116.0,360.0,10.0,127.0
1748,71.0,233.0,120.0,7.0,127.0
1749,54.0,4.0,450.0,2.0,127.0
1750,66.0,116.0,240.0,2.0,127.0
1751,70.0,0.0,240.0,6.0,127.0
1752,65.0,233.0,240.0,1.0,127.0
1753,72.0,113.0,120.0,8.0,127.0
1754,73.0,0.0,120.0,10.0,127.0
1755,55.0,4.0,450.0,3.0,127.0
1756,63.0,229.0,240.0,12.0,127.0
1757,75.0,0.0,240.0,12.0,127.0
1758,61.0,0.0,240.0,10.0,127.0
1759,75.0,233.0,240.0,12.0,127.0
1760,57.0,233.0,480.0,5.0,127.0
1761,60.0,0.0,480.0,8.0,127.0
1762,75.0,233.0,240.0,12.0,127.0
1763,75.0,116.0,480.0,12.0,127.0
1764,65.0,0.0,240.0,1.0,127.0
1765,58.0,233.0,690.0,6.0,127.0
1766,73.0,116.0,120.0,10.0,127.0
1767,65.0,233.0,240.0,1.0,127.0
1768,72.0,0.0,120.0,8.0,127.0
1769,65.0,0.0,240.0,1.0,127.0
1770,73.0,0.0,240.0,10.0,127.0
1771,56.0,0.0,240.0,4.0,127.0
1772,65.0,120.0,450.0,1.0,127.0
1773,72.0,229.0,240.0,8.0,127.0
1774,54.0,116.0,690.0,2.0,127.0
1775,70.0,0.0,690.0,6.0,127.0
1776,63.0,116.0,120.0,12.0,127.0
1777,61.0,233.0,120.0,10.0,127.0
1778,63.0,116.0,690.0,12.0,127.0
1779,72.0,233.0,240.0,8.0,127.0
1780,53.0,116.0,120.0,1.0,127.0
1781,51.0,0.0,120.0,12.0,127.0
1782,53.0,6.0,1860.0,1.0,127.0
1783,69.0,116.0,570.0,5.0,127.0
1784,61.0,116.0,120.0,10.0,127.0
1785,60.0,116.0,120.0,8.0,127.0
1786,61.0,116.0,690.0,10.0,127.0
1787,65.0,466.0,120.0,1.0,127.0
1788,70.0,10.0,690.0,6.0,127.0
1789,72.0,459.0,450.0,8.0,127.0
1790,60.0,106.0,120.0,8.0,127.0
1791,58.0,0.0,120.0,6.0,127.0
1792,69.0,0.0,450.0,5.0,127.0
1793,77.0,0.0,450.0,1.0,127.0
1794,60.0,349.0,450.0,8.0,127.0
1795,70.0,4.0,450.0,6.0,127.0
1796,46.0,233.0,930.0,6.0,127.0
1797,58.0,116.0,690.0,6.0,127.0
1798,73.0,113.0,360.0,10.0,127.0
1799,72.0,233.0,120.0,8.0,127.0
1800,70.0,0.0,240.0,6.0,127.0
1801,72.0,116.0,120.0,8.0,127.0
1802,56.0,0.0,240.0,4.0,127.0
1803,73.0,0.0,120.0,10.0,127.0
1804,55.0,233.0,480.0,3.0,127.0
1805,48.0,0.0,480.0,8.0,127.0
1806,75.0,233.0,240.0,12.0,127.0
1807,75.0,0.0,240.0,12.0,127.0
1808,57.0,229.0,480.0,5.0,127.0
1809,53.0,0.0,480.0,1.0,127.0
1810,75.0,233.0,240.0,12.0,127.0
1811,75.0,120.0,450.0,12.0,127.0
1812,65.0,0.0,450.0,1.0,127.0
1813,46.0,349.0,930.0,6.0,127.0
1814,58.0,4.0,450.0,6.0,127.0
1815,74.0,113.0,120.0,11.0,127.0
1816,72.0,233.0,120.0,8.0,127.0
1817,70.0,229.0,240.0,6.0,127.0
1818,74.0,4.0,450.0,11.0,127.0
1819,68.0,0.0,240.0,4.0,127.0
1820,51.0,233.0,930.0,12.0,127.0
1821,58.0,4.0,450.0,6.0,127.0
1822,66.0,113.0,360.0,2.0,127.0
1823,75.0,0.0,450.0,12.0,127.0
1824,65.0,349.0,120.0,1.0,127.0
1825,63.0,4.0,450.0,12.0,127.0
1826,65.0,113.0,120.0,1.0,127.0
1827,66.0,0.0,120.0,2.0,127.0
1828,59.0,116.0,360.0,7.0,127.0
1829,68.0,116.0,240.0,4.0,127.0
1830,68.0,0.0,240.0,4.0,127.0
1831,58.0,233.0,120.0,6.0,127.0
1832,56.0,116.0,240.0,4.0,127.0
1833,68.0,0.0,240.0,4.0,127.0
1834,58.0,116.0,120.0,6.0,127.0
1835,68.0,233.0,240.0,4.0,127.0
1836,59.0,0.0,120.0,7.0,127.0
1837,61.0,116.0,240.0,10.0,127.0
1838,65.0,116.0,360.0,1.0,127.0
1839,61.0,233.0,240.0,10.0,127.0
1840,63.0,0.0,120.0,12.0,127.0
1841,61.0,116.0,240.0,10.0,127.0
1842,61.0,233.0,240.0,10.0,127.0
1843,63.0,116.0,120.0,12.0,127.0
1844,65.0,0.0,120.0,1.0,127.0
1845,58.0,116.0,360.0,6.0,127.0
1846,66.0,116.0,240.0,2.0,127.0
1847,66.0,233.0,240.0,2.0,127.0
1848,56.0,0.0,120.0,4.0,127.0
1849,54.0,116.0,240.0,2.0,127.0
1850,66.0,0.0,240.0,2.0,127.0
1851,66.0,340.0,240.0,2.0,127.0
1852,56.0,116.0,120.0,4.0,127.0
1853,58.0,0.0,120.0,6.0,127.0
1854,59.0,4.0,450.0,7.0,127.0
1855,75.0,0.0,480.0,12.0,127.0
1856,63.0,122.0,330.0,12.0,127.0
1857,61.0,233.0,120.0,10.0,127.0
1858,80.0,349.0,480.0,4.0,127.0
1859,59.0,116.0,240.0,7.0,127.0
1860,56.0,4.0,450.0,4.0,127.0
1861,61.0,113.0,120.0,10.0,127.0
1862,59.0,0.0,120.0,7.0,127.0
1863,79.0,113.0,360.0,3.0,127.0
1864,70.0,4.0,450.0,6.0,127.0
1865,58.0,0.0,930.0,6.0,127.0
1866,51.0,233.0,930.0,12.0,127.0
1867,77.0,349.0,120.0,1.0,127.0
1868,75.0,4.0,450.0,12.0,127.0
1869,77.0,113.0,120.0,1.0,127.0
1870,79.0,0.0,120.0,3.0,127.0
1871,71.0,124.0,330.0,7.0,127.0
1872,80.0,108.0,240.0,4.0,127.0
1873,80.0,1.0,240.0,4.0,127.0
1874,70.0,233.0,120.0,6.0,127.0
1875,68.0,0.0,240.0,4.0,127.0
1876,80.0,116.0,240.0,4.0,127.0
1877,70.0,116.0,120.0,6.0,127.0
1878,80.0,102.0,450.0,4.0,127.0
1879,71.0,229.0,120.0,7.0,127.0
1880,70.0,237.0,450.0,6.0,127.0
1881,79.0,116.0,90.0,3.0,127.0
1882,77.0,15.0,90.0,1.0,127.0
1883,75.0,116.0,240.0,12.0,127.0
1884,78.0,98.0,690.0,2.0,127.0
1885,73.0,116.0,120.0,10.0,127.0
1886,72.0,233.0,120.0,8.0,127.0
1887,73.0,116.0,690.0,10.0,127.0
1888,77.0,116.0,90.0,1.0,127.0
1889,75.0,251.0,90.0,12.0,127.0
1890,76.0,116.0,690.0,0.0,127.0
1891,71.0,116.0,120.0,7.0,127.0
1892,70.0,233.0,120.0,6.0,127.0
1893,71.0,116.0,690.0,7.0,127.0
1894,75.0,116.0,120.0,12.0,127.0
1895,73.0,233.0,120.0,10.0,127.0
1896,75.0,116.0,690.0,12.0,127.0
1897,70.0,116.0,120.0,6.0,127.0
1898,68.0,233.0,120.0,4.0,127.0
1899,70.0,0.0,240.0,6.0,127.0
1900,73.0,115.0,120.0,10.0,127.0
1901,65.0,1.0,240.0,1.0,127.0
1902,71.0,231.0,120.0,7.0,127.0
1903,66.0,117.0,240.0,2.0,127.0
1904,70.0,116.0,360.0,6.0,127.0
1905,62.0,0.0,240.0,11.0,127.0
1906,68.0,233.0,120.0,4.0,127.0
1907,51.0,233.0,450.0,12.0,127.0
1908,63.0,229.0,690.0,12.0,127.0
1909,66.0,116.0,240.0,2.0,127.0
1910,68.0,116.0,120.0,4.0,127.0
1911,66.0,0.0,120.0,2.0,127.0
1912,65.0,349.0,480.0,1.0,127.0
1913,58.0,4.0,450.0,6.0,127.0
1914,61.0,0.0,690.0,10.0,127.0
1915,55.0,116.0,360.0,3.0,127.0
1916,70.0,233.0,450.0,6.0,127.0
1917,53.0,0.0,120.0,1.0,127.0
1918,75.0,0.0,450.0,12.0,127.0
1919,70.0,233.0,450.0,6.0,127.0
1920,51.0,116.0,240.0,12.0,127.0
1921,53.0,116.0,120.0,1.0,127.0
1922,55.0,0.0,120.0,3.0,127.0
1923,63.0,4.0,450.0,12.0,127.0
1924,71.0,113.0,360.0,7.0,127.0
1925,56.0,116.0,240.0,4.0,127.0
1926,56.0,233.0,240.0,4.0,127.0
1927,70.0,0.0,120.0,6.0,127.0
1928,56.0,0.0,240.0,4.0,127.0
1929,65.0,0.0,240.0,1.0,127.0
1930,68.0,116.0,240.0,4.0,127.0
1931,70.0,115.0,120.0,6.0,127.0
1932,66.0,1.0,240.0,2.0,127.0
1933,56.0,233.0,240.0,4.0,127.0
1934,71.0,0.0,120.0,7.0,127.0
1935,53.0,113.0,360.0,1.0,127.0
1936,73.0,116.0,240.0,10.0,127.0
1937,68.0,4.0,450.0,4.0,127.0
1938,73.0,233.0,240.0,10.0,127.0
1939,51.0,0.0,120.0,12.0,127.0
1940,49.0,116.0,240.0,10.0,127.0
1941,73.0,0.0,240.0,10.0,127.0
1942,65.0,116.0,690.0,1.0,127.0
1943,73.0,233.0,240.0,10.0,127.0
1944,51.0,116.0,120.0,12.0,127.0
1945,53.0,0.0,120.0,1.0,127.0
1946,58.0,0.0,450.0,6.0,127.0
1947,54.0,116.0,690.0,2.0,127.0
1948,70.0,1.0,690.0,6.0,127.0
1949,66.0,116.0,120.0,2.0,127.0
1950,65.0,232.0,120.0,1.0,127.0
1951,63.0,4.0,450.0,12.0,127.0
1952,65.0,113.0,120.0,1.0,127.0
1953,56.0,349.0,240.0,4.0,127.0
1954,68.0,116.0,930.0,4.0,127.0
1955,66.0,0.0,120.0,2.0,127.0
1956,58.0,0.0,360.0,6.0,127.0
1957,62.0,116.0,360.0,11.0,127.0
1958,65.0,0.0,690.0,1.0,127.0
1959,60.0,233.0,120.0,8.0,127.0
1960,58.0,0.0,240.0,6.0,127.0
1961,60.0,116.0,120.0,8.0,127.0
1962,66.0,0.0,120.0,2.0,127.0
1963,65.0,0.0,120.0,1.0,127.0
1964,62.0,233.0,120.0,11.0,127.0
1965,63.0,233.0,240.0,12.0,127.0
1966,66.0,116.0,690.0,2.0,127.0
1967,61.0,233.0,240.0,10.0,127.0
1968,59.0,0.0,240.0,7.0,127.0
1969,63.0,229.0,690.0,12.0,127.0
1970,68.0,233.0,240.0,4.0,127.0
1971,58.0,116.0,120.0,6.0,127.0
1972,56.0,0.0,120.0,4.0,127.0
1973,54.0,233.0,690.0,2.0,127.0
1974,70.0,4.0,450.0,6.0,127.0
1975,65.0,233.0,240.0,1.0,127.0
1976,75.0,0.0,480.0,12.0,127.0
1977,66.0,0.0,480.0,2.0,127.0
1978,56.0,233.0,240.0,4.0,127.0
1979,46.0,233.0,480.0,6.0,127.0
1980,58.0,0.0,480.0,6.0,127.0
1981,65.0,4.0,450.0,1.0,127.0
1982,74.0,116.0,240.0,11.0,127.0
1983,75.0,113.0,120.0,12.0,127.0
1984,77.0,0.0,120.0,1.0,127.0
1985,51.0,0.0,480.0,12.0,127.0
1986,58.0,0.0,480.0,6.0,127.0
1987,78.0,116.0,240.0,2.0,127.0
1988,63.0,4.0,450.0,12.0,127.0
1989,80.0,113.0,120.0,4.0,127.0
1990,78.0,233.0,120.0,2.0,127.0
1991,50.0,113.0,360.0,11.0,127.0
1992,58.0,0.0,450.0,6.0,127.0
1993,65.0,116.0,240.0,1.0,127.0
1994,77.0,4.0,450.0,1.0,127.0
1995,66.0,233.0,240.0,2.0,127.0
1996,48.0,0.0,120.0,8.0,127.0
1997,65.0,4.0,450.0,1.0,127.0
1998,46.0,116.0,240.0,6.0,127.0
1999,74.0,0.0,480.0,11.0,127.0
2000,68.0,643.0,480.0,4.0,127.0
2001,48.0,113.0,120.0,8.0,127.0
2002,50.0,0.0,120.0,11.0,127.0
2003,51.0,0.0,630.0,12.0,127.0
2004,66.0,0.0,630.0,2.0,127.0
2005,70.0,390.0,630.0,6.0,127.0
2006,63.0,0.0,630.0,12.0,127.0
2007,56.0,0.0,240.0,4.0,127.0
2008,63.0,0.0,240.0,12.0,127.0
2009,71.0,375.0,240.0,7.0,127.0
2010,68.0,0.0,240.0,4.0,127.0
2011,61.0,4.0,480.0,10.0,127.0
2012,68.0,0.0,630.0,4.0,127.0
2013,71.0,124.0,630.0,7.0,127.0
2014,53.0,121.0,360.0,1.0,127.0
2015,51.0,126.0,120.0,12.0,127.0
2016,49.0,125.0,240.0,10.0,127.0
2017,61.0,1.0,240.0,10.0,127.0
2018,71.0,0.0,240.0,7.0,127.0
2019,68.0,256.0,240.0,4.0,127.0
2020,51.0,124.0,120.0,12.0,127.0
2021,53.0,0.0,120.0,1.0,127.0
2022,61.0,0.0,510.0,10.0,127.0
2023,70.0,4.0,510.0,6.0,127.0
2024,66.0,124.0,390.0,2.0,127.0
2025,54.0,128.0,240.0,2.0,127.0
2026,54.0,0.0,240.0,2.0,127.0
2027,68.0,256.0,120.0,4.0,127.0
2028,58.0,4.0,510.0,6.0,127.0
2029,70.0,0.0,240.0,6.0,127.0
2030,54.0,128.0,240.0,2.0,127.0
2031,75.0,150.0,780.0,12.0,127.0
2032,54.0,268.0,240.0,2.0,127.0
2033,72.0,124.0,120.0,8.0,127.0
2034,70.0,0.0,120.0,6.0,127.0
2035,69.0,20.0,540.0,5.0,127.0
2036,60.0,15.0,660.0,8.0,127.0
2037,48.0,0.0,660.0,8.0,127.0
2038,78.0,113.0,120.0,2.0,127.0
2039,77.0,119.0,120.0,1.0,127.0
2040,75.0,134.0,120.0,12.0,127.0
2041,74.0,134.0,120.0,11.0,127.0
2042,75.0,132.0,120.0,12.0,127.0
2043,68.0,1.0,270.0,4.0,127.0
2044,63.0,0.0,270.0,12.0,127.0
2045,59.0,295.0,270.0,7.0,127.0
2046,77.0,0.0,120.0,1.0,127.0
2047,70.0,397.0,1170.0,6.0,127.0
2048,62.0,148.0,300.0,11.0,127.0
2049,58.0,0.0,1170.0,6.0,127.0
2050,78.0,148.0,450.0,2.0,127.0
2051,63.0,159.0,600.0,12.0,127.0
2052,80.0,76.0,150.0,4.0,127.0
2053,68.0,222.0,990.0,4.0,127.0
2054,78.0,74.0,60.0,2.0,127.0
2055,77.0,74.0,60.0,1.0,127.0
2056,78.0,72.0,60.0,2.0,127.0
2057,77.0,137.0,240.0,1.0,127.0
2058,62.0,0.0,300.0,11.0,127.0
2059,75.0,0.0,150.0,12.0,127.0
2060,51.0,76.0,2400.0,12.0,127.0
2061,63.0,0.0,2400.0,12.0,127.0
2062,70.0,0.0,390.0,6.0,127.0
2063,75.0,0.0,2400.0,12.0,127.0
2064,67.0,239.0,210.0,3.0,127.0
2065,65.0,1544.0,210.0,1.0,127.0
2066,67.0,2514.0,1590.0,3.0,127.0
2067,58.0,0.0,1590.0,6.0,127.0
2068,48.0,215.0,990.0,8.0,127.0
2069,75.0,993.0,1200.0,12.0,127.0
2070,78.0,6.0,780.0,2.0,127.0
2071,60.0,199.0,210.0,8.0,127.0
2072,68.0,16.0,1590.0,4.0,127.0
2073,58.0,192.0,210.0,6.0,127.0
2074,56.0,0.0,210.0,4.0,127.0
2075,61.0,199.0,990.0,10.0,127.0
2076,73.0,993.0,1200.0,10.0,127.0
2077,77.0,4.0,780.0,1.0,127.0
2078,58.0,199.0,210.0,6.0,127.0
2079,68.0,2.0,390.0,4.0,127.0
2080,56.0,192.0,210.0,4.0,127.0
2081,54.0,0.0,210.0,2.0,127.0
2082,53.0,215.0,990.0,1.0,127.0
2083,80.0,993.0,1200.0,4.0,127.0
2084,83.0,6.0,780.0,7.0,127.0
2085,65.0,199.0,210.0,1.0,127.0
2086,63.0,192.0,210.0,12.0,127.0
2087,73.0,16.0,1590.0,10.0,127.0
2088,61.0,0.0,210.0,10.0,127.0
2089,66.0,199.0,990.0,2.0,127.0
2090,78.0,1009.0,1200.0,2.0,127.0
2091,82.0,6.0,780.0,6.0,127.0
2092,63.0,199.0,210.0,12.0,127.0
2093,73.0,0.0,390.0,10.0,127.0
2094,61.0,192.0,210.0,10.0,127.0
2095,59.0,0.0,210.0,7.0,127.0
2096,76.0,199.0,1200.0,0.0,127.0
2097,58.0,199.0,990.0,6.0,127.0
2098,78.0,397.0,1590.0,2.0,127.0
2099,85.0,199.0,1590.0,10.0,127.0
2100,58.0,0.0,210.0,6.0,127.0
2101,76.0,397.0,390.0,0.0,127.0
2102,56.0,199.0,210.0,4.0,127.0
2103,54.0,0.0,210.0,2.0,127.0
2104,75.0,16.0,1200.0,12.0,127.0
2105,59.0,199.0,990.0,7.0,127.0
2106,78.0,0.0,1200.0,2.0,127.0
2107,83.0,6.0,780.0,7.0,127.0
2108,59.0,199.0,210.0,7.0,127.0
2109,61.0,192.0,210.0,10.0,127.0
2110,75.0,0.0,390.0,12.0,127.0
2111,63.0,993.0,210.0,12.0,127.0
2112,55.0,199.0,990.0,3.0,127.0
2113,73.0,16.0,1200.0,10.0,127.0
2114,75.0,397.0,1590.0,12.0,127.0
2115,82.0,199.0,1590.0,6.0,127.0
2116,55.0,199.0,210.0,3.0,127.0
2117,73.0,397.0,390.0,10.0,127.0
2118,53.0,199.0,210.0,1.0,127.0
2119,51.0,0.0,210.0,12.0,127.0
2120,71.0,16.0,1200.0,7.0,127.0
2121,56.0,199.0,990.0,4.0,127.0
2122,75.0,0.0,1200.0,12.0,127.0
2123,80.0,6.0,780.0,4.0,127.0
2124,54.0,199.0,210.0,2.0,127.0
2125,53.0,192.0,210.0,1.0,127.0
2126,71.0,0.0,390.0,7.0,127.0
2127,51.0,993.0,210.0,12.0,127.0
2128,50.0,199.0,990.0,11.0,127.0
2129,70.0,16.0,1200.0,6.0,127.0
2130,77.0,993.0,1200.0,1.0,127.0
2131,80.0,4.0,780.0,4.0,127.0
2132,62.0,199.0,210.0,11.0,127.0
2133,60.0,192.0,210.0,8.0,127.0
2134,74.0,2.0,390.0,11.0,127.0
2135,58.0,0.0,210.0,6.0,127.0
2136,63.0,215.0,990.0,12.0,127.0
2137,75.0,1009.0,1200.0,12.0,127.0
2138,78.0,6.0,780.0,2.0,127.0
2139,63.0,199.0,210.0,12.0,127.0
2140,71.0,0.0,390.0,7.0,127.0
2141,65.0,192.0,210.0,1.0,127.0
2142,66.0,0.0,210.0,2.0,127.0
2143,73.0,199.0,1200.0,10.0,127.0
2144,52.0,199.0,990.0,0.0,127.0
2145,78.0,199.0,1200.0,2.0,127.0
2146,82.0,6.0,780.0,6.0,127.0
2147,56.0,0.0,210.0,4.0,127.0
2148,73.0,0.0,390.0,10.0,127.0
2149,54.0,192.0,210.0,2.0,127.0
2150,52.0,0.0,210.0,0.0,127.0
2151,51.0,199.0,210.0,12.0,127.0
2152,75.0,6.0,780.0,12.0,127.0
2153,78.0,8.0,570.0,2.0,127.0
2154,63.0,199.0,210.0,12.0,127.0
2155,83.0,0.0,1200.0,7.0,127.0
2156,65.0,184.0,210.0,1.0,127.0
2157,66.0,596.0,210.0,2.0,127.0
2158,65.0,99.0,600.0,1.0,127.0
2159,80.0,0.0,1200.0,4.0,127.0
2160,73.0,0.0,780.0,10.0,127.0
2161,63.0,99.0,90.0,12.0,127.0
2162,61.0,199.0,90.0,10.0,127.0
2163,73.0,0.0,1590.0,10.0,127.0
2164,82.0,199.0,1590.0,6.0,127.0
2165,66.0,199.0,210.0,2.0,127.0
2166,56.0,199.0,210.0,4.0,127.0
2167,58.0,199.0,210.0,6.0,127.0
2168,78.0,201.0,2370.0,2.0,127.0
2169,59.0,596.0,210.0,7.0,127.0
2170,58.0,99.0,600.0,6.0,127.0
2171,56.0,99.0,90.0,4.0,127.0
2172,54.0,0.0,90.0,2.0,127.0
2173,59.0,199.0,210.0,7.0,127.0
2174,75.0,931.0,1590.0,12.0,127.0
2175,58.0,199.0,210.0,6.0,127.0
2176,60.0,199.0,210.0,8.0,127.0
2177,61.0,395.0,210.0,10.0,127.0
2178,60.0,99.0,600.0,8.0,127.0
2179,80.0,0.0,780.0,4.0,127.0
2180,58.0,99.0,90.0,6.0,127.0
2181,56.0,0.0,90.0,4.0,127.0
2182,61.0,69.0,1800.0,10.0,127.0
2183,73.0,64.0,870.0,10.0,127.0
2184,77.0,302.0,870.0,1.0,127.0
2185,80.0,298.0,1110.0,4.0,127.0
2186,85.0,207.0,300.0,10.0,127.0
2187,80.0,290.0,300.0,4.0,127.0
2188,82.0,288.0,300.0,6.0,127.0
2189,85.0,0.0,300.0,10.0,127.0
2190,77.0,0.0,300.0,1.0,127.0
2191,80.0,288.0,300.0,4.0,127.0
2192,73.0,288.0,300.0,10.0,127.0
2193,78.0,0.0,300.0,2.0,127.0
2194,82.0,0.0,300.0,6.0,127.0
2195,68.0,0.0,300.0,4.0,127.0
2196,73.0,0.0,300.0,10.0,127.0
2197,77.0,288.0,300.0,1.0,127.0
2198,66.0,0.0,300.0,2.0,127.0
2199,78.0,355.0,300.0,2.0,127.0
2200,70.0,0.0,300.0,6.0,127.0
2201,73.0,0.0,300.0,10.0,127.0
2202,77.0,0.0,360.0,1.0,127.0
2203,61.0,355.0,360.0,10.0,127.0
2204,68.0,0.0,360.0,4.0,127.0
2205,73.0,0.0,360.0,10.0,127.0
2206,75.0,29.0,390.0,12.0,127.0
2207,66.0,460.0,420.0,2.0,127.0
2208,72.0,0.0,360.0,8.0,127.0
2209,63.0,47.0,360.0,12.0,127.0
2210,58.0,153.0,1410.0,6.0,127.0
2211,66.0,80.0,870.0,2.0,127.0
2212,73.0,112.0,900.0,10.0,127.0
2213,75.0,426.0,330.0,12.0,127.0
2214,76.0,69.0,870.0,0.0,127.0
2215,78.0,201.0,180.0,2.0,127.0
2216,73.0,177.0,1050.0,10.0,127.0
2217,76.0,354.0,180.0,0.0,127.0
2218,75.0,0.0,1050.0,12.0,127.0
2219,66.0,177.0,180.0,2.0,127.0
2220,61.0,177.0,180.0,10.0,127.0
2221,63.0,0.0,180.0,12.0,127.0
2222,58.0,177.0,180.0,6.0,127.0
2223,71.0,26.0,360.0,7.0,127.0
2224,59.0,251.0,210.0,7.0,127.0
2225,53.0,197.0,270.0,1.0,127.0
2226,71.0,262.0,930.0,7.0,127.0
2227,80.0,462.0,450.0,4.0,127.0
2228,73.0,292.0,3000.0,10.0,127.0
2229,54.0,1642.0,3090.0,2.0,127.0
2230,78.0,30.0,2790.0,2.0,127.0
2231,42.0,22.0,2820.0,2.0,127.0
2232,70.0,246.0,240.0,6.0,127.0
2233,68.0,1574.0,240.0,4.0,127.0
2234,70.0,18.0,1890.0,6.0,127.0
2235,78.0,108.0,180.0,2.0,127.0
2236,78.0,105.0,90.0,2.0,127.0
2237,78.0,206.0,90.0,2.0,127.0
2238,78.0,209.0,180.0,2.0,127.0
2239,78.0,209.0,180.0,2.0,127.0
2240,78.0,209.0,180.0,2.0,127.0
2241,78.0,209.0,180.0,2.0,127.0
2242,82.0,209.0,180.0,6.0,127.0
2243,85.0,209.0,180.0,10.0,127.0
2244,78.0,209.0,180.0,2.0,127.0
2245,82.0,209.0,180.0,6.0,127.0
2246,85.0,209.0,180.0,10.0,127.0
2247,78.0,209.0,180.0,2.0,127.0
2248,82.0,108.0,180.0,6.0,127.0
2249,87.0,105.0,90.0,12.0,127.0
2250,85.0,105.0,90.0,10.0,127.0
2251,83.0,105.0,90.0,7.0,127.0
2252,82.0,206.0,90.0,6.0,127.0
2253,83.0,209.0,180.0,7.0,127.0
2254,87.0,209.0,180.0,12.0,127.0
2255,80.0,209.0,180.0,4.0,127.0
2256,83.0,209.0,180.0,7.0,127.0
2257,87.0,209.0,180.0,12.0,127.0
2258,80.0,209.0,180.0,4.0,127.0
2259,83.0,108.0,180.0,7.0,127.0
2260,85.0,105.0,90.0,10.0,127.0
2261,83.0,105.0,90.0,7.0,127.0
2262,82.0,105.0,90.0,6.0,127.0
2263,80.0,206.0,90.0,4.0,127.0
2264,82.0,209.0,180.0,6.0,127.0
2265,85.0,209.0,180.0,10.0,127.0
2266,78.0,209.0,180.0,2.0,127.0
2267,80.0,209.0,180.0,4.0,127.0
2268,83.0,209.0,180.0,7.0,127.0
2269,77.0,209.0,180.0,1.0,127.0
2270,78.0,209.0,180.0,2.0,127.0
2271,82.0,209.0,180.0,6.0,127.0
2272,75.0,209.0,180.0,12.0,127.0
2273,77.0,209.0,180.0,1.0,127.0
2274,80.0,209.0,180.0,4.0,127.0
2275,73.0,209.0,180.0,10.0,127.0
2276,73.0,108.0,180.0,10.0,127.0
2277,73.0,105.0,90.0,10.0,127.0
2278,73.0,206.0,90.0,10.0,127.0
2279,73.0,209.0,180.0,10.0,127.0
2280,75.0,0.0,180.0,12.0,127.0
2281,73.0,209.0,180.0,10.0,127.0
2282,77.0,0.0,180.0,1.0,127.0
2283,73.0,209.0,180.0,10.0,127.0
2284,80.0,0.0,180.0,4.0,127.0
2285,73.0,209.0,180.0,10.0,127.0
2286,85.0,0.0,180.0,10.0,127.0
2287,77.0,209.0,180.0,1.0,127.0
2288,80.0,209.0,180.0,4.0,127.0
2289,73.0,209.0,180.0,10.0,127.0
2290,85.0,209.0,180.0,10.0,127.0
2291,77.0,0.0,180.0,1.0,127.0
2292,80.0,209.0,180.0,4.0,127.0
2293,73.0,209.0,180.0,10.0,127.0
2294,86.0,108.0,180.0,11.0,127.0
2295,77.0,0.0,180.0,1.0,127.0
2296,82.0,105.0,90.0,6.0,127.0
2297,80.0,105.0,90.0,4.0,127.0
2298,78.0,105.0,90.0,2.0,127.0
2299,77.0,206.0,90.0,1.0,127.0
2300,78.0,0.0,180.0,2.0,127.0
2301,87.0,209.0,180.0,12.0,127.0
2302,82.0,209.0,180.0,6.0,127.0
2303,75.0,209.0,180.0,12.0,127.0
2304,78.0,209.0,180.0,2.0,127.0
2305,87.0,0.0,180.0,12.0,127.0
2306,82.0,209.0,180.0,6.0,127.0
2307,75.0,209.0,180.0,12.0,127.0
2308,84.0,108.0,180.0,8.0,127.0
2309,78.0,0.0,180.0,2.0,127.0
2310,80.0,105.0,90.0,4.0,127.0
2311,78.0,105.0,90.0,2.0,127.0
2312,77.0,105.0,90.0,1.0,127.0
2313,75.0,206.0,90.0,12.0,127.0
2314,85.0,209.0,180.0,10.0,127.0
2315,77.0,0.0,180.0,1.0,127.0
2316,80.0,209.0,180.0,4.0,127.0
2317,73.0,209.0,180.0,10.0,127.0
2318,82.0,0.0,180.0,6.0,127.0
2319,75.0,209.0,180.0,12.0,127.0
2320,78.0,0.0,180.0,2.0,127.0
2321,78.0,209.0,180.0,2.0,127.0
2322,80.0,209.0,180.0,4.0,127.0
2323,72.0,0.0,180.0,8.0,127.0
2324,77.0,209.0,180.0,1.0,127.0
2325,73.0,0.0,180.0,10.0,127.0
2326,77.0,209.0,180.0,1.0,127.0
2327,70.0,0.0,180.0,6.0,127.0
2328,78.0,209.0,180.0,2.0,127.0
2329,75.0,209.0,180.0,12.0,127.0
2330,71.0,0.0,180.0,7.0,127.0
2331,75.0,209.0,180.0,12.0,127.0
2332,68.0,209.0,180.0,4.0,127.0
2333,77.0,0.0,180.0,1.0,127.0
2334,70.0,209.0,180.0,6.0,127.0
2335,73.0,0.0,180.0,10.0,127.0
2336,73.0,209.0,180.0,10.0,127.0
2337,66.0,209.0,180.0,2.0,127.0
2338,75.0,0.0,180.0,12.0,127.0
2339,71.0,0.0,180.0,7.0,127.0
2340,68.0,209.0,180.0,4.0,127.0
2341,71.0,209.0,180.0,7.0,127.0
2342,65.0,209.0,180.0,1.0,127.0
2343,73.0,0.0,180.0,10.0,127.0
2344,66.0,108.0,180.0,2.0,127.0
2345,70.0,0.0,420.0,6.0,127.0
2346,66.0,105.0,90.0,2.0,127.0
2347,66.0,206.0,90.0,2.0,127.0
2348,66.0,209.0,180.0,2.0,127.0
2349,71.0,0.0,180.0,7.0,127.0
2350,68.0,0.0,180.0,4.0,127.0
2351,66.0,0.0,180.0,2.0,127.0
2352,70.0,209.0,180.0,6.0,127.0
2353,73.0,0.0,180.0,10.0,127.0
2354,73.0,0.0,180.0,10.0,127.0
2355,66.0,209.0,180.0,2.0,127.0
2356,66.0,209.0,180.0,2.0,127.0
2357,70.0,209.0,180.0,6.0,127.0
2358,85.0,0.0,180.0,10.0,127.0
2359,78.0,209.0,390.0,2.0,127.0
2360,82.0,206.0,420.0,6.0,127.0
2361,73.0,0.0,180.0,10.0,127.0
2362,66.0,3.0,180.0,2.0,127.0
2363,70.0,209.0,180.0,6.0,127.0
2364,85.0,0.0,180.0,10.0,127.0
2365,78.0,209.0,390.0,2.0,127.0
2366,82.0,206.0,420.0,6.0,127.0
2367,73.0,0.0,180.0,10.0,127.0
2368,66.0,3.0,180.0,2.0,127.0
2369,85.0,0.0,180.0,10.0,127.0
2370,79.0,3.0,420.0,3.0,127.0
2371,70.0,108.0,180.0,6.0,127.0
2372,75.0,102.0,90.0,12.0,127.0
2373,82.0,206.0,420.0,6.0,127.0
2374,73.0,105.0,90.0,10.0,127.0
2375,71.0,105.0,90.0,7.0,127.0
2376,70.0,0.0,90.0,6.0,127.0
2377,71.0,209.0,180.0,7.0,127.0
2378,80.0,209.0,390.0,4.0,127.0
2379,87.0,0.0,180.0,12.0,127.0
2380,83.0,206.0,420.0,7.0,127.0
2381,75.0,0.0,180.0,12.0,127.0
2382,68.0,3.0,180.0,4.0,127.0
2383,71.0,209.0,180.0,7.0,127.0
2384,87.0,0.0,180.0,12.0,127.0
2385,80.0,0.0,390.0,4.0,127.0
2386,83.0,206.0,420.0,7.0,127.0
2387,75.0,209.0,180.0,12.0,127.0
2388,68.0,3.0,180.0,4.0,127.0
2389,71.0,100.0,180.0,7.0,127.0
2390,77.0,0.0,300.0,1.0,127.0
2391,80.0,8.0,300.0,4.0,127.0
2392,73.0,105.0,90.0,10.0,127.0
2393,71.0,105.0,90.0,7.0,127.0
2394,70.0,105.0,90.0,6.0,127.0
2395,68.0,206.0,90.0,4.0,127.0
2396,70.0,209.0,180.0,6.0,127.0
2397,78.0,0.0,390.0,2.0,127.0
2398,85.0,0.0,180.0,10.0,127.0
2399,82.0,209.0,390.0,6.0,127.0
2400,73.0,209.0,180.0,10.0,127.0
2401,66.0,0.0,180.0,2.0,127.0
2402,75.0,0.0,180.0,12.0,127.0
2403,68.0,2.0,180.0,4.0,127.0
2404,80.0,206.0,420.0,4.0,127.0
2405,71.0,211.0,210.0,7.0,127.0
2406,71.0,209.0,420.0,7.0,127.0
2407,65.0,0.0,180.0,1.0,127.0
2408,73.0,0.0,180.0,10.0,127.0
2409,66.0,2.0,180.0,2.0,127.0
2410,73.0,206.0,420.0,10.0,127.0
2411,70.0,207.0,210.0,6.0,127.0
2412,70.0,3.0,180.0,6.0,127.0
2413,68.0,209.0,180.0,4.0,127.0
2414,72.0,0.0,180.0,8.0,127.0
2415,75.0,206.0,630.0,12.0,127.0
2416,65.0,2.0,180.0,1.0,127.0
2417,68.0,207.0,210.0,4.0,127.0
2418,68.0,3.0,180.0,4.0,127.0
2419,70.0,0.0,180.0,6.0,127.0
2420,61.0,422.0,180.0,10.0,127.0
2421,73.0,106.0,630.0,10.0,127.0
2422,63.0,0.0,420.0,12.0,127.0
2423,66.0,100.0,510.0,2.0,127.0
2424,72.0,206.0,420.0,8.0,127.0
2425,56.0,3.0,180.0,4.0,127.0
2426,73.0,0.0,180.0,10.0,127.0
2427,65.0,209.0,180.0,1.0,127.0
2428,61.0,206.0,420.0,10.0,127.0
2429,75.0,3.0,180.0,12.0,127.0
2430,66.0,0.0,180.0,2.0,127.0
2431,77.0,0.0,180.0,1.0,127.0
2432,61.0,209.0,180.0,10.0,127.0
2433,68.0,0.0,180.0,4.0,127.0
2434,58.0,206.0,420.0,6.0,127.0
2435,78.0,3.0,390.0,2.0,127.0
2436,70.0,209.0,180.0,6.0,127.0
2437,73.0,0.0,180.0,10.0,127.0
2438,68.0,0.0,180.0,4.0,127.0
2439,77.0,0.0,180.0,1.0,127.0
2440,61.0,209.0,180.0,10.0,127.0
2441,54.0,206.0,420.0,2.0,127.0
2442,78.0,3.0,390.0,2.0,127.0
2443,70.0,209.0,180.0,6.0,127.0
2444,73.0,0.0,180.0,10.0,127.0
2445,68.0,0.0,180.0,4.0,127.0
2446,77.0,0.0,180.0,1.0,127.0
2447,61.0,209.0,180.0,10.0,127.0
2448,58.0,206.0,420.0,6.0,127.0
2449,78.0,0.0,390.0,2.0,127.0
2450,70.0,209.0,180.0,6.0,127.0
2451,73.0,3.0,180.0,10.0,127.0
2452,61.0,209.0,180.0,10.0,127.0
2453,77.0,0.0,180.0,1.0,127.0
2454,68.0,0.0,180.0,4.0,127.0
2455,54.0,209.0,180.0,2.0,127.0
2456,78.0,209.0,390.0,2.0,127.0
2457,70.0,0.0,180.0,6.0,127.0
2458,56.0,0.0,180.0,4.0,127.0
2459,71.0,0.0,180.0,7.0,127.0
2460,58.0,209.0,180.0,6.0,127.0
2461,77.0,0.0,180.0,1.0,127.0
2462,73.0,0.0,180.0,10.0,127.0
2463,75.0,0.0,420.0,12.0,127.0
2464,59.0,209.0,180.0,7.0,127.0
2465,71.0,206.0,420.0,7.0,127.0
2466,63.0,3.0,180.0,12.0,127.0
2467,54.0,0.0,180.0,2.0,127.0
2468,70.0,209.0,180.0,6.0,127.0
2469,78.0,0.0,180.0,2.0,127.0
2470,75.0,206.0,420.0,12.0,127.0
2471,59.0,209.0,180.0,7.0,127.0
2472,71.0,0.0,420.0,7.0,127.0
2473,63.0,3.0,180.0,12.0,127.0
2474,56.0,209.0,180.0,4.0,127.0
2475,80.0,0.0,180.0,4.0,127.0
2476,72.0,0.0,180.0,8.0,127.0
2477,73.0,0.0,420.0,10.0,127.0
2478,77.0,206.0,420.0,1.0,127.0
2479,61.0,209.0,180.0,10.0,127.0
2480,65.0,3.0,180.0,1.0,127.0
2481,56.0,0.0,180.0,4.0,127.0
2482,72.0,0.0,180.0,8.0,127.0
2483,80.0,209.0,180.0,4.0,127.0
2484,73.0,209.0,390.0,10.0,127.0
2485,61.0,209.0,180.0,10.0,127.0
2486,77.0,0.0,180.0,1.0,127.0
2487,63.0,0.0,180.0,12.0,127.0
2488,78.0,0.0,180.0,2.0,127.0
2489,80.0,0.0,180.0,4.0,127.0
2490,65.0,209.0,180.0,1.0,127.0
2491,73.0,0.0,180.0,10.0,127.0
2492,66.0,206.0,420.0,2.0,127.0
2493,78.0,209.0,180.0,2.0,127.0
2494,70.0,0.0,180.0,6.0,127.0
2495,85.0,3.0,180.0,10.0,127.0
2496,77.0,209.0,180.0,1.0,127.0
2497,61.0,0.0,180.0,10.0,127.0
2498,73.0,0.0,180.0,10.0,127.0
2499,68.0,0.0,180.0,4.0,127.0
2500,63.0,206.0,420.0,12.0,127.0
2501,70.0,0.0,390.0,6.0,127.0
2502,78.0,209.0,180.0,2.0,127.0
2503,82.0,3.0,180.0,6.0,127.0
2504,61.0,209.0,180.0,10.0,127.0
2505,77.0,0.0,180.0,1.0,127.0
2506,73.0,0.0,180.0,10.0,127.0
2507,78.0,209.0,180.0,2.0,127.0
2508,66.0,206.0,420.0,2.0,127.0
2509,70.0,0.0,180.0,6.0,127.0
2510,85.0,3.0,180.0,10.0,127.0
2511,61.0,0.0,180.0,10.0,127.0
2512,68.0,0.0,180.0,4.0,127.0
2513,77.0,209.0,180.0,1.0,127.0
2514,73.0,0.0,180.0,10.0,127.0
2515,63.0,206.0,420.0,12.0,127.0
2516,78.0,209.0,180.0,2.0,127.0
2517,70.0,3.0,390.0,6.0,127.0
2518,82.0,0.0,180.0,6.0,127.0
2519,61.0,0.0,180.0,10.0,127.0
2520,73.0,0.0,180.0,10.0,127.0
2521,77.0,209.0,180.0,1.0,127.0
2522,54.0,108.0,180.0,2.0,127.0
2523,66.0,3.0,420.0,2.0,127.0
2524,78.0,206.0,630.0,2.0,127.0
2525,70.0,0.0,630.0,6.0,127.0
2526,54.0,102.0,90.0,2.0,127.0
2527,54.0,206.0,90.0,2.0,127.0
2528,54.0,3.0,180.0,2.0,127.0
2529,61.0,0.0,180.0,10.0,127.0
2530,54.0,209.0,180.0,2.0,127.0
2531,58.0,209.0,390.0,6.0,127.0
2532,54.0,0.0,180.0,2.0,127.0
2533,66.0,209.0,180.0,2.0,127.0
2534,54.0,0.0,180.0,2.0,127.0
2535,58.0,0.0,180.0,6.0,127.0
2536,66.0,209.0,390.0,2.0,127.0
2537,73.0,209.0,180.0,10.0,127.0
2538,70.0,206.0,420.0,6.0,127.0
2539,61.0,0.0,180.0,10.0,127.0
2540,54.0,3.0,180.0,2.0,127.0
2541,58.0,0.0,180.0,6.0,127.0
2542,66.0,209.0,390.0,2.0,127.0
2543,73.0,209.0,180.0,10.0,127.0
2544,61.0,0.0,180.0,10.0,127.0
2545,70.0,206.0,420.0,6.0,127.0
2546,54.0,3.0,180.0,2.0,127.0
2547,58.0,0.0,180.0,6.0,127.0
2548,67.0,3.0,420.0,3.0,127.0
2549,73.0,108.0,180.0,10.0,127.0
2550,63.0,102.0,90.0,12.0,127.0
2551,70.0,0.0,420.0,6.0,127.0
2552,61.0,105.0,90.0,10.0,127.0
2553,59.0,105.0,90.0,7.0,127.0
2554,58.0,206.0,90.0,6.0,127.0
2555,68.0,209.0,390.0,4.0,127.0
2556,59.0,209.0,180.0,7.0,127.0
2557,75.0,0.0,180.0,12.0,127.0
2558,63.0,0.0,180.0,12.0,127.0
2559,71.0,206.0,420.0,7.0,127.0
2560,56.0,3.0,180.0,4.0,127.0
2561,75.0,0.0,180.0,12.0,127.0
2562,59.0,209.0,180.0,7.0,127.0
2563,68.0,209.0,390.0,4.0,127.0
2564,63.0,0.0,180.0,12.0,127.0
2565,71.0,206.0,420.0,7.0,127.0
2566,56.0,3.0,180.0,4.0,127.0
2567,68.0,8.0,300.0,4.0,127.0
2568,65.0,0.0,300.0,1.0,127.0
2569,59.0,100.0,180.0,7.0,127.0
2570,61.0,105.0,90.0,10.0,127.0
2571,59.0,105.0,90.0,7.0,127.0
2572,58.0,105.0,90.0,6.0,127.0
2573,56.0,206.0,90.0,4.0,127.0
2574,58.0,209.0,180.0,6.0,127.0
2575,66.0,209.0,390.0,2.0,127.0
2576,73.0,0.0,180.0,10.0,127.0
2577,61.0,0.0,180.0,10.0,127.0
2578,70.0,206.0,420.0,6.0,127.0
2579,54.0,3.0,180.0,2.0,127.0
2580,71.0,0.0,180.0,7.0,127.0
2581,56.0,209.0,180.0,4.0,127.0
2582,65.0,209.0,390.0,1.0,127.0
2583,59.0,0.0,180.0,7.0,127.0
2584,68.0,206.0,420.0,4.0,127.0
2585,53.0,3.0,180.0,1.0,127.0
2586,63.0,209.0,390.0,12.0,127.0
2587,54.0,0.0,180.0,2.0,127.0
2588,70.0,209.0,180.0,6.0,127.0
2589,58.0,0.0,180.0,6.0,127.0
2590,66.0,206.0,420.0,2.0,127.0
2591,51.0,3.0,180.0,12.0,127.0
2592,68.0,206.0,420.0,4.0,127.0
2593,61.0,0.0,180.0,10.0,127.0
2594,53.0,209.0,180.0,1.0,127.0
2595,60.0,3.0,180.0,8.0,127.0
2596,56.0,0.0,180.0,4.0,127.0
2597,48.0,0.0,180.0,8.0,127.0
2598,63.0,0.0,180.0,12.0,127.0
2599,68.0,209.0,180.0,4.0,127.0
2600,61.0,0.0,390.0,10.0,127.0
2601,49.0,209.0,180.0,10.0,127.0
2602,65.0,0.0,180.0,1.0,127.0
2603,51.0,209.0,180.0,12.0,127.0
2604,66.0,0.0,180.0,2.0,127.0
2605,61.0,0.0,180.0,10.0,127.0
2606,53.0,209.0,180.0,1.0,127.0
2607,68.0,0.0,180.0,4.0,127.0
2608,61.0,0.0,180.0,10.0,127.0
2609,54.0,209.0,180.0,2.0,127.0
2610,70.0,0.0,180.0,6.0,127.0
2611,71.0,0.0,180.0,7.0,127.0
2612,56.0,209.0,180.0,4.0,127.0
2613,66.0,0.0,180.0,2.0,127.0
2614,58.0,209.0,180.0,6.0,127.0
2615,73.0,0.0,180.0,10.0,127.0
2616,66.0,209.0,180.0,2.0,127.0
2617,63.0,206.0,420.0,12.0,127.0
2618,59.0,0.0,420.0,7.0,127.0
2619,68.0,3.0,180.0,4.0,127.0
2620,58.0,0.0,180.0,6.0,127.0
2621,61.0,209.0,180.0,10.0,127.0
2622,70.0,0.0,180.0,6.0,127.0
2623,56.0,0.0,420.0,4.0,127.0
2624,71.0,209.0,180.0,7.0,127.0
2625,59.0,206.0,420.0,7.0,127.0
2626,73.0,3.0,180.0,10.0,127.0
2627,75.0,209.0,180.0,12.0,127.0
2628,58.0,0.0,180.0,6.0,127.0
2629,54.0,0.0,180.0,2.0,127.0
2630,73.0,209.0,180.0,10.0,127.0
2631,56.0,206.0,420.0,4.0,127.0
2632,53.0,206.0,630.0,1.0,127.0
2633,77.0,3.0,180.0,1.0,127.0
2634,61.0,3.0,180.0,10.0,127.0
2635,68.0,0.0,180.0,4.0,127.0
2636,70.0,209.0,180.0,6.0,127.0
2637,58.0,206.0,420.0,6.0,127.0
2638,54.0,208.0,630.0,2.0,127.0
2639,73.0,3.0,180.0,10.0,127.0
2640,58.0,3.0,180.0,6.0,127.0
2641,66.0,0.0,180.0,2.0,127.0
2642,63.0,207.0,210.0,12.0,127.0
2643,47.0,209.0,390.0,7.0,127.0
2644,59.0,0.0,390.0,7.0,127.0
2645,63.0,0.0,180.0,12.0,127.0
2646,49.0,209.0,180.0,10.0,127.0
2647,56.0,0.0,180.0,4.0,127.0
2648,65.0,0.0,180.0,1.0,127.0
2649,66.0,206.0,420.0,2.0,127.0
2650,54.0,209.0,180.0,2.0,127.0
2651,58.0,0.0,180.0,6.0,127.0
2652,58.0,3.0,180.0,6.0,127.0
2653,60.0,0.0,180.0,8.0,127.0
2654,51.0,0.0,180.0,12.0,127.0
2655,66.0,209.0,180.0,2.0,127.0
2656,73.0,108.0,180.0,10.0,127.0
2657,49.0,206.0,420.0,10.0,127.0
2658,61.0,0.0,420.0,10.0,127.0
2659,65.0,3.0,420.0,1.0,127.0
2660,73.0,102.0,90.0,10.0,127.0
2661,73.0,0.0,90.0,10.0,127.0
2662,73.0,0.0,180.0,10.0,127.0
2663,51.0,209.0,180.0,12.0,127.0
2664,53.0,209.0,180.0,1.0,127.0
2665,68.0,0.0,390.0,4.0,127.0
2666,73.0,0.0,180.0,10.0,127.0
2667,56.0,0.0,180.0,4.0,127.0
2668,73.0,209.0,180.0,10.0,127.0
2669,49.0,209.0,180.0,10.0,127.0
2670,73.0,0.0,180.0,10.0,127.0
2671,68.0,209.0,180.0,4.0,127.0
2672,61.0,0.0,390.0,10.0,127.0
2673,77.0,0.0,180.0,1.0,127.0
2674,65.0,206.0,420.0,1.0,127.0
2675,80.0,209.0,180.0,4.0,127.0
2676,73.0,3.0,180.0,10.0,127.0
2677,68.0,209.0,180.0,4.0,127.0
2678,61.0,209.0,390.0,10.0,127.0
2679,77.0,0.0,180.0,1.0,127.0
2680,65.0,206.0,420.0,1.0,127.0
2681,80.0,0.0,180.0,4.0,127.0
2682,73.0,3.0,180.0,10.0,127.0
2683,68.0,108.0,180.0,4.0,127.0
2684,77.0,0.0,180.0,1.0,127.0
2685,62.0,3.0,420.0,11.0,127.0
2686,65.0,206.0,420.0,1.0,127.0
2687,82.0,102.0,90.0,6.0,127.0
2688,80.0,105.0,90.0,4.0,127.0
2689,78.0,105.0,90.0,2.0,127.0
2690,77.0,0.0,90.0,1.0,127.0
2691,70.0,209.0,180.0,6.0,127.0
2692,63.0,209.0,390.0,12.0,127.0
2693,78.0,0.0,180.0,2.0,127.0
2694,82.0,0.0,180.0,6.0,127.0
2695,66.0,206.0,420.0,2.0,127.0
2696,75.0,3.0,180.0,12.0,127.0
2697,63.0,0.0,390.0,12.0,127.0
2698,70.0,209.0,180.0,6.0,127.0
2699,78.0,0.0,180.0,2.0,127.0
2700,66.0,206.0,420.0,2.0,127.0
2701,82.0,209.0,180.0,6.0,127.0
2702,75.0,3.0,180.0,12.0,127.0
2703,63.0,8.0,300.0,12.0,127.0
2704,60.0,0.0,300.0,8.0,127.0
2705,78.0,100.0,180.0,2.0,127.0
2706,80.0,105.0,90.0,4.0,127.0
2707,78.0,105.0,90.0,2.0,127.0
2708,77.0,105.0,90.0,1.0,127.0
2709,75.0,206.0,90.0,12.0,127.0
2710,68.0,209.0,180.0,4.0,127.0
2711,61.0,0.0,390.0,10.0,127.0
2712,77.0,0.0,180.0,1.0,127.0
2713,65.0,206.0,420.0,1.0,127.0
2714,80.0,209.0,180.0,4.0,127.0
2715,73.0,3.0,180.0,10.0,127.0
2716,54.0,209.0,390.0,2.0,127.0
2717,66.0,209.0,180.0,2.0,127.0
2718,75.0,0.0,180.0,12.0,127.0
2719,63.0,209.0,390.0,12.0,127.0
2720,78.0,0.0,180.0,2.0,127.0
2721,56.0,0.0,180.0,4.0,127.0
2722,72.0,0.0,180.0,8.0,127.0
2723,53.0,209.0,390.0,1.0,127.0
2724,65.0,209.0,180.0,1.0,127.0
2725,73.0,0.0,180.0,10.0,127.0
2726,77.0,0.0,180.0,1.0,127.0
2727,61.0,209.0,390.0,10.0,127.0
2728,54.0,0.0,180.0,2.0,127.0
2729,70.0,0.0,180.0,6.0,127.0
2730,51.0,209.0,390.0,12.0,127.0
2731,63.0,0.0,180.0,12.0,127.0
2732,72.0,209.0,180.0,8.0,127.0
2733,60.0,0.0,390.0,8.0,127.0
2734,75.0,0.0,180.0,12.0,127.0
2735,53.0,214.0,180.0,1.0,127.0
2736,69.0,0.0,180.0,5.0,127.0
2737,70.0,210.0,210.0,6.0,127.0
2738,58.0,0.0,420.0,6.0,127.0
2739,61.0,207.0,420.0,10.0,127.0
2740,77.0,3.0,210.0,1.0,127.0
2741,65.0,210.0,210.0,1.0,127.0
2742,73.0,0.0,210.0,10.0,127.0
2743,61.0,207.0,420.0,10.0,127.0
2744,58.0,0.0,420.0,6.0,127.0
2745,70.0,210.0,210.0,6.0,127.0
2746,78.0,3.0,210.0,2.0,127.0
2747,66.0,210.0,210.0,2.0,127.0
2748,73.0,0.0,210.0,10.0,127.0
2749,60.0,0.0,420.0,8.0,127.0
2750,63.0,207.0,420.0,12.0,127.0
2751,75.0,210.0,210.0,12.0,127.0
2752,78.0,3.0,210.0,2.0,127.0
2753,68.0,210.0,210.0,4.0,127.0
2754,75.0,0.0,210.0,12.0,127.0
2755,56.0,207.0,420.0,4.0,127.0
2756,63.0,0.0,420.0,12.0,127.0
2757,72.0,210.0,210.0,8.0,127.0
2758,80.0,3.0,210.0,4.0,127.0
2759,60.0,210.0,210.0,8.0,127.0
2760,75.0,0.0,210.0,12.0,127.0
2761,61.0,0.0,420.0,10.0,127.0
2762,56.0,207.0,420.0,4.0,127.0
2763,77.0,210.0,210.0,1.0,127.0
2764,80.0,3.0,210.0,4.0,127.0
2765,60.0,210.0,210.0,8.0,127.0
2766,75.0,0.0,210.0,12.0,127.0
2767,56.0,207.0,420.0,4.0,127.0
2768,61.0,0.0,420.0,10.0,127.0
2769,77.0,210.0,210.0,1.0,127.0
2770,80.0,3.0,210.0,4.0,127.0
2771,61.0,212.0,210.0,10.0,127.0
2772,77.0,0.0,210.0,1.0,127.0
2773,61.0,206.0,420.0,10.0,127.0
2774,58.0,0.0,420.0,6.0,127.0
2775,78.0,210.0,210.0,2.0,127.0
2776,82.0,3.0,210.0,6.0,127.0
2777,59.0,210.0,210.0,7.0,127.0
2778,75.0,0.0,210.0,12.0,127.0
2779,68.0,0.0,210.0,4.0,127.0
2780,56.0,210.0,420.0,4.0,127.0
2781,77.0,210.0,210.0,1.0,127.0
2782,65.0,210.0,420.0,1.0,127.0
2783,80.0,0.0,210.0,4.0,127.0
2784,58.0,0.0,210.0,6.0,127.0
2785,74.0,0.0,210.0,11.0,127.0
2786,70.0,0.0,210.0,6.0,127.0
2787,75.0,108.0,210.0,12.0,127.0
2788,66.0,0.0,420.0,2.0,127.0
2789,63.0,0.0,420.0,12.0,127.0
2790,70.0,104.0,90.0,6.0,127.0
2791,70.0,206.0,90.0,6.0,127.0
2792,65.0,0.0,210.0,1.0,127.0
2793,62.0,210.0,210.0,11.0,127.0
2794,82.0,0.0,210.0,6.0,127.0
2795,70.0,0.0,210.0,6.0,127.0
2796,63.0,210.0,420.0,12.0,127.0
2797,78.0,210.0,210.0,2.0,127.0
2798,70.0,0.0,210.0,6.0,127.0
2799,70.0,0.0,210.0,6.0,127.0
2800,70.0,210.0,210.0,6.0,127.0
2801,65.0,210.0,210.0,1.0,127.0
2802,58.0,210.0,420.0,6.0,127.0
2803,73.0,0.0,210.0,10.0,127.0
2804,61.0,206.0,420.0,10.0,127.0
2805,77.0,0.0,210.0,1.0,127.0
2806,70.0,3.0,210.0,6.0,127.0
2807,73.0,0.0,210.0,10.0,127.0
2808,56.0,210.0,420.0,4.0,127.0
2809,65.0,210.0,210.0,1.0,127.0
2810,61.0,206.0,420.0,10.0,127.0
2811,77.0,0.0,210.0,1.0,127.0
2812,70.0,3.0,210.0,6.0,127.0
2813,54.0,3.0,420.0,2.0,127.0
2814,66.0,108.0,210.0,2.0,127.0
2815,75.0,0.0,210.0,12.0,127.0
2816,63.0,0.0,420.0,12.0,127.0
2817,78.0,101.0,90.0,2.0,127.0
2818,77.0,104.0,90.0,1.0,127.0
2819,75.0,104.0,90.0,12.0,127.0
2820,73.0,206.0,90.0,10.0,127.0
2821,63.0,210.0,210.0,12.0,127.0
2822,56.0,210.0,420.0,4.0,127.0
2823,72.0,0.0,210.0,8.0,127.0
2824,60.0,206.0,420.0,8.0,127.0
2825,75.0,0.0,210.0,12.0,127.0
2826,68.0,3.0,210.0,4.0,127.0
2827,65.0,108.0,210.0,1.0,127.0
2828,73.0,0.0,210.0,10.0,127.0
2829,53.0,3.0,420.0,1.0,127.0
2830,61.0,206.0,420.0,10.0,127.0
2831,77.0,101.0,90.0,1.0,127.0
2832,75.0,104.0,90.0,12.0,127.0
2833,73.0,104.0,90.0,10.0,127.0
2834,71.0,0.0,90.0,7.0,127.0
2835,61.0,210.0,210.0,10.0,127.0
2836,54.0,210.0,420.0,2.0,127.0
2837,70.0,0.0,210.0,6.0,127.0
2838,58.0,206.0,420.0,6.0,127.0
2839,73.0,0.0,210.0,10.0,127.0
2840,66.0,3.0,210.0,2.0,127.0
2841,71.0,0.0,210.0,7.0,127.0
2842,51.0,3.0,420.0,12.0,127.0
2843,63.0,108.0,210.0,12.0,127.0
2844,59.0,0.0,420.0,7.0,127.0
2845,75.0,101.0,90.0,12.0,127.0
2846,73.0,104.0,90.0,10.0,127.0
2847,71.0,104.0,90.0,7.0,127.0
2848,70.0,206.0,90.0,6.0,127.0
2849,59.0,0.0,210.0,7.0,127.0
2850,71.0,0.0,210.0,7.0,127.0
2851,56.0,108.0,210.0,4.0,127.0
2852,53.0,206.0,420.0,1.0,127.0
2853,56.0,0.0,420.0,4.0,127.0
2854,73.0,104.0,90.0,10.0,127.0
2855,71.0,104.0,90.0,7.0,127.0
2856,70.0,104.0,90.0,6.0,127.0
2857,68.0,0.0,90.0,4.0,127.0
2858,54.0,206.0,420.0,2.0,127.0
2859,70.0,210.0,210.0,6.0,127.0
2860,73.0,3.0,210.0,10.0,127.0
2861,61.0,210.0,210.0,10.0,127.0
2862,65.0,0.0,210.0,1.0,127.0
2863,58.0,206.0,420.0,6.0,127.0
2864,66.0,210.0,210.0,2.0,127.0
2865,70.0,3.0,210.0,6.0,127.0
2866,58.0,210.0,210.0,6.0,127.0
2867,66.0,0.0,210.0,2.0,127.0
2868,54.0,206.0,420.0,2.0,127.0
2869,75.0,210.0,210.0,12.0,127.0
2870,78.0,3.0,210.0,2.0,127.0
2871,70.0,210.0,210.0,6.0,127.0
2872,66.0,0.0,210.0,2.0,127.0
2873,63.0,210.0,210.0,12.0,127.0
2874,71.0,0.0,210.0,7.0,127.0
2875,59.0,206.0,420.0,7.0,127.0
2876,75.0,210.0,210.0,12.0,127.0
2877,68.0,3.0,210.0,4.0,127.0
2878,61.0,108.0,210.0,10.0,127.0
2879,70.0,0.0,210.0,6.0,127.0
2880,54.0,3.0,420.0,2.0,127.0
2881,61.0,101.0,90.0,10.0,127.0
2882,73.0,0.0,210.0,10.0,127.0
2883,61.0,206.0,90.0,10.0,127.0
2884,65.0,0.0,210.0,1.0,127.0
2885,61.0,210.0,210.0,10.0,127.0
2886,49.0,0.0,210.0,10.0,127.0
2887,46.0,0.0,420.0,6.0,127.0
2888,61.0,210.0,210.0,10.0,127.0
2889,66.0,0.0,420.0,2.0,127.0
2890,61.0,210.0,210.0,10.0,127.0
2891,61.0,210.0,210.0,10.0,127.0
2892,80.0,0.0,210.0,4.0,127.0
2893,61.0,210.0,420.0,10.0,127.0
2894,65.0,210.0,210.0,1.0,127.0
2895,68.0,0.0,210.0,4.0,127.0
2896,77.0,206.0,420.0,1.0,127.0
2897,61.0,3.0,210.0,10.0,127.0
2898,80.0,0.0,210.0,4.0,127.0
2899,65.0,210.0,210.0,1.0,127.0
2900,61.0,210.0,420.0,10.0,127.0
2901,68.0,0.0,210.0,4.0,127.0
2902,77.0,206.0,420.0,1.0,127.0
2903,61.0,3.0,210.0,10.0,127.0
2904,62.0,3.0,420.0,11.0,127.0
2905,65.0,0.0,210.0,1.0,127.0
2906,80.0,108.0,210.0,4.0,127.0
2907,70.0,101.0,90.0,6.0,127.0
2908,77.0,0.0,420.0,1.0,127.0
2909,68.0,104.0,90.0,4.0,127.0
2910,66.0,104.0,90.0,2.0,127.0
2911,65.0,206.0,90.0,1.0,127.0
2912,63.0,210.0,420.0,12.0,127.0
2913,66.0,210.0,210.0,2.0,127.0
2914,82.0,0.0,210.0,6.0,127.0
2915,70.0,0.0,210.0,6.0,127.0
2916,78.0,206.0,420.0,2.0,127.0
2917,63.0,3.0,210.0,12.0,127.0
2918,66.0,210.0,210.0,2.0,127.0
2919,82.0,0.0,210.0,6.0,127.0
2920,63.0,210.0,420.0,12.0,127.0
2921,70.0,0.0,210.0,6.0,127.0
2922,78.0,206.0,420.0,2.0,127.0
2923,63.0,3.0,210.0,12.0,127.0
2924,60.0,3.0,420.0,8.0,127.0
2925,75.0,0.0,420.0,12.0,127.0
2926,66.0,108.0,210.0,2.0,127.0
2927,68.0,101.0,90.0,4.0,127.0
2928,66.0,104.0,90.0,2.0,127.0
2929,65.0,104.0,90.0,1.0,127.0
2930,63.0,206.0,90.0,12.0,127.0
2931,65.0,210.0,210.0,1.0,127.0
2932,61.0,210.0,420.0,10.0,127.0
2933,80.0,0.0,210.0,4.0,127.0
2934,68.0,0.0,210.0,4.0,127.0
2935,77.0,206.0,420.0,1.0,127.0
2936,61.0,3.0,210.0,10.0,127.0
2937,78.0,0.0,210.0,2.0,127.0
2938,63.0,210.0,210.0,12.0,127.0
2939,60.0,210.0,420.0,8.0,127.0
2940,66.0,0.0,210.0,2.0,127.0
2941,75.0,206.0,420.0,12.0,127.0
2942,60.0,3.0,210.0,8.0,127.0
2943,77.0,210.0,210.0,1.0,127.0
2944,58.0,0.0,420.0,6.0,127.0
2945,61.0,0.0,210.0,10.0,127.0
2946,73.0,206.0,420.0,10.0,127.0
2947,65.0,210.0,210.0,1.0,127.0
2948,58.0,3.0,210.0,6.0,127.0
2949,56.0,0.0,420.0,4.0,127.0
2950,60.0,210.0,210.0,8.0,127.0
2951,75.0,0.0,210.0,12.0,127.0
2952,63.0,210.0,210.0,12.0,127.0
2953,72.0,206.0,420.0,8.0,127.0
2954,56.0,3.0,210.0,4.0,127.0
2955,61.0,210.0,210.0,10.0,127.0
2956,58.0,0.0,210.0,6.0,127.0
2957,73.0,0.0,210.0,10.0,127.0
2958,75.0,210.0,210.0,12.0,127.0
2959,55.0,206.0,420.0,3.0,127.0
2960,58.0,0.0,420.0,6.0,127.0
2961,73.0,3.0,210.0,10.0,127.0
2962,63.0,0.0,510.0,12.0,127.0
2963,56.0,100.0,510.0,4.0,127.0
2964,72.0,210.0,210.0,8.0,127.0
2965,70.0,109.0,210.0,6.0,127.0
2966,68.0,214.0,210.0,4.0,127.0
2967,68.0,209.0,210.0,4.0,127.0
2968,71.0,0.0,210.0,7.0,127.0
2969,65.0,206.0,420.0,1.0,127.0
2970,73.0,209.0,210.0,10.0,127.0
2971,71.0,3.0,210.0,7.0,127.0
2972,66.0,209.0,210.0,2.0,127.0
2973,70.0,0.0,210.0,6.0,127.0
2974,63.0,206.0,420.0,12.0,127.0
2975,71.0,209.0,210.0,7.0,127.0
2976,70.0,3.0,210.0,6.0,127.0
2977,64.0,0.0,210.0,0.0,127.0
2978,68.0,209.0,210.0,4.0,127.0
2979,70.0,209.0,210.0,6.0,127.0
2980,61.0,206.0,420.0,10.0,127.0
2981,68.0,3.0,210.0,4.0,127.0
2982,63.0,209.0,210.0,12.0,127.0
2983,67.0,0.0,210.0,3.0,127.0
2984,63.0,0.0,210.0,12.0,127.0
2985,61.0,209.0,210.0,10.0,127.0
2986,59.0,198.0,210.0,7.0,127.0
2987,68.0,195.0,420.0,4.0,127.0
2988,61.0,14.0,180.0,10.0,127.0
2989,58.0,209.0,180.0,6.0,127.0
2990,70.0,0.0,180.0,6.0,127.0
2991,67.0,0.0,180.0,3.0,127.0
2992,63.0,209.0,180.0,12.0,127.0
2993,44.0,108.0,180.0,4.0,127.0
2994,59.0,3.0,420.0,7.0,127.0
2995,68.0,0.0,420.0,4.0,127.0
2996,44.0,102.0,90.0,4.0,127.0
2997,44.0,206.0,90.0,4.0,127.0
2998,44.0,209.0,180.0,4.0,127.0
2999,75.0,0.0,180.0,12.0,127.0
3000,44.0,209.0,180.0,4.0,127.0
3001,71.0,206.0,420.0,7.0,127.0
3002,44.0,3.0,180.0,4.0,127.0
3003,44.0,209.0,180.0,4.0,127.0
3004,71.0,0.0,180.0,7.0,127.0
3005,68.0,206.0,420.0,4.0,127.0
3006,47.0,209.0,180.0,7.0,127.0
3007,51.0,3.0,180.0,12.0,127.0
3008,44.0,209.0,180.0,4.0,127.0
3009,71.0,0.0,180.0,7.0,127.0
3010,47.0,209.0,180.0,7.0,127.0
3011,68.0,206.0,420.0,4.0,127.0
3012,51.0,3.0,180.0,12.0,127.0
3013,71.0,0.0,180.0,7.0,127.0
3014,44.0,209.0,180.0,4.0,127.0
3015,47.0,108.0,180.0,7.0,127.0
3016,68.0,0.0,420.0,4.0,127.0
3017,52.0,105.0,90.0,0.0,127.0
3018,51.0,105.0,90.0,12.0,127.0
3019,49.0,102.0,90.0,10.0,127.0
3020,70.0,3.0,210.0,6.0,127.0
3021,47.0,206.0,90.0,7.0,127.0
3022,46.0,209.0,180.0,6.0,127.0
3023,67.0,206.0,420.0,3.0,127.0
3024,51.0,3.0,180.0,12.0,127.0
3025,49.0,209.0,180.0,10.0,127.0
3026,82.0,0.0,180.0,6.0,127.0
3027,47.0,209.0,180.0,7.0,127.0
3028,75.0,0.0,180.0,12.0,127.0
3029,56.0,209.0,180.0,4.0,127.0
3030,71.0,0.0,180.0,7.0,127.0
3031,80.0,209.0,180.0,4.0,127.0
3032,59.0,0.0,180.0,7.0,127.0
3033,58.0,209.0,180.0,6.0,127.0
3034,73.0,0.0,180.0,10.0,127.0
3035,63.0,209.0,180.0,12.0,127.0
3036,70.0,0.0,180.0,6.0,127.0
3037,79.0,0.0,180.0,3.0,127.0
3038,51.0,209.0,180.0,12.0,127.0
3039,56.0,209.0,180.0,4.0,127.0
3040,71.0,0.0,180.0,7.0,127.0
3041,59.0,209.0,180.0,7.0,127.0
3042,68.0,0.0,180.0,4.0,127.0
3043,56.0,0.0,180.0,4.0,127.0
3044,76.0,209.0,180.0,0.0,127.0
3045,58.0,209.0,180.0,6.0,127.0
3046,73.0,0.0,180.0,10.0,127.0
3047,55.0,209.0,180.0,3.0,127.0
3048,70.0,0.0,180.0,6.0,127.0
3049,51.0,209.0,180.0,12.0,127.0
3050,75.0,0.0,180.0,12.0,127.0
3051,56.0,209.0,180.0,4.0,127.0
3052,71.0,0.0,180.0,7.0,127.0
3053,53.0,209.0,180.0,1.0,127.0
3054,68.0,0.0,180.0,4.0,127.0
3055,49.0,209.0,180.0,10.0,127.0
3056,73.0,0.0,180.0,10.0,127.0
3057,54.0,0.0,180.0,2.0,127.0
3058,70.0,209.0,180.0,6.0,127.0
3059,58.0,209.0,180.0,6.0,127.0
3060,66.0,0.0,180.0,2.0,127.0
3061,53.0,209.0,180.0,1.0,127.0
3062,73.0,0.0,180.0,10.0,127.0
3063,54.0,0.0,180.0,2.0,127.0
3064,70.0,209.0,180.0,6.0,127.0
3065,58.0,209.0,180.0,6.0,127.0
3066,73.0,0.0,180.0,10.0,127.0
3067,61.0,2.0,180.0,10.0,127.0
3068,70.0,207.0,210.0,6.0,127.0
3069,66.0,209.0,180.0,2.0,127.0
3070,58.0,0.0,180.0,6.0,127.0
3071,73.0,209.0,180.0,10.0,127.0
3072,61.0,2.0,180.0,10.0,127.0
3073,70.0,207.0,210.0,6.0,127.0
3074,54.0,209.0,180.0,2.0,127.0
3075,49.0,209.0,180.0,10.0,127.0
3076,70.0,0.0,180.0,6.0,127.0
3077,66.0,207.0,210.0,2.0,127.0
3078,58.0,2.0,180.0,6.0,127.0
3079,54.0,209.0,180.0,2.0,127.0
3080,49.0,209.0,180.0,10.0,127.0
3081,70.0,0.0,180.0,6.0,127.0
3082,58.0,209.0,180.0,6.0,127.0
3083,66.0,0.0,180.0,2.0,127.0
3084,64.0,0.0,180.0,0.0,127.0
3085,56.0,209.0,180.0,4.0,127.0
3086,58.0,209.0,180.0,6.0,127.0
3087,61.0,0.0,180.0,10.0,127.0
3088,54.0,209.0,180.0,2.0,127.0
3089,66.0,0.0,180.0,2.0,127.0
3090,78.0,0.0,180.0,2.0,127.0
3091,59.0,2.0,420.0,7.0,127.0
3092,63.0,108.0,180.0,12.0,127.0
3093,66.0,1.0,210.0,2.0,127.0
3094,78.0,102.0,90.0,2.0,127.0
3095,78.0,206.0,90.0,2.0,127.0
3096,78.0,0.0,180.0,2.0,127.0
3097,63.0,209.0,180.0,12.0,127.0
3098,58.0,209.0,390.0,6.0,127.0
3099,78.0,209.0,180.0,2.0,127.0
3100,61.0,0.0,180.0,10.0,127.0
3101,78.0,0.0,180.0,2.0,127.0
3102,58.0,0.0,180.0,6.0,127.0
3103,54.0,209.0,180.0,2.0,127.0
3104,78.0,0.0,180.0,2.0,127.0
3105,73.0,0.0,180.0,10.0,127.0
3106,66.0,209.0,390.0,2.0,127.0
3107,82.0,209.0,180.0,6.0,127.0
3108,85.0,0.0,180.0,10.0,127.0
3109,70.0,209.0,390.0,6.0,127.0
3110,78.0,0.0,180.0,2.0,127.0
3111,82.0,0.0,180.0,6.0,127.0
3112,66.0,209.0,390.0,2.0,127.0
3113,73.0,209.0,180.0,10.0,127.0
3114,70.0,209.0,390.0,6.0,127.0
3115,85.0,0.0,180.0,10.0,127.0
3116,78.0,0.0,180.0,2.0,127.0
3117,82.0,108.0,180.0,6.0,127.0
3118,67.0,3.0,420.0,3.0,127.0
3119,73.0,0.0,180.0,10.0,127.0
3120,70.0,3.0,420.0,6.0,127.0
3121,87.0,102.0,90.0,12.0,127.0
3122,85.0,105.0,90.0,10.0,127.0
3123,83.0,102.0,90.0,7.0,127.0
3124,82.0,206.0,90.0,6.0,127.0
3125,68.0,209.0,390.0,4.0,127.0
3126,75.0,209.0,180.0,12.0,127.0
3127,83.0,0.0,180.0,7.0,127.0
3128,87.0,0.0,180.0,12.0,127.0
3129,71.0,0.0,390.0,7.0,127.0
3130,80.0,209.0,180.0,4.0,127.0
3131,75.0,0.0,180.0,12.0,127.0
3132,68.0,209.0,390.0,4.0,127.0
3133,83.0,209.0,180.0,7.0,127.0
3134,71.0,209.0,390.0,7.0,127.0
3135,87.0,0.0,180.0,12.0,127.0
3136,80.0,0.0,180.0,4.0,127.0
3137,83.0,108.0,180.0,7.0,127.0
3138,68.0,0.0,420.0,4.0,127.0
3139,65.0,3.0,420.0,1.0,127.0
3140,85.0,102.0,90.0,10.0,127.0
3141,83.0,105.0,90.0,7.0,127.0
3142,82.0,105.0,90.0,6.0,127.0
3143,80.0,206.0,90.0,4.0,127.0
3144,82.0,209.0,180.0,6.0,127.0
3145,73.0,0.0,180.0,10.0,127.0
3146,66.0,209.0,390.0,2.0,127.0
3147,70.0,209.0,390.0,6.0,127.0
3148,85.0,0.0,180.0,10.0,127.0
3149,78.0,0.0,180.0,2.0,127.0
3150,80.0,0.0,180.0,4.0,127.0
3151,59.0,206.0,420.0,7.0,127.0
3152,71.0,209.0,180.0,7.0,127.0
3153,83.0,3.0,180.0,7.0,127.0
3154,68.0,0.0,390.0,4.0,127.0
3155,61.0,209.0,180.0,10.0,127.0
3156,77.0,0.0,180.0,1.0,127.0
3157,78.0,0.0,180.0,2.0,127.0
3158,58.0,206.0,420.0,6.0,127.0
3159,70.0,209.0,180.0,6.0,127.0
3160,66.0,209.0,390.0,2.0,127.0
3161,82.0,3.0,180.0,6.0,127.0
3162,59.0,0.0,180.0,7.0,127.0
3163,75.0,0.0,180.0,12.0,127.0
3164,56.0,206.0,420.0,4.0,127.0
3165,77.0,0.0,180.0,1.0,127.0
3166,68.0,209.0,180.0,4.0,127.0
3167,80.0,3.0,180.0,4.0,127.0
3168,65.0,209.0,390.0,1.0,127.0
3169,58.0,0.0,180.0,6.0,127.0
3170,73.0,0.0,180.0,10.0,127.0
3171,75.0,0.0,180.0,12.0,127.0
3172,66.0,209.0,180.0,2.0,127.0
3173,54.0,206.0,420.0,2.0,127.0
3174,63.0,0.0,390.0,12.0,127.0
3175,78.0,3.0,180.0,2.0,127.0
3176,56.0,209.0,180.0,4.0,127.0
3177,72.0,0.0,180.0,8.0,127.0
3178,73.0,0.0,390.0,10.0,127.0
3179,65.0,209.0,180.0,1.0,127.0
3180,61.0,209.0,390.0,10.0,127.0
3181,68.0,0.0,180.0,4.0,127.0
3182,77.0,209.0,180.0,1.0,127.0
3183,61.0,0.0,180.0,10.0,127.0
3184,73.0,0.0,390.0,10.0,127.0
3185,58.0,209.0,390.0,6.0,127.0
3186,66.0,209.0,180.0,2.0,127.0
3187,70.0,0.0,180.0,6.0,127.0
3188,78.0,209.0,180.0,2.0,127.0
3189,61.0,0.0,180.0,10.0,127.0
3190,68.0,209.0,180.0,4.0,127.0
3191,59.0,209.0,390.0,7.0,127.0
3192,75.0,0.0,390.0,12.0,127.0
3193,71.0,0.0,180.0,7.0,127.0
3194,80.0,209.0,180.0,4.0,127.0
3195,63.0,0.0,180.0,12.0,127.0
3196,77.0,0.0,390.0,1.0,127.0
3197,61.0,209.0,390.0,10.0,127.0
3198,70.0,209.0,180.0,6.0,127.0
3199,73.0,0.0,180.0,10.0,127.0
3200,82.0,209.0,180.0,6.0,127.0
3201,65.0,0.0,180.0,1.0,127.0
3202,70.0,209.0,180.0,6.0,127.0
3203,63.0,206.0,420.0,12.0,127.0
3204,78.0,0.0,180.0,2.0,127.0
3205,66.0,3.0,180.0,2.0,127.0
3206,75.0,0.0,180.0,12.0,127.0
3207,65.0,0.0,180.0,1.0,127.0
3208,68.0,209.0,180.0,4.0,127.0
3209,70.0,0.0,180.0,6.0,127.0
3210,66.0,209.0,180.0,2.0,127.0
3211,65.0,209.0,180.0,1.0,127.0
3212,68.0,0.0,180.0,4.0,127.0
3213,67.0,209.0,180.0,3.0,127.0
3214,70.0,0.0,180.0,6.0,127.0
3215,68.0,209.0,390.0,4.0,127.0
3216,71.0,209.0,180.0,7.0,127.0
3217,87.0,0.0,180.0,12.0,127.0
3218,83.0,0.0,180.0,7.0,127.0
3219,75.0,0.0,180.0,12.0,127.0
3220,68.0,209.0,180.0,4.0,127.0
3221,65.0,0.0,390.0,1.0,127.0
3222,68.0,209.0,180.0,4.0,127.0
3223,73.0,209.0,180.0,10.0,127.0
3224,68.0,209.0,180.0,4.0,127.0
3225,66.0,0.0,390.0,2.0,127.0
3226,70.0,209.0,180.0,6.0,127.0
3227,85.0,0.0,180.0,10.0,127.0
3228,82.0,209.0,180.0,6.0,127.0
3229,73.0,0.0,180.0,10.0,127.0
3230,70.0,209.0,180.0,6.0,127.0
3231,63.0,209.0,390.0,12.0,127.0
3232,66.0,209.0,180.0,2.0,127.0
3233,71.0,0.0,180.0,7.0,127.0
3234,66.0,209.0,180.0,2.0,127.0
3235,68.0,0.0,180.0,4.0,127.0
3236,83.0,209.0,180.0,7.0,127.0
3237,65.0,209.0,390.0,1.0,127.0
3238,71.0,0.0,180.0,7.0,127.0
3239,80.0,0.0,180.0,4.0,127.0
3240,68.0,209.0,180.0,4.0,127.0
3241,62.0,206.0,630.0,11.0,127.0
3242,65.0,209.0,180.0,1.0,127.0
3243,70.0,209.0,180.0,6.0,127.0
3244,65.0,3.0,180.0,1.0,127.0
3245,63.0,209.0,180.0,12.0,127.0
3246,66.0,0.0,180.0,2.0,127.0
3247,82.0,0.0,180.0,6.0,127.0
3248,65.0,209.0,180.0,1.0,127.0
3249,78.0,0.0,180.0,2.0,127.0
3250,67.0,209.0,180.0,3.0,127.0
3251,87.0,0.0,180.0,12.0,127.0
3252,68.0,206.0,420.0,4.0,127.0
3253,75.0,209.0,180.0,12.0,127.0
3254,83.0,0.0,180.0,7.0,127.0
3255,80.0,0.0,180.0,4.0,127.0
3256,71.0,3.0,180.0,7.0,127.0
3257,67.0,209.0,180.0,3.0,127.0
3258,82.0,0.0,180.0,6.0,127.0
3259,68.0,209.0,180.0,4.0,127.0
3260,83.0,0.0,180.0,7.0,127.0
3261,66.0,209.0,180.0,2.0,127.0
3262,80.0,0.0,180.0,4.0,127.0
3263,65.0,209.0,180.0,1.0,127.0
3264,85.0,0.0,180.0,10.0,127.0
3265,73.0,0.0,180.0,10.0,127.0
3266,66.0,206.0,420.0,2.0,127.0
3267,82.0,209.0,180.0,6.0,127.0
3268,70.0,3.0,180.0,6.0,127.0
3269,78.0,0.0,180.0,2.0,127.0
3270,65.0,0.0,180.0,1.0,127.0
3271,80.0,209.0,180.0,4.0,127.0
3272,66.0,206.0,420.0,2.0,127.0
3273,73.0,209.0,180.0,10.0,127.0
3274,82.0,0.0,180.0,6.0,127.0
3275,78.0,3.0,180.0,2.0,127.0
3276,70.0,0.0,180.0,6.0,127.0
3277,80.0,0.0,180.0,4.0,127.0
3278,75.0,220.0,420.0,12.0,127.0
3279,59.0,219.0,180.0,7.0,127.0
3280,61.0,219.0,660.0,10.0,127.0
3281,77.0,220.0,420.0,1.0,127.0
3282,73.0,216.0,660.0,10.0,127.0
3283,82.0,3.0,210.0,6.0,127.0
3284,61.0,219.0,660.0,10.0,127.0
3285,75.0,220.0,420.0,12.0,127.0
3286,71.0,216.0,660.0,7.0,127.0
3287,80.0,3.0,210.0,4.0,127.0
3288,61.0,216.0,420.0,10.0,127.0
3289,73.0,3.0,420.0,10.0,127.0
3290,70.0,216.0,660.0,6.0,127.0
3291,61.0,223.0,210.0,10.0,127.0
3292,78.0,0.0,210.0,2.0,127.0
3293,59.0,216.0,420.0,7.0,127.0
3294,75.0,3.0,420.0,12.0,127.0
3295,68.0,216.0,660.0,4.0,127.0
3296,77.0,223.0,210.0,1.0,127.0
3297,61.0,0.0,210.0,10.0,127.0
3298,58.0,216.0,420.0,6.0,127.0
3299,73.0,3.0,420.0,10.0,127.0
3300,66.0,216.0,870.0,2.0,127.0
3301,59.0,0.0,210.0,7.0,127.0
3302,75.0,220.0,210.0,12.0,127.0
3303,61.0,0.0,420.0,10.0,127.0
3304,68.0,220.0,210.0,4.0,127.0
3305,70.0,3.0,210.0,6.0,127.0
3306,49.0,0.0,210.0,10.0,127.0
3307,65.0,230.0,210.0,1.0,127.0
3308,71.0,0.0,210.0,7.0,127.0
3309,54.0,119.0,210.0,2.0,127.0
3310,70.0,227.0,450.0,6.0,127.0
3311,66.0,0.0,450.0,2.0,127.0
3312,54.0,115.0,90.0,2.0,127.0
3313,54.0,0.0,90.0,2.0,127.0
3314,68.0,0.0,210.0,4.0,127.0
3315,54.0,231.0,210.0,2.0,127.0
3316,71.0,0.0,210.0,7.0,127.0
3317,54.0,231.0,210.0,2.0,127.0
3318,70.0,0.0,210.0,6.0,127.0
3319,73.0,0.0,210.0,10.0,127.0
3320,54.0,231.0,210.0,2.0,127.0
3321,73.0,0.0,210.0,10.0,127.0
3322,66.0,0.0,210.0,2.0,127.0
3323,54.0,231.0,210.0,2.0,127.0
3324,58.0,231.0,210.0,6.0,127.0
3325,54.0,0.0,450.0,2.0,127.0
3326,78.0,0.0,450.0,2.0,127.0
3327,73.0,0.0,210.0,10.0,127.0
3328,61.0,231.0,210.0,10.0,127.0
3329,70.0,227.0,450.0,6.0,127.0
3330,54.0,4.0,210.0,2.0,127.0
3331,58.0,231.0,210.0,6.0,127.0
3332,54.0,0.0,450.0,2.0,127.0
3333,78.0,0.0,450.0,2.0,127.0
3334,73.0,0.0,210.0,10.0,127.0
3335,61.0,231.0,210.0,10.0,127.0
3336,70.0,227.0,450.0,6.0,127.0
3337,54.0,4.0,210.0,2.0,127.0
3338,59.0,231.0,210.0,7.0,127.0
3339,54.0,0.0,450.0,2.0,127.0
3340,87.0,0.0,210.0,12.0,127.0
3341,78.0,231.0,450.0,2.0,127.0
3342,63.0,0.0,210.0,12.0,127.0
3343,83.0,227.0,450.0,7.0,127.0
3344,54.0,4.0,210.0,2.0,127.0
3345,59.0,231.0,210.0,7.0,127.0
3346,54.0,231.0,450.0,2.0,127.0
3347,87.0,0.0,210.0,12.0,127.0
3348,78.0,0.0,450.0,2.0,127.0
3349,83.0,227.0,450.0,7.0,127.0
3350,63.0,0.0,210.0,12.0,127.0
3351,54.0,4.0,210.0,2.0,127.0
3352,58.0,0.0,210.0,6.0,127.0
3353,54.0,2.0,450.0,2.0,127.0
3354,85.0,231.0,210.0,10.0,127.0
3355,78.0,0.0,450.0,2.0,127.0
3356,61.0,363.0,210.0,10.0,127.0
3357,82.0,0.0,210.0,6.0,127.0
3358,85.0,703.0,360.0,10.0,127.0
3359,58.0,0.0,690.0,6.0,127.0
3360,54.0,0.0,690.0,2.0,127.0
3361,66.0,0.0,690.0,2.0,127.0
3362,73.0,0.0,690.0,10.0,127.0
3363,82.0,0.0,690.0,6.0,127.0
3364,78.0,4867.0,690.0,2.0,127.0
3365,61.0,0.0,690.0,10.0,127.0
