,note,step,duration,channel,velocity
0,73.0,87.0,90.0,0.0,0.0
1,75.0,87.0,90.0,0.0,0.0
2,77.0,88.0,90.0,0.0,0.0
3,78.0,87.0,90.0,0.0,0.0
4,80.0,87.0,90.0,0.0,0.0
5,82.0,87.0,90.0,0.0,0.0
6,83.0,174.0,90.0,0.0,0.0
7,85.0,1.0,180.0,0.0,0.0
8,80.0,173.0,90.0,0.0,0.0
9,82.0,1.0,180.0,0.0,0.0
10,85.0,1.0,180.0,0.0,0.0
11,77.0,173.0,90.0,0.0,0.0
12,78.0,1.0,180.0,0.0,0.0
13,82.0,173.0,180.0,0.0,0.0
14,85.0,0.0,180.0,0.0,0.0
15,71.0,0.0,90.0,0.0,0.0
16,82.0,0.0,180.0,0.0,0.0
17,78.0,1.0,180.0,0.0,0.0
18,85.0,0.0,180.0,0.0,0.0
19,73.0,1.0,180.0,0.0,0.0
20,68.0,110.0,90.0,0.0,0.0
21,82.0,0.0,690.0,0.0,0.0
22,85.0,29.0,690.0,0.0,0.0
23,70.0,93.0,120.0,0.0,0.0
24,78.0,0.0,690.0,0.0,0.0
25,73.0,32.0,360.0,0.0,0.0
26,66.0,88.0,90.0,0.0,0.0
27,68.0,55.0,90.0,0.0,0.0
28,70.0,87.0,90.0,0.0,0.0
29,71.0,87.0,90.0,0.0,0.0
30,73.0,88.0,90.0,0.0,0.0
31,75.0,58.0,90.0,0.0,0.0
32,77.0,173.0,90.0,0.0,0.0
33,78.0,1.0,180.0,0.0,0.0
34,71.0,174.0,90.0,0.0,0.0
35,78.0,173.0,180.0,0.0,0.0
36,73.0,1.0,180.0,0.0,0.0
37,68.0,0.0,90.0,0.0,0.0
38,78.0,0.0,180.0,0.0,0.0
39,73.0,1.0,180.0,0.0,0.0
40,70.0,1.0,180.0,0.0,0.0
41,65.0,87.0,90.0,0.0,0.0
42,73.0,0.0,180.0,0.0,0.0
43,66.0,87.0,90.0,0.0,0.0
44,78.0,0.0,180.0,0.0,0.0
45,70.0,128.0,180.0,0.0,0.0
46,65.0,0.0,90.0,0.0,0.0
47,70.0,47.0,360.0,0.0,0.0
48,73.0,44.0,600.0,0.0,0.0
49,78.0,44.0,690.0,0.0,0.0
50,66.0,90.0,120.0,0.0,0.0
51,61.0,88.0,90.0,0.0,0.0
52,63.0,40.0,90.0,0.0,0.0
53,65.0,87.0,90.0,0.0,0.0
54,66.0,87.0,90.0,0.0,0.0
55,68.0,44.0,90.0,0.0,0.0
56,70.0,43.0,90.0,0.0,0.0
57,71.0,173.0,90.0,0.0,0.0
58,73.0,1.0,180.0,0.0,0.0
59,68.0,174.0,90.0,0.0,0.0
60,70.0,1.0,180.0,0.0,0.0
61,73.0,173.0,180.0,0.0,0.0
62,65.0,0.0,90.0,0.0,0.0
63,66.0,1.0,180.0,0.0,0.0
64,73.0,0.0,180.0,0.0,0.0
65,70.0,1.0,180.0,0.0,0.0
66,59.0,173.0,90.0,0.0,0.0
67,61.0,1.0,180.0,0.0,0.0
68,70.0,15.0,180.0,0.0,0.0
69,73.0,0.0,180.0,0.0,0.0
70,66.0,0.0,180.0,0.0,0.0
71,56.0,104.0,90.0,0.0,0.0
72,66.0,30.0,600.0,0.0,0.0
73,70.0,0.0,690.0,0.0,0.0
74,61.0,32.0,360.0,0.0,0.0
75,73.0,29.0,690.0,0.0,0.0
76,58.0,85.0,120.0,0.0,0.0
77,54.0,87.0,90.0,0.0,0.0
78,56.0,55.0,90.0,0.0,0.0
79,58.0,88.0,90.0,0.0,0.0
80,59.0,87.0,90.0,0.0,0.0
81,61.0,57.0,90.0,0.0,0.0
82,63.0,58.0,90.0,0.0,0.0
83,65.0,174.0,90.0,0.0,0.0
84,66.0,1.0,180.0,0.0,0.0
85,59.0,173.0,90.0,0.0,0.0
86,61.0,1.0,180.0,0.0,0.0
87,66.0,0.0,180.0,0.0,0.0
88,56.0,174.0,90.0,0.0,0.0
89,58.0,1.0,180.0,0.0,0.0
90,66.0,0.0,180.0,0.0,0.0
91,61.0,0.0,180.0,0.0,0.0
92,53.0,87.0,90.0,0.0,0.0
93,54.0,87.0,90.0,0.0,0.0
94,61.0,0.0,180.0,0.0,0.0
95,66.0,1.0,180.0,0.0,0.0
96,58.0,0.0,180.0,0.0,0.0
97,53.0,128.0,90.0,0.0,0.0
98,58.0,46.0,360.0,0.0,0.0
99,66.0,43.0,690.0,0.0,0.0
100,61.0,44.0,600.0,0.0,0.0
101,54.0,90.0,120.0,0.0,0.0
102,49.0,87.0,90.0,0.0,0.0
103,51.0,41.0,90.0,0.0,0.0
104,53.0,88.0,90.0,0.0,0.0
105,54.0,87.0,90.0,0.0,0.0
106,56.0,43.0,90.0,0.0,0.0
107,58.0,44.0,90.0,0.0,0.0
108,59.0,174.0,90.0,0.0,0.0
109,61.0,1.0,180.0,0.0,0.0
110,56.0,173.0,90.0,0.0,0.0
111,61.0,0.0,180.0,0.0,0.0
112,58.0,1.0,180.0,0.0,0.0
113,53.0,174.0,90.0,0.0,0.0
114,58.0,173.0,180.0,0.0,0.0
115,61.0,0.0,180.0,0.0,0.0
116,54.0,1.0,180.0,0.0,0.0
117,47.0,0.0,90.0,0.0,0.0
118,49.0,1.0,180.0,0.0,0.0
119,61.0,0.0,180.0,0.0,0.0
120,58.0,0.0,180.0,0.0,0.0
121,54.0,1.0,180.0,0.0,0.0
122,44.0,58.0,90.0,0.0,0.0
123,49.0,29.0,240.0,0.0,0.0
124,58.0,29.0,450.0,0.0,0.0
125,54.0,28.0,450.0,0.0,0.0
126,61.0,40.0,570.0,0.0,0.0
127,46.0,73.0,60.0,0.0,0.0
128,42.0,72.0,60.0,0.0,0.0
129,44.0,29.0,60.0,0.0,0.0
130,46.0,59.0,60.0,0.0,0.0
131,47.0,58.0,60.0,0.0,0.0
132,49.0,58.0,60.0,0.0,0.0
133,51.0,1.0,60.0,0.0,0.0
134,53.0,58.0,60.0,0.0,0.0
135,54.0,19.0,60.0,0.0,0.0
136,56.0,58.0,60.0,0.0,0.0
137,58.0,58.0,60.0,0.0,0.0
138,59.0,58.0,60.0,0.0,0.0
139,61.0,58.0,60.0,0.0,0.0
140,63.0,58.0,60.0,0.0,0.0
141,65.0,59.0,60.0,0.0,0.0
142,66.0,173.0,60.0,0.0,0.0
143,58.0,16.0,180.0,0.0,0.0
144,61.0,14.0,300.0,0.0,0.0
145,54.0,58.0,60.0,0.0,0.0
146,56.0,44.0,60.0,0.0,0.0
147,58.0,58.0,60.0,0.0,0.0
148,59.0,58.0,60.0,0.0,0.0
149,61.0,59.0,60.0,0.0,0.0
150,63.0,58.0,60.0,0.0,0.0
151,65.0,58.0,60.0,0.0,0.0
152,66.0,58.0,60.0,0.0,0.0
153,68.0,58.0,60.0,0.0,0.0
154,70.0,59.0,60.0,0.0,0.0
155,71.0,58.0,60.0,0.0,0.0
156,73.0,58.0,60.0,0.0,0.0
157,75.0,58.0,60.0,0.0,0.0
158,77.0,58.0,60.0,0.0,0.0
159,78.0,866.0,60.0,0.0,0.0
160,48.0,205.0,870.0,0.0,0.0
161,80.0,2.0,870.0,0.0,0.0
162,75.0,3.0,840.0,0.0,0.0
163,66.0,437.0,780.0,0.0,0.0
164,60.0,29.0,510.0,0.0,0.0
165,56.0,71.0,90.0,0.0,0.0
166,58.0,77.0,60.0,0.0,0.0
167,60.0,76.0,60.0,0.0,0.0
168,61.0,76.0,60.0,0.0,0.0
169,63.0,76.0,60.0,0.0,0.0
170,65.0,190.0,60.0,0.0,0.0
171,66.0,117.0,180.0,0.0,0.0
172,68.0,52.0,120.0,0.0,0.0
173,48.0,34.0,150.0,0.0,0.0
174,63.0,0.0,60.0,0.0,0.0
175,66.0,50.0,60.0,0.0,0.0
176,56.0,37.0,90.0,0.0,0.0
177,68.0,50.0,60.0,0.0,0.0
178,48.0,26.0,90.0,0.0,0.0
179,56.0,43.0,90.0,0.0,0.0
180,63.0,0.0,60.0,0.0,0.0
181,66.0,50.0,60.0,0.0,0.0
182,68.0,56.0,60.0,0.0,0.0
183,48.0,18.0,120.0,0.0,0.0
184,66.0,0.0,60.0,0.0,0.0
185,63.0,56.0,60.0,0.0,0.0
186,56.0,7.0,120.0,0.0,0.0
187,48.0,8.0,120.0,0.0,0.0
188,68.0,56.0,60.0,0.0,0.0
189,56.0,7.0,120.0,0.0,0.0
190,66.0,56.0,60.0,0.0,0.0
191,63.0,0.0,60.0,0.0,0.0
192,48.0,7.0,120.0,0.0,0.0
193,68.0,56.0,60.0,0.0,0.0
194,56.0,6.0,120.0,0.0,0.0
195,66.0,56.0,60.0,0.0,0.0
196,63.0,0.0,60.0,0.0,0.0
197,48.0,7.0,120.0,0.0,0.0
198,68.0,56.0,60.0,0.0,0.0
199,56.0,7.0,120.0,0.0,0.0
200,63.0,0.0,60.0,0.0,0.0
201,66.0,56.0,60.0,0.0,0.0
202,68.0,303.0,60.0,0.0,0.0
203,48.0,322.0,360.0,0.0,0.0
204,56.0,586.0,690.0,0.0,0.0
205,66.0,17.0,690.0,0.0,0.0
206,63.0,58.0,630.0,0.0,0.0
207,73.0,108.0,120.0,0.0,0.0
208,72.0,107.0,120.0,0.0,0.0
209,70.0,123.0,120.0,0.0,0.0
210,68.0,124.0,120.0,0.0,0.0
211,66.0,125.0,120.0,0.0,0.0
212,65.0,124.0,120.0,0.0,0.0
213,63.0,124.0,120.0,0.0,0.0
214,65.0,125.0,120.0,0.0,0.0
215,66.0,208.0,120.0,0.0,0.0
216,68.0,40.0,210.0,0.0,0.0
217,63.0,209.0,120.0,0.0,0.0
218,65.0,40.0,210.0,0.0,0.0
219,60.0,208.0,120.0,0.0,0.0
220,61.0,20.0,210.0,0.0,0.0
221,56.0,211.0,90.0,0.0,0.0
222,53.0,108.0,210.0,0.0,0.0
223,49.0,3.0,3000.0,0.0,0.0
224,53.0,740.0,90.0,0.0,0.0
225,56.0,15.0,2760.0,0.0,0.0
226,61.0,24.0,2670.0,0.0,0.0
227,73.0,214.0,420.0,0.0,0.0
228,63.0,0.0,420.0,0.0,0.0
229,66.0,5.0,420.0,0.0,0.0
230,72.0,1816.0,210.0,0.0,0.0
231,73.0,1483.0,1860.0,0.0,0.0
232,68.0,10.0,1860.0,0.0,0.0
233,65.0,10.0,1830.0,0.0,0.0
234,68.0,49.0,180.0,0.0,0.0
235,53.0,143.0,240.0,0.0,0.0
236,56.0,192.0,180.0,0.0,0.0
237,58.0,49.0,180.0,0.0,0.0
238,54.0,143.0,240.0,0.0,0.0
239,66.0,192.0,180.0,0.0,0.0
240,56.0,143.0,240.0,0.0,0.0
241,60.0,49.0,180.0,0.0,0.0
242,68.0,281.0,180.0,0.0,0.0
243,65.0,3.0,390.0,0.0,0.0
244,61.0,7.0,270.0,0.0,0.0
245,63.0,93.0,90.0,0.0,0.0
246,61.0,192.0,90.0,0.0,0.0
247,73.0,49.0,180.0,0.0,0.0
248,66.0,143.0,240.0,0.0,0.0
249,58.0,0.0,240.0,0.0,0.0
250,61.0,192.0,180.0,0.0,0.0
251,63.0,49.0,180.0,0.0,0.0
252,68.0,143.0,240.0,0.0,0.0
253,59.0,0.0,240.0,0.0,0.0
254,71.0,192.0,180.0,0.0,0.0
255,65.0,49.0,180.0,0.0,0.0
256,61.0,0.0,240.0,0.0,0.0
257,68.0,143.0,240.0,0.0,0.0
258,73.0,192.0,180.0,0.0,0.0
259,66.0,7.0,270.0,0.0,0.0
260,54.0,3.0,390.0,0.0,0.0
261,70.0,89.0,180.0,0.0,0.0
262,68.0,93.0,90.0,0.0,0.0
263,66.0,192.0,90.0,0.0,0.0
264,80.0,49.0,180.0,0.0,0.0
265,73.0,0.0,240.0,0.0,0.0
266,65.0,143.0,240.0,0.0,0.0
267,68.0,192.0,180.0,0.0,0.0
268,66.0,0.0,240.0,0.0,0.0
269,75.0,143.0,240.0,0.0,0.0
270,70.0,49.0,180.0,0.0,0.0
271,78.0,192.0,180.0,0.0,0.0
272,72.0,49.0,180.0,0.0,0.0
273,75.0,143.0,240.0,0.0,0.0
274,68.0,0.0,240.0,0.0,0.0
275,80.0,281.0,180.0,0.0,0.0
276,73.0,7.0,270.0,0.0,0.0
277,77.0,3.0,390.0,0.0,0.0
278,61.0,0.0,390.0,0.0,0.0
279,75.0,93.0,90.0,0.0,0.0
280,73.0,192.0,90.0,0.0,0.0
281,85.0,49.0,180.0,0.0,0.0
282,78.0,143.0,240.0,0.0,0.0
283,70.0,0.0,240.0,0.0,0.0
284,73.0,192.0,180.0,0.0,0.0
285,80.0,143.0,240.0,0.0,0.0
286,71.0,0.0,240.0,0.0,0.0
287,75.0,49.0,180.0,0.0,0.0
288,83.0,192.0,180.0,0.0,0.0
289,77.0,49.0,180.0,0.0,0.0
290,80.0,0.0,240.0,0.0,0.0
291,73.0,143.0,240.0,0.0,0.0
292,85.0,192.0,180.0,0.0,0.0
293,82.0,89.0,180.0,0.0,0.0
294,78.0,7.0,270.0,0.0,0.0
295,66.0,3.0,390.0,0.0,0.0
296,80.0,93.0,90.0,0.0,0.0
297,78.0,192.0,90.0,0.0,0.0
298,70.0,49.0,180.0,0.0,0.0
299,82.0,0.0,240.0,0.0,0.0
300,74.0,143.0,240.0,0.0,0.0
301,58.0,192.0,180.0,0.0,0.0
302,78.0,143.0,240.0,0.0,0.0
303,80.0,0.0,240.0,0.0,0.0
304,75.0,0.0,240.0,0.0,0.0
305,60.0,49.0,180.0,0.0,0.0
306,68.0,191.0,180.0,0.0,0.0
307,62.0,49.0,180.0,0.0,0.0
308,80.0,0.0,240.0,0.0,0.0
309,77.0,143.0,240.0,0.0,0.0
310,70.0,1.0,180.0,0.0,0.0
311,70.0,192.0,180.0,0.0,0.0
312,70.0,47.0,240.0,0.0,0.0
313,75.0,0.0,390.0,0.0,0.0
314,78.0,3.0,390.0,0.0,0.0
315,66.0,49.0,180.0,0.0,0.0
316,65.0,93.0,90.0,0.0,0.0
317,63.0,192.0,90.0,0.0,0.0
318,75.0,0.0,240.0,0.0,0.0
319,80.0,143.0,240.0,0.0,0.0
320,84.0,0.0,240.0,0.0,0.0
321,68.0,49.0,180.0,0.0,0.0
322,56.0,192.0,180.0,0.0,0.0
323,58.0,49.0,180.0,0.0,0.0
324,85.0,0.0,240.0,0.0,0.0
325,78.0,143.0,240.0,0.0,0.0
326,73.0,0.0,240.0,0.0,0.0
327,66.0,192.0,180.0,0.0,0.0
328,78.0,143.0,240.0,0.0,0.0
329,80.0,0.0,240.0,0.0,0.0
330,87.0,0.0,240.0,0.0,0.0
331,60.0,49.0,180.0,0.0,0.0
332,68.0,192.0,180.0,0.0,0.0
333,80.0,0.0,390.0,0.0,0.0
334,65.0,49.0,180.0,0.0,0.0
335,85.0,47.0,240.0,0.0,0.0
336,73.0,3.0,390.0,0.0,0.0
337,63.0,93.0,90.0,0.0,0.0
338,61.0,192.0,90.0,0.0,0.0
339,73.0,0.0,240.0,0.0,0.0
340,78.0,0.0,240.0,0.0,0.0
341,82.0,143.0,240.0,0.0,0.0
342,66.0,49.0,180.0,0.0,0.0
343,54.0,192.0,180.0,0.0,0.0
344,83.0,0.0,240.0,0.0,0.0
345,71.0,143.0,240.0,0.0,0.0
346,76.0,0.0,240.0,0.0,0.0
347,56.0,49.0,180.0,0.0,0.0
348,64.0,192.0,180.0,0.0,0.0
349,78.0,143.0,240.0,0.0,0.0
350,76.0,0.0,240.0,0.0,0.0
351,85.0,0.0,240.0,0.0,0.0
352,58.0,49.0,180.0,0.0,0.0
353,66.0,192.0,180.0,0.0,0.0
354,78.0,3.0,390.0,0.0,0.0
355,83.0,47.0,240.0,0.0,0.0
356,71.0,0.0,390.0,0.0,0.0
357,63.0,49.0,180.0,0.0,0.0
358,61.0,93.0,90.0,0.0,0.0
359,59.0,96.0,90.0,0.0,0.0
360,54.0,96.0,90.0,0.0,0.0
361,70.0,96.0,180.0,0.0,0.0
362,58.0,0.0,90.0,0.0,0.0
363,66.0,96.0,180.0,0.0,0.0
364,63.0,96.0,90.0,0.0,0.0
365,58.0,0.0,90.0,0.0,0.0
366,68.0,96.0,180.0,0.0,0.0
367,53.0,96.0,90.0,0.0,0.0
368,56.0,0.0,90.0,0.0,0.0
369,65.0,0.0,180.0,0.0,0.0
370,61.0,96.0,90.0,0.0,0.0
371,56.0,96.0,90.0,0.0,0.0
372,51.0,96.0,90.0,0.0,0.0
373,66.0,96.0,180.0,0.0,0.0
374,54.0,0.0,90.0,0.0,0.0
375,63.0,96.0,180.0,0.0,0.0
376,60.0,96.0,90.0,0.0,0.0
377,54.0,0.0,90.0,0.0,0.0
378,65.0,3.0,390.0,0.0,0.0
379,49.0,96.0,90.0,0.0,0.0
380,53.0,96.0,90.0,0.0,0.0
381,56.0,93.0,90.0,0.0,0.0
382,61.0,96.0,90.0,0.0,0.0
383,71.0,96.0,90.0,0.0,0.0
384,63.0,96.0,180.0,0.0,0.0
385,75.0,0.0,90.0,0.0,0.0
386,80.0,96.0,90.0,0.0,0.0
387,59.0,0.0,180.0,0.0,0.0
388,75.0,96.0,90.0,0.0,0.0
389,61.0,96.0,180.0,0.0,0.0
390,70.0,96.0,90.0,0.0,0.0
391,73.0,0.0,90.0,0.0,0.0
392,78.0,96.0,90.0,0.0,0.0
393,58.0,96.0,180.0,0.0,0.0
394,73.0,0.0,90.0,0.0,0.0
395,68.0,96.0,90.0,0.0,0.0
396,59.0,96.0,180.0,0.0,0.0
397,71.0,0.0,90.0,0.0,0.0
398,56.0,192.0,180.0,0.0,0.0
399,77.0,96.0,90.0,0.0,0.0
400,71.0,0.0,90.0,0.0,0.0
401,66.0,3.0,390.0,0.0,0.0
402,58.0,47.0,240.0,0.0,0.0
403,70.0,49.0,90.0,0.0,0.0
404,73.0,93.0,90.0,0.0,0.0
405,78.0,96.0,90.0,0.0,0.0
406,66.0,0.0,180.0,0.0,0.0
407,75.0,96.0,90.0,0.0,0.0
408,78.0,96.0,90.0,0.0,0.0
409,63.0,96.0,180.0,0.0,0.0
410,83.0,96.0,90.0,0.0,0.0
411,78.0,0.0,90.0,0.0,0.0
412,73.0,96.0,90.0,0.0,0.0
413,65.0,96.0,180.0,0.0,0.0
414,77.0,0.0,90.0,0.0,0.0
415,82.0,96.0,90.0,0.0,0.0
416,61.0,0.0,180.0,0.0,0.0
417,77.0,96.0,90.0,0.0,0.0
418,72.0,96.0,90.0,0.0,0.0
419,63.0,96.0,180.0,0.0,0.0
420,75.0,0.0,90.0,0.0,0.0
421,81.0,96.0,90.0,0.0,0.0
422,60.0,96.0,180.0,0.0,0.0
423,75.0,0.0,90.0,0.0,0.0
424,70.0,96.0,90.0,0.0,0.0
425,61.0,3.0,390.0,0.0,0.0
426,73.0,96.0,90.0,0.0,0.0
427,77.0,93.0,90.0,0.0,0.0
428,82.0,96.0,90.0,0.0,0.0
429,78.0,96.0,180.0,0.0,0.0
430,63.0,96.0,90.0,0.0,0.0
431,66.0,0.0,90.0,0.0,0.0
432,75.0,96.0,180.0,0.0,0.0
433,72.0,96.0,90.0,0.0,0.0
434,66.0,0.0,90.0,0.0,0.0
435,61.0,96.0,90.0,0.0,0.0
436,77.0,96.0,180.0,0.0,0.0
437,65.0,0.0,90.0,0.0,0.0
438,73.0,96.0,180.0,0.0,0.0
439,70.0,96.0,90.0,0.0,0.0
440,65.0,0.0,90.0,0.0,0.0
441,75.0,0.0,180.0,0.0,0.0
442,60.0,96.0,90.0,0.0,0.0
443,63.0,96.0,90.0,0.0,0.0
444,69.0,96.0,90.0,0.0,0.0
445,72.0,0.0,180.0,0.0,0.0
446,63.0,96.0,90.0,0.0,0.0
447,58.0,96.0,90.0,0.0,0.0
448,73.0,3.0,390.0,0.0,0.0
449,61.0,96.0,90.0,0.0,0.0
450,65.0,93.0,90.0,0.0,0.0
451,70.0,96.0,90.0,0.0,0.0
452,63.0,96.0,180.0,0.0,0.0
453,71.0,96.0,90.0,0.0,0.0
454,75.0,0.0,90.0,0.0,0.0
455,80.0,96.0,90.0,0.0,0.0
456,59.0,0.0,180.0,0.0,0.0
457,75.0,96.0,90.0,0.0,0.0
458,70.0,96.0,90.0,0.0,0.0
459,61.0,96.0,180.0,0.0,0.0
460,73.0,0.0,90.0,0.0,0.0
461,78.0,96.0,90.0,0.0,0.0
462,58.0,96.0,180.0,0.0,0.0
463,73.0,0.0,90.0,0.0,0.0
464,68.0,96.0,90.0,0.0,0.0
465,59.0,96.0,180.0,0.0,0.0
466,71.0,0.0,90.0,0.0,0.0
467,77.0,96.0,90.0,0.0,0.0
468,56.0,192.0,180.0,0.0,0.0
469,71.0,0.0,90.0,0.0,0.0
470,66.0,3.0,390.0,0.0,0.0
471,58.0,47.0,240.0,0.0,0.0
472,70.0,49.0,90.0,0.0,0.0
473,73.0,93.0,90.0,0.0,0.0
474,78.0,96.0,90.0,0.0,0.0
475,75.0,96.0,180.0,0.0,0.0
476,59.0,96.0,90.0,0.0,0.0
477,63.0,0.0,90.0,0.0,0.0
478,71.0,96.0,180.0,0.0,0.0
479,68.0,96.0,90.0,0.0,0.0
480,63.0,0.0,90.0,0.0,0.0
481,73.0,0.0,180.0,0.0,0.0
482,58.0,96.0,90.0,0.0,0.0
483,61.0,96.0,90.0,0.0,0.0
484,66.0,96.0,90.0,0.0,0.0
485,70.0,96.0,180.0,0.0,0.0
486,61.0,0.0,90.0,0.0,0.0
487,71.0,96.0,180.0,0.0,0.0
488,56.0,96.0,90.0,0.0,0.0
489,59.0,0.0,90.0,0.0,0.0
490,68.0,96.0,180.0,0.0,0.0
491,65.0,96.0,90.0,0.0,0.0
492,59.0,0.0,90.0,0.0,0.0
493,54.0,91.0,90.0,0.0,0.0
494,70.0,37.0,240.0,0.0,0.0
495,58.0,54.0,90.0,0.0,0.0
496,61.0,91.0,90.0,0.0,0.0
497,66.0,312.0,90.0,0.0,0.0
498,46.0,43.0,330.0,0.0,0.0
499,58.0,60.0,270.0,0.0,0.0
500,73.0,89.0,570.0,0.0,0.0
501,61.0,192.0,180.0,0.0,0.0
502,63.0,192.0,390.0,0.0,0.0
503,56.0,60.0,270.0,0.0,0.0
504,47.0,40.0,330.0,0.0,0.0
505,71.0,152.0,390.0,0.0,0.0
506,49.0,0.0,330.0,0.0,0.0
507,56.0,40.0,330.0,0.0,0.0
508,65.0,3.0,390.0,0.0,0.0
509,73.0,192.0,180.0,0.0,0.0
510,70.0,96.0,180.0,0.0,0.0
511,54.0,3.0,390.0,0.0,0.0
512,42.0,20.0,360.0,0.0,0.0
513,68.0,73.0,90.0,0.0,0.0
514,66.0,96.0,90.0,0.0,0.0
515,66.0,96.0,90.0,0.0,0.0
516,82.0,96.0,180.0,0.0,0.0
517,70.0,0.0,90.0,0.0,0.0
518,75.0,96.0,90.0,0.0,0.0
519,78.0,0.0,180.0,0.0,0.0
520,70.0,96.0,90.0,0.0,0.0
521,80.0,0.0,180.0,0.0,0.0
522,65.0,96.0,90.0,0.0,0.0
523,68.0,96.0,90.0,0.0,0.0
524,73.0,96.0,90.0,0.0,0.0
525,77.0,96.0,180.0,0.0,0.0
526,68.0,0.0,90.0,0.0,0.0
527,63.0,96.0,90.0,0.0,0.0
528,78.0,96.0,180.0,0.0,0.0
529,66.0,0.0,90.0,0.0,0.0
530,72.0,96.0,90.0,0.0,0.0
531,75.0,96.0,180.0,0.0,0.0
532,66.0,0.0,90.0,0.0,0.0
533,61.0,91.0,90.0,0.0,0.0
534,77.0,87.0,180.0,0.0,0.0
535,65.0,4.0,90.0,0.0,0.0
536,68.0,91.0,90.0,0.0,0.0
537,73.0,372.0,90.0,0.0,0.0
538,80.0,149.0,570.0,0.0,0.0
539,65.0,43.0,330.0,0.0,0.0
540,53.0,0.0,330.0,0.0,0.0
541,68.0,192.0,180.0,0.0,0.0
542,70.0,192.0,390.0,0.0,0.0
543,63.0,40.0,330.0,0.0,0.0
544,54.0,0.0,330.0,0.0,0.0
545,78.0,152.0,390.0,0.0,0.0
546,72.0,3.0,390.0,0.0,0.0
547,56.0,0.0,330.0,0.0,0.0
548,63.0,40.0,330.0,0.0,0.0
549,80.0,192.0,180.0,0.0,0.0
550,77.0,96.0,180.0,0.0,0.0
551,49.0,20.0,360.0,0.0,0.0
552,61.0,3.0,390.0,0.0,0.0
553,75.0,73.0,90.0,0.0,0.0
554,73.0,96.0,90.0,0.0,0.0
555,88.0,0.0,180.0,0.0,0.0
556,73.0,96.0,90.0,0.0,0.0
557,76.0,96.0,90.0,0.0,0.0
558,82.0,96.0,90.0,0.0,0.0
559,85.0,96.0,180.0,0.0,0.0
560,76.0,0.0,90.0,0.0,0.0
561,87.0,96.0,180.0,0.0,0.0
562,71.0,96.0,90.0,0.0,0.0
563,75.0,0.0,90.0,0.0,0.0
564,83.0,96.0,180.0,0.0,0.0
565,80.0,96.0,90.0,0.0,0.0
566,75.0,0.0,90.0,0.0,0.0
567,70.0,96.0,90.0,0.0,0.0
568,85.0,96.0,180.0,0.0,0.0
569,73.0,0.0,90.0,0.0,0.0
570,82.0,96.0,180.0,0.0,0.0
571,79.0,96.0,90.0,0.0,0.0
572,73.0,0.0,90.0,0.0,0.0
573,83.0,87.0,180.0,0.0,0.0
574,68.0,91.0,90.0,0.0,0.0
575,71.0,4.0,90.0,0.0,0.0
576,75.0,91.0,90.0,0.0,0.0
577,80.0,392.0,90.0,0.0,0.0
578,63.0,3.0,390.0,0.0,0.0
579,70.0,20.0,360.0,0.0,0.0
580,79.0,0.0,360.0,0.0,0.0
581,75.0,0.0,360.0,0.0,0.0
582,51.0,192.0,180.0,0.0,0.0
583,73.0,0.0,360.0,0.0,0.0
584,80.0,0.0,360.0,0.0,0.0
585,68.0,23.0,360.0,0.0,0.0
586,53.0,169.0,180.0,0.0,0.0
587,61.0,192.0,180.0,0.0,0.0
588,55.0,169.0,180.0,0.0,0.0
589,82.0,0.0,360.0,0.0,0.0
590,73.0,0.0,360.0,0.0,0.0
591,75.0,23.0,360.0,0.0,0.0
592,63.0,192.0,180.0,0.0,0.0
593,68.0,23.0,360.0,0.0,0.0
594,75.0,0.0,360.0,0.0,0.0
595,80.0,0.0,360.0,0.0,0.0
596,59.0,96.0,180.0,0.0,0.0
597,58.0,73.0,90.0,0.0,0.0
598,56.0,96.0,90.0,0.0,0.0
599,59.0,96.0,180.0,0.0,0.0
600,68.0,96.0,90.0,0.0,0.0
601,71.0,0.0,90.0,0.0,0.0
602,56.0,96.0,180.0,0.0,0.0
603,76.0,96.0,90.0,0.0,0.0
604,71.0,0.0,90.0,0.0,0.0
605,58.0,96.0,180.0,0.0,0.0
606,66.0,96.0,90.0,0.0,0.0
607,70.0,0.0,90.0,0.0,0.0
608,75.0,96.0,90.0,0.0,0.0
609,54.0,96.0,180.0,0.0,0.0
610,70.0,0.0,90.0,0.0,0.0
611,56.0,96.0,180.0,0.0,0.0
612,65.0,96.0,90.0,0.0,0.0
613,68.0,0.0,90.0,0.0,0.0
614,74.0,96.0,90.0,0.0,0.0
615,53.0,0.0,180.0,0.0,0.0
616,68.0,96.0,90.0,0.0,0.0
617,63.0,91.0,90.0,0.0,0.0
618,54.0,37.0,240.0,0.0,0.0
619,66.0,54.0,90.0,0.0,0.0
620,70.0,96.0,90.0,0.0,0.0
621,75.0,387.0,90.0,0.0,0.0
622,74.0,0.0,360.0,0.0,0.0
623,65.0,20.0,360.0,0.0,0.0
624,58.0,3.0,390.0,0.0,0.0
625,46.0,192.0,180.0,0.0,0.0
626,48.0,169.0,180.0,0.0,0.0
627,68.0,0.0,360.0,0.0,0.0
628,75.0,0.0,360.0,0.0,0.0
629,63.0,23.0,360.0,0.0,0.0
630,56.0,192.0,180.0,0.0,0.0
631,50.0,169.0,180.0,0.0,0.0
632,68.0,0.0,360.0,0.0,0.0
633,70.0,0.0,360.0,0.0,0.0
634,77.0,23.0,360.0,0.0,0.0
635,58.0,192.0,180.0,0.0,0.0
636,54.0,96.0,180.0,0.0,0.0
637,70.0,0.0,360.0,0.0,0.0
638,75.0,23.0,360.0,0.0,0.0
639,63.0,0.0,360.0,0.0,0.0
640,53.0,73.0,90.0,0.0,0.0
641,51.0,96.0,90.0,0.0,0.0
642,75.0,96.0,90.0,0.0,0.0
643,66.0,96.0,180.0,0.0,0.0
644,78.0,0.0,90.0,0.0,0.0
645,63.0,96.0,180.0,0.0,0.0
646,83.0,96.0,90.0,0.0,0.0
647,78.0,0.0,90.0,0.0,0.0
648,73.0,96.0,90.0,0.0,0.0
649,65.0,96.0,180.0,0.0,0.0
650,77.0,0.0,90.0,0.0,0.0
651,82.0,96.0,90.0,0.0,0.0
652,61.0,0.0,180.0,0.0,0.0
653,77.0,96.0,90.0,0.0,0.0
654,72.0,96.0,90.0,0.0,0.0
655,63.0,96.0,180.0,0.0,0.0
656,75.0,0.0,90.0,0.0,0.0
657,81.0,96.0,90.0,0.0,0.0
658,60.0,96.0,180.0,0.0,0.0
659,75.0,0.0,90.0,0.0,0.0
660,70.0,96.0,90.0,0.0,0.0
661,61.0,47.0,240.0,0.0,0.0
662,73.0,49.0,90.0,0.0,0.0
663,77.0,96.0,90.0,0.0,0.0
664,82.0,96.0,90.0,0.0,0.0
665,78.0,96.0,180.0,0.0,0.0
666,51.0,96.0,90.0,0.0,0.0
667,54.0,0.0,90.0,0.0,0.0
668,75.0,0.0,180.0,0.0,0.0
669,60.0,96.0,90.0,0.0,0.0
670,54.0,96.0,90.0,0.0,0.0
671,49.0,96.0,90.0,0.0,0.0
672,77.0,96.0,180.0,0.0,0.0
673,53.0,0.0,90.0,0.0,0.0
674,58.0,96.0,90.0,0.0,0.0
675,73.0,96.0,180.0,0.0,0.0
676,53.0,0.0,90.0,0.0,0.0
677,75.0,96.0,180.0,0.0,0.0
678,48.0,96.0,90.0,0.0,0.0
679,51.0,0.0,90.0,0.0,0.0
680,72.0,0.0,180.0,0.0,0.0
681,57.0,96.0,90.0,0.0,0.0
682,51.0,96.0,90.0,0.0,0.0
683,73.0,96.0,480.0,0.0,0.0
684,46.0,96.0,90.0,0.0,0.0
685,49.0,96.0,90.0,0.0,0.0
686,53.0,96.0,90.0,0.0,0.0
687,58.0,95.0,90.0,0.0,0.0
688,65.0,1.0,180.0,0.0,0.0
689,46.0,0.0,180.0,0.0,0.0
690,73.0,96.0,90.0,0.0,0.0
691,56.0,95.0,180.0,0.0,0.0
692,72.0,96.0,90.0,0.0,0.0
693,73.0,96.0,180.0,0.0,0.0
694,63.0,1.0,180.0,0.0,0.0
695,55.0,96.0,180.0,0.0,0.0
696,73.0,0.0,90.0,0.0,0.0
697,72.0,96.0,90.0,0.0,0.0
698,53.0,95.0,180.0,0.0,0.0
699,73.0,1.0,180.0,0.0,0.0
700,55.0,96.0,180.0,0.0,0.0
701,63.0,96.0,90.0,0.0,0.0
702,73.0,0.0,90.0,0.0,0.0
703,72.0,96.0,90.0,0.0,0.0
704,51.0,96.0,180.0,0.0,0.0
705,73.0,0.0,90.0,0.0,0.0
706,63.0,96.0,90.0,0.0,0.0
707,56.0,3.0,390.0,0.0,0.0
708,71.0,96.0,90.0,0.0,0.0
709,44.0,95.0,180.0,0.0,0.0
710,70.0,93.0,90.0,0.0,0.0
711,71.0,96.0,180.0,0.0,0.0
712,63.0,1.0,180.0,0.0,0.0
713,56.0,96.0,180.0,0.0,0.0
714,71.0,0.0,90.0,0.0,0.0
715,70.0,96.0,90.0,0.0,0.0
716,54.0,95.0,180.0,0.0,0.0
717,71.0,96.0,180.0,0.0,0.0
718,53.0,96.0,180.0,0.0,0.0
719,61.0,1.0,180.0,0.0,0.0
720,71.0,0.0,90.0,0.0,0.0
721,70.0,96.0,90.0,0.0,0.0
722,51.0,95.0,180.0,0.0,0.0
723,71.0,1.0,180.0,0.0,0.0
724,61.0,96.0,90.0,0.0,0.0
725,53.0,0.0,180.0,0.0,0.0
726,71.0,96.0,90.0,0.0,0.0
727,70.0,96.0,90.0,0.0,0.0
728,49.0,96.0,180.0,0.0,0.0
729,71.0,0.0,90.0,0.0,0.0
730,61.0,96.0,90.0,0.0,0.0
731,54.0,3.0,390.0,0.0,0.0
732,70.0,96.0,90.0,0.0,0.0
733,68.0,93.0,90.0,0.0,0.0
734,42.0,95.0,180.0,0.0,0.0
735,70.0,96.0,180.0,0.0,0.0
736,54.0,96.0,180.0,0.0,0.0
737,61.0,1.0,180.0,0.0,0.0
738,70.0,0.0,90.0,0.0,0.0
739,68.0,96.0,90.0,0.0,0.0
740,51.0,191.0,180.0,0.0,0.0
741,70.0,0.0,90.0,0.0,0.0
742,59.0,1.0,180.0,0.0,0.0
743,53.0,0.0,180.0,0.0,0.0
744,68.0,91.0,90.0,0.0,0.0
745,54.0,0.0,180.0,0.0,0.0
746,58.0,101.0,90.0,0.0,0.0
747,66.0,96.0,90.0,0.0,0.0
748,47.0,96.0,180.0,0.0,0.0
749,56.0,96.0,90.0,0.0,0.0
750,66.0,0.0,90.0,0.0,0.0
751,56.0,96.0,90.0,0.0,0.0
752,49.0,0.0,180.0,0.0,0.0
753,65.0,241.0,90.0,0.0,0.0
754,66.0,139.0,330.0,0.0,0.0
755,61.0,0.0,240.0,0.0,0.0
756,58.0,100.0,240.0,0.0,0.0
757,54.0,0.0,330.0,0.0,0.0
758,42.0,0.0,240.0,0.0,0.0
759,82.0,96.0,180.0,0.0,0.0
760,61.0,96.0,90.0,0.0,0.0
761,70.0,0.0,90.0,0.0,0.0
762,85.0,48.0,180.0,0.0,0.0
763,68.0,96.0,90.0,0.0,0.0
764,70.0,0.0,90.0,0.0,0.0
765,80.0,48.0,40.0,0.0,0.0
766,61.0,1.0,180.0,0.0,0.0
767,79.0,48.0,40.0,0.0,0.0
768,70.0,96.0,90.0,0.0,0.0
769,80.0,47.0,40.0,0.0,0.0
770,79.0,0.0,40.0,0.0,0.0
771,77.0,96.0,180.0,0.0,0.0
772,68.0,96.0,90.0,0.0,0.0
773,70.0,0.0,90.0,0.0,0.0
774,79.0,0.0,180.0,0.0,0.0
775,61.0,96.0,90.0,0.0,0.0
776,70.0,96.0,90.0,0.0,0.0
777,75.0,96.0,180.0,0.0,0.0
778,68.0,96.0,90.0,0.0,0.0
779,70.0,0.0,90.0,0.0,0.0
780,80.0,91.0,180.0,0.0,0.0
781,59.0,96.0,90.0,0.0,0.0
782,68.0,0.0,90.0,0.0,0.0
783,68.0,5.0,90.0,0.0,0.0
784,67.0,96.0,90.0,0.0,0.0
785,68.0,96.0,90.0,0.0,0.0
786,59.0,96.0,90.0,0.0,0.0
787,80.0,96.0,180.0,0.0,0.0
788,68.0,0.0,90.0,0.0,0.0
789,83.0,48.0,180.0,0.0,0.0
790,67.0,96.0,90.0,0.0,0.0
791,68.0,0.0,90.0,0.0,0.0
792,78.0,48.0,40.0,0.0,0.0
793,59.0,1.0,180.0,0.0,0.0
794,77.0,48.0,40.0,0.0,0.0
795,68.0,96.0,90.0,0.0,0.0
796,78.0,47.0,40.0,0.0,0.0
797,77.0,0.0,40.0,0.0,0.0
798,75.0,96.0,180.0,0.0,0.0
799,66.0,96.0,90.0,0.0,0.0
800,68.0,0.0,90.0,0.0,0.0
801,77.0,0.0,180.0,0.0,0.0
802,59.0,96.0,90.0,0.0,0.0
803,68.0,96.0,90.0,0.0,0.0
804,73.0,96.0,180.0,0.0,0.0
805,66.0,96.0,90.0,0.0,0.0
806,68.0,0.0,90.0,0.0,0.0
807,78.0,91.0,180.0,0.0,0.0
808,58.0,96.0,90.0,0.0,0.0
809,66.0,0.0,90.0,0.0,0.0
810,65.0,96.0,90.0,0.0,0.0
811,66.0,5.0,90.0,0.0,0.0
812,66.0,96.0,90.0,0.0,0.0
813,78.0,96.0,180.0,0.0,0.0
814,58.0,96.0,90.0,0.0,0.0
815,66.0,0.0,90.0,0.0,0.0
816,82.0,0.0,180.0,0.0,0.0
817,65.0,96.0,90.0,0.0,0.0
818,66.0,96.0,90.0,0.0,0.0
819,56.0,0.0,90.0,0.0,0.0
820,83.0,96.0,90.0,0.0,0.0
821,65.0,96.0,90.0,0.0,0.0
822,85.0,0.0,90.0,0.0,0.0
823,54.0,0.0,90.0,0.0,0.0
824,82.0,96.0,90.0,0.0,0.0
825,83.0,48.0,90.0,0.0,0.0
826,66.0,0.0,90.0,0.0,0.0
827,82.0,48.0,40.0,0.0,0.0
828,59.0,48.0,90.0,0.0,0.0
829,80.0,0.0,40.0,0.0,0.0
830,82.0,48.0,40.0,0.0,0.0
831,66.0,96.0,90.0,0.0,0.0
832,80.0,96.0,150.0,0.0,0.0
833,61.0,0.0,90.0,0.0,0.0
834,78.0,96.0,90.0,0.0,0.0
835,65.0,0.0,90.0,0.0,0.0
836,78.0,37.0,240.0,0.0,0.0
837,54.0,91.0,90.0,0.0,0.0
838,58.0,54.0,90.0,0.0,0.0
839,61.0,91.0,90.0,0.0,0.0
840,66.0,368.0,90.0,0.0,0.0
841,58.0,0.0,330.0,0.0,0.0
842,46.0,47.0,330.0,0.0,0.0
843,73.0,153.0,570.0,0.0,0.0
844,61.0,188.0,180.0,0.0,0.0
845,47.0,0.0,330.0,0.0,0.0
846,56.0,40.0,330.0,0.0,0.0
847,63.0,192.0,390.0,0.0,0.0
848,71.0,152.0,390.0,0.0,0.0
849,65.0,3.0,390.0,0.0,0.0
850,49.0,40.0,330.0,0.0,0.0
851,56.0,0.0,330.0,0.0,0.0
852,73.0,192.0,180.0,0.0,0.0
853,42.0,40.0,330.0,0.0,0.0
854,54.0,3.0,390.0,0.0,0.0
855,70.0,96.0,180.0,0.0,0.0
856,68.0,53.0,90.0,0.0,0.0
857,66.0,200.0,90.0,0.0,0.0
858,56.0,169.0,180.0,0.0,0.0
859,63.0,0.0,360.0,0.0,0.0
860,68.0,0.0,360.0,0.0,0.0
861,72.0,23.0,360.0,0.0,0.0
862,44.0,192.0,180.0,0.0,0.0
863,73.0,23.0,360.0,0.0,0.0
864,46.0,169.0,180.0,0.0,0.0
865,61.0,0.0,360.0,0.0,0.0
866,66.0,0.0,360.0,0.0,0.0
867,54.0,192.0,180.0,0.0,0.0
868,68.0,0.0,360.0,0.0,0.0
869,75.0,0.0,360.0,0.0,0.0
870,66.0,23.0,360.0,0.0,0.0
871,48.0,169.0,180.0,0.0,0.0
872,56.0,192.0,180.0,0.0,0.0
873,53.0,96.0,180.0,0.0,0.0
874,73.0,20.0,360.0,0.0,0.0
875,68.0,0.0,360.0,0.0,0.0
876,61.0,3.0,390.0,0.0,0.0
877,51.0,73.0,90.0,0.0,0.0
878,49.0,216.0,90.0,0.0,0.0
879,77.0,49.0,180.0,0.0,0.0
880,49.0,143.0,240.0,0.0,0.0
881,61.0,0.0,240.0,0.0,0.0
882,65.0,192.0,180.0,0.0,0.0
883,67.0,49.0,180.0,0.0,0.0
884,51.0,0.0,240.0,0.0,0.0
885,60.0,143.0,240.0,0.0,0.0
886,75.0,192.0,180.0,0.0,0.0
887,69.0,49.0,180.0,0.0,0.0
888,60.0,143.0,240.0,0.0,0.0
889,53.0,0.0,240.0,0.0,0.0
890,77.0,192.0,180.0,0.0,0.0
891,73.0,49.0,180.0,0.0,0.0
892,46.0,47.0,240.0,0.0,0.0
893,58.0,3.0,390.0,0.0,0.0
894,72.0,93.0,90.0,0.0,0.0
895,70.0,192.0,90.0,0.0,0.0
896,65.0,49.0,180.0,0.0,0.0
897,69.0,143.0,240.0,0.0,0.0
898,53.0,191.0,180.0,0.0,0.0
899,55.0,49.0,180.0,0.0,0.0
900,70.0,143.0,240.0,0.0,0.0
901,63.0,1.0,180.0,0.0,0.0
902,63.0,192.0,180.0,0.0,0.0
903,63.0,143.0,240.0,0.0,0.0
904,72.0,0.0,240.0,0.0,0.0
905,57.0,49.0,180.0,0.0,0.0
906,65.0,192.0,180.0,0.0,0.0
907,61.0,49.0,180.0,0.0,0.0
908,70.0,95.0,480.0,0.0,0.0
909,65.0,47.0,240.0,0.0,0.0
910,60.0,96.0,90.0,0.0,0.0
911,58.0,97.0,90.0,0.0,0.0
912,77.0,3.0,390.0,0.0,0.0
913,49.0,96.0,180.0,0.0,0.0
914,70.0,0.0,90.0,0.0,0.0
915,69.0,93.0,90.0,0.0,0.0
916,58.0,0.0,180.0,0.0,0.0
917,70.0,192.0,90.0,0.0,0.0
918,51.0,96.0,180.0,0.0,0.0
919,78.0,3.0,390.0,0.0,0.0
920,70.0,0.0,90.0,0.0,0.0
921,69.0,93.0,90.0,0.0,0.0
922,60.0,192.0,180.0,0.0,0.0
923,70.0,0.0,90.0,0.0,0.0
924,77.0,3.0,390.0,0.0,0.0
925,53.0,96.0,180.0,0.0,0.0
926,70.0,0.0,90.0,0.0,0.0
927,61.0,192.0,180.0,0.0,0.0
928,69.0,93.0,90.0,0.0,0.0
929,70.0,0.0,90.0,0.0,0.0
930,75.0,3.0,390.0,0.0,0.0
931,54.0,96.0,180.0,0.0,0.0
932,70.0,0.0,90.0,0.0,0.0
933,69.0,93.0,90.0,0.0,0.0
934,63.0,0.0,180.0,0.0,0.0
935,70.0,192.0,90.0,0.0,0.0
936,53.0,0.0,180.0,0.0,0.0
937,77.0,3.0,390.0,0.0,0.0
938,70.0,96.0,90.0,0.0,0.0
939,69.0,93.0,90.0,0.0,0.0
940,61.0,192.0,180.0,0.0,0.0
941,70.0,0.0,90.0,0.0,0.0
942,78.0,3.0,390.0,0.0,0.0
943,51.0,96.0,180.0,0.0,0.0
944,70.0,0.0,90.0,0.0,0.0
945,69.0,93.0,90.0,0.0,0.0
946,60.0,192.0,180.0,0.0,0.0
947,70.0,0.0,90.0,0.0,0.0
948,75.0,3.0,390.0,0.0,0.0
949,53.0,96.0,180.0,0.0,0.0
950,69.0,0.0,90.0,0.0,0.0
951,67.0,93.0,90.0,0.0,0.0
952,60.0,0.0,180.0,0.0,0.0
953,69.0,241.0,90.0,0.0,0.0
954,46.0,0.0,240.0,0.0,0.0
955,73.0,194.0,390.0,0.0,0.0
956,58.0,0.0,240.0,0.0,0.0
957,70.0,140.0,240.0,0.0,0.0
958,77.0,96.0,180.0,0.0,0.0
959,49.0,1.0,180.0,0.0,0.0
960,58.0,0.0,90.0,0.0,0.0
961,82.0,191.0,180.0,0.0,0.0
962,57.0,96.0,90.0,0.0,0.0
963,58.0,0.0,90.0,0.0,0.0
964,79.0,96.0,180.0,0.0,0.0
965,51.0,1.0,180.0,0.0,0.0
966,58.0,0.0,90.0,0.0,0.0
967,84.0,191.0,180.0,0.0,0.0
968,57.0,96.0,90.0,0.0,0.0
969,58.0,0.0,90.0,0.0,0.0
970,81.0,0.0,180.0,0.0,0.0
971,53.0,1.0,180.0,0.0,0.0
972,58.0,96.0,90.0,0.0,0.0
973,85.0,0.0,180.0,0.0,0.0
974,57.0,96.0,90.0,0.0,0.0
975,58.0,191.0,90.0,0.0,0.0
976,82.0,96.0,180.0,0.0,0.0
977,54.0,1.0,180.0,0.0,0.0
978,58.0,0.0,90.0,0.0,0.0
979,87.0,48.0,180.0,0.0,0.0
980,57.0,96.0,90.0,0.0,0.0
981,58.0,0.0,90.0,0.0,0.0
982,87.0,48.0,40.0,0.0,0.0
983,53.0,1.0,180.0,0.0,0.0
984,85.0,48.0,40.0,0.0,0.0
985,87.0,47.0,40.0,0.0,0.0
986,58.0,96.0,90.0,0.0,0.0
987,85.0,0.0,40.0,0.0,0.0
988,84.0,191.0,180.0,0.0,0.0
989,57.0,96.0,90.0,0.0,0.0
990,58.0,0.0,90.0,0.0,0.0
991,85.0,96.0,180.0,0.0,0.0
992,51.0,1.0,180.0,0.0,0.0
993,58.0,0.0,90.0,0.0,0.0
994,77.0,191.0,180.0,0.0,0.0
995,57.0,96.0,90.0,0.0,0.0
996,58.0,0.0,90.0,0.0,0.0
997,84.0,96.0,180.0,0.0,0.0
998,53.0,1.0,180.0,0.0,0.0
999,57.0,0.0,90.0,0.0,0.0
1000,75.0,241.0,180.0,0.0,0.0
1001,55.0,96.0,90.0,0.0,0.0
1002,57.0,0.0,90.0,0.0,0.0
1003,74.0,140.0,240.0,0.0,0.0
1004,82.0,99.0,390.0,0.0,0.0
1005,58.0,0.0,240.0,0.0,0.0
1006,46.0,0.0,240.0,0.0,0.0
1007,83.0,0.0,180.0,0.0,0.0
1008,56.0,96.0,90.0,0.0,0.0
1009,59.0,96.0,90.0,0.0,0.0
1010,65.0,96.0,90.0,0.0,0.0
1011,80.0,0.0,180.0,0.0,0.0
1012,59.0,96.0,90.0,0.0,0.0
1013,82.0,96.0,180.0,0.0,0.0
1014,54.0,96.0,90.0,0.0,0.0
1015,58.0,0.0,90.0,0.0,0.0
1016,78.0,96.0,180.0,0.0,0.0
1017,63.0,96.0,90.0,0.0,0.0
1018,58.0,0.0,90.0,0.0,0.0
1019,80.0,96.0,180.0,0.0,0.0
1020,53.0,96.0,90.0,0.0,0.0
1021,56.0,0.0,90.0,0.0,0.0
1022,77.0,96.0,180.0,0.0,0.0
1023,62.0,96.0,90.0,0.0,0.0
1024,56.0,0.0,90.0,0.0,0.0
1025,78.0,47.0,240.0,0.0,0.0
1026,51.0,96.0,90.0,0.0,0.0
1027,54.0,49.0,90.0,0.0,0.0
1028,58.0,96.0,90.0,0.0,0.0
1029,63.0,96.0,90.0,0.0,0.0
1030,68.0,96.0,90.0,0.0,0.0
1031,59.0,96.0,180.0,0.0,0.0
1032,71.0,0.0,90.0,0.0,0.0
1033,77.0,96.0,90.0,0.0,0.0
1034,56.0,96.0,180.0,0.0,0.0
1035,71.0,0.0,90.0,0.0,0.0
1036,58.0,96.0,180.0,0.0,0.0
1037,66.0,96.0,90.0,0.0,0.0
1038,70.0,0.0,90.0,0.0,0.0
1039,75.0,96.0,90.0,0.0,0.0
1040,54.0,96.0,180.0,0.0,0.0
1041,70.0,0.0,90.0,0.0,0.0
1042,65.0,96.0,90.0,0.0,0.0
1043,56.0,0.0,180.0,0.0,0.0
1044,68.0,96.0,90.0,0.0,0.0
1045,53.0,0.0,180.0,0.0,0.0
1046,74.0,96.0,90.0,0.0,0.0
1047,68.0,192.0,90.0,0.0,0.0
1048,63.0,3.0,390.0,0.0,0.0
1049,54.0,0.0,180.0,0.0,0.0
1050,66.0,96.0,90.0,0.0,0.0
1051,51.0,192.0,180.0,0.0,0.0
1052,70.0,93.0,90.0,0.0,0.0
1053,75.0,0.0,90.0,0.0,0.0
1054,63.0,3.0,390.0,0.0,0.0
1055,59.0,96.0,180.0,0.0,0.0
1056,68.0,0.0,90.0,0.0,0.0
1057,71.0,93.0,90.0,0.0,0.0
1058,51.0,192.0,180.0,0.0,0.0
1059,75.0,0.0,90.0,0.0,0.0
1060,63.0,3.0,390.0,0.0,0.0
1061,58.0,96.0,180.0,0.0,0.0
1062,66.0,0.0,90.0,0.0,0.0
1063,70.0,93.0,90.0,0.0,0.0
1064,51.0,192.0,180.0,0.0,0.0
1065,75.0,0.0,90.0,0.0,0.0
1066,65.0,3.0,390.0,0.0,0.0
1067,58.0,0.0,180.0,0.0,0.0
1068,68.0,96.0,90.0,0.0,0.0
1069,46.0,192.0,180.0,0.0,0.0
1070,75.0,93.0,90.0,0.0,0.0
1071,74.0,0.0,90.0,0.0,0.0
1072,66.0,7.0,270.0,0.0,0.0
1073,51.0,40.0,240.0,0.0,0.0
1074,70.0,49.0,90.0,0.0,0.0
1075,75.0,96.0,90.0,0.0,0.0
1076,74.0,192.0,90.0,0.0,0.0
1077,53.0,40.0,240.0,0.0,0.0
1078,68.0,7.0,270.0,0.0,0.0
1079,70.0,49.0,90.0,0.0,0.0
1080,75.0,96.0,90.0,0.0,0.0
1081,74.0,192.0,90.0,0.0,0.0
1082,70.0,7.0,270.0,0.0,0.0
1083,54.0,40.0,240.0,0.0,0.0
1084,74.0,49.0,90.0,0.0,0.0
1085,75.0,96.0,90.0,0.0,0.0
1086,74.0,191.0,90.0,0.0,0.0
1087,56.0,47.0,240.0,0.0,0.0
1088,71.0,1.0,180.0,0.0,0.0
1089,74.0,49.0,90.0,0.0,0.0
1090,75.0,96.0,90.0,0.0,0.0
1091,74.0,192.0,90.0,0.0,0.0
1092,66.0,7.0,270.0,0.0,0.0
1093,58.0,40.0,240.0,0.0,0.0
1094,70.0,49.0,90.0,0.0,0.0
1095,75.0,96.0,90.0,0.0,0.0
1096,74.0,191.0,90.0,0.0,0.0
1097,65.0,1.0,180.0,0.0,0.0
1098,46.0,47.0,240.0,0.0,0.0
1099,68.0,49.0,90.0,0.0,0.0
1100,75.0,96.0,90.0,0.0,0.0
1101,74.0,192.0,90.0,0.0,0.0
1102,63.0,3.0,390.0,0.0,0.0
1103,51.0,47.0,240.0,0.0,0.0
1104,66.0,49.0,90.0,0.0,0.0
1105,70.0,93.0,90.0,0.0,0.0
1106,75.0,191.0,90.0,0.0,0.0
1107,70.0,3.0,390.0,0.0,0.0
1108,54.0,1.0,180.0,0.0,0.0
1109,78.0,96.0,90.0,0.0,0.0
1110,63.0,0.0,90.0,0.0,0.0
1111,80.0,93.0,90.0,0.0,0.0
1112,62.0,0.0,90.0,0.0,0.0
1113,63.0,0.0,90.0,0.0,0.0
1114,78.0,191.0,90.0,0.0,0.0
1115,72.0,3.0,390.0,0.0,0.0
1116,56.0,1.0,180.0,0.0,0.0
1117,78.0,96.0,90.0,0.0,0.0
1118,63.0,0.0,90.0,0.0,0.0
1119,80.0,93.0,90.0,0.0,0.0
1120,62.0,0.0,90.0,0.0,0.0
1121,78.0,0.0,90.0,0.0,0.0
1122,63.0,191.0,90.0,0.0,0.0
1123,58.0,1.0,180.0,0.0,0.0
1124,74.0,3.0,390.0,0.0,0.0
1125,78.0,96.0,90.0,0.0,0.0
1126,63.0,0.0,90.0,0.0,0.0
1127,80.0,93.0,90.0,0.0,0.0
1128,62.0,0.0,90.0,0.0,0.0
1129,63.0,0.0,90.0,0.0,0.0
1130,78.0,191.0,90.0,0.0,0.0
1131,75.0,3.0,390.0,0.0,0.0
1132,59.0,1.0,180.0,0.0,0.0
1133,78.0,0.0,90.0,0.0,0.0
1134,63.0,96.0,90.0,0.0,0.0
1135,80.0,93.0,90.0,0.0,0.0
1136,62.0,0.0,90.0,0.0,0.0
1137,78.0,191.0,90.0,0.0,0.0
1138,63.0,0.0,90.0,0.0,0.0
1139,74.0,3.0,390.0,0.0,0.0
1140,58.0,1.0,180.0,0.0,0.0
1141,78.0,0.0,90.0,0.0,0.0
1142,63.0,96.0,90.0,0.0,0.0
1143,62.0,0.0,90.0,0.0,0.0
1144,80.0,93.0,90.0,0.0,0.0
1145,78.0,191.0,90.0,0.0,0.0
1146,63.0,0.0,90.0,0.0,0.0
1147,71.0,3.0,390.0,0.0,0.0
1148,56.0,1.0,180.0,0.0,0.0
1149,78.0,0.0,90.0,0.0,0.0
1150,63.0,96.0,90.0,0.0,0.0
1151,80.0,93.0,90.0,0.0,0.0
1152,62.0,0.0,90.0,0.0,0.0
1153,78.0,96.0,90.0,0.0,0.0
1154,63.0,0.0,90.0,0.0,0.0
1155,68.0,1.0,180.0,0.0,0.0
1156,58.0,95.0,90.0,0.0,0.0
1157,77.0,96.0,90.0,0.0,0.0
1158,62.0,0.0,90.0,0.0,0.0
1159,60.0,96.0,90.0,0.0,0.0
1160,78.0,0.0,90.0,0.0,0.0
1161,62.0,0.0,90.0,0.0,0.0
1162,77.0,441.0,90.0,0.0,0.0
1163,75.0,0.0,450.0,0.0,0.0
1164,66.0,0.0,450.0,0.0,0.0
1165,63.0,231.0,450.0,0.0,0.0
1166,51.0,0.0,450.0,0.0,0.0
1167,54.0,143.0,240.0,0.0,0.0
1168,42.0,0.0,240.0,0.0,0.0
1169,70.0,49.0,180.0,0.0,0.0
1170,58.0,192.0,180.0,0.0,0.0
1171,44.0,143.0,240.0,0.0,0.0
1172,56.0,0.0,240.0,0.0,0.0
1173,60.0,49.0,180.0,0.0,0.0
1174,68.0,192.0,180.0,0.0,0.0
1175,46.0,143.0,240.0,0.0,0.0
1176,53.0,0.0,240.0,0.0,0.0
1177,62.0,49.0,180.0,0.0,0.0
1178,70.0,281.0,180.0,0.0,0.0
1179,66.0,0.0,270.0,0.0,0.0
1180,51.0,7.0,270.0,0.0,0.0
1181,65.0,136.0,90.0,0.0,0.0
1182,63.0,225.0,120.0,0.0,0.0
1183,58.0,1.0,240.0,0.0,0.0
1184,61.0,1.0,240.0,0.0,0.0
1185,66.0,1.0,240.0,0.0,0.0
1186,85.0,140.0,240.0,0.0,0.0
1187,73.0,192.0,180.0,0.0,0.0
1188,75.0,49.0,180.0,0.0,0.0
1189,68.0,0.0,240.0,0.0,0.0
1190,59.0,143.0,240.0,0.0,0.0
1191,63.0,0.0,240.0,0.0,0.0
1192,83.0,192.0,180.0,0.0,0.0
1193,73.0,0.0,240.0,0.0,0.0
1194,68.0,0.0,240.0,0.0,0.0
1195,61.0,143.0,240.0,0.0,0.0
1196,77.0,49.0,180.0,0.0,0.0
1197,85.0,192.0,180.0,0.0,0.0
1198,61.0,3.0,390.0,0.0,0.0
1199,66.0,47.0,240.0,0.0,0.0
1200,82.0,49.0,180.0,0.0,0.0
1201,54.0,0.0,240.0,0.0,0.0
1202,80.0,93.0,90.0,0.0,0.0
1203,78.0,216.0,90.0,0.0,0.0
1204,61.0,49.0,180.0,0.0,0.0
1205,73.0,0.0,240.0,0.0,0.0
1206,77.0,143.0,240.0,0.0,0.0
1207,68.0,0.0,240.0,0.0,0.0
1208,49.0,192.0,180.0,0.0,0.0
1209,51.0,49.0,180.0,0.0,0.0
1210,71.0,0.0,240.0,0.0,0.0
1211,66.0,143.0,240.0,0.0,0.0
1212,78.0,0.0,240.0,0.0,0.0
1213,59.0,192.0,180.0,0.0,0.0
1214,73.0,0.0,240.0,0.0,0.0
1215,53.0,49.0,180.0,0.0,0.0
1216,71.0,0.0,240.0,0.0,0.0
1217,80.0,143.0,240.0,0.0,0.0
1218,61.0,192.0,180.0,0.0,0.0
1219,58.0,49.0,180.0,0.0,0.0
1220,78.0,111.0,480.0,0.0,0.0
1221,66.0,0.0,240.0,0.0,0.0
1222,73.0,47.0,240.0,0.0,0.0
1223,56.0,103.0,90.0,0.0,0.0
1224,54.0,90.0,90.0,0.0,0.0
1225,61.0,96.0,180.0,0.0,0.0
1226,70.0,3.0,390.0,0.0,0.0
1227,78.0,0.0,90.0,0.0,0.0
1228,80.0,93.0,90.0,0.0,0.0
1229,54.0,0.0,180.0,0.0,0.0
1230,78.0,192.0,90.0,0.0,0.0
1231,71.0,3.0,390.0,0.0,0.0
1232,63.0,96.0,180.0,0.0,0.0
1233,78.0,0.0,90.0,0.0,0.0
1234,80.0,93.0,90.0,0.0,0.0
1235,54.0,192.0,180.0,0.0,0.0
1236,78.0,0.0,90.0,0.0,0.0
1237,73.0,3.0,390.0,0.0,0.0
1238,58.0,96.0,180.0,0.0,0.0
1239,78.0,0.0,90.0,0.0,0.0
1240,54.0,192.0,180.0,0.0,0.0
1241,80.0,93.0,90.0,0.0,0.0
1242,78.0,0.0,90.0,0.0,0.0
1243,75.0,3.0,390.0,0.0,0.0
1244,59.0,96.0,180.0,0.0,0.0
1245,78.0,0.0,90.0,0.0,0.0
1246,80.0,93.0,90.0,0.0,0.0
1247,54.0,192.0,180.0,0.0,0.0
1248,78.0,0.0,90.0,0.0,0.0
1249,70.0,3.0,390.0,0.0,0.0
1250,61.0,96.0,180.0,0.0,0.0
1251,78.0,0.0,90.0,0.0,0.0
1252,80.0,93.0,90.0,0.0,0.0
1253,54.0,192.0,180.0,0.0,0.0
1254,78.0,0.0,90.0,0.0,0.0
1255,68.0,3.0,390.0,0.0,0.0
1256,63.0,0.0,180.0,0.0,0.0
1257,78.0,96.0,90.0,0.0,0.0
1258,80.0,93.0,90.0,0.0,0.0
1259,59.0,192.0,180.0,0.0,0.0
1260,78.0,0.0,90.0,0.0,0.0
1261,68.0,3.0,390.0,0.0,0.0
1262,61.0,96.0,180.0,0.0,0.0
1263,77.0,0.0,90.0,0.0,0.0
1264,78.0,93.0,90.0,0.0,0.0
1265,49.0,0.0,180.0,0.0,0.0
1266,77.0,192.0,90.0,0.0,0.0
1267,66.0,3.0,390.0,0.0,0.0
1268,54.0,0.0,390.0,0.0,0.0
1269,70.0,96.0,90.0,0.0,0.0
1270,73.0,93.0,90.0,0.0,0.0
1271,78.0,191.0,90.0,0.0,0.0
1272,73.0,3.0,390.0,0.0,0.0
1273,46.0,1.0,180.0,0.0,0.0
1274,82.0,0.0,90.0,0.0,0.0
1275,54.0,96.0,90.0,0.0,0.0
1276,56.0,0.0,90.0,0.0,0.0
1277,83.0,93.0,90.0,0.0,0.0
1278,82.0,191.0,90.0,0.0,0.0
1279,54.0,0.0,90.0,0.0,0.0
1280,75.0,3.0,390.0,0.0,0.0
1281,47.0,1.0,180.0,0.0,0.0
1282,82.0,96.0,90.0,0.0,0.0
1283,54.0,0.0,90.0,0.0,0.0
1284,56.0,93.0,90.0,0.0,0.0
1285,83.0,0.0,90.0,0.0,0.0
1286,54.0,0.0,90.0,0.0,0.0
1287,82.0,191.0,90.0,0.0,0.0
1288,77.0,3.0,390.0,0.0,0.0
1289,49.0,1.0,180.0,0.0,0.0
1290,82.0,96.0,90.0,0.0,0.0
1291,54.0,0.0,90.0,0.0,0.0
1292,83.0,0.0,90.0,0.0,0.0
1293,56.0,93.0,90.0,0.0,0.0
1294,54.0,191.0,90.0,0.0,0.0
1295,82.0,0.0,90.0,0.0,0.0
1296,78.0,3.0,390.0,0.0,0.0
1297,51.0,1.0,180.0,0.0,0.0
1298,82.0,96.0,90.0,0.0,0.0
1299,54.0,0.0,90.0,0.0,0.0
1300,83.0,93.0,90.0,0.0,0.0
1301,56.0,0.0,90.0,0.0,0.0
1302,82.0,0.0,90.0,0.0,0.0
1303,54.0,191.0,90.0,0.0,0.0
1304,73.0,3.0,390.0,0.0,0.0
1305,46.0,1.0,180.0,0.0,0.0
1306,82.0,96.0,90.0,0.0,0.0
1307,54.0,0.0,90.0,0.0,0.0
1308,83.0,93.0,90.0,0.0,0.0
1309,56.0,0.0,90.0,0.0,0.0
1310,82.0,191.0,90.0,0.0,0.0
1311,54.0,0.0,90.0,0.0,0.0
1312,47.0,1.0,180.0,0.0,0.0
1313,75.0,3.0,390.0,0.0,0.0
1314,54.0,0.0,90.0,0.0,0.0
1315,82.0,96.0,90.0,0.0,0.0
1316,83.0,93.0,90.0,0.0,0.0
1317,56.0,0.0,90.0,0.0,0.0
1318,54.0,0.0,90.0,0.0,0.0
1319,82.0,191.0,90.0,0.0,0.0
1320,71.0,3.0,390.0,0.0,0.0
1321,49.0,1.0,180.0,0.0,0.0
1322,53.0,96.0,90.0,0.0,0.0
1323,80.0,0.0,90.0,0.0,0.0
1324,82.0,93.0,90.0,0.0,0.0
1325,54.0,0.0,90.0,0.0,0.0
1326,80.0,195.0,90.0,0.0,0.0
1327,53.0,0.0,90.0,0.0,0.0
1328,42.0,40.0,600.0,0.0,0.0
1329,70.0,29.0,180.0,0.0,0.0
1330,78.0,101.0,90.0,0.0,0.0
1331,80.0,101.0,90.0,0.0,0.0
1332,78.0,101.0,90.0,0.0,0.0
1333,69.0,61.0,90.0,0.0,0.0
1334,78.0,101.0,90.0,0.0,0.0
1335,54.0,101.0,210.0,0.0,0.0
1336,80.0,101.0,90.0,0.0,0.0
1337,78.0,0.0,90.0,0.0,0.0
1338,59.0,0.0,210.0,0.0,0.0
1339,68.0,101.0,90.0,0.0,0.0
1340,78.0,101.0,90.0,0.0,0.0
1341,62.0,149.0,210.0,0.0,0.0
1342,80.0,101.0,90.0,0.0,0.0
1343,78.0,0.0,90.0,0.0,0.0
1344,61.0,100.0,210.0,0.0,0.0
1345,70.0,52.0,150.0,0.0,0.0
1346,78.0,1.0,90.0,0.0,0.0
1347,64.0,0.0,210.0,0.0,0.0
1348,80.0,101.0,90.0,0.0,0.0
1349,78.0,200.0,90.0,0.0,0.0
1350,71.0,1.0,210.0,0.0,0.0
1351,62.0,0.0,210.0,0.0,0.0
1352,78.0,101.0,90.0,0.0,0.0
1353,50.0,149.0,210.0,0.0,0.0
1354,80.0,101.0,90.0,0.0,0.0
1355,78.0,0.0,90.0,0.0,0.0
1356,69.0,53.0,150.0,0.0,0.0
1357,49.0,101.0,210.0,0.0,0.0
1358,78.0,0.0,90.0,0.0,0.0
1359,61.0,0.0,210.0,0.0,0.0
1360,80.0,101.0,90.0,0.0,0.0
1361,78.0,149.0,90.0,0.0,0.0
1362,59.0,100.0,210.0,0.0,0.0
1363,68.0,53.0,150.0,0.0,0.0
1364,78.0,0.0,90.0,0.0,0.0
1365,47.0,201.0,210.0,0.0,0.0
1366,80.0,101.0,90.0,0.0,0.0
1367,78.0,0.0,90.0,0.0,0.0
1368,49.0,0.0,210.0,0.0,0.0
1369,70.0,1.0,210.0,0.0,0.0
1370,78.0,101.0,90.0,0.0,0.0
1371,61.0,201.0,210.0,0.0,0.0
1372,80.0,101.0,90.0,0.0,0.0
1373,78.0,0.0,90.0,0.0,0.0
1374,71.0,7.0,300.0,0.0,0.0
1375,62.0,94.0,210.0,0.0,0.0
1376,78.0,0.0,90.0,0.0,0.0
1377,50.0,0.0,210.0,0.0,0.0
1378,80.0,101.0,90.0,0.0,0.0
1379,78.0,201.0,90.0,0.0,0.0
1380,49.0,100.0,210.0,0.0,0.0
1381,69.0,1.0,210.0,0.0,0.0
1382,78.0,0.0,90.0,0.0,0.0
1383,61.0,202.0,210.0,0.0,0.0
1384,80.0,101.0,90.0,0.0,0.0
1385,78.0,0.0,90.0,0.0,0.0
1386,59.0,0.0,210.0,0.0,0.0
1387,68.0,7.0,300.0,0.0,0.0
1388,78.0,94.0,90.0,0.0,0.0
1389,47.0,202.0,210.0,0.0,0.0
1390,80.0,101.0,90.0,0.0,0.0
1391,78.0,0.0,90.0,0.0,0.0
1392,49.0,94.0,210.0,0.0,0.0
1393,69.0,7.0,300.0,0.0,0.0
1394,78.0,0.0,90.0,0.0,0.0
1395,61.0,0.0,210.0,0.0,0.0
1396,80.0,101.0,90.0,0.0,0.0
1397,78.0,201.0,90.0,0.0,0.0
1398,62.0,100.0,210.0,0.0,0.0
1399,71.0,1.0,210.0,0.0,0.0
1400,78.0,0.0,90.0,0.0,0.0
1401,61.0,100.0,90.0,0.0,0.0
1402,80.0,0.0,90.0,0.0,0.0
1403,59.0,51.0,90.0,0.0,0.0
1404,81.0,0.0,90.0,0.0,0.0
1405,78.0,51.0,40.0,0.0,0.0
1406,61.0,3.0,390.0,0.0,0.0
1407,77.0,50.0,40.0,0.0,0.0
1408,78.0,152.0,40.0,0.0,0.0
1409,77.0,97.0,150.0,0.0,0.0
1410,49.0,404.0,210.0,0.0,0.0
1411,78.0,0.0,90.0,0.0,0.0
1412,54.0,0.0,390.0,0.0,0.0
1413,66.0,350.0,390.0,0.0,0.0
1414,78.0,0.0,390.0,0.0,0.0
1415,61.0,9.0,330.0,0.0,0.0
1416,46.0,0.0,450.0,0.0,0.0
1417,54.0,2.0,450.0,0.0,0.0
1418,66.0,3.0,450.0,0.0,0.0
1419,64.0,105.0,120.0,0.0,0.0
1420,63.0,111.0,120.0,0.0,0.0
1421,61.0,229.0,120.0,0.0,0.0
1422,54.0,230.0,450.0,0.0,0.0
1423,71.0,3.0,450.0,0.0,0.0
1424,47.0,0.0,450.0,0.0,0.0
1425,56.0,0.0,450.0,0.0,0.0
1426,70.0,115.0,120.0,0.0,0.0
1427,68.0,112.0,120.0,0.0,0.0
1428,66.0,0.0,120.0,0.0,0.0
1429,65.0,3.0,450.0,0.0,0.0
1430,56.0,0.0,450.0,0.0,0.0
1431,49.0,1.0,450.0,0.0,0.0
1432,63.0,116.0,120.0,0.0,0.0
1433,61.0,110.0,120.0,0.0,0.0
1434,59.0,230.0,120.0,0.0,0.0
1435,66.0,0.0,450.0,0.0,0.0
1436,58.0,3.0,450.0,0.0,0.0
1437,51.0,0.0,450.0,0.0,0.0
1438,63.0,1.0,450.0,0.0,0.0
1439,53.0,115.0,120.0,0.0,0.0
1440,54.0,111.0,120.0,0.0,0.0
1441,56.0,230.0,120.0,0.0,0.0
1442,66.0,0.0,450.0,0.0,0.0
1443,58.0,0.0,450.0,0.0,0.0
1444,61.0,5.0,450.0,0.0,0.0
1445,46.0,114.0,120.0,0.0,0.0
1446,44.0,112.0,120.0,0.0,0.0
1447,42.0,229.0,120.0,0.0,0.0
1448,47.0,9.0,330.0,0.0,0.0
1449,52.0,106.0,120.0,0.0,0.0
1450,51.0,114.0,120.0,0.0,0.0
1451,49.0,231.0,120.0,0.0,0.0
1452,51.0,3.0,450.0,0.0,0.0
1453,54.0,115.0,120.0,0.0,0.0
1454,56.0,112.0,120.0,0.0,0.0
1455,58.0,229.0,120.0,0.0,0.0
1456,59.0,4.0,450.0,0.0,0.0
1457,61.0,116.0,120.0,0.0,0.0
1458,63.0,111.0,120.0,0.0,0.0
1459,64.0,108.0,120.0,0.0,0.0
1460,59.0,0.0,240.0,0.0,0.0
1461,63.0,2.0,240.0,0.0,0.0
1462,54.0,120.0,120.0,0.0,0.0
1463,54.0,114.0,120.0,0.0,0.0
1464,65.0,2.0,240.0,0.0,0.0
1465,56.0,0.0,240.0,0.0,0.0
1466,53.0,114.0,120.0,0.0,0.0
1467,61.0,0.0,240.0,0.0,0.0
1468,51.0,236.0,120.0,0.0,0.0
1469,66.0,20.0,570.0,0.0,0.0
1470,54.0,98.0,1830.0,0.0,0.0
1471,58.0,19.0,330.0,0.0,0.0
1472,61.0,100.0,120.0,0.0,0.0
1473,63.0,119.0,120.0,0.0,0.0
1474,58.0,101.0,120.0,0.0,0.0
1475,59.0,119.0,120.0,0.0,0.0
1476,66.0,239.0,120.0,0.0,0.0
1477,71.0,132.0,360.0,0.0,0.0
1478,65.0,112.0,120.0,0.0,0.0
1479,66.0,123.0,360.0,0.0,0.0
1480,61.0,16.0,480.0,0.0,0.0
1481,71.0,107.0,120.0,0.0,0.0
1482,70.0,123.0,240.0,0.0,0.0
1483,66.0,123.0,240.0,0.0,0.0
1484,63.0,8.0,360.0,0.0,0.0
1485,71.0,115.0,240.0,0.0,0.0
1486,66.0,25.0,240.0,0.0,0.0
1487,71.0,0.0,240.0,0.0,0.0
1488,75.0,3.0,240.0,0.0,0.0
1489,65.0,122.0,120.0,0.0,0.0
1490,54.0,277.0,2820.0,0.0,0.0
1491,66.0,16.0,480.0,0.0,0.0
1492,73.0,130.0,120.0,0.0,0.0
1493,71.0,236.0,120.0,0.0,0.0
1494,70.0,127.0,240.0,0.0,0.0
1495,78.0,154.0,240.0,0.0,0.0
1496,71.0,0.0,570.0,0.0,0.0
1497,68.0,12.0,570.0,0.0,0.0
1498,80.0,150.0,120.0,0.0,0.0
1499,78.0,156.0,120.0,0.0,0.0
1500,77.0,1720.0,150.0,0.0,0.0
1501,70.0,8.0,1980.0,0.0,0.0
1502,73.0,6.0,1980.0,0.0,0.0
1503,66.0,6.0,1950.0,0.0,0.0
1504,78.0,1217.0,1980.0,0.0,0.0
1505,66.0,0.0,780.0,0.0,0.0
1506,70.0,3.0,390.0,0.0,0.0
1507,73.0,288.0,180.0,0.0,0.0
1508,71.0,96.0,300.0,0.0,0.0
1509,70.0,384.0,90.0,0.0,0.0
1510,75.0,768.0,780.0,0.0,0.0
1511,66.0,288.0,180.0,0.0,0.0
1512,70.0,3.0,390.0,0.0,0.0
1513,65.0,93.0,300.0,0.0,0.0
1514,63.0,0.0,90.0,0.0,0.0
1515,62.0,1.0,780.0,0.0,0.0
1516,68.0,1.0,780.0,0.0,0.0
1517,70.0,1.0,780.0,0.0,0.0
1518,77.0,141.0,780.0,0.0,0.0
1519,58.0,1.0,180.0,0.0,0.0
1520,65.0,95.0,90.0,0.0,0.0
1521,68.0,0.0,90.0,0.0,0.0
1522,70.0,95.0,90.0,0.0,0.0
1523,50.0,1.0,180.0,0.0,0.0
1524,68.0,0.0,90.0,0.0,0.0
1525,65.0,95.0,90.0,0.0,0.0
1526,58.0,1.0,180.0,0.0,0.0
1527,70.0,95.0,90.0,0.0,0.0
1528,50.0,1.0,180.0,0.0,0.0
1529,68.0,0.0,90.0,0.0,0.0
1530,65.0,95.0,90.0,0.0,0.0
1531,58.0,1.0,180.0,0.0,0.0
1532,70.0,95.0,90.0,0.0,0.0
1533,50.0,16.0,180.0,0.0,0.0
1534,68.0,0.0,120.0,0.0,0.0
1535,65.0,80.0,120.0,0.0,0.0
1536,58.0,111.0,180.0,0.0,0.0
1537,50.0,0.0,180.0,0.0,0.0
1538,70.0,1103.0,180.0,0.0,0.0
1539,66.0,3.0,390.0,0.0,0.0
1540,63.0,185.0,780.0,0.0,0.0
1541,70.0,288.0,180.0,0.0,0.0
1542,68.0,96.0,300.0,0.0,0.0
1543,66.0,196.0,270.0,0.0,0.0
1544,71.0,3.0,390.0,0.0,0.0
1545,63.0,288.0,180.0,0.0,0.0
1546,66.0,3.0,390.0,0.0,0.0
1547,61.0,93.0,300.0,0.0,0.0
1548,59.0,768.0,90.0,0.0,0.0
1549,58.0,1.0,780.0,0.0,0.0
1550,64.0,1.0,780.0,0.0,0.0
1551,66.0,1.0,780.0,0.0,0.0
1552,73.0,141.0,780.0,0.0,0.0
1553,61.0,95.0,90.0,0.0,0.0
1554,64.0,0.0,90.0,0.0,0.0
1555,54.0,1.0,180.0,0.0,0.0
1556,46.0,1.0,180.0,0.0,0.0
1557,49.0,95.0,90.0,0.0,0.0
1558,66.0,0.0,90.0,0.0,0.0
1559,54.0,1.0,180.0,0.0,0.0
1560,61.0,0.0,90.0,0.0,0.0
1561,64.0,95.0,90.0,0.0,0.0
1562,46.0,1.0,180.0,0.0,0.0
1563,49.0,95.0,90.0,0.0,0.0
1564,66.0,0.0,90.0,0.0,0.0
1565,54.0,1.0,180.0,0.0,0.0
1566,61.0,95.0,90.0,0.0,0.0
1567,64.0,0.0,90.0,0.0,0.0
1568,46.0,16.0,180.0,0.0,0.0
1569,49.0,0.0,90.0,0.0,0.0
1570,66.0,95.0,90.0,0.0,0.0
1571,54.0,61.0,180.0,0.0,0.0
1572,61.0,80.0,120.0,0.0,0.0
1573,64.0,0.0,120.0,0.0,0.0
1574,49.0,996.0,150.0,0.0,0.0
1575,46.0,0.0,150.0,0.0,0.0
1576,66.0,0.0,150.0,0.0,0.0
1577,63.0,185.0,780.0,0.0,0.0
1578,59.0,0.0,780.0,0.0,0.0
1579,78.0,288.0,180.0,0.0,0.0
1580,76.0,96.0,300.0,0.0,0.0
1581,75.0,196.0,270.0,0.0,0.0
1582,80.0,3.0,390.0,0.0,0.0
1583,71.0,288.0,180.0,0.0,0.0
1584,75.0,3.0,390.0,0.0,0.0
1585,70.0,93.0,300.0,0.0,0.0
1586,68.0,768.0,90.0,0.0,0.0
1587,67.0,1.0,780.0,0.0,0.0
1588,73.0,1.0,780.0,0.0,0.0
1589,75.0,1.0,780.0,0.0,0.0
1590,82.0,93.0,780.0,0.0,0.0
1591,70.0,0.0,90.0,0.0,0.0
1592,73.0,95.0,90.0,0.0,0.0
1593,63.0,1.0,180.0,0.0,0.0
1594,58.0,0.0,90.0,0.0,0.0
1595,55.0,1.0,180.0,0.0,0.0
1596,75.0,95.0,90.0,0.0,0.0
1597,70.0,95.0,90.0,0.0,0.0
1598,63.0,1.0,180.0,0.0,0.0
1599,73.0,0.0,90.0,0.0,0.0
1600,55.0,1.0,180.0,0.0,0.0
1601,58.0,95.0,90.0,0.0,0.0
1602,75.0,0.0,90.0,0.0,0.0
1603,73.0,0.0,90.0,0.0,0.0
1604,70.0,95.0,90.0,0.0,0.0
1605,63.0,1.0,180.0,0.0,0.0
1606,55.0,16.0,180.0,0.0,0.0
1607,58.0,0.0,90.0,0.0,0.0
1608,75.0,95.0,90.0,0.0,0.0
1609,63.0,208.0,180.0,0.0,0.0
1610,70.0,80.0,120.0,0.0,0.0
1611,73.0,0.0,120.0,0.0,0.0
1612,55.0,0.0,300.0,0.0,0.0
1613,75.0,654.0,300.0,0.0,0.0
1614,58.0,0.0,300.0,0.0,0.0
1615,82.0,291.0,270.0,0.0,0.0
1616,73.0,96.0,300.0,0.0,0.0
1617,73.0,765.0,90.0,0.0,0.0
1618,73.0,381.0,780.0,0.0,0.0
1619,67.0,0.0,390.0,0.0,0.0
1620,58.0,0.0,390.0,0.0,0.0
1621,63.0,0.0,390.0,0.0,0.0
1622,55.0,0.0,390.0,0.0,0.0
1623,70.0,3.0,390.0,0.0,0.0
1624,58.0,0.0,780.0,0.0,0.0
1625,70.0,51.0,390.0,0.0,0.0
1626,55.0,0.0,780.0,0.0,0.0
1627,67.0,48.0,780.0,0.0,0.0
1628,63.0,0.0,780.0,0.0,0.0
1629,82.0,288.0,180.0,0.0,0.0
1630,73.0,48.0,300.0,0.0,0.0
1631,73.0,768.0,90.0,0.0,0.0
1632,73.0,0.0,780.0,0.0,0.0
1633,63.0,0.0,390.0,0.0,0.0
1634,55.0,432.0,390.0,0.0,0.0
1635,58.0,0.0,390.0,0.0,0.0
1636,67.0,0.0,390.0,0.0,0.0
1637,70.0,0.0,390.0,0.0,0.0
1638,70.0,0.0,780.0,0.0,0.0
1639,63.0,48.0,780.0,0.0,0.0
1640,67.0,0.0,780.0,0.0,0.0
1641,58.0,0.0,780.0,0.0,0.0
1642,61.0,0.0,780.0,0.0,0.0
1643,56.0,0.0,780.0,0.0,0.0
1644,82.0,288.0,180.0,0.0,0.0
1645,73.0,48.0,300.0,0.0,0.0
1646,73.0,768.0,90.0,0.0,0.0
1647,73.0,0.0,780.0,0.0,0.0
1648,70.0,432.0,390.0,0.0,0.0
1649,58.0,0.0,390.0,0.0,0.0
1650,67.0,0.0,390.0,0.0,0.0
1651,56.0,0.0,390.0,0.0,0.0
1652,63.0,0.0,390.0,0.0,0.0
1653,61.0,0.0,390.0,0.0,0.0
1654,68.0,48.0,780.0,0.0,0.0
1655,63.0,0.0,780.0,0.0,0.0
1656,59.0,0.0,780.0,0.0,0.0
1657,56.0,0.0,780.0,0.0,0.0
1658,80.0,288.0,180.0,0.0,0.0
1659,71.0,48.0,300.0,0.0,0.0
1660,71.0,768.0,90.0,0.0,0.0
1661,71.0,0.0,780.0,0.0,0.0
1662,56.0,0.0,390.0,0.0,0.0
1663,59.0,0.0,390.0,0.0,0.0
1664,68.0,0.0,390.0,0.0,0.0
1665,63.0,432.0,390.0,0.0,0.0
1666,63.0,0.0,780.0,0.0,0.0
1667,68.0,48.0,780.0,0.0,0.0
1668,59.0,0.0,780.0,0.0,0.0
1669,80.0,288.0,180.0,0.0,0.0
1670,71.0,48.0,300.0,0.0,0.0
1671,71.0,768.0,90.0,0.0,0.0
1672,71.0,0.0,780.0,0.0,0.0
1673,64.0,0.0,390.0,0.0,0.0
1674,68.0,432.0,390.0,0.0,0.0
1675,62.0,48.0,780.0,0.0,0.0
1676,68.0,0.0,780.0,0.0,0.0
1677,65.0,0.0,780.0,0.0,0.0
1678,80.0,288.0,180.0,0.0,0.0
1679,71.0,48.0,300.0,0.0,0.0
1680,71.0,401.0,90.0,0.0,0.0
1681,71.0,127.0,390.0,0.0,0.0
1682,71.0,288.0,90.0,0.0,0.0
1683,53.0,0.0,390.0,0.0,0.0
1684,50.0,0.0,390.0,0.0,0.0
1685,80.0,93.0,300.0,0.0,0.0
1686,68.0,248.0,780.0,0.0,0.0
1687,56.0,3.0,390.0,0.0,0.0
1688,71.0,384.0,90.0,0.0,0.0
1689,70.0,0.0,1110.0,0.0,0.0
1690,51.0,230.0,1110.0,0.0,0.0
1691,63.0,0.0,1110.0,0.0,0.0
1692,58.0,0.0,1110.0,0.0,0.0
1693,67.0,208.0,210.0,0.0,0.0
1694,65.0,261.0,210.0,0.0,0.0
1695,67.0,229.0,480.0,0.0,0.0
1696,75.0,0.0,390.0,0.0,0.0
1697,70.0,3.0,390.0,0.0,0.0
1698,55.0,0.0,390.0,0.0,0.0
1699,51.0,189.0,180.0,0.0,0.0
1700,67.0,0.0,390.0,0.0,0.0
1701,58.0,0.0,390.0,0.0,0.0
1702,63.0,0.0,390.0,0.0,0.0
1703,49.0,512.0,180.0,0.0,0.0
1704,72.0,92.0,510.0,0.0,0.0
1705,75.0,0.0,510.0,0.0,0.0
1706,63.0,0.0,780.0,0.0,0.0
1707,69.0,0.0,510.0,0.0,0.0
1708,51.0,16.0,780.0,0.0,0.0
1709,48.0,0.0,780.0,0.0,0.0
1710,57.0,0.0,780.0,0.0,0.0
1711,75.0,60.0,60.0,0.0,0.0
1712,73.0,77.0,60.0,0.0,0.0
1713,72.0,27.0,90.0,0.0,0.0
1714,70.0,60.0,60.0,0.0,0.0
1715,68.0,60.0,60.0,0.0,0.0
1716,66.0,60.0,60.0,0.0,0.0
1717,65.0,117.0,60.0,0.0,0.0
1718,63.0,71.0,120.0,0.0,0.0
1719,61.0,121.0,90.0,0.0,0.0
1720,60.0,71.0,120.0,0.0,0.0
1721,58.0,381.0,90.0,0.0,0.0
1722,57.0,3.0,390.0,0.0,0.0
1723,53.0,203.0,600.0,0.0,0.0
1724,72.0,0.0,180.0,0.0,0.0
1725,65.0,394.0,180.0,0.0,0.0
1726,75.0,0.0,180.0,0.0,0.0
1727,72.0,0.0,390.0,0.0,0.0
1728,46.0,135.0,1110.0,0.0,0.0
1729,58.0,0.0,1110.0,0.0,0.0
1730,65.0,6.0,390.0,0.0,0.0
1731,75.0,0.0,390.0,0.0,0.0
1732,65.0,0.0,210.0,0.0,0.0
1733,73.0,197.0,210.0,0.0,0.0
1734,70.0,0.0,210.0,0.0,0.0
1735,72.0,290.0,210.0,0.0,0.0
1736,63.0,11.0,180.0,0.0,0.0
1737,69.0,0.0,210.0,0.0,0.0
1738,65.0,0.0,420.0,0.0,0.0
1739,73.0,330.0,420.0,0.0,0.0
1740,70.0,0.0,420.0,0.0,0.0
1741,70.0,64.0,60.0,0.0,0.0
1742,68.0,64.0,60.0,0.0,0.0
1743,66.0,64.0,60.0,0.0,0.0
1744,65.0,62.0,60.0,0.0,0.0
1745,63.0,60.0,60.0,0.0,0.0
1746,61.0,60.0,60.0,0.0,0.0
1747,60.0,92.0,60.0,0.0,0.0
1748,58.0,92.0,90.0,0.0,0.0
1749,56.0,92.0,90.0,0.0,0.0
1750,54.0,92.0,90.0,0.0,0.0
1751,53.0,764.0,90.0,0.0,0.0
1752,52.0,0.0,780.0,0.0,0.0
1753,79.0,0.0,390.0,0.0,0.0
1754,70.0,0.0,390.0,0.0,0.0
1755,72.0,288.0,390.0,0.0,0.0
1756,60.0,0.0,390.0,0.0,0.0
1757,55.0,0.0,390.0,0.0,0.0
1758,72.0,3.0,390.0,0.0,0.0
1759,69.0,0.0,390.0,0.0,0.0
1760,53.0,7.0,960.0,0.0,0.0
1761,61.0,93.0,90.0,0.0,0.0
1762,63.0,192.0,90.0,0.0,0.0
1763,61.0,0.0,180.0,0.0,0.0
1764,70.0,0.0,180.0,0.0,0.0
1765,73.0,192.0,180.0,0.0,0.0
1766,75.0,0.0,180.0,0.0,0.0
1767,69.0,0.0,180.0,0.0,0.0
1768,60.0,96.0,180.0,0.0,0.0
1769,77.0,0.0,390.0,0.0,0.0
1770,61.0,2.0,390.0,0.0,0.0
1771,70.0,89.0,90.0,0.0,0.0
1772,69.0,96.0,90.0,0.0,0.0
1773,52.0,1.0,180.0,0.0,0.0
1774,70.0,93.0,90.0,0.0,0.0
1775,72.0,161.0,90.0,0.0,0.0
1776,72.0,96.0,150.0,0.0,0.0
1777,53.0,215.0,780.0,0.0,0.0
1778,57.0,78.0,390.0,0.0,0.0
1779,69.0,106.0,150.0,0.0,0.0
1780,72.0,18.0,180.0,0.0,0.0
1781,69.0,106.0,180.0,0.0,0.0
1782,63.0,3.0,390.0,0.0,0.0
1783,72.0,96.0,180.0,0.0,0.0
1784,69.0,29.0,180.0,0.0,0.0
1785,72.0,75.0,90.0,0.0,0.0
1786,69.0,369.0,300.0,0.0,0.0
1787,70.0,335.0,1710.0,0.0,0.0
1788,65.0,200.0,90.0,0.0,0.0
1789,66.0,6.0,1350.0,0.0,0.0
1790,62.0,324.0,90.0,0.0,0.0
1791,63.0,144.0,1140.0,0.0,0.0
1792,58.0,100.0,90.0,0.0,0.0
1793,53.0,100.0,90.0,0.0,0.0
1794,54.0,100.0,90.0,0.0,0.0
1795,50.0,100.0,90.0,0.0,0.0
1796,51.0,127.0,90.0,0.0,0.0
1797,45.0,304.0,120.0,0.0,0.0
1798,46.0,144.0,3000.0,0.0,0.0
1799,57.0,0.0,330.0,0.0,0.0
1800,51.0,33.0,300.0,0.0,0.0
1801,63.0,384.0,330.0,0.0,0.0
1802,72.0,0.0,330.0,0.0,0.0
1803,66.0,0.0,330.0,0.0,0.0
1804,53.0,0.0,330.0,0.0,0.0
1805,62.0,384.0,330.0,0.0,0.0
1806,70.0,0.0,330.0,0.0,0.0
1807,65.0,0.0,330.0,0.0,0.0
1808,58.0,0.0,330.0,0.0,0.0
1809,54.0,1438.0,330.0,0.0,0.0
1810,60.0,0.0,330.0,0.0,0.0
1811,69.0,0.0,330.0,0.0,0.0
1812,63.0,0.0,330.0,0.0,0.0
1813,70.0,849.0,1530.0,0.0,0.0
1814,65.0,4.0,1530.0,0.0,0.0
1815,62.0,4.0,1530.0,0.0,0.0
1816,58.0,4.0,1530.0,0.0,0.0
1817,53.0,4.0,1530.0,0.0,0.0
1818,58.0,96.0,90.0,0.0,0.0
1819,60.0,192.0,90.0,0.0,0.0
1820,61.0,96.0,180.0,0.0,0.0
1821,61.0,96.0,90.0,0.0,0.0
1822,63.0,192.0,90.0,0.0,0.0
1823,65.0,96.0,180.0,0.0,0.0
1824,61.0,0.0,180.0,0.0,0.0
1825,77.0,96.0,90.0,0.0,0.0
1826,70.0,192.0,90.0,0.0,0.0
1827,63.0,192.0,180.0,0.0,0.0
1828,78.0,0.0,180.0,0.0,0.0
1829,65.0,0.0,180.0,0.0,0.0
1830,77.0,96.0,180.0,0.0,0.0
1831,66.0,96.0,90.0,0.0,0.0
1832,75.0,192.0,180.0,0.0,0.0
1833,63.0,0.0,90.0,0.0,0.0
1834,70.0,96.0,390.0,0.0,0.0
1835,73.0,48.0,180.0,0.0,0.0
1836,73.0,48.0,40.0,0.0,0.0
1837,72.0,48.0,40.0,0.0,0.0
1838,73.0,48.0,40.0,0.0,0.0
1839,72.0,96.0,150.0,0.0,0.0
1840,69.0,192.0,180.0,0.0,0.0
1841,70.0,0.0,90.0,0.0,0.0
1842,70.0,96.0,180.0,0.0,0.0
1843,85.0,96.0,180.0,0.0,0.0
1844,58.0,0.0,180.0,0.0,0.0
1845,65.0,96.0,90.0,0.0,0.0
1846,67.0,0.0,90.0,0.0,0.0
1847,84.0,96.0,90.0,0.0,0.0
1848,65.0,0.0,570.0,0.0,0.0
1849,68.0,96.0,180.0,0.0,0.0
1850,85.0,0.0,90.0,0.0,0.0
1851,68.0,96.0,90.0,0.0,0.0
1852,84.0,0.0,90.0,0.0,0.0
1853,70.0,192.0,90.0,0.0,0.0
1854,82.0,0.0,90.0,0.0,0.0
1855,72.0,0.0,180.0,0.0,0.0
1856,80.0,96.0,180.0,0.0,0.0
1857,60.0,96.0,90.0,0.0,0.0
1858,68.0,192.0,180.0,0.0,0.0
1859,77.0,0.0,180.0,0.0,0.0
1860,53.0,0.0,90.0,0.0,0.0
1861,79.0,192.0,180.0,0.0,0.0
1862,61.0,0.0,180.0,0.0,0.0
1863,70.0,0.0,180.0,0.0,0.0
1864,81.0,0.0,180.0,0.0,0.0
1865,72.0,0.0,180.0,0.0,0.0
1866,60.0,96.0,180.0,0.0,0.0
1867,58.0,192.0,180.0,0.0,0.0
1868,73.0,96.0,90.0,0.0,0.0
1869,82.0,0.0,180.0,0.0,0.0
1870,70.0,0.0,90.0,0.0,0.0
1871,84.0,0.0,180.0,0.0,0.0
1872,56.0,192.0,180.0,0.0,0.0
1873,77.0,96.0,390.0,0.0,0.0
1874,55.0,96.0,300.0,0.0,0.0
1875,82.0,0.0,390.0,0.0,0.0
1876,76.0,96.0,180.0,0.0,0.0
1877,53.0,0.0,90.0,0.0,0.0
1878,53.0,96.0,180.0,0.0,0.0
1879,77.0,96.0,90.0,0.0,0.0
1880,81.0,0.0,180.0,0.0,0.0
1881,72.0,0.0,90.0,0.0,0.0
1882,80.0,0.0,180.0,0.0,0.0
1883,65.0,96.0,90.0,0.0,0.0
1884,74.0,96.0,180.0,0.0,0.0
1885,58.0,0.0,90.0,0.0,0.0
1886,63.0,0.0,180.0,0.0,0.0
1887,75.0,96.0,90.0,0.0,0.0
1888,79.0,96.0,180.0,0.0,0.0
1889,70.0,0.0,90.0,0.0,0.0
1890,63.0,96.0,90.0,0.0,0.0
1891,72.0,0.0,180.0,0.0,0.0
1892,78.0,0.0,180.0,0.0,0.0
1893,56.0,96.0,90.0,0.0,0.0
1894,61.0,96.0,180.0,0.0,0.0
1895,73.0,96.0,90.0,0.0,0.0
1896,77.0,0.0,180.0,0.0,0.0
1897,68.0,0.0,90.0,0.0,0.0
1898,61.0,96.0,90.0,0.0,0.0
1899,73.0,96.0,300.0,0.0,0.0
1900,77.0,96.0,180.0,0.0,0.0
1901,53.0,0.0,90.0,0.0,0.0
1902,76.0,0.0,180.0,0.0,0.0
1903,55.0,96.0,180.0,0.0,0.0
1904,67.0,0.0,90.0,0.0,0.0
1905,57.0,96.0,90.0,0.0,0.0
1906,72.0,96.0,300.0,0.0,0.0
1907,75.0,96.0,180.0,0.0,0.0
1908,53.0,0.0,90.0,0.0,0.0
1909,58.0,0.0,180.0,0.0,0.0
1910,74.0,96.0,180.0,0.0,0.0
1911,65.0,0.0,90.0,0.0,0.0
1912,54.0,96.0,90.0,0.0,0.0
1913,70.0,192.0,390.0,0.0,0.0
1914,73.0,96.0,180.0,0.0,0.0
1915,49.0,0.0,90.0,0.0,0.0
1916,72.0,0.0,180.0,0.0,0.0
1917,51.0,96.0,90.0,0.0,0.0
1918,48.0,0.0,90.0,0.0,0.0
1919,53.0,0.0,180.0,0.0,0.0
1920,69.0,0.0,180.0,0.0,0.0
1921,72.0,192.0,180.0,0.0,0.0
1922,46.0,96.0,570.0,0.0,0.0
1923,70.0,96.0,180.0,0.0,0.0
1924,70.0,96.0,90.0,0.0,0.0
1925,66.0,96.0,180.0,0.0,0.0
1926,72.0,0.0,90.0,0.0,0.0
1927,65.0,96.0,90.0,0.0,0.0
1928,73.0,0.0,180.0,0.0,0.0
1929,66.0,0.0,90.0,0.0,0.0
1930,73.0,96.0,90.0,0.0,0.0
1931,65.0,0.0,90.0,0.0,0.0
1932,63.0,192.0,90.0,0.0,0.0
1933,75.0,0.0,90.0,0.0,0.0
1934,61.0,91.0,180.0,0.0,0.0
1935,77.0,0.0,180.0,0.0,0.0
1936,65.0,96.0,90.0,0.0,0.0
1937,73.0,192.0,180.0,0.0,0.0
1938,58.0,5.0,90.0,0.0,0.0
1939,58.0,0.0,90.0,0.0,0.0
1940,75.0,0.0,180.0,0.0,0.0
1941,66.0,0.0,180.0,0.0,0.0
1942,60.0,192.0,180.0,0.0,0.0
1943,62.0,96.0,180.0,0.0,0.0
1944,65.0,0.0,180.0,0.0,0.0
1945,77.0,0.0,180.0,0.0,0.0
1946,63.0,192.0,180.0,0.0,0.0
1947,78.0,96.0,90.0,0.0,0.0
1948,75.0,0.0,90.0,0.0,0.0
1949,82.0,96.0,480.0,0.0,0.0
1950,61.0,192.0,180.0,0.0,0.0
1951,65.0,0.0,180.0,0.0,0.0
1952,60.0,96.0,180.0,0.0,0.0
1953,63.0,0.0,390.0,0.0,0.0
1954,53.0,96.0,180.0,0.0,0.0
1955,81.0,0.0,90.0,0.0,0.0
1956,58.0,0.0,180.0,0.0,0.0
1957,62.0,96.0,180.0,0.0,0.0
1958,82.0,96.0,90.0,0.0,0.0
1959,77.0,0.0,90.0,0.0,0.0
1960,79.0,96.0,180.0,0.0,0.0
1961,58.0,96.0,90.0,0.0,0.0
1962,61.0,0.0,180.0,0.0,0.0
1963,51.0,0.0,90.0,0.0,0.0
1964,56.0,96.0,180.0,0.0,0.0
1965,60.0,0.0,180.0,0.0,0.0
1966,80.0,96.0,90.0,0.0,0.0
1967,75.0,0.0,90.0,0.0,0.0
1968,56.0,96.0,90.0,0.0,0.0
1969,59.0,0.0,180.0,0.0,0.0
1970,77.0,0.0,180.0,0.0,0.0
1971,49.0,96.0,90.0,0.0,0.0
1972,54.0,96.0,180.0,0.0,0.0
1973,58.0,0.0,180.0,0.0,0.0
1974,78.0,96.0,90.0,0.0,0.0
1975,73.0,0.0,90.0,0.0,0.0
1976,54.0,96.0,90.0,0.0,0.0
1977,70.0,0.0,180.0,0.0,0.0
1978,78.0,96.0,300.0,0.0,0.0
1979,46.0,96.0,90.0,0.0,0.0
1980,48.0,96.0,180.0,0.0,0.0
1981,69.0,0.0,180.0,0.0,0.0
1982,72.0,0.0,90.0,0.0,0.0
1983,50.0,96.0,90.0,0.0,0.0
1984,68.0,96.0,180.0,0.0,0.0
1985,77.0,96.0,300.0,0.0,0.0
1986,46.0,0.0,90.0,0.0,0.0
1987,51.0,96.0,180.0,0.0,0.0
1988,67.0,0.0,180.0,0.0,0.0
1989,70.0,0.0,90.0,0.0,0.0
1990,54.0,96.0,90.0,0.0,0.0
1991,66.0,96.0,180.0,0.0,0.0
1992,75.0,0.0,390.0,0.0,0.0
1993,51.0,0.0,90.0,0.0,0.0
1994,56.0,96.0,90.0,0.0,0.0
1995,65.0,161.0,180.0,0.0,0.0
1996,53.0,0.0,90.0,0.0,0.0
1997,74.0,31.0,150.0,0.0,0.0
1998,58.0,96.0,390.0,0.0,0.0
1999,65.0,96.0,180.0,0.0,0.0
2000,67.0,0.0,180.0,0.0,0.0
2001,76.0,96.0,90.0,0.0,0.0
2002,72.0,0.0,90.0,0.0,0.0
2003,56.0,96.0,90.0,0.0,0.0
2004,68.0,96.0,180.0,0.0,0.0
2005,77.0,96.0,390.0,0.0,0.0
2006,53.0,0.0,90.0,0.0,0.0
2007,67.0,0.0,180.0,0.0,0.0
2008,58.0,96.0,90.0,0.0,0.0
2009,55.0,0.0,90.0,0.0,0.0
2010,60.0,96.0,90.0,0.0,0.0
2011,67.0,96.0,180.0,0.0,0.0
2012,75.0,0.0,390.0,0.0,0.0
2013,55.0,0.0,90.0,0.0,0.0
2014,57.0,96.0,90.0,0.0,0.0
2015,65.0,0.0,180.0,0.0,0.0
2016,53.0,96.0,90.0,0.0,0.0
2017,58.0,96.0,90.0,0.0,0.0
2018,65.0,0.0,390.0,0.0,0.0
2019,73.0,96.0,300.0,0.0,0.0
2020,49.0,96.0,90.0,0.0,0.0
2021,51.0,96.0,180.0,0.0,0.0
2022,67.0,0.0,90.0,0.0,0.0
2023,48.0,0.0,180.0,0.0,0.0
2024,63.0,145.0,180.0,0.0,0.0
2025,72.0,96.0,90.0,0.0,0.0
2026,67.0,0.0,90.0,0.0,0.0
2027,53.0,10.0,570.0,0.0,0.0
2028,63.0,79.0,210.0,0.0,0.0
2029,69.0,63.0,150.0,0.0,0.0
2030,65.0,11.0,180.0,0.0,0.0
2031,61.0,96.0,180.0,0.0,0.0
2032,77.0,96.0,90.0,0.0,0.0
2033,70.0,0.0,90.0,0.0,0.0
2034,60.0,0.0,180.0,0.0,0.0
2035,75.0,86.0,90.0,0.0,0.0
2036,69.0,96.0,90.0,0.0,0.0
2037,58.0,0.0,180.0,0.0,0.0
2038,73.0,96.0,90.0,0.0,0.0
2039,52.0,149.0,180.0,0.0,0.0
2040,67.0,0.0,90.0,0.0,0.0
2041,53.0,0.0,180.0,0.0,0.0
2042,57.0,78.0,180.0,0.0,0.0
2043,72.0,32.0,150.0,0.0,0.0
2044,65.0,69.0,150.0,0.0,0.0
2045,80.0,96.0,480.0,0.0,0.0
2046,77.0,96.0,90.0,0.0,0.0
2047,72.0,96.0,90.0,0.0,0.0
2048,74.0,96.0,90.0,0.0,0.0
2049,70.0,96.0,90.0,0.0,0.0
2050,75.0,109.0,300.0,0.0,0.0
2051,78.0,96.0,90.0,0.0,0.0
2052,77.0,90.0,210.0,0.0,0.0
2053,73.0,3.0,120.0,0.0,0.0
2054,82.0,96.0,480.0,0.0,0.0
2055,72.0,96.0,90.0,0.0,0.0
2056,70.0,96.0,90.0,0.0,0.0
2057,72.0,96.0,90.0,0.0,0.0
2058,65.0,96.0,90.0,0.0,0.0
2059,77.0,101.0,300.0,0.0,0.0
2060,80.0,104.0,90.0,0.0,0.0
2061,79.0,91.0,210.0,0.0,0.0
2062,75.0,2.0,120.0,0.0,0.0
2063,84.0,96.0,390.0,0.0,0.0
2064,74.0,96.0,90.0,0.0,0.0
2065,72.0,96.0,90.0,0.0,0.0
2066,74.0,96.0,90.0,0.0,0.0
2067,67.0,0.0,90.0,0.0,0.0
2068,82.0,0.0,390.0,0.0,0.0
2069,79.0,96.0,90.0,0.0,0.0
2070,74.0,96.0,90.0,0.0,0.0
2071,76.0,96.0,90.0,0.0,0.0
2072,72.0,91.0,90.0,0.0,0.0
2073,77.0,5.0,90.0,0.0,0.0
2074,80.0,192.0,90.0,0.0,0.0
2075,77.0,7.0,270.0,0.0,0.0
2076,82.0,89.0,90.0,0.0,0.0
2077,79.0,96.0,90.0,0.0,0.0
2078,84.0,96.0,90.0,0.0,0.0
2079,76.0,192.0,180.0,0.0,0.0
2080,79.0,0.0,90.0,0.0,0.0
2081,80.0,15.0,300.0,0.0,0.0
2082,77.0,97.0,180.0,0.0,0.0
2083,53.0,96.0,90.0,0.0,0.0
2084,73.0,96.0,180.0,0.0,0.0
2085,55.0,0.0,90.0,0.0,0.0
2086,72.0,96.0,90.0,0.0,0.0
2087,56.0,96.0,180.0,0.0,0.0
2088,73.0,0.0,90.0,0.0,0.0
2089,72.0,0.0,90.0,0.0,0.0
2090,56.0,96.0,90.0,0.0,0.0
2091,70.0,192.0,90.0,0.0,0.0
2092,58.0,0.0,90.0,0.0,0.0
2093,68.0,3.0,390.0,0.0,0.0
2094,60.0,96.0,180.0,0.0,0.0
2095,84.0,93.0,90.0,0.0,0.0
2096,65.0,0.0,180.0,0.0,0.0
2097,56.0,0.0,180.0,0.0,0.0
2098,77.0,192.0,90.0,0.0,0.0
2099,85.0,0.0,180.0,0.0,0.0
2100,67.0,192.0,180.0,0.0,0.0
2101,58.0,0.0,180.0,0.0,0.0
2102,84.0,96.0,180.0,0.0,0.0
2103,68.0,0.0,180.0,0.0,0.0
2104,60.0,0.0,180.0,0.0,0.0
2105,82.0,192.0,180.0,0.0,0.0
2106,70.0,0.0,180.0,0.0,0.0
2107,61.0,96.0,90.0,0.0,0.0
2108,58.0,0.0,90.0,0.0,0.0
2109,65.0,96.0,390.0,0.0,0.0
2110,80.0,48.0,180.0,0.0,0.0
2111,72.0,0.0,180.0,0.0,0.0
2112,80.0,48.0,40.0,0.0,0.0
2113,70.0,192.0,390.0,0.0,0.0
2114,79.0,48.0,40.0,0.0,0.0
2115,80.0,48.0,40.0,0.0,0.0
2116,79.0,96.0,150.0,0.0,0.0
2117,64.0,0.0,180.0,0.0,0.0
2118,77.0,0.0,90.0,0.0,0.0
2119,77.0,96.0,180.0,0.0,0.0
2120,68.0,0.0,180.0,0.0,0.0
2121,65.0,112.0,300.0,0.0,0.0
2122,80.0,96.0,390.0,0.0,0.0
2123,77.0,96.0,480.0,0.0,0.0
2124,63.0,96.0,90.0,0.0,0.0
2125,62.0,96.0,90.0,0.0,0.0
2126,58.0,0.0,90.0,0.0,0.0
2127,63.0,96.0,300.0,0.0,0.0
2128,78.0,0.0,390.0,0.0,0.0
2129,70.0,96.0,90.0,0.0,0.0
2130,75.0,96.0,480.0,0.0,0.0
2131,61.0,96.0,90.0,0.0,0.0
2132,78.0,96.0,180.0,0.0,0.0
2133,60.0,96.0,90.0,0.0,0.0
2134,56.0,0.0,90.0,0.0,0.0
2135,61.0,96.0,300.0,0.0,0.0
2136,77.0,96.0,570.0,0.0,0.0
2137,68.0,96.0,90.0,0.0,0.0
2138,73.0,96.0,660.0,0.0,0.0
2139,60.0,96.0,90.0,0.0,0.0
2140,58.0,96.0,90.0,0.0,0.0
2141,56.0,0.0,90.0,0.0,0.0
2142,54.0,96.0,90.0,0.0,0.0
2143,82.0,0.0,90.0,0.0,0.0
2144,53.0,96.0,90.0,0.0,0.0
2145,80.0,0.0,90.0,0.0,0.0
2146,51.0,0.0,180.0,0.0,0.0
2147,78.0,0.0,180.0,0.0,0.0
2148,72.0,96.0,90.0,0.0,0.0
2149,77.0,0.0,180.0,0.0,0.0
2150,49.0,96.0,180.0,0.0,0.0
2151,73.0,96.0,90.0,0.0,0.0
2152,68.0,96.0,180.0,0.0,0.0
2153,54.0,0.0,90.0,0.0,0.0
2154,70.0,0.0,90.0,0.0,0.0
2155,56.0,0.0,90.0,0.0,0.0
2156,66.0,96.0,90.0,0.0,0.0
2157,72.0,0.0,90.0,0.0,0.0
2158,65.0,96.0,180.0,0.0,0.0
2159,58.0,96.0,90.0,0.0,0.0
2160,73.0,96.0,390.0,0.0,0.0
2161,53.0,0.0,90.0,0.0,0.0
2162,63.0,0.0,390.0,0.0,0.0
2163,54.0,96.0,90.0,0.0,0.0
2164,51.0,0.0,90.0,0.0,0.0
2165,56.0,96.0,90.0,0.0,0.0
2166,72.0,0.0,180.0,0.0,0.0
2167,44.0,192.0,90.0,0.0,0.0
2168,73.0,16.0,780.0,0.0,0.0
2169,49.0,16.0,570.0,0.0,0.0
2170,65.0,108.0,180.0,0.0,0.0
2171,58.0,4.0,180.0,0.0,0.0
2172,61.0,96.0,90.0,0.0,0.0
2173,63.0,96.0,90.0,0.0,0.0
2174,65.0,0.0,180.0,0.0,0.0
2175,56.0,80.0,90.0,0.0,0.0
2176,58.0,96.0,90.0,0.0,0.0
2177,56.0,0.0,90.0,0.0,0.0
2178,65.0,80.0,90.0,0.0,0.0
2179,66.0,192.0,90.0,0.0,0.0
2180,54.0,0.0,90.0,0.0,0.0
2181,53.0,0.0,180.0,0.0,0.0
2182,68.0,96.0,180.0,0.0,0.0
2183,80.0,96.0,90.0,0.0,0.0
2184,68.0,0.0,180.0,0.0,0.0
2185,65.0,0.0,180.0,0.0,0.0
2186,73.0,192.0,90.0,0.0,0.0
2187,82.0,192.0,180.0,0.0,0.0
2188,66.0,0.0,180.0,0.0,0.0
2189,65.0,0.0,180.0,0.0,0.0
2190,80.0,96.0,180.0,0.0,0.0
2191,68.0,0.0,180.0,0.0,0.0
2192,78.0,192.0,180.0,0.0,0.0
2193,70.0,96.0,90.0,0.0,0.0
2194,63.0,0.0,180.0,0.0,0.0
2195,66.0,0.0,90.0,0.0,0.0
2196,65.0,192.0,180.0,0.0,0.0
2197,77.0,0.0,180.0,0.0,0.0
2198,73.0,96.0,390.0,0.0,0.0
2199,75.0,96.0,300.0,0.0,0.0
2200,66.0,0.0,180.0,0.0,0.0
2201,68.0,0.0,180.0,0.0,0.0
2202,72.0,8.0,180.0,0.0,0.0
2203,73.0,196.0,90.0,0.0,0.0
2204,61.0,4.0,180.0,0.0,0.0
2205,73.0,100.0,300.0,0.0,0.0
2206,68.0,92.0,90.0,0.0,0.0
2207,49.0,49.0,180.0,0.0,0.0
2208,65.0,0.0,180.0,0.0,0.0
2209,73.0,143.0,150.0,0.0,0.0
2210,51.0,96.0,180.0,0.0,0.0
2211,66.0,0.0,180.0,0.0,0.0
2212,72.0,96.0,180.0,0.0,0.0
2213,53.0,0.0,180.0,0.0,0.0
2214,68.0,96.0,300.0,0.0,0.0
2215,73.0,96.0,90.0,0.0,0.0
2216,54.0,100.0,180.0,0.0,0.0
2217,70.0,0.0,180.0,0.0,0.0
2218,66.0,100.0,180.0,0.0,0.0
2219,51.0,4.0,180.0,0.0,0.0
2220,75.0,100.0,300.0,0.0,0.0
2221,67.0,92.0,90.0,0.0,0.0
2222,53.0,0.0,180.0,0.0,0.0
2223,68.0,96.0,180.0,0.0,0.0
2224,73.0,96.0,180.0,0.0,0.0
2225,55.0,96.0,180.0,0.0,0.0
2226,70.0,96.0,300.0,0.0,0.0
2227,75.0,0.0,90.0,0.0,0.0
2228,56.0,0.0,180.0,0.0,0.0
2229,72.0,94.0,180.0,0.0,0.0
2230,68.0,106.0,180.0,0.0,0.0
2231,53.0,4.0,180.0,0.0,0.0
2232,80.0,100.0,300.0,0.0,0.0
2233,72.0,92.0,90.0,0.0,0.0
2234,73.0,0.0,180.0,0.0,0.0
2235,58.0,96.0,180.0,0.0,0.0
2236,78.0,96.0,180.0,0.0,0.0
2237,60.0,0.0,180.0,0.0,0.0
2238,75.0,96.0,300.0,0.0,0.0
2239,80.0,96.0,90.0,0.0,0.0
2240,61.0,0.0,180.0,0.0,0.0
2241,77.0,96.0,180.0,0.0,0.0
2242,73.0,96.0,180.0,0.0,0.0
2243,78.0,0.0,180.0,0.0,0.0
2244,58.0,96.0,180.0,0.0,0.0
2245,73.0,85.0,180.0,0.0,0.0
2246,60.0,96.0,180.0,0.0,0.0
2247,75.0,11.0,180.0,0.0,0.0
2248,72.0,96.0,180.0,0.0,0.0
2249,56.0,96.0,180.0,0.0,0.0
2250,77.0,0.0,180.0,0.0,0.0
2251,72.0,85.0,180.0,0.0,0.0
2252,73.0,11.0,180.0,0.0,0.0
2253,58.0,96.0,180.0,0.0,0.0
2254,70.0,96.0,180.0,0.0,0.0
2255,55.0,0.0,180.0,0.0,0.0
2256,75.0,96.0,180.0,0.0,0.0
2257,70.0,96.0,180.0,0.0,0.0
2258,56.0,0.0,180.0,0.0,0.0
2259,72.0,96.0,300.0,0.0,0.0
2260,63.0,96.0,90.0,0.0,0.0
2261,53.0,96.0,180.0,0.0,0.0
2262,68.0,96.0,300.0,0.0,0.0
2263,73.0,0.0,90.0,0.0,0.0
2264,48.0,96.0,180.0,0.0,0.0
2265,75.0,96.0,300.0,0.0,0.0
2266,63.0,0.0,90.0,0.0,0.0
2267,49.0,96.0,180.0,0.0,0.0
2268,65.0,96.0,300.0,0.0,0.0
2269,68.0,0.0,90.0,0.0,0.0
2270,46.0,0.0,180.0,0.0,0.0
2271,73.0,96.0,300.0,0.0,0.0
2272,65.0,96.0,90.0,0.0,0.0
2273,51.0,96.0,180.0,0.0,0.0
2274,67.0,96.0,300.0,0.0,0.0
2275,70.0,0.0,90.0,0.0,0.0
2276,48.0,96.0,180.0,0.0,0.0
2277,75.0,96.0,300.0,0.0,0.0
2278,67.0,0.0,90.0,0.0,0.0
2279,53.0,0.0,180.0,0.0,0.0
2280,68.0,96.0,300.0,0.0,0.0
2281,72.0,96.0,90.0,0.0,0.0
2282,49.0,96.0,180.0,0.0,0.0
2283,77.0,96.0,300.0,0.0,0.0
2284,68.0,0.0,90.0,0.0,0.0
2285,58.0,96.0,180.0,0.0,0.0
2286,73.0,96.0,300.0,0.0,0.0
2287,77.0,0.0,90.0,0.0,0.0
2288,55.0,0.0,180.0,0.0,0.0
2289,82.0,96.0,300.0,0.0,0.0
2290,73.0,96.0,90.0,0.0,0.0
2291,56.0,49.0,180.0,0.0,0.0
2292,72.0,0.0,180.0,0.0,0.0
2293,80.0,143.0,150.0,0.0,0.0
2294,49.0,96.0,180.0,0.0,0.0
2295,70.0,0.0,180.0,0.0,0.0
2296,80.0,96.0,180.0,0.0,0.0
2297,51.0,0.0,180.0,0.0,0.0
2298,70.0,0.0,180.0,0.0,0.0
2299,79.0,341.0,90.0,0.0,0.0
2300,80.0,201.0,480.0,0.0,0.0
2301,44.0,90.0,390.0,0.0,0.0
2302,68.0,40.0,330.0,0.0,0.0
2303,80.0,96.0,180.0,0.0,0.0
2304,84.0,96.0,180.0,0.0,0.0
2305,76.0,96.0,180.0,0.0,0.0
2306,82.0,96.0,180.0,0.0,0.0
2307,77.0,96.0,180.0,0.0,0.0
2308,80.0,96.0,180.0,0.0,0.0
2309,70.0,96.0,180.0,0.0,0.0
2310,79.0,96.0,180.0,0.0,0.0
2311,73.0,96.0,180.0,0.0,0.0
2312,77.0,96.0,180.0,0.0,0.0
2313,72.0,96.0,180.0,0.0,0.0
2314,76.0,96.0,180.0,0.0,0.0
2315,70.0,192.0,180.0,0.0,0.0
2316,79.0,0.0,90.0,0.0,0.0
2317,72.0,96.0,180.0,0.0,0.0
2318,68.0,0.0,180.0,0.0,0.0
2319,56.0,0.0,90.0,0.0,0.0
2320,77.0,96.0,180.0,0.0,0.0
2321,68.0,96.0,390.0,0.0,0.0
2322,55.0,96.0,90.0,0.0,0.0
2323,53.0,0.0,90.0,0.0,0.0
2324,70.0,0.0,180.0,0.0,0.0
2325,55.0,96.0,90.0,0.0,0.0
2326,50.0,0.0,90.0,0.0,0.0
2327,52.0,96.0,90.0,0.0,0.0
2328,70.0,96.0,180.0,0.0,0.0
2329,67.0,96.0,390.0,0.0,0.0
2330,48.0,0.0,90.0,0.0,0.0
2331,68.0,0.0,180.0,0.0,0.0
2332,53.0,96.0,90.0,0.0,0.0
2333,55.0,0.0,90.0,0.0,0.0
2334,68.0,0.0,180.0,0.0,0.0
2335,65.0,192.0,390.0,0.0,0.0
2336,56.0,96.0,90.0,0.0,0.0
2337,53.0,96.0,90.0,0.0,0.0
2338,58.0,96.0,90.0,0.0,0.0
2339,67.0,0.0,180.0,0.0,0.0
2340,55.0,0.0,90.0,0.0,0.0
2341,67.0,281.0,180.0,0.0,0.0
2342,64.0,0.0,180.0,0.0,0.0
2343,60.0,0.0,180.0,0.0,0.0
2344,65.0,177.0,360.0,0.0,0.0
2345,53.0,70.0,270.0,0.0,0.0
2346,73.0,96.0,180.0,0.0,0.0
2347,77.0,96.0,180.0,0.0,0.0
2348,69.0,96.0,180.0,0.0,0.0
2349,75.0,96.0,180.0,0.0,0.0
2350,70.0,96.0,180.0,0.0,0.0
2351,73.0,96.0,180.0,0.0,0.0
2352,63.0,96.0,180.0,0.0,0.0
2353,72.0,96.0,180.0,0.0,0.0
2354,66.0,96.0,180.0,0.0,0.0
2355,70.0,96.0,180.0,0.0,0.0
2356,65.0,96.0,180.0,0.0,0.0
2357,69.0,96.0,180.0,0.0,0.0
2358,63.0,91.0,180.0,0.0,0.0
2359,72.0,0.0,90.0,0.0,0.0
2360,65.0,96.0,180.0,0.0,0.0
2361,61.0,101.0,90.0,0.0,0.0
2362,61.0,0.0,90.0,0.0,0.0
2363,73.0,96.0,390.0,0.0,0.0
2364,65.0,96.0,180.0,0.0,0.0
2365,60.0,96.0,90.0,0.0,0.0
2366,58.0,0.0,90.0,0.0,0.0
2367,63.0,0.0,180.0,0.0,0.0
2368,60.0,96.0,90.0,0.0,0.0
2369,55.0,0.0,90.0,0.0,0.0
2370,72.0,96.0,390.0,0.0,0.0
2371,63.0,0.0,180.0,0.0,0.0
2372,57.0,96.0,90.0,0.0,0.0
2373,53.0,96.0,90.0,0.0,0.0
2374,58.0,96.0,90.0,0.0,0.0
2375,61.0,0.0,180.0,0.0,0.0
2376,53.0,0.0,90.0,0.0,0.0
2377,70.0,0.0,390.0,0.0,0.0
2378,61.0,96.0,180.0,0.0,0.0
2379,54.0,96.0,90.0,0.0,0.0
2380,49.0,0.0,90.0,0.0,0.0
2381,60.0,192.0,180.0,0.0,0.0
2382,51.0,96.0,90.0,0.0,0.0
2383,48.0,0.0,90.0,0.0,0.0
2384,69.0,241.0,180.0,0.0,0.0
2385,60.0,0.0,180.0,0.0,0.0
2386,53.0,0.0,180.0,0.0,0.0
2387,46.0,48.0,780.0,0.0,0.0
2388,70.0,95.0,240.0,0.0,0.0
2389,58.0,48.0,570.0,0.0,0.0
2390,70.0,96.0,90.0,0.0,0.0
2391,72.0,144.0,90.0,0.0,0.0
2392,73.0,96.0,180.0,0.0,0.0
2393,70.0,48.0,90.0,0.0,0.0
2394,73.0,0.0,90.0,0.0,0.0
2395,72.0,192.0,90.0,0.0,0.0
2396,75.0,0.0,90.0,0.0,0.0
2397,73.0,96.0,180.0,0.0,0.0
2398,77.0,0.0,180.0,0.0,0.0
2399,53.0,96.0,90.0,0.0,0.0
2400,73.0,0.0,180.0,0.0,0.0
2401,77.0,0.0,180.0,0.0,0.0
2402,46.0,192.0,90.0,0.0,0.0
2403,51.0,192.0,180.0,0.0,0.0
2404,75.0,0.0,180.0,0.0,0.0
2405,78.0,0.0,180.0,0.0,0.0
2406,77.0,0.0,180.0,0.0,0.0
2407,53.0,96.0,180.0,0.0,0.0
2408,73.0,0.0,180.0,0.0,0.0
2409,54.0,96.0,90.0,0.0,0.0
2410,72.0,96.0,300.0,0.0,0.0
2411,75.0,0.0,180.0,0.0,0.0
2412,51.0,96.0,90.0,0.0,0.0
2413,58.0,0.0,90.0,0.0,0.0
2414,73.0,96.0,180.0,0.0,0.0
2415,70.0,96.0,180.0,0.0,0.0
2416,49.0,0.0,90.0,0.0,0.0
2417,51.0,0.0,90.0,0.0,0.0
2418,72.0,96.0,300.0,0.0,0.0
2419,48.0,96.0,90.0,0.0,0.0
2420,70.0,0.0,90.0,0.0,0.0
2421,53.0,6.0,180.0,0.0,0.0
2422,68.0,106.0,480.0,0.0,0.0
2423,72.0,100.0,90.0,0.0,0.0
2424,74.0,96.0,90.0,0.0,0.0
2425,46.0,8.0,570.0,0.0,0.0
2426,70.0,86.0,90.0,0.0,0.0
2427,75.0,96.0,300.0,0.0,0.0
2428,66.0,96.0,90.0,0.0,0.0
2429,65.0,0.0,180.0,0.0,0.0
2430,75.0,88.0,90.0,0.0,0.0
2431,73.0,96.0,90.0,0.0,0.0
2432,46.0,0.0,90.0,0.0,0.0
2433,70.0,96.0,180.0,0.0,0.0
2434,42.0,0.0,90.0,0.0,0.0
2435,78.0,96.0,180.0,0.0,0.0
2436,49.0,0.0,180.0,0.0,0.0
2437,68.0,8.0,180.0,0.0,0.0
2438,78.0,88.0,90.0,0.0,0.0
2439,73.0,96.0,180.0,0.0,0.0
2440,77.0,96.0,90.0,0.0,0.0
2441,49.0,0.0,90.0,0.0,0.0
2442,46.0,0.0,90.0,0.0,0.0
2443,82.0,96.0,180.0,0.0,0.0
2444,53.0,96.0,300.0,0.0,0.0
2445,72.0,96.0,180.0,0.0,0.0
2446,82.0,0.0,90.0,0.0,0.0
2447,81.0,0.0,180.0,0.0,0.0
2448,72.0,96.0,180.0,0.0,0.0
2449,65.0,0.0,90.0,0.0,0.0
2450,62.0,96.0,90.0,0.0,0.0
2451,77.0,0.0,180.0,0.0,0.0
2452,82.0,96.0,300.0,0.0,0.0
2453,58.0,96.0,90.0,0.0,0.0
2454,63.0,96.0,300.0,0.0,0.0
2455,78.0,0.0,90.0,0.0,0.0
2456,77.0,0.0,90.0,0.0,0.0
2457,80.0,96.0,90.0,0.0,0.0
2458,75.0,0.0,180.0,0.0,0.0
2459,78.0,96.0,180.0,0.0,0.0
2460,61.0,0.0,90.0,0.0,0.0
2461,60.0,96.0,90.0,0.0,0.0
2462,75.0,0.0,390.0,0.0,0.0
2463,79.0,0.0,180.0,0.0,0.0
2464,58.0,96.0,90.0,0.0,0.0
2465,60.0,96.0,90.0,0.0,0.0
2466,80.0,96.0,300.0,0.0,0.0
2467,56.0,96.0,90.0,0.0,0.0
2468,77.0,0.0,90.0,0.0,0.0
2469,61.0,96.0,300.0,0.0,0.0
2470,75.0,96.0,90.0,0.0,0.0
2471,78.0,0.0,90.0,0.0,0.0
2472,73.0,96.0,180.0,0.0,0.0
2473,77.0,0.0,180.0,0.0,0.0
2474,61.0,0.0,90.0,0.0,0.0
2475,60.0,96.0,90.0,0.0,0.0
2476,73.0,96.0,180.0,0.0,0.0
2477,77.0,0.0,180.0,0.0,0.0
2478,58.0,0.0,90.0,0.0,0.0
2479,57.0,96.0,90.0,0.0,0.0
2480,72.0,96.0,180.0,0.0,0.0
2481,77.0,96.0,300.0,0.0,0.0
2482,53.0,0.0,90.0,0.0,0.0
2483,58.0,96.0,300.0,0.0,0.0
2484,73.0,0.0,90.0,0.0,0.0
2485,72.0,96.0,90.0,0.0,0.0
2486,75.0,0.0,90.0,0.0,0.0
2487,73.0,0.0,180.0,0.0,0.0
2488,70.0,96.0,180.0,0.0,0.0
2489,56.0,0.0,90.0,0.0,0.0
2490,54.0,96.0,90.0,0.0,0.0
2491,70.0,96.0,480.0,0.0,0.0
2492,73.0,96.0,300.0,0.0,0.0
2493,53.0,96.0,90.0,0.0,0.0
2494,54.0,96.0,180.0,0.0,0.0
2495,73.0,0.0,90.0,0.0,0.0
2496,55.0,96.0,180.0,0.0,0.0
2497,75.0,96.0,300.0,0.0,0.0
2498,70.0,0.0,90.0,0.0,0.0
2499,56.0,96.0,180.0,0.0,0.0
2500,72.0,96.0,300.0,0.0,0.0
2501,75.0,0.0,90.0,0.0,0.0
2502,57.0,96.0,180.0,0.0,0.0
2503,77.0,96.0,300.0,0.0,0.0
2504,72.0,0.0,90.0,0.0,0.0
2505,73.0,96.0,300.0,0.0,0.0
2506,58.0,96.0,180.0,0.0,0.0
2507,77.0,0.0,90.0,0.0,0.0
2508,78.0,96.0,300.0,0.0,0.0
2509,46.0,96.0,180.0,0.0,0.0
2510,73.0,0.0,90.0,0.0,0.0
2511,48.0,96.0,180.0,0.0,0.0
2512,75.0,96.0,300.0,0.0,0.0
2513,78.0,0.0,90.0,0.0,0.0
2514,80.0,96.0,300.0,0.0,0.0
2515,60.0,96.0,180.0,0.0,0.0
2516,75.0,0.0,90.0,0.0,0.0
2517,61.0,0.0,180.0,0.0,0.0
2518,77.0,96.0,300.0,0.0,0.0
2519,80.0,96.0,90.0,0.0,0.0
2520,82.0,96.0,300.0,0.0,0.0
2521,49.0,96.0,180.0,0.0,0.0
2522,77.0,0.0,90.0,0.0,0.0
2523,51.0,96.0,180.0,0.0,0.0
2524,78.0,3.0,390.0,0.0,0.0
2525,82.0,0.0,90.0,0.0,0.0
2526,63.0,0.0,180.0,0.0,0.0
2527,83.0,93.0,90.0,0.0,0.0
2528,82.0,192.0,90.0,0.0,0.0
2529,65.0,96.0,180.0,0.0,0.0
2530,81.0,3.0,390.0,0.0,0.0
2531,77.0,0.0,90.0,0.0,0.0
2532,53.0,192.0,180.0,0.0,0.0
2533,72.0,93.0,90.0,0.0,0.0
2534,75.0,0.0,90.0,0.0,0.0
2535,58.0,0.0,180.0,0.0,0.0
2536,73.0,96.0,480.0,0.0,0.0
2537,82.0,96.0,90.0,0.0,0.0
2538,77.0,96.0,90.0,0.0,0.0
2539,46.0,96.0,180.0,0.0,0.0
2540,80.0,0.0,90.0,0.0,0.0
2541,51.0,96.0,180.0,0.0,0.0
2542,78.0,3.0,390.0,0.0,0.0
2543,73.0,0.0,90.0,0.0,0.0
2544,63.0,192.0,180.0,0.0,0.0
2545,72.0,93.0,90.0,0.0,0.0
2546,75.0,0.0,90.0,0.0,0.0
2547,65.0,0.0,180.0,0.0,0.0
2548,69.0,3.0,390.0,0.0,0.0
2549,77.0,96.0,90.0,0.0,0.0
2550,53.0,192.0,180.0,0.0,0.0
2551,72.0,93.0,90.0,0.0,0.0
2552,75.0,0.0,90.0,0.0,0.0
2553,58.0,96.0,180.0,0.0,0.0
2554,73.0,96.0,480.0,0.0,0.0
2555,70.0,0.0,90.0,0.0,0.0
2556,46.0,0.0,180.0,0.0,0.0
2557,65.0,96.0,90.0,0.0,0.0
2558,68.0,96.0,90.0,0.0,0.0
2559,51.0,1.0,600.0,0.0,0.0
2560,66.0,119.0,480.0,0.0,0.0
2561,73.0,96.0,90.0,0.0,0.0
2562,71.0,96.0,90.0,0.0,0.0
2563,75.0,96.0,90.0,0.0,0.0
2564,69.0,94.0,210.0,0.0,0.0
2565,65.0,112.0,210.0,0.0,0.0
2566,70.0,29.0,390.0,0.0,0.0
2567,49.0,10.0,210.0,0.0,0.0
2568,65.0,106.0,120.0,0.0,0.0
2569,48.0,2.0,210.0,0.0,0.0
2570,63.0,72.0,120.0,0.0,0.0
2571,66.0,105.0,120.0,0.0,0.0
2572,53.0,9.0,210.0,0.0,0.0
2573,60.0,95.0,120.0,0.0,0.0
2574,69.0,0.0,210.0,0.0,0.0
2575,63.0,1155.0,120.0,0.0,0.0
2576,70.0,0.0,1140.0,0.0,0.0
2577,46.0,0.0,1140.0,0.0,0.0
2578,61.0,611.0,1140.0,0.0,0.0
2579,65.0,3.0,390.0,0.0,0.0
2580,60.0,189.0,90.0,0.0,0.0
2581,61.0,63.0,330.0,0.0,0.0
2582,57.0,129.0,90.0,0.0,0.0
2583,58.0,351.0,240.0,0.0,0.0
2584,53.0,49.0,90.0,0.0,0.0
2585,54.0,21.0,1530.0,0.0,0.0
2586,70.0,3.0,390.0,0.0,0.0
2587,65.0,189.0,90.0,0.0,0.0
2588,66.0,63.0,330.0,0.0,0.0
2589,62.0,129.0,90.0,0.0,0.0
2590,63.0,698.0,240.0,0.0,0.0
2591,58.0,49.0,90.0,0.0,0.0
2592,60.0,13.0,780.0,0.0,0.0
2593,75.0,1.0,660.0,0.0,0.0
2594,72.0,283.0,570.0,0.0,0.0
2595,68.0,3.0,480.0,0.0,0.0
2596,80.0,4.0,390.0,0.0,0.0
2597,60.0,48.0,90.0,0.0,0.0
2598,62.0,48.0,40.0,0.0,0.0
2599,63.0,384.0,40.0,0.0,0.0
2600,53.0,5.0,1530.0,0.0,0.0
2601,71.0,3.0,390.0,0.0,0.0
2602,67.0,189.0,90.0,0.0,0.0
2603,68.0,63.0,330.0,0.0,0.0
2604,63.0,129.0,90.0,0.0,0.0
2605,65.0,714.0,240.0,0.0,0.0
2606,60.0,49.0,90.0,0.0,0.0
2607,62.0,13.0,780.0,0.0,0.0
2608,77.0,1.0,660.0,0.0,0.0
2609,74.0,139.0,570.0,0.0,0.0
2610,68.0,3.0,480.0,0.0,0.0
2611,80.0,4.0,390.0,0.0,0.0
2612,63.0,96.0,90.0,0.0,0.0
2613,62.0,48.0,90.0,0.0,0.0
2614,63.0,56.0,40.0,0.0,0.0
2615,65.0,381.0,40.0,0.0,0.0
2616,54.0,382.0,1140.0,0.0,0.0
2617,71.0,11.0,180.0,0.0,0.0
2618,68.0,192.0,90.0,0.0,0.0
2619,70.0,3.0,390.0,0.0,0.0
2620,65.0,189.0,90.0,0.0,0.0
2621,66.0,334.0,240.0,0.0,0.0
2622,62.0,49.0,90.0,0.0,0.0
2623,63.0,69.0,900.0,0.0,0.0
2624,82.0,1.0,660.0,0.0,0.0
2625,78.0,134.0,570.0,0.0,0.0
2626,75.0,3.0,480.0,0.0,0.0
2627,87.0,4.0,390.0,0.0,0.0
2628,66.0,64.0,90.0,0.0,0.0
2629,63.0,64.0,90.0,0.0,0.0
2630,66.0,64.0,90.0,0.0,0.0
2631,63.0,64.0,90.0,0.0,0.0
2632,66.0,64.0,90.0,0.0,0.0
2633,63.0,64.0,90.0,0.0,0.0
2634,66.0,688.0,90.0,0.0,0.0
2635,60.0,47.0,960.0,0.0,0.0
2636,75.0,0.0,390.0,0.0,0.0
2637,54.0,192.0,390.0,0.0,0.0
2638,72.0,0.0,390.0,0.0,0.0
2639,68.0,1.0,1140.0,0.0,0.0
2640,80.0,126.0,480.0,0.0,0.0
2641,53.0,0.0,780.0,0.0,0.0
2642,75.0,49.0,180.0,0.0,0.0
2643,58.0,96.0,90.0,0.0,0.0
2644,56.0,96.0,90.0,0.0,0.0
2645,61.0,2.0,390.0,0.0,0.0
2646,73.0,1.0,90.0,0.0,0.0
2647,78.0,112.0,120.0,0.0,0.0
2648,77.0,46.0,120.0,0.0,0.0
2649,75.0,48.0,40.0,0.0,0.0
2650,73.0,432.0,40.0,0.0,0.0
2651,73.0,48.0,420.0,0.0,0.0
2652,75.0,48.0,40.0,0.0,0.0
2653,73.0,48.0,40.0,0.0,0.0
2654,71.0,32.0,40.0,0.0,0.0
2655,70.0,32.0,30.0,0.0,0.0
2656,68.0,32.0,30.0,0.0,0.0
2657,67.0,32.0,30.0,0.0,0.0
2658,65.0,32.0,30.0,0.0,0.0
2659,63.0,32.0,30.0,0.0,0.0
2660,65.0,32.0,30.0,0.0,0.0
2661,67.0,32.0,30.0,0.0,0.0
2662,68.0,32.0,30.0,0.0,0.0
2663,70.0,32.0,30.0,0.0,0.0
2664,71.0,448.0,30.0,0.0,0.0
2665,73.0,5.0,720.0,0.0,0.0
2666,63.0,0.0,240.0,0.0,0.0
2667,58.0,0.0,240.0,0.0,0.0
2668,70.0,0.0,240.0,0.0,0.0
2669,55.0,283.0,240.0,0.0,0.0
2670,70.0,49.0,300.0,0.0,0.0
2671,56.0,0.0,780.0,0.0,0.0
2672,59.0,0.0,780.0,0.0,0.0
2673,63.0,45.0,780.0,0.0,0.0
2674,68.0,142.0,240.0,0.0,0.0
2675,73.0,40.0,40.0,0.0,0.0
2676,71.0,40.0,40.0,0.0,0.0
2677,73.0,40.0,40.0,0.0,0.0
2678,71.0,52.0,40.0,0.0,0.0
2679,70.0,19.0,60.0,0.0,0.0
2680,71.0,98.0,180.0,0.0,0.0
2681,80.0,67.0,150.0,0.0,0.0
2682,71.0,288.0,90.0,0.0,0.0
2683,71.0,48.0,300.0,0.0,0.0
2684,73.0,48.0,40.0,0.0,0.0
2685,71.0,48.0,40.0,0.0,0.0
2686,70.0,48.0,40.0,0.0,0.0
2687,68.0,24.0,40.0,0.0,0.0
2688,70.0,24.0,20.0,0.0,0.0
2689,71.0,24.0,20.0,0.0,0.0
2690,73.0,24.0,20.0,0.0,0.0
2691,75.0,27.0,20.0,0.0,0.0
2692,77.0,21.0,30.0,0.0,0.0
2693,79.0,144.0,20.0,0.0,0.0
2694,80.0,48.0,150.0,0.0,0.0
2695,71.0,432.0,40.0,0.0,0.0
2696,70.0,96.0,780.0,0.0,0.0
2697,50.0,249.0,240.0,0.0,0.0
2698,65.0,39.0,180.0,0.0,0.0
2699,68.0,0.0,180.0,0.0,0.0
2700,58.0,0.0,240.0,0.0,0.0
2701,53.0,0.0,240.0,0.0,0.0
2702,65.0,0.0,240.0,0.0,0.0
2703,68.0,48.0,240.0,0.0,0.0
2704,51.0,0.0,420.0,0.0,0.0
2705,54.0,0.0,420.0,0.0,0.0
2706,58.0,59.0,420.0,0.0,0.0
2707,66.0,37.0,150.0,0.0,0.0
2708,65.0,192.0,90.0,0.0,0.0
2709,59.0,79.0,630.0,0.0,0.0
2710,66.0,65.0,570.0,0.0,0.0
2711,71.0,50.0,390.0,0.0,0.0
2712,75.0,144.0,180.0,0.0,0.0
2713,54.0,0.0,420.0,0.0,0.0
2714,51.0,1.0,420.0,0.0,0.0
2715,76.0,45.0,90.0,0.0,0.0
2716,78.0,144.0,90.0,0.0,0.0
2717,52.0,189.0,570.0,0.0,0.0
2718,68.0,95.0,480.0,0.0,0.0
2719,64.0,96.0,90.0,0.0,0.0
2720,63.0,97.0,90.0,0.0,0.0
2721,64.0,163.0,390.0,0.0,0.0
2722,59.0,57.0,60.0,0.0,0.0
2723,61.0,60.0,60.0,0.0,0.0
2724,63.0,59.0,60.0,0.0,0.0
2725,64.0,59.0,60.0,0.0,0.0
2726,66.0,88.0,60.0,0.0,0.0
2727,68.0,31.0,90.0,0.0,0.0
2728,63.0,88.0,60.0,0.0,0.0
2729,64.0,30.0,90.0,0.0,0.0
2730,59.0,59.0,60.0,0.0,0.0
2731,56.0,60.0,60.0,0.0,0.0
2732,59.0,88.0,60.0,0.0,0.0
2733,52.0,30.0,90.0,0.0,0.0
2734,56.0,88.0,60.0,0.0,0.0
2735,59.0,31.0,90.0,0.0,0.0
2736,54.0,88.0,60.0,0.0,0.0
2737,56.0,30.0,90.0,0.0,0.0
2738,51.0,88.0,60.0,0.0,0.0
2739,52.0,31.0,90.0,0.0,0.0
2740,47.0,59.0,60.0,0.0,0.0
2741,44.0,59.0,60.0,0.0,0.0
2742,47.0,529.0,60.0,0.0,0.0
2743,40.0,43.0,540.0,0.0,0.0
2744,83.0,5.0,40.0,0.0,0.0
2745,81.0,48.0,40.0,0.0,0.0
2746,80.0,48.0,40.0,0.0,0.0
2747,78.0,48.0,40.0,0.0,0.0
2748,76.0,48.0,40.0,0.0,0.0
2749,75.0,192.0,40.0,0.0,0.0
2750,74.0,96.0,180.0,0.0,0.0
2751,68.0,0.0,390.0,0.0,0.0
2752,70.0,0.0,390.0,0.0,0.0
2753,56.0,96.0,90.0,0.0,0.0
2754,53.0,3.0,390.0,0.0,0.0
2755,59.0,96.0,90.0,0.0,0.0
2756,58.0,93.0,90.0,0.0,0.0
2757,56.0,384.0,90.0,0.0,0.0
2758,70.0,0.0,780.0,0.0,0.0
2759,75.0,0.0,780.0,0.0,0.0
2760,58.0,0.0,780.0,0.0,0.0
2761,63.0,0.0,780.0,0.0,0.0
2762,51.0,192.0,780.0,0.0,0.0
2763,68.0,384.0,390.0,0.0,0.0
2764,67.0,1437.0,570.0,0.0,0.0
2765,49.0,1.0,870.0,0.0,0.0
2766,52.0,1.0,840.0,0.0,0.0
2767,57.0,1.0,810.0,0.0,0.0
2768,61.0,0.0,780.0,0.0,0.0
2769,64.0,185.0,780.0,0.0,0.0
2770,69.0,2.0,750.0,0.0,0.0
2771,73.0,1.0,720.0,0.0,0.0
2772,76.0,5.0,690.0,0.0,0.0
2773,68.0,47.0,90.0,0.0,0.0
2774,49.0,0.0,780.0,0.0,0.0
2775,58.0,288.0,780.0,0.0,0.0
2776,63.0,0.0,780.0,0.0,0.0
2777,67.0,48.0,40.0,0.0,0.0
2778,68.0,48.0,40.0,0.0,0.0
2779,67.0,48.0,40.0,0.0,0.0
2780,68.0,48.0,40.0,0.0,0.0
2781,67.0,48.0,40.0,0.0,0.0
2782,68.0,381.0,40.0,0.0,0.0
2783,67.0,3.0,390.0,0.0,0.0
2784,67.0,0.0,90.0,0.0,0.0
2785,63.0,576.0,90.0,0.0,0.0
2786,49.0,0.0,90.0,0.0,0.0
2787,58.0,0.0,90.0,0.0,0.0
2788,47.0,384.0,570.0,0.0,0.0
2789,59.0,0.0,570.0,0.0,0.0
2790,68.0,0.0,570.0,0.0,0.0
2791,63.0,0.0,570.0,0.0,0.0
2792,75.0,48.0,40.0,0.0,0.0
2793,77.0,48.0,40.0,0.0,0.0
2794,79.0,48.0,40.0,0.0,0.0
2795,80.0,48.0,40.0,0.0,0.0
2796,82.0,48.0,40.0,0.0,0.0
2797,83.0,48.0,40.0,0.0,0.0
2798,85.0,64.0,40.0,0.0,0.0
2799,87.0,64.0,60.0,0.0,0.0
2800,85.0,64.0,60.0,0.0,0.0
2801,83.0,64.0,60.0,0.0,0.0
2802,85.0,64.0,60.0,0.0,0.0
2803,83.0,64.0,60.0,0.0,0.0
2804,82.0,64.0,60.0,0.0,0.0
2805,83.0,64.0,60.0,0.0,0.0
2806,82.0,64.0,60.0,0.0,0.0
2807,80.0,64.0,60.0,0.0,0.0
2808,82.0,64.0,60.0,0.0,0.0
2809,80.0,64.0,60.0,0.0,0.0
2810,79.0,91.0,60.0,0.0,0.0
2811,80.0,37.0,90.0,0.0,0.0
2812,83.0,64.0,60.0,0.0,0.0
2813,80.0,91.0,60.0,0.0,0.0
2814,75.0,37.0,90.0,0.0,0.0
2815,80.0,64.0,60.0,0.0,0.0
2816,75.0,91.0,60.0,0.0,0.0
2817,71.0,37.0,90.0,0.0,0.0
2818,75.0,64.0,60.0,0.0,0.0
2819,71.0,91.0,60.0,0.0,0.0
2820,68.0,37.0,90.0,0.0,0.0
2821,80.0,64.0,60.0,0.0,0.0
2822,75.0,101.0,60.0,0.0,0.0
2823,77.0,27.0,90.0,0.0,0.0
2824,80.0,64.0,60.0,0.0,0.0
2825,77.0,141.0,60.0,0.0,0.0
2826,73.0,24.0,150.0,0.0,0.0
2827,77.0,44.0,90.0,0.0,0.0
2828,80.0,463.0,90.0,0.0,0.0
2829,85.0,383.0,480.0,0.0,0.0
2830,65.0,0.0,180.0,0.0,0.0
2831,73.0,1.0,180.0,0.0,0.0
2832,77.0,0.0,180.0,0.0,0.0
2833,59.0,0.0,180.0,0.0,0.0
2834,61.0,0.0,180.0,0.0,0.0
2835,68.0,0.0,180.0,0.0,0.0
2836,80.0,0.0,180.0,0.0,0.0
2837,73.0,0.0,570.0,0.0,0.0
2838,70.0,0.0,810.0,0.0,0.0
2839,61.0,0.0,810.0,0.0,0.0
2840,66.0,14.0,810.0,0.0,0.0
2841,85.0,0.0,300.0,0.0,0.0
2842,58.0,0.0,810.0,0.0,0.0
2843,82.0,288.0,300.0,0.0,0.0
2844,78.0,99.0,570.0,0.0,0.0
2845,83.0,126.0,90.0,0.0,0.0
2846,82.0,82.0,150.0,0.0,0.0
2847,80.0,66.0,90.0,0.0,0.0
2848,78.0,97.0,60.0,0.0,0.0
2849,77.0,507.0,90.0,0.0,0.0
2850,58.0,0.0,510.0,0.0,0.0
2851,59.0,0.0,510.0,0.0,0.0
2852,66.0,0.0,510.0,0.0,0.0
2853,63.0,0.0,510.0,0.0,0.0
2854,71.0,0.0,510.0,0.0,0.0
2855,75.0,548.0,510.0,0.0,0.0
2856,68.0,0.0,540.0,0.0,0.0
2857,71.0,0.0,540.0,0.0,0.0
2858,77.0,0.0,540.0,0.0,0.0
2859,56.0,0.0,540.0,0.0,0.0
2860,65.0,0.0,540.0,0.0,0.0
2861,59.0,597.0,540.0,0.0,0.0
2862,58.0,0.0,570.0,0.0,0.0
2863,61.0,0.0,570.0,0.0,0.0
2864,78.0,77.0,570.0,0.0,0.0
2865,73.0,130.0,660.0,0.0,0.0
2866,66.0,0.0,570.0,0.0,0.0
2867,73.0,195.0,120.0,0.0,0.0
2868,73.0,209.0,180.0,0.0,0.0
2869,66.0,0.0,390.0,0.0,0.0
2870,59.0,0.0,390.0,0.0,0.0
2871,71.0,13.0,390.0,0.0,0.0
2872,75.0,209.0,180.0,0.0,0.0
2873,47.0,0.0,450.0,0.0,0.0
2874,68.0,128.0,210.0,0.0,0.0
2875,59.0,0.0,450.0,0.0,0.0
2876,63.0,7.0,450.0,0.0,0.0
2877,70.0,96.0,120.0,0.0,0.0
2878,66.0,73.0,90.0,0.0,0.0
2879,47.0,3.0,390.0,0.0,0.0
2880,66.0,44.0,60.0,0.0,0.0
2881,61.0,5.0,180.0,0.0,0.0
2882,56.0,0.0,390.0,0.0,0.0
2883,65.0,43.0,60.0,0.0,0.0
2884,66.0,47.0,40.0,0.0,0.0
2885,65.0,44.0,60.0,0.0,0.0
2886,66.0,48.0,40.0,0.0,0.0
2887,65.0,48.0,40.0,0.0,0.0
2888,63.0,45.0,40.0,0.0,0.0
2889,61.0,381.0,40.0,0.0,0.0
2890,61.0,0.0,390.0,0.0,0.0
2891,46.0,92.0,390.0,0.0,0.0
2892,58.0,0.0,390.0,0.0,0.0
2893,66.0,103.0,480.0,0.0,0.0
2894,51.0,174.0,390.0,0.0,0.0
2895,58.0,13.0,360.0,0.0,0.0
2896,65.0,96.0,90.0,0.0,0.0
2897,63.0,83.0,90.0,0.0,0.0
2898,61.0,17.0,90.0,0.0,0.0
2899,60.0,1.0,180.0,0.0,0.0
2900,58.0,96.0,90.0,0.0,0.0
2901,59.0,192.0,390.0,0.0,0.0
2902,56.0,96.0,90.0,0.0,0.0
2903,54.0,189.0,90.0,0.0,0.0
2904,53.0,0.0,390.0,0.0,0.0
2905,68.0,0.0,390.0,0.0,0.0
2906,73.0,0.0,390.0,0.0,0.0
2907,65.0,2.0,390.0,0.0,0.0
2908,49.0,5.0,1530.0,0.0,0.0
2909,56.0,192.0,180.0,0.0,0.0
2910,66.0,0.0,390.0,0.0,0.0
2911,70.0,0.0,390.0,0.0,0.0
2912,73.0,0.0,390.0,0.0,0.0
2913,54.0,2.0,390.0,0.0,0.0
2914,58.0,190.0,180.0,0.0,0.0
2915,59.0,375.0,180.0,0.0,0.0
2916,68.0,3.0,810.0,0.0,0.0
2917,56.0,166.0,360.0,0.0,0.0
2918,73.0,23.0,1110.0,0.0,0.0
2919,61.0,37.0,780.0,0.0,0.0
2920,58.0,201.0,180.0,0.0,0.0
2921,65.0,22.0,390.0,0.0,0.0
2922,59.0,226.0,270.0,0.0,0.0
2923,58.0,0.0,390.0,0.0,0.0
2924,54.0,9.0,390.0,0.0,0.0
2925,66.0,26.0,240.0,0.0,0.0
2926,70.0,41.0,60.0,0.0,0.0
2927,66.0,55.0,60.0,0.0,0.0
2928,66.0,64.0,60.0,0.0,0.0
2929,70.0,64.0,60.0,0.0,0.0
2930,66.0,64.0,60.0,0.0,0.0
2931,65.0,64.0,60.0,0.0,0.0
2932,68.0,64.0,60.0,0.0,0.0
2933,65.0,64.0,60.0,0.0,0.0
2934,65.0,64.0,60.0,0.0,0.0
2935,68.0,64.0,60.0,0.0,0.0
2936,65.0,64.0,60.0,0.0,0.0
2937,66.0,64.0,60.0,0.0,0.0
2938,70.0,64.0,60.0,0.0,0.0
2939,66.0,64.0,60.0,0.0,0.0
2940,66.0,64.0,60.0,0.0,0.0
2941,70.0,64.0,60.0,0.0,0.0
2942,66.0,64.0,60.0,0.0,0.0
2943,65.0,64.0,60.0,0.0,0.0
2944,68.0,64.0,60.0,0.0,0.0
2945,65.0,64.0,60.0,0.0,0.0
2946,65.0,64.0,60.0,0.0,0.0
2947,68.0,64.0,60.0,0.0,0.0
2948,65.0,64.0,60.0,0.0,0.0
2949,61.0,0.0,120.0,0.0,0.0
2950,73.0,64.0,60.0,0.0,0.0
2951,77.0,64.0,60.0,0.0,0.0
2952,73.0,64.0,60.0,0.0,0.0
2953,63.0,0.0,60.0,0.0,0.0
2954,73.0,64.0,60.0,0.0,0.0
2955,65.0,64.0,120.0,0.0,0.0
2956,77.0,0.0,60.0,0.0,0.0
2957,73.0,0.0,60.0,0.0,0.0
2958,66.0,64.0,60.0,0.0,0.0
2959,72.0,64.0,60.0,0.0,0.0
2960,68.0,64.0,120.0,0.0,0.0
2961,75.0,0.0,60.0,0.0,0.0
2962,63.0,0.0,60.0,0.0,0.0
2963,72.0,64.0,60.0,0.0,0.0
2964,72.0,64.0,60.0,0.0,0.0
2965,56.0,64.0,120.0,0.0,0.0
2966,75.0,0.0,60.0,0.0,0.0
2967,72.0,0.0,60.0,0.0,0.0
2968,68.0,64.0,60.0,0.0,0.0
2969,73.0,64.0,60.0,0.0,0.0
2970,61.0,64.0,120.0,0.0,0.0
2971,77.0,0.0,60.0,0.0,0.0
2972,63.0,0.0,60.0,0.0,0.0
2973,73.0,64.0,60.0,0.0,0.0
2974,73.0,64.0,60.0,0.0,0.0
2975,65.0,64.0,120.0,0.0,0.0
2976,77.0,0.0,60.0,0.0,0.0
2977,73.0,64.0,60.0,0.0,0.0
2978,66.0,0.0,60.0,0.0,0.0
2979,72.0,64.0,60.0,0.0,0.0
2980,68.0,64.0,120.0,0.0,0.0
2981,75.0,0.0,60.0,0.0,0.0
2982,63.0,64.0,60.0,0.0,0.0
2983,72.0,0.0,60.0,0.0,0.0
2984,56.0,64.0,120.0,0.0,0.0
2985,72.0,64.0,60.0,0.0,0.0
2986,75.0,0.0,60.0,0.0,0.0
2987,68.0,0.0,60.0,0.0,0.0
2988,72.0,64.0,60.0,0.0,0.0
2989,73.0,64.0,60.0,0.0,0.0
2990,65.0,64.0,120.0,0.0,0.0
2991,77.0,0.0,60.0,0.0,0.0
2992,73.0,63.0,60.0,0.0,0.0
2993,65.0,0.0,60.0,0.0,0.0
2994,70.0,1.0,60.0,0.0,0.0
2995,66.0,64.0,60.0,0.0,0.0
2996,70.0,64.0,60.0,0.0,0.0
2997,70.0,64.0,60.0,0.0,0.0
2998,66.0,0.0,60.0,0.0,0.0
2999,71.0,64.0,60.0,0.0,0.0
3000,63.0,64.0,120.0,0.0,0.0
3001,75.0,0.0,60.0,0.0,0.0
3002,71.0,0.0,60.0,0.0,0.0
3003,63.0,63.0,60.0,0.0,0.0
3004,65.0,64.0,60.0,0.0,0.0
3005,68.0,1.0,60.0,0.0,0.0
3006,68.0,64.0,60.0,0.0,0.0
3007,68.0,64.0,60.0,0.0,0.0
3008,65.0,0.0,60.0,0.0,0.0
3009,70.0,64.0,60.0,0.0,0.0
3010,61.0,64.0,120.0,0.0,0.0
3011,73.0,0.0,60.0,0.0,0.0
3012,70.0,63.0,60.0,0.0,0.0
3013,61.0,0.0,60.0,0.0,0.0
3014,63.0,64.0,60.0,0.0,0.0
3015,66.0,1.0,60.0,0.0,0.0
3016,66.0,64.0,60.0,0.0,0.0
3017,66.0,64.0,60.0,0.0,0.0
3018,63.0,0.0,60.0,0.0,0.0
3019,68.0,64.0,60.0,0.0,0.0
3020,59.0,64.0,120.0,0.0,0.0
3021,71.0,0.0,60.0,0.0,0.0
3022,59.0,0.0,60.0,0.0,0.0
3023,68.0,63.0,60.0,0.0,0.0
3024,61.0,64.0,60.0,0.0,0.0
3025,65.0,1.0,60.0,0.0,0.0
3026,65.0,64.0,60.0,0.0,0.0
3027,61.0,0.0,60.0,0.0,0.0
3028,65.0,63.0,60.0,0.0,0.0
3029,66.0,64.0,120.0,0.0,0.0
3030,54.0,64.0,60.0,0.0,0.0
3031,58.0,1.0,60.0,0.0,0.0
3032,58.0,0.0,60.0,0.0,0.0
3033,54.0,64.0,60.0,0.0,0.0
3034,59.0,0.0,60.0,0.0,0.0
3035,68.0,0.0,60.0,0.0,0.0
3036,61.0,0.0,120.0,0.0,0.0
3037,54.0,64.0,60.0,0.0,0.0
3038,70.0,64.0,120.0,0.0,0.0
3039,58.0,0.0,60.0,0.0,0.0
3040,54.0,0.0,60.0,0.0,0.0
3041,72.0,64.0,60.0,0.0,0.0
3042,63.0,0.0,60.0,0.0,0.0
3043,73.0,63.0,180.0,0.0,0.0
3044,68.0,5.0,120.0,0.0,0.0
3045,53.0,59.0,60.0,0.0,0.0
3046,56.0,64.0,60.0,0.0,0.0
3047,53.0,0.0,60.0,0.0,0.0
3048,68.0,1.0,60.0,0.0,0.0
3049,61.0,0.0,120.0,0.0,0.0
3050,53.0,64.0,60.0,0.0,0.0
3051,56.0,64.0,60.0,0.0,0.0
3052,73.0,64.0,60.0,0.0,0.0
3053,53.0,0.0,60.0,0.0,0.0
3054,70.0,0.0,120.0,0.0,0.0
3055,66.0,64.0,120.0,0.0,0.0
3056,54.0,64.0,60.0,0.0,0.0
3057,58.0,0.0,60.0,0.0,0.0
3058,68.0,0.0,60.0,0.0,0.0
3059,54.0,0.0,60.0,0.0,0.0
3060,72.0,64.0,60.0,0.0,0.0
3061,73.0,0.0,120.0,0.0,0.0
3062,70.0,64.0,120.0,0.0,0.0
3063,54.0,64.0,60.0,0.0,0.0
3064,58.0,0.0,60.0,0.0,0.0
3065,75.0,64.0,60.0,0.0,0.0
3066,72.0,0.0,60.0,0.0,0.0
3067,54.0,0.0,60.0,0.0,0.0
3068,53.0,59.0,60.0,0.0,0.0
3069,73.0,63.0,180.0,0.0,0.0
3070,68.0,5.0,120.0,0.0,0.0
3071,56.0,64.0,60.0,0.0,0.0
3072,53.0,0.0,60.0,0.0,0.0
3073,68.0,1.0,60.0,0.0,0.0
3074,61.0,64.0,120.0,0.0,0.0
3075,53.0,64.0,60.0,0.0,0.0
3076,56.0,0.0,60.0,0.0,0.0
3077,53.0,64.0,60.0,0.0,0.0
3078,73.0,0.0,60.0,0.0,0.0
3079,54.0,64.0,120.0,0.0,0.0
3080,70.0,64.0,60.0,0.0,0.0
3081,73.0,0.0,60.0,0.0,0.0
3082,65.0,64.0,60.0,0.0,0.0
3083,56.0,0.0,60.0,0.0,0.0
3084,58.0,64.0,120.0,0.0,0.0
3085,66.0,64.0,60.0,0.0,0.0
3086,70.0,0.0,60.0,0.0,0.0
3087,61.0,63.0,60.0,0.0,0.0
3088,54.0,0.0,60.0,0.0,0.0
3089,63.0,1.0,60.0,0.0,0.0
3090,59.0,64.0,60.0,0.0,0.0
3091,63.0,64.0,60.0,0.0,0.0
3092,66.0,64.0,60.0,0.0,0.0
3093,51.0,0.0,60.0,0.0,0.0
3094,63.0,64.0,120.0,0.0,0.0
3095,54.0,64.0,60.0,0.0,0.0
3096,59.0,0.0,60.0,0.0,0.0
3097,66.0,64.0,60.0,0.0,0.0
3098,47.0,0.0,60.0,0.0,0.0
3099,71.0,64.0,60.0,0.0,0.0
3100,56.0,0.0,120.0,0.0,0.0
3101,75.0,64.0,60.0,0.0,0.0
3102,67.0,0.0,60.0,0.0,0.0
3103,58.0,64.0,60.0,0.0,0.0
3104,68.0,64.0,60.0,0.0,0.0
3105,59.0,64.0,120.0,0.0,0.0
3106,71.0,0.0,60.0,0.0,0.0
3107,63.0,0.0,60.0,0.0,0.0
3108,56.0,63.0,60.0,0.0,0.0
3109,65.0,1.0,60.0,0.0,0.0
3110,61.0,64.0,60.0,0.0,0.0
3111,65.0,64.0,60.0,0.0,0.0
3112,68.0,64.0,60.0,0.0,0.0
3113,53.0,0.0,60.0,0.0,0.0
3114,56.0,64.0,60.0,0.0,0.0
3115,65.0,64.0,120.0,0.0,0.0
3116,61.0,0.0,60.0,0.0,0.0
3117,68.0,64.0,60.0,0.0,0.0
3118,49.0,0.0,60.0,0.0,0.0
3119,73.0,64.0,60.0,0.0,0.0
3120,58.0,64.0,120.0,0.0,0.0
3121,77.0,0.0,60.0,0.0,0.0
3122,69.0,64.0,60.0,0.0,0.0
3123,60.0,0.0,60.0,0.0,0.0
3124,70.0,64.0,60.0,0.0,0.0
3125,61.0,64.0,120.0,0.0,0.0
3126,73.0,0.0,60.0,0.0,0.0
3127,58.0,0.0,60.0,0.0,0.0
3128,65.0,64.0,60.0,0.0,0.0
3129,66.0,59.0,60.0,0.0,0.0
3130,63.0,5.0,120.0,0.0,0.0
3131,70.0,64.0,60.0,0.0,0.0
3132,63.0,128.0,60.0,0.0,0.0
3133,71.0,64.0,330.0,0.0,0.0
3134,61.0,64.0,60.0,0.0,0.0
3135,59.0,64.0,60.0,0.0,0.0
3136,61.0,64.0,60.0,0.0,0.0
3137,54.0,0.0,60.0,0.0,0.0
3138,66.0,0.0,60.0,0.0,0.0
3139,70.0,64.0,60.0,0.0,0.0
3140,68.0,64.0,60.0,0.0,0.0
3141,66.0,64.0,120.0,0.0,0.0
3142,73.0,0.0,60.0,0.0,0.0
3143,68.0,64.0,60.0,0.0,0.0
3144,65.0,0.0,60.0,0.0,0.0
3145,66.0,0.0,120.0,0.0,0.0
3146,78.0,64.0,60.0,0.0,0.0
3147,70.0,4.0,120.0,0.0,0.0
3148,82.0,64.0,60.0,0.0,0.0
3149,71.0,64.0,60.0,0.0,0.0
3150,68.0,0.0,60.0,0.0,0.0
3151,78.0,0.0,60.0,0.0,0.0
3152,70.0,64.0,120.0,0.0,0.0
3153,73.0,0.0,120.0,0.0,0.0
3154,78.0,64.0,60.0,0.0,0.0
3155,82.0,0.0,60.0,0.0,0.0
3156,78.0,64.0,60.0,0.0,0.0
3157,75.0,0.0,60.0,0.0,0.0
3158,72.0,0.0,60.0,0.0,0.0
3159,73.0,64.0,120.0,0.0,0.0
3160,77.0,64.0,60.0,0.0,0.0
3161,80.0,0.0,60.0,0.0,0.0
3162,68.0,0.0,60.0,0.0,0.0
3163,77.0,64.0,60.0,0.0,0.0
3164,61.0,0.0,120.0,0.0,0.0
3165,77.0,64.0,60.0,0.0,0.0
3166,80.0,64.0,60.0,0.0,0.0
3167,73.0,64.0,60.0,0.0,0.0
3168,77.0,0.0,60.0,0.0,0.0
3169,66.0,64.0,120.0,0.0,0.0
3170,78.0,64.0,60.0,0.0,0.0
3171,70.0,0.0,120.0,0.0,0.0
3172,82.0,0.0,60.0,0.0,0.0
3173,78.0,0.0,60.0,0.0,0.0
3174,68.0,64.0,60.0,0.0,0.0
3175,71.0,0.0,60.0,0.0,0.0
3176,73.0,0.0,120.0,0.0,0.0
3177,78.0,64.0,60.0,0.0,0.0
3178,70.0,0.0,120.0,0.0,0.0
3179,82.0,64.0,60.0,0.0,0.0
3180,75.0,0.0,60.0,0.0,0.0
3181,72.0,64.0,60.0,0.0,0.0
3182,78.0,0.0,60.0,0.0,0.0
3183,73.0,64.0,120.0,0.0,0.0
3184,77.0,64.0,60.0,0.0,0.0
3185,80.0,0.0,60.0,0.0,0.0
3186,68.0,64.0,60.0,0.0,0.0
3187,77.0,0.0,60.0,0.0,0.0
3188,77.0,64.0,60.0,0.0,0.0
3189,61.0,68.0,120.0,0.0,0.0
3190,80.0,0.0,60.0,0.0,0.0
3191,79.0,64.0,60.0,0.0,0.0
3192,73.0,0.0,60.0,0.0,0.0
3193,70.0,0.0,60.0,0.0,0.0
3194,80.0,64.0,60.0,0.0,0.0
3195,68.0,0.0,120.0,0.0,0.0
3196,71.0,64.0,120.0,0.0,0.0
3197,83.0,0.0,60.0,0.0,0.0
3198,70.0,64.0,60.0,0.0,0.0
3199,73.0,0.0,60.0,0.0,0.0
3200,80.0,0.0,60.0,0.0,0.0
3201,80.0,64.0,60.0,0.0,0.0
3202,75.0,64.0,120.0,0.0,0.0
3203,71.0,0.0,120.0,0.0,0.0
3204,83.0,0.0,60.0,0.0,0.0
3205,76.0,0.0,60.0,0.0,0.0
3206,80.0,64.0,60.0,0.0,0.0
3207,73.0,0.0,60.0,0.0,0.0
3208,79.0,64.0,60.0,0.0,0.0
3209,75.0,64.0,120.0,0.0,0.0
3210,82.0,0.0,60.0,0.0,0.0
3211,79.0,64.0,60.0,0.0,0.0
3212,70.0,0.0,60.0,0.0,0.0
3213,79.0,64.0,60.0,0.0,0.0
3214,63.0,64.0,120.0,0.0,0.0
3215,82.0,0.0,60.0,0.0,0.0
3216,75.0,0.0,60.0,0.0,0.0
3217,79.0,64.0,60.0,0.0,0.0
3218,80.0,64.0,60.0,0.0,0.0
3219,68.0,0.0,120.0,0.0,0.0
3220,71.0,64.0,120.0,0.0,0.0
3221,83.0,0.0,60.0,0.0,0.0
3222,70.0,0.0,60.0,0.0,0.0
3223,80.0,64.0,60.0,0.0,0.0
3224,73.0,0.0,60.0,0.0,0.0
3225,75.0,64.0,120.0,0.0,0.0
3226,80.0,64.0,60.0,0.0,0.0
3227,71.0,0.0,120.0,0.0,0.0
3228,83.0,0.0,60.0,0.0,0.0
3229,73.0,0.0,60.0,0.0,0.0
3230,80.0,64.0,60.0,0.0,0.0
3231,76.0,0.0,60.0,0.0,0.0
3232,75.0,0.0,120.0,0.0,0.0
3233,79.0,64.0,60.0,0.0,0.0
3234,82.0,64.0,60.0,0.0,0.0
3235,79.0,64.0,60.0,0.0,0.0
3236,70.0,0.0,60.0,0.0,0.0
3237,63.0,53.0,120.0,0.0,0.0
3238,79.0,64.0,60.0,0.0,0.0
3239,82.0,0.0,60.0,0.0,0.0
3240,75.0,0.0,60.0,0.0,0.0
3241,79.0,79.0,60.0,0.0,0.0
3242,71.0,64.0,120.0,0.0,0.0
3243,75.0,0.0,120.0,0.0,0.0
3244,83.0,64.0,60.0,0.0,0.0
3245,87.0,0.0,60.0,0.0,0.0
3246,83.0,0.0,60.0,0.0,0.0
3247,73.0,0.0,60.0,0.0,0.0
3248,76.0,64.0,60.0,0.0,0.0
3249,75.0,64.0,120.0,0.0,0.0
3250,83.0,64.0,60.0,0.0,0.0
3251,78.0,0.0,120.0,0.0,0.0
3252,87.0,0.0,60.0,0.0,0.0
3253,83.0,64.0,60.0,0.0,0.0
3254,76.0,0.0,60.0,0.0,0.0
3255,80.0,0.0,60.0,0.0,0.0
3256,78.0,0.0,120.0,0.0,0.0
3257,82.0,64.0,60.0,0.0,0.0
3258,85.0,64.0,60.0,0.0,0.0
3259,82.0,64.0,60.0,0.0,0.0
3260,73.0,0.0,60.0,0.0,0.0
3261,66.0,64.0,120.0,0.0,0.0
3262,82.0,64.0,60.0,0.0,0.0
3263,85.0,0.0,60.0,0.0,0.0
3264,78.0,0.0,60.0,0.0,0.0
3265,82.0,64.0,60.0,0.0,0.0
3266,83.0,64.0,60.0,0.0,0.0
3267,71.0,0.0,120.0,0.0,0.0
3268,75.0,0.0,120.0,0.0,0.0
3269,87.0,64.0,60.0,0.0,0.0
3270,73.0,64.0,60.0,0.0,0.0
3271,76.0,0.0,60.0,0.0,0.0
3272,83.0,0.0,60.0,0.0,0.0
3273,78.0,64.0,120.0,0.0,0.0
3274,75.0,0.0,120.0,0.0,0.0
3275,83.0,64.0,60.0,0.0,0.0
3276,87.0,0.0,60.0,0.0,0.0
3277,80.0,64.0,60.0,0.0,0.0
3278,77.0,0.0,60.0,0.0,0.0
3279,83.0,0.0,60.0,0.0,0.0
3280,82.0,64.0,60.0,0.0,0.0
3281,78.0,9.0,120.0,0.0,0.0
3282,85.0,55.0,60.0,0.0,0.0
3283,77.0,64.0,60.0,0.0,0.0
3284,80.0,0.0,60.0,0.0,0.0
3285,78.0,39.0,120.0,0.0,0.0
3286,82.0,64.0,60.0,0.0,0.0
3287,85.0,25.0,90.0,0.0,0.0
3288,75.0,0.0,60.0,0.0,0.0
3289,78.0,64.0,60.0,0.0,0.0
3290,77.0,64.0,120.0,0.0,0.0
3291,80.0,64.0,60.0,0.0,0.0
3292,85.0,39.0,150.0,0.0,0.0
3293,78.0,25.0,60.0,0.0,0.0
3294,75.0,0.0,60.0,0.0,0.0
3295,80.0,64.0,60.0,0.0,0.0
3296,77.0,64.0,120.0,0.0,0.0
3297,85.0,9.0,180.0,0.0,0.0
3298,73.0,55.0,60.0,0.0,0.0
3299,77.0,0.0,60.0,0.0,0.0
3300,78.0,64.0,60.0,0.0,0.0
3301,75.0,64.0,120.0,0.0,0.0
3302,85.0,63.0,180.0,0.0,0.0
3303,73.0,64.0,60.0,0.0,0.0
3304,77.0,0.0,60.0,0.0,0.0
3305,78.0,1.0,60.0,0.0,0.0
3306,75.0,0.0,120.0,0.0,0.0
3307,85.0,64.0,60.0,0.0,0.0
3308,84.0,0.0,60.0,0.0,0.0
3309,68.0,64.0,60.0,0.0,0.0
3310,77.0,64.0,120.0,0.0,0.0
3311,73.0,0.0,120.0,0.0,0.0
3312,85.0,0.0,120.0,0.0,0.0
3313,49.0,64.0,60.0,0.0,0.0
3314,53.0,0.0,60.0,0.0,0.0
3315,75.0,0.0,60.0,0.0,0.0
3316,49.0,64.0,60.0,0.0,0.0
3317,77.0,0.0,120.0,0.0,0.0
3318,68.0,64.0,120.0,0.0,0.0
3319,49.0,64.0,60.0,0.0,0.0
3320,53.0,0.0,60.0,0.0,0.0
3321,70.0,0.0,60.0,0.0,0.0
3322,79.0,0.0,60.0,0.0,0.0
3323,49.0,64.0,60.0,0.0,0.0
3324,48.0,64.0,60.0,0.0,0.0
3325,80.0,0.0,120.0,0.0,0.0
3326,72.0,64.0,120.0,0.0,0.0
3327,51.0,0.0,60.0,0.0,0.0
3328,75.0,0.0,60.0,0.0,0.0
3329,48.0,64.0,60.0,0.0,0.0
3330,80.0,0.0,60.0,0.0,0.0
3331,68.0,0.0,180.0,0.0,0.0
3332,48.0,64.0,60.0,0.0,0.0
3333,80.0,0.0,120.0,0.0,0.0
3334,51.0,64.0,60.0,0.0,0.0
3335,80.0,64.0,60.0,0.0,0.0
3336,48.0,0.0,60.0,0.0,0.0
3337,65.0,64.0,120.0,0.0,0.0
3338,73.0,0.0,120.0,0.0,0.0
3339,49.0,64.0,60.0,0.0,0.0
3340,53.0,0.0,60.0,0.0,0.0
3341,75.0,0.0,60.0,0.0,0.0
3342,49.0,64.0,60.0,0.0,0.0
3343,66.0,0.0,60.0,0.0,0.0
3344,49.0,64.0,60.0,0.0,0.0
3345,68.0,0.0,120.0,0.0,0.0
3346,77.0,64.0,120.0,0.0,0.0
3347,53.0,0.0,60.0,0.0,0.0
3348,49.0,64.0,60.0,0.0,0.0
3349,70.0,0.0,60.0,0.0,0.0
3350,79.0,0.0,60.0,0.0,0.0
3351,80.0,0.0,120.0,0.0,0.0
3352,48.0,64.0,60.0,0.0,0.0
3353,72.0,64.0,120.0,0.0,0.0
3354,51.0,0.0,60.0,0.0,0.0
3355,48.0,0.0,60.0,0.0,0.0
3356,75.0,0.0,60.0,0.0,0.0
3357,80.0,64.0,60.0,0.0,0.0
3358,48.0,64.0,60.0,0.0,0.0
3359,80.0,0.0,120.0,0.0,0.0
3360,68.0,68.0,120.0,0.0,0.0
3361,51.0,0.0,60.0,0.0,0.0
3362,77.0,0.0,60.0,0.0,0.0
3363,70.0,0.0,60.0,0.0,0.0
3364,50.0,64.0,60.0,0.0,0.0
3365,51.0,64.0,60.0,0.0,0.0
3366,66.0,64.0,120.0,0.0,0.0
3367,75.0,0.0,120.0,0.0,0.0
3368,54.0,0.0,60.0,0.0,0.0
3369,68.0,64.0,60.0,0.0,0.0
3370,77.0,0.0,60.0,0.0,0.0
3371,51.0,0.0,60.0,0.0,0.0
3372,70.0,64.0,120.0,0.0,0.0
3373,78.0,0.0,120.0,0.0,0.0
3374,51.0,64.0,60.0,0.0,0.0
3375,54.0,0.0,60.0,0.0,0.0
3376,80.0,0.0,60.0,0.0,0.0
3377,72.0,64.0,60.0,0.0,0.0
3378,51.0,0.0,60.0,0.0,0.0
3379,82.0,64.0,120.0,0.0,0.0
3380,74.0,0.0,120.0,0.0,0.0
3381,50.0,64.0,60.0,0.0,0.0
3382,53.0,0.0,60.0,0.0,0.0
3383,50.0,0.0,60.0,0.0,0.0
3384,82.0,64.0,60.0,0.0,0.0
3385,77.0,0.0,60.0,0.0,0.0
3386,70.0,64.0,180.0,0.0,0.0
3387,82.0,0.0,120.0,0.0,0.0
3388,50.0,64.0,60.0,0.0,0.0
3389,53.0,64.0,60.0,0.0,0.0
3390,82.0,0.0,60.0,0.0,0.0
3391,50.0,0.0,60.0,0.0,0.0
3392,75.0,64.0,120.0,0.0,0.0
3393,51.0,64.0,60.0,0.0,0.0
3394,66.0,0.0,120.0,0.0,0.0
3395,54.0,0.0,60.0,0.0,0.0
3396,68.0,0.0,60.0,0.0,0.0
3397,77.0,64.0,60.0,0.0,0.0
3398,51.0,0.0,60.0,0.0,0.0
3399,78.0,64.0,120.0,0.0,0.0
3400,51.0,64.0,60.0,0.0,0.0
3401,70.0,0.0,120.0,0.0,0.0
3402,54.0,0.0,60.0,0.0,0.0
3403,51.0,64.0,60.0,0.0,0.0
3404,72.0,0.0,60.0,0.0,0.0
3405,80.0,0.0,60.0,0.0,0.0
3406,82.0,64.0,120.0,0.0,0.0
3407,74.0,0.0,120.0,0.0,0.0
3408,50.0,64.0,60.0,0.0,0.0
3409,53.0,0.0,60.0,0.0,0.0
3410,50.0,0.0,60.0,0.0,0.0
3411,82.0,0.0,60.0,0.0,0.0
3412,77.0,64.0,60.0,0.0,0.0
3413,82.0,0.0,120.0,0.0,0.0
3414,50.0,64.0,60.0,0.0,0.0
3415,70.0,0.0,120.0,0.0,0.0
3416,53.0,64.0,60.0,0.0,0.0
3417,82.0,64.0,60.0,0.0,0.0
3418,77.0,0.0,60.0,0.0,0.0
3419,50.0,0.0,60.0,0.0,0.0
3420,83.0,0.0,120.0,0.0,0.0
3421,78.0,0.0,60.0,0.0,0.0
3422,51.0,64.0,60.0,0.0,0.0
3423,75.0,0.0,60.0,0.0,0.0
3424,54.0,64.0,60.0,0.0,0.0
3425,78.0,64.0,60.0,0.0,0.0
3426,83.0,0.0,60.0,0.0,0.0
3427,51.0,0.0,60.0,0.0,0.0
3428,77.0,0.0,60.0,0.0,0.0
3429,82.0,0.0,120.0,0.0,0.0
3430,49.0,64.0,60.0,0.0,0.0
3431,73.0,64.0,60.0,0.0,0.0
3432,53.0,0.0,60.0,0.0,0.0
3433,77.0,0.0,60.0,0.0,0.0
3434,49.0,0.0,60.0,0.0,0.0
3435,82.0,64.0,60.0,0.0,0.0
3436,80.0,64.0,120.0,0.0,0.0
3437,47.0,64.0,60.0,0.0,0.0
3438,75.0,0.0,60.0,0.0,0.0
3439,51.0,0.0,60.0,0.0,0.0
3440,71.0,0.0,60.0,0.0,0.0
3441,75.0,64.0,60.0,0.0,0.0
3442,80.0,0.0,60.0,0.0,0.0
3443,47.0,0.0,60.0,0.0,0.0
3444,73.0,64.0,60.0,0.0,0.0
3445,78.0,0.0,120.0,0.0,0.0
3446,46.0,0.0,60.0,0.0,0.0
3447,70.0,0.0,60.0,0.0,0.0
3448,49.0,64.0,60.0,0.0,0.0
3449,78.0,64.0,60.0,0.0,0.0
3450,73.0,0.0,60.0,0.0,0.0
3451,46.0,0.0,60.0,0.0,0.0
3452,71.0,64.0,60.0,0.0,0.0
3453,77.0,64.0,120.0,0.0,0.0
3454,44.0,0.0,60.0,0.0,0.0
3455,47.0,0.0,60.0,0.0,0.0
3456,68.0,0.0,60.0,0.0,0.0
3457,77.0,0.0,60.0,0.0,0.0
3458,71.0,64.0,60.0,0.0,0.0
3459,44.0,0.0,60.0,0.0,0.0
3460,75.0,64.0,120.0,0.0,0.0
3461,70.0,0.0,120.0,0.0,0.0
3462,42.0,64.0,60.0,0.0,0.0
3463,54.0,0.0,60.0,0.0,0.0
3464,51.0,0.0,60.0,0.0,0.0
3465,75.0,64.0,60.0,0.0,0.0
3466,66.0,0.0,60.0,0.0,0.0
3467,75.0,0.0,120.0,0.0,0.0
3468,65.0,0.0,120.0,0.0,0.0
3469,56.0,64.0,60.0,0.0,0.0
3470,59.0,64.0,60.0,0.0,0.0
3471,68.0,64.0,60.0,0.0,0.0
3472,53.0,0.0,60.0,0.0,0.0
3473,75.0,0.0,60.0,0.0,0.0
3474,75.0,53.0,120.0,0.0,0.0
3475,66.0,64.0,60.0,0.0,0.0
3476,58.0,0.0,120.0,0.0,0.0
3477,70.0,0.0,60.0,0.0,0.0
3478,46.0,68.0,60.0,0.0,0.0
3479,74.0,0.0,60.0,0.0,0.0
3480,65.0,11.0,60.0,0.0,0.0
3481,51.0,64.0,120.0,0.0,0.0
3482,66.0,0.0,120.0,0.0,0.0
3483,75.0,64.0,60.0,0.0,0.0
3484,78.0,0.0,60.0,0.0,0.0
3485,53.0,64.0,60.0,0.0,0.0
3486,68.0,0.0,60.0,0.0,0.0
3487,75.0,0.0,60.0,0.0,0.0
3488,54.0,0.0,120.0,0.0,0.0
3489,75.0,64.0,60.0,0.0,0.0
3490,70.0,0.0,120.0,0.0,0.0
3491,78.0,64.0,60.0,0.0,0.0
3492,56.0,64.0,60.0,0.0,0.0
3493,71.0,0.0,60.0,0.0,0.0
3494,75.0,0.0,60.0,0.0,0.0
3495,65.0,0.0,120.0,0.0,0.0
3496,74.0,64.0,60.0,0.0,0.0
3497,58.0,64.0,120.0,0.0,0.0
3498,77.0,0.0,60.0,0.0,0.0
3499,68.0,0.0,60.0,0.0,0.0
3500,53.0,64.0,60.0,0.0,0.0
3501,74.0,0.0,60.0,0.0,0.0
3502,74.0,64.0,60.0,0.0,0.0
3503,46.0,64.0,120.0,0.0,0.0
3504,68.0,0.0,120.0,0.0,0.0
3505,77.0,0.0,60.0,0.0,0.0
3506,74.0,0.0,60.0,0.0,0.0
3507,58.0,64.0,60.0,0.0,0.0
3508,68.0,0.0,60.0,0.0,0.0
3509,66.0,0.0,120.0,0.0,0.0
3510,75.0,64.0,60.0,0.0,0.0
3511,51.0,0.0,120.0,0.0,0.0
3512,78.0,64.0,60.0,0.0,0.0
3513,75.0,0.0,60.0,0.0,0.0
3514,53.0,0.0,60.0,0.0,0.0
3515,68.0,64.0,60.0,0.0,0.0
3516,54.0,0.0,120.0,0.0,0.0
3517,70.0,0.0,120.0,0.0,0.0
3518,75.0,64.0,60.0,0.0,0.0
3519,78.0,64.0,60.0,0.0,0.0
3520,56.0,0.0,60.0,0.0,0.0
3521,71.0,64.0,60.0,0.0,0.0
3522,75.0,0.0,60.0,0.0,0.0
3523,65.0,0.0,120.0,0.0,0.0
3524,74.0,64.0,60.0,0.0,0.0
3525,58.0,64.0,120.0,0.0,0.0
3526,77.0,0.0,60.0,0.0,0.0
3527,53.0,0.0,60.0,0.0,0.0
3528,65.0,64.0,60.0,0.0,0.0
3529,74.0,0.0,60.0,0.0,0.0
3530,74.0,53.0,60.0,0.0,0.0
3531,65.0,0.0,120.0,0.0,0.0
3532,46.0,64.0,120.0,0.0,0.0
3533,77.0,11.0,60.0,0.0,0.0
3534,71.0,0.0,60.0,0.0,0.0
3535,73.0,0.0,60.0,0.0,0.0
3536,56.0,64.0,60.0,0.0,0.0
3537,54.0,0.0,120.0,0.0,0.0
3538,70.0,64.0,120.0,0.0,0.0
3539,78.0,64.0,60.0,0.0,0.0
3540,82.0,0.0,60.0,0.0,0.0
3541,78.0,0.0,60.0,0.0,0.0
3542,56.0,0.0,60.0,0.0,0.0
3543,71.0,64.0,60.0,0.0,0.0
3544,73.0,0.0,120.0,0.0,0.0
3545,58.0,64.0,120.0,0.0,0.0
3546,78.0,64.0,60.0,0.0,0.0
3547,82.0,0.0,60.0,0.0,0.0
3548,59.0,64.0,60.0,0.0,0.0
3549,75.0,0.0,60.0,0.0,0.0
3550,78.0,0.0,60.0,0.0,0.0
3551,77.0,64.0,60.0,0.0,0.0
3552,68.0,0.0,120.0,0.0,0.0
3553,61.0,64.0,120.0,0.0,0.0
3554,80.0,0.0,60.0,0.0,0.0
3555,77.0,64.0,60.0,0.0,0.0
3556,71.0,0.0,60.0,0.0,0.0
3557,56.0,0.0,60.0,0.0,0.0
3558,71.0,0.0,120.0,0.0,0.0
3559,77.0,64.0,60.0,0.0,0.0
3560,49.0,0.0,120.0,0.0,0.0
3561,80.0,64.0,60.0,0.0,0.0
3562,77.0,0.0,60.0,0.0,0.0
3563,71.0,64.0,60.0,0.0,0.0
3564,61.0,0.0,60.0,0.0,0.0
3565,78.0,64.0,60.0,0.0,0.0
3566,70.0,64.0,120.0,0.0,0.0
3567,54.0,0.0,120.0,0.0,0.0
3568,82.0,0.0,60.0,0.0,0.0
3569,71.0,0.0,60.0,0.0,0.0
3570,78.0,0.0,60.0,0.0,0.0
3571,56.0,64.0,60.0,0.0,0.0
3572,58.0,0.0,120.0,0.0,0.0
3573,78.0,64.0,60.0,0.0,0.0
3574,73.0,0.0,120.0,0.0,0.0
3575,82.0,64.0,60.0,0.0,0.0
3576,78.0,0.0,60.0,0.0,0.0
3577,59.0,0.0,60.0,0.0,0.0
3578,75.0,64.0,60.0,0.0,0.0
3579,61.0,0.0,120.0,0.0,0.0
3580,68.0,0.0,120.0,0.0,0.0
3581,77.0,64.0,60.0,0.0,0.0
3582,80.0,64.0,60.0,0.0,0.0
3583,56.0,0.0,60.0,0.0,0.0
3584,73.0,64.0,60.0,0.0,0.0
3585,77.0,0.0,60.0,0.0,0.0
3586,73.0,70.0,120.0,0.0,0.0
3587,77.0,64.0,60.0,0.0,0.0
3588,49.0,0.0,120.0,0.0,0.0
3589,80.0,0.0,60.0,0.0,0.0
3590,73.0,0.0,60.0,0.0,0.0
3591,77.0,64.0,60.0,0.0,0.0
3592,61.0,0.0,60.0,0.0,0.0
3593,58.0,0.0,120.0,0.0,0.0
3594,73.0,63.0,180.0,0.0,0.0
3595,82.0,64.0,60.0,0.0,0.0
3596,78.0,64.0,60.0,0.0,0.0
3597,82.0,0.0,60.0,0.0,0.0
3598,66.0,1.0,60.0,0.0,0.0
3599,84.0,64.0,60.0,0.0,0.0
3600,63.0,0.0,60.0,0.0,0.0
3601,87.0,64.0,60.0,0.0,0.0
3602,60.0,0.0,60.0,0.0,0.0
3603,84.0,64.0,60.0,0.0,0.0
3604,63.0,0.0,60.0,0.0,0.0
3605,80.0,64.0,60.0,0.0,0.0
3606,65.0,0.0,60.0,0.0,0.0
3607,77.0,64.0,60.0,0.0,0.0
3608,68.0,0.0,60.0,0.0,0.0
3609,80.0,0.0,60.0,0.0,0.0
3610,65.0,64.0,60.0,0.0,0.0
3611,82.0,64.0,60.0,0.0,0.0
3612,61.0,0.0,60.0,0.0,0.0
3613,85.0,64.0,60.0,0.0,0.0
3614,58.0,0.0,60.0,0.0,0.0
3615,82.0,64.0,60.0,0.0,0.0
3616,61.0,0.0,60.0,0.0,0.0
3617,78.0,64.0,60.0,0.0,0.0
3618,63.0,0.0,60.0,0.0,0.0
3619,75.0,64.0,60.0,0.0,0.0
3620,66.0,0.0,60.0,0.0,0.0
3621,78.0,64.0,60.0,0.0,0.0
3622,63.0,0.0,60.0,0.0,0.0
3623,60.0,0.0,60.0,0.0,0.0
3624,80.0,64.0,60.0,0.0,0.0
3625,56.0,0.0,60.0,0.0,0.0
3626,84.0,64.0,60.0,0.0,0.0
3627,60.0,64.0,60.0,0.0,0.0
3628,80.0,0.0,60.0,0.0,0.0
3629,77.0,0.0,60.0,0.0,0.0
3630,61.0,64.0,60.0,0.0,0.0
3631,73.0,64.0,60.0,0.0,0.0
3632,65.0,0.0,60.0,0.0,0.0
3633,73.0,0.0,60.0,0.0,0.0
3634,77.0,64.0,60.0,0.0,0.0
3635,61.0,0.0,60.0,0.0,0.0
3636,78.0,64.0,120.0,0.0,0.0
3637,63.0,64.0,60.0,0.0,0.0
3638,73.0,0.0,120.0,0.0,0.0
3639,66.0,0.0,60.0,0.0,0.0
3640,63.0,0.0,60.0,0.0,0.0
3641,78.0,64.0,60.0,0.0,0.0
3642,72.0,0.0,60.0,0.0,0.0
3643,65.0,0.0,60.0,0.0,0.0
3644,80.0,64.0,60.0,0.0,0.0
3645,73.0,0.0,120.0,0.0,0.0
3646,68.0,64.0,60.0,0.0,0.0
3647,77.0,0.0,60.0,0.0,0.0
3648,80.0,64.0,60.0,0.0,0.0
3649,73.0,0.0,60.0,0.0,0.0
3650,65.0,0.0,60.0,0.0,0.0
3651,66.0,64.0,60.0,0.0,0.0
3652,73.0,0.0,120.0,0.0,0.0
3653,82.0,0.0,120.0,0.0,0.0
3654,70.0,64.0,60.0,0.0,0.0
3655,75.0,63.0,60.0,0.0,0.0
3656,73.0,0.0,60.0,0.0,0.0
3657,66.0,0.0,60.0,0.0,0.0
3658,72.0,128.0,60.0,0.0,0.0
3659,75.0,1.0,60.0,0.0,0.0
3660,68.0,0.0,330.0,0.0,0.0
3661,75.0,17.0,300.0,0.0,0.0
3662,72.0,64.0,60.0,0.0,0.0
3663,72.0,64.0,60.0,0.0,0.0
3664,80.0,47.0,60.0,0.0,0.0
3665,72.0,64.0,60.0,0.0,0.0
3666,68.0,0.0,60.0,0.0,0.0
3667,70.0,64.0,60.0,0.0,0.0
3668,62.0,0.0,120.0,0.0,0.0
3669,80.0,64.0,60.0,0.0,0.0
3670,58.0,64.0,60.0,0.0,0.0
3671,70.0,0.0,60.0,0.0,0.0
3672,70.0,64.0,60.0,0.0,0.0
3673,51.0,0.0,120.0,0.0,0.0
3674,78.0,64.0,60.0,0.0,0.0
3675,70.0,64.0,60.0,0.0,0.0
3676,63.0,0.0,60.0,0.0,0.0
3677,68.0,64.0,60.0,0.0,0.0
3678,60.0,0.0,120.0,0.0,0.0
3679,78.0,64.0,60.0,0.0,0.0
3680,68.0,64.0,60.0,0.0,0.0
3681,56.0,0.0,60.0,0.0,0.0
3682,68.0,64.0,60.0,0.0,0.0
3683,49.0,64.0,120.0,0.0,0.0
3684,77.0,0.0,60.0,0.0,0.0
3685,68.0,0.0,60.0,0.0,0.0
3686,65.0,0.0,60.0,0.0,0.0
3687,61.0,64.0,60.0,0.0,0.0
3688,70.0,64.0,60.0,0.0,0.0
3689,66.0,64.0,120.0,0.0,0.0
3690,54.0,0.0,60.0,0.0,0.0
3691,72.0,0.0,60.0,0.0,0.0
3692,56.0,0.0,60.0,0.0,0.0
3693,58.0,0.0,60.0,0.0,0.0
3694,73.0,0.0,60.0,0.0,0.0
3695,65.0,64.0,60.0,0.0,0.0
3696,73.0,0.0,120.0,0.0,0.0
3697,63.0,0.0,120.0,0.0,0.0
3698,54.0,64.0,60.0,0.0,0.0
3699,51.0,64.0,60.0,0.0,0.0
3700,72.0,64.0,60.0,0.0,0.0
3701,63.0,0.0,60.0,0.0,0.0
3702,56.0,0.0,60.0,0.0,0.0
3703,65.0,63.0,180.0,0.0,0.0
3704,49.0,64.0,60.0,0.0,0.0
3705,73.0,0.0,330.0,0.0,0.0
3706,56.0,64.0,60.0,0.0,0.0
3707,61.0,1.0,60.0,0.0,0.0
3708,56.0,64.0,60.0,0.0,0.0
3709,65.0,68.0,60.0,0.0,0.0
3710,56.0,64.0,60.0,0.0,0.0
3711,77.0,0.0,60.0,0.0,0.0
3712,56.0,64.0,60.0,0.0,0.0
3713,74.0,64.0,120.0,0.0,0.0
3714,65.0,0.0,60.0,0.0,0.0
3715,56.0,64.0,60.0,0.0,0.0
3716,70.0,0.0,60.0,0.0,0.0
3717,75.0,0.0,60.0,0.0,0.0
3718,54.0,64.0,60.0,0.0,0.0
3719,63.0,64.0,60.0,0.0,0.0
3720,78.0,0.0,60.0,0.0,0.0
3721,54.0,64.0,60.0,0.0,0.0
3722,75.0,0.0,60.0,0.0,0.0
3723,54.0,64.0,60.0,0.0,0.0
3724,72.0,64.0,120.0,0.0,0.0
3725,63.0,0.0,60.0,0.0,0.0
3726,54.0,64.0,60.0,0.0,0.0
3727,68.0,0.0,60.0,0.0,0.0
3728,53.0,64.0,60.0,0.0,0.0
3729,73.0,0.0,60.0,0.0,0.0
3730,61.0,64.0,60.0,0.0,0.0
3731,77.0,0.0,60.0,0.0,0.0
3732,73.0,0.0,60.0,0.0,0.0
3733,53.0,64.0,60.0,0.0,0.0
3734,54.0,59.0,60.0,0.0,0.0
3735,70.0,5.0,120.0,0.0,0.0
3736,61.0,29.0,60.0,0.0,0.0
3737,78.0,35.0,90.0,0.0,0.0
3738,70.0,0.0,60.0,0.0,0.0
3739,54.0,64.0,60.0,0.0,0.0
3740,56.0,59.0,60.0,0.0,0.0
3741,68.0,5.0,120.0,0.0,0.0
3742,61.0,0.0,60.0,0.0,0.0
3743,77.0,64.0,60.0,0.0,0.0
3744,75.0,0.0,60.0,0.0,0.0
3745,56.0,0.0,60.0,0.0,0.0
3746,66.0,64.0,60.0,0.0,0.0
3747,60.0,0.0,60.0,0.0,0.0
3748,73.0,64.0,60.0,0.0,0.0
3749,49.0,64.0,120.0,0.0,0.0
3750,61.0,0.0,120.0,0.0,0.0
3751,65.0,0.0,120.0,0.0,0.0
3752,77.0,0.0,60.0,0.0,0.0
3753,73.0,0.0,60.0,0.0,0.0
3754,63.0,64.0,60.0,0.0,0.0
3755,66.0,0.0,60.0,0.0,0.0
3756,73.0,64.0,60.0,0.0,0.0
3757,65.0,64.0,120.0,0.0,0.0
3758,68.0,0.0,120.0,0.0,0.0
3759,77.0,0.0,60.0,0.0,0.0
3760,66.0,0.0,60.0,0.0,0.0
3761,70.0,64.0,60.0,0.0,0.0
3762,73.0,0.0,60.0,0.0,0.0
3763,72.0,64.0,60.0,0.0,0.0
3764,68.0,64.0,120.0,0.0,0.0
3765,75.0,0.0,60.0,0.0,0.0
3766,63.0,0.0,60.0,0.0,0.0
3767,72.0,64.0,60.0,0.0,0.0
3768,56.0,64.0,120.0,0.0,0.0
3769,72.0,64.0,60.0,0.0,0.0
3770,75.0,0.0,60.0,0.0,0.0
3771,68.0,64.0,60.0,0.0,0.0
3772,72.0,0.0,60.0,0.0,0.0
3773,61.0,64.0,120.0,0.0,0.0
3774,65.0,0.0,120.0,0.0,0.0
3775,73.0,64.0,60.0,0.0,0.0
3776,77.0,0.0,60.0,0.0,0.0
3777,63.0,0.0,60.0,0.0,0.0
3778,73.0,64.0,60.0,0.0,0.0
3779,66.0,0.0,60.0,0.0,0.0
3780,65.0,0.0,120.0,0.0,0.0
3781,68.0,64.0,120.0,0.0,0.0
3782,73.0,64.0,60.0,0.0,0.0
3783,77.0,0.0,60.0,0.0,0.0
3784,66.0,64.0,60.0,0.0,0.0
3785,70.0,0.0,60.0,0.0,0.0
3786,73.0,0.0,60.0,0.0,0.0
3787,72.0,64.0,60.0,0.0,0.0
3788,68.0,0.0,120.0,0.0,0.0
3789,75.0,64.0,60.0,0.0,0.0
3790,63.0,64.0,60.0,0.0,0.0
3791,72.0,0.0,60.0,0.0,0.0
3792,72.0,64.0,60.0,0.0,0.0
3793,56.0,53.0,120.0,0.0,0.0
3794,75.0,0.0,60.0,0.0,0.0
3795,68.0,79.0,60.0,0.0,0.0
3796,72.0,0.0,60.0,0.0,0.0
3797,71.0,64.0,60.0,0.0,0.0
3798,56.0,64.0,120.0,0.0,0.0
3799,80.0,0.0,60.0,0.0,0.0
3800,71.0,64.0,60.0,0.0,0.0
3801,58.0,0.0,60.0,0.0,0.0
3802,71.0,64.0,60.0,0.0,0.0
3803,59.0,64.0,120.0,0.0,0.0
3804,80.0,0.0,60.0,0.0,0.0
3805,71.0,64.0,60.0,0.0,0.0
3806,61.0,0.0,60.0,0.0,0.0
3807,70.0,64.0,60.0,0.0,0.0
3808,63.0,64.0,120.0,0.0,0.0
3809,79.0,0.0,60.0,0.0,0.0
3810,70.0,64.0,60.0,0.0,0.0
3811,58.0,0.0,60.0,0.0,0.0
3812,70.0,64.0,60.0,0.0,0.0
3813,51.0,0.0,120.0,0.0,0.0
3814,79.0,64.0,60.0,0.0,0.0
3815,70.0,64.0,60.0,0.0,0.0
3816,63.0,0.0,60.0,0.0,0.0
3817,71.0,64.0,60.0,0.0,0.0
3818,56.0,0.0,120.0,0.0,0.0
3819,80.0,64.0,60.0,0.0,0.0
3820,58.0,64.0,60.0,0.0,0.0
3821,71.0,0.0,60.0,0.0,0.0
3822,71.0,64.0,60.0,0.0,0.0
3823,59.0,64.0,120.0,0.0,0.0
3824,80.0,0.0,60.0,0.0,0.0
3825,61.0,0.0,60.0,0.0,0.0
3826,71.0,64.0,60.0,0.0,0.0
3827,70.0,64.0,60.0,0.0,0.0
3828,63.0,0.0,120.0,0.0,0.0
3829,79.0,64.0,60.0,0.0,0.0
3830,70.0,64.0,60.0,0.0,0.0
3831,58.0,0.0,60.0,0.0,0.0
3832,70.0,64.0,60.0,0.0,0.0
3833,51.0,53.0,120.0,0.0,0.0
3834,79.0,0.0,60.0,0.0,0.0
3835,70.0,79.0,60.0,0.0,0.0
3836,63.0,0.0,60.0,0.0,0.0
3837,59.0,64.0,60.0,0.0,0.0
3838,75.0,0.0,120.0,0.0,0.0
3839,71.0,0.0,120.0,0.0,0.0
3840,63.0,64.0,60.0,0.0,0.0
3841,59.0,0.0,60.0,0.0,0.0
3842,73.0,64.0,60.0,0.0,0.0
3843,76.0,0.0,60.0,0.0,0.0
3844,78.0,64.0,120.0,0.0,0.0
3845,59.0,64.0,60.0,0.0,0.0
3846,75.0,0.0,120.0,0.0,0.0
3847,63.0,0.0,60.0,0.0,0.0
3848,77.0,0.0,60.0,0.0,0.0
3849,80.0,0.0,60.0,0.0,0.0
3850,59.0,64.0,60.0,0.0,0.0
3851,58.0,64.0,60.0,0.0,0.0
3852,78.0,0.0,120.0,0.0,0.0
3853,82.0,64.0,120.0,0.0,0.0
3854,61.0,0.0,60.0,0.0,0.0
3855,80.0,0.0,60.0,0.0,0.0
3856,83.0,0.0,60.0,0.0,0.0
3857,58.0,64.0,60.0,0.0,0.0
3858,78.0,53.0,120.0,0.0,0.0
3859,58.0,64.0,60.0,0.0,0.0
3860,85.0,0.0,120.0,0.0,0.0
3861,61.0,0.0,60.0,0.0,0.0
3862,58.0,64.0,60.0,0.0,0.0
3863,78.0,11.0,60.0,0.0,0.0
3864,76.0,0.0,60.0,0.0,0.0
3865,75.0,0.0,120.0,0.0,0.0
3866,59.0,64.0,120.0,0.0,0.0
3867,83.0,64.0,60.0,0.0,0.0
3868,87.0,0.0,60.0,0.0,0.0
3869,83.0,0.0,60.0,0.0,0.0
3870,61.0,64.0,60.0,0.0,0.0
3871,76.0,0.0,60.0,0.0,0.0
3872,63.0,0.0,120.0,0.0,0.0
3873,78.0,0.0,120.0,0.0,0.0
3874,83.0,64.0,60.0,0.0,0.0
3875,87.0,64.0,60.0,0.0,0.0
3876,64.0,64.0,60.0,0.0,0.0
3877,83.0,0.0,60.0,0.0,0.0
3878,80.0,0.0,60.0,0.0,0.0
3879,66.0,0.0,120.0,0.0,0.0
3880,73.0,64.0,120.0,0.0,0.0
3881,82.0,64.0,60.0,0.0,0.0
3882,85.0,0.0,60.0,0.0,0.0
3883,61.0,64.0,60.0,0.0,0.0
3884,73.0,0.0,60.0,0.0,0.0
3885,82.0,0.0,60.0,0.0,0.0
3886,82.0,64.0,60.0,0.0,0.0
3887,54.0,73.0,120.0,0.0,0.0
3888,73.0,0.0,120.0,0.0,0.0
3889,85.0,0.0,60.0,0.0,0.0
3890,82.0,63.0,90.0,0.0,0.0
3891,73.0,0.0,60.0,0.0,0.0
3892,66.0,9.0,60.0,0.0,0.0
3893,78.0,0.0,150.0,0.0,0.0
3894,75.0,65.0,150.0,0.0,0.0
3895,63.0,72.0,60.0,0.0,0.0
3896,66.0,2.0,60.0,0.0,0.0
3897,80.0,0.0,60.0,0.0,0.0
3898,63.0,64.0,60.0,0.0,0.0
3899,77.0,0.0,60.0,0.0,0.0
3900,78.0,64.0,120.0,0.0,0.0
3901,63.0,64.0,60.0,0.0,0.0
3902,82.0,0.0,120.0,0.0,0.0
3903,66.0,0.0,60.0,0.0,0.0
3904,83.0,0.0,60.0,0.0,0.0
3905,63.0,64.0,60.0,0.0,0.0
3906,80.0,0.0,60.0,0.0,0.0
3907,62.0,64.0,60.0,0.0,0.0
3908,77.0,0.0,120.0,0.0,0.0
3909,82.0,64.0,120.0,0.0,0.0
3910,65.0,0.0,60.0,0.0,0.0
3911,77.0,0.0,60.0,0.0,0.0
3912,83.0,0.0,60.0,0.0,0.0
3913,62.0,64.0,60.0,0.0,0.0
3914,62.0,64.0,60.0,0.0,0.0
3915,77.0,64.0,120.0,0.0,0.0
3916,82.0,0.0,120.0,0.0,0.0
3917,65.0,0.0,60.0,0.0,0.0
3918,62.0,0.0,60.0,0.0,0.0
3919,77.0,64.0,60.0,0.0,0.0
3920,80.0,0.0,60.0,0.0,0.0
3921,75.0,64.0,120.0,0.0,0.0
3922,78.0,0.0,120.0,0.0,0.0
3923,63.0,64.0,60.0,0.0,0.0
3924,66.0,0.0,60.0,0.0,0.0
3925,63.0,0.0,60.0,0.0,0.0
3926,87.0,64.0,60.0,0.0,0.0
3927,78.0,0.0,60.0,0.0,0.0
3928,63.0,64.0,60.0,0.0,0.0
3929,77.0,0.0,120.0,0.0,0.0
3930,86.0,64.0,120.0,0.0,0.0
3931,66.0,0.0,60.0,0.0,0.0
3932,63.0,64.0,60.0,0.0,0.0
3933,78.0,0.0,60.0,0.0,0.0
3934,87.0,0.0,60.0,0.0,0.0
3935,82.0,0.0,330.0,0.0,0.0
3936,62.0,64.0,60.0,0.0,0.0
3937,77.0,64.0,390.0,0.0,0.0
3938,65.0,64.0,60.0,0.0,0.0
3939,62.0,64.0,60.0,0.0,0.0
3940,62.0,64.0,60.0,0.0,0.0
3941,65.0,64.0,60.0,0.0,0.0
3942,82.0,0.0,60.0,0.0,0.0
3943,62.0,0.0,60.0,0.0,0.0
3944,84.0,0.0,120.0,0.0,0.0
3945,63.0,64.0,60.0,0.0,0.0
3946,82.0,0.0,120.0,0.0,0.0
3947,66.0,64.0,60.0,0.0,0.0
3948,63.0,64.0,60.0,0.0,0.0
3949,82.0,0.0,60.0,0.0,0.0
3950,84.0,0.0,60.0,0.0,0.0
3951,64.0,64.0,60.0,0.0,0.0
3952,82.0,0.0,120.0,0.0,0.0
3953,84.0,64.0,120.0,0.0,0.0
3954,67.0,0.0,60.0,0.0,0.0
3955,82.0,0.0,60.0,0.0,0.0
3956,84.0,0.0,60.0,0.0,0.0
3957,64.0,64.0,60.0,0.0,0.0
3958,84.0,0.0,120.0,0.0,0.0
3959,65.0,64.0,60.0,0.0,0.0
3960,81.0,64.0,120.0,0.0,0.0
3961,69.0,0.0,60.0,0.0,0.0
3962,65.0,0.0,60.0,0.0,0.0
3963,84.0,64.0,60.0,0.0,0.0
3964,81.0,0.0,60.0,0.0,0.0
3965,63.0,64.0,60.0,0.0,0.0
3966,78.0,0.0,120.0,0.0,0.0
3967,84.0,0.0,120.0,0.0,0.0
3968,69.0,64.0,60.0,0.0,0.0
3969,63.0,64.0,60.0,0.0,0.0
3970,78.0,0.0,60.0,0.0,0.0
3971,84.0,0.0,60.0,0.0,0.0
3972,61.0,64.0,60.0,0.0,0.0
3973,77.0,64.0,120.0,0.0,0.0
3974,85.0,0.0,120.0,0.0,0.0
3975,70.0,0.0,60.0,0.0,0.0
3976,78.0,64.0,60.0,0.0,0.0
3977,63.0,0.0,60.0,0.0,0.0
3978,82.0,0.0,60.0,0.0,0.0
3979,82.0,64.0,120.0,0.0,0.0
3980,77.0,64.0,60.0,0.0,0.0
3981,65.0,0.0,120.0,0.0,0.0
3982,73.0,0.0,60.0,0.0,0.0
3983,72.0,0.0,60.0,0.0,0.0
3984,75.0,64.0,60.0,0.0,0.0
3985,81.0,0.0,60.0,0.0,0.0
3986,65.0,0.0,60.0,0.0,0.0
3987,73.0,0.0,120.0,0.0,0.0
3988,82.0,64.0,60.0,0.0,0.0
3989,70.0,0.0,120.0,0.0,0.0
3990,58.0,64.0,120.0,0.0,0.0
3991,85.0,0.0,60.0,0.0,0.0
3992,60.0,64.0,60.0,0.0,0.0
3993,75.0,0.0,60.0,0.0,0.0
3994,82.0,0.0,60.0,0.0,0.0
3995,77.0,64.0,120.0,0.0,0.0
3996,61.0,0.0,120.0,0.0,0.0
3997,82.0,64.0,60.0,0.0,0.0
3998,85.0,0.0,60.0,0.0,0.0
3999,78.0,0.0,60.0,0.0,0.0
4000,82.0,0.0,60.0,0.0,0.0
4001,63.0,64.0,60.0,0.0,0.0
4002,65.0,0.0,120.0,0.0,0.0
4003,72.0,64.0,120.0,0.0,0.0
4004,81.0,64.0,60.0,0.0,0.0
4005,84.0,0.0,60.0,0.0,0.0
4006,75.0,0.0,60.0,0.0,0.0
4007,81.0,0.0,60.0,0.0,0.0
4008,60.0,64.0,60.0,0.0,0.0
4009,75.0,0.0,120.0,0.0,0.0
4010,53.0,64.0,120.0,0.0,0.0
4011,81.0,64.0,60.0,0.0,0.0
4012,84.0,0.0,60.0,0.0,0.0
4013,65.0,64.0,60.0,0.0,0.0
4014,81.0,0.0,60.0,0.0,0.0
4015,75.0,0.0,60.0,0.0,0.0
4016,73.0,0.0,120.0,0.0,0.0
4017,58.0,64.0,120.0,0.0,0.0
4018,82.0,64.0,60.0,0.0,0.0
4019,85.0,0.0,60.0,0.0,0.0
4020,82.0,0.0,60.0,0.0,0.0
4021,60.0,64.0,60.0,0.0,0.0
4022,75.0,0.0,60.0,0.0,0.0
4023,61.0,0.0,120.0,0.0,0.0
4024,77.0,0.0,120.0,0.0,0.0
4025,82.0,64.0,60.0,0.0,0.0
4026,85.0,64.0,60.0,0.0,0.0
4027,63.0,64.0,60.0,0.0,0.0
4028,82.0,0.0,60.0,0.0,0.0
4029,78.0,0.0,60.0,0.0,0.0
4030,65.0,64.0,60.0,0.0,0.0
4031,72.0,62.0,330.0,0.0,0.0
4032,81.0,33.0,210.0,0.0,0.0
4033,60.0,64.0,60.0,0.0,0.0
4034,57.0,31.0,60.0,0.0,0.0
4035,53.0,67.0,60.0,0.0,0.0
4036,60.0,20.0,60.0,0.0,0.0
4037,65.0,75.0,90.0,0.0,0.0
4038,65.0,64.0,60.0,0.0,0.0
4039,68.0,64.0,60.0,0.0,0.0
4040,65.0,64.0,60.0,0.0,0.0
4041,65.0,64.0,60.0,0.0,0.0
4042,68.0,64.0,60.0,0.0,0.0
4043,65.0,64.0,60.0,0.0,0.0
4044,64.0,64.0,60.0,0.0,0.0
4045,67.0,64.0,60.0,0.0,0.0
4046,64.0,0.0,60.0,0.0,0.0
4047,72.0,64.0,60.0,0.0,0.0
4048,64.0,64.0,60.0,0.0,0.0
4049,79.0,64.0,120.0,0.0,0.0
4050,67.0,0.0,60.0,0.0,0.0
4051,64.0,0.0,60.0,0.0,0.0
4052,70.0,63.0,60.0,0.0,0.0
4053,65.0,64.0,60.0,0.0,0.0
4054,68.0,1.0,60.0,0.0,0.0
4055,68.0,64.0,60.0,0.0,0.0
4056,65.0,64.0,60.0,0.0,0.0
4057,72.0,0.0,60.0,0.0,0.0
4058,65.0,64.0,60.0,0.0,0.0
4059,77.0,0.0,120.0,0.0,0.0
4060,68.0,64.0,60.0,0.0,0.0
4061,80.0,64.0,60.0,0.0,0.0
4062,65.0,0.0,60.0,0.0,0.0
4063,64.0,64.0,60.0,0.0,0.0
4064,79.0,64.0,120.0,0.0,0.0
4065,67.0,0.0,60.0,0.0,0.0
4066,72.0,0.0,60.0,0.0,0.0
4067,64.0,64.0,60.0,0.0,0.0
4068,64.0,64.0,60.0,0.0,0.0
4069,84.0,64.0,120.0,0.0,0.0
4070,67.0,0.0,60.0,0.0,0.0
4071,84.0,0.0,60.0,0.0,0.0
4072,64.0,64.0,60.0,0.0,0.0
4073,82.0,0.0,60.0,0.0,0.0
4074,65.0,64.0,60.0,0.0,0.0
4075,80.0,64.0,120.0,0.0,0.0
4076,85.0,0.0,120.0,0.0,0.0
4077,68.0,0.0,60.0,0.0,0.0
4078,85.0,0.0,60.0,0.0,0.0
4079,65.0,64.0,60.0,0.0,0.0
4080,80.0,0.0,60.0,0.0,0.0
4081,84.0,0.0,120.0,0.0,0.0
4082,65.0,64.0,60.0,0.0,0.0
4083,80.0,64.0,120.0,0.0,0.0
4084,68.0,0.0,60.0,0.0,0.0
4085,65.0,64.0,60.0,0.0,0.0
4086,84.0,0.0,60.0,0.0,0.0
4087,80.0,0.0,60.0,0.0,0.0
4088,74.0,0.0,120.0,0.0,0.0
4089,65.0,64.0,60.0,0.0,0.0
4090,83.0,0.0,120.0,0.0,0.0
4091,68.0,64.0,60.0,0.0,0.0
4092,65.0,64.0,60.0,0.0,0.0
4093,74.0,0.0,60.0,0.0,0.0
4094,83.0,0.0,60.0,0.0,0.0
4095,84.0,0.0,120.0,0.0,0.0
4096,63.0,64.0,60.0,0.0,0.0
4097,75.0,64.0,120.0,0.0,0.0
4098,67.0,0.0,60.0,0.0,0.0
4099,63.0,0.0,60.0,0.0,0.0
4100,79.0,0.0,60.0,0.0,0.0
4101,84.0,64.0,60.0,0.0,0.0
4102,65.0,64.0,60.0,0.0,0.0
4103,84.0,0.0,120.0,0.0,0.0
4104,80.0,64.0,120.0,0.0,0.0
4105,68.0,0.0,60.0,0.0,0.0
4106,65.0,64.0,60.0,0.0,0.0
4107,74.0,0.0,60.0,0.0,0.0
4108,84.0,0.0,60.0,0.0,0.0
4109,67.0,64.0,60.0,0.0,0.0
4110,74.0,0.0,120.0,0.0,0.0
4111,83.0,64.0,120.0,0.0,0.0
4112,65.0,0.0,60.0,0.0,0.0
4113,77.0,0.0,60.0,0.0,0.0
4114,83.0,0.0,60.0,0.0,0.0
4115,67.0,123.0,60.0,0.0,0.0
4116,60.0,64.0,240.0,0.0,0.0
4117,75.0,5.0,120.0,0.0,0.0
4118,84.0,63.0,180.0,0.0,0.0
4119,79.0,64.0,60.0,0.0,0.0
4120,75.0,1.0,60.0,0.0,0.0
4121,72.0,0.0,60.0,0.0,0.0
4122,72.0,64.0,60.0,0.0,0.0
4123,84.0,0.0,60.0,0.0,0.0
4124,85.0,0.0,60.0,0.0,0.0
4125,70.0,64.0,60.0,0.0,0.0
4126,69.0,0.0,60.0,0.0,0.0
4127,87.0,64.0,60.0,0.0,0.0
4128,72.0,64.0,60.0,0.0,0.0
4129,78.0,0.0,60.0,0.0,0.0
4130,69.0,64.0,60.0,0.0,0.0
4131,87.0,0.0,60.0,0.0,0.0
4132,69.0,64.0,60.0,0.0,0.0
4133,87.0,0.0,60.0,0.0,0.0
4134,72.0,64.0,60.0,0.0,0.0
4135,78.0,0.0,60.0,0.0,0.0
4136,87.0,64.0,60.0,0.0,0.0
4137,69.0,0.0,60.0,0.0,0.0
4138,87.0,0.0,60.0,0.0,0.0
4139,69.0,64.0,60.0,0.0,0.0
4140,72.0,29.0,60.0,0.0,0.0
4141,77.0,35.0,90.0,0.0,0.0
4142,69.0,64.0,60.0,0.0,0.0
4143,87.0,0.0,60.0,0.0,0.0
4144,70.0,64.0,60.0,0.0,0.0
4145,77.0,63.0,180.0,0.0,0.0
4146,85.0,0.0,60.0,0.0,0.0
4147,73.0,64.0,60.0,0.0,0.0
4148,82.0,0.0,60.0,0.0,0.0
4149,68.0,1.0,60.0,0.0,0.0
4150,84.0,0.0,60.0,0.0,0.0
4151,67.0,64.0,60.0,0.0,0.0
4152,85.0,0.0,60.0,0.0,0.0
4153,70.0,64.0,60.0,0.0,0.0
4154,76.0,0.0,60.0,0.0,0.0
4155,67.0,64.0,60.0,0.0,0.0
4156,85.0,0.0,60.0,0.0,0.0
4157,85.0,0.0,60.0,0.0,0.0
4158,67.0,64.0,60.0,0.0,0.0
4159,70.0,64.0,60.0,0.0,0.0
4160,76.0,0.0,60.0,0.0,0.0
4161,85.0,0.0,60.0,0.0,0.0
4162,67.0,64.0,60.0,0.0,0.0
4163,67.0,0.0,60.0,0.0,0.0
4164,85.0,64.0,60.0,0.0,0.0
4165,70.0,29.0,60.0,0.0,0.0
4166,75.0,35.0,90.0,0.0,0.0
4167,67.0,64.0,60.0,0.0,0.0
4168,85.0,0.0,60.0,0.0,0.0
4169,68.0,64.0,60.0,0.0,0.0
4170,75.0,63.0,180.0,0.0,0.0
4171,84.0,0.0,60.0,0.0,0.0
4172,72.0,64.0,60.0,0.0,0.0
4173,80.0,0.0,60.0,0.0,0.0
4174,84.0,1.0,60.0,0.0,0.0
4175,68.0,0.0,60.0,0.0,0.0
4176,82.0,0.0,60.0,0.0,0.0
4177,64.0,64.0,60.0,0.0,0.0
4178,67.0,64.0,60.0,0.0,0.0
4179,73.0,0.0,60.0,0.0,0.0
4180,64.0,0.0,60.0,0.0,0.0
4181,82.0,64.0,60.0,0.0,0.0
4182,64.0,64.0,60.0,0.0,0.0
4183,82.0,0.0,60.0,0.0,0.0
4184,67.0,64.0,60.0,0.0,0.0
4185,73.0,0.0,60.0,0.0,0.0
4186,64.0,64.0,60.0,0.0,0.0
4187,82.0,0.0,60.0,0.0,0.0
4188,64.0,64.0,60.0,0.0,0.0
4189,82.0,0.0,60.0,0.0,0.0
4190,67.0,64.0,60.0,0.0,0.0
4191,72.0,0.0,60.0,0.0,0.0
4192,64.0,64.0,60.0,0.0,0.0
4193,82.0,0.0,60.0,0.0,0.0
4194,65.0,59.0,120.0,0.0,0.0
4195,80.0,64.0,60.0,0.0,0.0
4196,72.0,5.0,120.0,0.0,0.0
4197,65.0,64.0,60.0,0.0,0.0
4198,63.0,0.0,60.0,0.0,0.0
4199,81.0,0.0,60.0,0.0,0.0
4200,82.0,64.0,60.0,0.0,0.0
4201,62.0,0.0,120.0,0.0,0.0
4202,65.0,64.0,120.0,0.0,0.0
4203,77.0,0.0,60.0,0.0,0.0
4204,62.0,0.0,60.0,0.0,0.0
4205,80.0,0.0,60.0,0.0,0.0
4206,58.0,64.0,60.0,0.0,0.0
4207,63.0,64.0,120.0,0.0,0.0
4208,78.0,64.0,60.0,0.0,0.0
4209,75.0,0.0,60.0,0.0,0.0
4210,78.0,0.0,60.0,0.0,0.0
4211,60.0,64.0,60.0,0.0,0.0
4212,63.0,0.0,60.0,0.0,0.0
4213,77.0,0.0,120.0,0.0,0.0
4214,57.0,64.0,60.0,0.0,0.0
4215,65.0,64.0,120.0,0.0,0.0
4216,72.0,0.0,120.0,0.0,0.0
4217,60.0,0.0,60.0,0.0,0.0
4218,72.0,64.0,60.0,0.0,0.0
4219,75.0,0.0,60.0,0.0,0.0
4220,57.0,0.0,60.0,0.0,0.0
4221,65.0,0.0,60.0,0.0,0.0
4222,73.0,0.0,120.0,0.0,0.0
4223,72.0,0.0,120.0,0.0,0.0
4224,65.0,0.0,120.0,0.0,0.0
4225,58.0,64.0,60.0,0.0,0.0
4226,61.0,64.0,60.0,0.0,0.0
4227,58.0,0.0,60.0,0.0,0.0
4228,65.0,64.0,60.0,0.0,0.0
4229,70.0,0.0,60.0,0.0,0.0
4230,73.0,0.0,60.0,0.0,0.0
4231,63.0,64.0,120.0,0.0,0.0
4232,66.0,0.0,120.0,0.0,0.0
4233,71.0,64.0,60.0,0.0,0.0
4234,75.0,0.0,60.0,0.0,0.0
4235,51.0,0.0,60.0,0.0,0.0
4236,66.0,64.0,60.0,0.0,0.0
4237,63.0,0.0,60.0,0.0,0.0
4238,71.0,0.0,60.0,0.0,0.0
4239,51.0,0.0,120.0,0.0,0.0
4240,60.0,64.0,120.0,0.0,0.0
4241,65.0,0.0,120.0,0.0,0.0
4242,69.0,64.0,60.0,0.0,0.0
4243,77.0,0.0,60.0,0.0,0.0
4244,49.0,0.0,60.0,0.0,0.0
4245,70.0,0.0,60.0,0.0,0.0
4246,65.0,64.0,60.0,0.0,0.0
4247,61.0,0.0,60.0,0.0,0.0
4248,66.0,0.0,120.0,0.0,0.0
4249,51.0,64.0,120.0,0.0,0.0
4250,70.0,64.0,60.0,0.0,0.0
4251,60.0,0.0,120.0,0.0,0.0
4252,72.0,0.0,60.0,0.0,0.0
4253,53.0,0.0,60.0,0.0,0.0
4254,60.0,0.0,60.0,0.0,0.0
4255,65.0,0.0,60.0,0.0,0.0
4256,69.0,93.0,60.0,0.0,0.0
4257,70.0,5.0,120.0,0.0,0.0
4258,58.0,20.0,180.0,0.0,0.0
4259,61.0,30.0,90.0,0.0,0.0
4260,82.0,45.0,60.0,0.0,0.0
4261,81.0,65.0,60.0,0.0,0.0
4262,72.0,0.0,60.0,0.0,0.0
4263,82.0,0.0,120.0,0.0,0.0
4264,73.0,5.0,120.0,0.0,0.0
4265,58.0,60.0,60.0,0.0,0.0
4266,61.0,65.0,60.0,0.0,0.0
4267,58.0,0.0,60.0,0.0,0.0
4268,73.0,66.0,60.0,0.0,0.0
4269,78.0,65.0,330.0,0.0,0.0
4270,58.0,65.0,60.0,0.0,0.0
4271,61.0,65.0,60.0,0.0,0.0
4272,58.0,66.0,60.0,0.0,0.0
4273,73.0,0.0,60.0,0.0,0.0
4274,57.0,65.0,60.0,0.0,0.0
4275,72.0,64.0,510.0,0.0,0.0
4276,60.0,0.0,60.0,0.0,0.0
4277,78.0,65.0,60.0,0.0,0.0
4278,57.0,0.0,60.0,0.0,0.0
4279,57.0,65.0,60.0,0.0,0.0
4280,77.0,1.0,120.0,0.0,0.0
4281,60.0,65.0,60.0,0.0,0.0
4282,75.0,0.0,60.0,0.0,0.0
4283,57.0,65.0,60.0,0.0,0.0
4284,73.0,1.0,180.0,0.0,0.0
4285,58.0,66.0,60.0,0.0,0.0
4286,61.0,0.0,60.0,0.0,0.0
4287,72.0,65.0,60.0,0.0,0.0
4288,58.0,0.0,60.0,0.0,0.0
4289,73.0,0.0,120.0,0.0,0.0
4290,70.0,1.0,180.0,0.0,0.0
4291,54.0,65.0,60.0,0.0,0.0
4292,58.0,65.0,60.0,0.0,0.0
4293,54.0,65.0,60.0,0.0,0.0
4294,73.0,0.0,180.0,0.0,0.0
4295,66.0,1.0,180.0,0.0,0.0
4296,51.0,65.0,60.0,0.0,0.0
4297,54.0,65.0,60.0,0.0,0.0
4298,73.0,65.0,180.0,0.0,0.0
4299,51.0,65.0,60.0,0.0,0.0
4300,66.0,66.0,180.0,0.0,0.0
4301,51.0,65.0,60.0,0.0,0.0
4302,54.0,0.0,60.0,0.0,0.0
4303,71.0,1.0,180.0,0.0,0.0
4304,51.0,0.0,60.0,0.0,0.0
4305,65.0,65.0,180.0,0.0,0.0
4306,50.0,64.0,60.0,0.0,0.0
4307,53.0,65.0,60.0,0.0,0.0
4308,71.0,1.0,180.0,0.0,0.0
4309,50.0,0.0,60.0,0.0,0.0
4310,65.0,1.0,180.0,0.0,0.0
4311,49.0,65.0,60.0,0.0,0.0
4312,53.0,64.0,60.0,0.0,0.0
4313,70.0,1.0,180.0,0.0,0.0
4314,49.0,65.0,60.0,0.0,0.0
4315,63.0,1.0,180.0,0.0,0.0
4316,48.0,65.0,60.0,0.0,0.0
4317,51.0,64.0,60.0,0.0,0.0
4318,48.0,0.0,60.0,0.0,0.0
4319,70.0,65.0,60.0,0.0,0.0
4320,48.0,65.0,60.0,0.0,0.0
4321,69.0,0.0,120.0,0.0,0.0
4322,63.0,1.0,180.0,0.0,0.0
4323,51.0,65.0,60.0,0.0,0.0
4324,48.0,68.0,60.0,0.0,0.0
4325,75.0,5.0,180.0,0.0,0.0
4326,46.0,62.0,60.0,0.0,0.0
4327,65.0,0.0,210.0,0.0,0.0
4328,70.0,0.0,210.0,0.0,0.0
4329,49.0,67.0,60.0,0.0,0.0
4330,75.0,0.0,210.0,0.0,0.0
4331,46.0,67.0,60.0,0.0,0.0
4332,46.0,67.0,60.0,0.0,0.0
4333,65.0,0.0,210.0,0.0,0.0
4334,70.0,0.0,210.0,0.0,0.0
4335,49.0,67.0,60.0,0.0,0.0
4336,46.0,68.0,60.0,0.0,0.0
4337,73.0,1.0,210.0,0.0,0.0
4338,53.0,66.0,60.0,0.0,0.0
4339,68.0,67.0,210.0,0.0,0.0
4340,65.0,0.0,210.0,0.0,0.0
4341,56.0,67.0,60.0,0.0,0.0
4342,53.0,0.0,60.0,0.0,0.0
4343,74.0,0.0,210.0,0.0,0.0
4344,68.0,0.0,210.0,0.0,0.0
4345,65.0,1.0,210.0,0.0,0.0
4346,53.0,67.0,60.0,0.0,0.0
4347,56.0,67.0,60.0,0.0,0.0
4348,53.0,67.0,60.0,0.0,0.0
4349,80.0,0.0,210.0,0.0,0.0
4350,70.0,0.0,210.0,0.0,0.0
4351,54.0,67.0,60.0,0.0,0.0
4352,74.0,67.0,210.0,0.0,0.0
4353,58.0,67.0,60.0,0.0,0.0
4354,80.0,1.0,210.0,0.0,0.0
4355,54.0,0.0,60.0,0.0,0.0
4356,54.0,67.0,60.0,0.0,0.0
4357,70.0,0.0,210.0,0.0,0.0
4358,75.0,1.0,210.0,0.0,0.0
4359,58.0,66.0,60.0,0.0,0.0
4360,54.0,67.0,60.0,0.0,0.0
4361,78.0,67.0,210.0,0.0,0.0
4362,56.0,67.0,60.0,0.0,0.0
4363,71.0,68.0,210.0,0.0,0.0
4364,75.0,0.0,210.0,0.0,0.0
4365,59.0,0.0,60.0,0.0,0.0
4366,56.0,0.0,60.0,0.0,0.0
4367,83.0,1.0,210.0,0.0,0.0
4368,56.0,66.0,60.0,0.0,0.0
4369,71.0,0.0,180.0,0.0,0.0
4370,76.0,24.0,180.0,0.0,0.0
4371,59.0,47.0,60.0,0.0,0.0
4372,56.0,23.0,60.0,0.0,0.0
4373,83.0,53.0,90.0,0.0,0.0
4374,65.0,0.0,210.0,0.0,0.0
4375,71.0,4.0,210.0,0.0,0.0
4376,56.0,71.0,60.0,0.0,0.0
4377,59.0,63.0,60.0,0.0,0.0
4378,74.0,1.0,210.0,0.0,0.0
4379,56.0,68.0,60.0,0.0,0.0
4380,71.0,0.0,210.0,0.0,0.0
4381,65.0,67.0,210.0,0.0,0.0
4382,56.0,66.0,60.0,0.0,0.0
4383,59.0,67.0,60.0,0.0,0.0
4384,74.0,67.0,210.0,0.0,0.0
4385,56.0,0.0,60.0,0.0,0.0
4386,54.0,67.0,60.0,0.0,0.0
4387,66.0,1.0,210.0,0.0,0.0
4388,70.0,0.0,210.0,0.0,0.0
4389,58.0,0.0,60.0,0.0,0.0
4390,54.0,67.0,60.0,0.0,0.0
4391,75.0,0.0,210.0,0.0,0.0
4392,71.0,0.0,210.0,0.0,0.0
4393,65.0,67.0,210.0,0.0,0.0
4394,56.0,67.0,60.0,0.0,0.0
4395,59.0,67.0,60.0,0.0,0.0
4396,75.0,1.0,210.0,0.0,0.0
4397,56.0,0.0,60.0,0.0,0.0
4398,58.0,67.0,60.0,0.0,0.0
4399,68.0,1.0,210.0,0.0,0.0
4400,70.0,0.0,210.0,0.0,0.0
4401,65.0,0.0,210.0,0.0,0.0
4402,56.0,66.0,60.0,0.0,0.0
4403,74.0,67.0,120.0,0.0,0.0
4404,58.0,67.0,60.0,0.0,0.0
4405,70.0,73.0,120.0,0.0,0.0
4406,66.0,0.0,120.0,0.0,0.0
4407,51.0,39.0,210.0,0.0,0.0
4408,75.0,120.0,180.0,0.0,0.0
4409,66.0,7.0,60.0,0.0,0.0
4410,70.0,0.0,60.0,0.0,0.0
4411,70.0,0.0,150.0,0.0,0.0
4412,63.0,80.0,150.0,0.0,0.0
4413,66.0,0.0,150.0,0.0,0.0
4414,75.0,71.0,210.0,0.0,0.0
4415,61.0,69.0,60.0,0.0,0.0
4416,70.0,0.0,60.0,0.0,0.0
4417,66.0,0.0,60.0,0.0,0.0
4418,68.0,71.0,150.0,0.0,0.0
4419,71.0,0.0,150.0,0.0,0.0
4420,59.0,0.0,150.0,0.0,0.0
4421,75.0,70.0,210.0,0.0,0.0
4422,66.0,70.0,60.0,0.0,0.0
4423,56.0,0.0,60.0,0.0,0.0
4424,71.0,0.0,60.0,0.0,0.0
4425,71.0,0.0,150.0,0.0,0.0
4426,65.0,1.0,150.0,0.0,0.0
4427,56.0,0.0,150.0,0.0,0.0
4428,75.0,70.0,60.0,0.0,0.0
4429,74.0,77.0,150.0,0.0,0.0
4430,65.0,70.0,60.0,0.0,0.0
4431,70.0,0.0,60.0,0.0,0.0
4432,58.0,0.0,60.0,0.0,0.0
4433,66.0,0.0,150.0,0.0,0.0
4434,70.0,4.0,150.0,0.0,0.0
4435,51.0,64.0,240.0,0.0,0.0
4436,75.0,98.0,90.0,0.0,0.0
4437,74.0,0.0,150.0,0.0,0.0
4438,68.0,85.0,150.0,0.0,0.0
4439,65.0,0.0,150.0,0.0,0.0
4440,51.0,0.0,150.0,0.0,0.0
4441,66.0,71.0,150.0,0.0,0.0
4442,70.0,0.0,150.0,0.0,0.0
4443,75.0,71.0,210.0,0.0,0.0
4444,70.0,70.0,60.0,0.0,0.0
4445,66.0,0.0,60.0,0.0,0.0
4446,53.0,0.0,60.0,0.0,0.0
4447,66.0,0.0,150.0,0.0,0.0
4448,70.0,0.0,150.0,0.0,0.0
4449,54.0,70.0,150.0,0.0,0.0
4450,75.0,71.0,210.0,0.0,0.0
4451,66.0,0.0,60.0,0.0,0.0
4452,56.0,0.0,60.0,0.0,0.0
4453,70.0,70.0,60.0,0.0,0.0
4454,68.0,0.0,150.0,0.0,0.0
4455,65.0,0.0,150.0,0.0,0.0
4456,58.0,71.0,150.0,0.0,0.0
4457,74.0,71.0,210.0,0.0,0.0
4458,65.0,0.0,60.0,0.0,0.0
4459,53.0,0.0,60.0,0.0,0.0
4460,68.0,69.0,60.0,0.0,0.0
4461,68.0,71.0,150.0,0.0,0.0
4462,65.0,0.0,150.0,0.0,0.0
4463,46.0,0.0,150.0,0.0,0.0
4464,74.0,71.0,210.0,0.0,0.0
4465,68.0,69.0,60.0,0.0,0.0
4466,58.0,0.0,60.0,0.0,0.0
4467,65.0,0.0,60.0,0.0,0.0
4468,63.0,71.0,150.0,0.0,0.0
4469,70.0,0.0,150.0,0.0,0.0
4470,66.0,0.0,150.0,0.0,0.0
4471,51.0,0.0,150.0,0.0,0.0
4472,75.0,70.0,210.0,0.0,0.0
4473,63.0,70.0,60.0,0.0,0.0
4474,70.0,0.0,60.0,0.0,0.0
4475,66.0,0.0,60.0,0.0,0.0
4476,53.0,0.0,60.0,0.0,0.0
4477,63.0,0.0,150.0,0.0,0.0
4478,54.0,0.0,150.0,0.0,0.0
4479,66.0,71.0,150.0,0.0,0.0
4480,70.0,0.0,150.0,0.0,0.0
4481,75.0,71.0,210.0,0.0,0.0
4482,63.0,0.0,60.0,0.0,0.0
4483,70.0,0.0,60.0,0.0,0.0
4484,66.0,70.0,60.0,0.0,0.0
4485,56.0,0.0,60.0,0.0,0.0
4486,70.0,0.0,150.0,0.0,0.0
4487,65.0,70.0,150.0,0.0,0.0
4488,58.0,0.0,150.0,0.0,0.0
4489,74.0,0.0,150.0,0.0,0.0
4490,70.0,0.0,60.0,0.0,0.0
4491,65.0,94.0,60.0,0.0,0.0
4492,53.0,0.0,60.0,0.0,0.0
4493,70.0,118.0,210.0,0.0,0.0
4494,46.0,109.0,90.0,0.0,0.0
4495,65.0,0.0,210.0,0.0,0.0
4496,74.0,0.0,210.0,0.0,0.0
4497,53.0,21.0,90.0,0.0,0.0
4498,58.0,308.0,150.0,0.0,0.0
4499,69.0,0.0,120.0,0.0,0.0
4500,73.0,0.0,120.0,0.0,0.0
4501,54.0,66.0,120.0,0.0,0.0
4502,78.0,66.0,180.0,0.0,0.0
4503,69.0,66.0,60.0,0.0,0.0
4504,73.0,0.0,60.0,0.0,0.0
4505,56.0,0.0,60.0,0.0,0.0
4506,73.0,0.0,120.0,0.0,0.0
4507,69.0,66.0,120.0,0.0,0.0
4508,57.0,0.0,120.0,0.0,0.0
4509,78.0,66.0,180.0,0.0,0.0
4510,73.0,66.0,60.0,0.0,0.0
4511,69.0,0.0,60.0,0.0,0.0
4512,59.0,0.0,60.0,0.0,0.0
4513,71.0,66.0,120.0,0.0,0.0
4514,61.0,0.0,120.0,0.0,0.0
4515,68.0,0.0,120.0,0.0,0.0
4516,77.0,65.0,180.0,0.0,0.0
4517,71.0,66.0,60.0,0.0,0.0
4518,68.0,0.0,60.0,0.0,0.0
4519,56.0,0.0,60.0,0.0,0.0
4520,68.0,66.0,120.0,0.0,0.0
4521,71.0,0.0,120.0,0.0,0.0
4522,49.0,0.0,120.0,0.0,0.0
4523,77.0,66.0,180.0,0.0,0.0
4524,68.0,0.0,60.0,0.0,0.0
4525,61.0,0.0,60.0,0.0,0.0
4526,71.0,66.0,60.0,0.0,0.0
4527,54.0,0.0,120.0,0.0,0.0
4528,69.0,66.0,120.0,0.0,0.0
4529,73.0,0.0,120.0,0.0,0.0
4530,66.0,0.0,120.0,0.0,0.0
4531,78.0,66.0,180.0,0.0,0.0
4532,66.0,0.0,60.0,0.0,0.0
4533,69.0,0.0,60.0,0.0,0.0
4534,73.0,66.0,60.0,0.0,0.0
4535,56.0,0.0,60.0,0.0,0.0
4536,66.0,0.0,120.0,0.0,0.0
4537,69.0,66.0,120.0,0.0,0.0
4538,73.0,0.0,120.0,0.0,0.0
4539,57.0,0.0,120.0,0.0,0.0
4540,78.0,66.0,180.0,0.0,0.0
4541,59.0,0.0,60.0,0.0,0.0
4542,69.0,66.0,60.0,0.0,0.0
4543,66.0,0.0,60.0,0.0,0.0
4544,73.0,0.0,60.0,0.0,0.0
4545,75.0,0.0,120.0,0.0,0.0
4546,66.0,0.0,120.0,0.0,0.0
4547,69.0,0.0,120.0,0.0,0.0
4548,61.0,61.0,120.0,0.0,0.0
4549,72.0,0.0,120.0,0.0,0.0
4550,78.0,5.0,120.0,0.0,0.0
4551,69.0,0.0,60.0,0.0,0.0
4552,66.0,485.0,60.0,0.0,0.0
4553,49.0,0.0,60.0,0.0,0.0
4554,75.0,0.0,60.0,0.0,0.0
4555,72.0,0.0,60.0,0.0,0.0
4556,77.0,0.0,480.0,0.0,0.0
4557,73.0,0.0,480.0,0.0,0.0
4558,68.0,0.0,480.0,0.0,0.0
4559,49.0,142.0,480.0,0.0,0.0
4560,78.0,9.0,120.0,0.0,0.0
4561,81.0,0.0,120.0,0.0,0.0
4562,57.0,64.0,60.0,0.0,0.0
4563,73.0,3.0,120.0,0.0,0.0
4564,65.0,64.0,60.0,0.0,0.0
4565,81.0,70.0,60.0,0.0,0.0
4566,78.0,0.0,60.0,0.0,0.0
4567,66.0,0.0,60.0,0.0,0.0
4568,78.0,6.0,120.0,0.0,0.0
4569,81.0,0.0,120.0,0.0,0.0
4570,59.0,64.0,60.0,0.0,0.0
4571,65.0,70.0,60.0,0.0,0.0
4572,73.0,18.0,180.0,0.0,0.0
4573,66.0,0.0,60.0,0.0,0.0
4574,78.0,58.0,60.0,0.0,0.0
4575,81.0,0.0,60.0,0.0,0.0
4576,81.0,0.0,150.0,0.0,0.0
4577,78.0,70.0,150.0,0.0,0.0
4578,61.0,70.0,60.0,0.0,0.0
4579,73.0,1.0,210.0,0.0,0.0
4580,65.0,0.0,60.0,0.0,0.0
4581,78.0,0.0,60.0,0.0,0.0
4582,81.0,70.0,60.0,0.0,0.0
4583,66.0,0.0,60.0,0.0,0.0
4584,78.0,71.0,150.0,0.0,0.0
4585,81.0,0.0,150.0,0.0,0.0
4586,62.0,70.0,60.0,0.0,0.0
4587,73.0,1.0,210.0,0.0,0.0
4588,65.0,0.0,60.0,0.0,0.0
4589,81.0,0.0,60.0,0.0,0.0
4590,78.0,0.0,60.0,0.0,0.0
4591,66.0,69.0,60.0,0.0,0.0
4592,78.0,0.0,150.0,0.0,0.0
4593,81.0,71.0,150.0,0.0,0.0
4594,57.0,70.0,60.0,0.0,0.0
4595,73.0,1.0,210.0,0.0,0.0
4596,65.0,0.0,60.0,0.0,0.0
4597,66.0,0.0,60.0,0.0,0.0
4598,81.0,0.0,60.0,0.0,0.0
4599,78.0,69.0,60.0,0.0,0.0
4600,81.0,1.0,150.0,0.0,0.0
4601,78.0,0.0,150.0,0.0,0.0
4602,59.0,70.0,60.0,0.0,0.0
4603,65.0,70.0,60.0,0.0,0.0
4604,73.0,70.0,210.0,0.0,0.0
4605,81.0,0.0,60.0,0.0,0.0
4606,78.0,0.0,60.0,0.0,0.0
4607,66.0,70.0,60.0,0.0,0.0
4608,81.0,0.0,150.0,0.0,0.0
4609,61.0,0.0,150.0,0.0,0.0
4610,78.0,1.0,150.0,0.0,0.0
4611,73.0,70.0,60.0,0.0,0.0
4612,49.0,0.0,60.0,0.0,0.0
4613,77.0,0.0,60.0,0.0,0.0
4614,80.0,0.0,60.0,0.0,0.0
4615,71.0,94.0,60.0,0.0,0.0
4616,78.0,2.0,210.0,0.0,0.0
4617,73.0,0.0,210.0,0.0,0.0
4618,69.0,0.0,210.0,0.0,0.0
4619,54.0,1.0,90.0,0.0,0.0
4620,49.0,39.0,60.0,0.0,0.0
4621,42.0,26.0,90.0,0.0,0.0
4622,49.0,10.0,30.0,0.0,0.0
4623,54.0,34.0,30.0,0.0,0.0
4624,56.0,73.0,30.0,0.0,0.0
4625,78.0,16.0,90.0,0.0,0.0
4626,57.0,20.0,60.0,0.0,0.0
4627,73.0,0.0,30.0,0.0,0.0
4628,66.0,36.0,30.0,0.0,0.0
4629,54.0,1.0,60.0,0.0,0.0
4630,73.0,36.0,30.0,0.0,0.0
4631,78.0,36.0,30.0,0.0,0.0
4632,57.0,73.0,60.0,0.0,0.0
4633,73.0,0.0,30.0,0.0,0.0
4634,74.0,17.0,90.0,0.0,0.0
4635,59.0,20.0,60.0,0.0,0.0
4636,71.0,0.0,30.0,0.0,0.0
4637,47.0,36.0,60.0,0.0,0.0
4638,66.0,36.0,30.0,0.0,0.0
4639,71.0,0.0,30.0,0.0,0.0
4640,59.0,1.0,60.0,0.0,0.0
4641,74.0,36.0,30.0,0.0,0.0
4642,71.0,72.0,30.0,0.0,0.0
4643,73.0,17.0,90.0,0.0,0.0
4644,61.0,20.0,60.0,0.0,0.0
4645,68.0,0.0,30.0,0.0,0.0
4646,49.0,0.0,60.0,0.0,0.0
4647,65.0,36.0,30.0,0.0,0.0
4648,68.0,36.0,30.0,0.0,0.0
4649,73.0,36.0,30.0,0.0,0.0
4650,61.0,1.0,60.0,0.0,0.0
4651,68.0,72.0,30.0,0.0,0.0
4652,69.0,17.0,90.0,0.0,0.0
4653,54.0,1.0,60.0,0.0,0.0
4654,66.0,19.0,30.0,0.0,0.0
4655,61.0,36.0,30.0,0.0,0.0
4656,57.0,37.0,60.0,0.0,0.0
4657,66.0,0.0,30.0,0.0,0.0
4658,69.0,36.0,30.0,0.0,0.0
4659,50.0,0.0,60.0,0.0,0.0
4660,66.0,62.0,30.0,0.0,0.0
4661,73.0,10.0,60.0,0.0,0.0
4662,45.0,1.0,60.0,0.0,0.0
4663,69.0,36.0,30.0,0.0,0.0
4664,66.0,36.0,30.0,0.0,0.0
4665,57.0,37.0,60.0,0.0,0.0
4666,73.0,0.0,30.0,0.0,0.0
4667,78.0,36.0,30.0,0.0,0.0
4668,54.0,63.0,60.0,0.0,0.0
4669,73.0,0.0,30.0,0.0,0.0
4670,74.0,10.0,60.0,0.0,0.0
4671,59.0,0.0,60.0,0.0,0.0
4672,71.0,36.0,30.0,0.0,0.0
4673,66.0,36.0,30.0,0.0,0.0
4674,47.0,1.0,60.0,0.0,0.0
4675,71.0,36.0,30.0,0.0,0.0
4676,74.0,36.0,30.0,0.0,0.0
4677,59.0,63.0,60.0,0.0,0.0
4678,71.0,0.0,30.0,0.0,0.0
4679,75.0,10.0,60.0,0.0,0.0
4680,60.0,36.0,60.0,0.0,0.0
4681,72.0,0.0,30.0,0.0,0.0
4682,68.0,36.0,30.0,0.0,0.0
4683,63.0,1.0,60.0,0.0,0.0
4684,75.0,36.0,30.0,0.0,0.0
4685,80.0,36.0,30.0,0.0,0.0
4686,60.0,1.0,60.0,0.0,0.0
4687,75.0,62.0,30.0,0.0,0.0
4688,77.0,10.0,60.0,0.0,0.0
4689,61.0,0.0,60.0,0.0,0.0
4690,73.0,37.0,30.0,0.0,0.0
4691,68.0,36.0,30.0,0.0,0.0
4692,49.0,0.0,60.0,0.0,0.0
4693,73.0,36.0,30.0,0.0,0.0
4694,77.0,36.0,30.0,0.0,0.0
4695,61.0,22.0,60.0,0.0,0.0
4696,73.0,59.0,60.0,0.0,0.0
4697,65.0,20.0,60.0,0.0,0.0
4698,80.0,17.0,90.0,0.0,0.0
4699,77.0,0.0,30.0,0.0,0.0
4700,68.0,37.0,60.0,0.0,0.0
4701,73.0,36.0,30.0,0.0,0.0
4702,80.0,0.0,30.0,0.0,0.0
4703,85.0,36.0,30.0,0.0,0.0
4704,65.0,72.0,60.0,0.0,0.0
4705,80.0,0.0,30.0,0.0,0.0
4706,82.0,23.0,120.0,0.0,0.0
4707,66.0,1.0,60.0,0.0,0.0
4708,78.0,36.0,30.0,0.0,0.0
4709,54.0,37.0,60.0,0.0,0.0
4710,73.0,13.0,30.0,0.0,0.0
4711,78.0,0.0,30.0,0.0,0.0
4712,65.0,72.0,60.0,0.0,0.0
4713,82.0,36.0,30.0,0.0,0.0
4714,73.0,0.0,30.0,0.0,0.0
4715,78.0,23.0,120.0,0.0,0.0
4716,63.0,1.0,60.0,0.0,0.0
4717,75.0,36.0,30.0,0.0,0.0
4718,51.0,1.0,60.0,0.0,0.0
4719,70.0,13.0,30.0,0.0,0.0
4720,75.0,36.0,30.0,0.0,0.0
4721,78.0,36.0,30.0,0.0,0.0
4722,61.0,0.0,60.0,0.0,0.0
4723,70.0,73.0,30.0,0.0,0.0
4724,59.0,20.0,60.0,0.0,0.0
4725,75.0,16.0,90.0,0.0,0.0
4726,71.0,0.0,30.0,0.0,0.0
4727,66.0,36.0,30.0,0.0,0.0
4728,47.0,1.0,60.0,0.0,0.0
4729,71.0,36.0,30.0,0.0,0.0
4730,75.0,36.0,30.0,0.0,0.0
4731,58.0,73.0,60.0,0.0,0.0
4732,66.0,0.0,30.0,0.0,0.0
4733,56.0,20.0,60.0,0.0,0.0
4734,77.0,17.0,90.0,0.0,0.0
4735,71.0,0.0,30.0,0.0,0.0
4736,61.0,36.0,60.0,0.0,0.0
4737,68.0,36.0,30.0,0.0,0.0
4738,71.0,0.0,30.0,0.0,0.0
4739,77.0,36.0,30.0,0.0,0.0
4740,59.0,1.0,60.0,0.0,0.0
4741,68.0,72.0,30.0,0.0,0.0
4742,58.0,20.0,60.0,0.0,0.0
4743,78.0,17.0,90.0,0.0,0.0
4744,73.0,0.0,30.0,0.0,0.0
4745,70.0,36.0,30.0,0.0,0.0
4746,54.0,0.0,60.0,0.0,0.0
4747,73.0,36.0,30.0,0.0,0.0
4748,78.0,36.0,30.0,0.0,0.0
4749,58.0,1.0,60.0,0.0,0.0
4750,70.0,71.0,30.0,0.0,0.0
4751,61.0,1.0,930.0,0.0,0.0
4752,77.0,7.0,90.0,0.0,0.0
4753,73.0,26.0,30.0,0.0,0.0
4754,68.0,33.0,30.0,0.0,0.0
4755,73.0,33.0,30.0,0.0,0.0
4756,77.0,33.0,30.0,0.0,0.0
4757,73.0,66.0,30.0,0.0,0.0
4758,78.0,5.0,90.0,0.0,0.0
4759,73.0,28.0,30.0,0.0,0.0
4760,70.0,34.0,30.0,0.0,0.0
4761,73.0,32.0,30.0,0.0,0.0
4762,78.0,33.0,30.0,0.0,0.0
4763,73.0,66.0,30.0,0.0,0.0
4764,80.0,5.0,90.0,0.0,0.0
4765,77.0,28.0,30.0,0.0,0.0
4766,73.0,34.0,30.0,0.0,0.0
4767,77.0,33.0,30.0,0.0,0.0
4768,80.0,33.0,30.0,0.0,0.0
4769,77.0,66.0,30.0,0.0,0.0
4770,82.0,6.0,90.0,0.0,0.0
4771,78.0,27.0,30.0,0.0,0.0
4772,73.0,33.0,30.0,0.0,0.0
4773,78.0,63.0,30.0,0.0,0.0
4774,82.0,41.0,60.0,0.0,0.0
4775,78.0,45.0,40.0,0.0,0.0
4776,73.0,23.0,40.0,0.0,0.0
4777,78.0,32.0,30.0,0.0,0.0
4778,73.0,51.0,30.0,0.0,0.0
4779,70.0,16.0,40.0,0.0,0.0
4780,73.0,33.0,30.0,0.0,0.0
4781,70.0,50.0,30.0,0.0,0.0
4782,66.0,16.0,40.0,0.0,0.0
4783,70.0,33.0,30.0,0.0,0.0
4784,66.0,50.0,30.0,0.0,0.0
4785,61.0,16.0,40.0,0.0,0.0
4786,66.0,33.0,30.0,0.0,0.0
4787,61.0,50.0,30.0,0.0,0.0
4788,58.0,16.0,40.0,0.0,0.0
4789,61.0,33.0,30.0,0.0,0.0
4790,58.0,51.0,30.0,0.0,0.0
4791,54.0,15.0,40.0,0.0,0.0
4792,58.0,33.0,30.0,0.0,0.0
4793,54.0,52.0,30.0,0.0,0.0
4794,51.0,14.0,40.0,0.0,0.0
4795,54.0,32.0,30.0,0.0,0.0
4796,51.0,65.0,30.0,0.0,0.0
4797,54.0,34.0,60.0,0.0,0.0
4798,58.0,34.0,60.0,0.0,0.0
4799,63.0,740.0,60.0,0.0,0.0
4800,48.0,378.0,960.0,0.0,0.0
4801,56.0,5.0,390.0,0.0,0.0
4802,75.0,96.0,180.0,0.0,0.0
4803,68.0,1.0,390.0,0.0,0.0
4804,51.0,0.0,390.0,0.0,0.0
4805,77.0,95.0,90.0,0.0,0.0
4806,78.0,0.0,90.0,0.0,0.0
4807,65.0,1.0,390.0,0.0,0.0
4808,49.0,2.0,1530.0,0.0,0.0
4809,68.0,192.0,180.0,0.0,0.0
4810,59.0,0.0,180.0,0.0,0.0
4811,66.0,190.0,570.0,0.0,0.0
4812,70.0,192.0,180.0,0.0,0.0
4813,58.0,0.0,390.0,0.0,0.0
4814,71.0,194.0,180.0,0.0,0.0
4815,56.0,8.0,780.0,0.0,0.0
4816,73.0,187.0,570.0,0.0,0.0
4817,66.0,194.0,180.0,0.0,0.0
4818,65.0,1.0,390.0,0.0,0.0
4819,71.0,184.0,180.0,0.0,0.0
4820,54.0,0.0,1800.0,0.0,0.0
4821,70.0,2.0,390.0,0.0,0.0
4822,42.0,24.0,1800.0,0.0,0.0
4823,65.0,191.0,90.0,0.0,0.0
4824,66.0,96.0,180.0,0.0,0.0
4825,73.0,96.0,180.0,0.0,0.0
4826,70.0,96.0,180.0,0.0,0.0
4827,78.0,95.0,180.0,0.0,0.0
4828,73.0,44.0,180.0,0.0,0.0
4829,82.0,1.0,90.0,0.0,0.0
4830,78.0,35.0,40.0,0.0,0.0
4831,77.0,955.0,40.0,0.0,0.0
4832,78.0,0.0,990.0,0.0,0.0
