,note,step,duration,channel,velocity
0,50.0,1024.0,600.0,4.0,0.0
1,50.0,0.0,600.0,8.0,0.0
2,50.0,0.0,600.0,15.0,0.0
3,52.0,0.0,600.0,8.0,0.0
4,52.0,0.0,600.0,4.0,0.0
5,52.0,1024.0,600.0,15.0,0.0
6,53.0,0.0,600.0,15.0,0.0
7,53.0,1024.0,600.0,4.0,0.0
8,69.0,614.0,2040.0,10.0,0.0
9,53.0,0.0,600.0,8.0,0.0
10,50.0,0.0,600.0,8.0,0.0
11,50.0,0.0,600.0,4.0,0.0
12,50.0,410.0,600.0,15.0,0.0
13,70.0,614.0,3060.0,10.0,0.0
14,55.0,0.0,600.0,8.0,0.0
15,55.0,1024.0,600.0,15.0,0.0
16,55.0,0.0,600.0,4.0,0.0
17,50.0,0.0,600.0,15.0,0.0
18,50.0,1024.0,600.0,4.0,0.0
19,50.0,0.0,600.0,8.0,0.0
20,46.0,0.0,600.0,15.0,0.0
21,62.0,614.0,2040.0,11.0,0.0
22,46.0,0.0,600.0,4.0,0.0
23,46.0,410.0,600.0,8.0,0.0
24,70.0,0.0,1020.0,10.0,0.0
25,43.0,410.0,600.0,4.0,0.0
26,43.0,0.0,600.0,8.0,0.0
27,43.0,0.0,600.0,15.0,0.0
28,50.0,410.0,600.0,4.0,0.0
29,50.0,0.0,600.0,15.0,0.0
30,69.0,614.0,1020.0,10.0,0.0
31,50.0,0.0,600.0,8.0,0.0
32,48.0,410.0,600.0,8.0,0.0
33,62.0,614.0,1020.0,10.0,0.0
34,48.0,0.0,600.0,15.0,0.0
35,48.0,0.0,600.0,4.0,0.0
36,46.0,0.0,600.0,8.0,0.0
37,74.0,0.0,4110.0,10.0,0.0
38,46.0,410.0,600.0,4.0,0.0
39,46.0,0.0,600.0,15.0,0.0
40,45.0,410.0,600.0,4.0,0.0
41,45.0,0.0,600.0,15.0,0.0
42,45.0,0.0,600.0,8.0,0.0
43,65.0,614.0,15.0,11.0,0.0
44,43.0,0.0,600.0,8.0,0.0
45,43.0,410.0,600.0,15.0,0.0
46,43.0,0.0,600.0,4.0,0.0
47,64.0,512.0,1020.0,11.0,0.0
48,41.0,512.0,510.0,15.0,0.0
49,57.0,0.0,1020.0,11.0,0.0
50,41.0,0.0,510.0,8.0,0.0
51,41.0,0.0,510.0,4.0,0.0
52,43.0,0.0,510.0,4.0,0.0
53,43.0,614.0,510.0,15.0,0.0
54,43.0,0.0,510.0,8.0,0.0
55,45.0,1024.0,600.0,8.0,0.0
56,57.0,0.0,2040.0,12.0,0.0
57,69.0,0.0,4110.0,11.0,0.0
58,45.0,0.0,600.0,15.0,0.0
59,45.0,0.0,600.0,4.0,0.0
60,73.0,614.0,2040.0,10.0,0.0
61,57.0,0.0,600.0,15.0,0.0
62,57.0,410.0,600.0,4.0,0.0
63,57.0,0.0,600.0,8.0,0.0
64,58.0,0.0,600.0,15.0,0.0
65,58.0,0.0,600.0,4.0,0.0
66,58.0,922.0,600.0,8.0,0.0
67,74.0,205.0,1830.0,10.0,0.0
68,46.0,0.0,510.0,8.0,0.0
69,46.0,0.0,510.0,4.0,0.0
70,46.0,307.0,510.0,15.0,0.0
71,45.0,0.0,510.0,4.0,0.0
72,45.0,614.0,510.0,15.0,0.0
73,45.0,0.0,510.0,8.0,0.0
74,46.0,410.0,600.0,8.0,0.0
75,50.0,0.0,2040.0,13.0,0.0
76,46.0,0.0,600.0,15.0,0.0
77,46.0,0.0,600.0,4.0,0.0
78,67.0,614.0,2040.0,11.0,0.0
79,62.0,0.0,3060.0,10.0,0.0
80,43.0,0.0,600.0,4.0,0.0
81,43.0,410.0,600.0,15.0,0.0
82,58.0,614.0,15.0,12.0,0.0
83,43.0,0.0,600.0,8.0,0.0
84,57.0,614.0,1020.0,12.0,0.0
85,50.0,0.0,600.0,8.0,0.0
86,69.0,205.0,1830.0,11.0,0.0
87,50.0,410.0,600.0,15.0,0.0
88,50.0,0.0,600.0,4.0,0.0
89,49.0,0.0,600.0,4.0,0.0
90,50.0,0.0,1020.0,12.0,0.0
91,64.0,614.0,1020.0,10.0,0.0
92,49.0,0.0,600.0,8.0,0.0
93,49.0,205.0,600.0,15.0,0.0
94,50.0,410.0,600.0,8.0,0.0
95,50.0,0.0,600.0,4.0,0.0
96,65.0,0.0,1020.0,10.0,0.0
97,62.0,0.0,4110.0,12.0,0.0
98,50.0,0.0,600.0,15.0,0.0
99,57.0,0.0,3060.0,11.0,0.0
100,62.0,0.0,1020.0,10.0,0.0
101,53.0,0.0,600.0,4.0,0.0
102,53.0,614.0,15.0,13.0,0.0
103,53.0,0.0,600.0,8.0,0.0
104,53.0,410.0,600.0,15.0,0.0
105,67.0,0.0,4110.0,10.0,0.0
106,52.0,0.0,600.0,15.0,0.0
107,52.0,614.0,1020.0,13.0,0.0
108,52.0,0.0,600.0,4.0,0.0
109,52.0,410.0,600.0,8.0,0.0
110,50.0,0.0,600.0,15.0,0.0
111,50.0,0.0,600.0,8.0,0.0
112,50.0,410.0,600.0,4.0,0.0
113,59.0,614.0,1020.0,11.0,0.0
114,45.0,0.0,1020.0,13.0,0.0
115,45.0,0.0,2040.0,14.0,0.0
116,52.0,0.0,600.0,8.0,0.0
117,61.0,614.0,2040.0,12.0,0.0
118,52.0,0.0,600.0,15.0,0.0
119,61.0,614.0,1020.0,11.0,0.0
120,57.0,614.0,4110.0,13.0,0.0
121,52.0,410.0,600.0,4.0,0.0
122,45.0,0.0,600.0,8.0,0.0
123,57.0,0.0,1020.0,11.0,0.0
124,45.0,0.0,600.0,4.0,0.0
125,45.0,410.0,600.0,15.0,0.0
126,46.0,614.0,3060.0,14.0,0.0
127,65.0,205.0,1830.0,10.0,0.0
128,46.0,0.0,600.0,8.0,0.0
129,62.0,512.0,1020.0,11.0,0.0
130,62.0,307.0,2760.0,12.0,0.0
131,46.0,410.0,600.0,4.0,0.0
132,46.0,0.0,600.0,15.0,0.0
133,45.0,0.0,600.0,8.0,0.0
134,45.0,0.0,600.0,15.0,0.0
135,64.0,102.0,510.0,11.0,0.0
136,45.0,205.0,600.0,4.0,0.0
137,65.0,0.0,510.0,11.0,0.0
138,46.0,103.0,600.0,4.0,0.0
139,74.0,0.0,2040.0,10.0,0.0
140,55.0,0.0,2040.0,13.0,0.0
141,67.0,0.0,2040.0,11.0,0.0
142,46.0,0.0,600.0,15.0,0.0
143,46.0,0.0,600.0,8.0,0.0
144,34.0,0.0,600.0,8.0,0.0
145,64.0,0.0,1020.0,12.0,0.0
146,34.0,410.0,600.0,15.0,0.0
147,46.0,614.0,1020.0,14.0,0.0
148,34.0,0.0,600.0,4.0,0.0
149,57.0,205.0,1830.0,13.0,0.0
150,65.0,614.0,1020.0,12.0,0.0
151,33.0,0.0,600.0,15.0,0.0
152,60.0,0.0,2040.0,11.0,0.0
153,45.0,0.0,1020.0,14.0,0.0
154,33.0,0.0,600.0,4.0,0.0
155,33.0,410.0,600.0,8.0,0.0
156,72.0,0.0,1020.0,10.0,0.0
157,70.0,512.0,1020.0,10.0,0.0
158,38.0,0.0,1020.0,14.0,0.0
159,38.0,205.0,600.0,8.0,0.0
160,38.0,0.0,600.0,4.0,0.0
161,38.0,0.0,600.0,15.0,0.0
162,67.0,0.0,1020.0,12.0,0.0
163,57.0,614.0,2040.0,11.0,0.0
164,53.0,0.0,2040.0,13.0,0.0
165,50.0,0.0,510.0,15.0,0.0
166,50.0,0.0,4110.0,14.0,0.0
167,50.0,512.0,510.0,4.0,0.0
168,50.0,0.0,510.0,8.0,0.0
169,69.0,0.0,1020.0,12.0,0.0
170,72.0,0.0,1020.0,10.0,0.0
171,49.0,1024.0,510.0,15.0,0.0
172,49.0,0.0,510.0,8.0,0.0
173,49.0,0.0,510.0,4.0,0.0
174,50.0,410.0,1650.0,8.0,0.0
175,65.0,0.0,1020.0,12.0,0.0
176,50.0,0.0,1650.0,4.0,0.0
177,50.0,0.0,1650.0,15.0,0.0
178,69.0,0.0,1020.0,10.0,0.0
179,70.0,0.0,4110.0,10.0,0.0
180,67.0,614.0,1020.0,12.0,0.0
181,52.0,0.0,1020.0,13.0,0.0
182,64.0,512.0,3060.0,11.0,0.0
183,53.0,0.0,1020.0,13.0,0.0
184,50.0,0.0,600.0,15.0,0.0
185,50.0,0.0,600.0,8.0,0.0
186,50.0,410.0,600.0,4.0,0.0
187,65.0,614.0,1020.0,12.0,0.0
188,49.0,0.0,600.0,15.0,0.0
189,49.0,0.0,600.0,8.0,0.0
190,49.0,410.0,600.0,4.0,0.0
191,49.0,0.0,2040.0,14.0,0.0
192,55.0,0.0,1020.0,13.0,0.0
193,64.0,0.0,4110.0,12.0,0.0
194,47.0,0.0,510.0,15.0,0.0
195,47.0,512.0,510.0,8.0,0.0
196,67.0,614.0,1020.0,11.0,0.0
197,52.0,0.0,1020.0,13.0,0.0
198,47.0,0.0,510.0,4.0,0.0
199,49.0,0.0,510.0,15.0,0.0
200,49.0,0.0,510.0,8.0,0.0
201,49.0,0.0,510.0,4.0,0.0
202,53.0,614.0,1020.0,13.0,0.0
203,50.0,0.0,600.0,15.0,0.0
204,69.0,0.0,1830.0,10.0,0.0
205,50.0,308.0,600.0,4.0,0.0
206,50.0,0.0,600.0,8.0,0.0
207,65.0,205.0,1830.0,11.0,0.0
208,50.0,102.0,930.0,14.0,0.0
209,52.0,0.0,600.0,4.0,0.0
210,55.0,614.0,1020.0,13.0,0.0
211,52.0,0.0,600.0,15.0,0.0
212,52.0,205.0,600.0,8.0,0.0
213,52.0,0.0,1020.0,14.0,0.0
214,69.0,0.0,4110.0,10.0,0.0
215,65.0,0.0,4110.0,11.0,0.0
216,62.0,205.0,3900.0,12.0,0.0
217,53.0,0.0,600.0,8.0,0.0
218,53.0,0.0,600.0,15.0,0.0
219,57.0,0.0,1020.0,13.0,0.0
220,53.0,410.0,600.0,4.0,0.0
221,53.0,614.0,1020.0,14.0,0.0
222,50.0,0.0,600.0,15.0,0.0
223,50.0,0.0,600.0,8.0,0.0
224,50.0,410.0,600.0,4.0,0.0
225,53.0,0.0,1020.0,13.0,0.0
226,50.0,614.0,1020.0,14.0,0.0
227,55.0,0.0,600.0,8.0,0.0
228,55.0,0.0,600.0,4.0,0.0
229,58.0,512.0,2040.0,13.0,0.0
230,55.0,0.0,6150.0,14.0,0.0
231,55.0,1024.0,600.0,15.0,0.0
232,43.0,205.0,600.0,8.0,0.0
233,43.0,0.0,600.0,15.0,0.0
234,43.0,0.0,600.0,4.0,0.0
235,52.0,0.0,2040.0,13.0,0.0
236,70.0,0.0,2040.0,12.0,0.0
237,55.0,512.0,510.0,8.0,0.0
238,55.0,0.0,510.0,15.0,0.0
239,67.0,0.0,1020.0,10.0,0.0
240,55.0,0.0,510.0,4.0,0.0
241,64.0,0.0,1020.0,11.0,0.0
242,53.0,0.0,510.0,15.0,0.0
243,53.0,1024.0,510.0,4.0,0.0
244,53.0,0.0,510.0,8.0,0.0
245,55.0,410.0,1650.0,4.0,0.0
246,62.0,614.0,1020.0,11.0,0.0
247,55.0,0.0,1650.0,8.0,0.0
248,55.0,0.0,1650.0,15.0,0.0
249,65.0,0.0,1020.0,10.0,0.0
250,69.0,614.0,2040.0,12.0,0.0
251,64.0,512.0,1020.0,10.0,0.0
252,61.0,0.0,1020.0,11.0,0.0
253,57.0,0.0,2040.0,13.0,0.0
254,57.0,512.0,510.0,15.0,0.0
255,62.0,0.0,1020.0,11.0,0.0
256,57.0,0.0,510.0,8.0,0.0
257,65.0,0.0,1020.0,10.0,0.0
258,57.0,0.0,510.0,4.0,0.0
259,55.0,0.0,510.0,15.0,0.0
260,55.0,0.0,510.0,8.0,0.0
261,55.0,0.0,510.0,4.0,0.0
262,53.0,0.0,600.0,8.0,0.0
263,64.0,0.0,2040.0,11.0,0.0
264,57.0,614.0,4110.0,13.0,0.0
265,61.0,614.0,2040.0,12.0,0.0
266,53.0,614.0,1020.0,14.0,0.0
267,53.0,0.0,600.0,15.0,0.0
268,53.0,410.0,600.0,4.0,0.0
269,67.0,0.0,4110.0,10.0,0.0
270,52.0,0.0,1020.0,14.0,0.0
271,52.0,410.0,600.0,4.0,0.0
272,52.0,0.0,600.0,8.0,0.0
273,52.0,0.0,600.0,15.0,0.0
274,53.0,410.0,600.0,8.0,0.0
275,62.0,614.0,1020.0,12.0,0.0
276,57.0,0.0,2040.0,11.0,0.0
277,53.0,0.0,600.0,15.0,0.0
278,53.0,0.0,1020.0,14.0,0.0
279,53.0,0.0,600.0,4.0,0.0
280,52.0,410.0,600.0,4.0,0.0
281,52.0,0.0,600.0,15.0,0.0
282,52.0,0.0,1020.0,14.0,0.0
283,52.0,0.0,600.0,8.0,0.0
284,64.0,0.0,1020.0,12.0,0.0
285,50.0,614.0,1020.0,14.0,0.0
286,69.0,614.0,2040.0,11.0,0.0
287,50.0,410.0,600.0,15.0,0.0
288,65.0,0.0,4110.0,12.0,0.0
289,62.0,0.0,1020.0,13.0,0.0
290,65.0,0.0,1020.0,10.0,0.0
291,50.0,0.0,600.0,4.0,0.0
292,50.0,0.0,600.0,8.0,0.0
293,57.0,0.0,1020.0,13.0,0.0
294,48.0,410.0,600.0,15.0,0.0
295,69.0,0.0,1020.0,10.0,0.0
296,48.0,0.0,1020.0,14.0,0.0
297,48.0,0.0,600.0,4.0,0.0
298,48.0,0.0,600.0,8.0,0.0
299,53.0,614.0,1020.0,13.0,0.0
300,74.0,0.0,4110.0,10.0,0.0
301,46.0,0.0,4110.0,14.0,0.0
302,46.0,0.0,600.0,8.0,0.0
303,46.0,410.0,600.0,4.0,0.0
304,69.0,0.0,2040.0,11.0,0.0
305,46.0,0.0,600.0,15.0,0.0
306,50.0,1024.0,1020.0,13.0,0.0
307,45.0,0.0,600.0,8.0,0.0
308,45.0,410.0,600.0,15.0,0.0
309,45.0,0.0,600.0,4.0,0.0
310,64.0,1024.0,1020.0,12.0,0.0
311,68.0,0.0,2040.0,11.0,0.0
312,58.0,0.0,2040.0,13.0,0.0
313,46.0,0.0,2040.0,8.0,0.0
314,46.0,1843.0,2040.0,15.0,0.0
315,46.0,0.0,2040.0,4.0,0.0
316,62.0,0.0,1020.0,12.0,0.0
317,69.0,205.0,1830.0,11.0,0.0
318,45.0,0.0,1830.0,14.0,0.0
319,45.0,614.0,2040.0,8.0,0.0
320,64.0,0.0,1830.0,12.0,0.0
321,73.0,0.0,1830.0,10.0,0.0
322,45.0,0.0,2040.0,4.0,0.0
323,52.0,0.0,1830.0,13.0,0.0
324,45.0,0.0,2040.0,15.0,0.0
325,57.0,1024.0,600.0,13.0,0.0
326,45.0,0.0,600.0,15.0,0.0
327,57.0,0.0,600.0,13.0,0.0
328,45.0,0.0,600.0,8.0,0.0
329,45.0,1434.0,600.0,4.0,0.0
330,57.0,1024.0,1020.0,13.0,0.0
331,46.0,0.0,2040.0,4.0,0.0
332,46.0,0.0,2040.0,8.0,0.0
333,46.0,0.0,2040.0,15.0,0.0
334,50.0,1638.0,1020.0,13.0,0.0
335,55.0,512.0,3060.0,13.0,0.0
336,47.0,0.0,600.0,4.0,0.0
337,47.0,0.0,600.0,8.0,0.0
338,47.0,1024.0,600.0,15.0,0.0
339,48.0,0.0,600.0,15.0,0.0
340,48.0,0.0,600.0,4.0,0.0
341,48.0,410.0,600.0,8.0,0.0
342,49.0,0.0,600.0,15.0,0.0
343,49.0,410.0,600.0,8.0,0.0
344,53.0,102.0,510.0,13.0,0.0
345,49.0,0.0,600.0,4.0,0.0
346,52.0,614.0,510.0,13.0,0.0
347,50.0,0.0,600.0,4.0,0.0
348,62.0,410.0,600.0,12.0,0.0
349,50.0,0.0,600.0,8.0,0.0
350,53.0,614.0,1020.0,13.0,0.0
351,50.0,0.0,600.0,15.0,0.0
352,46.0,0.0,600.0,4.0,0.0
353,62.0,0.0,600.0,12.0,0.0
354,46.0,410.0,600.0,8.0,0.0
355,46.0,0.0,600.0,15.0,0.0
356,50.0,614.0,1020.0,13.0,0.0
357,43.0,410.0,600.0,4.0,0.0
358,43.0,0.0,600.0,15.0,0.0
359,52.0,614.0,4110.0,13.0,0.0
360,62.0,614.0,1020.0,12.0,0.0
361,43.0,0.0,600.0,8.0,0.0
362,46.0,410.0,600.0,4.0,0.0
363,46.0,0.0,600.0,8.0,0.0
364,46.0,0.0,600.0,15.0,0.0
365,55.0,614.0,1020.0,12.0,0.0
366,60.0,512.0,3060.0,12.0,0.0
367,45.0,0.0,600.0,15.0,0.0
368,45.0,1024.0,600.0,8.0,0.0
369,45.0,0.0,600.0,4.0,0.0
370,43.0,0.0,600.0,15.0,0.0
371,43.0,0.0,600.0,8.0,0.0
372,43.0,410.0,600.0,4.0,0.0
373,42.0,0.0,600.0,4.0,0.0
374,50.0,410.0,600.0,13.0,0.0
375,42.0,0.0,600.0,15.0,0.0
376,42.0,0.0,600.0,8.0,0.0
377,38.0,0.0,600.0,4.0,0.0
378,38.0,0.0,600.0,15.0,0.0
379,38.0,410.0,600.0,8.0,0.0
380,54.0,614.0,1020.0,13.0,0.0
381,59.0,102.0,510.0,12.0,0.0
382,57.0,0.0,510.0,12.0,0.0
383,43.0,0.0,600.0,8.0,0.0
384,59.0,0.0,1020.0,12.0,0.0
385,43.0,0.0,600.0,15.0,0.0
386,55.0,614.0,1020.0,13.0,0.0
387,43.0,0.0,600.0,4.0,0.0
388,67.0,410.0,600.0,11.0,0.0
389,47.0,410.0,600.0,15.0,0.0
390,47.0,0.0,600.0,4.0,0.0
391,55.0,0.0,1020.0,12.0,0.0
392,47.0,0.0,600.0,8.0,0.0
393,67.0,0.0,600.0,11.0,0.0
394,50.0,614.0,1020.0,13.0,0.0
395,52.0,0.0,1020.0,13.0,0.0
396,67.0,614.0,1020.0,11.0,0.0
397,48.0,0.0,600.0,4.0,0.0
398,48.0,410.0,600.0,8.0,0.0
399,57.0,0.0,4110.0,12.0,0.0
400,48.0,0.0,600.0,15.0,0.0
401,45.0,0.0,600.0,4.0,0.0
402,55.0,0.0,1020.0,13.0,0.0
403,45.0,0.0,600.0,15.0,0.0
404,45.0,410.0,600.0,8.0,0.0
405,60.0,614.0,1020.0,11.0,0.0
406,50.0,410.0,600.0,15.0,0.0
407,50.0,0.0,600.0,8.0,0.0
408,50.0,0.0,600.0,4.0,0.0
409,65.0,0.0,3060.0,11.0,0.0
410,53.0,614.0,1020.0,13.0,0.0
411,52.0,614.0,1020.0,13.0,0.0
412,48.0,410.0,600.0,8.0,0.0
413,48.0,0.0,600.0,4.0,0.0
414,48.0,0.0,600.0,15.0,0.0
415,55.0,0.0,600.0,12.0,0.0
416,50.0,512.0,1020.0,13.0,0.0
417,47.0,410.0,600.0,8.0,0.0
418,47.0,0.0,600.0,15.0,0.0
419,47.0,0.0,600.0,4.0,0.0
420,43.0,410.0,600.0,15.0,0.0
421,43.0,0.0,600.0,4.0,0.0
422,55.0,0.0,2040.0,13.0,0.0
423,64.0,102.0,510.0,11.0,0.0
424,59.0,614.0,1020.0,12.0,0.0
425,43.0,0.0,600.0,8.0,0.0
426,62.0,0.0,510.0,11.0,0.0
427,48.0,0.0,600.0,8.0,0.0
428,48.0,410.0,600.0,4.0,0.0
429,48.0,0.0,600.0,15.0,0.0
430,72.0,0.0,600.0,10.0,0.0
431,64.0,0.0,1020.0,11.0,0.0
432,60.0,614.0,1020.0,12.0,0.0
433,52.0,410.0,600.0,8.0,0.0
434,52.0,0.0,600.0,15.0,0.0
435,52.0,0.0,1020.0,13.0,0.0
436,72.0,0.0,600.0,10.0,0.0
437,52.0,0.0,600.0,4.0,0.0
438,60.0,614.0,1020.0,11.0,0.0
439,55.0,0.0,1020.0,12.0,0.0
440,53.0,0.0,600.0,4.0,0.0
441,57.0,614.0,1020.0,12.0,0.0
442,53.0,410.0,600.0,15.0,0.0
443,62.0,0.0,4110.0,11.0,0.0
444,53.0,614.0,2040.0,13.0,0.0
445,53.0,0.0,600.0,8.0,0.0
446,72.0,0.0,1020.0,10.0,0.0
447,50.0,410.0,600.0,8.0,0.0
448,50.0,0.0,600.0,15.0,0.0
449,50.0,0.0,600.0,4.0,0.0
450,60.0,0.0,1020.0,12.0,0.0
451,65.0,0.0,1020.0,10.0,0.0
452,55.0,0.0,600.0,15.0,0.0
453,70.0,0.0,3060.0,10.0,0.0
454,58.0,614.0,1020.0,12.0,0.0
455,55.0,0.0,2040.0,13.0,0.0
456,55.0,410.0,600.0,8.0,0.0
457,55.0,0.0,600.0,4.0,0.0
458,57.0,614.0,1020.0,12.0,0.0
459,53.0,0.0,600.0,4.0,0.0
460,53.0,0.0,600.0,15.0,0.0
461,53.0,410.0,600.0,8.0,0.0
462,55.0,512.0,1020.0,12.0,0.0
463,52.0,0.0,600.0,4.0,0.0
464,52.0,410.0,600.0,15.0,0.0
465,52.0,0.0,600.0,8.0,0.0
466,48.0,0.0,2040.0,13.0,0.0
467,60.0,0.0,600.0,11.0,0.0
468,48.0,410.0,600.0,4.0,0.0
469,48.0,0.0,600.0,8.0,0.0
470,69.0,102.0,510.0,10.0,0.0
471,60.0,0.0,2040.0,12.0,0.0
472,48.0,0.0,600.0,15.0,0.0
473,64.0,0.0,1020.0,11.0,0.0
474,67.0,614.0,510.0,10.0,0.0
475,53.0,410.0,600.0,14.0,0.0
476,53.0,0.0,600.0,15.0,0.0
477,65.0,0.0,1020.0,11.0,0.0
478,53.0,0.0,600.0,8.0,0.0
479,69.0,614.0,1020.0,10.0,0.0
480,53.0,0.0,600.0,4.0,0.0
481,60.0,614.0,1020.0,11.0,0.0
482,57.0,0.0,1020.0,12.0,0.0
483,65.0,0.0,1020.0,10.0,0.0
484,53.0,0.0,1650.0,4.0,0.0
485,53.0,0.0,1650.0,15.0,0.0
486,53.0,410.0,600.0,14.0,0.0
487,53.0,410.0,1650.0,8.0,0.0
488,53.0,614.0,1020.0,14.0,0.0
489,62.0,0.0,1020.0,11.0,0.0
490,58.0,1024.0,2040.0,12.0,0.0
491,67.0,0.0,4110.0,10.0,0.0
492,46.0,0.0,600.0,8.0,0.0
493,46.0,0.0,600.0,4.0,0.0
494,65.0,0.0,1020.0,11.0,0.0
495,46.0,0.0,1020.0,14.0,0.0
496,46.0,410.0,600.0,15.0,0.0
497,55.0,1024.0,2040.0,13.0,0.0
498,51.0,512.0,3060.0,14.0,0.0
499,51.0,0.0,2670.0,15.0,0.0
500,63.0,0.0,1020.0,11.0,0.0
501,60.0,0.0,2040.0,12.0,0.0
502,51.0,410.0,2670.0,8.0,0.0
503,51.0,0.0,2670.0,4.0,0.0
504,62.0,614.0,1020.0,11.0,0.0
505,55.0,0.0,1020.0,13.0,0.0
506,65.0,0.0,600.0,10.0,0.0
507,53.0,0.0,2040.0,12.0,0.0
508,57.0,0.0,1020.0,13.0,0.0
509,60.0,0.0,1020.0,11.0,0.0
510,69.0,0.0,1020.0,10.0,0.0
511,65.0,0.0,2040.0,11.0,0.0
512,53.0,0.0,1020.0,13.0,0.0
513,50.0,0.0,510.0,15.0,0.0
514,50.0,0.0,510.0,14.0,0.0
515,50.0,512.0,510.0,8.0,0.0
516,50.0,0.0,510.0,4.0,0.0
517,48.0,0.0,510.0,4.0,0.0
518,48.0,0.0,510.0,15.0,0.0
519,48.0,0.0,510.0,8.0,0.0
520,48.0,614.0,510.0,14.0,0.0
521,58.0,0.0,2040.0,13.0,0.0
522,50.0,0.0,600.0,8.0,0.0
523,70.0,0.0,1020.0,10.0,0.0
524,50.0,410.0,600.0,4.0,0.0
525,50.0,0.0,600.0,15.0,0.0
526,50.0,614.0,1020.0,14.0,0.0
527,46.0,0.0,600.0,8.0,0.0
528,62.0,1024.0,1020.0,10.0,0.0
529,67.0,1024.0,2040.0,12.0,0.0
530,46.0,0.0,1020.0,14.0,0.0
531,46.0,410.0,600.0,4.0,0.0
532,46.0,0.0,600.0,15.0,0.0
533,48.0,0.0,2040.0,8.0,0.0
534,55.0,0.0,1020.0,13.0,0.0
535,70.0,0.0,15.0,11.0,0.0
536,48.0,1024.0,2040.0,4.0,0.0
537,63.0,0.0,1020.0,10.0,0.0
538,48.0,0.0,2040.0,15.0,0.0
539,48.0,0.0,4110.0,14.0,0.0
540,67.0,0.0,1020.0,10.0,0.0
541,60.0,1024.0,2040.0,13.0,0.0
542,63.0,0.0,1020.0,12.0,0.0
543,41.0,0.0,2040.0,4.0,0.0
544,60.0,0.0,1020.0,12.0,0.0
545,41.0,0.0,2040.0,15.0,0.0
546,65.0,0.0,1020.0,10.0,0.0
547,41.0,0.0,2040.0,8.0,0.0
548,69.0,0.0,4110.0,11.0,0.0
549,63.0,614.0,1020.0,10.0,0.0
550,60.0,0.0,1020.0,12.0,0.0
551,57.0,0.0,1020.0,13.0,0.0
552,46.0,0.0,600.0,4.0,0.0
553,46.0,410.0,600.0,14.0,0.0
554,62.0,0.0,1020.0,10.0,0.0
555,46.0,0.0,600.0,15.0,0.0
556,46.0,0.0,600.0,8.0,0.0
557,58.0,0.0,3060.0,13.0,0.0
558,62.0,614.0,1020.0,12.0,0.0
559,50.0,0.0,600.0,4.0,0.0
560,58.0,0.0,1020.0,12.0,0.0
561,50.0,0.0,600.0,15.0,0.0
562,66.0,0.0,1020.0,10.0,0.0
563,50.0,614.0,1020.0,14.0,0.0
564,50.0,410.0,600.0,8.0,0.0
565,58.0,512.0,1020.0,12.0,0.0
566,51.0,410.0,600.0,8.0,0.0
567,67.0,0.0,1020.0,10.0,0.0
568,67.0,0.0,4110.0,11.0,0.0
569,51.0,0.0,600.0,15.0,0.0
570,51.0,0.0,600.0,4.0,0.0
571,51.0,0.0,1020.0,14.0,0.0
572,57.0,102.0,510.0,13.0,0.0
573,70.0,0.0,1020.0,10.0,0.0
574,46.0,0.0,600.0,15.0,0.0
575,46.0,0.0,1020.0,14.0,0.0
576,46.0,410.0,600.0,4.0,0.0
577,46.0,0.0,600.0,8.0,0.0
578,62.0,0.0,1020.0,12.0,0.0
579,55.0,614.0,510.0,13.0,0.0
580,48.0,614.0,1020.0,14.0,0.0
581,48.0,0.0,600.0,4.0,0.0
582,60.0,512.0,3060.0,13.0,0.0
583,63.0,0.0,2040.0,12.0,0.0
584,69.0,0.0,4110.0,10.0,0.0
585,48.0,410.0,600.0,8.0,0.0
586,48.0,0.0,600.0,15.0,0.0
587,45.0,410.0,600.0,15.0,0.0
588,45.0,0.0,600.0,8.0,0.0
589,45.0,614.0,1020.0,14.0,0.0
590,45.0,0.0,600.0,4.0,0.0
591,62.0,0.0,3060.0,12.0,0.0
592,50.0,0.0,600.0,8.0,0.0
593,65.0,0.0,4110.0,11.0,0.0
594,50.0,0.0,600.0,4.0,0.0
595,50.0,410.0,600.0,15.0,0.0
596,50.0,0.0,1020.0,14.0,0.0
597,48.0,410.0,600.0,8.0,0.0
598,59.0,102.0,510.0,13.0,0.0
599,48.0,0.0,600.0,15.0,0.0
600,48.0,614.0,1020.0,14.0,0.0
601,48.0,0.0,600.0,4.0,0.0
602,57.0,0.0,510.0,13.0,0.0
603,62.0,512.0,1020.0,13.0,0.0
604,67.0,0.0,2040.0,10.0,0.0
605,47.0,0.0,600.0,15.0,0.0
606,47.0,410.0,600.0,8.0,0.0
607,47.0,0.0,1020.0,14.0,0.0
608,47.0,0.0,600.0,4.0,0.0
609,60.0,0.0,1020.0,12.0,0.0
610,48.0,0.0,510.0,4.0,0.0
611,48.0,0.0,510.0,8.0,0.0
612,55.0,0.0,1020.0,13.0,0.0
613,48.0,512.0,510.0,15.0,0.0
614,51.0,0.0,2040.0,14.0,0.0
615,50.0,0.0,510.0,8.0,0.0
616,50.0,614.0,510.0,15.0,0.0
617,50.0,0.0,510.0,4.0,0.0
618,51.0,0.0,600.0,4.0,0.0
619,63.0,614.0,1020.0,11.0,0.0
620,60.0,0.0,600.0,13.0,0.0
621,51.0,0.0,600.0,8.0,0.0
622,51.0,410.0,600.0,15.0,0.0
623,50.0,0.0,600.0,8.0,0.0
624,58.0,0.0,2040.0,13.0,0.0
625,50.0,1024.0,1020.0,14.0,0.0
626,50.0,410.0,600.0,15.0,0.0
627,50.0,0.0,600.0,4.0,0.0
628,49.0,614.0,2040.0,14.0,0.0
629,49.0,0.0,2040.0,8.0,0.0
630,49.0,0.0,2040.0,15.0,0.0
631,49.0,0.0,2040.0,4.0,0.0
632,67.0,1024.0,15.0,12.0,0.0
633,50.0,0.0,2040.0,14.0,0.0
634,50.0,0.0,2040.0,8.0,0.0
635,69.0,0.0,2040.0,10.0,0.0
636,50.0,0.0,2040.0,4.0,0.0
637,57.0,0.0,15.0,13.0,0.0
638,66.0,0.0,2040.0,12.0,0.0
639,50.0,614.0,2040.0,15.0,0.0
640,69.0,1024.0,600.0,11.0,0.0
641,69.0,410.0,600.0,11.0,0.0
642,43.0,0.0,2040.0,14.0,0.0
643,43.0,410.0,600.0,4.0,0.0
644,43.0,0.0,600.0,8.0,0.0
645,55.0,0.0,2040.0,13.0,0.0
646,69.0,614.0,1020.0,11.0,0.0
647,70.0,614.0,3060.0,10.0,0.0
648,43.0,0.0,600.0,15.0,0.0
649,62.0,0.0,2040.0,12.0,0.0
650,45.0,0.0,600.0,15.0,0.0
651,45.0,410.0,600.0,4.0,0.0
652,45.0,0.0,600.0,8.0,0.0
653,62.0,614.0,1020.0,11.0,0.0
654,46.0,410.0,600.0,15.0,0.0
655,46.0,0.0,600.0,8.0,0.0
656,67.0,512.0,3060.0,11.0,0.0
657,46.0,0.0,600.0,4.0,0.0
658,43.0,410.0,600.0,4.0,0.0
659,43.0,0.0,600.0,8.0,0.0
660,43.0,0.0,600.0,15.0,0.0
661,70.0,614.0,1020.0,10.0,0.0
662,50.0,410.0,600.0,15.0,0.0
663,69.0,0.0,1020.0,10.0,0.0
664,50.0,0.0,600.0,8.0,0.0
665,50.0,0.0,600.0,4.0,0.0
666,62.0,614.0,1020.0,10.0,0.0
667,65.0,102.0,510.0,11.0,0.0
668,53.0,0.0,600.0,15.0,0.0
669,53.0,410.0,600.0,8.0,0.0
670,53.0,0.0,600.0,4.0,0.0
671,64.0,0.0,510.0,11.0,0.0
672,74.0,614.0,4110.0,10.0,0.0
673,58.0,0.0,600.0,8.0,0.0
674,58.0,0.0,600.0,4.0,0.0
675,65.0,614.0,1020.0,11.0,0.0
676,58.0,410.0,600.0,15.0,0.0
677,57.0,0.0,600.0,4.0,0.0
678,57.0,0.0,600.0,15.0,0.0
679,62.0,614.0,1020.0,11.0,0.0
680,57.0,410.0,600.0,8.0,0.0
681,55.0,1024.0,600.0,4.0,0.0
682,55.0,0.0,600.0,15.0,0.0
683,64.0,0.0,4110.0,11.0,0.0
684,55.0,0.0,600.0,8.0,0.0
685,52.0,0.0,600.0,8.0,0.0
686,52.0,410.0,600.0,4.0,0.0
687,52.0,0.0,600.0,15.0,0.0
688,57.0,0.0,600.0,15.0,0.0
689,57.0,0.0,600.0,8.0,0.0
690,57.0,0.0,2040.0,13.0,0.0
691,69.0,0.0,600.0,12.0,0.0
692,57.0,1024.0,600.0,4.0,0.0
693,73.0,614.0,2040.0,10.0,0.0
694,45.0,0.0,600.0,15.0,0.0
695,69.0,0.0,600.0,12.0,0.0
696,45.0,410.0,600.0,4.0,0.0
697,45.0,0.0,600.0,8.0,0.0
698,69.0,614.0,1020.0,12.0,0.0
699,62.0,614.0,2040.0,11.0,0.0
700,50.0,0.0,600.0,4.0,0.0
701,50.0,410.0,600.0,15.0,0.0
702,74.0,307.0,2760.0,10.0,0.0
703,50.0,0.0,600.0,8.0,0.0
704,55.0,0.0,600.0,8.0,0.0
705,55.0,410.0,600.0,15.0,0.0
706,62.0,0.0,1020.0,12.0,0.0
707,55.0,0.0,600.0,4.0,0.0
708,53.0,103.0,600.0,4.0,0.0
709,53.0,0.0,600.0,8.0,0.0
710,53.0,0.0,600.0,15.0,0.0
711,67.0,0.0,3060.0,12.0,0.0
712,52.0,410.0,600.0,8.0,0.0
713,58.0,614.0,15.0,13.0,0.0
714,52.0,0.0,600.0,15.0,0.0
715,52.0,0.0,600.0,4.0,0.0
716,74.0,0.0,1020.0,10.0,0.0
717,53.0,0.0,510.0,15.0,0.0
718,57.0,0.0,1020.0,13.0,0.0
719,72.0,0.0,1020.0,10.0,0.0
720,53.0,0.0,510.0,8.0,0.0
721,53.0,512.0,510.0,4.0,0.0
722,55.0,512.0,510.0,8.0,0.0
723,55.0,0.0,510.0,15.0,0.0
724,55.0,0.0,510.0,4.0,0.0
725,65.0,512.0,510.0,12.0,0.0
726,50.0,0.0,1020.0,13.0,0.0
727,57.0,0.0,2040.0,8.0,0.0
728,57.0,0.0,2040.0,4.0,0.0
729,57.0,0.0,2040.0,15.0,0.0
730,69.0,0.0,1020.0,10.0,0.0
731,64.0,1024.0,510.0,12.0,0.0
732,62.0,0.0,4110.0,13.0,0.0
733,65.0,1024.0,1020.0,12.0,0.0
734,70.0,512.0,3060.0,10.0,0.0
735,55.0,410.0,1650.0,4.0,0.0
736,55.0,0.0,1650.0,15.0,0.0
737,62.0,614.0,1020.0,12.0,0.0
738,55.0,0.0,1650.0,8.0,0.0
739,64.0,614.0,4110.0,12.0,0.0
740,53.0,512.0,510.0,15.0,0.0
741,69.0,0.0,510.0,10.0,0.0
742,53.0,0.0,510.0,8.0,0.0
743,53.0,0.0,510.0,4.0,0.0
744,68.0,0.0,510.0,10.0,0.0
745,52.0,0.0,510.0,8.0,0.0
746,52.0,0.0,510.0,15.0,0.0
747,52.0,614.0,510.0,4.0,0.0
748,61.0,0.0,2040.0,13.0,0.0
749,57.0,0.0,600.0,15.0,0.0
750,57.0,1024.0,600.0,8.0,0.0
751,57.0,0.0,600.0,4.0,0.0
752,64.0,0.0,2040.0,11.0,0.0
753,69.0,0.0,600.0,10.0,0.0
754,55.0,0.0,600.0,8.0,0.0
755,55.0,0.0,600.0,15.0,0.0
756,55.0,0.0,600.0,4.0,0.0
757,69.0,410.0,600.0,10.0,0.0
758,62.0,410.0,600.0,12.0,0.0
759,62.0,0.0,600.0,13.0,0.0
760,69.0,512.0,1020.0,10.0,0.0
761,53.0,0.0,600.0,8.0,0.0
762,53.0,0.0,600.0,15.0,0.0
763,53.0,0.0,600.0,4.0,0.0
764,65.0,0.0,3060.0,11.0,0.0
765,60.0,0.0,1020.0,13.0,0.0
766,55.0,512.0,510.0,4.0,0.0
767,55.0,0.0,510.0,15.0,0.0
768,62.0,0.0,1020.0,10.0,0.0
769,55.0,0.0,510.0,8.0,0.0
770,57.0,0.0,1020.0,12.0,0.0
771,57.0,0.0,510.0,8.0,0.0
772,57.0,0.0,510.0,15.0,0.0
773,57.0,614.0,510.0,4.0,0.0
774,58.0,410.0,600.0,15.0,0.0
775,58.0,0.0,600.0,8.0,0.0
776,58.0,614.0,1020.0,13.0,0.0
777,58.0,0.0,600.0,4.0,0.0
778,67.0,0.0,3060.0,10.0,0.0
779,55.0,0.0,600.0,4.0,0.0
780,55.0,0.0,600.0,15.0,0.0
781,62.0,0.0,15.0,12.0,0.0
782,55.0,410.0,600.0,8.0,0.0
783,55.0,0.0,1020.0,13.0,0.0
784,65.0,614.0,1020.0,11.0,0.0
785,64.0,512.0,1020.0,11.0,0.0
786,57.0,0.0,600.0,8.0,0.0
787,57.0,0.0,600.0,15.0,0.0
788,61.0,0.0,1020.0,12.0,0.0
789,57.0,0.0,1020.0,13.0,0.0
790,57.0,410.0,600.0,4.0,0.0
791,49.0,0.0,600.0,8.0,0.0
792,65.0,102.0,510.0,10.0,0.0
793,49.0,0.0,1020.0,13.0,0.0
794,49.0,0.0,600.0,15.0,0.0
795,64.0,0.0,1020.0,12.0,0.0
796,49.0,410.0,600.0,4.0,0.0
797,57.0,614.0,1020.0,11.0,0.0
798,64.0,0.0,510.0,10.0,0.0
799,65.0,0.0,1020.0,10.0,0.0
800,50.0,0.0,600.0,8.0,0.0
801,50.0,614.0,1020.0,13.0,0.0
802,57.0,0.0,1020.0,12.0,0.0
803,50.0,410.0,600.0,4.0,0.0
804,50.0,0.0,600.0,15.0,0.0
805,69.0,0.0,4110.0,11.0,0.0
806,62.0,614.0,1020.0,10.0,0.0
807,59.0,0.0,1020.0,12.0,0.0
808,53.0,0.0,600.0,15.0,0.0
809,53.0,0.0,600.0,4.0,0.0
810,53.0,0.0,1020.0,13.0,0.0
811,53.0,410.0,600.0,8.0,0.0
812,52.0,0.0,600.0,4.0,0.0
813,52.0,614.0,1020.0,13.0,0.0
814,60.0,614.0,2040.0,12.0,0.0
815,52.0,0.0,600.0,8.0,0.0
816,64.0,0.0,6150.0,10.0,0.0
817,52.0,410.0,600.0,15.0,0.0
818,50.0,0.0,600.0,8.0,0.0
819,50.0,0.0,1020.0,13.0,0.0
820,50.0,0.0,600.0,4.0,0.0
821,50.0,410.0,600.0,15.0,0.0
822,68.0,0.0,2040.0,11.0,0.0
823,52.0,1024.0,600.0,8.0,0.0
824,52.0,0.0,600.0,15.0,0.0
825,52.0,0.0,2040.0,14.0,0.0
826,52.0,0.0,600.0,4.0,0.0
827,52.0,0.0,2040.0,13.0,0.0
828,59.0,614.0,2040.0,12.0,0.0
829,40.0,0.0,600.0,15.0,0.0
830,40.0,0.0,600.0,8.0,0.0
831,40.0,410.0,600.0,4.0,0.0
832,41.0,922.0,600.0,15.0,0.0
833,41.0,0.0,600.0,4.0,0.0
834,45.0,0.0,2040.0,13.0,0.0
835,53.0,614.0,3060.0,14.0,0.0
836,57.0,0.0,600.0,12.0,0.0
837,69.0,0.0,600.0,11.0,0.0
838,41.0,0.0,600.0,8.0,0.0
839,72.0,614.0,1020.0,11.0,0.0
840,53.0,0.0,510.0,4.0,0.0
841,53.0,0.0,510.0,8.0,0.0
842,53.0,512.0,510.0,15.0,0.0
843,57.0,0.0,1020.0,12.0,0.0
844,52.0,0.0,510.0,4.0,0.0
845,52.0,0.0,510.0,15.0,0.0
846,52.0,0.0,510.0,8.0,0.0
847,53.0,0.0,600.0,15.0,0.0
848,56.0,0.0,1020.0,12.0,0.0
849,62.0,0.0,3060.0,10.0,0.0
850,53.0,410.0,600.0,4.0,0.0
851,71.0,0.0,1020.0,11.0,0.0
852,53.0,0.0,600.0,8.0,0.0
853,41.0,0.0,600.0,15.0,0.0
854,41.0,0.0,600.0,4.0,0.0
855,69.0,614.0,1020.0,11.0,0.0
856,41.0,410.0,600.0,8.0,0.0
857,53.0,0.0,1020.0,14.0,0.0
858,57.0,0.0,1020.0,12.0,0.0
859,40.0,0.0,600.0,8.0,0.0
860,52.0,0.0,1020.0,14.0,0.0
861,40.0,410.0,600.0,4.0,0.0
862,68.0,512.0,1020.0,11.0,0.0
863,40.0,0.0,600.0,15.0,0.0
864,45.0,0.0,510.0,8.0,0.0
865,60.0,512.0,510.0,10.0,0.0
866,45.0,0.0,510.0,4.0,0.0
867,69.0,0.0,1020.0,11.0,0.0
868,45.0,0.0,1020.0,14.0,0.0
869,45.0,0.0,510.0,15.0,0.0
870,44.0,0.0,510.0,8.0,0.0
871,44.0,0.0,510.0,15.0,0.0
872,59.0,1024.0,510.0,10.0,0.0
873,44.0,0.0,510.0,4.0,0.0
874,57.0,0.0,4110.0,14.0,0.0
875,45.0,0.0,4110.0,4.0,0.0
876,52.0,0.0,2040.0,13.0,0.0
877,64.0,0.0,15.0,12.0,0.0
878,45.0,0.0,4110.0,15.0,0.0
879,45.0,1024.0,4110.0,8.0,0.0
880,60.0,819.0,1020.0,10.0,0.0
881,57.0,1024.0,1020.0,10.0,0.0
882,72.0,0.0,1020.0,11.0,0.0
883,59.0,1024.0,1020.0,12.0,0.0
884,59.0,512.0,4110.0,10.0,0.0
885,62.0,0.0,1020.0,12.0,0.0
886,60.0,0.0,1020.0,12.0,0.0
887,44.0,0.0,2040.0,8.0,0.0
888,44.0,0.0,2040.0,15.0,0.0
889,44.0,0.0,2040.0,4.0,0.0
890,56.0,0.0,2040.0,14.0,0.0
891,59.0,0.0,1020.0,12.0,0.0
892,53.0,1024.0,15.0,13.0,0.0
893,74.0,0.0,15.0,11.0,0.0
894,45.0,0.0,600.0,8.0,0.0
895,57.0,205.0,1830.0,14.0,0.0
896,60.0,102.0,510.0,12.0,0.0
897,52.0,0.0,1020.0,13.0,0.0
898,72.0,0.0,1020.0,11.0,0.0
899,45.0,410.0,600.0,4.0,0.0
900,57.0,0.0,2040.0,10.0,0.0
901,45.0,0.0,600.0,15.0,0.0
902,62.0,512.0,510.0,12.0,0.0
903,48.0,0.0,510.0,4.0,0.0
904,64.0,0.0,1020.0,12.0,0.0
905,48.0,0.0,510.0,8.0,0.0
906,48.0,0.0,510.0,15.0,0.0
907,45.0,0.0,1020.0,13.0,0.0
908,69.0,307.0,510.0,11.0,0.0
909,47.0,614.0,510.0,8.0,0.0
910,47.0,0.0,510.0,15.0,0.0
911,71.0,0.0,510.0,11.0,0.0
912,47.0,0.0,510.0,4.0,0.0
913,64.0,0.0,1020.0,12.0,0.0
914,57.0,0.0,3060.0,13.0,0.0
915,45.0,410.0,600.0,15.0,0.0
916,45.0,0.0,600.0,4.0,0.0
917,72.0,614.0,1020.0,11.0,0.0
918,45.0,0.0,600.0,8.0,0.0
919,45.0,614.0,3060.0,14.0,0.0
920,62.0,614.0,1020.0,12.0,0.0
921,47.0,0.0,600.0,8.0,0.0
922,47.0,410.0,600.0,4.0,0.0
923,47.0,0.0,600.0,15.0,0.0
924,74.0,0.0,1020.0,11.0,0.0
925,48.0,0.0,600.0,4.0,0.0
926,60.0,0.0,1020.0,12.0,0.0
927,76.0,0.0,2040.0,11.0,0.0
928,48.0,410.0,600.0,8.0,0.0
929,48.0,0.0,600.0,15.0,0.0
930,52.0,0.0,600.0,8.0,0.0
931,56.0,0.0,1020.0,13.0,0.0
932,52.0,410.0,600.0,4.0,0.0
933,59.0,614.0,1020.0,12.0,0.0
934,47.0,0.0,1020.0,14.0,0.0
935,52.0,0.0,600.0,15.0,0.0
936,48.0,0.0,600.0,8.0,0.0
937,64.0,0.0,2040.0,11.0,0.0
938,48.0,0.0,600.0,15.0,0.0
939,69.0,0.0,600.0,10.0,0.0
940,48.0,410.0,600.0,14.0,0.0
941,48.0,0.0,600.0,4.0,0.0
942,57.0,614.0,1020.0,12.0,0.0
943,57.0,0.0,600.0,13.0,0.0
944,45.0,0.0,600.0,8.0,0.0
945,45.0,0.0,600.0,15.0,0.0
946,45.0,0.0,1020.0,14.0,0.0
947,45.0,0.0,600.0,4.0,0.0
948,69.0,410.0,600.0,10.0,0.0
949,64.0,614.0,1020.0,12.0,0.0
950,60.0,0.0,2040.0,13.0,0.0
951,50.0,0.0,4110.0,14.0,0.0
952,50.0,0.0,600.0,15.0,0.0
953,69.0,512.0,1020.0,10.0,0.0
954,50.0,0.0,600.0,8.0,0.0
955,50.0,410.0,600.0,4.0,0.0
956,65.0,614.0,3060.0,12.0,0.0
957,62.0,614.0,1020.0,10.0,0.0
958,52.0,0.0,510.0,15.0,0.0
959,59.0,0.0,510.0,13.0,0.0
960,52.0,512.0,510.0,8.0,0.0
961,52.0,0.0,510.0,4.0,0.0
962,53.0,0.0,510.0,15.0,0.0
963,53.0,0.0,510.0,8.0,0.0
964,53.0,0.0,510.0,4.0,0.0
965,57.0,0.0,510.0,13.0,0.0
966,55.0,410.0,600.0,8.0,0.0
967,59.0,0.0,2040.0,13.0,0.0
968,67.0,512.0,3060.0,10.0,0.0
969,55.0,0.0,600.0,15.0,0.0
970,55.0,0.0,600.0,4.0,0.0
971,43.0,0.0,600.0,4.0,0.0
972,65.0,0.0,1020.0,12.0,0.0
973,43.0,410.0,600.0,8.0,0.0
974,43.0,0.0,600.0,15.0,0.0
975,67.0,614.0,1020.0,11.0,0.0
976,48.0,410.0,600.0,8.0,0.0
977,64.0,0.0,1020.0,12.0,0.0
978,69.0,614.0,3060.0,11.0,0.0
979,60.0,1024.0,2040.0,13.0,0.0
980,48.0,0.0,600.0,14.0,0.0
981,48.0,0.0,600.0,15.0,0.0
982,48.0,0.0,600.0,4.0,0.0
983,36.0,410.0,600.0,15.0,0.0
984,65.0,102.0,510.0,10.0,0.0
985,36.0,0.0,600.0,8.0,0.0
986,60.0,0.0,1020.0,12.0,0.0
987,36.0,0.0,600.0,4.0,0.0
988,60.0,0.0,2040.0,14.0,0.0
989,64.0,0.0,510.0,10.0,0.0
990,48.0,410.0,2670.0,8.0,0.0
991,65.0,0.0,1020.0,10.0,0.0
992,60.0,0.0,1020.0,12.0,0.0
993,48.0,0.0,2670.0,4.0,0.0
994,48.0,0.0,2670.0,15.0,0.0
995,64.0,614.0,1020.0,12.0,0.0
996,60.0,410.0,600.0,14.0,0.0
997,67.0,0.0,1020.0,11.0,0.0
998,60.0,0.0,1020.0,10.0,0.0
999,65.0,0.0,1020.0,11.0,0.0
1000,69.0,0.0,1020.0,12.0,0.0
1001,60.0,614.0,1020.0,14.0,0.0
1002,41.0,0.0,600.0,15.0,0.0
1003,41.0,0.0,600.0,8.0,0.0
1004,53.0,614.0,1020.0,14.0,0.0
1005,69.0,0.0,1020.0,11.0,0.0
1006,62.0,0.0,600.0,12.0,0.0
1007,41.0,410.0,600.0,4.0,0.0
1008,62.0,0.0,15.0,10.0,0.0
1009,67.0,614.0,1020.0,11.0,0.0
1010,67.0,0.0,600.0,12.0,0.0
1011,46.0,0.0,600.0,15.0,0.0
1012,46.0,0.0,600.0,4.0,0.0
1013,58.0,512.0,3060.0,14.0,0.0
1014,46.0,0.0,600.0,8.0,0.0
1015,70.0,0.0,1020.0,10.0,0.0
1016,65.0,614.0,1020.0,11.0,0.0
1017,43.0,0.0,600.0,4.0,0.0
1018,43.0,0.0,600.0,15.0,0.0
1019,67.0,0.0,600.0,12.0,0.0
1020,43.0,410.0,600.0,8.0,0.0
1021,67.0,0.0,1020.0,12.0,0.0
1022,48.0,410.0,600.0,15.0,0.0
1023,48.0,0.0,600.0,8.0,0.0
1024,48.0,0.0,600.0,4.0,0.0
1025,64.0,0.0,2040.0,11.0,0.0
1026,60.0,614.0,1020.0,12.0,0.0
1027,57.0,0.0,510.0,14.0,0.0
1028,50.0,0.0,510.0,8.0,0.0
1029,50.0,512.0,510.0,4.0,0.0
1030,50.0,0.0,510.0,15.0,0.0
1031,52.0,0.0,510.0,8.0,0.0
1032,52.0,0.0,510.0,15.0,0.0
1033,52.0,0.0,510.0,4.0,0.0
1034,55.0,0.0,510.0,14.0,0.0
1035,53.0,0.0,600.0,15.0,0.0
1036,53.0,0.0,600.0,4.0,0.0
1037,65.0,512.0,3060.0,12.0,0.0
1038,53.0,410.0,600.0,8.0,0.0
1039,57.0,0.0,1020.0,14.0,0.0
1040,57.0,0.0,2040.0,13.0,0.0
1041,60.0,0.0,2040.0,11.0,0.0
1042,50.0,0.0,600.0,4.0,0.0
1043,50.0,0.0,600.0,15.0,0.0
1044,53.0,614.0,1020.0,14.0,0.0
1045,72.0,614.0,15.0,10.0,0.0
1046,50.0,410.0,600.0,8.0,0.0
1047,55.0,512.0,5130.0,14.0,0.0
1048,55.0,0.0,600.0,15.0,0.0
1049,55.0,0.0,600.0,4.0,0.0
1050,55.0,410.0,600.0,8.0,0.0
1051,70.0,1024.0,2040.0,10.0,0.0
1052,43.0,0.0,600.0,8.0,0.0
1053,43.0,0.0,600.0,4.0,0.0
1054,43.0,410.0,600.0,15.0,0.0
1055,64.0,102.0,510.0,12.0,0.0
1056,62.0,0.0,510.0,12.0,0.0
1057,64.0,0.0,1020.0,12.0,0.0
1058,55.0,0.0,2670.0,4.0,0.0
1059,55.0,410.0,2670.0,15.0,0.0
1060,55.0,0.0,2670.0,8.0,0.0
1061,58.0,1024.0,15.0,13.0,0.0
1062,61.0,614.0,1020.0,12.0,0.0
1063,64.0,0.0,1020.0,11.0,0.0
1064,65.0,0.0,3060.0,11.0,0.0
1065,62.0,614.0,3060.0,12.0,0.0
1066,57.0,0.0,1020.0,13.0,0.0
1067,50.0,0.0,1020.0,13.0,0.0
1068,53.0,0.0,510.0,15.0,0.0
1069,53.0,0.0,510.0,8.0,0.0
1070,53.0,512.0,510.0,4.0,0.0
1071,53.0,0.0,510.0,14.0,0.0
1072,52.0,0.0,510.0,14.0,0.0
1073,52.0,614.0,510.0,8.0,0.0
1074,52.0,0.0,510.0,15.0,0.0
1075,52.0,0.0,510.0,4.0,0.0
1076,53.0,410.0,600.0,14.0,0.0
1077,53.0,410.0,2670.0,15.0,0.0
1078,53.0,0.0,2670.0,4.0,0.0
1079,53.0,0.0,2670.0,8.0,0.0
1080,65.0,0.0,2040.0,10.0,0.0
1081,53.0,410.0,600.0,14.0,0.0
1082,63.0,0.0,1020.0,11.0,0.0
1083,60.0,614.0,1020.0,12.0,0.0
1084,67.0,1024.0,3060.0,10.0,0.0
1085,58.0,0.0,1020.0,12.0,0.0
1086,62.0,0.0,1020.0,11.0,0.0
1087,53.0,0.0,1020.0,14.0,0.0
1088,65.0,0.0,1020.0,11.0,0.0
1089,46.0,0.0,1020.0,14.0,0.0
1090,46.0,0.0,600.0,4.0,0.0
1091,55.0,1024.0,1020.0,12.0,0.0
1092,46.0,410.0,600.0,15.0,0.0
1093,46.0,0.0,600.0,8.0,0.0
1094,62.0,614.0,15.0,13.0,0.0
1095,51.0,0.0,2670.0,4.0,0.0
1096,51.0,0.0,3060.0,14.0,0.0
1097,51.0,0.0,2670.0,8.0,0.0
1098,60.0,0.0,3060.0,13.0,0.0
1099,63.0,0.0,1020.0,11.0,0.0
1100,60.0,0.0,1020.0,12.0,0.0
1101,51.0,410.0,2670.0,15.0,0.0
1102,58.0,614.0,1020.0,12.0,0.0
1103,62.0,0.0,1020.0,11.0,0.0
1104,67.0,0.0,1020.0,10.0,0.0
1105,57.0,0.0,1020.0,12.0,0.0
1106,65.0,0.0,1020.0,10.0,0.0
1107,60.0,512.0,1020.0,11.0,0.0
1108,50.0,0.0,510.0,4.0,0.0
1109,62.0,0.0,510.0,13.0,0.0
1110,58.0,0.0,1020.0,10.0,0.0
1111,50.0,512.0,510.0,14.0,0.0
1112,55.0,0.0,1020.0,12.0,0.0
1113,50.0,0.0,510.0,15.0,0.0
1114,50.0,0.0,510.0,8.0,0.0
1115,58.0,0.0,510.0,11.0,0.0
1116,48.0,0.0,510.0,14.0,0.0
1117,63.0,0.0,510.0,13.0,0.0
1118,48.0,614.0,510.0,4.0,0.0
1119,57.0,0.0,510.0,11.0,0.0
1120,48.0,0.0,510.0,8.0,0.0
1121,48.0,0.0,510.0,15.0,0.0
1122,58.0,0.0,1020.0,11.0,0.0
1123,70.0,614.0,4110.0,10.0,0.0
1124,65.0,614.0,1020.0,13.0,0.0
1125,50.0,0.0,600.0,8.0,0.0
1126,50.0,0.0,600.0,15.0,0.0
1127,50.0,0.0,1020.0,14.0,0.0
1128,53.0,0.0,2040.0,12.0,0.0
1129,50.0,410.0,600.0,4.0,0.0
1130,46.0,0.0,600.0,4.0,0.0
1131,62.0,0.0,1020.0,11.0,0.0
1132,46.0,0.0,600.0,8.0,0.0
1133,46.0,0.0,1020.0,14.0,0.0
1134,62.0,614.0,1020.0,13.0,0.0
1135,46.0,410.0,600.0,15.0,0.0
1136,65.0,0.0,2040.0,11.0,0.0
1137,53.0,1024.0,600.0,4.0,0.0
1138,53.0,0.0,600.0,15.0,0.0
1139,48.0,0.0,2040.0,14.0,0.0
1140,60.0,614.0,4110.0,13.0,0.0
1141,53.0,0.0,600.0,8.0,0.0
1142,51.0,0.0,600.0,4.0,0.0
1143,51.0,410.0,600.0,8.0,0.0
1144,51.0,0.0,600.0,15.0,0.0
1145,60.0,0.0,2040.0,11.0,0.0
1146,60.0,0.0,2040.0,12.0,0.0
1147,53.0,0.0,2040.0,14.0,0.0
1148,53.0,0.0,600.0,15.0,0.0
1149,53.0,0.0,600.0,4.0,0.0
1150,53.0,1024.0,600.0,8.0,0.0
1151,69.0,0.0,2040.0,10.0,0.0
1152,41.0,0.0,600.0,15.0,0.0
1153,41.0,0.0,600.0,4.0,0.0
1154,41.0,410.0,600.0,8.0,0.0
1155,46.0,0.0,2040.0,14.0,0.0
1156,70.0,0.0,2040.0,10.0,0.0
1157,62.0,614.0,3060.0,12.0,0.0
1158,46.0,0.0,600.0,15.0,0.0
1159,58.0,614.0,2040.0,13.0,0.0
1160,46.0,1024.0,600.0,4.0,0.0
1161,46.0,0.0,600.0,8.0,0.0
1162,48.0,0.0,600.0,15.0,0.0
1163,48.0,0.0,600.0,4.0,0.0
1164,48.0,410.0,600.0,8.0,0.0
1165,50.0,410.0,600.0,8.0,0.0
1166,65.0,0.0,2040.0,11.0,0.0
1167,50.0,0.0,600.0,4.0,0.0
1168,50.0,0.0,600.0,15.0,0.0
1169,65.0,614.0,3060.0,10.0,0.0
1170,46.0,410.0,600.0,4.0,0.0
1171,62.0,614.0,1020.0,12.0,0.0
1172,46.0,0.0,600.0,8.0,0.0
1173,46.0,0.0,600.0,15.0,0.0
1174,53.0,0.0,600.0,15.0,0.0
1175,69.0,0.0,3060.0,11.0,0.0
1176,60.0,0.0,1020.0,12.0,0.0
1177,53.0,0.0,600.0,4.0,0.0
1178,53.0,410.0,600.0,8.0,0.0
1179,53.0,614.0,1020.0,12.0,0.0
1180,52.0,0.0,600.0,15.0,0.0
1181,52.0,0.0,600.0,8.0,0.0
1182,52.0,410.0,600.0,4.0,0.0
1183,67.0,0.0,1020.0,10.0,0.0
1184,69.0,512.0,1020.0,10.0,0.0
1185,50.0,0.0,600.0,15.0,0.0
1186,65.0,0.0,4110.0,12.0,0.0
1187,50.0,410.0,600.0,8.0,0.0
1188,50.0,0.0,600.0,4.0,0.0
1189,52.0,0.0,510.0,15.0,0.0
1190,69.0,614.0,1020.0,11.0,0.0
1191,52.0,512.0,510.0,4.0,0.0
1192,65.0,0.0,1020.0,10.0,0.0
1193,52.0,0.0,510.0,8.0,0.0
1194,53.0,0.0,510.0,15.0,0.0
1195,53.0,0.0,510.0,4.0,0.0
1196,53.0,0.0,510.0,8.0,0.0
1197,55.0,410.0,600.0,15.0,0.0
1198,55.0,0.0,600.0,4.0,0.0
1199,70.0,0.0,4110.0,10.0,0.0
1200,67.0,512.0,1020.0,11.0,0.0
1201,55.0,0.0,600.0,8.0,0.0
1202,57.0,0.0,510.0,4.0,0.0
1203,57.0,512.0,510.0,15.0,0.0
1204,60.0,0.0,1020.0,11.0,0.0
1205,57.0,0.0,510.0,8.0,0.0
1206,58.0,614.0,510.0,4.0,0.0
1207,58.0,0.0,510.0,8.0,0.0
1208,58.0,0.0,510.0,15.0,0.0
1209,60.0,0.0,600.0,8.0,0.0
1210,60.0,0.0,600.0,15.0,0.0
1211,60.0,1024.0,600.0,4.0,0.0
1212,72.0,0.0,4110.0,11.0,0.0
1213,48.0,0.0,2040.0,14.0,0.0
1214,64.0,614.0,2040.0,12.0,0.0
1215,48.0,0.0,600.0,15.0,0.0
1216,48.0,0.0,600.0,4.0,0.0
1217,48.0,410.0,600.0,8.0,0.0
1218,50.0,0.0,600.0,4.0,0.0
1219,65.0,922.0,600.0,12.0,0.0
1220,50.0,0.0,600.0,8.0,0.0
1221,50.0,0.0,600.0,15.0,0.0
1222,69.0,0.0,2040.0,10.0,0.0
1223,50.0,0.0,3060.0,14.0,0.0
1224,38.0,0.0,510.0,15.0,0.0
1225,38.0,0.0,510.0,4.0,0.0
1226,38.0,512.0,510.0,8.0,0.0
1227,36.0,0.0,510.0,15.0,0.0
1228,36.0,0.0,510.0,8.0,0.0
1229,36.0,614.0,510.0,4.0,0.0
1230,71.0,0.0,2040.0,11.0,0.0
1231,38.0,0.0,600.0,15.0,0.0
1232,38.0,410.0,600.0,8.0,0.0
1233,53.0,614.0,2040.0,13.0,0.0
1234,38.0,0.0,600.0,4.0,0.0
1235,65.0,614.0,15.0,12.0,0.0
1236,50.0,0.0,600.0,8.0,0.0
1237,50.0,0.0,1020.0,14.0,0.0
1238,50.0,410.0,600.0,15.0,0.0
1239,50.0,0.0,600.0,4.0,0.0
1240,48.0,410.0,600.0,15.0,0.0
1241,57.0,1024.0,3060.0,13.0,0.0
1242,72.0,205.0,1830.0,11.0,0.0
1243,48.0,0.0,1020.0,14.0,0.0
1244,48.0,0.0,600.0,4.0,0.0
1245,64.0,614.0,1020.0,12.0,0.0
1246,48.0,0.0,600.0,8.0,0.0
1247,41.0,205.0,600.0,4.0,0.0
1248,41.0,0.0,600.0,15.0,0.0
1249,57.0,1024.0,1020.0,12.0,0.0
1250,41.0,0.0,1020.0,14.0,0.0
1251,41.0,0.0,600.0,8.0,0.0
1252,53.0,0.0,2670.0,15.0,0.0
1253,53.0,410.0,2670.0,4.0,0.0
1254,53.0,614.0,4110.0,14.0,0.0
1255,62.0,0.0,3060.0,12.0,0.0
1256,69.0,0.0,2040.0,11.0,0.0
1257,53.0,0.0,2670.0,8.0,0.0
1258,57.0,614.0,1020.0,13.0,0.0
1259,55.0,512.0,1020.0,13.0,0.0
1260,52.0,0.0,510.0,15.0,0.0
1261,48.0,0.0,1020.0,13.0,0.0
1262,52.0,0.0,510.0,4.0,0.0
1263,52.0,512.0,510.0,8.0,0.0
1264,60.0,0.0,510.0,12.0,0.0
1265,58.0,0.0,510.0,12.0,0.0
1266,50.0,0.0,510.0,15.0,0.0
1267,50.0,0.0,510.0,4.0,0.0
1268,50.0,0.0,510.0,8.0,0.0
1269,52.0,0.0,600.0,4.0,0.0
1270,52.0,0.0,2040.0,14.0,0.0
1271,52.0,410.0,600.0,8.0,0.0
1272,60.0,614.0,1020.0,12.0,0.0
1273,60.0,0.0,4110.0,13.0,0.0
1274,52.0,0.0,600.0,15.0,0.0
1275,72.0,0.0,2040.0,10.0,0.0
1276,70.0,0.0,15.0,11.0,0.0
1277,55.0,0.0,1020.0,12.0,0.0
1278,48.0,410.0,600.0,15.0,0.0
1279,48.0,0.0,600.0,8.0,0.0
1280,48.0,0.0,600.0,4.0,0.0
1281,53.0,0.0,600.0,8.0,0.0
1282,53.0,0.0,600.0,14.0,0.0
1283,57.0,0.0,2040.0,12.0,0.0
1284,53.0,1024.0,600.0,4.0,0.0
1285,69.0,614.0,2040.0,11.0,0.0
1286,53.0,0.0,600.0,15.0,0.0
1287,50.0,0.0,600.0,8.0,0.0
1288,50.0,0.0,600.0,15.0,0.0
1289,50.0,410.0,600.0,4.0,0.0
1290,50.0,0.0,1020.0,14.0,0.0
1291,67.0,0.0,4110.0,11.0,0.0
1292,55.0,410.0,600.0,8.0,0.0
1293,55.0,0.0,1020.0,14.0,0.0
1294,59.0,0.0,2040.0,12.0,0.0
1295,55.0,0.0,600.0,15.0,0.0
1296,55.0,0.0,600.0,4.0,0.0
1297,53.0,0.0,600.0,4.0,0.0
1298,53.0,410.0,600.0,8.0,0.0
1299,74.0,614.0,15.0,10.0,0.0
1300,53.0,0.0,600.0,15.0,0.0
1301,53.0,0.0,1020.0,14.0,0.0
1302,52.0,410.0,600.0,15.0,0.0
1303,52.0,0.0,600.0,8.0,0.0
1304,52.0,614.0,1020.0,14.0,0.0
1305,60.0,0.0,2040.0,12.0,0.0
1306,59.0,614.0,15.0,13.0,0.0
1307,52.0,0.0,600.0,4.0,0.0
1308,72.0,0.0,1020.0,10.0,0.0
1309,48.0,0.0,600.0,15.0,0.0
1310,48.0,0.0,1020.0,14.0,0.0
1311,52.0,614.0,1020.0,13.0,0.0
1312,48.0,410.0,600.0,8.0,0.0
1313,48.0,0.0,600.0,4.0,0.0
1314,76.0,0.0,1020.0,10.0,0.0
1315,65.0,614.0,1020.0,11.0,0.0
1316,53.0,0.0,2670.0,15.0,0.0
1317,53.0,410.0,600.0,14.0,0.0
1318,53.0,410.0,2670.0,4.0,0.0
1319,57.0,0.0,1020.0,13.0,0.0
1320,53.0,0.0,2670.0,8.0,0.0
1321,74.0,0.0,1020.0,10.0,0.0
1322,72.0,614.0,1020.0,10.0,0.0
1323,57.0,0.0,1020.0,13.0,0.0
1324,53.0,410.0,600.0,14.0,0.0
1325,69.0,0.0,1020.0,11.0,0.0
1326,67.0,0.0,600.0,12.0,0.0
1327,62.0,1024.0,2040.0,11.0,0.0
1328,55.0,0.0,1020.0,13.0,0.0
1329,53.0,0.0,1020.0,14.0,0.0
1330,71.0,614.0,1020.0,10.0,0.0
1331,47.0,0.0,600.0,8.0,0.0
1332,59.0,0.0,1020.0,13.0,0.0
1333,47.0,0.0,600.0,4.0,0.0
1334,47.0,0.0,1020.0,14.0,0.0
1335,47.0,0.0,600.0,15.0,0.0
1336,67.0,0.0,600.0,10.0,0.0
1337,67.0,410.0,600.0,12.0,0.0
1338,52.0,410.0,2670.0,15.0,0.0
1339,52.0,512.0,3060.0,14.0,0.0
1340,64.0,0.0,2040.0,11.0,0.0
1341,52.0,0.0,2670.0,4.0,0.0
1342,72.0,1024.0,1020.0,10.0,0.0
1343,67.0,0.0,1020.0,12.0,0.0
1344,52.0,0.0,2670.0,8.0,0.0
1345,60.0,0.0,15.0,13.0,0.0
1346,60.0,0.0,1020.0,12.0,0.0
1347,71.0,0.0,1020.0,10.0,0.0
1348,60.0,0.0,2040.0,11.0,0.0
1349,65.0,0.0,3060.0,12.0,0.0
1350,69.0,614.0,2040.0,10.0,0.0
1351,60.0,0.0,1020.0,13.0,0.0
1352,50.0,512.0,510.0,4.0,0.0
1353,50.0,0.0,510.0,8.0,0.0
1354,50.0,0.0,510.0,14.0,0.0
1355,53.0,0.0,1020.0,13.0,0.0
1356,50.0,0.0,510.0,15.0,0.0
1357,48.0,0.0,510.0,14.0,0.0
1358,48.0,0.0,510.0,8.0,0.0
1359,48.0,0.0,510.0,4.0,0.0
1360,48.0,0.0,510.0,15.0,0.0
1361,50.0,0.0,600.0,15.0,0.0
1362,71.0,0.0,2040.0,10.0,0.0
1363,50.0,512.0,1020.0,14.0,0.0
1364,59.0,0.0,3060.0,13.0,0.0
1365,50.0,0.0,600.0,4.0,0.0
1366,62.0,614.0,2040.0,11.0,0.0
1367,50.0,410.0,600.0,8.0,0.0
1368,64.0,102.0,510.0,12.0,0.0
1369,43.0,410.0,600.0,4.0,0.0
1370,43.0,0.0,600.0,8.0,0.0
1371,43.0,0.0,1020.0,14.0,0.0
1372,43.0,0.0,600.0,15.0,0.0
1373,62.0,0.0,510.0,12.0,0.0
1374,72.0,0.0,1020.0,10.0,0.0
1375,60.0,0.0,2040.0,12.0,0.0
1376,64.0,614.0,1020.0,11.0,0.0
1377,48.0,0.0,600.0,4.0,0.0
1378,48.0,0.0,600.0,15.0,0.0
1379,48.0,0.0,2040.0,14.0,0.0
1380,48.0,410.0,600.0,8.0,0.0
1381,48.0,0.0,600.0,4.0,0.0
1382,74.0,0.0,1020.0,10.0,0.0
1383,48.0,0.0,600.0,8.0,0.0
1384,57.0,0.0,1020.0,13.0,0.0
1385,48.0,410.0,600.0,15.0,0.0
1386,65.0,614.0,1020.0,11.0,0.0
1387,76.0,0.0,3060.0,10.0,0.0
1388,49.0,410.0,600.0,8.0,0.0
1389,58.0,0.0,2040.0,12.0,0.0
1390,49.0,0.0,600.0,4.0,0.0
1391,55.0,512.0,1020.0,13.0,0.0
1392,49.0,614.0,2040.0,14.0,0.0
1393,67.0,0.0,3060.0,11.0,0.0
1394,49.0,0.0,600.0,15.0,0.0
1395,49.0,0.0,600.0,4.0,0.0
1396,53.0,102.0,510.0,13.0,0.0
1397,49.0,410.0,600.0,8.0,0.0
1398,49.0,0.0,600.0,15.0,0.0
1399,52.0,0.0,510.0,13.0,0.0
1400,50.0,0.0,2040.0,14.0,0.0
1401,53.0,512.0,1020.0,13.0,0.0
1402,50.0,0.0,600.0,4.0,0.0
1403,50.0,410.0,600.0,8.0,0.0
1404,50.0,0.0,600.0,15.0,0.0
1405,57.0,614.0,2040.0,12.0,0.0
1406,50.0,0.0,600.0,4.0,0.0
1407,50.0,410.0,600.0,15.0,0.0
1408,65.0,0.0,600.0,11.0,0.0
1409,50.0,0.0,1020.0,13.0,0.0
1410,50.0,0.0,600.0,8.0,0.0
1411,74.0,102.0,510.0,10.0,0.0
1412,72.0,0.0,510.0,10.0,0.0
1413,51.0,0.0,600.0,4.0,0.0
1414,66.0,614.0,1020.0,11.0,0.0
1415,51.0,0.0,2040.0,14.0,0.0
1416,51.0,0.0,600.0,15.0,0.0
1417,71.0,0.0,1020.0,10.0,0.0
1418,51.0,410.0,600.0,8.0,0.0
1419,59.0,614.0,1020.0,11.0,0.0
1420,51.0,410.0,600.0,4.0,0.0
1421,51.0,0.0,600.0,15.0,0.0
1422,51.0,0.0,600.0,8.0,0.0
1423,69.0,0.0,600.0,10.0,0.0
1424,52.0,0.0,600.0,15.0,0.0
1425,52.0,0.0,600.0,4.0,0.0
1426,59.0,0.0,15.0,12.0,0.0
1427,64.0,0.0,1020.0,11.0,0.0
1428,52.0,410.0,600.0,8.0,0.0
1429,68.0,0.0,1020.0,10.0,0.0
1430,52.0,0.0,4110.0,14.0,0.0
1431,52.0,0.0,600.0,15.0,0.0
1432,68.0,0.0,1020.0,11.0,0.0
1433,52.0,0.0,600.0,8.0,0.0
1434,52.0,410.0,600.0,4.0,0.0
1435,64.0,614.0,1020.0,10.0,0.0
1436,64.0,614.0,2040.0,13.0,0.0
1437,62.0,0.0,1020.0,12.0,0.0
1438,60.0,0.0,1020.0,12.0,0.0
1439,52.0,0.0,600.0,15.0,0.0
1440,69.0,0.0,1020.0,11.0,0.0
1441,52.0,0.0,600.0,8.0,0.0
1442,52.0,410.0,600.0,4.0,0.0
1443,69.0,614.0,2040.0,10.0,0.0
1444,52.0,0.0,600.0,8.0,0.0
1445,60.0,0.0,1020.0,13.0,0.0
1446,57.0,0.0,1020.0,12.0,0.0
1447,52.0,0.0,600.0,15.0,0.0
1448,72.0,0.0,1020.0,11.0,0.0
1449,52.0,410.0,600.0,4.0,0.0
1450,59.0,614.0,1020.0,13.0,0.0
1451,51.0,0.0,600.0,15.0,0.0
1452,59.0,0.0,4110.0,12.0,0.0
1453,51.0,0.0,600.0,8.0,0.0
1454,51.0,410.0,600.0,4.0,0.0
1455,66.0,0.0,2040.0,11.0,0.0
1456,69.0,0.0,2040.0,10.0,0.0
1457,51.0,0.0,2040.0,14.0,0.0
1458,51.0,0.0,600.0,4.0,0.0
1459,60.0,614.0,1020.0,13.0,0.0
1460,51.0,410.0,600.0,8.0,0.0
1461,51.0,0.0,600.0,15.0,0.0
1462,52.0,1024.0,600.0,4.0,0.0
1463,68.0,0.0,2040.0,10.0,0.0
1464,52.0,0.0,600.0,8.0,0.0
1465,52.0,0.0,600.0,15.0,0.0
1466,52.0,0.0,2040.0,14.0,0.0
1467,62.0,614.0,4110.0,13.0,0.0
1468,52.0,0.0,600.0,8.0,0.0
1469,52.0,0.0,600.0,15.0,0.0
1470,52.0,410.0,600.0,4.0,0.0
1471,45.0,0.0,17010.0,8.0,0.0
1472,45.0,0.0,17010.0,4.0,0.0
1473,69.0,0.0,1830.0,10.0,0.0
1474,64.0,1843.0,15.0,11.0,0.0
1475,45.0,1024.0,17010.0,15.0,0.0
1476,57.0,0.0,1830.0,12.0,0.0
1477,45.0,1024.0,4110.0,14.0,0.0
1478,61.0,205.0,1830.0,13.0,0.0
1479,65.0,1024.0,600.0,12.0,0.0
1480,69.0,0.0,600.0,10.0,0.0
1481,65.0,0.0,600.0,12.0,0.0
1482,69.0,205.0,600.0,10.0,0.0
1483,65.0,0.0,1020.0,12.0,0.0
1484,69.0,0.0,1020.0,10.0,0.0
1485,70.0,512.0,15.0,11.0,0.0
1486,62.0,0.0,1020.0,10.0,0.0
1487,62.0,0.0,15.0,13.0,0.0
1488,67.0,512.0,510.0,12.0,0.0
1489,65.0,1024.0,510.0,12.0,0.0
1490,70.0,0.0,15.0,11.0,0.0
1491,67.0,512.0,3060.0,10.0,0.0
1492,62.0,1024.0,1020.0,13.0,0.0
1493,64.0,0.0,3060.0,12.0,0.0
1494,64.0,1024.0,1020.0,11.0,0.0
1495,55.0,0.0,1020.0,13.0,0.0
1496,61.0,0.0,1020.0,13.0,0.0
1497,69.0,512.0,3060.0,11.0,0.0
1498,57.0,1024.0,1020.0,13.0,0.0
1499,62.0,0.0,510.0,12.0,0.0
1500,65.0,512.0,510.0,10.0,0.0
1501,61.0,0.0,510.0,12.0,0.0
1502,64.0,0.0,510.0,10.0,0.0
1503,62.0,0.0,3060.0,12.0,0.0
1504,65.0,0.0,1020.0,10.0,0.0
1505,62.0,0.0,1020.0,13.0,0.0
1506,62.0,512.0,1020.0,10.0,0.0
1507,67.0,512.0,510.0,11.0,0.0
1508,65.0,0.0,510.0,11.0,0.0
1509,57.0,0.0,15.0,13.0,0.0
1510,64.0,0.0,1020.0,10.0,0.0
1511,67.0,512.0,1020.0,11.0,0.0
1512,55.0,0.0,510.0,13.0,0.0
1513,53.0,512.0,1530.0,13.0,0.0
1514,69.0,1024.0,2040.0,10.0,0.0
1515,61.0,512.0,1020.0,11.0,0.0
1516,64.0,512.0,510.0,12.0,0.0
1517,65.0,0.0,510.0,12.0,0.0
1518,59.0,0.0,2040.0,12.0,0.0
1519,65.0,614.0,2040.0,11.0,0.0
1520,52.0,0.0,510.0,13.0,0.0
1521,50.0,0.0,1020.0,13.0,0.0
1522,68.0,0.0,1020.0,10.0,0.0
1523,69.0,0.0,1830.0,10.0,0.0
1524,57.0,0.0,1830.0,13.0,0.0
1525,61.0,205.0,1830.0,12.0,0.0
1526,52.0,614.0,2040.0,14.0,0.0
1527,64.0,0.0,1830.0,11.0,0.0
1528,57.0,0.0,600.0,8.0,0.0
1529,57.0,0.0,600.0,15.0,0.0
1530,57.0,205.0,600.0,4.0,0.0
1531,55.0,0.0,600.0,15.0,0.0
1532,74.0,1024.0,600.0,10.0,0.0
1533,55.0,0.0,600.0,4.0,0.0
1534,53.0,614.0,2040.0,14.0,0.0
1535,55.0,0.0,600.0,8.0,0.0
1536,62.0,0.0,2040.0,11.0,0.0
1537,74.0,0.0,600.0,10.0,0.0
1538,53.0,0.0,600.0,8.0,0.0
1539,53.0,0.0,600.0,4.0,0.0
1540,53.0,410.0,600.0,15.0,0.0
1541,74.0,614.0,1020.0,10.0,0.0
1542,52.0,0.0,600.0,4.0,0.0
1543,55.0,614.0,2040.0,14.0,0.0
1544,52.0,410.0,600.0,8.0,0.0
1545,52.0,0.0,600.0,15.0,0.0
1546,59.0,0.0,2040.0,12.0,0.0
1547,64.0,614.0,3060.0,11.0,0.0
1548,40.0,410.0,600.0,15.0,0.0
1549,67.0,0.0,1020.0,10.0,0.0
1550,40.0,0.0,600.0,4.0,0.0
1551,40.0,0.0,600.0,8.0,0.0
1552,38.0,410.0,600.0,15.0,0.0
1553,38.0,0.0,600.0,8.0,0.0
1554,38.0,0.0,600.0,4.0,0.0
1555,60.0,0.0,2040.0,12.0,0.0
1556,72.0,512.0,3060.0,10.0,0.0
1557,36.0,0.0,600.0,8.0,0.0
1558,64.0,0.0,1020.0,11.0,0.0
1559,36.0,410.0,600.0,4.0,0.0
1560,36.0,0.0,600.0,15.0,0.0
1561,43.0,0.0,600.0,4.0,0.0
1562,62.0,614.0,2040.0,12.0,0.0
1563,62.0,0.0,2040.0,11.0,0.0
1564,55.0,614.0,15.0,14.0,0.0
1565,43.0,0.0,600.0,8.0,0.0
1566,43.0,410.0,600.0,15.0,0.0
1567,55.0,410.0,600.0,15.0,0.0
1568,70.0,102.0,510.0,10.0,0.0
1569,55.0,0.0,600.0,4.0,0.0
1570,55.0,0.0,600.0,8.0,0.0
1571,69.0,0.0,510.0,10.0,0.0
1572,54.0,0.0,600.0,8.0,0.0
1573,54.0,0.0,600.0,15.0,0.0
1574,70.0,614.0,1020.0,10.0,0.0
1575,62.0,410.0,600.0,13.0,0.0
1576,54.0,0.0,600.0,4.0,0.0
1577,52.0,410.0,600.0,4.0,0.0
1578,67.0,0.0,1020.0,10.0,0.0
1579,52.0,0.0,600.0,8.0,0.0
1580,52.0,0.0,600.0,15.0,0.0
1581,62.0,0.0,600.0,13.0,0.0
1582,54.0,410.0,600.0,4.0,0.0
1583,62.0,0.0,1020.0,13.0,0.0
1584,54.0,0.0,600.0,8.0,0.0
1585,62.0,614.0,15.0,12.0,0.0
1586,69.0,512.0,1020.0,10.0,0.0
1587,54.0,0.0,600.0,15.0,0.0
1588,50.0,0.0,600.0,15.0,0.0
1589,66.0,0.0,1020.0,11.0,0.0
1590,60.0,102.0,510.0,13.0,0.0
1591,70.0,0.0,2040.0,10.0,0.0
1592,50.0,0.0,600.0,8.0,0.0
1593,50.0,410.0,600.0,4.0,0.0
1594,58.0,614.0,510.0,13.0,0.0
1595,60.0,0.0,3060.0,13.0,0.0
1596,52.0,410.0,600.0,15.0,0.0
1597,52.0,0.0,600.0,4.0,0.0
1598,67.0,614.0,1020.0,11.0,0.0
1599,52.0,0.0,600.0,8.0,0.0
1600,54.0,410.0,600.0,4.0,0.0
1601,69.0,512.0,2040.0,10.0,0.0
1602,54.0,0.0,600.0,15.0,0.0
1603,54.0,0.0,600.0,8.0,0.0
1604,69.0,0.0,1020.0,11.0,0.0
1605,55.0,614.0,15.0,14.0,0.0
1606,62.0,0.0,2040.0,11.0,0.0
1607,55.0,0.0,600.0,8.0,0.0
1608,55.0,0.0,600.0,15.0,0.0
1609,55.0,410.0,600.0,4.0,0.0
1610,58.0,102.0,510.0,13.0,0.0
1611,43.0,0.0,510.0,15.0,0.0
1612,67.0,410.0,600.0,10.0,0.0
1613,43.0,0.0,510.0,4.0,0.0
1614,43.0,0.0,510.0,8.0,0.0
1615,42.0,614.0,510.0,4.0,0.0
1616,42.0,0.0,510.0,8.0,0.0
1617,42.0,0.0,510.0,15.0,0.0
1618,57.0,0.0,510.0,13.0,0.0
1619,55.0,0.0,15.0,14.0,0.0
1620,67.0,614.0,2040.0,11.0,0.0
1621,43.0,0.0,600.0,8.0,0.0
1622,62.0,0.0,2040.0,12.0,0.0
1623,43.0,0.0,600.0,15.0,0.0
1624,58.0,614.0,1020.0,13.0,0.0
1625,43.0,410.0,600.0,4.0,0.0
1626,74.0,614.0,3060.0,10.0,0.0
1627,45.0,0.0,600.0,4.0,0.0
1628,45.0,0.0,600.0,8.0,0.0
1629,45.0,410.0,600.0,15.0,0.0
1630,55.0,0.0,1020.0,13.0,0.0
1631,55.0,0.0,15.0,14.0,0.0
1632,46.0,0.0,600.0,4.0,0.0
1633,46.0,410.0,600.0,15.0,0.0
1634,62.0,614.0,2040.0,12.0,0.0
1635,46.0,0.0,600.0,8.0,0.0
1636,45.0,0.0,600.0,15.0,0.0
1637,45.0,410.0,600.0,8.0,0.0
1638,45.0,0.0,600.0,4.0,0.0
1639,72.0,0.0,1020.0,10.0,0.0
1640,70.0,614.0,1020.0,10.0,0.0
1641,46.0,410.0,600.0,15.0,0.0
1642,46.0,0.0,600.0,8.0,0.0
1643,46.0,0.0,600.0,4.0,0.0
1644,50.0,0.0,15.0,13.0,0.0
1645,62.0,0.0,2040.0,12.0,0.0
1646,48.0,410.0,600.0,4.0,0.0
1647,69.0,614.0,1020.0,11.0,0.0
1648,48.0,0.0,600.0,15.0,0.0
1649,69.0,512.0,2040.0,10.0,0.0
1650,48.0,0.0,600.0,8.0,0.0
1651,50.0,0.0,600.0,15.0,0.0
1652,53.0,0.0,2040.0,14.0,0.0
1653,62.0,0.0,4110.0,12.0,0.0
1654,50.0,0.0,600.0,4.0,0.0
1655,50.0,410.0,600.0,8.0,0.0
1656,38.0,0.0,510.0,4.0,0.0
1657,70.0,0.0,510.0,10.0,0.0
1658,38.0,0.0,510.0,8.0,0.0
1659,38.0,512.0,510.0,15.0,0.0
1660,37.0,0.0,510.0,8.0,0.0
1661,69.0,512.0,510.0,10.0,0.0
1662,37.0,0.0,510.0,15.0,0.0
1663,37.0,0.0,510.0,4.0,0.0
1664,38.0,0.0,600.0,4.0,0.0
1665,38.0,0.0,600.0,15.0,0.0
1666,38.0,410.0,600.0,8.0,0.0
1667,67.0,102.0,510.0,10.0,0.0
1668,65.0,614.0,510.0,10.0,0.0
1669,67.0,0.0,1020.0,10.0,0.0
1670,70.0,0.0,15.0,11.0,0.0
1671,40.0,0.0,600.0,4.0,0.0
1672,55.0,0.0,1650.0,13.0,0.0
1673,40.0,0.0,600.0,15.0,0.0
1674,40.0,410.0,600.0,8.0,0.0
1675,60.0,0.0,2040.0,10.0,0.0
1676,60.0,614.0,2040.0,12.0,0.0
1677,41.0,410.0,600.0,15.0,0.0
1678,69.0,614.0,1020.0,11.0,0.0
1679,41.0,0.0,600.0,4.0,0.0
1680,41.0,0.0,600.0,8.0,0.0
1681,48.0,0.0,1020.0,13.0,0.0
1682,67.0,0.0,1020.0,11.0,0.0
1683,40.0,410.0,600.0,4.0,0.0
1684,40.0,0.0,600.0,15.0,0.0
1685,40.0,0.0,600.0,8.0,0.0
1686,69.0,614.0,1020.0,11.0,0.0
1687,53.0,512.0,3060.0,13.0,0.0
1688,41.0,0.0,600.0,8.0,0.0
1689,41.0,0.0,600.0,15.0,0.0
1690,41.0,410.0,600.0,4.0,0.0
1691,43.0,0.0,600.0,15.0,0.0
1692,43.0,0.0,600.0,8.0,0.0
1693,70.0,614.0,1020.0,11.0,0.0
1694,43.0,410.0,600.0,4.0,0.0
1695,45.0,410.0,600.0,8.0,0.0
1696,45.0,0.0,600.0,4.0,0.0
1697,72.0,0.0,2040.0,11.0,0.0
1698,45.0,0.0,600.0,15.0,0.0
1699,43.0,0.0,600.0,8.0,0.0
1700,52.0,102.0,510.0,13.0,0.0
1701,43.0,0.0,600.0,15.0,0.0
1702,43.0,410.0,600.0,4.0,0.0
1703,50.0,0.0,510.0,13.0,0.0
1704,45.0,0.0,600.0,8.0,0.0
1705,45.0,410.0,600.0,4.0,0.0
1706,65.0,0.0,2040.0,11.0,0.0
1707,48.0,614.0,1020.0,13.0,0.0
1708,53.0,614.0,15.0,14.0,0.0
1709,45.0,0.0,600.0,15.0,0.0
1710,47.0,0.0,600.0,8.0,0.0
1711,67.0,0.0,1020.0,10.0,0.0
1712,47.0,0.0,600.0,4.0,0.0
1713,47.0,410.0,600.0,15.0,0.0
1714,50.0,0.0,1020.0,13.0,0.0
1715,52.0,0.0,2040.0,13.0,0.0
1716,48.0,1024.0,600.0,4.0,0.0
1717,60.0,0.0,2040.0,12.0,0.0
1718,69.0,614.0,3060.0,10.0,0.0
1719,52.0,614.0,2040.0,14.0,0.0
1720,48.0,0.0,600.0,15.0,0.0
1721,48.0,0.0,600.0,8.0,0.0
1722,45.0,0.0,600.0,8.0,0.0
1723,60.0,0.0,1020.0,11.0,0.0
1724,45.0,0.0,600.0,4.0,0.0
1725,45.0,410.0,600.0,15.0,0.0
1726,42.0,410.0,600.0,15.0,0.0
1727,42.0,0.0,600.0,8.0,0.0
1728,54.0,614.0,2040.0,13.0,0.0
1729,50.0,0.0,2040.0,14.0,0.0
1730,60.0,0.0,2040.0,12.0,0.0
1731,42.0,0.0,600.0,4.0,0.0
1732,50.0,0.0,600.0,4.0,0.0
1733,50.0,0.0,600.0,8.0,0.0
1734,50.0,410.0,600.0,15.0,0.0
1735,69.0,0.0,1020.0,10.0,0.0
1736,67.0,0.0,1020.0,10.0,0.0
1737,55.0,410.0,600.0,8.0,0.0
1738,55.0,0.0,1020.0,13.0,0.0
1739,55.0,0.0,600.0,15.0,0.0
1740,55.0,0.0,600.0,4.0,0.0
1741,59.0,1024.0,2040.0,12.0,0.0
1742,55.0,0.0,2040.0,14.0,0.0
1743,53.0,0.0,1020.0,13.0,0.0
1744,43.0,0.0,2040.0,8.0,0.0
1745,62.0,0.0,1020.0,10.0,0.0
1746,62.0,1024.0,15.0,11.0,0.0
1747,43.0,0.0,2040.0,15.0,0.0
1748,43.0,0.0,2040.0,4.0,0.0
1749,57.0,0.0,2040.0,14.0,0.0
1750,72.0,0.0,4110.0,10.0,0.0
1751,51.0,0.0,2040.0,13.0,0.0
1752,57.0,0.0,2040.0,12.0,0.0
1753,60.0,512.0,1020.0,11.0,0.0
1754,42.0,512.0,510.0,4.0,0.0
1755,42.0,0.0,510.0,15.0,0.0
1756,42.0,0.0,510.0,8.0,0.0
1757,57.0,0.0,1020.0,11.0,0.0
1758,40.0,614.0,510.0,8.0,0.0
1759,40.0,0.0,510.0,4.0,0.0
1760,40.0,0.0,510.0,15.0,0.0
1761,69.0,0.0,2040.0,11.0,0.0
1762,50.0,1434.0,600.0,13.0,0.0
1763,62.0,1024.0,2040.0,12.0,0.0
1764,42.0,0.0,600.0,15.0,0.0
1765,42.0,0.0,600.0,4.0,0.0
1766,42.0,0.0,600.0,8.0,0.0
1767,50.0,0.0,2040.0,15.0,0.0
1768,50.0,0.0,2040.0,4.0,0.0
1769,50.0,512.0,2040.0,8.0,0.0
1770,54.0,0.0,1020.0,13.0,0.0
1771,67.0,0.0,1020.0,11.0,0.0
1772,64.0,0.0,2040.0,12.0,0.0
1773,55.0,0.0,1020.0,13.0,0.0
1774,70.0,0.0,2040.0,10.0,0.0
1775,50.0,0.0,1020.0,13.0,0.0
1776,49.0,0.0,510.0,4.0,0.0
1777,65.0,614.0,1020.0,11.0,0.0
1778,49.0,512.0,510.0,15.0,0.0
1779,49.0,0.0,510.0,8.0,0.0
1780,47.0,0.0,510.0,4.0,0.0
1781,47.0,0.0,510.0,8.0,0.0
1782,47.0,0.0,510.0,15.0,0.0
1783,49.0,0.0,600.0,8.0,0.0
1784,69.0,205.0,1830.0,10.0,0.0
1785,64.0,0.0,1830.0,11.0,0.0
1786,57.0,614.0,1020.0,13.0,0.0
1787,49.0,410.0,600.0,15.0,0.0
1788,49.0,0.0,600.0,4.0,0.0
1789,55.0,614.0,2040.0,14.0,0.0
1790,45.0,205.0,600.0,15.0,0.0
1791,45.0,0.0,600.0,4.0,0.0
1792,61.0,0.0,1020.0,13.0,0.0
1793,45.0,0.0,600.0,8.0,0.0
1794,50.0,1024.0,600.0,4.0,0.0
1795,62.0,614.0,3060.0,13.0,0.0
1796,50.0,0.0,600.0,8.0,0.0
1797,65.0,0.0,4110.0,11.0,0.0
1798,53.0,0.0,2040.0,14.0,0.0
1799,50.0,0.0,600.0,15.0,0.0
1800,69.0,614.0,2040.0,10.0,0.0
1801,48.0,410.0,600.0,8.0,0.0
1802,48.0,0.0,600.0,4.0,0.0
1803,48.0,0.0,600.0,15.0,0.0
1804,67.0,1024.0,3060.0,10.0,0.0
1805,47.0,0.0,600.0,4.0,0.0
1806,62.0,0.0,2040.0,12.0,0.0
1807,55.0,0.0,4110.0,14.0,0.0
1808,47.0,410.0,600.0,8.0,0.0
1809,47.0,0.0,600.0,15.0,0.0
1810,59.0,1024.0,1020.0,13.0,0.0
1811,43.0,0.0,600.0,4.0,0.0
1812,43.0,410.0,600.0,15.0,0.0
1813,43.0,0.0,600.0,8.0,0.0
1814,48.0,0.0,2670.0,15.0,0.0
1815,64.0,0.0,1020.0,11.0,0.0
1816,55.0,0.0,1020.0,13.0,0.0
1817,60.0,0.0,2040.0,12.0,0.0
1818,48.0,0.0,2670.0,4.0,0.0
1819,48.0,410.0,2670.0,8.0,0.0
1820,64.0,614.0,1020.0,10.0,0.0
1821,69.0,0.0,1020.0,11.0,0.0
1822,60.0,0.0,1020.0,13.0,0.0
1823,53.0,614.0,2040.0,14.0,0.0
1824,62.0,614.0,4110.0,12.0,0.0
1825,69.0,0.0,2040.0,11.0,0.0
1826,57.0,0.0,1020.0,13.0,0.0
1827,65.0,512.0,1020.0,10.0,0.0
1828,47.0,0.0,510.0,4.0,0.0
1829,62.0,0.0,1020.0,10.0,0.0
1830,47.0,512.0,510.0,15.0,0.0
1831,47.0,0.0,510.0,8.0,0.0
1832,59.0,0.0,510.0,13.0,0.0
1833,45.0,0.0,510.0,8.0,0.0
1834,45.0,0.0,510.0,15.0,0.0
1835,60.0,0.0,510.0,13.0,0.0
1836,45.0,0.0,510.0,4.0,0.0
1837,47.0,0.0,600.0,4.0,0.0
1838,59.0,0.0,2040.0,13.0,0.0
1839,68.0,0.0,2040.0,11.0,0.0
1840,47.0,1024.0,600.0,15.0,0.0
1841,47.0,0.0,600.0,8.0,0.0
1842,40.0,0.0,600.0,8.0,0.0
1843,40.0,410.0,600.0,4.0,0.0
1844,40.0,0.0,600.0,15.0,0.0
1845,45.0,0.0,600.0,15.0,0.0
1846,52.0,819.0,1830.0,13.0,0.0
1847,45.0,0.0,600.0,4.0,0.0
1848,72.0,1024.0,600.0,10.0,0.0
1849,69.0,0.0,1830.0,11.0,0.0
1850,60.0,0.0,1830.0,12.0,0.0
1851,45.0,0.0,600.0,8.0,0.0
1852,52.0,205.0,600.0,4.0,0.0
1853,52.0,0.0,600.0,8.0,0.0
1854,52.0,0.0,600.0,15.0,0.0
1855,72.0,0.0,600.0,10.0,0.0
1856,57.0,0.0,2670.0,4.0,0.0
1857,57.0,0.0,2670.0,8.0,0.0
1858,57.0,410.0,2670.0,15.0,0.0
1859,60.0,614.0,2040.0,12.0,0.0
1860,72.0,614.0,1020.0,10.0,0.0
1861,64.0,0.0,2040.0,11.0,0.0
1862,57.0,410.0,600.0,14.0,0.0
1863,65.0,0.0,1020.0,10.0,0.0
1864,57.0,410.0,600.0,14.0,0.0
1865,70.0,0.0,3060.0,10.0,0.0
1866,57.0,614.0,1020.0,14.0,0.0
1867,50.0,1024.0,1020.0,14.0,0.0
1868,50.0,0.0,600.0,8.0,0.0
1869,50.0,0.0,600.0,4.0,0.0
1870,50.0,410.0,600.0,15.0,0.0
1871,55.0,512.0,3060.0,14.0,0.0
1872,55.0,0.0,2670.0,8.0,0.0
1873,55.0,0.0,2670.0,15.0,0.0
1874,55.0,410.0,2670.0,4.0,0.0
1875,69.0,512.0,510.0,10.0,0.0
1876,62.0,0.0,15.0,12.0,0.0
1877,65.0,512.0,15.0,11.0,0.0
1878,67.0,0.0,510.0,10.0,0.0
1879,69.0,0.0,1020.0,10.0,0.0
1880,61.0,0.0,1020.0,12.0,0.0
1881,64.0,0.0,1020.0,11.0,0.0
1882,57.0,614.0,1020.0,12.0,0.0
1883,69.0,0.0,2040.0,11.0,0.0
1884,62.0,0.0,1020.0,10.0,0.0
1885,53.0,0.0,510.0,14.0,0.0
1886,53.0,0.0,510.0,15.0,0.0
1887,53.0,0.0,510.0,4.0,0.0
1888,53.0,512.0,510.0,8.0,0.0
1889,52.0,0.0,510.0,15.0,0.0
1890,52.0,0.0,510.0,14.0,0.0
1891,52.0,0.0,510.0,8.0,0.0
1892,52.0,0.0,510.0,4.0,0.0
1893,53.0,0.0,600.0,4.0,0.0
1894,53.0,0.0,1020.0,14.0,0.0
1895,53.0,0.0,600.0,8.0,0.0
1896,62.0,512.0,1020.0,12.0,0.0
1897,74.0,512.0,3060.0,10.0,0.0
1898,53.0,410.0,600.0,15.0,0.0
1899,50.0,0.0,600.0,4.0,0.0
1900,50.0,410.0,600.0,15.0,0.0
1901,70.0,102.0,510.0,11.0,0.0
1902,50.0,0.0,1020.0,14.0,0.0
1903,50.0,0.0,600.0,8.0,0.0
1904,65.0,1024.0,1020.0,12.0,0.0
1905,72.0,0.0,510.0,11.0,0.0
1906,52.0,0.0,2040.0,4.0,0.0
1907,52.0,614.0,4110.0,14.0,0.0
1908,70.0,0.0,1020.0,11.0,0.0
1909,52.0,0.0,2040.0,15.0,0.0
1910,67.0,0.0,4110.0,12.0,0.0
1911,52.0,0.0,2040.0,8.0,0.0
1912,69.0,512.0,510.0,11.0,0.0
1913,73.0,0.0,510.0,10.0,0.0
1914,67.0,2048.0,510.0,11.0,0.0
1915,71.0,0.0,510.0,10.0,0.0
1916,45.0,0.0,2040.0,15.0,0.0
1917,73.0,0.0,2040.0,10.0,0.0
1918,45.0,0.0,2040.0,8.0,0.0
1919,69.0,614.0,3060.0,11.0,0.0
1920,45.0,0.0,2040.0,4.0,0.0
1921,65.0,819.0,1830.0,12.0,0.0
1922,74.0,614.0,4110.0,10.0,0.0
1923,50.0,0.0,600.0,4.0,0.0
1924,50.0,0.0,600.0,15.0,0.0
1925,50.0,410.0,600.0,8.0,0.0
1926,50.0,0.0,4110.0,14.0,0.0
1927,57.0,0.0,4110.0,13.0,0.0
1928,52.0,0.0,600.0,15.0,0.0
1929,52.0,0.0,600.0,4.0,0.0
1930,57.0,205.0,600.0,11.0,0.0
1931,52.0,0.0,600.0,8.0,0.0
1932,53.0,0.0,600.0,15.0,0.0
1933,62.0,512.0,3060.0,11.0,0.0
1934,53.0,1024.0,600.0,4.0,0.0
1935,53.0,0.0,600.0,8.0,0.0
1936,69.0,0.0,600.0,12.0,0.0
1937,50.0,410.0,600.0,15.0,0.0
1938,69.0,0.0,600.0,12.0,0.0
1939,50.0,0.0,600.0,4.0,0.0
1940,50.0,0.0,600.0,8.0,0.0
1941,55.0,410.0,600.0,8.0,0.0
1942,58.0,0.0,4110.0,13.0,0.0
1943,55.0,0.0,600.0,4.0,0.0
1944,69.0,0.0,1020.0,12.0,0.0
1945,55.0,0.0,600.0,15.0,0.0
1946,67.0,0.0,510.0,11.0,0.0
1947,62.0,0.0,1020.0,12.0,0.0
1948,58.0,0.0,510.0,15.0,0.0
1949,58.0,0.0,510.0,8.0,0.0
1950,58.0,512.0,510.0,4.0,0.0
1951,57.0,0.0,510.0,8.0,0.0
1952,57.0,0.0,510.0,4.0,0.0
1953,65.0,0.0,510.0,11.0,0.0
1954,57.0,614.0,510.0,15.0,0.0
1955,64.0,614.0,1020.0,11.0,0.0
1956,55.0,410.0,600.0,8.0,0.0
1957,55.0,0.0,600.0,4.0,0.0
1958,67.0,0.0,3060.0,12.0,0.0
1959,70.0,0.0,600.0,10.0,0.0
1960,55.0,0.0,600.0,15.0,0.0
1961,53.0,0.0,600.0,8.0,0.0
1962,53.0,410.0,600.0,4.0,0.0
1963,62.0,614.0,1020.0,11.0,0.0
1964,70.0,0.0,600.0,10.0,0.0
1965,53.0,0.0,600.0,15.0,0.0
1966,52.0,410.0,600.0,15.0,0.0
1967,60.0,0.0,4110.0,13.0,0.0
1968,70.0,512.0,1020.0,10.0,0.0
1969,52.0,0.0,600.0,8.0,0.0
1970,64.0,0.0,1020.0,11.0,0.0
1971,52.0,0.0,600.0,4.0,0.0
1972,64.0,614.0,1020.0,10.0,0.0
1973,57.0,512.0,510.0,15.0,0.0
1974,57.0,0.0,510.0,4.0,0.0
1975,57.0,0.0,510.0,8.0,0.0
1976,65.0,0.0,510.0,12.0,0.0
1977,60.0,0.0,1020.0,11.0,0.0
1978,55.0,0.0,510.0,4.0,0.0
1979,55.0,0.0,510.0,8.0,0.0
1980,64.0,0.0,510.0,12.0,0.0
1981,55.0,0.0,510.0,15.0,0.0
1982,57.0,0.0,600.0,8.0,0.0
1983,57.0,0.0,600.0,4.0,0.0
1984,65.0,614.0,1020.0,12.0,0.0
1985,57.0,410.0,600.0,15.0,0.0
1986,69.0,512.0,3060.0,10.0,0.0
1987,53.0,0.0,600.0,8.0,0.0
1988,62.0,614.0,1020.0,12.0,0.0
1989,53.0,410.0,600.0,15.0,0.0
1990,53.0,0.0,600.0,4.0,0.0
1991,60.0,0.0,600.0,15.0,0.0
1992,60.0,410.0,600.0,8.0,0.0
1993,60.0,0.0,600.0,4.0,0.0
1994,48.0,0.0,510.0,15.0,0.0
1995,48.0,512.0,510.0,4.0,0.0
1996,67.0,0.0,510.0,10.0,0.0
1997,48.0,0.0,510.0,8.0,0.0
1998,65.0,0.0,510.0,10.0,0.0
1999,50.0,0.0,510.0,8.0,0.0
2000,50.0,614.0,510.0,15.0,0.0
2001,50.0,0.0,510.0,4.0,0.0
2002,52.0,0.0,600.0,4.0,0.0
2003,64.0,0.0,15.0,12.0,0.0
2004,52.0,0.0,600.0,15.0,0.0
2005,67.0,614.0,1020.0,10.0,0.0
2006,52.0,410.0,600.0,8.0,0.0
2007,67.0,614.0,2040.0,11.0,0.0
2008,48.0,0.0,600.0,4.0,0.0
2009,64.0,0.0,1020.0,10.0,0.0
2010,48.0,410.0,600.0,8.0,0.0
2011,48.0,0.0,600.0,15.0,0.0
2012,53.0,922.0,600.0,15.0,0.0
2013,60.0,0.0,15.0,13.0,0.0
2014,53.0,0.0,600.0,4.0,0.0
2015,65.0,0.0,6150.0,10.0,0.0
2016,69.0,614.0,3060.0,11.0,0.0
2017,53.0,0.0,600.0,8.0,0.0
2018,41.0,0.0,510.0,4.0,0.0
2019,41.0,0.0,510.0,15.0,0.0
2020,41.0,512.0,510.0,8.0,0.0
2021,43.0,614.0,510.0,15.0,0.0
2022,43.0,0.0,510.0,4.0,0.0
2023,43.0,0.0,510.0,8.0,0.0
2024,45.0,0.0,600.0,4.0,0.0
2025,45.0,0.0,600.0,8.0,0.0
2026,45.0,410.0,600.0,15.0,0.0
2027,69.0,614.0,1020.0,11.0,0.0
2028,41.0,410.0,600.0,8.0,0.0
2029,41.0,0.0,600.0,4.0,0.0
2030,41.0,0.0,600.0,15.0,0.0
2031,36.0,0.0,600.0,8.0,0.0
2032,36.0,0.0,600.0,15.0,0.0
2033,67.0,512.0,1020.0,11.0,0.0
2034,36.0,410.0,600.0,4.0,0.0
2035,48.0,512.0,510.0,15.0,0.0
2036,48.0,0.0,510.0,8.0,0.0
2037,60.0,614.0,1020.0,11.0,0.0
2038,48.0,0.0,510.0,4.0,0.0
2039,46.0,0.0,510.0,8.0,0.0
2040,46.0,0.0,510.0,4.0,0.0
2041,46.0,0.0,510.0,15.0,0.0
2042,60.0,0.0,2040.0,12.0,0.0
2043,48.0,0.0,600.0,15.0,0.0
2044,64.0,614.0,2040.0,10.0,0.0
2045,48.0,1024.0,600.0,8.0,0.0
2046,48.0,0.0,600.0,4.0,0.0
2047,72.0,614.0,4110.0,11.0,0.0
2048,57.0,0.0,600.0,14.0,0.0
2049,57.0,0.0,600.0,14.0,0.0
2050,45.0,0.0,600.0,4.0,0.0
2051,45.0,0.0,600.0,15.0,0.0
2052,45.0,410.0,600.0,8.0,0.0
2053,41.0,0.0,600.0,4.0,0.0
2054,41.0,0.0,600.0,15.0,0.0
2055,57.0,614.0,1020.0,14.0,0.0
2056,41.0,410.0,600.0,8.0,0.0
2057,50.0,0.0,1020.0,14.0,0.0
2058,38.0,0.0,600.0,4.0,0.0
2059,38.0,0.0,600.0,15.0,0.0
2060,38.0,410.0,600.0,8.0,0.0
2061,55.0,512.0,3060.0,14.0,0.0
2062,43.0,410.0,600.0,8.0,0.0
2063,67.0,614.0,2040.0,10.0,0.0
2064,43.0,0.0,600.0,4.0,0.0
2065,43.0,0.0,600.0,15.0,0.0
2066,70.0,0.0,2040.0,11.0,0.0
2067,45.0,512.0,510.0,4.0,0.0
2068,62.0,512.0,15.0,12.0,0.0
2069,45.0,0.0,510.0,15.0,0.0
2070,45.0,0.0,510.0,8.0,0.0
2071,46.0,0.0,510.0,15.0,0.0
2072,46.0,0.0,510.0,8.0,0.0
2073,46.0,0.0,510.0,4.0,0.0
2074,48.0,0.0,600.0,15.0,0.0
2075,48.0,0.0,600.0,4.0,0.0
2076,60.0,0.0,1020.0,12.0,0.0
2077,48.0,410.0,600.0,8.0,0.0
2078,69.0,205.0,1830.0,11.0,0.0
2079,69.0,0.0,3060.0,10.0,0.0
2080,50.0,0.0,510.0,15.0,0.0
2081,50.0,307.0,510.0,8.0,0.0
2082,53.0,614.0,1020.0,12.0,0.0
2083,50.0,0.0,510.0,4.0,0.0
2084,53.0,0.0,510.0,14.0,0.0
2085,52.0,0.0,510.0,14.0,0.0
2086,52.0,0.0,510.0,8.0,0.0
2087,52.0,0.0,510.0,4.0,0.0
2088,52.0,0.0,510.0,15.0,0.0
2089,53.0,0.0,600.0,8.0,0.0
2090,53.0,614.0,1020.0,14.0,0.0
2091,53.0,0.0,600.0,4.0,0.0
2092,53.0,410.0,600.0,15.0,0.0
2093,65.0,0.0,4110.0,12.0,0.0
2094,60.0,1024.0,3060.0,11.0,0.0
2095,41.0,0.0,600.0,8.0,0.0
2096,41.0,0.0,600.0,15.0,0.0
2097,69.0,0.0,1020.0,10.0,0.0
2098,41.0,0.0,1020.0,14.0,0.0
2099,41.0,410.0,600.0,4.0,0.0
2100,60.0,614.0,15.0,13.0,0.0
2101,36.0,0.0,600.0,4.0,0.0
2102,36.0,410.0,600.0,15.0,0.0
2103,36.0,0.0,600.0,8.0,0.0
2104,67.0,0.0,1020.0,10.0,0.0
2105,48.0,0.0,2040.0,8.0,0.0
2106,48.0,0.0,2040.0,4.0,0.0
2107,60.0,0.0,1020.0,10.0,0.0
2108,62.0,0.0,1020.0,11.0,0.0
2109,48.0,614.0,2040.0,15.0,0.0
2110,64.0,0.0,2040.0,12.0,0.0
2111,48.0,1024.0,15.0,14.0,0.0
2112,72.0,0.0,4110.0,10.0,0.0
2113,64.0,0.0,1020.0,11.0,0.0
2114,46.0,0.0,600.0,15.0,0.0
2115,46.0,0.0,600.0,4.0,0.0
2116,60.0,0.0,1020.0,11.0,0.0
2117,46.0,410.0,600.0,8.0,0.0
2118,45.0,1024.0,600.0,8.0,0.0
2119,45.0,0.0,600.0,15.0,0.0
2120,60.0,614.0,15.0,13.0,0.0
2121,65.0,614.0,2040.0,11.0,0.0
2122,65.0,0.0,2040.0,12.0,0.0
2123,45.0,0.0,600.0,4.0,0.0
2124,46.0,0.0,600.0,4.0,0.0
2125,46.0,0.0,600.0,15.0,0.0
2126,46.0,410.0,600.0,8.0,0.0
2127,63.0,0.0,600.0,12.0,0.0
2128,60.0,0.0,2040.0,11.0,0.0
2129,69.0,0.0,2040.0,10.0,0.0
2130,48.0,1024.0,600.0,15.0,0.0
2131,48.0,0.0,600.0,4.0,0.0
2132,48.0,0.0,600.0,8.0,0.0
2133,45.0,0.0,600.0,15.0,0.0
2134,63.0,0.0,600.0,12.0,0.0
2135,45.0,410.0,600.0,8.0,0.0
2136,45.0,0.0,600.0,4.0,0.0
2137,50.0,0.0,600.0,4.0,0.0
2138,57.0,205.0,1830.0,11.0,0.0
2139,60.0,614.0,15.0,13.0,0.0
2140,50.0,0.0,600.0,15.0,0.0
2141,50.0,410.0,600.0,8.0,0.0
2142,63.0,614.0,1020.0,12.0,0.0
2143,66.0,0.0,2040.0,10.0,0.0
2144,52.0,0.0,600.0,4.0,0.0
2145,52.0,205.0,600.0,8.0,0.0
2146,57.0,614.0,1020.0,12.0,0.0
2147,52.0,0.0,600.0,15.0,0.0
2148,54.0,0.0,600.0,4.0,0.0
2149,69.0,614.0,2040.0,11.0,0.0
2150,54.0,0.0,600.0,15.0,0.0
2151,54.0,0.0,2040.0,14.0,0.0
2152,54.0,1024.0,600.0,8.0,0.0
2153,62.0,512.0,3060.0,12.0,0.0
2154,50.0,0.0,600.0,8.0,0.0
2155,50.0,0.0,600.0,4.0,0.0
2156,50.0,410.0,600.0,15.0,0.0
2157,43.0,410.0,600.0,15.0,0.0
2158,58.0,0.0,6150.0,13.0,0.0
2159,43.0,0.0,600.0,8.0,0.0
2160,70.0,0.0,3060.0,11.0,0.0
2161,43.0,0.0,600.0,4.0,0.0
2162,45.0,0.0,600.0,4.0,0.0
2163,45.0,0.0,600.0,8.0,0.0
2164,62.0,102.0,510.0,12.0,0.0
2165,45.0,410.0,600.0,15.0,0.0
2166,60.0,614.0,510.0,12.0,0.0
2167,46.0,0.0,600.0,15.0,0.0
2168,46.0,410.0,600.0,8.0,0.0
2169,62.0,614.0,1020.0,12.0,0.0
2170,46.0,0.0,600.0,4.0,0.0
2171,55.0,0.0,15.0,14.0,0.0
2172,43.0,0.0,600.0,8.0,0.0
2173,70.0,0.0,1020.0,11.0,0.0
2174,58.0,0.0,1020.0,12.0,0.0
2175,43.0,410.0,600.0,15.0,0.0
2176,43.0,0.0,600.0,4.0,0.0
2177,69.0,614.0,1020.0,11.0,0.0
2178,38.0,0.0,600.0,4.0,0.0
2179,65.0,0.0,1020.0,12.0,0.0
2180,38.0,410.0,600.0,15.0,0.0
2181,38.0,0.0,600.0,8.0,0.0
2182,53.0,0.0,1020.0,14.0,0.0
2183,39.0,0.0,600.0,4.0,0.0
2184,39.0,0.0,600.0,15.0,0.0
2185,39.0,410.0,600.0,8.0,0.0
2186,46.0,614.0,1020.0,14.0,0.0
2187,67.0,0.0,1020.0,12.0,0.0
2188,62.0,0.0,1020.0,11.0,0.0
2189,68.0,614.0,2040.0,12.0,0.0
2190,41.0,0.0,600.0,8.0,0.0
2191,74.0,0.0,4110.0,11.0,0.0
2192,58.0,0.0,4110.0,14.0,0.0
2193,65.0,1024.0,600.0,10.0,0.0
2194,41.0,0.0,600.0,4.0,0.0
2195,41.0,0.0,600.0,15.0,0.0
2196,65.0,0.0,600.0,10.0,0.0
2197,38.0,410.0,600.0,8.0,0.0
2198,38.0,0.0,600.0,4.0,0.0
2199,38.0,0.0,600.0,15.0,0.0
2200,43.0,0.0,600.0,8.0,0.0
2201,43.0,0.0,600.0,4.0,0.0
2202,67.0,205.0,1830.0,12.0,0.0
2203,65.0,512.0,1020.0,10.0,0.0
2204,43.0,410.0,600.0,15.0,0.0
2205,45.0,307.0,510.0,8.0,0.0
2206,45.0,0.0,510.0,4.0,0.0
2207,58.0,0.0,1020.0,10.0,0.0
2208,45.0,0.0,510.0,15.0,0.0
2209,46.0,0.0,510.0,15.0,0.0
2210,46.0,614.0,510.0,4.0,0.0
2211,46.0,0.0,510.0,8.0,0.0
2212,72.0,512.0,3060.0,11.0,0.0
2213,63.0,0.0,3060.0,10.0,0.0
2214,48.0,1024.0,600.0,8.0,0.0
2215,57.0,614.0,2040.0,14.0,0.0
2216,48.0,0.0,600.0,4.0,0.0
2217,48.0,0.0,600.0,15.0,0.0
2218,69.0,0.0,600.0,12.0,0.0
2219,69.0,0.0,600.0,12.0,0.0
2220,42.0,0.0,600.0,15.0,0.0
2221,42.0,0.0,600.0,4.0,0.0
2222,42.0,410.0,600.0,8.0,0.0
2223,58.0,205.0,1830.0,14.0,0.0
2224,43.0,0.0,600.0,15.0,0.0
2225,43.0,0.0,600.0,8.0,0.0
2226,43.0,410.0,600.0,4.0,0.0
2227,69.0,0.0,1020.0,12.0,0.0
2228,45.0,0.0,600.0,8.0,0.0
2229,62.0,102.0,510.0,10.0,0.0
2230,45.0,0.0,600.0,15.0,0.0
2231,62.0,0.0,1020.0,12.0,0.0
2232,65.0,0.0,1020.0,11.0,0.0
2233,45.0,205.0,600.0,4.0,0.0
2234,60.0,614.0,510.0,10.0,0.0
2235,46.0,0.0,3060.0,14.0,0.0
2236,67.0,512.0,3060.0,12.0,0.0
2237,46.0,0.0,600.0,8.0,0.0
2238,46.0,0.0,600.0,15.0,0.0
2239,70.0,614.0,2040.0,11.0,0.0
2240,62.0,614.0,1020.0,10.0,0.0
2241,46.0,410.0,600.0,4.0,0.0
2242,58.0,0.0,1020.0,10.0,0.0
2243,43.0,410.0,600.0,8.0,0.0
2244,43.0,0.0,600.0,15.0,0.0
2245,43.0,0.0,600.0,4.0,0.0
2246,39.0,0.0,600.0,15.0,0.0
2247,39.0,410.0,600.0,8.0,0.0
2248,58.0,0.0,15.0,13.0,0.0
2249,39.0,0.0,600.0,4.0,0.0
2250,63.0,0.0,2040.0,10.0,0.0
2251,36.0,410.0,600.0,8.0,0.0
2252,48.0,614.0,1020.0,14.0,0.0
2253,36.0,0.0,600.0,4.0,0.0
2254,36.0,0.0,600.0,15.0,0.0
2255,65.0,102.0,510.0,12.0,0.0
2256,63.0,0.0,510.0,12.0,0.0
2257,43.0,410.0,600.0,4.0,0.0
2258,43.0,0.0,600.0,8.0,0.0
2259,65.0,0.0,1020.0,12.0,0.0
2260,62.0,0.0,2040.0,10.0,0.0
2261,43.0,0.0,600.0,15.0,0.0
2262,50.0,614.0,1020.0,14.0,0.0
2263,74.0,0.0,600.0,11.0,0.0
2264,62.0,0.0,1020.0,12.0,0.0
2265,46.0,614.0,1020.0,14.0,0.0
2266,74.0,0.0,600.0,11.0,0.0
2267,46.0,0.0,600.0,8.0,0.0
2268,46.0,0.0,600.0,15.0,0.0
2269,46.0,410.0,600.0,4.0,0.0
2270,74.0,614.0,1020.0,11.0,0.0
2271,48.0,410.0,600.0,8.0,0.0
2272,64.0,0.0,2040.0,12.0,0.0
2273,48.0,614.0,3060.0,14.0,0.0
2274,48.0,0.0,600.0,4.0,0.0
2275,48.0,0.0,600.0,15.0,0.0
2276,57.0,0.0,4110.0,13.0,0.0
2277,60.0,0.0,2040.0,10.0,0.0
2278,46.0,0.0,600.0,4.0,0.0
2279,46.0,410.0,600.0,8.0,0.0
2280,46.0,0.0,600.0,15.0,0.0
2281,67.0,614.0,1020.0,11.0,0.0
2282,45.0,410.0,600.0,4.0,0.0
2283,45.0,0.0,600.0,8.0,0.0
2284,45.0,0.0,600.0,15.0,0.0
2285,66.0,0.0,2040.0,12.0,0.0
2286,72.0,512.0,3060.0,11.0,0.0
2287,50.0,410.0,600.0,8.0,0.0
2288,50.0,0.0,600.0,4.0,0.0
2289,50.0,0.0,600.0,15.0,0.0
2290,50.0,614.0,1020.0,14.0,0.0
2291,43.0,0.0,600.0,4.0,0.0
2292,43.0,410.0,600.0,15.0,0.0
2293,43.0,0.0,600.0,8.0,0.0
2294,43.0,205.0,1830.0,14.0,0.0
2295,67.0,0.0,600.0,12.0,0.0
2296,55.0,0.0,4110.0,13.0,0.0
2297,62.0,614.0,2040.0,12.0,0.0
2298,55.0,0.0,510.0,15.0,0.0
2299,70.0,0.0,510.0,11.0,0.0
2300,55.0,0.0,510.0,4.0,0.0
2301,55.0,307.0,510.0,8.0,0.0
2302,69.0,614.0,510.0,11.0,0.0
2303,54.0,0.0,510.0,15.0,0.0
2304,54.0,0.0,510.0,4.0,0.0
2305,54.0,0.0,510.0,8.0,0.0
2306,55.0,410.0,2670.0,15.0,0.0
2307,55.0,0.0,2670.0,4.0,0.0
2308,55.0,0.0,2670.0,8.0,0.0
2309,70.0,0.0,1020.0,11.0,0.0
2310,55.0,410.0,600.0,14.0,0.0
2311,55.0,410.0,600.0,14.0,0.0
2312,67.0,0.0,1020.0,11.0,0.0
2313,58.0,614.0,1020.0,12.0,0.0
2314,55.0,614.0,1020.0,14.0,0.0
2315,60.0,0.0,4110.0,13.0,0.0
2316,63.0,0.0,2040.0,12.0,0.0
2317,69.0,512.0,2040.0,11.0,0.0
2318,48.0,0.0,600.0,15.0,0.0
2319,48.0,0.0,1020.0,14.0,0.0
2320,48.0,0.0,600.0,4.0,0.0
2321,48.0,410.0,600.0,8.0,0.0
2322,65.0,0.0,1020.0,12.0,0.0
2323,53.0,512.0,510.0,8.0,0.0
2324,53.0,0.0,510.0,15.0,0.0
2325,68.0,0.0,2040.0,11.0,0.0
2326,53.0,512.0,3060.0,14.0,0.0
2327,68.0,0.0,2040.0,10.0,0.0
2328,53.0,0.0,510.0,4.0,0.0
2329,51.0,0.0,510.0,4.0,0.0
2330,51.0,0.0,510.0,8.0,0.0
2331,51.0,512.0,510.0,15.0,0.0
2332,50.0,512.0,510.0,8.0,0.0
2333,63.0,0.0,1020.0,12.0,0.0
2334,50.0,0.0,510.0,4.0,0.0
2335,50.0,0.0,510.0,15.0,0.0
2336,48.0,0.0,510.0,8.0,0.0
2337,48.0,0.0,510.0,4.0,0.0
2338,48.0,614.0,510.0,15.0,0.0
2339,62.0,0.0,1020.0,12.0,0.0
2340,46.0,0.0,600.0,15.0,0.0
2341,46.0,0.0,600.0,8.0,0.0
2342,62.0,0.0,6150.0,13.0,0.0
2343,70.0,0.0,3060.0,10.0,0.0
2344,67.0,410.0,600.0,11.0,0.0
2345,46.0,0.0,600.0,4.0,0.0
2346,48.0,0.0,600.0,15.0,0.0
2347,69.0,0.0,1020.0,11.0,0.0
2348,60.0,614.0,1020.0,12.0,0.0
2349,48.0,0.0,600.0,4.0,0.0
2350,53.0,102.0,510.0,14.0,0.0
2351,48.0,410.0,600.0,8.0,0.0
2352,51.0,0.0,510.0,14.0,0.0
2353,50.0,0.0,600.0,15.0,0.0
2354,50.0,0.0,600.0,8.0,0.0
2355,53.0,614.0,1020.0,14.0,0.0
2356,70.0,0.0,4110.0,11.0,0.0
2357,50.0,410.0,600.0,4.0,0.0
2358,58.0,0.0,2040.0,12.0,0.0
2359,46.0,0.0,600.0,8.0,0.0
2360,68.0,614.0,1020.0,10.0,0.0
2361,46.0,0.0,600.0,15.0,0.0
2362,46.0,0.0,1020.0,14.0,0.0
2363,46.0,410.0,600.0,4.0,0.0
2364,51.0,410.0,600.0,8.0,0.0
2365,51.0,0.0,600.0,15.0,0.0
2366,51.0,614.0,4110.0,14.0,0.0
2367,67.0,614.0,1020.0,10.0,0.0
2368,51.0,0.0,600.0,4.0,0.0
2369,50.0,0.0,600.0,8.0,0.0
2370,60.0,614.0,1020.0,10.0,0.0
2371,50.0,410.0,600.0,4.0,0.0
2372,50.0,0.0,600.0,15.0,0.0
2373,60.0,0.0,2040.0,12.0,0.0
2374,51.0,0.0,600.0,15.0,0.0
2375,69.0,512.0,1020.0,11.0,0.0
2376,51.0,410.0,600.0,8.0,0.0
2377,51.0,0.0,600.0,4.0,0.0
2378,72.0,0.0,4110.0,10.0,0.0
2379,53.0,0.0,510.0,8.0,0.0
2380,67.0,0.0,1020.0,11.0,0.0
2381,53.0,0.0,510.0,4.0,0.0
2382,53.0,512.0,510.0,15.0,0.0
2383,51.0,0.0,510.0,15.0,0.0
2384,51.0,0.0,510.0,8.0,0.0
2385,51.0,0.0,510.0,4.0,0.0
2386,50.0,1024.0,600.0,14.0,0.0
2387,66.0,205.0,1830.0,11.0,0.0
2388,50.0,0.0,600.0,8.0,0.0
2389,62.0,1024.0,3060.0,12.0,0.0
2390,50.0,0.0,600.0,15.0,0.0
2391,50.0,0.0,600.0,4.0,0.0
2392,43.0,1024.0,1020.0,14.0,0.0
2393,43.0,0.0,600.0,8.0,0.0
2394,43.0,0.0,600.0,15.0,0.0
2395,43.0,205.0,600.0,4.0,0.0
2396,55.0,0.0,4110.0,8.0,0.0
2397,65.0,0.0,2040.0,11.0,0.0
2398,55.0,0.0,4110.0,14.0,0.0
2399,55.0,0.0,4110.0,4.0,0.0
2400,71.0,1024.0,2040.0,10.0,0.0
2401,55.0,614.0,4110.0,15.0,0.0
2402,62.0,0.0,1020.0,12.0,0.0
2403,64.0,0.0,2040.0,11.0,0.0
2404,60.0,614.0,4110.0,13.0,0.0
2405,60.0,614.0,1020.0,12.0,0.0
2406,72.0,0.0,2040.0,10.0,0.0
2407,57.0,410.0,600.0,12.0,0.0
2408,63.0,0.0,2040.0,11.0,0.0
2409,69.0,1024.0,600.0,12.0,0.0
2410,54.0,0.0,2040.0,4.0,0.0
2411,54.0,0.0,2040.0,8.0,0.0
2412,54.0,0.0,2040.0,14.0,0.0
2413,54.0,0.0,2040.0,15.0,0.0
2414,69.0,410.0,600.0,12.0,0.0
2415,69.0,512.0,1020.0,12.0,0.0
2416,55.0,768.0,2910.0,14.0,0.0
2417,58.0,614.0,4110.0,13.0,0.0
2418,55.0,0.0,600.0,8.0,0.0
2419,55.0,410.0,600.0,15.0,0.0
2420,62.0,0.0,2040.0,11.0,0.0
2421,55.0,0.0,600.0,4.0,0.0
2422,58.0,512.0,510.0,4.0,0.0
2423,62.0,614.0,1020.0,12.0,0.0
2424,58.0,0.0,510.0,8.0,0.0
2425,58.0,0.0,510.0,15.0,0.0
2426,57.0,0.0,510.0,8.0,0.0
2427,57.0,0.0,510.0,4.0,0.0
2428,57.0,0.0,510.0,15.0,0.0
2429,55.0,0.0,600.0,8.0,0.0
2430,61.0,0.0,2040.0,11.0,0.0
2431,67.0,512.0,3060.0,12.0,0.0
2432,55.0,0.0,600.0,4.0,0.0
2433,55.0,256.0,600.0,15.0,0.0
2434,53.0,0.0,600.0,4.0,0.0
2435,53.0,0.0,1020.0,14.0,0.0
2436,53.0,410.0,600.0,15.0,0.0
2437,53.0,0.0,600.0,8.0,0.0
2438,60.0,614.0,2040.0,11.0,0.0
2439,70.0,0.0,15.0,10.0,0.0
2440,60.0,0.0,4110.0,13.0,0.0
2441,52.0,0.0,1020.0,14.0,0.0
2442,52.0,0.0,600.0,4.0,0.0
2443,52.0,410.0,600.0,15.0,0.0
2444,52.0,0.0,600.0,8.0,0.0
2445,65.0,102.0,510.0,12.0,0.0
2446,48.0,410.0,600.0,8.0,0.0
2447,48.0,0.0,1020.0,14.0,0.0
2448,48.0,0.0,600.0,4.0,0.0
2449,48.0,0.0,600.0,15.0,0.0
2450,64.0,0.0,510.0,12.0,0.0
2451,53.0,614.0,1020.0,14.0,0.0
2452,53.0,0.0,600.0,8.0,0.0
2453,69.0,614.0,2040.0,10.0,0.0
2454,53.0,410.0,600.0,15.0,0.0
2455,53.0,0.0,600.0,4.0,0.0
2456,51.0,0.0,1020.0,14.0,0.0
2457,65.0,0.0,15.0,12.0,0.0
2458,51.0,0.0,600.0,4.0,0.0
2459,51.0,0.0,600.0,8.0,0.0
2460,51.0,410.0,600.0,15.0,0.0
2461,50.0,0.0,1020.0,14.0,0.0
2462,65.0,614.0,1020.0,12.0,0.0
2463,50.0,410.0,600.0,15.0,0.0
2464,58.0,205.0,5940.0,13.0,0.0
2465,68.0,0.0,2040.0,10.0,0.0
2466,50.0,0.0,600.0,4.0,0.0
2467,50.0,0.0,600.0,8.0,0.0
2468,46.0,614.0,1020.0,14.0,0.0
2469,62.0,0.0,1020.0,12.0,0.0
2470,46.0,410.0,600.0,15.0,0.0
2471,46.0,0.0,600.0,8.0,0.0
2472,46.0,0.0,600.0,4.0,0.0
2473,48.0,0.0,600.0,4.0,0.0
2474,63.0,0.0,1020.0,12.0,0.0
2475,48.0,614.0,1020.0,14.0,0.0
2476,48.0,0.0,600.0,8.0,0.0
2477,48.0,410.0,600.0,15.0,0.0
2478,67.0,0.0,1020.0,10.0,0.0
2479,70.0,0.0,3060.0,11.0,0.0
2480,50.0,410.0,600.0,4.0,0.0
2481,65.0,0.0,1020.0,12.0,0.0
2482,50.0,0.0,600.0,8.0,0.0
2483,65.0,0.0,1020.0,10.0,0.0
2484,50.0,0.0,600.0,15.0,0.0
2485,50.0,614.0,1020.0,14.0,0.0
2486,51.0,0.0,600.0,15.0,0.0
2487,51.0,410.0,600.0,8.0,0.0
2488,67.0,614.0,1020.0,10.0,0.0
2489,58.0,0.0,1020.0,12.0,0.0
2490,51.0,0.0,1020.0,14.0,0.0
2491,51.0,0.0,600.0,4.0,0.0
2492,65.0,614.0,1020.0,10.0,0.0
2493,53.0,0.0,1020.0,14.0,0.0
2494,62.0,0.0,1020.0,12.0,0.0
2495,53.0,205.0,600.0,8.0,0.0
2496,53.0,0.0,600.0,15.0,0.0
2497,53.0,0.0,600.0,4.0,0.0
2498,68.0,0.0,1020.0,11.0,0.0
2499,55.0,410.0,600.0,15.0,0.0
2500,58.0,512.0,1020.0,13.0,0.0
2501,67.0,0.0,3060.0,11.0,0.0
2502,55.0,0.0,1020.0,12.0,0.0
2503,55.0,0.0,1020.0,14.0,0.0
2504,55.0,0.0,600.0,4.0,0.0
2505,55.0,0.0,600.0,8.0,0.0
2506,63.0,0.0,3060.0,10.0,0.0
2507,51.0,614.0,1020.0,14.0,0.0
2508,51.0,0.0,600.0,15.0,0.0
2509,55.0,0.0,1020.0,13.0,0.0
2510,57.0,102.0,510.0,12.0,0.0
2511,51.0,0.0,600.0,8.0,0.0
2512,51.0,410.0,600.0,4.0,0.0
2513,59.0,0.0,510.0,12.0,0.0
2514,51.0,0.0,1020.0,13.0,0.0
2515,48.0,410.0,600.0,4.0,0.0
2516,48.0,0.0,600.0,15.0,0.0
2517,48.0,614.0,1020.0,14.0,0.0
2518,60.0,0.0,1020.0,12.0,0.0
2519,48.0,0.0,600.0,8.0,0.0
2520,59.0,0.0,1020.0,12.0,0.0
2521,50.0,0.0,600.0,4.0,0.0
2522,50.0,410.0,600.0,8.0,0.0
2523,62.0,0.0,1020.0,10.0,0.0
2524,65.0,614.0,1020.0,11.0,0.0
2525,53.0,0.0,1020.0,13.0,0.0
2526,50.0,0.0,1020.0,14.0,0.0
2527,50.0,0.0,600.0,15.0,0.0
2528,51.0,0.0,1020.0,14.0,0.0
2529,51.0,410.0,600.0,8.0,0.0
2530,55.0,0.0,3060.0,13.0,0.0
2531,60.0,614.0,3060.0,10.0,0.0
2532,63.0,0.0,3060.0,11.0,0.0
2533,51.0,0.0,600.0,15.0,0.0
2534,51.0,0.0,600.0,4.0,0.0
2535,60.0,614.0,1020.0,12.0,0.0
2536,48.0,614.0,1020.0,14.0,0.0
2537,48.0,410.0,600.0,4.0,0.0
2538,48.0,0.0,600.0,15.0,0.0
2539,48.0,0.0,600.0,8.0,0.0
2540,55.0,0.0,1020.0,12.0,0.0
2541,44.0,0.0,600.0,8.0,0.0
2542,44.0,0.0,600.0,15.0,0.0
2543,60.0,0.0,1020.0,12.0,0.0
2544,44.0,410.0,600.0,4.0,0.0
2545,44.0,0.0,1020.0,14.0,0.0
2546,46.0,410.0,600.0,15.0,0.0
2547,53.0,0.0,1020.0,13.0,0.0
2548,62.0,0.0,1020.0,11.0,0.0
2549,46.0,614.0,1020.0,14.0,0.0
2550,46.0,0.0,600.0,8.0,0.0
2551,58.0,0.0,1020.0,12.0,0.0
2552,62.0,0.0,1020.0,10.0,0.0
2553,46.0,0.0,600.0,4.0,0.0
2554,48.0,410.0,600.0,4.0,0.0
2555,48.0,0.0,600.0,8.0,0.0
2556,60.0,0.0,1020.0,11.0,0.0
2557,48.0,0.0,600.0,15.0,0.0
2558,51.0,614.0,1020.0,13.0,0.0
2559,48.0,0.0,1020.0,14.0,0.0
2560,63.0,0.0,1020.0,10.0,0.0
2561,57.0,0.0,1020.0,12.0,0.0
2562,46.0,614.0,1020.0,14.0,0.0
2563,46.0,0.0,600.0,4.0,0.0
2564,62.0,0.0,1020.0,11.0,0.0
2565,56.0,0.0,1020.0,12.0,0.0
2566,65.0,0.0,1020.0,10.0,0.0
2567,50.0,0.0,1020.0,13.0,0.0
2568,46.0,410.0,600.0,8.0,0.0
2569,46.0,0.0,600.0,15.0,0.0
2570,45.0,0.0,600.0,15.0,0.0
2571,45.0,410.0,600.0,4.0,0.0
2572,48.0,0.0,2040.0,13.0,0.0
2573,63.0,614.0,8190.0,11.0,0.0
2574,66.0,0.0,8190.0,10.0,0.0
2575,45.0,0.0,600.0,8.0,0.0
2576,45.0,0.0,4110.0,14.0,0.0
2577,54.0,614.0,1020.0,12.0,0.0
2578,53.0,614.0,1020.0,12.0,0.0
2579,45.0,0.0,600.0,8.0,0.0
2580,45.0,0.0,600.0,15.0,0.0
2581,45.0,410.0,600.0,4.0,0.0
2582,45.0,0.0,600.0,8.0,0.0
2583,60.0,0.0,2040.0,13.0,0.0
2584,51.0,614.0,1020.0,12.0,0.0
2585,45.0,0.0,600.0,15.0,0.0
2586,45.0,410.0,600.0,4.0,0.0
2587,53.0,614.0,1020.0,12.0,0.0
2588,45.0,0.0,600.0,4.0,0.0
2589,45.0,410.0,600.0,8.0,0.0
2590,45.0,0.0,600.0,15.0,0.0
2591,46.0,0.0,600.0,8.0,0.0
2592,58.0,614.0,2040.0,13.0,0.0
2593,46.0,0.0,600.0,15.0,0.0
2594,46.0,0.0,5940.0,14.0,0.0
2595,54.0,614.0,1020.0,12.0,0.0
2596,46.0,410.0,600.0,4.0,0.0
2597,46.0,0.0,600.0,15.0,0.0
2598,51.0,0.0,1020.0,12.0,0.0
2599,46.0,0.0,600.0,8.0,0.0
2600,46.0,410.0,600.0,4.0,0.0
2601,46.0,0.0,600.0,15.0,0.0
2602,60.0,0.0,2040.0,12.0,0.0
2603,57.0,0.0,2040.0,13.0,0.0
2604,46.0,0.0,600.0,8.0,0.0
2605,46.0,1024.0,600.0,4.0,0.0
2606,46.0,0.0,600.0,4.0,0.0
2607,46.0,0.0,600.0,15.0,0.0
2608,46.0,410.0,600.0,8.0,0.0
2609,53.0,0.0,1830.0,12.0,0.0
2610,62.0,819.0,1830.0,11.0,0.0
2611,46.0,1024.0,600.0,15.0,0.0
2612,46.0,0.0,600.0,8.0,0.0
2613,58.0,0.0,1830.0,13.0,0.0
2614,65.0,0.0,1830.0,10.0,0.0
2615,46.0,0.0,600.0,4.0,0.0
2616,46.0,0.0,600.0,15.0,0.0
2617,46.0,0.0,600.0,4.0,0.0
2618,46.0,205.0,600.0,8.0,0.0
2619,65.0,0.0,4110.0,11.0,0.0
2620,46.0,0.0,600.0,15.0,0.0
2621,70.0,0.0,4110.0,10.0,0.0
2622,58.0,0.0,4110.0,14.0,0.0
2623,46.0,1024.0,600.0,4.0,0.0
2624,62.0,614.0,4110.0,12.0,0.0
2625,46.0,0.0,600.0,8.0,0.0
2626,58.0,0.0,4110.0,13.0,0.0
2627,46.0,0.0,600.0,4.0,0.0
2628,46.0,1024.0,600.0,15.0,0.0
2629,46.0,0.0,600.0,8.0,0.0
2630,46.0,0.0,600.0,15.0,0.0
2631,46.0,1024.0,600.0,4.0,0.0
2632,46.0,0.0,600.0,8.0,0.0
2633,46.0,0.0,600.0,4.0,0.0
2634,46.0,0.0,600.0,15.0,0.0
2635,46.0,410.0,600.0,8.0,0.0
2636,53.0,614.0,1020.0,13.0,0.0
2637,44.0,0.0,600.0,4.0,0.0
2638,56.0,0.0,2040.0,14.0,0.0
2639,65.0,0.0,2040.0,11.0,0.0
2640,44.0,410.0,600.0,8.0,0.0
2641,62.0,0.0,2040.0,12.0,0.0
2642,71.0,0.0,2040.0,10.0,0.0
2643,44.0,0.0,600.0,15.0,0.0
2644,44.0,410.0,600.0,4.0,0.0
2645,44.0,0.0,600.0,8.0,0.0
2646,56.0,614.0,1020.0,13.0,0.0
2647,44.0,0.0,600.0,15.0,0.0
2648,42.0,0.0,600.0,15.0,0.0
2649,62.0,614.0,7170.0,12.0,0.0
2650,42.0,1024.0,600.0,8.0,0.0
2651,71.0,614.0,8190.0,10.0,0.0
2652,54.0,0.0,4110.0,14.0,0.0
2653,66.0,614.0,4110.0,11.0,0.0
2654,42.0,0.0,600.0,4.0,0.0
2655,59.0,614.0,3060.0,13.0,0.0
2656,42.0,1024.0,600.0,15.0,0.0
2657,42.0,0.0,600.0,4.0,0.0
2658,42.0,0.0,600.0,8.0,0.0
2659,42.0,410.0,600.0,4.0,0.0
2660,42.0,0.0,600.0,8.0,0.0
2661,42.0,0.0,600.0,15.0,0.0
2662,42.0,0.0,600.0,4.0,0.0
2663,57.0,0.0,1020.0,13.0,0.0
2664,42.0,410.0,600.0,8.0,0.0
2665,42.0,0.0,600.0,15.0,0.0
2666,41.0,410.0,600.0,4.0,0.0
2667,41.0,0.0,600.0,15.0,0.0
2668,53.0,0.0,4110.0,14.0,0.0
2669,41.0,0.0,600.0,8.0,0.0
2670,68.0,0.0,4110.0,11.0,0.0
2671,56.0,614.0,1020.0,13.0,0.0
2672,41.0,0.0,600.0,4.0,0.0
2673,54.0,614.0,1020.0,13.0,0.0
2674,41.0,410.0,600.0,15.0,0.0
2675,41.0,0.0,600.0,8.0,0.0
2676,41.0,0.0,600.0,15.0,0.0
2677,41.0,410.0,600.0,8.0,0.0
2678,56.0,614.0,3060.0,13.0,0.0
2679,41.0,0.0,600.0,4.0,0.0
2680,61.0,0.0,1020.0,12.0,0.0
2681,41.0,0.0,600.0,8.0,0.0
2682,41.0,410.0,600.0,15.0,0.0
2683,41.0,0.0,600.0,4.0,0.0
2684,42.0,410.0,600.0,15.0,0.0
2685,70.0,0.0,1830.0,11.0,0.0
2686,42.0,0.0,600.0,8.0,0.0
2687,54.0,0.0,6150.0,14.0,0.0
2688,61.0,0.0,1830.0,12.0,0.0
2689,42.0,0.0,600.0,4.0,0.0
2690,70.0,103.0,1830.0,10.0,0.0
2691,42.0,205.0,600.0,4.0,0.0
2692,54.0,716.0,930.0,13.0,0.0
2693,42.0,0.0,600.0,15.0,0.0
2694,42.0,0.0,600.0,8.0,0.0
2695,42.0,1024.0,600.0,4.0,0.0
2696,69.0,0.0,2040.0,11.0,0.0
2697,42.0,0.0,600.0,15.0,0.0
2698,72.0,0.0,2040.0,10.0,0.0
2699,60.0,614.0,2040.0,12.0,0.0
2700,63.0,0.0,2040.0,13.0,0.0
2701,42.0,0.0,600.0,8.0,0.0
2702,42.0,0.0,600.0,8.0,0.0
2703,42.0,410.0,600.0,15.0,0.0
2704,42.0,0.0,600.0,4.0,0.0
2705,42.0,0.0,600.0,8.0,0.0
2706,42.0,410.0,600.0,4.0,0.0
2707,61.0,614.0,1020.0,13.0,0.0
2708,70.0,614.0,5130.0,11.0,0.0
2709,73.0,614.0,6150.0,10.0,0.0
2710,58.0,0.0,1020.0,12.0,0.0
2711,42.0,0.0,600.0,15.0,0.0
2712,42.0,410.0,600.0,15.0,0.0
2713,42.0,0.0,600.0,8.0,0.0
2714,60.0,614.0,1020.0,12.0,0.0
2715,42.0,0.0,600.0,4.0,0.0
2716,63.0,0.0,1020.0,13.0,0.0
2717,41.0,0.0,600.0,4.0,0.0
2718,41.0,0.0,600.0,8.0,0.0
2719,65.0,614.0,1020.0,13.0,0.0
2720,41.0,410.0,600.0,15.0,0.0
2721,53.0,0.0,2040.0,14.0,0.0
2722,61.0,0.0,1020.0,12.0,0.0
2723,41.0,0.0,600.0,8.0,0.0
2724,41.0,410.0,600.0,4.0,0.0
2725,58.0,0.0,1020.0,12.0,0.0
2726,61.0,614.0,1020.0,13.0,0.0
2727,41.0,0.0,600.0,15.0,0.0
2728,52.0,0.0,4110.0,14.0,0.0
2729,67.0,0.0,2040.0,12.0,0.0
2730,40.0,0.0,600.0,8.0,0.0
2731,40.0,410.0,600.0,15.0,0.0
2732,40.0,0.0,600.0,4.0,0.0
2733,58.0,0.0,2040.0,13.0,0.0
2734,67.0,0.0,1020.0,11.0,0.0
2735,40.0,410.0,600.0,15.0,0.0
2736,40.0,0.0,600.0,8.0,0.0
2737,40.0,0.0,600.0,4.0,0.0
2738,55.0,0.0,2040.0,13.0,0.0
2739,72.0,614.0,1020.0,10.0,0.0
2740,67.0,0.0,2040.0,12.0,0.0
2741,40.0,0.0,600.0,15.0,0.0
2742,72.0,614.0,3060.0,11.0,0.0
2743,40.0,410.0,600.0,8.0,0.0
2744,40.0,0.0,600.0,4.0,0.0
2745,40.0,410.0,600.0,4.0,0.0
2746,40.0,0.0,600.0,15.0,0.0
2747,70.0,614.0,1020.0,10.0,0.0
2748,40.0,0.0,600.0,8.0,0.0
2749,39.0,0.0,600.0,8.0,0.0
2750,60.0,614.0,3060.0,13.0,0.0
2751,65.0,0.0,2040.0,12.0,0.0
2752,51.0,0.0,4110.0,14.0,0.0
2753,39.0,410.0,600.0,4.0,0.0
2754,69.0,0.0,1020.0,10.0,0.0
2755,39.0,0.0,600.0,15.0,0.0
2756,65.0,614.0,1020.0,10.0,0.0
2757,39.0,410.0,600.0,4.0,0.0
2758,69.0,0.0,1020.0,11.0,0.0
2759,39.0,0.0,600.0,8.0,0.0
2760,39.0,0.0,600.0,15.0,0.0
2761,39.0,0.0,600.0,15.0,0.0
2762,39.0,0.0,600.0,4.0,0.0
2763,60.0,0.0,2040.0,12.0,0.0
2764,67.0,0.0,1020.0,10.0,0.0
2765,39.0,410.0,600.0,8.0,0.0
2766,70.0,0.0,1020.0,11.0,0.0
2767,39.0,410.0,600.0,4.0,0.0
2768,39.0,0.0,600.0,15.0,0.0
2769,69.0,0.0,1020.0,10.0,0.0
2770,39.0,0.0,600.0,8.0,0.0
2771,72.0,614.0,1020.0,11.0,0.0
2772,60.0,0.0,1020.0,13.0,0.0
2773,37.0,0.0,600.0,8.0,0.0
2774,58.0,0.0,2040.0,13.0,0.0
2775,70.0,614.0,1020.0,10.0,0.0
2776,37.0,0.0,600.0,4.0,0.0
2777,49.0,614.0,6150.0,14.0,0.0
2778,65.0,614.0,2040.0,11.0,0.0
2779,61.0,0.0,2040.0,12.0,0.0
2780,37.0,410.0,600.0,15.0,0.0
2781,37.0,0.0,600.0,8.0,0.0
2782,65.0,0.0,1020.0,10.0,0.0
2783,37.0,410.0,600.0,4.0,0.0
2784,37.0,0.0,600.0,15.0,0.0
2785,61.0,614.0,1020.0,10.0,0.0
2786,58.0,0.0,2040.0,12.0,0.0
2787,53.0,614.0,2040.0,13.0,0.0
2788,37.0,0.0,600.0,4.0,0.0
2789,37.0,410.0,600.0,15.0,0.0
2790,37.0,0.0,600.0,8.0,0.0
2791,70.0,0.0,2040.0,11.0,0.0
2792,37.0,0.0,600.0,4.0,0.0
2793,58.0,0.0,1020.0,10.0,0.0
2794,37.0,0.0,600.0,8.0,0.0
2795,37.0,410.0,600.0,15.0,0.0
2796,64.0,0.0,4110.0,10.0,0.0
2797,55.0,0.0,1020.0,13.0,0.0
2798,37.0,0.0,600.0,8.0,0.0
2799,37.0,410.0,600.0,4.0,0.0
2800,58.0,614.0,1020.0,11.0,0.0
2801,37.0,0.0,600.0,15.0,0.0
2802,57.0,0.0,1020.0,13.0,0.0
2803,60.0,0.0,1020.0,11.0,0.0
2804,49.0,0.0,600.0,4.0,0.0
2805,49.0,410.0,600.0,8.0,0.0
2806,49.0,0.0,600.0,15.0,0.0
2807,58.0,614.0,2040.0,13.0,0.0
2808,55.0,0.0,15.0,12.0,0.0
2809,48.0,0.0,600.0,8.0,0.0
2810,61.0,0.0,2040.0,11.0,0.0
2811,48.0,614.0,1020.0,14.0,0.0
2812,48.0,410.0,600.0,4.0,0.0
2813,48.0,0.0,600.0,15.0,0.0
2814,46.0,0.0,1020.0,14.0,0.0
2815,46.0,0.0,600.0,8.0,0.0
2816,46.0,410.0,600.0,4.0,0.0
2817,46.0,0.0,600.0,15.0,0.0
2818,45.0,410.0,600.0,15.0,0.0
2819,45.0,0.0,600.0,4.0,0.0
2820,63.0,0.0,4110.0,10.0,0.0
2821,45.0,0.0,600.0,8.0,0.0
2822,60.0,0.0,2040.0,13.0,0.0
2823,60.0,0.0,5130.0,11.0,0.0
2824,45.0,614.0,1020.0,14.0,0.0
2825,54.0,0.0,1020.0,12.0,0.0
2826,41.0,410.0,600.0,8.0,0.0
2827,53.0,614.0,1020.0,12.0,0.0
2828,53.0,0.0,1020.0,14.0,0.0
2829,41.0,0.0,600.0,4.0,0.0
2830,41.0,0.0,600.0,15.0,0.0
2831,55.0,0.0,1020.0,14.0,0.0
2832,43.0,0.0,600.0,8.0,0.0
2833,51.0,614.0,1020.0,12.0,0.0
2834,43.0,0.0,600.0,4.0,0.0
2835,48.0,0.0,2040.0,13.0,0.0
2836,43.0,410.0,600.0,15.0,0.0
2837,45.0,0.0,600.0,8.0,0.0
2838,57.0,614.0,1020.0,14.0,0.0
2839,45.0,410.0,600.0,4.0,0.0
2840,45.0,0.0,600.0,15.0,0.0
2841,54.0,0.0,1020.0,12.0,0.0
2842,62.0,0.0,4110.0,10.0,0.0
2843,50.0,512.0,1020.0,13.0,0.0
2844,46.0,0.0,600.0,4.0,0.0
2845,53.0,0.0,2040.0,12.0,0.0
2846,46.0,410.0,600.0,15.0,0.0
2847,46.0,0.0,600.0,8.0,0.0
2848,58.0,0.0,1020.0,14.0,0.0
2849,53.0,614.0,1020.0,14.0,0.0
2850,41.0,410.0,600.0,4.0,0.0
2851,58.0,102.0,510.0,11.0,0.0
2852,41.0,0.0,600.0,15.0,0.0
2853,53.0,0.0,1020.0,13.0,0.0
2854,41.0,0.0,600.0,8.0,0.0
2855,57.0,0.0,510.0,11.0,0.0
2856,58.0,0.0,1020.0,13.0,0.0
2857,58.0,614.0,8190.0,11.0,0.0
2858,53.0,205.0,1830.0,12.0,0.0
2859,38.0,0.0,600.0,4.0,0.0
2860,38.0,0.0,600.0,15.0,0.0
2861,38.0,410.0,600.0,8.0,0.0
2862,50.0,614.0,1020.0,14.0,0.0
2863,34.0,205.0,600.0,8.0,0.0
2864,34.0,0.0,600.0,15.0,0.0
2865,46.0,614.0,1020.0,14.0,0.0
2866,62.0,0.0,1020.0,13.0,0.0
2867,34.0,0.0,600.0,4.0,0.0
2868,40.0,0.0,600.0,4.0,0.0
2869,55.0,614.0,2040.0,12.0,0.0
2870,40.0,410.0,600.0,15.0,0.0
2871,61.0,0.0,6150.0,10.0,0.0
2872,40.0,0.0,4110.0,14.0,0.0
2873,58.0,614.0,1020.0,13.0,0.0
2874,40.0,0.0,600.0,8.0,0.0
2875,40.0,0.0,600.0,4.0,0.0
2876,40.0,410.0,600.0,8.0,0.0
2877,55.0,0.0,1020.0,13.0,0.0
2878,40.0,0.0,600.0,15.0,0.0
2879,40.0,410.0,600.0,15.0,0.0
2880,40.0,0.0,600.0,8.0,0.0
2881,52.0,614.0,1020.0,13.0,0.0
2882,55.0,0.0,2040.0,12.0,0.0
2883,40.0,0.0,600.0,4.0,0.0
2884,55.0,614.0,1020.0,13.0,0.0
2885,40.0,0.0,600.0,8.0,0.0
2886,40.0,0.0,600.0,4.0,0.0
2887,40.0,410.0,600.0,15.0,0.0
2888,53.0,614.0,1020.0,12.0,0.0
2889,41.0,0.0,600.0,15.0,0.0
2890,41.0,0.0,600.0,4.0,0.0
2891,41.0,410.0,600.0,8.0,0.0
2892,41.0,0.0,5940.0,14.0,0.0
2893,46.0,0.0,2040.0,13.0,0.0
2894,41.0,0.0,600.0,4.0,0.0
2895,65.0,0.0,2040.0,12.0,0.0
2896,41.0,410.0,600.0,15.0,0.0
2897,41.0,0.0,600.0,8.0,0.0
2898,48.0,614.0,1020.0,13.0,0.0
2899,41.0,410.0,600.0,15.0,0.0
2900,41.0,0.0,600.0,8.0,0.0
2901,41.0,0.0,600.0,4.0,0.0
2902,57.0,0.0,1020.0,11.0,0.0
2903,60.0,0.0,1020.0,10.0,0.0
2904,58.0,0.0,1020.0,10.0,0.0
2905,55.0,0.0,1020.0,11.0,0.0
2906,41.0,0.0,600.0,4.0,0.0
2907,41.0,410.0,600.0,15.0,0.0
2908,49.0,1843.0,1020.0,13.0,0.0
2909,64.0,0.0,1020.0,12.0,0.0
2910,41.0,0.0,600.0,8.0,0.0
2911,41.0,0.0,1830.0,15.0,0.0
2912,57.0,0.0,1830.0,11.0,0.0
2913,41.0,0.0,1830.0,8.0,0.0
2914,41.0,0.0,1830.0,4.0,0.0
2915,60.0,0.0,1830.0,10.0,0.0
2916,48.0,1229.0,1830.0,13.0,0.0
2917,65.0,0.0,1830.0,12.0,0.0
2918,65.0,1024.0,1020.0,10.0,0.0
2919,66.0,3072.0,1020.0,10.0,0.0
2920,53.0,0.0,1020.0,14.0,0.0
2921,53.0,0.0,2040.0,13.0,0.0
2922,53.0,0.0,1020.0,15.0,0.0
2923,62.0,614.0,1020.0,12.0,0.0
2924,53.0,0.0,1020.0,8.0,0.0
2925,53.0,0.0,1020.0,4.0,0.0
2926,51.0,0.0,600.0,15.0,0.0
2927,51.0,410.0,600.0,8.0,0.0
2928,51.0,0.0,600.0,4.0,0.0
2929,63.0,0.0,1020.0,12.0,0.0
2930,51.0,0.0,1020.0,14.0,0.0
2931,59.0,0.0,15.0,11.0,0.0
2932,50.0,0.0,600.0,4.0,0.0
2933,53.0,0.0,2040.0,13.0,0.0
2934,50.0,0.0,600.0,15.0,0.0
2935,68.0,614.0,15.0,10.0,0.0
2936,65.0,614.0,1020.0,12.0,0.0
2937,50.0,410.0,600.0,8.0,0.0
2938,50.0,0.0,4110.0,14.0,0.0
2939,50.0,0.0,600.0,4.0,0.0
2940,59.0,614.0,1020.0,12.0,0.0
2941,50.0,0.0,600.0,15.0,0.0
2942,50.0,410.0,600.0,8.0,0.0
2943,50.0,1024.0,600.0,4.0,0.0
2944,64.0,0.0,2040.0,12.0,0.0
2945,50.0,0.0,600.0,8.0,0.0
2946,50.0,0.0,2040.0,13.0,0.0
2947,50.0,0.0,600.0,15.0,0.0
2948,50.0,0.0,600.0,15.0,0.0
2949,50.0,0.0,600.0,8.0,0.0
2950,50.0,410.0,600.0,4.0,0.0
2951,49.0,0.0,600.0,15.0,0.0
2952,64.0,0.0,1830.0,12.0,0.0
2953,69.0,205.0,1830.0,10.0,0.0
2954,49.0,0.0,1830.0,14.0,0.0
2955,52.0,0.0,1830.0,13.0,0.0
2956,49.0,308.0,600.0,8.0,0.0
2957,49.0,0.0,600.0,4.0,0.0
2958,57.0,716.0,930.0,11.0,0.0
2959,57.0,614.0,1020.0,11.0,0.0
2960,49.0,0.0,600.0,8.0,0.0
2961,49.0,205.0,600.0,4.0,0.0
2962,49.0,0.0,600.0,15.0,0.0
2963,49.0,0.0,600.0,8.0,0.0
2964,64.0,614.0,4110.0,11.0,0.0
2965,49.0,410.0,600.0,4.0,0.0
2966,49.0,0.0,600.0,15.0,0.0
2967,57.0,614.0,1020.0,10.0,0.0
2968,49.0,0.0,600.0,8.0,0.0
2969,67.0,614.0,1020.0,10.0,0.0
2970,49.0,0.0,600.0,15.0,0.0
2971,49.0,410.0,600.0,4.0,0.0
2972,50.0,0.0,600.0,4.0,0.0
2973,50.0,0.0,600.0,8.0,0.0
2974,65.0,0.0,5130.0,10.0,0.0
2975,50.0,1024.0,600.0,15.0,0.0
2976,50.0,410.0,600.0,8.0,0.0
2977,50.0,0.0,600.0,15.0,0.0
2978,50.0,0.0,600.0,4.0,0.0
2979,53.0,614.0,1020.0,13.0,0.0
2980,50.0,0.0,1020.0,14.0,0.0
2981,50.0,0.0,600.0,15.0,0.0
2982,62.0,0.0,2040.0,11.0,0.0
2983,50.0,410.0,600.0,4.0,0.0
2984,50.0,0.0,600.0,8.0,0.0
2985,57.0,0.0,1020.0,12.0,0.0
2986,50.0,0.0,600.0,4.0,0.0
2987,58.0,614.0,1020.0,12.0,0.0
2988,53.0,0.0,1020.0,14.0,0.0
2989,50.0,0.0,1020.0,13.0,0.0
2990,50.0,410.0,600.0,8.0,0.0
2991,50.0,0.0,600.0,15.0,0.0
2992,45.0,0.0,600.0,15.0,0.0
2993,45.0,410.0,600.0,8.0,0.0
2994,60.0,0.0,1020.0,12.0,0.0
2995,45.0,0.0,600.0,4.0,0.0
2996,48.0,614.0,1020.0,13.0,0.0
2997,57.0,614.0,3060.0,14.0,0.0
2998,45.0,410.0,600.0,15.0,0.0
2999,53.0,614.0,1020.0,12.0,0.0
3000,45.0,0.0,600.0,8.0,0.0
3001,45.0,0.0,600.0,4.0,0.0
3002,65.0,0.0,1020.0,10.0,0.0
3003,60.0,0.0,15.0,13.0,0.0
3004,45.0,0.0,600.0,8.0,0.0
3005,66.0,0.0,3060.0,10.0,0.0
3006,45.0,410.0,600.0,4.0,0.0
3007,63.0,0.0,3060.0,12.0,0.0
3008,45.0,0.0,600.0,15.0,0.0
3009,45.0,0.0,600.0,8.0,0.0
3010,60.0,0.0,15.0,11.0,0.0
3011,60.0,0.0,15.0,13.0,0.0
3012,45.0,410.0,600.0,15.0,0.0
3013,45.0,0.0,600.0,4.0,0.0
3014,57.0,0.0,1020.0,14.0,0.0
3015,46.0,0.0,600.0,4.0,0.0
3016,46.0,410.0,600.0,8.0,0.0
3017,58.0,614.0,1020.0,14.0,0.0
3018,46.0,0.0,600.0,15.0,0.0
3019,58.0,0.0,1020.0,11.0,0.0
3020,46.0,308.0,600.0,15.0,0.0
3021,46.0,0.0,930.0,14.0,0.0
3022,46.0,0.0,600.0,4.0,0.0
3023,46.0,0.0,600.0,8.0,0.0
3024,65.0,102.0,930.0,10.0,0.0
3025,58.0,0.0,2040.0,13.0,0.0
3026,61.0,0.0,930.0,12.0,0.0
3027,65.0,614.0,1020.0,11.0,0.0
3028,46.0,0.0,600.0,15.0,0.0
3029,61.0,614.0,1020.0,12.0,0.0
3030,46.0,0.0,1020.0,14.0,0.0
3031,46.0,410.0,600.0,4.0,0.0
3032,65.0,0.0,2040.0,10.0,0.0
3033,46.0,0.0,600.0,8.0,0.0
3034,60.0,614.0,1020.0,12.0,0.0
3035,46.0,0.0,600.0,15.0,0.0
3036,46.0,0.0,600.0,4.0,0.0
3037,44.0,0.0,1020.0,14.0,0.0
3038,60.0,0.0,1020.0,13.0,0.0
3039,46.0,410.0,600.0,8.0,0.0
3040,70.0,0.0,15.0,11.0,0.0
3041,43.0,0.0,600.0,8.0,0.0
3042,61.0,0.0,2040.0,13.0,0.0
3043,43.0,0.0,4110.0,14.0,0.0
3044,43.0,410.0,600.0,15.0,0.0
3045,65.0,0.0,1020.0,10.0,0.0
3046,43.0,0.0,600.0,4.0,0.0
3047,58.0,614.0,1020.0,12.0,0.0
3048,58.0,614.0,1020.0,11.0,0.0
3049,43.0,410.0,600.0,8.0,0.0
3050,52.0,0.0,2040.0,12.0,0.0
3051,61.0,0.0,1020.0,10.0,0.0
3052,43.0,0.0,600.0,4.0,0.0
3053,43.0,0.0,600.0,15.0,0.0
3054,57.0,0.0,1020.0,10.0,0.0
3055,60.0,0.0,1020.0,13.0,0.0
3056,43.0,410.0,600.0,4.0,0.0
3057,43.0,0.0,600.0,15.0,0.0
3058,43.0,0.0,600.0,8.0,0.0
3059,60.0,614.0,1020.0,11.0,0.0
3060,61.0,614.0,1020.0,11.0,0.0
3061,43.0,0.0,600.0,8.0,0.0
3062,53.0,0.0,1020.0,12.0,0.0
3063,43.0,0.0,600.0,4.0,0.0
3064,58.0,614.0,2040.0,13.0,0.0
3065,58.0,0.0,1020.0,10.0,0.0
3066,43.0,410.0,600.0,15.0,0.0
3067,64.0,0.0,4110.0,10.0,0.0
3068,61.0,0.0,2040.0,12.0,0.0
3069,42.0,0.0,600.0,15.0,0.0
3070,42.0,0.0,4110.0,14.0,0.0
3071,42.0,410.0,600.0,4.0,0.0
3072,42.0,0.0,600.0,8.0,0.0
3073,58.0,0.0,4110.0,11.0,0.0
3074,42.0,410.0,600.0,8.0,0.0
3075,42.0,0.0,600.0,4.0,0.0
3076,56.0,614.0,1020.0,13.0,0.0
3077,42.0,0.0,600.0,15.0,0.0
3078,42.0,0.0,600.0,8.0,0.0
3079,42.0,410.0,600.0,15.0,0.0
3080,60.0,614.0,1020.0,12.0,0.0
3081,42.0,0.0,600.0,4.0,0.0
3082,54.0,614.0,2040.0,13.0,0.0
3083,42.0,410.0,600.0,4.0,0.0
3084,58.0,0.0,1020.0,12.0,0.0
3085,42.0,0.0,600.0,15.0,0.0
3086,42.0,0.0,600.0,8.0,0.0
3087,60.0,0.0,1830.0,11.0,0.0
3088,57.0,0.0,1830.0,12.0,0.0
3089,65.0,0.0,1830.0,10.0,0.0
3090,48.0,0.0,1830.0,13.0,0.0
3091,41.0,819.0,1830.0,14.0,0.0
3092,41.0,0.0,600.0,15.0,0.0
3093,41.0,1024.0,600.0,4.0,0.0
3094,41.0,0.0,600.0,8.0,0.0
3095,39.0,0.0,600.0,15.0,0.0
3096,39.0,0.0,600.0,4.0,0.0
3097,39.0,205.0,600.0,8.0,0.0
3098,38.0,0.0,600.0,4.0,0.0
3099,65.0,0.0,600.0,10.0,0.0
3100,38.0,1024.0,600.0,8.0,0.0
3101,38.0,0.0,600.0,15.0,0.0
3102,36.0,0.0,600.0,8.0,0.0
3103,36.0,0.0,600.0,4.0,0.0
3104,36.0,0.0,600.0,15.0,0.0
3105,65.0,1024.0,600.0,10.0,0.0
3106,65.0,0.0,2040.0,10.0,0.0
3107,34.0,0.0,600.0,8.0,0.0
3108,34.0,0.0,600.0,15.0,0.0
3109,65.0,0.0,600.0,11.0,0.0
3110,34.0,922.0,600.0,4.0,0.0
3111,58.0,0.0,510.0,2.0,0.0
3112,50.0,0.0,510.0,7.0,0.0
3113,65.0,410.0,600.0,11.0,0.0
3114,58.0,0.0,510.0,5.0,0.0
3115,53.0,0.0,510.0,6.0,0.0
3116,58.0,102.0,510.0,3.0,0.0
3117,46.0,0.0,15.0,1.0,0.0
3118,53.0,0.0,510.0,7.0,0.0
3119,62.0,0.0,510.0,5.0,0.0
3120,62.0,614.0,510.0,3.0,0.0
3121,62.0,0.0,510.0,2.0,0.0
3122,58.0,0.0,510.0,6.0,0.0
3123,65.0,0.0,600.0,2.0,0.0
3124,62.0,0.0,600.0,10.0,0.0
3125,46.0,0.0,15.0,1.0,0.0
3126,62.0,0.0,600.0,6.0,0.0
3127,53.0,0.0,600.0,13.0,0.0
3128,58.0,922.0,600.0,7.0,0.0
3129,65.0,0.0,600.0,5.0,0.0
3130,65.0,0.0,4110.0,11.0,0.0
3131,65.0,0.0,600.0,3.0,0.0
3132,53.0,0.0,600.0,13.0,0.0
3133,62.0,0.0,510.0,3.0,0.0
3134,58.0,102.0,510.0,0.0,0.0
3135,58.0,410.0,600.0,10.0,0.0
3136,62.0,0.0,510.0,5.0,0.0
3137,62.0,0.0,510.0,2.0,0.0
3138,65.0,0.0,510.0,5.0,0.0
3139,65.0,614.0,510.0,3.0,0.0
3140,65.0,0.0,510.0,2.0,0.0
3141,62.0,0.0,510.0,0.0,0.0
3142,53.0,0.0,4110.0,13.0,0.0
3143,70.0,0.0,6150.0,10.0,0.0
3144,53.0,0.0,600.0,14.0,0.0
3145,34.0,0.0,600.0,4.0,0.0
3146,34.0,0.0,600.0,8.0,0.0
3147,65.0,922.0,600.0,0.0,0.0
3148,70.0,0.0,600.0,2.0,0.0
3149,70.0,0.0,600.0,5.0,0.0
3150,34.0,0.0,600.0,15.0,0.0
3151,70.0,0.0,600.0,3.0,0.0
3152,58.0,0.0,510.0,3.0,0.0
3153,62.0,0.0,510.0,5.0,0.0
3154,58.0,0.0,510.0,2.0,0.0
3155,58.0,0.0,510.0,6.0,0.0
3156,53.0,0.0,510.0,7.0,0.0
3157,53.0,410.0,600.0,14.0,0.0
3158,58.0,0.0,510.0,7.0,0.0
3159,62.0,614.0,510.0,6.0,0.0
3160,46.0,0.0,15.0,1.0,0.0
3161,62.0,0.0,15.0,2.0,0.0
3162,65.0,0.0,510.0,2.0,0.0
3163,62.0,102.0,15.0,3.0,0.0
3164,65.0,0.0,510.0,5.0,0.0
3165,70.0,0.0,600.0,3.0,0.0
3166,62.0,0.0,600.0,7.0,0.0
3167,65.0,0.0,15.0,3.0,0.0
3168,62.0,922.0,600.0,11.0,0.0
3169,65.0,0.0,600.0,12.0,0.0
3170,65.0,0.0,600.0,2.0,0.0
3171,70.0,0.0,600.0,2.0,0.0
3172,46.0,0.0,600.0,1.0,0.0
3173,53.0,0.0,4110.0,14.0,0.0
3174,70.0,0.0,600.0,5.0,0.0
3175,65.0,0.0,600.0,6.0,0.0
3176,58.0,0.0,600.0,11.0,0.0
3177,62.0,0.0,510.0,2.0,0.0
3178,65.0,410.0,600.0,12.0,0.0
3179,65.0,0.0,510.0,2.0,0.0
3180,58.0,0.0,510.0,0.0,0.0
3181,65.0,0.0,510.0,5.0,0.0
3182,62.0,0.0,510.0,3.0,0.0
3183,65.0,614.0,510.0,2.0,0.0
3184,62.0,0.0,15.0,0.0,0.0
3185,65.0,0.0,510.0,0.0,0.0
3186,65.0,102.0,15.0,3.0,0.0
3187,70.0,0.0,510.0,5.0,0.0
3188,74.0,0.0,600.0,5.0,0.0
3189,34.0,0.0,600.0,8.0,0.0
3190,70.0,614.0,6150.0,11.0,0.0
3191,34.0,0.0,600.0,15.0,0.0
3192,70.0,0.0,15.0,3.0,0.0
3193,65.0,0.0,6150.0,12.0,0.0
3194,70.0,0.0,600.0,0.0,0.0
3195,70.0,0.0,15.0,2.0,0.0
3196,65.0,0.0,600.0,0.0,0.0
3197,50.0,0.0,600.0,13.0,0.0
3198,74.0,0.0,600.0,3.0,0.0
3199,34.0,0.0,600.0,4.0,0.0
3200,74.0,922.0,600.0,2.0,0.0
3201,46.0,410.0,600.0,13.0,0.0
3202,65.0,0.0,510.0,3.0,0.0
3203,62.0,0.0,510.0,3.0,0.0
3204,62.0,0.0,510.0,2.0,0.0
3205,58.0,102.0,510.0,7.0,0.0
3206,65.0,0.0,510.0,5.0,0.0
3207,62.0,0.0,510.0,6.0,0.0
3208,46.0,0.0,510.0,1.0,0.0
3209,65.0,0.0,15.0,2.0,0.0
3210,65.0,0.0,510.0,6.0,0.0
3211,70.0,0.0,510.0,2.0,0.0
3212,70.0,0.0,510.0,5.0,0.0
3213,70.0,0.0,510.0,3.0,0.0
3214,65.0,0.0,510.0,3.0,0.0
3215,62.0,0.0,510.0,7.0,0.0
3216,74.0,922.0,600.0,3.0,0.0
3217,50.0,0.0,600.0,14.0,0.0
3218,70.0,0.0,600.0,3.0,0.0
3219,65.0,0.0,600.0,10.0,0.0
3220,74.0,0.0,600.0,2.0,0.0
3221,74.0,0.0,600.0,5.0,0.0
3222,65.0,0.0,600.0,7.0,0.0
3223,46.0,614.0,15.0,1.0,0.0
3224,70.0,0.0,600.0,6.0,0.0
3225,70.0,0.0,600.0,2.0,0.0
3226,58.0,0.0,6750.0,13.0,0.0
3227,62.0,410.0,600.0,10.0,0.0
3228,77.0,0.0,510.0,5.0,0.0
3229,58.0,0.0,510.0,0.0,0.0
3230,74.0,0.0,510.0,6.0,0.0
3231,62.0,0.0,510.0,0.0,0.0
3232,70.0,0.0,510.0,7.0,0.0
3233,77.0,0.0,510.0,3.0,0.0
3234,46.0,0.0,600.0,14.0,0.0
3235,77.0,0.0,510.0,2.0,0.0
3236,65.0,0.0,15.0,0.0,0.0
3237,74.0,0.0,15.0,2.0,0.0
3238,70.0,0.0,510.0,2.0,0.0
3239,74.0,0.0,510.0,5.0,0.0
3240,62.0,0.0,510.0,0.0,0.0
3241,65.0,0.0,510.0,7.0,0.0
3242,70.0,614.0,510.0,6.0,0.0
3243,74.0,102.0,15.0,3.0,0.0
3244,70.0,0.0,600.0,5.0,0.0
3245,34.0,0.0,600.0,4.0,0.0
3246,70.0,0.0,15.0,3.0,0.0
3247,65.0,0.0,15.0,0.0,0.0
3248,70.0,0.0,15.0,0.0,0.0
3249,74.0,0.0,600.0,0.0,0.0
3250,65.0,0.0,600.0,2.0,0.0
3251,62.0,0.0,600.0,7.0,0.0
3252,70.0,0.0,600.0,2.0,0.0
3253,65.0,922.0,600.0,3.0,0.0
3254,53.0,0.0,600.0,14.0,0.0
3255,74.0,0.0,4710.0,10.0,0.0
3256,34.0,0.0,600.0,8.0,0.0
3257,34.0,0.0,600.0,15.0,0.0
3258,65.0,0.0,600.0,6.0,0.0
3259,70.0,0.0,510.0,6.0,0.0
3260,74.0,0.0,510.0,5.0,0.0
3261,74.0,0.0,510.0,3.0,0.0
3262,65.0,0.0,510.0,7.0,0.0
3263,46.0,0.0,510.0,1.0,0.0
3264,74.0,0.0,510.0,2.0,0.0
3265,53.0,410.0,600.0,14.0,0.0
3266,70.0,102.0,510.0,3.0,0.0
3267,65.0,0.0,510.0,6.0,0.0
3268,62.0,0.0,510.0,7.0,0.0
3269,46.0,0.0,510.0,1.0,0.0
3270,70.0,0.0,15.0,2.0,0.0
3271,65.0,0.0,510.0,3.0,0.0
3272,70.0,0.0,510.0,5.0,0.0
3273,70.0,0.0,510.0,3.0,0.0
3274,58.0,0.0,600.0,14.0,0.0
3275,58.0,0.0,600.0,7.0,0.0
3276,65.0,0.0,15.0,2.0,0.0
3277,62.0,0.0,600.0,2.0,0.0
3278,62.0,0.0,600.0,3.0,0.0
3279,65.0,0.0,600.0,3.0,0.0
3280,62.0,0.0,600.0,6.0,0.0
3281,65.0,0.0,600.0,5.0,0.0
3282,62.0,0.0,600.0,12.0,0.0
3283,46.0,410.0,600.0,1.0,0.0
3284,65.0,512.0,1020.0,11.0,0.0
3285,62.0,0.0,510.0,7.0,0.0
3286,58.0,410.0,600.0,12.0,0.0
3287,53.0,0.0,600.0,14.0,0.0
3288,62.0,0.0,600.0,11.0,0.0
3289,62.0,102.0,510.0,0.0,0.0
3290,70.0,0.0,510.0,2.0,0.0
3291,65.0,0.0,510.0,3.0,0.0
3292,65.0,0.0,510.0,6.0,0.0
3293,65.0,0.0,510.0,2.0,0.0
3294,70.0,0.0,510.0,5.0,0.0
3295,70.0,0.0,15.0,3.0,0.0
3296,74.0,0.0,510.0,3.0,0.0
3297,74.0,0.0,510.0,5.0,0.0
3298,65.0,0.0,510.0,7.0,0.0
3299,70.0,0.0,510.0,6.0,0.0
3300,70.0,0.0,510.0,2.0,0.0
3301,65.0,0.0,15.0,0.0,0.0
3302,70.0,0.0,15.0,0.0,0.0
3303,58.0,0.0,600.0,11.0,0.0
3304,74.0,0.0,15.0,2.0,0.0
3305,70.0,0.0,600.0,7.0,0.0
3306,70.0,0.0,15.0,0.0,0.0
3307,74.0,0.0,15.0,0.0,0.0
3308,77.0,0.0,600.0,0.0,0.0
3309,74.0,0.0,600.0,6.0,0.0
3310,77.0,0.0,600.0,5.0,0.0
3311,77.0,410.0,600.0,3.0,0.0
3312,74.0,0.0,600.0,3.0,0.0
3313,50.0,512.0,1020.0,14.0,0.0
3314,65.0,0.0,600.0,12.0,0.0
3315,77.0,0.0,600.0,2.0,0.0
3316,46.0,102.0,510.0,14.0,0.0
3317,46.0,0.0,510.0,15.0,0.0
3318,77.0,0.0,600.0,5.0,0.0
3319,58.0,0.0,600.0,13.0,0.0
3320,46.0,0.0,510.0,1.0,0.0
3321,70.0,0.0,600.0,0.0,0.0
3322,74.0,0.0,600.0,0.0,0.0
3323,74.0,0.0,600.0,10.0,0.0
3324,65.0,0.0,600.0,12.0,0.0
3325,74.0,410.0,600.0,3.0,0.0
3326,77.0,0.0,600.0,3.0,0.0
3327,77.0,0.0,600.0,2.0,0.0
3328,70.0,0.0,600.0,7.0,0.0
3329,77.0,0.0,600.0,0.0,0.0
3330,46.0,0.0,510.0,8.0,0.0
3331,74.0,0.0,600.0,2.0,0.0
3332,46.0,0.0,510.0,4.0,0.0
3333,70.0,0.0,600.0,11.0,0.0
3334,74.0,0.0,600.0,6.0,0.0
3335,50.0,614.0,510.0,4.0,0.0
3336,50.0,0.0,510.0,15.0,0.0
3337,50.0,0.0,510.0,14.0,0.0
3338,50.0,0.0,510.0,8.0,0.0
3339,70.0,0.0,2670.0,11.0,0.0
3340,74.0,0.0,600.0,3.0,0.0
3341,77.0,0.0,600.0,3.0,0.0
3342,65.0,0.0,600.0,12.0,0.0
3343,70.0,0.0,600.0,7.0,0.0
3344,74.0,0.0,600.0,10.0,0.0
3345,74.0,0.0,600.0,6.0,0.0
3346,77.0,0.0,600.0,5.0,0.0
3347,77.0,0.0,600.0,2.0,0.0
3348,74.0,410.0,600.0,0.0,0.0
3349,58.0,0.0,600.0,13.0,0.0
3350,53.0,0.0,600.0,15.0,0.0
3351,77.0,0.0,600.0,0.0,0.0
3352,53.0,0.0,600.0,4.0,0.0
3353,46.0,0.0,15.0,1.0,0.0
3354,53.0,0.0,600.0,8.0,0.0
3355,53.0,512.0,1020.0,14.0,0.0
3356,70.0,0.0,600.0,0.0,0.0
3357,74.0,0.0,600.0,2.0,0.0
3358,50.0,102.0,510.0,14.0,0.0
3359,74.0,0.0,600.0,2.0,0.0
3360,77.0,0.0,600.0,2.0,0.0
3361,50.0,0.0,510.0,4.0,0.0
3362,74.0,410.0,600.0,10.0,0.0
3363,70.0,0.0,600.0,0.0,0.0
3364,50.0,0.0,510.0,15.0,0.0
3365,50.0,0.0,510.0,8.0,0.0
3366,77.0,0.0,600.0,5.0,0.0
3367,74.0,0.0,600.0,0.0,0.0
3368,58.0,0.0,600.0,13.0,0.0
3369,65.0,0.0,600.0,12.0,0.0
3370,74.0,0.0,600.0,3.0,0.0
3371,77.0,0.0,600.0,3.0,0.0
3372,70.0,0.0,600.0,7.0,0.0
3373,74.0,0.0,600.0,6.0,0.0
3374,77.0,0.0,600.0,0.0,0.0
3375,53.0,0.0,510.0,8.0,0.0
3376,53.0,614.0,510.0,15.0,0.0
3377,53.0,0.0,510.0,14.0,0.0
3378,46.0,0.0,15.0,1.0,0.0
3379,53.0,0.0,510.0,4.0,0.0
3380,77.0,0.0,600.0,2.0,0.0
3381,74.0,0.0,600.0,0.0,0.0
3382,46.0,0.0,600.0,1.0,0.0
3383,77.0,0.0,600.0,0.0,0.0
3384,74.0,0.0,600.0,2.0,0.0
3385,58.0,0.0,600.0,14.0,0.0
3386,65.0,512.0,1020.0,12.0,0.0
3387,74.0,0.0,1020.0,10.0,0.0
3388,74.0,0.0,600.0,6.0,0.0
3389,70.0,0.0,600.0,7.0,0.0
3390,77.0,410.0,600.0,3.0,0.0
3391,58.0,0.0,600.0,8.0,0.0
3392,58.0,0.0,600.0,4.0,0.0
3393,77.0,0.0,600.0,5.0,0.0
3394,58.0,0.0,600.0,15.0,0.0
3395,58.0,512.0,3060.0,13.0,0.0
3396,74.0,0.0,600.0,3.0,0.0
3397,70.0,0.0,600.0,0.0,0.0
3398,63.0,0.0,510.0,12.0,0.0
3399,72.0,0.0,510.0,10.0,0.0
3400,70.0,0.0,600.0,11.0,0.0
3401,58.0,0.0,600.0,4.0,0.0
3402,75.0,0.0,510.0,3.0,0.0
3403,58.0,0.0,600.0,15.0,0.0
3404,58.0,410.0,600.0,8.0,0.0
3405,75.0,0.0,510.0,5.0,0.0
3406,72.0,0.0,510.0,3.0,0.0
3407,75.0,0.0,510.0,0.0,0.0
3408,72.0,0.0,510.0,0.0,0.0
3409,46.0,0.0,600.0,1.0,0.0
3410,75.0,0.0,510.0,2.0,0.0
3411,72.0,0.0,510.0,2.0,0.0
3412,72.0,102.0,510.0,6.0,0.0
3413,70.0,0.0,600.0,0.0,0.0
3414,58.0,0.0,600.0,14.0,0.0
3415,58.0,0.0,600.0,7.0,0.0
3416,65.0,0.0,510.0,12.0,0.0
3417,77.0,0.0,510.0,2.0,0.0
3418,74.0,0.0,510.0,3.0,0.0
3419,74.0,0.0,510.0,2.0,0.0
3420,77.0,0.0,510.0,0.0,0.0
3421,77.0,0.0,510.0,3.0,0.0
3422,74.0,0.0,510.0,0.0,0.0
3423,74.0,614.0,510.0,10.0,0.0
3424,77.0,0.0,510.0,5.0,0.0
3425,74.0,0.0,510.0,6.0,0.0
3426,79.0,0.0,600.0,2.0,0.0
3427,75.0,0.0,600.0,6.0,0.0
3428,58.0,0.0,600.0,8.0,0.0
3429,58.0,0.0,600.0,4.0,0.0
3430,79.0,0.0,600.0,0.0,0.0
3431,58.0,0.0,600.0,15.0,0.0
3432,63.0,0.0,600.0,7.0,0.0
3433,75.0,0.0,600.0,10.0,0.0
3434,70.0,0.0,2670.0,11.0,0.0
3435,46.0,0.0,600.0,1.0,0.0
3436,67.0,0.0,600.0,12.0,0.0
3437,58.0,0.0,2670.0,14.0,0.0
3438,75.0,0.0,600.0,3.0,0.0
3439,70.0,410.0,600.0,0.0,0.0
3440,75.0,0.0,600.0,0.0,0.0
3441,79.0,0.0,600.0,3.0,0.0
3442,75.0,0.0,600.0,2.0,0.0
3443,79.0,0.0,600.0,5.0,0.0
3444,74.0,0.0,510.0,0.0,0.0
3445,70.0,0.0,600.0,0.0,0.0
3446,58.0,0.0,600.0,15.0,0.0
3447,77.0,0.0,510.0,0.0,0.0
3448,51.0,0.0,600.0,13.0,0.0
3449,65.0,0.0,510.0,12.0,0.0
3450,67.0,410.0,600.0,7.0,0.0
3451,74.0,0.0,510.0,3.0,0.0
3452,77.0,0.0,510.0,3.0,0.0
3453,58.0,0.0,600.0,8.0,0.0
3454,74.0,0.0,510.0,10.0,0.0
3455,77.0,102.0,510.0,5.0,0.0
3456,46.0,0.0,600.0,1.0,0.0
3457,58.0,0.0,600.0,4.0,0.0
3458,74.0,0.0,510.0,6.0,0.0
3459,77.0,0.0,510.0,2.0,0.0
3460,74.0,0.0,510.0,2.0,0.0
3461,75.0,0.0,510.0,3.0,0.0
3462,72.0,0.0,510.0,3.0,0.0
3463,72.0,0.0,510.0,6.0,0.0
3464,75.0,0.0,510.0,2.0,0.0
3465,72.0,0.0,510.0,2.0,0.0
3466,63.0,0.0,510.0,12.0,0.0
3467,72.0,614.0,510.0,10.0,0.0
3468,75.0,0.0,510.0,0.0,0.0
3469,72.0,0.0,510.0,0.0,0.0
3470,75.0,0.0,510.0,5.0,0.0
3471,74.0,0.0,600.0,3.0,0.0
3472,70.0,0.0,600.0,7.0,0.0
3473,58.0,0.0,600.0,4.0,0.0
3474,74.0,922.0,600.0,2.0,0.0
3475,77.0,0.0,600.0,2.0,0.0
3476,77.0,0.0,600.0,3.0,0.0
3477,77.0,0.0,600.0,0.0,0.0
3478,74.0,0.0,600.0,0.0,0.0
3479,70.0,0.0,600.0,0.0,0.0
3480,58.0,0.0,600.0,15.0,0.0
3481,50.0,0.0,600.0,13.0,0.0
3482,46.0,0.0,2040.0,1.0,0.0
3483,74.0,0.0,600.0,10.0,0.0
3484,74.0,0.0,600.0,6.0,0.0
3485,58.0,0.0,600.0,8.0,0.0
3486,77.0,0.0,600.0,5.0,0.0
3487,65.0,512.0,3060.0,12.0,0.0
3488,70.0,0.0,600.0,0.0,0.0
3489,46.0,0.0,600.0,14.0,0.0
3490,65.0,0.0,600.0,7.0,0.0
3491,74.0,0.0,510.0,0.0,0.0
3492,74.0,102.0,510.0,5.0,0.0
3493,77.0,410.0,600.0,10.0,0.0
3494,46.0,0.0,510.0,15.0,0.0
3495,53.0,0.0,600.0,13.0,0.0
3496,70.0,0.0,600.0,6.0,0.0
3497,74.0,0.0,510.0,2.0,0.0
3498,46.0,0.0,510.0,4.0,0.0
3499,46.0,0.0,510.0,8.0,0.0
3500,70.0,0.0,600.0,2.0,0.0
3501,58.0,0.0,600.0,11.0,0.0
3502,74.0,0.0,510.0,3.0,0.0
3503,65.0,0.0,600.0,0.0,0.0
3504,70.0,0.0,600.0,3.0,0.0
3505,50.0,0.0,510.0,15.0,0.0
3506,77.0,0.0,510.0,3.0,0.0
3507,77.0,0.0,510.0,0.0,0.0
3508,77.0,0.0,510.0,5.0,0.0
3509,77.0,0.0,510.0,2.0,0.0
3510,50.0,0.0,510.0,8.0,0.0
3511,50.0,614.0,510.0,4.0,0.0
3512,82.0,0.0,600.0,3.0,0.0
3513,58.0,0.0,600.0,13.0,0.0
3514,82.0,0.0,600.0,0.0,0.0
3515,53.0,410.0,600.0,8.0,0.0
3516,82.0,0.0,600.0,2.0,0.0
3517,53.0,0.0,600.0,4.0,0.0
3518,74.0,0.0,600.0,10.0,0.0
3519,62.0,0.0,600.0,11.0,0.0
3520,46.0,0.0,600.0,14.0,0.0
3521,53.0,0.0,600.0,15.0,0.0
3522,82.0,0.0,600.0,5.0,0.0
3523,74.0,0.0,600.0,0.0,0.0
3524,46.0,0.0,600.0,14.0,0.0
3525,74.0,0.0,600.0,2.0,0.0
3526,65.0,0.0,600.0,11.0,0.0
3527,74.0,0.0,600.0,3.0,0.0
3528,77.0,0.0,600.0,3.0,0.0
3529,70.0,0.0,600.0,7.0,0.0
3530,50.0,0.0,510.0,4.0,0.0
3531,50.0,102.0,510.0,15.0,0.0
3532,50.0,0.0,510.0,8.0,0.0
3533,77.0,0.0,600.0,0.0,0.0
3534,58.0,0.0,600.0,12.0,0.0
3535,46.0,0.0,510.0,1.0,0.0
3536,70.0,410.0,600.0,10.0,0.0
3537,74.0,0.0,600.0,6.0,0.0
3538,77.0,0.0,600.0,5.0,0.0
3539,62.0,0.0,600.0,13.0,0.0
3540,77.0,0.0,600.0,2.0,0.0
3541,70.0,0.0,600.0,0.0,0.0
3542,46.0,0.0,510.0,1.0,0.0
3543,53.0,614.0,510.0,4.0,0.0
3544,53.0,0.0,510.0,8.0,0.0
3545,53.0,0.0,510.0,15.0,0.0
3546,58.0,0.0,600.0,8.0,0.0
3547,63.0,0.0,600.0,12.0,0.0
3548,75.0,0.0,600.0,2.0,0.0
3549,72.0,0.0,600.0,2.0,0.0
3550,46.0,0.0,4110.0,14.0,0.0
3551,58.0,0.0,600.0,15.0,0.0
3552,75.0,0.0,600.0,3.0,0.0
3553,72.0,0.0,600.0,6.0,0.0
3554,65.0,0.0,600.0,0.0,0.0
3555,72.0,0.0,600.0,0.0,0.0
3556,69.0,0.0,4110.0,11.0,0.0
3557,60.0,0.0,3060.0,13.0,0.0
3558,69.0,0.0,600.0,7.0,0.0
3559,72.0,0.0,600.0,3.0,0.0
3560,46.0,0.0,600.0,1.0,0.0
3561,72.0,0.0,4110.0,10.0,0.0
3562,75.0,922.0,600.0,0.0,0.0
3563,58.0,0.0,600.0,4.0,0.0
3564,75.0,0.0,600.0,5.0,0.0
3565,46.0,0.0,600.0,1.0,0.0
3566,58.0,0.0,600.0,15.0,0.0
3567,70.0,0.0,510.0,2.0,0.0
3568,74.0,0.0,510.0,0.0,0.0
3569,65.0,0.0,510.0,12.0,0.0
3570,65.0,0.0,600.0,7.0,0.0
3571,70.0,0.0,510.0,0.0,0.0
3572,70.0,0.0,510.0,6.0,0.0
3573,58.0,0.0,600.0,4.0,0.0
3574,70.0,0.0,510.0,3.0,0.0
3575,74.0,0.0,510.0,3.0,0.0
3576,74.0,0.0,510.0,5.0,0.0
3577,65.0,410.0,600.0,0.0,0.0
3578,74.0,102.0,510.0,2.0,0.0
3579,58.0,0.0,600.0,8.0,0.0
3580,72.0,0.0,510.0,6.0,0.0
3581,72.0,0.0,510.0,0.0,0.0
3582,75.0,0.0,510.0,0.0,0.0
3583,72.0,512.0,510.0,2.0,0.0
3584,72.0,0.0,510.0,3.0,0.0
3585,67.0,0.0,510.0,12.0,0.0
3586,75.0,0.0,510.0,3.0,0.0
3587,75.0,0.0,510.0,5.0,0.0
3588,75.0,0.0,510.0,2.0,0.0
3589,77.0,0.0,510.0,0.0,0.0
3590,69.0,0.0,510.0,6.0,0.0
3591,69.0,102.0,510.0,3.0,0.0
3592,77.0,0.0,510.0,3.0,0.0
3593,65.0,0.0,600.0,7.0,0.0
3594,77.0,0.0,510.0,5.0,0.0
3595,58.0,0.0,600.0,4.0,0.0
3596,77.0,0.0,510.0,2.0,0.0
3597,65.0,0.0,510.0,0.0,0.0
3598,69.0,0.0,510.0,2.0,0.0
3599,46.0,410.0,600.0,1.0,0.0
3600,58.0,0.0,600.0,8.0,0.0
3601,58.0,0.0,600.0,15.0,0.0
3602,75.0,0.0,510.0,2.0,0.0
3603,72.0,0.0,510.0,2.0,0.0
3604,72.0,0.0,510.0,6.0,0.0
3605,75.0,512.0,510.0,3.0,0.0
3606,75.0,0.0,510.0,5.0,0.0
3607,75.0,0.0,510.0,0.0,0.0
3608,72.0,0.0,510.0,0.0,0.0
3609,72.0,0.0,510.0,3.0,0.0
3610,74.0,0.0,510.0,5.0,0.0
3611,65.0,410.0,600.0,0.0,0.0
3612,58.0,0.0,600.0,15.0,0.0
3613,46.0,0.0,600.0,1.0,0.0
3614,58.0,0.0,600.0,4.0,0.0
3615,74.0,0.0,510.0,2.0,0.0
3616,70.0,0.0,510.0,0.0,0.0
3617,70.0,0.0,510.0,6.0,0.0
3618,65.0,0.0,600.0,7.0,0.0
3619,58.0,0.0,600.0,8.0,0.0
3620,70.0,0.0,510.0,2.0,0.0
3621,74.0,0.0,510.0,0.0,0.0
3622,74.0,0.0,510.0,3.0,0.0
3623,62.0,0.0,510.0,13.0,0.0
3624,70.0,102.0,510.0,3.0,0.0
3625,72.0,0.0,510.0,2.0,0.0
3626,69.0,0.0,510.0,0.0,0.0
3627,69.0,614.0,510.0,2.0,0.0
3628,69.0,0.0,510.0,6.0,0.0
3629,72.0,0.0,510.0,0.0,0.0
3630,63.0,0.0,510.0,13.0,0.0
3631,69.0,0.0,510.0,3.0,0.0
3632,72.0,0.0,510.0,5.0,0.0
3633,72.0,0.0,510.0,3.0,0.0
3634,58.0,0.0,600.0,8.0,0.0
3635,70.0,0.0,600.0,6.0,0.0
3636,70.0,0.0,600.0,3.0,0.0
3637,74.0,0.0,600.0,3.0,0.0
3638,70.0,0.0,2040.0,11.0,0.0
3639,58.0,0.0,600.0,15.0,0.0
3640,46.0,0.0,600.0,1.0,0.0
3641,70.0,0.0,600.0,0.0,0.0
3642,65.0,0.0,600.0,7.0,0.0
3643,65.0,0.0,15.0,12.0,0.0
3644,74.0,0.0,600.0,5.0,0.0
3645,62.0,0.0,2040.0,13.0,0.0
3646,70.0,0.0,2040.0,10.0,0.0
3647,65.0,0.0,600.0,0.0,0.0
3648,58.0,0.0,600.0,4.0,0.0
3649,46.0,0.0,2040.0,14.0,0.0
3650,74.0,0.0,600.0,2.0,0.0
3651,70.0,922.0,600.0,2.0,0.0
3652,74.0,0.0,600.0,0.0,0.0
3653,53.0,0.0,600.0,8.0,0.0
3654,69.0,410.0,600.0,2.0,0.0
3655,53.0,0.0,600.0,4.0,0.0
3656,72.0,0.0,510.0,2.0,0.0
3657,72.0,0.0,510.0,5.0,0.0
3658,65.0,0.0,600.0,0.0,0.0
3659,72.0,0.0,510.0,0.0,0.0
3660,65.0,0.0,600.0,7.0,0.0
3661,53.0,0.0,600.0,15.0,0.0
3662,72.0,0.0,600.0,6.0,0.0
3663,72.0,102.0,510.0,3.0,0.0
3664,41.0,0.0,600.0,1.0,0.0
3665,74.0,614.0,510.0,0.0,0.0
3666,74.0,0.0,510.0,3.0,0.0
3667,74.0,0.0,510.0,5.0,0.0
3668,74.0,0.0,510.0,2.0,0.0
3669,70.0,0.0,600.0,5.0,0.0
3670,50.0,0.0,600.0,4.0,0.0
3671,65.0,0.0,600.0,7.0,0.0
3672,50.0,1024.0,600.0,8.0,0.0
3673,50.0,0.0,600.0,15.0,0.0
3674,74.0,0.0,600.0,6.0,0.0
3675,46.0,0.0,600.0,1.0,0.0
3676,65.0,0.0,600.0,0.0,0.0
3677,70.0,0.0,600.0,3.0,0.0
3678,74.0,0.0,600.0,3.0,0.0
3679,70.0,0.0,600.0,0.0,0.0
3680,70.0,0.0,600.0,2.0,0.0
3681,41.0,0.0,600.0,1.0,0.0
3682,72.0,0.0,600.0,3.0,0.0
3683,69.0,0.0,600.0,3.0,0.0
3684,69.0,0.0,600.0,6.0,0.0
3685,72.0,0.0,600.0,0.0,0.0
3686,53.0,0.0,600.0,8.0,0.0
3687,72.0,0.0,600.0,2.0,0.0
3688,53.0,0.0,600.0,4.0,0.0
3689,65.0,0.0,600.0,7.0,0.0
3690,65.0,0.0,600.0,0.0,0.0
3691,53.0,0.0,600.0,15.0,0.0
3692,72.0,0.0,600.0,5.0,0.0
3693,46.0,0.0,600.0,4.0,0.0
3694,46.0,0.0,600.0,15.0,0.0
3695,74.0,0.0,510.0,2.0,0.0
3696,70.0,410.0,600.0,3.0,0.0
3697,70.0,0.0,600.0,6.0,0.0
3698,74.0,0.0,510.0,3.0,0.0
3699,46.0,0.0,600.0,1.0,0.0
3700,46.0,0.0,600.0,8.0,0.0
3701,65.0,0.0,600.0,0.0,0.0
3702,65.0,0.0,600.0,7.0,0.0
3703,74.0,0.0,510.0,0.0,0.0
3704,74.0,0.0,510.0,5.0,0.0
3705,76.0,512.0,510.0,3.0,0.0
3706,76.0,0.0,510.0,0.0,0.0
3707,76.0,0.0,510.0,5.0,0.0
3708,76.0,0.0,510.0,2.0,0.0
3709,72.0,0.0,510.0,5.0,0.0
3710,72.0,0.0,510.0,0.0,0.0
3711,72.0,0.0,510.0,2.0,0.0
3712,72.0,0.0,510.0,3.0,0.0
3713,50.0,0.0,510.0,15.0,0.0
3714,50.0,0.0,510.0,8.0,0.0
3715,50.0,512.0,510.0,4.0,0.0
3716,74.0,0.0,510.0,3.0,0.0
3717,74.0,0.0,510.0,5.0,0.0
3718,53.0,0.0,510.0,15.0,0.0
3719,53.0,0.0,510.0,4.0,0.0
3720,74.0,0.0,510.0,2.0,0.0
3721,74.0,0.0,510.0,0.0,0.0
3722,53.0,0.0,510.0,8.0,0.0
3723,76.0,102.0,510.0,0.0,0.0
3724,72.0,410.0,600.0,0.0,0.0
3725,58.0,0.0,600.0,4.0,0.0
3726,76.0,0.0,510.0,5.0,0.0
3727,58.0,0.0,600.0,8.0,0.0
3728,58.0,0.0,600.0,15.0,0.0
3729,67.0,0.0,600.0,7.0,0.0
3730,76.0,0.0,510.0,3.0,0.0
3731,76.0,0.0,510.0,2.0,0.0
3732,72.0,0.0,600.0,3.0,0.0
3733,72.0,0.0,600.0,6.0,0.0
3734,77.0,0.0,510.0,3.0,0.0
3735,77.0,0.0,510.0,0.0,0.0
3736,77.0,0.0,510.0,2.0,0.0
3737,77.0,0.0,510.0,5.0,0.0
3738,74.0,0.0,510.0,0.0,0.0
3739,74.0,0.0,510.0,2.0,0.0
3740,74.0,0.0,510.0,5.0,0.0
3741,57.0,0.0,510.0,8.0,0.0
3742,74.0,0.0,510.0,3.0,0.0
3743,57.0,0.0,510.0,4.0,0.0
3744,57.0,0.0,510.0,15.0,0.0
3745,76.0,0.0,510.0,3.0,0.0
3746,55.0,0.0,510.0,4.0,0.0
3747,76.0,0.0,510.0,0.0,0.0
3748,76.0,0.0,510.0,5.0,0.0
3749,55.0,0.0,510.0,15.0,0.0
3750,55.0,0.0,510.0,8.0,0.0
3751,76.0,0.0,510.0,2.0,0.0
3752,77.0,0.0,510.0,5.0,0.0
3753,77.0,0.0,510.0,2.0,0.0
3754,72.0,0.0,600.0,6.0,0.0
3755,77.0,102.0,510.0,3.0,0.0
3756,72.0,0.0,600.0,3.0,0.0
3757,65.0,0.0,600.0,7.0,0.0
3758,72.0,0.0,600.0,0.0,0.0
3759,77.0,0.0,510.0,0.0,0.0
3760,57.0,0.0,600.0,4.0,0.0
3761,57.0,0.0,600.0,15.0,0.0
3762,57.0,0.0,600.0,8.0,0.0
3763,41.0,0.0,600.0,1.0,0.0
3764,79.0,0.0,510.0,0.0,0.0
3765,79.0,0.0,510.0,5.0,0.0
3766,79.0,0.0,510.0,3.0,0.0
3767,79.0,0.0,510.0,2.0,0.0
3768,55.0,0.0,510.0,8.0,0.0
3769,55.0,0.0,510.0,15.0,0.0
3770,76.0,512.0,510.0,0.0,0.0
3771,76.0,0.0,510.0,3.0,0.0
3772,55.0,0.0,510.0,4.0,0.0
3773,76.0,0.0,510.0,2.0,0.0
3774,76.0,0.0,510.0,5.0,0.0
3775,53.0,0.0,510.0,4.0,0.0
3776,77.0,0.0,510.0,2.0,0.0
3777,53.0,512.0,510.0,8.0,0.0
3778,53.0,0.0,510.0,15.0,0.0
3779,77.0,0.0,510.0,5.0,0.0
3780,77.0,0.0,510.0,3.0,0.0
3781,77.0,0.0,510.0,0.0,0.0
3782,79.0,0.0,510.0,5.0,0.0
3783,72.0,0.0,600.0,3.0,0.0
3784,79.0,0.0,510.0,3.0,0.0
3785,79.0,0.0,510.0,2.0,0.0
3786,79.0,0.0,510.0,0.0,0.0
3787,72.0,410.0,600.0,0.0,0.0
3788,52.0,0.0,600.0,4.0,0.0
3789,52.0,0.0,600.0,15.0,0.0
3790,72.0,0.0,600.0,6.0,0.0
3791,60.0,0.0,600.0,7.0,0.0
3792,52.0,0.0,600.0,8.0,0.0
3793,81.0,0.0,510.0,5.0,0.0
3794,81.0,0.0,510.0,3.0,0.0
3795,81.0,0.0,510.0,0.0,0.0
3796,81.0,0.0,510.0,2.0,0.0
3797,77.0,0.0,510.0,3.0,0.0
3798,50.0,0.0,510.0,8.0,0.0
3799,77.0,0.0,510.0,0.0,0.0
3800,50.0,0.0,510.0,15.0,0.0
3801,77.0,0.0,510.0,2.0,0.0
3802,50.0,512.0,510.0,4.0,0.0
3803,77.0,0.0,510.0,5.0,0.0
3804,48.0,0.0,510.0,15.0,0.0
3805,79.0,0.0,510.0,3.0,0.0
3806,79.0,0.0,510.0,2.0,0.0
3807,48.0,0.0,510.0,4.0,0.0
3808,48.0,614.0,510.0,8.0,0.0
3809,79.0,0.0,510.0,5.0,0.0
3810,79.0,0.0,510.0,0.0,0.0
3811,53.0,0.0,600.0,15.0,0.0
3812,53.0,0.0,600.0,8.0,0.0
3813,81.0,0.0,600.0,2.0,0.0
3814,81.0,0.0,600.0,0.0,0.0
3815,72.0,0.0,600.0,3.0,0.0
3816,72.0,0.0,600.0,0.0,0.0
3817,65.0,0.0,600.0,0.0,0.0
3818,81.0,0.0,600.0,5.0,0.0
3819,53.0,0.0,600.0,4.0,0.0
3820,72.0,922.0,600.0,6.0,0.0
3821,41.0,0.0,600.0,1.0,0.0
3822,60.0,0.0,600.0,7.0,0.0
3823,81.0,0.0,600.0,3.0,0.0
3824,50.0,0.0,600.0,4.0,0.0
3825,50.0,410.0,600.0,8.0,0.0
3826,62.0,0.0,600.0,7.0,0.0
3827,79.0,0.0,510.0,5.0,0.0
3828,79.0,102.0,510.0,3.0,0.0
3829,70.0,0.0,510.0,6.0,0.0
3830,74.0,0.0,600.0,0.0,0.0
3831,70.0,0.0,510.0,3.0,0.0
3832,79.0,0.0,510.0,0.0,0.0
3833,79.0,0.0,510.0,2.0,0.0
3834,41.0,0.0,510.0,1.0,0.0
3835,50.0,0.0,600.0,15.0,0.0
3836,70.0,0.0,510.0,0.0,0.0
3837,69.0,0.0,510.0,0.0,0.0
3838,41.0,0.0,510.0,1.0,0.0
3839,77.0,0.0,510.0,0.0,0.0
3840,69.0,614.0,510.0,6.0,0.0
3841,77.0,0.0,510.0,5.0,0.0
3842,69.0,0.0,510.0,3.0,0.0
3843,77.0,0.0,510.0,3.0,0.0
3844,77.0,0.0,510.0,2.0,0.0
3845,79.0,0.0,600.0,3.0,0.0
3846,55.0,0.0,600.0,7.0,0.0
3847,70.0,0.0,600.0,3.0,0.0
3848,79.0,0.0,600.0,2.0,0.0
3849,46.0,0.0,600.0,8.0,0.0
3850,74.0,0.0,600.0,0.0,0.0
3851,79.0,0.0,600.0,0.0,0.0
3852,70.0,0.0,600.0,0.0,0.0
3853,79.0,0.0,600.0,5.0,0.0
3854,46.0,0.0,600.0,4.0,0.0
3855,46.0,1024.0,600.0,15.0,0.0
3856,70.0,0.0,600.0,6.0,0.0
3857,46.0,0.0,600.0,1.0,0.0
3858,76.0,0.0,600.0,0.0,0.0
3859,48.0,1024.0,600.0,8.0,0.0
3860,67.0,0.0,600.0,6.0,0.0
3861,72.0,0.0,600.0,0.0,0.0
3862,76.0,0.0,600.0,2.0,0.0
3863,48.0,0.0,600.0,4.0,0.0
3864,60.0,0.0,600.0,7.0,0.0
3865,48.0,0.0,600.0,15.0,0.0
3866,76.0,0.0,600.0,5.0,0.0
3867,76.0,0.0,600.0,3.0,0.0
3868,67.0,0.0,600.0,3.0,0.0
3869,77.0,0.0,600.0,2.0,0.0
3870,41.0,0.0,600.0,4.0,0.0
3871,69.0,922.0,600.0,2.0,0.0
3872,41.0,0.0,600.0,15.0,0.0
3873,41.0,0.0,2040.0,1.0,0.0
3874,77.0,0.0,18420.0,0.0,0.0
3875,72.0,0.0,2040.0,0.0,0.0
3876,77.0,0.0,600.0,5.0,0.0
3877,69.0,0.0,600.0,6.0,0.0
3878,69.0,0.0,600.0,3.0,0.0
3879,65.0,0.0,2040.0,0.0,0.0
3880,77.0,0.0,600.0,3.0,0.0
3881,60.0,0.0,600.0,7.0,0.0
3882,41.0,0.0,600.0,8.0,0.0
3883,57.0,0.0,510.0,7.0,0.0
3884,53.0,0.0,510.0,4.0,0.0
3885,65.0,0.0,510.0,5.0,0.0
3886,53.0,0.0,510.0,15.0,0.0
3887,60.0,0.0,510.0,3.0,0.0
3888,53.0,0.0,510.0,8.0,0.0
3889,60.0,0.0,510.0,2.0,0.0
3890,60.0,0.0,510.0,6.0,0.0
3891,65.0,0.0,15.0,2.0,0.0
3892,69.0,0.0,510.0,2.0,0.0
3893,48.0,0.0,510.0,15.0,0.0
3894,48.0,0.0,510.0,8.0,0.0
3895,65.0,0.0,510.0,6.0,0.0
3896,48.0,614.0,510.0,4.0,0.0
3897,69.0,0.0,510.0,5.0,0.0
3898,60.0,0.0,510.0,7.0,0.0
3899,65.0,512.0,15.0,3.0,0.0
3900,69.0,0.0,510.0,3.0,0.0
3901,72.0,0.0,600.0,2.0,0.0
3902,69.0,0.0,600.0,2.0,0.0
3903,72.0,922.0,600.0,3.0,0.0
3904,45.0,0.0,600.0,8.0,0.0
3905,69.0,0.0,600.0,3.0,0.0
3906,45.0,0.0,600.0,15.0,0.0
3907,65.0,0.0,600.0,7.0,0.0
3908,72.0,0.0,600.0,5.0,0.0
3909,45.0,0.0,600.0,4.0,0.0
3910,69.0,0.0,600.0,6.0,0.0
3911,48.0,0.0,510.0,15.0,0.0
3912,65.0,0.0,510.0,3.0,0.0
3913,65.0,0.0,510.0,6.0,0.0
3914,69.0,0.0,510.0,5.0,0.0
3915,41.0,0.0,510.0,1.0,0.0
3916,69.0,0.0,510.0,2.0,0.0
3917,48.0,0.0,510.0,8.0,0.0
3918,48.0,0.0,510.0,4.0,0.0
3919,60.0,512.0,510.0,7.0,0.0
3920,65.0,0.0,510.0,2.0,0.0
3921,65.0,0.0,15.0,0.0,0.0
3922,72.0,0.0,15.0,0.0,0.0
3923,69.0,0.0,510.0,6.0,0.0
3924,45.0,0.0,510.0,15.0,0.0
3925,72.0,0.0,510.0,5.0,0.0
3926,45.0,0.0,510.0,8.0,0.0
3927,69.0,0.0,15.0,3.0,0.0
3928,69.0,0.0,510.0,2.0,0.0
3929,65.0,0.0,510.0,7.0,0.0
3930,45.0,614.0,510.0,4.0,0.0
3931,41.0,0.0,15.0,1.0,0.0
3932,72.0,0.0,15.0,2.0,0.0
3933,75.0,0.0,600.0,2.0,0.0
3934,41.0,0.0,600.0,15.0,0.0
3935,72.0,0.0,2040.0,0.0,0.0
3936,75.0,0.0,600.0,3.0,0.0
3937,72.0,0.0,15.0,3.0,0.0
3938,69.0,0.0,600.0,7.0,0.0
3939,41.0,0.0,600.0,8.0,0.0
3940,72.0,0.0,600.0,6.0,0.0
3941,65.0,0.0,2040.0,0.0,0.0
3942,41.0,0.0,600.0,4.0,0.0
3943,75.0,922.0,600.0,5.0,0.0
3944,53.0,0.0,600.0,15.0,0.0
3945,53.0,0.0,600.0,8.0,0.0
3946,65.0,0.0,510.0,2.0,0.0
3947,65.0,0.0,510.0,3.0,0.0
3948,60.0,0.0,510.0,3.0,0.0
3949,53.0,410.0,600.0,4.0,0.0
3950,65.0,0.0,510.0,5.0,0.0
3951,60.0,102.0,510.0,2.0,0.0
3952,57.0,0.0,510.0,7.0,0.0
3953,60.0,0.0,510.0,6.0,0.0
3954,69.0,0.0,510.0,2.0,0.0
3955,65.0,614.0,510.0,6.0,0.0
3956,69.0,0.0,510.0,3.0,0.0
3957,65.0,0.0,510.0,2.0,0.0
3958,65.0,0.0,510.0,3.0,0.0
3959,69.0,0.0,510.0,5.0,0.0
3960,60.0,0.0,510.0,7.0,0.0
3961,53.0,0.0,600.0,8.0,0.0
3962,53.0,0.0,600.0,4.0,0.0
3963,53.0,0.0,600.0,15.0,0.0
3964,72.0,0.0,600.0,5.0,0.0
3965,69.0,0.0,600.0,2.0,0.0
3966,69.0,0.0,600.0,6.0,0.0
3967,69.0,0.0,600.0,3.0,0.0
3968,72.0,0.0,600.0,3.0,0.0
3969,72.0,0.0,600.0,2.0,0.0
3970,65.0,922.0,600.0,7.0,0.0
3971,41.0,0.0,510.0,1.0,0.0
3972,53.0,0.0,600.0,15.0,0.0
3973,65.0,0.0,510.0,2.0,0.0
3974,72.0,0.0,510.0,0.0,0.0
3975,69.0,0.0,510.0,5.0,0.0
3976,65.0,0.0,510.0,3.0,0.0
3977,53.0,0.0,600.0,4.0,0.0
3978,65.0,0.0,510.0,6.0,0.0
3979,60.0,0.0,510.0,7.0,0.0
3980,53.0,410.0,600.0,8.0,0.0
3981,69.0,0.0,15.0,2.0,0.0
3982,72.0,0.0,510.0,2.0,0.0
3983,69.0,0.0,15.0,3.0,0.0
3984,72.0,0.0,510.0,3.0,0.0
3985,65.0,0.0,510.0,7.0,0.0
3986,65.0,102.0,15.0,0.0,0.0
3987,41.0,0.0,510.0,1.0,0.0
3988,69.0,0.0,510.0,6.0,0.0
3989,72.0,0.0,510.0,5.0,0.0
3990,72.0,0.0,510.0,0.0,0.0
3991,74.0,0.0,600.0,3.0,0.0
3992,70.0,0.0,600.0,3.0,0.0
3993,69.0,0.0,600.0,7.0,0.0
3994,70.0,922.0,600.0,6.0,0.0
3995,46.0,0.0,600.0,15.0,0.0
3996,74.0,0.0,600.0,5.0,0.0
3997,46.0,0.0,2040.0,1.0,0.0
3998,70.0,0.0,2040.0,0.0,0.0
3999,62.0,0.0,2040.0,0.0,0.0
4000,46.0,0.0,600.0,4.0,0.0
4001,74.0,0.0,600.0,2.0,0.0
4002,46.0,0.0,600.0,8.0,0.0
4003,70.0,0.0,600.0,2.0,0.0
4004,62.0,0.0,510.0,7.0,0.0
4005,58.0,0.0,510.0,4.0,0.0
4006,70.0,0.0,510.0,5.0,0.0
4007,70.0,0.0,510.0,2.0,0.0
4008,65.0,512.0,510.0,2.0,0.0
4009,58.0,0.0,510.0,15.0,0.0
4010,65.0,0.0,510.0,6.0,0.0
4011,65.0,0.0,510.0,3.0,0.0
4012,58.0,0.0,510.0,8.0,0.0
4013,65.0,0.0,510.0,7.0,0.0
4014,53.0,0.0,510.0,15.0,0.0
4015,70.0,0.0,510.0,6.0,0.0
4016,70.0,0.0,15.0,3.0,0.0
4017,53.0,0.0,510.0,4.0,0.0
4018,53.0,0.0,510.0,8.0,0.0
4019,74.0,0.0,510.0,5.0,0.0
4020,74.0,0.0,510.0,2.0,0.0
4021,70.0,0.0,510.0,2.0,0.0
4022,74.0,0.0,600.0,6.0,0.0
4023,50.0,0.0,600.0,4.0,0.0
4024,50.0,0.0,600.0,8.0,0.0
4025,70.0,922.0,600.0,7.0,0.0
4026,77.0,0.0,600.0,5.0,0.0
4027,50.0,0.0,600.0,15.0,0.0
4028,74.0,614.0,15.0,3.0,0.0
4029,77.0,0.0,600.0,3.0,0.0
4030,77.0,0.0,600.0,2.0,0.0
4031,74.0,0.0,600.0,2.0,0.0
4032,65.0,0.0,510.0,7.0,0.0
4033,53.0,0.0,510.0,8.0,0.0
4034,70.0,0.0,510.0,6.0,0.0
4035,53.0,0.0,510.0,15.0,0.0
4036,74.0,0.0,510.0,0.0,0.0
4037,70.0,0.0,510.0,3.0,0.0
4038,53.0,512.0,510.0,4.0,0.0
4039,70.0,0.0,510.0,2.0,0.0
4040,74.0,0.0,510.0,5.0,0.0
4041,50.0,0.0,510.0,8.0,0.0
4042,74.0,0.0,510.0,6.0,0.0
4043,70.0,0.0,510.0,7.0,0.0
4044,74.0,0.0,15.0,2.0,0.0
4045,70.0,0.0,15.0,0.0,0.0
4046,74.0,0.0,15.0,3.0,0.0
4047,46.0,0.0,15.0,1.0,0.0
4048,77.0,0.0,510.0,5.0,0.0
4049,50.0,0.0,510.0,4.0,0.0
4050,50.0,0.0,510.0,15.0,0.0
4051,77.0,0.0,15.0,2.0,0.0
4052,82.0,0.0,600.0,2.0,0.0
4053,62.0,0.0,600.0,7.0,0.0
4054,77.0,0.0,15.0,3.0,0.0
4055,46.0,0.0,600.0,4.0,0.0
4056,46.0,0.0,15.0,1.0,0.0
4057,82.0,922.0,600.0,5.0,0.0
4058,82.0,0.0,600.0,3.0,0.0
4059,77.0,0.0,600.0,6.0,0.0
4060,74.0,0.0,15.0,0.0,0.0
4061,46.0,0.0,600.0,8.0,0.0
4062,70.0,614.0,15.0,0.0,0.0
4063,46.0,0.0,600.0,15.0,0.0
4064,70.0,0.0,510.0,3.0,0.0
4065,65.0,512.0,510.0,3.0,0.0
4066,53.0,0.0,510.0,8.0,0.0
4067,53.0,0.0,510.0,4.0,0.0
4068,70.0,0.0,510.0,5.0,0.0
4069,65.0,0.0,510.0,2.0,0.0
4070,70.0,0.0,510.0,2.0,0.0
4071,65.0,0.0,510.0,6.0,0.0
4072,53.0,0.0,510.0,15.0,0.0
4073,62.0,0.0,510.0,7.0,0.0
4074,50.0,0.0,510.0,4.0,0.0
4075,50.0,0.0,510.0,8.0,0.0
4076,50.0,0.0,510.0,15.0,0.0
4077,65.0,0.0,510.0,7.0,0.0
4078,74.0,0.0,510.0,2.0,0.0
4079,74.0,614.0,510.0,5.0,0.0
4080,70.0,0.0,510.0,6.0,0.0
4081,70.0,0.0,510.0,2.0,0.0
4082,74.0,0.0,510.0,3.0,0.0
4083,70.0,0.0,510.0,3.0,0.0
4084,70.0,0.0,600.0,7.0,0.0
4085,77.0,0.0,600.0,2.0,0.0
4086,77.0,0.0,600.0,3.0,0.0
4087,46.0,0.0,600.0,4.0,0.0
4088,74.0,0.0,600.0,2.0,0.0
4089,74.0,922.0,600.0,3.0,0.0
4090,46.0,0.0,600.0,8.0,0.0
4091,74.0,0.0,600.0,6.0,0.0
4092,46.0,0.0,600.0,15.0,0.0
4093,77.0,0.0,600.0,5.0,0.0
4094,74.0,0.0,510.0,5.0,0.0
4095,50.0,0.0,510.0,15.0,0.0
4096,46.0,0.0,510.0,1.0,0.0
4097,70.0,0.0,510.0,2.0,0.0
4098,74.0,0.0,510.0,0.0,0.0
4099,50.0,0.0,510.0,4.0,0.0
4100,70.0,0.0,510.0,3.0,0.0
4101,74.0,0.0,510.0,2.0,0.0
4102,50.0,0.0,510.0,8.0,0.0
4103,74.0,0.0,510.0,3.0,0.0
4104,70.0,0.0,510.0,6.0,0.0
4105,65.0,0.0,510.0,7.0,0.0
4106,46.0,0.0,510.0,1.0,0.0
4107,77.0,0.0,510.0,5.0,0.0
4108,74.0,0.0,510.0,6.0,0.0
4109,70.0,0.0,510.0,7.0,0.0
4110,46.0,0.0,510.0,8.0,0.0
4111,46.0,0.0,510.0,4.0,0.0
4112,46.0,0.0,510.0,15.0,0.0
4113,74.0,0.0,510.0,3.0,0.0
4114,77.0,0.0,510.0,2.0,0.0
4115,58.0,512.0,15.0,0.0,0.0
4116,74.0,0.0,510.0,0.0,0.0
4117,74.0,0.0,510.0,2.0,0.0
4118,72.0,0.0,2040.0,7.0,0.0
4119,77.0,0.0,2040.0,6.0,0.0
4120,81.0,0.0,600.0,2.0,0.0
4121,41.0,0.0,600.0,15.0,0.0
4122,77.0,0.0,600.0,2.0,0.0
4123,81.0,0.0,2040.0,5.0,0.0
4124,41.0,0.0,600.0,4.0,0.0
4125,65.0,614.0,2040.0,0.0,0.0
4126,72.0,0.0,2040.0,0.0,0.0
4127,77.0,614.0,15.0,3.0,0.0
4128,41.0,922.0,600.0,8.0,0.0
4129,81.0,0.0,2040.0,3.0,0.0
4130,41.0,0.0,2040.0,1.0,0.0
4131,77.0,512.0,510.0,2.0,0.0
4132,72.0,0.0,15.0,2.0,0.0
4133,69.0,0.0,510.0,2.0,0.0
4134,53.0,0.0,2040.0,13.0,0.0
4135,65.0,0.0,600.0,2.0,0.0
4136,69.0,922.0,600.0,2.0,0.0
4137,57.0,0.0,510.0,4.0,0.0
4138,57.0,512.0,510.0,15.0,0.0
4139,57.0,0.0,510.0,8.0,0.0
4140,53.0,0.0,510.0,4.0,0.0
4141,53.0,1536.0,510.0,8.0,0.0
4142,53.0,0.0,510.0,15.0,0.0
4143,58.0,0.0,6150.0,13.0,0.0
4144,50.0,0.0,2040.0,15.0,0.0
4145,50.0,0.0,2040.0,8.0,0.0
4146,50.0,0.0,2040.0,4.0,0.0
4147,77.0,512.0,510.0,2.0,0.0
4148,70.0,0.0,510.0,2.0,0.0
4149,74.0,0.0,15.0,2.0,0.0
4150,67.0,922.0,600.0,2.0,0.0
4151,58.0,0.0,2040.0,12.0,0.0
4152,70.0,0.0,600.0,2.0,0.0
4153,55.0,0.0,510.0,15.0,0.0
4154,55.0,512.0,510.0,4.0,0.0
4155,55.0,0.0,510.0,8.0,0.0
4156,51.0,0.0,510.0,8.0,0.0
4157,51.0,1536.0,510.0,15.0,0.0
4158,51.0,0.0,510.0,4.0,0.0
4159,48.0,614.0,2040.0,4.0,0.0
4160,63.0,0.0,6150.0,12.0,0.0
4161,48.0,0.0,2040.0,8.0,0.0
4162,48.0,0.0,2040.0,15.0,0.0
4163,79.0,512.0,510.0,2.0,0.0
4164,72.0,0.0,510.0,2.0,0.0
4165,75.0,0.0,510.0,2.0,0.0
4166,67.0,0.0,510.0,2.0,0.0
4167,65.0,0.0,2040.0,11.0,0.0
4168,69.0,0.0,600.0,2.0,0.0
4169,57.0,0.0,2040.0,13.0,0.0
4170,72.0,922.0,600.0,2.0,0.0
4171,53.0,102.0,510.0,15.0,0.0
4172,72.0,410.0,600.0,2.0,0.0
4173,53.0,0.0,510.0,4.0,0.0
4174,53.0,0.0,510.0,8.0,0.0
4175,50.0,0.0,510.0,4.0,0.0
4176,50.0,1536.0,510.0,8.0,0.0
4177,50.0,0.0,510.0,15.0,0.0
4178,46.0,0.0,2040.0,15.0,0.0
4179,46.0,0.0,2040.0,4.0,0.0
4180,58.0,614.0,2040.0,13.0,0.0
4181,70.0,614.0,6150.0,11.0,0.0
4182,46.0,0.0,2040.0,8.0,0.0
4183,70.0,0.0,510.0,2.0,0.0
4184,65.0,512.0,510.0,2.0,0.0
4185,70.0,0.0,510.0,2.0,0.0
4186,77.0,0.0,510.0,2.0,0.0
4187,62.0,0.0,2040.0,12.0,0.0
4188,74.0,0.0,600.0,2.0,0.0
4189,46.0,0.0,2040.0,14.0,0.0
4190,82.0,922.0,600.0,2.0,0.0
4191,53.0,0.0,2670.0,13.0,0.0
4192,50.0,512.0,510.0,8.0,0.0
4193,50.0,0.0,510.0,4.0,0.0
4194,50.0,0.0,510.0,15.0,0.0
4195,46.0,0.0,510.0,4.0,0.0
4196,46.0,0.0,510.0,8.0,0.0
4197,46.0,614.0,510.0,15.0,0.0
4198,60.0,0.0,2040.0,12.0,0.0
4199,41.0,1024.0,600.0,15.0,0.0
4200,41.0,0.0,600.0,4.0,0.0
4201,41.0,0.0,600.0,8.0,0.0
4202,53.0,0.0,6150.0,14.0,0.0
4203,48.0,0.0,600.0,8.0,0.0
4204,55.0,0.0,600.0,13.0,0.0
4205,48.0,410.0,600.0,15.0,0.0
4206,48.0,0.0,600.0,4.0,0.0
4207,57.0,1024.0,600.0,13.0,0.0
4208,53.0,0.0,4110.0,8.0,0.0
4209,65.0,614.0,2040.0,10.0,0.0
4210,60.0,1024.0,2670.0,12.0,0.0
4211,53.0,0.0,4110.0,15.0,0.0
4212,69.0,0.0,2040.0,11.0,0.0
4213,53.0,614.0,4110.0,4.0,0.0
4214,53.0,410.0,600.0,13.0,0.0
4215,72.0,1024.0,4710.0,10.0,0.0
4216,67.0,0.0,2040.0,11.0,0.0
4217,55.0,0.0,4110.0,13.0,0.0
4218,62.0,410.0,600.0,12.0,0.0
4219,51.0,614.0,2040.0,14.0,0.0
4220,51.0,0.0,2040.0,8.0,0.0
4221,63.0,1024.0,600.0,12.0,0.0
4222,51.0,0.0,2040.0,15.0,0.0
4223,67.0,0.0,2040.0,11.0,0.0
4224,51.0,0.0,2040.0,4.0,0.0
4225,60.0,410.0,600.0,12.0,0.0
4226,50.0,0.0,2040.0,4.0,0.0
4227,65.0,512.0,3060.0,12.0,0.0
4228,65.0,0.0,2040.0,11.0,0.0
4229,50.0,614.0,2040.0,8.0,0.0
4230,57.0,0.0,2040.0,13.0,0.0
4231,50.0,0.0,2040.0,14.0,0.0
4232,50.0,0.0,2040.0,15.0,0.0
4233,70.0,410.0,600.0,10.0,0.0
4234,62.0,0.0,2040.0,11.0,0.0
4235,55.0,410.0,600.0,15.0,0.0
4236,58.0,0.0,600.0,13.0,0.0
4237,55.0,0.0,600.0,4.0,0.0
4238,55.0,0.0,600.0,14.0,0.0
4239,55.0,0.0,600.0,8.0,0.0
4240,70.0,0.0,2670.0,10.0,0.0
4241,53.0,0.0,600.0,4.0,0.0
4242,63.0,102.0,510.0,12.0,0.0
4243,53.0,0.0,600.0,8.0,0.0
4244,53.0,410.0,600.0,15.0,0.0
4245,60.0,0.0,510.0,13.0,0.0
4246,53.0,0.0,600.0,14.0,0.0
4247,62.0,0.0,510.0,12.0,0.0
4248,62.0,614.0,510.0,13.0,0.0
4249,60.0,0.0,3060.0,12.0,0.0
4250,51.0,0.0,600.0,15.0,0.0
4251,67.0,410.0,600.0,11.0,0.0
4252,63.0,0.0,3060.0,13.0,0.0
4253,51.0,614.0,1020.0,14.0,0.0
4254,51.0,0.0,600.0,8.0,0.0
4255,51.0,0.0,600.0,4.0,0.0
4256,67.0,0.0,600.0,11.0,0.0
4257,48.0,0.0,600.0,15.0,0.0
4258,70.0,1024.0,600.0,10.0,0.0
4259,48.0,0.0,600.0,14.0,0.0
4260,48.0,0.0,600.0,8.0,0.0
4261,48.0,0.0,600.0,4.0,0.0
4262,53.0,0.0,600.0,8.0,0.0
4263,53.0,410.0,600.0,15.0,0.0
4264,65.0,0.0,600.0,11.0,0.0
4265,53.0,512.0,1020.0,14.0,0.0
4266,69.0,0.0,600.0,10.0,0.0
4267,53.0,0.0,600.0,4.0,0.0
4268,51.0,410.0,600.0,15.0,0.0
4269,51.0,0.0,600.0,4.0,0.0
4270,65.0,0.0,600.0,11.0,0.0
4271,51.0,0.0,600.0,14.0,0.0
4272,62.0,102.0,510.0,13.0,0.0
4273,62.0,0.0,510.0,12.0,0.0
4274,69.0,0.0,600.0,10.0,0.0
4275,51.0,0.0,600.0,8.0,0.0
4276,63.0,0.0,510.0,12.0,0.0
4277,60.0,614.0,510.0,13.0,0.0
4278,65.0,512.0,3060.0,11.0,0.0
4279,50.0,410.0,600.0,4.0,0.0
4280,58.0,0.0,2040.0,13.0,0.0
4281,50.0,0.0,600.0,15.0,0.0
4282,65.0,0.0,8190.0,12.0,0.0
4283,50.0,0.0,600.0,8.0,0.0
4284,70.0,512.0,1020.0,10.0,0.0
4285,50.0,0.0,1020.0,14.0,0.0
4286,46.0,0.0,510.0,14.0,0.0
4287,65.0,0.0,510.0,2.0,0.0
4288,62.0,0.0,510.0,2.0,0.0
4289,77.0,0.0,510.0,3.0,0.0
4290,70.0,0.0,510.0,7.0,0.0
4291,46.0,0.0,600.0,15.0,0.0
4292,46.0,0.0,600.0,8.0,0.0
4293,62.0,102.0,510.0,10.0,0.0
4294,74.0,0.0,510.0,6.0,0.0
4295,77.0,0.0,510.0,5.0,0.0
4296,74.0,0.0,510.0,3.0,0.0
4297,46.0,410.0,600.0,4.0,0.0
4298,70.0,0.0,510.0,6.0,0.0
4299,65.0,0.0,510.0,7.0,0.0
4300,74.0,0.0,510.0,5.0,0.0
4301,65.0,0.0,510.0,2.0,0.0
4302,65.0,0.0,510.0,10.0,0.0
4303,70.0,0.0,510.0,2.0,0.0
4304,70.0,0.0,510.0,3.0,0.0
4305,74.0,0.0,510.0,3.0,0.0
4306,50.0,614.0,510.0,14.0,0.0
4307,70.0,0.0,600.0,5.0,0.0
4308,70.0,0.0,1020.0,10.0,0.0
4309,62.0,0.0,600.0,7.0,0.0
4310,65.0,0.0,600.0,6.0,0.0
4311,74.0,0.0,600.0,2.0,0.0
4312,70.0,0.0,600.0,2.0,0.0
4313,70.0,410.0,600.0,3.0,0.0
4314,65.0,0.0,600.0,3.0,0.0
4315,53.0,0.0,1020.0,14.0,0.0
4316,70.0,0.0,510.0,2.0,0.0
4317,65.0,0.0,510.0,2.0,0.0
4318,50.0,512.0,510.0,14.0,0.0
4319,65.0,0.0,510.0,10.0,0.0
4320,58.0,0.0,510.0,11.0,0.0
4321,65.0,0.0,510.0,7.0,0.0
4322,70.0,0.0,510.0,3.0,0.0
4323,74.0,0.0,510.0,3.0,0.0
4324,74.0,0.0,510.0,5.0,0.0
4325,70.0,0.0,510.0,6.0,0.0
4326,62.0,0.0,510.0,7.0,0.0
4327,70.0,0.0,510.0,2.0,0.0
4328,70.0,0.0,510.0,10.0,0.0
4329,70.0,614.0,510.0,3.0,0.0
4330,74.0,0.0,510.0,2.0,0.0
4331,70.0,0.0,510.0,5.0,0.0
4332,62.0,0.0,510.0,11.0,0.0
4333,65.0,0.0,510.0,6.0,0.0
4334,53.0,0.0,510.0,14.0,0.0
4335,53.0,0.0,600.0,13.0,0.0
4336,58.0,0.0,600.0,7.0,0.0
4337,62.0,0.0,600.0,6.0,0.0
4338,74.0,0.0,600.0,10.0,0.0
4339,65.0,0.0,15.0,3.0,0.0
4340,62.0,0.0,600.0,3.0,0.0
4341,77.0,0.0,600.0,2.0,0.0
4342,74.0,0.0,600.0,2.0,0.0
4343,65.0,0.0,600.0,11.0,0.0
4344,58.0,0.0,600.0,14.0,0.0
4345,65.0,922.0,600.0,5.0,0.0
4346,41.0,102.0,510.0,8.0,0.0
4347,46.0,0.0,510.0,1.0,0.0
4348,41.0,0.0,510.0,4.0,0.0
4349,53.0,0.0,600.0,13.0,0.0
4350,58.0,0.0,600.0,14.0,0.0
4351,70.0,410.0,600.0,10.0,0.0
4352,41.0,0.0,510.0,15.0,0.0
4353,65.0,0.0,600.0,11.0,0.0
4354,46.0,512.0,510.0,4.0,0.0
4355,46.0,0.0,510.0,15.0,0.0
4356,46.0,0.0,510.0,8.0,0.0
4357,50.0,0.0,600.0,8.0,0.0
4358,50.0,410.0,600.0,15.0,0.0
4359,46.0,0.0,15.0,1.0,0.0
4360,62.0,0.0,600.0,11.0,0.0
4361,53.0,0.0,600.0,13.0,0.0
4362,60.0,102.0,510.0,14.0,0.0
4363,65.0,0.0,600.0,10.0,0.0
4364,50.0,0.0,600.0,4.0,0.0
4365,58.0,0.0,510.0,14.0,0.0
4366,46.0,512.0,510.0,1.0,0.0
4367,53.0,0.0,600.0,13.0,0.0
4368,46.0,0.0,510.0,8.0,0.0
4369,46.0,0.0,510.0,1.0,0.0
4370,46.0,0.0,510.0,15.0,0.0
4371,65.0,410.0,600.0,10.0,0.0
4372,62.0,0.0,600.0,11.0,0.0
4373,57.0,102.0,510.0,14.0,0.0
4374,46.0,0.0,510.0,4.0,0.0
4375,46.0,0.0,510.0,1.0,0.0
4376,50.0,0.0,510.0,4.0,0.0
4377,50.0,0.0,510.0,15.0,0.0
4378,50.0,614.0,510.0,8.0,0.0
4379,55.0,0.0,510.0,14.0,0.0
4380,53.0,0.0,600.0,15.0,0.0
4381,57.0,512.0,1020.0,13.0,0.0
4382,53.0,0.0,24570.0,14.0,0.0
4383,65.0,0.0,8190.0,10.0,0.0
4384,60.0,0.0,4110.0,11.0,0.0
4385,53.0,410.0,600.0,8.0,0.0
4386,53.0,0.0,600.0,4.0,0.0
4387,65.0,614.0,2040.0,12.0,0.0
4388,41.0,0.0,600.0,1.0,0.0
4389,75.0,0.0,510.0,3.0,0.0
4390,72.0,0.0,510.0,3.0,0.0
4391,53.0,0.0,510.0,13.0,0.0
4392,69.0,0.0,510.0,2.0,0.0
4393,72.0,512.0,510.0,6.0,0.0
4394,75.0,0.0,510.0,5.0,0.0
4395,72.0,0.0,510.0,2.0,0.0
4396,69.0,0.0,510.0,7.0,0.0
4397,57.0,0.0,510.0,13.0,0.0
4398,72.0,0.0,510.0,3.0,0.0
4399,72.0,0.0,510.0,5.0,0.0
4400,72.0,0.0,510.0,2.0,0.0
4401,65.0,0.0,510.0,7.0,0.0
4402,69.0,0.0,510.0,3.0,0.0
4403,69.0,0.0,510.0,6.0,0.0
4404,77.0,0.0,15.0,2.0,0.0
4405,65.0,0.0,600.0,3.0,0.0
4406,60.0,0.0,600.0,7.0,0.0
4407,69.0,0.0,600.0,5.0,0.0
4408,65.0,410.0,600.0,6.0,0.0
4409,81.0,0.0,600.0,2.0,0.0
4410,69.0,0.0,600.0,3.0,0.0
4411,60.0,512.0,1020.0,13.0,0.0
4412,72.0,0.0,510.0,5.0,0.0
4413,69.0,0.0,510.0,6.0,0.0
4414,72.0,0.0,510.0,2.0,0.0
4415,77.0,0.0,510.0,2.0,0.0
4416,57.0,0.0,510.0,13.0,0.0
4417,65.0,0.0,510.0,7.0,0.0
4418,72.0,0.0,510.0,3.0,0.0
4419,81.0,0.0,510.0,2.0,0.0
4420,69.0,0.0,510.0,5.0,0.0
4421,60.0,0.0,510.0,7.0,0.0
4422,69.0,512.0,15.0,3.0,0.0
4423,65.0,0.0,510.0,6.0,0.0
4424,60.0,0.0,510.0,13.0,0.0
4425,65.0,0.0,510.0,3.0,0.0
4426,77.0,0.0,510.0,2.0,0.0
4427,63.0,0.0,600.0,13.0,0.0
4428,57.0,0.0,4110.0,11.0,0.0
4429,60.0,922.0,600.0,6.0,0.0
4430,57.0,0.0,600.0,7.0,0.0
4431,60.0,0.0,600.0,12.0,0.0
4432,65.0,0.0,600.0,5.0,0.0
4433,60.0,0.0,600.0,3.0,0.0
4434,65.0,0.0,600.0,3.0,0.0
4435,81.0,0.0,600.0,2.0,0.0
4436,84.0,0.0,600.0,2.0,0.0
4437,48.0,102.0,510.0,4.0,0.0
4438,48.0,0.0,510.0,8.0,0.0
4439,48.0,0.0,510.0,15.0,0.0
4440,63.0,0.0,600.0,13.0,0.0
4441,60.0,410.0,600.0,12.0,0.0
4442,53.0,0.0,510.0,4.0,0.0
4443,41.0,0.0,15.0,1.0,0.0
4444,53.0,0.0,510.0,8.0,0.0
4445,53.0,512.0,510.0,15.0,0.0
4446,60.0,0.0,600.0,12.0,0.0
4447,65.0,0.0,510.0,13.0,0.0
4448,57.0,0.0,600.0,15.0,0.0
4449,57.0,410.0,600.0,4.0,0.0
4450,57.0,0.0,600.0,8.0,0.0
4451,41.0,0.0,15.0,1.0,0.0
4452,63.0,512.0,510.0,13.0,0.0
4453,62.0,102.0,510.0,13.0,0.0
4454,53.0,0.0,510.0,4.0,0.0
4455,41.0,0.0,15.0,1.0,0.0
4456,53.0,0.0,510.0,15.0,0.0
4457,60.0,410.0,600.0,12.0,0.0
4458,53.0,0.0,510.0,8.0,0.0
4459,57.0,0.0,510.0,4.0,0.0
4460,57.0,0.0,510.0,15.0,0.0
4461,57.0,0.0,510.0,8.0,0.0
4462,60.0,614.0,510.0,13.0,0.0
4463,41.0,0.0,510.0,1.0,0.0
4464,62.0,512.0,1020.0,12.0,0.0
4465,58.0,614.0,2040.0,11.0,0.0
4466,65.0,0.0,2040.0,10.0,0.0
4467,46.0,0.0,600.0,1.0,0.0
4468,58.0,0.0,600.0,15.0,0.0
4469,58.0,0.0,600.0,4.0,0.0
4470,58.0,0.0,8190.0,13.0,0.0
4471,58.0,410.0,600.0,8.0,0.0
4472,65.0,0.0,510.0,2.0,0.0
4473,74.0,0.0,510.0,2.0,0.0
4474,70.0,0.0,510.0,6.0,0.0
4475,74.0,0.0,510.0,5.0,0.0
4476,70.0,0.0,510.0,3.0,0.0
4477,65.0,512.0,510.0,7.0,0.0
4478,74.0,0.0,510.0,3.0,0.0
4479,58.0,0.0,510.0,12.0,0.0
4480,62.0,0.0,510.0,7.0,0.0
4481,62.0,0.0,510.0,12.0,0.0
4482,65.0,0.0,510.0,6.0,0.0
4483,70.0,0.0,510.0,5.0,0.0
4484,65.0,0.0,510.0,3.0,0.0
4485,70.0,0.0,510.0,3.0,0.0
4486,70.0,0.0,510.0,2.0,0.0
4487,77.0,0.0,510.0,2.0,0.0
4488,65.0,512.0,1020.0,12.0,0.0
4489,62.0,0.0,600.0,3.0,0.0
4490,65.0,0.0,600.0,3.0,0.0
4491,58.0,0.0,600.0,7.0,0.0
4492,82.0,0.0,600.0,2.0,0.0
4493,65.0,0.0,600.0,5.0,0.0
4494,74.0,410.0,600.0,2.0,0.0
4495,62.0,0.0,600.0,6.0,0.0
4496,62.0,614.0,6150.0,11.0,0.0
4497,70.0,0.0,510.0,5.0,0.0
4498,65.0,0.0,510.0,3.0,0.0
4499,65.0,0.0,510.0,6.0,0.0
4500,62.0,0.0,510.0,12.0,0.0
4501,70.0,0.0,510.0,2.0,0.0
4502,77.0,0.0,510.0,2.0,0.0
4503,62.0,512.0,510.0,7.0,0.0
4504,70.0,0.0,510.0,3.0,0.0
4505,74.0,0.0,510.0,2.0,0.0
4506,82.0,0.0,510.0,2.0,0.0
4507,62.0,0.0,510.0,6.0,0.0
4508,65.0,614.0,510.0,12.0,0.0
4509,65.0,0.0,510.0,3.0,0.0
4510,65.0,0.0,510.0,5.0,0.0
4511,58.0,0.0,510.0,7.0,0.0
4512,53.0,0.0,600.0,7.0,0.0
4513,62.0,0.0,600.0,5.0,0.0
4514,58.0,0.0,600.0,3.0,0.0
4515,62.0,0.0,15.0,3.0,0.0
4516,65.0,0.0,600.0,10.0,0.0
4517,58.0,0.0,600.0,6.0,0.0
4518,70.0,0.0,600.0,12.0,0.0
4519,86.0,922.0,600.0,2.0,0.0
4520,77.0,0.0,600.0,2.0,0.0
4521,53.0,0.0,510.0,15.0,0.0
4522,65.0,410.0,600.0,10.0,0.0
4523,70.0,0.0,600.0,12.0,0.0
4524,53.0,0.0,510.0,4.0,0.0
4525,53.0,0.0,510.0,8.0,0.0
4526,50.0,0.0,510.0,15.0,0.0
4527,46.0,102.0,15.0,1.0,0.0
4528,50.0,0.0,510.0,8.0,0.0
4529,50.0,512.0,510.0,4.0,0.0
4530,46.0,0.0,600.0,15.0,0.0
4531,46.0,410.0,600.0,8.0,0.0
4532,72.0,0.0,510.0,12.0,0.0
4533,46.0,0.0,600.0,4.0,0.0
4534,65.0,0.0,600.0,10.0,0.0
4535,70.0,0.0,510.0,12.0,0.0
4536,46.0,102.0,15.0,1.0,0.0
4537,50.0,0.0,510.0,8.0,0.0
4538,65.0,410.0,600.0,10.0,0.0
4539,50.0,0.0,510.0,15.0,0.0
4540,69.0,0.0,510.0,12.0,0.0
4541,46.0,512.0,15.0,1.0,0.0
4542,50.0,0.0,510.0,4.0,0.0
4543,67.0,0.0,510.0,12.0,0.0
4544,46.0,0.0,510.0,4.0,0.0
4545,46.0,0.0,510.0,15.0,0.0
4546,46.0,102.0,15.0,1.0,0.0
4547,46.0,0.0,510.0,8.0,0.0
4548,57.0,0.0,8190.0,13.0,0.0
4549,69.0,512.0,1020.0,10.0,0.0
4550,41.0,0.0,600.0,15.0,0.0
4551,41.0,0.0,600.0,8.0,0.0
4552,41.0,0.0,600.0,4.0,0.0
4553,41.0,410.0,600.0,1.0,0.0
4554,60.0,0.0,2040.0,11.0,0.0
4555,69.0,0.0,510.0,6.0,0.0
4556,69.0,0.0,510.0,2.0,0.0
4557,65.0,0.0,510.0,10.0,0.0
4558,72.0,0.0,510.0,5.0,0.0
4559,72.0,0.0,510.0,3.0,0.0
4560,65.0,512.0,510.0,7.0,0.0
4561,72.0,0.0,510.0,2.0,0.0
4562,69.0,0.0,510.0,10.0,0.0
4563,65.0,0.0,510.0,6.0,0.0
4564,69.0,0.0,15.0,3.0,0.0
4565,72.0,0.0,510.0,2.0,0.0
4566,69.0,0.0,510.0,5.0,0.0
4567,60.0,0.0,510.0,7.0,0.0
4568,60.0,0.0,600.0,6.0,0.0
4569,65.0,0.0,600.0,5.0,0.0
4570,57.0,0.0,600.0,7.0,0.0
4571,65.0,614.0,15.0,3.0,0.0
4572,72.0,512.0,1020.0,10.0,0.0
4573,77.0,0.0,15.0,2.0,0.0
4574,81.0,410.0,600.0,2.0,0.0
4575,60.0,0.0,600.0,3.0,0.0
4576,72.0,0.0,510.0,2.0,0.0
4577,77.0,0.0,510.0,2.0,0.0
4578,60.0,0.0,510.0,7.0,0.0
4579,69.0,0.0,510.0,10.0,0.0
4580,69.0,512.0,510.0,5.0,0.0
4581,69.0,0.0,510.0,3.0,0.0
4582,65.0,0.0,510.0,6.0,0.0
4583,81.0,0.0,510.0,2.0,0.0
4584,77.0,0.0,510.0,2.0,0.0
4585,72.0,0.0,510.0,10.0,0.0
4586,60.0,0.0,510.0,6.0,0.0
4587,65.0,0.0,15.0,3.0,0.0
4588,60.0,0.0,510.0,3.0,0.0
4589,65.0,0.0,510.0,5.0,0.0
4590,57.0,614.0,510.0,7.0,0.0
4591,84.0,922.0,600.0,2.0,0.0
4592,81.0,0.0,600.0,2.0,0.0
4593,60.0,0.0,600.0,5.0,0.0
4594,53.0,0.0,600.0,7.0,0.0
4595,60.0,0.0,600.0,3.0,0.0
4596,57.0,0.0,600.0,6.0,0.0
4597,75.0,0.0,600.0,10.0,0.0
4598,65.0,0.0,600.0,11.0,0.0
4599,57.0,0.0,600.0,3.0,0.0
4600,65.0,0.0,600.0,11.0,0.0
4601,75.0,410.0,600.0,10.0,0.0
4602,45.0,0.0,510.0,15.0,0.0
4603,45.0,0.0,510.0,4.0,0.0
4604,41.0,0.0,510.0,1.0,0.0
4605,45.0,102.0,510.0,8.0,0.0
4606,41.0,0.0,510.0,8.0,0.0
4607,41.0,0.0,510.0,4.0,0.0
4608,41.0,0.0,510.0,15.0,0.0
4609,38.0,0.0,600.0,15.0,0.0
4610,41.0,0.0,15.0,1.0,0.0
4611,65.0,0.0,600.0,11.0,0.0
4612,38.0,410.0,600.0,8.0,0.0
4613,77.0,0.0,510.0,10.0,0.0
4614,65.0,512.0,15.0,12.0,0.0
4615,38.0,0.0,600.0,4.0,0.0
4616,41.0,102.0,15.0,1.0,0.0
4617,75.0,512.0,510.0,10.0,0.0
4618,41.0,0.0,510.0,1.0,0.0
4619,41.0,0.0,510.0,15.0,0.0
4620,41.0,0.0,510.0,4.0,0.0
4621,65.0,410.0,600.0,11.0,0.0
4622,74.0,0.0,510.0,10.0,0.0
4623,41.0,102.0,510.0,8.0,0.0
4624,38.0,0.0,510.0,4.0,0.0
4625,72.0,0.0,510.0,10.0,0.0
4626,38.0,0.0,510.0,15.0,0.0
4627,41.0,0.0,510.0,1.0,0.0
4628,38.0,0.0,510.0,8.0,0.0
4629,58.0,0.0,2040.0,13.0,0.0
4630,34.0,0.0,600.0,4.0,0.0
4631,46.0,0.0,2040.0,14.0,0.0
4632,74.0,0.0,600.0,10.0,0.0
4633,46.0,922.0,600.0,1.0,0.0
4634,34.0,0.0,600.0,15.0,0.0
4635,65.0,0.0,600.0,11.0,0.0
4636,62.0,0.0,600.0,12.0,0.0
4637,34.0,0.0,600.0,8.0,0.0
4638,70.0,0.0,600.0,10.0,0.0
4639,58.0,0.0,510.0,11.0,0.0
4640,53.0,0.0,510.0,6.0,0.0
4641,65.0,410.0,600.0,12.0,0.0
4642,58.0,0.0,510.0,2.0,0.0
4643,58.0,0.0,510.0,5.0,0.0
4644,50.0,0.0,510.0,7.0,0.0
4645,58.0,102.0,510.0,3.0,0.0
4646,46.0,0.0,510.0,1.0,0.0
4647,58.0,614.0,510.0,6.0,0.0
4648,62.0,0.0,510.0,11.0,0.0
4649,53.0,0.0,510.0,7.0,0.0
4650,62.0,0.0,510.0,2.0,0.0
4651,62.0,0.0,510.0,5.0,0.0
4652,62.0,0.0,510.0,3.0,0.0
4653,65.0,0.0,600.0,11.0,0.0
4654,46.0,0.0,15.0,1.0,0.0
4655,53.0,0.0,600.0,13.0,0.0
4656,65.0,0.0,600.0,2.0,0.0
4657,65.0,0.0,600.0,3.0,0.0
4658,65.0,0.0,4110.0,12.0,0.0
4659,65.0,922.0,600.0,5.0,0.0
4660,58.0,0.0,2040.0,10.0,0.0
4661,58.0,0.0,600.0,7.0,0.0
4662,62.0,0.0,600.0,6.0,0.0
4663,62.0,102.0,510.0,11.0,0.0
4664,62.0,0.0,510.0,3.0,0.0
4665,53.0,410.0,600.0,13.0,0.0
4666,58.0,0.0,510.0,0.0,0.0
4667,62.0,0.0,510.0,2.0,0.0
4668,62.0,0.0,510.0,5.0,0.0
4669,65.0,0.0,510.0,5.0,0.0
4670,65.0,0.0,510.0,2.0,0.0
4671,65.0,0.0,510.0,3.0,0.0
4672,62.0,0.0,510.0,0.0,0.0
4673,65.0,614.0,510.0,11.0,0.0
4674,65.0,0.0,600.0,0.0,0.0
4675,70.0,0.0,600.0,3.0,0.0
4676,70.0,0.0,600.0,2.0,0.0
4677,34.0,0.0,600.0,15.0,0.0
4678,70.0,0.0,600.0,11.0,0.0
4679,65.0,922.0,600.0,10.0,0.0
4680,53.0,0.0,4110.0,13.0,0.0
4681,34.0,0.0,600.0,8.0,0.0
4682,34.0,0.0,600.0,4.0,0.0
4683,70.0,0.0,600.0,5.0,0.0
4684,58.0,102.0,510.0,3.0,0.0
4685,58.0,0.0,510.0,2.0,0.0
4686,62.0,0.0,510.0,5.0,0.0
4687,58.0,0.0,510.0,6.0,0.0
4688,65.0,410.0,600.0,10.0,0.0
4689,70.0,0.0,600.0,11.0,0.0
4690,46.0,0.0,510.0,1.0,0.0
4691,53.0,0.0,510.0,7.0,0.0
4692,62.0,0.0,15.0,2.0,0.0
4693,65.0,0.0,510.0,2.0,0.0
4694,62.0,0.0,510.0,6.0,0.0
4695,62.0,0.0,15.0,3.0,0.0
4696,65.0,0.0,510.0,5.0,0.0
4697,58.0,0.0,510.0,7.0,0.0
4698,62.0,0.0,600.0,12.0,0.0
4699,46.0,0.0,15.0,1.0,0.0
4700,65.0,0.0,4110.0,10.0,0.0
4701,70.0,0.0,600.0,5.0,0.0
4702,65.0,0.0,600.0,6.0,0.0
4703,62.0,0.0,600.0,7.0,0.0
4704,65.0,0.0,2670.0,11.0,0.0
4705,65.0,614.0,15.0,3.0,0.0
4706,70.0,922.0,600.0,2.0,0.0
4707,65.0,0.0,600.0,2.0,0.0
4708,53.0,0.0,600.0,14.0,0.0
4709,70.0,0.0,600.0,3.0,0.0
4710,65.0,0.0,510.0,3.0,0.0
4711,65.0,0.0,510.0,5.0,0.0
4712,53.0,0.0,600.0,14.0,0.0
4713,62.0,0.0,510.0,3.0,0.0
4714,58.0,410.0,600.0,12.0,0.0
4715,62.0,0.0,510.0,2.0,0.0
4716,58.0,0.0,510.0,0.0,0.0
4717,65.0,102.0,15.0,2.0,0.0
4718,70.0,614.0,510.0,5.0,0.0
4719,62.0,0.0,15.0,0.0,0.0
4720,65.0,0.0,510.0,0.0,0.0
4721,65.0,0.0,510.0,3.0,0.0
4722,70.0,0.0,510.0,2.0,0.0
4723,70.0,0.0,2040.0,12.0,0.0
4724,50.0,0.0,600.0,13.0,0.0
4725,53.0,614.0,4110.0,14.0,0.0
4726,70.0,0.0,600.0,0.0,0.0
4727,65.0,0.0,600.0,0.0,0.0
4728,34.0,0.0,600.0,8.0,0.0
4729,74.0,0.0,600.0,3.0,0.0
4730,34.0,0.0,600.0,15.0,0.0
4731,70.0,0.0,15.0,3.0,0.0
4732,74.0,0.0,600.0,5.0,0.0
4733,70.0,922.0,600.0,2.0,0.0
4734,74.0,0.0,600.0,2.0,0.0
4735,34.0,0.0,600.0,4.0,0.0
4736,62.0,0.0,510.0,3.0,0.0
4737,62.0,0.0,510.0,2.0,0.0
4738,46.0,0.0,600.0,13.0,0.0
4739,65.0,410.0,600.0,11.0,0.0
4740,65.0,0.0,510.0,5.0,0.0
4741,58.0,0.0,510.0,7.0,0.0
4742,62.0,0.0,510.0,6.0,0.0
4743,46.0,102.0,510.0,1.0,0.0
4744,65.0,0.0,15.0,2.0,0.0
4745,65.0,0.0,15.0,3.0,0.0
4746,70.0,0.0,510.0,5.0,0.0
4747,62.0,0.0,510.0,7.0,0.0
4748,65.0,0.0,510.0,6.0,0.0
4749,70.0,0.0,510.0,2.0,0.0
4750,70.0,0.0,15.0,3.0,0.0
4751,65.0,0.0,600.0,12.0,0.0
4752,70.0,0.0,600.0,2.0,0.0
4753,62.0,922.0,600.0,10.0,0.0
4754,65.0,0.0,4110.0,11.0,0.0
4755,65.0,0.0,600.0,7.0,0.0
4756,74.0,0.0,600.0,2.0,0.0
4757,70.0,0.0,600.0,6.0,0.0
4758,74.0,0.0,600.0,5.0,0.0
4759,58.0,0.0,2040.0,13.0,0.0
4760,74.0,0.0,600.0,3.0,0.0
4761,46.0,614.0,15.0,1.0,0.0
4762,62.0,0.0,600.0,12.0,0.0
4763,77.0,0.0,510.0,5.0,0.0
4764,70.0,0.0,510.0,7.0,0.0
4765,77.0,0.0,510.0,3.0,0.0
4766,74.0,0.0,510.0,6.0,0.0
4767,77.0,0.0,510.0,2.0,0.0
4768,58.0,0.0,510.0,0.0,0.0
4769,58.0,410.0,600.0,10.0,0.0
4770,62.0,0.0,15.0,0.0,0.0
4771,74.0,0.0,15.0,2.0,0.0
4772,65.0,102.0,15.0,0.0,0.0
4773,70.0,0.0,510.0,6.0,0.0
4774,74.0,0.0,510.0,5.0,0.0
4775,65.0,0.0,510.0,7.0,0.0
4776,74.0,0.0,15.0,3.0,0.0
4777,70.0,0.0,510.0,0.0,0.0
4778,34.0,0.0,600.0,8.0,0.0
4779,34.0,0.0,600.0,15.0,0.0
4780,70.0,0.0,15.0,3.0,0.0
4781,65.0,0.0,600.0,2.0,0.0
4782,70.0,0.0,600.0,5.0,0.0
4783,53.0,0.0,600.0,13.0,0.0
4784,65.0,0.0,600.0,3.0,0.0
4785,65.0,0.0,4710.0,12.0,0.0
4786,70.0,0.0,15.0,2.0,0.0
4787,65.0,0.0,15.0,0.0,0.0
4788,34.0,0.0,600.0,4.0,0.0
4789,70.0,0.0,2040.0,10.0,0.0
4790,50.0,0.0,600.0,14.0,0.0
4791,70.0,0.0,600.0,0.0,0.0
4792,74.0,0.0,600.0,0.0,0.0
4793,62.0,0.0,600.0,7.0,0.0
4794,65.0,0.0,600.0,6.0,0.0
4795,65.0,0.0,510.0,7.0,0.0
4796,70.0,0.0,510.0,6.0,0.0
4797,74.0,0.0,510.0,3.0,0.0
4798,46.0,0.0,600.0,14.0,0.0
4799,50.0,410.0,600.0,13.0,0.0
4800,74.0,102.0,510.0,2.0,0.0
4801,74.0,0.0,510.0,5.0,0.0
4802,46.0,0.0,510.0,1.0,0.0
4803,62.0,0.0,510.0,7.0,0.0
4804,70.0,0.0,15.0,2.0,0.0
4805,70.0,0.0,15.0,3.0,0.0
4806,70.0,614.0,510.0,5.0,0.0
4807,65.0,0.0,510.0,6.0,0.0
4808,65.0,0.0,510.0,3.0,0.0
4809,62.0,0.0,600.0,3.0,0.0
4810,65.0,0.0,600.0,10.0,0.0
4811,65.0,0.0,600.0,3.0,0.0
4812,62.0,0.0,600.0,6.0,0.0
4813,62.0,0.0,600.0,11.0,0.0
4814,58.0,0.0,600.0,7.0,0.0
4815,46.0,0.0,15.0,1.0,0.0
4816,62.0,0.0,2670.0,13.0,0.0
4817,65.0,0.0,15.0,2.0,0.0
4818,62.0,0.0,600.0,2.0,0.0
4819,65.0,922.0,600.0,5.0,0.0
4820,65.0,0.0,510.0,3.0,0.0
4821,70.0,0.0,510.0,3.0,0.0
4822,62.0,0.0,510.0,0.0,0.0
4823,58.0,410.0,600.0,11.0,0.0
4824,62.0,0.0,600.0,10.0,0.0
4825,70.0,0.0,510.0,0.0,0.0
4826,62.0,102.0,510.0,7.0,0.0
4827,70.0,0.0,510.0,2.0,0.0
4828,65.0,0.0,510.0,2.0,0.0
4829,65.0,0.0,510.0,6.0,0.0
4830,70.0,0.0,510.0,5.0,0.0
4831,70.0,614.0,510.0,3.0,0.0
4832,65.0,0.0,510.0,7.0,0.0
4833,74.0,0.0,510.0,2.0,0.0
4834,74.0,0.0,510.0,5.0,0.0
4835,70.0,0.0,510.0,2.0,0.0
4836,65.0,0.0,15.0,0.0,0.0
4837,70.0,0.0,510.0,0.0,0.0
4838,70.0,0.0,510.0,6.0,0.0
4839,77.0,0.0,600.0,2.0,0.0
4840,74.0,0.0,600.0,10.0,0.0
4841,74.0,0.0,600.0,2.0,0.0
4842,70.0,922.0,600.0,11.0,0.0
4843,74.0,0.0,15.0,3.0,0.0
4844,74.0,0.0,15.0,0.0,0.0
4845,70.0,0.0,600.0,7.0,0.0
4846,58.0,0.0,15.0,14.0,0.0
4847,77.0,0.0,600.0,0.0,0.0
4848,77.0,0.0,600.0,3.0,0.0
4849,74.0,0.0,600.0,6.0,0.0
4850,77.0,0.0,600.0,5.0,0.0
4851,70.0,0.0,600.0,0.0,0.0
4852,77.0,0.0,600.0,3.0,0.0
4853,65.0,0.0,600.0,12.0,0.0
4854,74.0,0.0,600.0,3.0,0.0
4855,74.0,0.0,600.0,6.0,0.0
4856,58.0,0.0,600.0,13.0,0.0
4857,77.0,0.0,600.0,5.0,0.0
4858,34.0,0.0,510.0,15.0,0.0
4859,34.0,0.0,510.0,4.0,0.0
4860,46.0,102.0,510.0,14.0,0.0
4861,74.0,0.0,600.0,10.0,0.0
4862,70.0,0.0,600.0,7.0,0.0
4863,34.0,0.0,510.0,8.0,0.0
4864,77.0,0.0,600.0,0.0,0.0
4865,74.0,0.0,600.0,0.0,0.0
4866,70.0,0.0,600.0,0.0,0.0
4867,70.0,512.0,2040.0,11.0,0.0
4868,77.0,0.0,600.0,2.0,0.0
4869,74.0,410.0,600.0,2.0,0.0
4870,46.0,0.0,15.0,1.0,0.0
4871,38.0,0.0,510.0,4.0,0.0
4872,38.0,614.0,510.0,8.0,0.0
4873,38.0,0.0,510.0,15.0,0.0
4874,50.0,0.0,510.0,14.0,0.0
4875,74.0,0.0,600.0,0.0,0.0
4876,58.0,0.0,600.0,13.0,0.0
4877,53.0,0.0,600.0,14.0,0.0
4878,77.0,0.0,600.0,0.0,0.0
4879,70.0,0.0,600.0,7.0,0.0
4880,77.0,0.0,600.0,3.0,0.0
4881,74.0,0.0,600.0,3.0,0.0
4882,65.0,0.0,600.0,12.0,0.0
4883,70.0,0.0,600.0,0.0,0.0
4884,74.0,0.0,600.0,10.0,0.0
4885,77.0,0.0,600.0,2.0,0.0
4886,77.0,0.0,600.0,5.0,0.0
4887,41.0,0.0,600.0,15.0,0.0
4888,74.0,0.0,600.0,2.0,0.0
4889,41.0,410.0,600.0,4.0,0.0
4890,74.0,0.0,600.0,6.0,0.0
4891,46.0,0.0,600.0,1.0,0.0
4892,41.0,0.0,600.0,8.0,0.0
4893,74.0,410.0,600.0,6.0,0.0
4894,38.0,102.0,510.0,15.0,0.0
4895,70.0,0.0,600.0,0.0,0.0
4896,74.0,0.0,600.0,3.0,0.0
4897,77.0,0.0,600.0,3.0,0.0
4898,77.0,0.0,600.0,5.0,0.0
4899,74.0,0.0,600.0,0.0,0.0
4900,77.0,0.0,600.0,0.0,0.0
4901,50.0,0.0,510.0,14.0,0.0
4902,70.0,0.0,1650.0,11.0,0.0
4903,38.0,0.0,510.0,8.0,0.0
4904,38.0,0.0,510.0,4.0,0.0
4905,58.0,0.0,600.0,13.0,0.0
4906,77.0,0.0,600.0,2.0,0.0
4907,70.0,0.0,600.0,7.0,0.0
4908,65.0,0.0,600.0,12.0,0.0
4909,74.0,0.0,600.0,2.0,0.0
4910,74.0,0.0,600.0,10.0,0.0
4911,41.0,0.0,510.0,15.0,0.0
4912,41.0,0.0,510.0,8.0,0.0
4913,41.0,0.0,510.0,4.0,0.0
4914,46.0,0.0,15.0,1.0,0.0
4915,53.0,0.0,510.0,14.0,0.0
4916,77.0,0.0,600.0,3.0,0.0
4917,74.0,0.0,600.0,3.0,0.0
4918,46.0,0.0,600.0,4.0,0.0
4919,77.0,410.0,600.0,2.0,0.0
4920,74.0,0.0,600.0,6.0,0.0
4921,46.0,0.0,600.0,15.0,0.0
4922,77.0,0.0,600.0,5.0,0.0
4923,70.0,0.0,600.0,0.0,0.0
4924,74.0,0.0,600.0,0.0,0.0
4925,77.0,0.0,600.0,0.0,0.0
4926,74.0,0.0,600.0,2.0,0.0
4927,46.0,0.0,600.0,8.0,0.0
4928,58.0,512.0,3060.0,13.0,0.0
4929,58.0,0.0,600.0,14.0,0.0
4930,70.0,0.0,600.0,7.0,0.0
4931,46.0,0.0,600.0,1.0,0.0
4932,74.0,512.0,1020.0,10.0,0.0
4933,65.0,0.0,1020.0,12.0,0.0
4934,70.0,0.0,600.0,11.0,0.0
4935,58.0,410.0,600.0,7.0,0.0
4936,46.0,0.0,600.0,4.0,0.0
4937,63.0,0.0,510.0,12.0,0.0
4938,75.0,0.0,510.0,3.0,0.0
4939,72.0,0.0,510.0,3.0,0.0
4940,46.0,0.0,600.0,15.0,0.0
4941,58.0,0.0,600.0,14.0,0.0
4942,72.0,102.0,510.0,2.0,0.0
4943,75.0,0.0,510.0,5.0,0.0
4944,72.0,0.0,510.0,10.0,0.0
4945,75.0,0.0,510.0,2.0,0.0
4946,70.0,0.0,600.0,0.0,0.0
4947,46.0,0.0,600.0,1.0,0.0
4948,72.0,0.0,510.0,0.0,0.0
4949,75.0,0.0,510.0,0.0,0.0
4950,72.0,0.0,510.0,6.0,0.0
4951,46.0,0.0,600.0,8.0,0.0
4952,65.0,0.0,510.0,12.0,0.0
4953,74.0,0.0,510.0,3.0,0.0
4954,74.0,0.0,510.0,0.0,0.0
4955,77.0,0.0,510.0,5.0,0.0
4956,77.0,614.0,510.0,3.0,0.0
4957,74.0,0.0,510.0,10.0,0.0
4958,74.0,0.0,510.0,6.0,0.0
4959,74.0,0.0,510.0,2.0,0.0
4960,77.0,0.0,510.0,2.0,0.0
4961,77.0,0.0,510.0,0.0,0.0
4962,75.0,0.0,600.0,0.0,0.0
4963,75.0,410.0,600.0,10.0,0.0
4964,70.0,0.0,600.0,0.0,0.0
4965,46.0,0.0,600.0,15.0,0.0
4966,79.0,0.0,600.0,0.0,0.0
4967,75.0,0.0,600.0,6.0,0.0
4968,63.0,0.0,600.0,7.0,0.0
4969,46.0,0.0,600.0,1.0,0.0
4970,67.0,0.0,600.0,12.0,0.0
4971,46.0,0.0,600.0,4.0,0.0
4972,79.0,0.0,600.0,3.0,0.0
4973,58.0,0.0,2670.0,14.0,0.0
4974,75.0,0.0,600.0,3.0,0.0
4975,79.0,0.0,600.0,2.0,0.0
4976,79.0,0.0,600.0,5.0,0.0
4977,70.0,0.0,600.0,11.0,0.0
4978,46.0,0.0,600.0,8.0,0.0
4979,75.0,0.0,600.0,2.0,0.0
4980,51.0,0.0,600.0,13.0,0.0
4981,77.0,0.0,510.0,3.0,0.0
4982,74.0,0.0,510.0,6.0,0.0
4983,67.0,0.0,600.0,7.0,0.0
4984,74.0,0.0,510.0,3.0,0.0
4985,70.0,0.0,600.0,0.0,0.0
4986,65.0,0.0,510.0,12.0,0.0
4987,70.0,0.0,600.0,11.0,0.0
4988,74.0,0.0,510.0,2.0,0.0
4989,77.0,102.0,510.0,2.0,0.0
4990,77.0,0.0,510.0,5.0,0.0
4991,46.0,0.0,600.0,4.0,0.0
4992,74.0,0.0,510.0,10.0,0.0
4993,77.0,0.0,510.0,0.0,0.0
4994,46.0,0.0,600.0,15.0,0.0
4995,74.0,0.0,510.0,0.0,0.0
4996,46.0,410.0,600.0,8.0,0.0
4997,46.0,0.0,600.0,1.0,0.0
4998,75.0,0.0,510.0,0.0,0.0
4999,72.0,0.0,510.0,0.0,0.0
5000,72.0,614.0,510.0,6.0,0.0
5001,75.0,0.0,510.0,5.0,0.0
5002,72.0,0.0,510.0,3.0,0.0
5003,63.0,0.0,510.0,12.0,0.0
5004,75.0,0.0,510.0,3.0,0.0
5005,72.0,0.0,510.0,10.0,0.0
5006,72.0,0.0,510.0,2.0,0.0
5007,75.0,0.0,510.0,2.0,0.0
5008,46.0,0.0,600.0,1.0,0.0
5009,65.0,0.0,2040.0,12.0,0.0
5010,77.0,0.0,600.0,3.0,0.0
5011,77.0,0.0,600.0,2.0,0.0
5012,70.0,0.0,600.0,7.0,0.0
5013,46.0,0.0,600.0,15.0,0.0
5014,46.0,0.0,600.0,4.0,0.0
5015,77.0,0.0,600.0,5.0,0.0
5016,74.0,922.0,600.0,3.0,0.0
5017,74.0,0.0,600.0,10.0,0.0
5018,70.0,0.0,600.0,11.0,0.0
5019,74.0,0.0,600.0,2.0,0.0
5020,46.0,0.0,600.0,8.0,0.0
5021,70.0,0.0,600.0,0.0,0.0
5022,74.0,0.0,600.0,0.0,0.0
5023,50.0,0.0,600.0,13.0,0.0
5024,77.0,0.0,600.0,0.0,0.0
5025,74.0,0.0,600.0,6.0,0.0
5026,34.0,0.0,510.0,4.0,0.0
5027,74.0,0.0,510.0,3.0,0.0
5028,70.0,0.0,600.0,3.0,0.0
5029,77.0,0.0,600.0,10.0,0.0
5030,34.0,0.0,510.0,8.0,0.0
5031,58.0,0.0,600.0,11.0,0.0
5032,74.0,0.0,510.0,5.0,0.0
5033,46.0,0.0,600.0,14.0,0.0
5034,34.0,0.0,510.0,15.0,0.0
5035,74.0,102.0,510.0,2.0,0.0
5036,53.0,0.0,600.0,13.0,0.0
5037,70.0,0.0,600.0,0.0,0.0
5038,65.0,0.0,600.0,0.0,0.0
5039,65.0,0.0,600.0,7.0,0.0
5040,74.0,0.0,510.0,0.0,0.0
5041,70.0,410.0,600.0,2.0,0.0
5042,70.0,0.0,600.0,6.0,0.0
5043,38.0,614.0,510.0,8.0,0.0
5044,77.0,0.0,510.0,5.0,0.0
5045,77.0,0.0,510.0,3.0,0.0
5046,77.0,0.0,510.0,2.0,0.0
5047,38.0,0.0,510.0,15.0,0.0
5048,38.0,0.0,510.0,4.0,0.0
5049,77.0,0.0,510.0,0.0,0.0
5050,74.0,0.0,600.0,10.0,0.0
5051,82.0,0.0,600.0,5.0,0.0
5052,82.0,922.0,600.0,0.0,0.0
5053,41.0,0.0,600.0,15.0,0.0
5054,82.0,0.0,600.0,2.0,0.0
5055,41.0,0.0,600.0,4.0,0.0
5056,41.0,0.0,600.0,8.0,0.0
5057,46.0,0.0,600.0,14.0,0.0
5058,58.0,0.0,600.0,13.0,0.0
5059,82.0,0.0,600.0,3.0,0.0
5060,58.0,614.0,2040.0,12.0,0.0
5061,62.0,0.0,600.0,11.0,0.0
5062,46.0,0.0,600.0,14.0,0.0
5063,77.0,0.0,600.0,3.0,0.0
5064,62.0,0.0,600.0,13.0,0.0
5065,74.0,0.0,600.0,6.0,0.0
5066,70.0,0.0,600.0,7.0,0.0
5067,38.0,102.0,510.0,8.0,0.0
5068,65.0,0.0,600.0,11.0,0.0
5069,77.0,0.0,600.0,2.0,0.0
5070,74.0,0.0,600.0,3.0,0.0
5071,77.0,0.0,600.0,0.0,0.0
5072,70.0,0.0,600.0,10.0,0.0
5073,74.0,0.0,600.0,0.0,0.0
5074,70.0,0.0,600.0,0.0,0.0
5075,38.0,0.0,510.0,15.0,0.0
5076,38.0,0.0,510.0,4.0,0.0
5077,74.0,410.0,600.0,2.0,0.0
5078,77.0,0.0,600.0,5.0,0.0
5079,41.0,0.0,510.0,4.0,0.0
5080,41.0,0.0,510.0,15.0,0.0
5081,46.0,0.0,15.0,1.0,0.0
5082,41.0,0.0,510.0,8.0,0.0
5083,72.0,0.0,4110.0,10.0,0.0
5084,72.0,0.0,600.0,6.0,0.0
5085,65.0,922.0,600.0,0.0,0.0
5086,75.0,0.0,600.0,5.0,0.0
5087,51.0,0.0,4110.0,13.0,0.0
5088,72.0,0.0,600.0,0.0,0.0
5089,46.0,0.0,600.0,8.0,0.0
5090,46.0,0.0,600.0,1.0,0.0
5091,69.0,0.0,600.0,7.0,0.0
5092,46.0,0.0,600.0,4.0,0.0
5093,75.0,0.0,600.0,0.0,0.0
5094,69.0,614.0,4110.0,11.0,0.0
5095,46.0,0.0,600.0,15.0,0.0
5096,75.0,0.0,600.0,2.0,0.0
5097,46.0,0.0,4110.0,14.0,0.0
5098,72.0,0.0,600.0,2.0,0.0
5099,75.0,0.0,600.0,3.0,0.0
5100,72.0,0.0,600.0,3.0,0.0
5101,74.0,0.0,510.0,2.0,0.0
5102,70.0,0.0,510.0,2.0,0.0
5103,46.0,0.0,600.0,8.0,0.0
5104,46.0,0.0,600.0,1.0,0.0
5105,46.0,410.0,600.0,4.0,0.0
5106,70.0,0.0,510.0,0.0,0.0
5107,74.0,0.0,510.0,5.0,0.0
5108,70.0,102.0,510.0,6.0,0.0
5109,46.0,0.0,600.0,15.0,0.0
5110,65.0,0.0,600.0,7.0,0.0
5111,74.0,0.0,510.0,3.0,0.0
5112,70.0,0.0,510.0,3.0,0.0
5113,74.0,0.0,510.0,0.0,0.0
5114,65.0,0.0,510.0,0.0,0.0
5115,72.0,0.0,510.0,0.0,0.0
5116,72.0,0.0,510.0,3.0,0.0
5117,75.0,512.0,510.0,2.0,0.0
5118,75.0,0.0,510.0,3.0,0.0
5119,75.0,0.0,510.0,5.0,0.0
5120,75.0,0.0,510.0,0.0,0.0
5121,72.0,0.0,510.0,2.0,0.0
5122,72.0,0.0,510.0,6.0,0.0
5123,46.0,410.0,600.0,8.0,0.0
5124,77.0,0.0,510.0,0.0,0.0
5125,65.0,0.0,15.0,0.0,0.0
5126,77.0,0.0,510.0,3.0,0.0
5127,77.0,0.0,510.0,2.0,0.0
5128,46.0,0.0,600.0,15.0,0.0
5129,69.0,0.0,510.0,3.0,0.0
5130,60.0,0.0,600.0,7.0,0.0
5131,46.0,0.0,600.0,1.0,0.0
5132,77.0,0.0,510.0,5.0,0.0
5133,69.0,0.0,510.0,2.0,0.0
5134,60.0,0.0,600.0,12.0,0.0
5135,69.0,102.0,510.0,6.0,0.0
5136,46.0,0.0,600.0,4.0,0.0
5137,65.0,0.0,15.0,0.0,0.0
5138,75.0,0.0,510.0,2.0,0.0
5139,72.0,0.0,510.0,3.0,0.0
5140,75.0,512.0,510.0,0.0,0.0
5141,72.0,0.0,510.0,0.0,0.0
5142,75.0,0.0,510.0,5.0,0.0
5143,72.0,0.0,510.0,6.0,0.0
5144,75.0,0.0,510.0,3.0,0.0
5145,72.0,0.0,510.0,2.0,0.0
5146,70.0,0.0,510.0,0.0,0.0
5147,46.0,0.0,600.0,15.0,0.0
5148,74.0,0.0,510.0,2.0,0.0
5149,65.0,410.0,600.0,7.0,0.0
5150,70.0,0.0,510.0,6.0,0.0
5151,46.0,0.0,600.0,1.0,0.0
5152,65.0,0.0,600.0,12.0,0.0
5153,46.0,0.0,600.0,4.0,0.0
5154,70.0,0.0,510.0,3.0,0.0
5155,74.0,0.0,510.0,3.0,0.0
5156,74.0,0.0,510.0,5.0,0.0
5157,74.0,102.0,510.0,0.0,0.0
5158,70.0,0.0,510.0,2.0,0.0
5159,46.0,0.0,600.0,8.0,0.0
5160,65.0,0.0,15.0,0.0,0.0
5161,69.0,0.0,510.0,3.0,0.0
5162,69.0,0.0,510.0,0.0,0.0
5163,72.0,0.0,510.0,3.0,0.0
5164,72.0,0.0,510.0,0.0,0.0
5165,69.0,0.0,510.0,2.0,0.0
5166,69.0,0.0,510.0,6.0,0.0
5167,72.0,0.0,510.0,2.0,0.0
5168,72.0,0.0,510.0,5.0,0.0
5169,74.0,0.0,600.0,3.0,0.0
5170,70.0,0.0,600.0,3.0,0.0
5171,46.0,0.0,600.0,4.0,0.0
5172,70.0,0.0,600.0,6.0,0.0
5173,74.0,1024.0,600.0,5.0,0.0
5174,46.0,0.0,600.0,15.0,0.0
5175,70.0,0.0,2040.0,11.0,0.0
5176,70.0,0.0,2040.0,10.0,0.0
5177,74.0,0.0,600.0,0.0,0.0
5178,70.0,0.0,600.0,0.0,0.0
5179,65.0,0.0,600.0,0.0,0.0
5180,46.0,0.0,2040.0,1.0,0.0
5181,46.0,0.0,600.0,8.0,0.0
5182,74.0,0.0,600.0,2.0,0.0
5183,46.0,512.0,2040.0,14.0,0.0
5184,62.0,0.0,600.0,12.0,0.0
5185,70.0,0.0,600.0,2.0,0.0
5186,53.0,0.0,2040.0,13.0,0.0
5187,65.0,0.0,600.0,7.0,0.0
5188,58.0,0.0,600.0,12.0,0.0
5189,34.0,0.0,600.0,15.0,0.0
5190,62.0,0.0,600.0,7.0,0.0
5191,34.0,0.0,600.0,4.0,0.0
5192,65.0,0.0,600.0,2.0,0.0
5193,70.0,0.0,600.0,2.0,0.0
5194,65.0,0.0,600.0,3.0,0.0
5195,70.0,0.0,600.0,0.0,0.0
5196,65.0,0.0,600.0,0.0,0.0
5197,34.0,410.0,600.0,8.0,0.0
5198,62.0,0.0,600.0,0.0,0.0
5199,70.0,0.0,600.0,3.0,0.0
5200,65.0,0.0,600.0,6.0,0.0
5201,70.0,0.0,600.0,5.0,0.0
5202,45.0,0.0,600.0,4.0,0.0
5203,45.0,410.0,600.0,8.0,0.0
5204,60.0,102.0,510.0,12.0,0.0
5205,45.0,0.0,600.0,15.0,0.0
5206,62.0,512.0,510.0,12.0,0.0
5207,58.0,102.0,510.0,12.0,0.0
5208,41.0,410.0,600.0,8.0,0.0
5209,41.0,0.0,600.0,4.0,0.0
5210,41.0,0.0,600.0,15.0,0.0
5211,60.0,512.0,510.0,12.0,0.0
5212,46.0,0.0,600.0,8.0,0.0
5213,46.0,0.0,600.0,15.0,0.0
5214,46.0,410.0,600.0,4.0,0.0
5215,62.0,102.0,510.0,12.0,0.0
5216,64.0,512.0,510.0,12.0,0.0
5217,45.0,0.0,510.0,15.0,0.0
5218,45.0,0.0,510.0,4.0,0.0
5219,45.0,0.0,510.0,8.0,0.0
5220,60.0,512.0,510.0,12.0,0.0
5221,62.0,0.0,510.0,12.0,0.0
5222,43.0,512.0,510.0,15.0,0.0
5223,43.0,0.0,510.0,4.0,0.0
5224,43.0,0.0,510.0,8.0,0.0
5225,48.0,0.0,600.0,8.0,0.0
5226,67.0,410.0,600.0,10.0,0.0
5227,48.0,0.0,600.0,15.0,0.0
5228,64.0,102.0,510.0,12.0,0.0
5229,48.0,0.0,600.0,4.0,0.0
5230,65.0,512.0,510.0,12.0,0.0
5231,36.0,0.0,600.0,8.0,0.0
5232,36.0,410.0,600.0,4.0,0.0
5233,62.0,102.0,510.0,12.0,0.0
5234,72.0,0.0,600.0,10.0,0.0
5235,36.0,0.0,600.0,15.0,0.0
5236,64.0,512.0,510.0,12.0,0.0
5237,41.0,410.0,600.0,15.0,0.0
5238,65.0,102.0,510.0,12.0,0.0
5239,41.0,0.0,600.0,4.0,0.0
5240,69.0,0.0,600.0,10.0,0.0
5241,41.0,0.0,600.0,8.0,0.0
5242,67.0,512.0,510.0,12.0,0.0
5243,65.0,410.0,600.0,10.0,0.0
5244,64.0,0.0,510.0,12.0,0.0
5245,43.0,0.0,510.0,8.0,0.0
5246,43.0,0.0,510.0,15.0,0.0
5247,43.0,102.0,510.0,4.0,0.0
5248,45.0,0.0,510.0,4.0,0.0
5249,45.0,0.0,510.0,8.0,0.0
5250,45.0,0.0,510.0,15.0,0.0
5251,65.0,512.0,510.0,12.0,0.0
5252,46.0,0.0,4110.0,15.0,0.0
5253,46.0,0.0,4110.0,4.0,0.0
5254,62.0,410.0,600.0,12.0,0.0
5255,65.0,102.0,510.0,10.0,0.0
5256,46.0,512.0,4110.0,8.0,0.0
5257,67.0,512.0,510.0,10.0,0.0
5258,64.0,102.0,510.0,10.0,0.0
5259,62.0,410.0,600.0,12.0,0.0
5260,65.0,512.0,510.0,10.0,0.0
5261,64.0,0.0,2040.0,12.0,0.0
5262,67.0,512.0,510.0,10.0,0.0
5263,69.0,512.0,510.0,10.0,0.0
5264,65.0,512.0,510.0,10.0,0.0
5265,67.0,0.0,510.0,10.0,0.0
5266,45.0,0.0,2040.0,15.0,0.0
5267,66.0,0.0,2040.0,12.0,0.0
5268,57.0,410.0,600.0,13.0,0.0
5269,69.0,102.0,510.0,10.0,0.0
5270,45.0,512.0,2040.0,4.0,0.0
5271,45.0,0.0,2040.0,8.0,0.0
5272,70.0,512.0,510.0,10.0,0.0
5273,67.0,102.0,510.0,10.0,0.0
5274,62.0,410.0,600.0,13.0,0.0
5275,69.0,0.0,510.0,10.0,0.0
5276,43.0,512.0,2040.0,15.0,0.0
5277,67.0,410.0,4710.0,12.0,0.0
5278,70.0,102.0,510.0,10.0,0.0
5279,58.0,410.0,600.0,13.0,0.0
5280,43.0,0.0,2040.0,4.0,0.0
5281,43.0,0.0,2040.0,8.0,0.0
5282,72.0,512.0,510.0,10.0,0.0
5283,55.0,410.0,600.0,13.0,0.0
5284,69.0,102.0,510.0,10.0,0.0
5285,70.0,0.0,510.0,10.0,0.0
5286,67.0,410.0,600.0,10.0,0.0
5287,52.0,102.0,510.0,13.0,0.0
5288,53.0,512.0,510.0,13.0,0.0
5289,67.0,410.0,600.0,10.0,0.0
5290,50.0,102.0,510.0,13.0,0.0
5291,52.0,512.0,510.0,13.0,0.0
5292,69.0,512.0,2040.0,10.0,0.0
5293,53.0,102.0,510.0,13.0,0.0
5294,55.0,512.0,510.0,13.0,0.0
5295,67.0,410.0,600.0,12.0,0.0
5296,52.0,102.0,510.0,13.0,0.0
5297,53.0,0.0,510.0,13.0,0.0
5298,70.0,0.0,2040.0,10.0,0.0
5299,55.0,102.0,510.0,13.0,0.0
5300,62.0,410.0,600.0,11.0,0.0
5301,65.0,0.0,600.0,12.0,0.0
5302,57.0,512.0,510.0,13.0,0.0
5303,67.0,0.0,600.0,11.0,0.0
5304,62.0,410.0,600.0,12.0,0.0
5305,53.0,102.0,510.0,13.0,0.0
5306,55.0,512.0,510.0,13.0,0.0
5307,60.0,0.0,600.0,14.0,0.0
5308,64.0,0.0,600.0,11.0,0.0
5309,60.0,0.0,600.0,12.0,0.0
5310,48.0,0.0,600.0,15.0,0.0
5311,72.0,410.0,4710.0,10.0,0.0
5312,48.0,0.0,600.0,8.0,0.0
5313,48.0,410.0,600.0,4.0,0.0
5314,57.0,102.0,510.0,13.0,0.0
5315,58.0,512.0,510.0,13.0,0.0
5316,57.0,102.0,510.0,13.0,0.0
5317,53.0,0.0,600.0,14.0,0.0
5318,36.0,0.0,600.0,8.0,0.0
5319,36.0,0.0,600.0,4.0,0.0
5320,36.0,410.0,600.0,15.0,0.0
5321,69.0,0.0,600.0,12.0,0.0
5322,60.0,0.0,600.0,11.0,0.0
5323,58.0,512.0,510.0,13.0,0.0
5324,48.0,102.0,510.0,15.0,0.0
5325,52.0,0.0,600.0,14.0,0.0
5326,48.0,0.0,510.0,8.0,0.0
5327,64.0,0.0,510.0,11.0,0.0
5328,48.0,0.0,510.0,4.0,0.0
5329,60.0,0.0,600.0,13.0,0.0
5330,67.0,410.0,600.0,12.0,0.0
5331,50.0,0.0,510.0,4.0,0.0
5332,50.0,0.0,510.0,8.0,0.0
5333,50.0,512.0,510.0,15.0,0.0
5334,65.0,0.0,510.0,11.0,0.0
5335,55.0,0.0,600.0,13.0,0.0
5336,46.0,102.0,510.0,8.0,0.0
5337,48.0,410.0,600.0,14.0,0.0
5338,46.0,0.0,510.0,15.0,0.0
5339,62.0,0.0,510.0,11.0,0.0
5340,46.0,0.0,510.0,4.0,0.0
5341,64.0,0.0,600.0,12.0,0.0
5342,64.0,0.0,510.0,11.0,0.0
5343,48.0,0.0,510.0,8.0,0.0
5344,48.0,0.0,510.0,4.0,0.0
5345,48.0,512.0,510.0,15.0,0.0
5346,62.0,0.0,2040.0,12.0,0.0
5347,50.0,0.0,510.0,14.0,0.0
5348,50.0,0.0,510.0,8.0,0.0
5349,50.0,0.0,510.0,4.0,0.0
5350,53.0,0.0,2040.0,13.0,0.0
5351,65.0,0.0,510.0,11.0,0.0
5352,50.0,102.0,510.0,15.0,0.0
5353,52.0,0.0,510.0,8.0,0.0
5354,52.0,512.0,510.0,4.0,0.0
5355,67.0,0.0,510.0,11.0,0.0
5356,52.0,0.0,510.0,14.0,0.0
5357,52.0,0.0,510.0,15.0,0.0
5358,48.0,0.0,510.0,14.0,0.0
5359,64.0,0.0,510.0,11.0,0.0
5360,48.0,0.0,510.0,8.0,0.0
5361,48.0,102.0,510.0,4.0,0.0
5362,72.0,410.0,600.0,10.0,0.0
5363,48.0,0.0,510.0,15.0,0.0
5364,50.0,512.0,510.0,8.0,0.0
5365,50.0,0.0,510.0,14.0,0.0
5366,50.0,0.0,510.0,4.0,0.0
5367,50.0,0.0,510.0,15.0,0.0
5368,65.0,0.0,510.0,11.0,0.0
5369,70.0,410.0,600.0,10.0,0.0
5370,55.0,0.0,2040.0,12.0,0.0
5371,52.0,0.0,510.0,4.0,0.0
5372,52.0,0.0,510.0,15.0,0.0
5373,52.0,0.0,510.0,8.0,0.0
5374,67.0,0.0,510.0,11.0,0.0
5375,60.0,0.0,2040.0,13.0,0.0
5376,52.0,102.0,510.0,14.0,0.0
5377,53.0,512.0,510.0,8.0,0.0
5378,53.0,0.0,510.0,4.0,0.0
5379,53.0,0.0,510.0,14.0,0.0
5380,53.0,0.0,510.0,15.0,0.0
5381,69.0,0.0,510.0,11.0,0.0
5382,50.0,0.0,510.0,14.0,0.0
5383,50.0,0.0,510.0,4.0,0.0
5384,65.0,0.0,510.0,11.0,0.0
5385,70.0,410.0,600.0,10.0,0.0
5386,50.0,102.0,510.0,15.0,0.0
5387,50.0,0.0,510.0,8.0,0.0
5388,67.0,0.0,510.0,11.0,0.0
5389,52.0,0.0,510.0,8.0,0.0
5390,52.0,0.0,510.0,15.0,0.0
5391,52.0,0.0,510.0,14.0,0.0
5392,52.0,512.0,510.0,4.0,0.0
5393,69.0,410.0,600.0,11.0,0.0
5394,53.0,0.0,4710.0,12.0,0.0
5395,53.0,0.0,510.0,14.0,0.0
5396,69.0,102.0,510.0,10.0,0.0
5397,53.0,0.0,510.0,8.0,0.0
5398,53.0,0.0,510.0,15.0,0.0
5399,53.0,0.0,510.0,4.0,0.0
5400,60.0,0.0,4110.0,13.0,0.0
5401,55.0,0.0,510.0,8.0,0.0
5402,55.0,512.0,510.0,14.0,0.0
5403,55.0,0.0,510.0,15.0,0.0
5404,70.0,0.0,510.0,10.0,0.0
5405,55.0,0.0,510.0,4.0,0.0
5406,65.0,0.0,600.0,11.0,0.0
5407,60.0,0.0,600.0,7.0,0.0
5408,65.0,410.0,600.0,6.0,0.0
5409,69.0,0.0,510.0,3.0,0.0
5410,53.0,0.0,510.0,8.0,0.0
5411,69.0,0.0,510.0,2.0,0.0
5412,69.0,0.0,510.0,10.0,0.0
5413,69.0,0.0,510.0,5.0,0.0
5414,53.0,0.0,510.0,4.0,0.0
5415,53.0,0.0,510.0,14.0,0.0
5416,65.0,0.0,600.0,3.0,0.0
5417,53.0,0.0,510.0,15.0,0.0
5418,70.0,0.0,510.0,3.0,0.0
5419,55.0,512.0,510.0,15.0,0.0
5420,55.0,0.0,510.0,4.0,0.0
5421,70.0,0.0,510.0,5.0,0.0
5422,70.0,0.0,510.0,10.0,0.0
5423,55.0,0.0,510.0,14.0,0.0
5424,55.0,0.0,510.0,8.0,0.0
5425,70.0,0.0,510.0,2.0,0.0
5426,72.0,0.0,510.0,10.0,0.0
5427,60.0,0.0,600.0,7.0,0.0
5428,65.0,0.0,600.0,6.0,0.0
5429,65.0,0.0,600.0,3.0,0.0
5430,72.0,0.0,510.0,3.0,0.0
5431,72.0,0.0,510.0,2.0,0.0
5432,57.0,0.0,510.0,15.0,0.0
5433,41.0,410.0,600.0,1.0,0.0
5434,57.0,0.0,510.0,8.0,0.0
5435,65.0,0.0,600.0,0.0,0.0
5436,65.0,0.0,600.0,11.0,0.0
5437,57.0,0.0,510.0,4.0,0.0
5438,72.0,0.0,510.0,5.0,0.0
5439,72.0,0.0,510.0,0.0,0.0
5440,57.0,0.0,510.0,14.0,0.0
5441,58.0,0.0,510.0,15.0,0.0
5442,74.0,0.0,510.0,5.0,0.0
5443,74.0,0.0,510.0,0.0,0.0
5444,58.0,0.0,510.0,8.0,0.0
5445,58.0,0.0,510.0,4.0,0.0
5446,58.0,0.0,510.0,14.0,0.0
5447,74.0,0.0,510.0,2.0,0.0
5448,74.0,0.0,510.0,10.0,0.0
5449,74.0,0.0,510.0,3.0,0.0
5450,65.0,0.0,600.0,6.0,0.0
5451,70.0,0.0,510.0,10.0,0.0
5452,70.0,0.0,510.0,3.0,0.0
5453,65.0,410.0,600.0,3.0,0.0
5454,55.0,0.0,510.0,14.0,0.0
5455,65.0,0.0,600.0,11.0,0.0
5456,55.0,0.0,510.0,8.0,0.0
5457,70.0,0.0,510.0,2.0,0.0
5458,55.0,0.0,510.0,15.0,0.0
5459,70.0,0.0,510.0,0.0,0.0
5460,55.0,102.0,510.0,4.0,0.0
5461,65.0,0.0,600.0,7.0,0.0
5462,70.0,0.0,510.0,5.0,0.0
5463,72.0,0.0,510.0,10.0,0.0
5464,57.0,0.0,510.0,4.0,0.0
5465,72.0,0.0,510.0,0.0,0.0
5466,72.0,0.0,510.0,5.0,0.0
5467,57.0,0.0,510.0,8.0,0.0
5468,72.0,0.0,510.0,2.0,0.0
5469,57.0,0.0,510.0,14.0,0.0
5470,57.0,0.0,510.0,15.0,0.0
5471,72.0,0.0,510.0,3.0,0.0
5472,65.0,0.0,510.0,11.0,0.0
5473,46.0,0.0,600.0,1.0,0.0
5474,58.0,0.0,600.0,4.0,0.0
5475,74.0,0.0,510.0,5.0,0.0
5476,58.0,0.0,2040.0,13.0,0.0
5477,58.0,410.0,600.0,14.0,0.0
5478,70.0,0.0,600.0,0.0,0.0
5479,58.0,0.0,600.0,15.0,0.0
5480,65.0,0.0,600.0,7.0,0.0
5481,65.0,0.0,600.0,0.0,0.0
5482,74.0,0.0,600.0,10.0,0.0
5483,70.0,0.0,510.0,6.0,0.0
5484,74.0,0.0,510.0,3.0,0.0
5485,74.0,0.0,510.0,2.0,0.0
5486,58.0,0.0,600.0,8.0,0.0
5487,70.0,0.0,510.0,3.0,0.0
5488,74.0,102.0,510.0,0.0,0.0
5489,72.0,0.0,510.0,6.0,0.0
5490,76.0,0.0,510.0,2.0,0.0
5491,67.0,0.0,510.0,11.0,0.0
5492,72.0,0.0,510.0,3.0,0.0
5493,76.0,512.0,510.0,3.0,0.0
5494,76.0,0.0,510.0,0.0,0.0
5495,76.0,0.0,510.0,5.0,0.0
5496,46.0,410.0,600.0,14.0,0.0
5497,64.0,0.0,510.0,11.0,0.0
5498,58.0,0.0,600.0,12.0,0.0
5499,72.0,0.0,510.0,2.0,0.0
5500,67.0,0.0,600.0,10.0,0.0
5501,46.0,0.0,600.0,15.0,0.0
5502,65.0,0.0,600.0,7.0,0.0
5503,46.0,0.0,600.0,4.0,0.0
5504,72.0,0.0,510.0,0.0,0.0
5505,46.0,0.0,600.0,8.0,0.0
5506,69.0,0.0,510.0,3.0,0.0
5507,72.0,0.0,510.0,3.0,0.0
5508,72.0,0.0,510.0,5.0,0.0
5509,69.0,0.0,510.0,6.0,0.0
5510,70.0,0.0,510.0,3.0,0.0
5511,74.0,512.0,510.0,3.0,0.0
5512,70.0,0.0,510.0,6.0,0.0
5513,65.0,0.0,510.0,11.0,0.0
5514,74.0,0.0,510.0,0.0,0.0
5515,74.0,0.0,510.0,2.0,0.0
5516,74.0,0.0,510.0,5.0,0.0
5517,58.0,0.0,600.0,8.0,0.0
5518,72.0,0.0,600.0,0.0,0.0
5519,76.0,0.0,510.0,2.0,0.0
5520,72.0,0.0,2670.0,10.0,0.0
5521,76.0,0.0,510.0,0.0,0.0
5522,52.0,0.0,600.0,13.0,0.0
5523,67.0,0.0,510.0,3.0,0.0
5524,58.0,0.0,600.0,14.0,0.0
5525,67.0,0.0,510.0,6.0,0.0
5526,67.0,0.0,510.0,11.0,0.0
5527,60.0,0.0,600.0,7.0,0.0
5528,58.0,410.0,600.0,4.0,0.0
5529,58.0,0.0,600.0,15.0,0.0
5530,76.0,0.0,510.0,5.0,0.0
5531,76.0,0.0,510.0,3.0,0.0
5532,55.0,0.0,600.0,12.0,0.0
5533,69.0,0.0,510.0,6.0,0.0
5534,77.0,0.0,510.0,5.0,0.0
5535,77.0,0.0,510.0,0.0,0.0
5536,69.0,512.0,510.0,11.0,0.0
5537,69.0,0.0,510.0,3.0,0.0
5538,77.0,0.0,510.0,3.0,0.0
5539,77.0,0.0,510.0,2.0,0.0
5540,74.0,0.0,510.0,3.0,0.0
5541,74.0,102.0,510.0,0.0,0.0
5542,58.0,0.0,600.0,14.0,0.0
5543,58.0,0.0,600.0,4.0,0.0
5544,74.0,0.0,510.0,5.0,0.0
5545,58.0,0.0,600.0,8.0,0.0
5546,65.0,0.0,510.0,3.0,0.0
5547,60.0,0.0,600.0,12.0,0.0
5548,74.0,0.0,510.0,2.0,0.0
5549,60.0,0.0,600.0,7.0,0.0
5550,55.0,410.0,600.0,13.0,0.0
5551,65.0,0.0,510.0,6.0,0.0
5552,58.0,0.0,600.0,15.0,0.0
5553,65.0,0.0,510.0,11.0,0.0
5554,67.0,0.0,510.0,3.0,0.0
5555,76.0,0.0,510.0,3.0,0.0
5556,67.0,0.0,510.0,6.0,0.0
5557,76.0,0.0,510.0,5.0,0.0
5558,67.0,0.0,510.0,11.0,0.0
5559,76.0,0.0,510.0,2.0,0.0
5560,76.0,0.0,510.0,0.0,0.0
5561,77.0,102.0,510.0,3.0,0.0
5562,57.0,0.0,600.0,14.0,0.0
5563,69.0,0.0,510.0,3.0,0.0
5564,60.0,0.0,600.0,7.0,0.0
5565,53.0,0.0,600.0,13.0,0.0
5566,41.0,0.0,600.0,1.0,0.0
5567,57.0,0.0,600.0,4.0,0.0
5568,69.0,0.0,510.0,6.0,0.0
5569,60.0,0.0,600.0,12.0,0.0
5570,69.0,0.0,510.0,11.0,0.0
5571,77.0,0.0,510.0,5.0,0.0
5572,57.0,0.0,600.0,15.0,0.0
5573,77.0,0.0,510.0,0.0,0.0
5574,72.0,410.0,600.0,0.0,0.0
5575,57.0,0.0,600.0,8.0,0.0
5576,77.0,0.0,510.0,2.0,0.0
5577,65.0,0.0,600.0,0.0,0.0
5578,79.0,0.0,510.0,0.0,0.0
5579,70.0,0.0,510.0,11.0,0.0
5580,70.0,512.0,510.0,6.0,0.0
5581,79.0,0.0,510.0,5.0,0.0
5582,79.0,0.0,510.0,2.0,0.0
5583,79.0,0.0,510.0,3.0,0.0
5584,70.0,0.0,510.0,3.0,0.0
5585,76.0,0.0,510.0,0.0,0.0
5586,65.0,0.0,600.0,10.0,0.0
5587,55.0,0.0,510.0,15.0,0.0
5588,60.0,410.0,600.0,7.0,0.0
5589,55.0,102.0,510.0,4.0,0.0
5590,72.0,0.0,510.0,3.0,0.0
5591,76.0,0.0,510.0,3.0,0.0
5592,76.0,0.0,510.0,5.0,0.0
5593,55.0,0.0,510.0,14.0,0.0
5594,55.0,0.0,510.0,8.0,0.0
5595,72.0,0.0,510.0,11.0,0.0
5596,60.0,0.0,600.0,12.0,0.0
5597,76.0,0.0,510.0,2.0,0.0
5598,57.0,0.0,600.0,13.0,0.0
5599,72.0,0.0,510.0,6.0,0.0
5600,77.0,0.0,510.0,2.0,0.0
5601,53.0,0.0,510.0,14.0,0.0
5602,69.0,0.0,510.0,11.0,0.0
5603,77.0,0.0,510.0,5.0,0.0
5604,69.0,0.0,510.0,6.0,0.0
5605,53.0,0.0,510.0,8.0,0.0
5606,77.0,0.0,510.0,3.0,0.0
5607,69.0,0.0,510.0,3.0,0.0
5608,77.0,0.0,510.0,0.0,0.0
5609,53.0,0.0,510.0,4.0,0.0
5610,53.0,512.0,510.0,15.0,0.0
5611,67.0,0.0,600.0,10.0,0.0
5612,55.0,0.0,600.0,13.0,0.0
5613,70.0,0.0,600.0,6.0,0.0
5614,70.0,0.0,600.0,11.0,0.0
5615,70.0,0.0,600.0,3.0,0.0
5616,79.0,0.0,510.0,3.0,0.0
5617,79.0,0.0,510.0,5.0,0.0
5618,60.0,0.0,600.0,12.0,0.0
5619,70.0,0.0,600.0,0.0,0.0
5620,72.0,0.0,600.0,0.0,0.0
5621,79.0,0.0,510.0,0.0,0.0
5622,52.0,410.0,600.0,4.0,0.0
5623,52.0,0.0,600.0,8.0,0.0
5624,52.0,0.0,600.0,15.0,0.0
5625,52.0,0.0,600.0,14.0,0.0
5626,79.0,0.0,510.0,2.0,0.0
5627,60.0,0.0,600.0,7.0,0.0
5628,81.0,0.0,510.0,2.0,0.0
5629,81.0,0.0,510.0,0.0,0.0
5630,81.0,0.0,510.0,5.0,0.0
5631,81.0,0.0,510.0,3.0,0.0
5632,64.0,0.0,600.0,6.0,0.0
5633,64.0,0.0,600.0,10.0,0.0
5634,77.0,0.0,510.0,0.0,0.0
5635,77.0,102.0,510.0,5.0,0.0
5636,48.0,0.0,600.0,4.0,0.0
5637,77.0,0.0,510.0,3.0,0.0
5638,64.0,0.0,600.0,3.0,0.0
5639,48.0,0.0,600.0,8.0,0.0
5640,72.0,0.0,600.0,11.0,0.0
5641,77.0,0.0,510.0,2.0,0.0
5642,48.0,410.0,600.0,15.0,0.0
5643,60.0,0.0,600.0,12.0,0.0
5644,60.0,0.0,600.0,7.0,0.0
5645,48.0,0.0,600.0,14.0,0.0
5646,57.0,0.0,510.0,13.0,0.0
5647,79.0,0.0,510.0,0.0,0.0
5648,58.0,0.0,510.0,13.0,0.0
5649,79.0,614.0,510.0,3.0,0.0
5650,79.0,0.0,510.0,5.0,0.0
5651,79.0,0.0,510.0,2.0,0.0
5652,65.0,0.0,600.0,0.0,0.0
5653,53.0,0.0,600.0,15.0,0.0
5654,53.0,0.0,600.0,8.0,0.0
5655,60.0,0.0,600.0,7.0,0.0
5656,41.0,0.0,600.0,1.0,0.0
5657,72.0,0.0,600.0,6.0,0.0
5658,81.0,0.0,600.0,2.0,0.0
5659,65.0,0.0,600.0,11.0,0.0
5660,81.0,0.0,600.0,0.0,0.0
5661,72.0,0.0,600.0,0.0,0.0
5662,60.0,0.0,600.0,12.0,0.0
5663,65.0,0.0,600.0,10.0,0.0
5664,81.0,0.0,600.0,5.0,0.0
5665,53.0,0.0,600.0,14.0,0.0
5666,72.0,922.0,600.0,3.0,0.0
5667,81.0,0.0,600.0,3.0,0.0
5668,53.0,0.0,600.0,4.0,0.0
5669,57.0,0.0,600.0,13.0,0.0
5670,79.0,0.0,510.0,2.0,0.0
5671,79.0,0.0,510.0,5.0,0.0
5672,41.0,0.0,510.0,1.0,0.0
5673,79.0,0.0,510.0,0.0,0.0
5674,50.0,0.0,600.0,14.0,0.0
5675,67.0,0.0,510.0,10.0,0.0
5676,70.0,0.0,510.0,3.0,0.0
5677,50.0,0.0,600.0,15.0,0.0
5678,57.0,0.0,600.0,13.0,0.0
5679,62.0,0.0,600.0,7.0,0.0
5680,50.0,410.0,600.0,4.0,0.0
5681,74.0,0.0,600.0,0.0,0.0
5682,62.0,0.0,600.0,12.0,0.0
5683,50.0,0.0,600.0,8.0,0.0
5684,65.0,0.0,600.0,11.0,0.0
5685,70.0,0.0,510.0,6.0,0.0
5686,70.0,0.0,510.0,0.0,0.0
5687,79.0,0.0,510.0,3.0,0.0
5688,41.0,0.0,510.0,1.0,0.0
5689,77.0,0.0,510.0,3.0,0.0
5690,69.0,0.0,510.0,10.0,0.0
5691,69.0,614.0,510.0,6.0,0.0
5692,69.0,0.0,510.0,0.0,0.0
5693,69.0,0.0,510.0,3.0,0.0
5694,77.0,0.0,510.0,5.0,0.0
5695,77.0,0.0,510.0,0.0,0.0
5696,77.0,0.0,510.0,2.0,0.0
5697,74.0,0.0,600.0,0.0,0.0
5698,79.0,0.0,600.0,0.0,0.0
5699,46.0,0.0,600.0,15.0,0.0
5700,79.0,0.0,600.0,5.0,0.0
5701,62.0,614.0,1020.0,12.0,0.0
5702,70.0,0.0,600.0,0.0,0.0
5703,50.0,0.0,1020.0,13.0,0.0
5704,79.0,0.0,600.0,3.0,0.0
5705,46.0,0.0,600.0,8.0,0.0
5706,67.0,0.0,2040.0,11.0,0.0
5707,46.0,0.0,600.0,4.0,0.0
5708,70.0,0.0,600.0,3.0,0.0
5709,62.0,0.0,600.0,7.0,0.0
5710,46.0,0.0,1020.0,14.0,0.0
5711,79.0,0.0,600.0,2.0,0.0
5712,46.0,410.0,600.0,1.0,0.0
5713,70.0,0.0,600.0,6.0,0.0
5714,70.0,614.0,2040.0,10.0,0.0
5715,48.0,0.0,600.0,8.0,0.0
5716,76.0,0.0,600.0,5.0,0.0
5717,52.0,0.0,600.0,13.0,0.0
5718,48.0,0.0,600.0,14.0,0.0
5719,48.0,0.0,600.0,15.0,0.0
5720,76.0,0.0,600.0,2.0,0.0
5721,48.0,0.0,600.0,4.0,0.0
5722,76.0,0.0,600.0,3.0,0.0
5723,67.0,0.0,600.0,3.0,0.0
5724,67.0,0.0,600.0,6.0,0.0
5725,60.0,0.0,600.0,7.0,0.0
5726,60.0,0.0,600.0,12.0,0.0
5727,72.0,0.0,600.0,0.0,0.0
5728,76.0,0.0,600.0,0.0,0.0
5729,41.0,0.0,600.0,4.0,0.0
5730,65.0,0.0,2040.0,11.0,0.0
5731,41.0,0.0,2040.0,14.0,0.0
5732,41.0,0.0,600.0,15.0,0.0
5733,72.0,0.0,600.0,0.0,0.0
5734,65.0,0.0,600.0,0.0,0.0
5735,77.0,0.0,600.0,5.0,0.0
5736,77.0,0.0,600.0,2.0,0.0
5737,69.0,0.0,2040.0,10.0,0.0
5738,60.0,0.0,2040.0,12.0,0.0
5739,41.0,0.0,600.0,8.0,0.0
5740,77.0,0.0,600.0,0.0,0.0
5741,60.0,0.0,600.0,7.0,0.0
5742,53.0,0.0,2040.0,13.0,0.0
5743,77.0,0.0,600.0,3.0,0.0
5744,69.0,0.0,600.0,3.0,0.0
5745,69.0,922.0,600.0,6.0,0.0
5746,53.0,0.0,510.0,5.0,0.0
5747,81.0,410.0,600.0,0.0,0.0
5748,81.0,0.0,510.0,2.0,0.0
5749,72.0,0.0,600.0,0.0,0.0
5750,77.0,0.0,600.0,0.0,0.0
5751,41.0,102.0,15.0,1.0,0.0
5752,77.0,0.0,510.0,2.0,0.0
5753,57.0,0.0,510.0,5.0,0.0
5754,81.0,0.0,600.0,0.0,0.0
5755,77.0,0.0,600.0,0.0,0.0
5756,72.0,0.0,600.0,0.0,0.0
5757,60.0,0.0,600.0,5.0,0.0
5758,72.0,0.0,600.0,2.0,0.0
5759,41.0,922.0,600.0,1.0,0.0
5760,81.0,0.0,600.0,0.0,0.0
5761,77.0,410.0,600.0,0.0,0.0
5762,77.0,0.0,510.0,3.0,0.0
5763,72.0,0.0,600.0,0.0,0.0
5764,53.0,102.0,510.0,6.0,0.0
5765,57.0,0.0,510.0,5.0,0.0
5766,77.0,0.0,510.0,2.0,0.0
5767,48.0,0.0,510.0,7.0,0.0
5768,72.0,0.0,15.0,3.0,0.0
5769,60.0,614.0,510.0,5.0,0.0
5770,53.0,0.0,510.0,7.0,0.0
5771,57.0,0.0,510.0,6.0,0.0
5772,72.0,0.0,510.0,2.0,0.0
5773,65.0,0.0,600.0,3.0,0.0
5774,69.0,0.0,15.0,3.0,0.0
5775,41.0,0.0,600.0,15.0,0.0
5776,65.0,0.0,600.0,5.0,0.0
5777,41.0,0.0,600.0,8.0,0.0
5778,41.0,922.0,600.0,4.0,0.0
5779,57.0,0.0,600.0,7.0,0.0
5780,69.0,0.0,600.0,2.0,0.0
5781,60.0,0.0,600.0,6.0,0.0
5782,77.0,0.0,510.0,2.0,0.0
5783,81.0,0.0,510.0,2.0,0.0
5784,77.0,410.0,600.0,0.0,0.0
5785,72.0,0.0,600.0,0.0,0.0
5786,57.0,102.0,510.0,5.0,0.0
5787,81.0,0.0,600.0,0.0,0.0
5788,72.0,0.0,510.0,2.0,0.0
5789,77.0,0.0,510.0,2.0,0.0
5790,41.0,0.0,15.0,1.0,0.0
5791,60.0,614.0,510.0,5.0,0.0
5792,41.0,0.0,600.0,1.0,0.0
5793,69.0,0.0,600.0,2.0,0.0
5794,72.0,0.0,600.0,0.0,0.0
5795,77.0,922.0,600.0,0.0,0.0
5796,81.0,0.0,600.0,0.0,0.0
5797,72.0,0.0,600.0,2.0,0.0
5798,65.0,0.0,600.0,5.0,0.0
5799,77.0,410.0,600.0,0.0,0.0
5800,81.0,0.0,600.0,0.0,0.0
5801,77.0,0.0,510.0,2.0,0.0
5802,60.0,102.0,510.0,5.0,0.0
5803,72.0,0.0,510.0,3.0,0.0
5804,53.0,0.0,510.0,7.0,0.0
5805,57.0,0.0,510.0,6.0,0.0
5806,72.0,0.0,600.0,0.0,0.0
5807,69.0,0.0,510.0,3.0,0.0
5808,57.0,0.0,510.0,7.0,0.0
5809,72.0,0.0,15.0,2.0,0.0
5810,65.0,614.0,510.0,5.0,0.0
5811,69.0,0.0,510.0,3.0,0.0
5812,60.0,0.0,510.0,6.0,0.0
5813,41.0,0.0,600.0,4.0,0.0
5814,69.0,0.0,600.0,5.0,0.0
5815,60.0,0.0,600.0,3.0,0.0
5816,65.0,0.0,15.0,3.0,0.0
5817,60.0,0.0,600.0,7.0,0.0
5818,69.0,0.0,15.0,2.0,0.0
5819,65.0,922.0,600.0,2.0,0.0
5820,41.0,0.0,600.0,8.0,0.0
5821,65.0,0.0,600.0,6.0,0.0
5822,41.0,0.0,600.0,15.0,0.0
5823,72.0,0.0,600.0,0.0,0.0
5824,81.0,410.0,600.0,0.0,0.0
5825,57.0,0.0,510.0,6.0,0.0
5826,60.0,0.0,510.0,3.0,0.0
5827,77.0,0.0,600.0,0.0,0.0
5828,72.0,0.0,510.0,2.0,0.0
5829,77.0,0.0,510.0,2.0,0.0
5830,60.0,102.0,510.0,5.0,0.0
5831,53.0,0.0,510.0,7.0,0.0
5832,69.0,0.0,510.0,2.0,0.0
5833,60.0,614.0,510.0,6.0,0.0
5834,41.0,0.0,15.0,1.0,0.0
5835,65.0,0.0,510.0,3.0,0.0
5836,72.0,0.0,510.0,2.0,0.0
5837,65.0,0.0,510.0,5.0,0.0
5838,57.0,0.0,510.0,7.0,0.0
5839,41.0,0.0,15.0,1.0,0.0
5840,69.0,922.0,600.0,3.0,0.0
5841,65.0,0.0,600.0,2.0,0.0
5842,72.0,0.0,600.0,0.0,0.0
5843,69.0,0.0,600.0,5.0,0.0
5844,77.0,0.0,600.0,0.0,0.0
5845,81.0,0.0,600.0,0.0,0.0
5846,60.0,0.0,600.0,7.0,0.0
5847,69.0,0.0,600.0,2.0,0.0
5848,65.0,0.0,600.0,6.0,0.0
5849,65.0,0.0,510.0,5.0,0.0
5850,72.0,0.0,600.0,0.0,0.0
5851,60.0,0.0,510.0,6.0,0.0
5852,69.0,0.0,510.0,2.0,0.0
5853,57.0,102.0,510.0,7.0,0.0
5854,77.0,0.0,600.0,0.0,0.0
5855,81.0,410.0,600.0,0.0,0.0
5856,72.0,0.0,510.0,2.0,0.0
5857,65.0,0.0,510.0,3.0,0.0
5858,65.0,0.0,510.0,2.0,0.0
5859,69.0,0.0,510.0,3.0,0.0
5860,69.0,614.0,510.0,5.0,0.0
5861,60.0,0.0,510.0,7.0,0.0
5862,69.0,0.0,510.0,2.0,0.0
5863,65.0,0.0,510.0,6.0,0.0
5864,72.0,0.0,600.0,5.0,0.0
5865,41.0,0.0,600.0,8.0,0.0
5866,60.0,0.0,600.0,2.0,0.0
5867,72.0,0.0,600.0,3.0,0.0
5868,65.0,0.0,600.0,2.0,0.0
5869,69.0,0.0,600.0,6.0,0.0
5870,41.0,922.0,600.0,4.0,0.0
5871,41.0,0.0,600.0,15.0,0.0
5872,65.0,0.0,600.0,7.0,0.0
5873,65.0,0.0,510.0,5.0,0.0
5874,60.0,0.0,510.0,6.0,0.0
5875,57.0,0.0,510.0,7.0,0.0
5876,72.0,0.0,600.0,0.0,0.0
5877,77.0,0.0,600.0,0.0,0.0
5878,81.0,410.0,600.0,0.0,0.0
5879,41.0,102.0,510.0,1.0,0.0
5880,60.0,0.0,510.0,2.0,0.0
5881,60.0,0.0,510.0,3.0,0.0
5882,65.0,0.0,15.0,2.0,0.0
5883,65.0,0.0,15.0,3.0,0.0
5884,60.0,0.0,510.0,7.0,0.0
5885,65.0,0.0,510.0,6.0,0.0
5886,41.0,0.0,510.0,1.0,0.0
5887,69.0,0.0,510.0,5.0,0.0
5888,41.0,0.0,600.0,1.0,0.0
5889,69.0,0.0,600.0,6.0,0.0
5890,77.0,0.0,600.0,0.0,0.0
5891,72.0,0.0,600.0,0.0,0.0
5892,81.0,922.0,600.0,0.0,0.0
5893,72.0,0.0,600.0,5.0,0.0
5894,72.0,0.0,600.0,2.0,0.0
5895,65.0,0.0,600.0,7.0,0.0
5896,69.0,0.0,15.0,3.0,0.0
5897,72.0,0.0,600.0,3.0,0.0
5898,69.0,614.0,15.0,2.0,0.0
5899,81.0,0.0,600.0,0.0,0.0
5900,65.0,0.0,510.0,2.0,0.0
5901,77.0,0.0,600.0,0.0,0.0
5902,65.0,0.0,510.0,6.0,0.0
5903,60.0,102.0,510.0,7.0,0.0
5904,72.0,410.0,600.0,0.0,0.0
5905,69.0,0.0,510.0,2.0,0.0
5906,69.0,0.0,510.0,5.0,0.0
5907,69.0,0.0,510.0,3.0,0.0
5908,65.0,0.0,510.0,3.0,0.0
5909,65.0,614.0,510.0,7.0,0.0
5910,72.0,0.0,510.0,3.0,0.0
5911,69.0,0.0,510.0,2.0,0.0
5912,69.0,0.0,510.0,3.0,0.0
5913,69.0,0.0,510.0,6.0,0.0
5914,72.0,0.0,510.0,5.0,0.0
5915,72.0,0.0,510.0,2.0,0.0
5916,69.0,0.0,600.0,7.0,0.0
5917,77.0,922.0,600.0,3.0,0.0
5918,77.0,0.0,600.0,5.0,0.0
5919,72.0,0.0,600.0,6.0,0.0
5920,77.0,0.0,600.0,2.0,0.0
5921,72.0,0.0,600.0,2.0,0.0
5922,72.0,0.0,600.0,3.0,0.0
5923,41.0,0.0,510.0,1.0,0.0
5924,72.0,0.0,600.0,5.0,0.0
5925,41.0,0.0,510.0,15.0,0.0
5926,69.0,0.0,600.0,3.0,0.0
5927,72.0,410.0,600.0,3.0,0.0
5928,41.0,102.0,510.0,4.0,0.0
5929,65.0,0.0,600.0,0.0,0.0
5930,65.0,0.0,600.0,7.0,0.0
5931,41.0,0.0,510.0,8.0,0.0
5932,81.0,0.0,600.0,0.0,0.0
5933,69.0,0.0,600.0,6.0,0.0
5934,72.0,0.0,600.0,2.0,0.0
5935,72.0,0.0,600.0,0.0,0.0
5936,45.0,0.0,510.0,15.0,0.0
5937,45.0,0.0,510.0,4.0,0.0
5938,45.0,614.0,510.0,8.0,0.0
5939,72.0,0.0,600.0,2.0,0.0
5940,48.0,0.0,600.0,4.0,0.0
5941,65.0,0.0,600.0,7.0,0.0
5942,72.0,0.0,600.0,5.0,0.0
5943,48.0,0.0,600.0,15.0,0.0
5944,69.0,0.0,600.0,3.0,0.0
5945,72.0,0.0,600.0,0.0,0.0
5946,69.0,922.0,600.0,6.0,0.0
5947,81.0,0.0,600.0,0.0,0.0
5948,72.0,0.0,600.0,3.0,0.0
5949,41.0,0.0,15.0,1.0,0.0
5950,48.0,0.0,600.0,8.0,0.0
5951,65.0,0.0,600.0,0.0,0.0
5952,45.0,0.0,510.0,8.0,0.0
5953,72.0,410.0,600.0,5.0,0.0
5954,45.0,102.0,510.0,4.0,0.0
5955,65.0,0.0,600.0,0.0,0.0
5956,72.0,0.0,600.0,2.0,0.0
5957,69.0,0.0,600.0,3.0,0.0
5958,72.0,0.0,600.0,3.0,0.0
5959,69.0,0.0,600.0,6.0,0.0
5960,45.0,0.0,510.0,15.0,0.0
5961,65.0,0.0,600.0,7.0,0.0
5962,81.0,0.0,600.0,0.0,0.0
5963,72.0,0.0,600.0,0.0,0.0
5964,41.0,0.0,15.0,1.0,0.0
5965,48.0,0.0,510.0,4.0,0.0
5966,48.0,0.0,510.0,8.0,0.0
5967,48.0,0.0,510.0,15.0,0.0
5968,53.0,0.0,600.0,8.0,0.0
5969,69.0,0.0,600.0,6.0,0.0
5970,65.0,0.0,600.0,7.0,0.0
5971,72.0,0.0,600.0,3.0,0.0
5972,69.0,0.0,600.0,3.0,0.0
5973,72.0,0.0,600.0,2.0,0.0
5974,53.0,0.0,600.0,15.0,0.0
5975,41.0,0.0,600.0,1.0,0.0
5976,81.0,0.0,600.0,0.0,0.0
5977,72.0,0.0,600.0,0.0,0.0
5978,65.0,0.0,600.0,0.0,0.0
5979,53.0,0.0,600.0,4.0,0.0
5980,72.0,0.0,600.0,5.0,0.0
5981,53.0,0.0,600.0,15.0,0.0
5982,53.0,0.0,600.0,4.0,0.0
5983,41.0,0.0,600.0,1.0,0.0
5984,70.0,0.0,510.0,5.0,0.0
5985,65.0,0.0,600.0,0.0,0.0
5986,70.0,0.0,510.0,0.0,0.0
5987,79.0,0.0,510.0,0.0,0.0
5988,70.0,0.0,510.0,3.0,0.0
5989,65.0,410.0,600.0,3.0,0.0
5990,65.0,0.0,600.0,6.0,0.0
5991,60.0,0.0,600.0,7.0,0.0
5992,53.0,0.0,600.0,8.0,0.0
5993,70.0,0.0,510.0,2.0,0.0
5994,72.0,0.0,510.0,5.0,0.0
5995,72.0,0.0,510.0,3.0,0.0
5996,72.0,614.0,510.0,0.0,0.0
5997,81.0,0.0,510.0,0.0,0.0
5998,72.0,0.0,510.0,2.0,0.0
5999,53.0,0.0,600.0,8.0,0.0
6000,74.0,0.0,600.0,3.0,0.0
6001,65.0,0.0,600.0,3.0,0.0
6002,53.0,0.0,600.0,4.0,0.0
6003,41.0,0.0,600.0,1.0,0.0
6004,65.0,0.0,600.0,0.0,0.0
6005,53.0,0.0,600.0,15.0,0.0
6006,65.0,0.0,600.0,6.0,0.0
6007,74.0,0.0,600.0,5.0,0.0
6008,74.0,0.0,600.0,2.0,0.0
6009,82.0,0.0,600.0,0.0,0.0
6010,58.0,0.0,600.0,7.0,0.0
6011,74.0,0.0,600.0,0.0,0.0
6012,72.0,0.0,510.0,5.0,0.0
6013,62.0,0.0,600.0,7.0,0.0
6014,53.0,410.0,600.0,8.0,0.0
6015,41.0,0.0,600.0,1.0,0.0
6016,65.0,0.0,600.0,0.0,0.0
6017,72.0,102.0,510.0,0.0,0.0
6018,81.0,0.0,510.0,0.0,0.0
6019,53.0,0.0,600.0,15.0,0.0
6020,65.0,0.0,600.0,6.0,0.0
6021,72.0,0.0,510.0,2.0,0.0
6022,65.0,0.0,600.0,3.0,0.0
6023,72.0,0.0,510.0,3.0,0.0
6024,53.0,0.0,600.0,4.0,0.0
6025,70.0,0.0,510.0,2.0,0.0
6026,70.0,0.0,510.0,3.0,0.0
6027,79.0,0.0,510.0,0.0,0.0
6028,70.0,0.0,510.0,5.0,0.0
6029,70.0,614.0,510.0,0.0,0.0
6030,65.0,0.0,600.0,0.0,0.0
6031,41.0,0.0,600.0,1.0,0.0
6032,72.0,0.0,600.0,5.0,0.0
6033,53.0,0.0,600.0,15.0,0.0
6034,53.0,0.0,600.0,4.0,0.0
6035,72.0,0.0,600.0,2.0,0.0
6036,65.0,0.0,600.0,3.0,0.0
6037,72.0,0.0,600.0,3.0,0.0
6038,65.0,0.0,600.0,6.0,0.0
6039,72.0,0.0,600.0,0.0,0.0
6040,81.0,0.0,600.0,0.0,0.0
6041,60.0,0.0,600.0,7.0,0.0
6042,53.0,0.0,600.0,8.0,0.0
6043,81.0,0.0,600.0,0.0,0.0
6044,60.0,0.0,510.0,7.0,0.0
6045,77.0,0.0,600.0,0.0,0.0
6046,41.0,0.0,510.0,15.0,0.0
6047,41.0,0.0,510.0,4.0,0.0
6048,69.0,102.0,510.0,5.0,0.0
6049,69.0,0.0,510.0,3.0,0.0
6050,72.0,410.0,600.0,0.0,0.0
6051,41.0,0.0,510.0,8.0,0.0
6052,69.0,0.0,510.0,6.0,0.0
6053,69.0,0.0,510.0,2.0,0.0
6054,41.0,0.0,510.0,1.0,0.0
6055,65.0,0.0,510.0,7.0,0.0
6056,45.0,0.0,510.0,4.0,0.0
6057,72.0,0.0,510.0,2.0,0.0
6058,72.0,0.0,510.0,5.0,0.0
6059,72.0,0.0,510.0,6.0,0.0
6060,45.0,0.0,510.0,8.0,0.0
6061,41.0,0.0,510.0,1.0,0.0
6062,45.0,0.0,510.0,15.0,0.0
6063,72.0,0.0,510.0,3.0,0.0
6064,81.0,0.0,600.0,0.0,0.0
6065,77.0,922.0,600.0,0.0,0.0
6066,72.0,0.0,600.0,0.0,0.0
6067,77.0,0.0,600.0,5.0,0.0
6068,77.0,0.0,600.0,6.0,0.0
6069,48.0,0.0,600.0,8.0,0.0
6070,41.0,0.0,600.0,1.0,0.0
6071,48.0,0.0,600.0,4.0,0.0
6072,48.0,0.0,600.0,15.0,0.0
6073,77.0,0.0,600.0,2.0,0.0
6074,69.0,0.0,600.0,7.0,0.0
6075,77.0,0.0,600.0,3.0,0.0
6076,81.0,0.0,600.0,0.0,0.0
6077,72.0,0.0,600.0,5.0,0.0
6078,69.0,0.0,600.0,6.0,0.0
6079,45.0,0.0,510.0,8.0,0.0
6080,69.0,0.0,600.0,2.0,0.0
6081,45.0,0.0,510.0,4.0,0.0
6082,72.0,0.0,600.0,2.0,0.0
6083,45.0,102.0,510.0,15.0,0.0
6084,69.0,0.0,600.0,3.0,0.0
6085,77.0,0.0,600.0,0.0,0.0
6086,72.0,0.0,600.0,0.0,0.0
6087,72.0,0.0,600.0,3.0,0.0
6088,65.0,410.0,600.0,7.0,0.0
6089,48.0,614.0,510.0,4.0,0.0
6090,48.0,0.0,510.0,8.0,0.0
6091,48.0,0.0,510.0,15.0,0.0
6092,70.0,0.0,600.0,2.0,0.0
6093,70.0,0.0,600.0,5.0,0.0
6094,70.0,0.0,600.0,3.0,0.0
6095,67.0,0.0,600.0,6.0,0.0
6096,53.0,0.0,600.0,15.0,0.0
6097,53.0,0.0,600.0,4.0,0.0
6098,67.0,0.0,600.0,2.0,0.0
6099,53.0,0.0,600.0,8.0,0.0
6100,64.0,922.0,600.0,7.0,0.0
6101,67.0,0.0,600.0,3.0,0.0
6102,53.0,0.0,600.0,8.0,0.0
6103,53.0,0.0,600.0,4.0,0.0
6104,53.0,0.0,600.0,15.0,0.0
6105,69.0,0.0,510.0,3.0,0.0
6106,69.0,102.0,510.0,5.0,0.0
6107,65.0,0.0,510.0,6.0,0.0
6108,65.0,0.0,510.0,3.0,0.0
6109,76.0,0.0,600.0,0.0,0.0
6110,65.0,0.0,510.0,2.0,0.0
6111,69.0,0.0,510.0,2.0,0.0
6112,70.0,0.0,600.0,0.0,0.0
6113,64.0,0.0,600.0,7.0,0.0
6114,79.0,410.0,600.0,0.0,0.0
6115,67.0,0.0,510.0,2.0,0.0
6116,41.0,0.0,15.0,1.0,0.0
6117,70.0,0.0,510.0,2.0,0.0
6118,67.0,0.0,510.0,6.0,0.0
6119,70.0,0.0,510.0,3.0,0.0
6120,67.0,512.0,510.0,3.0,0.0
6121,70.0,0.0,510.0,5.0,0.0
6122,72.0,0.0,510.0,2.0,0.0
6123,53.0,0.0,600.0,4.0,0.0
6124,72.0,102.0,510.0,5.0,0.0
6125,53.0,0.0,600.0,15.0,0.0
6126,79.0,0.0,600.0,0.0,0.0
6127,76.0,0.0,600.0,0.0,0.0
6128,70.0,0.0,600.0,0.0,0.0
6129,60.0,0.0,600.0,7.0,0.0
6130,64.0,0.0,510.0,2.0,0.0
6131,64.0,0.0,510.0,6.0,0.0
6132,41.0,0.0,600.0,1.0,0.0
6133,53.0,410.0,600.0,8.0,0.0
6134,72.0,0.0,510.0,3.0,0.0
6135,64.0,0.0,510.0,3.0,0.0
6136,70.0,0.0,510.0,2.0,0.0
6137,67.0,0.0,510.0,6.0,0.0
6138,67.0,0.0,510.0,2.0,0.0
6139,70.0,0.0,510.0,5.0,0.0
6140,70.0,0.0,510.0,3.0,0.0
6141,67.0,512.0,510.0,3.0,0.0
6142,76.0,0.0,600.0,0.0,0.0
6143,70.0,0.0,600.0,0.0,0.0
6144,65.0,0.0,510.0,6.0,0.0
6145,53.0,410.0,600.0,8.0,0.0
6146,53.0,0.0,600.0,15.0,0.0
6147,53.0,0.0,600.0,4.0,0.0
6148,60.0,0.0,600.0,7.0,0.0
6149,79.0,0.0,600.0,0.0,0.0
6150,65.0,0.0,510.0,2.0,0.0
6151,69.0,0.0,510.0,5.0,0.0
6152,69.0,0.0,510.0,2.0,0.0
6153,69.0,102.0,510.0,3.0,0.0
6154,65.0,0.0,510.0,3.0,0.0
6155,64.0,614.0,510.0,6.0,0.0
6156,67.0,0.0,510.0,5.0,0.0
6157,67.0,0.0,510.0,2.0,0.0
6158,67.0,0.0,510.0,3.0,0.0
6159,64.0,0.0,510.0,3.0,0.0
6160,64.0,0.0,510.0,2.0,0.0
6161,41.0,0.0,600.0,1.0,0.0
6162,65.0,0.0,600.0,3.0,0.0
6163,69.0,0.0,600.0,3.0,0.0
6164,53.0,0.0,2040.0,4.0,0.0
6165,69.0,0.0,600.0,5.0,0.0
6166,60.0,0.0,600.0,7.0,0.0
6167,65.0,0.0,600.0,6.0,0.0
6168,77.0,0.0,600.0,0.0,0.0
6169,72.0,0.0,600.0,0.0,0.0
6170,65.0,922.0,600.0,0.0,0.0
6171,69.0,0.0,600.0,2.0,0.0
6172,53.0,0.0,2040.0,8.0,0.0
6173,53.0,0.0,2040.0,15.0,0.0
6174,65.0,0.0,600.0,2.0,0.0
6175,65.0,0.0,600.0,3.0,0.0
6176,65.0,0.0,600.0,5.0,0.0
6177,60.0,0.0,600.0,3.0,0.0
6178,72.0,0.0,510.0,2.0,0.0
6179,77.0,102.0,510.0,2.0,0.0
6180,57.0,410.0,600.0,7.0,0.0
6181,60.0,0.0,600.0,6.0,0.0
6182,72.0,0.0,510.0,2.0,0.0
6183,60.0,0.0,2040.0,12.0,0.0
6184,65.0,0.0,600.0,2.0,0.0
6185,69.0,614.0,15.0,2.0,0.0
6186,57.0,0.0,510.0,15.0,0.0
6187,57.0,512.0,510.0,4.0,0.0
6188,57.0,0.0,510.0,8.0,0.0
6189,53.0,0.0,510.0,15.0,0.0
6190,53.0,0.0,510.0,4.0,0.0
6191,53.0,1536.0,510.0,8.0,0.0
6192,50.0,0.0,2040.0,4.0,0.0
6193,50.0,0.0,2040.0,8.0,0.0
6194,65.0,0.0,6150.0,12.0,0.0
6195,50.0,0.0,2040.0,15.0,0.0
6196,81.0,512.0,510.0,2.0,0.0
6197,77.0,0.0,510.0,2.0,0.0
6198,74.0,0.0,510.0,2.0,0.0
6199,77.0,614.0,510.0,2.0,0.0
6200,69.0,0.0,600.0,2.0,0.0
6201,53.0,0.0,2040.0,13.0,0.0
6202,74.0,922.0,600.0,2.0,0.0
6203,50.0,0.0,510.0,4.0,0.0
6204,50.0,0.0,510.0,15.0,0.0
6205,50.0,512.0,510.0,8.0,0.0
6206,46.0,0.0,510.0,8.0,0.0
6207,46.0,1536.0,510.0,4.0,0.0
6208,46.0,0.0,510.0,15.0,0.0
6209,58.0,0.0,6150.0,13.0,0.0
6210,43.0,0.0,2040.0,15.0,0.0
6211,43.0,614.0,2040.0,8.0,0.0
6212,43.0,0.0,2040.0,4.0,0.0
6213,74.0,0.0,510.0,2.0,0.0
6214,70.0,512.0,15.0,2.0,0.0
6215,67.0,0.0,510.0,2.0,0.0
6216,64.0,922.0,600.0,12.0,0.0
6217,48.0,0.0,2040.0,14.0,0.0
6218,60.0,0.0,600.0,2.0,0.0
6219,67.0,0.0,600.0,2.0,0.0
6220,48.0,102.0,510.0,15.0,0.0
6221,48.0,0.0,510.0,4.0,0.0
6222,48.0,0.0,510.0,8.0,0.0
6223,64.0,410.0,600.0,12.0,0.0
6224,45.0,0.0,510.0,15.0,0.0
6225,45.0,614.0,510.0,4.0,0.0
6226,45.0,0.0,510.0,8.0,0.0
6227,65.0,0.0,600.0,12.0,0.0
6228,41.0,922.0,600.0,8.0,0.0
6229,41.0,0.0,600.0,15.0,0.0
6230,53.0,0.0,6150.0,14.0,0.0
6231,41.0,0.0,600.0,4.0,0.0
6232,60.0,102.0,510.0,2.0,0.0
6233,65.0,0.0,510.0,2.0,0.0
6234,48.0,410.0,600.0,15.0,0.0
6235,48.0,0.0,600.0,4.0,0.0
6236,48.0,0.0,600.0,8.0,0.0
6237,65.0,0.0,600.0,12.0,0.0
6238,58.0,0.0,510.0,2.0,0.0
6239,67.0,614.0,510.0,2.0,0.0
6240,69.0,0.0,600.0,2.0,0.0
6241,65.0,614.0,2040.0,11.0,0.0
6242,53.0,0.0,4110.0,4.0,0.0
6243,53.0,0.0,4110.0,8.0,0.0
6244,53.0,614.0,4110.0,15.0,0.0
6245,57.0,0.0,600.0,13.0,0.0
6246,60.0,0.0,600.0,12.0,0.0
6247,60.0,1024.0,600.0,2.0,0.0
6248,57.0,0.0,600.0,13.0,0.0
6249,60.0,410.0,600.0,12.0,0.0
6250,70.0,0.0,6150.0,11.0,0.0
6251,62.0,0.0,2040.0,12.0,0.0
6252,55.0,1024.0,600.0,13.0,0.0
6253,55.0,410.0,600.0,13.0,0.0
6254,67.0,614.0,2040.0,10.0,0.0
6255,52.0,0.0,600.0,14.0,0.0
6256,52.0,0.0,2040.0,15.0,0.0
6257,52.0,0.0,2040.0,8.0,0.0
6258,60.0,1024.0,600.0,13.0,0.0
6259,52.0,0.0,2040.0,4.0,0.0
6260,52.0,0.0,600.0,14.0,0.0
6261,60.0,410.0,600.0,13.0,0.0
6262,53.0,0.0,600.0,4.0,0.0
6263,53.0,0.0,600.0,8.0,0.0
6264,53.0,614.0,1020.0,14.0,0.0
6265,53.0,410.0,600.0,15.0,0.0
6266,72.0,614.0,5130.0,10.0,0.0
6267,55.0,0.0,600.0,4.0,0.0
6268,55.0,0.0,600.0,15.0,0.0
6269,55.0,410.0,600.0,8.0,0.0
6270,55.0,0.0,600.0,14.0,0.0
6271,57.0,0.0,600.0,15.0,0.0
6272,57.0,0.0,600.0,4.0,0.0
6273,60.0,0.0,15.0,12.0,0.0
6274,57.0,0.0,600.0,8.0,0.0
6275,57.0,614.0,1020.0,14.0,0.0
6276,69.0,410.0,600.0,11.0,0.0
6277,53.0,614.0,15.0,13.0,0.0
6278,53.0,0.0,600.0,4.0,0.0
6279,53.0,0.0,600.0,8.0,0.0
6280,53.0,1024.0,600.0,15.0,0.0
6281,69.0,0.0,600.0,11.0,0.0
6282,53.0,0.0,600.0,14.0,0.0
6283,60.0,0.0,600.0,12.0,0.0
6284,50.0,0.0,600.0,15.0,0.0
6285,50.0,0.0,600.0,14.0,0.0
6286,69.0,0.0,1020.0,11.0,0.0
6287,50.0,410.0,600.0,4.0,0.0
6288,50.0,0.0,600.0,8.0,0.0
6289,58.0,0.0,1020.0,12.0,0.0
6290,52.0,0.0,600.0,4.0,0.0
6291,55.0,0.0,600.0,13.0,0.0
6292,67.0,0.0,2040.0,11.0,0.0
6293,52.0,0.0,600.0,14.0,0.0
6294,60.0,614.0,2040.0,12.0,0.0
6295,52.0,1024.0,600.0,15.0,0.0
6296,52.0,0.0,600.0,8.0,0.0
6297,70.0,0.0,600.0,10.0,0.0
6298,53.0,0.0,600.0,4.0,0.0
6299,53.0,0.0,600.0,8.0,0.0
6300,57.0,0.0,600.0,13.0,0.0
6301,53.0,0.0,600.0,15.0,0.0
6302,53.0,410.0,600.0,14.0,0.0
6303,69.0,0.0,600.0,10.0,0.0
6304,50.0,0.0,600.0,4.0,0.0
6305,65.0,0.0,600.0,11.0,0.0
6306,57.0,0.0,600.0,13.0,0.0
6307,50.0,1024.0,600.0,14.0,0.0
6308,74.0,0.0,600.0,10.0,0.0
6309,50.0,0.0,600.0,8.0,0.0
6310,62.0,0.0,600.0,12.0,0.0
6311,50.0,0.0,600.0,15.0,0.0
6312,67.0,512.0,1020.0,10.0,0.0
6313,65.0,0.0,1020.0,11.0,0.0
6314,58.0,0.0,1020.0,13.0,0.0
6315,46.0,0.0,600.0,15.0,0.0
6316,46.0,0.0,600.0,8.0,0.0
6317,46.0,0.0,1020.0,14.0,0.0
6318,46.0,410.0,600.0,4.0,0.0
6319,62.0,0.0,1020.0,12.0,0.0
6320,43.0,0.0,600.0,14.0,0.0
6321,43.0,0.0,600.0,4.0,0.0
6322,60.0,102.0,510.0,12.0,0.0
6323,43.0,0.0,600.0,8.0,0.0
6324,60.0,0.0,510.0,13.0,0.0
6325,43.0,410.0,600.0,15.0,0.0
6326,64.0,0.0,510.0,11.0,0.0
6327,70.0,0.0,600.0,10.0,0.0
6328,62.0,0.0,510.0,11.0,0.0
6329,58.0,0.0,510.0,12.0,0.0
6330,62.0,614.0,510.0,13.0,0.0
6331,48.0,614.0,1020.0,14.0,0.0
6332,69.0,0.0,1020.0,10.0,0.0
6333,60.0,512.0,3060.0,12.0,0.0
6334,60.0,0.0,600.0,13.0,0.0
6335,64.0,1024.0,2040.0,11.0,0.0
6336,48.0,410.0,600.0,15.0,0.0
6337,48.0,0.0,600.0,8.0,0.0
6338,48.0,0.0,600.0,4.0,0.0
6339,36.0,0.0,600.0,15.0,0.0
6340,36.0,0.0,600.0,8.0,0.0
6341,67.0,0.0,600.0,10.0,0.0
6342,48.0,0.0,600.0,13.0,0.0
6343,36.0,410.0,600.0,4.0,0.0
6344,46.0,0.0,600.0,14.0,0.0
6345,41.0,0.0,2040.0,8.0,0.0
6346,65.0,0.0,6150.0,10.0,0.0
6347,41.0,0.0,2040.0,15.0,0.0
6348,45.0,0.0,4110.0,14.0,0.0
6349,65.0,0.0,2040.0,11.0,0.0
6350,60.0,0.0,11250.0,13.0,0.0
6351,41.0,0.0,2040.0,4.0,0.0
6352,53.0,0.0,510.0,12.0,0.0
6353,72.0,0.0,510.0,3.0,0.0
6354,69.0,0.0,510.0,6.0,0.0
6355,65.0,0.0,510.0,7.0,0.0
6356,72.0,512.0,510.0,2.0,0.0
6357,69.0,0.0,510.0,2.0,0.0
6358,72.0,0.0,510.0,5.0,0.0
6359,57.0,0.0,510.0,12.0,0.0
6360,60.0,0.0,510.0,7.0,0.0
6361,69.0,0.0,15.0,3.0,0.0
6362,69.0,0.0,510.0,5.0,0.0
6363,65.0,0.0,510.0,6.0,0.0
6364,72.0,0.0,510.0,2.0,0.0
6365,65.0,0.0,600.0,5.0,0.0
6366,60.0,512.0,1020.0,12.0,0.0
6367,77.0,0.0,15.0,2.0,0.0
6368,81.0,0.0,600.0,2.0,0.0
6369,60.0,0.0,600.0,6.0,0.0
6370,57.0,0.0,600.0,7.0,0.0
6371,60.0,0.0,600.0,3.0,0.0
6372,65.0,614.0,15.0,3.0,0.0
6373,60.0,512.0,510.0,7.0,0.0
6374,77.0,0.0,510.0,2.0,0.0
6375,72.0,0.0,510.0,2.0,0.0
6376,65.0,0.0,510.0,6.0,0.0
6377,69.0,0.0,510.0,3.0,0.0
6378,69.0,0.0,510.0,5.0,0.0
6379,57.0,0.0,510.0,12.0,0.0
6380,65.0,614.0,510.0,5.0,0.0
6381,81.0,0.0,510.0,2.0,0.0
6382,77.0,0.0,510.0,2.0,0.0
6383,65.0,0.0,15.0,3.0,0.0
6384,57.0,0.0,510.0,7.0,0.0
6385,60.0,0.0,510.0,6.0,0.0
6386,60.0,0.0,510.0,12.0,0.0
6387,60.0,0.0,600.0,5.0,0.0
6388,53.0,0.0,600.0,7.0,0.0
6389,60.0,0.0,15.0,3.0,0.0
6390,41.0,614.0,4110.0,14.0,0.0
6391,57.0,0.0,600.0,6.0,0.0
6392,81.0,0.0,600.0,2.0,0.0
6393,84.0,0.0,600.0,2.0,0.0
6394,65.0,512.0,1020.0,12.0,0.0
6395,48.0,0.0,510.0,4.0,0.0
6396,48.0,102.0,510.0,8.0,0.0
6397,48.0,0.0,510.0,15.0,0.0
6398,64.0,0.0,510.0,12.0,0.0
6399,69.0,410.0,600.0,11.0,0.0
6400,53.0,0.0,510.0,8.0,0.0
6401,53.0,0.0,510.0,4.0,0.0
6402,65.0,512.0,510.0,12.0,0.0
6403,53.0,0.0,510.0,15.0,0.0
6404,72.0,0.0,600.0,11.0,0.0
6405,57.0,0.0,600.0,8.0,0.0
6406,60.0,0.0,2040.0,10.0,0.0
6407,57.0,0.0,600.0,4.0,0.0
6408,57.0,410.0,600.0,15.0,0.0
6409,67.0,102.0,510.0,12.0,0.0
6410,65.0,512.0,510.0,12.0,0.0
6411,69.0,410.0,600.0,11.0,0.0
6412,53.0,0.0,510.0,4.0,0.0
6413,53.0,0.0,510.0,8.0,0.0
6414,64.0,0.0,510.0,12.0,0.0
6415,53.0,102.0,510.0,15.0,0.0
6416,62.0,0.0,510.0,12.0,0.0
6417,57.0,0.0,510.0,4.0,0.0
6418,57.0,0.0,510.0,8.0,0.0
6419,57.0,0.0,510.0,15.0,0.0
6420,60.0,0.0,600.0,8.0,0.0
6421,67.0,512.0,1020.0,11.0,0.0
6422,64.0,0.0,8190.0,12.0,0.0
6423,48.0,0.0,10230.0,14.0,0.0
6424,60.0,410.0,600.0,4.0,0.0
6425,60.0,0.0,600.0,15.0,0.0
6426,60.0,0.0,4110.0,10.0,0.0
6427,70.0,0.0,510.0,5.0,0.0
6428,70.0,0.0,510.0,3.0,0.0
6429,67.0,0.0,510.0,6.0,0.0
6430,64.0,0.0,510.0,2.0,0.0
6431,64.0,0.0,510.0,7.0,0.0
6432,60.0,0.0,510.0,11.0,0.0
6433,67.0,0.0,510.0,5.0,0.0
6434,67.0,0.0,15.0,3.0,0.0
6435,64.0,0.0,510.0,6.0,0.0
6436,64.0,0.0,510.0,11.0,0.0
6437,67.0,512.0,15.0,2.0,0.0
6438,60.0,0.0,510.0,7.0,0.0
6439,64.0,0.0,600.0,5.0,0.0
6440,60.0,0.0,600.0,6.0,0.0
6441,64.0,0.0,15.0,3.0,0.0
6442,60.0,0.0,600.0,3.0,0.0
6443,67.0,512.0,1020.0,11.0,0.0
6444,72.0,0.0,15.0,2.0,0.0
6445,76.0,0.0,600.0,2.0,0.0
6446,55.0,0.0,600.0,7.0,0.0
6447,67.0,0.0,510.0,3.0,0.0
6448,64.0,0.0,510.0,6.0,0.0
6449,60.0,410.0,600.0,13.0,0.0
6450,67.0,0.0,510.0,2.0,0.0
6451,60.0,102.0,510.0,7.0,0.0
6452,64.0,0.0,510.0,11.0,0.0
6453,67.0,0.0,510.0,5.0,0.0
6454,64.0,0.0,15.0,3.0,0.0
6455,60.0,614.0,510.0,6.0,0.0
6456,76.0,0.0,510.0,2.0,0.0
6457,67.0,0.0,510.0,3.0,0.0
6458,64.0,0.0,510.0,5.0,0.0
6459,72.0,0.0,15.0,2.0,0.0
6460,67.0,0.0,510.0,11.0,0.0
6461,55.0,0.0,510.0,7.0,0.0
6462,60.0,0.0,600.0,5.0,0.0
6463,70.0,0.0,600.0,3.0,0.0
6464,55.0,0.0,600.0,6.0,0.0
6465,60.0,0.0,600.0,13.0,0.0
6466,79.0,0.0,600.0,2.0,0.0
6467,76.0,0.0,600.0,2.0,0.0
6468,52.0,0.0,600.0,7.0,0.0
6469,60.0,410.0,600.0,3.0,0.0
6470,70.0,512.0,1020.0,11.0,0.0
6471,64.0,0.0,600.0,10.0,0.0
6472,69.0,0.0,510.0,3.0,0.0
6473,43.0,0.0,510.0,8.0,0.0
6474,43.0,0.0,510.0,15.0,0.0
6475,69.0,102.0,510.0,11.0,0.0
6476,43.0,0.0,510.0,4.0,0.0
6477,55.0,410.0,600.0,13.0,0.0
6478,70.0,0.0,510.0,3.0,0.0
6479,48.0,0.0,510.0,4.0,0.0
6480,48.0,512.0,510.0,15.0,0.0
6481,70.0,0.0,510.0,11.0,0.0
6482,48.0,0.0,510.0,8.0,0.0
6483,72.0,102.0,510.0,3.0,0.0
6484,52.0,0.0,600.0,8.0,0.0
6485,72.0,0.0,510.0,11.0,0.0
6486,52.0,410.0,600.0,13.0,0.0
6487,52.0,0.0,600.0,4.0,0.0
6488,52.0,0.0,600.0,15.0,0.0
6489,67.0,0.0,600.0,10.0,0.0
6490,70.0,512.0,510.0,11.0,0.0
6491,70.0,0.0,510.0,3.0,0.0
6492,69.0,0.0,510.0,3.0,0.0
6493,48.0,102.0,510.0,15.0,0.0
6494,48.0,0.0,510.0,4.0,0.0
6495,72.0,410.0,600.0,10.0,0.0
6496,69.0,0.0,510.0,11.0,0.0
6497,48.0,0.0,510.0,8.0,0.0
6498,48.0,0.0,600.0,13.0,0.0
6499,67.0,0.0,510.0,11.0,0.0
6500,52.0,0.0,510.0,8.0,0.0
6501,52.0,0.0,510.0,4.0,0.0
6502,52.0,512.0,510.0,15.0,0.0
6503,67.0,0.0,510.0,3.0,0.0
6504,69.0,0.0,1020.0,10.0,0.0
6505,53.0,410.0,600.0,8.0,0.0
6506,69.0,102.0,510.0,3.0,0.0
6507,69.0,0.0,8190.0,11.0,0.0
6508,53.0,0.0,600.0,15.0,0.0
6509,53.0,0.0,600.0,4.0,0.0
6510,53.0,0.0,1020.0,13.0,0.0
6511,67.0,512.0,510.0,3.0,0.0
6512,65.0,0.0,510.0,6.0,0.0
6513,69.0,0.0,510.0,2.0,0.0
6514,65.0,0.0,510.0,10.0,0.0
6515,60.0,0.0,510.0,7.0,0.0
6516,69.0,0.0,510.0,5.0,0.0
6517,65.0,512.0,510.0,3.0,0.0
6518,48.0,0.0,510.0,13.0,0.0
6519,69.0,0.0,510.0,3.0,0.0
6520,72.0,0.0,15.0,2.0,0.0
6521,53.0,0.0,510.0,13.0,0.0
6522,69.0,0.0,510.0,10.0,0.0
6523,60.0,0.0,510.0,6.0,0.0
6524,57.0,0.0,510.0,7.0,0.0
6525,77.0,0.0,510.0,2.0,0.0
6526,65.0,0.0,510.0,5.0,0.0
6527,60.0,0.0,600.0,5.0,0.0
6528,72.0,0.0,1020.0,10.0,0.0
6529,53.0,410.0,600.0,7.0,0.0
6530,45.0,512.0,2040.0,14.0,0.0
6531,72.0,0.0,600.0,3.0,0.0
6532,57.0,0.0,1020.0,13.0,0.0
6533,57.0,0.0,600.0,6.0,0.0
6534,77.0,0.0,600.0,2.0,0.0
6535,81.0,0.0,600.0,2.0,0.0
6536,67.0,512.0,510.0,3.0,0.0
6537,57.0,512.0,510.0,7.0,0.0
6538,53.0,0.0,510.0,13.0,0.0
6539,77.0,0.0,510.0,2.0,0.0
6540,72.0,0.0,510.0,2.0,0.0
6541,60.0,0.0,510.0,6.0,0.0
6542,65.0,102.0,1530.0,3.0,0.0
6543,65.0,0.0,510.0,5.0,0.0
6544,69.0,0.0,510.0,10.0,0.0
6545,69.0,0.0,510.0,3.0,0.0
6546,53.0,0.0,510.0,7.0,0.0
6547,57.0,0.0,510.0,6.0,0.0
6548,60.0,0.0,510.0,5.0,0.0
6549,72.0,0.0,510.0,3.0,0.0
6550,72.0,0.0,510.0,10.0,0.0
6551,77.0,0.0,510.0,2.0,0.0
6552,57.0,0.0,510.0,13.0,0.0
6553,48.0,0.0,600.0,7.0,0.0
6554,81.0,0.0,15.0,2.0,0.0
6555,84.0,0.0,600.0,2.0,0.0
6556,75.0,410.0,600.0,3.0,0.0
6557,41.0,0.0,600.0,14.0,0.0
6558,57.0,0.0,600.0,5.0,0.0
6559,60.0,512.0,1020.0,13.0,0.0
6560,75.0,0.0,1020.0,10.0,0.0
6561,53.0,0.0,600.0,6.0,0.0
6562,67.0,0.0,510.0,3.0,0.0
6563,36.0,0.0,510.0,4.0,0.0
6564,36.0,0.0,510.0,15.0,0.0
6565,53.0,410.0,600.0,14.0,0.0
6566,58.0,0.0,510.0,13.0,0.0
6567,36.0,102.0,510.0,8.0,0.0
6568,74.0,0.0,510.0,3.0,0.0
6569,65.0,0.0,510.0,3.0,0.0
6570,74.0,0.0,510.0,10.0,0.0
6571,60.0,0.0,510.0,13.0,0.0
6572,67.0,512.0,510.0,3.0,0.0
6573,41.0,0.0,510.0,15.0,0.0
6574,75.0,0.0,510.0,3.0,0.0
6575,75.0,0.0,510.0,10.0,0.0
6576,41.0,0.0,510.0,8.0,0.0
6577,41.0,0.0,510.0,4.0,0.0
6578,45.0,410.0,600.0,4.0,0.0
6579,77.0,0.0,510.0,10.0,0.0
6580,45.0,0.0,600.0,15.0,0.0
6581,57.0,0.0,600.0,14.0,0.0
6582,77.0,0.0,510.0,3.0,0.0
6583,65.0,102.0,510.0,3.0,0.0
6584,45.0,0.0,600.0,8.0,0.0
6585,57.0,0.0,510.0,13.0,0.0
6586,75.0,0.0,510.0,10.0,0.0
6587,60.0,0.0,510.0,13.0,0.0
6588,67.0,512.0,510.0,3.0,0.0
6589,75.0,0.0,510.0,3.0,0.0
6590,41.0,0.0,510.0,15.0,0.0
6591,62.0,102.0,510.0,13.0,0.0
6592,74.0,0.0,510.0,10.0,0.0
6593,65.0,0.0,510.0,3.0,0.0
6594,74.0,0.0,510.0,3.0,0.0
6595,41.0,0.0,510.0,4.0,0.0
6596,41.0,0.0,510.0,8.0,0.0
6597,53.0,410.0,600.0,14.0,0.0
6598,67.0,0.0,510.0,3.0,0.0
6599,45.0,0.0,510.0,4.0,0.0
6600,72.0,0.0,510.0,10.0,0.0
6601,45.0,0.0,510.0,15.0,0.0
6602,45.0,512.0,510.0,8.0,0.0
6603,72.0,0.0,510.0,3.0,0.0
6604,63.0,0.0,510.0,13.0,0.0
6605,46.0,0.0,600.0,8.0,0.0
6606,70.0,0.0,9210.0,11.0,0.0
6607,62.0,102.0,510.0,13.0,0.0
6608,46.0,0.0,600.0,4.0,0.0
6609,46.0,0.0,600.0,15.0,0.0
6610,58.0,0.0,1020.0,14.0,0.0
6611,65.0,0.0,600.0,3.0,0.0
6612,74.0,410.0,600.0,3.0,0.0
6613,74.0,0.0,8820.0,10.0,0.0
6614,60.0,512.0,510.0,13.0,0.0
6615,77.0,0.0,510.0,5.0,0.0
6616,46.0,0.0,510.0,14.0,0.0
6617,77.0,0.0,510.0,3.0,0.0
6618,65.0,0.0,510.0,2.0,0.0
6619,34.0,0.0,510.0,4.0,0.0
6620,34.0,0.0,510.0,15.0,0.0
6621,70.0,0.0,510.0,7.0,0.0
6622,74.0,0.0,510.0,6.0,0.0
6623,34.0,0.0,510.0,8.0,0.0
6624,74.0,0.0,510.0,3.0,0.0
6625,58.0,102.0,1530.0,13.0,0.0
6626,62.0,512.0,510.0,2.0,0.0
6627,38.0,0.0,510.0,15.0,0.0
6628,50.0,0.0,510.0,14.0,0.0
6629,74.0,0.0,510.0,5.0,0.0
6630,70.0,0.0,510.0,6.0,0.0
6631,65.0,0.0,510.0,7.0,0.0
6632,74.0,0.0,510.0,3.0,0.0
6633,38.0,0.0,510.0,8.0,0.0
6634,70.0,0.0,510.0,2.0,0.0
6635,65.0,512.0,510.0,2.0,0.0
6636,38.0,0.0,510.0,4.0,0.0
6637,70.0,0.0,600.0,5.0,0.0
6638,62.0,410.0,600.0,7.0,0.0
6639,65.0,0.0,600.0,6.0,0.0
6640,41.0,0.0,600.0,8.0,0.0
6641,41.0,0.0,600.0,4.0,0.0
6642,70.0,0.0,15.0,3.0,0.0
6643,41.0,0.0,600.0,15.0,0.0
6644,74.0,0.0,600.0,2.0,0.0
6645,53.0,512.0,1020.0,14.0,0.0
6646,65.0,0.0,600.0,3.0,0.0
6647,70.0,0.0,600.0,2.0,0.0
6648,60.0,0.0,510.0,13.0,0.0
6649,58.0,512.0,510.0,13.0,0.0
6650,38.0,0.0,510.0,15.0,0.0
6651,65.0,0.0,510.0,7.0,0.0
6652,74.0,0.0,510.0,3.0,0.0
6653,50.0,0.0,510.0,14.0,0.0
6654,65.0,0.0,510.0,2.0,0.0
6655,74.0,0.0,510.0,5.0,0.0
6656,70.0,0.0,510.0,6.0,0.0
6657,38.0,0.0,510.0,8.0,0.0
6658,38.0,0.0,510.0,4.0,0.0
6659,53.0,0.0,510.0,14.0,0.0
6660,70.0,0.0,15.0,2.0,0.0
6661,65.0,0.0,510.0,6.0,0.0
6662,41.0,0.0,510.0,4.0,0.0
6663,70.0,0.0,510.0,5.0,0.0
6664,41.0,0.0,510.0,15.0,0.0
6665,62.0,0.0,510.0,7.0,0.0
6666,70.0,0.0,15.0,3.0,0.0
6667,65.0,0.0,510.0,3.0,0.0
6668,60.0,0.0,510.0,13.0,0.0
6669,41.0,0.0,510.0,8.0,0.0
6670,44.0,0.0,600.0,8.0,0.0
6671,74.0,0.0,15.0,2.0,0.0
6672,56.0,512.0,1020.0,14.0,0.0
6673,65.0,410.0,600.0,3.0,0.0
6674,62.0,0.0,600.0,3.0,0.0
6675,62.0,0.0,600.0,6.0,0.0
6676,77.0,0.0,600.0,2.0,0.0
6677,44.0,0.0,600.0,4.0,0.0
6678,65.0,0.0,600.0,5.0,0.0
6679,58.0,0.0,600.0,7.0,0.0
6680,58.0,0.0,5130.0,13.0,0.0
6681,44.0,0.0,600.0,15.0,0.0
6682,70.0,0.0,510.0,3.0,0.0
6683,70.0,0.0,510.0,5.0,0.0
6684,65.0,0.0,510.0,3.0,0.0
6685,65.0,0.0,510.0,6.0,0.0
6686,43.0,0.0,510.0,4.0,0.0
6687,43.0,512.0,510.0,15.0,0.0
6688,43.0,0.0,510.0,8.0,0.0
6689,65.0,0.0,510.0,2.0,0.0
6690,55.0,0.0,510.0,14.0,0.0
6691,62.0,0.0,510.0,7.0,0.0
6692,74.0,0.0,510.0,5.0,0.0
6693,70.0,0.0,15.0,2.0,0.0
6694,44.0,0.0,510.0,8.0,0.0
6695,74.0,0.0,510.0,2.0,0.0
6696,74.0,0.0,510.0,3.0,0.0
6697,56.0,0.0,510.0,14.0,0.0
6698,70.0,0.0,510.0,3.0,0.0
6699,44.0,0.0,510.0,15.0,0.0
6700,70.0,512.0,510.0,6.0,0.0
6701,65.0,0.0,510.0,7.0,0.0
6702,44.0,0.0,510.0,4.0,0.0
6703,77.0,410.0,600.0,2.0,0.0
6704,74.0,0.0,600.0,2.0,0.0
6705,46.0,0.0,510.0,8.0,0.0
6706,46.0,0.0,510.0,4.0,0.0
6707,65.0,0.0,15.0,12.0,0.0
6708,70.0,0.0,600.0,7.0,0.0
6709,46.0,0.0,510.0,15.0,0.0
6710,58.0,102.0,510.0,14.0,0.0
6711,77.0,0.0,600.0,3.0,0.0
6712,77.0,0.0,600.0,5.0,0.0
6713,74.0,0.0,600.0,3.0,0.0
6714,74.0,0.0,600.0,6.0,0.0
6715,44.0,0.0,510.0,15.0,0.0
6716,56.0,0.0,510.0,14.0,0.0
6717,44.0,512.0,510.0,4.0,0.0
6718,44.0,0.0,510.0,8.0,0.0
6719,43.0,0.0,510.0,4.0,0.0
6720,55.0,0.0,510.0,14.0,0.0
6721,43.0,0.0,510.0,8.0,0.0
6722,70.0,0.0,510.0,6.0,0.0
6723,75.0,0.0,510.0,3.0,0.0
6724,70.0,512.0,510.0,2.0,0.0
6725,70.0,0.0,510.0,3.0,0.0
6726,75.0,0.0,510.0,5.0,0.0
6727,43.0,0.0,510.0,15.0,0.0
6728,65.0,0.0,510.0,7.0,0.0
6729,75.0,0.0,510.0,2.0,0.0
6730,77.0,0.0,510.0,5.0,0.0
6731,41.0,0.0,510.0,4.0,0.0
6732,70.0,0.0,510.0,7.0,0.0
6733,41.0,0.0,510.0,15.0,0.0
6734,74.0,0.0,510.0,6.0,0.0
6735,74.0,0.0,510.0,3.0,0.0
6736,77.0,512.0,510.0,2.0,0.0
6737,74.0,0.0,510.0,2.0,0.0
6738,77.0,0.0,510.0,3.0,0.0
6739,41.0,0.0,510.0,8.0,0.0
6740,53.0,0.0,510.0,14.0,0.0
6741,79.0,0.0,600.0,3.0,0.0
6742,39.0,0.0,600.0,8.0,0.0
6743,39.0,0.0,600.0,15.0,0.0
6744,67.0,0.0,4710.0,12.0,0.0
6745,75.0,0.0,600.0,3.0,0.0
6746,70.0,410.0,600.0,7.0,0.0
6747,79.0,0.0,600.0,5.0,0.0
6748,75.0,0.0,600.0,6.0,0.0
6749,51.0,102.0,510.0,14.0,0.0
6750,39.0,0.0,600.0,4.0,0.0
6751,75.0,0.0,600.0,2.0,0.0
6752,79.0,0.0,600.0,2.0,0.0
6753,53.0,512.0,510.0,14.0,0.0
6754,55.0,0.0,600.0,15.0,0.0
6755,75.0,0.0,510.0,0.0,0.0
6756,55.0,410.0,600.0,4.0,0.0
6757,75.0,0.0,510.0,11.0,0.0
6758,70.0,0.0,600.0,10.0,0.0
6759,60.0,102.0,510.0,13.0,0.0
6760,55.0,0.0,510.0,14.0,0.0
6761,55.0,0.0,600.0,8.0,0.0
6762,62.0,0.0,510.0,13.0,0.0
6763,74.0,0.0,510.0,11.0,0.0
6764,53.0,512.0,510.0,14.0,0.0
6765,77.0,0.0,510.0,0.0,0.0
6766,79.0,0.0,600.0,0.0,0.0
6767,72.0,0.0,600.0,11.0,0.0
6768,63.0,0.0,600.0,13.0,0.0
6769,51.0,102.0,510.0,14.0,0.0
6770,67.0,0.0,510.0,10.0,0.0
6771,51.0,0.0,600.0,8.0,0.0
6772,51.0,0.0,600.0,4.0,0.0
6773,51.0,410.0,600.0,15.0,0.0
6774,50.0,0.0,510.0,14.0,0.0
6775,69.0,512.0,510.0,10.0,0.0
6776,70.0,0.0,510.0,10.0,0.0
6777,48.0,0.0,510.0,14.0,0.0
6778,48.0,410.0,600.0,8.0,0.0
6779,62.0,0.0,600.0,13.0,0.0
6780,48.0,0.0,600.0,4.0,0.0
6781,48.0,0.0,600.0,15.0,0.0
6782,67.0,0.0,510.0,3.0,0.0
6783,79.0,0.0,510.0,3.0,0.0
6784,79.0,0.0,510.0,2.0,0.0
6785,79.0,0.0,510.0,5.0,0.0
6786,67.0,0.0,600.0,11.0,0.0
6787,75.0,0.0,510.0,3.0,0.0
6788,67.0,0.0,510.0,10.0,0.0
6789,67.0,102.0,15.0,6.0,0.0
6790,75.0,0.0,510.0,5.0,0.0
6791,63.0,0.0,15.0,7.0,0.0
6792,67.0,0.0,510.0,3.0,0.0
6793,46.0,0.0,510.0,14.0,0.0
6794,75.0,0.0,510.0,2.0,0.0
6795,72.0,0.0,4620.0,10.0,0.0
6796,72.0,0.0,600.0,2.0,0.0
6797,72.0,410.0,600.0,3.0,0.0
6798,72.0,0.0,600.0,5.0,0.0
6799,69.0,0.0,5130.0,11.0,0.0
6800,60.0,102.0,510.0,13.0,0.0
6801,67.0,0.0,600.0,3.0,0.0
6802,67.0,512.0,15.0,6.0,0.0
6803,63.0,0.0,600.0,7.0,0.0
6804,45.0,512.0,3060.0,14.0,0.0
6805,45.0,0.0,600.0,4.0,0.0
6806,45.0,0.0,600.0,15.0,0.0
6807,45.0,0.0,600.0,8.0,0.0
6808,62.0,512.0,510.0,13.0,0.0
6809,48.0,0.0,600.0,8.0,0.0
6810,48.0,0.0,600.0,4.0,0.0
6811,48.0,410.0,600.0,15.0,0.0
6812,79.0,0.0,510.0,0.0,0.0
6813,63.0,0.0,600.0,12.0,0.0
6814,60.0,102.0,510.0,13.0,0.0
6815,75.0,512.0,510.0,0.0,0.0
6816,58.0,0.0,510.0,13.0,0.0
6817,57.0,0.0,3060.0,13.0,0.0
6818,60.0,102.0,510.0,12.0,0.0
6819,45.0,0.0,600.0,15.0,0.0
6820,45.0,0.0,600.0,8.0,0.0
6821,72.0,0.0,600.0,0.0,0.0
6822,45.0,410.0,600.0,4.0,0.0
6823,63.0,0.0,510.0,12.0,0.0
6824,41.0,0.0,600.0,8.0,0.0
6825,69.0,0.0,510.0,6.0,0.0
6826,41.0,0.0,600.0,15.0,0.0
6827,65.0,0.0,510.0,7.0,0.0
6828,69.0,0.0,510.0,3.0,0.0
6829,74.0,0.0,510.0,3.0,0.0
6830,62.0,0.0,510.0,12.0,0.0
6831,41.0,410.0,600.0,4.0,0.0
6832,46.0,102.0,510.0,14.0,0.0
6833,74.0,0.0,510.0,2.0,0.0
6834,74.0,0.0,510.0,5.0,0.0
6835,67.0,0.0,510.0,7.0,0.0
6836,72.0,0.0,510.0,6.0,0.0
6837,75.0,0.0,510.0,5.0,0.0
6838,72.0,0.0,510.0,3.0,0.0
6839,75.0,0.0,510.0,3.0,0.0
6840,60.0,0.0,510.0,12.0,0.0
6841,75.0,0.0,510.0,2.0,0.0
6842,48.0,0.0,510.0,14.0,0.0
6843,69.0,0.0,600.0,7.0,0.0
6844,74.0,0.0,600.0,6.0,0.0
6845,65.0,102.0,4620.0,12.0,0.0
6846,74.0,0.0,600.0,3.0,0.0
6847,50.0,102.0,510.0,14.0,0.0
6848,38.0,410.0,600.0,8.0,0.0
6849,77.0,0.0,600.0,3.0,0.0
6850,38.0,0.0,600.0,15.0,0.0
6851,77.0,0.0,600.0,5.0,0.0
6852,38.0,0.0,600.0,4.0,0.0
6853,77.0,0.0,600.0,2.0,0.0
6854,70.0,512.0,510.0,10.0,0.0
6855,51.0,0.0,510.0,14.0,0.0
6856,53.0,410.0,600.0,4.0,0.0
6857,58.0,0.0,510.0,13.0,0.0
6858,53.0,0.0,510.0,14.0,0.0
6859,69.0,102.0,510.0,10.0,0.0
6860,74.0,0.0,510.0,11.0,0.0
6861,53.0,0.0,600.0,8.0,0.0
6862,74.0,0.0,510.0,0.0,0.0
6863,53.0,0.0,600.0,15.0,0.0
6864,51.0,0.0,510.0,14.0,0.0
6865,75.0,0.0,510.0,0.0,0.0
6866,67.0,512.0,510.0,10.0,0.0
6867,60.0,0.0,510.0,13.0,0.0
6868,72.0,0.0,510.0,11.0,0.0
6869,50.0,0.0,600.0,8.0,0.0
6870,50.0,0.0,510.0,14.0,0.0
6871,70.0,410.0,600.0,11.0,0.0
6872,50.0,0.0,600.0,15.0,0.0
6873,65.0,102.0,510.0,10.0,0.0
6874,62.0,0.0,600.0,13.0,0.0
6875,77.0,0.0,600.0,0.0,0.0
6876,50.0,0.0,600.0,4.0,0.0
6877,48.0,0.0,510.0,14.0,0.0
6878,67.0,512.0,510.0,10.0,0.0
6879,77.0,102.0,510.0,3.0,0.0
6880,46.0,0.0,600.0,15.0,0.0
6881,46.0,0.0,510.0,14.0,0.0
6882,77.0,0.0,510.0,5.0,0.0
6883,77.0,0.0,510.0,2.0,0.0
6884,65.0,410.0,600.0,11.0,0.0
6885,60.0,0.0,600.0,13.0,0.0
6886,69.0,0.0,510.0,10.0,0.0
6887,46.0,0.0,600.0,4.0,0.0
6888,62.0,0.0,510.0,7.0,0.0
6889,46.0,0.0,600.0,8.0,0.0
6890,65.0,0.0,510.0,10.0,0.0
6891,65.0,0.0,15.0,3.0,0.0
6892,74.0,0.0,510.0,3.0,0.0
6893,65.0,0.0,15.0,6.0,0.0
6894,74.0,0.0,510.0,5.0,0.0
6895,74.0,0.0,510.0,2.0,0.0
6896,45.0,0.0,510.0,14.0,0.0
6897,43.0,0.0,600.0,8.0,0.0
6898,43.0,0.0,600.0,14.0,0.0
6899,65.0,0.0,15.0,3.0,0.0
6900,70.0,0.0,600.0,2.0,0.0
6901,70.0,410.0,600.0,5.0,0.0
6902,70.0,0.0,600.0,3.0,0.0
6903,62.0,0.0,15.0,7.0,0.0
6904,43.0,0.0,600.0,4.0,0.0
6905,58.0,0.0,510.0,13.0,0.0
6906,43.0,0.0,600.0,15.0,0.0
6907,67.0,0.0,8190.0,11.0,0.0
6908,65.0,512.0,15.0,6.0,0.0
6909,63.0,0.0,510.0,12.0,0.0
6910,60.0,512.0,510.0,13.0,0.0
6911,46.0,0.0,600.0,15.0,0.0
6912,55.0,0.0,600.0,14.0,0.0
6913,46.0,0.0,600.0,8.0,0.0
6914,58.0,0.0,510.0,13.0,0.0
6915,46.0,410.0,600.0,4.0,0.0
6916,62.0,0.0,510.0,12.0,0.0
6917,77.0,102.0,510.0,0.0,0.0
6918,74.0,0.0,510.0,0.0,0.0
6919,57.0,0.0,510.0,13.0,0.0
6920,65.0,512.0,510.0,12.0,0.0
6921,58.0,0.0,510.0,12.0,0.0
6922,43.0,0.0,600.0,15.0,0.0
6923,43.0,0.0,600.0,4.0,0.0
6924,55.0,102.0,510.0,14.0,0.0
6925,43.0,410.0,600.0,8.0,0.0
6926,55.0,0.0,2040.0,13.0,0.0
6927,70.0,0.0,600.0,0.0,0.0
6928,62.0,512.0,510.0,12.0,0.0
6929,53.0,0.0,510.0,14.0,0.0
6930,63.0,0.0,510.0,7.0,0.0
6931,72.0,0.0,510.0,2.0,0.0
6932,67.0,0.0,510.0,6.0,0.0
6933,72.0,0.0,510.0,3.0,0.0
6934,39.0,0.0,600.0,8.0,0.0
6935,67.0,0.0,510.0,3.0,0.0
6936,72.0,102.0,510.0,5.0,0.0
6937,39.0,410.0,600.0,15.0,0.0
6938,51.0,0.0,510.0,14.0,0.0
6939,60.0,0.0,510.0,12.0,0.0
6940,39.0,0.0,600.0,4.0,0.0
6941,65.0,0.0,510.0,7.0,0.0
6942,74.0,0.0,510.0,3.0,0.0
6943,50.0,0.0,510.0,14.0,0.0
6944,58.0,0.0,510.0,12.0,0.0
6945,74.0,0.0,510.0,5.0,0.0
6946,70.0,0.0,510.0,3.0,0.0
6947,74.0,0.0,510.0,2.0,0.0
6948,70.0,0.0,510.0,6.0,0.0
6949,75.0,0.0,600.0,3.0,0.0
6950,75.0,0.0,600.0,2.0,0.0
6951,48.0,512.0,1020.0,14.0,0.0
6952,72.0,410.0,600.0,6.0,0.0
6953,72.0,0.0,600.0,3.0,0.0
6954,75.0,0.0,600.0,5.0,0.0
6955,36.0,0.0,600.0,4.0,0.0
6956,36.0,0.0,600.0,8.0,0.0
6957,55.0,0.0,2040.0,13.0,0.0
6958,36.0,0.0,600.0,15.0,0.0
6959,67.0,0.0,600.0,7.0,0.0
6960,70.0,614.0,15.0,10.0,0.0
6961,55.0,102.0,510.0,8.0,0.0
6962,72.0,0.0,510.0,0.0,0.0
6963,55.0,0.0,510.0,14.0,0.0
6964,55.0,0.0,510.0,4.0,0.0
6965,67.0,410.0,600.0,10.0,0.0
6966,55.0,0.0,510.0,15.0,0.0
6967,51.0,0.0,510.0,8.0,0.0
6968,74.0,0.0,510.0,0.0,0.0
6969,51.0,614.0,510.0,14.0,0.0
6970,51.0,0.0,510.0,15.0,0.0
6971,51.0,0.0,510.0,4.0,0.0
6972,48.0,512.0,1020.0,14.0,0.0
6973,75.0,410.0,600.0,0.0,0.0
6974,48.0,0.0,600.0,8.0,0.0
6975,48.0,0.0,600.0,15.0,0.0
6976,75.0,0.0,600.0,10.0,0.0
6977,48.0,0.0,600.0,4.0,0.0
6978,67.0,0.0,510.0,7.0,0.0
6979,72.0,0.0,510.0,6.0,0.0
6980,51.0,102.0,510.0,15.0,0.0
6981,51.0,0.0,510.0,8.0,0.0
6982,75.0,0.0,510.0,2.0,0.0
6983,55.0,0.0,600.0,13.0,0.0
6984,51.0,0.0,510.0,14.0,0.0
6985,75.0,0.0,510.0,5.0,0.0
6986,75.0,410.0,600.0,10.0,0.0
6987,51.0,0.0,510.0,4.0,0.0
6988,72.0,0.0,510.0,3.0,0.0
6989,75.0,0.0,510.0,3.0,0.0
6990,74.0,0.0,510.0,3.0,0.0
6991,48.0,0.0,510.0,8.0,0.0
6992,74.0,0.0,510.0,2.0,0.0
6993,70.0,0.0,510.0,3.0,0.0
6994,70.0,0.0,510.0,6.0,0.0
6995,48.0,0.0,510.0,14.0,0.0
6996,67.0,0.0,510.0,7.0,0.0
6997,74.0,0.0,510.0,5.0,0.0
6998,48.0,0.0,510.0,15.0,0.0
6999,48.0,0.0,510.0,4.0,0.0
7000,75.0,0.0,600.0,5.0,0.0
7001,45.0,0.0,600.0,15.0,0.0
7002,72.0,0.0,600.0,6.0,0.0
7003,65.0,0.0,2040.0,11.0,0.0
7004,45.0,410.0,600.0,4.0,0.0
7005,45.0,0.0,600.0,8.0,0.0
7006,63.0,0.0,15.0,12.0,0.0
7007,45.0,512.0,1020.0,14.0,0.0
7008,75.0,0.0,600.0,2.0,0.0
7009,72.0,0.0,600.0,3.0,0.0
7010,75.0,0.0,600.0,3.0,0.0
7011,60.0,0.0,600.0,13.0,0.0
7012,65.0,0.0,600.0,7.0,0.0
7013,60.0,410.0,600.0,12.0,0.0
7014,60.0,0.0,600.0,13.0,0.0
7015,65.0,0.0,600.0,10.0,0.0
7016,75.0,0.0,510.0,0.0,0.0
7017,51.0,0.0,510.0,14.0,0.0
7018,51.0,0.0,510.0,4.0,0.0
7019,51.0,0.0,510.0,15.0,0.0
7020,51.0,102.0,510.0,8.0,0.0
7021,48.0,0.0,510.0,4.0,0.0
7022,48.0,0.0,510.0,14.0,0.0
7023,48.0,0.0,510.0,8.0,0.0
7024,74.0,0.0,510.0,0.0,0.0
7025,48.0,614.0,510.0,15.0,0.0
7026,72.0,0.0,600.0,12.0,0.0
7027,75.0,0.0,600.0,10.0,0.0
7028,45.0,0.0,600.0,4.0,0.0
7029,45.0,410.0,600.0,15.0,0.0
7030,45.0,512.0,1020.0,14.0,0.0
7031,45.0,0.0,600.0,8.0,0.0
7032,75.0,0.0,600.0,0.0,0.0
7033,48.0,0.0,510.0,4.0,0.0
7034,55.0,0.0,600.0,13.0,0.0
7035,75.0,0.0,600.0,10.0,0.0
7036,72.0,0.0,600.0,12.0,0.0
7037,48.0,102.0,510.0,15.0,0.0
7038,69.0,0.0,510.0,3.0,0.0
7039,75.0,0.0,510.0,5.0,0.0
7040,69.0,0.0,510.0,6.0,0.0
7041,48.0,0.0,510.0,8.0,0.0
7042,60.0,410.0,600.0,11.0,0.0
7043,75.0,0.0,510.0,3.0,0.0
7044,75.0,0.0,510.0,2.0,0.0
7045,48.0,0.0,510.0,14.0,0.0
7046,65.0,0.0,15.0,7.0,0.0
7047,45.0,614.0,510.0,8.0,0.0
7048,74.0,0.0,510.0,2.0,0.0
7049,74.0,0.0,510.0,3.0,0.0
7050,45.0,0.0,510.0,14.0,0.0
7051,45.0,0.0,510.0,15.0,0.0
7052,70.0,0.0,510.0,6.0,0.0
7053,70.0,0.0,510.0,3.0,0.0
7054,74.0,0.0,510.0,5.0,0.0
7055,45.0,0.0,510.0,4.0,0.0
7056,75.0,0.0,600.0,2.0,0.0
7057,57.0,0.0,600.0,7.0,0.0
7058,75.0,0.0,600.0,5.0,0.0
7059,41.0,0.0,1530.0,14.0,0.0
7060,57.0,0.0,600.0,13.0,0.0
7061,72.0,0.0,600.0,6.0,0.0
7062,72.0,410.0,600.0,3.0,0.0
7063,75.0,0.0,600.0,3.0,0.0
7064,41.0,0.0,600.0,4.0,0.0
7065,75.0,512.0,1020.0,10.0,0.0
7066,72.0,0.0,600.0,11.0,0.0
7067,41.0,0.0,600.0,8.0,0.0
7068,41.0,0.0,600.0,15.0,0.0
7069,57.0,410.0,600.0,13.0,0.0
7070,65.0,0.0,510.0,0.0,0.0
7071,41.0,0.0,510.0,4.0,0.0
7072,69.0,0.0,510.0,2.0,0.0
7073,41.0,0.0,510.0,1.0,0.0
7074,72.0,0.0,600.0,11.0,0.0
7075,69.0,0.0,510.0,5.0,0.0
7076,69.0,0.0,510.0,3.0,0.0
7077,41.0,0.0,510.0,8.0,0.0
7078,65.0,0.0,600.0,12.0,0.0
7079,41.0,0.0,510.0,15.0,0.0
7080,69.0,0.0,510.0,10.0,0.0
7081,65.0,0.0,15.0,0.0,0.0
7082,72.0,0.0,510.0,10.0,0.0
7083,45.0,0.0,510.0,15.0,0.0
7084,72.0,0.0,510.0,3.0,0.0
7085,45.0,0.0,510.0,8.0,0.0
7086,45.0,0.0,510.0,14.0,0.0
7087,45.0,614.0,510.0,4.0,0.0
7088,65.0,0.0,510.0,0.0,0.0
7089,72.0,0.0,510.0,2.0,0.0
7090,72.0,0.0,510.0,5.0,0.0
7091,48.0,0.0,600.0,8.0,0.0
7092,75.0,0.0,600.0,3.0,0.0
7093,41.0,0.0,15.0,1.0,0.0
7094,57.0,0.0,3060.0,13.0,0.0
7095,75.0,0.0,600.0,5.0,0.0
7096,75.0,512.0,3060.0,10.0,0.0
7097,48.0,0.0,600.0,4.0,0.0
7098,48.0,0.0,600.0,15.0,0.0
7099,65.0,0.0,15.0,0.0,0.0
7100,60.0,0.0,2670.0,12.0,0.0
7101,75.0,0.0,600.0,2.0,0.0
7102,48.0,512.0,1020.0,14.0,0.0
7103,45.0,0.0,510.0,14.0,0.0
7104,72.0,0.0,600.0,11.0,0.0
7105,65.0,0.0,510.0,6.0,0.0
7106,75.0,0.0,600.0,2.0,0.0
7107,41.0,0.0,600.0,1.0,0.0
7108,45.0,0.0,510.0,4.0,0.0
7109,65.0,0.0,510.0,3.0,0.0
7110,75.0,0.0,600.0,3.0,0.0
7111,45.0,0.0,510.0,8.0,0.0
7112,75.0,0.0,600.0,5.0,0.0
7113,65.0,0.0,600.0,0.0,0.0
7114,60.0,102.0,510.0,7.0,0.0
7115,45.0,0.0,510.0,15.0,0.0
7116,48.0,0.0,510.0,15.0,0.0
7117,48.0,614.0,510.0,14.0,0.0
7118,48.0,0.0,510.0,8.0,0.0
7119,69.0,0.0,510.0,3.0,0.0
7120,69.0,0.0,510.0,6.0,0.0
7121,48.0,0.0,510.0,4.0,0.0
7122,65.0,0.0,510.0,7.0,0.0
7123,72.0,0.0,600.0,3.0,0.0
7124,75.0,0.0,600.0,3.0,0.0
7125,69.0,410.0,600.0,7.0,0.0
7126,65.0,0.0,600.0,0.0,0.0
7127,41.0,0.0,600.0,1.0,0.0
7128,53.0,0.0,1020.0,14.0,0.0
7129,53.0,0.0,600.0,4.0,0.0
7130,69.0,0.0,600.0,11.0,0.0
7131,72.0,0.0,600.0,6.0,0.0
7132,53.0,0.0,600.0,8.0,0.0
7133,75.0,0.0,600.0,2.0,0.0
7134,75.0,0.0,600.0,5.0,0.0
7135,53.0,0.0,600.0,15.0,0.0
7136,65.0,410.0,600.0,12.0,0.0
7137,69.0,0.0,510.0,5.0,0.0
7138,48.0,0.0,510.0,14.0,0.0
7139,53.0,0.0,510.0,13.0,0.0
7140,69.0,0.0,510.0,10.0,0.0
7141,48.0,0.0,510.0,4.0,0.0
7142,72.0,0.0,600.0,11.0,0.0
7143,48.0,0.0,510.0,8.0,0.0
7144,69.0,0.0,510.0,3.0,0.0
7145,69.0,0.0,510.0,2.0,0.0
7146,48.0,0.0,510.0,15.0,0.0
7147,65.0,0.0,510.0,0.0,0.0
7148,57.0,0.0,510.0,13.0,0.0
7149,53.0,0.0,510.0,15.0,0.0
7150,53.0,614.0,510.0,14.0,0.0
7151,65.0,0.0,15.0,0.0,0.0
7152,72.0,0.0,510.0,10.0,0.0
7153,65.0,0.0,15.0,0.0,0.0
7154,72.0,0.0,510.0,5.0,0.0
7155,72.0,0.0,510.0,3.0,0.0
7156,53.0,0.0,510.0,4.0,0.0
7157,72.0,0.0,510.0,2.0,0.0
7158,41.0,102.0,15.0,1.0,0.0
7159,53.0,0.0,510.0,8.0,0.0
7160,57.0,0.0,600.0,8.0,0.0
7161,65.0,0.0,600.0,11.0,0.0
7162,75.0,0.0,600.0,2.0,0.0
7163,57.0,0.0,600.0,14.0,0.0
7164,57.0,0.0,600.0,15.0,0.0
7165,65.0,0.0,600.0,12.0,0.0
7166,75.0,0.0,600.0,5.0,0.0
7167,41.0,0.0,15.0,1.0,0.0
7168,75.0,0.0,600.0,10.0,0.0
7169,65.0,0.0,15.0,0.0,0.0
7170,75.0,922.0,600.0,3.0,0.0
7171,57.0,0.0,600.0,4.0,0.0
7172,60.0,0.0,600.0,13.0,0.0
7173,65.0,0.0,600.0,0.0,0.0
7174,53.0,0.0,510.0,4.0,0.0
7175,41.0,0.0,600.0,1.0,0.0
7176,53.0,0.0,510.0,15.0,0.0
7177,65.0,0.0,600.0,12.0,0.0
7178,60.0,102.0,510.0,7.0,0.0
7179,75.0,0.0,600.0,5.0,0.0
7180,57.0,0.0,510.0,13.0,0.0
7181,75.0,0.0,600.0,3.0,0.0
7182,75.0,0.0,600.0,10.0,0.0
7183,72.0,0.0,600.0,11.0,0.0
7184,53.0,0.0,510.0,14.0,0.0
7185,69.0,0.0,510.0,6.0,0.0
7186,53.0,0.0,510.0,8.0,0.0
7187,75.0,0.0,600.0,2.0,0.0
7188,65.0,0.0,600.0,0.0,0.0
7189,69.0,0.0,510.0,3.0,0.0
7190,72.0,0.0,510.0,6.0,0.0
7191,72.0,0.0,510.0,3.0,0.0
7192,57.0,0.0,510.0,15.0,0.0
7193,57.0,0.0,510.0,14.0,0.0
7194,57.0,512.0,510.0,8.0,0.0
7195,60.0,0.0,510.0,13.0,0.0
7196,57.0,0.0,510.0,4.0,0.0
7197,65.0,0.0,510.0,7.0,0.0
7198,62.0,0.0,600.0,13.0,0.0
7199,70.0,0.0,2040.0,11.0,0.0
7200,58.0,0.0,600.0,4.0,0.0
7201,58.0,0.0,2040.0,14.0,0.0
7202,70.0,0.0,600.0,6.0,0.0
7203,74.0,0.0,2040.0,10.0,0.0
7204,65.0,410.0,600.0,7.0,0.0
7205,65.0,0.0,600.0,0.0,0.0
7206,74.0,102.0,510.0,5.0,0.0
7207,58.0,0.0,600.0,15.0,0.0
7208,74.0,0.0,510.0,3.0,0.0
7209,65.0,0.0,2040.0,12.0,0.0
7210,74.0,0.0,510.0,2.0,0.0
7211,70.0,0.0,600.0,3.0,0.0
7212,46.0,0.0,600.0,1.0,0.0
7213,58.0,0.0,600.0,8.0,0.0
7214,72.0,0.0,510.0,2.0,0.0
7215,72.0,512.0,510.0,3.0,0.0
7216,72.0,0.0,510.0,5.0,0.0
7217,62.0,0.0,600.0,7.0,0.0
7218,65.0,0.0,600.0,3.0,0.0
7219,53.0,0.0,600.0,13.0,0.0
7220,70.0,0.0,510.0,3.0,0.0
7221,46.0,0.0,600.0,15.0,0.0
7222,46.0,0.0,600.0,8.0,0.0
7223,70.0,102.0,510.0,0.0,0.0
7224,70.0,0.0,510.0,2.0,0.0
7225,65.0,0.0,600.0,2.0,0.0
7226,46.0,0.0,600.0,4.0,0.0
7227,70.0,0.0,510.0,5.0,0.0
7228,65.0,410.0,600.0,6.0,0.0
7229,65.0,0.0,15.0,0.0,0.0
7230,72.0,0.0,510.0,3.0,0.0
7231,46.0,0.0,15.0,1.0,0.0
7232,72.0,0.0,510.0,5.0,0.0
7233,72.0,0.0,510.0,0.0,0.0
7234,72.0,512.0,510.0,2.0,0.0
7235,58.0,0.0,600.0,4.0,0.0
7236,74.0,102.0,510.0,3.0,0.0
7237,70.0,0.0,510.0,3.0,0.0
7238,74.0,0.0,510.0,0.0,0.0
7239,65.0,0.0,15.0,0.0,0.0
7240,70.0,0.0,510.0,0.0,0.0
7241,67.0,410.0,600.0,7.0,0.0
7242,58.0,0.0,2670.0,13.0,0.0
7243,46.0,0.0,600.0,1.0,0.0
7244,58.0,0.0,600.0,8.0,0.0
7245,70.0,0.0,510.0,6.0,0.0
7246,58.0,0.0,600.0,15.0,0.0
7247,74.0,0.0,510.0,5.0,0.0
7248,74.0,0.0,510.0,2.0,0.0
7249,75.0,0.0,510.0,0.0,0.0
7250,72.0,0.0,510.0,6.0,0.0
7251,75.0,0.0,510.0,2.0,0.0
7252,72.0,0.0,510.0,0.0,0.0
7253,75.0,0.0,510.0,5.0,0.0
7254,72.0,0.0,510.0,3.0,0.0
7255,75.0,0.0,510.0,3.0,0.0
7256,55.0,410.0,600.0,15.0,0.0
7257,55.0,0.0,600.0,8.0,0.0
7258,77.0,0.0,510.0,5.0,0.0
7259,55.0,0.0,600.0,14.0,0.0
7260,74.0,0.0,510.0,3.0,0.0
7261,74.0,0.0,510.0,6.0,0.0
7262,65.0,102.0,510.0,12.0,0.0
7263,77.0,0.0,510.0,3.0,0.0
7264,77.0,0.0,510.0,0.0,0.0
7265,77.0,0.0,510.0,2.0,0.0
7266,55.0,0.0,600.0,4.0,0.0
7267,74.0,0.0,510.0,10.0,0.0
7268,74.0,0.0,510.0,0.0,0.0
7269,70.0,0.0,510.0,11.0,0.0
7270,62.0,0.0,510.0,7.0,0.0
7271,79.0,0.0,510.0,0.0,0.0
7272,75.0,0.0,510.0,0.0,0.0
7273,79.0,0.0,510.0,5.0,0.0
7274,75.0,0.0,510.0,3.0,0.0
7275,79.0,0.0,510.0,3.0,0.0
7276,75.0,0.0,510.0,6.0,0.0
7277,69.0,0.0,510.0,11.0,0.0
7278,75.0,0.0,510.0,10.0,0.0
7279,60.0,0.0,510.0,7.0,0.0
7280,79.0,0.0,510.0,2.0,0.0
7281,63.0,614.0,510.0,12.0,0.0
7282,50.0,0.0,600.0,8.0,0.0
7283,50.0,0.0,600.0,15.0,0.0
7284,74.0,0.0,600.0,3.0,0.0
7285,62.0,0.0,600.0,7.0,0.0
7286,74.0,0.0,600.0,6.0,0.0
7287,74.0,0.0,600.0,10.0,0.0
7288,77.0,922.0,600.0,3.0,0.0
7289,77.0,0.0,600.0,5.0,0.0
7290,50.0,0.0,600.0,4.0,0.0
7291,77.0,0.0,600.0,2.0,0.0
7292,70.0,0.0,600.0,11.0,0.0
7293,77.0,0.0,600.0,0.0,0.0
7294,74.0,0.0,600.0,0.0,0.0
7295,65.0,0.0,600.0,12.0,0.0
7296,50.0,0.0,600.0,14.0,0.0
7297,63.0,0.0,510.0,7.0,0.0
7298,72.0,102.0,510.0,10.0,0.0
7299,72.0,0.0,510.0,3.0,0.0
7300,75.0,0.0,510.0,3.0,0.0
7301,63.0,0.0,510.0,12.0,0.0
7302,55.0,0.0,600.0,4.0,0.0
7303,55.0,0.0,600.0,15.0,0.0
7304,58.0,410.0,600.0,13.0,0.0
7305,75.0,0.0,510.0,2.0,0.0
7306,75.0,0.0,510.0,5.0,0.0
7307,55.0,0.0,600.0,14.0,0.0
7308,67.0,0.0,600.0,11.0,0.0
7309,75.0,0.0,510.0,0.0,0.0
7310,55.0,0.0,600.0,8.0,0.0
7311,72.0,0.0,510.0,6.0,0.0
7312,72.0,0.0,510.0,0.0,0.0
7313,74.0,0.0,510.0,0.0,0.0
7314,70.0,0.0,510.0,3.0,0.0
7315,70.0,0.0,510.0,0.0,0.0
7316,74.0,0.0,510.0,3.0,0.0
7317,65.0,614.0,510.0,7.0,0.0
7318,70.0,0.0,510.0,10.0,0.0
7319,74.0,0.0,510.0,2.0,0.0
7320,70.0,0.0,510.0,6.0,0.0
7321,62.0,0.0,510.0,12.0,0.0
7322,74.0,0.0,510.0,5.0,0.0
7323,72.0,0.0,600.0,10.0,0.0
7324,51.0,922.0,600.0,4.0,0.0
7325,63.0,0.0,600.0,12.0,0.0
7326,51.0,0.0,600.0,15.0,0.0
7327,75.0,0.0,600.0,0.0,0.0
7328,72.0,0.0,600.0,0.0,0.0
7329,51.0,0.0,600.0,8.0,0.0
7330,75.0,0.0,600.0,3.0,0.0
7331,55.0,0.0,600.0,13.0,0.0
7332,72.0,0.0,600.0,3.0,0.0
7333,51.0,0.0,600.0,14.0,0.0
7334,72.0,0.0,600.0,6.0,0.0
7335,75.0,0.0,600.0,2.0,0.0
7336,67.0,0.0,600.0,7.0,0.0
7337,75.0,0.0,600.0,5.0,0.0
7338,67.0,0.0,600.0,11.0,0.0
7339,70.0,0.0,510.0,10.0,0.0
7340,53.0,0.0,600.0,8.0,0.0
7341,70.0,0.0,510.0,3.0,0.0
7342,53.0,410.0,600.0,4.0,0.0
7343,74.0,0.0,510.0,0.0,0.0
7344,53.0,0.0,510.0,14.0,0.0
7345,50.0,0.0,510.0,13.0,0.0
7346,65.0,0.0,600.0,7.0,0.0
7347,74.0,0.0,510.0,3.0,0.0
7348,62.0,0.0,510.0,12.0,0.0
7349,74.0,0.0,510.0,2.0,0.0
7350,70.0,0.0,510.0,0.0,0.0
7351,74.0,102.0,510.0,5.0,0.0
7352,53.0,0.0,600.0,15.0,0.0
7353,70.0,0.0,510.0,6.0,0.0
7354,65.0,0.0,15.0,0.0,0.0
7355,60.0,614.0,510.0,12.0,0.0
7356,65.0,0.0,15.0,11.0,0.0
7357,69.0,0.0,510.0,6.0,0.0
7358,53.0,0.0,510.0,14.0,0.0
7359,72.0,0.0,510.0,0.0,0.0
7360,41.0,0.0,15.0,1.0,0.0
7361,72.0,0.0,510.0,2.0,0.0
7362,72.0,0.0,510.0,3.0,0.0
7363,69.0,0.0,510.0,3.0,0.0
7364,69.0,0.0,510.0,0.0,0.0
7365,72.0,0.0,510.0,5.0,0.0
7366,69.0,0.0,510.0,10.0,0.0
7367,74.0,1024.0,600.0,0.0,0.0
7368,70.0,0.0,600.0,0.0,0.0
7369,65.0,0.0,600.0,0.0,0.0
7370,46.0,0.0,600.0,1.0,0.0
7371,46.0,0.0,600.0,4.0,0.0
7372,53.0,0.0,15.0,13.0,0.0
7373,74.0,0.0,600.0,5.0,0.0
7374,70.0,0.0,600.0,10.0,0.0
7375,74.0,0.0,600.0,2.0,0.0
7376,70.0,0.0,600.0,3.0,0.0
7377,74.0,0.0,600.0,3.0,0.0
7378,62.0,0.0,600.0,12.0,0.0
7379,46.0,0.0,600.0,15.0,0.0
7380,65.0,0.0,15.0,11.0,0.0
7381,46.0,0.0,600.0,8.0,0.0
7382,65.0,0.0,600.0,7.0,0.0
7383,46.0,0.0,600.0,14.0,0.0
7384,70.0,0.0,600.0,6.0,0.0
7385,70.0,0.0,600.0,5.0,0.0
7386,62.0,0.0,600.0,7.0,0.0
7387,53.0,0.0,600.0,13.0,0.0
7388,34.0,922.0,600.0,8.0,0.0
7389,34.0,0.0,600.0,15.0,0.0
7390,70.0,0.0,600.0,10.0,0.0
7391,65.0,0.0,600.0,0.0,0.0
7392,65.0,0.0,600.0,3.0,0.0
7393,46.0,0.0,600.0,14.0,0.0
7394,70.0,0.0,600.0,3.0,0.0
7395,70.0,0.0,600.0,0.0,0.0
7396,62.0,0.0,600.0,0.0,0.0
7397,62.0,0.0,600.0,12.0,0.0
7398,70.0,0.0,600.0,2.0,0.0
7399,34.0,0.0,600.0,4.0,0.0
7400,65.0,0.0,600.0,6.0,0.0
7401,65.0,0.0,600.0,11.0,0.0
7402,53.0,0.0,510.0,13.0,0.0
7403,46.0,512.0,4110.0,15.0,0.0
7404,53.0,512.0,510.0,7.0,0.0
7405,46.0,0.0,4110.0,8.0,0.0
7406,46.0,0.0,4110.0,4.0,0.0
7407,55.0,0.0,510.0,13.0,0.0
7408,55.0,512.0,510.0,7.0,0.0
7409,51.0,0.0,510.0,7.0,0.0
7410,51.0,512.0,510.0,13.0,0.0
7411,53.0,0.0,510.0,7.0,0.0
7412,53.0,512.0,510.0,13.0,0.0
7413,55.0,0.0,510.0,13.0,0.0
7414,55.0,512.0,510.0,7.0,0.0
7415,57.0,0.0,510.0,13.0,0.0
7416,57.0,512.0,510.0,7.0,0.0
7417,53.0,0.0,510.0,13.0,0.0
7418,53.0,512.0,510.0,7.0,0.0
7419,55.0,0.0,510.0,7.0,0.0
7420,55.0,0.0,510.0,13.0,0.0
7421,45.0,0.0,2040.0,4.0,0.0
7422,57.0,512.0,510.0,7.0,0.0
7423,45.0,0.0,2040.0,8.0,0.0
7424,45.0,512.0,2040.0,15.0,0.0
7425,57.0,0.0,510.0,13.0,0.0
7426,58.0,0.0,510.0,13.0,0.0
7427,58.0,512.0,510.0,7.0,0.0
7428,55.0,0.0,510.0,13.0,0.0
7429,55.0,512.0,510.0,7.0,0.0
7430,57.0,0.0,510.0,7.0,0.0
7431,57.0,0.0,510.0,13.0,0.0
7432,58.0,0.0,510.0,7.0,0.0
7433,43.0,0.0,600.0,8.0,0.0
7434,58.0,102.0,510.0,13.0,0.0
7435,43.0,410.0,600.0,4.0,0.0
7436,43.0,0.0,600.0,15.0,0.0
7437,60.0,0.0,510.0,13.0,0.0
7438,60.0,512.0,510.0,7.0,0.0
7439,46.0,0.0,600.0,15.0,0.0
7440,57.0,102.0,510.0,13.0,0.0
7441,46.0,0.0,600.0,8.0,0.0
7442,57.0,0.0,510.0,7.0,0.0
7443,46.0,410.0,600.0,4.0,0.0
7444,58.0,512.0,510.0,7.0,0.0
7445,58.0,0.0,510.0,13.0,0.0
7446,51.0,512.0,4110.0,8.0,0.0
7447,58.0,0.0,510.0,12.0,0.0
7448,58.0,102.0,510.0,6.0,0.0
7449,51.0,0.0,4110.0,15.0,0.0
7450,51.0,0.0,4110.0,4.0,0.0
7451,55.0,410.0,600.0,7.0,0.0
7452,55.0,0.0,600.0,13.0,0.0
7453,60.0,512.0,510.0,12.0,0.0
7454,60.0,0.0,510.0,6.0,0.0
7455,55.0,410.0,600.0,13.0,0.0
7456,57.0,0.0,510.0,6.0,0.0
7457,57.0,102.0,510.0,12.0,0.0
7458,55.0,0.0,600.0,7.0,0.0
7459,58.0,512.0,510.0,12.0,0.0
7460,58.0,0.0,510.0,6.0,0.0
7461,57.0,0.0,2040.0,13.0,0.0
7462,57.0,410.0,600.0,7.0,0.0
7463,60.0,102.0,510.0,6.0,0.0
7464,60.0,0.0,510.0,12.0,0.0
7465,62.0,512.0,510.0,12.0,0.0
7466,62.0,0.0,510.0,6.0,0.0
7467,58.0,102.0,510.0,6.0,0.0
7468,58.0,0.0,510.0,12.0,0.0
7469,57.0,410.0,600.0,7.0,0.0
7470,60.0,0.0,510.0,12.0,0.0
7471,60.0,0.0,510.0,6.0,0.0
7472,50.0,0.0,2040.0,8.0,0.0
7473,62.0,102.0,510.0,12.0,0.0
7474,62.0,0.0,510.0,6.0,0.0
7475,59.0,0.0,2040.0,13.0,0.0
7476,50.0,0.0,2040.0,4.0,0.0
7477,59.0,410.0,600.0,7.0,0.0
7478,50.0,0.0,2040.0,15.0,0.0
7479,63.0,512.0,510.0,12.0,0.0
7480,63.0,0.0,510.0,6.0,0.0
7481,60.0,0.0,510.0,6.0,0.0
7482,59.0,410.0,600.0,7.0,0.0
7483,60.0,102.0,510.0,12.0,0.0
7484,62.0,0.0,510.0,12.0,0.0
7485,62.0,512.0,510.0,6.0,0.0
7486,60.0,0.0,510.0,7.0,0.0
7487,63.0,0.0,510.0,6.0,0.0
7488,48.0,0.0,2040.0,4.0,0.0
7489,48.0,0.0,2040.0,8.0,0.0
7490,63.0,0.0,510.0,12.0,0.0
7491,48.0,0.0,2040.0,15.0,0.0
7492,60.0,512.0,510.0,13.0,0.0
7493,65.0,512.0,510.0,12.0,0.0
7494,65.0,0.0,510.0,6.0,0.0
7495,62.0,0.0,510.0,13.0,0.0
7496,62.0,0.0,510.0,7.0,0.0
7497,58.0,512.0,510.0,13.0,0.0
7498,62.0,0.0,510.0,6.0,0.0
7499,58.0,0.0,510.0,7.0,0.0
7500,62.0,0.0,510.0,12.0,0.0
7501,63.0,0.0,510.0,6.0,0.0
7502,60.0,512.0,510.0,13.0,0.0
7503,60.0,0.0,510.0,7.0,0.0
7504,63.0,0.0,510.0,12.0,0.0
7505,69.0,0.0,510.0,3.0,0.0
7506,53.0,0.0,4110.0,4.0,0.0
7507,69.0,0.0,510.0,10.0,0.0
7508,69.0,0.0,510.0,5.0,0.0
7509,65.0,102.0,510.0,11.0,0.0
7510,60.0,0.0,600.0,12.0,0.0
7511,65.0,0.0,510.0,3.0,0.0
7512,65.0,0.0,510.0,2.0,0.0
7513,53.0,0.0,4110.0,8.0,0.0
7514,53.0,0.0,4110.0,15.0,0.0
7515,60.0,0.0,600.0,6.0,0.0
7516,57.0,0.0,600.0,7.0,0.0
7517,57.0,410.0,600.0,13.0,0.0
7518,69.0,0.0,510.0,2.0,0.0
7519,70.0,0.0,510.0,5.0,0.0
7520,70.0,0.0,510.0,2.0,0.0
7521,70.0,0.0,510.0,3.0,0.0
7522,67.0,0.0,510.0,3.0,0.0
7523,70.0,512.0,510.0,10.0,0.0
7524,67.0,0.0,510.0,11.0,0.0
7525,57.0,0.0,600.0,13.0,0.0
7526,67.0,0.0,15.0,2.0,0.0
7527,63.0,0.0,510.0,11.0,0.0
7528,67.0,0.0,510.0,5.0,0.0
7529,63.0,0.0,510.0,2.0,0.0
7530,63.0,0.0,510.0,3.0,0.0
7531,60.0,410.0,600.0,6.0,0.0
7532,60.0,0.0,600.0,12.0,0.0
7533,57.0,0.0,600.0,7.0,0.0
7534,67.0,102.0,510.0,10.0,0.0
7535,67.0,0.0,510.0,3.0,0.0
7536,65.0,512.0,510.0,2.0,0.0
7537,69.0,0.0,510.0,2.0,0.0
7538,69.0,0.0,510.0,5.0,0.0
7539,65.0,0.0,510.0,3.0,0.0
7540,65.0,0.0,510.0,11.0,0.0
7541,69.0,0.0,510.0,3.0,0.0
7542,69.0,0.0,510.0,10.0,0.0
7543,55.0,0.0,2040.0,13.0,0.0
7544,70.0,0.0,510.0,5.0,0.0
7545,70.0,0.0,510.0,10.0,0.0
7546,70.0,102.0,510.0,3.0,0.0
7547,67.0,0.0,510.0,3.0,0.0
7548,55.0,0.0,600.0,7.0,0.0
7549,62.0,410.0,600.0,6.0,0.0
7550,67.0,0.0,510.0,11.0,0.0
7551,67.0,0.0,510.0,2.0,0.0
7552,70.0,0.0,510.0,2.0,0.0
7553,62.0,0.0,2040.0,12.0,0.0
7554,72.0,0.0,510.0,3.0,0.0
7555,72.0,0.0,510.0,2.0,0.0
7556,72.0,0.0,510.0,10.0,0.0
7557,69.0,0.0,510.0,11.0,0.0
7558,72.0,0.0,510.0,5.0,0.0
7559,62.0,410.0,600.0,6.0,0.0
7560,55.0,0.0,600.0,7.0,0.0
7561,69.0,0.0,15.0,2.0,0.0
7562,65.0,0.0,510.0,2.0,0.0
7563,65.0,0.0,510.0,3.0,0.0
7564,69.0,102.0,510.0,10.0,0.0
7565,65.0,0.0,510.0,11.0,0.0
7566,69.0,512.0,15.0,3.0,0.0
7567,69.0,0.0,510.0,5.0,0.0
7568,67.0,0.0,510.0,11.0,0.0
7569,70.0,512.0,510.0,10.0,0.0
7570,67.0,0.0,510.0,2.0,0.0
7571,67.0,0.0,510.0,3.0,0.0
7572,70.0,0.0,510.0,2.0,0.0
7573,70.0,0.0,510.0,3.0,0.0
7574,70.0,0.0,510.0,5.0,0.0
7575,72.0,102.0,510.0,3.0,0.0
7576,51.0,0.0,2040.0,15.0,0.0
7577,63.0,0.0,2040.0,12.0,0.0
7578,51.0,0.0,2040.0,4.0,0.0
7579,60.0,410.0,600.0,7.0,0.0
7580,69.0,0.0,510.0,11.0,0.0
7581,69.0,0.0,510.0,3.0,0.0
7582,72.0,0.0,510.0,5.0,0.0
7583,51.0,0.0,2040.0,8.0,0.0
7584,63.0,0.0,600.0,6.0,0.0
7585,72.0,0.0,510.0,2.0,0.0
7586,69.0,0.0,510.0,2.0,0.0
7587,60.0,0.0,2040.0,13.0,0.0
7588,72.0,0.0,510.0,10.0,0.0
7589,74.0,0.0,510.0,10.0,0.0
7590,70.0,512.0,510.0,11.0,0.0
7591,74.0,0.0,510.0,3.0,0.0
7592,74.0,0.0,510.0,2.0,0.0
7593,70.0,0.0,510.0,2.0,0.0
7594,74.0,0.0,510.0,5.0,0.0
7595,67.0,102.0,510.0,2.0,0.0
7596,70.0,0.0,15.0,3.0,0.0
7597,67.0,0.0,510.0,11.0,0.0
7598,63.0,410.0,600.0,6.0,0.0
7599,70.0,0.0,510.0,5.0,0.0
7600,70.0,0.0,510.0,2.0,0.0
7601,70.0,0.0,510.0,10.0,0.0
7602,67.0,0.0,510.0,3.0,0.0
7603,60.0,0.0,600.0,7.0,0.0
7604,72.0,0.0,510.0,5.0,0.0
7605,69.0,0.0,510.0,3.0,0.0
7606,72.0,0.0,510.0,3.0,0.0
7607,69.0,0.0,510.0,11.0,0.0
7608,72.0,512.0,510.0,10.0,0.0
7609,72.0,0.0,510.0,2.0,0.0
7610,69.0,0.0,510.0,2.0,0.0
7611,65.0,0.0,510.0,12.0,0.0
7612,74.0,0.0,510.0,5.0,0.0
7613,50.0,0.0,2040.0,15.0,0.0
7614,53.0,0.0,600.0,13.0,0.0
7615,74.0,0.0,510.0,2.0,0.0
7616,70.0,102.0,510.0,11.0,0.0
7617,50.0,0.0,2040.0,4.0,0.0
7618,53.0,410.0,600.0,7.0,0.0
7619,74.0,0.0,510.0,3.0,0.0
7620,65.0,0.0,510.0,6.0,0.0
7621,70.0,0.0,510.0,3.0,0.0
7622,70.0,0.0,510.0,2.0,0.0
7623,50.0,0.0,2040.0,8.0,0.0
7624,74.0,0.0,510.0,10.0,0.0
7625,75.0,0.0,510.0,2.0,0.0
7626,67.0,0.0,510.0,12.0,0.0
7627,75.0,512.0,510.0,5.0,0.0
7628,75.0,0.0,510.0,3.0,0.0
7629,72.0,0.0,510.0,11.0,0.0
7630,67.0,0.0,510.0,6.0,0.0
7631,75.0,0.0,510.0,10.0,0.0
7632,69.0,0.0,510.0,2.0,0.0
7633,72.0,0.0,15.0,3.0,0.0
7634,69.0,102.0,510.0,11.0,0.0
7635,54.0,0.0,600.0,7.0,0.0
7636,63.0,0.0,510.0,6.0,0.0
7637,72.0,0.0,510.0,5.0,0.0
7638,72.0,0.0,15.0,2.0,0.0
7639,72.0,0.0,510.0,10.0,0.0
7640,63.0,0.0,510.0,12.0,0.0
7641,54.0,410.0,600.0,13.0,0.0
7642,69.0,0.0,510.0,3.0,0.0
7643,65.0,0.0,510.0,6.0,0.0
7644,74.0,0.0,510.0,2.0,0.0
7645,70.0,0.0,510.0,2.0,0.0
7646,74.0,0.0,510.0,5.0,0.0
7647,74.0,512.0,510.0,3.0,0.0
7648,74.0,0.0,510.0,10.0,0.0
7649,70.0,0.0,510.0,11.0,0.0
7650,65.0,0.0,510.0,12.0,0.0
7651,51.0,0.0,4110.0,8.0,0.0
7652,55.0,0.0,510.0,7.0,0.0
7653,62.0,0.0,600.0,6.0,0.0
7654,51.0,0.0,4110.0,4.0,0.0
7655,67.0,0.0,600.0,11.0,0.0
7656,67.0,102.0,510.0,2.0,0.0
7657,70.0,0.0,15.0,3.0,0.0
7658,55.0,0.0,510.0,13.0,0.0
7659,62.0,0.0,600.0,12.0,0.0
7660,67.0,0.0,600.0,3.0,0.0
7661,70.0,410.0,600.0,2.0,0.0
7662,51.0,0.0,4110.0,15.0,0.0
7663,70.0,0.0,600.0,10.0,0.0
7664,70.0,0.0,600.0,5.0,0.0
7665,69.0,0.0,510.0,2.0,0.0
7666,57.0,512.0,510.0,7.0,0.0
7667,57.0,0.0,510.0,13.0,0.0
7668,70.0,0.0,600.0,10.0,0.0
7669,53.0,102.0,510.0,13.0,0.0
7670,62.0,0.0,600.0,12.0,0.0
7671,67.0,410.0,600.0,11.0,0.0
7672,65.0,0.0,510.0,2.0,0.0
7673,70.0,0.0,600.0,2.0,0.0
7674,62.0,0.0,600.0,6.0,0.0
7675,70.0,0.0,600.0,3.0,0.0
7676,67.0,0.0,600.0,3.0,0.0
7677,53.0,0.0,510.0,7.0,0.0
7678,70.0,0.0,600.0,5.0,0.0
7679,55.0,0.0,510.0,7.0,0.0
7680,67.0,512.0,510.0,2.0,0.0
7681,55.0,0.0,510.0,13.0,0.0
7682,72.0,512.0,2040.0,10.0,0.0
7683,65.0,0.0,600.0,3.0,0.0
7684,72.0,410.0,600.0,3.0,0.0
7685,72.0,0.0,600.0,5.0,0.0
7686,65.0,0.0,4110.0,11.0,0.0
7687,57.0,0.0,510.0,13.0,0.0
7688,72.0,0.0,600.0,2.0,0.0
7689,60.0,0.0,2040.0,12.0,0.0
7690,69.0,102.0,510.0,2.0,0.0
7691,60.0,0.0,600.0,6.0,0.0
7692,57.0,0.0,510.0,7.0,0.0
7693,58.0,512.0,510.0,13.0,0.0
7694,70.0,0.0,510.0,2.0,0.0
7695,58.0,0.0,510.0,7.0,0.0
7696,55.0,0.0,510.0,7.0,0.0
7697,67.0,102.0,510.0,2.0,0.0
7698,60.0,0.0,600.0,6.0,0.0
7699,72.0,0.0,600.0,3.0,0.0
7700,65.0,0.0,600.0,3.0,0.0
7701,72.0,410.0,600.0,2.0,0.0
7702,72.0,0.0,600.0,5.0,0.0
7703,55.0,0.0,510.0,13.0,0.0
7704,69.0,0.0,510.0,2.0,0.0
7705,57.0,0.0,510.0,7.0,0.0
7706,57.0,0.0,510.0,13.0,0.0
7707,50.0,0.0,2040.0,4.0,0.0
7708,50.0,0.0,2040.0,15.0,0.0
7709,59.0,0.0,510.0,7.0,0.0
7710,53.0,0.0,600.0,6.0,0.0
7711,59.0,0.0,510.0,13.0,0.0
7712,53.0,0.0,2040.0,12.0,0.0
7713,74.0,410.0,600.0,2.0,0.0
7714,71.0,102.0,510.0,2.0,0.0
7715,74.0,0.0,600.0,3.0,0.0
7716,77.0,0.0,600.0,3.0,0.0
7717,74.0,512.0,2040.0,10.0,0.0
7718,50.0,0.0,2040.0,8.0,0.0
7719,74.0,0.0,600.0,5.0,0.0
7720,60.0,512.0,510.0,13.0,0.0
7721,60.0,0.0,510.0,7.0,0.0
7722,72.0,0.0,510.0,2.0,0.0
7723,69.0,0.0,510.0,2.0,0.0
7724,74.0,0.0,600.0,2.0,0.0
7725,74.0,0.0,600.0,5.0,0.0
7726,53.0,0.0,600.0,6.0,0.0
7727,77.0,410.0,600.0,3.0,0.0
7728,74.0,0.0,600.0,3.0,0.0
7729,57.0,102.0,510.0,7.0,0.0
7730,57.0,0.0,510.0,13.0,0.0
7731,59.0,0.0,510.0,13.0,0.0
7732,71.0,0.0,510.0,2.0,0.0
7733,59.0,0.0,510.0,7.0,0.0
7734,72.0,102.0,510.0,2.0,0.0
7735,75.0,0.0,510.0,3.0,0.0
7736,75.0,410.0,600.0,2.0,0.0
7737,48.0,0.0,600.0,8.0,0.0
7738,75.0,0.0,600.0,10.0,0.0
7739,60.0,0.0,510.0,13.0,0.0
7740,55.0,512.0,2040.0,12.0,0.0
7741,63.0,0.0,2040.0,11.0,0.0
7742,55.0,0.0,600.0,6.0,0.0
7743,48.0,0.0,600.0,4.0,0.0
7744,75.0,0.0,600.0,5.0,0.0
7745,60.0,0.0,510.0,7.0,0.0
7746,48.0,0.0,600.0,15.0,0.0
7747,62.0,0.0,510.0,13.0,0.0
7748,74.0,0.0,510.0,2.0,0.0
7749,62.0,0.0,510.0,7.0,0.0
7750,77.0,512.0,510.0,3.0,0.0
7751,63.0,0.0,600.0,5.0,0.0
7752,67.0,0.0,600.0,6.0,0.0
7753,58.0,0.0,510.0,7.0,0.0
7754,36.0,0.0,600.0,4.0,0.0
7755,58.0,0.0,510.0,13.0,0.0
7756,36.0,0.0,600.0,8.0,0.0
7757,70.0,102.0,510.0,2.0,0.0
7758,63.0,0.0,600.0,2.0,0.0
7759,36.0,0.0,600.0,15.0,0.0
7760,63.0,0.0,600.0,3.0,0.0
7761,74.0,0.0,510.0,3.0,0.0
7762,63.0,410.0,600.0,10.0,0.0
7763,60.0,0.0,510.0,13.0,0.0
7764,60.0,0.0,510.0,7.0,0.0
7765,72.0,0.0,510.0,2.0,0.0
7766,72.0,0.0,600.0,3.0,0.0
7767,75.0,0.0,15.0,3.0,0.0
7768,75.0,410.0,600.0,2.0,0.0
7769,57.0,0.0,510.0,7.0,0.0
7770,57.0,0.0,510.0,13.0,0.0
7771,48.0,0.0,510.0,14.0,0.0
7772,48.0,0.0,510.0,8.0,0.0
7773,48.0,0.0,510.0,15.0,0.0
7774,75.0,0.0,4110.0,10.0,0.0
7775,72.0,0.0,4110.0,11.0,0.0
7776,48.0,102.0,510.0,4.0,0.0
7777,69.0,0.0,510.0,2.0,0.0
7778,72.0,0.0,600.0,6.0,0.0
7779,75.0,0.0,600.0,5.0,0.0
7780,50.0,0.0,510.0,15.0,0.0
7781,50.0,512.0,510.0,8.0,0.0
7782,50.0,0.0,510.0,14.0,0.0
7783,58.0,0.0,510.0,7.0,0.0
7784,58.0,0.0,510.0,13.0,0.0
7785,70.0,0.0,510.0,2.0,0.0
7786,50.0,0.0,510.0,4.0,0.0
7787,46.0,0.0,510.0,15.0,0.0
7788,67.0,102.0,510.0,2.0,0.0
7789,55.0,0.0,510.0,13.0,0.0
7790,46.0,0.0,510.0,4.0,0.0
7791,75.0,0.0,600.0,2.0,0.0
7792,75.0,410.0,600.0,5.0,0.0
7793,46.0,0.0,510.0,14.0,0.0
7794,55.0,0.0,510.0,7.0,0.0
7795,72.0,0.0,600.0,6.0,0.0
7796,72.0,0.0,600.0,3.0,0.0
7797,75.0,0.0,600.0,3.0,0.0
7798,46.0,0.0,510.0,8.0,0.0
7799,48.0,512.0,510.0,8.0,0.0
7800,57.0,0.0,510.0,7.0,0.0
7801,48.0,0.0,510.0,14.0,0.0
7802,48.0,0.0,510.0,4.0,0.0
7803,57.0,0.0,510.0,13.0,0.0
7804,69.0,0.0,510.0,2.0,0.0
7805,48.0,0.0,510.0,15.0,0.0
7806,53.0,102.0,510.0,7.0,0.0
7807,50.0,0.0,510.0,14.0,0.0
7808,50.0,0.0,510.0,15.0,0.0
7809,65.0,0.0,510.0,2.0,0.0
7810,75.0,410.0,600.0,2.0,0.0
7811,53.0,0.0,510.0,13.0,0.0
7812,50.0,0.0,510.0,4.0,0.0
7813,72.0,0.0,600.0,6.0,0.0
7814,75.0,0.0,600.0,5.0,0.0
7815,50.0,0.0,510.0,8.0,0.0
7816,72.0,0.0,600.0,3.0,0.0
7817,75.0,0.0,600.0,3.0,0.0
7818,51.0,512.0,510.0,4.0,0.0
7819,51.0,0.0,510.0,14.0,0.0
7820,55.0,0.0,510.0,7.0,0.0
7821,51.0,0.0,510.0,15.0,0.0
7822,67.0,0.0,510.0,2.0,0.0
7823,51.0,0.0,510.0,8.0,0.0
7824,55.0,0.0,510.0,13.0,0.0
7825,51.0,0.0,510.0,7.0,0.0
7826,75.0,0.0,600.0,5.0,0.0
7827,48.0,0.0,510.0,14.0,0.0
7828,48.0,0.0,510.0,8.0,0.0
7829,75.0,0.0,600.0,3.0,0.0
7830,63.0,102.0,510.0,2.0,0.0
7831,72.0,410.0,600.0,3.0,0.0
7832,72.0,0.0,600.0,6.0,0.0
7833,51.0,0.0,510.0,13.0,0.0
7834,48.0,0.0,510.0,4.0,0.0
7835,48.0,0.0,510.0,15.0,0.0
7836,75.0,0.0,600.0,2.0,0.0
7837,50.0,512.0,510.0,14.0,0.0
7838,50.0,0.0,510.0,4.0,0.0
7839,65.0,0.0,510.0,2.0,0.0
7840,50.0,0.0,510.0,15.0,0.0
7841,53.0,0.0,510.0,7.0,0.0
7842,53.0,0.0,510.0,13.0,0.0
7843,50.0,0.0,510.0,8.0,0.0
7844,70.0,0.0,600.0,6.0,0.0
7845,70.0,0.0,2670.0,11.0,0.0
7846,51.0,0.0,510.0,4.0,0.0
7847,70.0,0.0,600.0,3.0,0.0
7848,55.0,0.0,510.0,13.0,0.0
7849,74.0,0.0,600.0,3.0,0.0
7850,74.0,0.0,600.0,2.0,0.0
7851,67.0,0.0,510.0,2.0,0.0
7852,51.0,102.0,510.0,15.0,0.0
7853,74.0,0.0,2040.0,10.0,0.0
7854,51.0,0.0,510.0,8.0,0.0
7855,51.0,0.0,510.0,14.0,0.0
7856,55.0,0.0,510.0,7.0,0.0
7857,74.0,410.0,600.0,5.0,0.0
7858,69.0,0.0,510.0,2.0,0.0
7859,53.0,0.0,510.0,4.0,0.0
7860,57.0,0.0,510.0,7.0,0.0
7861,57.0,0.0,510.0,13.0,0.0
7862,53.0,0.0,510.0,8.0,0.0
7863,53.0,512.0,510.0,15.0,0.0
7864,53.0,0.0,510.0,14.0,0.0
7865,50.0,0.0,510.0,8.0,0.0
7866,53.0,0.0,510.0,7.0,0.0
7867,74.0,410.0,600.0,5.0,0.0
7868,53.0,0.0,510.0,13.0,0.0
7869,65.0,0.0,510.0,2.0,0.0
7870,74.0,0.0,600.0,2.0,0.0
7871,50.0,102.0,510.0,15.0,0.0
7872,70.0,0.0,600.0,3.0,0.0
7873,74.0,0.0,600.0,3.0,0.0
7874,50.0,0.0,510.0,14.0,0.0
7875,70.0,0.0,600.0,6.0,0.0
7876,50.0,0.0,510.0,4.0,0.0
7877,51.0,0.0,510.0,14.0,0.0
7878,51.0,0.0,510.0,4.0,0.0
7879,55.0,0.0,510.0,13.0,0.0
7880,51.0,0.0,510.0,15.0,0.0
7881,67.0,0.0,510.0,2.0,0.0
7882,51.0,0.0,510.0,8.0,0.0
7883,55.0,512.0,510.0,7.0,0.0
7884,72.0,0.0,600.0,3.0,0.0
7885,57.0,0.0,510.0,13.0,0.0
7886,53.0,0.0,600.0,8.0,0.0
7887,70.0,0.0,600.0,3.0,0.0
7888,72.0,0.0,600.0,5.0,0.0
7889,69.0,0.0,510.0,2.0,0.0
7890,57.0,102.0,510.0,7.0,0.0
7891,72.0,0.0,600.0,2.0,0.0
7892,70.0,0.0,600.0,6.0,0.0
7893,53.0,0.0,600.0,15.0,0.0
7894,53.0,410.0,600.0,14.0,0.0
7895,53.0,0.0,600.0,4.0,0.0
7896,72.0,0.0,600.0,10.0,0.0
7897,58.0,0.0,510.0,13.0,0.0
7898,70.0,512.0,510.0,2.0,0.0
7899,58.0,0.0,510.0,7.0,0.0
7900,60.0,0.0,510.0,7.0,0.0
7901,69.0,0.0,600.0,6.0,0.0
7902,41.0,0.0,600.0,14.0,0.0
7903,41.0,0.0,600.0,15.0,0.0
7904,41.0,410.0,600.0,4.0,0.0
7905,69.0,0.0,510.0,11.0,0.0
7906,65.0,0.0,600.0,10.0,0.0
7907,69.0,102.0,510.0,3.0,0.0
7908,60.0,0.0,510.0,13.0,0.0
7909,65.0,0.0,600.0,3.0,0.0
7910,41.0,0.0,600.0,8.0,0.0
7911,65.0,0.0,600.0,2.0,0.0
7912,72.0,0.0,510.0,2.0,0.0
7913,65.0,0.0,600.0,5.0,0.0
7914,58.0,0.0,510.0,13.0,0.0
7915,67.0,0.0,510.0,3.0,0.0
7916,67.0,0.0,510.0,11.0,0.0
7917,70.0,512.0,510.0,2.0,0.0
7918,58.0,0.0,510.0,7.0,0.0
7919,57.0,0.0,510.0,13.0,0.0
7920,72.0,0.0,510.0,0.0,0.0
7921,65.0,410.0,600.0,0.0,0.0
7922,77.0,0.0,600.0,5.0,0.0
7923,65.0,102.0,510.0,11.0,0.0
7924,57.0,0.0,510.0,7.0,0.0
7925,77.0,0.0,4110.0,10.0,0.0
7926,65.0,0.0,510.0,3.0,0.0
7927,60.0,0.0,510.0,12.0,0.0
7928,69.0,0.0,510.0,2.0,0.0
7929,60.0,0.0,510.0,6.0,0.0
7930,77.0,0.0,600.0,2.0,0.0
7931,77.0,0.0,600.0,3.0,0.0
7932,62.0,0.0,510.0,12.0,0.0
7933,58.0,0.0,510.0,13.0,0.0
7934,70.0,0.0,510.0,2.0,0.0
7935,58.0,0.0,510.0,7.0,0.0
7936,62.0,512.0,510.0,6.0,0.0
7937,67.0,0.0,510.0,11.0,0.0
7938,74.0,0.0,510.0,0.0,0.0
7939,67.0,0.0,510.0,3.0,0.0
7940,67.0,0.0,510.0,2.0,0.0
7941,63.0,0.0,510.0,11.0,0.0
7942,55.0,0.0,510.0,13.0,0.0
7943,65.0,0.0,600.0,0.0,0.0
7944,70.0,0.0,510.0,0.0,0.0
7945,55.0,0.0,510.0,7.0,0.0
7946,58.0,0.0,510.0,6.0,0.0
7947,77.0,410.0,600.0,5.0,0.0
7948,63.0,0.0,510.0,3.0,0.0
7949,77.0,0.0,600.0,3.0,0.0
7950,77.0,0.0,600.0,2.0,0.0
7951,53.0,0.0,510.0,4.0,0.0
7952,53.0,0.0,510.0,14.0,0.0
7953,53.0,0.0,510.0,15.0,0.0
7954,58.0,0.0,510.0,12.0,0.0
7955,53.0,102.0,510.0,8.0,0.0
7956,51.0,0.0,510.0,15.0,0.0
7957,57.0,0.0,510.0,7.0,0.0
7958,51.0,0.0,510.0,14.0,0.0
7959,51.0,0.0,510.0,4.0,0.0
7960,57.0,512.0,510.0,13.0,0.0
7961,60.0,0.0,510.0,6.0,0.0
7962,65.0,0.0,510.0,11.0,0.0
7963,65.0,0.0,510.0,3.0,0.0
7964,51.0,0.0,510.0,8.0,0.0
7965,60.0,0.0,510.0,12.0,0.0
7966,69.0,0.0,510.0,2.0,0.0
7967,72.0,0.0,510.0,0.0,0.0
7968,62.0,0.0,510.0,6.0,0.0
7969,67.0,102.0,510.0,3.0,0.0
7970,77.0,0.0,600.0,3.0,0.0
7971,77.0,0.0,600.0,2.0,0.0
7972,50.0,0.0,600.0,4.0,0.0
7973,62.0,0.0,510.0,12.0,0.0
7974,58.0,0.0,510.0,7.0,0.0
7975,50.0,0.0,600.0,15.0,0.0
7976,58.0,0.0,510.0,13.0,0.0
7977,74.0,0.0,510.0,0.0,0.0
7978,70.0,0.0,510.0,0.0,0.0
7979,50.0,0.0,600.0,8.0,0.0
7980,77.0,410.0,600.0,5.0,0.0
7981,50.0,0.0,1020.0,14.0,0.0
7982,67.0,0.0,510.0,11.0,0.0
7983,70.0,0.0,510.0,2.0,0.0
7984,72.0,0.0,510.0,2.0,0.0
7985,69.0,0.0,510.0,11.0,0.0
7986,60.0,0.0,510.0,13.0,0.0
7987,75.0,0.0,510.0,0.0,0.0
7988,69.0,0.0,510.0,3.0,0.0
7989,63.0,512.0,510.0,6.0,0.0
7990,63.0,0.0,510.0,12.0,0.0
7991,60.0,0.0,510.0,7.0,0.0
7992,51.0,102.0,510.0,4.0,0.0
7993,65.0,0.0,510.0,3.0,0.0
7994,77.0,0.0,600.0,3.0,0.0
7995,51.0,0.0,510.0,15.0,0.0
7996,57.0,0.0,510.0,13.0,0.0
7997,72.0,0.0,15.0,0.0,0.0
7998,69.0,0.0,510.0,2.0,0.0
7999,77.0,0.0,600.0,2.0,0.0
8000,69.0,0.0,510.0,0.0,0.0
8001,60.0,0.0,510.0,6.0,0.0
8002,65.0,0.0,510.0,11.0,0.0
8003,60.0,0.0,510.0,12.0,0.0
8004,77.0,410.0,600.0,5.0,0.0
8005,51.0,0.0,510.0,14.0,0.0
8006,57.0,0.0,510.0,7.0,0.0
8007,51.0,0.0,510.0,8.0,0.0
8008,67.0,0.0,510.0,11.0,0.0
8009,50.0,0.0,510.0,14.0,0.0
8010,74.0,0.0,510.0,0.0,0.0
8011,50.0,0.0,510.0,8.0,0.0
8012,62.0,0.0,510.0,12.0,0.0
8013,58.0,0.0,510.0,13.0,0.0
8014,70.0,512.0,510.0,0.0,0.0
8015,70.0,0.0,510.0,2.0,0.0
8016,62.0,0.0,510.0,6.0,0.0
8017,50.0,0.0,510.0,15.0,0.0
8018,58.0,0.0,510.0,7.0,0.0
8019,67.0,0.0,510.0,3.0,0.0
8020,50.0,0.0,510.0,4.0,0.0
8021,48.0,0.0,600.0,15.0,0.0
8022,63.0,0.0,510.0,12.0,0.0
8023,48.0,0.0,600.0,8.0,0.0
8024,60.0,102.0,510.0,7.0,0.0
8025,69.0,0.0,510.0,3.0,0.0
8026,69.0,0.0,510.0,11.0,0.0
8027,75.0,0.0,600.0,2.0,0.0
8028,75.0,0.0,600.0,3.0,0.0
8029,48.0,410.0,600.0,4.0,0.0
8030,72.0,0.0,510.0,2.0,0.0
8031,75.0,0.0,2040.0,10.0,0.0
8032,48.0,0.0,600.0,14.0,0.0
8033,75.0,0.0,600.0,5.0,0.0
8034,60.0,0.0,510.0,13.0,0.0
8035,63.0,0.0,510.0,6.0,0.0
8036,75.0,0.0,510.0,0.0,0.0
8037,72.0,0.0,510.0,0.0,0.0
8038,70.0,0.0,510.0,11.0,0.0
8039,74.0,0.0,510.0,0.0,0.0
8040,65.0,512.0,510.0,6.0,0.0
8041,62.0,0.0,510.0,7.0,0.0
8042,62.0,0.0,510.0,13.0,0.0
8043,65.0,0.0,510.0,12.0,0.0
8044,77.0,0.0,510.0,0.0,0.0
8045,74.0,0.0,510.0,2.0,0.0
8046,70.0,0.0,510.0,3.0,0.0
8047,75.0,0.0,600.0,2.0,0.0
8048,58.0,0.0,510.0,7.0,0.0
8049,50.0,102.0,510.0,4.0,0.0
8050,58.0,0.0,510.0,13.0,0.0
8051,70.0,0.0,510.0,2.0,0.0
8052,50.0,0.0,510.0,14.0,0.0
8053,75.0,410.0,600.0,5.0,0.0
8054,74.0,0.0,510.0,0.0,0.0
8055,67.0,0.0,510.0,3.0,0.0
8056,62.0,0.0,510.0,12.0,0.0
8057,50.0,0.0,510.0,15.0,0.0
8058,75.0,0.0,600.0,3.0,0.0
8059,62.0,0.0,510.0,6.0,0.0
8060,70.0,0.0,510.0,0.0,0.0
8061,67.0,0.0,510.0,11.0,0.0
8062,50.0,0.0,510.0,8.0,0.0
8063,75.0,0.0,510.0,0.0,0.0
8064,69.0,0.0,510.0,3.0,0.0
8065,72.0,0.0,510.0,0.0,0.0
8066,48.0,0.0,510.0,15.0,0.0
8067,60.0,0.0,510.0,7.0,0.0
8068,63.0,512.0,510.0,6.0,0.0
8069,48.0,0.0,510.0,14.0,0.0
8070,69.0,0.0,510.0,11.0,0.0
8071,63.0,0.0,510.0,12.0,0.0
8072,60.0,0.0,510.0,13.0,0.0
8073,48.0,0.0,510.0,8.0,0.0
8074,72.0,0.0,510.0,2.0,0.0
8075,48.0,0.0,510.0,4.0,0.0
8076,46.0,0.0,510.0,4.0,0.0
8077,62.0,0.0,510.0,7.0,0.0
8078,46.0,0.0,510.0,15.0,0.0
8079,74.0,0.0,600.0,3.0,0.0
8080,74.0,0.0,600.0,2.0,0.0
8081,65.0,0.0,600.0,12.0,0.0
8082,46.0,0.0,510.0,14.0,0.0
8083,70.0,0.0,600.0,11.0,0.0
8084,70.0,0.0,600.0,3.0,0.0
8085,46.0,102.0,510.0,8.0,0.0
8086,62.0,0.0,2040.0,13.0,0.0
8087,77.0,0.0,12900.0,0.0,0.0
8088,74.0,0.0,600.0,5.0,0.0
8089,74.0,0.0,4710.0,0.0,0.0
8090,65.0,0.0,600.0,6.0,0.0
8091,74.0,0.0,600.0,10.0,0.0
8092,45.0,0.0,510.0,15.0,0.0
8093,45.0,0.0,510.0,4.0,0.0
8094,45.0,0.0,510.0,14.0,0.0
8095,60.0,512.0,510.0,7.0,0.0
8096,45.0,0.0,510.0,8.0,0.0
8097,70.0,0.0,600.0,5.0,0.0
8098,70.0,0.0,600.0,10.0,0.0
8099,46.0,0.0,510.0,14.0,0.0
8100,46.0,0.0,510.0,8.0,0.0
8101,62.0,0.0,600.0,12.0,0.0
8102,65.0,0.0,600.0,3.0,0.0
8103,46.0,0.0,510.0,15.0,0.0
8104,70.0,0.0,600.0,2.0,0.0
8105,65.0,0.0,600.0,11.0,0.0
8106,62.0,0.0,600.0,6.0,0.0
8107,70.0,0.0,600.0,3.0,0.0
8108,46.0,0.0,510.0,4.0,0.0
8109,62.0,102.0,510.0,7.0,0.0
8110,48.0,0.0,510.0,4.0,0.0
8111,48.0,0.0,510.0,8.0,0.0
8112,48.0,512.0,510.0,14.0,0.0
8113,48.0,0.0,510.0,15.0,0.0
8114,63.0,0.0,510.0,7.0,0.0
8115,65.0,0.0,510.0,10.0,0.0
8116,70.0,0.0,600.0,6.0,0.0
8117,70.0,0.0,600.0,0.0,0.0
8118,65.0,0.0,600.0,7.0,0.0
8119,65.0,0.0,510.0,5.0,0.0
8120,50.0,0.0,510.0,4.0,0.0
8121,46.0,410.0,600.0,1.0,0.0
8122,62.0,0.0,600.0,13.0,0.0
8123,50.0,0.0,510.0,15.0,0.0
8124,65.0,0.0,510.0,2.0,0.0
8125,65.0,102.0,510.0,3.0,0.0
8126,70.0,0.0,600.0,3.0,0.0
8127,70.0,0.0,2040.0,11.0,0.0
8128,50.0,0.0,510.0,14.0,0.0
8129,50.0,0.0,510.0,8.0,0.0
8130,67.0,0.0,510.0,3.0,0.0
8131,51.0,0.0,510.0,8.0,0.0
8132,67.0,0.0,510.0,2.0,0.0
8133,51.0,0.0,510.0,14.0,0.0
8134,67.0,0.0,510.0,10.0,0.0
8135,51.0,0.0,510.0,4.0,0.0
8136,51.0,0.0,510.0,15.0,0.0
8137,67.0,512.0,510.0,5.0,0.0
8138,62.0,0.0,600.0,13.0,0.0
8139,70.0,410.0,600.0,3.0,0.0
8140,70.0,0.0,600.0,6.0,0.0
8141,48.0,0.0,510.0,14.0,0.0
8142,48.0,0.0,510.0,8.0,0.0
8143,48.0,0.0,510.0,4.0,0.0
8144,63.0,0.0,510.0,7.0,0.0
8145,48.0,102.0,510.0,15.0,0.0
8146,63.0,0.0,510.0,3.0,0.0
8147,63.0,0.0,510.0,10.0,0.0
8148,63.0,0.0,510.0,5.0,0.0
8149,63.0,0.0,510.0,2.0,0.0
8150,62.0,0.0,510.0,7.0,0.0
8151,50.0,0.0,510.0,14.0,0.0
8152,50.0,0.0,510.0,4.0,0.0
8153,50.0,0.0,510.0,8.0,0.0
8154,50.0,512.0,510.0,15.0,0.0
8155,65.0,0.0,510.0,5.0,0.0
8156,65.0,0.0,510.0,10.0,0.0
8157,65.0,0.0,510.0,2.0,0.0
8158,65.0,0.0,510.0,3.0,0.0
8159,67.0,0.0,510.0,2.0,0.0
8160,51.0,0.0,510.0,8.0,0.0
8161,67.0,0.0,510.0,10.0,0.0
8162,58.0,0.0,600.0,0.0,0.0
8163,70.0,410.0,600.0,6.0,0.0
8164,51.0,0.0,510.0,14.0,0.0
8165,70.0,0.0,2040.0,11.0,0.0
8166,67.0,0.0,510.0,5.0,0.0
8167,67.0,0.0,510.0,3.0,0.0
8168,46.0,0.0,600.0,1.0,0.0
8169,60.0,0.0,600.0,7.0,0.0
8170,51.0,102.0,510.0,4.0,0.0
8171,51.0,0.0,510.0,15.0,0.0
8172,70.0,0.0,600.0,3.0,0.0
8173,62.0,0.0,2040.0,13.0,0.0
8174,69.0,0.0,510.0,2.0,0.0
8175,53.0,0.0,510.0,14.0,0.0
8176,53.0,0.0,510.0,8.0,0.0
8177,53.0,0.0,510.0,15.0,0.0
8178,69.0,0.0,510.0,3.0,0.0
8179,53.0,0.0,510.0,4.0,0.0
8180,69.0,0.0,510.0,10.0,0.0
8181,69.0,0.0,510.0,5.0,0.0
8182,50.0,0.0,510.0,8.0,0.0
8183,65.0,0.0,510.0,10.0,0.0
8184,50.0,0.0,510.0,14.0,0.0
8185,65.0,0.0,510.0,3.0,0.0
8186,70.0,0.0,600.0,3.0,0.0
8187,50.0,0.0,510.0,15.0,0.0
8188,65.0,0.0,510.0,2.0,0.0
8189,50.0,0.0,510.0,4.0,0.0
8190,60.0,0.0,600.0,7.0,0.0
8191,75.0,102.0,510.0,0.0,0.0
8192,65.0,0.0,510.0,5.0,0.0
8193,70.0,410.0,600.0,6.0,0.0
8194,51.0,0.0,510.0,14.0,0.0
8195,67.0,0.0,510.0,5.0,0.0
8196,51.0,0.0,510.0,8.0,0.0
8197,51.0,0.0,510.0,15.0,0.0
8198,67.0,0.0,510.0,10.0,0.0
8199,67.0,512.0,510.0,3.0,0.0
8200,51.0,0.0,510.0,4.0,0.0
8201,67.0,0.0,510.0,2.0,0.0
8202,74.0,0.0,510.0,0.0,0.0
8203,53.0,0.0,510.0,8.0,0.0
8204,72.0,0.0,600.0,0.0,0.0
8205,60.0,0.0,600.0,7.0,0.0
8206,69.0,0.0,510.0,6.0,0.0
8207,53.0,0.0,510.0,14.0,0.0
8208,69.0,0.0,510.0,5.0,0.0
8209,41.0,0.0,600.0,1.0,0.0
8210,69.0,0.0,510.0,2.0,0.0
8211,53.0,102.0,510.0,15.0,0.0
8212,65.0,0.0,600.0,0.0,0.0
8213,69.0,0.0,510.0,10.0,0.0
8214,53.0,0.0,510.0,4.0,0.0
8215,60.0,0.0,2040.0,13.0,0.0
8216,69.0,410.0,600.0,11.0,0.0
8217,69.0,0.0,510.0,3.0,0.0
8218,70.0,0.0,510.0,5.0,0.0
8219,55.0,512.0,510.0,8.0,0.0
8220,55.0,0.0,510.0,4.0,0.0
8221,55.0,0.0,510.0,14.0,0.0
8222,70.0,0.0,510.0,3.0,0.0
8223,55.0,0.0,510.0,15.0,0.0
8224,70.0,0.0,510.0,2.0,0.0
8225,70.0,0.0,510.0,10.0,0.0
8226,67.0,0.0,510.0,6.0,0.0
8227,51.0,0.0,510.0,15.0,0.0
8228,74.0,0.0,510.0,0.0,0.0
8229,65.0,0.0,510.0,6.0,0.0
8230,67.0,102.0,510.0,5.0,0.0
8231,67.0,0.0,510.0,10.0,0.0
8232,51.0,0.0,510.0,14.0,0.0
8233,67.0,0.0,15.0,3.0,0.0
8234,67.0,0.0,510.0,2.0,0.0
8235,51.0,0.0,510.0,4.0,0.0
8236,65.0,0.0,510.0,3.0,0.0
8237,60.0,410.0,600.0,7.0,0.0
8238,65.0,0.0,600.0,11.0,0.0
8239,51.0,0.0,510.0,8.0,0.0
8240,53.0,0.0,510.0,14.0,0.0
8241,63.0,0.0,510.0,6.0,0.0
8242,53.0,0.0,510.0,15.0,0.0
8243,69.0,0.0,510.0,10.0,0.0
8244,69.0,0.0,510.0,2.0,0.0
8245,69.0,0.0,510.0,3.0,0.0
8246,72.0,0.0,510.0,0.0,0.0
8247,53.0,0.0,510.0,8.0,0.0
8248,63.0,0.0,510.0,3.0,0.0
8249,53.0,0.0,510.0,4.0,0.0
8250,69.0,512.0,510.0,5.0,0.0
8251,58.0,0.0,2040.0,13.0,0.0
8252,55.0,0.0,510.0,14.0,0.0
8253,70.0,102.0,510.0,10.0,0.0
8254,55.0,0.0,510.0,4.0,0.0
8255,46.0,0.0,600.0,1.0,0.0
8256,70.0,0.0,510.0,3.0,0.0
8257,62.0,0.0,510.0,3.0,0.0
8258,58.0,410.0,600.0,7.0,0.0
8259,55.0,0.0,510.0,15.0,0.0
8260,55.0,0.0,510.0,8.0,0.0
8261,70.0,0.0,510.0,5.0,0.0
8262,62.0,0.0,600.0,0.0,0.0
8263,65.0,0.0,15.0,12.0,0.0
8264,62.0,512.0,2040.0,11.0,0.0
8265,62.0,0.0,510.0,6.0,0.0
8266,70.0,0.0,600.0,0.0,0.0
8267,70.0,0.0,510.0,2.0,0.0
8268,57.0,0.0,510.0,8.0,0.0
8269,72.0,0.0,510.0,5.0,0.0
8270,57.0,0.0,510.0,14.0,0.0
8271,57.0,0.0,510.0,4.0,0.0
8272,72.0,0.0,510.0,3.0,0.0
8273,65.0,0.0,510.0,3.0,0.0
8274,65.0,512.0,510.0,6.0,0.0
8275,72.0,0.0,510.0,2.0,0.0
8276,72.0,0.0,510.0,10.0,0.0
8277,57.0,0.0,510.0,15.0,0.0
8278,69.0,0.0,510.0,3.0,0.0
8279,69.0,0.0,510.0,2.0,0.0
8280,69.0,0.0,510.0,5.0,0.0
8281,58.0,410.0,600.0,7.0,0.0
8282,53.0,0.0,510.0,8.0,0.0
8283,53.0,0.0,510.0,4.0,0.0
8284,53.0,0.0,510.0,14.0,0.0
8285,63.0,0.0,510.0,3.0,0.0
8286,53.0,0.0,510.0,15.0,0.0
8287,69.0,0.0,510.0,10.0,0.0
8288,63.0,0.0,510.0,6.0,0.0
8289,55.0,0.0,510.0,14.0,0.0
8290,70.0,0.0,510.0,3.0,0.0
8291,55.0,0.0,510.0,4.0,0.0
8292,55.0,0.0,510.0,8.0,0.0
8293,62.0,0.0,510.0,6.0,0.0
8294,70.0,0.0,510.0,10.0,0.0
8295,55.0,0.0,510.0,15.0,0.0
8296,70.0,0.0,510.0,2.0,0.0
8297,70.0,0.0,510.0,5.0,0.0
8298,62.0,0.0,510.0,3.0,0.0
8299,72.0,0.0,510.0,3.0,0.0
8300,57.0,102.0,510.0,15.0,0.0
8301,72.0,0.0,600.0,0.0,0.0
8302,65.0,0.0,600.0,0.0,0.0
8303,60.0,0.0,600.0,3.0,0.0
8304,53.0,410.0,600.0,7.0,0.0
8305,72.0,0.0,510.0,10.0,0.0
8306,53.0,0.0,2670.0,13.0,0.0
8307,60.0,0.0,600.0,6.0,0.0
8308,57.0,0.0,510.0,4.0,0.0
8309,57.0,0.0,510.0,8.0,0.0
8310,41.0,0.0,600.0,1.0,0.0
8311,60.0,0.0,600.0,11.0,0.0
8312,72.0,0.0,510.0,5.0,0.0
8313,57.0,0.0,510.0,14.0,0.0
8314,72.0,0.0,510.0,2.0,0.0
8315,58.0,0.0,510.0,14.0,0.0
8316,74.0,0.0,510.0,3.0,0.0
8317,58.0,512.0,510.0,8.0,0.0
8318,74.0,0.0,510.0,5.0,0.0
8319,58.0,0.0,510.0,15.0,0.0
8320,58.0,0.0,510.0,4.0,0.0
8321,74.0,0.0,510.0,10.0,0.0
8322,74.0,0.0,510.0,2.0,0.0
8323,72.0,0.0,600.0,11.0,0.0
8324,72.0,0.0,600.0,6.0,0.0
8325,55.0,0.0,510.0,8.0,0.0
8326,53.0,0.0,600.0,7.0,0.0
8327,70.0,0.0,510.0,10.0,0.0
8328,55.0,0.0,510.0,4.0,0.0
8329,70.0,0.0,510.0,5.0,0.0
8330,70.0,0.0,510.0,3.0,0.0
8331,55.0,102.0,510.0,15.0,0.0
8332,70.0,0.0,510.0,2.0,0.0
8333,55.0,0.0,510.0,14.0,0.0
8334,57.0,0.0,510.0,8.0,0.0
8335,72.0,614.0,510.0,10.0,0.0
8336,72.0,410.0,90.0,3.0,0.0
8337,57.0,0.0,510.0,14.0,0.0
8338,57.0,0.0,510.0,4.0,0.0
8339,72.0,0.0,510.0,5.0,0.0
8340,57.0,0.0,510.0,15.0,0.0
8341,72.0,0.0,510.0,2.0,0.0
8342,74.0,0.0,600.0,5.0,0.0
8343,58.0,0.0,600.0,14.0,0.0
8344,74.0,0.0,600.0,2.0,0.0
8345,65.0,0.0,600.0,7.0,0.0
8346,70.0,0.0,600.0,3.0,0.0
8347,74.0,0.0,600.0,0.0,0.0
8348,70.0,0.0,600.0,11.0,0.0
8349,58.0,922.0,600.0,8.0,0.0
8350,74.0,0.0,600.0,3.0,0.0
8351,46.0,0.0,600.0,1.0,0.0
8352,58.0,0.0,600.0,15.0,0.0
8353,70.0,0.0,600.0,0.0,0.0
8354,74.0,0.0,600.0,10.0,0.0
8355,70.0,0.0,600.0,6.0,0.0
8356,58.0,0.0,600.0,4.0,0.0
8357,72.0,0.0,510.0,5.0,0.0
8358,72.0,0.0,510.0,6.0,0.0
8359,55.0,0.0,2040.0,13.0,0.0
8360,63.0,0.0,510.0,12.0,0.0
8361,55.0,410.0,600.0,8.0,0.0
8362,63.0,0.0,510.0,7.0,0.0
8363,72.0,0.0,510.0,10.0,0.0
8364,55.0,0.0,600.0,15.0,0.0
8365,72.0,0.0,510.0,11.0,0.0
8366,55.0,0.0,600.0,4.0,0.0
8367,72.0,0.0,510.0,3.0,0.0
8368,55.0,0.0,600.0,14.0,0.0
8369,72.0,0.0,510.0,2.0,0.0
8370,70.0,0.0,510.0,3.0,0.0
8371,74.0,0.0,510.0,6.0,0.0
8372,70.0,0.0,510.0,10.0,0.0
8373,74.0,0.0,510.0,11.0,0.0
8374,70.0,0.0,510.0,2.0,0.0
8375,62.0,0.0,510.0,12.0,0.0
8376,62.0,0.0,510.0,7.0,0.0
8377,70.0,0.0,510.0,5.0,0.0
8378,75.0,0.0,600.0,6.0,0.0
8379,74.0,0.0,510.0,5.0,0.0
8380,51.0,0.0,1020.0,14.0,0.0
8381,67.0,0.0,600.0,7.0,0.0
8382,74.0,0.0,510.0,2.0,0.0
8383,74.0,512.0,15.0,3.0,0.0
8384,51.0,410.0,600.0,15.0,0.0
8385,51.0,0.0,600.0,8.0,0.0
8386,51.0,0.0,600.0,4.0,0.0
8387,74.0,0.0,510.0,10.0,0.0
8388,67.0,0.0,600.0,12.0,0.0
8389,75.0,0.0,600.0,3.0,0.0
8390,75.0,0.0,600.0,11.0,0.0
8391,72.0,512.0,510.0,10.0,0.0
8392,72.0,0.0,510.0,2.0,0.0
8393,72.0,0.0,510.0,5.0,0.0
8394,70.0,0.0,510.0,2.0,0.0
8395,60.0,0.0,600.0,13.0,0.0
8396,72.0,0.0,15.0,3.0,0.0
8397,70.0,0.0,510.0,3.0,0.0
8398,53.0,410.0,600.0,14.0,0.0
8399,70.0,0.0,510.0,5.0,0.0
8400,53.0,0.0,600.0,8.0,0.0
8401,65.0,0.0,1650.0,12.0,0.0
8402,72.0,0.0,600.0,11.0,0.0
8403,65.0,0.0,600.0,7.0,0.0
8404,53.0,0.0,600.0,15.0,0.0
8405,53.0,0.0,600.0,4.0,0.0
8406,72.0,0.0,600.0,6.0,0.0
8407,70.0,0.0,510.0,10.0,0.0
8408,69.0,0.0,510.0,3.0,0.0
8409,69.0,0.0,510.0,10.0,0.0
8410,69.0,614.0,510.0,5.0,0.0
8411,69.0,0.0,510.0,2.0,0.0
8412,46.0,0.0,600.0,4.0,0.0
8413,58.0,0.0,600.0,13.0,0.0
8414,70.0,0.0,600.0,3.0,0.0
8415,70.0,0.0,600.0,2.0,0.0
8416,70.0,0.0,600.0,5.0,0.0
8417,65.0,0.0,600.0,7.0,0.0
8418,74.0,0.0,600.0,11.0,0.0
8419,74.0,0.0,600.0,3.0,0.0
8420,74.0,0.0,600.0,6.0,0.0
8421,46.0,0.0,600.0,15.0,0.0
8422,46.0,0.0,600.0,8.0,0.0
8423,46.0,410.0,600.0,14.0,0.0
8424,70.0,0.0,600.0,10.0,0.0
8425,77.0,512.0,510.0,0.0,0.0
8426,74.0,0.0,510.0,0.0,0.0
8427,65.0,0.0,600.0,3.0,0.0
8428,70.0,0.0,600.0,3.0,0.0
8429,65.0,0.0,600.0,10.0,0.0
8430,65.0,0.0,600.0,2.0,0.0
8431,62.0,0.0,600.0,7.0,0.0
8432,58.0,102.0,510.0,14.0,0.0
8433,70.0,0.0,600.0,6.0,0.0
8434,62.0,0.0,600.0,13.0,0.0
8435,65.0,0.0,600.0,12.0,0.0
8436,70.0,0.0,600.0,11.0,0.0
8437,65.0,0.0,600.0,5.0,0.0
8438,75.0,0.0,510.0,0.0,0.0
8439,72.0,0.0,510.0,0.0,0.0
8440,57.0,512.0,510.0,14.0,0.0
8441,77.0,0.0,510.0,0.0,0.0
8442,74.0,0.0,510.0,0.0,0.0
8443,70.0,0.0,600.0,3.0,0.0
8444,70.0,0.0,600.0,11.0,0.0
8445,43.0,0.0,600.0,4.0,0.0
8446,62.0,0.0,600.0,7.0,0.0
8447,74.0,0.0,600.0,10.0,0.0
8448,74.0,0.0,600.0,2.0,0.0
8449,74.0,0.0,510.0,0.0,0.0
8450,62.0,410.0,600.0,13.0,0.0
8451,70.0,102.0,510.0,0.0,0.0
8452,58.0,0.0,600.0,0.0,0.0
8453,74.0,0.0,600.0,3.0,0.0
8454,67.0,0.0,600.0,12.0,0.0
8455,55.0,0.0,510.0,14.0,0.0
8456,43.0,0.0,600.0,15.0,0.0
8457,46.0,0.0,600.0,1.0,0.0
8458,43.0,0.0,600.0,8.0,0.0
8459,74.0,0.0,600.0,5.0,0.0
8460,70.0,0.0,600.0,6.0,0.0
8461,53.0,512.0,510.0,14.0,0.0
8462,77.0,0.0,510.0,0.0,0.0
8463,74.0,0.0,510.0,0.0,0.0
8464,70.0,0.0,600.0,5.0,0.0
8465,70.0,0.0,600.0,11.0,0.0
8466,70.0,0.0,600.0,2.0,0.0
8467,70.0,0.0,600.0,3.0,0.0
8468,72.0,0.0,510.0,0.0,0.0
8469,75.0,102.0,510.0,0.0,0.0
8470,67.0,0.0,600.0,12.0,0.0
8471,63.0,0.0,600.0,13.0,0.0
8472,67.0,0.0,600.0,7.0,0.0
8473,55.0,0.0,600.0,14.0,0.0
8474,70.0,410.0,600.0,6.0,0.0
8475,70.0,0.0,600.0,10.0,0.0
8476,77.0,0.0,510.0,0.0,0.0
8477,74.0,512.0,510.0,0.0,0.0
8478,65.0,0.0,600.0,7.0,0.0
8479,58.0,0.0,600.0,13.0,0.0
8480,77.0,0.0,600.0,3.0,0.0
8481,70.0,0.0,600.0,3.0,0.0
8482,70.0,0.0,600.0,6.0,0.0
8483,38.0,0.0,600.0,8.0,0.0
8484,77.0,0.0,600.0,5.0,0.0
8485,38.0,0.0,600.0,15.0,0.0
8486,74.0,0.0,510.0,0.0,0.0
8487,70.0,102.0,510.0,0.0,0.0
8488,65.0,0.0,600.0,0.0,0.0
8489,46.0,0.0,600.0,1.0,0.0
8490,50.0,0.0,600.0,14.0,0.0
8491,77.0,0.0,600.0,2.0,0.0
8492,65.0,0.0,600.0,12.0,0.0
8493,38.0,0.0,600.0,4.0,0.0
8494,77.0,410.0,600.0,10.0,0.0
8495,70.0,0.0,600.0,11.0,0.0
8496,77.0,0.0,510.0,0.0,0.0
8497,74.0,256.0,510.0,0.0,0.0
8498,75.0,256.0,270.0,5.0,0.0
8499,70.0,0.0,510.0,10.0,0.0
8500,70.0,0.0,600.0,3.0,0.0
8501,75.0,0.0,270.0,2.0,0.0
8502,51.0,0.0,510.0,14.0,0.0
8503,67.0,102.0,510.0,12.0,0.0
8504,75.0,0.0,270.0,3.0,0.0
8505,58.0,0.0,510.0,13.0,0.0
8506,67.0,0.0,600.0,7.0,0.0
8507,72.0,0.0,510.0,0.0,0.0
8508,75.0,0.0,510.0,0.0,0.0
8509,70.0,154.0,600.0,6.0,0.0
8510,74.0,0.0,270.0,3.0,0.0
8511,74.0,0.0,270.0,2.0,0.0
8512,74.0,0.0,270.0,5.0,0.0
8513,74.0,0.0,510.0,0.0,0.0
8514,58.0,0.0,510.0,13.0,0.0
8515,70.0,0.0,15.0,11.0,0.0
8516,77.0,0.0,510.0,0.0,0.0
8517,72.0,0.0,270.0,2.0,0.0
8518,72.0,0.0,270.0,5.0,0.0
8519,51.0,512.0,510.0,14.0,0.0
8520,72.0,0.0,510.0,10.0,0.0
8521,72.0,256.0,270.0,3.0,0.0
8522,67.0,0.0,510.0,12.0,0.0
8523,70.0,0.0,270.0,5.0,0.0
8524,70.0,0.0,270.0,2.0,0.0
8525,70.0,0.0,270.0,3.0,0.0
8526,70.0,0.0,1020.0,6.0,0.0
8527,74.0,0.0,1020.0,2.0,0.0
8528,41.0,0.0,600.0,4.0,0.0
8529,74.0,512.0,1020.0,5.0,0.0
8530,74.0,0.0,1020.0,3.0,0.0
8531,65.0,0.0,1020.0,7.0,0.0
8532,70.0,0.0,1020.0,3.0,0.0
8533,65.0,0.0,1020.0,12.0,0.0
8534,65.0,0.0,600.0,0.0,0.0
8535,41.0,0.0,600.0,8.0,0.0
8536,70.0,102.0,510.0,0.0,0.0
8537,74.0,0.0,510.0,0.0,0.0
8538,53.0,0.0,2040.0,13.0,0.0
8539,53.0,0.0,2040.0,14.0,0.0
8540,74.0,0.0,600.0,10.0,0.0
8541,41.0,410.0,600.0,15.0,0.0
8542,41.0,0.0,600.0,1.0,0.0
8543,70.0,0.0,1020.0,11.0,0.0
8544,77.0,0.0,510.0,0.0,0.0
8545,74.0,0.0,510.0,0.0,0.0
8546,72.0,0.0,600.0,2.0,0.0
8547,63.0,0.0,600.0,12.0,0.0
8548,72.0,0.0,600.0,3.0,0.0
8549,69.0,0.0,600.0,3.0,0.0
8550,69.0,0.0,600.0,11.0,0.0
8551,63.0,410.0,600.0,7.0,0.0
8552,75.0,0.0,510.0,0.0,0.0
8553,72.0,102.0,510.0,0.0,0.0
8554,69.0,0.0,600.0,6.0,0.0
8555,72.0,0.0,600.0,10.0,0.0
8556,72.0,0.0,600.0,5.0,0.0
8557,74.0,0.0,510.0,0.0,0.0
8558,77.0,614.0,510.0,0.0,0.0
8559,70.0,0.0,600.0,3.0,0.0
8560,46.0,0.0,600.0,14.0,0.0
8561,65.0,0.0,600.0,6.0,0.0
8562,34.0,0.0,600.0,15.0,0.0
8563,62.0,0.0,600.0,12.0,0.0
8564,70.0,0.0,600.0,10.0,0.0
8565,34.0,0.0,600.0,4.0,0.0
8566,70.0,0.0,600.0,2.0,0.0
8567,70.0,0.0,600.0,11.0,0.0
8568,70.0,0.0,600.0,5.0,0.0
8569,53.0,0.0,600.0,13.0,0.0
8570,74.0,0.0,600.0,0.0,0.0
8571,70.0,0.0,600.0,0.0,0.0
8572,65.0,0.0,600.0,0.0,0.0
8573,34.0,0.0,600.0,8.0,0.0
8574,46.0,7578.0,600.0,1.0,0.0
8575,62.0,0.0,600.0,7.0,0.0
