,note,step,duration,channel,velocity
0,75.0,15.0,150.0,0.0,64.0
1,70.0,10.0,30.0,1.0,64.0
2,87.0,3.0,150.0,4.0,64.0
3,63.0,9.0,30.0,2.0,64.0
4,54.0,93.0,30.0,3.0,64.0
5,66.0,0.0,30.0,1.0,64.0
6,70.0,5.0,30.0,2.0,64.0
7,51.0,58.0,30.0,3.0,64.0
8,78.0,4.0,30.0,0.0,64.0
9,90.0,48.0,30.0,4.0,64.0
10,77.0,0.0,30.0,0.0,64.0
11,89.0,2.0,30.0,4.0,64.0
12,71.0,7.0,30.0,1.0,64.0
13,56.0,1.0,60.0,3.0,64.0
14,68.0,114.0,30.0,2.0,64.0
15,75.0,1.0,60.0,0.0,64.0
16,87.0,3.0,60.0,4.0,64.0
17,59.0,115.0,60.0,3.0,64.0
18,68.0,0.0,30.0,2.0,64.0
19,63.0,0.0,30.0,1.0,64.0
20,87.0,93.0,60.0,4.0,64.0
21,75.0,1.0,60.0,0.0,64.0
22,58.0,1.0,30.0,3.0,64.0
23,70.0,0.0,30.0,2.0,64.0
24,65.0,22.0,30.0,1.0,64.0
25,74.0,3.0,120.0,0.0,64.0
26,86.0,31.0,120.0,4.0,64.0
27,65.0,1.0,30.0,2.0,64.0
28,70.0,5.0,30.0,1.0,64.0
29,56.0,11.0,60.0,3.0,64.0
30,87.0,5.0,30.0,4.0,64.0
31,75.0,15.0,30.0,0.0,64.0
32,89.0,2.0,30.0,4.0,64.0
33,77.0,45.0,20.0,0.0,64.0
34,54.0,106.0,60.0,3.0,64.0
35,70.0,2.0,30.0,1.0,64.0
36,66.0,5.0,30.0,2.0,64.0
37,75.0,4.0,150.0,0.0,64.0
38,87.0,64.0,150.0,4.0,64.0
39,70.0,0.0,30.0,2.0,64.0
40,51.0,7.0,60.0,3.0,64.0
41,75.0,10.0,30.0,1.0,64.0
42,78.0,4.0,30.0,0.0,64.0
43,90.0,36.0,30.0,4.0,64.0
44,58.0,5.0,60.0,3.0,64.0
45,68.0,2.0,60.0,2.0,64.0
46,74.0,6.0,30.0,1.0,64.0
47,89.0,2.0,30.0,4.0,64.0
48,77.0,101.0,60.0,0.0,64.0
49,59.0,113.0,60.0,3.0,64.0
50,75.0,5.0,30.0,1.0,64.0
51,66.0,5.0,30.0,2.0,64.0
52,75.0,5.0,30.0,0.0,64.0
53,87.0,2.0,30.0,4.0,64.0
54,77.0,43.0,90.0,0.0,64.0
55,89.0,8.0,60.0,4.0,64.0
56,56.0,21.0,60.0,3.0,64.0
57,68.0,0.0,30.0,2.0,64.0
58,71.0,3.0,30.0,1.0,64.0
59,75.0,28.0,60.0,0.0,64.0
60,87.0,1.0,60.0,4.0,64.0
61,58.0,30.0,60.0,3.0,64.0
62,65.0,1.0,30.0,2.0,64.0
63,70.0,10.0,30.0,1.0,64.0
64,74.0,2.0,30.0,0.0,64.0
65,86.0,6.0,30.0,4.0,64.0
66,89.0,6.0,20.0,4.0,64.0
67,77.0,81.0,20.0,0.0,64.0
68,66.0,4.0,30.0,2.0,64.0
69,70.0,9.0,30.0,1.0,64.0
70,54.0,96.0,60.0,3.0,64.0
71,75.0,14.0,150.0,0.0,64.0
72,87.0,1.0,150.0,4.0,64.0
73,70.0,0.0,60.0,2.0,64.0
74,75.0,9.0,30.0,1.0,64.0
75,51.0,59.0,60.0,3.0,64.0
76,78.0,46.0,30.0,0.0,64.0
77,90.0,0.0,30.0,4.0,64.0
78,89.0,3.0,30.0,4.0,64.0
79,77.0,1.0,60.0,0.0,64.0
80,68.0,103.0,60.0,2.0,64.0
81,71.0,8.0,30.0,1.0,64.0
82,56.0,1.0,30.0,3.0,64.0
83,87.0,4.0,30.0,4.0,64.0
84,75.0,3.0,30.0,0.0,64.0
85,70.0,6.0,60.0,2.0,64.0
86,70.0,1.0,30.0,1.0,64.0
87,54.0,59.0,60.0,3.0,64.0
88,71.0,52.0,20.0,2.0,64.0
89,85.0,0.0,60.0,4.0,64.0
90,73.0,2.0,60.0,2.0,64.0
91,73.0,1.0,60.0,0.0,64.0
92,68.0,116.0,60.0,1.0,64.0
93,53.0,1.0,30.0,3.0,64.0
94,65.0,3.0,60.0,2.0,64.0
95,83.0,0.0,60.0,4.0,64.0
96,71.0,111.0,60.0,0.0,64.0
97,68.0,0.0,30.0,1.0,64.0
98,49.0,4.0,30.0,3.0,64.0
99,68.0,7.0,60.0,1.0,64.0
100,83.0,2.0,60.0,4.0,64.0
101,63.0,8.0,60.0,2.0,64.0
102,71.0,0.0,60.0,0.0,64.0
103,54.0,44.0,330.0,3.0,64.0
104,82.0,4.0,20.0,4.0,64.0
105,61.0,5.0,20.0,2.0,64.0
106,66.0,6.0,20.0,1.0,64.0
107,70.0,4.0,20.0,0.0,64.0
108,83.0,3.0,20.0,4.0,64.0
109,63.0,10.0,20.0,2.0,64.0
110,71.0,12.0,30.0,0.0,64.0
111,68.0,3.0,20.0,1.0,64.0
112,61.0,2.0,20.0,2.0,64.0
113,82.0,2.0,15.0,4.0,64.0
114,70.0,5.0,30.0,0.0,64.0
115,83.0,14.0,20.0,4.0,64.0
116,66.0,47.0,30.0,1.0,64.0
117,63.0,0.0,15.0,2.0,64.0
118,61.0,1.0,30.0,2.0,64.0
119,82.0,1.0,30.0,4.0,64.0
120,68.0,0.0,60.0,0.0,64.0
121,59.0,3.0,60.0,2.0,64.0
122,65.0,42.0,60.0,1.0,64.0
123,80.0,2.0,60.0,4.0,64.0
124,70.0,4.0,60.0,0.0,64.0
125,82.0,6.0,60.0,4.0,64.0
126,61.0,5.0,60.0,2.0,64.0
127,66.0,105.0,60.0,1.0,64.0
128,78.0,6.0,240.0,4.0,64.0
129,66.0,2.0,240.0,0.0,64.0
130,58.0,9.0,240.0,2.0,64.0
131,61.0,111.0,270.0,1.0,64.0
132,49.0,56.0,30.0,3.0,64.0
133,46.0,45.0,30.0,3.0,64.0
134,42.0,142.0,120.0,3.0,64.0
135,54.0,106.0,60.0,3.0,64.0
136,63.0,0.0,30.0,2.0,64.0
137,87.0,11.0,150.0,4.0,64.0
138,75.0,5.0,150.0,0.0,64.0
139,70.0,11.0,30.0,1.0,64.0
140,70.0,4.0,30.0,2.0,64.0
141,66.0,1.0,30.0,1.0,64.0
142,51.0,60.0,60.0,3.0,64.0
143,78.0,3.0,30.0,0.0,64.0
144,90.0,42.0,30.0,4.0,64.0
145,77.0,4.0,60.0,0.0,64.0
146,68.0,6.0,60.0,2.0,64.0
147,89.0,1.0,60.0,4.0,64.0
148,71.0,5.0,30.0,1.0,64.0
149,56.0,111.0,60.0,3.0,64.0
150,75.0,2.0,60.0,0.0,64.0
151,87.0,3.0,60.0,4.0,64.0
152,59.0,100.0,60.0,3.0,64.0
153,68.0,1.0,30.0,2.0,64.0
154,63.0,3.0,30.0,1.0,64.0
155,87.0,4.0,60.0,4.0,64.0
156,75.0,5.0,30.0,0.0,64.0
157,65.0,3.0,30.0,1.0,64.0
158,70.0,0.0,30.0,2.0,64.0
159,58.0,5.0,30.0,3.0,64.0
160,74.0,7.0,20.0,0.0,64.0
161,86.0,15.0,20.0,4.0,64.0
162,75.0,6.0,20.0,0.0,64.0
163,87.0,7.0,20.0,4.0,64.0
164,74.0,9.0,20.0,0.0,64.0
165,86.0,14.0,20.0,4.0,64.0
166,75.0,21.0,30.0,0.0,64.0
167,87.0,23.0,30.0,4.0,64.0
168,74.0,6.0,90.0,0.0,64.0
169,70.0,12.0,30.0,1.0,64.0
170,86.0,22.0,60.0,4.0,64.0
171,56.0,15.0,60.0,3.0,64.0
172,65.0,0.0,30.0,2.0,64.0
173,87.0,4.0,30.0,4.0,64.0
174,75.0,16.0,30.0,0.0,64.0
175,89.0,48.0,30.0,4.0,64.0
176,77.0,2.0,20.0,0.0,64.0
177,70.0,7.0,30.0,1.0,64.0
178,75.0,2.0,150.0,0.0,64.0
179,54.0,100.0,60.0,3.0,64.0
180,87.0,1.0,150.0,4.0,64.0
181,66.0,5.0,30.0,2.0,64.0
182,75.0,4.0,30.0,1.0,64.0
183,70.0,10.0,30.0,2.0,64.0
184,51.0,67.0,60.0,3.0,64.0
185,78.0,43.0,30.0,0.0,64.0
186,90.0,2.0,30.0,4.0,64.0
187,58.0,103.0,60.0,3.0,64.0
188,68.0,4.0,30.0,2.0,64.0
189,74.0,0.0,30.0,1.0,64.0
190,77.0,5.0,60.0,0.0,64.0
191,89.0,2.0,30.0,4.0,64.0
192,59.0,108.0,60.0,3.0,64.0
193,75.0,4.0,30.0,1.0,64.0
194,87.0,2.0,30.0,4.0,64.0
195,75.0,3.0,60.0,0.0,64.0
196,66.0,3.0,30.0,2.0,64.0
197,71.0,8.0,30.0,1.0,64.0
198,89.0,9.0,60.0,4.0,64.0
199,56.0,11.0,60.0,3.0,64.0
200,77.0,48.0,60.0,0.0,64.0
201,68.0,4.0,30.0,2.0,64.0
202,87.0,30.0,60.0,4.0,64.0
203,75.0,0.0,60.0,0.0,64.0
204,74.0,6.0,30.0,0.0,64.0
205,70.0,11.0,30.0,1.0,64.0
206,86.0,3.0,30.0,4.0,64.0
207,58.0,36.0,60.0,3.0,64.0
208,65.0,1.0,30.0,2.0,64.0
209,77.0,88.0,20.0,0.0,64.0
210,89.0,1.0,20.0,4.0,64.0
211,70.0,0.0,60.0,1.0,64.0
212,66.0,102.0,60.0,2.0,64.0
213,54.0,2.0,60.0,3.0,64.0
214,87.0,4.0,150.0,4.0,64.0
215,75.0,4.0,150.0,0.0,64.0
216,70.0,2.0,60.0,2.0,64.0
217,75.0,7.0,30.0,1.0,64.0
218,51.0,65.0,60.0,3.0,64.0
219,78.0,44.0,30.0,0.0,64.0
220,90.0,1.0,30.0,4.0,64.0
221,77.0,1.0,60.0,0.0,64.0
222,89.0,4.0,30.0,4.0,64.0
223,71.0,8.0,30.0,1.0,64.0
224,56.0,2.0,60.0,3.0,64.0
225,68.0,103.0,60.0,2.0,64.0
226,75.0,2.0,60.0,0.0,64.0
227,87.0,4.0,30.0,4.0,64.0
228,54.0,56.0,60.0,3.0,64.0
229,70.0,6.0,30.0,1.0,64.0
230,70.0,1.0,60.0,2.0,64.0
231,71.0,54.0,20.0,2.0,64.0
232,73.0,1.0,60.0,0.0,64.0
233,73.0,0.0,60.0,2.0,64.0
234,53.0,0.0,30.0,3.0,64.0
235,85.0,1.0,30.0,4.0,64.0
236,68.0,111.0,30.0,1.0,64.0
237,71.0,3.0,60.0,0.0,64.0
238,49.0,1.0,30.0,3.0,64.0
239,68.0,7.0,30.0,1.0,64.0
240,65.0,3.0,60.0,2.0,64.0
241,83.0,107.0,60.0,4.0,64.0
242,68.0,10.0,30.0,1.0,64.0
243,71.0,5.0,60.0,0.0,64.0
244,83.0,1.0,60.0,4.0,64.0
245,63.0,1.0,60.0,2.0,64.0
246,54.0,53.0,330.0,3.0,64.0
247,66.0,9.0,20.0,1.0,64.0
248,61.0,1.0,20.0,2.0,64.0
249,82.0,1.0,20.0,4.0,64.0
250,70.0,6.0,20.0,0.0,64.0
251,68.0,18.0,20.0,1.0,64.0
252,63.0,0.0,30.0,2.0,64.0
253,83.0,7.0,60.0,4.0,64.0
254,71.0,1.0,30.0,0.0,64.0
255,66.0,4.0,20.0,1.0,64.0
256,82.0,4.0,15.0,4.0,64.0
257,61.0,3.0,30.0,2.0,64.0
258,68.0,7.0,20.0,1.0,64.0
259,70.0,6.0,15.0,0.0,64.0
260,71.0,5.0,20.0,0.0,64.0
261,66.0,7.0,30.0,1.0,64.0
262,82.0,0.0,30.0,4.0,64.0
263,70.0,43.0,20.0,0.0,64.0
264,59.0,4.0,60.0,2.0,64.0
265,65.0,4.0,60.0,1.0,64.0
266,80.0,1.0,60.0,4.0,64.0
267,68.0,39.0,60.0,0.0,64.0
268,70.0,0.0,60.0,0.0,64.0
269,82.0,11.0,60.0,4.0,64.0
270,61.0,2.0,60.0,2.0,64.0
271,66.0,101.0,60.0,1.0,64.0
272,66.0,4.0,240.0,0.0,64.0
273,78.0,8.0,240.0,4.0,64.0
274,58.0,1.0,240.0,2.0,64.0
275,61.0,120.0,240.0,1.0,64.0
276,49.0,57.0,30.0,3.0,64.0
277,46.0,35.0,30.0,3.0,64.0
278,42.0,148.0,120.0,3.0,64.0
279,61.0,2.0,30.0,2.0,64.0
280,73.0,91.0,60.0,1.0,64.0
281,78.0,21.0,150.0,0.0,64.0
282,90.0,2.0,150.0,4.0,64.0
283,58.0,0.0,30.0,3.0,64.0
284,78.0,11.0,60.0,1.0,64.0
285,73.0,4.0,30.0,2.0,64.0
286,54.0,50.0,60.0,3.0,64.0
287,82.0,50.0,30.0,0.0,64.0
288,94.0,1.0,30.0,4.0,64.0
289,80.0,4.0,60.0,0.0,64.0
290,75.0,1.0,30.0,1.0,64.0
291,92.0,5.0,60.0,4.0,64.0
292,71.0,2.0,60.0,2.0,64.0
293,59.0,106.0,30.0,3.0,64.0
294,68.0,2.0,60.0,1.0,64.0
295,78.0,4.0,60.0,0.0,64.0
296,90.0,4.0,30.0,4.0,64.0
297,75.0,5.0,30.0,2.0,64.0
298,60.0,108.0,60.0,3.0,64.0
299,73.0,6.0,60.0,1.0,64.0
300,90.0,3.0,60.0,4.0,64.0
301,78.0,89.0,60.0,0.0,64.0
302,61.0,0.0,30.0,3.0,64.0
303,68.0,24.0,30.0,2.0,64.0
304,89.0,1.0,90.0,4.0,64.0
305,77.0,41.0,90.0,0.0,64.0
306,68.0,3.0,30.0,2.0,64.0
307,72.0,1.0,30.0,1.0,64.0
308,56.0,0.0,30.0,3.0,64.0
309,90.0,9.0,30.0,4.0,64.0
310,78.0,3.0,30.0,0.0,64.0
311,92.0,10.0,20.0,4.0,64.0
312,80.0,55.0,20.0,0.0,64.0
313,73.0,5.0,60.0,1.0,64.0
314,68.0,3.0,60.0,2.0,64.0
315,78.0,86.0,60.0,0.0,64.0
316,90.0,2.0,60.0,4.0,64.0
317,61.0,22.0,60.0,3.0,64.0
318,89.0,1.0,120.0,4.0,64.0
319,77.0,52.0,120.0,0.0,64.0
320,62.0,14.0,60.0,3.0,64.0
321,77.0,2.0,30.0,1.0,64.0
322,70.0,5.0,30.0,2.0,64.0
323,80.0,0.0,30.0,0.0,64.0
324,92.0,50.0,20.0,4.0,64.0
325,78.0,1.0,60.0,0.0,64.0
326,90.0,2.0,30.0,4.0,64.0
327,63.0,117.0,60.0,3.0,64.0
328,75.0,0.0,30.0,1.0,64.0
329,70.0,2.0,30.0,2.0,64.0
330,77.0,2.0,60.0,0.0,64.0
331,89.0,2.0,60.0,4.0,64.0
332,58.0,1.0,60.0,3.0,64.0
333,74.0,2.0,30.0,1.0,64.0
334,68.0,76.0,30.0,2.0,64.0
335,77.0,4.0,20.0,0.0,64.0
336,89.0,14.0,20.0,4.0,64.0
337,63.0,1.0,60.0,3.0,64.0
338,66.0,7.0,60.0,2.0,64.0
339,70.0,3.0,30.0,1.0,64.0
340,75.0,7.0,20.0,0.0,64.0
341,87.0,10.0,20.0,4.0,64.0
342,77.0,0.0,20.0,0.0,64.0
343,89.0,17.0,30.0,4.0,64.0
344,75.0,9.0,30.0,0.0,64.0
345,87.0,78.0,30.0,4.0,64.0
346,65.0,5.0,60.0,3.0,64.0
347,74.0,115.0,60.0,0.0,64.0
348,86.0,2.0,60.0,4.0,64.0
349,65.0,0.0,30.0,2.0,64.0
350,68.0,8.0,30.0,1.0,64.0
351,75.0,9.0,150.0,0.0,64.0
352,87.0,3.0,150.0,4.0,64.0
353,63.0,4.0,60.0,2.0,64.0
354,66.0,99.0,60.0,3.0,64.0
355,70.0,0.0,60.0,1.0,64.0
356,70.0,2.0,60.0,2.0,64.0
357,63.0,19.0,60.0,3.0,64.0
358,75.0,10.0,60.0,1.0,64.0
359,89.0,8.0,20.0,4.0,64.0
360,77.0,10.0,30.0,0.0,64.0
361,90.0,6.0,20.0,4.0,64.0
362,78.0,67.0,30.0,0.0,64.0
363,77.0,30.0,120.0,0.0,64.0
364,62.0,3.0,60.0,3.0,64.0
365,89.0,2.0,120.0,4.0,64.0
366,77.0,59.0,60.0,1.0,64.0
367,70.0,1.0,60.0,2.0,64.0
368,78.0,2.0,30.0,0.0,64.0
369,63.0,1.0,30.0,3.0,64.0
370,90.0,13.0,30.0,4.0,64.0
371,75.0,3.0,30.0,1.0,64.0
372,70.0,39.0,30.0,2.0,64.0
373,94.0,6.0,30.0,4.0,64.0
374,82.0,70.0,30.0,0.0,64.0
375,75.0,2.0,30.0,1.0,64.0
376,92.0,0.0,60.0,4.0,64.0
377,71.0,0.0,30.0,2.0,64.0
378,80.0,18.0,60.0,0.0,64.0
379,56.0,24.0,30.0,3.0,64.0
380,90.0,11.0,30.0,4.0,64.0
381,78.0,63.0,30.0,0.0,64.0
382,80.0,3.0,30.0,1.0,64.0
383,63.0,8.0,30.0,2.0,64.0
384,59.0,15.0,60.0,3.0,64.0
385,89.0,8.0,60.0,4.0,64.0
386,77.0,15.0,60.0,0.0,64.0
387,87.0,8.0,30.0,4.0,64.0
388,75.0,68.0,30.0,0.0,64.0
389,70.0,4.0,30.0,2.0,64.0
390,74.0,13.0,60.0,1.0,64.0
391,77.0,20.0,60.0,0.0,64.0
392,89.0,9.0,60.0,4.0,64.0
393,58.0,88.0,330.0,3.0,64.0
394,87.0,10.0,30.0,4.0,64.0
395,75.0,64.0,30.0,0.0,64.0
396,86.0,4.0,60.0,4.0,64.0
397,74.0,26.0,60.0,0.0,64.0
398,70.0,19.0,30.0,1.0,64.0
399,65.0,2.0,30.0,2.0,64.0
400,84.0,4.0,30.0,4.0,64.0
401,72.0,103.0,30.0,0.0,64.0
402,62.0,1.0,270.0,2.0,64.0
403,82.0,0.0,270.0,4.0,64.0
404,70.0,8.0,270.0,0.0,64.0
405,65.0,21.0,270.0,1.0,64.0
406,59.0,97.0,60.0,3.0,64.0
407,58.0,120.0,60.0,3.0,64.0
408,56.0,118.0,60.0,3.0,64.0
409,75.0,0.0,150.0,0.0,64.0
410,87.0,9.0,150.0,4.0,64.0
411,63.0,10.0,60.0,2.0,64.0
412,70.0,3.0,30.0,1.0,64.0
413,54.0,90.0,60.0,3.0,64.0
414,70.0,3.0,60.0,2.0,64.0
415,66.0,14.0,30.0,1.0,64.0
416,51.0,55.0,60.0,3.0,64.0
417,78.0,4.0,30.0,0.0,64.0
418,90.0,40.0,30.0,4.0,64.0
419,77.0,1.0,60.0,0.0,64.0
420,68.0,5.0,60.0,2.0,64.0
421,89.0,7.0,30.0,4.0,64.0
422,71.0,3.0,30.0,1.0,64.0
423,56.0,107.0,60.0,3.0,64.0
424,75.0,5.0,60.0,0.0,64.0
425,87.0,7.0,30.0,4.0,64.0
426,59.0,1.0,60.0,3.0,64.0
427,63.0,5.0,60.0,1.0,64.0
428,68.0,106.0,60.0,2.0,64.0
429,65.0,14.0,60.0,1.0,64.0
430,58.0,2.0,60.0,3.0,64.0
431,87.0,6.0,60.0,4.0,64.0
432,75.0,81.0,60.0,0.0,64.0
433,70.0,5.0,30.0,2.0,64.0
434,86.0,9.0,90.0,4.0,64.0
435,74.0,3.0,90.0,0.0,64.0
436,70.0,2.0,60.0,1.0,64.0
437,65.0,1.0,60.0,2.0,64.0
438,56.0,41.0,60.0,3.0,64.0
439,87.0,7.0,30.0,4.0,64.0
440,75.0,10.0,30.0,0.0,64.0
441,89.0,12.0,20.0,4.0,64.0
442,77.0,52.0,30.0,0.0,64.0
443,70.0,1.0,60.0,1.0,64.0
444,54.0,3.0,60.0,3.0,64.0
445,82.0,3.0,150.0,4.0,64.0
446,63.0,96.0,60.0,2.0,64.0
447,70.0,10.0,150.0,0.0,64.0
448,58.0,2.0,60.0,2.0,64.0
449,51.0,65.0,60.0,3.0,64.0
450,66.0,4.0,30.0,1.0,64.0
451,75.0,14.0,30.0,0.0,64.0
452,87.0,30.0,30.0,4.0,64.0
453,74.0,6.0,60.0,0.0,64.0
454,53.0,6.0,60.0,3.0,64.0
455,65.0,3.0,60.0,2.0,64.0
456,68.0,107.0,60.0,1.0,64.0
457,86.0,0.0,30.0,4.0,64.0
458,54.0,16.0,60.0,3.0,64.0
459,63.0,6.0,60.0,2.0,64.0
460,75.0,5.0,30.0,0.0,64.0
461,70.0,37.0,60.0,1.0,64.0
462,87.0,4.0,30.0,4.0,64.0
463,68.0,55.0,20.0,1.0,64.0
464,70.0,4.0,60.0,1.0,64.0
465,63.0,3.0,60.0,2.0,64.0
466,70.0,1.0,150.0,0.0,64.0
467,55.0,92.0,60.0,3.0,64.0
468,82.0,24.0,120.0,4.0,64.0
469,67.0,0.0,30.0,1.0,64.0
470,51.0,30.0,60.0,3.0,64.0
471,63.0,8.0,30.0,2.0,64.0
472,71.0,4.0,30.0,0.0,64.0
473,83.0,10.0,30.0,4.0,64.0
474,73.0,3.0,20.0,0.0,64.0
475,85.0,68.0,20.0,4.0,64.0
476,68.0,2.0,60.0,1.0,64.0
477,56.0,4.0,60.0,3.0,64.0
478,73.0,1.0,60.0,0.0,64.0
479,63.0,16.0,60.0,2.0,64.0
480,85.0,91.0,60.0,4.0,64.0
481,71.0,3.0,90.0,0.0,64.0
482,83.0,54.0,120.0,4.0,64.0
483,71.0,6.0,60.0,1.0,64.0
484,68.0,2.0,60.0,2.0,64.0
485,53.0,3.0,60.0,3.0,64.0
486,80.0,11.0,20.0,0.0,64.0
487,92.0,48.0,30.0,4.0,64.0
488,74.0,0.0,60.0,0.0,64.0
489,58.0,2.0,60.0,3.0,64.0
490,70.0,40.0,60.0,1.0,64.0
491,86.0,16.0,60.0,4.0,64.0
492,65.0,2.0,60.0,2.0,64.0
493,71.0,7.0,30.0,1.0,64.0
494,56.0,49.0,30.0,3.0,64.0
495,70.0,47.0,60.0,1.0,64.0
496,54.0,7.0,60.0,3.0,64.0
497,75.0,9.0,60.0,0.0,64.0
498,87.0,2.0,30.0,4.0,64.0
499,63.0,0.0,30.0,2.0,64.0
500,68.0,3.0,30.0,1.0,64.0
501,56.0,52.0,30.0,3.0,64.0
502,66.0,106.0,60.0,1.0,64.0
503,70.0,0.0,60.0,0.0,64.0
504,82.0,3.0,60.0,4.0,64.0
505,58.0,2.0,30.0,3.0,64.0
506,63.0,1.0,60.0,2.0,64.0
507,68.0,2.0,60.0,0.0,64.0
508,80.0,8.0,60.0,4.0,64.0
509,62.0,7.0,30.0,2.0,64.0
510,65.0,108.0,60.0,1.0,64.0
511,46.0,1.0,60.0,3.0,64.0
512,68.0,1.0,60.0,0.0,64.0
513,58.0,2.0,120.0,2.0,64.0
514,65.0,0.0,60.0,1.0,64.0
515,80.0,18.0,30.0,4.0,64.0
516,51.0,44.0,330.0,3.0,64.0
517,66.0,6.0,20.0,0.0,64.0
518,78.0,0.0,20.0,4.0,64.0
519,63.0,15.0,30.0,1.0,64.0
520,68.0,0.0,30.0,0.0,64.0
521,80.0,7.0,20.0,4.0,64.0
522,65.0,18.0,30.0,1.0,64.0
523,78.0,12.0,30.0,4.0,64.0
524,66.0,1.0,30.0,0.0,64.0
525,63.0,39.0,30.0,1.0,64.0
526,65.0,0.0,60.0,0.0,64.0
527,77.0,37.0,60.0,4.0,64.0
528,62.0,7.0,60.0,1.0,64.0
529,56.0,5.0,60.0,2.0,64.0
530,66.0,6.0,60.0,0.0,64.0
531,78.0,126.0,60.0,4.0,64.0
532,63.0,1.0,30.0,1.0,64.0
533,58.0,4.0,30.0,2.0,64.0
534,63.0,7.0,270.0,0.0,64.0
535,75.0,2.0,240.0,4.0,64.0
536,54.0,0.0,270.0,2.0,64.0
537,63.0,136.0,240.0,1.0,64.0
538,54.0,62.0,30.0,3.0,64.0
539,58.0,34.0,30.0,3.0,64.0
540,63.0,133.0,150.0,3.0,64.0
541,73.0,3.0,60.0,1.0,64.0
542,61.0,98.0,60.0,2.0,64.0
543,78.0,8.0,150.0,0.0,64.0
544,90.0,10.0,150.0,4.0,64.0
545,58.0,2.0,30.0,3.0,64.0
546,78.0,7.0,60.0,1.0,64.0
547,73.0,0.0,30.0,2.0,64.0
548,54.0,52.0,60.0,3.0,64.0
549,82.0,7.0,30.0,0.0,64.0
550,94.0,46.0,30.0,4.0,64.0
551,80.0,8.0,30.0,0.0,64.0
552,92.0,2.0,60.0,4.0,64.0
553,75.0,7.0,60.0,1.0,64.0
554,59.0,2.0,60.0,3.0,64.0
555,71.0,100.0,60.0,2.0,64.0
556,78.0,10.0,30.0,0.0,64.0
557,75.0,0.0,60.0,2.0,64.0
558,68.0,3.0,60.0,1.0,64.0
559,60.0,102.0,60.0,3.0,64.0
560,90.0,2.0,30.0,4.0,64.0
561,78.0,11.0,30.0,0.0,64.0
562,90.0,14.0,60.0,4.0,64.0
563,73.0,0.0,30.0,1.0,64.0
564,68.0,4.0,30.0,2.0,64.0
565,61.0,0.0,30.0,3.0,64.0
566,77.0,1.0,20.0,0.0,64.0
567,89.0,8.0,15.0,4.0,64.0
568,78.0,13.0,20.0,0.0,64.0
569,77.0,1.0,20.0,0.0,64.0
570,90.0,14.0,20.0,4.0,64.0
571,89.0,4.0,20.0,4.0,64.0
572,78.0,14.0,20.0,0.0,64.0
573,77.0,8.0,60.0,0.0,64.0
574,90.0,44.0,20.0,4.0,64.0
575,89.0,27.0,60.0,4.0,64.0
576,72.0,1.0,30.0,1.0,64.0
577,56.0,2.0,30.0,3.0,64.0
578,68.0,1.0,30.0,2.0,64.0
579,78.0,2.0,30.0,0.0,64.0
580,90.0,11.0,20.0,4.0,64.0
581,80.0,6.0,20.0,0.0,64.0
582,92.0,64.0,20.0,4.0,64.0
583,78.0,3.0,60.0,0.0,64.0
584,90.0,91.0,60.0,4.0,64.0
585,73.0,2.0,60.0,1.0,64.0
586,61.0,14.0,60.0,3.0,64.0
587,68.0,2.0,30.0,2.0,64.0
588,77.0,48.0,120.0,0.0,64.0
589,89.0,8.0,120.0,4.0,64.0
590,70.0,4.0,30.0,2.0,64.0
591,62.0,5.0,60.0,3.0,64.0
592,77.0,6.0,30.0,1.0,64.0
593,80.0,3.0,20.0,0.0,64.0
594,92.0,50.0,20.0,4.0,64.0
595,90.0,3.0,60.0,4.0,64.0
596,78.0,4.0,60.0,0.0,64.0
597,63.0,115.0,60.0,3.0,64.0
598,70.0,1.0,60.0,2.0,64.0
599,75.0,2.0,30.0,1.0,64.0
600,77.0,1.0,60.0,0.0,64.0
601,89.0,74.0,60.0,4.0,64.0
602,58.0,3.0,60.0,3.0,64.0
603,68.0,1.0,60.0,2.0,64.0
604,74.0,2.0,30.0,1.0,64.0
605,89.0,4.0,15.0,4.0,64.0
606,77.0,16.0,20.0,0.0,64.0
607,63.0,2.0,60.0,3.0,64.0
608,70.0,3.0,60.0,1.0,64.0
609,66.0,2.0,60.0,2.0,64.0
610,87.0,1.0,20.0,4.0,64.0
611,75.0,15.0,20.0,0.0,64.0
612,89.0,1.0,30.0,4.0,64.0
613,77.0,24.0,30.0,0.0,64.0
614,87.0,6.0,30.0,4.0,64.0
615,75.0,81.0,30.0,0.0,64.0
616,65.0,1.0,60.0,2.0,64.0
617,68.0,1.0,60.0,1.0,64.0
618,65.0,7.0,60.0,3.0,64.0
619,74.0,4.0,60.0,0.0,64.0
620,86.0,115.0,60.0,4.0,64.0
621,75.0,1.0,180.0,0.0,64.0
622,63.0,9.0,60.0,2.0,64.0
623,70.0,100.0,60.0,1.0,64.0
624,87.0,2.0,150.0,4.0,64.0
625,66.0,1.0,60.0,3.0,64.0
626,63.0,33.0,60.0,3.0,64.0
627,70.0,3.0,30.0,2.0,64.0
628,75.0,0.0,60.0,1.0,64.0
629,77.0,1.0,30.0,0.0,64.0
630,89.0,15.0,30.0,4.0,64.0
631,78.0,1.0,20.0,0.0,64.0
632,90.0,64.0,20.0,4.0,64.0
633,89.0,15.0,120.0,4.0,64.0
634,77.0,14.0,120.0,0.0,64.0
635,77.0,2.0,60.0,1.0,64.0
636,70.0,61.0,60.0,2.0,64.0
637,62.0,6.0,30.0,3.0,64.0
638,90.0,6.0,30.0,4.0,64.0
639,78.0,16.0,30.0,0.0,64.0
640,63.0,3.0,60.0,3.0,64.0
641,75.0,4.0,60.0,1.0,64.0
642,70.0,34.0,60.0,2.0,64.0
643,94.0,3.0,30.0,4.0,64.0
644,82.0,72.0,30.0,0.0,64.0
645,56.0,5.0,60.0,3.0,64.0
646,75.0,23.0,60.0,1.0,64.0
647,71.0,2.0,30.0,2.0,64.0
648,80.0,1.0,60.0,0.0,64.0
649,92.0,16.0,60.0,4.0,64.0
650,78.0,62.0,30.0,0.0,64.0
651,90.0,14.0,30.0,4.0,64.0
652,59.0,1.0,60.0,3.0,64.0
653,80.0,0.0,30.0,1.0,64.0
654,89.0,3.0,60.0,4.0,64.0
655,63.0,24.0,30.0,2.0,64.0
656,77.0,17.0,60.0,0.0,64.0
657,87.0,9.0,30.0,4.0,64.0
658,75.0,70.0,30.0,0.0,64.0
659,58.0,87.0,330.0,3.0,64.0
660,89.0,3.0,60.0,4.0,64.0
661,70.0,1.0,30.0,2.0,64.0
662,74.0,17.0,30.0,1.0,64.0
663,77.0,17.0,60.0,0.0,64.0
664,87.0,10.0,30.0,4.0,64.0
665,75.0,62.0,30.0,0.0,64.0
666,86.0,3.0,30.0,4.0,64.0
667,65.0,6.0,60.0,2.0,64.0
668,70.0,15.0,60.0,1.0,64.0
669,74.0,8.0,30.0,0.0,64.0
670,87.0,3.0,30.0,4.0,64.0
671,75.0,16.0,30.0,0.0,64.0
672,86.0,3.0,30.0,4.0,64.0
673,74.0,18.0,30.0,0.0,64.0
674,84.0,4.0,30.0,4.0,64.0
675,72.0,92.0,30.0,0.0,64.0
676,62.0,3.0,270.0,2.0,64.0
677,82.0,29.0,240.0,4.0,64.0
678,70.0,4.0,240.0,0.0,64.0
679,65.0,4.0,240.0,1.0,64.0
680,59.0,80.0,60.0,3.0,64.0
681,58.0,115.0,60.0,3.0,64.0
682,56.0,120.0,60.0,3.0,64.0
683,63.0,2.0,60.0,2.0,64.0
684,54.0,90.0,60.0,3.0,64.0
685,75.0,14.0,150.0,0.0,64.0
686,87.0,6.0,150.0,4.0,64.0
687,70.0,7.0,30.0,1.0,64.0
688,51.0,54.0,60.0,3.0,64.0
689,70.0,0.0,60.0,2.0,64.0
690,66.0,12.0,30.0,1.0,64.0
691,78.0,4.0,30.0,0.0,64.0
692,90.0,40.0,30.0,4.0,64.0
693,77.0,7.0,30.0,0.0,64.0
694,89.0,2.0,30.0,4.0,64.0
695,56.0,113.0,60.0,3.0,64.0
696,68.0,0.0,30.0,2.0,64.0
697,71.0,3.0,30.0,1.0,64.0
698,87.0,6.0,30.0,4.0,64.0
699,75.0,1.0,30.0,0.0,64.0
700,59.0,110.0,60.0,3.0,64.0
701,68.0,4.0,60.0,2.0,64.0
702,63.0,3.0,30.0,1.0,64.0
703,75.0,1.0,60.0,0.0,64.0
704,87.0,7.0,60.0,4.0,64.0
705,70.0,0.0,60.0,2.0,64.0
706,58.0,5.0,60.0,3.0,64.0
707,65.0,2.0,30.0,1.0,64.0
708,74.0,4.0,20.0,0.0,64.0
709,86.0,21.0,20.0,4.0,64.0
710,75.0,14.0,30.0,0.0,64.0
711,87.0,0.0,20.0,4.0,64.0
712,74.0,21.0,20.0,0.0,64.0
713,86.0,1.0,15.0,4.0,64.0
714,87.0,39.0,30.0,4.0,64.0
715,75.0,1.0,20.0,0.0,64.0
716,86.0,2.0,60.0,4.0,64.0
717,74.0,27.0,60.0,0.0,64.0
718,65.0,1.0,60.0,2.0,64.0
719,70.0,6.0,30.0,1.0,64.0
720,56.0,10.0,60.0,3.0,64.0
721,87.0,6.0,30.0,4.0,64.0
722,75.0,11.0,30.0,0.0,64.0
723,89.0,8.0,20.0,4.0,64.0
724,77.0,54.0,20.0,0.0,64.0
725,70.0,2.0,60.0,1.0,64.0
726,54.0,4.0,60.0,3.0,64.0
727,82.0,4.0,150.0,4.0,64.0
728,63.0,98.0,60.0,2.0,64.0
729,70.0,14.0,150.0,0.0,64.0
730,51.0,1.0,60.0,3.0,64.0
731,66.0,3.0,60.0,1.0,64.0
732,58.0,66.0,60.0,2.0,64.0
733,75.0,2.0,30.0,0.0,64.0
734,87.0,31.0,30.0,4.0,64.0
735,86.0,16.0,30.0,4.0,64.0
736,74.0,0.0,60.0,0.0,64.0
737,53.0,6.0,60.0,3.0,64.0
738,65.0,2.0,60.0,2.0,64.0
739,68.0,102.0,60.0,1.0,64.0
740,75.0,7.0,60.0,0.0,64.0
741,87.0,7.0,30.0,4.0,64.0
742,63.0,4.0,60.0,2.0,64.0
743,54.0,4.0,60.0,3.0,64.0
744,70.0,66.0,60.0,1.0,64.0
745,68.0,39.0,30.0,1.0,64.0
746,70.0,9.0,60.0,1.0,64.0
747,70.0,17.0,150.0,0.0,64.0
748,55.0,89.0,60.0,3.0,64.0
749,63.0,3.0,60.0,2.0,64.0
750,82.0,1.0,150.0,4.0,64.0
751,67.0,6.0,30.0,1.0,64.0
752,63.0,32.0,60.0,2.0,64.0
753,51.0,3.0,30.0,3.0,64.0
754,71.0,1.0,30.0,0.0,64.0
755,83.0,11.0,30.0,4.0,64.0
756,73.0,2.0,20.0,0.0,64.0
757,85.0,70.0,20.0,4.0,64.0
758,68.0,7.0,60.0,1.0,64.0
759,63.0,16.0,60.0,2.0,64.0
760,73.0,1.0,60.0,0.0,64.0
761,56.0,3.0,60.0,3.0,64.0
762,85.0,93.0,60.0,4.0,64.0
763,71.0,0.0,120.0,0.0,64.0
764,83.0,1.0,90.0,4.0,64.0
765,71.0,4.0,60.0,1.0,64.0
766,53.0,2.0,60.0,3.0,64.0
767,68.0,56.0,60.0,2.0,64.0
768,80.0,9.0,20.0,0.0,64.0
769,92.0,50.0,30.0,4.0,64.0
770,74.0,2.0,60.0,0.0,64.0
771,70.0,1.0,60.0,1.0,64.0
772,58.0,5.0,60.0,3.0,64.0
773,86.0,56.0,60.0,4.0,64.0
774,65.0,0.0,60.0,2.0,64.0
775,71.0,11.0,30.0,1.0,64.0
776,56.0,38.0,30.0,3.0,64.0
777,70.0,8.0,30.0,1.0,64.0
778,75.0,8.0,60.0,0.0,64.0
779,63.0,1.0,60.0,2.0,64.0
780,54.0,54.0,60.0,3.0,64.0
781,87.0,1.0,30.0,4.0,64.0
782,68.0,46.0,30.0,1.0,64.0
783,56.0,4.0,20.0,3.0,64.0
784,70.0,4.0,60.0,0.0,64.0
785,82.0,3.0,30.0,4.0,64.0
786,63.0,2.0,30.0,2.0,64.0
787,66.0,111.0,60.0,1.0,64.0
788,58.0,4.0,30.0,3.0,64.0
789,68.0,2.0,60.0,0.0,64.0
790,65.0,4.0,60.0,1.0,64.0
791,80.0,3.0,60.0,4.0,64.0
792,62.0,1.0,60.0,2.0,64.0
793,46.0,94.0,60.0,3.0,64.0
794,68.0,6.0,60.0,0.0,64.0
795,65.0,4.0,30.0,1.0,64.0
796,80.0,7.0,30.0,4.0,64.0
797,51.0,57.0,330.0,3.0,64.0
798,59.0,9.0,30.0,2.0,64.0
799,63.0,0.0,20.0,1.0,64.0
800,78.0,3.0,15.0,4.0,64.0
801,66.0,10.0,20.0,0.0,64.0
802,58.0,1.0,20.0,2.0,64.0
803,80.0,0.0,20.0,4.0,64.0
804,65.0,7.0,20.0,1.0,64.0
805,68.0,2.0,20.0,0.0,64.0
806,78.0,5.0,15.0,4.0,64.0
807,59.0,5.0,20.0,2.0,64.0
808,63.0,0.0,20.0,1.0,64.0
809,66.0,6.0,15.0,0.0,64.0
810,80.0,8.0,20.0,4.0,64.0
811,65.0,13.0,20.0,1.0,64.0
812,58.0,35.0,60.0,2.0,64.0
813,68.0,1.0,15.0,0.0,64.0
814,78.0,6.0,30.0,4.0,64.0
815,63.0,1.0,20.0,1.0,64.0
816,66.0,10.0,30.0,0.0,64.0
817,59.0,2.0,15.0,2.0,64.0
818,62.0,2.0,60.0,1.0,64.0
819,77.0,3.0,60.0,4.0,64.0
820,65.0,13.0,60.0,0.0,64.0
821,56.0,23.0,60.0,2.0,64.0
822,66.0,7.0,60.0,0.0,64.0
823,63.0,18.0,30.0,1.0,64.0
824,78.0,1.0,60.0,4.0,64.0
825,58.0,94.0,60.0,2.0,64.0
826,63.0,1.0,270.0,0.0,64.0
827,63.0,119.0,270.0,1.0,64.0
828,75.0,8.0,240.0,4.0,64.0
829,54.0,4.0,270.0,2.0,64.0
830,54.0,59.0,30.0,3.0,64.0
831,58.0,47.0,30.0,3.0,64.0
832,63.0,163.0,150.0,3.0,64.0
833,75.0,57.0,60.0,4.0,64.0
834,63.0,22.0,150.0,3.0,64.0
835,78.0,30.0,60.0,4.0,64.0
836,82.0,53.0,60.0,4.0,64.0
837,87.0,6.0,60.0,4.0,64.0
838,66.0,44.0,30.0,3.0,64.0
839,65.0,10.0,30.0,3.0,64.0
840,86.0,45.0,60.0,4.0,64.0
841,82.0,67.0,30.0,4.0,64.0
842,63.0,40.0,60.0,3.0,64.0
843,87.0,7.0,30.0,4.0,64.0
844,82.0,68.0,30.0,4.0,64.0
845,63.0,24.0,60.0,3.0,64.0
846,89.0,28.0,30.0,4.0,64.0
847,62.0,30.0,90.0,3.0,64.0
848,82.0,67.0,30.0,4.0,64.0
849,89.0,17.0,60.0,4.0,64.0
850,90.0,16.0,30.0,4.0,64.0
851,63.0,8.0,30.0,3.0,64.0
852,65.0,1.0,30.0,3.0,64.0
853,92.0,52.0,30.0,4.0,64.0
854,90.0,26.0,30.0,4.0,64.0
855,63.0,39.0,150.0,3.0,64.0
856,89.0,26.0,30.0,4.0,64.0
857,87.0,18.0,30.0,4.0,64.0
858,86.0,37.0,20.0,4.0,64.0
859,87.0,18.0,30.0,4.0,64.0
860,82.0,35.0,20.0,4.0,64.0
861,66.0,38.0,30.0,3.0,64.0
862,80.0,12.0,30.0,4.0,64.0
863,65.0,13.0,60.0,3.0,64.0
864,82.0,40.0,30.0,4.0,64.0
865,83.0,30.0,30.0,4.0,64.0
866,82.0,17.0,60.0,4.0,64.0
867,63.0,10.0,60.0,3.0,64.0
868,80.0,19.0,30.0,4.0,64.0
869,78.0,26.0,30.0,4.0,64.0
870,77.0,28.0,30.0,4.0,64.0
871,75.0,41.0,30.0,4.0,64.0
872,74.0,26.0,30.0,4.0,64.0
873,65.0,28.0,60.0,3.0,64.0
874,63.0,55.0,30.0,3.0,64.0
875,83.0,2.0,30.0,4.0,64.0
876,62.0,7.0,30.0,3.0,64.0
877,82.0,52.0,30.0,4.0,64.0
878,65.0,66.0,30.0,3.0,64.0
879,80.0,7.0,20.0,4.0,64.0
880,78.0,21.0,30.0,4.0,64.0
881,63.0,24.0,150.0,3.0,64.0
882,77.0,31.0,30.0,4.0,64.0
883,75.0,24.0,30.0,4.0,64.0
884,77.0,39.0,30.0,4.0,64.0
885,78.0,3.0,30.0,4.0,64.0
886,80.0,31.0,30.0,4.0,64.0
887,82.0,23.0,30.0,4.0,64.0
888,83.0,10.0,30.0,4.0,64.0
889,66.0,32.0,30.0,3.0,64.0
890,85.0,9.0,30.0,4.0,64.0
891,65.0,44.0,30.0,3.0,64.0
892,83.0,27.0,30.0,4.0,64.0
893,82.0,36.0,30.0,4.0,64.0
894,63.0,56.0,30.0,3.0,64.0
895,83.0,7.0,30.0,4.0,64.0
896,90.0,62.0,30.0,4.0,64.0
897,61.0,46.0,60.0,3.0,64.0
898,82.0,6.0,30.0,4.0,64.0
899,90.0,68.0,30.0,4.0,64.0
900,80.0,16.0,30.0,4.0,64.0
901,59.0,40.0,60.0,3.0,64.0
902,89.0,57.0,30.0,4.0,64.0
903,90.0,12.0,30.0,4.0,64.0
904,59.0,18.0,60.0,3.0,64.0
905,58.0,29.0,20.0,3.0,64.0
906,73.0,19.0,60.0,4.0,64.0
907,59.0,12.0,30.0,3.0,64.0
908,58.0,36.0,30.0,3.0,64.0
909,56.0,42.0,60.0,3.0,64.0
910,71.0,19.0,30.0,4.0,64.0
911,58.0,58.0,60.0,3.0,64.0
912,73.0,7.0,30.0,4.0,64.0
913,70.0,49.0,30.0,4.0,64.0
914,54.0,29.0,240.0,3.0,64.0
915,85.0,74.0,30.0,4.0,64.0
916,68.0,48.0,30.0,4.0,64.0
917,83.0,44.0,30.0,4.0,64.0
918,66.0,47.0,30.0,4.0,64.0
919,82.0,69.0,30.0,4.0,64.0
920,74.0,48.0,30.0,4.0,64.0
921,80.0,95.0,30.0,4.0,64.0
922,63.0,10.0,150.0,3.0,64.0
923,75.0,57.0,60.0,4.0,64.0
924,78.0,42.0,60.0,4.0,64.0
925,82.0,53.0,60.0,4.0,64.0
926,87.0,12.0,60.0,4.0,64.0
927,66.0,47.0,30.0,3.0,64.0
928,65.0,1.0,60.0,3.0,64.0
929,86.0,42.0,60.0,4.0,64.0
930,82.0,76.0,30.0,4.0,64.0
931,63.0,33.0,60.0,3.0,64.0
932,87.0,12.0,30.0,4.0,64.0
933,82.0,70.0,30.0,4.0,64.0
934,63.0,5.0,60.0,3.0,64.0
935,89.0,13.0,30.0,4.0,64.0
936,62.0,23.0,20.0,3.0,64.0
937,63.0,9.0,20.0,3.0,64.0
938,82.0,5.0,30.0,4.0,64.0
939,62.0,26.0,15.0,3.0,64.0
940,63.0,60.0,30.0,3.0,64.0
941,62.0,9.0,60.0,3.0,64.0
942,89.0,25.0,60.0,4.0,64.0
943,90.0,1.0,30.0,4.0,64.0
944,63.0,16.0,30.0,3.0,64.0
945,92.0,3.0,20.0,4.0,64.0
946,65.0,48.0,30.0,3.0,64.0
947,90.0,28.0,30.0,4.0,64.0
948,63.0,48.0,150.0,3.0,64.0
949,89.0,27.0,30.0,4.0,64.0
950,87.0,17.0,30.0,4.0,64.0
951,86.0,39.0,30.0,4.0,64.0
952,87.0,11.0,30.0,4.0,64.0
953,82.0,21.0,20.0,4.0,64.0
954,66.0,47.0,30.0,3.0,64.0
955,65.0,26.0,60.0,3.0,64.0
956,80.0,2.0,30.0,4.0,64.0
957,82.0,38.0,30.0,4.0,64.0
958,83.0,30.0,30.0,4.0,64.0
959,82.0,17.0,30.0,4.0,64.0
960,63.0,11.0,60.0,3.0,64.0
961,80.0,12.0,30.0,4.0,64.0
962,78.0,28.0,30.0,4.0,64.0
963,77.0,30.0,30.0,4.0,64.0
964,75.0,41.0,30.0,4.0,64.0
965,65.0,22.0,60.0,3.0,64.0
966,74.0,28.0,30.0,4.0,64.0
967,63.0,35.0,60.0,3.0,64.0
968,83.0,22.0,30.0,4.0,64.0
969,82.0,54.0,30.0,4.0,64.0
970,62.0,9.0,30.0,3.0,64.0
971,80.0,2.0,30.0,4.0,64.0
972,65.0,66.0,30.0,3.0,64.0
973,78.0,28.0,30.0,4.0,64.0
974,63.0,19.0,150.0,3.0,64.0
975,77.0,30.0,30.0,4.0,64.0
976,75.0,25.0,30.0,4.0,64.0
977,77.0,40.0,30.0,4.0,64.0
978,78.0,11.0,30.0,4.0,64.0
979,80.0,28.0,30.0,4.0,64.0
980,82.0,24.0,30.0,4.0,64.0
981,83.0,6.0,30.0,4.0,64.0
982,66.0,34.0,30.0,3.0,64.0
983,85.0,5.0,30.0,4.0,64.0
984,65.0,48.0,30.0,3.0,64.0
985,83.0,26.0,30.0,4.0,64.0
986,82.0,31.0,30.0,4.0,64.0
987,83.0,16.0,30.0,4.0,64.0
988,63.0,49.0,60.0,3.0,64.0
989,90.0,70.0,30.0,4.0,64.0
990,61.0,45.0,60.0,3.0,64.0
991,82.0,2.0,30.0,4.0,64.0
992,90.0,70.0,20.0,4.0,64.0
993,59.0,52.0,60.0,3.0,64.0
994,80.0,6.0,30.0,4.0,64.0
995,89.0,58.0,30.0,4.0,64.0
996,59.0,19.0,60.0,3.0,64.0
997,90.0,10.0,30.0,4.0,64.0
998,58.0,27.0,20.0,3.0,64.0
999,59.0,8.0,30.0,3.0,64.0
1000,73.0,23.0,30.0,4.0,64.0
1001,58.0,35.0,30.0,3.0,64.0
1002,56.0,39.0,60.0,3.0,64.0
1003,71.0,20.0,30.0,4.0,64.0
1004,58.0,61.0,60.0,3.0,64.0
1005,73.0,5.0,30.0,4.0,64.0
1006,54.0,17.0,240.0,3.0,64.0
1007,70.0,53.0,30.0,4.0,64.0
1008,85.0,67.0,30.0,4.0,64.0
1009,68.0,48.0,30.0,4.0,64.0
1010,83.0,45.0,30.0,4.0,64.0
1011,66.0,60.0,30.0,4.0,64.0
1012,82.0,27.0,30.0,4.0,64.0
1013,83.0,24.0,30.0,4.0,64.0
1014,85.0,68.0,30.0,4.0,64.0
1015,82.0,99.0,30.0,4.0,64.0
1016,78.0,46.0,60.0,4.0,64.0
1017,66.0,15.0,150.0,3.0,64.0
1018,82.0,37.0,60.0,4.0,64.0
1019,85.0,48.0,60.0,4.0,64.0
1020,90.0,19.0,30.0,4.0,64.0
1021,70.0,42.0,30.0,3.0,64.0
1022,84.0,8.0,30.0,4.0,64.0
1023,68.0,52.0,60.0,3.0,64.0
1024,80.0,66.0,30.0,4.0,64.0
1025,66.0,45.0,60.0,3.0,64.0
1026,87.0,8.0,30.0,4.0,64.0
1027,80.0,65.0,30.0,4.0,64.0
1028,66.0,34.0,60.0,3.0,64.0
1029,85.0,22.0,30.0,4.0,64.0
1030,80.0,58.0,30.0,4.0,64.0
1031,65.0,44.0,120.0,3.0,64.0
1032,84.0,10.0,30.0,4.0,64.0
1033,66.0,2.0,30.0,3.0,64.0
1034,80.0,12.0,30.0,4.0,64.0
1035,68.0,63.0,30.0,3.0,64.0
1036,85.0,33.0,60.0,4.0,64.0
1037,66.0,8.0,90.0,3.0,64.0
1038,84.0,11.0,60.0,4.0,64.0
1039,82.0,12.0,60.0,4.0,64.0
1040,80.0,22.0,30.0,4.0,64.0
1041,65.0,15.0,90.0,3.0,64.0
1042,78.0,31.0,30.0,4.0,64.0
1043,77.0,21.0,30.0,4.0,64.0
1044,75.0,20.0,30.0,4.0,64.0
1045,73.0,33.0,30.0,4.0,64.0
1046,68.0,13.0,30.0,3.0,64.0
1047,75.0,23.0,30.0,4.0,64.0
1048,66.0,36.0,30.0,3.0,64.0
1049,78.0,66.0,30.0,4.0,64.0
1050,80.0,24.0,30.0,4.0,64.0
1051,65.0,31.0,60.0,3.0,64.0
1052,83.0,51.0,30.0,4.0,64.0
1053,65.0,18.0,20.0,3.0,64.0
1054,89.0,14.0,30.0,4.0,64.0
1055,63.0,8.0,20.0,3.0,64.0
1056,65.0,33.0,20.0,3.0,64.0
1057,63.0,13.0,30.0,3.0,64.0
1058,83.0,73.0,30.0,4.0,64.0
1059,62.0,37.0,60.0,3.0,64.0
1060,82.0,3.0,60.0,4.0,64.0
1061,80.0,80.0,20.0,4.0,64.0
1062,63.0,8.0,150.0,3.0,64.0
1063,78.0,31.0,30.0,4.0,64.0
1064,75.0,22.0,30.0,4.0,64.0
1065,74.0,23.0,30.0,4.0,64.0
1066,75.0,22.0,30.0,4.0,64.0
1067,77.0,37.0,30.0,4.0,64.0
1068,78.0,3.0,30.0,4.0,64.0
1069,65.0,15.0,30.0,3.0,64.0
1070,66.0,5.0,30.0,3.0,64.0
1071,80.0,15.0,30.0,4.0,64.0
1072,82.0,40.0,15.0,4.0,64.0
1073,65.0,18.0,90.0,3.0,64.0
1074,80.0,32.0,30.0,4.0,64.0
1075,77.0,12.0,30.0,4.0,64.0
1076,75.0,24.0,30.0,4.0,64.0
1077,77.0,32.0,30.0,4.0,64.0
1078,70.0,2.0,60.0,3.0,64.0
1079,78.0,26.0,30.0,4.0,64.0
1080,80.0,28.0,30.0,4.0,64.0
1081,82.0,21.0,30.0,4.0,64.0
1082,83.0,48.0,30.0,4.0,64.0
1083,68.0,39.0,60.0,3.0,64.0
1084,82.0,16.0,30.0,4.0,64.0
1085,66.0,52.0,60.0,3.0,64.0
1086,87.0,15.0,30.0,4.0,64.0
1087,65.0,46.0,60.0,3.0,64.0
1088,89.0,1.0,30.0,4.0,64.0
1089,63.0,9.0,30.0,3.0,64.0
1090,90.0,63.0,30.0,4.0,64.0
1091,65.0,39.0,60.0,3.0,64.0
1092,92.0,20.0,30.0,4.0,64.0
1093,63.0,2.0,60.0,3.0,64.0
1094,83.0,44.0,30.0,4.0,64.0
1095,62.0,11.0,30.0,3.0,64.0
1096,82.0,47.0,30.0,4.0,64.0
1097,60.0,5.0,30.0,3.0,64.0
1098,80.0,69.0,30.0,4.0,64.0
1099,82.0,52.0,30.0,4.0,64.0
1100,58.0,28.0,360.0,3.0,64.0
1101,90.0,64.0,30.0,4.0,64.0
1102,80.0,54.0,30.0,4.0,64.0
1103,89.0,73.0,30.0,4.0,64.0
1104,78.0,38.0,60.0,4.0,64.0
1105,87.0,47.0,30.0,4.0,64.0
1106,77.0,49.0,30.0,4.0,64.0
1107,86.0,116.0,30.0,4.0,64.0
1108,63.0,11.0,150.0,3.0,64.0
1109,75.0,40.0,60.0,4.0,64.0
1110,78.0,39.0,60.0,4.0,64.0
1111,82.0,55.0,60.0,4.0,64.0
1112,87.0,11.0,30.0,4.0,64.0
1113,66.0,52.0,30.0,3.0,64.0
1114,65.0,0.0,60.0,3.0,64.0
1115,86.0,47.0,30.0,4.0,64.0
1116,82.0,58.0,30.0,4.0,64.0
1117,63.0,11.0,30.0,3.0,64.0
1118,87.0,50.0,30.0,4.0,64.0
1119,82.0,75.0,30.0,4.0,64.0
1120,63.0,14.0,90.0,3.0,64.0
1121,89.0,27.0,60.0,4.0,64.0
1122,82.0,67.0,30.0,4.0,64.0
1123,62.0,5.0,90.0,3.0,64.0
1124,89.0,46.0,30.0,4.0,64.0
1125,63.0,5.0,30.0,3.0,64.0
1126,90.0,16.0,30.0,4.0,64.0
1127,65.0,62.0,30.0,3.0,64.0
1128,92.0,27.0,30.0,4.0,64.0
1129,58.0,61.0,150.0,3.0,64.0
1130,90.0,22.0,60.0,4.0,64.0
1131,89.0,25.0,30.0,4.0,64.0
1132,87.0,27.0,30.0,4.0,64.0
1133,86.0,7.0,30.0,4.0,64.0
1134,83.0,16.0,30.0,4.0,64.0
1135,63.0,36.0,30.0,3.0,64.0
1136,62.0,53.0,60.0,3.0,64.0
1137,82.0,15.0,30.0,4.0,64.0
1138,92.0,63.0,30.0,4.0,64.0
1139,63.0,3.0,30.0,3.0,64.0
1140,90.0,51.0,30.0,4.0,64.0
1141,87.0,72.0,30.0,4.0,64.0
1142,58.0,14.0,150.0,3.0,64.0
1143,88.0,35.0,60.0,4.0,64.0
1144,85.0,54.0,30.0,4.0,64.0
1145,79.0,47.0,30.0,4.0,64.0
1146,59.0,19.0,30.0,3.0,64.0
1147,88.0,3.0,20.0,4.0,64.0
1148,61.0,68.0,30.0,3.0,64.0
1149,87.0,32.0,60.0,4.0,64.0
1150,61.0,10.0,90.0,3.0,64.0
1151,85.0,6.0,60.0,4.0,64.0
1152,83.0,24.0,30.0,4.0,64.0
1153,59.0,48.0,90.0,3.0,64.0
1154,82.0,38.0,30.0,4.0,64.0
1155,80.0,13.0,30.0,4.0,64.0
1156,83.0,14.0,30.0,4.0,64.0
1157,68.0,44.0,30.0,3.0,64.0
1158,82.0,21.0,30.0,4.0,64.0
1159,62.0,35.0,60.0,3.0,64.0
1160,77.0,70.0,30.0,4.0,64.0
1161,63.0,46.0,60.0,3.0,64.0
1162,78.0,11.0,30.0,4.0,64.0
1163,75.0,65.0,30.0,4.0,64.0
1164,58.0,55.0,60.0,3.0,64.0
1165,77.0,5.0,30.0,4.0,64.0
1166,80.0,57.0,30.0,4.0,64.0
1167,56.0,36.0,60.0,3.0,64.0
1168,82.0,20.0,30.0,4.0,64.0
1169,86.0,62.0,30.0,4.0,64.0
1170,56.0,22.0,60.0,3.0,64.0
1171,87.0,6.0,30.0,4.0,64.0
1172,54.0,19.0,30.0,3.0,64.0
1173,82.0,15.0,30.0,4.0,64.0
1174,56.0,12.0,20.0,3.0,64.0
1175,54.0,43.0,30.0,3.0,64.0
1176,53.0,42.0,60.0,3.0,64.0
1177,80.0,16.0,30.0,4.0,64.0
1178,54.0,56.0,60.0,3.0,64.0
1179,82.0,13.0,30.0,4.0,64.0
1180,51.0,14.0,270.0,3.0,64.0
1181,78.0,60.0,30.0,4.0,64.0
1182,82.0,15.0,30.0,4.0,64.0
1183,80.0,23.0,30.0,4.0,64.0
1184,78.0,32.0,30.0,4.0,64.0
1185,77.0,31.0,30.0,4.0,64.0
1186,75.0,24.0,30.0,4.0,64.0
1187,74.0,29.0,30.0,4.0,64.0
1188,75.0,58.0,30.0,4.0,64.0
1189,83.0,65.0,30.0,4.0,64.0
1190,82.0,54.0,30.0,4.0,64.0
1191,80.0,86.0,30.0,4.0,64.0
1192,66.0,6.0,150.0,3.0,64.0
1193,78.0,57.0,60.0,4.0,64.0
1194,82.0,44.0,60.0,4.0,64.0
1195,85.0,57.0,30.0,4.0,64.0
1196,90.0,18.0,30.0,4.0,64.0
1197,70.0,45.0,30.0,3.0,64.0
1198,68.0,62.0,30.0,3.0,64.0
1199,84.0,1.0,30.0,4.0,64.0
1200,80.0,61.0,30.0,4.0,64.0
1201,66.0,45.0,60.0,3.0,64.0
1202,87.0,8.0,30.0,4.0,64.0
1203,80.0,60.0,30.0,4.0,64.0
1204,66.0,6.0,60.0,3.0,64.0
1205,85.0,14.0,60.0,4.0,64.0
1206,65.0,18.0,20.0,3.0,64.0
1207,66.0,14.0,20.0,3.0,64.0
1208,80.0,6.0,30.0,4.0,64.0
1209,65.0,20.0,20.0,3.0,64.0
1210,66.0,44.0,20.0,3.0,64.0
1211,65.0,36.0,60.0,3.0,64.0
1212,84.0,7.0,30.0,4.0,64.0
1213,66.0,8.0,30.0,3.0,64.0
1214,80.0,8.0,30.0,4.0,64.0
1215,68.0,71.0,20.0,3.0,64.0
1216,66.0,3.0,90.0,3.0,64.0
1217,85.0,28.0,60.0,4.0,64.0
1218,84.0,18.0,60.0,4.0,64.0
1219,82.0,11.0,60.0,4.0,64.0
1220,65.0,29.0,90.0,3.0,64.0
1221,80.0,23.0,30.0,4.0,64.0
1222,78.0,32.0,30.0,4.0,64.0
1223,77.0,7.0,30.0,4.0,64.0
1224,75.0,21.0,30.0,4.0,64.0
1225,73.0,13.0,30.0,4.0,64.0
1226,68.0,35.0,30.0,3.0,64.0
1227,75.0,14.0,30.0,4.0,64.0
1228,66.0,48.0,60.0,3.0,64.0
1229,78.0,57.0,30.0,4.0,64.0
1230,80.0,31.0,30.0,4.0,64.0
1231,65.0,19.0,60.0,3.0,64.0
1232,83.0,51.0,30.0,4.0,64.0
1233,65.0,21.0,20.0,3.0,64.0
1234,89.0,20.0,30.0,4.0,64.0
1235,63.0,2.0,20.0,3.0,64.0
1236,65.0,29.0,30.0,3.0,64.0
1237,63.0,45.0,30.0,3.0,64.0
1238,83.0,3.0,30.0,4.0,64.0
1239,83.0,16.0,20.0,4.0,64.0
1240,62.0,16.0,60.0,3.0,64.0
1241,82.0,24.0,15.0,4.0,64.0
1242,83.0,2.0,20.0,4.0,64.0
1243,82.0,15.0,30.0,4.0,64.0
1244,80.0,65.0,30.0,4.0,64.0
1245,78.0,29.0,30.0,4.0,64.0
1246,63.0,25.0,150.0,3.0,64.0
1247,75.0,26.0,30.0,4.0,64.0
1248,74.0,27.0,30.0,4.0,64.0
1249,75.0,26.0,30.0,4.0,64.0
1250,77.0,15.0,30.0,4.0,64.0
1251,78.0,22.0,30.0,4.0,64.0
1252,65.0,2.0,30.0,3.0,64.0
1253,80.0,16.0,30.0,4.0,64.0
1254,66.0,42.0,30.0,3.0,64.0
1255,82.0,1.0,20.0,4.0,64.0
1256,80.0,30.0,30.0,4.0,64.0
1257,65.0,3.0,120.0,3.0,64.0
1258,77.0,34.0,30.0,4.0,64.0
1259,75.0,23.0,30.0,4.0,64.0
1260,77.0,35.0,30.0,4.0,64.0
1261,66.0,1.0,30.0,3.0,64.0
1262,78.0,26.0,30.0,4.0,64.0
1263,80.0,27.0,30.0,4.0,64.0
1264,82.0,20.0,30.0,4.0,64.0
1265,70.0,3.0,30.0,3.0,64.0
1266,83.0,48.0,30.0,4.0,64.0
1267,82.0,38.0,30.0,4.0,64.0
1268,68.0,22.0,60.0,3.0,64.0
1269,87.0,11.0,30.0,4.0,64.0
1270,66.0,44.0,30.0,3.0,64.0
1271,65.0,14.0,30.0,3.0,64.0
1272,89.0,46.0,30.0,4.0,64.0
1273,63.0,10.0,30.0,3.0,64.0
1274,90.0,67.0,30.0,4.0,64.0
1275,65.0,30.0,60.0,3.0,64.0
1276,92.0,19.0,30.0,4.0,64.0
1277,63.0,6.0,30.0,3.0,64.0
1278,83.0,48.0,30.0,4.0,64.0
1279,62.0,7.0,30.0,3.0,64.0
1280,82.0,27.0,30.0,4.0,64.0
1281,63.0,23.0,30.0,3.0,64.0
1282,62.0,8.0,30.0,3.0,64.0
1283,80.0,18.0,30.0,4.0,64.0
1284,60.0,48.0,30.0,3.0,64.0
1285,82.0,54.0,30.0,4.0,64.0
1286,58.0,53.0,360.0,3.0,64.0
1287,90.0,68.0,30.0,4.0,64.0
1288,80.0,52.0,30.0,4.0,64.0
1289,89.0,70.0,30.0,4.0,64.0
1290,78.0,44.0,60.0,4.0,64.0
1291,87.0,28.0,30.0,4.0,64.0
1292,77.0,34.0,60.0,4.0,64.0
1293,86.0,111.0,30.0,4.0,64.0
1294,63.0,21.0,150.0,3.0,64.0
1295,75.0,48.0,60.0,4.0,64.0
1296,78.0,26.0,60.0,4.0,64.0
1297,82.0,56.0,30.0,4.0,64.0
1298,87.0,3.0,30.0,4.0,64.0
1299,66.0,65.0,30.0,3.0,64.0
1300,65.0,46.0,60.0,3.0,64.0
1301,86.0,2.0,60.0,4.0,64.0
1302,82.0,68.0,30.0,4.0,64.0
1303,63.0,36.0,60.0,3.0,64.0
1304,87.0,10.0,30.0,4.0,64.0
1305,82.0,67.0,30.0,4.0,64.0
1306,63.0,8.0,60.0,3.0,64.0
1307,89.0,9.0,30.0,4.0,64.0
1308,62.0,23.0,20.0,3.0,64.0
1309,63.0,5.0,20.0,3.0,64.0
1310,82.0,10.0,30.0,4.0,64.0
1311,62.0,28.0,20.0,3.0,64.0
1312,63.0,38.0,30.0,3.0,64.0
1313,62.0,32.0,60.0,3.0,64.0
1314,89.0,12.0,30.0,4.0,64.0
1315,63.0,4.0,30.0,3.0,64.0
1316,90.0,21.0,30.0,4.0,64.0
1317,65.0,54.0,30.0,3.0,64.0
1318,92.0,25.0,30.0,4.0,64.0
1319,58.0,62.0,150.0,3.0,64.0
1320,90.0,23.0,30.0,4.0,64.0
1321,89.0,29.0,30.0,4.0,64.0
1322,87.0,28.0,30.0,4.0,64.0
1323,86.0,4.0,30.0,4.0,64.0
1324,83.0,19.0,30.0,4.0,64.0
1325,63.0,42.0,30.0,3.0,64.0
1326,62.0,56.0,60.0,3.0,64.0
1327,82.0,6.0,30.0,4.0,64.0
1328,92.0,66.0,30.0,4.0,64.0
1329,63.0,45.0,60.0,3.0,64.0
1330,90.0,9.0,30.0,4.0,64.0
1331,87.0,75.0,30.0,4.0,64.0
1332,58.0,7.0,150.0,3.0,64.0
1333,88.0,42.0,60.0,4.0,64.0
1334,85.0,58.0,30.0,4.0,64.0
1335,79.0,40.0,30.0,4.0,64.0
1336,59.0,4.0,30.0,3.0,64.0
1337,88.0,14.0,20.0,4.0,64.0
1338,61.0,72.0,30.0,3.0,64.0
1339,61.0,12.0,90.0,3.0,64.0
1340,87.0,34.0,30.0,4.0,64.0
1341,85.0,5.0,60.0,4.0,64.0
1342,83.0,23.0,30.0,4.0,64.0
1343,59.0,44.0,90.0,3.0,64.0
1344,82.0,37.0,30.0,4.0,64.0
1345,80.0,12.0,30.0,4.0,64.0
1346,83.0,6.0,30.0,4.0,64.0
1347,68.0,54.0,30.0,3.0,64.0
1348,62.0,39.0,60.0,3.0,64.0
1349,82.0,22.0,30.0,4.0,64.0
1350,77.0,68.0,30.0,4.0,64.0
1351,63.0,49.0,60.0,3.0,64.0
1352,78.0,5.0,30.0,4.0,64.0
1353,75.0,63.0,30.0,4.0,64.0
1354,58.0,45.0,60.0,3.0,64.0
1355,77.0,11.0,30.0,4.0,64.0
1356,80.0,66.0,30.0,4.0,64.0
1357,56.0,49.0,60.0,3.0,64.0
1358,82.0,7.0,30.0,4.0,64.0
1359,86.0,57.0,30.0,4.0,64.0
1360,56.0,19.0,60.0,3.0,64.0
1361,87.0,4.0,30.0,4.0,64.0
1362,54.0,24.0,20.0,3.0,64.0
1363,56.0,19.0,30.0,3.0,64.0
1364,82.0,16.0,30.0,4.0,64.0
1365,54.0,34.0,30.0,3.0,64.0
1366,53.0,33.0,60.0,3.0,64.0
1367,80.0,22.0,30.0,4.0,64.0
1368,54.0,45.0,60.0,3.0,64.0
1369,82.0,25.0,30.0,4.0,64.0
1370,78.0,59.0,30.0,4.0,64.0
1371,51.0,128.0,390.0,3.0,64.0
1372,75.0,68.0,30.0,4.0,64.0
1373,78.0,61.0,30.0,4.0,64.0
1374,82.0,158.0,30.0,4.0,64.0
1375,87.0,3.0,120.0,4.0,64.0
1376,75.0,15.0,150.0,0.0,64.0
1377,70.0,10.0,30.0,1.0,64.0
1378,87.0,3.0,150.0,4.0,64.0
1379,63.0,9.0,30.0,2.0,64.0
1380,54.0,93.0,30.0,3.0,64.0
1381,66.0,0.0,30.0,1.0,64.0
1382,70.0,5.0,30.0,2.0,64.0
1383,51.0,58.0,30.0,3.0,64.0
1384,78.0,4.0,30.0,0.0,64.0
1385,90.0,48.0,30.0,4.0,64.0
1386,77.0,2.0,30.0,0.0,64.0
1387,89.0,0.0,30.0,4.0,64.0
1388,71.0,7.0,30.0,1.0,64.0
1389,56.0,1.0,60.0,3.0,64.0
1390,68.0,114.0,30.0,2.0,64.0
1391,75.0,1.0,60.0,0.0,64.0
1392,87.0,0.0,60.0,4.0,64.0
1393,59.0,115.0,60.0,3.0,64.0
1394,68.0,0.0,30.0,2.0,64.0
1395,63.0,3.0,30.0,1.0,64.0
1396,87.0,93.0,60.0,4.0,64.0
1397,75.0,1.0,60.0,0.0,64.0
1398,58.0,1.0,30.0,3.0,64.0
1399,65.0,22.0,30.0,1.0,64.0
1400,70.0,0.0,30.0,2.0,64.0
1401,74.0,3.0,120.0,0.0,64.0
1402,86.0,31.0,120.0,4.0,64.0
1403,65.0,1.0,30.0,2.0,64.0
1404,70.0,5.0,30.0,1.0,64.0
1405,56.0,11.0,60.0,3.0,64.0
1406,87.0,5.0,30.0,4.0,64.0
1407,75.0,15.0,30.0,0.0,64.0
1408,89.0,2.0,30.0,4.0,64.0
1409,77.0,45.0,20.0,0.0,64.0
1410,54.0,106.0,60.0,3.0,64.0
1411,70.0,2.0,30.0,1.0,64.0
1412,66.0,5.0,30.0,2.0,64.0
1413,75.0,4.0,150.0,0.0,64.0
1414,87.0,64.0,150.0,4.0,64.0
1415,70.0,10.0,30.0,2.0,64.0
1416,51.0,7.0,60.0,3.0,64.0
1417,75.0,0.0,30.0,1.0,64.0
1418,78.0,4.0,30.0,0.0,64.0
1419,90.0,36.0,30.0,4.0,64.0
1420,58.0,5.0,60.0,3.0,64.0
1421,68.0,2.0,60.0,2.0,64.0
1422,74.0,6.0,30.0,1.0,64.0
1423,89.0,2.0,30.0,4.0,64.0
1424,77.0,101.0,60.0,0.0,64.0
1425,59.0,113.0,60.0,3.0,64.0
1426,66.0,5.0,30.0,2.0,64.0
1427,75.0,5.0,30.0,1.0,64.0
1428,87.0,2.0,30.0,4.0,64.0
1429,75.0,5.0,30.0,0.0,64.0
1430,77.0,43.0,90.0,0.0,64.0
1431,89.0,8.0,60.0,4.0,64.0
1432,56.0,21.0,60.0,3.0,64.0
1433,68.0,0.0,30.0,2.0,64.0
1434,71.0,3.0,30.0,1.0,64.0
1435,87.0,1.0,60.0,4.0,64.0
1436,75.0,28.0,60.0,0.0,64.0
1437,65.0,1.0,30.0,2.0,64.0
1438,58.0,30.0,60.0,3.0,64.0
1439,70.0,10.0,30.0,1.0,64.0
1440,74.0,2.0,30.0,0.0,64.0
1441,86.0,6.0,30.0,4.0,64.0
1442,89.0,6.0,20.0,4.0,64.0
1443,77.0,81.0,20.0,0.0,64.0
1444,66.0,4.0,30.0,2.0,64.0
1445,70.0,9.0,30.0,1.0,64.0
1446,54.0,96.0,60.0,3.0,64.0
1447,87.0,1.0,150.0,4.0,64.0
1448,75.0,14.0,150.0,0.0,64.0
1449,70.0,9.0,60.0,2.0,64.0
1450,75.0,0.0,30.0,1.0,64.0
1451,51.0,59.0,60.0,3.0,64.0
1452,78.0,46.0,30.0,0.0,64.0
1453,90.0,0.0,30.0,4.0,64.0
1454,89.0,3.0,30.0,4.0,64.0
1455,77.0,1.0,60.0,0.0,64.0
1456,68.0,103.0,60.0,2.0,64.0
1457,71.0,8.0,30.0,1.0,64.0
1458,56.0,1.0,30.0,3.0,64.0
1459,87.0,4.0,30.0,4.0,64.0
1460,75.0,3.0,30.0,0.0,64.0
1461,70.0,6.0,60.0,2.0,64.0
1462,70.0,1.0,30.0,1.0,64.0
1463,54.0,59.0,60.0,3.0,64.0
1464,71.0,52.0,20.0,2.0,64.0
1465,85.0,0.0,60.0,4.0,64.0
1466,73.0,2.0,60.0,2.0,64.0
1467,73.0,1.0,60.0,0.0,64.0
1468,68.0,116.0,60.0,1.0,64.0
1469,53.0,1.0,30.0,3.0,64.0
1470,65.0,3.0,60.0,2.0,64.0
1471,83.0,4.0,60.0,4.0,64.0
1472,71.0,111.0,60.0,0.0,64.0
1473,68.0,0.0,30.0,1.0,64.0
1474,49.0,0.0,30.0,3.0,64.0
1475,68.0,7.0,60.0,1.0,64.0
1476,83.0,2.0,60.0,4.0,64.0
1477,63.0,8.0,60.0,2.0,64.0
1478,71.0,0.0,60.0,0.0,64.0
1479,54.0,44.0,330.0,3.0,64.0
1480,82.0,4.0,20.0,4.0,64.0
1481,61.0,5.0,20.0,2.0,64.0
1482,66.0,6.0,20.0,1.0,64.0
1483,70.0,4.0,20.0,0.0,64.0
1484,83.0,3.0,20.0,4.0,64.0
1485,63.0,10.0,20.0,2.0,64.0
1486,71.0,12.0,30.0,0.0,64.0
1487,68.0,3.0,20.0,1.0,64.0
1488,61.0,2.0,20.0,2.0,64.0
1489,82.0,2.0,15.0,4.0,64.0
1490,70.0,5.0,30.0,0.0,64.0
1491,66.0,47.0,30.0,1.0,64.0
1492,83.0,0.0,20.0,4.0,64.0
1493,63.0,14.0,15.0,2.0,64.0
1494,61.0,1.0,30.0,2.0,64.0
1495,82.0,1.0,30.0,4.0,64.0
1496,68.0,0.0,60.0,0.0,64.0
1497,59.0,3.0,60.0,2.0,64.0
1498,65.0,42.0,60.0,1.0,64.0
1499,80.0,2.0,60.0,4.0,64.0
1500,70.0,4.0,60.0,0.0,64.0
1501,82.0,6.0,60.0,4.0,64.0
1502,61.0,5.0,60.0,2.0,64.0
1503,66.0,105.0,60.0,1.0,64.0
1504,78.0,6.0,240.0,4.0,64.0
1505,66.0,2.0,240.0,0.0,64.0
1506,58.0,9.0,240.0,2.0,64.0
1507,61.0,111.0,270.0,1.0,64.0
1508,49.0,56.0,30.0,3.0,64.0
1509,46.0,45.0,30.0,3.0,64.0
1510,42.0,142.0,120.0,3.0,64.0
1511,54.0,0.0,60.0,3.0,64.0
1512,63.0,106.0,30.0,2.0,64.0
1513,87.0,11.0,150.0,4.0,64.0
1514,70.0,11.0,30.0,1.0,64.0
1515,75.0,5.0,150.0,0.0,64.0
1516,70.0,4.0,30.0,2.0,64.0
1517,66.0,1.0,30.0,1.0,64.0
1518,51.0,60.0,60.0,3.0,64.0
1519,78.0,3.0,30.0,0.0,64.0
1520,90.0,42.0,30.0,4.0,64.0
1521,77.0,4.0,60.0,0.0,64.0
1522,89.0,1.0,60.0,4.0,64.0
1523,68.0,6.0,60.0,2.0,64.0
1524,71.0,5.0,30.0,1.0,64.0
1525,56.0,111.0,60.0,3.0,64.0
1526,75.0,2.0,60.0,0.0,64.0
1527,87.0,3.0,60.0,4.0,64.0
1528,59.0,100.0,60.0,3.0,64.0
1529,68.0,1.0,30.0,2.0,64.0
1530,63.0,3.0,30.0,1.0,64.0
1531,87.0,0.0,60.0,4.0,64.0
1532,75.0,5.0,30.0,0.0,64.0
1533,65.0,3.0,30.0,1.0,64.0
1534,58.0,5.0,30.0,3.0,64.0
1535,70.0,4.0,30.0,2.0,64.0
1536,74.0,7.0,20.0,0.0,64.0
1537,86.0,15.0,20.0,4.0,64.0
1538,75.0,6.0,20.0,0.0,64.0
1539,87.0,7.0,20.0,4.0,64.0
1540,74.0,9.0,20.0,0.0,64.0
1541,86.0,14.0,20.0,4.0,64.0
1542,75.0,21.0,30.0,0.0,64.0
1543,87.0,23.0,30.0,4.0,64.0
1544,74.0,6.0,90.0,0.0,64.0
1545,70.0,12.0,30.0,1.0,64.0
1546,86.0,22.0,60.0,4.0,64.0
1547,56.0,0.0,60.0,3.0,64.0
1548,65.0,15.0,30.0,2.0,64.0
1549,87.0,4.0,30.0,4.0,64.0
1550,75.0,16.0,30.0,0.0,64.0
1551,89.0,48.0,30.0,4.0,64.0
1552,77.0,2.0,20.0,0.0,64.0
1553,70.0,7.0,30.0,1.0,64.0
1554,75.0,2.0,150.0,0.0,64.0
1555,54.0,100.0,60.0,3.0,64.0
1556,87.0,1.0,150.0,4.0,64.0
1557,66.0,5.0,30.0,2.0,64.0
1558,75.0,4.0,30.0,1.0,64.0
1559,70.0,10.0,30.0,2.0,64.0
1560,51.0,67.0,60.0,3.0,64.0
1561,78.0,43.0,30.0,0.0,64.0
1562,90.0,2.0,30.0,4.0,64.0
1563,58.0,103.0,60.0,3.0,64.0
1564,68.0,0.0,30.0,2.0,64.0
1565,74.0,4.0,30.0,1.0,64.0
1566,89.0,2.0,30.0,4.0,64.0
1567,77.0,5.0,60.0,0.0,64.0
1568,59.0,108.0,60.0,3.0,64.0
1569,75.0,4.0,30.0,1.0,64.0
1570,87.0,2.0,30.0,4.0,64.0
1571,75.0,3.0,60.0,0.0,64.0
1572,66.0,3.0,30.0,2.0,64.0
1573,71.0,8.0,30.0,1.0,64.0
1574,89.0,9.0,60.0,4.0,64.0
1575,77.0,48.0,60.0,0.0,64.0
1576,56.0,11.0,60.0,3.0,64.0
1577,68.0,4.0,30.0,2.0,64.0
1578,87.0,0.0,60.0,4.0,64.0
1579,75.0,30.0,60.0,0.0,64.0
1580,74.0,6.0,30.0,0.0,64.0
1581,70.0,11.0,30.0,1.0,64.0
1582,86.0,3.0,30.0,4.0,64.0
1583,58.0,36.0,60.0,3.0,64.0
1584,65.0,1.0,30.0,2.0,64.0
1585,77.0,88.0,20.0,0.0,64.0
1586,89.0,1.0,20.0,4.0,64.0
1587,70.0,0.0,60.0,1.0,64.0
1588,54.0,2.0,60.0,3.0,64.0
1589,66.0,102.0,60.0,2.0,64.0
1590,87.0,4.0,150.0,4.0,64.0
1591,75.0,4.0,150.0,0.0,64.0
1592,75.0,7.0,30.0,1.0,64.0
1593,70.0,2.0,60.0,2.0,64.0
1594,51.0,65.0,60.0,3.0,64.0
1595,78.0,44.0,30.0,0.0,64.0
1596,90.0,1.0,30.0,4.0,64.0
1597,77.0,1.0,60.0,0.0,64.0
1598,89.0,4.0,30.0,4.0,64.0
1599,71.0,8.0,30.0,1.0,64.0
1600,56.0,2.0,60.0,3.0,64.0
1601,68.0,103.0,60.0,2.0,64.0
1602,75.0,2.0,60.0,0.0,64.0
1603,87.0,4.0,30.0,4.0,64.0
1604,54.0,56.0,60.0,3.0,64.0
1605,70.0,6.0,30.0,1.0,64.0
1606,70.0,1.0,60.0,2.0,64.0
1607,71.0,54.0,20.0,2.0,64.0
1608,73.0,1.0,60.0,0.0,64.0
1609,85.0,1.0,30.0,4.0,64.0
1610,73.0,0.0,60.0,2.0,64.0
1611,53.0,0.0,30.0,3.0,64.0
1612,68.0,111.0,30.0,1.0,64.0
1613,71.0,3.0,60.0,0.0,64.0
1614,68.0,7.0,30.0,1.0,64.0
1615,49.0,1.0,30.0,3.0,64.0
1616,65.0,3.0,60.0,2.0,64.0
1617,83.0,107.0,60.0,4.0,64.0
1618,68.0,10.0,30.0,1.0,64.0
1619,71.0,5.0,60.0,0.0,64.0
1620,83.0,1.0,60.0,4.0,64.0
1621,63.0,1.0,60.0,2.0,64.0
1622,54.0,53.0,330.0,3.0,64.0
1623,66.0,9.0,20.0,1.0,64.0
1624,61.0,1.0,20.0,2.0,64.0
1625,70.0,6.0,20.0,0.0,64.0
1626,82.0,1.0,20.0,4.0,64.0
1627,68.0,18.0,20.0,1.0,64.0
1628,83.0,7.0,60.0,4.0,64.0
1629,63.0,0.0,30.0,2.0,64.0
1630,71.0,1.0,30.0,0.0,64.0
1631,66.0,4.0,20.0,1.0,64.0
1632,82.0,4.0,15.0,4.0,64.0
1633,61.0,3.0,30.0,2.0,64.0
1634,70.0,6.0,15.0,0.0,64.0
1635,68.0,7.0,20.0,1.0,64.0
1636,71.0,5.0,20.0,0.0,64.0
1637,66.0,7.0,30.0,1.0,64.0
1638,82.0,43.0,30.0,4.0,64.0
1639,70.0,0.0,20.0,0.0,64.0
1640,59.0,4.0,60.0,2.0,64.0
1641,65.0,4.0,60.0,1.0,64.0
1642,80.0,1.0,60.0,4.0,64.0
1643,68.0,39.0,60.0,0.0,64.0
1644,82.0,0.0,60.0,4.0,64.0
1645,70.0,11.0,60.0,0.0,64.0
1646,61.0,2.0,60.0,2.0,64.0
1647,66.0,101.0,60.0,1.0,64.0
1648,66.0,4.0,240.0,0.0,64.0
1649,78.0,8.0,240.0,4.0,64.0
1650,58.0,1.0,240.0,2.0,64.0
1651,61.0,120.0,240.0,1.0,64.0
1652,49.0,57.0,30.0,3.0,64.0
1653,46.0,35.0,30.0,3.0,64.0
1654,42.0,148.0,120.0,3.0,64.0
1655,61.0,2.0,30.0,2.0,64.0
1656,78.0,21.0,150.0,0.0,64.0
1657,73.0,91.0,60.0,1.0,64.0
1658,90.0,2.0,150.0,4.0,64.0
1659,58.0,0.0,30.0,3.0,64.0
1660,78.0,11.0,60.0,1.0,64.0
1661,73.0,4.0,30.0,2.0,64.0
1662,54.0,50.0,60.0,3.0,64.0
1663,82.0,50.0,30.0,0.0,64.0
1664,94.0,1.0,30.0,4.0,64.0
1665,80.0,4.0,60.0,0.0,64.0
1666,75.0,1.0,30.0,1.0,64.0
1667,92.0,5.0,60.0,4.0,64.0
1668,71.0,2.0,60.0,2.0,64.0
1669,59.0,106.0,30.0,3.0,64.0
1670,68.0,2.0,60.0,1.0,64.0
1671,78.0,4.0,60.0,0.0,64.0
1672,90.0,4.0,30.0,4.0,64.0
1673,75.0,5.0,30.0,2.0,64.0
1674,60.0,108.0,60.0,3.0,64.0
1675,73.0,6.0,60.0,1.0,64.0
1676,90.0,3.0,60.0,4.0,64.0
1677,78.0,89.0,60.0,0.0,64.0
1678,61.0,24.0,30.0,3.0,64.0
1679,68.0,0.0,30.0,2.0,64.0
1680,89.0,1.0,90.0,4.0,64.0
1681,77.0,41.0,90.0,0.0,64.0
1682,68.0,3.0,30.0,2.0,64.0
1683,72.0,1.0,30.0,1.0,64.0
1684,56.0,0.0,30.0,3.0,64.0
1685,90.0,9.0,30.0,4.0,64.0
1686,78.0,3.0,30.0,0.0,64.0
1687,92.0,10.0,20.0,4.0,64.0
1688,80.0,55.0,20.0,0.0,64.0
1689,73.0,5.0,60.0,1.0,64.0
1690,68.0,3.0,60.0,2.0,64.0
1691,78.0,86.0,60.0,0.0,64.0
1692,90.0,2.0,60.0,4.0,64.0
1693,61.0,22.0,60.0,3.0,64.0
1694,89.0,1.0,120.0,4.0,64.0
1695,77.0,52.0,120.0,0.0,64.0
1696,62.0,14.0,60.0,3.0,64.0
1697,77.0,2.0,30.0,1.0,64.0
1698,70.0,5.0,30.0,2.0,64.0
1699,80.0,0.0,30.0,0.0,64.0
1700,92.0,50.0,20.0,4.0,64.0
1701,78.0,1.0,60.0,0.0,64.0
1702,90.0,2.0,30.0,4.0,64.0
1703,63.0,117.0,60.0,3.0,64.0
1704,75.0,0.0,30.0,1.0,64.0
1705,70.0,2.0,30.0,2.0,64.0
1706,77.0,2.0,60.0,0.0,64.0
1707,89.0,2.0,60.0,4.0,64.0
1708,58.0,1.0,60.0,3.0,64.0
1709,74.0,2.0,30.0,1.0,64.0
1710,68.0,76.0,30.0,2.0,64.0
1711,77.0,4.0,20.0,0.0,64.0
1712,89.0,14.0,20.0,4.0,64.0
1713,63.0,1.0,60.0,3.0,64.0
1714,66.0,7.0,60.0,2.0,64.0
1715,70.0,3.0,30.0,1.0,64.0
1716,75.0,7.0,20.0,0.0,64.0
1717,87.0,10.0,20.0,4.0,64.0
1718,77.0,0.0,20.0,0.0,64.0
1719,89.0,17.0,30.0,4.0,64.0
1720,75.0,9.0,30.0,0.0,64.0
1721,87.0,78.0,30.0,4.0,64.0
1722,65.0,5.0,60.0,3.0,64.0
1723,74.0,115.0,60.0,0.0,64.0
1724,86.0,2.0,60.0,4.0,64.0
1725,65.0,0.0,30.0,2.0,64.0
1726,68.0,8.0,30.0,1.0,64.0
1727,75.0,9.0,150.0,0.0,64.0
1728,87.0,3.0,150.0,4.0,64.0
1729,63.0,4.0,60.0,2.0,64.0
1730,66.0,0.0,60.0,3.0,64.0
1731,70.0,99.0,60.0,1.0,64.0
1732,70.0,2.0,60.0,2.0,64.0
1733,63.0,19.0,60.0,3.0,64.0
1734,75.0,10.0,60.0,1.0,64.0
1735,89.0,8.0,20.0,4.0,64.0
1736,77.0,10.0,30.0,0.0,64.0
1737,90.0,6.0,20.0,4.0,64.0
1738,78.0,67.0,30.0,0.0,64.0
1739,77.0,30.0,120.0,0.0,64.0
1740,62.0,3.0,60.0,3.0,64.0
1741,89.0,2.0,120.0,4.0,64.0
1742,77.0,59.0,60.0,1.0,64.0
1743,70.0,1.0,60.0,2.0,64.0
1744,78.0,2.0,30.0,0.0,64.0
1745,63.0,1.0,30.0,3.0,64.0
1746,90.0,13.0,30.0,4.0,64.0
1747,75.0,3.0,30.0,1.0,64.0
1748,70.0,39.0,30.0,2.0,64.0
1749,94.0,6.0,30.0,4.0,64.0
1750,82.0,70.0,30.0,0.0,64.0
1751,75.0,2.0,30.0,1.0,64.0
1752,71.0,0.0,30.0,2.0,64.0
1753,92.0,0.0,60.0,4.0,64.0
1754,56.0,24.0,30.0,3.0,64.0
1755,80.0,18.0,60.0,0.0,64.0
1756,90.0,11.0,30.0,4.0,64.0
1757,78.0,63.0,30.0,0.0,64.0
1758,80.0,3.0,30.0,1.0,64.0
1759,63.0,8.0,30.0,2.0,64.0
1760,59.0,15.0,60.0,3.0,64.0
1761,89.0,8.0,60.0,4.0,64.0
1762,77.0,15.0,60.0,0.0,64.0
1763,87.0,8.0,30.0,4.0,64.0
1764,75.0,68.0,30.0,0.0,64.0
1765,74.0,13.0,60.0,1.0,64.0
1766,70.0,4.0,30.0,2.0,64.0
1767,77.0,20.0,60.0,0.0,64.0
1768,89.0,9.0,60.0,4.0,64.0
1769,58.0,88.0,330.0,3.0,64.0
1770,87.0,10.0,30.0,4.0,64.0
1771,75.0,64.0,30.0,0.0,64.0
1772,86.0,4.0,60.0,4.0,64.0
1773,74.0,26.0,60.0,0.0,64.0
1774,65.0,2.0,30.0,2.0,64.0
1775,70.0,19.0,30.0,1.0,64.0
1776,84.0,4.0,30.0,4.0,64.0
1777,72.0,103.0,30.0,0.0,64.0
1778,62.0,1.0,270.0,2.0,64.0
1779,82.0,0.0,270.0,4.0,64.0
1780,70.0,8.0,270.0,0.0,64.0
1781,65.0,21.0,270.0,1.0,64.0
1782,59.0,97.0,60.0,3.0,64.0
1783,58.0,120.0,60.0,3.0,64.0
1784,56.0,118.0,60.0,3.0,64.0
1785,75.0,0.0,150.0,0.0,64.0
1786,63.0,10.0,60.0,2.0,64.0
1787,87.0,9.0,150.0,4.0,64.0
1788,70.0,3.0,30.0,1.0,64.0
1789,54.0,90.0,60.0,3.0,64.0
1790,70.0,3.0,60.0,2.0,64.0
1791,66.0,14.0,30.0,1.0,64.0
1792,51.0,55.0,60.0,3.0,64.0
1793,78.0,4.0,30.0,0.0,64.0
1794,90.0,40.0,30.0,4.0,64.0
1795,77.0,1.0,60.0,0.0,64.0
1796,68.0,5.0,60.0,2.0,64.0
1797,89.0,7.0,30.0,4.0,64.0
1798,71.0,3.0,30.0,1.0,64.0
1799,56.0,107.0,60.0,3.0,64.0
1800,87.0,7.0,30.0,4.0,64.0
1801,75.0,5.0,60.0,0.0,64.0
1802,59.0,1.0,60.0,3.0,64.0
1803,63.0,5.0,60.0,1.0,64.0
1804,68.0,106.0,60.0,2.0,64.0
1805,87.0,6.0,60.0,4.0,64.0
1806,58.0,2.0,60.0,3.0,64.0
1807,65.0,14.0,60.0,1.0,64.0
1808,75.0,81.0,60.0,0.0,64.0
1809,70.0,5.0,30.0,2.0,64.0
1810,86.0,9.0,90.0,4.0,64.0
1811,74.0,3.0,90.0,0.0,64.0
1812,70.0,2.0,60.0,1.0,64.0
1813,65.0,1.0,60.0,2.0,64.0
1814,56.0,41.0,60.0,3.0,64.0
1815,87.0,7.0,30.0,4.0,64.0
1816,75.0,10.0,30.0,0.0,64.0
1817,89.0,12.0,20.0,4.0,64.0
1818,77.0,52.0,30.0,0.0,64.0
1819,70.0,1.0,60.0,1.0,64.0
1820,54.0,3.0,60.0,3.0,64.0
1821,82.0,3.0,150.0,4.0,64.0
1822,63.0,96.0,60.0,2.0,64.0
1823,70.0,10.0,150.0,0.0,64.0
1824,58.0,2.0,60.0,2.0,64.0
1825,51.0,65.0,60.0,3.0,64.0
1826,66.0,4.0,30.0,1.0,64.0
1827,75.0,14.0,30.0,0.0,64.0
1828,87.0,30.0,30.0,4.0,64.0
1829,74.0,6.0,60.0,0.0,64.0
1830,53.0,6.0,60.0,3.0,64.0
1831,65.0,3.0,60.0,2.0,64.0
1832,68.0,107.0,60.0,1.0,64.0
1833,86.0,0.0,30.0,4.0,64.0
1834,54.0,16.0,60.0,3.0,64.0
1835,75.0,5.0,30.0,0.0,64.0
1836,63.0,6.0,60.0,2.0,64.0
1837,70.0,37.0,60.0,1.0,64.0
1838,87.0,4.0,30.0,4.0,64.0
1839,68.0,55.0,20.0,1.0,64.0
1840,70.0,4.0,60.0,1.0,64.0
1841,63.0,3.0,60.0,2.0,64.0
1842,55.0,92.0,60.0,3.0,64.0
1843,70.0,1.0,150.0,0.0,64.0
1844,82.0,24.0,120.0,4.0,64.0
1845,67.0,0.0,30.0,1.0,64.0
1846,51.0,30.0,60.0,3.0,64.0
1847,63.0,8.0,30.0,2.0,64.0
1848,71.0,4.0,30.0,0.0,64.0
1849,83.0,10.0,30.0,4.0,64.0
1850,73.0,3.0,20.0,0.0,64.0
1851,85.0,68.0,20.0,4.0,64.0
1852,68.0,2.0,60.0,1.0,64.0
1853,56.0,4.0,60.0,3.0,64.0
1854,73.0,1.0,60.0,0.0,64.0
1855,63.0,16.0,60.0,2.0,64.0
1856,85.0,91.0,60.0,4.0,64.0
1857,71.0,3.0,90.0,0.0,64.0
1858,83.0,54.0,120.0,4.0,64.0
1859,71.0,6.0,60.0,1.0,64.0
1860,53.0,3.0,60.0,3.0,64.0
1861,68.0,2.0,60.0,2.0,64.0
1862,80.0,11.0,20.0,0.0,64.0
1863,92.0,48.0,30.0,4.0,64.0
1864,58.0,2.0,60.0,3.0,64.0
1865,74.0,16.0,60.0,0.0,64.0
1866,70.0,40.0,60.0,1.0,64.0
1867,86.0,0.0,60.0,4.0,64.0
1868,65.0,2.0,60.0,2.0,64.0
1869,71.0,7.0,30.0,1.0,64.0
1870,56.0,49.0,30.0,3.0,64.0
1871,70.0,47.0,60.0,1.0,64.0
1872,54.0,7.0,60.0,3.0,64.0
1873,87.0,2.0,30.0,4.0,64.0
1874,75.0,9.0,60.0,0.0,64.0
1875,63.0,0.0,30.0,2.0,64.0
1876,68.0,3.0,30.0,1.0,64.0
1877,56.0,52.0,30.0,3.0,64.0
1878,66.0,106.0,60.0,1.0,64.0
1879,70.0,2.0,60.0,0.0,64.0
1880,82.0,3.0,60.0,4.0,64.0
1881,58.0,0.0,30.0,3.0,64.0
1882,63.0,1.0,60.0,2.0,64.0
1883,68.0,2.0,60.0,0.0,64.0
1884,80.0,8.0,60.0,4.0,64.0
1885,62.0,7.0,30.0,2.0,64.0
1886,65.0,108.0,60.0,1.0,64.0
1887,46.0,1.0,60.0,3.0,64.0
1888,68.0,1.0,60.0,0.0,64.0
1889,65.0,0.0,60.0,1.0,64.0
1890,58.0,2.0,120.0,2.0,64.0
1891,80.0,18.0,30.0,4.0,64.0
1892,51.0,44.0,330.0,3.0,64.0
1893,66.0,0.0,20.0,0.0,64.0
1894,78.0,6.0,20.0,4.0,64.0
1895,63.0,15.0,30.0,1.0,64.0
1896,68.0,7.0,30.0,0.0,64.0
1897,80.0,0.0,20.0,4.0,64.0
1898,65.0,18.0,30.0,1.0,64.0
1899,78.0,12.0,30.0,4.0,64.0
1900,66.0,1.0,30.0,0.0,64.0
1901,63.0,39.0,30.0,1.0,64.0
1902,65.0,0.0,60.0,0.0,64.0
1903,77.0,37.0,60.0,4.0,64.0
1904,62.0,7.0,60.0,1.0,64.0
1905,56.0,5.0,60.0,2.0,64.0
1906,66.0,6.0,60.0,0.0,64.0
1907,78.0,126.0,60.0,4.0,64.0
1908,58.0,4.0,30.0,2.0,64.0
1909,63.0,1.0,30.0,1.0,64.0
1910,63.0,7.0,270.0,0.0,64.0
1911,75.0,2.0,240.0,4.0,64.0
1912,54.0,136.0,270.0,2.0,64.0
1913,63.0,0.0,240.0,1.0,64.0
1914,54.0,62.0,30.0,3.0,64.0
1915,58.0,34.0,30.0,3.0,64.0
1916,63.0,133.0,150.0,3.0,64.0
1917,73.0,3.0,60.0,1.0,64.0
1918,61.0,98.0,60.0,2.0,64.0
1919,78.0,8.0,150.0,0.0,64.0
1920,90.0,10.0,150.0,4.0,64.0
1921,58.0,2.0,30.0,3.0,64.0
1922,78.0,0.0,60.0,1.0,64.0
1923,73.0,7.0,30.0,2.0,64.0
1924,54.0,52.0,60.0,3.0,64.0
1925,82.0,7.0,30.0,0.0,64.0
1926,94.0,46.0,30.0,4.0,64.0
1927,80.0,8.0,30.0,0.0,64.0
1928,75.0,7.0,60.0,1.0,64.0
1929,92.0,2.0,60.0,4.0,64.0
1930,59.0,2.0,60.0,3.0,64.0
1931,71.0,100.0,60.0,2.0,64.0
1932,78.0,10.0,30.0,0.0,64.0
1933,68.0,0.0,60.0,1.0,64.0
1934,75.0,3.0,60.0,2.0,64.0
1935,60.0,102.0,60.0,3.0,64.0
1936,90.0,2.0,30.0,4.0,64.0
1937,78.0,11.0,30.0,0.0,64.0
1938,90.0,14.0,60.0,4.0,64.0
1939,73.0,0.0,30.0,1.0,64.0
1940,68.0,4.0,30.0,2.0,64.0
1941,61.0,0.0,30.0,3.0,64.0
1942,77.0,1.0,20.0,0.0,64.0
1943,89.0,8.0,15.0,4.0,64.0
1944,78.0,13.0,20.0,0.0,64.0
1945,77.0,1.0,20.0,0.0,64.0
1946,90.0,14.0,20.0,4.0,64.0
1947,89.0,4.0,20.0,4.0,64.0
1948,78.0,14.0,20.0,0.0,64.0
1949,77.0,8.0,60.0,0.0,64.0
1950,90.0,44.0,20.0,4.0,64.0
1951,89.0,27.0,60.0,4.0,64.0
1952,72.0,1.0,30.0,1.0,64.0
1953,56.0,2.0,30.0,3.0,64.0
1954,68.0,1.0,30.0,2.0,64.0
1955,78.0,2.0,30.0,0.0,64.0
1956,90.0,11.0,20.0,4.0,64.0
1957,80.0,6.0,20.0,0.0,64.0
1958,92.0,64.0,20.0,4.0,64.0
1959,78.0,3.0,60.0,0.0,64.0
1960,90.0,91.0,60.0,4.0,64.0
1961,73.0,2.0,60.0,1.0,64.0
1962,61.0,14.0,60.0,3.0,64.0
1963,68.0,2.0,30.0,2.0,64.0
1964,77.0,48.0,120.0,0.0,64.0
1965,89.0,8.0,120.0,4.0,64.0
1966,70.0,4.0,30.0,2.0,64.0
1967,62.0,5.0,60.0,3.0,64.0
1968,77.0,6.0,30.0,1.0,64.0
1969,80.0,3.0,20.0,0.0,64.0
1970,92.0,50.0,20.0,4.0,64.0
1971,90.0,3.0,60.0,4.0,64.0
1972,78.0,4.0,60.0,0.0,64.0
1973,63.0,115.0,60.0,3.0,64.0
1974,70.0,1.0,60.0,2.0,64.0
1975,75.0,2.0,30.0,1.0,64.0
1976,77.0,1.0,60.0,0.0,64.0
1977,89.0,74.0,60.0,4.0,64.0
1978,58.0,3.0,60.0,3.0,64.0
1979,68.0,1.0,60.0,2.0,64.0
1980,74.0,2.0,30.0,1.0,64.0
1981,89.0,4.0,15.0,4.0,64.0
1982,77.0,16.0,20.0,0.0,64.0
1983,63.0,2.0,60.0,3.0,64.0
1984,70.0,3.0,60.0,1.0,64.0
1985,66.0,2.0,60.0,2.0,64.0
1986,87.0,1.0,20.0,4.0,64.0
1987,75.0,15.0,20.0,0.0,64.0
1988,89.0,1.0,30.0,4.0,64.0
1989,77.0,24.0,30.0,0.0,64.0
1990,87.0,6.0,30.0,4.0,64.0
1991,75.0,81.0,30.0,0.0,64.0
1992,65.0,1.0,60.0,2.0,64.0
1993,68.0,1.0,60.0,1.0,64.0
1994,65.0,7.0,60.0,3.0,64.0
1995,74.0,4.0,60.0,0.0,64.0
1996,86.0,115.0,60.0,4.0,64.0
1997,70.0,100.0,60.0,1.0,64.0
1998,75.0,0.0,180.0,0.0,64.0
1999,63.0,9.0,60.0,2.0,64.0
2000,66.0,1.0,60.0,3.0,64.0
2001,87.0,2.0,150.0,4.0,64.0
2002,70.0,3.0,30.0,2.0,64.0
2003,63.0,33.0,60.0,3.0,64.0
2004,75.0,1.0,60.0,1.0,64.0
2005,89.0,15.0,30.0,4.0,64.0
2006,77.0,1.0,30.0,0.0,64.0
2007,78.0,1.0,20.0,0.0,64.0
2008,90.0,64.0,20.0,4.0,64.0
2009,89.0,15.0,120.0,4.0,64.0
2010,77.0,2.0,60.0,1.0,64.0
2011,70.0,61.0,60.0,2.0,64.0
2012,77.0,14.0,120.0,0.0,64.0
2013,62.0,6.0,30.0,3.0,64.0
2014,90.0,6.0,30.0,4.0,64.0
2015,78.0,16.0,30.0,0.0,64.0
2016,63.0,3.0,60.0,3.0,64.0
2017,75.0,4.0,60.0,1.0,64.0
2018,70.0,34.0,60.0,2.0,64.0
2019,94.0,3.0,30.0,4.0,64.0
2020,82.0,72.0,30.0,0.0,64.0
2021,75.0,23.0,60.0,1.0,64.0
2022,56.0,5.0,60.0,3.0,64.0
2023,71.0,2.0,30.0,2.0,64.0
2024,80.0,1.0,60.0,0.0,64.0
2025,92.0,16.0,60.0,4.0,64.0
2026,78.0,62.0,30.0,0.0,64.0
2027,90.0,14.0,30.0,4.0,64.0
2028,59.0,1.0,60.0,3.0,64.0
2029,80.0,24.0,30.0,1.0,64.0
2030,89.0,3.0,60.0,4.0,64.0
2031,63.0,0.0,30.0,2.0,64.0
2032,77.0,17.0,60.0,0.0,64.0
2033,87.0,9.0,30.0,4.0,64.0
2034,75.0,70.0,30.0,0.0,64.0
2035,89.0,3.0,60.0,4.0,64.0
2036,58.0,87.0,330.0,3.0,64.0
2037,70.0,1.0,30.0,2.0,64.0
2038,74.0,17.0,30.0,1.0,64.0
2039,77.0,17.0,60.0,0.0,64.0
2040,87.0,10.0,30.0,4.0,64.0
2041,75.0,62.0,30.0,0.0,64.0
2042,86.0,3.0,30.0,4.0,64.0
2043,65.0,6.0,60.0,2.0,64.0
2044,70.0,15.0,60.0,1.0,64.0
2045,74.0,8.0,30.0,0.0,64.0
2046,87.0,3.0,30.0,4.0,64.0
2047,75.0,16.0,30.0,0.0,64.0
2048,86.0,3.0,30.0,4.0,64.0
2049,74.0,18.0,30.0,0.0,64.0
2050,84.0,4.0,30.0,4.0,64.0
2051,72.0,92.0,30.0,0.0,64.0
2052,62.0,3.0,270.0,2.0,64.0
2053,70.0,4.0,240.0,0.0,64.0
2054,65.0,4.0,240.0,1.0,64.0
2055,82.0,29.0,240.0,4.0,64.0
2056,59.0,80.0,60.0,3.0,64.0
2057,58.0,115.0,60.0,3.0,64.0
2058,56.0,120.0,60.0,3.0,64.0
2059,63.0,2.0,60.0,2.0,64.0
2060,54.0,90.0,60.0,3.0,64.0
2061,75.0,14.0,150.0,0.0,64.0
2062,87.0,6.0,150.0,4.0,64.0
2063,70.0,7.0,30.0,1.0,64.0
2064,51.0,54.0,60.0,3.0,64.0
2065,70.0,12.0,60.0,2.0,64.0
2066,66.0,0.0,30.0,1.0,64.0
2067,78.0,4.0,30.0,0.0,64.0
2068,90.0,40.0,30.0,4.0,64.0
2069,77.0,7.0,30.0,0.0,64.0
2070,89.0,2.0,30.0,4.0,64.0
2071,56.0,113.0,60.0,3.0,64.0
2072,68.0,3.0,30.0,2.0,64.0
2073,71.0,0.0,30.0,1.0,64.0
2074,87.0,6.0,30.0,4.0,64.0
2075,75.0,1.0,30.0,0.0,64.0
2076,59.0,110.0,60.0,3.0,64.0
2077,68.0,4.0,60.0,2.0,64.0
2078,63.0,3.0,30.0,1.0,64.0
2079,75.0,0.0,60.0,0.0,64.0
2080,87.0,7.0,60.0,4.0,64.0
2081,70.0,1.0,60.0,2.0,64.0
2082,58.0,5.0,60.0,3.0,64.0
2083,65.0,2.0,30.0,1.0,64.0
2084,74.0,4.0,20.0,0.0,64.0
2085,86.0,21.0,20.0,4.0,64.0
2086,75.0,0.0,30.0,0.0,64.0
2087,87.0,14.0,20.0,4.0,64.0
2088,74.0,21.0,20.0,0.0,64.0
2089,86.0,1.0,15.0,4.0,64.0
2090,87.0,39.0,30.0,4.0,64.0
2091,75.0,1.0,20.0,0.0,64.0
2092,86.0,2.0,60.0,4.0,64.0
2093,74.0,27.0,60.0,0.0,64.0
2094,65.0,1.0,60.0,2.0,64.0
2095,70.0,6.0,30.0,1.0,64.0
2096,56.0,10.0,60.0,3.0,64.0
2097,87.0,6.0,30.0,4.0,64.0
2098,75.0,11.0,30.0,0.0,64.0
2099,89.0,8.0,20.0,4.0,64.0
2100,77.0,54.0,20.0,0.0,64.0
2101,70.0,2.0,60.0,1.0,64.0
2102,54.0,4.0,60.0,3.0,64.0
2103,63.0,98.0,60.0,2.0,64.0
2104,82.0,4.0,150.0,4.0,64.0
2105,70.0,14.0,150.0,0.0,64.0
2106,51.0,1.0,60.0,3.0,64.0
2107,66.0,3.0,60.0,1.0,64.0
2108,58.0,66.0,60.0,2.0,64.0
2109,75.0,2.0,30.0,0.0,64.0
2110,87.0,31.0,30.0,4.0,64.0
2111,86.0,16.0,30.0,4.0,64.0
2112,74.0,0.0,60.0,0.0,64.0
2113,53.0,6.0,60.0,3.0,64.0
2114,65.0,2.0,60.0,2.0,64.0
2115,68.0,102.0,60.0,1.0,64.0
2116,75.0,7.0,60.0,0.0,64.0
2117,87.0,7.0,30.0,4.0,64.0
2118,63.0,4.0,60.0,2.0,64.0
2119,70.0,66.0,60.0,1.0,64.0
2120,54.0,4.0,60.0,3.0,64.0
2121,68.0,39.0,30.0,1.0,64.0
2122,70.0,9.0,60.0,1.0,64.0
2123,70.0,17.0,150.0,0.0,64.0
2124,55.0,89.0,60.0,3.0,64.0
2125,63.0,3.0,60.0,2.0,64.0
2126,82.0,1.0,150.0,4.0,64.0
2127,67.0,6.0,30.0,1.0,64.0
2128,63.0,32.0,60.0,2.0,64.0
2129,51.0,3.0,30.0,3.0,64.0
2130,71.0,1.0,30.0,0.0,64.0
2131,83.0,11.0,30.0,4.0,64.0
2132,73.0,2.0,20.0,0.0,64.0
2133,85.0,70.0,20.0,4.0,64.0
2134,68.0,7.0,60.0,1.0,64.0
2135,63.0,16.0,60.0,2.0,64.0
2136,73.0,1.0,60.0,0.0,64.0
2137,56.0,3.0,60.0,3.0,64.0
2138,85.0,93.0,60.0,4.0,64.0
2139,71.0,0.0,120.0,0.0,64.0
2140,83.0,1.0,90.0,4.0,64.0
2141,71.0,4.0,60.0,1.0,64.0
2142,53.0,2.0,60.0,3.0,64.0
2143,68.0,56.0,60.0,2.0,64.0
2144,80.0,9.0,20.0,0.0,64.0
2145,92.0,50.0,30.0,4.0,64.0
2146,74.0,2.0,60.0,0.0,64.0
2147,70.0,1.0,60.0,1.0,64.0
2148,58.0,0.0,60.0,3.0,64.0
2149,86.0,56.0,60.0,4.0,64.0
2150,65.0,5.0,60.0,2.0,64.0
2151,71.0,11.0,30.0,1.0,64.0
2152,56.0,38.0,30.0,3.0,64.0
2153,70.0,8.0,30.0,1.0,64.0
2154,75.0,8.0,60.0,0.0,64.0
2155,63.0,1.0,60.0,2.0,64.0
2156,54.0,54.0,60.0,3.0,64.0
2157,87.0,1.0,30.0,4.0,64.0
2158,68.0,46.0,30.0,1.0,64.0
2159,56.0,4.0,20.0,3.0,64.0
2160,70.0,4.0,60.0,0.0,64.0
2161,82.0,3.0,30.0,4.0,64.0
2162,63.0,2.0,30.0,2.0,64.0
2163,66.0,111.0,60.0,1.0,64.0
2164,58.0,4.0,30.0,3.0,64.0
2165,68.0,2.0,60.0,0.0,64.0
2166,65.0,4.0,60.0,1.0,64.0
2167,80.0,3.0,60.0,4.0,64.0
2168,62.0,1.0,60.0,2.0,64.0
2169,46.0,94.0,60.0,3.0,64.0
2170,68.0,6.0,60.0,0.0,64.0
2171,65.0,4.0,30.0,1.0,64.0
2172,80.0,7.0,30.0,4.0,64.0
2173,51.0,57.0,330.0,3.0,64.0
2174,59.0,0.0,30.0,2.0,64.0
2175,78.0,3.0,15.0,4.0,64.0
2176,63.0,9.0,20.0,1.0,64.0
2177,66.0,10.0,20.0,0.0,64.0
2178,58.0,1.0,20.0,2.0,64.0
2179,80.0,0.0,20.0,4.0,64.0
2180,65.0,7.0,20.0,1.0,64.0
2181,68.0,2.0,20.0,0.0,64.0
2182,78.0,5.0,15.0,4.0,64.0
2183,59.0,5.0,20.0,2.0,64.0
2184,63.0,6.0,20.0,1.0,64.0
2185,66.0,0.0,15.0,0.0,64.0
2186,80.0,8.0,20.0,4.0,64.0
2187,65.0,13.0,20.0,1.0,64.0
2188,58.0,35.0,60.0,2.0,64.0
2189,68.0,1.0,15.0,0.0,64.0
2190,78.0,6.0,30.0,4.0,64.0
2191,66.0,10.0,30.0,0.0,64.0
2192,63.0,1.0,20.0,1.0,64.0
2193,59.0,2.0,15.0,2.0,64.0
2194,62.0,2.0,60.0,1.0,64.0
2195,77.0,3.0,60.0,4.0,64.0
2196,65.0,13.0,60.0,0.0,64.0
2197,56.0,23.0,60.0,2.0,64.0
2198,66.0,7.0,60.0,0.0,64.0
2199,63.0,18.0,30.0,1.0,64.0
2200,78.0,1.0,60.0,4.0,64.0
2201,58.0,94.0,60.0,2.0,64.0
2202,63.0,1.0,270.0,0.0,64.0
2203,63.0,119.0,270.0,1.0,64.0
2204,54.0,4.0,270.0,2.0,64.0
2205,75.0,8.0,240.0,4.0,64.0
2206,54.0,59.0,30.0,3.0,64.0
2207,58.0,47.0,30.0,3.0,64.0
2208,63.0,0.0,150.0,3.0,64.0
