,note,step,duration,channel,velocity
0,54.0,288.0,390.0,0.0,0.0
1,61.0,96.0,300.0,0.0,0.0
2,59.0,192.0,90.0,0.0,0.0
3,85.0,96.0,180.0,0.0,0.0
4,57.0,48.0,300.0,0.0,0.0
5,78.0,48.0,150.0,0.0,0.0
6,56.0,0.0,90.0,0.0,0.0
7,80.0,144.0,60.0,0.0,0.0
8,54.0,192.0,390.0,0.0,0.0
9,81.0,48.0,150.0,0.0,0.0
10,83.0,192.0,60.0,0.0,0.0
11,85.0,0.0,180.0,0.0,0.0
12,86.0,144.0,180.0,0.0,0.0
13,53.0,192.0,390.0,0.0,0.0
14,85.0,48.0,150.0,0.0,0.0
15,83.0,0.0,60.0,0.0,0.0
16,81.0,0.0,180.0,0.0,0.0
17,66.0,48.0,180.0,0.0,0.0
18,54.0,48.0,300.0,0.0,0.0
19,81.0,48.0,60.0,0.0,0.0
20,73.0,0.0,150.0,0.0,0.0
21,80.0,0.0,60.0,0.0,0.0
22,81.0,48.0,60.0,0.0,0.0
23,56.0,144.0,90.0,0.0,0.0
24,71.0,0.0,60.0,0.0,0.0
25,83.0,0.0,60.0,0.0,0.0
26,69.0,0.0,150.0,0.0,0.0
27,85.0,48.0,150.0,0.0,0.0
28,83.0,48.0,60.0,0.0,0.0
29,68.0,0.0,60.0,0.0,0.0
30,66.0,0.0,180.0,0.0,0.0
31,81.0,48.0,60.0,0.0,0.0
32,80.0,48.0,60.0,0.0,0.0
33,78.0,48.0,60.0,0.0,0.0
34,76.0,24.0,60.0,0.0,0.0
35,57.0,0.0,15.0,0.0,0.0
36,76.0,24.0,20.0,0.0,0.0
37,65.0,144.0,180.0,0.0,0.0
38,74.0,24.0,20.0,0.0,0.0
39,76.0,24.0,20.0,0.0,0.0
40,74.0,24.0,20.0,0.0,0.0
41,76.0,24.0,20.0,0.0,0.0
42,74.0,0.0,20.0,0.0,0.0
43,59.0,0.0,60.0,0.0,0.0
44,76.0,24.0,20.0,0.0,0.0
45,74.0,0.0,20.0,0.0,0.0
46,57.0,0.0,150.0,0.0,0.0
47,66.0,48.0,150.0,0.0,0.0
48,56.0,0.0,60.0,0.0,0.0
49,68.0,144.0,60.0,0.0,0.0
50,73.0,0.0,15.0,0.0,0.0
51,54.0,48.0,150.0,0.0,0.0
52,75.0,0.0,60.0,0.0,0.0
53,42.0,0.0,60.0,0.0,0.0
54,76.0,0.0,180.0,0.0,0.0
55,69.0,48.0,15.0,0.0,0.0
56,44.0,48.0,150.0,0.0,0.0
57,71.0,48.0,60.0,0.0,0.0
58,69.0,0.0,60.0,0.0,0.0
59,45.0,0.0,60.0,0.0,0.0
60,68.0,144.0,60.0,0.0,0.0
61,47.0,0.0,150.0,0.0,0.0
62,76.0,48.0,150.0,0.0,0.0
63,66.0,144.0,180.0,0.0,0.0
64,75.0,0.0,60.0,0.0,0.0
65,49.0,0.0,60.0,0.0,0.0
66,47.0,48.0,150.0,0.0,0.0
67,77.0,0.0,150.0,0.0,0.0
68,68.0,0.0,150.0,0.0,0.0
69,78.0,0.0,60.0,0.0,0.0
70,69.0,144.0,60.0,0.0,0.0
71,45.0,0.0,60.0,0.0,0.0
72,44.0,48.0,150.0,0.0,0.0
73,71.0,0.0,180.0,0.0,0.0
74,80.0,48.0,180.0,0.0,0.0
75,56.0,0.0,60.0,0.0,0.0
76,69.0,0.0,180.0,0.0,0.0
77,57.0,0.0,150.0,0.0,0.0
78,80.0,48.0,60.0,0.0,0.0
79,81.0,48.0,60.0,0.0,0.0
80,80.0,48.0,60.0,0.0,0.0
81,59.0,144.0,60.0,0.0,0.0
82,78.0,0.0,60.0,0.0,0.0
83,61.0,0.0,150.0,0.0,0.0
84,77.0,0.0,180.0,0.0,0.0
85,69.0,48.0,150.0,0.0,0.0
86,68.0,144.0,60.0,0.0,0.0
87,62.0,0.0,60.0,0.0,0.0
88,61.0,0.0,150.0,0.0,0.0
89,78.0,48.0,150.0,0.0,0.0
90,69.0,0.0,150.0,0.0,0.0
91,71.0,0.0,60.0,0.0,0.0
92,80.0,0.0,60.0,0.0,0.0
93,59.0,144.0,60.0,0.0,0.0
94,81.0,48.0,150.0,0.0,0.0
95,57.0,0.0,180.0,0.0,0.0
96,66.0,0.0,180.0,0.0,0.0
97,80.0,144.0,60.0,0.0,0.0
98,81.0,0.0,150.0,0.0,0.0
99,54.0,0.0,180.0,0.0,0.0
100,61.0,48.0,150.0,0.0,0.0
101,78.0,0.0,60.0,0.0,0.0
102,63.0,144.0,60.0,0.0,0.0
103,73.0,0.0,15.0,0.0,0.0
104,61.0,0.0,390.0,0.0,0.0
105,80.0,0.0,390.0,0.0,0.0
106,64.0,48.0,150.0,0.0,0.0
107,75.0,0.0,60.0,0.0,0.0
108,66.0,96.0,60.0,0.0,0.0
109,68.0,144.0,180.0,0.0,0.0
110,76.0,24.0,15.0,0.0,0.0
111,75.0,24.0,20.0,0.0,0.0
112,73.0,24.0,20.0,0.0,0.0
113,72.0,0.0,20.0,0.0,0.0
114,73.0,0.0,390.0,0.0,0.0
115,69.0,0.0,180.0,0.0,0.0
116,61.0,0.0,390.0,0.0,0.0
117,80.0,48.0,150.0,0.0,0.0
118,78.0,144.0,60.0,0.0,0.0
119,68.0,0.0,150.0,0.0,0.0
120,76.0,48.0,150.0,0.0,0.0
121,66.0,0.0,60.0,0.0,0.0
122,75.0,144.0,60.0,0.0,0.0
123,80.0,0.0,300.0,0.0,0.0
124,73.0,48.0,150.0,0.0,0.0
125,85.0,48.0,60.0,0.0,0.0
126,64.0,0.0,15.0,0.0,0.0
127,83.0,0.0,150.0,0.0,0.0
128,63.0,48.0,60.0,0.0,0.0
129,78.0,144.0,90.0,0.0,0.0
130,64.0,48.0,60.0,0.0,0.0
131,81.0,0.0,60.0,0.0,0.0
132,66.0,0.0,60.0,0.0,0.0
133,61.0,0.0,15.0,0.0,0.0
134,80.0,96.0,180.0,0.0,0.0
135,76.0,48.0,300.0,0.0,0.0
136,56.0,0.0,60.0,0.0,0.0
137,61.0,48.0,150.0,0.0,0.0
138,75.0,144.0,90.0,0.0,0.0
139,59.0,0.0,60.0,0.0,0.0
140,68.0,0.0,15.0,0.0,0.0
141,73.0,144.0,390.0,0.0,0.0
142,57.0,48.0,150.0,0.0,0.0
143,56.0,0.0,60.0,0.0,0.0
144,57.0,48.0,150.0,0.0,0.0
145,66.0,0.0,180.0,0.0,0.0
146,54.0,0.0,60.0,0.0,0.0
147,66.0,48.0,150.0,0.0,0.0
148,72.0,0.0,390.0,0.0,0.0
149,63.0,96.0,60.0,0.0,0.0
150,68.0,48.0,150.0,0.0,0.0
151,56.0,48.0,15.0,0.0,0.0
152,66.0,0.0,60.0,0.0,0.0
153,64.0,48.0,150.0,0.0,0.0
154,57.0,0.0,150.0,0.0,0.0
155,73.0,96.0,180.0,0.0,0.0
156,66.0,0.0,60.0,0.0,0.0
157,56.0,0.0,60.0,0.0,0.0
158,58.0,0.0,150.0,0.0,0.0
159,64.0,48.0,150.0,0.0,0.0
160,80.0,0.0,150.0,0.0,0.0
161,75.0,144.0,90.0,0.0,0.0
162,78.0,0.0,60.0,0.0,0.0
163,60.0,0.0,60.0,0.0,0.0
164,63.0,0.0,60.0,0.0,0.0
165,61.0,0.0,150.0,0.0,0.0
166,76.0,0.0,150.0,0.0,0.0
167,68.0,48.0,180.0,0.0,0.0
168,75.0,144.0,60.0,0.0,0.0
169,59.0,0.0,60.0,0.0,0.0
170,73.0,0.0,180.0,0.0,0.0
171,57.0,0.0,180.0,0.0,0.0
172,67.0,144.0,60.0,0.0,0.0
173,72.0,144.0,180.0,0.0,0.0
174,76.0,0.0,15.0,0.0,0.0
175,56.0,0.0,390.0,0.0,0.0
176,68.0,48.0,150.0,0.0,0.0
177,63.0,0.0,60.0,0.0,0.0
178,78.0,0.0,60.0,0.0,0.0
179,64.0,0.0,150.0,0.0,0.0
180,76.0,0.0,150.0,0.0,0.0
181,73.0,48.0,150.0,0.0,0.0
182,75.0,0.0,60.0,0.0,0.0
183,60.0,144.0,60.0,0.0,0.0
184,76.0,48.0,180.0,0.0,0.0
185,61.0,48.0,150.0,0.0,0.0
186,56.0,0.0,60.0,0.0,0.0
187,57.0,0.0,180.0,0.0,0.0
188,76.0,48.0,60.0,0.0,0.0
189,78.0,0.0,60.0,0.0,0.0
190,76.0,0.0,60.0,0.0,0.0
191,73.0,48.0,15.0,0.0,0.0
192,72.0,0.0,60.0,0.0,0.0
193,75.0,48.0,60.0,0.0,0.0
194,57.0,48.0,60.0,0.0,0.0
195,59.0,48.0,60.0,0.0,0.0
196,57.0,48.0,60.0,0.0,0.0
197,56.0,96.0,60.0,0.0,0.0
198,73.0,24.0,15.0,0.0,0.0
199,71.0,24.0,20.0,0.0,0.0
200,69.0,24.0,20.0,0.0,0.0
201,68.0,0.0,20.0,0.0,0.0
202,73.0,0.0,15.0,0.0,0.0
203,54.0,96.0,15.0,0.0,0.0
204,54.0,24.0,15.0,0.0,0.0
205,61.0,24.0,20.0,0.0,0.0
206,62.0,24.0,20.0,0.0,0.0
207,64.0,96.0,20.0,0.0,0.0
208,66.0,0.0,150.0,0.0,0.0
209,73.0,24.0,15.0,0.0,0.0
210,73.0,24.0,20.0,0.0,0.0
211,74.0,24.0,20.0,0.0,0.0
212,64.0,144.0,60.0,0.0,0.0
213,76.0,0.0,20.0,0.0,0.0
214,69.0,0.0,15.0,0.0,0.0
215,62.0,48.0,150.0,0.0,0.0
216,64.0,96.0,60.0,0.0,0.0
217,62.0,24.0,150.0,0.0,0.0
218,69.0,24.0,15.0,0.0,0.0
219,71.0,24.0,20.0,0.0,0.0
220,61.0,0.0,60.0,0.0,0.0
221,73.0,0.0,20.0,0.0,0.0
222,78.0,96.0,15.0,0.0,0.0
223,59.0,24.0,15.0,0.0,0.0
224,66.0,24.0,20.0,0.0,0.0
225,68.0,24.0,20.0,0.0,0.0
226,69.0,96.0,20.0,0.0,0.0
227,71.0,24.0,150.0,0.0,0.0
228,78.0,24.0,20.0,0.0,0.0
229,78.0,0.0,20.0,0.0,0.0
230,80.0,24.0,20.0,0.0,0.0
231,69.0,0.0,60.0,0.0,0.0
232,81.0,0.0,20.0,0.0,0.0
233,68.0,48.0,150.0,0.0,0.0
234,74.0,144.0,15.0,0.0,0.0
235,69.0,96.0,60.0,0.0,0.0
236,75.0,0.0,60.0,0.0,0.0
237,78.0,24.0,90.0,0.0,0.0
238,68.0,24.0,150.0,0.0,0.0
239,77.0,24.0,20.0,0.0,0.0
240,75.0,0.0,20.0,0.0,0.0
241,66.0,0.0,60.0,0.0,0.0
242,77.0,24.0,20.0,0.0,0.0
243,78.0,144.0,20.0,0.0,0.0
244,83.0,0.0,15.0,0.0,0.0
245,65.0,0.0,180.0,0.0,0.0
246,81.0,24.0,20.0,0.0,0.0
247,80.0,0.0,20.0,0.0,0.0
248,81.0,0.0,150.0,0.0,0.0
249,61.0,96.0,15.0,0.0,0.0
250,54.0,24.0,150.0,0.0,0.0
251,80.0,48.0,15.0,0.0,0.0
252,56.0,144.0,60.0,0.0,0.0
253,83.0,0.0,60.0,0.0,0.0
254,78.0,24.0,20.0,0.0,0.0
255,77.0,0.0,20.0,0.0,0.0
256,78.0,48.0,300.0,0.0,0.0
257,61.0,0.0,15.0,0.0,0.0
258,85.0,24.0,150.0,0.0,0.0
259,57.0,0.0,150.0,0.0,0.0
260,59.0,0.0,60.0,0.0,0.0
261,83.0,24.0,20.0,0.0,0.0
262,81.0,96.0,20.0,0.0,0.0
263,61.0,0.0,15.0,0.0,0.0
264,80.0,48.0,150.0,0.0,0.0
265,78.0,0.0,60.0,0.0,0.0
266,82.0,0.0,60.0,0.0,0.0
267,76.0,144.0,60.0,0.0,0.0
268,83.0,0.0,180.0,0.0,0.0
269,74.0,48.0,150.0,0.0,0.0
270,66.0,0.0,390.0,0.0,0.0
271,62.0,144.0,180.0,0.0,0.0
272,71.0,0.0,60.0,0.0,0.0
273,61.0,48.0,150.0,0.0,0.0
274,69.0,0.0,150.0,0.0,0.0
275,68.0,144.0,60.0,0.0,0.0
276,59.0,0.0,60.0,0.0,0.0
277,73.0,48.0,300.0,0.0,0.0
278,85.0,0.0,180.0,0.0,0.0
279,57.0,48.0,180.0,0.0,0.0
280,66.0,48.0,150.0,0.0,0.0
281,77.0,0.0,60.0,0.0,0.0
282,78.0,0.0,150.0,0.0,0.0
283,57.0,48.0,60.0,0.0,0.0
284,56.0,0.0,60.0,0.0,0.0
285,57.0,48.0,60.0,0.0,0.0
286,71.0,144.0,90.0,0.0,0.0
287,59.0,0.0,60.0,0.0,0.0
288,80.0,0.0,60.0,0.0,0.0
289,81.0,48.0,150.0,0.0,0.0
290,78.0,0.0,15.0,0.0,0.0
291,61.0,0.0,390.0,0.0,0.0
292,69.0,48.0,300.0,0.0,0.0
293,83.0,96.0,60.0,0.0,0.0
294,75.0,0.0,60.0,0.0,0.0
295,85.0,0.0,180.0,0.0,0.0
296,77.0,48.0,150.0,0.0,0.0
297,68.0,0.0,90.0,0.0,0.0
298,73.0,144.0,60.0,0.0,0.0
299,86.0,144.0,180.0,0.0,0.0
300,66.0,0.0,390.0,0.0,0.0
301,69.0,48.0,150.0,0.0,0.0
302,68.0,0.0,60.0,0.0,0.0
303,69.0,48.0,150.0,0.0,0.0
304,85.0,0.0,150.0,0.0,0.0
305,62.0,0.0,90.0,0.0,0.0
306,71.0,0.0,60.0,0.0,0.0
307,83.0,144.0,60.0,0.0,0.0
308,73.0,48.0,300.0,0.0,0.0
309,65.0,96.0,390.0,0.0,0.0
310,81.0,0.0,180.0,0.0,0.0
311,61.0,48.0,150.0,0.0,0.0
312,59.0,48.0,60.0,0.0,0.0
313,81.0,48.0,60.0,0.0,0.0
314,57.0,0.0,180.0,0.0,0.0
315,80.0,0.0,60.0,0.0,0.0
316,81.0,0.0,60.0,0.0,0.0
317,73.0,48.0,60.0,0.0,0.0
318,83.0,0.0,60.0,0.0,0.0
319,74.0,0.0,60.0,0.0,0.0
320,73.0,24.0,150.0,0.0,0.0
321,85.0,0.0,180.0,0.0,0.0
322,57.0,24.0,90.0,0.0,0.0
323,66.0,48.0,300.0,0.0,0.0
324,57.0,24.0,20.0,0.0,0.0
325,59.0,0.0,20.0,0.0,0.0
326,57.0,24.0,20.0,0.0,0.0
327,83.0,0.0,60.0,0.0,0.0
328,56.0,48.0,20.0,0.0,0.0
329,81.0,48.0,60.0,0.0,0.0
330,54.0,0.0,180.0,0.0,0.0
331,80.0,0.0,60.0,0.0,0.0
332,78.0,48.0,60.0,0.0,0.0
333,68.0,144.0,90.0,0.0,0.0
334,77.0,0.0,60.0,0.0,0.0
335,78.0,0.0,180.0,0.0,0.0
336,54.0,24.0,20.0,0.0,0.0
337,56.0,24.0,20.0,0.0,0.0
338,57.0,48.0,20.0,0.0,0.0
339,78.0,48.0,60.0,0.0,0.0
340,59.0,0.0,180.0,0.0,0.0
341,76.0,48.0,60.0,0.0,0.0
342,75.0,48.0,60.0,0.0,0.0
343,73.0,0.0,60.0,0.0,0.0
344,75.0,24.0,150.0,0.0,0.0
345,59.0,24.0,90.0,0.0,0.0
346,69.0,96.0,15.0,0.0,0.0
347,59.0,24.0,20.0,0.0,0.0
348,56.0,0.0,20.0,0.0,0.0
349,71.0,0.0,60.0,0.0,0.0
350,57.0,24.0,20.0,0.0,0.0
351,59.0,0.0,20.0,0.0,0.0
352,61.0,0.0,150.0,0.0,0.0
353,69.0,48.0,150.0,0.0,0.0
354,59.0,144.0,60.0,0.0,0.0
355,68.0,0.0,60.0,0.0,0.0
356,76.0,0.0,15.0,0.0,0.0
357,57.0,0.0,150.0,0.0,0.0
358,66.0,0.0,180.0,0.0,0.0
359,75.0,24.0,20.0,0.0,0.0
360,54.0,0.0,60.0,0.0,0.0
361,73.0,24.0,20.0,0.0,0.0
362,59.0,24.0,150.0,0.0,0.0
363,76.0,24.0,20.0,0.0,0.0
364,75.0,24.0,20.0,0.0,0.0
365,76.0,24.0,20.0,0.0,0.0
366,75.0,24.0,20.0,0.0,0.0
367,76.0,24.0,20.0,0.0,0.0
368,75.0,0.0,20.0,0.0,0.0
369,57.0,96.0,60.0,0.0,0.0
370,73.0,24.0,20.0,0.0,0.0
371,75.0,0.0,20.0,0.0,0.0
372,76.0,24.0,150.0,0.0,0.0
373,64.0,144.0,390.0,0.0,0.0
374,56.0,24.0,15.0,0.0,0.0
375,52.0,0.0,20.0,0.0,0.0
376,54.0,24.0,20.0,0.0,0.0
377,56.0,0.0,20.0,0.0,0.0
378,74.0,24.0,15.0,0.0,0.0
379,57.0,24.0,150.0,0.0,0.0
380,73.0,24.0,20.0,0.0,0.0
381,74.0,24.0,20.0,0.0,0.0
382,73.0,24.0,20.0,0.0,0.0
383,74.0,24.0,20.0,0.0,0.0
384,73.0,0.0,20.0,0.0,0.0
385,71.0,24.0,20.0,0.0,0.0
386,55.0,0.0,60.0,0.0,0.0
387,73.0,0.0,20.0,0.0,0.0
388,74.0,48.0,150.0,0.0,0.0
389,54.0,0.0,150.0,0.0,0.0
390,57.0,48.0,300.0,0.0,0.0
391,52.0,0.0,60.0,0.0,0.0
392,78.0,96.0,60.0,0.0,0.0
393,76.0,0.0,150.0,0.0,0.0
394,54.0,48.0,150.0,0.0,0.0
395,59.0,0.0,90.0,0.0,0.0
396,56.0,0.0,60.0,0.0,0.0
397,74.0,144.0,60.0,0.0,0.0
398,73.0,0.0,300.0,0.0,0.0
399,57.0,48.0,150.0,0.0,0.0
400,61.0,48.0,300.0,0.0,0.0
401,56.0,96.0,60.0,0.0,0.0
402,78.0,0.0,60.0,0.0,0.0
403,57.0,48.0,150.0,0.0,0.0
404,76.0,0.0,150.0,0.0,0.0
405,73.0,0.0,60.0,0.0,0.0
406,62.0,0.0,90.0,0.0,0.0
407,74.0,0.0,60.0,0.0,0.0
408,59.0,0.0,60.0,0.0,0.0
409,71.0,144.0,60.0,0.0,0.0
410,61.0,24.0,300.0,0.0,0.0
411,69.0,0.0,150.0,0.0,0.0
412,64.0,0.0,390.0,0.0,0.0
413,73.0,48.0,150.0,0.0,0.0
414,71.0,0.0,60.0,0.0,0.0
415,74.0,96.0,60.0,0.0,0.0
416,69.0,24.0,150.0,0.0,0.0
417,61.0,24.0,20.0,0.0,0.0
418,57.0,0.0,20.0,0.0,0.0
419,59.0,24.0,20.0,0.0,0.0
420,67.0,96.0,60.0,0.0,0.0
421,61.0,0.0,20.0,0.0,0.0
422,62.0,0.0,150.0,0.0,0.0
423,76.0,0.0,15.0,0.0,0.0
424,66.0,144.0,180.0,0.0,0.0
425,76.0,24.0,20.0,0.0,0.0
426,69.0,24.0,20.0,0.0,0.0
427,71.0,24.0,20.0,0.0,0.0
428,61.0,0.0,60.0,0.0,0.0
429,73.0,0.0,20.0,0.0,0.0
430,71.0,144.0,180.0,0.0,0.0
431,59.0,48.0,150.0,0.0,0.0
432,74.0,0.0,150.0,0.0,0.0
433,74.0,0.0,60.0,0.0,0.0
434,57.0,0.0,60.0,0.0,0.0
435,74.0,0.0,150.0,0.0,0.0
436,64.0,48.0,300.0,0.0,0.0
437,56.0,24.0,150.0,0.0,0.0
438,71.0,0.0,150.0,0.0,0.0
439,68.0,0.0,60.0,0.0,0.0
440,73.0,24.0,20.0,0.0,0.0
441,52.0,0.0,60.0,0.0,0.0
442,71.0,96.0,20.0,0.0,0.0
443,57.0,0.0,180.0,0.0,0.0
444,73.0,48.0,150.0,0.0,0.0
445,62.0,0.0,90.0,0.0,0.0
446,74.0,144.0,60.0,0.0,0.0
447,76.0,0.0,150.0,0.0,0.0
448,61.0,0.0,390.0,0.0,0.0
449,69.0,0.0,15.0,0.0,0.0
450,57.0,0.0,150.0,0.0,0.0
451,76.0,0.0,60.0,0.0,0.0
452,59.0,0.0,60.0,0.0,0.0
453,68.0,144.0,60.0,0.0,0.0
454,78.0,0.0,150.0,0.0,0.0
455,57.0,48.0,150.0,0.0,0.0
456,69.0,0.0,150.0,0.0,0.0
457,71.0,0.0,60.0,0.0,0.0
458,80.0,144.0,60.0,0.0,0.0
459,56.0,0.0,60.0,0.0,0.0
460,73.0,0.0,180.0,0.0,0.0
461,81.0,48.0,150.0,0.0,0.0
462,54.0,0.0,390.0,0.0,0.0
463,61.0,0.0,150.0,0.0,0.0
464,80.0,0.0,60.0,0.0,0.0
465,59.0,144.0,60.0,0.0,0.0
466,81.0,0.0,150.0,0.0,0.0
467,61.0,48.0,150.0,0.0,0.0
468,78.0,96.0,180.0,0.0,0.0
469,63.0,0.0,60.0,0.0,0.0
470,83.0,0.0,60.0,0.0,0.0
471,71.0,144.0,180.0,0.0,0.0
472,80.0,0.0,150.0,0.0,0.0
473,52.0,24.0,15.0,0.0,0.0
474,59.0,24.0,20.0,0.0,0.0
475,61.0,24.0,20.0,0.0,0.0
476,78.0,0.0,60.0,0.0,0.0
477,62.0,0.0,20.0,0.0,0.0
478,80.0,0.0,180.0,0.0,0.0
479,64.0,0.0,15.0,0.0,0.0
480,62.0,144.0,60.0,0.0,0.0
481,69.0,0.0,390.0,0.0,0.0
482,61.0,24.0,150.0,0.0,0.0
483,80.0,0.0,150.0,0.0,0.0
484,78.0,24.0,20.0,0.0,0.0
485,57.0,0.0,60.0,0.0,0.0
486,77.0,96.0,20.0,0.0,0.0
487,62.0,0.0,150.0,0.0,0.0
488,78.0,24.0,15.0,0.0,0.0
489,77.0,24.0,20.0,0.0,0.0
490,74.0,24.0,20.0,0.0,0.0
491,66.0,0.0,60.0,0.0,0.0
492,73.0,144.0,20.0,0.0,0.0
493,56.0,0.0,300.0,0.0,0.0
494,76.0,24.0,300.0,0.0,0.0
495,71.0,48.0,150.0,0.0,0.0
496,74.0,96.0,60.0,0.0,0.0
497,73.0,24.0,150.0,0.0,0.0
498,56.0,24.0,20.0,0.0,0.0
499,74.0,0.0,90.0,0.0,0.0
500,52.0,0.0,20.0,0.0,0.0
501,71.0,0.0,60.0,0.0,0.0
502,54.0,24.0,20.0,0.0,0.0
503,56.0,144.0,20.0,0.0,0.0
504,57.0,48.0,150.0,0.0,0.0
505,73.0,48.0,300.0,0.0,0.0
506,64.0,0.0,180.0,0.0,0.0
507,69.0,0.0,180.0,0.0,0.0
508,56.0,48.0,60.0,0.0,0.0
509,57.0,48.0,150.0,0.0,0.0
510,54.0,0.0,180.0,0.0,0.0
511,69.0,48.0,60.0,0.0,0.0
512,68.0,0.0,60.0,0.0,0.0
513,66.0,0.0,60.0,0.0,0.0
514,71.0,0.0,90.0,0.0,0.0
515,65.0,48.0,60.0,0.0,0.0
516,59.0,0.0,60.0,0.0,0.0
517,69.0,0.0,390.0,0.0,0.0
518,61.0,48.0,150.0,0.0,0.0
519,66.0,0.0,180.0,0.0,0.0
520,54.0,48.0,15.0,0.0,0.0
521,52.0,0.0,60.0,0.0,0.0
522,50.0,0.0,60.0,0.0,0.0
523,62.0,48.0,60.0,0.0,0.0
524,49.0,48.0,60.0,0.0,0.0
525,64.0,48.0,180.0,0.0,0.0
526,45.0,48.0,60.0,0.0,0.0
527,47.0,48.0,60.0,0.0,0.0
528,49.0,0.0,60.0,0.0,0.0
529,78.0,0.0,60.0,0.0,0.0
530,65.0,0.0,180.0,0.0,0.0
531,50.0,48.0,60.0,0.0,0.0
532,68.0,0.0,390.0,0.0,0.0
533,47.0,48.0,60.0,0.0,0.0
534,49.0,48.0,60.0,0.0,0.0
535,50.0,0.0,60.0,0.0,0.0
536,71.0,48.0,15.0,0.0,0.0
537,52.0,0.0,150.0,0.0,0.0
538,64.0,0.0,150.0,0.0,0.0
539,74.0,48.0,60.0,0.0,0.0
540,73.0,48.0,60.0,0.0,0.0
541,62.0,0.0,60.0,0.0,0.0
542,53.0,48.0,60.0,0.0,0.0
543,71.0,0.0,60.0,0.0,0.0
544,69.0,48.0,60.0,0.0,0.0
545,61.0,0.0,180.0,0.0,0.0
546,54.0,0.0,60.0,0.0,0.0
547,73.0,0.0,60.0,0.0,0.0
548,53.0,48.0,60.0,0.0,0.0
549,75.0,0.0,60.0,0.0,0.0
550,54.0,48.0,60.0,0.0,0.0
551,56.0,0.0,60.0,0.0,0.0
552,77.0,48.0,60.0,0.0,0.0
553,61.0,48.0,60.0,0.0,0.0
554,78.0,0.0,180.0,0.0,0.0
555,59.0,0.0,60.0,0.0,0.0
556,61.0,48.0,60.0,0.0,0.0
557,71.0,0.0,90.0,0.0,0.0
558,62.0,0.0,60.0,0.0,0.0
559,57.0,48.0,15.0,0.0,0.0
560,56.0,48.0,60.0,0.0,0.0
561,76.0,0.0,60.0,0.0,0.0
562,78.0,0.0,60.0,0.0,0.0
563,57.0,48.0,60.0,0.0,0.0
564,59.0,0.0,60.0,0.0,0.0
565,80.0,0.0,60.0,0.0,0.0
566,81.0,0.0,150.0,0.0,0.0
567,64.0,48.0,15.0,0.0,0.0
568,63.0,48.0,60.0,0.0,0.0
569,64.0,24.0,60.0,0.0,0.0
570,66.0,144.0,60.0,0.0,0.0
571,80.0,24.0,20.0,0.0,0.0
572,78.0,0.0,20.0,0.0,0.0
573,73.0,0.0,15.0,0.0,0.0
574,61.0,0.0,15.0,0.0,0.0
575,68.0,0.0,180.0,0.0,0.0
576,76.0,0.0,390.0,0.0,0.0
577,74.0,144.0,60.0,0.0,0.0
578,59.0,0.0,60.0,0.0,0.0
579,57.0,0.0,150.0,0.0,0.0
580,73.0,48.0,150.0,0.0,0.0
581,56.0,0.0,60.0,0.0,0.0
582,71.0,144.0,60.0,0.0,0.0
583,54.0,24.0,300.0,0.0,0.0
584,76.0,48.0,150.0,0.0,0.0
585,73.0,96.0,60.0,0.0,0.0
586,78.0,0.0,150.0,0.0,0.0
587,54.0,24.0,20.0,0.0,0.0
588,42.0,24.0,20.0,0.0,0.0
589,76.0,144.0,60.0,0.0,0.0
590,44.0,24.0,20.0,0.0,0.0
591,45.0,0.0,20.0,0.0,0.0
592,69.0,0.0,15.0,0.0,0.0
593,74.0,0.0,390.0,0.0,0.0
594,66.0,96.0,60.0,0.0,0.0
595,71.0,0.0,150.0,0.0,0.0
596,47.0,24.0,15.0,0.0,0.0
597,45.0,24.0,20.0,0.0,0.0
598,69.0,144.0,60.0,0.0,0.0
599,44.0,24.0,20.0,0.0,0.0
600,42.0,0.0,20.0,0.0,0.0
601,74.0,48.0,150.0,0.0,0.0
602,71.0,96.0,60.0,0.0,0.0
603,76.0,24.0,150.0,0.0,0.0
604,40.0,24.0,15.0,0.0,0.0
605,52.0,0.0,20.0,0.0,0.0
606,54.0,24.0,20.0,0.0,0.0
607,74.0,144.0,60.0,0.0,0.0
608,56.0,0.0,20.0,0.0,0.0
609,68.0,0.0,15.0,0.0,0.0
610,57.0,24.0,300.0,0.0,0.0
611,64.0,96.0,60.0,0.0,0.0
612,69.0,24.0,150.0,0.0,0.0
613,57.0,24.0,20.0,0.0,0.0
614,56.0,0.0,20.0,0.0,0.0
615,54.0,24.0,20.0,0.0,0.0
616,68.0,0.0,60.0,0.0,0.0
617,52.0,144.0,20.0,0.0,0.0
618,66.0,144.0,390.0,0.0,0.0
619,50.0,0.0,390.0,0.0,0.0
620,54.0,0.0,390.0,0.0,0.0
621,73.0,0.0,15.0,0.0,0.0
622,71.0,24.0,20.0,0.0,0.0
623,69.0,144.0,20.0,0.0,0.0
624,71.0,48.0,150.0,0.0,0.0
625,68.0,0.0,60.0,0.0,0.0
626,49.0,0.0,390.0,0.0,0.0
627,69.0,48.0,150.0,0.0,0.0
628,61.0,96.0,300.0,0.0,0.0
629,66.0,0.0,180.0,0.0,0.0
630,71.0,96.0,60.0,0.0,0.0
631,68.0,0.0,180.0,0.0,0.0
632,65.0,144.0,180.0,0.0,0.0
633,59.0,0.0,90.0,0.0,0.0
634,57.0,48.0,300.0,0.0,0.0
635,49.0,0.0,390.0,0.0,0.0
636,68.0,24.0,150.0,0.0,0.0
637,73.0,96.0,180.0,0.0,0.0
638,66.0,24.0,20.0,0.0,0.0
639,65.0,0.0,20.0,0.0,0.0
640,66.0,48.0,150.0,0.0,0.0
641,56.0,0.0,90.0,0.0,0.0
642,68.0,144.0,60.0,0.0,0.0
643,66.0,0.0,15.0,0.0,0.0
644,49.0,0.0,390.0,0.0,0.0
645,54.0,0.0,390.0,0.0,0.0
646,69.0,0.0,150.0,0.0,0.0
647,71.0,144.0,60.0,0.0,0.0
648,68.0,0.0,60.0,0.0,0.0
649,69.0,48.0,150.0,0.0,0.0
650,73.0,96.0,180.0,0.0,0.0
651,66.0,0.0,60.0,0.0,0.0
652,74.0,0.0,180.0,0.0,0.0
653,71.0,24.0,90.0,0.0,0.0
654,53.0,0.0,390.0,0.0,0.0
655,71.0,24.0,20.0,0.0,0.0
656,80.0,24.0,20.0,0.0,0.0
657,81.0,24.0,20.0,0.0,0.0
658,83.0,96.0,20.0,0.0,0.0
659,73.0,48.0,150.0,0.0,0.0
660,81.0,0.0,150.0,0.0,0.0
661,49.0,48.0,15.0,0.0,0.0
662,80.0,0.0,60.0,0.0,0.0
663,71.0,144.0,60.0,0.0,0.0
664,50.0,48.0,150.0,0.0,0.0
665,54.0,48.0,300.0,0.0,0.0
666,78.0,0.0,150.0,0.0,0.0
667,69.0,0.0,180.0,0.0,0.0
668,76.0,0.0,60.0,0.0,0.0
669,49.0,48.0,60.0,0.0,0.0
670,47.0,0.0,180.0,0.0,0.0
671,69.0,48.0,60.0,0.0,0.0
672,74.0,0.0,180.0,0.0,0.0
673,68.0,0.0,60.0,0.0,0.0
674,69.0,48.0,60.0,0.0,0.0
675,56.0,0.0,90.0,0.0,0.0
676,71.0,96.0,60.0,0.0,0.0
677,45.0,48.0,150.0,0.0,0.0
678,57.0,144.0,390.0,0.0,0.0
679,73.0,48.0,90.0,0.0,0.0
680,74.0,144.0,60.0,0.0,0.0
681,47.0,0.0,60.0,0.0,0.0
682,49.0,0.0,150.0,0.0,0.0
683,76.0,48.0,150.0,0.0,0.0
684,50.0,0.0,60.0,0.0,0.0
685,78.0,0.0,60.0,0.0,0.0
686,71.0,0.0,150.0,0.0,0.0
687,57.0,48.0,150.0,0.0,0.0
688,59.0,144.0,60.0,0.0,0.0
689,79.0,0.0,60.0,0.0,0.0
690,57.0,0.0,150.0,0.0,0.0
691,73.0,24.0,150.0,0.0,0.0
692,55.0,0.0,60.0,0.0,0.0
693,74.0,24.0,20.0,0.0,0.0
694,76.0,144.0,20.0,0.0,0.0
695,52.0,0.0,15.0,0.0,0.0
696,78.0,0.0,390.0,0.0,0.0
697,54.0,48.0,150.0,0.0,0.0
698,70.0,0.0,150.0,0.0,0.0
699,73.0,96.0,60.0,0.0,0.0
700,58.0,0.0,60.0,0.0,0.0
701,66.0,0.0,180.0,0.0,0.0
702,59.0,48.0,150.0,0.0,0.0
703,52.0,48.0,15.0,0.0,0.0
704,61.0,144.0,60.0,0.0,0.0
705,71.0,0.0,300.0,0.0,0.0
706,50.0,48.0,300.0,0.0,0.0
707,62.0,96.0,180.0,0.0,0.0
708,66.0,48.0,150.0,0.0,0.0
709,66.0,0.0,60.0,0.0,0.0
710,64.0,0.0,180.0,0.0,0.0
711,68.0,48.0,150.0,0.0,0.0
712,73.0,0.0,90.0,0.0,0.0
713,49.0,0.0,90.0,0.0,0.0
714,70.0,144.0,60.0,0.0,0.0
715,74.0,0.0,300.0,0.0,0.0
716,47.0,0.0,180.0,0.0,0.0
717,71.0,48.0,150.0,0.0,0.0
718,70.0,48.0,60.0,0.0,0.0
719,54.0,0.0,150.0,0.0,0.0
720,66.0,0.0,15.0,0.0,0.0
721,71.0,48.0,150.0,0.0,0.0
722,64.0,48.0,60.0,0.0,0.0
723,76.0,0.0,90.0,0.0,0.0
724,62.0,0.0,60.0,0.0,0.0
725,52.0,0.0,60.0,0.0,0.0
726,61.0,0.0,60.0,0.0,0.0
727,73.0,144.0,60.0,0.0,0.0
728,59.0,0.0,180.0,0.0,0.0
729,50.0,0.0,150.0,0.0,0.0
730,74.0,24.0,150.0,0.0,0.0
731,49.0,0.0,60.0,0.0,0.0
732,76.0,24.0,20.0,0.0,0.0
733,78.0,48.0,20.0,0.0,0.0
734,47.0,144.0,180.0,0.0,0.0
735,76.0,48.0,60.0,0.0,0.0
736,74.0,48.0,60.0,0.0,0.0
737,73.0,48.0,60.0,0.0,0.0
738,71.0,0.0,60.0,0.0,0.0
739,76.0,24.0,150.0,0.0,0.0
740,79.0,0.0,390.0,0.0,0.0
741,46.0,144.0,180.0,0.0,0.0
742,74.0,24.0,20.0,0.0,0.0
743,73.0,0.0,20.0,0.0,0.0
744,74.0,0.0,150.0,0.0,0.0
745,47.0,48.0,150.0,0.0,0.0
746,70.0,0.0,60.0,0.0,0.0
747,49.0,144.0,60.0,0.0,0.0
748,71.0,24.0,150.0,0.0,0.0
749,78.0,0.0,300.0,0.0,0.0
750,66.0,0.0,180.0,0.0,0.0
751,73.0,24.0,20.0,0.0,0.0
752,74.0,0.0,20.0,0.0,0.0
753,59.0,0.0,150.0,0.0,0.0
754,68.0,48.0,150.0,0.0,0.0
755,50.0,48.0,15.0,0.0,0.0
756,52.0,48.0,60.0,0.0,0.0
757,50.0,0.0,60.0,0.0,0.0
758,76.0,96.0,90.0,0.0,0.0
759,49.0,0.0,60.0,0.0,0.0
760,70.0,0.0,60.0,0.0,0.0
761,61.0,0.0,60.0,0.0,0.0
762,47.0,48.0,90.0,0.0,0.0
763,71.0,96.0,180.0,0.0,0.0
764,62.0,48.0,150.0,0.0,0.0
765,64.0,0.0,60.0,0.0,0.0
766,66.0,0.0,180.0,0.0,0.0
767,59.0,24.0,15.0,0.0,0.0
768,57.0,24.0,20.0,0.0,0.0
769,55.0,24.0,20.0,0.0,0.0
770,54.0,144.0,20.0,0.0,0.0
771,74.0,0.0,15.0,0.0,0.0
772,67.0,0.0,180.0,0.0,0.0
773,52.0,0.0,150.0,0.0,0.0
774,73.0,144.0,60.0,0.0,0.0
775,57.0,0.0,60.0,0.0,0.0
776,66.0,48.0,150.0,0.0,0.0
777,59.0,0.0,150.0,0.0,0.0
778,74.0,0.0,150.0,0.0,0.0
779,61.0,0.0,60.0,0.0,0.0
780,76.0,0.0,60.0,0.0,0.0
781,64.0,144.0,60.0,0.0,0.0
782,62.0,48.0,150.0,0.0,0.0
783,78.0,0.0,180.0,0.0,0.0
784,61.0,48.0,60.0,0.0,0.0
785,59.0,48.0,180.0,0.0,0.0
786,78.0,48.0,60.0,0.0,0.0
787,62.0,0.0,60.0,0.0,0.0
788,79.0,0.0,60.0,0.0,0.0
789,61.0,48.0,60.0,0.0,0.0
790,78.0,0.0,60.0,0.0,0.0
791,62.0,48.0,60.0,0.0,0.0
792,76.0,0.0,60.0,0.0,0.0
793,64.0,0.0,60.0,0.0,0.0
794,74.0,48.0,60.0,0.0,0.0
795,59.0,0.0,150.0,0.0,0.0
796,78.0,48.0,60.0,0.0,0.0
797,79.0,48.0,60.0,0.0,0.0
798,57.0,48.0,60.0,0.0,0.0
799,81.0,0.0,60.0,0.0,0.0
800,55.0,0.0,180.0,0.0,0.0
801,83.0,0.0,180.0,0.0,0.0
802,66.0,0.0,15.0,0.0,0.0
803,59.0,48.0,60.0,0.0,0.0
804,61.0,48.0,60.0,0.0,0.0
805,63.0,48.0,60.0,0.0,0.0
806,83.0,48.0,60.0,0.0,0.0
807,55.0,0.0,150.0,0.0,0.0
808,64.0,48.0,180.0,0.0,0.0
809,84.0,48.0,60.0,0.0,0.0
810,83.0,48.0,60.0,0.0,0.0
811,54.0,0.0,60.0,0.0,0.0
812,81.0,0.0,60.0,0.0,0.0
813,52.0,0.0,150.0,0.0,0.0
814,79.0,48.0,60.0,0.0,0.0
815,78.0,48.0,60.0,0.0,0.0
816,76.0,48.0,60.0,0.0,0.0
817,74.0,0.0,60.0,0.0,0.0
818,54.0,24.0,60.0,0.0,0.0
819,55.0,24.0,60.0,0.0,0.0
820,74.0,24.0,20.0,0.0,0.0
821,73.0,0.0,20.0,0.0,0.0
822,74.0,24.0,20.0,0.0,0.0
823,59.0,0.0,60.0,0.0,0.0
824,73.0,24.0,20.0,0.0,0.0
825,57.0,0.0,60.0,0.0,0.0
826,74.0,24.0,20.0,0.0,0.0
827,73.0,24.0,20.0,0.0,0.0
828,71.0,24.0,20.0,0.0,0.0
829,55.0,48.0,60.0,0.0,0.0
830,69.0,0.0,20.0,0.0,0.0
831,54.0,48.0,60.0,0.0,0.0
832,52.0,48.0,60.0,0.0,0.0
833,50.0,48.0,60.0,0.0,0.0
834,49.0,0.0,60.0,0.0,0.0
835,47.0,48.0,150.0,0.0,0.0
836,74.0,48.0,15.0,0.0,0.0
837,73.0,48.0,60.0,0.0,0.0
838,71.0,0.0,60.0,0.0,0.0
839,73.0,48.0,60.0,0.0,0.0
840,45.0,0.0,60.0,0.0,0.0
841,47.0,0.0,150.0,0.0,0.0
842,74.0,48.0,60.0,0.0,0.0
843,76.0,48.0,60.0,0.0,0.0
844,78.0,48.0,60.0,0.0,0.0
845,50.0,0.0,60.0,0.0,0.0
846,80.0,48.0,60.0,0.0,0.0
847,49.0,48.0,60.0,0.0,0.0
848,81.0,48.0,150.0,0.0,0.0
849,45.0,48.0,60.0,0.0,0.0
850,47.0,0.0,60.0,0.0,0.0
851,49.0,0.0,60.0,0.0,0.0
852,79.0,48.0,60.0,0.0,0.0
853,50.0,48.0,60.0,0.0,0.0
854,78.0,0.0,60.0,0.0,0.0
855,52.0,48.0,60.0,0.0,0.0
856,76.0,0.0,60.0,0.0,0.0
857,74.0,48.0,60.0,0.0,0.0
858,54.0,0.0,60.0,0.0,0.0
859,73.0,0.0,60.0,0.0,0.0
860,55.0,144.0,60.0,0.0,0.0
861,54.0,0.0,180.0,0.0,0.0
862,74.0,24.0,150.0,0.0,0.0
863,69.0,144.0,180.0,0.0,0.0
864,76.0,24.0,20.0,0.0,0.0
865,78.0,0.0,20.0,0.0,0.0
866,71.0,48.0,150.0,0.0,0.0
867,55.0,0.0,180.0,0.0,0.0
868,62.0,0.0,150.0,0.0,0.0
869,64.0,0.0,60.0,0.0,0.0
870,83.0,96.0,60.0,0.0,0.0
871,74.0,24.0,90.0,0.0,0.0
872,66.0,0.0,150.0,0.0,0.0
873,74.0,24.0,20.0,0.0,0.0
874,73.0,24.0,20.0,0.0,0.0
875,67.0,24.0,60.0,0.0,0.0
876,71.0,24.0,20.0,0.0,0.0
877,73.0,0.0,20.0,0.0,0.0
878,74.0,24.0,20.0,0.0,0.0
879,69.0,0.0,180.0,0.0,0.0
880,73.0,24.0,20.0,0.0,0.0
881,74.0,24.0,20.0,0.0,0.0
882,73.0,24.0,20.0,0.0,0.0
883,74.0,24.0,20.0,0.0,0.0
884,73.0,48.0,20.0,0.0,0.0
885,74.0,0.0,60.0,0.0,0.0
886,57.0,48.0,15.0,0.0,0.0
887,74.0,0.0,180.0,0.0,0.0
888,71.0,24.0,180.0,0.0,0.0
889,55.0,24.0,20.0,0.0,0.0
890,54.0,48.0,20.0,0.0,0.0
891,55.0,48.0,60.0,0.0,0.0
892,52.0,0.0,60.0,0.0,0.0
893,50.0,24.0,20.0,0.0,0.0
894,69.0,24.0,150.0,0.0,0.0
895,49.0,24.0,20.0,0.0,0.0
896,50.0,24.0,20.0,0.0,0.0
897,49.0,24.0,20.0,0.0,0.0
898,50.0,24.0,20.0,0.0,0.0
899,49.0,0.0,20.0,0.0,0.0
900,47.0,24.0,20.0,0.0,0.0
901,67.0,0.0,60.0,0.0,0.0
902,76.0,96.0,60.0,0.0,0.0
903,49.0,0.0,20.0,0.0,0.0
904,50.0,24.0,150.0,0.0,0.0
905,69.0,24.0,15.0,0.0,0.0
906,71.0,0.0,20.0,0.0,0.0
907,62.0,0.0,60.0,0.0,0.0
908,69.0,24.0,20.0,0.0,0.0
909,68.0,0.0,20.0,0.0,0.0
910,69.0,0.0,150.0,0.0,0.0
911,66.0,48.0,15.0,0.0,0.0
912,61.0,0.0,150.0,0.0,0.0
913,64.0,48.0,60.0,0.0,0.0
914,66.0,48.0,60.0,0.0,0.0
915,59.0,0.0,60.0,0.0,0.0
916,71.0,0.0,60.0,0.0,0.0
917,68.0,144.0,60.0,0.0,0.0
918,57.0,48.0,150.0,0.0,0.0
919,73.0,48.0,180.0,0.0,0.0
920,69.0,0.0,150.0,0.0,0.0
921,64.0,0.0,60.0,0.0,0.0
922,45.0,0.0,60.0,0.0,0.0
923,69.0,0.0,180.0,0.0,0.0
924,43.0,48.0,150.0,0.0,0.0
925,73.0,48.0,60.0,0.0,0.0
926,71.0,48.0,60.0,0.0,0.0
927,73.0,0.0,60.0,0.0,0.0
928,42.0,144.0,60.0,0.0,0.0
929,75.0,0.0,60.0,0.0,0.0
930,40.0,48.0,150.0,0.0,0.0
931,76.0,0.0,150.0,0.0,0.0
932,69.0,0.0,180.0,0.0,0.0
933,71.0,48.0,60.0,0.0,0.0
934,52.0,0.0,60.0,0.0,0.0
935,50.0,48.0,150.0,0.0,0.0
936,68.0,48.0,60.0,0.0,0.0
937,66.0,48.0,60.0,0.0,0.0
938,68.0,0.0,60.0,0.0,0.0
939,70.0,0.0,60.0,0.0,0.0
940,49.0,144.0,60.0,0.0,0.0
941,76.0,0.0,15.0,0.0,0.0
942,71.0,0.0,150.0,0.0,0.0
943,47.0,48.0,150.0,0.0,0.0
944,66.0,48.0,60.0,0.0,0.0
945,59.0,0.0,60.0,0.0,0.0
946,75.0,48.0,60.0,0.0,0.0
947,57.0,48.0,150.0,0.0,0.0
948,71.0,0.0,180.0,0.0,0.0
949,73.0,48.0,60.0,0.0,0.0
950,75.0,0.0,60.0,0.0,0.0
951,56.0,96.0,60.0,0.0,0.0
952,77.0,0.0,60.0,0.0,0.0
953,78.0,24.0,150.0,0.0,0.0
954,54.0,24.0,90.0,0.0,0.0
955,71.0,96.0,180.0,0.0,0.0
956,54.0,24.0,20.0,0.0,0.0
957,61.0,0.0,20.0,0.0,0.0
958,80.0,0.0,60.0,0.0,0.0
959,63.0,24.0,20.0,0.0,0.0
960,65.0,0.0,20.0,0.0,0.0
961,66.0,0.0,150.0,0.0,0.0
962,81.0,144.0,180.0,0.0,0.0
963,69.0,24.0,15.0,0.0,0.0
964,73.0,24.0,20.0,0.0,0.0
965,64.0,0.0,60.0,0.0,0.0
966,74.0,24.0,20.0,0.0,0.0
967,76.0,0.0,20.0,0.0,0.0
968,62.0,48.0,150.0,0.0,0.0
969,78.0,0.0,180.0,0.0,0.0
970,61.0,0.0,60.0,0.0,0.0
971,81.0,0.0,15.0,0.0,0.0
972,62.0,0.0,150.0,0.0,0.0
973,71.0,0.0,180.0,0.0,0.0
974,80.0,48.0,150.0,0.0,0.0
975,59.0,144.0,60.0,0.0,0.0
976,78.0,0.0,60.0,0.0,0.0
977,77.0,48.0,150.0,0.0,0.0
978,71.0,0.0,180.0,0.0,0.0
979,61.0,144.0,180.0,0.0,0.0
980,73.0,0.0,60.0,0.0,0.0
981,69.0,48.0,150.0,0.0,0.0
982,78.0,144.0,180.0,0.0,0.0
983,66.0,0.0,60.0,0.0,0.0
984,68.0,0.0,180.0,0.0,0.0
985,49.0,0.0,390.0,0.0,0.0
986,78.0,24.0,150.0,0.0,0.0
987,76.0,24.0,20.0,0.0,0.0
988,75.0,144.0,20.0,0.0,0.0
989,73.0,48.0,150.0,0.0,0.0
990,71.0,144.0,60.0,0.0,0.0
991,76.0,0.0,15.0,0.0,0.0
992,42.0,48.0,300.0,0.0,0.0
993,69.0,0.0,150.0,0.0,0.0
994,68.0,0.0,60.0,0.0,0.0
995,74.0,24.0,20.0,0.0,0.0
996,73.0,96.0,20.0,0.0,0.0
997,66.0,48.0,150.0,0.0,0.0
998,74.0,0.0,180.0,0.0,0.0
999,44.0,0.0,90.0,0.0,0.0
1000,65.0,48.0,60.0,0.0,0.0
1001,45.0,48.0,300.0,0.0,0.0
1002,74.0,48.0,60.0,0.0,0.0
1003,54.0,96.0,180.0,0.0,0.0
1004,74.0,48.0,60.0,0.0,0.0
1005,73.0,48.0,60.0,0.0,0.0
1006,71.0,0.0,60.0,0.0,0.0
1007,61.0,48.0,150.0,0.0,0.0
1008,47.0,0.0,90.0,0.0,0.0
1009,59.0,0.0,60.0,0.0,0.0
1010,66.0,0.0,15.0,0.0,0.0
1011,49.0,0.0,390.0,0.0,0.0
1012,69.0,144.0,15.0,0.0,0.0
1013,57.0,0.0,150.0,0.0,0.0
1014,71.0,144.0,60.0,0.0,0.0
1015,56.0,0.0,60.0,0.0,0.0
1016,68.0,0.0,60.0,0.0,0.0
1017,54.0,0.0,180.0,0.0,0.0
1018,73.0,48.0,150.0,0.0,0.0
1019,69.0,0.0,150.0,0.0,0.0
1020,74.0,0.0,60.0,0.0,0.0
1021,50.0,0.0,390.0,0.0,0.0
1022,53.0,0.0,180.0,0.0,0.0
1023,71.0,144.0,15.0,0.0,0.0
1024,68.0,144.0,180.0,0.0,0.0
1025,80.0,24.0,20.0,0.0,0.0
1026,81.0,0.0,20.0,0.0,0.0
1027,83.0,48.0,150.0,0.0,0.0
1028,54.0,0.0,150.0,0.0,0.0
1029,71.0,0.0,60.0,0.0,0.0
1030,77.0,144.0,60.0,0.0,0.0
1031,56.0,0.0,60.0,0.0,0.0
1032,78.0,48.0,150.0,0.0,0.0
1033,49.0,0.0,300.0,0.0,0.0
1034,69.0,0.0,150.0,0.0,0.0
1035,57.0,0.0,180.0,0.0,0.0
1036,80.0,0.0,60.0,0.0,0.0
1037,71.0,24.0,60.0,0.0,0.0
1038,78.0,24.0,20.0,0.0,0.0
1039,57.0,0.0,60.0,0.0,0.0
1040,76.0,24.0,20.0,0.0,0.0
1041,59.0,0.0,60.0,0.0,0.0
1042,78.0,24.0,20.0,0.0,0.0
1043,76.0,24.0,20.0,0.0,0.0
1044,47.0,0.0,90.0,0.0,0.0
1045,57.0,48.0,60.0,0.0,0.0
1046,78.0,24.0,20.0,0.0,0.0
1047,76.0,0.0,20.0,0.0,0.0
1048,56.0,0.0,60.0,0.0,0.0
1049,73.0,0.0,15.0,0.0,0.0
1050,78.0,144.0,15.0,0.0,0.0
1051,45.0,96.0,390.0,0.0,0.0
1052,54.0,48.0,150.0,0.0,0.0
1053,80.0,0.0,60.0,0.0,0.0
1054,53.0,0.0,60.0,0.0,0.0
1055,81.0,48.0,150.0,0.0,0.0
1056,54.0,0.0,150.0,0.0,0.0
1057,56.0,0.0,60.0,0.0,0.0
1058,83.0,0.0,60.0,0.0,0.0
1059,57.0,48.0,90.0,0.0,0.0
1060,45.0,0.0,150.0,0.0,0.0
1061,80.0,24.0,20.0,0.0,0.0
1062,44.0,96.0,60.0,0.0,0.0
1063,78.0,24.0,20.0,0.0,0.0
1064,77.0,0.0,20.0,0.0,0.0
1065,45.0,0.0,150.0,0.0,0.0
1066,85.0,24.0,15.0,0.0,0.0
1067,85.0,24.0,15.0,0.0,0.0
1068,47.0,144.0,60.0,0.0,0.0
1069,83.0,24.0,20.0,0.0,0.0
1070,81.0,0.0,20.0,0.0,0.0
1071,78.0,0.0,15.0,0.0,0.0
1072,49.0,0.0,390.0,0.0,0.0
1073,80.0,96.0,390.0,0.0,0.0
1074,56.0,24.0,20.0,0.0,0.0
1075,58.0,24.0,20.0,0.0,0.0
1076,60.0,96.0,20.0,0.0,0.0
1077,78.0,24.0,15.0,0.0,0.0
1078,78.0,24.0,20.0,0.0,0.0
1079,76.0,24.0,20.0,0.0,0.0
1080,75.0,0.0,20.0,0.0,0.0
1081,61.0,0.0,15.0,0.0,0.0
1082,80.0,24.0,150.0,0.0,0.0
1083,76.0,96.0,180.0,0.0,0.0
1084,49.0,0.0,15.0,0.0,0.0
1085,52.0,0.0,20.0,0.0,0.0
1086,78.0,0.0,60.0,0.0,0.0
1087,51.0,24.0,20.0,0.0,0.0
1088,49.0,0.0,20.0,0.0,0.0
1089,47.0,24.0,90.0,0.0,0.0
1090,80.0,0.0,150.0,0.0,0.0
1091,47.0,24.0,20.0,0.0,0.0
1092,49.0,24.0,20.0,0.0,0.0
1093,81.0,144.0,60.0,0.0,0.0
1094,47.0,24.0,20.0,0.0,0.0
1095,45.0,0.0,20.0,0.0,0.0
1096,44.0,0.0,150.0,0.0,0.0
1097,83.0,24.0,300.0,0.0,0.0
1098,78.0,24.0,20.0,0.0,0.0
1099,42.0,96.0,60.0,0.0,0.0
1100,76.0,24.0,20.0,0.0,0.0
1101,75.0,0.0,20.0,0.0,0.0
1102,44.0,24.0,150.0,0.0,0.0
1103,76.0,0.0,180.0,0.0,0.0
1104,83.0,24.0,20.0,0.0,0.0
1105,83.0,0.0,20.0,0.0,0.0
1106,45.0,144.0,60.0,0.0,0.0
1107,81.0,24.0,20.0,0.0,0.0
1108,80.0,0.0,20.0,0.0,0.0
1109,54.0,24.0,20.0,0.0,0.0
1110,56.0,24.0,20.0,0.0,0.0
1111,58.0,96.0,20.0,0.0,0.0
1112,76.0,24.0,15.0,0.0,0.0
1113,76.0,24.0,15.0,0.0,0.0
1114,74.0,24.0,20.0,0.0,0.0
1115,73.0,96.0,20.0,0.0,0.0
1116,47.0,0.0,15.0,0.0,0.0
1117,59.0,0.0,15.0,0.0,0.0
1118,78.0,0.0,15.0,0.0,0.0
1119,74.0,96.0,180.0,0.0,0.0
1120,47.0,24.0,15.0,0.0,0.0
1121,50.0,0.0,20.0,0.0,0.0
1122,49.0,24.0,20.0,0.0,0.0
1123,77.0,0.0,60.0,0.0,0.0
1124,47.0,0.0,20.0,0.0,0.0
1125,78.0,0.0,150.0,0.0,0.0
1126,45.0,24.0,15.0,0.0,0.0
1127,47.0,24.0,20.0,0.0,0.0
1128,45.0,24.0,20.0,0.0,0.0
1129,80.0,0.0,60.0,0.0,0.0
1130,44.0,144.0,20.0,0.0,0.0
1131,42.0,0.0,150.0,0.0,0.0
1132,76.0,24.0,20.0,0.0,0.0
1133,40.0,96.0,60.0,0.0,0.0
1134,74.0,24.0,20.0,0.0,0.0
1135,73.0,0.0,20.0,0.0,0.0
1136,74.0,0.0,180.0,0.0,0.0
1137,42.0,24.0,150.0,0.0,0.0
1138,81.0,24.0,15.0,0.0,0.0
1139,81.0,24.0,15.0,0.0,0.0
1140,44.0,0.0,60.0,0.0,0.0
1141,80.0,24.0,20.0,0.0,0.0
1142,78.0,144.0,20.0,0.0,0.0
1143,52.0,24.0,20.0,0.0,0.0
1144,54.0,24.0,20.0,0.0,0.0
1145,56.0,96.0,20.0,0.0,0.0
1146,74.0,24.0,15.0,0.0,0.0
1147,74.0,24.0,15.0,0.0,0.0
1148,73.0,24.0,20.0,0.0,0.0
1149,71.0,0.0,20.0,0.0,0.0
1150,76.0,0.0,15.0,0.0,0.0
1151,45.0,48.0,15.0,0.0,0.0
1152,57.0,0.0,15.0,0.0,0.0
1153,59.0,0.0,60.0,0.0,0.0
1154,57.0,48.0,60.0,0.0,0.0
1155,76.0,0.0,15.0,0.0,0.0
1156,56.0,48.0,60.0,0.0,0.0
1157,54.0,48.0,60.0,0.0,0.0
1158,81.0,0.0,150.0,0.0,0.0
1159,57.0,48.0,60.0,0.0,0.0
1160,59.0,48.0,60.0,0.0,0.0
1161,80.0,0.0,60.0,0.0,0.0
1162,61.0,0.0,60.0,0.0,0.0
1163,73.0,48.0,15.0,0.0,0.0
1164,62.0,48.0,60.0,0.0,0.0
1165,78.0,0.0,150.0,0.0,0.0
1166,64.0,48.0,60.0,0.0,0.0
1167,62.0,0.0,60.0,0.0,0.0
1168,61.0,48.0,60.0,0.0,0.0
1169,66.0,0.0,60.0,0.0,0.0
1170,76.0,0.0,60.0,0.0,0.0
1171,71.0,48.0,150.0,0.0,0.0
1172,59.0,48.0,60.0,0.0,0.0
1173,57.0,48.0,60.0,0.0,0.0
1174,56.0,0.0,60.0,0.0,0.0
1175,54.0,0.0,60.0,0.0,0.0
1176,69.0,0.0,60.0,0.0,0.0
1177,53.0,48.0,60.0,0.0,0.0
1178,74.0,48.0,15.0,0.0,0.0
1179,68.0,0.0,150.0,0.0,0.0
1180,59.0,48.0,60.0,0.0,0.0
1181,61.0,0.0,60.0,0.0,0.0
1182,68.0,0.0,60.0,0.0,0.0
1183,66.0,0.0,60.0,0.0,0.0
1184,62.0,48.0,60.0,0.0,0.0
1185,65.0,0.0,180.0,0.0,0.0
1186,73.0,0.0,150.0,0.0,0.0
1187,61.0,48.0,60.0,0.0,0.0
1188,59.0,48.0,60.0,0.0,0.0
1189,57.0,48.0,60.0,0.0,0.0
1190,71.0,48.0,60.0,0.0,0.0
1191,56.0,0.0,60.0,0.0,0.0
1192,54.0,48.0,60.0,0.0,0.0
1193,69.0,48.0,150.0,0.0,0.0
1194,61.0,48.0,60.0,0.0,0.0
1195,62.0,0.0,60.0,0.0,0.0
1196,70.0,0.0,60.0,0.0,0.0
1197,64.0,48.0,60.0,0.0,0.0
1198,62.0,48.0,60.0,0.0,0.0
1199,71.0,48.0,150.0,0.0,0.0
1200,61.0,48.0,60.0,0.0,0.0
1201,59.0,0.0,60.0,0.0,0.0
1202,73.0,48.0,60.0,0.0,0.0
1203,58.0,0.0,60.0,0.0,0.0
1204,74.0,48.0,150.0,0.0,0.0
1205,66.0,0.0,15.0,0.0,0.0
1206,66.0,48.0,15.0,0.0,0.0
1207,68.0,0.0,60.0,0.0,0.0
1208,69.0,0.0,60.0,0.0,0.0
1209,75.0,48.0,60.0,0.0,0.0
1210,77.0,0.0,150.0,0.0,0.0
1211,68.0,48.0,60.0,0.0,0.0
1212,66.0,48.0,60.0,0.0,0.0
1213,65.0,48.0,60.0,0.0,0.0
1214,63.0,0.0,60.0,0.0,0.0
1215,78.0,0.0,60.0,0.0,0.0
1216,80.0,0.0,180.0,0.0,0.0
1217,59.0,48.0,15.0,0.0,0.0
1218,62.0,48.0,60.0,0.0,0.0
1219,61.0,48.0,60.0,0.0,0.0
1220,59.0,0.0,60.0,0.0,0.0
1221,65.0,48.0,15.0,0.0,0.0
1222,57.0,0.0,180.0,0.0,0.0
1223,85.0,48.0,150.0,0.0,0.0
1224,61.0,48.0,60.0,0.0,0.0
1225,63.0,0.0,60.0,0.0,0.0
1226,83.0,144.0,60.0,0.0,0.0
1227,65.0,0.0,60.0,0.0,0.0
1228,57.0,0.0,180.0,0.0,0.0
1229,81.0,48.0,150.0,0.0,0.0
1230,66.0,0.0,150.0,0.0,0.0
1231,68.0,144.0,60.0,0.0,0.0
1232,80.0,0.0,60.0,0.0,0.0
1233,69.0,48.0,150.0,0.0,0.0
1234,62.0,0.0,180.0,0.0,0.0
1235,78.0,0.0,180.0,0.0,0.0
1236,71.0,192.0,60.0,0.0,0.0
1237,73.0,0.0,390.0,0.0,0.0
1238,61.0,0.0,180.0,0.0,0.0
1239,77.0,144.0,180.0,0.0,0.0
1240,49.0,0.0,60.0,0.0,0.0
1241,51.0,48.0,150.0,0.0,0.0
1242,78.0,0.0,150.0,0.0,0.0
1243,80.0,144.0,60.0,0.0,0.0
1244,53.0,0.0,60.0,0.0,0.0
1245,66.0,0.0,180.0,0.0,0.0
1246,54.0,48.0,150.0,0.0,0.0
1247,56.0,48.0,60.0,0.0,0.0
1248,81.0,0.0,15.0,0.0,0.0
1249,73.0,48.0,150.0,0.0,0.0
1250,83.0,48.0,60.0,0.0,0.0
1251,81.0,0.0,60.0,0.0,0.0
1252,68.0,0.0,90.0,0.0,0.0
1253,80.0,0.0,60.0,0.0,0.0
1254,71.0,96.0,60.0,0.0,0.0
1255,57.0,0.0,15.0,0.0,0.0
1256,78.0,96.0,180.0,0.0,0.0
1257,69.0,0.0,150.0,0.0,0.0
1258,57.0,24.0,15.0,0.0,0.0
1259,57.0,24.0,15.0,0.0,0.0
1260,68.0,0.0,60.0,0.0,0.0
1261,59.0,24.0,20.0,0.0,0.0
1262,61.0,0.0,20.0,0.0,0.0
1263,62.0,48.0,150.0,0.0,0.0
1264,66.0,0.0,180.0,0.0,0.0
1265,71.0,48.0,90.0,0.0,0.0
1266,50.0,0.0,60.0,0.0,0.0
1267,65.0,48.0,180.0,0.0,0.0
1268,73.0,48.0,390.0,0.0,0.0
1269,49.0,48.0,60.0,0.0,0.0
1270,62.0,48.0,60.0,0.0,0.0
1271,61.0,48.0,60.0,0.0,0.0
1272,59.0,0.0,60.0,0.0,0.0
1273,57.0,48.0,60.0,0.0,0.0
1274,66.0,48.0,150.0,0.0,0.0
1275,56.0,48.0,60.0,0.0,0.0
1276,54.0,0.0,60.0,0.0,0.0
1277,68.0,0.0,60.0,0.0,0.0
1278,53.0,0.0,60.0,0.0,0.0
1279,54.0,48.0,60.0,0.0,0.0
1280,74.0,48.0,390.0,0.0,0.0
1281,64.0,48.0,60.0,0.0,0.0
1282,62.0,48.0,60.0,0.0,0.0
1283,61.0,0.0,60.0,0.0,0.0
1284,69.0,48.0,15.0,0.0,0.0
1285,59.0,0.0,60.0,0.0,0.0
1286,57.0,48.0,60.0,0.0,0.0
1287,73.0,0.0,60.0,0.0,0.0
1288,71.0,0.0,60.0,0.0,0.0
1289,56.0,48.0,60.0,0.0,0.0
1290,69.0,0.0,60.0,0.0,0.0
1291,54.0,0.0,60.0,0.0,0.0
1292,68.0,0.0,60.0,0.0,0.0
1293,53.0,48.0,60.0,0.0,0.0
1294,73.0,0.0,300.0,0.0,0.0
1295,69.0,0.0,60.0,0.0,0.0
1296,66.0,48.0,60.0,0.0,0.0
1297,68.0,48.0,60.0,0.0,0.0
1298,65.0,0.0,60.0,0.0,0.0
1299,66.0,0.0,60.0,0.0,0.0
1300,63.0,48.0,60.0,0.0,0.0
1301,61.0,48.0,60.0,0.0,0.0
1302,65.0,0.0,180.0,0.0,0.0
1303,59.0,48.0,60.0,0.0,0.0
1304,71.0,48.0,90.0,0.0,0.0
1305,57.0,48.0,60.0,0.0,0.0
1306,56.0,0.0,60.0,0.0,0.0
1307,69.0,0.0,390.0,0.0,0.0
1308,54.0,48.0,60.0,0.0,0.0
1309,66.0,0.0,150.0,0.0,0.0
1310,56.0,48.0,60.0,0.0,0.0
1311,54.0,48.0,60.0,0.0,0.0
1312,61.0,0.0,60.0,0.0,0.0
1313,52.0,48.0,60.0,0.0,0.0
1314,50.0,48.0,60.0,0.0,0.0
1315,49.0,0.0,60.0,0.0,0.0
1316,66.0,24.0,15.0,0.0,0.0
1317,47.0,0.0,60.0,0.0,0.0
1318,64.0,24.0,20.0,0.0,0.0
1319,45.0,0.0,60.0,0.0,0.0
1320,62.0,24.0,20.0,0.0,0.0
1321,61.0,48.0,20.0,0.0,0.0
1322,47.0,48.0,60.0,0.0,0.0
1323,69.0,0.0,150.0,0.0,0.0
1324,62.0,0.0,150.0,0.0,0.0
1325,54.0,48.0,60.0,0.0,0.0
1326,52.0,48.0,60.0,0.0,0.0
1327,50.0,0.0,60.0,0.0,0.0
1328,68.0,48.0,60.0,0.0,0.0
1329,59.0,0.0,60.0,0.0,0.0
1330,49.0,48.0,60.0,0.0,0.0
1331,69.0,48.0,150.0,0.0,0.0
1332,64.0,48.0,180.0,0.0,0.0
1333,47.0,48.0,60.0,0.0,0.0
1334,45.0,0.0,60.0,0.0,0.0
1335,71.0,0.0,60.0,0.0,0.0
1336,44.0,0.0,60.0,0.0,0.0
1337,45.0,48.0,60.0,0.0,0.0
1338,73.0,0.0,180.0,0.0,0.0
1339,64.0,48.0,180.0,0.0,0.0
1340,52.0,48.0,60.0,0.0,0.0
1341,54.0,48.0,60.0,0.0,0.0
1342,56.0,0.0,60.0,0.0,0.0
1343,57.0,48.0,60.0,0.0,0.0
1344,73.0,0.0,60.0,0.0,0.0
1345,64.0,48.0,60.0,0.0,0.0
1346,59.0,0.0,60.0,0.0,0.0
1347,66.0,0.0,60.0,0.0,0.0
1348,57.0,48.0,60.0,0.0,0.0
1349,56.0,48.0,60.0,0.0,0.0
1350,68.0,0.0,60.0,0.0,0.0
1351,54.0,0.0,60.0,0.0,0.0
1352,69.0,48.0,60.0,0.0,0.0
1353,57.0,48.0,60.0,0.0,0.0
1354,71.0,0.0,60.0,0.0,0.0
1355,59.0,0.0,60.0,0.0,0.0
1356,69.0,48.0,60.0,0.0,0.0
1357,61.0,48.0,60.0,0.0,0.0
1358,68.0,0.0,60.0,0.0,0.0
1359,66.0,0.0,60.0,0.0,0.0
1360,62.0,48.0,60.0,0.0,0.0
1361,69.0,0.0,60.0,0.0,0.0
1362,64.0,48.0,60.0,0.0,0.0
1363,71.0,0.0,60.0,0.0,0.0
1364,62.0,48.0,60.0,0.0,0.0
1365,61.0,48.0,60.0,0.0,0.0
1366,73.0,0.0,60.0,0.0,0.0
1367,74.0,0.0,60.0,0.0,0.0
1368,59.0,48.0,60.0,0.0,0.0
1369,47.0,0.0,60.0,0.0,0.0
1370,76.0,48.0,60.0,0.0,0.0
1371,74.0,0.0,60.0,0.0,0.0
1372,49.0,48.0,60.0,0.0,0.0
1373,50.0,48.0,60.0,0.0,0.0
1374,73.0,0.0,60.0,0.0,0.0
1375,71.0,0.0,60.0,0.0,0.0
1376,52.0,48.0,60.0,0.0,0.0
1377,59.0,48.0,60.0,0.0,0.0
1378,54.0,0.0,60.0,0.0,0.0
1379,61.0,48.0,60.0,0.0,0.0
1380,52.0,0.0,60.0,0.0,0.0
1381,50.0,0.0,60.0,0.0,0.0
1382,62.0,48.0,60.0,0.0,0.0
1383,49.0,0.0,60.0,0.0,0.0
1384,64.0,48.0,60.0,0.0,0.0
1385,57.0,0.0,180.0,0.0,0.0
1386,50.0,48.0,60.0,0.0,0.0
1387,66.0,0.0,60.0,0.0,0.0
1388,49.0,48.0,60.0,0.0,0.0
1389,64.0,0.0,60.0,0.0,0.0
1390,47.0,0.0,60.0,0.0,0.0
1391,62.0,48.0,60.0,0.0,0.0
1392,64.0,48.0,150.0,0.0,0.0
1393,61.0,48.0,60.0,0.0,0.0
1394,62.0,48.0,60.0,0.0,0.0
1395,61.0,0.0,60.0,0.0,0.0
1396,62.0,0.0,60.0,0.0,0.0
1397,59.0,96.0,60.0,0.0,0.0
1398,57.0,24.0,90.0,0.0,0.0
1399,45.0,0.0,15.0,0.0,0.0
1400,57.0,24.0,20.0,0.0,0.0
1401,61.0,0.0,20.0,0.0,0.0
1402,63.0,24.0,20.0,0.0,0.0
1403,59.0,0.0,60.0,0.0,0.0
1404,65.0,96.0,20.0,0.0,0.0
1405,66.0,0.0,180.0,0.0,0.0
1406,57.0,48.0,180.0,0.0,0.0
1407,45.0,24.0,15.0,0.0,0.0
1408,44.0,24.0,20.0,0.0,0.0
1409,45.0,24.0,20.0,0.0,0.0
1410,47.0,0.0,20.0,0.0,0.0
1411,49.0,48.0,60.0,0.0,0.0
1412,73.0,0.0,390.0,0.0,0.0
1413,66.0,48.0,150.0,0.0,0.0
1414,56.0,0.0,180.0,0.0,0.0
1415,62.0,48.0,60.0,0.0,0.0
1416,61.0,0.0,60.0,0.0,0.0
1417,65.0,0.0,60.0,0.0,0.0
1418,59.0,48.0,60.0,0.0,0.0
1419,61.0,48.0,150.0,0.0,0.0
1420,66.0,0.0,150.0,0.0,0.0
1421,57.0,48.0,60.0,0.0,0.0
1422,56.0,48.0,60.0,0.0,0.0
1423,54.0,0.0,90.0,0.0,0.0
1424,59.0,0.0,60.0,0.0,0.0
1425,68.0,48.0,60.0,0.0,0.0
1426,61.0,0.0,180.0,0.0,0.0
1427,66.0,0.0,300.0,0.0,0.0
1428,54.0,48.0,60.0,0.0,0.0
1429,69.0,48.0,180.0,0.0,0.0
1430,52.0,48.0,60.0,0.0,0.0
1431,50.0,48.0,60.0,0.0,0.0
1432,49.0,0.0,60.0,0.0,0.0
1433,50.0,0.0,60.0,0.0,0.0
1434,61.0,48.0,60.0,0.0,0.0
1435,47.0,0.0,60.0,0.0,0.0
1436,62.0,48.0,60.0,0.0,0.0
1437,53.0,0.0,90.0,0.0,0.0
1438,61.0,48.0,60.0,0.0,0.0
1439,68.0,48.0,90.0,0.0,0.0
1440,59.0,0.0,60.0,0.0,0.0
1441,66.0,0.0,180.0,0.0,0.0
1442,54.0,0.0,60.0,0.0,0.0
1443,57.0,48.0,60.0,0.0,0.0
1444,69.0,48.0,300.0,0.0,0.0
1445,59.0,48.0,60.0,0.0,0.0
1446,50.0,0.0,60.0,0.0,0.0
1447,57.0,0.0,60.0,0.0,0.0
1448,49.0,48.0,60.0,0.0,0.0
1449,47.0,0.0,60.0,0.0,0.0
1450,56.0,48.0,60.0,0.0,0.0
1451,73.0,0.0,150.0,0.0,0.0
1452,45.0,48.0,60.0,0.0,0.0
1453,54.0,0.0,150.0,0.0,0.0
1454,47.0,0.0,60.0,0.0,0.0
1455,45.0,48.0,60.0,0.0,0.0
1456,71.0,0.0,60.0,0.0,0.0
1457,44.0,0.0,60.0,0.0,0.0
1458,61.0,48.0,60.0,0.0,0.0
1459,42.0,48.0,60.0,0.0,0.0
1460,73.0,96.0,390.0,0.0,0.0
1461,66.0,0.0,150.0,0.0,0.0
1462,69.0,48.0,150.0,0.0,0.0
1463,49.0,48.0,60.0,0.0,0.0
1464,50.0,0.0,60.0,0.0,0.0
1465,68.0,0.0,60.0,0.0,0.0
1466,52.0,48.0,60.0,0.0,0.0
1467,64.0,0.0,60.0,0.0,0.0
1468,66.0,0.0,180.0,0.0,0.0
1469,62.0,48.0,150.0,0.0,0.0
1470,54.0,48.0,60.0,0.0,0.0
1471,56.0,48.0,60.0,0.0,0.0
1472,57.0,0.0,90.0,0.0,0.0
1473,61.0,0.0,60.0,0.0,0.0
1474,59.0,48.0,90.0,0.0,0.0
1475,65.0,0.0,180.0,0.0,0.0
1476,74.0,96.0,390.0,0.0,0.0
1477,56.0,0.0,60.0,0.0,0.0
1478,57.0,48.0,60.0,0.0,0.0
1479,59.0,48.0,60.0,0.0,0.0
1480,57.0,48.0,60.0,0.0,0.0
1481,66.0,0.0,150.0,0.0,0.0
1482,56.0,48.0,60.0,0.0,0.0
1483,54.0,48.0,60.0,0.0,0.0
1484,68.0,0.0,60.0,0.0,0.0
1485,53.0,0.0,60.0,0.0,0.0
1486,73.0,0.0,300.0,0.0,0.0
1487,56.0,48.0,60.0,0.0,0.0
1488,57.0,48.0,60.0,0.0,0.0
1489,59.0,0.0,60.0,0.0,0.0
1490,69.0,48.0,15.0,0.0,0.0
1491,71.0,48.0,15.0,0.0,0.0
1492,69.0,48.0,60.0,0.0,0.0
1493,68.0,0.0,60.0,0.0,0.0
1494,54.0,0.0,15.0,0.0,0.0
1495,61.0,0.0,15.0,0.0,0.0
1496,69.0,0.0,390.0,0.0,0.0
1497,66.0,0.0,150.0,0.0,0.0
1498,62.0,48.0,60.0,0.0,0.0
1499,61.0,48.0,60.0,0.0,0.0
1500,59.0,48.0,60.0,0.0,0.0
1501,61.0,0.0,60.0,0.0,0.0
1502,57.0,0.0,180.0,0.0,0.0
1503,62.0,0.0,150.0,0.0,0.0
1504,54.0,0.0,15.0,0.0,0.0
1505,55.0,48.0,60.0,0.0,0.0
1506,54.0,48.0,60.0,0.0,0.0
1507,64.0,0.0,60.0,0.0,0.0
1508,52.0,48.0,60.0,0.0,0.0
1509,66.0,0.0,390.0,0.0,0.0
1510,50.0,0.0,180.0,0.0,0.0
1511,57.0,48.0,60.0,0.0,0.0
1512,69.0,48.0,150.0,0.0,0.0
1513,56.0,48.0,60.0,0.0,0.0
1514,54.0,0.0,60.0,0.0,0.0
1515,53.0,0.0,60.0,0.0,0.0
1516,68.0,48.0,60.0,0.0,0.0
1517,54.0,144.0,180.0,0.0,0.0
1518,69.0,0.0,150.0,0.0,0.0
1519,50.0,48.0,15.0,0.0,0.0
1520,49.0,48.0,60.0,0.0,0.0
1521,71.0,0.0,60.0,0.0,0.0
1522,47.0,0.0,60.0,0.0,0.0
1523,66.0,48.0,150.0,0.0,0.0
1524,46.0,0.0,180.0,0.0,0.0
1525,54.0,0.0,180.0,0.0,0.0
1526,61.0,144.0,60.0,0.0,0.0
1527,66.0,48.0,150.0,0.0,0.0
1528,54.0,96.0,60.0,0.0,0.0
1529,64.0,0.0,60.0,0.0,0.0
1530,73.0,0.0,15.0,0.0,0.0
1531,62.0,24.0,150.0,0.0,0.0
1532,59.0,0.0,150.0,0.0,0.0
1533,73.0,24.0,20.0,0.0,0.0
1534,66.0,0.0,20.0,0.0,0.0
1535,68.0,24.0,20.0,0.0,0.0
1536,61.0,0.0,60.0,0.0,0.0
1537,57.0,0.0,60.0,0.0,0.0
1538,69.0,144.0,20.0,0.0,0.0
1539,56.0,48.0,150.0,0.0,0.0
1540,62.0,0.0,180.0,0.0,0.0
1541,71.0,0.0,180.0,0.0,0.0
1542,54.0,96.0,60.0,0.0,0.0
1543,47.0,0.0,60.0,0.0,0.0
1544,62.0,24.0,150.0,0.0,0.0
1545,56.0,48.0,300.0,0.0,0.0
1546,52.0,24.0,90.0,0.0,0.0
1547,52.0,24.0,20.0,0.0,0.0
1548,54.0,0.0,20.0,0.0,0.0
1549,59.0,0.0,60.0,0.0,0.0
1550,52.0,24.0,20.0,0.0,0.0
1551,50.0,96.0,20.0,0.0,0.0
1552,64.0,0.0,150.0,0.0,0.0
1553,49.0,0.0,180.0,0.0,0.0
1554,56.0,48.0,60.0,0.0,0.0
1555,62.0,0.0,60.0,0.0,0.0
1556,52.0,96.0,60.0,0.0,0.0
1557,61.0,0.0,150.0,0.0,0.0
1558,71.0,0.0,15.0,0.0,0.0
1559,57.0,0.0,150.0,0.0,0.0
1560,71.0,24.0,20.0,0.0,0.0
1561,64.0,24.0,20.0,0.0,0.0
1562,59.0,144.0,60.0,0.0,0.0
1563,66.0,24.0,20.0,0.0,0.0
1564,56.0,0.0,60.0,0.0,0.0
1565,68.0,0.0,20.0,0.0,0.0
1566,54.0,48.0,150.0,0.0,0.0
1567,69.0,0.0,180.0,0.0,0.0
1568,53.0,0.0,60.0,0.0,0.0
1569,45.0,0.0,60.0,0.0,0.0
1570,50.0,24.0,90.0,0.0,0.0
1571,69.0,24.0,150.0,0.0,0.0
1572,61.0,96.0,15.0,0.0,0.0
1573,50.0,24.0,20.0,0.0,0.0
1574,52.0,0.0,20.0,0.0,0.0
1575,50.0,24.0,20.0,0.0,0.0
1576,66.0,96.0,60.0,0.0,0.0
1577,49.0,0.0,20.0,0.0,0.0
1578,50.0,0.0,150.0,0.0,0.0
1579,71.0,0.0,150.0,0.0,0.0
1580,54.0,48.0,15.0,0.0,0.0
1581,59.0,48.0,15.0,0.0,0.0
1582,51.0,0.0,60.0,0.0,0.0
1583,69.0,0.0,60.0,0.0,0.0
1584,66.0,144.0,60.0,0.0,0.0
1585,68.0,0.0,150.0,0.0,0.0
1586,59.0,0.0,15.0,0.0,0.0
1587,52.0,0.0,150.0,0.0,0.0
1588,64.0,48.0,150.0,0.0,0.0
1589,50.0,0.0,60.0,0.0,0.0
1590,68.0,0.0,60.0,0.0,0.0
1591,71.0,0.0,60.0,0.0,0.0
1592,69.0,0.0,150.0,0.0,0.0
1593,49.0,0.0,150.0,0.0,0.0
1594,76.0,48.0,150.0,0.0,0.0
1595,56.0,144.0,60.0,0.0,0.0
1596,52.0,0.0,60.0,0.0,0.0
1597,71.0,0.0,60.0,0.0,0.0
1598,74.0,0.0,60.0,0.0,0.0
1599,69.0,0.0,150.0,0.0,0.0
1600,57.0,48.0,150.0,0.0,0.0
1601,61.0,0.0,150.0,0.0,0.0
1602,73.0,0.0,150.0,0.0,0.0
1603,76.0,0.0,60.0,0.0,0.0
1604,59.0,0.0,60.0,0.0,0.0
1605,71.0,144.0,60.0,0.0,0.0
1606,56.0,0.0,60.0,0.0,0.0
1607,54.0,0.0,150.0,0.0,0.0
1608,81.0,0.0,150.0,0.0,0.0
1609,57.0,48.0,15.0,0.0,0.0
1610,64.0,0.0,60.0,0.0,0.0
1611,79.0,0.0,60.0,0.0,0.0
1612,66.0,0.0,150.0,0.0,0.0
1613,73.0,144.0,15.0,0.0,0.0
1614,78.0,48.0,300.0,0.0,0.0
1615,62.0,0.0,150.0,0.0,0.0
1616,64.0,0.0,60.0,0.0,0.0
1617,70.0,96.0,60.0,0.0,0.0
1618,61.0,0.0,60.0,0.0,0.0
1619,59.0,48.0,150.0,0.0,0.0
1620,71.0,0.0,150.0,0.0,0.0
1621,62.0,0.0,150.0,0.0,0.0
1622,61.0,0.0,60.0,0.0,0.0
1623,73.0,144.0,60.0,0.0,0.0
1624,57.0,0.0,60.0,0.0,0.0
1625,78.0,0.0,60.0,0.0,0.0
1626,59.0,0.0,300.0,0.0,0.0
1627,56.0,48.0,150.0,0.0,0.0
1628,77.0,0.0,300.0,0.0,0.0
1629,74.0,48.0,300.0,0.0,0.0
1630,57.0,96.0,60.0,0.0,0.0
1631,56.0,48.0,150.0,0.0,0.0
1632,74.0,0.0,60.0,0.0,0.0
1633,80.0,192.0,60.0,0.0,0.0
1634,54.0,0.0,60.0,0.0,0.0
1635,68.0,0.0,180.0,0.0,0.0
1636,53.0,0.0,180.0,0.0,0.0
1637,59.0,0.0,15.0,0.0,0.0
1638,73.0,0.0,180.0,0.0,0.0
1639,80.0,24.0,20.0,0.0,0.0
1640,77.0,48.0,90.0,0.0,0.0
1641,49.0,0.0,90.0,0.0,0.0
1642,81.0,48.0,20.0,0.0,0.0
1643,83.0,0.0,60.0,0.0,0.0
1644,81.0,48.0,60.0,0.0,0.0
1645,78.0,0.0,90.0,0.0,0.0
1646,61.0,0.0,15.0,0.0,0.0
1647,54.0,48.0,150.0,0.0,0.0
1648,80.0,0.0,60.0,0.0,0.0
1649,78.0,0.0,60.0,0.0,0.0
1650,77.0,0.0,60.0,0.0,0.0
1651,56.0,144.0,60.0,0.0,0.0
1652,57.0,48.0,150.0,0.0,0.0
1653,59.0,0.0,60.0,0.0,0.0
1654,68.0,0.0,60.0,0.0,0.0
1655,62.0,0.0,60.0,0.0,0.0
1656,61.0,0.0,150.0,0.0,0.0
1657,78.0,144.0,15.0,0.0,0.0
1658,69.0,0.0,150.0,0.0,0.0
1659,59.0,24.0,60.0,0.0,0.0
1660,71.0,0.0,60.0,0.0,0.0
1661,80.0,0.0,60.0,0.0,0.0
1662,62.0,0.0,60.0,0.0,0.0
1663,78.0,24.0,20.0,0.0,0.0
1664,68.0,0.0,60.0,0.0,0.0
1665,77.0,0.0,20.0,0.0,0.0
1666,78.0,24.0,20.0,0.0,0.0
1667,61.0,0.0,15.0,0.0,0.0
1668,61.0,24.0,15.0,0.0,0.0
1669,68.0,0.0,90.0,0.0,0.0
1670,77.0,24.0,20.0,0.0,0.0
1671,75.0,24.0,20.0,0.0,0.0
1672,77.0,0.0,20.0,0.0,0.0
1673,49.0,0.0,60.0,0.0,0.0
1674,71.0,0.0,60.0,0.0,0.0
1675,78.0,96.0,15.0,0.0,0.0
1676,61.0,144.0,180.0,0.0,0.0
1677,71.0,24.0,90.0,0.0,0.0
1678,71.0,24.0,20.0,0.0,0.0
1679,71.0,24.0,20.0,0.0,0.0
1680,70.0,24.0,20.0,0.0,0.0
1681,68.0,0.0,20.0,0.0,0.0
1682,66.0,48.0,150.0,0.0,0.0
1683,70.0,0.0,150.0,0.0,0.0
1684,73.0,144.0,60.0,0.0,0.0
1685,64.0,0.0,60.0,0.0,0.0
1686,54.0,0.0,15.0,0.0,0.0
1687,62.0,48.0,150.0,0.0,0.0
1688,66.0,0.0,150.0,0.0,0.0
1689,64.0,0.0,60.0,0.0,0.0
1690,61.0,144.0,60.0,0.0,0.0
1691,62.0,48.0,150.0,0.0,0.0
1692,59.0,0.0,180.0,0.0,0.0
1693,67.0,0.0,60.0,0.0,0.0
1694,54.0,0.0,390.0,0.0,0.0
1695,78.0,0.0,390.0,0.0,0.0
1696,58.0,0.0,180.0,0.0,0.0
1697,61.0,24.0,15.0,0.0,0.0
1698,73.0,24.0,20.0,0.0,0.0
1699,74.0,24.0,20.0,0.0,0.0
1700,76.0,48.0,20.0,0.0,0.0
1701,59.0,0.0,150.0,0.0,0.0
1702,74.0,48.0,60.0,0.0,0.0
1703,73.0,48.0,60.0,0.0,0.0
1704,71.0,48.0,60.0,0.0,0.0
1705,70.0,144.0,60.0,0.0,0.0
1706,61.0,0.0,60.0,0.0,0.0
1707,62.0,48.0,180.0,0.0,0.0
1708,71.0,48.0,150.0,0.0,0.0
1709,66.0,0.0,60.0,0.0,0.0
1710,68.0,0.0,150.0,0.0,0.0
1711,62.0,48.0,60.0,0.0,0.0
1712,64.0,48.0,60.0,0.0,0.0
1713,73.0,192.0,90.0,0.0,0.0
1714,62.0,48.0,60.0,0.0,0.0
1715,61.0,0.0,60.0,0.0,0.0
1716,70.0,0.0,60.0,0.0,0.0
1717,54.0,0.0,15.0,0.0,0.0
1718,59.0,0.0,300.0,0.0,0.0
1719,74.0,48.0,300.0,0.0,0.0
1720,71.0,96.0,180.0,0.0,0.0
1721,78.0,48.0,150.0,0.0,0.0
1722,61.0,144.0,90.0,0.0,0.0
1723,76.0,0.0,60.0,0.0,0.0
1724,78.0,0.0,390.0,0.0,0.0
1725,54.0,0.0,15.0,0.0,0.0
1726,62.0,48.0,150.0,0.0,0.0
1727,74.0,0.0,150.0,0.0,0.0
1728,73.0,0.0,60.0,0.0,0.0
1729,64.0,144.0,60.0,0.0,0.0
1730,71.0,144.0,180.0,0.0,0.0
1731,66.0,48.0,150.0,0.0,0.0
1732,62.0,0.0,60.0,0.0,0.0
1733,54.0,0.0,15.0,0.0,0.0
1734,64.0,48.0,150.0,0.0,0.0
1735,79.0,96.0,390.0,0.0,0.0
1736,70.0,0.0,180.0,0.0,0.0
1737,61.0,144.0,60.0,0.0,0.0
1738,71.0,0.0,150.0,0.0,0.0
1739,62.0,48.0,150.0,0.0,0.0
1740,64.0,0.0,60.0,0.0,0.0
1741,73.0,0.0,60.0,0.0,0.0
1742,54.0,0.0,15.0,0.0,0.0
1743,78.0,48.0,300.0,0.0,0.0
1744,66.0,24.0,90.0,0.0,0.0
1745,66.0,24.0,20.0,0.0,0.0
1746,54.0,24.0,20.0,0.0,0.0
1747,56.0,24.0,20.0,0.0,0.0
1748,58.0,0.0,20.0,0.0,0.0
1749,74.0,48.0,15.0,0.0,0.0
1750,59.0,0.0,90.0,0.0,0.0
1751,76.0,0.0,60.0,0.0,0.0
1752,74.0,0.0,60.0,0.0,0.0
1753,76.0,0.0,90.0,0.0,0.0
1754,59.0,48.0,60.0,0.0,0.0
1755,73.0,144.0,60.0,0.0,0.0
1756,61.0,0.0,60.0,0.0,0.0
1757,74.0,96.0,390.0,0.0,0.0
1758,62.0,48.0,150.0,0.0,0.0
1759,71.0,0.0,180.0,0.0,0.0
1760,64.0,48.0,60.0,0.0,0.0
1761,71.0,0.0,60.0,0.0,0.0
1762,66.0,48.0,60.0,0.0,0.0
1763,73.0,48.0,60.0,0.0,0.0
1764,64.0,0.0,60.0,0.0,0.0
1765,71.0,48.0,60.0,0.0,0.0
1766,62.0,0.0,60.0,0.0,0.0
1767,61.0,0.0,60.0,0.0,0.0
1768,70.0,0.0,60.0,0.0,0.0
1769,59.0,48.0,90.0,0.0,0.0
1770,54.0,0.0,15.0,0.0,0.0
1771,68.0,48.0,150.0,0.0,0.0
1772,74.0,0.0,150.0,0.0,0.0
1773,73.0,0.0,60.0,0.0,0.0
1774,82.0,96.0,60.0,0.0,0.0
1775,83.0,48.0,150.0,0.0,0.0
1776,74.0,0.0,150.0,0.0,0.0
1777,54.0,48.0,15.0,0.0,0.0
1778,59.0,0.0,60.0,0.0,0.0
1779,71.0,384.0,60.0,0.0,0.0
1780,77.0,0.0,60.0,0.0,0.0
1781,54.0,0.0,60.0,0.0,0.0
1782,42.0,0.0,390.0,0.0,0.0
1783,73.0,0.0,390.0,0.0,0.0
1784,58.0,0.0,390.0,0.0,0.0
1785,78.0,0.0,390.0,0.0,0.0
