,note,step,duration,channel,velocity
0,73.0,144.0,180.0,0.0,0.0
1,66.0,48.0,150.0,0.0,0.0
2,68.0,144.0,60.0,0.0,0.0
3,69.0,48.0,150.0,0.0,0.0
4,71.0,192.0,60.0,0.0,0.0
5,73.0,192.0,180.0,0.0,0.0
6,74.0,144.0,180.0,0.0,0.0
7,73.0,48.0,150.0,0.0,0.0
8,71.0,192.0,60.0,0.0,0.0
9,54.0,0.0,180.0,0.0,0.0
10,69.0,48.0,180.0,0.0,0.0
11,61.0,0.0,150.0,0.0,0.0
12,69.0,48.0,60.0,0.0,0.0
13,68.0,48.0,60.0,0.0,0.0
14,69.0,48.0,60.0,0.0,0.0
15,71.0,0.0,60.0,0.0,0.0
16,59.0,48.0,60.0,0.0,0.0
17,57.0,48.0,150.0,0.0,0.0
18,73.0,48.0,60.0,0.0,0.0
19,74.0,48.0,60.0,0.0,0.0
20,76.0,48.0,150.0,0.0,0.0
21,56.0,48.0,60.0,0.0,0.0
22,54.0,48.0,180.0,0.0,0.0
23,74.0,48.0,60.0,0.0,0.0
24,73.0,48.0,60.0,0.0,0.0
25,74.0,0.0,60.0,0.0,0.0
26,68.0,48.0,60.0,0.0,0.0
27,53.0,48.0,180.0,0.0,0.0
28,69.0,96.0,60.0,0.0,0.0
29,71.0,48.0,150.0,0.0,0.0
30,54.0,48.0,150.0,0.0,0.0
31,73.0,48.0,60.0,0.0,0.0
32,69.0,0.0,60.0,0.0,0.0
33,71.0,48.0,60.0,0.0,0.0
34,56.0,0.0,60.0,0.0,0.0
35,78.0,0.0,180.0,0.0,0.0
36,57.0,0.0,180.0,0.0,0.0
37,73.0,48.0,60.0,0.0,0.0
38,71.0,48.0,60.0,0.0,0.0
39,69.0,48.0,60.0,0.0,0.0
40,68.0,48.0,60.0,0.0,0.0
41,66.0,48.0,60.0,0.0,0.0
42,57.0,0.0,60.0,0.0,0.0
43,85.0,0.0,150.0,0.0,0.0
44,59.0,0.0,60.0,0.0,0.0
45,63.0,48.0,60.0,0.0,0.0
46,57.0,48.0,60.0,0.0,0.0
47,65.0,0.0,90.0,0.0,0.0
48,83.0,0.0,60.0,0.0,0.0
49,56.0,48.0,60.0,0.0,0.0
50,81.0,48.0,150.0,0.0,0.0
51,54.0,48.0,60.0,0.0,0.0
52,57.0,48.0,60.0,0.0,0.0
53,59.0,0.0,60.0,0.0,0.0
54,61.0,0.0,60.0,0.0,0.0
55,80.0,48.0,60.0,0.0,0.0
56,66.0,0.0,15.0,0.0,0.0
57,62.0,0.0,180.0,0.0,0.0
58,78.0,0.0,180.0,0.0,0.0
59,68.0,48.0,60.0,0.0,0.0
60,69.0,48.0,60.0,0.0,0.0
61,71.0,48.0,60.0,0.0,0.0
62,77.0,48.0,180.0,0.0,0.0
63,61.0,48.0,150.0,0.0,0.0
64,73.0,48.0,60.0,0.0,0.0
65,68.0,48.0,60.0,0.0,0.0
66,73.0,48.0,150.0,0.0,0.0
67,49.0,0.0,60.0,0.0,0.0
68,51.0,0.0,150.0,0.0,0.0
69,78.0,48.0,150.0,0.0,0.0
70,66.0,48.0,60.0,0.0,0.0
71,71.0,0.0,90.0,0.0,0.0
72,53.0,0.0,60.0,0.0,0.0
73,80.0,48.0,60.0,0.0,0.0
74,54.0,0.0,150.0,0.0,0.0
75,66.0,0.0,180.0,0.0,0.0
76,69.0,48.0,60.0,0.0,0.0
77,73.0,48.0,60.0,0.0,0.0
78,75.0,48.0,60.0,0.0,0.0
79,77.0,0.0,60.0,0.0,0.0
80,56.0,0.0,60.0,0.0,0.0
81,78.0,0.0,60.0,0.0,0.0
82,81.0,48.0,15.0,0.0,0.0
83,57.0,0.0,90.0,0.0,0.0
84,61.0,48.0,150.0,0.0,0.0
85,73.0,0.0,60.0,0.0,0.0
86,85.0,48.0,60.0,0.0,0.0
87,54.0,0.0,90.0,0.0,0.0
88,83.0,0.0,60.0,0.0,0.0
89,78.0,0.0,90.0,0.0,0.0
90,81.0,48.0,60.0,0.0,0.0
91,63.0,0.0,60.0,0.0,0.0
92,61.0,0.0,180.0,0.0,0.0
93,76.0,48.0,180.0,0.0,0.0
94,80.0,48.0,60.0,0.0,0.0
95,64.0,48.0,150.0,0.0,0.0
96,84.0,48.0,60.0,0.0,0.0
97,85.0,0.0,60.0,0.0,0.0
98,87.0,0.0,60.0,0.0,0.0
99,66.0,0.0,60.0,0.0,0.0
100,68.0,0.0,180.0,0.0,0.0
101,88.0,48.0,180.0,0.0,0.0
102,61.0,48.0,15.0,0.0,0.0
103,62.0,48.0,60.0,0.0,0.0
104,64.0,0.0,60.0,0.0,0.0
105,66.0,0.0,180.0,0.0,0.0
106,88.0,48.0,60.0,0.0,0.0
107,69.0,96.0,180.0,0.0,0.0
108,88.0,48.0,60.0,0.0,0.0
109,86.0,48.0,60.0,0.0,0.0
110,85.0,0.0,60.0,0.0,0.0
111,59.0,0.0,180.0,0.0,0.0
112,68.0,0.0,150.0,0.0,0.0
113,86.0,48.0,180.0,0.0,0.0
114,85.0,48.0,60.0,0.0,0.0
115,83.0,48.0,60.0,0.0,0.0
116,66.0,0.0,60.0,0.0,0.0
117,81.0,0.0,60.0,0.0,0.0
118,86.0,0.0,60.0,0.0,0.0
119,59.0,48.0,15.0,0.0,0.0
120,86.0,0.0,60.0,0.0,0.0
121,85.0,48.0,60.0,0.0,0.0
122,57.0,0.0,60.0,0.0,0.0
123,83.0,0.0,60.0,0.0,0.0
124,56.0,0.0,60.0,0.0,0.0
125,85.0,0.0,180.0,0.0,0.0
126,65.0,0.0,15.0,0.0,0.0
127,57.0,0.0,180.0,0.0,0.0
128,80.0,48.0,15.0,0.0,0.0
129,61.0,0.0,60.0,0.0,0.0
130,83.0,48.0,60.0,0.0,0.0
131,63.0,0.0,60.0,0.0,0.0
132,81.0,48.0,60.0,0.0,0.0
133,65.0,0.0,60.0,0.0,0.0
134,80.0,48.0,60.0,0.0,0.0
135,81.0,0.0,180.0,0.0,0.0
136,85.0,48.0,90.0,0.0,0.0
137,66.0,48.0,180.0,0.0,0.0
138,57.0,48.0,60.0,0.0,0.0
139,57.0,0.0,60.0,0.0,0.0
140,86.0,0.0,90.0,0.0,0.0
141,56.0,48.0,60.0,0.0,0.0
142,54.0,0.0,60.0,0.0,0.0
143,83.0,0.0,180.0,0.0,0.0
144,66.0,48.0,60.0,0.0,0.0
145,80.0,0.0,180.0,0.0,0.0
146,56.0,48.0,180.0,0.0,0.0
147,66.0,48.0,60.0,0.0,0.0
148,65.0,48.0,60.0,0.0,0.0
149,63.0,0.0,60.0,0.0,0.0
150,83.0,0.0,300.0,0.0,0.0
151,65.0,48.0,90.0,0.0,0.0
152,80.0,48.0,60.0,0.0,0.0
153,73.0,0.0,60.0,0.0,0.0
154,75.0,48.0,60.0,0.0,0.0
155,66.0,0.0,60.0,0.0,0.0
156,68.0,0.0,60.0,0.0,0.0
157,77.0,48.0,60.0,0.0,0.0
158,69.0,48.0,60.0,0.0,0.0
159,78.0,0.0,60.0,0.0,0.0
160,73.0,48.0,60.0,0.0,0.0
161,68.0,0.0,60.0,0.0,0.0
162,81.0,0.0,90.0,0.0,0.0
163,69.0,48.0,60.0,0.0,0.0
164,71.0,0.0,60.0,0.0,0.0
165,61.0,48.0,15.0,0.0,0.0
166,80.0,0.0,180.0,0.0,0.0
167,78.0,0.0,15.0,0.0,0.0
168,73.0,0.0,90.0,0.0,0.0
169,78.0,48.0,15.0,0.0,0.0
170,68.0,48.0,90.0,0.0,0.0
171,77.0,48.0,60.0,0.0,0.0
172,75.0,0.0,60.0,0.0,0.0
173,61.0,0.0,15.0,0.0,0.0
174,77.0,0.0,180.0,0.0,0.0
175,73.0,0.0,180.0,0.0,0.0
176,62.0,48.0,60.0,0.0,0.0
177,61.0,48.0,60.0,0.0,0.0
178,59.0,96.0,60.0,0.0,0.0
179,57.0,48.0,300.0,0.0,0.0
180,78.0,0.0,180.0,0.0,0.0
181,61.0,48.0,60.0,0.0,0.0
182,63.0,48.0,60.0,0.0,0.0
183,65.0,48.0,60.0,0.0,0.0
184,73.0,48.0,150.0,0.0,0.0
185,66.0,48.0,60.0,0.0,0.0
186,68.0,0.0,60.0,0.0,0.0
187,69.0,0.0,90.0,0.0,0.0
188,54.0,0.0,90.0,0.0,0.0
189,75.0,48.0,60.0,0.0,0.0
190,76.0,48.0,150.0,0.0,0.0
191,69.0,48.0,60.0,0.0,0.0
192,61.0,48.0,90.0,0.0,0.0
193,71.0,0.0,60.0,0.0,0.0
194,57.0,0.0,90.0,0.0,0.0
195,73.0,48.0,150.0,0.0,0.0
196,78.0,48.0,60.0,0.0,0.0
197,80.0,0.0,180.0,0.0,0.0
198,71.0,48.0,60.0,0.0,0.0
199,69.0,48.0,60.0,0.0,0.0
200,68.0,48.0,60.0,0.0,0.0
201,81.0,48.0,180.0,0.0,0.0
202,64.0,0.0,15.0,0.0,0.0
203,66.0,48.0,90.0,0.0,0.0
204,64.0,48.0,15.0,0.0,0.0
205,78.0,48.0,150.0,0.0,0.0
206,63.0,48.0,60.0,0.0,0.0
207,61.0,0.0,60.0,0.0,0.0
208,60.0,0.0,180.0,0.0,0.0
209,80.0,48.0,150.0,0.0,0.0
210,78.0,48.0,60.0,0.0,0.0
211,76.0,0.0,60.0,0.0,0.0
212,75.0,48.0,60.0,0.0,0.0
213,78.0,0.0,60.0,0.0,0.0
214,76.0,0.0,180.0,0.0,0.0
215,73.0,48.0,60.0,0.0,0.0
216,68.0,48.0,60.0,0.0,0.0
217,70.0,48.0,60.0,0.0,0.0
218,72.0,48.0,60.0,0.0,0.0
219,73.0,0.0,180.0,0.0,0.0
220,61.0,0.0,15.0,0.0,0.0
221,76.0,0.0,60.0,0.0,0.0
222,68.0,48.0,150.0,0.0,0.0
223,59.0,0.0,60.0,0.0,0.0
224,75.0,48.0,60.0,0.0,0.0
225,57.0,0.0,90.0,0.0,0.0
226,76.0,0.0,60.0,0.0,0.0
227,66.0,0.0,60.0,0.0,0.0
228,78.0,48.0,60.0,0.0,0.0
229,64.0,48.0,150.0,0.0,0.0
230,80.0,48.0,90.0,0.0,0.0
231,73.0,48.0,60.0,0.0,0.0
232,72.0,0.0,60.0,0.0,0.0
233,79.0,48.0,150.0,0.0,0.0
234,73.0,0.0,60.0,0.0,0.0
235,63.0,0.0,60.0,0.0,0.0
236,75.0,48.0,60.0,0.0,0.0
237,76.0,0.0,180.0,0.0,0.0
238,61.0,0.0,180.0,0.0,0.0
239,82.0,48.0,60.0,0.0,0.0
240,80.0,48.0,60.0,0.0,0.0
241,79.0,0.0,60.0,0.0,0.0
242,80.0,48.0,60.0,0.0,0.0
243,60.0,48.0,180.0,0.0,0.0
244,56.0,48.0,15.0,0.0,0.0
245,78.0,48.0,60.0,0.0,0.0
246,76.0,48.0,60.0,0.0,0.0
247,75.0,0.0,60.0,0.0,0.0
248,76.0,0.0,150.0,0.0,0.0
249,75.0,0.0,15.0,0.0,0.0
250,61.0,0.0,150.0,0.0,0.0
251,75.0,48.0,15.0,0.0,0.0
252,73.0,48.0,60.0,0.0,0.0
253,72.0,0.0,60.0,0.0,0.0
254,63.0,48.0,60.0,0.0,0.0
255,75.0,0.0,60.0,0.0,0.0
256,61.0,0.0,180.0,0.0,0.0
257,73.0,48.0,60.0,0.0,0.0
258,64.0,0.0,180.0,0.0,0.0
259,71.0,48.0,60.0,0.0,0.0
260,69.0,48.0,60.0,0.0,0.0
261,68.0,0.0,60.0,0.0,0.0
262,64.0,48.0,60.0,0.0,0.0
263,54.0,48.0,150.0,0.0,0.0
264,73.0,0.0,60.0,0.0,0.0
265,69.0,0.0,150.0,0.0,0.0
266,74.0,0.0,60.0,0.0,0.0
267,66.0,48.0,60.0,0.0,0.0
268,73.0,0.0,60.0,0.0,0.0
269,64.0,0.0,60.0,0.0,0.0
270,62.0,48.0,60.0,0.0,0.0
271,71.0,0.0,60.0,0.0,0.0
272,56.0,0.0,60.0,0.0,0.0
273,73.0,48.0,60.0,0.0,0.0
274,57.0,48.0,150.0,0.0,0.0
275,64.0,0.0,180.0,0.0,0.0
276,76.0,48.0,60.0,0.0,0.0
277,78.0,0.0,60.0,0.0,0.0
278,59.0,0.0,60.0,0.0,0.0
279,80.0,48.0,60.0,0.0,0.0
280,61.0,0.0,15.0,0.0,0.0
281,81.0,48.0,60.0,0.0,0.0
282,68.0,0.0,60.0,0.0,0.0
283,83.0,48.0,60.0,0.0,0.0
284,66.0,48.0,60.0,0.0,0.0
285,65.0,48.0,60.0,0.0,0.0
286,66.0,0.0,180.0,0.0,0.0
287,85.0,0.0,15.0,0.0,0.0
288,62.0,0.0,180.0,0.0,0.0
289,83.0,48.0,60.0,0.0,0.0
290,81.0,48.0,60.0,0.0,0.0
291,80.0,48.0,60.0,0.0,0.0
292,61.0,0.0,150.0,0.0,0.0
293,81.0,48.0,60.0,0.0,0.0
294,66.0,0.0,60.0,0.0,0.0
295,65.0,0.0,60.0,0.0,0.0
296,80.0,48.0,60.0,0.0,0.0
297,78.0,48.0,60.0,0.0,0.0
298,68.0,0.0,90.0,0.0,0.0
299,59.0,0.0,60.0,0.0,0.0
300,77.0,48.0,60.0,0.0,0.0
301,61.0,0.0,300.0,0.0,0.0
302,66.0,0.0,180.0,0.0,0.0
303,78.0,48.0,60.0,0.0,0.0
304,73.0,48.0,60.0,0.0,0.0
305,75.0,48.0,60.0,0.0,0.0
306,77.0,48.0,60.0,0.0,0.0
307,57.0,0.0,15.0,0.0,0.0
308,73.0,0.0,150.0,0.0,0.0
309,56.0,48.0,60.0,0.0,0.0
310,57.0,48.0,60.0,0.0,0.0
311,71.0,0.0,60.0,0.0,0.0
312,59.0,0.0,60.0,0.0,0.0
313,66.0,48.0,15.0,0.0,0.0
314,78.0,0.0,15.0,0.0,0.0
315,61.0,0.0,180.0,0.0,0.0
316,69.0,0.0,150.0,0.0,0.0
317,76.0,48.0,60.0,0.0,0.0
318,74.0,48.0,60.0,0.0,0.0
319,64.0,0.0,60.0,0.0,0.0
320,68.0,0.0,60.0,0.0,0.0
321,73.0,96.0,60.0,0.0,0.0
322,62.0,48.0,180.0,0.0,0.0
323,66.0,0.0,180.0,0.0,0.0
324,71.0,0.0,180.0,0.0,0.0
325,61.0,48.0,60.0,0.0,0.0
326,59.0,48.0,60.0,0.0,0.0
327,57.0,0.0,60.0,0.0,0.0
328,65.0,0.0,180.0,0.0,0.0
329,56.0,0.0,180.0,0.0,0.0
330,62.0,48.0,60.0,0.0,0.0
331,62.0,48.0,60.0,0.0,0.0
332,61.0,48.0,60.0,0.0,0.0
333,59.0,48.0,60.0,0.0,0.0
334,71.0,0.0,15.0,0.0,0.0
335,61.0,48.0,150.0,0.0,0.0
336,54.0,0.0,180.0,0.0,0.0
337,66.0,0.0,150.0,0.0,0.0
338,69.0,48.0,60.0,0.0,0.0
339,74.0,0.0,90.0,0.0,0.0
340,59.0,0.0,60.0,0.0,0.0
341,68.0,48.0,60.0,0.0,0.0
342,69.0,48.0,180.0,0.0,0.0
343,61.0,48.0,90.0,0.0,0.0
344,73.0,0.0,180.0,0.0,0.0
345,54.0,48.0,60.0,0.0,0.0
346,54.0,0.0,60.0,0.0,0.0
347,62.0,0.0,90.0,0.0,0.0
348,52.0,48.0,60.0,0.0,0.0
349,50.0,0.0,60.0,0.0,0.0
350,49.0,0.0,180.0,0.0,0.0
351,64.0,0.0,180.0,0.0,0.0
352,69.0,48.0,60.0,0.0,0.0
353,71.0,48.0,60.0,0.0,0.0
354,69.0,48.0,60.0,0.0,0.0
355,67.0,48.0,60.0,0.0,0.0
356,64.0,48.0,60.0,0.0,0.0
357,62.0,48.0,60.0,0.0,0.0
358,61.0,48.0,60.0,0.0,0.0
359,59.0,0.0,60.0,0.0,0.0
360,50.0,48.0,15.0,0.0,0.0
361,57.0,0.0,90.0,0.0,0.0
362,50.0,48.0,15.0,0.0,0.0
363,49.0,48.0,60.0,0.0,0.0
364,59.0,48.0,90.0,0.0,0.0
365,47.0,0.0,60.0,0.0,0.0
366,46.0,48.0,180.0,0.0,0.0
367,66.0,0.0,15.0,0.0,0.0
368,61.0,0.0,180.0,0.0,0.0
369,67.0,48.0,60.0,0.0,0.0
370,66.0,48.0,60.0,0.0,0.0
371,64.0,0.0,60.0,0.0,0.0
372,61.0,48.0,60.0,0.0,0.0
373,62.0,0.0,180.0,0.0,0.0
374,47.0,0.0,180.0,0.0,0.0
375,59.0,48.0,60.0,0.0,0.0
376,57.0,48.0,60.0,0.0,0.0
377,56.0,48.0,60.0,0.0,0.0
378,54.0,0.0,90.0,0.0,0.0
379,62.0,48.0,180.0,0.0,0.0
380,47.0,48.0,15.0,0.0,0.0
381,56.0,0.0,90.0,0.0,0.0
382,45.0,48.0,60.0,0.0,0.0
383,44.0,0.0,60.0,0.0,0.0
384,42.0,0.0,90.0,0.0,0.0
385,57.0,0.0,90.0,0.0,0.0
386,62.0,48.0,60.0,0.0,0.0
387,66.0,48.0,60.0,0.0,0.0
388,59.0,48.0,90.0,0.0,0.0
389,44.0,0.0,90.0,0.0,0.0
390,64.0,48.0,60.0,0.0,0.0
391,62.0,0.0,60.0,0.0,0.0
392,45.0,48.0,180.0,0.0,0.0
393,61.0,48.0,150.0,0.0,0.0
394,59.0,48.0,60.0,0.0,0.0
395,59.0,48.0,60.0,0.0,0.0
396,57.0,48.0,180.0,0.0,0.0
397,73.0,0.0,60.0,0.0,0.0
398,52.0,48.0,150.0,0.0,0.0
399,71.0,48.0,60.0,0.0,0.0
400,76.0,48.0,180.0,0.0,0.0
401,69.0,0.0,60.0,0.0,0.0
402,56.0,0.0,90.0,0.0,0.0
403,71.0,0.0,90.0,0.0,0.0
404,50.0,0.0,60.0,0.0,0.0
405,64.0,0.0,180.0,0.0,0.0
406,57.0,48.0,60.0,0.0,0.0
407,69.0,48.0,150.0,0.0,0.0
408,49.0,0.0,150.0,0.0,0.0
409,52.0,48.0,60.0,0.0,0.0
410,54.0,0.0,60.0,0.0,0.0
411,47.0,0.0,60.0,0.0,0.0
412,56.0,0.0,60.0,0.0,0.0
413,71.0,96.0,60.0,0.0,0.0
414,45.0,0.0,180.0,0.0,0.0
415,57.0,48.0,90.0,0.0,0.0
416,73.0,48.0,150.0,0.0,0.0
417,69.0,0.0,60.0,0.0,0.0
418,68.0,0.0,60.0,0.0,0.0
419,74.0,0.0,60.0,0.0,0.0
420,66.0,48.0,60.0,0.0,0.0
421,44.0,0.0,180.0,0.0,0.0
422,76.0,0.0,180.0,0.0,0.0
423,71.0,48.0,60.0,0.0,0.0
424,73.0,96.0,60.0,0.0,0.0
425,74.0,48.0,150.0,0.0,0.0
426,52.0,48.0,60.0,0.0,0.0
427,45.0,0.0,150.0,0.0,0.0
428,78.0,48.0,180.0,0.0,0.0
429,57.0,48.0,150.0,0.0,0.0
430,73.0,48.0,60.0,0.0,0.0
431,74.0,0.0,90.0,0.0,0.0
432,47.0,0.0,60.0,0.0,0.0
433,56.0,0.0,60.0,0.0,0.0
434,76.0,48.0,150.0,0.0,0.0
435,57.0,48.0,60.0,0.0,0.0
436,73.0,0.0,90.0,0.0,0.0
437,61.0,48.0,60.0,0.0,0.0
438,68.0,48.0,90.0,0.0,0.0
439,74.0,0.0,60.0,0.0,0.0
440,49.0,0.0,15.0,0.0,0.0
441,50.0,48.0,60.0,0.0,0.0
442,49.0,48.0,60.0,0.0,0.0
443,47.0,0.0,60.0,0.0,0.0
444,73.0,48.0,15.0,0.0,0.0
445,69.0,0.0,15.0,0.0,0.0
446,64.0,0.0,15.0,0.0,0.0
447,45.0,48.0,180.0,0.0,0.0
448,68.0,48.0,60.0,0.0,0.0
449,62.0,0.0,60.0,0.0,0.0
450,71.0,0.0,60.0,0.0,0.0
451,61.0,48.0,60.0,0.0,0.0
452,73.0,0.0,60.0,0.0,0.0
453,69.0,0.0,60.0,0.0,0.0
454,59.0,0.0,60.0,0.0,0.0
455,71.0,0.0,60.0,0.0,0.0
456,74.0,0.0,60.0,0.0,0.0
457,45.0,48.0,60.0,0.0,0.0
458,73.0,0.0,180.0,0.0,0.0
459,49.0,48.0,60.0,0.0,0.0
460,50.0,48.0,60.0,0.0,0.0
461,52.0,0.0,60.0,0.0,0.0
462,57.0,48.0,15.0,0.0,0.0
463,76.0,0.0,15.0,0.0,0.0
464,73.0,48.0,60.0,0.0,0.0
465,78.0,0.0,60.0,0.0,0.0
466,56.0,48.0,60.0,0.0,0.0
467,74.0,0.0,60.0,0.0,0.0
468,76.0,0.0,60.0,0.0,0.0
469,73.0,0.0,60.0,0.0,0.0
470,57.0,48.0,60.0,0.0,0.0
471,74.0,0.0,60.0,0.0,0.0
472,59.0,0.0,60.0,0.0,0.0
473,71.0,0.0,60.0,0.0,0.0
474,54.0,48.0,15.0,0.0,0.0
475,61.0,0.0,90.0,0.0,0.0
476,69.0,0.0,90.0,0.0,0.0
477,56.0,48.0,60.0,0.0,0.0
478,73.0,0.0,15.0,0.0,0.0
479,54.0,48.0,60.0,0.0,0.0
480,52.0,0.0,60.0,0.0,0.0
481,81.0,0.0,15.0,0.0,0.0
482,71.0,48.0,180.0,0.0,0.0
483,51.0,48.0,60.0,0.0,0.0
484,54.0,0.0,60.0,0.0,0.0
485,80.0,0.0,180.0,0.0,0.0
486,52.0,48.0,60.0,0.0,0.0
487,51.0,0.0,60.0,0.0,0.0
488,69.0,48.0,180.0,0.0,0.0
489,49.0,48.0,60.0,0.0,0.0
490,47.0,48.0,60.0,0.0,0.0
491,49.0,48.0,60.0,0.0,0.0
492,78.0,0.0,90.0,0.0,0.0
493,51.0,0.0,60.0,0.0,0.0
494,68.0,0.0,180.0,0.0,0.0
495,78.0,48.0,90.0,0.0,0.0
496,52.0,48.0,60.0,0.0,0.0
497,54.0,0.0,60.0,0.0,0.0
498,56.0,48.0,60.0,0.0,0.0
499,76.0,0.0,180.0,0.0,0.0
500,57.0,48.0,60.0,0.0,0.0
501,66.0,0.0,180.0,0.0,0.0
502,59.0,48.0,60.0,0.0,0.0
503,61.0,48.0,60.0,0.0,0.0
504,59.0,48.0,60.0,0.0,0.0
505,57.0,0.0,60.0,0.0,0.0
506,74.0,48.0,15.0,0.0,0.0
507,64.0,0.0,180.0,0.0,0.0
508,56.0,48.0,60.0,0.0,0.0
509,52.0,48.0,60.0,0.0,0.0
510,57.0,48.0,180.0,0.0,0.0
511,73.0,48.0,60.0,0.0,0.0
512,59.0,48.0,150.0,0.0,0.0
513,76.0,48.0,60.0,0.0,0.0
514,71.0,0.0,180.0,0.0,0.0
515,75.0,0.0,60.0,0.0,0.0
516,55.0,0.0,90.0,0.0,0.0
517,76.0,0.0,90.0,0.0,0.0
518,61.0,48.0,60.0,0.0,0.0
519,62.0,0.0,150.0,0.0,0.0
520,70.0,48.0,60.0,0.0,0.0
521,78.0,48.0,150.0,0.0,0.0
522,54.0,0.0,390.0,0.0,0.0
523,66.0,48.0,60.0,0.0,0.0
524,71.0,48.0,150.0,0.0,0.0
525,64.0,48.0,60.0,0.0,0.0
526,76.0,0.0,60.0,0.0,0.0
527,74.0,48.0,150.0,0.0,0.0
528,66.0,0.0,180.0,0.0,0.0
529,83.0,48.0,60.0,0.0,0.0
530,81.0,0.0,90.0,0.0,0.0
531,73.0,48.0,60.0,0.0,0.0
532,74.0,48.0,150.0,0.0,0.0
533,54.0,48.0,60.0,0.0,0.0
534,71.0,48.0,180.0,0.0,0.0
535,67.0,0.0,180.0,0.0,0.0
536,47.0,48.0,60.0,0.0,0.0
537,73.0,0.0,60.0,0.0,0.0
538,70.0,0.0,180.0,0.0,0.0
539,66.0,48.0,150.0,0.0,0.0
540,78.0,48.0,90.0,0.0,0.0
541,52.0,48.0,15.0,0.0,0.0
542,50.0,0.0,60.0,0.0,0.0
543,49.0,48.0,60.0,0.0,0.0
544,64.0,0.0,60.0,0.0,0.0
545,71.0,0.0,150.0,0.0,0.0
546,47.0,48.0,60.0,0.0,0.0
547,54.0,48.0,60.0,0.0,0.0
548,56.0,48.0,60.0,0.0,0.0
549,73.0,0.0,60.0,0.0,0.0
550,58.0,48.0,60.0,0.0,0.0
551,62.0,0.0,15.0,0.0,0.0
552,59.0,48.0,180.0,0.0,0.0
553,61.0,48.0,60.0,0.0,0.0
554,78.0,0.0,90.0,0.0,0.0
555,62.0,48.0,60.0,0.0,0.0
556,64.0,0.0,60.0,0.0,0.0
557,83.0,0.0,300.0,0.0,0.0
558,74.0,0.0,15.0,0.0,0.0
559,59.0,48.0,90.0,0.0,0.0
560,76.0,0.0,60.0,0.0,0.0
561,74.0,48.0,60.0,0.0,0.0
562,57.0,0.0,90.0,0.0,0.0
563,73.0,0.0,60.0,0.0,0.0
564,66.0,48.0,15.0,0.0,0.0
565,71.0,48.0,60.0,0.0,0.0
566,66.0,0.0,60.0,0.0,0.0
567,74.0,48.0,60.0,0.0,0.0
568,81.0,0.0,60.0,0.0,0.0
569,64.0,48.0,60.0,0.0,0.0
570,73.0,0.0,60.0,0.0,0.0
571,79.0,0.0,60.0,0.0,0.0
572,71.0,0.0,60.0,0.0,0.0
573,62.0,48.0,60.0,0.0,0.0
574,55.0,0.0,15.0,0.0,0.0
575,81.0,48.0,180.0,0.0,0.0
576,64.0,0.0,180.0,0.0,0.0
577,73.0,48.0,90.0,0.0,0.0
578,55.0,0.0,60.0,0.0,0.0
579,76.0,0.0,90.0,0.0,0.0
580,54.0,48.0,60.0,0.0,0.0
581,52.0,0.0,60.0,0.0,0.0
582,54.0,48.0,150.0,0.0,0.0
583,69.0,0.0,150.0,0.0,0.0
584,81.0,48.0,60.0,0.0,0.0
585,64.0,0.0,60.0,0.0,0.0
586,57.0,48.0,60.0,0.0,0.0
587,79.0,0.0,60.0,0.0,0.0
588,62.0,0.0,90.0,0.0,0.0
589,55.0,48.0,60.0,0.0,0.0
590,71.0,0.0,60.0,0.0,0.0
591,62.0,0.0,90.0,0.0,0.0
592,57.0,0.0,180.0,0.0,0.0
593,78.0,0.0,15.0,0.0,0.0
594,69.0,0.0,60.0,0.0,0.0
595,67.0,48.0,60.0,0.0,0.0
596,71.0,0.0,60.0,0.0,0.0
597,66.0,48.0,60.0,0.0,0.0
598,69.0,0.0,60.0,0.0,0.0
599,61.0,0.0,90.0,0.0,0.0
600,67.0,0.0,60.0,0.0,0.0
601,64.0,48.0,60.0,0.0,0.0
602,62.0,0.0,180.0,0.0,0.0
603,66.0,48.0,60.0,0.0,0.0
604,50.0,48.0,150.0,0.0,0.0
605,69.0,48.0,60.0,0.0,0.0
606,71.0,0.0,60.0,0.0,0.0
607,73.0,48.0,60.0,0.0,0.0
608,52.0,0.0,60.0,0.0,0.0
609,54.0,0.0,150.0,0.0,0.0
610,74.0,48.0,60.0,0.0,0.0
611,69.0,48.0,60.0,0.0,0.0
612,61.0,0.0,60.0,0.0,0.0
613,74.0,48.0,150.0,0.0,0.0
614,62.0,48.0,60.0,0.0,0.0
615,55.0,48.0,60.0,0.0,0.0
616,64.0,0.0,60.0,0.0,0.0
617,66.0,0.0,60.0,0.0,0.0
618,69.0,0.0,180.0,0.0,0.0
619,57.0,0.0,180.0,0.0,0.0
620,76.0,0.0,60.0,0.0,0.0
621,64.0,48.0,60.0,0.0,0.0
622,67.0,48.0,90.0,0.0,0.0
623,74.0,48.0,60.0,0.0,0.0
624,73.0,0.0,60.0,0.0,0.0
625,62.0,48.0,150.0,0.0,0.0
626,74.0,48.0,60.0,0.0,0.0
627,59.0,48.0,180.0,0.0,0.0
628,66.0,0.0,90.0,0.0,0.0
629,76.0,48.0,60.0,0.0,0.0
630,78.0,0.0,150.0,0.0,0.0
631,71.0,0.0,60.0,0.0,0.0
632,64.0,0.0,60.0,0.0,0.0
633,73.0,0.0,60.0,0.0,0.0
634,57.0,48.0,150.0,0.0,0.0
635,66.0,0.0,150.0,0.0,0.0
636,74.0,48.0,60.0,0.0,0.0
637,79.0,48.0,60.0,0.0,0.0
638,76.0,0.0,60.0,0.0,0.0
639,67.0,0.0,60.0,0.0,0.0
640,55.0,0.0,60.0,0.0,0.0
641,81.0,0.0,15.0,0.0,0.0
642,54.0,0.0,180.0,0.0,0.0
643,78.0,48.0,15.0,0.0,0.0
644,69.0,0.0,180.0,0.0,0.0
645,76.0,0.0,60.0,0.0,0.0
646,79.0,48.0,60.0,0.0,0.0
647,78.0,48.0,60.0,0.0,0.0
648,74.0,0.0,60.0,0.0,0.0
649,76.0,48.0,60.0,0.0,0.0
650,73.0,0.0,60.0,0.0,0.0
651,54.0,0.0,60.0,0.0,0.0
652,71.0,48.0,60.0,0.0,0.0
653,73.0,0.0,60.0,0.0,0.0
654,52.0,48.0,60.0,0.0,0.0
655,74.0,0.0,60.0,0.0,0.0
656,54.0,48.0,60.0,0.0,0.0
657,55.0,0.0,60.0,0.0,0.0
658,76.0,0.0,60.0,0.0,0.0
659,78.0,0.0,90.0,0.0,0.0
660,74.0,0.0,15.0,0.0,0.0
661,69.0,48.0,150.0,0.0,0.0
662,71.0,48.0,60.0,0.0,0.0
663,73.0,48.0,150.0,0.0,0.0
664,76.0,48.0,90.0,0.0,0.0
665,67.0,0.0,60.0,0.0,0.0
666,66.0,0.0,180.0,0.0,0.0
667,69.0,48.0,60.0,0.0,0.0
668,71.0,48.0,60.0,0.0,0.0
669,73.0,0.0,60.0,0.0,0.0
670,81.0,0.0,15.0,0.0,0.0
671,66.0,48.0,60.0,0.0,0.0
672,57.0,48.0,15.0,0.0,0.0
673,80.0,0.0,60.0,0.0,0.0
674,64.0,48.0,60.0,0.0,0.0
675,81.0,0.0,60.0,0.0,0.0
676,66.0,48.0,60.0,0.0,0.0
677,68.0,0.0,60.0,0.0,0.0
678,83.0,48.0,60.0,0.0,0.0
679,74.0,0.0,15.0,0.0,0.0
680,57.0,0.0,60.0,0.0,0.0
681,76.0,0.0,60.0,0.0,0.0
682,74.0,0.0,15.0,0.0,0.0
683,69.0,48.0,15.0,0.0,0.0
684,73.0,48.0,60.0,0.0,0.0
685,71.0,0.0,60.0,0.0,0.0
686,69.0,0.0,15.0,0.0,0.0
687,76.0,0.0,15.0,0.0,0.0
688,57.0,96.0,15.0,0.0,0.0
689,73.0,0.0,90.0,0.0,0.0
690,81.0,96.0,90.0,0.0,0.0
691,69.0,48.0,90.0,0.0,0.0
692,76.0,48.0,60.0,0.0,0.0
693,78.0,0.0,60.0,0.0,0.0
694,71.0,0.0,150.0,0.0,0.0
695,64.0,48.0,15.0,0.0,0.0
696,79.0,48.0,150.0,0.0,0.0
697,66.0,0.0,60.0,0.0,0.0
698,67.0,0.0,150.0,0.0,0.0
699,59.0,48.0,150.0,0.0,0.0
700,73.0,48.0,60.0,0.0,0.0
701,81.0,0.0,60.0,0.0,0.0
702,74.0,48.0,150.0,0.0,0.0
703,83.0,48.0,90.0,0.0,0.0
704,69.0,0.0,60.0,0.0,0.0
705,61.0,0.0,60.0,0.0,0.0
706,71.0,0.0,90.0,0.0,0.0
707,76.0,48.0,60.0,0.0,0.0
708,62.0,0.0,15.0,0.0,0.0
709,78.0,0.0,15.0,0.0,0.0
710,78.0,0.0,60.0,0.0,0.0
711,80.0,0.0,60.0,0.0,0.0
712,64.0,48.0,60.0,0.0,0.0
713,81.0,0.0,150.0,0.0,0.0
714,73.0,48.0,150.0,0.0,0.0
715,66.0,48.0,60.0,0.0,0.0
716,68.0,48.0,60.0,0.0,0.0
717,69.0,0.0,150.0,0.0,0.0
718,61.0,48.0,150.0,0.0,0.0
719,83.0,0.0,60.0,0.0,0.0
720,74.0,48.0,60.0,0.0,0.0
721,85.0,0.0,90.0,0.0,0.0
722,62.0,0.0,60.0,0.0,0.0
723,71.0,0.0,60.0,0.0,0.0
724,76.0,48.0,15.0,0.0,0.0
725,80.0,48.0,60.0,0.0,0.0
726,73.0,48.0,90.0,0.0,0.0
727,64.0,0.0,90.0,0.0,0.0
728,81.0,0.0,60.0,0.0,0.0
729,59.0,48.0,60.0,0.0,0.0
730,83.0,0.0,90.0,0.0,0.0
731,68.0,0.0,60.0,0.0,0.0
732,74.0,0.0,180.0,0.0,0.0
733,69.0,0.0,60.0,0.0,0.0
734,61.0,48.0,60.0,0.0,0.0
735,78.0,48.0,60.0,0.0,0.0
736,71.0,0.0,90.0,0.0,0.0
737,62.0,0.0,90.0,0.0,0.0
738,80.0,48.0,60.0,0.0,0.0
739,66.0,0.0,90.0,0.0,0.0
740,57.0,48.0,60.0,0.0,0.0
741,81.0,0.0,90.0,0.0,0.0
742,59.0,48.0,60.0,0.0,0.0
743,73.0,0.0,15.0,0.0,0.0
744,80.0,0.0,180.0,0.0,0.0
745,66.0,0.0,15.0,0.0,0.0
746,75.0,48.0,60.0,0.0,0.0
747,65.0,48.0,60.0,0.0,0.0
748,73.0,0.0,60.0,0.0,0.0
749,72.0,0.0,60.0,0.0,0.0
750,63.0,48.0,60.0,0.0,0.0
751,61.0,0.0,15.0,0.0,0.0
752,73.0,0.0,180.0,0.0,0.0
753,85.0,0.0,150.0,0.0,0.0
754,65.0,48.0,180.0,0.0,0.0
755,59.0,48.0,60.0,0.0,0.0
756,57.0,48.0,60.0,0.0,0.0
757,83.0,0.0,60.0,0.0,0.0
758,56.0,0.0,60.0,0.0,0.0
759,81.0,48.0,150.0,0.0,0.0
760,54.0,48.0,180.0,0.0,0.0
761,66.0,48.0,60.0,0.0,0.0
762,61.0,48.0,60.0,0.0,0.0
763,64.0,48.0,150.0,0.0,0.0
764,80.0,0.0,60.0,0.0,0.0
765,66.0,0.0,180.0,0.0,0.0
766,78.0,48.0,180.0,0.0,0.0
767,61.0,48.0,60.0,0.0,0.0
768,62.0,48.0,60.0,0.0,0.0
769,71.0,0.0,60.0,0.0,0.0
770,59.0,0.0,15.0,0.0,0.0
771,68.0,48.0,90.0,0.0,0.0
772,77.0,48.0,180.0,0.0,0.0
773,73.0,48.0,150.0,0.0,0.0
774,56.0,0.0,60.0,0.0,0.0
775,57.0,0.0,300.0,0.0,0.0
776,71.0,0.0,60.0,0.0,0.0
777,78.0,0.0,150.0,0.0,0.0
778,69.0,48.0,150.0,0.0,0.0
779,61.0,48.0,15.0,0.0,0.0
780,63.0,0.0,60.0,0.0,0.0
781,65.0,48.0,60.0,0.0,0.0
782,80.0,0.0,60.0,0.0,0.0
783,68.0,0.0,60.0,0.0,0.0
784,57.0,48.0,60.0,0.0,0.0
785,66.0,0.0,90.0,0.0,0.0
786,56.0,48.0,60.0,0.0,0.0
787,57.0,48.0,60.0,0.0,0.0
788,59.0,0.0,60.0,0.0,0.0
789,65.0,48.0,180.0,0.0,0.0
790,81.0,48.0,15.0,0.0,0.0
791,83.0,48.0,60.0,0.0,0.0
792,81.0,48.0,60.0,0.0,0.0
793,73.0,0.0,90.0,0.0,0.0
794,80.0,0.0,60.0,0.0,0.0
795,78.0,48.0,300.0,0.0,0.0
796,74.0,48.0,90.0,0.0,0.0
797,61.0,0.0,15.0,0.0,0.0
798,66.0,48.0,150.0,0.0,0.0
799,58.0,0.0,60.0,0.0,0.0
800,59.0,48.0,90.0,0.0,0.0
801,62.0,0.0,90.0,0.0,0.0
802,68.0,0.0,60.0,0.0,0.0
803,69.0,0.0,180.0,0.0,0.0
804,54.0,48.0,180.0,0.0,0.0
805,61.0,48.0,60.0,0.0,0.0
806,59.0,0.0,60.0,0.0,0.0
807,73.0,0.0,90.0,0.0,0.0
808,61.0,48.0,60.0,0.0,0.0
809,62.0,0.0,60.0,0.0,0.0
810,64.0,0.0,180.0,0.0,0.0
811,69.0,48.0,60.0,0.0,0.0
812,49.0,48.0,180.0,0.0,0.0
813,73.0,0.0,90.0,0.0,0.0
814,71.0,48.0,60.0,0.0,0.0
815,76.0,0.0,90.0,0.0,0.0
816,69.0,48.0,60.0,0.0,0.0
817,67.0,0.0,60.0,0.0,0.0
818,69.0,0.0,180.0,0.0,0.0
819,50.0,48.0,180.0,0.0,0.0
820,64.0,48.0,60.0,0.0,0.0
821,64.0,48.0,60.0,0.0,0.0
822,62.0,48.0,60.0,0.0,0.0
823,61.0,0.0,60.0,0.0,0.0
824,66.0,0.0,15.0,0.0,0.0
825,59.0,0.0,390.0,0.0,0.0
826,51.0,0.0,180.0,0.0,0.0
827,69.0,48.0,60.0,0.0,0.0
828,73.0,48.0,60.0,0.0,0.0
829,71.0,48.0,60.0,0.0,0.0
830,69.0,0.0,60.0,0.0,0.0
831,52.0,0.0,180.0,0.0,0.0
832,68.0,0.0,180.0,0.0,0.0
833,66.0,48.0,15.0,0.0,0.0
834,66.0,48.0,15.0,0.0,0.0
835,64.0,48.0,60.0,0.0,0.0
836,62.0,48.0,60.0,0.0,0.0
837,53.0,0.0,180.0,0.0,0.0
838,59.0,48.0,60.0,0.0,0.0
839,61.0,0.0,300.0,0.0,0.0
840,59.0,48.0,60.0,0.0,0.0
841,57.0,48.0,60.0,0.0,0.0
842,56.0,48.0,60.0,0.0,0.0
843,68.0,0.0,15.0,0.0,0.0
844,66.0,48.0,60.0,0.0,0.0
845,54.0,0.0,15.0,0.0,0.0
846,60.0,96.0,90.0,0.0,0.0
847,57.0,0.0,15.0,0.0,0.0
848,65.0,48.0,60.0,0.0,0.0
849,66.0,0.0,60.0,0.0,0.0
850,49.0,96.0,90.0,0.0,0.0
851,65.0,0.0,90.0,0.0,0.0
852,61.0,0.0,90.0,0.0,0.0
853,56.0,0.0,90.0,0.0,0.0
854,80.0,96.0,90.0,0.0,0.0
855,85.0,48.0,150.0,0.0,0.0
856,61.0,48.0,90.0,0.0,0.0
857,73.0,0.0,90.0,0.0,0.0
858,83.0,0.0,60.0,0.0,0.0
859,78.0,0.0,150.0,0.0,0.0
860,81.0,48.0,150.0,0.0,0.0
861,66.0,48.0,15.0,0.0,0.0
862,64.0,48.0,60.0,0.0,0.0
863,62.0,0.0,150.0,0.0,0.0
864,71.0,48.0,150.0,0.0,0.0
865,76.0,0.0,60.0,0.0,0.0
866,80.0,48.0,60.0,0.0,0.0
867,81.0,0.0,90.0,0.0,0.0
868,74.0,48.0,150.0,0.0,0.0
869,69.0,48.0,60.0,0.0,0.0
870,61.0,0.0,60.0,0.0,0.0
871,59.0,0.0,90.0,0.0,0.0
872,73.0,0.0,60.0,0.0,0.0
873,83.0,0.0,15.0,0.0,0.0
874,71.0,48.0,90.0,0.0,0.0
875,68.0,48.0,15.0,0.0,0.0
876,66.0,0.0,60.0,0.0,0.0
877,81.0,0.0,60.0,0.0,0.0
878,80.0,0.0,150.0,0.0,0.0
879,76.0,48.0,150.0,0.0,0.0
880,64.0,48.0,60.0,0.0,0.0
881,62.0,48.0,60.0,0.0,0.0
882,61.0,0.0,150.0,0.0,0.0
883,69.0,48.0,150.0,0.0,0.0
884,74.0,48.0,60.0,0.0,0.0
885,78.0,0.0,60.0,0.0,0.0
886,73.0,0.0,90.0,0.0,0.0
887,76.0,0.0,90.0,0.0,0.0
888,59.0,48.0,60.0,0.0,0.0
889,68.0,0.0,60.0,0.0,0.0
890,81.0,0.0,60.0,0.0,0.0
891,73.0,48.0,60.0,0.0,0.0
892,57.0,0.0,90.0,0.0,0.0
893,66.0,48.0,300.0,0.0,0.0
894,80.0,48.0,60.0,0.0,0.0
895,71.0,0.0,60.0,0.0,0.0
896,69.0,48.0,90.0,0.0,0.0
897,62.0,48.0,60.0,0.0,0.0
898,78.0,0.0,90.0,0.0,0.0
899,61.0,0.0,60.0,0.0,0.0
900,83.0,48.0,60.0,0.0,0.0
901,74.0,0.0,60.0,0.0,0.0
902,59.0,0.0,90.0,0.0,0.0
903,73.0,0.0,60.0,0.0,0.0
904,81.0,0.0,60.0,0.0,0.0
905,80.0,0.0,90.0,0.0,0.0
906,71.0,0.0,90.0,0.0,0.0
907,64.0,48.0,60.0,0.0,0.0
908,68.0,48.0,90.0,0.0,0.0
909,62.0,0.0,60.0,0.0,0.0
910,61.0,0.0,180.0,0.0,0.0
911,85.0,0.0,180.0,0.0,0.0
912,76.0,0.0,60.0,0.0,0.0
913,68.0,48.0,60.0,0.0,0.0
914,74.0,0.0,60.0,0.0,0.0
915,66.0,48.0,60.0,0.0,0.0
916,76.0,48.0,150.0,0.0,0.0
917,68.0,48.0,60.0,0.0,0.0
918,70.0,48.0,60.0,0.0,0.0
919,78.0,48.0,150.0,0.0,0.0
920,71.0,0.0,180.0,0.0,0.0
921,59.0,0.0,180.0,0.0,0.0
922,73.0,48.0,60.0,0.0,0.0
923,74.0,48.0,90.0,0.0,0.0
924,80.0,0.0,60.0,0.0,0.0
925,81.0,48.0,150.0,0.0,0.0
926,54.0,96.0,180.0,0.0,0.0
927,73.0,48.0,60.0,0.0,0.0
928,77.0,48.0,60.0,0.0,0.0
929,78.0,0.0,60.0,0.0,0.0
930,80.0,0.0,60.0,0.0,0.0
931,83.0,0.0,60.0,0.0,0.0
932,66.0,0.0,150.0,0.0,0.0
933,81.0,96.0,180.0,0.0,0.0
934,85.0,0.0,180.0,0.0,0.0
935,71.0,48.0,60.0,0.0,0.0
936,69.0,48.0,60.0,0.0,0.0
937,68.0,0.0,60.0,0.0,0.0
938,69.0,48.0,150.0,0.0,0.0
939,86.0,0.0,180.0,0.0,0.0
940,66.0,0.0,300.0,0.0,0.0
941,85.0,48.0,60.0,0.0,0.0
942,83.0,0.0,60.0,0.0,0.0
943,81.0,0.0,60.0,0.0,0.0
944,71.0,48.0,60.0,0.0,0.0
945,85.0,48.0,150.0,0.0,0.0
946,80.0,48.0,60.0,0.0,0.0
947,73.0,0.0,180.0,0.0,0.0
948,78.0,48.0,60.0,0.0,0.0
949,65.0,0.0,90.0,0.0,0.0
950,80.0,48.0,90.0,0.0,0.0
951,83.0,0.0,60.0,0.0,0.0
952,81.0,0.0,180.0,0.0,0.0
953,66.0,48.0,60.0,0.0,0.0
954,74.0,48.0,180.0,0.0,0.0
955,78.0,0.0,180.0,0.0,0.0
956,59.0,48.0,60.0,0.0,0.0
957,61.0,48.0,60.0,0.0,0.0
958,62.0,0.0,60.0,0.0,0.0
959,64.0,0.0,60.0,0.0,0.0
960,81.0,48.0,60.0,0.0,0.0
961,73.0,0.0,150.0,0.0,0.0
962,52.0,48.0,60.0,0.0,0.0
963,80.0,0.0,60.0,0.0,0.0
964,81.0,0.0,60.0,0.0,0.0
965,54.0,48.0,60.0,0.0,0.0
966,56.0,0.0,60.0,0.0,0.0
967,71.0,0.0,60.0,0.0,0.0
968,83.0,48.0,60.0,0.0,0.0
969,69.0,0.0,180.0,0.0,0.0
970,57.0,48.0,60.0,0.0,0.0
971,85.0,0.0,60.0,0.0,0.0
972,59.0,0.0,60.0,0.0,0.0
973,83.0,48.0,60.0,0.0,0.0
974,81.0,0.0,60.0,0.0,0.0
975,61.0,48.0,60.0,0.0,0.0
976,85.0,48.0,60.0,0.0,0.0
977,57.0,0.0,60.0,0.0,0.0
978,62.0,48.0,90.0,0.0,0.0
979,69.0,48.0,60.0,0.0,0.0
980,68.0,0.0,60.0,0.0,0.0
981,61.0,0.0,60.0,0.0,0.0
982,70.0,48.0,60.0,0.0,0.0
983,71.0,0.0,60.0,0.0,0.0
984,59.0,0.0,60.0,0.0,0.0
985,58.0,0.0,90.0,0.0,0.0
986,78.0,48.0,15.0,0.0,0.0
987,73.0,48.0,60.0,0.0,0.0
988,74.0,0.0,60.0,0.0,0.0
989,71.0,48.0,60.0,0.0,0.0
990,61.0,0.0,90.0,0.0,0.0
991,70.0,48.0,60.0,0.0,0.0
992,76.0,48.0,180.0,0.0,0.0
993,73.0,48.0,60.0,0.0,0.0
994,62.0,48.0,60.0,0.0,0.0
995,66.0,0.0,90.0,0.0,0.0
996,49.0,0.0,60.0,0.0,0.0
997,50.0,48.0,60.0,0.0,0.0
998,71.0,0.0,90.0,0.0,0.0
999,74.0,0.0,90.0,0.0,0.0
1000,52.0,48.0,60.0,0.0,0.0
1001,71.0,0.0,60.0,0.0,0.0
1002,54.0,48.0,60.0,0.0,0.0
1003,65.0,0.0,60.0,0.0,0.0
1004,56.0,48.0,60.0,0.0,0.0
1005,66.0,48.0,60.0,0.0,0.0
1006,57.0,0.0,60.0,0.0,0.0
1007,54.0,48.0,60.0,0.0,0.0
1008,69.0,0.0,60.0,0.0,0.0
1009,73.0,0.0,15.0,0.0,0.0
1010,62.0,0.0,180.0,0.0,0.0
1011,59.0,0.0,60.0,0.0,0.0
1012,66.0,0.0,60.0,0.0,0.0
1013,57.0,48.0,60.0,0.0,0.0
1014,56.0,0.0,60.0,0.0,0.0
1015,71.0,48.0,60.0,0.0,0.0
1016,59.0,48.0,60.0,0.0,0.0
1017,74.0,0.0,60.0,0.0,0.0
1018,68.0,48.0,300.0,0.0,0.0
1019,53.0,48.0,60.0,0.0,0.0
1020,62.0,0.0,60.0,0.0,0.0
1021,61.0,48.0,60.0,0.0,0.0
1022,54.0,0.0,60.0,0.0,0.0
1023,59.0,48.0,60.0,0.0,0.0
1024,56.0,0.0,60.0,0.0,0.0
1025,53.0,48.0,60.0,0.0,0.0
1026,61.0,0.0,60.0,0.0,0.0
1027,54.0,48.0,60.0,0.0,0.0
1028,57.0,48.0,180.0,0.0,0.0
1029,52.0,0.0,60.0,0.0,0.0
1030,50.0,48.0,60.0,0.0,0.0
1031,54.0,0.0,60.0,0.0,0.0
1032,48.0,0.0,60.0,0.0,0.0
1033,66.0,0.0,15.0,0.0,0.0
1034,56.0,48.0,180.0,0.0,0.0
1035,49.0,0.0,60.0,0.0,0.0
1036,65.0,48.0,60.0,0.0,0.0
1037,51.0,48.0,60.0,0.0,0.0
1038,66.0,0.0,60.0,0.0,0.0
1039,48.0,0.0,60.0,0.0,0.0
1040,63.0,0.0,60.0,0.0,0.0
1041,49.0,0.0,60.0,0.0,0.0
1042,65.0,48.0,60.0,0.0,0.0
1043,61.0,48.0,150.0,0.0,0.0
1044,68.0,48.0,60.0,0.0,0.0
1045,59.0,0.0,60.0,0.0,0.0
1046,73.0,48.0,90.0,0.0,0.0
1047,57.0,0.0,60.0,0.0,0.0
1048,59.0,0.0,60.0,0.0,0.0
1049,56.0,0.0,60.0,0.0,0.0
1050,57.0,0.0,150.0,0.0,0.0
1051,54.0,0.0,180.0,0.0,0.0
1052,66.0,48.0,180.0,0.0,0.0
1053,73.0,48.0,60.0,0.0,0.0
1054,74.0,48.0,60.0,0.0,0.0
1055,73.0,48.0,60.0,0.0,0.0
1056,71.0,0.0,60.0,0.0,0.0
1057,56.0,0.0,60.0,0.0,0.0
1058,73.0,48.0,150.0,0.0,0.0
1059,69.0,0.0,60.0,0.0,0.0
1060,54.0,48.0,60.0,0.0,0.0
1061,68.0,48.0,60.0,0.0,0.0
1062,52.0,0.0,60.0,0.0,0.0
1063,50.0,0.0,90.0,0.0,0.0
1064,66.0,0.0,60.0,0.0,0.0
1065,68.0,0.0,60.0,0.0,0.0
1066,71.0,48.0,60.0,0.0,0.0
1067,53.0,0.0,180.0,0.0,0.0
1068,49.0,48.0,60.0,0.0,0.0
1069,69.0,0.0,60.0,0.0,0.0
1070,71.0,0.0,60.0,0.0,0.0
1071,50.0,48.0,60.0,0.0,0.0
1072,73.0,48.0,150.0,0.0,0.0
1073,49.0,0.0,60.0,0.0,0.0
1074,68.0,48.0,60.0,0.0,0.0
1075,47.0,0.0,60.0,0.0,0.0
1076,45.0,0.0,90.0,0.0,0.0
1077,54.0,48.0,150.0,0.0,0.0
1078,66.0,0.0,180.0,0.0,0.0
1079,71.0,48.0,60.0,0.0,0.0
1080,50.0,0.0,90.0,0.0,0.0
1081,69.0,0.0,60.0,0.0,0.0
1082,56.0,48.0,60.0,0.0,0.0
1083,71.0,0.0,60.0,0.0,0.0
1084,49.0,0.0,300.0,0.0,0.0
1085,73.0,48.0,60.0,0.0,0.0
1086,65.0,48.0,180.0,0.0,0.0
1087,71.0,48.0,60.0,0.0,0.0
1088,69.0,48.0,60.0,0.0,0.0
1089,68.0,0.0,60.0,0.0,0.0
1090,57.0,0.0,15.0,0.0,0.0
1091,66.0,0.0,60.0,0.0,0.0
1092,74.0,0.0,60.0,0.0,0.0
1093,59.0,48.0,60.0,0.0,0.0
1094,51.0,0.0,60.0,0.0,0.0
1095,73.0,0.0,60.0,0.0,0.0
1096,57.0,48.0,60.0,0.0,0.0
1097,71.0,0.0,60.0,0.0,0.0
1098,56.0,0.0,60.0,0.0,0.0
1099,53.0,0.0,60.0,0.0,0.0
1100,68.0,48.0,60.0,0.0,0.0
1101,54.0,0.0,60.0,0.0,0.0
1102,69.0,48.0,60.0,0.0,0.0
1103,57.0,48.0,60.0,0.0,0.0
1104,73.0,0.0,60.0,0.0,0.0
1105,75.0,0.0,60.0,0.0,0.0
1106,59.0,48.0,60.0,0.0,0.0
1107,61.0,48.0,60.0,0.0,0.0
1108,77.0,0.0,60.0,0.0,0.0
1109,54.0,0.0,15.0,0.0,0.0
1110,69.0,0.0,60.0,0.0,0.0
1111,78.0,0.0,180.0,0.0,0.0
1112,71.0,0.0,60.0,0.0,0.0
1113,53.0,48.0,60.0,0.0,0.0
1114,69.0,48.0,60.0,0.0,0.0
1115,54.0,0.0,60.0,0.0,0.0
1116,56.0,48.0,60.0,0.0,0.0
1117,68.0,0.0,60.0,0.0,0.0
1118,66.0,0.0,300.0,0.0,0.0
1119,62.0,0.0,15.0,0.0,0.0
1120,78.0,0.0,60.0,0.0,0.0
1121,57.0,0.0,90.0,0.0,0.0
1122,79.0,0.0,60.0,0.0,0.0
1123,64.0,48.0,60.0,0.0,0.0
1124,78.0,0.0,60.0,0.0,0.0
1125,62.0,48.0,60.0,0.0,0.0
1126,58.0,0.0,90.0,0.0,0.0
1127,61.0,0.0,60.0,0.0,0.0
1128,76.0,48.0,60.0,0.0,0.0
1129,74.0,0.0,60.0,0.0,0.0
1130,59.0,48.0,60.0,0.0,0.0
1131,78.0,0.0,60.0,0.0,0.0
1132,62.0,48.0,60.0,0.0,0.0
1133,64.0,48.0,60.0,0.0,0.0
1134,80.0,0.0,60.0,0.0,0.0
1135,82.0,0.0,60.0,0.0,0.0
1136,66.0,48.0,60.0,0.0,0.0
1137,67.0,0.0,180.0,0.0,0.0
1138,59.0,48.0,60.0,0.0,0.0
1139,83.0,48.0,180.0,0.0,0.0
1140,73.0,48.0,60.0,0.0,0.0
1141,58.0,0.0,60.0,0.0,0.0
1142,74.0,0.0,60.0,0.0,0.0
1143,59.0,48.0,60.0,0.0,0.0
1144,76.0,0.0,60.0,0.0,0.0
1145,61.0,0.0,60.0,0.0,0.0
1146,78.0,48.0,180.0,0.0,0.0
1147,62.0,48.0,150.0,0.0,0.0
1148,66.0,0.0,90.0,0.0,0.0
1149,83.0,48.0,60.0,0.0,0.0
1150,85.0,48.0,60.0,0.0,0.0
1151,83.0,0.0,60.0,0.0,0.0
1152,71.0,0.0,90.0,0.0,0.0
1153,81.0,0.0,60.0,0.0,0.0
1154,63.0,0.0,60.0,0.0,0.0
1155,65.0,0.0,60.0,0.0,0.0
1156,80.0,48.0,60.0,0.0,0.0
1157,71.0,0.0,90.0,0.0,0.0
1158,77.0,0.0,60.0,0.0,0.0
1159,61.0,48.0,60.0,0.0,0.0
1160,78.0,0.0,180.0,0.0,0.0
1161,66.0,48.0,60.0,0.0,0.0
1162,69.0,0.0,60.0,0.0,0.0
1163,68.0,0.0,60.0,0.0,0.0
1164,64.0,48.0,60.0,0.0,0.0
1165,66.0,0.0,60.0,0.0,0.0
1166,73.0,0.0,15.0,0.0,0.0
1167,63.0,48.0,60.0,0.0,0.0
1168,69.0,0.0,60.0,0.0,0.0
1169,73.0,48.0,60.0,0.0,0.0
1170,61.0,0.0,60.0,0.0,0.0
1171,68.0,0.0,60.0,0.0,0.0
1172,71.0,0.0,90.0,0.0,0.0
1173,78.0,48.0,60.0,0.0,0.0
1174,66.0,0.0,60.0,0.0,0.0
1175,83.0,0.0,60.0,0.0,0.0
1176,62.0,48.0,15.0,0.0,0.0
1177,77.0,48.0,90.0,0.0,0.0
1178,71.0,0.0,60.0,0.0,0.0
1179,68.0,0.0,90.0,0.0,0.0
1180,73.0,0.0,60.0,0.0,0.0
1181,61.0,48.0,90.0,0.0,0.0
1182,69.0,48.0,90.0,0.0,0.0
1183,74.0,0.0,90.0,0.0,0.0
1184,78.0,0.0,90.0,0.0,0.0
1185,60.0,0.0,60.0,0.0,0.0
1186,73.0,48.0,150.0,0.0,0.0
1187,78.0,0.0,90.0,0.0,0.0
1188,68.0,48.0,60.0,0.0,0.0
1189,61.0,48.0,90.0,0.0,0.0
1190,66.0,0.0,60.0,0.0,0.0
1191,68.0,0.0,90.0,0.0,0.0
1192,77.0,0.0,90.0,0.0,0.0
1193,49.0,48.0,90.0,0.0,0.0
1194,71.0,0.0,60.0,0.0,0.0
1195,71.0,0.0,60.0,0.0,0.0
1196,78.0,0.0,15.0,0.0,0.0
1197,54.0,0.0,15.0,0.0,0.0
1198,66.0,48.0,15.0,0.0,0.0
1199,68.0,0.0,60.0,0.0,0.0
1200,66.0,96.0,15.0,0.0,0.0
1201,70.0,96.0,90.0,0.0,0.0
1202,78.0,0.0,90.0,0.0,0.0
1203,54.0,0.0,15.0,0.0,0.0
1204,73.0,0.0,150.0,0.0,0.0
1205,78.0,48.0,60.0,0.0,0.0
1206,56.0,0.0,60.0,0.0,0.0
1207,58.0,0.0,60.0,0.0,0.0
1208,76.0,48.0,60.0,0.0,0.0
1209,59.0,0.0,60.0,0.0,0.0
1210,71.0,48.0,60.0,0.0,0.0
1211,74.0,0.0,60.0,0.0,0.0
1212,56.0,0.0,60.0,0.0,0.0
1213,73.0,48.0,60.0,0.0,0.0
1214,54.0,0.0,180.0,0.0,0.0
1215,61.0,0.0,60.0,0.0,0.0
1216,70.0,0.0,150.0,0.0,0.0
1217,59.0,48.0,60.0,0.0,0.0
1218,74.0,0.0,60.0,0.0,0.0
1219,73.0,0.0,60.0,0.0,0.0
1220,61.0,48.0,60.0,0.0,0.0
1221,62.0,48.0,60.0,0.0,0.0
1222,71.0,0.0,60.0,0.0,0.0
1223,68.0,0.0,60.0,0.0,0.0
1224,61.0,0.0,180.0,0.0,0.0
1225,66.0,0.0,180.0,0.0,0.0
1226,64.0,0.0,60.0,0.0,0.0
1227,70.0,48.0,60.0,0.0,0.0
1228,62.0,0.0,60.0,0.0,0.0
1229,71.0,48.0,60.0,0.0,0.0
1230,64.0,0.0,60.0,0.0,0.0
1231,70.0,48.0,60.0,0.0,0.0
1232,58.0,48.0,60.0,0.0,0.0
1233,73.0,0.0,60.0,0.0,0.0
1234,68.0,0.0,60.0,0.0,0.0
1235,65.0,0.0,180.0,0.0,0.0
1236,54.0,0.0,180.0,0.0,0.0
1237,59.0,48.0,60.0,0.0,0.0
1238,61.0,48.0,60.0,0.0,0.0
1239,66.0,0.0,60.0,0.0,0.0
1240,59.0,48.0,60.0,0.0,0.0
1241,68.0,0.0,60.0,0.0,0.0
1242,71.0,48.0,60.0,0.0,0.0
1243,56.0,0.0,60.0,0.0,0.0
1244,66.0,0.0,150.0,0.0,0.0
1245,61.0,48.0,60.0,0.0,0.0
1246,70.0,0.0,60.0,0.0,0.0
1247,73.0,48.0,60.0,0.0,0.0
1248,59.0,0.0,60.0,0.0,0.0
1249,58.0,0.0,60.0,0.0,0.0
1250,76.0,48.0,60.0,0.0,0.0
1251,56.0,0.0,60.0,0.0,0.0
1252,68.0,0.0,60.0,0.0,0.0
1253,59.0,48.0,60.0,0.0,0.0
1254,76.0,0.0,60.0,0.0,0.0
1255,58.0,48.0,60.0,0.0,0.0
1256,70.0,0.0,180.0,0.0,0.0
1257,52.0,48.0,60.0,0.0,0.0
1258,50.0,48.0,60.0,0.0,0.0
1259,49.0,48.0,60.0,0.0,0.0
1260,54.0,0.0,15.0,0.0,0.0
1261,70.0,0.0,60.0,0.0,0.0
1262,76.0,0.0,15.0,0.0,0.0
1263,71.0,0.0,60.0,0.0,0.0
1264,74.0,48.0,60.0,0.0,0.0
1265,53.0,0.0,60.0,0.0,0.0
1266,70.0,0.0,60.0,0.0,0.0
1267,54.0,48.0,60.0,0.0,0.0
1268,78.0,0.0,60.0,0.0,0.0
1269,47.0,0.0,15.0,0.0,0.0
1270,77.0,0.0,60.0,0.0,0.0
1271,56.0,0.0,60.0,0.0,0.0
1272,68.0,0.0,60.0,0.0,0.0
1273,58.0,0.0,390.0,0.0,0.0
1274,78.0,0.0,390.0,0.0,0.0
1275,42.0,0.0,390.0,0.0,0.0
1276,66.0,0.0,390.0,0.0,0.0
