,note,step,duration,channel,velocity
0,75.0,0.0,1020.0,5.0,0.0
1,39.0,0.0,1020.0,7.0,0.0
2,75.0,0.0,1020.0,6.0,0.0
3,70.0,0.0,1020.0,6.0,0.0
4,67.0,0.0,1020.0,6.0,0.0
5,58.0,0.0,510.0,4.0,0.0
6,63.0,512.0,510.0,4.0,0.0
7,65.0,256.0,510.0,4.0,0.0
8,67.0,256.0,270.0,4.0,0.0
9,63.0,0.0,1020.0,6.0,0.0
10,67.0,0.0,1020.0,6.0,0.0
11,70.0,0.0,1020.0,6.0,0.0
12,39.0,0.0,1020.0,7.0,0.0
13,70.0,0.0,1020.0,5.0,0.0
14,65.0,256.0,270.0,4.0,0.0
15,58.0,256.0,510.0,4.0,0.0
16,63.0,256.0,270.0,4.0,0.0
17,65.0,0.0,270.0,4.0,0.0
18,63.0,256.0,510.0,4.0,0.0
19,67.0,256.0,270.0,4.0,0.0
20,70.0,0.0,270.0,4.0,0.0
21,68.0,256.0,270.0,4.0,0.0
22,65.0,256.0,510.0,4.0,0.0
23,72.0,0.0,270.0,4.0,0.0
24,67.0,0.0,270.0,4.0,0.0
25,70.0,256.0,270.0,4.0,0.0
26,39.0,0.0,1020.0,7.0,0.0
27,65.0,0.0,270.0,4.0,0.0
28,68.0,256.0,270.0,4.0,0.0
29,58.0,0.0,510.0,6.0,0.0
30,58.0,0.0,510.0,5.0,0.0
31,67.0,256.0,270.0,4.0,0.0
32,63.0,0.0,270.0,4.0,0.0
33,65.0,0.0,270.0,4.0,0.0
34,68.0,0.0,270.0,4.0,0.0
35,63.0,0.0,15.0,6.0,0.0
36,67.0,256.0,270.0,4.0,0.0
37,63.0,0.0,510.0,5.0,0.0
38,70.0,0.0,270.0,4.0,0.0
39,65.0,256.0,510.0,6.0,0.0
40,65.0,0.0,510.0,5.0,0.0
41,68.0,256.0,270.0,4.0,0.0
42,74.0,0.0,510.0,4.0,0.0
43,72.0,0.0,270.0,4.0,0.0
44,70.0,0.0,270.0,4.0,0.0
45,67.0,0.0,270.0,5.0,0.0
46,67.0,0.0,270.0,6.0,0.0
47,75.0,0.0,510.0,4.0,0.0
48,65.0,0.0,270.0,6.0,0.0
49,65.0,0.0,270.0,5.0,0.0
50,68.0,0.0,270.0,4.0,0.0
51,46.0,0.0,510.0,7.0,0.0
52,67.0,0.0,270.0,4.0,0.0
53,63.0,256.0,270.0,6.0,0.0
54,70.0,0.0,270.0,4.0,0.0
55,63.0,0.0,270.0,5.0,0.0
56,62.0,0.0,510.0,6.0,0.0
57,68.0,0.0,270.0,4.0,0.0
58,65.0,0.0,270.0,4.0,0.0
59,65.0,0.0,270.0,6.0,0.0
60,65.0,0.0,270.0,5.0,0.0
61,63.0,0.0,510.0,6.0,0.0
62,58.0,0.0,15.0,6.0,0.0
63,67.0,256.0,270.0,6.0,0.0
64,39.0,0.0,510.0,7.0,0.0
65,51.0,0.0,510.0,7.0,0.0
66,67.0,0.0,270.0,4.0,0.0
67,63.0,256.0,510.0,4.0,0.0
68,67.0,0.0,270.0,5.0,0.0
69,68.0,0.0,270.0,4.0,0.0
70,68.0,0.0,270.0,6.0,0.0
71,68.0,0.0,270.0,5.0,0.0
72,67.0,0.0,270.0,6.0,0.0
73,62.0,0.0,510.0,6.0,0.0
74,67.0,0.0,270.0,5.0,0.0
75,58.0,0.0,510.0,4.0,0.0
76,67.0,0.0,270.0,4.0,0.0
77,53.0,0.0,510.0,7.0,0.0
78,46.0,0.0,510.0,7.0,0.0
79,56.0,0.0,510.0,6.0,0.0
80,68.0,0.0,270.0,4.0,0.0
81,68.0,0.0,270.0,6.0,0.0
82,68.0,0.0,270.0,5.0,0.0
83,70.0,0.0,510.0,4.0,0.0
84,63.0,0.0,510.0,4.0,0.0
85,55.0,256.0,510.0,7.0,0.0
86,39.0,0.0,510.0,7.0,0.0
87,55.0,0.0,510.0,6.0,0.0
88,63.0,0.0,1530.0,6.0,0.0
89,70.0,0.0,270.0,6.0,0.0
90,70.0,0.0,270.0,5.0,0.0
91,75.0,0.0,270.0,6.0,0.0
92,75.0,0.0,270.0,5.0,0.0
93,74.0,256.0,270.0,6.0,0.0
94,53.0,0.0,510.0,6.0,0.0
95,56.0,0.0,510.0,7.0,0.0
96,74.0,0.0,270.0,5.0,0.0
97,72.0,0.0,270.0,6.0,0.0
98,72.0,0.0,270.0,5.0,0.0
99,70.0,256.0,270.0,6.0,0.0
100,58.0,0.0,510.0,7.0,0.0
101,53.0,0.0,510.0,6.0,0.0
102,70.0,0.0,270.0,5.0,0.0
103,68.0,0.0,270.0,6.0,0.0
104,68.0,0.0,270.0,5.0,0.0
105,46.0,0.0,510.0,7.0,0.0
106,58.0,0.0,1020.0,6.0,0.0
107,62.0,0.0,1020.0,6.0,0.0
108,67.0,0.0,270.0,6.0,0.0
109,65.0,0.0,510.0,4.0,0.0
110,67.0,0.0,270.0,5.0,0.0
111,74.0,0.0,510.0,4.0,0.0
112,68.0,0.0,270.0,6.0,0.0
113,68.0,0.0,270.0,5.0,0.0
114,39.0,0.0,510.0,7.0,0.0
115,67.0,0.0,510.0,4.0,0.0
116,75.0,0.0,510.0,4.0,0.0
117,67.0,0.0,270.0,6.0,0.0
118,51.0,256.0,510.0,7.0,0.0
119,67.0,0.0,270.0,5.0,0.0
120,72.0,0.0,270.0,6.0,0.0
121,72.0,0.0,270.0,5.0,0.0
122,70.0,0.0,270.0,5.0,0.0
123,70.0,0.0,270.0,6.0,0.0
124,60.0,0.0,1020.0,6.0,0.0
125,53.0,0.0,510.0,7.0,0.0
126,53.0,256.0,510.0,6.0,0.0
127,68.0,0.0,270.0,6.0,0.0
128,68.0,0.0,270.0,5.0,0.0
129,55.0,0.0,510.0,7.0,0.0
130,67.0,256.0,270.0,6.0,0.0
131,67.0,0.0,270.0,5.0,0.0
132,50.0,0.0,510.0,6.0,0.0
133,65.0,0.0,270.0,6.0,0.0
134,65.0,0.0,270.0,5.0,0.0
135,55.0,0.0,510.0,6.0,0.0
136,63.0,256.0,270.0,6.0,0.0
137,59.0,0.0,510.0,6.0,0.0
138,43.0,0.0,510.0,7.0,0.0
139,67.0,256.0,510.0,4.0,0.0
140,74.0,0.0,510.0,4.0,0.0
141,63.0,0.0,270.0,5.0,0.0
142,65.0,0.0,270.0,5.0,0.0
143,65.0,0.0,270.0,6.0,0.0
144,60.0,0.0,510.0,6.0,0.0
145,63.0,0.0,270.0,6.0,0.0
146,63.0,0.0,270.0,5.0,0.0
147,72.0,0.0,510.0,4.0,0.0
148,63.0,256.0,510.0,4.0,0.0
149,48.0,0.0,510.0,7.0,0.0
150,68.0,0.0,270.0,5.0,0.0
151,67.0,0.0,270.0,5.0,0.0
152,67.0,256.0,270.0,6.0,0.0
153,68.0,0.0,15.0,6.0,0.0
154,49.0,256.0,510.0,7.0,0.0
155,65.0,0.0,270.0,5.0,0.0
156,65.0,0.0,270.0,6.0,0.0
157,63.0,256.0,270.0,6.0,0.0
158,63.0,0.0,270.0,5.0,0.0
159,51.0,0.0,510.0,7.0,0.0
160,61.0,0.0,270.0,6.0,0.0
161,61.0,0.0,270.0,5.0,0.0
162,70.0,0.0,510.0,4.0,0.0
163,39.0,0.0,510.0,7.0,0.0
164,63.0,0.0,510.0,4.0,0.0
165,60.0,256.0,270.0,6.0,0.0
166,67.0,0.0,1020.0,6.0,0.0
167,60.0,0.0,270.0,5.0,0.0
168,61.0,256.0,270.0,6.0,0.0
169,61.0,0.0,270.0,5.0,0.0
170,44.0,256.0,510.0,7.0,0.0
171,72.0,0.0,510.0,4.0,0.0
172,63.0,0.0,510.0,4.0,0.0
173,60.0,0.0,270.0,5.0,0.0
174,60.0,0.0,270.0,6.0,0.0
175,63.0,0.0,270.0,6.0,0.0
176,63.0,0.0,270.0,5.0,0.0
177,62.0,256.0,270.0,6.0,0.0
178,62.0,0.0,270.0,5.0,0.0
179,65.0,0.0,510.0,4.0,0.0
180,56.0,0.0,510.0,7.0,0.0
181,65.0,0.0,270.0,5.0,0.0
182,65.0,0.0,270.0,6.0,0.0
183,63.0,0.0,270.0,6.0,0.0
184,67.0,256.0,510.0,4.0,0.0
185,70.0,0.0,15.0,4.0,0.0
186,55.0,0.0,510.0,7.0,0.0
187,70.0,0.0,510.0,6.0,0.0
188,63.0,0.0,270.0,5.0,0.0
189,75.0,0.0,270.0,5.0,0.0
190,75.0,0.0,270.0,6.0,0.0
191,74.0,0.0,270.0,5.0,0.0
192,68.0,0.0,510.0,6.0,0.0
193,74.0,256.0,270.0,6.0,0.0
194,53.0,0.0,510.0,7.0,0.0
195,68.0,0.0,510.0,4.0,0.0
196,72.0,0.0,270.0,5.0,0.0
197,72.0,256.0,270.0,6.0,0.0
198,70.0,0.0,270.0,6.0,0.0
199,67.0,0.0,510.0,6.0,0.0
200,70.0,0.0,270.0,5.0,0.0
201,55.0,0.0,510.0,7.0,0.0
202,67.0,256.0,270.0,4.0,0.0
203,68.0,0.0,270.0,6.0,0.0
204,68.0,0.0,270.0,4.0,0.0
205,68.0,0.0,270.0,5.0,0.0
206,65.0,0.0,270.0,4.0,0.0
207,67.0,0.0,270.0,5.0,0.0
208,56.0,0.0,510.0,7.0,0.0
209,67.0,128.0,270.0,6.0,0.0
210,67.0,0.0,270.0,4.0,0.0
211,63.0,0.0,510.0,4.0,0.0
212,39.0,0.0,510.0,7.0,0.0
213,63.0,0.0,510.0,6.0,0.0
214,68.0,0.0,270.0,4.0,0.0
215,68.0,0.0,120.0,6.0,0.0
216,68.0,0.0,120.0,5.0,0.0
217,70.0,0.0,120.0,5.0,0.0
218,70.0,256.0,120.0,6.0,0.0
219,65.0,0.0,780.0,5.0,0.0
220,65.0,0.0,780.0,4.0,0.0
221,58.0,0.0,270.0,4.0,0.0
222,65.0,256.0,780.0,6.0,0.0
223,63.0,0.0,510.0,6.0,0.0
224,58.0,0.0,510.0,7.0,0.0
225,55.0,0.0,270.0,4.0,0.0
226,46.0,256.0,15.0,7.0,0.0
227,58.0,0.0,510.0,4.0,0.0
228,46.0,256.0,15.0,7.0,0.0
229,46.0,0.0,270.0,7.0,0.0
230,62.0,0.0,510.0,6.0,0.0
231,63.0,0.0,270.0,4.0,0.0
232,46.0,0.0,270.0,7.0,0.0
233,63.0,0.0,15.0,6.0,0.0
234,63.0,0.0,15.0,5.0,0.0
235,58.0,512.0,1020.0,6.0,0.0
236,63.0,0.0,15.0,5.0,0.0
237,63.0,0.0,1020.0,4.0,0.0
238,39.0,512.0,510.0,7.0,0.0
239,55.0,0.0,1020.0,4.0,0.0
240,46.0,0.0,510.0,7.0,0.0
241,51.0,0.0,510.0,6.0,0.0
242,51.0,0.0,510.0,3.0,0.0
243,51.0,0.0,510.0,6.0,0.0
244,58.0,0.0,1020.0,0.0,0.0
245,51.0,0.0,510.0,2.0,0.0
246,51.0,512.0,510.0,7.0,0.0
247,55.0,0.0,1020.0,1.0,0.0
248,53.0,0.0,510.0,2.0,0.0
249,50.0,0.0,510.0,3.0,0.0
250,50.0,0.0,510.0,7.0,0.0
251,48.0,0.0,510.0,6.0,0.0
252,58.0,256.0,510.0,4.0,0.0
253,55.0,0.0,1020.0,2.0,0.0
254,63.0,256.0,270.0,4.0,0.0
255,48.0,512.0,510.0,7.0,0.0
256,48.0,0.0,510.0,3.0,0.0
257,60.0,0.0,1530.0,1.0,0.0
258,63.0,0.0,1020.0,0.0,0.0
259,65.0,0.0,270.0,4.0,0.0
260,46.0,0.0,510.0,3.0,0.0
261,46.0,512.0,510.0,7.0,0.0
262,58.0,0.0,510.0,4.0,0.0
263,63.0,0.0,15.0,4.0,0.0
264,53.0,0.0,1020.0,2.0,0.0
265,44.0,0.0,510.0,3.0,0.0
266,65.0,0.0,1020.0,0.0,0.0
267,44.0,512.0,510.0,7.0,0.0
268,58.0,0.0,510.0,4.0,0.0
269,46.0,0.0,510.0,3.0,0.0
270,46.0,256.0,510.0,7.0,0.0
271,65.0,0.0,510.0,4.0,0.0
272,62.0,0.0,510.0,1.0,0.0
273,67.0,256.0,270.0,4.0,0.0
274,63.0,0.0,1020.0,1.0,0.0
275,51.0,0.0,1020.0,3.0,0.0
276,67.0,0.0,1020.0,0.0,0.0
277,39.0,0.0,510.0,7.0,0.0
278,68.0,512.0,270.0,4.0,0.0
279,58.0,0.0,510.0,4.0,0.0
280,51.0,0.0,510.0,6.0,0.0
281,67.0,0.0,510.0,4.0,0.0
282,58.0,0.0,510.0,5.0,0.0
283,51.0,256.0,510.0,7.0,0.0
284,58.0,0.0,510.0,6.0,0.0
285,63.0,0.0,510.0,5.0,0.0
286,72.0,256.0,1020.0,0.0,0.0
287,56.0,0.0,1020.0,1.0,0.0
288,51.0,0.0,15.0,2.0,0.0
289,63.0,0.0,15.0,6.0,0.0
290,51.0,0.0,510.0,6.0,0.0
291,63.0,256.0,270.0,4.0,0.0
292,48.0,0.0,510.0,7.0,0.0
293,65.0,512.0,270.0,4.0,0.0
294,48.0,0.0,510.0,6.0,0.0
295,56.0,0.0,510.0,6.0,0.0
296,44.0,0.0,510.0,7.0,0.0
297,56.0,0.0,510.0,3.0,0.0
298,65.0,0.0,510.0,6.0,0.0
299,65.0,0.0,510.0,5.0,0.0
300,63.0,0.0,510.0,4.0,0.0
301,72.0,0.0,510.0,4.0,0.0
302,70.0,0.0,270.0,4.0,0.0
303,51.0,0.0,510.0,7.0,0.0
304,67.0,0.0,270.0,5.0,0.0
305,70.0,0.0,1530.0,0.0,0.0
306,51.0,0.0,15.0,2.0,0.0
307,55.0,0.0,270.0,3.0,0.0
308,67.0,0.0,270.0,6.0,0.0
309,51.0,0.0,510.0,6.0,0.0
310,58.0,0.0,270.0,6.0,0.0
311,58.0,256.0,270.0,1.0,0.0
312,65.0,0.0,270.0,6.0,0.0
313,60.0,0.0,270.0,6.0,0.0
314,56.0,0.0,270.0,3.0,0.0
315,65.0,0.0,270.0,5.0,0.0
316,68.0,256.0,270.0,4.0,0.0
317,60.0,0.0,270.0,1.0,0.0
318,58.0,256.0,270.0,6.0,0.0
319,63.0,0.0,270.0,6.0,0.0
320,39.0,0.0,510.0,7.0,0.0
321,43.0,0.0,270.0,7.0,0.0
322,55.0,0.0,270.0,3.0,0.0
323,46.0,0.0,510.0,2.0,0.0
324,63.0,0.0,270.0,5.0,0.0
325,46.0,0.0,510.0,6.0,0.0
326,58.0,0.0,270.0,1.0,0.0
327,70.0,0.0,510.0,4.0,0.0
328,58.0,0.0,510.0,4.0,0.0
329,60.0,0.0,270.0,1.0,0.0
330,65.0,0.0,270.0,5.0,0.0
331,56.0,0.0,270.0,3.0,0.0
332,65.0,0.0,270.0,6.0,0.0
333,60.0,0.0,270.0,6.0,0.0
334,44.0,0.0,270.0,7.0,0.0
335,62.0,256.0,510.0,1.0,0.0
336,67.0,0.0,270.0,6.0,0.0
337,62.0,0.0,510.0,6.0,0.0
338,58.0,0.0,510.0,3.0,0.0
339,46.0,0.0,510.0,7.0,0.0
340,55.0,0.0,510.0,4.0,0.0
341,58.0,0.0,1020.0,2.0,0.0
342,67.0,0.0,270.0,5.0,0.0
343,68.0,0.0,270.0,5.0,0.0
344,68.0,0.0,270.0,6.0,0.0
345,34.0,0.0,510.0,7.0,0.0
346,46.0,0.0,510.0,7.0,0.0
347,68.0,0.0,510.0,0.0,0.0
348,58.0,0.0,15.0,6.0,0.0
349,74.0,0.0,510.0,4.0,0.0
350,46.0,0.0,510.0,3.0,0.0
351,65.0,256.0,510.0,4.0,0.0
352,65.0,0.0,510.0,6.0,0.0
353,67.0,256.0,270.0,6.0,0.0
354,67.0,0.0,270.0,5.0,0.0
355,65.0,0.0,510.0,1.0,0.0
356,68.0,0.0,270.0,5.0,0.0
357,68.0,0.0,270.0,6.0,0.0
358,63.0,0.0,510.0,6.0,0.0
359,39.0,0.0,510.0,7.0,0.0
360,58.0,0.0,15.0,6.0,0.0
361,67.0,0.0,1020.0,0.0,0.0
362,75.0,256.0,510.0,4.0,0.0
363,51.0,0.0,1020.0,3.0,0.0
364,63.0,256.0,1020.0,1.0,0.0
365,58.0,0.0,1020.0,2.0,0.0
366,67.0,0.0,510.0,4.0,0.0
367,70.0,0.0,270.0,6.0,0.0
368,70.0,0.0,270.0,5.0,0.0
369,75.0,0.0,270.0,6.0,0.0
370,75.0,0.0,270.0,5.0,0.0
371,51.0,0.0,510.0,7.0,0.0
372,74.0,256.0,270.0,6.0,0.0
373,55.0,0.0,270.0,6.0,0.0
374,74.0,0.0,270.0,5.0,0.0
375,67.0,0.0,510.0,6.0,0.0
376,72.0,0.0,270.0,5.0,0.0
377,72.0,0.0,270.0,6.0,0.0
378,56.0,0.0,270.0,6.0,0.0
379,70.0,0.0,270.0,5.0,0.0
380,70.0,256.0,270.0,6.0,0.0
381,65.0,0.0,510.0,6.0,0.0
382,50.0,256.0,510.0,7.0,0.0
383,68.0,0.0,270.0,5.0,0.0
384,68.0,0.0,270.0,6.0,0.0
385,58.0,0.0,15.0,6.0,0.0
386,62.0,0.0,1020.0,6.0,0.0
387,67.0,256.0,270.0,6.0,0.0
388,67.0,0.0,270.0,5.0,0.0
389,74.0,0.0,510.0,4.0,0.0
390,65.0,0.0,510.0,4.0,0.0
391,46.0,0.0,510.0,7.0,0.0
392,68.0,0.0,270.0,5.0,0.0
393,68.0,0.0,270.0,6.0,0.0
394,67.0,256.0,270.0,6.0,0.0
395,51.0,0.0,510.0,7.0,0.0
396,39.0,256.0,510.0,7.0,0.0
397,67.0,0.0,510.0,4.0,0.0
398,75.0,0.0,510.0,4.0,0.0
399,67.0,0.0,270.0,5.0,0.0
400,72.0,0.0,270.0,6.0,0.0
401,72.0,0.0,270.0,5.0,0.0
402,70.0,0.0,270.0,5.0,0.0
403,53.0,0.0,510.0,7.0,0.0
404,53.0,0.0,510.0,6.0,0.0
405,60.0,0.0,1020.0,6.0,0.0
406,70.0,0.0,270.0,6.0,0.0
407,68.0,0.0,270.0,6.0,0.0
408,68.0,0.0,270.0,5.0,0.0
409,55.0,0.0,510.0,7.0,0.0
410,50.0,0.0,510.0,6.0,0.0
411,67.0,0.0,270.0,5.0,0.0
412,67.0,256.0,270.0,6.0,0.0
413,65.0,0.0,270.0,6.0,0.0
414,65.0,0.0,270.0,5.0,0.0
415,63.0,0.0,270.0,6.0,0.0
416,43.0,0.0,510.0,7.0,0.0
417,74.0,0.0,510.0,4.0,0.0
418,67.0,256.0,510.0,4.0,0.0
419,59.0,0.0,510.0,6.0,0.0
420,55.0,0.0,1020.0,6.0,0.0
421,63.0,0.0,270.0,5.0,0.0
422,65.0,0.0,270.0,6.0,0.0
423,65.0,0.0,270.0,5.0,0.0
424,63.0,0.0,270.0,5.0,0.0
425,48.0,0.0,510.0,7.0,0.0
426,63.0,256.0,270.0,6.0,0.0
427,60.0,0.0,510.0,6.0,0.0
428,72.0,0.0,510.0,4.0,0.0
429,63.0,0.0,510.0,4.0,0.0
430,68.0,0.0,270.0,5.0,0.0
431,68.0,0.0,270.0,6.0,0.0
432,49.0,0.0,510.0,7.0,0.0
433,68.0,0.0,1020.0,6.0,0.0
434,67.0,256.0,270.0,6.0,0.0
435,58.0,0.0,510.0,6.0,0.0
436,67.0,0.0,270.0,5.0,0.0
437,65.0,0.0,270.0,5.0,0.0
438,65.0,256.0,270.0,6.0,0.0
439,63.0,256.0,270.0,6.0,0.0
440,63.0,0.0,270.0,5.0,0.0
441,51.0,0.0,510.0,7.0,0.0
442,61.0,0.0,270.0,5.0,0.0
443,61.0,0.0,270.0,6.0,0.0
444,60.0,256.0,15.0,6.0,0.0
445,60.0,0.0,270.0,5.0,0.0
446,39.0,0.0,510.0,7.0,0.0
447,67.0,0.0,1020.0,6.0,0.0
448,70.0,0.0,510.0,4.0,0.0
449,67.0,0.0,510.0,4.0,0.0
450,61.0,0.0,270.0,6.0,0.0
451,61.0,0.0,270.0,5.0,0.0
452,72.0,0.0,510.0,4.0,0.0
453,60.0,0.0,270.0,6.0,0.0
454,68.0,0.0,510.0,4.0,0.0
455,60.0,0.0,270.0,5.0,0.0
456,44.0,256.0,510.0,7.0,0.0
457,63.0,0.0,270.0,6.0,0.0
458,63.0,0.0,270.0,5.0,0.0
459,62.0,0.0,270.0,6.0,0.0
460,62.0,0.0,270.0,5.0,0.0
461,70.0,0.0,510.0,4.0,0.0
462,58.0,256.0,1020.0,6.0,0.0
463,46.0,0.0,510.0,7.0,0.0
464,65.0,0.0,270.0,6.0,0.0
465,65.0,0.0,270.0,5.0,0.0
466,63.0,0.0,510.0,4.0,0.0
467,63.0,256.0,270.0,6.0,0.0
468,51.0,0.0,1020.0,2.0,0.0
469,72.0,0.0,1020.0,0.0,0.0
470,63.0,0.0,270.0,5.0,0.0
471,48.0,0.0,510.0,3.0,0.0
472,48.0,0.0,510.0,7.0,0.0
473,63.0,0.0,510.0,1.0,0.0
474,75.0,0.0,270.0,5.0,0.0
475,75.0,0.0,270.0,6.0,0.0
476,50.0,0.0,510.0,7.0,0.0
477,72.0,0.0,510.0,4.0,0.0
478,65.0,0.0,510.0,4.0,0.0
479,65.0,0.0,510.0,1.0,0.0
480,74.0,0.0,270.0,5.0,0.0
481,50.0,256.0,510.0,3.0,0.0
482,74.0,0.0,270.0,6.0,0.0
483,56.0,0.0,510.0,6.0,0.0
484,65.0,0.0,510.0,6.0,0.0
485,72.0,0.0,270.0,6.0,0.0
486,72.0,0.0,270.0,5.0,0.0
487,70.0,256.0,270.0,4.0,0.0
488,67.0,256.0,510.0,4.0,0.0
489,70.0,0.0,1530.0,0.0,0.0
490,55.0,0.0,510.0,6.0,0.0
491,67.0,0.0,510.0,6.0,0.0
492,70.0,0.0,270.0,6.0,0.0
493,51.0,0.0,510.0,2.0,0.0
494,51.0,0.0,510.0,7.0,0.0
495,70.0,0.0,270.0,5.0,0.0
496,51.0,0.0,1020.0,3.0,0.0
497,67.0,0.0,510.0,1.0,0.0
498,68.0,0.0,270.0,5.0,0.0
499,68.0,0.0,270.0,4.0,0.0
500,68.0,0.0,270.0,6.0,0.0
501,63.0,0.0,1020.0,1.0,0.0
502,58.0,0.0,510.0,6.0,0.0
503,63.0,0.0,1020.0,6.0,0.0
504,67.0,0.0,270.0,6.0,0.0
505,43.0,0.0,510.0,7.0,0.0
506,67.0,0.0,270.0,5.0,0.0
507,55.0,0.0,510.0,2.0,0.0
508,70.0,0.0,510.0,4.0,0.0
509,63.0,0.0,510.0,4.0,0.0
510,68.0,0.0,120.0,6.0,0.0
511,68.0,0.0,120.0,5.0,0.0
512,70.0,0.0,120.0,6.0,0.0
513,70.0,0.0,120.0,5.0,0.0
514,65.0,0.0,780.0,6.0,0.0
515,44.0,0.0,510.0,3.0,0.0
516,60.0,0.0,510.0,2.0,0.0
517,44.0,0.0,510.0,7.0,0.0
518,60.0,0.0,510.0,6.0,0.0
519,65.0,0.0,780.0,5.0,0.0
520,68.0,256.0,270.0,4.0,0.0
521,67.0,256.0,270.0,4.0,0.0
522,68.0,0.0,510.0,0.0,0.0
523,62.0,0.0,510.0,1.0,0.0
524,46.0,0.0,510.0,3.0,0.0
525,46.0,0.0,510.0,7.0,0.0
526,68.0,0.0,510.0,4.0,0.0
527,62.0,0.0,510.0,6.0,0.0
528,53.0,0.0,510.0,2.0,0.0
529,63.0,0.0,270.0,6.0,0.0
530,63.0,0.0,270.0,5.0,0.0
531,51.0,0.0,510.0,2.0,0.0
532,67.0,256.0,270.0,4.0,0.0
533,63.0,0.0,15.0,5.0,0.0
534,48.0,512.0,510.0,7.0,0.0
535,48.0,0.0,1530.0,3.0,0.0
536,55.0,256.0,1020.0,6.0,0.0
537,63.0,0.0,1020.0,6.0,0.0
538,65.0,0.0,270.0,4.0,0.0
539,53.0,0.0,510.0,2.0,0.0
540,58.0,0.0,510.0,4.0,0.0
541,50.0,0.0,510.0,7.0,0.0
542,67.0,0.0,510.0,4.0,0.0
543,63.0,0.0,15.0,1.0,0.0
544,63.0,256.0,270.0,4.0,0.0
545,55.0,0.0,510.0,2.0,0.0
546,67.0,0.0,15.0,0.0,0.0
547,51.0,0.0,510.0,7.0,0.0
548,39.0,0.0,510.0,7.0,0.0
549,62.0,256.0,270.0,4.0,0.0
550,56.0,256.0,270.0,2.0,0.0
551,67.0,0.0,510.0,4.0,0.0
552,48.0,0.0,510.0,7.0,0.0
553,63.0,0.0,510.0,4.0,0.0
554,46.0,256.0,510.0,3.0,0.0
555,58.0,0.0,270.0,2.0,0.0
556,63.0,0.0,15.0,1.0,0.0
557,65.0,256.0,270.0,4.0,0.0
558,60.0,256.0,1020.0,2.0,0.0
559,65.0,0.0,2040.0,0.0,0.0
560,44.0,0.0,510.0,7.0,0.0
561,45.0,0.0,1020.0,3.0,0.0
562,67.0,256.0,270.0,4.0,0.0
563,65.0,256.0,270.0,4.0,0.0
564,41.0,0.0,510.0,7.0,0.0
565,72.0,0.0,510.0,4.0,0.0
566,67.0,0.0,270.0,4.0,0.0
567,58.0,0.0,510.0,2.0,0.0
568,68.0,0.0,270.0,4.0,0.0
569,65.0,256.0,270.0,4.0,0.0
570,46.0,0.0,1020.0,3.0,0.0
571,62.0,512.0,1020.0,1.0,0.0
572,46.0,0.0,15.0,7.0,0.0
573,70.0,0.0,270.0,4.0,0.0
574,67.0,0.0,270.0,4.0,0.0
575,56.0,0.0,510.0,2.0,0.0
576,68.0,0.0,270.0,4.0,0.0
577,65.0,0.0,270.0,4.0,0.0
578,34.0,0.0,510.0,7.0,0.0
579,46.0,256.0,15.0,7.0,0.0
580,70.0,0.0,270.0,4.0,0.0
581,46.0,0.0,270.0,7.0,0.0
582,67.0,0.0,270.0,4.0,0.0
583,70.0,0.0,1020.0,6.0,0.0
584,67.0,0.0,1020.0,6.0,0.0
585,39.0,0.0,1020.0,7.0,0.0
586,75.0,0.0,1020.0,6.0,0.0
587,63.0,0.0,1020.0,1.0,0.0
588,75.0,0.0,1020.0,5.0,0.0
589,55.0,0.0,1020.0,2.0,0.0
590,39.0,512.0,1020.0,3.0,0.0
591,67.0,512.0,510.0,4.0,0.0
592,63.0,0.0,1020.0,0.0,0.0
593,58.0,0.0,510.0,4.0,0.0
594,63.0,0.0,15.0,4.0,0.0
595,65.0,256.0,510.0,4.0,0.0
596,67.0,0.0,1020.0,6.0,0.0
597,63.0,256.0,1020.0,6.0,0.0
598,70.0,0.0,1020.0,5.0,0.0
599,70.0,0.0,1020.0,6.0,0.0
600,39.0,0.0,1020.0,7.0,0.0
601,67.0,256.0,270.0,4.0,0.0
602,65.0,256.0,270.0,4.0,0.0
603,58.0,0.0,510.0,4.0,0.0
604,63.0,256.0,270.0,4.0,0.0
605,65.0,0.0,270.0,4.0,0.0
606,67.0,256.0,270.0,4.0,0.0
607,63.0,0.0,510.0,4.0,0.0
608,70.0,256.0,270.0,4.0,0.0
609,65.0,0.0,510.0,4.0,0.0
610,68.0,256.0,270.0,4.0,0.0
611,72.0,256.0,270.0,4.0,0.0
612,70.0,256.0,270.0,4.0,0.0
613,67.0,0.0,510.0,5.0,0.0
614,67.0,0.0,270.0,4.0,0.0
615,67.0,256.0,510.0,6.0,0.0
616,39.0,0.0,1020.0,7.0,0.0
617,65.0,0.0,270.0,4.0,0.0
618,68.0,0.0,270.0,4.0,0.0
619,58.0,0.0,510.0,6.0,0.0
620,67.0,0.0,270.0,4.0,0.0
621,58.0,0.0,510.0,5.0,0.0
622,63.0,256.0,270.0,4.0,0.0
623,65.0,0.0,270.0,4.0,0.0
624,68.0,0.0,270.0,4.0,0.0
625,39.0,0.0,1020.0,7.0,0.0
626,67.0,256.0,270.0,4.0,0.0
627,63.0,0.0,15.0,6.0,0.0
628,63.0,0.0,510.0,5.0,0.0
629,70.0,0.0,270.0,4.0,0.0
630,65.0,0.0,510.0,6.0,0.0
631,74.0,0.0,510.0,4.0,0.0
632,65.0,0.0,510.0,5.0,0.0
633,68.0,256.0,270.0,4.0,0.0
634,72.0,0.0,270.0,4.0,0.0
635,75.0,0.0,510.0,4.0,0.0
636,67.0,0.0,270.0,5.0,0.0
637,67.0,0.0,270.0,6.0,0.0
638,70.0,0.0,270.0,4.0,0.0
639,65.0,256.0,270.0,6.0,0.0
640,68.0,0.0,270.0,4.0,0.0
641,65.0,0.0,270.0,5.0,0.0
642,62.0,0.0,510.0,6.0,0.0
643,70.0,0.0,270.0,4.0,0.0
644,67.0,0.0,270.0,4.0,0.0
645,63.0,256.0,270.0,6.0,0.0
646,63.0,0.0,270.0,5.0,0.0
647,46.0,0.0,510.0,7.0,0.0
648,68.0,0.0,270.0,4.0,0.0
649,65.0,0.0,270.0,4.0,0.0
650,65.0,0.0,270.0,5.0,0.0
651,65.0,0.0,270.0,6.0,0.0
652,67.0,256.0,270.0,4.0,0.0
653,39.0,0.0,510.0,7.0,0.0
654,58.0,0.0,15.0,6.0,0.0
655,63.0,0.0,510.0,6.0,0.0
656,67.0,0.0,270.0,6.0,0.0
657,67.0,0.0,270.0,5.0,0.0
658,51.0,0.0,510.0,7.0,0.0
659,63.0,0.0,510.0,4.0,0.0
660,68.0,0.0,270.0,4.0,0.0
661,68.0,0.0,270.0,5.0,0.0
662,68.0,0.0,270.0,6.0,0.0
663,46.0,0.0,510.0,7.0,0.0
664,53.0,0.0,510.0,7.0,0.0
665,67.0,256.0,270.0,4.0,0.0
666,67.0,0.0,270.0,6.0,0.0
667,62.0,0.0,510.0,6.0,0.0
668,56.0,0.0,510.0,6.0,0.0
669,67.0,0.0,270.0,5.0,0.0
670,58.0,0.0,510.0,4.0,0.0
671,68.0,256.0,270.0,6.0,0.0
672,68.0,0.0,270.0,4.0,0.0
673,68.0,0.0,270.0,5.0,0.0
674,63.0,0.0,510.0,4.0,0.0
675,70.0,256.0,510.0,4.0,0.0
676,70.0,0.0,270.0,5.0,0.0
677,39.0,0.0,510.0,7.0,0.0
678,55.0,0.0,510.0,7.0,0.0
679,55.0,0.0,510.0,6.0,0.0
680,63.0,0.0,1530.0,6.0,0.0
681,70.0,0.0,270.0,6.0,0.0
682,75.0,0.0,270.0,6.0,0.0
683,75.0,0.0,270.0,5.0,0.0
684,74.0,0.0,270.0,6.0,0.0
685,74.0,0.0,270.0,5.0,0.0
686,56.0,0.0,510.0,7.0,0.0
687,72.0,256.0,270.0,6.0,0.0
688,72.0,0.0,270.0,5.0,0.0
689,70.0,0.0,270.0,5.0,0.0
690,58.0,0.0,510.0,7.0,0.0
691,53.0,0.0,15.0,6.0,0.0
692,70.0,256.0,270.0,6.0,0.0
693,68.0,256.0,270.0,6.0,0.0
694,68.0,0.0,270.0,5.0,0.0
695,67.0,0.0,270.0,5.0,0.0
696,65.0,0.0,510.0,4.0,0.0
697,58.0,0.0,1020.0,6.0,0.0
698,62.0,0.0,1020.0,6.0,0.0
699,74.0,0.0,510.0,4.0,0.0
700,46.0,0.0,510.0,7.0,0.0
701,67.0,0.0,270.0,6.0,0.0
702,68.0,0.0,270.0,6.0,0.0
703,68.0,0.0,270.0,5.0,0.0
704,39.0,0.0,510.0,7.0,0.0
705,51.0,0.0,510.0,7.0,0.0
706,75.0,256.0,510.0,4.0,0.0
707,67.0,0.0,510.0,4.0,0.0
708,67.0,0.0,270.0,6.0,0.0
709,67.0,0.0,270.0,5.0,0.0
710,72.0,0.0,270.0,6.0,0.0
711,72.0,0.0,270.0,5.0,0.0
712,70.0,0.0,270.0,5.0,0.0
713,53.0,0.0,510.0,6.0,0.0
714,60.0,0.0,1020.0,6.0,0.0
715,70.0,0.0,270.0,6.0,0.0
716,53.0,0.0,510.0,7.0,0.0
717,68.0,256.0,270.0,6.0,0.0
718,68.0,0.0,270.0,5.0,0.0
719,67.0,0.0,270.0,5.0,0.0
720,50.0,0.0,510.0,6.0,0.0
721,67.0,256.0,270.0,6.0,0.0
722,55.0,0.0,510.0,7.0,0.0
723,65.0,0.0,270.0,6.0,0.0
724,65.0,0.0,270.0,5.0,0.0
725,43.0,0.0,510.0,7.0,0.0
726,67.0,256.0,510.0,4.0,0.0
727,74.0,0.0,510.0,4.0,0.0
728,63.0,256.0,270.0,6.0,0.0
729,55.0,0.0,1020.0,6.0,0.0
730,59.0,0.0,510.0,6.0,0.0
731,63.0,0.0,270.0,5.0,0.0
732,65.0,0.0,270.0,6.0,0.0
733,65.0,0.0,270.0,5.0,0.0
734,63.0,0.0,270.0,6.0,0.0
735,63.0,0.0,510.0,4.0,0.0
736,48.0,0.0,510.0,7.0,0.0
737,72.0,256.0,510.0,4.0,0.0
738,63.0,0.0,270.0,5.0,0.0
739,60.0,0.0,510.0,6.0,0.0
740,68.0,0.0,270.0,5.0,0.0
741,58.0,0.0,510.0,6.0,0.0
742,67.0,0.0,270.0,6.0,0.0
743,68.0,0.0,15.0,6.0,0.0
744,49.0,0.0,510.0,7.0,0.0
745,67.0,0.0,270.0,5.0,0.0
746,65.0,0.0,270.0,6.0,0.0
747,65.0,0.0,270.0,5.0,0.0
748,60.0,0.0,510.0,6.0,0.0
749,63.0,0.0,270.0,6.0,0.0
750,51.0,0.0,510.0,7.0,0.0
751,63.0,0.0,270.0,5.0,0.0
752,61.0,0.0,270.0,5.0,0.0
753,61.0,256.0,270.0,6.0,0.0
754,67.0,0.0,1020.0,6.0,0.0
755,63.0,0.0,510.0,4.0,0.0
756,60.0,0.0,270.0,5.0,0.0
757,39.0,256.0,510.0,7.0,0.0
758,70.0,0.0,510.0,4.0,0.0
759,60.0,256.0,270.0,6.0,0.0
760,61.0,0.0,270.0,5.0,0.0
761,61.0,0.0,270.0,6.0,0.0
762,44.0,0.0,510.0,7.0,0.0
763,60.0,0.0,270.0,5.0,0.0
764,63.0,0.0,510.0,4.0,0.0
765,72.0,0.0,510.0,4.0,0.0
766,60.0,256.0,270.0,6.0,0.0
767,63.0,0.0,270.0,5.0,0.0
768,63.0,0.0,270.0,6.0,0.0
769,62.0,0.0,270.0,5.0,0.0
770,56.0,0.0,510.0,7.0,0.0
771,62.0,0.0,270.0,6.0,0.0
772,65.0,0.0,510.0,4.0,0.0
773,70.0,0.0,510.0,4.0,0.0
774,65.0,0.0,270.0,6.0,0.0
775,65.0,0.0,270.0,5.0,0.0
776,70.0,0.0,1290.0,4.0,0.0
777,67.0,0.0,510.0,4.0,0.0
778,58.0,0.0,15.0,6.0,0.0
779,55.0,0.0,510.0,7.0,0.0
780,63.0,256.0,270.0,6.0,0.0
781,70.0,256.0,510.0,6.0,0.0
782,63.0,0.0,270.0,5.0,0.0
783,75.0,0.0,270.0,5.0,0.0
784,75.0,0.0,270.0,6.0,0.0
785,53.0,256.0,510.0,7.0,0.0
786,68.0,0.0,510.0,4.0,0.0
787,74.0,0.0,270.0,5.0,0.0
788,74.0,256.0,270.0,6.0,0.0
789,62.0,0.0,510.0,6.0,0.0
790,68.0,0.0,510.0,6.0,0.0
791,72.0,0.0,270.0,5.0,0.0
792,72.0,0.0,270.0,6.0,0.0
793,70.0,0.0,270.0,5.0,0.0
794,55.0,0.0,510.0,7.0,0.0
795,67.0,0.0,270.0,4.0,0.0
796,67.0,0.0,510.0,6.0,0.0
797,70.0,0.0,270.0,6.0,0.0
798,68.0,0.0,270.0,4.0,0.0
799,65.0,0.0,270.0,4.0,0.0
800,68.0,0.0,270.0,5.0,0.0
801,68.0,256.0,270.0,6.0,0.0
802,63.0,0.0,15.0,6.0,0.0
803,51.0,256.0,510.0,6.0,0.0
804,56.0,0.0,510.0,7.0,0.0
805,67.0,0.0,270.0,6.0,0.0
806,39.0,0.0,510.0,7.0,0.0
807,67.0,128.0,270.0,4.0,0.0
808,63.0,0.0,510.0,4.0,0.0
809,67.0,0.0,270.0,5.0,0.0
810,68.0,0.0,120.0,6.0,0.0
811,68.0,0.0,120.0,5.0,0.0
812,68.0,0.0,270.0,4.0,0.0
813,70.0,0.0,120.0,6.0,0.0
814,70.0,0.0,120.0,5.0,0.0
815,65.0,0.0,780.0,4.0,0.0
816,65.0,0.0,780.0,6.0,0.0
817,63.0,0.0,510.0,6.0,0.0
818,58.0,0.0,510.0,6.0,0.0
819,58.0,0.0,510.0,7.0,0.0
820,46.0,0.0,270.0,7.0,0.0
821,58.0,256.0,270.0,4.0,0.0
822,65.0,0.0,780.0,5.0,0.0
823,55.0,256.0,270.0,4.0,0.0
824,46.0,0.0,15.0,7.0,0.0
825,58.0,512.0,510.0,4.0,0.0
826,53.0,0.0,510.0,6.0,0.0
827,62.0,0.0,510.0,6.0,0.0
828,46.0,0.0,270.0,7.0,0.0
829,63.0,0.0,15.0,5.0,0.0
830,63.0,0.0,15.0,4.0,0.0
831,58.0,0.0,1020.0,6.0,0.0
832,63.0,0.0,15.0,6.0,0.0
833,39.0,512.0,510.0,7.0,0.0
834,55.0,0.0,1020.0,6.0,0.0
835,55.0,0.0,1530.0,4.0,0.0
836,63.0,0.0,1530.0,5.0,0.0
837,46.0,0.0,510.0,7.0,0.0
838,51.0,0.0,510.0,2.0,0.0
839,51.0,0.0,510.0,7.0,0.0
840,55.0,0.0,1020.0,1.0,0.0
841,58.0,0.0,1020.0,0.0,0.0
842,51.0,0.0,510.0,3.0,0.0
843,53.0,0.0,510.0,2.0,0.0
844,50.0,256.0,510.0,3.0,0.0
845,58.0,0.0,510.0,4.0,0.0
846,50.0,0.0,510.0,7.0,0.0
847,48.0,512.0,510.0,3.0,0.0
848,60.0,0.0,1530.0,1.0,0.0
849,48.0,0.0,510.0,7.0,0.0
850,63.0,0.0,1020.0,0.0,0.0
851,63.0,256.0,270.0,4.0,0.0
852,55.0,0.0,1020.0,2.0,0.0
853,65.0,0.0,270.0,4.0,0.0
854,46.0,0.0,510.0,3.0,0.0
855,63.0,0.0,510.0,4.0,0.0
856,58.0,0.0,510.0,4.0,0.0
857,46.0,512.0,510.0,7.0,0.0
858,65.0,0.0,1020.0,0.0,0.0
859,53.0,256.0,1020.0,2.0,0.0
860,44.0,0.0,510.0,7.0,0.0
861,44.0,0.0,510.0,3.0,0.0
862,63.0,512.0,510.0,4.0,0.0
863,46.0,0.0,510.0,7.0,0.0
864,58.0,0.0,510.0,4.0,0.0
865,65.0,0.0,510.0,4.0,0.0
866,46.0,0.0,510.0,3.0,0.0
867,62.0,0.0,510.0,1.0,0.0
868,63.0,0.0,1020.0,1.0,0.0
869,67.0,256.0,270.0,4.0,0.0
870,51.0,0.0,1020.0,3.0,0.0
871,67.0,0.0,1020.0,0.0,0.0
872,39.0,512.0,510.0,7.0,0.0
873,68.0,0.0,270.0,4.0,0.0
874,58.0,0.0,510.0,5.0,0.0
875,58.0,0.0,510.0,6.0,0.0
876,51.0,0.0,510.0,6.0,0.0
877,51.0,0.0,510.0,7.0,0.0
878,58.0,0.0,510.0,4.0,0.0
879,67.0,0.0,510.0,4.0,0.0
880,63.0,0.0,15.0,6.0,0.0
881,51.0,0.0,15.0,2.0,0.0
882,56.0,0.0,1020.0,1.0,0.0
883,72.0,0.0,1020.0,0.0,0.0
884,48.0,0.0,510.0,7.0,0.0
885,51.0,0.0,510.0,6.0,0.0
886,63.0,256.0,270.0,4.0,0.0
887,63.0,0.0,510.0,5.0,0.0
888,65.0,0.0,270.0,4.0,0.0
889,56.0,0.0,510.0,3.0,0.0
890,72.0,0.0,510.0,4.0,0.0
891,44.0,0.0,510.0,7.0,0.0
892,65.0,0.0,510.0,5.0,0.0
893,65.0,0.0,510.0,6.0,0.0
894,56.0,0.0,510.0,6.0,0.0
895,48.0,0.0,510.0,6.0,0.0
896,63.0,256.0,510.0,4.0,0.0
897,58.0,0.0,270.0,1.0,0.0
898,51.0,0.0,510.0,7.0,0.0
899,67.0,0.0,270.0,5.0,0.0
900,70.0,0.0,1530.0,0.0,0.0
901,51.0,0.0,510.0,2.0,0.0
902,51.0,0.0,510.0,6.0,0.0
903,55.0,0.0,270.0,3.0,0.0
904,67.0,0.0,270.0,6.0,0.0
905,60.0,0.0,270.0,4.0,0.0
906,58.0,0.0,270.0,6.0,0.0
907,65.0,0.0,270.0,6.0,0.0
908,56.0,0.0,270.0,3.0,0.0
909,65.0,0.0,270.0,5.0,0.0
910,60.0,0.0,270.0,6.0,0.0
911,63.0,0.0,270.0,4.0,0.0
912,60.0,0.0,270.0,1.0,0.0
913,58.0,0.0,270.0,1.0,0.0
914,62.0,0.0,270.0,4.0,0.0
915,55.0,0.0,270.0,3.0,0.0
916,46.0,0.0,510.0,2.0,0.0
917,46.0,0.0,510.0,6.0,0.0
918,39.0,0.0,510.0,7.0,0.0
919,43.0,0.0,270.0,7.0,0.0
920,58.0,256.0,270.0,6.0,0.0
921,63.0,0.0,270.0,6.0,0.0
922,63.0,0.0,270.0,5.0,0.0
923,56.0,0.0,270.0,3.0,0.0
924,60.0,256.0,270.0,1.0,0.0
925,60.0,0.0,270.0,6.0,0.0
926,65.0,0.0,270.0,6.0,0.0
927,44.0,0.0,270.0,7.0,0.0
928,65.0,0.0,270.0,4.0,0.0
929,65.0,0.0,270.0,5.0,0.0
930,67.0,256.0,270.0,6.0,0.0
931,62.0,0.0,510.0,6.0,0.0
932,58.0,0.0,510.0,6.0,0.0
933,46.0,0.0,510.0,7.0,0.0
934,58.0,0.0,510.0,3.0,0.0
935,67.0,0.0,270.0,5.0,0.0
936,62.0,0.0,510.0,1.0,0.0
937,63.0,0.0,270.0,4.0,0.0
938,68.0,0.0,270.0,6.0,0.0
939,75.0,0.0,270.0,4.0,0.0
940,68.0,0.0,270.0,5.0,0.0
941,65.0,0.0,510.0,1.0,0.0
942,46.0,0.0,510.0,3.0,0.0
943,68.0,0.0,510.0,0.0,0.0
944,58.0,0.0,510.0,6.0,0.0
945,65.0,0.0,510.0,6.0,0.0
946,67.0,0.0,270.0,6.0,0.0
947,67.0,0.0,270.0,5.0,0.0
948,74.0,256.0,270.0,4.0,0.0
949,34.0,0.0,510.0,7.0,0.0
950,46.0,0.0,510.0,7.0,0.0
951,68.0,0.0,270.0,5.0,0.0
952,68.0,0.0,270.0,6.0,0.0
953,72.0,256.0,270.0,4.0,0.0
954,63.0,0.0,510.0,6.0,0.0
955,70.0,256.0,270.0,6.0,0.0
956,39.0,0.0,510.0,7.0,0.0
957,67.0,0.0,1020.0,0.0,0.0
958,70.0,0.0,270.0,5.0,0.0
959,58.0,0.0,510.0,6.0,0.0
960,51.0,0.0,1020.0,3.0,0.0
961,63.0,0.0,1020.0,1.0,0.0
962,58.0,0.0,15.0,2.0,0.0
963,70.0,0.0,270.0,4.0,0.0
964,75.0,0.0,270.0,5.0,0.0
965,75.0,0.0,270.0,6.0,0.0
966,68.0,0.0,270.0,4.0,0.0
967,67.0,128.0,270.0,4.0,0.0
968,74.0,0.0,270.0,5.0,0.0
969,51.0,0.0,510.0,7.0,0.0
970,74.0,0.0,270.0,6.0,0.0
971,67.0,0.0,510.0,6.0,0.0
972,55.0,0.0,270.0,6.0,0.0
973,72.0,0.0,270.0,5.0,0.0
974,72.0,0.0,270.0,6.0,0.0
975,56.0,0.0,270.0,6.0,0.0
976,68.0,128.0,120.0,4.0,0.0
977,70.0,256.0,120.0,4.0,0.0
978,50.0,0.0,510.0,7.0,0.0
979,70.0,0.0,270.0,6.0,0.0
980,65.0,0.0,510.0,6.0,0.0
981,70.0,0.0,270.0,5.0,0.0
982,65.0,256.0,780.0,4.0,0.0
983,68.0,0.0,270.0,6.0,0.0
984,68.0,0.0,270.0,5.0,0.0
985,58.0,0.0,15.0,6.0,0.0
986,67.0,0.0,270.0,6.0,0.0
987,62.0,0.0,1020.0,6.0,0.0
988,67.0,0.0,270.0,5.0,0.0
989,46.0,0.0,510.0,7.0,0.0
990,68.0,0.0,270.0,6.0,0.0
991,68.0,0.0,270.0,5.0,0.0
992,63.0,0.0,270.0,4.0,0.0
993,39.0,0.0,510.0,7.0,0.0
994,51.0,0.0,510.0,7.0,0.0
995,67.0,256.0,270.0,6.0,0.0
996,75.0,0.0,510.0,4.0,0.0
997,67.0,0.0,510.0,4.0,0.0
998,67.0,0.0,270.0,5.0,0.0
999,72.0,0.0,270.0,5.0,0.0
1000,72.0,0.0,270.0,6.0,0.0
1001,70.0,0.0,270.0,5.0,0.0
1002,53.0,0.0,510.0,6.0,0.0
1003,53.0,0.0,510.0,7.0,0.0
1004,70.0,256.0,270.0,6.0,0.0
1005,60.0,0.0,1020.0,6.0,0.0
1006,68.0,0.0,270.0,5.0,0.0
1007,68.0,0.0,270.0,6.0,0.0
1008,67.0,256.0,270.0,6.0,0.0
1009,50.0,0.0,510.0,6.0,0.0
1010,55.0,0.0,510.0,7.0,0.0
1011,67.0,0.0,270.0,5.0,0.0
1012,65.0,0.0,270.0,6.0,0.0
1013,65.0,0.0,270.0,5.0,0.0
1014,63.0,0.0,270.0,6.0,0.0
1015,59.0,0.0,510.0,6.0,0.0
1016,67.0,0.0,510.0,4.0,0.0
1017,74.0,0.0,510.0,4.0,0.0
1018,63.0,0.0,270.0,5.0,0.0
1019,43.0,0.0,510.0,7.0,0.0
1020,55.0,0.0,1020.0,6.0,0.0
1021,65.0,256.0,270.0,6.0,0.0
1022,65.0,0.0,270.0,5.0,0.0
1023,72.0,256.0,510.0,4.0,0.0
1024,63.0,0.0,510.0,4.0,0.0
1025,63.0,0.0,270.0,5.0,0.0
1026,48.0,0.0,510.0,7.0,0.0
1027,60.0,0.0,510.0,6.0,0.0
1028,63.0,0.0,270.0,6.0,0.0
1029,68.0,0.0,270.0,5.0,0.0
1030,67.0,0.0,270.0,5.0,0.0
1031,49.0,256.0,510.0,7.0,0.0
1032,68.0,0.0,15.0,6.0,0.0
1033,67.0,256.0,270.0,6.0,0.0
1034,58.0,0.0,510.0,6.0,0.0
1035,65.0,0.0,270.0,6.0,0.0
1036,65.0,0.0,270.0,5.0,0.0
1037,63.0,0.0,270.0,6.0,0.0
1038,63.0,0.0,270.0,5.0,0.0
1039,60.0,0.0,510.0,6.0,0.0
1040,51.0,0.0,510.0,7.0,0.0
1041,61.0,0.0,270.0,6.0,0.0
1042,61.0,0.0,270.0,5.0,0.0
1043,67.0,0.0,1020.0,6.0,0.0
1044,60.0,256.0,270.0,6.0,0.0
1045,60.0,0.0,270.0,5.0,0.0
1046,70.0,256.0,510.0,4.0,0.0
1047,67.0,0.0,510.0,4.0,0.0
1048,39.0,0.0,510.0,7.0,0.0
1049,61.0,0.0,270.0,5.0,0.0
1050,61.0,0.0,270.0,6.0,0.0
1051,60.0,0.0,270.0,6.0,0.0
1052,44.0,0.0,510.0,7.0,0.0
1053,68.0,0.0,510.0,4.0,0.0
1054,72.0,0.0,510.0,4.0,0.0
1055,60.0,0.0,270.0,5.0,0.0
1056,63.0,0.0,270.0,6.0,0.0
1057,63.0,0.0,270.0,5.0,0.0
1058,62.0,0.0,270.0,6.0,0.0
1059,58.0,0.0,1020.0,6.0,0.0
1060,46.0,0.0,510.0,7.0,0.0
1061,70.0,0.0,510.0,4.0,0.0
1062,62.0,0.0,270.0,5.0,0.0
1063,65.0,0.0,270.0,6.0,0.0
1064,65.0,0.0,270.0,5.0,0.0
1065,63.0,0.0,510.0,1.0,0.0
1066,63.0,256.0,270.0,6.0,0.0
1067,48.0,0.0,510.0,7.0,0.0
1068,63.0,0.0,510.0,4.0,0.0
1069,63.0,0.0,270.0,5.0,0.0
1070,72.0,0.0,1020.0,0.0,0.0
1071,48.0,0.0,510.0,3.0,0.0
1072,75.0,0.0,270.0,5.0,0.0
1073,75.0,256.0,270.0,6.0,0.0
1074,74.0,0.0,270.0,6.0,0.0
1075,56.0,0.0,510.0,6.0,0.0
1076,50.0,0.0,510.0,7.0,0.0
1077,65.0,0.0,510.0,4.0,0.0
1078,65.0,0.0,510.0,1.0,0.0
1079,74.0,0.0,270.0,5.0,0.0
1080,65.0,0.0,510.0,6.0,0.0
1081,72.0,0.0,510.0,4.0,0.0
1082,50.0,0.0,510.0,3.0,0.0
1083,72.0,0.0,270.0,6.0,0.0
1084,72.0,0.0,270.0,5.0,0.0
1085,51.0,256.0,510.0,7.0,0.0
1086,70.0,0.0,270.0,4.0,0.0
1087,70.0,0.0,1530.0,0.0,0.0
1088,67.0,0.0,510.0,4.0,0.0
1089,70.0,0.0,270.0,5.0,0.0
1090,51.0,0.0,1020.0,3.0,0.0
1091,51.0,256.0,15.0,2.0,0.0
1092,55.0,0.0,510.0,6.0,0.0
1093,67.0,0.0,510.0,6.0,0.0
1094,70.0,0.0,270.0,6.0,0.0
1095,67.0,0.0,510.0,1.0,0.0
1096,68.0,0.0,270.0,5.0,0.0
1097,68.0,0.0,270.0,4.0,0.0
1098,68.0,0.0,270.0,6.0,0.0
1099,63.0,0.0,1020.0,6.0,0.0
1100,67.0,0.0,270.0,6.0,0.0
1101,70.0,0.0,510.0,4.0,0.0
1102,63.0,0.0,510.0,4.0,0.0
1103,67.0,0.0,270.0,5.0,0.0
1104,63.0,0.0,1020.0,1.0,0.0
1105,58.0,0.0,510.0,6.0,0.0
1106,55.0,0.0,510.0,2.0,0.0
1107,43.0,0.0,510.0,7.0,0.0
1108,68.0,0.0,120.0,5.0,0.0
1109,68.0,0.0,120.0,6.0,0.0
1110,70.0,256.0,120.0,6.0,0.0
1111,70.0,0.0,120.0,5.0,0.0
1112,44.0,0.0,510.0,3.0,0.0
1113,60.0,0.0,510.0,2.0,0.0
1114,44.0,0.0,510.0,7.0,0.0
1115,68.0,256.0,270.0,4.0,0.0
1116,60.0,0.0,510.0,6.0,0.0
1117,65.0,0.0,780.0,5.0,0.0
1118,65.0,0.0,780.0,6.0,0.0
1119,67.0,256.0,270.0,4.0,0.0
1120,68.0,0.0,510.0,0.0,0.0
1121,62.0,0.0,510.0,1.0,0.0
1122,46.0,0.0,510.0,3.0,0.0
1123,53.0,256.0,510.0,2.0,0.0
1124,46.0,0.0,510.0,7.0,0.0
1125,62.0,0.0,510.0,6.0,0.0
1126,68.0,0.0,510.0,4.0,0.0
1127,63.0,0.0,15.0,5.0,0.0
1128,48.0,0.0,1530.0,3.0,0.0
1129,63.0,0.0,15.0,5.0,0.0
1130,67.0,256.0,270.0,4.0,0.0
1131,67.0,0.0,1020.0,0.0,0.0
1132,63.0,0.0,15.0,6.0,0.0
1133,55.0,0.0,1020.0,6.0,0.0
1134,63.0,0.0,1020.0,6.0,0.0
1135,63.0,0.0,1020.0,1.0,0.0
1136,51.0,0.0,510.0,2.0,0.0
1137,48.0,512.0,510.0,7.0,0.0
1138,65.0,0.0,270.0,4.0,0.0
1139,50.0,0.0,510.0,7.0,0.0
1140,53.0,0.0,510.0,2.0,0.0
1141,58.0,0.0,510.0,4.0,0.0
1142,67.0,0.0,510.0,4.0,0.0
1143,55.0,256.0,510.0,2.0,0.0
1144,67.0,256.0,1020.0,0.0,0.0
1145,39.0,0.0,510.0,7.0,0.0
1146,63.0,256.0,270.0,4.0,0.0
1147,51.0,0.0,510.0,7.0,0.0
1148,63.0,0.0,1020.0,1.0,0.0
1149,62.0,0.0,270.0,4.0,0.0
1150,46.0,0.0,510.0,3.0,0.0
1151,48.0,0.0,510.0,7.0,0.0
1152,63.0,0.0,510.0,4.0,0.0
1153,67.0,0.0,510.0,4.0,0.0
1154,56.0,256.0,270.0,2.0,0.0
1155,58.0,0.0,270.0,2.0,0.0
1156,44.0,0.0,510.0,7.0,0.0
1157,60.0,256.0,1020.0,2.0,0.0
1158,65.0,256.0,270.0,4.0,0.0
1159,65.0,0.0,2040.0,0.0,0.0
1160,44.0,0.0,1020.0,3.0,0.0
1161,63.0,0.0,1020.0,1.0,0.0
1162,67.0,256.0,270.0,4.0,0.0
1163,41.0,0.0,510.0,7.0,0.0
1164,72.0,0.0,510.0,4.0,0.0
1165,65.0,256.0,270.0,4.0,0.0
1166,67.0,0.0,270.0,4.0,0.0
1167,68.0,0.0,270.0,4.0,0.0
1168,46.0,0.0,1020.0,3.0,0.0
1169,65.0,0.0,270.0,4.0,0.0
1170,62.0,0.0,1020.0,1.0,0.0
1171,58.0,256.0,510.0,2.0,0.0
1172,46.0,256.0,15.0,7.0,0.0
1173,67.0,0.0,270.0,4.0,0.0
1174,70.0,0.0,270.0,4.0,0.0
1175,68.0,256.0,270.0,4.0,0.0
1176,65.0,0.0,270.0,4.0,0.0
1177,34.0,0.0,510.0,7.0,0.0
1178,56.0,0.0,510.0,2.0,0.0
1179,46.0,0.0,270.0,7.0,0.0
1180,70.0,0.0,270.0,4.0,0.0
1181,46.0,0.0,270.0,7.0,0.0
1182,39.0,0.0,1020.0,3.0,0.0
1183,63.0,0.0,1020.0,0.0,0.0
1184,63.0,0.0,1020.0,1.0,0.0
1185,39.0,0.0,1020.0,7.0,0.0
1186,67.0,0.0,1020.0,6.0,0.0
1187,75.0,0.0,1020.0,5.0,0.0
1188,70.0,0.0,1020.0,6.0,0.0
1189,75.0,0.0,1020.0,6.0,0.0
1190,55.0,0.0,1020.0,2.0,0.0
1191,63.0,0.0,270.0,4.0,0.0
1192,67.0,256.0,15.0,4.0,0.0
1193,65.0,0.0,270.0,4.0,0.0
1194,68.0,256.0,270.0,4.0,0.0
1195,67.0,0.0,270.0,4.0,0.0
1196,63.0,256.0,270.0,4.0,0.0
1197,68.0,0.0,270.0,4.0,0.0
1198,65.0,256.0,270.0,4.0,0.0
1199,67.0,0.0,270.0,4.0,0.0
1200,70.0,256.0,270.0,4.0,0.0
1201,68.0,256.0,270.0,4.0,0.0
1202,72.0,0.0,270.0,4.0,0.0
1203,70.0,256.0,270.0,4.0,0.0
1204,67.0,0.0,270.0,4.0,0.0
1205,72.0,256.0,270.0,4.0,0.0
1206,68.0,0.0,270.0,4.0,0.0
1207,74.0,256.0,1020.0,6.0,0.0
1208,65.0,256.0,270.0,4.0,0.0
1209,68.0,0.0,270.0,4.0,0.0
1210,65.0,0.0,1020.0,6.0,0.0
1211,68.0,0.0,1020.0,6.0,0.0
1212,74.0,0.0,1020.0,5.0,0.0
1213,39.0,0.0,1020.0,7.0,0.0
1214,70.0,256.0,270.0,4.0,0.0
1215,67.0,0.0,270.0,4.0,0.0
1216,65.0,256.0,270.0,4.0,0.0
1217,68.0,0.0,270.0,4.0,0.0
1218,70.0,0.0,270.0,4.0,0.0
1219,67.0,0.0,270.0,4.0,0.0
1220,72.0,256.0,270.0,4.0,0.0
1221,68.0,0.0,270.0,4.0,0.0
1222,70.0,0.0,270.0,4.0,0.0
1223,74.0,256.0,270.0,4.0,0.0
1224,68.0,0.0,270.0,4.0,0.0
1225,72.0,256.0,270.0,4.0,0.0
1226,74.0,0.0,270.0,4.0,0.0
1227,39.0,0.0,1020.0,7.0,0.0
1228,75.0,0.0,510.0,6.0,0.0
1229,70.0,0.0,1020.0,6.0,0.0
1230,67.0,0.0,1020.0,6.0,0.0
1231,67.0,256.0,270.0,4.0,0.0
1232,70.0,256.0,15.0,4.0,0.0
1233,75.0,0.0,510.0,5.0,0.0
1234,68.0,0.0,270.0,4.0,0.0
1235,65.0,0.0,270.0,4.0,0.0
1236,63.0,256.0,270.0,4.0,0.0
1237,67.0,0.0,270.0,4.0,0.0
1238,58.0,0.0,510.0,6.0,0.0
1239,58.0,0.0,510.0,5.0,0.0
1240,65.0,0.0,270.0,4.0,0.0
1241,68.0,0.0,270.0,4.0,0.0
1242,63.0,0.0,510.0,6.0,0.0
1243,63.0,0.0,510.0,5.0,0.0
1244,67.0,256.0,270.0,4.0,0.0
1245,70.0,0.0,270.0,4.0,0.0
1246,74.0,0.0,510.0,4.0,0.0
1247,68.0,256.0,270.0,4.0,0.0
1248,65.0,0.0,510.0,6.0,0.0
1249,65.0,0.0,510.0,5.0,0.0
1250,72.0,0.0,270.0,4.0,0.0
1251,67.0,0.0,270.0,5.0,0.0
1252,75.0,0.0,510.0,4.0,0.0
1253,70.0,0.0,270.0,4.0,0.0
1254,67.0,0.0,270.0,6.0,0.0
1255,68.0,256.0,270.0,4.0,0.0
1256,65.0,0.0,270.0,5.0,0.0
1257,65.0,0.0,270.0,6.0,0.0
1258,63.0,0.0,270.0,6.0,0.0
1259,46.0,0.0,510.0,7.0,0.0
1260,67.0,256.0,270.0,4.0,0.0
1261,58.0,256.0,510.0,6.0,0.0
1262,62.0,0.0,510.0,6.0,0.0
1263,63.0,0.0,270.0,5.0,0.0
1264,70.0,0.0,270.0,4.0,0.0
1265,65.0,0.0,270.0,5.0,0.0
1266,65.0,0.0,270.0,6.0,0.0
1267,65.0,0.0,270.0,4.0,0.0
1268,68.0,0.0,270.0,4.0,0.0
1269,67.0,0.0,270.0,4.0,0.0
1270,63.0,0.0,510.0,4.0,0.0
1271,51.0,0.0,510.0,7.0,0.0
1272,39.0,0.0,510.0,7.0,0.0
1273,63.0,0.0,510.0,6.0,0.0
1274,67.0,0.0,270.0,5.0,0.0
1275,67.0,0.0,270.0,6.0,0.0
1276,58.0,0.0,510.0,6.0,0.0
1277,68.0,0.0,270.0,6.0,0.0
1278,68.0,0.0,270.0,4.0,0.0
1279,68.0,0.0,270.0,5.0,0.0
1280,53.0,0.0,510.0,7.0,0.0
1281,67.0,0.0,270.0,6.0,0.0
1282,62.0,0.0,510.0,6.0,0.0
1283,56.0,0.0,510.0,6.0,0.0
1284,46.0,0.0,510.0,7.0,0.0
1285,58.0,0.0,510.0,4.0,0.0
1286,67.0,0.0,270.0,4.0,0.0
1287,67.0,0.0,270.0,5.0,0.0
1288,68.0,0.0,270.0,5.0,0.0
1289,68.0,256.0,270.0,6.0,0.0
1290,68.0,0.0,270.0,4.0,0.0
1291,63.0,0.0,1530.0,6.0,0.0
1292,55.0,0.0,510.0,6.0,0.0
1293,70.0,0.0,510.0,4.0,0.0
1294,70.0,0.0,270.0,6.0,0.0
1295,63.0,256.0,510.0,4.0,0.0
1296,39.0,0.0,510.0,7.0,0.0
1297,70.0,0.0,270.0,5.0,0.0
1298,55.0,0.0,510.0,7.0,0.0
1299,75.0,0.0,270.0,5.0,0.0
1300,75.0,0.0,270.0,6.0,0.0
1301,74.0,0.0,270.0,5.0,0.0
1302,56.0,0.0,510.0,7.0,0.0
1303,74.0,256.0,270.0,6.0,0.0
1304,72.0,0.0,270.0,5.0,0.0
1305,72.0,0.0,270.0,6.0,0.0
1306,70.0,256.0,270.0,6.0,0.0
1307,58.0,256.0,510.0,7.0,0.0
1308,53.0,256.0,15.0,6.0,0.0
1309,70.0,0.0,270.0,5.0,0.0
1310,68.0,0.0,270.0,5.0,0.0
1311,68.0,0.0,270.0,6.0,0.0
1312,67.0,0.0,270.0,5.0,0.0
1313,74.0,0.0,510.0,4.0,0.0
1314,58.0,0.0,1020.0,6.0,0.0
1315,62.0,0.0,1020.0,6.0,0.0
1316,67.0,0.0,270.0,6.0,0.0
1317,46.0,0.0,510.0,7.0,0.0
1318,65.0,256.0,510.0,4.0,0.0
1319,68.0,0.0,270.0,5.0,0.0
1320,68.0,0.0,270.0,6.0,0.0
1321,67.0,256.0,270.0,6.0,0.0
1322,51.0,0.0,510.0,7.0,0.0
1323,39.0,0.0,510.0,7.0,0.0
1324,67.0,0.0,510.0,4.0,0.0
1325,75.0,0.0,510.0,4.0,0.0
1326,67.0,0.0,270.0,5.0,0.0
1327,72.0,0.0,270.0,5.0,0.0
1328,72.0,0.0,270.0,6.0,0.0
1329,70.0,0.0,270.0,5.0,0.0
1330,53.0,0.0,510.0,7.0,0.0
1331,70.0,256.0,270.0,6.0,0.0
1332,60.0,0.0,1020.0,6.0,0.0
1333,53.0,256.0,510.0,6.0,0.0
1334,68.0,0.0,270.0,5.0,0.0
1335,68.0,0.0,270.0,6.0,0.0
1336,67.0,0.0,270.0,5.0,0.0
1337,55.0,256.0,510.0,7.0,0.0
1338,50.0,0.0,510.0,6.0,0.0
1339,67.0,256.0,270.0,6.0,0.0
1340,65.0,0.0,270.0,6.0,0.0
1341,65.0,0.0,270.0,5.0,0.0
1342,63.0,0.0,270.0,6.0,0.0
1343,43.0,0.0,510.0,7.0,0.0
1344,55.0,0.0,1020.0,6.0,0.0
1345,74.0,0.0,510.0,4.0,0.0
1346,67.0,0.0,510.0,4.0,0.0
1347,59.0,0.0,510.0,6.0,0.0
1348,63.0,0.0,270.0,5.0,0.0
1349,65.0,0.0,270.0,6.0,0.0
1350,65.0,0.0,270.0,5.0,0.0
1351,60.0,0.0,510.0,6.0,0.0
1352,63.0,256.0,270.0,6.0,0.0
1353,63.0,0.0,510.0,4.0,0.0
1354,72.0,0.0,510.0,4.0,0.0
1355,48.0,0.0,510.0,7.0,0.0
1356,63.0,0.0,270.0,5.0,0.0
1357,68.0,0.0,270.0,5.0,0.0
1358,68.0,0.0,270.0,6.0,0.0
1359,67.0,256.0,270.0,6.0,0.0
1360,58.0,0.0,1020.0,6.0,0.0
1361,49.0,0.0,510.0,7.0,0.0
1362,67.0,0.0,270.0,5.0,0.0
1363,68.0,0.0,1020.0,6.0,0.0
1364,65.0,0.0,270.0,6.0,0.0
1365,65.0,0.0,270.0,5.0,0.0
1366,70.0,0.0,1020.0,0.0,0.0
1367,51.0,0.0,510.0,7.0,0.0
1368,51.0,0.0,1020.0,3.0,0.0
1369,63.0,0.0,270.0,6.0,0.0
1370,63.0,0.0,270.0,5.0,0.0
1371,58.0,0.0,1020.0,2.0,0.0
1372,63.0,0.0,1020.0,1.0,0.0
1373,61.0,0.0,270.0,5.0,0.0
1374,61.0,0.0,270.0,6.0,0.0
1375,60.0,0.0,270.0,6.0,0.0
1376,63.0,0.0,510.0,6.0,0.0
1377,67.0,0.0,510.0,6.0,0.0
1378,60.0,0.0,270.0,5.0,0.0
1379,70.0,0.0,510.0,4.0,0.0
1380,63.0,0.0,510.0,4.0,0.0
1381,39.0,256.0,510.0,7.0,0.0
1382,61.0,0.0,270.0,6.0,0.0
1383,61.0,0.0,270.0,5.0,0.0
1384,44.0,0.0,510.0,3.0,0.0
1385,72.0,0.0,270.0,4.0,0.0
1386,56.0,0.0,1020.0,2.0,0.0
1387,60.0,0.0,270.0,6.0,0.0
1388,60.0,0.0,270.0,5.0,0.0
1389,44.0,0.0,510.0,7.0,0.0
1390,51.0,0.0,510.0,4.0,0.0
1391,68.0,0.0,510.0,6.0,0.0
1392,70.0,0.0,270.0,4.0,0.0
1393,63.0,0.0,270.0,5.0,0.0
1394,63.0,0.0,270.0,6.0,0.0
1395,72.0,0.0,510.0,4.0,0.0
1396,46.0,0.0,510.0,7.0,0.0
1397,62.0,0.0,270.0,5.0,0.0
1398,46.0,0.0,510.0,3.0,0.0
1399,56.0,0.0,510.0,6.0,0.0
1400,62.0,0.0,270.0,6.0,0.0
1401,65.0,0.0,270.0,6.0,0.0
1402,65.0,0.0,270.0,5.0,0.0
1403,63.0,0.0,15.0,4.0,0.0
1404,63.0,0.0,270.0,6.0,0.0
1405,48.0,0.0,510.0,7.0,0.0
1406,63.0,0.0,15.0,1.0,0.0
1407,72.0,0.0,15.0,0.0,0.0
1408,60.0,0.0,510.0,6.0,0.0
1409,48.0,0.0,510.0,3.0,0.0
1410,55.0,0.0,510.0,6.0,0.0
1411,55.0,0.0,510.0,2.0,0.0
1412,63.0,0.0,270.0,5.0,0.0
1413,75.0,0.0,270.0,5.0,0.0
1414,75.0,0.0,270.0,6.0,0.0
1415,62.0,0.0,270.0,4.0,0.0
1416,53.0,0.0,510.0,2.0,0.0
1417,72.0,0.0,510.0,4.0,0.0
1418,63.0,256.0,510.0,4.0,0.0
1419,74.0,0.0,270.0,5.0,0.0
1420,63.0,0.0,510.0,6.0,0.0
1421,74.0,0.0,270.0,6.0,0.0
1422,45.0,0.0,510.0,3.0,0.0
1423,45.0,0.0,510.0,7.0,0.0
1424,72.0,0.0,270.0,6.0,0.0
1425,72.0,0.0,270.0,5.0,0.0
1426,65.0,0.0,1020.0,0.0,0.0
1427,53.0,0.0,1020.0,2.0,0.0
1428,70.0,0.0,270.0,5.0,0.0
1429,53.0,0.0,15.0,6.0,0.0
1430,70.0,0.0,270.0,6.0,0.0
1431,62.0,0.0,510.0,6.0,0.0
1432,62.0,0.0,1020.0,1.0,0.0
1433,68.0,0.0,510.0,4.0,0.0
1434,68.0,0.0,270.0,5.0,0.0
1435,68.0,256.0,270.0,6.0,0.0
1436,67.0,0.0,270.0,5.0,0.0
1437,63.0,512.0,510.0,6.0,0.0
1438,70.0,0.0,510.0,4.0,0.0
1439,67.0,0.0,270.0,6.0,0.0
1440,46.0,0.0,15.0,7.0,0.0
1441,58.0,0.0,270.0,6.0,0.0
1442,34.0,0.0,510.0,7.0,0.0
1443,58.0,0.0,510.0,4.0,0.0
1444,56.0,0.0,270.0,6.0,0.0
1445,46.0,0.0,270.0,7.0,0.0
1446,68.0,128.0,120.0,6.0,0.0
1447,68.0,0.0,120.0,5.0,0.0
1448,70.0,0.0,120.0,5.0,0.0
1449,70.0,0.0,120.0,6.0,0.0
1450,65.0,0.0,1020.0,0.0,0.0
1451,65.0,0.0,780.0,5.0,0.0
1452,46.0,0.0,510.0,7.0,0.0
1453,46.0,0.0,15.0,3.0,0.0
1454,62.0,0.0,1020.0,1.0,0.0
1455,58.0,0.0,510.0,6.0,0.0
1456,58.0,0.0,1020.0,2.0,0.0
1457,65.0,0.0,780.0,6.0,0.0
1458,62.0,0.0,510.0,6.0,0.0
1459,53.0,0.0,510.0,6.0,0.0
1460,60.0,0.0,510.0,6.0,0.0
1461,58.0,0.0,510.0,4.0,0.0
1462,44.0,0.0,510.0,7.0,0.0
1463,65.0,0.0,15.0,4.0,0.0
1464,46.0,256.0,15.0,7.0,0.0
1465,44.0,0.0,510.0,3.0,0.0
1466,63.0,0.0,15.0,6.0,0.0
1467,58.0,0.0,1020.0,6.0,0.0
1468,55.0,0.0,1020.0,6.0,0.0
1469,70.0,0.0,1020.0,0.0,0.0
1470,61.0,512.0,1020.0,1.0,0.0
1471,51.0,0.0,510.0,2.0,0.0
1472,63.0,0.0,15.0,5.0,0.0
1473,43.0,0.0,510.0,3.0,0.0
1474,70.0,256.0,270.0,4.0,0.0
1475,43.0,0.0,510.0,7.0,0.0
1476,39.0,0.0,1020.0,7.0,0.0
1477,63.0,0.0,1020.0,5.0,0.0
1478,68.0,512.0,270.0,4.0,0.0
1479,53.0,0.0,510.0,2.0,0.0
1480,44.0,0.0,510.0,3.0,0.0
1481,44.0,0.0,510.0,7.0,0.0
1482,70.0,0.0,510.0,4.0,0.0
1483,68.0,0.0,510.0,4.0,0.0
1484,55.0,0.0,510.0,2.0,0.0
1485,46.0,0.0,510.0,3.0,0.0
1486,46.0,0.0,510.0,7.0,0.0
1487,70.0,512.0,1020.0,0.0,0.0
1488,61.0,0.0,1020.0,1.0,0.0
1489,67.0,256.0,510.0,4.0,0.0
1490,70.0,0.0,510.0,4.0,0.0
1491,43.0,0.0,510.0,3.0,0.0
1492,56.0,256.0,270.0,2.0,0.0
1493,43.0,0.0,510.0,7.0,0.0
1494,58.0,0.0,270.0,2.0,0.0
1495,56.0,0.0,1020.0,2.0,0.0
1496,44.0,0.0,1020.0,3.0,0.0
1497,44.0,0.0,510.0,7.0,0.0
1498,63.0,0.0,1020.0,0.0,0.0
1499,63.0,0.0,15.0,4.0,0.0
1500,60.0,512.0,1020.0,1.0,0.0
1501,32.0,0.0,510.0,7.0,0.0
1502,68.0,0.0,510.0,4.0,0.0
1503,63.0,0.0,510.0,4.0,0.0
1504,67.0,0.0,1020.0,0.0,0.0
1505,39.0,0.0,510.0,7.0,0.0
1506,55.0,0.0,1020.0,2.0,0.0
1507,51.0,512.0,510.0,4.0,0.0
1508,51.0,0.0,510.0,3.0,0.0
1509,58.0,0.0,510.0,1.0,0.0
1510,48.0,0.0,510.0,3.0,0.0
1511,48.0,0.0,510.0,7.0,0.0
1512,67.0,0.0,510.0,4.0,0.0
1513,63.0,0.0,510.0,4.0,0.0
1514,45.0,0.0,510.0,3.0,0.0
1515,65.0,0.0,1020.0,0.0,0.0
1516,45.0,0.0,510.0,7.0,0.0
1517,60.0,0.0,510.0,2.0,0.0
1518,63.0,512.0,15.0,1.0,0.0
1519,65.0,0.0,510.0,5.0,0.0
1520,65.0,0.0,15.0,4.0,0.0
1521,46.0,0.0,510.0,7.0,0.0
1522,65.0,0.0,510.0,6.0,0.0
1523,46.0,0.0,510.0,3.0,0.0
1524,70.0,0.0,510.0,4.0,0.0
1525,62.0,0.0,510.0,6.0,0.0
1526,58.0,0.0,510.0,6.0,0.0
1527,62.0,512.0,15.0,1.0,0.0
1528,70.0,0.0,510.0,5.0,0.0
1529,62.0,0.0,510.0,6.0,0.0
1530,58.0,0.0,15.0,2.0,0.0
1531,43.0,0.0,510.0,7.0,0.0
1532,63.0,0.0,1020.0,0.0,0.0
1533,70.0,0.0,510.0,6.0,0.0
1534,67.0,512.0,510.0,4.0,0.0
1535,43.0,0.0,510.0,3.0,0.0
1536,58.0,0.0,510.0,6.0,0.0
1537,45.0,0.0,510.0,7.0,0.0
1538,72.0,0.0,510.0,6.0,0.0
1539,53.0,256.0,780.0,6.0,0.0
1540,65.0,0.0,1020.0,6.0,0.0
1541,45.0,0.0,510.0,3.0,0.0
1542,72.0,0.0,510.0,4.0,0.0
1543,53.0,0.0,510.0,2.0,0.0
1544,72.0,0.0,510.0,5.0,0.0
1545,60.0,0.0,510.0,1.0,0.0
1546,65.0,0.0,510.0,4.0,0.0
1547,60.0,0.0,270.0,1.0,0.0
1548,74.0,0.0,270.0,6.0,0.0
1549,46.0,0.0,510.0,3.0,0.0
1550,62.0,0.0,1020.0,0.0,0.0
1551,70.0,0.0,270.0,4.0,0.0
1552,74.0,0.0,270.0,5.0,0.0
1553,60.0,0.0,270.0,6.0,0.0
1554,72.0,0.0,270.0,6.0,0.0
1555,69.0,0.0,270.0,4.0,0.0
1556,63.0,256.0,270.0,1.0,0.0
1557,72.0,0.0,270.0,5.0,0.0
1558,70.0,0.0,510.0,4.0,0.0
1559,65.0,0.0,510.0,4.0,0.0
1560,62.0,0.0,270.0,6.0,0.0
1561,41.0,0.0,510.0,7.0,0.0
1562,46.0,0.0,15.0,7.0,0.0
1563,62.0,0.0,270.0,1.0,0.0
1564,70.0,0.0,270.0,6.0,0.0
1565,53.0,0.0,510.0,3.0,0.0
1566,70.0,0.0,270.0,5.0,0.0
1567,69.0,0.0,270.0,6.0,0.0
1568,72.0,0.0,270.0,5.0,0.0
1569,72.0,0.0,270.0,6.0,0.0
1570,63.0,0.0,270.0,6.0,0.0
1571,60.0,256.0,270.0,1.0,0.0
1572,50.0,256.0,510.0,3.0,0.0
1573,53.0,0.0,15.0,2.0,0.0
1574,70.0,0.0,270.0,4.0,0.0
1575,74.0,0.0,270.0,5.0,0.0
1576,62.0,0.0,1020.0,0.0,0.0
1577,38.0,0.0,510.0,7.0,0.0
1578,46.0,0.0,15.0,7.0,0.0
1579,74.0,0.0,270.0,6.0,0.0
1580,70.0,0.0,1530.0,6.0,0.0
1581,65.0,0.0,510.0,6.0,0.0
1582,69.0,0.0,270.0,4.0,0.0
1583,75.0,0.0,270.0,5.0,0.0
1584,75.0,0.0,270.0,6.0,0.0
1585,46.0,0.0,15.0,7.0,0.0
1586,74.0,0.0,270.0,5.0,0.0
1587,46.0,0.0,15.0,7.0,0.0
1588,70.0,0.0,510.0,4.0,0.0
1589,62.0,0.0,510.0,6.0,0.0
1590,74.0,0.0,270.0,6.0,0.0
1591,34.0,0.0,510.0,7.0,0.0
1592,46.0,256.0,510.0,3.0,0.0
1593,75.0,0.0,270.0,6.0,0.0
1594,75.0,0.0,270.0,5.0,0.0
1595,60.0,0.0,510.0,6.0,0.0
1596,77.0,256.0,270.0,5.0,0.0
1597,60.0,0.0,2040.0,0.0,0.0
1598,53.0,0.0,2040.0,2.0,0.0
1599,70.0,0.0,15.0,4.0,0.0
1600,58.0,0.0,15.0,1.0,0.0
1601,77.0,0.0,270.0,6.0,0.0
1602,41.0,0.0,510.0,7.0,0.0
1603,41.0,256.0,2040.0,3.0,0.0
1604,82.0,0.0,270.0,5.0,0.0
1605,82.0,0.0,270.0,6.0,0.0
1606,75.0,0.0,510.0,4.0,0.0
1607,63.0,256.0,510.0,6.0,0.0
1608,72.0,0.0,270.0,6.0,0.0
1609,81.0,0.0,270.0,6.0,0.0
1610,72.0,0.0,270.0,4.0,0.0
1611,81.0,256.0,270.0,5.0,0.0
1612,39.0,0.0,510.0,7.0,0.0
1613,67.0,0.0,270.0,4.0,0.0
1614,74.0,0.0,270.0,6.0,0.0
1615,79.0,0.0,270.0,5.0,0.0
1616,79.0,0.0,270.0,6.0,0.0
1617,77.0,0.0,270.0,5.0,0.0
1618,77.0,256.0,270.0,6.0,0.0
1619,41.0,0.0,510.0,7.0,0.0
1620,69.0,0.0,510.0,4.0,0.0
1621,57.0,0.0,1020.0,1.0,0.0
1622,72.0,0.0,510.0,6.0,0.0
1623,57.0,0.0,510.0,6.0,0.0
1624,72.0,0.0,510.0,4.0,0.0
1625,75.0,0.0,270.0,5.0,0.0
1626,75.0,0.0,270.0,6.0,0.0
1627,65.0,0.0,510.0,4.0,0.0
1628,72.0,0.0,510.0,4.0,0.0
1629,60.0,0.0,510.0,6.0,0.0
1630,53.0,0.0,510.0,7.0,0.0
1631,74.0,0.0,270.0,6.0,0.0
1632,74.0,0.0,270.0,5.0,0.0
1633,68.0,0.0,510.0,6.0,0.0
1634,75.0,0.0,270.0,6.0,0.0
1635,75.0,0.0,270.0,5.0,0.0
1636,58.0,0.0,1020.0,0.0,0.0
1637,58.0,256.0,1020.0,1.0,0.0
1638,74.0,256.0,270.0,6.0,0.0
1639,53.0,0.0,1020.0,2.0,0.0
1640,46.0,0.0,510.0,7.0,0.0
1641,70.0,0.0,510.0,6.0,0.0
1642,46.0,0.0,1020.0,3.0,0.0
1643,74.0,0.0,270.0,5.0,0.0
1644,58.0,0.0,510.0,6.0,0.0
1645,74.0,0.0,510.0,4.0,0.0
1646,79.0,256.0,270.0,6.0,0.0
1647,79.0,0.0,270.0,5.0,0.0
1648,48.0,0.0,510.0,7.0,0.0
1649,67.0,0.0,1020.0,6.0,0.0
1650,63.0,0.0,510.0,6.0,0.0
1651,77.0,0.0,270.0,5.0,0.0
1652,77.0,256.0,270.0,6.0,0.0
1653,75.0,0.0,270.0,6.0,0.0
1654,75.0,0.0,270.0,5.0,0.0
1655,57.0,0.0,510.0,6.0,0.0
1656,74.0,256.0,270.0,6.0,0.0
1657,74.0,0.0,270.0,5.0,0.0
1658,50.0,0.0,510.0,7.0,0.0
1659,72.0,0.0,270.0,6.0,0.0
1660,72.0,0.0,270.0,5.0,0.0
1661,38.0,0.0,510.0,7.0,0.0
1662,62.0,0.0,1020.0,6.0,0.0
1663,74.0,0.0,510.0,4.0,0.0
1664,70.0,256.0,270.0,6.0,0.0
1665,70.0,0.0,270.0,5.0,0.0
1666,66.0,0.0,510.0,6.0,0.0
1667,72.0,0.0,270.0,5.0,0.0
1668,72.0,0.0,270.0,6.0,0.0
1669,74.0,0.0,510.0,4.0,0.0
1670,70.0,0.0,270.0,6.0,0.0
1671,67.0,0.0,510.0,6.0,0.0
1672,70.0,256.0,270.0,5.0,0.0
1673,43.0,0.0,510.0,7.0,0.0
1674,75.0,0.0,270.0,5.0,0.0
1675,74.0,0.0,270.0,5.0,0.0
1676,53.0,0.0,510.0,6.0,0.0
1677,75.0,256.0,15.0,6.0,0.0
1678,74.0,256.0,270.0,6.0,0.0
1679,44.0,256.0,510.0,7.0,0.0
1680,72.0,0.0,270.0,5.0,0.0
1681,72.0,0.0,270.0,6.0,0.0
1682,70.0,256.0,270.0,5.0,0.0
1683,55.0,0.0,510.0,6.0,0.0
1684,46.0,0.0,510.0,7.0,0.0
1685,70.0,0.0,270.0,6.0,0.0
1686,68.0,0.0,270.0,5.0,0.0
1687,68.0,0.0,270.0,6.0,0.0
1688,65.0,256.0,510.0,4.0,0.0
1689,34.0,0.0,510.0,7.0,0.0
1690,67.0,0.0,270.0,6.0,0.0
1691,74.0,0.0,1020.0,6.0,0.0
1692,67.0,0.0,270.0,5.0,0.0
1693,68.0,0.0,270.0,6.0,0.0
1694,68.0,0.0,270.0,5.0,0.0
1695,58.0,0.0,15.0,6.0,0.0
1696,67.0,0.0,270.0,6.0,0.0
1697,39.0,0.0,510.0,7.0,0.0
1698,67.0,0.0,270.0,5.0,0.0
1699,67.0,0.0,510.0,4.0,0.0
1700,70.0,0.0,270.0,5.0,0.0
1701,70.0,0.0,270.0,6.0,0.0
1702,41.0,0.0,510.0,7.0,0.0
1703,63.0,0.0,510.0,6.0,0.0
1704,69.0,0.0,270.0,5.0,0.0
1705,69.0,0.0,270.0,6.0,0.0
1706,72.0,0.0,270.0,6.0,0.0
1707,72.0,0.0,270.0,5.0,0.0
1708,70.0,0.0,270.0,6.0,0.0
1709,43.0,256.0,510.0,7.0,0.0
1710,67.0,0.0,510.0,6.0,0.0
1711,62.0,0.0,510.0,6.0,0.0
1712,70.0,0.0,270.0,5.0,0.0
1713,75.0,0.0,270.0,6.0,0.0
1714,75.0,0.0,270.0,5.0,0.0
1715,74.0,0.0,270.0,6.0,0.0
1716,75.0,0.0,510.0,4.0,0.0
1717,45.0,256.0,510.0,7.0,0.0
1718,65.0,0.0,510.0,6.0,0.0
1719,74.0,0.0,270.0,5.0,0.0
1720,72.0,0.0,270.0,6.0,0.0
1721,72.0,0.0,270.0,5.0,0.0
1722,74.0,0.0,270.0,6.0,0.0
1723,65.0,0.0,510.0,6.0,0.0
1724,58.0,0.0,510.0,6.0,0.0
1725,74.0,0.0,270.0,5.0,0.0
1726,74.0,0.0,270.0,4.0,0.0
1727,46.0,0.0,510.0,7.0,0.0
1728,72.0,256.0,270.0,6.0,0.0
1729,72.0,0.0,270.0,5.0,0.0
1730,72.0,0.0,270.0,4.0,0.0
1731,70.0,128.0,270.0,4.0,0.0
1732,70.0,0.0,270.0,6.0,0.0
1733,67.0,0.0,510.0,6.0,0.0
1734,62.0,0.0,510.0,6.0,0.0
1735,70.0,0.0,270.0,5.0,0.0
1736,51.0,0.0,510.0,7.0,0.0
1737,72.0,512.0,270.0,4.0,0.0
1738,72.0,0.0,120.0,5.0,0.0
1739,72.0,0.0,120.0,6.0,0.0
1740,74.0,0.0,120.0,6.0,0.0
1741,74.0,0.0,120.0,5.0,0.0
1742,69.0,0.0,780.0,5.0,0.0
1743,60.0,256.0,510.0,6.0,0.0
1744,65.0,0.0,510.0,6.0,0.0
1745,69.0,0.0,780.0,6.0,0.0
1746,53.0,0.0,510.0,7.0,0.0
1747,69.0,0.0,780.0,4.0,0.0
1748,41.0,0.0,510.0,7.0,0.0
1749,65.0,0.0,510.0,6.0,0.0
1750,60.0,256.0,510.0,6.0,0.0
1751,70.0,0.0,15.0,4.0,0.0
1752,70.0,0.0,15.0,5.0,0.0
1753,46.0,0.0,510.0,7.0,0.0
1754,65.0,0.0,510.0,6.0,0.0
1755,70.0,0.0,15.0,6.0,0.0
1756,75.0,0.0,270.0,6.0,0.0
1757,75.0,0.0,270.0,5.0,0.0
1758,74.0,0.0,270.0,5.0,0.0
1759,63.0,0.0,510.0,6.0,0.0
1760,48.0,0.0,510.0,7.0,0.0
1761,65.0,256.0,15.0,4.0,0.0
1762,74.0,0.0,270.0,6.0,0.0
1763,46.0,256.0,15.0,7.0,0.0
1764,72.0,0.0,270.0,5.0,0.0
1765,72.0,0.0,270.0,6.0,0.0
1766,70.0,0.0,15.0,4.0,0.0
1767,62.0,0.0,1020.0,2.0,0.0
1768,65.0,0.0,1020.0,1.0,0.0
1769,70.0,0.0,1020.0,0.0,0.0
1770,50.0,0.0,510.0,7.0,0.0
1771,62.0,256.0,15.0,6.0,0.0
1772,70.0,0.0,270.0,5.0,0.0
1773,70.0,0.0,270.0,6.0,0.0
1774,65.0,0.0,510.0,6.0,0.0
1775,46.0,0.0,1020.0,3.0,0.0
1776,68.0,0.0,270.0,6.0,0.0
1777,68.0,0.0,270.0,5.0,0.0
1778,46.0,0.0,15.0,7.0,0.0
1779,74.0,0.0,510.0,4.0,0.0
1780,70.0,0.0,15.0,4.0,0.0
1781,62.0,0.0,510.0,6.0,0.0
1782,67.0,256.0,270.0,6.0,0.0
1783,67.0,0.0,270.0,5.0,0.0
1784,68.0,0.0,270.0,6.0,0.0
1785,68.0,0.0,270.0,5.0,0.0
1786,67.0,0.0,270.0,5.0,0.0
1787,67.0,256.0,270.0,6.0,0.0
1788,63.0,0.0,510.0,6.0,0.0
1789,55.0,256.0,510.0,6.0,0.0
1790,39.0,0.0,510.0,7.0,0.0
1791,72.0,0.0,1020.0,0.0,0.0
1792,55.0,0.0,510.0,2.0,0.0
1793,51.0,0.0,510.0,7.0,0.0
1794,51.0,0.0,510.0,3.0,0.0
1795,67.0,0.0,1530.0,1.0,0.0
1796,72.0,0.0,270.0,6.0,0.0
1797,72.0,0.0,270.0,5.0,0.0
1798,56.0,0.0,510.0,6.0,0.0
1799,72.0,0.0,15.0,4.0,0.0
1800,74.0,0.0,510.0,4.0,0.0
1801,70.0,0.0,270.0,5.0,0.0
1802,70.0,256.0,270.0,6.0,0.0
1803,53.0,0.0,510.0,7.0,0.0
1804,53.0,0.0,510.0,3.0,0.0
1805,56.0,0.0,510.0,2.0,0.0
1806,62.0,0.0,1020.0,6.0,0.0
1807,68.0,0.0,270.0,6.0,0.0
1808,68.0,0.0,270.0,5.0,0.0
1809,55.0,0.0,1020.0,3.0,0.0
1810,67.0,256.0,270.0,6.0,0.0
1811,58.0,0.0,1020.0,2.0,0.0
1812,55.0,0.0,510.0,7.0,0.0
1813,70.0,256.0,510.0,4.0,0.0
1814,70.0,0.0,1020.0,0.0,0.0
1815,67.0,0.0,270.0,5.0,0.0
1816,58.0,0.0,1020.0,6.0,0.0
1817,65.0,0.0,270.0,5.0,0.0
1818,65.0,0.0,270.0,6.0,0.0
1819,63.0,0.0,270.0,5.0,0.0
1820,63.0,0.0,270.0,6.0,0.0
1821,62.0,0.0,510.0,1.0,0.0
1822,46.0,0.0,510.0,7.0,0.0
1823,58.0,0.0,510.0,4.0,0.0
1824,67.0,0.0,510.0,4.0,0.0
1825,67.0,0.0,510.0,6.0,0.0
1826,65.0,256.0,270.0,6.0,0.0
1827,65.0,0.0,270.0,5.0,0.0
1828,63.0,0.0,270.0,5.0,0.0
1829,68.0,0.0,1020.0,0.0,0.0
1830,48.0,0.0,510.0,3.0,0.0
1831,51.0,0.0,510.0,6.0,0.0
1832,60.0,0.0,510.0,6.0,0.0
1833,63.0,0.0,270.0,6.0,0.0
1834,51.0,0.0,510.0,2.0,0.0
1835,68.0,0.0,510.0,4.0,0.0
1836,48.0,0.0,510.0,7.0,0.0
1837,63.0,0.0,1530.0,1.0,0.0
1838,39.0,0.0,510.0,7.0,0.0
1839,68.0,256.0,270.0,6.0,0.0
1840,68.0,0.0,270.0,5.0,0.0
1841,50.0,0.0,510.0,3.0,0.0
1842,53.0,0.0,510.0,2.0,0.0
1843,70.0,0.0,510.0,4.0,0.0
1844,68.0,0.0,510.0,4.0,0.0
1845,50.0,0.0,510.0,7.0,0.0
1846,67.0,0.0,270.0,6.0,0.0
1847,53.0,0.0,510.0,6.0,0.0
1848,67.0,0.0,270.0,5.0,0.0
1849,58.0,0.0,1020.0,6.0,0.0
1850,65.0,0.0,270.0,6.0,0.0
1851,65.0,0.0,270.0,5.0,0.0
1852,55.0,0.0,1020.0,6.0,0.0
1853,55.0,0.0,1020.0,2.0,0.0
1854,51.0,0.0,1020.0,3.0,0.0
1855,67.0,0.0,1020.0,0.0,0.0
1856,63.0,0.0,270.0,6.0,0.0
1857,67.0,256.0,510.0,4.0,0.0
1858,51.0,0.0,510.0,7.0,0.0
1859,63.0,0.0,270.0,5.0,0.0
1860,61.0,0.0,270.0,6.0,0.0
1861,61.0,0.0,270.0,5.0,0.0
1862,60.0,0.0,270.0,5.0,0.0
1863,63.0,0.0,510.0,4.0,0.0
1864,60.0,256.0,270.0,6.0,0.0
1865,58.0,256.0,510.0,1.0,0.0
1866,43.0,0.0,510.0,7.0,0.0
1867,63.0,0.0,510.0,6.0,0.0
1868,55.0,0.0,510.0,4.0,0.0
1869,61.0,0.0,270.0,6.0,0.0
1870,61.0,0.0,270.0,5.0,0.0
1871,56.0,128.0,780.0,2.0,0.0
1872,65.0,0.0,2040.0,0.0,0.0
1873,60.0,0.0,270.0,5.0,0.0
1874,65.0,0.0,270.0,4.0,0.0
1875,44.0,0.0,1020.0,3.0,0.0
1876,60.0,0.0,270.0,6.0,0.0
1877,60.0,256.0,1020.0,1.0,0.0
1878,44.0,0.0,510.0,7.0,0.0
1879,63.0,0.0,270.0,5.0,0.0
1880,63.0,0.0,270.0,6.0,0.0
1881,67.0,0.0,270.0,4.0,0.0
1882,62.0,0.0,270.0,6.0,0.0
1883,56.0,0.0,270.0,6.0,0.0
1884,62.0,0.0,270.0,5.0,0.0
1885,41.0,0.0,510.0,7.0,0.0
1886,65.0,0.0,510.0,4.0,0.0
1887,68.0,256.0,780.0,4.0,0.0
1888,63.0,0.0,120.0,5.0,0.0
1889,55.0,0.0,270.0,6.0,0.0
1890,55.0,0.0,270.0,2.0,0.0
1891,63.0,0.0,120.0,6.0,0.0
1892,65.0,0.0,120.0,6.0,0.0
1893,65.0,0.0,120.0,5.0,0.0
1894,62.0,0.0,780.0,6.0,0.0
1895,62.0,0.0,780.0,5.0,0.0
1896,58.0,0.0,510.0,6.0,0.0
1897,53.0,0.0,1020.0,6.0,0.0
1898,53.0,0.0,1020.0,2.0,0.0
1899,46.0,256.0,1020.0,3.0,0.0
1900,58.0,0.0,1020.0,1.0,0.0
1901,46.0,0.0,15.0,7.0,0.0
1902,67.0,0.0,270.0,4.0,0.0
1903,65.0,0.0,15.0,4.0,0.0
1904,58.0,0.0,510.0,4.0,0.0
1905,46.0,0.0,15.0,7.0,0.0
1906,34.0,0.0,510.0,7.0,0.0
1907,68.0,0.0,270.0,4.0,0.0
1908,46.0,0.0,270.0,7.0,0.0
1909,55.0,0.0,510.0,6.0,0.0
1910,67.0,0.0,270.0,4.0,0.0
1911,58.0,0.0,15.0,6.0,0.0
1912,63.0,0.0,15.0,6.0,0.0
1913,63.0,256.0,270.0,4.0,0.0
1914,39.0,0.0,1020.0,7.0,0.0
1915,63.0,0.0,15.0,5.0,0.0
1916,55.0,0.0,2040.0,2.0,0.0
1917,63.0,0.0,2040.0,0.0,0.0
1918,39.0,0.0,2040.0,3.0,0.0
1919,58.0,0.0,2040.0,1.0,0.0
1920,68.0,0.0,270.0,4.0,0.0
1921,65.0,0.0,270.0,4.0,0.0
1922,67.0,0.0,270.0,4.0,0.0
1923,79.0,0.0,510.0,5.0,0.0
1924,79.0,0.0,510.0,6.0,0.0
1925,63.0,256.0,270.0,4.0,0.0
1926,65.0,0.0,270.0,4.0,0.0
1927,68.0,0.0,270.0,4.0,0.0
1928,70.0,256.0,270.0,4.0,0.0
1929,75.0,0.0,15.0,6.0,0.0
1930,70.0,0.0,15.0,6.0,0.0
1931,67.0,0.0,270.0,4.0,0.0
1932,67.0,0.0,510.0,6.0,0.0
1933,75.0,0.0,510.0,5.0,0.0
1934,68.0,0.0,270.0,4.0,0.0
1935,72.0,0.0,270.0,4.0,0.0
1936,67.0,0.0,270.0,4.0,0.0
1937,70.0,256.0,270.0,4.0,0.0
1938,70.0,0.0,510.0,6.0,0.0
1939,63.0,256.0,510.0,6.0,0.0
1940,67.0,0.0,510.0,6.0,0.0
1941,70.0,0.0,510.0,5.0,0.0
1942,72.0,0.0,270.0,4.0,0.0
1943,39.0,0.0,1020.0,7.0,0.0
1944,65.0,256.0,270.0,4.0,0.0
1945,68.0,0.0,15.0,4.0,0.0
1946,70.0,0.0,270.0,4.0,0.0
1947,67.0,256.0,270.0,4.0,0.0
1948,68.0,0.0,270.0,4.0,0.0
1949,77.0,0.0,510.0,6.0,0.0
1950,65.0,256.0,270.0,4.0,0.0
1951,77.0,0.0,510.0,5.0,0.0
1952,70.0,0.0,270.0,4.0,0.0
1953,67.0,0.0,270.0,4.0,0.0
1954,72.0,0.0,270.0,4.0,0.0
1955,68.0,256.0,270.0,4.0,0.0
1956,74.0,0.0,15.0,6.0,0.0
1957,68.0,0.0,15.0,6.0,0.0
1958,65.0,0.0,510.0,6.0,0.0
1959,74.0,0.0,510.0,5.0,0.0
1960,70.0,0.0,270.0,4.0,0.0
1961,74.0,256.0,270.0,4.0,0.0
1962,68.0,0.0,510.0,5.0,0.0
1963,65.0,0.0,510.0,6.0,0.0
1964,72.0,0.0,270.0,4.0,0.0
1965,68.0,256.0,270.0,4.0,0.0
1966,62.0,0.0,510.0,6.0,0.0
1967,68.0,0.0,15.0,6.0,0.0
1968,74.0,0.0,270.0,4.0,0.0
1969,39.0,0.0,510.0,7.0,0.0
1970,67.0,0.0,7170.0,4.0,0.0
1971,70.0,0.0,15.0,4.0,0.0
1972,58.0,0.0,510.0,6.0,0.0
1973,67.0,0.0,510.0,6.0,0.0
1974,75.0,0.0,270.0,6.0,0.0
1975,75.0,0.0,270.0,5.0,0.0
1976,58.0,0.0,510.0,7.0,0.0
1977,55.0,0.0,510.0,6.0,0.0
1978,74.0,256.0,270.0,6.0,0.0
1979,74.0,0.0,270.0,5.0,0.0
1980,72.0,0.0,270.0,5.0,0.0
1981,72.0,0.0,270.0,6.0,0.0
1982,55.0,0.0,510.0,7.0,0.0
1983,70.0,0.0,270.0,5.0,0.0
1984,63.0,0.0,510.0,6.0,0.0
1985,58.0,256.0,15.0,6.0,0.0
1986,70.0,256.0,270.0,6.0,0.0
1987,68.0,0.0,270.0,6.0,0.0
1988,68.0,0.0,270.0,5.0,0.0
1989,51.0,0.0,510.0,7.0,0.0
1990,63.0,0.0,510.0,6.0,0.0
1991,67.0,256.0,270.0,6.0,0.0
1992,67.0,0.0,270.0,5.0,0.0
1993,68.0,0.0,270.0,5.0,0.0
1994,68.0,0.0,270.0,6.0,0.0
1995,46.0,0.0,510.0,7.0,0.0
1996,67.0,0.0,270.0,5.0,0.0
1997,39.0,0.0,1020.0,7.0,0.0
1998,67.0,0.0,270.0,6.0,0.0
1999,72.0,0.0,270.0,6.0,0.0
2000,72.0,0.0,270.0,5.0,0.0
2001,70.0,256.0,270.0,6.0,0.0
2002,58.0,0.0,510.0,6.0,0.0
2003,55.0,0.0,510.0,7.0,0.0
2004,70.0,0.0,270.0,5.0,0.0
2005,68.0,0.0,270.0,5.0,0.0
2006,68.0,0.0,270.0,6.0,0.0
2007,67.0,0.0,270.0,5.0,0.0
2008,63.0,256.0,15.0,6.0,0.0
2009,67.0,0.0,270.0,6.0,0.0
2010,51.0,0.0,510.0,7.0,0.0
2011,65.0,0.0,270.0,6.0,0.0
2012,65.0,0.0,270.0,5.0,0.0
2013,67.0,256.0,15.0,6.0,0.0
2014,46.0,256.0,510.0,7.0,0.0
2015,70.0,0.0,510.0,6.0,0.0
2016,63.0,0.0,270.0,6.0,0.0
2017,63.0,0.0,270.0,5.0,0.0
2018,65.0,0.0,270.0,6.0,0.0
2019,65.0,0.0,270.0,5.0,0.0
2020,63.0,0.0,270.0,5.0,0.0
2021,63.0,0.0,270.0,6.0,0.0
2022,39.0,0.0,1020.0,7.0,0.0
2023,43.0,0.0,510.0,7.0,0.0
2024,68.0,0.0,270.0,6.0,0.0
2025,68.0,0.0,270.0,5.0,0.0
2026,51.0,0.0,510.0,7.0,0.0
2027,67.0,0.0,270.0,6.0,0.0
2028,67.0,0.0,270.0,5.0,0.0
2029,63.0,0.0,510.0,6.0,0.0
2030,65.0,0.0,270.0,6.0,0.0
2031,65.0,0.0,270.0,5.0,0.0
2032,46.0,256.0,510.0,7.0,0.0
2033,63.0,0.0,270.0,6.0,0.0
2034,67.0,0.0,510.0,6.0,0.0
2035,63.0,0.0,270.0,5.0,0.0
2036,61.0,0.0,270.0,5.0,0.0
2037,61.0,0.0,270.0,6.0,0.0
2038,70.0,0.0,15.0,6.0,0.0
2039,75.0,0.0,510.0,6.0,0.0
2040,60.0,0.0,270.0,6.0,0.0
2041,43.0,0.0,510.0,7.0,0.0
2042,60.0,0.0,270.0,5.0,0.0
2043,61.0,0.0,270.0,5.0,0.0
2044,61.0,0.0,270.0,6.0,0.0
2045,60.0,0.0,270.0,6.0,0.0
2046,68.0,0.0,2040.0,4.0,0.0
2047,60.0,0.0,270.0,5.0,0.0
2048,58.0,256.0,270.0,6.0,0.0
2049,58.0,0.0,270.0,5.0,0.0
2050,39.0,0.0,15.0,7.0,0.0
2051,56.0,0.0,510.0,6.0,0.0
2052,39.0,0.0,510.0,7.0,0.0
2053,60.0,0.0,270.0,5.0,0.0
2054,60.0,0.0,270.0,6.0,0.0
2055,63.0,0.0,270.0,6.0,0.0
2056,63.0,0.0,270.0,5.0,0.0
2057,62.0,256.0,270.0,6.0,0.0
2058,65.0,0.0,510.0,6.0,0.0
2059,65.0,0.0,1020.0,4.0,0.0
2060,39.0,0.0,15.0,7.0,0.0
2061,39.0,0.0,510.0,7.0,0.0
2062,62.0,0.0,270.0,5.0,0.0
2063,60.0,0.0,270.0,6.0,0.0
2064,60.0,0.0,270.0,5.0,0.0
2065,68.0,0.0,15.0,6.0,0.0
2066,62.0,256.0,270.0,6.0,0.0
2067,39.0,256.0,15.0,7.0,0.0
2068,62.0,0.0,270.0,5.0,0.0
2069,65.0,0.0,270.0,5.0,0.0
2070,65.0,0.0,270.0,6.0,0.0
2071,63.0,0.0,1020.0,4.0,0.0
2072,67.0,0.0,510.0,4.0,0.0
2073,58.0,0.0,510.0,5.0,0.0
2074,39.0,512.0,15.0,7.0,0.0
2075,72.0,256.0,270.0,6.0,0.0
2076,68.0,0.0,270.0,6.0,0.0
2077,58.0,0.0,510.0,4.0,0.0
2078,67.0,256.0,270.0,6.0,0.0
2079,70.0,0.0,270.0,6.0,0.0
2080,68.0,0.0,270.0,6.0,0.0
2081,65.0,0.0,270.0,6.0,0.0
2082,63.0,256.0,510.0,4.0,0.0
2083,67.0,256.0,270.0,6.0,0.0
2084,63.0,0.0,270.0,6.0,0.0
2085,65.0,0.0,270.0,6.0,0.0
2086,60.0,0.0,270.0,6.0,0.0
2087,63.0,0.0,270.0,6.0,0.0
2088,58.0,256.0,270.0,6.0,0.0
2089,65.0,0.0,510.0,4.0,0.0
2090,56.0,0.0,270.0,6.0,0.0
2091,62.0,256.0,270.0,6.0,0.0
2092,67.0,256.0,270.0,4.0,0.0
2093,55.0,256.0,1020.0,6.0,0.0
2094,39.0,0.0,1020.0,7.0,0.0
2095,63.0,0.0,1020.0,6.0,0.0
2096,65.0,256.0,270.0,5.0,0.0
2097,65.0,0.0,270.0,4.0,0.0
2098,67.0,256.0,270.0,5.0,0.0
2099,63.0,0.0,270.0,4.0,0.0
2100,58.0,0.0,510.0,4.0,0.0
2101,65.0,0.0,270.0,4.0,0.0
2102,68.0,0.0,270.0,5.0,0.0
2103,63.0,0.0,510.0,4.0,0.0
2104,70.0,0.0,270.0,5.0,0.0
2105,67.0,256.0,270.0,4.0,0.0
2106,75.0,256.0,270.0,5.0,0.0
2107,70.0,0.0,270.0,4.0,0.0
2108,68.0,0.0,270.0,4.0,0.0
2109,74.0,256.0,270.0,5.0,0.0
2110,65.0,0.0,510.0,4.0,0.0
2111,77.0,0.0,270.0,5.0,0.0
2112,72.0,256.0,270.0,4.0,0.0
2113,67.0,0.0,270.0,4.0,0.0
2114,75.0,0.0,510.0,5.0,0.0
2115,70.0,256.0,270.0,4.0,0.0
2116,39.0,0.0,1020.0,7.0,0.0
2117,68.0,0.0,270.0,4.0,0.0
2118,65.0,256.0,270.0,4.0,0.0
2119,63.0,0.0,270.0,4.0,0.0
2120,67.0,256.0,270.0,4.0,0.0
2121,58.0,0.0,510.0,6.0,0.0
2122,58.0,0.0,510.0,5.0,0.0
2123,65.0,0.0,270.0,4.0,0.0
2124,68.0,0.0,270.0,4.0,0.0
2125,63.0,0.0,510.0,6.0,0.0
2126,67.0,256.0,270.0,4.0,0.0
2127,63.0,0.0,510.0,5.0,0.0
2128,70.0,0.0,270.0,4.0,0.0
2129,65.0,0.0,510.0,5.0,0.0
2130,65.0,0.0,510.0,6.0,0.0
2131,68.0,256.0,270.0,4.0,0.0
2132,74.0,0.0,510.0,4.0,0.0
2133,72.0,0.0,270.0,4.0,0.0
2134,70.0,0.0,270.0,4.0,0.0
2135,75.0,256.0,510.0,4.0,0.0
2136,67.0,0.0,270.0,5.0,0.0
2137,67.0,256.0,270.0,6.0,0.0
2138,65.0,0.0,270.0,6.0,0.0
2139,65.0,0.0,270.0,5.0,0.0
2140,68.0,0.0,270.0,4.0,0.0
2141,67.0,0.0,270.0,4.0,0.0
2142,62.0,0.0,510.0,6.0,0.0
2143,58.0,0.0,510.0,6.0,0.0
2144,63.0,0.0,270.0,5.0,0.0
2145,70.0,0.0,270.0,4.0,0.0
2146,46.0,0.0,510.0,7.0,0.0
2147,63.0,256.0,270.0,6.0,0.0
2148,65.0,0.0,270.0,6.0,0.0
2149,65.0,0.0,270.0,5.0,0.0
2150,65.0,0.0,270.0,4.0,0.0
2151,68.0,0.0,270.0,4.0,0.0
2152,67.0,0.0,270.0,4.0,0.0
2153,63.0,0.0,510.0,4.0,0.0
2154,39.0,0.0,510.0,7.0,0.0
2155,67.0,0.0,270.0,6.0,0.0
2156,58.0,0.0,510.0,6.0,0.0
2157,63.0,0.0,510.0,6.0,0.0
2158,67.0,0.0,270.0,5.0,0.0
2159,51.0,0.0,510.0,7.0,0.0
2160,68.0,0.0,270.0,6.0,0.0
2161,68.0,0.0,270.0,4.0,0.0
2162,68.0,0.0,270.0,5.0,0.0
2163,53.0,0.0,510.0,7.0,0.0
2164,67.0,0.0,270.0,4.0,0.0
2165,67.0,0.0,270.0,6.0,0.0
2166,62.0,0.0,510.0,6.0,0.0
2167,56.0,0.0,510.0,6.0,0.0
2168,46.0,256.0,510.0,7.0,0.0
2169,58.0,0.0,510.0,4.0,0.0
2170,67.0,0.0,270.0,5.0,0.0
2171,68.0,0.0,270.0,4.0,0.0
2172,68.0,0.0,270.0,6.0,0.0
2173,68.0,0.0,270.0,5.0,0.0
2174,70.0,0.0,270.0,5.0,0.0
2175,39.0,0.0,510.0,7.0,0.0
2176,70.0,256.0,270.0,6.0,0.0
2177,55.0,0.0,510.0,7.0,0.0
2178,63.0,0.0,1530.0,6.0,0.0
2179,55.0,0.0,510.0,6.0,0.0
2180,63.0,0.0,510.0,4.0,0.0
2181,70.0,0.0,510.0,4.0,0.0
2182,75.0,0.0,270.0,6.0,0.0
2183,75.0,0.0,270.0,5.0,0.0
2184,74.0,0.0,270.0,6.0,0.0
2185,56.0,0.0,510.0,7.0,0.0
2186,74.0,0.0,270.0,5.0,0.0
2187,72.0,256.0,270.0,6.0,0.0
2188,72.0,0.0,270.0,5.0,0.0
2189,70.0,0.0,270.0,5.0,0.0
2190,53.0,0.0,15.0,6.0,0.0
2191,58.0,0.0,510.0,7.0,0.0
2192,70.0,0.0,270.0,6.0,0.0
2193,68.0,0.0,270.0,6.0,0.0
2194,68.0,0.0,270.0,5.0,0.0
2195,74.0,256.0,510.0,4.0,0.0
2196,67.0,0.0,270.0,5.0,0.0
2197,65.0,0.0,510.0,4.0,0.0
2198,67.0,0.0,270.0,6.0,0.0
2199,62.0,256.0,1020.0,6.0,0.0
2200,46.0,0.0,510.0,7.0,0.0
2201,58.0,0.0,1020.0,6.0,0.0
2202,68.0,0.0,270.0,6.0,0.0
2203,68.0,0.0,270.0,5.0,0.0
2204,67.0,0.0,270.0,5.0,0.0
2205,51.0,0.0,510.0,7.0,0.0
2206,39.0,0.0,510.0,7.0,0.0
2207,75.0,0.0,510.0,4.0,0.0
2208,67.0,256.0,270.0,6.0,0.0
2209,67.0,0.0,510.0,4.0,0.0
2210,72.0,0.0,270.0,5.0,0.0
2211,72.0,0.0,270.0,6.0,0.0
2212,53.0,0.0,510.0,7.0,0.0
2213,70.0,256.0,270.0,6.0,0.0
2214,70.0,0.0,270.0,5.0,0.0
2215,60.0,0.0,1020.0,6.0,0.0
2216,53.0,0.0,510.0,6.0,0.0
2217,68.0,0.0,270.0,5.0,0.0
2218,68.0,0.0,270.0,6.0,0.0
2219,55.0,0.0,510.0,7.0,0.0
2220,50.0,256.0,510.0,6.0,0.0
2221,67.0,0.0,270.0,6.0,0.0
2222,67.0,0.0,270.0,5.0,0.0
2223,65.0,0.0,270.0,6.0,0.0
2224,65.0,0.0,270.0,5.0,0.0
2225,55.0,0.0,1020.0,6.0,0.0
2226,63.0,0.0,270.0,5.0,0.0
2227,63.0,0.0,270.0,6.0,0.0
2228,59.0,0.0,510.0,6.0,0.0
2229,74.0,0.0,510.0,4.0,0.0
2230,43.0,256.0,510.0,7.0,0.0
2231,67.0,0.0,510.0,4.0,0.0
2232,65.0,0.0,270.0,6.0,0.0
2233,65.0,0.0,270.0,5.0,0.0
2234,63.0,0.0,510.0,4.0,0.0
2235,72.0,0.0,510.0,4.0,0.0
2236,60.0,0.0,510.0,6.0,0.0
2237,63.0,0.0,270.0,6.0,0.0
2238,48.0,0.0,510.0,7.0,0.0
2239,63.0,0.0,270.0,5.0,0.0
2240,68.0,0.0,270.0,5.0,0.0
2241,67.0,0.0,270.0,5.0,0.0
2242,49.0,0.0,510.0,7.0,0.0
2243,68.0,256.0,15.0,6.0,0.0
2244,67.0,256.0,270.0,6.0,0.0
2245,58.0,256.0,510.0,6.0,0.0
2246,65.0,0.0,270.0,6.0,0.0
2247,65.0,0.0,270.0,5.0,0.0
2248,63.0,256.0,270.0,6.0,0.0
2249,51.0,0.0,510.0,7.0,0.0
2250,63.0,0.0,270.0,5.0,0.0
2251,61.0,0.0,270.0,5.0,0.0
2252,61.0,256.0,270.0,6.0,0.0
2253,60.0,0.0,15.0,6.0,0.0
2254,70.0,256.0,510.0,4.0,0.0
2255,67.0,0.0,1020.0,6.0,0.0
2256,39.0,0.0,510.0,7.0,0.0
2257,63.0,0.0,510.0,4.0,0.0
2258,60.0,0.0,270.0,5.0,0.0
2259,61.0,0.0,270.0,5.0,0.0
2260,61.0,0.0,270.0,6.0,0.0
2261,32.0,0.0,510.0,7.0,0.0
2262,60.0,0.0,270.0,6.0,0.0
2263,63.0,0.0,510.0,4.0,0.0
2264,60.0,0.0,270.0,5.0,0.0
2265,72.0,0.0,510.0,4.0,0.0
2266,63.0,0.0,270.0,6.0,0.0
2267,63.0,0.0,270.0,5.0,0.0
2268,44.0,0.0,510.0,7.0,0.0
2269,65.0,0.0,510.0,4.0,0.0
2270,62.0,0.0,270.0,6.0,0.0
2271,62.0,0.0,270.0,5.0,0.0
2272,70.0,0.0,510.0,4.0,0.0
2273,65.0,0.0,270.0,6.0,0.0
2274,65.0,0.0,270.0,5.0,0.0
2275,43.0,0.0,510.0,7.0,0.0
2276,58.0,0.0,15.0,6.0,0.0
2277,70.0,0.0,510.0,6.0,0.0
2278,67.0,256.0,510.0,4.0,0.0
2279,63.0,0.0,270.0,6.0,0.0
2280,70.0,0.0,1290.0,4.0,0.0
2281,63.0,0.0,270.0,5.0,0.0
2282,75.0,0.0,270.0,6.0,0.0
2283,75.0,0.0,270.0,5.0,0.0
2284,41.0,256.0,510.0,7.0,0.0
2285,68.0,0.0,510.0,6.0,0.0
2286,62.0,0.0,510.0,6.0,0.0
2287,74.0,256.0,270.0,6.0,0.0
2288,68.0,0.0,510.0,4.0,0.0
2289,74.0,0.0,270.0,5.0,0.0
2290,72.0,0.0,270.0,5.0,0.0
2291,72.0,0.0,270.0,6.0,0.0
2292,67.0,0.0,510.0,6.0,0.0
2293,70.0,0.0,270.0,6.0,0.0
2294,67.0,0.0,270.0,4.0,0.0
2295,43.0,256.0,510.0,7.0,0.0
2296,70.0,0.0,270.0,5.0,0.0
2297,68.0,0.0,270.0,4.0,0.0
2298,65.0,0.0,270.0,4.0,0.0
2299,68.0,0.0,270.0,6.0,0.0
2300,68.0,0.0,270.0,5.0,0.0
2301,67.0,128.0,270.0,4.0,0.0
2302,63.0,256.0,510.0,4.0,0.0
2303,67.0,0.0,270.0,5.0,0.0
2304,63.0,0.0,15.0,6.0,0.0
2305,51.0,0.0,510.0,6.0,0.0
2306,39.0,0.0,510.0,7.0,0.0
2307,44.0,0.0,510.0,7.0,0.0
2308,67.0,0.0,270.0,6.0,0.0
2309,68.0,128.0,120.0,6.0,0.0
2310,68.0,0.0,270.0,4.0,0.0
2311,68.0,0.0,120.0,5.0,0.0
2312,70.0,0.0,120.0,6.0,0.0
2313,70.0,0.0,120.0,5.0,0.0
2314,65.0,0.0,780.0,5.0,0.0
2315,46.0,256.0,270.0,7.0,0.0
2316,65.0,0.0,780.0,6.0,0.0
2317,63.0,0.0,510.0,6.0,0.0
2318,58.0,256.0,510.0,6.0,0.0
2319,58.0,0.0,270.0,4.0,0.0
2320,65.0,256.0,780.0,4.0,0.0
2321,55.0,0.0,270.0,4.0,0.0
2322,46.0,0.0,270.0,7.0,0.0
2323,58.0,0.0,510.0,4.0,0.0
2324,34.0,4096.0,510.0,7.0,0.0
2325,62.0,0.0,510.0,6.0,0.0
2326,53.0,0.0,510.0,6.0,0.0
2327,46.0,0.0,15.0,7.0,0.0
2328,63.0,0.0,270.0,6.0,0.0
2329,63.0,0.0,270.0,5.0,0.0
2330,39.0,0.0,4110.0,7.0,0.0
2331,55.0,0.0,4110.0,6.0,0.0
2332,55.0,0.0,4110.0,4.0,0.0
2333,63.0,0.0,15.0,5.0,0.0
2334,63.0,0.0,15.0,4.0,0.0
2335,63.0,0.0,4110.0,6.0,0.0
2336,58.0,0.0,4110.0,6.0,0.0
2337,63.0,0.0,4110.0,5.0,0.0
