,note,step,duration,channel,velocity
0,55.0,0.0,120.0,0.0,0.0
1,64.0,30.0,30.0,0.0,0.0
2,52.0,11.0,120.0,0.0,0.0
3,59.0,0.0,120.0,0.0,0.0
4,66.0,30.0,30.0,0.0,0.0
5,67.0,19.0,30.0,0.0,0.0
6,69.0,30.0,30.0,0.0,0.0
7,71.0,30.0,30.0,0.0,0.0
8,67.0,30.0,30.0,0.0,0.0
9,66.0,30.0,30.0,0.0,0.0
10,64.0,30.0,30.0,0.0,0.0
11,63.0,30.0,30.0,0.0,0.0
12,54.0,0.0,120.0,0.0,0.0
13,57.0,0.0,120.0,0.0,0.0
14,52.0,11.0,120.0,0.0,0.0
15,64.0,30.0,30.0,0.0,0.0
16,66.0,19.0,30.0,0.0,0.0
17,60.0,30.0,30.0,0.0,0.0
18,59.0,30.0,30.0,0.0,0.0
19,57.0,30.0,30.0,0.0,0.0
20,55.0,30.0,30.0,0.0,0.0
21,54.0,30.0,30.0,0.0,0.0
22,52.0,30.0,30.0,0.0,0.0
23,59.0,30.0,30.0,0.0,0.0
24,67.0,4.0,60.0,0.0,0.0
25,64.0,0.0,60.0,0.0,0.0
26,52.0,26.0,30.0,0.0,0.0
27,59.0,30.0,30.0,0.0,0.0
28,51.0,30.0,30.0,0.0,0.0
29,67.0,0.0,60.0,0.0,0.0
30,64.0,19.0,60.0,0.0,0.0
31,59.0,11.0,30.0,0.0,0.0
32,51.0,7.0,30.0,0.0,0.0
33,66.0,0.0,30.0,0.0,0.0
34,69.0,23.0,30.0,0.0,0.0
35,59.0,30.0,30.0,0.0,0.0
36,52.0,30.0,30.0,0.0,0.0
37,59.0,30.0,30.0,0.0,0.0
38,67.0,4.0,60.0,0.0,0.0
39,64.0,0.0,60.0,0.0,0.0
40,52.0,26.0,30.0,0.0,0.0
41,59.0,30.0,30.0,0.0,0.0
42,47.0,30.0,30.0,0.0,0.0
43,64.0,19.0,60.0,0.0,0.0
44,67.0,0.0,60.0,0.0,0.0
45,59.0,11.0,30.0,0.0,0.0
46,47.0,17.0,30.0,0.0,0.0
47,63.0,13.0,30.0,0.0,0.0
48,66.0,0.0,30.0,0.0,0.0
49,59.0,30.0,30.0,0.0,0.0
50,59.0,11.0,120.0,0.0,0.0
51,52.0,0.0,120.0,0.0,0.0
52,64.0,30.0,30.0,0.0,0.0
53,55.0,0.0,120.0,0.0,0.0
54,66.0,30.0,30.0,0.0,0.0
55,67.0,19.0,30.0,0.0,0.0
56,69.0,30.0,30.0,0.0,0.0
57,71.0,30.0,30.0,0.0,0.0
58,67.0,30.0,30.0,0.0,0.0
59,66.0,30.0,30.0,0.0,0.0
60,64.0,30.0,30.0,0.0,0.0
61,63.0,30.0,30.0,0.0,0.0
62,54.0,0.0,120.0,0.0,0.0
63,57.0,11.0,120.0,0.0,0.0
64,52.0,0.0,120.0,0.0,0.0
65,64.0,30.0,30.0,0.0,0.0
66,66.0,19.0,30.0,0.0,0.0
67,60.0,30.0,30.0,0.0,0.0
68,59.0,30.0,30.0,0.0,0.0
69,57.0,30.0,30.0,0.0,0.0
70,55.0,30.0,30.0,0.0,0.0
71,54.0,30.0,30.0,0.0,0.0
72,52.0,30.0,30.0,0.0,0.0
73,59.0,30.0,30.0,0.0,0.0
74,76.0,0.0,60.0,0.0,0.0
75,67.0,4.0,60.0,0.0,0.0
76,52.0,26.0,30.0,0.0,0.0
77,59.0,30.0,30.0,0.0,0.0
78,67.0,27.0,60.0,0.0,0.0
79,76.0,0.0,60.0,0.0,0.0
80,51.0,30.0,30.0,0.0,0.0
81,59.0,3.0,30.0,0.0,0.0
82,78.0,0.0,60.0,0.0,0.0
83,69.0,27.0,60.0,0.0,0.0
84,51.0,30.0,30.0,0.0,0.0
85,59.0,3.0,30.0,0.0,0.0
86,52.0,30.0,30.0,0.0,0.0
87,59.0,30.0,30.0,0.0,0.0
88,76.0,0.0,60.0,0.0,0.0
89,67.0,4.0,60.0,0.0,0.0
90,52.0,26.0,30.0,0.0,0.0
91,59.0,30.0,30.0,0.0,0.0
92,76.0,27.0,60.0,0.0,0.0
93,67.0,0.0,60.0,0.0,0.0
94,47.0,30.0,30.0,0.0,0.0
95,59.0,3.0,30.0,0.0,0.0
96,66.0,0.0,60.0,0.0,0.0
97,75.0,27.0,60.0,0.0,0.0
98,47.0,30.0,30.0,0.0,0.0
99,59.0,3.0,30.0,0.0,0.0
100,52.0,30.0,30.0,0.0,0.0
101,59.0,30.0,30.0,0.0,0.0
102,67.0,30.0,30.0,0.0,0.0
103,64.0,0.0,30.0,0.0,0.0
104,52.0,0.0,30.0,0.0,0.0
105,66.0,0.0,30.0,0.0,0.0
106,63.0,30.0,30.0,0.0,0.0
107,59.0,0.0,30.0,0.0,0.0
108,67.0,0.0,60.0,0.0,0.0
109,50.0,26.0,30.0,0.0,0.0
110,64.0,4.0,60.0,0.0,0.0
111,59.0,30.0,30.0,0.0,0.0
112,76.0,4.0,60.0,0.0,0.0
113,67.0,0.0,60.0,0.0,0.0
114,50.0,26.0,30.0,0.0,0.0
115,59.0,30.0,30.0,0.0,0.0
116,49.0,30.0,30.0,0.0,0.0
117,57.0,30.0,30.0,0.0,0.0
118,49.0,26.0,30.0,0.0,0.0
119,64.0,0.0,60.0,0.0,0.0
120,67.0,4.0,60.0,0.0,0.0
121,57.0,30.0,30.0,0.0,0.0
122,45.0,30.0,30.0,0.0,0.0
123,57.0,30.0,30.0,0.0,0.0
124,66.0,26.0,30.0,0.0,0.0
125,61.0,4.0,60.0,0.0,0.0
126,45.0,0.0,30.0,0.0,0.0
127,57.0,0.0,30.0,0.0,0.0
128,64.0,30.0,30.0,0.0,0.0
129,50.0,30.0,30.0,0.0,0.0
130,57.0,30.0,30.0,0.0,0.0
131,66.0,30.0,30.0,0.0,0.0
132,62.0,0.0,30.0,0.0,0.0
133,50.0,0.0,30.0,0.0,0.0
134,64.0,30.0,30.0,0.0,0.0
135,61.0,0.0,30.0,0.0,0.0
136,57.0,0.0,30.0,0.0,0.0
137,66.0,0.0,60.0,0.0,0.0
138,62.0,4.0,60.0,0.0,0.0
139,48.0,26.0,30.0,0.0,0.0
140,57.0,30.0,30.0,0.0,0.0
141,74.0,4.0,60.0,0.0,0.0
142,66.0,0.0,60.0,0.0,0.0
143,48.0,26.0,30.0,0.0,0.0
144,57.0,30.0,30.0,0.0,0.0
145,47.0,30.0,30.0,0.0,0.0
146,55.0,30.0,30.0,0.0,0.0
147,47.0,26.0,30.0,0.0,0.0
148,66.0,0.0,60.0,0.0,0.0
149,62.0,4.0,60.0,0.0,0.0
150,55.0,30.0,30.0,0.0,0.0
151,43.0,30.0,30.0,0.0,0.0
152,55.0,30.0,30.0,0.0,0.0
153,64.0,26.0,30.0,0.0,0.0
154,59.0,4.0,60.0,0.0,0.0
155,43.0,0.0,30.0,0.0,0.0
156,62.0,0.0,30.0,0.0,0.0
157,55.0,30.0,30.0,0.0,0.0
158,49.0,30.0,30.0,0.0,0.0
159,55.0,30.0,30.0,0.0,0.0
160,64.0,30.0,30.0,0.0,0.0
161,58.0,0.0,30.0,0.0,0.0
162,49.0,0.0,30.0,0.0,0.0
163,62.0,30.0,30.0,0.0,0.0
164,59.0,0.0,30.0,0.0,0.0
165,55.0,0.0,30.0,0.0,0.0
166,61.0,4.0,60.0,0.0,0.0
167,64.0,0.0,60.0,0.0,0.0
168,47.0,26.0,30.0,0.0,0.0
169,55.0,30.0,30.0,0.0,0.0
170,64.0,4.0,60.0,0.0,0.0
171,73.0,0.0,60.0,0.0,0.0
172,47.0,26.0,30.0,0.0,0.0
173,55.0,30.0,30.0,0.0,0.0
174,46.0,30.0,30.0,0.0,0.0
175,54.0,30.0,30.0,0.0,0.0
176,64.0,4.0,60.0,0.0,0.0
177,61.0,0.0,60.0,0.0,0.0
178,46.0,26.0,30.0,0.0,0.0
179,54.0,30.0,30.0,0.0,0.0
180,42.0,30.0,30.0,0.0,0.0
181,54.0,30.0,30.0,0.0,0.0
182,58.0,4.0,60.0,0.0,0.0
183,62.0,0.0,30.0,0.0,0.0
184,42.0,26.0,30.0,0.0,0.0
185,61.0,30.0,30.0,0.0,0.0
186,54.0,0.0,30.0,0.0,0.0
187,62.0,11.0,120.0,0.0,0.0
188,59.0,0.0,120.0,0.0,0.0
189,47.0,30.0,30.0,0.0,0.0
190,50.0,30.0,30.0,0.0,0.0
191,52.0,19.0,30.0,0.0,0.0
192,54.0,56.0,30.0,0.0,0.0
193,55.0,4.0,60.0,0.0,0.0
194,66.0,30.0,30.0,0.0,0.0
195,64.0,26.0,30.0,0.0,0.0
196,47.0,4.0,60.0,0.0,0.0
197,62.0,30.0,30.0,0.0,0.0
198,61.0,26.0,30.0,0.0,0.0
199,46.0,4.0,60.0,0.0,0.0
200,59.0,30.0,30.0,0.0,0.0
201,55.0,4.0,60.0,0.0,0.0
202,61.0,26.0,30.0,0.0,0.0
203,64.0,30.0,30.0,0.0,0.0
204,63.0,26.0,30.0,0.0,0.0
205,54.0,4.0,60.0,0.0,0.0
206,61.0,30.0,30.0,0.0,0.0
207,63.0,26.0,30.0,0.0,0.0
208,45.0,4.0,60.0,0.0,0.0
209,66.0,30.0,30.0,0.0,0.0
210,66.0,4.0,60.0,0.0,0.0
211,44.0,26.0,30.0,0.0,0.0
212,47.0,30.0,30.0,0.0,0.0
213,49.0,26.0,30.0,0.0,0.0
214,64.0,4.0,60.0,0.0,0.0
215,51.0,56.0,30.0,0.0,0.0
216,52.0,4.0,60.0,0.0,0.0
217,62.0,30.0,30.0,0.0,0.0
218,60.0,26.0,30.0,0.0,0.0
219,43.0,4.0,60.0,0.0,0.0
220,59.0,30.0,30.0,0.0,0.0
221,42.0,4.0,60.0,0.0,0.0
222,57.0,26.0,30.0,0.0,0.0
223,56.0,30.0,30.0,0.0,0.0
224,57.0,26.0,30.0,0.0,0.0
225,51.0,4.0,60.0,0.0,0.0
226,60.0,30.0,30.0,0.0,0.0
227,59.0,26.0,30.0,0.0,0.0
228,50.0,4.0,60.0,0.0,0.0
229,57.0,30.0,30.0,0.0,0.0
230,41.0,4.0,60.0,0.0,0.0
231,59.0,26.0,30.0,0.0,0.0
232,62.0,30.0,30.0,0.0,0.0
233,62.0,4.0,60.0,0.0,0.0
234,40.0,26.0,30.0,0.0,0.0
235,44.0,30.0,30.0,0.0,0.0
236,60.0,4.0,60.0,0.0,0.0
237,45.0,26.0,30.0,0.0,0.0
238,47.0,56.0,30.0,0.0,0.0
239,48.0,4.0,60.0,0.0,0.0
240,59.0,30.0,30.0,0.0,0.0
241,40.0,4.0,60.0,0.0,0.0
242,57.0,26.0,30.0,0.0,0.0
243,55.0,30.0,30.0,0.0,0.0
244,54.0,26.0,30.0,0.0,0.0
245,39.0,4.0,60.0,0.0,0.0
246,52.0,30.0,30.0,0.0,0.0
247,54.0,26.0,30.0,0.0,0.0
248,48.0,4.0,60.0,0.0,0.0
249,57.0,30.0,30.0,0.0,0.0
250,56.0,26.0,30.0,0.0,0.0
251,47.0,4.0,60.0,0.0,0.0
252,54.0,30.0,30.0,0.0,0.0
253,38.0,4.0,60.0,0.0,0.0
254,56.0,26.0,30.0,0.0,0.0
255,59.0,30.0,30.0,0.0,0.0
256,52.0,26.0,30.0,0.0,0.0
257,37.0,4.0,60.0,0.0,0.0
258,51.0,30.0,30.0,0.0,0.0
259,52.0,26.0,30.0,0.0,0.0
260,46.0,4.0,60.0,0.0,0.0
261,55.0,30.0,30.0,0.0,0.0
262,54.0,26.0,30.0,0.0,0.0
263,45.0,4.0,60.0,0.0,0.0
264,52.0,30.0,30.0,0.0,0.0
265,54.0,26.0,30.0,0.0,0.0
266,36.0,4.0,60.0,0.0,0.0
267,57.0,30.0,30.0,0.0,0.0
268,51.0,26.0,30.0,0.0,0.0
269,35.0,4.0,60.0,0.0,0.0
270,60.0,30.0,30.0,0.0,0.0
271,59.0,26.0,30.0,0.0,0.0
272,37.0,4.0,60.0,0.0,0.0
273,57.0,30.0,30.0,0.0,0.0
274,39.0,4.0,60.0,0.0,0.0
275,66.0,26.0,30.0,0.0,0.0
276,57.0,30.0,30.0,0.0,0.0
277,66.0,26.0,30.0,0.0,0.0
278,35.0,4.0,60.0,0.0,0.0
279,57.0,30.0,30.0,0.0,0.0
280,56.0,26.0,30.0,0.0,0.0
281,40.0,4.0,60.0,0.0,0.0
282,65.0,30.0,30.0,0.0,0.0
283,42.0,4.0,60.0,0.0,0.0
284,64.0,26.0,30.0,0.0,0.0
285,62.0,30.0,30.0,0.0,0.0
286,71.0,26.0,30.0,0.0,0.0
287,44.0,4.0,60.0,0.0,0.0
288,62.0,30.0,30.0,0.0,0.0
289,71.0,26.0,30.0,0.0,0.0
290,40.0,4.0,60.0,0.0,0.0
291,62.0,30.0,30.0,0.0,0.0
292,45.0,4.0,60.0,0.0,0.0
293,61.0,26.0,30.0,0.0,0.0
294,58.0,30.0,30.0,0.0,0.0
295,47.0,4.0,60.0,0.0,0.0
296,57.0,26.0,30.0,0.0,0.0
297,55.0,30.0,30.0,0.0,0.0
298,64.0,26.0,30.0,0.0,0.0
299,49.0,4.0,60.0,0.0,0.0
300,55.0,30.0,30.0,0.0,0.0
301,64.0,26.0,30.0,0.0,0.0
302,45.0,4.0,60.0,0.0,0.0
303,55.0,30.0,30.0,0.0,0.0
304,50.0,4.0,60.0,0.0,0.0
305,54.0,26.0,30.0,0.0,0.0
306,63.0,30.0,30.0,0.0,0.0
307,62.0,26.0,30.0,0.0,0.0
308,52.0,4.0,60.0,0.0,0.0
309,60.0,30.0,30.0,0.0,0.0
310,69.0,26.0,30.0,0.0,0.0
311,54.0,4.0,60.0,0.0,0.0
312,60.0,30.0,30.0,0.0,0.0
313,69.0,26.0,30.0,0.0,0.0
314,50.0,4.0,60.0,0.0,0.0
315,60.0,30.0,30.0,0.0,0.0
316,59.0,26.0,30.0,0.0,0.0
317,55.0,4.0,60.0,0.0,0.0
318,62.0,30.0,30.0,0.0,0.0
319,64.0,26.0,30.0,0.0,0.0
320,54.0,4.0,60.0,0.0,0.0
321,66.0,30.0,30.0,0.0,0.0
322,52.0,4.0,60.0,0.0,0.0
323,67.0,26.0,30.0,0.0,0.0
324,62.0,30.0,30.0,0.0,0.0
325,61.0,26.0,30.0,0.0,0.0
326,50.0,4.0,60.0,0.0,0.0
327,59.0,30.0,30.0,0.0,0.0
328,58.0,26.0,30.0,0.0,0.0
329,49.0,4.0,60.0,0.0,0.0
330,67.0,30.0,30.0,0.0,0.0
331,66.0,26.0,30.0,0.0,0.0
332,52.0,4.0,60.0,0.0,0.0
333,64.0,30.0,30.0,0.0,0.0
334,73.0,26.0,30.0,0.0,0.0
335,46.0,4.0,60.0,0.0,0.0
336,64.0,30.0,30.0,0.0,0.0
337,73.0,26.0,30.0,0.0,0.0
338,42.0,4.0,60.0,0.0,0.0
339,64.0,30.0,30.0,0.0,0.0
340,62.0,26.0,30.0,0.0,0.0
341,47.0,4.0,60.0,0.0,0.0
342,66.0,30.0,30.0,0.0,0.0
343,71.0,26.0,30.0,0.0,0.0
344,45.0,4.0,60.0,0.0,0.0
345,73.0,30.0,30.0,0.0,0.0
346,74.0,26.0,30.0,0.0,0.0
347,44.0,4.0,60.0,0.0,0.0
348,71.0,30.0,30.0,0.0,0.0
349,68.0,26.0,30.0,0.0,0.0
350,42.0,4.0,60.0,0.0,0.0
351,71.0,30.0,30.0,0.0,0.0
352,65.0,26.0,30.0,0.0,0.0
353,44.0,4.0,60.0,0.0,0.0
354,74.0,30.0,30.0,0.0,0.0
355,73.0,26.0,30.0,0.0,0.0
356,47.0,4.0,60.0,0.0,0.0
357,71.0,30.0,30.0,0.0,0.0
358,41.0,4.0,60.0,0.0,0.0
359,80.0,26.0,30.0,0.0,0.0
360,71.0,30.0,30.0,0.0,0.0
361,80.0,26.0,30.0,0.0,0.0
362,37.0,4.0,60.0,0.0,0.0
363,71.0,30.0,30.0,0.0,0.0
364,70.0,26.0,30.0,0.0,0.0
365,42.0,4.0,60.0,0.0,0.0
366,71.0,30.0,30.0,0.0,0.0
367,73.0,30.0,30.0,0.0,0.0
368,78.0,30.0,30.0,0.0,0.0
369,66.0,30.0,30.0,0.0,0.0
370,64.0,30.0,30.0,0.0,0.0
371,62.0,30.0,30.0,0.0,0.0
372,61.0,30.0,30.0,0.0,0.0
373,59.0,30.0,30.0,0.0,0.0
374,70.0,0.0,30.0,0.0,0.0
375,61.0,30.0,30.0,0.0,0.0
376,71.0,30.0,30.0,0.0,0.0
377,62.0,0.0,30.0,0.0,0.0
378,73.0,0.0,30.0,0.0,0.0
379,64.0,17.0,30.0,0.0,0.0
380,74.0,13.0,15.0,0.0,0.0
381,66.0,2.0,30.0,0.0,0.0
382,73.0,28.0,15.0,0.0,0.0
383,71.0,30.0,30.0,0.0,0.0
384,62.0,0.0,30.0,0.0,0.0
385,79.0,0.0,60.0,0.0,0.0
386,76.0,4.0,60.0,0.0,0.0
387,61.0,26.0,30.0,0.0,0.0
388,59.0,30.0,30.0,0.0,0.0
389,79.0,4.0,60.0,0.0,0.0
390,76.0,0.0,60.0,0.0,0.0
391,58.0,26.0,30.0,0.0,0.0
392,59.0,30.0,30.0,0.0,0.0
393,78.0,0.0,60.0,0.0,0.0
394,70.0,4.0,60.0,0.0,0.0
395,61.0,26.0,30.0,0.0,0.0
396,55.0,30.0,30.0,0.0,0.0
397,54.0,30.0,30.0,0.0,0.0
398,52.0,30.0,30.0,0.0,0.0
399,50.0,30.0,30.0,0.0,0.0
400,49.0,30.0,30.0,0.0,0.0
401,47.0,30.0,30.0,0.0,0.0
402,54.0,30.0,30.0,0.0,0.0
403,74.0,4.0,60.0,0.0,0.0
404,71.0,0.0,60.0,0.0,0.0
405,47.0,26.0,30.0,0.0,0.0
406,54.0,30.0,30.0,0.0,0.0
407,46.0,30.0,30.0,0.0,0.0
408,74.0,0.0,60.0,0.0,0.0
409,71.0,27.0,60.0,0.0,0.0
410,54.0,3.0,30.0,0.0,0.0
411,73.0,27.0,60.0,0.0,0.0
412,76.0,0.0,60.0,0.0,0.0
413,46.0,30.0,30.0,0.0,0.0
414,54.0,3.0,30.0,0.0,0.0
415,47.0,30.0,30.0,0.0,0.0
416,54.0,30.0,30.0,0.0,0.0
417,74.0,0.0,60.0,0.0,0.0
418,47.0,26.0,30.0,0.0,0.0
419,71.0,4.0,60.0,0.0,0.0
420,54.0,30.0,30.0,0.0,0.0
421,74.0,0.0,60.0,0.0,0.0
422,71.0,27.0,60.0,0.0,0.0
423,42.0,30.0,30.0,0.0,0.0
424,52.0,3.0,30.0,0.0,0.0
425,70.0,27.0,60.0,0.0,0.0
426,42.0,30.0,30.0,0.0,0.0
427,73.0,0.0,60.0,0.0,0.0
428,52.0,3.0,30.0,0.0,0.0
429,43.0,30.0,30.0,0.0,0.0
430,50.0,30.0,30.0,0.0,0.0
431,71.0,4.0,60.0,0.0,0.0
432,43.0,26.0,30.0,0.0,0.0
433,50.0,19.0,30.0,0.0,0.0
434,73.0,10.0,15.0,0.0,0.0
435,42.0,17.0,30.0,0.0,0.0
436,71.0,1.0,15.0,0.0,0.0
437,73.0,2.0,20.0,0.0,0.0
438,50.0,1.0,30.0,0.0,0.0
439,71.0,11.0,15.0,0.0,0.0
440,70.0,29.0,15.0,0.0,0.0
441,71.0,4.0,60.0,0.0,0.0
442,42.0,26.0,30.0,0.0,0.0
443,50.0,30.0,30.0,0.0,0.0
444,43.0,30.0,30.0,0.0,0.0
445,50.0,30.0,30.0,0.0,0.0
446,71.0,4.0,60.0,0.0,0.0
447,43.0,26.0,30.0,0.0,0.0
448,50.0,7.0,30.0,0.0,0.0
449,39.0,11.0,30.0,0.0,0.0
450,71.0,10.0,15.0,0.0,0.0
451,69.0,8.0,15.0,0.0,0.0
452,71.0,5.0,15.0,0.0,0.0
453,69.0,16.0,15.0,0.0,0.0
454,48.0,30.0,30.0,0.0,0.0
455,67.0,3.0,20.0,0.0,0.0
456,69.0,0.0,30.0,0.0,0.0
457,39.0,30.0,30.0,0.0,0.0
458,78.0,30.0,30.0,0.0,0.0
459,48.0,0.0,30.0,0.0,0.0
460,67.0,4.0,60.0,0.0,0.0
461,40.0,26.0,30.0,0.0,0.0
462,47.0,30.0,30.0,0.0,0.0
463,59.0,4.0,60.0,0.0,0.0
464,40.0,26.0,30.0,0.0,0.0
465,47.0,19.0,30.0,0.0,0.0
466,60.0,10.0,15.0,0.0,0.0
467,69.0,4.0,60.0,0.0,0.0
468,39.0,9.0,30.0,0.0,0.0
469,59.0,1.0,15.0,0.0,0.0
470,60.0,10.0,15.0,0.0,0.0
471,59.0,7.0,15.0,0.0,0.0
472,47.0,6.0,30.0,0.0,0.0
473,58.0,24.0,30.0,0.0,0.0
474,59.0,4.0,60.0,0.0,0.0
475,39.0,26.0,30.0,0.0,0.0
476,47.0,30.0,30.0,0.0,0.0
477,40.0,26.0,30.0,0.0,0.0
478,67.0,4.0,60.0,0.0,0.0
479,47.0,17.0,30.0,0.0,0.0
480,60.0,13.0,15.0,0.0,0.0
481,40.0,2.0,30.0,0.0,0.0
482,59.0,28.0,15.0,0.0,0.0
483,58.0,0.0,30.0,0.0,0.0
484,47.0,30.0,30.0,0.0,0.0
485,66.0,4.0,60.0,0.0,0.0
486,59.0,0.0,60.0,0.0,0.0
487,38.0,26.0,30.0,0.0,0.0
488,47.0,30.0,30.0,0.0,0.0
489,71.0,4.0,60.0,0.0,0.0
490,38.0,26.0,30.0,0.0,0.0
491,47.0,30.0,30.0,0.0,0.0
492,64.0,26.0,270.0,0.0,0.0
493,37.0,30.0,30.0,0.0,0.0
494,47.0,30.0,30.0,0.0,0.0
495,73.0,30.0,30.0,0.0,0.0
496,46.0,0.0,30.0,0.0,0.0
497,44.0,0.0,30.0,0.0,0.0
498,71.0,30.0,30.0,0.0,0.0
499,73.0,4.0,60.0,0.0,0.0
500,46.0,26.0,30.0,0.0,0.0
501,52.0,30.0,30.0,0.0,0.0
502,49.0,26.0,30.0,0.0,0.0
503,76.0,4.0,60.0,0.0,0.0
504,52.0,30.0,30.0,0.0,0.0
505,70.0,4.0,60.0,0.0,0.0
506,42.0,0.0,30.0,0.0,0.0
507,66.0,0.0,30.0,0.0,0.0
508,54.0,30.0,30.0,0.0,0.0
509,73.0,4.0,60.0,0.0,0.0
510,64.0,26.0,30.0,0.0,0.0
511,44.0,0.0,30.0,0.0,0.0
512,62.0,30.0,30.0,0.0,0.0
513,54.0,0.0,30.0,0.0,0.0
514,61.0,30.0,30.0,0.0,0.0
515,46.0,0.0,30.0,0.0,0.0
516,66.0,4.0,180.0,0.0,0.0
517,59.0,30.0,30.0,0.0,0.0
518,54.0,0.0,30.0,0.0,0.0
519,61.0,30.0,30.0,0.0,0.0
520,42.0,0.0,30.0,0.0,0.0
521,52.0,0.0,30.0,0.0,0.0
522,58.0,30.0,30.0,0.0,0.0
523,47.0,26.0,30.0,0.0,0.0
524,59.0,0.0,60.0,0.0,0.0
525,50.0,30.0,30.0,0.0,0.0
526,66.0,30.0,30.0,0.0,0.0
527,62.0,0.0,30.0,0.0,0.0
528,47.0,0.0,30.0,0.0,0.0
529,64.0,0.0,30.0,0.0,0.0
530,61.0,0.0,30.0,0.0,0.0
531,50.0,30.0,30.0,0.0,0.0
532,66.0,4.0,60.0,0.0,0.0
533,62.0,0.0,60.0,0.0,0.0
534,45.0,26.0,30.0,0.0,0.0
535,54.0,30.0,30.0,0.0,0.0
536,66.0,0.0,60.0,0.0,0.0
537,45.0,26.0,30.0,0.0,0.0
538,74.0,4.0,60.0,0.0,0.0
539,54.0,30.0,30.0,0.0,0.0
540,44.0,30.0,30.0,0.0,0.0
541,52.0,30.0,30.0,0.0,0.0
542,71.0,4.0,60.0,0.0,0.0
543,62.0,0.0,60.0,0.0,0.0
544,44.0,26.0,30.0,0.0,0.0
545,52.0,30.0,30.0,0.0,0.0
546,40.0,30.0,30.0,0.0,0.0
547,52.0,30.0,30.0,0.0,0.0
548,68.0,4.0,60.0,0.0,0.0
549,61.0,26.0,30.0,0.0,0.0
550,40.0,0.0,30.0,0.0,0.0
551,50.0,0.0,30.0,0.0,0.0
552,59.0,30.0,30.0,0.0,0.0
553,45.0,30.0,30.0,0.0,0.0
554,49.0,30.0,30.0,0.0,0.0
555,64.0,30.0,30.0,0.0,0.0
556,61.0,0.0,30.0,0.0,0.0
557,45.0,0.0,30.0,0.0,0.0
558,62.0,0.0,30.0,0.0,0.0
559,59.0,30.0,30.0,0.0,0.0
560,49.0,0.0,30.0,0.0,0.0
561,64.0,0.0,60.0,0.0,0.0
562,44.0,26.0,30.0,0.0,0.0
563,61.0,4.0,60.0,0.0,0.0
564,52.0,30.0,30.0,0.0,0.0
565,73.0,4.0,60.0,0.0,0.0
566,64.0,0.0,60.0,0.0,0.0
567,44.0,26.0,30.0,0.0,0.0
568,52.0,30.0,30.0,0.0,0.0
569,42.0,30.0,30.0,0.0,0.0
570,50.0,30.0,30.0,0.0,0.0
571,42.0,26.0,30.0,0.0,0.0
572,61.0,0.0,60.0,0.0,0.0
573,69.0,4.0,60.0,0.0,0.0
574,50.0,30.0,30.0,0.0,0.0
575,38.0,30.0,30.0,0.0,0.0
576,50.0,30.0,30.0,0.0,0.0
577,66.0,4.0,60.0,0.0,0.0
578,59.0,26.0,30.0,0.0,0.0
579,38.0,0.0,30.0,0.0,0.0
580,49.0,0.0,30.0,0.0,0.0
581,58.0,30.0,30.0,0.0,0.0
582,44.0,30.0,30.0,0.0,0.0
583,47.0,30.0,30.0,0.0,0.0
584,65.0,4.0,60.0,0.0,0.0
585,44.0,0.0,30.0,0.0,0.0
586,62.0,26.0,30.0,0.0,0.0
587,47.0,0.0,30.0,0.0,0.0
588,61.0,30.0,30.0,0.0,0.0
589,66.0,4.0,60.0,0.0,0.0
590,42.0,0.0,30.0,0.0,0.0
591,62.0,26.0,30.0,0.0,0.0
592,59.0,0.0,30.0,0.0,0.0
593,50.0,30.0,30.0,0.0,0.0
594,68.0,0.0,60.0,0.0,0.0
595,42.0,26.0,30.0,0.0,0.0
596,71.0,4.0,60.0,0.0,0.0
597,50.0,30.0,30.0,0.0,0.0
598,41.0,30.0,30.0,0.0,0.0
599,49.0,30.0,30.0,0.0,0.0
600,71.0,4.0,60.0,0.0,0.0
601,68.0,0.0,30.0,0.0,0.0
602,41.0,26.0,30.0,0.0,0.0
603,49.0,30.0,30.0,0.0,0.0
604,66.0,0.0,30.0,0.0,0.0
605,37.0,0.0,30.0,0.0,0.0
606,70.0,4.0,60.0,0.0,0.0
607,67.0,26.0,30.0,0.0,0.0
608,64.0,30.0,30.0,0.0,0.0
609,49.0,0.0,30.0,0.0,0.0
610,79.0,4.0,60.0,0.0,0.0
611,76.0,4.0,120.0,0.0,0.0
612,37.0,26.0,30.0,0.0,0.0
613,47.0,30.0,30.0,0.0,0.0
614,78.0,11.0,120.0,0.0,0.0
615,46.0,26.0,30.0,0.0,0.0
616,42.0,17.0,30.0,0.0,0.0
617,74.0,13.0,15.0,0.0,0.0
618,47.0,2.0,30.0,0.0,0.0
619,73.0,17.0,15.0,0.0,0.0
620,71.0,0.0,30.0,0.0,0.0
621,50.0,56.0,30.0,0.0,0.0
622,54.0,4.0,60.0,0.0,0.0
623,70.0,26.0,180.0,0.0,0.0
624,78.0,30.0,30.0,0.0,0.0
625,42.0,60.0,60.0,0.0,0.0
626,73.0,26.0,30.0,0.0,0.0
627,76.0,0.0,90.0,0.0,0.0
628,35.0,25.0,90.0,0.0,0.0
629,75.0,6.0,60.0,0.0,0.0
630,71.0,0.0,60.0,0.0,0.0
631,39.0,9.0,15.0,0.0,0.0
632,42.0,107.0,15.0,0.0,0.0
633,47.0,41.0,120.0,0.0,0.0
634,55.0,0.0,120.0,0.0,0.0
635,64.0,30.0,30.0,0.0,0.0
636,59.0,11.0,120.0,0.0,0.0
637,52.0,0.0,120.0,0.0,0.0
638,66.0,30.0,30.0,0.0,0.0
639,67.0,19.0,30.0,0.0,0.0
640,69.0,30.0,30.0,0.0,0.0
641,71.0,30.0,30.0,0.0,0.0
642,67.0,30.0,30.0,0.0,0.0
643,66.0,30.0,30.0,0.0,0.0
644,64.0,30.0,30.0,0.0,0.0
645,52.0,0.0,120.0,0.0,0.0
646,63.0,30.0,30.0,0.0,0.0
647,54.0,0.0,120.0,0.0,0.0
648,57.0,11.0,120.0,0.0,0.0
649,64.0,30.0,30.0,0.0,0.0
650,66.0,19.0,30.0,0.0,0.0
651,60.0,30.0,30.0,0.0,0.0
652,59.0,30.0,30.0,0.0,0.0
653,57.0,30.0,30.0,0.0,0.0
654,55.0,30.0,30.0,0.0,0.0
655,54.0,30.0,30.0,0.0,0.0
656,52.0,30.0,30.0,0.0,0.0
657,59.0,30.0,30.0,0.0,0.0
658,64.0,0.0,60.0,0.0,0.0
659,52.0,26.0,30.0,0.0,0.0
660,67.0,4.0,60.0,0.0,0.0
661,59.0,30.0,30.0,0.0,0.0
662,51.0,30.0,30.0,0.0,0.0
663,64.0,0.0,60.0,0.0,0.0
664,67.0,19.0,60.0,0.0,0.0
665,59.0,11.0,30.0,0.0,0.0
666,51.0,7.0,30.0,0.0,0.0
667,69.0,0.0,30.0,0.0,0.0
668,66.0,23.0,30.0,0.0,0.0
669,59.0,30.0,30.0,0.0,0.0
670,52.0,30.0,30.0,0.0,0.0
671,59.0,30.0,30.0,0.0,0.0
672,67.0,4.0,60.0,0.0,0.0
673,64.0,0.0,60.0,0.0,0.0
674,52.0,26.0,30.0,0.0,0.0
675,59.0,30.0,30.0,0.0,0.0
676,47.0,30.0,30.0,0.0,0.0
677,64.0,19.0,60.0,0.0,0.0
678,67.0,0.0,60.0,0.0,0.0
679,59.0,11.0,30.0,0.0,0.0
680,66.0,13.0,30.0,0.0,0.0
681,63.0,0.0,30.0,0.0,0.0
682,47.0,17.0,30.0,0.0,0.0
683,59.0,30.0,30.0,0.0,0.0
684,64.0,30.0,30.0,0.0,0.0
685,59.0,0.0,120.0,0.0,0.0
686,52.0,0.0,120.0,0.0,0.0
687,55.0,11.0,120.0,0.0,0.0
688,66.0,30.0,30.0,0.0,0.0
689,67.0,19.0,30.0,0.0,0.0
690,69.0,30.0,30.0,0.0,0.0
691,71.0,30.0,30.0,0.0,0.0
692,67.0,30.0,30.0,0.0,0.0
693,66.0,30.0,30.0,0.0,0.0
694,64.0,30.0,30.0,0.0,0.0
695,63.0,30.0,30.0,0.0,0.0
696,57.0,0.0,120.0,0.0,0.0
697,52.0,0.0,120.0,0.0,0.0
698,54.0,11.0,120.0,0.0,0.0
699,64.0,30.0,30.0,0.0,0.0
700,66.0,19.0,30.0,0.0,0.0
701,60.0,30.0,30.0,0.0,0.0
702,59.0,30.0,30.0,0.0,0.0
703,57.0,30.0,30.0,0.0,0.0
704,55.0,30.0,30.0,0.0,0.0
705,54.0,30.0,30.0,0.0,0.0
706,52.0,30.0,30.0,0.0,0.0
707,59.0,30.0,30.0,0.0,0.0
708,52.0,26.0,30.0,0.0,0.0
709,76.0,4.0,60.0,0.0,0.0
710,67.0,0.0,60.0,0.0,0.0
711,59.0,30.0,30.0,0.0,0.0
712,67.0,27.0,60.0,0.0,0.0
713,76.0,0.0,60.0,0.0,0.0
714,51.0,30.0,30.0,0.0,0.0
715,59.0,3.0,30.0,0.0,0.0
716,78.0,0.0,60.0,0.0,0.0
717,69.0,27.0,60.0,0.0,0.0
718,51.0,30.0,30.0,0.0,0.0
719,59.0,3.0,30.0,0.0,0.0
720,52.0,30.0,30.0,0.0,0.0
721,59.0,30.0,30.0,0.0,0.0
722,76.0,0.0,60.0,0.0,0.0
723,67.0,4.0,60.0,0.0,0.0
724,52.0,26.0,30.0,0.0,0.0
725,59.0,30.0,30.0,0.0,0.0
726,76.0,27.0,60.0,0.0,0.0
727,67.0,0.0,60.0,0.0,0.0
728,47.0,30.0,30.0,0.0,0.0
729,59.0,3.0,30.0,0.0,0.0
730,66.0,27.0,60.0,0.0,0.0
731,47.0,30.0,30.0,0.0,0.0
732,75.0,0.0,60.0,0.0,0.0
733,59.0,3.0,30.0,0.0,0.0
734,52.0,30.0,30.0,0.0,0.0
735,59.0,30.0,30.0,0.0,0.0
736,67.0,30.0,30.0,0.0,0.0
737,64.0,0.0,30.0,0.0,0.0
738,52.0,0.0,30.0,0.0,0.0
739,63.0,0.0,30.0,0.0,0.0
740,59.0,0.0,30.0,0.0,0.0
741,66.0,30.0,30.0,0.0,0.0
742,67.0,4.0,60.0,0.0,0.0
743,64.0,0.0,60.0,0.0,0.0
744,50.0,26.0,30.0,0.0,0.0
745,59.0,30.0,30.0,0.0,0.0
746,76.0,0.0,60.0,0.0,0.0
747,67.0,4.0,60.0,0.0,0.0
748,50.0,26.0,30.0,0.0,0.0
749,59.0,30.0,30.0,0.0,0.0
750,49.0,30.0,30.0,0.0,0.0
751,57.0,30.0,30.0,0.0,0.0
752,67.0,4.0,60.0,0.0,0.0
753,49.0,26.0,30.0,0.0,0.0
754,64.0,0.0,60.0,0.0,0.0
755,57.0,30.0,30.0,0.0,0.0
756,45.0,30.0,30.0,0.0,0.0
757,57.0,30.0,30.0,0.0,0.0
758,66.0,26.0,30.0,0.0,0.0
759,61.0,4.0,60.0,0.0,0.0
760,45.0,0.0,30.0,0.0,0.0
761,57.0,0.0,30.0,0.0,0.0
762,64.0,30.0,30.0,0.0,0.0
763,50.0,30.0,30.0,0.0,0.0
764,57.0,30.0,30.0,0.0,0.0
765,66.0,30.0,30.0,0.0,0.0
766,62.0,0.0,30.0,0.0,0.0
767,50.0,0.0,30.0,0.0,0.0
768,64.0,0.0,30.0,0.0,0.0
769,61.0,30.0,30.0,0.0,0.0
770,57.0,0.0,30.0,0.0,0.0
771,66.0,0.0,60.0,0.0,0.0
772,48.0,26.0,30.0,0.0,0.0
773,62.0,4.0,60.0,0.0,0.0
774,57.0,30.0,30.0,0.0,0.0
775,74.0,4.0,60.0,0.0,0.0
776,66.0,0.0,60.0,0.0,0.0
777,48.0,26.0,30.0,0.0,0.0
778,57.0,30.0,30.0,0.0,0.0
779,47.0,30.0,30.0,0.0,0.0
780,55.0,30.0,30.0,0.0,0.0
781,62.0,0.0,60.0,0.0,0.0
782,47.0,26.0,30.0,0.0,0.0
783,66.0,4.0,60.0,0.0,0.0
784,55.0,30.0,30.0,0.0,0.0
785,43.0,30.0,30.0,0.0,0.0
786,55.0,30.0,30.0,0.0,0.0
787,64.0,0.0,30.0,0.0,0.0
788,59.0,4.0,60.0,0.0,0.0
789,43.0,26.0,30.0,0.0,0.0
790,62.0,0.0,30.0,0.0,0.0
791,55.0,30.0,30.0,0.0,0.0
792,49.0,30.0,30.0,0.0,0.0
793,55.0,30.0,30.0,0.0,0.0
794,64.0,30.0,30.0,0.0,0.0
795,58.0,0.0,30.0,0.0,0.0
796,49.0,0.0,30.0,0.0,0.0
797,62.0,30.0,30.0,0.0,0.0
798,59.0,0.0,30.0,0.0,0.0
799,55.0,0.0,30.0,0.0,0.0
800,61.0,4.0,60.0,0.0,0.0
801,64.0,0.0,60.0,0.0,0.0
802,47.0,26.0,30.0,0.0,0.0
803,55.0,30.0,30.0,0.0,0.0
804,73.0,4.0,60.0,0.0,0.0
805,64.0,0.0,60.0,0.0,0.0
806,47.0,26.0,30.0,0.0,0.0
807,55.0,30.0,30.0,0.0,0.0
808,46.0,30.0,30.0,0.0,0.0
809,54.0,30.0,30.0,0.0,0.0
810,46.0,26.0,30.0,0.0,0.0
811,64.0,4.0,60.0,0.0,0.0
812,61.0,0.0,60.0,0.0,0.0
813,54.0,30.0,30.0,0.0,0.0
814,42.0,30.0,30.0,0.0,0.0
815,54.0,30.0,30.0,0.0,0.0
816,62.0,26.0,30.0,0.0,0.0
817,42.0,0.0,30.0,0.0,0.0
818,58.0,4.0,60.0,0.0,0.0
819,61.0,30.0,30.0,0.0,0.0
820,54.0,0.0,30.0,0.0,0.0
821,59.0,11.0,120.0,0.0,0.0
822,62.0,0.0,120.0,0.0,0.0
823,47.0,30.0,30.0,0.0,0.0
824,50.0,30.0,30.0,0.0,0.0
825,52.0,19.0,30.0,0.0,0.0
826,54.0,56.0,30.0,0.0,0.0
827,55.0,4.0,60.0,0.0,0.0
828,66.0,30.0,30.0,0.0,0.0
829,64.0,26.0,30.0,0.0,0.0
830,47.0,4.0,60.0,0.0,0.0
831,62.0,30.0,30.0,0.0,0.0
832,61.0,26.0,30.0,0.0,0.0
833,46.0,4.0,60.0,0.0,0.0
834,59.0,30.0,30.0,0.0,0.0
835,61.0,26.0,30.0,0.0,0.0
836,55.0,4.0,60.0,0.0,0.0
837,64.0,30.0,30.0,0.0,0.0
838,63.0,26.0,30.0,0.0,0.0
839,54.0,4.0,60.0,0.0,0.0
840,61.0,30.0,30.0,0.0,0.0
841,63.0,26.0,30.0,0.0,0.0
842,45.0,4.0,60.0,0.0,0.0
843,66.0,30.0,30.0,0.0,0.0
844,66.0,4.0,60.0,0.0,0.0
845,44.0,26.0,30.0,0.0,0.0
846,47.0,30.0,30.0,0.0,0.0
847,64.0,4.0,60.0,0.0,0.0
848,49.0,26.0,30.0,0.0,0.0
849,51.0,56.0,30.0,0.0,0.0
850,52.0,4.0,60.0,0.0,0.0
851,62.0,30.0,30.0,0.0,0.0
852,60.0,26.0,30.0,0.0,0.0
853,43.0,4.0,60.0,0.0,0.0
854,59.0,30.0,30.0,0.0,0.0
855,42.0,4.0,60.0,0.0,0.0
856,57.0,26.0,30.0,0.0,0.0
857,56.0,30.0,30.0,0.0,0.0
858,57.0,26.0,30.0,0.0,0.0
859,51.0,4.0,60.0,0.0,0.0
860,60.0,30.0,30.0,0.0,0.0
861,59.0,26.0,30.0,0.0,0.0
862,50.0,4.0,60.0,0.0,0.0
863,57.0,30.0,30.0,0.0,0.0
864,41.0,4.0,60.0,0.0,0.0
865,59.0,26.0,30.0,0.0,0.0
866,62.0,30.0,30.0,0.0,0.0
867,62.0,4.0,60.0,0.0,0.0
868,40.0,26.0,30.0,0.0,0.0
869,44.0,30.0,30.0,0.0,0.0
870,60.0,4.0,60.0,0.0,0.0
871,45.0,26.0,30.0,0.0,0.0
872,47.0,56.0,30.0,0.0,0.0
873,48.0,4.0,60.0,0.0,0.0
874,59.0,30.0,30.0,0.0,0.0
875,57.0,26.0,30.0,0.0,0.0
876,40.0,4.0,60.0,0.0,0.0
877,55.0,30.0,30.0,0.0,0.0
878,54.0,26.0,30.0,0.0,0.0
879,39.0,4.0,60.0,0.0,0.0
880,52.0,30.0,30.0,0.0,0.0
881,54.0,26.0,30.0,0.0,0.0
882,48.0,4.0,60.0,0.0,0.0
883,57.0,30.0,30.0,0.0,0.0
884,56.0,26.0,30.0,0.0,0.0
885,47.0,4.0,60.0,0.0,0.0
886,54.0,30.0,30.0,0.0,0.0
887,56.0,26.0,30.0,0.0,0.0
888,38.0,4.0,60.0,0.0,0.0
889,59.0,30.0,30.0,0.0,0.0
890,52.0,26.0,30.0,0.0,0.0
891,37.0,4.0,60.0,0.0,0.0
892,51.0,30.0,30.0,0.0,0.0
893,46.0,4.0,60.0,0.0,0.0
894,52.0,26.0,30.0,0.0,0.0
895,55.0,30.0,30.0,0.0,0.0
896,54.0,26.0,30.0,0.0,0.0
897,45.0,4.0,60.0,0.0,0.0
898,52.0,30.0,30.0,0.0,0.0
899,54.0,26.0,30.0,0.0,0.0
900,36.0,4.0,60.0,0.0,0.0
901,57.0,30.0,30.0,0.0,0.0
902,51.0,26.0,30.0,0.0,0.0
903,35.0,4.0,60.0,0.0,0.0
904,60.0,30.0,30.0,0.0,0.0
905,59.0,26.0,30.0,0.0,0.0
906,37.0,4.0,60.0,0.0,0.0
907,57.0,30.0,30.0,0.0,0.0
908,66.0,26.0,30.0,0.0,0.0
909,39.0,4.0,60.0,0.0,0.0
910,57.0,30.0,30.0,0.0,0.0
911,66.0,26.0,30.0,0.0,0.0
912,35.0,4.0,60.0,0.0,0.0
913,57.0,30.0,30.0,0.0,0.0
914,56.0,26.0,30.0,0.0,0.0
915,40.0,4.0,60.0,0.0,0.0
916,65.0,30.0,30.0,0.0,0.0
917,42.0,4.0,60.0,0.0,0.0
918,64.0,26.0,30.0,0.0,0.0
919,62.0,30.0,30.0,0.0,0.0
920,71.0,26.0,30.0,0.0,0.0
921,44.0,4.0,60.0,0.0,0.0
922,62.0,30.0,30.0,0.0,0.0
923,71.0,26.0,30.0,0.0,0.0
924,40.0,4.0,60.0,0.0,0.0
925,62.0,30.0,30.0,0.0,0.0
926,45.0,4.0,60.0,0.0,0.0
927,61.0,26.0,30.0,0.0,0.0
928,58.0,30.0,30.0,0.0,0.0
929,57.0,26.0,30.0,0.0,0.0
930,47.0,4.0,60.0,0.0,0.0
931,55.0,30.0,30.0,0.0,0.0
932,64.0,26.0,30.0,0.0,0.0
933,49.0,4.0,60.0,0.0,0.0
934,55.0,30.0,30.0,0.0,0.0
935,45.0,4.0,60.0,0.0,0.0
936,64.0,26.0,30.0,0.0,0.0
937,55.0,30.0,30.0,0.0,0.0
938,54.0,26.0,30.0,0.0,0.0
939,50.0,4.0,60.0,0.0,0.0
940,63.0,30.0,30.0,0.0,0.0
941,62.0,26.0,30.0,0.0,0.0
942,52.0,4.0,60.0,0.0,0.0
943,60.0,30.0,30.0,0.0,0.0
944,54.0,4.0,60.0,0.0,0.0
945,69.0,26.0,30.0,0.0,0.0
946,60.0,30.0,30.0,0.0,0.0
947,69.0,26.0,30.0,0.0,0.0
948,50.0,4.0,60.0,0.0,0.0
949,60.0,30.0,30.0,0.0,0.0
950,59.0,26.0,30.0,0.0,0.0
951,55.0,4.0,60.0,0.0,0.0
952,62.0,30.0,30.0,0.0,0.0
953,54.0,4.0,60.0,0.0,0.0
954,64.0,26.0,30.0,0.0,0.0
955,66.0,30.0,30.0,0.0,0.0
956,67.0,26.0,30.0,0.0,0.0
957,52.0,4.0,60.0,0.0,0.0
958,62.0,30.0,30.0,0.0,0.0
959,61.0,26.0,30.0,0.0,0.0
960,50.0,4.0,60.0,0.0,0.0
961,59.0,30.0,30.0,0.0,0.0
962,58.0,26.0,30.0,0.0,0.0
963,49.0,4.0,60.0,0.0,0.0
964,67.0,30.0,30.0,0.0,0.0
965,66.0,26.0,30.0,0.0,0.0
966,52.0,4.0,60.0,0.0,0.0
967,64.0,30.0,30.0,0.0,0.0
968,73.0,26.0,30.0,0.0,0.0
969,46.0,4.0,60.0,0.0,0.0
970,64.0,30.0,30.0,0.0,0.0
971,73.0,26.0,30.0,0.0,0.0
972,42.0,4.0,60.0,0.0,0.0
973,64.0,30.0,30.0,0.0,0.0
974,62.0,26.0,30.0,0.0,0.0
975,47.0,4.0,60.0,0.0,0.0
976,66.0,30.0,30.0,0.0,0.0
977,71.0,26.0,30.0,0.0,0.0
978,45.0,4.0,60.0,0.0,0.0
979,73.0,30.0,30.0,0.0,0.0
980,74.0,26.0,30.0,0.0,0.0
981,44.0,4.0,60.0,0.0,0.0
982,71.0,30.0,30.0,0.0,0.0
983,68.0,26.0,30.0,0.0,0.0
984,42.0,4.0,60.0,0.0,0.0
985,71.0,30.0,30.0,0.0,0.0
986,65.0,26.0,30.0,0.0,0.0
987,44.0,4.0,60.0,0.0,0.0
988,74.0,30.0,30.0,0.0,0.0
989,73.0,26.0,30.0,0.0,0.0
990,47.0,4.0,60.0,0.0,0.0
991,71.0,30.0,30.0,0.0,0.0
992,80.0,26.0,30.0,0.0,0.0
993,41.0,4.0,60.0,0.0,0.0
994,71.0,30.0,30.0,0.0,0.0
995,80.0,26.0,30.0,0.0,0.0
996,37.0,4.0,60.0,0.0,0.0
997,71.0,30.0,30.0,0.0,0.0
998,70.0,26.0,30.0,0.0,0.0
999,42.0,4.0,60.0,0.0,0.0
1000,71.0,30.0,30.0,0.0,0.0
1001,73.0,30.0,30.0,0.0,0.0
1002,78.0,30.0,30.0,0.0,0.0
1003,66.0,30.0,30.0,0.0,0.0
1004,64.0,30.0,30.0,0.0,0.0
1005,62.0,30.0,30.0,0.0,0.0
1006,61.0,30.0,30.0,0.0,0.0
1007,59.0,30.0,30.0,0.0,0.0
1008,70.0,0.0,30.0,0.0,0.0
1009,61.0,30.0,30.0,0.0,0.0
1010,71.0,30.0,30.0,0.0,0.0
1011,62.0,0.0,30.0,0.0,0.0
1012,73.0,17.0,30.0,0.0,0.0
1013,64.0,0.0,30.0,0.0,0.0
1014,74.0,13.0,15.0,0.0,0.0
1015,66.0,2.0,30.0,0.0,0.0
1016,73.0,28.0,15.0,0.0,0.0
1017,71.0,0.0,30.0,0.0,0.0
1018,62.0,30.0,30.0,0.0,0.0
1019,76.0,0.0,60.0,0.0,0.0
1020,79.0,4.0,60.0,0.0,0.0
1021,61.0,26.0,30.0,0.0,0.0
1022,59.0,30.0,30.0,0.0,0.0
1023,79.0,4.0,60.0,0.0,0.0
1024,76.0,0.0,60.0,0.0,0.0
1025,58.0,26.0,30.0,0.0,0.0
1026,59.0,30.0,30.0,0.0,0.0
1027,78.0,0.0,60.0,0.0,0.0
1028,70.0,4.0,60.0,0.0,0.0
1029,61.0,26.0,30.0,0.0,0.0
1030,55.0,30.0,30.0,0.0,0.0
1031,54.0,30.0,30.0,0.0,0.0
1032,52.0,30.0,30.0,0.0,0.0
1033,50.0,30.0,30.0,0.0,0.0
1034,49.0,30.0,30.0,0.0,0.0
1035,47.0,30.0,30.0,0.0,0.0
1036,54.0,30.0,30.0,0.0,0.0
1037,47.0,26.0,30.0,0.0,0.0
1038,74.0,4.0,60.0,0.0,0.0
1039,71.0,0.0,60.0,0.0,0.0
1040,54.0,30.0,30.0,0.0,0.0
1041,46.0,30.0,30.0,0.0,0.0
1042,71.0,27.0,60.0,0.0,0.0
1043,74.0,0.0,60.0,0.0,0.0
1044,54.0,3.0,30.0,0.0,0.0
1045,73.0,27.0,60.0,0.0,0.0
1046,76.0,0.0,60.0,0.0,0.0
1047,46.0,30.0,30.0,0.0,0.0
1048,54.0,3.0,30.0,0.0,0.0
1049,47.0,30.0,30.0,0.0,0.0
1050,54.0,30.0,30.0,0.0,0.0
1051,74.0,4.0,60.0,0.0,0.0
1052,71.0,0.0,60.0,0.0,0.0
1053,47.0,26.0,30.0,0.0,0.0
1054,54.0,30.0,30.0,0.0,0.0
1055,71.0,0.0,60.0,0.0,0.0
1056,74.0,27.0,60.0,0.0,0.0
1057,42.0,30.0,30.0,0.0,0.0
1058,52.0,3.0,30.0,0.0,0.0
1059,70.0,0.0,60.0,0.0,0.0
1060,73.0,27.0,60.0,0.0,0.0
1061,42.0,30.0,30.0,0.0,0.0
1062,52.0,3.0,30.0,0.0,0.0
1063,43.0,30.0,30.0,0.0,0.0
1064,50.0,30.0,30.0,0.0,0.0
1065,43.0,26.0,30.0,0.0,0.0
1066,71.0,4.0,60.0,0.0,0.0
1067,50.0,19.0,30.0,0.0,0.0
1068,73.0,10.0,15.0,0.0,0.0
1069,42.0,17.0,30.0,0.0,0.0
1070,71.0,1.0,15.0,0.0,0.0
1071,73.0,2.0,20.0,0.0,0.0
1072,50.0,1.0,30.0,0.0,0.0
1073,71.0,11.0,15.0,0.0,0.0
1074,70.0,29.0,15.0,0.0,0.0
1075,71.0,4.0,60.0,0.0,0.0
1076,42.0,26.0,30.0,0.0,0.0
1077,50.0,30.0,30.0,0.0,0.0
1078,43.0,30.0,30.0,0.0,0.0
1079,50.0,30.0,30.0,0.0,0.0
1080,71.0,4.0,60.0,0.0,0.0
1081,43.0,26.0,30.0,0.0,0.0
1082,50.0,7.0,30.0,0.0,0.0
1083,39.0,11.0,30.0,0.0,0.0
1084,71.0,10.0,15.0,0.0,0.0
1085,69.0,8.0,15.0,0.0,0.0
1086,71.0,5.0,15.0,0.0,0.0
1087,69.0,16.0,15.0,0.0,0.0
1088,48.0,30.0,30.0,0.0,0.0
1089,67.0,3.0,20.0,0.0,0.0
1090,69.0,0.0,30.0,0.0,0.0
1091,39.0,30.0,30.0,0.0,0.0
1092,48.0,0.0,30.0,0.0,0.0
1093,78.0,30.0,30.0,0.0,0.0
1094,67.0,4.0,60.0,0.0,0.0
1095,40.0,26.0,30.0,0.0,0.0
1096,47.0,30.0,30.0,0.0,0.0
1097,59.0,4.0,60.0,0.0,0.0
1098,40.0,26.0,30.0,0.0,0.0
1099,47.0,19.0,30.0,0.0,0.0
1100,39.0,9.0,30.0,0.0,0.0
1101,60.0,10.0,15.0,0.0,0.0
1102,69.0,4.0,60.0,0.0,0.0
1103,59.0,1.0,15.0,0.0,0.0
1104,60.0,10.0,15.0,0.0,0.0
1105,47.0,6.0,30.0,0.0,0.0
1106,59.0,7.0,15.0,0.0,0.0
1107,58.0,24.0,30.0,0.0,0.0
1108,59.0,4.0,60.0,0.0,0.0
1109,39.0,26.0,30.0,0.0,0.0
1110,47.0,30.0,30.0,0.0,0.0
1111,40.0,26.0,30.0,0.0,0.0
1112,67.0,4.0,60.0,0.0,0.0
1113,47.0,17.0,30.0,0.0,0.0
1114,60.0,13.0,15.0,0.0,0.0
1115,40.0,2.0,30.0,0.0,0.0
1116,59.0,28.0,15.0,0.0,0.0
1117,58.0,30.0,30.0,0.0,0.0
1118,47.0,0.0,30.0,0.0,0.0
1119,59.0,0.0,60.0,0.0,0.0
1120,66.0,4.0,60.0,0.0,0.0
1121,38.0,26.0,30.0,0.0,0.0
1122,47.0,30.0,30.0,0.0,0.0
1123,38.0,26.0,30.0,0.0,0.0
1124,71.0,4.0,60.0,0.0,0.0
1125,47.0,30.0,30.0,0.0,0.0
1126,64.0,0.0,270.0,0.0,0.0
1127,37.0,30.0,30.0,0.0,0.0
1128,47.0,30.0,30.0,0.0,0.0
1129,73.0,30.0,30.0,0.0,0.0
1130,46.0,0.0,30.0,0.0,0.0
1131,44.0,30.0,30.0,0.0,0.0
1132,71.0,0.0,30.0,0.0,0.0
1133,73.0,4.0,60.0,0.0,0.0
1134,46.0,26.0,30.0,0.0,0.0
1135,52.0,30.0,30.0,0.0,0.0
1136,76.0,4.0,60.0,0.0,0.0
1137,49.0,26.0,30.0,0.0,0.0
1138,52.0,30.0,30.0,0.0,0.0
1139,70.0,4.0,60.0,0.0,0.0
1140,42.0,26.0,30.0,0.0,0.0
1141,66.0,0.0,30.0,0.0,0.0
1142,54.0,30.0,30.0,0.0,0.0
1143,44.0,0.0,30.0,0.0,0.0
1144,73.0,4.0,60.0,0.0,0.0
1145,64.0,26.0,30.0,0.0,0.0
1146,62.0,30.0,30.0,0.0,0.0
1147,54.0,0.0,30.0,0.0,0.0
1148,66.0,4.0,180.0,0.0,0.0
1149,61.0,30.0,30.0,0.0,0.0
1150,46.0,0.0,30.0,0.0,0.0
1151,54.0,0.0,30.0,0.0,0.0
1152,59.0,30.0,30.0,0.0,0.0
1153,61.0,30.0,30.0,0.0,0.0
1154,42.0,0.0,30.0,0.0,0.0
1155,58.0,30.0,30.0,0.0,0.0
1156,52.0,0.0,30.0,0.0,0.0
1157,59.0,0.0,60.0,0.0,0.0
1158,47.0,26.0,30.0,0.0,0.0
1159,50.0,30.0,30.0,0.0,0.0
1160,47.0,0.0,30.0,0.0,0.0
1161,62.0,30.0,30.0,0.0,0.0
1162,66.0,0.0,30.0,0.0,0.0
1163,50.0,0.0,30.0,0.0,0.0
1164,64.0,0.0,30.0,0.0,0.0
1165,61.0,30.0,30.0,0.0,0.0
1166,45.0,26.0,30.0,0.0,0.0
1167,66.0,4.0,60.0,0.0,0.0
1168,62.0,0.0,60.0,0.0,0.0
1169,54.0,30.0,30.0,0.0,0.0
1170,74.0,4.0,60.0,0.0,0.0
1171,66.0,0.0,60.0,0.0,0.0
1172,45.0,26.0,30.0,0.0,0.0
1173,54.0,30.0,30.0,0.0,0.0
1174,44.0,30.0,30.0,0.0,0.0
1175,52.0,30.0,30.0,0.0,0.0
1176,71.0,4.0,60.0,0.0,0.0
1177,62.0,0.0,60.0,0.0,0.0
1178,44.0,26.0,30.0,0.0,0.0
1179,52.0,30.0,30.0,0.0,0.0
1180,40.0,30.0,30.0,0.0,0.0
1181,52.0,30.0,30.0,0.0,0.0
1182,68.0,4.0,60.0,0.0,0.0
1183,61.0,0.0,30.0,0.0,0.0
1184,40.0,26.0,30.0,0.0,0.0
1185,59.0,0.0,30.0,0.0,0.0
1186,50.0,30.0,30.0,0.0,0.0
1187,45.0,30.0,30.0,0.0,0.0
1188,49.0,30.0,30.0,0.0,0.0
1189,64.0,30.0,30.0,0.0,0.0
1190,61.0,0.0,30.0,0.0,0.0
1191,45.0,0.0,30.0,0.0,0.0
1192,62.0,0.0,30.0,0.0,0.0
1193,59.0,0.0,30.0,0.0,0.0
1194,49.0,30.0,30.0,0.0,0.0
1195,64.0,4.0,60.0,0.0,0.0
1196,61.0,0.0,60.0,0.0,0.0
1197,44.0,26.0,30.0,0.0,0.0
1198,52.0,30.0,30.0,0.0,0.0
1199,64.0,0.0,60.0,0.0,0.0
1200,44.0,26.0,30.0,0.0,0.0
1201,73.0,4.0,60.0,0.0,0.0
1202,52.0,30.0,30.0,0.0,0.0
1203,42.0,30.0,30.0,0.0,0.0
1204,50.0,30.0,30.0,0.0,0.0
1205,69.0,4.0,60.0,0.0,0.0
1206,61.0,0.0,60.0,0.0,0.0
1207,42.0,26.0,30.0,0.0,0.0
1208,50.0,30.0,30.0,0.0,0.0
1209,38.0,30.0,30.0,0.0,0.0
1210,50.0,30.0,30.0,0.0,0.0
1211,59.0,26.0,30.0,0.0,0.0
1212,38.0,0.0,30.0,0.0,0.0
1213,66.0,4.0,60.0,0.0,0.0
1214,58.0,0.0,30.0,0.0,0.0
1215,49.0,30.0,30.0,0.0,0.0
1216,44.0,30.0,30.0,0.0,0.0
1217,47.0,30.0,30.0,0.0,0.0
1218,65.0,4.0,60.0,0.0,0.0
1219,62.0,26.0,30.0,0.0,0.0
1220,44.0,0.0,30.0,0.0,0.0
1221,61.0,30.0,30.0,0.0,0.0
1222,47.0,0.0,30.0,0.0,0.0
1223,42.0,0.0,30.0,0.0,0.0
1224,62.0,26.0,30.0,0.0,0.0
1225,66.0,4.0,60.0,0.0,0.0
1226,50.0,30.0,30.0,0.0,0.0
1227,59.0,0.0,30.0,0.0,0.0
1228,71.0,4.0,60.0,0.0,0.0
1229,68.0,0.0,60.0,0.0,0.0
1230,42.0,26.0,30.0,0.0,0.0
1231,50.0,30.0,30.0,0.0,0.0
1232,41.0,30.0,30.0,0.0,0.0
1233,49.0,30.0,30.0,0.0,0.0
1234,41.0,0.0,30.0,0.0,0.0
1235,71.0,4.0,60.0,0.0,0.0
1236,68.0,26.0,30.0,0.0,0.0
1237,66.0,30.0,30.0,0.0,0.0
1238,49.0,0.0,30.0,0.0,0.0
1239,67.0,26.0,30.0,0.0,0.0
1240,37.0,0.0,30.0,0.0,0.0
1241,70.0,4.0,60.0,0.0,0.0
1242,64.0,30.0,30.0,0.0,0.0
1243,49.0,0.0,30.0,0.0,0.0
1244,79.0,4.0,60.0,0.0,0.0
1245,37.0,26.0,30.0,0.0,0.0
1246,76.0,4.0,120.0,0.0,0.0
1247,47.0,30.0,30.0,0.0,0.0
1248,46.0,26.0,30.0,0.0,0.0
1249,78.0,11.0,120.0,0.0,0.0
1250,42.0,17.0,30.0,0.0,0.0
1251,74.0,13.0,15.0,0.0,0.0
1252,47.0,2.0,30.0,0.0,0.0
1253,73.0,17.0,15.0,0.0,0.0
1254,71.0,56.0,30.0,0.0,0.0
1255,50.0,0.0,30.0,0.0,0.0
1256,70.0,0.0,180.0,0.0,0.0
1257,54.0,4.0,60.0,0.0,0.0
1258,78.0,30.0,30.0,0.0,0.0
1259,42.0,60.0,60.0,0.0,0.0
1260,73.0,26.0,30.0,0.0,0.0
1261,76.0,26.0,90.0,0.0,0.0
1262,35.0,25.0,90.0,0.0,0.0
1263,75.0,6.0,60.0,0.0,0.0
1264,71.0,0.0,60.0,0.0,0.0
1265,39.0,9.0,15.0,0.0,0.0
1266,42.0,107.0,15.0,0.0,0.0
1267,47.0,41.0,120.0,0.0,0.0
1268,71.0,30.0,30.0,0.0,0.0
1269,73.0,30.0,30.0,0.0,0.0
1270,75.0,30.0,30.0,0.0,0.0
1271,47.0,0.0,30.0,0.0,0.0
1272,49.0,0.0,30.0,0.0,0.0
1273,76.0,30.0,30.0,0.0,0.0
1274,78.0,26.0,30.0,0.0,0.0
1275,51.0,4.0,60.0,0.0,0.0
1276,72.0,30.0,30.0,0.0,0.0
1277,71.0,26.0,30.0,0.0,0.0
1278,54.0,4.0,60.0,0.0,0.0
1279,69.0,30.0,30.0,0.0,0.0
1280,68.0,26.0,30.0,0.0,0.0
1281,59.0,4.0,60.0,0.0,0.0
1282,69.0,30.0,30.0,0.0,0.0
1283,71.0,26.0,30.0,0.0,0.0
1284,57.0,4.0,60.0,0.0,0.0
1285,65.0,30.0,30.0,0.0,0.0
1286,64.0,26.0,30.0,0.0,0.0
1287,56.0,4.0,60.0,0.0,0.0
1288,62.0,30.0,30.0,0.0,0.0
1289,60.0,26.0,30.0,0.0,0.0
1290,52.0,4.0,60.0,0.0,0.0
1291,59.0,30.0,30.0,0.0,0.0
1292,60.0,26.0,30.0,0.0,0.0
1293,57.0,4.0,60.0,0.0,0.0
1294,69.0,30.0,30.0,0.0,0.0
1295,45.0,4.0,60.0,0.0,0.0
1296,60.0,26.0,30.0,0.0,0.0
1297,69.0,30.0,30.0,0.0,0.0
1298,61.0,26.0,30.0,0.0,0.0
1299,43.0,4.0,60.0,0.0,0.0
1300,70.0,30.0,30.0,0.0,0.0
1301,61.0,26.0,30.0,0.0,0.0
1302,55.0,4.0,60.0,0.0,0.0
1303,70.0,30.0,30.0,0.0,0.0
1304,53.0,4.0,60.0,0.0,0.0
1305,69.0,26.0,30.0,0.0,0.0
1306,65.0,30.0,30.0,0.0,0.0
1307,64.0,26.0,30.0,0.0,0.0
1308,41.0,4.0,60.0,0.0,0.0
1309,62.0,30.0,30.0,0.0,0.0
1310,61.0,26.0,30.0,0.0,0.0
1311,40.0,4.0,60.0,0.0,0.0
1312,70.0,30.0,30.0,0.0,0.0
1313,69.0,26.0,30.0,0.0,0.0
1314,52.0,4.0,60.0,0.0,0.0
1315,67.0,30.0,30.0,0.0,0.0
1316,66.0,26.0,30.0,0.0,0.0
1317,50.0,4.0,60.0,0.0,0.0
1318,67.0,30.0,30.0,0.0,0.0
1319,69.0,26.0,30.0,0.0,0.0
1320,38.0,4.0,60.0,0.0,0.0
1321,71.0,30.0,30.0,0.0,0.0
1322,72.0,26.0,30.0,0.0,0.0
1323,45.0,4.0,60.0,0.0,0.0
1324,67.0,30.0,30.0,0.0,0.0
1325,65.0,26.0,30.0,0.0,0.0
1326,48.0,4.0,60.0,0.0,0.0
1327,64.0,30.0,30.0,0.0,0.0
1328,63.0,26.0,30.0,0.0,0.0
1329,42.0,4.0,60.0,0.0,0.0
1330,64.0,30.0,30.0,0.0,0.0
1331,66.0,26.0,30.0,0.0,0.0
1332,45.0,4.0,60.0,0.0,0.0
1333,60.0,30.0,30.0,0.0,0.0
1334,59.0,26.0,30.0,0.0,0.0
1335,39.0,4.0,60.0,0.0,0.0
1336,57.0,30.0,30.0,0.0,0.0
1337,55.0,26.0,30.0,0.0,0.0
1338,47.0,4.0,60.0,0.0,0.0
1339,54.0,30.0,30.0,0.0,0.0
1340,55.0,26.0,30.0,0.0,0.0
1341,52.0,4.0,60.0,0.0,0.0
1342,64.0,30.0,30.0,0.0,0.0
1343,55.0,26.0,30.0,0.0,0.0
1344,40.0,4.0,60.0,0.0,0.0
1345,64.0,30.0,30.0,0.0,0.0
1346,56.0,26.0,30.0,0.0,0.0
1347,38.0,4.0,60.0,0.0,0.0
1348,65.0,30.0,30.0,0.0,0.0
1349,56.0,26.0,30.0,0.0,0.0
1350,50.0,4.0,60.0,0.0,0.0
1351,65.0,30.0,30.0,0.0,0.0
1352,48.0,4.0,60.0,0.0,0.0
1353,64.0,26.0,30.0,0.0,0.0
1354,60.0,30.0,30.0,0.0,0.0
1355,59.0,26.0,30.0,0.0,0.0
1356,36.0,4.0,60.0,0.0,0.0
1357,57.0,30.0,30.0,0.0,0.0
1358,56.0,26.0,30.0,0.0,0.0
1359,35.0,4.0,60.0,0.0,0.0
1360,65.0,30.0,30.0,0.0,0.0
1361,64.0,26.0,30.0,0.0,0.0
1362,47.0,4.0,60.0,0.0,0.0
1363,62.0,30.0,30.0,0.0,0.0
1364,61.0,26.0,30.0,0.0,0.0
1365,45.0,4.0,60.0,0.0,0.0
1366,62.0,30.0,30.0,0.0,0.0
1367,64.0,26.0,30.0,0.0,0.0
1368,33.0,4.0,60.0,0.0,0.0
1369,66.0,30.0,30.0,0.0,0.0
1370,67.0,30.0,30.0,0.0,0.0
1371,70.0,0.0,30.0,0.0,0.0
1372,57.0,30.0,30.0,0.0,0.0
1373,59.0,0.0,30.0,0.0,0.0
1374,69.0,30.0,30.0,0.0,0.0
1375,61.0,0.0,30.0,0.0,0.0
1376,67.0,30.0,30.0,0.0,0.0
1377,66.0,26.0,30.0,0.0,0.0
1378,62.0,4.0,60.0,0.0,0.0
1379,67.0,30.0,30.0,0.0,0.0
1380,69.0,26.0,30.0,0.0,0.0
1381,50.0,4.0,60.0,0.0,0.0
1382,63.0,30.0,30.0,0.0,0.0
1383,62.0,30.0,30.0,0.0,0.0
1384,50.0,0.0,30.0,0.0,0.0
1385,60.0,30.0,30.0,0.0,0.0
1386,59.0,30.0,30.0,0.0,0.0
1387,52.0,0.0,30.0,0.0,0.0
1388,57.0,30.0,30.0,0.0,0.0
1389,54.0,0.0,30.0,0.0,0.0
1390,59.0,26.0,30.0,0.0,0.0
1391,55.0,4.0,60.0,0.0,0.0
1392,60.0,30.0,30.0,0.0,0.0
1393,62.0,26.0,30.0,0.0,0.0
1394,43.0,4.0,60.0,0.0,0.0
1395,64.0,30.0,30.0,0.0,0.0
1396,65.0,30.0,30.0,0.0,0.0
1397,69.0,30.0,30.0,0.0,0.0
1398,43.0,0.0,30.0,0.0,0.0
1399,67.0,30.0,30.0,0.0,0.0
1400,45.0,0.0,30.0,0.0,0.0
1401,65.0,0.0,30.0,0.0,0.0
1402,47.0,30.0,30.0,0.0,0.0
1403,48.0,4.0,60.0,0.0,0.0
1404,64.0,26.0,30.0,0.0,0.0
1405,65.0,30.0,30.0,0.0,0.0
1406,67.0,26.0,30.0,0.0,0.0
1407,36.0,4.0,60.0,0.0,0.0
1408,62.0,30.0,30.0,0.0,0.0
1409,60.0,30.0,30.0,0.0,0.0
1410,58.0,0.0,30.0,0.0,0.0
1411,36.0,30.0,30.0,0.0,0.0
1412,38.0,30.0,30.0,0.0,0.0
1413,57.0,0.0,30.0,0.0,0.0
1414,55.0,0.0,30.0,0.0,0.0
1415,40.0,30.0,30.0,0.0,0.0
1416,41.0,26.0,30.0,0.0,0.0
1417,57.0,4.0,60.0,0.0,0.0
1418,48.0,30.0,30.0,0.0,0.0
1419,65.0,4.0,60.0,0.0,0.0
1420,57.0,0.0,60.0,0.0,0.0
1421,41.0,26.0,30.0,0.0,0.0
1422,48.0,30.0,30.0,0.0,0.0
1423,67.0,11.0,120.0,0.0,0.0
1424,58.0,0.0,120.0,0.0,0.0
1425,40.0,30.0,30.0,0.0,0.0
1426,48.0,30.0,30.0,0.0,0.0
1427,40.0,19.0,30.0,0.0,0.0
1428,48.0,30.0,30.0,0.0,0.0
1429,41.0,30.0,30.0,0.0,0.0
1430,48.0,30.0,30.0,0.0,0.0
1431,65.0,4.0,60.0,0.0,0.0
1432,57.0,0.0,60.0,0.0,0.0
1433,41.0,26.0,30.0,0.0,0.0
1434,48.0,30.0,30.0,0.0,0.0
1435,64.0,11.0,120.0,0.0,0.0
1436,37.0,30.0,30.0,0.0,0.0
1437,55.0,0.0,120.0,0.0,0.0
1438,46.0,30.0,30.0,0.0,0.0
1439,37.0,19.0,30.0,0.0,0.0
1440,46.0,30.0,30.0,0.0,0.0
1441,38.0,30.0,30.0,0.0,0.0
1442,45.0,30.0,30.0,0.0,0.0
1443,38.0,0.0,30.0,0.0,0.0
1444,62.0,30.0,30.0,0.0,0.0
1445,53.0,0.0,30.0,0.0,0.0
1446,55.0,0.0,30.0,0.0,0.0
1447,45.0,0.0,30.0,0.0,0.0
1448,64.0,30.0,30.0,0.0,0.0
1449,57.0,0.0,60.0,0.0,0.0
1450,36.0,26.0,30.0,0.0,0.0
1451,65.0,4.0,60.0,0.0,0.0
1452,45.0,30.0,30.0,0.0,0.0
1453,64.0,0.0,60.0,0.0,0.0
1454,69.0,4.0,60.0,0.0,0.0
1455,36.0,26.0,30.0,0.0,0.0
1456,45.0,30.0,30.0,0.0,0.0
1457,35.0,30.0,30.0,0.0,0.0
1458,39.0,30.0,30.0,0.0,0.0
1459,72.0,4.0,60.0,0.0,0.0
1460,63.0,0.0,60.0,0.0,0.0
1461,42.0,26.0,30.0,0.0,0.0
1462,45.0,30.0,30.0,0.0,0.0
1463,71.0,0.0,60.0,0.0,0.0
1464,64.0,4.0,60.0,0.0,0.0
1465,43.0,26.0,30.0,0.0,0.0
1466,42.0,30.0,30.0,0.0,0.0
1467,69.0,4.0,60.0,0.0,0.0
1468,66.0,0.0,60.0,0.0,0.0
1469,40.0,26.0,30.0,0.0,0.0
1470,39.0,30.0,30.0,0.0,0.0
1471,40.0,30.0,30.0,0.0,0.0
1472,47.0,30.0,30.0,0.0,0.0
1473,40.0,0.0,30.0,0.0,0.0
1474,67.0,0.0,30.0,0.0,0.0
1475,64.0,30.0,30.0,0.0,0.0
1476,66.0,30.0,30.0,0.0,0.0
1477,63.0,0.0,30.0,0.0,0.0
1478,47.0,0.0,30.0,0.0,0.0
1479,67.0,4.0,60.0,0.0,0.0
1480,64.0,0.0,60.0,0.0,0.0
1481,38.0,26.0,30.0,0.0,0.0
1482,47.0,30.0,30.0,0.0,0.0
1483,38.0,26.0,30.0,0.0,0.0
1484,71.0,0.0,60.0,0.0,0.0
1485,66.0,4.0,60.0,0.0,0.0
1486,47.0,30.0,30.0,0.0,0.0
1487,37.0,30.0,30.0,0.0,0.0
1488,41.0,30.0,30.0,0.0,0.0
1489,65.0,0.0,60.0,0.0,0.0
1490,44.0,26.0,30.0,0.0,0.0
1491,74.0,4.0,60.0,0.0,0.0
1492,47.0,30.0,30.0,0.0,0.0
1493,66.0,4.0,60.0,0.0,0.0
1494,73.0,0.0,60.0,0.0,0.0
1495,45.0,26.0,30.0,0.0,0.0
1496,44.0,30.0,30.0,0.0,0.0
1497,68.0,4.0,60.0,0.0,0.0
1498,71.0,0.0,60.0,0.0,0.0
1499,42.0,26.0,30.0,0.0,0.0
1500,41.0,30.0,30.0,0.0,0.0
1501,42.0,4.0,60.0,0.0,0.0
1502,61.0,26.0,30.0,0.0,0.0
1503,70.0,0.0,30.0,0.0,0.0
1504,67.0,30.0,30.0,0.0,0.0
1505,66.0,26.0,30.0,0.0,0.0
1506,44.0,4.0,60.0,0.0,0.0
1507,64.0,30.0,30.0,0.0,0.0
1508,73.0,26.0,30.0,0.0,0.0
1509,46.0,4.0,60.0,0.0,0.0
1510,64.0,30.0,30.0,0.0,0.0
1511,73.0,26.0,30.0,0.0,0.0
1512,42.0,4.0,60.0,0.0,0.0
1513,64.0,30.0,30.0,0.0,0.0
1514,63.0,26.0,30.0,0.0,0.0
1515,47.0,4.0,60.0,0.0,0.0
1516,72.0,30.0,30.0,0.0,0.0
1517,49.0,4.0,60.0,0.0,0.0
1518,71.0,26.0,30.0,0.0,0.0
1519,69.0,30.0,30.0,0.0,0.0
1520,78.0,26.0,30.0,0.0,0.0
1521,51.0,4.0,60.0,0.0,0.0
1522,69.0,30.0,30.0,0.0,0.0
1523,78.0,26.0,30.0,0.0,0.0
1524,47.0,4.0,60.0,0.0,0.0
1525,69.0,30.0,30.0,0.0,0.0
1526,68.0,26.0,30.0,0.0,0.0
1527,52.0,4.0,60.0,0.0,0.0
1528,65.0,30.0,30.0,0.0,0.0
1529,64.0,26.0,30.0,0.0,0.0
1530,54.0,4.0,60.0,0.0,0.0
1531,62.0,30.0,30.0,0.0,0.0
1532,71.0,26.0,30.0,0.0,0.0
1533,56.0,4.0,60.0,0.0,0.0
1534,62.0,30.0,30.0,0.0,0.0
1535,71.0,26.0,30.0,0.0,0.0
1536,52.0,4.0,60.0,0.0,0.0
1537,62.0,30.0,30.0,0.0,0.0
1538,57.0,4.0,60.0,0.0,0.0
1539,61.0,26.0,30.0,0.0,0.0
1540,70.0,30.0,30.0,0.0,0.0
1541,69.0,26.0,30.0,0.0,0.0
1542,59.0,4.0,60.0,0.0,0.0
1543,67.0,30.0,30.0,0.0,0.0
1544,76.0,26.0,30.0,0.0,0.0
1545,61.0,4.0,60.0,0.0,0.0
1546,67.0,30.0,30.0,0.0,0.0
1547,76.0,26.0,30.0,0.0,0.0
1548,57.0,4.0,60.0,0.0,0.0
1549,67.0,30.0,30.0,0.0,0.0
1550,66.0,30.0,30.0,0.0,0.0
1551,62.0,11.0,120.0,0.0,0.0
1552,69.0,30.0,30.0,0.0,0.0
1553,71.0,19.0,30.0,0.0,0.0
1554,73.0,56.0,30.0,0.0,0.0
1555,74.0,4.0,60.0,0.0,0.0
1556,61.0,30.0,30.0,0.0,0.0
1557,59.0,26.0,30.0,0.0,0.0
1558,66.0,4.0,60.0,0.0,0.0
1559,57.0,30.0,30.0,0.0,0.0
1560,65.0,4.0,60.0,0.0,0.0
1561,56.0,26.0,30.0,0.0,0.0
1562,54.0,30.0,30.0,0.0,0.0
1563,74.0,4.0,60.0,0.0,0.0
1564,56.0,26.0,30.0,0.0,0.0
1565,59.0,30.0,30.0,0.0,0.0
1566,73.0,4.0,60.0,0.0,0.0
1567,58.0,26.0,30.0,0.0,0.0
1568,56.0,30.0,30.0,0.0,0.0
1569,64.0,4.0,60.0,0.0,0.0
1570,58.0,26.0,30.0,0.0,0.0
1571,61.0,30.0,30.0,0.0,0.0
1572,63.0,26.0,30.0,0.0,0.0
1573,61.0,4.0,60.0,0.0,0.0
1574,66.0,30.0,30.0,0.0,0.0
1575,68.0,26.0,30.0,0.0,0.0
1576,59.0,4.0,60.0,0.0,0.0
1577,70.0,56.0,30.0,0.0,0.0
1578,71.0,4.0,60.0,0.0,0.0
1579,57.0,30.0,30.0,0.0,0.0
1580,62.0,4.0,60.0,0.0,0.0
1581,55.0,26.0,30.0,0.0,0.0
1582,54.0,30.0,30.0,0.0,0.0
1583,61.0,4.0,60.0,0.0,0.0
1584,52.0,26.0,30.0,0.0,0.0
1585,51.0,30.0,30.0,0.0,0.0
1586,70.0,4.0,60.0,0.0,0.0
1587,52.0,26.0,30.0,0.0,0.0
1588,55.0,30.0,30.0,0.0,0.0
1589,54.0,26.0,30.0,0.0,0.0
1590,69.0,4.0,60.0,0.0,0.0
1591,52.0,30.0,30.0,0.0,0.0
1592,60.0,4.0,60.0,0.0,0.0
1593,54.0,26.0,30.0,0.0,0.0
1594,57.0,30.0,30.0,0.0,0.0
1595,59.0,26.0,30.0,0.0,0.0
1596,57.0,4.0,60.0,0.0,0.0
1597,63.0,30.0,30.0,0.0,0.0
1598,55.0,4.0,60.0,0.0,0.0
1599,64.0,26.0,30.0,0.0,0.0
1600,66.0,56.0,30.0,0.0,0.0
1601,67.0,4.0,60.0,0.0,0.0
1602,54.0,30.0,30.0,0.0,0.0
1603,59.0,4.0,60.0,0.0,0.0
1604,52.0,26.0,30.0,0.0,0.0
1605,50.0,30.0,30.0,0.0,0.0
1606,58.0,4.0,60.0,0.0,0.0
1607,49.0,26.0,30.0,0.0,0.0
1608,47.0,30.0,30.0,0.0,0.0
1609,49.0,26.0,30.0,0.0,0.0
1610,67.0,4.0,60.0,0.0,0.0
1611,52.0,30.0,30.0,0.0,0.0
1612,66.0,4.0,60.0,0.0,0.0
1613,51.0,26.0,30.0,0.0,0.0
1614,49.0,30.0,30.0,0.0,0.0
1615,57.0,4.0,60.0,0.0,0.0
1616,51.0,26.0,30.0,0.0,0.0
1617,54.0,30.0,30.0,0.0,0.0
1618,47.0,26.0,30.0,0.0,0.0
1619,56.0,4.0,60.0,0.0,0.0
1620,46.0,30.0,30.0,0.0,0.0
1621,47.0,26.0,30.0,0.0,0.0
1622,65.0,4.0,60.0,0.0,0.0
1623,50.0,30.0,30.0,0.0,0.0
1624,64.0,4.0,60.0,0.0,0.0
1625,48.0,26.0,30.0,0.0,0.0
1626,47.0,30.0,30.0,0.0,0.0
1627,55.0,4.0,60.0,0.0,0.0
1628,48.0,26.0,30.0,0.0,0.0
1629,52.0,30.0,30.0,0.0,0.0
1630,46.0,26.0,30.0,0.0,0.0
1631,54.0,4.0,60.0,0.0,0.0
1632,44.0,30.0,30.0,0.0,0.0
1633,64.0,4.0,60.0,0.0,0.0
1634,46.0,26.0,30.0,0.0,0.0
1635,49.0,30.0,30.0,0.0,0.0
1636,63.0,4.0,60.0,0.0,0.0
1637,47.0,26.0,30.0,0.0,0.0
1638,46.0,30.0,30.0,0.0,0.0
1639,53.0,4.0,60.0,0.0,0.0
1640,47.0,26.0,30.0,0.0,0.0
1641,50.0,30.0,30.0,0.0,0.0
1642,52.0,4.0,60.0,0.0,0.0
1643,44.0,26.0,30.0,0.0,0.0
1644,42.0,30.0,30.0,0.0,0.0
1645,62.0,4.0,60.0,0.0,0.0
1646,44.0,26.0,30.0,0.0,0.0
1647,47.0,30.0,30.0,0.0,0.0
1648,61.0,4.0,60.0,0.0,0.0
1649,45.0,26.0,30.0,0.0,0.0
1650,44.0,30.0,30.0,0.0,0.0
1651,60.0,4.0,60.0,0.0,0.0
1652,52.0,0.0,60.0,0.0,0.0
1653,45.0,26.0,30.0,0.0,0.0
1654,48.0,30.0,30.0,0.0,0.0
1655,60.0,0.0,60.0,0.0,0.0
1656,52.0,4.0,60.0,0.0,0.0
1657,42.0,26.0,30.0,0.0,0.0
1658,43.0,30.0,30.0,0.0,0.0
1659,59.0,4.0,60.0,0.0,0.0
1660,51.0,0.0,60.0,0.0,0.0
1661,45.0,26.0,30.0,0.0,0.0
1662,43.0,30.0,30.0,0.0,0.0
1663,45.0,30.0,30.0,0.0,0.0
1664,51.0,30.0,30.0,0.0,0.0
1665,54.0,30.0,30.0,0.0,0.0
1666,45.0,30.0,30.0,0.0,0.0
1667,64.0,0.0,30.0,0.0,0.0
1668,43.0,0.0,30.0,0.0,0.0
1669,66.0,0.0,30.0,0.0,0.0
1670,42.0,0.0,30.0,0.0,0.0
1671,67.0,0.0,30.0,0.0,0.0
1672,40.0,0.0,30.0,0.0,0.0
1673,69.0,0.0,30.0,0.0,0.0
1674,42.0,0.0,30.0,0.0,0.0
1675,71.0,0.0,30.0,0.0,0.0
1676,43.0,0.0,30.0,0.0,0.0
1677,45.0,0.0,30.0,0.0,0.0
1678,67.0,0.0,30.0,0.0,0.0
1679,66.0,0.0,30.0,0.0,0.0
1680,47.0,0.0,30.0,0.0,0.0
1681,64.0,0.0,30.0,0.0,0.0
1682,48.0,0.0,30.0,0.0,0.0
1683,63.0,0.0,30.0,0.0,0.0
1684,48.0,4.0,60.0,0.0,0.0
1685,64.0,0.0,30.0,0.0,0.0
1686,66.0,0.0,30.0,0.0,0.0
1687,39.0,4.0,60.0,0.0,0.0
1688,60.0,0.0,30.0,0.0,0.0
1689,59.0,0.0,120.0,0.0,0.0
1690,57.0,30.0,30.0,0.0,0.0
1691,55.0,19.0,30.0,0.0,0.0
1692,54.0,30.0,30.0,0.0,0.0
1693,52.0,30.0,30.0,0.0,0.0
1694,59.0,30.0,30.0,0.0,0.0
1695,76.0,4.0,60.0,0.0,0.0
1696,67.0,0.0,60.0,0.0,0.0
1697,52.0,26.0,30.0,0.0,0.0
1698,59.0,30.0,30.0,0.0,0.0
1699,67.0,3.0,60.0,0.0,0.0
1700,76.0,0.0,60.0,0.0,0.0
1701,51.0,27.0,30.0,0.0,0.0
1702,59.0,30.0,30.0,0.0,0.0
1703,69.0,0.0,60.0,0.0,0.0
1704,78.0,3.0,60.0,0.0,0.0
1705,51.0,27.0,30.0,0.0,0.0
1706,59.0,30.0,30.0,0.0,0.0
1707,52.0,30.0,30.0,0.0,0.0
1708,59.0,30.0,30.0,0.0,0.0
1709,67.0,4.0,60.0,0.0,0.0
1710,76.0,0.0,60.0,0.0,0.0
1711,52.0,26.0,30.0,0.0,0.0
1712,59.0,30.0,30.0,0.0,0.0
1713,76.0,29.0,60.0,0.0,0.0
1714,67.0,0.0,60.0,0.0,0.0
1715,47.0,30.0,30.0,0.0,0.0
1716,59.0,1.0,30.0,0.0,0.0
1717,75.0,0.0,60.0,0.0,0.0
1718,66.0,29.0,60.0,0.0,0.0
1719,47.0,30.0,30.0,0.0,0.0
1720,59.0,1.0,30.0,0.0,0.0
1721,52.0,30.0,30.0,0.0,0.0
1722,63.0,30.0,30.0,0.0,0.0
1723,54.0,0.0,30.0,0.0,0.0
1724,64.0,30.0,30.0,0.0,0.0
1725,55.0,0.0,30.0,0.0,0.0
1726,66.0,17.0,30.0,0.0,0.0
1727,57.0,0.0,30.0,0.0,0.0
1728,59.0,2.0,30.0,0.0,0.0
1729,67.0,13.0,15.0,0.0,0.0
1730,66.0,28.0,15.0,0.0,0.0
1731,64.0,0.0,30.0,0.0,0.0
1732,55.0,30.0,30.0,0.0,0.0
1733,54.0,26.0,30.0,0.0,0.0
1734,69.0,0.0,60.0,0.0,0.0
1735,72.0,4.0,60.0,0.0,0.0
1736,52.0,30.0,30.0,0.0,0.0
1737,72.0,4.0,60.0,0.0,0.0
1738,69.0,0.0,60.0,0.0,0.0
1739,51.0,26.0,30.0,0.0,0.0
1740,52.0,30.0,30.0,0.0,0.0
1741,54.0,26.0,30.0,0.0,0.0
1742,63.0,4.0,60.0,0.0,0.0
1743,71.0,0.0,60.0,0.0,0.0
1744,48.0,30.0,30.0,0.0,0.0
1745,47.0,30.0,30.0,0.0,0.0
1746,45.0,30.0,30.0,0.0,0.0
1747,43.0,30.0,30.0,0.0,0.0
1748,42.0,30.0,30.0,0.0,0.0
1749,40.0,30.0,30.0,0.0,0.0
1750,52.0,30.0,30.0,0.0,0.0
1751,64.0,0.0,60.0,0.0,0.0
1752,67.0,4.0,60.0,0.0,0.0
1753,40.0,26.0,30.0,0.0,0.0
1754,52.0,30.0,30.0,0.0,0.0
1755,69.0,4.0,60.0,0.0,0.0
1756,65.0,0.0,60.0,0.0,0.0
1757,50.0,26.0,30.0,0.0,0.0
1758,59.0,30.0,30.0,0.0,0.0
1759,68.0,0.0,60.0,0.0,0.0
1760,64.0,4.0,60.0,0.0,0.0
1761,50.0,26.0,30.0,0.0,0.0
1762,59.0,30.0,30.0,0.0,0.0
1763,48.0,30.0,30.0,0.0,0.0
1764,57.0,30.0,30.0,0.0,0.0
1765,69.0,4.0,60.0,0.0,0.0
1766,64.0,0.0,60.0,0.0,0.0
1767,48.0,26.0,30.0,0.0,0.0
1768,57.0,30.0,30.0,0.0,0.0
1769,47.0,26.0,30.0,0.0,0.0
1770,65.0,0.0,60.0,0.0,0.0
1771,74.0,4.0,60.0,0.0,0.0
1772,56.0,30.0,30.0,0.0,0.0
1773,62.0,0.0,60.0,0.0,0.0
1774,71.0,4.0,60.0,0.0,0.0
1775,47.0,26.0,30.0,0.0,0.0
1776,56.0,30.0,30.0,0.0,0.0
1777,45.0,30.0,30.0,0.0,0.0
1778,57.0,30.0,30.0,0.0,0.0
1779,72.0,0.0,60.0,0.0,0.0
1780,64.0,4.0,60.0,0.0,0.0
1781,45.0,26.0,30.0,0.0,0.0
1782,57.0,30.0,30.0,0.0,0.0
1783,74.0,4.0,60.0,0.0,0.0
1784,70.0,0.0,60.0,0.0,0.0
1785,55.0,26.0,30.0,0.0,0.0
1786,64.0,30.0,30.0,0.0,0.0
1787,73.0,0.0,60.0,0.0,0.0
1788,69.0,4.0,60.0,0.0,0.0
1789,55.0,26.0,30.0,0.0,0.0
1790,64.0,30.0,30.0,0.0,0.0
1791,54.0,30.0,30.0,0.0,0.0
1792,63.0,30.0,30.0,0.0,0.0
1793,78.0,4.0,60.0,0.0,0.0
1794,72.0,26.0,30.0,0.0,0.0
1795,69.0,0.0,60.0,0.0,0.0
1796,54.0,0.0,30.0,0.0,0.0
1797,71.0,0.0,30.0,0.0,0.0
1798,63.0,30.0,30.0,0.0,0.0
1799,52.0,26.0,30.0,0.0,0.0
1800,72.0,0.0,60.0,0.0,0.0
1801,78.0,4.0,60.0,0.0,0.0
1802,69.0,0.0,60.0,0.0,0.0
1803,64.0,30.0,30.0,0.0,0.0
1804,78.0,0.0,60.0,0.0,0.0
1805,69.0,4.0,60.0,0.0,0.0
1806,52.0,26.0,30.0,0.0,0.0
1807,72.0,0.0,60.0,0.0,0.0
1808,64.0,30.0,30.0,0.0,0.0
1809,63.0,30.0,30.0,0.0,0.0
1810,72.0,11.0,120.0,0.0,0.0
1811,78.0,0.0,120.0,0.0,0.0
1812,69.0,0.0,120.0,0.0,0.0
1813,64.0,30.0,30.0,0.0,0.0
1814,66.0,19.0,30.0,0.0,0.0
1815,60.0,30.0,30.0,0.0,0.0
1816,59.0,30.0,30.0,0.0,0.0
1817,57.0,0.0,30.0,0.0,0.0
1818,72.0,30.0,30.0,0.0,0.0
1819,71.0,30.0,30.0,0.0,0.0
1820,55.0,0.0,30.0,0.0,0.0
1821,69.0,30.0,30.0,0.0,0.0
1822,54.0,0.0,30.0,0.0,0.0
1823,67.0,26.0,30.0,0.0,0.0
1824,52.0,4.0,60.0,0.0,0.0
1825,69.0,30.0,30.0,0.0,0.0
1826,55.0,4.0,60.0,0.0,0.0
1827,71.0,26.0,30.0,0.0,0.0
1828,64.0,30.0,30.0,0.0,0.0
1829,67.0,26.0,30.0,0.0,0.0
1830,57.0,4.0,60.0,0.0,0.0
1831,66.0,30.0,30.0,0.0,0.0
1832,64.0,26.0,30.0,0.0,0.0
1833,59.0,4.0,60.0,0.0,0.0
1834,63.0,30.0,30.0,0.0,0.0
1835,64.0,26.0,30.0,0.0,0.0
1836,60.0,0.0,60.0,0.0,0.0
1837,67.0,30.0,30.0,0.0,0.0
1838,64.0,26.0,30.0,0.0,0.0
1839,48.0,4.0,60.0,0.0,0.0
1840,67.0,30.0,30.0,0.0,0.0
1841,62.0,30.0,30.0,0.0,0.0
1842,71.0,30.0,30.0,0.0,0.0
1843,62.0,26.0,30.0,0.0,0.0
1844,53.0,0.0,60.0,0.0,0.0
1845,47.0,4.0,60.0,0.0,0.0
1846,44.0,0.0,60.0,0.0,0.0
1847,71.0,30.0,30.0,0.0,0.0
1848,61.0,30.0,30.0,0.0,0.0
1849,69.0,30.0,30.0,0.0,0.0
1850,45.0,0.0,30.0,0.0,0.0
1851,61.0,26.0,30.0,0.0,0.0
1852,52.0,4.0,60.0,0.0,0.0
1853,47.0,30.0,30.0,0.0,0.0
1854,69.0,0.0,30.0,0.0,0.0
1855,57.0,26.0,30.0,0.0,0.0
1856,52.0,4.0,60.0,0.0,0.0
1857,49.0,0.0,60.0,0.0,0.0
1858,67.0,30.0,30.0,0.0,0.0
1859,57.0,26.0,30.0,0.0,0.0
1860,52.0,0.0,60.0,0.0,0.0
1861,49.0,4.0,60.0,0.0,0.0
1862,67.0,30.0,30.0,0.0,0.0
1863,62.0,26.0,30.0,0.0,0.0
1864,50.0,7.0,120.0,0.0,0.0
1865,48.0,4.0,60.0,0.0,0.0
1866,66.0,30.0,30.0,0.0,0.0
1867,62.0,19.0,30.0,0.0,0.0
1868,38.0,4.0,60.0,0.0,0.0
1869,66.0,30.0,30.0,0.0,0.0
1870,60.0,30.0,30.0,0.0,0.0
1871,69.0,30.0,30.0,0.0,0.0
1872,51.0,4.0,60.0,0.0,0.0
1873,60.0,26.0,30.0,0.0,0.0
1874,45.0,0.0,60.0,0.0,0.0
1875,42.0,0.0,60.0,0.0,0.0
1876,69.0,30.0,30.0,0.0,0.0
1877,59.0,30.0,30.0,0.0,0.0
1878,67.0,30.0,30.0,0.0,0.0
1879,59.0,26.0,30.0,0.0,0.0
1880,50.0,4.0,60.0,0.0,0.0
1881,43.0,0.0,30.0,0.0,0.0
1882,67.0,30.0,30.0,0.0,0.0
1883,45.0,0.0,30.0,0.0,0.0
1884,50.0,4.0,60.0,0.0,0.0
1885,47.0,0.0,60.0,0.0,0.0
1886,55.0,26.0,30.0,0.0,0.0
1887,66.0,30.0,30.0,0.0,0.0
1888,55.0,26.0,30.0,0.0,0.0
1889,50.0,0.0,60.0,0.0,0.0
1890,47.0,4.0,60.0,0.0,0.0
1891,66.0,30.0,30.0,0.0,0.0
1892,60.0,26.0,30.0,0.0,0.0
1893,47.0,4.0,60.0,0.0,0.0
1894,48.0,7.0,120.0,0.0,0.0
1895,64.0,30.0,30.0,0.0,0.0
1896,36.0,4.0,60.0,0.0,0.0
1897,60.0,19.0,30.0,0.0,0.0
1898,64.0,30.0,30.0,0.0,0.0
1899,59.0,30.0,30.0,0.0,0.0
1900,67.0,30.0,30.0,0.0,0.0
1901,59.0,26.0,30.0,0.0,0.0
1902,50.0,0.0,60.0,0.0,0.0
1903,40.0,0.0,60.0,0.0,0.0
1904,43.0,4.0,60.0,0.0,0.0
1905,67.0,30.0,30.0,0.0,0.0
1906,58.0,30.0,30.0,0.0,0.0
1907,66.0,30.0,30.0,0.0,0.0
1908,58.0,0.0,30.0,0.0,0.0
1909,49.0,4.0,60.0,0.0,0.0
1910,42.0,26.0,30.0,0.0,0.0
1911,66.0,30.0,30.0,0.0,0.0
1912,44.0,0.0,30.0,0.0,0.0
1913,46.0,4.0,60.0,0.0,0.0
1914,54.0,26.0,30.0,0.0,0.0
1915,49.0,0.0,60.0,0.0,0.0
1916,64.0,30.0,30.0,0.0,0.0
1917,54.0,26.0,30.0,0.0,0.0
1918,48.0,4.0,60.0,0.0,0.0
1919,45.0,0.0,120.0,0.0,0.0
1920,64.0,30.0,30.0,0.0,0.0
1921,63.0,26.0,30.0,0.0,0.0
1922,47.0,4.0,60.0,0.0,0.0
1923,59.0,30.0,30.0,0.0,0.0
1924,64.0,30.0,30.0,0.0,0.0
1925,43.0,0.0,30.0,0.0,0.0
1926,66.0,30.0,30.0,0.0,0.0
1927,45.0,0.0,30.0,0.0,0.0
1928,67.0,30.0,60.0,0.0,0.0
1929,47.0,0.0,60.0,0.0,0.0
1930,59.0,30.0,60.0,0.0,0.0
1931,35.0,60.0,60.0,0.0,0.0
1932,63.0,0.0,120.0,0.0,0.0
1933,66.0,0.0,120.0,0.0,0.0
1934,57.0,26.0,90.0,0.0,0.0
1935,40.0,25.0,90.0,0.0,0.0
1936,55.0,6.0,60.0,0.0,0.0
1937,59.0,0.0,60.0,0.0,0.0
1938,64.0,0.0,60.0,0.0,0.0
1939,43.0,9.0,15.0,0.0,0.0
1940,47.0,107.0,15.0,0.0,0.0
1941,52.0,41.0,120.0,0.0,0.0
1942,71.0,30.0,30.0,0.0,0.0
1943,73.0,30.0,30.0,0.0,0.0
1944,75.0,30.0,30.0,0.0,0.0
1945,47.0,0.0,30.0,0.0,0.0
1946,76.0,30.0,30.0,0.0,0.0
1947,49.0,0.0,30.0,0.0,0.0
1948,78.0,26.0,30.0,0.0,0.0
1949,51.0,4.0,60.0,0.0,0.0
1950,72.0,30.0,30.0,0.0,0.0
1951,54.0,4.0,60.0,0.0,0.0
1952,71.0,26.0,30.0,0.0,0.0
1953,69.0,30.0,30.0,0.0,0.0
1954,68.0,26.0,30.0,0.0,0.0
1955,59.0,4.0,60.0,0.0,0.0
1956,69.0,30.0,30.0,0.0,0.0
1957,71.0,26.0,30.0,0.0,0.0
1958,57.0,4.0,60.0,0.0,0.0
1959,65.0,30.0,30.0,0.0,0.0
1960,64.0,26.0,30.0,0.0,0.0
1961,56.0,4.0,60.0,0.0,0.0
1962,62.0,30.0,30.0,0.0,0.0
1963,60.0,26.0,30.0,0.0,0.0
1964,52.0,4.0,60.0,0.0,0.0
1965,59.0,30.0,30.0,0.0,0.0
1966,60.0,26.0,30.0,0.0,0.0
1967,57.0,4.0,60.0,0.0,0.0
1968,69.0,30.0,30.0,0.0,0.0
1969,60.0,26.0,30.0,0.0,0.0
1970,45.0,4.0,60.0,0.0,0.0
1971,69.0,30.0,30.0,0.0,0.0
1972,61.0,26.0,30.0,0.0,0.0
1973,43.0,4.0,60.0,0.0,0.0
1974,70.0,30.0,30.0,0.0,0.0
1975,55.0,4.0,60.0,0.0,0.0
1976,61.0,26.0,30.0,0.0,0.0
1977,70.0,30.0,30.0,0.0,0.0
1978,53.0,4.0,60.0,0.0,0.0
1979,69.0,26.0,30.0,0.0,0.0
1980,65.0,30.0,30.0,0.0,0.0
1981,41.0,4.0,60.0,0.0,0.0
1982,64.0,26.0,30.0,0.0,0.0
1983,62.0,30.0,30.0,0.0,0.0
1984,61.0,26.0,30.0,0.0,0.0
1985,40.0,4.0,60.0,0.0,0.0
1986,70.0,30.0,30.0,0.0,0.0
1987,69.0,26.0,30.0,0.0,0.0
1988,52.0,4.0,60.0,0.0,0.0
1989,67.0,30.0,30.0,0.0,0.0
1990,50.0,4.0,60.0,0.0,0.0
1991,66.0,26.0,30.0,0.0,0.0
1992,67.0,30.0,30.0,0.0,0.0
1993,69.0,26.0,30.0,0.0,0.0
1994,38.0,4.0,60.0,0.0,0.0
1995,71.0,30.0,30.0,0.0,0.0
1996,72.0,26.0,30.0,0.0,0.0
1997,45.0,4.0,60.0,0.0,0.0
1998,67.0,30.0,30.0,0.0,0.0
1999,65.0,26.0,30.0,0.0,0.0
2000,48.0,4.0,60.0,0.0,0.0
2001,64.0,30.0,30.0,0.0,0.0
2002,63.0,26.0,30.0,0.0,0.0
2003,42.0,4.0,60.0,0.0,0.0
2004,64.0,30.0,30.0,0.0,0.0
2005,66.0,26.0,30.0,0.0,0.0
2006,45.0,4.0,60.0,0.0,0.0
2007,60.0,30.0,30.0,0.0,0.0
2008,39.0,4.0,60.0,0.0,0.0
2009,59.0,26.0,30.0,0.0,0.0
2010,57.0,30.0,30.0,0.0,0.0
2011,55.0,26.0,30.0,0.0,0.0
2012,47.0,4.0,60.0,0.0,0.0
2013,54.0,30.0,30.0,0.0,0.0
2014,55.0,26.0,30.0,0.0,0.0
2015,52.0,4.0,60.0,0.0,0.0
2016,64.0,30.0,30.0,0.0,0.0
2017,55.0,26.0,30.0,0.0,0.0
2018,40.0,4.0,60.0,0.0,0.0
2019,64.0,30.0,30.0,0.0,0.0
2020,56.0,26.0,30.0,0.0,0.0
2021,38.0,4.0,60.0,0.0,0.0
2022,65.0,30.0,30.0,0.0,0.0
2023,56.0,26.0,30.0,0.0,0.0
2024,50.0,4.0,60.0,0.0,0.0
2025,65.0,30.0,30.0,0.0,0.0
2026,64.0,26.0,30.0,0.0,0.0
2027,48.0,4.0,60.0,0.0,0.0
2028,60.0,30.0,30.0,0.0,0.0
2029,59.0,26.0,30.0,0.0,0.0
2030,36.0,4.0,60.0,0.0,0.0
2031,57.0,30.0,30.0,0.0,0.0
2032,56.0,26.0,30.0,0.0,0.0
2033,35.0,4.0,60.0,0.0,0.0
2034,65.0,30.0,30.0,0.0,0.0
2035,64.0,26.0,30.0,0.0,0.0
2036,47.0,4.0,60.0,0.0,0.0
2037,62.0,30.0,30.0,0.0,0.0
2038,45.0,4.0,60.0,0.0,0.0
2039,61.0,26.0,30.0,0.0,0.0
2040,62.0,30.0,30.0,0.0,0.0
2041,64.0,26.0,30.0,0.0,0.0
2042,33.0,4.0,60.0,0.0,0.0
2043,66.0,30.0,30.0,0.0,0.0
2044,67.0,30.0,30.0,0.0,0.0
2045,70.0,30.0,30.0,0.0,0.0
2046,57.0,0.0,30.0,0.0,0.0
2047,69.0,0.0,30.0,0.0,0.0
2048,59.0,30.0,30.0,0.0,0.0
2049,61.0,0.0,30.0,0.0,0.0
2050,67.0,30.0,30.0,0.0,0.0
2051,66.0,26.0,30.0,0.0,0.0
2052,62.0,4.0,60.0,0.0,0.0
2053,67.0,30.0,30.0,0.0,0.0
2054,69.0,26.0,30.0,0.0,0.0
2055,50.0,4.0,60.0,0.0,0.0
2056,63.0,30.0,30.0,0.0,0.0
2057,62.0,30.0,30.0,0.0,0.0
2058,50.0,30.0,30.0,0.0,0.0
2059,60.0,0.0,30.0,0.0,0.0
2060,59.0,0.0,30.0,0.0,0.0
2061,52.0,30.0,30.0,0.0,0.0
2062,54.0,0.0,30.0,0.0,0.0
2063,57.0,30.0,30.0,0.0,0.0
2064,55.0,4.0,60.0,0.0,0.0
2065,59.0,26.0,30.0,0.0,0.0
2066,60.0,30.0,30.0,0.0,0.0
2067,43.0,4.0,60.0,0.0,0.0
2068,62.0,26.0,30.0,0.0,0.0
2069,64.0,30.0,30.0,0.0,0.0
2070,65.0,30.0,30.0,0.0,0.0
2071,43.0,0.0,30.0,0.0,0.0
2072,69.0,30.0,30.0,0.0,0.0
2073,45.0,0.0,30.0,0.0,0.0
2074,67.0,30.0,30.0,0.0,0.0
2075,65.0,0.0,30.0,0.0,0.0
2076,47.0,30.0,30.0,0.0,0.0
2077,64.0,26.0,30.0,0.0,0.0
2078,48.0,4.0,60.0,0.0,0.0
2079,65.0,30.0,30.0,0.0,0.0
2080,67.0,26.0,30.0,0.0,0.0
2081,36.0,4.0,60.0,0.0,0.0
2082,62.0,30.0,30.0,0.0,0.0
2083,60.0,30.0,30.0,0.0,0.0
2084,58.0,30.0,30.0,0.0,0.0
2085,36.0,0.0,30.0,0.0,0.0
2086,57.0,30.0,30.0,0.0,0.0
2087,38.0,0.0,30.0,0.0,0.0
2088,55.0,30.0,30.0,0.0,0.0
2089,40.0,0.0,30.0,0.0,0.0
2090,41.0,26.0,30.0,0.0,0.0
2091,57.0,4.0,60.0,0.0,0.0
2092,48.0,30.0,30.0,0.0,0.0
2093,65.0,4.0,60.0,0.0,0.0
2094,57.0,0.0,60.0,0.0,0.0
2095,41.0,26.0,30.0,0.0,0.0
2096,48.0,30.0,30.0,0.0,0.0
2097,57.0,21.0,60.0,0.0,0.0
2098,65.0,0.0,60.0,0.0,0.0
2099,40.0,30.0,30.0,0.0,0.0
2100,48.0,9.0,30.0,0.0,0.0
2101,67.0,29.0,60.0,0.0,0.0
2102,58.0,3.0,60.0,0.0,0.0
2103,40.0,27.0,30.0,0.0,0.0
2104,48.0,1.0,30.0,0.0,0.0
2105,41.0,30.0,30.0,0.0,0.0
2106,48.0,30.0,30.0,0.0,0.0
2107,57.0,0.0,60.0,0.0,0.0
2108,41.0,26.0,30.0,0.0,0.0
2109,65.0,4.0,60.0,0.0,0.0
2110,48.0,30.0,30.0,0.0,0.0
2111,65.0,29.0,60.0,0.0,0.0
2112,57.0,0.0,60.0,0.0,0.0
2113,37.0,30.0,30.0,0.0,0.0
2114,46.0,1.0,30.0,0.0,0.0
2115,64.0,29.0,60.0,0.0,0.0
2116,55.0,0.0,60.0,0.0,0.0
2117,37.0,30.0,30.0,0.0,0.0
2118,46.0,1.0,30.0,0.0,0.0
2119,38.0,30.0,30.0,0.0,0.0
2120,45.0,30.0,30.0,0.0,0.0
2121,62.0,30.0,30.0,0.0,0.0
2122,38.0,0.0,30.0,0.0,0.0
2123,53.0,0.0,30.0,0.0,0.0
2124,64.0,30.0,30.0,0.0,0.0
2125,55.0,0.0,30.0,0.0,0.0
2126,45.0,0.0,30.0,0.0,0.0
2127,65.0,0.0,60.0,0.0,0.0
2128,57.0,4.0,60.0,0.0,0.0
2129,36.0,26.0,30.0,0.0,0.0
2130,45.0,30.0,30.0,0.0,0.0
2131,69.0,4.0,60.0,0.0,0.0
2132,64.0,0.0,60.0,0.0,0.0
2133,36.0,26.0,30.0,0.0,0.0
2134,45.0,30.0,30.0,0.0,0.0
2135,35.0,30.0,30.0,0.0,0.0
2136,39.0,30.0,30.0,0.0,0.0
2137,72.0,0.0,60.0,0.0,0.0
2138,63.0,4.0,60.0,0.0,0.0
2139,42.0,26.0,30.0,0.0,0.0
2140,45.0,30.0,30.0,0.0,0.0
2141,64.0,4.0,60.0,0.0,0.0
2142,71.0,0.0,60.0,0.0,0.0
2143,43.0,26.0,30.0,0.0,0.0
2144,42.0,30.0,30.0,0.0,0.0
2145,40.0,26.0,30.0,0.0,0.0
2146,66.0,0.0,60.0,0.0,0.0
2147,69.0,4.0,60.0,0.0,0.0
2148,39.0,30.0,30.0,0.0,0.0
2149,40.0,30.0,30.0,0.0,0.0
2150,47.0,30.0,30.0,0.0,0.0
2151,67.0,0.0,30.0,0.0,0.0
2152,64.0,30.0,30.0,0.0,0.0
2153,40.0,0.0,30.0,0.0,0.0
2154,66.0,0.0,30.0,0.0,0.0
2155,63.0,0.0,30.0,0.0,0.0
2156,47.0,30.0,30.0,0.0,0.0
2157,67.0,4.0,60.0,0.0,0.0
2158,64.0,0.0,60.0,0.0,0.0
2159,38.0,26.0,30.0,0.0,0.0
2160,47.0,30.0,30.0,0.0,0.0
2161,71.0,4.0,60.0,0.0,0.0
2162,66.0,0.0,60.0,0.0,0.0
2163,38.0,26.0,30.0,0.0,0.0
2164,47.0,30.0,30.0,0.0,0.0
2165,37.0,30.0,30.0,0.0,0.0
2166,41.0,30.0,30.0,0.0,0.0
2167,74.0,0.0,60.0,0.0,0.0
2168,65.0,4.0,60.0,0.0,0.0
2169,44.0,26.0,30.0,0.0,0.0
2170,47.0,30.0,30.0,0.0,0.0
2171,73.0,0.0,60.0,0.0,0.0
2172,66.0,4.0,60.0,0.0,0.0
2173,45.0,26.0,30.0,0.0,0.0
2174,44.0,30.0,30.0,0.0,0.0
2175,71.0,4.0,60.0,0.0,0.0
2176,68.0,0.0,60.0,0.0,0.0
2177,42.0,26.0,30.0,0.0,0.0
2178,41.0,30.0,30.0,0.0,0.0
2179,61.0,26.0,30.0,0.0,0.0
2180,70.0,0.0,30.0,0.0,0.0
2181,42.0,4.0,60.0,0.0,0.0
2182,67.0,30.0,30.0,0.0,0.0
2183,66.0,26.0,30.0,0.0,0.0
2184,44.0,4.0,60.0,0.0,0.0
2185,64.0,30.0,30.0,0.0,0.0
2186,73.0,26.0,30.0,0.0,0.0
2187,46.0,4.0,60.0,0.0,0.0
2188,64.0,30.0,30.0,0.0,0.0
2189,73.0,26.0,30.0,0.0,0.0
2190,42.0,4.0,60.0,0.0,0.0
2191,64.0,30.0,30.0,0.0,0.0
2192,63.0,26.0,30.0,0.0,0.0
2193,47.0,4.0,60.0,0.0,0.0
2194,72.0,30.0,30.0,0.0,0.0
2195,71.0,26.0,30.0,0.0,0.0
2196,49.0,4.0,60.0,0.0,0.0
2197,69.0,30.0,30.0,0.0,0.0
2198,78.0,26.0,30.0,0.0,0.0
2199,51.0,4.0,60.0,0.0,0.0
2200,69.0,30.0,30.0,0.0,0.0
2201,78.0,26.0,30.0,0.0,0.0
2202,47.0,4.0,60.0,0.0,0.0
2203,69.0,30.0,30.0,0.0,0.0
2204,68.0,26.0,30.0,0.0,0.0
2205,52.0,4.0,60.0,0.0,0.0
2206,65.0,30.0,30.0,0.0,0.0
2207,64.0,26.0,30.0,0.0,0.0
2208,54.0,4.0,60.0,0.0,0.0
2209,62.0,30.0,30.0,0.0,0.0
2210,71.0,26.0,30.0,0.0,0.0
2211,56.0,4.0,60.0,0.0,0.0
2212,62.0,30.0,30.0,0.0,0.0
2213,52.0,4.0,60.0,0.0,0.0
2214,71.0,26.0,30.0,0.0,0.0
2215,62.0,30.0,30.0,0.0,0.0
2216,61.0,26.0,30.0,0.0,0.0
2217,57.0,4.0,60.0,0.0,0.0
2218,70.0,30.0,30.0,0.0,0.0
2219,69.0,26.0,30.0,0.0,0.0
2220,59.0,4.0,60.0,0.0,0.0
2221,67.0,30.0,30.0,0.0,0.0
2222,61.0,4.0,60.0,0.0,0.0
2223,76.0,26.0,30.0,0.0,0.0
2224,67.0,30.0,30.0,0.0,0.0
2225,57.0,4.0,60.0,0.0,0.0
2226,76.0,26.0,30.0,0.0,0.0
2227,67.0,30.0,30.0,0.0,0.0
2228,66.0,30.0,30.0,0.0,0.0
2229,62.0,11.0,120.0,0.0,0.0
2230,69.0,30.0,30.0,0.0,0.0
2231,71.0,19.0,30.0,0.0,0.0
2232,73.0,56.0,30.0,0.0,0.0
2233,74.0,4.0,60.0,0.0,0.0
2234,61.0,30.0,30.0,0.0,0.0
2235,66.0,4.0,60.0,0.0,0.0
2236,59.0,26.0,30.0,0.0,0.0
2237,57.0,30.0,30.0,0.0,0.0
2238,65.0,4.0,60.0,0.0,0.0
2239,56.0,26.0,30.0,0.0,0.0
2240,54.0,30.0,30.0,0.0,0.0
2241,74.0,4.0,60.0,0.0,0.0
2242,56.0,26.0,30.0,0.0,0.0
2243,59.0,30.0,30.0,0.0,0.0
2244,58.0,26.0,30.0,0.0,0.0
2245,73.0,4.0,60.0,0.0,0.0
2246,56.0,30.0,30.0,0.0,0.0
2247,64.0,4.0,60.0,0.0,0.0
2248,58.0,26.0,30.0,0.0,0.0
2249,61.0,30.0,30.0,0.0,0.0
2250,63.0,26.0,30.0,0.0,0.0
2251,61.0,4.0,60.0,0.0,0.0
2252,66.0,30.0,30.0,0.0,0.0
2253,68.0,26.0,30.0,0.0,0.0
2254,59.0,4.0,60.0,0.0,0.0
2255,70.0,56.0,30.0,0.0,0.0
2256,71.0,4.0,60.0,0.0,0.0
2257,57.0,30.0,30.0,0.0,0.0
2258,62.0,4.0,60.0,0.0,0.0
2259,55.0,26.0,30.0,0.0,0.0
2260,54.0,30.0,30.0,0.0,0.0
2261,61.0,4.0,60.0,0.0,0.0
2262,52.0,26.0,30.0,0.0,0.0
2263,51.0,30.0,30.0,0.0,0.0
2264,52.0,26.0,30.0,0.0,0.0
2265,70.0,4.0,60.0,0.0,0.0
2266,55.0,30.0,30.0,0.0,0.0
2267,54.0,26.0,30.0,0.0,0.0
2268,69.0,4.0,60.0,0.0,0.0
2269,52.0,30.0,30.0,0.0,0.0
2270,60.0,4.0,60.0,0.0,0.0
2271,54.0,26.0,30.0,0.0,0.0
2272,57.0,30.0,30.0,0.0,0.0
2273,59.0,26.0,30.0,0.0,0.0
2274,57.0,4.0,60.0,0.0,0.0
2275,63.0,30.0,30.0,0.0,0.0
2276,55.0,4.0,60.0,0.0,0.0
2277,64.0,26.0,30.0,0.0,0.0
2278,66.0,56.0,30.0,0.0,0.0
2279,67.0,4.0,60.0,0.0,0.0
2280,54.0,30.0,30.0,0.0,0.0
2281,59.0,4.0,60.0,0.0,0.0
2282,52.0,26.0,30.0,0.0,0.0
2283,50.0,30.0,30.0,0.0,0.0
2284,49.0,26.0,30.0,0.0,0.0
2285,58.0,4.0,60.0,0.0,0.0
2286,47.0,30.0,30.0,0.0,0.0
2287,67.0,4.0,60.0,0.0,0.0
2288,49.0,26.0,30.0,0.0,0.0
2289,52.0,30.0,30.0,0.0,0.0
2290,66.0,4.0,60.0,0.0,0.0
2291,51.0,26.0,30.0,0.0,0.0
2292,49.0,30.0,30.0,0.0,0.0
2293,57.0,4.0,60.0,0.0,0.0
2294,51.0,26.0,30.0,0.0,0.0
2295,54.0,30.0,30.0,0.0,0.0
2296,56.0,4.0,60.0,0.0,0.0
2297,47.0,26.0,30.0,0.0,0.0
2298,46.0,30.0,30.0,0.0,0.0
2299,65.0,4.0,60.0,0.0,0.0
2300,47.0,26.0,30.0,0.0,0.0
2301,50.0,30.0,30.0,0.0,0.0
2302,64.0,4.0,60.0,0.0,0.0
2303,48.0,26.0,30.0,0.0,0.0
2304,47.0,30.0,30.0,0.0,0.0
2305,55.0,4.0,60.0,0.0,0.0
2306,48.0,26.0,30.0,0.0,0.0
2307,52.0,30.0,30.0,0.0,0.0
2308,54.0,4.0,60.0,0.0,0.0
2309,46.0,26.0,30.0,0.0,0.0
2310,44.0,30.0,30.0,0.0,0.0
2311,46.0,26.0,30.0,0.0,0.0
2312,64.0,4.0,60.0,0.0,0.0
2313,49.0,30.0,30.0,0.0,0.0
2314,63.0,4.0,60.0,0.0,0.0
2315,47.0,26.0,30.0,0.0,0.0
2316,46.0,30.0,30.0,0.0,0.0
2317,53.0,4.0,60.0,0.0,0.0
2318,47.0,26.0,30.0,0.0,0.0
2319,50.0,30.0,30.0,0.0,0.0
2320,44.0,26.0,30.0,0.0,0.0
2321,52.0,4.0,60.0,0.0,0.0
2322,42.0,30.0,30.0,0.0,0.0
2323,62.0,4.0,60.0,0.0,0.0
2324,44.0,26.0,30.0,0.0,0.0
2325,47.0,30.0,30.0,0.0,0.0
2326,61.0,4.0,60.0,0.0,0.0
2327,45.0,26.0,30.0,0.0,0.0
2328,44.0,30.0,30.0,0.0,0.0
2329,60.0,4.0,60.0,0.0,0.0
2330,52.0,0.0,60.0,0.0,0.0
2331,45.0,26.0,30.0,0.0,0.0
2332,48.0,30.0,30.0,0.0,0.0
2333,60.0,4.0,60.0,0.0,0.0
2334,52.0,0.0,60.0,0.0,0.0
2335,42.0,26.0,30.0,0.0,0.0
2336,43.0,30.0,30.0,0.0,0.0
2337,45.0,26.0,30.0,0.0,0.0
2338,59.0,4.0,60.0,0.0,0.0
2339,51.0,0.0,60.0,0.0,0.0
2340,43.0,30.0,30.0,0.0,0.0
2341,45.0,30.0,30.0,0.0,0.0
2342,51.0,30.0,30.0,0.0,0.0
2343,54.0,30.0,30.0,0.0,0.0
2344,45.0,30.0,30.0,0.0,0.0
2345,64.0,0.0,30.0,0.0,0.0
2346,43.0,0.0,30.0,0.0,0.0
2347,66.0,0.0,30.0,0.0,0.0
2348,42.0,0.0,30.0,0.0,0.0
2349,40.0,0.0,30.0,0.0,0.0
2350,67.0,0.0,30.0,0.0,0.0
2351,69.0,0.0,30.0,0.0,0.0
2352,42.0,0.0,30.0,0.0,0.0
2353,71.0,0.0,30.0,0.0,0.0
2354,43.0,30.0,30.0,0.0,0.0
2355,67.0,0.0,30.0,0.0,0.0
2356,45.0,0.0,30.0,0.0,0.0
2357,66.0,0.0,30.0,0.0,0.0
2358,47.0,0.0,30.0,0.0,0.0
2359,64.0,0.0,30.0,0.0,0.0
2360,48.0,0.0,30.0,0.0,0.0
2361,63.0,0.0,30.0,0.0,0.0
2362,48.0,4.0,60.0,0.0,0.0
2363,64.0,0.0,30.0,0.0,0.0
2364,39.0,4.0,60.0,0.0,0.0
2365,66.0,0.0,30.0,0.0,0.0
2366,60.0,0.0,30.0,0.0,0.0
2367,59.0,0.0,120.0,0.0,0.0
2368,57.0,30.0,30.0,0.0,0.0
2369,55.0,19.0,30.0,0.0,0.0
2370,54.0,30.0,30.0,0.0,0.0
2371,52.0,30.0,30.0,0.0,0.0
2372,59.0,30.0,30.0,0.0,0.0
2373,76.0,4.0,60.0,0.0,0.0
2374,67.0,0.0,60.0,0.0,0.0
2375,52.0,26.0,30.0,0.0,0.0
2376,59.0,30.0,30.0,0.0,0.0
2377,78.0,11.0,120.0,0.0,0.0
2378,69.0,0.0,120.0,0.0,0.0
2379,51.0,30.0,30.0,0.0,0.0
2380,59.0,30.0,30.0,0.0,0.0
2381,51.0,19.0,30.0,0.0,0.0
2382,59.0,30.0,30.0,0.0,0.0
2383,52.0,30.0,30.0,0.0,0.0
2384,59.0,30.0,30.0,0.0,0.0
2385,76.0,4.0,60.0,0.0,0.0
2386,67.0,0.0,60.0,0.0,0.0
2387,52.0,26.0,30.0,0.0,0.0
2388,59.0,30.0,30.0,0.0,0.0
2389,75.0,11.0,120.0,0.0,0.0
2390,66.0,0.0,120.0,0.0,0.0
2391,47.0,30.0,30.0,0.0,0.0
2392,59.0,30.0,30.0,0.0,0.0
2393,47.0,19.0,30.0,0.0,0.0
2394,59.0,30.0,30.0,0.0,0.0
2395,52.0,30.0,30.0,0.0,0.0
2396,54.0,30.0,30.0,0.0,0.0
2397,63.0,0.0,30.0,0.0,0.0
2398,55.0,0.0,30.0,0.0,0.0
2399,64.0,30.0,30.0,0.0,0.0
2400,66.0,17.0,30.0,0.0,0.0
2401,57.0,0.0,30.0,0.0,0.0
2402,67.0,13.0,15.0,0.0,0.0
2403,59.0,2.0,30.0,0.0,0.0
2404,66.0,28.0,15.0,0.0,0.0
2405,64.0,0.0,30.0,0.0,0.0
2406,55.0,30.0,30.0,0.0,0.0
2407,69.0,0.0,60.0,0.0,0.0
2408,72.0,4.0,60.0,0.0,0.0
2409,54.0,26.0,30.0,0.0,0.0
2410,52.0,30.0,30.0,0.0,0.0
2411,72.0,4.0,60.0,0.0,0.0
2412,51.0,26.0,30.0,0.0,0.0
2413,69.0,0.0,60.0,0.0,0.0
2414,52.0,30.0,30.0,0.0,0.0
2415,54.0,26.0,30.0,0.0,0.0
2416,71.0,4.0,60.0,0.0,0.0
2417,63.0,0.0,60.0,0.0,0.0
2418,48.0,30.0,30.0,0.0,0.0
2419,47.0,30.0,30.0,0.0,0.0
2420,45.0,30.0,30.0,0.0,0.0
2421,43.0,30.0,30.0,0.0,0.0
2422,42.0,30.0,30.0,0.0,0.0
2423,40.0,30.0,30.0,0.0,0.0
2424,52.0,30.0,30.0,0.0,0.0
2425,67.0,0.0,60.0,0.0,0.0
2426,64.0,4.0,60.0,0.0,0.0
2427,40.0,26.0,30.0,0.0,0.0
2428,52.0,30.0,30.0,0.0,0.0
2429,69.0,4.0,60.0,0.0,0.0
2430,65.0,0.0,60.0,0.0,0.0
2431,50.0,26.0,30.0,0.0,0.0
2432,59.0,30.0,30.0,0.0,0.0
2433,68.0,0.0,60.0,0.0,0.0
2434,64.0,4.0,60.0,0.0,0.0
2435,50.0,26.0,30.0,0.0,0.0
2436,59.0,30.0,30.0,0.0,0.0
2437,48.0,30.0,30.0,0.0,0.0
2438,57.0,30.0,30.0,0.0,0.0
2439,48.0,26.0,30.0,0.0,0.0
2440,69.0,4.0,60.0,0.0,0.0
2441,64.0,0.0,60.0,0.0,0.0
2442,57.0,30.0,30.0,0.0,0.0
2443,74.0,4.0,60.0,0.0,0.0
2444,65.0,0.0,60.0,0.0,0.0
2445,47.0,26.0,30.0,0.0,0.0
2446,56.0,30.0,30.0,0.0,0.0
2447,47.0,26.0,30.0,0.0,0.0
2448,62.0,0.0,60.0,0.0,0.0
2449,71.0,4.0,60.0,0.0,0.0
2450,56.0,30.0,30.0,0.0,0.0
2451,45.0,30.0,30.0,0.0,0.0
2452,57.0,30.0,30.0,0.0,0.0
2453,72.0,0.0,60.0,0.0,0.0
2454,64.0,4.0,60.0,0.0,0.0
2455,45.0,26.0,30.0,0.0,0.0
2456,57.0,30.0,30.0,0.0,0.0
2457,74.0,0.0,60.0,0.0,0.0
2458,55.0,26.0,30.0,0.0,0.0
2459,70.0,4.0,60.0,0.0,0.0
2460,64.0,30.0,30.0,0.0,0.0
2461,73.0,4.0,60.0,0.0,0.0
2462,69.0,0.0,60.0,0.0,0.0
2463,55.0,26.0,30.0,0.0,0.0
2464,64.0,30.0,30.0,0.0,0.0
2465,54.0,30.0,30.0,0.0,0.0
2466,63.0,30.0,30.0,0.0,0.0
2467,78.0,0.0,60.0,0.0,0.0
2468,72.0,26.0,30.0,0.0,0.0
2469,69.0,4.0,60.0,0.0,0.0
2470,54.0,0.0,30.0,0.0,0.0
2471,63.0,30.0,30.0,0.0,0.0
2472,71.0,0.0,30.0,0.0,0.0
2473,78.0,0.0,60.0,0.0,0.0
2474,69.0,4.0,60.0,0.0,0.0
2475,72.0,0.0,60.0,0.0,0.0
2476,52.0,26.0,30.0,0.0,0.0
2477,64.0,30.0,30.0,0.0,0.0
2478,52.0,26.0,30.0,0.0,0.0
2479,69.0,0.0,60.0,0.0,0.0
2480,78.0,0.0,60.0,0.0,0.0
2481,72.0,4.0,60.0,0.0,0.0
2482,64.0,30.0,30.0,0.0,0.0
2483,72.0,11.0,120.0,0.0,0.0
2484,69.0,0.0,120.0,0.0,0.0
2485,63.0,30.0,30.0,0.0,0.0
2486,78.0,0.0,120.0,0.0,0.0
2487,64.0,30.0,30.0,0.0,0.0
2488,66.0,19.0,30.0,0.0,0.0
2489,60.0,30.0,30.0,0.0,0.0
2490,59.0,30.0,30.0,0.0,0.0
2491,72.0,0.0,30.0,0.0,0.0
2492,57.0,30.0,30.0,0.0,0.0
2493,71.0,30.0,30.0,0.0,0.0
2494,55.0,0.0,30.0,0.0,0.0
2495,54.0,0.0,30.0,0.0,0.0
2496,69.0,30.0,30.0,0.0,0.0
2497,67.0,26.0,30.0,0.0,0.0
2498,52.0,4.0,60.0,0.0,0.0
2499,69.0,30.0,30.0,0.0,0.0
2500,71.0,26.0,30.0,0.0,0.0
2501,55.0,4.0,60.0,0.0,0.0
2502,64.0,30.0,30.0,0.0,0.0
2503,57.0,4.0,60.0,0.0,0.0
2504,67.0,26.0,30.0,0.0,0.0
2505,66.0,30.0,30.0,0.0,0.0
2506,64.0,26.0,30.0,0.0,0.0
2507,59.0,4.0,60.0,0.0,0.0
2508,63.0,30.0,30.0,0.0,0.0
2509,64.0,26.0,30.0,0.0,0.0
2510,60.0,0.0,60.0,0.0,0.0
2511,67.0,30.0,30.0,0.0,0.0
2512,64.0,26.0,30.0,0.0,0.0
2513,48.0,4.0,60.0,0.0,0.0
2514,67.0,30.0,30.0,0.0,0.0
2515,62.0,30.0,30.0,0.0,0.0
2516,71.0,30.0,30.0,0.0,0.0
2517,44.0,0.0,60.0,0.0,0.0
2518,62.0,26.0,30.0,0.0,0.0
2519,53.0,0.0,60.0,0.0,0.0
2520,47.0,4.0,60.0,0.0,0.0
2521,71.0,30.0,30.0,0.0,0.0
2522,61.0,30.0,30.0,0.0,0.0
2523,69.0,30.0,30.0,0.0,0.0
2524,52.0,4.0,60.0,0.0,0.0
2525,45.0,0.0,30.0,0.0,0.0
2526,61.0,26.0,30.0,0.0,0.0
2527,69.0,0.0,30.0,0.0,0.0
2528,47.0,30.0,30.0,0.0,0.0
2529,57.0,26.0,30.0,0.0,0.0
2530,52.0,4.0,60.0,0.0,0.0
2531,49.0,0.0,60.0,0.0,0.0
2532,67.0,30.0,30.0,0.0,0.0
2533,57.0,26.0,30.0,0.0,0.0
2534,49.0,0.0,60.0,0.0,0.0
2535,52.0,4.0,60.0,0.0,0.0
2536,67.0,30.0,30.0,0.0,0.0
2537,50.0,7.0,120.0,0.0,0.0
2538,62.0,26.0,30.0,0.0,0.0
2539,48.0,4.0,60.0,0.0,0.0
2540,66.0,30.0,30.0,0.0,0.0
2541,62.0,19.0,30.0,0.0,0.0
2542,38.0,4.0,60.0,0.0,0.0
2543,66.0,30.0,30.0,0.0,0.0
2544,60.0,30.0,30.0,0.0,0.0
2545,69.0,30.0,30.0,0.0,0.0
2546,60.0,26.0,30.0,0.0,0.0
2547,51.0,0.0,60.0,0.0,0.0
2548,42.0,0.0,60.0,0.0,0.0
2549,45.0,4.0,60.0,0.0,0.0
2550,69.0,30.0,30.0,0.0,0.0
2551,59.0,30.0,30.0,0.0,0.0
2552,67.0,30.0,30.0,0.0,0.0
2553,59.0,0.0,30.0,0.0,0.0
2554,50.0,4.0,60.0,0.0,0.0
2555,43.0,26.0,30.0,0.0,0.0
2556,67.0,30.0,30.0,0.0,0.0
2557,45.0,0.0,30.0,0.0,0.0
2558,47.0,4.0,60.0,0.0,0.0
2559,55.0,26.0,30.0,0.0,0.0
2560,50.0,0.0,60.0,0.0,0.0
2561,66.0,30.0,30.0,0.0,0.0
2562,47.0,0.0,60.0,0.0,0.0
2563,55.0,26.0,30.0,0.0,0.0
2564,50.0,4.0,60.0,0.0,0.0
2565,66.0,30.0,30.0,0.0,0.0
2566,60.0,26.0,30.0,0.0,0.0
2567,48.0,7.0,120.0,0.0,0.0
2568,47.0,4.0,60.0,0.0,0.0
2569,64.0,30.0,30.0,0.0,0.0
2570,36.0,4.0,60.0,0.0,0.0
2571,60.0,19.0,30.0,0.0,0.0
2572,64.0,30.0,30.0,0.0,0.0
2573,59.0,30.0,30.0,0.0,0.0
2574,67.0,30.0,30.0,0.0,0.0
2575,59.0,26.0,30.0,0.0,0.0
2576,50.0,0.0,60.0,0.0,0.0
2577,40.0,4.0,60.0,0.0,0.0
2578,43.0,0.0,60.0,0.0,0.0
2579,67.0,30.0,30.0,0.0,0.0
2580,58.0,30.0,30.0,0.0,0.0
2581,66.0,30.0,30.0,0.0,0.0
2582,49.0,4.0,60.0,0.0,0.0
2583,42.0,0.0,30.0,0.0,0.0
2584,58.0,26.0,30.0,0.0,0.0
2585,66.0,30.0,30.0,0.0,0.0
2586,44.0,0.0,30.0,0.0,0.0
2587,54.0,26.0,30.0,0.0,0.0
2588,49.0,0.0,60.0,0.0,0.0
2589,46.0,4.0,60.0,0.0,0.0
2590,64.0,30.0,30.0,0.0,0.0
2591,54.0,26.0,30.0,0.0,0.0
2592,48.0,4.0,60.0,0.0,0.0
2593,45.0,4.0,120.0,0.0,0.0
2594,64.0,30.0,30.0,0.0,0.0
2595,63.0,26.0,30.0,0.0,0.0
2596,47.0,0.0,60.0,0.0,0.0
2597,59.0,30.0,30.0,0.0,0.0
2598,64.0,30.0,30.0,0.0,0.0
2599,43.0,0.0,30.0,0.0,0.0
2600,45.0,0.0,30.0,0.0,0.0
2601,66.0,30.0,30.0,0.0,0.0
2602,67.0,0.0,60.0,0.0,0.0
2603,47.0,30.0,60.0,0.0,0.0
2604,59.0,30.0,60.0,0.0,0.0
2605,63.0,26.0,120.0,0.0,0.0
2606,66.0,0.0,120.0,0.0,0.0
2607,35.0,60.0,60.0,0.0,0.0
2608,57.0,0.0,90.0,0.0,0.0
2609,40.0,25.0,90.0,0.0,0.0
2610,55.0,6.0,60.0,0.0,0.0
2611,59.0,0.0,60.0,0.0,0.0
2612,64.0,0.0,60.0,0.0,0.0
2613,43.0,9.0,15.0,0.0,0.0
2614,47.0,107.0,15.0,0.0,0.0
2615,52.0,0.0,120.0,0.0,0.0
