,note,step,duration,channel,velocity
0,39.0,240.0,240.0,2.0,0.0
1,67.0,120.0,840.0,0.0,0.0
2,43.0,240.0,240.0,2.0,0.0
3,46.0,120.0,240.0,2.0,0.0
4,51.0,120.0,240.0,2.0,0.0
5,68.0,0.0,120.0,0.0,0.0
6,70.0,120.0,120.0,0.0,0.0
7,55.0,0.0,240.0,2.0,0.0
8,68.0,120.0,120.0,0.0,0.0
9,48.0,240.0,240.0,2.0,0.0
10,70.0,120.0,120.0,0.0,0.0
11,72.0,0.0,120.0,0.0,0.0
12,38.0,240.0,240.0,2.0,0.0
13,65.0,120.0,840.0,0.0,0.0
14,41.0,240.0,240.0,2.0,0.0
15,46.0,120.0,240.0,2.0,0.0
16,50.0,0.0,240.0,2.0,0.0
17,67.0,120.0,120.0,0.0,0.0
18,53.0,120.0,240.0,2.0,0.0
19,68.0,120.0,120.0,0.0,0.0
20,67.0,0.0,120.0,0.0,0.0
21,46.0,0.0,240.0,2.0,0.0
22,68.0,120.0,120.0,0.0,0.0
23,70.0,240.0,120.0,0.0,0.0
24,67.0,120.0,840.0,1.0,0.0
25,36.0,240.0,240.0,2.0,0.0
26,63.0,0.0,720.0,0.0,0.0
27,39.0,240.0,240.0,2.0,0.0
28,43.0,120.0,240.0,2.0,0.0
29,75.0,0.0,960.0,0.0,0.0
30,48.0,0.0,240.0,2.0,0.0
31,68.0,120.0,120.0,1.0,0.0
32,43.0,0.0,240.0,2.0,0.0
33,70.0,120.0,120.0,1.0,0.0
34,68.0,120.0,120.0,1.0,0.0
35,70.0,120.0,120.0,1.0,0.0
36,45.0,0.0,240.0,2.0,0.0
37,72.0,240.0,120.0,1.0,0.0
38,34.0,120.0,240.0,2.0,0.0
39,65.0,120.0,840.0,1.0,0.0
40,77.0,120.0,120.0,0.0,0.0
41,38.0,120.0,240.0,2.0,0.0
42,75.0,0.0,120.0,0.0,0.0
43,74.0,120.0,120.0,0.0,0.0
44,41.0,120.0,240.0,2.0,0.0
45,75.0,0.0,120.0,0.0,0.0
46,46.0,120.0,240.0,2.0,0.0
47,77.0,0.0,240.0,0.0,0.0
48,67.0,0.0,120.0,1.0,0.0
49,50.0,120.0,240.0,2.0,0.0
50,68.0,120.0,120.0,1.0,0.0
51,67.0,0.0,120.0,1.0,0.0
52,68.0,120.0,120.0,1.0,0.0
53,41.0,120.0,240.0,2.0,0.0
54,70.0,0.0,120.0,1.0,0.0
55,63.0,120.0,720.0,1.0,0.0
56,43.0,120.0,120.0,2.0,0.0
57,41.0,120.0,120.0,2.0,0.0
58,43.0,0.0,120.0,2.0,0.0
59,70.0,120.0,120.0,0.0,0.0
60,44.0,0.0,120.0,2.0,0.0
61,68.0,120.0,120.0,0.0,0.0
62,46.0,120.0,360.0,2.0,0.0
63,67.0,120.0,120.0,0.0,0.0
64,65.0,0.0,120.0,0.0,0.0
65,67.0,120.0,240.0,0.0,0.0
66,75.0,0.0,960.0,1.0,0.0
67,39.0,0.0,120.0,2.0,0.0
68,68.0,0.0,120.0,0.0,0.0
69,41.0,120.0,120.0,2.0,0.0
70,67.0,120.0,120.0,0.0,0.0
71,43.0,0.0,120.0,2.0,0.0
72,65.0,0.0,120.0,0.0,0.0
73,44.0,120.0,120.0,2.0,0.0
74,67.0,0.0,120.0,0.0,0.0
75,46.0,120.0,120.0,2.0,0.0
76,63.0,120.0,240.0,0.0,0.0
77,48.0,120.0,120.0,2.0,0.0
78,46.0,0.0,120.0,2.0,0.0
79,44.0,0.0,120.0,2.0,0.0
80,77.0,120.0,120.0,1.0,0.0
81,72.0,120.0,240.0,0.0,0.0
82,43.0,0.0,120.0,2.0,0.0
83,75.0,0.0,120.0,1.0,0.0
84,70.0,0.0,240.0,0.0,0.0
85,74.0,0.0,120.0,1.0,0.0
86,44.0,120.0,120.0,2.0,0.0
87,48.0,120.0,120.0,2.0,0.0
88,75.0,0.0,120.0,1.0,0.0
89,68.0,120.0,240.0,0.0,0.0
90,77.0,0.0,240.0,1.0,0.0
91,38.0,120.0,120.0,2.0,0.0
92,41.0,0.0,120.0,2.0,0.0
93,39.0,120.0,120.0,2.0,0.0
94,74.0,120.0,240.0,0.0,0.0
95,38.0,0.0,120.0,2.0,0.0
96,36.0,120.0,120.0,2.0,0.0
97,77.0,120.0,240.0,0.0,0.0
98,34.0,0.0,120.0,2.0,0.0
99,67.0,0.0,480.0,0.0,0.0
100,39.0,120.0,120.0,2.0,0.0
101,38.0,120.0,120.0,2.0,0.0
102,39.0,120.0,120.0,2.0,0.0
103,70.0,0.0,120.0,1.0,0.0
104,68.0,0.0,120.0,1.0,0.0
105,41.0,120.0,120.0,2.0,0.0
106,43.0,120.0,120.0,2.0,0.0
107,75.0,120.0,240.0,0.0,0.0
108,67.0,0.0,120.0,1.0,0.0
109,65.0,0.0,120.0,1.0,0.0
110,44.0,0.0,120.0,2.0,0.0
111,46.0,120.0,120.0,2.0,0.0
112,67.0,0.0,240.0,1.0,0.0
113,75.0,120.0,480.0,0.0,0.0
114,48.0,120.0,120.0,2.0,0.0
115,41.0,120.0,120.0,2.0,0.0
116,68.0,0.0,120.0,1.0,0.0
117,43.0,0.0,120.0,2.0,0.0
118,67.0,0.0,120.0,1.0,0.0
119,44.0,120.0,120.0,2.0,0.0
120,65.0,0.0,120.0,1.0,0.0
121,74.0,120.0,240.0,0.0,0.0
122,41.0,0.0,120.0,2.0,0.0
123,67.0,0.0,120.0,1.0,0.0
124,63.0,120.0,240.0,1.0,0.0
125,43.0,120.0,120.0,2.0,0.0
126,41.0,0.0,120.0,2.0,0.0
127,39.0,120.0,120.0,2.0,0.0
128,72.0,0.0,240.0,1.0,0.0
129,38.0,240.0,120.0,2.0,0.0
130,39.0,120.0,360.0,2.0,0.0
131,70.0,0.0,240.0,1.0,0.0
132,79.0,120.0,240.0,0.0,0.0
133,68.0,120.0,240.0,1.0,0.0
134,77.0,0.0,480.0,0.0,0.0
135,38.0,0.0,120.0,2.0,0.0
136,36.0,120.0,120.0,2.0,0.0
137,74.0,0.0,240.0,1.0,0.0
138,34.0,120.0,120.0,2.0,0.0
139,77.0,120.0,240.0,1.0,0.0
140,70.0,0.0,360.0,0.0,0.0
141,36.0,120.0,120.0,2.0,0.0
142,38.0,0.0,120.0,2.0,0.0
143,39.0,120.0,120.0,2.0,0.0
144,67.0,0.0,480.0,1.0,0.0
145,72.0,120.0,120.0,0.0,0.0
146,38.0,0.0,120.0,2.0,0.0
147,39.0,0.0,120.0,2.0,0.0
148,70.0,120.0,120.0,0.0,0.0
149,41.0,0.0,120.0,2.0,0.0
150,68.0,120.0,120.0,0.0,0.0
151,39.0,120.0,120.0,2.0,0.0
152,67.0,0.0,240.0,0.0,0.0
153,38.0,120.0,120.0,2.0,0.0
154,72.0,120.0,240.0,0.0,0.0
155,75.0,0.0,15.0,1.0,0.0
156,36.0,120.0,120.0,2.0,0.0
157,38.0,0.0,120.0,2.0,0.0
158,39.0,120.0,120.0,2.0,0.0
159,67.0,0.0,240.0,0.0,0.0
160,36.0,0.0,120.0,2.0,0.0
161,38.0,120.0,120.0,2.0,0.0
162,70.0,0.0,240.0,0.0,0.0
163,74.0,120.0,240.0,1.0,0.0
164,39.0,0.0,120.0,2.0,0.0
165,69.0,120.0,240.0,0.0,0.0
166,41.0,120.0,120.0,2.0,0.0
167,39.0,0.0,120.0,2.0,0.0
168,41.0,120.0,120.0,2.0,0.0
169,70.0,0.0,240.0,0.0,0.0
170,43.0,120.0,120.0,2.0,0.0
171,72.0,120.0,480.0,0.0,0.0
172,79.0,120.0,240.0,1.0,0.0
173,41.0,120.0,120.0,2.0,0.0
174,39.0,0.0,120.0,2.0,0.0
175,38.0,120.0,120.0,2.0,0.0
176,77.0,0.0,240.0,1.0,0.0
177,50.0,0.0,120.0,2.0,0.0
178,51.0,120.0,120.0,2.0,0.0
179,69.0,0.0,240.0,0.0,0.0
180,50.0,120.0,120.0,2.0,0.0
181,65.0,120.0,240.0,0.0,0.0
182,48.0,120.0,120.0,2.0,0.0
183,70.0,0.0,360.0,1.0,0.0
184,50.0,0.0,120.0,2.0,0.0
185,43.0,120.0,120.0,2.0,0.0
186,72.0,0.0,120.0,1.0,0.0
187,41.0,120.0,120.0,2.0,0.0
188,43.0,120.0,120.0,2.0,0.0
189,70.0,0.0,120.0,1.0,0.0
190,68.0,0.0,120.0,1.0,0.0
191,44.0,120.0,120.0,2.0,0.0
192,70.0,120.0,240.0,0.0,0.0
193,67.0,0.0,240.0,1.0,0.0
194,46.0,120.0,120.0,2.0,0.0
195,43.0,0.0,120.0,2.0,0.0
196,45.0,120.0,120.0,2.0,0.0
197,63.0,0.0,960.0,0.0,0.0
198,72.0,0.0,240.0,1.0,0.0
199,46.0,120.0,120.0,2.0,0.0
200,67.0,120.0,240.0,1.0,0.0
201,48.0,120.0,120.0,2.0,0.0
202,46.0,0.0,120.0,2.0,0.0
203,70.0,0.0,240.0,1.0,0.0
204,45.0,120.0,120.0,2.0,0.0
205,43.0,120.0,120.0,2.0,0.0
206,41.0,120.0,120.0,2.0,0.0
207,69.0,120.0,240.0,1.0,0.0
208,48.0,0.0,120.0,2.0,0.0
209,46.0,120.0,120.0,2.0,0.0
210,70.0,0.0,240.0,1.0,0.0
211,62.0,120.0,240.0,0.0,0.0
212,45.0,0.0,120.0,2.0,0.0
213,72.0,120.0,480.0,1.0,0.0
214,46.0,120.0,120.0,2.0,0.0
215,63.0,0.0,240.0,0.0,0.0
216,43.0,120.0,120.0,2.0,0.0
217,45.0,120.0,120.0,2.0,0.0
218,60.0,0.0,240.0,0.0,0.0
219,41.0,0.0,120.0,2.0,0.0
220,65.0,120.0,120.0,0.0,0.0
221,43.0,0.0,120.0,2.0,0.0
222,69.0,0.0,240.0,1.0,0.0
223,45.0,0.0,120.0,2.0,0.0
224,63.0,120.0,120.0,0.0,0.0
225,46.0,120.0,120.0,2.0,0.0
226,62.0,0.0,120.0,0.0,0.0
227,65.0,120.0,240.0,1.0,0.0
228,60.0,0.0,120.0,0.0,0.0
229,48.0,0.0,120.0,2.0,0.0
230,50.0,120.0,120.0,2.0,0.0
231,58.0,0.0,240.0,0.0,0.0
232,43.0,120.0,120.0,2.0,0.0
233,45.0,120.0,120.0,2.0,0.0
234,60.0,0.0,120.0,0.0,0.0
235,62.0,0.0,120.0,0.0,0.0
236,46.0,120.0,120.0,2.0,0.0
237,48.0,120.0,120.0,2.0,0.0
238,70.0,0.0,240.0,1.0,0.0
239,63.0,0.0,120.0,0.0,0.0
240,65.0,120.0,120.0,0.0,0.0
241,50.0,0.0,120.0,2.0,0.0
242,63.0,120.0,960.0,1.0,0.0
243,51.0,120.0,120.0,2.0,0.0
244,67.0,120.0,240.0,0.0,0.0
245,50.0,0.0,120.0,2.0,0.0
246,48.0,120.0,120.0,2.0,0.0
247,70.0,120.0,240.0,0.0,0.0
248,46.0,0.0,120.0,2.0,0.0
249,69.0,0.0,240.0,0.0,0.0
250,48.0,120.0,120.0,2.0,0.0
251,42.0,120.0,120.0,2.0,0.0
252,70.0,0.0,960.0,0.0,0.0
253,43.0,120.0,120.0,2.0,0.0
254,45.0,0.0,120.0,2.0,0.0
255,46.0,120.0,120.0,2.0,0.0
256,62.0,120.0,240.0,1.0,0.0
257,45.0,0.0,120.0,2.0,0.0
258,43.0,120.0,120.0,2.0,0.0
259,63.0,120.0,240.0,1.0,0.0
260,41.0,0.0,120.0,2.0,0.0
261,39.0,120.0,120.0,2.0,0.0
262,60.0,0.0,240.0,1.0,0.0
263,38.0,120.0,120.0,2.0,0.0
264,65.0,120.0,120.0,1.0,0.0
265,69.0,0.0,240.0,0.0,0.0
266,39.0,0.0,120.0,2.0,0.0
267,43.0,0.0,120.0,2.0,0.0
268,63.0,120.0,120.0,1.0,0.0
269,41.0,0.0,120.0,2.0,0.0
270,62.0,120.0,120.0,1.0,0.0
271,39.0,0.0,120.0,2.0,0.0
272,60.0,120.0,120.0,1.0,0.0
273,38.0,120.0,120.0,2.0,0.0
274,70.0,120.0,840.0,0.0,0.0
275,58.0,120.0,240.0,1.0,0.0
276,41.0,0.0,120.0,2.0,0.0
277,60.0,120.0,120.0,1.0,0.0
278,39.0,0.0,120.0,2.0,0.0
279,38.0,0.0,120.0,2.0,0.0
280,62.0,120.0,120.0,1.0,0.0
281,36.0,0.0,120.0,2.0,0.0
282,63.0,120.0,120.0,1.0,0.0
283,34.0,120.0,120.0,2.0,0.0
284,65.0,0.0,120.0,1.0,0.0
285,67.0,0.0,240.0,1.0,0.0
286,39.0,120.0,240.0,2.0,0.0
287,65.0,0.0,120.0,0.0,0.0
288,63.0,120.0,120.0,0.0,0.0
289,70.0,0.0,240.0,1.0,0.0
290,36.0,120.0,240.0,2.0,0.0
291,62.0,0.0,120.0,0.0,0.0
292,69.0,0.0,240.0,1.0,0.0
293,41.0,0.0,240.0,2.0,0.0
294,63.0,120.0,120.0,0.0,0.0
295,60.0,120.0,120.0,0.0,0.0
296,62.0,240.0,1440.0,0.0,0.0
297,70.0,0.0,1440.0,1.0,0.0
298,34.0,120.0,120.0,2.0,0.0
299,38.0,120.0,120.0,2.0,0.0
300,41.0,120.0,120.0,2.0,0.0
301,46.0,120.0,120.0,2.0,0.0
302,41.0,120.0,120.0,2.0,0.0
303,38.0,720.0,120.0,2.0,0.0
304,34.0,0.0,720.0,2.0,0.0
305,39.0,240.0,240.0,2.0,0.0
306,67.0,120.0,840.0,0.0,0.0
307,43.0,240.0,240.0,2.0,0.0
308,46.0,120.0,240.0,2.0,0.0
309,51.0,120.0,240.0,2.0,0.0
310,68.0,0.0,120.0,0.0,0.0
311,70.0,120.0,120.0,0.0,0.0
312,55.0,0.0,240.0,2.0,0.0
313,68.0,120.0,120.0,0.0,0.0
314,70.0,120.0,120.0,0.0,0.0
315,48.0,0.0,240.0,2.0,0.0
316,72.0,240.0,120.0,0.0,0.0
317,38.0,240.0,240.0,2.0,0.0
318,65.0,120.0,840.0,0.0,0.0
319,41.0,240.0,240.0,2.0,0.0
320,46.0,120.0,240.0,2.0,0.0
321,50.0,0.0,240.0,2.0,0.0
322,67.0,120.0,120.0,0.0,0.0
323,68.0,120.0,120.0,0.0,0.0
324,53.0,0.0,240.0,2.0,0.0
325,67.0,120.0,120.0,0.0,0.0
326,46.0,240.0,240.0,2.0,0.0
327,68.0,120.0,120.0,0.0,0.0
328,70.0,0.0,120.0,0.0,0.0
329,67.0,120.0,840.0,1.0,0.0
330,63.0,120.0,720.0,0.0,0.0
331,36.0,240.0,240.0,2.0,0.0
332,39.0,240.0,240.0,2.0,0.0
333,43.0,0.0,240.0,2.0,0.0
334,75.0,0.0,960.0,0.0,0.0
335,48.0,0.0,240.0,2.0,0.0
336,68.0,120.0,120.0,1.0,0.0
337,43.0,120.0,240.0,2.0,0.0
338,70.0,120.0,120.0,1.0,0.0
339,68.0,0.0,120.0,1.0,0.0
340,70.0,120.0,120.0,1.0,0.0
341,45.0,240.0,240.0,2.0,0.0
342,72.0,0.0,120.0,1.0,0.0
343,65.0,120.0,840.0,1.0,0.0
344,34.0,120.0,240.0,2.0,0.0
345,77.0,120.0,120.0,0.0,0.0
346,38.0,0.0,240.0,2.0,0.0
347,75.0,120.0,120.0,0.0,0.0
348,41.0,0.0,240.0,2.0,0.0
349,74.0,120.0,120.0,0.0,0.0
350,75.0,120.0,120.0,0.0,0.0
351,77.0,0.0,240.0,0.0,0.0
352,46.0,120.0,240.0,2.0,0.0
353,67.0,0.0,120.0,1.0,0.0
354,50.0,0.0,240.0,2.0,0.0
355,68.0,120.0,120.0,1.0,0.0
356,67.0,120.0,120.0,1.0,0.0
357,68.0,120.0,120.0,1.0,0.0
358,41.0,120.0,240.0,2.0,0.0
359,70.0,0.0,120.0,1.0,0.0
360,63.0,0.0,720.0,1.0,0.0
361,43.0,120.0,120.0,2.0,0.0
362,41.0,120.0,120.0,2.0,0.0
363,70.0,120.0,120.0,0.0,0.0
364,43.0,0.0,120.0,2.0,0.0
365,44.0,120.0,120.0,2.0,0.0
366,68.0,0.0,120.0,0.0,0.0
367,67.0,120.0,120.0,0.0,0.0
368,46.0,120.0,360.0,2.0,0.0
369,65.0,120.0,120.0,0.0,0.0
370,67.0,120.0,240.0,0.0,0.0
371,75.0,120.0,960.0,1.0,0.0
372,39.0,0.0,120.0,2.0,0.0
373,68.0,0.0,120.0,0.0,0.0
374,41.0,120.0,120.0,2.0,0.0
375,67.0,120.0,120.0,0.0,0.0
376,43.0,0.0,120.0,2.0,0.0
377,44.0,0.0,120.0,2.0,0.0
378,65.0,120.0,120.0,0.0,0.0
379,46.0,0.0,120.0,2.0,0.0
380,67.0,120.0,120.0,0.0,0.0
381,63.0,0.0,240.0,0.0,0.0
382,48.0,120.0,120.0,2.0,0.0
383,46.0,0.0,120.0,2.0,0.0
384,44.0,120.0,120.0,2.0,0.0
385,77.0,0.0,120.0,1.0,0.0
386,72.0,120.0,240.0,0.0,0.0
387,75.0,0.0,120.0,1.0,0.0
388,43.0,0.0,120.0,2.0,0.0
389,44.0,120.0,120.0,2.0,0.0
390,74.0,0.0,120.0,1.0,0.0
391,70.0,0.0,240.0,0.0,0.0
392,48.0,120.0,120.0,2.0,0.0
393,75.0,0.0,120.0,1.0,0.0
394,68.0,120.0,240.0,0.0,0.0
395,38.0,120.0,120.0,2.0,0.0
396,77.0,0.0,240.0,1.0,0.0
397,41.0,0.0,120.0,2.0,0.0
398,74.0,0.0,240.0,0.0,0.0
399,39.0,120.0,120.0,2.0,0.0
400,38.0,120.0,120.0,2.0,0.0
401,36.0,120.0,120.0,2.0,0.0
402,77.0,120.0,240.0,0.0,0.0
403,34.0,0.0,120.0,2.0,0.0
404,39.0,120.0,120.0,2.0,0.0
405,67.0,0.0,480.0,0.0,0.0
406,38.0,120.0,120.0,2.0,0.0
407,39.0,0.0,120.0,2.0,0.0
408,70.0,120.0,120.0,1.0,0.0
409,41.0,120.0,120.0,2.0,0.0
410,68.0,0.0,120.0,1.0,0.0
411,43.0,0.0,120.0,2.0,0.0
412,67.0,120.0,120.0,1.0,0.0
413,65.0,0.0,120.0,1.0,0.0
414,44.0,120.0,120.0,2.0,0.0
415,46.0,120.0,120.0,2.0,0.0
416,75.0,0.0,15.0,0.0,0.0
417,67.0,120.0,240.0,1.0,0.0
418,48.0,0.0,120.0,2.0,0.0
419,68.0,0.0,120.0,1.0,0.0
420,41.0,120.0,120.0,2.0,0.0
421,43.0,0.0,120.0,2.0,0.0
422,67.0,120.0,120.0,1.0,0.0
423,74.0,0.0,240.0,0.0,0.0
424,44.0,0.0,120.0,2.0,0.0
425,65.0,120.0,120.0,1.0,0.0
426,67.0,120.0,120.0,1.0,0.0
427,41.0,0.0,120.0,2.0,0.0
428,43.0,120.0,120.0,2.0,0.0
429,63.0,0.0,240.0,1.0,0.0
430,41.0,120.0,120.0,2.0,0.0
431,39.0,120.0,120.0,2.0,0.0
432,72.0,0.0,240.0,1.0,0.0
433,38.0,240.0,120.0,2.0,0.0
434,39.0,120.0,360.0,2.0,0.0
435,79.0,120.0,240.0,0.0,0.0
436,70.0,0.0,240.0,1.0,0.0
437,68.0,0.0,240.0,1.0,0.0
438,77.0,0.0,480.0,0.0,0.0
439,38.0,120.0,120.0,2.0,0.0
440,74.0,0.0,240.0,1.0,0.0
441,36.0,120.0,120.0,2.0,0.0
442,34.0,120.0,120.0,2.0,0.0
443,77.0,120.0,240.0,1.0,0.0
444,70.0,0.0,360.0,0.0,0.0
445,36.0,120.0,120.0,2.0,0.0
446,38.0,0.0,120.0,2.0,0.0
447,67.0,0.0,480.0,1.0,0.0
448,39.0,120.0,120.0,2.0,0.0
449,38.0,120.0,120.0,2.0,0.0
450,72.0,0.0,120.0,0.0,0.0
451,70.0,120.0,120.0,0.0,0.0
452,39.0,0.0,120.0,2.0,0.0
453,68.0,120.0,120.0,0.0,0.0
454,41.0,0.0,120.0,2.0,0.0
455,67.0,0.0,240.0,0.0,0.0
456,39.0,120.0,120.0,2.0,0.0
457,38.0,120.0,120.0,2.0,0.0
458,75.0,0.0,15.0,1.0,0.0
459,36.0,120.0,120.0,2.0,0.0
460,72.0,120.0,240.0,0.0,0.0
461,38.0,0.0,120.0,2.0,0.0
462,39.0,120.0,120.0,2.0,0.0
463,67.0,0.0,240.0,0.0,0.0
464,36.0,0.0,120.0,2.0,0.0
465,74.0,0.0,240.0,1.0,0.0
466,70.0,0.0,240.0,0.0,0.0
467,38.0,120.0,120.0,2.0,0.0
468,39.0,120.0,120.0,2.0,0.0
469,69.0,120.0,240.0,0.0,0.0
470,41.0,120.0,120.0,2.0,0.0
471,39.0,0.0,120.0,2.0,0.0
472,70.0,120.0,240.0,0.0,0.0
473,41.0,120.0,120.0,2.0,0.0
474,43.0,0.0,120.0,2.0,0.0
475,41.0,120.0,120.0,2.0,0.0
476,79.0,0.0,240.0,1.0,0.0
477,72.0,0.0,480.0,0.0,0.0
478,39.0,120.0,120.0,2.0,0.0
479,77.0,120.0,240.0,1.0,0.0
480,38.0,120.0,120.0,2.0,0.0
481,50.0,0.0,120.0,2.0,0.0
482,69.0,120.0,240.0,0.0,0.0
483,51.0,120.0,120.0,2.0,0.0
484,50.0,0.0,120.0,2.0,0.0
485,65.0,0.0,240.0,0.0,0.0
486,70.0,120.0,360.0,1.0,0.0
487,48.0,120.0,120.0,2.0,0.0
488,50.0,120.0,120.0,2.0,0.0
489,43.0,0.0,120.0,2.0,0.0
490,72.0,0.0,120.0,1.0,0.0
491,41.0,120.0,120.0,2.0,0.0
492,70.0,120.0,120.0,1.0,0.0
493,43.0,0.0,120.0,2.0,0.0
494,44.0,0.0,120.0,2.0,0.0
495,68.0,120.0,120.0,1.0,0.0
496,46.0,120.0,120.0,2.0,0.0
497,70.0,120.0,240.0,0.0,0.0
498,67.0,0.0,240.0,1.0,0.0
499,43.0,0.0,120.0,2.0,0.0
500,72.0,120.0,240.0,1.0,0.0
501,63.0,0.0,960.0,0.0,0.0
502,45.0,120.0,120.0,2.0,0.0
503,46.0,0.0,120.0,2.0,0.0
504,48.0,120.0,120.0,2.0,0.0
505,67.0,120.0,240.0,1.0,0.0
506,46.0,0.0,120.0,2.0,0.0
507,45.0,120.0,120.0,2.0,0.0
508,70.0,0.0,240.0,1.0,0.0
509,43.0,120.0,120.0,2.0,0.0
510,69.0,120.0,240.0,1.0,0.0
511,41.0,120.0,120.0,2.0,0.0
512,48.0,0.0,120.0,2.0,0.0
513,46.0,120.0,120.0,2.0,0.0
514,62.0,120.0,240.0,0.0,0.0
515,70.0,0.0,240.0,1.0,0.0
516,45.0,0.0,120.0,2.0,0.0
517,63.0,0.0,240.0,0.0,0.0
518,46.0,120.0,120.0,2.0,0.0
519,72.0,0.0,480.0,1.0,0.0
520,43.0,120.0,120.0,2.0,0.0
521,60.0,0.0,240.0,0.0,0.0
522,45.0,120.0,120.0,2.0,0.0
523,41.0,120.0,120.0,2.0,0.0
524,69.0,0.0,240.0,1.0,0.0
525,43.0,0.0,120.0,2.0,0.0
526,65.0,120.0,120.0,0.0,0.0
527,45.0,0.0,120.0,2.0,0.0
528,63.0,120.0,120.0,0.0,0.0
529,46.0,0.0,120.0,2.0,0.0
530,65.0,0.0,240.0,1.0,0.0
531,62.0,120.0,120.0,0.0,0.0
532,60.0,0.0,120.0,0.0,0.0
533,48.0,120.0,120.0,2.0,0.0
534,50.0,120.0,120.0,2.0,0.0
535,58.0,120.0,240.0,0.0,0.0
536,43.0,0.0,120.0,2.0,0.0
537,45.0,0.0,120.0,2.0,0.0
538,60.0,120.0,120.0,0.0,0.0
539,46.0,0.0,120.0,2.0,0.0
540,62.0,120.0,120.0,0.0,0.0
541,48.0,0.0,120.0,2.0,0.0
542,63.0,120.0,120.0,0.0,0.0
543,70.0,120.0,240.0,1.0,0.0
544,65.0,0.0,120.0,0.0,0.0
545,50.0,0.0,120.0,2.0,0.0
546,51.0,120.0,120.0,2.0,0.0
547,67.0,120.0,240.0,0.0,0.0
548,63.0,120.0,960.0,1.0,0.0
549,50.0,0.0,120.0,2.0,0.0
550,48.0,120.0,120.0,2.0,0.0
551,70.0,0.0,240.0,0.0,0.0
552,46.0,120.0,120.0,2.0,0.0
553,69.0,120.0,240.0,0.0,0.0
554,48.0,120.0,120.0,2.0,0.0
555,42.0,0.0,120.0,2.0,0.0
556,43.0,120.0,120.0,2.0,0.0
557,70.0,0.0,960.0,0.0,0.0
558,45.0,0.0,120.0,2.0,0.0
559,46.0,120.0,120.0,2.0,0.0
560,62.0,0.0,240.0,1.0,0.0
561,45.0,120.0,120.0,2.0,0.0
562,63.0,120.0,240.0,1.0,0.0
563,43.0,120.0,120.0,2.0,0.0
564,41.0,0.0,120.0,2.0,0.0
565,60.0,0.0,240.0,1.0,0.0
566,39.0,120.0,120.0,2.0,0.0
567,38.0,120.0,120.0,2.0,0.0
568,39.0,120.0,120.0,2.0,0.0
569,69.0,120.0,240.0,0.0,0.0
570,65.0,0.0,120.0,1.0,0.0
571,63.0,0.0,120.0,1.0,0.0
572,43.0,0.0,120.0,2.0,0.0
573,62.0,120.0,120.0,1.0,0.0
574,41.0,0.0,120.0,2.0,0.0
575,39.0,0.0,120.0,2.0,0.0
576,60.0,120.0,120.0,1.0,0.0
577,70.0,120.0,840.0,0.0,0.0
578,58.0,0.0,240.0,1.0,0.0
579,38.0,120.0,120.0,2.0,0.0
580,41.0,120.0,120.0,2.0,0.0
581,60.0,0.0,120.0,1.0,0.0
582,39.0,120.0,120.0,2.0,0.0
583,62.0,0.0,120.0,1.0,0.0
584,38.0,120.0,120.0,2.0,0.0
585,63.0,120.0,120.0,1.0,0.0
586,36.0,0.0,120.0,2.0,0.0
587,34.0,120.0,120.0,2.0,0.0
588,65.0,0.0,120.0,1.0,0.0
589,67.0,120.0,240.0,1.0,0.0
590,39.0,0.0,240.0,2.0,0.0
591,65.0,0.0,120.0,0.0,0.0
592,36.0,120.0,240.0,2.0,0.0
593,63.0,120.0,120.0,0.0,0.0
594,70.0,0.0,240.0,1.0,0.0
595,62.0,0.0,120.0,0.0,0.0
596,63.0,120.0,120.0,0.0,0.0
597,69.0,0.0,240.0,1.0,0.0
598,41.0,0.0,240.0,2.0,0.0
599,60.0,120.0,120.0,0.0,0.0
600,34.0,120.0,120.0,2.0,0.0
601,70.0,0.0,1440.0,1.0,0.0
602,62.0,240.0,1440.0,0.0,0.0
603,38.0,120.0,120.0,2.0,0.0
604,41.0,120.0,120.0,2.0,0.0
605,46.0,120.0,120.0,2.0,0.0
606,41.0,120.0,120.0,2.0,0.0
607,38.0,720.0,120.0,2.0,0.0
608,34.0,0.0,720.0,2.0,0.0
609,46.0,240.0,240.0,2.0,0.0
610,50.0,240.0,240.0,2.0,0.0
611,53.0,240.0,240.0,2.0,0.0
612,77.0,120.0,840.0,0.0,0.0
613,58.0,120.0,240.0,2.0,0.0
614,56.0,120.0,120.0,2.0,0.0
615,55.0,120.0,120.0,2.0,0.0
616,53.0,120.0,120.0,2.0,0.0
617,51.0,120.0,120.0,2.0,0.0
618,50.0,0.0,240.0,2.0,0.0
619,79.0,120.0,120.0,0.0,0.0
620,53.0,0.0,240.0,2.0,0.0
621,80.0,120.0,120.0,0.0,0.0
622,77.0,120.0,120.0,0.0,0.0
623,46.0,120.0,240.0,2.0,0.0
624,79.0,120.0,120.0,0.0,0.0
625,80.0,0.0,120.0,0.0,0.0
626,79.0,120.0,120.0,0.0,0.0
627,51.0,120.0,240.0,2.0,0.0
628,77.0,0.0,120.0,0.0,0.0
629,53.0,0.0,240.0,2.0,0.0
630,75.0,120.0,120.0,0.0,0.0
631,74.0,120.0,120.0,0.0,0.0
632,72.0,120.0,120.0,0.0,0.0
633,55.0,0.0,240.0,2.0,0.0
634,71.0,120.0,120.0,0.0,0.0
635,56.0,120.0,120.0,2.0,0.0
636,72.0,0.0,240.0,0.0,0.0
637,58.0,120.0,120.0,2.0,0.0
638,74.0,0.0,240.0,0.0,0.0
639,56.0,120.0,120.0,2.0,0.0
640,55.0,120.0,120.0,2.0,0.0
641,53.0,120.0,120.0,2.0,0.0
642,75.0,120.0,480.0,0.0,0.0
643,51.0,120.0,120.0,2.0,0.0
644,50.0,120.0,120.0,2.0,0.0
645,77.0,120.0,840.0,1.0,0.0
646,48.0,0.0,120.0,2.0,0.0
647,74.0,0.0,240.0,0.0,0.0
648,50.0,120.0,120.0,2.0,0.0
649,51.0,120.0,120.0,2.0,0.0
650,72.0,0.0,240.0,0.0,0.0
651,53.0,120.0,120.0,2.0,0.0
652,50.0,120.0,120.0,2.0,0.0
653,71.0,120.0,1200.0,0.0,0.0
654,55.0,120.0,240.0,2.0,0.0
655,79.0,0.0,120.0,1.0,0.0
656,80.0,120.0,120.0,1.0,0.0
657,50.0,0.0,240.0,2.0,0.0
658,77.0,120.0,120.0,1.0,0.0
659,51.0,0.0,240.0,2.0,0.0
660,79.0,120.0,120.0,1.0,0.0
661,80.0,120.0,120.0,1.0,0.0
662,79.0,120.0,120.0,1.0,0.0
663,53.0,0.0,120.0,2.0,0.0
664,77.0,0.0,120.0,1.0,0.0
665,56.0,120.0,120.0,2.0,0.0
666,75.0,120.0,120.0,1.0,0.0
667,55.0,0.0,120.0,2.0,0.0
668,74.0,0.0,120.0,1.0,0.0
669,53.0,0.0,120.0,2.0,0.0
670,72.0,0.0,120.0,1.0,0.0
671,51.0,120.0,120.0,2.0,0.0
672,71.0,0.0,120.0,1.0,0.0
673,50.0,120.0,120.0,2.0,0.0
674,51.0,120.0,120.0,2.0,0.0
675,72.0,120.0,240.0,1.0,0.0
676,53.0,0.0,120.0,2.0,0.0
677,51.0,120.0,120.0,2.0,0.0
678,74.0,120.0,240.0,1.0,0.0
679,50.0,0.0,120.0,2.0,0.0
680,48.0,120.0,120.0,2.0,0.0
681,75.0,120.0,480.0,1.0,0.0
682,46.0,120.0,120.0,2.0,0.0
683,44.0,120.0,120.0,2.0,0.0
684,65.0,120.0,960.0,0.0,0.0
685,43.0,0.0,120.0,2.0,0.0
686,41.0,120.0,120.0,2.0,0.0
687,74.0,120.0,240.0,1.0,0.0
688,43.0,0.0,120.0,2.0,0.0
689,72.0,0.0,240.0,1.0,0.0
690,44.0,120.0,120.0,2.0,0.0
691,41.0,240.0,120.0,2.0,0.0
692,71.0,0.0,1200.0,1.0,0.0
693,43.0,0.0,240.0,2.0,0.0
694,50.0,120.0,240.0,2.0,0.0
695,67.0,120.0,120.0,0.0,0.0
696,65.0,0.0,120.0,0.0,0.0
697,63.0,120.0,120.0,0.0,0.0
698,55.0,0.0,480.0,2.0,0.0
699,62.0,120.0,120.0,0.0,0.0
700,63.0,120.0,120.0,0.0,0.0
701,65.0,120.0,120.0,0.0,0.0
702,51.0,0.0,240.0,2.0,0.0
703,67.0,120.0,120.0,0.0,0.0
704,63.0,120.0,120.0,0.0,0.0
705,48.0,120.0,240.0,2.0,0.0
706,65.0,120.0,120.0,0.0,0.0
707,67.0,0.0,120.0,0.0,0.0
708,60.0,120.0,240.0,0.0,0.0
709,56.0,120.0,120.0,2.0,0.0
710,58.0,0.0,120.0,2.0,0.0
711,56.0,0.0,120.0,2.0,0.0
712,62.0,120.0,120.0,0.0,0.0
713,55.0,0.0,120.0,2.0,0.0
714,63.0,120.0,120.0,0.0,0.0
715,53.0,120.0,120.0,2.0,0.0
716,65.0,0.0,120.0,0.0,0.0
717,67.0,0.0,120.0,0.0,0.0
718,51.0,120.0,120.0,2.0,0.0
719,68.0,120.0,240.0,0.0,0.0
720,65.0,0.0,960.0,1.0,0.0
721,50.0,120.0,120.0,2.0,0.0
722,48.0,0.0,120.0,2.0,0.0
723,50.0,120.0,120.0,2.0,0.0
724,60.0,0.0,240.0,0.0,0.0
725,55.0,120.0,120.0,2.0,0.0
726,59.0,240.0,240.0,0.0,0.0
727,53.0,120.0,120.0,2.0,0.0
728,55.0,0.0,120.0,2.0,0.0
729,48.0,120.0,240.0,2.0,0.0
730,60.0,120.0,720.0,0.0,0.0
731,67.0,120.0,120.0,1.0,0.0
732,51.0,120.0,240.0,2.0,0.0
733,65.0,0.0,120.0,1.0,0.0
734,55.0,0.0,240.0,2.0,0.0
735,63.0,120.0,120.0,1.0,0.0
736,62.0,0.0,120.0,1.0,0.0
737,63.0,120.0,120.0,1.0,0.0
738,60.0,0.0,240.0,2.0,0.0
739,65.0,120.0,120.0,1.0,0.0
740,67.0,120.0,120.0,1.0,0.0
741,48.0,120.0,240.0,2.0,0.0
742,63.0,0.0,120.0,1.0,0.0
743,46.0,0.0,240.0,2.0,0.0
744,65.0,120.0,120.0,1.0,0.0
745,67.0,240.0,120.0,1.0,0.0
746,60.0,0.0,240.0,1.0,0.0
747,72.0,120.0,840.0,0.0,0.0
748,44.0,120.0,240.0,2.0,0.0
749,62.0,120.0,120.0,1.0,0.0
750,56.0,0.0,240.0,2.0,0.0
751,63.0,120.0,120.0,1.0,0.0
752,55.0,120.0,240.0,2.0,0.0
753,65.0,120.0,120.0,1.0,0.0
754,67.0,0.0,120.0,1.0,0.0
755,53.0,0.0,960.0,2.0,0.0
756,68.0,0.0,240.0,1.0,0.0
757,74.0,120.0,120.0,0.0,0.0
758,75.0,120.0,120.0,0.0,0.0
759,60.0,120.0,240.0,1.0,0.0
760,72.0,0.0,120.0,0.0,0.0
761,74.0,120.0,120.0,0.0,0.0
762,59.0,120.0,240.0,1.0,0.0
763,75.0,0.0,120.0,0.0,0.0
764,68.0,120.0,120.0,0.0,0.0
765,60.0,120.0,720.0,1.0,0.0
766,70.0,120.0,120.0,0.0,0.0
767,56.0,120.0,240.0,2.0,0.0
768,72.0,120.0,120.0,0.0,0.0
769,68.0,0.0,120.0,0.0,0.0
770,70.0,120.0,120.0,0.0,0.0
771,53.0,0.0,240.0,2.0,0.0
772,72.0,0.0,120.0,0.0,0.0
773,50.0,120.0,240.0,2.0,0.0
774,65.0,120.0,120.0,0.0,0.0
775,67.0,0.0,120.0,0.0,0.0
776,68.0,120.0,120.0,0.0,0.0
777,46.0,120.0,240.0,2.0,0.0
778,65.0,0.0,120.0,0.0,0.0
779,58.0,0.0,240.0,2.0,0.0
780,67.0,120.0,120.0,0.0,0.0
781,68.0,120.0,120.0,0.0,0.0
782,67.0,0.0,120.0,0.0,0.0
783,51.0,120.0,120.0,2.0,0.0
784,72.0,120.0,840.0,1.0,0.0
785,68.0,120.0,120.0,0.0,0.0
786,53.0,0.0,120.0,2.0,0.0
787,51.0,0.0,120.0,2.0,0.0
788,70.0,120.0,120.0,0.0,0.0
789,67.0,120.0,120.0,0.0,0.0
790,49.0,0.0,120.0,2.0,0.0
791,68.0,0.0,120.0,0.0,0.0
792,48.0,120.0,120.0,2.0,0.0
793,46.0,120.0,120.0,2.0,0.0
794,70.0,0.0,120.0,0.0,0.0
795,63.0,0.0,960.0,0.0,0.0
796,44.0,120.0,240.0,2.0,0.0
797,74.0,0.0,120.0,1.0,0.0
798,75.0,120.0,120.0,1.0,0.0
799,48.0,0.0,240.0,2.0,0.0
800,72.0,120.0,120.0,1.0,0.0
801,74.0,120.0,120.0,1.0,0.0
802,44.0,0.0,240.0,2.0,0.0
803,75.0,120.0,120.0,1.0,0.0
804,68.0,0.0,120.0,1.0,0.0
805,41.0,120.0,120.0,2.0,0.0
806,70.0,120.0,120.0,1.0,0.0
807,43.0,0.0,120.0,2.0,0.0
808,75.0,0.0,720.0,0.0,0.0
809,44.0,120.0,120.0,2.0,0.0
810,72.0,0.0,120.0,1.0,0.0
811,41.0,120.0,120.0,2.0,0.0
812,68.0,0.0,120.0,1.0,0.0
813,70.0,120.0,120.0,1.0,0.0
814,43.0,0.0,120.0,2.0,0.0
815,44.0,120.0,120.0,2.0,0.0
816,72.0,0.0,120.0,1.0,0.0
817,65.0,120.0,120.0,1.0,0.0
818,46.0,0.0,240.0,2.0,0.0
819,67.0,120.0,120.0,1.0,0.0
820,34.0,120.0,240.0,2.0,0.0
821,74.0,0.0,240.0,0.0,0.0
822,68.0,120.0,120.0,1.0,0.0
823,65.0,0.0,120.0,1.0,0.0
824,67.0,120.0,120.0,1.0,0.0
825,77.0,0.0,480.0,0.0,0.0
826,50.0,120.0,240.0,2.0,0.0
827,68.0,0.0,120.0,1.0,0.0
828,67.0,120.0,120.0,1.0,0.0
829,51.0,0.0,120.0,2.0,0.0
830,53.0,0.0,120.0,2.0,0.0
831,68.0,120.0,120.0,1.0,0.0
832,55.0,120.0,120.0,2.0,0.0
833,75.0,120.0,240.0,0.0,0.0
834,70.0,0.0,120.0,1.0,0.0
835,67.0,0.0,120.0,1.0,0.0
836,51.0,0.0,120.0,2.0,0.0
837,68.0,0.0,120.0,1.0,0.0
838,53.0,120.0,120.0,2.0,0.0
839,73.0,0.0,240.0,0.0,0.0
840,70.0,0.0,120.0,1.0,0.0
841,55.0,120.0,120.0,2.0,0.0
842,56.0,0.0,240.0,2.0,0.0
843,63.0,120.0,960.0,1.0,0.0
844,72.0,120.0,120.0,0.0,0.0
845,70.0,120.0,120.0,0.0,0.0
846,60.0,0.0,240.0,2.0,0.0
847,68.0,120.0,120.0,0.0,0.0
848,72.0,120.0,120.0,0.0,0.0
849,53.0,0.0,240.0,2.0,0.0
850,70.0,120.0,120.0,0.0,0.0
851,68.0,120.0,120.0,0.0,0.0
852,58.0,120.0,120.0,2.0,0.0
853,67.0,0.0,480.0,0.0,0.0
854,56.0,0.0,120.0,2.0,0.0
855,55.0,120.0,120.0,2.0,0.0
856,75.0,120.0,720.0,1.0,0.0
857,58.0,120.0,120.0,2.0,0.0
858,56.0,120.0,120.0,2.0,0.0
859,79.0,0.0,240.0,0.0,0.0
860,55.0,120.0,120.0,2.0,0.0
861,56.0,120.0,120.0,2.0,0.0
862,77.0,120.0,480.0,0.0,0.0
863,55.0,0.0,120.0,2.0,0.0
864,74.0,0.0,240.0,1.0,0.0
865,53.0,120.0,120.0,2.0,0.0
866,51.0,0.0,120.0,2.0,0.0
867,80.0,0.0,240.0,0.0,0.0
868,77.0,0.0,480.0,1.0,0.0
869,50.0,120.0,120.0,2.0,0.0
870,53.0,120.0,120.0,2.0,0.0
871,51.0,120.0,120.0,2.0,0.0
872,79.0,120.0,480.0,0.0,0.0
873,50.0,120.0,120.0,2.0,0.0
874,75.0,0.0,240.0,1.0,0.0
875,48.0,120.0,120.0,2.0,0.0
876,46.0,0.0,120.0,2.0,0.0
877,73.0,120.0,240.0,1.0,0.0
878,82.0,0.0,240.0,0.0,0.0
879,44.0,120.0,120.0,2.0,0.0
880,43.0,0.0,120.0,2.0,0.0
881,75.0,0.0,240.0,0.0,0.0
882,44.0,120.0,240.0,2.0,0.0
883,72.0,120.0,120.0,1.0,0.0
884,70.0,0.0,120.0,1.0,0.0
885,77.0,0.0,240.0,0.0,0.0
886,41.0,0.0,240.0,2.0,0.0
887,68.0,120.0,120.0,1.0,0.0
888,72.0,120.0,120.0,1.0,0.0
889,70.0,120.0,120.0,1.0,0.0
890,46.0,0.0,240.0,2.0,0.0
891,74.0,120.0,240.0,0.0,0.0
892,68.0,0.0,120.0,1.0,0.0
893,75.0,0.0,1440.0,0.0,0.0
894,67.0,240.0,1440.0,1.0,0.0
895,39.0,120.0,120.0,2.0,0.0
896,43.0,120.0,120.0,2.0,0.0
897,46.0,120.0,120.0,2.0,0.0
898,51.0,120.0,120.0,2.0,0.0
899,46.0,120.0,120.0,2.0,0.0
900,43.0,720.0,120.0,2.0,0.0
901,39.0,0.0,720.0,2.0,0.0
902,46.0,240.0,240.0,2.0,0.0
903,50.0,240.0,240.0,2.0,0.0
904,53.0,240.0,240.0,2.0,0.0
905,58.0,120.0,240.0,2.0,0.0
906,77.0,120.0,840.0,0.0,0.0
907,56.0,120.0,120.0,2.0,0.0
908,55.0,120.0,120.0,2.0,0.0
909,53.0,120.0,120.0,2.0,0.0
910,51.0,120.0,120.0,2.0,0.0
911,50.0,0.0,240.0,2.0,0.0
912,79.0,120.0,120.0,0.0,0.0
913,53.0,120.0,240.0,2.0,0.0
914,80.0,120.0,120.0,0.0,0.0
915,77.0,0.0,120.0,0.0,0.0
916,79.0,120.0,120.0,0.0,0.0
917,46.0,0.0,240.0,2.0,0.0
918,80.0,120.0,120.0,0.0,0.0
919,51.0,120.0,240.0,2.0,0.0
920,79.0,120.0,120.0,0.0,0.0
921,77.0,0.0,120.0,0.0,0.0
922,53.0,120.0,240.0,2.0,0.0
923,75.0,120.0,120.0,0.0,0.0
924,74.0,0.0,120.0,0.0,0.0
925,55.0,0.0,240.0,2.0,0.0
926,72.0,120.0,120.0,0.0,0.0
927,71.0,120.0,120.0,0.0,0.0
928,56.0,120.0,120.0,2.0,0.0
929,72.0,0.0,240.0,0.0,0.0
930,58.0,120.0,120.0,2.0,0.0
931,74.0,0.0,240.0,0.0,0.0
932,56.0,120.0,120.0,2.0,0.0
933,55.0,120.0,120.0,2.0,0.0
934,75.0,120.0,480.0,0.0,0.0
935,53.0,120.0,120.0,2.0,0.0
936,51.0,120.0,120.0,2.0,0.0
937,50.0,120.0,120.0,2.0,0.0
938,77.0,120.0,840.0,1.0,0.0
939,48.0,0.0,120.0,2.0,0.0
940,74.0,120.0,240.0,0.0,0.0
941,50.0,120.0,120.0,2.0,0.0
942,51.0,0.0,120.0,2.0,0.0
943,53.0,120.0,120.0,2.0,0.0
944,72.0,0.0,240.0,0.0,0.0
945,50.0,120.0,120.0,2.0,0.0
946,71.0,0.0,1200.0,0.0,0.0
947,55.0,120.0,240.0,2.0,0.0
948,79.0,0.0,120.0,1.0,0.0
949,50.0,120.0,240.0,2.0,0.0
950,80.0,120.0,120.0,1.0,0.0
951,77.0,0.0,120.0,1.0,0.0
952,79.0,120.0,120.0,1.0,0.0
953,51.0,120.0,240.0,2.0,0.0
954,80.0,0.0,120.0,1.0,0.0
955,53.0,0.0,120.0,2.0,0.0
956,79.0,120.0,120.0,1.0,0.0
957,56.0,0.0,120.0,2.0,0.0
958,77.0,120.0,120.0,1.0,0.0
959,55.0,0.0,120.0,2.0,0.0
960,75.0,120.0,120.0,1.0,0.0
961,74.0,0.0,120.0,1.0,0.0
962,53.0,120.0,120.0,2.0,0.0
963,51.0,120.0,120.0,2.0,0.0
964,72.0,0.0,120.0,1.0,0.0
965,71.0,120.0,120.0,1.0,0.0
966,50.0,0.0,120.0,2.0,0.0
967,72.0,0.0,240.0,1.0,0.0
968,51.0,120.0,120.0,2.0,0.0
969,53.0,120.0,120.0,2.0,0.0
970,74.0,120.0,240.0,1.0,0.0
971,51.0,120.0,120.0,2.0,0.0
972,50.0,0.0,120.0,2.0,0.0
973,48.0,120.0,120.0,2.0,0.0
974,75.0,0.0,480.0,1.0,0.0
975,46.0,120.0,120.0,2.0,0.0
976,65.0,120.0,960.0,0.0,0.0
977,44.0,120.0,120.0,2.0,0.0
978,43.0,120.0,120.0,2.0,0.0
979,74.0,0.0,240.0,1.0,0.0
980,41.0,120.0,120.0,2.0,0.0
981,43.0,120.0,120.0,2.0,0.0
982,72.0,240.0,240.0,1.0,0.0
983,44.0,120.0,120.0,2.0,0.0
984,41.0,0.0,120.0,2.0,0.0
985,43.0,0.0,240.0,2.0,0.0
986,71.0,0.0,1200.0,1.0,0.0
987,50.0,120.0,240.0,2.0,0.0
988,67.0,120.0,120.0,0.0,0.0
989,65.0,0.0,120.0,0.0,0.0
990,63.0,120.0,120.0,0.0,0.0
991,55.0,0.0,480.0,2.0,0.0
992,62.0,120.0,120.0,0.0,0.0
993,63.0,120.0,120.0,0.0,0.0
994,65.0,120.0,120.0,0.0,0.0
995,51.0,0.0,240.0,2.0,0.0
996,67.0,120.0,120.0,0.0,0.0
997,63.0,120.0,120.0,0.0,0.0
998,48.0,120.0,240.0,2.0,0.0
999,65.0,120.0,120.0,0.0,0.0
1000,67.0,0.0,120.0,0.0,0.0
1001,60.0,120.0,240.0,0.0,0.0
1002,56.0,120.0,120.0,2.0,0.0
1003,58.0,0.0,120.0,2.0,0.0
1004,56.0,120.0,120.0,2.0,0.0
1005,62.0,0.0,120.0,0.0,0.0
1006,63.0,120.0,120.0,0.0,0.0
1007,55.0,0.0,120.0,2.0,0.0
1008,65.0,0.0,120.0,0.0,0.0
1009,53.0,120.0,120.0,2.0,0.0
1010,67.0,120.0,120.0,0.0,0.0
1011,51.0,0.0,120.0,2.0,0.0
1012,50.0,120.0,120.0,2.0,0.0
1013,68.0,120.0,240.0,0.0,0.0
1014,65.0,120.0,960.0,1.0,0.0
1015,48.0,0.0,120.0,2.0,0.0
1016,60.0,120.0,240.0,0.0,0.0
1017,50.0,120.0,120.0,2.0,0.0
1018,55.0,0.0,120.0,2.0,0.0
1019,53.0,120.0,120.0,2.0,0.0
1020,59.0,240.0,240.0,0.0,0.0
1021,55.0,0.0,120.0,2.0,0.0
1022,48.0,0.0,240.0,2.0,0.0
1023,60.0,120.0,720.0,0.0,0.0
1024,67.0,120.0,120.0,1.0,0.0
1025,51.0,120.0,240.0,2.0,0.0
1026,65.0,0.0,120.0,1.0,0.0
1027,63.0,120.0,120.0,1.0,0.0
1028,55.0,0.0,240.0,2.0,0.0
1029,62.0,0.0,120.0,1.0,0.0
1030,63.0,120.0,120.0,1.0,0.0
1031,60.0,0.0,240.0,2.0,0.0
1032,65.0,120.0,120.0,1.0,0.0
1033,67.0,120.0,120.0,1.0,0.0
1034,48.0,0.0,240.0,2.0,0.0
1035,63.0,120.0,120.0,1.0,0.0
1036,46.0,0.0,240.0,2.0,0.0
1037,65.0,120.0,120.0,1.0,0.0
1038,67.0,240.0,120.0,1.0,0.0
1039,60.0,0.0,240.0,1.0,0.0
1040,72.0,120.0,840.0,0.0,0.0
1041,44.0,120.0,240.0,2.0,0.0
1042,62.0,120.0,120.0,1.0,0.0
1043,56.0,120.0,240.0,2.0,0.0
1044,63.0,0.0,120.0,1.0,0.0
1045,55.0,0.0,240.0,2.0,0.0
1046,65.0,120.0,120.0,1.0,0.0
1047,67.0,120.0,120.0,1.0,0.0
1048,53.0,120.0,960.0,2.0,0.0
1049,68.0,120.0,240.0,1.0,0.0
1050,74.0,0.0,120.0,0.0,0.0
1051,75.0,120.0,120.0,0.0,0.0
1052,60.0,0.0,240.0,1.0,0.0
1053,72.0,120.0,120.0,0.0,0.0
1054,59.0,0.0,240.0,1.0,0.0
1055,74.0,120.0,120.0,0.0,0.0
1056,75.0,120.0,120.0,0.0,0.0
1057,68.0,120.0,120.0,0.0,0.0
1058,60.0,0.0,720.0,1.0,0.0
1059,70.0,0.0,120.0,0.0,0.0
1060,56.0,120.0,240.0,2.0,0.0
1061,72.0,120.0,120.0,0.0,0.0
1062,68.0,0.0,120.0,0.0,0.0
1063,70.0,120.0,120.0,0.0,0.0
1064,53.0,0.0,240.0,2.0,0.0
1065,72.0,120.0,120.0,0.0,0.0
1066,50.0,120.0,240.0,2.0,0.0
1067,65.0,120.0,120.0,0.0,0.0
1068,67.0,0.0,120.0,0.0,0.0
1069,46.0,120.0,240.0,2.0,0.0
1070,68.0,120.0,120.0,0.0,0.0
1071,65.0,0.0,120.0,0.0,0.0
1072,67.0,120.0,120.0,0.0,0.0
1073,58.0,120.0,240.0,2.0,0.0
1074,68.0,0.0,120.0,0.0,0.0
1075,72.0,120.0,840.0,1.0,0.0
1076,67.0,120.0,120.0,0.0,0.0
1077,51.0,0.0,120.0,2.0,0.0
1078,68.0,0.0,120.0,0.0,0.0
1079,53.0,120.0,120.0,2.0,0.0
1080,70.0,0.0,120.0,0.0,0.0
1081,51.0,120.0,120.0,2.0,0.0
1082,67.0,120.0,120.0,0.0,0.0
1083,49.0,0.0,120.0,2.0,0.0
1084,48.0,0.0,120.0,2.0,0.0
1085,68.0,120.0,120.0,0.0,0.0
1086,46.0,120.0,120.0,2.0,0.0
1087,70.0,0.0,120.0,0.0,0.0
1088,63.0,120.0,960.0,0.0,0.0
1089,44.0,120.0,240.0,2.0,0.0
1090,74.0,0.0,120.0,1.0,0.0
1091,75.0,120.0,120.0,1.0,0.0
1092,48.0,120.0,240.0,2.0,0.0
1093,72.0,0.0,120.0,1.0,0.0
1094,74.0,120.0,120.0,1.0,0.0
1095,44.0,0.0,240.0,2.0,0.0
1096,75.0,120.0,120.0,1.0,0.0
1097,68.0,120.0,120.0,1.0,0.0
1098,41.0,0.0,120.0,2.0,0.0
1099,43.0,0.0,120.0,2.0,0.0
1100,70.0,0.0,120.0,1.0,0.0
1101,72.0,120.0,120.0,1.0,0.0
1102,75.0,0.0,720.0,0.0,0.0
1103,44.0,0.0,120.0,2.0,0.0
1104,68.0,120.0,120.0,1.0,0.0
1105,41.0,0.0,120.0,2.0,0.0
1106,43.0,0.0,120.0,2.0,0.0
1107,70.0,120.0,120.0,1.0,0.0
1108,44.0,120.0,120.0,2.0,0.0
1109,72.0,0.0,120.0,1.0,0.0
1110,46.0,0.0,240.0,2.0,0.0
1111,65.0,120.0,120.0,1.0,0.0
1112,67.0,120.0,120.0,1.0,0.0
1113,74.0,120.0,240.0,0.0,0.0
1114,68.0,120.0,120.0,1.0,0.0
1115,34.0,0.0,240.0,2.0,0.0
1116,65.0,0.0,120.0,1.0,0.0
1117,67.0,120.0,120.0,1.0,0.0
1118,77.0,0.0,480.0,0.0,0.0
1119,50.0,120.0,240.0,2.0,0.0
1120,68.0,0.0,120.0,1.0,0.0
1121,67.0,120.0,120.0,1.0,0.0
1122,51.0,0.0,120.0,2.0,0.0
1123,53.0,120.0,120.0,2.0,0.0
1124,68.0,0.0,120.0,1.0,0.0
1125,75.0,0.0,240.0,0.0,0.0
1126,55.0,0.0,120.0,2.0,0.0
1127,70.0,120.0,120.0,1.0,0.0
1128,51.0,0.0,120.0,2.0,0.0
1129,67.0,120.0,120.0,1.0,0.0
1130,73.0,0.0,240.0,0.0,0.0
1131,53.0,0.0,120.0,2.0,0.0
1132,68.0,120.0,120.0,1.0,0.0
1133,55.0,0.0,120.0,2.0,0.0
1134,70.0,120.0,120.0,1.0,0.0
1135,56.0,0.0,240.0,2.0,0.0
1136,72.0,120.0,120.0,0.0,0.0
1137,63.0,0.0,960.0,1.0,0.0
1138,70.0,120.0,120.0,0.0,0.0
1139,60.0,120.0,240.0,2.0,0.0
1140,68.0,120.0,120.0,0.0,0.0
1141,72.0,0.0,120.0,0.0,0.0
1142,70.0,120.0,120.0,0.0,0.0
1143,53.0,0.0,240.0,2.0,0.0
1144,68.0,120.0,120.0,0.0,0.0
1145,58.0,120.0,120.0,2.0,0.0
1146,67.0,0.0,480.0,0.0,0.0
1147,56.0,120.0,120.0,2.0,0.0
1148,55.0,120.0,120.0,2.0,0.0
1149,75.0,0.0,720.0,1.0,0.0
1150,58.0,120.0,120.0,2.0,0.0
1151,79.0,120.0,240.0,0.0,0.0
1152,56.0,120.0,120.0,2.0,0.0
1153,55.0,0.0,120.0,2.0,0.0
1154,56.0,120.0,120.0,2.0,0.0
1155,77.0,0.0,480.0,0.0,0.0
1156,55.0,120.0,120.0,2.0,0.0
1157,74.0,120.0,240.0,1.0,0.0
1158,53.0,120.0,120.0,2.0,0.0
1159,51.0,0.0,120.0,2.0,0.0
1160,77.0,120.0,480.0,1.0,0.0
1161,50.0,120.0,120.0,2.0,0.0
1162,80.0,120.0,240.0,0.0,0.0
1163,53.0,0.0,120.0,2.0,0.0
1164,51.0,120.0,120.0,2.0,0.0
1165,79.0,0.0,480.0,0.0,0.0
1166,50.0,0.0,120.0,2.0,0.0
1167,48.0,120.0,120.0,2.0,0.0
1168,75.0,0.0,240.0,1.0,0.0
1169,46.0,120.0,120.0,2.0,0.0
1170,82.0,0.0,240.0,0.0,0.0
1171,73.0,120.0,240.0,1.0,0.0
1172,44.0,120.0,120.0,2.0,0.0
1173,43.0,0.0,120.0,2.0,0.0
1174,44.0,0.0,240.0,2.0,0.0
1175,75.0,120.0,240.0,0.0,0.0
1176,72.0,120.0,120.0,1.0,0.0
1177,70.0,0.0,120.0,1.0,0.0
1178,77.0,0.0,240.0,0.0,0.0
1179,41.0,120.0,240.0,2.0,0.0
1180,68.0,120.0,120.0,1.0,0.0
1181,72.0,0.0,120.0,1.0,0.0
1182,46.0,120.0,240.0,2.0,0.0
1183,74.0,0.0,240.0,0.0,0.0
1184,70.0,120.0,120.0,1.0,0.0
1185,68.0,0.0,120.0,1.0,0.0
1186,75.0,0.0,1440.0,0.0,0.0
1187,67.0,0.0,1440.0,1.0,0.0
1188,39.0,120.0,120.0,2.0,0.0
1189,43.0,120.0,120.0,2.0,0.0
1190,46.0,120.0,120.0,2.0,0.0
1191,51.0,120.0,120.0,2.0,0.0
1192,46.0,120.0,120.0,2.0,0.0
1193,43.0,720.0,120.0,2.0,0.0
1194,39.0,0.0,720.0,2.0,0.0
