,note,step,duration,channel,velocity
0,63.0,0.0,120.0,0.0,0.0
1,72.0,30.0,30.0,0.0,0.0
2,60.0,11.0,120.0,0.0,0.0
3,67.0,0.0,120.0,0.0,0.0
4,74.0,30.0,30.0,0.0,0.0
5,75.0,19.0,30.0,0.0,0.0
6,77.0,30.0,30.0,0.0,0.0
7,79.0,30.0,30.0,0.0,0.0
8,75.0,30.0,30.0,0.0,0.0
9,74.0,30.0,30.0,0.0,0.0
10,72.0,30.0,30.0,0.0,0.0
11,71.0,30.0,30.0,0.0,0.0
12,62.0,0.0,120.0,0.0,0.0
13,65.0,0.0,120.0,0.0,0.0
14,60.0,11.0,120.0,0.0,0.0
15,72.0,30.0,30.0,0.0,0.0
16,74.0,19.0,30.0,0.0,0.0
17,68.0,30.0,30.0,0.0,0.0
18,67.0,30.0,30.0,0.0,0.0
19,65.0,30.0,30.0,0.0,0.0
20,63.0,30.0,30.0,0.0,0.0
21,62.0,30.0,30.0,0.0,0.0
22,60.0,30.0,30.0,0.0,0.0
23,67.0,30.0,30.0,0.0,0.0
24,75.0,4.0,60.0,0.0,0.0
25,72.0,0.0,60.0,0.0,0.0
26,60.0,26.0,30.0,0.0,0.0
27,67.0,30.0,30.0,0.0,0.0
28,59.0,30.0,30.0,0.0,0.0
29,75.0,0.0,60.0,0.0,0.0
30,72.0,19.0,60.0,0.0,0.0
31,67.0,11.0,30.0,0.0,0.0
32,59.0,7.0,30.0,0.0,0.0
33,74.0,0.0,30.0,0.0,0.0
34,77.0,23.0,30.0,0.0,0.0
35,67.0,30.0,30.0,0.0,0.0
36,60.0,30.0,30.0,0.0,0.0
37,67.0,30.0,30.0,0.0,0.0
38,75.0,4.0,60.0,0.0,0.0
39,72.0,0.0,60.0,0.0,0.0
40,60.0,26.0,30.0,0.0,0.0
41,67.0,30.0,30.0,0.0,0.0
42,55.0,30.0,30.0,0.0,0.0
43,72.0,19.0,60.0,0.0,0.0
44,75.0,0.0,60.0,0.0,0.0
45,67.0,11.0,30.0,0.0,0.0
46,55.0,17.0,30.0,0.0,0.0
47,71.0,13.0,30.0,0.0,0.0
48,74.0,0.0,30.0,0.0,0.0
49,67.0,30.0,30.0,0.0,0.0
50,67.0,11.0,120.0,0.0,0.0
51,60.0,0.0,120.0,0.0,0.0
52,72.0,30.0,30.0,0.0,0.0
53,63.0,0.0,120.0,0.0,0.0
54,74.0,30.0,30.0,0.0,0.0
55,75.0,19.0,30.0,0.0,0.0
56,77.0,30.0,30.0,0.0,0.0
57,79.0,30.0,30.0,0.0,0.0
58,75.0,30.0,30.0,0.0,0.0
59,74.0,30.0,30.0,0.0,0.0
60,72.0,30.0,30.0,0.0,0.0
61,71.0,30.0,30.0,0.0,0.0
62,62.0,0.0,120.0,0.0,0.0
63,65.0,11.0,120.0,0.0,0.0
64,60.0,0.0,120.0,0.0,0.0
65,72.0,30.0,30.0,0.0,0.0
66,74.0,19.0,30.0,0.0,0.0
67,68.0,30.0,30.0,0.0,0.0
68,67.0,30.0,30.0,0.0,0.0
69,65.0,30.0,30.0,0.0,0.0
70,63.0,30.0,30.0,0.0,0.0
71,62.0,30.0,30.0,0.0,0.0
72,60.0,30.0,30.0,0.0,0.0
73,67.0,30.0,30.0,0.0,0.0
74,84.0,0.0,60.0,0.0,0.0
75,75.0,4.0,60.0,0.0,0.0
76,60.0,26.0,30.0,0.0,0.0
77,67.0,30.0,30.0,0.0,0.0
78,75.0,27.0,60.0,0.0,0.0
79,84.0,0.0,60.0,0.0,0.0
80,59.0,30.0,30.0,0.0,0.0
81,67.0,3.0,30.0,0.0,0.0
82,86.0,0.0,60.0,0.0,0.0
83,77.0,27.0,60.0,0.0,0.0
84,59.0,30.0,30.0,0.0,0.0
85,67.0,3.0,30.0,0.0,0.0
86,60.0,30.0,30.0,0.0,0.0
87,67.0,30.0,30.0,0.0,0.0
88,84.0,0.0,60.0,0.0,0.0
89,75.0,4.0,60.0,0.0,0.0
90,60.0,26.0,30.0,0.0,0.0
91,67.0,30.0,30.0,0.0,0.0
92,84.0,27.0,60.0,0.0,0.0
93,75.0,0.0,60.0,0.0,0.0
94,55.0,30.0,30.0,0.0,0.0
95,67.0,3.0,30.0,0.0,0.0
96,74.0,0.0,60.0,0.0,0.0
97,83.0,27.0,60.0,0.0,0.0
98,55.0,30.0,30.0,0.0,0.0
99,67.0,3.0,30.0,0.0,0.0
100,60.0,30.0,30.0,0.0,0.0
101,67.0,30.0,30.0,0.0,0.0
102,75.0,30.0,30.0,0.0,0.0
103,72.0,0.0,30.0,0.0,0.0
104,60.0,0.0,30.0,0.0,0.0
105,74.0,0.0,30.0,0.0,0.0
106,71.0,30.0,30.0,0.0,0.0
107,67.0,0.0,30.0,0.0,0.0
108,75.0,0.0,60.0,0.0,0.0
109,58.0,26.0,30.0,0.0,0.0
110,72.0,4.0,60.0,0.0,0.0
111,67.0,30.0,30.0,0.0,0.0
112,84.0,4.0,60.0,0.0,0.0
113,75.0,0.0,60.0,0.0,0.0
114,58.0,26.0,30.0,0.0,0.0
115,67.0,30.0,30.0,0.0,0.0
116,57.0,30.0,30.0,0.0,0.0
117,65.0,30.0,30.0,0.0,0.0
118,57.0,26.0,30.0,0.0,0.0
119,72.0,0.0,60.0,0.0,0.0
120,75.0,4.0,60.0,0.0,0.0
121,65.0,30.0,30.0,0.0,0.0
122,53.0,30.0,30.0,0.0,0.0
123,65.0,30.0,30.0,0.0,0.0
124,74.0,26.0,30.0,0.0,0.0
125,69.0,4.0,60.0,0.0,0.0
126,53.0,0.0,30.0,0.0,0.0
127,65.0,0.0,30.0,0.0,0.0
128,72.0,30.0,30.0,0.0,0.0
129,58.0,30.0,30.0,0.0,0.0
130,65.0,30.0,30.0,0.0,0.0
131,74.0,30.0,30.0,0.0,0.0
132,70.0,0.0,30.0,0.0,0.0
133,58.0,0.0,30.0,0.0,0.0
134,72.0,30.0,30.0,0.0,0.0
135,69.0,0.0,30.0,0.0,0.0
136,65.0,0.0,30.0,0.0,0.0
137,74.0,0.0,60.0,0.0,0.0
138,70.0,4.0,60.0,0.0,0.0
139,56.0,26.0,30.0,0.0,0.0
140,65.0,30.0,30.0,0.0,0.0
141,82.0,4.0,60.0,0.0,0.0
142,74.0,0.0,60.0,0.0,0.0
143,56.0,26.0,30.0,0.0,0.0
144,65.0,30.0,30.0,0.0,0.0
145,55.0,30.0,30.0,0.0,0.0
146,63.0,30.0,30.0,0.0,0.0
147,55.0,26.0,30.0,0.0,0.0
148,74.0,0.0,60.0,0.0,0.0
149,70.0,4.0,60.0,0.0,0.0
150,63.0,30.0,30.0,0.0,0.0
151,51.0,30.0,30.0,0.0,0.0
152,63.0,30.0,30.0,0.0,0.0
153,72.0,26.0,30.0,0.0,0.0
154,67.0,4.0,60.0,0.0,0.0
155,51.0,0.0,30.0,0.0,0.0
156,70.0,0.0,30.0,0.0,0.0
157,63.0,30.0,30.0,0.0,0.0
158,57.0,30.0,30.0,0.0,0.0
159,63.0,30.0,30.0,0.0,0.0
160,72.0,30.0,30.0,0.0,0.0
161,66.0,0.0,30.0,0.0,0.0
162,57.0,0.0,30.0,0.0,0.0
163,70.0,30.0,30.0,0.0,0.0
164,67.0,0.0,30.0,0.0,0.0
165,63.0,0.0,30.0,0.0,0.0
166,69.0,4.0,60.0,0.0,0.0
167,72.0,0.0,60.0,0.0,0.0
168,55.0,26.0,30.0,0.0,0.0
169,63.0,30.0,30.0,0.0,0.0
170,72.0,4.0,60.0,0.0,0.0
171,81.0,0.0,60.0,0.0,0.0
172,55.0,26.0,30.0,0.0,0.0
173,63.0,30.0,30.0,0.0,0.0
174,54.0,30.0,30.0,0.0,0.0
175,62.0,30.0,30.0,0.0,0.0
176,72.0,4.0,60.0,0.0,0.0
177,69.0,0.0,60.0,0.0,0.0
178,54.0,26.0,30.0,0.0,0.0
179,62.0,30.0,30.0,0.0,0.0
180,50.0,30.0,30.0,0.0,0.0
181,62.0,30.0,30.0,0.0,0.0
182,66.0,4.0,60.0,0.0,0.0
183,70.0,0.0,30.0,0.0,0.0
184,50.0,26.0,30.0,0.0,0.0
185,69.0,30.0,30.0,0.0,0.0
186,62.0,0.0,30.0,0.0,0.0
187,70.0,11.0,120.0,0.0,0.0
188,67.0,0.0,120.0,0.0,0.0
189,55.0,30.0,30.0,0.0,0.0
190,58.0,30.0,30.0,0.0,0.0
191,60.0,19.0,30.0,0.0,0.0
192,62.0,56.0,30.0,0.0,0.0
193,63.0,4.0,60.0,0.0,0.0
194,74.0,30.0,30.0,0.0,0.0
195,72.0,26.0,30.0,0.0,0.0
196,55.0,4.0,60.0,0.0,0.0
197,70.0,30.0,30.0,0.0,0.0
198,69.0,26.0,30.0,0.0,0.0
199,54.0,4.0,60.0,0.0,0.0
200,67.0,30.0,30.0,0.0,0.0
201,63.0,4.0,60.0,0.0,0.0
202,69.0,26.0,30.0,0.0,0.0
203,72.0,30.0,30.0,0.0,0.0
204,71.0,26.0,30.0,0.0,0.0
205,62.0,4.0,60.0,0.0,0.0
206,69.0,30.0,30.0,0.0,0.0
207,71.0,26.0,30.0,0.0,0.0
208,53.0,4.0,60.0,0.0,0.0
209,74.0,30.0,30.0,0.0,0.0
210,74.0,4.0,60.0,0.0,0.0
211,52.0,26.0,30.0,0.0,0.0
212,55.0,30.0,30.0,0.0,0.0
213,57.0,26.0,30.0,0.0,0.0
214,72.0,4.0,60.0,0.0,0.0
215,59.0,56.0,30.0,0.0,0.0
216,60.0,4.0,60.0,0.0,0.0
217,70.0,30.0,30.0,0.0,0.0
218,68.0,26.0,30.0,0.0,0.0
219,51.0,4.0,60.0,0.0,0.0
220,67.0,30.0,30.0,0.0,0.0
221,50.0,4.0,60.0,0.0,0.0
222,65.0,26.0,30.0,0.0,0.0
223,64.0,30.0,30.0,0.0,0.0
224,65.0,26.0,30.0,0.0,0.0
225,59.0,4.0,60.0,0.0,0.0
226,68.0,30.0,30.0,0.0,0.0
227,67.0,26.0,30.0,0.0,0.0
228,58.0,4.0,60.0,0.0,0.0
229,65.0,30.0,30.0,0.0,0.0
230,49.0,4.0,60.0,0.0,0.0
231,67.0,26.0,30.0,0.0,0.0
232,70.0,30.0,30.0,0.0,0.0
233,70.0,4.0,60.0,0.0,0.0
234,48.0,26.0,30.0,0.0,0.0
235,52.0,30.0,30.0,0.0,0.0
236,68.0,4.0,60.0,0.0,0.0
237,53.0,26.0,30.0,0.0,0.0
238,55.0,56.0,30.0,0.0,0.0
239,56.0,4.0,60.0,0.0,0.0
240,67.0,30.0,30.0,0.0,0.0
241,48.0,4.0,60.0,0.0,0.0
242,65.0,26.0,30.0,0.0,0.0
243,63.0,30.0,30.0,0.0,0.0
244,62.0,26.0,30.0,0.0,0.0
245,47.0,4.0,60.0,0.0,0.0
246,60.0,30.0,30.0,0.0,0.0
247,62.0,26.0,30.0,0.0,0.0
248,56.0,4.0,60.0,0.0,0.0
249,65.0,30.0,30.0,0.0,0.0
250,64.0,26.0,30.0,0.0,0.0
251,55.0,4.0,60.0,0.0,0.0
252,62.0,30.0,30.0,0.0,0.0
253,46.0,4.0,60.0,0.0,0.0
254,64.0,26.0,30.0,0.0,0.0
255,67.0,30.0,30.0,0.0,0.0
256,60.0,26.0,30.0,0.0,0.0
257,45.0,4.0,60.0,0.0,0.0
258,59.0,30.0,30.0,0.0,0.0
259,60.0,26.0,30.0,0.0,0.0
260,54.0,4.0,60.0,0.0,0.0
261,63.0,30.0,30.0,0.0,0.0
262,62.0,26.0,30.0,0.0,0.0
263,53.0,4.0,60.0,0.0,0.0
264,60.0,30.0,30.0,0.0,0.0
265,62.0,26.0,30.0,0.0,0.0
266,44.0,4.0,60.0,0.0,0.0
267,65.0,30.0,30.0,0.0,0.0
268,59.0,26.0,30.0,0.0,0.0
269,43.0,4.0,60.0,0.0,0.0
270,68.0,30.0,30.0,0.0,0.0
271,67.0,26.0,30.0,0.0,0.0
272,45.0,4.0,60.0,0.0,0.0
273,65.0,30.0,30.0,0.0,0.0
274,47.0,4.0,60.0,0.0,0.0
275,74.0,26.0,30.0,0.0,0.0
276,65.0,30.0,30.0,0.0,0.0
277,74.0,26.0,30.0,0.0,0.0
278,43.0,4.0,60.0,0.0,0.0
279,65.0,30.0,30.0,0.0,0.0
280,64.0,26.0,30.0,0.0,0.0
281,48.0,4.0,60.0,0.0,0.0
282,73.0,30.0,30.0,0.0,0.0
283,50.0,4.0,60.0,0.0,0.0
284,72.0,26.0,30.0,0.0,0.0
285,70.0,30.0,30.0,0.0,0.0
286,79.0,26.0,30.0,0.0,0.0
287,52.0,4.0,60.0,0.0,0.0
288,70.0,30.0,30.0,0.0,0.0
289,79.0,26.0,30.0,0.0,0.0
290,48.0,4.0,60.0,0.0,0.0
291,70.0,30.0,30.0,0.0,0.0
292,53.0,4.0,60.0,0.0,0.0
293,69.0,26.0,30.0,0.0,0.0
294,66.0,30.0,30.0,0.0,0.0
295,55.0,4.0,60.0,0.0,0.0
296,65.0,26.0,30.0,0.0,0.0
297,63.0,30.0,30.0,0.0,0.0
298,72.0,26.0,30.0,0.0,0.0
299,57.0,4.0,60.0,0.0,0.0
300,63.0,30.0,30.0,0.0,0.0
301,72.0,26.0,30.0,0.0,0.0
302,53.0,4.0,60.0,0.0,0.0
303,63.0,30.0,30.0,0.0,0.0
304,58.0,4.0,60.0,0.0,0.0
305,62.0,26.0,30.0,0.0,0.0
306,71.0,30.0,30.0,0.0,0.0
307,70.0,26.0,30.0,0.0,0.0
308,60.0,4.0,60.0,0.0,0.0
309,68.0,30.0,30.0,0.0,0.0
310,77.0,26.0,30.0,0.0,0.0
311,62.0,4.0,60.0,0.0,0.0
312,68.0,30.0,30.0,0.0,0.0
313,77.0,26.0,30.0,0.0,0.0
314,58.0,4.0,60.0,0.0,0.0
315,68.0,30.0,30.0,0.0,0.0
316,67.0,26.0,30.0,0.0,0.0
317,63.0,4.0,60.0,0.0,0.0
318,70.0,30.0,30.0,0.0,0.0
319,72.0,26.0,30.0,0.0,0.0
320,62.0,4.0,60.0,0.0,0.0
321,74.0,30.0,30.0,0.0,0.0
322,60.0,4.0,60.0,0.0,0.0
323,75.0,26.0,30.0,0.0,0.0
324,70.0,30.0,30.0,0.0,0.0
325,69.0,26.0,30.0,0.0,0.0
326,58.0,4.0,60.0,0.0,0.0
327,67.0,30.0,30.0,0.0,0.0
328,66.0,26.0,30.0,0.0,0.0
329,57.0,4.0,60.0,0.0,0.0
330,75.0,30.0,30.0,0.0,0.0
331,74.0,26.0,30.0,0.0,0.0
332,60.0,4.0,60.0,0.0,0.0
333,72.0,30.0,30.0,0.0,0.0
334,81.0,26.0,30.0,0.0,0.0
335,54.0,4.0,60.0,0.0,0.0
336,72.0,30.0,30.0,0.0,0.0
337,81.0,26.0,30.0,0.0,0.0
338,50.0,4.0,60.0,0.0,0.0
339,72.0,30.0,30.0,0.0,0.0
340,70.0,26.0,30.0,0.0,0.0
341,55.0,4.0,60.0,0.0,0.0
342,74.0,30.0,30.0,0.0,0.0
343,79.0,26.0,30.0,0.0,0.0
344,53.0,4.0,60.0,0.0,0.0
345,81.0,30.0,30.0,0.0,0.0
346,82.0,26.0,30.0,0.0,0.0
347,52.0,4.0,60.0,0.0,0.0
348,79.0,30.0,30.0,0.0,0.0
349,76.0,26.0,30.0,0.0,0.0
350,50.0,4.0,60.0,0.0,0.0
351,79.0,30.0,30.0,0.0,0.0
352,73.0,26.0,30.0,0.0,0.0
353,52.0,4.0,60.0,0.0,0.0
354,82.0,30.0,30.0,0.0,0.0
355,81.0,26.0,30.0,0.0,0.0
356,55.0,4.0,60.0,0.0,0.0
357,79.0,30.0,30.0,0.0,0.0
358,49.0,4.0,60.0,0.0,0.0
359,88.0,26.0,30.0,0.0,0.0
360,79.0,30.0,30.0,0.0,0.0
361,88.0,26.0,30.0,0.0,0.0
362,45.0,4.0,60.0,0.0,0.0
363,79.0,30.0,30.0,0.0,0.0
364,78.0,26.0,30.0,0.0,0.0
365,50.0,4.0,60.0,0.0,0.0
366,79.0,30.0,30.0,0.0,0.0
367,81.0,30.0,30.0,0.0,0.0
368,86.0,30.0,30.0,0.0,0.0
369,74.0,30.0,30.0,0.0,0.0
370,72.0,30.0,30.0,0.0,0.0
371,70.0,30.0,30.0,0.0,0.0
372,69.0,30.0,30.0,0.0,0.0
373,67.0,30.0,30.0,0.0,0.0
374,78.0,0.0,30.0,0.0,0.0
375,69.0,30.0,30.0,0.0,0.0
376,79.0,30.0,30.0,0.0,0.0
377,70.0,0.0,30.0,0.0,0.0
378,81.0,0.0,30.0,0.0,0.0
379,72.0,17.0,30.0,0.0,0.0
380,82.0,13.0,15.0,0.0,0.0
381,74.0,2.0,30.0,0.0,0.0
382,81.0,28.0,15.0,0.0,0.0
383,79.0,30.0,30.0,0.0,0.0
384,70.0,0.0,30.0,0.0,0.0
385,87.0,0.0,60.0,0.0,0.0
386,84.0,4.0,60.0,0.0,0.0
387,69.0,26.0,30.0,0.0,0.0
388,67.0,30.0,30.0,0.0,0.0
389,87.0,4.0,60.0,0.0,0.0
390,84.0,0.0,60.0,0.0,0.0
391,66.0,26.0,30.0,0.0,0.0
392,67.0,30.0,30.0,0.0,0.0
393,86.0,0.0,60.0,0.0,0.0
394,78.0,4.0,60.0,0.0,0.0
395,69.0,26.0,30.0,0.0,0.0
396,63.0,30.0,30.0,0.0,0.0
397,62.0,30.0,30.0,0.0,0.0
398,60.0,30.0,30.0,0.0,0.0
399,58.0,30.0,30.0,0.0,0.0
400,57.0,30.0,30.0,0.0,0.0
401,55.0,30.0,30.0,0.0,0.0
402,62.0,30.0,30.0,0.0,0.0
403,82.0,4.0,60.0,0.0,0.0
404,79.0,0.0,60.0,0.0,0.0
405,55.0,26.0,30.0,0.0,0.0
406,62.0,30.0,30.0,0.0,0.0
407,54.0,30.0,30.0,0.0,0.0
408,82.0,0.0,60.0,0.0,0.0
409,79.0,27.0,60.0,0.0,0.0
410,62.0,3.0,30.0,0.0,0.0
411,81.0,27.0,60.0,0.0,0.0
412,84.0,0.0,60.0,0.0,0.0
413,54.0,30.0,30.0,0.0,0.0
414,62.0,3.0,30.0,0.0,0.0
415,55.0,30.0,30.0,0.0,0.0
416,62.0,30.0,30.0,0.0,0.0
417,82.0,0.0,60.0,0.0,0.0
418,55.0,26.0,30.0,0.0,0.0
419,79.0,4.0,60.0,0.0,0.0
420,62.0,30.0,30.0,0.0,0.0
421,82.0,0.0,60.0,0.0,0.0
422,79.0,27.0,60.0,0.0,0.0
423,50.0,30.0,30.0,0.0,0.0
424,60.0,3.0,30.0,0.0,0.0
425,78.0,27.0,60.0,0.0,0.0
426,50.0,30.0,30.0,0.0,0.0
427,81.0,0.0,60.0,0.0,0.0
428,60.0,3.0,30.0,0.0,0.0
429,51.0,30.0,30.0,0.0,0.0
430,58.0,30.0,30.0,0.0,0.0
431,79.0,4.0,60.0,0.0,0.0
432,51.0,26.0,30.0,0.0,0.0
433,58.0,19.0,30.0,0.0,0.0
434,81.0,10.0,15.0,0.0,0.0
435,50.0,17.0,30.0,0.0,0.0
436,79.0,1.0,15.0,0.0,0.0
437,81.0,2.0,20.0,0.0,0.0
438,58.0,1.0,30.0,0.0,0.0
439,79.0,11.0,15.0,0.0,0.0
440,78.0,29.0,15.0,0.0,0.0
441,79.0,4.0,60.0,0.0,0.0
442,50.0,26.0,30.0,0.0,0.0
443,58.0,30.0,30.0,0.0,0.0
444,51.0,30.0,30.0,0.0,0.0
445,58.0,30.0,30.0,0.0,0.0
446,79.0,4.0,60.0,0.0,0.0
447,51.0,26.0,30.0,0.0,0.0
448,58.0,7.0,30.0,0.0,0.0
449,47.0,11.0,30.0,0.0,0.0
450,79.0,10.0,15.0,0.0,0.0
451,77.0,8.0,15.0,0.0,0.0
452,79.0,5.0,15.0,0.0,0.0
453,77.0,16.0,15.0,0.0,0.0
454,56.0,30.0,30.0,0.0,0.0
455,75.0,3.0,20.0,0.0,0.0
456,77.0,0.0,30.0,0.0,0.0
457,47.0,30.0,30.0,0.0,0.0
458,86.0,30.0,30.0,0.0,0.0
459,56.0,0.0,30.0,0.0,0.0
460,75.0,4.0,60.0,0.0,0.0
461,48.0,26.0,30.0,0.0,0.0
462,55.0,30.0,30.0,0.0,0.0
463,67.0,4.0,60.0,0.0,0.0
464,48.0,26.0,30.0,0.0,0.0
465,55.0,19.0,30.0,0.0,0.0
466,68.0,10.0,15.0,0.0,0.0
467,77.0,4.0,60.0,0.0,0.0
468,47.0,9.0,30.0,0.0,0.0
469,67.0,1.0,15.0,0.0,0.0
470,68.0,10.0,15.0,0.0,0.0
471,67.0,7.0,15.0,0.0,0.0
472,55.0,6.0,30.0,0.0,0.0
473,66.0,24.0,30.0,0.0,0.0
474,67.0,4.0,60.0,0.0,0.0
475,47.0,26.0,30.0,0.0,0.0
476,55.0,30.0,30.0,0.0,0.0
477,48.0,26.0,30.0,0.0,0.0
478,75.0,4.0,60.0,0.0,0.0
479,55.0,17.0,30.0,0.0,0.0
480,68.0,13.0,15.0,0.0,0.0
481,48.0,2.0,30.0,0.0,0.0
482,67.0,28.0,15.0,0.0,0.0
483,66.0,0.0,30.0,0.0,0.0
484,55.0,30.0,30.0,0.0,0.0
485,74.0,4.0,60.0,0.0,0.0
486,67.0,0.0,60.0,0.0,0.0
487,46.0,26.0,30.0,0.0,0.0
488,55.0,30.0,30.0,0.0,0.0
489,79.0,4.0,60.0,0.0,0.0
490,46.0,26.0,30.0,0.0,0.0
491,55.0,30.0,30.0,0.0,0.0
492,72.0,26.0,270.0,0.0,0.0
493,45.0,30.0,30.0,0.0,0.0
494,55.0,30.0,30.0,0.0,0.0
495,81.0,30.0,30.0,0.0,0.0
496,54.0,0.0,30.0,0.0,0.0
497,52.0,0.0,30.0,0.0,0.0
498,79.0,30.0,30.0,0.0,0.0
499,81.0,4.0,60.0,0.0,0.0
500,54.0,26.0,30.0,0.0,0.0
501,60.0,30.0,30.0,0.0,0.0
502,57.0,26.0,30.0,0.0,0.0
503,84.0,4.0,60.0,0.0,0.0
504,60.0,30.0,30.0,0.0,0.0
505,78.0,4.0,60.0,0.0,0.0
506,50.0,0.0,30.0,0.0,0.0
507,74.0,0.0,30.0,0.0,0.0
508,62.0,30.0,30.0,0.0,0.0
509,81.0,4.0,60.0,0.0,0.0
510,72.0,26.0,30.0,0.0,0.0
511,52.0,0.0,30.0,0.0,0.0
512,70.0,30.0,30.0,0.0,0.0
513,62.0,0.0,30.0,0.0,0.0
514,69.0,30.0,30.0,0.0,0.0
515,54.0,0.0,30.0,0.0,0.0
516,74.0,4.0,180.0,0.0,0.0
517,67.0,30.0,30.0,0.0,0.0
518,62.0,0.0,30.0,0.0,0.0
519,69.0,30.0,30.0,0.0,0.0
520,50.0,0.0,30.0,0.0,0.0
521,60.0,0.0,30.0,0.0,0.0
522,66.0,30.0,30.0,0.0,0.0
523,55.0,26.0,30.0,0.0,0.0
524,67.0,0.0,60.0,0.0,0.0
525,58.0,30.0,30.0,0.0,0.0
526,74.0,30.0,30.0,0.0,0.0
527,70.0,0.0,30.0,0.0,0.0
528,55.0,0.0,30.0,0.0,0.0
529,72.0,0.0,30.0,0.0,0.0
530,69.0,0.0,30.0,0.0,0.0
531,58.0,30.0,30.0,0.0,0.0
532,74.0,4.0,60.0,0.0,0.0
533,70.0,0.0,60.0,0.0,0.0
534,53.0,26.0,30.0,0.0,0.0
535,62.0,30.0,30.0,0.0,0.0
536,74.0,0.0,60.0,0.0,0.0
537,53.0,26.0,30.0,0.0,0.0
538,82.0,4.0,60.0,0.0,0.0
539,62.0,30.0,30.0,0.0,0.0
540,52.0,30.0,30.0,0.0,0.0
541,60.0,30.0,30.0,0.0,0.0
542,79.0,4.0,60.0,0.0,0.0
543,70.0,0.0,60.0,0.0,0.0
544,52.0,26.0,30.0,0.0,0.0
545,60.0,30.0,30.0,0.0,0.0
546,48.0,30.0,30.0,0.0,0.0
547,60.0,30.0,30.0,0.0,0.0
548,76.0,4.0,60.0,0.0,0.0
549,69.0,26.0,30.0,0.0,0.0
550,48.0,0.0,30.0,0.0,0.0
551,58.0,0.0,30.0,0.0,0.0
552,67.0,30.0,30.0,0.0,0.0
553,53.0,30.0,30.0,0.0,0.0
554,57.0,30.0,30.0,0.0,0.0
555,72.0,30.0,30.0,0.0,0.0
556,69.0,0.0,30.0,0.0,0.0
557,53.0,0.0,30.0,0.0,0.0
558,70.0,0.0,30.0,0.0,0.0
559,67.0,30.0,30.0,0.0,0.0
560,57.0,0.0,30.0,0.0,0.0
561,72.0,0.0,60.0,0.0,0.0
562,52.0,26.0,30.0,0.0,0.0
563,69.0,4.0,60.0,0.0,0.0
564,60.0,30.0,30.0,0.0,0.0
565,81.0,4.0,60.0,0.0,0.0
566,72.0,0.0,60.0,0.0,0.0
567,52.0,26.0,30.0,0.0,0.0
568,60.0,30.0,30.0,0.0,0.0
569,50.0,30.0,30.0,0.0,0.0
570,58.0,30.0,30.0,0.0,0.0
571,50.0,26.0,30.0,0.0,0.0
572,69.0,0.0,60.0,0.0,0.0
573,77.0,4.0,60.0,0.0,0.0
574,58.0,30.0,30.0,0.0,0.0
575,46.0,30.0,30.0,0.0,0.0
576,58.0,30.0,30.0,0.0,0.0
577,74.0,4.0,60.0,0.0,0.0
578,67.0,26.0,30.0,0.0,0.0
579,46.0,0.0,30.0,0.0,0.0
580,57.0,0.0,30.0,0.0,0.0
581,66.0,30.0,30.0,0.0,0.0
582,52.0,30.0,30.0,0.0,0.0
583,55.0,30.0,30.0,0.0,0.0
584,73.0,4.0,60.0,0.0,0.0
585,52.0,0.0,30.0,0.0,0.0
586,70.0,26.0,30.0,0.0,0.0
587,55.0,0.0,30.0,0.0,0.0
588,69.0,30.0,30.0,0.0,0.0
589,74.0,4.0,60.0,0.0,0.0
590,50.0,0.0,30.0,0.0,0.0
591,70.0,26.0,30.0,0.0,0.0
592,67.0,0.0,30.0,0.0,0.0
593,58.0,30.0,30.0,0.0,0.0
594,76.0,0.0,60.0,0.0,0.0
595,50.0,26.0,30.0,0.0,0.0
596,79.0,4.0,60.0,0.0,0.0
597,58.0,30.0,30.0,0.0,0.0
598,49.0,30.0,30.0,0.0,0.0
599,57.0,30.0,30.0,0.0,0.0
600,79.0,4.0,60.0,0.0,0.0
601,76.0,0.0,30.0,0.0,0.0
602,49.0,26.0,30.0,0.0,0.0
603,57.0,30.0,30.0,0.0,0.0
604,74.0,0.0,30.0,0.0,0.0
605,45.0,0.0,30.0,0.0,0.0
606,78.0,4.0,60.0,0.0,0.0
607,75.0,26.0,30.0,0.0,0.0
608,72.0,30.0,30.0,0.0,0.0
609,57.0,0.0,30.0,0.0,0.0
610,87.0,4.0,60.0,0.0,0.0
611,84.0,4.0,120.0,0.0,0.0
612,45.0,26.0,30.0,0.0,0.0
613,55.0,30.0,30.0,0.0,0.0
614,86.0,11.0,120.0,0.0,0.0
615,54.0,26.0,30.0,0.0,0.0
616,50.0,17.0,30.0,0.0,0.0
617,82.0,13.0,15.0,0.0,0.0
618,55.0,2.0,30.0,0.0,0.0
619,81.0,17.0,15.0,0.0,0.0
620,79.0,0.0,30.0,0.0,0.0
621,58.0,56.0,30.0,0.0,0.0
622,62.0,4.0,60.0,0.0,0.0
623,78.0,26.0,180.0,0.0,0.0
624,86.0,30.0,30.0,0.0,0.0
625,50.0,60.0,60.0,0.0,0.0
626,81.0,26.0,30.0,0.0,0.0
627,84.0,0.0,90.0,0.0,0.0
628,43.0,25.0,90.0,0.0,0.0
629,83.0,6.0,60.0,0.0,0.0
630,79.0,0.0,60.0,0.0,0.0
631,47.0,9.0,15.0,0.0,0.0
632,50.0,107.0,15.0,0.0,0.0
633,55.0,41.0,120.0,0.0,0.0
634,63.0,0.0,120.0,0.0,0.0
635,72.0,30.0,30.0,0.0,0.0
636,67.0,11.0,120.0,0.0,0.0
637,60.0,0.0,120.0,0.0,0.0
638,74.0,30.0,30.0,0.0,0.0
639,75.0,19.0,30.0,0.0,0.0
640,77.0,30.0,30.0,0.0,0.0
641,79.0,30.0,30.0,0.0,0.0
642,75.0,30.0,30.0,0.0,0.0
643,74.0,30.0,30.0,0.0,0.0
644,72.0,30.0,30.0,0.0,0.0
645,60.0,0.0,120.0,0.0,0.0
646,71.0,30.0,30.0,0.0,0.0
647,62.0,0.0,120.0,0.0,0.0
648,65.0,11.0,120.0,0.0,0.0
649,72.0,30.0,30.0,0.0,0.0
650,74.0,19.0,30.0,0.0,0.0
651,68.0,30.0,30.0,0.0,0.0
652,67.0,30.0,30.0,0.0,0.0
653,65.0,30.0,30.0,0.0,0.0
654,63.0,30.0,30.0,0.0,0.0
655,62.0,30.0,30.0,0.0,0.0
656,60.0,30.0,30.0,0.0,0.0
657,67.0,30.0,30.0,0.0,0.0
658,72.0,0.0,60.0,0.0,0.0
659,60.0,26.0,30.0,0.0,0.0
660,75.0,4.0,60.0,0.0,0.0
661,67.0,30.0,30.0,0.0,0.0
662,59.0,30.0,30.0,0.0,0.0
663,72.0,0.0,60.0,0.0,0.0
664,75.0,19.0,60.0,0.0,0.0
665,67.0,11.0,30.0,0.0,0.0
666,59.0,7.0,30.0,0.0,0.0
667,77.0,0.0,30.0,0.0,0.0
668,74.0,23.0,30.0,0.0,0.0
669,67.0,30.0,30.0,0.0,0.0
670,60.0,30.0,30.0,0.0,0.0
671,67.0,30.0,30.0,0.0,0.0
672,75.0,4.0,60.0,0.0,0.0
673,72.0,0.0,60.0,0.0,0.0
674,60.0,26.0,30.0,0.0,0.0
675,67.0,30.0,30.0,0.0,0.0
676,55.0,30.0,30.0,0.0,0.0
677,72.0,19.0,60.0,0.0,0.0
678,75.0,0.0,60.0,0.0,0.0
679,67.0,11.0,30.0,0.0,0.0
680,74.0,13.0,30.0,0.0,0.0
681,71.0,0.0,30.0,0.0,0.0
682,55.0,17.0,30.0,0.0,0.0
683,67.0,30.0,30.0,0.0,0.0
684,72.0,30.0,30.0,0.0,0.0
685,67.0,0.0,120.0,0.0,0.0
686,60.0,0.0,120.0,0.0,0.0
687,63.0,11.0,120.0,0.0,0.0
688,74.0,30.0,30.0,0.0,0.0
689,75.0,19.0,30.0,0.0,0.0
690,77.0,30.0,30.0,0.0,0.0
691,79.0,30.0,30.0,0.0,0.0
692,75.0,30.0,30.0,0.0,0.0
693,74.0,30.0,30.0,0.0,0.0
694,72.0,30.0,30.0,0.0,0.0
695,71.0,30.0,30.0,0.0,0.0
696,65.0,0.0,120.0,0.0,0.0
697,60.0,0.0,120.0,0.0,0.0
698,62.0,11.0,120.0,0.0,0.0
699,72.0,30.0,30.0,0.0,0.0
700,74.0,19.0,30.0,0.0,0.0
701,68.0,30.0,30.0,0.0,0.0
702,67.0,30.0,30.0,0.0,0.0
703,65.0,30.0,30.0,0.0,0.0
704,63.0,30.0,30.0,0.0,0.0
705,62.0,30.0,30.0,0.0,0.0
706,60.0,30.0,30.0,0.0,0.0
707,67.0,30.0,30.0,0.0,0.0
708,60.0,26.0,30.0,0.0,0.0
709,84.0,4.0,60.0,0.0,0.0
710,75.0,0.0,60.0,0.0,0.0
711,67.0,30.0,30.0,0.0,0.0
712,75.0,27.0,60.0,0.0,0.0
713,84.0,0.0,60.0,0.0,0.0
714,59.0,30.0,30.0,0.0,0.0
715,67.0,3.0,30.0,0.0,0.0
716,86.0,0.0,60.0,0.0,0.0
717,77.0,27.0,60.0,0.0,0.0
718,59.0,30.0,30.0,0.0,0.0
719,67.0,3.0,30.0,0.0,0.0
720,60.0,30.0,30.0,0.0,0.0
721,67.0,30.0,30.0,0.0,0.0
722,84.0,0.0,60.0,0.0,0.0
723,75.0,4.0,60.0,0.0,0.0
724,60.0,26.0,30.0,0.0,0.0
725,67.0,30.0,30.0,0.0,0.0
726,84.0,27.0,60.0,0.0,0.0
727,75.0,0.0,60.0,0.0,0.0
728,55.0,30.0,30.0,0.0,0.0
729,67.0,3.0,30.0,0.0,0.0
730,74.0,27.0,60.0,0.0,0.0
731,55.0,30.0,30.0,0.0,0.0
732,83.0,0.0,60.0,0.0,0.0
733,67.0,3.0,30.0,0.0,0.0
734,60.0,30.0,30.0,0.0,0.0
735,67.0,30.0,30.0,0.0,0.0
736,75.0,30.0,30.0,0.0,0.0
737,72.0,0.0,30.0,0.0,0.0
738,60.0,0.0,30.0,0.0,0.0
739,71.0,0.0,30.0,0.0,0.0
740,67.0,0.0,30.0,0.0,0.0
741,74.0,30.0,30.0,0.0,0.0
742,75.0,4.0,60.0,0.0,0.0
743,72.0,0.0,60.0,0.0,0.0
744,58.0,26.0,30.0,0.0,0.0
745,67.0,30.0,30.0,0.0,0.0
746,84.0,0.0,60.0,0.0,0.0
747,75.0,4.0,60.0,0.0,0.0
748,58.0,26.0,30.0,0.0,0.0
749,67.0,30.0,30.0,0.0,0.0
750,57.0,30.0,30.0,0.0,0.0
751,65.0,30.0,30.0,0.0,0.0
752,75.0,4.0,60.0,0.0,0.0
753,57.0,26.0,30.0,0.0,0.0
754,72.0,0.0,60.0,0.0,0.0
755,65.0,30.0,30.0,0.0,0.0
756,53.0,30.0,30.0,0.0,0.0
757,65.0,30.0,30.0,0.0,0.0
758,74.0,26.0,30.0,0.0,0.0
759,69.0,4.0,60.0,0.0,0.0
760,53.0,0.0,30.0,0.0,0.0
761,65.0,0.0,30.0,0.0,0.0
762,72.0,30.0,30.0,0.0,0.0
763,58.0,30.0,30.0,0.0,0.0
764,65.0,30.0,30.0,0.0,0.0
765,74.0,30.0,30.0,0.0,0.0
766,70.0,0.0,30.0,0.0,0.0
767,58.0,0.0,30.0,0.0,0.0
768,72.0,0.0,30.0,0.0,0.0
769,69.0,30.0,30.0,0.0,0.0
770,65.0,0.0,30.0,0.0,0.0
771,74.0,0.0,60.0,0.0,0.0
772,56.0,26.0,30.0,0.0,0.0
773,70.0,4.0,60.0,0.0,0.0
774,65.0,30.0,30.0,0.0,0.0
775,82.0,4.0,60.0,0.0,0.0
776,74.0,0.0,60.0,0.0,0.0
777,56.0,26.0,30.0,0.0,0.0
778,65.0,30.0,30.0,0.0,0.0
779,55.0,30.0,30.0,0.0,0.0
780,63.0,30.0,30.0,0.0,0.0
781,70.0,0.0,60.0,0.0,0.0
782,55.0,26.0,30.0,0.0,0.0
783,74.0,4.0,60.0,0.0,0.0
784,63.0,30.0,30.0,0.0,0.0
785,51.0,30.0,30.0,0.0,0.0
786,63.0,30.0,30.0,0.0,0.0
787,72.0,0.0,30.0,0.0,0.0
788,67.0,4.0,60.0,0.0,0.0
789,51.0,26.0,30.0,0.0,0.0
790,70.0,0.0,30.0,0.0,0.0
791,63.0,30.0,30.0,0.0,0.0
792,57.0,30.0,30.0,0.0,0.0
793,63.0,30.0,30.0,0.0,0.0
794,72.0,30.0,30.0,0.0,0.0
795,66.0,0.0,30.0,0.0,0.0
796,57.0,0.0,30.0,0.0,0.0
797,70.0,30.0,30.0,0.0,0.0
798,67.0,0.0,30.0,0.0,0.0
799,63.0,0.0,30.0,0.0,0.0
800,69.0,4.0,60.0,0.0,0.0
801,72.0,0.0,60.0,0.0,0.0
802,55.0,26.0,30.0,0.0,0.0
803,63.0,30.0,30.0,0.0,0.0
804,81.0,4.0,60.0,0.0,0.0
805,72.0,0.0,60.0,0.0,0.0
806,55.0,26.0,30.0,0.0,0.0
807,63.0,30.0,30.0,0.0,0.0
808,54.0,30.0,30.0,0.0,0.0
809,62.0,30.0,30.0,0.0,0.0
810,54.0,26.0,30.0,0.0,0.0
811,72.0,4.0,60.0,0.0,0.0
812,69.0,0.0,60.0,0.0,0.0
813,62.0,30.0,30.0,0.0,0.0
814,50.0,30.0,30.0,0.0,0.0
815,62.0,30.0,30.0,0.0,0.0
816,70.0,26.0,30.0,0.0,0.0
817,50.0,0.0,30.0,0.0,0.0
818,66.0,4.0,60.0,0.0,0.0
819,69.0,30.0,30.0,0.0,0.0
820,62.0,0.0,30.0,0.0,0.0
821,67.0,11.0,120.0,0.0,0.0
822,70.0,0.0,120.0,0.0,0.0
823,55.0,30.0,30.0,0.0,0.0
824,58.0,30.0,30.0,0.0,0.0
825,60.0,19.0,30.0,0.0,0.0
826,62.0,56.0,30.0,0.0,0.0
827,63.0,4.0,60.0,0.0,0.0
828,74.0,30.0,30.0,0.0,0.0
829,72.0,26.0,30.0,0.0,0.0
830,55.0,4.0,60.0,0.0,0.0
831,70.0,30.0,30.0,0.0,0.0
832,69.0,26.0,30.0,0.0,0.0
833,54.0,4.0,60.0,0.0,0.0
834,67.0,30.0,30.0,0.0,0.0
835,69.0,26.0,30.0,0.0,0.0
836,63.0,4.0,60.0,0.0,0.0
837,72.0,30.0,30.0,0.0,0.0
838,71.0,26.0,30.0,0.0,0.0
839,62.0,4.0,60.0,0.0,0.0
840,69.0,30.0,30.0,0.0,0.0
841,71.0,26.0,30.0,0.0,0.0
842,53.0,4.0,60.0,0.0,0.0
843,74.0,30.0,30.0,0.0,0.0
844,74.0,4.0,60.0,0.0,0.0
845,52.0,26.0,30.0,0.0,0.0
846,55.0,30.0,30.0,0.0,0.0
847,72.0,4.0,60.0,0.0,0.0
848,57.0,26.0,30.0,0.0,0.0
849,59.0,56.0,30.0,0.0,0.0
850,60.0,4.0,60.0,0.0,0.0
851,70.0,30.0,30.0,0.0,0.0
852,68.0,26.0,30.0,0.0,0.0
853,51.0,4.0,60.0,0.0,0.0
854,67.0,30.0,30.0,0.0,0.0
855,50.0,4.0,60.0,0.0,0.0
856,65.0,26.0,30.0,0.0,0.0
857,64.0,30.0,30.0,0.0,0.0
858,65.0,26.0,30.0,0.0,0.0
859,59.0,4.0,60.0,0.0,0.0
860,68.0,30.0,30.0,0.0,0.0
861,67.0,26.0,30.0,0.0,0.0
862,58.0,4.0,60.0,0.0,0.0
863,65.0,30.0,30.0,0.0,0.0
864,49.0,4.0,60.0,0.0,0.0
865,67.0,26.0,30.0,0.0,0.0
866,70.0,30.0,30.0,0.0,0.0
867,70.0,4.0,60.0,0.0,0.0
868,48.0,26.0,30.0,0.0,0.0
869,52.0,30.0,30.0,0.0,0.0
870,68.0,4.0,60.0,0.0,0.0
871,53.0,26.0,30.0,0.0,0.0
872,55.0,56.0,30.0,0.0,0.0
873,56.0,4.0,60.0,0.0,0.0
874,67.0,30.0,30.0,0.0,0.0
875,65.0,26.0,30.0,0.0,0.0
876,48.0,4.0,60.0,0.0,0.0
877,63.0,30.0,30.0,0.0,0.0
878,62.0,26.0,30.0,0.0,0.0
879,47.0,4.0,60.0,0.0,0.0
880,60.0,30.0,30.0,0.0,0.0
881,62.0,26.0,30.0,0.0,0.0
882,56.0,4.0,60.0,0.0,0.0
883,65.0,30.0,30.0,0.0,0.0
884,64.0,26.0,30.0,0.0,0.0
885,55.0,4.0,60.0,0.0,0.0
886,62.0,30.0,30.0,0.0,0.0
887,64.0,26.0,30.0,0.0,0.0
888,46.0,4.0,60.0,0.0,0.0
889,67.0,30.0,30.0,0.0,0.0
890,60.0,26.0,30.0,0.0,0.0
891,45.0,4.0,60.0,0.0,0.0
892,59.0,30.0,30.0,0.0,0.0
893,54.0,4.0,60.0,0.0,0.0
894,60.0,26.0,30.0,0.0,0.0
895,63.0,30.0,30.0,0.0,0.0
896,62.0,26.0,30.0,0.0,0.0
897,53.0,4.0,60.0,0.0,0.0
898,60.0,30.0,30.0,0.0,0.0
899,62.0,26.0,30.0,0.0,0.0
900,44.0,4.0,60.0,0.0,0.0
901,65.0,30.0,30.0,0.0,0.0
902,59.0,26.0,30.0,0.0,0.0
903,43.0,4.0,60.0,0.0,0.0
904,68.0,30.0,30.0,0.0,0.0
905,67.0,26.0,30.0,0.0,0.0
906,45.0,4.0,60.0,0.0,0.0
907,65.0,30.0,30.0,0.0,0.0
908,74.0,26.0,30.0,0.0,0.0
909,47.0,4.0,60.0,0.0,0.0
910,65.0,30.0,30.0,0.0,0.0
911,74.0,26.0,30.0,0.0,0.0
912,43.0,4.0,60.0,0.0,0.0
913,65.0,30.0,30.0,0.0,0.0
914,64.0,26.0,30.0,0.0,0.0
915,48.0,4.0,60.0,0.0,0.0
916,73.0,30.0,30.0,0.0,0.0
917,50.0,4.0,60.0,0.0,0.0
918,72.0,26.0,30.0,0.0,0.0
919,70.0,30.0,30.0,0.0,0.0
920,79.0,26.0,30.0,0.0,0.0
921,52.0,4.0,60.0,0.0,0.0
922,70.0,30.0,30.0,0.0,0.0
923,79.0,26.0,30.0,0.0,0.0
924,48.0,4.0,60.0,0.0,0.0
925,70.0,30.0,30.0,0.0,0.0
926,53.0,4.0,60.0,0.0,0.0
927,69.0,26.0,30.0,0.0,0.0
928,66.0,30.0,30.0,0.0,0.0
929,65.0,26.0,30.0,0.0,0.0
930,55.0,4.0,60.0,0.0,0.0
931,63.0,30.0,30.0,0.0,0.0
932,72.0,26.0,30.0,0.0,0.0
933,57.0,4.0,60.0,0.0,0.0
934,63.0,30.0,30.0,0.0,0.0
935,53.0,4.0,60.0,0.0,0.0
936,72.0,26.0,30.0,0.0,0.0
937,63.0,30.0,30.0,0.0,0.0
938,62.0,26.0,30.0,0.0,0.0
939,58.0,4.0,60.0,0.0,0.0
940,71.0,30.0,30.0,0.0,0.0
941,70.0,26.0,30.0,0.0,0.0
942,60.0,4.0,60.0,0.0,0.0
943,68.0,30.0,30.0,0.0,0.0
944,62.0,4.0,60.0,0.0,0.0
945,77.0,26.0,30.0,0.0,0.0
946,68.0,30.0,30.0,0.0,0.0
947,77.0,26.0,30.0,0.0,0.0
948,58.0,4.0,60.0,0.0,0.0
949,68.0,30.0,30.0,0.0,0.0
950,67.0,26.0,30.0,0.0,0.0
951,63.0,4.0,60.0,0.0,0.0
952,70.0,30.0,30.0,0.0,0.0
953,62.0,4.0,60.0,0.0,0.0
954,72.0,26.0,30.0,0.0,0.0
955,74.0,30.0,30.0,0.0,0.0
956,75.0,26.0,30.0,0.0,0.0
957,60.0,4.0,60.0,0.0,0.0
958,70.0,30.0,30.0,0.0,0.0
959,69.0,26.0,30.0,0.0,0.0
960,58.0,4.0,60.0,0.0,0.0
961,67.0,30.0,30.0,0.0,0.0
962,66.0,26.0,30.0,0.0,0.0
963,57.0,4.0,60.0,0.0,0.0
964,75.0,30.0,30.0,0.0,0.0
965,74.0,26.0,30.0,0.0,0.0
966,60.0,4.0,60.0,0.0,0.0
967,72.0,30.0,30.0,0.0,0.0
968,81.0,26.0,30.0,0.0,0.0
969,54.0,4.0,60.0,0.0,0.0
970,72.0,30.0,30.0,0.0,0.0
971,81.0,26.0,30.0,0.0,0.0
972,50.0,4.0,60.0,0.0,0.0
973,72.0,30.0,30.0,0.0,0.0
974,70.0,26.0,30.0,0.0,0.0
975,55.0,4.0,60.0,0.0,0.0
976,74.0,30.0,30.0,0.0,0.0
977,79.0,26.0,30.0,0.0,0.0
978,53.0,4.0,60.0,0.0,0.0
979,81.0,30.0,30.0,0.0,0.0
980,82.0,26.0,30.0,0.0,0.0
981,52.0,4.0,60.0,0.0,0.0
982,79.0,30.0,30.0,0.0,0.0
983,76.0,26.0,30.0,0.0,0.0
984,50.0,4.0,60.0,0.0,0.0
985,79.0,30.0,30.0,0.0,0.0
986,73.0,26.0,30.0,0.0,0.0
987,52.0,4.0,60.0,0.0,0.0
988,82.0,30.0,30.0,0.0,0.0
989,81.0,26.0,30.0,0.0,0.0
990,55.0,4.0,60.0,0.0,0.0
991,79.0,30.0,30.0,0.0,0.0
992,88.0,26.0,30.0,0.0,0.0
993,49.0,4.0,60.0,0.0,0.0
994,79.0,30.0,30.0,0.0,0.0
995,88.0,26.0,30.0,0.0,0.0
996,45.0,4.0,60.0,0.0,0.0
997,79.0,30.0,30.0,0.0,0.0
998,78.0,26.0,30.0,0.0,0.0
999,50.0,4.0,60.0,0.0,0.0
1000,79.0,30.0,30.0,0.0,0.0
1001,81.0,30.0,30.0,0.0,0.0
1002,86.0,30.0,30.0,0.0,0.0
1003,74.0,30.0,30.0,0.0,0.0
1004,72.0,30.0,30.0,0.0,0.0
1005,70.0,30.0,30.0,0.0,0.0
1006,69.0,30.0,30.0,0.0,0.0
1007,67.0,30.0,30.0,0.0,0.0
1008,78.0,0.0,30.0,0.0,0.0
1009,69.0,30.0,30.0,0.0,0.0
1010,79.0,30.0,30.0,0.0,0.0
1011,70.0,0.0,30.0,0.0,0.0
1012,81.0,17.0,30.0,0.0,0.0
1013,72.0,0.0,30.0,0.0,0.0
1014,82.0,13.0,15.0,0.0,0.0
1015,74.0,2.0,30.0,0.0,0.0
1016,81.0,28.0,15.0,0.0,0.0
1017,79.0,0.0,30.0,0.0,0.0
1018,70.0,30.0,30.0,0.0,0.0
1019,84.0,0.0,60.0,0.0,0.0
1020,87.0,4.0,60.0,0.0,0.0
1021,69.0,26.0,30.0,0.0,0.0
1022,67.0,30.0,30.0,0.0,0.0
1023,87.0,4.0,60.0,0.0,0.0
1024,84.0,0.0,60.0,0.0,0.0
1025,66.0,26.0,30.0,0.0,0.0
1026,67.0,30.0,30.0,0.0,0.0
1027,86.0,0.0,60.0,0.0,0.0
1028,78.0,4.0,60.0,0.0,0.0
1029,69.0,26.0,30.0,0.0,0.0
1030,63.0,30.0,30.0,0.0,0.0
1031,62.0,30.0,30.0,0.0,0.0
1032,60.0,30.0,30.0,0.0,0.0
1033,58.0,30.0,30.0,0.0,0.0
1034,57.0,30.0,30.0,0.0,0.0
1035,55.0,30.0,30.0,0.0,0.0
1036,62.0,30.0,30.0,0.0,0.0
1037,55.0,26.0,30.0,0.0,0.0
1038,82.0,4.0,60.0,0.0,0.0
1039,79.0,0.0,60.0,0.0,0.0
1040,62.0,30.0,30.0,0.0,0.0
1041,54.0,30.0,30.0,0.0,0.0
1042,79.0,27.0,60.0,0.0,0.0
1043,82.0,0.0,60.0,0.0,0.0
1044,62.0,3.0,30.0,0.0,0.0
1045,81.0,27.0,60.0,0.0,0.0
1046,84.0,0.0,60.0,0.0,0.0
1047,54.0,30.0,30.0,0.0,0.0
1048,62.0,3.0,30.0,0.0,0.0
1049,55.0,30.0,30.0,0.0,0.0
1050,62.0,30.0,30.0,0.0,0.0
1051,82.0,4.0,60.0,0.0,0.0
1052,79.0,0.0,60.0,0.0,0.0
1053,55.0,26.0,30.0,0.0,0.0
1054,62.0,30.0,30.0,0.0,0.0
1055,79.0,0.0,60.0,0.0,0.0
1056,82.0,27.0,60.0,0.0,0.0
1057,50.0,30.0,30.0,0.0,0.0
1058,60.0,3.0,30.0,0.0,0.0
1059,78.0,0.0,60.0,0.0,0.0
1060,81.0,27.0,60.0,0.0,0.0
1061,50.0,30.0,30.0,0.0,0.0
1062,60.0,3.0,30.0,0.0,0.0
1063,51.0,30.0,30.0,0.0,0.0
1064,58.0,30.0,30.0,0.0,0.0
1065,51.0,26.0,30.0,0.0,0.0
1066,79.0,4.0,60.0,0.0,0.0
1067,58.0,19.0,30.0,0.0,0.0
1068,81.0,10.0,15.0,0.0,0.0
1069,50.0,17.0,30.0,0.0,0.0
1070,79.0,1.0,15.0,0.0,0.0
1071,81.0,2.0,20.0,0.0,0.0
1072,58.0,1.0,30.0,0.0,0.0
1073,79.0,11.0,15.0,0.0,0.0
1074,78.0,29.0,15.0,0.0,0.0
1075,79.0,4.0,60.0,0.0,0.0
1076,50.0,26.0,30.0,0.0,0.0
1077,58.0,30.0,30.0,0.0,0.0
1078,51.0,30.0,30.0,0.0,0.0
1079,58.0,30.0,30.0,0.0,0.0
1080,79.0,4.0,60.0,0.0,0.0
1081,51.0,26.0,30.0,0.0,0.0
1082,58.0,7.0,30.0,0.0,0.0
1083,47.0,11.0,30.0,0.0,0.0
1084,79.0,10.0,15.0,0.0,0.0
1085,77.0,8.0,15.0,0.0,0.0
1086,79.0,5.0,15.0,0.0,0.0
1087,77.0,16.0,15.0,0.0,0.0
1088,56.0,30.0,30.0,0.0,0.0
1089,75.0,3.0,20.0,0.0,0.0
1090,77.0,0.0,30.0,0.0,0.0
1091,47.0,30.0,30.0,0.0,0.0
1092,56.0,0.0,30.0,0.0,0.0
1093,86.0,30.0,30.0,0.0,0.0
1094,75.0,4.0,60.0,0.0,0.0
1095,48.0,26.0,30.0,0.0,0.0
1096,55.0,30.0,30.0,0.0,0.0
1097,67.0,4.0,60.0,0.0,0.0
1098,48.0,26.0,30.0,0.0,0.0
1099,55.0,19.0,30.0,0.0,0.0
1100,47.0,9.0,30.0,0.0,0.0
1101,68.0,10.0,15.0,0.0,0.0
1102,77.0,4.0,60.0,0.0,0.0
1103,67.0,1.0,15.0,0.0,0.0
1104,68.0,10.0,15.0,0.0,0.0
1105,55.0,6.0,30.0,0.0,0.0
1106,67.0,7.0,15.0,0.0,0.0
1107,66.0,24.0,30.0,0.0,0.0
1108,67.0,4.0,60.0,0.0,0.0
1109,47.0,26.0,30.0,0.0,0.0
1110,55.0,30.0,30.0,0.0,0.0
1111,48.0,26.0,30.0,0.0,0.0
1112,75.0,4.0,60.0,0.0,0.0
1113,55.0,17.0,30.0,0.0,0.0
1114,68.0,13.0,15.0,0.0,0.0
1115,48.0,2.0,30.0,0.0,0.0
1116,67.0,28.0,15.0,0.0,0.0
1117,66.0,30.0,30.0,0.0,0.0
1118,55.0,0.0,30.0,0.0,0.0
1119,67.0,0.0,60.0,0.0,0.0
1120,74.0,4.0,60.0,0.0,0.0
1121,46.0,26.0,30.0,0.0,0.0
1122,55.0,30.0,30.0,0.0,0.0
1123,46.0,26.0,30.0,0.0,0.0
1124,79.0,4.0,60.0,0.0,0.0
1125,55.0,30.0,30.0,0.0,0.0
1126,72.0,0.0,270.0,0.0,0.0
1127,45.0,30.0,30.0,0.0,0.0
1128,55.0,30.0,30.0,0.0,0.0
1129,81.0,30.0,30.0,0.0,0.0
1130,54.0,0.0,30.0,0.0,0.0
1131,52.0,30.0,30.0,0.0,0.0
1132,79.0,0.0,30.0,0.0,0.0
1133,81.0,4.0,60.0,0.0,0.0
1134,54.0,26.0,30.0,0.0,0.0
1135,60.0,30.0,30.0,0.0,0.0
1136,84.0,4.0,60.0,0.0,0.0
1137,57.0,26.0,30.0,0.0,0.0
1138,60.0,30.0,30.0,0.0,0.0
1139,78.0,4.0,60.0,0.0,0.0
1140,50.0,26.0,30.0,0.0,0.0
1141,74.0,0.0,30.0,0.0,0.0
1142,62.0,30.0,30.0,0.0,0.0
1143,52.0,0.0,30.0,0.0,0.0
1144,81.0,4.0,60.0,0.0,0.0
1145,72.0,26.0,30.0,0.0,0.0
1146,70.0,30.0,30.0,0.0,0.0
1147,62.0,0.0,30.0,0.0,0.0
1148,74.0,4.0,180.0,0.0,0.0
1149,69.0,30.0,30.0,0.0,0.0
1150,54.0,0.0,30.0,0.0,0.0
1151,62.0,0.0,30.0,0.0,0.0
1152,67.0,30.0,30.0,0.0,0.0
1153,69.0,30.0,30.0,0.0,0.0
1154,50.0,0.0,30.0,0.0,0.0
1155,66.0,30.0,30.0,0.0,0.0
1156,60.0,0.0,30.0,0.0,0.0
1157,67.0,0.0,60.0,0.0,0.0
1158,55.0,26.0,30.0,0.0,0.0
1159,58.0,30.0,30.0,0.0,0.0
1160,55.0,0.0,30.0,0.0,0.0
1161,70.0,30.0,30.0,0.0,0.0
1162,74.0,0.0,30.0,0.0,0.0
1163,58.0,0.0,30.0,0.0,0.0
1164,72.0,0.0,30.0,0.0,0.0
1165,69.0,30.0,30.0,0.0,0.0
1166,53.0,26.0,30.0,0.0,0.0
1167,74.0,4.0,60.0,0.0,0.0
1168,70.0,0.0,60.0,0.0,0.0
1169,62.0,30.0,30.0,0.0,0.0
1170,82.0,4.0,60.0,0.0,0.0
1171,74.0,0.0,60.0,0.0,0.0
1172,53.0,26.0,30.0,0.0,0.0
1173,62.0,30.0,30.0,0.0,0.0
1174,52.0,30.0,30.0,0.0,0.0
1175,60.0,30.0,30.0,0.0,0.0
1176,79.0,4.0,60.0,0.0,0.0
1177,70.0,0.0,60.0,0.0,0.0
1178,52.0,26.0,30.0,0.0,0.0
1179,60.0,30.0,30.0,0.0,0.0
1180,48.0,30.0,30.0,0.0,0.0
1181,60.0,30.0,30.0,0.0,0.0
1182,76.0,4.0,60.0,0.0,0.0
1183,69.0,0.0,30.0,0.0,0.0
1184,48.0,26.0,30.0,0.0,0.0
1185,67.0,0.0,30.0,0.0,0.0
1186,58.0,30.0,30.0,0.0,0.0
1187,53.0,30.0,30.0,0.0,0.0
1188,57.0,30.0,30.0,0.0,0.0
1189,72.0,30.0,30.0,0.0,0.0
1190,69.0,0.0,30.0,0.0,0.0
1191,53.0,0.0,30.0,0.0,0.0
1192,70.0,0.0,30.0,0.0,0.0
1193,67.0,0.0,30.0,0.0,0.0
1194,57.0,30.0,30.0,0.0,0.0
1195,72.0,4.0,60.0,0.0,0.0
1196,69.0,0.0,60.0,0.0,0.0
1197,52.0,26.0,30.0,0.0,0.0
1198,60.0,30.0,30.0,0.0,0.0
1199,72.0,0.0,60.0,0.0,0.0
1200,52.0,26.0,30.0,0.0,0.0
1201,81.0,4.0,60.0,0.0,0.0
1202,60.0,30.0,30.0,0.0,0.0
1203,50.0,30.0,30.0,0.0,0.0
1204,58.0,30.0,30.0,0.0,0.0
1205,77.0,4.0,60.0,0.0,0.0
1206,69.0,0.0,60.0,0.0,0.0
1207,50.0,26.0,30.0,0.0,0.0
1208,58.0,30.0,30.0,0.0,0.0
1209,46.0,30.0,30.0,0.0,0.0
1210,58.0,30.0,30.0,0.0,0.0
1211,67.0,26.0,30.0,0.0,0.0
1212,46.0,0.0,30.0,0.0,0.0
1213,74.0,4.0,60.0,0.0,0.0
1214,66.0,0.0,30.0,0.0,0.0
1215,57.0,30.0,30.0,0.0,0.0
1216,52.0,30.0,30.0,0.0,0.0
1217,55.0,30.0,30.0,0.0,0.0
1218,73.0,4.0,60.0,0.0,0.0
1219,70.0,26.0,30.0,0.0,0.0
1220,52.0,0.0,30.0,0.0,0.0
1221,69.0,30.0,30.0,0.0,0.0
1222,55.0,0.0,30.0,0.0,0.0
1223,50.0,0.0,30.0,0.0,0.0
1224,70.0,26.0,30.0,0.0,0.0
1225,74.0,4.0,60.0,0.0,0.0
1226,58.0,30.0,30.0,0.0,0.0
1227,67.0,0.0,30.0,0.0,0.0
1228,79.0,4.0,60.0,0.0,0.0
1229,76.0,0.0,60.0,0.0,0.0
1230,50.0,26.0,30.0,0.0,0.0
1231,58.0,30.0,30.0,0.0,0.0
1232,49.0,30.0,30.0,0.0,0.0
1233,57.0,30.0,30.0,0.0,0.0
1234,49.0,0.0,30.0,0.0,0.0
1235,79.0,4.0,60.0,0.0,0.0
1236,76.0,26.0,30.0,0.0,0.0
1237,74.0,30.0,30.0,0.0,0.0
1238,57.0,0.0,30.0,0.0,0.0
1239,75.0,26.0,30.0,0.0,0.0
1240,45.0,0.0,30.0,0.0,0.0
1241,78.0,4.0,60.0,0.0,0.0
1242,72.0,30.0,30.0,0.0,0.0
1243,57.0,0.0,30.0,0.0,0.0
1244,87.0,4.0,60.0,0.0,0.0
1245,45.0,26.0,30.0,0.0,0.0
1246,84.0,4.0,120.0,0.0,0.0
1247,55.0,30.0,30.0,0.0,0.0
1248,54.0,26.0,30.0,0.0,0.0
1249,86.0,11.0,120.0,0.0,0.0
1250,50.0,17.0,30.0,0.0,0.0
1251,82.0,13.0,15.0,0.0,0.0
1252,55.0,2.0,30.0,0.0,0.0
1253,81.0,17.0,15.0,0.0,0.0
1254,79.0,56.0,30.0,0.0,0.0
1255,58.0,0.0,30.0,0.0,0.0
1256,78.0,0.0,180.0,0.0,0.0
1257,62.0,4.0,60.0,0.0,0.0
1258,86.0,30.0,30.0,0.0,0.0
1259,50.0,60.0,60.0,0.0,0.0
1260,81.0,26.0,30.0,0.0,0.0
1261,84.0,26.0,90.0,0.0,0.0
1262,43.0,25.0,90.0,0.0,0.0
1263,83.0,6.0,60.0,0.0,0.0
1264,79.0,0.0,60.0,0.0,0.0
1265,47.0,9.0,15.0,0.0,0.0
1266,50.0,107.0,15.0,0.0,0.0
1267,55.0,41.0,120.0,0.0,0.0
1268,79.0,30.0,30.0,0.0,0.0
1269,81.0,30.0,30.0,0.0,0.0
1270,83.0,30.0,30.0,0.0,0.0
1271,55.0,0.0,30.0,0.0,0.0
1272,57.0,0.0,30.0,0.0,0.0
1273,84.0,30.0,30.0,0.0,0.0
1274,86.0,26.0,30.0,0.0,0.0
1275,59.0,4.0,60.0,0.0,0.0
1276,80.0,30.0,30.0,0.0,0.0
1277,79.0,26.0,30.0,0.0,0.0
1278,62.0,4.0,60.0,0.0,0.0
1279,77.0,30.0,30.0,0.0,0.0
1280,76.0,26.0,30.0,0.0,0.0
1281,67.0,4.0,60.0,0.0,0.0
1282,77.0,30.0,30.0,0.0,0.0
1283,79.0,26.0,30.0,0.0,0.0
1284,65.0,4.0,60.0,0.0,0.0
1285,73.0,30.0,30.0,0.0,0.0
1286,72.0,26.0,30.0,0.0,0.0
1287,64.0,4.0,60.0,0.0,0.0
1288,70.0,30.0,30.0,0.0,0.0
1289,68.0,26.0,30.0,0.0,0.0
1290,60.0,4.0,60.0,0.0,0.0
1291,67.0,30.0,30.0,0.0,0.0
1292,68.0,26.0,30.0,0.0,0.0
1293,65.0,4.0,60.0,0.0,0.0
1294,77.0,30.0,30.0,0.0,0.0
1295,53.0,4.0,60.0,0.0,0.0
1296,68.0,26.0,30.0,0.0,0.0
1297,77.0,30.0,30.0,0.0,0.0
1298,69.0,26.0,30.0,0.0,0.0
1299,51.0,4.0,60.0,0.0,0.0
1300,78.0,30.0,30.0,0.0,0.0
1301,69.0,26.0,30.0,0.0,0.0
1302,63.0,4.0,60.0,0.0,0.0
1303,78.0,30.0,30.0,0.0,0.0
1304,61.0,4.0,60.0,0.0,0.0
1305,77.0,26.0,30.0,0.0,0.0
1306,73.0,30.0,30.0,0.0,0.0
1307,72.0,26.0,30.0,0.0,0.0
1308,49.0,4.0,60.0,0.0,0.0
1309,70.0,30.0,30.0,0.0,0.0
1310,69.0,26.0,30.0,0.0,0.0
1311,48.0,4.0,60.0,0.0,0.0
1312,78.0,30.0,30.0,0.0,0.0
1313,77.0,26.0,30.0,0.0,0.0
1314,60.0,4.0,60.0,0.0,0.0
1315,75.0,30.0,30.0,0.0,0.0
1316,74.0,26.0,30.0,0.0,0.0
1317,58.0,4.0,60.0,0.0,0.0
1318,75.0,30.0,30.0,0.0,0.0
1319,77.0,26.0,30.0,0.0,0.0
1320,46.0,4.0,60.0,0.0,0.0
1321,79.0,30.0,30.0,0.0,0.0
1322,80.0,26.0,30.0,0.0,0.0
1323,53.0,4.0,60.0,0.0,0.0
1324,75.0,30.0,30.0,0.0,0.0
1325,73.0,26.0,30.0,0.0,0.0
1326,56.0,4.0,60.0,0.0,0.0
1327,72.0,30.0,30.0,0.0,0.0
1328,71.0,26.0,30.0,0.0,0.0
1329,50.0,4.0,60.0,0.0,0.0
1330,72.0,30.0,30.0,0.0,0.0
1331,74.0,26.0,30.0,0.0,0.0
1332,53.0,4.0,60.0,0.0,0.0
1333,68.0,30.0,30.0,0.0,0.0
1334,67.0,26.0,30.0,0.0,0.0
1335,47.0,4.0,60.0,0.0,0.0
1336,65.0,30.0,30.0,0.0,0.0
1337,63.0,26.0,30.0,0.0,0.0
1338,55.0,4.0,60.0,0.0,0.0
1339,62.0,30.0,30.0,0.0,0.0
1340,63.0,26.0,30.0,0.0,0.0
1341,60.0,4.0,60.0,0.0,0.0
1342,72.0,30.0,30.0,0.0,0.0
1343,63.0,26.0,30.0,0.0,0.0
1344,48.0,4.0,60.0,0.0,0.0
1345,72.0,30.0,30.0,0.0,0.0
1346,64.0,26.0,30.0,0.0,0.0
1347,46.0,4.0,60.0,0.0,0.0
1348,73.0,30.0,30.0,0.0,0.0
1349,64.0,26.0,30.0,0.0,0.0
1350,58.0,4.0,60.0,0.0,0.0
1351,73.0,30.0,30.0,0.0,0.0
1352,56.0,4.0,60.0,0.0,0.0
1353,72.0,26.0,30.0,0.0,0.0
1354,68.0,30.0,30.0,0.0,0.0
1355,67.0,26.0,30.0,0.0,0.0
1356,44.0,4.0,60.0,0.0,0.0
1357,65.0,30.0,30.0,0.0,0.0
1358,64.0,26.0,30.0,0.0,0.0
1359,43.0,4.0,60.0,0.0,0.0
1360,73.0,30.0,30.0,0.0,0.0
1361,72.0,26.0,30.0,0.0,0.0
1362,55.0,4.0,60.0,0.0,0.0
1363,70.0,30.0,30.0,0.0,0.0
1364,69.0,26.0,30.0,0.0,0.0
1365,53.0,4.0,60.0,0.0,0.0
1366,70.0,30.0,30.0,0.0,0.0
1367,72.0,26.0,30.0,0.0,0.0
1368,41.0,4.0,60.0,0.0,0.0
1369,74.0,30.0,30.0,0.0,0.0
1370,75.0,30.0,30.0,0.0,0.0
1371,78.0,0.0,30.0,0.0,0.0
1372,65.0,30.0,30.0,0.0,0.0
1373,67.0,0.0,30.0,0.0,0.0
1374,77.0,30.0,30.0,0.0,0.0
1375,69.0,0.0,30.0,0.0,0.0
1376,75.0,30.0,30.0,0.0,0.0
1377,74.0,26.0,30.0,0.0,0.0
1378,70.0,4.0,60.0,0.0,0.0
1379,75.0,30.0,30.0,0.0,0.0
1380,77.0,26.0,30.0,0.0,0.0
1381,58.0,4.0,60.0,0.0,0.0
1382,71.0,30.0,30.0,0.0,0.0
1383,70.0,30.0,30.0,0.0,0.0
1384,58.0,0.0,30.0,0.0,0.0
1385,68.0,30.0,30.0,0.0,0.0
1386,67.0,30.0,30.0,0.0,0.0
1387,60.0,0.0,30.0,0.0,0.0
1388,65.0,30.0,30.0,0.0,0.0
1389,62.0,0.0,30.0,0.0,0.0
1390,67.0,26.0,30.0,0.0,0.0
1391,63.0,4.0,60.0,0.0,0.0
1392,68.0,30.0,30.0,0.0,0.0
1393,70.0,26.0,30.0,0.0,0.0
1394,51.0,4.0,60.0,0.0,0.0
1395,72.0,30.0,30.0,0.0,0.0
1396,73.0,30.0,30.0,0.0,0.0
1397,77.0,30.0,30.0,0.0,0.0
1398,51.0,0.0,30.0,0.0,0.0
1399,75.0,30.0,30.0,0.0,0.0
1400,53.0,0.0,30.0,0.0,0.0
1401,73.0,0.0,30.0,0.0,0.0
1402,55.0,30.0,30.0,0.0,0.0
1403,56.0,4.0,60.0,0.0,0.0
1404,72.0,26.0,30.0,0.0,0.0
1405,73.0,30.0,30.0,0.0,0.0
1406,75.0,26.0,30.0,0.0,0.0
1407,44.0,4.0,60.0,0.0,0.0
1408,70.0,30.0,30.0,0.0,0.0
1409,68.0,30.0,30.0,0.0,0.0
1410,66.0,0.0,30.0,0.0,0.0
1411,44.0,30.0,30.0,0.0,0.0
1412,46.0,30.0,30.0,0.0,0.0
1413,65.0,0.0,30.0,0.0,0.0
1414,63.0,0.0,30.0,0.0,0.0
1415,48.0,30.0,30.0,0.0,0.0
1416,49.0,26.0,30.0,0.0,0.0
1417,65.0,4.0,60.0,0.0,0.0
1418,56.0,30.0,30.0,0.0,0.0
1419,73.0,4.0,60.0,0.0,0.0
1420,65.0,0.0,60.0,0.0,0.0
1421,49.0,26.0,30.0,0.0,0.0
1422,56.0,30.0,30.0,0.0,0.0
1423,75.0,11.0,120.0,0.0,0.0
1424,66.0,0.0,120.0,0.0,0.0
1425,48.0,30.0,30.0,0.0,0.0
1426,56.0,30.0,30.0,0.0,0.0
1427,48.0,19.0,30.0,0.0,0.0
1428,56.0,30.0,30.0,0.0,0.0
1429,49.0,30.0,30.0,0.0,0.0
1430,56.0,30.0,30.0,0.0,0.0
1431,73.0,4.0,60.0,0.0,0.0
1432,65.0,0.0,60.0,0.0,0.0
1433,49.0,26.0,30.0,0.0,0.0
1434,56.0,30.0,30.0,0.0,0.0
1435,72.0,11.0,120.0,0.0,0.0
1436,45.0,30.0,30.0,0.0,0.0
1437,63.0,0.0,120.0,0.0,0.0
1438,54.0,30.0,30.0,0.0,0.0
1439,45.0,19.0,30.0,0.0,0.0
1440,54.0,30.0,30.0,0.0,0.0
1441,46.0,30.0,30.0,0.0,0.0
1442,53.0,30.0,30.0,0.0,0.0
1443,46.0,0.0,30.0,0.0,0.0
1444,70.0,30.0,30.0,0.0,0.0
1445,61.0,0.0,30.0,0.0,0.0
1446,63.0,0.0,30.0,0.0,0.0
1447,53.0,0.0,30.0,0.0,0.0
1448,72.0,30.0,30.0,0.0,0.0
1449,65.0,0.0,60.0,0.0,0.0
1450,44.0,26.0,30.0,0.0,0.0
1451,73.0,4.0,60.0,0.0,0.0
1452,53.0,30.0,30.0,0.0,0.0
1453,72.0,0.0,60.0,0.0,0.0
1454,77.0,4.0,60.0,0.0,0.0
1455,44.0,26.0,30.0,0.0,0.0
1456,53.0,30.0,30.0,0.0,0.0
1457,43.0,30.0,30.0,0.0,0.0
1458,47.0,30.0,30.0,0.0,0.0
1459,80.0,4.0,60.0,0.0,0.0
1460,71.0,0.0,60.0,0.0,0.0
1461,50.0,26.0,30.0,0.0,0.0
1462,53.0,30.0,30.0,0.0,0.0
1463,79.0,0.0,60.0,0.0,0.0
1464,72.0,4.0,60.0,0.0,0.0
1465,51.0,26.0,30.0,0.0,0.0
1466,50.0,30.0,30.0,0.0,0.0
1467,77.0,4.0,60.0,0.0,0.0
1468,74.0,0.0,60.0,0.0,0.0
1469,48.0,26.0,30.0,0.0,0.0
1470,47.0,30.0,30.0,0.0,0.0
1471,48.0,30.0,30.0,0.0,0.0
1472,55.0,30.0,30.0,0.0,0.0
1473,48.0,0.0,30.0,0.0,0.0
1474,75.0,0.0,30.0,0.0,0.0
1475,72.0,30.0,30.0,0.0,0.0
1476,74.0,30.0,30.0,0.0,0.0
1477,71.0,0.0,30.0,0.0,0.0
1478,55.0,0.0,30.0,0.0,0.0
1479,75.0,4.0,60.0,0.0,0.0
1480,72.0,0.0,60.0,0.0,0.0
1481,46.0,26.0,30.0,0.0,0.0
1482,55.0,30.0,30.0,0.0,0.0
1483,46.0,26.0,30.0,0.0,0.0
1484,79.0,0.0,60.0,0.0,0.0
1485,74.0,4.0,60.0,0.0,0.0
1486,55.0,30.0,30.0,0.0,0.0
1487,45.0,30.0,30.0,0.0,0.0
1488,49.0,30.0,30.0,0.0,0.0
1489,73.0,0.0,60.0,0.0,0.0
1490,52.0,26.0,30.0,0.0,0.0
1491,82.0,4.0,60.0,0.0,0.0
1492,55.0,30.0,30.0,0.0,0.0
1493,74.0,4.0,60.0,0.0,0.0
1494,81.0,0.0,60.0,0.0,0.0
1495,53.0,26.0,30.0,0.0,0.0
1496,52.0,30.0,30.0,0.0,0.0
1497,76.0,4.0,60.0,0.0,0.0
1498,79.0,0.0,60.0,0.0,0.0
1499,50.0,26.0,30.0,0.0,0.0
1500,49.0,30.0,30.0,0.0,0.0
1501,50.0,4.0,60.0,0.0,0.0
1502,69.0,26.0,30.0,0.0,0.0
1503,78.0,0.0,30.0,0.0,0.0
1504,75.0,30.0,30.0,0.0,0.0
1505,74.0,26.0,30.0,0.0,0.0
1506,52.0,4.0,60.0,0.0,0.0
1507,72.0,30.0,30.0,0.0,0.0
1508,81.0,26.0,30.0,0.0,0.0
1509,54.0,4.0,60.0,0.0,0.0
1510,72.0,30.0,30.0,0.0,0.0
1511,81.0,26.0,30.0,0.0,0.0
1512,50.0,4.0,60.0,0.0,0.0
1513,72.0,30.0,30.0,0.0,0.0
1514,71.0,26.0,30.0,0.0,0.0
1515,55.0,4.0,60.0,0.0,0.0
1516,80.0,30.0,30.0,0.0,0.0
1517,57.0,4.0,60.0,0.0,0.0
1518,79.0,26.0,30.0,0.0,0.0
1519,77.0,30.0,30.0,0.0,0.0
1520,86.0,26.0,30.0,0.0,0.0
1521,59.0,4.0,60.0,0.0,0.0
1522,77.0,30.0,30.0,0.0,0.0
1523,86.0,26.0,30.0,0.0,0.0
1524,55.0,4.0,60.0,0.0,0.0
1525,77.0,30.0,30.0,0.0,0.0
1526,76.0,26.0,30.0,0.0,0.0
1527,60.0,4.0,60.0,0.0,0.0
1528,73.0,30.0,30.0,0.0,0.0
1529,72.0,26.0,30.0,0.0,0.0
1530,62.0,4.0,60.0,0.0,0.0
1531,70.0,30.0,30.0,0.0,0.0
1532,79.0,26.0,30.0,0.0,0.0
1533,64.0,4.0,60.0,0.0,0.0
1534,70.0,30.0,30.0,0.0,0.0
1535,79.0,26.0,30.0,0.0,0.0
1536,60.0,4.0,60.0,0.0,0.0
1537,70.0,30.0,30.0,0.0,0.0
1538,65.0,4.0,60.0,0.0,0.0
1539,69.0,26.0,30.0,0.0,0.0
1540,78.0,30.0,30.0,0.0,0.0
1541,77.0,26.0,30.0,0.0,0.0
1542,67.0,4.0,60.0,0.0,0.0
1543,75.0,30.0,30.0,0.0,0.0
1544,84.0,26.0,30.0,0.0,0.0
1545,69.0,4.0,60.0,0.0,0.0
1546,75.0,30.0,30.0,0.0,0.0
1547,84.0,26.0,30.0,0.0,0.0
1548,65.0,4.0,60.0,0.0,0.0
1549,75.0,30.0,30.0,0.0,0.0
1550,74.0,30.0,30.0,0.0,0.0
1551,70.0,11.0,120.0,0.0,0.0
1552,77.0,30.0,30.0,0.0,0.0
1553,79.0,19.0,30.0,0.0,0.0
1554,81.0,56.0,30.0,0.0,0.0
1555,82.0,4.0,60.0,0.0,0.0
1556,69.0,30.0,30.0,0.0,0.0
1557,67.0,26.0,30.0,0.0,0.0
1558,74.0,4.0,60.0,0.0,0.0
1559,65.0,30.0,30.0,0.0,0.0
1560,73.0,4.0,60.0,0.0,0.0
1561,64.0,26.0,30.0,0.0,0.0
1562,62.0,30.0,30.0,0.0,0.0
1563,82.0,4.0,60.0,0.0,0.0
1564,64.0,26.0,30.0,0.0,0.0
1565,67.0,30.0,30.0,0.0,0.0
1566,81.0,4.0,60.0,0.0,0.0
1567,66.0,26.0,30.0,0.0,0.0
1568,64.0,30.0,30.0,0.0,0.0
1569,72.0,4.0,60.0,0.0,0.0
1570,66.0,26.0,30.0,0.0,0.0
1571,69.0,30.0,30.0,0.0,0.0
1572,71.0,26.0,30.0,0.0,0.0
1573,69.0,4.0,60.0,0.0,0.0
1574,74.0,30.0,30.0,0.0,0.0
1575,76.0,26.0,30.0,0.0,0.0
1576,67.0,4.0,60.0,0.0,0.0
1577,78.0,56.0,30.0,0.0,0.0
1578,79.0,4.0,60.0,0.0,0.0
1579,65.0,30.0,30.0,0.0,0.0
1580,70.0,4.0,60.0,0.0,0.0
1581,63.0,26.0,30.0,0.0,0.0
1582,62.0,30.0,30.0,0.0,0.0
1583,69.0,4.0,60.0,0.0,0.0
1584,60.0,26.0,30.0,0.0,0.0
1585,59.0,30.0,30.0,0.0,0.0
1586,78.0,4.0,60.0,0.0,0.0
1587,60.0,26.0,30.0,0.0,0.0
1588,63.0,30.0,30.0,0.0,0.0
1589,62.0,26.0,30.0,0.0,0.0
1590,77.0,4.0,60.0,0.0,0.0
1591,60.0,30.0,30.0,0.0,0.0
1592,68.0,4.0,60.0,0.0,0.0
1593,62.0,26.0,30.0,0.0,0.0
1594,65.0,30.0,30.0,0.0,0.0
1595,67.0,26.0,30.0,0.0,0.0
1596,65.0,4.0,60.0,0.0,0.0
1597,71.0,30.0,30.0,0.0,0.0
1598,63.0,4.0,60.0,0.0,0.0
1599,72.0,26.0,30.0,0.0,0.0
1600,74.0,56.0,30.0,0.0,0.0
1601,75.0,4.0,60.0,0.0,0.0
1602,62.0,30.0,30.0,0.0,0.0
1603,67.0,4.0,60.0,0.0,0.0
1604,60.0,26.0,30.0,0.0,0.0
1605,58.0,30.0,30.0,0.0,0.0
1606,66.0,4.0,60.0,0.0,0.0
1607,57.0,26.0,30.0,0.0,0.0
1608,55.0,30.0,30.0,0.0,0.0
1609,57.0,26.0,30.0,0.0,0.0
1610,75.0,4.0,60.0,0.0,0.0
1611,60.0,30.0,30.0,0.0,0.0
1612,74.0,4.0,60.0,0.0,0.0
1613,59.0,26.0,30.0,0.0,0.0
1614,57.0,30.0,30.0,0.0,0.0
1615,65.0,4.0,60.0,0.0,0.0
1616,59.0,26.0,30.0,0.0,0.0
1617,62.0,30.0,30.0,0.0,0.0
1618,55.0,26.0,30.0,0.0,0.0
1619,64.0,4.0,60.0,0.0,0.0
1620,54.0,30.0,30.0,0.0,0.0
1621,55.0,26.0,30.0,0.0,0.0
1622,73.0,4.0,60.0,0.0,0.0
1623,58.0,30.0,30.0,0.0,0.0
1624,72.0,4.0,60.0,0.0,0.0
1625,56.0,26.0,30.0,0.0,0.0
1626,55.0,30.0,30.0,0.0,0.0
1627,63.0,4.0,60.0,0.0,0.0
1628,56.0,26.0,30.0,0.0,0.0
1629,60.0,30.0,30.0,0.0,0.0
1630,54.0,26.0,30.0,0.0,0.0
1631,62.0,4.0,60.0,0.0,0.0
1632,52.0,30.0,30.0,0.0,0.0
1633,72.0,4.0,60.0,0.0,0.0
1634,54.0,26.0,30.0,0.0,0.0
1635,57.0,30.0,30.0,0.0,0.0
1636,71.0,4.0,60.0,0.0,0.0
1637,55.0,26.0,30.0,0.0,0.0
1638,54.0,30.0,30.0,0.0,0.0
1639,61.0,4.0,60.0,0.0,0.0
1640,55.0,26.0,30.0,0.0,0.0
1641,58.0,30.0,30.0,0.0,0.0
1642,60.0,4.0,60.0,0.0,0.0
1643,52.0,26.0,30.0,0.0,0.0
1644,50.0,30.0,30.0,0.0,0.0
1645,70.0,4.0,60.0,0.0,0.0
1646,52.0,26.0,30.0,0.0,0.0
1647,55.0,30.0,30.0,0.0,0.0
1648,69.0,4.0,60.0,0.0,0.0
1649,53.0,26.0,30.0,0.0,0.0
1650,52.0,30.0,30.0,0.0,0.0
1651,68.0,4.0,60.0,0.0,0.0
1652,60.0,0.0,60.0,0.0,0.0
1653,53.0,26.0,30.0,0.0,0.0
1654,56.0,30.0,30.0,0.0,0.0
1655,68.0,0.0,60.0,0.0,0.0
1656,60.0,4.0,60.0,0.0,0.0
1657,50.0,26.0,30.0,0.0,0.0
1658,51.0,30.0,30.0,0.0,0.0
1659,67.0,4.0,60.0,0.0,0.0
1660,59.0,0.0,60.0,0.0,0.0
1661,53.0,26.0,30.0,0.0,0.0
1662,51.0,30.0,30.0,0.0,0.0
1663,53.0,30.0,30.0,0.0,0.0
1664,59.0,30.0,30.0,0.0,0.0
1665,62.0,30.0,30.0,0.0,0.0
1666,53.0,30.0,30.0,0.0,0.0
1667,72.0,0.0,30.0,0.0,0.0
1668,51.0,0.0,30.0,0.0,0.0
1669,74.0,0.0,30.0,0.0,0.0
1670,50.0,0.0,30.0,0.0,0.0
1671,75.0,0.0,30.0,0.0,0.0
1672,48.0,0.0,30.0,0.0,0.0
1673,77.0,0.0,30.0,0.0,0.0
1674,50.0,0.0,30.0,0.0,0.0
1675,79.0,0.0,30.0,0.0,0.0
1676,51.0,0.0,30.0,0.0,0.0
1677,53.0,0.0,30.0,0.0,0.0
1678,75.0,0.0,30.0,0.0,0.0
1679,74.0,0.0,30.0,0.0,0.0
1680,55.0,0.0,30.0,0.0,0.0
1681,72.0,0.0,30.0,0.0,0.0
1682,56.0,0.0,30.0,0.0,0.0
1683,71.0,0.0,30.0,0.0,0.0
1684,56.0,4.0,60.0,0.0,0.0
1685,72.0,0.0,30.0,0.0,0.0
1686,74.0,0.0,30.0,0.0,0.0
1687,47.0,4.0,60.0,0.0,0.0
1688,68.0,0.0,30.0,0.0,0.0
1689,67.0,0.0,120.0,0.0,0.0
1690,65.0,30.0,30.0,0.0,0.0
1691,63.0,19.0,30.0,0.0,0.0
1692,62.0,30.0,30.0,0.0,0.0
1693,60.0,30.0,30.0,0.0,0.0
1694,67.0,30.0,30.0,0.0,0.0
1695,84.0,4.0,60.0,0.0,0.0
1696,75.0,0.0,60.0,0.0,0.0
1697,60.0,26.0,30.0,0.0,0.0
1698,67.0,30.0,30.0,0.0,0.0
1699,75.0,3.0,60.0,0.0,0.0
1700,84.0,0.0,60.0,0.0,0.0
1701,59.0,27.0,30.0,0.0,0.0
1702,67.0,30.0,30.0,0.0,0.0
1703,77.0,0.0,60.0,0.0,0.0
1704,86.0,3.0,60.0,0.0,0.0
1705,59.0,27.0,30.0,0.0,0.0
1706,67.0,30.0,30.0,0.0,0.0
1707,60.0,30.0,30.0,0.0,0.0
1708,67.0,30.0,30.0,0.0,0.0
1709,75.0,4.0,60.0,0.0,0.0
1710,84.0,0.0,60.0,0.0,0.0
1711,60.0,26.0,30.0,0.0,0.0
1712,67.0,30.0,30.0,0.0,0.0
1713,84.0,29.0,60.0,0.0,0.0
1714,75.0,0.0,60.0,0.0,0.0
1715,55.0,30.0,30.0,0.0,0.0
1716,67.0,1.0,30.0,0.0,0.0
1717,83.0,0.0,60.0,0.0,0.0
1718,74.0,29.0,60.0,0.0,0.0
1719,55.0,30.0,30.0,0.0,0.0
1720,67.0,1.0,30.0,0.0,0.0
1721,60.0,30.0,30.0,0.0,0.0
1722,71.0,30.0,30.0,0.0,0.0
1723,62.0,0.0,30.0,0.0,0.0
1724,72.0,30.0,30.0,0.0,0.0
1725,63.0,0.0,30.0,0.0,0.0
1726,74.0,17.0,30.0,0.0,0.0
1727,65.0,0.0,30.0,0.0,0.0
1728,67.0,2.0,30.0,0.0,0.0
1729,75.0,13.0,15.0,0.0,0.0
1730,74.0,28.0,15.0,0.0,0.0
1731,72.0,0.0,30.0,0.0,0.0
1732,63.0,30.0,30.0,0.0,0.0
1733,62.0,26.0,30.0,0.0,0.0
1734,77.0,0.0,60.0,0.0,0.0
1735,80.0,4.0,60.0,0.0,0.0
1736,60.0,30.0,30.0,0.0,0.0
1737,80.0,4.0,60.0,0.0,0.0
1738,77.0,0.0,60.0,0.0,0.0
1739,59.0,26.0,30.0,0.0,0.0
1740,60.0,30.0,30.0,0.0,0.0
1741,62.0,26.0,30.0,0.0,0.0
1742,71.0,4.0,60.0,0.0,0.0
1743,79.0,0.0,60.0,0.0,0.0
1744,56.0,30.0,30.0,0.0,0.0
1745,55.0,30.0,30.0,0.0,0.0
1746,53.0,30.0,30.0,0.0,0.0
1747,51.0,30.0,30.0,0.0,0.0
1748,50.0,30.0,30.0,0.0,0.0
1749,48.0,30.0,30.0,0.0,0.0
1750,60.0,30.0,30.0,0.0,0.0
1751,72.0,0.0,60.0,0.0,0.0
1752,75.0,4.0,60.0,0.0,0.0
1753,48.0,26.0,30.0,0.0,0.0
1754,60.0,30.0,30.0,0.0,0.0
1755,77.0,4.0,60.0,0.0,0.0
1756,73.0,0.0,60.0,0.0,0.0
1757,58.0,26.0,30.0,0.0,0.0
1758,67.0,30.0,30.0,0.0,0.0
1759,76.0,0.0,60.0,0.0,0.0
1760,72.0,4.0,60.0,0.0,0.0
1761,58.0,26.0,30.0,0.0,0.0
1762,67.0,30.0,30.0,0.0,0.0
1763,56.0,30.0,30.0,0.0,0.0
1764,65.0,30.0,30.0,0.0,0.0
1765,77.0,4.0,60.0,0.0,0.0
1766,72.0,0.0,60.0,0.0,0.0
1767,56.0,26.0,30.0,0.0,0.0
1768,65.0,30.0,30.0,0.0,0.0
1769,55.0,26.0,30.0,0.0,0.0
1770,73.0,0.0,60.0,0.0,0.0
1771,82.0,4.0,60.0,0.0,0.0
1772,64.0,30.0,30.0,0.0,0.0
1773,70.0,0.0,60.0,0.0,0.0
1774,79.0,4.0,60.0,0.0,0.0
1775,55.0,26.0,30.0,0.0,0.0
1776,64.0,30.0,30.0,0.0,0.0
1777,53.0,30.0,30.0,0.0,0.0
1778,65.0,30.0,30.0,0.0,0.0
1779,80.0,0.0,60.0,0.0,0.0
1780,72.0,4.0,60.0,0.0,0.0
1781,53.0,26.0,30.0,0.0,0.0
1782,65.0,30.0,30.0,0.0,0.0
1783,82.0,4.0,60.0,0.0,0.0
1784,78.0,0.0,60.0,0.0,0.0
1785,63.0,26.0,30.0,0.0,0.0
1786,72.0,30.0,30.0,0.0,0.0
1787,81.0,0.0,60.0,0.0,0.0
1788,77.0,4.0,60.0,0.0,0.0
1789,63.0,26.0,30.0,0.0,0.0
1790,72.0,30.0,30.0,0.0,0.0
1791,62.0,30.0,30.0,0.0,0.0
1792,71.0,30.0,30.0,0.0,0.0
1793,86.0,4.0,60.0,0.0,0.0
1794,80.0,26.0,30.0,0.0,0.0
1795,77.0,0.0,60.0,0.0,0.0
1796,62.0,0.0,30.0,0.0,0.0
1797,79.0,0.0,30.0,0.0,0.0
1798,71.0,30.0,30.0,0.0,0.0
1799,60.0,26.0,30.0,0.0,0.0
1800,80.0,0.0,60.0,0.0,0.0
1801,86.0,4.0,60.0,0.0,0.0
1802,77.0,0.0,60.0,0.0,0.0
1803,72.0,30.0,30.0,0.0,0.0
1804,86.0,0.0,60.0,0.0,0.0
1805,77.0,4.0,60.0,0.0,0.0
1806,60.0,26.0,30.0,0.0,0.0
1807,80.0,0.0,60.0,0.0,0.0
1808,72.0,30.0,30.0,0.0,0.0
1809,71.0,30.0,30.0,0.0,0.0
1810,80.0,11.0,120.0,0.0,0.0
1811,86.0,0.0,120.0,0.0,0.0
1812,77.0,0.0,120.0,0.0,0.0
1813,72.0,30.0,30.0,0.0,0.0
1814,74.0,19.0,30.0,0.0,0.0
1815,68.0,30.0,30.0,0.0,0.0
1816,67.0,30.0,30.0,0.0,0.0
1817,65.0,0.0,30.0,0.0,0.0
1818,80.0,30.0,30.0,0.0,0.0
1819,79.0,30.0,30.0,0.0,0.0
1820,63.0,0.0,30.0,0.0,0.0
1821,77.0,30.0,30.0,0.0,0.0
1822,62.0,0.0,30.0,0.0,0.0
1823,75.0,26.0,30.0,0.0,0.0
1824,60.0,4.0,60.0,0.0,0.0
1825,77.0,30.0,30.0,0.0,0.0
1826,63.0,4.0,60.0,0.0,0.0
1827,79.0,26.0,30.0,0.0,0.0
1828,72.0,30.0,30.0,0.0,0.0
1829,75.0,26.0,30.0,0.0,0.0
1830,65.0,4.0,60.0,0.0,0.0
1831,74.0,30.0,30.0,0.0,0.0
1832,72.0,26.0,30.0,0.0,0.0
1833,67.0,4.0,60.0,0.0,0.0
1834,71.0,30.0,30.0,0.0,0.0
1835,72.0,26.0,30.0,0.0,0.0
1836,68.0,0.0,60.0,0.0,0.0
1837,75.0,30.0,30.0,0.0,0.0
1838,72.0,26.0,30.0,0.0,0.0
1839,56.0,4.0,60.0,0.0,0.0
1840,75.0,30.0,30.0,0.0,0.0
1841,70.0,30.0,30.0,0.0,0.0
1842,79.0,30.0,30.0,0.0,0.0
1843,70.0,26.0,30.0,0.0,0.0
1844,61.0,0.0,60.0,0.0,0.0
1845,55.0,4.0,60.0,0.0,0.0
1846,52.0,0.0,60.0,0.0,0.0
1847,79.0,30.0,30.0,0.0,0.0
1848,69.0,30.0,30.0,0.0,0.0
1849,77.0,30.0,30.0,0.0,0.0
1850,53.0,0.0,30.0,0.0,0.0
1851,69.0,26.0,30.0,0.0,0.0
1852,60.0,4.0,60.0,0.0,0.0
1853,55.0,30.0,30.0,0.0,0.0
1854,77.0,0.0,30.0,0.0,0.0
1855,65.0,26.0,30.0,0.0,0.0
1856,60.0,4.0,60.0,0.0,0.0
1857,57.0,0.0,60.0,0.0,0.0
1858,75.0,30.0,30.0,0.0,0.0
1859,65.0,26.0,30.0,0.0,0.0
1860,60.0,0.0,60.0,0.0,0.0
1861,57.0,4.0,60.0,0.0,0.0
1862,75.0,30.0,30.0,0.0,0.0
1863,70.0,26.0,30.0,0.0,0.0
1864,58.0,7.0,120.0,0.0,0.0
1865,56.0,4.0,60.0,0.0,0.0
1866,74.0,30.0,30.0,0.0,0.0
1867,70.0,19.0,30.0,0.0,0.0
1868,46.0,4.0,60.0,0.0,0.0
1869,74.0,30.0,30.0,0.0,0.0
1870,68.0,30.0,30.0,0.0,0.0
1871,77.0,30.0,30.0,0.0,0.0
1872,59.0,4.0,60.0,0.0,0.0
1873,68.0,26.0,30.0,0.0,0.0
1874,53.0,0.0,60.0,0.0,0.0
1875,50.0,0.0,60.0,0.0,0.0
1876,77.0,30.0,30.0,0.0,0.0
1877,67.0,30.0,30.0,0.0,0.0
1878,75.0,30.0,30.0,0.0,0.0
1879,67.0,26.0,30.0,0.0,0.0
1880,58.0,4.0,60.0,0.0,0.0
1881,51.0,0.0,30.0,0.0,0.0
1882,75.0,30.0,30.0,0.0,0.0
1883,53.0,0.0,30.0,0.0,0.0
1884,58.0,4.0,60.0,0.0,0.0
1885,55.0,0.0,60.0,0.0,0.0
1886,63.0,26.0,30.0,0.0,0.0
1887,74.0,30.0,30.0,0.0,0.0
1888,63.0,26.0,30.0,0.0,0.0
1889,58.0,0.0,60.0,0.0,0.0
1890,55.0,4.0,60.0,0.0,0.0
1891,74.0,30.0,30.0,0.0,0.0
1892,68.0,26.0,30.0,0.0,0.0
1893,55.0,4.0,60.0,0.0,0.0
1894,56.0,7.0,120.0,0.0,0.0
1895,72.0,30.0,30.0,0.0,0.0
1896,44.0,4.0,60.0,0.0,0.0
1897,68.0,19.0,30.0,0.0,0.0
1898,72.0,30.0,30.0,0.0,0.0
1899,67.0,30.0,30.0,0.0,0.0
1900,75.0,30.0,30.0,0.0,0.0
1901,67.0,26.0,30.0,0.0,0.0
1902,58.0,0.0,60.0,0.0,0.0
1903,48.0,0.0,60.0,0.0,0.0
1904,51.0,4.0,60.0,0.0,0.0
1905,75.0,30.0,30.0,0.0,0.0
1906,66.0,30.0,30.0,0.0,0.0
1907,74.0,30.0,30.0,0.0,0.0
1908,66.0,0.0,30.0,0.0,0.0
1909,57.0,4.0,60.0,0.0,0.0
1910,50.0,26.0,30.0,0.0,0.0
1911,74.0,30.0,30.0,0.0,0.0
1912,52.0,0.0,30.0,0.0,0.0
1913,54.0,4.0,60.0,0.0,0.0
1914,62.0,26.0,30.0,0.0,0.0
1915,57.0,0.0,60.0,0.0,0.0
1916,72.0,30.0,30.0,0.0,0.0
1917,62.0,26.0,30.0,0.0,0.0
1918,56.0,4.0,60.0,0.0,0.0
1919,53.0,0.0,120.0,0.0,0.0
1920,72.0,30.0,30.0,0.0,0.0
1921,71.0,26.0,30.0,0.0,0.0
1922,55.0,4.0,60.0,0.0,0.0
1923,67.0,30.0,30.0,0.0,0.0
1924,72.0,30.0,30.0,0.0,0.0
1925,51.0,0.0,30.0,0.0,0.0
1926,74.0,30.0,30.0,0.0,0.0
1927,53.0,0.0,30.0,0.0,0.0
1928,75.0,30.0,60.0,0.0,0.0
1929,55.0,0.0,60.0,0.0,0.0
1930,67.0,30.0,60.0,0.0,0.0
1931,43.0,60.0,60.0,0.0,0.0
1932,71.0,0.0,120.0,0.0,0.0
1933,74.0,0.0,120.0,0.0,0.0
1934,65.0,26.0,90.0,0.0,0.0
1935,48.0,25.0,90.0,0.0,0.0
1936,63.0,6.0,60.0,0.0,0.0
1937,67.0,0.0,60.0,0.0,0.0
1938,72.0,0.0,60.0,0.0,0.0
1939,51.0,9.0,15.0,0.0,0.0
1940,55.0,107.0,15.0,0.0,0.0
1941,60.0,41.0,120.0,0.0,0.0
1942,79.0,30.0,30.0,0.0,0.0
1943,81.0,30.0,30.0,0.0,0.0
1944,83.0,30.0,30.0,0.0,0.0
1945,55.0,0.0,30.0,0.0,0.0
1946,84.0,30.0,30.0,0.0,0.0
1947,57.0,0.0,30.0,0.0,0.0
1948,86.0,26.0,30.0,0.0,0.0
1949,59.0,4.0,60.0,0.0,0.0
1950,80.0,30.0,30.0,0.0,0.0
1951,62.0,4.0,60.0,0.0,0.0
1952,79.0,26.0,30.0,0.0,0.0
1953,77.0,30.0,30.0,0.0,0.0
1954,76.0,26.0,30.0,0.0,0.0
1955,67.0,4.0,60.0,0.0,0.0
1956,77.0,30.0,30.0,0.0,0.0
1957,79.0,26.0,30.0,0.0,0.0
1958,65.0,4.0,60.0,0.0,0.0
1959,73.0,30.0,30.0,0.0,0.0
1960,72.0,26.0,30.0,0.0,0.0
1961,64.0,4.0,60.0,0.0,0.0
1962,70.0,30.0,30.0,0.0,0.0
1963,68.0,26.0,30.0,0.0,0.0
1964,60.0,4.0,60.0,0.0,0.0
1965,67.0,30.0,30.0,0.0,0.0
1966,68.0,26.0,30.0,0.0,0.0
1967,65.0,4.0,60.0,0.0,0.0
1968,77.0,30.0,30.0,0.0,0.0
1969,68.0,26.0,30.0,0.0,0.0
1970,53.0,4.0,60.0,0.0,0.0
1971,77.0,30.0,30.0,0.0,0.0
1972,69.0,26.0,30.0,0.0,0.0
1973,51.0,4.0,60.0,0.0,0.0
1974,78.0,30.0,30.0,0.0,0.0
1975,63.0,4.0,60.0,0.0,0.0
1976,69.0,26.0,30.0,0.0,0.0
1977,78.0,30.0,30.0,0.0,0.0
1978,61.0,4.0,60.0,0.0,0.0
1979,77.0,26.0,30.0,0.0,0.0
1980,73.0,30.0,30.0,0.0,0.0
1981,49.0,4.0,60.0,0.0,0.0
1982,72.0,26.0,30.0,0.0,0.0
1983,70.0,30.0,30.0,0.0,0.0
1984,69.0,26.0,30.0,0.0,0.0
1985,48.0,4.0,60.0,0.0,0.0
1986,78.0,30.0,30.0,0.0,0.0
1987,77.0,26.0,30.0,0.0,0.0
1988,60.0,4.0,60.0,0.0,0.0
1989,75.0,30.0,30.0,0.0,0.0
1990,58.0,4.0,60.0,0.0,0.0
1991,74.0,26.0,30.0,0.0,0.0
1992,75.0,30.0,30.0,0.0,0.0
1993,77.0,26.0,30.0,0.0,0.0
1994,46.0,4.0,60.0,0.0,0.0
1995,79.0,30.0,30.0,0.0,0.0
1996,80.0,26.0,30.0,0.0,0.0
1997,53.0,4.0,60.0,0.0,0.0
1998,75.0,30.0,30.0,0.0,0.0
1999,73.0,26.0,30.0,0.0,0.0
2000,56.0,4.0,60.0,0.0,0.0
2001,72.0,30.0,30.0,0.0,0.0
2002,71.0,26.0,30.0,0.0,0.0
2003,50.0,4.0,60.0,0.0,0.0
2004,72.0,30.0,30.0,0.0,0.0
2005,74.0,26.0,30.0,0.0,0.0
2006,53.0,4.0,60.0,0.0,0.0
2007,68.0,30.0,30.0,0.0,0.0
2008,47.0,4.0,60.0,0.0,0.0
2009,67.0,26.0,30.0,0.0,0.0
2010,65.0,30.0,30.0,0.0,0.0
2011,63.0,26.0,30.0,0.0,0.0
2012,55.0,4.0,60.0,0.0,0.0
2013,62.0,30.0,30.0,0.0,0.0
2014,63.0,26.0,30.0,0.0,0.0
2015,60.0,4.0,60.0,0.0,0.0
2016,72.0,30.0,30.0,0.0,0.0
2017,63.0,26.0,30.0,0.0,0.0
2018,48.0,4.0,60.0,0.0,0.0
2019,72.0,30.0,30.0,0.0,0.0
2020,64.0,26.0,30.0,0.0,0.0
2021,46.0,4.0,60.0,0.0,0.0
2022,73.0,30.0,30.0,0.0,0.0
2023,64.0,26.0,30.0,0.0,0.0
2024,58.0,4.0,60.0,0.0,0.0
2025,73.0,30.0,30.0,0.0,0.0
2026,72.0,26.0,30.0,0.0,0.0
2027,56.0,4.0,60.0,0.0,0.0
2028,68.0,30.0,30.0,0.0,0.0
2029,67.0,26.0,30.0,0.0,0.0
2030,44.0,4.0,60.0,0.0,0.0
2031,65.0,30.0,30.0,0.0,0.0
2032,64.0,26.0,30.0,0.0,0.0
2033,43.0,4.0,60.0,0.0,0.0
2034,73.0,30.0,30.0,0.0,0.0
2035,72.0,26.0,30.0,0.0,0.0
2036,55.0,4.0,60.0,0.0,0.0
2037,70.0,30.0,30.0,0.0,0.0
2038,53.0,4.0,60.0,0.0,0.0
2039,69.0,26.0,30.0,0.0,0.0
2040,70.0,30.0,30.0,0.0,0.0
2041,72.0,26.0,30.0,0.0,0.0
2042,41.0,4.0,60.0,0.0,0.0
2043,74.0,30.0,30.0,0.0,0.0
2044,75.0,30.0,30.0,0.0,0.0
2045,78.0,30.0,30.0,0.0,0.0
2046,65.0,0.0,30.0,0.0,0.0
2047,77.0,0.0,30.0,0.0,0.0
2048,67.0,30.0,30.0,0.0,0.0
2049,69.0,0.0,30.0,0.0,0.0
2050,75.0,30.0,30.0,0.0,0.0
2051,74.0,26.0,30.0,0.0,0.0
2052,70.0,4.0,60.0,0.0,0.0
2053,75.0,30.0,30.0,0.0,0.0
2054,77.0,26.0,30.0,0.0,0.0
2055,58.0,4.0,60.0,0.0,0.0
2056,71.0,30.0,30.0,0.0,0.0
2057,70.0,30.0,30.0,0.0,0.0
2058,58.0,30.0,30.0,0.0,0.0
2059,68.0,0.0,30.0,0.0,0.0
2060,67.0,0.0,30.0,0.0,0.0
2061,60.0,30.0,30.0,0.0,0.0
2062,62.0,0.0,30.0,0.0,0.0
2063,65.0,30.0,30.0,0.0,0.0
2064,63.0,4.0,60.0,0.0,0.0
2065,67.0,26.0,30.0,0.0,0.0
2066,68.0,30.0,30.0,0.0,0.0
2067,51.0,4.0,60.0,0.0,0.0
2068,70.0,26.0,30.0,0.0,0.0
2069,72.0,30.0,30.0,0.0,0.0
2070,73.0,30.0,30.0,0.0,0.0
2071,51.0,0.0,30.0,0.0,0.0
2072,77.0,30.0,30.0,0.0,0.0
2073,53.0,0.0,30.0,0.0,0.0
2074,75.0,30.0,30.0,0.0,0.0
2075,73.0,0.0,30.0,0.0,0.0
2076,55.0,30.0,30.0,0.0,0.0
2077,72.0,26.0,30.0,0.0,0.0
2078,56.0,4.0,60.0,0.0,0.0
2079,73.0,30.0,30.0,0.0,0.0
2080,75.0,26.0,30.0,0.0,0.0
2081,44.0,4.0,60.0,0.0,0.0
2082,70.0,30.0,30.0,0.0,0.0
2083,68.0,30.0,30.0,0.0,0.0
2084,66.0,30.0,30.0,0.0,0.0
2085,44.0,0.0,30.0,0.0,0.0
2086,65.0,30.0,30.0,0.0,0.0
2087,46.0,0.0,30.0,0.0,0.0
2088,63.0,30.0,30.0,0.0,0.0
2089,48.0,0.0,30.0,0.0,0.0
2090,49.0,26.0,30.0,0.0,0.0
2091,65.0,4.0,60.0,0.0,0.0
2092,56.0,30.0,30.0,0.0,0.0
2093,73.0,4.0,60.0,0.0,0.0
2094,65.0,0.0,60.0,0.0,0.0
2095,49.0,26.0,30.0,0.0,0.0
2096,56.0,30.0,30.0,0.0,0.0
2097,65.0,21.0,60.0,0.0,0.0
2098,73.0,0.0,60.0,0.0,0.0
2099,48.0,30.0,30.0,0.0,0.0
2100,56.0,9.0,30.0,0.0,0.0
2101,75.0,29.0,60.0,0.0,0.0
2102,66.0,3.0,60.0,0.0,0.0
2103,48.0,27.0,30.0,0.0,0.0
2104,56.0,1.0,30.0,0.0,0.0
2105,49.0,30.0,30.0,0.0,0.0
2106,56.0,30.0,30.0,0.0,0.0
2107,65.0,0.0,60.0,0.0,0.0
2108,49.0,26.0,30.0,0.0,0.0
2109,73.0,4.0,60.0,0.0,0.0
2110,56.0,30.0,30.0,0.0,0.0
2111,73.0,29.0,60.0,0.0,0.0
2112,65.0,0.0,60.0,0.0,0.0
2113,45.0,30.0,30.0,0.0,0.0
2114,54.0,1.0,30.0,0.0,0.0
2115,72.0,29.0,60.0,0.0,0.0
2116,63.0,0.0,60.0,0.0,0.0
2117,45.0,30.0,30.0,0.0,0.0
2118,54.0,1.0,30.0,0.0,0.0
2119,46.0,30.0,30.0,0.0,0.0
2120,53.0,30.0,30.0,0.0,0.0
2121,70.0,30.0,30.0,0.0,0.0
2122,46.0,0.0,30.0,0.0,0.0
2123,61.0,0.0,30.0,0.0,0.0
2124,72.0,30.0,30.0,0.0,0.0
2125,63.0,0.0,30.0,0.0,0.0
2126,53.0,0.0,30.0,0.0,0.0
2127,73.0,0.0,60.0,0.0,0.0
2128,65.0,4.0,60.0,0.0,0.0
2129,44.0,26.0,30.0,0.0,0.0
2130,53.0,30.0,30.0,0.0,0.0
2131,77.0,4.0,60.0,0.0,0.0
2132,72.0,0.0,60.0,0.0,0.0
2133,44.0,26.0,30.0,0.0,0.0
2134,53.0,30.0,30.0,0.0,0.0
2135,43.0,30.0,30.0,0.0,0.0
2136,47.0,30.0,30.0,0.0,0.0
2137,80.0,0.0,60.0,0.0,0.0
2138,71.0,4.0,60.0,0.0,0.0
2139,50.0,26.0,30.0,0.0,0.0
2140,53.0,30.0,30.0,0.0,0.0
2141,72.0,4.0,60.0,0.0,0.0
2142,79.0,0.0,60.0,0.0,0.0
2143,51.0,26.0,30.0,0.0,0.0
2144,50.0,30.0,30.0,0.0,0.0
2145,48.0,26.0,30.0,0.0,0.0
2146,74.0,0.0,60.0,0.0,0.0
2147,77.0,4.0,60.0,0.0,0.0
2148,47.0,30.0,30.0,0.0,0.0
2149,48.0,30.0,30.0,0.0,0.0
2150,55.0,30.0,30.0,0.0,0.0
2151,75.0,0.0,30.0,0.0,0.0
2152,72.0,30.0,30.0,0.0,0.0
2153,48.0,0.0,30.0,0.0,0.0
2154,74.0,0.0,30.0,0.0,0.0
2155,71.0,0.0,30.0,0.0,0.0
2156,55.0,30.0,30.0,0.0,0.0
2157,75.0,4.0,60.0,0.0,0.0
2158,72.0,0.0,60.0,0.0,0.0
2159,46.0,26.0,30.0,0.0,0.0
2160,55.0,30.0,30.0,0.0,0.0
2161,79.0,4.0,60.0,0.0,0.0
2162,74.0,0.0,60.0,0.0,0.0
2163,46.0,26.0,30.0,0.0,0.0
2164,55.0,30.0,30.0,0.0,0.0
2165,45.0,30.0,30.0,0.0,0.0
2166,49.0,30.0,30.0,0.0,0.0
2167,82.0,0.0,60.0,0.0,0.0
2168,73.0,4.0,60.0,0.0,0.0
2169,52.0,26.0,30.0,0.0,0.0
2170,55.0,30.0,30.0,0.0,0.0
2171,81.0,0.0,60.0,0.0,0.0
2172,74.0,4.0,60.0,0.0,0.0
2173,53.0,26.0,30.0,0.0,0.0
2174,52.0,30.0,30.0,0.0,0.0
2175,79.0,4.0,60.0,0.0,0.0
2176,76.0,0.0,60.0,0.0,0.0
2177,50.0,26.0,30.0,0.0,0.0
2178,49.0,30.0,30.0,0.0,0.0
2179,69.0,26.0,30.0,0.0,0.0
2180,78.0,0.0,30.0,0.0,0.0
2181,50.0,4.0,60.0,0.0,0.0
2182,75.0,30.0,30.0,0.0,0.0
2183,74.0,26.0,30.0,0.0,0.0
2184,52.0,4.0,60.0,0.0,0.0
2185,72.0,30.0,30.0,0.0,0.0
2186,81.0,26.0,30.0,0.0,0.0
2187,54.0,4.0,60.0,0.0,0.0
2188,72.0,30.0,30.0,0.0,0.0
2189,81.0,26.0,30.0,0.0,0.0
2190,50.0,4.0,60.0,0.0,0.0
2191,72.0,30.0,30.0,0.0,0.0
2192,71.0,26.0,30.0,0.0,0.0
2193,55.0,4.0,60.0,0.0,0.0
2194,80.0,30.0,30.0,0.0,0.0
2195,79.0,26.0,30.0,0.0,0.0
2196,57.0,4.0,60.0,0.0,0.0
2197,77.0,30.0,30.0,0.0,0.0
2198,86.0,26.0,30.0,0.0,0.0
2199,59.0,4.0,60.0,0.0,0.0
2200,77.0,30.0,30.0,0.0,0.0
2201,86.0,26.0,30.0,0.0,0.0
2202,55.0,4.0,60.0,0.0,0.0
2203,77.0,30.0,30.0,0.0,0.0
2204,76.0,26.0,30.0,0.0,0.0
2205,60.0,4.0,60.0,0.0,0.0
2206,73.0,30.0,30.0,0.0,0.0
2207,72.0,26.0,30.0,0.0,0.0
2208,62.0,4.0,60.0,0.0,0.0
2209,70.0,30.0,30.0,0.0,0.0
2210,79.0,26.0,30.0,0.0,0.0
2211,64.0,4.0,60.0,0.0,0.0
2212,70.0,30.0,30.0,0.0,0.0
2213,60.0,4.0,60.0,0.0,0.0
2214,79.0,26.0,30.0,0.0,0.0
2215,70.0,30.0,30.0,0.0,0.0
2216,69.0,26.0,30.0,0.0,0.0
2217,65.0,4.0,60.0,0.0,0.0
2218,78.0,30.0,30.0,0.0,0.0
2219,77.0,26.0,30.0,0.0,0.0
2220,67.0,4.0,60.0,0.0,0.0
2221,75.0,30.0,30.0,0.0,0.0
2222,69.0,4.0,60.0,0.0,0.0
2223,84.0,26.0,30.0,0.0,0.0
2224,75.0,30.0,30.0,0.0,0.0
2225,65.0,4.0,60.0,0.0,0.0
2226,84.0,26.0,30.0,0.0,0.0
2227,75.0,30.0,30.0,0.0,0.0
2228,74.0,30.0,30.0,0.0,0.0
2229,70.0,11.0,120.0,0.0,0.0
2230,77.0,30.0,30.0,0.0,0.0
2231,79.0,19.0,30.0,0.0,0.0
2232,81.0,56.0,30.0,0.0,0.0
2233,82.0,4.0,60.0,0.0,0.0
2234,69.0,30.0,30.0,0.0,0.0
2235,74.0,4.0,60.0,0.0,0.0
2236,67.0,26.0,30.0,0.0,0.0
2237,65.0,30.0,30.0,0.0,0.0
2238,73.0,4.0,60.0,0.0,0.0
2239,64.0,26.0,30.0,0.0,0.0
2240,62.0,30.0,30.0,0.0,0.0
2241,82.0,4.0,60.0,0.0,0.0
2242,64.0,26.0,30.0,0.0,0.0
2243,67.0,30.0,30.0,0.0,0.0
2244,66.0,26.0,30.0,0.0,0.0
2245,81.0,4.0,60.0,0.0,0.0
2246,64.0,30.0,30.0,0.0,0.0
2247,72.0,4.0,60.0,0.0,0.0
2248,66.0,26.0,30.0,0.0,0.0
2249,69.0,30.0,30.0,0.0,0.0
2250,71.0,26.0,30.0,0.0,0.0
2251,69.0,4.0,60.0,0.0,0.0
2252,74.0,30.0,30.0,0.0,0.0
2253,76.0,26.0,30.0,0.0,0.0
2254,67.0,4.0,60.0,0.0,0.0
2255,78.0,56.0,30.0,0.0,0.0
2256,79.0,4.0,60.0,0.0,0.0
2257,65.0,30.0,30.0,0.0,0.0
2258,70.0,4.0,60.0,0.0,0.0
2259,63.0,26.0,30.0,0.0,0.0
2260,62.0,30.0,30.0,0.0,0.0
2261,69.0,4.0,60.0,0.0,0.0
2262,60.0,26.0,30.0,0.0,0.0
2263,59.0,30.0,30.0,0.0,0.0
2264,60.0,26.0,30.0,0.0,0.0
2265,78.0,4.0,60.0,0.0,0.0
2266,63.0,30.0,30.0,0.0,0.0
2267,62.0,26.0,30.0,0.0,0.0
2268,77.0,4.0,60.0,0.0,0.0
2269,60.0,30.0,30.0,0.0,0.0
2270,68.0,4.0,60.0,0.0,0.0
2271,62.0,26.0,30.0,0.0,0.0
2272,65.0,30.0,30.0,0.0,0.0
2273,67.0,26.0,30.0,0.0,0.0
2274,65.0,4.0,60.0,0.0,0.0
2275,71.0,30.0,30.0,0.0,0.0
2276,63.0,4.0,60.0,0.0,0.0
2277,72.0,26.0,30.0,0.0,0.0
2278,74.0,56.0,30.0,0.0,0.0
2279,75.0,4.0,60.0,0.0,0.0
2280,62.0,30.0,30.0,0.0,0.0
2281,67.0,4.0,60.0,0.0,0.0
2282,60.0,26.0,30.0,0.0,0.0
2283,58.0,30.0,30.0,0.0,0.0
2284,57.0,26.0,30.0,0.0,0.0
2285,66.0,4.0,60.0,0.0,0.0
2286,55.0,30.0,30.0,0.0,0.0
2287,75.0,4.0,60.0,0.0,0.0
2288,57.0,26.0,30.0,0.0,0.0
2289,60.0,30.0,30.0,0.0,0.0
2290,74.0,4.0,60.0,0.0,0.0
2291,59.0,26.0,30.0,0.0,0.0
2292,57.0,30.0,30.0,0.0,0.0
2293,65.0,4.0,60.0,0.0,0.0
2294,59.0,26.0,30.0,0.0,0.0
2295,62.0,30.0,30.0,0.0,0.0
2296,64.0,4.0,60.0,0.0,0.0
2297,55.0,26.0,30.0,0.0,0.0
2298,54.0,30.0,30.0,0.0,0.0
2299,73.0,4.0,60.0,0.0,0.0
2300,55.0,26.0,30.0,0.0,0.0
2301,58.0,30.0,30.0,0.0,0.0
2302,72.0,4.0,60.0,0.0,0.0
2303,56.0,26.0,30.0,0.0,0.0
2304,55.0,30.0,30.0,0.0,0.0
2305,63.0,4.0,60.0,0.0,0.0
2306,56.0,26.0,30.0,0.0,0.0
2307,60.0,30.0,30.0,0.0,0.0
2308,62.0,4.0,60.0,0.0,0.0
2309,54.0,26.0,30.0,0.0,0.0
2310,52.0,30.0,30.0,0.0,0.0
2311,54.0,26.0,30.0,0.0,0.0
2312,72.0,4.0,60.0,0.0,0.0
2313,57.0,30.0,30.0,0.0,0.0
2314,71.0,4.0,60.0,0.0,0.0
2315,55.0,26.0,30.0,0.0,0.0
2316,54.0,30.0,30.0,0.0,0.0
2317,61.0,4.0,60.0,0.0,0.0
2318,55.0,26.0,30.0,0.0,0.0
2319,58.0,30.0,30.0,0.0,0.0
2320,52.0,26.0,30.0,0.0,0.0
2321,60.0,4.0,60.0,0.0,0.0
2322,50.0,30.0,30.0,0.0,0.0
2323,70.0,4.0,60.0,0.0,0.0
2324,52.0,26.0,30.0,0.0,0.0
2325,55.0,30.0,30.0,0.0,0.0
2326,69.0,4.0,60.0,0.0,0.0
2327,53.0,26.0,30.0,0.0,0.0
2328,52.0,30.0,30.0,0.0,0.0
2329,68.0,4.0,60.0,0.0,0.0
2330,60.0,0.0,60.0,0.0,0.0
2331,53.0,26.0,30.0,0.0,0.0
2332,56.0,30.0,30.0,0.0,0.0
2333,68.0,4.0,60.0,0.0,0.0
2334,60.0,0.0,60.0,0.0,0.0
2335,50.0,26.0,30.0,0.0,0.0
2336,51.0,30.0,30.0,0.0,0.0
2337,53.0,26.0,30.0,0.0,0.0
2338,67.0,4.0,60.0,0.0,0.0
2339,59.0,0.0,60.0,0.0,0.0
2340,51.0,30.0,30.0,0.0,0.0
2341,53.0,30.0,30.0,0.0,0.0
2342,59.0,30.0,30.0,0.0,0.0
2343,62.0,30.0,30.0,0.0,0.0
2344,53.0,30.0,30.0,0.0,0.0
2345,72.0,0.0,30.0,0.0,0.0
2346,51.0,0.0,30.0,0.0,0.0
2347,74.0,0.0,30.0,0.0,0.0
2348,50.0,0.0,30.0,0.0,0.0
2349,48.0,0.0,30.0,0.0,0.0
2350,75.0,0.0,30.0,0.0,0.0
2351,77.0,0.0,30.0,0.0,0.0
2352,50.0,0.0,30.0,0.0,0.0
2353,79.0,0.0,30.0,0.0,0.0
2354,51.0,30.0,30.0,0.0,0.0
2355,75.0,0.0,30.0,0.0,0.0
2356,53.0,0.0,30.0,0.0,0.0
2357,74.0,0.0,30.0,0.0,0.0
2358,55.0,0.0,30.0,0.0,0.0
2359,72.0,0.0,30.0,0.0,0.0
2360,56.0,0.0,30.0,0.0,0.0
2361,71.0,0.0,30.0,0.0,0.0
2362,56.0,4.0,60.0,0.0,0.0
2363,72.0,0.0,30.0,0.0,0.0
2364,47.0,4.0,60.0,0.0,0.0
2365,74.0,0.0,30.0,0.0,0.0
2366,68.0,0.0,30.0,0.0,0.0
2367,67.0,0.0,120.0,0.0,0.0
2368,65.0,30.0,30.0,0.0,0.0
2369,63.0,19.0,30.0,0.0,0.0
2370,62.0,30.0,30.0,0.0,0.0
2371,60.0,30.0,30.0,0.0,0.0
2372,67.0,30.0,30.0,0.0,0.0
2373,84.0,4.0,60.0,0.0,0.0
2374,75.0,0.0,60.0,0.0,0.0
2375,60.0,26.0,30.0,0.0,0.0
2376,67.0,30.0,30.0,0.0,0.0
2377,86.0,11.0,120.0,0.0,0.0
2378,77.0,0.0,120.0,0.0,0.0
2379,59.0,30.0,30.0,0.0,0.0
2380,67.0,30.0,30.0,0.0,0.0
2381,59.0,19.0,30.0,0.0,0.0
2382,67.0,30.0,30.0,0.0,0.0
2383,60.0,30.0,30.0,0.0,0.0
2384,67.0,30.0,30.0,0.0,0.0
2385,84.0,4.0,60.0,0.0,0.0
2386,75.0,0.0,60.0,0.0,0.0
2387,60.0,26.0,30.0,0.0,0.0
2388,67.0,30.0,30.0,0.0,0.0
2389,83.0,11.0,120.0,0.0,0.0
2390,74.0,0.0,120.0,0.0,0.0
2391,55.0,30.0,30.0,0.0,0.0
2392,67.0,30.0,30.0,0.0,0.0
2393,55.0,19.0,30.0,0.0,0.0
2394,67.0,30.0,30.0,0.0,0.0
2395,60.0,30.0,30.0,0.0,0.0
2396,62.0,30.0,30.0,0.0,0.0
2397,71.0,0.0,30.0,0.0,0.0
2398,63.0,0.0,30.0,0.0,0.0
2399,72.0,30.0,30.0,0.0,0.0
2400,74.0,17.0,30.0,0.0,0.0
2401,65.0,0.0,30.0,0.0,0.0
2402,75.0,13.0,15.0,0.0,0.0
2403,67.0,2.0,30.0,0.0,0.0
2404,74.0,28.0,15.0,0.0,0.0
2405,72.0,0.0,30.0,0.0,0.0
2406,63.0,30.0,30.0,0.0,0.0
2407,77.0,0.0,60.0,0.0,0.0
2408,80.0,4.0,60.0,0.0,0.0
2409,62.0,26.0,30.0,0.0,0.0
2410,60.0,30.0,30.0,0.0,0.0
2411,80.0,4.0,60.0,0.0,0.0
2412,59.0,26.0,30.0,0.0,0.0
2413,77.0,0.0,60.0,0.0,0.0
2414,60.0,30.0,30.0,0.0,0.0
2415,62.0,26.0,30.0,0.0,0.0
2416,79.0,4.0,60.0,0.0,0.0
2417,71.0,0.0,60.0,0.0,0.0
2418,56.0,30.0,30.0,0.0,0.0
2419,55.0,30.0,30.0,0.0,0.0
2420,53.0,30.0,30.0,0.0,0.0
2421,51.0,30.0,30.0,0.0,0.0
2422,50.0,30.0,30.0,0.0,0.0
2423,48.0,30.0,30.0,0.0,0.0
2424,60.0,30.0,30.0,0.0,0.0
2425,75.0,0.0,60.0,0.0,0.0
2426,72.0,4.0,60.0,0.0,0.0
2427,48.0,26.0,30.0,0.0,0.0
2428,60.0,30.0,30.0,0.0,0.0
2429,77.0,4.0,60.0,0.0,0.0
2430,73.0,0.0,60.0,0.0,0.0
2431,58.0,26.0,30.0,0.0,0.0
2432,67.0,30.0,30.0,0.0,0.0
2433,76.0,0.0,60.0,0.0,0.0
2434,72.0,4.0,60.0,0.0,0.0
2435,58.0,26.0,30.0,0.0,0.0
2436,67.0,30.0,30.0,0.0,0.0
2437,56.0,30.0,30.0,0.0,0.0
2438,65.0,30.0,30.0,0.0,0.0
2439,56.0,26.0,30.0,0.0,0.0
2440,77.0,4.0,60.0,0.0,0.0
2441,72.0,0.0,60.0,0.0,0.0
2442,65.0,30.0,30.0,0.0,0.0
2443,82.0,4.0,60.0,0.0,0.0
2444,73.0,0.0,60.0,0.0,0.0
2445,55.0,26.0,30.0,0.0,0.0
2446,64.0,30.0,30.0,0.0,0.0
2447,55.0,26.0,30.0,0.0,0.0
2448,70.0,0.0,60.0,0.0,0.0
2449,79.0,4.0,60.0,0.0,0.0
2450,64.0,30.0,30.0,0.0,0.0
2451,53.0,30.0,30.0,0.0,0.0
2452,65.0,30.0,30.0,0.0,0.0
2453,80.0,0.0,60.0,0.0,0.0
2454,72.0,4.0,60.0,0.0,0.0
2455,53.0,26.0,30.0,0.0,0.0
2456,65.0,30.0,30.0,0.0,0.0
2457,82.0,0.0,60.0,0.0,0.0
2458,63.0,26.0,30.0,0.0,0.0
2459,78.0,4.0,60.0,0.0,0.0
2460,72.0,30.0,30.0,0.0,0.0
2461,81.0,4.0,60.0,0.0,0.0
2462,77.0,0.0,60.0,0.0,0.0
2463,63.0,26.0,30.0,0.0,0.0
2464,72.0,30.0,30.0,0.0,0.0
2465,62.0,30.0,30.0,0.0,0.0
2466,71.0,30.0,30.0,0.0,0.0
2467,86.0,0.0,60.0,0.0,0.0
2468,80.0,26.0,30.0,0.0,0.0
2469,77.0,4.0,60.0,0.0,0.0
2470,62.0,0.0,30.0,0.0,0.0
2471,71.0,30.0,30.0,0.0,0.0
2472,79.0,0.0,30.0,0.0,0.0
2473,86.0,0.0,60.0,0.0,0.0
2474,77.0,4.0,60.0,0.0,0.0
2475,80.0,0.0,60.0,0.0,0.0
2476,60.0,26.0,30.0,0.0,0.0
2477,72.0,30.0,30.0,0.0,0.0
2478,60.0,26.0,30.0,0.0,0.0
2479,77.0,0.0,60.0,0.0,0.0
2480,86.0,0.0,60.0,0.0,0.0
2481,80.0,4.0,60.0,0.0,0.0
2482,72.0,30.0,30.0,0.0,0.0
2483,80.0,11.0,120.0,0.0,0.0
2484,77.0,0.0,120.0,0.0,0.0
2485,71.0,30.0,30.0,0.0,0.0
2486,86.0,0.0,120.0,0.0,0.0
2487,72.0,30.0,30.0,0.0,0.0
2488,74.0,19.0,30.0,0.0,0.0
2489,68.0,30.0,30.0,0.0,0.0
2490,67.0,30.0,30.0,0.0,0.0
2491,80.0,0.0,30.0,0.0,0.0
2492,65.0,30.0,30.0,0.0,0.0
2493,79.0,30.0,30.0,0.0,0.0
2494,63.0,0.0,30.0,0.0,0.0
2495,62.0,0.0,30.0,0.0,0.0
2496,77.0,30.0,30.0,0.0,0.0
2497,75.0,26.0,30.0,0.0,0.0
2498,60.0,4.0,60.0,0.0,0.0
2499,77.0,30.0,30.0,0.0,0.0
2500,79.0,26.0,30.0,0.0,0.0
2501,63.0,4.0,60.0,0.0,0.0
2502,72.0,30.0,30.0,0.0,0.0
2503,65.0,4.0,60.0,0.0,0.0
2504,75.0,26.0,30.0,0.0,0.0
2505,74.0,30.0,30.0,0.0,0.0
2506,72.0,26.0,30.0,0.0,0.0
2507,67.0,4.0,60.0,0.0,0.0
2508,71.0,30.0,30.0,0.0,0.0
2509,72.0,26.0,30.0,0.0,0.0
2510,68.0,0.0,60.0,0.0,0.0
2511,75.0,30.0,30.0,0.0,0.0
2512,72.0,26.0,30.0,0.0,0.0
2513,56.0,4.0,60.0,0.0,0.0
2514,75.0,30.0,30.0,0.0,0.0
2515,70.0,30.0,30.0,0.0,0.0
2516,79.0,30.0,30.0,0.0,0.0
2517,52.0,0.0,60.0,0.0,0.0
2518,70.0,26.0,30.0,0.0,0.0
2519,61.0,0.0,60.0,0.0,0.0
2520,55.0,4.0,60.0,0.0,0.0
2521,79.0,30.0,30.0,0.0,0.0
2522,69.0,30.0,30.0,0.0,0.0
2523,77.0,30.0,30.0,0.0,0.0
2524,60.0,4.0,60.0,0.0,0.0
2525,53.0,0.0,30.0,0.0,0.0
2526,69.0,26.0,30.0,0.0,0.0
2527,77.0,0.0,30.0,0.0,0.0
2528,55.0,30.0,30.0,0.0,0.0
2529,65.0,26.0,30.0,0.0,0.0
2530,60.0,4.0,60.0,0.0,0.0
2531,57.0,0.0,60.0,0.0,0.0
2532,75.0,30.0,30.0,0.0,0.0
2533,65.0,26.0,30.0,0.0,0.0
2534,57.0,0.0,60.0,0.0,0.0
2535,60.0,4.0,60.0,0.0,0.0
2536,75.0,30.0,30.0,0.0,0.0
2537,58.0,7.0,120.0,0.0,0.0
2538,70.0,26.0,30.0,0.0,0.0
2539,56.0,4.0,60.0,0.0,0.0
2540,74.0,30.0,30.0,0.0,0.0
2541,70.0,19.0,30.0,0.0,0.0
2542,46.0,4.0,60.0,0.0,0.0
2543,74.0,30.0,30.0,0.0,0.0
2544,68.0,30.0,30.0,0.0,0.0
2545,77.0,30.0,30.0,0.0,0.0
2546,68.0,26.0,30.0,0.0,0.0
2547,59.0,0.0,60.0,0.0,0.0
2548,50.0,0.0,60.0,0.0,0.0
2549,53.0,4.0,60.0,0.0,0.0
2550,77.0,30.0,30.0,0.0,0.0
2551,67.0,30.0,30.0,0.0,0.0
2552,75.0,30.0,30.0,0.0,0.0
2553,67.0,0.0,30.0,0.0,0.0
2554,58.0,4.0,60.0,0.0,0.0
2555,51.0,26.0,30.0,0.0,0.0
2556,75.0,30.0,30.0,0.0,0.0
2557,53.0,0.0,30.0,0.0,0.0
2558,55.0,4.0,60.0,0.0,0.0
2559,63.0,26.0,30.0,0.0,0.0
2560,58.0,0.0,60.0,0.0,0.0
2561,74.0,30.0,30.0,0.0,0.0
2562,55.0,0.0,60.0,0.0,0.0
2563,63.0,26.0,30.0,0.0,0.0
2564,58.0,4.0,60.0,0.0,0.0
2565,74.0,30.0,30.0,0.0,0.0
2566,68.0,26.0,30.0,0.0,0.0
2567,56.0,7.0,120.0,0.0,0.0
2568,55.0,4.0,60.0,0.0,0.0
2569,72.0,30.0,30.0,0.0,0.0
2570,44.0,4.0,60.0,0.0,0.0
2571,68.0,19.0,30.0,0.0,0.0
2572,72.0,30.0,30.0,0.0,0.0
2573,67.0,30.0,30.0,0.0,0.0
2574,75.0,30.0,30.0,0.0,0.0
2575,67.0,26.0,30.0,0.0,0.0
2576,58.0,0.0,60.0,0.0,0.0
2577,48.0,4.0,60.0,0.0,0.0
2578,51.0,0.0,60.0,0.0,0.0
2579,75.0,30.0,30.0,0.0,0.0
2580,66.0,30.0,30.0,0.0,0.0
2581,74.0,30.0,30.0,0.0,0.0
2582,57.0,4.0,60.0,0.0,0.0
2583,50.0,0.0,30.0,0.0,0.0
2584,66.0,26.0,30.0,0.0,0.0
2585,74.0,30.0,30.0,0.0,0.0
2586,52.0,0.0,30.0,0.0,0.0
2587,62.0,26.0,30.0,0.0,0.0
2588,57.0,0.0,60.0,0.0,0.0
2589,54.0,4.0,60.0,0.0,0.0
2590,72.0,30.0,30.0,0.0,0.0
2591,62.0,26.0,30.0,0.0,0.0
2592,56.0,4.0,60.0,0.0,0.0
2593,53.0,4.0,120.0,0.0,0.0
2594,72.0,30.0,30.0,0.0,0.0
2595,71.0,26.0,30.0,0.0,0.0
2596,55.0,0.0,60.0,0.0,0.0
2597,67.0,30.0,30.0,0.0,0.0
2598,72.0,30.0,30.0,0.0,0.0
2599,51.0,0.0,30.0,0.0,0.0
2600,53.0,0.0,30.0,0.0,0.0
2601,74.0,30.0,30.0,0.0,0.0
2602,75.0,0.0,60.0,0.0,0.0
2603,55.0,30.0,60.0,0.0,0.0
2604,67.0,30.0,60.0,0.0,0.0
2605,71.0,26.0,120.0,0.0,0.0
2606,74.0,0.0,120.0,0.0,0.0
2607,43.0,60.0,60.0,0.0,0.0
2608,65.0,0.0,90.0,0.0,0.0
2609,48.0,25.0,90.0,0.0,0.0
2610,63.0,6.0,60.0,0.0,0.0
2611,67.0,0.0,60.0,0.0,0.0
2612,72.0,0.0,60.0,0.0,0.0
2613,51.0,9.0,15.0,0.0,0.0
2614,55.0,107.0,15.0,0.0,0.0
2615,60.0,0.0,120.0,0.0,0.0
