,note,step,duration,channel,velocity
0,43.0,120.0,120.0,1.0,0.0
1,62.0,0.0,240.0,0.0,0.0
2,45.0,120.0,120.0,1.0,0.0
3,46.0,120.0,120.0,1.0,0.0
4,67.0,120.0,480.0,0.0,0.0
5,48.0,120.0,120.0,1.0,0.0
6,69.0,0.0,240.0,0.0,0.0
7,50.0,120.0,120.0,1.0,0.0
8,52.0,0.0,120.0,1.0,0.0
9,53.0,120.0,120.0,1.0,0.0
10,65.0,120.0,240.0,0.0,0.0
11,74.0,120.0,480.0,0.0,0.0
12,55.0,0.0,120.0,1.0,0.0
13,64.0,0.0,240.0,0.0,0.0
14,57.0,120.0,120.0,1.0,0.0
15,55.0,0.0,120.0,1.0,0.0
16,54.0,120.0,120.0,1.0,0.0
17,72.0,120.0,240.0,0.0,0.0
18,69.0,0.0,480.0,0.0,0.0
19,50.0,0.0,120.0,1.0,0.0
20,70.0,120.0,720.0,0.0,0.0
21,55.0,120.0,120.0,1.0,0.0
22,53.0,120.0,120.0,1.0,0.0
23,67.0,120.0,120.0,0.0,0.0
24,51.0,0.0,120.0,1.0,0.0
25,65.0,0.0,120.0,0.0,0.0
26,50.0,120.0,120.0,1.0,0.0
27,63.0,120.0,600.0,0.0,0.0
28,48.0,120.0,120.0,1.0,0.0
29,45.0,0.0,120.0,1.0,0.0
30,46.0,0.0,120.0,1.0,0.0
31,69.0,120.0,120.0,0.0,0.0
32,48.0,120.0,120.0,1.0,0.0
33,67.0,0.0,120.0,0.0,0.0
34,50.0,0.0,120.0,1.0,0.0
35,66.0,120.0,240.0,0.0,0.0
36,62.0,0.0,120.0,0.0,0.0
37,38.0,0.0,120.0,1.0,0.0
38,40.0,0.0,120.0,1.0,0.0
39,67.0,120.0,120.0,0.0,0.0
40,60.0,0.0,480.0,0.0,0.0
41,42.0,0.0,120.0,1.0,0.0
42,69.0,120.0,120.0,0.0,0.0
43,43.0,120.0,120.0,1.0,0.0
44,62.0,120.0,240.0,0.0,0.0
45,45.0,0.0,120.0,1.0,0.0
46,46.0,120.0,120.0,1.0,0.0
47,58.0,120.0,240.0,0.0,0.0
48,67.0,0.0,480.0,0.0,0.0
49,48.0,0.0,120.0,1.0,0.0
50,57.0,0.0,240.0,0.0,0.0
51,50.0,120.0,120.0,1.0,0.0
52,52.0,120.0,120.0,1.0,0.0
53,62.0,120.0,480.0,0.0,0.0
54,65.0,120.0,240.0,0.0,0.0
55,53.0,120.0,120.0,1.0,0.0
56,50.0,0.0,120.0,1.0,0.0
57,55.0,120.0,120.0,1.0,0.0
58,63.0,0.0,480.0,0.0,0.0
59,43.0,0.0,120.0,1.0,0.0
60,60.0,0.0,480.0,0.0,0.0
61,45.0,120.0,120.0,1.0,0.0
62,41.0,120.0,120.0,1.0,0.0
63,62.0,0.0,480.0,0.0,0.0
64,46.0,120.0,120.0,1.0,0.0
65,45.0,120.0,120.0,1.0,0.0
66,58.0,120.0,480.0,0.0,0.0
67,43.0,120.0,120.0,1.0,0.0
68,41.0,120.0,120.0,1.0,0.0
69,39.0,120.0,120.0,1.0,0.0
70,67.0,0.0,240.0,0.0,0.0
71,50.0,0.0,120.0,1.0,0.0
72,48.0,120.0,120.0,1.0,0.0
73,63.0,0.0,480.0,0.0,0.0
74,72.0,120.0,240.0,0.0,0.0
75,46.0,0.0,120.0,1.0,0.0
76,45.0,120.0,120.0,1.0,0.0
77,65.0,0.0,240.0,0.0,0.0
78,53.0,120.0,120.0,1.0,0.0
79,55.0,120.0,120.0,1.0,0.0
80,62.0,0.0,240.0,0.0,0.0
81,70.0,120.0,480.0,0.0,0.0
82,50.0,120.0,120.0,1.0,0.0
83,60.0,0.0,480.0,0.0,0.0
84,51.0,120.0,120.0,1.0,0.0
85,48.0,0.0,120.0,1.0,0.0
86,53.0,120.0,120.0,1.0,0.0
87,69.0,60.0,240.0,0.0,0.0
88,41.0,0.0,120.0,1.0,0.0
89,46.0,60.0,120.0,1.0,0.0
90,62.0,120.0,240.0,0.0,0.0
91,70.0,60.0,60.0,0.0,0.0
92,69.0,0.0,60.0,0.0,0.0
93,48.0,0.0,120.0,1.0,0.0
94,67.0,60.0,60.0,0.0,0.0
95,65.0,0.0,60.0,0.0,0.0
96,50.0,120.0,120.0,1.0,0.0
97,70.0,120.0,480.0,0.0,0.0
98,51.0,120.0,120.0,1.0,0.0
99,60.0,0.0,240.0,0.0,0.0
100,41.0,120.0,120.0,1.0,0.0
101,43.0,0.0,120.0,1.0,0.0
102,45.0,120.0,120.0,1.0,0.0
103,69.0,0.0,240.0,0.0,0.0
104,65.0,0.0,480.0,0.0,0.0
105,46.0,120.0,120.0,1.0,0.0
106,67.0,120.0,240.0,0.0,0.0
107,48.0,120.0,120.0,1.0,0.0
108,50.0,0.0,120.0,1.0,0.0
109,72.0,120.0,480.0,0.0,0.0
110,63.0,0.0,240.0,0.0,0.0
111,51.0,120.0,120.0,1.0,0.0
112,53.0,120.0,120.0,1.0,0.0
113,62.0,0.0,240.0,0.0,0.0
114,43.0,120.0,120.0,1.0,0.0
115,45.0,0.0,120.0,1.0,0.0
116,46.0,120.0,120.0,1.0,0.0
117,67.0,120.0,480.0,0.0,0.0
118,70.0,0.0,240.0,0.0,0.0
119,48.0,120.0,120.0,1.0,0.0
120,50.0,120.0,120.0,1.0,0.0
121,69.0,0.0,240.0,0.0,0.0
122,52.0,0.0,120.0,1.0,0.0
123,74.0,120.0,480.0,0.0,0.0
124,65.0,0.0,240.0,0.0,0.0
125,53.0,120.0,120.0,1.0,0.0
126,55.0,120.0,120.0,1.0,0.0
127,64.0,0.0,240.0,0.0,0.0
128,57.0,120.0,120.0,1.0,0.0
129,55.0,0.0,120.0,1.0,0.0
130,57.0,120.0,120.0,1.0,0.0
131,69.0,120.0,480.0,0.0,0.0
132,73.0,120.0,240.0,0.0,0.0
133,53.0,0.0,120.0,1.0,0.0
134,58.0,120.0,120.0,1.0,0.0
135,74.0,0.0,240.0,0.0,0.0
136,57.0,0.0,120.0,1.0,0.0
137,76.0,120.0,240.0,0.0,0.0
138,67.0,120.0,480.0,0.0,0.0
139,58.0,120.0,120.0,1.0,0.0
140,55.0,0.0,120.0,1.0,0.0
141,49.0,120.0,120.0,1.0,0.0
142,69.0,0.0,240.0,0.0,0.0
143,57.0,0.0,120.0,1.0,0.0
144,74.0,0.0,480.0,0.0,0.0
145,65.0,120.0,240.0,0.0,0.0
146,58.0,120.0,120.0,1.0,0.0
147,53.0,0.0,120.0,1.0,0.0
148,55.0,120.0,120.0,1.0,0.0
149,64.0,0.0,480.0,0.0,0.0
150,52.0,120.0,120.0,1.0,0.0
151,73.0,120.0,240.0,0.0,0.0
152,57.0,120.0,120.0,1.0,0.0
153,45.0,0.0,120.0,1.0,0.0
154,65.0,0.0,240.0,0.0,0.0
155,74.0,0.0,240.0,0.0,0.0
156,50.0,120.0,120.0,1.0,0.0
157,48.0,120.0,120.0,1.0,0.0
158,70.0,0.0,480.0,0.0,0.0
159,50.0,120.0,120.0,1.0,0.0
160,52.0,120.0,120.0,1.0,0.0
161,53.0,120.0,120.0,1.0,0.0
162,72.0,120.0,240.0,0.0,0.0
163,55.0,0.0,120.0,1.0,0.0
164,77.0,0.0,480.0,0.0,0.0
165,69.0,0.0,240.0,0.0,0.0
166,57.0,120.0,120.0,1.0,0.0
167,58.0,120.0,120.0,1.0,0.0
168,48.0,120.0,120.0,1.0,0.0
169,67.0,0.0,240.0,0.0,0.0
170,50.0,120.0,120.0,1.0,0.0
171,75.0,120.0,240.0,0.0,0.0
172,72.0,120.0,480.0,0.0,0.0
173,51.0,120.0,120.0,1.0,0.0
174,53.0,0.0,120.0,1.0,0.0
175,55.0,120.0,120.0,1.0,0.0
176,74.0,0.0,240.0,0.0,0.0
177,57.0,0.0,120.0,1.0,0.0
178,79.0,0.0,480.0,0.0,0.0
179,70.0,120.0,240.0,0.0,0.0
180,58.0,120.0,120.0,1.0,0.0
181,60.0,0.0,120.0,1.0,0.0
182,69.0,0.0,240.0,0.0,0.0
183,50.0,120.0,120.0,1.0,0.0
184,48.0,120.0,120.0,1.0,0.0
185,78.0,120.0,240.0,0.0,0.0
186,74.0,0.0,360.0,0.0,0.0
187,50.0,120.0,120.0,1.0,0.0
188,46.0,0.0,120.0,1.0,0.0
189,51.0,120.0,120.0,1.0,0.0
190,79.0,0.0,360.0,0.0,0.0
191,67.0,0.0,120.0,0.0,0.0
192,50.0,120.0,120.0,1.0,0.0
193,51.0,60.0,120.0,1.0,0.0
194,72.0,60.0,360.0,0.0,0.0
195,48.0,120.0,120.0,1.0,0.0
196,77.0,60.0,60.0,0.0,0.0
197,75.0,0.0,60.0,0.0,0.0
198,74.0,0.0,360.0,0.0,0.0
199,54.0,0.0,120.0,1.0,0.0
200,50.0,120.0,120.0,1.0,0.0
201,70.0,60.0,60.0,0.0,0.0
202,69.0,0.0,60.0,0.0,0.0
203,70.0,0.0,120.0,0.0,0.0
204,55.0,120.0,120.0,1.0,0.0
205,48.0,120.0,120.0,1.0,0.0
206,75.0,0.0,120.0,0.0,0.0
207,67.0,0.0,120.0,0.0,0.0
208,67.0,0.0,240.0,0.0,0.0
209,70.0,0.0,240.0,0.0,0.0
210,50.0,120.0,120.0,1.0,0.0
211,48.0,120.0,120.0,1.0,0.0
212,66.0,0.0,240.0,0.0,0.0
213,69.0,0.0,240.0,0.0,0.0
214,50.0,120.0,120.0,1.0,0.0
215,38.0,240.0,120.0,1.0,0.0
216,43.0,120.0,240.0,1.0,0.0
217,67.0,0.0,240.0,0.0,0.0
218,75.0,110.0,240.0,0.0,0.0
219,69.0,20.0,240.0,0.0,0.0
220,41.0,10.0,240.0,1.0,0.0
221,74.0,20.0,240.0,0.0,0.0
222,41.0,20.0,20.0,1.0,0.0
223,70.0,20.0,360.0,0.0,0.0
224,39.0,20.0,20.0,1.0,0.0
225,41.0,20.0,20.0,1.0,0.0
226,39.0,20.0,20.0,1.0,0.0
227,41.0,20.0,20.0,1.0,0.0
228,39.0,0.0,20.0,1.0,0.0
229,41.0,20.0,20.0,1.0,0.0
230,79.0,0.0,60.0,0.0,0.0
231,39.0,20.0,20.0,1.0,0.0
232,41.0,20.0,20.0,1.0,0.0
233,39.0,20.0,20.0,1.0,0.0
234,78.0,20.0,60.0,0.0,0.0
235,41.0,20.0,20.0,1.0,0.0
236,39.0,0.0,20.0,1.0,0.0
237,41.0,20.0,20.0,1.0,0.0
238,79.0,120.0,240.0,0.0,0.0
239,39.0,20.0,20.0,1.0,0.0
240,41.0,20.0,20.0,1.0,0.0
241,39.0,20.0,20.0,1.0,0.0
242,41.0,20.0,20.0,1.0,0.0
243,39.0,0.0,20.0,1.0,0.0
244,41.0,20.0,20.0,1.0,0.0
245,72.0,120.0,240.0,0.0,0.0
246,39.0,20.0,20.0,1.0,0.0
247,41.0,20.0,20.0,1.0,0.0
248,39.0,20.0,20.0,1.0,0.0
249,41.0,20.0,20.0,1.0,0.0
250,39.0,0.0,20.0,1.0,0.0
251,38.0,120.0,960.0,1.0,0.0
252,78.0,0.0,120.0,0.0,0.0
253,70.0,120.0,120.0,0.0,0.0
254,79.0,0.0,120.0,0.0,0.0
255,69.0,110.0,120.0,0.0,0.0
256,72.0,0.0,120.0,0.0,0.0
257,67.0,20.0,120.0,0.0,0.0
258,70.0,10.0,120.0,0.0,0.0
259,70.0,20.0,20.0,0.0,0.0
260,66.0,0.0,480.0,0.0,0.0
261,69.0,20.0,20.0,0.0,0.0
262,70.0,20.0,20.0,0.0,0.0
263,69.0,20.0,20.0,0.0,0.0
264,70.0,380.0,20.0,0.0,0.0
265,69.0,0.0,390.0,0.0,0.0
266,62.0,120.0,240.0,0.0,0.0
267,43.0,120.0,120.0,1.0,0.0
268,45.0,0.0,120.0,1.0,0.0
269,46.0,120.0,120.0,1.0,0.0
270,67.0,0.0,480.0,0.0,0.0
271,48.0,120.0,120.0,1.0,0.0
272,69.0,120.0,240.0,0.0,0.0
273,50.0,120.0,120.0,1.0,0.0
274,52.0,0.0,120.0,1.0,0.0
275,53.0,120.0,120.0,1.0,0.0
276,74.0,0.0,480.0,0.0,0.0
277,65.0,0.0,240.0,0.0,0.0
278,55.0,120.0,120.0,1.0,0.0
279,64.0,120.0,240.0,0.0,0.0
280,57.0,120.0,120.0,1.0,0.0
281,55.0,0.0,120.0,1.0,0.0
282,72.0,120.0,240.0,0.0,0.0
283,69.0,0.0,480.0,0.0,0.0
284,54.0,120.0,120.0,1.0,0.0
285,50.0,0.0,120.0,1.0,0.0
286,55.0,120.0,120.0,1.0,0.0
287,70.0,0.0,720.0,0.0,0.0
288,53.0,120.0,120.0,1.0,0.0
289,51.0,120.0,120.0,1.0,0.0
290,67.0,0.0,120.0,0.0,0.0
291,50.0,120.0,120.0,1.0,0.0
292,65.0,0.0,120.0,0.0,0.0
293,48.0,120.0,120.0,1.0,0.0
294,63.0,120.0,600.0,0.0,0.0
295,45.0,120.0,120.0,1.0,0.0
296,69.0,120.0,120.0,0.0,0.0
297,46.0,0.0,120.0,1.0,0.0
298,48.0,0.0,120.0,1.0,0.0
299,67.0,120.0,120.0,0.0,0.0
300,66.0,120.0,240.0,0.0,0.0
301,50.0,0.0,120.0,1.0,0.0
302,38.0,0.0,120.0,1.0,0.0
303,62.0,0.0,120.0,0.0,0.0
304,40.0,0.0,120.0,1.0,0.0
305,67.0,120.0,120.0,0.0,0.0
306,60.0,0.0,480.0,0.0,0.0
307,69.0,120.0,120.0,0.0,0.0
308,42.0,0.0,120.0,1.0,0.0
309,43.0,120.0,120.0,1.0,0.0
310,62.0,0.0,240.0,0.0,0.0
311,45.0,120.0,120.0,1.0,0.0
312,67.0,0.0,480.0,0.0,0.0
313,58.0,0.0,240.0,0.0,0.0
314,46.0,120.0,120.0,1.0,0.0
315,48.0,120.0,120.0,1.0,0.0
316,57.0,0.0,240.0,0.0,0.0
317,50.0,120.0,120.0,1.0,0.0
318,52.0,120.0,120.0,1.0,0.0
319,65.0,120.0,240.0,0.0,0.0
320,62.0,0.0,480.0,0.0,0.0
321,53.0,120.0,120.0,1.0,0.0
322,50.0,0.0,120.0,1.0,0.0
323,63.0,120.0,480.0,0.0,0.0
324,55.0,120.0,120.0,1.0,0.0
325,43.0,120.0,120.0,1.0,0.0
326,60.0,0.0,480.0,0.0,0.0
327,45.0,120.0,120.0,1.0,0.0
328,41.0,0.0,120.0,1.0,0.0
329,62.0,120.0,480.0,0.0,0.0
330,46.0,120.0,120.0,1.0,0.0
331,45.0,120.0,120.0,1.0,0.0
332,58.0,0.0,480.0,0.0,0.0
333,43.0,120.0,120.0,1.0,0.0
334,41.0,0.0,120.0,1.0,0.0
335,67.0,0.0,240.0,0.0,0.0
336,39.0,120.0,120.0,1.0,0.0
337,50.0,120.0,120.0,1.0,0.0
338,63.0,0.0,480.0,0.0,0.0
339,48.0,120.0,120.0,1.0,0.0
340,72.0,0.0,240.0,0.0,0.0
341,46.0,120.0,120.0,1.0,0.0
342,65.0,0.0,240.0,0.0,0.0
343,45.0,120.0,120.0,1.0,0.0
344,53.0,120.0,120.0,1.0,0.0
345,70.0,0.0,480.0,0.0,0.0
346,62.0,0.0,240.0,0.0,0.0
347,55.0,120.0,120.0,1.0,0.0
348,50.0,120.0,120.0,1.0,0.0
349,51.0,120.0,120.0,1.0,0.0
350,60.0,60.0,480.0,0.0,0.0
351,48.0,120.0,120.0,1.0,0.0
352,69.0,0.0,240.0,0.0,0.0
353,53.0,120.0,120.0,1.0,0.0
354,41.0,0.0,120.0,1.0,0.0
355,70.0,60.0,60.0,0.0,0.0
356,62.0,0.0,240.0,0.0,0.0
357,46.0,0.0,120.0,1.0,0.0
358,69.0,60.0,60.0,0.0,0.0
359,67.0,60.0,60.0,0.0,0.0
360,48.0,120.0,120.0,1.0,0.0
361,65.0,0.0,60.0,0.0,0.0
362,70.0,120.0,480.0,0.0,0.0
363,50.0,120.0,120.0,1.0,0.0
364,51.0,120.0,120.0,1.0,0.0
365,60.0,0.0,240.0,0.0,0.0
366,41.0,120.0,120.0,1.0,0.0
367,43.0,0.0,120.0,1.0,0.0
368,45.0,120.0,120.0,1.0,0.0
369,69.0,120.0,240.0,0.0,0.0
370,65.0,0.0,480.0,0.0,0.0
371,46.0,0.0,120.0,1.0,0.0
372,67.0,0.0,240.0,0.0,0.0
373,48.0,120.0,120.0,1.0,0.0
374,50.0,120.0,120.0,1.0,0.0
375,63.0,0.0,240.0,0.0,0.0
376,72.0,0.0,480.0,0.0,0.0
377,51.0,120.0,120.0,1.0,0.0
378,53.0,120.0,120.0,1.0,0.0
379,62.0,120.0,240.0,0.0,0.0
380,43.0,120.0,120.0,1.0,0.0
381,45.0,0.0,120.0,1.0,0.0
382,67.0,120.0,480.0,0.0,0.0
383,46.0,120.0,120.0,1.0,0.0
384,70.0,0.0,240.0,0.0,0.0
385,48.0,120.0,120.0,1.0,0.0
386,50.0,120.0,120.0,1.0,0.0
387,69.0,0.0,240.0,0.0,0.0
388,52.0,0.0,120.0,1.0,0.0
389,65.0,120.0,240.0,0.0,0.0
390,74.0,0.0,480.0,0.0,0.0
391,53.0,120.0,120.0,1.0,0.0
392,55.0,0.0,120.0,1.0,0.0
393,57.0,120.0,120.0,1.0,0.0
394,64.0,120.0,240.0,0.0,0.0
395,55.0,0.0,120.0,1.0,0.0
396,73.0,0.0,240.0,0.0,0.0
397,69.0,120.0,480.0,0.0,0.0
398,57.0,120.0,120.0,1.0,0.0
399,53.0,120.0,120.0,1.0,0.0
400,74.0,0.0,240.0,0.0,0.0
401,58.0,120.0,120.0,1.0,0.0
402,57.0,0.0,120.0,1.0,0.0
403,58.0,120.0,120.0,1.0,0.0
404,67.0,0.0,480.0,0.0,0.0
405,76.0,120.0,240.0,0.0,0.0
406,55.0,0.0,120.0,1.0,0.0
407,69.0,0.0,240.0,0.0,0.0
408,49.0,120.0,120.0,1.0,0.0
409,57.0,120.0,120.0,1.0,0.0
410,65.0,120.0,240.0,0.0,0.0
411,74.0,0.0,480.0,0.0,0.0
412,58.0,120.0,120.0,1.0,0.0
413,53.0,0.0,120.0,1.0,0.0
414,64.0,0.0,480.0,0.0,0.0
415,55.0,120.0,120.0,1.0,0.0
416,52.0,120.0,120.0,1.0,0.0
417,73.0,0.0,240.0,0.0,0.0
418,57.0,120.0,120.0,1.0,0.0
419,45.0,120.0,120.0,1.0,0.0
420,50.0,120.0,120.0,1.0,0.0
421,74.0,120.0,240.0,0.0,0.0
422,65.0,0.0,240.0,0.0,0.0
423,48.0,0.0,120.0,1.0,0.0
424,50.0,120.0,120.0,1.0,0.0
425,70.0,0.0,480.0,0.0,0.0
426,52.0,120.0,120.0,1.0,0.0
427,53.0,120.0,120.0,1.0,0.0
428,72.0,0.0,240.0,0.0,0.0
429,55.0,120.0,120.0,1.0,0.0
430,77.0,120.0,480.0,0.0,0.0
431,69.0,0.0,240.0,0.0,0.0
432,57.0,120.0,120.0,1.0,0.0
433,58.0,120.0,120.0,1.0,0.0
434,48.0,120.0,120.0,1.0,0.0
435,67.0,0.0,240.0,0.0,0.0
436,50.0,0.0,120.0,1.0,0.0
437,72.0,0.0,480.0,0.0,0.0
438,75.0,120.0,240.0,0.0,0.0
439,51.0,120.0,120.0,1.0,0.0
440,53.0,0.0,120.0,1.0,0.0
441,55.0,120.0,120.0,1.0,0.0
442,74.0,0.0,240.0,0.0,0.0
443,57.0,120.0,120.0,1.0,0.0
444,79.0,120.0,480.0,0.0,0.0
445,70.0,120.0,240.0,0.0,0.0
446,58.0,120.0,120.0,1.0,0.0
447,60.0,0.0,120.0,1.0,0.0
448,69.0,0.0,240.0,0.0,0.0
449,50.0,120.0,120.0,1.0,0.0
450,48.0,0.0,120.0,1.0,0.0
451,74.0,0.0,360.0,0.0,0.0
452,50.0,120.0,120.0,1.0,0.0
453,78.0,120.0,240.0,0.0,0.0
454,46.0,0.0,120.0,1.0,0.0
455,51.0,120.0,120.0,1.0,0.0
456,79.0,0.0,360.0,0.0,0.0
457,67.0,120.0,120.0,0.0,0.0
458,50.0,0.0,120.0,1.0,0.0
459,51.0,60.0,120.0,1.0,0.0
460,72.0,0.0,360.0,0.0,0.0
461,48.0,0.0,120.0,1.0,0.0
462,77.0,60.0,60.0,0.0,0.0
463,75.0,120.0,60.0,0.0,0.0
464,54.0,60.0,120.0,1.0,0.0
465,74.0,0.0,360.0,0.0,0.0
466,70.0,60.0,60.0,0.0,0.0
467,50.0,120.0,120.0,1.0,0.0
468,69.0,0.0,60.0,0.0,0.0
469,70.0,120.0,120.0,0.0,0.0
470,55.0,0.0,120.0,1.0,0.0
471,67.0,120.0,120.0,0.0,0.0
472,75.0,0.0,120.0,0.0,0.0
473,48.0,0.0,120.0,1.0,0.0
474,70.0,120.0,240.0,0.0,0.0
475,50.0,120.0,120.0,1.0,0.0
476,67.0,0.0,240.0,0.0,0.0
477,48.0,0.0,120.0,1.0,0.0
478,50.0,120.0,120.0,1.0,0.0
479,66.0,240.0,240.0,0.0,0.0
480,69.0,0.0,240.0,0.0,0.0
481,38.0,0.0,120.0,1.0,0.0
482,43.0,0.0,240.0,1.0,0.0
483,67.0,120.0,240.0,0.0,0.0
484,75.0,110.0,240.0,0.0,0.0
485,41.0,10.0,240.0,1.0,0.0
486,69.0,20.0,240.0,0.0,0.0
487,74.0,0.0,240.0,0.0,0.0
488,41.0,20.0,20.0,1.0,0.0
489,70.0,20.0,360.0,0.0,0.0
490,39.0,20.0,20.0,1.0,0.0
491,41.0,20.0,20.0,1.0,0.0
492,39.0,20.0,20.0,1.0,0.0
493,41.0,20.0,20.0,1.0,0.0
494,39.0,20.0,20.0,1.0,0.0
495,79.0,20.0,60.0,0.0,0.0
496,41.0,20.0,20.0,1.0,0.0
497,39.0,20.0,20.0,1.0,0.0
498,41.0,0.0,20.0,1.0,0.0
499,78.0,20.0,60.0,0.0,0.0
500,39.0,20.0,20.0,1.0,0.0
501,41.0,20.0,20.0,1.0,0.0
502,39.0,0.0,20.0,1.0,0.0
503,41.0,20.0,20.0,1.0,0.0
504,79.0,120.0,240.0,0.0,0.0
505,39.0,20.0,20.0,1.0,0.0
506,41.0,20.0,20.0,1.0,0.0
507,39.0,20.0,20.0,1.0,0.0
508,41.0,20.0,20.0,1.0,0.0
509,39.0,0.0,20.0,1.0,0.0
510,72.0,120.0,240.0,0.0,0.0
511,41.0,20.0,20.0,1.0,0.0
512,39.0,20.0,20.0,1.0,0.0
513,41.0,20.0,20.0,1.0,0.0
514,39.0,20.0,20.0,1.0,0.0
515,41.0,20.0,20.0,1.0,0.0
516,39.0,0.0,20.0,1.0,0.0
517,38.0,0.0,960.0,1.0,0.0
518,78.0,0.0,120.0,0.0,0.0
519,79.0,0.0,120.0,0.0,0.0
520,70.0,120.0,120.0,0.0,0.0
521,69.0,110.0,120.0,0.0,0.0
522,72.0,0.0,120.0,0.0,0.0
523,67.0,20.0,120.0,0.0,0.0
524,70.0,10.0,120.0,0.0,0.0
525,66.0,0.0,480.0,0.0,0.0
526,70.0,20.0,20.0,0.0,0.0
527,69.0,20.0,20.0,0.0,0.0
528,70.0,20.0,20.0,0.0,0.0
529,69.0,20.0,20.0,0.0,0.0
530,70.0,380.0,20.0,0.0,0.0
531,69.0,120.0,390.0,0.0,0.0
532,50.0,120.0,120.0,1.0,0.0
533,77.0,120.0,600.0,0.0,0.0
534,69.0,0.0,120.0,0.0,0.0
535,51.0,120.0,120.0,1.0,0.0
536,74.0,0.0,120.0,0.0,0.0
537,53.0,120.0,120.0,1.0,0.0
538,72.0,0.0,120.0,0.0,0.0
539,50.0,120.0,120.0,1.0,0.0
540,71.0,0.0,480.0,0.0,0.0
541,55.0,0.0,120.0,1.0,0.0
542,53.0,0.0,120.0,1.0,0.0
543,74.0,120.0,120.0,0.0,0.0
544,51.0,0.0,120.0,1.0,0.0
545,79.0,120.0,120.0,0.0,0.0
546,77.0,0.0,120.0,0.0,0.0
547,50.0,120.0,120.0,1.0,0.0
548,48.0,120.0,120.0,1.0,0.0
549,75.0,120.0,240.0,0.0,0.0
550,72.0,0.0,240.0,0.0,0.0
551,39.0,0.0,120.0,1.0,0.0
552,74.0,120.0,240.0,0.0,0.0
553,71.0,0.0,240.0,0.0,0.0
554,41.0,120.0,120.0,1.0,0.0
555,43.0,0.0,120.0,1.0,0.0
556,72.0,120.0,120.0,0.0,0.0
557,75.0,120.0,600.0,0.0,0.0
558,36.0,0.0,120.0,1.0,0.0
559,38.0,0.0,120.0,1.0,0.0
560,67.0,120.0,120.0,0.0,0.0
561,72.0,120.0,120.0,0.0,0.0
562,39.0,0.0,120.0,1.0,0.0
563,36.0,120.0,120.0,1.0,0.0
564,70.0,0.0,120.0,0.0,0.0
565,69.0,0.0,480.0,0.0,0.0
566,41.0,0.0,120.0,1.0,0.0
567,39.0,0.0,120.0,1.0,0.0
568,72.0,120.0,120.0,0.0,0.0
569,38.0,120.0,120.0,1.0,0.0
570,77.0,0.0,120.0,0.0,0.0
571,36.0,120.0,120.0,1.0,0.0
572,75.0,0.0,120.0,0.0,0.0
573,74.0,120.0,240.0,0.0,0.0
574,70.0,0.0,240.0,0.0,0.0
575,34.0,120.0,120.0,1.0,0.0
576,38.0,0.0,120.0,1.0,0.0
577,39.0,120.0,120.0,1.0,0.0
578,69.0,0.0,240.0,0.0,0.0
579,72.0,120.0,240.0,0.0,0.0
580,41.0,0.0,120.0,1.0,0.0
581,34.0,120.0,120.0,1.0,0.0
582,74.0,10.0,600.0,0.0,0.0
583,70.0,0.0,120.0,0.0,0.0
584,48.0,120.0,120.0,1.0,0.0
585,65.0,0.0,120.0,0.0,0.0
586,46.0,120.0,120.0,1.0,0.0
587,67.0,0.0,120.0,0.0,0.0
588,45.0,110.0,120.0,1.0,0.0
589,69.0,0.0,120.0,0.0,0.0
590,43.0,120.0,120.0,1.0,0.0
591,70.0,120.0,600.0,0.0,0.0
592,41.0,120.0,120.0,1.0,0.0
593,74.0,0.0,120.0,0.0,0.0
594,76.0,0.0,120.0,0.0,0.0
595,40.0,120.0,120.0,1.0,0.0
596,77.0,0.0,120.0,0.0,0.0
597,38.0,120.0,120.0,1.0,0.0
598,79.0,0.0,240.0,0.0,0.0
599,37.0,0.0,120.0,1.0,0.0
600,69.0,0.0,120.0,0.0,0.0
601,50.0,120.0,120.0,1.0,0.0
602,77.0,0.0,480.0,0.0,0.0
603,74.0,0.0,120.0,0.0,0.0
604,52.0,120.0,120.0,1.0,0.0
605,53.0,0.0,120.0,1.0,0.0
606,72.0,120.0,120.0,0.0,0.0
607,55.0,0.0,120.0,1.0,0.0
608,70.0,120.0,120.0,0.0,0.0
609,69.0,0.0,120.0,0.0,0.0
610,57.0,120.0,120.0,1.0,0.0
611,75.0,0.0,120.0,0.0,0.0
612,67.0,0.0,480.0,0.0,0.0
613,58.0,120.0,120.0,1.0,0.0
614,55.0,120.0,120.0,1.0,0.0
615,74.0,0.0,120.0,0.0,0.0
616,73.0,120.0,120.0,0.0,0.0
617,57.0,0.0,120.0,1.0,0.0
618,38.0,0.0,120.0,1.0,0.0
619,69.0,120.0,120.0,0.0,0.0
620,40.0,120.0,120.0,1.0,0.0
621,74.0,0.0,120.0,0.0,0.0
622,65.0,0.0,360.0,0.0,0.0
623,72.0,0.0,120.0,0.0,0.0
624,41.0,120.0,120.0,1.0,0.0
625,70.0,120.0,720.0,0.0,0.0
626,43.0,120.0,120.0,1.0,0.0
627,65.0,0.0,120.0,0.0,0.0
628,45.0,120.0,120.0,1.0,0.0
629,64.0,120.0,120.0,0.0,0.0
630,46.0,0.0,120.0,1.0,0.0
631,43.0,120.0,120.0,1.0,0.0
632,62.0,0.0,120.0,0.0,0.0
633,45.0,120.0,120.0,1.0,0.0
634,61.0,0.0,120.0,0.0,0.0
635,62.0,0.0,120.0,0.0,0.0
636,47.0,0.0,120.0,1.0,0.0
637,64.0,0.0,480.0,0.0,0.0
638,69.0,0.0,120.0,0.0,0.0
639,49.0,120.0,120.0,1.0,0.0
640,67.0,0.0,120.0,0.0,0.0
641,45.0,120.0,120.0,1.0,0.0
642,50.0,0.0,120.0,1.0,0.0
643,65.0,120.0,120.0,0.0,0.0
644,52.0,0.0,120.0,1.0,0.0
645,67.0,120.0,120.0,0.0,0.0
646,53.0,120.0,120.0,1.0,0.0
647,62.0,0.0,120.0,0.0,0.0
648,69.0,0.0,480.0,0.0,0.0
649,60.0,120.0,120.0,0.0,0.0
650,50.0,0.0,120.0,1.0,0.0
651,58.0,0.0,480.0,0.0,0.0
652,55.0,120.0,120.0,1.0,0.0
653,53.0,120.0,120.0,1.0,0.0
654,67.0,120.0,480.0,0.0,0.0
655,52.0,120.0,120.0,1.0,0.0
656,50.0,120.0,120.0,1.0,0.0
657,57.0,0.0,480.0,0.0,0.0
658,49.0,120.0,120.0,1.0,0.0
659,45.0,0.0,120.0,1.0,0.0
660,50.0,120.0,120.0,1.0,0.0
661,65.0,120.0,480.0,0.0,0.0
662,48.0,120.0,120.0,1.0,0.0
663,46.0,120.0,120.0,1.0,0.0
664,55.0,120.0,600.0,0.0,0.0
665,45.0,0.0,120.0,1.0,0.0
666,46.0,120.0,120.0,1.0,0.0
667,64.0,0.0,120.0,0.0,0.0
668,62.0,0.0,120.0,0.0,0.0
669,43.0,120.0,120.0,1.0,0.0
670,61.0,0.0,120.0,0.0,0.0
671,45.0,0.0,120.0,1.0,0.0
672,43.0,120.0,120.0,1.0,0.0
673,70.0,0.0,120.0,0.0,0.0
674,61.0,0.0,120.0,0.0,0.0
675,62.0,0.0,120.0,0.0,0.0
676,41.0,0.0,120.0,1.0,0.0
677,69.0,120.0,120.0,0.0,0.0
678,43.0,120.0,120.0,1.0,0.0
679,67.0,0.0,120.0,0.0,0.0
680,64.0,0.0,120.0,0.0,0.0
681,45.0,120.0,120.0,1.0,0.0
682,57.0,0.0,120.0,0.0,0.0
683,65.0,0.0,240.0,0.0,0.0
684,43.0,120.0,120.0,1.0,0.0
685,62.0,0.0,240.0,0.0,0.0
686,45.0,120.0,120.0,1.0,0.0
687,64.0,0.0,240.0,0.0,0.0
688,61.0,120.0,120.0,0.0,0.0
689,33.0,0.0,120.0,1.0,0.0
690,38.0,120.0,120.0,1.0,0.0
691,62.0,0.0,240.0,0.0,0.0
692,45.0,120.0,120.0,1.0,0.0
693,68.0,0.0,480.0,0.0,0.0
694,47.0,120.0,120.0,1.0,0.0
695,48.0,120.0,120.0,1.0,0.0
696,50.0,120.0,120.0,1.0,0.0
697,71.0,120.0,240.0,0.0,0.0
698,53.0,0.0,120.0,1.0,0.0
699,67.0,0.0,120.0,0.0,0.0
700,72.0,0.0,120.0,0.0,0.0
701,51.0,120.0,120.0,1.0,0.0
702,65.0,0.0,120.0,0.0,0.0
703,74.0,120.0,120.0,0.0,0.0
704,50.0,0.0,120.0,1.0,0.0
705,48.0,120.0,120.0,1.0,0.0
706,67.0,0.0,120.0,0.0,0.0
707,63.0,0.0,120.0,0.0,0.0
708,50.0,0.0,120.0,1.0,0.0
709,80.0,0.0,120.0,0.0,0.0
710,71.0,120.0,120.0,0.0,0.0
711,72.0,0.0,120.0,0.0,0.0
712,51.0,0.0,120.0,1.0,0.0
713,79.0,120.0,120.0,0.0,0.0
714,53.0,120.0,120.0,1.0,0.0
715,77.0,0.0,120.0,0.0,0.0
716,74.0,0.0,120.0,0.0,0.0
717,75.0,120.0,240.0,0.0,0.0
718,55.0,120.0,120.0,1.0,0.0
719,67.0,0.0,120.0,0.0,0.0
720,72.0,0.0,240.0,0.0,0.0
721,53.0,0.0,120.0,1.0,0.0
722,74.0,120.0,240.0,0.0,0.0
723,55.0,120.0,120.0,1.0,0.0
724,43.0,0.0,120.0,1.0,0.0
725,71.0,0.0,120.0,0.0,0.0
726,48.0,120.0,120.0,1.0,0.0
727,72.0,0.0,240.0,0.0,0.0
728,55.0,120.0,120.0,1.0,0.0
729,78.0,0.0,480.0,0.0,0.0
730,57.0,120.0,120.0,1.0,0.0
731,58.0,120.0,120.0,1.0,0.0
732,60.0,120.0,120.0,1.0,0.0
733,69.0,0.0,240.0,0.0,0.0
734,51.0,120.0,120.0,1.0,0.0
735,70.0,0.0,120.0,0.0,0.0
736,50.0,120.0,120.0,1.0,0.0
737,77.0,0.0,120.0,0.0,0.0
738,72.0,120.0,120.0,0.0,0.0
739,75.0,0.0,120.0,0.0,0.0
740,48.0,0.0,120.0,1.0,0.0
741,46.0,0.0,120.0,1.0,0.0
742,74.0,120.0,120.0,0.0,0.0
743,65.0,0.0,120.0,0.0,0.0
744,66.0,120.0,120.0,0.0,0.0
745,48.0,0.0,120.0,1.0,0.0
746,69.0,0.0,120.0,0.0,0.0
747,50.0,120.0,120.0,1.0,0.0
748,70.0,0.0,120.0,0.0,0.0
749,65.0,0.0,120.0,0.0,0.0
750,72.0,0.0,120.0,0.0,0.0
751,63.0,120.0,120.0,0.0,0.0
752,51.0,0.0,120.0,1.0,0.0
753,53.0,0.0,120.0,1.0,0.0
754,62.0,0.0,240.0,0.0,0.0
755,65.0,120.0,120.0,0.0,0.0
756,70.0,120.0,240.0,0.0,0.0
757,51.0,120.0,120.0,1.0,0.0
758,60.0,0.0,240.0,0.0,0.0
759,53.0,0.0,120.0,1.0,0.0
760,41.0,0.0,120.0,1.0,0.0
761,69.0,120.0,120.0,0.0,0.0
762,62.0,0.0,120.0,0.0,0.0
763,43.0,120.0,120.0,1.0,0.0
764,58.0,0.0,240.0,0.0,0.0
765,46.0,120.0,120.0,1.0,0.0
766,67.0,120.0,240.0,0.0,0.0
767,57.0,0.0,240.0,0.0,0.0
768,50.0,0.0,120.0,1.0,0.0
769,38.0,120.0,120.0,1.0,0.0
770,65.0,0.0,120.0,0.0,0.0
771,55.0,120.0,240.0,0.0,0.0
772,58.0,0.0,120.0,0.0,0.0
773,39.0,120.0,120.0,1.0,0.0
774,63.0,120.0,240.0,0.0,0.0
775,43.0,0.0,120.0,1.0,0.0
776,53.0,120.0,240.0,0.0,0.0
777,46.0,120.0,360.0,1.0,0.0
778,62.0,0.0,120.0,0.0,0.0
779,64.0,0.0,240.0,0.0,0.0
780,55.0,120.0,240.0,0.0,0.0
781,46.0,0.0,120.0,1.0,0.0
782,45.0,0.0,120.0,1.0,0.0
783,60.0,120.0,360.0,0.0,0.0
784,66.0,120.0,120.0,0.0,0.0
785,67.0,0.0,120.0,0.0,0.0
786,43.0,120.0,120.0,1.0,0.0
787,69.0,120.0,600.0,0.0,0.0
788,42.0,0.0,120.0,1.0,0.0
789,38.0,120.0,120.0,1.0,0.0
790,63.0,0.0,120.0,0.0,0.0
791,62.0,0.0,120.0,0.0,0.0
792,40.0,120.0,120.0,1.0,0.0
793,60.0,0.0,120.0,0.0,0.0
794,42.0,120.0,120.0,1.0,0.0
795,58.0,120.0,240.0,0.0,0.0
796,43.0,0.0,120.0,1.0,0.0
797,50.0,0.0,120.0,1.0,0.0
798,67.0,0.0,120.0,0.0,0.0
799,48.0,0.0,120.0,1.0,0.0
800,69.0,120.0,120.0,0.0,0.0
801,63.0,0.0,360.0,0.0,0.0
802,46.0,0.0,120.0,1.0,0.0
803,70.0,120.0,120.0,0.0,0.0
804,72.0,0.0,600.0,0.0,0.0
805,45.0,120.0,120.0,1.0,0.0
806,67.0,120.0,120.0,0.0,0.0
807,41.0,0.0,120.0,1.0,0.0
808,43.0,0.0,120.0,1.0,0.0
809,65.0,120.0,120.0,0.0,0.0
810,63.0,0.0,120.0,0.0,0.0
811,45.0,120.0,120.0,1.0,0.0
812,62.0,0.0,240.0,0.0,0.0
813,46.0,120.0,120.0,1.0,0.0
814,70.0,0.0,120.0,0.0,0.0
815,53.0,120.0,120.0,1.0,0.0
816,67.0,120.0,360.0,0.0,0.0
817,51.0,120.0,120.0,1.0,0.0
818,72.0,0.0,120.0,0.0,0.0
819,74.0,0.0,120.0,0.0,0.0
820,50.0,120.0,120.0,1.0,0.0
821,75.0,0.0,720.0,0.0,0.0
822,48.0,0.0,120.0,1.0,0.0
823,45.0,0.0,120.0,1.0,0.0
824,70.0,120.0,120.0,0.0,0.0
825,46.0,0.0,120.0,1.0,0.0
826,69.0,120.0,120.0,0.0,0.0
827,48.0,0.0,120.0,1.0,0.0
828,67.0,120.0,120.0,0.0,0.0
829,42.0,0.0,120.0,1.0,0.0
830,69.0,120.0,120.0,0.0,0.0
831,72.0,0.0,120.0,0.0,0.0
832,50.0,120.0,120.0,1.0,0.0
833,52.0,120.0,120.0,1.0,0.0
834,74.0,0.0,360.0,0.0,0.0
835,70.0,0.0,120.0,0.0,0.0
836,69.0,120.0,120.0,0.0,0.0
837,54.0,0.0,120.0,1.0,0.0
838,55.0,120.0,120.0,1.0,0.0
839,70.0,120.0,240.0,0.0,0.0
840,43.0,0.0,120.0,1.0,0.0
841,77.0,0.0,120.0,0.0,0.0
842,45.0,120.0,120.0,1.0,0.0
843,67.0,0.0,360.0,0.0,0.0
844,75.0,0.0,120.0,0.0,0.0
845,74.0,0.0,120.0,0.0,0.0
846,46.0,120.0,120.0,1.0,0.0
847,72.0,0.0,240.0,0.0,0.0
848,48.0,120.0,120.0,1.0,0.0
849,50.0,0.0,120.0,1.0,0.0
850,70.0,120.0,120.0,0.0,0.0
851,48.0,0.0,120.0,1.0,0.0
852,76.0,0.0,360.0,0.0,0.0
853,69.0,120.0,120.0,0.0,0.0
854,67.0,120.0,120.0,0.0,0.0
855,46.0,0.0,120.0,1.0,0.0
856,45.0,120.0,120.0,1.0,0.0
857,72.0,120.0,240.0,0.0,0.0
858,57.0,0.0,120.0,1.0,0.0
859,79.0,0.0,120.0,0.0,0.0
860,58.0,120.0,120.0,1.0,0.0
861,69.0,0.0,360.0,0.0,0.0
862,77.0,0.0,120.0,0.0,0.0
863,76.0,0.0,120.0,0.0,0.0
864,60.0,120.0,120.0,1.0,0.0
865,77.0,0.0,240.0,0.0,0.0
866,62.0,120.0,120.0,1.0,0.0
867,72.0,0.0,120.0,0.0,0.0
868,63.0,120.0,120.0,1.0,0.0
869,62.0,0.0,120.0,1.0,0.0
870,70.0,120.0,120.0,0.0,0.0
871,78.0,120.0,360.0,0.0,0.0
872,69.0,0.0,120.0,0.0,0.0
873,60.0,120.0,120.0,1.0,0.0
874,58.0,0.0,120.0,1.0,0.0
875,74.0,0.0,240.0,0.0,0.0
876,46.0,0.0,120.0,1.0,0.0
877,80.0,120.0,120.0,0.0,0.0
878,48.0,0.0,120.0,1.0,0.0
879,79.0,120.0,120.0,0.0,0.0
880,70.0,120.0,360.0,0.0,0.0
881,78.0,120.0,120.0,0.0,0.0
882,50.0,0.0,120.0,1.0,0.0
883,51.0,0.0,120.0,1.0,0.0
884,79.0,0.0,360.0,0.0,0.0
885,50.0,120.0,120.0,1.0,0.0
886,72.0,0.0,120.0,0.0,0.0
887,74.0,120.0,480.0,0.0,0.0
888,48.0,120.0,120.0,1.0,0.0
889,77.0,0.0,120.0,0.0,0.0
890,47.0,120.0,120.0,1.0,0.0
891,75.0,120.0,480.0,0.0,0.0
892,48.0,120.0,120.0,1.0,0.0
893,46.0,0.0,120.0,1.0,0.0
894,72.0,120.0,480.0,0.0,0.0
895,45.0,120.0,120.0,1.0,0.0
896,43.0,0.0,120.0,1.0,0.0
897,74.0,120.0,480.0,0.0,0.0
898,42.0,120.0,120.0,1.0,0.0
899,50.0,0.0,120.0,1.0,0.0
900,55.0,120.0,120.0,1.0,0.0
901,70.0,0.0,480.0,0.0,0.0
902,53.0,0.0,120.0,1.0,0.0
903,72.0,0.0,480.0,0.0,0.0
904,52.0,120.0,120.0,1.0,0.0
905,50.0,120.0,120.0,1.0,0.0
906,69.0,120.0,480.0,0.0,0.0
907,52.0,120.0,120.0,1.0,0.0
908,54.0,120.0,120.0,1.0,0.0
909,55.0,120.0,120.0,1.0,0.0
910,70.0,0.0,720.0,0.0,0.0
911,43.0,0.0,120.0,1.0,0.0
912,45.0,120.0,120.0,1.0,0.0
913,67.0,0.0,120.0,0.0,0.0
914,65.0,120.0,120.0,0.0,0.0
915,46.0,0.0,120.0,1.0,0.0
916,48.0,120.0,120.0,1.0,0.0
917,63.0,0.0,600.0,0.0,0.0
918,50.0,120.0,120.0,1.0,0.0
919,69.0,0.0,120.0,0.0,0.0
920,51.0,120.0,120.0,1.0,0.0
921,67.0,0.0,120.0,0.0,0.0
922,48.0,120.0,120.0,1.0,0.0
923,66.0,120.0,120.0,0.0,0.0
924,50.0,0.0,120.0,1.0,0.0
925,75.0,0.0,120.0,0.0,0.0
926,48.0,120.0,120.0,1.0,0.0
927,66.0,0.0,120.0,0.0,0.0
928,46.0,120.0,120.0,1.0,0.0
929,74.0,0.0,120.0,0.0,0.0
930,67.0,0.0,120.0,0.0,0.0
931,72.0,120.0,120.0,0.0,0.0
932,69.0,0.0,120.0,0.0,0.0
933,48.0,0.0,120.0,1.0,0.0
934,70.0,0.0,240.0,0.0,0.0
935,50.0,0.0,120.0,1.0,0.0
936,62.0,120.0,120.0,0.0,0.0
937,67.0,0.0,240.0,0.0,0.0
938,48.0,120.0,120.0,1.0,0.0
939,69.0,240.0,240.0,0.0,0.0
940,50.0,120.0,120.0,1.0,0.0
941,66.0,0.0,120.0,0.0,0.0
942,38.0,0.0,120.0,1.0,0.0
943,39.0,120.0,240.0,1.0,0.0
944,67.0,130.0,600.0,0.0,0.0
945,60.0,120.0,240.0,0.0,0.0
946,38.0,0.0,240.0,1.0,0.0
947,59.0,110.0,120.0,0.0,0.0
948,36.0,120.0,240.0,1.0,0.0
949,63.0,120.0,480.0,0.0,0.0
950,67.0,120.0,240.0,0.0,0.0
951,34.0,0.0,240.0,1.0,0.0
952,66.0,0.0,120.0,0.0,0.0
953,72.0,0.0,480.0,0.0,0.0
954,33.0,120.0,120.0,1.0,0.0
955,55.0,120.0,120.0,1.0,0.0
956,63.0,0.0,240.0,0.0,0.0
957,54.0,120.0,120.0,1.0,0.0
958,62.0,0.0,120.0,0.0,0.0
959,53.0,120.0,120.0,1.0,0.0
960,67.0,10.0,600.0,0.0,0.0
961,52.0,120.0,120.0,1.0,0.0
962,72.0,120.0,240.0,0.0,0.0
963,51.0,120.0,120.0,1.0,0.0
964,50.0,0.0,120.0,1.0,0.0
965,71.0,110.0,120.0,0.0,0.0
966,55.0,0.0,120.0,1.0,0.0
967,75.0,120.0,600.0,0.0,0.0
968,48.0,120.0,120.0,1.0,0.0
969,67.0,120.0,240.0,0.0,0.0
970,60.0,120.0,120.0,1.0,0.0
971,58.0,0.0,120.0,1.0,0.0
972,57.0,120.0,120.0,1.0,0.0
973,66.0,0.0,120.0,0.0,0.0
974,55.0,0.0,120.0,1.0,0.0
975,70.0,0.0,600.0,0.0,0.0
976,74.0,120.0,240.0,0.0,0.0
977,56.0,120.0,120.0,1.0,0.0
978,57.0,0.0,120.0,1.0,0.0
979,58.0,0.0,120.0,1.0,0.0
980,73.0,120.0,120.0,0.0,0.0
981,49.0,60.0,120.0,1.0,0.0
982,79.0,0.0,120.0,0.0,0.0
983,68.0,120.0,120.0,0.0,0.0
984,72.0,60.0,60.0,0.0,0.0
985,50.0,0.0,120.0,1.0,0.0
986,71.0,0.0,60.0,0.0,0.0
987,72.0,0.0,120.0,0.0,0.0
988,51.0,120.0,120.0,1.0,0.0
989,67.0,120.0,480.0,0.0,0.0
990,75.0,0.0,120.0,0.0,0.0
991,48.0,120.0,120.0,1.0,0.0
992,70.0,0.0,240.0,0.0,0.0
993,50.0,120.0,120.0,1.0,0.0
994,48.0,0.0,120.0,1.0,0.0
995,50.0,120.0,120.0,1.0,0.0
996,66.0,0.0,240.0,0.0,0.0
997,69.0,0.0,240.0,0.0,0.0
998,38.0,120.0,120.0,1.0,0.0
999,65.0,0.0,120.0,0.0,0.0
1000,71.0,120.0,120.0,0.0,0.0
1001,43.0,0.0,1440.0,1.0,0.0
1002,72.0,120.0,120.0,0.0,0.0
1003,63.0,0.0,240.0,0.0,0.0
1004,66.0,120.0,120.0,0.0,0.0
1005,67.0,120.0,120.0,0.0,0.0
1006,62.0,120.0,240.0,0.0,0.0
1007,63.0,0.0,480.0,0.0,0.0
1008,60.0,240.0,120.0,0.0,0.0
1009,57.0,0.0,240.0,0.0,0.0
1010,66.0,480.0,120.0,0.0,0.0
1011,59.0,120.0,480.0,0.0,0.0
1012,67.0,0.0,480.0,0.0,0.0
1013,62.0,0.0,480.0,0.0,0.0
1014,77.0,0.0,600.0,0.0,0.0
1015,50.0,120.0,120.0,1.0,0.0
1016,51.0,120.0,120.0,1.0,0.0
1017,69.0,0.0,120.0,0.0,0.0
1018,53.0,0.0,120.0,1.0,0.0
1019,74.0,120.0,120.0,0.0,0.0
1020,50.0,120.0,120.0,1.0,0.0
1021,72.0,0.0,120.0,0.0,0.0
1022,55.0,120.0,120.0,1.0,0.0
1023,71.0,0.0,480.0,0.0,0.0
1024,74.0,0.0,120.0,0.0,0.0
1025,53.0,120.0,120.0,1.0,0.0
1026,79.0,0.0,120.0,0.0,0.0
1027,51.0,120.0,120.0,1.0,0.0
1028,77.0,0.0,120.0,0.0,0.0
1029,50.0,120.0,120.0,1.0,0.0
1030,48.0,120.0,120.0,1.0,0.0
1031,75.0,0.0,240.0,0.0,0.0
1032,72.0,0.0,240.0,0.0,0.0
1033,39.0,120.0,120.0,1.0,0.0
1034,74.0,0.0,240.0,0.0,0.0
1035,71.0,120.0,240.0,0.0,0.0
1036,41.0,120.0,120.0,1.0,0.0
1037,43.0,0.0,120.0,1.0,0.0
1038,75.0,120.0,600.0,0.0,0.0
1039,72.0,120.0,120.0,0.0,0.0
1040,36.0,0.0,120.0,1.0,0.0
1041,67.0,0.0,120.0,0.0,0.0
1042,38.0,120.0,120.0,1.0,0.0
1043,72.0,0.0,120.0,0.0,0.0
1044,39.0,120.0,120.0,1.0,0.0
1045,36.0,0.0,120.0,1.0,0.0
1046,70.0,120.0,120.0,0.0,0.0
1047,41.0,0.0,120.0,1.0,0.0
1048,69.0,120.0,480.0,0.0,0.0
1049,72.0,0.0,120.0,0.0,0.0
1050,39.0,120.0,120.0,1.0,0.0
1051,77.0,120.0,120.0,0.0,0.0
1052,38.0,0.0,120.0,1.0,0.0
1053,75.0,0.0,120.0,0.0,0.0
1054,36.0,0.0,120.0,1.0,0.0
1055,34.0,120.0,120.0,1.0,0.0
1056,70.0,0.0,240.0,0.0,0.0
1057,74.0,0.0,240.0,0.0,0.0
1058,38.0,120.0,120.0,1.0,0.0
1059,39.0,120.0,120.0,1.0,0.0
1060,69.0,0.0,240.0,0.0,0.0
1061,72.0,120.0,240.0,0.0,0.0
1062,41.0,0.0,120.0,1.0,0.0
1063,34.0,0.0,120.0,1.0,0.0
1064,74.0,10.0,600.0,0.0,0.0
1065,70.0,120.0,120.0,0.0,0.0
1066,48.0,0.0,120.0,1.0,0.0
1067,65.0,120.0,120.0,0.0,0.0
1068,46.0,0.0,120.0,1.0,0.0
1069,67.0,120.0,120.0,0.0,0.0
1070,45.0,0.0,120.0,1.0,0.0
1071,69.0,110.0,120.0,0.0,0.0
1072,70.0,120.0,600.0,0.0,0.0
1073,43.0,120.0,120.0,1.0,0.0
1074,74.0,0.0,120.0,0.0,0.0
1075,41.0,120.0,120.0,1.0,0.0
1076,76.0,0.0,120.0,0.0,0.0
1077,40.0,120.0,120.0,1.0,0.0
1078,77.0,120.0,120.0,0.0,0.0
1079,38.0,0.0,120.0,1.0,0.0
1080,37.0,0.0,120.0,1.0,0.0
1081,79.0,0.0,240.0,0.0,0.0
1082,50.0,120.0,120.0,1.0,0.0
1083,69.0,0.0,120.0,0.0,0.0
1084,74.0,0.0,120.0,0.0,0.0
1085,77.0,120.0,480.0,0.0,0.0
1086,52.0,120.0,120.0,1.0,0.0
1087,72.0,0.0,120.0,0.0,0.0
1088,53.0,120.0,120.0,1.0,0.0
1089,70.0,120.0,120.0,0.0,0.0
1090,55.0,0.0,120.0,1.0,0.0
1091,57.0,0.0,120.0,1.0,0.0
1092,69.0,0.0,120.0,0.0,0.0
1093,58.0,0.0,120.0,1.0,0.0
1094,67.0,120.0,480.0,0.0,0.0
1095,75.0,120.0,120.0,0.0,0.0
1096,55.0,120.0,120.0,1.0,0.0
1097,74.0,0.0,120.0,0.0,0.0
1098,73.0,120.0,120.0,0.0,0.0
1099,57.0,0.0,120.0,1.0,0.0
1100,38.0,0.0,120.0,1.0,0.0
1101,69.0,0.0,120.0,0.0,0.0
1102,40.0,120.0,120.0,1.0,0.0
1103,74.0,0.0,120.0,0.0,0.0
1104,65.0,0.0,360.0,0.0,0.0
1105,72.0,120.0,120.0,0.0,0.0
1106,41.0,0.0,120.0,1.0,0.0
1107,43.0,120.0,120.0,1.0,0.0
1108,70.0,120.0,720.0,0.0,0.0
1109,45.0,0.0,120.0,1.0,0.0
1110,65.0,120.0,120.0,0.0,0.0
1111,46.0,0.0,120.0,1.0,0.0
1112,64.0,120.0,120.0,0.0,0.0
1113,43.0,0.0,120.0,1.0,0.0
1114,62.0,120.0,120.0,0.0,0.0
1115,45.0,0.0,120.0,1.0,0.0
1116,61.0,120.0,120.0,0.0,0.0
1117,47.0,0.0,120.0,1.0,0.0
1118,62.0,0.0,120.0,0.0,0.0
1119,49.0,120.0,120.0,1.0,0.0
1120,64.0,120.0,480.0,0.0,0.0
1121,69.0,0.0,120.0,0.0,0.0
1122,67.0,0.0,120.0,0.0,0.0
1123,45.0,120.0,120.0,1.0,0.0
1124,50.0,120.0,120.0,1.0,0.0
1125,65.0,0.0,120.0,0.0,0.0
1126,67.0,0.0,120.0,0.0,0.0
1127,52.0,0.0,120.0,1.0,0.0
1128,53.0,0.0,120.0,1.0,0.0
1129,62.0,120.0,120.0,0.0,0.0
1130,69.0,0.0,480.0,0.0,0.0
1131,60.0,0.0,120.0,0.0,0.0
1132,50.0,120.0,120.0,1.0,0.0
1133,58.0,120.0,480.0,0.0,0.0
1134,55.0,120.0,120.0,1.0,0.0
1135,53.0,120.0,120.0,1.0,0.0
1136,67.0,120.0,480.0,0.0,0.0
1137,52.0,120.0,120.0,1.0,0.0
1138,50.0,0.0,120.0,1.0,0.0
1139,49.0,120.0,120.0,1.0,0.0
1140,57.0,120.0,480.0,0.0,0.0
1141,45.0,0.0,120.0,1.0,0.0
1142,50.0,120.0,120.0,1.0,0.0
1143,65.0,120.0,480.0,0.0,0.0
1144,48.0,0.0,120.0,1.0,0.0
1145,46.0,120.0,120.0,1.0,0.0
1146,55.0,0.0,600.0,0.0,0.0
1147,45.0,0.0,120.0,1.0,0.0
1148,46.0,0.0,120.0,1.0,0.0
1149,64.0,120.0,120.0,0.0,0.0
1150,43.0,120.0,120.0,1.0,0.0
1151,62.0,0.0,120.0,0.0,0.0
1152,45.0,120.0,120.0,1.0,0.0
1153,43.0,0.0,120.0,1.0,0.0
1154,70.0,120.0,120.0,0.0,0.0
1155,61.0,0.0,15.0,0.0,0.0
1156,41.0,120.0,120.0,1.0,0.0
1157,69.0,0.0,120.0,0.0,0.0
1158,62.0,0.0,120.0,0.0,0.0
1159,43.0,120.0,120.0,1.0,0.0
1160,64.0,0.0,120.0,0.0,0.0
1161,67.0,0.0,120.0,0.0,0.0
1162,45.0,120.0,120.0,1.0,0.0
1163,57.0,0.0,120.0,0.0,0.0
1164,65.0,0.0,240.0,0.0,0.0
1165,62.0,120.0,240.0,0.0,0.0
1166,43.0,120.0,120.0,1.0,0.0
1167,45.0,0.0,120.0,1.0,0.0
1168,64.0,0.0,240.0,0.0,0.0
1169,61.0,0.0,120.0,0.0,0.0
1170,33.0,120.0,120.0,1.0,0.0
1171,62.0,0.0,240.0,0.0,0.0
1172,38.0,120.0,120.0,1.0,0.0
1173,45.0,120.0,120.0,1.0,0.0
1174,68.0,0.0,480.0,0.0,0.0
1175,47.0,120.0,120.0,1.0,0.0
1176,48.0,120.0,120.0,1.0,0.0
1177,71.0,0.0,240.0,0.0,0.0
1178,50.0,120.0,120.0,1.0,0.0
1179,53.0,120.0,120.0,1.0,0.0
1180,51.0,0.0,120.0,1.0,0.0
1181,67.0,120.0,120.0,0.0,0.0
1182,72.0,0.0,120.0,0.0,0.0
1183,74.0,0.0,120.0,0.0,0.0
1184,50.0,120.0,120.0,1.0,0.0
1185,65.0,0.0,120.0,0.0,0.0
1186,63.0,120.0,120.0,0.0,0.0
1187,67.0,0.0,120.0,0.0,0.0
1188,48.0,0.0,120.0,1.0,0.0
1189,80.0,120.0,120.0,0.0,0.0
1190,50.0,0.0,120.0,1.0,0.0
1191,71.0,0.0,120.0,0.0,0.0
1192,51.0,0.0,120.0,1.0,0.0
1193,79.0,120.0,120.0,0.0,0.0
1194,72.0,0.0,120.0,0.0,0.0
1195,77.0,0.0,120.0,0.0,0.0
1196,74.0,0.0,120.0,0.0,0.0
1197,53.0,120.0,120.0,1.0,0.0
1198,75.0,120.0,240.0,0.0,0.0
1199,67.0,120.0,120.0,0.0,0.0
1200,55.0,0.0,120.0,1.0,0.0
1201,53.0,0.0,120.0,1.0,0.0
1202,72.0,120.0,240.0,0.0,0.0
1203,55.0,0.0,120.0,1.0,0.0
1204,74.0,120.0,240.0,0.0,0.0
1205,43.0,0.0,120.0,1.0,0.0
1206,71.0,0.0,120.0,0.0,0.0
1207,48.0,120.0,120.0,1.0,0.0
1208,72.0,0.0,240.0,0.0,0.0
1209,55.0,120.0,120.0,1.0,0.0
1210,78.0,0.0,480.0,0.0,0.0
1211,57.0,120.0,120.0,1.0,0.0
1212,58.0,120.0,120.0,1.0,0.0
1213,60.0,120.0,120.0,1.0,0.0
1214,69.0,0.0,240.0,0.0,0.0
1215,51.0,120.0,120.0,1.0,0.0
1216,77.0,120.0,120.0,0.0,0.0
1217,70.0,0.0,120.0,0.0,0.0
1218,50.0,0.0,120.0,1.0,0.0
1219,48.0,0.0,120.0,1.0,0.0
1220,72.0,120.0,120.0,0.0,0.0
1221,75.0,0.0,120.0,0.0,0.0
1222,65.0,120.0,120.0,0.0,0.0
1223,74.0,0.0,120.0,0.0,0.0
1224,46.0,0.0,120.0,1.0,0.0
1225,48.0,0.0,120.0,1.0,0.0
1226,69.0,0.0,120.0,0.0,0.0
1227,66.0,120.0,120.0,0.0,0.0
1228,70.0,0.0,120.0,0.0,0.0
1229,50.0,120.0,120.0,1.0,0.0
1230,65.0,0.0,120.0,0.0,0.0
1231,63.0,120.0,120.0,0.0,0.0
1232,72.0,0.0,120.0,0.0,0.0
1233,51.0,0.0,120.0,1.0,0.0
1234,65.0,0.0,120.0,0.0,0.0
1235,62.0,120.0,240.0,0.0,0.0
1236,53.0,120.0,120.0,1.0,0.0
1237,70.0,0.0,240.0,0.0,0.0
1238,51.0,0.0,120.0,1.0,0.0
1239,53.0,120.0,120.0,1.0,0.0
1240,60.0,0.0,240.0,0.0,0.0
1241,41.0,0.0,120.0,1.0,0.0
1242,69.0,120.0,120.0,0.0,0.0
1243,43.0,0.0,120.0,1.0,0.0
1244,62.0,120.0,120.0,0.0,0.0
1245,58.0,120.0,240.0,0.0,0.0
1246,67.0,120.0,240.0,0.0,0.0
1247,46.0,0.0,120.0,1.0,0.0
1248,50.0,0.0,120.0,1.0,0.0
1249,57.0,120.0,240.0,0.0,0.0
1250,38.0,0.0,120.0,1.0,0.0
1251,65.0,0.0,120.0,0.0,0.0
1252,58.0,0.0,120.0,0.0,0.0
1253,55.0,0.0,240.0,0.0,0.0
1254,39.0,120.0,120.0,1.0,0.0
1255,63.0,120.0,240.0,0.0,0.0
1256,43.0,120.0,120.0,1.0,0.0
1257,53.0,120.0,240.0,0.0,0.0
1258,62.0,0.0,120.0,0.0,0.0
1259,64.0,120.0,240.0,0.0,0.0
1260,55.0,0.0,240.0,0.0,0.0
1261,46.0,120.0,15.0,1.0,0.0
1262,45.0,0.0,120.0,1.0,0.0
1263,66.0,120.0,120.0,0.0,0.0
1264,60.0,120.0,360.0,0.0,0.0
1265,67.0,0.0,120.0,0.0,0.0
1266,43.0,120.0,120.0,1.0,0.0
1267,69.0,0.0,600.0,0.0,0.0
1268,42.0,0.0,120.0,1.0,0.0
1269,38.0,120.0,120.0,1.0,0.0
1270,63.0,0.0,120.0,0.0,0.0
1271,40.0,0.0,120.0,1.0,0.0
1272,62.0,120.0,120.0,0.0,0.0
1273,60.0,120.0,120.0,0.0,0.0
1274,42.0,0.0,120.0,1.0,0.0
1275,43.0,120.0,120.0,1.0,0.0
1276,58.0,0.0,240.0,0.0,0.0
1277,67.0,120.0,120.0,0.0,0.0
1278,50.0,0.0,120.0,1.0,0.0
1279,69.0,120.0,120.0,0.0,0.0
1280,63.0,120.0,360.0,0.0,0.0
1281,48.0,0.0,120.0,1.0,0.0
1282,70.0,0.0,120.0,0.0,0.0
1283,46.0,120.0,120.0,1.0,0.0
1284,45.0,0.0,120.0,1.0,0.0
1285,72.0,0.0,600.0,0.0,0.0
1286,67.0,0.0,120.0,0.0,0.0
1287,41.0,120.0,120.0,1.0,0.0
1288,65.0,0.0,120.0,0.0,0.0
1289,43.0,120.0,120.0,1.0,0.0
1290,63.0,0.0,120.0,0.0,0.0
1291,45.0,120.0,120.0,1.0,0.0
1292,62.0,120.0,240.0,0.0,0.0
1293,46.0,120.0,120.0,1.0,0.0
1294,70.0,0.0,120.0,0.0,0.0
1295,53.0,0.0,120.0,1.0,0.0
1296,72.0,0.0,120.0,0.0,0.0
1297,51.0,120.0,120.0,1.0,0.0
1298,67.0,120.0,360.0,0.0,0.0
1299,50.0,120.0,120.0,1.0,0.0
1300,74.0,0.0,120.0,0.0,0.0
1301,75.0,0.0,720.0,0.0,0.0
1302,48.0,0.0,120.0,1.0,0.0
1303,45.0,120.0,120.0,1.0,0.0
1304,70.0,0.0,120.0,0.0,0.0
1305,69.0,120.0,120.0,0.0,0.0
1306,46.0,0.0,120.0,1.0,0.0
1307,67.0,0.0,120.0,0.0,0.0
1308,48.0,120.0,120.0,1.0,0.0
1309,42.0,0.0,120.0,1.0,0.0
1310,69.0,120.0,120.0,0.0,0.0
1311,50.0,120.0,120.0,1.0,0.0
1312,72.0,0.0,120.0,0.0,0.0
1313,52.0,120.0,120.0,1.0,0.0
1314,70.0,0.0,120.0,0.0,0.0
1315,74.0,0.0,360.0,0.0,0.0
1316,54.0,0.0,120.0,1.0,0.0
1317,69.0,120.0,120.0,0.0,0.0
1318,55.0,120.0,120.0,1.0,0.0
1319,70.0,0.0,240.0,0.0,0.0
1320,43.0,0.0,120.0,1.0,0.0
1321,77.0,120.0,120.0,0.0,0.0
1322,45.0,0.0,120.0,1.0,0.0
1323,75.0,120.0,120.0,0.0,0.0
1324,67.0,0.0,360.0,0.0,0.0
1325,46.0,120.0,120.0,1.0,0.0
1326,74.0,0.0,120.0,0.0,0.0
1327,72.0,0.0,240.0,0.0,0.0
1328,48.0,120.0,120.0,1.0,0.0
1329,70.0,0.0,120.0,0.0,0.0
1330,50.0,120.0,120.0,1.0,0.0
1331,48.0,0.0,120.0,1.0,0.0
1332,76.0,0.0,360.0,0.0,0.0
1333,69.0,120.0,120.0,0.0,0.0
1334,46.0,120.0,120.0,1.0,0.0
1335,67.0,0.0,120.0,0.0,0.0
1336,45.0,120.0,120.0,1.0,0.0
1337,72.0,0.0,240.0,0.0,0.0
1338,57.0,120.0,120.0,1.0,0.0
1339,79.0,0.0,120.0,0.0,0.0
1340,69.0,0.0,360.0,0.0,0.0
1341,77.0,0.0,120.0,0.0,0.0
1342,58.0,120.0,120.0,1.0,0.0
1343,60.0,120.0,120.0,1.0,0.0
1344,76.0,0.0,120.0,0.0,0.0
1345,62.0,120.0,120.0,1.0,0.0
1346,77.0,0.0,240.0,0.0,0.0
1347,63.0,0.0,120.0,1.0,0.0
1348,72.0,120.0,120.0,0.0,0.0
1349,62.0,0.0,120.0,1.0,0.0
1350,78.0,0.0,360.0,0.0,0.0
1351,70.0,120.0,120.0,0.0,0.0
1352,60.0,0.0,120.0,1.0,0.0
1353,69.0,120.0,120.0,0.0,0.0
1354,74.0,120.0,240.0,0.0,0.0
1355,58.0,120.0,120.0,1.0,0.0
1356,80.0,0.0,120.0,0.0,0.0
1357,46.0,0.0,120.0,1.0,0.0
1358,48.0,0.0,120.0,1.0,0.0
1359,70.0,120.0,360.0,0.0,0.0
1360,79.0,120.0,120.0,0.0,0.0
1361,78.0,0.0,120.0,0.0,0.0
1362,50.0,120.0,120.0,1.0,0.0
1363,79.0,120.0,360.0,0.0,0.0
1364,51.0,0.0,120.0,1.0,0.0
1365,50.0,0.0,120.0,1.0,0.0
1366,72.0,120.0,120.0,0.0,0.0
1367,48.0,0.0,120.0,1.0,0.0
1368,74.0,0.0,480.0,0.0,0.0
1369,47.0,0.0,120.0,1.0,0.0
1370,77.0,120.0,120.0,0.0,0.0
1371,75.0,0.0,480.0,0.0,0.0
1372,48.0,120.0,120.0,1.0,0.0
1373,46.0,120.0,120.0,1.0,0.0
1374,45.0,120.0,120.0,1.0,0.0
1375,72.0,0.0,480.0,0.0,0.0
1376,43.0,120.0,120.0,1.0,0.0
1377,74.0,0.0,480.0,0.0,0.0
1378,42.0,120.0,120.0,1.0,0.0
1379,50.0,120.0,120.0,1.0,0.0
1380,70.0,120.0,480.0,0.0,0.0
1381,55.0,120.0,120.0,1.0,0.0
1382,53.0,120.0,120.0,1.0,0.0
1383,72.0,0.0,480.0,0.0,0.0
1384,52.0,120.0,120.0,1.0,0.0
1385,50.0,0.0,120.0,1.0,0.0
1386,52.0,120.0,120.0,1.0,0.0
1387,69.0,0.0,480.0,0.0,0.0
1388,54.0,120.0,120.0,1.0,0.0
1389,70.0,0.0,720.0,0.0,0.0
1390,55.0,120.0,120.0,1.0,0.0
1391,43.0,120.0,120.0,1.0,0.0
1392,45.0,0.0,120.0,1.0,0.0
1393,67.0,120.0,120.0,0.0,0.0
1394,65.0,120.0,120.0,0.0,0.0
1395,46.0,0.0,120.0,1.0,0.0
1396,48.0,120.0,120.0,1.0,0.0
1397,63.0,120.0,600.0,0.0,0.0
1398,50.0,120.0,120.0,1.0,0.0
1399,69.0,120.0,120.0,0.0,0.0
1400,51.0,0.0,120.0,1.0,0.0
1401,67.0,120.0,120.0,0.0,0.0
1402,48.0,0.0,120.0,1.0,0.0
1403,50.0,0.0,120.0,1.0,0.0
1404,66.0,0.0,15.0,0.0,0.0
1405,75.0,120.0,120.0,0.0,0.0
1406,48.0,0.0,120.0,1.0,0.0
1407,67.0,120.0,120.0,0.0,0.0
1408,46.0,0.0,120.0,1.0,0.0
1409,74.0,0.0,120.0,0.0,0.0
1410,48.0,120.0,120.0,1.0,0.0
1411,69.0,0.0,120.0,0.0,0.0
1412,72.0,0.0,120.0,0.0,0.0
1413,62.0,120.0,120.0,0.0,0.0
1414,70.0,0.0,240.0,0.0,0.0
1415,50.0,0.0,120.0,1.0,0.0
1416,67.0,120.0,240.0,0.0,0.0
1417,48.0,120.0,120.0,1.0,0.0
1418,50.0,0.0,120.0,1.0,0.0
1419,69.0,0.0,240.0,0.0,0.0
1420,38.0,0.0,120.0,1.0,0.0
1421,66.0,240.0,120.0,0.0,0.0
1422,67.0,130.0,600.0,0.0,0.0
1423,39.0,120.0,240.0,1.0,0.0
1424,60.0,120.0,240.0,0.0,0.0
1425,38.0,110.0,240.0,1.0,0.0
1426,59.0,0.0,120.0,0.0,0.0
1427,63.0,0.0,480.0,0.0,0.0
1428,36.0,120.0,240.0,1.0,0.0
1429,67.0,120.0,240.0,0.0,0.0
1430,34.0,120.0,240.0,1.0,0.0
1431,66.0,0.0,120.0,0.0,0.0
1432,33.0,120.0,120.0,1.0,0.0
1433,72.0,0.0,480.0,0.0,0.0
1434,55.0,120.0,120.0,1.0,0.0
1435,63.0,120.0,240.0,0.0,0.0
1436,54.0,0.0,120.0,1.0,0.0
1437,53.0,120.0,120.0,1.0,0.0
1438,62.0,0.0,120.0,0.0,0.0
1439,67.0,10.0,600.0,0.0,0.0
1440,52.0,120.0,120.0,1.0,0.0
1441,51.0,120.0,120.0,1.0,0.0
1442,72.0,0.0,240.0,0.0,0.0
1443,50.0,120.0,120.0,1.0,0.0
1444,71.0,0.0,120.0,0.0,0.0
1445,55.0,110.0,120.0,1.0,0.0
1446,48.0,120.0,120.0,1.0,0.0
1447,75.0,120.0,600.0,0.0,0.0
1448,67.0,120.0,240.0,0.0,0.0
1449,60.0,120.0,120.0,1.0,0.0
1450,58.0,0.0,120.0,1.0,0.0
1451,57.0,0.0,120.0,1.0,0.0
1452,66.0,120.0,120.0,0.0,0.0
1453,55.0,0.0,120.0,1.0,0.0
1454,70.0,60.0,600.0,0.0,0.0
1455,56.0,120.0,120.0,1.0,0.0
1456,74.0,0.0,240.0,0.0,0.0
1457,57.0,120.0,120.0,1.0,0.0
1458,58.0,120.0,120.0,1.0,0.0
1459,73.0,0.0,120.0,0.0,0.0
1460,79.0,0.0,120.0,0.0,0.0
1461,49.0,0.0,120.0,1.0,0.0
1462,50.0,0.0,120.0,1.0,0.0
1463,68.0,0.0,120.0,0.0,0.0
1464,72.0,60.0,60.0,0.0,0.0
1465,71.0,120.0,60.0,0.0,0.0
1466,67.0,0.0,480.0,0.0,0.0
1467,72.0,0.0,120.0,0.0,0.0
1468,51.0,120.0,120.0,1.0,0.0
1469,48.0,120.0,120.0,1.0,0.0
1470,75.0,0.0,120.0,0.0,0.0
1471,70.0,0.0,240.0,0.0,0.0
1472,50.0,120.0,120.0,1.0,0.0
1473,48.0,120.0,120.0,1.0,0.0
1474,66.0,0.0,240.0,0.0,0.0
1475,69.0,0.0,240.0,0.0,0.0
1476,50.0,120.0,120.0,1.0,0.0
1477,38.0,120.0,120.0,1.0,0.0
1478,43.0,0.0,1440.0,1.0,0.0
1479,65.0,120.0,120.0,0.0,0.0
1480,71.0,0.0,120.0,0.0,0.0
1481,63.0,120.0,240.0,0.0,0.0
1482,72.0,120.0,120.0,0.0,0.0
1483,66.0,0.0,120.0,0.0,0.0
1484,62.0,120.0,240.0,0.0,0.0
1485,67.0,120.0,120.0,0.0,0.0
1486,63.0,0.0,480.0,0.0,0.0
1487,60.0,240.0,120.0,0.0,0.0
1488,57.0,0.0,240.0,0.0,0.0
1489,66.0,480.0,120.0,0.0,0.0
1490,67.0,0.0,480.0,0.0,0.0
1491,62.0,0.0,480.0,0.0,0.0
1492,59.0,0.0,480.0,0.0,0.0
