,note,step,duration,channel,velocity
0,42.0,188.0,390.0,4.0,0.0
1,42.0,64.0,330.0,5.0,0.0
2,42.0,0.0,390.0,8.0,0.0
3,54.0,320.0,180.0,8.0,0.0
4,54.0,0.0,180.0,4.0,0.0
5,54.0,4.0,180.0,5.0,0.0
6,54.0,64.0,330.0,5.0,0.0
7,61.0,0.0,390.0,1.0,0.0
8,58.0,188.0,390.0,7.0,0.0
9,54.0,0.0,390.0,8.0,0.0
10,54.0,0.0,390.0,4.0,0.0
11,58.0,0.0,390.0,2.0,0.0
12,61.0,0.0,390.0,6.0,0.0
13,54.0,0.0,390.0,3.0,0.0
14,42.0,4.0,180.0,5.0,0.0
15,59.0,0.0,180.0,6.0,0.0
16,59.0,0.0,180.0,1.0,0.0
17,42.0,0.0,180.0,8.0,0.0
18,56.0,0.0,180.0,7.0,0.0
19,56.0,320.0,180.0,2.0,0.0
20,58.0,188.0,390.0,1.0,0.0
21,42.0,64.0,330.0,5.0,0.0
22,58.0,0.0,390.0,6.0,0.0
23,58.0,0.0,390.0,2.0,0.0
24,42.0,0.0,15.0,4.0,0.0
25,58.0,0.0,390.0,7.0,0.0
26,42.0,0.0,390.0,8.0,0.0
27,59.0,0.0,180.0,6.0,0.0
28,54.0,4.0,180.0,5.0,0.0
29,54.0,0.0,180.0,4.0,0.0
30,54.0,0.0,180.0,8.0,0.0
31,56.0,0.0,180.0,7.0,0.0
32,56.0,192.0,180.0,2.0,0.0
33,59.0,0.0,180.0,1.0,0.0
34,54.0,0.0,390.0,8.0,0.0
35,58.0,0.0,180.0,7.0,0.0
36,61.0,0.0,180.0,1.0,0.0
37,54.0,0.0,390.0,4.0,0.0
38,61.0,0.0,180.0,6.0,0.0
39,54.0,64.0,330.0,5.0,0.0
40,58.0,128.0,180.0,2.0,0.0
41,63.0,0.0,180.0,6.0,0.0
42,63.0,188.0,180.0,1.0,0.0
43,59.0,0.0,180.0,2.0,0.0
44,65.0,0.0,180.0,6.0,0.0
45,59.0,0.0,180.0,2.0,0.0
46,56.0,320.0,180.0,8.0,0.0
47,59.0,0.0,15.0,7.0,0.0
48,42.0,4.0,180.0,5.0,0.0
49,65.0,0.0,180.0,1.0,0.0
50,56.0,0.0,180.0,3.0,0.0
51,42.0,64.0,330.0,5.0,0.0
52,66.0,128.0,780.0,1.0,0.0
53,61.0,0.0,780.0,2.0,0.0
54,42.0,0.0,15.0,8.0,0.0
55,42.0,0.0,15.0,4.0,0.0
56,66.0,0.0,780.0,6.0,0.0
57,54.0,0.0,180.0,5.0,0.0
58,54.0,0.0,180.0,8.0,0.0
59,54.0,192.0,180.0,4.0,0.0
60,53.0,64.0,330.0,5.0,0.0
61,53.0,0.0,390.0,8.0,0.0
62,53.0,0.0,390.0,4.0,0.0
63,58.0,0.0,15.0,8.0,0.0
64,58.0,0.0,15.0,3.0,0.0
65,61.0,192.0,180.0,1.0,0.0
66,61.0,0.0,180.0,2.0,0.0
67,61.0,0.0,15.0,7.0,0.0
68,61.0,0.0,180.0,6.0,0.0
69,41.0,0.0,180.0,8.0,0.0
70,59.0,0.0,180.0,2.0,0.0
71,59.0,0.0,570.0,8.0,0.0
72,41.0,0.0,180.0,5.0,0.0
73,66.0,192.0,180.0,6.0,0.0
74,59.0,0.0,570.0,3.0,0.0
75,41.0,0.0,180.0,4.0,0.0
76,59.0,0.0,180.0,7.0,0.0
77,66.0,0.0,180.0,1.0,0.0
78,65.0,128.0,180.0,6.0,0.0
79,39.0,64.0,330.0,5.0,0.0
80,39.0,188.0,390.0,4.0,0.0
81,65.0,0.0,180.0,1.0,0.0
82,39.0,0.0,390.0,8.0,0.0
83,66.0,0.0,180.0,1.0,0.0
84,66.0,0.0,180.0,6.0,0.0
85,59.0,0.0,390.0,1.0,0.0
86,59.0,0.0,390.0,6.0,0.0
87,51.0,4.0,180.0,5.0,0.0
88,51.0,0.0,180.0,4.0,0.0
89,59.0,0.0,180.0,7.0,0.0
90,51.0,64.0,330.0,5.0,0.0
91,58.0,0.0,180.0,3.0,0.0
92,51.0,0.0,390.0,4.0,0.0
93,51.0,192.0,15.0,8.0,0.0
94,58.0,0.0,180.0,8.0,0.0
95,59.0,128.0,180.0,2.0,0.0
96,65.0,0.0,180.0,1.0,0.0
97,54.0,0.0,180.0,8.0,0.0
98,54.0,192.0,180.0,3.0,0.0
99,56.0,0.0,180.0,2.0,0.0
100,65.0,0.0,180.0,6.0,0.0
101,56.0,0.0,180.0,7.0,0.0
102,39.0,0.0,180.0,4.0,0.0
103,58.0,0.0,180.0,2.0,0.0
104,58.0,0.0,180.0,7.0,0.0
105,66.0,192.0,180.0,6.0,0.0
106,56.0,0.0,180.0,3.0,0.0
107,66.0,0.0,180.0,1.0,0.0
108,39.0,0.0,180.0,5.0,0.0
109,39.0,0.0,180.0,8.0,0.0
110,56.0,0.0,180.0,8.0,0.0
111,61.0,192.0,570.0,2.0,0.0
112,37.0,0.0,390.0,8.0,0.0
113,65.0,0.0,570.0,2.0,0.0
114,65.0,0.0,180.0,1.0,0.0
115,37.0,188.0,390.0,4.0,0.0
116,65.0,128.0,180.0,6.0,0.0
117,49.0,0.0,570.0,3.0,0.0
118,65.0,0.0,570.0,7.0,0.0
119,61.0,0.0,570.0,7.0,0.0
120,37.0,64.0,330.0,5.0,0.0
121,66.0,0.0,180.0,1.0,0.0
122,66.0,0.0,180.0,6.0,0.0
123,49.0,0.0,180.0,8.0,0.0
124,58.0,0.0,390.0,6.0,0.0
125,58.0,0.0,390.0,1.0,0.0
126,49.0,4.0,180.0,5.0,0.0
127,49.0,0.0,15.0,4.0,0.0
128,58.0,128.0,180.0,7.0,0.0
129,49.0,0.0,390.0,8.0,0.0
130,49.0,64.0,330.0,5.0,0.0
131,58.0,0.0,180.0,2.0,0.0
132,61.0,192.0,180.0,1.0,0.0
133,54.0,0.0,180.0,2.0,0.0
134,54.0,0.0,180.0,7.0,0.0
135,61.0,0.0,180.0,6.0,0.0
136,37.0,0.0,180.0,8.0,0.0
137,56.0,0.0,180.0,2.0,0.0
138,37.0,0.0,180.0,4.0,0.0
139,65.0,0.0,180.0,6.0,0.0
140,65.0,0.0,180.0,1.0,0.0
141,56.0,0.0,180.0,7.0,0.0
142,37.0,192.0,180.0,5.0,0.0
143,35.0,192.0,390.0,8.0,0.0
144,68.0,0.0,570.0,2.0,0.0
145,68.0,0.0,570.0,7.0,0.0
146,35.0,0.0,390.0,4.0,0.0
147,35.0,64.0,330.0,5.0,0.0
148,68.0,0.0,180.0,1.0,0.0
149,68.0,128.0,180.0,6.0,0.0
150,66.0,0.0,180.0,6.0,0.0
151,66.0,0.0,180.0,1.0,0.0
152,37.0,0.0,180.0,4.0,0.0
153,37.0,192.0,180.0,5.0,0.0
154,37.0,0.0,180.0,8.0,0.0
155,56.0,0.0,390.0,3.0,0.0
156,65.0,0.0,180.0,6.0,0.0
157,65.0,0.0,180.0,1.0,0.0
158,56.0,128.0,390.0,8.0,0.0
159,39.0,0.0,390.0,8.0,0.0
160,66.0,0.0,390.0,6.0,0.0
161,66.0,0.0,390.0,1.0,0.0
162,59.0,0.0,180.0,2.0,0.0
163,39.0,64.0,330.0,5.0,0.0
164,59.0,0.0,180.0,7.0,0.0
165,39.0,192.0,390.0,4.0,0.0
166,54.0,0.0,180.0,3.0,0.0
167,54.0,0.0,180.0,7.0,0.0
168,54.0,0.0,180.0,2.0,0.0
169,54.0,0.0,180.0,8.0,0.0
170,35.0,0.0,180.0,5.0,0.0
171,35.0,0.0,180.0,8.0,0.0
172,51.0,48.0,180.0,3.0,0.0
173,51.0,0.0,180.0,8.0,0.0
174,59.0,0.0,180.0,6.0,0.0
175,54.0,0.0,180.0,7.0,0.0
176,54.0,0.0,180.0,2.0,0.0
177,35.0,0.0,180.0,4.0,0.0
178,54.0,0.0,390.0,8.0,0.0
179,37.0,0.0,570.0,4.0,0.0
180,37.0,4.0,570.0,5.0,0.0
181,37.0,0.0,570.0,8.0,0.0
182,59.0,0.0,15.0,1.0,0.0
183,59.0,0.0,40.0,6.0,0.0
184,58.0,0.0,570.0,7.0,0.0
185,58.0,96.0,570.0,2.0,0.0
186,54.0,0.0,390.0,3.0,0.0
187,58.0,48.0,40.0,1.0,0.0
188,58.0,0.0,40.0,6.0,0.0
189,59.0,48.0,40.0,6.0,0.0
190,59.0,0.0,40.0,1.0,0.0
191,58.0,0.0,40.0,1.0,0.0
192,58.0,48.0,40.0,6.0,0.0
193,59.0,144.0,40.0,6.0,0.0
194,59.0,0.0,40.0,1.0,0.0
195,58.0,0.0,150.0,6.0,0.0
196,58.0,0.0,150.0,1.0,0.0
197,49.0,0.0,15.0,8.0,0.0
198,53.0,0.0,390.0,8.0,0.0
199,56.0,0.0,180.0,6.0,0.0
200,49.0,188.0,15.0,3.0,0.0
201,53.0,0.0,390.0,3.0,0.0
202,56.0,0.0,180.0,1.0,0.0
203,37.0,0.0,180.0,4.0,0.0
204,68.0,92.0,90.0,1.0,0.0
205,65.0,0.0,180.0,7.0,0.0
206,68.0,0.0,90.0,6.0,0.0
207,37.0,0.0,180.0,8.0,0.0
208,65.0,96.0,180.0,2.0,0.0
209,37.0,4.0,180.0,5.0,0.0
210,70.0,0.0,90.0,1.0,0.0
211,70.0,0.0,90.0,6.0,0.0
212,71.0,92.0,90.0,1.0,0.0
213,41.0,4.0,180.0,5.0,0.0
214,68.0,0.0,180.0,7.0,0.0
215,41.0,0.0,180.0,4.0,0.0
216,71.0,0.0,90.0,6.0,0.0
217,68.0,0.0,180.0,2.0,0.0
218,41.0,0.0,180.0,8.0,0.0
219,68.0,96.0,90.0,1.0,0.0
220,68.0,0.0,90.0,6.0,0.0
221,68.0,92.0,90.0,6.0,0.0
222,65.0,0.0,180.0,2.0,0.0
223,44.0,4.0,180.0,5.0,0.0
224,44.0,0.0,180.0,8.0,0.0
225,68.0,0.0,90.0,1.0,0.0
226,65.0,0.0,180.0,7.0,0.0
227,44.0,96.0,180.0,4.0,0.0
228,66.0,0.0,90.0,1.0,0.0
229,66.0,0.0,90.0,6.0,0.0
230,66.0,0.0,90.0,6.0,0.0
231,47.0,0.0,390.0,4.0,0.0
232,61.0,0.0,180.0,7.0,0.0
233,47.0,0.0,390.0,8.0,0.0
234,66.0,96.0,90.0,1.0,0.0
235,47.0,96.0,390.0,5.0,0.0
236,61.0,0.0,180.0,2.0,0.0
237,65.0,96.0,90.0,6.0,0.0
238,65.0,0.0,90.0,1.0,0.0
239,65.0,0.0,180.0,7.0,0.0
240,65.0,0.0,90.0,6.0,0.0
241,65.0,96.0,90.0,1.0,0.0
242,65.0,0.0,180.0,2.0,0.0
243,63.0,0.0,90.0,6.0,0.0
244,63.0,96.0,90.0,6.0,0.0
245,63.0,0.0,15.0,1.0,0.0
246,68.0,96.0,180.0,7.0,0.0
247,68.0,0.0,180.0,2.0,0.0
248,61.0,0.0,90.0,6.0,0.0
249,61.0,0.0,90.0,1.0,0.0
250,49.0,0.0,180.0,8.0,0.0
251,53.0,0.0,180.0,3.0,0.0
252,68.0,0.0,90.0,1.0,0.0
253,68.0,92.0,90.0,6.0,0.0
254,49.0,0.0,180.0,4.0,0.0
255,65.0,0.0,180.0,2.0,0.0
256,49.0,4.0,180.0,5.0,0.0
257,65.0,0.0,180.0,7.0,0.0
258,70.0,96.0,90.0,6.0,0.0
259,70.0,0.0,90.0,1.0,0.0
260,53.0,0.0,180.0,4.0,0.0
261,53.0,0.0,15.0,8.0,0.0
262,58.0,0.0,180.0,3.0,0.0
263,71.0,92.0,90.0,1.0,0.0
264,53.0,4.0,180.0,5.0,0.0
265,58.0,0.0,180.0,8.0,0.0
266,68.0,96.0,180.0,7.0,0.0
267,71.0,0.0,90.0,6.0,0.0
268,68.0,0.0,180.0,2.0,0.0
269,68.0,0.0,90.0,6.0,0.0
270,68.0,0.0,90.0,1.0,0.0
271,56.0,0.0,180.0,8.0,0.0
272,61.0,0.0,180.0,8.0,0.0
273,68.0,92.0,90.0,6.0,0.0
274,71.0,0.0,180.0,2.0,0.0
275,56.0,4.0,180.0,5.0,0.0
276,61.0,0.0,180.0,3.0,0.0
277,56.0,0.0,180.0,4.0,0.0
278,68.0,0.0,90.0,1.0,0.0
279,71.0,96.0,180.0,7.0,0.0
280,66.0,0.0,90.0,1.0,0.0
281,66.0,0.0,15.0,6.0,0.0
282,49.0,0.0,180.0,3.0,0.0
283,47.0,0.0,570.0,4.0,0.0
284,66.0,0.0,90.0,1.0,0.0
285,47.0,0.0,570.0,8.0,0.0
286,56.0,0.0,180.0,2.0,0.0
287,47.0,64.0,510.0,5.0,0.0
288,49.0,0.0,180.0,8.0,0.0
289,56.0,96.0,180.0,7.0,0.0
290,56.0,0.0,180.0,8.0,0.0
291,65.0,0.0,15.0,1.0,0.0
292,65.0,0.0,15.0,6.0,0.0
293,56.0,0.0,180.0,3.0,0.0
294,61.0,96.0,180.0,2.0,0.0
295,61.0,0.0,180.0,7.0,0.0
296,63.0,0.0,90.0,1.0,0.0
297,63.0,0.0,90.0,6.0,0.0
298,63.0,0.0,90.0,1.0,0.0
299,56.0,0.0,180.0,7.0,0.0
300,53.0,96.0,180.0,3.0,0.0
301,56.0,0.0,180.0,2.0,0.0
302,63.0,32.0,90.0,6.0,0.0
303,53.0,0.0,180.0,8.0,0.0
304,61.0,0.0,90.0,1.0,0.0
305,61.0,0.0,90.0,6.0,0.0
306,42.0,0.0,180.0,8.0,0.0
307,49.0,0.0,570.0,3.0,0.0
308,66.0,0.0,390.0,2.0,0.0
309,66.0,0.0,390.0,7.0,0.0
310,70.0,0.0,90.0,6.0,0.0
311,42.0,4.0,180.0,5.0,0.0
312,42.0,96.0,180.0,4.0,0.0
313,70.0,92.0,90.0,1.0,0.0
314,71.0,0.0,90.0,6.0,0.0
315,71.0,0.0,90.0,1.0,0.0
316,73.0,0.0,90.0,6.0,0.0
317,46.0,4.0,180.0,5.0,0.0
318,46.0,96.0,180.0,8.0,0.0
319,73.0,92.0,90.0,1.0,0.0
320,46.0,0.0,180.0,4.0,0.0
321,70.0,0.0,90.0,6.0,0.0
322,70.0,0.0,90.0,1.0,0.0
323,49.0,4.0,180.0,5.0,0.0
324,70.0,0.0,90.0,6.0,0.0
325,61.0,0.0,180.0,2.0,0.0
326,61.0,0.0,180.0,7.0,0.0
327,49.0,0.0,180.0,4.0,0.0
328,70.0,92.0,90.0,1.0,0.0
329,49.0,0.0,180.0,8.0,0.0
330,68.0,0.0,90.0,1.0,0.0
331,68.0,0.0,90.0,6.0,0.0
332,59.0,0.0,180.0,7.0,0.0
333,52.0,64.0,330.0,5.0,0.0
334,52.0,0.0,390.0,4.0,0.0
335,54.0,0.0,390.0,3.0,0.0
336,68.0,96.0,90.0,6.0,0.0
337,68.0,0.0,90.0,1.0,0.0
338,52.0,96.0,390.0,8.0,0.0
339,59.0,96.0,180.0,2.0,0.0
340,66.0,0.0,90.0,6.0,0.0
341,66.0,32.0,90.0,6.0,0.0
342,63.0,0.0,180.0,7.0,0.0
343,66.0,0.0,15.0,1.0,0.0
344,63.0,0.0,180.0,2.0,0.0
345,64.0,0.0,90.0,1.0,0.0
346,64.0,0.0,90.0,6.0,0.0
347,59.0,0.0,180.0,2.0,0.0
348,54.0,0.0,15.0,8.0,0.0
349,64.0,96.0,90.0,6.0,0.0
350,64.0,0.0,90.0,1.0,0.0
351,59.0,96.0,180.0,7.0,0.0
352,66.0,0.0,90.0,6.0,0.0
353,66.0,0.0,90.0,1.0,0.0
354,70.0,96.0,90.0,6.0,0.0
355,54.0,0.0,15.0,3.0,0.0
356,54.0,0.0,780.0,8.0,0.0
357,66.0,96.0,390.0,7.0,0.0
358,66.0,0.0,390.0,2.0,0.0
359,70.0,0.0,90.0,1.0,0.0
360,71.0,0.0,90.0,1.0,0.0
361,71.0,96.0,90.0,6.0,0.0
362,73.0,0.0,90.0,1.0,0.0
363,73.0,96.0,90.0,6.0,0.0
364,70.0,0.0,90.0,6.0,0.0
365,70.0,0.0,90.0,1.0,0.0
366,70.0,0.0,90.0,6.0,0.0
367,61.0,96.0,180.0,2.0,0.0
368,61.0,0.0,180.0,7.0,0.0
369,70.0,96.0,90.0,1.0,0.0
370,68.0,0.0,90.0,1.0,0.0
371,52.0,0.0,570.0,8.0,0.0
372,68.0,0.0,15.0,6.0,0.0
373,58.0,0.0,180.0,7.0,0.0
374,52.0,96.0,570.0,4.0,0.0
375,58.0,0.0,180.0,2.0,0.0
376,52.0,64.0,510.0,5.0,0.0
377,68.0,0.0,90.0,1.0,0.0
378,66.0,0.0,90.0,1.0,0.0
379,66.0,96.0,15.0,6.0,0.0
380,66.0,0.0,90.0,1.0,0.0
381,58.0,0.0,180.0,8.0,0.0
382,58.0,0.0,180.0,3.0,0.0
383,61.0,0.0,180.0,7.0,0.0
384,61.0,96.0,180.0,2.0,0.0
385,64.0,0.0,90.0,6.0,0.0
386,64.0,0.0,90.0,1.0,0.0
387,64.0,0.0,90.0,1.0,0.0
388,58.0,0.0,180.0,2.0,0.0
389,58.0,0.0,180.0,7.0,0.0
390,64.0,32.0,90.0,6.0,0.0
391,63.0,0.0,90.0,6.0,0.0
392,63.0,0.0,15.0,1.0,0.0
393,54.0,0.0,15.0,8.0,0.0
394,47.0,0.0,180.0,8.0,0.0
395,59.0,0.0,180.0,7.0,0.0
396,54.0,0.0,15.0,3.0,0.0
397,59.0,0.0,180.0,2.0,0.0
398,63.0,0.0,90.0,6.0,0.0
399,47.0,96.0,180.0,4.0,0.0
400,47.0,0.0,180.0,5.0,0.0
401,66.0,0.0,90.0,6.0,0.0
402,66.0,0.0,90.0,1.0,0.0
403,64.0,0.0,90.0,1.0,0.0
404,49.0,4.0,180.0,5.0,0.0
405,49.0,96.0,180.0,4.0,0.0
406,64.0,92.0,90.0,6.0,0.0
407,49.0,0.0,180.0,8.0,0.0
408,63.0,0.0,90.0,1.0,0.0
409,47.0,96.0,180.0,8.0,0.0
410,47.0,4.0,180.0,5.0,0.0
411,63.0,0.0,15.0,6.0,0.0
412,63.0,92.0,90.0,1.0,0.0
413,47.0,0.0,180.0,4.0,0.0
414,61.0,96.0,180.0,7.0,0.0
415,61.0,0.0,15.0,6.0,0.0
416,61.0,0.0,15.0,1.0,0.0
417,46.0,0.0,180.0,4.0,0.0
418,54.0,0.0,180.0,3.0,0.0
419,61.0,0.0,180.0,2.0,0.0
420,54.0,0.0,180.0,8.0,0.0
421,46.0,0.0,180.0,8.0,0.0
422,46.0,0.0,180.0,5.0,0.0
423,66.0,0.0,90.0,6.0,0.0
424,66.0,0.0,90.0,1.0,0.0
425,63.0,0.0,90.0,6.0,0.0
426,47.0,0.0,180.0,8.0,0.0
427,47.0,4.0,180.0,5.0,0.0
428,63.0,92.0,90.0,1.0,0.0
429,47.0,96.0,180.0,4.0,0.0
430,46.0,4.0,180.0,5.0,0.0
431,61.0,0.0,15.0,1.0,0.0
432,61.0,0.0,15.0,6.0,0.0
433,46.0,0.0,180.0,8.0,0.0
434,46.0,0.0,180.0,4.0,0.0
435,59.0,96.0,90.0,1.0,0.0
436,59.0,0.0,15.0,6.0,0.0
437,44.0,0.0,180.0,4.0,0.0
438,59.0,0.0,180.0,2.0,0.0
439,54.0,0.0,180.0,8.0,0.0
440,44.0,0.0,180.0,8.0,0.0
441,59.0,0.0,180.0,7.0,0.0
442,44.0,96.0,180.0,5.0,0.0
443,54.0,0.0,180.0,3.0,0.0
444,59.0,96.0,90.0,1.0,0.0
445,66.0,0.0,90.0,1.0,0.0
446,66.0,0.0,90.0,6.0,0.0
447,46.0,0.0,180.0,8.0,0.0
448,46.0,4.0,180.0,5.0,0.0
449,46.0,96.0,180.0,4.0,0.0
450,61.0,92.0,90.0,1.0,0.0
451,61.0,0.0,90.0,6.0,0.0
452,59.0,0.0,90.0,1.0,0.0
453,59.0,0.0,90.0,6.0,0.0
454,44.0,4.0,180.0,5.0,0.0
455,59.0,0.0,90.0,6.0,0.0
456,44.0,0.0,180.0,8.0,0.0
457,44.0,0.0,180.0,4.0,0.0
458,59.0,92.0,90.0,1.0,0.0
459,58.0,96.0,90.0,6.0,0.0
460,58.0,0.0,90.0,1.0,0.0
461,42.0,4.0,180.0,5.0,0.0
462,66.0,0.0,390.0,7.0,0.0
463,42.0,96.0,180.0,8.0,0.0
464,42.0,0.0,180.0,4.0,0.0
465,66.0,96.0,390.0,2.0,0.0
466,58.0,92.0,90.0,1.0,0.0
467,58.0,0.0,90.0,6.0,0.0
468,66.0,0.0,90.0,6.0,0.0
469,66.0,0.0,90.0,1.0,0.0
470,51.0,0.0,180.0,4.0,0.0
471,54.0,0.0,180.0,3.0,0.0
472,51.0,0.0,180.0,5.0,0.0
473,54.0,0.0,180.0,8.0,0.0
474,51.0,0.0,180.0,8.0,0.0
475,59.0,96.0,90.0,6.0,0.0
476,59.0,0.0,90.0,1.0,0.0
477,58.0,0.0,90.0,1.0,0.0
478,58.0,0.0,180.0,3.0,0.0
479,49.0,0.0,180.0,8.0,0.0
480,58.0,0.0,180.0,8.0,0.0
481,49.0,0.0,180.0,4.0,0.0
482,58.0,0.0,15.0,6.0,0.0
483,49.0,4.0,180.0,5.0,0.0
484,58.0,0.0,90.0,1.0,0.0
485,56.0,96.0,90.0,6.0,0.0
486,56.0,0.0,90.0,1.0,0.0
487,56.0,0.0,570.0,2.0,0.0
488,66.0,92.0,90.0,1.0,0.0
489,48.0,4.0,180.0,5.0,0.0
490,48.0,0.0,180.0,4.0,0.0
491,56.0,0.0,570.0,7.0,0.0
492,51.0,96.0,180.0,3.0,0.0
493,66.0,0.0,90.0,6.0,0.0
494,51.0,0.0,180.0,8.0,0.0
495,48.0,0.0,180.0,8.0,0.0
496,65.0,0.0,90.0,6.0,0.0
497,65.0,0.0,15.0,1.0,0.0
498,36.0,0.0,180.0,8.0,0.0
499,36.0,4.0,180.0,5.0,0.0
500,65.0,0.0,90.0,6.0,0.0
501,36.0,0.0,180.0,4.0,0.0
502,66.0,0.0,90.0,6.0,0.0
503,51.0,0.0,180.0,3.0,0.0
504,66.0,96.0,90.0,6.0,0.0
505,48.0,96.0,180.0,5.0,0.0
506,66.0,96.0,15.0,1.0,0.0
507,48.0,0.0,180.0,4.0,0.0
508,48.0,0.0,180.0,8.0,0.0
509,51.0,0.0,180.0,8.0,0.0
510,56.0,0.0,90.0,1.0,0.0
511,56.0,0.0,90.0,6.0,0.0
512,53.0,96.0,180.0,8.0,0.0
513,49.0,0.0,180.0,8.0,0.0
514,56.0,92.0,90.0,1.0,0.0
515,53.0,0.0,180.0,3.0,0.0
516,56.0,0.0,90.0,6.0,0.0
517,49.0,0.0,180.0,4.0,0.0
518,49.0,4.0,180.0,5.0,0.0
519,65.0,0.0,90.0,6.0,0.0
520,65.0,0.0,15.0,1.0,0.0
521,37.0,4.0,180.0,5.0,0.0
522,65.0,0.0,90.0,6.0,0.0
523,37.0,96.0,180.0,4.0,0.0
524,37.0,0.0,180.0,8.0,0.0
525,66.0,0.0,90.0,1.0,0.0
526,66.0,0.0,90.0,6.0,0.0
527,66.0,0.0,90.0,6.0,0.0
528,49.0,0.0,180.0,8.0,0.0
529,49.0,0.0,180.0,5.0,0.0
530,49.0,0.0,180.0,4.0,0.0
531,53.0,0.0,180.0,3.0,0.0
532,66.0,96.0,90.0,1.0,0.0
533,53.0,0.0,180.0,8.0,0.0
534,56.0,96.0,90.0,6.0,0.0
535,51.0,4.0,180.0,5.0,0.0
536,51.0,0.0,180.0,8.0,0.0
537,54.0,0.0,180.0,3.0,0.0
538,54.0,0.0,180.0,8.0,0.0
539,56.0,0.0,15.0,1.0,0.0
540,51.0,0.0,180.0,4.0,0.0
541,56.0,0.0,90.0,6.0,0.0
542,65.0,0.0,15.0,1.0,0.0
543,39.0,0.0,180.0,8.0,0.0
544,39.0,0.0,180.0,4.0,0.0
545,65.0,96.0,15.0,6.0,0.0
546,39.0,4.0,180.0,5.0,0.0
547,54.0,0.0,180.0,3.0,0.0
548,51.0,0.0,180.0,5.0,0.0
549,66.0,0.0,15.0,1.0,0.0
550,54.0,0.0,180.0,8.0,0.0
551,51.0,0.0,180.0,8.0,0.0
552,66.0,96.0,15.0,6.0,0.0
553,51.0,0.0,180.0,4.0,0.0
554,53.0,0.0,180.0,3.0,0.0
555,53.0,0.0,180.0,8.0,0.0
556,56.0,96.0,15.0,6.0,0.0
557,56.0,0.0,15.0,1.0,0.0
558,49.0,64.0,330.0,5.0,0.0
559,59.0,0.0,180.0,8.0,0.0
560,59.0,0.0,180.0,3.0,0.0
561,56.0,0.0,180.0,3.0,0.0
562,65.0,0.0,15.0,6.0,0.0
563,65.0,96.0,15.0,1.0,0.0
564,56.0,96.0,180.0,8.0,0.0
565,66.0,0.0,90.0,6.0,0.0
566,49.0,0.0,15.0,4.0,0.0
567,49.0,4.0,180.0,5.0,0.0
568,66.0,0.0,90.0,6.0,0.0
569,54.0,0.0,180.0,3.0,0.0
570,66.0,0.0,15.0,1.0,0.0
571,58.0,0.0,180.0,3.0,0.0
572,54.0,0.0,180.0,8.0,0.0
573,58.0,0.0,180.0,8.0,0.0
574,49.0,0.0,15.0,8.0,0.0
575,56.0,96.0,90.0,6.0,0.0
576,47.0,0.0,180.0,4.0,0.0
577,54.0,96.0,780.0,2.0,0.0
578,47.0,96.0,180.0,8.0,0.0
579,56.0,0.0,15.0,1.0,0.0
580,47.0,0.0,180.0,5.0,0.0
581,54.0,0.0,780.0,7.0,0.0
582,56.0,96.0,90.0,6.0,0.0
583,59.0,0.0,15.0,1.0,0.0
584,51.0,4.0,180.0,5.0,0.0
585,59.0,0.0,15.0,6.0,0.0
586,51.0,0.0,180.0,8.0,0.0
587,51.0,0.0,180.0,4.0,0.0
588,58.0,0.0,15.0,1.0,0.0
589,49.0,4.0,180.0,5.0,0.0
590,49.0,0.0,180.0,8.0,0.0
591,58.0,96.0,15.0,6.0,0.0
592,49.0,0.0,180.0,4.0,0.0
593,63.0,96.0,90.0,6.0,0.0
594,63.0,0.0,15.0,1.0,0.0
595,47.0,0.0,180.0,5.0,0.0
596,47.0,0.0,180.0,8.0,0.0
597,63.0,0.0,90.0,6.0,0.0
598,47.0,0.0,180.0,4.0,0.0
599,61.0,0.0,90.0,6.0,0.0
600,61.0,0.0,90.0,1.0,0.0
601,61.0,92.0,90.0,1.0,0.0
602,61.0,0.0,90.0,6.0,0.0
603,46.0,0.0,180.0,8.0,0.0
604,46.0,0.0,180.0,4.0,0.0
605,46.0,4.0,180.0,5.0,0.0
606,65.0,0.0,90.0,6.0,0.0
607,65.0,0.0,90.0,1.0,0.0
608,58.0,0.0,15.0,2.0,0.0
609,58.0,96.0,15.0,7.0,0.0
610,65.0,0.0,90.0,6.0,0.0
611,51.0,4.0,180.0,5.0,0.0
612,65.0,92.0,90.0,1.0,0.0
613,51.0,0.0,180.0,4.0,0.0
614,66.0,0.0,90.0,6.0,0.0
615,66.0,0.0,90.0,1.0,0.0
616,56.0,0.0,60.0,1.0,0.0
617,59.0,0.0,60.0,1.0,0.0
618,59.0,0.0,60.0,6.0,0.0
619,56.0,0.0,60.0,6.0,0.0
620,51.0,0.0,180.0,3.0,0.0
621,56.0,0.0,60.0,2.0,0.0
622,47.0,0.0,180.0,4.0,0.0
623,59.0,124.0,60.0,2.0,0.0
624,51.0,64.0,15.0,8.0,0.0
625,47.0,4.0,180.0,5.0,0.0
626,47.0,48.0,180.0,8.0,0.0
627,56.0,0.0,60.0,7.0,0.0
628,59.0,0.0,60.0,7.0,0.0
629,49.0,0.0,180.0,3.0,0.0
630,54.0,0.0,40.0,7.0,0.0
631,54.0,0.0,40.0,2.0,0.0
632,58.0,48.0,40.0,6.0,0.0
633,58.0,0.0,40.0,1.0,0.0
634,49.0,0.0,180.0,8.0,0.0
635,53.0,0.0,40.0,2.0,0.0
636,56.0,0.0,40.0,1.0,0.0
637,56.0,48.0,40.0,6.0,0.0
638,53.0,0.0,40.0,7.0,0.0
639,54.0,0.0,40.0,2.0,0.0
640,54.0,0.0,40.0,7.0,0.0
641,58.0,48.0,40.0,6.0,0.0
642,58.0,0.0,40.0,1.0,0.0
643,56.0,0.0,40.0,6.0,0.0
644,53.0,0.0,40.0,2.0,0.0
645,53.0,0.0,40.0,7.0,0.0
646,56.0,48.0,40.0,1.0,0.0
647,37.0,0.0,180.0,8.0,0.0
648,47.0,384.0,180.0,3.0,0.0
649,58.0,0.0,40.0,6.0,0.0
650,47.0,0.0,180.0,8.0,0.0
651,58.0,0.0,40.0,1.0,0.0
652,54.0,0.0,40.0,7.0,0.0
653,37.0,4.0,180.0,5.0,0.0
654,37.0,0.0,180.0,4.0,0.0
655,54.0,140.0,40.0,2.0,0.0
656,56.0,0.0,150.0,6.0,0.0
657,56.0,0.0,150.0,1.0,0.0
658,53.0,0.0,150.0,2.0,0.0
659,53.0,0.0,150.0,7.0,0.0
660,54.0,0.0,390.0,6.0,0.0
661,42.0,0.0,390.0,4.0,0.0
662,42.0,0.0,390.0,8.0,0.0
663,46.0,0.0,390.0,8.0,0.0
664,54.0,0.0,390.0,1.0,0.0
665,46.0,0.0,390.0,3.0,0.0
666,47.0,0.0,180.0,8.0,0.0
667,56.0,0.0,180.0,1.0,0.0
668,42.0,188.0,15.0,5.0,0.0
669,56.0,96.0,180.0,6.0,0.0
670,42.0,0.0,180.0,4.0,0.0
671,47.0,0.0,180.0,3.0,0.0
672,49.0,0.0,390.0,8.0,0.0
673,42.0,0.0,15.0,8.0,0.0
674,54.0,0.0,15.0,2.0,0.0
675,42.0,64.0,330.0,5.0,0.0
676,49.0,0.0,330.0,0.0,0.0
677,54.0,0.0,15.0,7.0,0.0
678,49.0,0.0,390.0,3.0,0.0
679,58.0,96.0,90.0,6.0,0.0
680,58.0,0.0,90.0,1.0,0.0
681,66.0,0.0,90.0,6.0,0.0
682,66.0,96.0,90.0,1.0,0.0
683,61.0,32.0,90.0,6.0,0.0
684,61.0,0.0,90.0,1.0,0.0
685,59.0,0.0,90.0,1.0,0.0
686,59.0,0.0,90.0,6.0,0.0
687,59.0,92.0,90.0,1.0,0.0
688,56.0,0.0,180.0,2.0,0.0
689,59.0,0.0,90.0,6.0,0.0
690,42.0,4.0,180.0,5.0,0.0
691,47.0,0.0,180.0,0.0,0.0
692,53.0,320.0,180.0,3.0,0.0
693,53.0,0.0,180.0,8.0,0.0
694,56.0,0.0,180.0,7.0,0.0
695,42.0,0.0,15.0,4.0,0.0
696,58.0,0.0,90.0,6.0,0.0
697,42.0,0.0,15.0,4.0,0.0
698,58.0,96.0,660.0,6.0,0.0
699,42.0,0.0,330.0,5.0,0.0
700,46.0,64.0,330.0,0.0,0.0
701,54.0,0.0,390.0,2.0,0.0
702,54.0,0.0,390.0,7.0,0.0
703,58.0,0.0,15.0,1.0,0.0
704,42.0,0.0,15.0,8.0,0.0
705,54.0,0.0,390.0,8.0,0.0
706,54.0,0.0,390.0,3.0,0.0
707,53.0,0.0,180.0,3.0,0.0
708,56.0,0.0,180.0,7.0,0.0
709,53.0,0.0,180.0,8.0,0.0
710,56.0,96.0,180.0,2.0,0.0
711,47.0,4.0,180.0,0.0,0.0
712,54.0,0.0,390.0,8.0,0.0
713,54.0,0.0,390.0,3.0,0.0
714,58.0,0.0,180.0,2.0,0.0
715,49.0,0.0,180.0,0.0,0.0
716,58.0,96.0,180.0,7.0,0.0
717,66.0,0.0,90.0,1.0,0.0
718,66.0,0.0,90.0,6.0,0.0
719,51.0,4.0,180.0,0.0,0.0
720,58.0,0.0,90.0,1.0,0.0
721,61.0,0.0,180.0,2.0,0.0
722,58.0,92.0,90.0,6.0,0.0
723,61.0,0.0,180.0,7.0,0.0
724,56.0,0.0,90.0,1.0,0.0
725,56.0,96.0,15.0,6.0,0.0
726,42.0,0.0,180.0,8.0,0.0
727,53.0,0.0,180.0,0.0,0.0
728,59.0,0.0,180.0,2.0,0.0
729,42.0,0.0,180.0,4.0,0.0
730,59.0,320.0,180.0,7.0,0.0
731,42.0,4.0,180.0,5.0,0.0
732,56.0,0.0,90.0,1.0,0.0
733,54.0,0.0,90.0,1.0,0.0
734,54.0,0.0,90.0,6.0,0.0
735,58.0,0.0,570.0,1.0,0.0
736,42.0,0.0,390.0,4.0,0.0
737,54.0,60.0,2820.0,0.0,0.0
738,42.0,64.0,330.0,5.0,0.0
739,54.0,0.0,570.0,7.0,0.0
740,42.0,188.0,390.0,8.0,0.0
741,54.0,0.0,570.0,2.0,0.0
742,58.0,0.0,570.0,6.0,0.0
743,54.0,4.0,180.0,5.0,0.0
744,54.0,0.0,180.0,4.0,0.0
745,54.0,320.0,15.0,8.0,0.0
746,61.0,0.0,390.0,2.0,0.0
747,54.0,64.0,330.0,5.0,0.0
748,54.0,0.0,390.0,4.0,0.0
749,70.0,188.0,390.0,1.0,0.0
750,61.0,0.0,390.0,7.0,0.0
751,70.0,0.0,390.0,6.0,0.0
752,68.0,0.0,180.0,6.0,0.0
753,59.0,0.0,180.0,7.0,0.0
754,42.0,4.0,180.0,5.0,0.0
755,59.0,0.0,180.0,2.0,0.0
756,68.0,0.0,180.0,1.0,0.0
757,42.0,64.0,510.0,5.0,0.0
758,42.0,192.0,15.0,4.0,0.0
759,66.0,0.0,180.0,6.0,0.0
760,42.0,0.0,15.0,8.0,0.0
761,58.0,0.0,180.0,7.0,0.0
762,66.0,192.0,180.0,1.0,0.0
763,58.0,0.0,180.0,2.0,0.0
764,61.0,0.0,180.0,1.0,0.0
765,61.0,0.0,180.0,7.0,0.0
766,61.0,0.0,180.0,6.0,0.0
767,61.0,128.0,180.0,2.0,0.0
768,59.0,0.0,180.0,2.0,0.0
769,68.0,192.0,180.0,1.0,0.0
770,59.0,0.0,180.0,7.0,0.0
771,68.0,0.0,180.0,6.0,0.0
772,61.0,0.0,180.0,2.0,0.0
773,70.0,0.0,180.0,1.0,0.0
774,61.0,192.0,180.0,7.0,0.0
775,58.0,0.0,180.0,8.0,0.0
776,70.0,0.0,180.0,6.0,0.0
777,58.0,0.0,180.0,3.0,0.0
778,56.0,0.0,180.0,3.0,0.0
779,71.0,0.0,180.0,6.0,0.0
780,71.0,0.0,180.0,1.0,0.0
781,63.0,0.0,180.0,2.0,0.0
782,56.0,0.0,180.0,8.0,0.0
783,63.0,188.0,180.0,7.0,0.0
784,73.0,0.0,390.0,1.0,0.0
785,46.0,192.0,180.0,4.0,0.0
786,73.0,128.0,390.0,6.0,0.0
787,64.0,0.0,390.0,2.0,0.0
788,64.0,0.0,390.0,7.0,0.0
789,54.0,0.0,180.0,8.0,0.0
790,46.0,0.0,180.0,8.0,0.0
791,46.0,4.0,180.0,5.0,0.0
792,54.0,0.0,15.0,3.0,0.0
793,47.0,64.0,330.0,5.0,0.0
794,54.0,0.0,570.0,8.0,0.0
795,66.0,0.0,180.0,7.0,0.0
796,63.0,0.0,180.0,2.0,0.0
797,71.0,0.0,180.0,1.0,0.0
798,66.0,0.0,180.0,2.0,0.0
799,63.0,0.0,180.0,7.0,0.0
800,71.0,0.0,180.0,6.0,0.0
801,70.0,0.0,180.0,1.0,0.0
802,61.0,0.0,180.0,7.0,0.0
803,64.0,0.0,180.0,7.0,0.0
804,61.0,0.0,180.0,2.0,0.0
805,64.0,0.0,180.0,2.0,0.0
806,70.0,0.0,180.0,6.0,0.0
807,47.0,128.0,15.0,8.0,0.0
808,47.0,4.0,180.0,5.0,0.0
809,47.0,0.0,15.0,4.0,0.0
810,59.0,188.0,390.0,7.0,0.0
811,63.0,0.0,390.0,7.0,0.0
812,59.0,0.0,390.0,2.0,0.0
813,47.0,0.0,15.0,8.0,0.0
814,68.0,0.0,390.0,6.0,0.0
815,47.0,64.0,330.0,5.0,0.0
816,47.0,320.0,15.0,4.0,0.0
817,63.0,0.0,390.0,2.0,0.0
818,68.0,0.0,390.0,1.0,0.0
819,35.0,4.0,180.0,5.0,0.0
820,63.0,0.0,180.0,2.0,0.0
821,58.0,0.0,180.0,2.0,0.0
822,66.0,0.0,180.0,1.0,0.0
823,35.0,0.0,180.0,8.0,0.0
824,58.0,0.0,180.0,7.0,0.0
825,66.0,320.0,180.0,6.0,0.0
826,63.0,0.0,180.0,7.0,0.0
827,35.0,0.0,180.0,4.0,0.0
828,65.0,0.0,390.0,1.0,0.0
829,37.0,64.0,330.0,5.0,0.0
830,61.0,0.0,390.0,7.0,0.0
831,56.0,0.0,390.0,7.0,0.0
832,37.0,0.0,390.0,8.0,0.0
833,56.0,0.0,390.0,2.0,0.0
834,37.0,0.0,390.0,4.0,0.0
835,37.0,0.0,390.0,3.0,0.0
836,65.0,188.0,390.0,6.0,0.0
837,61.0,0.0,15.0,2.0,0.0
838,49.0,4.0,180.0,5.0,0.0
839,66.0,192.0,180.0,6.0,0.0
840,58.0,0.0,180.0,2.0,0.0
841,49.0,0.0,180.0,3.0,0.0
842,58.0,0.0,180.0,7.0,0.0
843,66.0,0.0,180.0,1.0,0.0
844,61.0,0.0,180.0,7.0,0.0
845,49.0,0.0,15.0,8.0,0.0
846,61.0,0.0,180.0,7.0,0.0
847,64.0,0.0,180.0,7.0,0.0
848,49.0,0.0,15.0,8.0,0.0
849,68.0,0.0,180.0,6.0,0.0
850,61.0,0.0,180.0,2.0,0.0
851,64.0,128.0,180.0,2.0,0.0
852,68.0,0.0,180.0,1.0,0.0
853,49.0,0.0,15.0,4.0,0.0
854,49.0,64.0,330.0,5.0,0.0
855,70.0,0.0,180.0,1.0,0.0
856,66.0,0.0,180.0,7.0,0.0
857,70.0,0.0,180.0,6.0,0.0
858,66.0,188.0,180.0,2.0,0.0
859,71.0,128.0,390.0,1.0,0.0
860,71.0,0.0,390.0,6.0,0.0
861,49.0,0.0,15.0,3.0,0.0
862,64.0,192.0,180.0,7.0,0.0
863,37.0,4.0,180.0,5.0,0.0
864,37.0,0.0,180.0,8.0,0.0
865,37.0,0.0,180.0,4.0,0.0
866,68.0,0.0,390.0,2.0,0.0
867,64.0,0.0,180.0,2.0,0.0
868,68.0,0.0,390.0,7.0,0.0
869,42.0,0.0,390.0,4.0,0.0
870,61.0,0.0,180.0,2.0,0.0
871,49.0,0.0,15.0,8.0,0.0
872,42.0,0.0,390.0,8.0,0.0
873,49.0,0.0,15.0,3.0,0.0
874,61.0,0.0,180.0,7.0,0.0
875,42.0,64.0,330.0,5.0,0.0
876,70.0,192.0,180.0,6.0,0.0
877,66.0,0.0,180.0,2.0,0.0
878,66.0,0.0,180.0,7.0,0.0
879,70.0,0.0,180.0,1.0,0.0
880,65.0,0.0,180.0,7.0,0.0
881,54.0,0.0,180.0,8.0,0.0
882,59.0,0.0,180.0,7.0,0.0
883,65.0,0.0,180.0,2.0,0.0
884,59.0,0.0,180.0,2.0,0.0
885,68.0,96.0,180.0,1.0,0.0
886,68.0,0.0,180.0,6.0,0.0
887,54.0,0.0,180.0,3.0,0.0
888,66.0,96.0,90.0,6.0,0.0
889,58.0,0.0,390.0,2.0,0.0
890,49.0,64.0,330.0,0.0,0.0
891,58.0,0.0,390.0,7.0,0.0
892,54.0,0.0,390.0,3.0,0.0
893,54.0,0.0,390.0,8.0,0.0
894,66.0,0.0,90.0,1.0,0.0
895,64.0,0.0,90.0,6.0,0.0
896,64.0,96.0,90.0,1.0,0.0
897,64.0,0.0,90.0,1.0,0.0
898,64.0,32.0,90.0,6.0,0.0
899,53.0,0.0,180.0,8.0,0.0
900,42.0,0.0,180.0,5.0,0.0
901,63.0,0.0,15.0,6.0,0.0
902,56.0,0.0,180.0,2.0,0.0
903,56.0,0.0,180.0,7.0,0.0
904,47.0,4.0,180.0,0.0,0.0
905,63.0,96.0,15.0,1.0,0.0
906,53.0,96.0,180.0,3.0,0.0
907,61.0,0.0,90.0,6.0,0.0
908,42.0,0.0,15.0,4.0,0.0
909,54.0,96.0,390.0,7.0,0.0
910,46.0,0.0,330.0,0.0,0.0
911,42.0,64.0,330.0,5.0,0.0
912,61.0,0.0,15.0,1.0,0.0
913,42.0,0.0,15.0,8.0,0.0
914,49.0,0.0,390.0,8.0,0.0
915,49.0,0.0,390.0,3.0,0.0
916,54.0,0.0,390.0,2.0,0.0
917,61.0,0.0,90.0,6.0,0.0
918,66.0,96.0,90.0,6.0,0.0
919,66.0,0.0,90.0,1.0,0.0
920,61.0,0.0,90.0,1.0,0.0
921,61.0,32.0,90.0,6.0,0.0
922,59.0,0.0,90.0,1.0,0.0
923,59.0,0.0,15.0,6.0,0.0
924,54.0,0.0,180.0,3.0,0.0
925,56.0,0.0,180.0,2.0,0.0
926,54.0,0.0,180.0,8.0,0.0
927,47.0,4.0,180.0,0.0,0.0
928,59.0,92.0,90.0,1.0,0.0
929,56.0,0.0,180.0,7.0,0.0
930,58.0,0.0,90.0,6.0,0.0
931,54.0,96.0,390.0,8.0,0.0
932,58.0,96.0,15.0,1.0,0.0
933,58.0,96.0,90.0,6.0,0.0
934,58.0,0.0,180.0,2.0,0.0
935,58.0,96.0,180.0,7.0,0.0
936,49.0,0.0,180.0,0.0,0.0
937,54.0,0.0,390.0,3.0,0.0
938,66.0,0.0,90.0,1.0,0.0
939,66.0,0.0,90.0,6.0,0.0
940,61.0,0.0,180.0,7.0,0.0
941,51.0,4.0,180.0,0.0,0.0
942,58.0,0.0,90.0,1.0,0.0
943,61.0,0.0,180.0,2.0,0.0
944,58.0,92.0,90.0,6.0,0.0
945,56.0,0.0,90.0,6.0,0.0
946,42.0,4.0,180.0,5.0,0.0
947,56.0,92.0,90.0,6.0,0.0
948,59.0,0.0,180.0,2.0,0.0
949,53.0,0.0,180.0,0.0,0.0
950,59.0,0.0,180.0,7.0,0.0
951,56.0,0.0,15.0,1.0,0.0
952,54.0,320.0,90.0,1.0,0.0
953,54.0,0.0,90.0,6.0,0.0
954,58.0,0.0,780.0,1.0,0.0
955,42.0,64.0,330.0,5.0,0.0
956,42.0,0.0,15.0,8.0,0.0
957,58.0,0.0,780.0,6.0,0.0
958,42.0,0.0,15.0,4.0,0.0
959,49.0,192.0,390.0,8.0,0.0
960,49.0,0.0,390.0,3.0,0.0
961,54.0,0.0,780.0,2.0,0.0
962,54.0,188.0,780.0,7.0,0.0
963,54.0,4.0,750.0,0.0,0.0
964,54.0,188.0,180.0,3.0,0.0
965,54.0,0.0,180.0,8.0,0.0
966,53.0,0.0,390.0,3.0,0.0
967,53.0,188.0,390.0,8.0,0.0
968,46.0,4.0,180.0,0.0,0.0
969,61.0,0.0,180.0,6.0,0.0
970,58.0,0.0,180.0,2.0,0.0
971,61.0,0.0,180.0,1.0,0.0
972,58.0,0.0,180.0,7.0,0.0
973,66.0,0.0,180.0,6.0,0.0
974,66.0,0.0,180.0,1.0,0.0
975,41.0,0.0,180.0,4.0,0.0
976,59.0,0.0,180.0,2.0,0.0
977,41.0,192.0,180.0,8.0,0.0
978,47.0,4.0,180.0,0.0,0.0
979,41.0,0.0,180.0,5.0,0.0
980,53.0,128.0,180.0,0.0,0.0
981,65.0,0.0,180.0,1.0,0.0
982,39.0,192.0,390.0,4.0,0.0
983,39.0,60.0,330.0,5.0,0.0
984,59.0,0.0,15.0,7.0,0.0
985,59.0,188.0,780.0,2.0,0.0
986,65.0,0.0,180.0,6.0,0.0
987,39.0,0.0,390.0,8.0,0.0
988,66.0,0.0,180.0,1.0,0.0
989,54.0,4.0,180.0,0.0,0.0
990,66.0,0.0,180.0,6.0,0.0
991,59.0,0.0,180.0,1.0,0.0
992,47.0,64.0,330.0,0.0,0.0
993,51.0,0.0,180.0,3.0,0.0
994,59.0,0.0,180.0,1.0,0.0
995,51.0,0.0,15.0,8.0,0.0
996,59.0,128.0,15.0,6.0,0.0
997,51.0,0.0,390.0,3.0,0.0
998,65.0,0.0,180.0,1.0,0.0
999,65.0,0.0,180.0,6.0,0.0
1000,56.0,188.0,180.0,7.0,0.0
1001,44.0,4.0,180.0,0.0,0.0
1002,56.0,0.0,180.0,2.0,0.0
1003,39.0,0.0,180.0,8.0,0.0
1004,39.0,0.0,180.0,5.0,0.0
1005,46.0,4.0,180.0,0.0,0.0
1006,66.0,0.0,180.0,1.0,0.0
1007,39.0,0.0,180.0,4.0,0.0
1008,66.0,0.0,180.0,6.0,0.0
1009,65.0,0.0,180.0,6.0,0.0
1010,37.0,0.0,390.0,8.0,0.0
1011,53.0,0.0,180.0,0.0,0.0
1012,37.0,60.0,330.0,5.0,0.0
1013,58.0,0.0,15.0,7.0,0.0
1014,37.0,0.0,390.0,4.0,0.0
1015,65.0,128.0,180.0,1.0,0.0
1016,58.0,192.0,15.0,2.0,0.0
1017,66.0,0.0,180.0,6.0,0.0
1018,66.0,188.0,180.0,1.0,0.0
1019,54.0,4.0,180.0,0.0,0.0
1020,49.0,4.0,180.0,5.0,0.0
1021,49.0,0.0,180.0,8.0,0.0
1022,46.0,64.0,330.0,0.0,0.0
1023,58.0,0.0,15.0,6.0,0.0
1024,49.0,60.0,330.0,5.0,0.0
1025,58.0,128.0,15.0,1.0,0.0
1026,49.0,0.0,15.0,4.0,0.0
1027,49.0,188.0,390.0,8.0,0.0
1028,54.0,0.0,180.0,7.0,0.0
1029,61.0,0.0,180.0,1.0,0.0
1030,42.0,4.0,180.0,0.0,0.0
1031,54.0,0.0,180.0,2.0,0.0
1032,61.0,0.0,180.0,6.0,0.0
1033,37.0,0.0,180.0,5.0,0.0
1034,65.0,0.0,180.0,1.0,0.0
1035,56.0,0.0,180.0,2.0,0.0
1036,37.0,0.0,180.0,4.0,0.0
1037,56.0,0.0,180.0,7.0,0.0
1038,65.0,192.0,180.0,6.0,0.0
1039,37.0,0.0,180.0,8.0,0.0
1040,44.0,4.0,180.0,0.0,0.0
1041,65.0,0.0,390.0,7.0,0.0
1042,35.0,0.0,390.0,4.0,0.0
1043,68.0,0.0,180.0,1.0,0.0
1044,35.0,0.0,390.0,8.0,0.0
1045,65.0,0.0,390.0,2.0,0.0
1046,68.0,0.0,180.0,6.0,0.0
1047,35.0,60.0,330.0,5.0,0.0
1048,53.0,128.0,180.0,0.0,0.0
1049,54.0,4.0,180.0,0.0,0.0
1050,66.0,192.0,180.0,1.0,0.0
1051,66.0,0.0,180.0,6.0,0.0
1052,56.0,0.0,180.0,7.0,0.0
1053,37.0,0.0,180.0,8.0,0.0
1054,37.0,128.0,180.0,5.0,0.0
1055,44.0,64.0,330.0,0.0,0.0
1056,65.0,0.0,180.0,6.0,0.0
1057,56.0,0.0,180.0,2.0,0.0
1058,65.0,0.0,180.0,1.0,0.0
1059,37.0,0.0,180.0,4.0,0.0
1060,66.0,188.0,390.0,1.0,0.0
1061,56.0,128.0,180.0,7.0,0.0
1062,66.0,0.0,390.0,6.0,0.0
1063,39.0,0.0,390.0,8.0,0.0
1064,56.0,0.0,180.0,2.0,0.0
1065,39.0,0.0,390.0,4.0,0.0
1066,39.0,60.0,330.0,5.0,0.0
1067,42.0,4.0,180.0,0.0,0.0
1068,54.0,0.0,180.0,2.0,0.0
1069,47.0,4.0,180.0,0.0,0.0
1070,59.0,0.0,180.0,6.0,0.0
1071,35.0,0.0,180.0,8.0,0.0
1072,51.0,0.0,180.0,2.0,0.0
1073,59.0,0.0,180.0,1.0,0.0
1074,35.0,44.0,180.0,5.0,0.0
1075,54.0,0.0,15.0,7.0,0.0
1076,51.0,0.0,180.0,7.0,0.0
1077,35.0,0.0,180.0,4.0,0.0
1078,54.0,0.0,15.0,2.0,0.0
1079,47.0,4.0,40.0,0.0,0.0
1080,37.0,0.0,390.0,4.0,0.0
1081,59.0,44.0,40.0,6.0,0.0
1082,37.0,60.0,330.0,5.0,0.0
1083,59.0,0.0,40.0,1.0,0.0
1084,37.0,0.0,390.0,8.0,0.0
1085,54.0,0.0,390.0,7.0,0.0
1086,58.0,0.0,40.0,1.0,0.0
1087,58.0,44.0,40.0,6.0,0.0
1088,46.0,4.0,40.0,0.0,0.0
1089,47.0,4.0,40.0,0.0,0.0
1090,59.0,44.0,40.0,1.0,0.0
1091,59.0,0.0,40.0,6.0,0.0
1092,58.0,0.0,40.0,6.0,0.0
1093,58.0,44.0,40.0,1.0,0.0
1094,46.0,4.0,40.0,0.0,0.0
1095,47.0,4.0,40.0,0.0,0.0
1096,59.0,80.0,40.0,1.0,0.0
1097,59.0,0.0,40.0,6.0,0.0
1098,58.0,188.0,150.0,1.0,0.0
1099,58.0,0.0,150.0,6.0,0.0
1100,46.0,4.0,150.0,0.0,0.0
1101,56.0,0.0,180.0,6.0,0.0
1102,53.0,0.0,180.0,7.0,0.0
1103,49.0,0.0,180.0,4.0,0.0
1104,49.0,0.0,180.0,8.0,0.0
1105,53.0,0.0,180.0,2.0,0.0
1106,56.0,192.0,180.0,1.0,0.0
1107,44.0,0.0,180.0,0.0,0.0
1108,49.0,4.0,180.0,5.0,0.0
1109,68.0,0.0,390.0,6.0,0.0
1110,49.0,128.0,180.0,3.0,0.0
1111,49.0,64.0,330.0,5.0,0.0
1112,65.0,0.0,390.0,2.0,0.0
1113,49.0,0.0,390.0,4.0,0.0
1114,68.0,188.0,390.0,1.0,0.0
1115,49.0,0.0,180.0,8.0,0.0
1116,65.0,0.0,390.0,7.0,0.0
1117,53.0,0.0,180.0,3.0,0.0
1118,53.0,0.0,180.0,8.0,0.0
1119,54.0,0.0,180.0,8.0,0.0
1120,49.0,0.0,15.0,8.0,0.0
1121,49.0,0.0,180.0,4.0,0.0
1122,54.0,320.0,180.0,3.0,0.0
1123,63.0,0.0,180.0,2.0,0.0
1124,66.0,0.0,180.0,6.0,0.0
1125,49.0,4.0,180.0,5.0,0.0
1126,66.0,0.0,180.0,1.0,0.0
1127,63.0,0.0,180.0,7.0,0.0
1128,47.0,0.0,390.0,8.0,0.0
1129,56.0,0.0,960.0,8.0,0.0
1130,65.0,0.0,390.0,6.0,0.0
1131,61.0,0.0,390.0,7.0,0.0
1132,65.0,0.0,390.0,1.0,0.0
1133,61.0,0.0,390.0,2.0,0.0
1134,56.0,0.0,960.0,3.0,0.0
1135,47.0,64.0,330.0,5.0,0.0
1136,47.0,188.0,15.0,4.0,0.0
1137,66.0,0.0,180.0,1.0,0.0
1138,66.0,0.0,180.0,6.0,0.0
1139,47.0,4.0,180.0,5.0,0.0
1140,47.0,192.0,180.0,8.0,0.0
1141,63.0,0.0,180.0,2.0,0.0
1142,63.0,0.0,180.0,7.0,0.0
1143,47.0,0.0,390.0,4.0,0.0
1144,68.0,0.0,180.0,6.0,0.0
1145,65.0,0.0,180.0,7.0,0.0
1146,68.0,128.0,180.0,1.0,0.0
1147,47.0,64.0,330.0,5.0,0.0
1148,65.0,0.0,180.0,2.0,0.0
1149,47.0,0.0,390.0,8.0,0.0
1150,66.0,0.0,180.0,2.0,0.0
1151,66.0,0.0,180.0,7.0,0.0
1152,70.0,188.0,180.0,6.0,0.0
1153,70.0,0.0,180.0,1.0,0.0
1154,53.0,192.0,180.0,8.0,0.0
1155,68.0,0.0,390.0,7.0,0.0
1156,47.0,0.0,180.0,8.0,0.0
1157,47.0,4.0,180.0,5.0,0.0
1158,71.0,0.0,180.0,6.0,0.0
1159,47.0,0.0,180.0,4.0,0.0
1160,53.0,0.0,180.0,3.0,0.0
1161,68.0,128.0,390.0,2.0,0.0
1162,71.0,0.0,180.0,1.0,0.0
1163,73.0,96.0,660.0,1.0,0.0
1164,46.0,64.0,330.0,5.0,0.0
1165,46.0,0.0,390.0,4.0,0.0
1166,49.0,0.0,570.0,8.0,0.0
1167,73.0,0.0,660.0,6.0,0.0
1168,66.0,0.0,180.0,7.0,0.0
1169,66.0,188.0,180.0,2.0,0.0
1170,46.0,0.0,15.0,8.0,0.0
1171,46.0,4.0,180.0,5.0,0.0
1172,65.0,0.0,180.0,7.0,0.0
1173,65.0,0.0,180.0,2.0,0.0
1174,46.0,0.0,15.0,4.0,0.0
1175,66.0,0.0,180.0,2.0,0.0
1176,54.0,0.0,180.0,0.0,0.0
1177,46.0,60.0,330.0,5.0,0.0
1178,49.0,0.0,15.0,3.0,0.0
1179,66.0,96.0,180.0,7.0,0.0
1180,49.0,0.0,390.0,8.0,0.0
1181,46.0,96.0,15.0,8.0,0.0
1182,68.0,0.0,90.0,6.0,0.0
1183,68.0,0.0,15.0,1.0,0.0
1184,61.0,0.0,180.0,2.0,0.0
1185,53.0,4.0,180.0,0.0,0.0
1186,68.0,0.0,90.0,6.0,0.0
1187,61.0,0.0,180.0,7.0,0.0
1188,63.0,96.0,180.0,2.0,0.0
1189,63.0,0.0,180.0,7.0,0.0
1190,54.0,4.0,180.0,0.0,0.0
1191,66.0,0.0,15.0,1.0,0.0
1192,46.0,0.0,15.0,8.0,0.0
1193,54.0,0.0,180.0,3.0,0.0
1194,46.0,0.0,180.0,5.0,0.0
1195,66.0,0.0,15.0,6.0,0.0
1196,54.0,0.0,180.0,8.0,0.0
1197,46.0,0.0,180.0,4.0,0.0
1198,65.0,0.0,90.0,1.0,0.0
1199,65.0,0.0,90.0,6.0,0.0
1200,59.0,64.0,330.0,0.0,0.0
1201,63.0,96.0,90.0,6.0,0.0
1202,44.0,0.0,330.0,5.0,0.0
1203,63.0,0.0,90.0,1.0,0.0
1204,65.0,0.0,390.0,7.0,0.0
1205,44.0,0.0,390.0,4.0,0.0
1206,56.0,0.0,180.0,3.0,0.0
1207,44.0,0.0,390.0,8.0,0.0
1208,56.0,96.0,180.0,8.0,0.0
1209,65.0,0.0,390.0,2.0,0.0
1210,70.0,0.0,90.0,1.0,0.0
1211,70.0,0.0,90.0,6.0,0.0
1212,58.0,0.0,180.0,3.0,0.0
1213,63.0,0.0,90.0,6.0,0.0
1214,58.0,96.0,180.0,8.0,0.0
1215,63.0,32.0,90.0,1.0,0.0
1216,61.0,0.0,90.0,1.0,0.0
1217,61.0,0.0,90.0,6.0,0.0
1218,66.0,0.0,180.0,2.0,0.0
1219,61.0,0.0,90.0,1.0,0.0
1220,59.0,0.0,180.0,3.0,0.0
1221,56.0,4.0,180.0,5.0,0.0
1222,56.0,0.0,180.0,0.0,0.0
1223,61.0,92.0,90.0,6.0,0.0
1224,66.0,0.0,180.0,7.0,0.0
1225,59.0,0.0,90.0,1.0,0.0
1226,56.0,0.0,15.0,4.0,0.0
1227,59.0,0.0,180.0,1.0,0.0
1228,59.0,0.0,15.0,8.0,0.0
1229,56.0,0.0,15.0,8.0,0.0
1230,56.0,60.0,330.0,5.0,0.0
1231,59.0,96.0,15.0,6.0,0.0
1232,68.0,0.0,90.0,2.0,0.0
1233,59.0,0.0,180.0,3.0,0.0
1234,68.0,96.0,90.0,7.0,0.0
1235,53.0,96.0,180.0,0.0,0.0
1236,70.0,0.0,90.0,2.0,0.0
1237,70.0,0.0,90.0,7.0,0.0
1238,58.0,0.0,180.0,8.0,0.0
1239,59.0,0.0,15.0,6.0,0.0
1240,58.0,0.0,180.0,3.0,0.0
1241,54.0,4.0,180.0,0.0,0.0
1242,59.0,0.0,90.0,1.0,0.0
1243,71.0,96.0,180.0,2.0,0.0
1244,71.0,0.0,180.0,7.0,0.0
1245,58.0,0.0,90.0,6.0,0.0
1246,44.0,0.0,180.0,8.0,0.0
1247,44.0,0.0,180.0,5.0,0.0
1248,58.0,0.0,15.0,1.0,0.0
1249,56.0,0.0,180.0,3.0,0.0
1250,44.0,0.0,180.0,4.0,0.0
1251,56.0,4.0,180.0,0.0,0.0
1252,65.0,0.0,180.0,7.0,0.0
1253,56.0,0.0,180.0,8.0,0.0
1254,58.0,0.0,90.0,6.0,0.0
1255,65.0,0.0,180.0,2.0,0.0
1256,56.0,0.0,90.0,6.0,0.0
1257,56.0,192.0,90.0,1.0,0.0
1258,66.0,96.0,180.0,6.0,0.0
1259,58.0,0.0,180.0,7.0,0.0
1260,58.0,64.0,330.0,0.0,0.0
1261,42.0,96.0,390.0,8.0,0.0
1262,58.0,0.0,180.0,2.0,0.0
1263,42.0,0.0,390.0,4.0,0.0
1264,42.0,0.0,330.0,5.0,0.0
1265,66.0,0.0,180.0,1.0,0.0
1266,61.0,0.0,180.0,2.0,0.0
1267,61.0,0.0,180.0,7.0,0.0
1268,65.0,0.0,90.0,6.0,0.0
1269,65.0,32.0,90.0,1.0,0.0
1270,63.0,0.0,15.0,6.0,0.0
1271,63.0,0.0,15.0,1.0,0.0
1272,54.0,0.0,180.0,4.0,0.0
1273,59.0,0.0,180.0,7.0,0.0
1274,59.0,96.0,180.0,2.0,0.0
1275,54.0,4.0,180.0,5.0,0.0
1276,61.0,0.0,90.0,6.0,0.0
1277,58.0,0.0,390.0,7.0,0.0
1278,54.0,0.0,390.0,4.0,0.0
1279,54.0,0.0,15.0,8.0,0.0
1280,54.0,64.0,330.0,5.0,0.0
1281,61.0,0.0,90.0,6.0,0.0
1282,61.0,0.0,15.0,1.0,0.0
1283,58.0,0.0,390.0,2.0,0.0
1284,66.0,96.0,90.0,6.0,0.0
1285,66.0,0.0,90.0,1.0,0.0
1286,61.0,0.0,90.0,6.0,0.0
1287,61.0,32.0,90.0,1.0,0.0
1288,59.0,0.0,90.0,1.0,0.0
1289,42.0,320.0,180.0,4.0,0.0
1290,42.0,0.0,180.0,5.0,0.0
1291,56.0,0.0,180.0,7.0,0.0
1292,42.0,0.0,180.0,8.0,0.0
1293,59.0,96.0,90.0,1.0,0.0
1294,59.0,96.0,15.0,6.0,0.0
1295,56.0,0.0,180.0,2.0,0.0
1296,58.0,0.0,90.0,6.0,0.0
1297,54.0,0.0,390.0,7.0,0.0
1298,40.0,64.0,330.0,5.0,0.0
1299,54.0,0.0,390.0,2.0,0.0
1300,58.0,0.0,15.0,1.0,0.0
1301,40.0,0.0,390.0,8.0,0.0
1302,58.0,0.0,390.0,6.0,0.0
1303,40.0,0.0,390.0,4.0,0.0
1304,52.0,192.0,180.0,8.0,0.0
1305,56.0,0.0,180.0,2.0,0.0
1306,56.0,0.0,180.0,7.0,0.0
1307,52.0,4.0,180.0,5.0,0.0
1308,59.0,0.0,180.0,6.0,0.0
1309,52.0,0.0,180.0,4.0,0.0
1310,59.0,0.0,180.0,1.0,0.0
1311,58.0,128.0,180.0,7.0,0.0
1312,61.0,0.0,180.0,6.0,0.0
1313,58.0,0.0,180.0,2.0,0.0
1314,52.0,0.0,390.0,4.0,0.0
1315,52.0,0.0,390.0,8.0,0.0
1316,52.0,64.0,330.0,5.0,0.0
1317,61.0,0.0,180.0,1.0,0.0
1318,63.0,0.0,180.0,6.0,0.0
1319,63.0,0.0,180.0,1.0,0.0
1320,59.0,0.0,180.0,2.0,0.0
1321,59.0,192.0,180.0,7.0,0.0
1322,64.0,192.0,180.0,1.0,0.0
1323,61.0,0.0,390.0,2.0,0.0
1324,40.0,0.0,180.0,5.0,0.0
1325,64.0,0.0,180.0,6.0,0.0
1326,40.0,0.0,180.0,8.0,0.0
1327,40.0,0.0,180.0,4.0,0.0
1328,61.0,128.0,390.0,7.0,0.0
1329,39.0,188.0,390.0,8.0,0.0
1330,39.0,64.0,330.0,5.0,0.0
1331,39.0,0.0,390.0,4.0,0.0
1332,66.0,0.0,660.0,1.0,0.0
1333,66.0,96.0,660.0,6.0,0.0
1334,59.0,0.0,180.0,2.0,0.0
1335,59.0,0.0,180.0,7.0,0.0
1336,51.0,4.0,180.0,5.0,0.0
1337,58.0,0.0,180.0,7.0,0.0
1338,58.0,96.0,180.0,2.0,0.0
1339,47.0,0.0,180.0,0.0,0.0
1340,51.0,0.0,15.0,4.0,0.0
1341,51.0,0.0,15.0,8.0,0.0
1342,59.0,0.0,180.0,7.0,0.0
1343,51.0,60.0,330.0,5.0,0.0
1344,59.0,0.0,180.0,2.0,0.0
1345,61.0,96.0,90.0,1.0,0.0
1346,46.0,4.0,180.0,0.0,0.0
1347,54.0,0.0,180.0,2.0,0.0
1348,61.0,0.0,15.0,6.0,0.0
1349,54.0,0.0,180.0,7.0,0.0
1350,61.0,32.0,90.0,1.0,0.0
1351,59.0,0.0,15.0,1.0,0.0
1352,56.0,0.0,180.0,7.0,0.0
1353,39.0,0.0,180.0,4.0,0.0
1354,47.0,4.0,180.0,0.0,0.0
1355,56.0,0.0,180.0,2.0,0.0
1356,39.0,0.0,180.0,8.0,0.0
1357,59.0,96.0,15.0,6.0,0.0
1358,39.0,0.0,180.0,5.0,0.0
1359,58.0,0.0,90.0,6.0,0.0
1360,58.0,0.0,390.0,7.0,0.0
1361,37.0,0.0,390.0,8.0,0.0
1362,58.0,0.0,390.0,2.0,0.0
1363,58.0,0.0,90.0,6.0,0.0
1364,37.0,0.0,390.0,4.0,0.0
1365,52.0,0.0,330.0,0.0,0.0
1366,37.0,64.0,330.0,5.0,0.0
1367,58.0,96.0,15.0,1.0,0.0
1368,64.0,96.0,90.0,6.0,0.0
1369,64.0,0.0,90.0,1.0,0.0
1370,58.0,0.0,90.0,6.0,0.0
1371,58.0,32.0,90.0,1.0,0.0
1372,56.0,0.0,15.0,6.0,0.0
1373,56.0,96.0,15.0,1.0,0.0
1374,59.0,0.0,180.0,7.0,0.0
1375,49.0,0.0,180.0,5.0,0.0
1376,49.0,4.0,180.0,0.0,0.0
1377,49.0,0.0,180.0,8.0,0.0
1378,59.0,0.0,180.0,2.0,0.0
1379,54.0,0.0,15.0,6.0,0.0
1380,49.0,0.0,390.0,8.0,0.0
1381,61.0,96.0,90.0,7.0,0.0
1382,49.0,0.0,15.0,4.0,0.0
1383,61.0,0.0,90.0,2.0,0.0
1384,49.0,60.0,330.0,5.0,0.0
1385,46.0,0.0,180.0,0.0,0.0
1386,54.0,96.0,15.0,1.0,0.0
1387,61.0,96.0,90.0,6.0,0.0
1388,63.0,0.0,90.0,2.0,0.0
1389,61.0,0.0,90.0,1.0,0.0
1390,63.0,0.0,90.0,7.0,0.0
1391,65.0,0.0,180.0,7.0,0.0
1392,65.0,0.0,180.0,2.0,0.0
1393,47.0,4.0,180.0,0.0,0.0
1394,54.0,0.0,90.0,1.0,0.0
1395,54.0,32.0,90.0,6.0,0.0
1396,52.0,0.0,90.0,1.0,0.0
1397,52.0,0.0,15.0,6.0,0.0
1398,49.0,4.0,180.0,0.0,0.0
1399,37.0,0.0,180.0,8.0,0.0
1400,37.0,0.0,180.0,5.0,0.0
1401,52.0,0.0,90.0,1.0,0.0
1402,37.0,0.0,180.0,4.0,0.0
1403,58.0,0.0,180.0,7.0,0.0
1404,58.0,0.0,180.0,2.0,0.0
1405,51.0,0.0,90.0,1.0,0.0
1406,51.0,320.0,90.0,6.0,0.0
1407,51.0,0.0,780.0,2.0,0.0
1408,35.0,192.0,390.0,8.0,0.0
1409,51.0,4.0,750.0,0.0,0.0
1410,35.0,64.0,330.0,5.0,0.0
1411,51.0,0.0,780.0,7.0,0.0
1412,35.0,0.0,390.0,4.0,0.0
1413,59.0,0.0,780.0,6.0,0.0
1414,59.0,128.0,780.0,1.0,0.0
1415,47.0,188.0,180.0,5.0,0.0
1416,47.0,0.0,180.0,4.0,0.0
1417,47.0,0.0,180.0,8.0,0.0
1418,46.0,0.0,390.0,8.0,0.0
1419,46.0,0.0,390.0,4.0,0.0
1420,46.0,60.0,330.0,5.0,0.0
1421,63.0,0.0,180.0,6.0,0.0
1422,63.0,0.0,180.0,2.0,0.0
1423,51.0,4.0,180.0,0.0,0.0
1424,63.0,188.0,180.0,1.0,0.0
1425,63.0,0.0,180.0,7.0,0.0
1426,61.0,0.0,180.0,2.0,0.0
1427,64.0,0.0,180.0,1.0,0.0
1428,64.0,0.0,180.0,6.0,0.0
1429,34.0,0.0,180.0,8.0,0.0
1430,34.0,0.0,180.0,5.0,0.0
1431,34.0,192.0,180.0,4.0,0.0
1432,52.0,4.0,180.0,0.0,0.0
1433,61.0,0.0,180.0,7.0,0.0
1434,32.0,0.0,390.0,8.0,0.0
1435,63.0,0.0,390.0,2.0,0.0
1436,59.0,188.0,390.0,2.0,0.0
1437,70.0,0.0,180.0,1.0,0.0
1438,32.0,60.0,330.0,5.0,0.0
1439,63.0,0.0,390.0,7.0,0.0
1440,59.0,0.0,390.0,7.0,0.0
1441,32.0,0.0,390.0,4.0,0.0
1442,58.0,0.0,180.0,0.0,0.0
1443,70.0,128.0,180.0,6.0,0.0
1444,71.0,0.0,180.0,1.0,0.0
1445,71.0,0.0,180.0,6.0,0.0
1446,59.0,4.0,180.0,0.0,0.0
1447,64.0,0.0,390.0,6.0,0.0
1448,61.0,128.0,180.0,7.0,0.0
1449,56.0,4.0,180.0,5.0,0.0
1450,52.0,64.0,330.0,0.0,0.0
1451,61.0,0.0,180.0,2.0,0.0
1452,64.0,128.0,390.0,1.0,0.0
1453,56.0,0.0,15.0,4.0,0.0
1454,56.0,0.0,15.0,8.0,0.0
1455,56.0,60.0,330.0,5.0,0.0
1456,59.0,0.0,180.0,7.0,0.0
1457,59.0,0.0,180.0,2.0,0.0
1458,70.0,0.0,180.0,2.0,0.0
1459,61.0,0.0,180.0,6.0,0.0
1460,49.0,4.0,180.0,0.0,0.0
1461,70.0,0.0,180.0,7.0,0.0
1462,61.0,188.0,180.0,1.0,0.0
1463,71.0,0.0,180.0,2.0,0.0
1464,63.0,0.0,180.0,6.0,0.0
1465,44.0,0.0,180.0,4.0,0.0
1466,44.0,0.0,180.0,5.0,0.0
1467,44.0,192.0,180.0,8.0,0.0
1468,51.0,4.0,180.0,0.0,0.0
1469,71.0,0.0,180.0,7.0,0.0
1470,63.0,0.0,180.0,1.0,0.0
1471,63.0,128.0,780.0,2.0,0.0
1472,70.0,128.0,180.0,6.0,0.0
1473,63.0,0.0,780.0,7.0,0.0
1474,42.0,60.0,330.0,5.0,0.0
1475,70.0,0.0,180.0,1.0,0.0
1476,42.0,188.0,390.0,8.0,0.0
1477,42.0,0.0,390.0,4.0,0.0
1478,58.0,0.0,180.0,0.0,0.0
1479,59.0,4.0,180.0,0.0,0.0
1480,71.0,0.0,180.0,1.0,0.0
1481,71.0,0.0,180.0,6.0,0.0
1482,63.0,128.0,180.0,6.0,0.0
1483,54.0,0.0,180.0,4.0,0.0
1484,54.0,0.0,180.0,8.0,0.0
1485,54.0,4.0,180.0,5.0,0.0
1486,51.0,64.0,330.0,0.0,0.0
1487,54.0,60.0,330.0,5.0,0.0
1488,54.0,0.0,390.0,4.0,0.0
1489,63.0,0.0,15.0,1.0,0.0
1490,54.0,0.0,390.0,8.0,0.0
1491,63.0,0.0,180.0,6.0,0.0
1492,59.0,0.0,180.0,7.0,0.0
1493,47.0,4.0,180.0,0.0,0.0
1494,66.0,188.0,180.0,6.0,0.0
1495,66.0,0.0,180.0,1.0,0.0
1496,59.0,0.0,180.0,2.0,0.0
1497,70.0,0.0,180.0,1.0,0.0
1498,61.0,0.0,180.0,2.0,0.0
1499,61.0,192.0,180.0,7.0,0.0
1500,70.0,0.0,180.0,6.0,0.0
1501,42.0,0.0,180.0,4.0,0.0
1502,42.0,0.0,180.0,8.0,0.0
1503,49.0,4.0,180.0,0.0,0.0
1504,42.0,0.0,180.0,5.0,0.0
1505,40.0,0.0,390.0,8.0,0.0
1506,40.0,60.0,330.0,5.0,0.0
1507,70.0,0.0,180.0,2.0,0.0
1508,73.0,0.0,390.0,6.0,0.0
1509,73.0,0.0,390.0,1.0,0.0
1510,70.0,128.0,180.0,7.0,0.0
1511,58.0,0.0,180.0,0.0,0.0
1512,40.0,192.0,390.0,4.0,0.0
1513,71.0,0.0,180.0,2.0,0.0
1514,59.0,4.0,180.0,0.0,0.0
1515,71.0,0.0,180.0,7.0,0.0
1516,70.0,0.0,180.0,1.0,0.0
1517,70.0,0.0,180.0,6.0,0.0
1518,42.0,0.0,180.0,8.0,0.0
1519,49.0,64.0,330.0,0.0,0.0
1520,61.0,128.0,390.0,2.0,0.0
1521,42.0,0.0,180.0,4.0,0.0
1522,42.0,128.0,180.0,5.0,0.0
1523,61.0,0.0,390.0,7.0,0.0
1524,44.0,0.0,390.0,8.0,0.0
1525,44.0,0.0,390.0,4.0,0.0
1526,71.0,0.0,390.0,6.0,0.0
1527,71.0,0.0,390.0,1.0,0.0
1528,44.0,60.0,330.0,5.0,0.0
1529,47.0,4.0,180.0,0.0,0.0
1530,59.0,188.0,180.0,7.0,0.0
1531,59.0,0.0,180.0,2.0,0.0
1532,64.0,0.0,180.0,1.0,0.0
1533,40.0,0.0,180.0,4.0,0.0
1534,52.0,4.0,180.0,0.0,0.0
1535,56.0,0.0,180.0,2.0,0.0
1536,64.0,0.0,180.0,6.0,0.0
1537,40.0,48.0,180.0,5.0,0.0
1538,56.0,0.0,180.0,7.0,0.0
1539,59.0,0.0,180.0,2.0,0.0
1540,40.0,0.0,180.0,8.0,0.0
1541,59.0,0.0,180.0,7.0,0.0
1542,42.0,0.0,390.0,4.0,0.0
1543,61.0,0.0,40.0,2.0,0.0
1544,65.0,48.0,40.0,1.0,0.0
1545,42.0,0.0,390.0,8.0,0.0
1546,54.0,0.0,570.0,3.0,0.0
1547,51.0,0.0,390.0,0.0,0.0
1548,61.0,0.0,40.0,7.0,0.0
1549,42.0,64.0,330.0,5.0,0.0
1550,65.0,0.0,40.0,6.0,0.0
1551,59.0,0.0,40.0,7.0,0.0
1552,63.0,0.0,40.0,6.0,0.0
1553,59.0,0.0,40.0,2.0,0.0
1554,63.0,48.0,40.0,1.0,0.0
1555,61.0,48.0,40.0,7.0,0.0
1556,61.0,0.0,40.0,2.0,0.0
1557,65.0,0.0,40.0,6.0,0.0
1558,65.0,0.0,40.0,1.0,0.0
1559,59.0,0.0,40.0,2.0,0.0
1560,63.0,0.0,40.0,1.0,0.0
1561,63.0,0.0,40.0,6.0,0.0
1562,59.0,48.0,40.0,7.0,0.0
1563,65.0,0.0,40.0,6.0,0.0
1564,65.0,0.0,40.0,1.0,0.0
1565,61.0,0.0,40.0,2.0,0.0
1566,61.0,80.0,40.0,7.0,0.0
1567,59.0,192.0,150.0,2.0,0.0
1568,59.0,0.0,150.0,7.0,0.0
1569,63.0,0.0,150.0,1.0,0.0
1570,63.0,0.0,150.0,6.0,0.0
1571,54.0,0.0,180.0,4.0,0.0
1572,58.0,96.0,180.0,7.0,0.0
1573,49.0,96.0,390.0,0.0,0.0
1574,54.0,0.0,180.0,5.0,0.0
1575,61.0,0.0,180.0,1.0,0.0
1576,54.0,0.0,180.0,8.0,0.0
1577,61.0,0.0,180.0,6.0,0.0
1578,58.0,0.0,180.0,2.0,0.0
1579,61.0,0.0,390.0,2.0,0.0
1580,52.0,64.0,330.0,5.0,0.0
1581,52.0,0.0,390.0,4.0,0.0
1582,70.0,96.0,90.0,6.0,0.0
1583,61.0,0.0,390.0,7.0,0.0
1584,52.0,0.0,390.0,8.0,0.0
1585,70.0,0.0,90.0,1.0,0.0
1586,71.0,0.0,90.0,1.0,0.0
1587,71.0,0.0,90.0,6.0,0.0
1588,73.0,0.0,90.0,1.0,0.0
1589,46.0,0.0,180.0,0.0,0.0
1590,73.0,32.0,90.0,6.0,0.0
1591,40.0,96.0,180.0,4.0,0.0
1592,40.0,0.0,180.0,5.0,0.0
1593,70.0,0.0,15.0,6.0,0.0
1594,64.0,0.0,180.0,2.0,0.0
1595,47.0,0.0,180.0,0.0,0.0
1596,70.0,96.0,15.0,1.0,0.0
1597,64.0,0.0,180.0,7.0,0.0
1598,40.0,0.0,180.0,8.0,0.0
1599,58.0,0.0,390.0,7.0,0.0
1600,58.0,0.0,390.0,2.0,0.0
1601,68.0,0.0,15.0,1.0,0.0
1602,68.0,0.0,15.0,6.0,0.0
1603,49.0,0.0,180.0,0.0,0.0
1604,39.0,0.0,390.0,4.0,0.0
1605,39.0,0.0,390.0,8.0,0.0
1606,39.0,64.0,330.0,5.0,0.0
1607,67.0,96.0,90.0,1.0,0.0
1608,67.0,0.0,90.0,6.0,0.0
1609,51.0,0.0,180.0,0.0,0.0
1610,67.0,0.0,90.0,6.0,0.0
1611,67.0,32.0,90.0,1.0,0.0
1612,68.0,0.0,90.0,6.0,0.0
1613,68.0,96.0,90.0,1.0,0.0
1614,51.0,0.0,180.0,8.0,0.0
1615,51.0,4.0,180.0,5.0,0.0
1616,58.0,0.0,180.0,2.0,0.0
1617,70.0,0.0,90.0,1.0,0.0
1618,70.0,92.0,90.0,6.0,0.0
1619,58.0,0.0,180.0,7.0,0.0
1620,52.0,96.0,390.0,0.0,0.0
1621,67.0,0.0,90.0,1.0,0.0
1622,67.0,0.0,90.0,6.0,0.0
1623,51.0,0.0,390.0,8.0,0.0
1624,55.0,0.0,390.0,8.0,0.0
1625,51.0,64.0,330.0,5.0,0.0
1626,55.0,0.0,390.0,3.0,0.0
1627,61.0,96.0,90.0,6.0,0.0
1628,61.0,0.0,90.0,1.0,0.0
1629,51.0,96.0,15.0,4.0,0.0
1630,63.0,0.0,90.0,1.0,0.0
1631,63.0,0.0,90.0,6.0,0.0
1632,65.0,0.0,90.0,1.0,0.0
1633,43.0,0.0,180.0,0.0,0.0
1634,65.0,32.0,90.0,6.0,0.0
1635,63.0,0.0,90.0,6.0,0.0
1636,63.0,96.0,90.0,1.0,0.0
1637,63.0,0.0,90.0,6.0,0.0
1638,46.0,0.0,180.0,0.0,0.0
1639,39.0,0.0,180.0,5.0,0.0
1640,39.0,0.0,180.0,4.0,0.0
1641,39.0,96.0,180.0,8.0,0.0
1642,55.0,0.0,180.0,8.0,0.0
1643,55.0,0.0,180.0,3.0,0.0
1644,58.0,0.0,15.0,2.0,0.0
1645,58.0,0.0,15.0,7.0,0.0
1646,63.0,96.0,90.0,1.0,0.0
1647,61.0,0.0,90.0,1.0,0.0
1648,61.0,0.0,90.0,6.0,0.0
1649,59.0,0.0,90.0,1.0,0.0
1650,56.0,0.0,390.0,2.0,0.0
1651,44.0,0.0,390.0,8.0,0.0
1652,44.0,0.0,390.0,4.0,0.0
1653,47.0,96.0,780.0,0.0,0.0
1654,44.0,64.0,330.0,5.0,0.0
1655,59.0,96.0,90.0,6.0,0.0
1656,56.0,96.0,390.0,7.0,0.0
1657,61.0,0.0,90.0,1.0,0.0
1658,61.0,96.0,90.0,6.0,0.0
1659,63.0,0.0,90.0,1.0,0.0
1660,63.0,32.0,90.0,6.0,0.0
1661,67.0,0.0,90.0,6.0,0.0
1662,61.0,0.0,180.0,7.0,0.0
1663,67.0,0.0,15.0,1.0,0.0
1664,56.0,4.0,180.0,5.0,0.0
1665,58.0,0.0,180.0,8.0,0.0
1666,61.0,0.0,180.0,2.0,0.0
1667,58.0,0.0,180.0,3.0,0.0
1668,67.0,92.0,90.0,6.0,0.0
1669,63.0,0.0,570.0,2.0,0.0
1670,68.0,0.0,15.0,1.0,0.0
1671,59.0,0.0,570.0,3.0,0.0
1672,63.0,96.0,570.0,7.0,0.0
1673,68.0,96.0,15.0,6.0,0.0
1674,56.0,0.0,15.0,4.0,0.0
1675,59.0,0.0,570.0,8.0,0.0
1676,56.0,0.0,15.0,8.0,0.0
1677,56.0,64.0,330.0,5.0,0.0
1678,70.0,0.0,90.0,1.0,0.0
1679,70.0,0.0,90.0,6.0,0.0
1680,71.0,32.0,90.0,6.0,0.0
1681,71.0,0.0,90.0,1.0,0.0
1682,44.0,0.0,180.0,0.0,0.0
1683,68.0,0.0,90.0,1.0,0.0
1684,68.0,0.0,90.0,6.0,0.0
1685,44.0,0.0,180.0,8.0,0.0
1686,44.0,0.0,180.0,4.0,0.0
1687,68.0,96.0,90.0,1.0,0.0
1688,68.0,0.0,90.0,6.0,0.0
1689,44.0,0.0,180.0,5.0,0.0
1690,46.0,0.0,180.0,0.0,0.0
1691,66.0,0.0,90.0,6.0,0.0
1692,66.0,0.0,90.0,1.0,0.0
1693,37.0,0.0,390.0,8.0,0.0
1694,56.0,0.0,390.0,8.0,0.0
1695,47.0,0.0,780.0,0.0,0.0
1696,66.0,96.0,90.0,1.0,0.0
1697,37.0,64.0,330.0,5.0,0.0
1698,61.0,0.0,390.0,2.0,0.0
1699,37.0,0.0,390.0,4.0,0.0
1700,66.0,0.0,90.0,6.0,0.0
1701,56.0,0.0,390.0,3.0,0.0
1702,65.0,0.0,90.0,6.0,0.0
1703,65.0,96.0,15.0,1.0,0.0
1704,65.0,32.0,90.0,6.0,0.0
1705,66.0,0.0,90.0,1.0,0.0
1706,66.0,0.0,90.0,6.0,0.0
1707,68.0,92.0,90.0,6.0,0.0
1708,68.0,0.0,90.0,1.0,0.0
1709,49.0,4.0,180.0,5.0,0.0
1710,56.0,0.0,180.0,3.0,0.0
1711,56.0,96.0,180.0,8.0,0.0
1712,61.0,0.0,180.0,2.0,0.0
1713,49.0,0.0,180.0,4.0,0.0
1714,61.0,96.0,15.0,7.0,0.0
1715,65.0,0.0,90.0,1.0,0.0
1716,65.0,0.0,90.0,6.0,0.0
1717,49.0,64.0,330.0,5.0,0.0
1718,53.0,0.0,570.0,8.0,0.0
1719,59.0,96.0,90.0,6.0,0.0
1720,59.0,0.0,90.0,1.0,0.0
1721,56.0,0.0,570.0,2.0,0.0
1722,49.0,0.0,15.0,8.0,0.0
1723,53.0,96.0,570.0,3.0,0.0
1724,56.0,0.0,570.0,7.0,0.0
1725,49.0,0.0,390.0,4.0,0.0
1726,61.0,96.0,90.0,1.0,0.0
1727,61.0,0.0,90.0,6.0,0.0
1728,41.0,0.0,180.0,0.0,0.0
1729,63.0,0.0,90.0,6.0,0.0
1730,63.0,32.0,90.0,1.0,0.0
1731,37.0,4.0,180.0,5.0,0.0
1732,61.0,0.0,15.0,6.0,0.0
1733,61.0,96.0,15.0,1.0,0.0
1734,37.0,0.0,180.0,8.0,0.0
1735,44.0,0.0,180.0,0.0,0.0
1736,37.0,0.0,180.0,4.0,0.0
1737,59.0,0.0,90.0,1.0,0.0
1738,59.0,0.0,90.0,6.0,0.0
1739,58.0,96.0,90.0,1.0,0.0
1740,42.0,0.0,180.0,8.0,0.0
1741,42.0,0.0,180.0,4.0,0.0
1742,46.0,0.0,180.0,0.0,0.0
1743,42.0,96.0,180.0,5.0,0.0
1744,54.0,0.0,1740.0,8.0,0.0
1745,58.0,0.0,90.0,6.0,0.0
1746,59.0,0.0,90.0,6.0,0.0
1747,59.0,0.0,90.0,1.0,0.0
1748,44.0,0.0,180.0,4.0,0.0
1749,44.0,0.0,180.0,0.0,0.0
1750,44.0,4.0,180.0,5.0,0.0
1751,44.0,0.0,180.0,8.0,0.0
1752,61.0,0.0,90.0,1.0,0.0
1753,61.0,92.0,90.0,6.0,0.0
1754,65.0,0.0,90.0,1.0,0.0
1755,46.0,0.0,180.0,8.0,0.0
1756,42.0,4.0,180.0,0.0,0.0
1757,46.0,0.0,180.0,4.0,0.0
1758,65.0,0.0,90.0,1.0,0.0
1759,65.0,96.0,15.0,6.0,0.0
1760,61.0,0.0,180.0,2.0,0.0
1761,61.0,0.0,180.0,7.0,0.0
1762,46.0,0.0,180.0,5.0,0.0
1763,66.0,0.0,90.0,6.0,0.0
1764,59.0,0.0,180.0,2.0,0.0
1765,51.0,0.0,180.0,0.0,0.0
1766,47.0,0.0,180.0,5.0,0.0
1767,47.0,0.0,180.0,4.0,0.0
1768,59.0,0.0,180.0,7.0,0.0
1769,66.0,96.0,90.0,6.0,0.0
1770,66.0,96.0,15.0,1.0,0.0
1771,47.0,0.0,180.0,8.0,0.0
1772,64.0,0.0,90.0,1.0,0.0
1773,49.0,96.0,180.0,8.0,0.0
1774,58.0,0.0,180.0,2.0,0.0
1775,52.0,4.0,180.0,0.0,0.0
1776,58.0,0.0,180.0,7.0,0.0
1777,49.0,0.0,180.0,4.0,0.0
1778,64.0,92.0,90.0,1.0,0.0
1779,49.0,0.0,180.0,5.0,0.0
1780,64.0,96.0,15.0,6.0,0.0
1781,63.0,0.0,90.0,1.0,0.0
1782,47.0,0.0,180.0,5.0,0.0
1783,63.0,0.0,15.0,6.0,0.0
1784,59.0,0.0,180.0,7.0,0.0
1785,47.0,96.0,180.0,4.0,0.0
1786,63.0,92.0,90.0,1.0,0.0
1787,51.0,4.0,180.0,0.0,0.0
1788,59.0,0.0,180.0,2.0,0.0
1789,47.0,0.0,180.0,8.0,0.0
1790,61.0,0.0,90.0,6.0,0.0
1791,61.0,0.0,90.0,1.0,0.0
1792,46.0,0.0,180.0,8.0,0.0
1793,46.0,0.0,180.0,5.0,0.0
1794,61.0,0.0,90.0,1.0,0.0
1795,46.0,0.0,180.0,4.0,0.0
1796,49.0,0.0,180.0,0.0,0.0
1797,61.0,96.0,90.0,6.0,0.0
1798,66.0,96.0,90.0,6.0,0.0
1799,66.0,0.0,90.0,1.0,0.0
1800,47.0,0.0,180.0,5.0,0.0
1801,47.0,96.0,180.0,8.0,0.0
1802,63.0,0.0,90.0,1.0,0.0
1803,54.0,4.0,180.0,0.0,0.0
1804,47.0,0.0,180.0,4.0,0.0
1805,63.0,92.0,90.0,6.0,0.0
1806,61.0,0.0,90.0,6.0,0.0
1807,61.0,0.0,90.0,1.0,0.0
1808,46.0,4.0,180.0,5.0,0.0
1809,46.0,96.0,180.0,4.0,0.0
1810,61.0,92.0,90.0,1.0,0.0
1811,61.0,0.0,90.0,6.0,0.0
1812,46.0,0.0,180.0,8.0,0.0
1813,42.0,0.0,180.0,0.0,0.0
1814,59.0,0.0,90.0,1.0,0.0
1815,59.0,0.0,90.0,6.0,0.0
1816,44.0,0.0,180.0,8.0,0.0
1817,59.0,96.0,90.0,6.0,0.0
1818,54.0,0.0,390.0,8.0,0.0
1819,54.0,0.0,15.0,3.0,0.0
1820,44.0,0.0,180.0,5.0,0.0
1821,44.0,0.0,180.0,0.0,0.0
1822,59.0,0.0,90.0,1.0,0.0
1823,44.0,0.0,180.0,4.0,0.0
1824,66.0,96.0,90.0,1.0,0.0
1825,66.0,0.0,90.0,6.0,0.0
1826,61.0,92.0,90.0,6.0,0.0
1827,46.0,96.0,180.0,8.0,0.0
1828,46.0,0.0,180.0,4.0,0.0
1829,46.0,4.0,180.0,5.0,0.0
1830,46.0,0.0,180.0,0.0,0.0
1831,61.0,0.0,90.0,1.0,0.0
1832,53.0,0.0,180.0,3.0,0.0
1833,59.0,0.0,15.0,6.0,0.0
1834,44.0,0.0,180.0,4.0,0.0
1835,47.0,0.0,180.0,0.0,0.0
1836,44.0,4.0,180.0,5.0,0.0
1837,59.0,0.0,15.0,1.0,0.0
1838,44.0,96.0,180.0,8.0,0.0
1839,53.0,0.0,180.0,8.0,0.0
1840,42.0,96.0,180.0,8.0,0.0
1841,42.0,0.0,180.0,5.0,0.0
1842,58.0,0.0,15.0,1.0,0.0
1843,54.0,0.0,2310.0,3.0,0.0
1844,42.0,0.0,180.0,4.0,0.0
1845,58.0,0.0,15.0,6.0,0.0
1846,54.0,96.0,2310.0,8.0,0.0
1847,46.0,4.0,180.0,0.0,0.0
1848,66.0,0.0,90.0,6.0,0.0
1849,66.0,0.0,90.0,1.0,0.0
1850,59.0,0.0,90.0,6.0,0.0
1851,39.0,0.0,180.0,5.0,0.0
1852,59.0,92.0,90.0,1.0,0.0
1853,54.0,4.0,180.0,0.0,0.0
1854,39.0,0.0,180.0,8.0,0.0
1855,39.0,96.0,180.0,4.0,0.0
1856,58.0,0.0,90.0,6.0,0.0
1857,58.0,0.0,90.0,1.0,0.0
1858,53.0,4.0,180.0,0.0,0.0
1859,58.0,0.0,90.0,1.0,0.0
1860,37.0,0.0,180.0,8.0,0.0
1861,58.0,92.0,90.0,6.0,0.0
1862,37.0,0.0,180.0,5.0,0.0
1863,37.0,0.0,180.0,4.0,0.0
1864,56.0,192.0,90.0,6.0,0.0
1865,56.0,0.0,90.0,1.0,0.0
1866,54.0,128.0,180.0,0.0,0.0
1867,36.0,188.0,390.0,4.0,0.0
1868,36.0,0.0,390.0,8.0,0.0
1869,36.0,60.0,330.0,5.0,0.0
1870,56.0,0.0,660.0,1.0,0.0
1871,56.0,96.0,660.0,6.0,0.0
1872,53.0,4.0,180.0,0.0,0.0
1873,48.0,0.0,180.0,4.0,0.0
1874,48.0,0.0,180.0,5.0,0.0
1875,54.0,4.0,180.0,0.0,0.0
1876,48.0,96.0,180.0,8.0,0.0
1877,44.0,128.0,780.0,0.0,0.0
1878,49.0,0.0,390.0,4.0,0.0
1879,49.0,0.0,390.0,8.0,0.0
1880,49.0,64.0,330.0,5.0,0.0
1881,65.0,0.0,90.0,1.0,0.0
1882,65.0,0.0,90.0,1.0,0.0
1883,65.0,96.0,15.0,6.0,0.0
1884,37.0,192.0,180.0,4.0,0.0
1885,66.0,0.0,15.0,1.0,0.0
1886,37.0,0.0,180.0,8.0,0.0
1887,66.0,96.0,15.0,6.0,0.0
1888,37.0,0.0,180.0,5.0,0.0
1889,56.0,0.0,90.0,1.0,0.0
1890,56.0,0.0,90.0,6.0,0.0
1891,39.0,188.0,390.0,8.0,0.0
1892,39.0,60.0,330.0,5.0,0.0
1893,39.0,0.0,390.0,4.0,0.0
1894,56.0,96.0,660.0,6.0,0.0
1895,56.0,0.0,660.0,1.0,0.0
1896,53.0,4.0,180.0,0.0,0.0
1897,54.0,4.0,180.0,0.0,0.0
1898,51.0,0.0,180.0,5.0,0.0
1899,51.0,0.0,180.0,4.0,0.0
1900,51.0,0.0,180.0,8.0,0.0
1901,49.0,64.0,330.0,5.0,0.0
1902,49.0,96.0,390.0,8.0,0.0
1903,49.0,0.0,390.0,4.0,0.0
1904,53.0,0.0,180.0,7.0,0.0
1905,53.0,0.0,180.0,2.0,0.0
1906,44.0,0.0,780.0,0.0,0.0
1907,65.0,0.0,90.0,1.0,0.0
1908,65.0,0.0,90.0,1.0,0.0
1909,56.0,0.0,180.0,7.0,0.0
1910,56.0,0.0,180.0,2.0,0.0
1911,65.0,96.0,15.0,6.0,0.0
1912,66.0,0.0,90.0,1.0,0.0
1913,37.0,0.0,180.0,5.0,0.0
1914,66.0,0.0,15.0,6.0,0.0
1915,58.0,0.0,180.0,2.0,0.0
1916,58.0,0.0,180.0,7.0,0.0
1917,37.0,0.0,180.0,4.0,0.0
1918,37.0,0.0,180.0,8.0,0.0
1919,66.0,96.0,90.0,1.0,0.0
1920,56.0,0.0,90.0,1.0,0.0
1921,53.0,0.0,180.0,2.0,0.0
1922,53.0,0.0,180.0,7.0,0.0
1923,35.0,0.0,180.0,4.0,0.0
1924,56.0,92.0,90.0,1.0,0.0
1925,56.0,96.0,15.0,6.0,0.0
1926,35.0,0.0,180.0,8.0,0.0
1927,35.0,4.0,180.0,5.0,0.0
1928,59.0,96.0,90.0,1.0,0.0
1929,51.0,0.0,180.0,8.0,0.0
1930,51.0,0.0,180.0,5.0,0.0
1931,54.0,0.0,180.0,2.0,0.0
1932,54.0,0.0,180.0,7.0,0.0
1933,51.0,96.0,180.0,4.0,0.0
1934,47.0,0.0,180.0,0.0,0.0
1935,59.0,0.0,15.0,6.0,0.0
1936,59.0,0.0,90.0,1.0,0.0
1937,58.0,0.0,90.0,6.0,0.0
1938,49.0,4.0,180.0,5.0,0.0
1939,58.0,0.0,15.0,1.0,0.0
1940,58.0,0.0,180.0,7.0,0.0
1941,49.0,0.0,180.0,4.0,0.0
1942,49.0,0.0,180.0,8.0,0.0
1943,58.0,92.0,90.0,6.0,0.0
1944,58.0,0.0,180.0,2.0,0.0
1945,46.0,0.0,180.0,0.0,0.0
1946,63.0,96.0,90.0,1.0,0.0
1947,63.0,0.0,90.0,6.0,0.0
1948,47.0,0.0,180.0,8.0,0.0
1949,63.0,96.0,90.0,6.0,0.0
1950,47.0,0.0,180.0,4.0,0.0
1951,54.0,0.0,570.0,3.0,0.0
1952,59.0,0.0,180.0,7.0,0.0
1953,51.0,96.0,180.0,0.0,0.0
1954,59.0,0.0,180.0,2.0,0.0
1955,63.0,0.0,90.0,1.0,0.0
1956,47.0,0.0,180.0,5.0,0.0
1957,54.0,0.0,570.0,8.0,0.0
1958,61.0,0.0,90.0,6.0,0.0
1959,61.0,0.0,90.0,1.0,0.0
1960,46.0,0.0,180.0,8.0,0.0
1961,61.0,96.0,180.0,7.0,0.0
1962,49.0,0.0,180.0,0.0,0.0
1963,61.0,0.0,90.0,6.0,0.0
1964,61.0,0.0,180.0,2.0,0.0
1965,46.0,4.0,180.0,5.0,0.0
1966,46.0,0.0,180.0,4.0,0.0
1967,61.0,92.0,90.0,1.0,0.0
1968,65.0,0.0,90.0,6.0,0.0
1969,51.0,0.0,180.0,4.0,0.0
1970,54.0,0.0,180.0,2.0,0.0
1971,51.0,4.0,180.0,5.0,0.0
1972,65.0,0.0,15.0,1.0,0.0
1973,65.0,0.0,90.0,6.0,0.0
1974,47.0,0.0,390.0,0.0,0.0
1975,66.0,0.0,90.0,1.0,0.0
1976,66.0,0.0,90.0,6.0,0.0
1977,47.0,48.0,180.0,4.0,0.0
1978,59.0,0.0,180.0,1.0,0.0
1979,54.0,0.0,180.0,2.0,0.0
1980,59.0,0.0,180.0,6.0,0.0
1981,54.0,0.0,15.0,7.0,0.0
1982,51.0,192.0,15.0,8.0,0.0
1983,47.0,0.0,180.0,5.0,0.0
1984,51.0,0.0,180.0,3.0,0.0
1985,47.0,0.0,180.0,8.0,0.0
1986,53.0,0.0,390.0,7.0,0.0
1987,49.0,0.0,180.0,3.0,0.0
1988,49.0,0.0,180.0,4.0,0.0
1989,56.0,512.0,390.0,6.0,0.0
1990,49.0,0.0,180.0,8.0,0.0
1991,53.0,0.0,390.0,2.0,0.0
1992,46.0,48.0,40.0,0.0,0.0
1993,56.0,0.0,390.0,1.0,0.0
1994,49.0,4.0,180.0,5.0,0.0
1995,44.0,48.0,40.0,0.0,0.0
1996,46.0,44.0,40.0,0.0,0.0
1997,44.0,0.0,40.0,0.0,0.0
1998,47.0,0.0,180.0,3.0,0.0
1999,46.0,140.0,40.0,0.0,0.0
2000,37.0,0.0,180.0,8.0,0.0
2001,47.0,0.0,180.0,8.0,0.0
2002,37.0,4.0,180.0,5.0,0.0
2003,37.0,0.0,180.0,4.0,0.0
2004,44.0,0.0,150.0,0.0,0.0
2005,54.0,0.0,2700.0,8.0,0.0
2006,42.0,0.0,570.0,8.0,0.0
2007,42.0,64.0,510.0,5.0,0.0
2008,42.0,132.0,750.0,0.0,0.0
2009,42.0,188.0,570.0,4.0,0.0
2010,61.0,0.0,570.0,6.0,0.0
2011,52.0,0.0,390.0,4.0,0.0
2012,61.0,0.0,570.0,1.0,0.0
2013,52.0,188.0,390.0,8.0,0.0
2014,58.0,192.0,570.0,7.0,0.0
2015,52.0,60.0,330.0,5.0,0.0
2016,58.0,0.0,570.0,2.0,0.0
2017,44.0,4.0,180.0,0.0,0.0
2018,40.0,0.0,180.0,8.0,0.0
2019,46.0,4.0,180.0,0.0,0.0
2020,40.0,0.0,180.0,4.0,0.0
2021,40.0,0.0,180.0,5.0,0.0
2022,59.0,0.0,570.0,1.0,0.0
2023,59.0,192.0,570.0,7.0,0.0
2024,39.0,0.0,390.0,8.0,0.0
2025,59.0,0.0,570.0,6.0,0.0
2026,39.0,188.0,390.0,4.0,0.0
2027,47.0,128.0,180.0,0.0,0.0
2028,59.0,0.0,570.0,2.0,0.0
2029,39.0,60.0,330.0,5.0,0.0
2030,49.0,4.0,180.0,0.0,0.0
2031,51.0,4.0,180.0,0.0,0.0
2032,51.0,0.0,180.0,4.0,0.0
2033,51.0,0.0,180.0,5.0,0.0
2034,51.0,0.0,180.0,8.0,0.0
2035,49.0,60.0,330.0,5.0,0.0
2036,52.0,128.0,180.0,0.0,0.0
2037,49.0,188.0,390.0,4.0,0.0
2038,64.0,0.0,570.0,6.0,0.0
2039,49.0,0.0,390.0,8.0,0.0
2040,58.0,0.0,570.0,2.0,0.0
2041,58.0,0.0,570.0,7.0,0.0
2042,64.0,0.0,570.0,1.0,0.0
2043,51.0,4.0,180.0,0.0,0.0
2044,37.0,0.0,180.0,8.0,0.0
2045,37.0,0.0,180.0,5.0,0.0
2046,52.0,4.0,180.0,0.0,0.0
2047,37.0,188.0,180.0,4.0,0.0
2048,35.0,64.0,330.0,5.0,0.0
2049,59.0,0.0,390.0,7.0,0.0
2050,35.0,0.0,390.0,4.0,0.0
2051,51.0,132.0,180.0,0.0,0.0
2052,63.0,192.0,390.0,6.0,0.0
2053,35.0,0.0,390.0,8.0,0.0
2054,63.0,0.0,390.0,1.0,0.0
2055,59.0,0.0,390.0,2.0,0.0
2056,56.0,4.0,570.0,0.0,0.0
2057,47.0,0.0,180.0,5.0,0.0
2058,63.0,0.0,180.0,7.0,0.0
2059,47.0,0.0,180.0,4.0,0.0
2060,54.0,0.0,15.0,3.0,0.0
2061,63.0,0.0,180.0,2.0,0.0
2062,68.0,0.0,180.0,1.0,0.0
2063,47.0,0.0,180.0,8.0,0.0
2064,54.0,0.0,180.0,8.0,0.0
2065,46.0,192.0,390.0,4.0,0.0
2066,46.0,60.0,330.0,5.0,0.0
2067,68.0,0.0,15.0,6.0,0.0
2068,61.0,0.0,180.0,7.0,0.0
2069,61.0,0.0,180.0,2.0,0.0
2070,46.0,0.0,390.0,8.0,0.0
2071,68.0,0.0,180.0,1.0,0.0
2072,53.0,4.0,180.0,0.0,0.0
2073,34.0,0.0,180.0,5.0,0.0
2074,66.0,0.0,180.0,6.0,0.0
2075,34.0,0.0,180.0,8.0,0.0
2076,54.0,64.0,330.0,0.0,0.0
2077,61.0,128.0,180.0,7.0,0.0
2078,61.0,0.0,180.0,2.0,0.0
2079,34.0,0.0,180.0,4.0,0.0
2080,32.0,192.0,390.0,4.0,0.0
2081,32.0,0.0,390.0,8.0,0.0
2082,32.0,60.0,330.0,5.0,0.0
2083,59.0,0.0,180.0,2.0,0.0
2084,66.0,0.0,15.0,1.0,0.0
2085,66.0,128.0,180.0,6.0,0.0
2086,59.0,0.0,180.0,7.0,0.0
2087,51.0,4.0,180.0,0.0,0.0
2088,44.0,0.0,180.0,4.0,0.0
2089,59.0,0.0,180.0,2.0,0.0
2090,44.0,0.0,180.0,8.0,0.0
2091,47.0,0.0,390.0,0.0,0.0
2092,44.0,0.0,180.0,5.0,0.0
2093,65.0,0.0,180.0,1.0,0.0
2094,65.0,0.0,180.0,6.0,0.0
2095,42.0,0.0,390.0,4.0,0.0
2096,42.0,60.0,330.0,5.0,0.0
2097,59.0,0.0,180.0,2.0,0.0
2098,59.0,192.0,15.0,7.0,0.0
2099,63.0,0.0,180.0,6.0,0.0
2100,63.0,0.0,180.0,1.0,0.0
2101,42.0,188.0,390.0,8.0,0.0
2102,46.0,4.0,180.0,0.0,0.0
2103,53.0,192.0,180.0,3.0,0.0
2104,47.0,4.0,180.0,0.0,0.0
2105,39.0,0.0,180.0,5.0,0.0
2106,39.0,0.0,180.0,4.0,0.0
2107,59.0,0.0,180.0,2.0,0.0
2108,63.0,0.0,180.0,1.0,0.0
2109,63.0,0.0,180.0,6.0,0.0
2110,39.0,0.0,180.0,8.0,0.0
2111,53.0,0.0,180.0,8.0,0.0
2112,59.0,0.0,180.0,7.0,0.0
2113,41.0,60.0,330.0,5.0,0.0
2114,41.0,0.0,390.0,8.0,0.0
2115,41.0,188.0,390.0,4.0,0.0
2116,47.0,128.0,180.0,0.0,0.0
2117,44.0,4.0,180.0,0.0,0.0
2118,37.0,0.0,180.0,4.0,0.0
2119,37.0,320.0,180.0,8.0,0.0
2120,41.0,4.0,180.0,0.0,0.0
2121,37.0,0.0,180.0,5.0,0.0
2122,39.0,60.0,330.0,5.0,0.0
2123,58.0,0.0,390.0,2.0,0.0
2124,39.0,0.0,390.0,8.0,0.0
2125,53.0,0.0,390.0,3.0,0.0
2126,53.0,0.0,390.0,8.0,0.0
2127,61.0,188.0,390.0,6.0,0.0
2128,39.0,0.0,390.0,4.0,0.0
2129,61.0,0.0,390.0,1.0,0.0
2130,58.0,0.0,390.0,7.0,0.0
2131,59.0,4.0,180.0,0.0,0.0
2132,59.0,0.0,180.0,1.0,0.0
2133,56.0,0.0,180.0,2.0,0.0
2134,41.0,0.0,180.0,5.0,0.0
2135,56.0,0.0,180.0,7.0,0.0
2136,51.0,0.0,180.0,8.0,0.0
2137,41.0,192.0,180.0,8.0,0.0
2138,59.0,0.0,180.0,6.0,0.0
2139,51.0,0.0,180.0,3.0,0.0
2140,41.0,0.0,180.0,4.0,0.0
2141,56.0,4.0,180.0,0.0,0.0
2142,58.0,0.0,390.0,6.0,0.0
2143,54.0,188.0,390.0,7.0,0.0
2144,42.0,0.0,390.0,4.0,0.0
2145,54.0,0.0,390.0,2.0,0.0
2146,58.0,0.0,390.0,1.0,0.0
2147,42.0,60.0,330.0,5.0,0.0
2148,58.0,128.0,180.0,0.0,0.0
2149,42.0,0.0,390.0,8.0,0.0
2150,54.0,4.0,180.0,0.0,0.0
2151,56.0,0.0,180.0,7.0,0.0
2152,47.0,0.0,180.0,8.0,0.0
2153,56.0,0.0,180.0,2.0,0.0
2154,51.0,4.0,180.0,0.0,0.0
2155,59.0,0.0,180.0,1.0,0.0
2156,47.0,0.0,180.0,5.0,0.0
2157,59.0,0.0,180.0,6.0,0.0
2158,47.0,192.0,180.0,4.0,0.0
2159,58.0,128.0,180.0,7.0,0.0
2160,61.0,0.0,180.0,1.0,0.0
2161,49.0,0.0,390.0,8.0,0.0
2162,49.0,60.0,330.0,5.0,0.0
2163,61.0,0.0,180.0,6.0,0.0
2164,53.0,0.0,180.0,0.0,0.0
2165,49.0,0.0,390.0,4.0,0.0
2166,58.0,0.0,180.0,2.0,0.0
2167,54.0,4.0,180.0,0.0,0.0
2168,59.0,0.0,180.0,2.0,0.0
2169,63.0,0.0,180.0,1.0,0.0
2170,63.0,0.0,180.0,6.0,0.0
2171,59.0,0.0,180.0,2.0,0.0
2172,42.0,4.0,180.0,0.0,0.0
2173,56.0,0.0,180.0,3.0,0.0
2174,37.0,0.0,180.0,8.0,0.0
2175,37.0,0.0,180.0,5.0,0.0
2176,37.0,320.0,180.0,4.0,0.0
2177,65.0,0.0,180.0,6.0,0.0
2178,59.0,188.0,15.0,7.0,0.0
2179,56.0,0.0,180.0,8.0,0.0
2180,65.0,0.0,180.0,1.0,0.0
2181,42.0,0.0,330.0,0.0,0.0
2182,42.0,64.0,330.0,5.0,0.0
2183,58.0,0.0,780.0,8.0,0.0
2184,42.0,0.0,390.0,8.0,0.0
2185,66.0,128.0,780.0,6.0,0.0
2186,42.0,188.0,390.0,4.0,0.0
2187,61.0,0.0,780.0,2.0,0.0
2188,66.0,0.0,780.0,1.0,0.0
2189,54.0,0.0,180.0,4.0,0.0
2190,54.0,4.0,180.0,5.0,0.0
2191,42.0,0.0,180.0,0.0,0.0
2192,54.0,192.0,15.0,8.0,0.0
2193,54.0,64.0,330.0,5.0,0.0
2194,54.0,0.0,390.0,4.0,0.0
2195,61.0,188.0,180.0,1.0,0.0
2196,58.0,0.0,15.0,3.0,0.0
2197,61.0,0.0,180.0,2.0,0.0
2198,61.0,0.0,15.0,7.0,0.0
2199,58.0,0.0,180.0,8.0,0.0
2200,61.0,0.0,180.0,6.0,0.0
2201,42.0,4.0,180.0,5.0,0.0
2202,66.0,0.0,180.0,6.0,0.0
2203,59.0,192.0,180.0,3.0,0.0
2204,59.0,0.0,180.0,8.0,0.0
2205,66.0,0.0,180.0,1.0,0.0
2206,63.0,0.0,180.0,2.0,0.0
2207,63.0,0.0,180.0,7.0,0.0
2208,42.0,0.0,15.0,8.0,0.0
2209,59.0,0.0,780.0,2.0,0.0
2210,59.0,0.0,780.0,7.0,0.0
2211,65.0,128.0,180.0,6.0,0.0
2212,42.0,64.0,330.0,5.0,0.0
2213,42.0,0.0,15.0,4.0,0.0
2214,65.0,0.0,180.0,1.0,0.0
2215,66.0,188.0,180.0,1.0,0.0
2216,66.0,0.0,180.0,6.0,0.0
2217,54.0,4.0,180.0,5.0,0.0
2218,54.0,0.0,15.0,8.0,0.0
2219,54.0,0.0,15.0,4.0,0.0
2220,54.0,64.0,330.0,5.0,0.0
2221,59.0,0.0,15.0,6.0,0.0
2222,59.0,192.0,15.0,1.0,0.0
2223,65.0,188.0,180.0,6.0,0.0
2224,65.0,0.0,180.0,1.0,0.0
2225,56.0,0.0,180.0,2.0,0.0
2226,56.0,0.0,180.0,7.0,0.0
2227,58.0,0.0,180.0,7.0,0.0
2228,66.0,0.0,180.0,1.0,0.0
2229,42.0,0.0,180.0,4.0,0.0
2230,58.0,0.0,180.0,2.0,0.0
2231,42.0,4.0,180.0,5.0,0.0
2232,42.0,0.0,15.0,8.0,0.0
2233,54.0,0.0,780.0,3.0,0.0
2234,42.0,64.0,330.0,5.0,0.0
2235,66.0,0.0,780.0,1.0,0.0
2236,66.0,320.0,15.0,6.0,0.0
2237,42.0,0.0,390.0,4.0,0.0
2238,54.0,192.0,180.0,5.0,0.0
2239,54.0,0.0,180.0,8.0,0.0
2240,54.0,0.0,180.0,4.0,0.0
2241,53.0,0.0,390.0,4.0,0.0
2242,53.0,64.0,330.0,5.0,0.0
2243,53.0,192.0,390.0,8.0,0.0
2244,61.0,0.0,180.0,6.0,0.0
2245,61.0,0.0,15.0,2.0,0.0
2246,61.0,128.0,15.0,7.0,0.0
2247,61.0,0.0,180.0,1.0,0.0
2248,63.0,0.0,180.0,2.0,0.0
2249,66.0,0.0,180.0,1.0,0.0
2250,41.0,0.0,180.0,4.0,0.0
2251,63.0,192.0,180.0,7.0,0.0
2252,41.0,0.0,180.0,8.0,0.0
2253,41.0,0.0,180.0,5.0,0.0
2254,66.0,0.0,180.0,6.0,0.0
2255,59.0,128.0,780.0,2.0,0.0
2256,65.0,128.0,180.0,6.0,0.0
2257,39.0,0.0,390.0,8.0,0.0
2258,39.0,64.0,330.0,5.0,0.0
2259,65.0,0.0,180.0,1.0,0.0
2260,59.0,0.0,780.0,7.0,0.0
2261,39.0,0.0,390.0,4.0,0.0
2262,66.0,188.0,180.0,6.0,0.0
2263,66.0,0.0,180.0,1.0,0.0
2264,51.0,192.0,180.0,8.0,0.0
2265,59.0,0.0,390.0,6.0,0.0
2266,59.0,0.0,390.0,1.0,0.0
2267,51.0,4.0,180.0,5.0,0.0
2268,51.0,0.0,15.0,4.0,0.0
2269,51.0,64.0,330.0,5.0,0.0
2270,51.0,192.0,390.0,8.0,0.0
2271,65.0,0.0,180.0,1.0,0.0
2272,65.0,0.0,180.0,6.0,0.0
2273,56.0,0.0,180.0,2.0,0.0
2274,56.0,0.0,180.0,7.0,0.0
2275,66.0,0.0,180.0,1.0,0.0
2276,58.0,0.0,180.0,7.0,0.0
2277,58.0,0.0,180.0,2.0,0.0
2278,39.0,192.0,180.0,8.0,0.0
2279,39.0,0.0,180.0,4.0,0.0
2280,66.0,0.0,180.0,6.0,0.0
2281,39.0,0.0,180.0,5.0,0.0
2282,37.0,64.0,330.0,5.0,0.0
2283,58.0,0.0,780.0,7.0,0.0
2284,37.0,188.0,390.0,4.0,0.0
2285,65.0,128.0,180.0,1.0,0.0
2286,58.0,0.0,780.0,2.0,0.0
2287,37.0,0.0,390.0,8.0,0.0
2288,65.0,0.0,180.0,6.0,0.0
2289,66.0,0.0,180.0,6.0,0.0
2290,66.0,0.0,180.0,1.0,0.0
2291,58.0,0.0,180.0,6.0,0.0
2292,49.0,4.0,180.0,5.0,0.0
2293,49.0,192.0,180.0,4.0,0.0
2294,49.0,0.0,180.0,8.0,0.0
2295,58.0,0.0,15.0,1.0,0.0
2296,58.0,128.0,180.0,6.0,0.0
2297,49.0,0.0,390.0,8.0,0.0
2298,49.0,64.0,330.0,5.0,0.0
2299,49.0,192.0,390.0,4.0,0.0
2300,61.0,0.0,180.0,1.0,0.0
2301,61.0,0.0,180.0,6.0,0.0
2302,54.0,0.0,180.0,7.0,0.0
2303,54.0,0.0,180.0,2.0,0.0
2304,65.0,0.0,180.0,1.0,0.0
2305,37.0,0.0,180.0,5.0,0.0
2306,37.0,192.0,180.0,8.0,0.0
2307,56.0,0.0,180.0,2.0,0.0
2308,65.0,0.0,180.0,6.0,0.0
2309,56.0,0.0,180.0,7.0,0.0
2310,37.0,0.0,180.0,4.0,0.0
2311,68.0,0.0,390.0,1.0,0.0
2312,65.0,128.0,180.0,7.0,0.0
2313,35.0,0.0,390.0,4.0,0.0
2314,35.0,0.0,390.0,8.0,0.0
2315,65.0,0.0,180.0,2.0,0.0
2316,68.0,0.0,390.0,6.0,0.0
2317,35.0,64.0,330.0,5.0,0.0
2318,66.0,192.0,180.0,7.0,0.0
2319,66.0,0.0,180.0,2.0,0.0
2320,56.0,0.0,390.0,2.0,0.0
2321,37.0,0.0,180.0,4.0,0.0
2322,37.0,0.0,180.0,8.0,0.0
2323,65.0,192.0,180.0,1.0,0.0
2324,37.0,0.0,180.0,5.0,0.0
2325,56.0,128.0,390.0,7.0,0.0
2326,65.0,0.0,180.0,6.0,0.0
2327,66.0,0.0,390.0,1.0,0.0
2328,39.0,64.0,330.0,5.0,0.0
2329,66.0,0.0,390.0,6.0,0.0
2330,39.0,0.0,390.0,4.0,0.0
2331,59.0,0.0,180.0,2.0,0.0
2332,59.0,0.0,180.0,7.0,0.0
2333,39.0,0.0,390.0,8.0,0.0
2334,35.0,0.0,180.0,4.0,0.0
2335,35.0,0.0,180.0,8.0,0.0
2336,35.0,0.0,180.0,5.0,0.0
2337,54.0,0.0,15.0,2.0,0.0
2338,54.0,192.0,15.0,7.0,0.0
2339,37.0,4.0,750.0,5.0,0.0
2340,56.0,0.0,40.0,2.0,0.0
2341,37.0,0.0,780.0,8.0,0.0
2342,37.0,0.0,780.0,4.0,0.0
2343,59.0,0.0,15.0,1.0,0.0
2344,56.0,0.0,40.0,7.0,0.0
2345,59.0,48.0,15.0,6.0,0.0
2346,58.0,0.0,40.0,1.0,0.0
2347,54.0,0.0,40.0,7.0,0.0
2348,54.0,0.0,40.0,2.0,0.0
2349,58.0,48.0,40.0,6.0,0.0
2350,56.0,0.0,40.0,7.0,0.0
2351,59.0,48.0,40.0,1.0,0.0
2352,56.0,0.0,40.0,2.0,0.0
2353,59.0,0.0,40.0,6.0,0.0
2354,54.0,0.0,40.0,7.0,0.0
2355,54.0,0.0,40.0,2.0,0.0
2356,58.0,48.0,40.0,6.0,0.0
2357,58.0,0.0,40.0,1.0,0.0
2358,56.0,0.0,40.0,7.0,0.0
2359,59.0,0.0,40.0,1.0,0.0
2360,59.0,144.0,40.0,6.0,0.0
2361,56.0,0.0,40.0,2.0,0.0
2362,58.0,0.0,150.0,1.0,0.0
2363,58.0,0.0,150.0,6.0,0.0
2364,54.0,192.0,150.0,2.0,0.0
2365,54.0,0.0,150.0,7.0,0.0
2366,56.0,0.0,180.0,1.0,0.0
2367,53.0,0.0,180.0,7.0,0.0
2368,56.0,96.0,180.0,6.0,0.0
2369,53.0,0.0,180.0,2.0,0.0
2370,68.0,0.0,90.0,1.0,0.0
2371,65.0,0.0,180.0,7.0,0.0
2372,68.0,92.0,90.0,6.0,0.0
2373,65.0,0.0,180.0,2.0,0.0
2374,70.0,0.0,90.0,6.0,0.0
2375,70.0,64.0,90.0,1.0,0.0
2376,68.0,64.0,180.0,2.0,0.0
2377,41.0,0.0,60.0,8.0,0.0
2378,71.0,0.0,90.0,6.0,0.0
2379,68.0,0.0,180.0,7.0,0.0
2380,41.0,0.0,60.0,4.0,0.0
2381,41.0,32.0,60.0,5.0,0.0
2382,71.0,96.0,90.0,1.0,0.0
2383,68.0,0.0,90.0,1.0,0.0
2384,68.0,96.0,90.0,1.0,0.0
2385,65.0,0.0,180.0,7.0,0.0
2386,44.0,0.0,60.0,8.0,0.0
2387,44.0,0.0,60.0,5.0,0.0
2388,68.0,0.0,15.0,6.0,0.0
2389,44.0,32.0,60.0,4.0,0.0
2390,65.0,96.0,180.0,2.0,0.0
2391,66.0,0.0,90.0,6.0,0.0
2392,66.0,0.0,90.0,1.0,0.0
2393,61.0,96.0,180.0,7.0,0.0
2394,47.0,0.0,390.0,8.0,0.0
2395,61.0,0.0,180.0,2.0,0.0
2396,66.0,96.0,90.0,6.0,0.0
2397,47.0,0.0,390.0,4.0,0.0
2398,47.0,96.0,390.0,5.0,0.0
2399,66.0,0.0,90.0,1.0,0.0
2400,65.0,0.0,90.0,1.0,0.0
2401,65.0,0.0,90.0,6.0,0.0
2402,65.0,0.0,180.0,7.0,0.0
2403,65.0,96.0,90.0,1.0,0.0
2404,65.0,0.0,90.0,6.0,0.0
2405,65.0,0.0,180.0,2.0,0.0
2406,56.0,64.0,180.0,2.0,0.0
2407,63.0,0.0,15.0,1.0,0.0
2408,56.0,0.0,180.0,7.0,0.0
2409,63.0,0.0,15.0,6.0,0.0
2410,61.0,0.0,90.0,1.0,0.0
2411,61.0,0.0,90.0,6.0,0.0
2412,65.0,0.0,180.0,7.0,0.0
2413,37.0,0.0,60.0,5.0,0.0
2414,65.0,0.0,180.0,2.0,0.0
2415,37.0,32.0,60.0,4.0,0.0
2416,37.0,0.0,60.0,8.0,0.0
2417,68.0,96.0,90.0,6.0,0.0
2418,68.0,0.0,90.0,1.0,0.0
2419,70.0,0.0,90.0,1.0,0.0
2420,70.0,64.0,90.0,6.0,0.0
2421,68.0,64.0,180.0,2.0,0.0
2422,71.0,0.0,90.0,6.0,0.0
2423,71.0,96.0,90.0,1.0,0.0
2424,41.0,32.0,60.0,4.0,0.0
2425,41.0,0.0,60.0,8.0,0.0
2426,41.0,0.0,60.0,5.0,0.0
2427,68.0,0.0,180.0,7.0,0.0
2428,68.0,0.0,90.0,6.0,0.0
2429,71.0,0.0,180.0,7.0,0.0
2430,68.0,0.0,15.0,1.0,0.0
2431,44.0,0.0,60.0,4.0,0.0
2432,44.0,0.0,60.0,8.0,0.0
2433,71.0,96.0,180.0,2.0,0.0
2434,68.0,0.0,90.0,6.0,0.0
2435,44.0,32.0,60.0,5.0,0.0
2436,66.0,0.0,90.0,6.0,0.0
2437,66.0,0.0,90.0,1.0,0.0
2438,47.0,0.0,390.0,8.0,0.0
2439,47.0,0.0,390.0,4.0,0.0
2440,66.0,0.0,90.0,6.0,0.0
2441,47.0,96.0,390.0,5.0,0.0
2442,56.0,0.0,180.0,7.0,0.0
2443,66.0,96.0,90.0,1.0,0.0
2444,56.0,96.0,180.0,2.0,0.0
2445,65.0,0.0,90.0,1.0,0.0
2446,65.0,0.0,15.0,6.0,0.0
2447,61.0,0.0,180.0,7.0,0.0
2448,61.0,0.0,180.0,2.0,0.0
2449,65.0,96.0,90.0,1.0,0.0
2450,63.0,0.0,90.0,6.0,0.0
2451,63.0,0.0,90.0,1.0,0.0
2452,53.0,0.0,180.0,2.0,0.0
2453,53.0,64.0,180.0,7.0,0.0
2454,63.0,96.0,90.0,6.0,0.0
2455,63.0,0.0,90.0,1.0,0.0
2456,61.0,0.0,90.0,1.0,0.0
2457,61.0,0.0,90.0,6.0,0.0
2458,70.0,0.0,90.0,1.0,0.0
2459,42.0,0.0,60.0,8.0,0.0
2460,42.0,0.0,60.0,5.0,0.0
2461,42.0,32.0,60.0,4.0,0.0
2462,61.0,0.0,570.0,2.0,0.0
2463,70.0,96.0,90.0,6.0,0.0
2464,61.0,0.0,570.0,7.0,0.0
2465,71.0,0.0,90.0,1.0,0.0
2466,71.0,64.0,90.0,6.0,0.0
2467,73.0,96.0,90.0,1.0,0.0
2468,46.0,32.0,60.0,4.0,0.0
2469,73.0,0.0,90.0,6.0,0.0
2470,46.0,0.0,60.0,5.0,0.0
2471,46.0,0.0,60.0,8.0,0.0
2472,70.0,0.0,90.0,1.0,0.0
2473,70.0,64.0,90.0,6.0,0.0
2474,49.0,32.0,60.0,8.0,0.0
2475,49.0,0.0,60.0,4.0,0.0
2476,70.0,0.0,90.0,1.0,0.0
2477,70.0,96.0,90.0,6.0,0.0
2478,49.0,0.0,60.0,5.0,0.0
2479,68.0,96.0,90.0,1.0,0.0
2480,68.0,0.0,90.0,6.0,0.0
2481,52.0,0.0,390.0,8.0,0.0
2482,58.0,0.0,180.0,2.0,0.0
2483,52.0,0.0,390.0,4.0,0.0
2484,58.0,96.0,180.0,7.0,0.0
2485,52.0,64.0,330.0,5.0,0.0
2486,68.0,0.0,90.0,6.0,0.0
2487,68.0,96.0,90.0,1.0,0.0
2488,66.0,0.0,90.0,1.0,0.0
2489,66.0,0.0,15.0,6.0,0.0
2490,61.0,96.0,180.0,7.0,0.0
2491,61.0,0.0,180.0,2.0,0.0
2492,66.0,32.0,90.0,1.0,0.0
2493,64.0,0.0,90.0,1.0,0.0
2494,58.0,64.0,180.0,2.0,0.0
2495,64.0,0.0,90.0,1.0,0.0
2496,58.0,0.0,180.0,7.0,0.0
2497,64.0,0.0,15.0,6.0,0.0
2498,66.0,0.0,90.0,6.0,0.0
2499,66.0,0.0,90.0,1.0,0.0
2500,70.0,0.0,90.0,1.0,0.0
2501,42.0,0.0,60.0,4.0,0.0
2502,61.0,0.0,570.0,2.0,0.0
2503,42.0,0.0,60.0,5.0,0.0
2504,42.0,32.0,60.0,8.0,0.0
2505,70.0,96.0,90.0,6.0,0.0
2506,61.0,0.0,570.0,7.0,0.0
2507,71.0,0.0,90.0,1.0,0.0
2508,71.0,64.0,90.0,6.0,0.0
2509,73.0,0.0,90.0,6.0,0.0
2510,46.0,0.0,60.0,4.0,0.0
2511,73.0,96.0,90.0,1.0,0.0
2512,46.0,32.0,60.0,8.0,0.0
2513,46.0,0.0,60.0,5.0,0.0
2514,70.0,64.0,90.0,1.0,0.0
2515,49.0,0.0,60.0,5.0,0.0
2516,70.0,0.0,15.0,6.0,0.0
2517,49.0,0.0,60.0,8.0,0.0
2518,70.0,0.0,90.0,1.0,0.0
2519,49.0,32.0,60.0,4.0,0.0
2520,68.0,0.0,90.0,6.0,0.0
2521,52.0,0.0,390.0,4.0,0.0
2522,52.0,0.0,390.0,8.0,0.0
2523,68.0,0.0,90.0,6.0,0.0
2524,68.0,96.0,15.0,1.0,0.0
2525,58.0,0.0,180.0,2.0,0.0
2526,52.0,64.0,330.0,5.0,0.0
2527,66.0,0.0,90.0,6.0,0.0
2528,66.0,96.0,15.0,1.0,0.0
2529,58.0,0.0,15.0,7.0,0.0
2530,66.0,0.0,90.0,6.0,0.0
2531,64.0,0.0,90.0,6.0,0.0
2532,64.0,0.0,90.0,1.0,0.0
2533,64.0,96.0,90.0,6.0,0.0
2534,64.0,0.0,90.0,1.0,0.0
2535,58.0,0.0,15.0,2.0,0.0
2536,58.0,0.0,180.0,7.0,0.0
2537,63.0,0.0,90.0,1.0,0.0
2538,47.0,0.0,180.0,5.0,0.0
2539,54.0,0.0,15.0,2.0,0.0
2540,59.0,0.0,390.0,2.0,0.0
2541,59.0,0.0,390.0,7.0,0.0
2542,54.0,0.0,15.0,7.0,0.0
2543,47.0,0.0,180.0,4.0,0.0
2544,63.0,96.0,15.0,6.0,0.0
2545,47.0,0.0,180.0,8.0,0.0
2546,63.0,96.0,90.0,1.0,0.0
2547,66.0,96.0,90.0,6.0,0.0
2548,66.0,0.0,90.0,1.0,0.0
2549,49.0,96.0,180.0,4.0,0.0
2550,49.0,0.0,180.0,8.0,0.0
2551,64.0,96.0,90.0,1.0,0.0
2552,49.0,0.0,180.0,5.0,0.0
2553,64.0,0.0,90.0,6.0,0.0
2554,63.0,0.0,90.0,6.0,0.0
2555,47.0,0.0,180.0,8.0,0.0
2556,63.0,0.0,90.0,6.0,0.0
2557,63.0,0.0,15.0,1.0,0.0
2558,47.0,4.0,180.0,5.0,0.0
2559,47.0,96.0,180.0,4.0,0.0
2560,61.0,0.0,90.0,1.0,0.0
2561,61.0,0.0,15.0,6.0,0.0
2562,61.0,0.0,90.0,1.0,0.0
2563,46.0,0.0,180.0,5.0,0.0
2564,54.0,0.0,390.0,7.0,0.0
2565,54.0,0.0,390.0,2.0,0.0
2566,46.0,0.0,180.0,8.0,0.0
2567,46.0,0.0,180.0,4.0,0.0
2568,66.0,96.0,90.0,1.0,0.0
2569,66.0,0.0,90.0,6.0,0.0
2570,47.0,0.0,180.0,5.0,0.0
2571,47.0,0.0,180.0,8.0,0.0
2572,63.0,0.0,90.0,1.0,0.0
2573,63.0,96.0,90.0,6.0,0.0
2574,47.0,0.0,180.0,4.0,0.0
2575,46.0,4.0,180.0,5.0,0.0
2576,61.0,0.0,15.0,6.0,0.0
2577,61.0,96.0,15.0,1.0,0.0
2578,46.0,0.0,180.0,4.0,0.0
2579,46.0,96.0,180.0,8.0,0.0
2580,59.0,0.0,90.0,6.0,0.0
2581,44.0,0.0,180.0,8.0,0.0
2582,53.0,0.0,390.0,7.0,0.0
2583,59.0,0.0,15.0,1.0,0.0
2584,44.0,0.0,180.0,4.0,0.0
2585,53.0,96.0,390.0,2.0,0.0
2586,44.0,96.0,180.0,5.0,0.0
2587,59.0,0.0,90.0,6.0,0.0
2588,66.0,0.0,90.0,6.0,0.0
2589,66.0,0.0,90.0,1.0,0.0
2590,46.0,0.0,180.0,4.0,0.0
2591,46.0,0.0,180.0,5.0,0.0
2592,46.0,0.0,180.0,8.0,0.0
2593,61.0,96.0,90.0,1.0,0.0
2594,61.0,0.0,90.0,6.0,0.0
2595,59.0,0.0,90.0,1.0,0.0
2596,44.0,4.0,180.0,5.0,0.0
2597,44.0,96.0,180.0,4.0,0.0
2598,44.0,0.0,180.0,8.0,0.0
2599,59.0,0.0,15.0,6.0,0.0
2600,59.0,92.0,90.0,1.0,0.0
2601,58.0,0.0,90.0,1.0,0.0
2602,66.0,0.0,570.0,2.0,0.0
2603,58.0,0.0,90.0,1.0,0.0
2604,66.0,0.0,570.0,7.0,0.0
2605,42.0,0.0,180.0,4.0,0.0
2606,58.0,0.0,15.0,6.0,0.0
2607,42.0,96.0,180.0,5.0,0.0
2608,42.0,0.0,180.0,8.0,0.0
2609,66.0,0.0,90.0,1.0,0.0
2610,66.0,0.0,90.0,6.0,0.0
2611,39.0,0.0,180.0,8.0,0.0
2612,39.0,96.0,180.0,4.0,0.0
2613,59.0,0.0,90.0,1.0,0.0
2614,59.0,96.0,90.0,6.0,0.0
2615,39.0,0.0,180.0,5.0,0.0
2616,58.0,0.0,90.0,6.0,0.0
2617,58.0,0.0,15.0,1.0,0.0
2618,37.0,96.0,180.0,5.0,0.0
2619,37.0,0.0,180.0,8.0,0.0
2620,58.0,96.0,90.0,6.0,0.0
2621,37.0,0.0,180.0,4.0,0.0
2622,56.0,0.0,90.0,6.0,0.0
2623,56.0,0.0,570.0,7.0,0.0
2624,36.0,0.0,390.0,8.0,0.0
2625,56.0,0.0,15.0,1.0,0.0
2626,36.0,0.0,390.0,4.0,0.0
2627,56.0,96.0,90.0,6.0,0.0
2628,36.0,64.0,330.0,5.0,0.0
2629,65.0,0.0,90.0,1.0,0.0
2630,65.0,32.0,90.0,1.0,0.0
2631,65.0,96.0,15.0,6.0,0.0
2632,66.0,96.0,90.0,1.0,0.0
2633,48.0,0.0,180.0,8.0,0.0
2634,48.0,96.0,180.0,5.0,0.0
2635,48.0,0.0,180.0,4.0,0.0
2636,66.0,0.0,15.0,6.0,0.0
2637,66.0,96.0,90.0,1.0,0.0
2638,56.0,0.0,90.0,1.0,0.0
2639,56.0,0.0,15.0,2.0,0.0
2640,56.0,0.0,15.0,6.0,0.0
2641,49.0,64.0,330.0,5.0,0.0
2642,49.0,0.0,390.0,8.0,0.0
2643,56.0,0.0,90.0,1.0,0.0
2644,49.0,0.0,390.0,4.0,0.0
2645,56.0,0.0,570.0,7.0,0.0
2646,65.0,96.0,90.0,1.0,0.0
2647,65.0,0.0,15.0,6.0,0.0
2648,65.0,32.0,90.0,1.0,0.0
2649,66.0,96.0,15.0,6.0,0.0
2650,37.0,96.0,180.0,8.0,0.0
2651,66.0,0.0,15.0,1.0,0.0
2652,37.0,0.0,180.0,5.0,0.0
2653,37.0,0.0,180.0,4.0,0.0
2654,56.0,0.0,90.0,6.0,0.0
2655,39.0,64.0,330.0,5.0,0.0
2656,56.0,0.0,15.0,1.0,0.0
2657,56.0,0.0,570.0,7.0,0.0
2658,56.0,0.0,570.0,2.0,0.0
2659,39.0,0.0,390.0,8.0,0.0
2660,39.0,0.0,390.0,4.0,0.0
2661,56.0,0.0,90.0,6.0,0.0
2662,65.0,0.0,90.0,6.0,0.0
2663,65.0,96.0,90.0,1.0,0.0
2664,65.0,0.0,90.0,6.0,0.0
2665,65.0,32.0,90.0,1.0,0.0
2666,66.0,0.0,90.0,1.0,0.0
2667,66.0,96.0,90.0,6.0,0.0
2668,51.0,0.0,180.0,8.0,0.0
2669,51.0,0.0,180.0,5.0,0.0
2670,51.0,96.0,180.0,4.0,0.0
2671,66.0,0.0,90.0,6.0,0.0
2672,66.0,96.0,90.0,1.0,0.0
2673,56.0,0.0,90.0,6.0,0.0
2674,49.0,0.0,390.0,4.0,0.0
2675,56.0,96.0,180.0,7.0,0.0
2676,49.0,0.0,390.0,8.0,0.0
2677,49.0,64.0,330.0,5.0,0.0
2678,56.0,0.0,15.0,1.0,0.0
2679,56.0,96.0,90.0,6.0,0.0
2680,65.0,0.0,90.0,1.0,0.0
2681,65.0,0.0,90.0,6.0,0.0
2682,65.0,0.0,90.0,1.0,0.0
2683,59.0,0.0,180.0,2.0,0.0
2684,56.0,0.0,15.0,2.0,0.0
2685,65.0,32.0,90.0,6.0,0.0
2686,56.0,96.0,180.0,7.0,0.0
2687,59.0,0.0,180.0,7.0,0.0
2688,66.0,0.0,90.0,6.0,0.0
2689,66.0,0.0,90.0,1.0,0.0
2690,66.0,96.0,90.0,6.0,0.0
2691,66.0,0.0,90.0,1.0,0.0
2692,37.0,0.0,180.0,4.0,0.0
2693,37.0,96.0,180.0,8.0,0.0
2694,37.0,0.0,180.0,5.0,0.0
2695,58.0,0.0,180.0,7.0,0.0
2696,58.0,0.0,180.0,2.0,0.0
2697,56.0,0.0,90.0,1.0,0.0
2698,54.0,0.0,15.0,2.0,0.0
2699,54.0,0.0,15.0,7.0,0.0
2700,56.0,92.0,90.0,1.0,0.0
2701,56.0,0.0,15.0,6.0,0.0
2702,35.0,4.0,180.0,5.0,0.0
2703,35.0,0.0,180.0,8.0,0.0
2704,35.0,96.0,180.0,4.0,0.0
2705,59.0,0.0,90.0,6.0,0.0
2706,59.0,0.0,90.0,1.0,0.0
2707,51.0,0.0,180.0,5.0,0.0
2708,51.0,0.0,180.0,8.0,0.0
2709,59.0,96.0,90.0,6.0,0.0
2710,59.0,0.0,90.0,1.0,0.0
2711,51.0,0.0,180.0,4.0,0.0
2712,58.0,0.0,90.0,1.0,0.0
2713,54.0,0.0,15.0,7.0,0.0
2714,49.0,0.0,180.0,4.0,0.0
2715,54.0,96.0,15.0,2.0,0.0
2716,49.0,4.0,180.0,5.0,0.0
2717,49.0,0.0,180.0,8.0,0.0
2718,58.0,0.0,15.0,6.0,0.0
2719,58.0,0.0,90.0,1.0,0.0
2720,63.0,0.0,15.0,1.0,0.0
2721,47.0,0.0,180.0,8.0,0.0
2722,63.0,96.0,15.0,6.0,0.0
2723,47.0,0.0,180.0,4.0,0.0
2724,47.0,0.0,180.0,5.0,0.0
2725,46.0,0.0,180.0,4.0,0.0
2726,61.0,0.0,15.0,6.0,0.0
2727,46.0,96.0,180.0,8.0,0.0
2728,58.0,0.0,180.0,2.0,0.0
2729,46.0,4.0,180.0,5.0,0.0
2730,58.0,0.0,180.0,7.0,0.0
2731,61.0,96.0,15.0,1.0,0.0
2732,65.0,0.0,15.0,1.0,0.0
2733,51.0,0.0,180.0,4.0,0.0
2734,54.0,0.0,180.0,7.0,0.0
2735,65.0,0.0,15.0,6.0,0.0
2736,51.0,4.0,180.0,5.0,0.0
2737,51.0,0.0,180.0,8.0,0.0
2738,54.0,0.0,180.0,2.0,0.0
2739,66.0,0.0,90.0,1.0,0.0
2740,66.0,188.0,90.0,6.0,0.0
2741,56.0,48.0,180.0,2.0,0.0
2742,47.0,0.0,180.0,8.0,0.0
2743,51.0,0.0,180.0,8.0,0.0
2744,51.0,0.0,180.0,3.0,0.0
2745,59.0,0.0,180.0,6.0,0.0
2746,56.0,0.0,180.0,7.0,0.0
2747,47.0,4.0,180.0,5.0,0.0
2748,59.0,0.0,180.0,1.0,0.0
2749,47.0,0.0,180.0,4.0,0.0
2750,49.0,0.0,180.0,3.0,0.0
2751,49.0,0.0,180.0,5.0,0.0
2752,49.0,0.0,180.0,8.0,0.0
2753,58.0,0.0,40.0,1.0,0.0
2754,58.0,0.0,40.0,6.0,0.0
2755,54.0,48.0,40.0,7.0,0.0
2756,54.0,0.0,40.0,2.0,0.0
2757,49.0,0.0,180.0,4.0,0.0
2758,53.0,0.0,40.0,2.0,0.0
2759,56.0,0.0,40.0,1.0,0.0
2760,56.0,0.0,40.0,6.0,0.0
2761,53.0,48.0,40.0,7.0,0.0
2762,54.0,0.0,40.0,7.0,0.0
2763,54.0,0.0,40.0,2.0,0.0
2764,58.0,48.0,40.0,6.0,0.0
2765,58.0,0.0,40.0,1.0,0.0
2766,56.0,48.0,40.0,1.0,0.0
2767,53.0,0.0,40.0,7.0,0.0
2768,53.0,0.0,40.0,2.0,0.0
2769,56.0,0.0,40.0,6.0,0.0
2770,54.0,0.0,40.0,2.0,0.0
2771,47.0,0.0,180.0,3.0,0.0
2772,37.0,4.0,180.0,5.0,0.0
2773,54.0,0.0,40.0,7.0,0.0
2774,58.0,0.0,40.0,6.0,0.0
2775,37.0,0.0,180.0,8.0,0.0
2776,47.0,0.0,180.0,8.0,0.0
2777,37.0,0.0,180.0,4.0,0.0
2778,58.0,140.0,40.0,1.0,0.0
2779,53.0,320.0,150.0,2.0,0.0
2780,53.0,0.0,150.0,7.0,0.0
2781,56.0,0.0,150.0,6.0,0.0
2782,56.0,0.0,150.0,1.0,0.0
2783,54.0,0.0,390.0,2.0,0.0
2784,54.0,188.0,390.0,7.0,0.0
2785,42.0,64.0,330.0,5.0,0.0
2786,54.0,0.0,390.0,6.0,0.0
2787,42.0,0.0,390.0,4.0,0.0
2788,54.0,0.0,390.0,1.0,0.0
2789,42.0,0.0,390.0,8.0,0.0
2790,41.0,0.0,180.0,8.0,0.0
2791,41.0,188.0,180.0,4.0,0.0
2792,41.0,4.0,180.0,5.0,0.0
2793,39.0,0.0,180.0,8.0,0.0
2794,39.0,192.0,180.0,4.0,0.0
2795,54.0,4.0,180.0,0.0,0.0
2796,39.0,0.0,180.0,5.0,0.0
2797,46.0,0.0,180.0,5.0,0.0
2798,46.0,128.0,180.0,8.0,0.0
2799,50.0,60.0,330.0,0.0,0.0
2800,46.0,0.0,180.0,4.0,0.0
2801,44.0,188.0,180.0,8.0,0.0
2802,44.0,4.0,180.0,5.0,0.0
2803,44.0,0.0,180.0,4.0,0.0
2804,42.0,0.0,180.0,4.0,0.0
2805,51.0,4.0,180.0,0.0,0.0
2806,42.0,0.0,180.0,8.0,0.0
2807,42.0,192.0,180.0,5.0,0.0
2808,41.0,128.0,180.0,4.0,0.0
2809,46.0,60.0,330.0,0.0,0.0
2810,41.0,0.0,180.0,8.0,0.0
2811,41.0,0.0,180.0,5.0,0.0
2812,39.0,4.0,180.0,5.0,0.0
2813,39.0,0.0,180.0,8.0,0.0
2814,39.0,96.0,180.0,4.0,0.0
2815,44.0,0.0,180.0,5.0,0.0
2816,47.0,96.0,90.0,0.0,0.0
2817,44.0,0.0,180.0,4.0,0.0
2818,44.0,0.0,180.0,8.0,0.0
2819,46.0,188.0,90.0,0.0,0.0
2820,41.0,0.0,180.0,5.0,0.0
2821,44.0,4.0,180.0,0.0,0.0
2822,41.0,188.0,180.0,8.0,0.0
2823,41.0,0.0,180.0,4.0,0.0
2824,38.0,0.0,180.0,4.0,0.0
2825,53.0,4.0,180.0,0.0,0.0
2826,38.0,0.0,180.0,5.0,0.0
2827,38.0,192.0,180.0,8.0,0.0
2828,39.0,0.0,180.0,8.0,0.0
2829,39.0,192.0,180.0,4.0,0.0
2830,39.0,0.0,180.0,5.0,0.0
2831,44.0,0.0,390.0,0.0,0.0
2832,41.0,0.0,180.0,5.0,0.0
2833,41.0,188.0,180.0,8.0,0.0
2834,41.0,0.0,180.0,4.0,0.0
2835,42.0,0.0,180.0,0.0,0.0
2836,42.0,4.0,180.0,5.0,0.0
2837,42.0,96.0,180.0,4.0,0.0
2838,42.0,0.0,180.0,8.0,0.0
2839,68.0,96.0,90.0,6.0,0.0
2840,47.0,4.0,750.0,0.0,0.0
2841,44.0,0.0,180.0,4.0,0.0
2842,44.0,0.0,180.0,8.0,0.0
2843,68.0,0.0,90.0,1.0,0.0
2844,44.0,0.0,180.0,5.0,0.0
2845,70.0,0.0,90.0,1.0,0.0
2846,70.0,96.0,90.0,6.0,0.0
2847,71.0,0.0,90.0,1.0,0.0
2848,46.0,0.0,180.0,4.0,0.0
2849,46.0,0.0,180.0,8.0,0.0
2850,46.0,0.0,180.0,5.0,0.0
2851,71.0,96.0,90.0,6.0,0.0
2852,68.0,96.0,90.0,1.0,0.0
2853,47.0,4.0,180.0,5.0,0.0
2854,68.0,0.0,15.0,6.0,0.0
2855,47.0,0.0,180.0,4.0,0.0
2856,47.0,0.0,180.0,8.0,0.0
2857,68.0,0.0,90.0,1.0,0.0
2858,66.0,188.0,90.0,1.0,0.0
2859,66.0,0.0,90.0,6.0,0.0
2860,37.0,0.0,180.0,8.0,0.0
2861,65.0,0.0,180.0,1.0,0.0
2862,37.0,0.0,180.0,5.0,0.0
2863,65.0,0.0,180.0,6.0,0.0
2864,37.0,188.0,180.0,4.0,0.0
2865,39.0,0.0,180.0,8.0,0.0
2866,46.0,4.0,180.0,0.0,0.0
2867,39.0,0.0,180.0,5.0,0.0
2868,39.0,188.0,180.0,4.0,0.0
2869,41.0,0.0,180.0,5.0,0.0
2870,44.0,4.0,180.0,0.0,0.0
2871,41.0,96.0,180.0,4.0,0.0
2872,41.0,0.0,180.0,8.0,0.0
2873,66.0,96.0,90.0,1.0,0.0
2874,42.0,0.0,180.0,5.0,0.0
2875,42.0,96.0,180.0,8.0,0.0
2876,66.0,0.0,90.0,6.0,0.0
2877,42.0,0.0,180.0,4.0,0.0
2878,46.0,4.0,750.0,0.0,0.0
2879,68.0,0.0,90.0,6.0,0.0
2880,68.0,0.0,90.0,1.0,0.0
2881,44.0,0.0,180.0,4.0,0.0
2882,70.0,96.0,90.0,1.0,0.0
2883,70.0,0.0,90.0,6.0,0.0
2884,44.0,0.0,180.0,8.0,0.0
2885,44.0,0.0,180.0,5.0,0.0
2886,66.0,96.0,90.0,1.0,0.0
2887,46.0,0.0,180.0,8.0,0.0
2888,46.0,4.0,180.0,5.0,0.0
2889,66.0,0.0,15.0,6.0,0.0
2890,66.0,0.0,90.0,1.0,0.0
2891,46.0,188.0,180.0,4.0,0.0
2892,65.0,0.0,90.0,1.0,0.0
2893,65.0,0.0,90.0,6.0,0.0
2894,63.0,0.0,180.0,1.0,0.0
2895,35.0,0.0,390.0,8.0,0.0
2896,35.0,60.0,330.0,5.0,0.0
2897,63.0,128.0,180.0,6.0,0.0
2898,35.0,188.0,390.0,4.0,0.0
2899,44.0,4.0,180.0,0.0,0.0
2900,47.0,0.0,180.0,5.0,0.0
2901,51.0,4.0,180.0,0.0,0.0
2902,47.0,0.0,15.0,8.0,0.0
2903,56.0,4.0,180.0,0.0,0.0
2904,47.0,188.0,15.0,4.0,0.0
2905,56.0,0.0,180.0,2.0,0.0
2906,56.0,128.0,180.0,7.0,0.0
2907,63.0,0.0,180.0,1.0,0.0
2908,63.0,0.0,180.0,6.0,0.0
2909,47.0,60.0,330.0,5.0,0.0
2910,54.0,4.0,180.0,0.0,0.0
2911,44.0,0.0,180.0,8.0,0.0
2912,44.0,0.0,180.0,4.0,0.0
2913,59.0,192.0,180.0,7.0,0.0
2914,65.0,0.0,180.0,6.0,0.0
2915,53.0,4.0,180.0,0.0,0.0
2916,44.0,0.0,180.0,5.0,0.0
2917,59.0,0.0,180.0,2.0,0.0
2918,65.0,0.0,180.0,1.0,0.0
2919,38.0,0.0,390.0,4.0,0.0
2920,38.0,60.0,330.0,5.0,0.0
2921,68.0,0.0,180.0,1.0,0.0
2922,68.0,128.0,180.0,6.0,0.0
2923,65.0,0.0,180.0,7.0,0.0
2924,59.0,0.0,180.0,0.0,0.0
2925,65.0,0.0,180.0,2.0,0.0
2926,38.0,0.0,390.0,8.0,0.0
2927,59.0,0.0,180.0,8.0,0.0
2928,59.0,0.0,180.0,3.0,0.0
2929,58.0,0.0,180.0,8.0,0.0
2930,58.0,4.0,180.0,0.0,0.0
2931,58.0,188.0,180.0,3.0,0.0
2932,68.0,0.0,180.0,6.0,0.0
2933,58.0,0.0,180.0,8.0,0.0
2934,65.0,0.0,180.0,2.0,0.0
2935,65.0,0.0,180.0,7.0,0.0
2936,50.0,0.0,180.0,8.0,0.0
2937,50.0,0.0,180.0,5.0,0.0
2938,50.0,0.0,180.0,4.0,0.0
2939,68.0,0.0,180.0,1.0,0.0
2940,58.0,192.0,180.0,3.0,0.0
2941,56.0,4.0,180.0,0.0,0.0
2942,51.0,60.0,330.0,5.0,0.0
2943,54.0,0.0,180.0,0.0,0.0
2944,63.0,0.0,180.0,2.0,0.0
2945,63.0,0.0,180.0,7.0,0.0
2946,51.0,188.0,390.0,4.0,0.0
2947,66.0,0.0,180.0,6.0,0.0
2948,51.0,0.0,390.0,8.0,0.0
2949,66.0,128.0,180.0,1.0,0.0
2950,53.0,4.0,180.0,0.0,0.0
2951,44.0,0.0,180.0,5.0,0.0
2952,63.0,0.0,180.0,7.0,0.0
2953,59.0,0.0,180.0,8.0,0.0
2954,44.0,0.0,180.0,4.0,0.0
2955,51.0,4.0,180.0,0.0,0.0
2956,44.0,0.0,180.0,8.0,0.0
2957,59.0,0.0,180.0,3.0,0.0
2958,63.0,0.0,180.0,2.0,0.0
2959,62.0,0.0,180.0,2.0,0.0
2960,46.0,60.0,330.0,5.0,0.0
2961,62.0,0.0,180.0,7.0,0.0
2962,58.0,0.0,180.0,3.0,0.0
2963,46.0,0.0,390.0,4.0,0.0
2964,65.0,192.0,15.0,6.0,0.0
2965,65.0,0.0,15.0,1.0,0.0
2966,46.0,188.0,390.0,8.0,0.0
2967,58.0,0.0,180.0,8.0,0.0
2968,50.0,0.0,180.0,0.0,0.0
2969,48.0,4.0,180.0,0.0,0.0
2970,34.0,96.0,180.0,4.0,0.0
2971,34.0,4.0,180.0,5.0,0.0
2972,46.0,0.0,180.0,0.0,0.0
2973,34.0,0.0,180.0,8.0,0.0
2974,50.0,96.0,180.0,8.0,0.0
2975,46.0,0.0,390.0,8.0,0.0
2976,50.0,0.0,180.0,3.0,0.0
2977,46.0,64.0,330.0,5.0,0.0
2978,65.0,96.0,90.0,6.0,0.0
2979,65.0,0.0,90.0,1.0,0.0
2980,66.0,0.0,90.0,1.0,0.0
2981,66.0,0.0,90.0,6.0,0.0
2982,68.0,0.0,90.0,6.0,0.0
2983,53.0,96.0,180.0,8.0,0.0
2984,68.0,32.0,90.0,1.0,0.0
2985,53.0,0.0,180.0,3.0,0.0
2986,65.0,0.0,90.0,1.0,0.0
2987,54.0,0.0,180.0,3.0,0.0
2988,65.0,0.0,15.0,6.0,0.0
2989,65.0,92.0,90.0,1.0,0.0
2990,46.0,0.0,180.0,8.0,0.0
2991,46.0,0.0,15.0,4.0,0.0
2992,46.0,4.0,180.0,5.0,0.0
2993,54.0,96.0,180.0,8.0,0.0
2994,63.0,0.0,90.0,1.0,0.0
2995,56.0,4.0,180.0,0.0,0.0
2996,46.0,0.0,390.0,4.0,0.0
2997,53.0,0.0,390.0,4.0,0.0
2998,46.0,0.0,330.0,5.0,0.0
2999,63.0,0.0,90.0,1.0,0.0
3000,58.0,0.0,180.0,3.0,0.0
3001,53.0,64.0,330.0,5.0,0.0
3002,63.0,0.0,15.0,6.0,0.0
3003,58.0,96.0,180.0,8.0,0.0
3004,53.0,0.0,390.0,8.0,0.0
3005,62.0,0.0,15.0,1.0,0.0
3006,62.0,0.0,15.0,6.0,0.0
3007,56.0,0.0,180.0,8.0,0.0
3008,56.0,0.0,180.0,3.0,0.0
3009,53.0,0.0,180.0,0.0,0.0
3010,60.0,96.0,15.0,1.0,0.0
3011,60.0,0.0,15.0,6.0,0.0
3012,54.0,4.0,180.0,0.0,0.0
3013,54.0,96.0,180.0,8.0,0.0
3014,46.0,0.0,15.0,8.0,0.0
3015,54.0,0.0,180.0,3.0,0.0
3016,46.0,0.0,180.0,5.0,0.0
3017,46.0,0.0,180.0,4.0,0.0
3018,58.0,0.0,90.0,1.0,0.0
3019,58.0,0.0,90.0,6.0,0.0
3020,53.0,96.0,390.0,8.0,0.0
3021,65.0,96.0,90.0,1.0,0.0
3022,50.0,0.0,390.0,3.0,0.0
3023,53.0,0.0,390.0,3.0,0.0
3024,46.0,0.0,390.0,4.0,0.0
3025,46.0,0.0,330.0,5.0,0.0
3026,50.0,64.0,330.0,0.0,0.0
3027,65.0,0.0,90.0,6.0,0.0
3028,50.0,0.0,390.0,8.0,0.0
3029,46.0,0.0,390.0,8.0,0.0
3030,66.0,0.0,90.0,6.0,0.0
3031,66.0,96.0,90.0,1.0,0.0
3032,68.0,32.0,90.0,1.0,0.0
3033,68.0,0.0,90.0,6.0,0.0
3034,65.0,0.0,90.0,6.0,0.0
3035,65.0,92.0,90.0,6.0,0.0
3036,46.0,4.0,180.0,5.0,0.0
3037,65.0,0.0,15.0,1.0,0.0
3038,51.0,0.0,180.0,3.0,0.0
3039,54.0,0.0,180.0,3.0,0.0
3040,46.0,0.0,180.0,0.0,0.0
3041,54.0,0.0,180.0,8.0,0.0
3042,51.0,96.0,180.0,8.0,0.0
3043,63.0,0.0,90.0,1.0,0.0
3044,63.0,0.0,15.0,6.0,0.0
3045,53.0,96.0,390.0,3.0,0.0
3046,58.0,0.0,390.0,3.0,0.0
3047,46.0,0.0,15.0,4.0,0.0
3048,58.0,0.0,390.0,8.0,0.0
3049,53.0,0.0,390.0,8.0,0.0
3050,46.0,0.0,15.0,8.0,0.0
3051,56.0,96.0,180.0,0.0,0.0
3052,63.0,0.0,90.0,1.0,0.0
3053,46.0,60.0,330.0,5.0,0.0
3054,62.0,0.0,90.0,6.0,0.0
3055,62.0,0.0,15.0,1.0,0.0
3056,62.0,32.0,90.0,6.0,0.0
3057,53.0,4.0,180.0,0.0,0.0
3058,60.0,0.0,90.0,6.0,0.0
3059,60.0,0.0,90.0,1.0,0.0
3060,34.0,0.0,180.0,5.0,0.0
3061,60.0,92.0,90.0,1.0,0.0
3062,60.0,0.0,90.0,6.0,0.0
3063,34.0,96.0,180.0,4.0,0.0
3064,54.0,4.0,180.0,0.0,0.0
3065,34.0,0.0,180.0,8.0,0.0
3066,58.0,0.0,90.0,6.0,0.0
3067,58.0,0.0,90.0,1.0,0.0
3068,39.0,4.0,180.0,5.0,0.0
3069,54.0,64.0,330.0,0.0,0.0
3070,70.0,0.0,90.0,1.0,0.0
3071,39.0,0.0,180.0,8.0,0.0
3072,39.0,0.0,180.0,4.0,0.0
3073,70.0,92.0,90.0,6.0,0.0
3074,71.0,96.0,90.0,1.0,0.0
3075,71.0,0.0,90.0,6.0,0.0
3076,58.0,0.0,180.0,3.0,0.0
3077,54.0,0.0,180.0,5.0,0.0
3078,73.0,0.0,90.0,6.0,0.0
3079,54.0,96.0,180.0,4.0,0.0
3080,54.0,0.0,180.0,8.0,0.0
3081,58.0,0.0,180.0,8.0,0.0
3082,73.0,32.0,90.0,1.0,0.0
3083,70.0,0.0,90.0,1.0,0.0
3084,51.0,0.0,180.0,8.0,0.0
3085,70.0,92.0,90.0,1.0,0.0
3086,59.0,0.0,180.0,3.0,0.0
3087,70.0,0.0,15.0,6.0,0.0
3088,59.0,0.0,180.0,8.0,0.0
3089,51.0,4.0,180.0,5.0,0.0
3090,51.0,64.0,330.0,5.0,0.0
3091,51.0,0.0,390.0,8.0,0.0
3092,63.0,0.0,180.0,8.0,0.0
3093,63.0,96.0,180.0,3.0,0.0
3094,68.0,0.0,15.0,6.0,0.0
3095,68.0,0.0,15.0,1.0,0.0
3096,51.0,96.0,15.0,4.0,0.0
3097,58.0,0.0,780.0,0.0,0.0
3098,67.0,0.0,90.0,6.0,0.0
3099,61.0,96.0,180.0,8.0,0.0
3100,61.0,0.0,180.0,3.0,0.0
3101,67.0,0.0,15.0,1.0,0.0
3102,67.0,0.0,90.0,6.0,0.0
3103,65.0,0.0,90.0,6.0,0.0
3104,65.0,0.0,90.0,1.0,0.0
3105,65.0,92.0,90.0,1.0,0.0
3106,65.0,0.0,90.0,6.0,0.0
3107,59.0,0.0,180.0,3.0,0.0
3108,51.0,4.0,180.0,5.0,0.0
3109,51.0,0.0,15.0,4.0,0.0
3110,59.0,96.0,180.0,8.0,0.0
3111,51.0,0.0,180.0,8.0,0.0
3112,63.0,0.0,90.0,6.0,0.0
3113,63.0,0.0,90.0,1.0,0.0
3114,70.0,96.0,90.0,1.0,0.0
3115,51.0,60.0,330.0,5.0,0.0
3116,51.0,0.0,15.0,4.0,0.0
3117,58.0,0.0,180.0,3.0,0.0
3118,70.0,0.0,90.0,6.0,0.0
3119,58.0,96.0,180.0,8.0,0.0
3120,71.0,0.0,90.0,6.0,0.0
3121,71.0,0.0,90.0,1.0,0.0
3122,56.0,96.0,180.0,3.0,0.0
3123,55.0,4.0,180.0,0.0,0.0
3124,73.0,32.0,90.0,6.0,0.0
3125,56.0,0.0,180.0,8.0,0.0
3126,73.0,0.0,90.0,1.0,0.0
3127,70.0,0.0,90.0,1.0,0.0
3128,70.0,0.0,90.0,6.0,0.0
3129,51.0,0.0,15.0,8.0,0.0
3130,56.0,0.0,180.0,0.0,0.0
3131,58.0,0.0,180.0,3.0,0.0
3132,70.0,0.0,90.0,6.0,0.0
3133,51.0,0.0,180.0,4.0,0.0
3134,51.0,4.0,180.0,5.0,0.0
3135,70.0,92.0,90.0,1.0,0.0
3136,58.0,0.0,180.0,8.0,0.0
3137,68.0,0.0,90.0,1.0,0.0
3138,49.0,4.0,750.0,0.0,0.0
3139,56.0,0.0,390.0,8.0,0.0
3140,51.0,0.0,390.0,4.0,0.0
3141,51.0,0.0,390.0,8.0,0.0
3142,56.0,0.0,390.0,3.0,0.0
3143,68.0,96.0,15.0,6.0,0.0
3144,68.0,0.0,90.0,1.0,0.0
3145,51.0,64.0,330.0,5.0,0.0
3146,67.0,96.0,90.0,1.0,0.0
3147,67.0,0.0,15.0,6.0,0.0
3148,67.0,0.0,90.0,1.0,0.0
3149,65.0,0.0,15.0,1.0,0.0
3150,65.0,96.0,15.0,6.0,0.0
3151,39.0,0.0,180.0,8.0,0.0
3152,39.0,0.0,180.0,4.0,0.0
3153,39.0,4.0,180.0,5.0,0.0
3154,63.0,0.0,90.0,1.0,0.0
3155,63.0,96.0,90.0,6.0,0.0
3156,70.0,92.0,90.0,1.0,0.0
3157,55.0,0.0,180.0,8.0,0.0
3158,70.0,0.0,90.0,6.0,0.0
3159,55.0,0.0,180.0,3.0,0.0
3160,51.0,60.0,330.0,5.0,0.0
3161,64.0,0.0,90.0,1.0,0.0
3162,56.0,0.0,180.0,3.0,0.0
3163,64.0,32.0,90.0,1.0,0.0
3164,47.0,4.0,180.0,0.0,0.0
3165,64.0,96.0,15.0,6.0,0.0
3166,56.0,0.0,180.0,8.0,0.0
3167,63.0,0.0,90.0,1.0,0.0
3168,63.0,0.0,90.0,6.0,0.0
3169,51.0,0.0,15.0,8.0,0.0
3170,55.0,96.0,180.0,8.0,0.0
3171,46.0,4.0,180.0,0.0,0.0
3172,55.0,0.0,180.0,3.0,0.0
3173,51.0,0.0,180.0,5.0,0.0
3174,51.0,96.0,15.0,4.0,0.0
3175,63.0,0.0,90.0,1.0,0.0
3176,63.0,92.0,90.0,6.0,0.0
3177,61.0,0.0,90.0,1.0,0.0
3178,61.0,0.0,15.0,6.0,0.0
3179,44.0,0.0,390.0,4.0,0.0
3180,44.0,60.0,330.0,5.0,0.0
3181,56.0,0.0,390.0,3.0,0.0
3182,44.0,0.0,180.0,0.0,0.0
3183,56.0,0.0,390.0,8.0,0.0
3184,44.0,0.0,390.0,8.0,0.0
3185,61.0,96.0,90.0,1.0,0.0
3186,59.0,0.0,90.0,6.0,0.0
3187,43.0,4.0,180.0,0.0,0.0
3188,59.0,96.0,15.0,1.0,0.0
3189,59.0,0.0,90.0,6.0,0.0
3190,58.0,0.0,90.0,6.0,0.0
3191,58.0,92.0,90.0,6.0,0.0
3192,46.0,0.0,180.0,3.0,0.0
3193,44.0,0.0,180.0,0.0,0.0
3194,46.0,4.0,180.0,5.0,0.0
3195,46.0,0.0,180.0,4.0,0.0
3196,46.0,0.0,180.0,8.0,0.0
3197,58.0,96.0,15.0,1.0,0.0
3198,56.0,0.0,90.0,1.0,0.0
3199,56.0,0.0,180.0,3.0,0.0
3200,47.0,64.0,330.0,5.0,0.0
3201,47.0,0.0,390.0,4.0,0.0
3202,56.0,0.0,15.0,6.0,0.0
3203,56.0,96.0,90.0,1.0,0.0
3204,51.0,0.0,2490.0,0.0,0.0
3205,47.0,0.0,390.0,8.0,0.0
3206,56.0,0.0,180.0,8.0,0.0
3207,63.0,0.0,90.0,6.0,0.0
3208,63.0,96.0,90.0,1.0,0.0
3209,54.0,0.0,180.0,8.0,0.0
3210,54.0,0.0,180.0,3.0,0.0
3211,58.0,0.0,90.0,6.0,0.0
3212,58.0,32.0,90.0,1.0,0.0
3213,56.0,96.0,90.0,1.0,0.0
3214,47.0,0.0,180.0,8.0,0.0
3215,56.0,0.0,15.0,6.0,0.0
3216,47.0,4.0,180.0,5.0,0.0
3217,47.0,96.0,180.0,4.0,0.0
3218,53.0,0.0,180.0,3.0,0.0
3219,53.0,0.0,180.0,8.0,0.0
3220,61.0,0.0,180.0,2.0,0.0
3221,61.0,0.0,180.0,7.0,0.0
3222,56.0,0.0,90.0,1.0,0.0
3223,52.0,0.0,90.0,6.0,0.0
3224,52.0,0.0,90.0,1.0,0.0
3225,54.0,0.0,90.0,6.0,0.0
3226,46.0,64.0,330.0,5.0,0.0
3227,54.0,96.0,90.0,1.0,0.0
3228,54.0,0.0,180.0,3.0,0.0
3229,54.0,96.0,180.0,8.0,0.0
3230,46.0,0.0,390.0,8.0,0.0
3231,46.0,0.0,390.0,4.0,0.0
3232,63.0,0.0,90.0,1.0,0.0
3233,63.0,0.0,90.0,6.0,0.0
3234,53.0,0.0,180.0,3.0,0.0
3235,56.0,0.0,90.0,6.0,0.0
3236,53.0,0.0,180.0,8.0,0.0
3237,56.0,32.0,90.0,1.0,0.0
3238,54.0,0.0,90.0,1.0,0.0
3239,51.0,0.0,180.0,3.0,0.0
3240,46.0,4.0,180.0,5.0,0.0
3241,54.0,96.0,15.0,6.0,0.0
3242,51.0,96.0,180.0,8.0,0.0
3243,46.0,0.0,180.0,4.0,0.0
3244,54.0,92.0,90.0,1.0,0.0
3245,46.0,0.0,180.0,8.0,0.0
3246,53.0,0.0,90.0,1.0,0.0
3247,44.0,96.0,390.0,4.0,0.0
3248,53.0,0.0,15.0,6.0,0.0
3249,44.0,0.0,390.0,8.0,0.0
3250,44.0,64.0,330.0,5.0,0.0
3251,53.0,96.0,90.0,1.0,0.0
3252,63.0,0.0,90.0,6.0,0.0
3253,63.0,96.0,90.0,1.0,0.0
3254,56.0,0.0,90.0,6.0,0.0
3255,56.0,32.0,90.0,1.0,0.0
3256,54.0,0.0,90.0,6.0,0.0
3257,54.0,0.0,90.0,1.0,0.0
3258,32.0,0.0,180.0,8.0,0.0
3259,32.0,0.0,180.0,5.0,0.0
3260,32.0,0.0,180.0,4.0,0.0
3261,54.0,96.0,90.0,1.0,0.0
3262,54.0,0.0,90.0,6.0,0.0
3263,53.0,96.0,90.0,1.0,0.0
3264,53.0,0.0,90.0,6.0,0.0
3265,58.0,0.0,180.0,2.0,0.0
3266,58.0,96.0,180.0,7.0,0.0
3267,34.0,64.0,330.0,5.0,0.0
3268,58.0,0.0,90.0,1.0,0.0
3269,34.0,0.0,390.0,4.0,0.0
3270,58.0,96.0,90.0,6.0,0.0
3271,34.0,0.0,390.0,8.0,0.0
3272,62.0,0.0,90.0,1.0,0.0
3273,62.0,0.0,15.0,6.0,0.0
3274,59.0,96.0,180.0,7.0,0.0
3275,59.0,0.0,180.0,2.0,0.0
3276,62.0,32.0,90.0,1.0,0.0
3277,63.0,0.0,90.0,1.0,0.0
3278,58.0,0.0,180.0,2.0,0.0
3279,46.0,0.0,180.0,8.0,0.0
3280,46.0,0.0,180.0,4.0,0.0
3281,63.0,96.0,90.0,1.0,0.0
3282,63.0,0.0,15.0,6.0,0.0
3283,46.0,0.0,180.0,5.0,0.0
3284,58.0,0.0,180.0,7.0,0.0
3285,53.0,0.0,90.0,6.0,0.0
3286,53.0,96.0,90.0,1.0,0.0
3287,56.0,0.0,180.0,2.0,0.0
3288,47.0,60.0,330.0,5.0,0.0
3289,56.0,0.0,180.0,7.0,0.0
3290,47.0,0.0,390.0,8.0,0.0
3291,53.0,0.0,90.0,1.0,0.0
3292,53.0,96.0,90.0,6.0,0.0
3293,47.0,0.0,390.0,4.0,0.0
3294,62.0,0.0,90.0,1.0,0.0
3295,56.0,4.0,180.0,0.0,0.0
3296,62.0,96.0,15.0,6.0,0.0
3297,59.0,96.0,180.0,7.0,0.0
3298,59.0,0.0,180.0,2.0,0.0
3299,62.0,0.0,90.0,1.0,0.0
3300,63.0,0.0,90.0,1.0,0.0
3301,63.0,0.0,15.0,6.0,0.0
3302,35.0,0.0,180.0,8.0,0.0
3303,35.0,0.0,180.0,5.0,0.0
3304,35.0,0.0,180.0,4.0,0.0
3305,56.0,0.0,180.0,2.0,0.0
3306,53.0,4.0,180.0,0.0,0.0
3307,63.0,92.0,90.0,1.0,0.0
3308,56.0,0.0,180.0,7.0,0.0
3309,53.0,96.0,90.0,6.0,0.0
3310,53.0,0.0,90.0,1.0,0.0
3311,34.0,0.0,330.0,5.0,0.0
3312,34.0,96.0,390.0,8.0,0.0
3313,58.0,0.0,570.0,2.0,0.0
3314,34.0,0.0,390.0,4.0,0.0
3315,50.0,64.0,330.0,0.0,0.0
3316,53.0,96.0,90.0,6.0,0.0
3317,53.0,0.0,90.0,1.0,0.0
3318,62.0,96.0,15.0,1.0,0.0
3319,62.0,0.0,15.0,6.0,0.0
3320,63.0,0.0,90.0,1.0,0.0
3321,46.0,4.0,180.0,5.0,0.0
3322,63.0,0.0,15.0,6.0,0.0
3323,46.0,0.0,180.0,0.0,0.0
3324,63.0,0.0,90.0,1.0,0.0
3325,46.0,0.0,180.0,4.0,0.0
3326,46.0,0.0,180.0,8.0,0.0
3327,44.0,0.0,180.0,8.0,0.0
3328,58.0,96.0,15.0,7.0,0.0
3329,44.0,0.0,180.0,5.0,0.0
3330,58.0,0.0,180.0,2.0,0.0
3331,53.0,0.0,15.0,1.0,0.0
3332,53.0,0.0,15.0,6.0,0.0
3333,44.0,0.0,180.0,4.0,0.0
3334,56.0,0.0,90.0,1.0,0.0
3335,56.0,0.0,90.0,6.0,0.0
3336,47.0,4.0,180.0,5.0,0.0
3337,47.0,0.0,180.0,8.0,0.0
3338,56.0,0.0,90.0,1.0,0.0
3339,56.0,0.0,180.0,0.0,0.0
3340,47.0,0.0,180.0,4.0,0.0
3341,61.0,0.0,180.0,7.0,0.0
3342,61.0,0.0,180.0,2.0,0.0
3343,56.0,92.0,90.0,6.0,0.0
3344,54.0,0.0,90.0,6.0,0.0
3345,63.0,188.0,180.0,2.0,0.0
3346,46.0,0.0,180.0,8.0,0.0
3347,63.0,0.0,180.0,7.0,0.0
3348,54.0,92.0,90.0,6.0,0.0
3349,46.0,4.0,180.0,5.0,0.0
3350,54.0,96.0,15.0,1.0,0.0
3351,46.0,0.0,180.0,4.0,0.0
3352,54.0,0.0,180.0,0.0,0.0
3353,44.0,0.0,180.0,4.0,0.0
3354,65.0,0.0,180.0,2.0,0.0
3355,44.0,0.0,180.0,5.0,0.0
3356,65.0,96.0,180.0,7.0,0.0
3357,59.0,0.0,15.0,1.0,0.0
3358,56.0,0.0,180.0,7.0,0.0
3359,59.0,0.0,15.0,6.0,0.0
3360,44.0,0.0,180.0,8.0,0.0
3361,53.0,4.0,180.0,0.0,0.0
3362,56.0,0.0,180.0,2.0,0.0
3363,41.0,4.0,180.0,5.0,0.0
3364,41.0,0.0,180.0,8.0,0.0
3365,51.0,92.0,90.0,0.0,0.0
3366,41.0,188.0,180.0,4.0,0.0
3367,50.0,0.0,90.0,0.0,0.0
3368,51.0,96.0,270.0,0.0,0.0
3369,42.0,92.0,180.0,4.0,0.0
3370,42.0,0.0,180.0,8.0,0.0
3371,42.0,4.0,180.0,5.0,0.0
3372,44.0,188.0,180.0,8.0,0.0
3373,44.0,0.0,180.0,4.0,0.0
3374,44.0,0.0,180.0,5.0,0.0
3375,53.0,4.0,90.0,0.0,0.0
3376,46.0,4.0,180.0,5.0,0.0
3377,53.0,92.0,300.0,0.0,0.0
3378,46.0,0.0,180.0,4.0,0.0
3379,46.0,96.0,180.0,8.0,0.0
3380,34.0,320.0,180.0,8.0,0.0
3381,34.0,0.0,180.0,4.0,0.0
3382,34.0,0.0,180.0,5.0,0.0
3383,51.0,4.0,90.0,0.0,0.0
3384,39.0,188.0,390.0,8.0,0.0
3385,39.0,64.0,330.0,5.0,0.0
3386,39.0,0.0,390.0,4.0,0.0
3387,51.0,0.0,330.0,0.0,0.0
3388,51.0,320.0,180.0,4.0,0.0
3389,51.0,4.0,180.0,5.0,0.0
3390,63.0,0.0,1530.0,1.0,0.0
3391,51.0,0.0,15.0,8.0,0.0
3392,51.0,0.0,390.0,4.0,0.0
3393,63.0,188.0,1530.0,6.0,0.0
3394,51.0,64.0,330.0,5.0,0.0
3395,54.0,188.0,390.0,8.0,0.0
3396,58.0,0.0,390.0,7.0,0.0
3397,58.0,0.0,390.0,2.0,0.0
3398,54.0,0.0,390.0,3.0,0.0
3399,56.0,0.0,180.0,7.0,0.0
3400,39.0,4.0,180.0,5.0,0.0
3401,56.0,0.0,180.0,2.0,0.0
3402,53.0,320.0,180.0,3.0,0.0
3403,53.0,0.0,180.0,8.0,0.0
3404,39.0,0.0,15.0,8.0,0.0
3405,54.0,0.0,390.0,7.0,0.0
3406,51.0,188.0,390.0,3.0,0.0
3407,39.0,0.0,15.0,4.0,0.0
3408,39.0,64.0,330.0,5.0,0.0
3409,54.0,0.0,390.0,2.0,0.0
3410,53.0,192.0,180.0,8.0,0.0
3411,51.0,0.0,15.0,8.0,0.0
3412,56.0,0.0,180.0,7.0,0.0
3413,56.0,0.0,180.0,2.0,0.0
3414,53.0,0.0,180.0,3.0,0.0
3415,51.0,4.0,180.0,5.0,0.0
3416,51.0,0.0,180.0,4.0,0.0
3417,54.0,128.0,180.0,3.0,0.0
3418,51.0,64.0,330.0,5.0,0.0
3419,51.0,0.0,390.0,4.0,0.0
3420,58.0,0.0,180.0,7.0,0.0
3421,58.0,0.0,180.0,2.0,0.0
3422,54.0,0.0,180.0,8.0,0.0
3423,51.0,0.0,390.0,8.0,0.0
3424,60.0,0.0,180.0,2.0,0.0
3425,60.0,0.0,180.0,7.0,0.0
3426,60.0,0.0,180.0,8.0,0.0
3427,60.0,0.0,180.0,3.0,0.0
3428,56.0,0.0,180.0,8.0,0.0
3429,39.0,4.0,180.0,5.0,0.0
3430,65.0,0.0,180.0,1.0,0.0
3431,39.0,0.0,180.0,8.0,0.0
3432,62.0,0.0,180.0,7.0,0.0
3433,62.0,0.0,180.0,2.0,0.0
3434,56.0,320.0,180.0,3.0,0.0
3435,65.0,0.0,180.0,6.0,0.0
3436,39.0,0.0,180.0,4.0,0.0
3437,63.0,0.0,390.0,7.0,0.0
3438,39.0,64.0,330.0,5.0,0.0
3439,39.0,0.0,390.0,4.0,0.0
3440,58.0,0.0,390.0,3.0,0.0
3441,39.0,0.0,390.0,8.0,0.0
3442,66.0,188.0,390.0,6.0,0.0
3443,58.0,0.0,390.0,8.0,0.0
3444,63.0,0.0,390.0,2.0,0.0
3445,66.0,0.0,390.0,1.0,0.0
3446,59.0,0.0,180.0,3.0,0.0
3447,68.0,0.0,180.0,1.0,0.0
3448,51.0,4.0,180.0,5.0,0.0
3449,65.0,0.0,180.0,7.0,0.0
3450,51.0,0.0,180.0,4.0,0.0
3451,65.0,192.0,180.0,2.0,0.0
3452,59.0,0.0,180.0,8.0,0.0
3453,68.0,0.0,180.0,6.0,0.0
3454,61.0,0.0,180.0,3.0,0.0
3455,51.0,0.0,15.0,8.0,0.0
3456,51.0,64.0,330.0,5.0,0.0
3457,67.0,128.0,180.0,7.0,0.0
3458,70.0,0.0,180.0,1.0,0.0
3459,61.0,0.0,180.0,8.0,0.0
3460,51.0,0.0,390.0,4.0,0.0
3461,70.0,0.0,180.0,6.0,0.0
3462,67.0,0.0,180.0,2.0,0.0
3463,68.0,0.0,180.0,6.0,0.0
3464,59.0,0.0,180.0,8.0,0.0
3465,63.0,0.0,180.0,2.0,0.0
3466,59.0,0.0,180.0,3.0,0.0
3467,68.0,188.0,180.0,1.0,0.0
3468,63.0,0.0,180.0,7.0,0.0
3469,61.0,0.0,180.0,8.0,0.0
3470,67.0,0.0,180.0,7.0,0.0
3471,61.0,0.0,180.0,3.0,0.0
3472,70.0,0.0,390.0,6.0,0.0
3473,67.0,192.0,180.0,2.0,0.0
3474,70.0,0.0,390.0,1.0,0.0
3475,39.0,4.0,180.0,5.0,0.0
3476,39.0,0.0,15.0,4.0,0.0
3477,39.0,64.0,330.0,5.0,0.0
3478,39.0,0.0,15.0,8.0,0.0
3479,59.0,0.0,15.0,3.0,0.0
3480,63.0,128.0,15.0,2.0,0.0
3481,63.0,0.0,15.0,7.0,0.0
3482,68.0,0.0,180.0,1.0,0.0
3483,59.0,0.0,15.0,8.0,0.0
3484,68.0,0.0,180.0,6.0,0.0
3485,66.0,0.0,180.0,1.0,0.0
3486,51.0,4.0,180.0,5.0,0.0
3487,61.0,0.0,180.0,7.0,0.0
3488,58.0,192.0,180.0,8.0,0.0
3489,66.0,0.0,180.0,6.0,0.0
3490,61.0,0.0,180.0,2.0,0.0
3491,58.0,0.0,180.0,3.0,0.0
3492,68.0,0.0,180.0,1.0,0.0
3493,68.0,0.0,180.0,6.0,0.0
3494,63.0,0.0,180.0,2.0,0.0
3495,51.0,0.0,15.0,4.0,0.0
3496,51.0,64.0,330.0,5.0,0.0
3497,59.0,0.0,180.0,3.0,0.0
3498,59.0,0.0,180.0,8.0,0.0
3499,51.0,0.0,15.0,8.0,0.0
3500,63.0,128.0,180.0,7.0,0.0
3501,59.0,188.0,180.0,8.0,0.0
3502,59.0,0.0,180.0,3.0,0.0
3503,71.0,0.0,180.0,1.0,0.0
3504,71.0,0.0,180.0,6.0,0.0
3505,65.0,0.0,180.0,2.0,0.0
3506,65.0,0.0,180.0,7.0,0.0
3507,61.0,0.0,180.0,8.0,0.0
3508,67.0,0.0,180.0,7.0,0.0
3509,61.0,320.0,180.0,3.0,0.0
3510,70.0,0.0,180.0,1.0,0.0
3511,39.0,4.0,180.0,5.0,0.0
3512,67.0,0.0,180.0,2.0,0.0
3513,39.0,0.0,180.0,4.0,0.0
3514,70.0,0.0,180.0,6.0,0.0
3515,39.0,0.0,180.0,8.0,0.0
3516,44.0,64.0,330.0,5.0,0.0
3517,68.0,0.0,390.0,7.0,0.0
3518,68.0,0.0,390.0,2.0,0.0
3519,71.0,0.0,390.0,1.0,0.0
3520,44.0,0.0,390.0,8.0,0.0
3521,63.0,188.0,390.0,8.0,0.0
3522,44.0,0.0,390.0,4.0,0.0
3523,71.0,0.0,390.0,6.0,0.0
3524,63.0,0.0,390.0,3.0,0.0
3525,32.0,4.0,180.0,5.0,0.0
3526,67.0,0.0,180.0,7.0,0.0
3527,67.0,0.0,180.0,2.0,0.0
3528,70.0,0.0,180.0,1.0,0.0
3529,61.0,0.0,180.0,8.0,0.0
3530,70.0,0.0,180.0,6.0,0.0
3531,61.0,0.0,180.0,3.0,0.0
3532,32.0,0.0,15.0,8.0,0.0
3533,68.0,0.0,180.0,2.0,0.0
3534,59.0,128.0,180.0,8.0,0.0
3535,32.0,64.0,330.0,5.0,0.0
3536,59.0,0.0,180.0,3.0,0.0
3537,71.0,0.0,180.0,6.0,0.0
3538,68.0,0.0,180.0,7.0,0.0
3539,71.0,0.0,180.0,1.0,0.0
3540,32.0,192.0,15.0,4.0,0.0
3541,65.0,0.0,180.0,2.0,0.0
3542,65.0,0.0,180.0,7.0,0.0
3543,56.0,0.0,180.0,3.0,0.0
3544,65.0,192.0,180.0,6.0,0.0
3545,65.0,0.0,180.0,1.0,0.0
3546,56.0,0.0,180.0,8.0,0.0
3547,44.0,0.0,390.0,8.0,0.0
3548,44.0,4.0,390.0,5.0,0.0
3549,50.0,188.0,180.0,3.0,0.0
3550,63.0,0.0,180.0,1.0,0.0
3551,59.0,0.0,180.0,7.0,0.0
3552,59.0,0.0,180.0,2.0,0.0
3553,44.0,0.0,390.0,4.0,0.0
3554,63.0,0.0,180.0,6.0,0.0
3555,50.0,0.0,180.0,8.0,0.0
3556,58.0,0.0,180.0,7.0,0.0
3557,62.0,0.0,180.0,1.0,0.0
3558,62.0,0.0,180.0,6.0,0.0
3559,56.0,0.0,180.0,8.0,0.0
3560,58.0,0.0,180.0,2.0,0.0
3561,56.0,188.0,180.0,3.0,0.0
3562,68.0,0.0,180.0,1.0,0.0
3563,59.0,0.0,180.0,2.0,0.0
3564,41.0,0.0,180.0,4.0,0.0
3565,68.0,0.0,180.0,6.0,0.0
3566,41.0,4.0,180.0,5.0,0.0
3567,59.0,0.0,180.0,7.0,0.0
3568,59.0,0.0,180.0,3.0,0.0
3569,41.0,188.0,180.0,8.0,0.0
3570,59.0,0.0,180.0,8.0,0.0
3571,61.0,0.0,180.0,7.0,0.0
3572,61.0,192.0,180.0,2.0,0.0
3573,42.0,0.0,180.0,4.0,0.0
3574,42.0,4.0,180.0,5.0,0.0
3575,42.0,0.0,180.0,8.0,0.0
3576,58.0,0.0,180.0,3.0,0.0
3577,66.0,0.0,180.0,6.0,0.0
3578,66.0,0.0,180.0,1.0,0.0
3579,58.0,0.0,180.0,8.0,0.0
3580,65.0,0.0,180.0,6.0,0.0
3581,58.0,0.0,180.0,7.0,0.0
3582,44.0,0.0,180.0,4.0,0.0
3583,44.0,0.0,180.0,5.0,0.0
3584,65.0,0.0,180.0,1.0,0.0
3585,56.0,48.0,180.0,3.0,0.0
3586,44.0,0.0,180.0,8.0,0.0
3587,56.0,0.0,180.0,8.0,0.0
3588,58.0,0.0,180.0,2.0,0.0
3589,46.0,0.0,180.0,8.0,0.0
3590,54.0,0.0,40.0,3.0,0.0
3591,59.0,0.0,40.0,2.0,0.0
3592,54.0,0.0,40.0,8.0,0.0
3593,59.0,0.0,40.0,7.0,0.0
3594,63.0,48.0,40.0,6.0,0.0
3595,46.0,4.0,180.0,5.0,0.0
3596,63.0,0.0,40.0,1.0,0.0
3597,46.0,0.0,180.0,4.0,0.0
3598,62.0,0.0,40.0,1.0,0.0
3599,53.0,0.0,40.0,3.0,0.0
3600,58.0,0.0,40.0,2.0,0.0
3601,62.0,0.0,40.0,6.0,0.0
3602,53.0,0.0,40.0,8.0,0.0
3603,58.0,48.0,40.0,7.0,0.0
3604,59.0,44.0,40.0,7.0,0.0
3605,63.0,0.0,40.0,6.0,0.0
3606,54.0,0.0,40.0,8.0,0.0
3607,59.0,0.0,40.0,2.0,0.0
3608,54.0,0.0,40.0,3.0,0.0
3609,63.0,0.0,40.0,1.0,0.0
3610,62.0,48.0,40.0,1.0,0.0
3611,53.0,0.0,40.0,3.0,0.0
3612,62.0,0.0,40.0,6.0,0.0
3613,58.0,0.0,40.0,7.0,0.0
3614,58.0,0.0,40.0,2.0,0.0
3615,53.0,0.0,40.0,8.0,0.0
3616,54.0,0.0,40.0,3.0,0.0
3617,63.0,0.0,40.0,6.0,0.0
3618,63.0,140.0,40.0,1.0,0.0
3619,34.0,0.0,180.0,8.0,0.0
3620,54.0,0.0,40.0,8.0,0.0
3621,59.0,0.0,40.0,7.0,0.0
3622,34.0,4.0,180.0,5.0,0.0
3623,34.0,0.0,180.0,4.0,0.0
3624,59.0,0.0,40.0,2.0,0.0
3625,53.0,0.0,150.0,8.0,0.0
3626,62.0,0.0,150.0,6.0,0.0
3627,62.0,0.0,150.0,1.0,0.0
3628,53.0,0.0,150.0,3.0,0.0
3629,58.0,192.0,150.0,7.0,0.0
3630,58.0,0.0,150.0,2.0,0.0
3631,54.0,128.0,180.0,3.0,0.0
3632,54.0,0.0,180.0,8.0,0.0
3633,39.0,188.0,390.0,8.0,0.0
3634,39.0,0.0,390.0,4.0,0.0
3635,63.0,0.0,180.0,6.0,0.0
3636,39.0,64.0,330.0,5.0,0.0
3637,63.0,0.0,180.0,7.0,0.0
3638,63.0,0.0,180.0,1.0,0.0
3639,58.0,0.0,180.0,8.0,0.0
3640,63.0,0.0,15.0,2.0,0.0
3641,66.0,0.0,180.0,6.0,0.0
3642,66.0,0.0,180.0,1.0,0.0
3643,58.0,0.0,180.0,3.0,0.0
3644,63.0,0.0,180.0,7.0,0.0
3645,65.0,0.0,180.0,7.0,0.0
3646,65.0,0.0,180.0,2.0,0.0
3647,51.0,0.0,180.0,8.0,0.0
3648,68.0,192.0,180.0,6.0,0.0
3649,68.0,0.0,180.0,1.0,0.0
3650,51.0,0.0,180.0,4.0,0.0
3651,51.0,4.0,180.0,5.0,0.0
3652,51.0,0.0,390.0,8.0,0.0
3653,54.0,64.0,330.0,0.0,0.0
3654,51.0,0.0,390.0,4.0,0.0
3655,70.0,0.0,180.0,1.0,0.0
3656,66.0,0.0,180.0,7.0,0.0
3657,70.0,0.0,180.0,6.0,0.0
3658,51.0,0.0,330.0,5.0,0.0
3659,66.0,128.0,180.0,2.0,0.0
3660,72.0,0.0,180.0,6.0,0.0
3661,68.0,0.0,180.0,7.0,0.0
3662,68.0,0.0,180.0,2.0,0.0
3663,72.0,192.0,180.0,1.0,0.0
3664,73.0,0.0,180.0,6.0,0.0
3665,39.0,192.0,180.0,4.0,0.0
3666,39.0,0.0,180.0,5.0,0.0
3667,39.0,0.0,180.0,8.0,0.0
3668,73.0,0.0,180.0,1.0,0.0
3669,70.0,0.0,180.0,2.0,0.0
3670,70.0,0.0,180.0,7.0,0.0
3671,68.0,0.0,180.0,7.0,0.0
3672,72.0,128.0,180.0,1.0,0.0
3673,72.0,0.0,180.0,6.0,0.0
3674,44.0,0.0,390.0,8.0,0.0
3675,44.0,64.0,330.0,5.0,0.0
3676,68.0,0.0,180.0,2.0,0.0
3677,44.0,0.0,390.0,4.0,0.0
3678,60.0,188.0,180.0,3.0,0.0
3679,63.0,0.0,180.0,7.0,0.0
3680,60.0,0.0,180.0,8.0,0.0
3681,68.0,0.0,180.0,6.0,0.0
3682,68.0,0.0,180.0,1.0,0.0
3683,63.0,0.0,180.0,2.0,0.0
3684,64.0,0.0,180.0,2.0,0.0
3685,56.0,0.0,180.0,8.0,0.0
3686,44.0,4.0,180.0,0.0,0.0
3687,70.0,0.0,180.0,6.0,0.0
3688,61.0,0.0,180.0,8.0,0.0
3689,56.0,0.0,180.0,5.0,0.0
3690,70.0,0.0,180.0,1.0,0.0
3691,64.0,0.0,180.0,7.0,0.0
3692,61.0,0.0,180.0,3.0,0.0
3693,63.0,128.0,180.0,3.0,0.0
3694,56.0,0.0,390.0,8.0,0.0
3695,63.0,0.0,180.0,8.0,0.0
3696,72.0,0.0,180.0,6.0,0.0
3697,72.0,0.0,180.0,1.0,0.0
3698,56.0,192.0,15.0,4.0,0.0
3699,54.0,64.0,330.0,0.0,0.0
3700,56.0,0.0,330.0,5.0,0.0
3701,66.0,0.0,180.0,2.0,0.0
3702,66.0,0.0,180.0,7.0,0.0
3703,73.0,0.0,180.0,6.0,0.0
3704,65.0,0.0,180.0,3.0,0.0
3705,68.0,0.0,180.0,2.0,0.0
3706,65.0,192.0,180.0,8.0,0.0
3707,73.0,0.0,180.0,1.0,0.0
3708,68.0,0.0,180.0,7.0,0.0
3709,75.0,0.0,180.0,1.0,0.0
3710,44.0,0.0,180.0,5.0,0.0
3711,66.0,0.0,180.0,3.0,0.0
3712,75.0,192.0,180.0,6.0,0.0
3713,71.0,0.0,180.0,7.0,0.0
3714,44.0,0.0,180.0,4.0,0.0
3715,71.0,0.0,180.0,2.0,0.0
3716,44.0,0.0,180.0,8.0,0.0
3717,66.0,0.0,180.0,8.0,0.0
3718,37.0,64.0,330.0,5.0,0.0
3719,37.0,0.0,390.0,4.0,0.0
3720,76.0,0.0,180.0,1.0,0.0
3721,73.0,0.0,180.0,2.0,0.0
3722,68.0,0.0,180.0,2.0,0.0
3723,37.0,0.0,390.0,8.0,0.0
3724,73.0,0.0,180.0,7.0,0.0
3725,68.0,0.0,180.0,7.0,0.0
3726,76.0,128.0,180.0,6.0,0.0
3727,61.0,0.0,180.0,2.0,0.0
3728,64.0,188.0,180.0,1.0,0.0
3729,61.0,0.0,180.0,7.0,0.0
3730,64.0,0.0,180.0,6.0,0.0
3731,66.0,0.0,180.0,6.0,0.0
3732,49.0,0.0,180.0,8.0,0.0
3733,49.0,0.0,180.0,4.0,0.0
3734,63.0,192.0,180.0,2.0,0.0
3735,63.0,0.0,180.0,7.0,0.0
3736,49.0,4.0,180.0,5.0,0.0
3737,66.0,0.0,180.0,1.0,0.0
3738,49.0,64.0,330.0,5.0,0.0
3739,68.0,0.0,180.0,6.0,0.0
3740,49.0,0.0,390.0,8.0,0.0
3741,65.0,0.0,180.0,7.0,0.0
3742,68.0,0.0,180.0,1.0,0.0
3743,49.0,0.0,390.0,4.0,0.0
3744,65.0,128.0,180.0,2.0,0.0
3745,52.0,0.0,330.0,0.0,0.0
3746,66.0,0.0,180.0,7.0,0.0
3747,66.0,192.0,180.0,2.0,0.0
3748,70.0,0.0,180.0,6.0,0.0
3749,70.0,0.0,180.0,1.0,0.0
3750,68.0,0.0,180.0,7.0,0.0
3751,68.0,0.0,180.0,2.0,0.0
3752,37.0,0.0,180.0,5.0,0.0
3753,37.0,0.0,180.0,8.0,0.0
3754,37.0,0.0,180.0,4.0,0.0
3755,71.0,192.0,180.0,6.0,0.0
3756,71.0,0.0,180.0,1.0,0.0
3757,70.0,0.0,180.0,1.0,0.0
3758,42.0,188.0,390.0,8.0,0.0
3759,42.0,0.0,390.0,4.0,0.0
3760,70.0,0.0,180.0,6.0,0.0
3761,66.0,0.0,180.0,7.0,0.0
3762,66.0,128.0,180.0,2.0,0.0
3763,42.0,64.0,330.0,5.0,0.0
3764,66.0,0.0,180.0,1.0,0.0
3765,61.0,0.0,180.0,7.0,0.0
3766,66.0,0.0,180.0,6.0,0.0
3767,58.0,0.0,180.0,3.0,0.0
3768,58.0,0.0,180.0,8.0,0.0
3769,61.0,0.0,180.0,2.0,0.0
3770,68.0,0.0,180.0,1.0,0.0
3771,54.0,0.0,180.0,4.0,0.0
3772,63.0,0.0,180.0,2.0,0.0
3773,54.0,0.0,180.0,5.0,0.0
3774,63.0,0.0,180.0,7.0,0.0
3775,42.0,4.0,180.0,0.0,0.0
3776,68.0,192.0,180.0,6.0,0.0
3777,59.0,0.0,180.0,3.0,0.0
3778,59.0,0.0,180.0,8.0,0.0
3779,54.0,0.0,180.0,8.0,0.0
3780,65.0,0.0,180.0,7.0,0.0
3781,54.0,0.0,390.0,4.0,0.0
3782,70.0,0.0,180.0,6.0,0.0
3783,54.0,0.0,390.0,8.0,0.0
3784,61.0,128.0,180.0,8.0,0.0
3785,54.0,64.0,330.0,5.0,0.0
3786,52.0,0.0,330.0,0.0,0.0
3787,70.0,0.0,180.0,1.0,0.0
3788,65.0,0.0,180.0,2.0,0.0
3789,61.0,0.0,180.0,3.0,0.0
3790,71.0,0.0,180.0,6.0,0.0
3791,66.0,0.0,180.0,2.0,0.0
3792,71.0,0.0,180.0,1.0,0.0
3793,63.0,0.0,180.0,3.0,0.0
3794,66.0,192.0,180.0,7.0,0.0
3795,63.0,0.0,180.0,8.0,0.0
3796,70.0,0.0,180.0,7.0,0.0
3797,65.0,0.0,180.0,8.0,0.0
3798,42.0,0.0,180.0,4.0,0.0
3799,73.0,320.0,180.0,6.0,0.0
3800,70.0,0.0,180.0,2.0,0.0
3801,42.0,0.0,180.0,5.0,0.0
3802,65.0,0.0,180.0,3.0,0.0
3803,73.0,0.0,180.0,1.0,0.0
3804,42.0,0.0,180.0,8.0,0.0
3805,35.0,64.0,330.0,5.0,0.0
3806,63.0,0.0,390.0,3.0,0.0
3807,71.0,0.0,390.0,2.0,0.0
3808,63.0,0.0,390.0,8.0,0.0
3809,35.0,188.0,390.0,8.0,0.0
3810,71.0,0.0,390.0,7.0,0.0
3811,35.0,0.0,390.0,4.0,0.0
3812,75.0,0.0,390.0,6.0,0.0
3813,75.0,0.0,390.0,1.0,0.0
3814,47.0,0.0,180.0,8.0,0.0
3815,51.0,0.0,180.0,0.0,0.0
3816,47.0,4.0,180.0,5.0,0.0
3817,61.0,0.0,390.0,2.0,0.0
3818,56.0,128.0,180.0,0.0,0.0
3819,47.0,60.0,330.0,5.0,0.0
3820,47.0,192.0,15.0,4.0,0.0
3821,65.0,0.0,390.0,6.0,0.0
3822,65.0,188.0,390.0,1.0,0.0
3823,56.0,0.0,390.0,3.0,0.0
3824,47.0,0.0,390.0,8.0,0.0
3825,56.0,0.0,390.0,8.0,0.0
3826,53.0,4.0,180.0,0.0,0.0
3827,54.0,4.0,180.0,0.0,0.0
3828,46.0,0.0,180.0,8.0,0.0
3829,61.0,0.0,15.0,7.0,0.0
3830,46.0,0.0,180.0,5.0,0.0
3831,54.0,0.0,180.0,8.0,0.0
3832,66.0,0.0,180.0,1.0,0.0
3833,54.0,64.0,180.0,3.0,0.0
3834,66.0,0.0,180.0,6.0,0.0
3835,46.0,0.0,180.0,4.0,0.0
3836,61.0,0.0,180.0,2.0,0.0
3837,59.0,64.0,180.0,7.0,0.0
3838,44.0,0.0,60.0,5.0,0.0
3839,59.0,0.0,180.0,2.0,0.0
3840,44.0,0.0,60.0,8.0,0.0
3841,47.0,132.0,750.0,0.0,0.0
3842,44.0,128.0,60.0,4.0,0.0
3843,47.0,0.0,60.0,8.0,0.0
3844,47.0,192.0,60.0,5.0,0.0
3845,47.0,0.0,60.0,4.0,0.0
3846,51.0,0.0,60.0,8.0,0.0
3847,51.0,316.0,60.0,4.0,0.0
3848,51.0,0.0,60.0,5.0,0.0
3849,63.0,0.0,570.0,1.0,0.0
3850,56.0,188.0,390.0,8.0,0.0
3851,63.0,0.0,570.0,6.0,0.0
3852,56.0,0.0,390.0,4.0,0.0
3853,59.0,0.0,570.0,7.0,0.0
3854,56.0,60.0,330.0,5.0,0.0
3855,59.0,0.0,570.0,2.0,0.0
3856,51.0,4.0,180.0,0.0,0.0
3857,54.0,0.0,180.0,8.0,0.0
3858,56.0,4.0,180.0,0.0,0.0
3859,54.0,0.0,180.0,5.0,0.0
3860,54.0,192.0,180.0,4.0,0.0
3861,53.0,60.0,330.0,5.0,0.0
3862,59.0,0.0,180.0,3.0,0.0
3863,59.0,0.0,180.0,8.0,0.0
3864,68.0,0.0,180.0,1.0,0.0
3865,59.0,0.0,180.0,0.0,0.0
3866,53.0,188.0,390.0,4.0,0.0
3867,61.0,0.0,180.0,7.0,0.0
3868,53.0,0.0,390.0,8.0,0.0
3869,68.0,128.0,180.0,6.0,0.0
3870,61.0,0.0,180.0,2.0,0.0
3871,56.0,4.0,180.0,0.0,0.0
3872,54.0,0.0,180.0,8.0,0.0
3873,58.0,0.0,180.0,8.0,0.0
3874,58.0,4.0,180.0,0.0,0.0
3875,61.0,0.0,180.0,2.0,0.0
3876,61.0,0.0,180.0,7.0,0.0
3877,66.0,0.0,180.0,1.0,0.0
3878,58.0,192.0,180.0,3.0,0.0
3879,54.0,0.0,180.0,5.0,0.0
3880,54.0,0.0,180.0,4.0,0.0
3881,58.0,0.0,180.0,8.0,0.0
3882,58.0,0.0,180.0,7.0,0.0
3883,53.0,0.0,180.0,0.0,0.0
3884,51.0,0.0,390.0,8.0,0.0
3885,58.0,0.0,180.0,2.0,0.0
3886,66.0,0.0,15.0,6.0,0.0
3887,51.0,188.0,390.0,4.0,0.0
3888,51.0,60.0,330.0,5.0,0.0
3889,58.0,0.0,180.0,3.0,0.0
3890,66.0,0.0,180.0,1.0,0.0
3891,54.0,4.0,180.0,0.0,0.0
3892,47.0,0.0,180.0,8.0,0.0
3893,63.0,0.0,180.0,7.0,0.0
3894,66.0,0.0,180.0,6.0,0.0
3895,66.0,0.0,180.0,1.0,0.0
3896,63.0,0.0,180.0,2.0,0.0
3897,47.0,0.0,180.0,4.0,0.0
3898,47.0,4.0,180.0,0.0,0.0
3899,47.0,0.0,180.0,5.0,0.0
3900,61.0,128.0,180.0,7.0,0.0
3901,65.0,0.0,180.0,6.0,0.0
3902,65.0,0.0,180.0,1.0,0.0
3903,56.0,0.0,15.0,8.0,0.0
3904,56.0,192.0,15.0,3.0,0.0
3905,61.0,0.0,180.0,2.0,0.0
3906,49.0,0.0,390.0,4.0,0.0
3907,44.0,64.0,510.0,0.0,0.0
3908,49.0,64.0,330.0,5.0,0.0
3909,49.0,0.0,390.0,8.0,0.0
3910,53.0,0.0,180.0,3.0,0.0
3911,56.0,0.0,180.0,2.0,0.0
3912,61.0,128.0,180.0,1.0,0.0
3913,61.0,0.0,180.0,6.0,0.0
3914,56.0,0.0,180.0,7.0,0.0
3915,53.0,0.0,180.0,8.0,0.0
3916,63.0,0.0,180.0,1.0,0.0
3917,58.0,0.0,180.0,2.0,0.0
3918,58.0,0.0,180.0,7.0,0.0
3919,47.0,0.0,180.0,4.0,0.0
3920,47.0,0.0,180.0,5.0,0.0
3921,54.0,192.0,180.0,8.0,0.0
3922,63.0,0.0,180.0,6.0,0.0
3923,54.0,0.0,180.0,3.0,0.0
3924,47.0,0.0,180.0,8.0,0.0
3925,65.0,0.0,180.0,6.0,0.0
3926,65.0,0.0,180.0,1.0,0.0
3927,46.0,0.0,390.0,4.0,0.0
3928,46.0,64.0,330.0,5.0,0.0
3929,59.0,0.0,180.0,2.0,0.0
3930,46.0,0.0,390.0,8.0,0.0
3931,56.0,0.0,180.0,8.0,0.0
3932,59.0,0.0,180.0,7.0,0.0
3933,56.0,128.0,180.0,3.0,0.0
3934,58.0,0.0,180.0,8.0,0.0
3935,66.0,0.0,180.0,6.0,0.0
3936,58.0,192.0,180.0,3.0,0.0
3937,66.0,0.0,180.0,1.0,0.0
3938,61.0,0.0,180.0,7.0,0.0
3939,61.0,0.0,180.0,2.0,0.0
3940,44.0,0.0,180.0,4.0,0.0
3941,59.0,0.0,180.0,8.0,0.0
3942,65.0,0.0,180.0,2.0,0.0
3943,44.0,0.0,180.0,5.0,0.0
3944,65.0,0.0,180.0,7.0,0.0
3945,44.0,0.0,180.0,8.0,0.0
3946,68.0,0.0,180.0,1.0,0.0
3947,68.0,192.0,180.0,6.0,0.0
3948,59.0,0.0,180.0,3.0,0.0
3949,66.0,0.0,180.0,2.0,0.0
3950,70.0,128.0,180.0,1.0,0.0
3951,66.0,0.0,180.0,7.0,0.0
3952,42.0,64.0,330.0,5.0,0.0
3953,61.0,0.0,180.0,3.0,0.0
3954,42.0,0.0,390.0,8.0,0.0
3955,61.0,0.0,180.0,8.0,0.0
3956,70.0,0.0,180.0,6.0,0.0
3957,42.0,0.0,390.0,4.0,0.0
3958,71.0,0.0,180.0,6.0,0.0
3959,71.0,0.0,180.0,1.0,0.0
3960,68.0,188.0,180.0,2.0,0.0
3961,63.0,0.0,180.0,8.0,0.0
3962,68.0,0.0,180.0,7.0,0.0
3963,63.0,0.0,180.0,3.0,0.0
3964,54.0,0.0,180.0,8.0,0.0
3965,59.0,0.0,390.0,8.0,0.0
3966,65.0,0.0,390.0,7.0,0.0
3967,68.0,0.0,390.0,6.0,0.0
3968,54.0,4.0,180.0,5.0,0.0
3969,68.0,128.0,390.0,1.0,0.0
3970,59.0,0.0,390.0,3.0,0.0
3971,65.0,0.0,390.0,2.0,0.0
3972,54.0,0.0,390.0,8.0,0.0
3973,54.0,192.0,15.0,4.0,0.0
3974,54.0,64.0,330.0,5.0,0.0
3975,66.0,0.0,180.0,7.0,0.0
3976,61.0,188.0,180.0,8.0,0.0
3977,66.0,0.0,180.0,2.0,0.0
3978,70.0,0.0,180.0,1.0,0.0
3979,70.0,0.0,180.0,6.0,0.0
3980,61.0,0.0,180.0,3.0,0.0
3981,61.0,0.0,390.0,2.0,0.0
3982,61.0,0.0,390.0,7.0,0.0
3983,58.0,0.0,390.0,3.0,0.0
3984,42.0,4.0,180.0,5.0,0.0
3985,66.0,0.0,390.0,6.0,0.0
3986,66.0,128.0,390.0,1.0,0.0
3987,42.0,192.0,180.0,8.0,0.0
3988,58.0,0.0,390.0,8.0,0.0
3989,42.0,64.0,330.0,5.0,0.0
3990,42.0,0.0,15.0,4.0,0.0
3991,42.0,0.0,390.0,8.0,0.0
3992,63.0,188.0,180.0,2.0,0.0
3993,59.0,0.0,180.0,3.0,0.0
3994,63.0,0.0,180.0,7.0,0.0
3995,59.0,0.0,180.0,8.0,0.0
3996,68.0,0.0,180.0,6.0,0.0
3997,68.0,0.0,180.0,1.0,0.0
3998,65.0,96.0,300.0,6.0,0.0
3999,59.0,0.0,390.0,2.0,0.0
4000,56.0,0.0,390.0,3.0,0.0
4001,54.0,4.0,180.0,5.0,0.0
4002,65.0,0.0,300.0,1.0,0.0
4003,56.0,0.0,390.0,8.0,0.0
4004,54.0,0.0,15.0,8.0,0.0
4005,54.0,64.0,330.0,5.0,0.0
4006,54.0,96.0,15.0,4.0,0.0
4007,66.0,0.0,90.0,6.0,0.0
4008,66.0,128.0,90.0,1.0,0.0
4009,59.0,0.0,180.0,8.0,0.0
4010,59.0,0.0,15.0,7.0,0.0
4011,59.0,0.0,180.0,3.0,0.0
4012,68.0,0.0,180.0,6.0,0.0
4013,59.0,0.0,180.0,2.0,0.0
4014,68.0,188.0,180.0,1.0,0.0
4015,53.0,0.0,180.0,3.0,0.0
4016,56.0,320.0,180.0,7.0,0.0
4017,53.0,0.0,180.0,8.0,0.0
4018,42.0,0.0,180.0,4.0,0.0
4019,56.0,0.0,180.0,2.0,0.0
4020,59.0,0.0,180.0,6.0,0.0
4021,42.0,0.0,180.0,8.0,0.0
4022,59.0,0.0,180.0,1.0,0.0
4023,42.0,4.0,180.0,5.0,0.0
4024,54.0,0.0,390.0,2.0,0.0
4025,58.0,96.0,660.0,6.0,0.0
4026,42.0,64.0,330.0,5.0,0.0
4027,58.0,0.0,660.0,1.0,0.0
4028,42.0,0.0,390.0,4.0,0.0
4029,54.0,188.0,390.0,7.0,0.0
4030,42.0,0.0,390.0,8.0,0.0
4031,54.0,4.0,180.0,5.0,0.0
4032,56.0,0.0,180.0,7.0,0.0
4033,54.0,0.0,180.0,4.0,0.0
4034,54.0,96.0,180.0,8.0,0.0
4035,56.0,0.0,180.0,2.0,0.0
4036,59.0,96.0,180.0,2.0,0.0
4037,49.0,0.0,330.0,0.0,0.0
4038,59.0,0.0,180.0,7.0,0.0
4039,54.0,0.0,390.0,4.0,0.0
4040,54.0,0.0,390.0,8.0,0.0
4041,54.0,64.0,330.0,5.0,0.0
4042,66.0,0.0,90.0,6.0,0.0
4043,66.0,0.0,90.0,1.0,0.0
4044,61.0,0.0,90.0,6.0,0.0
4045,58.0,96.0,180.0,7.0,0.0
4046,58.0,0.0,180.0,2.0,0.0
4047,61.0,32.0,90.0,1.0,0.0
4048,59.0,0.0,90.0,6.0,0.0
4049,59.0,0.0,90.0,1.0,0.0
4050,47.0,0.0,180.0,0.0,0.0
4051,42.0,4.0,180.0,5.0,0.0
4052,56.0,0.0,390.0,2.0,0.0
4053,59.0,92.0,90.0,6.0,0.0
4054,56.0,128.0,390.0,7.0,0.0
4055,42.0,0.0,180.0,4.0,0.0
4056,59.0,0.0,90.0,1.0,0.0
4057,58.0,0.0,90.0,6.0,0.0
4058,58.0,0.0,90.0,1.0,0.0
4059,46.0,64.0,330.0,0.0,0.0
4060,42.0,0.0,390.0,4.0,0.0
4061,42.0,192.0,15.0,8.0,0.0
4062,42.0,0.0,330.0,5.0,0.0
4063,58.0,96.0,660.0,6.0,0.0
4064,58.0,0.0,660.0,1.0,0.0
4065,58.0,0.0,390.0,7.0,0.0
4066,58.0,0.0,390.0,2.0,0.0
4067,54.0,0.0,180.0,5.0,0.0
4068,47.0,4.0,180.0,0.0,0.0
4069,54.0,0.0,180.0,4.0,0.0
4070,54.0,96.0,15.0,8.0,0.0
4071,54.0,60.0,330.0,5.0,0.0
4072,54.0,0.0,390.0,4.0,0.0
4073,59.0,96.0,390.0,2.0,0.0
4074,49.0,0.0,180.0,0.0,0.0
4075,59.0,0.0,390.0,7.0,0.0
4076,66.0,96.0,90.0,1.0,0.0
4077,66.0,0.0,90.0,6.0,0.0
4078,51.0,4.0,180.0,0.0,0.0
4079,58.0,0.0,90.0,1.0,0.0
4080,58.0,32.0,90.0,6.0,0.0
4081,56.0,0.0,90.0,6.0,0.0
4082,56.0,0.0,90.0,1.0,0.0
4083,56.0,0.0,90.0,6.0,0.0
4084,53.0,4.0,180.0,0.0,0.0
4085,56.0,92.0,90.0,1.0,0.0
4086,53.0,0.0,180.0,7.0,0.0
4087,42.0,0.0,180.0,5.0,0.0
4088,42.0,0.0,180.0,4.0,0.0
4089,42.0,0.0,180.0,8.0,0.0
4090,53.0,0.0,180.0,2.0,0.0
4091,54.0,0.0,90.0,1.0,0.0
4092,54.0,320.0,90.0,6.0,0.0
4093,54.0,0.0,570.0,2.0,0.0
4094,42.0,0.0,390.0,4.0,0.0
4095,54.0,60.0,2820.0,0.0,0.0
4096,54.0,0.0,570.0,7.0,0.0
4097,42.0,188.0,390.0,8.0,0.0
4098,42.0,64.0,330.0,5.0,0.0
4099,58.0,0.0,570.0,1.0,0.0
4100,58.0,320.0,570.0,6.0,0.0
4101,54.0,4.0,180.0,5.0,0.0
4102,70.0,0.0,390.0,1.0,0.0
4103,61.0,0.0,390.0,7.0,0.0
4104,70.0,0.0,390.0,6.0,0.0
4105,54.0,0.0,15.0,8.0,0.0
4106,54.0,64.0,330.0,5.0,0.0
4107,54.0,0.0,15.0,4.0,0.0
4108,61.0,0.0,390.0,2.0,0.0
4109,68.0,0.0,180.0,6.0,0.0
4110,59.0,0.0,180.0,7.0,0.0
4111,59.0,0.0,180.0,2.0,0.0
4112,68.0,192.0,180.0,1.0,0.0
4113,42.0,4.0,180.0,5.0,0.0
4114,42.0,0.0,15.0,8.0,0.0
4115,58.0,192.0,180.0,7.0,0.0
4116,66.0,0.0,180.0,1.0,0.0
4117,58.0,0.0,180.0,2.0,0.0
4118,42.0,0.0,15.0,4.0,0.0
4119,66.0,0.0,180.0,6.0,0.0
4120,42.0,64.0,510.0,5.0,0.0
4121,61.0,0.0,180.0,6.0,0.0
4122,61.0,128.0,180.0,1.0,0.0
4123,61.0,0.0,180.0,7.0,0.0
4124,61.0,0.0,180.0,2.0,0.0
4125,59.0,0.0,180.0,7.0,0.0
4126,68.0,0.0,180.0,6.0,0.0
4127,68.0,0.0,180.0,1.0,0.0
4128,59.0,0.0,180.0,2.0,0.0
4129,61.0,0.0,180.0,2.0,0.0
4130,70.0,192.0,180.0,6.0,0.0
4131,61.0,0.0,180.0,7.0,0.0
4132,58.0,0.0,180.0,8.0,0.0
4133,70.0,0.0,180.0,1.0,0.0
4134,58.0,0.0,180.0,3.0,0.0
4135,63.0,0.0,180.0,2.0,0.0
4136,56.0,0.0,180.0,8.0,0.0
4137,71.0,0.0,180.0,1.0,0.0
4138,56.0,0.0,180.0,3.0,0.0
4139,63.0,0.0,180.0,7.0,0.0
4140,71.0,188.0,180.0,6.0,0.0
4141,73.0,0.0,390.0,1.0,0.0
4142,64.0,128.0,390.0,2.0,0.0
4143,46.0,0.0,180.0,4.0,0.0
4144,46.0,0.0,180.0,8.0,0.0
4145,73.0,0.0,390.0,6.0,0.0
4146,46.0,4.0,180.0,5.0,0.0
4147,54.0,192.0,180.0,3.0,0.0
4148,64.0,0.0,390.0,7.0,0.0
4149,54.0,0.0,15.0,8.0,0.0
4150,47.0,64.0,330.0,5.0,0.0
4151,54.0,320.0,570.0,3.0,0.0
4152,71.0,0.0,180.0,6.0,0.0
4153,71.0,128.0,180.0,1.0,0.0
4154,63.0,0.0,180.0,7.0,0.0
4155,66.0,0.0,180.0,2.0,0.0
4156,63.0,0.0,180.0,2.0,0.0
4157,66.0,0.0,180.0,7.0,0.0
4158,47.0,0.0,15.0,8.0,0.0
4159,47.0,4.0,180.0,5.0,0.0
4160,47.0,0.0,15.0,4.0,0.0
4161,70.0,0.0,180.0,6.0,0.0
4162,64.0,0.0,180.0,2.0,0.0
4163,70.0,0.0,180.0,1.0,0.0
4164,64.0,0.0,180.0,7.0,0.0
4165,61.0,0.0,180.0,7.0,0.0
4166,61.0,0.0,180.0,2.0,0.0
4167,59.0,0.0,390.0,7.0,0.0
4168,59.0,188.0,390.0,2.0,0.0
4169,63.0,0.0,390.0,2.0,0.0
4170,47.0,0.0,15.0,8.0,0.0
4171,47.0,64.0,330.0,5.0,0.0
4172,68.0,0.0,390.0,6.0,0.0
4173,47.0,0.0,390.0,4.0,0.0
4174,68.0,0.0,390.0,1.0,0.0
4175,58.0,0.0,180.0,7.0,0.0
4176,35.0,0.0,180.0,4.0,0.0
4177,35.0,4.0,180.0,5.0,0.0
4178,63.0,0.0,15.0,7.0,0.0
4179,66.0,0.0,180.0,6.0,0.0
4180,58.0,0.0,180.0,2.0,0.0
4181,63.0,320.0,180.0,2.0,0.0
4182,66.0,0.0,180.0,1.0,0.0
4183,35.0,0.0,180.0,8.0,0.0
4184,37.0,64.0,330.0,5.0,0.0
4185,37.0,0.0,390.0,3.0,0.0
4186,65.0,0.0,390.0,1.0,0.0
4187,37.0,0.0,390.0,4.0,0.0
4188,65.0,0.0,390.0,6.0,0.0
4189,37.0,0.0,390.0,8.0,0.0
4190,56.0,0.0,390.0,7.0,0.0
4191,56.0,0.0,390.0,2.0,0.0
4192,49.0,0.0,180.0,4.0,0.0
4193,66.0,0.0,180.0,1.0,0.0
4194,61.0,188.0,15.0,2.0,0.0
4195,58.0,0.0,180.0,2.0,0.0
4196,61.0,0.0,15.0,7.0,0.0
4197,66.0,0.0,180.0,6.0,0.0
4198,49.0,4.0,180.0,5.0,0.0
4199,58.0,0.0,180.0,7.0,0.0
4200,68.0,128.0,180.0,6.0,0.0
4201,49.0,0.0,15.0,8.0,0.0
4202,61.0,0.0,15.0,7.0,0.0
4203,64.0,0.0,180.0,7.0,0.0
4204,61.0,192.0,15.0,2.0,0.0
4205,64.0,0.0,180.0,2.0,0.0
4206,49.0,0.0,390.0,4.0,0.0
4207,49.0,0.0,15.0,3.0,0.0
4208,68.0,0.0,180.0,1.0,0.0
4209,49.0,64.0,330.0,5.0,0.0
4210,66.0,0.0,180.0,2.0,0.0
4211,70.0,0.0,180.0,6.0,0.0
4212,70.0,188.0,180.0,1.0,0.0
4213,66.0,0.0,180.0,7.0,0.0
4214,71.0,0.0,390.0,1.0,0.0
4215,37.0,192.0,180.0,4.0,0.0
4216,49.0,0.0,15.0,8.0,0.0
4217,37.0,0.0,180.0,8.0,0.0
4218,64.0,0.0,180.0,7.0,0.0
4219,68.0,0.0,390.0,7.0,0.0
4220,64.0,0.0,180.0,2.0,0.0
4221,68.0,128.0,390.0,2.0,0.0
4222,37.0,4.0,180.0,5.0,0.0
4223,71.0,0.0,390.0,6.0,0.0
4224,61.0,0.0,180.0,2.0,0.0
4225,42.0,0.0,390.0,8.0,0.0
4226,49.0,0.0,15.0,3.0,0.0
4227,61.0,0.0,180.0,7.0,0.0
4228,42.0,64.0,330.0,5.0,0.0
4229,49.0,192.0,390.0,8.0,0.0
4230,42.0,0.0,390.0,4.0,0.0
4231,70.0,0.0,180.0,6.0,0.0
4232,70.0,0.0,180.0,1.0,0.0
4233,66.0,0.0,180.0,2.0,0.0
4234,66.0,0.0,180.0,7.0,0.0
4235,65.0,0.0,180.0,2.0,0.0
4236,59.0,0.0,180.0,2.0,0.0
4237,65.0,0.0,180.0,7.0,0.0
4238,54.0,0.0,180.0,3.0,0.0
4239,68.0,0.0,180.0,6.0,0.0
4240,68.0,96.0,180.0,1.0,0.0
4241,54.0,0.0,180.0,8.0,0.0
4242,59.0,0.0,180.0,7.0,0.0
4243,54.0,0.0,390.0,3.0,0.0
4244,66.0,96.0,90.0,1.0,0.0
4245,54.0,0.0,390.0,8.0,0.0
4246,66.0,0.0,90.0,6.0,0.0
4247,49.0,64.0,330.0,0.0,0.0
4248,58.0,0.0,390.0,2.0,0.0
4249,58.0,0.0,390.0,7.0,0.0
4250,64.0,0.0,15.0,6.0,0.0
4251,64.0,96.0,15.0,1.0,0.0
4252,63.0,96.0,90.0,1.0,0.0
4253,56.0,0.0,180.0,2.0,0.0
4254,63.0,0.0,15.0,6.0,0.0
4255,42.0,0.0,180.0,8.0,0.0
4256,53.0,96.0,180.0,8.0,0.0
4257,47.0,4.0,180.0,0.0,0.0
4258,56.0,0.0,180.0,7.0,0.0
4259,42.0,0.0,180.0,4.0,0.0
4260,53.0,0.0,180.0,3.0,0.0
4261,63.0,92.0,90.0,1.0,0.0
4262,42.0,0.0,180.0,5.0,0.0
4263,61.0,0.0,90.0,1.0,0.0
4264,42.0,64.0,330.0,5.0,0.0
4265,46.0,0.0,330.0,0.0,0.0
4266,54.0,0.0,390.0,2.0,0.0
4267,61.0,0.0,15.0,6.0,0.0
4268,42.0,0.0,390.0,4.0,0.0
4269,49.0,0.0,390.0,8.0,0.0
4270,61.0,0.0,90.0,1.0,0.0
4271,49.0,0.0,390.0,3.0,0.0
4272,42.0,96.0,390.0,8.0,0.0
4273,54.0,0.0,390.0,7.0,0.0
4274,66.0,0.0,90.0,1.0,0.0
4275,66.0,96.0,90.0,6.0,0.0
4276,61.0,32.0,90.0,1.0,0.0
4277,61.0,0.0,90.0,6.0,0.0
4278,59.0,0.0,90.0,1.0,0.0
4279,56.0,0.0,180.0,2.0,0.0
4280,59.0,92.0,90.0,1.0,0.0
4281,59.0,0.0,15.0,6.0,0.0
4282,56.0,0.0,180.0,7.0,0.0
4283,47.0,4.0,180.0,0.0,0.0
4284,54.0,0.0,180.0,3.0,0.0
4285,54.0,96.0,180.0,8.0,0.0
4286,58.0,0.0,90.0,1.0,0.0
4287,58.0,0.0,15.0,6.0,0.0
4288,49.0,0.0,180.0,0.0,0.0
4289,58.0,0.0,180.0,2.0,0.0
4290,58.0,0.0,180.0,7.0,0.0
4291,58.0,0.0,90.0,1.0,0.0
4292,54.0,0.0,390.0,8.0,0.0
4293,54.0,0.0,390.0,3.0,0.0
4294,66.0,96.0,90.0,1.0,0.0
4295,66.0,0.0,90.0,6.0,0.0
4296,58.0,0.0,90.0,6.0,0.0
4297,51.0,4.0,180.0,0.0,0.0
4298,58.0,92.0,90.0,1.0,0.0
4299,61.0,96.0,180.0,2.0,0.0
4300,61.0,0.0,180.0,7.0,0.0
4301,56.0,0.0,15.0,6.0,0.0
4302,53.0,4.0,180.0,0.0,0.0
4303,42.0,0.0,180.0,5.0,0.0
4304,59.0,0.0,180.0,7.0,0.0
4305,56.0,0.0,15.0,1.0,0.0
4306,42.0,0.0,180.0,4.0,0.0
4307,59.0,0.0,180.0,2.0,0.0
4308,54.0,0.0,90.0,1.0,0.0
4309,54.0,0.0,90.0,6.0,0.0
4310,42.0,320.0,15.0,8.0,0.0
4311,49.0,192.0,390.0,3.0,0.0
4312,42.0,64.0,330.0,5.0,0.0
4313,58.0,0.0,780.0,6.0,0.0
4314,49.0,0.0,390.0,8.0,0.0
4315,54.0,4.0,750.0,0.0,0.0
4316,42.0,0.0,390.0,4.0,0.0
4317,54.0,0.0,780.0,7.0,0.0
4318,54.0,188.0,780.0,2.0,0.0
4319,58.0,0.0,780.0,1.0,0.0
4320,54.0,0.0,180.0,8.0,0.0
4321,54.0,188.0,180.0,3.0,0.0
4322,53.0,0.0,390.0,3.0,0.0
4323,53.0,188.0,390.0,8.0,0.0
4324,46.0,4.0,180.0,0.0,0.0
4325,61.0,0.0,180.0,1.0,0.0
4326,58.0,0.0,180.0,7.0,0.0
4327,61.0,0.0,180.0,6.0,0.0
4328,58.0,0.0,180.0,2.0,0.0
4329,66.0,0.0,180.0,1.0,0.0
4330,59.0,192.0,180.0,2.0,0.0
4331,47.0,4.0,180.0,0.0,0.0
4332,41.0,0.0,180.0,4.0,0.0
4333,41.0,0.0,180.0,5.0,0.0
4334,66.0,0.0,180.0,6.0,0.0
4335,41.0,0.0,180.0,8.0,0.0
4336,65.0,0.0,180.0,1.0,0.0
4337,59.0,0.0,15.0,7.0,0.0
4338,39.0,0.0,390.0,4.0,0.0
4339,53.0,128.0,180.0,0.0,0.0
4340,39.0,60.0,330.0,5.0,0.0
4341,65.0,0.0,180.0,6.0,0.0
4342,39.0,0.0,390.0,8.0,0.0
4343,59.0,0.0,780.0,2.0,0.0
4344,66.0,0.0,180.0,6.0,0.0
4345,66.0,192.0,180.0,1.0,0.0
4346,54.0,4.0,180.0,0.0,0.0
4347,51.0,0.0,180.0,8.0,0.0
4348,47.0,64.0,330.0,0.0,0.0
4349,51.0,0.0,15.0,3.0,0.0
4350,59.0,0.0,15.0,1.0,0.0
4351,59.0,128.0,15.0,6.0,0.0
4352,51.0,0.0,390.0,8.0,0.0
4353,65.0,188.0,180.0,6.0,0.0
4354,56.0,0.0,180.0,2.0,0.0
4355,65.0,0.0,180.0,1.0,0.0
4356,44.0,4.0,180.0,0.0,0.0
4357,56.0,0.0,180.0,7.0,0.0
4358,66.0,192.0,180.0,1.0,0.0
4359,39.0,0.0,180.0,4.0,0.0
4360,58.0,0.0,180.0,7.0,0.0
4361,58.0,0.0,180.0,2.0,0.0
4362,39.0,0.0,180.0,8.0,0.0
4363,39.0,0.0,180.0,5.0,0.0
4364,66.0,0.0,180.0,6.0,0.0
4365,46.0,4.0,180.0,0.0,0.0
4366,58.0,128.0,780.0,2.0,0.0
4367,58.0,0.0,780.0,7.0,0.0
4368,65.0,0.0,180.0,6.0,0.0
4369,37.0,188.0,390.0,8.0,0.0
4370,37.0,0.0,390.0,4.0,0.0
4371,37.0,60.0,330.0,5.0,0.0
4372,53.0,128.0,180.0,0.0,0.0
4373,65.0,0.0,180.0,1.0,0.0
4374,66.0,0.0,180.0,1.0,0.0
4375,54.0,4.0,180.0,0.0,0.0
4376,66.0,0.0,180.0,6.0,0.0
4377,58.0,0.0,180.0,1.0,0.0
4378,49.0,4.0,180.0,5.0,0.0
4379,46.0,64.0,330.0,0.0,0.0
4380,49.0,0.0,180.0,4.0,0.0
4381,49.0,0.0,15.0,8.0,0.0
4382,58.0,128.0,15.0,6.0,0.0
4383,49.0,60.0,330.0,5.0,0.0
4384,49.0,0.0,390.0,4.0,0.0
4385,58.0,0.0,180.0,1.0,0.0
4386,54.0,0.0,180.0,7.0,0.0
4387,61.0,0.0,180.0,6.0,0.0
4388,61.0,0.0,180.0,1.0,0.0
4389,54.0,188.0,180.0,2.0,0.0
4390,42.0,4.0,180.0,0.0,0.0
4391,37.0,0.0,180.0,8.0,0.0
4392,65.0,0.0,180.0,1.0,0.0
4393,65.0,0.0,180.0,6.0,0.0
4394,56.0,0.0,180.0,2.0,0.0
4395,56.0,0.0,180.0,7.0,0.0
4396,37.0,0.0,180.0,5.0,0.0
4397,37.0,192.0,180.0,4.0,0.0
4398,44.0,4.0,180.0,0.0,0.0
4399,65.0,0.0,390.0,7.0,0.0
4400,68.0,0.0,180.0,6.0,0.0
4401,68.0,128.0,180.0,1.0,0.0
4402,35.0,60.0,330.0,5.0,0.0
4403,65.0,0.0,390.0,2.0,0.0
4404,35.0,192.0,390.0,8.0,0.0
4405,35.0,0.0,390.0,4.0,0.0
4406,53.0,0.0,180.0,0.0,0.0
4407,66.0,0.0,180.0,6.0,0.0
4408,66.0,0.0,180.0,1.0,0.0
4409,54.0,4.0,180.0,0.0,0.0
4410,65.0,0.0,180.0,6.0,0.0
4411,37.0,0.0,180.0,4.0,0.0
4412,44.0,64.0,330.0,0.0,0.0
4413,37.0,128.0,180.0,8.0,0.0
4414,65.0,0.0,180.0,1.0,0.0
4415,37.0,0.0,180.0,5.0,0.0
4416,56.0,0.0,15.0,2.0,0.0
4417,56.0,0.0,15.0,7.0,0.0
4418,39.0,0.0,390.0,4.0,0.0
4419,39.0,60.0,330.0,5.0,0.0
4420,66.0,0.0,390.0,1.0,0.0
4421,66.0,0.0,390.0,6.0,0.0
4422,39.0,188.0,390.0,8.0,0.0
4423,54.0,0.0,180.0,2.0,0.0
4424,42.0,4.0,180.0,0.0,0.0
4425,47.0,4.0,180.0,0.0,0.0
4426,59.0,0.0,180.0,1.0,0.0
4427,54.0,0.0,180.0,2.0,0.0
4428,51.0,0.0,180.0,2.0,0.0
4429,35.0,44.0,180.0,4.0,0.0
4430,54.0,0.0,15.0,7.0,0.0
4431,51.0,0.0,180.0,7.0,0.0
4432,35.0,0.0,180.0,8.0,0.0
4433,35.0,0.0,180.0,5.0,0.0
4434,59.0,0.0,15.0,6.0,0.0
4435,59.0,44.0,40.0,1.0,0.0
4436,37.0,0.0,390.0,4.0,0.0
4437,47.0,4.0,40.0,0.0,0.0
4438,54.0,0.0,15.0,7.0,0.0
4439,37.0,60.0,330.0,5.0,0.0
4440,37.0,0.0,390.0,8.0,0.0
4441,54.0,188.0,390.0,2.0,0.0
4442,46.0,4.0,40.0,0.0,0.0
4443,58.0,0.0,40.0,1.0,0.0
4444,58.0,44.0,40.0,6.0,0.0
4445,47.0,4.0,40.0,0.0,0.0
4446,59.0,0.0,40.0,1.0,0.0
4447,59.0,44.0,40.0,6.0,0.0
4448,58.0,44.0,40.0,1.0,0.0
4449,58.0,0.0,40.0,6.0,0.0
4450,46.0,4.0,40.0,0.0,0.0
4451,47.0,4.0,40.0,0.0,0.0
4452,59.0,0.0,40.0,6.0,0.0
4453,59.0,80.0,40.0,1.0,0.0
4454,58.0,0.0,150.0,1.0,0.0
4455,58.0,0.0,150.0,6.0,0.0
4456,46.0,4.0,150.0,0.0,0.0
4457,56.0,0.0,180.0,1.0,0.0
4458,56.0,192.0,180.0,6.0,0.0
4459,49.0,4.0,180.0,5.0,0.0
4460,44.0,0.0,180.0,0.0,0.0
4461,53.0,0.0,180.0,2.0,0.0
4462,53.0,0.0,180.0,7.0,0.0
4463,65.0,0.0,390.0,2.0,0.0
4464,68.0,188.0,390.0,1.0,0.0
4465,49.0,0.0,15.0,8.0,0.0
4466,49.0,0.0,15.0,4.0,0.0
4467,65.0,0.0,390.0,7.0,0.0
4468,68.0,0.0,390.0,6.0,0.0
4469,49.0,64.0,330.0,5.0,0.0
4470,49.0,0.0,180.0,3.0,0.0
4471,53.0,0.0,180.0,8.0,0.0
4472,53.0,0.0,180.0,3.0,0.0
4473,63.0,0.0,180.0,7.0,0.0
4474,66.0,0.0,180.0,6.0,0.0
4475,49.0,320.0,180.0,8.0,0.0
4476,54.0,0.0,180.0,8.0,0.0
4477,49.0,0.0,180.0,4.0,0.0
4478,66.0,0.0,180.0,1.0,0.0
4479,54.0,0.0,180.0,3.0,0.0
4480,49.0,4.0,180.0,5.0,0.0
4481,63.0,0.0,180.0,2.0,0.0
4482,61.0,0.0,390.0,2.0,0.0
4483,61.0,0.0,390.0,7.0,0.0
4484,47.0,64.0,330.0,5.0,0.0
4485,65.0,188.0,390.0,6.0,0.0
4486,65.0,0.0,390.0,1.0,0.0
4487,56.0,0.0,960.0,3.0,0.0
4488,56.0,0.0,960.0,8.0,0.0
4489,47.0,0.0,15.0,4.0,0.0
4490,47.0,0.0,15.0,8.0,0.0
4491,66.0,0.0,180.0,1.0,0.0
4492,63.0,0.0,180.0,2.0,0.0
4493,66.0,0.0,180.0,6.0,0.0
4494,47.0,4.0,180.0,5.0,0.0
4495,63.0,192.0,180.0,7.0,0.0
4496,47.0,64.0,330.0,5.0,0.0
4497,68.0,0.0,180.0,6.0,0.0
4498,65.0,128.0,180.0,2.0,0.0
4499,47.0,0.0,15.0,4.0,0.0
4500,68.0,0.0,180.0,1.0,0.0
4501,65.0,0.0,180.0,7.0,0.0
4502,66.0,0.0,180.0,7.0,0.0
4503,70.0,0.0,180.0,6.0,0.0
4504,66.0,0.0,180.0,2.0,0.0
4505,70.0,188.0,180.0,1.0,0.0
4506,71.0,0.0,180.0,6.0,0.0
4507,53.0,192.0,180.0,3.0,0.0
4508,47.0,4.0,180.0,5.0,0.0
4509,68.0,0.0,390.0,7.0,0.0
4510,47.0,0.0,15.0,4.0,0.0
4511,53.0,0.0,180.0,8.0,0.0
4512,71.0,0.0,180.0,1.0,0.0
4513,68.0,128.0,390.0,2.0,0.0
4514,47.0,0.0,15.0,8.0,0.0
4515,46.0,0.0,390.0,8.0,0.0
4516,46.0,0.0,390.0,4.0,0.0
4517,73.0,96.0,660.0,1.0,0.0
4518,46.0,64.0,330.0,5.0,0.0
4519,73.0,0.0,660.0,6.0,0.0
4520,66.0,0.0,180.0,7.0,0.0
4521,66.0,188.0,180.0,2.0,0.0
4522,46.0,0.0,180.0,8.0,0.0
4523,65.0,0.0,180.0,7.0,0.0
4524,65.0,0.0,180.0,2.0,0.0
4525,46.0,4.0,180.0,5.0,0.0
4526,46.0,0.0,180.0,4.0,0.0
4527,66.0,0.0,180.0,7.0,0.0
4528,46.0,60.0,330.0,5.0,0.0
4529,46.0,0.0,390.0,8.0,0.0
4530,49.0,96.0,15.0,8.0,0.0
4531,54.0,96.0,180.0,0.0,0.0
4532,49.0,0.0,15.0,3.0,0.0
4533,66.0,0.0,180.0,2.0,0.0
4534,68.0,0.0,90.0,1.0,0.0
4535,61.0,96.0,180.0,2.0,0.0
4536,68.0,32.0,90.0,1.0,0.0
4537,68.0,0.0,15.0,6.0,0.0
4538,53.0,4.0,180.0,0.0,0.0
4539,61.0,0.0,180.0,7.0,0.0
4540,66.0,0.0,90.0,6.0,0.0
4541,66.0,0.0,90.0,1.0,0.0
4542,66.0,0.0,90.0,1.0,0.0
4543,66.0,92.0,90.0,6.0,0.0
4544,54.0,0.0,180.0,3.0,0.0
4545,46.0,0.0,15.0,4.0,0.0
4546,46.0,4.0,180.0,5.0,0.0
4547,54.0,0.0,180.0,0.0,0.0
4548,63.0,0.0,180.0,2.0,0.0
4549,46.0,0.0,180.0,8.0,0.0
4550,63.0,96.0,180.0,7.0,0.0
4551,54.0,0.0,180.0,8.0,0.0
4552,65.0,0.0,90.0,1.0,0.0
4553,65.0,0.0,90.0,6.0,0.0
4554,44.0,0.0,390.0,8.0,0.0
4555,56.0,0.0,180.0,3.0,0.0
4556,65.0,0.0,390.0,7.0,0.0
4557,44.0,0.0,390.0,4.0,0.0
4558,59.0,64.0,330.0,0.0,0.0
4559,44.0,0.0,330.0,5.0,0.0
4560,63.0,0.0,90.0,6.0,0.0
4561,63.0,96.0,90.0,1.0,0.0
4562,65.0,0.0,390.0,2.0,0.0
4563,56.0,96.0,180.0,8.0,0.0
4564,70.0,0.0,90.0,1.0,0.0
4565,70.0,0.0,90.0,6.0,0.0
4566,63.0,0.0,90.0,1.0,0.0
4567,58.0,96.0,180.0,3.0,0.0
4568,63.0,32.0,90.0,6.0,0.0
4569,58.0,0.0,180.0,8.0,0.0
4570,61.0,0.0,90.0,1.0,0.0
4571,56.0,0.0,180.0,8.0,0.0
4572,56.0,4.0,180.0,0.0,0.0
4573,66.0,0.0,180.0,7.0,0.0
4574,66.0,0.0,180.0,2.0,0.0
4575,56.0,0.0,180.0,4.0,0.0
4576,56.0,0.0,180.0,5.0,0.0
4577,61.0,0.0,15.0,6.0,0.0
4578,61.0,92.0,90.0,1.0,0.0
4579,59.0,0.0,90.0,1.0,0.0
4580,68.0,96.0,90.0,7.0,0.0
4581,56.0,60.0,330.0,5.0,0.0
4582,59.0,0.0,15.0,6.0,0.0
4583,53.0,0.0,180.0,0.0,0.0
4584,68.0,0.0,90.0,2.0,0.0
4585,59.0,0.0,15.0,8.0,0.0
4586,56.0,0.0,390.0,4.0,0.0
4587,56.0,0.0,390.0,8.0,0.0
4588,59.0,96.0,15.0,3.0,0.0
4589,59.0,0.0,180.0,1.0,0.0
4590,70.0,0.0,90.0,7.0,0.0
4591,70.0,0.0,90.0,2.0,0.0
4592,59.0,0.0,15.0,6.0,0.0
4593,54.0,4.0,180.0,0.0,0.0
4594,58.0,0.0,180.0,8.0,0.0
4595,58.0,0.0,180.0,3.0,0.0
4596,71.0,0.0,180.0,2.0,0.0
4597,71.0,0.0,180.0,7.0,0.0
4598,59.0,0.0,90.0,1.0,0.0
4599,44.0,0.0,180.0,8.0,0.0
4600,56.0,0.0,180.0,8.0,0.0
4601,56.0,0.0,180.0,3.0,0.0
4602,56.0,0.0,180.0,0.0,0.0
4603,58.0,0.0,15.0,1.0,0.0
4604,65.0,0.0,180.0,7.0,0.0
4605,58.0,96.0,15.0,6.0,0.0
4606,44.0,0.0,180.0,4.0,0.0
4607,65.0,0.0,180.0,2.0,0.0
4608,44.0,4.0,180.0,5.0,0.0
4609,56.0,0.0,90.0,1.0,0.0
4610,56.0,192.0,90.0,6.0,0.0
4611,58.0,64.0,330.0,0.0,0.0
4612,66.0,0.0,180.0,1.0,0.0
4613,42.0,0.0,330.0,5.0,0.0
4614,58.0,96.0,180.0,2.0,0.0
4615,42.0,0.0,390.0,8.0,0.0
4616,42.0,0.0,390.0,4.0,0.0
4617,58.0,0.0,180.0,7.0,0.0
4618,66.0,0.0,180.0,6.0,0.0
4619,65.0,32.0,90.0,1.0,0.0
4620,61.0,0.0,180.0,7.0,0.0
4621,65.0,0.0,90.0,6.0,0.0
4622,61.0,96.0,180.0,2.0,0.0
4623,59.0,0.0,180.0,7.0,0.0
4624,54.0,0.0,180.0,4.0,0.0
4625,59.0,0.0,180.0,2.0,0.0
4626,63.0,0.0,15.0,1.0,0.0
4627,63.0,0.0,15.0,6.0,0.0
4628,54.0,4.0,180.0,5.0,0.0
4629,61.0,0.0,90.0,6.0,0.0
4630,54.0,0.0,15.0,8.0,0.0
4631,58.0,0.0,390.0,2.0,0.0
4632,61.0,96.0,15.0,1.0,0.0
4633,54.0,0.0,390.0,4.0,0.0
4634,54.0,64.0,330.0,5.0,0.0
4635,61.0,96.0,90.0,6.0,0.0
4636,58.0,0.0,390.0,7.0,0.0
4637,66.0,96.0,90.0,6.0,0.0
4638,66.0,0.0,90.0,1.0,0.0
4639,61.0,0.0,90.0,6.0,0.0
4640,61.0,32.0,90.0,1.0,0.0
4641,59.0,96.0,90.0,6.0,0.0
4642,59.0,0.0,90.0,1.0,0.0
4643,42.0,0.0,180.0,4.0,0.0
4644,59.0,96.0,90.0,1.0,0.0
4645,42.0,0.0,180.0,5.0,0.0
4646,56.0,320.0,180.0,7.0,0.0
4647,42.0,0.0,180.0,8.0,0.0
4648,59.0,0.0,90.0,6.0,0.0
4649,56.0,0.0,180.0,2.0,0.0
4650,58.0,0.0,90.0,6.0,0.0
4651,58.0,0.0,15.0,1.0,0.0
4652,40.0,64.0,330.0,5.0,0.0
4653,58.0,0.0,390.0,6.0,0.0
4654,54.0,188.0,390.0,2.0,0.0
4655,40.0,0.0,390.0,4.0,0.0
4656,40.0,0.0,390.0,8.0,0.0
4657,54.0,0.0,390.0,7.0,0.0
4658,59.0,0.0,180.0,6.0,0.0
4659,56.0,192.0,180.0,7.0,0.0
4660,52.0,0.0,180.0,4.0,0.0
4661,59.0,0.0,180.0,1.0,0.0
4662,56.0,0.0,180.0,2.0,0.0
4663,52.0,4.0,180.0,5.0,0.0
4664,58.0,0.0,180.0,2.0,0.0
4665,52.0,0.0,15.0,8.0,0.0
4666,52.0,64.0,330.0,5.0,0.0
4667,61.0,0.0,180.0,1.0,0.0
4668,61.0,0.0,180.0,6.0,0.0
4669,52.0,0.0,390.0,4.0,0.0
4670,58.0,128.0,180.0,7.0,0.0
4671,63.0,0.0,180.0,1.0,0.0
4672,63.0,0.0,180.0,6.0,0.0
4673,59.0,0.0,180.0,2.0,0.0
4674,59.0,192.0,180.0,7.0,0.0
4675,61.0,128.0,390.0,2.0,0.0
4676,64.0,192.0,180.0,6.0,0.0
4677,40.0,0.0,180.0,4.0,0.0
4678,40.0,0.0,180.0,5.0,0.0
4679,64.0,0.0,180.0,1.0,0.0
4680,61.0,0.0,390.0,7.0,0.0
4681,40.0,0.0,180.0,8.0,0.0
4682,66.0,0.0,660.0,6.0,0.0
4683,39.0,0.0,390.0,8.0,0.0
4684,39.0,188.0,390.0,4.0,0.0
4685,66.0,96.0,660.0,1.0,0.0
4686,39.0,64.0,330.0,5.0,0.0
4687,59.0,0.0,180.0,7.0,0.0
4688,59.0,0.0,180.0,2.0,0.0
4689,51.0,4.0,180.0,5.0,0.0
4690,58.0,96.0,180.0,2.0,0.0
4691,51.0,0.0,180.0,8.0,0.0
4692,58.0,0.0,180.0,7.0,0.0
4693,51.0,0.0,15.0,4.0,0.0
4694,59.0,0.0,180.0,7.0,0.0
4695,51.0,60.0,330.0,5.0,0.0
4696,59.0,96.0,180.0,2.0,0.0
4697,51.0,0.0,390.0,8.0,0.0
4698,47.0,0.0,180.0,0.0,0.0
4699,61.0,0.0,90.0,1.0,0.0
4700,61.0,0.0,15.0,6.0,0.0
4701,54.0,96.0,180.0,2.0,0.0
4702,46.0,4.0,180.0,0.0,0.0
4703,61.0,0.0,90.0,1.0,0.0
4704,54.0,0.0,180.0,7.0,0.0
4705,59.0,0.0,90.0,1.0,0.0
4706,39.0,0.0,180.0,4.0,0.0
4707,47.0,4.0,180.0,0.0,0.0
4708,39.0,0.0,180.0,5.0,0.0
4709,59.0,0.0,15.0,6.0,0.0
4710,56.0,0.0,180.0,2.0,0.0
4711,59.0,92.0,90.0,1.0,0.0
4712,56.0,0.0,180.0,7.0,0.0
4713,39.0,0.0,180.0,8.0,0.0
4714,58.0,0.0,90.0,1.0,0.0
4715,37.0,0.0,330.0,5.0,0.0
4716,58.0,96.0,15.0,6.0,0.0
4717,58.0,0.0,390.0,7.0,0.0
4718,52.0,64.0,330.0,0.0,0.0
4719,37.0,0.0,390.0,4.0,0.0
4720,37.0,0.0,390.0,8.0,0.0
4721,58.0,0.0,390.0,2.0,0.0
4722,58.0,0.0,90.0,1.0,0.0
4723,64.0,0.0,90.0,1.0,0.0
4724,64.0,96.0,90.0,6.0,0.0
4725,58.0,0.0,90.0,6.0,0.0
4726,58.0,32.0,90.0,1.0,0.0
4727,56.0,0.0,90.0,1.0,0.0
4728,59.0,0.0,180.0,2.0,0.0
4729,49.0,0.0,180.0,0.0,0.0
4730,59.0,0.0,180.0,7.0,0.0
4731,56.0,0.0,90.0,1.0,0.0
4732,49.0,4.0,180.0,5.0,0.0
4733,56.0,96.0,15.0,6.0,0.0
4734,54.0,96.0,90.0,6.0,0.0
4735,54.0,0.0,90.0,1.0,0.0
4736,49.0,0.0,15.0,4.0,0.0
4737,61.0,0.0,90.0,2.0,0.0
4738,54.0,96.0,90.0,1.0,0.0
4739,49.0,0.0,15.0,8.0,0.0
4740,46.0,96.0,180.0,0.0,0.0
4741,54.0,0.0,90.0,6.0,0.0
4742,49.0,60.0,330.0,5.0,0.0
4743,61.0,0.0,90.0,7.0,0.0
4744,61.0,0.0,90.0,6.0,0.0
4745,63.0,0.0,90.0,7.0,0.0
4746,63.0,0.0,90.0,2.0,0.0
4747,61.0,0.0,90.0,1.0,0.0
4748,54.0,32.0,90.0,6.0,0.0
4749,65.0,0.0,180.0,7.0,0.0
4750,65.0,0.0,180.0,2.0,0.0
4751,54.0,0.0,90.0,1.0,0.0
4752,47.0,4.0,180.0,0.0,0.0
4753,52.0,96.0,90.0,6.0,0.0
4754,52.0,0.0,90.0,1.0,0.0
4755,58.0,0.0,180.0,2.0,0.0
4756,49.0,4.0,180.0,0.0,0.0
4757,58.0,320.0,180.0,7.0,0.0
4758,37.0,0.0,180.0,5.0,0.0
4759,37.0,0.0,180.0,4.0,0.0
4760,52.0,0.0,90.0,6.0,0.0
4761,37.0,0.0,180.0,8.0,0.0
4762,52.0,92.0,90.0,1.0,0.0
4763,51.0,0.0,90.0,6.0,0.0
4764,51.0,0.0,90.0,1.0,0.0
4765,51.0,0.0,780.0,7.0,0.0
4766,51.0,128.0,780.0,2.0,0.0
4767,35.0,64.0,330.0,5.0,0.0
4768,35.0,192.0,390.0,8.0,0.0
4769,35.0,0.0,390.0,4.0,0.0
4770,59.0,0.0,780.0,1.0,0.0
4771,59.0,0.0,780.0,6.0,0.0
4772,51.0,4.0,750.0,0.0,0.0
4773,47.0,0.0,180.0,5.0,0.0
4774,47.0,0.0,180.0,8.0,0.0
4775,47.0,188.0,180.0,4.0,0.0
4776,46.0,188.0,390.0,4.0,0.0
4777,46.0,0.0,390.0,8.0,0.0
4778,46.0,60.0,330.0,5.0,0.0
4779,63.0,0.0,180.0,2.0,0.0
4780,51.0,4.0,180.0,0.0,0.0
4781,63.0,0.0,180.0,6.0,0.0
4782,63.0,0.0,180.0,7.0,0.0
4783,63.0,0.0,180.0,1.0,0.0
4784,64.0,0.0,180.0,6.0,0.0
4785,34.0,0.0,180.0,8.0,0.0
4786,52.0,4.0,180.0,0.0,0.0
4787,34.0,0.0,180.0,4.0,0.0
4788,64.0,192.0,180.0,1.0,0.0
4789,34.0,0.0,180.0,5.0,0.0
4790,61.0,0.0,180.0,2.0,0.0
4791,61.0,0.0,180.0,7.0,0.0
4792,58.0,0.0,180.0,0.0,0.0
4793,59.0,0.0,390.0,7.0,0.0
4794,32.0,188.0,390.0,8.0,0.0
4795,70.0,0.0,180.0,6.0,0.0
4796,63.0,0.0,390.0,7.0,0.0
4797,70.0,128.0,180.0,1.0,0.0
4798,32.0,0.0,390.0,4.0,0.0
4799,59.0,0.0,390.0,2.0,0.0
4800,63.0,0.0,390.0,2.0,0.0
4801,32.0,60.0,330.0,5.0,0.0
4802,71.0,0.0,180.0,6.0,0.0
4803,59.0,4.0,180.0,0.0,0.0
4804,71.0,0.0,180.0,1.0,0.0
4805,61.0,128.0,180.0,2.0,0.0
4806,61.0,0.0,180.0,7.0,0.0
4807,56.0,0.0,180.0,4.0,0.0
4808,56.0,4.0,180.0,5.0,0.0
4809,64.0,0.0,390.0,6.0,0.0
4810,64.0,0.0,390.0,1.0,0.0
4811,52.0,64.0,330.0,0.0,0.0
4812,56.0,60.0,330.0,5.0,0.0
4813,59.0,128.0,180.0,7.0,0.0
4814,56.0,0.0,390.0,4.0,0.0
4815,56.0,0.0,15.0,8.0,0.0
4816,59.0,0.0,180.0,2.0,0.0
4817,49.0,4.0,180.0,0.0,0.0
4818,61.0,0.0,180.0,6.0,0.0
4819,70.0,0.0,180.0,2.0,0.0
4820,61.0,0.0,180.0,1.0,0.0
4821,70.0,188.0,180.0,7.0,0.0
4822,63.0,0.0,180.0,6.0,0.0
4823,44.0,0.0,180.0,4.0,0.0
4824,44.0,192.0,180.0,5.0,0.0
4825,51.0,4.0,180.0,0.0,0.0
4826,63.0,0.0,180.0,1.0,0.0
4827,44.0,0.0,180.0,8.0,0.0
4828,71.0,0.0,180.0,7.0,0.0
4829,71.0,0.0,180.0,2.0,0.0
4830,58.0,0.0,180.0,0.0,0.0
4831,63.0,0.0,780.0,7.0,0.0
4832,63.0,0.0,780.0,2.0,0.0
4833,42.0,188.0,390.0,4.0,0.0
4834,70.0,128.0,180.0,6.0,0.0
4835,70.0,0.0,180.0,1.0,0.0
4836,42.0,60.0,330.0,5.0,0.0
4837,42.0,0.0,390.0,8.0,0.0
4838,71.0,0.0,180.0,1.0,0.0
4839,71.0,0.0,180.0,6.0,0.0
4840,59.0,4.0,180.0,0.0,0.0
4841,63.0,128.0,180.0,6.0,0.0
4842,54.0,4.0,180.0,5.0,0.0
4843,51.0,64.0,330.0,0.0,0.0
4844,54.0,0.0,180.0,8.0,0.0
4845,63.0,0.0,15.0,1.0,0.0
4846,54.0,0.0,15.0,4.0,0.0
4847,54.0,0.0,390.0,8.0,0.0
4848,54.0,60.0,330.0,5.0,0.0
4849,63.0,128.0,180.0,6.0,0.0
4850,59.0,0.0,180.0,2.0,0.0
4851,59.0,0.0,180.0,7.0,0.0
4852,66.0,0.0,180.0,1.0,0.0
4853,47.0,4.0,180.0,0.0,0.0
4854,66.0,188.0,180.0,6.0,0.0
4855,70.0,0.0,180.0,1.0,0.0
4856,49.0,4.0,180.0,0.0,0.0
4857,61.0,0.0,180.0,7.0,0.0
4858,42.0,0.0,180.0,4.0,0.0
4859,42.0,0.0,180.0,8.0,0.0
4860,61.0,0.0,180.0,2.0,0.0
4861,70.0,192.0,180.0,6.0,0.0
4862,42.0,0.0,180.0,5.0,0.0
4863,40.0,0.0,390.0,8.0,0.0
4864,40.0,60.0,330.0,5.0,0.0
4865,40.0,0.0,390.0,4.0,0.0
4866,70.0,0.0,180.0,2.0,0.0
4867,58.0,0.0,180.0,0.0,0.0
4868,73.0,0.0,390.0,1.0,0.0
4869,70.0,128.0,180.0,7.0,0.0
4870,73.0,0.0,390.0,6.0,0.0
4871,71.0,192.0,180.0,7.0,0.0
4872,71.0,0.0,180.0,2.0,0.0
4873,59.0,4.0,180.0,0.0,0.0
4874,42.0,0.0,180.0,8.0,0.0
4875,61.0,128.0,390.0,7.0,0.0
4876,49.0,64.0,330.0,0.0,0.0
4877,70.0,0.0,180.0,1.0,0.0
4878,42.0,0.0,180.0,4.0,0.0
4879,61.0,0.0,390.0,2.0,0.0
4880,70.0,0.0,180.0,6.0,0.0
4881,42.0,128.0,180.0,5.0,0.0
4882,71.0,0.0,390.0,6.0,0.0
4883,44.0,60.0,330.0,5.0,0.0
4884,44.0,0.0,390.0,4.0,0.0
4885,44.0,0.0,390.0,8.0,0.0
4886,71.0,188.0,390.0,1.0,0.0
4887,47.0,4.0,180.0,0.0,0.0
4888,59.0,0.0,180.0,7.0,0.0
4889,40.0,0.0,180.0,8.0,0.0
4890,64.0,0.0,180.0,1.0,0.0
4891,40.0,0.0,180.0,4.0,0.0
4892,56.0,0.0,180.0,7.0,0.0
4893,40.0,0.0,180.0,5.0,0.0
4894,59.0,0.0,180.0,7.0,0.0
4895,59.0,0.0,15.0,2.0,0.0
4896,56.0,48.0,180.0,2.0,0.0
4897,64.0,0.0,180.0,6.0,0.0
4898,52.0,4.0,180.0,0.0,0.0
4899,61.0,0.0,40.0,7.0,0.0
4900,42.0,0.0,390.0,8.0,0.0
4901,51.0,0.0,390.0,0.0,0.0
4902,65.0,0.0,40.0,6.0,0.0
4903,65.0,48.0,40.0,1.0,0.0
4904,42.0,192.0,390.0,4.0,0.0
4905,61.0,0.0,40.0,2.0,0.0
4906,42.0,64.0,330.0,5.0,0.0
4907,54.0,0.0,570.0,3.0,0.0
4908,63.0,0.0,40.0,6.0,0.0
4909,59.0,0.0,40.0,7.0,0.0
4910,63.0,0.0,40.0,1.0,0.0
4911,59.0,48.0,40.0,2.0,0.0
4912,65.0,48.0,40.0,1.0,0.0
4913,65.0,0.0,40.0,6.0,0.0
4914,61.0,0.0,40.0,7.0,0.0
4915,61.0,0.0,40.0,2.0,0.0
4916,63.0,48.0,40.0,1.0,0.0
4917,59.0,0.0,40.0,7.0,0.0
4918,59.0,0.0,40.0,2.0,0.0
4919,63.0,0.0,40.0,6.0,0.0
4920,65.0,80.0,40.0,6.0,0.0
4921,65.0,0.0,40.0,1.0,0.0
4922,61.0,0.0,40.0,2.0,0.0
4923,61.0,0.0,40.0,7.0,0.0
4924,63.0,0.0,150.0,1.0,0.0
4925,59.0,0.0,150.0,7.0,0.0
4926,59.0,0.0,150.0,2.0,0.0
4927,63.0,0.0,150.0,6.0,0.0
4928,54.0,0.0,180.0,8.0,0.0
4929,49.0,0.0,390.0,0.0,0.0
4930,58.0,0.0,180.0,7.0,0.0
4931,54.0,0.0,180.0,5.0,0.0
4932,61.0,96.0,180.0,6.0,0.0
4933,54.0,0.0,180.0,4.0,0.0
4934,61.0,0.0,180.0,1.0,0.0
4935,58.0,0.0,180.0,2.0,0.0
4936,70.0,0.0,90.0,1.0,0.0
4937,52.0,0.0,390.0,8.0,0.0
4938,61.0,0.0,390.0,7.0,0.0
4939,52.0,0.0,390.0,4.0,0.0
4940,52.0,64.0,330.0,5.0,0.0
4941,61.0,0.0,390.0,2.0,0.0
4942,70.0,96.0,90.0,6.0,0.0
4943,71.0,0.0,90.0,1.0,0.0
4944,71.0,96.0,90.0,6.0,0.0
4945,73.0,0.0,90.0,6.0,0.0
4946,46.0,0.0,180.0,0.0,0.0
4947,73.0,32.0,90.0,1.0,0.0
4948,70.0,0.0,90.0,1.0,0.0
4949,47.0,0.0,180.0,0.0,0.0
4950,64.0,0.0,180.0,2.0,0.0
4951,40.0,0.0,180.0,4.0,0.0
4952,70.0,0.0,90.0,1.0,0.0
4953,40.0,0.0,180.0,8.0,0.0
4954,64.0,0.0,180.0,7.0,0.0
4955,70.0,96.0,15.0,6.0,0.0
4956,40.0,96.0,180.0,5.0,0.0
4957,68.0,0.0,90.0,1.0,0.0
4958,58.0,0.0,390.0,2.0,0.0
4959,39.0,0.0,390.0,4.0,0.0
4960,49.0,96.0,180.0,0.0,0.0
4961,39.0,0.0,390.0,8.0,0.0
4962,68.0,96.0,90.0,1.0,0.0
4963,68.0,0.0,15.0,6.0,0.0
4964,39.0,64.0,330.0,5.0,0.0
4965,67.0,0.0,15.0,6.0,0.0
4966,67.0,0.0,15.0,1.0,0.0
4967,51.0,96.0,180.0,0.0,0.0
4968,68.0,0.0,90.0,1.0,0.0
4969,68.0,0.0,90.0,6.0,0.0
4970,58.0,0.0,15.0,7.0,0.0
4971,51.0,4.0,180.0,5.0,0.0
4972,70.0,0.0,90.0,6.0,0.0
4973,52.0,0.0,390.0,0.0,0.0
4974,70.0,92.0,90.0,1.0,0.0
4975,51.0,0.0,180.0,4.0,0.0
4976,67.0,0.0,90.0,1.0,0.0
4977,67.0,96.0,90.0,6.0,0.0
4978,58.0,0.0,15.0,2.0,0.0
4979,61.0,0.0,90.0,1.0,0.0
4980,51.0,0.0,390.0,4.0,0.0
4981,55.0,0.0,390.0,8.0,0.0
4982,51.0,0.0,15.0,8.0,0.0
4983,58.0,0.0,15.0,7.0,0.0
4984,51.0,64.0,330.0,5.0,0.0
4985,61.0,96.0,90.0,6.0,0.0
4986,63.0,0.0,90.0,1.0,0.0
4987,63.0,96.0,90.0,6.0,0.0
4988,43.0,0.0,180.0,0.0,0.0
4989,65.0,32.0,90.0,1.0,0.0
4990,65.0,0.0,90.0,6.0,0.0
4991,63.0,0.0,90.0,1.0,0.0
4992,58.0,0.0,180.0,7.0,0.0
4993,39.0,0.0,180.0,8.0,0.0
4994,55.0,0.0,180.0,8.0,0.0
4995,39.0,0.0,180.0,5.0,0.0
4996,63.0,0.0,90.0,1.0,0.0
4997,63.0,0.0,15.0,6.0,0.0
4998,39.0,0.0,180.0,4.0,0.0
4999,46.0,0.0,180.0,0.0,0.0
5000,55.0,0.0,15.0,3.0,0.0
5001,58.0,96.0,15.0,2.0,0.0
5002,61.0,0.0,90.0,6.0,0.0
5003,61.0,0.0,90.0,1.0,0.0
5004,59.0,96.0,90.0,1.0,0.0
5005,44.0,0.0,390.0,8.0,0.0
5006,44.0,0.0,390.0,4.0,0.0
5007,56.0,0.0,390.0,7.0,0.0
5008,59.0,0.0,90.0,6.0,0.0
5009,56.0,0.0,390.0,2.0,0.0
5010,44.0,64.0,330.0,5.0,0.0
5011,47.0,96.0,780.0,0.0,0.0
5012,61.0,96.0,90.0,6.0,0.0
5013,61.0,0.0,90.0,1.0,0.0
5014,63.0,0.0,90.0,6.0,0.0
5015,63.0,32.0,90.0,1.0,0.0
5016,67.0,0.0,15.0,6.0,0.0
5017,56.0,0.0,180.0,8.0,0.0
5018,61.0,0.0,180.0,2.0,0.0
5019,58.0,96.0,180.0,8.0,0.0
5020,67.0,96.0,15.0,1.0,0.0
5021,56.0,4.0,180.0,5.0,0.0
5022,61.0,0.0,180.0,7.0,0.0
5023,58.0,0.0,180.0,3.0,0.0
5024,68.0,0.0,90.0,1.0,0.0
5025,68.0,0.0,90.0,6.0,0.0
5026,59.0,0.0,570.0,3.0,0.0
5027,56.0,64.0,330.0,5.0,0.0
5028,63.0,0.0,570.0,7.0,0.0
5029,56.0,0.0,15.0,4.0,0.0
5030,68.0,96.0,90.0,6.0,0.0
5031,68.0,0.0,90.0,1.0,0.0
5032,59.0,0.0,570.0,8.0,0.0
5033,63.0,0.0,570.0,2.0,0.0
5034,56.0,0.0,390.0,8.0,0.0
5035,70.0,0.0,90.0,1.0,0.0
5036,70.0,0.0,90.0,6.0,0.0
5037,44.0,96.0,180.0,0.0,0.0
5038,71.0,32.0,90.0,1.0,0.0
5039,71.0,0.0,90.0,6.0,0.0
5040,68.0,0.0,90.0,6.0,0.0
5041,68.0,0.0,15.0,1.0,0.0
5042,68.0,96.0,90.0,6.0,0.0
5043,44.0,96.0,180.0,4.0,0.0
5044,44.0,0.0,180.0,8.0,0.0
5045,44.0,0.0,180.0,5.0,0.0
5046,46.0,0.0,180.0,0.0,0.0
5047,66.0,0.0,90.0,6.0,0.0
5048,56.0,0.0,390.0,8.0,0.0
5049,37.0,64.0,330.0,5.0,0.0
5050,66.0,96.0,90.0,6.0,0.0
5051,47.0,0.0,780.0,0.0,0.0
5052,66.0,0.0,15.0,1.0,0.0
5053,37.0,96.0,390.0,8.0,0.0
5054,37.0,0.0,390.0,4.0,0.0
5055,65.0,96.0,90.0,6.0,0.0
5056,65.0,0.0,90.0,1.0,0.0
5057,65.0,32.0,90.0,1.0,0.0
5058,65.0,0.0,90.0,6.0,0.0
5059,66.0,0.0,90.0,6.0,0.0
5060,66.0,0.0,90.0,1.0,0.0
5061,56.0,0.0,180.0,8.0,0.0
5062,68.0,92.0,90.0,1.0,0.0
5063,56.0,0.0,15.0,3.0,0.0
5064,68.0,0.0,90.0,6.0,0.0
5065,61.0,0.0,15.0,7.0,0.0
5066,61.0,0.0,15.0,2.0,0.0
5067,49.0,4.0,180.0,5.0,0.0
5068,65.0,0.0,90.0,6.0,0.0
5069,65.0,0.0,90.0,1.0,0.0
5070,49.0,0.0,15.0,4.0,0.0
5071,49.0,64.0,330.0,5.0,0.0
5072,53.0,0.0,570.0,8.0,0.0
5073,56.0,0.0,570.0,7.0,0.0
5074,49.0,96.0,15.0,8.0,0.0
5075,56.0,0.0,570.0,2.0,0.0
5076,59.0,0.0,90.0,1.0,0.0
5077,59.0,96.0,90.0,6.0,0.0
5078,53.0,0.0,570.0,3.0,0.0
5079,61.0,0.0,90.0,1.0,0.0
5080,61.0,96.0,90.0,6.0,0.0
5081,63.0,32.0,90.0,6.0,0.0
5082,63.0,0.0,90.0,1.0,0.0
5083,41.0,0.0,180.0,0.0,0.0
5084,61.0,0.0,90.0,6.0,0.0
5085,37.0,4.0,180.0,5.0,0.0
5086,37.0,0.0,180.0,8.0,0.0
5087,44.0,0.0,180.0,0.0,0.0
5088,61.0,0.0,15.0,1.0,0.0
5089,37.0,0.0,180.0,4.0,0.0
5090,61.0,0.0,90.0,6.0,0.0
5091,59.0,0.0,90.0,1.0,0.0
5092,59.0,96.0,90.0,6.0,0.0
5093,42.0,0.0,180.0,5.0,0.0
5094,46.0,0.0,180.0,0.0,0.0
5095,54.0,0.0,1740.0,3.0,0.0
5096,42.0,0.0,180.0,8.0,0.0
5097,58.0,0.0,90.0,6.0,0.0
5098,42.0,0.0,180.0,4.0,0.0
5099,58.0,96.0,90.0,1.0,0.0
5100,59.0,0.0,90.0,1.0,0.0
5101,59.0,96.0,90.0,6.0,0.0
5102,61.0,92.0,90.0,6.0,0.0
5103,44.0,0.0,180.0,8.0,0.0
5104,61.0,0.0,90.0,1.0,0.0
5105,44.0,96.0,180.0,4.0,0.0
5106,44.0,0.0,180.0,0.0,0.0
5107,44.0,4.0,180.0,5.0,0.0
5108,65.0,0.0,90.0,1.0,0.0
5109,65.0,0.0,90.0,6.0,0.0
5110,61.0,0.0,180.0,7.0,0.0
5111,46.0,96.0,180.0,4.0,0.0
5112,46.0,0.0,180.0,5.0,0.0
5113,65.0,92.0,90.0,1.0,0.0
5114,61.0,0.0,180.0,2.0,0.0
5115,42.0,4.0,180.0,0.0,0.0
5116,46.0,0.0,180.0,8.0,0.0
5117,65.0,0.0,90.0,6.0,0.0
5118,66.0,0.0,90.0,6.0,0.0
5119,66.0,0.0,90.0,1.0,0.0
5120,51.0,96.0,180.0,0.0,0.0
5121,47.0,0.0,180.0,5.0,0.0
5122,59.0,0.0,180.0,2.0,0.0
5123,47.0,0.0,180.0,4.0,0.0
5124,59.0,0.0,180.0,7.0,0.0
5125,66.0,96.0,90.0,1.0,0.0
5126,47.0,0.0,180.0,8.0,0.0
5127,66.0,0.0,90.0,6.0,0.0
5128,64.0,0.0,90.0,6.0,0.0
5129,64.0,0.0,90.0,6.0,0.0
5130,49.0,0.0,180.0,8.0,0.0
5131,64.0,0.0,15.0,1.0,0.0
5132,58.0,96.0,180.0,7.0,0.0
5133,49.0,0.0,180.0,5.0,0.0
5134,58.0,0.0,180.0,2.0,0.0
5135,52.0,4.0,180.0,0.0,0.0
5136,49.0,0.0,180.0,4.0,0.0
5137,63.0,0.0,90.0,6.0,0.0
5138,63.0,0.0,15.0,1.0,0.0
5139,47.0,0.0,180.0,8.0,0.0
5140,47.0,0.0,180.0,4.0,0.0
5141,47.0,0.0,180.0,5.0,0.0
5142,51.0,4.0,180.0,0.0,0.0
5143,59.0,0.0,180.0,7.0,0.0
5144,63.0,0.0,90.0,6.0,0.0
5145,59.0,0.0,180.0,2.0,0.0
5146,61.0,96.0,90.0,1.0,0.0
5147,61.0,0.0,90.0,6.0,0.0
5148,61.0,96.0,90.0,6.0,0.0
5149,49.0,0.0,180.0,0.0,0.0
5150,46.0,96.0,180.0,4.0,0.0
5151,46.0,0.0,180.0,5.0,0.0
5152,61.0,0.0,90.0,1.0,0.0
5153,46.0,0.0,180.0,8.0,0.0
5154,66.0,0.0,90.0,6.0,0.0
5155,66.0,0.0,90.0,1.0,0.0
5156,47.0,0.0,180.0,4.0,0.0
5157,63.0,92.0,90.0,6.0,0.0
5158,63.0,0.0,90.0,1.0,0.0
5159,54.0,0.0,180.0,0.0,0.0
5160,47.0,0.0,180.0,8.0,0.0
5161,47.0,4.0,180.0,5.0,0.0
5162,61.0,96.0,90.0,1.0,0.0
5163,61.0,0.0,90.0,6.0,0.0
5164,46.0,0.0,180.0,8.0,0.0
5165,42.0,0.0,180.0,0.0,0.0
5166,46.0,4.0,180.0,5.0,0.0
5167,61.0,92.0,90.0,1.0,0.0
5168,46.0,96.0,180.0,4.0,0.0
5169,61.0,0.0,90.0,6.0,0.0
5170,59.0,0.0,15.0,6.0,0.0
5171,54.0,0.0,390.0,3.0,0.0
5172,44.0,0.0,180.0,0.0,0.0
5173,44.0,96.0,180.0,5.0,0.0
5174,59.0,0.0,15.0,1.0,0.0
5175,54.0,0.0,15.0,8.0,0.0
5176,44.0,0.0,180.0,4.0,0.0
5177,44.0,0.0,180.0,8.0,0.0
5178,66.0,0.0,90.0,6.0,0.0
5179,66.0,0.0,90.0,1.0,0.0
5180,61.0,0.0,90.0,6.0,0.0
5181,46.0,0.0,180.0,4.0,0.0
5182,46.0,0.0,180.0,0.0,0.0
5183,46.0,4.0,180.0,5.0,0.0
5184,61.0,92.0,90.0,1.0,0.0
5185,46.0,0.0,180.0,8.0,0.0
5186,44.0,0.0,180.0,4.0,0.0
5187,59.0,0.0,15.0,6.0,0.0
5188,53.0,96.0,180.0,8.0,0.0
5189,44.0,0.0,180.0,8.0,0.0
5190,44.0,0.0,180.0,5.0,0.0
5191,59.0,96.0,15.0,1.0,0.0
5192,47.0,4.0,180.0,0.0,0.0
5193,53.0,0.0,180.0,3.0,0.0
5194,58.0,0.0,90.0,1.0,0.0
5195,58.0,0.0,15.0,6.0,0.0
5196,42.0,0.0,180.0,4.0,0.0
5197,42.0,0.0,180.0,5.0,0.0
5198,46.0,4.0,180.0,0.0,0.0
5199,42.0,96.0,180.0,8.0,0.0
5200,54.0,0.0,2310.0,8.0,0.0
5201,54.0,0.0,2310.0,3.0,0.0
5202,58.0,92.0,90.0,1.0,0.0
5203,66.0,0.0,90.0,1.0,0.0
5204,66.0,0.0,90.0,6.0,0.0
5205,59.0,92.0,90.0,1.0,0.0
5206,39.0,0.0,180.0,4.0,0.0
5207,59.0,0.0,90.0,6.0,0.0
5208,54.0,4.0,180.0,0.0,0.0
5209,39.0,0.0,180.0,5.0,0.0
5210,39.0,0.0,180.0,8.0,0.0
5211,58.0,96.0,15.0,1.0,0.0
5212,58.0,0.0,15.0,6.0,0.0
5213,37.0,0.0,180.0,5.0,0.0
5214,37.0,0.0,180.0,4.0,0.0
5215,53.0,4.0,180.0,0.0,0.0
5216,37.0,0.0,180.0,8.0,0.0
5217,56.0,192.0,90.0,1.0,0.0
5218,54.0,128.0,180.0,0.0,0.0
5219,56.0,0.0,15.0,6.0,0.0
5220,36.0,188.0,390.0,8.0,0.0
5221,36.0,0.0,390.0,4.0,0.0
5222,36.0,60.0,330.0,5.0,0.0
5223,56.0,0.0,660.0,1.0,0.0
5224,53.0,4.0,180.0,0.0,0.0
5225,48.0,96.0,180.0,8.0,0.0
5226,54.0,4.0,180.0,0.0,0.0
5227,48.0,0.0,180.0,4.0,0.0
5228,48.0,0.0,180.0,5.0,0.0
5229,44.0,128.0,780.0,0.0,0.0
5230,49.0,96.0,390.0,8.0,0.0
5231,49.0,64.0,330.0,5.0,0.0
5232,49.0,0.0,390.0,4.0,0.0
5233,65.0,0.0,90.0,1.0,0.0
5234,65.0,96.0,15.0,6.0,0.0
5235,65.0,0.0,90.0,1.0,0.0
5236,66.0,0.0,90.0,6.0,0.0
5237,66.0,0.0,15.0,1.0,0.0
5238,37.0,0.0,180.0,4.0,0.0
5239,66.0,0.0,90.0,6.0,0.0
5240,37.0,0.0,180.0,8.0,0.0
5241,37.0,0.0,180.0,5.0,0.0
5242,56.0,0.0,90.0,6.0,0.0
5243,39.0,0.0,390.0,8.0,0.0
5244,39.0,188.0,390.0,4.0,0.0
5245,39.0,60.0,330.0,5.0,0.0
5246,56.0,192.0,15.0,1.0,0.0
5247,56.0,0.0,660.0,6.0,0.0
5248,53.0,4.0,180.0,0.0,0.0
5249,51.0,0.0,180.0,8.0,0.0
5250,51.0,0.0,180.0,4.0,0.0
5251,51.0,96.0,180.0,5.0,0.0
5252,54.0,4.0,180.0,0.0,0.0
5253,49.0,0.0,390.0,8.0,0.0
5254,49.0,64.0,330.0,5.0,0.0
5255,53.0,96.0,180.0,7.0,0.0
5256,49.0,0.0,390.0,4.0,0.0
5257,44.0,0.0,780.0,0.0,0.0
5258,53.0,0.0,180.0,2.0,0.0
5259,65.0,0.0,90.0,6.0,0.0
5260,65.0,0.0,90.0,6.0,0.0
5261,56.0,0.0,180.0,2.0,0.0
5262,56.0,0.0,180.0,7.0,0.0
5263,65.0,0.0,15.0,1.0,0.0
5264,66.0,96.0,90.0,6.0,0.0
5265,37.0,0.0,180.0,8.0,0.0
5266,58.0,0.0,180.0,2.0,0.0
5267,37.0,0.0,180.0,5.0,0.0
5268,37.0,0.0,180.0,4.0,0.0
5269,66.0,0.0,15.0,1.0,0.0
5270,58.0,0.0,180.0,7.0,0.0
5271,66.0,96.0,90.0,6.0,0.0
5272,56.0,96.0,90.0,6.0,0.0
5273,53.0,0.0,180.0,2.0,0.0
5274,53.0,0.0,180.0,7.0,0.0
5275,56.0,0.0,15.0,1.0,0.0
5276,35.0,4.0,180.0,5.0,0.0
5277,35.0,96.0,180.0,4.0,0.0
5278,35.0,0.0,180.0,8.0,0.0
5279,56.0,92.0,90.0,6.0,0.0
5280,59.0,0.0,90.0,6.0,0.0
5281,51.0,0.0,180.0,5.0,0.0
5282,51.0,96.0,180.0,8.0,0.0
5283,54.0,0.0,180.0,7.0,0.0
5284,59.0,96.0,90.0,6.0,0.0
5285,54.0,0.0,180.0,2.0,0.0
5286,59.0,0.0,15.0,1.0,0.0
5287,51.0,0.0,180.0,4.0,0.0
5288,47.0,0.0,180.0,0.0,0.0
5289,58.0,0.0,90.0,6.0,0.0
5290,46.0,0.0,180.0,0.0,0.0
5291,49.0,0.0,180.0,4.0,0.0
5292,58.0,0.0,180.0,2.0,0.0
5293,58.0,0.0,15.0,1.0,0.0
5294,58.0,0.0,90.0,6.0,0.0
5295,49.0,4.0,180.0,5.0,0.0
5296,58.0,0.0,180.0,7.0,0.0
5297,49.0,0.0,180.0,8.0,0.0
5298,63.0,0.0,15.0,6.0,0.0
5299,59.0,96.0,180.0,7.0,0.0
5300,63.0,96.0,15.0,1.0,0.0
5301,47.0,0.0,180.0,5.0,0.0
5302,51.0,0.0,180.0,0.0,0.0
5303,47.0,0.0,180.0,4.0,0.0
5304,54.0,0.0,570.0,8.0,0.0
5305,59.0,0.0,180.0,2.0,0.0
5306,54.0,0.0,570.0,3.0,0.0
5307,47.0,0.0,180.0,8.0,0.0
5308,61.0,0.0,90.0,6.0,0.0
5309,61.0,0.0,90.0,1.0,0.0
5310,49.0,0.0,180.0,0.0,0.0
5311,61.0,0.0,180.0,2.0,0.0
5312,46.0,0.0,180.0,4.0,0.0
5313,46.0,4.0,180.0,5.0,0.0
5314,61.0,96.0,180.0,7.0,0.0
5315,61.0,92.0,90.0,1.0,0.0
5316,46.0,0.0,180.0,8.0,0.0
5317,61.0,0.0,90.0,6.0,0.0
5318,65.0,0.0,90.0,1.0,0.0
5319,54.0,0.0,180.0,7.0,0.0
5320,65.0,0.0,15.0,6.0,0.0
5321,65.0,92.0,90.0,1.0,0.0
5322,54.0,0.0,180.0,2.0,0.0
5323,47.0,48.0,390.0,0.0,0.0
5324,51.0,4.0,180.0,5.0,0.0
5325,51.0,0.0,180.0,4.0,0.0
5326,51.0,0.0,180.0,8.0,0.0
5327,66.0,192.0,90.0,6.0,0.0
5328,66.0,0.0,90.0,1.0,0.0
5329,59.0,0.0,180.0,1.0,0.0
5330,54.0,0.0,180.0,2.0,0.0
5331,47.0,0.0,180.0,5.0,0.0
5332,47.0,0.0,180.0,8.0,0.0
5333,54.0,0.0,180.0,7.0,0.0
5334,51.0,0.0,180.0,3.0,0.0
5335,51.0,0.0,180.0,8.0,0.0
5336,47.0,0.0,180.0,4.0,0.0
5337,59.0,0.0,180.0,6.0,0.0
5338,49.0,0.0,180.0,3.0,0.0
5339,49.0,4.0,180.0,5.0,0.0
5340,56.0,0.0,390.0,1.0,0.0
5341,53.0,0.0,390.0,7.0,0.0
5342,49.0,0.0,180.0,8.0,0.0
5343,46.0,48.0,40.0,0.0,0.0
5344,53.0,0.0,390.0,2.0,0.0
5345,49.0,48.0,180.0,4.0,0.0
5346,56.0,0.0,390.0,6.0,0.0
5347,44.0,48.0,40.0,0.0,0.0
5348,46.0,44.0,40.0,0.0,0.0
5349,44.0,0.0,40.0,0.0,0.0
5350,37.0,0.0,180.0,5.0,0.0
5351,47.0,512.0,180.0,3.0,0.0
5352,46.0,140.0,40.0,0.0,0.0
5353,37.0,0.0,180.0,8.0,0.0
5354,47.0,0.0,180.0,8.0,0.0
5355,37.0,0.0,180.0,4.0,0.0
5356,44.0,4.0,150.0,0.0,0.0
5357,42.0,132.0,750.0,0.0,0.0
5358,42.0,64.0,510.0,5.0,0.0
5359,54.0,0.0,2700.0,8.0,0.0
5360,42.0,0.0,570.0,8.0,0.0
5361,42.0,188.0,570.0,4.0,0.0
5362,54.0,0.0,2700.0,3.0,0.0
5363,52.0,0.0,390.0,8.0,0.0
5364,58.0,192.0,570.0,7.0,0.0
5365,52.0,188.0,390.0,4.0,0.0
5366,61.0,0.0,570.0,6.0,0.0
5367,58.0,0.0,570.0,2.0,0.0
5368,61.0,0.0,570.0,1.0,0.0
5369,52.0,60.0,330.0,5.0,0.0
5370,44.0,4.0,180.0,0.0,0.0
5371,40.0,0.0,180.0,5.0,0.0
5372,46.0,4.0,180.0,0.0,0.0
5373,40.0,0.0,180.0,4.0,0.0
5374,40.0,0.0,180.0,8.0,0.0
5375,47.0,128.0,180.0,0.0,0.0
5376,39.0,60.0,330.0,5.0,0.0
5377,59.0,0.0,570.0,7.0,0.0
5378,59.0,0.0,570.0,2.0,0.0
5379,59.0,0.0,570.0,6.0,0.0
5380,39.0,0.0,390.0,8.0,0.0
5381,39.0,188.0,390.0,4.0,0.0
5382,59.0,0.0,570.0,1.0,0.0
5383,49.0,4.0,180.0,0.0,0.0
5384,51.0,0.0,180.0,5.0,0.0
5385,51.0,192.0,180.0,8.0,0.0
5386,51.0,4.0,180.0,0.0,0.0
5387,51.0,0.0,180.0,4.0,0.0
5388,49.0,188.0,390.0,8.0,0.0
5389,58.0,0.0,570.0,7.0,0.0
5390,64.0,0.0,570.0,1.0,0.0
5391,49.0,60.0,330.0,5.0,0.0
5392,49.0,0.0,390.0,4.0,0.0
5393,64.0,0.0,570.0,6.0,0.0
5394,58.0,0.0,570.0,2.0,0.0
5395,52.0,128.0,180.0,0.0,0.0
5396,51.0,4.0,180.0,0.0,0.0
5397,37.0,0.0,180.0,4.0,0.0
5398,52.0,4.0,180.0,0.0,0.0
5399,37.0,188.0,180.0,8.0,0.0
5400,37.0,0.0,180.0,5.0,0.0
5401,51.0,132.0,180.0,0.0,0.0
5402,35.0,64.0,330.0,5.0,0.0
5403,59.0,0.0,390.0,7.0,0.0
5404,35.0,0.0,390.0,4.0,0.0
5405,63.0,0.0,390.0,1.0,0.0
5406,63.0,0.0,390.0,6.0,0.0
5407,59.0,0.0,390.0,2.0,0.0
5408,35.0,192.0,390.0,8.0,0.0
5409,56.0,4.0,570.0,0.0,0.0
5410,68.0,0.0,180.0,1.0,0.0
5411,47.0,0.0,180.0,4.0,0.0
5412,47.0,188.0,180.0,5.0,0.0
5413,63.0,0.0,180.0,2.0,0.0
5414,54.0,0.0,180.0,3.0,0.0
5415,68.0,0.0,180.0,6.0,0.0
5416,47.0,0.0,180.0,8.0,0.0
5417,63.0,0.0,180.0,7.0,0.0
5418,54.0,0.0,180.0,8.0,0.0
5419,68.0,0.0,180.0,1.0,0.0
5420,46.0,0.0,390.0,8.0,0.0
5421,46.0,192.0,390.0,4.0,0.0
5422,61.0,0.0,180.0,2.0,0.0
5423,68.0,128.0,180.0,6.0,0.0
5424,46.0,60.0,330.0,5.0,0.0
5425,61.0,0.0,180.0,7.0,0.0
5426,53.0,4.0,180.0,0.0,0.0
5427,34.0,0.0,180.0,4.0,0.0
5428,66.0,128.0,180.0,6.0,0.0
5429,61.0,0.0,180.0,7.0,0.0
5430,34.0,0.0,180.0,5.0,0.0
5431,61.0,0.0,180.0,2.0,0.0
5432,34.0,0.0,180.0,8.0,0.0
5433,54.0,64.0,330.0,0.0,0.0
5434,32.0,192.0,390.0,8.0,0.0
5435,59.0,0.0,180.0,2.0,0.0
5436,32.0,0.0,390.0,4.0,0.0
5437,59.0,0.0,180.0,7.0,0.0
5438,32.0,60.0,330.0,5.0,0.0
5439,66.0,0.0,15.0,1.0,0.0
5440,66.0,0.0,180.0,6.0,0.0
5441,51.0,4.0,180.0,0.0,0.0
5442,59.0,192.0,180.0,7.0,0.0
5443,44.0,0.0,180.0,4.0,0.0
5444,44.0,0.0,180.0,8.0,0.0
5445,65.0,0.0,180.0,1.0,0.0
5446,47.0,0.0,390.0,0.0,0.0
5447,44.0,0.0,180.0,5.0,0.0
5448,65.0,0.0,180.0,6.0,0.0
5449,59.0,0.0,15.0,2.0,0.0
5450,42.0,60.0,330.0,5.0,0.0
5451,42.0,0.0,390.0,8.0,0.0
5452,42.0,188.0,390.0,4.0,0.0
5453,63.0,0.0,180.0,6.0,0.0
5454,59.0,128.0,180.0,7.0,0.0
5455,63.0,0.0,180.0,1.0,0.0
5456,46.0,4.0,180.0,0.0,0.0
5457,59.0,0.0,180.0,7.0,0.0
5458,39.0,0.0,180.0,5.0,0.0
5459,39.0,0.0,180.0,8.0,0.0
5460,53.0,0.0,180.0,8.0,0.0
5461,47.0,4.0,180.0,0.0,0.0
5462,63.0,0.0,180.0,6.0,0.0
5463,63.0,0.0,180.0,1.0,0.0
5464,53.0,0.0,180.0,3.0,0.0
5465,39.0,0.0,180.0,4.0,0.0
5466,59.0,192.0,180.0,2.0,0.0
5467,41.0,188.0,390.0,4.0,0.0
5468,41.0,0.0,390.0,8.0,0.0
5469,47.0,128.0,180.0,0.0,0.0
5470,41.0,60.0,330.0,5.0,0.0
5471,44.0,4.0,180.0,0.0,0.0
5472,41.0,4.0,180.0,0.0,0.0
5473,37.0,320.0,180.0,5.0,0.0
5474,37.0,0.0,180.0,4.0,0.0
5475,37.0,0.0,180.0,8.0,0.0
5476,58.0,0.0,390.0,7.0,0.0
5477,58.0,0.0,390.0,2.0,0.0
5478,53.0,0.0,390.0,8.0,0.0
5479,53.0,0.0,390.0,3.0,0.0
5480,39.0,60.0,330.0,5.0,0.0
5481,39.0,0.0,390.0,4.0,0.0
5482,61.0,188.0,390.0,1.0,0.0
5483,39.0,0.0,390.0,8.0,0.0
5484,61.0,0.0,390.0,6.0,0.0
5485,59.0,4.0,180.0,0.0,0.0
5486,56.0,192.0,180.0,2.0,0.0
5487,59.0,0.0,180.0,6.0,0.0
5488,41.0,0.0,180.0,5.0,0.0
5489,41.0,0.0,180.0,4.0,0.0
5490,59.0,0.0,180.0,1.0,0.0
5491,41.0,0.0,180.0,8.0,0.0
5492,51.0,0.0,180.0,8.0,0.0
5493,56.0,4.0,180.0,0.0,0.0
5494,56.0,0.0,180.0,7.0,0.0
5495,51.0,0.0,180.0,3.0,0.0
5496,58.0,0.0,390.0,1.0,0.0
5497,42.0,60.0,330.0,5.0,0.0
5498,42.0,0.0,390.0,4.0,0.0
5499,42.0,0.0,390.0,8.0,0.0
5500,58.0,188.0,390.0,6.0,0.0
5501,54.0,0.0,390.0,7.0,0.0
5502,54.0,0.0,390.0,2.0,0.0
5503,58.0,128.0,180.0,0.0,0.0
5504,54.0,4.0,180.0,0.0,0.0
5505,56.0,0.0,180.0,7.0,0.0
5506,47.0,0.0,180.0,4.0,0.0
5507,51.0,4.0,180.0,0.0,0.0
5508,47.0,0.0,180.0,8.0,0.0
5509,59.0,0.0,180.0,1.0,0.0
5510,47.0,0.0,180.0,5.0,0.0
5511,56.0,0.0,180.0,2.0,0.0
5512,59.0,192.0,180.0,6.0,0.0
5513,49.0,60.0,330.0,5.0,0.0
5514,61.0,128.0,180.0,6.0,0.0
5515,53.0,0.0,180.0,0.0,0.0
5516,49.0,0.0,390.0,8.0,0.0
5517,58.0,0.0,180.0,7.0,0.0
5518,58.0,0.0,180.0,2.0,0.0
5519,61.0,0.0,180.0,1.0,0.0
5520,49.0,0.0,390.0,4.0,0.0
5521,54.0,4.0,180.0,0.0,0.0
5522,59.0,0.0,180.0,7.0,0.0
5523,63.0,0.0,180.0,1.0,0.0
5524,59.0,0.0,180.0,2.0,0.0
5525,63.0,188.0,180.0,6.0,0.0
5526,56.0,0.0,180.0,8.0,0.0
5527,65.0,320.0,180.0,1.0,0.0
5528,59.0,0.0,180.0,7.0,0.0
5529,37.0,0.0,180.0,8.0,0.0
5530,59.0,0.0,180.0,2.0,0.0
5531,42.0,4.0,180.0,0.0,0.0
5532,65.0,0.0,180.0,6.0,0.0
5533,37.0,0.0,180.0,5.0,0.0
5534,37.0,0.0,180.0,4.0,0.0
5535,56.0,0.0,180.0,3.0,0.0
5536,42.0,64.0,330.0,0.0,0.0
5537,66.0,0.0,780.0,6.0,0.0
5538,42.0,0.0,330.0,5.0,0.0
5539,42.0,0.0,390.0,4.0,0.0
5540,66.0,0.0,780.0,1.0,0.0
5541,61.0,0.0,780.0,2.0,0.0
5542,58.0,0.0,780.0,8.0,0.0
5543,42.0,188.0,390.0,8.0,0.0
5544,54.0,0.0,180.0,8.0,0.0
5545,42.0,4.0,180.0,0.0,0.0
5546,54.0,0.0,180.0,5.0,0.0
5547,54.0,192.0,15.0,4.0,0.0
5548,54.0,0.0,390.0,8.0,0.0
5549,54.0,64.0,330.0,5.0,0.0
5550,61.0,0.0,180.0,1.0,0.0
5551,61.0,188.0,180.0,6.0,0.0
5552,61.0,0.0,180.0,2.0,0.0
5553,58.0,0.0,15.0,3.0,0.0
5554,58.0,0.0,180.0,8.0,0.0
5555,61.0,128.0,15.0,7.0,0.0
5556,63.0,0.0,180.0,2.0,0.0
5557,42.0,4.0,180.0,5.0,0.0
5558,59.0,0.0,180.0,3.0,0.0
5559,59.0,192.0,180.0,8.0,0.0
5560,66.0,0.0,180.0,6.0,0.0
5561,63.0,0.0,180.0,7.0,0.0
5562,66.0,0.0,180.0,1.0,0.0
5563,65.0,0.0,180.0,6.0,0.0
5564,42.0,64.0,330.0,5.0,0.0
5565,65.0,128.0,180.0,1.0,0.0
5566,42.0,0.0,15.0,8.0,0.0
5567,59.0,0.0,780.0,2.0,0.0
5568,59.0,128.0,780.0,7.0,0.0
5569,42.0,0.0,15.0,4.0,0.0
5570,66.0,0.0,180.0,6.0,0.0
5571,66.0,0.0,180.0,1.0,0.0
5572,59.0,0.0,180.0,1.0,0.0
5573,59.0,192.0,180.0,6.0,0.0
5574,54.0,0.0,180.0,8.0,0.0
5575,54.0,4.0,180.0,5.0,0.0
5576,54.0,0.0,180.0,4.0,0.0
5577,59.0,0.0,180.0,1.0,0.0
5578,54.0,0.0,390.0,4.0,0.0
5579,54.0,0.0,390.0,8.0,0.0
5580,54.0,64.0,330.0,5.0,0.0
5581,59.0,0.0,180.0,6.0,0.0
5582,65.0,188.0,180.0,6.0,0.0
5583,56.0,0.0,180.0,2.0,0.0
5584,65.0,0.0,180.0,1.0,0.0
5585,56.0,0.0,180.0,7.0,0.0
5586,42.0,4.0,180.0,5.0,0.0
5587,58.0,0.0,180.0,2.0,0.0
5588,58.0,0.0,180.0,7.0,0.0
5589,42.0,0.0,180.0,4.0,0.0
5590,42.0,0.0,15.0,8.0,0.0
5591,54.0,128.0,780.0,3.0,0.0
5592,66.0,0.0,15.0,6.0,0.0
5593,42.0,0.0,390.0,4.0,0.0
5594,61.0,0.0,780.0,7.0,0.0
5595,42.0,64.0,330.0,5.0,0.0
5596,66.0,320.0,15.0,1.0,0.0
5597,54.0,0.0,180.0,4.0,0.0
5598,54.0,0.0,180.0,5.0,0.0
5599,54.0,192.0,180.0,8.0,0.0
5600,53.0,0.0,390.0,8.0,0.0
5601,53.0,64.0,330.0,5.0,0.0
5602,53.0,0.0,390.0,4.0,0.0
5603,61.0,0.0,180.0,7.0,0.0
5604,61.0,0.0,180.0,1.0,0.0
5605,61.0,0.0,15.0,2.0,0.0
5606,61.0,0.0,180.0,6.0,0.0
5607,66.0,0.0,180.0,1.0,0.0
5608,63.0,0.0,180.0,7.0,0.0
5609,41.0,0.0,180.0,8.0,0.0
5610,41.0,0.0,180.0,4.0,0.0
5611,66.0,0.0,180.0,6.0,0.0
5612,63.0,192.0,180.0,2.0,0.0
5613,41.0,0.0,180.0,5.0,0.0
5614,59.0,128.0,780.0,2.0,0.0
5615,65.0,0.0,180.0,1.0,0.0
5616,39.0,64.0,330.0,5.0,0.0
5617,39.0,0.0,390.0,4.0,0.0
5618,59.0,0.0,780.0,7.0,0.0
5619,65.0,128.0,180.0,6.0,0.0
5620,39.0,0.0,390.0,8.0,0.0
5621,66.0,188.0,180.0,1.0,0.0
5622,66.0,0.0,180.0,6.0,0.0
5623,59.0,0.0,390.0,6.0,0.0
5624,51.0,192.0,180.0,8.0,0.0
5625,51.0,4.0,180.0,5.0,0.0
5626,51.0,0.0,180.0,4.0,0.0
5627,59.0,0.0,390.0,1.0,0.0
5628,51.0,0.0,390.0,4.0,0.0
5629,51.0,64.0,330.0,5.0,0.0
5630,51.0,0.0,390.0,8.0,0.0
5631,65.0,0.0,180.0,6.0,0.0
5632,56.0,0.0,180.0,7.0,0.0
5633,56.0,0.0,180.0,2.0,0.0
5634,65.0,192.0,180.0,1.0,0.0
5635,66.0,0.0,180.0,6.0,0.0
5636,39.0,0.0,180.0,4.0,0.0
5637,66.0,192.0,180.0,1.0,0.0
5638,39.0,0.0,180.0,8.0,0.0
5639,39.0,0.0,180.0,5.0,0.0
5640,37.0,0.0,390.0,8.0,0.0
5641,37.0,0.0,390.0,4.0,0.0
5642,58.0,0.0,15.0,7.0,0.0
5643,65.0,128.0,180.0,6.0,0.0
5644,58.0,0.0,15.0,2.0,0.0
5645,37.0,64.0,330.0,5.0,0.0
5646,65.0,0.0,180.0,1.0,0.0
5647,66.0,188.0,180.0,6.0,0.0
5648,66.0,0.0,180.0,1.0,0.0
5649,58.0,0.0,180.0,1.0,0.0
5650,49.0,0.0,180.0,8.0,0.0
5651,49.0,4.0,180.0,5.0,0.0
5652,58.0,0.0,15.0,6.0,0.0
5653,49.0,64.0,330.0,5.0,0.0
5654,58.0,128.0,180.0,1.0,0.0
5655,49.0,0.0,390.0,8.0,0.0
5656,49.0,192.0,15.0,4.0,0.0
5657,61.0,0.0,180.0,1.0,0.0
5658,61.0,192.0,180.0,6.0,0.0
5659,54.0,0.0,180.0,7.0,0.0
5660,54.0,0.0,180.0,2.0,0.0
5661,37.0,0.0,180.0,8.0,0.0
5662,56.0,0.0,180.0,7.0,0.0
5663,37.0,0.0,180.0,5.0,0.0
5664,65.0,192.0,180.0,1.0,0.0
5665,37.0,0.0,180.0,4.0,0.0
5666,56.0,0.0,180.0,2.0,0.0
5667,65.0,0.0,180.0,6.0,0.0
5668,35.0,192.0,390.0,4.0,0.0
5669,65.0,128.0,180.0,2.0,0.0
5670,68.0,0.0,390.0,6.0,0.0
5671,35.0,64.0,330.0,5.0,0.0
5672,35.0,0.0,390.0,8.0,0.0
5673,65.0,0.0,180.0,7.0,0.0
5674,68.0,0.0,390.0,1.0,0.0
5675,66.0,0.0,180.0,7.0,0.0
5676,66.0,0.0,180.0,2.0,0.0
5677,56.0,128.0,390.0,2.0,0.0
5678,65.0,0.0,180.0,6.0,0.0
5679,37.0,0.0,180.0,5.0,0.0
5680,65.0,0.0,180.0,1.0,0.0
5681,56.0,0.0,390.0,7.0,0.0
5682,37.0,0.0,180.0,8.0,0.0
5683,37.0,192.0,180.0,4.0,0.0
5684,66.0,192.0,390.0,6.0,0.0
5685,59.0,0.0,180.0,2.0,0.0
5686,59.0,0.0,180.0,7.0,0.0
5687,39.0,0.0,390.0,8.0,0.0
5688,66.0,0.0,390.0,1.0,0.0
5689,39.0,64.0,330.0,5.0,0.0
5690,39.0,0.0,390.0,4.0,0.0
5691,54.0,0.0,180.0,2.0,0.0
5692,54.0,0.0,15.0,7.0,0.0
5693,35.0,0.0,180.0,5.0,0.0
5694,35.0,48.0,180.0,8.0,0.0
5695,35.0,0.0,180.0,4.0,0.0
5696,59.0,0.0,180.0,6.0,0.0
5697,59.0,0.0,180.0,1.0,0.0
5698,54.0,0.0,180.0,2.0,0.0
5699,56.0,0.0,40.0,7.0,0.0
5700,37.0,0.0,780.0,8.0,0.0
5701,59.0,0.0,40.0,1.0,0.0
5702,37.0,4.0,750.0,5.0,0.0
5703,56.0,48.0,40.0,2.0,0.0
5704,37.0,0.0,780.0,4.0,0.0
5705,59.0,0.0,40.0,6.0,0.0
5706,54.0,0.0,40.0,7.0,0.0
5707,58.0,0.0,40.0,1.0,0.0
5708,58.0,48.0,40.0,6.0,0.0
5709,54.0,0.0,40.0,2.0,0.0
5710,56.0,0.0,40.0,2.0,0.0
5711,59.0,48.0,40.0,1.0,0.0
5712,56.0,0.0,40.0,7.0,0.0
5713,59.0,0.0,40.0,6.0,0.0
5714,58.0,0.0,40.0,1.0,0.0
5715,54.0,0.0,40.0,2.0,0.0
5716,54.0,48.0,40.0,7.0,0.0
5717,58.0,0.0,40.0,6.0,0.0
5718,56.0,144.0,40.0,2.0,0.0
5719,56.0,0.0,40.0,7.0,0.0
5720,59.0,0.0,40.0,6.0,0.0
5721,59.0,0.0,40.0,1.0,0.0
5722,54.0,0.0,150.0,7.0,0.0
5723,54.0,0.0,150.0,2.0,0.0
5724,58.0,192.0,150.0,6.0,0.0
5725,58.0,0.0,150.0,1.0,0.0
5726,53.0,0.0,180.0,2.0,0.0
5727,53.0,96.0,180.0,7.0,0.0
5728,56.0,0.0,180.0,6.0,0.0
5729,56.0,0.0,180.0,1.0,0.0
5730,68.0,92.0,90.0,6.0,0.0
5731,65.0,0.0,180.0,7.0,0.0
5732,68.0,0.0,90.0,1.0,0.0
5733,65.0,64.0,180.0,2.0,0.0
5734,70.0,0.0,90.0,6.0,0.0
5735,70.0,0.0,90.0,1.0,0.0
5736,41.0,0.0,60.0,8.0,0.0
5737,41.0,32.0,60.0,5.0,0.0
5738,68.0,64.0,180.0,7.0,0.0
5739,71.0,0.0,90.0,6.0,0.0
5740,68.0,0.0,180.0,2.0,0.0
5741,41.0,0.0,60.0,4.0,0.0
5742,71.0,96.0,90.0,1.0,0.0
5743,68.0,0.0,90.0,1.0,0.0
5744,65.0,0.0,180.0,2.0,0.0
5745,68.0,0.0,15.0,6.0,0.0
5746,44.0,0.0,60.0,8.0,0.0
5747,44.0,32.0,60.0,4.0,0.0
5748,65.0,0.0,180.0,7.0,0.0
5749,68.0,96.0,90.0,1.0,0.0
5750,44.0,0.0,60.0,5.0,0.0
5751,66.0,96.0,90.0,1.0,0.0
5752,61.0,0.0,180.0,7.0,0.0
5753,47.0,0.0,390.0,4.0,0.0
5754,47.0,0.0,390.0,5.0,0.0
5755,66.0,0.0,15.0,6.0,0.0
5756,61.0,96.0,180.0,2.0,0.0
5757,66.0,96.0,90.0,1.0,0.0
5758,47.0,0.0,390.0,8.0,0.0
5759,65.0,0.0,90.0,6.0,0.0
5760,65.0,96.0,180.0,2.0,0.0
5761,65.0,0.0,90.0,6.0,0.0
5762,65.0,0.0,15.0,1.0,0.0
5763,65.0,0.0,180.0,7.0,0.0
5764,63.0,0.0,90.0,6.0,0.0
5765,63.0,0.0,90.0,1.0,0.0
5766,56.0,0.0,180.0,7.0,0.0
5767,56.0,0.0,180.0,2.0,0.0
5768,63.0,96.0,90.0,1.0,0.0
5769,63.0,0.0,90.0,6.0,0.0
5770,61.0,0.0,90.0,6.0,0.0
5771,61.0,64.0,90.0,1.0,0.0
5772,65.0,0.0,180.0,7.0,0.0
5773,68.0,96.0,90.0,6.0,0.0
5774,37.0,0.0,60.0,8.0,0.0
5775,65.0,0.0,180.0,2.0,0.0
5776,37.0,0.0,60.0,4.0,0.0
5777,68.0,0.0,90.0,1.0,0.0
5778,37.0,32.0,60.0,5.0,0.0
5779,70.0,64.0,90.0,1.0,0.0
5780,70.0,0.0,90.0,6.0,0.0
5781,68.0,0.0,180.0,2.0,0.0
5782,68.0,0.0,180.0,7.0,0.0
5783,41.0,0.0,60.0,4.0,0.0
5784,41.0,0.0,60.0,8.0,0.0
5785,41.0,32.0,60.0,5.0,0.0
5786,71.0,0.0,90.0,6.0,0.0
5787,71.0,96.0,90.0,1.0,0.0
5788,68.0,64.0,90.0,6.0,0.0
5789,71.0,0.0,180.0,7.0,0.0
5790,71.0,96.0,180.0,2.0,0.0
5791,44.0,32.0,60.0,4.0,0.0
5792,44.0,0.0,60.0,8.0,0.0
5793,44.0,0.0,60.0,5.0,0.0
5794,68.0,0.0,15.0,1.0,0.0
5795,68.0,96.0,90.0,6.0,0.0
5796,66.0,0.0,90.0,1.0,0.0
5797,47.0,0.0,390.0,5.0,0.0
5798,66.0,96.0,90.0,1.0,0.0
5799,47.0,0.0,390.0,4.0,0.0
5800,66.0,0.0,15.0,6.0,0.0
5801,56.0,0.0,180.0,7.0,0.0
5802,47.0,0.0,390.0,8.0,0.0
5803,56.0,96.0,180.0,2.0,0.0
5804,65.0,0.0,90.0,6.0,0.0
5805,65.0,0.0,90.0,6.0,0.0
5806,61.0,96.0,180.0,7.0,0.0
5807,65.0,0.0,15.0,1.0,0.0
5808,61.0,0.0,180.0,2.0,0.0
5809,63.0,0.0,90.0,6.0,0.0
5810,63.0,0.0,90.0,6.0,0.0
5811,53.0,64.0,180.0,7.0,0.0
5812,63.0,0.0,15.0,1.0,0.0
5813,53.0,0.0,180.0,2.0,0.0
5814,61.0,0.0,90.0,1.0,0.0
5815,61.0,0.0,90.0,6.0,0.0
5816,42.0,0.0,60.0,5.0,0.0
5817,42.0,32.0,60.0,4.0,0.0
5818,70.0,0.0,90.0,6.0,0.0
5819,70.0,96.0,90.0,1.0,0.0
5820,61.0,0.0,570.0,7.0,0.0
5821,42.0,0.0,60.0,8.0,0.0
5822,61.0,0.0,570.0,2.0,0.0
5823,71.0,0.0,90.0,6.0,0.0
5824,71.0,64.0,90.0,1.0,0.0
5825,73.0,0.0,90.0,1.0,0.0
5826,46.0,0.0,60.0,8.0,0.0
5827,73.0,96.0,90.0,6.0,0.0
5828,46.0,0.0,60.0,5.0,0.0
5829,46.0,32.0,60.0,4.0,0.0
5830,70.0,0.0,90.0,6.0,0.0
5831,70.0,0.0,90.0,6.0,0.0
5832,70.0,64.0,15.0,1.0,0.0
5833,49.0,0.0,60.0,8.0,0.0
5834,49.0,0.0,60.0,4.0,0.0
5835,49.0,32.0,60.0,5.0,0.0
5836,68.0,0.0,90.0,1.0,0.0
5837,52.0,64.0,330.0,5.0,0.0
5838,68.0,96.0,15.0,6.0,0.0
5839,68.0,96.0,90.0,1.0,0.0
5840,52.0,96.0,390.0,4.0,0.0
5841,58.0,96.0,180.0,2.0,0.0
5842,58.0,0.0,180.0,7.0,0.0
5843,52.0,0.0,390.0,8.0,0.0
5844,66.0,0.0,90.0,6.0,0.0
5845,66.0,0.0,90.0,1.0,0.0
5846,66.0,32.0,90.0,6.0,0.0
5847,61.0,0.0,180.0,2.0,0.0
5848,61.0,0.0,180.0,7.0,0.0
5849,66.0,0.0,90.0,1.0,0.0
5850,64.0,0.0,15.0,6.0,0.0
5851,58.0,0.0,180.0,2.0,0.0
5852,64.0,0.0,15.0,1.0,0.0
5853,58.0,64.0,180.0,7.0,0.0
5854,66.0,0.0,90.0,1.0,0.0
5855,66.0,0.0,90.0,6.0,0.0
5856,70.0,0.0,90.0,6.0,0.0
5857,42.0,0.0,60.0,8.0,0.0
5858,42.0,32.0,60.0,4.0,0.0
5859,61.0,0.0,570.0,2.0,0.0
5860,70.0,96.0,90.0,1.0,0.0
5861,61.0,0.0,570.0,7.0,0.0
5862,42.0,0.0,60.0,5.0,0.0
5863,71.0,0.0,90.0,6.0,0.0
5864,71.0,64.0,90.0,1.0,0.0
5865,73.0,0.0,90.0,1.0,0.0
5866,46.0,32.0,60.0,8.0,0.0
5867,73.0,96.0,90.0,6.0,0.0
5868,46.0,0.0,60.0,4.0,0.0
5869,46.0,0.0,60.0,5.0,0.0
5870,70.0,0.0,90.0,6.0,0.0
5871,49.0,32.0,60.0,8.0,0.0
5872,49.0,0.0,60.0,5.0,0.0
5873,70.0,64.0,15.0,1.0,0.0
5874,70.0,96.0,90.0,6.0,0.0
5875,49.0,0.0,60.0,4.0,0.0
5876,68.0,0.0,90.0,6.0,0.0
5877,52.0,64.0,330.0,5.0,0.0
5878,52.0,0.0,390.0,4.0,0.0
5879,58.0,0.0,180.0,7.0,0.0
5880,52.0,0.0,390.0,8.0,0.0
5881,68.0,96.0,15.0,1.0,0.0
5882,68.0,0.0,90.0,6.0,0.0
5883,66.0,0.0,15.0,1.0,0.0
5884,58.0,0.0,15.0,2.0,0.0
5885,58.0,0.0,180.0,7.0,0.0
5886,66.0,96.0,15.0,6.0,0.0
5887,64.0,0.0,90.0,6.0,0.0
5888,64.0,0.0,15.0,1.0,0.0
5889,58.0,96.0,15.0,2.0,0.0
5890,58.0,0.0,180.0,7.0,0.0
5891,64.0,0.0,90.0,6.0,0.0
5892,47.0,0.0,180.0,8.0,0.0
5893,63.0,0.0,15.0,1.0,0.0
5894,59.0,0.0,390.0,7.0,0.0
5895,54.0,0.0,15.0,2.0,0.0
5896,59.0,0.0,390.0,2.0,0.0
5897,54.0,0.0,15.0,7.0,0.0
5898,47.0,0.0,180.0,4.0,0.0
5899,63.0,0.0,15.0,6.0,0.0
5900,47.0,0.0,180.0,5.0,0.0
5901,66.0,0.0,90.0,1.0,0.0
5902,66.0,96.0,90.0,6.0,0.0
5903,49.0,96.0,180.0,8.0,0.0
5904,49.0,0.0,180.0,5.0,0.0
5905,64.0,0.0,90.0,6.0,0.0
5906,49.0,0.0,180.0,4.0,0.0
5907,64.0,96.0,90.0,1.0,0.0
5908,63.0,0.0,90.0,1.0,0.0
5909,63.0,0.0,90.0,6.0,0.0
5910,47.0,0.0,180.0,8.0,0.0
5911,63.0,92.0,90.0,1.0,0.0
5912,47.0,4.0,180.0,5.0,0.0
5913,63.0,0.0,90.0,6.0,0.0
5914,47.0,0.0,180.0,4.0,0.0
5915,61.0,0.0,90.0,6.0,0.0
5916,61.0,96.0,15.0,1.0,0.0
5917,54.0,0.0,390.0,2.0,0.0
5918,54.0,96.0,390.0,7.0,0.0
5919,46.0,0.0,180.0,4.0,0.0
5920,46.0,0.0,180.0,8.0,0.0
5921,61.0,0.0,90.0,6.0,0.0
5922,46.0,0.0,180.0,5.0,0.0
5923,66.0,0.0,90.0,6.0,0.0
5924,66.0,96.0,90.0,1.0,0.0
5925,47.0,0.0,180.0,5.0,0.0
5926,63.0,96.0,90.0,6.0,0.0
5927,47.0,0.0,180.0,8.0,0.0
5928,47.0,0.0,180.0,4.0,0.0
5929,63.0,0.0,90.0,1.0,0.0
5930,61.0,0.0,90.0,1.0,0.0
5931,61.0,92.0,90.0,1.0,0.0
5932,46.0,4.0,180.0,5.0,0.0
5933,46.0,0.0,180.0,8.0,0.0
5934,61.0,0.0,15.0,6.0,0.0
5935,46.0,0.0,180.0,4.0,0.0
5936,59.0,0.0,90.0,1.0,0.0
5937,44.0,96.0,180.0,4.0,0.0
5938,44.0,0.0,180.0,5.0,0.0
5939,53.0,96.0,390.0,2.0,0.0
5940,44.0,0.0,180.0,8.0,0.0
5941,53.0,0.0,390.0,7.0,0.0
5942,59.0,96.0,15.0,6.0,0.0
5943,59.0,0.0,90.0,1.0,0.0
5944,66.0,0.0,90.0,6.0,0.0
5945,66.0,0.0,90.0,1.0,0.0
5946,46.0,0.0,180.0,5.0,0.0
5947,61.0,96.0,90.0,1.0,0.0
5948,61.0,0.0,90.0,6.0,0.0
5949,46.0,0.0,180.0,8.0,0.0
5950,46.0,0.0,180.0,4.0,0.0
5951,59.0,0.0,90.0,6.0,0.0
5952,59.0,0.0,90.0,1.0,0.0
5953,44.0,4.0,180.0,5.0,0.0
5954,44.0,0.0,180.0,4.0,0.0
5955,59.0,0.0,90.0,1.0,0.0
5956,44.0,0.0,180.0,8.0,0.0
5957,59.0,92.0,90.0,6.0,0.0
5958,58.0,0.0,90.0,6.0,0.0
5959,42.0,0.0,180.0,4.0,0.0
5960,66.0,0.0,570.0,7.0,0.0
5961,66.0,0.0,570.0,2.0,0.0
5962,42.0,96.0,180.0,8.0,0.0
5963,42.0,0.0,180.0,5.0,0.0
5964,58.0,96.0,15.0,1.0,0.0
5965,58.0,96.0,90.0,6.0,0.0
5966,66.0,0.0,90.0,1.0,0.0
5967,66.0,0.0,90.0,6.0,0.0
5968,39.0,0.0,180.0,8.0,0.0
5969,59.0,96.0,90.0,6.0,0.0
5970,39.0,0.0,180.0,5.0,0.0
5971,59.0,0.0,90.0,1.0,0.0
5972,39.0,96.0,180.0,4.0,0.0
5973,58.0,0.0,90.0,1.0,0.0
5974,58.0,0.0,90.0,6.0,0.0
5975,37.0,0.0,180.0,4.0,0.0
5976,58.0,96.0,90.0,1.0,0.0
5977,58.0,0.0,90.0,6.0,0.0
5978,37.0,0.0,180.0,8.0,0.0
5979,37.0,0.0,180.0,5.0,0.0
5980,56.0,0.0,90.0,6.0,0.0
5981,56.0,96.0,15.0,1.0,0.0
5982,36.0,96.0,390.0,8.0,0.0
5983,36.0,64.0,330.0,5.0,0.0
5984,56.0,0.0,90.0,6.0,0.0
5985,36.0,0.0,390.0,4.0,0.0
5986,65.0,0.0,90.0,6.0,0.0
5987,65.0,96.0,90.0,1.0,0.0
5988,65.0,0.0,90.0,6.0,0.0
5989,65.0,32.0,90.0,1.0,0.0
5990,48.0,0.0,180.0,8.0,0.0
5991,66.0,0.0,15.0,6.0,0.0
5992,48.0,0.0,180.0,4.0,0.0
5993,66.0,0.0,15.0,1.0,0.0
5994,48.0,0.0,180.0,5.0,0.0
5995,56.0,96.0,90.0,6.0,0.0
5996,56.0,0.0,90.0,1.0,0.0
5997,56.0,0.0,15.0,7.0,0.0
5998,49.0,64.0,330.0,5.0,0.0
5999,56.0,0.0,15.0,2.0,0.0
6000,49.0,0.0,390.0,8.0,0.0
6001,49.0,0.0,390.0,4.0,0.0
6002,56.0,0.0,90.0,1.0,0.0
6003,56.0,96.0,90.0,6.0,0.0
6004,65.0,0.0,90.0,1.0,0.0
6005,65.0,0.0,90.0,1.0,0.0
6006,65.0,96.0,15.0,6.0,0.0
6007,37.0,0.0,180.0,5.0,0.0
6008,37.0,0.0,180.0,8.0,0.0
6009,66.0,0.0,15.0,1.0,0.0
6010,37.0,0.0,180.0,4.0,0.0
6011,66.0,96.0,15.0,6.0,0.0
6012,56.0,96.0,90.0,6.0,0.0
6013,39.0,96.0,390.0,4.0,0.0
6014,56.0,0.0,15.0,1.0,0.0
6015,39.0,64.0,330.0,5.0,0.0
6016,56.0,96.0,90.0,6.0,0.0
6017,56.0,0.0,570.0,7.0,0.0
6018,39.0,0.0,390.0,8.0,0.0
6019,65.0,0.0,90.0,6.0,0.0
6020,65.0,0.0,90.0,6.0,0.0
6021,65.0,96.0,15.0,1.0,0.0
6022,66.0,0.0,90.0,1.0,0.0
6023,51.0,0.0,180.0,8.0,0.0
6024,51.0,0.0,180.0,4.0,0.0
6025,51.0,0.0,180.0,5.0,0.0
6026,66.0,0.0,15.0,6.0,0.0
6027,66.0,96.0,90.0,1.0,0.0
6028,56.0,96.0,90.0,1.0,0.0
6029,56.0,0.0,15.0,2.0,0.0
6030,49.0,0.0,390.0,4.0,0.0
6031,49.0,64.0,330.0,5.0,0.0
6032,56.0,0.0,15.0,6.0,0.0
6033,49.0,0.0,390.0,8.0,0.0
6034,56.0,96.0,90.0,1.0,0.0
6035,65.0,0.0,90.0,6.0,0.0
6036,65.0,0.0,90.0,6.0,0.0
6037,56.0,0.0,15.0,7.0,0.0
6038,59.0,0.0,180.0,7.0,0.0
6039,65.0,0.0,15.0,1.0,0.0
6040,59.0,0.0,180.0,2.0,0.0
6041,56.0,96.0,15.0,2.0,0.0
6042,66.0,96.0,90.0,6.0,0.0
6043,66.0,0.0,15.0,1.0,0.0
6044,58.0,0.0,180.0,2.0,0.0
6045,37.0,0.0,180.0,8.0,0.0
6046,37.0,0.0,180.0,4.0,0.0
6047,58.0,0.0,180.0,7.0,0.0
6048,37.0,0.0,180.0,5.0,0.0
6049,66.0,96.0,90.0,6.0,0.0
6050,56.0,0.0,90.0,6.0,0.0
6051,56.0,96.0,90.0,1.0,0.0
6052,56.0,0.0,90.0,6.0,0.0
6053,54.0,0.0,15.0,2.0,0.0
6054,35.0,4.0,180.0,5.0,0.0
6055,35.0,0.0,180.0,4.0,0.0
6056,35.0,96.0,180.0,8.0,0.0
6057,54.0,0.0,15.0,7.0,0.0
6058,56.0,92.0,90.0,1.0,0.0
6059,51.0,0.0,180.0,4.0,0.0
6060,51.0,0.0,180.0,5.0,0.0
6061,59.0,0.0,15.0,6.0,0.0
6062,59.0,0.0,15.0,1.0,0.0
6063,51.0,0.0,180.0,8.0,0.0
6064,58.0,0.0,90.0,1.0,0.0
6065,58.0,0.0,90.0,6.0,0.0
6066,58.0,0.0,90.0,1.0,0.0
6067,54.0,0.0,15.0,2.0,0.0
6068,58.0,92.0,90.0,6.0,0.0
6069,49.0,0.0,180.0,4.0,0.0
6070,49.0,4.0,180.0,5.0,0.0
6071,49.0,0.0,180.0,8.0,0.0
6072,54.0,96.0,15.0,7.0,0.0
6073,63.0,0.0,90.0,1.0,0.0
6074,47.0,0.0,180.0,8.0,0.0
6075,63.0,0.0,90.0,1.0,0.0
6076,47.0,0.0,180.0,4.0,0.0
6077,47.0,0.0,180.0,5.0,0.0
6078,63.0,96.0,15.0,6.0,0.0
6079,61.0,0.0,90.0,6.0,0.0
6080,46.0,0.0,180.0,4.0,0.0
6081,46.0,96.0,180.0,8.0,0.0
6082,58.0,0.0,180.0,7.0,0.0
6083,58.0,0.0,180.0,2.0,0.0
6084,46.0,4.0,180.0,5.0,0.0
6085,61.0,96.0,15.0,1.0,0.0
6086,61.0,0.0,90.0,6.0,0.0
6087,65.0,0.0,90.0,1.0,0.0
6088,65.0,0.0,90.0,6.0,0.0
6089,54.0,0.0,180.0,2.0,0.0
6090,54.0,0.0,180.0,7.0,0.0
6091,51.0,4.0,180.0,5.0,0.0
6092,65.0,92.0,90.0,1.0,0.0
6093,65.0,0.0,90.0,6.0,0.0
6094,51.0,0.0,180.0,4.0,0.0
6095,66.0,0.0,90.0,1.0,0.0
6096,66.0,0.0,90.0,6.0,0.0
6097,59.0,0.0,180.0,6.0,0.0
6098,47.0,4.0,180.0,5.0,0.0
6099,56.0,0.0,180.0,7.0,0.0
6100,56.0,48.0,180.0,2.0,0.0
6101,51.0,0.0,180.0,3.0,0.0
6102,47.0,0.0,180.0,4.0,0.0
6103,51.0,188.0,15.0,8.0,0.0
6104,47.0,0.0,180.0,8.0,0.0
6105,59.0,0.0,180.0,1.0,0.0
6106,49.0,0.0,180.0,5.0,0.0
6107,49.0,0.0,180.0,8.0,0.0
6108,49.0,0.0,180.0,4.0,0.0
6109,58.0,48.0,40.0,6.0,0.0
6110,54.0,0.0,40.0,7.0,0.0
6111,49.0,0.0,180.0,3.0,0.0
6112,58.0,0.0,40.0,1.0,0.0
6113,54.0,0.0,40.0,2.0,0.0
6114,53.0,48.0,40.0,7.0,0.0
6115,53.0,0.0,40.0,2.0,0.0
6116,56.0,0.0,40.0,1.0,0.0
6117,56.0,0.0,40.0,6.0,0.0
6118,54.0,48.0,40.0,2.0,0.0
6119,58.0,0.0,40.0,6.0,0.0
6120,54.0,0.0,40.0,7.0,0.0
6121,58.0,0.0,40.0,1.0,0.0
6122,56.0,0.0,40.0,1.0,0.0
6123,53.0,48.0,40.0,2.0,0.0
6124,53.0,0.0,40.0,7.0,0.0
6125,56.0,0.0,40.0,6.0,0.0
6126,37.0,0.0,180.0,8.0,0.0
6127,47.0,0.0,180.0,8.0,0.0
6128,47.0,320.0,180.0,3.0,0.0
6129,58.0,0.0,40.0,6.0,0.0
6130,37.0,0.0,180.0,4.0,0.0
6131,58.0,140.0,40.0,1.0,0.0
6132,54.0,0.0,40.0,2.0,0.0
6133,37.0,4.0,180.0,5.0,0.0
6134,54.0,0.0,40.0,7.0,0.0
6135,53.0,0.0,150.0,7.0,0.0
6136,56.0,0.0,150.0,1.0,0.0
6137,53.0,0.0,150.0,2.0,0.0
6138,56.0,0.0,150.0,6.0,0.0
6139,42.0,0.0,390.0,8.0,0.0
6140,54.0,0.0,390.0,2.0,0.0
6141,42.0,0.0,390.0,4.0,0.0
6142,42.0,64.0,330.0,5.0,0.0
6143,54.0,0.0,390.0,7.0,0.0
6144,54.0,0.0,390.0,6.0,0.0
6145,54.0,0.0,390.0,1.0,0.0
