,note,step,duration,channel,velocity
0,63.0,0.0,1530.0,2.0,0.0
1,63.0,0.0,1530.0,1.0,0.0
2,55.0,0.0,270.0,5.0,0.0
3,58.0,256.0,270.0,4.0,0.0
4,53.0,512.0,270.0,5.0,0.0
5,56.0,0.0,270.0,4.0,0.0
6,55.0,512.0,510.0,5.0,0.0
7,58.0,0.0,510.0,4.0,0.0
8,51.0,0.0,510.0,6.0,0.0
9,60.0,512.0,510.0,4.0,0.0
10,65.0,0.0,1530.0,1.0,0.0
11,65.0,0.0,1530.0,2.0,0.0
12,56.0,0.0,510.0,5.0,0.0
13,56.0,0.0,510.0,4.0,0.0
14,53.0,512.0,510.0,5.0,0.0
15,49.0,0.0,510.0,6.0,0.0
16,61.0,512.0,510.0,4.0,0.0
17,58.0,0.0,510.0,5.0,0.0
18,58.0,512.0,510.0,4.0,0.0
19,55.0,0.0,510.0,5.0,0.0
20,63.0,512.0,1530.0,2.0,0.0
21,63.0,0.0,1530.0,1.0,0.0
22,51.0,512.0,510.0,5.0,0.0
23,55.0,0.0,510.0,4.0,0.0
24,60.0,0.0,510.0,4.0,0.0
25,56.0,0.0,510.0,5.0,0.0
26,48.0,0.0,510.0,6.0,0.0
27,53.0,0.0,510.0,5.0,0.0
28,56.0,256.0,510.0,4.0,0.0
29,61.0,0.0,1530.0,1.0,0.0
30,61.0,0.0,1530.0,2.0,0.0
31,58.0,0.0,270.0,4.0,0.0
32,55.0,256.0,270.0,5.0,0.0
33,53.0,512.0,270.0,5.0,0.0
34,56.0,0.0,270.0,4.0,0.0
35,55.0,0.0,510.0,5.0,0.0
36,58.0,0.0,510.0,4.0,0.0
37,46.0,512.0,510.0,6.0,0.0
38,55.0,0.0,510.0,4.0,0.0
39,63.0,256.0,1530.0,2.0,0.0
40,51.0,256.0,510.0,5.0,0.0
41,63.0,0.0,1530.0,1.0,0.0
42,60.0,0.0,270.0,4.0,0.0
43,56.0,256.0,270.0,5.0,0.0
44,58.0,0.0,270.0,4.0,0.0
45,55.0,512.0,270.0,5.0,0.0
46,60.0,256.0,1020.0,4.0,0.0
47,56.0,0.0,510.0,5.0,0.0
48,48.0,0.0,510.0,6.0,0.0
49,68.0,0.0,1530.0,1.0,0.0
50,53.0,256.0,270.0,5.0,0.0
51,68.0,0.0,1530.0,2.0,0.0
52,51.0,0.0,270.0,5.0,0.0
53,61.0,256.0,270.0,4.0,0.0
54,53.0,0.0,270.0,5.0,0.0
55,63.0,0.0,270.0,4.0,0.0
56,55.0,256.0,270.0,5.0,0.0
57,56.0,256.0,1020.0,5.0,0.0
58,49.0,0.0,510.0,6.0,0.0
59,65.0,256.0,270.0,4.0,0.0
60,63.0,512.0,270.0,4.0,0.0
61,70.0,0.0,1530.0,2.0,0.0
62,70.0,0.0,1530.0,1.0,0.0
63,61.0,0.0,510.0,4.0,0.0
64,58.0,0.0,510.0,4.0,0.0
65,55.0,256.0,270.0,5.0,0.0
66,53.0,512.0,270.0,5.0,0.0
67,63.0,512.0,510.0,4.0,0.0
68,51.0,0.0,510.0,6.0,0.0
69,55.0,0.0,510.0,5.0,0.0
70,56.0,256.0,510.0,5.0,0.0
71,44.0,0.0,1530.0,6.0,0.0
72,68.0,0.0,1530.0,2.0,0.0
73,60.0,512.0,1530.0,4.0,0.0
74,68.0,0.0,1530.0,1.0,0.0
75,51.0,256.0,270.0,5.0,0.0
76,49.0,512.0,270.0,5.0,0.0
77,51.0,0.0,510.0,5.0,0.0
78,44.0,256.0,510.0,5.0,0.0
79,68.0,0.0,1530.0,2.0,0.0
80,68.0,0.0,1530.0,1.0,0.0
81,63.0,0.0,270.0,4.0,0.0
82,60.0,256.0,270.0,5.0,0.0
83,61.0,0.0,270.0,4.0,0.0
84,58.0,512.0,270.0,5.0,0.0
85,44.0,0.0,510.0,6.0,0.0
86,63.0,0.0,510.0,4.0,0.0
87,60.0,512.0,510.0,5.0,0.0
88,63.0,512.0,1530.0,2.0,0.0
89,63.0,0.0,1530.0,1.0,0.0
90,55.0,0.0,510.0,5.0,0.0
91,58.0,512.0,510.0,4.0,0.0
92,55.0,0.0,510.0,4.0,0.0
93,51.0,512.0,510.0,5.0,0.0
94,48.0,0.0,510.0,6.0,0.0
95,56.0,0.0,510.0,5.0,0.0
96,60.0,0.0,510.0,4.0,0.0
97,65.0,0.0,1020.0,1.0,0.0
98,65.0,512.0,1020.0,2.0,0.0
99,56.0,0.0,510.0,4.0,0.0
100,49.0,256.0,510.0,5.0,0.0
101,61.0,0.0,270.0,4.0,0.0
102,58.0,256.0,270.0,5.0,0.0
103,60.0,0.0,270.0,4.0,0.0
104,56.0,0.0,270.0,5.0,0.0
105,61.0,0.0,510.0,4.0,0.0
106,46.0,0.0,510.0,6.0,0.0
107,67.0,0.0,510.0,2.0,0.0
108,67.0,512.0,510.0,1.0,0.0
109,58.0,0.0,510.0,5.0,0.0
110,63.0,256.0,510.0,4.0,0.0
111,60.0,0.0,510.0,5.0,0.0
112,68.0,0.0,1530.0,2.0,0.0
113,68.0,0.0,1530.0,1.0,0.0
114,48.0,0.0,510.0,5.0,0.0
115,65.0,256.0,270.0,4.0,0.0
116,63.0,256.0,270.0,4.0,0.0
117,44.0,0.0,510.0,6.0,0.0
118,53.0,512.0,510.0,5.0,0.0
119,61.0,256.0,270.0,4.0,0.0
120,60.0,0.0,270.0,4.0,0.0
121,49.0,256.0,510.0,5.0,0.0
122,58.0,0.0,510.0,4.0,0.0
123,70.0,0.0,1530.0,1.0,0.0
124,70.0,0.0,1530.0,2.0,0.0
125,46.0,512.0,510.0,5.0,0.0
126,63.0,256.0,270.0,4.0,0.0
127,61.0,0.0,270.0,4.0,0.0
128,51.0,256.0,510.0,5.0,0.0
129,43.0,0.0,510.0,6.0,0.0
130,63.0,0.0,1020.0,4.0,0.0
131,72.0,256.0,1530.0,2.0,0.0
132,44.0,256.0,270.0,5.0,0.0
133,48.0,256.0,270.0,5.0,0.0
134,60.0,256.0,510.0,4.0,0.0
135,51.0,256.0,270.0,5.0,0.0
136,49.0,0.0,270.0,5.0,0.0
137,48.0,256.0,270.0,5.0,0.0
138,44.0,0.0,510.0,6.0,0.0
139,63.0,0.0,510.0,4.0,0.0
140,46.0,0.0,270.0,5.0,0.0
141,72.0,0.0,15.0,1.0,0.0
142,48.0,0.0,510.0,5.0,0.0
143,72.0,0.0,1530.0,2.0,0.0
144,68.0,256.0,270.0,4.0,0.0
145,67.0,256.0,270.0,4.0,0.0
146,44.0,256.0,510.0,5.0,0.0
147,65.0,256.0,270.0,4.0,0.0
148,63.0,0.0,270.0,4.0,0.0
149,32.0,512.0,510.0,6.0,0.0
150,65.0,256.0,270.0,4.0,0.0
151,56.0,256.0,1020.0,5.0,0.0
152,62.0,0.0,780.0,4.0,0.0
153,39.0,0.0,1530.0,6.0,0.0
154,70.0,0.0,1530.0,2.0,0.0
155,55.0,256.0,270.0,5.0,0.0
156,63.0,0.0,270.0,4.0,0.0
157,53.0,0.0,270.0,5.0,0.0
158,62.0,256.0,270.0,4.0,0.0
159,55.0,0.0,510.0,5.0,0.0
160,63.0,256.0,270.0,4.0,0.0
161,65.0,0.0,270.0,4.0,0.0
162,70.0,256.0,15.0,1.0,0.0
163,51.0,256.0,510.0,5.0,0.0
164,70.0,0.0,1530.0,2.0,0.0
165,67.0,256.0,270.0,4.0,0.0
166,65.0,0.0,270.0,4.0,0.0
167,63.0,256.0,270.0,4.0,0.0
168,55.0,0.0,270.0,5.0,0.0
169,53.0,256.0,270.0,5.0,0.0
170,62.0,0.0,270.0,4.0,0.0
171,55.0,256.0,270.0,5.0,0.0
172,39.0,0.0,510.0,6.0,0.0
173,51.0,0.0,270.0,5.0,0.0
174,44.0,256.0,510.0,5.0,0.0
175,72.0,0.0,1530.0,1.0,0.0
176,72.0,512.0,1530.0,2.0,0.0
177,63.0,0.0,15.0,4.0,0.0
178,56.0,256.0,270.0,5.0,0.0
179,55.0,512.0,270.0,5.0,0.0
180,44.0,0.0,510.0,6.0,0.0
181,68.0,0.0,510.0,4.0,0.0
182,56.0,0.0,510.0,5.0,0.0
183,63.0,0.0,510.0,4.0,0.0
184,48.0,256.0,510.0,5.0,0.0
185,68.0,512.0,1530.0,1.0,0.0
186,68.0,0.0,1530.0,2.0,0.0
187,60.0,512.0,510.0,4.0,0.0
188,56.0,256.0,270.0,5.0,0.0
189,55.0,0.0,270.0,5.0,0.0
190,56.0,0.0,510.0,5.0,0.0
191,63.0,0.0,1020.0,4.0,0.0
192,48.0,0.0,510.0,6.0,0.0
193,49.0,256.0,510.0,5.0,0.0
194,65.0,0.0,1530.0,1.0,0.0
195,65.0,512.0,1530.0,2.0,0.0
196,53.0,0.0,510.0,5.0,0.0
197,61.0,256.0,270.0,4.0,0.0
198,60.0,512.0,270.0,4.0,0.0
199,49.0,0.0,510.0,6.0,0.0
200,58.0,0.0,510.0,5.0,0.0
201,61.0,0.0,1020.0,4.0,0.0
202,55.0,256.0,510.0,5.0,0.0
203,63.0,0.0,1530.0,1.0,0.0
204,63.0,0.0,1530.0,2.0,0.0
205,60.0,256.0,270.0,4.0,0.0
206,51.0,0.0,510.0,5.0,0.0
207,58.0,512.0,270.0,4.0,0.0
208,51.0,256.0,510.0,6.0,0.0
209,60.0,0.0,510.0,4.0,0.0
210,56.0,0.0,510.0,5.0,0.0
211,58.0,0.0,510.0,4.0,0.0
212,67.0,256.0,1530.0,2.0,0.0
213,67.0,0.0,1530.0,1.0,0.0
214,51.0,256.0,270.0,5.0,0.0
215,53.0,256.0,270.0,5.0,0.0
216,63.0,256.0,270.0,4.0,0.0
217,55.0,0.0,270.0,5.0,0.0
218,56.0,0.0,270.0,5.0,0.0
219,62.0,256.0,270.0,4.0,0.0
220,39.0,0.0,510.0,6.0,0.0
221,63.0,0.0,1020.0,4.0,0.0
222,58.0,256.0,270.0,5.0,0.0
223,55.0,0.0,270.0,5.0,0.0
224,60.0,256.0,270.0,5.0,0.0
225,69.0,0.0,1530.0,2.0,0.0
226,69.0,0.0,1530.0,1.0,0.0
227,51.0,256.0,270.0,5.0,0.0
228,53.0,0.0,270.0,5.0,0.0
229,63.0,256.0,270.0,4.0,0.0
230,54.0,256.0,270.0,5.0,0.0
231,62.0,0.0,270.0,4.0,0.0
232,36.0,512.0,510.0,6.0,0.0
233,63.0,256.0,1020.0,4.0,0.0
234,53.0,256.0,270.0,5.0,0.0
235,51.0,0.0,270.0,5.0,0.0
236,70.0,0.0,1530.0,1.0,0.0
237,70.0,512.0,1530.0,2.0,0.0
238,34.0,0.0,1530.0,6.0,0.0
239,53.0,0.0,510.0,5.0,0.0
240,61.0,256.0,270.0,4.0,0.0
241,46.0,512.0,510.0,5.0,0.0
242,60.0,0.0,270.0,4.0,0.0
243,61.0,256.0,1020.0,4.0,0.0
244,58.0,0.0,510.0,5.0,0.0
245,55.0,0.0,510.0,5.0,0.0
246,63.0,0.0,1530.0,1.0,0.0
247,63.0,0.0,1530.0,2.0,0.0
248,60.0,256.0,270.0,4.0,0.0
249,51.0,0.0,510.0,5.0,0.0
250,58.0,512.0,270.0,4.0,0.0
251,36.0,0.0,510.0,6.0,0.0
252,60.0,256.0,1020.0,4.0,0.0
253,56.0,256.0,510.0,5.0,0.0
254,68.0,0.0,1530.0,2.0,0.0
255,68.0,0.0,1530.0,1.0,0.0
256,44.0,256.0,270.0,5.0,0.0
257,48.0,0.0,270.0,5.0,0.0
258,49.0,256.0,270.0,5.0,0.0
259,56.0,0.0,510.0,4.0,0.0
260,51.0,256.0,270.0,5.0,0.0
261,53.0,256.0,270.0,5.0,0.0
262,41.0,0.0,510.0,6.0,0.0
263,61.0,0.0,1020.0,4.0,0.0
264,54.0,256.0,270.0,5.0,0.0
265,56.0,256.0,270.0,5.0,0.0
266,65.0,0.0,1530.0,1.0,0.0
267,65.0,256.0,1530.0,2.0,0.0
268,58.0,256.0,270.0,5.0,0.0
269,60.0,256.0,270.0,4.0,0.0
270,56.0,0.0,270.0,5.0,0.0
271,54.0,512.0,270.0,5.0,0.0
272,58.0,0.0,270.0,4.0,0.0
273,45.0,0.0,510.0,6.0,0.0
274,60.0,256.0,1020.0,4.0,0.0
275,53.0,256.0,780.0,5.0,0.0
276,61.0,0.0,1530.0,1.0,0.0
277,61.0,0.0,1530.0,2.0,0.0
278,46.0,0.0,270.0,5.0,0.0
279,49.0,0.0,270.0,5.0,0.0
280,58.0,256.0,270.0,4.0,0.0
281,57.0,0.0,270.0,4.0,0.0
282,53.0,256.0,270.0,5.0,0.0
283,58.0,256.0,270.0,4.0,0.0
284,46.0,0.0,510.0,6.0,0.0
285,54.0,256.0,510.0,5.0,0.0
286,60.0,0.0,270.0,4.0,0.0
287,65.0,0.0,1530.0,2.0,0.0
288,61.0,0.0,270.0,4.0,0.0
289,65.0,0.0,1530.0,1.0,0.0
290,53.0,256.0,270.0,5.0,0.0
291,63.0,0.0,270.0,4.0,0.0
292,45.0,256.0,270.0,5.0,0.0
293,46.0,256.0,270.0,5.0,0.0
294,61.0,0.0,270.0,4.0,0.0
295,48.0,256.0,270.0,5.0,0.0
296,60.0,0.0,270.0,4.0,0.0
297,58.0,256.0,270.0,4.0,0.0
298,49.0,256.0,1020.0,5.0,0.0
299,41.0,256.0,510.0,6.0,0.0
300,56.0,0.0,270.0,4.0,0.0
301,55.0,256.0,270.0,4.0,0.0
302,63.0,512.0,3060.0,1.0,0.0
303,58.0,0.0,270.0,4.0,0.0
304,48.0,256.0,270.0,5.0,0.0
305,51.0,256.0,510.0,4.0,0.0
306,46.0,0.0,270.0,5.0,0.0
307,56.0,256.0,270.0,4.0,0.0
308,44.0,0.0,510.0,6.0,0.0
309,48.0,0.0,270.0,5.0,0.0
310,58.0,256.0,270.0,4.0,0.0
311,49.0,0.0,270.0,5.0,0.0
312,51.0,0.0,510.0,5.0,0.0
313,60.0,256.0,270.0,4.0,0.0
314,58.0,512.0,270.0,4.0,0.0
315,44.0,256.0,510.0,5.0,0.0
316,60.0,256.0,780.0,4.0,0.0
317,56.0,256.0,1020.0,5.0,0.0
318,48.0,0.0,510.0,6.0,0.0
319,61.0,0.0,270.0,4.0,0.0
320,58.0,0.0,1020.0,4.0,0.0
321,63.0,0.0,15.0,2.0,0.0
322,63.0,0.0,780.0,1.0,0.0
323,51.0,256.0,16890.0,6.0,0.0
324,55.0,256.0,270.0,5.0,0.0
325,53.0,256.0,270.0,5.0,0.0
326,62.0,0.0,270.0,1.0,0.0
327,55.0,0.0,270.0,5.0,0.0
328,63.0,256.0,270.0,1.0,0.0
329,56.0,256.0,270.0,5.0,0.0
330,65.0,0.0,270.0,1.0,0.0
331,67.0,0.0,270.0,1.0,0.0
332,58.0,256.0,270.0,5.0,0.0
333,63.0,0.0,270.0,1.0,0.0
334,55.0,256.0,270.0,5.0,0.0
335,65.0,256.0,270.0,1.0,0.0
336,56.0,0.0,270.0,5.0,0.0
337,58.0,256.0,270.0,5.0,0.0
338,67.0,0.0,270.0,1.0,0.0
339,68.0,256.0,270.0,1.0,0.0
340,60.0,0.0,270.0,5.0,0.0
341,61.0,0.0,270.0,5.0,0.0
342,70.0,512.0,270.0,1.0,0.0
343,63.0,256.0,2820.0,5.0,0.0
344,72.0,256.0,1290.0,1.0,0.0
345,70.0,256.0,270.0,4.0,0.0
346,68.0,256.0,270.0,4.0,0.0
347,67.0,256.0,270.0,4.0,0.0
348,72.0,256.0,270.0,1.0,0.0
349,70.0,0.0,1800.0,1.0,0.0
350,68.0,256.0,15.0,4.0,0.0
351,67.0,256.0,270.0,4.0,0.0
352,65.0,256.0,270.0,4.0,0.0
353,67.0,256.0,780.0,4.0,0.0
354,61.0,256.0,270.0,5.0,0.0
355,60.0,512.0,1530.0,5.0,0.0
356,75.0,256.0,1290.0,0.0,0.0
357,67.0,256.0,270.0,1.0,0.0
358,63.0,0.0,270.0,4.0,0.0
359,65.0,0.0,270.0,4.0,0.0
360,68.0,256.0,270.0,1.0,0.0
361,70.0,0.0,270.0,1.0,0.0
362,67.0,256.0,270.0,4.0,0.0
363,72.0,0.0,510.0,1.0,0.0
364,68.0,0.0,510.0,4.0,0.0
365,77.0,0.0,270.0,0.0,0.0
366,61.0,512.0,1530.0,4.0,0.0
367,79.0,0.0,1530.0,0.0,0.0
368,58.0,0.0,1530.0,5.0,0.0
369,77.0,256.0,270.0,1.0,0.0
370,75.0,256.0,270.0,1.0,0.0
371,73.0,256.0,270.0,1.0,0.0
372,72.0,256.0,270.0,1.0,0.0
373,70.0,0.0,270.0,1.0,0.0
374,72.0,256.0,780.0,1.0,0.0
375,63.0,0.0,780.0,4.0,0.0
376,56.0,0.0,780.0,5.0,0.0
377,75.0,256.0,270.0,0.0,0.0
378,80.0,0.0,270.0,0.0,0.0
379,79.0,0.0,270.0,0.0,0.0
380,63.0,256.0,270.0,4.0,0.0
381,80.0,256.0,270.0,0.0,0.0
382,68.0,0.0,270.0,4.0,0.0
383,67.0,256.0,270.0,4.0,0.0
384,75.0,0.0,270.0,0.0,0.0
385,72.0,0.0,270.0,1.0,0.0
386,68.0,256.0,270.0,4.0,0.0
387,75.0,0.0,270.0,1.0,0.0
388,63.0,256.0,270.0,4.0,0.0
389,68.0,0.0,270.0,1.0,0.0
390,60.0,256.0,270.0,4.0,0.0
391,72.0,0.0,270.0,1.0,0.0
392,63.0,256.0,270.0,4.0,0.0
393,70.0,256.0,270.0,1.0,0.0
394,61.0,0.0,270.0,4.0,0.0
395,60.0,256.0,270.0,4.0,0.0
396,68.0,0.0,270.0,1.0,0.0
397,70.0,0.0,270.0,1.0,0.0
398,61.0,256.0,270.0,4.0,0.0
399,73.0,0.0,270.0,1.0,0.0
400,65.0,256.0,270.0,4.0,0.0
401,67.0,256.0,270.0,1.0,0.0
402,58.0,0.0,270.0,4.0,0.0
403,61.0,256.0,270.0,4.0,0.0
404,70.0,0.0,270.0,1.0,0.0
405,68.0,0.0,270.0,1.0,0.0
406,60.0,256.0,270.0,4.0,0.0
407,67.0,0.0,270.0,1.0,0.0
408,58.0,256.0,270.0,4.0,0.0
409,68.0,0.0,270.0,1.0,0.0
410,60.0,256.0,270.0,4.0,0.0
411,72.0,0.0,270.0,1.0,0.0
412,63.0,256.0,270.0,4.0,0.0
413,65.0,256.0,270.0,1.0,0.0
414,56.0,0.0,270.0,4.0,0.0
415,68.0,256.0,270.0,1.0,0.0
416,60.0,0.0,270.0,4.0,0.0
417,58.0,0.0,270.0,4.0,0.0
418,67.0,256.0,270.0,1.0,0.0
419,56.0,0.0,270.0,4.0,0.0
420,65.0,512.0,270.0,1.0,0.0
421,67.0,256.0,1800.0,1.0,0.0
422,58.0,256.0,1290.0,4.0,0.0
423,65.0,256.0,270.0,3.0,0.0
424,63.0,256.0,270.0,3.0,0.0
425,61.0,256.0,270.0,3.0,0.0
426,60.0,0.0,2040.0,3.0,0.0
427,58.0,0.0,270.0,4.0,0.0
428,70.0,256.0,270.0,1.0,0.0
429,68.0,256.0,270.0,1.0,0.0
430,67.0,256.0,270.0,1.0,0.0
431,65.0,256.0,270.0,1.0,0.0
432,63.0,512.0,270.0,1.0,0.0
433,62.0,0.0,1530.0,1.0,0.0
434,60.0,256.0,270.0,3.0,0.0
435,58.0,0.0,1020.0,3.0,0.0
436,56.0,256.0,15.0,4.0,0.0
437,55.0,256.0,270.0,4.0,0.0
438,53.0,768.0,270.0,4.0,0.0
439,55.0,256.0,780.0,4.0,0.0
440,58.0,0.0,780.0,3.0,0.0
441,63.0,256.0,780.0,1.0,0.0
442,55.0,256.0,270.0,4.0,0.0
443,56.0,256.0,510.0,3.0,0.0
444,53.0,0.0,510.0,4.0,0.0
445,61.0,256.0,510.0,1.0,0.0
446,51.0,0.0,7950.0,5.0,0.0
447,55.0,256.0,1800.0,4.0,0.0
448,65.0,256.0,270.0,1.0,0.0
449,63.0,256.0,270.0,1.0,0.0
450,61.0,256.0,270.0,1.0,0.0
451,60.0,256.0,270.0,1.0,0.0
452,58.0,256.0,270.0,1.0,0.0
453,60.0,256.0,1290.0,1.0,0.0
454,58.0,256.0,270.0,4.0,0.0
455,56.0,256.0,270.0,4.0,0.0
456,55.0,256.0,270.0,4.0,0.0
457,60.0,256.0,270.0,1.0,0.0
458,58.0,256.0,1290.0,1.0,0.0
459,56.0,256.0,15.0,4.0,0.0
460,55.0,256.0,270.0,4.0,0.0
461,53.0,256.0,270.0,4.0,0.0
462,55.0,0.0,510.0,4.0,0.0
463,60.0,256.0,270.0,1.0,0.0
464,53.0,0.0,270.0,4.0,0.0
465,62.0,256.0,270.0,1.0,0.0
466,63.0,256.0,270.0,1.0,0.0
467,55.0,0.0,270.0,4.0,0.0
468,56.0,256.0,270.0,4.0,0.0
469,65.0,0.0,270.0,1.0,0.0
470,67.0,0.0,270.0,1.0,0.0
471,58.0,256.0,270.0,4.0,0.0
472,68.0,256.0,780.0,1.0,0.0
473,60.0,256.0,270.0,4.0,0.0
474,56.0,0.0,270.0,4.0,0.0
475,62.0,256.0,270.0,3.0,0.0
476,39.0,0.0,3060.0,6.0,0.0
477,58.0,0.0,1530.0,4.0,0.0
478,63.0,256.0,1530.0,3.0,0.0
479,68.0,256.0,270.0,1.0,0.0
480,67.0,256.0,270.0,1.0,0.0
481,65.0,256.0,270.0,1.0,0.0
482,67.0,256.0,270.0,1.0,0.0
483,68.0,0.0,270.0,1.0,0.0
484,67.0,256.0,1530.0,3.0,0.0
485,70.0,256.0,270.0,1.0,0.0
486,53.0,256.0,270.0,5.0,0.0
487,68.0,0.0,270.0,1.0,0.0
488,70.0,256.0,270.0,1.0,0.0
489,55.0,0.0,270.0,5.0,0.0
490,56.0,0.0,270.0,5.0,0.0
491,72.0,256.0,270.0,1.0,0.0
492,74.0,0.0,270.0,1.0,0.0
493,58.0,256.0,270.0,5.0,0.0
494,60.0,0.0,270.0,5.0,0.0
495,75.0,256.0,780.0,1.0,0.0
496,41.0,256.0,1530.0,6.0,0.0
497,56.0,256.0,270.0,5.0,0.0
498,65.0,0.0,1530.0,3.0,0.0
499,60.0,0.0,270.0,5.0,0.0
500,68.0,0.0,510.0,1.0,0.0
501,53.0,256.0,270.0,5.0,0.0
502,56.0,256.0,270.0,5.0,0.0
503,73.0,0.0,1020.0,1.0,0.0
504,55.0,256.0,270.0,5.0,0.0
505,53.0,0.0,270.0,5.0,0.0
506,39.0,0.0,1530.0,6.0,0.0
507,55.0,256.0,270.0,5.0,0.0
508,58.0,256.0,270.0,5.0,0.0
509,51.0,256.0,270.0,5.0,0.0
510,67.0,256.0,510.0,1.0,0.0
511,55.0,0.0,270.0,5.0,0.0
512,53.0,256.0,270.0,5.0,0.0
513,72.0,256.0,780.0,1.0,0.0
514,51.0,256.0,270.0,5.0,0.0
515,37.0,256.0,1530.0,6.0,0.0
516,53.0,0.0,1530.0,5.0,0.0
517,75.0,256.0,270.0,1.0,0.0
518,56.0,0.0,510.0,3.0,0.0
519,73.0,256.0,270.0,1.0,0.0
520,72.0,256.0,270.0,1.0,0.0
521,61.0,0.0,1020.0,3.0,0.0
522,70.0,256.0,270.0,1.0,0.0
523,68.0,0.0,270.0,1.0,0.0
524,67.0,256.0,270.0,1.0,0.0
525,39.0,256.0,1530.0,6.0,0.0
526,51.0,0.0,1800.0,5.0,0.0
527,65.0,256.0,270.0,1.0,0.0
528,55.0,256.0,270.0,3.0,0.0
529,63.0,0.0,270.0,1.0,0.0
530,58.0,256.0,270.0,3.0,0.0
531,61.0,0.0,270.0,1.0,0.0
532,60.0,0.0,270.0,1.0,0.0
533,56.0,256.0,270.0,3.0,0.0
534,55.0,0.0,270.0,3.0,0.0
535,58.0,0.0,270.0,1.0,0.0
536,60.0,256.0,270.0,1.0,0.0
537,44.0,0.0,1530.0,6.0,0.0
538,56.0,256.0,1290.0,3.0,0.0
539,48.0,256.0,270.0,5.0,0.0
540,63.0,0.0,270.0,1.0,0.0
541,65.0,256.0,270.0,1.0,0.0
542,49.0,0.0,270.0,5.0,0.0
543,51.0,256.0,270.0,5.0,0.0
544,67.0,0.0,270.0,1.0,0.0
545,68.0,256.0,780.0,1.0,0.0
546,53.0,0.0,1020.0,5.0,0.0
547,60.0,256.0,270.0,3.0,0.0
548,46.0,256.0,1530.0,6.0,0.0
549,68.0,256.0,270.0,1.0,0.0
550,67.0,256.0,270.0,1.0,0.0
551,51.0,256.0,510.0,5.0,0.0
552,65.0,0.0,270.0,1.0,0.0
553,49.0,0.0,510.0,5.0,0.0
554,67.0,0.0,510.0,1.0,0.0
555,61.0,256.0,15.0,3.0,0.0
556,44.0,0.0,3060.0,6.0,0.0
557,68.0,256.0,7950.0,1.0,0.0
558,51.0,256.0,1290.0,5.0,0.0
559,61.0,256.0,270.0,3.0,0.0
560,60.0,256.0,270.0,3.0,0.0
561,58.0,256.0,270.0,3.0,0.0
562,60.0,256.0,780.0,3.0,0.0
563,53.0,256.0,270.0,5.0,0.0
564,54.0,256.0,1800.0,5.0,0.0
565,63.0,256.0,270.0,3.0,0.0
566,61.0,256.0,270.0,3.0,0.0
567,60.0,256.0,270.0,3.0,0.0
568,58.0,256.0,270.0,3.0,0.0
569,56.0,256.0,270.0,3.0,0.0
570,61.0,256.0,1800.0,3.0,0.0
571,54.0,256.0,270.0,5.0,0.0
572,53.0,256.0,270.0,5.0,0.0
573,51.0,256.0,270.0,5.0,0.0
574,53.0,256.0,270.0,5.0,0.0
575,55.0,256.0,270.0,5.0,0.0
576,56.0,256.0,1800.0,5.0,0.0
577,65.0,256.0,270.0,3.0,0.0
578,63.0,256.0,270.0,3.0,0.0
579,61.0,256.0,270.0,3.0,0.0
580,60.0,256.0,270.0,3.0,0.0
581,58.0,256.0,270.0,3.0,0.0
582,60.0,0.0,510.0,3.0,0.0
583,58.0,256.0,270.0,5.0,0.0
584,61.0,0.0,510.0,3.0,0.0
585,56.0,256.0,270.0,5.0,0.0
586,54.0,256.0,270.0,5.0,0.0
587,53.0,256.0,270.0,5.0,0.0
588,63.0,256.0,510.0,3.0,0.0
589,51.0,0.0,270.0,5.0,0.0
590,65.0,256.0,1290.0,3.0,0.0
591,49.0,0.0,270.0,5.0,0.0
592,51.0,256.0,270.0,5.0,0.0
593,68.0,0.0,270.0,1.0,0.0
594,70.0,256.0,270.0,1.0,0.0
595,49.0,0.0,270.0,5.0,0.0
596,72.0,0.0,270.0,1.0,0.0
597,48.0,256.0,270.0,5.0,0.0
598,46.0,0.0,270.0,5.0,0.0
599,73.0,256.0,780.0,1.0,0.0
600,51.0,256.0,270.0,5.0,0.0
601,67.0,0.0,270.0,3.0,0.0
602,44.0,256.0,3060.0,6.0,0.0
603,44.0,256.0,510.0,5.0,0.0
604,68.0,256.0,1530.0,3.0,0.0
605,77.0,0.0,270.0,1.0,0.0
606,48.0,256.0,510.0,5.0,0.0
607,75.0,256.0,270.0,1.0,0.0
608,73.0,0.0,270.0,1.0,0.0
609,72.0,256.0,270.0,1.0,0.0
610,51.0,0.0,510.0,5.0,0.0
611,70.0,0.0,270.0,1.0,0.0
612,72.0,256.0,270.0,1.0,0.0
613,75.0,256.0,270.0,1.0,0.0
614,73.0,256.0,270.0,1.0,0.0
615,72.0,256.0,270.0,1.0,0.0
616,70.0,256.0,270.0,1.0,0.0
617,68.0,0.0,270.0,1.0,0.0
618,70.0,256.0,1290.0,1.0,0.0
619,39.0,0.0,1530.0,6.0,0.0
620,56.0,256.0,15.0,5.0,0.0
621,55.0,256.0,270.0,5.0,0.0
622,58.0,0.0,510.0,3.0,0.0
623,53.0,256.0,270.0,5.0,0.0
624,55.0,256.0,510.0,5.0,0.0
625,70.0,0.0,270.0,1.0,0.0
626,68.0,0.0,1530.0,1.0,0.0
627,41.0,256.0,1290.0,6.0,0.0
628,56.0,512.0,3060.0,5.0,0.0
629,63.0,256.0,15.0,3.0,0.0
630,61.0,256.0,270.0,3.0,0.0
631,60.0,256.0,270.0,3.0,0.0
632,43.0,256.0,270.0,6.0,0.0
633,44.0,0.0,1530.0,6.0,0.0
634,63.0,256.0,1290.0,1.0,0.0
635,61.0,256.0,15.0,3.0,0.0
636,60.0,256.0,270.0,3.0,0.0
637,58.0,256.0,270.0,3.0,0.0
638,60.0,0.0,510.0,3.0,0.0
639,65.0,0.0,270.0,1.0,0.0
640,61.0,256.0,1530.0,3.0,0.0
641,46.0,0.0,1530.0,6.0,0.0
642,67.0,256.0,1800.0,1.0,0.0
643,60.0,256.0,270.0,5.0,0.0
644,58.0,256.0,270.0,5.0,0.0
645,56.0,256.0,270.0,5.0,0.0
646,55.0,256.0,270.0,5.0,0.0
647,53.0,0.0,270.0,5.0,0.0
648,63.0,256.0,1800.0,3.0,0.0
649,51.0,0.0,510.0,5.0,0.0
650,67.0,256.0,270.0,1.0,0.0
651,53.0,0.0,510.0,5.0,0.0
652,69.0,256.0,270.0,1.0,0.0
653,70.0,256.0,270.0,1.0,0.0
654,54.0,0.0,510.0,5.0,0.0
655,72.0,256.0,270.0,1.0,0.0
656,73.0,256.0,270.0,1.0,0.0
657,48.0,0.0,15.0,6.0,0.0
658,69.0,0.0,1530.0,1.0,0.0
659,53.0,256.0,510.0,5.0,0.0
660,66.0,0.0,270.0,3.0,0.0
661,65.0,256.0,270.0,3.0,0.0
662,54.0,0.0,510.0,5.0,0.0
663,63.0,256.0,270.0,3.0,0.0
664,51.0,0.0,510.0,5.0,0.0
665,62.0,256.0,270.0,3.0,0.0
666,63.0,256.0,510.0,3.0,0.0
667,53.0,256.0,1800.0,5.0,0.0
668,70.0,256.0,1290.0,1.0,0.0
669,46.0,256.0,3060.0,6.0,0.0
670,63.0,256.0,270.0,3.0,0.0
671,62.0,256.0,270.0,3.0,0.0
672,60.0,256.0,270.0,3.0,0.0
673,62.0,0.0,780.0,3.0,0.0
674,68.0,256.0,270.0,1.0,0.0
675,66.0,0.0,1530.0,1.0,0.0
676,58.0,0.0,270.0,3.0,0.0
677,50.0,256.0,270.0,5.0,0.0
678,60.0,256.0,270.0,3.0,0.0
679,51.0,0.0,270.0,5.0,0.0
680,62.0,256.0,270.0,3.0,0.0
681,53.0,0.0,270.0,5.0,0.0
682,54.0,256.0,270.0,5.0,0.0
683,63.0,256.0,780.0,3.0,0.0
684,56.0,0.0,270.0,5.0,0.0
685,58.0,256.0,1800.0,5.0,0.0
686,65.0,256.0,1290.0,1.0,0.0
687,63.0,256.0,270.0,3.0,0.0
688,62.0,256.0,270.0,3.0,0.0
689,60.0,256.0,270.0,3.0,0.0
690,61.0,256.0,2550.0,3.0,0.0
691,66.0,256.0,270.0,1.0,0.0
692,68.0,256.0,510.0,1.0,0.0
693,59.0,0.0,270.0,5.0,0.0
694,58.0,256.0,270.0,5.0,0.0
695,65.0,256.0,510.0,1.0,0.0
696,56.0,0.0,270.0,5.0,0.0
697,70.0,256.0,510.0,1.0,0.0
698,54.0,256.0,270.0,5.0,0.0
699,53.0,0.0,270.0,5.0,0.0
700,51.0,256.0,270.0,5.0,0.0
701,53.0,0.0,270.0,5.0,0.0
702,58.0,0.0,510.0,3.0,0.0
703,51.0,256.0,270.0,5.0,0.0
704,49.0,256.0,270.0,5.0,0.0
705,63.0,256.0,510.0,3.0,0.0
706,48.0,256.0,270.0,5.0,0.0
707,46.0,0.0,270.0,5.0,0.0
708,45.0,0.0,1530.0,5.0,0.0
709,60.0,256.0,1800.0,3.0,0.0
710,67.0,256.0,15.0,1.0,0.0
711,65.0,256.0,270.0,1.0,0.0
712,63.0,256.0,270.0,1.0,0.0
713,62.0,256.0,270.0,1.0,0.0
714,63.0,256.0,270.0,1.0,0.0
715,46.0,512.0,3060.0,6.0,0.0
716,46.0,0.0,1530.0,5.0,0.0
717,62.0,256.0,1530.0,1.0,0.0
718,60.0,256.0,270.0,3.0,0.0
719,58.0,256.0,270.0,3.0,0.0
720,56.0,256.0,270.0,3.0,0.0
721,55.0,256.0,270.0,3.0,0.0
722,53.0,0.0,270.0,3.0,0.0
723,63.0,256.0,270.0,1.0,0.0
724,58.0,256.0,270.0,1.0,0.0
725,63.0,256.0,780.0,1.0,0.0
726,55.0,256.0,15.0,3.0,0.0
727,53.0,0.0,510.0,3.0,0.0
728,62.0,0.0,270.0,1.0,0.0
729,51.0,0.0,1530.0,3.0,0.0
730,63.0,512.0,1530.0,1.0,0.0
731,48.0,0.0,1530.0,6.0,0.0
732,39.0,256.0,270.0,5.0,0.0
733,41.0,256.0,270.0,5.0,0.0
734,43.0,256.0,270.0,5.0,0.0
735,44.0,256.0,270.0,5.0,0.0
736,46.0,0.0,270.0,5.0,0.0
737,44.0,0.0,1530.0,6.0,0.0
738,48.0,256.0,2040.0,5.0,0.0
739,65.0,256.0,270.0,3.0,0.0
740,63.0,256.0,270.0,3.0,0.0
741,61.0,256.0,270.0,3.0,0.0
742,60.0,256.0,270.0,3.0,0.0
743,58.0,512.0,270.0,3.0,0.0
744,41.0,0.0,1530.0,6.0,0.0
745,67.0,0.0,270.0,1.0,0.0
746,46.0,0.0,510.0,5.0,0.0
747,68.0,256.0,270.0,1.0,0.0
748,70.0,256.0,270.0,1.0,0.0
749,44.0,256.0,510.0,5.0,0.0
750,72.0,256.0,270.0,1.0,0.0
751,74.0,0.0,270.0,1.0,0.0
752,75.0,256.0,510.0,1.0,0.0
753,39.0,256.0,1290.0,6.0,0.0
754,46.0,256.0,1530.0,5.0,0.0
755,56.0,256.0,15.0,3.0,0.0
756,70.0,256.0,510.0,1.0,0.0
757,55.0,256.0,270.0,3.0,0.0
758,53.0,0.0,270.0,3.0,0.0
759,55.0,0.0,270.0,3.0,0.0
760,75.0,256.0,780.0,1.0,0.0
761,56.0,0.0,270.0,3.0,0.0
762,41.0,0.0,270.0,6.0,0.0
763,58.0,256.0,1530.0,3.0,0.0
764,43.0,0.0,1530.0,6.0,0.0
765,51.0,0.0,1800.0,5.0,0.0
766,73.0,256.0,270.0,1.0,0.0
767,72.0,256.0,270.0,1.0,0.0
768,70.0,256.0,270.0,1.0,0.0
769,69.0,256.0,270.0,1.0,0.0
770,70.0,0.0,270.0,1.0,0.0
771,45.0,512.0,1530.0,6.0,0.0
772,72.0,256.0,270.0,1.0,0.0
773,54.0,256.0,270.0,5.0,0.0
774,73.0,0.0,270.0,1.0,0.0
775,75.0,0.0,270.0,1.0,0.0
776,53.0,256.0,270.0,5.0,0.0
777,78.0,256.0,270.0,1.0,0.0
778,51.0,0.0,270.0,5.0,0.0
779,77.0,0.0,270.0,1.0,0.0
780,49.0,256.0,270.0,5.0,0.0
781,75.0,0.0,270.0,1.0,0.0
782,48.0,0.0,270.0,5.0,0.0
783,46.0,0.0,510.0,5.0,0.0
784,46.0,0.0,3060.0,6.0,0.0
785,73.0,256.0,1800.0,1.0,0.0
786,72.0,256.0,270.0,3.0,0.0
787,53.0,0.0,510.0,5.0,0.0
788,70.0,256.0,270.0,3.0,0.0
789,68.0,256.0,270.0,3.0,0.0
790,58.0,0.0,510.0,5.0,0.0
791,66.0,256.0,270.0,3.0,0.0
792,65.0,256.0,270.0,3.0,0.0
793,51.0,256.0,780.0,5.0,0.0
794,66.0,0.0,1530.0,3.0,0.0
795,73.0,256.0,270.0,1.0,0.0
796,72.0,0.0,270.0,1.0,0.0
797,70.0,256.0,270.0,1.0,0.0
798,63.0,0.0,270.0,5.0,0.0
799,61.0,256.0,270.0,5.0,0.0
800,72.0,0.0,780.0,1.0,0.0
801,60.0,256.0,270.0,5.0,0.0
802,65.0,256.0,1530.0,3.0,0.0
803,61.0,256.0,270.0,5.0,0.0
804,75.0,0.0,270.0,1.0,0.0
805,60.0,256.0,270.0,5.0,0.0
806,58.0,0.0,270.0,5.0,0.0
807,73.0,256.0,270.0,1.0,0.0
808,60.0,0.0,270.0,5.0,0.0
809,72.0,256.0,270.0,1.0,0.0
810,61.0,256.0,1020.0,5.0,0.0
811,70.0,256.0,270.0,1.0,0.0
812,68.0,0.0,270.0,1.0,0.0
813,67.0,256.0,270.0,1.0,0.0
814,63.0,256.0,780.0,3.0,0.0
815,70.0,0.0,270.0,1.0,0.0
816,60.0,0.0,1020.0,5.0,0.0
817,72.0,0.0,270.0,1.0,0.0
818,65.0,256.0,270.0,3.0,0.0
819,73.0,0.0,270.0,1.0,0.0
820,67.0,256.0,270.0,3.0,0.0
821,75.0,0.0,780.0,1.0,0.0
822,69.0,256.0,270.0,3.0,0.0
823,58.0,256.0,270.0,5.0,0.0
824,70.0,0.0,1800.0,3.0,0.0
825,57.0,0.0,270.0,5.0,0.0
826,78.0,256.0,270.0,1.0,0.0
827,58.0,0.0,270.0,5.0,0.0
828,77.0,256.0,270.0,1.0,0.0
829,60.0,256.0,270.0,5.0,0.0
830,75.0,0.0,270.0,1.0,0.0
831,61.0,0.0,270.0,5.0,0.0
832,73.0,256.0,270.0,1.0,0.0
833,72.0,256.0,270.0,1.0,0.0
834,63.0,0.0,270.0,5.0,0.0
835,65.0,256.0,270.0,5.0,0.0
836,73.0,256.0,1800.0,1.0,0.0
837,72.0,0.0,270.0,3.0,0.0
838,63.0,256.0,270.0,5.0,0.0
839,61.0,0.0,270.0,5.0,0.0
840,70.0,256.0,270.0,3.0,0.0
841,60.0,0.0,270.0,5.0,0.0
842,68.0,256.0,270.0,3.0,0.0
843,58.0,0.0,270.0,5.0,0.0
844,67.0,256.0,270.0,3.0,0.0
845,56.0,256.0,270.0,5.0,0.0
846,65.0,0.0,270.0,3.0,0.0
847,55.0,0.0,270.0,5.0,0.0
848,63.0,0.0,1530.0,3.0,0.0
849,39.0,0.0,3060.0,6.0,0.0
850,53.0,0.0,270.0,5.0,0.0
851,75.0,256.0,270.0,1.0,0.0
852,55.0,256.0,270.0,5.0,0.0
853,73.0,0.0,270.0,1.0,0.0
854,72.0,0.0,270.0,1.0,0.0
855,56.0,256.0,270.0,5.0,0.0
856,70.0,0.0,270.0,1.0,0.0
857,58.0,256.0,270.0,5.0,0.0
858,68.0,256.0,270.0,1.0,0.0
859,60.0,0.0,270.0,5.0,0.0
860,61.0,0.0,270.0,5.0,0.0
861,67.0,256.0,270.0,1.0,0.0
862,60.0,0.0,270.0,5.0,0.0
863,68.0,256.0,270.0,1.0,0.0
864,58.0,0.0,270.0,5.0,0.0
865,67.0,256.0,270.0,1.0,0.0
866,65.0,256.0,270.0,1.0,0.0
867,56.0,0.0,270.0,5.0,0.0
868,63.0,256.0,270.0,1.0,0.0
869,55.0,0.0,270.0,5.0,0.0
870,53.0,0.0,270.0,5.0,0.0
871,61.0,256.0,270.0,1.0,0.0
872,44.0,256.0,1530.0,6.0,0.0
873,51.0,256.0,270.0,5.0,0.0
874,60.0,256.0,1800.0,1.0,0.0
875,53.0,256.0,270.0,5.0,0.0
876,51.0,256.0,270.0,5.0,0.0
877,49.0,256.0,270.0,5.0,0.0
878,48.0,256.0,270.0,5.0,0.0
879,46.0,0.0,270.0,5.0,0.0
880,44.0,0.0,4860.0,5.0,0.0
881,41.0,0.0,1530.0,6.0,0.0
882,56.0,0.0,270.0,1.0,0.0
883,48.0,256.0,270.0,4.0,0.0
884,49.0,256.0,270.0,4.0,0.0
885,58.0,0.0,270.0,1.0,0.0
886,60.0,0.0,270.0,1.0,0.0
887,51.0,256.0,270.0,4.0,0.0
888,61.0,256.0,270.0,1.0,0.0
889,53.0,0.0,270.0,4.0,0.0
890,54.0,256.0,270.0,4.0,0.0
891,63.0,0.0,270.0,1.0,0.0
892,37.0,0.0,1290.0,6.0,0.0
893,65.0,256.0,270.0,1.0,0.0
894,56.0,0.0,510.0,4.0,0.0
895,63.0,256.0,270.0,1.0,0.0
896,53.0,0.0,510.0,4.0,0.0
897,61.0,256.0,270.0,1.0,0.0
898,63.0,256.0,270.0,1.0,0.0
899,49.0,256.0,510.0,4.0,0.0
900,65.0,256.0,270.0,1.0,0.0
901,39.0,0.0,270.0,6.0,0.0
902,67.0,0.0,270.0,1.0,0.0
903,48.0,256.0,510.0,4.0,0.0
904,41.0,256.0,1530.0,6.0,0.0
905,68.0,256.0,270.0,1.0,0.0
906,67.0,0.0,270.0,1.0,0.0
907,65.0,256.0,270.0,1.0,0.0
908,51.0,256.0,510.0,4.0,0.0
909,67.0,0.0,270.0,1.0,0.0
910,68.0,256.0,270.0,1.0,0.0
911,50.0,0.0,510.0,4.0,0.0
912,70.0,0.0,270.0,1.0,0.0
913,51.0,256.0,270.0,4.0,0.0
914,71.0,0.0,1290.0,1.0,0.0
915,39.0,256.0,6150.0,6.0,0.0
916,43.0,256.0,270.0,5.0,0.0
917,70.0,0.0,270.0,4.0,0.0
918,44.0,256.0,270.0,5.0,0.0
919,68.0,0.0,270.0,4.0,0.0
920,46.0,256.0,270.0,5.0,0.0
921,67.0,0.0,270.0,4.0,0.0
922,68.0,256.0,780.0,4.0,0.0
923,47.0,256.0,270.0,5.0,0.0
924,49.0,256.0,270.0,5.0,0.0
925,71.0,0.0,270.0,1.0,0.0
926,51.0,0.0,270.0,5.0,0.0
927,53.0,0.0,270.0,5.0,0.0
928,68.0,256.0,270.0,4.0,0.0
929,55.0,0.0,270.0,5.0,0.0
930,67.0,256.0,270.0,4.0,0.0
931,65.0,0.0,270.0,4.0,0.0
932,56.0,256.0,270.0,5.0,0.0
933,67.0,0.0,510.0,4.0,0.0
934,58.0,256.0,270.0,5.0,0.0
935,70.0,0.0,15.0,1.0,0.0
936,51.0,256.0,270.0,5.0,0.0
937,63.0,256.0,4110.0,4.0,0.0
938,59.0,256.0,1290.0,5.0,0.0
939,70.0,256.0,270.0,1.0,0.0
940,68.0,256.0,270.0,1.0,0.0
941,67.0,256.0,270.0,1.0,0.0
942,59.0,256.0,270.0,5.0,0.0
943,58.0,256.0,1800.0,5.0,0.0
944,68.0,256.0,15.0,1.0,0.0
945,67.0,256.0,270.0,1.0,0.0
946,65.0,256.0,270.0,1.0,0.0
947,67.0,256.0,270.0,1.0,0.0
948,67.0,0.0,1530.0,3.0,0.0
949,70.0,256.0,780.0,1.0,0.0
950,39.0,0.0,9210.0,6.0,0.0
951,75.0,0.0,9210.0,0.0,0.0
952,61.0,0.0,270.0,5.0,0.0
953,60.0,256.0,270.0,5.0,0.0
954,73.0,0.0,510.0,1.0,0.0
955,58.0,0.0,270.0,5.0,0.0
956,60.0,256.0,270.0,5.0,0.0
957,66.0,0.0,1020.0,4.0,0.0
958,72.0,0.0,1020.0,1.0,0.0
959,63.0,256.0,270.0,5.0,0.0
960,62.0,256.0,270.0,5.0,0.0
961,60.0,256.0,270.0,5.0,0.0
962,68.0,0.0,15.0,3.0,0.0
963,71.0,256.0,1020.0,1.0,0.0
964,65.0,0.0,1020.0,4.0,0.0
965,62.0,256.0,270.0,5.0,0.0
966,65.0,256.0,270.0,5.0,0.0
967,63.0,256.0,270.0,5.0,0.0
968,62.0,0.0,270.0,5.0,0.0
969,63.0,0.0,6150.0,4.0,0.0
970,70.0,0.0,6150.0,1.0,0.0
971,63.0,0.0,510.0,5.0,0.0
972,68.0,256.0,270.0,3.0,0.0
973,58.0,5120.0,510.0,5.0,0.0
974,67.0,256.0,270.0,3.0,0.0
975,65.0,0.0,270.0,3.0,0.0
976,67.0,0.0,5130.0,3.0,0.0
977,51.0,0.0,5130.0,5.0,0.0
