,note,step,duration,channel,velocity
0,78.0,2.0,60.0,5.0,64.0
1,78.0,7.0,60.0,10.0,64.0
2,66.0,4.0,40.0,12.0,64.0
3,78.0,2.0,60.0,1.0,64.0
4,73.0,3.0,60.0,11.0,64.0
5,82.0,3.0,40.0,0.0,64.0
6,66.0,3.0,40.0,7.0,64.0
7,73.0,15.0,60.0,6.0,64.0
8,73.0,8.0,30.0,2.0,64.0
9,82.0,1.0,40.0,8.0,64.0
10,82.0,3.0,40.0,4.0,64.0
11,54.0,1.0,30.0,3.0,64.0
12,65.0,5.0,40.0,12.0,64.0
13,65.0,3.0,40.0,7.0,64.0
14,80.0,31.0,60.0,8.0,64.0
15,80.0,6.0,40.0,0.0,64.0
16,73.0,7.0,30.0,2.0,64.0
17,80.0,24.0,40.0,4.0,64.0
18,54.0,0.0,30.0,3.0,64.0
19,66.0,5.0,40.0,12.0,64.0
20,66.0,2.0,60.0,7.0,64.0
21,78.0,1.0,60.0,5.0,64.0
22,78.0,0.0,60.0,1.0,64.0
23,73.0,1.0,60.0,11.0,64.0
24,82.0,3.0,60.0,8.0,64.0
25,78.0,1.0,60.0,10.0,64.0
26,82.0,10.0,40.0,0.0,64.0
27,82.0,3.0,60.0,4.0,64.0
28,73.0,34.0,60.0,6.0,64.0
29,73.0,60.0,90.0,2.0,64.0
30,54.0,0.0,40.0,3.0,64.0
31,80.0,0.0,60.0,5.0,64.0
32,80.0,5.0,40.0,1.0,64.0
33,75.0,0.0,60.0,11.0,64.0
34,80.0,4.0,60.0,10.0,64.0
35,83.0,8.0,40.0,8.0,64.0
36,59.0,5.0,60.0,12.0,64.0
37,59.0,4.0,60.0,7.0,64.0
38,83.0,0.0,40.0,0.0,64.0
39,75.0,0.0,60.0,6.0,64.0
40,83.0,79.0,60.0,4.0,64.0
41,73.0,22.0,90.0,11.0,64.0
42,77.0,8.0,60.0,5.0,64.0
43,82.0,7.0,30.0,4.0,64.0
44,61.0,4.0,40.0,12.0,64.0
45,77.0,0.0,60.0,10.0,64.0
46,61.0,3.0,60.0,7.0,64.0
47,73.0,6.0,40.0,1.0,64.0
48,82.0,8.0,30.0,8.0,64.0
49,73.0,9.0,60.0,6.0,64.0
50,80.0,25.0,90.0,0.0,64.0
51,80.0,0.0,30.0,4.0,64.0
52,80.0,8.0,30.0,8.0,64.0
53,82.0,0.0,40.0,4.0,64.0
54,82.0,3.0,40.0,8.0,64.0
55,80.0,31.0,40.0,4.0,64.0
56,80.0,0.0,40.0,8.0,64.0
57,73.0,2.0,60.0,5.0,64.0
58,73.0,4.0,60.0,10.0,64.0
59,71.0,2.0,60.0,11.0,64.0
60,56.0,6.0,60.0,7.0,64.0
61,56.0,3.0,40.0,12.0,64.0
62,78.0,4.0,60.0,8.0,64.0
63,78.0,5.0,40.0,0.0,64.0
64,71.0,28.0,60.0,6.0,64.0
65,78.0,3.0,60.0,4.0,64.0
66,73.0,10.0,150.0,1.0,64.0
67,77.0,4.0,60.0,8.0,64.0
68,77.0,9.0,40.0,0.0,64.0
69,77.0,41.0,60.0,4.0,64.0
70,58.0,11.0,90.0,7.0,64.0
71,78.0,9.0,40.0,0.0,64.0
72,73.0,2.0,90.0,10.0,64.0
73,70.0,1.0,60.0,11.0,64.0
74,78.0,13.0,60.0,8.0,64.0
75,58.0,0.0,90.0,12.0,64.0
76,70.0,1.0,60.0,6.0,64.0
77,73.0,2.0,60.0,5.0,64.0
78,78.0,3.0,40.0,4.0,64.0
79,80.0,8.0,40.0,8.0,64.0
80,80.0,8.0,30.0,0.0,64.0
81,80.0,40.0,40.0,4.0,64.0
82,82.0,2.0,40.0,8.0,64.0
83,54.0,5.0,40.0,12.0,64.0
84,73.0,2.0,40.0,1.0,64.0
85,73.0,1.0,60.0,11.0,64.0
86,54.0,6.0,60.0,7.0,64.0
87,82.0,6.0,40.0,0.0,64.0
88,54.0,5.0,20.0,3.0,64.0
89,78.0,2.0,40.0,10.0,64.0
90,73.0,16.0,60.0,6.0,64.0
91,78.0,1.0,40.0,5.0,64.0
92,82.0,9.0,40.0,4.0,64.0
93,66.0,1.0,60.0,2.0,64.0
94,56.0,4.0,40.0,12.0,64.0
95,83.0,1.0,40.0,8.0,64.0
96,56.0,13.0,40.0,7.0,64.0
97,77.0,5.0,40.0,10.0,64.0
98,54.0,5.0,30.0,3.0,64.0
99,83.0,1.0,40.0,0.0,64.0
100,77.0,2.0,40.0,5.0,64.0
101,83.0,31.0,40.0,4.0,64.0
102,58.0,4.0,40.0,12.0,64.0
103,54.0,8.0,30.0,3.0,64.0
104,78.0,5.0,40.0,1.0,64.0
105,78.0,3.0,60.0,10.0,64.0
106,58.0,3.0,60.0,7.0,64.0
107,73.0,12.0,60.0,11.0,64.0
108,85.0,0.0,60.0,8.0,64.0
109,78.0,4.0,60.0,5.0,64.0
110,85.0,7.0,40.0,0.0,64.0
111,73.0,5.0,40.0,2.0,64.0
112,73.0,0.0,60.0,6.0,64.0
113,85.0,74.0,60.0,4.0,64.0
114,59.0,10.0,40.0,12.0,64.0
115,54.0,3.0,30.0,3.0,64.0
116,75.0,1.0,60.0,10.0,64.0
117,83.0,6.0,40.0,1.0,64.0
118,71.0,0.0,60.0,11.0,64.0
119,75.0,2.0,60.0,5.0,64.0
120,87.0,4.0,60.0,0.0,64.0
121,59.0,3.0,60.0,7.0,64.0
122,66.0,1.0,40.0,2.0,64.0
123,87.0,12.0,60.0,8.0,64.0
124,66.0,5.0,40.0,6.0,64.0
125,87.0,69.0,60.0,4.0,64.0
126,82.0,5.0,30.0,1.0,64.0
127,61.0,0.0,60.0,12.0,64.0
128,85.0,5.0,30.0,0.0,64.0
129,49.0,1.0,40.0,3.0,64.0
130,73.0,3.0,30.0,2.0,64.0
131,68.0,11.0,60.0,11.0,64.0
132,77.0,6.0,40.0,10.0,64.0
133,85.0,8.0,30.0,8.0,64.0
134,61.0,2.0,90.0,7.0,64.0
135,77.0,4.0,60.0,5.0,64.0
136,73.0,0.0,40.0,6.0,64.0
137,85.0,0.0,30.0,4.0,64.0
138,80.0,3.0,30.0,1.0,64.0
139,83.0,0.0,30.0,0.0,64.0
140,83.0,6.0,40.0,8.0,64.0
141,83.0,5.0,30.0,4.0,64.0
142,82.0,4.0,30.0,1.0,64.0
143,85.0,6.0,30.0,0.0,64.0
144,85.0,11.0,30.0,8.0,64.0
145,85.0,7.0,30.0,4.0,64.0
146,80.0,6.0,40.0,1.0,64.0
147,83.0,10.0,40.0,0.0,64.0
148,83.0,8.0,40.0,8.0,64.0
149,83.0,16.0,40.0,4.0,64.0
150,54.0,30.0,40.0,3.0,64.0
151,66.0,14.0,60.0,12.0,64.0
152,82.0,5.0,150.0,0.0,64.0
153,78.0,11.0,180.0,1.0,64.0
154,73.0,1.0,150.0,2.0,64.0
155,78.0,11.0,180.0,10.0,64.0
156,82.0,10.0,150.0,8.0,64.0
157,66.0,22.0,60.0,7.0,64.0
158,66.0,12.0,150.0,11.0,64.0
159,73.0,0.0,150.0,6.0,64.0
160,82.0,4.0,120.0,4.0,64.0
161,78.0,3.0,120.0,5.0,64.0
162,65.0,10.0,40.0,12.0,64.0
163,65.0,32.0,40.0,7.0,64.0
164,66.0,4.0,60.0,12.0,64.0
165,66.0,93.0,90.0,7.0,64.0
166,63.0,3.0,60.0,12.0,64.0
167,72.0,5.0,60.0,10.0,64.0
168,63.0,2.0,60.0,7.0,64.0
169,66.0,1.0,40.0,11.0,64.0
170,72.0,5.0,60.0,5.0,64.0
171,80.0,2.0,60.0,8.0,64.0
172,75.0,4.0,40.0,6.0,64.0
173,80.0,45.0,60.0,4.0,64.0
174,78.0,8.0,60.0,8.0,64.0
175,78.0,47.0,40.0,4.0,64.0
176,73.0,2.0,60.0,10.0,64.0
177,65.0,4.0,60.0,12.0,64.0
178,65.0,0.0,60.0,11.0,64.0
179,65.0,3.0,60.0,7.0,64.0
180,73.0,41.0,60.0,5.0,64.0
181,80.0,0.0,60.0,8.0,64.0
182,80.0,8.0,40.0,4.0,64.0
183,68.0,0.0,60.0,6.0,64.0
184,82.0,50.0,40.0,4.0,64.0
185,61.0,15.0,40.0,12.0,64.0
186,77.0,2.0,60.0,10.0,64.0
187,73.0,0.0,60.0,11.0,64.0
188,77.0,2.0,60.0,5.0,64.0
189,61.0,80.0,60.0,7.0,64.0
190,82.0,9.0,40.0,8.0,64.0
191,73.0,1.0,60.0,6.0,64.0
192,82.0,3.0,60.0,4.0,64.0
193,75.0,4.0,60.0,5.0,64.0
194,75.0,8.0,60.0,10.0,64.0
195,80.0,12.0,40.0,4.0,64.0
196,80.0,13.0,30.0,8.0,64.0
197,70.0,9.0,60.0,11.0,64.0
198,63.0,2.0,60.0,12.0,64.0
199,63.0,2.0,60.0,7.0,64.0
200,70.0,4.0,60.0,6.0,64.0
201,78.0,3.0,30.0,8.0,64.0
202,78.0,0.0,30.0,4.0,64.0
203,80.0,28.0,40.0,8.0,64.0
204,80.0,11.0,40.0,4.0,64.0
205,78.0,7.0,40.0,8.0,64.0
206,78.0,25.0,40.0,4.0,64.0
207,68.0,0.0,90.0,10.0,64.0
208,68.0,14.0,60.0,5.0,64.0
209,77.0,6.0,60.0,4.0,64.0
210,77.0,14.0,40.0,8.0,64.0
211,68.0,1.0,60.0,6.0,64.0
212,60.0,2.0,40.0,12.0,64.0
213,68.0,26.0,60.0,11.0,64.0
214,60.0,1.0,40.0,7.0,64.0
215,75.0,61.0,60.0,4.0,64.0
216,75.0,6.0,40.0,8.0,64.0
217,73.0,2.0,60.0,10.0,64.0
218,77.0,12.0,60.0,8.0,64.0
219,68.0,2.0,60.0,11.0,64.0
220,77.0,4.0,40.0,4.0,64.0
221,68.0,1.0,60.0,6.0,64.0
222,73.0,22.0,60.0,5.0,64.0
223,61.0,6.0,60.0,12.0,64.0
224,61.0,0.0,60.0,7.0,64.0
225,78.0,52.0,40.0,8.0,64.0
226,78.0,6.0,40.0,4.0,64.0
227,80.0,10.0,40.0,4.0,64.0
228,80.0,10.0,40.0,8.0,64.0
229,68.0,21.0,60.0,6.0,64.0
230,73.0,1.0,60.0,5.0,64.0
231,53.0,4.0,60.0,7.0,64.0
232,53.0,1.0,60.0,12.0,64.0
233,68.0,5.0,60.0,11.0,64.0
234,73.0,6.0,60.0,10.0,64.0
235,82.0,70.0,40.0,8.0,64.0
236,82.0,3.0,40.0,4.0,64.0
237,68.0,101.0,60.0,6.0,64.0
238,84.0,3.0,60.0,8.0,64.0
239,51.0,2.0,60.0,7.0,64.0
240,51.0,7.0,60.0,12.0,64.0
241,78.0,4.0,60.0,10.0,64.0
242,84.0,2.0,40.0,4.0,64.0
243,68.0,2.0,60.0,11.0,64.0
244,78.0,0.0,60.0,5.0,64.0
245,49.0,6.0,60.0,7.0,64.0
246,85.0,0.0,60.0,8.0,64.0
247,68.0,7.0,60.0,6.0,64.0
248,85.0,3.0,60.0,4.0,64.0
249,49.0,3.0,60.0,12.0,64.0
250,77.0,74.0,60.0,10.0,64.0
251,68.0,4.0,60.0,11.0,64.0
252,77.0,1.0,60.0,5.0,64.0
253,77.0,3.0,30.0,8.0,64.0
254,75.0,6.0,90.0,10.0,64.0
255,70.0,1.0,60.0,6.0,64.0
256,75.0,2.0,90.0,5.0,64.0
257,70.0,20.0,60.0,11.0,64.0
258,54.0,5.0,60.0,7.0,64.0
259,77.0,26.0,30.0,4.0,64.0
260,54.0,4.0,40.0,12.0,64.0
261,75.0,1.0,40.0,8.0,64.0
262,75.0,4.0,30.0,4.0,64.0
263,77.0,2.0,40.0,8.0,64.0
264,77.0,21.0,40.0,4.0,64.0
265,75.0,3.0,40.0,8.0,64.0
266,75.0,36.0,40.0,4.0,64.0
267,68.0,5.0,60.0,6.0,64.0
268,73.0,1.0,60.0,8.0,64.0
269,73.0,2.0,60.0,4.0,64.0
270,68.0,2.0,60.0,11.0,64.0
271,77.0,6.0,40.0,5.0,64.0
272,77.0,3.0,60.0,10.0,64.0
273,56.0,28.0,60.0,7.0,64.0
274,56.0,4.0,60.0,12.0,64.0
275,78.0,2.0,40.0,10.0,64.0
276,78.0,68.0,40.0,5.0,64.0
277,72.0,1.0,40.0,8.0,64.0
278,72.0,2.0,40.0,4.0,64.0
279,73.0,0.0,60.0,8.0,64.0
280,73.0,0.0,60.0,6.0,64.0
281,77.0,18.0,90.0,10.0,64.0
282,73.0,6.0,60.0,4.0,64.0
283,77.0,14.0,60.0,5.0,64.0
284,58.0,4.0,90.0,7.0,64.0
285,73.0,5.0,60.0,11.0,64.0
286,58.0,6.0,90.0,12.0,64.0
287,75.0,46.0,60.0,8.0,64.0
288,75.0,0.0,40.0,4.0,64.0
289,77.0,6.0,40.0,8.0,64.0
290,56.0,1.0,40.0,12.0,64.0
291,70.0,1.0,60.0,6.0,64.0
292,70.0,6.0,60.0,11.0,64.0
293,73.0,6.0,60.0,5.0,64.0
294,56.0,1.0,40.0,7.0,64.0
295,77.0,12.0,40.0,4.0,64.0
296,73.0,34.0,60.0,10.0,64.0
297,78.0,5.0,60.0,8.0,64.0
298,54.0,9.0,60.0,12.0,64.0
299,54.0,50.0,60.0,7.0,64.0
300,78.0,1.0,40.0,4.0,64.0
301,80.0,5.0,60.0,8.0,64.0
302,73.0,7.0,60.0,10.0,64.0
303,68.0,0.0,60.0,11.0,64.0
304,68.0,3.0,60.0,6.0,64.0
305,53.0,86.0,60.0,7.0,64.0
306,53.0,2.0,60.0,12.0,64.0
307,73.0,4.0,40.0,5.0,64.0
308,80.0,2.0,60.0,4.0,64.0
309,78.0,5.0,40.0,5.0,64.0
310,82.0,1.0,40.0,8.0,64.0
311,61.0,10.0,60.0,11.0,64.0
312,73.0,1.0,40.0,6.0,64.0
313,78.0,1.0,40.0,10.0,64.0
314,54.0,67.0,60.0,7.0,64.0
315,54.0,4.0,40.0,12.0,64.0
316,82.0,7.0,40.0,4.0,64.0
317,73.0,19.0,30.0,8.0,64.0
318,75.0,14.0,15.0,8.0,64.0
319,75.0,1.0,240.0,10.0,64.0
320,68.0,4.0,240.0,6.0,64.0
321,73.0,22.0,40.0,4.0,64.0
322,56.0,12.0,240.0,12.0,64.0
323,56.0,3.0,240.0,7.0,64.0
324,68.0,80.0,240.0,11.0,64.0
325,75.0,2.0,240.0,5.0,64.0
326,72.0,2.0,30.0,8.0,64.0
327,72.0,10.0,30.0,4.0,64.0
328,73.0,40.0,30.0,8.0,64.0
329,72.0,16.0,60.0,8.0,64.0
330,73.0,10.0,40.0,4.0,64.0
331,72.0,10.0,40.0,4.0,64.0
332,70.0,32.0,40.0,8.0,64.0
333,70.0,42.0,60.0,4.0,64.0
334,68.0,3.0,40.0,8.0,64.0
335,68.0,7.0,40.0,4.0,64.0
336,78.0,0.0,90.0,8.0,64.0
337,78.0,74.0,90.0,4.0,64.0
338,75.0,5.0,60.0,10.0,64.0
339,68.0,2.0,40.0,6.0,64.0
340,61.0,4.0,60.0,12.0,64.0
341,75.0,36.0,60.0,5.0,64.0
342,68.0,3.0,40.0,11.0,64.0
343,61.0,3.0,60.0,7.0,64.0
344,60.0,66.0,40.0,7.0,64.0
345,60.0,0.0,40.0,12.0,64.0
346,61.0,4.0,60.0,7.0,64.0
347,68.0,6.0,60.0,6.0,64.0
348,61.0,4.0,60.0,12.0,64.0
349,77.0,1.0,60.0,10.0,64.0
350,77.0,43.0,60.0,5.0,64.0
351,68.0,1.0,60.0,11.0,64.0
352,77.0,48.0,120.0,8.0,64.0
353,77.0,7.0,90.0,4.0,64.0
354,63.0,2.0,40.0,7.0,64.0
355,78.0,3.0,60.0,10.0,64.0
356,63.0,4.0,40.0,12.0,64.0
357,68.0,86.0,60.0,6.0,64.0
358,78.0,5.0,40.0,5.0,64.0
359,68.0,2.0,60.0,11.0,64.0
360,61.0,9.0,30.0,12.0,64.0
361,61.0,16.0,30.0,7.0,64.0
362,75.0,12.0,240.0,5.0,64.0
363,75.0,3.0,240.0,10.0,64.0
364,68.0,2.0,240.0,6.0,64.0
365,68.0,1.0,240.0,11.0,64.0
366,60.0,8.0,30.0,12.0,64.0
367,60.0,25.0,30.0,7.0,64.0
368,61.0,8.0,40.0,12.0,64.0
369,61.0,33.0,40.0,7.0,64.0
370,60.0,6.0,60.0,12.0,64.0
371,60.0,23.0,40.0,7.0,64.0
372,58.0,8.0,40.0,12.0,64.0
373,78.0,7.0,60.0,4.0,64.0
374,58.0,16.0,40.0,7.0,64.0
375,78.0,27.0,60.0,8.0,64.0
376,56.0,12.0,40.0,12.0,64.0
377,56.0,22.0,40.0,7.0,64.0
378,77.0,1.0,30.0,4.0,64.0
379,77.0,27.0,30.0,8.0,64.0
380,68.0,6.0,90.0,12.0,64.0
381,68.0,13.0,90.0,7.0,64.0
382,75.0,1.0,40.0,4.0,64.0
383,75.0,37.0,40.0,8.0,64.0
384,77.0,3.0,40.0,4.0,64.0
385,77.0,2.0,40.0,8.0,64.0
386,75.0,9.0,40.0,8.0,64.0
387,75.0,37.0,40.0,4.0,64.0
388,73.0,2.0,60.0,8.0,64.0
389,73.0,1.0,60.0,4.0,64.0
390,75.0,5.0,40.0,5.0,64.0
391,68.0,13.0,60.0,6.0,64.0
392,68.0,27.0,60.0,11.0,64.0
393,75.0,3.0,40.0,10.0,64.0
394,72.0,0.0,30.0,8.0,64.0
395,72.0,83.0,30.0,4.0,64.0
396,82.0,0.0,90.0,8.0,64.0
397,70.0,6.0,60.0,6.0,64.0
398,66.0,45.0,120.0,7.0,64.0
399,75.0,5.0,90.0,5.0,64.0
400,70.0,24.0,60.0,11.0,64.0
401,75.0,6.0,90.0,10.0,64.0
402,66.0,1.0,90.0,12.0,64.0
403,82.0,12.0,90.0,4.0,64.0
404,73.0,3.0,60.0,5.0,64.0
405,73.0,15.0,40.0,10.0,64.0
406,63.0,1.0,60.0,11.0,64.0
407,75.0,29.0,60.0,6.0,64.0
408,72.0,133.0,40.0,5.0,64.0
409,72.0,1.0,30.0,10.0,64.0
410,73.0,17.0,120.0,5.0,64.0
411,80.0,0.0,120.0,4.0,64.0
412,77.0,18.0,150.0,6.0,64.0
413,68.0,5.0,120.0,11.0,64.0
414,73.0,3.0,90.0,10.0,64.0
415,80.0,22.0,90.0,8.0,64.0
416,65.0,9.0,60.0,7.0,64.0
417,65.0,28.0,60.0,12.0,64.0
418,63.0,12.0,40.0,7.0,64.0
419,63.0,60.0,40.0,12.0,64.0
420,65.0,13.0,60.0,7.0,64.0
421,65.0,120.0,60.0,12.0,64.0
422,73.0,1.0,60.0,10.0,64.0
423,66.0,0.0,60.0,7.0,64.0
424,73.0,15.0,60.0,5.0,64.0
425,66.0,4.0,60.0,11.0,64.0
426,82.0,2.0,40.0,8.0,64.0
427,66.0,5.0,40.0,12.0,64.0
428,82.0,4.0,60.0,4.0,64.0
429,66.0,59.0,60.0,6.0,64.0
430,80.0,1.0,40.0,8.0,64.0
431,72.0,0.0,60.0,5.0,64.0
432,72.0,5.0,60.0,10.0,64.0
433,66.0,2.0,60.0,11.0,64.0
434,65.0,8.0,20.0,12.0,64.0
435,65.0,9.0,20.0,7.0,64.0
436,80.0,8.0,30.0,4.0,64.0
437,66.0,0.0,60.0,6.0,64.0
438,63.0,10.0,30.0,12.0,64.0
439,78.0,3.0,40.0,8.0,64.0
440,63.0,8.0,40.0,7.0,64.0
441,78.0,12.0,30.0,4.0,64.0
442,65.0,11.0,40.0,12.0,64.0
443,80.0,3.0,40.0,8.0,64.0
444,65.0,6.0,40.0,7.0,64.0
445,80.0,7.0,40.0,4.0,64.0
446,63.0,10.0,40.0,12.0,64.0
447,78.0,6.0,40.0,8.0,64.0
448,63.0,23.0,40.0,7.0,64.0
449,78.0,5.0,60.0,4.0,64.0
450,61.0,6.0,60.0,12.0,64.0
451,73.0,4.0,60.0,5.0,64.0
452,68.0,15.0,40.0,11.0,64.0
453,73.0,1.0,60.0,10.0,64.0
454,77.0,0.0,40.0,8.0,64.0
455,68.0,2.0,60.0,6.0,64.0
456,61.0,11.0,60.0,7.0,64.0
457,77.0,4.0,60.0,4.0,64.0
458,60.0,7.0,30.0,12.0,64.0
459,75.0,36.0,40.0,8.0,64.0
460,60.0,6.0,30.0,7.0,64.0
461,75.0,88.0,40.0,4.0,64.0
462,75.0,21.0,90.0,5.0,64.0
463,85.0,10.0,150.0,8.0,64.0
464,67.0,1.0,120.0,12.0,64.0
465,75.0,14.0,120.0,10.0,64.0
466,67.0,4.0,120.0,7.0,64.0
467,70.0,4.0,150.0,11.0,64.0
468,70.0,148.0,150.0,6.0,64.0
469,85.0,8.0,90.0,4.0,64.0
470,84.0,12.0,90.0,8.0,64.0
471,75.0,17.0,90.0,5.0,64.0
472,75.0,3.0,60.0,10.0,64.0
473,68.0,2.0,60.0,11.0,64.0
474,68.0,1.0,60.0,6.0,64.0
475,68.0,1.0,60.0,12.0,64.0
476,68.0,7.0,60.0,7.0,64.0
477,84.0,58.0,90.0,4.0,64.0
478,78.0,0.0,60.0,5.0,64.0
479,56.0,1.0,60.0,12.0,64.0
480,78.0,5.0,60.0,10.0,64.0
481,85.0,13.0,40.0,8.0,64.0
482,72.0,2.0,60.0,11.0,64.0
483,72.0,16.0,60.0,6.0,64.0
484,56.0,11.0,60.0,7.0,64.0
485,85.0,3.0,40.0,4.0,64.0
486,87.0,2.0,40.0,8.0,64.0
487,87.0,74.0,30.0,4.0,64.0
488,58.0,1.0,60.0,12.0,64.0
489,77.0,4.0,60.0,5.0,64.0
490,77.0,0.0,60.0,10.0,64.0
491,73.0,3.0,60.0,11.0,64.0
492,73.0,4.0,60.0,6.0,64.0
493,80.0,1.0,60.0,8.0,64.0
494,58.0,94.0,60.0,7.0,64.0
495,80.0,2.0,60.0,4.0,64.0
496,75.0,14.0,40.0,10.0,64.0
497,75.0,3.0,60.0,11.0,64.0
498,75.0,3.0,60.0,6.0,64.0
499,75.0,0.0,60.0,5.0,64.0
500,60.0,1.0,60.0,12.0,64.0
501,78.0,1.0,60.0,8.0,64.0
502,60.0,7.0,60.0,7.0,64.0
503,78.0,85.0,60.0,4.0,64.0
504,68.0,2.0,60.0,11.0,64.0
505,73.0,7.0,60.0,5.0,64.0
506,68.0,2.0,60.0,6.0,64.0
507,78.0,7.0,40.0,8.0,64.0
508,61.0,1.0,60.0,12.0,64.0
509,61.0,11.0,60.0,7.0,64.0
510,73.0,0.0,60.0,10.0,64.0
511,78.0,8.0,30.0,4.0,64.0
512,80.0,5.0,15.0,4.0,64.0
513,77.0,11.0,20.0,8.0,64.0
514,77.0,0.0,30.0,4.0,64.0
515,78.0,13.0,40.0,8.0,64.0
516,78.0,17.0,40.0,4.0,64.0
517,80.0,4.0,15.0,4.0,64.0
518,77.0,19.0,40.0,8.0,64.0
519,77.0,27.0,40.0,4.0,64.0
520,75.0,9.0,60.0,8.0,64.0
521,65.0,1.0,60.0,11.0,64.0
522,68.0,2.0,60.0,6.0,64.0
523,68.0,5.0,60.0,5.0,64.0
524,68.0,12.0,60.0,10.0,64.0
525,53.0,0.0,60.0,12.0,64.0
526,53.0,14.0,60.0,7.0,64.0
527,75.0,2.0,40.0,4.0,64.0
528,73.0,24.0,40.0,8.0,64.0
529,73.0,54.0,40.0,4.0,64.0
530,75.0,5.0,60.0,8.0,64.0
531,70.0,5.0,60.0,10.0,64.0
532,70.0,5.0,60.0,5.0,64.0
533,75.0,6.0,60.0,6.0,64.0
534,63.0,1.0,60.0,11.0,64.0
535,54.0,3.0,60.0,12.0,64.0
536,54.0,3.0,60.0,7.0,64.0
537,75.0,80.0,60.0,4.0,64.0
538,68.0,8.0,60.0,5.0,64.0
539,85.0,14.0,40.0,8.0,64.0
540,56.0,0.0,60.0,12.0,64.0
541,63.0,8.0,60.0,11.0,64.0
542,78.0,0.0,60.0,10.0,64.0
543,78.0,2.0,60.0,6.0,64.0
544,56.0,16.0,60.0,7.0,64.0
545,85.0,4.0,40.0,4.0,64.0
546,84.0,18.0,40.0,8.0,64.0
547,84.0,53.0,40.0,4.0,64.0
548,85.0,1.0,60.0,8.0,64.0
549,73.0,11.0,40.0,5.0,64.0
550,70.0,7.0,60.0,11.0,64.0
551,58.0,1.0,60.0,12.0,64.0
552,77.0,6.0,60.0,10.0,64.0
553,77.0,11.0,60.0,6.0,64.0
554,58.0,79.0,60.0,7.0,64.0
555,85.0,1.0,40.0,4.0,64.0
556,54.0,3.0,60.0,12.0,64.0
557,78.0,2.0,60.0,5.0,64.0
558,70.0,4.0,60.0,11.0,64.0
559,70.0,3.0,60.0,6.0,64.0
560,78.0,1.0,60.0,10.0,64.0
561,87.0,15.0,40.0,8.0,64.0
562,54.0,70.0,60.0,7.0,64.0
563,87.0,9.0,40.0,4.0,64.0
564,68.0,9.0,90.0,11.0,64.0
565,77.0,1.0,30.0,10.0,64.0
566,77.0,6.0,30.0,5.0,64.0
567,60.0,6.0,60.0,12.0,64.0
568,80.0,13.0,40.0,8.0,64.0
569,60.0,3.0,60.0,7.0,64.0
570,68.0,11.0,90.0,6.0,64.0
571,75.0,8.0,30.0,5.0,64.0
572,75.0,3.0,30.0,10.0,64.0
573,80.0,4.0,20.0,4.0,64.0
574,78.0,1.0,30.0,8.0,64.0
575,78.0,3.0,40.0,4.0,64.0
576,77.0,1.0,40.0,10.0,64.0
577,77.0,15.0,40.0,5.0,64.0
578,80.0,4.0,40.0,8.0,64.0
579,80.0,7.0,40.0,4.0,64.0
580,75.0,2.0,40.0,10.0,64.0
581,75.0,17.0,40.0,5.0,64.0
582,78.0,24.0,40.0,8.0,64.0
583,78.0,4.0,60.0,4.0,64.0
584,73.0,1.0,60.0,10.0,64.0
585,68.0,10.0,60.0,11.0,64.0
586,73.0,10.0,60.0,5.0,64.0
587,56.0,6.0,60.0,12.0,64.0
588,68.0,9.0,90.0,6.0,64.0
589,56.0,2.0,60.0,7.0,64.0
590,77.0,4.0,60.0,8.0,64.0
591,77.0,14.0,60.0,4.0,64.0
592,72.0,25.0,60.0,10.0,64.0
593,72.0,5.0,40.0,5.0,64.0
594,75.0,2.0,60.0,8.0,64.0
595,75.0,49.0,40.0,4.0,64.0
596,73.0,4.0,60.0,10.0,64.0
597,73.0,2.0,60.0,5.0,64.0
598,68.0,1.0,60.0,11.0,64.0
599,61.0,0.0,60.0,12.0,64.0
600,68.0,7.0,60.0,6.0,64.0
601,61.0,48.0,60.0,7.0,64.0
602,77.0,4.0,60.0,8.0,64.0
603,77.0,1.0,40.0,4.0,64.0
604,78.0,38.0,60.0,8.0,64.0
605,78.0,6.0,40.0,4.0,64.0
606,73.0,3.0,60.0,10.0,64.0
607,53.0,2.0,60.0,12.0,64.0
608,68.0,16.0,60.0,11.0,64.0
609,73.0,3.0,60.0,5.0,64.0
610,80.0,2.0,60.0,8.0,64.0
611,68.0,8.0,60.0,6.0,64.0
612,53.0,20.0,60.0,7.0,64.0
613,80.0,0.0,40.0,4.0,64.0
614,82.0,13.0,40.0,8.0,64.0
615,82.0,59.0,40.0,4.0,64.0
616,68.0,1.0,90.0,11.0,64.0
617,78.0,4.0,60.0,5.0,64.0
618,51.0,1.0,60.0,12.0,64.0
619,78.0,11.0,60.0,10.0,64.0
620,84.0,1.0,60.0,8.0,64.0
621,51.0,85.0,60.0,7.0,64.0
622,68.0,7.0,60.0,6.0,64.0
623,84.0,1.0,60.0,4.0,64.0
624,49.0,4.0,60.0,12.0,64.0
625,77.0,4.0,60.0,5.0,64.0
626,85.0,7.0,40.0,8.0,64.0
627,68.0,8.0,60.0,11.0,64.0
628,77.0,1.0,60.0,10.0,64.0
629,68.0,2.0,60.0,6.0,64.0
630,85.0,2.0,40.0,4.0,64.0
631,49.0,67.0,60.0,7.0,64.0
632,77.0,6.0,30.0,8.0,64.0
633,66.0,5.0,60.0,11.0,64.0
634,77.0,31.0,30.0,4.0,64.0
635,54.0,5.0,60.0,12.0,64.0
636,70.0,5.0,60.0,5.0,64.0
637,70.0,0.0,60.0,10.0,64.0
638,66.0,19.0,60.0,6.0,64.0
639,54.0,1.0,60.0,7.0,64.0
640,75.0,0.0,40.0,8.0,64.0
641,75.0,4.0,30.0,4.0,64.0
642,77.0,7.0,40.0,8.0,64.0
643,77.0,24.0,40.0,4.0,64.0
644,75.0,43.0,40.0,8.0,64.0
645,75.0,0.0,40.0,4.0,64.0
646,73.0,2.0,60.0,8.0,64.0
647,63.0,3.0,60.0,11.0,64.0
648,68.0,10.0,60.0,5.0,64.0
649,68.0,1.0,60.0,10.0,64.0
650,73.0,5.0,40.0,4.0,64.0
651,56.0,0.0,60.0,12.0,64.0
652,78.0,1.0,60.0,6.0,64.0
653,56.0,39.0,60.0,7.0,64.0
654,72.0,1.0,60.0,8.0,64.0
655,72.0,59.0,40.0,4.0,64.0
656,73.0,8.0,60.0,8.0,64.0
657,65.0,1.0,60.0,10.0,64.0
658,61.0,5.0,60.0,11.0,64.0
659,58.0,2.0,60.0,12.0,64.0
660,73.0,3.0,60.0,5.0,64.0
661,58.0,1.0,60.0,7.0,64.0
662,73.0,0.0,60.0,4.0,64.0
663,77.0,86.0,60.0,6.0,64.0
664,66.0,1.0,60.0,11.0,64.0
665,75.0,14.0,40.0,8.0,64.0
666,70.0,12.0,60.0,10.0,64.0
667,54.0,4.0,60.0,12.0,64.0
668,70.0,2.0,60.0,5.0,64.0
669,54.0,0.0,60.0,7.0,64.0
670,78.0,88.0,60.0,6.0,64.0
671,75.0,2.0,40.0,4.0,64.0
672,68.0,9.0,40.0,8.0,64.0
673,68.0,0.0,60.0,10.0,64.0
674,66.0,103.0,60.0,11.0,64.0
675,68.0,4.0,60.0,5.0,64.0
676,75.0,1.0,60.0,6.0,64.0
677,56.0,6.0,40.0,12.0,64.0
678,56.0,4.0,60.0,7.0,64.0
679,68.0,0.0,40.0,4.0,64.0
680,72.0,5.0,60.0,8.0,64.0
681,68.0,1.0,60.0,5.0,64.0
682,63.0,7.0,60.0,11.0,64.0
683,80.0,5.0,60.0,6.0,64.0
684,68.0,2.0,40.0,10.0,64.0
685,44.0,296.0,60.0,7.0,64.0
686,44.0,1.0,60.0,12.0,64.0
687,72.0,1.0,60.0,4.0,64.0
688,68.0,3.0,240.0,10.0,64.0
689,68.0,11.0,270.0,5.0,64.0
690,73.0,11.0,240.0,8.0,64.0
691,65.0,123.0,270.0,11.0,64.0
692,49.0,3.0,240.0,7.0,64.0
693,49.0,0.0,240.0,12.0,64.0
694,73.0,3.0,240.0,4.0,64.0
695,77.0,4.0,240.0,6.0,64.0
696,82.0,4.0,40.0,4.0,64.0
697,78.0,12.0,60.0,5.0,64.0
698,66.0,2.0,60.0,7.0,64.0
699,66.0,7.0,40.0,12.0,64.0
700,78.0,0.0,40.0,10.0,64.0
701,78.0,1.0,40.0,1.0,64.0
702,82.0,3.0,30.0,0.0,64.0
703,54.0,4.0,30.0,3.0,64.0
704,73.0,0.0,40.0,6.0,64.0
705,73.0,22.0,60.0,11.0,64.0
706,73.0,0.0,30.0,2.0,64.0
707,82.0,1.0,40.0,8.0,64.0
708,80.0,0.0,40.0,4.0,64.0
709,80.0,4.0,40.0,0.0,64.0
710,65.0,4.0,40.0,7.0,64.0
711,65.0,53.0,40.0,12.0,64.0
712,80.0,3.0,40.0,8.0,64.0
713,54.0,3.0,30.0,3.0,64.0
714,73.0,1.0,30.0,2.0,64.0
715,78.0,3.0,60.0,10.0,64.0
716,82.0,1.0,40.0,4.0,64.0
717,82.0,3.0,40.0,8.0,64.0
718,78.0,30.0,60.0,5.0,64.0
719,73.0,0.0,60.0,11.0,64.0
720,73.0,2.0,60.0,6.0,64.0
721,66.0,0.0,40.0,12.0,64.0
722,66.0,3.0,40.0,7.0,64.0
723,78.0,1.0,60.0,1.0,64.0
724,82.0,4.0,40.0,0.0,64.0
725,73.0,71.0,90.0,2.0,64.0
726,54.0,1.0,40.0,3.0,64.0
727,83.0,4.0,40.0,4.0,64.0
728,59.0,2.0,60.0,12.0,64.0
729,80.0,0.0,60.0,5.0,64.0
730,80.0,2.0,40.0,10.0,64.0
731,75.0,1.0,60.0,11.0,64.0
732,83.0,1.0,40.0,8.0,64.0
733,80.0,1.0,40.0,1.0,64.0
734,75.0,79.0,60.0,6.0,64.0
735,59.0,6.0,60.0,7.0,64.0
736,83.0,3.0,40.0,0.0,64.0
737,82.0,9.0,30.0,8.0,64.0
738,73.0,3.0,60.0,6.0,64.0
739,82.0,14.0,30.0,4.0,64.0
740,77.0,7.0,60.0,5.0,64.0
741,77.0,2.0,40.0,10.0,64.0
742,73.0,21.0,60.0,11.0,64.0
743,61.0,1.0,60.0,12.0,64.0
744,61.0,3.0,40.0,7.0,64.0
745,73.0,4.0,40.0,1.0,64.0
746,80.0,2.0,30.0,8.0,64.0
747,80.0,12.0,90.0,0.0,64.0
748,80.0,3.0,30.0,4.0,64.0
749,82.0,12.0,40.0,8.0,64.0
750,82.0,7.0,40.0,4.0,64.0
751,80.0,7.0,40.0,8.0,64.0
752,80.0,38.0,40.0,4.0,64.0
753,73.0,3.0,60.0,10.0,64.0
754,73.0,0.0,60.0,5.0,64.0
755,78.0,4.0,60.0,8.0,64.0
756,71.0,28.0,60.0,6.0,64.0
757,71.0,6.0,60.0,11.0,64.0
758,78.0,1.0,60.0,4.0,64.0
759,56.0,7.0,60.0,12.0,64.0
760,56.0,0.0,40.0,7.0,64.0
761,78.0,1.0,40.0,0.0,64.0
762,73.0,3.0,150.0,1.0,64.0
763,77.0,3.0,40.0,8.0,64.0
764,77.0,7.0,40.0,4.0,64.0
765,77.0,55.0,40.0,0.0,64.0
766,78.0,4.0,60.0,8.0,64.0
767,78.0,5.0,60.0,4.0,64.0
768,70.0,0.0,60.0,6.0,64.0
769,73.0,1.0,60.0,5.0,64.0
770,73.0,6.0,60.0,10.0,64.0
771,70.0,14.0,60.0,11.0,64.0
772,58.0,14.0,60.0,12.0,64.0
773,58.0,4.0,90.0,7.0,64.0
774,78.0,3.0,40.0,0.0,64.0
775,80.0,0.0,40.0,4.0,64.0
776,80.0,3.0,40.0,8.0,64.0
777,80.0,46.0,30.0,0.0,64.0
778,82.0,3.0,40.0,8.0,64.0
779,82.0,3.0,40.0,4.0,64.0
780,73.0,5.0,60.0,11.0,64.0
781,54.0,5.0,40.0,7.0,64.0
782,82.0,3.0,60.0,0.0,64.0
783,78.0,6.0,40.0,5.0,64.0
784,54.0,6.0,30.0,3.0,64.0
785,78.0,1.0,40.0,10.0,64.0
786,73.0,1.0,60.0,6.0,64.0
787,54.0,1.0,40.0,12.0,64.0
788,73.0,1.0,40.0,1.0,64.0
789,66.0,21.0,60.0,2.0,64.0
790,77.0,8.0,40.0,10.0,64.0
791,83.0,3.0,40.0,8.0,64.0
792,83.0,1.0,40.0,4.0,64.0
793,77.0,0.0,30.0,5.0,64.0
794,56.0,8.0,40.0,7.0,64.0
795,83.0,0.0,40.0,0.0,64.0
796,56.0,46.0,40.0,12.0,64.0
797,54.0,2.0,30.0,3.0,64.0
798,78.0,2.0,40.0,10.0,64.0
799,78.0,1.0,40.0,1.0,64.0
800,85.0,3.0,40.0,4.0,64.0
801,85.0,3.0,60.0,8.0,64.0
802,73.0,104.0,60.0,11.0,64.0
803,78.0,1.0,40.0,5.0,64.0
804,73.0,0.0,40.0,6.0,64.0
805,58.0,3.0,40.0,7.0,64.0
806,54.0,4.0,30.0,3.0,64.0
807,58.0,2.0,40.0,12.0,64.0
808,73.0,2.0,40.0,2.0,64.0
809,85.0,1.0,40.0,0.0,64.0
810,59.0,0.0,60.0,12.0,64.0
811,71.0,89.0,60.0,11.0,64.0
812,66.0,4.0,40.0,6.0,64.0
813,75.0,1.0,40.0,10.0,64.0
814,87.0,1.0,40.0,8.0,64.0
815,83.0,3.0,40.0,1.0,64.0
816,87.0,0.0,40.0,4.0,64.0
817,75.0,0.0,40.0,5.0,64.0
818,59.0,8.0,40.0,7.0,64.0
819,87.0,1.0,40.0,0.0,64.0
820,54.0,0.0,40.0,3.0,64.0
821,66.0,0.0,40.0,2.0,64.0
822,85.0,2.0,30.0,8.0,64.0
823,78.0,1.0,30.0,10.0,64.0
824,73.0,5.0,30.0,6.0,64.0
825,85.0,1.0,30.0,0.0,64.0
826,82.0,2.0,30.0,1.0,64.0
827,73.0,5.0,40.0,2.0,64.0
828,61.0,0.0,60.0,12.0,64.0
829,78.0,2.0,30.0,5.0,64.0
830,61.0,0.0,60.0,7.0,64.0
831,85.0,1.0,30.0,4.0,64.0
832,70.0,2.0,30.0,11.0,64.0
833,49.0,3.0,40.0,3.0,64.0
834,83.0,1.0,30.0,8.0,64.0
835,77.0,8.0,30.0,5.0,64.0
836,77.0,4.0,30.0,10.0,64.0
837,83.0,0.0,20.0,0.0,64.0
838,80.0,1.0,15.0,1.0,64.0
839,83.0,1.0,30.0,4.0,64.0
840,68.0,15.0,30.0,11.0,64.0
841,85.0,3.0,40.0,0.0,64.0
842,82.0,4.0,30.0,1.0,64.0
843,85.0,0.0,40.0,8.0,64.0
844,78.0,0.0,30.0,10.0,64.0
845,85.0,4.0,30.0,4.0,64.0
846,78.0,6.0,40.0,5.0,64.0
847,70.0,9.0,30.0,11.0,64.0
848,80.0,2.0,30.0,1.0,64.0
849,77.0,2.0,30.0,10.0,64.0
850,83.0,2.0,30.0,0.0,64.0
851,83.0,5.0,30.0,8.0,64.0
852,77.0,1.0,40.0,5.0,64.0
853,83.0,1.0,30.0,4.0,64.0
854,68.0,38.0,30.0,11.0,64.0
855,82.0,0.0,150.0,8.0,64.0
856,66.0,8.0,120.0,11.0,64.0
857,66.0,1.0,40.0,7.0,64.0
858,66.0,11.0,40.0,12.0,64.0
859,78.0,12.0,150.0,1.0,64.0
860,82.0,2.0,180.0,0.0,64.0
861,73.0,7.0,150.0,2.0,64.0
862,54.0,42.0,40.0,3.0,64.0
863,82.0,3.0,120.0,4.0,64.0
864,73.0,4.0,150.0,6.0,64.0
865,78.0,8.0,120.0,10.0,64.0
866,78.0,4.0,150.0,5.0,64.0
867,65.0,32.0,40.0,7.0,64.0
868,65.0,2.0,40.0,12.0,64.0
869,66.0,7.0,60.0,12.0,64.0
870,66.0,110.0,60.0,7.0,64.0
871,63.0,0.0,60.0,12.0,64.0
872,80.0,5.0,40.0,8.0,64.0
873,66.0,1.0,40.0,11.0,64.0
874,63.0,3.0,60.0,7.0,64.0
875,72.0,4.0,40.0,10.0,64.0
876,75.0,2.0,60.0,6.0,64.0
877,72.0,41.0,60.0,5.0,64.0
878,80.0,1.0,40.0,4.0,64.0
879,78.0,4.0,40.0,8.0,64.0
880,78.0,54.0,40.0,4.0,64.0
881,65.0,1.0,60.0,11.0,64.0
882,65.0,1.0,60.0,12.0,64.0
883,73.0,3.0,60.0,10.0,64.0
884,80.0,10.0,40.0,8.0,64.0
885,68.0,1.0,60.0,6.0,64.0
886,80.0,3.0,40.0,4.0,64.0
887,65.0,19.0,60.0,7.0,64.0
888,73.0,14.0,60.0,5.0,64.0
889,82.0,72.0,40.0,8.0,64.0
890,82.0,0.0,30.0,4.0,64.0
891,82.0,2.0,40.0,4.0,64.0
892,61.0,10.0,60.0,12.0,64.0
893,77.0,1.0,60.0,10.0,64.0
894,73.0,3.0,60.0,11.0,64.0
895,82.0,3.0,40.0,8.0,64.0
896,73.0,3.0,40.0,6.0,64.0
897,77.0,1.0,60.0,5.0,64.0
898,61.0,80.0,60.0,7.0,64.0
899,75.0,10.0,40.0,5.0,64.0
900,70.0,1.0,60.0,11.0,64.0
901,75.0,7.0,60.0,10.0,64.0
902,80.0,4.0,30.0,8.0,64.0
903,63.0,21.0,60.0,12.0,64.0
904,80.0,10.0,30.0,4.0,64.0
905,70.0,2.0,60.0,6.0,64.0
906,63.0,5.0,60.0,7.0,64.0
907,78.0,0.0,30.0,8.0,64.0
908,78.0,1.0,30.0,4.0,64.0
909,80.0,31.0,40.0,8.0,64.0
910,80.0,1.0,30.0,4.0,64.0
911,78.0,30.0,40.0,8.0,64.0
912,78.0,7.0,40.0,4.0,64.0
913,68.0,13.0,40.0,5.0,64.0
914,77.0,2.0,40.0,4.0,64.0
915,60.0,1.0,60.0,12.0,64.0
916,68.0,45.0,60.0,6.0,64.0
917,68.0,4.0,60.0,11.0,64.0
918,68.0,0.0,60.0,10.0,64.0
919,77.0,0.0,40.0,8.0,64.0
920,60.0,1.0,60.0,7.0,64.0
921,75.0,55.0,40.0,4.0,64.0
922,75.0,3.0,40.0,8.0,64.0
923,73.0,4.0,40.0,5.0,64.0
924,68.0,11.0,60.0,6.0,64.0
925,61.0,3.0,40.0,12.0,64.0
926,77.0,2.0,40.0,8.0,64.0
927,68.0,0.0,60.0,11.0,64.0
928,77.0,0.0,40.0,4.0,64.0
929,73.0,5.0,40.0,10.0,64.0
930,61.0,32.0,60.0,7.0,64.0
931,78.0,5.0,40.0,8.0,64.0
932,78.0,51.0,40.0,4.0,64.0
933,80.0,6.0,40.0,8.0,64.0
934,68.0,2.0,60.0,6.0,64.0
935,80.0,2.0,40.0,4.0,64.0
936,73.0,1.0,40.0,5.0,64.0
937,53.0,4.0,60.0,7.0,64.0
938,73.0,7.0,40.0,10.0,64.0
939,53.0,0.0,40.0,12.0,64.0
940,68.0,34.0,60.0,11.0,64.0
941,82.0,4.0,40.0,8.0,64.0
942,82.0,60.0,40.0,4.0,64.0
943,78.0,8.0,40.0,5.0,64.0
944,51.0,2.0,60.0,7.0,64.0
945,78.0,4.0,60.0,10.0,64.0
946,68.0,0.0,60.0,6.0,64.0
947,84.0,3.0,40.0,8.0,64.0
948,68.0,104.0,60.0,11.0,64.0
949,84.0,1.0,40.0,4.0,64.0
950,51.0,1.0,60.0,12.0,64.0
951,49.0,3.0,60.0,7.0,64.0
952,85.0,5.0,40.0,8.0,64.0
953,49.0,1.0,60.0,12.0,64.0
954,77.0,4.0,40.0,5.0,64.0
955,85.0,1.0,40.0,4.0,64.0
956,68.0,87.0,60.0,6.0,64.0
957,68.0,2.0,60.0,11.0,64.0
958,77.0,2.0,60.0,10.0,64.0
959,77.0,1.0,40.0,5.0,64.0
960,77.0,25.0,30.0,10.0,64.0
961,70.0,22.0,60.0,11.0,64.0
962,77.0,2.0,20.0,8.0,64.0
963,70.0,2.0,60.0,6.0,64.0
964,54.0,2.0,60.0,7.0,64.0
965,77.0,2.0,20.0,4.0,64.0
966,54.0,0.0,60.0,12.0,64.0
967,75.0,1.0,40.0,5.0,64.0
968,75.0,2.0,30.0,8.0,64.0
969,75.0,5.0,30.0,10.0,64.0
970,75.0,0.0,30.0,4.0,64.0
971,77.0,9.0,40.0,5.0,64.0
972,77.0,20.0,40.0,10.0,64.0
973,77.0,1.0,40.0,4.0,64.0
974,77.0,1.0,40.0,8.0,64.0
975,75.0,0.0,40.0,8.0,64.0
976,75.0,7.0,40.0,5.0,64.0
977,75.0,8.0,30.0,4.0,64.0
978,75.0,26.0,40.0,10.0,64.0
979,73.0,7.0,60.0,8.0,64.0
980,73.0,1.0,60.0,4.0,64.0
981,77.0,1.0,40.0,5.0,64.0
982,68.0,1.0,60.0,11.0,64.0
983,68.0,21.0,60.0,6.0,64.0
984,56.0,2.0,40.0,7.0,64.0
985,77.0,3.0,40.0,10.0,64.0
986,56.0,6.0,60.0,12.0,64.0
987,72.0,2.0,40.0,4.0,64.0
988,72.0,3.0,40.0,8.0,64.0
989,78.0,5.0,40.0,10.0,64.0
990,78.0,62.0,40.0,5.0,64.0
991,73.0,3.0,60.0,4.0,64.0
992,73.0,11.0,60.0,8.0,64.0
993,77.0,3.0,60.0,10.0,64.0
994,77.0,2.0,60.0,5.0,64.0
995,58.0,0.0,90.0,7.0,64.0
996,73.0,29.0,60.0,6.0,64.0
997,73.0,3.0,60.0,11.0,64.0
998,58.0,9.0,90.0,12.0,64.0
999,75.0,0.0,60.0,4.0,64.0
1000,75.0,42.0,40.0,8.0,64.0
1001,77.0,10.0,40.0,4.0,64.0
1002,77.0,8.0,40.0,8.0,64.0
1003,56.0,3.0,40.0,7.0,64.0
1004,70.0,5.0,60.0,6.0,64.0
1005,70.0,26.0,60.0,11.0,64.0
1006,56.0,4.0,40.0,12.0,64.0
1007,73.0,3.0,60.0,10.0,64.0
1008,73.0,4.0,60.0,5.0,64.0
1009,78.0,13.0,40.0,4.0,64.0
1010,54.0,49.0,40.0,12.0,64.0
1011,54.0,1.0,40.0,7.0,64.0
1012,78.0,1.0,40.0,8.0,64.0
1013,80.0,10.0,40.0,4.0,64.0
1014,68.0,5.0,40.0,11.0,64.0
1015,73.0,0.0,40.0,5.0,64.0
1016,73.0,0.0,60.0,10.0,64.0
1017,53.0,0.0,60.0,7.0,64.0
1018,80.0,8.0,40.0,8.0,64.0
1019,53.0,1.0,60.0,12.0,64.0
1020,68.0,102.0,60.0,6.0,64.0
1021,78.0,2.0,40.0,10.0,64.0
1022,61.0,8.0,40.0,11.0,64.0
1023,78.0,0.0,40.0,5.0,64.0
1024,82.0,0.0,40.0,4.0,64.0
1025,73.0,2.0,40.0,6.0,64.0
1026,54.0,7.0,40.0,7.0,64.0
1027,54.0,93.0,60.0,12.0,64.0
1028,82.0,1.0,40.0,8.0,64.0
1029,73.0,15.0,40.0,8.0,64.0
1030,73.0,2.0,30.0,4.0,64.0
1031,56.0,0.0,240.0,7.0,64.0
1032,56.0,6.0,240.0,12.0,64.0
1033,75.0,5.0,240.0,10.0,64.0
1034,75.0,17.0,240.0,5.0,64.0
1035,68.0,9.0,240.0,6.0,64.0
1036,68.0,62.0,270.0,11.0,64.0
1037,72.0,5.0,20.0,8.0,64.0
1038,72.0,32.0,30.0,4.0,64.0
1039,73.0,6.0,30.0,8.0,64.0
1040,73.0,31.0,40.0,4.0,64.0
1041,72.0,6.0,40.0,8.0,64.0
1042,72.0,21.0,60.0,4.0,64.0
1043,70.0,3.0,40.0,8.0,64.0
1044,70.0,68.0,30.0,4.0,64.0
1045,68.0,5.0,40.0,8.0,64.0
1046,68.0,7.0,40.0,4.0,64.0
1047,78.0,6.0,90.0,8.0,64.0
1048,78.0,69.0,90.0,4.0,64.0
1049,68.0,3.0,60.0,6.0,64.0
1050,75.0,1.0,40.0,5.0,64.0
1051,61.0,4.0,40.0,7.0,64.0
1052,75.0,9.0,40.0,10.0,64.0
1053,61.0,0.0,60.0,12.0,64.0
1054,68.0,34.0,40.0,11.0,64.0
1055,60.0,3.0,40.0,12.0,64.0
1056,60.0,64.0,40.0,7.0,64.0
1057,61.0,0.0,60.0,12.0,64.0
1058,61.0,3.0,60.0,7.0,64.0
1059,77.0,5.0,40.0,5.0,64.0
1060,68.0,44.0,60.0,6.0,64.0
1061,77.0,3.0,40.0,10.0,64.0
1062,68.0,1.0,40.0,11.0,64.0
1063,77.0,0.0,90.0,4.0,64.0
1064,77.0,64.0,90.0,8.0,64.0
1065,78.0,4.0,40.0,5.0,64.0
1066,78.0,2.0,40.0,10.0,64.0
1067,63.0,0.0,40.0,7.0,64.0
1068,63.0,2.0,40.0,12.0,64.0
1069,68.0,83.0,60.0,11.0,64.0
1070,68.0,5.0,40.0,6.0,64.0
1071,61.0,17.0,30.0,7.0,64.0
1072,61.0,8.0,30.0,12.0,64.0
1073,68.0,2.0,240.0,6.0,64.0
1074,75.0,2.0,240.0,5.0,64.0
1075,75.0,13.0,240.0,10.0,64.0
1076,68.0,2.0,240.0,11.0,64.0
1077,60.0,5.0,30.0,7.0,64.0
1078,60.0,29.0,20.0,12.0,64.0
1079,61.0,9.0,40.0,7.0,64.0
1080,61.0,33.0,40.0,12.0,64.0
1081,60.0,5.0,60.0,7.0,64.0
1082,60.0,26.0,40.0,12.0,64.0
1083,58.0,5.0,40.0,7.0,64.0
1084,58.0,15.0,40.0,12.0,64.0
1085,78.0,44.0,60.0,4.0,64.0
1086,78.0,5.0,40.0,8.0,64.0
1087,56.0,8.0,40.0,7.0,64.0
1088,56.0,11.0,40.0,12.0,64.0
1089,77.0,3.0,20.0,8.0,64.0
1090,77.0,17.0,30.0,4.0,64.0
1091,68.0,3.0,90.0,7.0,64.0
1092,75.0,14.0,30.0,8.0,64.0
1093,68.0,14.0,90.0,12.0,64.0
1094,75.0,32.0,30.0,4.0,64.0
1095,77.0,6.0,60.0,8.0,64.0
1096,77.0,0.0,40.0,4.0,64.0
1097,75.0,8.0,40.0,8.0,64.0
1098,75.0,48.0,40.0,4.0,64.0
1099,73.0,5.0,60.0,8.0,64.0
1100,73.0,7.0,60.0,4.0,64.0
1101,68.0,0.0,60.0,11.0,64.0
1102,75.0,3.0,40.0,10.0,64.0
1103,68.0,2.0,60.0,6.0,64.0
1104,75.0,5.0,60.0,5.0,64.0
1105,72.0,9.0,30.0,8.0,64.0
1106,72.0,56.0,30.0,4.0,64.0
1107,77.0,21.0,20.0,10.0,64.0
1108,82.0,11.0,90.0,4.0,64.0
1109,82.0,0.0,90.0,8.0,64.0
1110,70.0,1.0,60.0,11.0,64.0
1111,70.0,12.0,60.0,6.0,64.0
1112,77.0,6.0,30.0,5.0,64.0
1113,75.0,18.0,30.0,10.0,64.0
1114,66.0,6.0,90.0,12.0,64.0
1115,66.0,4.0,90.0,7.0,64.0
1116,75.0,7.0,40.0,5.0,64.0
1117,77.0,5.0,40.0,10.0,64.0
1118,77.0,2.0,40.0,5.0,64.0
1119,75.0,21.0,40.0,10.0,64.0
1120,75.0,31.0,40.0,5.0,64.0
1121,73.0,11.0,60.0,10.0,64.0
1122,63.0,22.0,60.0,11.0,64.0
1123,75.0,6.0,60.0,6.0,64.0
1124,73.0,3.0,40.0,5.0,64.0
1125,72.0,18.0,40.0,10.0,64.0
1126,72.0,104.0,40.0,5.0,64.0
1127,73.0,17.0,90.0,10.0,64.0
1128,77.0,4.0,90.0,6.0,64.0
1129,68.0,3.0,90.0,11.0,64.0
1130,80.0,56.0,90.0,4.0,64.0
1131,73.0,2.0,90.0,5.0,64.0
1132,80.0,3.0,90.0,8.0,64.0
1133,65.0,5.0,40.0,12.0,64.0
1134,65.0,43.0,40.0,7.0,64.0
1135,63.0,5.0,40.0,12.0,64.0
1136,63.0,76.0,40.0,7.0,64.0
1137,65.0,2.0,60.0,12.0,64.0
1138,65.0,107.0,60.0,7.0,64.0
1139,66.0,3.0,60.0,12.0,64.0
1140,73.0,10.0,60.0,10.0,64.0
1141,66.0,2.0,60.0,7.0,64.0
1142,66.0,2.0,60.0,11.0,64.0
1143,82.0,8.0,40.0,8.0,64.0
1144,82.0,2.0,40.0,4.0,64.0
1145,73.0,69.0,60.0,5.0,64.0
1146,66.0,1.0,60.0,6.0,64.0
1147,65.0,7.0,30.0,12.0,64.0
1148,72.0,1.0,60.0,10.0,64.0
1149,66.0,1.0,60.0,11.0,64.0
1150,65.0,2.0,30.0,7.0,64.0
1151,66.0,5.0,60.0,6.0,64.0
1152,80.0,5.0,30.0,8.0,64.0
1153,72.0,1.0,60.0,5.0,64.0
1154,80.0,17.0,30.0,4.0,64.0
1155,63.0,1.0,40.0,12.0,64.0
1156,63.0,6.0,30.0,7.0,64.0
1157,78.0,1.0,30.0,8.0,64.0
1158,78.0,18.0,40.0,4.0,64.0
1159,65.0,6.0,40.0,12.0,64.0
1160,80.0,5.0,40.0,8.0,64.0
1161,80.0,5.0,40.0,4.0,64.0
1162,65.0,17.0,40.0,7.0,64.0
1163,63.0,1.0,40.0,12.0,64.0
1164,78.0,2.0,40.0,8.0,64.0
1165,63.0,5.0,40.0,7.0,64.0
1166,78.0,15.0,40.0,4.0,64.0
1167,77.0,9.0,30.0,8.0,64.0
1168,73.0,7.0,60.0,10.0,64.0
1169,61.0,4.0,60.0,12.0,64.0
1170,61.0,3.0,60.0,7.0,64.0
1171,68.0,11.0,60.0,6.0,64.0
1172,77.0,19.0,30.0,4.0,64.0
1173,73.0,6.0,60.0,5.0,64.0
1174,68.0,2.0,60.0,11.0,64.0
1175,75.0,3.0,40.0,8.0,64.0
1176,60.0,5.0,30.0,7.0,64.0
1177,75.0,110.0,40.0,4.0,64.0
1178,60.0,4.0,40.0,12.0,64.0
1179,85.0,12.0,90.0,4.0,64.0
1180,85.0,26.0,120.0,8.0,64.0
1181,75.0,2.0,90.0,5.0,64.0
1182,67.0,169.0,120.0,7.0,64.0
1183,75.0,6.0,90.0,10.0,64.0
1184,70.0,2.0,90.0,6.0,64.0
1185,70.0,3.0,90.0,11.0,64.0
1186,67.0,0.0,90.0,12.0,64.0
1187,84.0,7.0,90.0,4.0,64.0
1188,68.0,2.0,90.0,6.0,64.0
1189,68.0,19.0,90.0,11.0,64.0
1190,75.0,4.0,60.0,5.0,64.0
1191,84.0,59.0,90.0,8.0,64.0
1192,75.0,6.0,60.0,10.0,64.0
1193,68.0,1.0,60.0,12.0,64.0
1194,68.0,3.0,60.0,7.0,64.0
1195,72.0,18.0,60.0,11.0,64.0
1196,78.0,5.0,60.0,5.0,64.0
1197,72.0,0.0,60.0,6.0,64.0
1198,78.0,4.0,60.0,10.0,64.0
1199,85.0,3.0,40.0,4.0,64.0
1200,56.0,4.0,60.0,7.0,64.0
1201,56.0,4.0,60.0,12.0,64.0
1202,85.0,3.0,40.0,8.0,64.0
1203,87.0,4.0,40.0,4.0,64.0
1204,87.0,71.0,40.0,8.0,64.0
1205,80.0,1.0,60.0,4.0,64.0
1206,73.0,4.0,60.0,11.0,64.0
1207,58.0,0.0,60.0,12.0,64.0
1208,77.0,2.0,40.0,5.0,64.0
1209,73.0,5.0,60.0,6.0,64.0
1210,58.0,0.0,60.0,7.0,64.0
1211,77.0,96.0,60.0,10.0,64.0
1212,80.0,7.0,40.0,8.0,64.0
1213,75.0,6.0,40.0,5.0,64.0
1214,78.0,3.0,60.0,4.0,64.0
1215,75.0,2.0,40.0,10.0,64.0
1216,60.0,10.0,60.0,7.0,64.0
1217,75.0,1.0,60.0,11.0,64.0
1218,60.0,1.0,60.0,12.0,64.0
1219,78.0,1.0,40.0,8.0,64.0
1220,75.0,81.0,60.0,6.0,64.0
1221,78.0,20.0,30.0,8.0,64.0
1222,78.0,0.0,30.0,4.0,64.0
1223,73.0,4.0,60.0,10.0,64.0
1224,61.0,2.0,60.0,7.0,64.0
1225,73.0,7.0,60.0,5.0,64.0
1226,61.0,14.0,60.0,12.0,64.0
1227,68.0,1.0,60.0,11.0,64.0
1228,68.0,4.0,60.0,6.0,64.0
1229,77.0,4.0,30.0,8.0,64.0
1230,77.0,8.0,30.0,4.0,64.0
1231,78.0,3.0,40.0,4.0,64.0
1232,78.0,23.0,40.0,8.0,64.0
1233,77.0,42.0,40.0,8.0,64.0
1234,77.0,1.0,40.0,4.0,64.0
1235,75.0,5.0,60.0,4.0,64.0
1236,75.0,12.0,60.0,8.0,64.0
1237,68.0,2.0,60.0,10.0,64.0
1238,53.0,2.0,60.0,7.0,64.0
1239,65.0,3.0,60.0,11.0,64.0
1240,53.0,14.0,60.0,12.0,64.0
1241,68.0,3.0,60.0,5.0,64.0
1242,68.0,3.0,60.0,6.0,64.0
1243,73.0,2.0,40.0,4.0,64.0
1244,73.0,72.0,30.0,8.0,64.0
1245,70.0,15.0,60.0,10.0,64.0
1246,75.0,3.0,60.0,4.0,64.0
1247,75.0,1.0,60.0,8.0,64.0
1248,54.0,1.0,60.0,7.0,64.0
1249,63.0,5.0,60.0,11.0,64.0
1250,54.0,2.0,60.0,12.0,64.0
1251,75.0,2.0,60.0,6.0,64.0
1252,70.0,90.0,60.0,5.0,64.0
1253,78.0,15.0,60.0,10.0,64.0
1254,85.0,4.0,40.0,4.0,64.0
1255,85.0,1.0,40.0,8.0,64.0
1256,63.0,3.0,60.0,11.0,64.0
1257,56.0,2.0,60.0,7.0,64.0
1258,56.0,1.0,60.0,12.0,64.0
1259,78.0,22.0,60.0,6.0,64.0
1260,68.0,5.0,60.0,5.0,64.0
1261,84.0,4.0,40.0,4.0,64.0
1262,84.0,75.0,40.0,8.0,64.0
1263,77.0,7.0,60.0,6.0,64.0
1264,58.0,6.0,60.0,7.0,64.0
1265,70.0,2.0,60.0,11.0,64.0
1266,77.0,1.0,40.0,10.0,64.0
1267,85.0,3.0,40.0,8.0,64.0
1268,85.0,0.0,40.0,4.0,64.0
1269,58.0,98.0,60.0,12.0,64.0
1270,73.0,3.0,40.0,5.0,64.0
1271,54.0,0.0,60.0,7.0,64.0
1272,70.0,0.0,60.0,6.0,64.0
1273,70.0,3.0,60.0,11.0,64.0
1274,78.0,1.0,60.0,10.0,64.0
1275,54.0,7.0,60.0,12.0,64.0
1276,87.0,7.0,40.0,8.0,64.0
1277,87.0,2.0,40.0,4.0,64.0
1278,78.0,73.0,60.0,5.0,64.0
1279,77.0,11.0,30.0,10.0,64.0
1280,60.0,12.0,60.0,7.0,64.0
1281,80.0,15.0,30.0,8.0,64.0
1282,68.0,8.0,60.0,11.0,64.0
1283,60.0,1.0,60.0,12.0,64.0
1284,68.0,4.0,60.0,6.0,64.0
1285,80.0,1.0,30.0,4.0,64.0
1286,75.0,1.0,30.0,10.0,64.0
1287,77.0,2.0,20.0,5.0,64.0
1288,78.0,1.0,30.0,8.0,64.0
1289,77.0,3.0,40.0,10.0,64.0
1290,75.0,4.0,30.0,5.0,64.0
1291,78.0,11.0,30.0,4.0,64.0
1292,80.0,15.0,40.0,8.0,64.0
1293,80.0,8.0,40.0,4.0,64.0
1294,77.0,3.0,40.0,5.0,64.0
1295,75.0,16.0,40.0,10.0,64.0
1296,78.0,7.0,40.0,8.0,64.0
1297,75.0,6.0,40.0,5.0,64.0
1298,78.0,19.0,40.0,4.0,64.0
1299,73.0,9.0,60.0,10.0,64.0
1300,68.0,5.0,60.0,11.0,64.0
1301,56.0,1.0,60.0,12.0,64.0
1302,73.0,1.0,60.0,5.0,64.0
1303,56.0,2.0,40.0,7.0,64.0
1304,68.0,2.0,40.0,6.0,64.0
1305,77.0,8.0,40.0,8.0,64.0
1306,77.0,18.0,40.0,4.0,64.0
1307,72.0,22.0,40.0,10.0,64.0
1308,75.0,1.0,60.0,8.0,64.0
1309,72.0,11.0,40.0,5.0,64.0
1310,75.0,45.0,60.0,4.0,64.0
1311,73.0,7.0,60.0,10.0,64.0
1312,68.0,5.0,60.0,11.0,64.0
1313,61.0,8.0,60.0,12.0,64.0
1314,61.0,1.0,40.0,7.0,64.0
1315,68.0,41.0,60.0,6.0,64.0
1316,73.0,1.0,60.0,5.0,64.0
1317,77.0,0.0,60.0,8.0,64.0
1318,77.0,3.0,40.0,4.0,64.0
1319,78.0,50.0,60.0,4.0,64.0
1320,78.0,2.0,40.0,8.0,64.0
1321,53.0,3.0,60.0,12.0,64.0
1322,53.0,0.0,60.0,7.0,64.0
1323,80.0,3.0,40.0,4.0,64.0
1324,68.0,3.0,60.0,11.0,64.0
1325,80.0,7.0,40.0,8.0,64.0
1326,73.0,8.0,60.0,10.0,64.0
1327,68.0,2.0,60.0,6.0,64.0
1328,73.0,21.0,60.0,5.0,64.0
1329,82.0,3.0,40.0,8.0,64.0
1330,82.0,63.0,40.0,4.0,64.0
1331,51.0,7.0,60.0,7.0,64.0
1332,51.0,2.0,60.0,12.0,64.0
1333,84.0,7.0,40.0,8.0,64.0
1334,68.0,86.0,60.0,11.0,64.0
1335,68.0,0.0,60.0,6.0,64.0
1336,84.0,1.0,40.0,4.0,64.0
1337,78.0,8.0,60.0,10.0,64.0
1338,78.0,2.0,60.0,5.0,64.0
1339,85.0,9.0,40.0,8.0,64.0
1340,49.0,4.0,60.0,7.0,64.0
1341,49.0,2.0,60.0,12.0,64.0
1342,68.0,4.0,60.0,6.0,64.0
1343,77.0,2.0,40.0,10.0,64.0
1344,68.0,77.0,60.0,11.0,64.0
1345,85.0,7.0,40.0,4.0,64.0
1346,77.0,1.0,60.0,5.0,64.0
1347,77.0,6.0,30.0,8.0,64.0
1348,54.0,0.0,60.0,7.0,64.0
1349,77.0,23.0,30.0,4.0,64.0
1350,70.0,22.0,60.0,10.0,64.0
1351,54.0,3.0,60.0,12.0,64.0
1352,66.0,1.0,60.0,11.0,64.0
1353,66.0,3.0,60.0,6.0,64.0
1354,70.0,0.0,60.0,5.0,64.0
1355,75.0,10.0,30.0,8.0,64.0
1356,75.0,6.0,40.0,4.0,64.0
1357,77.0,6.0,40.0,8.0,64.0
1358,77.0,18.0,40.0,4.0,64.0
1359,75.0,6.0,40.0,8.0,64.0
1360,75.0,45.0,40.0,4.0,64.0
1361,73.0,0.0,60.0,8.0,64.0
1362,68.0,9.0,60.0,10.0,64.0
1363,63.0,2.0,60.0,11.0,64.0
1364,73.0,2.0,60.0,4.0,64.0
1365,56.0,5.0,60.0,7.0,64.0
1366,78.0,0.0,60.0,6.0,64.0
1367,56.0,3.0,60.0,12.0,64.0
1368,68.0,20.0,60.0,5.0,64.0
1369,72.0,6.0,40.0,8.0,64.0
1370,72.0,76.0,40.0,4.0,64.0
1371,65.0,1.0,60.0,10.0,64.0
1372,73.0,2.0,60.0,8.0,64.0
1373,61.0,1.0,60.0,11.0,64.0
1374,73.0,3.0,60.0,4.0,64.0
1375,77.0,81.0,60.0,6.0,64.0
1376,58.0,1.0,60.0,7.0,64.0
1377,58.0,6.0,60.0,12.0,64.0
1378,73.0,5.0,60.0,5.0,64.0
1379,70.0,6.0,60.0,10.0,64.0
1380,66.0,2.0,60.0,11.0,64.0
1381,75.0,1.0,30.0,8.0,64.0
1382,75.0,12.0,40.0,4.0,64.0
1383,54.0,2.0,60.0,7.0,64.0
1384,78.0,2.0,60.0,6.0,64.0
1385,70.0,1.0,40.0,5.0,64.0
1386,54.0,105.0,60.0,12.0,64.0
1387,68.0,1.0,60.0,10.0,64.0
1388,68.0,7.0,40.0,8.0,64.0
1389,75.0,1.0,60.0,6.0,64.0
1390,56.0,2.0,60.0,12.0,64.0
1391,66.0,1.0,60.0,11.0,64.0
1392,56.0,0.0,40.0,7.0,64.0
1393,68.0,84.0,60.0,5.0,64.0
1394,68.0,2.0,60.0,4.0,64.0
1395,73.0,11.0,30.0,8.0,64.0
1396,68.0,3.0,60.0,10.0,64.0
1397,63.0,3.0,40.0,11.0,64.0
1398,73.0,5.0,30.0,4.0,64.0
1399,68.0,0.0,60.0,5.0,64.0
1400,44.0,13.0,60.0,7.0,64.0
1401,44.0,3.0,60.0,12.0,64.0
1402,80.0,3.0,40.0,6.0,64.0
1403,72.0,13.0,15.0,8.0,64.0
1404,72.0,1.0,30.0,4.0,64.0
1405,73.0,15.0,40.0,8.0,64.0
1406,73.0,8.0,30.0,4.0,64.0
1407,72.0,11.0,40.0,8.0,64.0
1408,72.0,263.0,30.0,4.0,64.0
1409,65.0,149.0,270.0,11.0,64.0
1410,73.0,0.0,240.0,4.0,64.0
1411,49.0,4.0,240.0,12.0,64.0
1412,68.0,4.0,240.0,10.0,64.0
1413,77.0,6.0,240.0,6.0,64.0
1414,49.0,3.0,240.0,7.0,64.0
1415,68.0,2.0,240.0,5.0,64.0
1416,73.0,9.0,240.0,8.0,64.0
1417,73.0,0.0,60.0,6.0,64.0
1418,80.0,5.0,40.0,4.0,64.0
1419,77.0,42.0,40.0,5.0,64.0
1420,75.0,13.0,40.0,5.0,64.0
1421,78.0,61.0,60.0,4.0,64.0
1422,80.0,4.0,60.0,4.0,64.0
1423,77.0,100.0,60.0,5.0,64.0
1424,73.0,0.0,60.0,6.0,64.0
1425,73.0,125.0,60.0,6.0,64.0
1426,82.0,10.0,40.0,4.0,64.0
1427,78.0,5.0,30.0,5.0,64.0
1428,82.0,12.0,60.0,4.0,64.0
1429,78.0,5.0,60.0,5.0,64.0
1430,73.0,23.0,60.0,6.0,64.0
1431,83.0,13.0,40.0,4.0,64.0
1432,80.0,58.0,40.0,5.0,64.0
1433,82.0,2.0,60.0,4.0,64.0
1434,78.0,14.0,60.0,5.0,64.0
1435,73.0,19.0,60.0,6.0,64.0
1436,77.0,10.0,40.0,5.0,64.0
1437,80.0,79.0,40.0,4.0,64.0
1438,78.0,2.0,60.0,5.0,64.0
1439,82.0,32.0,60.0,4.0,64.0
1440,73.0,7.0,60.0,6.0,64.0
1441,80.0,14.0,40.0,5.0,64.0
1442,83.0,39.0,60.0,4.0,64.0
1443,82.0,7.0,40.0,10.0,64.0
1444,82.0,3.0,40.0,5.0,64.0
1445,85.0,1.0,60.0,8.0,64.0
1446,54.0,1.0,60.0,7.0,64.0
1447,85.0,0.0,60.0,0.0,64.0
1448,73.0,3.0,60.0,6.0,64.0
1449,54.0,1.0,40.0,12.0,64.0
1450,82.0,3.0,40.0,1.0,64.0
1451,73.0,1.0,60.0,11.0,64.0
1452,85.0,3.0,40.0,4.0,64.0
1453,78.0,36.0,60.0,2.0,64.0
1454,54.0,3.0,30.0,3.0,64.0
1455,56.0,58.0,40.0,7.0,64.0
1456,56.0,1.0,40.0,12.0,64.0
1457,54.0,2.0,30.0,3.0,64.0
1458,58.0,5.0,40.0,12.0,64.0
1459,73.0,97.0,60.0,10.0,64.0
1460,58.0,0.0,60.0,7.0,64.0
1461,73.0,0.0,60.0,6.0,64.0
1462,78.0,2.0,60.0,8.0,64.0
1463,73.0,1.0,60.0,11.0,64.0
1464,54.0,3.0,40.0,3.0,64.0
1465,78.0,0.0,40.0,0.0,64.0
1466,73.0,3.0,40.0,5.0,64.0
1467,73.0,0.0,60.0,2.0,64.0
1468,78.0,3.0,40.0,1.0,64.0
1469,78.0,1.0,40.0,4.0,64.0
1470,61.0,6.0,40.0,12.0,64.0
1471,73.0,1.0,40.0,1.0,64.0
1472,80.0,3.0,40.0,8.0,64.0
1473,73.0,2.0,60.0,11.0,64.0
1474,61.0,5.0,30.0,7.0,64.0
1475,77.0,81.0,60.0,10.0,64.0
1476,80.0,0.0,40.0,4.0,64.0
1477,73.0,7.0,60.0,2.0,64.0
1478,80.0,0.0,40.0,0.0,64.0
1479,73.0,3.0,40.0,6.0,64.0
1480,77.0,1.0,40.0,5.0,64.0
1481,49.0,4.0,40.0,3.0,64.0
1482,70.0,1.0,30.0,2.0,64.0
1483,80.0,6.0,60.0,4.0,64.0
1484,80.0,0.0,60.0,0.0,64.0
1485,66.0,3.0,40.0,7.0,64.0
1486,73.0,1.0,40.0,1.0,64.0
1487,54.0,4.0,30.0,3.0,64.0
1488,77.0,3.0,60.0,5.0,64.0
1489,80.0,8.0,30.0,10.0,64.0
1490,73.0,2.0,40.0,11.0,64.0
1491,83.0,0.0,30.0,8.0,64.0
1492,66.0,13.0,60.0,12.0,64.0
1493,73.0,1.0,60.0,6.0,64.0
1494,85.0,12.0,15.0,8.0,64.0
1495,82.0,2.0,30.0,8.0,64.0
1496,78.0,2.0,30.0,10.0,64.0
1497,82.0,7.0,40.0,4.0,64.0
1498,82.0,0.0,30.0,0.0,64.0
1499,78.0,3.0,40.0,5.0,64.0
1500,80.0,3.0,30.0,10.0,64.0
1501,83.0,6.0,40.0,8.0,64.0
1502,66.0,15.0,40.0,2.0,64.0
1503,82.0,42.0,40.0,8.0,64.0
1504,78.0,8.0,30.0,10.0,64.0
1505,77.0,9.0,120.0,5.0,64.0
1506,80.0,1.0,120.0,4.0,64.0
1507,80.0,1.0,120.0,8.0,64.0
1508,61.0,13.0,40.0,7.0,64.0
1509,73.0,12.0,150.0,2.0,64.0
1510,73.0,60.0,60.0,6.0,64.0
1511,80.0,8.0,150.0,0.0,64.0
1512,73.0,4.0,150.0,1.0,64.0
1513,77.0,12.0,120.0,10.0,64.0
1514,73.0,11.0,150.0,11.0,64.0
1515,61.0,4.0,40.0,12.0,64.0
1516,49.0,0.0,40.0,3.0,64.0
1517,73.0,55.0,60.0,6.0,64.0
1518,49.0,40.0,120.0,7.0,64.0
1519,49.0,10.0,90.0,12.0,64.0
1520,73.0,36.0,60.0,6.0,64.0
1521,79.0,10.0,40.0,5.0,64.0
1522,82.0,3.0,40.0,4.0,64.0
1523,77.0,17.0,40.0,5.0,64.0
1524,80.0,60.0,40.0,4.0,64.0
1525,79.0,3.0,60.0,5.0,64.0
1526,73.0,95.0,60.0,6.0,64.0
1527,82.0,9.0,40.0,4.0,64.0
1528,71.0,126.0,60.0,6.0,64.0
1529,80.0,10.0,40.0,5.0,64.0
1530,83.0,13.0,40.0,4.0,64.0
1531,70.0,26.0,60.0,6.0,64.0
1532,83.0,3.0,60.0,4.0,64.0
1533,80.0,4.0,60.0,5.0,64.0
1534,82.0,2.0,40.0,5.0,64.0
1535,85.0,72.0,40.0,4.0,64.0
1536,75.0,1.0,60.0,6.0,64.0
1537,80.0,29.0,60.0,5.0,64.0
1538,83.0,3.0,40.0,4.0,64.0
1539,79.0,11.0,40.0,5.0,64.0
1540,82.0,73.0,40.0,4.0,64.0
1541,80.0,6.0,60.0,5.0,64.0
1542,75.0,31.0,60.0,6.0,64.0
1543,83.0,5.0,60.0,4.0,64.0
1544,82.0,8.0,40.0,5.0,64.0
1545,85.0,48.0,40.0,4.0,64.0
1546,83.0,3.0,40.0,5.0,64.0
1547,87.0,0.0,40.0,8.0,64.0
1548,83.0,9.0,40.0,10.0,64.0
1549,75.0,0.0,60.0,6.0,64.0
1550,87.0,13.0,40.0,4.0,64.0
1551,56.0,1.0,60.0,12.0,64.0
1552,75.0,2.0,40.0,11.0,64.0
1553,56.0,41.0,60.0,7.0,64.0
1554,58.0,2.0,60.0,12.0,64.0
1555,58.0,58.0,40.0,7.0,64.0
1556,59.0,2.0,60.0,12.0,64.0
1557,75.0,3.0,60.0,10.0,64.0
1558,80.0,4.0,40.0,8.0,64.0
1559,75.0,1.0,60.0,6.0,64.0
1560,75.0,3.0,40.0,5.0,64.0
1561,75.0,0.0,40.0,11.0,64.0
1562,80.0,2.0,40.0,4.0,64.0
1563,59.0,99.0,60.0,7.0,64.0
1564,82.0,7.0,40.0,4.0,64.0
1565,63.0,0.0,40.0,7.0,64.0
1566,82.0,1.0,60.0,8.0,64.0
1567,75.0,6.0,60.0,6.0,64.0
1568,79.0,2.0,40.0,10.0,64.0
1569,75.0,3.0,40.0,11.0,64.0
1570,79.0,3.0,40.0,5.0,64.0
1571,63.0,81.0,60.0,12.0,64.0
1572,82.0,8.0,30.0,10.0,64.0
1573,85.0,17.0,30.0,8.0,64.0
1574,75.0,4.0,40.0,6.0,64.0
1575,82.0,2.0,40.0,4.0,64.0
1576,68.0,2.0,60.0,7.0,64.0
1577,79.0,5.0,60.0,5.0,64.0
1578,68.0,0.0,60.0,12.0,64.0
1579,75.0,5.0,40.0,11.0,64.0
1580,80.0,1.0,30.0,10.0,64.0
1581,83.0,0.0,20.0,8.0,64.0
1582,83.0,1.0,40.0,4.0,64.0
1583,82.0,4.0,40.0,10.0,64.0
1584,85.0,1.0,30.0,8.0,64.0
1585,80.0,26.0,30.0,5.0,64.0
1586,87.0,13.0,15.0,8.0,64.0
1587,83.0,4.0,40.0,8.0,64.0
1588,80.0,50.0,40.0,10.0,64.0
1589,79.0,0.0,150.0,10.0,64.0
1590,82.0,9.0,150.0,8.0,64.0
1591,79.0,9.0,120.0,5.0,64.0
1592,82.0,11.0,150.0,4.0,64.0
1593,63.0,65.0,60.0,12.0,64.0
1594,63.0,12.0,40.0,7.0,64.0
1595,75.0,39.0,150.0,6.0,64.0
1596,75.0,8.0,150.0,11.0,64.0
1597,51.0,13.0,60.0,12.0,64.0
1598,51.0,75.0,90.0,7.0,64.0
1599,56.0,3.0,60.0,12.0,64.0
1600,80.0,3.0,40.0,5.0,64.0
1601,80.0,2.0,40.0,10.0,64.0
1602,75.0,2.0,60.0,11.0,64.0
1603,83.0,1.0,60.0,8.0,64.0
1604,75.0,40.0,60.0,6.0,64.0
1605,56.0,1.0,40.0,7.0,64.0
1606,83.0,3.0,40.0,4.0,64.0
1607,82.0,5.0,60.0,8.0,64.0
1608,55.0,4.0,40.0,12.0,64.0
1609,55.0,0.0,60.0,7.0,64.0
1610,82.0,50.0,40.0,4.0,64.0
1611,56.0,2.0,40.0,12.0,64.0
1612,83.0,2.0,60.0,8.0,64.0
1613,75.0,1.0,60.0,11.0,64.0
1614,56.0,11.0,40.0,7.0,64.0
1615,80.0,5.0,60.0,5.0,64.0
1616,80.0,0.0,40.0,10.0,64.0
1617,75.0,97.0,60.0,6.0,64.0
1618,83.0,3.0,40.0,4.0,64.0
1619,76.0,3.0,40.0,11.0,64.0
1620,82.0,9.0,40.0,5.0,64.0
1621,85.0,0.0,40.0,8.0,64.0
1622,82.0,0.0,60.0,10.0,64.0
1623,76.0,15.0,60.0,6.0,64.0
1624,49.0,2.0,60.0,7.0,64.0
1625,49.0,68.0,60.0,12.0,64.0
1626,85.0,2.0,40.0,4.0,64.0
1627,83.0,20.0,30.0,8.0,64.0
1628,70.0,1.0,60.0,11.0,64.0
1629,79.0,4.0,40.0,10.0,64.0
1630,51.0,3.0,40.0,12.0,64.0
1631,70.0,5.0,60.0,6.0,64.0
1632,79.0,2.0,40.0,5.0,64.0
1633,51.0,2.0,40.0,7.0,64.0
1634,83.0,5.0,30.0,4.0,64.0
1635,82.0,2.0,30.0,8.0,64.0
1636,82.0,18.0,30.0,4.0,64.0
1637,83.0,20.0,40.0,8.0,64.0
1638,83.0,12.0,40.0,4.0,64.0
1639,82.0,20.0,40.0,8.0,64.0
1640,82.0,26.0,40.0,4.0,64.0
1641,80.0,4.0,60.0,8.0,64.0
1642,75.0,3.0,40.0,5.0,64.0
1643,75.0,2.0,40.0,10.0,64.0
1644,73.0,0.0,60.0,11.0,64.0
1645,46.0,7.0,40.0,12.0,64.0
1646,73.0,35.0,60.0,6.0,64.0
1647,46.0,8.0,60.0,7.0,64.0
1648,80.0,1.0,40.0,4.0,64.0
1649,79.0,12.0,40.0,8.0,64.0
1650,79.0,54.0,40.0,4.0,64.0
1651,80.0,5.0,60.0,8.0,64.0
1652,71.0,0.0,60.0,11.0,64.0
1653,80.0,11.0,60.0,4.0,64.0
1654,75.0,3.0,60.0,5.0,64.0
1655,75.0,9.0,60.0,10.0,64.0
1656,71.0,8.0,60.0,6.0,64.0
1657,47.0,2.0,60.0,12.0,64.0
1658,47.0,4.0,60.0,7.0,64.0
1659,82.0,3.0,40.0,8.0,64.0
1660,82.0,68.0,40.0,4.0,64.0
1661,83.0,1.0,60.0,8.0,64.0
1662,83.0,0.0,60.0,4.0,64.0
1663,75.0,10.0,60.0,11.0,64.0
1664,80.0,2.0,40.0,5.0,64.0
1665,80.0,3.0,40.0,10.0,64.0
1666,44.0,3.0,60.0,12.0,64.0
1667,75.0,5.0,60.0,6.0,64.0
1668,44.0,27.0,60.0,7.0,64.0
1669,85.0,4.0,40.0,8.0,64.0
1670,85.0,56.0,40.0,4.0,64.0
1671,79.0,2.0,40.0,5.0,64.0
1672,46.0,0.0,40.0,12.0,64.0
1673,79.0,1.0,40.0,10.0,64.0
1674,46.0,1.0,40.0,7.0,64.0
1675,47.0,3.0,60.0,12.0,64.0
1676,75.0,2.0,40.0,11.0,64.0
1677,80.0,2.0,40.0,5.0,64.0
1678,87.0,2.0,40.0,8.0,64.0
1679,80.0,1.0,40.0,10.0,64.0
1680,47.0,92.0,60.0,7.0,64.0
1681,87.0,12.0,40.0,4.0,64.0
1682,75.0,4.0,60.0,6.0,64.0
1683,85.0,0.0,40.0,10.0,64.0
1684,88.0,0.0,40.0,8.0,64.0
1685,85.0,4.0,40.0,5.0,64.0
1686,68.0,7.0,40.0,11.0,64.0
1687,68.0,1.0,40.0,6.0,64.0
1688,49.0,2.0,40.0,12.0,64.0
1689,88.0,85.0,60.0,4.0,64.0
1690,49.0,4.0,30.0,7.0,64.0
1691,80.0,6.0,30.0,5.0,64.0
1692,87.0,4.0,30.0,8.0,64.0
1693,75.0,0.0,40.0,6.0,64.0
1694,87.0,3.0,30.0,4.0,64.0
1695,51.0,1.0,60.0,12.0,64.0
1696,51.0,1.0,60.0,7.0,64.0
1697,75.0,9.0,40.0,11.0,64.0
1698,79.0,6.0,40.0,10.0,64.0
1699,79.0,10.0,15.0,5.0,64.0
1700,85.0,1.0,30.0,8.0,64.0
1701,85.0,4.0,30.0,4.0,64.0
1702,80.0,7.0,40.0,5.0,64.0
1703,87.0,7.0,40.0,8.0,64.0
1704,87.0,6.0,40.0,4.0,64.0
1705,88.0,15.0,15.0,8.0,64.0
1706,79.0,18.0,40.0,5.0,64.0
1707,85.0,10.0,40.0,8.0,64.0
1708,85.0,52.0,40.0,4.0,64.0
1709,83.0,15.0,120.0,8.0,64.0
1710,75.0,21.0,150.0,6.0,64.0
1711,80.0,2.0,120.0,5.0,64.0
1712,56.0,34.0,60.0,12.0,64.0
1713,75.0,4.0,150.0,11.0,64.0
1714,80.0,5.0,120.0,10.0,64.0
1715,56.0,0.0,60.0,7.0,64.0
1716,83.0,5.0,150.0,4.0,64.0
1717,55.0,2.0,40.0,12.0,64.0
1718,55.0,25.0,40.0,7.0,64.0
1719,56.0,105.0,60.0,12.0,64.0
1720,56.0,7.0,60.0,7.0,64.0
1721,77.0,0.0,60.0,11.0,64.0
1722,74.0,9.0,60.0,5.0,64.0
1723,82.0,5.0,40.0,8.0,64.0
1724,53.0,2.0,60.0,12.0,64.0
1725,77.0,0.0,60.0,6.0,64.0
1726,53.0,0.0,60.0,7.0,64.0
1727,74.0,4.0,60.0,10.0,64.0
1728,82.0,39.0,40.0,4.0,64.0
1729,80.0,6.0,40.0,8.0,64.0
1730,80.0,56.0,40.0,4.0,64.0
1731,70.0,9.0,60.0,11.0,64.0
1732,75.0,1.0,60.0,5.0,64.0
1733,54.0,3.0,60.0,12.0,64.0
1734,70.0,1.0,60.0,6.0,64.0
1735,82.0,1.0,40.0,8.0,64.0
1736,75.0,3.0,60.0,10.0,64.0
1737,54.0,98.0,60.0,7.0,64.0
1738,82.0,1.0,40.0,4.0,64.0
1739,75.0,4.0,60.0,11.0,64.0
1740,78.0,12.0,40.0,5.0,64.0
1741,75.0,4.0,60.0,6.0,64.0
1742,83.0,2.0,60.0,8.0,64.0
1743,51.0,7.0,60.0,12.0,64.0
1744,51.0,1.0,60.0,7.0,64.0
1745,78.0,0.0,40.0,10.0,64.0
1746,83.0,72.0,60.0,4.0,64.0
1747,77.0,3.0,60.0,5.0,64.0
1748,74.0,3.0,60.0,6.0,64.0
1749,74.0,6.0,60.0,11.0,64.0
1750,82.0,21.0,20.0,8.0,64.0
1751,53.0,2.0,60.0,7.0,64.0
1752,53.0,7.0,60.0,12.0,64.0
1753,77.0,1.0,60.0,10.0,64.0
1754,82.0,4.0,30.0,4.0,64.0
1755,80.0,5.0,30.0,8.0,64.0
1756,80.0,20.0,30.0,4.0,64.0
1757,82.0,22.0,40.0,8.0,64.0
1758,82.0,5.0,40.0,4.0,64.0
1759,80.0,22.0,40.0,8.0,64.0
1760,80.0,19.0,40.0,4.0,64.0
1761,78.0,8.0,60.0,8.0,64.0
1762,50.0,6.0,60.0,12.0,64.0
1763,70.0,3.0,60.0,10.0,64.0
1764,70.0,1.0,60.0,5.0,64.0
1765,50.0,4.0,40.0,7.0,64.0
1766,77.0,1.0,60.0,11.0,64.0
1767,77.0,11.0,60.0,6.0,64.0
1768,78.0,21.0,60.0,4.0,64.0
1769,77.0,22.0,40.0,8.0,64.0
1770,77.0,46.0,40.0,4.0,64.0
1771,78.0,1.0,60.0,8.0,64.0
1772,51.0,4.0,60.0,12.0,64.0
1773,70.0,23.0,60.0,6.0,64.0
1774,51.0,7.0,60.0,7.0,64.0
1775,75.0,1.0,60.0,10.0,64.0
1776,70.0,1.0,60.0,11.0,64.0
1777,75.0,4.0,40.0,5.0,64.0
1778,78.0,4.0,60.0,4.0,64.0
1779,80.0,18.0,40.0,8.0,64.0
1780,80.0,52.0,40.0,4.0,64.0
1781,82.0,10.0,40.0,8.0,64.0
1782,54.0,1.0,60.0,12.0,64.0
1783,75.0,2.0,60.0,5.0,64.0
1784,54.0,4.0,60.0,7.0,64.0
1785,75.0,0.0,60.0,10.0,64.0
1786,70.0,14.0,60.0,6.0,64.0
1787,70.0,7.0,60.0,11.0,64.0
1788,82.0,2.0,40.0,4.0,64.0
1789,84.0,10.0,30.0,8.0,64.0
1790,84.0,65.0,30.0,4.0,64.0
1791,86.0,8.0,40.0,8.0,64.0
1792,70.0,3.0,60.0,11.0,64.0
1793,53.0,0.0,40.0,12.0,64.0
1794,70.0,97.0,60.0,6.0,64.0
1795,80.0,6.0,40.0,10.0,64.0
1796,80.0,1.0,40.0,5.0,64.0
1797,53.0,3.0,40.0,7.0,64.0
1798,86.0,1.0,40.0,4.0,64.0
1799,87.0,1.0,40.0,8.0,64.0
1800,78.0,8.0,40.0,5.0,64.0
1801,70.0,4.0,60.0,11.0,64.0
1802,78.0,6.0,40.0,10.0,64.0
1803,51.0,82.0,60.0,12.0,64.0
1804,51.0,3.0,40.0,7.0,64.0
1805,70.0,0.0,60.0,6.0,64.0
1806,87.0,2.0,40.0,4.0,64.0
1807,71.0,0.0,60.0,11.0,64.0
1808,78.0,13.0,40.0,5.0,64.0
1809,78.0,6.0,30.0,8.0,64.0
1810,78.0,3.0,30.0,10.0,64.0
1811,71.0,3.0,60.0,6.0,64.0
1812,56.0,4.0,60.0,12.0,64.0
1813,56.0,2.0,40.0,7.0,64.0
1814,78.0,4.0,30.0,4.0,64.0
1815,77.0,4.0,30.0,8.0,64.0
1816,77.0,5.0,40.0,10.0,64.0
1817,77.0,1.0,30.0,5.0,64.0
1818,77.0,19.0,30.0,4.0,64.0
1819,78.0,0.0,40.0,8.0,64.0
1820,78.0,2.0,40.0,5.0,64.0
1821,78.0,25.0,40.0,10.0,64.0
1822,78.0,3.0,40.0,4.0,64.0
1823,77.0,0.0,40.0,5.0,64.0
1824,77.0,23.0,40.0,8.0,64.0
1825,77.0,1.0,40.0,10.0,64.0
1826,77.0,20.0,40.0,4.0,64.0
1827,75.0,3.0,60.0,8.0,64.0
1828,70.0,1.0,60.0,11.0,64.0
1829,70.0,7.0,60.0,6.0,64.0
1830,78.0,0.0,40.0,10.0,64.0
1831,78.0,3.0,40.0,5.0,64.0
1832,58.0,3.0,40.0,7.0,64.0
1833,58.0,6.0,40.0,12.0,64.0
1834,75.0,18.0,40.0,4.0,64.0
1835,80.0,6.0,40.0,5.0,64.0
1836,74.0,19.0,40.0,8.0,64.0
1837,80.0,10.0,40.0,10.0,64.0
1838,74.0,57.0,40.0,4.0,64.0
1839,78.0,9.0,60.0,5.0,64.0
1840,75.0,2.0,60.0,6.0,64.0
1841,75.0,0.0,60.0,8.0,64.0
1842,78.0,4.0,60.0,10.0,64.0
1843,63.0,1.0,60.0,11.0,64.0
1844,59.0,2.0,90.0,12.0,64.0
1845,59.0,8.0,90.0,7.0,64.0
1846,75.0,16.0,60.0,4.0,64.0
1847,77.0,14.0,40.0,8.0,64.0
1848,77.0,45.0,40.0,4.0,64.0
1849,75.0,1.0,60.0,10.0,64.0
1850,78.0,6.0,60.0,8.0,64.0
1851,71.0,5.0,60.0,11.0,64.0
1852,58.0,11.0,40.0,12.0,64.0
1853,71.0,3.0,60.0,6.0,64.0
1854,78.0,8.0,60.0,4.0,64.0
1855,58.0,1.0,40.0,7.0,64.0
1856,75.0,18.0,60.0,5.0,64.0
1857,56.0,6.0,40.0,12.0,64.0
1858,80.0,7.0,40.0,8.0,64.0
1859,56.0,5.0,40.0,7.0,64.0
1860,80.0,50.0,40.0,4.0,64.0
1861,75.0,0.0,40.0,10.0,64.0
1862,82.0,14.0,40.0,8.0,64.0
1863,54.0,1.0,60.0,12.0,64.0
1864,70.0,1.0,60.0,11.0,64.0
1865,70.0,1.0,60.0,6.0,64.0
1866,75.0,3.0,60.0,5.0,64.0
1867,54.0,95.0,60.0,7.0,64.0
1868,82.0,5.0,40.0,4.0,64.0
1869,80.0,2.0,40.0,10.0,64.0
1870,83.0,8.0,40.0,8.0,64.0
1871,63.0,2.0,40.0,11.0,64.0
1872,75.0,2.0,40.0,6.0,64.0
1873,56.0,100.0,40.0,12.0,64.0
1874,80.0,1.0,40.0,5.0,64.0
1875,56.0,2.0,40.0,7.0,64.0
1876,83.0,0.0,40.0,4.0,64.0
1877,75.0,5.0,30.0,8.0,64.0
1878,75.0,14.0,30.0,4.0,64.0
1879,70.0,2.0,240.0,11.0,64.0
1880,77.0,0.0,240.0,10.0,64.0
1881,70.0,51.0,240.0,6.0,64.0
1882,58.0,5.0,240.0,7.0,64.0
1883,58.0,5.0,240.0,12.0,64.0
1884,77.0,10.0,210.0,5.0,64.0
1885,74.0,9.0,20.0,8.0,64.0
1886,74.0,32.0,20.0,4.0,64.0
1887,75.0,5.0,40.0,8.0,64.0
1888,75.0,37.0,40.0,4.0,64.0
1889,74.0,24.0,60.0,8.0,64.0
1890,74.0,2.0,60.0,4.0,64.0
1891,72.0,7.0,40.0,4.0,64.0
1892,72.0,66.0,40.0,8.0,64.0
1893,70.0,3.0,60.0,4.0,64.0
1894,70.0,6.0,40.0,8.0,64.0
1895,80.0,103.0,60.0,8.0,64.0
1896,80.0,1.0,60.0,4.0,64.0
1897,70.0,0.0,60.0,6.0,64.0
1898,77.0,1.0,60.0,5.0,64.0
1899,51.0,1.0,60.0,12.0,64.0
1900,70.0,0.0,60.0,11.0,64.0
1901,77.0,3.0,60.0,10.0,64.0
1902,51.0,48.0,60.0,7.0,64.0
1903,50.0,57.0,60.0,12.0,64.0
1904,50.0,4.0,40.0,7.0,64.0
1905,51.0,0.0,60.0,12.0,64.0
1906,70.0,3.0,60.0,6.0,64.0
1907,51.0,3.0,60.0,7.0,64.0
1908,78.0,3.0,60.0,5.0,64.0
1909,70.0,2.0,60.0,11.0,64.0
1910,78.0,23.0,60.0,10.0,64.0
1911,78.0,10.0,60.0,8.0,64.0
1912,78.0,68.0,90.0,4.0,64.0
1913,70.0,3.0,40.0,6.0,64.0
1914,53.0,7.0,40.0,7.0,64.0
1915,70.0,98.0,60.0,11.0,64.0
1916,80.0,2.0,40.0,10.0,64.0
1917,80.0,2.0,40.0,5.0,64.0
1918,53.0,3.0,40.0,12.0,64.0
1919,51.0,29.0,90.0,12.0,64.0
1920,51.0,19.0,30.0,7.0,64.0
1921,70.0,13.0,240.0,6.0,64.0
1922,77.0,10.0,240.0,5.0,64.0
1923,77.0,3.0,240.0,10.0,64.0
1924,70.0,3.0,240.0,11.0,64.0
1925,50.0,34.0,30.0,12.0,64.0
1926,50.0,3.0,20.0,7.0,64.0
1927,51.0,2.0,40.0,7.0,64.0
1928,50.0,9.0,40.0,7.0,64.0
1929,50.0,17.0,40.0,12.0,64.0
1930,48.0,9.0,40.0,7.0,64.0
1931,48.0,10.0,40.0,12.0,64.0
1932,80.0,7.0,40.0,8.0,64.0
1933,80.0,50.0,40.0,4.0,64.0
1934,46.0,13.0,40.0,7.0,64.0
1935,46.0,2.0,40.0,12.0,64.0
1936,58.0,10.0,60.0,12.0,64.0
1937,78.0,3.0,30.0,4.0,64.0
1938,78.0,22.0,30.0,8.0,64.0
1939,58.0,7.0,60.0,7.0,64.0
1940,77.0,10.0,40.0,8.0,64.0
1941,77.0,7.0,20.0,4.0,64.0
1942,78.0,22.0,40.0,8.0,64.0
1943,78.0,5.0,40.0,4.0,64.0
1944,77.0,8.0,40.0,4.0,64.0
1945,77.0,39.0,40.0,8.0,64.0
1946,75.0,3.0,60.0,4.0,64.0
1947,77.0,2.0,40.0,10.0,64.0
1948,75.0,11.0,60.0,8.0,64.0
1949,70.0,0.0,40.0,11.0,64.0
1950,77.0,2.0,40.0,5.0,64.0
1951,70.0,33.0,60.0,6.0,64.0
1952,74.0,1.0,40.0,4.0,64.0
1953,74.0,44.0,40.0,8.0,64.0
1954,78.0,24.0,30.0,10.0,64.0
1955,83.0,2.0,60.0,8.0,64.0
1956,74.0,0.0,40.0,6.0,64.0
1957,77.0,17.0,90.0,5.0,64.0
1958,83.0,6.0,60.0,4.0,64.0
1959,56.0,4.0,90.0,12.0,64.0
1960,74.0,22.0,40.0,11.0,64.0
1961,56.0,3.0,90.0,7.0,64.0
1962,77.0,6.0,30.0,10.0,64.0
1963,78.0,5.0,40.0,10.0,64.0
1964,77.0,44.0,40.0,10.0,64.0
1965,75.0,10.0,60.0,10.0,64.0
1966,75.0,10.0,60.0,5.0,64.0
1967,77.0,33.0,60.0,6.0,64.0
1968,77.0,0.0,60.0,11.0,64.0
1969,74.0,115.0,40.0,10.0,64.0
1970,74.0,0.0,40.0,5.0,64.0
1971,75.0,1.0,90.0,10.0,64.0
1972,78.0,74.0,90.0,6.0,64.0
1973,75.0,2.0,90.0,5.0,64.0
1974,82.0,6.0,90.0,8.0,64.0
1975,66.0,6.0,90.0,11.0,64.0
1976,82.0,2.0,90.0,4.0,64.0
1977,54.0,2.0,60.0,12.0,64.0
1978,54.0,42.0,40.0,7.0,64.0
1979,53.0,72.0,40.0,12.0,64.0
1980,53.0,0.0,40.0,7.0,64.0
1981,54.0,8.0,60.0,7.0,64.0
1982,54.0,112.0,60.0,12.0,64.0
1983,75.0,3.0,60.0,10.0,64.0
1984,68.0,0.0,60.0,11.0,64.0
1985,56.0,4.0,40.0,7.0,64.0
1986,83.0,1.0,60.0,8.0,64.0
1987,56.0,0.0,60.0,12.0,64.0
1988,75.0,4.0,40.0,5.0,64.0
1989,68.0,2.0,60.0,6.0,64.0
1990,83.0,80.0,40.0,4.0,64.0
1991,82.0,7.0,30.0,8.0,64.0
1992,74.0,2.0,40.0,10.0,64.0
1993,82.0,0.0,30.0,4.0,64.0
1994,74.0,7.0,40.0,5.0,64.0
1995,54.0,6.0,30.0,12.0,64.0
1996,68.0,10.0,60.0,11.0,64.0
1997,54.0,9.0,30.0,7.0,64.0
1998,68.0,24.0,60.0,6.0,64.0
1999,80.0,1.0,40.0,8.0,64.0
2000,80.0,1.0,40.0,4.0,64.0
2001,53.0,1.0,30.0,12.0,64.0
2002,53.0,0.0,30.0,7.0,64.0
2003,82.0,20.0,40.0,8.0,64.0
2004,82.0,2.0,40.0,4.0,64.0
2005,54.0,3.0,40.0,12.0,64.0
2006,54.0,0.0,40.0,7.0,64.0
2007,80.0,1.0,40.0,8.0,64.0
2008,80.0,29.0,40.0,4.0,64.0
2009,53.0,2.0,40.0,12.0,64.0
2010,53.0,3.0,40.0,7.0,64.0
2011,75.0,6.0,40.0,10.0,64.0
2012,75.0,8.0,40.0,5.0,64.0
2013,51.0,4.0,40.0,12.0,64.0
2014,78.0,17.0,60.0,4.0,64.0
2015,78.0,1.0,60.0,8.0,64.0
2016,70.0,8.0,40.0,11.0,64.0
2017,51.0,0.0,60.0,7.0,64.0
2018,70.0,1.0,40.0,6.0,64.0
2019,50.0,11.0,40.0,12.0,64.0
2020,50.0,97.0,40.0,7.0,64.0
2021,77.0,3.0,40.0,8.0,64.0
2022,77.0,0.0,30.0,4.0,64.0
2023,87.0,9.0,60.0,8.0,64.0
2024,77.0,10.0,330.0,5.0,64.0
2025,57.0,4.0,90.0,12.0,64.0
2026,77.0,2.0,300.0,10.0,64.0
2027,72.0,12.0,90.0,6.0,64.0
2028,72.0,2.0,90.0,11.0,64.0
2029,57.0,6.0,60.0,7.0,64.0
2030,87.0,195.0,90.0,4.0,64.0
2031,86.0,13.0,90.0,8.0,64.0
2032,70.0,4.0,60.0,11.0,64.0
2033,70.0,19.0,60.0,6.0,64.0
2034,58.0,1.0,60.0,12.0,64.0
2035,58.0,11.0,60.0,7.0,64.0
2036,86.0,48.0,90.0,4.0,64.0
2037,74.0,0.0,60.0,11.0,64.0
2038,87.0,17.0,40.0,8.0,64.0
2039,46.0,2.0,60.0,7.0,64.0
2040,46.0,6.0,60.0,12.0,64.0
2041,74.0,20.0,60.0,6.0,64.0
2042,80.0,2.0,60.0,10.0,64.0
2043,80.0,0.0,60.0,5.0,64.0
2044,87.0,1.0,40.0,4.0,64.0
2045,89.0,8.0,40.0,8.0,64.0
2046,89.0,69.0,30.0,4.0,64.0
2047,75.0,0.0,60.0,6.0,64.0
2048,48.0,3.0,60.0,12.0,64.0
2049,78.0,3.0,60.0,10.0,64.0
2050,48.0,1.0,60.0,7.0,64.0
2051,82.0,11.0,40.0,8.0,64.0
2052,75.0,100.0,60.0,11.0,64.0
2053,78.0,0.0,40.0,5.0,64.0
2054,82.0,1.0,40.0,4.0,64.0
2055,50.0,5.0,60.0,12.0,64.0
2056,80.0,1.0,60.0,8.0,64.0
2057,50.0,6.0,40.0,7.0,64.0
2058,77.0,0.0,40.0,11.0,64.0
2059,77.0,2.0,60.0,6.0,64.0
2060,77.0,1.0,40.0,10.0,64.0
2061,77.0,7.0,40.0,5.0,64.0
2062,80.0,89.0,60.0,4.0,64.0
2063,75.0,15.0,40.0,10.0,64.0
2064,51.0,0.0,60.0,12.0,64.0
2065,70.0,3.0,60.0,6.0,64.0
2066,51.0,20.0,60.0,7.0,64.0
2067,80.0,3.0,30.0,8.0,64.0
2068,70.0,1.0,60.0,11.0,64.0
2069,75.0,0.0,60.0,5.0,64.0
2070,80.0,13.0,30.0,4.0,64.0
2071,78.0,0.0,30.0,4.0,64.0
2072,78.0,3.0,30.0,8.0,64.0
2073,80.0,3.0,30.0,8.0,64.0
2074,80.0,29.0,40.0,4.0,64.0
2075,78.0,4.0,40.0,8.0,64.0
2076,78.0,30.0,40.0,4.0,64.0
2077,70.0,4.0,60.0,10.0,64.0
2078,70.0,2.0,60.0,5.0,64.0
2079,77.0,2.0,40.0,8.0,64.0
2080,77.0,18.0,40.0,4.0,64.0
2081,54.0,5.0,60.0,12.0,64.0
2082,54.0,31.0,60.0,7.0,64.0
2083,70.0,0.0,60.0,6.0,64.0
2084,70.0,1.0,60.0,11.0,64.0
2085,75.0,56.0,40.0,8.0,64.0
2086,75.0,1.0,40.0,4.0,64.0
2087,77.0,1.0,40.0,8.0,64.0
2088,71.0,6.0,40.0,10.0,64.0
2089,71.0,3.0,40.0,5.0,64.0
2090,56.0,93.0,60.0,12.0,64.0
2091,68.0,2.0,60.0,11.0,64.0
2092,77.0,13.0,40.0,4.0,64.0
2093,56.0,2.0,60.0,7.0,64.0
2094,68.0,8.0,60.0,6.0,64.0
2095,70.0,4.0,60.0,10.0,64.0
2096,70.0,2.0,60.0,5.0,64.0
2097,87.0,4.0,40.0,8.0,64.0
2098,58.0,0.0,60.0,12.0,64.0
2099,58.0,5.0,60.0,7.0,64.0
2100,68.0,34.0,60.0,11.0,64.0
2101,68.0,1.0,60.0,6.0,64.0
2102,87.0,1.0,40.0,4.0,64.0
2103,86.0,6.0,40.0,8.0,64.0
2104,86.0,62.0,40.0,4.0,64.0
2105,66.0,2.0,60.0,11.0,64.0
2106,75.0,5.0,40.0,5.0,64.0
2107,87.0,6.0,40.0,8.0,64.0
2108,59.0,4.0,60.0,7.0,64.0
2109,75.0,0.0,40.0,10.0,64.0
2110,59.0,6.0,60.0,12.0,64.0
2111,66.0,97.0,60.0,6.0,64.0
2112,87.0,2.0,40.0,4.0,64.0
2113,71.0,0.0,60.0,11.0,64.0
2114,80.0,3.0,40.0,10.0,64.0
2115,71.0,1.0,60.0,6.0,64.0
2116,89.0,2.0,60.0,8.0,64.0
2117,80.0,0.0,60.0,5.0,64.0
2118,56.0,1.0,60.0,7.0,64.0
2119,56.0,7.0,40.0,12.0,64.0
2120,89.0,89.0,40.0,4.0,64.0
2121,62.0,0.0,60.0,12.0,64.0
2122,70.0,16.0,60.0,6.0,64.0
2123,78.0,5.0,30.0,10.0,64.0
2124,70.0,2.0,60.0,11.0,64.0
2125,82.0,7.0,30.0,8.0,64.0
2126,62.0,2.0,60.0,7.0,64.0
2127,78.0,12.0,40.0,5.0,64.0
2128,82.0,4.0,30.0,4.0,64.0
2129,77.0,3.0,30.0,10.0,64.0
2130,80.0,2.0,30.0,8.0,64.0
2131,80.0,10.0,30.0,4.0,64.0
2132,77.0,0.0,20.0,5.0,64.0
2133,78.0,17.0,40.0,10.0,64.0
2134,82.0,1.0,40.0,8.0,64.0
2135,82.0,2.0,40.0,4.0,64.0
2136,78.0,6.0,40.0,5.0,64.0
2137,77.0,12.0,40.0,10.0,64.0
2138,77.0,26.0,60.0,5.0,64.0
2139,80.0,7.0,40.0,8.0,64.0
2140,80.0,1.0,40.0,4.0,64.0
2141,75.0,12.0,60.0,10.0,64.0
2142,78.0,2.0,60.0,4.0,64.0
2143,75.0,2.0,60.0,5.0,64.0
2144,70.0,27.0,60.0,6.0,64.0
2145,78.0,3.0,60.0,8.0,64.0
2146,58.0,0.0,60.0,12.0,64.0
2147,70.0,7.0,60.0,11.0,64.0
2148,58.0,2.0,60.0,7.0,64.0
2149,74.0,3.0,40.0,10.0,64.0
2150,77.0,2.0,40.0,4.0,64.0
2151,77.0,3.0,40.0,8.0,64.0
2152,74.0,66.0,40.0,5.0,64.0
2153,75.0,1.0,60.0,10.0,64.0
2154,78.0,4.0,60.0,8.0,64.0
2155,78.0,0.0,60.0,4.0,64.0
2156,75.0,3.0,60.0,5.0,64.0
2157,63.0,4.0,60.0,12.0,64.0
2158,70.0,1.0,60.0,11.0,64.0
2159,70.0,33.0,60.0,6.0,64.0
2160,63.0,2.0,60.0,7.0,64.0
2161,80.0,1.0,40.0,8.0,64.0
2162,80.0,63.0,40.0,4.0,64.0
2163,54.0,7.0,60.0,12.0,64.0
2164,70.0,1.0,60.0,11.0,64.0
2165,75.0,3.0,60.0,10.0,64.0
2166,82.0,2.0,60.0,8.0,64.0
2167,82.0,8.0,40.0,4.0,64.0
2168,70.0,15.0,60.0,6.0,64.0
2169,54.0,3.0,60.0,7.0,64.0
2170,75.0,3.0,60.0,5.0,64.0
2171,84.0,3.0,30.0,4.0,64.0
2172,84.0,74.0,30.0,8.0,64.0
2173,53.0,0.0,60.0,12.0,64.0
2174,86.0,3.0,40.0,8.0,64.0
2175,77.0,0.0,60.0,11.0,64.0
2176,86.0,6.0,40.0,4.0,64.0
2177,80.0,4.0,60.0,10.0,64.0
2178,80.0,3.0,60.0,5.0,64.0
2179,53.0,2.0,60.0,7.0,64.0
2180,77.0,100.0,60.0,6.0,64.0
2181,70.0,3.0,60.0,6.0,64.0
2182,51.0,2.0,60.0,12.0,64.0
2183,70.0,1.0,40.0,11.0,64.0
2184,51.0,90.0,60.0,7.0,64.0
2185,87.0,2.0,40.0,8.0,64.0
2186,78.0,3.0,40.0,10.0,64.0
2187,78.0,2.0,40.0,5.0,64.0
2188,87.0,1.0,40.0,4.0,64.0
2189,56.0,0.0,60.0,12.0,64.0
2190,68.0,1.0,60.0,6.0,64.0
2191,73.0,7.0,20.0,10.0,64.0
2192,56.0,0.0,60.0,7.0,64.0
2193,78.0,5.0,30.0,8.0,64.0
2194,70.0,2.0,30.0,11.0,64.0
2195,78.0,13.0,40.0,4.0,64.0
2196,73.0,6.0,30.0,5.0,64.0
2197,77.0,2.0,40.0,8.0,64.0
2198,71.0,3.0,30.0,10.0,64.0
2199,71.0,1.0,30.0,5.0,64.0
2200,68.0,6.0,30.0,11.0,64.0
2201,77.0,10.0,30.0,4.0,64.0
2202,73.0,2.0,40.0,10.0,64.0
2203,73.0,16.0,30.0,5.0,64.0
2204,78.0,3.0,40.0,8.0,64.0
2205,70.0,0.0,40.0,11.0,64.0
2206,78.0,10.0,40.0,4.0,64.0
2207,71.0,6.0,15.0,11.0,64.0
2208,71.0,12.0,40.0,10.0,64.0
2209,71.0,0.0,30.0,5.0,64.0
2210,68.0,16.0,40.0,11.0,64.0
2211,77.0,2.0,40.0,8.0,64.0
2212,77.0,4.0,30.0,4.0,64.0
2213,70.0,3.0,40.0,5.0,64.0
2214,75.0,7.0,60.0,4.0,64.0
2215,58.0,1.0,60.0,12.0,64.0
2216,75.0,2.0,40.0,8.0,64.0
2217,70.0,16.0,30.0,10.0,64.0
2218,66.0,11.0,60.0,11.0,64.0
2219,66.0,12.0,60.0,6.0,64.0
2220,58.0,2.0,60.0,7.0,64.0
2221,68.0,4.0,30.0,5.0,64.0
2222,74.0,11.0,40.0,4.0,64.0
2223,68.0,13.0,40.0,10.0,64.0
2224,74.0,0.0,40.0,8.0,64.0
2225,65.0,55.0,40.0,11.0,64.0
2226,75.0,4.0,60.0,4.0,64.0
2227,75.0,5.0,60.0,8.0,64.0
2228,66.0,4.0,60.0,5.0,64.0
2229,59.0,6.0,60.0,12.0,64.0
2230,66.0,91.0,60.0,6.0,64.0
2231,59.0,1.0,60.0,7.0,64.0
2232,66.0,4.0,60.0,10.0,64.0
2233,63.0,0.0,60.0,11.0,64.0
2234,77.0,0.0,60.0,4.0,64.0
2235,77.0,8.0,40.0,8.0,64.0
2236,68.0,0.0,60.0,6.0,64.0
2237,56.0,5.0,60.0,12.0,64.0
2238,71.0,3.0,60.0,5.0,64.0
2239,56.0,2.0,60.0,7.0,64.0
2240,71.0,0.0,60.0,10.0,64.0
2241,68.0,106.0,60.0,11.0,64.0
2242,58.0,0.0,60.0,12.0,64.0
2243,65.0,1.0,60.0,11.0,64.0
2244,68.0,111.0,60.0,6.0,64.0
2245,70.0,2.0,60.0,4.0,64.0
2246,70.0,0.0,60.0,10.0,64.0
2247,70.0,4.0,60.0,5.0,64.0
2248,70.0,5.0,40.0,8.0,64.0
2249,58.0,2.0,60.0,7.0,64.0
2250,74.0,0.0,60.0,4.0,64.0
2251,74.0,3.0,60.0,8.0,64.0
2252,70.0,311.0,60.0,5.0,64.0
2253,68.0,2.0,60.0,6.0,64.0
2254,70.0,3.0,40.0,10.0,64.0
2255,65.0,0.0,60.0,11.0,64.0
2256,46.0,1.0,60.0,7.0,64.0
2257,46.0,0.0,40.0,12.0,64.0
2258,51.0,5.0,270.0,7.0,64.0
2259,70.0,8.0,240.0,5.0,64.0
2260,75.0,0.0,240.0,4.0,64.0
2261,51.0,2.0,270.0,12.0,64.0
2262,75.0,8.0,240.0,8.0,64.0
2263,70.0,129.0,270.0,10.0,64.0
2264,66.0,2.0,270.0,11.0,64.0
2265,66.0,1.0,240.0,6.0,64.0
2266,63.0,42.0,60.0,11.0,64.0
2267,66.0,13.0,60.0,10.0,64.0
2268,70.0,2.0,40.0,8.0,64.0
2269,78.0,13.0,90.0,0.0,64.0
2270,65.0,1.0,40.0,10.0,64.0
2271,68.0,65.0,60.0,8.0,64.0
2272,66.0,8.0,60.0,10.0,64.0
2273,70.0,3.0,60.0,8.0,64.0
2274,78.0,66.0,90.0,0.0,64.0
2275,61.0,36.0,60.0,11.0,64.0
2276,71.0,0.0,60.0,8.0,64.0
2277,59.0,43.0,60.0,11.0,64.0
2278,66.0,4.0,60.0,10.0,64.0
2279,78.0,84.0,90.0,0.0,64.0
2280,73.0,12.0,90.0,8.0,64.0
2281,66.0,13.0,90.0,10.0,64.0
2282,58.0,12.0,60.0,11.0,64.0
2283,78.0,67.0,90.0,0.0,64.0
2284,76.0,17.0,40.0,8.0,64.0
2285,58.0,23.0,60.0,11.0,64.0
2286,78.0,2.0,90.0,0.0,64.0
2287,73.0,1.0,60.0,10.0,64.0
2288,75.0,3.0,40.0,8.0,64.0
2289,71.0,69.0,40.0,10.0,64.0
2290,76.0,13.0,60.0,8.0,64.0
2291,73.0,4.0,60.0,10.0,64.0
2292,58.0,30.0,60.0,11.0,64.0
2293,78.0,68.0,90.0,0.0,64.0
2294,85.0,4.0,60.0,8.0,64.0
2295,85.0,8.0,40.0,4.0,64.0
2296,66.0,1.0,40.0,10.0,64.0
2297,78.0,8.0,90.0,0.0,64.0
2298,78.0,4.0,90.0,2.0,64.0
2299,54.0,2.0,60.0,7.0,64.0
2300,78.0,3.0,90.0,1.0,64.0
2301,70.0,2.0,60.0,6.0,64.0
2302,66.0,4.0,40.0,5.0,64.0
2303,58.0,5.0,60.0,11.0,64.0
2304,54.0,17.0,60.0,12.0,64.0
2305,68.0,2.0,40.0,10.0,64.0
2306,68.0,58.0,40.0,5.0,64.0
2307,70.0,4.0,60.0,10.0,64.0
2308,73.0,0.0,40.0,8.0,64.0
2309,73.0,0.0,60.0,4.0,64.0
2310,78.0,3.0,90.0,2.0,64.0
2311,70.0,4.0,40.0,5.0,64.0
2312,78.0,3.0,90.0,1.0,64.0
2313,61.0,10.0,60.0,11.0,64.0
2314,66.0,3.0,40.0,7.0,64.0
2315,70.0,3.0,60.0,6.0,64.0
2316,66.0,20.0,60.0,12.0,64.0
2317,78.0,1.0,90.0,0.0,64.0
2318,71.0,63.0,60.0,5.0,64.0
2319,75.0,1.0,40.0,8.0,64.0
2320,71.0,2.0,40.0,10.0,64.0
2321,76.0,5.0,60.0,8.0,64.0
2322,73.0,14.0,60.0,5.0,64.0
2323,73.0,8.0,40.0,10.0,64.0
2324,58.0,0.0,60.0,11.0,64.0
2325,78.0,50.0,90.0,1.0,64.0
2326,78.0,13.0,60.0,0.0,64.0
2327,78.0,4.0,90.0,2.0,64.0
2328,70.0,2.0,40.0,6.0,64.0
2329,54.0,0.0,40.0,7.0,64.0
2330,54.0,1.0,40.0,12.0,64.0
2331,76.0,2.0,40.0,4.0,64.0
2332,75.0,4.0,30.0,10.0,64.0
2333,54.0,0.0,60.0,11.0,64.0
2334,78.0,3.0,30.0,8.0,64.0
2335,59.0,3.0,60.0,7.0,64.0
2336,75.0,12.0,30.0,5.0,64.0
2337,59.0,5.0,60.0,12.0,64.0
2338,78.0,1.0,30.0,4.0,64.0
2339,66.0,7.0,40.0,6.0,64.0
2340,78.0,16.0,240.0,0.0,64.0
2341,78.0,3.0,240.0,1.0,64.0
2342,78.0,3.0,240.0,2.0,64.0
2343,73.0,0.0,30.0,10.0,64.0
2344,76.0,2.0,30.0,8.0,64.0
2345,73.0,23.0,30.0,5.0,64.0
2346,76.0,0.0,30.0,4.0,64.0
2347,75.0,2.0,40.0,10.0,64.0
2348,78.0,3.0,40.0,8.0,64.0
2349,75.0,1.0,30.0,5.0,64.0
2350,78.0,21.0,30.0,4.0,64.0
2351,76.0,45.0,40.0,8.0,64.0
2352,73.0,2.0,40.0,10.0,64.0
2353,76.0,2.0,30.0,4.0,64.0
2354,73.0,3.0,30.0,5.0,64.0
2355,75.0,10.0,150.0,8.0,64.0
2356,71.0,5.0,150.0,10.0,64.0
2357,75.0,21.0,150.0,4.0,64.0
2358,54.0,1.0,40.0,7.0,64.0
2359,54.0,64.0,60.0,12.0,64.0
2360,59.0,7.0,40.0,11.0,64.0
2361,71.0,1.0,120.0,5.0,64.0
2362,66.0,1.0,150.0,6.0,64.0
2363,59.0,42.0,60.0,11.0,64.0
2364,47.0,76.0,90.0,12.0,64.0
2365,47.0,0.0,90.0,7.0,64.0
2366,71.0,0.0,60.0,10.0,64.0
2367,59.0,8.0,60.0,11.0,64.0
2368,80.0,7.0,90.0,0.0,64.0
2369,75.0,34.0,40.0,8.0,64.0
2370,70.0,13.0,40.0,10.0,64.0
2371,73.0,54.0,60.0,8.0,64.0
2372,71.0,8.0,60.0,10.0,64.0
2373,80.0,58.0,90.0,0.0,64.0
2374,75.0,7.0,60.0,8.0,64.0
2375,59.0,40.0,60.0,11.0,64.0
2376,73.0,8.0,40.0,10.0,64.0
2377,77.0,14.0,40.0,8.0,64.0
2378,80.0,91.0,90.0,0.0,64.0
2379,59.0,35.0,60.0,11.0,64.0
2380,80.0,56.0,90.0,0.0,64.0
2381,75.0,9.0,90.0,10.0,64.0
2382,60.0,12.0,60.0,11.0,64.0
2383,78.0,15.0,90.0,8.0,64.0
2384,78.0,14.0,40.0,10.0,64.0
2385,80.0,79.0,90.0,0.0,64.0
2386,60.0,22.0,60.0,11.0,64.0
2387,82.0,11.0,40.0,8.0,64.0
2388,77.0,8.0,30.0,10.0,64.0
2389,80.0,2.0,40.0,8.0,64.0
2390,75.0,7.0,60.0,10.0,64.0
2391,78.0,36.0,60.0,8.0,64.0
2392,80.0,55.0,90.0,0.0,64.0
2393,60.0,7.0,60.0,11.0,64.0
2394,68.0,14.0,40.0,10.0,64.0
2395,56.0,2.0,90.0,12.0,64.0
2396,60.0,1.0,60.0,11.0,64.0
2397,56.0,14.0,60.0,7.0,64.0
2398,80.0,1.0,90.0,1.0,64.0
2399,87.0,4.0,60.0,4.0,64.0
2400,87.0,8.0,60.0,8.0,64.0
2401,80.0,3.0,90.0,0.0,64.0
2402,72.0,1.0,60.0,6.0,64.0
2403,80.0,11.0,90.0,2.0,64.0
2404,68.0,6.0,60.0,5.0,64.0
2405,70.0,7.0,60.0,10.0,64.0
2406,70.0,41.0,60.0,5.0,64.0
2407,72.0,7.0,40.0,10.0,64.0
2408,80.0,13.0,90.0,2.0,64.0
2409,63.0,4.0,60.0,11.0,64.0
2410,80.0,2.0,90.0,1.0,64.0
2411,72.0,13.0,40.0,5.0,64.0
2412,68.0,6.0,60.0,7.0,64.0
2413,75.0,5.0,60.0,4.0,64.0
2414,68.0,0.0,60.0,12.0,64.0
2415,80.0,9.0,60.0,0.0,64.0
2416,75.0,3.0,60.0,8.0,64.0
2417,72.0,5.0,60.0,6.0,64.0
2418,73.0,2.0,60.0,10.0,64.0
2419,73.0,2.0,40.0,5.0,64.0
2420,77.0,54.0,40.0,8.0,64.0
2421,60.0,5.0,60.0,11.0,64.0
2422,75.0,12.0,40.0,10.0,64.0
2423,56.0,3.0,60.0,7.0,64.0
2424,75.0,12.0,60.0,5.0,64.0
2425,80.0,3.0,60.0,0.0,64.0
2426,56.0,3.0,60.0,12.0,64.0
2427,80.0,53.0,90.0,2.0,64.0
2428,78.0,0.0,60.0,8.0,64.0
2429,80.0,3.0,90.0,1.0,64.0
2430,78.0,3.0,40.0,4.0,64.0
2431,72.0,1.0,40.0,6.0,64.0
2432,77.0,9.0,30.0,10.0,64.0
2433,61.0,9.0,60.0,12.0,64.0
2434,68.0,6.0,40.0,11.0,64.0
2435,77.0,3.0,30.0,5.0,64.0
2436,77.0,2.0,30.0,10.0,64.0
2437,61.0,0.0,60.0,7.0,64.0
2438,68.0,5.0,40.0,6.0,64.0
2439,80.0,2.0,30.0,4.0,64.0
2440,80.0,2.0,240.0,2.0,64.0
2441,80.0,0.0,270.0,1.0,64.0
2442,80.0,6.0,30.0,8.0,64.0
2443,49.0,6.0,60.0,3.0,64.0
2444,80.0,1.0,240.0,0.0,64.0
2445,75.0,2.0,30.0,5.0,64.0
2446,78.0,5.0,30.0,4.0,64.0
2447,75.0,5.0,30.0,10.0,64.0
2448,78.0,5.0,30.0,8.0,64.0
2449,80.0,1.0,30.0,4.0,64.0
2450,77.0,9.0,30.0,5.0,64.0
2451,77.0,17.0,40.0,10.0,64.0
2452,80.0,0.0,30.0,8.0,64.0
2453,81.0,1.0,15.0,8.0,64.0
2454,75.0,3.0,40.0,5.0,64.0
2455,78.0,2.0,40.0,4.0,64.0
2456,78.0,42.0,40.0,8.0,64.0
2457,75.0,8.0,30.0,10.0,64.0
2458,73.0,33.0,150.0,5.0,64.0
2459,73.0,2.0,150.0,10.0,64.0
2460,77.0,4.0,150.0,8.0,64.0
2461,56.0,71.0,60.0,12.0,64.0
2462,77.0,4.0,150.0,4.0,64.0
2463,56.0,13.0,40.0,7.0,64.0
2464,68.0,4.0,120.0,11.0,64.0
2465,68.0,1.0,120.0,6.0,64.0
2466,49.0,5.0,60.0,7.0,64.0
2467,49.0,103.0,60.0,12.0,64.0
2468,49.0,0.0,60.0,12.0,64.0
2469,49.0,4.0,60.0,7.0,64.0
2470,85.0,3.0,40.0,8.0,64.0
2471,77.0,0.0,60.0,10.0,64.0
2472,68.0,3.0,40.0,11.0,64.0
2473,73.0,11.0,60.0,2.0,64.0
2474,85.0,4.0,40.0,4.0,64.0
2475,68.0,1.0,40.0,6.0,64.0
2476,77.0,4.0,40.0,5.0,64.0
2477,80.0,18.0,60.0,1.0,64.0
2478,85.0,1.0,40.0,0.0,64.0
2479,84.0,2.0,60.0,8.0,64.0
2480,75.0,0.0,40.0,10.0,64.0
2481,66.0,2.0,40.0,6.0,64.0
2482,75.0,5.0,40.0,5.0,64.0
2483,66.0,0.0,40.0,11.0,64.0
2484,84.0,3.0,40.0,4.0,64.0
2485,84.0,60.0,40.0,0.0,64.0
2486,87.0,2.0,60.0,8.0,64.0
2487,49.0,75.0,90.0,12.0,64.0
2488,78.0,3.0,60.0,10.0,64.0
2489,78.0,1.0,60.0,5.0,64.0
2490,70.0,0.0,60.0,11.0,64.0
2491,70.0,3.0,40.0,6.0,64.0
2492,49.0,19.0,60.0,7.0,64.0
2493,87.0,5.0,60.0,0.0,64.0
2494,87.0,0.0,40.0,4.0,64.0
2495,78.0,0.0,60.0,2.0,64.0
2496,82.0,3.0,60.0,1.0,64.0
2497,49.0,46.0,90.0,12.0,64.0
2498,85.0,2.0,40.0,8.0,64.0
2499,73.0,6.0,60.0,2.0,64.0
2500,77.0,2.0,40.0,10.0,64.0
2501,68.0,2.0,40.0,6.0,64.0
2502,77.0,5.0,40.0,5.0,64.0
2503,49.0,23.0,60.0,7.0,64.0
2504,85.0,4.0,40.0,4.0,64.0
2505,80.0,0.0,40.0,1.0,64.0
2506,68.0,1.0,40.0,11.0,64.0
2507,85.0,0.0,40.0,0.0,64.0
2508,77.0,6.0,30.0,10.0,64.0
2509,80.0,6.0,30.0,1.0,64.0
2510,85.0,2.0,30.0,8.0,64.0
2511,85.0,7.0,30.0,4.0,64.0
2512,49.0,6.0,90.0,12.0,64.0
2513,49.0,0.0,60.0,7.0,64.0
2514,66.0,0.0,40.0,6.0,64.0
2515,75.0,3.0,40.0,5.0,64.0
2516,66.0,15.0,40.0,11.0,64.0
2517,85.0,6.0,30.0,0.0,64.0
2518,66.0,5.0,60.0,2.0,64.0
2519,75.0,2.0,30.0,10.0,64.0
2520,84.0,4.0,30.0,8.0,64.0
2521,78.0,1.0,30.0,1.0,64.0
2522,84.0,1.0,20.0,4.0,64.0
2523,49.0,4.0,60.0,3.0,64.0
2524,84.0,0.0,40.0,0.0,64.0
2525,77.0,7.0,30.0,10.0,64.0
2526,85.0,1.0,40.0,8.0,64.0
2527,80.0,2.0,40.0,1.0,64.0
2528,85.0,4.0,30.0,4.0,64.0
2529,85.0,3.0,30.0,0.0,64.0
2530,75.0,1.0,30.0,10.0,64.0
2531,84.0,2.0,30.0,8.0,64.0
2532,84.0,3.0,40.0,4.0,64.0
2533,78.0,8.0,30.0,1.0,64.0
2534,84.0,69.0,30.0,0.0,64.0
2535,80.0,6.0,150.0,1.0,64.0
2536,77.0,3.0,150.0,10.0,64.0
2537,85.0,1.0,150.0,4.0,64.0
2538,49.0,22.0,60.0,7.0,64.0
2539,85.0,1.0,150.0,8.0,64.0
2540,49.0,56.0,90.0,12.0,64.0
2541,68.0,3.0,150.0,6.0,64.0
2542,85.0,1.0,150.0,0.0,64.0
2543,77.0,21.0,150.0,5.0,64.0
2544,68.0,4.0,150.0,11.0,64.0
2545,73.0,1.0,150.0,2.0,64.0
2546,49.0,72.0,90.0,12.0,64.0
2547,49.0,29.0,60.0,7.0,64.0
2548,49.0,4.0,60.0,7.0,64.0
2549,49.0,1.0,90.0,12.0,64.0
2550,77.0,3.0,40.0,6.0,64.0
2551,80.0,4.0,40.0,10.0,64.0
2552,73.0,17.0,60.0,2.0,64.0
2553,83.0,2.0,40.0,8.0,64.0
2554,77.0,5.0,60.0,11.0,64.0
2555,80.0,3.0,40.0,5.0,64.0
2556,80.0,0.0,40.0,1.0,64.0
2557,83.0,4.0,40.0,0.0,64.0
2558,83.0,0.0,40.0,4.0,64.0
2559,82.0,13.0,40.0,4.0,64.0
2560,82.0,0.0,40.0,8.0,64.0
2561,82.0,2.0,40.0,0.0,64.0
2562,78.0,1.0,40.0,5.0,64.0
2563,78.0,4.0,40.0,1.0,64.0
2564,78.0,61.0,40.0,10.0,64.0
2565,49.0,80.0,90.0,12.0,64.0
2566,82.0,2.0,40.0,1.0,64.0
2567,49.0,3.0,60.0,7.0,64.0
2568,85.0,1.0,40.0,4.0,64.0
2569,73.0,2.0,40.0,6.0,64.0
2570,73.0,7.0,60.0,2.0,64.0
2571,77.0,1.0,60.0,10.0,64.0
2572,85.0,0.0,40.0,8.0,64.0
2573,73.0,2.0,40.0,11.0,64.0
2574,85.0,0.0,60.0,0.0,64.0
2575,77.0,18.0,60.0,5.0,64.0
2576,49.0,3.0,60.0,7.0,64.0
2577,77.0,1.0,40.0,6.0,64.0
2578,77.0,3.0,60.0,11.0,64.0
2579,49.0,62.0,90.0,12.0,64.0
2580,80.0,2.0,40.0,10.0,64.0
2581,80.0,1.0,40.0,1.0,64.0
2582,83.0,4.0,40.0,4.0,64.0
2583,73.0,4.0,40.0,2.0,64.0
2584,83.0,1.0,40.0,8.0,64.0
2585,80.0,0.0,40.0,5.0,64.0
2586,83.0,24.0,60.0,0.0,64.0
2587,49.0,17.0,90.0,12.0,64.0
2588,73.0,1.0,40.0,11.0,64.0
2589,80.0,2.0,30.0,5.0,64.0
2590,49.0,2.0,60.0,7.0,64.0
2591,83.0,2.0,30.0,4.0,64.0
2592,73.0,4.0,40.0,6.0,64.0
2593,66.0,2.0,40.0,2.0,64.0
2594,80.0,3.0,30.0,10.0,64.0
2595,83.0,1.0,20.0,8.0,64.0
2596,83.0,1.0,30.0,0.0,64.0
2597,80.0,7.0,30.0,1.0,64.0
2598,49.0,2.0,60.0,3.0,64.0
2599,78.0,1.0,30.0,5.0,64.0
2600,78.0,0.0,30.0,10.0,64.0
2601,82.0,4.0,30.0,0.0,64.0
2602,82.0,1.0,20.0,8.0,64.0
2603,78.0,17.0,30.0,1.0,64.0
2604,82.0,4.0,15.0,4.0,64.0
2605,80.0,1.0,40.0,10.0,64.0
2606,80.0,4.0,30.0,5.0,64.0
2607,83.0,0.0,30.0,4.0,64.0
2608,83.0,3.0,30.0,8.0,64.0
2609,83.0,2.0,30.0,0.0,64.0
2610,80.0,1.0,40.0,1.0,64.0
2611,78.0,0.0,40.0,5.0,64.0
2612,82.0,4.0,40.0,4.0,64.0
2613,78.0,1.0,40.0,10.0,64.0
2614,82.0,1.0,30.0,0.0,64.0
2615,82.0,0.0,30.0,8.0,64.0
2616,78.0,58.0,30.0,1.0,64.0
2617,77.0,4.0,150.0,10.0,64.0
2618,49.0,25.0,60.0,7.0,64.0
2619,83.0,6.0,150.0,8.0,64.0
2620,77.0,0.0,150.0,5.0,64.0
2621,49.0,57.0,60.0,12.0,64.0
2622,73.0,2.0,150.0,2.0,64.0
2623,68.0,4.0,150.0,6.0,64.0
2624,83.0,2.0,150.0,4.0,64.0
2625,80.0,3.0,150.0,1.0,64.0
2626,68.0,14.0,150.0,11.0,64.0
2627,83.0,26.0,150.0,0.0,64.0
2628,49.0,6.0,60.0,7.0,64.0
2629,49.0,85.0,90.0,12.0,64.0
2630,49.0,4.0,60.0,7.0,64.0
2631,49.0,10.0,90.0,12.0,64.0
2632,81.0,2.0,60.0,8.0,64.0
2633,73.0,5.0,40.0,11.0,64.0
2634,78.0,1.0,40.0,10.0,64.0
2635,78.0,2.0,40.0,5.0,64.0
2636,73.0,3.0,40.0,6.0,64.0
2637,81.0,13.0,40.0,4.0,64.0
2638,80.0,16.0,40.0,8.0,64.0
2639,77.0,2.0,60.0,10.0,64.0
2640,71.0,0.0,40.0,11.0,64.0
2641,77.0,52.0,40.0,5.0,64.0
2642,80.0,2.0,40.0,4.0,64.0
2643,71.0,1.0,40.0,6.0,64.0
2644,83.0,4.0,60.0,8.0,64.0
2645,80.0,8.0,40.0,10.0,64.0
2646,49.0,80.0,90.0,12.0,64.0
2647,74.0,3.0,60.0,11.0,64.0
2648,74.0,15.0,60.0,6.0,64.0
2649,49.0,2.0,60.0,7.0,64.0
2650,80.0,5.0,40.0,5.0,64.0
2651,83.0,8.0,60.0,4.0,64.0
2652,81.0,5.0,60.0,8.0,64.0
2653,78.0,2.0,40.0,10.0,64.0
2654,78.0,3.0,60.0,5.0,64.0
2655,49.0,111.0,60.0,12.0,64.0
2656,73.0,1.0,60.0,11.0,64.0
2657,73.0,0.0,40.0,6.0,64.0
2658,81.0,8.0,40.0,4.0,64.0
2659,49.0,9.0,60.0,7.0,64.0
2660,77.0,3.0,60.0,5.0,64.0
2661,80.0,221.0,90.0,8.0,64.0
2662,49.0,93.0,2250.0,12.0,64.0
2663,71.0,1.0,60.0,11.0,64.0
2664,77.0,5.0,60.0,10.0,64.0
2665,71.0,3.0,60.0,6.0,64.0
2666,49.0,10.0,2250.0,7.0,64.0
2667,80.0,12.0,60.0,4.0,64.0
2668,81.0,5.0,210.0,8.0,64.0
2669,81.0,203.0,210.0,4.0,64.0
2670,78.0,2.0,60.0,5.0,64.0
2671,73.0,25.0,60.0,11.0,64.0
2672,78.0,2.0,60.0,10.0,64.0
2673,73.0,5.0,60.0,6.0,64.0
2674,78.0,12.0,210.0,8.0,64.0
2675,78.0,206.0,210.0,4.0,64.0
2676,73.0,6.0,60.0,5.0,64.0
2677,73.0,1.0,60.0,10.0,64.0
2678,69.0,17.0,60.0,11.0,64.0
2679,69.0,0.0,60.0,6.0,64.0
2680,79.0,205.0,240.0,8.0,64.0
2681,79.0,4.0,210.0,4.0,64.0
2682,74.0,1.0,60.0,5.0,64.0
2683,74.0,2.0,60.0,10.0,64.0
2684,71.0,6.0,60.0,11.0,64.0
2685,71.0,20.0,60.0,6.0,64.0
2686,77.0,221.0,210.0,8.0,64.0
2687,77.0,11.0,180.0,4.0,64.0
2688,71.0,5.0,60.0,10.0,64.0
2689,68.0,6.0,60.0,6.0,64.0
2690,68.0,1.0,60.0,11.0,64.0
2691,71.0,3.0,60.0,5.0,64.0
2692,78.0,3.0,180.0,4.0,64.0
2693,78.0,213.0,210.0,8.0,64.0
2694,73.0,3.0,60.0,10.0,64.0
2695,69.0,0.0,60.0,6.0,64.0
2696,73.0,2.0,60.0,5.0,64.0
2697,69.0,11.0,60.0,11.0,64.0
2698,74.0,18.0,210.0,4.0,64.0
2699,74.0,206.0,240.0,8.0,64.0
2700,78.0,2.0,60.0,10.0,64.0
2701,78.0,1.0,60.0,5.0,64.0
2702,69.0,3.0,60.0,6.0,64.0
2703,69.0,18.0,60.0,11.0,64.0
2704,73.0,10.0,210.0,4.0,64.0
2705,73.0,198.0,210.0,8.0,64.0
2706,78.0,5.0,60.0,10.0,64.0
2707,69.0,6.0,60.0,11.0,64.0
2708,69.0,0.0,60.0,6.0,64.0
2709,78.0,5.0,60.0,5.0,64.0
2710,72.0,5.0,180.0,8.0,64.0
2711,72.0,4.0,180.0,4.0,64.0
2712,78.0,9.0,60.0,10.0,64.0
2713,78.0,4.0,60.0,5.0,64.0
2714,69.0,96.0,60.0,6.0,64.0
2715,69.0,0.0,60.0,11.0,64.0
2716,73.0,12.0,60.0,8.0,64.0
2717,73.0,92.0,60.0,4.0,64.0
2718,75.0,6.0,40.0,10.0,64.0
2719,69.0,1.0,40.0,11.0,64.0
2720,66.0,2.0,40.0,6.0,64.0
2721,75.0,34.0,40.0,5.0,64.0
2722,84.0,2.0,30.0,8.0,64.0
2723,84.0,1.0,30.0,4.0,64.0
2724,68.0,8.0,150.0,11.0,64.0
2725,77.0,6.0,150.0,10.0,64.0
2726,61.0,8.0,60.0,7.0,64.0
2727,77.0,2.0,150.0,5.0,64.0
2728,85.0,9.0,150.0,8.0,64.0
2729,85.0,3.0,180.0,4.0,64.0
2730,68.0,6.0,120.0,6.0,64.0
2731,61.0,33.0,60.0,12.0,64.0
2732,60.0,8.0,60.0,7.0,64.0
2733,60.0,32.0,40.0,12.0,64.0
2734,61.0,4.0,60.0,7.0,64.0
2735,61.0,108.0,60.0,12.0,64.0
2736,49.0,2.0,60.0,7.0,64.0
2737,77.0,4.0,60.0,10.0,64.0
2738,83.0,1.0,60.0,4.0,64.0
2739,80.0,1.0,60.0,1.0,64.0
2740,49.0,4.0,40.0,3.0,64.0
2741,49.0,8.0,60.0,12.0,64.0
2742,83.0,1.0,60.0,8.0,64.0
2743,68.0,7.0,60.0,11.0,64.0
2744,73.0,1.0,60.0,2.0,64.0
2745,83.0,4.0,40.0,0.0,64.0
2746,68.0,2.0,40.0,6.0,64.0
2747,77.0,10.0,60.0,5.0,64.0
2748,82.0,5.0,40.0,8.0,64.0
2749,82.0,4.0,40.0,0.0,64.0
2750,82.0,65.0,40.0,4.0,64.0
2751,78.0,3.0,60.0,10.0,64.0
2752,83.0,2.0,60.0,8.0,64.0
2753,51.0,0.0,60.0,7.0,64.0
2754,83.0,3.0,40.0,0.0,64.0
2755,78.0,4.0,60.0,1.0,64.0
2756,83.0,4.0,60.0,4.0,64.0
2757,66.0,2.0,60.0,11.0,64.0
2758,66.0,1.0,60.0,6.0,64.0
2759,54.0,0.0,40.0,3.0,64.0
2760,51.0,0.0,60.0,12.0,64.0
2761,78.0,4.0,60.0,5.0,64.0
2762,66.0,91.0,60.0,2.0,64.0
2763,80.0,0.0,60.0,10.0,64.0
2764,80.0,1.0,60.0,1.0,64.0
2765,73.0,94.0,90.0,2.0,64.0
2766,53.0,0.0,40.0,7.0,64.0
2767,73.0,4.0,60.0,11.0,64.0
2768,80.0,5.0,60.0,8.0,64.0
2769,73.0,2.0,40.0,6.0,64.0
2770,80.0,2.0,60.0,0.0,64.0
2771,80.0,2.0,60.0,4.0,64.0
2772,49.0,4.0,40.0,3.0,64.0
2773,80.0,4.0,40.0,5.0,64.0
2774,53.0,5.0,60.0,12.0,64.0
2775,78.0,0.0,60.0,10.0,64.0
2776,73.0,8.0,60.0,11.0,64.0
2777,78.0,0.0,60.0,1.0,64.0
2778,73.0,4.0,60.0,6.0,64.0
2779,54.0,3.0,60.0,3.0,64.0
2780,54.0,6.0,60.0,7.0,64.0
2781,82.0,2.0,60.0,8.0,64.0
2782,73.0,8.0,90.0,2.0,64.0
2783,54.0,17.0,60.0,12.0,64.0
2784,82.0,1.0,40.0,0.0,64.0
2785,78.0,1.0,40.0,5.0,64.0
2786,82.0,1.0,40.0,4.0,64.0
2787,83.0,15.0,40.0,8.0,64.0
2788,83.0,3.0,30.0,0.0,64.0
2789,83.0,37.0,60.0,4.0,64.0
2790,85.0,12.0,40.0,8.0,64.0
2791,78.0,1.0,60.0,10.0,64.0
2792,58.0,2.0,60.0,7.0,64.0
2793,73.0,2.0,60.0,6.0,64.0
2794,78.0,24.0,60.0,1.0,64.0
2795,73.0,3.0,90.0,2.0,64.0
2796,58.0,1.0,60.0,12.0,64.0
2797,54.0,5.0,40.0,3.0,64.0
2798,73.0,1.0,60.0,11.0,64.0
2799,85.0,2.0,60.0,0.0,64.0
2800,85.0,2.0,40.0,4.0,64.0
2801,78.0,2.0,40.0,5.0,64.0
2802,87.0,9.0,40.0,8.0,64.0
2803,87.0,5.0,40.0,0.0,64.0
2804,87.0,57.0,40.0,4.0,64.0
2805,80.0,0.0,60.0,10.0,64.0
2806,73.0,3.0,60.0,6.0,64.0
2807,89.0,2.0,40.0,8.0,64.0
2808,83.0,21.0,60.0,1.0,64.0
2809,56.0,1.0,60.0,7.0,64.0
2810,83.0,0.0,60.0,5.0,64.0
2811,73.0,1.0,60.0,11.0,64.0
2812,56.0,2.0,60.0,12.0,64.0
2813,49.0,5.0,40.0,3.0,64.0
2814,73.0,79.0,90.0,2.0,64.0
2815,89.0,2.0,60.0,0.0,64.0
2816,89.0,3.0,60.0,4.0,64.0
2817,82.0,2.0,60.0,10.0,64.0
2818,73.0,2.0,60.0,11.0,64.0
2819,54.0,0.0,60.0,7.0,64.0
2820,82.0,1.0,60.0,1.0,64.0
2821,54.0,8.0,40.0,3.0,64.0
2822,73.0,0.0,40.0,6.0,64.0
2823,82.0,0.0,40.0,5.0,64.0
2824,54.0,3.0,60.0,12.0,64.0
2825,73.0,90.0,60.0,2.0,64.0
2826,90.0,1.0,40.0,8.0,64.0
2827,90.0,11.0,60.0,0.0,64.0
2828,90.0,1.0,40.0,4.0,64.0
2829,73.0,1.0,60.0,11.0,64.0
2830,80.0,1.0,60.0,1.0,64.0
2831,73.0,1.0,60.0,6.0,64.0
2832,83.0,2.0,60.0,5.0,64.0
2833,83.0,4.0,60.0,10.0,64.0
2834,89.0,5.0,40.0,0.0,64.0
2835,73.0,0.0,60.0,2.0,64.0
2836,61.0,1.0,60.0,12.0,64.0
2837,49.0,6.0,40.0,3.0,64.0
2838,61.0,0.0,60.0,7.0,64.0
2839,73.0,0.0,60.0,8.0,64.0
2840,73.0,35.0,60.0,4.0,64.0
2841,87.0,56.0,40.0,0.0,64.0
2842,71.0,5.0,40.0,11.0,64.0
2843,49.0,1.0,40.0,3.0,64.0
2844,80.0,1.0,60.0,1.0,64.0
2845,85.0,1.0,40.0,0.0,64.0
2846,80.0,2.0,40.0,10.0,64.0
2847,49.0,1.0,40.0,7.0,64.0
2848,73.0,3.0,40.0,6.0,64.0
2849,73.0,28.0,60.0,2.0,64.0
2850,49.0,4.0,60.0,12.0,64.0
2851,80.0,4.0,40.0,5.0,64.0
2852,77.0,1.0,40.0,8.0,64.0
2853,77.0,4.0,40.0,4.0,64.0
2854,83.0,71.0,40.0,0.0,64.0
2855,78.0,18.0,120.0,1.0,64.0
2856,54.0,39.0,40.0,3.0,64.0
2857,70.0,4.0,90.0,11.0,64.0
2858,78.0,12.0,150.0,2.0,64.0
2859,82.0,16.0,120.0,0.0,64.0
2860,73.0,6.0,90.0,6.0,64.0
2861,78.0,9.0,60.0,10.0,64.0
2862,78.0,7.0,90.0,5.0,64.0
2863,66.0,20.0,150.0,4.0,64.0
2864,51.0,26.0,240.0,7.0,64.0
2865,51.0,0.0,240.0,12.0,64.0
2866,66.0,3.0,150.0,8.0,64.0
2867,72.0,9.0,60.0,11.0,64.0
2868,75.0,3.0,60.0,10.0,64.0
2869,75.0,12.0,60.0,5.0,64.0
2870,72.0,4.0,60.0,6.0,64.0
2871,80.0,8.0,40.0,1.0,64.0
2872,73.0,2.0,40.0,11.0,64.0
2873,77.0,7.0,40.0,5.0,64.0
2874,77.0,3.0,40.0,10.0,64.0
2875,73.0,39.0,40.0,6.0,64.0
2876,84.0,2.0,30.0,0.0,64.0
2877,68.0,1.0,30.0,4.0,64.0
2878,68.0,2.0,30.0,8.0,64.0
2879,78.0,1.0,60.0,10.0,64.0
2880,75.0,1.0,60.0,11.0,64.0
2881,78.0,2.0,60.0,5.0,64.0
2882,82.0,6.0,60.0,1.0,64.0
2883,75.0,2.0,60.0,6.0,64.0
2884,78.0,25.0,150.0,2.0,64.0
2885,54.0,3.0,60.0,3.0,64.0
2886,85.0,15.0,60.0,0.0,64.0
2887,70.0,0.0,90.0,8.0,64.0
2888,70.0,3.0,60.0,4.0,64.0
2889,80.0,4.0,30.0,1.0,64.0
2890,72.0,4.0,60.0,8.0,64.0
2891,84.0,31.0,30.0,0.0,64.0
2892,72.0,10.0,60.0,4.0,64.0
2893,82.0,6.0,30.0,1.0,64.0
2894,85.0,3.0,30.0,0.0,64.0
2895,78.0,1.0,60.0,10.0,64.0
2896,80.0,3.0,30.0,1.0,64.0
2897,73.0,1.0,60.0,8.0,64.0
2898,84.0,0.0,30.0,0.0,64.0
2899,75.0,3.0,60.0,11.0,64.0
2900,75.0,1.0,60.0,6.0,64.0
2901,78.0,2.0,60.0,5.0,64.0
2902,73.0,2.0,60.0,4.0,64.0
2903,53.0,2.0,40.0,12.0,64.0
2904,53.0,5.0,60.0,7.0,64.0
2905,85.0,6.0,30.0,0.0,64.0
2906,82.0,1.0,30.0,1.0,64.0
2907,75.0,6.0,40.0,8.0,64.0
2908,84.0,20.0,20.0,0.0,64.0
2909,80.0,1.0,20.0,1.0,64.0
2910,75.0,3.0,40.0,4.0,64.0
2911,54.0,1.0,40.0,7.0,64.0
2912,54.0,0.0,40.0,12.0,64.0
2913,85.0,21.0,30.0,0.0,64.0
2914,82.0,0.0,30.0,1.0,64.0
2915,84.0,1.0,20.0,0.0,64.0
2916,80.0,27.0,20.0,1.0,64.0
2917,73.0,14.0,90.0,8.0,64.0
2918,56.0,3.0,60.0,12.0,64.0
2919,75.0,1.0,60.0,11.0,64.0
2920,56.0,3.0,60.0,7.0,64.0
2921,78.0,2.0,60.0,10.0,64.0
2922,66.0,10.0,120.0,2.0,64.0
2923,78.0,1.0,60.0,5.0,64.0
2924,73.0,0.0,60.0,4.0,64.0
2925,75.0,1.0,60.0,6.0,64.0
2926,85.0,3.0,30.0,0.0,64.0
2927,82.0,9.0,30.0,1.0,64.0
2928,84.0,5.0,30.0,0.0,64.0
2929,80.0,12.0,30.0,1.0,64.0
2930,72.0,2.0,60.0,8.0,64.0
2931,72.0,1.0,60.0,4.0,64.0
2932,85.0,1.0,15.0,0.0,64.0
2933,82.0,13.0,30.0,1.0,64.0
2934,84.0,12.0,30.0,0.0,64.0
2935,80.0,10.0,30.0,1.0,64.0
2936,85.0,1.0,40.0,0.0,64.0
2937,70.0,2.0,60.0,8.0,64.0
2938,82.0,18.0,30.0,1.0,64.0
2939,72.0,1.0,60.0,11.0,64.0
2940,70.0,2.0,60.0,4.0,64.0
2941,78.0,16.0,60.0,10.0,64.0
2942,84.0,10.0,40.0,0.0,64.0
2943,44.0,1.0,40.0,7.0,64.0
2944,44.0,3.0,60.0,12.0,64.0
2945,78.0,0.0,60.0,5.0,64.0
2946,72.0,1.0,40.0,6.0,64.0
2947,80.0,0.0,30.0,1.0,64.0
2948,82.0,2.0,60.0,0.0,64.0
2949,82.0,15.0,30.0,1.0,64.0
2950,68.0,10.0,40.0,8.0,64.0
2951,68.0,1.0,30.0,4.0,64.0
2952,80.0,7.0,40.0,1.0,64.0
2953,84.0,62.0,30.0,0.0,64.0
2954,78.0,1.0,60.0,8.0,64.0
2955,78.0,2.0,60.0,4.0,64.0
2956,80.0,4.0,240.0,1.0,64.0
2957,73.0,4.0,240.0,2.0,64.0
2958,78.0,14.0,60.0,10.0,64.0
2959,68.0,2.0,240.0,11.0,64.0
2960,49.0,42.0,60.0,3.0,64.0
2961,68.0,1.0,240.0,6.0,64.0
2962,78.0,5.0,40.0,5.0,64.0
2963,85.0,1.0,240.0,0.0,64.0
2964,49.0,0.0,240.0,7.0,64.0
2965,49.0,38.0,270.0,12.0,64.0
2966,77.0,38.0,60.0,8.0,64.0
2967,77.0,2.0,60.0,4.0,64.0
2968,75.0,41.0,40.0,8.0,64.0
2969,75.0,6.0,40.0,4.0,64.0
2970,77.0,7.0,120.0,10.0,64.0
2971,77.0,13.0,120.0,5.0,64.0
2972,73.0,28.0,40.0,8.0,64.0
2973,73.0,11.0,30.0,4.0,64.0
2974,83.0,96.0,90.0,4.0,64.0
2975,83.0,1.0,60.0,8.0,64.0
2976,80.0,1.0,60.0,10.0,64.0
2977,54.0,2.0,40.0,7.0,64.0
2978,73.0,8.0,40.0,6.0,64.0
2979,80.0,49.0,60.0,5.0,64.0
2980,73.0,0.0,40.0,11.0,64.0
2981,54.0,1.0,40.0,12.0,64.0
2982,53.0,58.0,60.0,7.0,64.0
2983,53.0,3.0,40.0,12.0,64.0
2984,82.0,19.0,90.0,4.0,64.0
2985,82.0,2.0,60.0,10.0,64.0
2986,54.0,2.0,60.0,7.0,64.0
2987,73.0,0.0,60.0,6.0,64.0
2988,82.0,1.0,60.0,5.0,64.0
2989,54.0,23.0,60.0,12.0,64.0
2990,73.0,2.0,40.0,11.0,64.0
2991,82.0,66.0,90.0,8.0,64.0
2992,83.0,0.0,60.0,5.0,64.0
2993,83.0,2.0,40.0,10.0,64.0
2994,73.0,1.0,40.0,6.0,64.0
2995,56.0,3.0,40.0,7.0,64.0
2996,73.0,3.0,40.0,11.0,64.0
2997,56.0,95.0,40.0,12.0,64.0
2998,54.0,10.0,30.0,7.0,64.0
2999,73.0,0.0,240.0,11.0,64.0
3000,73.0,7.0,240.0,6.0,64.0
3001,82.0,22.0,60.0,5.0,64.0
3002,80.0,6.0,240.0,10.0,64.0
3003,54.0,14.0,30.0,12.0,64.0
3004,53.0,9.0,30.0,7.0,64.0
3005,53.0,4.0,30.0,12.0,64.0
3006,54.0,9.0,40.0,7.0,64.0
3007,54.0,28.0,40.0,12.0,64.0
3008,80.0,2.0,210.0,5.0,64.0
3009,53.0,24.0,40.0,7.0,64.0
3010,53.0,1.0,40.0,12.0,64.0
3011,51.0,3.0,40.0,12.0,64.0
3012,51.0,24.0,40.0,7.0,64.0
3013,83.0,43.0,60.0,8.0,64.0
3014,83.0,2.0,40.0,4.0,64.0
3015,49.0,2.0,60.0,12.0,64.0
3016,49.0,27.0,40.0,7.0,64.0
3017,82.0,1.0,30.0,8.0,64.0
3018,61.0,3.0,60.0,12.0,64.0
3019,82.0,26.0,20.0,4.0,64.0
3020,61.0,19.0,60.0,7.0,64.0
3021,80.0,21.0,30.0,8.0,64.0
3022,80.0,1.0,30.0,4.0,64.0
3023,82.0,0.0,40.0,4.0,64.0
3024,82.0,20.0,40.0,8.0,64.0
3025,80.0,54.0,40.0,8.0,64.0
3026,80.0,1.0,40.0,4.0,64.0
3027,78.0,3.0,60.0,8.0,64.0
3028,78.0,30.0,60.0,4.0,64.0
3029,80.0,0.0,60.0,10.0,64.0
3030,73.0,0.0,60.0,11.0,64.0
3031,73.0,1.0,40.0,6.0,64.0
3032,80.0,4.0,40.0,5.0,64.0
3033,77.0,35.0,60.0,4.0,64.0
3034,77.0,10.0,40.0,8.0,64.0
3035,87.0,10.0,90.0,8.0,64.0
3036,82.0,4.0,20.0,10.0,64.0
3037,82.0,19.0,20.0,5.0,64.0
3038,75.0,15.0,60.0,11.0,64.0
3039,75.0,2.0,60.0,6.0,64.0
3040,87.0,1.0,90.0,4.0,64.0
3041,59.0,2.0,90.0,12.0,64.0
3042,59.0,17.0,90.0,7.0,64.0
3043,80.0,2.0,30.0,10.0,64.0
3044,80.0,11.0,30.0,5.0,64.0
3045,82.0,1.0,40.0,10.0,64.0
3046,82.0,3.0,40.0,5.0,64.0
3047,80.0,5.0,40.0,5.0,64.0
3048,80.0,34.0,40.0,10.0,64.0
3049,78.0,19.0,40.0,5.0,64.0
3050,78.0,13.0,60.0,10.0,64.0
3051,68.0,19.0,60.0,6.0,64.0
3052,68.0,3.0,60.0,11.0,64.0
3053,77.0,7.0,40.0,5.0,64.0
3054,77.0,117.0,40.0,10.0,64.0
3055,78.0,6.0,120.0,5.0,64.0
3056,85.0,2.0,90.0,8.0,64.0
3057,85.0,2.0,90.0,4.0,64.0
3058,78.0,9.0,90.0,10.0,64.0
3059,70.0,54.0,120.0,6.0,64.0
3060,70.0,10.0,90.0,11.0,64.0
3061,58.0,0.0,40.0,12.0,64.0
3062,58.0,52.0,40.0,7.0,64.0
3063,56.0,3.0,40.0,12.0,64.0
3064,56.0,68.0,40.0,7.0,64.0
3065,58.0,3.0,60.0,12.0,64.0
3066,58.0,123.0,60.0,7.0,64.0
3067,66.0,0.0,60.0,11.0,64.0
3068,59.0,5.0,40.0,12.0,64.0
3069,78.0,0.0,60.0,10.0,64.0
3070,87.0,1.0,40.0,4.0,64.0
3071,66.0,1.0,60.0,6.0,64.0
3072,59.0,2.0,60.0,7.0,64.0
3073,87.0,2.0,40.0,8.0,64.0
3074,78.0,80.0,60.0,5.0,64.0
3075,85.0,2.0,30.0,4.0,64.0
3076,68.0,2.0,60.0,11.0,64.0
3077,85.0,21.0,30.0,8.0,64.0
3078,77.0,3.0,60.0,5.0,64.0
3079,68.0,3.0,40.0,6.0,64.0
3080,77.0,10.0,60.0,10.0,64.0
3081,56.0,1.0,60.0,12.0,64.0
3082,56.0,4.0,60.0,7.0,64.0
3083,83.0,5.0,30.0,4.0,64.0
3084,83.0,3.0,30.0,8.0,64.0
3085,85.0,7.0,40.0,4.0,64.0
3086,85.0,23.0,40.0,8.0,64.0
3087,83.0,6.0,40.0,4.0,64.0
3088,83.0,25.0,40.0,8.0,64.0
3089,82.0,19.0,40.0,4.0,64.0
3090,82.0,3.0,30.0,8.0,64.0
3091,73.0,0.0,60.0,11.0,64.0
3092,78.0,5.0,60.0,10.0,64.0
3093,73.0,3.0,40.0,6.0,64.0
3094,78.0,1.0,40.0,5.0,64.0
3095,54.0,1.0,40.0,12.0,64.0
3096,54.0,34.0,40.0,7.0,64.0
3097,80.0,1.0,40.0,8.0,64.0
3098,80.0,99.0,40.0,4.0,64.0
3099,53.0,1.0,40.0,7.0,64.0
3100,53.0,2.0,30.0,12.0,64.0
3101,90.0,2.0,90.0,8.0,64.0
3102,90.0,13.0,90.0,4.0,64.0
3103,80.0,18.0,300.0,10.0,64.0
3104,60.0,3.0,90.0,7.0,64.0
3105,75.0,180.0,120.0,6.0,64.0
3106,80.0,2.0,300.0,5.0,64.0
3107,75.0,9.0,60.0,11.0,64.0
3108,60.0,13.0,90.0,12.0,64.0
3109,73.0,9.0,60.0,6.0,64.0
3110,61.0,3.0,60.0,7.0,64.0
3111,73.0,7.0,60.0,11.0,64.0
3112,89.0,5.0,90.0,4.0,64.0
3113,61.0,1.0,60.0,12.0,64.0
3114,89.0,64.0,90.0,8.0,64.0
3115,68.0,1.0,60.0,11.0,64.0
3116,49.0,2.0,60.0,12.0,64.0
3117,49.0,5.0,60.0,7.0,64.0
3118,77.0,1.0,60.0,10.0,64.0
3119,68.0,1.0,60.0,6.0,64.0
3120,73.0,0.0,60.0,2.0,64.0
3121,77.0,28.0,60.0,5.0,64.0
3122,83.0,0.0,60.0,8.0,64.0
3123,83.0,10.0,30.0,0.0,64.0
3124,83.0,0.0,40.0,4.0,64.0
3125,49.0,7.0,60.0,3.0,64.0
3126,80.0,2.0,40.0,1.0,64.0
3127,82.0,52.0,60.0,8.0,64.0
3128,82.0,8.0,30.0,0.0,64.0
3129,82.0,13.0,40.0,4.0,64.0
3130,75.0,3.0,60.0,11.0,64.0
3131,51.0,3.0,60.0,12.0,64.0
3132,51.0,1.0,60.0,7.0,64.0
3133,78.0,1.0,60.0,10.0,64.0
3134,75.0,1.0,60.0,6.0,64.0
3135,54.0,5.0,40.0,3.0,64.0
3136,83.0,2.0,40.0,0.0,64.0
3137,66.0,1.0,60.0,2.0,64.0
3138,83.0,2.0,60.0,4.0,64.0
3139,78.0,99.0,60.0,5.0,64.0
3140,78.0,0.0,60.0,1.0,64.0
3141,83.0,1.0,60.0,8.0,64.0
3142,73.0,3.0,60.0,11.0,64.0
3143,80.0,5.0,60.0,10.0,64.0
3144,73.0,0.0,60.0,6.0,64.0
3145,53.0,2.0,40.0,7.0,64.0
3146,80.0,3.0,60.0,1.0,64.0
3147,53.0,2.0,40.0,12.0,64.0
3148,49.0,2.0,40.0,3.0,64.0
3149,85.0,1.0,60.0,0.0,64.0
3150,73.0,0.0,40.0,2.0,64.0
3151,80.0,101.0,60.0,5.0,64.0
3152,85.0,1.0,40.0,4.0,64.0
3153,85.0,4.0,40.0,8.0,64.0
3154,78.0,7.0,60.0,1.0,64.0
3155,54.0,3.0,60.0,7.0,64.0
3156,73.0,0.0,60.0,6.0,64.0
3157,78.0,3.0,40.0,10.0,64.0
3158,73.0,3.0,40.0,11.0,64.0
3159,54.0,22.0,60.0,12.0,64.0
3160,78.0,1.0,40.0,5.0,64.0
3161,73.0,1.0,90.0,2.0,64.0
3162,54.0,1.0,40.0,3.0,64.0
3163,83.0,0.0,40.0,0.0,64.0
3164,83.0,15.0,90.0,8.0,64.0
3165,83.0,3.0,60.0,4.0,64.0
3166,82.0,24.0,40.0,0.0,64.0
3167,82.0,5.0,60.0,4.0,64.0
3168,82.0,31.0,60.0,8.0,64.0
3169,73.0,1.0,60.0,1.0,64.0
3170,73.0,3.0,40.0,6.0,64.0
3171,73.0,4.0,60.0,10.0,64.0
3172,73.0,3.0,40.0,11.0,64.0
3173,58.0,1.0,60.0,12.0,64.0
3174,80.0,2.0,40.0,0.0,64.0
3175,58.0,1.0,60.0,7.0,64.0
3176,80.0,1.0,60.0,4.0,64.0
3177,80.0,33.0,60.0,8.0,64.0
3178,73.0,4.0,40.0,5.0,64.0
3179,78.0,6.0,40.0,0.0,64.0
3180,78.0,6.0,40.0,4.0,64.0
3181,78.0,59.0,40.0,8.0,64.0
3182,78.0,4.0,60.0,1.0,64.0
3183,75.0,6.0,90.0,10.0,64.0
3184,71.0,3.0,90.0,6.0,64.0
3185,59.0,7.0,60.0,12.0,64.0
3186,71.0,0.0,90.0,11.0,64.0
3187,82.0,5.0,90.0,4.0,64.0
3188,59.0,14.0,60.0,7.0,64.0
3189,82.0,7.0,40.0,0.0,64.0
3190,82.0,2.0,90.0,8.0,64.0
3191,75.0,15.0,90.0,5.0,64.0
3192,80.0,3.0,40.0,0.0,64.0
3193,80.0,4.0,60.0,4.0,64.0
3194,80.0,37.0,60.0,8.0,64.0
3195,73.0,1.0,60.0,2.0,64.0
3196,78.0,4.0,40.0,0.0,64.0
3197,82.0,5.0,60.0,1.0,64.0
3198,70.0,3.0,40.0,11.0,64.0
3199,78.0,0.0,60.0,4.0,64.0
3200,70.0,3.0,40.0,6.0,64.0
3201,73.0,4.0,40.0,10.0,64.0
3202,78.0,5.0,60.0,8.0,64.0
3203,73.0,0.0,40.0,5.0,64.0
3204,61.0,6.0,60.0,12.0,64.0
3205,49.0,2.0,40.0,3.0,64.0
3206,61.0,20.0,60.0,7.0,64.0
3207,68.0,3.0,40.0,11.0,64.0
3208,68.0,0.0,40.0,6.0,64.0
3209,77.0,0.0,40.0,0.0,64.0
3210,77.0,2.0,40.0,4.0,64.0
3211,71.0,12.0,40.0,10.0,64.0
3212,77.0,7.0,30.0,8.0,64.0
3213,71.0,48.0,60.0,5.0,64.0
3214,66.0,3.0,60.0,6.0,64.0
3215,82.0,0.0,60.0,1.0,64.0
3216,66.0,4.0,40.0,2.0,64.0
3217,66.0,3.0,60.0,11.0,64.0
3218,78.0,5.0,40.0,4.0,64.0
3219,70.0,4.0,60.0,10.0,64.0
3220,78.0,0.0,60.0,8.0,64.0
3221,78.0,0.0,40.0,0.0,64.0
3222,63.0,2.0,60.0,12.0,64.0
3223,54.0,1.0,40.0,3.0,64.0
3224,63.0,97.0,60.0,7.0,64.0
3225,70.0,0.0,60.0,5.0,64.0
3226,83.0,2.0,60.0,1.0,64.0
3227,59.0,0.0,60.0,7.0,64.0
3228,59.0,1.0,60.0,12.0,64.0
3229,71.0,2.0,60.0,11.0,64.0
3230,75.0,3.0,40.0,10.0,64.0
3231,71.0,0.0,60.0,6.0,64.0
3232,80.0,1.0,60.0,8.0,64.0
3233,80.0,5.0,40.0,4.0,64.0
3234,80.0,10.0,60.0,0.0,64.0
3235,66.0,87.0,60.0,2.0,64.0
3236,54.0,1.0,40.0,3.0,64.0
3237,75.0,1.0,40.0,5.0,64.0
3238,80.0,1.0,90.0,10.0,64.0
3239,73.0,5.0,30.0,4.0,64.0
3240,65.0,2.0,60.0,7.0,64.0
3241,65.0,4.0,60.0,12.0,64.0
3242,80.0,3.0,90.0,5.0,64.0
3243,68.0,2.0,60.0,11.0,64.0
3244,73.0,7.0,30.0,8.0,64.0
3245,83.0,1.0,90.0,1.0,64.0
3246,73.0,15.0,240.0,0.0,64.0
3247,68.0,15.0,60.0,6.0,64.0
3248,49.0,15.0,30.0,3.0,64.0
3249,73.0,2.0,270.0,2.0,64.0
3250,71.0,3.0,40.0,4.0,64.0
3251,71.0,1.0,40.0,8.0,64.0
3252,73.0,35.0,40.0,8.0,64.0
3253,73.0,3.0,30.0,4.0,64.0
3254,71.0,7.0,40.0,4.0,64.0
3255,71.0,17.0,40.0,8.0,64.0
3256,85.0,3.0,30.0,1.0,64.0
3257,78.0,1.0,60.0,10.0,64.0
3258,70.0,0.0,60.0,8.0,64.0
3259,73.0,3.0,60.0,6.0,64.0
3260,70.0,2.0,40.0,4.0,64.0
3261,61.0,2.0,60.0,12.0,64.0
3262,61.0,28.0,60.0,11.0,64.0
3263,61.0,1.0,60.0,7.0,64.0
3264,78.0,3.0,40.0,5.0,64.0
3265,49.0,16.0,20.0,3.0,64.0
3266,77.0,2.0,40.0,5.0,64.0
3267,77.0,10.0,40.0,10.0,64.0
3268,83.0,0.0,40.0,1.0,64.0
3269,68.0,35.0,60.0,8.0,64.0
3270,68.0,4.0,40.0,4.0,64.0
3271,49.0,1.0,40.0,3.0,64.0
3272,70.0,2.0,60.0,8.0,64.0
3273,70.0,0.0,60.0,4.0,64.0
3274,54.0,2.0,40.0,3.0,64.0
3275,78.0,7.0,60.0,10.0,64.0
3276,78.0,9.0,40.0,5.0,64.0
3277,82.0,2.0,60.0,1.0,64.0
3278,66.0,35.0,60.0,7.0,64.0
3279,73.0,0.0,60.0,6.0,64.0
3280,61.0,6.0,60.0,11.0,64.0
3281,66.0,2.0,60.0,12.0,64.0
3282,71.0,4.0,60.0,8.0,64.0
3283,71.0,53.0,60.0,4.0,64.0
3284,73.0,1.0,60.0,8.0,64.0
3285,66.0,5.0,60.0,10.0,64.0
3286,66.0,1.0,40.0,5.0,64.0
3287,73.0,2.0,60.0,6.0,64.0
3288,54.0,4.0,40.0,3.0,64.0
3289,58.0,33.0,60.0,12.0,64.0
3290,58.0,3.0,60.0,7.0,64.0
3291,78.0,2.0,60.0,1.0,64.0
3292,73.0,0.0,60.0,11.0,64.0
3293,73.0,2.0,60.0,4.0,64.0
3294,73.0,2.0,40.0,2.0,64.0
3295,78.0,5.0,40.0,0.0,64.0
3296,75.0,1.0,60.0,8.0,64.0
3297,75.0,39.0,40.0,4.0,64.0
3298,77.0,15.0,40.0,8.0,64.0
3299,73.0,5.0,40.0,5.0,64.0
3300,73.0,5.0,40.0,10.0,64.0
3301,77.0,0.0,40.0,4.0,64.0
3302,56.0,10.0,60.0,12.0,64.0
3303,71.0,5.0,60.0,6.0,64.0
3304,71.0,0.0,60.0,11.0,64.0
3305,56.0,5.0,40.0,7.0,64.0
3306,83.0,4.0,40.0,1.0,64.0
3307,73.0,2.0,40.0,2.0,64.0
3308,80.0,21.0,60.0,0.0,64.0
3309,49.0,0.0,40.0,3.0,64.0
3310,78.0,21.0,60.0,8.0,64.0
3311,78.0,34.0,60.0,4.0,64.0
3312,80.0,8.0,60.0,8.0,64.0
3313,73.0,4.0,60.0,10.0,64.0
3314,80.0,2.0,40.0,4.0,64.0
3315,70.0,2.0,60.0,6.0,64.0
3316,54.0,9.0,60.0,12.0,64.0
3317,73.0,4.0,40.0,5.0,64.0
3318,70.0,5.0,60.0,11.0,64.0
3319,54.0,2.0,60.0,7.0,64.0
3320,73.0,5.0,60.0,2.0,64.0
3321,82.0,3.0,40.0,0.0,64.0
3322,54.0,4.0,40.0,3.0,64.0
3323,82.0,10.0,180.0,1.0,64.0
3324,82.0,3.0,60.0,8.0,64.0
3325,82.0,82.0,40.0,4.0,64.0
3326,83.0,1.0,60.0,8.0,64.0
3327,83.0,0.0,60.0,4.0,64.0
3328,78.0,1.0,60.0,10.0,64.0
3329,78.0,0.0,60.0,5.0,64.0
3330,70.0,4.0,60.0,6.0,64.0
3331,63.0,0.0,60.0,12.0,64.0
3332,70.0,5.0,60.0,11.0,64.0
3333,63.0,19.0,60.0,7.0,64.0
3334,83.0,1.0,40.0,0.0,64.0
3335,66.0,0.0,90.0,2.0,64.0
3336,54.0,8.0,40.0,3.0,64.0
3337,85.0,6.0,60.0,8.0,64.0
3338,85.0,6.0,60.0,4.0,64.0
3339,82.0,36.0,40.0,0.0,64.0
3340,87.0,9.0,40.0,8.0,64.0
3341,87.0,4.0,40.0,4.0,64.0
3342,71.0,7.0,60.0,6.0,64.0
3343,77.0,2.0,40.0,10.0,64.0
3344,77.0,2.0,40.0,5.0,64.0
3345,71.0,5.0,60.0,11.0,64.0
3346,56.0,7.0,60.0,12.0,64.0
3347,83.0,1.0,40.0,0.0,64.0
3348,56.0,21.0,60.0,7.0,64.0
3349,80.0,5.0,40.0,1.0,64.0
3350,83.0,0.0,60.0,8.0,64.0
3351,83.0,10.0,40.0,4.0,64.0
3352,80.0,55.0,40.0,0.0,64.0
3353,78.0,0.0,60.0,10.0,64.0
3354,66.0,3.0,60.0,6.0,64.0
3355,85.0,5.0,40.0,8.0,64.0
3356,78.0,2.0,60.0,5.0,64.0
3357,58.0,3.0,60.0,12.0,64.0
3358,66.0,5.0,60.0,11.0,64.0
3359,58.0,12.0,60.0,7.0,64.0
3360,85.0,9.0,40.0,4.0,64.0
3361,85.0,82.0,60.0,0.0,64.0
3362,78.0,1.0,60.0,1.0,64.0
3363,68.0,0.0,60.0,6.0,64.0
3364,75.0,2.0,60.0,10.0,64.0
3365,71.0,3.0,60.0,11.0,64.0
3366,75.0,0.0,60.0,5.0,64.0
3367,59.0,1.0,60.0,7.0,64.0
3368,59.0,15.0,60.0,12.0,64.0
3369,78.0,3.0,40.0,8.0,64.0
3370,87.0,5.0,40.0,0.0,64.0
3371,54.0,2.0,40.0,3.0,64.0
3372,78.0,0.0,40.0,1.0,64.0
3373,78.0,0.0,30.0,4.0,64.0
3374,66.0,25.0,60.0,2.0,64.0
3375,85.0,70.0,40.0,0.0,64.0
3376,73.0,1.0,60.0,10.0,64.0
3377,61.0,2.0,60.0,7.0,64.0
3378,70.0,1.0,60.0,6.0,64.0
3379,70.0,3.0,60.0,11.0,64.0
3380,61.0,4.0,60.0,12.0,64.0
3381,73.0,4.0,40.0,2.0,64.0
3382,83.0,1.0,40.0,0.0,64.0
3383,73.0,0.0,40.0,8.0,64.0
3384,49.0,0.0,40.0,3.0,64.0
3385,78.0,2.0,40.0,1.0,64.0
3386,73.0,4.0,60.0,4.0,64.0
3387,73.0,24.0,60.0,5.0,64.0
3388,82.0,66.0,30.0,0.0,64.0
3389,80.0,9.0,40.0,0.0,64.0
3390,73.0,3.0,60.0,10.0,64.0
3391,49.0,1.0,60.0,12.0,64.0
3392,68.0,1.0,60.0,11.0,64.0
3393,49.0,0.0,60.0,7.0,64.0
3394,73.0,1.0,40.0,1.0,64.0
3395,49.0,6.0,40.0,3.0,64.0
3396,73.0,2.0,40.0,2.0,64.0
3397,71.0,5.0,60.0,6.0,64.0
3398,73.0,2.0,60.0,5.0,64.0
3399,77.0,4.0,40.0,8.0,64.0
3400,77.0,19.0,40.0,4.0,64.0
3401,82.0,96.0,30.0,0.0,64.0
3402,73.0,1.0,270.0,1.0,64.0
3403,70.0,2.0,270.0,2.0,64.0
3404,73.0,14.0,240.0,10.0,64.0
3405,54.0,196.0,40.0,3.0,64.0
3406,78.0,5.0,270.0,0.0,64.0
3407,70.0,3.0,270.0,11.0,64.0
3408,78.0,3.0,270.0,8.0,64.0
3409,42.0,134.0,270.0,12.0,64.0
3410,70.0,2.0,240.0,6.0,64.0
3411,78.0,4.0,270.0,4.0,64.0
3412,73.0,1.0,270.0,5.0,64.0
3413,54.0,1.0,240.0,7.0,64.0
3414,73.0,0.0,60.0,6.0,64.0
3415,80.0,5.0,40.0,4.0,64.0
3416,77.0,42.0,40.0,5.0,64.0
3417,75.0,13.0,40.0,5.0,64.0
3418,78.0,61.0,60.0,4.0,64.0
3419,77.0,100.0,60.0,5.0,64.0
3420,80.0,4.0,60.0,4.0,64.0
3421,73.0,0.0,60.0,6.0,64.0
3422,73.0,125.0,60.0,6.0,64.0
3423,82.0,10.0,40.0,4.0,64.0
3424,78.0,5.0,30.0,5.0,64.0
3425,82.0,12.0,60.0,4.0,64.0
3426,78.0,5.0,60.0,5.0,64.0
3427,73.0,23.0,60.0,6.0,64.0
3428,83.0,13.0,40.0,4.0,64.0
3429,80.0,58.0,40.0,5.0,64.0
3430,82.0,2.0,60.0,4.0,64.0
3431,78.0,14.0,60.0,5.0,64.0
3432,73.0,19.0,60.0,6.0,64.0
3433,77.0,10.0,40.0,5.0,64.0
3434,80.0,79.0,40.0,4.0,64.0
3435,78.0,2.0,60.0,5.0,64.0
3436,82.0,32.0,60.0,4.0,64.0
3437,73.0,7.0,60.0,6.0,64.0
3438,80.0,14.0,40.0,5.0,64.0
3439,83.0,39.0,60.0,4.0,64.0
3440,82.0,7.0,40.0,10.0,64.0
3441,82.0,3.0,40.0,5.0,64.0
3442,54.0,1.0,60.0,7.0,64.0
3443,85.0,1.0,60.0,8.0,64.0
3444,73.0,3.0,60.0,6.0,64.0
3445,85.0,0.0,60.0,0.0,64.0
3446,82.0,3.0,40.0,1.0,64.0
3447,73.0,1.0,60.0,11.0,64.0
3448,54.0,1.0,40.0,12.0,64.0
3449,85.0,3.0,40.0,4.0,64.0
3450,78.0,36.0,60.0,2.0,64.0
3451,54.0,3.0,30.0,3.0,64.0
3452,56.0,58.0,40.0,7.0,64.0
3453,56.0,1.0,40.0,12.0,64.0
3454,54.0,2.0,30.0,3.0,64.0
3455,58.0,5.0,40.0,12.0,64.0
3456,73.0,97.0,60.0,10.0,64.0
3457,58.0,0.0,60.0,7.0,64.0
3458,73.0,0.0,60.0,6.0,64.0
3459,78.0,2.0,60.0,8.0,64.0
3460,73.0,1.0,60.0,11.0,64.0
3461,54.0,3.0,40.0,3.0,64.0
3462,78.0,3.0,40.0,1.0,64.0
3463,73.0,0.0,60.0,2.0,64.0
3464,78.0,0.0,40.0,0.0,64.0
3465,73.0,3.0,40.0,5.0,64.0
3466,78.0,1.0,40.0,4.0,64.0
3467,61.0,6.0,40.0,12.0,64.0
3468,73.0,1.0,40.0,1.0,64.0
3469,73.0,2.0,60.0,11.0,64.0
3470,80.0,3.0,40.0,8.0,64.0
3471,61.0,5.0,30.0,7.0,64.0
3472,77.0,81.0,60.0,10.0,64.0
3473,73.0,7.0,60.0,2.0,64.0
3474,80.0,0.0,40.0,4.0,64.0
3475,73.0,3.0,40.0,6.0,64.0
3476,80.0,0.0,40.0,0.0,64.0
3477,77.0,1.0,40.0,5.0,64.0
3478,49.0,4.0,40.0,3.0,64.0
3479,70.0,1.0,30.0,2.0,64.0
3480,80.0,0.0,60.0,0.0,64.0
3481,80.0,6.0,60.0,4.0,64.0
3482,54.0,4.0,30.0,3.0,64.0
3483,66.0,3.0,40.0,7.0,64.0
3484,73.0,1.0,40.0,1.0,64.0
3485,77.0,3.0,60.0,5.0,64.0
3486,83.0,0.0,30.0,8.0,64.0
3487,80.0,8.0,30.0,10.0,64.0
3488,73.0,2.0,40.0,11.0,64.0
3489,66.0,13.0,60.0,12.0,64.0
3490,73.0,1.0,60.0,6.0,64.0
3491,85.0,12.0,15.0,8.0,64.0
3492,82.0,2.0,30.0,8.0,64.0
3493,78.0,2.0,30.0,10.0,64.0
3494,82.0,0.0,40.0,4.0,64.0
3495,82.0,7.0,30.0,0.0,64.0
3496,78.0,3.0,40.0,5.0,64.0
3497,80.0,3.0,30.0,10.0,64.0
3498,83.0,6.0,40.0,8.0,64.0
3499,66.0,15.0,40.0,2.0,64.0
3500,82.0,42.0,40.0,8.0,64.0
3501,78.0,8.0,30.0,10.0,64.0
3502,77.0,9.0,120.0,5.0,64.0
3503,80.0,1.0,120.0,4.0,64.0
3504,61.0,13.0,40.0,7.0,64.0
3505,80.0,1.0,120.0,8.0,64.0
3506,73.0,12.0,150.0,2.0,64.0
3507,80.0,8.0,150.0,0.0,64.0
3508,73.0,60.0,60.0,6.0,64.0
3509,73.0,4.0,150.0,1.0,64.0
3510,77.0,12.0,120.0,10.0,64.0
3511,73.0,11.0,150.0,11.0,64.0
3512,61.0,0.0,40.0,12.0,64.0
3513,49.0,4.0,40.0,3.0,64.0
3514,73.0,55.0,60.0,6.0,64.0
3515,49.0,40.0,120.0,7.0,64.0
3516,49.0,10.0,90.0,12.0,64.0
3517,73.0,36.0,60.0,6.0,64.0
3518,79.0,10.0,40.0,5.0,64.0
3519,82.0,3.0,40.0,4.0,64.0
3520,77.0,17.0,40.0,5.0,64.0
3521,80.0,60.0,40.0,4.0,64.0
3522,79.0,3.0,60.0,5.0,64.0
3523,73.0,95.0,60.0,6.0,64.0
3524,82.0,9.0,40.0,4.0,64.0
3525,71.0,126.0,60.0,6.0,64.0
3526,80.0,10.0,40.0,5.0,64.0
3527,83.0,13.0,40.0,4.0,64.0
3528,70.0,26.0,60.0,6.0,64.0
3529,83.0,3.0,60.0,4.0,64.0
3530,80.0,4.0,60.0,5.0,64.0
3531,82.0,2.0,40.0,5.0,64.0
3532,85.0,72.0,40.0,4.0,64.0
3533,75.0,1.0,60.0,6.0,64.0
3534,80.0,29.0,60.0,5.0,64.0
3535,83.0,3.0,40.0,4.0,64.0
3536,79.0,11.0,40.0,5.0,64.0
3537,82.0,73.0,40.0,4.0,64.0
3538,80.0,6.0,60.0,5.0,64.0
3539,75.0,31.0,60.0,6.0,64.0
3540,83.0,5.0,60.0,4.0,64.0
3541,82.0,8.0,40.0,5.0,64.0
3542,85.0,48.0,40.0,4.0,64.0
3543,83.0,3.0,40.0,5.0,64.0
3544,87.0,9.0,40.0,8.0,64.0
3545,83.0,0.0,40.0,10.0,64.0
3546,75.0,1.0,60.0,6.0,64.0
3547,87.0,13.0,40.0,4.0,64.0
3548,75.0,2.0,40.0,11.0,64.0
3549,56.0,0.0,60.0,12.0,64.0
3550,56.0,41.0,60.0,7.0,64.0
3551,58.0,2.0,60.0,12.0,64.0
3552,58.0,58.0,40.0,7.0,64.0
3553,59.0,2.0,60.0,12.0,64.0
3554,75.0,3.0,60.0,10.0,64.0
3555,80.0,0.0,40.0,8.0,64.0
3556,80.0,2.0,40.0,4.0,64.0
3557,75.0,1.0,60.0,6.0,64.0
3558,75.0,4.0,40.0,11.0,64.0
3559,75.0,3.0,40.0,5.0,64.0
3560,59.0,99.0,60.0,7.0,64.0
3561,63.0,0.0,40.0,7.0,64.0
3562,82.0,7.0,40.0,4.0,64.0
3563,82.0,1.0,60.0,8.0,64.0
3564,75.0,6.0,60.0,6.0,64.0
3565,75.0,3.0,40.0,11.0,64.0
3566,79.0,2.0,40.0,10.0,64.0
3567,79.0,3.0,40.0,5.0,64.0
3568,63.0,81.0,60.0,12.0,64.0
3569,82.0,8.0,30.0,10.0,64.0
3570,85.0,17.0,30.0,8.0,64.0
3571,82.0,2.0,40.0,4.0,64.0
3572,75.0,4.0,40.0,6.0,64.0
3573,68.0,2.0,60.0,7.0,64.0
3574,79.0,5.0,60.0,5.0,64.0
3575,68.0,0.0,60.0,12.0,64.0
3576,75.0,5.0,40.0,11.0,64.0
3577,80.0,1.0,30.0,10.0,64.0
3578,83.0,0.0,20.0,8.0,64.0
3579,83.0,1.0,40.0,4.0,64.0
3580,82.0,4.0,40.0,10.0,64.0
3581,85.0,1.0,30.0,8.0,64.0
3582,80.0,26.0,30.0,5.0,64.0
3583,87.0,13.0,15.0,8.0,64.0
3584,83.0,4.0,40.0,8.0,64.0
3585,80.0,50.0,40.0,10.0,64.0
3586,79.0,11.0,150.0,10.0,64.0
3587,82.0,9.0,150.0,8.0,64.0
3588,79.0,9.0,120.0,5.0,64.0
3589,82.0,0.0,150.0,4.0,64.0
3590,63.0,65.0,60.0,12.0,64.0
3591,63.0,12.0,40.0,7.0,64.0
3592,75.0,39.0,150.0,6.0,64.0
3593,75.0,8.0,150.0,11.0,64.0
3594,51.0,13.0,60.0,12.0,64.0
3595,51.0,75.0,90.0,7.0,64.0
3596,56.0,3.0,60.0,12.0,64.0
3597,80.0,3.0,40.0,5.0,64.0
3598,80.0,2.0,40.0,10.0,64.0
3599,75.0,2.0,60.0,11.0,64.0
3600,83.0,1.0,60.0,8.0,64.0
3601,75.0,40.0,60.0,6.0,64.0
3602,56.0,1.0,40.0,7.0,64.0
3603,83.0,3.0,40.0,4.0,64.0
3604,82.0,5.0,60.0,8.0,64.0
3605,55.0,4.0,40.0,12.0,64.0
3606,55.0,50.0,60.0,7.0,64.0
3607,82.0,0.0,40.0,4.0,64.0
3608,56.0,2.0,40.0,12.0,64.0
3609,83.0,2.0,60.0,8.0,64.0
3610,56.0,11.0,40.0,7.0,64.0
3611,75.0,1.0,60.0,11.0,64.0
3612,80.0,5.0,60.0,5.0,64.0
3613,80.0,0.0,40.0,10.0,64.0
3614,75.0,97.0,60.0,6.0,64.0
3615,83.0,3.0,40.0,4.0,64.0
3616,76.0,3.0,40.0,11.0,64.0
3617,82.0,0.0,40.0,5.0,64.0
3618,82.0,2.0,60.0,10.0,64.0
3619,85.0,9.0,40.0,8.0,64.0
3620,49.0,2.0,60.0,7.0,64.0
3621,76.0,15.0,60.0,6.0,64.0
3622,49.0,68.0,60.0,12.0,64.0
3623,85.0,0.0,40.0,4.0,64.0
3624,83.0,20.0,30.0,8.0,64.0
3625,70.0,1.0,60.0,11.0,64.0
3626,79.0,4.0,40.0,10.0,64.0
3627,79.0,2.0,40.0,5.0,64.0
3628,51.0,3.0,40.0,12.0,64.0
3629,70.0,5.0,60.0,6.0,64.0
3630,51.0,2.0,40.0,7.0,64.0
3631,83.0,5.0,30.0,4.0,64.0
3632,82.0,2.0,30.0,8.0,64.0
3633,82.0,18.0,30.0,4.0,64.0
3634,83.0,20.0,40.0,8.0,64.0
3635,83.0,12.0,40.0,4.0,64.0
3636,82.0,20.0,40.0,8.0,64.0
3637,82.0,26.0,40.0,4.0,64.0
3638,80.0,4.0,60.0,8.0,64.0
3639,75.0,3.0,40.0,5.0,64.0
3640,75.0,2.0,40.0,10.0,64.0
3641,73.0,8.0,60.0,11.0,64.0
3642,46.0,7.0,40.0,12.0,64.0
3643,73.0,35.0,60.0,6.0,64.0
3644,46.0,0.0,60.0,7.0,64.0
3645,80.0,1.0,40.0,4.0,64.0
3646,79.0,12.0,40.0,8.0,64.0
3647,79.0,54.0,40.0,4.0,64.0
3648,80.0,5.0,60.0,8.0,64.0
3649,71.0,0.0,60.0,11.0,64.0
3650,80.0,11.0,60.0,4.0,64.0
3651,75.0,3.0,60.0,5.0,64.0
3652,75.0,9.0,60.0,10.0,64.0
3653,71.0,8.0,60.0,6.0,64.0
3654,47.0,2.0,60.0,12.0,64.0
3655,47.0,4.0,60.0,7.0,64.0
3656,82.0,3.0,40.0,8.0,64.0
3657,82.0,68.0,40.0,4.0,64.0
3658,83.0,1.0,60.0,8.0,64.0
3659,83.0,0.0,60.0,4.0,64.0
3660,75.0,10.0,60.0,11.0,64.0
3661,80.0,2.0,40.0,5.0,64.0
3662,80.0,3.0,40.0,10.0,64.0
3663,44.0,3.0,60.0,12.0,64.0
3664,75.0,5.0,60.0,6.0,64.0
3665,44.0,27.0,60.0,7.0,64.0
3666,85.0,0.0,40.0,8.0,64.0
3667,85.0,56.0,40.0,4.0,64.0
3668,79.0,2.0,40.0,5.0,64.0
3669,46.0,4.0,40.0,12.0,64.0
3670,79.0,1.0,40.0,10.0,64.0
3671,46.0,1.0,40.0,7.0,64.0
3672,47.0,3.0,60.0,12.0,64.0
3673,75.0,2.0,40.0,11.0,64.0
3674,80.0,2.0,40.0,5.0,64.0
3675,87.0,2.0,40.0,8.0,64.0
3676,80.0,1.0,40.0,10.0,64.0
3677,47.0,92.0,60.0,7.0,64.0
3678,87.0,12.0,40.0,4.0,64.0
3679,75.0,4.0,60.0,6.0,64.0
3680,88.0,1.0,40.0,8.0,64.0
3681,85.0,0.0,40.0,10.0,64.0
3682,85.0,4.0,40.0,5.0,64.0
3683,68.0,7.0,40.0,11.0,64.0
3684,68.0,0.0,40.0,6.0,64.0
3685,49.0,2.0,40.0,12.0,64.0
3686,49.0,4.0,30.0,7.0,64.0
3687,88.0,85.0,60.0,4.0,64.0
3688,80.0,6.0,30.0,5.0,64.0
3689,87.0,4.0,30.0,8.0,64.0
3690,75.0,9.0,40.0,6.0,64.0
3691,87.0,3.0,30.0,4.0,64.0
3692,51.0,1.0,60.0,12.0,64.0
3693,51.0,1.0,60.0,7.0,64.0
3694,75.0,0.0,40.0,11.0,64.0
3695,79.0,6.0,40.0,10.0,64.0
3696,79.0,10.0,15.0,5.0,64.0
3697,85.0,1.0,30.0,8.0,64.0
3698,85.0,4.0,30.0,4.0,64.0
3699,80.0,7.0,40.0,5.0,64.0
3700,87.0,7.0,40.0,8.0,64.0
3701,87.0,6.0,40.0,4.0,64.0
3702,88.0,15.0,15.0,8.0,64.0
3703,79.0,18.0,40.0,5.0,64.0
3704,85.0,10.0,40.0,8.0,64.0
3705,85.0,52.0,40.0,4.0,64.0
3706,83.0,15.0,120.0,8.0,64.0
3707,75.0,21.0,150.0,6.0,64.0
3708,80.0,2.0,120.0,5.0,64.0
3709,56.0,0.0,60.0,12.0,64.0
3710,75.0,4.0,150.0,11.0,64.0
3711,80.0,5.0,120.0,10.0,64.0
3712,83.0,5.0,150.0,4.0,64.0
3713,56.0,34.0,60.0,7.0,64.0
3714,55.0,2.0,40.0,12.0,64.0
3715,55.0,25.0,40.0,7.0,64.0
3716,56.0,105.0,60.0,12.0,64.0
3717,56.0,7.0,60.0,7.0,64.0
3718,77.0,9.0,60.0,11.0,64.0
3719,74.0,0.0,60.0,5.0,64.0
3720,82.0,5.0,40.0,8.0,64.0
3721,53.0,2.0,60.0,12.0,64.0
3722,77.0,0.0,60.0,6.0,64.0
3723,53.0,4.0,60.0,7.0,64.0
3724,74.0,0.0,60.0,10.0,64.0
3725,82.0,39.0,40.0,4.0,64.0
3726,80.0,6.0,40.0,8.0,64.0
3727,80.0,56.0,40.0,4.0,64.0
3728,70.0,9.0,60.0,11.0,64.0
3729,54.0,3.0,60.0,12.0,64.0
3730,75.0,1.0,60.0,5.0,64.0
3731,70.0,1.0,60.0,6.0,64.0
3732,82.0,1.0,40.0,8.0,64.0
3733,75.0,3.0,60.0,10.0,64.0
3734,54.0,98.0,60.0,7.0,64.0
3735,82.0,1.0,40.0,4.0,64.0
3736,75.0,4.0,60.0,11.0,64.0
3737,78.0,12.0,40.0,5.0,64.0
3738,75.0,4.0,60.0,6.0,64.0
3739,83.0,2.0,60.0,8.0,64.0
3740,51.0,7.0,60.0,12.0,64.0
3741,51.0,1.0,60.0,7.0,64.0
3742,78.0,0.0,40.0,10.0,64.0
3743,83.0,72.0,60.0,4.0,64.0
3744,77.0,3.0,60.0,5.0,64.0
3745,74.0,3.0,60.0,6.0,64.0
3746,74.0,6.0,60.0,11.0,64.0
3747,82.0,21.0,20.0,8.0,64.0
3748,53.0,2.0,60.0,7.0,64.0
3749,53.0,7.0,60.0,12.0,64.0
3750,77.0,1.0,60.0,10.0,64.0
3751,82.0,4.0,30.0,4.0,64.0
3752,80.0,5.0,30.0,8.0,64.0
3753,80.0,20.0,30.0,4.0,64.0
3754,82.0,22.0,40.0,8.0,64.0
3755,82.0,5.0,40.0,4.0,64.0
3756,80.0,22.0,40.0,8.0,64.0
3757,80.0,19.0,40.0,4.0,64.0
3758,78.0,8.0,60.0,8.0,64.0
3759,50.0,6.0,60.0,12.0,64.0
3760,70.0,3.0,60.0,10.0,64.0
3761,70.0,1.0,60.0,5.0,64.0
3762,50.0,4.0,40.0,7.0,64.0
3763,77.0,1.0,60.0,11.0,64.0
3764,77.0,11.0,60.0,6.0,64.0
3765,78.0,21.0,60.0,4.0,64.0
3766,77.0,22.0,40.0,8.0,64.0
3767,77.0,46.0,40.0,4.0,64.0
3768,78.0,1.0,60.0,8.0,64.0
3769,51.0,4.0,60.0,12.0,64.0
3770,51.0,7.0,60.0,7.0,64.0
3771,70.0,23.0,60.0,6.0,64.0
3772,75.0,1.0,60.0,10.0,64.0
3773,75.0,4.0,40.0,5.0,64.0
3774,70.0,1.0,60.0,11.0,64.0
3775,78.0,4.0,60.0,4.0,64.0
3776,80.0,18.0,40.0,8.0,64.0
3777,80.0,52.0,40.0,4.0,64.0
3778,82.0,10.0,40.0,8.0,64.0
3779,54.0,1.0,60.0,12.0,64.0
3780,75.0,2.0,60.0,5.0,64.0
3781,75.0,0.0,60.0,10.0,64.0
3782,54.0,4.0,60.0,7.0,64.0
3783,70.0,14.0,60.0,6.0,64.0
3784,70.0,7.0,60.0,11.0,64.0
3785,82.0,2.0,40.0,4.0,64.0
3786,84.0,10.0,30.0,8.0,64.0
3787,84.0,65.0,30.0,4.0,64.0
3788,86.0,8.0,40.0,8.0,64.0
3789,70.0,3.0,60.0,11.0,64.0
3790,53.0,3.0,40.0,12.0,64.0
3791,70.0,97.0,60.0,6.0,64.0
3792,80.0,6.0,40.0,10.0,64.0
3793,80.0,1.0,40.0,5.0,64.0
3794,53.0,0.0,40.0,7.0,64.0
3795,86.0,1.0,40.0,4.0,64.0
3796,87.0,1.0,40.0,8.0,64.0
3797,78.0,8.0,40.0,5.0,64.0
3798,70.0,4.0,60.0,11.0,64.0
3799,51.0,0.0,60.0,12.0,64.0
3800,78.0,6.0,40.0,10.0,64.0
3801,51.0,3.0,40.0,7.0,64.0
3802,70.0,82.0,60.0,6.0,64.0
3803,87.0,2.0,40.0,4.0,64.0
3804,71.0,4.0,60.0,11.0,64.0
3805,78.0,13.0,40.0,5.0,64.0
3806,78.0,6.0,30.0,8.0,64.0
3807,78.0,3.0,30.0,10.0,64.0
3808,71.0,3.0,60.0,6.0,64.0
3809,56.0,4.0,60.0,12.0,64.0
3810,56.0,2.0,40.0,7.0,64.0
3811,78.0,4.0,30.0,4.0,64.0
3812,77.0,0.0,30.0,8.0,64.0
3813,77.0,5.0,40.0,10.0,64.0
3814,77.0,1.0,30.0,5.0,64.0
3815,77.0,19.0,30.0,4.0,64.0
3816,78.0,0.0,40.0,8.0,64.0
3817,78.0,2.0,40.0,5.0,64.0
3818,78.0,25.0,40.0,10.0,64.0
3819,78.0,0.0,40.0,4.0,64.0
3820,77.0,3.0,40.0,5.0,64.0
3821,77.0,23.0,40.0,8.0,64.0
3822,77.0,1.0,40.0,10.0,64.0
3823,77.0,20.0,40.0,4.0,64.0
3824,75.0,3.0,60.0,8.0,64.0
3825,70.0,1.0,60.0,11.0,64.0
3826,70.0,7.0,60.0,6.0,64.0
3827,78.0,3.0,40.0,5.0,64.0
3828,78.0,0.0,40.0,10.0,64.0
3829,58.0,3.0,40.0,7.0,64.0
3830,58.0,6.0,40.0,12.0,64.0
3831,75.0,18.0,40.0,4.0,64.0
3832,80.0,6.0,40.0,5.0,64.0
3833,80.0,10.0,40.0,10.0,64.0
3834,74.0,19.0,40.0,8.0,64.0
3835,74.0,57.0,40.0,4.0,64.0
3836,78.0,9.0,60.0,5.0,64.0
3837,75.0,4.0,60.0,8.0,64.0
3838,75.0,2.0,60.0,6.0,64.0
3839,63.0,1.0,60.0,11.0,64.0
3840,78.0,0.0,60.0,10.0,64.0
3841,59.0,2.0,90.0,12.0,64.0
3842,59.0,8.0,90.0,7.0,64.0
3843,75.0,16.0,60.0,4.0,64.0
3844,77.0,14.0,40.0,8.0,64.0
3845,77.0,45.0,40.0,4.0,64.0
3846,75.0,1.0,60.0,10.0,64.0
3847,78.0,6.0,60.0,8.0,64.0
3848,71.0,5.0,60.0,11.0,64.0
3849,58.0,11.0,40.0,12.0,64.0
3850,71.0,3.0,60.0,6.0,64.0
3851,78.0,8.0,60.0,4.0,64.0
3852,58.0,1.0,40.0,7.0,64.0
3853,75.0,18.0,60.0,5.0,64.0
3854,56.0,6.0,40.0,12.0,64.0
3855,80.0,7.0,40.0,8.0,64.0
3856,56.0,5.0,40.0,7.0,64.0
3857,80.0,50.0,40.0,4.0,64.0
3858,75.0,0.0,40.0,10.0,64.0
3859,82.0,14.0,40.0,8.0,64.0
3860,54.0,1.0,60.0,12.0,64.0
3861,70.0,1.0,60.0,11.0,64.0
3862,70.0,1.0,60.0,6.0,64.0
3863,75.0,3.0,60.0,5.0,64.0
3864,54.0,95.0,60.0,7.0,64.0
3865,82.0,5.0,40.0,4.0,64.0
3866,83.0,8.0,40.0,8.0,64.0
3867,80.0,2.0,40.0,10.0,64.0
3868,63.0,2.0,40.0,11.0,64.0
3869,75.0,0.0,40.0,6.0,64.0
3870,56.0,100.0,40.0,12.0,64.0
3871,80.0,1.0,40.0,5.0,64.0
3872,56.0,2.0,40.0,7.0,64.0
3873,83.0,2.0,40.0,4.0,64.0
3874,75.0,5.0,30.0,8.0,64.0
3875,75.0,14.0,30.0,4.0,64.0
3876,70.0,2.0,240.0,11.0,64.0
3877,70.0,51.0,240.0,6.0,64.0
3878,77.0,0.0,240.0,10.0,64.0
3879,58.0,5.0,240.0,7.0,64.0
3880,58.0,5.0,240.0,12.0,64.0
3881,77.0,10.0,210.0,5.0,64.0
3882,74.0,9.0,20.0,8.0,64.0
3883,74.0,32.0,20.0,4.0,64.0
3884,75.0,5.0,40.0,8.0,64.0
3885,75.0,37.0,40.0,4.0,64.0
3886,74.0,24.0,60.0,8.0,64.0
3887,74.0,2.0,60.0,4.0,64.0
3888,72.0,7.0,40.0,4.0,64.0
3889,72.0,66.0,40.0,8.0,64.0
3890,70.0,3.0,60.0,4.0,64.0
3891,70.0,6.0,40.0,8.0,64.0
3892,80.0,103.0,60.0,8.0,64.0
3893,80.0,1.0,60.0,4.0,64.0
3894,70.0,0.0,60.0,6.0,64.0
3895,77.0,1.0,60.0,5.0,64.0
3896,70.0,3.0,60.0,11.0,64.0
3897,51.0,1.0,60.0,12.0,64.0
3898,77.0,0.0,60.0,10.0,64.0
3899,51.0,48.0,60.0,7.0,64.0
3900,50.0,57.0,60.0,12.0,64.0
3901,50.0,4.0,40.0,7.0,64.0
3902,51.0,0.0,60.0,12.0,64.0
3903,70.0,3.0,60.0,6.0,64.0
3904,51.0,3.0,60.0,7.0,64.0
3905,78.0,3.0,60.0,5.0,64.0
3906,70.0,2.0,60.0,11.0,64.0
3907,78.0,23.0,60.0,10.0,64.0
3908,78.0,10.0,60.0,8.0,64.0
3909,78.0,68.0,90.0,4.0,64.0
3910,70.0,3.0,40.0,6.0,64.0
3911,53.0,7.0,40.0,7.0,64.0
3912,70.0,98.0,60.0,11.0,64.0
3913,80.0,2.0,40.0,10.0,64.0
3914,80.0,2.0,40.0,5.0,64.0
3915,53.0,3.0,40.0,12.0,64.0
3916,51.0,29.0,90.0,12.0,64.0
3917,51.0,19.0,30.0,7.0,64.0
3918,70.0,13.0,240.0,6.0,64.0
3919,77.0,10.0,240.0,5.0,64.0
3920,77.0,3.0,240.0,10.0,64.0
3921,70.0,3.0,240.0,11.0,64.0
3922,50.0,34.0,30.0,12.0,64.0
3923,50.0,3.0,20.0,7.0,64.0
3924,51.0,2.0,40.0,7.0,64.0
3925,50.0,9.0,40.0,7.0,64.0
3926,50.0,17.0,40.0,12.0,64.0
3927,48.0,9.0,40.0,7.0,64.0
3928,48.0,10.0,40.0,12.0,64.0
3929,80.0,7.0,40.0,8.0,64.0
3930,80.0,50.0,40.0,4.0,64.0
3931,46.0,13.0,40.0,7.0,64.0
3932,46.0,2.0,40.0,12.0,64.0
3933,58.0,10.0,60.0,12.0,64.0
3934,78.0,3.0,30.0,4.0,64.0
3935,78.0,22.0,30.0,8.0,64.0
3936,58.0,7.0,60.0,7.0,64.0
3937,77.0,10.0,40.0,8.0,64.0
3938,77.0,7.0,20.0,4.0,64.0
3939,78.0,5.0,40.0,4.0,64.0
3940,78.0,22.0,40.0,8.0,64.0
3941,77.0,8.0,40.0,4.0,64.0
3942,77.0,39.0,40.0,8.0,64.0
3943,75.0,3.0,60.0,4.0,64.0
3944,77.0,2.0,40.0,10.0,64.0
3945,75.0,11.0,60.0,8.0,64.0
3946,70.0,0.0,40.0,11.0,64.0
3947,77.0,2.0,40.0,5.0,64.0
3948,70.0,33.0,60.0,6.0,64.0
3949,74.0,1.0,40.0,4.0,64.0
3950,74.0,44.0,40.0,8.0,64.0
3951,78.0,24.0,30.0,10.0,64.0
3952,83.0,2.0,60.0,8.0,64.0
3953,74.0,0.0,40.0,6.0,64.0
3954,77.0,17.0,90.0,5.0,64.0
3955,83.0,6.0,60.0,4.0,64.0
3956,74.0,22.0,40.0,11.0,64.0
3957,56.0,3.0,90.0,7.0,64.0
3958,56.0,4.0,90.0,12.0,64.0
3959,77.0,6.0,30.0,10.0,64.0
3960,78.0,5.0,40.0,10.0,64.0
3961,77.0,44.0,40.0,10.0,64.0
3962,75.0,10.0,60.0,10.0,64.0
3963,75.0,10.0,60.0,5.0,64.0
3964,77.0,0.0,60.0,6.0,64.0
3965,77.0,33.0,60.0,11.0,64.0
3966,74.0,0.0,40.0,10.0,64.0
3967,74.0,115.0,40.0,5.0,64.0
3968,75.0,1.0,90.0,10.0,64.0
3969,78.0,74.0,90.0,6.0,64.0
3970,75.0,2.0,90.0,5.0,64.0
3971,82.0,6.0,90.0,8.0,64.0
3972,66.0,6.0,90.0,11.0,64.0
3973,82.0,2.0,90.0,4.0,64.0
3974,54.0,2.0,60.0,12.0,64.0
3975,54.0,42.0,40.0,7.0,64.0
3976,53.0,0.0,40.0,12.0,64.0
3977,53.0,72.0,40.0,7.0,64.0
3978,54.0,8.0,60.0,7.0,64.0
3979,54.0,112.0,60.0,12.0,64.0
3980,75.0,3.0,60.0,10.0,64.0
3981,68.0,0.0,60.0,11.0,64.0
3982,83.0,1.0,60.0,8.0,64.0
3983,56.0,4.0,40.0,7.0,64.0
3984,56.0,0.0,60.0,12.0,64.0
3985,75.0,4.0,40.0,5.0,64.0
3986,68.0,2.0,60.0,6.0,64.0
3987,83.0,80.0,40.0,4.0,64.0
3988,74.0,2.0,40.0,10.0,64.0
3989,82.0,0.0,30.0,4.0,64.0
3990,82.0,7.0,30.0,8.0,64.0
3991,74.0,7.0,40.0,5.0,64.0
3992,54.0,6.0,30.0,12.0,64.0
3993,68.0,10.0,60.0,11.0,64.0
3994,54.0,9.0,30.0,7.0,64.0
3995,68.0,24.0,60.0,6.0,64.0
3996,80.0,1.0,40.0,8.0,64.0
3997,80.0,1.0,40.0,4.0,64.0
3998,53.0,1.0,30.0,12.0,64.0
3999,53.0,0.0,30.0,7.0,64.0
4000,82.0,20.0,40.0,8.0,64.0
4001,82.0,0.0,40.0,4.0,64.0
4002,54.0,3.0,40.0,12.0,64.0
4003,54.0,2.0,40.0,7.0,64.0
4004,80.0,1.0,40.0,8.0,64.0
4005,80.0,29.0,40.0,4.0,64.0
4006,53.0,2.0,40.0,12.0,64.0
4007,53.0,3.0,40.0,7.0,64.0
4008,75.0,6.0,40.0,10.0,64.0
4009,75.0,8.0,40.0,5.0,64.0
4010,51.0,4.0,40.0,12.0,64.0
4011,78.0,0.0,60.0,8.0,64.0
4012,78.0,17.0,60.0,4.0,64.0
4013,70.0,8.0,40.0,11.0,64.0
4014,51.0,1.0,60.0,7.0,64.0
4015,70.0,1.0,40.0,6.0,64.0
4016,50.0,11.0,40.0,12.0,64.0
4017,50.0,97.0,40.0,7.0,64.0
4018,77.0,3.0,40.0,8.0,64.0
4019,77.0,0.0,30.0,4.0,64.0
4020,87.0,9.0,60.0,8.0,64.0
4021,77.0,10.0,330.0,5.0,64.0
4022,57.0,4.0,90.0,12.0,64.0
4023,77.0,2.0,300.0,10.0,64.0
4024,72.0,12.0,90.0,6.0,64.0
4025,72.0,2.0,90.0,11.0,64.0
4026,57.0,6.0,60.0,7.0,64.0
4027,87.0,195.0,90.0,4.0,64.0
4028,86.0,13.0,90.0,8.0,64.0
4029,70.0,4.0,60.0,11.0,64.0
4030,70.0,19.0,60.0,6.0,64.0
4031,58.0,1.0,60.0,12.0,64.0
4032,58.0,11.0,60.0,7.0,64.0
4033,86.0,48.0,90.0,4.0,64.0
4034,74.0,2.0,60.0,11.0,64.0
4035,87.0,17.0,40.0,8.0,64.0
4036,46.0,0.0,60.0,7.0,64.0
4037,46.0,0.0,60.0,12.0,64.0
4038,74.0,20.0,60.0,6.0,64.0
4039,80.0,2.0,60.0,10.0,64.0
4040,80.0,6.0,60.0,5.0,64.0
4041,87.0,1.0,40.0,4.0,64.0
4042,89.0,8.0,40.0,8.0,64.0
4043,89.0,69.0,30.0,4.0,64.0
4044,75.0,1.0,60.0,6.0,64.0
4045,48.0,0.0,60.0,12.0,64.0
4046,78.0,3.0,60.0,10.0,64.0
4047,82.0,11.0,40.0,8.0,64.0
4048,48.0,1.0,60.0,7.0,64.0
4049,75.0,100.0,60.0,11.0,64.0
4050,78.0,3.0,40.0,5.0,64.0
4051,82.0,0.0,40.0,4.0,64.0
4052,50.0,0.0,60.0,12.0,64.0
4053,80.0,1.0,60.0,8.0,64.0
4054,50.0,6.0,40.0,7.0,64.0
4055,77.0,5.0,40.0,11.0,64.0
4056,77.0,2.0,60.0,6.0,64.0
4057,77.0,1.0,40.0,10.0,64.0
4058,77.0,7.0,40.0,5.0,64.0
4059,80.0,89.0,60.0,4.0,64.0
4060,75.0,15.0,40.0,10.0,64.0
4061,51.0,0.0,60.0,12.0,64.0
4062,70.0,3.0,60.0,6.0,64.0
4063,51.0,20.0,60.0,7.0,64.0
4064,80.0,3.0,30.0,8.0,64.0
4065,70.0,0.0,60.0,11.0,64.0
4066,75.0,1.0,60.0,5.0,64.0
4067,80.0,13.0,30.0,4.0,64.0
4068,78.0,3.0,30.0,8.0,64.0
4069,78.0,0.0,30.0,4.0,64.0
4070,80.0,3.0,30.0,8.0,64.0
4071,80.0,29.0,40.0,4.0,64.0
4072,78.0,4.0,40.0,8.0,64.0
4073,78.0,30.0,40.0,4.0,64.0
4074,70.0,4.0,60.0,10.0,64.0
4075,70.0,2.0,60.0,5.0,64.0
4076,77.0,2.0,40.0,8.0,64.0
4077,77.0,18.0,40.0,4.0,64.0
4078,54.0,5.0,60.0,12.0,64.0
4079,54.0,31.0,60.0,7.0,64.0
4080,70.0,0.0,60.0,6.0,64.0
4081,70.0,1.0,60.0,11.0,64.0
4082,75.0,56.0,40.0,8.0,64.0
4083,75.0,1.0,40.0,4.0,64.0
4084,77.0,1.0,40.0,8.0,64.0
4085,71.0,6.0,40.0,10.0,64.0
4086,71.0,3.0,40.0,5.0,64.0
4087,56.0,93.0,60.0,12.0,64.0
4088,68.0,2.0,60.0,11.0,64.0
4089,77.0,13.0,40.0,4.0,64.0
4090,68.0,8.0,60.0,6.0,64.0
4091,56.0,2.0,60.0,7.0,64.0
4092,70.0,4.0,60.0,10.0,64.0
4093,70.0,2.0,60.0,5.0,64.0
4094,58.0,0.0,60.0,12.0,64.0
4095,87.0,4.0,40.0,8.0,64.0
4096,58.0,5.0,60.0,7.0,64.0
4097,68.0,34.0,60.0,11.0,64.0
4098,68.0,1.0,60.0,6.0,64.0
4099,87.0,1.0,40.0,4.0,64.0
4100,86.0,6.0,40.0,8.0,64.0
4101,86.0,62.0,40.0,4.0,64.0
4102,66.0,2.0,60.0,11.0,64.0
4103,75.0,5.0,40.0,5.0,64.0
4104,87.0,0.0,40.0,8.0,64.0
4105,59.0,4.0,60.0,7.0,64.0
4106,75.0,6.0,40.0,10.0,64.0
4107,59.0,6.0,60.0,12.0,64.0
4108,66.0,97.0,60.0,6.0,64.0
4109,87.0,2.0,40.0,4.0,64.0
4110,80.0,3.0,40.0,10.0,64.0
4111,71.0,2.0,60.0,11.0,64.0
4112,71.0,1.0,60.0,6.0,64.0
4113,89.0,0.0,60.0,8.0,64.0
4114,80.0,1.0,60.0,5.0,64.0
4115,56.0,0.0,60.0,7.0,64.0
4116,56.0,7.0,40.0,12.0,64.0
4117,89.0,89.0,40.0,4.0,64.0
4118,62.0,0.0,60.0,12.0,64.0
4119,70.0,16.0,60.0,6.0,64.0
4120,78.0,5.0,30.0,10.0,64.0
4121,70.0,2.0,60.0,11.0,64.0
4122,82.0,7.0,30.0,8.0,64.0
4123,78.0,12.0,40.0,5.0,64.0
4124,62.0,0.0,60.0,7.0,64.0
4125,82.0,4.0,30.0,4.0,64.0
4126,77.0,3.0,30.0,10.0,64.0
4127,80.0,2.0,30.0,8.0,64.0
4128,80.0,10.0,30.0,4.0,64.0
4129,77.0,2.0,20.0,5.0,64.0
4130,78.0,17.0,40.0,10.0,64.0
4131,82.0,1.0,40.0,8.0,64.0
4132,82.0,2.0,40.0,4.0,64.0
4133,78.0,6.0,40.0,5.0,64.0
4134,77.0,12.0,40.0,10.0,64.0
4135,80.0,7.0,40.0,8.0,64.0
4136,77.0,26.0,60.0,5.0,64.0
4137,80.0,1.0,40.0,4.0,64.0
4138,75.0,12.0,60.0,10.0,64.0
4139,78.0,2.0,60.0,4.0,64.0
4140,78.0,3.0,60.0,8.0,64.0
4141,75.0,2.0,60.0,5.0,64.0
4142,70.0,27.0,60.0,6.0,64.0
4143,58.0,7.0,60.0,12.0,64.0
4144,70.0,0.0,60.0,11.0,64.0
4145,58.0,2.0,60.0,7.0,64.0
4146,74.0,3.0,40.0,10.0,64.0
4147,77.0,2.0,40.0,4.0,64.0
4148,77.0,3.0,40.0,8.0,64.0
4149,74.0,66.0,40.0,5.0,64.0
4150,75.0,1.0,60.0,10.0,64.0
4151,78.0,4.0,60.0,8.0,64.0
4152,78.0,1.0,60.0,4.0,64.0
4153,75.0,3.0,60.0,5.0,64.0
4154,63.0,4.0,60.0,12.0,64.0
4155,70.0,0.0,60.0,11.0,64.0
4156,70.0,33.0,60.0,6.0,64.0
4157,63.0,2.0,60.0,7.0,64.0
4158,80.0,1.0,40.0,8.0,64.0
4159,80.0,63.0,40.0,4.0,64.0
4160,54.0,7.0,60.0,12.0,64.0
4161,70.0,1.0,60.0,11.0,64.0
4162,75.0,3.0,60.0,10.0,64.0
4163,82.0,2.0,60.0,8.0,64.0
4164,82.0,8.0,40.0,4.0,64.0
4165,70.0,15.0,60.0,6.0,64.0
4166,54.0,3.0,60.0,7.0,64.0
4167,75.0,3.0,60.0,5.0,64.0
4168,84.0,3.0,30.0,4.0,64.0
4169,84.0,74.0,30.0,8.0,64.0
4170,53.0,0.0,60.0,12.0,64.0
4171,77.0,2.0,60.0,11.0,64.0
4172,86.0,3.0,40.0,8.0,64.0
4173,86.0,6.0,40.0,4.0,64.0
4174,80.0,4.0,60.0,10.0,64.0
4175,80.0,3.0,60.0,5.0,64.0
4176,53.0,0.0,60.0,7.0,64.0
4177,77.0,100.0,60.0,6.0,64.0
4178,70.0,3.0,60.0,6.0,64.0
4179,51.0,2.0,60.0,12.0,64.0
4180,51.0,90.0,60.0,7.0,64.0
4181,87.0,2.0,40.0,8.0,64.0
4182,70.0,1.0,40.0,11.0,64.0
4183,78.0,3.0,40.0,10.0,64.0
4184,78.0,2.0,40.0,5.0,64.0
4185,87.0,1.0,40.0,4.0,64.0
4186,56.0,3.0,60.0,12.0,64.0
4187,68.0,1.0,60.0,6.0,64.0
4188,73.0,7.0,20.0,10.0,64.0
4189,56.0,0.0,60.0,7.0,64.0
4190,78.0,5.0,30.0,8.0,64.0
4191,70.0,2.0,30.0,11.0,64.0
4192,73.0,6.0,30.0,5.0,64.0
4193,78.0,13.0,40.0,4.0,64.0
4194,77.0,2.0,40.0,8.0,64.0
4195,71.0,0.0,30.0,10.0,64.0
4196,71.0,1.0,30.0,5.0,64.0
4197,68.0,6.0,30.0,11.0,64.0
4198,77.0,10.0,30.0,4.0,64.0
4199,73.0,2.0,40.0,10.0,64.0
4200,73.0,16.0,30.0,5.0,64.0
4201,78.0,3.0,40.0,8.0,64.0
4202,70.0,0.0,40.0,11.0,64.0
4203,78.0,10.0,40.0,4.0,64.0
4204,71.0,6.0,15.0,11.0,64.0
4205,71.0,0.0,40.0,10.0,64.0
4206,71.0,12.0,30.0,5.0,64.0
4207,68.0,16.0,40.0,11.0,64.0
4208,77.0,2.0,40.0,8.0,64.0
4209,77.0,4.0,30.0,4.0,64.0
4210,70.0,3.0,40.0,5.0,64.0
4211,75.0,7.0,60.0,4.0,64.0
4212,58.0,1.0,60.0,12.0,64.0
4213,75.0,2.0,40.0,8.0,64.0
4214,70.0,16.0,30.0,10.0,64.0
4215,66.0,11.0,60.0,11.0,64.0
4216,58.0,2.0,60.0,7.0,64.0
4217,66.0,12.0,60.0,6.0,64.0
4218,68.0,4.0,30.0,5.0,64.0
4219,74.0,11.0,40.0,4.0,64.0
4220,68.0,0.0,40.0,10.0,64.0
4221,74.0,13.0,40.0,8.0,64.0
4222,65.0,55.0,40.0,11.0,64.0
4223,75.0,4.0,60.0,4.0,64.0
4224,75.0,5.0,60.0,8.0,64.0
4225,66.0,4.0,60.0,5.0,64.0
4226,59.0,6.0,60.0,12.0,64.0
4227,66.0,91.0,60.0,6.0,64.0
4228,59.0,1.0,60.0,7.0,64.0
4229,66.0,4.0,60.0,10.0,64.0
4230,63.0,0.0,60.0,11.0,64.0
4231,77.0,8.0,40.0,8.0,64.0
4232,77.0,0.0,60.0,4.0,64.0
4233,68.0,0.0,60.0,6.0,64.0
4234,71.0,3.0,60.0,5.0,64.0
4235,56.0,2.0,60.0,7.0,64.0
4236,56.0,0.0,60.0,12.0,64.0
4237,71.0,5.0,60.0,10.0,64.0
4238,68.0,106.0,60.0,11.0,64.0
4239,58.0,0.0,60.0,12.0,64.0
4240,65.0,1.0,60.0,11.0,64.0
4241,70.0,0.0,60.0,4.0,64.0
4242,68.0,111.0,60.0,6.0,64.0
4243,70.0,2.0,60.0,10.0,64.0
4244,70.0,4.0,60.0,5.0,64.0
4245,70.0,5.0,40.0,8.0,64.0
4246,58.0,2.0,60.0,7.0,64.0
4247,74.0,0.0,60.0,4.0,64.0
4248,74.0,3.0,60.0,8.0,64.0
4249,68.0,0.0,60.0,6.0,64.0
4250,70.0,311.0,60.0,5.0,64.0
4251,70.0,3.0,40.0,10.0,64.0
4252,65.0,2.0,60.0,11.0,64.0
4253,46.0,1.0,60.0,7.0,64.0
4254,46.0,0.0,40.0,12.0,64.0
4255,51.0,5.0,270.0,7.0,64.0
4256,70.0,0.0,240.0,5.0,64.0
4257,75.0,8.0,240.0,4.0,64.0
4258,75.0,8.0,240.0,8.0,64.0
4259,70.0,129.0,270.0,10.0,64.0
4260,66.0,1.0,240.0,6.0,64.0
4261,66.0,2.0,270.0,11.0,64.0
4262,51.0,2.0,270.0,12.0,64.0
4263,66.0,13.0,60.0,10.0,64.0
4264,63.0,42.0,60.0,11.0,64.0
4265,70.0,2.0,40.0,8.0,64.0
4266,78.0,13.0,90.0,0.0,64.0
4267,65.0,1.0,40.0,10.0,64.0
4268,68.0,65.0,60.0,8.0,64.0
4269,66.0,8.0,60.0,10.0,64.0
4270,70.0,3.0,60.0,8.0,64.0
4271,78.0,66.0,90.0,0.0,64.0
4272,61.0,36.0,60.0,11.0,64.0
4273,71.0,0.0,60.0,8.0,64.0
4274,59.0,43.0,60.0,11.0,64.0
4275,66.0,4.0,60.0,10.0,64.0
4276,78.0,84.0,90.0,0.0,64.0
4277,73.0,12.0,90.0,8.0,64.0
4278,66.0,13.0,90.0,10.0,64.0
4279,58.0,12.0,60.0,11.0,64.0
4280,78.0,67.0,90.0,0.0,64.0
4281,76.0,17.0,40.0,8.0,64.0
4282,58.0,23.0,60.0,11.0,64.0
4283,78.0,2.0,90.0,0.0,64.0
4284,73.0,1.0,60.0,10.0,64.0
4285,75.0,3.0,40.0,8.0,64.0
4286,71.0,69.0,40.0,10.0,64.0
4287,76.0,13.0,60.0,8.0,64.0
4288,73.0,4.0,60.0,10.0,64.0
4289,58.0,30.0,60.0,11.0,64.0
4290,78.0,68.0,90.0,0.0,64.0
4291,85.0,4.0,60.0,8.0,64.0
4292,85.0,8.0,40.0,4.0,64.0
4293,66.0,1.0,40.0,10.0,64.0
4294,78.0,8.0,90.0,0.0,64.0
4295,54.0,2.0,60.0,7.0,64.0
4296,78.0,4.0,90.0,2.0,64.0
4297,70.0,2.0,60.0,6.0,64.0
4298,78.0,3.0,90.0,1.0,64.0
4299,66.0,4.0,40.0,5.0,64.0
4300,58.0,5.0,60.0,11.0,64.0
4301,54.0,17.0,60.0,12.0,64.0
4302,68.0,2.0,40.0,10.0,64.0
4303,68.0,58.0,40.0,5.0,64.0
4304,70.0,4.0,60.0,10.0,64.0
4305,73.0,0.0,40.0,8.0,64.0
4306,73.0,3.0,60.0,4.0,64.0
4307,78.0,3.0,90.0,2.0,64.0
4308,70.0,4.0,40.0,5.0,64.0
4309,78.0,3.0,90.0,1.0,64.0
4310,61.0,10.0,60.0,11.0,64.0
4311,66.0,0.0,40.0,7.0,64.0
4312,70.0,3.0,60.0,6.0,64.0
4313,66.0,20.0,60.0,12.0,64.0
4314,78.0,1.0,90.0,0.0,64.0
4315,71.0,63.0,60.0,5.0,64.0
4316,71.0,2.0,40.0,10.0,64.0
4317,75.0,1.0,40.0,8.0,64.0
4318,76.0,5.0,60.0,8.0,64.0
4319,73.0,8.0,40.0,10.0,64.0
4320,73.0,14.0,60.0,5.0,64.0
4321,58.0,0.0,60.0,11.0,64.0
4322,78.0,50.0,90.0,1.0,64.0
4323,78.0,13.0,60.0,0.0,64.0
4324,70.0,2.0,40.0,6.0,64.0
4325,78.0,4.0,90.0,2.0,64.0
4326,54.0,0.0,40.0,7.0,64.0
4327,76.0,2.0,40.0,4.0,64.0
4328,54.0,1.0,40.0,12.0,64.0
4329,75.0,4.0,30.0,10.0,64.0
4330,54.0,3.0,60.0,11.0,64.0
4331,78.0,3.0,30.0,8.0,64.0
4332,59.0,0.0,60.0,7.0,64.0
4333,75.0,12.0,30.0,5.0,64.0
4334,78.0,1.0,30.0,4.0,64.0
4335,59.0,5.0,60.0,12.0,64.0
4336,66.0,7.0,40.0,6.0,64.0
4337,78.0,16.0,240.0,0.0,64.0
4338,78.0,3.0,240.0,1.0,64.0
4339,78.0,3.0,240.0,2.0,64.0
4340,73.0,2.0,30.0,10.0,64.0
4341,76.0,0.0,30.0,8.0,64.0
4342,73.0,0.0,30.0,5.0,64.0
4343,76.0,23.0,30.0,4.0,64.0
4344,78.0,3.0,40.0,8.0,64.0
4345,75.0,2.0,40.0,10.0,64.0
4346,75.0,1.0,30.0,5.0,64.0
4347,78.0,21.0,30.0,4.0,64.0
4348,76.0,45.0,40.0,8.0,64.0
4349,73.0,2.0,40.0,10.0,64.0
4350,76.0,2.0,30.0,4.0,64.0
4351,73.0,3.0,30.0,5.0,64.0
4352,75.0,10.0,150.0,8.0,64.0
4353,71.0,5.0,150.0,10.0,64.0
4354,75.0,21.0,150.0,4.0,64.0
4355,54.0,1.0,40.0,7.0,64.0
4356,54.0,64.0,60.0,12.0,64.0
4357,59.0,7.0,40.0,11.0,64.0
4358,71.0,1.0,120.0,5.0,64.0
4359,66.0,1.0,150.0,6.0,64.0
4360,59.0,42.0,60.0,11.0,64.0
4361,47.0,0.0,90.0,12.0,64.0
4362,47.0,76.0,90.0,7.0,64.0
4363,59.0,8.0,60.0,11.0,64.0
4364,71.0,34.0,60.0,10.0,64.0
4365,80.0,7.0,90.0,0.0,64.0
4366,75.0,0.0,40.0,8.0,64.0
4367,70.0,13.0,40.0,10.0,64.0
4368,73.0,54.0,60.0,8.0,64.0
4369,71.0,8.0,60.0,10.0,64.0
4370,80.0,58.0,90.0,0.0,64.0
4371,75.0,7.0,60.0,8.0,64.0
4372,59.0,40.0,60.0,11.0,64.0
4373,73.0,8.0,40.0,10.0,64.0
4374,77.0,14.0,40.0,8.0,64.0
4375,80.0,91.0,90.0,0.0,64.0
4376,59.0,35.0,60.0,11.0,64.0
4377,80.0,56.0,90.0,0.0,64.0
4378,75.0,9.0,90.0,10.0,64.0
4379,60.0,12.0,60.0,11.0,64.0
4380,78.0,15.0,90.0,8.0,64.0
4381,78.0,14.0,40.0,10.0,64.0
4382,80.0,79.0,90.0,0.0,64.0
4383,60.0,22.0,60.0,11.0,64.0
4384,82.0,11.0,40.0,8.0,64.0
4385,77.0,8.0,30.0,10.0,64.0
4386,80.0,2.0,40.0,8.0,64.0
4387,75.0,7.0,60.0,10.0,64.0
4388,78.0,36.0,60.0,8.0,64.0
4389,60.0,7.0,60.0,11.0,64.0
4390,80.0,55.0,90.0,0.0,64.0
4391,68.0,14.0,40.0,10.0,64.0
4392,56.0,2.0,90.0,12.0,64.0
4393,60.0,1.0,60.0,11.0,64.0
4394,56.0,14.0,60.0,7.0,64.0
4395,87.0,4.0,60.0,4.0,64.0
4396,80.0,1.0,90.0,1.0,64.0
4397,87.0,8.0,60.0,8.0,64.0
4398,80.0,3.0,90.0,0.0,64.0
4399,72.0,1.0,60.0,6.0,64.0
4400,80.0,11.0,90.0,2.0,64.0
4401,68.0,6.0,60.0,5.0,64.0
4402,70.0,7.0,60.0,10.0,64.0
4403,70.0,41.0,60.0,5.0,64.0
4404,72.0,7.0,40.0,10.0,64.0
4405,80.0,13.0,90.0,2.0,64.0
4406,63.0,4.0,60.0,11.0,64.0
4407,80.0,2.0,90.0,1.0,64.0
4408,72.0,13.0,40.0,5.0,64.0
4409,68.0,0.0,60.0,7.0,64.0
4410,75.0,5.0,60.0,4.0,64.0
4411,80.0,9.0,60.0,0.0,64.0
4412,68.0,6.0,60.0,12.0,64.0
4413,75.0,3.0,60.0,8.0,64.0
4414,72.0,5.0,60.0,6.0,64.0
4415,73.0,2.0,60.0,10.0,64.0
4416,73.0,2.0,40.0,5.0,64.0
4417,77.0,54.0,40.0,8.0,64.0
4418,60.0,5.0,60.0,11.0,64.0
4419,75.0,12.0,40.0,10.0,64.0
4420,56.0,3.0,60.0,7.0,64.0
4421,75.0,12.0,60.0,5.0,64.0
4422,80.0,3.0,60.0,0.0,64.0
4423,78.0,0.0,60.0,8.0,64.0
4424,56.0,3.0,60.0,12.0,64.0
4425,80.0,53.0,90.0,2.0,64.0
4426,80.0,3.0,90.0,1.0,64.0
4427,78.0,3.0,40.0,4.0,64.0
4428,72.0,1.0,40.0,6.0,64.0
4429,77.0,9.0,30.0,10.0,64.0
4430,61.0,9.0,60.0,12.0,64.0
4431,68.0,6.0,40.0,11.0,64.0
4432,77.0,3.0,30.0,5.0,64.0
4433,77.0,2.0,30.0,10.0,64.0
4434,61.0,0.0,60.0,7.0,64.0
4435,68.0,5.0,40.0,6.0,64.0
4436,80.0,2.0,30.0,4.0,64.0
4437,80.0,33.0,270.0,1.0,64.0
4438,80.0,6.0,30.0,8.0,64.0
4439,80.0,2.0,240.0,2.0,64.0
4440,80.0,1.0,240.0,0.0,64.0
4441,49.0,6.0,60.0,3.0,64.0
4442,75.0,2.0,30.0,5.0,64.0
4443,78.0,5.0,30.0,4.0,64.0
4444,75.0,5.0,30.0,10.0,64.0
4445,78.0,5.0,30.0,8.0,64.0
4446,80.0,1.0,30.0,4.0,64.0
4447,77.0,9.0,30.0,5.0,64.0
4448,77.0,17.0,40.0,10.0,64.0
4449,80.0,0.0,30.0,8.0,64.0
4450,81.0,1.0,15.0,8.0,64.0
4451,75.0,3.0,40.0,5.0,64.0
4452,78.0,2.0,40.0,4.0,64.0
4453,78.0,42.0,40.0,8.0,64.0
4454,75.0,8.0,30.0,10.0,64.0
4455,73.0,0.0,150.0,5.0,64.0
4456,73.0,2.0,150.0,10.0,64.0
4457,56.0,71.0,60.0,12.0,64.0
4458,77.0,4.0,150.0,8.0,64.0
4459,56.0,13.0,40.0,7.0,64.0
4460,77.0,4.0,150.0,4.0,64.0
4461,68.0,4.0,120.0,11.0,64.0
4462,68.0,1.0,120.0,6.0,64.0
4463,49.0,5.0,60.0,7.0,64.0
4464,49.0,103.0,60.0,12.0,64.0
4465,49.0,11.0,60.0,12.0,64.0
4466,49.0,4.0,60.0,7.0,64.0
4467,85.0,3.0,40.0,8.0,64.0
4468,77.0,1.0,60.0,10.0,64.0
4469,68.0,3.0,40.0,11.0,64.0
4470,73.0,0.0,60.0,2.0,64.0
4471,85.0,4.0,40.0,4.0,64.0
4472,68.0,0.0,40.0,6.0,64.0
4473,77.0,4.0,40.0,5.0,64.0
4474,80.0,18.0,60.0,1.0,64.0
4475,85.0,1.0,40.0,0.0,64.0
4476,84.0,2.0,60.0,8.0,64.0
4477,75.0,5.0,40.0,10.0,64.0
4478,66.0,2.0,40.0,6.0,64.0
4479,75.0,0.0,40.0,5.0,64.0
4480,66.0,0.0,40.0,11.0,64.0
4481,84.0,3.0,40.0,4.0,64.0
4482,84.0,60.0,40.0,0.0,64.0
4483,87.0,2.0,60.0,8.0,64.0
4484,49.0,75.0,90.0,12.0,64.0
4485,78.0,3.0,60.0,10.0,64.0
4486,78.0,1.0,60.0,5.0,64.0
4487,70.0,3.0,60.0,11.0,64.0
4488,70.0,0.0,40.0,6.0,64.0
4489,49.0,19.0,60.0,7.0,64.0
4490,87.0,5.0,60.0,0.0,64.0
4491,87.0,0.0,40.0,4.0,64.0
4492,78.0,3.0,60.0,2.0,64.0
4493,82.0,0.0,60.0,1.0,64.0
4494,49.0,46.0,90.0,12.0,64.0
4495,85.0,2.0,40.0,8.0,64.0
4496,73.0,6.0,60.0,2.0,64.0
4497,77.0,2.0,40.0,10.0,64.0
4498,68.0,0.0,40.0,6.0,64.0
4499,77.0,5.0,40.0,5.0,64.0
4500,85.0,4.0,40.0,4.0,64.0
4501,49.0,23.0,60.0,7.0,64.0
4502,80.0,2.0,40.0,1.0,64.0
4503,68.0,0.0,40.0,11.0,64.0
4504,85.0,1.0,40.0,0.0,64.0
4505,77.0,6.0,30.0,10.0,64.0
4506,80.0,6.0,30.0,1.0,64.0
4507,85.0,2.0,30.0,8.0,64.0
4508,85.0,7.0,30.0,4.0,64.0
4509,49.0,6.0,90.0,12.0,64.0
4510,49.0,0.0,60.0,7.0,64.0
4511,75.0,3.0,40.0,5.0,64.0
4512,66.0,0.0,40.0,6.0,64.0
4513,66.0,15.0,40.0,11.0,64.0
4514,85.0,6.0,30.0,0.0,64.0
4515,66.0,0.0,60.0,2.0,64.0
4516,75.0,2.0,30.0,10.0,64.0
4517,84.0,4.0,30.0,8.0,64.0
4518,78.0,1.0,30.0,1.0,64.0
4519,84.0,1.0,20.0,4.0,64.0
4520,49.0,4.0,60.0,3.0,64.0
4521,84.0,5.0,40.0,0.0,64.0
4522,77.0,7.0,30.0,10.0,64.0
4523,85.0,1.0,40.0,8.0,64.0
4524,80.0,2.0,40.0,1.0,64.0
4525,85.0,4.0,30.0,4.0,64.0
4526,85.0,3.0,30.0,0.0,64.0
4527,75.0,1.0,30.0,10.0,64.0
4528,84.0,2.0,30.0,8.0,64.0
4529,84.0,3.0,40.0,4.0,64.0
4530,78.0,8.0,30.0,1.0,64.0
4531,84.0,69.0,30.0,0.0,64.0
4532,77.0,3.0,150.0,10.0,64.0
4533,80.0,6.0,150.0,1.0,64.0
4534,85.0,1.0,150.0,8.0,64.0
4535,85.0,1.0,150.0,4.0,64.0
4536,49.0,22.0,60.0,7.0,64.0
4537,49.0,56.0,90.0,12.0,64.0
4538,68.0,3.0,150.0,6.0,64.0
4539,68.0,4.0,150.0,11.0,64.0
4540,85.0,1.0,150.0,0.0,64.0
4541,77.0,21.0,150.0,5.0,64.0
4542,73.0,1.0,150.0,2.0,64.0
4543,49.0,72.0,90.0,12.0,64.0
4544,49.0,29.0,60.0,7.0,64.0
4545,49.0,1.0,90.0,12.0,64.0
4546,49.0,4.0,60.0,7.0,64.0
4547,77.0,3.0,40.0,6.0,64.0
4548,80.0,4.0,40.0,10.0,64.0
4549,73.0,17.0,60.0,2.0,64.0
4550,83.0,0.0,40.0,8.0,64.0
4551,77.0,5.0,60.0,11.0,64.0
4552,80.0,2.0,40.0,1.0,64.0
4553,80.0,3.0,40.0,5.0,64.0
4554,83.0,4.0,40.0,0.0,64.0
4555,83.0,0.0,40.0,4.0,64.0
4556,82.0,13.0,40.0,4.0,64.0
4557,82.0,0.0,40.0,8.0,64.0
4558,82.0,2.0,40.0,0.0,64.0
4559,78.0,1.0,40.0,5.0,64.0
4560,78.0,4.0,40.0,1.0,64.0
4561,78.0,61.0,40.0,10.0,64.0
4562,49.0,80.0,90.0,12.0,64.0
4563,82.0,2.0,40.0,1.0,64.0
4564,85.0,1.0,40.0,4.0,64.0
4565,49.0,3.0,60.0,7.0,64.0
4566,73.0,2.0,40.0,6.0,64.0
4567,73.0,7.0,60.0,2.0,64.0
4568,77.0,1.0,60.0,10.0,64.0
4569,85.0,0.0,40.0,8.0,64.0
4570,73.0,2.0,40.0,11.0,64.0
4571,85.0,0.0,60.0,0.0,64.0
4572,77.0,18.0,60.0,5.0,64.0
4573,49.0,3.0,60.0,7.0,64.0
4574,77.0,1.0,40.0,6.0,64.0
4575,77.0,3.0,60.0,11.0,64.0
4576,49.0,62.0,90.0,12.0,64.0
4577,80.0,2.0,40.0,10.0,64.0
4578,80.0,1.0,40.0,1.0,64.0
4579,83.0,4.0,40.0,4.0,64.0
4580,73.0,4.0,40.0,2.0,64.0
4581,83.0,1.0,40.0,8.0,64.0
4582,80.0,0.0,40.0,5.0,64.0
4583,83.0,24.0,60.0,0.0,64.0
4584,49.0,17.0,90.0,12.0,64.0
4585,73.0,1.0,40.0,11.0,64.0
4586,80.0,2.0,30.0,5.0,64.0
4587,83.0,2.0,30.0,4.0,64.0
4588,49.0,2.0,60.0,7.0,64.0
4589,80.0,3.0,30.0,10.0,64.0
4590,66.0,2.0,40.0,2.0,64.0
4591,73.0,4.0,40.0,6.0,64.0
4592,83.0,1.0,20.0,8.0,64.0
4593,83.0,1.0,30.0,0.0,64.0
4594,80.0,7.0,30.0,1.0,64.0
4595,49.0,2.0,60.0,3.0,64.0
4596,78.0,1.0,30.0,5.0,64.0
4597,78.0,0.0,30.0,10.0,64.0
4598,82.0,4.0,30.0,0.0,64.0
4599,82.0,1.0,20.0,8.0,64.0
4600,82.0,4.0,15.0,4.0,64.0
4601,78.0,17.0,30.0,1.0,64.0
4602,80.0,4.0,30.0,5.0,64.0
4603,80.0,1.0,40.0,10.0,64.0
4604,83.0,0.0,30.0,4.0,64.0
4605,80.0,1.0,40.0,1.0,64.0
4606,83.0,3.0,30.0,8.0,64.0
4607,83.0,2.0,30.0,0.0,64.0
4608,78.0,0.0,40.0,5.0,64.0
4609,82.0,4.0,40.0,4.0,64.0
4610,78.0,1.0,40.0,10.0,64.0
4611,82.0,1.0,30.0,0.0,64.0
4612,82.0,58.0,30.0,8.0,64.0
4613,78.0,0.0,30.0,1.0,64.0
4614,77.0,4.0,150.0,10.0,64.0
4615,49.0,25.0,60.0,7.0,64.0
4616,77.0,0.0,150.0,5.0,64.0
4617,83.0,6.0,150.0,8.0,64.0
4618,49.0,57.0,60.0,12.0,64.0
4619,73.0,2.0,150.0,2.0,64.0
4620,68.0,4.0,150.0,6.0,64.0
4621,83.0,2.0,150.0,4.0,64.0
4622,68.0,14.0,150.0,11.0,64.0
4623,80.0,3.0,150.0,1.0,64.0
4624,83.0,26.0,150.0,0.0,64.0
4625,49.0,6.0,60.0,7.0,64.0
4626,49.0,85.0,90.0,12.0,64.0
4627,49.0,4.0,60.0,7.0,64.0
4628,49.0,10.0,90.0,12.0,64.0
4629,81.0,2.0,60.0,8.0,64.0
4630,73.0,5.0,40.0,11.0,64.0
4631,78.0,1.0,40.0,10.0,64.0
4632,78.0,2.0,40.0,5.0,64.0
4633,73.0,3.0,40.0,6.0,64.0
4634,81.0,13.0,40.0,4.0,64.0
4635,80.0,16.0,40.0,8.0,64.0
4636,77.0,2.0,60.0,10.0,64.0
4637,71.0,0.0,40.0,11.0,64.0
4638,77.0,52.0,40.0,5.0,64.0
4639,80.0,2.0,40.0,4.0,64.0
4640,71.0,1.0,40.0,6.0,64.0
4641,83.0,4.0,60.0,8.0,64.0
4642,80.0,8.0,40.0,10.0,64.0
4643,49.0,80.0,90.0,12.0,64.0
4644,74.0,3.0,60.0,11.0,64.0
4645,74.0,15.0,60.0,6.0,64.0
4646,49.0,2.0,60.0,7.0,64.0
4647,80.0,5.0,40.0,5.0,64.0
4648,83.0,8.0,60.0,4.0,64.0
4649,81.0,5.0,60.0,8.0,64.0
4650,78.0,2.0,40.0,10.0,64.0
4651,78.0,3.0,60.0,5.0,64.0
4652,49.0,111.0,60.0,12.0,64.0
4653,73.0,1.0,60.0,11.0,64.0
4654,81.0,8.0,40.0,4.0,64.0
4655,73.0,0.0,40.0,6.0,64.0
4656,49.0,9.0,60.0,7.0,64.0
4657,77.0,3.0,60.0,5.0,64.0
4658,80.0,221.0,90.0,8.0,64.0
4659,77.0,5.0,60.0,10.0,64.0
4660,49.0,93.0,2250.0,12.0,64.0
4661,71.0,1.0,60.0,11.0,64.0
4662,71.0,3.0,60.0,6.0,64.0
4663,49.0,10.0,2250.0,7.0,64.0
4664,80.0,12.0,60.0,4.0,64.0
4665,81.0,5.0,210.0,8.0,64.0
4666,81.0,203.0,210.0,4.0,64.0
4667,78.0,2.0,60.0,5.0,64.0
4668,73.0,25.0,60.0,11.0,64.0
4669,73.0,5.0,60.0,6.0,64.0
4670,78.0,2.0,60.0,10.0,64.0
4671,78.0,12.0,210.0,8.0,64.0
4672,78.0,206.0,210.0,4.0,64.0
4673,73.0,6.0,60.0,5.0,64.0
4674,69.0,17.0,60.0,11.0,64.0
4675,73.0,1.0,60.0,10.0,64.0
4676,69.0,0.0,60.0,6.0,64.0
4677,79.0,205.0,240.0,8.0,64.0
4678,79.0,4.0,210.0,4.0,64.0
4679,74.0,2.0,60.0,10.0,64.0
4680,74.0,1.0,60.0,5.0,64.0
4681,71.0,6.0,60.0,11.0,64.0
4682,71.0,20.0,60.0,6.0,64.0
4683,77.0,221.0,210.0,8.0,64.0
4684,77.0,11.0,180.0,4.0,64.0
4685,71.0,5.0,60.0,10.0,64.0
4686,68.0,6.0,60.0,6.0,64.0
4687,71.0,3.0,60.0,5.0,64.0
4688,68.0,1.0,60.0,11.0,64.0
4689,78.0,3.0,180.0,4.0,64.0
4690,78.0,213.0,210.0,8.0,64.0
4691,73.0,3.0,60.0,10.0,64.0
4692,69.0,0.0,60.0,6.0,64.0
4693,73.0,2.0,60.0,5.0,64.0
4694,69.0,11.0,60.0,11.0,64.0
4695,74.0,18.0,210.0,4.0,64.0
4696,74.0,206.0,240.0,8.0,64.0
4697,78.0,2.0,60.0,10.0,64.0
4698,78.0,1.0,60.0,5.0,64.0
4699,69.0,3.0,60.0,6.0,64.0
4700,69.0,18.0,60.0,11.0,64.0
4701,73.0,10.0,210.0,4.0,64.0
4702,73.0,198.0,210.0,8.0,64.0
4703,78.0,0.0,60.0,10.0,64.0
4704,69.0,6.0,60.0,11.0,64.0
4705,69.0,5.0,60.0,6.0,64.0
4706,78.0,5.0,60.0,5.0,64.0
4707,72.0,5.0,180.0,8.0,64.0
4708,72.0,4.0,180.0,4.0,64.0
4709,78.0,9.0,60.0,10.0,64.0
4710,78.0,4.0,60.0,5.0,64.0
4711,69.0,0.0,60.0,6.0,64.0
4712,69.0,96.0,60.0,11.0,64.0
4713,73.0,12.0,60.0,8.0,64.0
4714,73.0,92.0,60.0,4.0,64.0
4715,75.0,6.0,40.0,10.0,64.0
4716,69.0,1.0,40.0,11.0,64.0
4717,66.0,2.0,40.0,6.0,64.0
4718,75.0,34.0,40.0,5.0,64.0
4719,84.0,2.0,30.0,8.0,64.0
4720,84.0,1.0,30.0,4.0,64.0
4721,68.0,8.0,150.0,11.0,64.0
4722,77.0,6.0,150.0,10.0,64.0
4723,61.0,8.0,60.0,7.0,64.0
4724,77.0,2.0,150.0,5.0,64.0
4725,85.0,9.0,150.0,8.0,64.0
4726,85.0,3.0,180.0,4.0,64.0
4727,68.0,6.0,120.0,6.0,64.0
4728,61.0,33.0,60.0,12.0,64.0
4729,60.0,8.0,60.0,7.0,64.0
4730,60.0,32.0,40.0,12.0,64.0
4731,61.0,4.0,60.0,7.0,64.0
4732,61.0,108.0,60.0,12.0,64.0
4733,49.0,2.0,60.0,7.0,64.0
4734,77.0,4.0,60.0,10.0,64.0
4735,83.0,1.0,60.0,4.0,64.0
4736,49.0,4.0,40.0,3.0,64.0
4737,80.0,1.0,60.0,1.0,64.0
4738,49.0,8.0,60.0,12.0,64.0
4739,83.0,1.0,60.0,8.0,64.0
4740,68.0,7.0,60.0,11.0,64.0
4741,73.0,1.0,60.0,2.0,64.0
4742,83.0,4.0,40.0,0.0,64.0
4743,68.0,2.0,40.0,6.0,64.0
4744,77.0,10.0,60.0,5.0,64.0
4745,82.0,5.0,40.0,8.0,64.0
4746,82.0,4.0,40.0,0.0,64.0
4747,82.0,65.0,40.0,4.0,64.0
4748,83.0,2.0,60.0,8.0,64.0
4749,51.0,3.0,60.0,7.0,64.0
4750,78.0,0.0,60.0,10.0,64.0
4751,83.0,3.0,40.0,0.0,64.0
4752,78.0,4.0,60.0,1.0,64.0
4753,83.0,4.0,60.0,4.0,64.0
4754,66.0,2.0,60.0,11.0,64.0
4755,54.0,0.0,40.0,3.0,64.0
4756,66.0,1.0,60.0,6.0,64.0
4757,51.0,0.0,60.0,12.0,64.0
4758,78.0,4.0,60.0,5.0,64.0
4759,66.0,91.0,60.0,2.0,64.0
4760,80.0,4.0,60.0,10.0,64.0
4761,80.0,1.0,60.0,1.0,64.0
4762,73.0,94.0,90.0,2.0,64.0
4763,53.0,4.0,40.0,7.0,64.0
4764,73.0,0.0,60.0,11.0,64.0
4765,80.0,5.0,60.0,8.0,64.0
4766,73.0,2.0,40.0,6.0,64.0
4767,80.0,2.0,60.0,0.0,64.0
4768,80.0,2.0,60.0,4.0,64.0
4769,49.0,0.0,40.0,3.0,64.0
4770,80.0,4.0,40.0,5.0,64.0
4771,53.0,5.0,60.0,12.0,64.0
4772,78.0,0.0,60.0,10.0,64.0
4773,73.0,8.0,60.0,11.0,64.0
4774,54.0,3.0,60.0,3.0,64.0
4775,78.0,0.0,60.0,1.0,64.0
4776,73.0,4.0,60.0,6.0,64.0
4777,54.0,6.0,60.0,7.0,64.0
4778,73.0,8.0,90.0,2.0,64.0
4779,82.0,2.0,60.0,8.0,64.0
4780,54.0,17.0,60.0,12.0,64.0
4781,82.0,1.0,40.0,0.0,64.0
4782,78.0,1.0,40.0,5.0,64.0
4783,82.0,1.0,40.0,4.0,64.0
4784,83.0,15.0,40.0,8.0,64.0
4785,83.0,3.0,30.0,0.0,64.0
4786,83.0,37.0,60.0,4.0,64.0
4787,85.0,12.0,40.0,8.0,64.0
4788,78.0,1.0,60.0,10.0,64.0
4789,58.0,2.0,60.0,7.0,64.0
4790,58.0,1.0,60.0,12.0,64.0
4791,85.0,2.0,60.0,0.0,64.0
4792,73.0,2.0,60.0,6.0,64.0
4793,78.0,24.0,60.0,1.0,64.0
4794,73.0,1.0,60.0,11.0,64.0
4795,54.0,5.0,40.0,3.0,64.0
4796,73.0,3.0,90.0,2.0,64.0
4797,85.0,2.0,40.0,4.0,64.0
4798,78.0,2.0,40.0,5.0,64.0
4799,87.0,9.0,40.0,8.0,64.0
4800,87.0,5.0,40.0,0.0,64.0
4801,87.0,57.0,40.0,4.0,64.0
4802,80.0,2.0,60.0,10.0,64.0
4803,89.0,2.0,40.0,8.0,64.0
4804,73.0,3.0,60.0,6.0,64.0
4805,83.0,21.0,60.0,1.0,64.0
4806,56.0,1.0,60.0,7.0,64.0
4807,83.0,0.0,60.0,5.0,64.0
4808,73.0,1.0,60.0,11.0,64.0
4809,49.0,5.0,40.0,3.0,64.0
4810,56.0,0.0,60.0,12.0,64.0
4811,73.0,79.0,90.0,2.0,64.0
4812,89.0,2.0,60.0,0.0,64.0
4813,89.0,3.0,60.0,4.0,64.0
4814,82.0,0.0,60.0,10.0,64.0
4815,73.0,2.0,60.0,11.0,64.0
4816,54.0,0.0,60.0,7.0,64.0
4817,82.0,1.0,60.0,1.0,64.0
4818,54.0,0.0,40.0,3.0,64.0
4819,73.0,8.0,40.0,6.0,64.0
4820,54.0,3.0,60.0,12.0,64.0
4821,73.0,90.0,60.0,2.0,64.0
4822,82.0,2.0,40.0,5.0,64.0
4823,90.0,1.0,40.0,8.0,64.0
4824,90.0,11.0,60.0,0.0,64.0
4825,90.0,1.0,40.0,4.0,64.0
4826,73.0,1.0,60.0,11.0,64.0
4827,80.0,1.0,60.0,1.0,64.0
4828,73.0,1.0,60.0,6.0,64.0
4829,83.0,0.0,60.0,5.0,64.0
4830,83.0,4.0,60.0,10.0,64.0
4831,49.0,6.0,40.0,3.0,64.0
4832,61.0,1.0,60.0,12.0,64.0
4833,73.0,0.0,60.0,2.0,64.0
4834,89.0,5.0,40.0,0.0,64.0
4835,61.0,2.0,60.0,7.0,64.0
4836,73.0,0.0,60.0,8.0,64.0
4837,73.0,35.0,60.0,4.0,64.0
4838,87.0,56.0,40.0,0.0,64.0
4839,71.0,5.0,40.0,11.0,64.0
4840,49.0,1.0,40.0,3.0,64.0
4841,80.0,1.0,60.0,1.0,64.0
4842,85.0,1.0,40.0,0.0,64.0
4843,80.0,2.0,40.0,10.0,64.0
4844,73.0,3.0,40.0,6.0,64.0
4845,49.0,1.0,40.0,7.0,64.0
4846,73.0,28.0,60.0,2.0,64.0
4847,49.0,4.0,60.0,12.0,64.0
4848,80.0,4.0,40.0,5.0,64.0
4849,77.0,1.0,40.0,8.0,64.0
4850,77.0,4.0,40.0,4.0,64.0
4851,83.0,71.0,40.0,0.0,64.0
4852,78.0,18.0,120.0,1.0,64.0
4853,70.0,4.0,90.0,11.0,64.0
4854,54.0,39.0,40.0,3.0,64.0
4855,78.0,12.0,150.0,2.0,64.0
4856,82.0,16.0,120.0,0.0,64.0
4857,73.0,6.0,90.0,6.0,64.0
4858,78.0,9.0,60.0,10.0,64.0
4859,78.0,7.0,90.0,5.0,64.0
4860,66.0,20.0,150.0,4.0,64.0
4861,51.0,0.0,240.0,7.0,64.0
4862,51.0,26.0,240.0,12.0,64.0
4863,66.0,3.0,150.0,8.0,64.0
4864,72.0,9.0,60.0,11.0,64.0
4865,75.0,3.0,60.0,10.0,64.0
4866,75.0,12.0,60.0,5.0,64.0
4867,72.0,4.0,60.0,6.0,64.0
4868,80.0,8.0,40.0,1.0,64.0
4869,73.0,2.0,40.0,11.0,64.0
4870,77.0,7.0,40.0,5.0,64.0
4871,77.0,3.0,40.0,10.0,64.0
4872,73.0,39.0,40.0,6.0,64.0
4873,84.0,2.0,30.0,0.0,64.0
4874,68.0,2.0,30.0,8.0,64.0
4875,68.0,1.0,30.0,4.0,64.0
4876,78.0,1.0,60.0,10.0,64.0
4877,75.0,1.0,60.0,11.0,64.0
4878,82.0,6.0,60.0,1.0,64.0
4879,78.0,2.0,60.0,5.0,64.0
4880,75.0,2.0,60.0,6.0,64.0
4881,78.0,0.0,150.0,2.0,64.0
4882,54.0,3.0,60.0,3.0,64.0
4883,85.0,15.0,60.0,0.0,64.0
4884,70.0,4.0,90.0,8.0,64.0
4885,70.0,3.0,60.0,4.0,64.0
4886,80.0,0.0,30.0,1.0,64.0
4887,72.0,4.0,60.0,8.0,64.0
4888,84.0,31.0,30.0,0.0,64.0
4889,72.0,10.0,60.0,4.0,64.0
4890,85.0,3.0,30.0,0.0,64.0
4891,82.0,6.0,30.0,1.0,64.0
4892,78.0,1.0,60.0,10.0,64.0
4893,80.0,3.0,30.0,1.0,64.0
4894,73.0,1.0,60.0,8.0,64.0
4895,84.0,25.0,30.0,0.0,64.0
4896,75.0,3.0,60.0,11.0,64.0
4897,75.0,1.0,60.0,6.0,64.0
4898,78.0,2.0,60.0,5.0,64.0
4899,73.0,2.0,60.0,4.0,64.0
4900,53.0,2.0,40.0,12.0,64.0
4901,53.0,5.0,60.0,7.0,64.0
4902,85.0,6.0,30.0,0.0,64.0
4903,82.0,1.0,30.0,1.0,64.0
4904,75.0,6.0,40.0,8.0,64.0
4905,84.0,20.0,20.0,0.0,64.0
4906,80.0,1.0,20.0,1.0,64.0
4907,54.0,1.0,40.0,7.0,64.0
4908,75.0,3.0,40.0,4.0,64.0
4909,54.0,0.0,40.0,12.0,64.0
4910,82.0,0.0,30.0,1.0,64.0
4911,85.0,21.0,30.0,0.0,64.0
4912,84.0,1.0,20.0,0.0,64.0
4913,80.0,27.0,20.0,1.0,64.0
4914,73.0,14.0,90.0,8.0,64.0
4915,56.0,3.0,60.0,12.0,64.0
4916,75.0,1.0,60.0,11.0,64.0
4917,78.0,2.0,60.0,10.0,64.0
4918,56.0,3.0,60.0,7.0,64.0
4919,66.0,10.0,120.0,2.0,64.0
4920,78.0,1.0,60.0,5.0,64.0
4921,73.0,0.0,60.0,4.0,64.0
4922,75.0,1.0,60.0,6.0,64.0
4923,85.0,3.0,30.0,0.0,64.0
4924,82.0,9.0,30.0,1.0,64.0
4925,84.0,5.0,30.0,0.0,64.0
4926,80.0,12.0,30.0,1.0,64.0
4927,72.0,2.0,60.0,8.0,64.0
4928,72.0,1.0,60.0,4.0,64.0
4929,85.0,1.0,15.0,0.0,64.0
4930,82.0,13.0,30.0,1.0,64.0
4931,84.0,12.0,30.0,0.0,64.0
4932,80.0,10.0,30.0,1.0,64.0
4933,85.0,1.0,40.0,0.0,64.0
4934,70.0,2.0,60.0,8.0,64.0
4935,82.0,18.0,30.0,1.0,64.0
4936,72.0,1.0,60.0,11.0,64.0
4937,70.0,2.0,60.0,4.0,64.0
4938,78.0,0.0,60.0,10.0,64.0
4939,44.0,1.0,40.0,7.0,64.0
4940,84.0,10.0,40.0,0.0,64.0
4941,44.0,3.0,60.0,12.0,64.0
4942,78.0,16.0,60.0,5.0,64.0
4943,72.0,1.0,40.0,6.0,64.0
4944,80.0,0.0,30.0,1.0,64.0
4945,82.0,2.0,60.0,0.0,64.0
4946,82.0,15.0,30.0,1.0,64.0
4947,68.0,10.0,40.0,8.0,64.0
4948,68.0,1.0,30.0,4.0,64.0
4949,80.0,7.0,40.0,1.0,64.0
4950,84.0,62.0,30.0,0.0,64.0
4951,78.0,1.0,60.0,8.0,64.0
4952,78.0,2.0,60.0,4.0,64.0
4953,80.0,4.0,240.0,1.0,64.0
4954,73.0,4.0,240.0,2.0,64.0
4955,78.0,14.0,60.0,10.0,64.0
4956,68.0,2.0,240.0,11.0,64.0
4957,68.0,1.0,240.0,6.0,64.0
4958,49.0,42.0,60.0,3.0,64.0
4959,78.0,5.0,40.0,5.0,64.0
4960,85.0,1.0,240.0,0.0,64.0
4961,49.0,0.0,240.0,7.0,64.0
4962,49.0,38.0,270.0,12.0,64.0
4963,77.0,38.0,60.0,8.0,64.0
4964,77.0,2.0,60.0,4.0,64.0
4965,75.0,41.0,40.0,8.0,64.0
4966,75.0,6.0,40.0,4.0,64.0
4967,77.0,7.0,120.0,10.0,64.0
4968,77.0,13.0,120.0,5.0,64.0
4969,73.0,11.0,30.0,4.0,64.0
4970,73.0,28.0,40.0,8.0,64.0
4971,83.0,96.0,90.0,4.0,64.0
4972,83.0,1.0,60.0,8.0,64.0
4973,80.0,1.0,60.0,10.0,64.0
4974,54.0,2.0,40.0,7.0,64.0
4975,80.0,49.0,60.0,5.0,64.0
4976,73.0,0.0,40.0,6.0,64.0
4977,73.0,8.0,40.0,11.0,64.0
4978,54.0,1.0,40.0,12.0,64.0
4979,53.0,58.0,60.0,7.0,64.0
4980,53.0,3.0,40.0,12.0,64.0
4981,82.0,19.0,90.0,4.0,64.0
4982,82.0,2.0,60.0,10.0,64.0
4983,54.0,2.0,60.0,7.0,64.0
4984,73.0,0.0,60.0,6.0,64.0
4985,82.0,1.0,60.0,5.0,64.0
4986,54.0,23.0,60.0,12.0,64.0
4987,82.0,66.0,90.0,8.0,64.0
4988,73.0,2.0,40.0,11.0,64.0
4989,73.0,1.0,40.0,6.0,64.0
4990,83.0,3.0,60.0,5.0,64.0
4991,83.0,2.0,40.0,10.0,64.0
4992,56.0,3.0,40.0,7.0,64.0
4993,73.0,0.0,40.0,11.0,64.0
4994,56.0,95.0,40.0,12.0,64.0
4995,54.0,10.0,30.0,7.0,64.0
4996,73.0,6.0,240.0,11.0,64.0
4997,73.0,7.0,240.0,6.0,64.0
4998,82.0,22.0,60.0,5.0,64.0
4999,80.0,0.0,240.0,10.0,64.0
5000,54.0,14.0,30.0,12.0,64.0
5001,53.0,9.0,30.0,7.0,64.0
5002,53.0,4.0,30.0,12.0,64.0
5003,54.0,9.0,40.0,7.0,64.0
5004,54.0,28.0,40.0,12.0,64.0
5005,80.0,2.0,210.0,5.0,64.0
5006,53.0,24.0,40.0,7.0,64.0
5007,53.0,1.0,40.0,12.0,64.0
5008,51.0,3.0,40.0,12.0,64.0
5009,51.0,24.0,40.0,7.0,64.0
5010,83.0,43.0,60.0,8.0,64.0
5011,83.0,2.0,40.0,4.0,64.0
5012,49.0,2.0,60.0,12.0,64.0
5013,49.0,27.0,40.0,7.0,64.0
5014,82.0,1.0,30.0,8.0,64.0
5015,61.0,3.0,60.0,12.0,64.0
5016,82.0,26.0,20.0,4.0,64.0
5017,61.0,19.0,60.0,7.0,64.0
5018,80.0,21.0,30.0,8.0,64.0
5019,80.0,1.0,30.0,4.0,64.0
5020,82.0,20.0,40.0,4.0,64.0
5021,82.0,0.0,40.0,8.0,64.0
5022,80.0,54.0,40.0,8.0,64.0
5023,80.0,1.0,40.0,4.0,64.0
5024,78.0,3.0,60.0,8.0,64.0
5025,78.0,30.0,60.0,4.0,64.0
5026,73.0,1.0,60.0,11.0,64.0
5027,80.0,0.0,60.0,10.0,64.0
5028,73.0,0.0,40.0,6.0,64.0
5029,80.0,4.0,40.0,5.0,64.0
5030,77.0,35.0,60.0,4.0,64.0
5031,77.0,10.0,40.0,8.0,64.0
5032,87.0,10.0,90.0,8.0,64.0
5033,82.0,4.0,20.0,10.0,64.0
5034,75.0,15.0,60.0,11.0,64.0
5035,82.0,19.0,20.0,5.0,64.0
5036,75.0,2.0,60.0,6.0,64.0
5037,87.0,1.0,90.0,4.0,64.0
5038,59.0,2.0,90.0,12.0,64.0
5039,80.0,2.0,30.0,10.0,64.0
5040,59.0,17.0,90.0,7.0,64.0
5041,80.0,11.0,30.0,5.0,64.0
5042,82.0,1.0,40.0,10.0,64.0
5043,82.0,3.0,40.0,5.0,64.0
5044,80.0,5.0,40.0,5.0,64.0
5045,80.0,34.0,40.0,10.0,64.0
5046,78.0,19.0,40.0,5.0,64.0
5047,78.0,13.0,60.0,10.0,64.0
5048,68.0,19.0,60.0,6.0,64.0
5049,68.0,3.0,60.0,11.0,64.0
5050,77.0,7.0,40.0,5.0,64.0
5051,77.0,117.0,40.0,10.0,64.0
5052,78.0,6.0,120.0,5.0,64.0
5053,85.0,2.0,90.0,8.0,64.0
5054,85.0,2.0,90.0,4.0,64.0
5055,78.0,9.0,90.0,10.0,64.0
5056,70.0,54.0,120.0,6.0,64.0
5057,70.0,10.0,90.0,11.0,64.0
5058,58.0,0.0,40.0,12.0,64.0
5059,58.0,52.0,40.0,7.0,64.0
5060,56.0,3.0,40.0,12.0,64.0
5061,56.0,68.0,40.0,7.0,64.0
5062,58.0,3.0,60.0,12.0,64.0
5063,58.0,123.0,60.0,7.0,64.0
5064,66.0,0.0,60.0,11.0,64.0
5065,59.0,5.0,40.0,12.0,64.0
5066,78.0,0.0,60.0,10.0,64.0
5067,87.0,1.0,40.0,4.0,64.0
5068,66.0,1.0,60.0,6.0,64.0
5069,59.0,2.0,60.0,7.0,64.0
5070,87.0,2.0,40.0,8.0,64.0
5071,78.0,80.0,60.0,5.0,64.0
5072,85.0,2.0,30.0,4.0,64.0
5073,68.0,2.0,60.0,11.0,64.0
5074,68.0,3.0,40.0,6.0,64.0
5075,77.0,3.0,60.0,5.0,64.0
5076,77.0,10.0,60.0,10.0,64.0
5077,85.0,21.0,30.0,8.0,64.0
5078,56.0,1.0,60.0,12.0,64.0
5079,56.0,4.0,60.0,7.0,64.0
5080,83.0,5.0,30.0,4.0,64.0
5081,83.0,3.0,30.0,8.0,64.0
5082,85.0,7.0,40.0,4.0,64.0
5083,85.0,23.0,40.0,8.0,64.0
5084,83.0,6.0,40.0,4.0,64.0
5085,83.0,25.0,40.0,8.0,64.0
5086,82.0,19.0,40.0,4.0,64.0
5087,82.0,3.0,30.0,8.0,64.0
5088,73.0,0.0,60.0,11.0,64.0
5089,78.0,5.0,60.0,10.0,64.0
5090,73.0,3.0,40.0,6.0,64.0
5091,78.0,1.0,40.0,5.0,64.0
5092,54.0,1.0,40.0,12.0,64.0
5093,54.0,34.0,40.0,7.0,64.0
5094,80.0,1.0,40.0,8.0,64.0
5095,80.0,99.0,40.0,4.0,64.0
5096,53.0,1.0,40.0,7.0,64.0
5097,53.0,2.0,30.0,12.0,64.0
5098,90.0,2.0,90.0,8.0,64.0
5099,90.0,13.0,90.0,4.0,64.0
5100,80.0,18.0,300.0,10.0,64.0
5101,60.0,3.0,90.0,7.0,64.0
5102,75.0,180.0,120.0,6.0,64.0
5103,80.0,2.0,300.0,5.0,64.0
5104,60.0,13.0,90.0,12.0,64.0
5105,75.0,9.0,60.0,11.0,64.0
5106,73.0,9.0,60.0,6.0,64.0
5107,61.0,3.0,60.0,7.0,64.0
5108,73.0,7.0,60.0,11.0,64.0
5109,61.0,1.0,60.0,12.0,64.0
5110,89.0,5.0,90.0,4.0,64.0
5111,89.0,64.0,90.0,8.0,64.0
5112,77.0,1.0,60.0,10.0,64.0
5113,49.0,2.0,60.0,12.0,64.0
5114,68.0,1.0,60.0,11.0,64.0
5115,49.0,5.0,60.0,7.0,64.0
5116,68.0,0.0,60.0,6.0,64.0
5117,73.0,7.0,60.0,2.0,64.0
5118,77.0,28.0,60.0,5.0,64.0
5119,83.0,1.0,60.0,8.0,64.0
5120,83.0,10.0,30.0,0.0,64.0
5121,83.0,0.0,40.0,4.0,64.0
5122,49.0,0.0,60.0,3.0,64.0
5123,80.0,2.0,40.0,1.0,64.0
5124,82.0,52.0,60.0,8.0,64.0
5125,82.0,8.0,30.0,0.0,64.0
5126,82.0,13.0,40.0,4.0,64.0
5127,75.0,3.0,60.0,11.0,64.0
5128,51.0,3.0,60.0,12.0,64.0
5129,51.0,1.0,60.0,7.0,64.0
5130,78.0,1.0,60.0,10.0,64.0
5131,75.0,0.0,60.0,6.0,64.0
5132,54.0,5.0,40.0,3.0,64.0
5133,83.0,2.0,40.0,0.0,64.0
5134,66.0,1.0,60.0,2.0,64.0
5135,83.0,2.0,60.0,4.0,64.0
5136,78.0,99.0,60.0,5.0,64.0
5137,78.0,1.0,60.0,1.0,64.0
5138,83.0,1.0,60.0,8.0,64.0
5139,73.0,3.0,60.0,11.0,64.0
5140,80.0,5.0,60.0,10.0,64.0
5141,53.0,2.0,40.0,7.0,64.0
5142,73.0,0.0,60.0,6.0,64.0
5143,80.0,3.0,60.0,1.0,64.0
5144,49.0,2.0,40.0,3.0,64.0
5145,53.0,2.0,40.0,12.0,64.0
5146,85.0,1.0,60.0,0.0,64.0
5147,73.0,0.0,40.0,2.0,64.0
5148,80.0,101.0,60.0,5.0,64.0
5149,85.0,1.0,40.0,4.0,64.0
5150,85.0,4.0,40.0,8.0,64.0
5151,78.0,7.0,60.0,1.0,64.0
5152,54.0,3.0,60.0,7.0,64.0
5153,78.0,3.0,40.0,10.0,64.0
5154,73.0,3.0,60.0,6.0,64.0
5155,73.0,0.0,40.0,11.0,64.0
5156,78.0,1.0,40.0,5.0,64.0
5157,54.0,22.0,60.0,12.0,64.0
5158,73.0,1.0,90.0,2.0,64.0
5159,54.0,1.0,40.0,3.0,64.0
5160,83.0,0.0,40.0,0.0,64.0
5161,83.0,15.0,90.0,8.0,64.0
5162,83.0,3.0,60.0,4.0,64.0
5163,82.0,24.0,40.0,0.0,64.0
5164,82.0,5.0,60.0,4.0,64.0
5165,82.0,31.0,60.0,8.0,64.0
5166,73.0,1.0,60.0,1.0,64.0
5167,73.0,3.0,40.0,6.0,64.0
5168,73.0,4.0,60.0,10.0,64.0
5169,73.0,3.0,40.0,11.0,64.0
5170,80.0,2.0,40.0,0.0,64.0
5171,58.0,1.0,60.0,12.0,64.0
5172,58.0,1.0,60.0,7.0,64.0
5173,80.0,1.0,60.0,4.0,64.0
5174,80.0,33.0,60.0,8.0,64.0
5175,73.0,4.0,40.0,5.0,64.0
5176,78.0,6.0,40.0,0.0,64.0
5177,78.0,6.0,40.0,4.0,64.0
5178,78.0,59.0,40.0,8.0,64.0
5179,78.0,4.0,60.0,1.0,64.0
5180,75.0,0.0,90.0,10.0,64.0
5181,71.0,3.0,90.0,6.0,64.0
5182,59.0,7.0,60.0,12.0,64.0
5183,71.0,6.0,90.0,11.0,64.0
5184,59.0,14.0,60.0,7.0,64.0
5185,82.0,7.0,40.0,0.0,64.0
5186,82.0,5.0,90.0,4.0,64.0
5187,82.0,2.0,90.0,8.0,64.0
5188,75.0,15.0,90.0,5.0,64.0
5189,80.0,3.0,40.0,0.0,64.0
5190,80.0,4.0,60.0,4.0,64.0
5191,80.0,37.0,60.0,8.0,64.0
5192,73.0,1.0,60.0,2.0,64.0
5193,78.0,4.0,40.0,0.0,64.0
5194,70.0,3.0,40.0,11.0,64.0
5195,82.0,5.0,60.0,1.0,64.0
5196,78.0,0.0,60.0,4.0,64.0
5197,73.0,4.0,40.0,10.0,64.0
5198,70.0,3.0,40.0,6.0,64.0
5199,73.0,0.0,40.0,5.0,64.0
5200,78.0,5.0,60.0,8.0,64.0
5201,61.0,6.0,60.0,12.0,64.0
5202,49.0,2.0,40.0,3.0,64.0
5203,61.0,20.0,60.0,7.0,64.0
5204,68.0,3.0,40.0,11.0,64.0
5205,68.0,0.0,40.0,6.0,64.0
5206,77.0,2.0,40.0,4.0,64.0
5207,77.0,0.0,40.0,0.0,64.0
5208,71.0,12.0,40.0,10.0,64.0
5209,77.0,7.0,30.0,8.0,64.0
5210,71.0,48.0,60.0,5.0,64.0
5211,66.0,3.0,60.0,6.0,64.0
5212,82.0,3.0,60.0,1.0,64.0
5213,66.0,4.0,40.0,2.0,64.0
5214,66.0,0.0,60.0,11.0,64.0
5215,78.0,5.0,40.0,4.0,64.0
5216,70.0,4.0,60.0,10.0,64.0
5217,78.0,0.0,60.0,8.0,64.0
5218,63.0,2.0,60.0,12.0,64.0
5219,78.0,0.0,40.0,0.0,64.0
5220,54.0,1.0,40.0,3.0,64.0
5221,63.0,97.0,60.0,7.0,64.0
5222,70.0,0.0,60.0,5.0,64.0
5223,83.0,2.0,60.0,1.0,64.0
5224,59.0,1.0,60.0,12.0,64.0
5225,59.0,10.0,60.0,7.0,64.0
5226,71.0,2.0,60.0,11.0,64.0
5227,75.0,3.0,40.0,10.0,64.0
5228,71.0,0.0,60.0,6.0,64.0
5229,80.0,1.0,60.0,8.0,64.0
5230,80.0,5.0,40.0,4.0,64.0
5231,54.0,1.0,40.0,3.0,64.0
5232,66.0,87.0,60.0,2.0,64.0
5233,80.0,0.0,60.0,0.0,64.0
5234,75.0,1.0,40.0,5.0,64.0
5235,80.0,1.0,90.0,10.0,64.0
5236,73.0,5.0,30.0,4.0,64.0
5237,65.0,2.0,60.0,7.0,64.0
5238,65.0,4.0,60.0,12.0,64.0
5239,80.0,3.0,90.0,5.0,64.0
5240,73.0,7.0,30.0,8.0,64.0
5241,83.0,1.0,90.0,1.0,64.0
5242,68.0,2.0,60.0,11.0,64.0
5243,73.0,15.0,240.0,0.0,64.0
5244,68.0,15.0,60.0,6.0,64.0
5245,49.0,15.0,30.0,3.0,64.0
5246,73.0,2.0,270.0,2.0,64.0
5247,71.0,3.0,40.0,4.0,64.0
5248,71.0,1.0,40.0,8.0,64.0
5249,73.0,35.0,40.0,8.0,64.0
5250,73.0,3.0,30.0,4.0,64.0
5251,71.0,7.0,40.0,4.0,64.0
5252,71.0,17.0,40.0,8.0,64.0
5253,85.0,3.0,30.0,1.0,64.0
5254,78.0,1.0,60.0,10.0,64.0
5255,70.0,0.0,60.0,8.0,64.0
5256,73.0,3.0,60.0,6.0,64.0
5257,61.0,2.0,60.0,12.0,64.0
5258,70.0,2.0,40.0,4.0,64.0
5259,61.0,1.0,60.0,7.0,64.0
5260,61.0,28.0,60.0,11.0,64.0
5261,78.0,3.0,40.0,5.0,64.0
5262,49.0,16.0,20.0,3.0,64.0
5263,77.0,2.0,40.0,5.0,64.0
5264,77.0,10.0,40.0,10.0,64.0
5265,83.0,0.0,40.0,1.0,64.0
5266,68.0,35.0,60.0,8.0,64.0
5267,68.0,4.0,40.0,4.0,64.0
5268,49.0,1.0,40.0,3.0,64.0
5269,70.0,2.0,60.0,8.0,64.0
5270,70.0,0.0,60.0,4.0,64.0
5271,54.0,2.0,40.0,3.0,64.0
5272,78.0,7.0,60.0,10.0,64.0
5273,78.0,9.0,40.0,5.0,64.0
5274,82.0,2.0,60.0,1.0,64.0
5275,66.0,35.0,60.0,7.0,64.0
5276,61.0,6.0,60.0,11.0,64.0
5277,73.0,0.0,60.0,6.0,64.0
5278,66.0,2.0,60.0,12.0,64.0
5279,71.0,4.0,60.0,8.0,64.0
5280,71.0,53.0,60.0,4.0,64.0
5281,73.0,1.0,60.0,8.0,64.0
5282,66.0,5.0,60.0,10.0,64.0
5283,66.0,1.0,40.0,5.0,64.0
5284,73.0,2.0,60.0,6.0,64.0
5285,58.0,33.0,60.0,12.0,64.0
5286,54.0,4.0,40.0,3.0,64.0
5287,58.0,3.0,60.0,7.0,64.0
5288,78.0,2.0,60.0,1.0,64.0
5289,73.0,0.0,60.0,11.0,64.0
5290,73.0,2.0,60.0,4.0,64.0
5291,73.0,2.0,40.0,2.0,64.0
5292,78.0,5.0,40.0,0.0,64.0
5293,75.0,1.0,60.0,8.0,64.0
5294,75.0,39.0,40.0,4.0,64.0
5295,77.0,15.0,40.0,8.0,64.0
5296,73.0,5.0,40.0,5.0,64.0
5297,77.0,0.0,40.0,4.0,64.0
5298,73.0,5.0,40.0,10.0,64.0
5299,71.0,5.0,60.0,6.0,64.0
5300,56.0,10.0,60.0,12.0,64.0
5301,71.0,0.0,60.0,11.0,64.0
5302,83.0,4.0,40.0,1.0,64.0
5303,56.0,5.0,40.0,7.0,64.0
5304,73.0,2.0,40.0,2.0,64.0
5305,80.0,21.0,60.0,0.0,64.0
5306,49.0,0.0,40.0,3.0,64.0
5307,78.0,21.0,60.0,8.0,64.0
5308,78.0,34.0,60.0,4.0,64.0
5309,80.0,8.0,60.0,8.0,64.0
5310,73.0,4.0,60.0,10.0,64.0
5311,80.0,2.0,40.0,4.0,64.0
5312,70.0,2.0,60.0,6.0,64.0
5313,54.0,9.0,60.0,12.0,64.0
5314,70.0,5.0,60.0,11.0,64.0
5315,73.0,4.0,40.0,5.0,64.0
5316,54.0,2.0,60.0,7.0,64.0
5317,73.0,5.0,60.0,2.0,64.0
5318,82.0,3.0,40.0,0.0,64.0
5319,54.0,4.0,40.0,3.0,64.0
5320,82.0,10.0,180.0,1.0,64.0
5321,82.0,3.0,60.0,8.0,64.0
5322,82.0,82.0,40.0,4.0,64.0
5323,83.0,1.0,60.0,8.0,64.0
5324,83.0,1.0,60.0,4.0,64.0
5325,78.0,1.0,60.0,10.0,64.0
5326,78.0,0.0,60.0,5.0,64.0
5327,70.0,4.0,60.0,6.0,64.0
5328,63.0,0.0,60.0,12.0,64.0
5329,70.0,5.0,60.0,11.0,64.0
5330,63.0,19.0,60.0,7.0,64.0
5331,83.0,0.0,40.0,0.0,64.0
5332,66.0,0.0,90.0,2.0,64.0
5333,54.0,8.0,40.0,3.0,64.0
5334,85.0,6.0,60.0,8.0,64.0
5335,85.0,6.0,60.0,4.0,64.0
5336,82.0,36.0,40.0,0.0,64.0
5337,87.0,9.0,40.0,8.0,64.0
5338,87.0,4.0,40.0,4.0,64.0
5339,71.0,7.0,60.0,6.0,64.0
5340,77.0,2.0,40.0,10.0,64.0
5341,77.0,2.0,40.0,5.0,64.0
5342,71.0,5.0,60.0,11.0,64.0
5343,56.0,7.0,60.0,12.0,64.0
5344,83.0,1.0,40.0,0.0,64.0
5345,56.0,21.0,60.0,7.0,64.0
5346,80.0,5.0,40.0,1.0,64.0
5347,83.0,10.0,60.0,8.0,64.0
5348,83.0,0.0,40.0,4.0,64.0
5349,80.0,55.0,40.0,0.0,64.0
5350,66.0,3.0,60.0,6.0,64.0
5351,78.0,2.0,60.0,10.0,64.0
5352,85.0,5.0,40.0,8.0,64.0
5353,78.0,0.0,60.0,5.0,64.0
5354,58.0,3.0,60.0,12.0,64.0
5355,66.0,5.0,60.0,11.0,64.0
5356,58.0,12.0,60.0,7.0,64.0
5357,85.0,9.0,40.0,4.0,64.0
5358,85.0,82.0,60.0,0.0,64.0
5359,78.0,1.0,60.0,1.0,64.0
5360,68.0,0.0,60.0,6.0,64.0
5361,75.0,0.0,60.0,10.0,64.0
5362,71.0,3.0,60.0,11.0,64.0
5363,75.0,0.0,60.0,5.0,64.0
5364,59.0,1.0,60.0,7.0,64.0
5365,59.0,15.0,60.0,12.0,64.0
5366,78.0,3.0,40.0,8.0,64.0
5367,87.0,5.0,40.0,0.0,64.0
5368,54.0,2.0,40.0,3.0,64.0
5369,78.0,0.0,40.0,1.0,64.0
5370,78.0,2.0,30.0,4.0,64.0
5371,66.0,25.0,60.0,2.0,64.0
5372,85.0,70.0,40.0,0.0,64.0
5373,73.0,1.0,60.0,10.0,64.0
5374,61.0,2.0,60.0,7.0,64.0
5375,70.0,1.0,60.0,6.0,64.0
5376,70.0,3.0,60.0,11.0,64.0
5377,61.0,4.0,60.0,12.0,64.0
5378,73.0,4.0,40.0,2.0,64.0
5379,83.0,1.0,40.0,0.0,64.0
5380,73.0,2.0,40.0,8.0,64.0
5381,78.0,0.0,40.0,1.0,64.0
5382,49.0,0.0,40.0,3.0,64.0
5383,73.0,4.0,60.0,4.0,64.0
5384,73.0,24.0,60.0,5.0,64.0
5385,82.0,66.0,30.0,0.0,64.0
5386,80.0,9.0,40.0,0.0,64.0
5387,73.0,3.0,60.0,10.0,64.0
5388,49.0,1.0,60.0,12.0,64.0
5389,68.0,1.0,60.0,11.0,64.0
5390,49.0,0.0,60.0,7.0,64.0
5391,73.0,1.0,40.0,1.0,64.0
5392,71.0,5.0,60.0,6.0,64.0
5393,49.0,6.0,40.0,3.0,64.0
5394,73.0,2.0,40.0,2.0,64.0
5395,73.0,2.0,60.0,5.0,64.0
5396,77.0,4.0,40.0,8.0,64.0
5397,77.0,19.0,40.0,4.0,64.0
5398,82.0,96.0,30.0,0.0,64.0
5399,73.0,1.0,270.0,1.0,64.0
5400,70.0,2.0,270.0,2.0,64.0
5401,73.0,14.0,240.0,10.0,64.0
5402,54.0,196.0,40.0,3.0,64.0
5403,78.0,5.0,270.0,0.0,64.0
5404,70.0,3.0,270.0,11.0,64.0
5405,78.0,3.0,270.0,8.0,64.0
5406,70.0,2.0,240.0,6.0,64.0
5407,42.0,0.0,270.0,12.0,64.0
5408,78.0,4.0,270.0,4.0,64.0
5409,73.0,1.0,270.0,5.0,64.0
5410,54.0,1.0,240.0,7.0,64.0
