,note,step,duration,channel,velocity
0,54.0,0.0,1020.0,2.0,0.0
1,50.0,0.0,1020.0,3.0,0.0
2,57.0,1024.0,1020.0,1.0,0.0
3,62.0,0.0,1020.0,0.0,0.0
4,55.0,1024.0,1020.0,3.0,0.0
5,59.0,0.0,2040.0,1.0,0.0
6,54.0,0.0,1020.0,3.0,0.0
7,62.0,0.0,15.0,0.0,0.0
8,59.0,0.0,1020.0,1.0,0.0
9,55.0,1024.0,15.0,2.0,0.0
10,52.0,0.0,1020.0,3.0,0.0
11,57.0,0.0,2040.0,1.0,0.0
12,69.0,0.0,2040.0,0.0,0.0
13,50.0,1024.0,1020.0,2.0,0.0
14,54.0,0.0,1020.0,3.0,0.0
15,52.0,1024.0,1020.0,2.0,0.0
16,52.0,0.0,1020.0,3.0,0.0
17,54.0,0.0,1020.0,3.0,0.0
18,71.0,0.0,1020.0,0.0,0.0
19,54.0,0.0,1020.0,2.0,0.0
20,62.0,1024.0,1020.0,1.0,0.0
21,52.0,1024.0,1020.0,3.0,0.0
22,72.0,0.0,1020.0,0.0,0.0
23,60.0,0.0,1020.0,1.0,0.0
24,55.0,1024.0,2040.0,2.0,0.0
25,67.0,0.0,1020.0,1.0,0.0
26,48.0,0.0,1020.0,3.0,0.0
27,71.0,0.0,1020.0,0.0,0.0
28,69.0,2048.0,1020.0,0.0,0.0
29,54.0,0.0,1020.0,2.0,0.0
30,50.0,0.0,1020.0,3.0,0.0
31,62.0,0.0,15.0,1.0,0.0
32,67.0,0.0,2040.0,0.0,0.0
33,59.0,1024.0,2040.0,2.0,0.0
34,43.0,0.0,2040.0,3.0,0.0
35,69.0,0.0,1020.0,0.0,0.0
36,62.0,0.0,1020.0,1.0,0.0
37,54.0,1024.0,1020.0,2.0,0.0
38,50.0,0.0,1020.0,3.0,0.0
39,71.0,0.0,2040.0,0.0,0.0
40,62.0,0.0,2040.0,1.0,0.0
41,55.0,1024.0,1020.0,3.0,0.0
42,53.0,0.0,1020.0,3.0,0.0
43,64.0,1024.0,1020.0,1.0,0.0
44,55.0,1024.0,15.0,2.0,0.0
45,73.0,0.0,1020.0,0.0,0.0
46,52.0,0.0,1020.0,3.0,0.0
47,57.0,0.0,2040.0,2.0,0.0
48,74.0,0.0,2040.0,0.0,0.0
49,53.0,1024.0,1020.0,3.0,0.0
50,62.0,0.0,1020.0,1.0,0.0
51,64.0,1024.0,1020.0,1.0,0.0
52,52.0,0.0,1020.0,3.0,0.0
53,57.0,512.0,1020.0,2.0,0.0
54,69.0,0.0,1020.0,0.0,0.0
55,50.0,0.0,1020.0,3.0,0.0
56,65.0,0.0,1020.0,1.0,0.0
57,72.0,512.0,510.0,0.0,0.0
58,52.0,0.0,1020.0,3.0,0.0
59,64.0,0.0,1020.0,1.0,0.0
60,57.0,1024.0,2040.0,2.0,0.0
61,71.0,1024.0,510.0,0.0,0.0
62,50.0,0.0,1020.0,3.0,0.0
63,65.0,0.0,1020.0,1.0,0.0
64,71.0,0.0,2040.0,0.0,0.0
65,52.0,0.0,1020.0,3.0,0.0
66,64.0,2048.0,1020.0,1.0,0.0
67,56.0,0.0,1020.0,2.0,0.0
68,69.0,0.0,2040.0,0.0,0.0
69,61.0,1024.0,2040.0,1.0,0.0
70,52.0,0.0,2040.0,2.0,0.0
71,45.0,0.0,2040.0,3.0,0.0
72,53.0,0.0,1020.0,2.0,0.0
73,50.0,0.0,1020.0,3.0,0.0
74,69.0,0.0,1020.0,0.0,0.0
75,62.0,1024.0,1020.0,1.0,0.0
76,60.0,0.0,1020.0,1.0,0.0
77,55.0,1024.0,1020.0,2.0,0.0
78,72.0,1024.0,2040.0,0.0,0.0
79,52.0,0.0,1020.0,3.0,0.0
80,48.0,0.0,1020.0,3.0,0.0
81,64.0,0.0,1020.0,1.0,0.0
82,60.0,0.0,1020.0,2.0,0.0
83,60.0,1024.0,1020.0,2.0,0.0
84,65.0,0.0,1020.0,1.0,0.0
85,69.0,0.0,1020.0,0.0,0.0
86,53.0,0.0,1020.0,3.0,0.0
87,62.0,1024.0,2040.0,1.0,0.0
88,47.0,1024.0,1020.0,3.0,0.0
89,67.0,0.0,2040.0,0.0,0.0
90,62.0,0.0,1020.0,2.0,0.0
91,43.0,0.0,1020.0,3.0,0.0
92,59.0,0.0,1020.0,2.0,0.0
93,64.0,0.0,1020.0,0.0,0.0
94,48.0,0.0,1020.0,3.0,0.0
95,55.0,0.0,1020.0,2.0,0.0
96,60.0,1024.0,1020.0,1.0,0.0
97,45.0,1024.0,1020.0,3.0,0.0
98,53.0,0.0,1020.0,2.0,0.0
99,65.0,0.0,1020.0,0.0,0.0
100,60.0,0.0,2040.0,1.0,0.0
101,64.0,0.0,1020.0,0.0,0.0
102,41.0,1024.0,1020.0,3.0,0.0
103,57.0,0.0,1020.0,2.0,0.0
104,50.0,0.0,1020.0,2.0,0.0
105,62.0,0.0,1020.0,0.0,0.0
106,43.0,0.0,1020.0,3.0,0.0
107,59.0,2048.0,1020.0,1.0,0.0
108,60.0,0.0,2040.0,0.0,0.0
109,48.0,1024.0,2040.0,3.0,0.0
110,55.0,0.0,15.0,1.0,0.0
111,52.0,0.0,15.0,2.0,0.0
112,60.0,0.0,1020.0,0.0,0.0
113,46.0,0.0,1020.0,3.0,0.0
114,45.0,0.0,1020.0,3.0,0.0
115,60.0,1024.0,1020.0,1.0,0.0
116,65.0,0.0,2040.0,0.0,0.0
117,53.0,0.0,2040.0,2.0,0.0
118,62.0,0.0,1020.0,1.0,0.0
119,57.0,1024.0,1020.0,3.0,0.0
120,58.0,0.0,1020.0,2.0,0.0
121,55.0,0.0,1020.0,3.0,0.0
122,64.0,1024.0,1020.0,1.0,0.0
123,67.0,0.0,1020.0,0.0,0.0
124,69.0,0.0,2040.0,0.0,0.0
125,65.0,0.0,2040.0,1.0,0.0
126,60.0,1024.0,1020.0,2.0,0.0
127,53.0,0.0,1020.0,3.0,0.0
128,62.0,0.0,1020.0,2.0,0.0
129,47.0,1024.0,1020.0,3.0,0.0
130,49.0,1024.0,1020.0,3.0,0.0
131,57.0,0.0,1020.0,2.0,0.0
132,67.0,0.0,1020.0,0.0,0.0
133,64.0,0.0,1020.0,1.0,0.0
134,62.0,0.0,1020.0,1.0,0.0
135,50.0,0.0,1020.0,3.0,0.0
136,65.0,1024.0,1020.0,0.0,0.0
137,57.0,0.0,1020.0,2.0,0.0
138,52.0,0.0,1020.0,3.0,0.0
139,67.0,1024.0,1020.0,1.0,0.0
140,55.0,0.0,1020.0,2.0,0.0
141,72.0,0.0,2040.0,0.0,0.0
142,48.0,2048.0,1020.0,3.0,0.0
143,60.0,0.0,1020.0,2.0,0.0
144,64.0,0.0,1020.0,1.0,0.0
145,65.0,1024.0,2040.0,1.0,0.0
146,69.0,0.0,2040.0,0.0,0.0
147,53.0,0.0,2040.0,3.0,0.0
148,60.0,0.0,2040.0,2.0,0.0
149,46.0,0.0,1020.0,3.0,0.0
150,62.0,0.0,1020.0,1.0,0.0
151,67.0,1024.0,1020.0,0.0,0.0
152,55.0,0.0,1020.0,2.0,0.0
153,45.0,0.0,1020.0,3.0,0.0
154,62.0,1024.0,2040.0,1.0,0.0
155,57.0,0.0,1020.0,2.0,0.0
156,65.0,1024.0,1020.0,0.0,0.0
157,58.0,0.0,1020.0,2.0,0.0
158,64.0,0.0,2040.0,0.0,0.0
159,43.0,0.0,1020.0,3.0,0.0
160,45.0,3072.0,1020.0,3.0,0.0
161,57.0,0.0,1020.0,2.0,0.0
162,61.0,0.0,1020.0,1.0,0.0
163,57.0,0.0,3060.0,1.0,0.0
164,38.0,1.0,3060.0,3.0,0.0
165,62.0,0.0,3060.0,0.0,0.0
166,54.0,0.0,3060.0,2.0,0.0
