,note,step,duration,channel,velocity
0,63.0,60.0,120.0,0.0,0.0
1,65.0,60.0,60.0,0.0,0.0
2,63.0,60.0,60.0,0.0,0.0
3,62.0,60.0,60.0,0.0,0.0
4,63.0,120.0,60.0,0.0,0.0
5,65.0,60.0,120.0,0.0,0.0
6,67.0,60.0,60.0,0.0,0.0
7,65.0,60.0,60.0,0.0,0.0
8,63.0,60.0,60.0,0.0,0.0
9,65.0,120.0,60.0,0.0,0.0
10,67.0,120.0,120.0,0.0,0.0
11,65.0,120.0,120.0,0.0,0.0
12,63.0,120.0,120.0,0.0,0.0
13,58.0,240.0,120.0,0.0,0.0
14,68.0,120.0,240.0,0.0,0.0
15,67.0,120.0,120.0,0.0,0.0
16,65.0,120.0,120.0,0.0,0.0
17,63.0,120.0,120.0,0.0,0.0
18,62.0,240.0,120.0,0.0,0.0
19,72.0,120.0,240.0,0.0,0.0
20,70.0,60.0,120.0,0.0,0.0
21,72.0,60.0,60.0,0.0,0.0
22,70.0,60.0,60.0,0.0,0.0
23,68.0,60.0,60.0,0.0,0.0
24,67.0,120.0,60.0,0.0,0.0
25,65.0,60.0,120.0,0.0,0.0
26,68.0,60.0,60.0,0.0,0.0
27,67.0,60.0,60.0,0.0,0.0
28,65.0,60.0,60.0,0.0,0.0
29,63.0,120.0,60.0,0.0,0.0
30,62.0,60.0,120.0,0.0,0.0
31,58.0,0.0,120.0,1.0,0.0
32,63.0,0.0,120.0,0.0,0.0
33,60.0,60.0,60.0,1.0,0.0
34,58.0,60.0,60.0,1.0,0.0
35,65.0,120.0,120.0,0.0,0.0
36,57.0,60.0,60.0,1.0,0.0
37,58.0,0.0,60.0,1.0,0.0
38,60.0,60.0,120.0,1.0,0.0
39,63.0,0.0,120.0,0.0,0.0
40,65.0,0.0,120.0,0.0,0.0
41,62.0,60.0,60.0,1.0,0.0
42,60.0,60.0,60.0,1.0,0.0
43,67.0,0.0,120.0,0.0,0.0
44,58.0,60.0,60.0,1.0,0.0
45,60.0,120.0,60.0,1.0,0.0
46,62.0,0.0,120.0,1.0,0.0
47,65.0,60.0,120.0,0.0,0.0
48,60.0,0.0,120.0,1.0,0.0
49,67.0,60.0,60.0,0.0,0.0
50,69.0,60.0,60.0,0.0,0.0
51,58.0,60.0,120.0,1.0,0.0
52,70.0,60.0,60.0,0.0,0.0
53,67.0,0.0,60.0,0.0,0.0
54,53.0,0.0,120.0,1.0,0.0
55,69.0,60.0,60.0,0.0,0.0
56,67.0,60.0,60.0,0.0,0.0
57,63.0,0.0,240.0,1.0,0.0
58,69.0,60.0,60.0,0.0,0.0
59,70.0,60.0,60.0,0.0,0.0
60,72.0,60.0,60.0,0.0,0.0
61,69.0,60.0,60.0,0.0,0.0
62,70.0,60.0,60.0,0.0,0.0
63,62.0,0.0,120.0,1.0,0.0
64,69.0,60.0,60.0,0.0,0.0
65,60.0,60.0,120.0,1.0,0.0
66,70.0,60.0,60.0,0.0,0.0
67,72.0,0.0,60.0,0.0,0.0
68,74.0,60.0,60.0,0.0,0.0
69,58.0,60.0,120.0,1.0,0.0
70,70.0,0.0,60.0,0.0,0.0
71,72.0,60.0,60.0,0.0,0.0
72,57.0,60.0,120.0,1.0,0.0
73,70.0,0.0,60.0,0.0,0.0
74,67.0,120.0,240.0,1.0,0.0
75,72.0,60.0,60.0,0.0,0.0
76,74.0,60.0,60.0,0.0,0.0
77,75.0,60.0,60.0,0.0,0.0
78,72.0,0.0,60.0,0.0,0.0
79,74.0,0.0,120.0,0.0,0.0
80,65.0,60.0,120.0,1.0,0.0
81,75.0,60.0,60.0,0.0,0.0
82,67.0,0.0,60.0,1.0,0.0
83,65.0,0.0,60.0,1.0,0.0
84,74.0,60.0,60.0,0.0,0.0
85,63.0,60.0,60.0,1.0,0.0
86,72.0,0.0,60.0,0.0,0.0
87,70.0,0.0,60.0,0.0,0.0
88,62.0,120.0,60.0,1.0,0.0
89,60.0,60.0,120.0,1.0,0.0
90,75.0,60.0,420.0,0.0,0.0
91,63.0,60.0,60.0,1.0,0.0
92,62.0,60.0,60.0,1.0,0.0
93,60.0,60.0,60.0,1.0,0.0
94,58.0,60.0,60.0,1.0,0.0
95,57.0,0.0,120.0,1.0,0.0
96,74.0,60.0,60.0,0.0,0.0
97,72.0,60.0,60.0,0.0,0.0
98,63.0,60.0,120.0,1.0,0.0
99,75.0,0.0,60.0,0.0,0.0
100,62.0,0.0,120.0,1.0,0.0
101,70.0,60.0,60.0,0.0,0.0
102,75.0,60.0,60.0,0.0,0.0
103,60.0,0.0,120.0,1.0,0.0
104,69.0,60.0,60.0,0.0,0.0
105,75.0,60.0,60.0,0.0,0.0
106,58.0,0.0,120.0,1.0,0.0
107,67.0,60.0,60.0,0.0,0.0
108,75.0,60.0,60.0,0.0,0.0
109,57.0,0.0,120.0,1.0,0.0
110,65.0,60.0,60.0,0.0,0.0
111,75.0,60.0,60.0,0.0,0.0
112,74.0,60.0,120.0,0.0,0.0
113,58.0,60.0,60.0,1.0,0.0
114,60.0,0.0,60.0,1.0,0.0
115,70.0,0.0,120.0,0.0,0.0
116,62.0,60.0,60.0,1.0,0.0
117,58.0,60.0,60.0,1.0,0.0
118,72.0,60.0,120.0,0.0,0.0
119,63.0,60.0,60.0,1.0,0.0
120,58.0,0.0,60.0,1.0,0.0
121,65.0,60.0,60.0,1.0,0.0
122,74.0,60.0,120.0,0.0,0.0
123,58.0,0.0,60.0,1.0,0.0
124,67.0,60.0,60.0,1.0,0.0
125,75.0,60.0,120.0,0.0,0.0
126,58.0,0.0,60.0,1.0,0.0
127,68.0,60.0,60.0,1.0,0.0
128,77.0,60.0,240.0,0.0,0.0
129,58.0,120.0,60.0,1.0,0.0
130,51.0,0.0,120.0,2.0,0.0
131,67.0,120.0,360.0,1.0,0.0
132,53.0,60.0,60.0,2.0,0.0
133,70.0,60.0,120.0,0.0,0.0
134,51.0,0.0,60.0,2.0,0.0
135,75.0,0.0,240.0,0.0,0.0
136,50.0,60.0,60.0,2.0,0.0
137,51.0,0.0,60.0,2.0,0.0
138,53.0,60.0,120.0,2.0,0.0
139,68.0,0.0,480.0,1.0,0.0
140,74.0,60.0,120.0,0.0,0.0
141,55.0,60.0,60.0,2.0,0.0
142,53.0,0.0,60.0,2.0,0.0
143,72.0,120.0,120.0,0.0,0.0
144,51.0,60.0,60.0,2.0,0.0
145,53.0,0.0,60.0,2.0,0.0
146,55.0,0.0,120.0,2.0,0.0
147,70.0,120.0,120.0,0.0,0.0
148,62.0,0.0,120.0,1.0,0.0
149,53.0,120.0,120.0,2.0,0.0
150,68.0,0.0,120.0,0.0,0.0
151,51.0,120.0,120.0,2.0,0.0
152,63.0,0.0,240.0,1.0,0.0
153,67.0,0.0,120.0,0.0,0.0
154,65.0,60.0,240.0,0.0,0.0
155,46.0,60.0,120.0,2.0,0.0
156,56.0,0.0,240.0,2.0,0.0
157,62.0,60.0,60.0,1.0,0.0
158,63.0,0.0,60.0,1.0,0.0
159,65.0,60.0,60.0,1.0,0.0
160,62.0,60.0,60.0,1.0,0.0
161,63.0,60.0,60.0,1.0,0.0
162,55.0,0.0,120.0,2.0,0.0
163,62.0,60.0,60.0,1.0,0.0
164,53.0,60.0,120.0,2.0,0.0
165,63.0,60.0,60.0,1.0,0.0
166,65.0,0.0,60.0,1.0,0.0
167,70.0,0.0,240.0,0.0,0.0
168,51.0,60.0,120.0,2.0,0.0
169,67.0,60.0,60.0,1.0,0.0
170,63.0,0.0,60.0,1.0,0.0
171,65.0,60.0,60.0,1.0,0.0
172,50.0,60.0,120.0,2.0,0.0
173,63.0,0.0,60.0,1.0,0.0
174,60.0,120.0,240.0,2.0,0.0
175,68.0,0.0,120.0,0.0,0.0
176,65.0,60.0,60.0,1.0,0.0
177,67.0,60.0,60.0,1.0,0.0
178,68.0,60.0,60.0,1.0,0.0
179,77.0,0.0,240.0,0.0,0.0
180,65.0,0.0,60.0,1.0,0.0
181,58.0,60.0,120.0,2.0,0.0
182,67.0,0.0,120.0,1.0,0.0
183,75.0,0.0,360.0,0.0,0.0
184,60.0,60.0,60.0,2.0,0.0
185,68.0,0.0,60.0,1.0,0.0
186,58.0,0.0,60.0,2.0,0.0
187,67.0,60.0,60.0,1.0,0.0
188,56.0,0.0,60.0,2.0,0.0
189,65.0,60.0,60.0,1.0,0.0
190,63.0,120.0,60.0,1.0,0.0
191,55.0,0.0,60.0,2.0,0.0
192,68.0,60.0,420.0,1.0,0.0
193,53.0,60.0,120.0,2.0,0.0
194,77.0,0.0,60.0,0.0,0.0
195,56.0,60.0,60.0,2.0,0.0
196,75.0,0.0,60.0,0.0,0.0
197,55.0,60.0,60.0,2.0,0.0
198,74.0,60.0,60.0,0.0,0.0
199,53.0,0.0,60.0,2.0,0.0
200,72.0,0.0,60.0,0.0,0.0
201,51.0,60.0,60.0,2.0,0.0
202,70.0,10.0,840.0,0.0,0.0
203,50.0,60.0,240.0,2.0,0.0
204,67.0,60.0,60.0,1.0,0.0
205,65.0,60.0,60.0,1.0,0.0
206,68.0,0.0,60.0,1.0,0.0
207,63.0,60.0,60.0,1.0,0.0
208,48.0,60.0,120.0,2.0,0.0
209,68.0,0.0,60.0,1.0,0.0
210,46.0,60.0,60.0,2.0,0.0
211,62.0,0.0,60.0,1.0,0.0
212,68.0,60.0,60.0,1.0,0.0
213,48.0,0.0,60.0,2.0,0.0
214,60.0,60.0,60.0,1.0,0.0
215,46.0,0.0,60.0,2.0,0.0
216,68.0,60.0,60.0,1.0,0.0
217,44.0,0.0,60.0,2.0,0.0
218,58.0,0.0,60.0,1.0,0.0
219,43.0,60.0,60.0,2.0,0.0
220,41.0,0.0,60.0,2.0,0.0
221,68.0,60.0,60.0,1.0,0.0
222,39.0,50.0,60.0,2.0,0.0
223,67.0,0.0,120.0,1.0,0.0
224,41.0,60.0,60.0,2.0,0.0
225,61.0,0.0,120.0,1.0,0.0
226,70.0,60.0,120.0,0.0,0.0
227,43.0,60.0,60.0,2.0,0.0
228,39.0,0.0,60.0,2.0,0.0
229,60.0,0.0,120.0,1.0,0.0
230,44.0,60.0,60.0,2.0,0.0
231,68.0,60.0,120.0,0.0,0.0
232,39.0,0.0,60.0,2.0,0.0
233,46.0,60.0,60.0,2.0,0.0
234,58.0,0.0,120.0,1.0,0.0
235,67.0,60.0,120.0,0.0,0.0
236,39.0,0.0,60.0,2.0,0.0
237,56.0,60.0,120.0,1.0,0.0
238,48.0,60.0,60.0,2.0,0.0
239,65.0,0.0,120.0,0.0,0.0
240,39.0,0.0,60.0,2.0,0.0
241,49.0,60.0,60.0,2.0,0.0
242,55.0,0.0,120.0,1.0,0.0
243,63.0,0.0,120.0,0.0,0.0
244,39.0,60.0,60.0,2.0,0.0
245,48.0,60.0,60.0,2.0,0.0
246,68.0,0.0,60.0,0.0,0.0
247,46.0,60.0,60.0,2.0,0.0
248,70.0,0.0,60.0,0.0,0.0
249,72.0,0.0,300.0,0.0,0.0
250,44.0,60.0,60.0,2.0,0.0
251,48.0,60.0,60.0,2.0,0.0
252,43.0,60.0,60.0,2.0,0.0
253,63.0,0.0,120.0,1.0,0.0
254,48.0,60.0,60.0,2.0,0.0
255,41.0,60.0,60.0,2.0,0.0
256,62.0,10.0,600.0,1.0,0.0
257,48.0,0.0,60.0,2.0,0.0
258,70.0,60.0,60.0,0.0,0.0
259,39.0,0.0,60.0,2.0,0.0
260,68.0,60.0,60.0,0.0,0.0
261,48.0,0.0,60.0,2.0,0.0
262,67.0,60.0,60.0,0.0,0.0
263,38.0,60.0,60.0,2.0,0.0
264,65.0,0.0,60.0,0.0,0.0
265,48.0,60.0,60.0,2.0,0.0
266,68.0,0.0,60.0,0.0,0.0
267,67.0,60.0,60.0,0.0,0.0
268,46.0,0.0,60.0,2.0,0.0
269,44.0,0.0,60.0,2.0,0.0
270,68.0,60.0,60.0,0.0,0.0
271,70.0,60.0,300.0,0.0,0.0
272,43.0,50.0,60.0,2.0,0.0
273,46.0,60.0,60.0,2.0,0.0
274,41.0,60.0,60.0,2.0,0.0
275,62.0,0.0,120.0,1.0,0.0
276,46.0,60.0,60.0,2.0,0.0
277,39.0,0.0,60.0,2.0,0.0
278,60.0,10.0,600.0,1.0,0.0
279,46.0,60.0,60.0,2.0,0.0
280,68.0,0.0,60.0,0.0,0.0
281,38.0,60.0,60.0,2.0,0.0
282,67.0,0.0,60.0,0.0,0.0
283,46.0,0.0,60.0,2.0,0.0
284,65.0,60.0,60.0,0.0,0.0
285,36.0,60.0,60.0,2.0,0.0
286,63.0,0.0,60.0,0.0,0.0
287,46.0,0.0,60.0,2.0,0.0
288,67.0,60.0,60.0,0.0,0.0
289,44.0,60.0,60.0,2.0,0.0
290,65.0,0.0,60.0,0.0,0.0
291,67.0,60.0,60.0,0.0,0.0
292,43.0,0.0,60.0,2.0,0.0
293,68.0,60.0,300.0,0.0,0.0
294,41.0,50.0,60.0,2.0,0.0
295,44.0,60.0,60.0,2.0,0.0
296,39.0,60.0,60.0,2.0,0.0
297,60.0,0.0,120.0,1.0,0.0
298,44.0,60.0,60.0,2.0,0.0
299,58.0,0.0,360.0,1.0,0.0
300,38.0,0.0,60.0,2.0,0.0
301,44.0,0.0,60.0,2.0,0.0
302,67.0,60.0,60.0,0.0,0.0
303,36.0,0.0,60.0,2.0,0.0
304,65.0,60.0,60.0,0.0,0.0
305,63.0,60.0,60.0,0.0,0.0
306,44.0,0.0,60.0,2.0,0.0
307,62.0,60.0,60.0,0.0,0.0
308,34.0,0.0,60.0,2.0,0.0
309,44.0,60.0,60.0,2.0,0.0
310,65.0,0.0,60.0,0.0,0.0
311,63.0,60.0,60.0,0.0,0.0
312,58.0,0.0,120.0,1.0,0.0
313,43.0,0.0,120.0,2.0,0.0
314,65.0,60.0,60.0,0.0,0.0
315,56.0,60.0,60.0,1.0,0.0
316,41.0,0.0,120.0,2.0,0.0
317,67.0,60.0,360.0,0.0,0.0
318,58.0,60.0,60.0,1.0,0.0
319,39.0,120.0,120.0,2.0,0.0
320,60.0,60.0,60.0,1.0,0.0
321,58.0,0.0,60.0,1.0,0.0
322,56.0,0.0,120.0,1.0,0.0
323,41.0,0.0,120.0,2.0,0.0
324,55.0,60.0,60.0,1.0,0.0
325,60.0,60.0,120.0,0.0,0.0
326,39.0,0.0,120.0,2.0,0.0
327,56.0,0.0,60.0,1.0,0.0
328,58.0,60.0,60.0,1.0,0.0
329,38.0,60.0,120.0,2.0,0.0
330,65.0,0.0,180.0,0.0,0.0
331,56.0,0.0,60.0,1.0,0.0
332,55.0,0.0,120.0,1.0,0.0
333,39.0,60.0,60.0,2.0,0.0
334,51.0,0.0,60.0,2.0,0.0
335,63.0,60.0,60.0,0.0,0.0
336,56.0,60.0,120.0,1.0,0.0
337,49.0,60.0,60.0,2.0,0.0
338,65.0,0.0,120.0,0.0,0.0
339,48.0,0.0,60.0,2.0,0.0
340,67.0,60.0,120.0,0.0,0.0
341,46.0,60.0,60.0,2.0,0.0
342,58.0,0.0,120.0,1.0,0.0
343,49.0,0.0,60.0,2.0,0.0
344,63.0,0.0,120.0,1.0,0.0
345,48.0,0.0,60.0,2.0,0.0
346,68.0,60.0,60.0,0.0,0.0
347,49.0,60.0,60.0,2.0,0.0
348,70.0,0.0,60.0,0.0,0.0
349,68.0,60.0,60.0,0.0,0.0
350,53.0,0.0,240.0,1.0,0.0
351,48.0,0.0,60.0,2.0,0.0
352,46.0,0.0,60.0,2.0,0.0
353,67.0,60.0,60.0,0.0,0.0
354,65.0,50.0,60.0,0.0,0.0
355,44.0,0.0,60.0,2.0,0.0
356,63.0,10.0,60.0,0.0,0.0
357,48.0,22.0,60.0,2.0,0.0
358,46.0,6.0,60.0,2.0,0.0
359,63.0,22.0,20.0,0.0,0.0
360,55.0,0.0,120.0,1.0,0.0
361,62.0,16.0,20.0,0.0,0.0
362,63.0,22.0,20.0,0.0,0.0
363,48.0,12.0,60.0,2.0,0.0
364,62.0,22.0,20.0,0.0,0.0
365,63.0,10.0,20.0,0.0,0.0
366,62.0,22.0,20.0,0.0,0.0
367,56.0,0.0,120.0,1.0,0.0
368,46.0,30.0,60.0,2.0,0.0
369,63.0,22.0,20.0,0.0,0.0
370,62.0,4.0,20.0,0.0,0.0
371,60.0,30.0,30.0,0.0,0.0
372,44.0,60.0,60.0,2.0,0.0
373,62.0,0.0,30.0,0.0,0.0
374,63.0,0.0,180.0,0.0,0.0
375,58.0,60.0,120.0,1.0,0.0
376,43.0,60.0,60.0,2.0,0.0
377,46.0,0.0,60.0,2.0,0.0
378,44.0,60.0,60.0,2.0,0.0
379,60.0,0.0,120.0,1.0,0.0
380,67.0,0.0,60.0,0.0,0.0
381,46.0,60.0,60.0,2.0,0.0
382,50.0,0.0,240.0,1.0,0.0
383,44.0,0.0,60.0,2.0,0.0
384,65.0,60.0,60.0,0.0,0.0
385,63.0,60.0,60.0,0.0,0.0
386,43.0,0.0,60.0,2.0,0.0
387,41.0,60.0,60.0,2.0,0.0
388,62.0,0.0,60.0,0.0,0.0
389,60.0,0.0,60.0,0.0,0.0
390,44.0,60.0,60.0,2.0,0.0
391,58.0,0.0,120.0,0.0,0.0
392,43.0,50.0,60.0,2.0,0.0
393,51.0,10.0,120.0,1.0,0.0
394,44.0,60.0,60.0,2.0,0.0
395,51.0,0.0,60.0,1.0,0.0
396,43.0,60.0,60.0,2.0,0.0
397,53.0,0.0,60.0,1.0,0.0
398,41.0,60.0,60.0,2.0,0.0
399,55.0,0.0,60.0,1.0,0.0
400,39.0,60.0,60.0,2.0,0.0
401,57.0,60.0,60.0,1.0,0.0
402,41.0,0.0,60.0,2.0,0.0
403,43.0,60.0,60.0,2.0,0.0
404,58.0,0.0,120.0,1.0,0.0
405,45.0,60.0,60.0,2.0,0.0
406,55.0,60.0,60.0,1.0,0.0
407,46.0,0.0,60.0,2.0,0.0
408,57.0,0.0,60.0,1.0,0.0
409,48.0,60.0,60.0,2.0,0.0
410,58.0,60.0,60.0,1.0,0.0
411,50.0,0.0,60.0,2.0,0.0
412,51.0,0.0,60.0,2.0,0.0
413,60.0,120.0,60.0,1.0,0.0
414,65.0,0.0,120.0,0.0,0.0
415,50.0,0.0,120.0,2.0,0.0
416,62.0,60.0,120.0,1.0,0.0
417,55.0,0.0,120.0,2.0,0.0
418,63.0,60.0,60.0,0.0,0.0
419,60.0,60.0,120.0,1.0,0.0
420,65.0,0.0,60.0,0.0,0.0
421,43.0,120.0,120.0,2.0,0.0
422,59.0,0.0,120.0,1.0,0.0
423,67.0,60.0,60.0,0.0,0.0
424,65.0,0.0,60.0,0.0,0.0
425,60.0,0.0,120.0,1.0,0.0
426,63.0,60.0,120.0,0.0,0.0
427,48.0,0.0,120.0,2.0,0.0
428,58.0,0.0,120.0,1.0,0.0
429,62.0,60.0,60.0,0.0,0.0
430,53.0,0.0,120.0,2.0,0.0
431,63.0,60.0,60.0,0.0,0.0
432,65.0,60.0,60.0,0.0,0.0
433,41.0,0.0,120.0,2.0,0.0
434,57.0,120.0,120.0,1.0,0.0
435,62.0,0.0,60.0,0.0,0.0
436,46.0,0.0,120.0,2.0,0.0
437,63.0,0.0,120.0,0.0,0.0
438,58.0,60.0,120.0,1.0,0.0
439,48.0,0.0,120.0,2.0,0.0
440,65.0,60.0,120.0,0.0,0.0
441,57.0,60.0,60.0,1.0,0.0
442,55.0,0.0,60.0,1.0,0.0
443,67.0,0.0,120.0,0.0,0.0
444,50.0,0.0,240.0,2.0,0.0
445,53.0,60.0,60.0,1.0,0.0
446,56.0,60.0,60.0,1.0,0.0
447,70.0,22.0,120.0,0.0,0.0
448,55.0,60.0,60.0,1.0,0.0
449,56.0,0.0,60.0,1.0,0.0
450,51.0,12.0,120.0,2.0,0.0
451,62.0,22.0,20.0,0.0,0.0
452,55.0,6.0,60.0,1.0,0.0
453,60.0,16.0,20.0,0.0,0.0
454,62.0,22.0,20.0,0.0,0.0
455,53.0,0.0,60.0,1.0,0.0
456,60.0,22.0,20.0,0.0,0.0
457,62.0,10.0,20.0,0.0,0.0
458,60.0,22.0,20.0,0.0,0.0
459,51.0,18.0,60.0,1.0,0.0
460,45.0,0.0,120.0,2.0,0.0
461,62.0,22.0,20.0,0.0,0.0
462,60.0,4.0,20.0,0.0,0.0
463,62.0,40.0,20.0,0.0,0.0
464,55.0,60.0,60.0,1.0,0.0
465,60.0,2.0,40.0,0.0,0.0
466,53.0,60.0,60.0,1.0,0.0
467,62.0,0.0,120.0,0.0,0.0
468,46.0,0.0,120.0,2.0,0.0
469,55.0,60.0,60.0,1.0,0.0
470,53.0,60.0,60.0,1.0,0.0
471,63.0,60.0,120.0,0.0,0.0
472,51.0,0.0,60.0,1.0,0.0
473,50.0,60.0,60.0,1.0,0.0
474,65.0,0.0,120.0,0.0,0.0
475,53.0,60.0,60.0,1.0,0.0
476,51.0,60.0,60.0,1.0,0.0
477,67.0,22.0,120.0,0.0,0.0
478,53.0,0.0,60.0,1.0,0.0
479,51.0,6.0,60.0,1.0,0.0
480,58.0,22.0,20.0,0.0,0.0
481,57.0,16.0,20.0,0.0,0.0
482,58.0,22.0,20.0,0.0,0.0
483,50.0,12.0,60.0,1.0,0.0
484,57.0,22.0,20.0,0.0,0.0
485,58.0,10.0,20.0,0.0,0.0
486,57.0,22.0,20.0,0.0,0.0
487,48.0,18.0,60.0,1.0,0.0
488,58.0,22.0,20.0,0.0,0.0
489,57.0,4.0,20.0,0.0,0.0
490,58.0,40.0,20.0,0.0,0.0
491,51.0,60.0,60.0,1.0,0.0
492,57.0,2.0,40.0,0.0,0.0
493,50.0,50.0,60.0,1.0,0.0
494,58.0,10.0,120.0,0.0,0.0
495,51.0,60.0,60.0,1.0,0.0
496,50.0,60.0,60.0,1.0,0.0
497,58.0,0.0,60.0,0.0,0.0
498,48.0,0.0,60.0,1.0,0.0
499,60.0,60.0,60.0,0.0,0.0
500,62.0,0.0,60.0,0.0,0.0
501,46.0,60.0,60.0,1.0,0.0
502,63.0,60.0,60.0,0.0,0.0
503,48.0,0.0,60.0,1.0,0.0
504,65.0,0.0,120.0,0.0,0.0
505,50.0,60.0,60.0,1.0,0.0
506,51.0,60.0,60.0,1.0,0.0
507,62.0,0.0,60.0,0.0,0.0
508,53.0,60.0,60.0,1.0,0.0
509,55.0,60.0,60.0,1.0,0.0
510,63.0,0.0,60.0,0.0,0.0
511,65.0,0.0,60.0,0.0,0.0
512,56.0,60.0,60.0,1.0,0.0
513,58.0,120.0,60.0,1.0,0.0
514,67.0,0.0,60.0,0.0,0.0
515,50.0,0.0,120.0,1.0,0.0
516,46.0,60.0,120.0,2.0,0.0
517,68.0,0.0,240.0,0.0,0.0
518,65.0,60.0,120.0,1.0,0.0
519,44.0,60.0,60.0,2.0,0.0
520,46.0,0.0,60.0,2.0,0.0
521,48.0,60.0,60.0,2.0,0.0
522,67.0,120.0,120.0,0.0,0.0
523,63.0,60.0,240.0,1.0,0.0
524,46.0,0.0,60.0,2.0,0.0
525,65.0,120.0,360.0,0.0,0.0
526,44.0,0.0,120.0,2.0,0.0
527,43.0,60.0,60.0,2.0,0.0
528,63.0,60.0,120.0,1.0,0.0
529,44.0,0.0,60.0,2.0,0.0
530,62.0,0.0,120.0,1.0,0.0
531,46.0,60.0,60.0,2.0,0.0
532,44.0,0.0,60.0,2.0,0.0
533,43.0,60.0,120.0,2.0,0.0
534,63.0,0.0,120.0,1.0,0.0
535,75.0,0.0,60.0,0.0,0.0
536,74.0,60.0,60.0,0.0,0.0
537,44.0,60.0,120.0,2.0,0.0
538,72.0,0.0,60.0,0.0,0.0
539,70.0,60.0,60.0,0.0,0.0
540,46.0,60.0,120.0,2.0,0.0
541,74.0,0.0,60.0,0.0,0.0
542,72.0,60.0,60.0,0.0,0.0
543,51.0,0.0,120.0,2.0,0.0
544,74.0,60.0,60.0,0.0,0.0
545,72.0,60.0,60.0,0.0,0.0
546,41.0,0.0,240.0,2.0,0.0
547,70.0,60.0,60.0,0.0,0.0
548,68.0,60.0,60.0,0.0,0.0
549,72.0,60.0,60.0,0.0,0.0
550,43.0,0.0,120.0,2.0,0.0
551,70.0,60.0,60.0,0.0,0.0
552,72.0,60.0,60.0,0.0,0.0
553,44.0,60.0,120.0,2.0,0.0
554,70.0,60.0,60.0,0.0,0.0
555,68.0,0.0,60.0,0.0,0.0
556,67.0,60.0,60.0,0.0,0.0
557,46.0,0.0,120.0,2.0,0.0
558,70.0,60.0,60.0,0.0,0.0
559,48.0,60.0,120.0,2.0,0.0
560,68.0,60.0,60.0,0.0,0.0
561,70.0,0.0,60.0,0.0,0.0
562,68.0,60.0,60.0,0.0,0.0
563,38.0,0.0,240.0,2.0,0.0
564,67.0,60.0,60.0,0.0,0.0
565,65.0,60.0,60.0,0.0,0.0
566,68.0,60.0,60.0,0.0,0.0
567,39.0,60.0,60.0,2.0,0.0
568,67.0,0.0,60.0,0.0,0.0
569,65.0,0.0,60.0,0.0,0.0
570,41.0,60.0,60.0,2.0,0.0
571,63.0,60.0,60.0,0.0,0.0
572,43.0,0.0,300.0,2.0,0.0
573,67.0,60.0,60.0,0.0,0.0
574,58.0,0.0,120.0,1.0,0.0
575,62.0,60.0,60.0,0.0,0.0
576,67.0,60.0,60.0,0.0,0.0
577,60.0,60.0,60.0,0.0,0.0
578,57.0,60.0,120.0,1.0,0.0
579,41.0,0.0,60.0,2.0,0.0
580,67.0,0.0,60.0,0.0,0.0
581,39.0,60.0,60.0,2.0,0.0
582,58.0,0.0,60.0,0.0,0.0
583,38.0,0.0,60.0,2.0,0.0
584,67.0,60.0,60.0,0.0,0.0
585,36.0,60.0,60.0,2.0,0.0
586,57.0,0.0,60.0,0.0,0.0
587,67.0,60.0,60.0,0.0,0.0
588,39.0,0.0,60.0,2.0,0.0
589,38.0,60.0,60.0,2.0,0.0
590,65.0,0.0,60.0,0.0,0.0
591,63.0,0.0,60.0,0.0,0.0
592,39.0,60.0,60.0,2.0,0.0
593,41.0,0.0,300.0,2.0,0.0
594,62.0,60.0,60.0,0.0,0.0
595,65.0,60.0,60.0,0.0,0.0
596,57.0,0.0,120.0,1.0,0.0
597,60.0,60.0,60.0,0.0,0.0
598,65.0,60.0,60.0,0.0,0.0
599,55.0,60.0,120.0,1.0,0.0
600,58.0,60.0,60.0,0.0,0.0
601,65.0,0.0,60.0,0.0,0.0
602,39.0,0.0,60.0,2.0,0.0
603,38.0,60.0,60.0,2.0,0.0
604,57.0,0.0,60.0,0.0,0.0
605,65.0,60.0,60.0,0.0,0.0
606,36.0,0.0,60.0,2.0,0.0
607,34.0,0.0,60.0,2.0,0.0
608,55.0,60.0,60.0,0.0,0.0
609,38.0,0.0,60.0,2.0,0.0
610,65.0,60.0,60.0,0.0,0.0
611,36.0,60.0,60.0,2.0,0.0
612,63.0,0.0,60.0,0.0,0.0
613,38.0,0.0,60.0,2.0,0.0
614,62.0,60.0,60.0,0.0,0.0
615,60.0,60.0,60.0,0.0,0.0
616,39.0,0.0,300.0,2.0,0.0
617,63.0,60.0,60.0,0.0,0.0
618,58.0,60.0,60.0,0.0,0.0
619,55.0,60.0,120.0,1.0,0.0
620,63.0,0.0,60.0,0.0,0.0
621,53.0,60.0,120.0,1.0,0.0
622,57.0,60.0,60.0,0.0,0.0
623,38.0,0.0,60.0,2.0,0.0
624,63.0,0.0,60.0,0.0,0.0
625,36.0,0.0,60.0,2.0,0.0
626,55.0,60.0,60.0,0.0,0.0
627,63.0,0.0,60.0,0.0,0.0
628,34.0,60.0,60.0,2.0,0.0
629,53.0,0.0,60.0,0.0,0.0
630,33.0,60.0,60.0,2.0,0.0
631,36.0,60.0,60.0,2.0,0.0
632,63.0,0.0,60.0,0.0,0.0
633,62.0,0.0,60.0,0.0,0.0
634,34.0,60.0,60.0,2.0,0.0
635,36.0,0.0,60.0,2.0,0.0
636,70.0,60.0,60.0,0.0,0.0
637,38.0,60.0,60.0,2.0,0.0
638,68.0,0.0,60.0,0.0,0.0
639,67.0,60.0,60.0,0.0,0.0
640,34.0,0.0,60.0,2.0,0.0
641,65.0,60.0,60.0,0.0,0.0
642,39.0,0.0,60.0,2.0,0.0
643,34.0,0.0,60.0,2.0,0.0
644,63.0,60.0,60.0,0.0,0.0
645,62.0,0.0,60.0,0.0,0.0
646,41.0,60.0,60.0,2.0,0.0
647,60.0,0.0,60.0,0.0,0.0
648,34.0,60.0,60.0,2.0,0.0
649,58.0,0.0,60.0,0.0,0.0
650,43.0,60.0,60.0,2.0,0.0
651,56.0,60.0,60.0,0.0,0.0
652,34.0,0.0,60.0,2.0,0.0
653,55.0,0.0,60.0,0.0,0.0
654,44.0,60.0,60.0,2.0,0.0
655,53.0,0.0,60.0,0.0,0.0
656,34.0,60.0,60.0,2.0,0.0
657,51.0,0.0,60.0,0.0,0.0
658,43.0,60.0,60.0,2.0,0.0
659,53.0,0.0,60.0,0.0,0.0
660,51.0,60.0,60.0,2.0,0.0
661,55.0,60.0,60.0,0.0,0.0
662,49.0,0.0,60.0,2.0,0.0
663,51.0,0.0,60.0,0.0,0.0
664,48.0,60.0,60.0,2.0,0.0
665,56.0,60.0,60.0,0.0,0.0
666,46.0,0.0,60.0,2.0,0.0
667,44.0,60.0,60.0,2.0,0.0
668,51.0,0.0,60.0,0.0,0.0
669,58.0,60.0,60.0,0.0,0.0
670,43.0,0.0,60.0,2.0,0.0
671,41.0,60.0,60.0,2.0,0.0
672,51.0,0.0,60.0,0.0,0.0
673,60.0,60.0,60.0,0.0,0.0
674,39.0,0.0,60.0,2.0,0.0
675,37.0,0.0,60.0,2.0,0.0
676,51.0,60.0,60.0,0.0,0.0
677,61.0,0.0,60.0,0.0,0.0
678,36.0,60.0,60.0,2.0,0.0
679,34.0,0.0,60.0,2.0,0.0
680,51.0,60.0,60.0,0.0,0.0
681,32.0,0.0,60.0,2.0,0.0
682,60.0,60.0,60.0,0.0,0.0
683,68.0,0.0,60.0,0.0,0.0
684,34.0,60.0,60.0,2.0,0.0
685,67.0,0.0,60.0,0.0,0.0
686,36.0,60.0,60.0,2.0,0.0
687,70.0,60.0,60.0,0.0,0.0
688,38.0,0.0,60.0,2.0,0.0
689,40.0,0.0,60.0,2.0,0.0
690,65.0,60.0,60.0,0.0,0.0
691,41.0,0.0,60.0,2.0,0.0
692,70.0,60.0,60.0,0.0,0.0
693,43.0,0.0,60.0,2.0,0.0
694,64.0,60.0,60.0,0.0,0.0
695,44.0,0.0,60.0,2.0,0.0
696,70.0,60.0,60.0,0.0,0.0
697,46.0,60.0,60.0,2.0,0.0
698,62.0,0.0,60.0,0.0,0.0
699,48.0,0.0,60.0,2.0,0.0
700,70.0,60.0,60.0,0.0,0.0
701,50.0,0.0,60.0,2.0,0.0
702,60.0,60.0,60.0,0.0,0.0
703,70.0,60.0,60.0,0.0,0.0
704,52.0,0.0,60.0,2.0,0.0
705,68.0,0.0,60.0,0.0,0.0
706,53.0,60.0,60.0,2.0,0.0
707,51.0,60.0,60.0,2.0,0.0
708,65.0,0.0,60.0,0.0,0.0
709,67.0,0.0,60.0,0.0,0.0
710,50.0,60.0,60.0,2.0,0.0
711,69.0,60.0,60.0,0.0,0.0
712,53.0,0.0,60.0,2.0,0.0
713,71.0,0.0,60.0,0.0,0.0
714,48.0,60.0,60.0,2.0,0.0
715,72.0,0.0,60.0,0.0,0.0
716,53.0,60.0,60.0,2.0,0.0
717,74.0,60.0,60.0,0.0,0.0
718,47.0,0.0,60.0,2.0,0.0
719,75.0,60.0,60.0,0.0,0.0
720,53.0,0.0,60.0,2.0,0.0
721,45.0,0.0,60.0,2.0,0.0
722,77.0,60.0,60.0,0.0,0.0
723,53.0,60.0,60.0,2.0,0.0
724,79.0,0.0,60.0,0.0,0.0
725,43.0,60.0,60.0,2.0,0.0
726,80.0,0.0,60.0,0.0,0.0
727,71.0,0.0,60.0,0.0,0.0
728,53.0,120.0,60.0,2.0,0.0
729,72.0,60.0,120.0,0.0,0.0
730,51.0,0.0,120.0,2.0,0.0
731,56.0,0.0,120.0,2.0,0.0
732,74.0,60.0,60.0,0.0,0.0
733,72.0,60.0,60.0,0.0,0.0
734,55.0,0.0,120.0,2.0,0.0
735,71.0,60.0,60.0,0.0,0.0
736,72.0,120.0,60.0,0.0,0.0
737,74.0,60.0,120.0,0.0,0.0
738,53.0,0.0,120.0,2.0,0.0
739,55.0,60.0,120.0,2.0,0.0
740,75.0,60.0,60.0,0.0,0.0
741,74.0,0.0,60.0,0.0,0.0
742,43.0,60.0,120.0,2.0,0.0
743,72.0,60.0,60.0,0.0,0.0
744,74.0,0.0,60.0,0.0,0.0
745,48.0,60.0,60.0,2.0,0.0
746,75.0,60.0,120.0,0.0,0.0
747,50.0,0.0,60.0,2.0,0.0
748,51.0,60.0,60.0,2.0,0.0
749,74.0,0.0,120.0,0.0,0.0
750,48.0,60.0,60.0,2.0,0.0
751,53.0,60.0,60.0,2.0,0.0
752,72.0,0.0,120.0,0.0,0.0
753,48.0,60.0,60.0,2.0,0.0
754,67.0,60.0,120.0,0.0,0.0
755,55.0,60.0,60.0,2.0,0.0
756,48.0,0.0,60.0,2.0,0.0
757,57.0,60.0,60.0,2.0,0.0
758,77.0,0.0,240.0,0.0,0.0
759,48.0,60.0,60.0,2.0,0.0
760,59.0,60.0,60.0,2.0,0.0
761,48.0,120.0,60.0,2.0,0.0
762,75.0,60.0,120.0,0.0,0.0
763,60.0,0.0,120.0,2.0,0.0
764,59.0,0.0,60.0,1.0,0.0
765,60.0,60.0,60.0,1.0,0.0
766,74.0,0.0,120.0,0.0,0.0
767,62.0,60.0,60.0,1.0,0.0
768,72.0,0.0,120.0,0.0,0.0
769,63.0,60.0,60.0,1.0,0.0
770,60.0,60.0,60.0,1.0,0.0
771,62.0,60.0,60.0,1.0,0.0
772,71.0,0.0,120.0,0.0,0.0
773,60.0,60.0,60.0,1.0,0.0
774,80.0,120.0,240.0,0.0,0.0
775,62.0,60.0,60.0,1.0,0.0
776,63.0,60.0,60.0,1.0,0.0
777,65.0,60.0,60.0,1.0,0.0
778,62.0,0.0,60.0,1.0,0.0
779,63.0,0.0,120.0,1.0,0.0
780,79.0,60.0,120.0,0.0,0.0
781,65.0,60.0,60.0,1.0,0.0
782,80.0,0.0,60.0,0.0,0.0
783,79.0,0.0,60.0,0.0,0.0
784,63.0,60.0,60.0,1.0,0.0
785,77.0,60.0,60.0,0.0,0.0
786,62.0,0.0,60.0,1.0,0.0
787,75.0,120.0,60.0,0.0,0.0
788,60.0,0.0,60.0,1.0,0.0
789,65.0,60.0,420.0,1.0,0.0
790,74.0,60.0,120.0,0.0,0.0
791,77.0,60.0,60.0,0.0,0.0
792,75.0,60.0,60.0,0.0,0.0
793,74.0,60.0,60.0,0.0,0.0
794,72.0,60.0,60.0,0.0,0.0
795,71.0,0.0,120.0,0.0,0.0
796,63.0,60.0,60.0,1.0,0.0
797,62.0,60.0,60.0,1.0,0.0
798,77.0,0.0,120.0,0.0,0.0
799,65.0,60.0,60.0,1.0,0.0
800,60.0,60.0,60.0,1.0,0.0
801,75.0,60.0,120.0,0.0,0.0
802,65.0,0.0,60.0,1.0,0.0
803,59.0,60.0,60.0,1.0,0.0
804,74.0,0.0,120.0,0.0,0.0
805,65.0,60.0,60.0,1.0,0.0
806,72.0,0.0,120.0,0.0,0.0
807,57.0,60.0,60.0,1.0,0.0
808,65.0,60.0,60.0,1.0,0.0
809,71.0,120.0,120.0,0.0,0.0
810,55.0,60.0,60.0,1.0,0.0
811,65.0,0.0,60.0,1.0,0.0
812,63.0,0.0,120.0,1.0,0.0
813,72.0,60.0,120.0,0.0,0.0
814,62.0,60.0,60.0,1.0,0.0
815,70.0,0.0,120.0,0.0,0.0
816,63.0,60.0,60.0,1.0,0.0
817,68.0,120.0,120.0,0.0,0.0
818,65.0,60.0,60.0,1.0,0.0
819,63.0,0.0,60.0,1.0,0.0
820,62.0,60.0,120.0,1.0,0.0
821,70.0,0.0,120.0,0.0,0.0
822,68.0,60.0,120.0,0.0,0.0
823,60.0,60.0,60.0,1.0,0.0
824,62.0,0.0,60.0,1.0,0.0
825,63.0,60.0,60.0,1.0,0.0
826,67.0,60.0,120.0,0.0,0.0
827,62.0,0.0,60.0,1.0,0.0
828,68.0,60.0,60.0,0.0,0.0
829,60.0,0.0,120.0,1.0,0.0
830,80.0,60.0,60.0,0.0,0.0
831,79.0,60.0,60.0,0.0,0.0
832,62.0,0.0,120.0,1.0,0.0
833,77.0,60.0,60.0,0.0,0.0
834,63.0,60.0,120.0,1.0,0.0
835,75.0,60.0,60.0,0.0,0.0
836,79.0,0.0,60.0,0.0,0.0
837,68.0,0.0,120.0,1.0,0.0
838,77.0,60.0,60.0,0.0,0.0
839,79.0,60.0,60.0,0.0,0.0
840,59.0,60.0,240.0,1.0,0.0
841,77.0,60.0,60.0,0.0,0.0
842,75.0,60.0,60.0,0.0,0.0
843,74.0,60.0,60.0,0.0,0.0
844,77.0,0.0,60.0,0.0,0.0
845,60.0,0.0,120.0,1.0,0.0
846,75.0,60.0,60.0,0.0,0.0
847,77.0,60.0,60.0,0.0,0.0
848,62.0,0.0,120.0,1.0,0.0
849,75.0,60.0,60.0,0.0,0.0
850,74.0,60.0,60.0,0.0,0.0
851,63.0,60.0,120.0,1.0,0.0
852,72.0,60.0,60.0,0.0,0.0
853,75.0,0.0,60.0,0.0,0.0
854,74.0,60.0,60.0,0.0,0.0
855,65.0,0.0,120.0,1.0,0.0
856,75.0,60.0,60.0,0.0,0.0
857,74.0,60.0,60.0,0.0,0.0
858,55.0,60.0,240.0,1.0,0.0
859,72.0,60.0,60.0,0.0,0.0
860,71.0,60.0,60.0,0.0,0.0
861,74.0,0.0,60.0,0.0,0.0
862,56.0,60.0,60.0,1.0,0.0
863,72.0,60.0,120.0,0.0,0.0
864,55.0,0.0,60.0,1.0,0.0
865,53.0,60.0,60.0,1.0,0.0
866,74.0,0.0,60.0,0.0,0.0
867,55.0,0.0,60.0,1.0,0.0
868,75.0,60.0,60.0,0.0,0.0
869,56.0,60.0,60.0,1.0,0.0
870,77.0,0.0,240.0,0.0,0.0
871,58.0,60.0,60.0,1.0,0.0
872,60.0,60.0,60.0,1.0,0.0
873,59.0,60.0,60.0,1.0,0.0
874,60.0,60.0,60.0,1.0,0.0
875,75.0,0.0,60.0,0.0,0.0
876,62.0,0.0,60.0,1.0,0.0
877,77.0,60.0,60.0,0.0,0.0
878,79.0,60.0,240.0,0.0,0.0
879,63.0,60.0,60.0,1.0,0.0
880,65.0,90.0,60.0,1.0,0.0
881,67.0,0.0,480.0,1.0,0.0
882,43.0,30.0,30.0,2.0,0.0
883,45.0,0.0,30.0,2.0,0.0
884,77.0,60.0,120.0,0.0,0.0
885,47.0,60.0,60.0,2.0,0.0
886,43.0,0.0,60.0,2.0,0.0
887,75.0,60.0,120.0,0.0,0.0
888,48.0,60.0,60.0,2.0,0.0
889,43.0,0.0,60.0,2.0,0.0
890,74.0,60.0,60.0,0.0,0.0
891,50.0,0.0,60.0,2.0,0.0
892,43.0,60.0,60.0,2.0,0.0
893,75.0,0.0,60.0,0.0,0.0
894,77.0,0.0,120.0,0.0,0.0
895,68.0,0.0,120.0,1.0,0.0
896,51.0,60.0,60.0,2.0,0.0
897,43.0,60.0,60.0,2.0,0.0
898,53.0,60.0,60.0,2.0,0.0
899,71.0,0.0,120.0,0.0,0.0
900,62.0,60.0,120.0,1.0,0.0
901,43.0,0.0,60.0,2.0,0.0
902,51.0,60.0,60.0,2.0,0.0
903,72.0,60.0,240.0,0.0,0.0
904,60.0,0.0,60.0,1.0,0.0
905,50.0,0.0,60.0,2.0,0.0
906,62.0,60.0,60.0,1.0,0.0
907,63.0,0.0,300.0,1.0,0.0
908,48.0,60.0,60.0,2.0,0.0
909,51.0,0.0,60.0,2.0,0.0
910,46.0,60.0,60.0,2.0,0.0
911,67.0,0.0,120.0,0.0,0.0
912,51.0,60.0,60.0,2.0,0.0
913,45.0,60.0,60.0,2.0,0.0
914,65.0,10.0,600.0,0.0,0.0
915,62.0,60.0,60.0,1.0,0.0
916,51.0,0.0,60.0,2.0,0.0
917,60.0,60.0,60.0,1.0,0.0
918,43.0,0.0,60.0,2.0,0.0
919,51.0,0.0,60.0,2.0,0.0
920,58.0,60.0,60.0,1.0,0.0
921,57.0,60.0,60.0,1.0,0.0
922,41.0,0.0,60.0,2.0,0.0
923,51.0,0.0,60.0,2.0,0.0
924,60.0,60.0,60.0,1.0,0.0
925,58.0,60.0,60.0,1.0,0.0
926,50.0,0.0,60.0,2.0,0.0
927,48.0,60.0,60.0,2.0,0.0
928,60.0,0.0,60.0,1.0,0.0
929,62.0,0.0,300.0,1.0,0.0
930,46.0,50.0,60.0,2.0,0.0
931,50.0,60.0,60.0,2.0,0.0
932,45.0,60.0,60.0,2.0,0.0
933,65.0,0.0,120.0,0.0,0.0
934,50.0,60.0,60.0,2.0,0.0
935,43.0,60.0,60.0,2.0,0.0
936,63.0,10.0,600.0,0.0,0.0
937,60.0,0.0,60.0,1.0,0.0
938,50.0,60.0,60.0,2.0,0.0
939,58.0,60.0,60.0,1.0,0.0
940,41.0,0.0,60.0,2.0,0.0
941,57.0,0.0,60.0,1.0,0.0
942,50.0,60.0,60.0,2.0,0.0
943,39.0,0.0,60.0,2.0,0.0
944,55.0,60.0,60.0,1.0,0.0
945,50.0,0.0,60.0,2.0,0.0
946,58.0,60.0,60.0,1.0,0.0
947,48.0,60.0,60.0,2.0,0.0
948,57.0,0.0,60.0,1.0,0.0
949,58.0,0.0,60.0,1.0,0.0
950,46.0,60.0,60.0,2.0,0.0
951,60.0,0.0,300.0,1.0,0.0
952,45.0,50.0,60.0,2.0,0.0
953,48.0,60.0,60.0,2.0,0.0
954,43.0,60.0,60.0,2.0,0.0
955,63.0,0.0,120.0,0.0,0.0
956,48.0,60.0,60.0,2.0,0.0
957,42.0,60.0,60.0,2.0,0.0
958,62.0,60.0,420.0,0.0,0.0
959,48.0,60.0,60.0,2.0,0.0
960,58.0,0.0,60.0,1.0,0.0
961,57.0,60.0,60.0,1.0,0.0
962,40.0,0.0,60.0,2.0,0.0
963,55.0,0.0,60.0,1.0,0.0
964,48.0,60.0,60.0,2.0,0.0
965,38.0,60.0,60.0,2.0,0.0
966,54.0,0.0,60.0,1.0,0.0
967,48.0,60.0,60.0,2.0,0.0
968,57.0,0.0,60.0,1.0,0.0
969,46.0,0.0,60.0,2.0,0.0
970,55.0,60.0,120.0,1.0,0.0
971,67.0,0.0,60.0,0.0,0.0
972,50.0,0.0,60.0,2.0,0.0
973,48.0,0.0,60.0,2.0,0.0
974,69.0,60.0,60.0,0.0,0.0
975,46.0,0.0,60.0,2.0,0.0
976,67.0,60.0,60.0,0.0,0.0
977,45.0,60.0,60.0,2.0,0.0
978,66.0,0.0,60.0,0.0,0.0
979,67.0,0.0,60.0,0.0,0.0
980,43.0,60.0,60.0,2.0,0.0
981,42.0,60.0,60.0,2.0,0.0
982,69.0,0.0,120.0,0.0,0.0
983,45.0,60.0,60.0,2.0,0.0
984,70.0,60.0,60.0,0.0,0.0
985,43.0,0.0,60.0,2.0,0.0
986,69.0,0.0,60.0,0.0,0.0
987,42.0,60.0,60.0,2.0,0.0
988,40.0,0.0,60.0,2.0,0.0
989,67.0,60.0,60.0,0.0,0.0
990,38.0,0.0,60.0,2.0,0.0
991,69.0,120.0,60.0,0.0,0.0
992,70.0,60.0,120.0,0.0,0.0
993,43.0,0.0,120.0,2.0,0.0
994,45.0,60.0,60.0,2.0,0.0
995,69.0,0.0,120.0,0.0,0.0
996,43.0,60.0,60.0,2.0,0.0
997,67.0,0.0,120.0,0.0,0.0
998,42.0,60.0,60.0,2.0,0.0
999,43.0,120.0,60.0,2.0,0.0
1000,66.0,0.0,120.0,0.0,0.0
1001,45.0,60.0,120.0,2.0,0.0
1002,75.0,120.0,240.0,0.0,0.0
1003,46.0,60.0,60.0,2.0,0.0
1004,45.0,60.0,60.0,2.0,0.0
1005,43.0,60.0,60.0,2.0,0.0
1006,45.0,0.0,60.0,2.0,0.0
1007,46.0,0.0,120.0,2.0,0.0
1008,74.0,60.0,120.0,0.0,0.0
1009,45.0,0.0,120.0,2.0,0.0
1010,75.0,60.0,60.0,0.0,0.0
1011,74.0,60.0,60.0,0.0,0.0
1012,43.0,0.0,120.0,2.0,0.0
1013,72.0,60.0,60.0,0.0,0.0
1014,70.0,120.0,60.0,0.0,0.0
1015,69.0,0.0,120.0,0.0,0.0
1016,42.0,60.0,120.0,2.0,0.0
1017,72.0,60.0,60.0,0.0,0.0
1018,51.0,60.0,240.0,2.0,0.0
1019,70.0,60.0,60.0,0.0,0.0
1020,69.0,60.0,60.0,0.0,0.0
1021,67.0,0.0,60.0,0.0,0.0
1022,66.0,60.0,60.0,0.0,0.0
1023,50.0,0.0,60.0,2.0,0.0
1024,52.0,0.0,60.0,2.0,0.0
1025,67.0,60.0,60.0,0.0,0.0
1026,69.0,0.0,60.0,0.0,0.0
1027,54.0,60.0,60.0,2.0,0.0
1028,66.0,60.0,60.0,0.0,0.0
1029,50.0,0.0,60.0,2.0,0.0
1030,70.0,0.0,60.0,0.0,0.0
1031,55.0,60.0,60.0,2.0,0.0
1032,66.0,0.0,60.0,0.0,0.0
1033,50.0,60.0,60.0,2.0,0.0
1034,57.0,60.0,60.0,2.0,0.0
1035,72.0,0.0,60.0,0.0,0.0
1036,50.0,60.0,60.0,2.0,0.0
1037,66.0,0.0,60.0,0.0,0.0
1038,58.0,0.0,60.0,2.0,0.0
1039,74.0,60.0,60.0,0.0,0.0
1040,50.0,60.0,60.0,2.0,0.0
1041,66.0,0.0,60.0,0.0,0.0
1042,60.0,0.0,60.0,2.0,0.0
1043,75.0,60.0,60.0,0.0,0.0
1044,66.0,60.0,60.0,0.0,0.0
1045,50.0,0.0,60.0,2.0,0.0
1046,58.0,60.0,60.0,2.0,0.0
1047,74.0,0.0,60.0,0.0,0.0
1048,50.0,0.0,60.0,2.0,0.0
1049,66.0,60.0,60.0,0.0,0.0
1050,51.0,0.0,60.0,2.0,0.0
1051,67.0,60.0,60.0,0.0,0.0
1052,74.0,0.0,60.0,0.0,0.0
1053,58.0,30.0,60.0,2.0,0.0
1054,72.0,30.0,30.0,0.0,0.0
1055,57.0,0.0,30.0,2.0,0.0
1056,70.0,0.0,30.0,0.0,0.0
1057,55.0,30.0,30.0,2.0,0.0
1058,69.0,0.0,30.0,0.0,0.0
1059,54.0,30.0,30.0,2.0,0.0
1060,70.0,60.0,30.0,0.0,0.0
1061,55.0,0.0,30.0,2.0,0.0
1062,57.0,0.0,60.0,2.0,0.0
1063,72.0,60.0,60.0,0.0,0.0
1064,48.0,0.0,60.0,2.0,0.0
1065,64.0,60.0,60.0,0.0,0.0
1066,50.0,0.0,60.0,2.0,0.0
1067,65.0,60.0,60.0,0.0,0.0
1068,57.0,30.0,60.0,2.0,0.0
1069,72.0,0.0,60.0,0.0,0.0
1070,55.0,30.0,30.0,2.0,0.0
1071,70.0,0.0,30.0,0.0,0.0
1072,69.0,0.0,30.0,0.0,0.0
1073,53.0,30.0,30.0,2.0,0.0
1074,67.0,0.0,30.0,0.0,0.0
1075,52.0,30.0,30.0,2.0,0.0
1076,69.0,0.0,30.0,0.0,0.0
1077,53.0,120.0,30.0,2.0,0.0
1078,70.0,30.0,1500.0,0.0,0.0
1079,55.0,60.0,120.0,2.0,0.0
1080,57.0,0.0,60.0,1.0,0.0
1081,58.0,60.0,60.0,1.0,0.0
1082,55.0,60.0,60.0,1.0,0.0
1083,60.0,60.0,60.0,1.0,0.0
1084,55.0,60.0,60.0,1.0,0.0
1085,62.0,60.0,60.0,1.0,0.0
1086,55.0,60.0,60.0,1.0,0.0
1087,64.0,60.0,60.0,1.0,0.0
1088,55.0,60.0,60.0,1.0,0.0
1089,43.0,60.0,120.0,2.0,0.0
1090,65.0,60.0,60.0,1.0,0.0
1091,55.0,0.0,60.0,1.0,0.0
1092,64.0,0.0,120.0,1.0,0.0
1093,48.0,60.0,60.0,2.0,0.0
1094,50.0,60.0,60.0,2.0,0.0
1095,60.0,60.0,120.0,1.0,0.0
1096,52.0,60.0,60.0,2.0,0.0
1097,48.0,0.0,60.0,2.0,0.0
1098,53.0,60.0,60.0,2.0,0.0
1099,62.0,60.0,120.0,1.0,0.0
1100,48.0,0.0,60.0,2.0,0.0
1101,55.0,60.0,60.0,2.0,0.0
1102,64.0,60.0,120.0,1.0,0.0
1103,48.0,0.0,60.0,2.0,0.0
1104,57.0,60.0,60.0,2.0,0.0
1105,65.0,60.0,120.0,1.0,0.0
1106,48.0,0.0,60.0,2.0,0.0
1107,58.0,60.0,60.0,2.0,0.0
1108,67.0,60.0,120.0,1.0,0.0
1109,48.0,0.0,60.0,2.0,0.0
1110,60.0,60.0,180.0,1.0,0.0
1111,57.0,60.0,120.0,2.0,0.0
1112,62.0,30.0,30.0,0.0,0.0
1113,64.0,0.0,30.0,0.0,0.0
1114,65.0,0.0,60.0,0.0,0.0
1115,58.0,0.0,60.0,1.0,0.0
1116,60.0,60.0,60.0,0.0,0.0
1117,57.0,60.0,60.0,1.0,0.0
1118,67.0,0.0,60.0,0.0,0.0
1119,55.0,60.0,60.0,1.0,0.0
1120,60.0,0.0,60.0,0.0,0.0
1121,69.0,0.0,60.0,0.0,0.0
1122,53.0,60.0,60.0,1.0,0.0
1123,60.0,0.0,60.0,0.0,0.0
1124,55.0,60.0,60.0,1.0,0.0
1125,70.0,0.0,60.0,0.0,0.0
1126,53.0,60.0,60.0,1.0,0.0
1127,62.0,0.0,60.0,0.0,0.0
1128,51.0,60.0,60.0,1.0,0.0
1129,45.0,0.0,120.0,2.0,0.0
1130,72.0,0.0,60.0,0.0,0.0
1131,50.0,60.0,60.0,1.0,0.0
1132,63.0,60.0,60.0,0.0,0.0
1133,48.0,0.0,60.0,1.0,0.0
1134,46.0,60.0,180.0,2.0,0.0
1135,62.0,30.0,60.0,0.0,0.0
1136,63.0,30.0,30.0,0.0,0.0
1137,65.0,60.0,30.0,0.0,0.0
1138,67.0,0.0,60.0,0.0,0.0
1139,62.0,60.0,60.0,0.0,0.0
1140,48.0,0.0,60.0,2.0,0.0
1141,69.0,60.0,60.0,0.0,0.0
1142,46.0,0.0,60.0,2.0,0.0
1143,45.0,60.0,60.0,2.0,0.0
1144,62.0,0.0,60.0,0.0,0.0
1145,70.0,0.0,60.0,0.0,0.0
1146,43.0,60.0,60.0,2.0,0.0
1147,62.0,0.0,60.0,0.0,0.0
1148,45.0,60.0,60.0,2.0,0.0
1149,72.0,60.0,60.0,0.0,0.0
1150,43.0,0.0,60.0,2.0,0.0
1151,41.0,60.0,60.0,2.0,0.0
1152,63.0,0.0,60.0,0.0,0.0
1153,39.0,60.0,60.0,2.0,0.0
1154,74.0,0.0,60.0,0.0,0.0
1155,38.0,0.0,60.0,2.0,0.0
1156,65.0,60.0,60.0,0.0,0.0
1157,36.0,60.0,120.0,2.0,0.0
1158,63.0,60.0,60.0,0.0,0.0
1159,62.0,0.0,60.0,0.0,0.0
1160,46.0,60.0,120.0,2.0,0.0
1161,63.0,60.0,60.0,0.0,0.0
1162,67.0,0.0,60.0,0.0,0.0
1163,45.0,60.0,120.0,2.0,0.0
1164,72.0,60.0,60.0,0.0,0.0
1165,63.0,0.0,60.0,0.0,0.0
1166,62.0,60.0,60.0,0.0,0.0
1167,46.0,0.0,120.0,2.0,0.0
1168,67.0,60.0,60.0,0.0,0.0
1169,48.0,0.0,60.0,1.0,0.0
1170,65.0,60.0,60.0,0.0,0.0
1171,46.0,60.0,60.0,1.0,0.0
1172,69.0,0.0,60.0,0.0,0.0
1173,43.0,0.0,120.0,2.0,0.0
1174,70.0,0.0,240.0,0.0,0.0
1175,45.0,60.0,60.0,1.0,0.0
1176,46.0,120.0,60.0,1.0,0.0
1177,39.0,60.0,120.0,2.0,0.0
1178,48.0,0.0,120.0,1.0,0.0
1179,41.0,0.0,240.0,2.0,0.0
1180,50.0,60.0,60.0,1.0,0.0
1181,69.0,0.0,240.0,0.0,0.0
1182,48.0,60.0,60.0,1.0,0.0
1183,46.0,60.0,60.0,1.0,0.0
1184,48.0,120.0,60.0,1.0,0.0
1185,46.0,60.0,120.0,2.0,0.0
1186,70.0,0.0,120.0,0.0,0.0
1187,50.0,0.0,120.0,1.0,0.0
1188,72.0,60.0,60.0,0.0,0.0
1189,48.0,0.0,120.0,1.0,0.0
1190,45.0,60.0,120.0,2.0,0.0
1191,70.0,0.0,60.0,0.0,0.0
1192,43.0,120.0,120.0,2.0,0.0
1193,46.0,0.0,120.0,1.0,0.0
1194,69.0,60.0,60.0,0.0,0.0
1195,70.0,0.0,60.0,0.0,0.0
1196,45.0,60.0,120.0,1.0,0.0
1197,41.0,16.0,2040.0,2.0,0.0
1198,72.0,0.0,120.0,0.0,0.0
1199,55.0,0.0,240.0,1.0,0.0
1200,74.0,60.0,60.0,0.0,0.0
1201,72.0,60.0,60.0,0.0,0.0
1202,70.0,60.0,60.0,0.0,0.0
1203,72.0,120.0,60.0,0.0,0.0
1204,74.0,60.0,120.0,0.0,0.0
1205,53.0,0.0,120.0,1.0,0.0
1206,55.0,60.0,60.0,1.0,0.0
1207,75.0,0.0,60.0,0.0,0.0
1208,74.0,0.0,60.0,0.0,0.0
1209,53.0,60.0,60.0,1.0,0.0
1210,51.0,0.0,60.0,1.0,0.0
1211,72.0,60.0,60.0,0.0,0.0
1212,70.0,120.0,60.0,0.0,0.0
1213,50.0,0.0,60.0,1.0,0.0
1214,48.0,0.0,120.0,1.0,0.0
1215,69.0,60.0,120.0,0.0,0.0
1216,79.0,60.0,300.0,0.0,0.0
1217,51.0,60.0,60.0,1.0,0.0
1218,50.0,60.0,60.0,1.0,0.0
1219,48.0,60.0,60.0,1.0,0.0
1220,46.0,60.0,60.0,1.0,0.0
1221,45.0,0.0,240.0,1.0,0.0
1222,77.0,60.0,60.0,0.0,0.0
1223,79.0,60.0,60.0,0.0,0.0
1224,77.0,60.0,60.0,0.0,0.0
1225,46.0,6.0,180.0,1.0,0.0
1226,75.0,60.0,60.0,0.0,0.0
1227,74.0,22.0,15.0,0.0,0.0
1228,72.0,16.0,20.0,0.0,0.0
1229,74.0,22.0,20.0,0.0,0.0
1230,51.0,20.0,30.0,1.0,0.0
1231,72.0,2.0,20.0,0.0,0.0
1232,74.0,10.0,20.0,0.0,0.0
1233,50.0,12.0,30.0,1.0,0.0
1234,72.0,22.0,20.0,0.0,0.0
1235,48.0,18.0,60.0,1.0,0.0
1236,74.0,22.0,20.0,0.0,0.0
1237,72.0,4.0,20.0,0.0,0.0
1238,74.0,22.0,20.0,0.0,0.0
1239,51.0,2.0,60.0,1.0,0.0
1240,72.0,20.0,20.0,0.0,0.0
1241,74.0,22.0,20.0,0.0,0.0
1242,46.0,8.0,60.0,1.0,0.0
1243,72.0,22.0,20.0,0.0,0.0
1244,74.0,14.0,20.0,0.0,0.0
1245,72.0,22.0,20.0,0.0,0.0
1246,51.0,14.0,60.0,1.0,0.0
1247,74.0,22.0,20.0,0.0,0.0
1248,72.0,8.0,20.0,0.0,0.0
1249,74.0,22.0,20.0,0.0,0.0
1250,45.0,20.0,60.0,1.0,0.0
1251,72.0,22.0,20.0,0.0,0.0
1252,74.0,2.0,20.0,0.0,0.0
1253,72.0,22.0,20.0,0.0,0.0
1254,51.0,4.0,60.0,1.0,0.0
1255,74.0,18.0,20.0,0.0,0.0
1256,72.0,22.0,20.0,0.0,0.0
1257,43.0,10.0,60.0,1.0,0.0
1258,74.0,22.0,20.0,0.0,0.0
1259,72.0,12.0,20.0,0.0,0.0
1260,74.0,22.0,20.0,0.0,0.0
1261,51.0,0.0,60.0,1.0,0.0
1262,72.0,22.0,20.0,0.0,0.0
1263,74.0,6.0,20.0,0.0,0.0
1264,72.0,22.0,20.0,0.0,0.0
1265,41.0,22.0,60.0,1.0,0.0
1266,74.0,22.0,20.0,0.0,0.0
1267,72.0,0.0,20.0,0.0,0.0
1268,51.0,6.0,60.0,1.0,0.0
1269,74.0,22.0,20.0,0.0,0.0
1270,72.0,16.0,20.0,0.0,0.0
1271,74.0,54.0,20.0,0.0,0.0
1272,50.0,6.0,60.0,1.0,0.0
1273,72.0,24.0,60.0,0.0,0.0
1274,51.0,60.0,60.0,1.0,0.0
1275,77.0,30.0,30.0,0.0,0.0
1276,75.0,0.0,30.0,0.0,0.0
1277,74.0,60.0,60.0,0.0,0.0
1278,53.0,60.0,300.0,1.0,0.0
1279,48.0,0.0,60.0,2.0,0.0
1280,77.0,60.0,60.0,0.0,0.0
1281,72.0,0.0,60.0,0.0,0.0
1282,46.0,60.0,60.0,2.0,0.0
1283,77.0,60.0,60.0,0.0,0.0
1284,45.0,0.0,60.0,2.0,0.0
1285,43.0,60.0,240.0,2.0,0.0
1286,70.0,0.0,60.0,0.0,0.0
1287,77.0,0.0,60.0,0.0,0.0
1288,51.0,60.0,60.0,1.0,0.0
1289,69.0,60.0,60.0,0.0,0.0
1290,50.0,0.0,60.0,1.0,0.0
1291,48.0,0.0,60.0,1.0,0.0
1292,77.0,0.0,60.0,0.0,0.0
1293,46.0,0.0,60.0,1.0,0.0
1294,67.0,60.0,60.0,0.0,0.0
1295,50.0,0.0,60.0,1.0,0.0
1296,77.0,60.0,60.0,0.0,0.0
1297,48.0,0.0,60.0,1.0,0.0
1298,75.0,60.0,60.0,0.0,0.0
1299,50.0,60.0,60.0,1.0,0.0
1300,74.0,0.0,60.0,0.0,0.0
1301,51.0,60.0,300.0,1.0,0.0
1302,72.0,60.0,60.0,0.0,0.0
1303,75.0,60.0,60.0,0.0,0.0
1304,46.0,0.0,60.0,2.0,0.0
1305,70.0,60.0,60.0,0.0,0.0
1306,45.0,0.0,60.0,2.0,0.0
1307,43.0,60.0,60.0,2.0,0.0
1308,75.0,0.0,60.0,0.0,0.0
1309,41.0,0.0,240.0,2.0,0.0
1310,69.0,0.0,60.0,0.0,0.0
1311,75.0,0.0,60.0,0.0,0.0
1312,50.0,60.0,60.0,1.0,0.0
1313,48.0,0.0,60.0,1.0,0.0
1314,67.0,60.0,60.0,0.0,0.0
1315,46.0,0.0,60.0,1.0,0.0
1316,75.0,60.0,60.0,0.0,0.0
1317,45.0,60.0,60.0,1.0,0.0
1318,65.0,0.0,60.0,0.0,0.0
1319,75.0,0.0,60.0,0.0,0.0
1320,48.0,60.0,60.0,1.0,0.0
1321,74.0,0.0,60.0,0.0,0.0
1322,46.0,60.0,60.0,1.0,0.0
1323,48.0,60.0,60.0,1.0,0.0
1324,72.0,0.0,60.0,0.0,0.0
1325,50.0,60.0,300.0,1.0,0.0
1326,70.0,60.0,60.0,0.0,0.0
1327,44.0,0.0,60.0,2.0,0.0
1328,74.0,60.0,60.0,0.0,0.0
1329,43.0,60.0,60.0,2.0,0.0
1330,68.0,0.0,60.0,0.0,0.0
1331,74.0,0.0,60.0,0.0,0.0
1332,41.0,60.0,60.0,2.0,0.0
1333,67.0,0.0,60.0,0.0,0.0
1334,39.0,0.0,120.0,2.0,0.0
1335,43.0,0.0,60.0,1.0,0.0
1336,74.0,60.0,60.0,0.0,0.0
1337,45.0,60.0,60.0,1.0,0.0
1338,65.0,0.0,60.0,0.0,0.0
1339,46.0,60.0,60.0,1.0,0.0
1340,74.0,0.0,60.0,0.0,0.0
1341,63.0,0.0,60.0,0.0,0.0
1342,48.0,60.0,60.0,1.0,0.0
1343,74.0,60.0,60.0,0.0,0.0
1344,50.0,0.0,60.0,1.0,0.0
1345,72.0,0.0,60.0,0.0,0.0
1346,51.0,60.0,60.0,1.0,0.0
1347,70.0,0.0,60.0,0.0,0.0
1348,53.0,60.0,60.0,1.0,0.0
1349,69.0,0.0,60.0,0.0,0.0
1350,51.0,60.0,60.0,1.0,0.0
1351,72.0,60.0,60.0,0.0,0.0
1352,50.0,0.0,60.0,1.0,0.0
1353,67.0,0.0,60.0,0.0,0.0
1354,48.0,60.0,60.0,1.0,0.0
1355,72.0,0.0,60.0,0.0,0.0
1356,46.0,60.0,60.0,1.0,0.0
1357,65.0,60.0,60.0,0.0,0.0
1358,45.0,0.0,120.0,1.0,0.0
1359,41.0,0.0,60.0,2.0,0.0
1360,72.0,60.0,60.0,0.0,0.0
1361,43.0,0.0,60.0,2.0,0.0
1362,63.0,60.0,60.0,0.0,0.0
1363,72.0,60.0,60.0,0.0,0.0
1364,45.0,0.0,60.0,2.0,0.0
1365,46.0,0.0,60.0,2.0,0.0
1366,62.0,60.0,60.0,0.0,0.0
1367,72.0,0.0,60.0,0.0,0.0
1368,48.0,60.0,60.0,2.0,0.0
1369,70.0,60.0,60.0,0.0,0.0
1370,50.0,0.0,60.0,2.0,0.0
1371,62.0,0.0,60.0,0.0,0.0
1372,51.0,60.0,60.0,2.0,0.0
1373,53.0,0.0,120.0,2.0,0.0
1374,60.0,60.0,60.0,0.0,0.0
1375,63.0,60.0,60.0,0.0,0.0
1376,41.0,22.0,120.0,2.0,0.0
1377,70.0,60.0,60.0,0.0,0.0
1378,69.0,0.0,60.0,0.0,0.0
1379,46.0,12.0,120.0,2.0,0.0
1380,72.0,22.0,20.0,0.0,0.0
1381,70.0,22.0,20.0,0.0,0.0
1382,72.0,22.0,20.0,0.0,0.0
1383,70.0,22.0,20.0,0.0,0.0
1384,72.0,10.0,20.0,0.0,0.0
1385,70.0,22.0,20.0,0.0,0.0
1386,44.0,18.0,60.0,2.0,0.0
1387,72.0,22.0,20.0,0.0,0.0
1388,70.0,4.0,20.0,0.0,0.0
1389,72.0,22.0,20.0,0.0,0.0
1390,46.0,2.0,60.0,2.0,0.0
1391,70.0,20.0,20.0,0.0,0.0
1392,72.0,22.0,20.0,0.0,0.0
1393,48.0,8.0,60.0,2.0,0.0
1394,70.0,22.0,20.0,0.0,0.0
1395,72.0,14.0,20.0,0.0,0.0
1396,70.0,22.0,20.0,0.0,0.0
1397,46.0,14.0,60.0,2.0,0.0
1398,72.0,22.0,20.0,0.0,0.0
1399,70.0,8.0,20.0,0.0,0.0
1400,72.0,22.0,20.0,0.0,0.0
1401,44.0,4.0,120.0,2.0,0.0
1402,70.0,22.0,20.0,0.0,0.0
1403,72.0,22.0,20.0,0.0,0.0
1404,70.0,22.0,20.0,0.0,0.0
1405,72.0,18.0,20.0,0.0,0.0
1406,70.0,22.0,20.0,0.0,0.0
1407,43.0,10.0,60.0,2.0,0.0
1408,72.0,22.0,20.0,0.0,0.0
1409,70.0,12.0,20.0,0.0,0.0
1410,72.0,22.0,20.0,0.0,0.0
1411,44.0,16.0,60.0,2.0,0.0
1412,70.0,22.0,20.0,0.0,0.0
1413,72.0,6.0,20.0,0.0,0.0
1414,70.0,22.0,20.0,0.0,0.0
1415,46.0,22.0,60.0,2.0,0.0
1416,72.0,22.0,20.0,0.0,0.0
1417,70.0,0.0,20.0,0.0,0.0
1418,72.0,22.0,20.0,0.0,0.0
1419,44.0,6.0,60.0,2.0,0.0
1420,70.0,16.0,20.0,0.0,0.0
1421,72.0,22.0,20.0,0.0,0.0
1422,43.0,0.0,120.0,2.0,0.0
1423,70.0,22.0,20.0,0.0,0.0
1424,72.0,22.0,20.0,0.0,0.0
1425,70.0,22.0,20.0,0.0,0.0
1426,63.0,18.0,60.0,1.0,0.0
1427,72.0,22.0,20.0,0.0,0.0
1428,70.0,4.0,20.0,0.0,0.0
1429,72.0,22.0,20.0,0.0,0.0
1430,61.0,2.0,60.0,1.0,0.0
1431,44.0,0.0,120.0,2.0,0.0
1432,70.0,20.0,20.0,0.0,0.0
1433,72.0,22.0,20.0,0.0,0.0
1434,60.0,8.0,60.0,1.0,0.0
1435,70.0,22.0,20.0,0.0,0.0
1436,72.0,14.0,20.0,0.0,0.0
1437,70.0,22.0,20.0,0.0,0.0
1438,58.0,14.0,60.0,1.0,0.0
1439,46.0,0.0,120.0,2.0,0.0
1440,72.0,22.0,20.0,0.0,0.0
1441,70.0,8.0,20.0,0.0,0.0
1442,72.0,22.0,20.0,0.0,0.0
1443,61.0,20.0,60.0,1.0,0.0
1444,70.0,22.0,20.0,0.0,0.0
1445,72.0,2.0,20.0,0.0,0.0
1446,70.0,22.0,20.0,0.0,0.0
1447,60.0,42.0,60.0,1.0,0.0
1448,51.0,60.0,120.0,2.0,0.0
1449,72.0,18.0,20.0,0.0,0.0
1450,70.0,18.0,60.0,0.0,0.0
1451,61.0,0.0,60.0,1.0,0.0
1452,60.0,60.0,60.0,1.0,0.0
1453,41.0,60.0,240.0,2.0,0.0
1454,68.0,0.0,360.0,0.0,0.0
1455,58.0,60.0,60.0,1.0,0.0
1456,56.0,60.0,60.0,1.0,0.0
1457,60.0,0.0,60.0,1.0,0.0
1458,58.0,60.0,60.0,1.0,0.0
1459,43.0,0.0,120.0,2.0,0.0
1460,60.0,60.0,60.0,1.0,0.0
1461,67.0,0.0,360.0,0.0,0.0
1462,44.0,60.0,120.0,2.0,0.0
1463,58.0,60.0,60.0,1.0,0.0
1464,56.0,0.0,60.0,1.0,0.0
1465,46.0,60.0,120.0,2.0,0.0
1466,55.0,60.0,60.0,1.0,0.0
1467,58.0,0.0,60.0,1.0,0.0
1468,56.0,60.0,60.0,1.0,0.0
1469,48.0,0.0,120.0,2.0,0.0
1470,58.0,60.0,60.0,1.0,0.0
1471,38.0,120.0,240.0,2.0,0.0
1472,65.0,0.0,240.0,0.0,0.0
1473,56.0,60.0,60.0,1.0,0.0
1474,55.0,60.0,60.0,1.0,0.0
1475,53.0,60.0,60.0,1.0,0.0
1476,56.0,0.0,60.0,1.0,0.0
1477,55.0,0.0,360.0,1.0,0.0
1478,39.0,60.0,120.0,2.0,0.0
1479,63.0,0.0,60.0,0.0,0.0
1480,65.0,0.0,60.0,0.0,0.0
1481,38.0,60.0,60.0,2.0,0.0
1482,63.0,0.0,60.0,0.0,0.0
1483,39.0,60.0,60.0,2.0,0.0
1484,62.0,60.0,60.0,0.0,0.0
1485,41.0,0.0,60.0,2.0,0.0
1486,43.0,0.0,60.0,2.0,0.0
1487,63.0,60.0,60.0,0.0,0.0
1488,32.0,0.0,120.0,2.0,0.0
1489,62.0,30.0,60.0,0.0,0.0
1490,53.0,0.0,120.0,1.0,0.0
1491,58.0,30.0,30.0,0.0,0.0
1492,60.0,60.0,30.0,0.0,0.0
1493,62.0,60.0,60.0,0.0,0.0
1494,56.0,0.0,60.0,2.0,0.0
1495,58.0,60.0,60.0,0.0,0.0
1496,55.0,0.0,60.0,2.0,0.0
1497,63.0,0.0,60.0,0.0,0.0
1498,53.0,60.0,60.0,2.0,0.0
1499,51.0,0.0,60.0,2.0,0.0
1500,58.0,60.0,60.0,0.0,0.0
1501,50.0,0.0,60.0,2.0,0.0
1502,65.0,60.0,60.0,0.0,0.0
1503,48.0,0.0,60.0,2.0,0.0
1504,58.0,60.0,60.0,0.0,0.0
1505,46.0,0.0,60.0,2.0,0.0
1506,67.0,60.0,60.0,0.0,0.0
1507,44.0,60.0,60.0,2.0,0.0
1508,58.0,0.0,60.0,0.0,0.0
1509,43.0,60.0,60.0,2.0,0.0
1510,68.0,0.0,60.0,0.0,0.0
1511,58.0,60.0,60.0,0.0,0.0
1512,41.0,0.0,60.0,2.0,0.0
1513,67.0,0.0,60.0,0.0,0.0
1514,39.0,60.0,60.0,2.0,0.0
1515,75.0,0.0,60.0,0.0,0.0
1516,41.0,60.0,60.0,2.0,0.0
1517,43.0,0.0,60.0,2.0,0.0
1518,73.0,60.0,60.0,0.0,0.0
1519,72.0,0.0,60.0,0.0,0.0
1520,39.0,60.0,60.0,2.0,0.0
1521,70.0,60.0,60.0,0.0,0.0
1522,44.0,0.0,60.0,2.0,0.0
1523,39.0,0.0,60.0,2.0,0.0
1524,68.0,60.0,60.0,0.0,0.0
1525,46.0,0.0,60.0,2.0,0.0
1526,67.0,60.0,60.0,0.0,0.0
1527,39.0,0.0,60.0,2.0,0.0
1528,65.0,60.0,60.0,0.0,0.0
1529,63.0,0.0,60.0,0.0,0.0
1530,48.0,60.0,60.0,2.0,0.0
1531,39.0,60.0,60.0,2.0,0.0
1532,61.0,0.0,60.0,0.0,0.0
1533,49.0,0.0,60.0,2.0,0.0
1534,60.0,60.0,60.0,0.0,0.0
1535,39.0,0.0,60.0,2.0,0.0
1536,58.0,60.0,60.0,0.0,0.0
1537,48.0,0.0,60.0,2.0,0.0
1538,56.0,30.0,60.0,0.0,0.0
1539,36.0,30.0,30.0,2.0,0.0
1540,72.0,60.0,60.0,0.0,0.0
1541,38.0,0.0,30.0,2.0,0.0
1542,40.0,0.0,60.0,2.0,0.0
1543,70.0,60.0,60.0,0.0,0.0
1544,36.0,60.0,60.0,2.0,0.0
1545,68.0,0.0,60.0,0.0,0.0
1546,67.0,60.0,60.0,0.0,0.0
1547,41.0,0.0,60.0,2.0,0.0
1548,36.0,60.0,60.0,2.0,0.0
1549,65.0,0.0,60.0,0.0,0.0
1550,43.0,0.0,60.0,2.0,0.0
1551,64.0,60.0,60.0,0.0,0.0
1552,36.0,0.0,60.0,2.0,0.0
1553,62.0,60.0,60.0,0.0,0.0
1554,44.0,0.0,60.0,2.0,0.0
1555,60.0,60.0,60.0,0.0,0.0
1556,58.0,0.0,60.0,0.0,0.0
1557,36.0,60.0,60.0,2.0,0.0
1558,56.0,60.0,60.0,0.0,0.0
1559,46.0,0.0,60.0,2.0,0.0
1560,36.0,60.0,60.0,2.0,0.0
1561,55.0,0.0,60.0,0.0,0.0
1562,45.0,0.0,60.0,2.0,0.0
1563,53.0,60.0,60.0,0.0,0.0
1564,55.0,0.0,60.0,0.0,0.0
1565,53.0,60.0,60.0,2.0,0.0
1566,57.0,0.0,60.0,0.0,0.0
1567,51.0,60.0,60.0,2.0,0.0
1568,50.0,60.0,60.0,2.0,0.0
1569,53.0,0.0,60.0,0.0,0.0
1570,58.0,0.0,60.0,0.0,0.0
1571,48.0,60.0,60.0,2.0,0.0
1572,46.0,0.0,60.0,2.0,0.0
1573,53.0,60.0,60.0,0.0,0.0
1574,45.0,0.0,60.0,2.0,0.0
1575,60.0,60.0,60.0,0.0,0.0
1576,43.0,0.0,60.0,2.0,0.0
1577,53.0,60.0,60.0,0.0,0.0
1578,41.0,60.0,60.0,2.0,0.0
1579,62.0,0.0,60.0,0.0,0.0
1580,53.0,60.0,60.0,0.0,0.0
1581,39.0,0.0,60.0,2.0,0.0
1582,38.0,60.0,60.0,2.0,0.0
1583,63.0,0.0,60.0,0.0,0.0
1584,36.0,120.0,60.0,2.0,0.0
1585,53.0,0.0,60.0,0.0,0.0
1586,58.0,0.0,120.0,1.0,0.0
1587,62.0,60.0,120.0,0.0,0.0
1588,34.0,60.0,780.0,2.0,0.0
1589,56.0,60.0,60.0,1.0,0.0
1590,67.0,0.0,120.0,0.0,0.0
1591,58.0,60.0,60.0,1.0,0.0
1592,63.0,120.0,120.0,0.0,0.0
1593,60.0,60.0,60.0,1.0,0.0
1594,58.0,0.0,60.0,1.0,0.0
1595,56.0,0.0,120.0,1.0,0.0
1596,60.0,60.0,120.0,0.0,0.0
1597,65.0,0.0,120.0,0.0,0.0
1598,55.0,60.0,60.0,1.0,0.0
1599,56.0,60.0,60.0,1.0,0.0
1600,62.0,0.0,120.0,0.0,0.0
1601,58.0,60.0,60.0,1.0,0.0
1602,56.0,60.0,60.0,1.0,0.0
1603,63.0,50.0,420.0,0.0,0.0
1604,55.0,0.0,120.0,1.0,0.0
1605,46.0,60.0,60.0,2.0,0.0
1606,56.0,0.0,120.0,1.0,0.0
1607,44.0,60.0,60.0,2.0,0.0
1608,46.0,60.0,60.0,2.0,0.0
1609,58.0,0.0,120.0,1.0,0.0
1610,48.0,60.0,60.0,2.0,0.0
1611,46.0,60.0,60.0,2.0,0.0
1612,60.0,14.0,120.0,1.0,0.0
1613,44.0,0.0,120.0,2.0,0.0
1614,65.0,10.0,60.0,0.0,0.0
1615,67.0,22.0,20.0,0.0,0.0
1616,43.0,20.0,60.0,2.0,0.0
1617,50.0,0.0,240.0,1.0,0.0
1618,65.0,22.0,20.0,0.0,0.0
1619,67.0,2.0,20.0,0.0,0.0
1620,65.0,22.0,20.0,0.0,0.0
1621,44.0,60.0,60.0,2.0,0.0
1622,67.0,18.0,20.0,0.0,0.0
1623,65.0,0.0,90.0,0.0,0.0
1624,46.0,30.0,60.0,2.0,0.0
1625,63.0,30.0,30.0,0.0,0.0
1626,44.0,120.0,60.0,2.0,0.0
1627,65.0,0.0,30.0,0.0,0.0
1628,67.0,0.0,120.0,0.0,0.0
1629,43.0,60.0,120.0,2.0,0.0
1630,51.0,0.0,120.0,1.0,0.0
1631,65.0,0.0,60.0,1.0,0.0
1632,41.0,0.0,60.0,2.0,0.0
1633,68.0,60.0,60.0,0.0,0.0
1634,63.0,60.0,60.0,1.0,0.0
1635,43.0,0.0,60.0,2.0,0.0
1636,67.0,0.0,60.0,0.0,0.0
1637,44.0,60.0,60.0,2.0,0.0
1638,65.0,0.0,60.0,0.0,0.0
1639,62.0,0.0,60.0,1.0,0.0
1640,67.0,0.0,60.0,0.0,0.0
1641,43.0,0.0,60.0,2.0,0.0
1642,63.0,120.0,60.0,1.0,0.0
1643,68.0,0.0,120.0,0.0,0.0
1644,65.0,0.0,120.0,1.0,0.0
1645,41.0,60.0,120.0,2.0,0.0
1646,70.0,60.0,60.0,0.0,0.0
1647,67.0,0.0,60.0,1.0,0.0
1648,39.0,0.0,60.0,2.0,0.0
1649,65.0,0.0,60.0,1.0,0.0
1650,41.0,0.0,60.0,2.0,0.0
1651,68.0,60.0,60.0,0.0,0.0
1652,43.0,0.0,60.0,2.0,0.0
1653,63.0,0.0,60.0,1.0,0.0
1654,67.0,60.0,60.0,0.0,0.0
1655,65.0,0.0,60.0,1.0,0.0
1656,41.0,0.0,60.0,2.0,0.0
1657,68.0,60.0,60.0,0.0,0.0
1658,67.0,60.0,120.0,1.0,0.0
1659,70.0,0.0,120.0,0.0,0.0
1660,39.0,30.0,60.0,2.0,0.0
1661,51.0,30.0,30.0,2.0,0.0
1662,50.0,0.0,30.0,2.0,0.0
1663,68.0,60.0,120.0,0.0,0.0
1664,65.0,0.0,120.0,1.0,0.0
1665,48.0,60.0,60.0,2.0,0.0
1666,51.0,0.0,60.0,2.0,0.0
1667,63.0,0.0,240.0,1.0,0.0
1668,46.0,60.0,60.0,2.0,0.0
1669,67.0,0.0,120.0,0.0,0.0
1670,51.0,60.0,60.0,2.0,0.0
1671,65.0,0.0,120.0,0.0,0.0
1672,45.0,60.0,60.0,2.0,0.0
1673,51.0,60.0,60.0,2.0,0.0
1674,70.0,60.0,120.0,1.0,0.0
1675,43.0,60.0,60.0,2.0,0.0
1676,75.0,60.0,240.0,0.0,0.0
1677,51.0,0.0,60.0,2.0,0.0
1678,69.0,0.0,120.0,1.0,0.0
1679,41.0,60.0,60.0,2.0,0.0
1680,51.0,0.0,60.0,2.0,0.0
1681,46.0,60.0,60.0,2.0,0.0
1682,70.0,0.0,120.0,1.0,0.0
1683,74.0,0.0,120.0,0.0,0.0
1684,44.0,60.0,60.0,2.0,0.0
1685,72.0,0.0,120.0,0.0,0.0
1686,42.0,60.0,60.0,2.0,0.0
1687,63.0,0.0,120.0,1.0,0.0
1688,46.0,60.0,60.0,2.0,0.0
1689,41.0,60.0,60.0,2.0,0.0
1690,62.0,60.0,120.0,1.0,0.0
1691,70.0,0.0,120.0,0.0,0.0
1692,46.0,0.0,60.0,2.0,0.0
1693,39.0,60.0,60.0,2.0,0.0
1694,60.0,0.0,120.0,1.0,0.0
1695,69.0,0.0,120.0,0.0,0.0
1696,48.0,60.0,60.0,2.0,0.0
1697,78.0,60.0,240.0,0.0,0.0
1698,69.0,0.0,240.0,1.0,0.0
1699,38.0,60.0,60.0,2.0,0.0
1700,48.0,60.0,60.0,2.0,0.0
1701,36.0,60.0,60.0,2.0,0.0
1702,48.0,0.0,60.0,2.0,0.0
1703,38.0,60.0,120.0,2.0,0.0
1704,68.0,0.0,240.0,1.0,0.0
1705,77.0,60.0,60.0,0.0,0.0
1706,75.0,0.0,60.0,0.0,0.0
1707,74.0,60.0,60.0,0.0,0.0
1708,34.0,0.0,120.0,2.0,0.0
1709,72.0,90.0,60.0,0.0,0.0
1710,39.0,120.0,120.0,2.0,0.0
1711,70.0,0.0,120.0,0.0,0.0
1712,67.0,30.0,30.0,1.0,0.0
1713,65.0,0.0,30.0,1.0,0.0
1714,67.0,0.0,120.0,1.0,0.0
1715,36.0,60.0,120.0,2.0,0.0
1716,75.0,60.0,120.0,0.0,0.0
1717,65.0,0.0,240.0,1.0,0.0
1718,32.0,60.0,120.0,2.0,0.0
1719,68.0,0.0,60.0,0.0,0.0
1720,34.0,0.0,120.0,2.0,0.0
1721,75.0,60.0,60.0,0.0,0.0
1722,74.0,60.0,60.0,0.0,0.0
1723,39.0,0.0,360.0,2.0,0.0
1724,75.0,30.0,60.0,0.0,0.0
1725,67.0,0.0,120.0,1.0,0.0
1726,74.0,30.0,30.0,0.0,0.0
1727,72.0,60.0,30.0,0.0,0.0
1728,67.0,60.0,120.0,1.0,0.0
1729,70.0,60.0,60.0,0.0,0.0
1730,75.0,0.0,60.0,0.0,0.0
1731,68.0,60.0,60.0,0.0,0.0
1732,65.0,0.0,120.0,1.0,0.0
1733,75.0,90.0,60.0,0.0,0.0
1734,63.0,0.0,240.0,1.0,0.0
1735,67.0,0.0,120.0,0.0,0.0
1736,39.0,30.0,30.0,2.0,0.0
1737,41.0,60.0,30.0,2.0,0.0
1738,43.0,60.0,60.0,2.0,0.0
1739,75.0,60.0,120.0,0.0,0.0
1740,39.0,0.0,60.0,2.0,0.0
1741,62.0,60.0,120.0,1.0,0.0
1742,44.0,60.0,60.0,2.0,0.0
1743,65.0,0.0,120.0,0.0,0.0
1744,39.0,10.0,180.0,2.0,0.0
1745,46.0,0.0,120.0,2.0,0.0
1746,67.0,30.0,60.0,0.0,0.0
1747,70.0,20.0,30.0,0.0,0.0
1748,68.0,60.0,30.0,0.0,0.0
1749,39.0,0.0,2040.0,2.0,0.0
1750,67.0,60.0,60.0,0.0,0.0
1751,63.0,0.0,15.0,1.0,0.0
1752,70.0,0.0,60.0,0.0,0.0
1753,43.0,0.0,120.0,2.0,0.0
1754,61.0,30.0,120.0,1.0,0.0
1755,65.0,60.0,60.0,0.0,0.0
1756,70.0,0.0,60.0,0.0,0.0
1757,63.0,60.0,120.0,0.0,0.0
1758,60.0,60.0,240.0,1.0,0.0
1759,44.0,30.0,30.0,2.0,0.0
1760,43.0,30.0,30.0,2.0,0.0
1761,44.0,30.0,30.0,2.0,0.0
1762,46.0,0.0,30.0,2.0,0.0
1763,68.0,0.0,300.0,0.0,0.0
1764,48.0,60.0,60.0,2.0,0.0
1765,44.0,0.0,60.0,2.0,0.0
1766,59.0,60.0,120.0,1.0,0.0
1767,50.0,60.0,60.0,2.0,0.0
1768,44.0,0.0,60.0,2.0,0.0
1769,51.0,0.0,1440.0,2.0,0.0
1770,58.0,60.0,120.0,1.0,0.0
1771,63.0,30.0,30.0,0.0,0.0
1772,65.0,30.0,30.0,0.0,0.0
1773,67.0,0.0,30.0,0.0,0.0
1774,68.0,60.0,60.0,0.0,0.0
1775,60.0,60.0,120.0,1.0,0.0
1776,63.0,0.0,60.0,0.0,0.0
1777,70.0,60.0,60.0,0.0,0.0
1778,67.0,0.0,120.0,1.0,0.0
1779,61.0,0.0,120.0,1.0,0.0
1780,63.0,30.0,60.0,0.0,0.0
1781,68.0,0.0,120.0,1.0,0.0
1782,72.0,30.0,30.0,0.0,0.0
1783,67.0,30.0,30.0,0.0,0.0
1784,68.0,30.0,30.0,0.0,0.0
1785,70.0,0.0,30.0,0.0,0.0
1786,72.0,60.0,60.0,0.0,0.0
1787,63.0,60.0,15.0,1.0,0.0
1788,68.0,0.0,60.0,0.0,0.0
1789,74.0,60.0,60.0,0.0,0.0
1790,65.0,0.0,120.0,1.0,0.0
1791,68.0,120.0,60.0,0.0,0.0
1792,75.0,60.0,300.0,0.0,0.0
1793,67.0,60.0,240.0,1.0,0.0
1794,70.0,60.0,60.0,1.0,0.0
1795,72.0,60.0,60.0,1.0,0.0
1796,68.0,0.0,180.0,1.0,0.0
1797,65.0,360.0,120.0,1.0,0.0
1798,74.0,0.0,60.0,0.0,0.0
1799,70.0,0.0,360.0,1.0,0.0
1800,67.0,0.0,360.0,1.0,0.0
1801,75.0,0.0,360.0,0.0,0.0
