,note,step,duration,channel,velocity
0,71.0,26.0,240.0,3.0,0.0
1,59.0,7.0,240.0,2.0,0.0
2,79.0,30.0,30.0,0.0,0.0
3,42.0,4.0,60.0,1.0,0.0
4,78.0,26.0,30.0,0.0,0.0
5,76.0,30.0,30.0,0.0,0.0
6,47.0,4.0,60.0,1.0,0.0
7,74.0,26.0,30.0,0.0,0.0
8,76.0,30.0,30.0,0.0,0.0
9,78.0,19.0,30.0,0.0,0.0
10,50.0,4.0,60.0,1.0,0.0
11,71.0,4.0,30.0,0.0,0.0
12,54.0,4.0,60.0,1.0,0.0
13,70.0,26.0,30.0,0.0,0.0
14,73.0,26.0,120.0,3.0,0.0
15,61.0,7.0,120.0,2.0,0.0
16,73.0,30.0,30.0,0.0,0.0
17,42.0,4.0,60.0,1.0,0.0
18,76.0,19.0,30.0,0.0,0.0
19,70.0,4.0,30.0,0.0,0.0
20,71.0,4.0,60.0,0.0,0.0
21,47.0,26.0,30.0,1.0,0.0
22,62.0,7.0,240.0,2.0,0.0
23,74.0,0.0,240.0,3.0,0.0
24,55.0,30.0,30.0,1.0,0.0
25,66.0,4.0,60.0,0.0,0.0
26,54.0,26.0,30.0,1.0,0.0
27,52.0,30.0,30.0,1.0,0.0
28,71.0,4.0,60.0,0.0,0.0
29,50.0,26.0,30.0,1.0,0.0
30,52.0,30.0,30.0,1.0,0.0
31,54.0,19.0,30.0,1.0,0.0
32,74.0,4.0,60.0,0.0,0.0
33,47.0,30.0,30.0,1.0,0.0
34,45.0,26.0,30.0,1.0,0.0
35,63.0,7.0,120.0,2.0,0.0
36,75.0,26.0,120.0,3.0,0.0
37,78.0,4.0,60.0,0.0,0.0
38,47.0,30.0,30.0,1.0,0.0
39,54.0,19.0,30.0,1.0,0.0
40,71.0,4.0,60.0,0.0,0.0
41,45.0,4.0,30.0,1.0,0.0
42,64.0,7.0,240.0,2.0,0.0
43,43.0,4.0,60.0,1.0,0.0
44,76.0,26.0,30.0,0.0,0.0
45,76.0,26.0,240.0,3.0,0.0
46,81.0,30.0,30.0,0.0,0.0
47,79.0,26.0,30.0,0.0,0.0
48,40.0,4.0,60.0,1.0,0.0
49,78.0,30.0,30.0,0.0,0.0
50,43.0,4.0,60.0,1.0,0.0
51,76.0,26.0,30.0,0.0,0.0
52,78.0,30.0,30.0,0.0,0.0
53,47.0,4.0,60.0,1.0,0.0
54,79.0,19.0,30.0,0.0,0.0
55,73.0,4.0,30.0,0.0,0.0
56,71.0,26.0,30.0,0.0,0.0
57,62.0,7.0,120.0,2.0,0.0
58,52.0,4.0,60.0,1.0,0.0
59,74.0,26.0,120.0,3.0,0.0
60,74.0,30.0,30.0,0.0,0.0
61,40.0,4.0,60.0,1.0,0.0
62,79.0,19.0,30.0,0.0,0.0
63,71.0,4.0,30.0,0.0,0.0
64,70.0,4.0,60.0,0.0,0.0
65,61.0,0.0,240.0,2.0,0.0
66,42.0,26.0,30.0,1.0,0.0
67,73.0,11.0,240.0,3.0,0.0
68,62.0,30.0,30.0,1.0,0.0
69,61.0,26.0,30.0,1.0,0.0
70,66.0,4.0,60.0,0.0,0.0
71,59.0,30.0,30.0,1.0,0.0
72,58.0,30.0,30.0,1.0,0.0
73,74.0,0.0,30.0,0.0,0.0
74,59.0,30.0,30.0,1.0,0.0
75,61.0,19.0,30.0,1.0,0.0
76,73.0,0.0,30.0,0.0,0.0
77,71.0,0.0,30.0,0.0,0.0
78,54.0,30.0,30.0,1.0,0.0
79,73.0,11.0,120.0,3.0,0.0
80,70.0,30.0,30.0,0.0,0.0
81,52.0,0.0,30.0,1.0,0.0
82,61.0,0.0,120.0,2.0,0.0
83,71.0,0.0,30.0,0.0,0.0
84,55.0,30.0,30.0,1.0,0.0
85,73.0,0.0,30.0,0.0,0.0
86,54.0,19.0,30.0,1.0,0.0
87,66.0,30.0,30.0,0.0,0.0
88,52.0,0.0,30.0,1.0,0.0
89,50.0,4.0,60.0,1.0,0.0
90,71.0,26.0,30.0,0.0,0.0
91,62.0,7.0,240.0,2.0,0.0
92,74.0,26.0,240.0,3.0,0.0
93,83.0,30.0,30.0,0.0,0.0
94,81.0,26.0,30.0,0.0,0.0
95,47.0,4.0,60.0,1.0,0.0
96,79.0,30.0,30.0,0.0,0.0
97,50.0,4.0,60.0,1.0,0.0
98,78.0,26.0,30.0,0.0,0.0
99,79.0,30.0,30.0,0.0,0.0
100,54.0,4.0,60.0,1.0,0.0
101,81.0,19.0,30.0,0.0,0.0
102,74.0,4.0,30.0,0.0,0.0
103,73.0,26.0,30.0,0.0,0.0
104,64.0,7.0,120.0,2.0,0.0
105,76.0,26.0,120.0,3.0,0.0
106,57.0,4.0,60.0,1.0,0.0
107,76.0,30.0,30.0,0.0,0.0
108,45.0,4.0,60.0,1.0,0.0
109,79.0,19.0,30.0,0.0,0.0
110,73.0,4.0,30.0,0.0,0.0
111,50.0,26.0,30.0,1.0,0.0
112,78.0,0.0,240.0,3.0,0.0
113,66.0,7.0,240.0,2.0,0.0
114,74.0,4.0,60.0,0.0,0.0
115,59.0,30.0,30.0,1.0,0.0
116,66.0,4.0,60.0,0.0,0.0
117,57.0,26.0,30.0,1.0,0.0
118,55.0,30.0,30.0,1.0,0.0
119,54.0,26.0,30.0,1.0,0.0
120,69.0,4.0,60.0,0.0,0.0
121,55.0,30.0,30.0,1.0,0.0
122,74.0,4.0,60.0,0.0,0.0
123,57.0,19.0,30.0,1.0,0.0
124,50.0,30.0,30.0,1.0,0.0
125,78.0,4.0,60.0,0.0,0.0
126,62.0,7.0,120.0,2.0,0.0
127,48.0,26.0,30.0,1.0,0.0
128,74.0,26.0,120.0,3.0,0.0
129,54.0,30.0,30.0,1.0,0.0
130,57.0,19.0,30.0,1.0,0.0
131,66.0,4.0,60.0,0.0,0.0
132,48.0,4.0,30.0,1.0,0.0
133,67.0,7.0,240.0,2.0,0.0
134,47.0,4.0,60.0,1.0,0.0
135,74.0,26.0,30.0,0.0,0.0
136,79.0,26.0,240.0,3.0,0.0
137,81.0,30.0,30.0,0.0,0.0
138,40.0,4.0,60.0,1.0,0.0
139,79.0,26.0,30.0,0.0,0.0
140,78.0,30.0,30.0,0.0,0.0
141,43.0,4.0,60.0,1.0,0.0
142,76.0,26.0,30.0,0.0,0.0
143,78.0,30.0,30.0,0.0,0.0
144,47.0,4.0,60.0,1.0,0.0
145,79.0,19.0,30.0,0.0,0.0
146,71.0,4.0,30.0,0.0,0.0
147,78.0,26.0,120.0,3.0,0.0
148,69.0,26.0,30.0,0.0,0.0
149,50.0,4.0,60.0,1.0,0.0
150,66.0,7.0,120.0,2.0,0.0
151,74.0,30.0,30.0,0.0,0.0
152,78.0,19.0,30.0,0.0,0.0
153,47.0,4.0,60.0,1.0,0.0
154,69.0,4.0,30.0,0.0,0.0
155,76.0,0.0,360.0,3.0,0.0
156,64.0,7.0,360.0,2.0,0.0
157,67.0,26.0,30.0,0.0,0.0
158,52.0,4.0,60.0,1.0,0.0
159,78.0,30.0,30.0,0.0,0.0
160,76.0,26.0,30.0,0.0,0.0
161,43.0,4.0,60.0,1.0,0.0
162,74.0,30.0,30.0,0.0,0.0
163,73.0,26.0,30.0,0.0,0.0
164,45.0,4.0,60.0,1.0,0.0
165,74.0,30.0,30.0,0.0,0.0
166,76.0,26.0,30.0,0.0,0.0
167,49.0,4.0,60.0,1.0,0.0
168,69.0,30.0,30.0,0.0,0.0
169,52.0,4.0,60.0,1.0,0.0
170,67.0,26.0,30.0,0.0,0.0
171,73.0,30.0,30.0,0.0,0.0
172,45.0,4.0,60.0,1.0,0.0
173,76.0,19.0,30.0,0.0,0.0
174,67.0,30.0,30.0,0.0,0.0
175,50.0,26.0,30.0,1.0,0.0
176,74.0,0.0,360.0,3.0,0.0
177,66.0,4.0,60.0,0.0,0.0
178,62.0,7.0,360.0,2.0,0.0
179,59.0,30.0,30.0,1.0,0.0
180,69.0,4.0,60.0,0.0,0.0
181,57.0,26.0,30.0,1.0,0.0
182,55.0,30.0,30.0,1.0,0.0
183,74.0,4.0,60.0,0.0,0.0
184,54.0,26.0,30.0,1.0,0.0
185,55.0,30.0,30.0,1.0,0.0
186,78.0,4.0,60.0,0.0,0.0
187,57.0,26.0,30.0,1.0,0.0
188,50.0,30.0,30.0,1.0,0.0
189,81.0,4.0,60.0,0.0,0.0
190,49.0,26.0,30.0,1.0,0.0
191,52.0,30.0,30.0,1.0,0.0
192,76.0,4.0,60.0,0.0,0.0
193,55.0,19.0,30.0,1.0,0.0
194,49.0,30.0,30.0,1.0,0.0
195,78.0,26.0,30.0,0.0,0.0
196,50.0,4.0,60.0,1.0,0.0
197,86.0,30.0,30.0,0.0,0.0
198,85.0,26.0,30.0,0.0,0.0
199,52.0,4.0,60.0,1.0,0.0
200,83.0,30.0,30.0,0.0,0.0
201,82.0,30.0,30.0,0.0,0.0
202,54.0,0.0,30.0,1.0,0.0
203,62.0,0.0,30.0,1.0,0.0
204,83.0,30.0,30.0,0.0,0.0
205,61.0,30.0,30.0,1.0,0.0
206,85.0,0.0,30.0,0.0,0.0
207,59.0,30.0,30.0,1.0,0.0
208,78.0,0.0,30.0,0.0,0.0
209,58.0,0.0,30.0,1.0,0.0
210,76.0,30.0,30.0,0.0,0.0
211,79.0,0.0,30.0,0.0,0.0
212,59.0,30.0,30.0,1.0,0.0
213,78.0,30.0,30.0,0.0,0.0
214,61.0,0.0,30.0,1.0,0.0
215,76.0,0.0,30.0,0.0,0.0
216,54.0,30.0,30.0,1.0,0.0
217,78.0,0.0,240.0,3.0,0.0
218,66.0,7.0,240.0,2.0,0.0
219,74.0,26.0,30.0,0.0,0.0
220,59.0,4.0,60.0,1.0,0.0
221,79.0,30.0,30.0,0.0,0.0
222,54.0,4.0,60.0,1.0,0.0
223,78.0,26.0,30.0,0.0,0.0
224,76.0,30.0,30.0,0.0,0.0
225,59.0,4.0,60.0,1.0,0.0
226,74.0,26.0,30.0,0.0,0.0
227,76.0,30.0,30.0,0.0,0.0
228,78.0,19.0,30.0,0.0,0.0
229,62.0,4.0,60.0,1.0,0.0
230,71.0,30.0,30.0,0.0,0.0
231,66.0,4.0,60.0,1.0,0.0
232,66.0,7.0,120.0,2.0,0.0
233,70.0,26.0,30.0,0.0,0.0
234,78.0,0.0,120.0,3.0,0.0
235,73.0,30.0,30.0,0.0,0.0
236,61.0,4.0,60.0,1.0,0.0
237,76.0,19.0,30.0,0.0,0.0
238,70.0,30.0,30.0,0.0,0.0
239,62.0,26.0,30.0,1.0,0.0
240,66.0,7.0,240.0,2.0,0.0
241,71.0,4.0,60.0,0.0,0.0
242,78.0,0.0,240.0,3.0,0.0
243,67.0,30.0,30.0,1.0,0.0
244,66.0,26.0,30.0,1.0,0.0
245,62.0,4.0,60.0,0.0,0.0
246,64.0,30.0,30.0,1.0,0.0
247,62.0,26.0,30.0,1.0,0.0
248,66.0,4.0,60.0,0.0,0.0
249,64.0,30.0,30.0,1.0,0.0
250,66.0,19.0,30.0,1.0,0.0
251,71.0,4.0,60.0,0.0,0.0
252,59.0,30.0,30.0,1.0,0.0
253,78.0,26.0,120.0,3.0,0.0
254,57.0,26.0,30.0,1.0,0.0
255,74.0,4.0,60.0,0.0,0.0
256,66.0,7.0,120.0,2.0,0.0
257,59.0,30.0,30.0,1.0,0.0
258,71.0,4.0,60.0,0.0,0.0
259,66.0,19.0,30.0,1.0,0.0
260,57.0,4.0,30.0,1.0,0.0
261,76.0,26.0,240.0,3.0,0.0
262,64.0,7.0,240.0,2.0,0.0
263,56.0,4.0,60.0,1.0,0.0
264,76.0,26.0,30.0,0.0,0.0
265,78.0,30.0,30.0,0.0,0.0
266,76.0,26.0,30.0,0.0,0.0
267,52.0,4.0,60.0,1.0,0.0
268,74.0,30.0,30.0,0.0,0.0
269,73.0,26.0,30.0,0.0,0.0
270,57.0,4.0,60.0,1.0,0.0
271,74.0,30.0,30.0,0.0,0.0
272,61.0,4.0,60.0,1.0,0.0
273,76.0,19.0,30.0,0.0,0.0
274,69.0,4.0,30.0,0.0,0.0
275,59.0,30.0,30.0,1.0,0.0
276,74.0,26.0,120.0,3.0,0.0
277,68.0,0.0,30.0,0.0,0.0
278,62.0,11.0,120.0,2.0,0.0
279,62.0,0.0,30.0,1.0,0.0
280,71.0,30.0,30.0,0.0,0.0
281,61.0,0.0,30.0,1.0,0.0
282,76.0,19.0,30.0,0.0,0.0
283,68.0,0.0,30.0,0.0,0.0
284,59.0,4.0,30.0,1.0,0.0
285,57.0,26.0,30.0,1.0,0.0
286,76.0,7.0,240.0,3.0,0.0
287,64.0,0.0,240.0,2.0,0.0
288,73.0,4.0,60.0,0.0,0.0
289,54.0,30.0,30.0,1.0,0.0
290,52.0,26.0,30.0,1.0,0.0
291,64.0,4.0,60.0,0.0,0.0
292,50.0,30.0,30.0,1.0,0.0
293,69.0,4.0,60.0,0.0,0.0
294,49.0,26.0,30.0,1.0,0.0
295,50.0,30.0,30.0,1.0,0.0
296,52.0,19.0,30.0,1.0,0.0
297,73.0,4.0,60.0,0.0,0.0
298,45.0,30.0,30.0,1.0,0.0
299,44.0,26.0,30.0,1.0,0.0
300,76.0,4.0,60.0,0.0,0.0
301,76.0,7.0,120.0,3.0,0.0
302,64.0,0.0,120.0,2.0,0.0
303,47.0,30.0,30.0,1.0,0.0
304,71.0,4.0,60.0,0.0,0.0
305,50.0,19.0,30.0,1.0,0.0
306,44.0,30.0,30.0,1.0,0.0
307,64.0,7.0,240.0,2.0,0.0
308,76.0,26.0,240.0,3.0,0.0
309,57.0,4.0,60.0,1.0,0.0
310,73.0,26.0,30.0,0.0,0.0
311,71.0,30.0,30.0,0.0,0.0
312,52.0,4.0,60.0,1.0,0.0
313,73.0,26.0,30.0,0.0,0.0
314,75.0,30.0,30.0,0.0,0.0
315,49.0,4.0,60.0,1.0,0.0
316,76.0,26.0,30.0,0.0,0.0
317,75.0,30.0,30.0,0.0,0.0
318,73.0,19.0,30.0,0.0,0.0
319,45.0,4.0,60.0,1.0,0.0
320,79.0,4.0,30.0,0.0,0.0
321,42.0,4.0,60.0,1.0,0.0
322,66.0,7.0,120.0,2.0,0.0
323,78.0,26.0,120.0,3.0,0.0
324,81.0,26.0,30.0,0.0,0.0
325,78.0,30.0,30.0,0.0,0.0
326,47.0,4.0,60.0,1.0,0.0
327,75.0,19.0,30.0,0.0,0.0
328,81.0,4.0,30.0,0.0,0.0
329,79.0,0.0,240.0,3.0,0.0
330,67.0,7.0,240.0,2.0,0.0
331,40.0,26.0,30.0,1.0,0.0
332,79.0,4.0,60.0,0.0,0.0
333,51.0,30.0,30.0,1.0,0.0
334,88.0,4.0,60.0,0.0,0.0
335,52.0,26.0,30.0,1.0,0.0
336,54.0,30.0,30.0,1.0,0.0
337,55.0,26.0,30.0,1.0,0.0
338,83.0,4.0,60.0,0.0,0.0
339,54.0,30.0,30.0,1.0,0.0
340,52.0,19.0,30.0,1.0,0.0
341,79.0,4.0,60.0,0.0,0.0
342,59.0,30.0,30.0,1.0,0.0
343,67.0,7.0,120.0,2.0,0.0
344,79.0,26.0,120.0,3.0,0.0
345,60.0,26.0,30.0,1.0,0.0
346,76.0,4.0,60.0,0.0,0.0
347,57.0,30.0,30.0,1.0,0.0
348,84.0,4.0,60.0,0.0,0.0
349,52.0,19.0,30.0,1.0,0.0
350,60.0,4.0,30.0,1.0,0.0
351,51.0,4.0,60.0,1.0,0.0
352,83.0,26.0,30.0,0.0,0.0
353,66.0,0.0,240.0,2.0,0.0
354,78.0,7.0,240.0,3.0,0.0
355,73.0,30.0,30.0,0.0,0.0
356,66.0,4.0,60.0,1.0,0.0
357,75.0,26.0,30.0,0.0,0.0
358,76.0,30.0,30.0,0.0,0.0
359,63.0,4.0,60.0,1.0,0.0
360,78.0,26.0,30.0,0.0,0.0
361,76.0,30.0,30.0,0.0,0.0
362,59.0,4.0,60.0,1.0,0.0
363,75.0,19.0,30.0,0.0,0.0
364,78.0,30.0,30.0,0.0,0.0
365,76.0,26.0,120.0,3.0,0.0
366,79.0,26.0,30.0,0.0,0.0
367,55.0,4.0,60.0,1.0,0.0
368,64.0,7.0,120.0,2.0,0.0
369,76.0,30.0,30.0,0.0,0.0
370,71.0,19.0,30.0,0.0,0.0
371,60.0,4.0,60.0,1.0,0.0
372,79.0,4.0,30.0,0.0,0.0
373,54.0,4.0,60.0,1.0,0.0
374,81.0,26.0,30.0,0.0,0.0
375,78.0,7.0,360.0,3.0,0.0
376,66.0,0.0,360.0,2.0,0.0
377,79.0,30.0,30.0,0.0,0.0
378,57.0,4.0,60.0,1.0,0.0
379,78.0,26.0,30.0,0.0,0.0
380,76.0,30.0,30.0,0.0,0.0
381,59.0,4.0,60.0,1.0,0.0
382,75.0,26.0,30.0,0.0,0.0
383,76.0,30.0,30.0,0.0,0.0
384,78.0,26.0,30.0,0.0,0.0
385,57.0,4.0,60.0,1.0,0.0
386,71.0,30.0,30.0,0.0,0.0
387,59.0,4.0,60.0,1.0,0.0
388,69.0,26.0,30.0,0.0,0.0
389,75.0,30.0,30.0,0.0,0.0
390,47.0,4.0,60.0,1.0,0.0
391,78.0,19.0,30.0,0.0,0.0
392,69.0,30.0,30.0,0.0,0.0
393,67.0,4.0,60.0,0.0,0.0
394,64.0,7.0,360.0,2.0,0.0
395,76.0,0.0,360.0,3.0,0.0
396,52.0,26.0,30.0,1.0,0.0
397,60.0,30.0,30.0,1.0,0.0
398,59.0,26.0,30.0,1.0,0.0
399,59.0,4.0,60.0,0.0,0.0
400,57.0,30.0,30.0,1.0,0.0
401,64.0,4.0,60.0,0.0,0.0
402,55.0,26.0,30.0,1.0,0.0
403,57.0,30.0,30.0,1.0,0.0
404,59.0,26.0,30.0,1.0,0.0
405,67.0,4.0,60.0,0.0,0.0
406,52.0,30.0,30.0,1.0,0.0
407,51.0,26.0,30.0,1.0,0.0
408,71.0,4.0,60.0,0.0,0.0
409,54.0,30.0,30.0,1.0,0.0
410,57.0,19.0,30.0,1.0,0.0
411,66.0,4.0,60.0,0.0,0.0
412,51.0,30.0,30.0,1.0,0.0
413,52.0,4.0,60.0,1.0,0.0
414,67.0,26.0,30.0,0.0,0.0
415,63.0,30.0,30.0,0.0,0.0
416,40.0,4.0,60.0,1.0,0.0
417,64.0,26.0,30.0,0.0,0.0
418,66.0,30.0,30.0,0.0,0.0
419,67.0,30.0,30.0,0.0,0.0
420,66.0,30.0,30.0,0.0,0.0
421,54.0,0.0,30.0,1.0,0.0
422,55.0,0.0,30.0,1.0,0.0
423,64.0,30.0,30.0,0.0,0.0
424,73.0,30.0,30.0,0.0,0.0
425,57.0,0.0,30.0,1.0,0.0
426,75.0,0.0,30.0,0.0,0.0
427,59.0,30.0,30.0,1.0,0.0
428,57.0,30.0,30.0,1.0,0.0
429,71.0,0.0,30.0,0.0,0.0
430,55.0,30.0,30.0,1.0,0.0
431,73.0,0.0,30.0,0.0,0.0
432,75.0,30.0,30.0,0.0,0.0
433,54.0,0.0,30.0,1.0,0.0
434,76.0,4.0,60.0,0.0,0.0
435,59.0,7.0,240.0,2.0,0.0
436,71.0,26.0,240.0,3.0,0.0
437,55.0,26.0,30.0,1.0,0.0
438,54.0,30.0,30.0,1.0,0.0
439,52.0,26.0,30.0,1.0,0.0
440,71.0,4.0,60.0,0.0,0.0
441,50.0,30.0,30.0,1.0,0.0
442,76.0,4.0,60.0,0.0,0.0
443,49.0,26.0,30.0,1.0,0.0
444,50.0,30.0,30.0,1.0,0.0
445,52.0,19.0,30.0,1.0,0.0
446,79.0,4.0,60.0,0.0,0.0
447,47.0,4.0,30.0,1.0,0.0
448,78.0,4.0,60.0,0.0,0.0
449,46.0,26.0,30.0,1.0,0.0
450,73.0,26.0,120.0,3.0,0.0
451,61.0,7.0,120.0,2.0,0.0
452,49.0,30.0,30.0,1.0,0.0
453,76.0,4.0,60.0,0.0,0.0
454,54.0,19.0,30.0,1.0,0.0
455,46.0,4.0,30.0,1.0,0.0
456,74.0,0.0,30.0,0.0,0.0
457,47.0,30.0,30.0,1.0,0.0
458,74.0,11.0,240.0,3.0,0.0
459,62.0,0.0,240.0,2.0,0.0
460,76.0,0.0,30.0,0.0,0.0
461,42.0,30.0,30.0,1.0,0.0
462,44.0,30.0,30.0,1.0,0.0
463,74.0,0.0,30.0,0.0,0.0
464,73.0,0.0,30.0,0.0,0.0
465,46.0,30.0,30.0,1.0,0.0
466,71.0,0.0,30.0,0.0,0.0
467,47.0,30.0,30.0,1.0,0.0
468,73.0,30.0,30.0,0.0,0.0
469,46.0,0.0,30.0,1.0,0.0
470,74.0,19.0,30.0,0.0,0.0
471,47.0,0.0,30.0,1.0,0.0
472,49.0,30.0,30.0,1.0,0.0
473,67.0,0.0,30.0,0.0,0.0
474,50.0,30.0,30.0,1.0,0.0
475,62.0,11.0,120.0,2.0,0.0
476,74.0,26.0,120.0,3.0,0.0
477,66.0,0.0,30.0,0.0,0.0
478,49.0,0.0,30.0,1.0,0.0
479,69.0,30.0,30.0,0.0,0.0
480,47.0,19.0,30.0,1.0,0.0
481,74.0,0.0,30.0,0.0,0.0
482,45.0,0.0,30.0,1.0,0.0
483,66.0,4.0,30.0,0.0,0.0
484,43.0,30.0,30.0,1.0,0.0
485,64.0,0.0,30.0,0.0,0.0
486,64.0,11.0,240.0,2.0,0.0
487,76.0,0.0,240.0,3.0,0.0
488,67.0,0.0,30.0,0.0,0.0
489,57.0,30.0,30.0,1.0,0.0
490,55.0,0.0,30.0,1.0,0.0
491,69.0,30.0,30.0,0.0,0.0
492,54.0,0.0,30.0,1.0,0.0
493,71.0,30.0,30.0,0.0,0.0
494,73.0,30.0,30.0,0.0,0.0
495,52.0,0.0,30.0,1.0,0.0
496,54.0,0.0,30.0,1.0,0.0
497,71.0,30.0,30.0,0.0,0.0
498,55.0,0.0,30.0,1.0,0.0
499,73.0,19.0,30.0,0.0,0.0
500,74.0,30.0,30.0,0.0,0.0
501,50.0,0.0,30.0,1.0,0.0
502,76.0,26.0,120.0,3.0,0.0
503,49.0,30.0,30.0,1.0,0.0
504,64.0,11.0,120.0,2.0,0.0
505,76.0,0.0,30.0,0.0,0.0
506,52.0,0.0,30.0,1.0,0.0
507,74.0,30.0,30.0,0.0,0.0
508,55.0,19.0,30.0,1.0,0.0
509,73.0,0.0,30.0,0.0,0.0
510,49.0,4.0,30.0,1.0,0.0
511,71.0,0.0,30.0,0.0,0.0
512,50.0,0.0,30.0,1.0,0.0
513,69.0,30.0,30.0,0.0,0.0
514,66.0,0.0,240.0,2.0,0.0
515,78.0,11.0,240.0,3.0,0.0
516,79.0,0.0,30.0,0.0,0.0
517,52.0,30.0,30.0,1.0,0.0
518,78.0,30.0,30.0,0.0,0.0
519,50.0,0.0,30.0,1.0,0.0
520,49.0,0.0,30.0,1.0,0.0
521,76.0,30.0,30.0,0.0,0.0
522,74.0,0.0,30.0,0.0,0.0
523,47.0,30.0,30.0,1.0,0.0
524,76.0,0.0,30.0,0.0,0.0
525,49.0,30.0,30.0,1.0,0.0
526,50.0,19.0,30.0,1.0,0.0
527,78.0,0.0,30.0,0.0,0.0
528,52.0,0.0,30.0,1.0,0.0
529,71.0,30.0,30.0,0.0,0.0
530,70.0,30.0,30.0,0.0,0.0
531,66.0,0.0,120.0,2.0,0.0
532,78.0,11.0,120.0,3.0,0.0
533,54.0,0.0,30.0,1.0,0.0
534,73.0,0.0,30.0,0.0,0.0
535,56.0,30.0,30.0,1.0,0.0
536,58.0,19.0,30.0,1.0,0.0
537,76.0,0.0,30.0,0.0,0.0
538,54.0,0.0,30.0,1.0,0.0
539,70.0,30.0,30.0,0.0,0.0
540,78.0,0.0,240.0,3.0,0.0
541,66.0,11.0,240.0,2.0,0.0
542,59.0,0.0,30.0,1.0,0.0
543,74.0,30.0,30.0,0.0,0.0
544,55.0,0.0,30.0,1.0,0.0
545,70.0,30.0,30.0,0.0,0.0
546,71.0,0.0,30.0,0.0,0.0
547,54.0,30.0,30.0,1.0,0.0
548,73.0,0.0,30.0,0.0,0.0
549,52.0,30.0,30.0,1.0,0.0
550,74.0,0.0,30.0,0.0,0.0
551,50.0,30.0,30.0,1.0,0.0
552,73.0,30.0,30.0,0.0,0.0
553,52.0,0.0,30.0,1.0,0.0
554,71.0,19.0,30.0,0.0,0.0
555,54.0,0.0,30.0,1.0,0.0
556,47.0,0.0,30.0,1.0,0.0
557,76.0,30.0,30.0,0.0,0.0
558,45.0,30.0,30.0,1.0,0.0
559,78.0,26.0,120.0,3.0,0.0
560,66.0,11.0,120.0,2.0,0.0
561,78.0,0.0,30.0,0.0,0.0
562,75.0,30.0,30.0,0.0,0.0
563,47.0,0.0,30.0,1.0,0.0
564,71.0,19.0,30.0,0.0,0.0
565,54.0,0.0,30.0,1.0,0.0
566,45.0,4.0,30.0,1.0,0.0
567,75.0,0.0,30.0,0.0,0.0
568,79.0,11.0,240.0,3.0,0.0
569,43.0,30.0,30.0,1.0,0.0
570,67.0,0.0,240.0,2.0,0.0
571,76.0,0.0,30.0,0.0,0.0
572,60.0,0.0,30.0,1.0,0.0
573,75.0,30.0,30.0,0.0,0.0
574,59.0,0.0,30.0,1.0,0.0
575,76.0,30.0,30.0,0.0,0.0
576,57.0,30.0,30.0,1.0,0.0
577,78.0,0.0,30.0,0.0,0.0
578,79.0,0.0,30.0,0.0,0.0
579,55.0,30.0,30.0,1.0,0.0
580,78.0,0.0,30.0,0.0,0.0
581,57.0,30.0,30.0,1.0,0.0
582,76.0,19.0,30.0,0.0,0.0
583,59.0,0.0,30.0,1.0,0.0
584,52.0,30.0,30.0,1.0,0.0
585,82.0,0.0,30.0,0.0,0.0
586,66.0,11.0,120.0,2.0,0.0
587,83.0,0.0,30.0,0.0,0.0
588,78.0,26.0,120.0,3.0,0.0
589,50.0,30.0,30.0,1.0,0.0
590,78.0,30.0,30.0,0.0,0.0
591,54.0,0.0,30.0,1.0,0.0
592,59.0,0.0,30.0,1.0,0.0
593,74.0,19.0,30.0,0.0,0.0
594,50.0,0.0,30.0,1.0,0.0
595,83.0,4.0,30.0,0.0,0.0
596,73.0,26.0,30.0,0.0,0.0
597,64.0,7.0,240.0,2.0,0.0
598,55.0,4.0,60.0,1.0,0.0
599,76.0,0.0,240.0,3.0,0.0
600,81.0,30.0,30.0,0.0,0.0
601,79.0,26.0,30.0,0.0,0.0
602,52.0,4.0,60.0,1.0,0.0
603,78.0,30.0,30.0,0.0,0.0
604,76.0,26.0,30.0,0.0,0.0
605,49.0,4.0,60.0,1.0,0.0
606,78.0,30.0,30.0,0.0,0.0
607,79.0,19.0,30.0,0.0,0.0
608,52.0,4.0,60.0,1.0,0.0
609,73.0,30.0,30.0,0.0,0.0
610,62.0,7.0,120.0,2.0,0.0
611,71.0,26.0,30.0,0.0,0.0
612,74.0,26.0,120.0,3.0,0.0
613,55.0,4.0,60.0,1.0,0.0
614,74.0,30.0,30.0,0.0,0.0
615,52.0,4.0,60.0,1.0,0.0
616,79.0,19.0,30.0,0.0,0.0
617,71.0,4.0,30.0,0.0,0.0
618,70.0,26.0,30.0,0.0,0.0
619,61.0,7.0,360.0,2.0,0.0
620,73.0,0.0,360.0,3.0,0.0
621,54.0,4.0,60.0,1.0,0.0
622,78.0,30.0,30.0,0.0,0.0
623,42.0,4.0,60.0,1.0,0.0
624,76.0,26.0,30.0,0.0,0.0
625,74.0,30.0,30.0,0.0,0.0
626,46.0,4.0,60.0,1.0,0.0
627,73.0,26.0,30.0,0.0,0.0
628,74.0,30.0,30.0,0.0,0.0
629,76.0,26.0,30.0,0.0,0.0
630,49.0,4.0,60.0,1.0,0.0
631,71.0,30.0,30.0,0.0,0.0
632,69.0,26.0,30.0,0.0,0.0
633,54.0,4.0,60.0,1.0,0.0
634,73.0,30.0,30.0,0.0,0.0
635,42.0,4.0,60.0,1.0,0.0
636,76.0,19.0,30.0,0.0,0.0
637,69.0,30.0,30.0,0.0,0.0
638,75.0,30.0,30.0,0.0,0.0
639,71.0,0.0,1440.0,3.0,0.0
640,59.0,0.0,1440.0,2.0,0.0
641,47.0,0.0,30.0,1.0,0.0
642,72.0,30.0,30.0,0.0,0.0
643,51.0,0.0,30.0,1.0,0.0
644,52.0,0.0,30.0,1.0,0.0
645,71.0,30.0,30.0,0.0,0.0
646,54.0,0.0,30.0,1.0,0.0
647,69.0,30.0,30.0,0.0,0.0
648,55.0,0.0,30.0,1.0,0.0
649,67.0,30.0,30.0,0.0,0.0
650,54.0,0.0,30.0,1.0,0.0
651,69.0,30.0,30.0,0.0,0.0
652,71.0,0.0,30.0,0.0,0.0
653,52.0,30.0,30.0,1.0,0.0
654,64.0,0.0,30.0,0.0,0.0
655,59.0,30.0,30.0,1.0,0.0
656,63.0,0.0,30.0,0.0,0.0
657,60.0,30.0,30.0,1.0,0.0
658,66.0,30.0,30.0,0.0,0.0
659,57.0,0.0,30.0,1.0,0.0
660,54.0,30.0,30.0,1.0,0.0
661,69.0,0.0,30.0,0.0,0.0
662,63.0,30.0,30.0,0.0,0.0
663,57.0,0.0,30.0,1.0,0.0
664,64.0,0.0,30.0,0.0,0.0
665,55.0,30.0,30.0,1.0,0.0
666,57.0,0.0,30.0,1.0,0.0
667,63.0,30.0,30.0,0.0,0.0
668,55.0,0.0,30.0,1.0,0.0
669,64.0,30.0,30.0,0.0,0.0
670,66.0,30.0,30.0,0.0,0.0
671,54.0,0.0,30.0,1.0,0.0
672,67.0,0.0,30.0,0.0,0.0
673,52.0,30.0,30.0,1.0,0.0
674,66.0,0.0,30.0,0.0,0.0
675,54.0,30.0,30.0,1.0,0.0
676,64.0,30.0,30.0,0.0,0.0
677,55.0,0.0,30.0,1.0,0.0
678,54.0,0.0,30.0,1.0,0.0
679,71.0,30.0,30.0,0.0,0.0
680,73.0,30.0,30.0,0.0,0.0
681,52.0,0.0,30.0,1.0,0.0
682,70.0,0.0,30.0,0.0,0.0
683,55.0,30.0,30.0,1.0,0.0
684,64.0,0.0,30.0,0.0,0.0
685,54.0,30.0,30.0,1.0,0.0
686,73.0,30.0,30.0,0.0,0.0
687,52.0,0.0,30.0,1.0,0.0
688,59.0,0.0,30.0,1.0,0.0
689,75.0,30.0,30.0,0.0,0.0
690,60.0,0.0,30.0,1.0,0.0
691,71.0,30.0,30.0,0.0,0.0
692,59.0,0.0,30.0,1.0,0.0
693,73.0,30.0,30.0,0.0,0.0
694,75.0,0.0,30.0,0.0,0.0
695,57.0,30.0,30.0,1.0,0.0
696,55.0,30.0,30.0,1.0,0.0
697,76.0,0.0,30.0,0.0,0.0
698,75.0,0.0,30.0,0.0,0.0
699,54.0,30.0,30.0,1.0,0.0
700,52.0,30.0,30.0,1.0,0.0
701,73.0,0.0,30.0,0.0,0.0
702,51.0,30.0,30.0,1.0,0.0
703,78.0,0.0,30.0,0.0,0.0
704,49.0,0.0,30.0,1.0,0.0
705,79.0,30.0,30.0,0.0,0.0
706,58.0,0.0,30.0,1.0,0.0
707,76.0,30.0,30.0,0.0,0.0
708,73.0,0.0,30.0,0.0,0.0
709,55.0,30.0,30.0,1.0,0.0
710,82.0,60.0,30.0,0.0,0.0
711,52.0,0.0,30.0,1.0,0.0
712,83.0,30.0,150.0,0.0,0.0
713,47.0,0.0,360.0,1.0,0.0
714,51.0,30.0,30.0,1.0,0.0
715,54.0,30.0,30.0,1.0,0.0
716,58.0,30.0,30.0,1.0,0.0
717,59.0,0.0,240.0,1.0,0.0
718,78.0,30.0,30.0,0.0,0.0
719,75.0,30.0,30.0,0.0,0.0
720,70.0,124.0,30.0,0.0,0.0
721,71.0,0.0,120.0,0.0,0.0
