,note,step,duration,channel,velocity
0,62.0,0.0,210.0,1.0,0.0
1,62.0,360.0,210.0,0.0,0.0
2,67.0,120.0,570.0,0.0,0.0
3,67.0,0.0,570.0,1.0,0.0
4,55.0,15.0,90.0,4.0,0.0
5,58.0,0.0,90.0,3.0,0.0
6,70.0,0.0,120.0,5.0,0.0
7,62.0,0.0,210.0,2.0,0.0
8,55.0,0.0,120.0,5.0,0.0
9,67.0,0.0,120.0,5.0,0.0
10,74.0,105.0,120.0,5.0,0.0
11,57.0,0.0,90.0,4.0,0.0
12,72.0,105.0,120.0,5.0,0.0
13,75.0,0.0,120.0,5.0,0.0
14,57.0,0.0,120.0,5.0,0.0
15,69.0,0.0,120.0,5.0,0.0
16,60.0,15.0,90.0,3.0,0.0
17,58.0,0.0,210.0,4.0,0.0
18,62.0,15.0,210.0,3.0,0.0
19,58.0,0.0,240.0,5.0,0.0
20,74.0,0.0,240.0,5.0,0.0
21,67.0,15.0,690.0,2.0,0.0
22,70.0,105.0,240.0,5.0,0.0
23,79.0,0.0,240.0,5.0,0.0
24,69.0,0.0,90.0,1.0,0.0
25,69.0,0.0,90.0,0.0,0.0
26,70.0,0.0,90.0,1.0,0.0
27,69.0,0.0,240.0,5.0,0.0
28,72.0,0.0,240.0,5.0,0.0
29,70.0,120.0,90.0,0.0,0.0
30,78.0,225.0,240.0,5.0,0.0
31,57.0,0.0,210.0,4.0,0.0
32,60.0,0.0,210.0,3.0,0.0
33,57.0,0.0,240.0,5.0,0.0
34,72.0,15.0,90.0,1.0,0.0
35,72.0,0.0,90.0,0.0,0.0
36,67.0,225.0,240.0,5.0,0.0
37,74.0,0.0,210.0,0.0,0.0
38,74.0,0.0,240.0,5.0,0.0
39,55.0,0.0,240.0,5.0,0.0
40,74.0,0.0,210.0,1.0,0.0
41,70.0,0.0,240.0,5.0,0.0
42,58.0,0.0,210.0,3.0,0.0
43,55.0,0.0,210.0,4.0,0.0
44,69.0,0.0,240.0,5.0,0.0
45,57.0,0.0,240.0,5.0,0.0
46,78.0,0.0,240.0,5.0,0.0
47,72.0,225.0,240.0,5.0,0.0
48,66.0,0.0,210.0,1.0,0.0
49,75.0,0.0,210.0,2.0,0.0
50,57.0,0.0,210.0,4.0,0.0
51,66.0,0.0,210.0,0.0,0.0
52,60.0,15.0,210.0,3.0,0.0
53,78.0,0.0,240.0,5.0,0.0
54,58.0,0.0,240.0,5.0,0.0
55,70.0,225.0,240.0,5.0,0.0
56,74.0,0.0,240.0,5.0,0.0
57,58.0,0.0,210.0,4.0,0.0
58,67.0,0.0,210.0,0.0,0.0
59,74.0,0.0,210.0,2.0,0.0
60,62.0,0.0,690.0,3.0,0.0
61,67.0,15.0,210.0,1.0,0.0
62,72.0,0.0,210.0,1.0,0.0
63,57.0,0.0,240.0,5.0,0.0
64,69.0,0.0,240.0,5.0,0.0
65,66.0,0.0,210.0,2.0,0.0
66,72.0,0.0,210.0,0.0,0.0
67,78.0,225.0,240.0,5.0,0.0
68,57.0,15.0,210.0,4.0,0.0
69,72.0,0.0,240.0,5.0,0.0
70,70.0,15.0,210.0,0.0,0.0
71,55.0,0.0,210.0,4.0,0.0
72,55.0,225.0,240.0,5.0,0.0
73,67.0,0.0,240.0,5.0,0.0
74,67.0,0.0,210.0,2.0,0.0
75,70.0,0.0,210.0,1.0,0.0
76,70.0,0.0,240.0,5.0,0.0
77,74.0,0.0,240.0,5.0,0.0
78,75.0,0.0,210.0,1.0,0.0
79,57.0,0.0,210.0,4.0,0.0
80,78.0,0.0,240.0,5.0,0.0
81,57.0,0.0,240.0,5.0,0.0
82,72.0,0.0,240.0,5.0,0.0
83,69.0,225.0,240.0,5.0,0.0
84,60.0,15.0,210.0,2.0,0.0
85,66.0,0.0,210.0,3.0,0.0
86,75.0,0.0,210.0,0.0,0.0
87,70.0,0.0,240.0,5.0,0.0
88,58.0,225.0,240.0,5.0,0.0
89,78.0,0.0,240.0,5.0,0.0
90,67.0,0.0,210.0,3.0,0.0
91,74.0,0.0,210.0,1.0,0.0
92,58.0,0.0,210.0,4.0,0.0
93,58.0,15.0,210.0,2.0,0.0
94,74.0,0.0,240.0,5.0,0.0
95,74.0,0.0,210.0,0.0,0.0
96,72.0,0.0,210.0,2.0,0.0
97,78.0,0.0,210.0,1.0,0.0
98,57.0,15.0,210.0,4.0,0.0
99,78.0,0.0,210.0,0.0,0.0
100,69.0,0.0,210.0,3.0,0.0
101,57.0,0.0,240.0,5.0,0.0
102,72.0,0.0,240.0,5.0,0.0
103,78.0,0.0,240.0,5.0,0.0
104,69.0,225.0,240.0,5.0,0.0
105,55.0,105.0,240.0,5.0,0.0
106,62.0,0.0,210.0,3.0,0.0
107,55.0,15.0,210.0,4.0,0.0
108,70.0,0.0,210.0,2.0,0.0
109,74.0,0.0,240.0,5.0,0.0
110,67.0,0.0,240.0,5.0,0.0
111,70.0,0.0,240.0,5.0,0.0
112,79.0,0.0,210.0,0.0,0.0
113,79.0,0.0,210.0,1.0,0.0
114,57.0,0.0,240.0,5.0,0.0
115,69.0,105.0,240.0,5.0,0.0
116,72.0,0.0,240.0,5.0,0.0
117,78.0,0.0,240.0,5.0,0.0
118,72.0,0.0,210.0,2.0,0.0
119,77.0,120.0,90.0,0.0,0.0
120,77.0,0.0,90.0,1.0,0.0
121,57.0,0.0,210.0,4.0,0.0
122,60.0,15.0,210.0,3.0,0.0
123,75.0,0.0,90.0,0.0,0.0
124,75.0,0.0,90.0,1.0,0.0
125,78.0,0.0,240.0,5.0,0.0
126,74.0,0.0,240.0,5.0,0.0
127,70.0,0.0,240.0,5.0,0.0
128,74.0,0.0,90.0,0.0,0.0
129,58.0,105.0,240.0,5.0,0.0
130,74.0,0.0,210.0,2.0,0.0
131,58.0,0.0,210.0,3.0,0.0
132,74.0,120.0,90.0,1.0,0.0
133,58.0,0.0,210.0,4.0,0.0
134,75.0,0.0,90.0,0.0,0.0
135,75.0,15.0,90.0,1.0,0.0
136,60.0,15.0,210.0,3.0,0.0
137,72.0,0.0,90.0,1.0,0.0
138,66.0,0.0,210.0,2.0,0.0
139,57.0,0.0,210.0,4.0,0.0
140,72.0,0.0,240.0,5.0,0.0
141,69.0,0.0,240.0,5.0,0.0
142,57.0,0.0,240.0,5.0,0.0
143,78.0,105.0,240.0,5.0,0.0
144,72.0,120.0,90.0,0.0,0.0
145,74.0,0.0,90.0,0.0,0.0
146,74.0,0.0,90.0,1.0,0.0
147,67.0,0.0,210.0,2.0,0.0
148,55.0,15.0,210.0,4.0,0.0
149,67.0,105.0,240.0,5.0,0.0
150,70.0,0.0,90.0,1.0,0.0
151,74.0,0.0,240.0,5.0,0.0
152,55.0,0.0,240.0,5.0,0.0
153,70.0,120.0,90.0,0.0,0.0
154,70.0,0.0,240.0,5.0,0.0
155,62.0,0.0,210.0,3.0,0.0
156,72.0,0.0,90.0,1.0,0.0
157,72.0,0.0,90.0,0.0,0.0
158,78.0,0.0,240.0,5.0,0.0
159,72.0,0.0,240.0,5.0,0.0
160,57.0,0.0,210.0,4.0,0.0
161,69.0,0.0,90.0,1.0,0.0
162,66.0,0.0,210.0,2.0,0.0
163,57.0,105.0,240.0,5.0,0.0
164,69.0,120.0,90.0,0.0,0.0
165,60.0,15.0,210.0,3.0,0.0
166,69.0,0.0,240.0,5.0,0.0
167,70.0,0.0,90.0,1.0,0.0
168,70.0,0.0,90.0,0.0,0.0
169,67.0,0.0,90.0,1.0,0.0
170,67.0,15.0,210.0,2.0,0.0
171,58.0,0.0,240.0,5.0,0.0
172,70.0,105.0,240.0,5.0,0.0
173,67.0,120.0,90.0,0.0,0.0
174,58.0,0.0,210.0,4.0,0.0
175,74.0,0.0,240.0,5.0,0.0
176,79.0,0.0,240.0,5.0,0.0
177,62.0,120.0,570.0,3.0,0.0
178,69.0,0.0,90.0,0.0,0.0
179,69.0,0.0,90.0,1.0,0.0
180,65.0,120.0,90.0,1.0,0.0
181,57.0,0.0,240.0,5.0,0.0
182,74.0,0.0,240.0,5.0,0.0
183,65.0,0.0,90.0,0.0,0.0
184,78.0,105.0,240.0,5.0,0.0
185,57.0,0.0,210.0,4.0,0.0
186,70.0,0.0,240.0,5.0,0.0
187,69.0,0.0,240.0,5.0,0.0
188,69.0,0.0,210.0,2.0,0.0
189,67.0,0.0,90.0,0.0,0.0
190,67.0,15.0,90.0,1.0,0.0
191,63.0,0.0,210.0,1.0,0.0
192,55.0,105.0,240.0,5.0,0.0
193,70.0,0.0,210.0,2.0,0.0
194,74.0,0.0,240.0,5.0,0.0
195,63.0,15.0,210.0,0.0,0.0
196,67.0,0.0,240.0,5.0,0.0
197,55.0,0.0,210.0,4.0,0.0
198,75.0,0.0,240.0,5.0,0.0
199,70.0,0.0,240.0,5.0,0.0
200,63.0,0.0,90.0,3.0,0.0
201,60.0,120.0,90.0,3.0,0.0
202,65.0,120.0,330.0,2.0,0.0
203,57.0,0.0,210.0,4.0,0.0
204,72.0,0.0,240.0,5.0,0.0
205,75.0,0.0,240.0,5.0,0.0
206,57.0,105.0,240.0,5.0,0.0
207,69.0,0.0,240.0,5.0,0.0
208,72.0,0.0,210.0,1.0,0.0
209,77.0,0.0,240.0,5.0,0.0
210,72.0,0.0,210.0,0.0,0.0
211,62.0,15.0,90.0,3.0,0.0
212,62.0,15.0,210.0,0.0,0.0
213,77.0,0.0,240.0,5.0,0.0
214,70.0,105.0,240.0,5.0,0.0
215,58.0,0.0,240.0,5.0,0.0
216,58.0,0.0,210.0,4.0,0.0
217,58.0,0.0,210.0,3.0,0.0
218,62.0,0.0,210.0,1.0,0.0
219,74.0,0.0,240.0,5.0,0.0
220,63.0,0.0,90.0,2.0,0.0
221,74.0,0.0,240.0,5.0,0.0
222,65.0,0.0,210.0,1.0,0.0
223,60.0,0.0,210.0,3.0,0.0
224,65.0,15.0,210.0,0.0,0.0
225,57.0,0.0,210.0,4.0,0.0
226,69.0,225.0,240.0,5.0,0.0
227,57.0,0.0,240.0,5.0,0.0
228,70.0,0.0,240.0,5.0,0.0
229,77.0,0.0,240.0,5.0,0.0
230,62.0,120.0,90.0,2.0,0.0
231,60.0,0.0,90.0,2.0,0.0
232,62.0,0.0,210.0,3.0,0.0
233,58.0,0.0,210.0,2.0,0.0
234,70.0,0.0,210.0,1.0,0.0
235,74.0,0.0,240.0,5.0,0.0
236,55.0,0.0,240.0,5.0,0.0
237,67.0,225.0,240.0,5.0,0.0
238,70.0,0.0,210.0,0.0,0.0
239,55.0,15.0,210.0,4.0,0.0
240,70.0,0.0,240.0,5.0,0.0
241,70.0,0.0,240.0,5.0,0.0
242,51.0,0.0,210.0,4.0,0.0
243,75.0,15.0,210.0,1.0,0.0
244,75.0,0.0,210.0,0.0,0.0
245,67.0,0.0,240.0,5.0,0.0
246,63.0,30.0,240.0,5.0,0.0
247,67.0,0.0,210.0,3.0,0.0
248,70.0,0.0,210.0,2.0,0.0
249,51.0,0.0,240.0,5.0,0.0
250,74.0,0.0,210.0,1.0,0.0
251,65.0,0.0,240.0,5.0,0.0
252,70.0,0.0,240.0,5.0,0.0
253,74.0,0.0,240.0,5.0,0.0
254,53.0,0.0,240.0,5.0,0.0
255,70.0,0.0,210.0,2.0,0.0
256,53.0,15.0,210.0,4.0,0.0
257,65.0,0.0,210.0,3.0,0.0
258,74.0,30.0,30.0,0.0,0.0
259,75.0,30.0,30.0,0.0,0.0
260,74.0,30.0,30.0,0.0,0.0
261,75.0,30.0,30.0,0.0,0.0
262,74.0,30.0,30.0,0.0,0.0
263,75.0,30.0,30.0,0.0,0.0
264,72.0,15.0,30.0,0.0,0.0
265,74.0,105.0,30.0,0.0,0.0
266,60.0,0.0,240.0,5.0,0.0
267,53.0,225.0,240.0,5.0,0.0
268,63.0,0.0,210.0,3.0,0.0
269,57.0,0.0,240.0,5.0,0.0
270,41.0,0.0,240.0,5.0,0.0
271,41.0,0.0,210.0,4.0,0.0
272,72.0,0.0,90.0,0.0,0.0
273,72.0,120.0,90.0,1.0,0.0
274,69.0,0.0,210.0,2.0,0.0
275,70.0,0.0,90.0,0.0,0.0
276,70.0,15.0,90.0,1.0,0.0
277,70.0,0.0,690.0,0.0,0.0
278,65.0,0.0,240.0,5.0,0.0
279,58.0,225.0,240.0,5.0,0.0
280,70.0,15.0,690.0,1.0,0.0
281,46.0,0.0,240.0,5.0,0.0
282,62.0,0.0,240.0,5.0,0.0
283,62.0,0.0,720.0,3.0,0.0
284,46.0,15.0,210.0,4.0,0.0
285,65.0,0.0,720.0,2.0,0.0
286,53.0,225.0,240.0,5.0,0.0
287,41.0,0.0,240.0,5.0,0.0
288,60.0,0.0,240.0,5.0,0.0
289,57.0,0.0,240.0,5.0,0.0
290,41.0,15.0,210.0,4.0,0.0
291,34.0,0.0,240.0,4.0,0.0
292,53.0,225.0,240.0,5.0,0.0
293,50.0,0.0,240.0,5.0,0.0
294,46.0,0.0,240.0,5.0,0.0
295,34.0,0.0,240.0,5.0,0.0
296,62.0,0.0,210.0,0.0,0.0
297,62.0,360.0,210.0,1.0,0.0
298,67.0,120.0,570.0,0.0,0.0
299,67.0,0.0,570.0,1.0,0.0
300,55.0,0.0,90.0,4.0,0.0
301,62.0,15.0,210.0,2.0,0.0
302,55.0,105.0,120.0,5.0,0.0
303,67.0,0.0,120.0,5.0,0.0
304,74.0,0.0,120.0,5.0,0.0
305,70.0,0.0,120.0,5.0,0.0
306,58.0,15.0,90.0,3.0,0.0
307,57.0,0.0,120.0,5.0,0.0
308,57.0,0.0,90.0,4.0,0.0
309,75.0,0.0,120.0,5.0,0.0
310,69.0,105.0,120.0,5.0,0.0
311,72.0,0.0,120.0,5.0,0.0
312,60.0,0.0,90.0,3.0,0.0
313,58.0,0.0,210.0,4.0,0.0
314,62.0,0.0,210.0,3.0,0.0
315,67.0,0.0,690.0,2.0,0.0
316,79.0,105.0,240.0,5.0,0.0
317,74.0,0.0,240.0,5.0,0.0
318,70.0,0.0,240.0,5.0,0.0
319,58.0,0.0,240.0,5.0,0.0
320,69.0,0.0,90.0,0.0,0.0
321,69.0,15.0,90.0,1.0,0.0
322,69.0,0.0,240.0,5.0,0.0
323,60.0,15.0,210.0,3.0,0.0
324,57.0,0.0,210.0,4.0,0.0
325,78.0,0.0,240.0,5.0,0.0
326,72.0,0.0,240.0,5.0,0.0
327,70.0,0.0,90.0,1.0,0.0
328,70.0,120.0,90.0,0.0,0.0
329,57.0,225.0,240.0,5.0,0.0
330,72.0,0.0,90.0,0.0,0.0
331,72.0,0.0,90.0,1.0,0.0
332,55.0,0.0,210.0,4.0,0.0
333,74.0,15.0,210.0,0.0,0.0
334,74.0,0.0,210.0,1.0,0.0
335,55.0,225.0,240.0,5.0,0.0
336,74.0,0.0,240.0,5.0,0.0
337,70.0,0.0,240.0,5.0,0.0
338,67.0,0.0,240.0,5.0,0.0
339,58.0,0.0,210.0,3.0,0.0
340,66.0,15.0,210.0,1.0,0.0
341,78.0,0.0,240.0,5.0,0.0
342,72.0,0.0,240.0,5.0,0.0
343,69.0,0.0,240.0,5.0,0.0
344,57.0,225.0,240.0,5.0,0.0
345,66.0,0.0,210.0,0.0,0.0
346,75.0,0.0,210.0,2.0,0.0
347,57.0,0.0,210.0,4.0,0.0
348,60.0,0.0,210.0,3.0,0.0
349,74.0,0.0,240.0,5.0,0.0
350,62.0,15.0,690.0,3.0,0.0
351,78.0,225.0,240.0,5.0,0.0
352,67.0,0.0,210.0,0.0,0.0
353,70.0,0.0,240.0,5.0,0.0
354,67.0,0.0,210.0,1.0,0.0
355,58.0,0.0,240.0,5.0,0.0
356,58.0,0.0,210.0,4.0,0.0
357,74.0,15.0,210.0,2.0,0.0
358,78.0,0.0,240.0,5.0,0.0
359,57.0,225.0,240.0,5.0,0.0
360,69.0,0.0,240.0,5.0,0.0
361,72.0,0.0,240.0,5.0,0.0
362,72.0,0.0,210.0,0.0,0.0
363,57.0,15.0,210.0,4.0,0.0
364,72.0,0.0,210.0,1.0,0.0
365,66.0,0.0,210.0,2.0,0.0
366,55.0,0.0,210.0,4.0,0.0
367,67.0,0.0,210.0,2.0,0.0
368,55.0,0.0,240.0,5.0,0.0
369,70.0,0.0,210.0,0.0,0.0
370,70.0,0.0,210.0,1.0,0.0
371,67.0,0.0,240.0,5.0,0.0
372,74.0,225.0,240.0,5.0,0.0
373,70.0,0.0,240.0,5.0,0.0
374,75.0,0.0,210.0,1.0,0.0
375,66.0,0.0,210.0,3.0,0.0
376,57.0,0.0,210.0,4.0,0.0
377,75.0,0.0,210.0,0.0,0.0
378,78.0,0.0,240.0,5.0,0.0
379,57.0,0.0,240.0,5.0,0.0
380,60.0,15.0,210.0,2.0,0.0
381,69.0,225.0,240.0,5.0,0.0
382,72.0,0.0,240.0,5.0,0.0
383,67.0,0.0,210.0,3.0,0.0
384,58.0,0.0,240.0,5.0,0.0
385,58.0,0.0,210.0,2.0,0.0
386,74.0,225.0,240.0,5.0,0.0
387,78.0,0.0,240.0,5.0,0.0
388,74.0,0.0,210.0,1.0,0.0
389,58.0,0.0,210.0,4.0,0.0
390,74.0,15.0,210.0,0.0,0.0
391,70.0,0.0,240.0,5.0,0.0
392,69.0,0.0,210.0,3.0,0.0
393,69.0,0.0,240.0,5.0,0.0
394,57.0,0.0,240.0,5.0,0.0
395,72.0,0.0,240.0,5.0,0.0
396,78.0,0.0,210.0,0.0,0.0
397,78.0,225.0,240.0,5.0,0.0
398,72.0,0.0,210.0,2.0,0.0
399,57.0,15.0,210.0,4.0,0.0
400,78.0,0.0,210.0,1.0,0.0
401,74.0,0.0,240.0,5.0,0.0
402,55.0,0.0,240.0,5.0,0.0
403,67.0,105.0,240.0,5.0,0.0
404,70.0,0.0,240.0,5.0,0.0
405,79.0,0.0,210.0,0.0,0.0
406,79.0,0.0,210.0,1.0,0.0
407,70.0,15.0,210.0,2.0,0.0
408,55.0,0.0,210.0,4.0,0.0
409,62.0,0.0,210.0,3.0,0.0
410,72.0,0.0,210.0,2.0,0.0
411,77.0,0.0,90.0,0.0,0.0
412,60.0,0.0,210.0,3.0,0.0
413,69.0,105.0,240.0,5.0,0.0
414,57.0,0.0,240.0,5.0,0.0
415,72.0,0.0,240.0,5.0,0.0
416,77.0,120.0,90.0,1.0,0.0
417,78.0,0.0,240.0,5.0,0.0
418,57.0,0.0,210.0,4.0,0.0
419,75.0,0.0,90.0,0.0,0.0
420,75.0,15.0,90.0,1.0,0.0
421,58.0,0.0,240.0,5.0,0.0
422,74.0,15.0,210.0,2.0,0.0
423,78.0,0.0,240.0,5.0,0.0
424,70.0,0.0,240.0,5.0,0.0
425,74.0,120.0,90.0,0.0,0.0
426,58.0,0.0,210.0,3.0,0.0
427,58.0,0.0,210.0,4.0,0.0
428,74.0,0.0,90.0,1.0,0.0
429,74.0,105.0,240.0,5.0,0.0
430,75.0,0.0,90.0,0.0,0.0
431,75.0,0.0,90.0,1.0,0.0
432,60.0,0.0,210.0,3.0,0.0
433,69.0,105.0,240.0,5.0,0.0
434,78.0,0.0,240.0,5.0,0.0
435,66.0,15.0,210.0,2.0,0.0
436,72.0,0.0,240.0,5.0,0.0
437,72.0,0.0,90.0,1.0,0.0
438,57.0,0.0,240.0,5.0,0.0
439,57.0,0.0,210.0,4.0,0.0
440,72.0,120.0,90.0,0.0,0.0
441,74.0,0.0,90.0,0.0,0.0
442,74.0,0.0,90.0,1.0,0.0
443,70.0,0.0,90.0,0.0,0.0
444,70.0,120.0,90.0,1.0,0.0
445,67.0,15.0,210.0,2.0,0.0
446,62.0,0.0,210.0,3.0,0.0
447,55.0,0.0,240.0,5.0,0.0
448,70.0,0.0,240.0,5.0,0.0
449,74.0,105.0,240.0,5.0,0.0
450,67.0,0.0,240.0,5.0,0.0
451,55.0,0.0,210.0,4.0,0.0
452,72.0,0.0,90.0,0.0,0.0
453,72.0,0.0,90.0,1.0,0.0
454,57.0,0.0,210.0,4.0,0.0
455,78.0,105.0,240.0,5.0,0.0
456,69.0,0.0,240.0,5.0,0.0
457,69.0,0.0,90.0,1.0,0.0
458,72.0,0.0,240.0,5.0,0.0
459,69.0,120.0,90.0,0.0,0.0
460,60.0,0.0,210.0,3.0,0.0
461,57.0,0.0,240.0,5.0,0.0
462,66.0,0.0,210.0,2.0,0.0
463,70.0,0.0,90.0,0.0,0.0
464,70.0,15.0,90.0,1.0,0.0
465,58.0,0.0,240.0,5.0,0.0
466,70.0,0.0,240.0,5.0,0.0
467,79.0,105.0,240.0,5.0,0.0
468,74.0,0.0,240.0,5.0,0.0
469,58.0,0.0,210.0,4.0,0.0
470,62.0,120.0,570.0,3.0,0.0
471,67.0,0.0,90.0,0.0,0.0
472,67.0,0.0,210.0,2.0,0.0
473,67.0,120.0,90.0,1.0,0.0
474,69.0,0.0,90.0,0.0,0.0
475,69.0,15.0,90.0,1.0,0.0
476,57.0,0.0,210.0,4.0,0.0
477,74.0,0.0,240.0,5.0,0.0
478,69.0,105.0,240.0,5.0,0.0
479,78.0,0.0,240.0,5.0,0.0
480,57.0,0.0,240.0,5.0,0.0
481,65.0,0.0,90.0,1.0,0.0
482,69.0,0.0,210.0,2.0,0.0
483,65.0,120.0,90.0,0.0,0.0
484,70.0,0.0,240.0,5.0,0.0
485,67.0,0.0,90.0,0.0,0.0
486,67.0,15.0,90.0,1.0,0.0
487,67.0,0.0,240.0,5.0,0.0
488,70.0,0.0,240.0,5.0,0.0
489,75.0,0.0,240.0,5.0,0.0
490,74.0,105.0,240.0,5.0,0.0
491,55.0,0.0,240.0,5.0,0.0
492,70.0,0.0,210.0,2.0,0.0
493,63.0,0.0,210.0,1.0,0.0
494,55.0,0.0,210.0,4.0,0.0
495,63.0,15.0,210.0,0.0,0.0
496,63.0,0.0,90.0,3.0,0.0
497,57.0,0.0,210.0,4.0,0.0
498,72.0,0.0,210.0,0.0,0.0
499,60.0,120.0,90.0,3.0,0.0
500,69.0,0.0,240.0,5.0,0.0
501,77.0,0.0,240.0,5.0,0.0
502,65.0,120.0,330.0,2.0,0.0
503,72.0,0.0,240.0,5.0,0.0
504,75.0,0.0,240.0,5.0,0.0
505,57.0,105.0,240.0,5.0,0.0
506,72.0,15.0,210.0,1.0,0.0
507,62.0,0.0,90.0,3.0,0.0
508,62.0,0.0,210.0,0.0,0.0
509,58.0,0.0,210.0,4.0,0.0
510,58.0,0.0,240.0,5.0,0.0
511,74.0,0.0,240.0,5.0,0.0
512,70.0,0.0,240.0,5.0,0.0
513,77.0,105.0,240.0,5.0,0.0
514,58.0,0.0,210.0,3.0,0.0
515,62.0,0.0,210.0,1.0,0.0
516,63.0,15.0,90.0,2.0,0.0
517,77.0,0.0,240.0,5.0,0.0
518,57.0,225.0,240.0,5.0,0.0
519,70.0,0.0,240.0,5.0,0.0
520,74.0,0.0,240.0,5.0,0.0
521,57.0,15.0,210.0,4.0,0.0
522,62.0,120.0,90.0,2.0,0.0
523,65.0,0.0,210.0,1.0,0.0
524,65.0,0.0,210.0,0.0,0.0
525,60.0,0.0,210.0,3.0,0.0
526,69.0,0.0,240.0,5.0,0.0
527,60.0,0.0,90.0,2.0,0.0
528,62.0,0.0,210.0,3.0,0.0
529,70.0,15.0,210.0,1.0,0.0
530,55.0,0.0,210.0,4.0,0.0
531,67.0,0.0,240.0,5.0,0.0
532,55.0,0.0,240.0,5.0,0.0
533,58.0,0.0,210.0,2.0,0.0
534,74.0,0.0,240.0,5.0,0.0
535,70.0,0.0,210.0,0.0,0.0
536,70.0,225.0,240.0,5.0,0.0
537,70.0,0.0,210.0,2.0,0.0
538,51.0,15.0,210.0,4.0,0.0
539,70.0,0.0,240.0,5.0,0.0
540,67.0,0.0,240.0,5.0,0.0
541,63.0,0.0,240.0,5.0,0.0
542,67.0,0.0,210.0,3.0,0.0
543,75.0,0.0,210.0,1.0,0.0
544,75.0,0.0,210.0,0.0,0.0
545,51.0,30.0,240.0,5.0,0.0
546,65.0,0.0,210.0,3.0,0.0
547,74.0,30.0,30.0,0.0,0.0
548,74.0,0.0,240.0,5.0,0.0
549,70.0,15.0,210.0,2.0,0.0
550,70.0,0.0,240.0,5.0,0.0
551,74.0,0.0,210.0,1.0,0.0
552,65.0,105.0,240.0,5.0,0.0
553,53.0,0.0,210.0,4.0,0.0
554,53.0,0.0,240.0,5.0,0.0
555,75.0,30.0,30.0,0.0,0.0
556,74.0,30.0,30.0,0.0,0.0
557,75.0,30.0,30.0,0.0,0.0
558,74.0,30.0,30.0,0.0,0.0
559,75.0,30.0,30.0,0.0,0.0
560,72.0,15.0,30.0,0.0,0.0
561,74.0,0.0,30.0,0.0,0.0
562,63.0,0.0,210.0,3.0,0.0
563,60.0,0.0,240.0,5.0,0.0
564,57.0,225.0,240.0,5.0,0.0
565,69.0,0.0,210.0,2.0,0.0
566,53.0,0.0,240.0,5.0,0.0
567,72.0,0.0,90.0,1.0,0.0
568,72.0,120.0,90.0,0.0,0.0
569,41.0,0.0,240.0,5.0,0.0
570,41.0,0.0,210.0,4.0,0.0
571,70.0,0.0,90.0,0.0,0.0
572,70.0,15.0,90.0,1.0,0.0
573,70.0,0.0,690.0,1.0,0.0
574,70.0,15.0,690.0,0.0,0.0
575,65.0,0.0,720.0,2.0,0.0
576,62.0,225.0,720.0,3.0,0.0
577,46.0,0.0,240.0,5.0,0.0
578,65.0,0.0,240.0,5.0,0.0
579,46.0,15.0,210.0,4.0,0.0
580,62.0,225.0,240.0,5.0,0.0
581,58.0,0.0,240.0,5.0,0.0
582,41.0,15.0,210.0,4.0,0.0
583,53.0,0.0,240.0,5.0,0.0
584,41.0,0.0,240.0,5.0,0.0
585,57.0,225.0,240.0,5.0,0.0
586,60.0,0.0,240.0,5.0,0.0
587,46.0,0.0,240.0,5.0,0.0
588,34.0,0.0,240.0,4.0,0.0
589,50.0,0.0,240.0,5.0,0.0
590,34.0,0.0,240.0,5.0,0.0
591,53.0,0.0,240.0,5.0,0.0
592,65.0,360.0,210.0,1.0,0.0
593,65.0,0.0,210.0,0.0,0.0
594,70.0,120.0,570.0,1.0,0.0
595,70.0,0.0,570.0,0.0,0.0
596,46.0,0.0,90.0,4.0,0.0
597,65.0,0.0,120.0,5.0,0.0
598,62.0,0.0,120.0,5.0,0.0
599,46.0,105.0,120.0,5.0,0.0
600,58.0,0.0,120.0,5.0,0.0
601,65.0,15.0,210.0,2.0,0.0
602,62.0,15.0,90.0,3.0,0.0
603,63.0,0.0,120.0,5.0,0.0
604,48.0,0.0,90.0,4.0,0.0
605,67.0,0.0,120.0,5.0,0.0
606,60.0,0.0,120.0,5.0,0.0
607,48.0,105.0,120.0,5.0,0.0
608,63.0,0.0,90.0,3.0,0.0
609,62.0,0.0,240.0,5.0,0.0
610,70.0,0.0,240.0,5.0,0.0
611,65.0,0.0,240.0,5.0,0.0
612,50.0,105.0,240.0,5.0,0.0
613,70.0,120.0,570.0,2.0,0.0
614,50.0,0.0,210.0,4.0,0.0
615,65.0,0.0,210.0,3.0,0.0
616,72.0,15.0,90.0,0.0,0.0
617,72.0,0.0,90.0,1.0,0.0
618,60.0,0.0,240.0,5.0,0.0
619,69.0,105.0,240.0,5.0,0.0
620,63.0,0.0,240.0,5.0,0.0
621,74.0,0.0,90.0,0.0,0.0
622,63.0,0.0,210.0,3.0,0.0
623,48.0,0.0,240.0,5.0,0.0
624,48.0,0.0,210.0,4.0,0.0
625,74.0,120.0,90.0,1.0,0.0
626,75.0,15.0,90.0,1.0,0.0
627,75.0,0.0,90.0,0.0,0.0
628,46.0,0.0,240.0,5.0,0.0
629,77.0,0.0,90.0,0.0,0.0
630,58.0,105.0,240.0,5.0,0.0
631,46.0,0.0,210.0,4.0,0.0
632,65.0,0.0,240.0,5.0,0.0
633,62.0,0.0,210.0,3.0,0.0
634,77.0,0.0,90.0,1.0,0.0
635,62.0,0.0,240.0,5.0,0.0
636,75.0,0.0,90.0,0.0,0.0
637,75.0,15.0,90.0,1.0,0.0
638,67.0,0.0,90.0,2.0,0.0
639,63.0,0.0,240.0,5.0,0.0
640,69.0,0.0,240.0,5.0,0.0
641,65.0,0.0,90.0,2.0,0.0
642,48.0,0.0,240.0,5.0,0.0
643,74.0,0.0,90.0,1.0,0.0
644,60.0,105.0,240.0,5.0,0.0
645,63.0,15.0,210.0,3.0,0.0
646,74.0,120.0,90.0,0.0,0.0
647,48.0,0.0,210.0,4.0,0.0
648,72.0,0.0,90.0,0.0,0.0
649,63.0,0.0,90.0,2.0,0.0
650,72.0,0.0,90.0,1.0,0.0
651,65.0,0.0,240.0,5.0,0.0
652,70.0,0.0,210.0,0.0,0.0
653,50.0,0.0,210.0,4.0,0.0
654,62.0,120.0,90.0,2.0,0.0
655,70.0,0.0,210.0,1.0,0.0
656,70.0,105.0,240.0,5.0,0.0
657,62.0,0.0,240.0,5.0,0.0
658,50.0,0.0,240.0,5.0,0.0
659,65.0,0.0,90.0,3.0,0.0
660,63.0,15.0,90.0,3.0,0.0
661,63.0,0.0,90.0,2.0,0.0
662,48.0,15.0,210.0,4.0,0.0
663,68.0,0.0,240.0,5.0,0.0
664,48.0,225.0,240.0,5.0,0.0
665,68.0,0.0,210.0,0.0,0.0
666,65.0,0.0,450.0,2.0,0.0
667,60.0,0.0,240.0,5.0,0.0
668,63.0,0.0,240.0,5.0,0.0
669,68.0,0.0,210.0,1.0,0.0
670,62.0,120.0,90.0,3.0,0.0
671,60.0,0.0,90.0,3.0,0.0
672,62.0,15.0,210.0,3.0,0.0
673,47.0,0.0,210.0,4.0,0.0
674,59.0,0.0,240.0,5.0,0.0
675,67.0,0.0,210.0,0.0,0.0
676,67.0,225.0,240.0,5.0,0.0
677,47.0,0.0,240.0,5.0,0.0
678,65.0,0.0,240.0,5.0,0.0
679,62.0,0.0,240.0,5.0,0.0
680,67.0,0.0,210.0,1.0,0.0
681,48.0,0.0,210.0,4.0,0.0
682,63.0,0.0,210.0,2.0,0.0
683,60.0,0.0,240.0,5.0,0.0
684,48.0,0.0,240.0,5.0,0.0
685,67.0,0.0,240.0,5.0,0.0
686,72.0,0.0,210.0,1.0,0.0
687,67.0,0.0,210.0,3.0,0.0
688,72.0,15.0,210.0,0.0,0.0
689,63.0,225.0,240.0,5.0,0.0
690,50.0,0.0,240.0,5.0,0.0
691,62.0,0.0,210.0,2.0,0.0
692,50.0,15.0,210.0,4.0,0.0
693,71.0,0.0,210.0,0.0,0.0
694,71.0,0.0,210.0,1.0,0.0
695,65.0,0.0,240.0,5.0,0.0
696,62.0,0.0,240.0,5.0,0.0
697,71.0,225.0,240.0,5.0,0.0
698,65.0,0.0,210.0,3.0,0.0
699,67.0,15.0,450.0,3.0,0.0
700,77.0,0.0,210.0,0.0,0.0
701,59.0,0.0,240.0,5.0,0.0
702,65.0,0.0,240.0,5.0,0.0
703,47.0,0.0,240.0,5.0,0.0
704,62.0,0.0,240.0,5.0,0.0
705,67.0,30.0,240.0,5.0,0.0
706,47.0,15.0,210.0,4.0,0.0
707,74.0,0.0,210.0,2.0,0.0
708,77.0,0.0,210.0,1.0,0.0
709,48.0,0.0,240.0,5.0,0.0
710,72.0,0.0,210.0,2.0,0.0
711,75.0,0.0,210.0,1.0,0.0
712,63.0,0.0,240.0,5.0,0.0
713,67.0,0.0,240.0,5.0,0.0
714,60.0,0.0,240.0,5.0,0.0
715,48.0,0.0,210.0,4.0,0.0
716,75.0,30.0,30.0,0.0,0.0
717,77.0,30.0,30.0,0.0,0.0
718,75.0,30.0,30.0,0.0,0.0
719,77.0,30.0,30.0,0.0,0.0
720,75.0,30.0,30.0,0.0,0.0
721,77.0,30.0,30.0,0.0,0.0
722,74.0,15.0,30.0,0.0,0.0
723,75.0,105.0,30.0,0.0,0.0
724,65.0,0.0,210.0,3.0,0.0
725,74.0,0.0,90.0,1.0,0.0
726,71.0,0.0,240.0,5.0,0.0
727,50.0,105.0,240.0,5.0,0.0
728,62.0,0.0,240.0,5.0,0.0
729,74.0,120.0,90.0,0.0,0.0
730,65.0,0.0,240.0,5.0,0.0
731,71.0,0.0,210.0,2.0,0.0
732,50.0,0.0,210.0,4.0,0.0
733,75.0,0.0,90.0,1.0,0.0
734,75.0,15.0,90.0,0.0,0.0
735,72.0,120.0,90.0,1.0,0.0
736,51.0,0.0,240.0,5.0,0.0
737,67.0,0.0,90.0,3.0,0.0
738,72.0,0.0,90.0,0.0,0.0
739,71.0,0.0,240.0,5.0,0.0
740,63.0,0.0,240.0,5.0,0.0
741,67.0,105.0,240.0,5.0,0.0
742,72.0,0.0,690.0,2.0,0.0
743,51.0,0.0,210.0,4.0,0.0
744,67.0,15.0,90.0,1.0,0.0
745,67.0,0.0,90.0,0.0,0.0
746,65.0,0.0,90.0,3.0,0.0
747,50.0,15.0,210.0,4.0,0.0
748,65.0,0.0,240.0,5.0,0.0
749,71.0,0.0,240.0,5.0,0.0
750,63.0,120.0,90.0,3.0,0.0
751,62.0,0.0,240.0,5.0,0.0
752,50.0,105.0,240.0,5.0,0.0
753,72.0,0.0,90.0,1.0,0.0
754,72.0,0.0,90.0,0.0,0.0
755,74.0,0.0,90.0,0.0,0.0
756,74.0,0.0,90.0,1.0,0.0
757,65.0,0.0,90.0,3.0,0.0
758,48.0,0.0,240.0,5.0,0.0
759,75.0,120.0,90.0,1.0,0.0
760,75.0,0.0,90.0,0.0,0.0
761,67.0,105.0,240.0,5.0,0.0
762,63.0,0.0,240.0,5.0,0.0
763,48.0,0.0,210.0,4.0,0.0
764,67.0,0.0,210.0,3.0,0.0
765,60.0,0.0,240.0,5.0,0.0
766,77.0,15.0,90.0,0.0,0.0
767,77.0,0.0,90.0,1.0,0.0
768,62.0,0.0,240.0,5.0,0.0
769,50.0,0.0,240.0,5.0,0.0
770,66.0,0.0,240.0,5.0,0.0
771,70.0,105.0,240.0,5.0,0.0
772,50.0,0.0,210.0,4.0,0.0
773,74.0,120.0,90.0,1.0,0.0
774,74.0,0.0,90.0,0.0,0.0
775,66.0,0.0,210.0,2.0,0.0
776,58.0,0.0,210.0,3.0,0.0
777,75.0,0.0,90.0,0.0,0.0
778,75.0,15.0,90.0,1.0,0.0
779,51.0,0.0,240.0,5.0,0.0
780,72.0,0.0,240.0,5.0,0.0
781,67.0,105.0,240.0,5.0,0.0
782,63.0,0.0,240.0,5.0,0.0
783,72.0,120.0,90.0,1.0,0.0
784,51.0,15.0,210.0,4.0,0.0
785,55.0,0.0,210.0,3.0,0.0
786,67.0,120.0,570.0,2.0,0.0
787,72.0,0.0,90.0,0.0,0.0
788,74.0,0.0,90.0,1.0,0.0
789,74.0,0.0,90.0,0.0,0.0
790,70.0,120.0,90.0,1.0,0.0
791,62.0,0.0,240.0,5.0,0.0
792,70.0,0.0,240.0,5.0,0.0
793,67.0,0.0,240.0,5.0,0.0
794,70.0,0.0,90.0,0.0,0.0
795,50.0,105.0,240.0,5.0,0.0
796,62.0,0.0,210.0,3.0,0.0
797,50.0,15.0,210.0,4.0,0.0
798,72.0,0.0,90.0,0.0,0.0
799,72.0,0.0,90.0,1.0,0.0
800,69.0,15.0,210.0,0.0,0.0
801,63.0,0.0,210.0,3.0,0.0
802,60.0,0.0,240.0,5.0,0.0
803,67.0,0.0,240.0,5.0,0.0
804,48.0,0.0,240.0,5.0,0.0
805,63.0,0.0,240.0,5.0,0.0
806,48.0,0.0,210.0,4.0,0.0
807,69.0,0.0,210.0,1.0,0.0
808,69.0,105.0,240.0,5.0,0.0
809,69.0,0.0,90.0,2.0,0.0
810,50.0,0.0,240.0,5.0,0.0
811,50.0,0.0,210.0,4.0,0.0
812,78.0,0.0,210.0,1.0,0.0
813,66.0,0.0,240.0,5.0,0.0
814,69.0,105.0,240.0,5.0,0.0
815,78.0,0.0,210.0,0.0,0.0
816,62.0,0.0,210.0,3.0,0.0
817,62.0,0.0,240.0,5.0,0.0
818,70.0,120.0,90.0,2.0,0.0
819,72.0,15.0,90.0,2.0,0.0
820,79.0,0.0,210.0,1.0,0.0
821,51.0,0.0,210.0,4.0,0.0
822,55.0,15.0,210.0,3.0,0.0
823,63.0,0.0,240.0,5.0,0.0
824,79.0,0.0,210.0,0.0,0.0
825,70.0,120.0,90.0,2.0,0.0
826,70.0,0.0,240.0,5.0,0.0
827,67.0,105.0,240.0,5.0,0.0
828,51.0,0.0,240.0,5.0,0.0
829,69.0,0.0,90.0,2.0,0.0
830,50.0,0.0,210.0,4.0,0.0
831,62.0,15.0,210.0,3.0,0.0
832,50.0,0.0,240.0,5.0,0.0
833,70.0,0.0,240.0,5.0,0.0
834,67.0,0.0,240.0,5.0,0.0
835,70.0,15.0,450.0,1.0,0.0
836,70.0,0.0,450.0,0.0,0.0
837,67.0,120.0,90.0,2.0,0.0
838,62.0,105.0,240.0,5.0,0.0
839,65.0,0.0,90.0,2.0,0.0
840,67.0,0.0,210.0,3.0,0.0
841,63.0,0.0,240.0,5.0,0.0
842,48.0,0.0,240.0,5.0,0.0
843,67.0,105.0,240.0,5.0,0.0
844,70.0,0.0,240.0,5.0,0.0
845,63.0,120.0,90.0,2.0,0.0
846,48.0,0.0,210.0,4.0,0.0
847,60.0,0.0,240.0,5.0,0.0
848,62.0,0.0,90.0,2.0,0.0
849,60.0,120.0,90.0,2.0,0.0
850,62.0,0.0,240.0,5.0,0.0
851,50.0,0.0,240.0,5.0,0.0
852,66.0,0.0,240.0,5.0,0.0
853,69.0,105.0,240.0,5.0,0.0
854,69.0,0.0,90.0,1.0,0.0
855,50.0,0.0,210.0,4.0,0.0
856,69.0,0.0,90.0,0.0,0.0
857,66.0,0.0,210.0,3.0,0.0
858,70.0,0.0,90.0,0.0,0.0
859,70.0,15.0,90.0,1.0,0.0
860,58.0,0.0,90.0,2.0,0.0
861,51.0,105.0,240.0,5.0,0.0
862,72.0,0.0,240.0,5.0,0.0
863,67.0,0.0,210.0,3.0,0.0
864,72.0,120.0,90.0,0.0,0.0
865,67.0,0.0,240.0,5.0,0.0
866,51.0,15.0,210.0,4.0,0.0
867,57.0,0.0,90.0,2.0,0.0
868,72.0,0.0,90.0,1.0,0.0
869,63.0,0.0,240.0,5.0,0.0
870,70.0,0.0,90.0,1.0,0.0
871,55.0,0.0,90.0,2.0,0.0
872,70.0,0.0,90.0,0.0,0.0
873,60.0,0.0,240.0,5.0,0.0
874,69.0,0.0,240.0,5.0,0.0
875,63.0,105.0,240.0,5.0,0.0
876,60.0,0.0,210.0,3.0,0.0
877,48.0,0.0,240.0,5.0,0.0
878,67.0,0.0,240.0,5.0,0.0
879,48.0,0.0,210.0,4.0,0.0
880,69.0,0.0,90.0,0.0,0.0
881,63.0,0.0,210.0,2.0,0.0
882,69.0,120.0,90.0,1.0,0.0
883,67.0,0.0,90.0,1.0,0.0
884,67.0,15.0,90.0,0.0,0.0
885,62.0,0.0,690.0,2.0,0.0
886,57.0,0.0,210.0,3.0,0.0
887,66.0,0.0,90.0,1.0,0.0
888,50.0,0.0,210.0,4.0,0.0
889,66.0,0.0,240.0,5.0,0.0
890,62.0,0.0,240.0,5.0,0.0
891,66.0,120.0,90.0,0.0,0.0
892,69.0,0.0,240.0,5.0,0.0
893,50.0,105.0,240.0,5.0,0.0
894,67.0,0.0,90.0,1.0,0.0
895,67.0,15.0,90.0,0.0,0.0
896,60.0,0.0,240.0,5.0,0.0
897,67.0,0.0,240.0,5.0,0.0
898,48.0,105.0,240.0,5.0,0.0
899,63.0,0.0,240.0,5.0,0.0
900,54.0,0.0,210.0,3.0,0.0
901,48.0,15.0,210.0,4.0,0.0
902,69.0,120.0,90.0,1.0,0.0
903,69.0,0.0,90.0,0.0,0.0
904,66.0,0.0,90.0,1.0,0.0
905,66.0,0.0,90.0,0.0,0.0
906,67.0,0.0,240.0,5.0,0.0
907,62.0,120.0,90.0,0.0,0.0
908,46.0,0.0,210.0,4.0,0.0
909,55.0,15.0,210.0,3.0,0.0
910,46.0,0.0,240.0,5.0,0.0
911,58.0,105.0,240.0,5.0,0.0
912,62.0,0.0,90.0,1.0,0.0
913,62.0,0.0,240.0,5.0,0.0
914,64.0,0.0,90.0,1.0,0.0
915,64.0,0.0,90.0,0.0,0.0
916,66.0,0.0,240.0,5.0,0.0
917,60.0,0.0,210.0,2.0,0.0
918,57.0,0.0,210.0,3.0,0.0
919,60.0,0.0,240.0,5.0,0.0
920,66.0,120.0,90.0,0.0,0.0
921,45.0,0.0,240.0,5.0,0.0
922,57.0,225.0,240.0,5.0,0.0
923,45.0,0.0,210.0,4.0,0.0
924,66.0,0.0,90.0,1.0,0.0
925,62.0,0.0,90.0,1.0,0.0
926,62.0,15.0,90.0,0.0,0.0
927,50.0,0.0,210.0,3.0,0.0
928,43.0,0.0,210.0,4.0,0.0
929,55.0,105.0,240.0,5.0,0.0
930,62.0,0.0,240.0,5.0,0.0
931,58.0,0.0,240.0,5.0,0.0
932,43.0,0.0,240.0,5.0,0.0
933,67.0,120.0,570.0,0.0,0.0
934,58.0,15.0,210.0,2.0,0.0
935,67.0,0.0,570.0,1.0,0.0
936,70.0,0.0,120.0,5.0,0.0
937,67.0,105.0,120.0,5.0,0.0
938,74.0,0.0,120.0,5.0,0.0
939,58.0,0.0,90.0,3.0,0.0
940,55.0,15.0,90.0,4.0,0.0
941,55.0,0.0,120.0,5.0,0.0
942,62.0,0.0,210.0,2.0,0.0
943,60.0,15.0,90.0,3.0,0.0
944,69.0,105.0,120.0,5.0,0.0
945,57.0,0.0,90.0,4.0,0.0
946,57.0,0.0,120.0,5.0,0.0
947,72.0,0.0,120.0,5.0,0.0
948,75.0,0.0,120.0,5.0,0.0
949,67.0,0.0,570.0,2.0,0.0
950,79.0,0.0,240.0,5.0,0.0
951,70.0,0.0,240.0,5.0,0.0
952,58.0,0.0,240.0,5.0,0.0
953,74.0,105.0,240.0,5.0,0.0
954,62.0,120.0,570.0,3.0,0.0
955,58.0,15.0,210.0,4.0,0.0
956,62.0,0.0,90.0,1.0,0.0
957,62.0,0.0,90.0,0.0,0.0
958,60.0,0.0,90.0,0.0,0.0
959,57.0,0.0,240.0,5.0,0.0
960,69.0,0.0,240.0,5.0,0.0
961,72.0,0.0,240.0,5.0,0.0
962,78.0,105.0,240.0,5.0,0.0
963,57.0,15.0,210.0,4.0,0.0
964,60.0,120.0,90.0,1.0,0.0
965,62.0,0.0,90.0,1.0,0.0
966,62.0,0.0,90.0,0.0,0.0
967,70.0,0.0,570.0,0.0,0.0
968,55.0,0.0,210.0,4.0,0.0
969,55.0,0.0,240.0,5.0,0.0
970,70.0,120.0,570.0,1.0,0.0
971,70.0,105.0,240.0,5.0,0.0
972,74.0,0.0,240.0,5.0,0.0
973,67.0,0.0,240.0,5.0,0.0
974,62.0,15.0,90.0,2.0,0.0
975,58.0,0.0,90.0,3.0,0.0
976,69.0,0.0,240.0,5.0,0.0
977,60.0,120.0,90.0,2.0,0.0
978,57.0,0.0,240.0,5.0,0.0
979,74.0,0.0,240.0,5.0,0.0
980,57.0,0.0,90.0,3.0,0.0
981,57.0,0.0,210.0,4.0,0.0
982,70.0,105.0,240.0,5.0,0.0
983,62.0,0.0,90.0,2.0,0.0
984,55.0,15.0,90.0,3.0,0.0
985,79.0,105.0,240.0,5.0,0.0
986,58.0,0.0,240.0,5.0,0.0
987,70.0,0.0,240.0,5.0,0.0
988,74.0,0.0,240.0,5.0,0.0
989,58.0,15.0,210.0,4.0,0.0
990,67.0,120.0,570.0,2.0,0.0
991,62.0,0.0,210.0,3.0,0.0
992,67.0,0.0,90.0,0.0,0.0
993,67.0,0.0,90.0,1.0,0.0
994,57.0,15.0,210.0,4.0,0.0
995,66.0,120.0,90.0,0.0,0.0
996,60.0,0.0,210.0,3.0,0.0
997,66.0,0.0,90.0,1.0,0.0
998,57.0,105.0,240.0,5.0,0.0
999,79.0,0.0,240.0,5.0,0.0
1000,69.0,0.0,240.0,5.0,0.0
1001,74.0,0.0,240.0,5.0,0.0
1002,67.0,0.0,90.0,1.0,0.0
1003,67.0,0.0,90.0,0.0,0.0
1004,67.0,0.0,240.0,5.0,0.0
1005,55.0,0.0,240.0,5.0,0.0
1006,73.0,105.0,240.0,5.0,0.0
1007,70.0,0.0,240.0,5.0,0.0
1008,73.0,0.0,570.0,1.0,0.0
1009,76.0,0.0,240.0,5.0,0.0
1010,58.0,0.0,90.0,3.0,0.0
1011,55.0,0.0,210.0,4.0,0.0
1012,73.0,120.0,570.0,0.0,0.0
1013,65.0,0.0,90.0,2.0,0.0
1014,57.0,15.0,90.0,3.0,0.0
1015,73.0,0.0,240.0,5.0,0.0
1016,57.0,105.0,240.0,5.0,0.0
1017,76.0,0.0,240.0,5.0,0.0
1018,55.0,120.0,90.0,3.0,0.0
1019,64.0,0.0,90.0,2.0,0.0
1020,57.0,0.0,210.0,4.0,0.0
1021,70.0,0.0,240.0,5.0,0.0
1022,69.0,0.0,240.0,5.0,0.0
1023,53.0,0.0,90.0,3.0,0.0
1024,65.0,15.0,90.0,2.0,0.0
1025,76.0,105.0,240.0,5.0,0.0
1026,70.0,0.0,240.0,5.0,0.0
1027,58.0,0.0,240.0,5.0,0.0
1028,67.0,0.0,570.0,2.0,0.0
1029,73.0,0.0,240.0,5.0,0.0
1030,58.0,0.0,210.0,4.0,0.0
1031,52.0,15.0,210.0,3.0,0.0
1032,67.0,0.0,90.0,0.0,0.0
1033,67.0,0.0,90.0,1.0,0.0
1034,76.0,0.0,240.0,5.0,0.0
1035,70.0,0.0,240.0,5.0,0.0
1036,57.0,0.0,240.0,5.0,0.0
1037,69.0,0.0,240.0,5.0,0.0
1038,66.0,120.0,90.0,0.0,0.0
1039,66.0,0.0,90.0,1.0,0.0
1040,57.0,15.0,210.0,4.0,0.0
1041,61.0,120.0,330.0,3.0,0.0
1042,73.0,105.0,240.0,5.0,0.0
1043,67.0,0.0,90.0,1.0,0.0
1044,67.0,0.0,90.0,0.0,0.0
1045,70.0,0.0,240.0,5.0,0.0
1046,67.0,0.0,240.0,5.0,0.0
1047,76.0,120.0,570.0,1.0,0.0
1048,76.0,105.0,240.0,5.0,0.0
1049,73.0,0.0,240.0,5.0,0.0
1050,55.0,0.0,240.0,5.0,0.0
1051,55.0,15.0,210.0,4.0,0.0
1052,76.0,0.0,570.0,0.0,0.0
1053,65.0,0.0,90.0,2.0,0.0
1054,62.0,0.0,90.0,3.0,0.0
1055,76.0,0.0,240.0,5.0,0.0
1056,57.0,105.0,240.0,5.0,0.0
1057,57.0,0.0,210.0,4.0,0.0
1058,64.0,0.0,90.0,2.0,0.0
1059,61.0,120.0,90.0,3.0,0.0
1060,73.0,0.0,240.0,5.0,0.0
1061,69.0,0.0,240.0,5.0,0.0
1062,70.0,0.0,240.0,5.0,0.0
1063,65.0,0.0,90.0,2.0,0.0
1064,62.0,15.0,90.0,3.0,0.0
1065,73.0,105.0,240.0,5.0,0.0
1066,70.0,0.0,240.0,5.0,0.0
1067,58.0,0.0,210.0,4.0,0.0
1068,61.0,0.0,210.0,3.0,0.0
1069,76.0,0.0,240.0,5.0,0.0
1070,67.0,15.0,210.0,2.0,0.0
1071,58.0,0.0,240.0,5.0,0.0
1072,78.0,0.0,90.0,0.0,0.0
1073,78.0,0.0,90.0,1.0,0.0
1074,70.0,0.0,210.0,2.0,0.0
1075,55.0,0.0,210.0,4.0,0.0
1076,79.0,120.0,90.0,0.0,0.0
1077,79.0,0.0,90.0,1.0,0.0
1078,67.0,0.0,240.0,5.0,0.0
1079,70.0,0.0,240.0,5.0,0.0
1080,76.0,105.0,240.0,5.0,0.0
1081,55.0,0.0,240.0,5.0,0.0
1082,73.0,0.0,240.0,5.0,0.0
1083,62.0,15.0,210.0,3.0,0.0
1084,76.0,0.0,90.0,1.0,0.0
1085,76.0,0.0,90.0,0.0,0.0
1086,60.0,0.0,210.0,3.0,0.0
1087,78.0,105.0,240.0,5.0,0.0
1088,78.0,120.0,90.0,0.0,0.0
1089,69.0,15.0,210.0,2.0,0.0
1090,57.0,0.0,240.0,5.0,0.0
1091,72.0,0.0,240.0,5.0,0.0
1092,69.0,0.0,240.0,5.0,0.0
1093,57.0,0.0,210.0,4.0,0.0
1094,78.0,0.0,90.0,1.0,0.0
1095,74.0,0.0,90.0,0.0,0.0
1096,74.0,0.0,90.0,1.0,0.0
1097,58.0,0.0,210.0,4.0,0.0
1098,62.0,15.0,210.0,3.0,0.0
1099,79.0,120.0,90.0,0.0,0.0
1100,70.0,105.0,240.0,5.0,0.0
1101,67.0,0.0,330.0,2.0,0.0
1102,79.0,0.0,90.0,1.0,0.0
1103,58.0,0.0,240.0,5.0,0.0
1104,79.0,0.0,240.0,5.0,0.0
1105,74.0,0.0,240.0,5.0,0.0
1106,77.0,0.0,90.0,1.0,0.0
1107,77.0,0.0,90.0,0.0,0.0
1108,75.0,0.0,90.0,1.0,0.0
1109,60.0,0.0,240.0,5.0,0.0
1110,75.0,120.0,90.0,0.0,0.0
1111,63.0,0.0,570.0,3.0,0.0
1112,79.0,0.0,240.0,5.0,0.0
1113,72.0,105.0,240.0,5.0,0.0
1114,75.0,0.0,240.0,5.0,0.0
1115,60.0,15.0,210.0,4.0,0.0
1116,74.0,0.0,90.0,1.0,0.0
1117,70.0,0.0,90.0,2.0,0.0
1118,74.0,0.0,90.0,0.0,0.0
1119,79.0,0.0,240.0,5.0,0.0
1120,58.0,0.0,240.0,5.0,0.0
1121,72.0,120.0,330.0,0.0,0.0
1122,58.0,15.0,210.0,4.0,0.0
1123,70.0,0.0,240.0,5.0,0.0
1124,72.0,105.0,240.0,5.0,0.0
1125,69.0,120.0,90.0,2.0,0.0
1126,72.0,0.0,330.0,1.0,0.0
1127,75.0,0.0,240.0,5.0,0.0
1128,67.0,0.0,90.0,2.0,0.0
1129,72.0,0.0,240.0,5.0,0.0
1130,78.0,0.0,240.0,5.0,0.0
1131,69.0,105.0,240.0,5.0,0.0
1132,57.0,0.0,210.0,4.0,0.0
1133,66.0,0.0,210.0,2.0,0.0
1134,57.0,0.0,240.0,5.0,0.0
1135,70.0,15.0,90.0,0.0,0.0
1136,62.0,0.0,90.0,3.0,0.0
1137,70.0,0.0,90.0,1.0,0.0
1138,69.0,0.0,90.0,0.0,0.0
1139,58.0,0.0,210.0,4.0,0.0
1140,70.0,0.0,240.0,5.0,0.0
1141,72.0,105.0,240.0,5.0,0.0
1142,75.0,0.0,240.0,5.0,0.0
1143,58.0,0.0,240.0,5.0,0.0
1144,79.0,0.0,240.0,5.0,0.0
1145,60.0,120.0,90.0,3.0,0.0
1146,75.0,0.0,450.0,2.0,0.0
1147,69.0,0.0,90.0,1.0,0.0
1148,67.0,0.0,90.0,0.0,0.0
1149,67.0,0.0,90.0,1.0,0.0
1150,62.0,15.0,90.0,3.0,0.0
1151,72.0,0.0,240.0,5.0,0.0
1152,81.0,0.0,240.0,5.0,0.0
1153,75.0,105.0,240.0,5.0,0.0
1154,60.0,15.0,210.0,4.0,0.0
1155,60.0,0.0,240.0,5.0,0.0
1156,69.0,120.0,90.0,1.0,0.0
1157,69.0,0.0,90.0,0.0,0.0
1158,66.0,0.0,90.0,3.0,0.0
1159,70.0,0.0,90.0,0.0,0.0
1160,67.0,0.0,90.0,3.0,0.0
1161,70.0,0.0,90.0,1.0,0.0
1162,72.0,0.0,90.0,1.0,0.0
1163,72.0,120.0,90.0,0.0,0.0
1164,60.0,0.0,240.0,5.0,0.0
1165,69.0,0.0,210.0,3.0,0.0
1166,66.0,0.0,240.0,5.0,0.0
1167,74.0,15.0,450.0,2.0,0.0
1168,45.0,0.0,210.0,4.0,0.0
1169,45.0,0.0,240.0,5.0,0.0
1170,57.0,225.0,240.0,5.0,0.0
1171,66.0,0.0,90.0,1.0,0.0
1172,66.0,15.0,90.0,0.0,0.0
1173,67.0,0.0,210.0,1.0,0.0
1174,67.0,0.0,210.0,0.0,0.0
1175,62.0,0.0,210.0,3.0,0.0
1176,67.0,105.0,240.0,5.0,0.0
1177,62.0,0.0,240.0,5.0,0.0
1178,46.0,0.0,210.0,4.0,0.0
1179,46.0,0.0,240.0,5.0,0.0
1180,58.0,0.0,240.0,5.0,0.0
1181,75.0,105.0,120.0,0.0,0.0
1182,60.0,0.0,240.0,5.0,0.0
1183,67.0,105.0,240.0,5.0,0.0
1184,63.0,0.0,210.0,3.0,0.0
1185,63.0,0.0,240.0,5.0,0.0
1186,48.0,0.0,240.0,5.0,0.0
1187,69.0,0.0,240.0,5.0,0.0
1188,48.0,0.0,210.0,4.0,0.0
1189,75.0,15.0,90.0,1.0,0.0
1190,67.0,0.0,210.0,2.0,0.0
1191,74.0,0.0,90.0,1.0,0.0
1192,74.0,15.0,90.0,0.0,0.0
1193,67.0,0.0,210.0,2.0,0.0
1194,67.0,0.0,240.0,5.0,0.0
1195,50.0,105.0,240.0,5.0,0.0
1196,72.0,15.0,90.0,1.0,0.0
1197,72.0,105.0,120.0,0.0,0.0
1198,69.0,0.0,240.0,5.0,0.0
1199,50.0,0.0,210.0,4.0,0.0
1200,62.0,0.0,240.0,5.0,0.0
1201,62.0,15.0,210.0,3.0,0.0
1202,70.0,0.0,90.0,0.0,0.0
1203,70.0,0.0,90.0,1.0,0.0
1204,66.0,0.0,210.0,2.0,0.0
1205,50.0,0.0,240.0,5.0,0.0
1206,38.0,0.0,240.0,5.0,0.0
1207,69.0,105.0,120.0,0.0,0.0
1208,54.0,0.0,240.0,5.0,0.0
1209,57.0,225.0,240.0,5.0,0.0
1210,38.0,0.0,210.0,4.0,0.0
1211,60.0,15.0,210.0,3.0,0.0
1212,69.0,15.0,90.0,1.0,0.0
1213,67.0,0.0,90.0,0.0,0.0
1214,67.0,0.0,90.0,1.0,0.0
1215,55.0,0.0,240.0,5.0,0.0
1216,58.0,0.0,720.0,3.0,0.0
1217,43.0,15.0,210.0,4.0,0.0
1218,58.0,0.0,240.0,5.0,0.0
1219,67.0,15.0,690.0,1.0,0.0
1220,67.0,0.0,690.0,0.0,0.0
1221,62.0,0.0,720.0,2.0,0.0
1222,62.0,0.0,240.0,5.0,0.0
1223,43.0,225.0,240.0,5.0,0.0
1224,62.0,0.0,240.0,5.0,0.0
1225,69.0,225.0,240.0,5.0,0.0
1226,65.0,0.0,240.0,5.0,0.0
1227,50.0,0.0,240.0,5.0,0.0
1228,50.0,15.0,210.0,4.0,0.0
1229,70.0,0.0,240.0,5.0,0.0
1230,74.0,225.0,240.0,5.0,0.0
1231,55.0,0.0,240.0,4.0,0.0
1232,55.0,0.0,240.0,5.0,0.0
1233,67.0,0.0,240.0,5.0,0.0
1234,65.0,360.0,210.0,1.0,0.0
1235,65.0,0.0,210.0,0.0,0.0
1236,70.0,0.0,570.0,1.0,0.0
1237,70.0,120.0,570.0,0.0,0.0
1238,65.0,0.0,210.0,2.0,0.0
1239,62.0,0.0,90.0,3.0,0.0
1240,65.0,0.0,120.0,5.0,0.0
1241,58.0,0.0,120.0,5.0,0.0
1242,46.0,15.0,90.0,4.0,0.0
1243,62.0,0.0,120.0,5.0,0.0
1244,46.0,105.0,120.0,5.0,0.0
1245,63.0,0.0,120.0,5.0,0.0
1246,48.0,15.0,90.0,4.0,0.0
1247,60.0,0.0,120.0,5.0,0.0
1248,48.0,0.0,120.0,5.0,0.0
1249,67.0,105.0,120.0,5.0,0.0
1250,63.0,0.0,90.0,3.0,0.0
1251,70.0,0.0,240.0,5.0,0.0
1252,62.0,0.0,240.0,5.0,0.0
1253,65.0,105.0,240.0,5.0,0.0
1254,70.0,0.0,570.0,2.0,0.0
1255,65.0,0.0,210.0,3.0,0.0
1256,50.0,0.0,240.0,5.0,0.0
1257,50.0,0.0,210.0,4.0,0.0
1258,72.0,15.0,90.0,1.0,0.0
1259,72.0,0.0,90.0,0.0,0.0
1260,63.0,0.0,210.0,3.0,0.0
1261,48.0,0.0,210.0,4.0,0.0
1262,74.0,0.0,90.0,0.0,0.0
1263,74.0,120.0,90.0,1.0,0.0
1264,63.0,0.0,240.0,5.0,0.0
1265,69.0,0.0,240.0,5.0,0.0
1266,48.0,0.0,240.0,5.0,0.0
1267,60.0,105.0,240.0,5.0,0.0
1268,75.0,15.0,90.0,0.0,0.0
1269,75.0,0.0,90.0,1.0,0.0
1270,62.0,15.0,210.0,3.0,0.0
1271,77.0,0.0,90.0,1.0,0.0
1272,77.0,120.0,90.0,0.0,0.0
1273,46.0,105.0,240.0,5.0,0.0
1274,62.0,0.0,240.0,5.0,0.0
1275,46.0,0.0,210.0,4.0,0.0
1276,58.0,0.0,240.0,5.0,0.0
1277,65.0,0.0,240.0,5.0,0.0
1278,67.0,0.0,90.0,2.0,0.0
1279,75.0,0.0,90.0,1.0,0.0
1280,75.0,0.0,90.0,0.0,0.0
1281,74.0,0.0,90.0,1.0,0.0
1282,48.0,0.0,210.0,4.0,0.0
1283,74.0,0.0,90.0,0.0,0.0
1284,65.0,120.0,90.0,2.0,0.0
1285,63.0,0.0,210.0,3.0,0.0
1286,69.0,0.0,240.0,5.0,0.0
1287,60.0,105.0,240.0,5.0,0.0
1288,48.0,0.0,240.0,5.0,0.0
1289,63.0,0.0,240.0,5.0,0.0
1290,72.0,15.0,90.0,0.0,0.0
1291,72.0,0.0,90.0,1.0,0.0
1292,63.0,0.0,90.0,2.0,0.0
1293,70.0,0.0,240.0,5.0,0.0
1294,65.0,105.0,240.0,5.0,0.0
1295,50.0,15.0,210.0,4.0,0.0
1296,50.0,0.0,240.0,5.0,0.0
1297,65.0,0.0,90.0,3.0,0.0
1298,70.0,0.0,210.0,0.0,0.0
1299,70.0,0.0,210.0,1.0,0.0
1300,62.0,0.0,240.0,5.0,0.0
1301,62.0,120.0,90.0,2.0,0.0
1302,63.0,0.0,90.0,2.0,0.0
1303,63.0,0.0,90.0,3.0,0.0
1304,68.0,15.0,210.0,1.0,0.0
1305,68.0,0.0,210.0,0.0,0.0
1306,48.0,0.0,210.0,4.0,0.0
1307,48.0,0.0,240.0,5.0,0.0
1308,63.0,0.0,240.0,5.0,0.0
1309,68.0,225.0,240.0,5.0,0.0
1310,62.0,120.0,90.0,3.0,0.0
1311,65.0,0.0,450.0,2.0,0.0
1312,60.0,0.0,240.0,5.0,0.0
1313,60.0,0.0,90.0,3.0,0.0
1314,59.0,0.0,240.0,5.0,0.0
1315,67.0,0.0,210.0,1.0,0.0
1316,47.0,225.0,240.0,5.0,0.0
1317,65.0,0.0,240.0,5.0,0.0
1318,62.0,0.0,240.0,5.0,0.0
1319,67.0,0.0,240.0,5.0,0.0
1320,62.0,15.0,210.0,3.0,0.0
1321,47.0,0.0,210.0,4.0,0.0
1322,67.0,0.0,210.0,0.0,0.0
1323,48.0,0.0,210.0,4.0,0.0
1324,72.0,0.0,210.0,0.0,0.0
1325,63.0,0.0,240.0,5.0,0.0
1326,48.0,0.0,240.0,5.0,0.0
1327,67.0,0.0,240.0,5.0,0.0
1328,60.0,225.0,240.0,5.0,0.0
1329,72.0,0.0,210.0,1.0,0.0
1330,67.0,0.0,210.0,3.0,0.0
1331,63.0,15.0,210.0,2.0,0.0
1332,62.0,0.0,240.0,5.0,0.0
1333,71.0,225.0,240.0,5.0,0.0
1334,62.0,0.0,210.0,2.0,0.0
1335,50.0,0.0,210.0,4.0,0.0
1336,50.0,0.0,240.0,5.0,0.0
1337,71.0,0.0,210.0,1.0,0.0
1338,71.0,15.0,210.0,0.0,0.0
1339,65.0,0.0,240.0,5.0,0.0
1340,65.0,0.0,210.0,3.0,0.0
1341,47.0,0.0,240.0,5.0,0.0
1342,74.0,15.0,210.0,2.0,0.0
1343,77.0,0.0,210.0,0.0,0.0
1344,65.0,0.0,240.0,5.0,0.0
1345,67.0,30.0,240.0,5.0,0.0
1346,47.0,0.0,210.0,4.0,0.0
1347,77.0,0.0,210.0,1.0,0.0
1348,59.0,0.0,240.0,5.0,0.0
1349,62.0,0.0,240.0,5.0,0.0
1350,67.0,15.0,450.0,3.0,0.0
1351,63.0,0.0,240.0,5.0,0.0
1352,48.0,0.0,240.0,5.0,0.0
1353,75.0,30.0,30.0,0.0,0.0
1354,48.0,0.0,210.0,4.0,0.0
1355,67.0,0.0,240.0,5.0,0.0
1356,60.0,105.0,240.0,5.0,0.0
1357,75.0,0.0,210.0,1.0,0.0
1358,72.0,0.0,210.0,2.0,0.0
1359,77.0,30.0,30.0,0.0,0.0
1360,75.0,30.0,30.0,0.0,0.0
1361,77.0,30.0,30.0,0.0,0.0
1362,75.0,30.0,30.0,0.0,0.0
1363,77.0,30.0,30.0,0.0,0.0
1364,74.0,15.0,30.0,0.0,0.0
1365,75.0,0.0,30.0,0.0,0.0
1366,74.0,120.0,90.0,0.0,0.0
1367,71.0,15.0,210.0,2.0,0.0
1368,50.0,0.0,210.0,4.0,0.0
1369,65.0,0.0,210.0,3.0,0.0
1370,65.0,0.0,240.0,5.0,0.0
1371,50.0,105.0,240.0,5.0,0.0
1372,62.0,0.0,240.0,5.0,0.0
1373,71.0,0.0,240.0,5.0,0.0
1374,74.0,0.0,90.0,1.0,0.0
1375,75.0,0.0,90.0,1.0,0.0
1376,75.0,0.0,90.0,0.0,0.0
1377,72.0,0.0,90.0,0.0,0.0
1378,72.0,0.0,690.0,2.0,0.0
1379,63.0,0.0,240.0,5.0,0.0
1380,71.0,105.0,240.0,5.0,0.0
1381,72.0,0.0,90.0,1.0,0.0
1382,51.0,0.0,240.0,5.0,0.0
1383,51.0,15.0,210.0,4.0,0.0
1384,67.0,120.0,90.0,3.0,0.0
1385,67.0,0.0,240.0,5.0,0.0
1386,67.0,0.0,90.0,1.0,0.0
1387,65.0,0.0,90.0,3.0,0.0
1388,67.0,0.0,90.0,0.0,0.0
1389,63.0,0.0,90.0,3.0,0.0
1390,72.0,120.0,90.0,0.0,0.0
1391,72.0,0.0,90.0,1.0,0.0
1392,65.0,0.0,240.0,5.0,0.0
1393,50.0,0.0,210.0,4.0,0.0
1394,50.0,0.0,240.0,5.0,0.0
1395,62.0,0.0,240.0,5.0,0.0
1396,71.0,105.0,240.0,5.0,0.0
1397,74.0,0.0,90.0,0.0,0.0
1398,74.0,15.0,90.0,1.0,0.0
1399,65.0,0.0,90.0,3.0,0.0
1400,48.0,0.0,240.0,5.0,0.0
1401,67.0,0.0,240.0,5.0,0.0
1402,60.0,0.0,240.0,5.0,0.0
1403,67.0,0.0,210.0,3.0,0.0
1404,48.0,0.0,210.0,4.0,0.0
1405,75.0,0.0,90.0,0.0,0.0
1406,75.0,120.0,90.0,1.0,0.0
1407,63.0,105.0,240.0,5.0,0.0
1408,77.0,0.0,90.0,1.0,0.0
1409,77.0,15.0,90.0,0.0,0.0
1410,74.0,0.0,90.0,1.0,0.0
1411,58.0,15.0,210.0,3.0,0.0
1412,50.0,0.0,210.0,4.0,0.0
1413,66.0,0.0,210.0,2.0,0.0
1414,62.0,105.0,240.0,5.0,0.0
1415,50.0,0.0,240.0,5.0,0.0
1416,66.0,0.0,240.0,5.0,0.0
1417,70.0,0.0,240.0,5.0,0.0
1418,74.0,120.0,90.0,0.0,0.0
1419,75.0,0.0,90.0,0.0,0.0
1420,75.0,0.0,90.0,1.0,0.0
1421,67.0,105.0,240.0,5.0,0.0
1422,67.0,120.0,570.0,2.0,0.0
1423,51.0,15.0,210.0,4.0,0.0
1424,51.0,0.0,240.0,5.0,0.0
1425,72.0,120.0,90.0,1.0,0.0
1426,72.0,0.0,240.0,5.0,0.0
1427,72.0,0.0,90.0,0.0,0.0
1428,55.0,0.0,210.0,3.0,0.0
1429,63.0,0.0,240.0,5.0,0.0
1430,74.0,0.0,90.0,1.0,0.0
1431,74.0,0.0,90.0,0.0,0.0
1432,50.0,0.0,210.0,4.0,0.0
1433,70.0,0.0,90.0,0.0,0.0
1434,70.0,120.0,90.0,1.0,0.0
1435,62.0,0.0,240.0,5.0,0.0
1436,70.0,0.0,240.0,5.0,0.0
1437,67.0,105.0,240.0,5.0,0.0
1438,50.0,0.0,240.0,5.0,0.0
1439,62.0,0.0,210.0,3.0,0.0
1440,72.0,0.0,90.0,1.0,0.0
1441,72.0,15.0,90.0,0.0,0.0
1442,69.0,0.0,210.0,0.0,0.0
1443,67.0,0.0,240.0,5.0,0.0
1444,63.0,0.0,240.0,5.0,0.0
1445,69.0,0.0,240.0,5.0,0.0
1446,48.0,0.0,210.0,4.0,0.0
1447,69.0,0.0,210.0,1.0,0.0
1448,63.0,15.0,210.0,3.0,0.0
1449,48.0,105.0,240.0,5.0,0.0
1450,60.0,0.0,240.0,5.0,0.0
1451,69.0,0.0,90.0,2.0,0.0
1452,50.0,0.0,210.0,4.0,0.0
1453,78.0,0.0,210.0,1.0,0.0
1454,69.0,0.0,240.0,5.0,0.0
1455,78.0,0.0,210.0,0.0,0.0
1456,62.0,15.0,210.0,3.0,0.0
1457,50.0,0.0,240.0,5.0,0.0
1458,70.0,120.0,90.0,2.0,0.0
1459,66.0,105.0,240.0,5.0,0.0
1460,62.0,0.0,240.0,5.0,0.0
1461,72.0,0.0,90.0,2.0,0.0
1462,51.0,105.0,240.0,5.0,0.0
1463,55.0,15.0,210.0,3.0,0.0
1464,70.0,120.0,90.0,2.0,0.0
1465,79.0,0.0,210.0,1.0,0.0
1466,51.0,0.0,210.0,4.0,0.0
1467,70.0,0.0,240.0,5.0,0.0
1468,79.0,0.0,210.0,0.0,0.0
1469,63.0,0.0,240.0,5.0,0.0
1470,67.0,0.0,240.0,5.0,0.0
1471,69.0,0.0,90.0,2.0,0.0
1472,50.0,0.0,240.0,5.0,0.0
1473,67.0,120.0,90.0,2.0,0.0
1474,50.0,15.0,210.0,4.0,0.0
1475,62.0,0.0,240.0,5.0,0.0
1476,67.0,0.0,240.0,5.0,0.0
1477,62.0,0.0,210.0,3.0,0.0
1478,70.0,0.0,450.0,1.0,0.0
1479,70.0,105.0,240.0,5.0,0.0
1480,70.0,0.0,450.0,0.0,0.0
1481,65.0,0.0,90.0,2.0,0.0
1482,48.0,0.0,210.0,4.0,0.0
1483,67.0,0.0,210.0,3.0,0.0
1484,60.0,0.0,240.0,5.0,0.0
1485,63.0,0.0,240.0,5.0,0.0
1486,67.0,0.0,240.0,5.0,0.0
1487,48.0,105.0,240.0,5.0,0.0
1488,70.0,0.0,240.0,5.0,0.0
1489,63.0,120.0,90.0,2.0,0.0
1490,62.0,15.0,90.0,2.0,0.0
1491,62.0,0.0,240.0,5.0,0.0
1492,66.0,0.0,240.0,5.0,0.0
1493,69.0,0.0,240.0,5.0,0.0
1494,50.0,105.0,240.0,5.0,0.0
1495,69.0,120.0,90.0,0.0,0.0
1496,60.0,0.0,90.0,2.0,0.0
1497,69.0,0.0,90.0,1.0,0.0
1498,50.0,0.0,210.0,4.0,0.0
1499,66.0,0.0,210.0,3.0,0.0
1500,70.0,0.0,90.0,1.0,0.0
1501,70.0,15.0,90.0,0.0,0.0
1502,58.0,0.0,90.0,2.0,0.0
1503,72.0,120.0,90.0,0.0,0.0
1504,72.0,0.0,240.0,5.0,0.0
1505,51.0,0.0,210.0,4.0,0.0
1506,72.0,0.0,90.0,1.0,0.0
1507,63.0,0.0,240.0,5.0,0.0
1508,67.0,0.0,240.0,5.0,0.0
1509,57.0,0.0,90.0,2.0,0.0
1510,51.0,105.0,240.0,5.0,0.0
1511,67.0,0.0,210.0,3.0,0.0
1512,70.0,0.0,90.0,0.0,0.0
1513,70.0,15.0,90.0,1.0,0.0
1514,55.0,0.0,90.0,2.0,0.0
1515,69.0,0.0,90.0,1.0,0.0
1516,69.0,120.0,90.0,0.0,0.0
1517,48.0,0.0,210.0,4.0,0.0
1518,69.0,0.0,240.0,5.0,0.0
1519,60.0,0.0,240.0,5.0,0.0
1520,63.0,0.0,210.0,2.0,0.0
1521,63.0,105.0,240.0,5.0,0.0
1522,48.0,0.0,240.0,5.0,0.0
1523,60.0,15.0,210.0,3.0,0.0
1524,67.0,0.0,240.0,5.0,0.0
1525,67.0,0.0,90.0,1.0,0.0
1526,67.0,0.0,90.0,0.0,0.0
1527,62.0,0.0,690.0,2.0,0.0
1528,66.0,0.0,90.0,1.0,0.0
1529,66.0,120.0,90.0,0.0,0.0
1530,50.0,0.0,210.0,4.0,0.0
1531,50.0,0.0,240.0,5.0,0.0
1532,69.0,0.0,240.0,5.0,0.0
1533,62.0,0.0,240.0,5.0,0.0
1534,66.0,105.0,240.0,5.0,0.0
1535,57.0,15.0,210.0,3.0,0.0
1536,67.0,0.0,90.0,1.0,0.0
1537,67.0,0.0,90.0,0.0,0.0
1538,60.0,0.0,240.0,5.0,0.0
1539,48.0,0.0,240.0,5.0,0.0
1540,67.0,0.0,240.0,5.0,0.0
1541,48.0,0.0,210.0,4.0,0.0
1542,63.0,105.0,240.0,5.0,0.0
1543,69.0,0.0,90.0,1.0,0.0
1544,54.0,0.0,210.0,3.0,0.0
1545,69.0,120.0,90.0,0.0,0.0
1546,66.0,0.0,90.0,1.0,0.0
1547,66.0,15.0,90.0,0.0,0.0
1548,55.0,0.0,210.0,3.0,0.0
1549,62.0,0.0,90.0,0.0,0.0
1550,58.0,105.0,240.0,5.0,0.0
1551,46.0,0.0,240.0,5.0,0.0
1552,62.0,120.0,90.0,1.0,0.0
1553,46.0,0.0,210.0,4.0,0.0
1554,67.0,0.0,240.0,5.0,0.0
1555,62.0,0.0,240.0,5.0,0.0
1556,64.0,15.0,90.0,1.0,0.0
1557,64.0,0.0,90.0,0.0,0.0
1558,60.0,0.0,240.0,5.0,0.0
1559,57.0,0.0,240.0,5.0,0.0
1560,66.0,225.0,240.0,5.0,0.0
1561,45.0,0.0,240.0,5.0,0.0
1562,57.0,0.0,210.0,3.0,0.0
1563,45.0,0.0,210.0,4.0,0.0
1564,60.0,0.0,210.0,2.0,0.0
1565,66.0,0.0,90.0,1.0,0.0
1566,66.0,120.0,90.0,0.0,0.0
1567,62.0,0.0,90.0,1.0,0.0
1568,62.0,15.0,90.0,0.0,0.0
1569,43.0,0.0,240.0,5.0,0.0
1570,55.0,0.0,240.0,5.0,0.0
1571,58.0,15.0,210.0,2.0,0.0
1572,67.0,120.0,570.0,1.0,0.0
1573,67.0,0.0,570.0,0.0,0.0
1574,62.0,105.0,240.0,5.0,0.0
1575,58.0,0.0,240.0,5.0,0.0
1576,43.0,0.0,210.0,4.0,0.0
1577,50.0,0.0,210.0,3.0,0.0
1578,55.0,15.0,90.0,4.0,0.0
1579,62.0,15.0,210.0,2.0,0.0
1580,58.0,0.0,90.0,3.0,0.0
1581,55.0,0.0,120.0,5.0,0.0
1582,74.0,105.0,120.0,5.0,0.0
1583,70.0,0.0,120.0,5.0,0.0
1584,67.0,0.0,120.0,5.0,0.0
1585,69.0,0.0,120.0,5.0,0.0
1586,75.0,105.0,120.0,5.0,0.0
1587,57.0,0.0,120.0,5.0,0.0
1588,72.0,0.0,120.0,5.0,0.0
1589,57.0,0.0,90.0,4.0,0.0
1590,60.0,0.0,90.0,3.0,0.0
1591,62.0,120.0,570.0,3.0,0.0
1592,74.0,105.0,240.0,5.0,0.0
1593,67.0,0.0,570.0,2.0,0.0
1594,70.0,0.0,240.0,5.0,0.0
1595,58.0,0.0,210.0,4.0,0.0
1596,58.0,0.0,240.0,5.0,0.0
1597,79.0,0.0,240.0,5.0,0.0
1598,62.0,0.0,90.0,1.0,0.0
1599,62.0,15.0,90.0,0.0,0.0
1600,60.0,120.0,90.0,0.0,0.0
1601,60.0,0.0,90.0,1.0,0.0
1602,57.0,0.0,210.0,4.0,0.0
1603,69.0,105.0,240.0,5.0,0.0
1604,72.0,0.0,240.0,5.0,0.0
1605,57.0,0.0,240.0,5.0,0.0
1606,78.0,0.0,240.0,5.0,0.0
1607,62.0,15.0,90.0,1.0,0.0
1608,62.0,0.0,90.0,0.0,0.0
1609,55.0,0.0,240.0,5.0,0.0
1610,55.0,0.0,210.0,4.0,0.0
1611,70.0,0.0,570.0,1.0,0.0
1612,70.0,120.0,570.0,0.0,0.0
1613,74.0,105.0,240.0,5.0,0.0
1614,70.0,0.0,240.0,5.0,0.0
1615,67.0,0.0,240.0,5.0,0.0
1616,62.0,0.0,90.0,2.0,0.0
1617,58.0,15.0,90.0,3.0,0.0
1618,70.0,0.0,240.0,5.0,0.0
1619,57.0,105.0,240.0,5.0,0.0
1620,69.0,0.0,240.0,5.0,0.0
1621,74.0,0.0,240.0,5.0,0.0
1622,60.0,120.0,90.0,2.0,0.0
1623,57.0,0.0,90.0,3.0,0.0
1624,57.0,0.0,210.0,4.0,0.0
1625,62.0,0.0,90.0,2.0,0.0
1626,55.0,15.0,90.0,3.0,0.0
1627,67.0,120.0,570.0,2.0,0.0
1628,58.0,0.0,210.0,4.0,0.0
1629,70.0,0.0,240.0,5.0,0.0
1630,79.0,0.0,240.0,5.0,0.0
1631,74.0,0.0,240.0,5.0,0.0
1632,62.0,15.0,210.0,3.0,0.0
1633,58.0,105.0,240.0,5.0,0.0
1634,67.0,0.0,90.0,1.0,0.0
1635,67.0,0.0,90.0,0.0,0.0
1636,60.0,0.0,210.0,3.0,0.0
1637,57.0,0.0,210.0,4.0,0.0
1638,69.0,0.0,240.0,5.0,0.0
1639,66.0,0.0,90.0,1.0,0.0
1640,79.0,0.0,240.0,5.0,0.0
1641,74.0,0.0,240.0,5.0,0.0
1642,57.0,105.0,240.0,5.0,0.0
1643,66.0,120.0,90.0,0.0,0.0
1644,67.0,15.0,90.0,1.0,0.0
1645,67.0,0.0,90.0,0.0,0.0
1646,55.0,0.0,240.0,5.0,0.0
1647,73.0,0.0,240.0,5.0,0.0
1648,76.0,0.0,240.0,5.0,0.0
1649,58.0,0.0,90.0,3.0,0.0
1650,73.0,120.0,570.0,1.0,0.0
1651,70.0,0.0,240.0,5.0,0.0
1652,55.0,0.0,210.0,4.0,0.0
1653,73.0,0.0,570.0,0.0,0.0
1654,67.0,105.0,240.0,5.0,0.0
1655,57.0,15.0,90.0,3.0,0.0
1656,65.0,0.0,90.0,2.0,0.0
1657,57.0,0.0,240.0,5.0,0.0
1658,57.0,0.0,210.0,4.0,0.0
1659,55.0,0.0,90.0,3.0,0.0
1660,76.0,0.0,240.0,5.0,0.0
1661,73.0,0.0,240.0,5.0,0.0
1662,70.0,105.0,240.0,5.0,0.0
1663,64.0,120.0,90.0,2.0,0.0
1664,69.0,0.0,240.0,5.0,0.0
1665,65.0,15.0,90.0,2.0,0.0
1666,53.0,0.0,90.0,3.0,0.0
1667,58.0,0.0,210.0,4.0,0.0
1668,76.0,105.0,240.0,5.0,0.0
1669,67.0,120.0,570.0,2.0,0.0
1670,70.0,0.0,240.0,5.0,0.0
1671,58.0,0.0,240.0,5.0,0.0
1672,73.0,0.0,240.0,5.0,0.0
1673,52.0,15.0,210.0,3.0,0.0
1674,67.0,0.0,90.0,0.0,0.0
1675,67.0,0.0,90.0,1.0,0.0
1676,66.0,0.0,90.0,0.0,0.0
1677,66.0,120.0,90.0,1.0,0.0
1678,57.0,0.0,210.0,4.0,0.0
1679,76.0,0.0,240.0,5.0,0.0
1680,70.0,0.0,240.0,5.0,0.0
1681,57.0,0.0,240.0,5.0,0.0
1682,69.0,0.0,240.0,5.0,0.0
1683,73.0,105.0,240.0,5.0,0.0
1684,61.0,0.0,330.0,3.0,0.0
1685,67.0,0.0,90.0,0.0,0.0
1686,67.0,15.0,90.0,1.0,0.0
1687,55.0,0.0,240.0,5.0,0.0
1688,67.0,105.0,240.0,5.0,0.0
1689,70.0,0.0,240.0,5.0,0.0
1690,76.0,0.0,570.0,1.0,0.0
1691,76.0,120.0,570.0,0.0,0.0
1692,76.0,0.0,240.0,5.0,0.0
1693,73.0,0.0,240.0,5.0,0.0
1694,55.0,0.0,210.0,4.0,0.0
1695,65.0,0.0,90.0,2.0,0.0
1696,62.0,15.0,90.0,3.0,0.0
1697,57.0,0.0,240.0,5.0,0.0
1698,69.0,0.0,240.0,5.0,0.0
1699,64.0,0.0,90.0,2.0,0.0
1700,73.0,105.0,240.0,5.0,0.0
1701,57.0,0.0,210.0,4.0,0.0
1702,76.0,0.0,240.0,5.0,0.0
1703,70.0,0.0,240.0,5.0,0.0
1704,61.0,120.0,90.0,3.0,0.0
1705,65.0,15.0,90.0,2.0,0.0
1706,62.0,0.0,90.0,3.0,0.0
1707,61.0,0.0,210.0,3.0,0.0
1708,70.0,0.0,240.0,5.0,0.0
1709,58.0,0.0,240.0,5.0,0.0
1710,76.0,105.0,240.0,5.0,0.0
1711,73.0,0.0,240.0,5.0,0.0
1712,58.0,0.0,210.0,4.0,0.0
1713,67.0,15.0,210.0,2.0,0.0
1714,78.0,0.0,90.0,0.0,0.0
1715,78.0,0.0,90.0,1.0,0.0
1716,79.0,0.0,90.0,1.0,0.0
1717,67.0,0.0,240.0,5.0,0.0
1718,70.0,0.0,240.0,5.0,0.0
1719,79.0,120.0,90.0,0.0,0.0
1720,55.0,0.0,240.0,5.0,0.0
1721,70.0,0.0,210.0,2.0,0.0
1722,76.0,0.0,240.0,5.0,0.0
1723,73.0,105.0,240.0,5.0,0.0
1724,55.0,0.0,210.0,4.0,0.0
1725,62.0,0.0,210.0,3.0,0.0
1726,76.0,15.0,90.0,1.0,0.0
1727,76.0,0.0,90.0,0.0,0.0
1728,72.0,0.0,240.0,5.0,0.0
1729,78.0,0.0,240.0,5.0,0.0
1730,78.0,0.0,90.0,0.0,0.0
1731,57.0,0.0,240.0,5.0,0.0
1732,60.0,15.0,210.0,3.0,0.0
1733,69.0,105.0,240.0,5.0,0.0
1734,78.0,120.0,90.0,1.0,0.0
1735,57.0,0.0,210.0,4.0,0.0
1736,69.0,0.0,210.0,2.0,0.0
1737,74.0,0.0,90.0,1.0,0.0
1738,74.0,0.0,90.0,0.0,0.0
1739,62.0,0.0,210.0,3.0,0.0
1740,67.0,0.0,330.0,2.0,0.0
1741,79.0,0.0,240.0,5.0,0.0
1742,79.0,120.0,90.0,1.0,0.0
1743,74.0,0.0,240.0,5.0,0.0
1744,58.0,15.0,210.0,4.0,0.0
1745,58.0,105.0,240.0,5.0,0.0
1746,70.0,0.0,240.0,5.0,0.0
1747,79.0,0.0,90.0,0.0,0.0
1748,77.0,0.0,90.0,0.0,0.0
1749,77.0,0.0,90.0,1.0,0.0
1750,75.0,120.0,90.0,0.0,0.0
1751,60.0,0.0,210.0,4.0,0.0
1752,75.0,0.0,90.0,1.0,0.0
1753,75.0,0.0,240.0,5.0,0.0
1754,63.0,0.0,570.0,3.0,0.0
1755,79.0,0.0,240.0,5.0,0.0
1756,60.0,0.0,240.0,5.0,0.0
1757,72.0,105.0,240.0,5.0,0.0
1758,74.0,0.0,90.0,1.0,0.0
1759,70.0,0.0,90.0,2.0,0.0
1760,74.0,15.0,90.0,0.0,0.0
1761,58.0,0.0,210.0,4.0,0.0
1762,72.0,0.0,330.0,1.0,0.0
1763,72.0,120.0,330.0,0.0,0.0
1764,79.0,0.0,240.0,5.0,0.0
1765,70.0,0.0,240.0,5.0,0.0
1766,75.0,105.0,240.0,5.0,0.0
1767,72.0,0.0,240.0,5.0,0.0
1768,58.0,0.0,240.0,5.0,0.0
1769,69.0,120.0,90.0,2.0,0.0
1770,67.0,15.0,90.0,2.0,0.0
1771,78.0,0.0,240.0,5.0,0.0
1772,57.0,0.0,210.0,4.0,0.0
1773,57.0,105.0,240.0,5.0,0.0
1774,72.0,0.0,240.0,5.0,0.0
1775,69.0,0.0,240.0,5.0,0.0
1776,66.0,0.0,210.0,2.0,0.0
1777,70.0,0.0,90.0,1.0,0.0
1778,70.0,0.0,90.0,0.0,0.0
1779,62.0,15.0,90.0,3.0,0.0
1780,60.0,0.0,90.0,3.0,0.0
1781,58.0,0.0,210.0,4.0,0.0
1782,75.0,0.0,450.0,2.0,0.0
1783,69.0,0.0,90.0,0.0,0.0
1784,72.0,0.0,240.0,5.0,0.0
1785,79.0,0.0,240.0,5.0,0.0
1786,70.0,0.0,240.0,5.0,0.0
1787,75.0,105.0,240.0,5.0,0.0
1788,69.0,120.0,90.0,1.0,0.0
1789,58.0,0.0,240.0,5.0,0.0
1790,67.0,0.0,90.0,0.0,0.0
1791,62.0,0.0,90.0,3.0,0.0
1792,67.0,15.0,90.0,1.0,0.0
1793,81.0,0.0,240.0,5.0,0.0
1794,60.0,0.0,240.0,5.0,0.0
1795,72.0,105.0,240.0,5.0,0.0
1796,60.0,0.0,210.0,4.0,0.0
1797,66.0,0.0,90.0,3.0,0.0
1798,69.0,120.0,90.0,1.0,0.0
1799,69.0,0.0,90.0,0.0,0.0
1800,75.0,0.0,240.0,5.0,0.0
1801,67.0,0.0,90.0,3.0,0.0
1802,70.0,0.0,90.0,0.0,0.0
1803,70.0,15.0,90.0,1.0,0.0
1804,60.0,225.0,240.0,5.0,0.0
1805,66.0,0.0,240.0,5.0,0.0
1806,45.0,0.0,210.0,4.0,0.0
1807,57.0,0.0,240.0,5.0,0.0
1808,45.0,0.0,240.0,5.0,0.0
1809,72.0,120.0,90.0,1.0,0.0
1810,72.0,0.0,90.0,0.0,0.0
1811,69.0,15.0,210.0,3.0,0.0
1812,74.0,15.0,450.0,2.0,0.0
1813,66.0,0.0,90.0,1.0,0.0
1814,66.0,0.0,90.0,0.0,0.0
1815,62.0,0.0,240.0,5.0,0.0
1816,67.0,0.0,240.0,5.0,0.0
1817,67.0,0.0,210.0,0.0,0.0
1818,46.0,0.0,210.0,4.0,0.0
1819,67.0,0.0,210.0,1.0,0.0
1820,62.0,0.0,210.0,3.0,0.0
1821,58.0,0.0,240.0,5.0,0.0
1822,46.0,105.0,240.0,5.0,0.0
1823,67.0,0.0,210.0,2.0,0.0
1824,63.0,15.0,210.0,3.0,0.0
1825,75.0,15.0,90.0,1.0,0.0
1826,67.0,0.0,240.0,5.0,0.0
1827,48.0,0.0,240.0,5.0,0.0
1828,69.0,0.0,240.0,5.0,0.0
1829,60.0,105.0,240.0,5.0,0.0
1830,48.0,0.0,210.0,4.0,0.0
1831,63.0,0.0,240.0,5.0,0.0
1832,75.0,105.0,120.0,0.0,0.0
1833,74.0,0.0,90.0,1.0,0.0
1834,74.0,0.0,90.0,0.0,0.0
1835,62.0,15.0,210.0,3.0,0.0
1836,50.0,0.0,240.0,5.0,0.0
1837,69.0,105.0,240.0,5.0,0.0
1838,62.0,0.0,240.0,5.0,0.0
1839,67.0,0.0,240.0,5.0,0.0
1840,50.0,0.0,210.0,4.0,0.0
1841,67.0,0.0,210.0,2.0,0.0
1842,72.0,105.0,120.0,0.0,0.0
1843,72.0,15.0,90.0,1.0,0.0
1844,70.0,0.0,90.0,1.0,0.0
1845,70.0,0.0,90.0,0.0,0.0
1846,69.0,105.0,120.0,0.0,0.0
1847,66.0,0.0,210.0,2.0,0.0
1848,57.0,0.0,240.0,5.0,0.0
1849,54.0,225.0,240.0,5.0,0.0
1850,38.0,0.0,240.0,5.0,0.0
1851,50.0,0.0,240.0,5.0,0.0
1852,60.0,0.0,210.0,3.0,0.0
1853,38.0,0.0,210.0,4.0,0.0
1854,69.0,15.0,90.0,1.0,0.0
1855,67.0,0.0,90.0,0.0,0.0
1856,67.0,15.0,90.0,1.0,0.0
1857,43.0,0.0,240.0,5.0,0.0
1858,67.0,0.0,720.0,1.0,0.0
1859,67.0,0.0,720.0,0.0,0.0
1860,58.0,0.0,720.0,3.0,0.0
1861,55.0,0.0,240.0,5.0,0.0
1862,58.0,0.0,240.0,5.0,0.0
1863,62.0,225.0,240.0,5.0,0.0
1864,62.0,0.0,720.0,2.0,0.0
1865,43.0,15.0,210.0,4.0,0.0
1866,50.0,0.0,240.0,5.0,0.0
1867,50.0,15.0,210.0,4.0,0.0
1868,69.0,240.0,240.0,5.0,0.0
1869,65.0,0.0,240.0,5.0,0.0
1870,62.0,0.0,240.0,5.0,0.0
1871,70.0,345.0,240.0,5.0,0.0
1872,55.0,0.0,240.0,5.0,0.0
1873,74.0,0.0,240.0,5.0,0.0
1874,67.0,0.0,240.0,5.0,0.0
1875,55.0,0.0,240.0,4.0,0.0
1876,62.0,15.0,450.0,1.0,0.0
1877,62.0,120.0,90.0,2.0,0.0
1878,67.0,0.0,90.0,0.0,0.0
1879,58.0,0.0,90.0,3.0,0.0
1880,57.0,0.0,90.0,3.0,0.0
1881,60.0,135.0,90.0,2.0,0.0
1882,66.0,0.0,90.0,0.0,0.0
1883,62.0,105.0,240.0,2.0,0.0
1884,67.0,105.0,120.0,0.0,0.0
1885,58.0,0.0,240.0,3.0,0.0
1886,69.0,0.0,120.0,0.0,0.0
1887,55.0,0.0,210.0,4.0,0.0
1888,67.0,105.0,240.0,5.0,0.0
1889,70.0,0.0,240.0,5.0,0.0
1890,55.0,0.0,240.0,5.0,0.0
1891,74.0,0.0,240.0,5.0,0.0
1892,70.0,120.0,90.0,0.0,0.0
1893,67.0,0.0,450.0,1.0,0.0
1894,74.0,15.0,90.0,0.0,0.0
1895,72.0,120.0,90.0,0.0,0.0
1896,51.0,15.0,210.0,4.0,0.0
1897,63.0,0.0,240.0,5.0,0.0
1898,67.0,0.0,240.0,5.0,0.0
1899,72.0,105.0,240.0,5.0,0.0
1900,51.0,0.0,240.0,5.0,0.0
1901,70.0,0.0,90.0,0.0,0.0
1902,75.0,120.0,450.0,1.0,0.0
1903,69.0,120.0,90.0,0.0,0.0
1904,48.0,0.0,210.0,4.0,0.0
1905,69.0,120.0,240.0,5.0,0.0
1906,67.0,0.0,240.0,5.0,0.0
1907,48.0,0.0,240.0,5.0,0.0
1908,60.0,0.0,240.0,5.0,0.0
1909,63.0,0.0,240.0,5.0,0.0
1910,67.0,15.0,90.0,0.0,0.0
1911,62.0,0.0,480.0,5.0,0.0
1912,66.0,105.0,120.0,0.0,0.0
1913,50.0,0.0,480.0,4.0,0.0
1914,69.0,105.0,480.0,5.0,0.0
1915,66.0,0.0,480.0,5.0,0.0
1916,50.0,0.0,480.0,5.0,0.0
1917,67.0,0.0,90.0,0.0,0.0
1918,66.0,105.0,120.0,0.0,0.0
1919,69.0,0.0,210.0,1.0,0.0
1920,69.0,15.0,90.0,2.0,0.0
1921,62.0,0.0,210.0,3.0,0.0
1922,70.0,15.0,90.0,2.0,0.0
1923,67.0,0.0,90.0,0.0,0.0
1924,66.0,0.0,210.0,1.0,0.0
1925,60.0,0.0,210.0,3.0,0.0
1926,72.0,0.0,210.0,2.0,0.0
1927,69.0,120.0,90.0,0.0,0.0
1928,62.0,120.0,90.0,0.0,0.0
1929,62.0,15.0,90.0,2.0,0.0
1930,67.0,105.0,120.0,0.0,0.0
1931,58.0,0.0,90.0,3.0,0.0
1932,62.0,15.0,450.0,1.0,0.0
1933,60.0,0.0,90.0,2.0,0.0
1934,57.0,135.0,90.0,3.0,0.0
1935,66.0,0.0,90.0,0.0,0.0
1936,67.0,105.0,120.0,0.0,0.0
1937,62.0,0.0,240.0,2.0,0.0
1938,58.0,105.0,240.0,3.0,0.0
1939,69.0,0.0,120.0,0.0,0.0
1940,70.0,120.0,90.0,0.0,0.0
1941,55.0,0.0,210.0,4.0,0.0
1942,70.0,0.0,240.0,5.0,0.0
1943,67.0,0.0,240.0,5.0,0.0
1944,74.0,0.0,240.0,5.0,0.0
1945,55.0,105.0,240.0,5.0,0.0
1946,67.0,15.0,450.0,1.0,0.0
1947,74.0,15.0,90.0,0.0,0.0
1948,51.0,105.0,240.0,5.0,0.0
1949,63.0,0.0,240.0,5.0,0.0
1950,67.0,0.0,240.0,5.0,0.0
1951,72.0,0.0,240.0,5.0,0.0
1952,51.0,0.0,210.0,4.0,0.0
1953,72.0,120.0,90.0,0.0,0.0
1954,70.0,0.0,90.0,0.0,0.0
1955,67.0,345.0,240.0,5.0,0.0
1956,63.0,0.0,240.0,5.0,0.0
1957,60.0,0.0,240.0,5.0,0.0
1958,69.0,120.0,90.0,0.0,0.0
1959,48.0,0.0,210.0,4.0,0.0
1960,75.0,15.0,210.0,1.0,0.0
1961,48.0,0.0,240.0,5.0,0.0
1962,69.0,0.0,240.0,5.0,0.0
1963,67.0,0.0,90.0,0.0,0.0
1964,74.0,0.0,690.0,0.0,0.0
1965,50.0,105.0,720.0,4.0,0.0
1966,66.0,15.0,690.0,1.0,0.0
1967,66.0,0.0,720.0,5.0,0.0
1968,50.0,0.0,720.0,5.0,0.0
1969,62.0,0.0,720.0,5.0,0.0
1970,69.0,0.0,720.0,5.0,0.0
1971,66.0,120.0,90.0,2.0,0.0
1972,62.0,0.0,90.0,3.0,0.0
1973,67.0,0.0,90.0,2.0,0.0
1974,64.0,240.0,90.0,3.0,0.0
1975,69.0,0.0,210.0,2.0,0.0
1976,66.0,0.0,210.0,3.0,0.0
1977,58.0,0.0,90.0,3.0,0.0
1978,62.0,15.0,450.0,1.0,0.0
1979,67.0,0.0,90.0,0.0,0.0
1980,62.0,120.0,90.0,2.0,0.0
1981,57.0,0.0,90.0,3.0,0.0
1982,60.0,0.0,90.0,2.0,0.0
1983,66.0,135.0,90.0,0.0,0.0
1984,58.0,105.0,240.0,3.0,0.0
1985,62.0,0.0,240.0,2.0,0.0
1986,67.0,105.0,120.0,0.0,0.0
1987,69.0,0.0,120.0,0.0,0.0
1988,74.0,105.0,240.0,5.0,0.0
1989,55.0,15.0,210.0,4.0,0.0
1990,70.0,120.0,90.0,0.0,0.0
1991,67.0,0.0,450.0,1.0,0.0
1992,55.0,0.0,240.0,5.0,0.0
1993,70.0,0.0,240.0,5.0,0.0
1994,67.0,0.0,240.0,5.0,0.0
1995,74.0,0.0,90.0,0.0,0.0
1996,72.0,120.0,90.0,0.0,0.0
1997,63.0,0.0,240.0,5.0,0.0
1998,51.0,0.0,240.0,5.0,0.0
1999,51.0,0.0,210.0,4.0,0.0
2000,67.0,0.0,240.0,5.0,0.0
2001,72.0,105.0,240.0,5.0,0.0
2002,70.0,15.0,90.0,0.0,0.0
2003,69.0,0.0,240.0,5.0,0.0
2004,67.0,0.0,240.0,5.0,0.0
2005,60.0,0.0,240.0,5.0,0.0
2006,48.0,0.0,240.0,5.0,0.0
2007,63.0,120.0,240.0,5.0,0.0
2008,75.0,120.0,450.0,1.0,0.0
2009,69.0,120.0,90.0,0.0,0.0
2010,48.0,0.0,210.0,4.0,0.0
2011,67.0,15.0,90.0,0.0,0.0
2012,50.0,0.0,480.0,4.0,0.0
2013,62.0,0.0,480.0,5.0,0.0
2014,50.0,105.0,480.0,5.0,0.0
2015,66.0,0.0,480.0,5.0,0.0
2016,69.0,0.0,480.0,5.0,0.0
2017,66.0,105.0,120.0,0.0,0.0
2018,67.0,0.0,90.0,0.0,0.0
2019,69.0,0.0,210.0,1.0,0.0
2020,62.0,0.0,210.0,3.0,0.0
2021,66.0,105.0,120.0,0.0,0.0
2022,69.0,15.0,90.0,2.0,0.0
2023,67.0,15.0,90.0,0.0,0.0
2024,70.0,0.0,90.0,2.0,0.0
2025,60.0,0.0,210.0,3.0,0.0
2026,66.0,120.0,210.0,1.0,0.0
2027,69.0,120.0,90.0,0.0,0.0
2028,72.0,0.0,210.0,2.0,0.0
2029,62.0,0.0,90.0,0.0,0.0
2030,58.0,15.0,90.0,3.0,0.0
2031,67.0,105.0,120.0,0.0,0.0
2032,62.0,15.0,450.0,1.0,0.0
2033,62.0,0.0,90.0,2.0,0.0
2034,60.0,0.0,90.0,2.0,0.0
2035,57.0,0.0,90.0,3.0,0.0
2036,66.0,135.0,90.0,0.0,0.0
2037,67.0,105.0,120.0,0.0,0.0
2038,62.0,105.0,240.0,2.0,0.0
2039,58.0,0.0,240.0,3.0,0.0
2040,69.0,0.0,120.0,0.0,0.0
2041,70.0,0.0,240.0,5.0,0.0
2042,55.0,0.0,240.0,5.0,0.0
2043,67.0,105.0,240.0,5.0,0.0
2044,70.0,120.0,90.0,0.0,0.0
2045,55.0,15.0,210.0,4.0,0.0
2046,67.0,15.0,450.0,1.0,0.0
2047,74.0,0.0,240.0,5.0,0.0
2048,74.0,0.0,90.0,0.0,0.0
2049,72.0,0.0,240.0,5.0,0.0
2050,51.0,0.0,240.0,5.0,0.0
2051,51.0,0.0,210.0,4.0,0.0
2052,63.0,0.0,240.0,5.0,0.0
2053,72.0,120.0,90.0,0.0,0.0
2054,67.0,105.0,240.0,5.0,0.0
2055,70.0,0.0,90.0,0.0,0.0
2056,48.0,0.0,210.0,4.0,0.0
2057,48.0,0.0,240.0,5.0,0.0
2058,75.0,0.0,210.0,1.0,0.0
2059,63.0,0.0,240.0,5.0,0.0
2060,67.0,345.0,240.0,5.0,0.0
2061,60.0,0.0,240.0,5.0,0.0
2062,69.0,120.0,90.0,0.0,0.0
2063,69.0,0.0,240.0,5.0,0.0
2064,67.0,15.0,90.0,0.0,0.0
2065,50.0,105.0,720.0,5.0,0.0
2066,62.0,0.0,720.0,5.0,0.0
2067,69.0,0.0,720.0,5.0,0.0
2068,74.0,0.0,690.0,0.0,0.0
2069,66.0,0.0,720.0,5.0,0.0
2070,66.0,0.0,690.0,1.0,0.0
2071,50.0,0.0,720.0,4.0,0.0
2072,62.0,0.0,90.0,3.0,0.0
2073,66.0,120.0,90.0,2.0,0.0
2074,64.0,0.0,90.0,3.0,0.0
2075,67.0,240.0,90.0,2.0,0.0
2076,66.0,0.0,210.0,3.0,0.0
2077,69.0,15.0,210.0,2.0,0.0
2078,62.0,0.0,90.0,3.0,0.0
2079,69.0,0.0,90.0,0.0,0.0
2080,66.0,15.0,450.0,1.0,0.0
2081,74.0,120.0,90.0,2.0,0.0
2082,64.0,0.0,90.0,3.0,0.0
2083,72.0,0.0,90.0,2.0,0.0
2084,67.0,135.0,90.0,0.0,0.0
2085,69.0,105.0,120.0,0.0,0.0
2086,66.0,0.0,240.0,3.0,0.0
2087,74.0,105.0,240.0,2.0,0.0
2088,70.0,0.0,120.0,0.0,0.0
2089,57.0,0.0,240.0,5.0,0.0
2090,75.0,105.0,240.0,5.0,0.0
2091,78.0,0.0,240.0,5.0,0.0
2092,72.0,0.0,240.0,5.0,0.0
2093,69.0,0.0,240.0,5.0,0.0
2094,57.0,0.0,210.0,4.0,0.0
2095,75.0,15.0,450.0,1.0,0.0
2096,72.0,120.0,90.0,0.0,0.0
2097,75.0,15.0,90.0,0.0,0.0
2098,69.0,0.0,240.0,5.0,0.0
2099,54.0,0.0,240.0,5.0,0.0
2100,72.0,0.0,240.0,5.0,0.0
2101,66.0,0.0,240.0,5.0,0.0
2102,75.0,105.0,240.0,5.0,0.0
2103,74.0,120.0,90.0,0.0,0.0
2104,54.0,0.0,210.0,4.0,0.0
2105,72.0,0.0,90.0,0.0,0.0
2106,50.0,15.0,210.0,4.0,0.0
2107,69.0,0.0,240.0,5.0,0.0
2108,62.0,0.0,240.0,5.0,0.0
2109,72.0,120.0,240.0,5.0,0.0
2110,66.0,0.0,240.0,5.0,0.0
2111,74.0,15.0,450.0,1.0,0.0
2112,50.0,0.0,240.0,5.0,0.0
2113,70.0,120.0,90.0,0.0,0.0
2114,69.0,0.0,90.0,0.0,0.0
2115,55.0,105.0,480.0,4.0,0.0
2116,67.0,0.0,480.0,5.0,0.0
2117,70.0,105.0,120.0,0.0,0.0
2118,55.0,0.0,480.0,5.0,0.0
2119,70.0,0.0,480.0,5.0,0.0
2120,74.0,0.0,480.0,5.0,0.0
2121,69.0,105.0,120.0,0.0,0.0
2122,58.0,120.0,90.0,3.0,0.0
2123,67.0,0.0,90.0,0.0,0.0
2124,70.0,0.0,210.0,1.0,0.0
2125,74.0,0.0,90.0,2.0,0.0
2126,69.0,0.0,90.0,0.0,0.0
2127,60.0,15.0,90.0,3.0,0.0
2128,72.0,0.0,90.0,2.0,0.0
2129,67.0,0.0,210.0,1.0,0.0
2130,70.0,0.0,210.0,2.0,0.0
2131,62.0,0.0,210.0,3.0,0.0
2132,70.0,120.0,90.0,0.0,0.0
2133,72.0,120.0,90.0,0.0,0.0
2134,67.0,0.0,210.0,3.0,0.0
2135,70.0,15.0,450.0,1.0,0.0
2136,74.0,120.0,90.0,0.0,0.0
2137,67.0,135.0,210.0,2.0,0.0
2138,70.0,0.0,90.0,0.0,0.0
2139,63.0,105.0,240.0,3.0,0.0
2140,79.0,0.0,240.0,2.0,0.0
2141,72.0,105.0,120.0,0.0,0.0
2142,74.0,0.0,120.0,0.0,0.0
2143,75.0,0.0,240.0,5.0,0.0
2144,79.0,15.0,450.0,1.0,0.0
2145,75.0,120.0,90.0,0.0,0.0
2146,79.0,105.0,240.0,5.0,0.0
2147,60.0,0.0,240.0,5.0,0.0
2148,60.0,15.0,210.0,4.0,0.0
2149,72.0,0.0,240.0,5.0,0.0
2150,79.0,0.0,90.0,0.0,0.0
2151,69.0,0.0,240.0,5.0,0.0
2152,57.0,0.0,210.0,4.0,0.0
2153,72.0,0.0,240.0,5.0,0.0
2154,75.0,0.0,240.0,5.0,0.0
2155,57.0,105.0,240.0,5.0,0.0
2156,77.0,120.0,90.0,0.0,0.0
2157,79.0,0.0,240.0,5.0,0.0
2158,75.0,0.0,90.0,0.0,0.0
2159,69.0,0.0,120.0,5.0,0.0
2160,65.0,0.0,120.0,5.0,0.0
2161,77.0,15.0,450.0,1.0,0.0
2162,77.0,105.0,120.0,5.0,0.0
2163,72.0,0.0,120.0,5.0,0.0
2164,53.0,0.0,210.0,4.0,0.0
2165,53.0,120.0,240.0,5.0,0.0
2166,74.0,15.0,90.0,0.0,0.0
2167,72.0,15.0,90.0,0.0,0.0
2168,65.0,0.0,120.0,5.0,0.0
2169,69.0,0.0,120.0,5.0,0.0
2170,72.0,0.0,120.0,5.0,0.0
2171,75.0,0.0,120.0,5.0,0.0
2172,70.0,0.0,480.0,5.0,0.0
2173,74.0,105.0,120.0,0.0,0.0
2174,58.0,0.0,480.0,5.0,0.0
2175,77.0,0.0,480.0,5.0,0.0
2176,58.0,105.0,480.0,4.0,0.0
2177,74.0,0.0,480.0,5.0,0.0
2178,72.0,105.0,120.0,0.0,0.0
2179,74.0,0.0,210.0,1.0,0.0
2180,70.0,0.0,90.0,0.0,0.0
2181,70.0,0.0,90.0,2.0,0.0
2182,62.0,120.0,90.0,3.0,0.0
2183,63.0,0.0,90.0,3.0,0.0
2184,69.0,15.0,90.0,2.0,0.0
2185,72.0,0.0,90.0,0.0,0.0
2186,65.0,0.0,210.0,3.0,0.0
2187,70.0,0.0,210.0,1.0,0.0
2188,74.0,120.0,90.0,0.0,0.0
2189,70.0,120.0,210.0,2.0,0.0
2190,75.0,0.0,90.0,0.0,0.0
2191,65.0,0.0,480.0,2.0,0.0
2192,74.0,15.0,450.0,1.0,0.0
2193,77.0,120.0,90.0,0.0,0.0
2194,56.0,0.0,210.0,3.0,0.0
2195,74.0,135.0,90.0,0.0,0.0
2196,55.0,0.0,240.0,3.0,0.0
2197,71.0,105.0,120.0,0.0,0.0
2198,72.0,105.0,120.0,0.0,0.0
2199,65.0,0.0,240.0,5.0,0.0
2200,59.0,0.0,240.0,5.0,0.0
2201,43.0,0.0,240.0,5.0,0.0
2202,62.0,0.0,240.0,5.0,0.0
2203,43.0,0.0,210.0,4.0,0.0
2204,55.0,105.0,240.0,5.0,0.0
2205,74.0,120.0,90.0,0.0,0.0
2206,77.0,0.0,450.0,1.0,0.0
2207,80.0,15.0,90.0,0.0,0.0
2208,67.0,0.0,240.0,5.0,0.0
2209,45.0,105.0,240.0,5.0,0.0
2210,63.0,0.0,240.0,5.0,0.0
2211,60.0,0.0,240.0,5.0,0.0
2212,45.0,0.0,210.0,4.0,0.0
2213,79.0,120.0,90.0,0.0,0.0
2214,57.0,0.0,240.0,5.0,0.0
2215,77.0,15.0,90.0,0.0,0.0
2216,67.0,0.0,210.0,1.0,0.0
2217,75.0,120.0,90.0,0.0,0.0
2218,47.0,15.0,210.0,4.0,0.0
2219,59.0,0.0,240.0,5.0,0.0
2220,47.0,0.0,240.0,5.0,0.0
2221,62.0,120.0,240.0,5.0,0.0
2222,65.0,0.0,240.0,5.0,0.0
2223,67.0,0.0,240.0,5.0,0.0
2224,74.0,0.0,90.0,0.0,0.0
2225,67.0,0.0,480.0,5.0,0.0
2226,48.0,0.0,480.0,5.0,0.0
2227,60.0,0.0,480.0,5.0,0.0
2228,63.0,105.0,480.0,5.0,0.0
2229,48.0,0.0,480.0,4.0,0.0
2230,72.0,15.0,210.0,1.0,0.0
2231,75.0,105.0,120.0,0.0,0.0
2232,74.0,105.0,120.0,0.0,0.0
2233,69.0,0.0,90.0,3.0,0.0
2234,75.0,0.0,450.0,1.0,0.0
2235,72.0,120.0,90.0,2.0,0.0
2236,72.0,0.0,90.0,0.0,0.0
2237,75.0,0.0,90.0,0.0,0.0
2238,67.0,0.0,90.0,3.0,0.0
2239,70.0,15.0,90.0,2.0,0.0
2240,66.0,0.0,210.0,3.0,0.0
2241,74.0,120.0,90.0,0.0,0.0
2242,69.0,120.0,210.0,2.0,0.0
2243,72.0,0.0,90.0,0.0,0.0
2244,70.0,120.0,90.0,0.0,0.0
2245,66.0,0.0,210.0,1.0,0.0
2246,62.0,0.0,210.0,3.0,0.0
2247,74.0,0.0,210.0,2.0,0.0
2248,69.0,135.0,90.0,0.0,0.0
2249,67.0,0.0,240.0,3.0,0.0
2250,67.0,15.0,210.0,1.0,0.0
2251,70.0,105.0,120.0,0.0,0.0
2252,70.0,0.0,240.0,2.0,0.0
2253,72.0,105.0,120.0,0.0,0.0
2254,74.0,120.0,90.0,0.0,0.0
2255,46.0,0.0,240.0,5.0,0.0
2256,58.0,0.0,240.0,5.0,0.0
2257,46.0,0.0,210.0,4.0,0.0
2258,67.0,105.0,240.0,5.0,0.0
2259,79.0,15.0,450.0,1.0,0.0
2260,62.0,0.0,240.0,5.0,0.0
2261,67.0,15.0,90.0,0.0,0.0
2262,70.0,120.0,90.0,0.0,0.0
2263,48.0,0.0,240.0,5.0,0.0
2264,70.0,0.0,240.0,5.0,0.0
2265,63.0,0.0,240.0,5.0,0.0
2266,48.0,0.0,210.0,4.0,0.0
2267,60.0,30.0,240.0,5.0,0.0
2268,67.0,0.0,240.0,5.0,0.0
2269,69.0,0.0,90.0,0.0,0.0
2270,69.0,30.0,30.0,1.0,0.0
2271,50.0,15.0,210.0,4.0,0.0
2272,66.0,345.0,240.0,5.0,0.0
2273,69.0,0.0,240.0,5.0,0.0
2274,50.0,0.0,240.0,5.0,0.0
2275,62.0,0.0,240.0,5.0,0.0
2276,67.0,15.0,90.0,0.0,0.0
2277,70.0,30.0,30.0,1.0,0.0
2278,69.0,15.0,30.0,1.0,0.0
2279,70.0,30.0,30.0,1.0,0.0
2280,69.0,30.0,30.0,1.0,0.0
2281,66.0,0.0,90.0,0.0,0.0
2282,70.0,30.0,30.0,1.0,0.0
2283,67.0,15.0,30.0,1.0,0.0
2284,69.0,0.0,30.0,1.0,0.0
2285,43.0,105.0,720.0,4.0,0.0
2286,58.0,0.0,720.0,5.0,0.0
2287,55.0,0.0,720.0,5.0,0.0
2288,62.0,0.0,720.0,5.0,0.0
2289,43.0,0.0,720.0,5.0,0.0
2290,67.0,0.0,690.0,0.0,0.0
2291,67.0,15.0,690.0,1.0,0.0
2292,58.0,120.0,90.0,2.0,0.0
2293,55.0,0.0,90.0,3.0,0.0
2294,57.0,0.0,90.0,3.0,0.0
2295,60.0,240.0,90.0,2.0,0.0
2296,58.0,0.0,210.0,3.0,0.0
2297,62.0,0.0,210.0,2.0,0.0
2298,62.0,0.0,90.0,3.0,0.0
2299,66.0,15.0,450.0,1.0,0.0
2300,74.0,120.0,90.0,2.0,0.0
2301,69.0,0.0,90.0,0.0,0.0
2302,67.0,0.0,90.0,0.0,0.0
2303,64.0,0.0,90.0,3.0,0.0
2304,72.0,135.0,90.0,2.0,0.0
2305,74.0,0.0,240.0,2.0,0.0
2306,69.0,105.0,120.0,0.0,0.0
2307,66.0,105.0,240.0,3.0,0.0
2308,70.0,0.0,120.0,0.0,0.0
2309,69.0,0.0,240.0,5.0,0.0
2310,57.0,15.0,210.0,4.0,0.0
2311,57.0,105.0,240.0,5.0,0.0
2312,75.0,0.0,240.0,5.0,0.0
2313,78.0,0.0,240.0,5.0,0.0
2314,72.0,0.0,240.0,5.0,0.0
2315,75.0,15.0,450.0,1.0,0.0
2316,72.0,120.0,90.0,0.0,0.0
2317,75.0,0.0,90.0,0.0,0.0
2318,69.0,0.0,240.0,5.0,0.0
2319,74.0,120.0,90.0,0.0,0.0
2320,66.0,0.0,240.0,5.0,0.0
2321,72.0,0.0,240.0,5.0,0.0
2322,54.0,105.0,240.0,5.0,0.0
2323,54.0,0.0,210.0,4.0,0.0
2324,75.0,0.0,240.0,5.0,0.0
2325,72.0,0.0,90.0,0.0,0.0
2326,69.0,0.0,240.0,5.0,0.0
2327,66.0,0.0,240.0,5.0,0.0
2328,62.0,120.0,240.0,5.0,0.0
2329,50.0,0.0,210.0,4.0,0.0
2330,74.0,15.0,450.0,1.0,0.0
2331,70.0,120.0,90.0,0.0,0.0
2332,50.0,0.0,240.0,5.0,0.0
2333,72.0,0.0,240.0,5.0,0.0
2334,69.0,15.0,90.0,0.0,0.0
2335,74.0,0.0,480.0,5.0,0.0
2336,55.0,0.0,480.0,5.0,0.0
2337,55.0,0.0,480.0,4.0,0.0
2338,70.0,105.0,120.0,0.0,0.0
2339,70.0,105.0,480.0,5.0,0.0
2340,67.0,0.0,480.0,5.0,0.0
2341,69.0,105.0,120.0,0.0,0.0
2342,74.0,0.0,90.0,2.0,0.0
2343,67.0,120.0,90.0,0.0,0.0
2344,58.0,0.0,90.0,3.0,0.0
2345,70.0,0.0,210.0,1.0,0.0
2346,69.0,15.0,90.0,0.0,0.0
2347,60.0,0.0,90.0,3.0,0.0
2348,72.0,0.0,90.0,2.0,0.0
2349,70.0,120.0,90.0,0.0,0.0
2350,70.0,120.0,210.0,2.0,0.0
2351,62.0,0.0,210.0,3.0,0.0
2352,67.0,0.0,210.0,1.0,0.0
2353,72.0,0.0,90.0,0.0,0.0
2354,67.0,0.0,210.0,3.0,0.0
2355,67.0,0.0,210.0,2.0,0.0
2356,74.0,120.0,90.0,0.0,0.0
2357,70.0,15.0,450.0,1.0,0.0
2358,70.0,135.0,90.0,0.0,0.0
2359,72.0,105.0,120.0,0.0,0.0
2360,63.0,0.0,240.0,3.0,0.0
2361,79.0,0.0,240.0,2.0,0.0
2362,74.0,105.0,120.0,0.0,0.0
2363,60.0,15.0,210.0,4.0,0.0
2364,79.0,15.0,450.0,1.0,0.0
2365,72.0,0.0,240.0,5.0,0.0
2366,79.0,0.0,240.0,5.0,0.0
2367,60.0,0.0,240.0,5.0,0.0
2368,75.0,120.0,90.0,0.0,0.0
2369,75.0,105.0,240.0,5.0,0.0
2370,79.0,0.0,90.0,0.0,0.0
2371,57.0,0.0,210.0,4.0,0.0
2372,77.0,120.0,90.0,0.0,0.0
2373,69.0,0.0,240.0,5.0,0.0
2374,72.0,0.0,240.0,5.0,0.0
2375,79.0,0.0,240.0,5.0,0.0
2376,75.0,0.0,240.0,5.0,0.0
2377,57.0,105.0,240.0,5.0,0.0
2378,75.0,0.0,90.0,0.0,0.0
2379,53.0,15.0,210.0,4.0,0.0
2380,74.0,15.0,90.0,0.0,0.0
2381,77.0,0.0,120.0,5.0,0.0
2382,69.0,105.0,120.0,5.0,0.0
2383,65.0,0.0,120.0,5.0,0.0
2384,53.0,0.0,240.0,5.0,0.0
2385,72.0,0.0,120.0,5.0,0.0
2386,77.0,15.0,450.0,1.0,0.0
2387,72.0,0.0,90.0,0.0,0.0
2388,69.0,0.0,120.0,5.0,0.0
2389,65.0,0.0,120.0,5.0,0.0
2390,75.0,0.0,120.0,5.0,0.0
2391,72.0,120.0,120.0,5.0,0.0
2392,74.0,105.0,120.0,0.0,0.0
2393,58.0,0.0,480.0,4.0,0.0
2394,77.0,0.0,480.0,5.0,0.0
2395,70.0,105.0,480.0,5.0,0.0
2396,74.0,0.0,480.0,5.0,0.0
2397,58.0,0.0,480.0,5.0,0.0
2398,72.0,105.0,120.0,0.0,0.0
2399,70.0,0.0,90.0,2.0,0.0
2400,70.0,0.0,90.0,0.0,0.0
2401,62.0,120.0,90.0,3.0,0.0
2402,74.0,0.0,210.0,1.0,0.0
2403,72.0,15.0,90.0,0.0,0.0
2404,63.0,0.0,90.0,3.0,0.0
2405,69.0,0.0,90.0,2.0,0.0
2406,74.0,120.0,90.0,0.0,0.0
2407,70.0,0.0,210.0,1.0,0.0
2408,70.0,0.0,210.0,2.0,0.0
2409,65.0,0.0,210.0,3.0,0.0
2410,75.0,120.0,90.0,0.0,0.0
2411,74.0,15.0,450.0,1.0,0.0
2412,77.0,120.0,90.0,0.0,0.0
2413,56.0,0.0,210.0,3.0,0.0
2414,65.0,0.0,480.0,2.0,0.0
2415,74.0,135.0,90.0,0.0,0.0
2416,55.0,105.0,240.0,3.0,0.0
2417,71.0,105.0,120.0,0.0,0.0
2418,72.0,0.0,120.0,0.0,0.0
2419,55.0,0.0,240.0,5.0,0.0
2420,59.0,0.0,240.0,5.0,0.0
2421,65.0,105.0,240.0,5.0,0.0
2422,74.0,120.0,90.0,0.0,0.0
2423,43.0,15.0,210.0,4.0,0.0
2424,43.0,0.0,240.0,5.0,0.0
2425,77.0,0.0,450.0,1.0,0.0
2426,62.0,0.0,240.0,5.0,0.0
2427,80.0,0.0,90.0,0.0,0.0
2428,60.0,0.0,240.0,5.0,0.0
2429,67.0,105.0,240.0,5.0,0.0
2430,45.0,0.0,240.0,5.0,0.0
2431,79.0,120.0,90.0,0.0,0.0
2432,45.0,15.0,210.0,4.0,0.0
2433,57.0,0.0,240.0,5.0,0.0
2434,63.0,0.0,240.0,5.0,0.0
2435,77.0,0.0,90.0,0.0,0.0
2436,67.0,0.0,240.0,5.0,0.0
2437,65.0,0.0,240.0,5.0,0.0
2438,47.0,120.0,240.0,5.0,0.0
2439,59.0,0.0,240.0,5.0,0.0
2440,67.0,15.0,210.0,1.0,0.0
2441,75.0,120.0,90.0,0.0,0.0
2442,62.0,0.0,240.0,5.0,0.0
2443,47.0,0.0,210.0,4.0,0.0
2444,74.0,0.0,90.0,0.0,0.0
2445,75.0,105.0,120.0,0.0,0.0
2446,72.0,15.0,210.0,1.0,0.0
2447,63.0,105.0,480.0,5.0,0.0
2448,60.0,0.0,480.0,5.0,0.0
2449,48.0,0.0,480.0,4.0,0.0
2450,67.0,0.0,480.0,5.0,0.0
2451,48.0,0.0,480.0,5.0,0.0
2452,74.0,105.0,120.0,0.0,0.0
2453,72.0,120.0,90.0,0.0,0.0
2454,69.0,0.0,90.0,3.0,0.0
2455,72.0,0.0,90.0,2.0,0.0
2456,75.0,0.0,450.0,1.0,0.0
2457,70.0,0.0,90.0,2.0,0.0
2458,75.0,15.0,90.0,0.0,0.0
2459,67.0,0.0,90.0,3.0,0.0
2460,69.0,120.0,210.0,2.0,0.0
2461,66.0,0.0,210.0,3.0,0.0
2462,74.0,120.0,90.0,0.0,0.0
2463,72.0,0.0,90.0,0.0,0.0
2464,70.0,120.0,90.0,0.0,0.0
2465,66.0,0.0,210.0,1.0,0.0
2466,74.0,0.0,210.0,2.0,0.0
2467,62.0,135.0,210.0,3.0,0.0
2468,69.0,0.0,90.0,0.0,0.0
2469,70.0,0.0,240.0,2.0,0.0
2470,70.0,105.0,120.0,0.0,0.0
2471,67.0,105.0,240.0,3.0,0.0
2472,67.0,15.0,210.0,1.0,0.0
2473,72.0,0.0,120.0,0.0,0.0
2474,74.0,120.0,90.0,0.0,0.0
2475,79.0,15.0,450.0,1.0,0.0
2476,46.0,15.0,210.0,4.0,0.0
2477,58.0,0.0,240.0,5.0,0.0
2478,62.0,0.0,240.0,5.0,0.0
2479,67.0,0.0,240.0,5.0,0.0
2480,46.0,105.0,240.0,5.0,0.0
2481,67.0,0.0,90.0,0.0,0.0
2482,48.0,30.0,240.0,5.0,0.0
2483,63.0,0.0,240.0,5.0,0.0
2484,67.0,0.0,240.0,5.0,0.0
2485,60.0,0.0,240.0,5.0,0.0
2486,70.0,0.0,240.0,5.0,0.0
2487,70.0,120.0,90.0,0.0,0.0
2488,48.0,0.0,210.0,4.0,0.0
2489,69.0,0.0,90.0,0.0,0.0
2490,67.0,15.0,90.0,0.0,0.0
2491,50.0,0.0,240.0,5.0,0.0
2492,62.0,0.0,240.0,5.0,0.0
2493,69.0,30.0,30.0,1.0,0.0
2494,50.0,15.0,210.0,4.0,0.0
2495,69.0,0.0,240.0,5.0,0.0
2496,66.0,345.0,240.0,5.0,0.0
2497,70.0,30.0,30.0,1.0,0.0
2498,69.0,15.0,30.0,1.0,0.0
2499,70.0,30.0,30.0,1.0,0.0
2500,66.0,0.0,90.0,0.0,0.0
2501,69.0,30.0,30.0,1.0,0.0
2502,70.0,30.0,30.0,1.0,0.0
2503,67.0,15.0,30.0,1.0,0.0
2504,69.0,0.0,30.0,1.0,0.0
2505,67.0,0.0,690.0,1.0,0.0
2506,43.0,0.0,720.0,5.0,0.0
2507,58.0,0.0,720.0,5.0,0.0
2508,62.0,0.0,720.0,5.0,0.0
2509,55.0,465.0,720.0,5.0,0.0
2510,67.0,15.0,690.0,0.0,0.0
2511,43.0,0.0,720.0,4.0,0.0
2512,58.0,0.0,90.0,2.0,0.0
2513,55.0,120.0,90.0,3.0,0.0
2514,57.0,0.0,90.0,3.0,0.0
2515,60.0,240.0,90.0,2.0,0.0
2516,58.0,0.0,210.0,3.0,0.0
2517,62.0,0.0,210.0,2.0,0.0
2518,62.0,360.0,210.0,1.0,0.0
2519,62.0,0.0,210.0,0.0,0.0
2520,67.0,120.0,570.0,0.0,0.0
2521,67.0,0.0,570.0,1.0,0.0
2522,55.0,15.0,90.0,4.0,0.0
2523,74.0,0.0,120.0,5.0,0.0
2524,58.0,0.0,90.0,3.0,0.0
2525,67.0,105.0,120.0,5.0,0.0
2526,55.0,0.0,120.0,5.0,0.0
2527,70.0,0.0,120.0,5.0,0.0
2528,62.0,0.0,210.0,2.0,0.0
2529,57.0,105.0,120.0,5.0,0.0
2530,69.0,0.0,120.0,5.0,0.0
2531,72.0,0.0,120.0,5.0,0.0
2532,75.0,0.0,120.0,5.0,0.0
2533,60.0,15.0,90.0,3.0,0.0
2534,57.0,0.0,90.0,4.0,0.0
2535,70.0,0.0,240.0,5.0,0.0
2536,74.0,0.0,240.0,5.0,0.0
2537,58.0,0.0,240.0,5.0,0.0
2538,79.0,105.0,240.0,5.0,0.0
2539,62.0,0.0,210.0,3.0,0.0
2540,67.0,0.0,690.0,2.0,0.0
2541,58.0,15.0,210.0,4.0,0.0
2542,69.0,0.0,90.0,0.0,0.0
2543,69.0,0.0,90.0,1.0,0.0
2544,57.0,0.0,210.0,4.0,0.0
2545,60.0,0.0,210.0,3.0,0.0
2546,70.0,0.0,90.0,1.0,0.0
2547,70.0,120.0,90.0,0.0,0.0
2548,57.0,225.0,240.0,5.0,0.0
2549,69.0,0.0,240.0,5.0,0.0
2550,78.0,0.0,240.0,5.0,0.0
2551,72.0,0.0,240.0,5.0,0.0
2552,72.0,15.0,90.0,0.0,0.0
2553,72.0,0.0,90.0,1.0,0.0
2554,58.0,0.0,210.0,3.0,0.0
2555,74.0,0.0,210.0,1.0,0.0
2556,74.0,0.0,210.0,0.0,0.0
2557,74.0,0.0,240.0,5.0,0.0
2558,55.0,15.0,210.0,4.0,0.0
2559,67.0,225.0,240.0,5.0,0.0
2560,55.0,0.0,240.0,5.0,0.0
2561,70.0,0.0,240.0,5.0,0.0
2562,75.0,0.0,210.0,2.0,0.0
2563,66.0,0.0,210.0,1.0,0.0
2564,72.0,225.0,240.0,5.0,0.0
2565,60.0,0.0,210.0,3.0,0.0
2566,57.0,0.0,240.0,5.0,0.0
2567,69.0,0.0,240.0,5.0,0.0
2568,78.0,0.0,240.0,5.0,0.0
2569,66.0,15.0,210.0,0.0,0.0
2570,57.0,0.0,210.0,4.0,0.0
2571,67.0,15.0,210.0,1.0,0.0
2572,58.0,0.0,210.0,4.0,0.0
2573,67.0,0.0,210.0,0.0,0.0
2574,62.0,15.0,690.0,3.0,0.0
2575,70.0,0.0,240.0,5.0,0.0
2576,74.0,0.0,240.0,5.0,0.0
2577,58.0,0.0,240.0,5.0,0.0
2578,78.0,225.0,240.0,5.0,0.0
2579,74.0,0.0,210.0,2.0,0.0
2580,66.0,0.0,210.0,2.0,0.0
2581,72.0,0.0,210.0,0.0,0.0
2582,72.0,0.0,210.0,1.0,0.0
2583,78.0,0.0,240.0,5.0,0.0
2584,69.0,0.0,240.0,5.0,0.0
2585,57.0,15.0,210.0,4.0,0.0
2586,57.0,0.0,240.0,5.0,0.0
2587,72.0,225.0,240.0,5.0,0.0
2588,55.0,0.0,210.0,4.0,0.0
2589,67.0,225.0,240.0,5.0,0.0
2590,70.0,0.0,240.0,5.0,0.0
2591,74.0,0.0,240.0,5.0,0.0
2592,67.0,0.0,210.0,2.0,0.0
2593,70.0,0.0,210.0,1.0,0.0
2594,70.0,0.0,210.0,0.0,0.0
2595,55.0,0.0,240.0,5.0,0.0
2596,72.0,0.0,240.0,5.0,0.0
2597,57.0,0.0,240.0,5.0,0.0
2598,78.0,0.0,240.0,5.0,0.0
2599,69.0,225.0,240.0,5.0,0.0
2600,60.0,0.0,210.0,2.0,0.0
2601,75.0,0.0,210.0,0.0,0.0
2602,57.0,15.0,210.0,4.0,0.0
2603,75.0,0.0,210.0,1.0,0.0
2604,66.0,0.0,210.0,3.0,0.0
2605,58.0,225.0,240.0,5.0,0.0
2606,74.0,0.0,240.0,5.0,0.0
2607,70.0,0.0,240.0,5.0,0.0
2608,78.0,0.0,240.0,5.0,0.0
2609,67.0,0.0,210.0,3.0,0.0
2610,74.0,15.0,210.0,1.0,0.0
2611,74.0,0.0,210.0,0.0,0.0
2612,58.0,0.0,210.0,2.0,0.0
2613,58.0,0.0,210.0,4.0,0.0
2614,78.0,15.0,210.0,0.0,0.0
2615,69.0,0.0,240.0,5.0,0.0
2616,57.0,225.0,240.0,5.0,0.0
2617,78.0,0.0,240.0,5.0,0.0
2618,72.0,0.0,240.0,5.0,0.0
2619,69.0,0.0,210.0,3.0,0.0
2620,57.0,0.0,210.0,4.0,0.0
2621,72.0,0.0,210.0,2.0,0.0
2622,78.0,0.0,210.0,1.0,0.0
2623,55.0,0.0,240.0,5.0,0.0
2624,74.0,0.0,240.0,5.0,0.0
2625,55.0,0.0,210.0,4.0,0.0
2626,79.0,0.0,210.0,1.0,0.0
2627,70.0,0.0,210.0,2.0,0.0
2628,62.0,0.0,210.0,3.0,0.0
2629,79.0,15.0,210.0,0.0,0.0
2630,70.0,105.0,240.0,5.0,0.0
2631,67.0,0.0,240.0,5.0,0.0
2632,72.0,0.0,210.0,2.0,0.0
2633,57.0,0.0,210.0,4.0,0.0
2634,60.0,0.0,210.0,3.0,0.0
2635,77.0,120.0,90.0,1.0,0.0
2636,72.0,105.0,240.0,5.0,0.0
2637,77.0,0.0,90.0,0.0,0.0
2638,69.0,0.0,240.0,5.0,0.0
2639,57.0,0.0,240.0,5.0,0.0
2640,78.0,0.0,240.0,5.0,0.0
2641,75.0,0.0,90.0,0.0,0.0
2642,75.0,15.0,90.0,1.0,0.0
2643,74.0,0.0,210.0,2.0,0.0
2644,78.0,0.0,240.0,5.0,0.0
2645,58.0,0.0,210.0,3.0,0.0
2646,74.0,0.0,90.0,1.0,0.0
2647,70.0,0.0,240.0,5.0,0.0
2648,58.0,15.0,210.0,4.0,0.0
2649,74.0,0.0,240.0,5.0,0.0
2650,58.0,105.0,240.0,5.0,0.0
2651,74.0,120.0,90.0,0.0,0.0
2652,75.0,0.0,90.0,1.0,0.0
2653,75.0,0.0,90.0,0.0,0.0
2654,57.0,0.0,240.0,5.0,0.0
2655,69.0,0.0,240.0,5.0,0.0
2656,66.0,0.0,210.0,2.0,0.0
2657,72.0,0.0,240.0,5.0,0.0
2658,72.0,0.0,90.0,0.0,0.0
2659,72.0,120.0,90.0,1.0,0.0
2660,57.0,0.0,210.0,4.0,0.0
2661,78.0,105.0,240.0,5.0,0.0
2662,60.0,15.0,210.0,3.0,0.0
2663,74.0,0.0,90.0,0.0,0.0
2664,74.0,0.0,90.0,1.0,0.0
2665,70.0,0.0,90.0,0.0,0.0
2666,70.0,120.0,90.0,1.0,0.0
2667,67.0,0.0,210.0,2.0,0.0
2668,67.0,0.0,240.0,5.0,0.0
2669,62.0,0.0,210.0,3.0,0.0
2670,55.0,0.0,210.0,4.0,0.0
2671,55.0,0.0,240.0,5.0,0.0
2672,74.0,105.0,240.0,5.0,0.0
2673,70.0,0.0,240.0,5.0,0.0
2674,72.0,15.0,90.0,1.0,0.0
2675,72.0,0.0,90.0,0.0,0.0
2676,69.0,0.0,90.0,0.0,0.0
2677,60.0,0.0,210.0,3.0,0.0
2678,69.0,120.0,90.0,1.0,0.0
2679,57.0,0.0,240.0,5.0,0.0
2680,78.0,0.0,240.0,5.0,0.0
2681,72.0,105.0,240.0,5.0,0.0
2682,69.0,0.0,240.0,5.0,0.0
2683,66.0,0.0,210.0,2.0,0.0
2684,57.0,0.0,210.0,4.0,0.0
2685,70.0,0.0,90.0,0.0,0.0
2686,70.0,15.0,90.0,1.0,0.0
2687,67.0,0.0,210.0,2.0,0.0
2688,62.0,120.0,570.0,3.0,0.0
2689,58.0,15.0,210.0,4.0,0.0
2690,67.0,0.0,90.0,1.0,0.0
2691,70.0,0.0,240.0,5.0,0.0
2692,67.0,120.0,90.0,0.0,0.0
2693,74.0,0.0,240.0,5.0,0.0
2694,58.0,0.0,240.0,5.0,0.0
2695,79.0,105.0,240.0,5.0,0.0
2696,69.0,0.0,90.0,1.0,0.0
2697,69.0,0.0,90.0,0.0,0.0
2698,65.0,120.0,90.0,0.0,0.0
2699,57.0,0.0,210.0,4.0,0.0
2700,69.0,0.0,210.0,2.0,0.0
2701,78.0,0.0,240.0,5.0,0.0
2702,69.0,105.0,240.0,5.0,0.0
2703,74.0,0.0,240.0,5.0,0.0
2704,57.0,0.0,240.0,5.0,0.0
2705,65.0,0.0,90.0,1.0,0.0
2706,70.0,0.0,240.0,5.0,0.0
2707,67.0,15.0,90.0,1.0,0.0
2708,67.0,0.0,90.0,0.0,0.0
2709,63.0,0.0,210.0,0.0,0.0
2710,55.0,0.0,210.0,4.0,0.0
2711,70.0,0.0,210.0,2.0,0.0
2712,55.0,0.0,240.0,5.0,0.0
2713,67.0,0.0,240.0,5.0,0.0
2714,63.0,15.0,210.0,1.0,0.0
2715,75.0,0.0,240.0,5.0,0.0
2716,70.0,105.0,240.0,5.0,0.0
2717,74.0,0.0,240.0,5.0,0.0
2718,63.0,0.0,90.0,3.0,0.0
2719,72.0,0.0,210.0,0.0,0.0
2720,65.0,120.0,330.0,2.0,0.0
2721,57.0,0.0,210.0,4.0,0.0
2722,60.0,120.0,90.0,3.0,0.0
2723,72.0,15.0,210.0,1.0,0.0
2724,72.0,0.0,240.0,5.0,0.0
2725,69.0,105.0,240.0,5.0,0.0
2726,75.0,0.0,240.0,5.0,0.0
2727,57.0,0.0,240.0,5.0,0.0
2728,77.0,0.0,240.0,5.0,0.0
2729,62.0,0.0,90.0,3.0,0.0
2730,70.0,0.0,240.0,5.0,0.0
2731,58.0,105.0,240.0,5.0,0.0
2732,77.0,0.0,240.0,5.0,0.0
2733,58.0,0.0,210.0,4.0,0.0
2734,74.0,0.0,240.0,5.0,0.0
2735,62.0,0.0,210.0,1.0,0.0
2736,62.0,15.0,210.0,0.0,0.0
2737,58.0,0.0,210.0,3.0,0.0
2738,63.0,0.0,90.0,2.0,0.0
2739,60.0,0.0,210.0,3.0,0.0
2740,77.0,225.0,240.0,5.0,0.0
2741,65.0,15.0,210.0,0.0,0.0
2742,57.0,0.0,240.0,5.0,0.0
2743,70.0,0.0,240.0,5.0,0.0
2744,65.0,0.0,210.0,1.0,0.0
2745,57.0,0.0,210.0,4.0,0.0
2746,74.0,0.0,240.0,5.0,0.0
2747,69.0,0.0,240.0,5.0,0.0
2748,62.0,120.0,90.0,2.0,0.0
2749,60.0,0.0,90.0,2.0,0.0
2750,70.0,15.0,210.0,1.0,0.0
2751,58.0,0.0,210.0,2.0,0.0
2752,62.0,0.0,210.0,3.0,0.0
2753,70.0,0.0,240.0,5.0,0.0
2754,67.0,0.0,240.0,5.0,0.0
2755,74.0,225.0,240.0,5.0,0.0
2756,55.0,0.0,240.0,5.0,0.0
2757,70.0,0.0,210.0,0.0,0.0
2758,55.0,0.0,210.0,4.0,0.0
2759,75.0,15.0,210.0,1.0,0.0
2760,67.0,0.0,210.0,3.0,0.0
2761,70.0,30.0,240.0,5.0,0.0
2762,51.0,0.0,240.0,5.0,0.0
2763,70.0,0.0,210.0,2.0,0.0
2764,75.0,0.0,210.0,0.0,0.0
2765,51.0,0.0,210.0,4.0,0.0
2766,63.0,0.0,240.0,5.0,0.0
2767,67.0,0.0,240.0,5.0,0.0
2768,70.0,0.0,210.0,2.0,0.0
2769,74.0,0.0,240.0,5.0,0.0
2770,53.0,0.0,240.0,5.0,0.0
2771,74.0,15.0,210.0,1.0,0.0
2772,65.0,0.0,210.0,3.0,0.0
2773,65.0,105.0,240.0,5.0,0.0
2774,74.0,30.0,30.0,0.0,0.0
2775,70.0,0.0,240.0,5.0,0.0
2776,53.0,0.0,210.0,4.0,0.0
2777,75.0,30.0,30.0,0.0,0.0
2778,74.0,30.0,30.0,0.0,0.0
2779,75.0,30.0,30.0,0.0,0.0
2780,74.0,30.0,30.0,0.0,0.0
2781,75.0,30.0,30.0,0.0,0.0
2782,72.0,15.0,30.0,0.0,0.0
2783,74.0,0.0,30.0,0.0,0.0
2784,63.0,0.0,210.0,3.0,0.0
2785,41.0,15.0,210.0,4.0,0.0
2786,41.0,0.0,240.0,5.0,0.0
2787,53.0,0.0,240.0,5.0,0.0
2788,60.0,0.0,240.0,5.0,0.0
2789,72.0,120.0,90.0,0.0,0.0
2790,72.0,0.0,90.0,1.0,0.0
2791,57.0,225.0,240.0,5.0,0.0
2792,69.0,0.0,210.0,2.0,0.0
2793,70.0,0.0,90.0,1.0,0.0
2794,70.0,0.0,90.0,0.0,0.0
2795,46.0,225.0,240.0,5.0,0.0
2796,46.0,15.0,210.0,4.0,0.0
2797,70.0,15.0,690.0,1.0,0.0
2798,58.0,0.0,240.0,5.0,0.0
2799,70.0,0.0,690.0,0.0,0.0
2800,62.0,0.0,720.0,3.0,0.0
2801,62.0,0.0,240.0,5.0,0.0
2802,65.0,0.0,720.0,2.0,0.0
2803,65.0,0.0,240.0,5.0,0.0
2804,41.0,0.0,240.0,5.0,0.0
2805,53.0,0.0,240.0,5.0,0.0
2806,60.0,0.0,240.0,5.0,0.0
2807,57.0,225.0,240.0,5.0,0.0
2808,41.0,15.0,210.0,4.0,0.0
2809,34.0,225.0,240.0,4.0,0.0
2810,34.0,0.0,240.0,5.0,0.0
2811,50.0,0.0,240.0,5.0,0.0
2812,46.0,0.0,240.0,5.0,0.0
2813,53.0,0.0,240.0,5.0,0.0
2814,62.0,360.0,210.0,0.0,0.0
2815,62.0,0.0,210.0,1.0,0.0
2816,67.0,120.0,570.0,1.0,0.0
2817,67.0,0.0,570.0,0.0,0.0
2818,74.0,0.0,120.0,5.0,0.0
2819,55.0,15.0,90.0,4.0,0.0
2820,55.0,0.0,120.0,5.0,0.0
2821,67.0,0.0,120.0,5.0,0.0
2822,58.0,0.0,90.0,3.0,0.0
2823,70.0,105.0,120.0,5.0,0.0
2824,62.0,0.0,210.0,2.0,0.0
2825,60.0,0.0,90.0,3.0,0.0
2826,57.0,0.0,120.0,5.0,0.0
2827,69.0,0.0,120.0,5.0,0.0
2828,72.0,0.0,120.0,5.0,0.0
2829,75.0,105.0,120.0,5.0,0.0
2830,57.0,15.0,90.0,4.0,0.0
2831,58.0,15.0,210.0,4.0,0.0
2832,62.0,0.0,210.0,3.0,0.0
2833,67.0,0.0,690.0,2.0,0.0
2834,79.0,0.0,240.0,5.0,0.0
2835,70.0,0.0,240.0,5.0,0.0
2836,74.0,105.0,240.0,5.0,0.0
2837,58.0,0.0,240.0,5.0,0.0
2838,69.0,0.0,90.0,1.0,0.0
2839,69.0,0.0,90.0,0.0,0.0
2840,60.0,0.0,210.0,3.0,0.0
2841,70.0,0.0,90.0,1.0,0.0
2842,57.0,0.0,210.0,4.0,0.0
2843,78.0,0.0,240.0,5.0,0.0
2844,57.0,225.0,240.0,5.0,0.0
2845,69.0,0.0,240.0,5.0,0.0
2846,72.0,0.0,240.0,5.0,0.0
2847,70.0,120.0,90.0,0.0,0.0
2848,72.0,15.0,90.0,1.0,0.0
2849,72.0,0.0,90.0,0.0,0.0
2850,74.0,0.0,210.0,1.0,0.0
2851,70.0,0.0,240.0,5.0,0.0
2852,55.0,225.0,240.0,5.0,0.0
2853,74.0,0.0,240.0,5.0,0.0
2854,74.0,0.0,210.0,0.0,0.0
2855,67.0,0.0,240.0,5.0,0.0
2856,58.0,0.0,210.0,3.0,0.0
2857,55.0,15.0,210.0,4.0,0.0
2858,57.0,0.0,240.0,5.0,0.0
2859,60.0,0.0,210.0,3.0,0.0
2860,75.0,0.0,210.0,2.0,0.0
2861,69.0,0.0,240.0,5.0,0.0
2862,57.0,0.0,210.0,4.0,0.0
2863,66.0,15.0,210.0,1.0,0.0
2864,72.0,0.0,240.0,5.0,0.0
2865,66.0,0.0,210.0,0.0,0.0
2866,78.0,225.0,240.0,5.0,0.0
2867,58.0,0.0,210.0,4.0,0.0
2868,67.0,0.0,210.0,1.0,0.0
2869,74.0,0.0,240.0,5.0,0.0
2870,78.0,225.0,240.0,5.0,0.0
2871,70.0,0.0,240.0,5.0,0.0
2872,58.0,0.0,240.0,5.0,0.0
2873,62.0,15.0,690.0,3.0,0.0
2874,74.0,0.0,210.0,2.0,0.0
2875,67.0,15.0,210.0,0.0,0.0
2876,66.0,15.0,210.0,2.0,0.0
2877,69.0,0.0,240.0,5.0,0.0
2878,72.0,0.0,210.0,0.0,0.0
2879,72.0,0.0,210.0,1.0,0.0
2880,78.0,225.0,240.0,5.0,0.0
2881,72.0,0.0,240.0,5.0,0.0
2882,57.0,0.0,240.0,5.0,0.0
2883,57.0,0.0,210.0,4.0,0.0
2884,55.0,225.0,240.0,5.0,0.0
2885,70.0,0.0,240.0,5.0,0.0
2886,70.0,0.0,210.0,0.0,0.0
2887,70.0,0.0,210.0,1.0,0.0
2888,74.0,0.0,240.0,5.0,0.0
2889,67.0,0.0,240.0,5.0,0.0
2890,55.0,0.0,210.0,4.0,0.0
2891,67.0,0.0,210.0,2.0,0.0
2892,78.0,0.0,240.0,5.0,0.0
2893,75.0,0.0,210.0,1.0,0.0
2894,75.0,15.0,210.0,0.0,0.0
2895,57.0,225.0,240.0,5.0,0.0
2896,69.0,0.0,240.0,5.0,0.0
2897,57.0,0.0,210.0,4.0,0.0
2898,60.0,0.0,210.0,2.0,0.0
2899,72.0,0.0,240.0,5.0,0.0
2900,66.0,0.0,210.0,3.0,0.0
2901,67.0,0.0,210.0,3.0,0.0
2902,74.0,0.0,210.0,0.0,0.0
2903,58.0,0.0,210.0,2.0,0.0
2904,74.0,15.0,210.0,1.0,0.0
2905,58.0,0.0,210.0,4.0,0.0
2906,78.0,0.0,240.0,5.0,0.0
2907,70.0,225.0,240.0,5.0,0.0
2908,58.0,0.0,240.0,5.0,0.0
2909,74.0,0.0,240.0,5.0,0.0
2910,72.0,0.0,210.0,2.0,0.0
2911,78.0,15.0,210.0,0.0,0.0
2912,72.0,0.0,240.0,5.0,0.0
2913,69.0,0.0,240.0,5.0,0.0
2914,78.0,225.0,240.0,5.0,0.0
2915,57.0,0.0,210.0,4.0,0.0
2916,69.0,0.0,210.0,3.0,0.0
2917,57.0,0.0,240.0,5.0,0.0
2918,78.0,0.0,210.0,1.0,0.0
2919,79.0,15.0,210.0,0.0,0.0
2920,55.0,0.0,210.0,4.0,0.0
2921,62.0,0.0,210.0,3.0,0.0
2922,70.0,0.0,240.0,5.0,0.0
2923,70.0,0.0,210.0,2.0,0.0
2924,55.0,105.0,240.0,5.0,0.0
2925,67.0,0.0,240.0,5.0,0.0
2926,79.0,0.0,210.0,1.0,0.0
2927,74.0,0.0,240.0,5.0,0.0
2928,57.0,0.0,210.0,4.0,0.0
2929,72.0,0.0,210.0,2.0,0.0
2930,78.0,0.0,240.0,5.0,0.0
2931,72.0,0.0,240.0,5.0,0.0
2932,57.0,0.0,240.0,5.0,0.0
2933,60.0,15.0,210.0,3.0,0.0
2934,69.0,105.0,240.0,5.0,0.0
2935,77.0,120.0,90.0,1.0,0.0
2936,77.0,0.0,90.0,0.0,0.0
2937,75.0,0.0,90.0,1.0,0.0
2938,75.0,0.0,90.0,0.0,0.0
2939,74.0,120.0,90.0,0.0,0.0
2940,70.0,0.0,240.0,5.0,0.0
2941,58.0,15.0,210.0,4.0,0.0
2942,58.0,0.0,210.0,3.0,0.0
2943,74.0,0.0,90.0,1.0,0.0
2944,74.0,0.0,240.0,5.0,0.0
2945,58.0,0.0,240.0,5.0,0.0
2946,78.0,105.0,240.0,5.0,0.0
2947,74.0,0.0,210.0,2.0,0.0
2948,75.0,0.0,90.0,0.0,0.0
2949,75.0,0.0,90.0,1.0,0.0
2950,72.0,0.0,90.0,1.0,0.0
2951,66.0,0.0,210.0,2.0,0.0
2952,57.0,0.0,210.0,4.0,0.0
2953,57.0,0.0,240.0,5.0,0.0
2954,78.0,0.0,240.0,5.0,0.0
2955,72.0,105.0,240.0,5.0,0.0
2956,69.0,0.0,240.0,5.0,0.0
2957,60.0,0.0,210.0,3.0,0.0
2958,72.0,120.0,90.0,0.0,0.0
2959,74.0,15.0,90.0,1.0,0.0
2960,74.0,0.0,90.0,0.0,0.0
2961,62.0,0.0,210.0,3.0,0.0
2962,55.0,0.0,210.0,4.0,0.0
2963,67.0,0.0,210.0,2.0,0.0
2964,67.0,0.0,240.0,5.0,0.0
2965,74.0,0.0,240.0,5.0,0.0
2966,55.0,0.0,240.0,5.0,0.0
2967,70.0,105.0,240.0,5.0,0.0
2968,70.0,0.0,90.0,0.0,0.0
2969,70.0,120.0,90.0,1.0,0.0
2970,72.0,0.0,90.0,1.0,0.0
2971,72.0,15.0,90.0,0.0,0.0
2972,57.0,15.0,210.0,4.0,0.0
2973,60.0,0.0,210.0,3.0,0.0
2974,69.0,120.0,90.0,0.0,0.0
2975,66.0,0.0,210.0,2.0,0.0
2976,78.0,0.0,240.0,5.0,0.0
2977,69.0,0.0,240.0,5.0,0.0
2978,72.0,0.0,240.0,5.0,0.0
2979,57.0,105.0,240.0,5.0,0.0
2980,69.0,0.0,90.0,1.0,0.0
2981,70.0,0.0,90.0,0.0,0.0
2982,70.0,0.0,90.0,1.0,0.0
2983,67.0,0.0,210.0,2.0,0.0
2984,74.0,0.0,240.0,5.0,0.0
2985,67.0,0.0,90.0,0.0,0.0
2986,62.0,120.0,570.0,3.0,0.0
2987,79.0,105.0,240.0,5.0,0.0
2988,67.0,120.0,90.0,1.0,0.0
2989,58.0,0.0,240.0,5.0,0.0
2990,58.0,0.0,210.0,4.0,0.0
2991,70.0,0.0,240.0,5.0,0.0
2992,69.0,0.0,90.0,1.0,0.0
2993,69.0,15.0,90.0,0.0,0.0
2994,57.0,0.0,210.0,4.0,0.0
2995,70.0,0.0,240.0,5.0,0.0
2996,65.0,0.0,90.0,0.0,0.0
2997,69.0,15.0,210.0,2.0,0.0
2998,74.0,105.0,240.0,5.0,0.0
2999,65.0,120.0,90.0,1.0,0.0
3000,57.0,0.0,240.0,5.0,0.0
3001,69.0,0.0,240.0,5.0,0.0
3002,78.0,0.0,240.0,5.0,0.0
3003,67.0,0.0,90.0,0.0,0.0
3004,67.0,0.0,90.0,1.0,0.0
3005,55.0,0.0,240.0,5.0,0.0
3006,55.0,0.0,210.0,4.0,0.0
3007,75.0,0.0,240.0,5.0,0.0
3008,67.0,0.0,240.0,5.0,0.0
3009,70.0,0.0,240.0,5.0,0.0
3010,70.0,0.0,210.0,2.0,0.0
3011,74.0,105.0,240.0,5.0,0.0
3012,63.0,0.0,210.0,0.0,0.0
3013,63.0,15.0,210.0,1.0,0.0
3014,63.0,0.0,90.0,3.0,0.0
3015,65.0,120.0,330.0,2.0,0.0
3016,60.0,120.0,90.0,3.0,0.0
3017,72.0,0.0,210.0,1.0,0.0
3018,57.0,0.0,210.0,4.0,0.0
3019,72.0,15.0,210.0,0.0,0.0
3020,57.0,105.0,240.0,5.0,0.0
3021,75.0,0.0,240.0,5.0,0.0
3022,69.0,0.0,240.0,5.0,0.0
3023,77.0,0.0,240.0,5.0,0.0
3024,72.0,0.0,240.0,5.0,0.0
3025,62.0,0.0,90.0,3.0,0.0
3026,58.0,0.0,210.0,4.0,0.0
3027,74.0,0.0,240.0,5.0,0.0
3028,58.0,0.0,240.0,5.0,0.0
3029,62.0,0.0,210.0,0.0,0.0
3030,70.0,0.0,240.0,5.0,0.0
3031,62.0,0.0,210.0,1.0,0.0
3032,58.0,15.0,210.0,3.0,0.0
3033,77.0,105.0,240.0,5.0,0.0
3034,63.0,0.0,90.0,2.0,0.0
3035,70.0,0.0,240.0,5.0,0.0
3036,69.0,225.0,240.0,5.0,0.0
3037,74.0,0.0,240.0,5.0,0.0
3038,60.0,0.0,210.0,3.0,0.0
3039,65.0,0.0,210.0,1.0,0.0
3040,57.0,0.0,240.0,5.0,0.0
3041,77.0,0.0,240.0,5.0,0.0
3042,62.0,120.0,90.0,2.0,0.0
3043,65.0,15.0,210.0,0.0,0.0
3044,57.0,0.0,210.0,4.0,0.0
3045,60.0,0.0,90.0,2.0,0.0
3046,55.0,0.0,240.0,5.0,0.0
3047,74.0,0.0,240.0,5.0,0.0
3048,67.0,0.0,240.0,5.0,0.0
3049,62.0,15.0,210.0,3.0,0.0
3050,70.0,225.0,240.0,5.0,0.0
3051,55.0,0.0,210.0,4.0,0.0
3052,58.0,0.0,210.0,2.0,0.0
3053,70.0,0.0,210.0,1.0,0.0
3054,70.0,0.0,210.0,0.0,0.0
3055,70.0,0.0,210.0,2.0,0.0
3056,70.0,0.0,240.0,5.0,0.0
3057,51.0,0.0,240.0,5.0,0.0
3058,51.0,0.0,210.0,4.0,0.0
3059,67.0,15.0,210.0,3.0,0.0
3060,63.0,0.0,240.0,5.0,0.0
3061,75.0,0.0,210.0,0.0,0.0
3062,75.0,0.0,210.0,1.0,0.0
3063,67.0,30.0,240.0,5.0,0.0
3064,70.0,0.0,240.0,5.0,0.0
3065,74.0,0.0,240.0,5.0,0.0
3066,70.0,0.0,210.0,2.0,0.0
3067,65.0,0.0,240.0,5.0,0.0
3068,74.0,0.0,210.0,1.0,0.0
3069,53.0,0.0,240.0,5.0,0.0
3070,65.0,0.0,210.0,3.0,0.0
3071,74.0,30.0,30.0,0.0,0.0
3072,53.0,15.0,210.0,4.0,0.0
3073,75.0,30.0,30.0,0.0,0.0
3074,74.0,30.0,30.0,0.0,0.0
3075,75.0,30.0,30.0,0.0,0.0
3076,74.0,30.0,30.0,0.0,0.0
3077,75.0,30.0,30.0,0.0,0.0
3078,72.0,15.0,30.0,0.0,0.0
3079,74.0,105.0,30.0,0.0,0.0
3080,41.0,225.0,240.0,5.0,0.0
3081,57.0,0.0,240.0,5.0,0.0
3082,60.0,0.0,240.0,5.0,0.0
3083,53.0,0.0,240.0,5.0,0.0
3084,69.0,15.0,210.0,2.0,0.0
3085,41.0,0.0,210.0,4.0,0.0
3086,63.0,0.0,210.0,3.0,0.0
3087,72.0,120.0,90.0,0.0,0.0
3088,72.0,0.0,90.0,1.0,0.0
3089,70.0,0.0,90.0,0.0,0.0
3090,70.0,0.0,90.0,1.0,0.0
3091,58.0,225.0,240.0,5.0,0.0
3092,46.0,0.0,240.0,5.0,0.0
3093,65.0,0.0,240.0,5.0,0.0
3094,62.0,0.0,240.0,5.0,0.0
3095,70.0,0.0,690.0,1.0,0.0
3096,70.0,15.0,690.0,0.0,0.0
3097,65.0,0.0,720.0,2.0,0.0
3098,62.0,0.0,720.0,3.0,0.0
3099,46.0,15.0,210.0,4.0,0.0
3100,41.0,0.0,240.0,5.0,0.0
3101,41.0,15.0,210.0,4.0,0.0
3102,53.0,0.0,240.0,5.0,0.0
3103,57.0,225.0,240.0,5.0,0.0
3104,60.0,0.0,240.0,5.0,0.0
3105,50.0,0.0,240.0,5.0,0.0
3106,53.0,0.0,240.0,5.0,0.0
3107,46.0,0.0,240.0,5.0,0.0
3108,34.0,225.0,240.0,4.0,0.0
3109,34.0,0.0,240.0,5.0,0.0
3110,65.0,0.0,210.0,0.0,0.0
3111,65.0,360.0,210.0,1.0,0.0
3112,70.0,0.0,570.0,1.0,0.0
3113,70.0,120.0,570.0,0.0,0.0
3114,46.0,0.0,90.0,4.0,0.0
3115,65.0,105.0,120.0,5.0,0.0
3116,58.0,0.0,120.0,5.0,0.0
3117,62.0,15.0,90.0,3.0,0.0
3118,65.0,15.0,210.0,2.0,0.0
3119,46.0,0.0,120.0,5.0,0.0
3120,62.0,0.0,120.0,5.0,0.0
3121,63.0,0.0,90.0,3.0,0.0
3122,48.0,0.0,120.0,5.0,0.0
3123,67.0,0.0,120.0,5.0,0.0
3124,63.0,0.0,120.0,5.0,0.0
3125,60.0,105.0,120.0,5.0,0.0
3126,48.0,0.0,90.0,4.0,0.0
3127,65.0,0.0,210.0,3.0,0.0
3128,70.0,0.0,570.0,2.0,0.0
3129,62.0,0.0,240.0,5.0,0.0
3130,50.0,0.0,240.0,5.0,0.0
3131,65.0,105.0,240.0,5.0,0.0
3132,50.0,0.0,210.0,4.0,0.0
3133,70.0,0.0,240.0,5.0,0.0
3134,72.0,0.0,90.0,0.0,0.0
3135,72.0,15.0,90.0,1.0,0.0
3136,74.0,0.0,90.0,1.0,0.0
3137,63.0,0.0,210.0,3.0,0.0
3138,74.0,120.0,90.0,0.0,0.0
3139,48.0,0.0,210.0,4.0,0.0
3140,63.0,0.0,240.0,5.0,0.0
3141,48.0,105.0,240.0,5.0,0.0
3142,60.0,0.0,240.0,5.0,0.0
3143,69.0,0.0,240.0,5.0,0.0
3144,75.0,0.0,90.0,1.0,0.0
3145,75.0,15.0,90.0,0.0,0.0
3146,65.0,0.0,240.0,5.0,0.0
3147,58.0,0.0,240.0,5.0,0.0
3148,62.0,0.0,240.0,5.0,0.0
3149,46.0,105.0,240.0,5.0,0.0
3150,46.0,0.0,210.0,4.0,0.0
3151,77.0,0.0,90.0,0.0,0.0
3152,62.0,0.0,210.0,3.0,0.0
3153,77.0,120.0,90.0,1.0,0.0
3154,75.0,0.0,90.0,0.0,0.0
3155,67.0,0.0,90.0,2.0,0.0
3156,75.0,15.0,90.0,1.0,0.0
3157,65.0,0.0,90.0,2.0,0.0
3158,74.0,120.0,90.0,0.0,0.0
3159,48.0,0.0,210.0,4.0,0.0
3160,69.0,0.0,240.0,5.0,0.0
3161,63.0,0.0,210.0,3.0,0.0
3162,63.0,0.0,240.0,5.0,0.0
3163,60.0,0.0,240.0,5.0,0.0
3164,48.0,105.0,240.0,5.0,0.0
3165,74.0,0.0,90.0,1.0,0.0
3166,72.0,0.0,90.0,1.0,0.0
3167,72.0,0.0,90.0,0.0,0.0
3168,63.0,15.0,90.0,2.0,0.0
3169,62.0,0.0,90.0,2.0,0.0
3170,50.0,0.0,210.0,4.0,0.0
3171,50.0,0.0,240.0,5.0,0.0
3172,70.0,0.0,210.0,1.0,0.0
3173,65.0,120.0,90.0,3.0,0.0
3174,62.0,0.0,240.0,5.0,0.0
3175,70.0,105.0,240.0,5.0,0.0
3176,65.0,0.0,240.0,5.0,0.0
3177,70.0,0.0,210.0,0.0,0.0
3178,63.0,0.0,90.0,2.0,0.0
3179,63.0,15.0,90.0,3.0,0.0
3180,68.0,0.0,240.0,5.0,0.0
3181,63.0,225.0,240.0,5.0,0.0
3182,48.0,0.0,240.0,5.0,0.0
3183,60.0,0.0,240.0,5.0,0.0
3184,68.0,0.0,210.0,1.0,0.0
3185,68.0,15.0,210.0,0.0,0.0
3186,65.0,0.0,450.0,2.0,0.0
3187,62.0,120.0,90.0,3.0,0.0
3188,48.0,0.0,210.0,4.0,0.0
3189,60.0,0.0,90.0,3.0,0.0
3190,67.0,0.0,240.0,5.0,0.0
3191,59.0,0.0,240.0,5.0,0.0
3192,62.0,0.0,240.0,5.0,0.0
3193,67.0,15.0,210.0,1.0,0.0
3194,47.0,225.0,240.0,5.0,0.0
3195,65.0,0.0,240.0,5.0,0.0
3196,62.0,0.0,210.0,3.0,0.0
3197,47.0,0.0,210.0,4.0,0.0
3198,67.0,0.0,210.0,0.0,0.0
3199,63.0,0.0,240.0,5.0,0.0
3200,60.0,0.0,240.0,5.0,0.0
3201,48.0,225.0,240.0,5.0,0.0
3202,67.0,0.0,210.0,3.0,0.0
3203,72.0,0.0,210.0,1.0,0.0
3204,72.0,0.0,210.0,0.0,0.0
3205,63.0,0.0,210.0,2.0,0.0
3206,67.0,0.0,240.0,5.0,0.0
3207,48.0,15.0,210.0,4.0,0.0
3208,50.0,0.0,210.0,4.0,0.0
3209,62.0,0.0,210.0,2.0,0.0
3210,71.0,225.0,240.0,5.0,0.0
3211,65.0,0.0,210.0,3.0,0.0
3212,62.0,0.0,240.0,5.0,0.0
3213,65.0,0.0,240.0,5.0,0.0
3214,71.0,0.0,210.0,0.0,0.0
3215,50.0,0.0,240.0,5.0,0.0
3216,71.0,15.0,210.0,1.0,0.0
3217,77.0,0.0,210.0,0.0,0.0
3218,65.0,0.0,240.0,5.0,0.0
3219,67.0,0.0,240.0,5.0,0.0
3220,62.0,30.0,240.0,5.0,0.0
3221,59.0,0.0,240.0,5.0,0.0
3222,47.0,0.0,240.0,5.0,0.0
3223,74.0,0.0,210.0,2.0,0.0
3224,47.0,0.0,210.0,4.0,0.0
3225,67.0,15.0,450.0,3.0,0.0
3226,77.0,15.0,210.0,1.0,0.0
3227,72.0,0.0,210.0,2.0,0.0
3228,48.0,0.0,240.0,5.0,0.0
3229,60.0,0.0,240.0,5.0,0.0
3230,63.0,0.0,240.0,5.0,0.0
3231,67.0,0.0,240.0,5.0,0.0
3232,75.0,30.0,30.0,0.0,0.0
3233,75.0,0.0,210.0,1.0,0.0
3234,48.0,0.0,210.0,4.0,0.0
3235,77.0,30.0,30.0,0.0,0.0
3236,75.0,30.0,30.0,0.0,0.0
3237,77.0,30.0,30.0,0.0,0.0
3238,75.0,30.0,30.0,0.0,0.0
3239,77.0,30.0,30.0,0.0,0.0
3240,74.0,15.0,30.0,0.0,0.0
3241,75.0,105.0,30.0,0.0,0.0
3242,71.0,15.0,210.0,2.0,0.0
3243,50.0,0.0,210.0,4.0,0.0
3244,65.0,0.0,210.0,3.0,0.0
3245,74.0,120.0,90.0,1.0,0.0
3246,62.0,105.0,240.0,5.0,0.0
3247,74.0,0.0,90.0,0.0,0.0
3248,50.0,0.0,240.0,5.0,0.0
3249,71.0,0.0,240.0,5.0,0.0
3250,65.0,0.0,240.0,5.0,0.0
3251,75.0,0.0,90.0,0.0,0.0
3252,75.0,0.0,90.0,1.0,0.0
3253,67.0,0.0,90.0,3.0,0.0
3254,72.0,0.0,90.0,1.0,0.0
3255,72.0,0.0,690.0,2.0,0.0
3256,51.0,0.0,210.0,4.0,0.0
3257,71.0,0.0,240.0,5.0,0.0
3258,63.0,0.0,240.0,5.0,0.0
3259,67.0,0.0,240.0,5.0,0.0
3260,72.0,120.0,90.0,0.0,0.0
3261,51.0,105.0,240.0,5.0,0.0
3262,65.0,15.0,90.0,3.0,0.0
3263,67.0,0.0,90.0,0.0,0.0
3264,67.0,0.0,90.0,1.0,0.0
3265,72.0,0.0,90.0,1.0,0.0
3266,63.0,120.0,90.0,3.0,0.0
3267,65.0,105.0,240.0,5.0,0.0
3268,62.0,0.0,240.0,5.0,0.0
3269,71.0,0.0,240.0,5.0,0.0
3270,50.0,0.0,210.0,4.0,0.0
3271,72.0,0.0,90.0,0.0,0.0
3272,50.0,0.0,240.0,5.0,0.0
3273,74.0,0.0,90.0,1.0,0.0
3274,74.0,0.0,90.0,0.0,0.0
3275,65.0,15.0,90.0,3.0,0.0
3276,48.0,105.0,240.0,5.0,0.0
3277,63.0,0.0,240.0,5.0,0.0
3278,60.0,0.0,240.0,5.0,0.0
3279,48.0,15.0,210.0,4.0,0.0
3280,67.0,0.0,240.0,5.0,0.0
3281,75.0,120.0,90.0,1.0,0.0
3282,67.0,0.0,210.0,3.0,0.0
3283,75.0,0.0,90.0,0.0,0.0
3284,77.0,0.0,90.0,1.0,0.0
3285,77.0,0.0,90.0,0.0,0.0
3286,50.0,0.0,240.0,5.0,0.0
3287,66.0,0.0,240.0,5.0,0.0
3288,74.0,120.0,90.0,0.0,0.0
3289,66.0,0.0,210.0,2.0,0.0
3290,74.0,0.0,90.0,1.0,0.0
3291,58.0,0.0,210.0,3.0,0.0
3292,62.0,105.0,240.0,5.0,0.0
3293,50.0,0.0,210.0,4.0,0.0
3294,70.0,0.0,240.0,5.0,0.0
3295,75.0,0.0,90.0,0.0,0.0
3296,75.0,15.0,90.0,1.0,0.0
3297,72.0,0.0,240.0,5.0,0.0
3298,63.0,0.0,240.0,5.0,0.0
3299,67.0,0.0,240.0,5.0,0.0
3300,51.0,105.0,240.0,5.0,0.0
3301,67.0,120.0,570.0,2.0,0.0
3302,72.0,120.0,90.0,1.0,0.0
3303,72.0,0.0,90.0,0.0,0.0
3304,51.0,0.0,210.0,4.0,0.0
3305,55.0,0.0,210.0,3.0,0.0
3306,74.0,0.0,90.0,1.0,0.0
3307,74.0,15.0,90.0,0.0,0.0
3308,62.0,15.0,210.0,3.0,0.0
3309,70.0,0.0,90.0,0.0,0.0
3310,62.0,105.0,240.0,5.0,0.0
3311,70.0,120.0,90.0,1.0,0.0
3312,67.0,0.0,240.0,5.0,0.0
3313,50.0,0.0,240.0,5.0,0.0
3314,50.0,0.0,210.0,4.0,0.0
3315,70.0,0.0,240.0,5.0,0.0
3316,72.0,0.0,90.0,1.0,0.0
3317,72.0,0.0,90.0,0.0,0.0
3318,67.0,0.0,240.0,5.0,0.0
3319,69.0,15.0,210.0,0.0,0.0
3320,48.0,0.0,210.0,4.0,0.0
3321,63.0,0.0,240.0,5.0,0.0
3322,60.0,0.0,240.0,5.0,0.0
3323,48.0,105.0,240.0,5.0,0.0
3324,69.0,0.0,210.0,1.0,0.0
3325,63.0,0.0,210.0,3.0,0.0
3326,69.0,0.0,240.0,5.0,0.0
3327,69.0,0.0,90.0,2.0,0.0
3328,62.0,0.0,210.0,3.0,0.0
3329,78.0,0.0,210.0,1.0,0.0
3330,70.0,120.0,90.0,2.0,0.0
3331,50.0,15.0,210.0,4.0,0.0
3332,78.0,0.0,210.0,0.0,0.0
3333,69.0,0.0,240.0,5.0,0.0
3334,66.0,105.0,240.0,5.0,0.0
3335,62.0,0.0,240.0,5.0,0.0
3336,50.0,0.0,240.0,5.0,0.0
3337,72.0,0.0,90.0,2.0,0.0
3338,55.0,0.0,210.0,3.0,0.0
3339,70.0,0.0,240.0,5.0,0.0
3340,79.0,15.0,210.0,0.0,0.0
3341,51.0,105.0,240.0,5.0,0.0
3342,70.0,120.0,90.0,2.0,0.0
3343,67.0,0.0,240.0,5.0,0.0
3344,51.0,0.0,210.0,4.0,0.0
3345,63.0,0.0,240.0,5.0,0.0
3346,79.0,0.0,210.0,1.0,0.0
3347,69.0,0.0,90.0,2.0,0.0
3348,50.0,0.0,210.0,4.0,0.0
3349,67.0,105.0,240.0,5.0,0.0
3350,50.0,0.0,240.0,5.0,0.0
3351,67.0,120.0,90.0,2.0,0.0
3352,62.0,0.0,240.0,5.0,0.0
3353,70.0,0.0,450.0,0.0,0.0
3354,70.0,15.0,450.0,1.0,0.0
3355,62.0,15.0,210.0,3.0,0.0
3356,70.0,0.0,240.0,5.0,0.0
3357,65.0,0.0,90.0,2.0,0.0
3358,48.0,0.0,210.0,4.0,0.0
3359,60.0,105.0,240.0,5.0,0.0
3360,48.0,0.0,240.0,5.0,0.0
3361,70.0,0.0,240.0,5.0,0.0
3362,63.0,0.0,240.0,5.0,0.0
3363,67.0,0.0,240.0,5.0,0.0
3364,63.0,120.0,90.0,2.0,0.0
3365,67.0,0.0,210.0,3.0,0.0
3366,62.0,0.0,90.0,2.0,0.0
3367,69.0,0.0,90.0,1.0,0.0
3368,50.0,0.0,210.0,4.0,0.0
3369,66.0,0.0,210.0,3.0,0.0
3370,60.0,0.0,90.0,2.0,0.0
3371,69.0,120.0,90.0,0.0,0.0
3372,62.0,0.0,240.0,5.0,0.0
3373,69.0,0.0,240.0,5.0,0.0
3374,50.0,105.0,240.0,5.0,0.0
3375,66.0,0.0,240.0,5.0,0.0
3376,70.0,15.0,90.0,1.0,0.0
3377,70.0,0.0,90.0,0.0,0.0
3378,58.0,0.0,90.0,2.0,0.0
3379,57.0,120.0,90.0,2.0,0.0
3380,51.0,15.0,210.0,4.0,0.0
3381,67.0,0.0,210.0,3.0,0.0
3382,72.0,0.0,240.0,5.0,0.0
3383,72.0,0.0,90.0,0.0,0.0
3384,51.0,0.0,240.0,5.0,0.0
3385,63.0,105.0,240.0,5.0,0.0
3386,72.0,0.0,90.0,1.0,0.0
3387,67.0,0.0,240.0,5.0,0.0
3388,70.0,0.0,90.0,1.0,0.0
3389,70.0,0.0,90.0,0.0,0.0
3390,55.0,0.0,90.0,2.0,0.0
3391,63.0,15.0,210.0,2.0,0.0
3392,60.0,0.0,240.0,5.0,0.0
3393,63.0,0.0,240.0,5.0,0.0
3394,69.0,105.0,240.0,5.0,0.0
3395,48.0,0.0,240.0,5.0,0.0
3396,67.0,0.0,240.0,5.0,0.0
3397,60.0,0.0,210.0,3.0,0.0
3398,69.0,0.0,90.0,0.0,0.0
3399,69.0,120.0,90.0,1.0,0.0
3400,48.0,0.0,210.0,4.0,0.0
3401,67.0,0.0,90.0,0.0,0.0
3402,67.0,0.0,90.0,1.0,0.0
3403,50.0,0.0,210.0,4.0,0.0
3404,62.0,0.0,240.0,5.0,0.0
3405,66.0,105.0,240.0,5.0,0.0
3406,50.0,0.0,240.0,5.0,0.0
3407,66.0,0.0,90.0,1.0,0.0
3408,62.0,0.0,690.0,2.0,0.0
3409,69.0,0.0,240.0,5.0,0.0
3410,66.0,120.0,90.0,0.0,0.0
3411,57.0,0.0,210.0,3.0,0.0
3412,67.0,0.0,90.0,0.0,0.0
3413,67.0,15.0,90.0,1.0,0.0
3414,67.0,0.0,240.0,5.0,0.0
3415,60.0,0.0,240.0,5.0,0.0
3416,63.0,0.0,240.0,5.0,0.0
3417,48.0,105.0,240.0,5.0,0.0
3418,48.0,0.0,210.0,4.0,0.0
3419,54.0,0.0,210.0,3.0,0.0
3420,69.0,120.0,90.0,0.0,0.0
3421,69.0,0.0,90.0,1.0,0.0
3422,66.0,0.0,90.0,0.0,0.0
3423,66.0,15.0,90.0,1.0,0.0
3424,62.0,0.0,90.0,1.0,0.0
3425,67.0,0.0,240.0,5.0,0.0
3426,62.0,105.0,240.0,5.0,0.0
3427,46.0,0.0,240.0,5.0,0.0
3428,55.0,0.0,210.0,3.0,0.0
3429,58.0,0.0,240.0,5.0,0.0
3430,46.0,15.0,210.0,4.0,0.0
3431,62.0,120.0,90.0,0.0,0.0
3432,64.0,0.0,90.0,0.0,0.0
3433,64.0,0.0,90.0,1.0,0.0
3434,45.0,15.0,210.0,4.0,0.0
3435,60.0,0.0,240.0,5.0,0.0
3436,66.0,0.0,90.0,1.0,0.0
3437,57.0,0.0,210.0,3.0,0.0
3438,66.0,225.0,240.0,5.0,0.0
3439,45.0,0.0,240.0,5.0,0.0
3440,57.0,0.0,240.0,5.0,0.0
3441,60.0,0.0,210.0,2.0,0.0
3442,66.0,120.0,90.0,0.0,0.0
3443,62.0,0.0,90.0,1.0,0.0
3444,62.0,0.0,90.0,0.0,0.0
3445,67.0,0.0,570.0,1.0,0.0
3446,62.0,0.0,240.0,5.0,0.0
3447,58.0,105.0,240.0,5.0,0.0
3448,67.0,120.0,570.0,0.0,0.0
3449,43.0,0.0,210.0,4.0,0.0
3450,55.0,0.0,240.0,5.0,0.0
3451,58.0,0.0,210.0,2.0,0.0
3452,50.0,15.0,210.0,3.0,0.0
3453,43.0,0.0,240.0,5.0,0.0
3454,55.0,105.0,120.0,5.0,0.0
3455,70.0,0.0,120.0,5.0,0.0
3456,74.0,0.0,120.0,5.0,0.0
3457,67.0,0.0,120.0,5.0,0.0
3458,62.0,15.0,210.0,2.0,0.0
3459,55.0,0.0,90.0,4.0,0.0
3460,58.0,15.0,90.0,3.0,0.0
3461,60.0,0.0,90.0,3.0,0.0
3462,57.0,0.0,90.0,4.0,0.0
3463,57.0,0.0,120.0,5.0,0.0
3464,69.0,0.0,120.0,5.0,0.0
3465,72.0,105.0,120.0,5.0,0.0
3466,75.0,0.0,120.0,5.0,0.0
3467,74.0,0.0,240.0,5.0,0.0
3468,79.0,0.0,240.0,5.0,0.0
3469,70.0,105.0,240.0,5.0,0.0
3470,58.0,0.0,240.0,5.0,0.0
3471,58.0,15.0,210.0,4.0,0.0
3472,62.0,0.0,570.0,3.0,0.0
3473,67.0,120.0,570.0,2.0,0.0
3474,62.0,0.0,90.0,0.0,0.0
3475,62.0,0.0,90.0,1.0,0.0
3476,72.0,0.0,240.0,5.0,0.0
3477,57.0,0.0,240.0,5.0,0.0
3478,78.0,0.0,240.0,5.0,0.0
3479,69.0,105.0,240.0,5.0,0.0
3480,57.0,0.0,210.0,4.0,0.0
3481,60.0,0.0,90.0,0.0,0.0
3482,60.0,120.0,90.0,1.0,0.0
3483,62.0,0.0,90.0,0.0,0.0
3484,62.0,15.0,90.0,1.0,0.0
3485,67.0,105.0,240.0,5.0,0.0
3486,70.0,0.0,570.0,0.0,0.0
3487,70.0,0.0,240.0,5.0,0.0
3488,55.0,0.0,240.0,5.0,0.0
3489,70.0,120.0,570.0,1.0,0.0
3490,55.0,0.0,210.0,4.0,0.0
3491,74.0,0.0,240.0,5.0,0.0
3492,58.0,0.0,90.0,3.0,0.0
3493,62.0,15.0,90.0,2.0,0.0
3494,57.0,120.0,90.0,3.0,0.0
3495,57.0,0.0,240.0,5.0,0.0
3496,69.0,0.0,240.0,5.0,0.0
3497,60.0,0.0,90.0,2.0,0.0
3498,70.0,0.0,240.0,5.0,0.0
3499,57.0,15.0,210.0,4.0,0.0
3500,74.0,105.0,240.0,5.0,0.0
3501,62.0,0.0,90.0,2.0,0.0
3502,55.0,0.0,90.0,3.0,0.0
3503,70.0,105.0,240.0,5.0,0.0
3504,67.0,120.0,570.0,2.0,0.0
3505,79.0,0.0,240.0,5.0,0.0
3506,58.0,0.0,240.0,5.0,0.0
3507,62.0,0.0,210.0,3.0,0.0
3508,74.0,0.0,240.0,5.0,0.0
3509,58.0,0.0,210.0,4.0,0.0
3510,67.0,15.0,90.0,0.0,0.0
3511,67.0,0.0,90.0,1.0,0.0
3512,66.0,120.0,90.0,1.0,0.0
3513,69.0,0.0,240.0,5.0,0.0
3514,74.0,0.0,240.0,5.0,0.0
3515,57.0,15.0,210.0,4.0,0.0
3516,57.0,105.0,240.0,5.0,0.0
3517,66.0,0.0,90.0,0.0,0.0
3518,79.0,0.0,240.0,5.0,0.0
3519,60.0,0.0,210.0,3.0,0.0
3520,67.0,0.0,90.0,0.0,0.0
3521,67.0,0.0,90.0,1.0,0.0
3522,73.0,120.0,570.0,0.0,0.0
3523,58.0,0.0,90.0,3.0,0.0
3524,73.0,0.0,570.0,1.0,0.0
3525,70.0,105.0,240.0,5.0,0.0
3526,73.0,0.0,240.0,5.0,0.0
3527,55.0,0.0,240.0,5.0,0.0
3528,67.0,0.0,240.0,5.0,0.0
3529,76.0,0.0,240.0,5.0,0.0
3530,55.0,0.0,210.0,4.0,0.0
3531,65.0,15.0,90.0,2.0,0.0
3532,57.0,0.0,90.0,3.0,0.0
3533,64.0,120.0,90.0,2.0,0.0
3534,57.0,0.0,240.0,5.0,0.0
3535,69.0,105.0,240.0,5.0,0.0
3536,55.0,0.0,90.0,3.0,0.0
3537,73.0,0.0,240.0,5.0,0.0
3538,57.0,0.0,210.0,4.0,0.0
3539,70.0,0.0,240.0,5.0,0.0
3540,76.0,0.0,240.0,5.0,0.0
3541,53.0,0.0,90.0,3.0,0.0
3542,65.0,15.0,90.0,2.0,0.0
3543,52.0,0.0,210.0,3.0,0.0
3544,76.0,0.0,240.0,5.0,0.0
3545,70.0,0.0,240.0,5.0,0.0
3546,73.0,0.0,240.0,5.0,0.0
3547,58.0,105.0,240.0,5.0,0.0
3548,67.0,120.0,570.0,2.0,0.0
3549,58.0,0.0,210.0,4.0,0.0
3550,67.0,0.0,90.0,1.0,0.0
3551,67.0,15.0,90.0,0.0,0.0
3552,66.0,0.0,90.0,0.0,0.0
3553,70.0,105.0,240.0,5.0,0.0
3554,57.0,0.0,210.0,4.0,0.0
3555,76.0,0.0,240.0,5.0,0.0
3556,66.0,120.0,90.0,1.0,0.0
3557,57.0,0.0,240.0,5.0,0.0
3558,69.0,0.0,240.0,5.0,0.0
3559,61.0,0.0,330.0,3.0,0.0
3560,73.0,0.0,240.0,5.0,0.0
3561,67.0,15.0,90.0,0.0,0.0
3562,67.0,0.0,90.0,1.0,0.0
3563,70.0,0.0,240.0,5.0,0.0
3564,76.0,105.0,240.0,5.0,0.0
3565,55.0,0.0,210.0,4.0,0.0
3566,55.0,0.0,240.0,5.0,0.0
3567,67.0,0.0,240.0,5.0,0.0
3568,73.0,0.0,240.0,5.0,0.0
3569,76.0,120.0,570.0,1.0,0.0
3570,76.0,0.0,570.0,0.0,0.0
3571,62.0,15.0,90.0,3.0,0.0
3572,65.0,0.0,90.0,2.0,0.0
3573,57.0,0.0,240.0,5.0,0.0
3574,69.0,0.0,240.0,5.0,0.0
3575,70.0,105.0,240.0,5.0,0.0
3576,61.0,0.0,90.0,3.0,0.0
3577,57.0,15.0,210.0,4.0,0.0
3578,64.0,120.0,90.0,2.0,0.0
3579,73.0,0.0,240.0,5.0,0.0
3580,76.0,0.0,240.0,5.0,0.0
3581,65.0,0.0,90.0,2.0,0.0
3582,62.0,0.0,90.0,3.0,0.0
3583,58.0,0.0,210.0,4.0,0.0
3584,70.0,105.0,240.0,5.0,0.0
3585,58.0,0.0,240.0,5.0,0.0
3586,76.0,0.0,240.0,5.0,0.0
3587,73.0,0.0,240.0,5.0,0.0
3588,67.0,0.0,210.0,2.0,0.0
3589,61.0,15.0,210.0,3.0,0.0
3590,78.0,0.0,90.0,0.0,0.0
3591,78.0,0.0,90.0,1.0,0.0
3592,79.0,120.0,90.0,1.0,0.0
3593,70.0,0.0,210.0,2.0,0.0
3594,70.0,0.0,240.0,5.0,0.0
3595,73.0,0.0,240.0,5.0,0.0
3596,55.0,0.0,240.0,5.0,0.0
3597,76.0,0.0,240.0,5.0,0.0
3598,55.0,0.0,210.0,4.0,0.0
3599,79.0,0.0,90.0,0.0,0.0
3600,62.0,15.0,210.0,3.0,0.0
3601,67.0,105.0,240.0,5.0,0.0
3602,76.0,0.0,90.0,0.0,0.0
3603,76.0,0.0,90.0,1.0,0.0
3604,78.0,120.0,90.0,1.0,0.0
3605,72.0,0.0,240.0,5.0,0.0
3606,78.0,0.0,240.0,5.0,0.0
3607,69.0,0.0,240.0,5.0,0.0
3608,78.0,0.0,90.0,0.0,0.0
3609,60.0,0.0,210.0,3.0,0.0
3610,57.0,15.0,210.0,4.0,0.0
3611,69.0,0.0,210.0,2.0,0.0
3612,57.0,105.0,240.0,5.0,0.0
3613,74.0,0.0,90.0,1.0,0.0
3614,74.0,0.0,90.0,0.0,0.0
3615,79.0,120.0,90.0,1.0,0.0
3616,58.0,15.0,210.0,4.0,0.0
3617,62.0,0.0,210.0,3.0,0.0
3618,79.0,0.0,90.0,0.0,0.0
3619,74.0,105.0,240.0,5.0,0.0
3620,58.0,0.0,240.0,5.0,0.0
3621,67.0,120.0,330.0,2.0,0.0
3622,70.0,0.0,240.0,5.0,0.0
3623,79.0,0.0,240.0,5.0,0.0
3624,77.0,0.0,90.0,0.0,0.0
3625,77.0,0.0,90.0,1.0,0.0
3626,75.0,0.0,90.0,0.0,0.0
3627,63.0,0.0,570.0,3.0,0.0
3628,60.0,0.0,240.0,5.0,0.0
3629,75.0,0.0,90.0,1.0,0.0
3630,79.0,105.0,240.0,5.0,0.0
3631,72.0,0.0,240.0,5.0,0.0
3632,60.0,15.0,210.0,4.0,0.0
3633,75.0,0.0,240.0,5.0,0.0
3634,74.0,0.0,90.0,1.0,0.0
3635,74.0,0.0,90.0,0.0,0.0
3636,70.0,0.0,90.0,2.0,0.0
3637,79.0,0.0,240.0,5.0,0.0
3638,70.0,0.0,240.0,5.0,0.0
3639,58.0,0.0,240.0,5.0,0.0
3640,72.0,105.0,240.0,5.0,0.0
3641,75.0,0.0,240.0,5.0,0.0
3642,72.0,120.0,330.0,1.0,0.0
3643,69.0,120.0,90.0,2.0,0.0
3644,58.0,15.0,210.0,4.0,0.0
3645,72.0,0.0,330.0,0.0,0.0
3646,67.0,0.0,90.0,2.0,0.0
3647,66.0,15.0,210.0,2.0,0.0
3648,69.0,0.0,240.0,5.0,0.0
3649,78.0,0.0,240.0,5.0,0.0
3650,72.0,0.0,240.0,5.0,0.0
3651,57.0,105.0,240.0,5.0,0.0
3652,57.0,0.0,210.0,4.0,0.0
3653,62.0,0.0,90.0,3.0,0.0
3654,70.0,0.0,90.0,0.0,0.0
3655,70.0,0.0,90.0,1.0,0.0
3656,79.0,105.0,240.0,5.0,0.0
3657,70.0,0.0,240.0,5.0,0.0
3658,58.0,0.0,240.0,5.0,0.0
3659,60.0,0.0,90.0,3.0,0.0
3660,72.0,0.0,240.0,5.0,0.0
3661,75.0,0.0,240.0,5.0,0.0
3662,58.0,0.0,210.0,4.0,0.0
3663,69.0,120.0,90.0,1.0,0.0
3664,75.0,0.0,450.0,2.0,0.0
3665,69.0,0.0,90.0,0.0,0.0
3666,62.0,0.0,90.0,3.0,0.0
3667,67.0,15.0,90.0,1.0,0.0
3668,67.0,0.0,90.0,0.0,0.0
3669,69.0,0.0,90.0,0.0,0.0
3670,72.0,0.0,240.0,5.0,0.0
3671,69.0,0.0,90.0,1.0,0.0
3672,60.0,0.0,240.0,5.0,0.0
3673,60.0,0.0,210.0,4.0,0.0
3674,66.0,120.0,90.0,3.0,0.0
3675,81.0,105.0,240.0,5.0,0.0
3676,75.0,0.0,240.0,5.0,0.0
3677,70.0,15.0,90.0,0.0,0.0
3678,70.0,0.0,90.0,1.0,0.0
3679,67.0,0.0,90.0,3.0,0.0
3680,57.0,0.0,240.0,5.0,0.0
3681,74.0,0.0,450.0,2.0,0.0
3682,69.0,0.0,210.0,3.0,0.0
3683,45.0,0.0,210.0,4.0,0.0
3684,72.0,120.0,90.0,1.0,0.0
3685,66.0,225.0,240.0,5.0,0.0
3686,72.0,0.0,90.0,0.0,0.0
3687,60.0,0.0,240.0,5.0,0.0
3688,45.0,0.0,240.0,5.0,0.0
3689,66.0,0.0,90.0,1.0,0.0
3690,66.0,15.0,90.0,0.0,0.0
3691,67.0,0.0,210.0,1.0,0.0
3692,62.0,0.0,240.0,5.0,0.0
3693,58.0,105.0,240.0,5.0,0.0
3694,46.0,15.0,210.0,4.0,0.0
3695,46.0,0.0,240.0,5.0,0.0
3696,67.0,0.0,240.0,5.0,0.0
3697,67.0,0.0,210.0,0.0,0.0
3698,62.0,0.0,210.0,3.0,0.0
3699,67.0,0.0,240.0,5.0,0.0
3700,60.0,105.0,240.0,5.0,0.0
3701,69.0,0.0,240.0,5.0,0.0
3702,67.0,0.0,210.0,2.0,0.0
3703,75.0,105.0,120.0,0.0,0.0
3704,63.0,0.0,240.0,5.0,0.0
3705,63.0,15.0,210.0,3.0,0.0
3706,48.0,0.0,240.0,5.0,0.0
3707,48.0,0.0,210.0,4.0,0.0
3708,75.0,15.0,90.0,1.0,0.0
3709,74.0,0.0,90.0,0.0,0.0
3710,74.0,0.0,90.0,1.0,0.0
3711,50.0,105.0,240.0,5.0,0.0
3712,72.0,105.0,120.0,0.0,0.0
3713,69.0,0.0,240.0,5.0,0.0
3714,67.0,15.0,210.0,2.0,0.0
3715,72.0,15.0,90.0,1.0,0.0
3716,50.0,0.0,210.0,4.0,0.0
3717,62.0,0.0,210.0,3.0,0.0
3718,62.0,0.0,240.0,5.0,0.0
3719,67.0,0.0,240.0,5.0,0.0
3720,70.0,0.0,90.0,1.0,0.0
3721,70.0,0.0,90.0,0.0,0.0
3722,69.0,105.0,120.0,0.0,0.0
3723,38.0,225.0,240.0,5.0,0.0
3724,38.0,0.0,210.0,4.0,0.0
3725,50.0,0.0,240.0,5.0,0.0
3726,54.0,0.0,240.0,5.0,0.0
3727,57.0,0.0,240.0,5.0,0.0
3728,69.0,15.0,90.0,1.0,0.0
3729,66.0,0.0,210.0,2.0,0.0
3730,60.0,15.0,210.0,3.0,0.0
3731,67.0,0.0,90.0,1.0,0.0
3732,67.0,0.0,90.0,0.0,0.0
3733,58.0,225.0,240.0,5.0,0.0
3734,62.0,0.0,240.0,5.0,0.0
3735,55.0,0.0,240.0,5.0,0.0
3736,43.0,0.0,240.0,5.0,0.0
3737,43.0,15.0,210.0,4.0,0.0
3738,67.0,15.0,690.0,1.0,0.0
3739,67.0,0.0,690.0,0.0,0.0
3740,58.0,0.0,720.0,3.0,0.0
3741,62.0,225.0,720.0,2.0,0.0
3742,62.0,225.0,240.0,5.0,0.0
3743,50.0,0.0,240.0,5.0,0.0
3744,69.0,0.0,240.0,5.0,0.0
3745,65.0,0.0,240.0,5.0,0.0
3746,50.0,15.0,210.0,4.0,0.0
3747,55.0,0.0,240.0,4.0,0.0
3748,55.0,0.0,240.0,5.0,0.0
3749,70.0,0.0,240.0,5.0,0.0
3750,74.0,0.0,240.0,5.0,0.0
3751,67.0,0.0,240.0,5.0,0.0
3752,65.0,360.0,210.0,1.0,0.0
3753,65.0,0.0,210.0,0.0,0.0
3754,70.0,0.0,570.0,0.0,0.0
3755,70.0,120.0,570.0,1.0,0.0
3756,46.0,15.0,90.0,4.0,0.0
3757,62.0,0.0,90.0,3.0,0.0
3758,46.0,0.0,120.0,5.0,0.0
3759,58.0,105.0,120.0,5.0,0.0
3760,62.0,0.0,120.0,5.0,0.0
3761,65.0,0.0,120.0,5.0,0.0
3762,65.0,15.0,210.0,2.0,0.0
3763,63.0,0.0,120.0,5.0,0.0
3764,63.0,0.0,90.0,3.0,0.0
3765,60.0,105.0,120.0,5.0,0.0
3766,67.0,0.0,120.0,5.0,0.0
3767,48.0,0.0,90.0,4.0,0.0
3768,48.0,0.0,120.0,5.0,0.0
3769,62.0,0.0,240.0,5.0,0.0
3770,65.0,15.0,210.0,3.0,0.0
3771,50.0,0.0,240.0,5.0,0.0
3772,70.0,0.0,240.0,5.0,0.0
3773,65.0,105.0,240.0,5.0,0.0
3774,70.0,0.0,570.0,2.0,0.0
3775,50.0,0.0,210.0,4.0,0.0
3776,72.0,0.0,90.0,0.0,0.0
3777,72.0,0.0,90.0,1.0,0.0
3778,74.0,0.0,90.0,0.0,0.0
3779,48.0,0.0,240.0,5.0,0.0
3780,69.0,0.0,240.0,5.0,0.0
3781,63.0,0.0,240.0,5.0,0.0
3782,74.0,120.0,90.0,1.0,0.0
3783,63.0,0.0,210.0,3.0,0.0
3784,48.0,0.0,210.0,4.0,0.0
3785,60.0,105.0,240.0,5.0,0.0
3786,75.0,0.0,90.0,0.0,0.0
3787,75.0,15.0,90.0,1.0,0.0
3788,46.0,0.0,240.0,5.0,0.0
3789,65.0,0.0,240.0,5.0,0.0
3790,62.0,105.0,240.0,5.0,0.0
3791,58.0,0.0,240.0,5.0,0.0
3792,77.0,0.0,90.0,0.0,0.0
3793,46.0,0.0,210.0,4.0,0.0
3794,62.0,0.0,210.0,3.0,0.0
3795,77.0,120.0,90.0,1.0,0.0
3796,75.0,15.0,90.0,0.0,0.0
3797,67.0,0.0,90.0,2.0,0.0
3798,75.0,0.0,90.0,1.0,0.0
3799,48.0,0.0,240.0,5.0,0.0
3800,74.0,0.0,90.0,1.0,0.0
3801,63.0,105.0,240.0,5.0,0.0
3802,65.0,120.0,90.0,2.0,0.0
3803,60.0,0.0,240.0,5.0,0.0
3804,48.0,0.0,210.0,4.0,0.0
3805,69.0,0.0,240.0,5.0,0.0
3806,63.0,0.0,210.0,3.0,0.0
3807,74.0,0.0,90.0,0.0,0.0
3808,63.0,15.0,90.0,2.0,0.0
3809,72.0,0.0,90.0,0.0,0.0
3810,72.0,0.0,90.0,1.0,0.0
3811,50.0,0.0,240.0,5.0,0.0
3812,70.0,105.0,240.0,5.0,0.0
3813,50.0,0.0,210.0,4.0,0.0
3814,62.0,0.0,90.0,2.0,0.0
3815,65.0,120.0,90.0,3.0,0.0
3816,62.0,0.0,240.0,5.0,0.0
3817,65.0,0.0,240.0,5.0,0.0
3818,70.0,0.0,210.0,1.0,0.0
3819,70.0,0.0,210.0,0.0,0.0
3820,63.0,0.0,90.0,3.0,0.0
3821,63.0,15.0,90.0,2.0,0.0
3822,48.0,225.0,240.0,5.0,0.0
3823,65.0,0.0,450.0,2.0,0.0
3824,68.0,15.0,210.0,0.0,0.0
3825,48.0,0.0,210.0,4.0,0.0
3826,68.0,0.0,210.0,1.0,0.0
3827,68.0,0.0,240.0,5.0,0.0
3828,63.0,0.0,240.0,5.0,0.0
3829,60.0,0.0,240.0,5.0,0.0
3830,62.0,120.0,90.0,3.0,0.0
3831,60.0,0.0,90.0,3.0,0.0
3832,62.0,0.0,240.0,5.0,0.0
3833,47.0,0.0,240.0,5.0,0.0
3834,67.0,0.0,240.0,5.0,0.0
3835,65.0,0.0,240.0,5.0,0.0
3836,47.0,0.0,210.0,4.0,0.0
3837,67.0,0.0,210.0,1.0,0.0
3838,62.0,15.0,210.0,3.0,0.0
3839,59.0,225.0,240.0,5.0,0.0
3840,67.0,0.0,210.0,0.0,0.0
3841,72.0,0.0,210.0,0.0,0.0
3842,48.0,0.0,210.0,4.0,0.0
3843,72.0,0.0,210.0,1.0,0.0
3844,67.0,0.0,210.0,3.0,0.0
3845,63.0,15.0,210.0,2.0,0.0
3846,67.0,0.0,240.0,5.0,0.0
3847,63.0,0.0,240.0,5.0,0.0
3848,48.0,0.0,240.0,5.0,0.0
3849,60.0,225.0,240.0,5.0,0.0
3850,71.0,0.0,210.0,1.0,0.0
3851,71.0,0.0,240.0,5.0,0.0
3852,50.0,225.0,240.0,5.0,0.0
3853,50.0,15.0,210.0,4.0,0.0
3854,71.0,0.0,210.0,0.0,0.0
3855,65.0,0.0,240.0,5.0,0.0
3856,62.0,0.0,240.0,5.0,0.0
3857,65.0,0.0,210.0,3.0,0.0
3858,62.0,0.0,210.0,2.0,0.0
3859,67.0,0.0,450.0,3.0,0.0
3860,74.0,15.0,210.0,2.0,0.0
3861,77.0,0.0,210.0,1.0,0.0
3862,67.0,30.0,240.0,5.0,0.0
3863,47.0,0.0,240.0,5.0,0.0
3864,62.0,0.0,240.0,5.0,0.0
3865,59.0,0.0,240.0,5.0,0.0
3866,77.0,0.0,210.0,0.0,0.0
3867,65.0,0.0,240.0,5.0,0.0
3868,47.0,0.0,210.0,4.0,0.0
3869,48.0,15.0,210.0,4.0,0.0
3870,72.0,0.0,210.0,2.0,0.0
3871,75.0,30.0,30.0,0.0,0.0
3872,67.0,0.0,240.0,5.0,0.0
3873,60.0,0.0,240.0,5.0,0.0
3874,48.0,0.0,240.0,5.0,0.0
3875,63.0,105.0,240.0,5.0,0.0
3876,75.0,0.0,210.0,1.0,0.0
3877,77.0,30.0,30.0,0.0,0.0
3878,75.0,30.0,30.0,0.0,0.0
3879,77.0,30.0,30.0,0.0,0.0
3880,75.0,30.0,30.0,0.0,0.0
3881,77.0,30.0,30.0,0.0,0.0
3882,74.0,15.0,30.0,0.0,0.0
3883,75.0,0.0,30.0,0.0,0.0
3884,65.0,0.0,210.0,3.0,0.0
3885,50.0,15.0,210.0,4.0,0.0
3886,71.0,0.0,210.0,2.0,0.0
3887,74.0,120.0,90.0,0.0,0.0
3888,74.0,0.0,90.0,1.0,0.0
3889,50.0,0.0,240.0,5.0,0.0
3890,71.0,0.0,240.0,5.0,0.0
3891,65.0,105.0,240.0,5.0,0.0
3892,62.0,0.0,240.0,5.0,0.0
3893,75.0,0.0,90.0,1.0,0.0
3894,75.0,0.0,90.0,0.0,0.0
3895,67.0,0.0,90.0,3.0,0.0
3896,72.0,120.0,90.0,0.0,0.0
3897,72.0,0.0,90.0,1.0,0.0
3898,63.0,105.0,240.0,5.0,0.0
3899,67.0,0.0,240.0,5.0,0.0
3900,72.0,0.0,690.0,2.0,0.0
3901,51.0,15.0,210.0,4.0,0.0
3902,51.0,0.0,240.0,5.0,0.0
3903,71.0,0.0,240.0,5.0,0.0
3904,65.0,0.0,90.0,3.0,0.0
3905,67.0,0.0,90.0,0.0,0.0
3906,67.0,0.0,90.0,1.0,0.0
3907,72.0,0.0,90.0,0.0,0.0
3908,71.0,105.0,240.0,5.0,0.0
3909,63.0,120.0,90.0,3.0,0.0
3910,65.0,0.0,240.0,5.0,0.0
3911,62.0,0.0,240.0,5.0,0.0
3912,50.0,0.0,240.0,5.0,0.0
3913,72.0,0.0,90.0,1.0,0.0
3914,50.0,0.0,210.0,4.0,0.0
3915,74.0,15.0,90.0,1.0,0.0
3916,74.0,0.0,90.0,0.0,0.0
3917,65.0,0.0,90.0,3.0,0.0
3918,60.0,0.0,240.0,5.0,0.0
3919,48.0,0.0,210.0,4.0,0.0
3920,48.0,0.0,240.0,5.0,0.0
3921,67.0,0.0,240.0,5.0,0.0
3922,63.0,105.0,240.0,5.0,0.0
3923,75.0,0.0,90.0,1.0,0.0
3924,67.0,0.0,210.0,3.0,0.0
3925,75.0,120.0,90.0,0.0,0.0
3926,77.0,0.0,90.0,0.0,0.0
3927,77.0,15.0,90.0,1.0,0.0
3928,50.0,15.0,210.0,4.0,0.0
3929,66.0,0.0,210.0,2.0,0.0
3930,66.0,0.0,240.0,5.0,0.0
3931,62.0,0.0,240.0,5.0,0.0
3932,70.0,105.0,240.0,5.0,0.0
3933,74.0,0.0,90.0,0.0,0.0
3934,58.0,0.0,210.0,3.0,0.0
3935,74.0,120.0,90.0,1.0,0.0
3936,50.0,0.0,240.0,5.0,0.0
3937,75.0,0.0,90.0,0.0,0.0
3938,75.0,0.0,90.0,1.0,0.0
3939,67.0,120.0,570.0,2.0,0.0
3940,51.0,0.0,210.0,4.0,0.0
3941,63.0,0.0,240.0,5.0,0.0
3942,51.0,105.0,240.0,5.0,0.0
3943,72.0,0.0,240.0,5.0,0.0
3944,67.0,0.0,240.0,5.0,0.0
3945,72.0,0.0,90.0,0.0,0.0
3946,72.0,120.0,90.0,1.0,0.0
3947,55.0,0.0,210.0,3.0,0.0
3948,74.0,15.0,90.0,0.0,0.0
3949,74.0,0.0,90.0,1.0,0.0
3950,62.0,0.0,210.0,3.0,0.0
3951,70.0,0.0,90.0,0.0,0.0
3952,62.0,0.0,240.0,5.0,0.0
3953,50.0,0.0,240.0,5.0,0.0
3954,70.0,105.0,240.0,5.0,0.0
3955,67.0,0.0,240.0,5.0,0.0
3956,70.0,120.0,90.0,1.0,0.0
3957,50.0,0.0,210.0,4.0,0.0
3958,72.0,15.0,90.0,0.0,0.0
3959,72.0,0.0,90.0,1.0,0.0
3960,48.0,0.0,240.0,5.0,0.0
3961,63.0,0.0,240.0,5.0,0.0
3962,67.0,0.0,240.0,5.0,0.0
3963,69.0,0.0,210.0,1.0,0.0
3964,63.0,15.0,210.0,3.0,0.0
3965,48.0,0.0,210.0,4.0,0.0
3966,60.0,0.0,240.0,5.0,0.0
3967,69.0,0.0,210.0,0.0,0.0
3968,69.0,105.0,240.0,5.0,0.0
3969,69.0,0.0,90.0,2.0,0.0
3970,70.0,120.0,90.0,2.0,0.0
3971,50.0,0.0,210.0,4.0,0.0
3972,62.0,0.0,210.0,3.0,0.0
3973,78.0,15.0,210.0,1.0,0.0
3974,50.0,0.0,240.0,5.0,0.0
3975,62.0,0.0,240.0,5.0,0.0
3976,69.0,0.0,240.0,5.0,0.0
3977,78.0,0.0,210.0,0.0,0.0
3978,66.0,105.0,240.0,5.0,0.0
3979,72.0,0.0,90.0,2.0,0.0
3980,70.0,0.0,240.0,5.0,0.0
3981,79.0,0.0,210.0,0.0,0.0
3982,79.0,15.0,210.0,1.0,0.0
3983,51.0,0.0,210.0,4.0,0.0
3984,51.0,0.0,240.0,5.0,0.0
3985,70.0,120.0,90.0,2.0,0.0
3986,55.0,0.0,210.0,3.0,0.0
3987,63.0,0.0,240.0,5.0,0.0
3988,67.0,105.0,240.0,5.0,0.0
3989,69.0,0.0,90.0,2.0,0.0
3990,67.0,120.0,90.0,2.0,0.0
3991,50.0,0.0,210.0,4.0,0.0
3992,70.0,15.0,450.0,1.0,0.0
3993,67.0,0.0,240.0,5.0,0.0
3994,62.0,0.0,210.0,3.0,0.0
3995,70.0,0.0,450.0,0.0,0.0
3996,70.0,0.0,240.0,5.0,0.0
3997,62.0,0.0,240.0,5.0,0.0
3998,50.0,105.0,240.0,5.0,0.0
3999,65.0,15.0,90.0,2.0,0.0
4000,67.0,0.0,210.0,3.0,0.0
4001,63.0,0.0,240.0,5.0,0.0
4002,48.0,0.0,210.0,4.0,0.0
4003,63.0,120.0,90.0,2.0,0.0
4004,70.0,105.0,240.0,5.0,0.0
4005,60.0,0.0,240.0,5.0,0.0
4006,67.0,0.0,240.0,5.0,0.0
4007,48.0,0.0,240.0,5.0,0.0
4008,62.0,0.0,90.0,2.0,0.0
4009,69.0,0.0,90.0,1.0,0.0
4010,69.0,0.0,240.0,5.0,0.0
4011,66.0,0.0,240.0,5.0,0.0
4012,50.0,0.0,240.0,5.0,0.0
4013,60.0,0.0,90.0,2.0,0.0
4014,66.0,0.0,210.0,3.0,0.0
4015,62.0,105.0,240.0,5.0,0.0
4016,69.0,120.0,90.0,0.0,0.0
4017,50.0,0.0,210.0,4.0,0.0
4018,70.0,0.0,90.0,0.0,0.0
4019,70.0,0.0,90.0,1.0,0.0
4020,58.0,15.0,90.0,2.0,0.0
4021,57.0,120.0,90.0,2.0,0.0
4022,51.0,0.0,240.0,5.0,0.0
4023,72.0,0.0,90.0,0.0,0.0
4024,72.0,0.0,240.0,5.0,0.0
4025,67.0,0.0,210.0,3.0,0.0
4026,63.0,105.0,240.0,5.0,0.0
4027,51.0,0.0,210.0,4.0,0.0
4028,72.0,0.0,90.0,1.0,0.0
4029,67.0,0.0,240.0,5.0,0.0
4030,70.0,0.0,90.0,1.0,0.0
4031,70.0,0.0,90.0,0.0,0.0
4032,55.0,15.0,90.0,2.0,0.0
4033,69.0,120.0,90.0,1.0,0.0
4034,48.0,0.0,240.0,5.0,0.0
4035,67.0,0.0,240.0,5.0,0.0
4036,60.0,0.0,240.0,5.0,0.0
4037,63.0,105.0,240.0,5.0,0.0
4038,69.0,0.0,240.0,5.0,0.0
4039,60.0,0.0,210.0,3.0,0.0
4040,69.0,0.0,90.0,0.0,0.0
4041,48.0,15.0,210.0,4.0,0.0
4042,63.0,0.0,210.0,2.0,0.0
4043,67.0,0.0,90.0,0.0,0.0
4044,67.0,0.0,90.0,1.0,0.0
4045,50.0,0.0,240.0,5.0,0.0
4046,62.0,0.0,240.0,5.0,0.0
4047,66.0,0.0,240.0,5.0,0.0
4048,57.0,0.0,210.0,3.0,0.0
4049,69.0,105.0,240.0,5.0,0.0
4050,66.0,0.0,90.0,1.0,0.0
4051,62.0,15.0,690.0,2.0,0.0
4052,50.0,0.0,210.0,4.0,0.0
4053,66.0,120.0,90.0,0.0,0.0
4054,67.0,15.0,90.0,1.0,0.0
4055,67.0,0.0,90.0,0.0,0.0
4056,48.0,0.0,240.0,5.0,0.0
4057,69.0,0.0,90.0,0.0,0.0
4058,63.0,105.0,240.0,5.0,0.0
4059,67.0,0.0,240.0,5.0,0.0
4060,48.0,0.0,210.0,4.0,0.0
4061,60.0,0.0,240.0,5.0,0.0
4062,69.0,120.0,90.0,1.0,0.0
4063,54.0,15.0,210.0,3.0,0.0
4064,66.0,0.0,90.0,0.0,0.0
4065,66.0,0.0,90.0,1.0,0.0
4066,55.0,0.0,210.0,3.0,0.0
4067,67.0,0.0,240.0,5.0,0.0
4068,58.0,105.0,240.0,5.0,0.0
4069,62.0,0.0,90.0,1.0,0.0
4070,62.0,0.0,240.0,5.0,0.0
4071,46.0,0.0,240.0,5.0,0.0
4072,46.0,0.0,210.0,4.0,0.0
4073,62.0,120.0,90.0,0.0,0.0
4074,64.0,0.0,90.0,0.0,0.0
4075,64.0,0.0,90.0,1.0,0.0
4076,57.0,0.0,240.0,5.0,0.0
4077,66.0,0.0,90.0,1.0,0.0
4078,66.0,0.0,240.0,5.0,0.0
4079,60.0,0.0,210.0,2.0,0.0
4080,60.0,225.0,240.0,5.0,0.0
4081,45.0,0.0,210.0,4.0,0.0
4082,66.0,120.0,90.0,0.0,0.0
4083,57.0,0.0,210.0,3.0,0.0
4084,45.0,0.0,240.0,5.0,0.0
4085,62.0,0.0,90.0,0.0,0.0
4086,62.0,15.0,90.0,1.0,0.0
4087,67.0,120.0,570.0,1.0,0.0
4088,55.0,105.0,240.0,5.0,0.0
4089,62.0,0.0,240.0,5.0,0.0
4090,58.0,15.0,210.0,2.0,0.0
4091,58.0,0.0,240.0,5.0,0.0
4092,43.0,0.0,240.0,5.0,0.0
4093,67.0,0.0,570.0,0.0,0.0
4094,43.0,0.0,210.0,4.0,0.0
4095,50.0,0.0,210.0,3.0,0.0
4096,58.0,0.0,90.0,3.0,0.0
4097,67.0,105.0,120.0,5.0,0.0
4098,62.0,15.0,210.0,2.0,0.0
4099,74.0,0.0,120.0,5.0,0.0
4100,70.0,0.0,120.0,5.0,0.0
4101,55.0,15.0,90.0,4.0,0.0
4102,55.0,0.0,120.0,5.0,0.0
4103,57.0,0.0,90.0,4.0,0.0
4104,72.0,0.0,120.0,5.0,0.0
4105,57.0,0.0,120.0,5.0,0.0
4106,75.0,105.0,120.0,5.0,0.0
4107,69.0,0.0,120.0,5.0,0.0
4108,60.0,0.0,90.0,3.0,0.0
4109,79.0,0.0,240.0,5.0,0.0
4110,58.0,105.0,240.0,5.0,0.0
4111,74.0,0.0,240.0,5.0,0.0
4112,67.0,120.0,570.0,2.0,0.0
4113,70.0,0.0,240.0,5.0,0.0
4114,62.0,0.0,570.0,3.0,0.0
4115,58.0,15.0,210.0,4.0,0.0
4116,62.0,0.0,90.0,1.0,0.0
4117,62.0,0.0,90.0,0.0,0.0
4118,57.0,0.0,240.0,5.0,0.0
4119,72.0,0.0,240.0,5.0,0.0
4120,69.0,0.0,240.0,5.0,0.0
4121,78.0,105.0,240.0,5.0,0.0
4122,60.0,0.0,90.0,1.0,0.0
4123,57.0,0.0,210.0,4.0,0.0
4124,60.0,120.0,90.0,0.0,0.0
4125,62.0,15.0,90.0,1.0,0.0
4126,62.0,0.0,90.0,0.0,0.0
4127,67.0,0.0,240.0,5.0,0.0
4128,55.0,0.0,240.0,5.0,0.0
4129,70.0,120.0,570.0,1.0,0.0
4130,55.0,0.0,210.0,4.0,0.0
4131,70.0,0.0,570.0,0.0,0.0
4132,74.0,105.0,240.0,5.0,0.0
4133,70.0,0.0,240.0,5.0,0.0
4134,62.0,0.0,90.0,2.0,0.0
4135,58.0,15.0,90.0,3.0,0.0
4136,69.0,0.0,240.0,5.0,0.0
4137,70.0,105.0,240.0,5.0,0.0
4138,57.0,0.0,240.0,5.0,0.0
4139,74.0,0.0,240.0,5.0,0.0
4140,57.0,0.0,90.0,3.0,0.0
4141,60.0,120.0,90.0,2.0,0.0
4142,57.0,0.0,210.0,4.0,0.0
4143,62.0,0.0,90.0,2.0,0.0
4144,55.0,15.0,90.0,3.0,0.0
4145,58.0,0.0,240.0,5.0,0.0
4146,70.0,105.0,240.0,5.0,0.0
4147,58.0,15.0,210.0,4.0,0.0
4148,67.0,120.0,570.0,2.0,0.0
4149,74.0,0.0,240.0,5.0,0.0
4150,79.0,0.0,240.0,5.0,0.0
4151,62.0,0.0,210.0,3.0,0.0
4152,67.0,0.0,90.0,1.0,0.0
4153,67.0,0.0,90.0,0.0,0.0
4154,69.0,0.0,240.0,5.0,0.0
4155,57.0,0.0,210.0,4.0,0.0
4156,66.0,120.0,90.0,0.0,0.0
4157,57.0,0.0,240.0,5.0,0.0
4158,74.0,105.0,240.0,5.0,0.0
4159,79.0,0.0,240.0,5.0,0.0
4160,60.0,15.0,210.0,3.0,0.0
4161,66.0,0.0,90.0,1.0,0.0
4162,67.0,0.0,90.0,0.0,0.0
4163,67.0,0.0,90.0,1.0,0.0
4164,55.0,0.0,210.0,4.0,0.0
4165,73.0,120.0,570.0,1.0,0.0
4166,55.0,0.0,240.0,5.0,0.0
4167,67.0,0.0,240.0,5.0,0.0
4168,58.0,0.0,90.0,3.0,0.0
4169,76.0,0.0,240.0,5.0,0.0
4170,73.0,0.0,570.0,0.0,0.0
4171,73.0,105.0,240.0,5.0,0.0
4172,70.0,0.0,240.0,5.0,0.0
4173,65.0,15.0,90.0,2.0,0.0
4174,57.0,0.0,90.0,3.0,0.0
4175,69.0,0.0,240.0,5.0,0.0
4176,70.0,0.0,240.0,5.0,0.0
4177,57.0,105.0,240.0,5.0,0.0
4178,64.0,0.0,90.0,2.0,0.0
4179,55.0,120.0,90.0,3.0,0.0
4180,57.0,15.0,210.0,4.0,0.0
4181,76.0,0.0,240.0,5.0,0.0
4182,73.0,0.0,240.0,5.0,0.0
4183,65.0,0.0,90.0,2.0,0.0
4184,53.0,0.0,90.0,3.0,0.0
4185,58.0,105.0,240.0,5.0,0.0
4186,70.0,0.0,240.0,5.0,0.0
4187,52.0,0.0,210.0,3.0,0.0
4188,58.0,15.0,210.0,4.0,0.0
4189,76.0,0.0,240.0,5.0,0.0
4190,67.0,0.0,570.0,2.0,0.0
4191,73.0,0.0,240.0,5.0,0.0
4192,67.0,0.0,90.0,0.0,0.0
4193,67.0,0.0,90.0,1.0,0.0
4194,57.0,0.0,240.0,5.0,0.0
4195,66.0,0.0,90.0,1.0,0.0
4196,66.0,120.0,90.0,0.0,0.0
4197,61.0,120.0,330.0,3.0,0.0
4198,69.0,0.0,240.0,5.0,0.0
4199,57.0,15.0,210.0,4.0,0.0
4200,76.0,105.0,240.0,5.0,0.0
4201,73.0,0.0,240.0,5.0,0.0
4202,70.0,0.0,240.0,5.0,0.0
4203,67.0,0.0,90.0,1.0,0.0
4204,67.0,0.0,90.0,0.0,0.0
4205,76.0,105.0,240.0,5.0,0.0
4206,76.0,0.0,570.0,0.0,0.0
4207,55.0,0.0,210.0,4.0,0.0
4208,76.0,120.0,570.0,1.0,0.0
4209,70.0,0.0,240.0,5.0,0.0
4210,73.0,0.0,240.0,5.0,0.0
4211,55.0,0.0,240.0,5.0,0.0
4212,67.0,0.0,240.0,5.0,0.0
4213,62.0,15.0,90.0,3.0,0.0
4214,65.0,0.0,90.0,2.0,0.0
4215,57.0,0.0,210.0,4.0,0.0
4216,64.0,120.0,90.0,2.0,0.0
4217,76.0,0.0,240.0,5.0,0.0
4218,73.0,0.0,240.0,5.0,0.0
4219,69.0,0.0,240.0,5.0,0.0
4220,57.0,0.0,240.0,5.0,0.0
4221,70.0,105.0,240.0,5.0,0.0
4222,61.0,0.0,90.0,3.0,0.0
4223,62.0,15.0,90.0,3.0,0.0
4224,65.0,0.0,90.0,2.0,0.0
4225,61.0,15.0,210.0,3.0,0.0
4226,67.0,0.0,210.0,2.0,0.0
4227,70.0,0.0,240.0,5.0,0.0
4228,76.0,0.0,240.0,5.0,0.0
4229,73.0,0.0,240.0,5.0,0.0
4230,58.0,105.0,240.0,5.0,0.0
4231,58.0,0.0,210.0,4.0,0.0
4232,78.0,0.0,90.0,0.0,0.0
4233,78.0,0.0,90.0,1.0,0.0
4234,73.0,0.0,240.0,5.0,0.0
4235,67.0,0.0,240.0,5.0,0.0
4236,55.0,0.0,240.0,5.0,0.0
4237,70.0,0.0,240.0,5.0,0.0
4238,76.0,105.0,240.0,5.0,0.0
4239,62.0,0.0,210.0,3.0,0.0
4240,55.0,0.0,210.0,4.0,0.0
4241,70.0,0.0,210.0,2.0,0.0
4242,79.0,120.0,90.0,0.0,0.0
4243,79.0,0.0,90.0,1.0,0.0
4244,76.0,0.0,90.0,0.0,0.0
4245,76.0,15.0,90.0,1.0,0.0
4246,78.0,120.0,90.0,1.0,0.0
4247,78.0,105.0,240.0,5.0,0.0
4248,69.0,0.0,240.0,5.0,0.0
4249,57.0,0.0,240.0,5.0,0.0
4250,72.0,0.0,240.0,5.0,0.0
4251,69.0,0.0,210.0,2.0,0.0
4252,57.0,0.0,210.0,4.0,0.0
4253,60.0,0.0,210.0,3.0,0.0
4254,78.0,0.0,90.0,0.0,0.0
4255,74.0,0.0,90.0,0.0,0.0
4256,74.0,15.0,90.0,1.0,0.0
4257,58.0,0.0,210.0,4.0,0.0
4258,79.0,120.0,90.0,1.0,0.0
4259,58.0,0.0,240.0,5.0,0.0
4260,70.0,105.0,240.0,5.0,0.0
4261,74.0,0.0,240.0,5.0,0.0
4262,67.0,0.0,330.0,2.0,0.0
4263,79.0,0.0,240.0,5.0,0.0
4264,62.0,15.0,210.0,3.0,0.0
4265,79.0,0.0,90.0,0.0,0.0
4266,77.0,0.0,90.0,1.0,0.0
4267,77.0,0.0,90.0,0.0,0.0
4268,75.0,0.0,240.0,5.0,0.0
4269,79.0,0.0,240.0,5.0,0.0
4270,72.0,0.0,240.0,5.0,0.0
4271,60.0,105.0,240.0,5.0,0.0
4272,75.0,120.0,90.0,1.0,0.0
4273,60.0,15.0,210.0,4.0,0.0
4274,63.0,120.0,570.0,3.0,0.0
4275,75.0,0.0,90.0,0.0,0.0
4276,74.0,0.0,90.0,0.0,0.0
4277,70.0,0.0,90.0,2.0,0.0
4278,74.0,0.0,90.0,1.0,0.0
4279,72.0,0.0,330.0,0.0,0.0
4280,72.0,0.0,330.0,1.0,0.0
4281,75.0,105.0,240.0,5.0,0.0
4282,79.0,0.0,240.0,5.0,0.0
4283,58.0,0.0,240.0,5.0,0.0
4284,72.0,0.0,240.0,5.0,0.0
4285,70.0,0.0,240.0,5.0,0.0
4286,69.0,120.0,90.0,2.0,0.0
4287,58.0,15.0,210.0,4.0,0.0
4288,67.0,0.0,90.0,2.0,0.0
4289,69.0,0.0,240.0,5.0,0.0
4290,66.0,0.0,210.0,2.0,0.0
4291,57.0,0.0,240.0,5.0,0.0
4292,72.0,0.0,240.0,5.0,0.0
4293,57.0,0.0,210.0,4.0,0.0
4294,78.0,105.0,240.0,5.0,0.0
4295,62.0,0.0,90.0,3.0,0.0
4296,70.0,0.0,90.0,0.0,0.0
4297,70.0,15.0,90.0,1.0,0.0
4298,69.0,0.0,90.0,0.0,0.0
4299,58.0,15.0,210.0,4.0,0.0
4300,70.0,0.0,240.0,5.0,0.0
4301,75.0,0.0,240.0,5.0,0.0
4302,79.0,0.0,240.0,5.0,0.0
4303,72.0,0.0,240.0,5.0,0.0
4304,58.0,105.0,240.0,5.0,0.0
4305,75.0,0.0,450.0,2.0,0.0
4306,60.0,120.0,90.0,3.0,0.0
4307,69.0,0.0,90.0,1.0,0.0
4308,67.0,0.0,90.0,0.0,0.0
4309,67.0,0.0,90.0,1.0,0.0
4310,62.0,0.0,90.0,3.0,0.0
4311,66.0,0.0,90.0,3.0,0.0
4312,60.0,0.0,210.0,4.0,0.0
4313,69.0,0.0,90.0,0.0,0.0
4314,75.0,105.0,240.0,5.0,0.0
4315,72.0,0.0,240.0,5.0,0.0
4316,60.0,0.0,240.0,5.0,0.0
4317,81.0,0.0,240.0,5.0,0.0
4318,69.0,120.0,90.0,1.0,0.0
4319,70.0,15.0,90.0,0.0,0.0
4320,67.0,0.0,90.0,3.0,0.0
4321,70.0,0.0,90.0,1.0,0.0
4322,66.0,225.0,240.0,5.0,0.0
4323,72.0,0.0,90.0,0.0,0.0
4324,57.0,0.0,240.0,5.0,0.0
4325,60.0,0.0,240.0,5.0,0.0
4326,45.0,0.0,240.0,5.0,0.0
4327,74.0,0.0,450.0,2.0,0.0
4328,45.0,0.0,210.0,4.0,0.0
4329,72.0,120.0,90.0,1.0,0.0
4330,69.0,15.0,210.0,3.0,0.0
4331,66.0,0.0,90.0,0.0,0.0
4332,66.0,0.0,90.0,1.0,0.0
4333,46.0,0.0,240.0,5.0,0.0
4334,62.0,105.0,240.0,5.0,0.0
4335,67.0,0.0,210.0,1.0,0.0
4336,58.0,0.0,240.0,5.0,0.0
4337,62.0,0.0,210.0,3.0,0.0
4338,46.0,0.0,210.0,4.0,0.0
4339,67.0,0.0,240.0,5.0,0.0
4340,67.0,15.0,210.0,0.0,0.0
4341,75.0,15.0,90.0,1.0,0.0
4342,67.0,0.0,210.0,2.0,0.0
4343,69.0,0.0,240.0,5.0,0.0
4344,63.0,0.0,240.0,5.0,0.0
4345,48.0,15.0,210.0,4.0,0.0
4346,60.0,0.0,240.0,5.0,0.0
4347,67.0,0.0,240.0,5.0,0.0
4348,48.0,105.0,240.0,5.0,0.0
4349,63.0,0.0,210.0,3.0,0.0
4350,75.0,105.0,120.0,0.0,0.0
4351,74.0,0.0,90.0,1.0,0.0
4352,74.0,0.0,90.0,0.0,0.0
4353,62.0,0.0,210.0,3.0,0.0
4354,67.0,0.0,210.0,2.0,0.0
4355,72.0,105.0,120.0,0.0,0.0
4356,62.0,0.0,240.0,5.0,0.0
4357,67.0,0.0,240.0,5.0,0.0
4358,50.0,15.0,210.0,4.0,0.0
4359,50.0,105.0,240.0,5.0,0.0
4360,69.0,0.0,240.0,5.0,0.0
4361,72.0,15.0,90.0,1.0,0.0
4362,70.0,0.0,90.0,0.0,0.0
4363,70.0,0.0,90.0,1.0,0.0
4364,69.0,105.0,120.0,0.0,0.0
4365,54.0,0.0,240.0,5.0,0.0
4366,60.0,0.0,210.0,3.0,0.0
4367,38.0,0.0,240.0,5.0,0.0
4368,50.0,0.0,240.0,5.0,0.0
4369,66.0,0.0,210.0,2.0,0.0
4370,57.0,225.0,240.0,5.0,0.0
4371,38.0,0.0,210.0,4.0,0.0
4372,69.0,15.0,90.0,1.0,0.0
4373,67.0,0.0,90.0,0.0,0.0
4374,67.0,15.0,90.0,1.0,0.0
4375,55.0,0.0,240.0,5.0,0.0
4376,62.0,225.0,240.0,5.0,0.0
4377,58.0,961.0,720.0,3.0,0.0
4378,58.0,0.0,240.0,5.0,0.0
4379,67.0,0.0,720.0,0.0,0.0
4380,67.0,0.0,720.0,1.0,0.0
4381,43.0,0.0,240.0,5.0,0.0
4382,62.0,0.0,720.0,2.0,0.0
4383,43.0,15.0,210.0,4.0,0.0
4384,69.0,0.0,240.0,5.0,0.0
4385,50.0,0.0,240.0,5.0,0.0
4386,65.0,0.0,240.0,5.0,0.0
4387,62.0,240.0,240.0,5.0,0.0
4388,50.0,15.0,210.0,4.0,0.0
4389,74.0,0.0,240.0,5.0,0.0
4390,70.0,0.0,240.0,5.0,0.0
4391,55.0,0.0,240.0,4.0,0.0
4392,55.0,0.0,240.0,5.0,0.0
4393,67.0,0.0,240.0,5.0,0.0
