,note,step,duration,channel,velocity
0,63.0,0.0,60.0,0.0,0.0
1,63.0,0.0,60.0,1.0,0.0
2,63.0,0.0,60.0,2.0,0.0
3,51.0,0.0,60.0,3.0,0.0
4,39.0,0.0,60.0,4.0,0.0
5,51.0,42.0,60.0,6.0,0.0
6,63.0,0.0,30.0,0.0,0.0
7,63.0,0.0,30.0,1.0,0.0
8,63.0,0.0,30.0,2.0,0.0
9,51.0,0.0,30.0,3.0,0.0
10,39.0,0.0,30.0,4.0,0.0
11,51.0,54.0,30.0,6.0,0.0
12,66.0,0.0,60.0,0.0,0.0
13,66.0,0.0,60.0,1.0,0.0
14,66.0,0.0,60.0,2.0,0.0
15,54.0,0.0,60.0,3.0,0.0
16,42.0,0.0,60.0,4.0,0.0
17,54.0,42.0,60.0,6.0,0.0
18,66.0,0.0,30.0,0.0,0.0
19,66.0,0.0,30.0,1.0,0.0
20,66.0,0.0,30.0,2.0,0.0
21,54.0,0.0,30.0,3.0,0.0
22,42.0,0.0,30.0,4.0,0.0
23,54.0,54.0,30.0,6.0,0.0
24,70.0,0.0,60.0,0.0,0.0
25,70.0,0.0,60.0,1.0,0.0
26,70.0,0.0,60.0,2.0,0.0
27,58.0,0.0,60.0,3.0,0.0
28,46.0,0.0,60.0,4.0,0.0
29,58.0,42.0,60.0,6.0,0.0
30,70.0,0.0,30.0,0.0,0.0
31,70.0,0.0,30.0,1.0,0.0
32,70.0,0.0,30.0,2.0,0.0
33,58.0,0.0,30.0,3.0,0.0
34,46.0,0.0,30.0,4.0,0.0
35,58.0,54.0,30.0,6.0,0.0
36,59.0,0.0,60.0,0.0,0.0
37,59.0,0.0,60.0,1.0,0.0
38,59.0,0.0,60.0,2.0,0.0
39,47.0,0.0,60.0,3.0,0.0
40,35.0,0.0,60.0,4.0,0.0
41,47.0,42.0,60.0,6.0,0.0
42,58.0,0.0,30.0,0.0,0.0
43,58.0,0.0,30.0,1.0,0.0
44,58.0,0.0,30.0,2.0,0.0
45,46.0,0.0,30.0,3.0,0.0
46,34.0,0.0,30.0,4.0,0.0
47,46.0,54.0,30.0,6.0,0.0
48,58.0,0.0,60.0,0.0,0.0
49,58.0,0.0,60.0,1.0,0.0
50,58.0,0.0,60.0,2.0,0.0
51,46.0,0.0,60.0,3.0,0.0
52,34.0,0.0,60.0,4.0,0.0
53,46.0,42.0,60.0,6.0,0.0
54,59.0,0.0,30.0,0.0,0.0
55,59.0,0.0,30.0,1.0,0.0
56,59.0,0.0,30.0,2.0,0.0
57,47.0,0.0,30.0,3.0,0.0
58,35.0,0.0,30.0,4.0,0.0
59,47.0,150.0,30.0,6.0,0.0
60,65.0,0.0,60.0,0.0,0.0
61,65.0,0.0,60.0,1.0,0.0
62,65.0,0.0,60.0,2.0,0.0
63,53.0,0.0,60.0,3.0,0.0
64,41.0,0.0,60.0,4.0,0.0
65,53.0,42.0,60.0,6.0,0.0
66,65.0,0.0,30.0,0.0,0.0
67,65.0,0.0,30.0,1.0,0.0
68,65.0,0.0,30.0,2.0,0.0
69,53.0,0.0,30.0,3.0,0.0
70,41.0,0.0,30.0,4.0,0.0
71,53.0,54.0,30.0,6.0,0.0
72,68.0,0.0,60.0,0.0,0.0
73,68.0,0.0,60.0,1.0,0.0
74,68.0,0.0,60.0,2.0,0.0
75,56.0,0.0,60.0,3.0,0.0
76,44.0,0.0,60.0,4.0,0.0
77,56.0,42.0,60.0,6.0,0.0
78,68.0,0.0,30.0,0.0,0.0
79,68.0,0.0,30.0,1.0,0.0
80,68.0,0.0,30.0,2.0,0.0
81,56.0,0.0,30.0,3.0,0.0
82,44.0,0.0,30.0,4.0,0.0
83,56.0,54.0,30.0,6.0,0.0
84,71.0,0.0,60.0,0.0,0.0
85,71.0,0.0,60.0,1.0,0.0
86,71.0,0.0,60.0,2.0,0.0
87,59.0,0.0,60.0,3.0,0.0
88,47.0,0.0,60.0,4.0,0.0
89,59.0,42.0,60.0,6.0,0.0
90,71.0,0.0,30.0,0.0,0.0
91,71.0,0.0,30.0,1.0,0.0
92,71.0,0.0,30.0,2.0,0.0
93,59.0,0.0,30.0,3.0,0.0
94,47.0,0.0,30.0,4.0,0.0
95,59.0,54.0,30.0,6.0,0.0
96,62.0,0.0,60.0,0.0,0.0
97,62.0,0.0,60.0,1.0,0.0
98,62.0,0.0,60.0,2.0,0.0
99,50.0,0.0,60.0,3.0,0.0
100,38.0,0.0,60.0,4.0,0.0
101,50.0,42.0,60.0,6.0,0.0
102,62.0,0.0,30.0,0.0,0.0
103,62.0,0.0,30.0,1.0,0.0
104,62.0,0.0,30.0,2.0,0.0
105,50.0,0.0,30.0,3.0,0.0
106,38.0,0.0,30.0,4.0,0.0
107,50.0,54.0,30.0,6.0,0.0
108,65.0,0.0,60.0,0.0,0.0
109,65.0,0.0,60.0,1.0,0.0
110,65.0,0.0,60.0,2.0,0.0
111,53.0,0.0,60.0,3.0,0.0
112,41.0,0.0,60.0,4.0,0.0
113,53.0,42.0,60.0,6.0,0.0
114,65.0,0.0,30.0,0.0,0.0
115,65.0,0.0,30.0,1.0,0.0
116,65.0,0.0,30.0,2.0,0.0
117,53.0,0.0,30.0,3.0,0.0
118,41.0,0.0,30.0,4.0,0.0
119,53.0,54.0,30.0,6.0,0.0
120,68.0,0.0,60.0,0.0,0.0
121,68.0,0.0,60.0,1.0,0.0
122,68.0,0.0,60.0,2.0,0.0
123,56.0,0.0,60.0,3.0,0.0
124,44.0,0.0,60.0,4.0,0.0
125,56.0,42.0,60.0,6.0,0.0
126,68.0,0.0,30.0,0.0,0.0
127,68.0,0.0,30.0,1.0,0.0
128,68.0,0.0,30.0,2.0,0.0
129,56.0,0.0,30.0,3.0,0.0
130,44.0,0.0,30.0,4.0,0.0
131,56.0,54.0,30.0,6.0,0.0
132,58.0,0.0,60.0,0.0,0.0
133,58.0,0.0,60.0,1.0,0.0
134,58.0,0.0,60.0,2.0,0.0
135,46.0,0.0,60.0,3.0,0.0
136,34.0,0.0,60.0,4.0,0.0
137,46.0,42.0,60.0,6.0,0.0
138,58.0,0.0,30.0,0.0,0.0
139,58.0,0.0,30.0,1.0,0.0
140,58.0,0.0,30.0,2.0,0.0
141,46.0,0.0,30.0,3.0,0.0
142,34.0,0.0,30.0,4.0,0.0
143,46.0,54.0,30.0,6.0,0.0
144,62.0,0.0,60.0,0.0,0.0
145,62.0,0.0,60.0,1.0,0.0
146,62.0,0.0,60.0,2.0,0.0
147,50.0,0.0,60.0,3.0,0.0
148,38.0,0.0,60.0,4.0,0.0
149,50.0,42.0,60.0,6.0,0.0
150,62.0,0.0,30.0,0.0,0.0
151,62.0,0.0,30.0,1.0,0.0
152,62.0,0.0,30.0,2.0,0.0
153,50.0,0.0,30.0,3.0,0.0
154,38.0,0.0,30.0,4.0,0.0
155,50.0,54.0,30.0,6.0,0.0
156,65.0,0.0,60.0,0.0,0.0
157,65.0,0.0,60.0,1.0,0.0
158,65.0,0.0,60.0,2.0,0.0
159,53.0,0.0,60.0,3.0,0.0
160,41.0,0.0,60.0,4.0,0.0
161,53.0,42.0,60.0,6.0,0.0
162,65.0,0.0,30.0,0.0,0.0
163,65.0,0.0,30.0,1.0,0.0
164,65.0,0.0,30.0,2.0,0.0
165,53.0,0.0,30.0,3.0,0.0
166,41.0,0.0,30.0,4.0,0.0
167,53.0,54.0,30.0,6.0,0.0
168,54.0,0.0,60.0,0.0,0.0
169,54.0,0.0,60.0,1.0,0.0
170,54.0,0.0,60.0,2.0,0.0
171,42.0,0.0,60.0,3.0,0.0
172,30.0,0.0,60.0,4.0,0.0
173,42.0,48.0,60.0,6.0,0.0
174,53.0,0.0,60.0,0.0,0.0
175,53.0,0.0,60.0,1.0,0.0
176,53.0,0.0,60.0,2.0,0.0
177,41.0,0.0,60.0,3.0,0.0
178,29.0,0.0,60.0,4.0,0.0
179,41.0,42.0,60.0,6.0,0.0
180,54.0,0.0,30.0,0.0,0.0
181,54.0,0.0,30.0,1.0,0.0
182,54.0,0.0,30.0,2.0,0.0
183,42.0,0.0,30.0,3.0,0.0
184,30.0,0.0,30.0,4.0,0.0
185,42.0,18.0,30.0,6.0,0.0
186,66.0,0.0,30.0,0.0,0.0
187,66.0,0.0,30.0,1.0,0.0
188,66.0,0.0,30.0,2.0,0.0
189,54.0,0.0,30.0,3.0,0.0
190,42.0,48.0,30.0,4.0,0.0
191,54.0,30.0,15.0,6.0,0.0
192,62.0,0.0,30.0,0.0,0.0
193,62.0,0.0,30.0,1.0,0.0
194,62.0,0.0,30.0,2.0,0.0
195,50.0,0.0,30.0,3.0,0.0
196,38.0,6.0,30.0,4.0,0.0
197,50.0,42.0,60.0,6.0,0.0
198,63.0,0.0,30.0,0.0,0.0
199,63.0,0.0,30.0,1.0,0.0
200,63.0,0.0,30.0,2.0,0.0
201,51.0,0.0,30.0,3.0,0.0
202,39.0,0.0,30.0,4.0,0.0
203,51.0,54.0,30.0,6.0,0.0
204,56.0,0.0,60.0,0.0,0.0
205,56.0,0.0,60.0,1.0,0.0
206,56.0,0.0,60.0,2.0,0.0
207,44.0,0.0,60.0,3.0,0.0
208,32.0,0.0,60.0,4.0,0.0
209,44.0,48.0,60.0,6.0,0.0
210,54.0,0.0,60.0,0.0,0.0
211,54.0,0.0,60.0,1.0,0.0
212,54.0,0.0,60.0,2.0,0.0
213,42.0,0.0,60.0,3.0,0.0
214,30.0,0.0,60.0,4.0,0.0
215,42.0,42.0,60.0,6.0,0.0
216,56.0,0.0,30.0,0.0,0.0
217,56.0,0.0,30.0,1.0,0.0
218,56.0,0.0,30.0,2.0,0.0
219,44.0,0.0,30.0,3.0,0.0
220,32.0,0.0,30.0,4.0,0.0
221,44.0,18.0,30.0,6.0,0.0
222,66.0,0.0,30.0,0.0,0.0
223,66.0,0.0,30.0,1.0,0.0
224,66.0,0.0,30.0,2.0,0.0
225,54.0,0.0,30.0,3.0,0.0
226,42.0,48.0,30.0,4.0,0.0
227,54.0,30.0,15.0,6.0,0.0
228,62.0,0.0,30.0,0.0,0.0
229,62.0,0.0,30.0,1.0,0.0
230,62.0,0.0,30.0,2.0,0.0
231,50.0,0.0,30.0,3.0,0.0
232,38.0,6.0,30.0,4.0,0.0
233,50.0,42.0,60.0,6.0,0.0
234,63.0,0.0,30.0,0.0,0.0
235,63.0,0.0,30.0,1.0,0.0
236,63.0,0.0,30.0,2.0,0.0
237,51.0,0.0,30.0,3.0,0.0
238,39.0,0.0,30.0,4.0,0.0
239,51.0,54.0,30.0,6.0,0.0
240,58.0,0.0,60.0,0.0,0.0
241,58.0,0.0,60.0,1.0,0.0
242,58.0,0.0,60.0,2.0,0.0
243,46.0,0.0,60.0,3.0,0.0
244,34.0,0.0,60.0,4.0,0.0
245,46.0,48.0,60.0,6.0,0.0
246,56.0,0.0,60.0,0.0,0.0
247,56.0,0.0,60.0,1.0,0.0
248,56.0,0.0,60.0,2.0,0.0
249,44.0,0.0,60.0,3.0,0.0
250,32.0,0.0,60.0,4.0,0.0
251,44.0,42.0,60.0,6.0,0.0
252,58.0,0.0,30.0,0.0,0.0
253,58.0,0.0,30.0,1.0,0.0
254,58.0,0.0,30.0,2.0,0.0
255,46.0,0.0,30.0,3.0,0.0
256,34.0,0.0,30.0,4.0,0.0
257,46.0,18.0,30.0,6.0,0.0
258,66.0,0.0,30.0,0.0,0.0
259,66.0,0.0,30.0,1.0,0.0
260,66.0,0.0,30.0,2.0,0.0
261,54.0,0.0,30.0,3.0,0.0
262,42.0,48.0,30.0,4.0,0.0
263,54.0,30.0,15.0,6.0,0.0
264,62.0,0.0,30.0,0.0,0.0
265,62.0,0.0,30.0,1.0,0.0
266,62.0,0.0,30.0,2.0,0.0
267,50.0,0.0,30.0,3.0,0.0
268,38.0,6.0,30.0,4.0,0.0
269,50.0,42.0,60.0,6.0,0.0
270,63.0,0.0,30.0,0.0,0.0
271,63.0,0.0,30.0,1.0,0.0
272,63.0,0.0,30.0,2.0,0.0
273,51.0,0.0,30.0,3.0,0.0
274,39.0,0.0,30.0,4.0,0.0
275,51.0,90.0,30.0,6.0,0.0
276,59.0,0.0,90.0,0.0,0.0
277,59.0,0.0,90.0,1.0,0.0
278,59.0,0.0,90.0,2.0,0.0
279,47.0,0.0,90.0,3.0,0.0
280,35.0,0.0,90.0,4.0,0.0
281,47.0,102.0,90.0,6.0,0.0
282,63.0,0.0,30.0,0.0,0.0
283,63.0,0.0,30.0,1.0,0.0
284,63.0,0.0,30.0,2.0,0.0
285,51.0,0.0,30.0,3.0,0.0
286,39.0,6.0,30.0,4.0,0.0
287,51.0,42.0,60.0,6.0,0.0
288,64.0,0.0,30.0,0.0,0.0
289,64.0,0.0,30.0,1.0,0.0
290,64.0,0.0,30.0,2.0,0.0
291,52.0,0.0,30.0,3.0,0.0
292,40.0,6.0,30.0,4.0,0.0
293,52.0,42.0,60.0,6.0,0.0
294,61.0,0.0,30.0,0.0,0.0
295,61.0,0.0,30.0,1.0,0.0
296,61.0,0.0,30.0,2.0,0.0
297,49.0,0.0,30.0,3.0,0.0
298,37.0,0.0,30.0,4.0,0.0
299,49.0,54.0,30.0,6.0,0.0
300,55.0,0.0,60.0,0.0,0.0
301,55.0,0.0,60.0,1.0,0.0
302,55.0,0.0,60.0,2.0,0.0
303,43.0,0.0,60.0,3.0,0.0
304,31.0,0.0,60.0,4.0,0.0
305,43.0,42.0,60.0,6.0,0.0
306,55.0,0.0,30.0,0.0,0.0
307,55.0,0.0,30.0,1.0,0.0
308,55.0,0.0,30.0,2.0,0.0
309,43.0,0.0,30.0,3.0,0.0
310,31.0,0.0,30.0,4.0,0.0
311,43.0,54.0,30.0,6.0,0.0
312,58.0,0.0,60.0,0.0,0.0
313,58.0,0.0,60.0,1.0,0.0
314,58.0,0.0,60.0,2.0,0.0
315,46.0,0.0,60.0,3.0,0.0
316,34.0,0.0,60.0,4.0,0.0
317,46.0,42.0,60.0,6.0,0.0
318,58.0,0.0,30.0,0.0,0.0
319,58.0,0.0,30.0,1.0,0.0
320,58.0,0.0,30.0,2.0,0.0
321,46.0,0.0,30.0,3.0,0.0
322,34.0,0.0,30.0,4.0,0.0
323,46.0,54.0,30.0,6.0,0.0
324,61.0,0.0,60.0,0.0,0.0
325,61.0,0.0,60.0,1.0,0.0
326,61.0,0.0,60.0,2.0,0.0
327,49.0,0.0,60.0,3.0,0.0
328,37.0,0.0,60.0,4.0,0.0
329,49.0,42.0,60.0,6.0,0.0
330,61.0,0.0,30.0,0.0,0.0
331,61.0,0.0,30.0,1.0,0.0
332,61.0,0.0,30.0,2.0,0.0
333,49.0,0.0,30.0,3.0,0.0
334,37.0,0.0,30.0,4.0,0.0
335,49.0,90.0,30.0,6.0,0.0
336,52.0,0.0,90.0,0.0,0.0
337,52.0,0.0,90.0,1.0,0.0
338,52.0,0.0,90.0,2.0,0.0
339,40.0,0.0,90.0,3.0,0.0
340,28.0,0.0,90.0,4.0,0.0
341,40.0,102.0,90.0,6.0,0.0
342,58.0,0.0,30.0,0.0,0.0
343,58.0,0.0,30.0,1.0,0.0
344,58.0,0.0,30.0,2.0,0.0
345,46.0,0.0,30.0,3.0,0.0
346,34.0,6.0,30.0,4.0,0.0
347,46.0,42.0,60.0,6.0,0.0
348,59.0,0.0,30.0,0.0,0.0
349,59.0,0.0,30.0,1.0,0.0
350,59.0,0.0,30.0,2.0,0.0
351,47.0,0.0,30.0,3.0,0.0
352,35.0,6.0,30.0,4.0,0.0
353,47.0,42.0,60.0,6.0,0.0
354,56.0,0.0,30.0,0.0,0.0
355,56.0,0.0,30.0,1.0,0.0
356,56.0,0.0,30.0,2.0,0.0
357,44.0,0.0,30.0,3.0,0.0
358,32.0,0.0,30.0,4.0,0.0
359,44.0,48.0,30.0,6.0,0.0
360,62.0,0.0,30.0,0.0,0.0
361,62.0,0.0,30.0,1.0,0.0
362,62.0,0.0,30.0,2.0,0.0
363,50.0,0.0,30.0,3.0,0.0
364,38.0,6.0,30.0,4.0,0.0
365,50.0,42.0,60.0,6.0,0.0
366,63.0,0.0,30.0,0.0,0.0
367,63.0,0.0,30.0,1.0,0.0
368,63.0,0.0,30.0,2.0,0.0
369,51.0,0.0,30.0,3.0,0.0
370,39.0,0.0,30.0,4.0,0.0
371,51.0,90.0,30.0,6.0,0.0
372,58.0,0.0,90.0,0.0,0.0
373,58.0,0.0,90.0,1.0,0.0
374,58.0,0.0,90.0,2.0,0.0
375,46.0,0.0,90.0,3.0,0.0
376,34.0,0.0,90.0,4.0,0.0
377,46.0,96.0,90.0,6.0,0.0
378,58.0,0.0,90.0,0.0,0.0
379,58.0,0.0,90.0,1.0,0.0
380,46.0,0.0,90.0,2.0,0.0
381,34.0,0.0,90.0,3.0,0.0
382,22.0,0.0,90.0,4.0,0.0
383,34.0,96.0,90.0,6.0,0.0
384,51.0,0.0,90.0,0.0,0.0
385,51.0,0.0,90.0,1.0,0.0
386,51.0,0.0,90.0,2.0,0.0
387,39.0,0.0,90.0,3.0,0.0
388,27.0,0.0,90.0,4.0,0.0
389,70.0,0.0,90.0,5.0,0.0
390,39.0,60.0,90.0,6.0,0.0
391,68.0,48.0,60.0,5.0,0.0
392,66.0,24.0,60.0,5.0,0.0
393,65.0,24.0,20.0,5.0,0.0
394,63.0,42.0,20.0,5.0,0.0
395,62.0,54.0,30.0,5.0,0.0
396,70.0,0.0,90.0,0.0,0.0
397,66.0,0.0,90.0,1.0,0.0
398,63.0,6.0,90.0,2.0,0.0
399,51.0,0.0,60.0,3.0,0.0
400,39.0,0.0,60.0,4.0,0.0
401,63.0,0.0,60.0,5.0,0.0
402,51.0,36.0,60.0,6.0,0.0
403,51.0,0.0,30.0,3.0,0.0
404,39.0,0.0,30.0,4.0,0.0
405,62.0,0.0,30.0,5.0,0.0
406,51.0,54.0,30.0,6.0,0.0
407,66.0,0.0,90.0,0.0,0.0
408,63.0,0.0,90.0,1.0,0.0
409,58.0,6.0,90.0,2.0,0.0
410,54.0,0.0,60.0,3.0,0.0
411,42.0,0.0,60.0,4.0,0.0
412,62.0,0.0,60.0,5.0,0.0
413,54.0,36.0,60.0,6.0,0.0
414,54.0,0.0,30.0,3.0,0.0
415,42.0,0.0,30.0,4.0,0.0
416,63.0,0.0,30.0,5.0,0.0
417,54.0,54.0,30.0,6.0,0.0
418,62.0,6.0,90.0,0.0,0.0
419,58.0,0.0,60.0,1.0,0.0
420,54.0,0.0,60.0,2.0,0.0
421,58.0,0.0,60.0,3.0,0.0
422,46.0,0.0,60.0,4.0,0.0
423,58.0,36.0,60.0,6.0,0.0
424,56.0,0.0,30.0,1.0,0.0
425,53.0,0.0,30.0,2.0,0.0
426,58.0,0.0,30.0,3.0,0.0
427,46.0,0.0,30.0,4.0,0.0
428,58.0,54.0,30.0,6.0,0.0
429,63.0,0.0,60.0,0.0,0.0
430,54.0,0.0,90.0,1.0,0.0
431,51.0,0.0,90.0,2.0,0.0
432,47.0,0.0,60.0,3.0,0.0
433,35.0,0.0,60.0,4.0,0.0
434,75.0,6.0,90.0,5.0,0.0
435,47.0,36.0,60.0,6.0,0.0
436,62.0,0.0,30.0,0.0,0.0
437,46.0,0.0,30.0,3.0,0.0
438,34.0,0.0,30.0,4.0,0.0
439,46.0,54.0,30.0,6.0,0.0
440,62.0,0.0,60.0,0.0,0.0
441,46.0,0.0,60.0,3.0,0.0
442,34.0,0.0,60.0,4.0,0.0
443,73.0,0.0,60.0,5.0,0.0
444,46.0,42.0,60.0,6.0,0.0
445,63.0,0.0,30.0,0.0,0.0
446,47.0,0.0,30.0,3.0,0.0
447,35.0,0.0,30.0,4.0,0.0
448,71.0,24.0,60.0,5.0,0.0
449,47.0,6.0,30.0,6.0,0.0
450,70.0,24.0,20.0,5.0,0.0
451,68.0,42.0,20.0,5.0,0.0
452,67.0,54.0,30.0,5.0,0.0
453,68.0,0.0,90.0,0.0,0.0
454,62.0,0.0,90.0,1.0,0.0
455,56.0,6.0,90.0,2.0,0.0
456,53.0,0.0,60.0,3.0,0.0
457,41.0,0.0,60.0,4.0,0.0
458,68.0,0.0,60.0,5.0,0.0
459,53.0,36.0,60.0,6.0,0.0
460,53.0,0.0,30.0,3.0,0.0
461,41.0,0.0,30.0,4.0,0.0
462,67.0,0.0,30.0,5.0,0.0
463,53.0,54.0,30.0,6.0,0.0
464,65.0,0.0,90.0,0.0,0.0
465,62.0,0.0,60.0,1.0,0.0
466,59.0,6.0,90.0,2.0,0.0
467,56.0,0.0,60.0,3.0,0.0
468,44.0,0.0,60.0,4.0,0.0
469,67.0,0.0,60.0,5.0,0.0
470,56.0,36.0,60.0,6.0,0.0
471,65.0,0.0,30.0,1.0,0.0
472,56.0,0.0,30.0,3.0,0.0
473,44.0,0.0,30.0,4.0,0.0
474,68.0,18.0,210.0,5.0,0.0
475,56.0,54.0,30.0,6.0,0.0
476,62.0,0.0,90.0,0.0,0.0
477,56.0,0.0,60.0,1.0,0.0
478,53.0,6.0,90.0,2.0,0.0
479,59.0,0.0,60.0,3.0,0.0
480,47.0,0.0,60.0,4.0,0.0
481,59.0,36.0,60.0,6.0,0.0
482,59.0,0.0,30.0,1.0,0.0
483,59.0,0.0,30.0,3.0,0.0
484,47.0,0.0,30.0,4.0,0.0
485,59.0,54.0,30.0,6.0,0.0
486,58.0,0.0,60.0,0.0,0.0
487,53.0,0.0,90.0,1.0,0.0
488,58.0,6.0,90.0,2.0,0.0
489,50.0,0.0,60.0,3.0,0.0
490,38.0,0.0,60.0,4.0,0.0
491,50.0,18.0,60.0,6.0,0.0
492,56.0,0.0,30.0,0.0,0.0
493,50.0,0.0,30.0,3.0,0.0
494,38.0,0.0,30.0,4.0,0.0
495,50.0,54.0,30.0,6.0,0.0
496,58.0,6.0,90.0,0.0,0.0
497,53.0,0.0,60.0,3.0,0.0
498,41.0,0.0,60.0,4.0,0.0
499,66.0,0.0,60.0,5.0,0.0
500,53.0,36.0,60.0,6.0,0.0
501,53.0,0.0,30.0,3.0,0.0
502,41.0,0.0,30.0,4.0,0.0
503,65.0,48.0,60.0,5.0,0.0
504,53.0,6.0,30.0,6.0,0.0
505,56.0,0.0,60.0,3.0,0.0
506,44.0,0.0,60.0,4.0,0.0
507,63.0,0.0,60.0,5.0,0.0
508,56.0,10.0,60.0,6.0,0.0
509,56.0,0.0,30.0,3.0,0.0
510,44.0,0.0,30.0,4.0,0.0
511,62.0,12.0,15.0,5.0,0.0
512,56.0,4.0,30.0,6.0,0.0
513,65.0,12.0,15.0,5.0,0.0
514,68.0,8.0,15.0,5.0,0.0
515,71.0,50.0,15.0,5.0,0.0
516,65.0,0.0,60.0,0.0,0.0
517,62.0,0.0,90.0,1.0,0.0
518,56.0,0.0,90.0,2.0,0.0
519,46.0,0.0,60.0,3.0,0.0
520,34.0,0.0,60.0,4.0,0.0
521,71.0,6.0,90.0,5.0,0.0
522,46.0,36.0,60.0,6.0,0.0
523,63.0,0.0,30.0,0.0,0.0
524,46.0,0.0,30.0,3.0,0.0
525,34.0,0.0,30.0,4.0,0.0
526,46.0,9.0,30.0,6.0,0.0
527,65.0,6.0,90.0,0.0,0.0
528,50.0,0.0,60.0,3.0,0.0
529,38.0,0.0,60.0,4.0,0.0
530,70.0,3.0,15.0,5.0,0.0
531,50.0,36.0,60.0,6.0,0.0
532,71.0,3.0,15.0,5.0,0.0
533,70.0,3.0,15.0,5.0,0.0
534,71.0,3.0,15.0,5.0,0.0
535,70.0,3.0,15.0,5.0,0.0
536,71.0,3.0,15.0,5.0,0.0
537,70.0,3.0,15.0,5.0,0.0
538,71.0,3.0,15.0,5.0,0.0
539,70.0,3.0,15.0,5.0,0.0
540,71.0,3.0,15.0,5.0,0.0
541,70.0,3.0,15.0,5.0,0.0
542,71.0,10.0,15.0,5.0,0.0
543,70.0,2.0,15.0,5.0,0.0
544,50.0,0.0,30.0,3.0,0.0
545,38.0,0.0,30.0,4.0,0.0
546,68.0,25.0,120.0,5.0,0.0
547,50.0,54.0,30.0,6.0,0.0
548,53.0,0.0,60.0,3.0,0.0
549,41.0,0.0,60.0,4.0,0.0
550,53.0,9.0,60.0,6.0,0.0
551,53.0,0.0,30.0,3.0,0.0
552,41.0,0.0,30.0,4.0,0.0
553,53.0,4.0,30.0,6.0,0.0
554,66.0,8.0,15.0,5.0,0.0
555,65.0,50.0,15.0,5.0,0.0
556,63.0,0.0,90.0,0.0,0.0
557,58.0,0.0,90.0,1.0,0.0
558,54.0,0.0,90.0,2.0,0.0
559,42.0,0.0,60.0,3.0,0.0
560,30.0,0.0,60.0,4.0,0.0
561,63.0,12.0,60.0,5.0,0.0
562,42.0,24.0,60.0,6.0,0.0
563,41.0,0.0,60.0,3.0,0.0
564,29.0,0.0,60.0,4.0,0.0
565,41.0,42.0,60.0,6.0,0.0
566,65.0,10.0,15.0,5.0,0.0
567,62.0,2.0,15.0,5.0,0.0
568,66.0,0.0,90.0,0.0,0.0
569,63.0,0.0,90.0,1.0,0.0
570,58.0,0.0,90.0,2.0,0.0
571,42.0,0.0,30.0,3.0,0.0
572,30.0,0.0,30.0,4.0,0.0
573,63.0,6.0,90.0,5.0,0.0
574,42.0,18.0,30.0,6.0,0.0
575,54.0,0.0,30.0,3.0,0.0
576,42.0,48.0,30.0,4.0,0.0
577,54.0,24.0,15.0,6.0,0.0
578,70.0,0.0,90.0,0.0,0.0
579,66.0,0.0,90.0,1.0,0.0
580,63.0,6.0,90.0,2.0,0.0
581,50.0,0.0,30.0,3.0,0.0
582,38.0,6.0,30.0,4.0,0.0
583,50.0,36.0,60.0,6.0,0.0
584,51.0,0.0,30.0,3.0,0.0
585,39.0,0.0,30.0,4.0,0.0
586,51.0,30.0,30.0,6.0,0.0
587,71.0,9.0,90.0,0.0,0.0
588,65.0,0.0,360.0,1.0,0.0
589,63.0,6.0,270.0,2.0,0.0
590,44.0,0.0,60.0,3.0,0.0
591,32.0,0.0,60.0,4.0,0.0
592,71.0,21.0,20.0,5.0,0.0
593,44.0,24.0,60.0,6.0,0.0
594,70.0,3.0,20.0,5.0,0.0
595,42.0,0.0,60.0,3.0,0.0
596,30.0,0.0,60.0,4.0,0.0
597,73.0,12.0,20.0,5.0,0.0
598,42.0,42.0,60.0,6.0,0.0
599,71.0,3.0,20.0,5.0,0.0
600,75.0,0.0,90.0,0.0,0.0
601,44.0,0.0,30.0,3.0,0.0
602,32.0,0.0,30.0,4.0,0.0
603,71.0,6.0,90.0,5.0,0.0
604,44.0,18.0,30.0,6.0,0.0
605,54.0,0.0,30.0,3.0,0.0
606,42.0,48.0,30.0,4.0,0.0
607,54.0,24.0,15.0,6.0,0.0
608,71.0,0.0,90.0,0.0,0.0
609,50.0,0.0,30.0,3.0,0.0
610,38.0,6.0,30.0,4.0,0.0
611,50.0,36.0,60.0,6.0,0.0
612,51.0,0.0,30.0,3.0,0.0
613,39.0,0.0,30.0,4.0,0.0
614,51.0,48.0,30.0,6.0,0.0
615,68.0,0.0,90.0,0.0,0.0
616,62.0,0.0,90.0,2.0,0.0
617,46.0,0.0,60.0,3.0,0.0
618,34.0,0.0,60.0,4.0,0.0
619,74.0,6.0,30.0,5.0,0.0
620,46.0,12.0,60.0,6.0,0.0
621,44.0,0.0,60.0,3.0,0.0
622,32.0,0.0,60.0,4.0,0.0
623,75.0,12.0,15.0,5.0,0.0
624,44.0,3.0,60.0,6.0,0.0
625,74.0,12.0,15.0,5.0,0.0
626,72.0,12.0,15.0,5.0,0.0
627,74.0,0.0,15.0,5.0,0.0
628,71.0,0.0,90.0,0.0,0.0
629,68.0,0.0,90.0,1.0,0.0
630,53.0,0.0,90.0,2.0,0.0
631,46.0,0.0,30.0,3.0,0.0
632,34.0,0.0,30.0,4.0,0.0
633,75.0,3.0,15.0,5.0,0.0
634,46.0,3.0,30.0,6.0,0.0
635,74.0,3.0,15.0,5.0,0.0
636,75.0,3.0,15.0,5.0,0.0
637,74.0,3.0,15.0,5.0,0.0
638,75.0,3.0,15.0,5.0,0.0
639,74.0,3.0,15.0,5.0,0.0
640,75.0,3.0,15.0,5.0,0.0
641,74.0,3.0,15.0,5.0,0.0
642,75.0,3.0,15.0,5.0,0.0
643,74.0,3.0,15.0,5.0,0.0
644,75.0,3.0,15.0,5.0,0.0
645,74.0,3.0,15.0,5.0,0.0
646,75.0,3.0,15.0,5.0,0.0
647,74.0,0.0,15.0,5.0,0.0
648,75.0,3.0,15.0,5.0,0.0
649,74.0,3.0,15.0,5.0,0.0
650,54.0,0.0,30.0,3.0,0.0
651,42.0,0.0,30.0,4.0,0.0
652,75.0,3.0,15.0,5.0,0.0
653,54.0,3.0,15.0,6.0,0.0
654,74.0,3.0,15.0,5.0,0.0
655,75.0,3.0,15.0,5.0,0.0
656,74.0,0.0,15.0,5.0,0.0
657,75.0,3.0,15.0,5.0,0.0
658,74.0,3.0,15.0,5.0,0.0
659,75.0,3.0,15.0,5.0,0.0
660,74.0,3.0,15.0,5.0,0.0
661,75.0,3.0,15.0,5.0,0.0
662,74.0,3.0,15.0,5.0,0.0
663,75.0,3.0,15.0,5.0,0.0
664,74.0,3.0,15.0,5.0,0.0
665,75.0,3.0,15.0,5.0,0.0
666,74.0,3.0,15.0,5.0,0.0
667,75.0,3.0,15.0,5.0,0.0
668,74.0,3.0,15.0,5.0,0.0
669,70.0,0.0,60.0,0.0,0.0
670,65.0,0.0,90.0,1.0,0.0
671,58.0,6.0,90.0,2.0,0.0
672,50.0,0.0,30.0,3.0,0.0
673,38.0,6.0,30.0,4.0,0.0
674,75.0,3.0,15.0,5.0,0.0
675,50.0,24.0,60.0,6.0,0.0
676,74.0,3.0,15.0,5.0,0.0
677,75.0,3.0,15.0,5.0,0.0
678,74.0,3.0,15.0,5.0,0.0
679,75.0,3.0,15.0,5.0,0.0
680,74.0,3.0,15.0,5.0,0.0
681,75.0,3.0,15.0,5.0,0.0
682,74.0,3.0,15.0,5.0,0.0
683,75.0,15.0,15.0,5.0,0.0
684,74.0,0.0,20.0,5.0,0.0
685,68.0,0.0,30.0,0.0,0.0
686,51.0,0.0,30.0,3.0,0.0
687,39.0,0.0,30.0,4.0,0.0
688,72.0,12.0,20.0,5.0,0.0
689,51.0,3.0,30.0,6.0,0.0
690,74.0,51.0,20.0,5.0,0.0
691,66.0,0.0,60.0,0.0,0.0
692,63.0,0.0,90.0,1.0,0.0
693,63.0,0.0,90.0,2.0,0.0
694,47.0,0.0,90.0,3.0,0.0
695,35.0,0.0,90.0,4.0,0.0
696,75.0,36.0,60.0,5.0,0.0
697,47.0,6.0,90.0,6.0,0.0
698,62.0,0.0,30.0,0.0,0.0
699,70.0,54.0,30.0,5.0,0.0
700,62.0,0.0,60.0,0.0,0.0
701,71.0,42.0,60.0,5.0,0.0
702,63.0,0.0,30.0,0.0,0.0
703,51.0,0.0,30.0,3.0,0.0
704,39.0,0.0,30.0,4.0,0.0
705,67.0,6.0,30.0,5.0,0.0
706,51.0,42.0,60.0,6.0,0.0
707,52.0,0.0,30.0,3.0,0.0
708,40.0,6.0,30.0,4.0,0.0
709,68.0,0.0,60.0,5.0,0.0
710,52.0,42.0,60.0,6.0,0.0
711,49.0,0.0,30.0,3.0,0.0
712,37.0,0.0,30.0,4.0,0.0
713,64.0,0.0,30.0,5.0,0.0
714,49.0,54.0,30.0,6.0,0.0
715,64.0,0.0,90.0,0.0,0.0
716,61.0,0.0,90.0,1.0,0.0
717,58.0,6.0,90.0,2.0,0.0
718,43.0,0.0,60.0,3.0,0.0
719,31.0,0.0,60.0,4.0,0.0
720,63.0,0.0,60.0,5.0,0.0
721,43.0,36.0,60.0,6.0,0.0
722,43.0,0.0,30.0,3.0,0.0
723,31.0,0.0,30.0,4.0,0.0
724,61.0,48.0,270.0,5.0,0.0
725,43.0,54.0,30.0,6.0,0.0
726,61.0,0.0,90.0,0.0,0.0
727,58.0,0.0,90.0,1.0,0.0
728,55.0,6.0,90.0,2.0,0.0
729,46.0,0.0,60.0,3.0,0.0
730,34.0,0.0,60.0,4.0,0.0
731,46.0,36.0,60.0,6.0,0.0
732,46.0,0.0,30.0,3.0,0.0
733,34.0,0.0,30.0,4.0,0.0
734,46.0,54.0,30.0,6.0,0.0
735,58.0,0.0,90.0,0.0,0.0
736,55.0,0.0,90.0,1.0,0.0
737,52.0,6.0,90.0,2.0,0.0
738,49.0,0.0,60.0,3.0,0.0
739,37.0,0.0,60.0,4.0,0.0
740,49.0,36.0,60.0,6.0,0.0
741,49.0,0.0,30.0,3.0,0.0
742,37.0,0.0,30.0,4.0,0.0
743,49.0,42.0,30.0,6.0,0.0
744,55.0,0.0,90.0,0.0,0.0
745,61.0,0.0,90.0,1.0,0.0
746,58.0,0.0,90.0,2.0,0.0
747,40.0,0.0,90.0,3.0,0.0
748,28.0,0.0,90.0,4.0,0.0
749,40.0,12.0,90.0,6.0,0.0
750,58.0,42.0,60.0,5.0,0.0
751,59.0,30.0,30.0,5.0,0.0
752,67.0,0.0,30.0,0.0,0.0
753,58.0,0.0,30.0,1.0,0.0
754,61.0,0.0,30.0,2.0,0.0
755,46.0,0.0,30.0,3.0,0.0
756,34.0,3.0,30.0,4.0,0.0
757,63.0,18.0,20.0,5.0,0.0
758,46.0,42.0,60.0,6.0,0.0
759,61.0,3.0,20.0,5.0,0.0
760,68.0,0.0,30.0,0.0,0.0
761,63.0,0.0,30.0,1.0,0.0
762,59.0,0.0,30.0,2.0,0.0
763,47.0,0.0,30.0,3.0,0.0
764,35.0,0.0,30.0,4.0,0.0
765,63.0,6.0,30.0,5.0,0.0
766,47.0,24.0,60.0,6.0,0.0
767,71.0,0.0,30.0,0.0,0.0
768,63.0,0.0,30.0,1.0,0.0
769,59.0,0.0,30.0,2.0,0.0
770,44.0,0.0,30.0,3.0,0.0
771,32.0,0.0,30.0,4.0,0.0
772,67.0,18.0,20.0,5.0,0.0
773,44.0,3.0,30.0,6.0,0.0
774,65.0,45.0,20.0,5.0,0.0
775,70.0,0.0,60.0,0.0,0.0
776,64.0,0.0,30.0,1.0,0.0
777,61.0,42.0,60.0,2.0,0.0
778,52.0,0.0,30.0,3.0,0.0
779,40.0,0.0,30.0,4.0,0.0
780,67.0,0.0,30.0,5.0,0.0
781,52.0,6.0,30.0,6.0,0.0
782,68.0,0.0,30.0,0.0,0.0
783,64.0,0.0,30.0,1.0,0.0
784,56.0,0.0,30.0,2.0,0.0
785,49.0,0.0,30.0,3.0,0.0
786,37.0,0.0,30.0,4.0,0.0
787,68.0,0.0,30.0,5.0,0.0
788,49.0,54.0,30.0,6.0,0.0
789,68.0,0.0,90.0,0.0,0.0
790,63.0,12.0,180.0,1.0,0.0
791,63.0,36.0,60.0,2.0,0.0
792,51.0,0.0,90.0,3.0,0.0
793,39.0,0.0,90.0,4.0,0.0
794,71.0,3.0,90.0,5.0,0.0
795,51.0,6.0,90.0,6.0,0.0
796,59.0,6.0,30.0,2.0,0.0
797,67.0,0.0,90.0,0.0,0.0
798,61.0,0.0,60.0,2.0,0.0
799,39.0,0.0,90.0,3.0,0.0
800,27.0,0.0,90.0,4.0,0.0
801,70.0,3.0,15.0,5.0,0.0
802,39.0,6.0,90.0,6.0,0.0
803,71.0,3.0,15.0,5.0,0.0
804,70.0,3.0,15.0,5.0,0.0
805,71.0,3.0,15.0,5.0,0.0
806,70.0,3.0,15.0,5.0,0.0
807,71.0,6.0,15.0,5.0,0.0
808,70.0,24.0,15.0,5.0,0.0
809,68.0,24.0,20.0,5.0,0.0
810,58.0,0.0,30.0,2.0,0.0
811,70.0,90.0,30.0,5.0,0.0
812,68.0,0.0,90.0,0.0,0.0
813,63.0,0.0,90.0,1.0,0.0
814,59.0,0.0,90.0,2.0,0.0
815,44.0,0.0,90.0,3.0,0.0
816,32.0,0.0,90.0,4.0,0.0
817,68.0,0.0,90.0,5.0,0.0
818,44.0,96.0,90.0,6.0,0.0
819,63.0,60.0,90.0,5.0,0.0
820,61.0,42.0,60.0,5.0,0.0
821,59.0,30.0,30.0,5.0,0.0
822,68.0,0.0,90.0,0.0,0.0
823,63.0,0.0,90.0,1.0,0.0
824,59.0,6.0,90.0,2.0,0.0
825,44.0,0.0,60.0,3.0,0.0
826,32.0,0.0,60.0,4.0,0.0
827,58.0,21.0,20.0,5.0,0.0
828,44.0,36.0,60.0,6.0,0.0
829,56.0,3.0,20.0,5.0,0.0
830,44.0,0.0,30.0,3.0,0.0
831,32.0,0.0,30.0,4.0,0.0
832,55.0,0.0,30.0,5.0,0.0
833,44.0,54.0,30.0,6.0,0.0
834,63.0,0.0,90.0,0.0,0.0
835,59.0,0.0,90.0,1.0,0.0
836,56.0,6.0,90.0,2.0,0.0
837,47.0,0.0,60.0,3.0,0.0
838,35.0,0.0,60.0,4.0,0.0
839,55.0,0.0,60.0,5.0,0.0
840,47.0,36.0,60.0,6.0,0.0
841,47.0,0.0,30.0,3.0,0.0
842,35.0,0.0,30.0,4.0,0.0
843,56.0,0.0,30.0,5.0,0.0
844,47.0,54.0,30.0,6.0,0.0
845,59.0,0.0,90.0,0.0,0.0
846,56.0,0.0,90.0,1.0,0.0
847,51.0,6.0,90.0,2.0,0.0
848,51.0,0.0,60.0,3.0,0.0
849,39.0,0.0,60.0,4.0,0.0
850,51.0,36.0,60.0,6.0,0.0
851,51.0,0.0,30.0,3.0,0.0
852,39.0,0.0,30.0,4.0,0.0
853,51.0,54.0,30.0,6.0,0.0
854,72.0,0.0,90.0,0.0,0.0
855,69.0,0.0,90.0,1.0,0.0
856,60.0,6.0,90.0,2.0,0.0
857,41.0,0.0,60.0,3.0,0.0
858,29.0,0.0,60.0,4.0,0.0
859,78.0,18.0,60.0,5.0,0.0
860,41.0,4.0,60.0,6.0,0.0
861,41.0,0.0,30.0,3.0,0.0
862,29.0,0.0,30.0,4.0,0.0
863,41.0,4.0,30.0,6.0,0.0
864,77.0,12.0,15.0,5.0,0.0
865,75.0,2.0,15.0,5.0,0.0
866,73.0,26.0,15.0,5.0,0.0
867,69.0,0.0,90.0,0.0,0.0
868,65.0,0.0,90.0,1.0,0.0
869,60.0,6.0,90.0,2.0,0.0
870,45.0,0.0,60.0,3.0,0.0
871,33.0,0.0,60.0,4.0,0.0
872,72.0,24.0,20.0,5.0,0.0
873,45.0,24.0,60.0,6.0,0.0
874,75.0,0.0,20.0,5.0,0.0
875,45.0,0.0,30.0,3.0,0.0
876,33.0,0.0,30.0,4.0,0.0
877,73.0,12.0,20.0,5.0,0.0
878,45.0,6.0,30.0,6.0,0.0
879,72.0,24.0,20.0,5.0,0.0
880,65.0,0.0,90.0,0.0,0.0
881,63.0,6.0,90.0,1.0,0.0
882,60.0,0.0,60.0,2.0,0.0
883,48.0,0.0,60.0,3.0,0.0
884,36.0,0.0,60.0,4.0,0.0
885,70.0,24.0,20.0,5.0,0.0
886,48.0,24.0,60.0,6.0,0.0
887,69.0,0.0,20.0,5.0,0.0
888,57.0,0.0,30.0,2.0,0.0
889,48.0,0.0,30.0,3.0,0.0
890,36.0,0.0,30.0,4.0,0.0
891,67.0,12.0,20.0,5.0,0.0
892,48.0,3.0,30.0,6.0,0.0
893,65.0,15.0,20.0,5.0,0.0
894,65.0,0.0,90.0,0.0,0.0
895,61.0,0.0,90.0,1.0,0.0
896,58.0,0.0,90.0,2.0,0.0
897,34.0,0.0,90.0,3.0,0.0
898,22.0,0.0,90.0,4.0,0.0
899,73.0,12.0,15.0,5.0,0.0
900,34.0,3.0,90.0,6.0,0.0
901,78.0,60.0,15.0,5.0,0.0
902,77.0,33.0,60.0,5.0,0.0
903,75.0,42.0,20.0,5.0,0.0
904,73.0,27.0,30.0,5.0,0.0
905,72.0,24.0,20.0,5.0,0.0
906,70.0,24.0,20.0,5.0,0.0
907,72.0,45.0,20.0,5.0,0.0
908,69.0,54.0,30.0,5.0,0.0
909,77.0,0.0,90.0,0.0,0.0
910,73.0,0.0,90.0,1.0,0.0
911,70.0,6.0,90.0,2.0,0.0
912,46.0,0.0,60.0,3.0,0.0
913,34.0,0.0,60.0,4.0,0.0
914,70.0,18.0,60.0,5.0,0.0
915,46.0,4.0,60.0,6.0,0.0
916,46.0,0.0,30.0,3.0,0.0
917,34.0,0.0,30.0,4.0,0.0
918,46.0,4.0,30.0,6.0,0.0
919,72.0,12.0,15.0,5.0,0.0
920,70.0,2.0,15.0,5.0,0.0
921,69.0,50.0,15.0,5.0,0.0
922,73.0,0.0,90.0,0.0,0.0
923,70.0,0.0,90.0,1.0,0.0
924,65.0,0.0,90.0,2.0,0.0
925,49.0,0.0,60.0,3.0,0.0
926,37.0,0.0,60.0,4.0,0.0
927,70.0,6.0,90.0,5.0,0.0
928,49.0,36.0,60.0,6.0,0.0
929,49.0,0.0,30.0,3.0,0.0
930,37.0,0.0,30.0,4.0,0.0
931,49.0,54.0,30.0,6.0,0.0
932,69.0,6.0,90.0,0.0,0.0
933,65.0,0.0,60.0,1.0,0.0
934,61.0,0.0,60.0,2.0,0.0
935,53.0,0.0,60.0,3.0,0.0
936,41.0,0.0,60.0,4.0,0.0
937,53.0,36.0,60.0,6.0,0.0
938,63.0,0.0,30.0,1.0,0.0
939,60.0,0.0,30.0,2.0,0.0
940,53.0,0.0,30.0,3.0,0.0
941,41.0,0.0,30.0,4.0,0.0
942,53.0,54.0,30.0,6.0,0.0
943,70.0,0.0,60.0,0.0,0.0
944,61.0,0.0,90.0,1.0,0.0
945,58.0,0.0,90.0,2.0,0.0
946,42.0,0.0,60.0,3.0,0.0
947,30.0,0.0,60.0,4.0,0.0
948,82.0,6.0,90.0,5.0,0.0
949,42.0,36.0,60.0,6.0,0.0
950,69.0,0.0,30.0,0.0,0.0
951,41.0,0.0,30.0,3.0,0.0
952,29.0,0.0,30.0,4.0,0.0
953,41.0,54.0,30.0,6.0,0.0
954,69.0,0.0,60.0,0.0,0.0
955,41.0,0.0,60.0,3.0,0.0
956,29.0,0.0,60.0,4.0,0.0
957,80.0,0.0,60.0,5.0,0.0
958,41.0,42.0,60.0,6.0,0.0
959,70.0,0.0,30.0,0.0,0.0
960,42.0,0.0,30.0,3.0,0.0
961,30.0,0.0,30.0,4.0,0.0
962,78.0,0.0,30.0,5.0,0.0
963,42.0,30.0,30.0,6.0,0.0
964,77.0,24.0,20.0,5.0,0.0
965,75.0,42.0,20.0,5.0,0.0
966,74.0,30.0,30.0,5.0,0.0
967,75.0,0.0,90.0,0.0,0.0
968,69.0,0.0,90.0,1.0,0.0
969,63.0,6.0,90.0,2.0,0.0
970,48.0,0.0,60.0,3.0,0.0
971,36.0,0.0,60.0,4.0,0.0
972,75.0,21.0,20.0,5.0,0.0
973,48.0,24.0,60.0,6.0,0.0
974,74.0,3.0,20.0,5.0,0.0
975,48.0,0.0,30.0,3.0,0.0
976,36.0,0.0,30.0,4.0,0.0
977,77.0,12.0,20.0,5.0,0.0
978,48.0,3.0,30.0,6.0,0.0
979,75.0,6.0,20.0,5.0,0.0
980,72.0,0.0,90.0,0.0,0.0
981,69.0,0.0,60.0,1.0,0.0
982,66.0,6.0,90.0,2.0,0.0
983,51.0,0.0,60.0,3.0,0.0
984,39.0,0.0,60.0,4.0,0.0
985,75.0,3.0,15.0,5.0,0.0
986,51.0,36.0,60.0,6.0,0.0
987,74.0,42.0,15.0,5.0,0.0
988,75.0,33.0,300.0,5.0,0.0
989,72.0,0.0,30.0,1.0,0.0
990,51.0,0.0,30.0,3.0,0.0
991,39.0,0.0,30.0,4.0,0.0
992,51.0,54.0,30.0,6.0,0.0
993,69.0,0.0,90.0,0.0,0.0
994,63.0,0.0,60.0,1.0,0.0
995,60.0,6.0,90.0,2.0,0.0
996,54.0,0.0,60.0,3.0,0.0
997,42.0,0.0,60.0,4.0,0.0
998,54.0,36.0,60.0,6.0,0.0
999,66.0,0.0,30.0,1.0,0.0
1000,54.0,0.0,30.0,3.0,0.0
1001,42.0,0.0,30.0,4.0,0.0
1002,54.0,54.0,30.0,6.0,0.0
1003,65.0,0.0,60.0,0.0,0.0
1004,60.0,0.0,90.0,1.0,0.0
1005,65.0,6.0,90.0,2.0,0.0
1006,45.0,0.0,60.0,3.0,0.0
1007,33.0,0.0,60.0,4.0,0.0
1008,45.0,36.0,60.0,6.0,0.0
1009,63.0,0.0,30.0,0.0,0.0
1010,45.0,0.0,30.0,3.0,0.0
1011,33.0,0.0,30.0,4.0,0.0
1012,45.0,18.0,30.0,6.0,0.0
1013,65.0,6.0,90.0,0.0,0.0
1014,48.0,0.0,60.0,3.0,0.0
1015,36.0,0.0,60.0,4.0,0.0
1016,48.0,36.0,60.0,6.0,0.0
1017,73.0,3.0,20.0,5.0,0.0
1018,48.0,0.0,30.0,3.0,0.0
1019,36.0,0.0,30.0,4.0,0.0
1020,72.0,30.0,60.0,5.0,0.0
1021,48.0,21.0,30.0,6.0,0.0
1022,51.0,0.0,60.0,3.0,0.0
1023,39.0,0.0,60.0,4.0,0.0
1024,51.0,21.0,60.0,6.0,0.0
1025,70.0,3.0,20.0,5.0,0.0
1026,51.0,0.0,30.0,3.0,0.0
1027,39.0,0.0,30.0,4.0,0.0
1028,69.0,21.0,20.0,5.0,0.0
1029,51.0,13.0,30.0,6.0,0.0
1030,78.0,15.0,30.0,5.0,0.0
1031,72.0,0.0,60.0,0.0,0.0
1032,69.0,0.0,90.0,1.0,0.0
1033,63.0,6.0,90.0,2.0,0.0
1034,41.0,0.0,60.0,3.0,0.0
1035,29.0,0.0,60.0,4.0,0.0
1036,41.0,21.0,60.0,6.0,0.0
1037,77.0,12.0,15.0,5.0,0.0
1038,75.0,12.0,15.0,5.0,0.0
1039,73.0,2.0,15.0,5.0,0.0
1040,70.0,0.0,30.0,0.0,0.0
1041,41.0,0.0,30.0,3.0,0.0
1042,29.0,0.0,30.0,4.0,0.0
1043,75.0,15.0,20.0,5.0,0.0
1044,41.0,13.0,30.0,6.0,0.0
1045,78.0,15.0,30.0,5.0,0.0
1046,72.0,6.0,90.0,0.0,0.0
1047,45.0,0.0,60.0,3.0,0.0
1048,33.0,0.0,60.0,4.0,0.0
1049,45.0,21.0,60.0,6.0,0.0
1050,77.0,12.0,15.0,5.0,0.0
1051,75.0,12.0,15.0,5.0,0.0
1052,73.0,2.0,15.0,5.0,0.0
1053,45.0,0.0,30.0,3.0,0.0
1054,33.0,0.0,30.0,4.0,0.0
1055,72.0,15.0,20.0,5.0,0.0
1056,45.0,13.0,30.0,6.0,0.0
1057,75.0,15.0,30.0,5.0,0.0
1058,48.0,0.0,60.0,3.0,0.0
1059,36.0,0.0,60.0,4.0,0.0
1060,48.0,21.0,60.0,6.0,0.0
1061,73.0,12.0,15.0,5.0,0.0
1062,72.0,12.0,15.0,5.0,0.0
1063,70.0,2.0,15.0,5.0,0.0
1064,48.0,0.0,30.0,3.0,0.0
1065,36.0,0.0,30.0,4.0,0.0
1066,72.0,21.0,20.0,5.0,0.0
1067,48.0,3.0,30.0,6.0,0.0
1068,69.0,51.0,20.0,5.0,0.0
1069,58.0,0.0,90.0,0.0,0.0
1070,65.0,0.0,90.0,1.0,0.0
1071,61.0,0.0,90.0,2.0,0.0
1072,37.0,0.0,60.0,3.0,0.0
1073,25.0,0.0,60.0,4.0,0.0
1074,70.0,12.0,60.0,5.0,0.0
1075,37.0,24.0,60.0,6.0,0.0
1076,36.0,0.0,60.0,3.0,0.0
1077,24.0,0.0,60.0,4.0,0.0
1078,36.0,42.0,60.0,6.0,0.0
1079,72.0,10.0,15.0,5.0,0.0
1080,73.0,2.0,15.0,5.0,0.0
1081,61.0,0.0,90.0,0.0,0.0
1082,58.0,0.0,90.0,1.0,0.0
1083,53.0,6.0,90.0,2.0,0.0
1084,37.0,0.0,30.0,3.0,0.0
1085,25.0,0.0,30.0,4.0,0.0
1086,72.0,12.0,60.0,5.0,0.0
1087,37.0,6.0,30.0,6.0,0.0
1088,49.0,0.0,30.0,3.0,0.0
1089,37.0,6.0,30.0,4.0,0.0
1090,70.0,42.0,60.0,5.0,0.0
1091,49.0,24.0,15.0,6.0,0.0
1092,65.0,0.0,90.0,0.0,0.0
1093,61.0,0.0,90.0,1.0,0.0
1094,58.0,6.0,90.0,2.0,0.0
1095,45.0,0.0,30.0,3.0,0.0
1096,33.0,6.0,30.0,4.0,0.0
1097,45.0,36.0,60.0,6.0,0.0
1098,46.0,0.0,30.0,3.0,0.0
1099,34.0,0.0,30.0,4.0,0.0
1100,46.0,30.0,30.0,6.0,0.0
1101,66.0,9.0,90.0,0.0,0.0
1102,60.0,0.0,360.0,1.0,0.0
1103,58.0,6.0,270.0,2.0,0.0
1104,39.0,0.0,60.0,3.0,0.0
1105,27.0,0.0,60.0,4.0,0.0
1106,78.0,21.0,20.0,5.0,0.0
1107,39.0,24.0,60.0,6.0,0.0
1108,77.0,3.0,20.0,5.0,0.0
1109,37.0,0.0,60.0,3.0,0.0
1110,25.0,0.0,60.0,4.0,0.0
1111,80.0,12.0,20.0,5.0,0.0
1112,37.0,42.0,60.0,6.0,0.0
1113,78.0,3.0,20.0,5.0,0.0
1114,70.0,6.0,90.0,0.0,0.0
1115,39.0,0.0,30.0,3.0,0.0
1116,27.0,0.0,30.0,4.0,0.0
1117,78.0,30.0,120.0,5.0,0.0
1118,39.0,18.0,30.0,6.0,0.0
1119,49.0,0.0,30.0,3.0,0.0
1120,37.0,18.0,30.0,4.0,0.0
1121,49.0,24.0,15.0,6.0,0.0
1122,66.0,0.0,90.0,0.0,0.0
1123,45.0,0.0,30.0,3.0,0.0
1124,33.0,3.0,30.0,4.0,0.0
1125,45.0,10.0,60.0,6.0,0.0
1126,77.0,3.0,20.0,5.0,0.0
1127,46.0,0.0,30.0,3.0,0.0
1128,34.0,0.0,30.0,4.0,0.0
1129,75.0,12.0,15.0,5.0,0.0
1130,46.0,4.0,30.0,6.0,0.0
1131,74.0,12.0,15.0,5.0,0.0
1132,75.0,2.0,15.0,5.0,0.0
1133,78.0,50.0,15.0,5.0,0.0
1134,63.0,0.0,90.0,0.0,0.0
1135,57.0,0.0,90.0,2.0,0.0
1136,41.0,0.0,60.0,3.0,0.0
1137,29.0,0.0,60.0,4.0,0.0
1138,81.0,0.0,60.0,5.0,0.0
1139,41.0,12.0,60.0,6.0,0.0
1140,39.0,0.0,60.0,3.0,0.0
1141,27.0,0.0,60.0,4.0,0.0
1142,82.0,12.0,15.0,5.0,0.0
1143,39.0,3.0,60.0,6.0,0.0
1144,81.0,12.0,15.0,5.0,0.0
1145,79.0,10.0,15.0,5.0,0.0
1146,81.0,2.0,15.0,5.0,0.0
1147,66.0,0.0,90.0,0.0,0.0
1148,63.0,0.0,90.0,1.0,0.0
1149,60.0,0.0,90.0,2.0,0.0
1150,41.0,0.0,30.0,3.0,0.0
1151,29.0,0.0,30.0,4.0,0.0
1152,82.0,3.0,15.0,5.0,0.0
1153,41.0,3.0,30.0,6.0,0.0
1154,81.0,3.0,15.0,5.0,0.0
1155,82.0,3.0,15.0,5.0,0.0
1156,81.0,3.0,15.0,5.0,0.0
1157,82.0,3.0,15.0,5.0,0.0
1158,81.0,3.0,15.0,5.0,0.0
1159,82.0,3.0,15.0,5.0,0.0
1160,81.0,3.0,15.0,5.0,0.0
1161,82.0,3.0,15.0,5.0,0.0
1162,81.0,3.0,15.0,5.0,0.0
1163,82.0,3.0,15.0,5.0,0.0
1164,81.0,3.0,15.0,5.0,0.0
1165,82.0,3.0,15.0,5.0,0.0
1166,81.0,0.0,15.0,5.0,0.0
1167,82.0,3.0,15.0,5.0,0.0
1168,81.0,3.0,15.0,5.0,0.0
1169,49.0,0.0,30.0,3.0,0.0
1170,37.0,0.0,30.0,4.0,0.0
1171,82.0,3.0,15.0,5.0,0.0
1172,49.0,3.0,15.0,6.0,0.0
1173,81.0,3.0,15.0,5.0,0.0
1174,82.0,3.0,15.0,5.0,0.0
1175,81.0,0.0,15.0,5.0,0.0
1176,82.0,3.0,15.0,5.0,0.0
1177,81.0,3.0,15.0,5.0,0.0
1178,82.0,3.0,15.0,5.0,0.0
1179,81.0,3.0,15.0,5.0,0.0
1180,82.0,3.0,15.0,5.0,0.0
1181,81.0,3.0,15.0,5.0,0.0
1182,82.0,3.0,15.0,5.0,0.0
1183,81.0,3.0,15.0,5.0,0.0
1184,82.0,3.0,15.0,5.0,0.0
1185,81.0,3.0,15.0,5.0,0.0
1186,82.0,3.0,15.0,5.0,0.0
1187,81.0,3.0,15.0,5.0,0.0
1188,65.0,0.0,60.0,0.0,0.0
1189,60.0,0.0,90.0,1.0,0.0
1190,53.0,6.0,90.0,2.0,0.0
1191,45.0,0.0,30.0,3.0,0.0
1192,33.0,6.0,30.0,4.0,0.0
1193,82.0,3.0,15.0,5.0,0.0
1194,45.0,24.0,60.0,6.0,0.0
1195,81.0,3.0,15.0,5.0,0.0
1196,82.0,3.0,15.0,5.0,0.0
1197,81.0,3.0,15.0,5.0,0.0
1198,82.0,3.0,15.0,5.0,0.0
1199,81.0,3.0,15.0,5.0,0.0
1200,82.0,3.0,15.0,5.0,0.0
1201,81.0,3.0,15.0,5.0,0.0
1202,82.0,15.0,15.0,5.0,0.0
1203,81.0,0.0,20.0,5.0,0.0
1204,63.0,0.0,30.0,0.0,0.0
1205,46.0,0.0,30.0,3.0,0.0
1206,34.0,0.0,30.0,4.0,0.0
1207,79.0,12.0,20.0,5.0,0.0
1208,46.0,3.0,30.0,6.0,0.0
1209,81.0,51.0,20.0,5.0,0.0
1210,61.0,0.0,60.0,0.0,0.0
1211,58.0,0.0,90.0,1.0,0.0
1212,58.0,0.0,90.0,2.0,0.0
1213,42.0,0.0,90.0,3.0,0.0
1214,30.0,0.0,90.0,4.0,0.0
1215,82.0,36.0,60.0,5.0,0.0
1216,42.0,6.0,90.0,6.0,0.0
1217,57.0,0.0,30.0,0.0,0.0
1218,77.0,54.0,30.0,5.0,0.0
1219,58.0,6.0,90.0,0.0,0.0
1220,78.0,36.0,60.0,5.0,0.0
1221,46.0,0.0,30.0,3.0,0.0
1222,34.0,0.0,30.0,4.0,0.0
1223,74.0,6.0,30.0,5.0,0.0
1224,46.0,42.0,60.0,6.0,0.0
1225,47.0,0.0,30.0,3.0,0.0
1226,35.0,0.0,30.0,4.0,0.0
1227,75.0,6.0,30.0,5.0,0.0
1228,47.0,24.0,60.0,6.0,0.0
1229,44.0,0.0,30.0,3.0,0.0
1230,32.0,0.0,30.0,4.0,0.0
1231,73.0,18.0,20.0,5.0,0.0
1232,44.0,3.0,30.0,6.0,0.0
1233,71.0,51.0,20.0,5.0,0.0
1234,71.0,0.0,90.0,0.0,0.0
1235,68.0,0.0,90.0,1.0,0.0
1236,65.0,0.0,90.0,2.0,0.0
1237,38.0,0.0,60.0,3.0,0.0
1238,26.0,0.0,60.0,4.0,0.0
1239,70.0,0.0,60.0,5.0,0.0
1240,38.0,3.0,60.0,6.0,0.0
1241,38.0,0.0,30.0,3.0,0.0
1242,26.0,0.0,30.0,4.0,0.0
1243,68.0,3.0,15.0,5.0,0.0
1244,38.0,3.0,30.0,6.0,0.0
1245,70.0,3.0,15.0,5.0,0.0
1246,68.0,3.0,15.0,5.0,0.0
1247,70.0,3.0,15.0,5.0,0.0
1248,68.0,3.0,15.0,5.0,0.0
1249,70.0,3.0,15.0,5.0,0.0
1250,68.0,3.0,15.0,5.0,0.0
1251,70.0,3.0,15.0,5.0,0.0
1252,68.0,3.0,15.0,5.0,0.0
1253,70.0,3.0,15.0,5.0,0.0
1254,68.0,3.0,15.0,5.0,0.0
1255,70.0,3.0,15.0,5.0,0.0
1256,68.0,3.0,15.0,5.0,0.0
1257,70.0,0.0,15.0,5.0,0.0
1258,68.0,3.0,15.0,5.0,0.0
1259,70.0,3.0,15.0,5.0,0.0
1260,68.0,0.0,90.0,0.0,0.0
1261,65.0,0.0,90.0,1.0,0.0
1262,62.0,0.0,90.0,2.0,0.0
1263,41.0,0.0,60.0,3.0,0.0
1264,29.0,0.0,60.0,4.0,0.0
1265,68.0,3.0,15.0,5.0,0.0
1266,41.0,3.0,60.0,6.0,0.0
1267,70.0,3.0,15.0,5.0,0.0
1268,68.0,3.0,15.0,5.0,0.0
1269,70.0,3.0,15.0,5.0,0.0
1270,68.0,3.0,15.0,5.0,0.0
1271,70.0,3.0,15.0,5.0,0.0
1272,68.0,3.0,15.0,5.0,0.0
1273,70.0,3.0,15.0,5.0,0.0
1274,68.0,3.0,15.0,5.0,0.0
1275,70.0,3.0,15.0,5.0,0.0
1276,68.0,3.0,15.0,5.0,0.0
1277,70.0,3.0,15.0,5.0,0.0
1278,68.0,3.0,15.0,5.0,0.0
1279,70.0,3.0,15.0,5.0,0.0
1280,68.0,3.0,15.0,5.0,0.0
1281,70.0,0.0,15.0,5.0,0.0
1282,41.0,0.0,30.0,3.0,0.0
1283,29.0,0.0,30.0,4.0,0.0
1284,68.0,3.0,15.0,5.0,0.0
1285,41.0,3.0,30.0,6.0,0.0
1286,70.0,3.0,15.0,5.0,0.0
1287,68.0,3.0,15.0,5.0,0.0
1288,70.0,3.0,15.0,5.0,0.0
1289,68.0,3.0,15.0,5.0,0.0
1290,70.0,3.0,15.0,5.0,0.0
1291,68.0,3.0,15.0,5.0,0.0
1292,70.0,3.0,15.0,5.0,0.0
1293,68.0,3.0,15.0,5.0,0.0
1294,70.0,3.0,15.0,5.0,0.0
1295,68.0,3.0,15.0,5.0,0.0
1296,70.0,3.0,15.0,5.0,0.0
1297,68.0,3.0,15.0,5.0,0.0
1298,70.0,0.0,15.0,5.0,0.0
1299,68.0,3.0,15.0,5.0,0.0
1300,70.0,3.0,15.0,5.0,0.0
1301,65.0,0.0,90.0,0.0,0.0
1302,62.0,0.0,90.0,1.0,0.0
1303,59.0,0.0,90.0,2.0,0.0
1304,44.0,0.0,60.0,3.0,0.0
1305,32.0,0.0,60.0,4.0,0.0
1306,68.0,3.0,15.0,5.0,0.0
1307,44.0,3.0,60.0,6.0,0.0
1308,70.0,3.0,15.0,5.0,0.0
1309,68.0,3.0,15.0,5.0,0.0
1310,70.0,3.0,15.0,5.0,0.0
1311,68.0,3.0,15.0,5.0,0.0
1312,70.0,3.0,15.0,5.0,0.0
1313,68.0,3.0,15.0,5.0,0.0
1314,70.0,3.0,15.0,5.0,0.0
1315,68.0,3.0,15.0,5.0,0.0
1316,70.0,3.0,15.0,5.0,0.0
1317,68.0,3.0,15.0,5.0,0.0
1318,70.0,3.0,15.0,5.0,0.0
1319,68.0,3.0,15.0,5.0,0.0
1320,70.0,3.0,15.0,5.0,0.0
1321,68.0,3.0,15.0,5.0,0.0
1322,70.0,0.0,15.0,5.0,0.0
1323,44.0,0.0,30.0,3.0,0.0
1324,32.0,0.0,30.0,4.0,0.0
1325,68.0,3.0,15.0,5.0,0.0
1326,44.0,3.0,30.0,6.0,0.0
1327,70.0,3.0,15.0,5.0,0.0
1328,68.0,3.0,15.0,5.0,0.0
1329,70.0,3.0,15.0,5.0,0.0
1330,68.0,3.0,15.0,5.0,0.0
1331,70.0,3.0,15.0,5.0,0.0
1332,68.0,3.0,15.0,5.0,0.0
1333,70.0,3.0,15.0,5.0,0.0
1334,68.0,3.0,15.0,5.0,0.0
1335,70.0,3.0,15.0,5.0,0.0
1336,68.0,3.0,15.0,5.0,0.0
1337,70.0,3.0,15.0,5.0,0.0
1338,68.0,3.0,15.0,5.0,0.0
1339,70.0,0.0,15.0,5.0,0.0
1340,68.0,3.0,15.0,5.0,0.0
1341,70.0,42.0,15.0,5.0,0.0
1342,61.0,0.0,90.0,0.0,0.0
1343,56.0,0.0,90.0,1.0,0.0
1344,53.0,0.0,90.0,2.0,0.0
1345,35.0,0.0,90.0,3.0,0.0
1346,23.0,0.0,90.0,4.0,0.0
1347,68.0,42.0,30.0,5.0,0.0
1348,35.0,6.0,90.0,6.0,0.0
1349,65.0,18.0,30.0,5.0,0.0
1350,66.0,12.0,15.0,5.0,0.0
1351,68.0,12.0,15.0,5.0,0.0
1352,66.0,12.0,15.0,5.0,0.0
1353,65.0,24.0,15.0,5.0,0.0
1354,71.0,0.0,30.0,0.0,0.0
1355,68.0,0.0,30.0,1.0,0.0
1356,63.0,0.0,30.0,2.0,0.0
1357,41.0,0.0,30.0,3.0,0.0
1358,29.0,3.0,30.0,4.0,0.0
1359,66.0,18.0,20.0,5.0,0.0
1360,41.0,12.0,60.0,6.0,0.0
1361,68.0,3.0,20.0,5.0,0.0
1362,70.0,0.0,30.0,0.0,0.0
1363,66.0,0.0,30.0,1.0,0.0
1364,61.0,0.0,30.0,2.0,0.0
1365,42.0,0.0,30.0,3.0,0.0
1366,30.0,6.0,30.0,4.0,0.0
1367,70.0,12.0,15.0,5.0,0.0
1368,42.0,24.0,60.0,6.0,0.0
1369,71.0,12.0,15.0,5.0,0.0
1370,70.0,6.0,15.0,5.0,0.0
1371,68.0,0.0,15.0,5.0,0.0
1372,68.0,0.0,30.0,0.0,0.0
1373,65.0,0.0,30.0,1.0,0.0
1374,59.0,0.0,30.0,2.0,0.0
1375,44.0,0.0,30.0,3.0,0.0
1376,32.0,0.0,30.0,4.0,0.0
1377,70.0,18.0,20.0,5.0,0.0
1378,44.0,3.0,30.0,6.0,0.0
1379,71.0,13.0,20.0,5.0,0.0
1380,66.0,18.0,120.0,0.0,0.0
1381,66.0,6.0,90.0,1.0,0.0
1382,58.0,21.0,60.0,2.0,0.0
1383,46.0,0.0,30.0,3.0,0.0
1384,34.0,0.0,30.0,4.0,0.0
1385,73.0,12.0,15.0,5.0,0.0
1386,46.0,4.0,30.0,6.0,0.0
1387,73.0,12.0,15.0,5.0,0.0
1388,75.0,8.0,15.0,5.0,0.0
1389,76.0,2.0,15.0,5.0,0.0
1390,56.0,0.0,30.0,2.0,0.0
1391,47.0,0.0,30.0,3.0,0.0
1392,35.0,0.0,30.0,4.0,0.0
1393,75.0,15.0,20.0,5.0,0.0
1394,47.0,3.0,30.0,6.0,0.0
1395,73.0,33.0,20.0,5.0,0.0
1396,61.0,0.0,90.0,1.0,0.0
1397,58.0,0.0,60.0,2.0,0.0
1398,49.0,0.0,90.0,3.0,0.0
1399,37.0,0.0,90.0,4.0,0.0
1400,71.0,36.0,60.0,5.0,0.0
1401,49.0,6.0,90.0,6.0,0.0
1402,68.0,0.0,30.0,0.0,0.0
1403,59.0,6.0,30.0,2.0,0.0
1404,70.0,3.0,60.0,5.0,0.0
1405,66.0,0.0,15.0,0.0,0.0
1406,61.0,0.0,90.0,1.0,0.0
1407,61.0,0.0,60.0,2.0,0.0
1408,37.0,0.0,90.0,3.0,0.0
1409,25.0,0.0,90.0,4.0,0.0
1410,68.0,3.0,15.0,5.0,0.0
1411,37.0,6.0,90.0,6.0,0.0
1412,65.0,0.0,15.0,0.0,0.0
1413,70.0,3.0,15.0,5.0,0.0
1414,66.0,0.0,15.0,0.0,0.0
1415,68.0,3.0,15.0,5.0,0.0
1416,65.0,0.0,15.0,0.0,0.0
1417,70.0,3.0,15.0,5.0,0.0
1418,66.0,0.0,15.0,0.0,0.0
1419,68.0,3.0,15.0,5.0,0.0
1420,65.0,0.0,15.0,0.0,0.0
1421,70.0,3.0,15.0,5.0,0.0
1422,66.0,3.0,15.0,0.0,0.0
1423,68.0,3.0,15.0,5.0,0.0
1424,65.0,0.0,15.0,0.0,0.0
1425,66.0,3.0,15.0,0.0,0.0
1426,66.0,3.0,20.0,5.0,0.0
1427,65.0,3.0,15.0,0.0,0.0
1428,66.0,3.0,15.0,0.0,0.0
1429,65.0,3.0,15.0,0.0,0.0
1430,66.0,3.0,15.0,0.0,0.0
1431,65.0,3.0,15.0,0.0,0.0
1432,66.0,3.0,15.0,0.0,0.0
1433,65.0,0.0,15.0,0.0,0.0
1434,66.0,3.0,15.0,0.0,0.0
1435,56.0,0.0,30.0,2.0,0.0
1436,68.0,3.0,30.0,5.0,0.0
1437,65.0,3.0,15.0,0.0,0.0
1438,66.0,3.0,15.0,0.0,0.0
1439,65.0,3.0,15.0,0.0,0.0
1440,66.0,3.0,15.0,0.0,0.0
1441,65.0,3.0,15.0,0.0,0.0
1442,66.0,3.0,15.0,0.0,0.0
1443,65.0,3.0,15.0,0.0,0.0
1444,66.0,9.0,15.0,0.0,0.0
1445,65.0,24.0,20.0,0.0,0.0
1446,66.0,0.0,90.0,0.0,0.0
1447,61.0,0.0,90.0,1.0,0.0
1448,58.0,0.0,90.0,2.0,0.0
1449,42.0,0.0,90.0,3.0,0.0
1450,30.0,0.0,90.0,4.0,0.0
1451,66.0,24.0,20.0,5.0,0.0
1452,42.0,9.0,90.0,6.0,0.0
1453,61.0,24.0,20.0,5.0,0.0
1454,63.0,15.0,20.0,5.0,0.0
1455,58.0,24.0,20.0,5.0,0.0
1456,59.0,24.0,20.0,5.0,0.0
1457,56.0,24.0,20.0,5.0,0.0
1458,58.0,24.0,20.0,5.0,0.0
1459,54.0,24.0,20.0,5.0,0.0
1460,52.0,24.0,20.0,5.0,0.0
1461,51.0,24.0,20.0,5.0,0.0
1462,52.0,24.0,20.0,5.0,0.0
1463,61.0,51.0,20.0,5.0,0.0
1464,73.0,12.0,60.0,0.0,0.0
1465,70.0,0.0,90.0,1.0,0.0
1466,63.0,6.0,90.0,2.0,0.0
1467,43.0,0.0,60.0,3.0,0.0
1468,31.0,0.0,60.0,4.0,0.0
1469,52.0,0.0,60.0,5.0,0.0
1470,61.0,33.0,300.0,5.0,0.0
1471,43.0,24.0,60.0,6.0,0.0
1472,43.0,0.0,30.0,3.0,0.0
1473,31.0,0.0,30.0,4.0,0.0
1474,51.0,0.0,240.0,5.0,0.0
1475,43.0,4.0,30.0,6.0,0.0
1476,75.0,0.0,15.0,0.0,0.0
1477,76.0,50.0,15.0,0.0,0.0
1478,75.0,0.0,60.0,0.0,0.0
1479,67.0,0.0,90.0,1.0,0.0
1480,58.0,6.0,90.0,2.0,0.0
1481,46.0,0.0,60.0,3.0,0.0
1482,34.0,0.0,60.0,4.0,0.0
1483,46.0,36.0,60.0,6.0,0.0
1484,73.0,0.0,30.0,0.0,0.0
1485,46.0,0.0,30.0,3.0,0.0
1486,34.0,0.0,30.0,4.0,0.0
1487,46.0,54.0,30.0,6.0,0.0
1488,71.0,0.0,60.0,0.0,0.0
1489,63.0,0.0,90.0,1.0,0.0
1490,55.0,6.0,90.0,2.0,0.0
1491,49.0,0.0,60.0,3.0,0.0
1492,37.0,0.0,60.0,4.0,0.0
1493,49.0,36.0,60.0,6.0,0.0
1494,70.0,0.0,30.0,0.0,0.0
1495,49.0,0.0,30.0,3.0,0.0
1496,37.0,0.0,30.0,4.0,0.0
1497,49.0,18.0,30.0,6.0,0.0
1498,68.0,0.0,60.0,0.0,0.0
1499,63.0,0.0,90.0,1.0,0.0
1500,58.0,6.0,90.0,2.0,0.0
1501,39.0,0.0,60.0,3.0,0.0
1502,27.0,0.0,60.0,4.0,0.0
1503,39.0,21.0,60.0,6.0,0.0
1504,55.0,3.0,20.0,5.0,0.0
1505,67.0,0.0,30.0,0.0,0.0
1506,37.0,0.0,30.0,3.0,0.0
1507,25.0,0.0,30.0,4.0,0.0
1508,58.0,15.0,20.0,5.0,0.0
1509,37.0,3.0,30.0,6.0,0.0
1510,61.0,24.0,20.0,5.0,0.0
1511,37.0,0.0,60.0,3.0,0.0
1512,25.0,0.0,60.0,4.0,0.0
1513,64.0,24.0,20.0,5.0,0.0
1514,37.0,21.0,60.0,6.0,0.0
1515,67.0,3.0,20.0,5.0,0.0
1516,39.0,0.0,30.0,3.0,0.0
1517,27.0,0.0,30.0,4.0,0.0
1518,70.0,21.0,20.0,5.0,0.0
1519,39.0,3.0,30.0,6.0,0.0
1520,73.0,27.0,20.0,5.0,0.0
1521,76.0,24.0,20.0,5.0,0.0
1522,75.0,12.0,20.0,5.0,0.0
1523,73.0,12.0,15.0,5.0,0.0
1524,71.0,12.0,15.0,5.0,0.0
1525,73.0,10.0,15.0,5.0,0.0
1526,70.0,50.0,15.0,5.0,0.0
1527,75.0,0.0,90.0,0.0,0.0
1528,71.0,0.0,90.0,1.0,0.0
1529,68.0,6.0,90.0,2.0,0.0
1530,44.0,0.0,60.0,3.0,0.0
1531,32.0,0.0,60.0,4.0,0.0
1532,70.0,0.0,60.0,5.0,0.0
1533,44.0,3.0,60.0,6.0,0.0
1534,44.0,0.0,30.0,3.0,0.0
1535,32.0,0.0,30.0,4.0,0.0
1536,71.0,3.0,15.0,5.0,0.0
1537,44.0,54.0,30.0,6.0,0.0
1538,70.0,30.0,15.0,5.0,0.0
1539,71.0,36.0,240.0,5.0,0.0
1540,71.0,0.0,90.0,0.0,0.0
1541,68.0,0.0,90.0,1.0,0.0
1542,63.0,6.0,90.0,2.0,0.0
1543,47.0,0.0,60.0,3.0,0.0
1544,35.0,0.0,60.0,4.0,0.0
1545,47.0,36.0,60.0,6.0,0.0
1546,47.0,0.0,30.0,3.0,0.0
1547,35.0,0.0,30.0,4.0,0.0
1548,47.0,54.0,30.0,6.0,0.0
1549,67.0,6.0,90.0,0.0,0.0
1550,63.0,0.0,60.0,1.0,0.0
1551,59.0,0.0,60.0,2.0,0.0
1552,51.0,0.0,60.0,3.0,0.0
1553,39.0,0.0,60.0,4.0,0.0
1554,51.0,36.0,60.0,6.0,0.0
1555,61.0,0.0,30.0,1.0,0.0
1556,58.0,0.0,30.0,2.0,0.0
1557,51.0,0.0,30.0,3.0,0.0
1558,39.0,0.0,30.0,4.0,0.0
1559,51.0,18.0,30.0,6.0,0.0
1560,68.0,0.0,60.0,0.0,0.0
1561,59.0,0.0,90.0,1.0,0.0
1562,56.0,6.0,90.0,2.0,0.0
1563,40.0,0.0,60.0,3.0,0.0
1564,28.0,0.0,60.0,4.0,0.0
1565,40.0,18.0,60.0,6.0,0.0
1566,68.0,16.0,30.0,5.0,0.0
1567,67.0,0.0,30.0,0.0,0.0
1568,39.0,0.0,30.0,3.0,0.0
1569,27.0,0.0,30.0,4.0,0.0
1570,39.0,4.0,30.0,6.0,0.0
1571,69.0,2.0,15.0,5.0,0.0
1572,67.0,14.0,15.0,5.0,0.0
1573,68.0,6.0,90.0,0.0,0.0
1574,39.0,0.0,60.0,3.0,0.0
1575,27.0,0.0,60.0,4.0,0.0
1576,68.0,12.0,15.0,5.0,0.0
1577,39.0,21.0,60.0,6.0,0.0
1578,66.0,12.0,15.0,5.0,0.0
1579,64.0,12.0,15.0,5.0,0.0
1580,63.0,0.0,15.0,5.0,0.0
1581,40.0,0.0,30.0,3.0,0.0
1582,28.0,0.0,30.0,4.0,0.0
1583,64.0,15.0,20.0,5.0,0.0
1584,40.0,3.0,30.0,6.0,0.0
1585,60.0,24.0,20.0,5.0,0.0
1586,61.0,27.0,20.0,5.0,0.0
1587,69.0,24.0,20.0,5.0,0.0
1588,68.0,21.0,20.0,5.0,0.0
1589,67.0,51.0,20.0,5.0,0.0
1590,73.0,0.0,90.0,0.0,0.0
1591,67.0,0.0,90.0,1.0,0.0
1592,61.0,6.0,90.0,2.0,0.0
1593,46.0,0.0,60.0,3.0,0.0
1594,34.0,0.0,60.0,4.0,0.0
1595,73.0,0.0,300.0,5.0,0.0
1596,67.0,36.0,300.0,5.0,0.0
1597,46.0,36.0,60.0,6.0,0.0
1598,46.0,0.0,30.0,3.0,0.0
1599,34.0,0.0,30.0,4.0,0.0
1600,46.0,54.0,30.0,6.0,0.0
1601,70.0,0.0,90.0,0.0,0.0
1602,67.0,0.0,60.0,1.0,0.0
1603,64.0,6.0,90.0,2.0,0.0
1604,49.0,0.0,60.0,3.0,0.0
1605,37.0,0.0,60.0,4.0,0.0
1606,49.0,36.0,60.0,6.0,0.0
1607,70.0,0.0,30.0,1.0,0.0
1608,49.0,0.0,30.0,3.0,0.0
1609,37.0,0.0,30.0,4.0,0.0
1610,49.0,54.0,30.0,6.0,0.0
1611,67.0,0.0,90.0,0.0,0.0
1612,61.0,0.0,60.0,1.0,0.0
1613,58.0,6.0,90.0,2.0,0.0
1614,52.0,0.0,60.0,3.0,0.0
1615,40.0,0.0,60.0,4.0,0.0
1616,52.0,36.0,60.0,6.0,0.0
1617,64.0,0.0,30.0,1.0,0.0
1618,52.0,0.0,30.0,3.0,0.0
1619,40.0,0.0,30.0,4.0,0.0
1620,52.0,18.0,30.0,6.0,0.0
1621,63.0,0.0,60.0,0.0,0.0
1622,58.0,0.0,90.0,1.0,0.0
1623,63.0,6.0,90.0,2.0,0.0
1624,43.0,0.0,60.0,3.0,0.0
1625,31.0,0.0,60.0,4.0,0.0
1626,43.0,24.0,60.0,6.0,0.0
1627,72.0,0.0,20.0,5.0,0.0
1628,61.0,0.0,30.0,0.0,0.0
1629,43.0,0.0,30.0,3.0,0.0
1630,31.0,0.0,30.0,4.0,0.0
1631,73.0,12.0,20.0,5.0,0.0
1632,43.0,3.0,30.0,6.0,0.0
1633,76.0,24.0,20.0,5.0,0.0
1634,63.0,0.0,90.0,0.0,0.0
1635,46.0,0.0,60.0,3.0,0.0
1636,34.0,0.0,60.0,4.0,0.0
1637,73.0,24.0,20.0,5.0,0.0
1638,46.0,3.0,60.0,6.0,0.0
1639,72.0,3.0,20.0,5.0,0.0
1640,46.0,0.0,30.0,3.0,0.0
1641,34.0,0.0,30.0,4.0,0.0
1642,73.0,3.0,15.0,5.0,0.0
1643,46.0,6.0,30.0,6.0,0.0
1644,72.0,16.0,15.0,5.0,0.0
1645,73.0,14.0,15.0,5.0,0.0
1646,76.0,6.0,15.0,5.0,0.0
1647,75.0,12.0,15.0,5.0,0.0
1648,49.0,0.0,60.0,3.0,0.0
1649,37.0,0.0,60.0,4.0,0.0
1650,73.0,12.0,15.0,5.0,0.0
1651,49.0,31.0,60.0,6.0,0.0
1652,72.0,24.0,15.0,5.0,0.0
1653,73.0,0.0,20.0,5.0,0.0
1654,49.0,0.0,30.0,3.0,0.0
1655,37.0,0.0,30.0,4.0,0.0
1656,81.0,11.0,30.0,5.0,0.0
1657,49.0,4.0,30.0,6.0,0.0
1658,80.0,14.0,15.0,5.0,0.0
1659,61.0,0.0,90.0,0.0,0.0
1660,64.0,0.0,90.0,1.0,0.0
1661,58.0,6.0,90.0,2.0,0.0
1662,39.0,0.0,60.0,3.0,0.0
1663,27.0,0.0,60.0,4.0,0.0
1664,79.0,12.0,15.0,5.0,0.0
1665,39.0,3.0,60.0,6.0,0.0
1666,80.0,12.0,15.0,5.0,0.0
1667,79.0,12.0,15.0,5.0,0.0
1668,80.0,0.0,15.0,5.0,0.0
1669,39.0,0.0,30.0,3.0,0.0
1670,27.0,0.0,30.0,4.0,0.0
1671,81.0,3.0,15.0,5.0,0.0
1672,39.0,3.0,30.0,6.0,0.0
1673,80.0,3.0,15.0,5.0,0.0
1674,81.0,3.0,15.0,5.0,0.0
1675,80.0,10.0,15.0,5.0,0.0
1676,79.0,14.0,15.0,5.0,0.0
1677,80.0,51.0,20.0,5.0,0.0
1678,58.0,0.0,90.0,0.0,0.0
1679,61.0,0.0,90.0,1.0,0.0
1680,55.0,6.0,90.0,2.0,0.0
1681,43.0,0.0,60.0,3.0,0.0
1682,31.0,0.0,60.0,4.0,0.0
1683,82.0,33.0,210.0,5.0,0.0
1684,43.0,36.0,60.0,6.0,0.0
1685,43.0,0.0,30.0,3.0,0.0
1686,31.0,0.0,30.0,4.0,0.0
1687,43.0,54.0,30.0,6.0,0.0
1688,55.0,0.0,90.0,0.0,0.0
1689,58.0,0.0,90.0,1.0,0.0
1690,51.0,6.0,90.0,2.0,0.0
1691,46.0,0.0,60.0,3.0,0.0
1692,34.0,0.0,60.0,4.0,0.0
1693,46.0,36.0,60.0,6.0,0.0
1694,46.0,0.0,30.0,3.0,0.0
1695,34.0,0.0,30.0,4.0,0.0
1696,46.0,18.0,30.0,6.0,0.0
1697,51.0,0.0,90.0,0.0,0.0
1698,63.0,0.0,90.0,1.0,0.0
1699,47.0,9.0,90.0,2.0,0.0
1700,47.0,0.0,60.0,3.0,0.0
1701,35.0,0.0,60.0,4.0,0.0
1702,35.0,21.0,60.0,6.0,0.0
1703,80.0,3.0,20.0,5.0,0.0
1704,46.0,0.0,60.0,3.0,0.0
1705,34.0,0.0,60.0,4.0,0.0
1706,79.0,15.0,20.0,5.0,0.0
1707,34.0,21.0,60.0,6.0,0.0
1708,80.0,3.0,20.0,5.0,0.0
1709,56.0,6.0,90.0,0.0,0.0
1710,47.0,0.0,30.0,3.0,0.0
1711,35.0,0.0,30.0,4.0,0.0
1712,80.0,21.0,20.0,5.0,0.0
1713,35.0,3.0,30.0,6.0,0.0
1714,78.0,15.0,20.0,5.0,0.0
1715,59.0,0.0,30.0,3.0,0.0
1716,47.0,4.0,30.0,4.0,0.0
1717,76.0,13.0,20.0,5.0,0.0
1718,47.0,9.0,15.0,6.0,0.0
1719,75.0,2.0,15.0,5.0,0.0
1720,78.0,44.0,15.0,5.0,0.0
1721,58.0,0.0,60.0,0.0,0.0
1722,55.0,0.0,30.0,3.0,0.0
1723,43.0,6.0,30.0,4.0,0.0
1724,78.0,0.0,60.0,5.0,0.0
1725,43.0,24.0,60.0,6.0,0.0
1726,61.0,18.0,20.0,0.0,0.0
1727,56.0,0.0,30.0,3.0,0.0
1728,44.0,0.0,30.0,4.0,0.0
1729,76.0,12.0,90.0,5.0,0.0
1730,44.0,3.0,30.0,6.0,0.0
1731,60.0,39.0,20.0,0.0,0.0
1732,61.0,0.0,60.0,0.0,0.0
1733,61.0,0.0,90.0,1.0,0.0
1734,56.0,6.0,90.0,2.0,0.0
1735,49.0,0.0,60.0,3.0,0.0
1736,37.0,0.0,60.0,4.0,0.0
1737,37.0,24.0,60.0,6.0,0.0
1738,64.0,12.0,20.0,0.0,0.0
1739,47.0,0.0,60.0,3.0,0.0
1740,35.0,0.0,60.0,4.0,0.0
1741,68.0,3.0,30.0,5.0,0.0
1742,35.0,12.0,60.0,6.0,0.0
1743,63.0,3.0,20.0,0.0,0.0
1744,64.0,6.0,90.0,0.0,0.0
1745,49.0,0.0,30.0,3.0,0.0
1746,37.0,0.0,30.0,4.0,0.0
1747,71.0,10.0,15.0,5.0,0.0
1748,37.0,3.0,30.0,6.0,0.0
1749,69.0,20.0,15.0,5.0,0.0
1750,68.0,15.0,20.0,5.0,0.0
1751,59.0,0.0,30.0,3.0,0.0
1752,47.0,6.0,30.0,4.0,0.0
1753,69.0,15.0,20.0,5.0,0.0
1754,47.0,9.0,15.0,6.0,0.0
1755,76.0,24.0,20.0,5.0,0.0
1756,70.0,0.0,60.0,0.0,0.0
1757,55.0,0.0,30.0,3.0,0.0
1758,43.0,6.0,30.0,4.0,0.0
1759,75.0,18.0,20.0,5.0,0.0
1760,43.0,24.0,60.0,6.0,0.0
1761,73.0,0.0,20.0,5.0,0.0
1762,68.0,0.0,30.0,0.0,0.0
1763,56.0,0.0,30.0,3.0,0.0
1764,44.0,0.0,30.0,4.0,0.0
1765,72.0,18.0,20.0,5.0,0.0
1766,44.0,3.0,30.0,6.0,0.0
1767,73.0,27.0,20.0,5.0,0.0
1768,67.0,6.0,90.0,0.0,0.0
1769,70.0,0.0,270.0,1.0,0.0
1770,61.0,6.0,270.0,2.0,0.0
1771,51.0,0.0,60.0,3.0,0.0
1772,39.0,0.0,60.0,4.0,0.0
1773,63.0,12.0,20.0,5.0,0.0
1774,39.0,36.0,60.0,6.0,0.0
1775,67.0,12.0,15.0,5.0,0.0
1776,70.0,0.0,15.0,5.0,0.0
1777,49.0,0.0,60.0,3.0,0.0
1778,37.0,0.0,60.0,4.0,0.0
1779,73.0,6.0,30.0,5.0,0.0
1780,37.0,42.0,60.0,6.0,0.0
1781,70.0,6.0,90.0,0.0,0.0
1782,51.0,0.0,30.0,3.0,0.0
1783,39.0,0.0,30.0,4.0,0.0
1784,39.0,18.0,30.0,6.0,0.0
1785,59.0,0.0,30.0,3.0,0.0
1786,47.0,0.0,30.0,4.0,0.0
1787,63.0,48.0,30.0,5.0,0.0
1788,47.0,24.0,15.0,6.0,0.0
1789,73.0,0.0,90.0,0.0,0.0
1790,55.0,0.0,30.0,3.0,0.0
1791,43.0,0.0,30.0,4.0,0.0
1792,64.0,6.0,30.0,5.0,0.0
1793,43.0,36.0,60.0,6.0,0.0
1794,56.0,0.0,30.0,3.0,0.0
1795,44.0,0.0,30.0,4.0,0.0
1796,63.0,0.0,30.0,5.0,0.0
1797,44.0,27.0,30.0,6.0,0.0
1798,71.0,0.0,90.0,0.0,0.0
1799,68.0,0.0,90.0,1.0,0.0
1800,56.0,0.0,90.0,2.0,0.0
1801,52.0,0.0,90.0,3.0,0.0
1802,40.0,0.0,90.0,4.0,0.0
1803,63.0,13.0,20.0,5.0,0.0
1804,40.0,9.0,90.0,6.0,0.0
1805,71.0,12.0,15.0,5.0,0.0
1806,70.0,23.0,15.0,5.0,0.0
1807,68.0,15.0,20.0,5.0,0.0
1808,64.0,27.0,20.0,5.0,0.0
1809,63.0,24.0,20.0,5.0,0.0
1810,61.0,21.0,20.0,5.0,0.0
1811,56.0,0.0,30.0,3.0,0.0
1812,44.0,3.0,30.0,4.0,0.0
1813,60.0,21.0,20.0,5.0,0.0
1814,44.0,21.0,60.0,6.0,0.0
1815,61.0,3.0,20.0,5.0,0.0
1816,57.0,0.0,30.0,3.0,0.0
1817,45.0,3.0,30.0,4.0,0.0
1818,61.0,21.0,20.0,5.0,0.0
1819,45.0,21.0,60.0,6.0,0.0
1820,57.0,3.0,20.0,5.0,0.0
1821,54.0,0.0,30.0,3.0,0.0
1822,42.0,0.0,30.0,4.0,0.0
1823,53.0,21.0,20.0,5.0,0.0
1824,42.0,3.0,30.0,6.0,0.0
1825,54.0,6.0,20.0,5.0,0.0
1826,69.0,0.0,90.0,0.0,0.0
1827,66.0,0.0,90.0,1.0,0.0
1828,63.0,6.0,90.0,2.0,0.0
1829,48.0,0.0,60.0,3.0,0.0
1830,36.0,0.0,60.0,4.0,0.0
1831,54.0,3.0,15.0,5.0,0.0
1832,36.0,36.0,60.0,6.0,0.0
1833,53.0,42.0,15.0,5.0,0.0
1834,54.0,15.0,330.0,5.0,0.0
1835,48.0,0.0,30.0,3.0,0.0
1836,36.0,0.0,30.0,4.0,0.0
1837,36.0,54.0,30.0,6.0,0.0
1838,66.0,0.0,90.0,0.0,0.0
1839,63.0,0.0,90.0,1.0,0.0
1840,60.0,6.0,90.0,2.0,0.0
1841,51.0,0.0,60.0,3.0,0.0
1842,39.0,0.0,60.0,4.0,0.0
1843,39.0,36.0,60.0,6.0,0.0
1844,51.0,0.0,30.0,3.0,0.0
1845,39.0,0.0,30.0,4.0,0.0
1846,39.0,54.0,30.0,6.0,0.0
1847,63.0,0.0,90.0,0.0,0.0
1848,60.0,0.0,90.0,1.0,0.0
1849,57.0,6.0,90.0,2.0,0.0
1850,54.0,0.0,60.0,3.0,0.0
1851,42.0,0.0,60.0,4.0,0.0
1852,42.0,36.0,60.0,6.0,0.0
1853,54.0,0.0,30.0,3.0,0.0
1854,42.0,0.0,30.0,4.0,0.0
1855,42.0,42.0,30.0,6.0,0.0
1856,60.0,0.0,90.0,0.0,0.0
1857,66.0,0.0,90.0,1.0,0.0
1858,63.0,0.0,90.0,2.0,0.0
1859,45.0,0.0,90.0,3.0,0.0
1860,33.0,0.0,90.0,4.0,0.0
1861,33.0,7.0,90.0,6.0,0.0
1862,52.0,3.0,15.0,5.0,0.0
1863,51.0,3.0,15.0,5.0,0.0
1864,49.0,27.0,15.0,5.0,0.0
1865,51.0,26.0,30.0,5.0,0.0
1866,52.0,45.0,20.0,5.0,0.0
1867,58.0,24.0,30.0,5.0,0.0
1868,72.0,0.0,60.0,0.0,0.0
1869,63.0,0.0,30.0,1.0,0.0
1870,66.0,0.0,30.0,2.0,0.0
1871,51.0,0.0,30.0,3.0,0.0
1872,39.0,3.0,30.0,4.0,0.0
1873,51.0,21.0,60.0,6.0,0.0
1874,56.0,3.0,20.0,5.0,0.0
1875,73.0,0.0,60.0,0.0,0.0
1876,61.0,0.0,30.0,1.0,0.0
1877,64.0,0.0,30.0,2.0,0.0
1878,52.0,0.0,30.0,3.0,0.0
1879,40.0,6.0,30.0,4.0,0.0
1880,56.0,21.0,20.0,5.0,0.0
1881,52.0,42.0,60.0,6.0,0.0
1882,61.0,30.0,90.0,5.0,0.0
1883,71.0,0.0,30.0,0.0,0.0
1884,61.0,0.0,30.0,1.0,0.0
1885,64.0,0.0,30.0,2.0,0.0
1886,49.0,0.0,30.0,3.0,0.0
1887,37.0,0.0,30.0,4.0,0.0
1888,49.0,18.0,30.0,6.0,0.0
1889,70.0,0.0,60.0,0.0,0.0
1890,61.0,0.0,60.0,1.0,0.0
1891,58.0,21.0,60.0,2.0,0.0
1892,55.0,0.0,30.0,3.0,0.0
1893,43.0,0.0,30.0,4.0,0.0
1894,55.0,3.0,30.0,6.0,0.0
1895,64.0,3.0,20.0,5.0,0.0
1896,68.0,0.0,30.0,0.0,0.0
1897,59.0,0.0,30.0,1.0,0.0
1898,59.0,0.0,30.0,2.0,0.0
1899,56.0,0.0,30.0,3.0,0.0
1900,44.0,0.0,30.0,4.0,0.0
1901,62.0,21.0,20.0,5.0,0.0
1902,56.0,3.0,30.0,6.0,0.0
1903,63.0,27.0,20.0,5.0,0.0
1904,71.0,0.0,90.0,0.0,0.0
1905,63.0,0.0,90.0,1.0,0.0
1906,55.0,24.0,60.0,2.0,0.0
1907,51.0,0.0,90.0,3.0,0.0
1908,39.0,0.0,90.0,4.0,0.0
1909,63.0,24.0,20.0,5.0,0.0
1910,51.0,6.0,90.0,6.0,0.0
1911,71.0,12.0,60.0,5.0,0.0
1912,56.0,6.0,30.0,2.0,0.0
1913,70.0,3.0,20.0,5.0,0.0
1914,73.0,6.0,30.0,0.0,0.0
1915,63.0,0.0,90.0,1.0,0.0
1916,58.0,0.0,60.0,2.0,0.0
1917,39.0,0.0,90.0,3.0,0.0
1918,27.0,0.0,90.0,4.0,0.0
1919,68.0,3.0,15.0,5.0,0.0
1920,39.0,6.0,90.0,6.0,0.0
1921,70.0,3.0,15.0,5.0,0.0
1922,68.0,3.0,15.0,5.0,0.0
1923,70.0,3.0,15.0,5.0,0.0
1924,68.0,3.0,15.0,5.0,0.0
1925,70.0,6.0,15.0,5.0,0.0
1926,68.0,18.0,15.0,5.0,0.0
1927,67.0,36.0,20.0,5.0,0.0
1928,70.0,0.0,30.0,0.0,0.0
1929,61.0,0.0,30.0,2.0,0.0
1930,68.0,58.0,30.0,5.0,0.0
1931,68.0,0.0,90.0,0.0,0.0
1932,63.0,0.0,90.0,1.0,0.0
1933,59.0,0.0,90.0,2.0,0.0
1934,44.0,0.0,90.0,3.0,0.0
1935,32.0,0.0,90.0,4.0,0.0
1936,68.0,18.0,60.0,5.0,0.0
1937,44.0,10.0,90.0,6.0,0.0
1938,63.0,12.0,15.0,5.0,0.0
1939,65.0,2.0,15.0,5.0,0.0
1940,67.0,14.0,15.0,5.0,0.0
1941,68.0,12.0,15.0,5.0,0.0
1942,70.0,12.0,15.0,5.0,0.0
1943,71.0,12.0,15.0,5.0,0.0
1944,70.0,12.0,15.0,5.0,0.0
1945,68.0,12.0,15.0,5.0,0.0
1946,66.0,12.0,15.0,5.0,0.0
1947,65.0,12.0,15.0,5.0,0.0
1948,66.0,12.0,15.0,5.0,0.0
1949,68.0,12.0,15.0,5.0,0.0
1950,62.0,12.0,15.0,5.0,0.0
1951,63.0,12.0,15.0,5.0,0.0
1952,65.0,12.0,15.0,5.0,0.0
1953,63.0,12.0,15.0,5.0,0.0
1954,62.0,12.0,15.0,5.0,0.0
1955,60.0,10.0,15.0,5.0,0.0
1956,58.0,50.0,15.0,5.0,0.0
1957,71.0,0.0,90.0,0.0,0.0
1958,68.0,0.0,90.0,1.0,0.0
1959,53.0,6.0,90.0,2.0,0.0
1960,41.0,0.0,60.0,3.0,0.0
1961,29.0,0.0,60.0,4.0,0.0
1962,74.0,22.0,90.0,5.0,0.0
1963,41.0,36.0,60.0,6.0,0.0
1964,41.0,0.0,30.0,3.0,0.0
1965,29.0,0.0,30.0,4.0,0.0
1966,41.0,6.0,30.0,6.0,0.0
1967,68.0,0.0,90.0,0.0,0.0
1968,65.0,0.0,90.0,1.0,0.0
1969,59.0,6.0,90.0,2.0,0.0
1970,44.0,0.0,60.0,3.0,0.0
1971,32.0,0.0,60.0,4.0,0.0
1972,44.0,21.0,60.0,6.0,0.0
1973,75.0,12.0,15.0,5.0,0.0
1974,74.0,12.0,15.0,5.0,0.0
1975,72.0,2.0,15.0,5.0,0.0
1976,44.0,0.0,30.0,3.0,0.0
1977,32.0,0.0,30.0,4.0,0.0
1978,74.0,15.0,20.0,5.0,0.0
1979,44.0,3.0,30.0,6.0,0.0
1980,75.0,6.0,20.0,5.0,0.0
1981,65.0,0.0,90.0,0.0,0.0
1982,63.0,0.0,90.0,1.0,0.0
1983,56.0,6.0,90.0,2.0,0.0
1984,47.0,0.0,60.0,3.0,0.0
1985,35.0,0.0,60.0,4.0,0.0
1986,77.0,3.0,15.0,5.0,0.0
1987,47.0,3.0,60.0,6.0,0.0
1988,75.0,3.0,15.0,5.0,0.0
1989,77.0,3.0,15.0,5.0,0.0
1990,75.0,3.0,15.0,5.0,0.0
1991,77.0,3.0,15.0,5.0,0.0
1992,75.0,3.0,15.0,5.0,0.0
1993,77.0,3.0,15.0,5.0,0.0
1994,75.0,3.0,15.0,5.0,0.0
1995,77.0,3.0,15.0,5.0,0.0
1996,75.0,3.0,15.0,5.0,0.0
1997,77.0,3.0,15.0,5.0,0.0
1998,75.0,3.0,15.0,5.0,0.0
1999,77.0,3.0,15.0,5.0,0.0
2000,75.0,3.0,15.0,5.0,0.0
2001,77.0,3.0,15.0,5.0,0.0
2002,75.0,0.0,15.0,5.0,0.0
2003,47.0,0.0,30.0,3.0,0.0
2004,35.0,0.0,30.0,4.0,0.0
2005,77.0,18.0,15.0,5.0,0.0
2006,47.0,4.0,30.0,6.0,0.0
2007,75.0,13.0,20.0,5.0,0.0
2008,74.0,2.0,15.0,5.0,0.0
2009,75.0,26.0,15.0,5.0,0.0
2010,68.0,0.0,90.0,0.0,0.0
2011,59.0,0.0,90.0,1.0,0.0
2012,53.0,6.0,90.0,2.0,0.0
2013,38.0,0.0,60.0,3.0,0.0
2014,26.0,0.0,60.0,4.0,0.0
2015,77.0,24.0,20.0,5.0,0.0
2016,38.0,24.0,60.0,6.0,0.0
2017,71.0,0.0,20.0,5.0,0.0
2018,38.0,0.0,30.0,3.0,0.0
2019,26.0,0.0,30.0,4.0,0.0
2020,68.0,12.0,20.0,5.0,0.0
2021,38.0,6.0,30.0,6.0,0.0
2022,67.0,24.0,20.0,5.0,0.0
2023,65.0,0.0,90.0,0.0,0.0
2024,56.0,0.0,90.0,1.0,0.0
2025,50.0,6.0,90.0,2.0,0.0
2026,41.0,0.0,60.0,3.0,0.0
2027,29.0,0.0,60.0,4.0,0.0
2028,68.0,24.0,20.0,5.0,0.0
2029,41.0,24.0,60.0,6.0,0.0
2030,71.0,0.0,20.0,5.0,0.0
2031,41.0,0.0,30.0,3.0,0.0
2032,29.0,0.0,30.0,4.0,0.0
2033,74.0,12.0,20.0,5.0,0.0
2034,41.0,6.0,30.0,6.0,0.0
2035,75.0,12.0,20.0,5.0,0.0
2036,62.0,0.0,90.0,0.0,0.0
2037,53.0,0.0,90.0,1.0,0.0
2038,46.0,6.0,90.0,2.0,0.0
2039,44.0,0.0,60.0,3.0,0.0
2040,32.0,0.0,60.0,4.0,0.0
2041,77.0,12.0,15.0,5.0,0.0
2042,44.0,24.0,60.0,6.0,0.0
2043,78.0,12.0,15.0,5.0,0.0
2044,77.0,12.0,15.0,5.0,0.0
2045,75.0,0.0,15.0,5.0,0.0
2046,44.0,0.0,30.0,3.0,0.0
2047,32.0,0.0,30.0,4.0,0.0
2048,77.0,12.0,20.0,5.0,0.0
2049,44.0,3.0,30.0,6.0,0.0
2050,78.0,15.0,20.0,5.0,0.0
2051,58.0,0.0,90.0,0.0,0.0
2052,53.0,0.0,90.0,1.0,0.0
2053,62.0,0.0,90.0,2.0,0.0
2054,34.0,0.0,90.0,3.0,0.0
2055,22.0,0.0,90.0,4.0,0.0
2056,80.0,12.0,15.0,5.0,0.0
2057,34.0,9.0,90.0,6.0,0.0
2058,78.0,12.0,15.0,5.0,0.0
2059,77.0,12.0,15.0,5.0,0.0
2060,75.0,12.0,15.0,5.0,0.0
2061,74.0,12.0,15.0,5.0,0.0
2062,75.0,12.0,15.0,5.0,0.0
2063,77.0,27.0,20.0,5.0,0.0
2064,71.0,42.0,20.0,5.0,0.0
2065,69.0,27.0,30.0,5.0,0.0
2066,70.0,15.0,20.0,5.0,0.0
2067,70.0,24.0,15.0,5.0,0.0
2068,80.0,6.0,20.0,5.0,0.0
2069,78.0,6.0,15.0,5.0,0.0
2070,77.0,24.0,15.0,5.0,0.0
2071,75.0,21.0,20.0,5.0,0.0
2072,74.0,51.0,20.0,5.0,0.0
2073,70.0,0.0,90.0,0.0,0.0
2074,66.0,0.0,90.0,1.0,0.0
2075,63.0,0.0,90.0,2.0,0.0
2076,51.0,0.0,60.0,3.0,0.0
2077,39.0,0.0,60.0,4.0,0.0
2078,75.0,15.0,60.0,5.0,0.0
2079,51.0,15.0,60.0,6.0,0.0
2080,51.0,0.0,30.0,3.0,0.0
2081,39.0,0.0,30.0,4.0,0.0
2082,51.0,4.0,30.0,6.0,0.0
2083,77.0,6.0,15.0,5.0,0.0
2084,75.0,6.0,15.0,5.0,0.0
2085,74.0,50.0,15.0,5.0,0.0
2086,66.0,0.0,90.0,0.0,0.0
2087,63.0,0.0,90.0,1.0,0.0
2088,58.0,6.0,90.0,2.0,0.0
2089,54.0,0.0,60.0,3.0,0.0
2090,42.0,0.0,60.0,4.0,0.0
2091,74.0,0.0,60.0,5.0,0.0
2092,54.0,36.0,60.0,6.0,0.0
2093,54.0,0.0,30.0,3.0,0.0
2094,42.0,0.0,30.0,4.0,0.0
2095,75.0,36.0,150.0,5.0,0.0
2096,54.0,54.0,30.0,6.0,0.0
2097,62.0,6.0,90.0,0.0,0.0
2098,58.0,0.0,60.0,1.0,0.0
2099,54.0,0.0,60.0,2.0,0.0
2100,58.0,0.0,60.0,3.0,0.0
2101,46.0,0.0,60.0,4.0,0.0
2102,58.0,36.0,60.0,6.0,0.0
2103,56.0,0.0,30.0,1.0,0.0
2104,53.0,0.0,30.0,2.0,0.0
2105,58.0,0.0,30.0,3.0,0.0
2106,46.0,0.0,30.0,4.0,0.0
2107,58.0,18.0,30.0,6.0,0.0
2108,63.0,0.0,60.0,0.0,0.0
2109,54.0,0.0,90.0,1.0,0.0
2110,51.0,0.0,90.0,2.0,0.0
2111,47.0,0.0,60.0,3.0,0.0
2112,35.0,0.0,60.0,4.0,0.0
2113,47.0,24.0,60.0,6.0,0.0
2114,63.0,0.0,20.0,5.0,0.0
2115,62.0,0.0,30.0,0.0,0.0
2116,46.0,0.0,30.0,3.0,0.0
2117,34.0,0.0,30.0,4.0,0.0
2118,65.0,12.0,20.0,5.0,0.0
2119,46.0,4.0,30.0,6.0,0.0
2120,68.0,6.0,15.0,5.0,0.0
2121,67.0,14.0,15.0,5.0,0.0
2122,63.0,0.0,90.0,0.0,0.0
2123,46.0,0.0,60.0,3.0,0.0
2124,34.0,0.0,60.0,4.0,0.0
2125,68.0,12.0,15.0,5.0,0.0
2126,46.0,21.0,60.0,6.0,0.0
2127,63.0,12.0,15.0,5.0,0.0
2128,65.0,12.0,15.0,5.0,0.0
2129,67.0,0.0,15.0,5.0,0.0
2130,47.0,0.0,30.0,3.0,0.0
2131,35.0,0.0,30.0,4.0,0.0
2132,68.0,15.0,20.0,5.0,0.0
2133,47.0,4.0,30.0,6.0,0.0
2134,71.0,6.0,15.0,5.0,0.0
2135,70.0,38.0,15.0,5.0,0.0
2136,71.0,4.0,30.0,5.0,0.0
2137,70.0,4.0,15.0,5.0,0.0
2138,68.0,4.0,15.0,5.0,0.0
2139,67.0,24.0,15.0,5.0,0.0
2140,68.0,12.0,20.0,5.0,0.0
2141,71.0,10.0,15.0,5.0,0.0
2142,75.0,50.0,15.0,5.0,0.0
2143,68.0,0.0,90.0,0.0,0.0
2144,62.0,0.0,90.0,1.0,0.0
2145,56.0,6.0,90.0,2.0,0.0
2146,53.0,0.0,60.0,3.0,0.0
2147,41.0,0.0,60.0,4.0,0.0
2148,80.0,22.0,390.0,5.0,0.0
2149,53.0,36.0,60.0,6.0,0.0
2150,53.0,0.0,30.0,3.0,0.0
2151,41.0,0.0,30.0,4.0,0.0
2152,53.0,54.0,30.0,6.0,0.0
2153,65.0,0.0,90.0,0.0,0.0
2154,62.0,0.0,60.0,1.0,0.0
2155,59.0,6.0,90.0,2.0,0.0
2156,56.0,0.0,60.0,3.0,0.0
2157,44.0,0.0,60.0,4.0,0.0
2158,56.0,36.0,60.0,6.0,0.0
2159,65.0,0.0,30.0,1.0,0.0
2160,56.0,0.0,30.0,3.0,0.0
2161,44.0,0.0,30.0,4.0,0.0
2162,56.0,54.0,30.0,6.0,0.0
2163,62.0,0.0,90.0,0.0,0.0
2164,56.0,0.0,60.0,1.0,0.0
2165,53.0,6.0,90.0,2.0,0.0
2166,59.0,0.0,60.0,3.0,0.0
2167,47.0,0.0,60.0,4.0,0.0
2168,59.0,36.0,60.0,6.0,0.0
2169,59.0,0.0,30.0,1.0,0.0
2170,59.0,0.0,30.0,3.0,0.0
2171,47.0,0.0,30.0,4.0,0.0
2172,59.0,54.0,30.0,6.0,0.0
2173,58.0,0.0,60.0,0.0,0.0
2174,53.0,0.0,90.0,1.0,0.0
2175,58.0,6.0,90.0,2.0,0.0
2176,50.0,0.0,60.0,3.0,0.0
2177,38.0,0.0,60.0,4.0,0.0
2178,50.0,36.0,60.0,6.0,0.0
2179,56.0,0.0,30.0,0.0,0.0
2180,50.0,0.0,30.0,3.0,0.0
2181,38.0,0.0,30.0,4.0,0.0
2182,50.0,6.0,30.0,6.0,0.0
2183,58.0,6.0,90.0,0.0,0.0
2184,53.0,0.0,60.0,3.0,0.0
2185,41.0,0.0,60.0,4.0,0.0
2186,53.0,10.0,60.0,6.0,0.0
2187,78.0,12.0,15.0,5.0,0.0
2188,80.0,12.0,15.0,5.0,0.0
2189,82.0,2.0,15.0,5.0,0.0
2190,53.0,0.0,30.0,3.0,0.0
2191,41.0,0.0,30.0,4.0,0.0
2192,80.0,12.0,15.0,5.0,0.0
2193,53.0,4.0,30.0,6.0,0.0
2194,78.0,12.0,15.0,5.0,0.0
2195,77.0,2.0,15.0,5.0,0.0
2196,75.0,50.0,15.0,5.0,0.0
2197,56.0,0.0,60.0,3.0,0.0
2198,44.0,0.0,60.0,4.0,0.0
2199,75.0,0.0,60.0,5.0,0.0
2200,56.0,42.0,60.0,6.0,0.0
2201,56.0,0.0,30.0,3.0,0.0
2202,44.0,0.0,30.0,4.0,0.0
2203,74.0,18.0,60.0,5.0,0.0
2204,56.0,10.0,30.0,6.0,0.0
2205,65.0,0.0,60.0,0.0,0.0
2206,58.0,0.0,90.0,1.0,0.0
2207,62.0,6.0,90.0,2.0,0.0
2208,46.0,0.0,60.0,3.0,0.0
2209,34.0,0.0,60.0,4.0,0.0
2210,46.0,10.0,60.0,6.0,0.0
2211,72.0,12.0,15.0,5.0,0.0
2212,74.0,12.0,15.0,5.0,0.0
2213,78.0,2.0,15.0,5.0,0.0
2214,63.0,0.0,30.0,0.0,0.0
2215,46.0,0.0,30.0,3.0,0.0
2216,34.0,0.0,30.0,4.0,0.0
2217,77.0,12.0,15.0,5.0,0.0
2218,46.0,4.0,30.0,6.0,0.0
2219,75.0,12.0,15.0,5.0,0.0
2220,74.0,2.0,15.0,5.0,0.0
2221,72.0,50.0,15.0,5.0,0.0
2222,65.0,6.0,90.0,0.0,0.0
2223,50.0,0.0,60.0,3.0,0.0
2224,38.0,0.0,60.0,4.0,0.0
2225,71.0,18.0,60.0,5.0,0.0
2226,50.0,4.0,60.0,6.0,0.0
2227,50.0,0.0,30.0,3.0,0.0
2228,38.0,0.0,30.0,4.0,0.0
2229,50.0,4.0,30.0,6.0,0.0
2230,70.0,12.0,15.0,5.0,0.0
2231,72.0,2.0,15.0,5.0,0.0
2232,74.0,14.0,15.0,5.0,0.0
2233,53.0,0.0,60.0,3.0,0.0
2234,41.0,0.0,60.0,4.0,0.0
2235,72.0,12.0,15.0,5.0,0.0
2236,53.0,3.0,60.0,6.0,0.0
2237,74.0,21.0,15.0,5.0,0.0
2238,75.0,3.0,20.0,5.0,0.0
2239,53.0,0.0,30.0,3.0,0.0
2240,41.0,0.0,30.0,4.0,0.0
2241,74.0,3.0,15.0,5.0,0.0
2242,53.0,5.0,30.0,6.0,0.0
2243,75.0,3.0,15.0,5.0,0.0
2244,74.0,3.0,15.0,5.0,0.0
2245,75.0,3.0,15.0,5.0,0.0
2246,74.0,3.0,15.0,5.0,0.0
2247,75.0,3.0,15.0,5.0,0.0
2248,74.0,3.0,15.0,5.0,0.0
2249,75.0,10.0,15.0,5.0,0.0
2250,74.0,7.0,15.0,5.0,0.0
2251,72.0,1.0,15.0,5.0,0.0
2252,74.0,49.0,15.0,5.0,0.0
2253,63.0,0.0,90.0,0.0,0.0
2254,58.0,12.0,90.0,1.0,0.0
2255,54.0,0.0,60.0,2.0,0.0
2256,42.0,0.0,60.0,3.0,0.0
2257,30.0,0.0,60.0,4.0,0.0
2258,75.0,30.0,120.0,5.0,0.0
2259,42.0,36.0,60.0,6.0,0.0
2260,56.0,0.0,60.0,2.0,0.0
2261,41.0,0.0,60.0,3.0,0.0
2262,29.0,0.0,60.0,4.0,0.0
2263,41.0,12.0,60.0,6.0,0.0
2264,66.0,12.0,60.0,0.0,0.0
2265,63.0,6.0,90.0,1.0,0.0
2266,58.0,0.0,30.0,2.0,0.0
2267,42.0,0.0,30.0,3.0,0.0
2268,30.0,0.0,30.0,4.0,0.0
2269,42.0,3.0,30.0,6.0,0.0
2270,76.0,3.0,20.0,5.0,0.0
2271,70.0,0.0,30.0,0.0,0.0
2272,66.0,0.0,30.0,2.0,0.0
2273,54.0,0.0,30.0,3.0,0.0
2274,42.0,3.0,30.0,4.0,0.0
2275,75.0,15.0,20.0,5.0,0.0
2276,54.0,9.0,15.0,6.0,0.0
2277,73.0,15.0,20.0,5.0,0.0
2278,68.0,0.0,60.0,0.0,0.0
2279,65.0,0.0,60.0,1.0,0.0
2280,65.0,0.0,60.0,2.0,0.0
2281,50.0,0.0,30.0,3.0,0.0
2282,38.0,1.0,30.0,4.0,0.0
2283,71.0,30.0,15.0,5.0,0.0
2284,50.0,12.0,60.0,6.0,0.0
2285,70.0,5.0,30.0,5.0,0.0
2286,66.0,0.0,30.0,0.0,0.0
2287,66.0,0.0,30.0,1.0,0.0
2288,63.0,0.0,30.0,2.0,0.0
2289,51.0,0.0,30.0,3.0,0.0
2290,39.0,0.0,30.0,4.0,0.0
2291,73.0,30.0,15.0,5.0,0.0
2292,51.0,1.0,30.0,6.0,0.0
2293,71.0,53.0,30.0,5.0,0.0
2294,71.0,12.0,90.0,0.0,0.0
2295,65.0,0.0,360.0,1.0,0.0
2296,63.0,6.0,270.0,2.0,0.0
2297,44.0,0.0,60.0,3.0,0.0
2298,32.0,0.0,60.0,4.0,0.0
2299,71.0,30.0,120.0,5.0,0.0
2300,44.0,36.0,60.0,6.0,0.0
2301,42.0,0.0,60.0,3.0,0.0
2302,30.0,0.0,60.0,4.0,0.0
2303,42.0,12.0,60.0,6.0,0.0
2304,75.0,6.0,90.0,0.0,0.0
2305,44.0,0.0,30.0,3.0,0.0
2306,32.0,0.0,30.0,4.0,0.0
2307,44.0,6.0,30.0,6.0,0.0
2308,73.0,12.0,20.0,5.0,0.0
2309,54.0,0.0,30.0,3.0,0.0
2310,42.0,3.0,30.0,4.0,0.0
2311,71.0,12.0,20.0,5.0,0.0
2312,54.0,12.0,15.0,6.0,0.0
2313,70.0,15.0,20.0,5.0,0.0
2314,71.0,0.0,90.0,0.0,0.0
2315,50.0,0.0,30.0,3.0,0.0
2316,38.0,1.0,30.0,4.0,0.0
2317,68.0,30.0,15.0,5.0,0.0
2318,50.0,12.0,60.0,6.0,0.0
2319,67.0,5.0,30.0,5.0,0.0
2320,51.0,0.0,30.0,3.0,0.0
2321,39.0,0.0,30.0,4.0,0.0
2322,70.0,24.0,15.0,5.0,0.0
2323,51.0,1.0,30.0,6.0,0.0
2324,68.0,53.0,30.0,5.0,0.0
2325,68.0,0.0,90.0,0.0,0.0
2326,62.0,12.0,90.0,2.0,0.0
2327,46.0,0.0,60.0,3.0,0.0
2328,34.0,0.0,60.0,4.0,0.0
2329,68.0,30.0,120.0,5.0,0.0
2330,46.0,36.0,60.0,6.0,0.0
2331,44.0,0.0,60.0,3.0,0.0
2332,32.0,0.0,60.0,4.0,0.0
2333,44.0,12.0,60.0,6.0,0.0
2334,71.0,0.0,90.0,0.0,0.0
2335,68.0,0.0,90.0,1.0,0.0
2336,65.0,6.0,90.0,2.0,0.0
2337,46.0,0.0,30.0,3.0,0.0
2338,34.0,0.0,30.0,4.0,0.0
2339,46.0,3.0,30.0,6.0,0.0
2340,75.0,15.0,20.0,5.0,0.0
2341,54.0,0.0,30.0,3.0,0.0
2342,42.0,4.0,30.0,4.0,0.0
2343,74.0,13.0,20.0,5.0,0.0
2344,54.0,9.0,15.0,6.0,0.0
2345,75.0,2.0,15.0,5.0,0.0
2346,77.0,26.0,15.0,5.0,0.0
2347,70.0,0.0,20.0,0.0,0.0
2348,65.0,0.0,90.0,1.0,0.0
2349,58.0,6.0,90.0,2.0,0.0
2350,50.0,0.0,30.0,3.0,0.0
2351,38.0,6.0,30.0,4.0,0.0
2352,71.0,18.0,20.0,5.0,0.0
2353,50.0,3.0,60.0,6.0,0.0
2354,71.0,0.0,20.0,0.0,0.0
2355,68.0,0.0,20.0,5.0,0.0
2356,68.0,0.0,30.0,0.0,0.0
2357,51.0,0.0,30.0,3.0,0.0
2358,39.0,0.0,30.0,4.0,0.0
2359,66.0,3.0,15.0,5.0,0.0
2360,51.0,3.0,30.0,6.0,0.0
2361,68.0,3.0,15.0,5.0,0.0
2362,66.0,3.0,15.0,5.0,0.0
2363,68.0,3.0,15.0,5.0,0.0
2364,66.0,3.0,15.0,5.0,0.0
2365,68.0,6.0,15.0,5.0,0.0
2366,66.0,12.0,15.0,5.0,0.0
2367,65.0,27.0,20.0,5.0,0.0
2368,66.0,0.0,20.0,0.0,0.0
2369,63.0,0.0,90.0,1.0,0.0
2370,63.0,0.0,90.0,2.0,0.0
2371,47.0,0.0,90.0,3.0,0.0
2372,35.0,0.0,90.0,4.0,0.0
2373,63.0,24.0,20.0,5.0,0.0
2374,47.0,6.0,90.0,6.0,0.0
2375,68.0,0.0,20.0,0.0,0.0
2376,62.0,3.0,20.0,5.0,0.0
2377,65.0,3.0,30.0,0.0,0.0
2378,63.0,3.0,15.0,5.0,0.0
2379,62.0,18.0,15.0,5.0,0.0
2380,63.0,12.0,20.0,5.0,0.0
2381,66.0,27.0,20.0,5.0,0.0
2382,63.0,6.0,90.0,0.0,0.0
2383,59.0,24.0,20.0,5.0,0.0
2384,58.0,3.0,20.0,5.0,0.0
2385,51.0,0.0,30.0,3.0,0.0
2386,39.0,3.0,30.0,4.0,0.0
2387,59.0,3.0,15.0,5.0,0.0
2388,51.0,24.0,60.0,6.0,0.0
2389,58.0,18.0,15.0,5.0,0.0
2390,59.0,12.0,20.0,5.0,0.0
2391,63.0,3.0,20.0,5.0,0.0
2392,52.0,0.0,30.0,3.0,0.0
2393,40.0,6.0,30.0,4.0,0.0
2394,56.0,18.0,20.0,5.0,0.0
2395,52.0,3.0,60.0,6.0,0.0
2396,55.0,0.0,20.0,5.0,0.0
2397,49.0,0.0,30.0,3.0,0.0
2398,37.0,0.0,30.0,4.0,0.0
2399,56.0,3.0,15.0,5.0,0.0
2400,49.0,3.0,30.0,6.0,0.0
2401,55.0,18.0,15.0,5.0,0.0
2402,56.0,18.0,20.0,5.0,0.0
2403,59.0,27.0,20.0,5.0,0.0
2404,73.0,0.0,360.0,0.0,0.0
2405,70.0,0.0,360.0,1.0,0.0
2406,55.0,6.0,90.0,2.0,0.0
2407,43.0,0.0,60.0,3.0,0.0
2408,31.0,0.0,60.0,4.0,0.0
2409,52.0,24.0,20.0,5.0,0.0
2410,43.0,24.0,60.0,6.0,0.0
2411,51.0,0.0,20.0,5.0,0.0
2412,43.0,0.0,30.0,3.0,0.0
2413,31.0,0.0,30.0,4.0,0.0
2414,52.0,12.0,20.0,5.0,0.0
2415,43.0,3.0,30.0,6.0,0.0
2416,58.0,27.0,20.0,5.0,0.0
2417,64.0,6.0,90.0,2.0,0.0
2418,46.0,0.0,60.0,3.0,0.0
2419,34.0,0.0,60.0,4.0,0.0
2420,61.0,24.0,20.0,5.0,0.0
2421,46.0,24.0,60.0,6.0,0.0
2422,59.0,0.0,20.0,5.0,0.0
2423,46.0,0.0,30.0,3.0,0.0
2424,34.0,0.0,30.0,4.0,0.0
2425,61.0,12.0,20.0,5.0,0.0
2426,46.0,3.0,30.0,6.0,0.0
2427,64.0,27.0,20.0,5.0,0.0
2428,61.0,6.0,90.0,2.0,0.0
2429,49.0,0.0,60.0,3.0,0.0
2430,37.0,0.0,60.0,4.0,0.0
2431,58.0,24.0,20.0,5.0,0.0
2432,49.0,24.0,60.0,6.0,0.0
2433,56.0,0.0,20.0,5.0,0.0
2434,49.0,0.0,30.0,3.0,0.0
2435,37.0,0.0,30.0,4.0,0.0
2436,58.0,12.0,20.0,5.0,0.0
2437,49.0,3.0,30.0,6.0,0.0
2438,61.0,27.0,20.0,5.0,0.0
2439,58.0,0.0,90.0,2.0,0.0
2440,40.0,0.0,90.0,3.0,0.0
2441,28.0,0.0,90.0,4.0,0.0
2442,55.0,24.0,20.0,5.0,0.0
2443,40.0,9.0,90.0,6.0,0.0
2444,58.0,24.0,20.0,5.0,0.0
2445,61.0,12.0,20.0,5.0,0.0
2446,64.0,24.0,20.0,5.0,0.0
2447,63.0,24.0,20.0,5.0,0.0
2448,61.0,6.0,20.0,5.0,0.0
2449,76.0,0.0,30.0,0.0,0.0
2450,73.0,0.0,30.0,1.0,0.0
2451,67.0,0.0,30.0,2.0,0.0
2452,46.0,0.0,30.0,3.0,0.0
2453,34.0,3.0,30.0,4.0,0.0
2454,59.0,3.0,15.0,5.0,0.0
2455,46.0,21.0,60.0,6.0,0.0
2456,61.0,3.0,15.0,5.0,0.0
2457,59.0,3.0,15.0,5.0,0.0
2458,61.0,3.0,15.0,5.0,0.0
2459,59.0,3.0,15.0,5.0,0.0
2460,61.0,5.0,15.0,5.0,0.0
2461,59.0,19.0,15.0,5.0,0.0
2462,58.0,3.0,20.0,5.0,0.0
2463,75.0,0.0,60.0,0.0,0.0
2464,71.0,0.0,60.0,1.0,0.0
2465,68.0,0.0,60.0,2.0,0.0
2466,47.0,0.0,30.0,3.0,0.0
2467,35.0,3.0,30.0,4.0,0.0
2468,56.0,21.0,20.0,5.0,0.0
2469,47.0,21.0,60.0,6.0,0.0
2470,59.0,3.0,20.0,5.0,0.0
2471,73.0,0.0,30.0,0.0,0.0
2472,70.0,0.0,30.0,1.0,0.0
2473,63.0,0.0,30.0,2.0,0.0
2474,44.0,0.0,30.0,3.0,0.0
2475,32.0,0.0,30.0,4.0,0.0
2476,63.0,21.0,20.0,5.0,0.0
2477,44.0,3.0,30.0,6.0,0.0
2478,67.0,27.0,20.0,5.0,0.0
2479,71.0,0.0,60.0,0.0,0.0
2480,68.0,0.0,60.0,1.0,0.0
2481,65.0,0.0,60.0,2.0,0.0
2482,50.0,0.0,60.0,3.0,0.0
2483,38.0,0.0,60.0,4.0,0.0
2484,68.0,24.0,20.0,5.0,0.0
2485,50.0,21.0,60.0,6.0,0.0
2486,71.0,0.0,20.0,5.0,0.0
2487,67.0,0.0,30.0,0.0,0.0
2488,63.0,0.0,30.0,1.0,0.0
2489,63.0,0.0,30.0,2.0,0.0
2490,51.0,0.0,30.0,3.0,0.0
2491,39.0,0.0,30.0,4.0,0.0
2492,69.0,21.0,20.0,5.0,0.0
2493,51.0,3.0,30.0,6.0,0.0
2494,67.0,24.0,20.0,5.0,0.0
2495,68.0,0.0,90.0,0.0,0.0
2496,63.0,0.0,90.0,1.0,0.0
2497,56.0,0.0,90.0,2.0,0.0
2498,47.0,0.0,90.0,3.0,0.0
2499,35.0,0.0,90.0,4.0,0.0
2500,68.0,24.0,20.0,5.0,0.0
2501,47.0,9.0,90.0,6.0,0.0
2502,71.0,24.0,20.0,5.0,0.0
2503,76.0,15.0,20.0,5.0,0.0
2504,74.0,24.0,20.0,5.0,0.0
2505,75.0,24.0,20.0,5.0,0.0
2506,71.0,24.0,20.0,5.0,0.0
2507,69.0,24.0,20.0,5.0,0.0
2508,70.0,24.0,20.0,5.0,0.0
2509,75.0,21.0,60.0,0.0,0.0
2510,72.0,0.0,90.0,1.0,0.0
2511,57.0,0.0,90.0,2.0,0.0
2512,45.0,0.0,90.0,3.0,0.0
2513,33.0,0.0,90.0,4.0,0.0
2514,78.0,24.0,20.0,5.0,0.0
2515,45.0,9.0,90.0,6.0,0.0
2516,76.0,3.0,20.0,5.0,0.0
2517,77.0,12.0,20.0,0.0,0.0
2518,74.0,3.0,20.0,5.0,0.0
2519,78.0,0.0,20.0,0.0,0.0
2520,75.0,51.0,20.0,5.0,0.0
2521,75.0,24.0,90.0,0.0,0.0
2522,70.0,0.0,90.0,1.0,0.0
2523,53.0,36.0,60.0,2.0,0.0
2524,46.0,0.0,90.0,3.0,0.0
2525,34.0,0.0,90.0,4.0,0.0
2526,80.0,22.0,120.0,5.0,0.0
2527,46.0,6.0,90.0,6.0,0.0
2528,54.0,6.0,30.0,2.0,0.0
2529,74.0,7.0,60.0,0.0,0.0
2530,70.0,0.0,90.0,1.0,0.0
2531,56.0,10.0,60.0,2.0,0.0
2532,34.0,0.0,90.0,3.0,0.0
2533,22.0,0.0,90.0,4.0,0.0
2534,34.0,6.0,90.0,6.0,0.0
2535,78.0,2.0,15.0,5.0,0.0
2536,58.0,3.0,30.0,2.0,0.0
2537,77.0,5.0,15.0,5.0,0.0
2538,75.0,14.0,15.0,5.0,0.0
2539,75.0,0.0,20.0,0.0,0.0
2540,77.0,55.0,20.0,5.0,0.0
2541,75.0,0.0,90.0,0.0,0.0
2542,70.0,0.0,90.0,1.0,0.0
2543,54.0,0.0,90.0,2.0,0.0
2544,39.0,0.0,90.0,3.0,0.0
2545,27.0,0.0,90.0,4.0,0.0
2546,75.0,18.0,60.0,5.0,0.0
2547,39.0,10.0,90.0,6.0,0.0
2548,78.0,12.0,15.0,5.0,0.0
2549,77.0,2.0,15.0,5.0,0.0
2550,75.0,12.0,15.0,5.0,0.0
2551,74.0,12.0,15.0,5.0,0.0
2552,71.0,12.0,15.0,5.0,0.0
2553,70.0,12.0,15.0,5.0,0.0
2554,68.0,12.0,15.0,5.0,0.0
2555,66.0,12.0,15.0,5.0,0.0
2556,68.0,5.0,15.0,5.0,0.0
2557,70.0,3.0,15.0,5.0,0.0
2558,68.0,3.0,15.0,5.0,0.0
2559,70.0,3.0,15.0,5.0,0.0
2560,68.0,3.0,15.0,5.0,0.0
2561,70.0,3.0,15.0,5.0,0.0
2562,68.0,3.0,15.0,5.0,0.0
2563,66.0,3.0,15.0,5.0,0.0
2564,68.0,5.0,15.0,5.0,0.0
2565,70.0,6.0,15.0,5.0,0.0
2566,66.0,6.0,15.0,5.0,0.0
2567,63.0,6.0,15.0,5.0,0.0
2568,62.0,6.0,15.0,5.0,0.0
2569,63.0,6.0,15.0,5.0,0.0
2570,58.0,6.0,15.0,5.0,0.0
2571,54.0,6.0,15.0,5.0,0.0
2572,56.0,6.0,15.0,5.0,0.0
2573,58.0,6.0,15.0,5.0,0.0
2574,56.0,6.0,15.0,5.0,0.0
2575,54.0,6.0,15.0,5.0,0.0
2576,56.0,11.0,15.0,5.0,0.0
2577,58.0,12.0,15.0,5.0,0.0
2578,54.0,24.0,15.0,5.0,0.0
2579,63.0,0.0,60.0,0.0,0.0
2580,63.0,0.0,60.0,1.0,0.0
2581,63.0,0.0,60.0,2.0,0.0
2582,51.0,0.0,60.0,3.0,0.0
2583,39.0,0.0,60.0,4.0,0.0
2584,51.0,10.0,60.0,6.0,0.0
2585,54.0,12.0,15.0,5.0,0.0
2586,58.0,12.0,15.0,5.0,0.0
2587,63.0,2.0,15.0,5.0,0.0
2588,63.0,0.0,30.0,0.0,0.0
2589,63.0,0.0,30.0,1.0,0.0
2590,63.0,0.0,30.0,2.0,0.0
2591,51.0,0.0,30.0,3.0,0.0
2592,39.0,0.0,30.0,4.0,0.0
2593,66.0,12.0,15.0,5.0,0.0
2594,51.0,3.0,30.0,6.0,0.0
2595,70.0,20.0,15.0,5.0,0.0
2596,75.0,51.0,20.0,5.0,0.0
2597,66.0,0.0,60.0,0.0,0.0
2598,66.0,0.0,60.0,1.0,0.0
2599,66.0,0.0,60.0,2.0,0.0
2600,54.0,0.0,60.0,3.0,0.0
2601,42.0,0.0,60.0,4.0,0.0
2602,54.0,42.0,60.0,6.0,0.0
2603,66.0,0.0,30.0,0.0,0.0
2604,66.0,0.0,30.0,1.0,0.0
2605,66.0,0.0,30.0,2.0,0.0
2606,54.0,0.0,30.0,3.0,0.0
2607,42.0,0.0,30.0,4.0,0.0
2608,54.0,54.0,30.0,6.0,0.0
2609,70.0,0.0,60.0,0.0,0.0
2610,70.0,0.0,60.0,1.0,0.0
2611,70.0,0.0,60.0,2.0,0.0
2612,58.0,0.0,60.0,3.0,0.0
2613,46.0,0.0,60.0,4.0,0.0
2614,58.0,42.0,60.0,6.0,0.0
2615,70.0,0.0,30.0,0.0,0.0
2616,70.0,0.0,30.0,1.0,0.0
2617,70.0,0.0,30.0,2.0,0.0
2618,58.0,0.0,30.0,3.0,0.0
2619,46.0,0.0,30.0,4.0,0.0
2620,58.0,54.0,30.0,6.0,0.0
2621,59.0,0.0,60.0,0.0,0.0
2622,59.0,0.0,60.0,1.0,0.0
2623,59.0,0.0,60.0,2.0,0.0
2624,47.0,0.0,60.0,3.0,0.0
2625,35.0,0.0,60.0,4.0,0.0
2626,47.0,42.0,60.0,6.0,0.0
2627,58.0,0.0,30.0,0.0,0.0
2628,58.0,0.0,30.0,1.0,0.0
2629,58.0,0.0,30.0,2.0,0.0
2630,46.0,0.0,30.0,3.0,0.0
2631,34.0,0.0,30.0,4.0,0.0
2632,46.0,54.0,30.0,6.0,0.0
2633,58.0,0.0,60.0,0.0,0.0
2634,58.0,0.0,60.0,1.0,0.0
2635,58.0,0.0,60.0,2.0,0.0
2636,46.0,0.0,60.0,3.0,0.0
2637,34.0,0.0,60.0,4.0,0.0
2638,46.0,42.0,60.0,6.0,0.0
2639,59.0,0.0,30.0,0.0,0.0
2640,59.0,0.0,30.0,1.0,0.0
2641,59.0,0.0,30.0,2.0,0.0
2642,47.0,0.0,30.0,3.0,0.0
2643,35.0,0.0,30.0,4.0,0.0
2644,47.0,150.0,30.0,6.0,0.0
2645,65.0,0.0,60.0,0.0,0.0
2646,65.0,0.0,60.0,1.0,0.0
2647,65.0,0.0,60.0,2.0,0.0
2648,53.0,0.0,60.0,3.0,0.0
2649,41.0,0.0,60.0,4.0,0.0
2650,53.0,42.0,60.0,6.0,0.0
2651,65.0,0.0,30.0,0.0,0.0
2652,65.0,0.0,30.0,1.0,0.0
2653,65.0,0.0,30.0,2.0,0.0
2654,53.0,0.0,30.0,3.0,0.0
2655,41.0,0.0,30.0,4.0,0.0
2656,53.0,54.0,30.0,6.0,0.0
2657,68.0,0.0,60.0,0.0,0.0
2658,68.0,0.0,60.0,1.0,0.0
2659,68.0,0.0,60.0,2.0,0.0
2660,56.0,0.0,60.0,3.0,0.0
2661,44.0,0.0,60.0,4.0,0.0
2662,56.0,42.0,60.0,6.0,0.0
2663,68.0,0.0,30.0,0.0,0.0
2664,68.0,0.0,30.0,1.0,0.0
2665,68.0,0.0,30.0,2.0,0.0
2666,56.0,0.0,30.0,3.0,0.0
2667,44.0,0.0,30.0,4.0,0.0
2668,56.0,54.0,30.0,6.0,0.0
2669,71.0,0.0,60.0,0.0,0.0
2670,71.0,0.0,60.0,1.0,0.0
2671,71.0,0.0,60.0,2.0,0.0
2672,59.0,0.0,60.0,3.0,0.0
2673,47.0,0.0,60.0,4.0,0.0
2674,59.0,42.0,60.0,6.0,0.0
2675,71.0,0.0,30.0,0.0,0.0
2676,71.0,0.0,30.0,1.0,0.0
2677,71.0,0.0,30.0,2.0,0.0
2678,59.0,0.0,30.0,3.0,0.0
2679,47.0,0.0,30.0,4.0,0.0
2680,59.0,54.0,30.0,6.0,0.0
2681,62.0,0.0,60.0,0.0,0.0
2682,62.0,0.0,60.0,1.0,0.0
2683,62.0,0.0,60.0,2.0,0.0
2684,50.0,0.0,60.0,3.0,0.0
2685,38.0,0.0,60.0,4.0,0.0
2686,50.0,42.0,60.0,6.0,0.0
2687,62.0,0.0,30.0,0.0,0.0
2688,62.0,0.0,30.0,1.0,0.0
2689,62.0,0.0,30.0,2.0,0.0
2690,50.0,0.0,30.0,3.0,0.0
2691,38.0,0.0,30.0,4.0,0.0
2692,50.0,54.0,30.0,6.0,0.0
2693,65.0,0.0,60.0,0.0,0.0
2694,65.0,0.0,60.0,1.0,0.0
2695,65.0,0.0,60.0,2.0,0.0
2696,53.0,0.0,60.0,3.0,0.0
2697,41.0,0.0,60.0,4.0,0.0
2698,53.0,42.0,60.0,6.0,0.0
2699,65.0,0.0,30.0,0.0,0.0
2700,65.0,0.0,30.0,1.0,0.0
2701,65.0,0.0,30.0,2.0,0.0
2702,53.0,0.0,30.0,3.0,0.0
2703,41.0,0.0,30.0,4.0,0.0
2704,53.0,54.0,30.0,6.0,0.0
2705,68.0,0.0,60.0,0.0,0.0
2706,68.0,0.0,60.0,1.0,0.0
2707,68.0,0.0,60.0,2.0,0.0
2708,56.0,0.0,60.0,3.0,0.0
2709,44.0,0.0,60.0,4.0,0.0
2710,56.0,42.0,60.0,6.0,0.0
2711,68.0,0.0,30.0,0.0,0.0
2712,68.0,0.0,30.0,1.0,0.0
2713,68.0,0.0,30.0,2.0,0.0
2714,56.0,0.0,30.0,3.0,0.0
2715,44.0,0.0,30.0,4.0,0.0
2716,56.0,54.0,30.0,6.0,0.0
2717,58.0,0.0,60.0,0.0,0.0
2718,58.0,0.0,60.0,1.0,0.0
2719,58.0,0.0,60.0,2.0,0.0
2720,46.0,0.0,60.0,3.0,0.0
2721,34.0,0.0,60.0,4.0,0.0
2722,46.0,42.0,60.0,6.0,0.0
2723,58.0,0.0,30.0,0.0,0.0
2724,58.0,0.0,30.0,1.0,0.0
2725,58.0,0.0,30.0,2.0,0.0
2726,46.0,0.0,30.0,3.0,0.0
2727,34.0,0.0,30.0,4.0,0.0
2728,46.0,54.0,30.0,6.0,0.0
2729,62.0,0.0,60.0,0.0,0.0
2730,62.0,0.0,60.0,1.0,0.0
2731,62.0,0.0,60.0,2.0,0.0
2732,50.0,0.0,60.0,3.0,0.0
2733,38.0,0.0,60.0,4.0,0.0
2734,50.0,42.0,60.0,6.0,0.0
2735,62.0,0.0,30.0,0.0,0.0
2736,62.0,0.0,30.0,1.0,0.0
2737,62.0,0.0,30.0,2.0,0.0
2738,50.0,0.0,30.0,3.0,0.0
2739,38.0,0.0,30.0,4.0,0.0
2740,50.0,54.0,30.0,6.0,0.0
2741,65.0,0.0,60.0,0.0,0.0
2742,65.0,0.0,60.0,1.0,0.0
2743,65.0,0.0,60.0,2.0,0.0
2744,53.0,0.0,60.0,3.0,0.0
2745,41.0,0.0,60.0,4.0,0.0
2746,53.0,42.0,60.0,6.0,0.0
2747,65.0,0.0,30.0,0.0,0.0
2748,65.0,0.0,30.0,1.0,0.0
2749,65.0,0.0,30.0,2.0,0.0
2750,53.0,0.0,30.0,3.0,0.0
2751,41.0,0.0,30.0,4.0,0.0
2752,53.0,54.0,30.0,6.0,0.0
2753,54.0,0.0,60.0,0.0,0.0
2754,54.0,0.0,60.0,1.0,0.0
2755,54.0,0.0,60.0,2.0,0.0
2756,42.0,0.0,60.0,3.0,0.0
2757,30.0,0.0,60.0,4.0,0.0
2758,42.0,48.0,60.0,6.0,0.0
2759,53.0,0.0,60.0,0.0,0.0
2760,53.0,0.0,60.0,1.0,0.0
2761,53.0,0.0,60.0,2.0,0.0
2762,41.0,0.0,60.0,3.0,0.0
2763,29.0,0.0,60.0,4.0,0.0
2764,41.0,42.0,60.0,6.0,0.0
2765,54.0,0.0,30.0,0.0,0.0
2766,54.0,0.0,30.0,1.0,0.0
2767,54.0,0.0,30.0,2.0,0.0
2768,42.0,0.0,30.0,3.0,0.0
2769,30.0,0.0,30.0,4.0,0.0
2770,42.0,18.0,30.0,6.0,0.0
2771,66.0,0.0,30.0,0.0,0.0
2772,66.0,0.0,30.0,1.0,0.0
2773,66.0,0.0,30.0,2.0,0.0
2774,54.0,0.0,30.0,3.0,0.0
2775,42.0,48.0,30.0,4.0,0.0
2776,54.0,30.0,15.0,6.0,0.0
2777,62.0,0.0,30.0,0.0,0.0
2778,62.0,0.0,30.0,1.0,0.0
2779,62.0,0.0,30.0,2.0,0.0
2780,50.0,0.0,30.0,3.0,0.0
2781,38.0,0.0,30.0,4.0,0.0
2782,50.0,48.0,30.0,6.0,0.0
2783,63.0,0.0,30.0,0.0,0.0
2784,63.0,0.0,30.0,1.0,0.0
2785,63.0,0.0,30.0,2.0,0.0
2786,51.0,0.0,30.0,3.0,0.0
2787,39.0,0.0,30.0,4.0,0.0
2788,51.0,54.0,30.0,6.0,0.0
2789,56.0,0.0,60.0,0.0,0.0
2790,56.0,0.0,60.0,1.0,0.0
2791,56.0,0.0,60.0,2.0,0.0
2792,44.0,0.0,60.0,3.0,0.0
2793,32.0,0.0,60.0,4.0,0.0
2794,44.0,48.0,60.0,6.0,0.0
2795,54.0,0.0,60.0,0.0,0.0
2796,54.0,0.0,60.0,1.0,0.0
2797,54.0,0.0,60.0,2.0,0.0
2798,42.0,0.0,60.0,3.0,0.0
2799,30.0,0.0,60.0,4.0,0.0
2800,42.0,42.0,60.0,6.0,0.0
2801,56.0,0.0,30.0,0.0,0.0
2802,56.0,0.0,30.0,1.0,0.0
2803,56.0,0.0,30.0,2.0,0.0
2804,44.0,0.0,30.0,3.0,0.0
2805,32.0,0.0,30.0,4.0,0.0
2806,44.0,18.0,30.0,6.0,0.0
2807,66.0,0.0,30.0,0.0,0.0
2808,66.0,0.0,30.0,1.0,0.0
2809,66.0,0.0,30.0,2.0,0.0
2810,54.0,0.0,30.0,3.0,0.0
2811,42.0,48.0,30.0,4.0,0.0
2812,54.0,30.0,15.0,6.0,0.0
2813,62.0,0.0,30.0,0.0,0.0
2814,62.0,0.0,30.0,1.0,0.0
2815,62.0,0.0,30.0,2.0,0.0
2816,50.0,0.0,30.0,3.0,0.0
2817,38.0,0.0,30.0,4.0,0.0
2818,50.0,48.0,30.0,6.0,0.0
2819,63.0,0.0,30.0,0.0,0.0
2820,63.0,0.0,30.0,1.0,0.0
2821,63.0,0.0,30.0,2.0,0.0
2822,51.0,0.0,30.0,3.0,0.0
2823,39.0,0.0,30.0,4.0,0.0
2824,51.0,54.0,30.0,6.0,0.0
2825,58.0,0.0,60.0,0.0,0.0
2826,58.0,0.0,60.0,1.0,0.0
2827,58.0,0.0,60.0,2.0,0.0
2828,46.0,0.0,60.0,3.0,0.0
2829,34.0,0.0,60.0,4.0,0.0
2830,46.0,48.0,60.0,6.0,0.0
2831,56.0,0.0,60.0,0.0,0.0
2832,56.0,0.0,60.0,1.0,0.0
2833,56.0,0.0,60.0,2.0,0.0
2834,44.0,0.0,60.0,3.0,0.0
2835,32.0,0.0,60.0,4.0,0.0
2836,44.0,42.0,60.0,6.0,0.0
2837,58.0,0.0,30.0,0.0,0.0
2838,58.0,0.0,30.0,1.0,0.0
2839,58.0,0.0,30.0,2.0,0.0
2840,46.0,0.0,30.0,3.0,0.0
2841,34.0,0.0,30.0,4.0,0.0
2842,46.0,18.0,30.0,6.0,0.0
2843,66.0,0.0,30.0,0.0,0.0
2844,66.0,0.0,30.0,1.0,0.0
2845,66.0,0.0,30.0,2.0,0.0
2846,54.0,0.0,30.0,3.0,0.0
2847,42.0,48.0,30.0,4.0,0.0
2848,54.0,30.0,15.0,6.0,0.0
2849,62.0,0.0,30.0,0.0,0.0
2850,62.0,0.0,30.0,1.0,0.0
2851,62.0,0.0,30.0,2.0,0.0
2852,50.0,0.0,30.0,3.0,0.0
2853,38.0,0.0,30.0,4.0,0.0
2854,50.0,48.0,30.0,6.0,0.0
2855,63.0,0.0,30.0,0.0,0.0
2856,63.0,0.0,30.0,1.0,0.0
2857,63.0,0.0,30.0,2.0,0.0
2858,51.0,0.0,30.0,3.0,0.0
2859,39.0,0.0,30.0,4.0,0.0
2860,51.0,90.0,30.0,6.0,0.0
2861,59.0,0.0,90.0,0.0,0.0
2862,59.0,0.0,90.0,1.0,0.0
2863,59.0,0.0,90.0,2.0,0.0
2864,47.0,0.0,90.0,3.0,0.0
2865,35.0,0.0,90.0,4.0,0.0
2866,47.0,102.0,90.0,6.0,0.0
2867,63.0,0.0,30.0,0.0,0.0
2868,63.0,0.0,30.0,1.0,0.0
2869,63.0,0.0,30.0,2.0,0.0
2870,51.0,0.0,30.0,3.0,0.0
2871,39.0,6.0,30.0,4.0,0.0
2872,51.0,42.0,60.0,6.0,0.0
2873,64.0,0.0,30.0,0.0,0.0
2874,64.0,0.0,30.0,1.0,0.0
2875,64.0,0.0,30.0,2.0,0.0
2876,52.0,0.0,30.0,3.0,0.0
2877,40.0,6.0,30.0,4.0,0.0
2878,52.0,42.0,60.0,6.0,0.0
2879,61.0,0.0,30.0,0.0,0.0
2880,61.0,0.0,30.0,1.0,0.0
2881,61.0,0.0,30.0,2.0,0.0
2882,49.0,0.0,30.0,3.0,0.0
2883,37.0,0.0,30.0,4.0,0.0
2884,49.0,54.0,30.0,6.0,0.0
2885,55.0,0.0,60.0,0.0,0.0
2886,55.0,0.0,60.0,1.0,0.0
2887,55.0,0.0,60.0,2.0,0.0
2888,43.0,0.0,60.0,3.0,0.0
2889,31.0,0.0,60.0,4.0,0.0
2890,43.0,42.0,60.0,6.0,0.0
2891,55.0,0.0,30.0,0.0,0.0
2892,55.0,0.0,30.0,1.0,0.0
2893,55.0,0.0,30.0,2.0,0.0
2894,43.0,0.0,30.0,3.0,0.0
2895,31.0,0.0,30.0,4.0,0.0
2896,43.0,54.0,30.0,6.0,0.0
2897,58.0,0.0,60.0,0.0,0.0
2898,58.0,0.0,60.0,1.0,0.0
2899,58.0,0.0,60.0,2.0,0.0
2900,46.0,0.0,60.0,3.0,0.0
2901,34.0,0.0,60.0,4.0,0.0
2902,46.0,42.0,60.0,6.0,0.0
2903,58.0,0.0,30.0,0.0,0.0
2904,58.0,0.0,30.0,1.0,0.0
2905,58.0,0.0,30.0,2.0,0.0
2906,46.0,0.0,30.0,3.0,0.0
2907,34.0,0.0,30.0,4.0,0.0
2908,46.0,54.0,30.0,6.0,0.0
2909,61.0,0.0,60.0,0.0,0.0
2910,61.0,0.0,60.0,1.0,0.0
2911,61.0,0.0,60.0,2.0,0.0
2912,49.0,0.0,60.0,3.0,0.0
2913,37.0,0.0,60.0,4.0,0.0
2914,49.0,42.0,60.0,6.0,0.0
2915,61.0,0.0,30.0,0.0,0.0
2916,61.0,0.0,30.0,1.0,0.0
2917,61.0,0.0,30.0,2.0,0.0
2918,49.0,0.0,30.0,3.0,0.0
2919,37.0,0.0,30.0,4.0,0.0
2920,49.0,90.0,30.0,6.0,0.0
2921,52.0,0.0,90.0,0.0,0.0
2922,52.0,0.0,90.0,1.0,0.0
2923,52.0,0.0,90.0,2.0,0.0
2924,40.0,0.0,90.0,3.0,0.0
2925,28.0,0.0,90.0,4.0,0.0
2926,40.0,102.0,90.0,6.0,0.0
2927,58.0,0.0,30.0,0.0,0.0
2928,58.0,0.0,30.0,1.0,0.0
2929,58.0,0.0,30.0,2.0,0.0
2930,46.0,0.0,30.0,3.0,0.0
2931,34.0,0.0,30.0,4.0,0.0
2932,46.0,48.0,30.0,6.0,0.0
2933,59.0,0.0,30.0,0.0,0.0
2934,59.0,0.0,30.0,1.0,0.0
2935,59.0,0.0,30.0,2.0,0.0
2936,47.0,0.0,30.0,3.0,0.0
2937,35.0,0.0,30.0,4.0,0.0
2938,47.0,48.0,30.0,6.0,0.0
2939,56.0,0.0,30.0,0.0,0.0
2940,56.0,0.0,30.0,1.0,0.0
2941,56.0,0.0,30.0,2.0,0.0
2942,44.0,0.0,30.0,3.0,0.0
2943,32.0,0.0,30.0,4.0,0.0
2944,44.0,48.0,30.0,6.0,0.0
2945,62.0,0.0,30.0,0.0,0.0
2946,62.0,0.0,30.0,1.0,0.0
2947,62.0,0.0,30.0,2.0,0.0
2948,50.0,0.0,30.0,3.0,0.0
2949,38.0,0.0,30.0,4.0,0.0
2950,50.0,48.0,30.0,6.0,0.0
2951,63.0,0.0,30.0,0.0,0.0
2952,63.0,0.0,30.0,1.0,0.0
2953,63.0,0.0,30.0,2.0,0.0
2954,51.0,0.0,30.0,3.0,0.0
2955,39.0,0.0,30.0,4.0,0.0
2956,51.0,90.0,30.0,6.0,0.0
2957,58.0,0.0,90.0,0.0,0.0
2958,58.0,0.0,90.0,1.0,0.0
2959,58.0,0.0,90.0,2.0,0.0
2960,46.0,0.0,90.0,3.0,0.0
2961,34.0,0.0,90.0,4.0,0.0
2962,46.0,96.0,90.0,6.0,0.0
2963,58.0,0.0,90.0,0.0,0.0
2964,58.0,0.0,90.0,1.0,0.0
2965,46.0,0.0,90.0,2.0,0.0
2966,34.0,0.0,90.0,3.0,0.0
2967,22.0,0.0,90.0,4.0,0.0
2968,34.0,108.0,90.0,6.0,0.0
2969,51.0,0.0,90.0,0.0,0.0
2970,51.0,0.0,90.0,1.0,0.0
2971,51.0,0.0,90.0,2.0,0.0
2972,39.0,0.0,90.0,3.0,0.0
2973,27.0,0.0,90.0,4.0,0.0
2974,39.0,192.0,90.0,6.0,0.0
