,note,step,duration,channel,velocity
0,70.0,120.0,120.0,1.0,0.0
1,66.0,120.0,120.0,1.0,0.0
2,63.0,120.0,120.0,1.0,0.0
3,71.0,100.0,120.0,1.0,0.0
4,70.0,140.0,90.0,1.0,0.0
5,75.0,100.0,120.0,1.0,0.0
6,74.0,140.0,90.0,1.0,0.0
7,68.0,100.0,120.0,1.0,0.0
8,67.0,140.0,90.0,1.0,0.0
9,76.0,100.0,120.0,1.0,0.0
10,75.0,140.0,90.0,1.0,0.0
11,70.0,100.0,120.0,1.0,0.0
12,69.0,140.0,90.0,1.0,0.0
13,78.0,100.0,120.0,1.0,0.0
14,77.0,140.0,90.0,1.0,0.0
15,76.0,120.0,120.0,1.0,0.0
16,77.0,120.0,120.0,1.0,0.0
17,73.0,120.0,120.0,1.0,0.0
18,70.0,15.0,120.0,1.0,0.0
19,73.0,15.0,15.0,1.0,0.0
20,72.0,15.0,15.0,1.0,0.0
21,73.0,15.0,15.0,1.0,0.0
22,72.0,15.0,15.0,1.0,0.0
23,73.0,15.0,15.0,1.0,0.0
24,72.0,15.0,15.0,1.0,0.0
25,73.0,15.0,15.0,1.0,0.0
26,72.0,15.0,15.0,1.0,0.0
27,73.0,15.0,15.0,1.0,0.0
28,72.0,15.0,15.0,1.0,0.0
29,73.0,15.0,15.0,1.0,0.0
30,72.0,15.0,15.0,1.0,0.0
31,73.0,15.0,15.0,1.0,0.0
32,72.0,15.0,15.0,1.0,0.0
33,73.0,15.0,15.0,1.0,0.0
34,72.0,15.0,15.0,1.0,0.0
35,73.0,15.0,15.0,1.0,0.0
36,72.0,15.0,15.0,1.0,0.0
37,73.0,15.0,15.0,1.0,0.0
38,72.0,15.0,15.0,1.0,0.0
39,73.0,15.0,15.0,1.0,0.0
40,72.0,15.0,15.0,1.0,0.0
41,73.0,15.0,15.0,1.0,0.0
42,72.0,15.0,15.0,1.0,0.0
43,73.0,15.0,15.0,1.0,0.0
44,72.0,15.0,15.0,1.0,0.0
45,73.0,15.0,15.0,1.0,0.0
46,72.0,15.0,15.0,1.0,0.0
47,73.0,15.0,15.0,1.0,0.0
48,72.0,15.0,15.0,1.0,0.0
49,73.0,15.0,15.0,1.0,0.0
50,72.0,180.0,15.0,1.0,0.0
51,70.0,60.0,180.0,1.0,0.0
52,63.0,60.0,120.0,2.0,0.0
53,69.0,0.0,60.0,1.0,0.0
54,70.0,60.0,60.0,1.0,0.0
55,61.0,60.0,120.0,2.0,0.0
56,72.0,0.0,60.0,1.0,0.0
57,73.0,60.0,60.0,1.0,0.0
58,58.0,60.0,120.0,2.0,0.0
59,77.0,0.0,60.0,1.0,0.0
60,66.0,60.0,120.0,2.0,0.0
61,75.0,60.0,60.0,1.0,0.0
62,72.0,0.0,60.0,1.0,0.0
63,73.0,40.0,60.0,1.0,0.0
64,63.0,20.0,90.0,2.0,0.0
65,76.0,120.0,60.0,1.0,0.0
66,68.0,100.0,120.0,2.0,0.0
67,82.0,120.0,240.0,1.0,0.0
68,67.0,20.0,90.0,2.0,0.0
69,80.0,120.0,240.0,1.0,0.0
70,61.0,100.0,120.0,2.0,0.0
71,60.0,20.0,90.0,2.0,0.0
72,69.0,100.0,120.0,2.0,0.0
73,78.0,120.0,240.0,1.0,0.0
74,68.0,20.0,90.0,2.0,0.0
75,77.0,120.0,240.0,1.0,0.0
76,63.0,100.0,120.0,2.0,0.0
77,62.0,20.0,90.0,2.0,0.0
78,71.0,100.0,120.0,2.0,0.0
79,75.0,120.0,360.0,1.0,0.0
80,70.0,140.0,90.0,2.0,0.0
81,69.0,0.0,120.0,2.0,0.0
82,70.0,120.0,120.0,2.0,0.0
83,74.0,0.0,120.0,1.0,0.0
84,75.0,60.0,300.0,1.0,0.0
85,66.0,120.0,120.0,2.0,0.0
86,63.0,60.0,120.0,2.0,0.0
87,65.0,60.0,480.0,2.0,0.0
88,77.0,60.0,60.0,1.0,0.0
89,78.0,60.0,60.0,1.0,0.0
90,80.0,60.0,60.0,1.0,0.0
91,82.0,60.0,60.0,1.0,0.0
92,83.0,60.0,60.0,1.0,0.0
93,75.0,60.0,60.0,1.0,0.0
94,74.0,0.0,60.0,1.0,0.0
95,78.0,120.0,600.0,1.0,0.0
96,63.0,60.0,60.0,2.0,0.0
97,70.0,60.0,60.0,2.0,0.0
98,72.0,60.0,60.0,2.0,0.0
99,74.0,60.0,60.0,2.0,0.0
100,75.0,60.0,60.0,2.0,0.0
101,77.0,60.0,60.0,2.0,0.0
102,70.0,60.0,60.0,2.0,0.0
103,69.0,120.0,60.0,2.0,0.0
104,73.0,120.0,600.0,2.0,0.0
105,76.0,120.0,120.0,1.0,0.0
106,75.0,120.0,120.0,1.0,0.0
107,79.0,120.0,120.0,1.0,0.0
108,80.0,120.0,600.0,1.0,0.0
109,71.0,120.0,120.0,2.0,0.0
110,70.0,120.0,120.0,2.0,0.0
111,74.0,120.0,120.0,2.0,0.0
112,75.0,60.0,600.0,2.0,0.0
113,78.0,120.0,120.0,1.0,0.0
114,77.0,120.0,120.0,1.0,0.0
115,81.0,120.0,120.0,1.0,0.0
116,82.0,60.0,180.0,1.0,0.0
117,58.0,0.0,120.0,3.0,0.0
118,74.0,60.0,120.0,2.0,0.0
119,83.0,0.0,60.0,1.0,0.0
120,54.0,60.0,120.0,3.0,0.0
121,82.0,60.0,60.0,1.0,0.0
122,75.0,60.0,240.0,2.0,0.0
123,80.0,0.0,60.0,1.0,0.0
124,78.0,60.0,60.0,1.0,0.0
125,51.0,0.0,120.0,3.0,0.0
126,75.0,0.0,60.0,1.0,0.0
127,77.0,60.0,60.0,1.0,0.0
128,59.0,60.0,120.0,3.0,0.0
129,80.0,0.0,60.0,1.0,0.0
130,78.0,40.0,60.0,1.0,0.0
131,58.0,20.0,90.0,3.0,0.0
132,75.0,120.0,60.0,1.0,0.0
133,77.0,120.0,240.0,2.0,0.0
134,63.0,100.0,120.0,3.0,0.0
135,70.0,0.0,120.0,1.0,0.0
136,82.0,40.0,300.0,1.0,0.0
137,62.0,20.0,90.0,3.0,0.0
138,75.0,0.0,240.0,2.0,0.0
139,56.0,60.0,120.0,3.0,0.0
140,55.0,20.0,90.0,3.0,0.0
141,83.0,60.0,60.0,1.0,0.0
142,82.0,60.0,60.0,1.0,0.0
143,64.0,0.0,120.0,3.0,0.0
144,73.0,0.0,240.0,2.0,0.0
145,80.0,60.0,60.0,1.0,0.0
146,79.0,40.0,60.0,1.0,0.0
147,63.0,20.0,90.0,3.0,0.0
148,77.0,60.0,60.0,1.0,0.0
149,72.0,0.0,240.0,2.0,0.0
150,58.0,120.0,120.0,3.0,0.0
151,75.0,30.0,60.0,1.0,0.0
152,77.0,30.0,30.0,1.0,0.0
153,78.0,0.0,30.0,1.0,0.0
154,77.0,60.0,180.0,1.0,0.0
155,57.0,60.0,120.0,3.0,0.0
156,70.0,120.0,360.0,2.0,0.0
157,66.0,0.0,120.0,3.0,0.0
158,75.0,60.0,60.0,1.0,0.0
159,65.0,0.0,120.0,3.0,0.0
160,73.0,60.0,60.0,1.0,0.0
161,78.0,120.0,60.0,1.0,0.0
162,64.0,0.0,120.0,3.0,0.0
163,72.0,120.0,240.0,1.0,0.0
164,69.0,0.0,120.0,2.0,0.0
165,65.0,0.0,120.0,3.0,0.0
166,61.0,120.0,120.0,3.0,0.0
167,70.0,60.0,300.0,2.0,0.0
168,73.0,0.0,240.0,1.0,0.0
169,58.0,60.0,120.0,3.0,0.0
170,60.0,0.0,480.0,3.0,0.0
171,75.0,0.0,720.0,1.0,0.0
172,72.0,60.0,60.0,2.0,0.0
173,73.0,60.0,60.0,2.0,0.0
174,75.0,60.0,60.0,2.0,0.0
175,77.0,60.0,60.0,2.0,0.0
176,78.0,60.0,60.0,2.0,0.0
177,70.0,60.0,60.0,2.0,0.0
178,69.0,60.0,60.0,2.0,0.0
179,58.0,60.0,60.0,3.0,0.0
180,70.0,0.0,720.0,2.0,0.0
181,58.0,60.0,60.0,3.0,0.0
182,59.0,60.0,60.0,3.0,0.0
183,61.0,60.0,60.0,3.0,0.0
184,73.0,0.0,240.0,1.0,0.0
185,63.0,60.0,60.0,3.0,0.0
186,64.0,60.0,60.0,3.0,0.0
187,56.0,60.0,60.0,3.0,0.0
188,55.0,60.0,60.0,3.0,0.0
189,72.0,0.0,480.0,1.0,0.0
190,56.0,60.0,60.0,3.0,0.0
191,58.0,60.0,60.0,3.0,0.0
192,59.0,60.0,60.0,3.0,0.0
193,56.0,60.0,60.0,3.0,0.0
194,68.0,60.0,420.0,2.0,0.0
195,62.0,60.0,60.0,3.0,0.0
196,63.0,60.0,60.0,3.0,0.0
197,54.0,60.0,60.0,3.0,0.0
198,53.0,120.0,60.0,3.0,0.0
199,70.0,0.0,480.0,1.0,0.0
200,54.0,60.0,120.0,3.0,0.0
201,51.0,60.0,120.0,3.0,0.0
202,75.0,0.0,120.0,0.0,0.0
203,66.0,0.0,60.0,2.0,0.0
204,65.0,60.0,60.0,2.0,0.0
205,73.0,60.0,120.0,0.0,0.0
206,58.0,0.0,480.0,3.0,0.0
207,63.0,0.0,60.0,2.0,0.0
208,61.0,60.0,60.0,2.0,0.0
209,70.0,0.0,120.0,0.0,0.0
210,58.0,60.0,60.0,2.0,0.0
211,78.0,0.0,120.0,0.0,0.0
212,69.0,0.0,120.0,1.0,0.0
213,60.0,60.0,60.0,2.0,0.0
214,63.0,60.0,60.0,2.0,0.0
215,67.0,0.0,120.0,1.0,0.0
216,75.0,120.0,120.0,0.0,0.0
217,61.0,60.0,60.0,2.0,0.0
218,58.0,0.0,60.0,2.0,0.0
219,64.0,0.0,120.0,2.0,0.0
220,80.0,60.0,120.0,0.0,0.0
221,58.0,0.0,240.0,3.0,0.0
222,79.0,0.0,120.0,0.0,0.0
223,63.0,60.0,60.0,2.0,0.0
224,61.0,120.0,60.0,2.0,0.0
225,73.0,120.0,120.0,0.0,0.0
226,79.0,0.0,120.0,1.0,0.0
227,56.0,0.0,240.0,3.0,0.0
228,63.0,0.0,480.0,2.0,0.0
229,80.0,0.0,120.0,1.0,0.0
230,72.0,120.0,120.0,0.0,0.0
231,81.0,120.0,120.0,0.0,0.0
232,54.0,0.0,240.0,3.0,0.0
233,80.0,120.0,120.0,0.0,0.0
234,53.0,0.0,240.0,3.0,0.0
235,56.0,0.0,240.0,2.0,0.0
236,75.0,120.0,120.0,0.0,0.0
237,80.0,60.0,120.0,1.0,0.0
238,74.0,0.0,120.0,0.0,0.0
239,63.0,0.0,120.0,2.0,0.0
240,51.0,0.0,360.0,3.0,0.0
241,78.0,60.0,60.0,1.0,0.0
242,83.0,60.0,120.0,0.0,0.0
243,77.0,0.0,60.0,1.0,0.0
244,61.0,0.0,120.0,2.0,0.0
245,82.0,120.0,120.0,0.0,0.0
246,78.0,60.0,60.0,1.0,0.0
247,75.0,0.0,60.0,1.0,0.0
248,77.0,120.0,240.0,1.0,0.0
249,81.0,0.0,120.0,0.0,0.0
250,60.0,120.0,120.0,2.0,0.0
251,50.0,0.0,120.0,3.0,0.0
252,58.0,0.0,120.0,2.0,0.0
253,82.0,0.0,120.0,0.0,0.0
254,51.0,60.0,300.0,3.0,0.0
255,78.0,0.0,120.0,0.0,0.0
256,70.0,0.0,120.0,2.0,0.0
257,75.0,120.0,120.0,1.0,0.0
258,70.0,60.0,120.0,1.0,0.0
259,75.0,0.0,120.0,0.0,0.0
260,66.0,0.0,120.0,2.0,0.0
261,77.0,70.0,540.0,0.0,0.0
262,71.0,0.0,600.0,1.0,0.0
263,68.0,0.0,480.0,2.0,0.0
264,53.0,60.0,60.0,3.0,0.0
265,54.0,60.0,60.0,3.0,0.0
266,56.0,60.0,60.0,3.0,0.0
267,58.0,60.0,60.0,3.0,0.0
268,59.0,60.0,60.0,3.0,0.0
269,51.0,60.0,60.0,3.0,0.0
270,50.0,50.0,60.0,3.0,0.0
271,54.0,60.0,540.0,3.0,0.0
272,77.0,60.0,60.0,0.0,0.0
273,65.0,0.0,360.0,1.0,0.0
274,78.0,60.0,60.0,0.0,0.0
275,80.0,60.0,60.0,0.0,0.0
276,82.0,60.0,60.0,0.0,0.0
277,62.0,0.0,120.0,2.0,0.0
278,83.0,60.0,60.0,0.0,0.0
279,58.0,60.0,120.0,2.0,0.0
280,75.0,60.0,60.0,0.0,0.0
281,74.0,0.0,60.0,0.0,0.0
282,70.0,60.0,240.0,1.0,0.0
283,75.0,60.0,540.0,0.0,0.0
284,66.0,60.0,480.0,2.0,0.0
285,50.0,60.0,60.0,3.0,0.0
286,51.0,60.0,60.0,3.0,0.0
287,53.0,0.0,60.0,3.0,0.0
288,72.0,0.0,480.0,1.0,0.0
289,54.0,60.0,60.0,3.0,0.0
290,56.0,60.0,60.0,3.0,0.0
291,46.0,60.0,60.0,3.0,0.0
292,45.0,0.0,60.0,3.0,0.0
293,65.0,0.0,480.0,2.0,0.0
294,46.0,60.0,240.0,3.0,0.0
295,69.0,60.0,60.0,0.0,0.0
296,70.0,60.0,60.0,0.0,0.0
297,72.0,0.0,60.0,0.0,0.0
298,73.0,60.0,60.0,0.0,0.0
299,58.0,0.0,120.0,3.0,0.0
300,70.0,0.0,120.0,1.0,0.0
301,75.0,60.0,60.0,0.0,0.0
302,61.0,0.0,120.0,3.0,0.0
303,77.0,60.0,60.0,0.0,0.0
304,70.0,60.0,60.0,0.0,0.0
305,78.0,60.0,60.0,0.0,0.0
306,63.0,0.0,120.0,3.0,0.0
307,80.0,60.0,60.0,0.0,0.0
308,63.0,60.0,60.0,2.0,0.0
309,82.0,60.0,240.0,0.0,0.0
310,54.0,60.0,120.0,3.0,0.0
311,61.0,0.0,60.0,2.0,0.0
312,56.0,0.0,120.0,3.0,0.0
313,60.0,60.0,60.0,2.0,0.0
314,61.0,0.0,60.0,2.0,0.0
315,63.0,0.0,240.0,2.0,0.0
316,80.0,60.0,60.0,0.0,0.0
317,60.0,60.0,120.0,3.0,0.0
318,78.0,0.0,60.0,0.0,0.0
319,77.0,60.0,60.0,0.0,0.0
320,61.0,60.0,120.0,3.0,0.0
321,78.0,0.0,60.0,0.0,0.0
322,53.0,0.0,120.0,3.0,0.0
323,80.0,0.0,240.0,0.0,0.0
324,61.0,60.0,60.0,2.0,0.0
325,60.0,60.0,60.0,2.0,0.0
326,54.0,60.0,120.0,3.0,0.0
327,58.0,60.0,60.0,2.0,0.0
328,60.0,0.0,60.0,2.0,0.0
329,78.0,60.0,60.0,0.0,0.0
330,61.0,60.0,240.0,2.0,0.0
331,58.0,60.0,120.0,3.0,0.0
332,77.0,0.0,60.0,0.0,0.0
333,60.0,0.0,120.0,3.0,0.0
334,75.0,60.0,60.0,0.0,0.0
335,77.0,0.0,60.0,0.0,0.0
336,60.0,60.0,60.0,2.0,0.0
337,78.0,60.0,240.0,0.0,0.0
338,51.0,0.0,120.0,3.0,0.0
339,58.0,60.0,60.0,2.0,0.0
340,53.0,0.0,120.0,3.0,0.0
341,57.0,60.0,60.0,2.0,0.0
342,58.0,0.0,60.0,2.0,0.0
343,57.0,120.0,120.0,3.0,0.0
344,77.0,60.0,60.0,0.0,0.0
345,60.0,0.0,120.0,2.0,0.0
346,75.0,0.0,60.0,0.0,0.0
347,73.0,120.0,240.0,0.0,0.0
348,58.0,120.0,120.0,3.0,0.0
349,75.0,0.0,60.0,1.0,0.0
350,77.0,0.0,240.0,1.0,0.0
351,49.0,0.0,120.0,3.0,0.0
352,51.0,60.0,120.0,3.0,0.0
353,70.0,0.0,120.0,2.0,0.0
354,66.0,60.0,120.0,2.0,0.0
355,82.0,0.0,240.0,0.0,0.0
356,54.0,0.0,120.0,3.0,0.0
357,75.0,60.0,60.0,1.0,0.0
358,73.0,0.0,60.0,1.0,0.0
359,56.0,0.0,120.0,3.0,0.0
360,71.0,60.0,60.0,1.0,0.0
361,63.0,0.0,120.0,2.0,0.0
362,73.0,60.0,60.0,1.0,0.0
363,47.0,60.0,120.0,3.0,0.0
364,75.0,0.0,240.0,1.0,0.0
365,80.0,60.0,60.0,0.0,0.0
366,78.0,0.0,60.0,0.0,0.0
367,77.0,60.0,60.0,0.0,0.0
368,49.0,60.0,120.0,3.0,0.0
369,78.0,0.0,60.0,0.0,0.0
370,53.0,0.0,120.0,3.0,0.0
371,73.0,60.0,60.0,1.0,0.0
372,80.0,0.0,240.0,0.0,0.0
373,71.0,60.0,60.0,1.0,0.0
374,54.0,0.0,120.0,3.0,0.0
375,70.0,60.0,60.0,1.0,0.0
376,71.0,60.0,60.0,1.0,0.0
377,78.0,60.0,60.0,0.0,0.0
378,73.0,0.0,240.0,1.0,0.0
379,46.0,60.0,120.0,3.0,0.0
380,77.0,0.0,60.0,0.0,0.0
381,47.0,60.0,120.0,3.0,0.0
382,75.0,60.0,60.0,0.0,0.0
383,77.0,0.0,60.0,0.0,0.0
384,71.0,60.0,60.0,1.0,0.0
385,78.0,0.0,240.0,0.0,0.0
386,51.0,60.0,120.0,3.0,0.0
387,70.0,0.0,60.0,1.0,0.0
388,68.0,60.0,60.0,1.0,0.0
389,53.0,60.0,120.0,3.0,0.0
390,70.0,0.0,60.0,1.0,0.0
391,77.0,60.0,60.0,0.0,0.0
392,44.0,60.0,120.0,3.0,0.0
393,71.0,0.0,240.0,1.0,0.0
394,75.0,0.0,60.0,0.0,0.0
395,74.0,60.0,60.0,0.0,0.0
396,46.0,0.0,120.0,3.0,0.0
397,75.0,60.0,60.0,0.0,0.0
398,70.0,60.0,60.0,1.0,0.0
399,50.0,0.0,120.0,3.0,0.0
400,77.0,60.0,240.0,0.0,0.0
401,68.0,120.0,60.0,1.0,0.0
402,51.0,60.0,300.0,3.0,0.0
403,66.0,0.0,240.0,1.0,0.0
404,70.0,60.0,120.0,1.0,0.0
405,75.0,60.0,60.0,0.0,0.0
406,74.0,0.0,60.0,0.0,0.0
407,66.0,60.0,120.0,1.0,0.0
408,75.0,60.0,300.0,0.0,0.0
409,53.0,0.0,60.0,3.0,0.0
410,54.0,60.0,60.0,3.0,0.0
411,63.0,0.0,120.0,1.0,0.0
412,58.0,60.0,60.0,3.0,0.0
413,71.0,0.0,120.0,1.0,0.0
414,56.0,0.0,60.0,3.0,0.0
415,53.0,60.0,60.0,3.0,0.0
416,74.0,0.0,60.0,0.0,0.0
417,70.0,0.0,120.0,1.0,0.0
418,75.0,0.0,60.0,0.0,0.0
419,54.0,60.0,60.0,3.0,0.0
420,78.0,0.0,60.0,0.0,0.0
421,58.0,60.0,60.0,3.0,0.0
422,77.0,60.0,240.0,0.0,0.0
423,75.0,60.0,120.0,1.0,0.0
424,59.0,60.0,60.0,3.0,0.0
425,56.0,0.0,60.0,3.0,0.0
426,74.0,0.0,120.0,1.0,0.0
427,58.0,60.0,60.0,3.0,0.0
428,62.0,0.0,60.0,3.0,0.0
429,63.0,60.0,60.0,3.0,0.0
430,75.0,0.0,240.0,0.0,0.0
431,68.0,60.0,120.0,1.0,0.0
432,59.0,0.0,60.0,3.0,0.0
433,58.0,60.0,60.0,3.0,0.0
434,67.0,120.0,120.0,1.0,0.0
435,56.0,0.0,60.0,3.0,0.0
436,55.0,60.0,180.0,3.0,0.0
437,73.0,60.0,240.0,0.0,0.0
438,76.0,60.0,120.0,1.0,0.0
439,75.0,0.0,120.0,1.0,0.0
440,53.0,0.0,60.0,3.0,0.0
441,54.0,60.0,60.0,3.0,0.0
442,72.0,0.0,240.0,0.0,0.0
443,70.0,0.0,120.0,1.0,0.0
444,56.0,60.0,60.0,3.0,0.0
445,54.0,60.0,60.0,3.0,0.0
446,69.0,60.0,120.0,1.0,0.0
447,53.0,0.0,60.0,3.0,0.0
448,51.0,60.0,60.0,3.0,0.0
449,78.0,60.0,120.0,1.0,0.0
450,70.0,0.0,360.0,0.0,0.0
451,49.0,0.0,60.0,3.0,0.0
452,48.0,60.0,60.0,3.0,0.0
453,77.0,0.0,120.0,1.0,0.0
454,46.0,60.0,60.0,3.0,0.0
455,48.0,60.0,60.0,3.0,0.0
456,76.0,60.0,120.0,1.0,0.0
457,51.0,0.0,60.0,3.0,0.0
458,49.0,60.0,60.0,3.0,0.0
459,77.0,60.0,120.0,1.0,0.0
460,69.0,0.0,120.0,0.0,0.0
461,48.0,0.0,60.0,3.0,0.0
462,46.0,60.0,60.0,3.0,0.0
463,73.0,0.0,120.0,1.0,0.0
464,49.0,60.0,60.0,3.0,0.0
465,70.0,0.0,15.0,0.0,0.0
466,54.0,60.0,60.0,3.0,0.0
467,53.0,60.0,60.0,3.0,0.0
468,51.0,0.0,120.0,3.0,0.0
469,72.0,0.0,480.0,1.0,0.0
470,72.0,60.0,60.0,0.0,0.0
471,48.0,60.0,120.0,3.0,0.0
472,73.0,60.0,60.0,0.0,0.0
473,75.0,0.0,60.0,0.0,0.0
474,77.0,60.0,60.0,0.0,0.0
475,53.0,0.0,120.0,3.0,0.0
476,78.0,60.0,60.0,0.0,0.0
477,70.0,60.0,60.0,0.0,0.0
478,41.0,60.0,120.0,3.0,0.0
479,69.0,0.0,60.0,0.0,0.0
480,73.0,0.0,600.0,1.0,0.0
481,70.0,0.0,240.0,0.0,0.0
482,58.0,60.0,60.0,3.0,0.0
483,59.0,60.0,60.0,3.0,0.0
484,61.0,60.0,60.0,3.0,0.0
485,63.0,60.0,60.0,3.0,0.0
486,64.0,60.0,60.0,3.0,0.0
487,82.0,120.0,360.0,0.0,0.0
488,66.0,60.0,60.0,3.0,0.0
489,56.0,60.0,60.0,3.0,0.0
490,55.0,120.0,60.0,3.0,0.0
491,59.0,60.0,540.0,3.0,0.0
492,76.0,0.0,120.0,1.0,0.0
493,80.0,120.0,120.0,0.0,0.0
494,75.0,0.0,120.0,1.0,0.0
495,79.0,120.0,120.0,0.0,0.0
496,82.0,60.0,120.0,0.0,0.0
497,79.0,0.0,120.0,1.0,0.0
498,83.0,120.0,600.0,0.0,0.0
499,80.0,0.0,600.0,1.0,0.0
500,51.0,60.0,60.0,3.0,0.0
501,53.0,60.0,60.0,3.0,0.0
502,54.0,60.0,60.0,3.0,0.0
503,56.0,60.0,60.0,3.0,0.0
504,58.0,60.0,60.0,3.0,0.0
505,51.0,60.0,60.0,3.0,0.0
506,50.0,120.0,60.0,3.0,0.0
507,51.0,0.0,600.0,3.0,0.0
508,82.0,0.0,120.0,0.0,0.0
509,78.0,120.0,120.0,1.0,0.0
510,81.0,120.0,120.0,0.0,0.0
511,77.0,0.0,120.0,1.0,0.0
512,84.0,120.0,120.0,0.0,0.0
513,81.0,0.0,120.0,1.0,0.0
514,82.0,0.0,240.0,1.0,0.0
515,77.0,60.0,120.0,0.0,0.0
516,78.0,60.0,60.0,0.0,0.0
517,50.0,0.0,120.0,3.0,0.0
518,80.0,60.0,60.0,0.0,0.0
519,78.0,60.0,60.0,0.0,0.0
520,51.0,0.0,120.0,3.0,0.0
521,80.0,60.0,60.0,0.0,0.0
522,54.0,60.0,120.0,3.0,0.0
523,82.0,60.0,240.0,0.0,0.0
524,75.0,60.0,60.0,1.0,0.0
525,73.0,0.0,60.0,1.0,0.0
526,71.0,60.0,60.0,1.0,0.0
527,56.0,0.0,120.0,3.0,0.0
528,73.0,0.0,60.0,1.0,0.0
529,47.0,60.0,120.0,3.0,0.0
530,75.0,0.0,240.0,1.0,0.0
531,80.0,60.0,60.0,0.0,0.0
532,78.0,0.0,60.0,0.0,0.0
533,77.0,60.0,60.0,0.0,0.0
534,49.0,60.0,120.0,3.0,0.0
535,78.0,0.0,60.0,0.0,0.0
536,73.0,60.0,60.0,1.0,0.0
537,80.0,0.0,240.0,0.0,0.0
538,53.0,60.0,120.0,3.0,0.0
539,71.0,0.0,60.0,1.0,0.0
540,70.0,60.0,60.0,1.0,0.0
541,54.0,60.0,120.0,3.0,0.0
542,71.0,0.0,60.0,1.0,0.0
543,73.0,60.0,240.0,1.0,0.0
544,78.0,60.0,60.0,0.0,0.0
545,46.0,60.0,120.0,3.0,0.0
546,77.0,0.0,60.0,0.0,0.0
547,75.0,60.0,60.0,0.0,0.0
548,47.0,0.0,120.0,3.0,0.0
549,77.0,0.0,60.0,0.0,0.0
550,51.0,0.0,120.0,3.0,0.0
551,78.0,0.0,240.0,0.0,0.0
552,71.0,60.0,60.0,1.0,0.0
553,70.0,60.0,60.0,1.0,0.0
554,53.0,0.0,120.0,3.0,0.0
555,68.0,60.0,60.0,1.0,0.0
556,70.0,60.0,60.0,1.0,0.0
557,77.0,60.0,60.0,0.0,0.0
558,44.0,60.0,120.0,3.0,0.0
559,71.0,0.0,240.0,1.0,0.0
560,75.0,0.0,60.0,0.0,0.0
561,46.0,0.0,120.0,3.0,0.0
562,74.0,60.0,60.0,0.0,0.0
563,75.0,60.0,60.0,0.0,0.0
564,77.0,0.0,240.0,0.0,0.0
565,50.0,0.0,120.0,3.0,0.0
566,70.0,60.0,60.0,1.0,0.0
567,68.0,60.0,60.0,1.0,0.0
568,66.0,60.0,60.0,1.0,0.0
569,51.0,120.0,120.0,3.0,0.0
570,68.0,0.0,60.0,1.0,0.0
571,63.0,0.0,120.0,2.0,0.0
572,75.0,120.0,120.0,0.0,0.0
573,54.0,0.0,120.0,3.0,0.0
574,70.0,60.0,240.0,1.0,0.0
575,59.0,0.0,120.0,2.0,0.0
576,56.0,0.0,120.0,3.0,0.0
577,68.0,60.0,60.0,1.0,0.0
578,59.0,0.0,120.0,3.0,0.0
579,87.0,0.0,240.0,0.0,0.0
580,56.0,0.0,120.0,2.0,0.0
581,66.0,60.0,60.0,1.0,0.0
582,61.0,60.0,120.0,3.0,0.0
583,64.0,60.0,60.0,1.0,0.0
584,66.0,0.0,60.0,1.0,0.0
585,85.0,60.0,60.0,0.0,0.0
586,68.0,0.0,240.0,1.0,0.0
587,64.0,0.0,120.0,3.0,0.0
588,83.0,60.0,60.0,0.0,0.0
589,82.0,60.0,60.0,0.0,0.0
590,66.0,60.0,120.0,3.0,0.0
591,83.0,0.0,60.0,0.0,0.0
592,58.0,0.0,120.0,3.0,0.0
593,85.0,0.0,240.0,0.0,0.0
594,66.0,60.0,60.0,1.0,0.0
595,64.0,60.0,60.0,1.0,0.0
596,63.0,60.0,60.0,1.0,0.0
597,59.0,60.0,120.0,3.0,0.0
598,64.0,0.0,60.0,1.0,0.0
599,66.0,60.0,240.0,1.0,0.0
600,63.0,0.0,120.0,3.0,0.0
601,83.0,60.0,60.0,0.0,0.0
602,82.0,60.0,60.0,0.0,0.0
603,64.0,0.0,120.0,3.0,0.0
604,80.0,60.0,60.0,0.0,0.0
605,82.0,0.0,60.0,0.0,0.0
606,64.0,60.0,60.0,1.0,0.0
607,56.0,0.0,120.0,3.0,0.0
608,83.0,0.0,240.0,0.0,0.0
609,63.0,60.0,60.0,1.0,0.0
610,58.0,0.0,120.0,3.0,0.0
611,61.0,60.0,60.0,1.0,0.0
612,63.0,60.0,60.0,1.0,0.0
613,64.0,0.0,240.0,1.0,0.0
614,82.0,60.0,60.0,0.0,0.0
615,61.0,60.0,120.0,3.0,0.0
616,80.0,0.0,60.0,0.0,0.0
617,79.0,60.0,60.0,0.0,0.0
618,63.0,0.0,120.0,3.0,0.0
619,80.0,60.0,60.0,0.0,0.0
620,82.0,60.0,240.0,0.0,0.0
621,63.0,60.0,60.0,1.0,0.0
622,55.0,0.0,120.0,3.0,0.0
623,61.0,120.0,60.0,1.0,0.0
624,56.0,0.0,240.0,3.0,0.0
625,59.0,60.0,240.0,1.0,0.0
626,80.0,60.0,60.0,0.0,0.0
627,63.0,0.0,120.0,2.0,0.0
628,79.0,0.0,60.0,0.0,0.0
629,59.0,60.0,120.0,2.0,0.0
630,80.0,60.0,60.0,0.0,0.0
631,82.0,0.0,60.0,0.0,0.0
632,56.0,60.0,120.0,2.0,0.0
633,68.0,60.0,60.0,1.0,0.0
634,83.0,0.0,60.0,0.0,0.0
635,67.0,0.0,60.0,1.0,0.0
636,87.0,0.0,60.0,0.0,0.0
637,85.0,60.0,120.0,0.0,0.0
638,64.0,0.0,120.0,2.0,0.0
639,67.0,60.0,60.0,1.0,0.0
640,68.0,0.0,60.0,1.0,0.0
641,70.0,60.0,60.0,1.0,0.0
642,83.0,0.0,120.0,0.0,0.0
643,63.0,60.0,120.0,2.0,0.0
644,71.0,0.0,60.0,1.0,0.0
645,68.0,60.0,120.0,2.0,0.0
646,82.0,60.0,240.0,0.0,0.0
647,73.0,60.0,60.0,1.0,0.0
648,71.0,0.0,60.0,1.0,0.0
649,73.0,60.0,60.0,1.0,0.0
650,67.0,0.0,120.0,2.0,0.0
651,75.0,0.0,60.0,1.0,0.0
652,76.0,60.0,60.0,1.0,0.0
653,80.0,0.0,240.0,0.0,0.0
654,61.0,120.0,120.0,2.0,0.0
655,73.0,0.0,60.0,1.0,0.0
656,60.0,60.0,120.0,2.0,0.0
657,75.0,60.0,180.0,1.0,0.0
658,78.0,0.0,240.0,0.0,0.0
659,69.0,60.0,120.0,2.0,0.0
660,73.0,0.0,60.0,1.0,0.0
661,68.0,0.0,120.0,2.0,0.0
662,72.0,60.0,60.0,1.0,0.0
663,70.0,60.0,60.0,1.0,0.0
664,63.0,60.0,120.0,2.0,0.0
665,68.0,60.0,60.0,1.0,0.0
666,77.0,0.0,240.0,0.0,0.0
667,71.0,0.0,60.0,1.0,0.0
668,70.0,60.0,60.0,1.0,0.0
669,62.0,120.0,120.0,2.0,0.0
670,74.0,0.0,60.0,1.0,0.0
671,71.0,60.0,120.0,2.0,0.0
672,77.0,0.0,60.0,0.0,0.0
673,70.0,0.0,120.0,2.0,0.0
674,78.0,60.0,60.0,0.0,0.0
675,80.0,60.0,60.0,0.0,0.0
676,78.0,60.0,60.0,0.0,0.0
677,69.0,0.0,120.0,2.0,0.0
678,77.0,0.0,180.0,0.0,0.0
679,70.0,0.0,120.0,2.0,0.0
680,75.0,60.0,15.0,1.0,0.0
681,74.0,120.0,60.0,1.0,0.0
682,75.0,60.0,300.0,0.0,0.0
683,66.0,0.0,120.0,2.0,0.0
684,73.0,60.0,60.0,1.0,0.0
685,63.0,0.0,120.0,2.0,0.0
686,71.0,60.0,60.0,1.0,0.0
687,70.0,60.0,60.0,1.0,0.0
688,68.0,0.0,480.0,1.0,0.0
689,65.0,120.0,480.0,2.0,0.0
690,77.0,60.0,60.0,0.0,0.0
691,78.0,60.0,60.0,0.0,0.0
692,80.0,60.0,60.0,0.0,0.0
693,82.0,60.0,60.0,0.0,0.0
694,83.0,60.0,60.0,0.0,0.0
695,75.0,60.0,60.0,0.0,0.0
696,74.0,0.0,60.0,0.0,0.0
697,63.0,0.0,480.0,2.0,0.0
698,78.0,120.0,480.0,0.0,0.0
699,70.0,60.0,60.0,1.0,0.0
700,72.0,60.0,60.0,1.0,0.0
701,74.0,60.0,60.0,1.0,0.0
702,75.0,60.0,60.0,1.0,0.0
703,77.0,60.0,60.0,1.0,0.0
704,70.0,60.0,60.0,1.0,0.0
705,69.0,0.0,60.0,1.0,0.0
706,73.0,0.0,480.0,1.0,0.0
707,77.0,0.0,360.0,0.0,0.0
708,65.0,60.0,60.0,2.0,0.0
709,67.0,60.0,60.0,2.0,0.0
710,69.0,60.0,60.0,2.0,0.0
711,70.0,60.0,60.0,2.0,0.0
712,72.0,60.0,60.0,2.0,0.0
713,79.0,0.0,120.0,0.0,0.0
714,65.0,60.0,60.0,2.0,0.0
715,64.0,60.0,60.0,2.0,0.0
716,81.0,0.0,240.0,0.0,0.0
717,72.0,0.0,120.0,1.0,0.0
718,65.0,60.0,60.0,2.0,0.0
719,63.0,60.0,60.0,2.0,0.0
720,77.0,0.0,120.0,1.0,0.0
721,61.0,60.0,60.0,2.0,0.0
722,60.0,60.0,60.0,2.0,0.0
723,73.0,0.0,120.0,1.0,0.0
724,58.0,60.0,60.0,2.0,0.0
725,60.0,60.0,60.0,2.0,0.0
726,82.0,0.0,180.0,0.0,0.0
727,61.0,60.0,60.0,2.0,0.0
728,70.0,0.0,120.0,1.0,0.0
729,65.0,60.0,60.0,2.0,0.0
730,63.0,60.0,60.0,2.0,0.0
731,78.0,60.0,120.0,1.0,0.0
732,81.0,0.0,60.0,0.0,0.0
733,60.0,0.0,60.0,2.0,0.0
734,61.0,0.0,60.0,2.0,0.0
735,82.0,60.0,60.0,0.0,0.0
736,77.0,0.0,120.0,1.0,0.0
737,85.0,0.0,60.0,0.0,0.0
738,65.0,60.0,60.0,2.0,0.0
739,82.0,60.0,120.0,1.0,0.0
740,84.0,0.0,240.0,0.0,0.0
741,66.0,60.0,60.0,2.0,0.0
742,63.0,0.0,60.0,2.0,0.0
743,65.0,60.0,60.0,2.0,0.0
744,81.0,60.0,120.0,1.0,0.0
745,69.0,0.0,60.0,2.0,0.0
746,70.0,60.0,60.0,2.0,0.0
747,75.0,0.0,120.0,1.0,0.0
748,68.0,60.0,60.0,2.0,0.0
749,74.0,0.0,120.0,1.0,0.0
750,82.0,0.0,120.0,0.0,0.0
751,66.0,60.0,60.0,2.0,0.0
752,65.0,60.0,60.0,2.0,0.0
753,63.0,60.0,60.0,2.0,0.0
754,78.0,0.0,120.0,0.0,0.0
755,65.0,60.0,60.0,2.0,0.0
756,66.0,60.0,60.0,2.0,0.0
757,75.0,0.0,180.0,1.0,0.0
758,70.0,60.0,60.0,2.0,0.0
759,68.0,60.0,60.0,2.0,0.0
760,83.0,0.0,120.0,0.0,0.0
761,65.0,60.0,60.0,2.0,0.0
762,73.0,0.0,60.0,1.0,0.0
763,66.0,60.0,60.0,2.0,0.0
764,82.0,0.0,120.0,0.0,0.0
765,75.0,0.0,60.0,1.0,0.0
766,78.0,0.0,60.0,1.0,0.0
767,70.0,60.0,60.0,2.0,0.0
768,87.0,0.0,120.0,0.0,0.0
769,77.0,0.0,360.0,1.0,0.0
770,71.0,60.0,60.0,2.0,0.0
771,68.0,60.0,60.0,2.0,0.0
772,86.0,0.0,120.0,0.0,0.0
773,70.0,60.0,60.0,2.0,0.0
774,74.0,60.0,60.0,2.0,0.0
775,75.0,60.0,60.0,2.0,0.0
776,80.0,60.0,120.0,0.0,0.0
777,73.0,0.0,60.0,2.0,0.0
778,71.0,60.0,60.0,2.0,0.0
779,79.0,0.0,120.0,0.0,0.0
780,75.0,60.0,120.0,1.0,0.0
781,70.0,0.0,60.0,2.0,0.0
782,80.0,0.0,120.0,1.0,0.0
783,83.0,60.0,300.0,0.0,0.0
784,68.0,60.0,60.0,2.0,0.0
785,66.0,60.0,60.0,2.0,0.0
786,74.0,60.0,120.0,1.0,0.0
787,68.0,60.0,60.0,2.0,0.0
788,65.0,0.0,60.0,2.0,0.0
789,66.0,0.0,600.0,2.0,0.0
790,75.0,60.0,540.0,1.0,0.0
791,82.0,60.0,60.0,0.0,0.0
792,84.0,60.0,60.0,0.0,0.0
793,86.0,60.0,60.0,0.0,0.0
794,87.0,60.0,60.0,0.0,0.0
795,83.0,60.0,60.0,0.0,0.0
796,82.0,60.0,60.0,0.0,0.0
797,81.0,60.0,60.0,0.0,0.0
798,82.0,0.0,240.0,0.0,0.0
799,74.0,60.0,60.0,1.0,0.0
800,65.0,60.0,120.0,2.0,0.0
801,75.0,60.0,60.0,1.0,0.0
802,77.0,0.0,60.0,1.0,0.0
803,81.0,60.0,300.0,0.0,0.0
804,63.0,0.0,120.0,2.0,0.0
805,78.0,60.0,60.0,1.0,0.0
806,80.0,60.0,60.0,1.0,0.0
807,66.0,0.0,120.0,2.0,0.0
808,73.0,60.0,60.0,1.0,0.0
809,72.0,60.0,60.0,1.0,0.0
810,64.0,0.0,600.0,2.0,0.0
811,73.0,0.0,600.0,1.0,0.0
812,80.0,60.0,60.0,0.0,0.0
813,82.0,60.0,60.0,0.0,0.0
814,84.0,60.0,60.0,0.0,0.0
815,85.0,60.0,60.0,0.0,0.0
816,87.0,60.0,60.0,0.0,0.0
817,80.0,60.0,60.0,0.0,0.0
818,79.0,60.0,60.0,0.0,0.0
819,80.0,60.0,60.0,0.0,0.0
820,70.0,120.0,60.0,0.0,0.0
821,71.0,0.0,120.0,1.0,0.0
822,56.0,0.0,120.0,3.0,0.0
823,63.0,0.0,120.0,2.0,0.0
824,73.0,60.0,60.0,0.0,0.0
825,70.0,60.0,240.0,1.0,0.0
826,75.0,60.0,60.0,0.0,0.0
827,54.0,0.0,120.0,3.0,0.0
828,77.0,60.0,60.0,0.0,0.0
829,51.0,0.0,120.0,3.0,0.0
830,63.0,0.0,180.0,2.0,0.0
831,78.0,60.0,60.0,0.0,0.0
832,82.0,0.0,60.0,0.0,0.0
833,59.0,60.0,120.0,3.0,0.0
834,80.0,60.0,60.0,0.0,0.0
835,62.0,0.0,60.0,2.0,0.0
836,77.0,0.0,60.0,0.0,0.0
837,58.0,60.0,120.0,3.0,0.0
838,63.0,60.0,60.0,2.0,0.0
839,78.0,0.0,60.0,0.0,0.0
840,66.0,0.0,60.0,2.0,0.0
841,82.0,0.0,60.0,0.0,0.0
842,65.0,0.0,240.0,2.0,0.0
843,83.0,60.0,60.0,0.0,0.0
844,63.0,0.0,120.0,3.0,0.0
845,80.0,60.0,60.0,0.0,0.0
846,62.0,0.0,120.0,3.0,0.0
847,82.0,60.0,60.0,0.0,0.0
848,86.0,120.0,60.0,0.0,0.0
849,56.0,0.0,120.0,3.0,0.0
850,58.0,0.0,240.0,2.0,0.0
851,87.0,60.0,240.0,0.0,0.0
852,82.0,60.0,60.0,1.0,0.0
853,85.0,60.0,60.0,1.0,0.0
854,55.0,0.0,120.0,3.0,0.0
855,83.0,0.0,60.0,1.0,0.0
856,82.0,60.0,60.0,1.0,0.0
857,85.0,0.0,240.0,0.0,0.0
858,64.0,0.0,120.0,3.0,0.0
859,80.0,60.0,60.0,1.0,0.0
860,63.0,0.0,120.0,3.0,0.0
861,79.0,60.0,60.0,1.0,0.0
862,77.0,60.0,60.0,1.0,0.0
863,75.0,60.0,60.0,1.0,0.0
864,58.0,60.0,120.0,3.0,0.0
865,84.0,60.0,240.0,0.0,0.0
866,78.0,0.0,60.0,1.0,0.0
867,77.0,60.0,60.0,1.0,0.0
868,57.0,0.0,120.0,3.0,0.0
869,75.0,0.0,60.0,1.0,0.0
870,82.0,60.0,300.0,0.0,0.0
871,66.0,0.0,120.0,3.0,0.0
872,73.0,60.0,60.0,1.0,0.0
873,72.0,60.0,60.0,1.0,0.0
874,73.0,60.0,60.0,1.0,0.0
875,65.0,0.0,120.0,3.0,0.0
876,70.0,60.0,60.0,1.0,0.0
877,72.0,120.0,240.0,1.0,0.0
878,64.0,0.0,120.0,3.0,0.0
879,81.0,60.0,60.0,0.0,0.0
880,65.0,0.0,120.0,3.0,0.0
881,82.0,60.0,60.0,0.0,0.0
882,81.0,0.0,60.0,0.0,0.0
883,61.0,60.0,120.0,3.0,0.0
884,82.0,60.0,300.0,0.0,0.0
885,80.0,0.0,60.0,1.0,0.0
886,78.0,60.0,60.0,1.0,0.0
887,58.0,0.0,120.0,3.0,0.0
888,77.0,60.0,60.0,1.0,0.0
889,60.0,0.0,480.0,3.0,0.0
890,75.0,0.0,60.0,1.0,0.0
891,73.0,60.0,60.0,1.0,0.0
892,75.0,0.0,60.0,0.0,0.0
893,72.0,60.0,60.0,1.0,0.0
894,77.0,0.0,60.0,0.0,0.0
895,73.0,60.0,60.0,1.0,0.0
896,75.0,0.0,360.0,1.0,0.0
897,78.0,60.0,60.0,0.0,0.0
898,80.0,60.0,60.0,0.0,0.0
899,70.0,60.0,60.0,0.0,0.0
900,69.0,60.0,60.0,0.0,0.0
901,58.0,60.0,60.0,3.0,0.0
902,70.0,0.0,120.0,0.0,0.0
903,56.0,60.0,60.0,3.0,0.0
904,82.0,0.0,120.0,0.0,0.0
905,74.0,60.0,120.0,1.0,0.0
906,54.0,60.0,60.0,3.0,0.0
907,53.0,0.0,60.0,3.0,0.0
908,78.0,60.0,120.0,0.0,0.0
909,51.0,60.0,60.0,3.0,0.0
910,53.0,0.0,60.0,3.0,0.0
911,54.0,60.0,60.0,3.0,0.0
912,75.0,0.0,180.0,1.0,0.0
913,58.0,60.0,60.0,3.0,0.0
914,83.0,60.0,120.0,0.0,0.0
915,56.0,60.0,60.0,3.0,0.0
916,53.0,0.0,60.0,3.0,0.0
917,74.0,0.0,60.0,1.0,0.0
918,75.0,60.0,60.0,1.0,0.0
919,54.0,0.0,60.0,3.0,0.0
920,82.0,60.0,120.0,0.0,0.0
921,78.0,0.0,60.0,1.0,0.0
922,58.0,0.0,60.0,3.0,0.0
923,59.0,60.0,60.0,3.0,0.0
924,77.0,0.0,240.0,1.0,0.0
925,87.0,0.0,120.0,0.0,0.0
926,56.0,60.0,60.0,3.0,0.0
927,58.0,60.0,60.0,3.0,0.0
928,86.0,60.0,120.0,0.0,0.0
929,62.0,0.0,60.0,3.0,0.0
930,80.0,60.0,120.0,0.0,0.0
931,63.0,60.0,60.0,3.0,0.0
932,61.0,0.0,60.0,3.0,0.0
933,59.0,60.0,60.0,3.0,0.0
934,79.0,0.0,120.0,0.0,0.0
935,75.0,60.0,120.0,1.0,0.0
936,58.0,0.0,60.0,3.0,0.0
937,71.0,0.0,120.0,1.0,0.0
938,56.0,60.0,60.0,3.0,0.0
939,58.0,60.0,60.0,3.0,0.0
940,68.0,60.0,120.0,1.0,0.0
941,59.0,60.0,60.0,3.0,0.0
942,80.0,0.0,180.0,0.0,0.0
943,63.0,0.0,60.0,3.0,0.0
944,61.0,60.0,60.0,3.0,0.0
945,76.0,0.0,120.0,1.0,0.0
946,58.0,0.0,60.0,3.0,0.0
947,79.0,60.0,60.0,0.0,0.0
948,80.0,60.0,60.0,0.0,0.0
949,59.0,0.0,60.0,3.0,0.0
950,75.0,0.0,120.0,1.0,0.0
951,83.0,0.0,60.0,0.0,0.0
952,63.0,60.0,60.0,3.0,0.0
953,80.0,60.0,120.0,1.0,0.0
954,64.0,60.0,60.0,3.0,0.0
955,82.0,60.0,240.0,0.0,0.0
956,61.0,0.0,60.0,3.0,0.0
957,79.0,0.0,120.0,1.0,0.0
958,63.0,60.0,60.0,3.0,0.0
959,67.0,0.0,60.0,3.0,0.0
960,80.0,60.0,60.0,0.0,0.0
961,68.0,0.0,120.0,3.0,0.0
962,73.0,60.0,120.0,1.0,0.0
963,78.0,0.0,60.0,0.0,0.0
964,56.0,120.0,120.0,3.0,0.0
965,72.0,0.0,120.0,1.0,0.0
966,77.0,60.0,60.0,0.0,0.0
967,75.0,0.0,60.0,0.0,0.0
968,73.0,60.0,360.0,1.0,0.0
969,53.0,0.0,120.0,3.0,0.0
970,75.0,60.0,60.0,0.0,0.0
971,77.0,60.0,60.0,0.0,0.0
972,49.0,0.0,120.0,3.0,0.0
973,80.0,60.0,60.0,0.0,0.0
974,78.0,60.0,60.0,0.0,0.0
975,58.0,0.0,120.0,3.0,0.0
976,75.0,0.0,60.0,0.0,0.0
977,56.0,0.0,120.0,3.0,0.0
978,72.0,60.0,120.0,1.0,0.0
979,77.0,60.0,60.0,0.0,0.0
980,80.0,0.0,60.0,0.0,0.0
981,82.0,60.0,60.0,0.0,0.0
982,77.0,0.0,120.0,1.0,0.0
983,61.0,60.0,120.0,3.0,0.0
984,78.0,0.0,60.0,0.0,0.0
985,75.0,0.0,120.0,1.0,0.0
986,80.0,60.0,60.0,0.0,0.0
987,60.0,60.0,120.0,3.0,0.0
988,84.0,0.0,60.0,0.0,0.0
989,54.0,0.0,120.0,3.0,0.0
990,80.0,60.0,120.0,1.0,0.0
991,85.0,60.0,60.0,0.0,0.0
992,83.0,0.0,60.0,0.0,0.0
993,53.0,60.0,120.0,3.0,0.0
994,61.0,0.0,120.0,2.0,0.0
995,82.0,60.0,60.0,0.0,0.0
996,80.0,0.0,60.0,0.0,0.0
997,58.0,60.0,120.0,2.0,0.0
998,78.0,60.0,60.0,0.0,0.0
999,54.0,0.0,960.0,3.0,0.0
1000,77.0,0.0,60.0,0.0,0.0
1001,70.0,60.0,120.0,1.0,0.0
1002,54.0,0.0,120.0,2.0,0.0
1003,75.0,60.0,60.0,0.0,0.0
1004,73.0,0.0,60.0,0.0,0.0
1005,71.0,60.0,60.0,0.0,0.0
1006,66.0,0.0,240.0,1.0,0.0
1007,63.0,60.0,120.0,2.0,0.0
1008,68.0,0.0,60.0,0.0,0.0
1009,61.0,60.0,120.0,2.0,0.0
1010,70.0,60.0,60.0,0.0,0.0
1011,73.0,0.0,60.0,0.0,0.0
1012,75.0,60.0,60.0,0.0,0.0
1013,66.0,60.0,120.0,2.0,0.0
1014,71.0,0.0,60.0,0.0,0.0
1015,73.0,60.0,60.0,0.0,0.0
1016,65.0,0.0,120.0,2.0,0.0
1017,71.0,60.0,120.0,1.0,0.0
1018,77.0,0.0,60.0,0.0,0.0
1019,59.0,0.0,120.0,2.0,0.0
1020,73.0,120.0,120.0,1.0,0.0
1021,78.0,60.0,60.0,0.0,0.0
1022,80.0,0.0,60.0,0.0,0.0
1023,78.0,0.0,120.0,1.0,0.0
1024,58.0,0.0,120.0,2.0,0.0
1025,80.0,60.0,60.0,0.0,0.0
1026,76.0,0.0,240.0,1.0,0.0
1027,67.0,60.0,120.0,2.0,0.0
1028,82.0,60.0,60.0,0.0,0.0
1029,83.0,0.0,60.0,0.0,0.0
1030,85.0,60.0,60.0,0.0,0.0
1031,66.0,60.0,120.0,2.0,0.0
1032,82.0,0.0,60.0,0.0,0.0
1033,78.0,60.0,60.0,0.0,0.0
1034,75.0,60.0,240.0,1.0,0.0
1035,61.0,0.0,120.0,2.0,0.0
1036,81.0,60.0,60.0,0.0,0.0
1037,60.0,0.0,120.0,2.0,0.0
1038,80.0,60.0,60.0,0.0,0.0
1039,78.0,0.0,60.0,0.0,0.0
1040,69.0,0.0,120.0,2.0,0.0
1041,76.0,60.0,60.0,0.0,0.0
1042,75.0,60.0,60.0,0.0,0.0
1043,68.0,60.0,120.0,2.0,0.0
1044,76.0,60.0,60.0,0.0,0.0
1045,78.0,0.0,60.0,0.0,0.0
1046,76.0,60.0,60.0,0.0,0.0
1047,67.0,60.0,120.0,2.0,0.0
1048,75.0,0.0,180.0,0.0,0.0
1049,73.0,0.0,15.0,1.0,0.0
1050,68.0,120.0,120.0,2.0,0.0
1051,72.0,0.0,60.0,1.0,0.0
1052,73.0,0.0,360.0,0.0,0.0
1053,65.0,60.0,120.0,2.0,0.0
1054,71.0,0.0,60.0,1.0,0.0
1055,61.0,60.0,120.0,2.0,0.0
1056,70.0,60.0,60.0,1.0,0.0
1057,68.0,0.0,60.0,1.0,0.0
1058,66.0,60.0,60.0,1.0,0.0
1059,63.0,0.0,600.0,2.0,0.0
1060,65.0,60.0,60.0,1.0,0.0
1061,78.0,60.0,60.0,0.0,0.0
1062,63.0,0.0,60.0,1.0,0.0
1063,65.0,60.0,60.0,1.0,0.0
1064,80.0,0.0,60.0,0.0,0.0
1065,66.0,60.0,240.0,1.0,0.0
1066,82.0,60.0,60.0,0.0,0.0
1067,83.0,60.0,60.0,0.0,0.0
1068,73.0,60.0,60.0,0.0,0.0
1069,72.0,0.0,60.0,0.0,0.0
1070,65.0,60.0,240.0,1.0,0.0
1071,80.0,60.0,60.0,0.0,0.0
1072,82.0,60.0,60.0,0.0,0.0
1073,71.0,60.0,60.0,0.0,0.0
1074,61.0,0.0,240.0,2.0,0.0
1075,70.0,0.0,60.0,0.0,0.0
1076,63.0,0.0,240.0,1.0,0.0
1077,78.0,60.0,60.0,0.0,0.0
1078,80.0,60.0,60.0,0.0,0.0
1079,59.0,0.0,240.0,2.0,0.0
1080,70.0,60.0,60.0,0.0,0.0
1081,68.0,60.0,60.0,0.0,0.0
1082,77.0,60.0,60.0,0.0,0.0
1083,61.0,0.0,480.0,1.0,0.0
1084,75.0,60.0,60.0,0.0,0.0
1085,54.0,60.0,120.0,3.0,0.0
1086,58.0,0.0,120.0,2.0,0.0
1087,77.0,60.0,60.0,0.0,0.0
1088,78.0,0.0,60.0,0.0,0.0
1089,56.0,60.0,120.0,2.0,0.0
1090,53.0,0.0,120.0,3.0,0.0
1091,80.0,60.0,60.0,0.0,0.0
1092,82.0,0.0,60.0,0.0,0.0
1093,49.0,0.0,120.0,3.0,0.0
1094,53.0,0.0,120.0,2.0,0.0
1095,83.0,60.0,60.0,0.0,0.0
1096,80.0,120.0,60.0,0.0,0.0
1097,85.0,0.0,480.0,0.0,0.0
1098,58.0,0.0,120.0,3.0,0.0
1099,83.0,60.0,60.0,1.0,0.0
1100,54.0,0.0,120.0,3.0,0.0
1101,82.0,60.0,60.0,1.0,0.0
1102,80.0,60.0,60.0,1.0,0.0
1103,59.0,0.0,120.0,3.0,0.0
1104,78.0,60.0,60.0,1.0,0.0
1105,76.0,60.0,60.0,1.0,0.0
1106,58.0,60.0,120.0,3.0,0.0
1107,75.0,60.0,60.0,1.0,0.0
1108,76.0,0.0,60.0,1.0,0.0
1109,83.0,0.0,240.0,0.0,0.0
1110,78.0,60.0,60.0,1.0,0.0
1111,52.0,60.0,120.0,3.0,0.0
1112,80.0,0.0,60.0,1.0,0.0
1113,78.0,60.0,60.0,1.0,0.0
1114,51.0,60.0,120.0,3.0,0.0
1115,76.0,0.0,60.0,1.0,0.0
1116,75.0,60.0,60.0,1.0,0.0
1117,81.0,0.0,240.0,0.0,0.0
1118,61.0,60.0,120.0,3.0,0.0
1119,77.0,0.0,60.0,1.0,0.0
1120,78.0,60.0,60.0,1.0,0.0
1121,60.0,0.0,120.0,3.0,0.0
1122,75.0,60.0,60.0,1.0,0.0
1123,71.0,60.0,60.0,1.0,0.0
1124,54.0,0.0,120.0,3.0,0.0
1125,80.0,0.0,240.0,0.0,0.0
1126,74.0,60.0,60.0,1.0,0.0
1127,53.0,0.0,120.0,3.0,0.0
1128,73.0,60.0,60.0,1.0,0.0
1129,71.0,60.0,60.0,1.0,0.0
1130,78.0,60.0,300.0,0.0,0.0
1131,62.0,60.0,120.0,3.0,0.0
1132,69.0,60.0,60.0,1.0,0.0
1133,68.0,0.0,60.0,1.0,0.0
1134,61.0,0.0,120.0,3.0,0.0
1135,69.0,60.0,60.0,1.0,0.0
1136,66.0,60.0,60.0,1.0,0.0
1137,60.0,0.0,120.0,3.0,0.0
1138,68.0,120.0,240.0,1.0,0.0
1139,77.0,60.0,60.0,0.0,0.0
1140,61.0,0.0,120.0,3.0,0.0
1141,78.0,60.0,60.0,0.0,0.0
1142,77.0,0.0,60.0,0.0,0.0
1143,78.0,60.0,300.0,0.0,0.0
1144,58.0,60.0,120.0,3.0,0.0
1145,76.0,0.0,60.0,1.0,0.0
1146,54.0,60.0,120.0,3.0,0.0
1147,75.0,60.0,60.0,1.0,0.0
1148,73.0,0.0,60.0,1.0,0.0
1149,71.0,0.0,60.0,1.0,0.0
1150,56.0,0.0,480.0,3.0,0.0
1151,70.0,60.0,60.0,1.0,0.0
1152,80.0,0.0,60.0,0.0,0.0
1153,68.0,60.0,60.0,1.0,0.0
1154,82.0,0.0,60.0,0.0,0.0
1155,66.0,0.0,60.0,1.0,0.0
1156,83.0,60.0,60.0,0.0,0.0
1157,85.0,0.0,60.0,0.0,0.0
1158,65.0,60.0,60.0,1.0,0.0
1159,63.0,60.0,60.0,1.0,0.0
1160,87.0,0.0,60.0,0.0,0.0
1161,78.0,0.0,60.0,0.0,0.0
1162,61.0,60.0,60.0,1.0,0.0
1163,77.0,0.0,60.0,0.0,0.0
1164,59.0,60.0,60.0,1.0,0.0
1165,54.0,60.0,240.0,3.0,0.0
1166,78.0,0.0,720.0,0.0,0.0
1167,58.0,60.0,60.0,1.0,0.0
1168,61.0,60.0,60.0,1.0,0.0
1169,63.0,60.0,60.0,1.0,0.0
1170,65.0,0.0,60.0,1.0,0.0
1171,66.0,60.0,60.0,1.0,0.0
1172,68.0,60.0,60.0,1.0,0.0
1173,61.0,60.0,60.0,1.0,0.0
1174,51.0,0.0,120.0,3.0,0.0
1175,60.0,120.0,60.0,1.0,0.0
1176,49.0,0.0,240.0,3.0,0.0
1177,61.0,60.0,480.0,1.0,0.0
1178,68.0,60.0,60.0,2.0,0.0
1179,70.0,60.0,60.0,2.0,0.0
1180,71.0,60.0,60.0,2.0,0.0
1181,77.0,60.0,120.0,0.0,0.0
1182,73.0,60.0,60.0,2.0,0.0
1183,75.0,0.0,60.0,2.0,0.0
1184,68.0,60.0,60.0,2.0,0.0
1185,82.0,60.0,180.0,0.0,0.0
1186,58.0,0.0,120.0,3.0,0.0
1187,67.0,0.0,60.0,2.0,0.0
1188,71.0,60.0,600.0,1.0,0.0
1189,56.0,0.0,240.0,3.0,0.0
1190,63.0,60.0,120.0,2.0,0.0
1191,75.0,0.0,60.0,0.0,0.0
1192,77.0,0.0,60.0,0.0,0.0
1193,62.0,60.0,60.0,2.0,0.0
1194,63.0,0.0,60.0,2.0,0.0
1195,78.0,60.0,60.0,0.0,0.0
1196,65.0,0.0,120.0,2.0,0.0
1197,80.0,60.0,60.0,0.0,0.0
1198,82.0,60.0,60.0,0.0,0.0
1199,56.0,60.0,120.0,2.0,0.0
1200,53.0,0.0,120.0,3.0,0.0
1201,75.0,60.0,60.0,0.0,0.0
1202,74.0,0.0,60.0,0.0,0.0
1203,78.0,0.0,240.0,0.0,0.0
1204,63.0,0.0,120.0,2.0,0.0
1205,51.0,60.0,60.0,3.0,0.0
1206,46.0,0.0,60.0,3.0,0.0
1207,70.0,0.0,120.0,1.0,0.0
1208,48.0,60.0,60.0,3.0,0.0
1209,49.0,60.0,60.0,3.0,0.0
1210,51.0,60.0,60.0,3.0,0.0
1211,77.0,60.0,120.0,0.0,0.0
1212,69.0,0.0,120.0,1.0,0.0
1213,53.0,0.0,60.0,3.0,0.0
1214,46.0,60.0,60.0,3.0,0.0
1215,75.0,0.0,120.0,0.0,0.0
1216,72.0,60.0,180.0,1.0,0.0
1217,45.0,60.0,60.0,3.0,0.0
1218,77.0,0.0,480.0,0.0,0.0
1219,49.0,60.0,720.0,3.0,0.0
1220,53.0,60.0,60.0,2.0,0.0
1221,69.0,0.0,60.0,1.0,0.0
1222,55.0,0.0,60.0,2.0,0.0
1223,70.0,60.0,60.0,1.0,0.0
1224,72.0,0.0,60.0,1.0,0.0
1225,57.0,60.0,60.0,2.0,0.0
1226,73.0,0.0,60.0,1.0,0.0
1227,58.0,60.0,60.0,2.0,0.0
1228,60.0,0.0,60.0,2.0,0.0
1229,75.0,60.0,60.0,1.0,0.0
1230,61.0,0.0,60.0,2.0,0.0
1231,66.0,60.0,60.0,1.0,0.0
1232,57.0,0.0,60.0,2.0,0.0
1233,65.0,120.0,60.0,1.0,0.0
1234,67.0,0.0,240.0,1.0,0.0
1235,58.0,0.0,240.0,2.0,0.0
1236,70.0,60.0,60.0,0.0,0.0
1237,72.0,60.0,60.0,0.0,0.0
1238,73.0,0.0,60.0,0.0,0.0
1239,75.0,60.0,60.0,0.0,0.0
1240,60.0,0.0,240.0,2.0,0.0
1241,69.0,0.0,120.0,1.0,0.0
1242,48.0,0.0,240.0,3.0,0.0
1243,77.0,60.0,60.0,0.0,0.0
1244,72.0,60.0,180.0,1.0,0.0
1245,70.0,60.0,60.0,0.0,0.0
1246,69.0,60.0,60.0,0.0,0.0
1247,46.0,60.0,120.0,3.0,0.0
1248,73.0,60.0,240.0,0.0,0.0
1249,72.0,0.0,60.0,1.0,0.0
1250,70.0,60.0,60.0,1.0,0.0
1251,65.0,0.0,120.0,2.0,0.0
1252,69.0,0.0,60.0,1.0,0.0
1253,70.0,60.0,60.0,1.0,0.0
1254,61.0,0.0,120.0,2.0,0.0
1255,72.0,60.0,60.0,1.0,0.0
1256,58.0,0.0,120.0,2.0,0.0
1257,73.0,60.0,60.0,1.0,0.0
1258,77.0,60.0,60.0,1.0,0.0
1259,75.0,60.0,60.0,1.0,0.0
1260,66.0,0.0,120.0,2.0,0.0
1261,72.0,60.0,60.0,1.0,0.0
1262,65.0,60.0,120.0,2.0,0.0
1263,73.0,60.0,60.0,1.0,0.0
1264,77.0,0.0,60.0,1.0,0.0
1265,84.0,60.0,240.0,0.0,0.0
1266,75.0,60.0,60.0,1.0,0.0
1267,70.0,0.0,120.0,2.0,0.0
1268,78.0,60.0,60.0,1.0,0.0
1269,77.0,60.0,60.0,1.0,0.0
1270,69.0,0.0,120.0,2.0,0.0
1271,75.0,0.0,60.0,1.0,0.0
1272,63.0,60.0,120.0,2.0,0.0
1273,77.0,60.0,60.0,1.0,0.0
1274,82.0,60.0,240.0,0.0,0.0
1275,78.0,0.0,60.0,1.0,0.0
1276,80.0,60.0,60.0,1.0,0.0
1277,62.0,0.0,120.0,2.0,0.0
1278,78.0,0.0,60.0,1.0,0.0
1279,77.0,60.0,60.0,1.0,0.0
1280,71.0,60.0,120.0,2.0,0.0
1281,80.0,0.0,240.0,0.0,0.0
1282,75.0,0.0,60.0,1.0,0.0
1283,70.0,0.0,120.0,2.0,0.0
1284,74.0,60.0,60.0,1.0,0.0
1285,72.0,60.0,60.0,1.0,0.0
1286,79.0,0.0,240.0,0.0,0.0
1287,70.0,60.0,60.0,1.0,0.0
1288,65.0,60.0,120.0,2.0,0.0
1289,73.0,0.0,60.0,1.0,0.0
1290,64.0,0.0,120.0,2.0,0.0
1291,72.0,60.0,60.0,1.0,0.0
1292,76.0,120.0,60.0,1.0,0.0
1293,77.0,120.0,360.0,0.0,0.0
1294,73.0,60.0,120.0,2.0,0.0
1295,79.0,0.0,60.0,1.0,0.0
1296,80.0,60.0,60.0,1.0,0.0
1297,72.0,60.0,120.0,2.0,0.0
1298,82.0,0.0,60.0,1.0,0.0
1299,71.0,0.0,120.0,2.0,0.0
1300,80.0,60.0,60.0,1.0,0.0
1301,79.0,0.0,60.0,1.0,0.0
1302,72.0,60.0,120.0,2.0,0.0
1303,76.0,0.0,120.0,0.0,0.0
1304,73.0,0.0,60.0,1.0,0.0
1305,72.0,60.0,60.0,1.0,0.0
1306,68.0,60.0,120.0,2.0,0.0
1307,77.0,60.0,300.0,0.0,0.0
1308,75.0,0.0,60.0,1.0,0.0
1309,73.0,60.0,60.0,1.0,0.0
1310,65.0,0.0,120.0,2.0,0.0
1311,72.0,60.0,60.0,1.0,0.0
1312,67.0,60.0,540.0,2.0,0.0
1313,70.0,60.0,480.0,1.0,0.0
1314,79.0,60.0,60.0,0.0,0.0
1315,80.0,60.0,60.0,0.0,0.0
1316,82.0,60.0,60.0,0.0,0.0
1317,84.0,60.0,60.0,0.0,0.0
1318,85.0,60.0,60.0,0.0,0.0
1319,77.0,60.0,60.0,0.0,0.0
1320,76.0,0.0,60.0,0.0,0.0
1321,72.0,60.0,540.0,1.0,0.0
1322,80.0,10.0,540.0,0.0,0.0
1323,60.0,60.0,60.0,2.0,0.0
1324,62.0,60.0,60.0,2.0,0.0
1325,64.0,60.0,60.0,2.0,0.0
1326,65.0,60.0,60.0,2.0,0.0
1327,67.0,60.0,60.0,2.0,0.0
1328,58.0,60.0,60.0,2.0,0.0
1329,56.0,50.0,60.0,2.0,0.0
1330,58.0,0.0,240.0,2.0,0.0
1331,80.0,0.0,60.0,0.0,0.0
1332,65.0,60.0,60.0,1.0,0.0
1333,82.0,60.0,60.0,0.0,0.0
1334,67.0,0.0,60.0,1.0,0.0
1335,68.0,60.0,60.0,1.0,0.0
1336,84.0,0.0,60.0,0.0,0.0
1337,85.0,0.0,60.0,0.0,0.0
1338,70.0,60.0,60.0,1.0,0.0
1339,72.0,60.0,60.0,1.0,0.0
1340,87.0,0.0,60.0,0.0,0.0
1341,73.0,60.0,60.0,1.0,0.0
1342,79.0,0.0,60.0,0.0,0.0
1343,77.0,60.0,60.0,0.0,0.0
1344,75.0,0.0,60.0,1.0,0.0
1345,73.0,60.0,60.0,1.0,0.0
1346,79.0,60.0,240.0,0.0,0.0
1347,70.0,60.0,60.0,1.0,0.0
1348,51.0,0.0,120.0,3.0,0.0
1349,72.0,60.0,60.0,1.0,0.0
1350,73.0,0.0,60.0,1.0,0.0
1351,75.0,60.0,60.0,1.0,0.0
1352,48.0,0.0,120.0,3.0,0.0
1353,77.0,60.0,60.0,1.0,0.0
1354,44.0,0.0,120.0,3.0,0.0
1355,79.0,60.0,60.0,1.0,0.0
1356,80.0,60.0,60.0,1.0,0.0
1357,53.0,0.0,120.0,3.0,0.0
1358,82.0,60.0,60.0,1.0,0.0
1359,79.0,60.0,60.0,1.0,0.0
1360,51.0,120.0,120.0,3.0,0.0
1361,80.0,60.0,60.0,1.0,0.0
1362,84.0,0.0,60.0,1.0,0.0
1363,82.0,60.0,240.0,0.0,0.0
1364,56.0,60.0,120.0,3.0,0.0
1365,77.0,0.0,60.0,1.0,0.0
1366,55.0,0.0,120.0,3.0,0.0
1367,75.0,60.0,60.0,1.0,0.0
1368,73.0,0.0,60.0,1.0,0.0
1369,75.0,60.0,60.0,1.0,0.0
1370,49.0,0.0,120.0,3.0,0.0
1371,80.0,0.0,240.0,0.0,0.0
1372,77.0,60.0,60.0,1.0,0.0
1373,78.0,60.0,60.0,1.0,0.0
1374,48.0,60.0,120.0,3.0,0.0
1375,77.0,0.0,60.0,1.0,0.0
1376,75.0,60.0,60.0,1.0,0.0
1377,78.0,0.0,240.0,0.0,0.0
1378,57.0,60.0,120.0,3.0,0.0
1379,73.0,0.0,60.0,1.0,0.0
1380,72.0,60.0,60.0,1.0,0.0
1381,56.0,0.0,120.0,3.0,0.0
1382,70.0,60.0,60.0,1.0,0.0
1383,77.0,0.0,240.0,0.0,0.0
1384,51.0,60.0,120.0,3.0,0.0
1385,68.0,60.0,60.0,1.0,0.0
1386,71.0,0.0,60.0,1.0,0.0
1387,70.0,60.0,60.0,1.0,0.0
1388,50.0,0.0,120.0,3.0,0.0
1389,68.0,60.0,60.0,1.0,0.0
1390,75.0,60.0,300.0,0.0,0.0
1391,66.0,60.0,60.0,1.0,0.0
1392,59.0,0.0,120.0,3.0,0.0
1393,65.0,60.0,60.0,1.0,0.0
1394,58.0,60.0,120.0,3.0,0.0
1395,66.0,60.0,60.0,1.0,0.0
1396,63.0,0.0,60.0,1.0,0.0
1397,57.0,60.0,120.0,3.0,0.0
1398,65.0,120.0,240.0,1.0,0.0
1399,74.0,0.0,60.0,0.0,0.0
1400,75.0,60.0,60.0,0.0,0.0
1401,58.0,0.0,120.0,3.0,0.0
1402,74.0,0.0,60.0,0.0,0.0
1403,75.0,60.0,300.0,0.0,0.0
1404,54.0,0.0,120.0,3.0,0.0
1405,73.0,60.0,60.0,1.0,0.0
1406,51.0,60.0,120.0,3.0,0.0
1407,71.0,60.0,60.0,1.0,0.0
1408,70.0,0.0,60.0,1.0,0.0
1409,68.0,0.0,240.0,1.0,0.0
1410,53.0,60.0,480.0,3.0,0.0
1411,77.0,60.0,60.0,0.0,0.0
1412,78.0,60.0,60.0,0.0,0.0
1413,80.0,60.0,60.0,0.0,0.0
1414,82.0,60.0,60.0,0.0,0.0
1415,83.0,60.0,60.0,0.0,0.0
1416,75.0,60.0,60.0,0.0,0.0
1417,74.0,0.0,60.0,0.0,0.0
1418,78.0,60.0,300.0,0.0,0.0
1419,51.0,60.0,120.0,3.0,0.0
1420,77.0,60.0,15.0,1.0,0.0
1421,70.0,60.0,120.0,2.0,0.0
1422,75.0,60.0,60.0,1.0,0.0
1423,74.0,0.0,60.0,1.0,0.0
1424,66.0,60.0,120.0,2.0,0.0
1425,75.0,60.0,240.0,1.0,0.0
1426,77.0,0.0,60.0,0.0,0.0
1427,63.0,0.0,120.0,2.0,0.0
1428,78.0,60.0,60.0,0.0,0.0
1429,77.0,0.0,60.0,0.0,0.0
1430,80.0,60.0,60.0,0.0,0.0
1431,71.0,60.0,120.0,2.0,0.0
1432,77.0,0.0,120.0,1.0,0.0
1433,78.0,0.0,60.0,0.0,0.0
1434,82.0,60.0,60.0,0.0,0.0
1435,78.0,120.0,120.0,1.0,0.0
1436,70.0,0.0,120.0,2.0,0.0
1437,80.0,0.0,60.0,0.0,0.0
1438,83.0,60.0,420.0,0.0,0.0
1439,75.0,0.0,120.0,2.0,0.0
1440,80.0,60.0,60.0,1.0,0.0
1441,78.0,60.0,60.0,1.0,0.0
1442,74.0,0.0,120.0,2.0,0.0
1443,77.0,60.0,60.0,1.0,0.0
1444,68.0,0.0,120.0,2.0,0.0
1445,75.0,60.0,60.0,1.0,0.0
1446,74.0,60.0,60.0,1.0,0.0
1447,75.0,0.0,120.0,1.0,0.0
1448,67.0,0.0,120.0,2.0,0.0
1449,82.0,120.0,60.0,0.0,0.0
1450,85.0,60.0,420.0,0.0,0.0
1451,76.0,0.0,120.0,2.0,0.0
1452,82.0,60.0,60.0,1.0,0.0
1453,75.0,0.0,120.0,2.0,0.0
1454,80.0,60.0,60.0,1.0,0.0
1455,79.0,60.0,60.0,1.0,0.0
1456,77.0,60.0,60.0,1.0,0.0
1457,70.0,60.0,120.0,2.0,0.0
1458,76.0,0.0,60.0,1.0,0.0
1459,69.0,0.0,120.0,2.0,0.0
1460,77.0,120.0,120.0,1.0,0.0
1461,84.0,0.0,60.0,0.0,0.0
1462,78.0,60.0,120.0,2.0,0.0
1463,87.0,0.0,120.0,0.0,0.0
1464,84.0,60.0,120.0,1.0,0.0
1465,77.0,0.0,120.0,2.0,0.0
1466,85.0,60.0,120.0,0.0,0.0
1467,76.0,60.0,120.0,2.0,0.0
1468,84.0,60.0,300.0,0.0,0.0
1469,82.0,60.0,15.0,1.0,0.0
1470,81.0,60.0,60.0,1.0,0.0
1471,77.0,0.0,120.0,2.0,0.0
1472,84.0,60.0,60.0,1.0,0.0
1473,77.0,60.0,180.0,1.0,0.0
1474,73.0,0.0,120.0,2.0,0.0
1475,81.0,60.0,60.0,0.0,0.0
1476,70.0,0.0,120.0,2.0,0.0
1477,78.0,60.0,60.0,1.0,0.0
1478,75.0,0.0,480.0,1.0,0.0
1479,72.0,60.0,540.0,2.0,0.0
1480,82.0,60.0,15.0,0.0,0.0
1481,84.0,60.0,60.0,0.0,0.0
1482,85.0,60.0,60.0,0.0,0.0
1483,87.0,60.0,60.0,0.0,0.0
1484,84.0,60.0,60.0,0.0,0.0
1485,82.0,60.0,60.0,0.0,0.0
1486,81.0,60.0,60.0,0.0,0.0
1487,77.0,60.0,540.0,1.0,0.0
1488,85.0,60.0,1020.0,0.0,0.0
1489,65.0,60.0,60.0,2.0,0.0
1490,67.0,60.0,60.0,2.0,0.0
1491,69.0,60.0,60.0,2.0,0.0
1492,70.0,60.0,60.0,2.0,0.0
1493,72.0,60.0,60.0,2.0,0.0
1494,63.0,60.0,60.0,2.0,0.0
1495,61.0,60.0,60.0,2.0,0.0
1496,63.0,0.0,960.0,2.0,0.0
1497,70.0,60.0,60.0,1.0,0.0
1498,71.0,60.0,60.0,1.0,0.0
1499,73.0,60.0,60.0,1.0,0.0
1500,75.0,60.0,60.0,1.0,0.0
1501,76.0,60.0,60.0,1.0,0.0
1502,68.0,60.0,60.0,1.0,0.0
1503,67.0,60.0,60.0,1.0,0.0
1504,68.0,70.0,540.0,1.0,0.0
1505,82.0,60.0,60.0,0.0,0.0
1506,83.0,60.0,60.0,0.0,0.0
1507,85.0,60.0,60.0,0.0,0.0
1508,87.0,60.0,60.0,0.0,0.0
1509,88.0,60.0,60.0,0.0,0.0
1510,82.0,60.0,60.0,0.0,0.0
1511,80.0,50.0,60.0,0.0,0.0
1512,62.0,0.0,120.0,2.0,0.0
1513,82.0,70.0,300.0,0.0,0.0
1514,68.0,60.0,60.0,1.0,0.0
1515,58.0,50.0,120.0,2.0,0.0
1516,66.0,60.0,60.0,1.0,0.0
1517,65.0,0.0,60.0,1.0,0.0
1518,66.0,60.0,120.0,1.0,0.0
1519,63.0,0.0,120.0,2.0,0.0
1520,82.0,0.0,60.0,0.0,0.0
1521,66.0,60.0,120.0,2.0,0.0
1522,78.0,60.0,60.0,0.0,0.0
1523,75.0,0.0,60.0,0.0,0.0
1524,83.0,60.0,60.0,0.0,0.0
1525,68.0,60.0,120.0,2.0,0.0
1526,85.0,0.0,60.0,0.0,0.0
1527,87.0,0.0,240.0,0.0,0.0
1528,71.0,0.0,120.0,2.0,0.0
1529,80.0,60.0,60.0,1.0,0.0
1530,78.0,60.0,60.0,1.0,0.0
1531,77.0,60.0,60.0,1.0,0.0
1532,73.0,0.0,120.0,2.0,0.0
1533,78.0,60.0,60.0,1.0,0.0
1534,85.0,60.0,60.0,0.0,0.0
1535,80.0,0.0,240.0,1.0,0.0
1536,65.0,0.0,120.0,2.0,0.0
1537,83.0,60.0,60.0,0.0,0.0
1538,66.0,0.0,120.0,2.0,0.0
1539,82.0,60.0,60.0,0.0,0.0
1540,83.0,60.0,60.0,0.0,0.0
1541,85.0,0.0,240.0,0.0,0.0
1542,70.0,0.0,120.0,2.0,0.0
1543,78.0,60.0,60.0,1.0,0.0
1544,77.0,60.0,60.0,1.0,0.0
1545,71.0,0.0,120.0,2.0,0.0
1546,75.0,60.0,60.0,1.0,0.0
1547,77.0,60.0,60.0,1.0,0.0
1548,83.0,60.0,60.0,0.0,0.0
1549,63.0,0.0,120.0,2.0,0.0
1550,78.0,0.0,240.0,1.0,0.0
1551,82.0,60.0,60.0,0.0,0.0
1552,65.0,0.0,120.0,2.0,0.0
1553,80.0,60.0,60.0,0.0,0.0
1554,82.0,60.0,60.0,0.0,0.0
1555,77.0,60.0,60.0,1.0,0.0
1556,83.0,0.0,240.0,0.0,0.0
1557,68.0,0.0,120.0,2.0,0.0
1558,75.0,60.0,60.0,1.0,0.0
1559,70.0,60.0,120.0,2.0,0.0
1560,74.0,60.0,60.0,1.0,0.0
1561,75.0,0.0,60.0,1.0,0.0
1562,82.0,60.0,60.0,0.0,0.0
1563,77.0,0.0,360.0,1.0,0.0
1564,62.0,0.0,120.0,2.0,0.0
1565,80.0,60.0,60.0,0.0,0.0
1566,78.0,60.0,300.0,0.0,0.0
1567,63.0,60.0,60.0,2.0,0.0
1568,58.0,60.0,60.0,2.0,0.0
1569,59.0,60.0,60.0,2.0,0.0
1570,61.0,60.0,60.0,2.0,0.0
1571,75.0,0.0,120.0,1.0,0.0
1572,63.0,0.0,60.0,2.0,0.0
1573,80.0,60.0,60.0,0.0,0.0
1574,64.0,0.0,60.0,2.0,0.0
1575,82.0,0.0,240.0,0.0,0.0
1576,56.0,60.0,60.0,2.0,0.0
1577,73.0,60.0,120.0,1.0,0.0
1578,55.0,0.0,60.0,2.0,0.0
1579,56.0,0.0,120.0,2.0,0.0
1580,71.0,60.0,60.0,1.0,0.0
1581,73.0,60.0,60.0,1.0,0.0
1582,75.0,60.0,240.0,1.0,0.0
1583,59.0,0.0,120.0,2.0,0.0
1584,80.0,60.0,60.0,0.0,0.0
1585,78.0,60.0,60.0,0.0,0.0
1586,61.0,0.0,120.0,2.0,0.0
1587,77.0,60.0,60.0,0.0,0.0
1588,78.0,0.0,60.0,0.0,0.0
1589,80.0,60.0,240.0,0.0,0.0
1590,73.0,60.0,60.0,1.0,0.0
1591,65.0,0.0,120.0,2.0,0.0
1592,71.0,60.0,60.0,1.0,0.0
1593,70.0,60.0,60.0,1.0,0.0
1594,66.0,0.0,120.0,2.0,0.0
1595,71.0,0.0,60.0,1.0,0.0
1596,58.0,60.0,120.0,2.0,0.0
1597,78.0,60.0,60.0,0.0,0.0
1598,73.0,0.0,240.0,1.0,0.0
1599,77.0,0.0,60.0,0.0,0.0
1600,59.0,0.0,120.0,2.0,0.0
1601,75.0,60.0,60.0,0.0,0.0
1602,77.0,60.0,60.0,0.0,0.0
1603,71.0,60.0,60.0,1.0,0.0
1604,78.0,0.0,240.0,0.0,0.0
1605,63.0,60.0,120.0,2.0,0.0
1606,70.0,0.0,60.0,1.0,0.0
1607,65.0,0.0,120.0,2.0,0.0
1608,68.0,60.0,60.0,1.0,0.0
1609,70.0,60.0,60.0,1.0,0.0
1610,71.0,60.0,240.0,1.0,0.0
1611,56.0,0.0,120.0,2.0,0.0
1612,77.0,60.0,60.0,0.0,0.0
1613,75.0,60.0,60.0,0.0,0.0
1614,58.0,0.0,120.0,2.0,0.0
1615,74.0,60.0,60.0,0.0,0.0
1616,75.0,0.0,60.0,0.0,0.0
1617,70.0,60.0,60.0,1.0,0.0
1618,77.0,60.0,180.0,0.0,0.0
1619,62.0,60.0,120.0,2.0,0.0
1620,68.0,0.0,60.0,1.0,0.0
1621,66.0,0.0,240.0,1.0,0.0
1622,63.0,60.0,120.0,2.0,0.0
1623,70.0,0.0,60.0,0.0,0.0
1624,72.0,60.0,60.0,0.0,0.0
1625,58.0,0.0,120.0,2.0,0.0
1626,74.0,120.0,60.0,0.0,0.0
1627,54.0,0.0,120.0,2.0,0.0
1628,75.0,0.0,360.0,1.0,0.0
1629,77.0,60.0,60.0,0.0,0.0
1630,78.0,60.0,60.0,0.0,0.0
1631,51.0,60.0,120.0,2.0,0.0
1632,82.0,0.0,60.0,0.0,0.0
1633,59.0,0.0,120.0,2.0,0.0
1634,80.0,60.0,60.0,0.0,0.0
1635,77.0,60.0,60.0,0.0,0.0
1636,74.0,0.0,120.0,1.0,0.0
1637,58.0,0.0,120.0,2.0,0.0
1638,78.0,60.0,60.0,0.0,0.0
1639,82.0,60.0,60.0,0.0,0.0
1640,78.0,0.0,120.0,1.0,0.0
1641,83.0,60.0,60.0,0.0,0.0
1642,63.0,0.0,120.0,2.0,0.0
1643,80.0,60.0,60.0,0.0,0.0
1644,62.0,60.0,120.0,2.0,0.0
1645,82.0,60.0,60.0,0.0,0.0
1646,77.0,0.0,120.0,1.0,0.0
1647,86.0,0.0,60.0,0.0,0.0
1648,82.0,0.0,120.0,1.0,0.0
1649,87.0,60.0,60.0,0.0,0.0
1650,56.0,0.0,120.0,2.0,0.0
1651,85.0,60.0,60.0,0.0,0.0
1652,55.0,60.0,120.0,2.0,0.0
1653,51.0,0.0,120.0,3.0,0.0
1654,83.0,60.0,60.0,0.0,0.0
1655,82.0,0.0,60.0,0.0,0.0
1656,80.0,60.0,60.0,0.0,0.0
1657,56.0,60.0,480.0,2.0,0.0
1658,47.0,0.0,120.0,3.0,0.0
1659,78.0,60.0,60.0,0.0,0.0
1660,44.0,0.0,120.0,3.0,0.0
1661,76.0,60.0,60.0,0.0,0.0
1662,75.0,60.0,60.0,0.0,0.0
1663,73.0,60.0,60.0,0.0,0.0
1664,52.0,60.0,120.0,3.0,0.0
1665,70.0,0.0,60.0,0.0,0.0
1666,51.0,0.0,120.0,3.0,0.0
1667,71.0,60.0,60.0,0.0,0.0
1668,75.0,0.0,60.0,0.0,0.0
1669,56.0,120.0,120.0,3.0,0.0
1670,58.0,0.0,240.0,2.0,0.0
1671,76.0,60.0,60.0,0.0,0.0
1672,73.0,0.0,60.0,0.0,0.0
1673,75.0,60.0,180.0,1.0,0.0
1674,55.0,0.0,120.0,3.0,0.0
1675,79.0,60.0,60.0,0.0,0.0
1676,56.0,0.0,240.0,2.0,0.0
1677,80.0,0.0,240.0,0.0,0.0
1678,49.0,0.0,120.0,3.0,0.0
1679,77.0,60.0,60.0,1.0,0.0
1680,48.0,0.0,120.0,3.0,0.0
1681,75.0,60.0,60.0,1.0,0.0
1682,73.0,120.0,60.0,1.0,0.0
1683,57.0,0.0,120.0,3.0,0.0
1684,78.0,120.0,240.0,0.0,0.0
1685,72.0,0.0,240.0,1.0,0.0
1686,63.0,60.0,60.0,2.0,0.0
1687,65.0,60.0,60.0,2.0,0.0
1688,56.0,0.0,120.0,3.0,0.0
1689,66.0,0.0,60.0,2.0,0.0
1690,68.0,60.0,180.0,2.0,0.0
1691,51.0,60.0,120.0,3.0,0.0
1692,77.0,60.0,240.0,0.0,0.0
1693,71.0,0.0,120.0,1.0,0.0
1694,50.0,0.0,120.0,3.0,0.0
1695,70.0,0.0,120.0,1.0,0.0
1696,68.0,0.0,60.0,2.0,0.0
1697,75.0,60.0,300.0,0.0,0.0
1698,66.0,60.0,60.0,2.0,0.0
1699,59.0,0.0,120.0,3.0,0.0
1700,68.0,0.0,60.0,1.0,0.0
1701,65.0,60.0,60.0,2.0,0.0
1702,58.0,0.0,120.0,3.0,0.0
1703,63.0,0.0,60.0,2.0,0.0
1704,66.0,60.0,60.0,1.0,0.0
1705,61.0,0.0,60.0,2.0,0.0
1706,68.0,60.0,60.0,1.0,0.0
1707,56.0,0.0,120.0,3.0,0.0
1708,65.0,0.0,240.0,1.0,0.0
1709,60.0,60.0,120.0,2.0,0.0
1710,74.0,0.0,60.0,0.0,0.0
1711,75.0,60.0,60.0,0.0,0.0
1712,58.0,60.0,180.0,2.0,0.0
1713,74.0,60.0,60.0,0.0,0.0
1714,75.0,60.0,300.0,0.0,0.0
1715,54.0,60.0,120.0,3.0,0.0
1716,61.0,0.0,60.0,2.0,0.0
1717,70.0,0.0,60.0,1.0,0.0
1718,59.0,60.0,60.0,2.0,0.0
1719,68.0,0.0,60.0,1.0,0.0
1720,51.0,0.0,120.0,3.0,0.0
1721,58.0,60.0,60.0,2.0,0.0
1722,66.0,0.0,60.0,1.0,0.0
1723,53.0,0.0,480.0,3.0,0.0
1724,65.0,60.0,480.0,1.0,0.0
1725,56.0,0.0,480.0,2.0,0.0
1726,77.0,60.0,60.0,0.0,0.0
1727,78.0,60.0,60.0,0.0,0.0
1728,80.0,60.0,60.0,0.0,0.0
1729,82.0,60.0,60.0,0.0,0.0
1730,83.0,60.0,60.0,0.0,0.0
1731,75.0,60.0,60.0,0.0,0.0
1732,74.0,0.0,60.0,0.0,0.0
1733,63.0,0.0,240.0,1.0,0.0
1734,54.0,60.0,240.0,3.0,0.0
1735,75.0,60.0,60.0,0.0,0.0
1736,58.0,0.0,240.0,2.0,0.0
1737,78.0,60.0,60.0,0.0,0.0
1738,80.0,60.0,60.0,0.0,0.0
1739,82.0,0.0,60.0,0.0,0.0
1740,83.0,60.0,60.0,0.0,0.0
1741,85.0,60.0,60.0,0.0,0.0
1742,76.0,60.0,60.0,0.0,0.0
1743,70.0,60.0,120.0,1.0,0.0
1744,61.0,0.0,120.0,2.0,0.0
1745,55.0,0.0,120.0,3.0,0.0
1746,75.0,0.0,60.0,0.0,0.0
1747,56.0,0.0,240.0,3.0,0.0
1748,59.0,0.0,240.0,2.0,0.0
1749,68.0,60.0,240.0,1.0,0.0
1750,76.0,60.0,60.0,0.0,0.0
1751,80.0,60.0,60.0,0.0,0.0
1752,82.0,60.0,60.0,0.0,0.0
1753,83.0,0.0,60.0,0.0,0.0
1754,86.0,60.0,60.0,0.0,0.0
1755,87.0,60.0,60.0,0.0,0.0
1756,78.0,60.0,60.0,0.0,0.0
1757,57.0,0.0,120.0,3.0,0.0
1758,63.0,60.0,120.0,2.0,0.0
1759,77.0,0.0,60.0,0.0,0.0
1760,78.0,60.0,480.0,0.0,0.0
1761,58.0,60.0,1020.0,3.0,0.0
1762,62.0,60.0,60.0,2.0,0.0
1763,58.0,60.0,60.0,2.0,0.0
1764,60.0,60.0,60.0,2.0,0.0
1765,70.0,60.0,120.0,1.0,0.0
1766,62.0,0.0,60.0,2.0,0.0
1767,66.0,0.0,120.0,1.0,0.0
1768,63.0,60.0,60.0,2.0,0.0
1769,65.0,60.0,60.0,2.0,0.0
1770,63.0,0.0,120.0,1.0,0.0
1771,66.0,60.0,60.0,2.0,0.0
1772,63.0,60.0,120.0,2.0,0.0
1773,71.0,0.0,120.0,1.0,0.0
1774,77.0,0.0,720.0,0.0,0.0
1775,63.0,60.0,60.0,2.0,0.0
1776,70.0,0.0,120.0,1.0,0.0
1777,62.0,60.0,60.0,2.0,0.0
1778,63.0,60.0,60.0,2.0,0.0
1779,65.0,60.0,60.0,2.0,0.0
1780,75.0,0.0,120.0,1.0,0.0
1781,66.0,60.0,60.0,2.0,0.0
1782,74.0,60.0,120.0,1.0,0.0
1783,68.0,60.0,60.0,2.0,0.0
1784,65.0,0.0,60.0,2.0,0.0
1785,68.0,0.0,120.0,1.0,0.0
1786,70.0,60.0,240.0,2.0,0.0
1787,50.0,60.0,60.0,3.0,0.0
1788,67.0,0.0,120.0,1.0,0.0
1789,51.0,60.0,60.0,3.0,0.0
1790,53.0,0.0,60.0,3.0,0.0
1791,76.0,0.0,60.0,0.0,0.0
1792,55.0,60.0,60.0,3.0,0.0
1793,56.0,0.0,60.0,3.0,0.0
1794,74.0,60.0,60.0,0.0,0.0
1795,72.0,0.0,120.0,1.0,0.0
1796,46.0,60.0,60.0,3.0,0.0
1797,75.0,60.0,360.0,0.0,0.0
1798,66.0,0.0,120.0,2.0,0.0
1799,45.0,120.0,60.0,3.0,0.0
1800,70.0,60.0,120.0,1.0,0.0
1801,46.0,960.0,480.0,3.0,0.0
1802,65.0,0.0,480.0,2.0,0.0
1803,51.0,0.0,60.0,3.0,0.0
1804,53.0,60.0,60.0,3.0,0.0
1805,69.0,0.0,120.0,1.0,0.0
1806,54.0,0.0,60.0,3.0,0.0
1807,56.0,60.0,60.0,3.0,0.0
1808,70.0,60.0,180.0,1.0,0.0
1809,74.0,0.0,240.0,0.0,0.0
1810,53.0,60.0,60.0,3.0,0.0
1811,58.0,0.0,1080.0,3.0,0.0
1812,68.0,0.0,60.0,1.0,0.0
1813,67.0,0.0,960.0,1.0,0.0
1814,63.0,0.0,960.0,2.0,0.0
1815,75.0,0.0,960.0,0.0,0.0
1816,51.0,0.0,960.0,3.0,0.0
