,note,step,duration,channel,velocity
0,59.0,60.0,240.0,3.0,0.0
1,87.0,0.0,120.0,0.0,0.0
2,78.0,60.0,60.0,1.0,0.0
3,80.0,60.0,60.0,1.0,0.0
4,78.0,0.0,60.0,1.0,0.0
5,75.0,120.0,240.0,3.0,0.0
6,80.0,60.0,60.0,1.0,0.0
7,78.0,60.0,60.0,1.0,0.0
8,80.0,60.0,60.0,1.0,0.0
9,78.0,0.0,60.0,1.0,0.0
10,73.0,0.0,240.0,3.0,0.0
11,90.0,0.0,120.0,0.0,0.0
12,78.0,60.0,60.0,1.0,0.0
13,80.0,60.0,60.0,1.0,0.0
14,78.0,60.0,60.0,1.0,0.0
15,80.0,60.0,60.0,1.0,0.0
16,58.0,120.0,240.0,3.0,0.0
17,78.0,60.0,60.0,1.0,0.0
18,80.0,60.0,60.0,1.0,0.0
19,78.0,0.0,60.0,1.0,0.0
20,83.0,0.0,120.0,0.0,0.0
21,56.0,60.0,240.0,3.0,0.0
22,78.0,60.0,60.0,1.0,0.0
23,80.0,60.0,60.0,1.0,0.0
24,78.0,0.0,60.0,1.0,0.0
25,80.0,60.0,60.0,1.0,0.0
26,71.0,0.0,240.0,3.0,0.0
27,78.0,60.0,60.0,1.0,0.0
28,80.0,60.0,60.0,1.0,0.0
29,78.0,120.0,60.0,1.0,0.0
30,85.0,0.0,120.0,0.0,0.0
31,58.0,60.0,240.0,3.0,0.0
32,78.0,60.0,60.0,1.0,0.0
33,80.0,60.0,60.0,1.0,0.0
34,78.0,0.0,60.0,1.0,0.0
35,73.0,0.0,240.0,3.0,0.0
36,80.0,60.0,60.0,1.0,0.0
37,78.0,60.0,60.0,1.0,0.0
38,80.0,60.0,60.0,1.0,0.0
39,78.0,120.0,60.0,1.0,0.0
40,71.0,60.0,240.0,3.0,0.0
41,90.0,0.0,120.0,0.0,0.0
42,78.0,60.0,60.0,1.0,0.0
43,80.0,60.0,60.0,1.0,0.0
44,78.0,0.0,60.0,1.0,0.0
45,56.0,120.0,240.0,3.0,0.0
46,80.0,60.0,60.0,1.0,0.0
47,78.0,60.0,60.0,1.0,0.0
48,80.0,60.0,60.0,1.0,0.0
49,78.0,0.0,60.0,1.0,0.0
50,54.0,60.0,240.0,3.0,0.0
51,82.0,60.0,120.0,0.0,0.0
52,78.0,0.0,60.0,1.0,0.0
53,80.0,60.0,60.0,1.0,0.0
54,78.0,0.0,60.0,1.0,0.0
55,80.0,60.0,60.0,1.0,0.0
56,70.0,0.0,240.0,3.0,0.0
57,78.0,60.0,60.0,1.0,0.0
58,80.0,60.0,60.0,1.0,0.0
59,78.0,120.0,60.0,1.0,0.0
60,83.0,0.0,120.0,0.0,0.0
61,56.0,0.0,240.0,3.0,0.0
62,78.0,60.0,60.0,1.0,0.0
63,80.0,60.0,60.0,1.0,0.0
64,78.0,60.0,60.0,1.0,0.0
65,71.0,120.0,240.0,3.0,0.0
66,80.0,60.0,60.0,1.0,0.0
67,78.0,60.0,60.0,1.0,0.0
68,80.0,60.0,60.0,1.0,0.0
69,78.0,0.0,60.0,1.0,0.0
70,87.0,60.0,120.0,0.0,0.0
71,70.0,0.0,240.0,3.0,0.0
72,78.0,0.0,60.0,1.0,0.0
73,80.0,60.0,60.0,1.0,0.0
74,78.0,60.0,60.0,1.0,0.0
75,59.0,0.0,240.0,3.0,0.0
76,80.0,60.0,60.0,1.0,0.0
77,78.0,60.0,60.0,1.0,0.0
78,80.0,60.0,60.0,1.0,0.0
79,78.0,120.0,60.0,1.0,0.0
80,85.0,60.0,120.0,0.0,0.0
81,61.0,60.0,240.0,3.0,0.0
82,77.0,0.0,60.0,1.0,0.0
83,78.0,60.0,60.0,1.0,0.0
84,77.0,0.0,60.0,1.0,0.0
85,78.0,60.0,60.0,1.0,0.0
86,68.0,120.0,240.0,3.0,0.0
87,77.0,60.0,60.0,1.0,0.0
88,78.0,60.0,60.0,1.0,0.0
89,77.0,0.0,60.0,1.0,0.0
90,82.0,0.0,120.0,0.0,0.0
91,54.0,0.0,240.0,3.0,0.0
92,78.0,60.0,60.0,1.0,0.0
93,80.0,60.0,60.0,1.0,0.0
94,78.0,60.0,60.0,1.0,0.0
95,70.0,0.0,240.0,3.0,0.0
96,80.0,60.0,60.0,1.0,0.0
97,78.0,60.0,60.0,1.0,0.0
98,80.0,60.0,60.0,1.0,0.0
99,78.0,120.0,60.0,1.0,0.0
100,68.0,60.0,240.0,3.0,0.0
101,89.0,60.0,120.0,0.0,0.0
102,78.0,0.0,60.0,1.0,0.0
103,80.0,60.0,60.0,1.0,0.0
104,78.0,0.0,60.0,1.0,0.0
105,80.0,60.0,60.0,1.0,0.0
106,59.0,0.0,240.0,3.0,0.0
107,78.0,60.0,60.0,1.0,0.0
108,80.0,60.0,60.0,1.0,0.0
109,78.0,120.0,60.0,1.0,0.0
110,58.0,0.0,240.0,3.0,0.0
111,90.0,0.0,120.0,0.0,0.0
112,78.0,60.0,60.0,1.0,0.0
113,80.0,60.0,60.0,1.0,0.0
114,78.0,60.0,60.0,1.0,0.0
115,80.0,60.0,60.0,1.0,0.0
116,64.0,120.0,240.0,3.0,0.0
117,78.0,60.0,60.0,1.0,0.0
118,80.0,60.0,60.0,1.0,0.0
119,78.0,0.0,60.0,1.0,0.0
120,63.0,60.0,120.0,3.0,0.0
121,83.0,60.0,240.0,0.0,0.0
122,71.0,0.0,60.0,2.0,0.0
123,73.0,60.0,60.0,2.0,0.0
124,71.0,0.0,60.0,2.0,0.0
125,73.0,60.0,60.0,2.0,0.0
126,59.0,0.0,240.0,0.0,0.0
127,71.0,60.0,60.0,2.0,0.0
128,73.0,60.0,60.0,2.0,0.0
129,71.0,120.0,60.0,2.0,0.0
130,61.0,60.0,240.0,0.0,0.0
131,64.0,60.0,120.0,3.0,0.0
132,71.0,0.0,60.0,2.0,0.0
133,73.0,60.0,60.0,2.0,0.0
134,71.0,0.0,60.0,2.0,0.0
135,73.0,60.0,60.0,2.0,0.0
136,80.0,0.0,240.0,0.0,0.0
137,71.0,60.0,60.0,2.0,0.0
138,73.0,60.0,60.0,2.0,0.0
139,71.0,120.0,60.0,2.0,0.0
140,81.0,0.0,240.0,0.0,0.0
141,66.0,0.0,120.0,3.0,0.0
142,71.0,60.0,60.0,2.0,0.0
143,73.0,60.0,60.0,2.0,0.0
144,71.0,60.0,60.0,2.0,0.0
145,73.0,60.0,60.0,2.0,0.0
146,78.0,120.0,240.0,0.0,0.0
147,75.0,0.0,240.0,1.0,0.0
148,71.0,60.0,60.0,2.0,0.0
149,73.0,60.0,60.0,2.0,0.0
150,71.0,0.0,60.0,2.0,0.0
151,80.0,0.0,240.0,0.0,0.0
152,64.0,60.0,120.0,3.0,0.0
153,76.0,0.0,240.0,1.0,0.0
154,71.0,0.0,60.0,2.0,0.0
155,73.0,60.0,60.0,2.0,0.0
156,71.0,60.0,60.0,2.0,0.0
157,61.0,120.0,240.0,0.0,0.0
158,73.0,60.0,60.0,2.0,0.0
159,71.0,60.0,60.0,2.0,0.0
160,73.0,60.0,60.0,2.0,0.0
161,71.0,0.0,60.0,2.0,0.0
162,63.0,60.0,240.0,0.0,0.0
163,66.0,60.0,120.0,3.0,0.0
164,71.0,0.0,60.0,2.0,0.0
165,73.0,60.0,60.0,2.0,0.0
166,71.0,0.0,60.0,2.0,0.0
167,73.0,60.0,60.0,2.0,0.0
168,82.0,120.0,240.0,0.0,0.0
169,71.0,60.0,60.0,2.0,0.0
170,73.0,60.0,60.0,2.0,0.0
171,71.0,0.0,60.0,2.0,0.0
172,83.0,0.0,240.0,0.0,0.0
173,68.0,60.0,120.0,3.0,0.0
174,71.0,0.0,60.0,2.0,0.0
175,73.0,60.0,60.0,2.0,0.0
176,71.0,60.0,60.0,2.0,0.0
177,85.0,120.0,240.0,1.0,0.0
178,77.0,0.0,240.0,0.0,0.0
179,73.0,60.0,60.0,2.0,0.0
180,71.0,60.0,60.0,2.0,0.0
181,73.0,60.0,60.0,2.0,0.0
182,71.0,0.0,60.0,2.0,0.0
183,66.0,60.0,120.0,3.0,0.0
184,87.0,0.0,240.0,1.0,0.0
185,78.0,0.0,240.0,0.0,0.0
186,71.0,0.0,60.0,2.0,0.0
187,73.0,60.0,60.0,2.0,0.0
188,71.0,60.0,60.0,2.0,0.0
189,73.0,60.0,60.0,2.0,0.0
190,61.0,120.0,240.0,1.0,0.0
191,58.0,0.0,240.0,0.0,0.0
192,71.0,60.0,60.0,2.0,0.0
193,73.0,60.0,60.0,2.0,0.0
194,71.0,0.0,60.0,2.0,0.0
195,59.0,60.0,240.0,0.0,0.0
196,68.0,0.0,120.0,3.0,0.0
197,63.0,0.0,240.0,1.0,0.0
198,71.0,60.0,60.0,2.0,0.0
199,73.0,60.0,60.0,2.0,0.0
200,71.0,0.0,60.0,2.0,0.0
201,73.0,60.0,60.0,2.0,0.0
202,56.0,0.0,240.0,1.0,0.0
203,53.0,0.0,240.0,0.0,0.0
204,71.0,60.0,60.0,2.0,0.0
205,73.0,60.0,60.0,2.0,0.0
206,71.0,120.0,60.0,2.0,0.0
207,54.0,0.0,240.0,0.0,0.0
208,61.0,60.0,120.0,3.0,0.0
209,58.0,60.0,240.0,1.0,0.0
210,71.0,0.0,60.0,2.0,0.0
211,73.0,60.0,60.0,2.0,0.0
212,71.0,0.0,60.0,2.0,0.0
213,42.0,0.0,240.0,0.0,0.0
214,73.0,60.0,60.0,2.0,0.0
215,71.0,60.0,60.0,2.0,0.0
216,73.0,60.0,60.0,2.0,0.0
217,71.0,120.0,60.0,2.0,0.0
218,63.0,0.0,120.0,3.0,0.0
219,47.0,60.0,240.0,0.0,0.0
220,71.0,60.0,60.0,2.0,0.0
221,73.0,60.0,60.0,2.0,0.0
222,71.0,0.0,60.0,2.0,0.0
223,73.0,60.0,60.0,2.0,0.0
224,88.0,0.0,240.0,1.0,0.0
225,80.0,0.0,240.0,0.0,0.0
226,71.0,60.0,60.0,2.0,0.0
227,73.0,60.0,60.0,2.0,0.0
228,71.0,120.0,60.0,2.0,0.0
229,78.0,60.0,240.0,0.0,0.0
230,64.0,60.0,120.0,3.0,0.0
231,87.0,0.0,240.0,1.0,0.0
232,71.0,0.0,60.0,2.0,0.0
233,73.0,60.0,60.0,2.0,0.0
234,71.0,0.0,60.0,2.0,0.0
235,85.0,120.0,240.0,1.0,0.0
236,76.0,0.0,240.0,0.0,0.0
237,73.0,60.0,60.0,2.0,0.0
238,71.0,60.0,60.0,2.0,0.0
239,73.0,60.0,60.0,2.0,0.0
240,71.0,0.0,60.0,2.0,0.0
241,66.0,60.0,120.0,3.0,0.0
242,83.0,60.0,240.0,1.0,0.0
243,75.0,0.0,240.0,0.0,0.0
244,71.0,0.0,60.0,2.0,0.0
245,73.0,60.0,60.0,2.0,0.0
246,71.0,0.0,60.0,2.0,0.0
247,73.0,60.0,60.0,2.0,0.0
248,76.0,120.0,240.0,0.0,0.0
249,73.0,0.0,240.0,1.0,0.0
250,82.0,0.0,240.0,1.0,0.0
251,71.0,60.0,60.0,2.0,0.0
252,73.0,60.0,60.0,2.0,0.0
253,71.0,0.0,60.0,2.0,0.0
254,87.0,0.0,120.0,1.0,0.0
255,59.0,0.0,120.0,2.0,0.0
256,75.0,0.0,120.0,1.0,0.0
257,78.0,0.0,120.0,3.0,0.0
258,83.0,120.0,120.0,0.0,0.0
259,63.0,0.0,120.0,2.0,0.0
260,83.0,120.0,120.0,1.0,0.0
261,61.0,0.0,120.0,2.0,0.0
262,82.0,120.0,120.0,1.0,0.0
263,63.0,120.0,120.0,2.0,0.0
264,83.0,0.0,120.0,1.0,0.0
265,80.0,0.0,120.0,1.0,0.0
266,68.0,120.0,120.0,2.0,0.0
267,75.0,0.0,120.0,1.0,0.0
268,71.0,120.0,120.0,2.0,0.0
269,70.0,0.0,120.0,2.0,0.0
270,73.0,120.0,120.0,1.0,0.0
271,71.0,0.0,120.0,2.0,0.0
272,75.0,120.0,120.0,1.0,0.0
273,75.0,120.0,120.0,2.0,0.0
274,71.0,0.0,120.0,1.0,0.0
275,71.0,120.0,120.0,2.0,0.0
276,75.0,0.0,120.0,1.0,0.0
277,80.0,120.0,120.0,1.0,0.0
278,68.0,0.0,120.0,2.0,0.0
279,65.0,0.0,120.0,2.0,0.0
280,83.0,120.0,120.0,1.0,0.0
281,58.0,0.0,120.0,2.0,0.0
282,85.0,120.0,120.0,1.0,0.0
283,82.0,0.0,120.0,1.0,0.0
284,61.0,120.0,120.0,2.0,0.0
285,59.0,0.0,120.0,2.0,0.0
286,80.0,120.0,120.0,1.0,0.0
287,61.0,0.0,120.0,2.0,0.0
288,82.0,120.0,120.0,1.0,0.0
289,66.0,120.0,120.0,2.0,0.0
290,78.0,0.0,120.0,1.0,0.0
291,70.0,120.0,120.0,2.0,0.0
292,73.0,0.0,120.0,1.0,0.0
293,71.0,120.0,120.0,1.0,0.0
294,68.0,0.0,120.0,2.0,0.0
295,70.0,0.0,120.0,2.0,0.0
296,73.0,120.0,120.0,1.0,0.0
297,73.0,120.0,120.0,2.0,0.0
298,70.0,0.0,120.0,1.0,0.0
299,73.0,120.0,120.0,1.0,0.0
300,70.0,0.0,120.0,2.0,0.0
301,66.0,120.0,120.0,2.0,0.0
302,78.0,0.0,120.0,1.0,0.0
303,82.0,120.0,120.0,1.0,0.0
304,63.0,0.0,120.0,2.0,0.0
305,56.0,0.0,120.0,2.0,0.0
306,83.0,120.0,120.0,1.0,0.0
307,59.0,0.0,120.0,2.0,0.0
308,80.0,120.0,120.0,1.0,0.0
309,79.0,120.0,120.0,1.0,0.0
310,58.0,0.0,120.0,2.0,0.0
311,59.0,0.0,120.0,2.0,0.0
312,80.0,120.0,120.0,1.0,0.0
313,63.0,120.0,120.0,2.0,0.0
314,75.0,0.0,120.0,1.0,0.0
315,71.0,120.0,120.0,1.0,0.0
316,68.0,0.0,120.0,2.0,0.0
317,67.0,0.0,120.0,2.0,0.0
318,70.0,120.0,120.0,1.0,0.0
319,68.0,120.0,120.0,2.0,0.0
320,71.0,0.0,120.0,1.0,0.0
321,68.0,120.0,120.0,1.0,0.0
322,71.0,0.0,120.0,2.0,0.0
323,68.0,0.0,120.0,2.0,0.0
324,71.0,120.0,120.0,1.0,0.0
325,75.0,0.0,120.0,1.0,0.0
326,63.0,120.0,120.0,2.0,0.0
327,78.0,120.0,120.0,1.0,0.0
328,59.0,0.0,120.0,2.0,0.0
329,61.0,0.0,120.0,2.0,0.0
330,77.0,120.0,120.0,1.0,0.0
331,71.0,0.0,120.0,1.0,0.0
332,68.0,120.0,120.0,2.0,0.0
333,70.0,120.0,120.0,1.0,0.0
334,66.0,0.0,120.0,2.0,0.0
335,71.0,0.0,120.0,1.0,0.0
336,68.0,120.0,120.0,2.0,0.0
337,68.0,120.0,120.0,1.0,0.0
338,71.0,0.0,120.0,2.0,0.0
339,73.0,0.0,120.0,2.0,0.0
340,65.0,120.0,120.0,1.0,0.0
341,71.0,0.0,120.0,2.0,0.0
342,63.0,120.0,120.0,1.0,0.0
343,73.0,0.0,120.0,2.0,0.0
344,65.0,120.0,120.0,1.0,0.0
345,71.0,0.0,120.0,2.0,0.0
346,61.0,120.0,120.0,1.0,0.0
347,68.0,120.0,120.0,2.0,0.0
348,65.0,0.0,120.0,1.0,0.0
349,68.0,0.0,120.0,1.0,0.0
350,65.0,120.0,120.0,2.0,0.0
351,71.0,0.0,120.0,1.0,0.0
352,61.0,120.0,120.0,2.0,0.0
353,70.0,0.0,120.0,0.0,0.0
354,54.0,60.0,120.0,3.0,0.0
355,66.0,0.0,60.0,1.0,0.0
356,58.0,0.0,60.0,2.0,0.0
357,59.0,0.0,60.0,2.0,0.0
358,68.0,60.0,60.0,1.0,0.0
359,58.0,60.0,60.0,2.0,0.0
360,66.0,0.0,60.0,1.0,0.0
361,68.0,0.0,60.0,1.0,0.0
362,59.0,60.0,60.0,2.0,0.0
363,66.0,60.0,60.0,1.0,0.0
364,58.0,0.0,60.0,2.0,0.0
365,59.0,0.0,60.0,2.0,0.0
366,68.0,60.0,60.0,1.0,0.0
367,58.0,0.0,60.0,2.0,0.0
368,66.0,120.0,60.0,1.0,0.0
369,51.0,0.0,120.0,3.0,0.0
370,71.0,0.0,120.0,0.0,0.0
371,66.0,0.0,60.0,1.0,0.0
372,58.0,60.0,60.0,2.0,0.0
373,68.0,0.0,60.0,1.0,0.0
374,59.0,60.0,60.0,2.0,0.0
375,66.0,60.0,60.0,1.0,0.0
376,58.0,0.0,60.0,2.0,0.0
377,59.0,0.0,60.0,2.0,0.0
378,68.0,60.0,60.0,1.0,0.0
379,66.0,60.0,60.0,1.0,0.0
380,58.0,0.0,60.0,2.0,0.0
381,59.0,60.0,60.0,2.0,0.0
382,68.0,0.0,60.0,1.0,0.0
383,66.0,0.0,60.0,1.0,0.0
384,58.0,120.0,60.0,2.0,0.0
385,73.0,0.0,120.0,0.0,0.0
386,49.0,60.0,120.0,3.0,0.0
387,66.0,0.0,60.0,1.0,0.0
388,58.0,0.0,60.0,2.0,0.0
389,59.0,60.0,60.0,2.0,0.0
390,68.0,0.0,60.0,1.0,0.0
391,66.0,60.0,60.0,1.0,0.0
392,58.0,0.0,60.0,2.0,0.0
393,59.0,0.0,60.0,2.0,0.0
394,68.0,60.0,60.0,1.0,0.0
395,58.0,60.0,60.0,2.0,0.0
396,66.0,0.0,60.0,1.0,0.0
397,59.0,60.0,60.0,2.0,0.0
398,68.0,0.0,60.0,1.0,0.0
399,66.0,120.0,60.0,1.0,0.0
400,58.0,0.0,60.0,2.0,0.0
401,47.0,0.0,120.0,3.0,0.0
402,75.0,0.0,120.0,0.0,0.0
403,58.0,0.0,60.0,2.0,0.0
404,66.0,60.0,60.0,1.0,0.0
405,59.0,0.0,60.0,2.0,0.0
406,68.0,60.0,60.0,1.0,0.0
407,66.0,60.0,60.0,1.0,0.0
408,58.0,0.0,60.0,2.0,0.0
409,59.0,0.0,60.0,2.0,0.0
410,68.0,60.0,60.0,1.0,0.0
411,58.0,60.0,60.0,2.0,0.0
412,66.0,0.0,60.0,1.0,0.0
413,68.0,60.0,60.0,1.0,0.0
414,59.0,0.0,60.0,2.0,0.0
415,58.0,0.0,60.0,2.0,0.0
416,66.0,120.0,60.0,1.0,0.0
417,73.0,0.0,120.0,0.0,0.0
418,49.0,60.0,120.0,3.0,0.0
419,66.0,0.0,60.0,1.0,0.0
420,58.0,0.0,60.0,2.0,0.0
421,68.0,60.0,60.0,1.0,0.0
422,59.0,0.0,60.0,2.0,0.0
423,66.0,60.0,60.0,1.0,0.0
424,58.0,0.0,60.0,2.0,0.0
425,68.0,60.0,60.0,1.0,0.0
426,59.0,0.0,60.0,2.0,0.0
427,66.0,60.0,60.0,1.0,0.0
428,58.0,0.0,60.0,2.0,0.0
429,68.0,60.0,60.0,1.0,0.0
430,59.0,0.0,60.0,2.0,0.0
431,66.0,120.0,60.0,1.0,0.0
432,58.0,0.0,60.0,2.0,0.0
433,51.0,60.0,120.0,3.0,0.0
434,71.0,0.0,120.0,0.0,0.0
435,58.0,0.0,60.0,2.0,0.0
436,66.0,0.0,60.0,1.0,0.0
437,68.0,60.0,60.0,1.0,0.0
438,59.0,0.0,60.0,2.0,0.0
439,58.0,0.0,60.0,2.0,0.0
440,66.0,60.0,60.0,1.0,0.0
441,59.0,0.0,60.0,2.0,0.0
442,68.0,60.0,60.0,1.0,0.0
443,66.0,0.0,60.0,1.0,0.0
444,58.0,60.0,60.0,2.0,0.0
445,68.0,60.0,60.0,1.0,0.0
446,59.0,0.0,60.0,2.0,0.0
447,58.0,120.0,60.0,2.0,0.0
448,66.0,0.0,60.0,1.0,0.0
449,73.0,0.0,120.0,0.0,0.0
450,49.0,0.0,120.0,3.0,0.0
451,58.0,60.0,60.0,2.0,0.0
452,66.0,0.0,60.0,1.0,0.0
453,59.0,60.0,60.0,2.0,0.0
454,68.0,0.0,60.0,1.0,0.0
455,66.0,60.0,60.0,1.0,0.0
456,58.0,0.0,60.0,2.0,0.0
457,59.0,0.0,60.0,2.0,0.0
458,68.0,60.0,60.0,1.0,0.0
459,66.0,0.0,60.0,1.0,0.0
460,58.0,60.0,60.0,2.0,0.0
461,59.0,60.0,60.0,2.0,0.0
462,68.0,0.0,60.0,1.0,0.0
463,66.0,120.0,60.0,1.0,0.0
464,58.0,0.0,60.0,2.0,0.0
465,47.0,0.0,120.0,3.0,0.0
466,75.0,0.0,120.0,0.0,0.0
467,66.0,0.0,60.0,1.0,0.0
468,58.0,60.0,60.0,2.0,0.0
469,68.0,60.0,60.0,1.0,0.0
470,59.0,0.0,60.0,2.0,0.0
471,58.0,0.0,60.0,2.0,0.0
472,66.0,60.0,60.0,1.0,0.0
473,59.0,0.0,60.0,2.0,0.0
474,68.0,60.0,60.0,1.0,0.0
475,58.0,0.0,60.0,2.0,0.0
476,66.0,60.0,60.0,1.0,0.0
477,68.0,60.0,60.0,1.0,0.0
478,59.0,0.0,60.0,2.0,0.0
479,58.0,0.0,60.0,2.0,0.0
480,66.0,120.0,60.0,1.0,0.0
481,73.0,0.0,120.0,0.0,0.0
482,49.0,60.0,120.0,3.0,0.0
483,56.0,0.0,60.0,2.0,0.0
484,65.0,0.0,60.0,1.0,0.0
485,66.0,60.0,60.0,1.0,0.0
486,58.0,0.0,60.0,2.0,0.0
487,65.0,0.0,60.0,1.0,0.0
488,56.0,60.0,60.0,2.0,0.0
489,58.0,60.0,60.0,2.0,0.0
490,66.0,0.0,60.0,1.0,0.0
491,65.0,60.0,60.0,1.0,0.0
492,56.0,0.0,60.0,2.0,0.0
493,66.0,60.0,60.0,1.0,0.0
494,58.0,0.0,60.0,2.0,0.0
495,65.0,0.0,60.0,1.0,0.0
496,56.0,120.0,60.0,2.0,0.0
497,70.0,0.0,120.0,1.0,0.0
498,42.0,120.0,120.0,2.0,0.0
499,46.0,0.0,120.0,2.0,0.0
500,66.0,120.0,120.0,1.0,0.0
501,44.0,0.0,120.0,2.0,0.0
502,65.0,120.0,120.0,1.0,0.0
503,46.0,0.0,120.0,2.0,0.0
504,66.0,120.0,120.0,1.0,0.0
505,49.0,0.0,120.0,2.0,0.0
506,61.0,120.0,120.0,1.0,0.0
507,54.0,0.0,120.0,2.0,0.0
508,58.0,120.0,120.0,1.0,0.0
509,53.0,120.0,120.0,2.0,0.0
510,56.0,0.0,120.0,1.0,0.0
511,54.0,0.0,120.0,2.0,0.0
512,58.0,480.0,120.0,1.0,0.0
513,54.0,0.0,480.0,1.0,0.0
514,58.0,120.0,480.0,2.0,0.0
515,87.0,60.0,120.0,0.0,0.0
516,59.0,60.0,240.0,3.0,0.0
517,78.0,0.0,60.0,1.0,0.0
518,80.0,60.0,60.0,1.0,0.0
519,78.0,0.0,60.0,1.0,0.0
520,80.0,60.0,60.0,1.0,0.0
521,75.0,120.0,240.0,3.0,0.0
522,78.0,60.0,60.0,1.0,0.0
523,80.0,60.0,60.0,1.0,0.0
524,78.0,0.0,60.0,1.0,0.0
525,73.0,0.0,240.0,3.0,0.0
526,90.0,60.0,120.0,0.0,0.0
527,78.0,0.0,60.0,1.0,0.0
528,80.0,60.0,60.0,1.0,0.0
529,78.0,60.0,60.0,1.0,0.0
530,80.0,60.0,60.0,1.0,0.0
531,58.0,0.0,240.0,3.0,0.0
532,78.0,60.0,60.0,1.0,0.0
533,80.0,60.0,60.0,1.0,0.0
534,78.0,120.0,60.0,1.0,0.0
535,56.0,60.0,240.0,3.0,0.0
536,83.0,0.0,120.0,0.0,0.0
537,78.0,60.0,60.0,1.0,0.0
538,80.0,60.0,60.0,1.0,0.0
539,78.0,0.0,60.0,1.0,0.0
540,80.0,60.0,60.0,1.0,0.0
541,71.0,0.0,240.0,3.0,0.0
542,78.0,60.0,60.0,1.0,0.0
543,80.0,60.0,60.0,1.0,0.0
544,78.0,120.0,60.0,1.0,0.0
545,85.0,60.0,120.0,0.0,0.0
546,58.0,0.0,240.0,3.0,0.0
547,78.0,0.0,60.0,1.0,0.0
548,80.0,60.0,60.0,1.0,0.0
549,78.0,60.0,60.0,1.0,0.0
550,80.0,60.0,60.0,1.0,0.0
551,73.0,120.0,240.0,3.0,0.0
552,78.0,60.0,60.0,1.0,0.0
553,80.0,60.0,60.0,1.0,0.0
554,78.0,0.0,60.0,1.0,0.0
555,71.0,60.0,240.0,3.0,0.0
556,90.0,60.0,120.0,0.0,0.0
557,78.0,0.0,60.0,1.0,0.0
558,80.0,60.0,60.0,1.0,0.0
559,78.0,0.0,60.0,1.0,0.0
560,80.0,60.0,60.0,1.0,0.0
561,56.0,120.0,240.0,3.0,0.0
562,78.0,60.0,60.0,1.0,0.0
563,80.0,60.0,60.0,1.0,0.0
564,78.0,0.0,60.0,1.0,0.0
565,54.0,0.0,240.0,3.0,0.0
566,82.0,0.0,120.0,0.0,0.0
567,78.0,60.0,60.0,1.0,0.0
568,80.0,60.0,60.0,1.0,0.0
569,78.0,60.0,60.0,1.0,0.0
570,70.0,0.0,240.0,3.0,0.0
571,80.0,60.0,60.0,1.0,0.0
572,78.0,60.0,60.0,1.0,0.0
573,80.0,60.0,60.0,1.0,0.0
574,78.0,120.0,60.0,1.0,0.0
575,56.0,60.0,240.0,3.0,0.0
576,83.0,0.0,120.0,0.0,0.0
577,78.0,60.0,60.0,1.0,0.0
578,80.0,60.0,60.0,1.0,0.0
579,78.0,0.0,60.0,1.0,0.0
580,80.0,60.0,60.0,1.0,0.0
581,71.0,0.0,240.0,3.0,0.0
582,78.0,60.0,60.0,1.0,0.0
583,80.0,60.0,60.0,1.0,0.0
584,78.0,120.0,60.0,1.0,0.0
585,70.0,0.0,240.0,3.0,0.0
586,87.0,60.0,120.0,0.0,0.0
587,78.0,0.0,60.0,1.0,0.0
588,80.0,60.0,60.0,1.0,0.0
589,78.0,60.0,60.0,1.0,0.0
590,59.0,0.0,240.0,3.0,0.0
591,80.0,60.0,60.0,1.0,0.0
592,78.0,60.0,60.0,1.0,0.0
593,80.0,60.0,60.0,1.0,0.0
594,78.0,120.0,60.0,1.0,0.0
595,85.0,0.0,120.0,0.0,0.0
596,61.0,60.0,240.0,3.0,0.0
597,77.0,60.0,60.0,1.0,0.0
598,78.0,60.0,60.0,1.0,0.0
599,77.0,0.0,60.0,1.0,0.0
600,78.0,60.0,60.0,1.0,0.0
601,68.0,0.0,240.0,3.0,0.0
602,77.0,60.0,60.0,1.0,0.0
603,78.0,60.0,60.0,1.0,0.0
604,77.0,120.0,60.0,1.0,0.0
605,82.0,60.0,120.0,0.0,0.0
606,54.0,0.0,240.0,3.0,0.0
607,78.0,0.0,60.0,1.0,0.0
608,80.0,60.0,60.0,1.0,0.0
609,78.0,60.0,60.0,1.0,0.0
610,70.0,120.0,240.0,3.0,0.0
611,80.0,60.0,60.0,1.0,0.0
612,78.0,60.0,60.0,1.0,0.0
613,80.0,60.0,60.0,1.0,0.0
614,78.0,0.0,60.0,1.0,0.0
615,68.0,60.0,240.0,3.0,0.0
616,89.0,60.0,120.0,0.0,0.0
617,78.0,0.0,60.0,1.0,0.0
618,80.0,60.0,60.0,1.0,0.0
619,78.0,0.0,60.0,1.0,0.0
620,59.0,120.0,240.0,3.0,0.0
621,80.0,60.0,60.0,1.0,0.0
622,78.0,60.0,60.0,1.0,0.0
623,80.0,60.0,60.0,1.0,0.0
624,78.0,0.0,60.0,1.0,0.0
625,58.0,60.0,240.0,3.0,0.0
626,90.0,60.0,120.0,0.0,0.0
627,78.0,0.0,60.0,1.0,0.0
628,80.0,60.0,60.0,1.0,0.0
629,78.0,0.0,60.0,1.0,0.0
630,64.0,0.0,240.0,3.0,0.0
631,80.0,60.0,60.0,1.0,0.0
632,78.0,60.0,60.0,1.0,0.0
633,80.0,60.0,60.0,1.0,0.0
634,78.0,120.0,60.0,1.0,0.0
635,63.0,0.0,120.0,3.0,0.0
636,83.0,0.0,240.0,0.0,0.0
637,71.0,60.0,60.0,2.0,0.0
638,73.0,60.0,60.0,2.0,0.0
639,71.0,60.0,60.0,2.0,0.0
640,59.0,120.0,240.0,0.0,0.0
641,73.0,60.0,60.0,2.0,0.0
642,71.0,60.0,60.0,2.0,0.0
643,73.0,60.0,60.0,2.0,0.0
644,71.0,0.0,60.0,2.0,0.0
645,61.0,0.0,240.0,0.0,0.0
646,64.0,60.0,120.0,3.0,0.0
647,71.0,0.0,60.0,2.0,0.0
648,73.0,60.0,60.0,2.0,0.0
649,71.0,60.0,60.0,2.0,0.0
650,80.0,120.0,240.0,0.0,0.0
651,73.0,60.0,60.0,2.0,0.0
652,71.0,60.0,60.0,2.0,0.0
653,73.0,60.0,60.0,2.0,0.0
654,71.0,0.0,60.0,2.0,0.0
655,81.0,60.0,240.0,0.0,0.0
656,66.0,0.0,120.0,3.0,0.0
657,71.0,60.0,60.0,2.0,0.0
658,73.0,60.0,60.0,2.0,0.0
659,71.0,0.0,60.0,2.0,0.0
660,73.0,60.0,60.0,2.0,0.0
661,78.0,120.0,240.0,0.0,0.0
662,75.0,0.0,240.0,1.0,0.0
663,71.0,60.0,60.0,2.0,0.0
664,73.0,60.0,60.0,2.0,0.0
665,71.0,0.0,60.0,2.0,0.0
666,76.0,0.0,240.0,1.0,0.0
667,64.0,60.0,120.0,3.0,0.0
668,80.0,0.0,240.0,0.0,0.0
669,71.0,0.0,60.0,2.0,0.0
670,73.0,60.0,60.0,2.0,0.0
671,71.0,60.0,60.0,2.0,0.0
672,73.0,60.0,60.0,2.0,0.0
673,61.0,0.0,240.0,0.0,0.0
674,71.0,60.0,60.0,2.0,0.0
675,73.0,60.0,60.0,2.0,0.0
676,71.0,120.0,60.0,2.0,0.0
677,66.0,60.0,120.0,3.0,0.0
678,63.0,60.0,240.0,0.0,0.0
679,71.0,0.0,60.0,2.0,0.0
680,73.0,60.0,60.0,2.0,0.0
681,71.0,0.0,60.0,2.0,0.0
682,73.0,60.0,60.0,2.0,0.0
683,82.0,0.0,240.0,0.0,0.0
684,71.0,60.0,60.0,2.0,0.0
685,73.0,60.0,60.0,2.0,0.0
686,71.0,120.0,60.0,2.0,0.0
687,83.0,0.0,240.0,0.0,0.0
688,68.0,60.0,120.0,3.0,0.0
689,71.0,0.0,60.0,2.0,0.0
690,73.0,60.0,60.0,2.0,0.0
691,71.0,60.0,60.0,2.0,0.0
692,77.0,120.0,240.0,0.0,0.0
693,85.0,0.0,240.0,1.0,0.0
694,73.0,60.0,60.0,2.0,0.0
695,71.0,60.0,60.0,2.0,0.0
696,73.0,60.0,60.0,2.0,0.0
697,71.0,0.0,60.0,2.0,0.0
698,87.0,60.0,240.0,1.0,0.0
699,66.0,0.0,120.0,3.0,0.0
700,78.0,0.0,240.0,0.0,0.0
701,71.0,60.0,60.0,2.0,0.0
702,73.0,60.0,60.0,2.0,0.0
703,71.0,0.0,60.0,2.0,0.0
704,73.0,60.0,60.0,2.0,0.0
705,61.0,0.0,240.0,1.0,0.0
706,58.0,120.0,240.0,0.0,0.0
707,71.0,60.0,60.0,2.0,0.0
708,73.0,60.0,60.0,2.0,0.0
709,71.0,0.0,60.0,2.0,0.0
710,68.0,60.0,120.0,3.0,0.0
711,59.0,0.0,240.0,0.0,0.0
712,63.0,0.0,240.0,1.0,0.0
713,71.0,0.0,60.0,2.0,0.0
714,73.0,60.0,60.0,2.0,0.0
715,71.0,60.0,60.0,2.0,0.0
716,53.0,0.0,240.0,0.0,0.0
717,56.0,120.0,240.0,1.0,0.0
718,73.0,60.0,60.0,2.0,0.0
719,71.0,60.0,60.0,2.0,0.0
720,73.0,60.0,60.0,2.0,0.0
721,71.0,0.0,60.0,2.0,0.0
722,61.0,60.0,120.0,3.0,0.0
723,54.0,0.0,240.0,0.0,0.0
724,58.0,60.0,240.0,1.0,0.0
725,71.0,0.0,60.0,2.0,0.0
726,73.0,60.0,60.0,2.0,0.0
727,71.0,0.0,60.0,2.0,0.0
728,42.0,120.0,240.0,0.0,0.0
729,73.0,60.0,60.0,2.0,0.0
730,71.0,60.0,60.0,2.0,0.0
731,73.0,60.0,60.0,2.0,0.0
732,71.0,0.0,60.0,2.0,0.0
733,47.0,0.0,240.0,0.0,0.0
734,63.0,60.0,120.0,3.0,0.0
735,71.0,0.0,60.0,2.0,0.0
736,73.0,60.0,60.0,2.0,0.0
737,71.0,60.0,60.0,2.0,0.0
738,80.0,120.0,240.0,0.0,0.0
739,88.0,0.0,240.0,1.0,0.0
740,73.0,60.0,60.0,2.0,0.0
741,71.0,60.0,60.0,2.0,0.0
742,73.0,60.0,60.0,2.0,0.0
743,71.0,0.0,60.0,2.0,0.0
744,78.0,60.0,240.0,0.0,0.0
745,87.0,0.0,240.0,1.0,0.0
746,64.0,0.0,120.0,3.0,0.0
747,71.0,60.0,60.0,2.0,0.0
748,73.0,60.0,60.0,2.0,0.0
749,71.0,0.0,60.0,2.0,0.0
750,85.0,120.0,240.0,1.0,0.0
751,73.0,60.0,60.0,2.0,0.0
752,76.0,0.0,240.0,0.0,0.0
753,71.0,60.0,60.0,2.0,0.0
754,73.0,60.0,60.0,2.0,0.0
755,71.0,0.0,60.0,2.0,0.0
756,66.0,60.0,120.0,3.0,0.0
757,83.0,60.0,240.0,1.0,0.0
758,75.0,0.0,240.0,0.0,0.0
759,71.0,0.0,60.0,2.0,0.0
760,73.0,60.0,60.0,2.0,0.0
761,71.0,0.0,60.0,2.0,0.0
762,73.0,60.0,60.0,2.0,0.0
763,73.0,0.0,240.0,1.0,0.0
764,76.0,120.0,240.0,0.0,0.0
765,82.0,0.0,240.0,1.0,0.0
766,71.0,60.0,60.0,2.0,0.0
767,73.0,60.0,60.0,2.0,0.0
768,71.0,0.0,60.0,2.0,0.0
769,75.0,120.0,120.0,1.0,0.0
770,87.0,0.0,120.0,1.0,0.0
771,59.0,0.0,120.0,2.0,0.0
772,78.0,0.0,120.0,3.0,0.0
773,83.0,0.0,120.0,0.0,0.0
774,63.0,0.0,120.0,2.0,0.0
775,83.0,120.0,120.0,1.0,0.0
776,61.0,120.0,120.0,2.0,0.0
777,82.0,0.0,120.0,1.0,0.0
778,63.0,120.0,120.0,2.0,0.0
779,83.0,0.0,120.0,1.0,0.0
780,80.0,120.0,120.0,1.0,0.0
781,68.0,0.0,120.0,2.0,0.0
782,75.0,120.0,120.0,1.0,0.0
783,71.0,0.0,120.0,2.0,0.0
784,70.0,120.0,120.0,2.0,0.0
785,73.0,0.0,120.0,1.0,0.0
786,75.0,120.0,120.0,1.0,0.0
787,71.0,0.0,120.0,2.0,0.0
788,75.0,0.0,120.0,2.0,0.0
789,71.0,120.0,120.0,1.0,0.0
790,75.0,120.0,120.0,1.0,0.0
791,71.0,0.0,120.0,2.0,0.0
792,68.0,120.0,120.0,2.0,0.0
793,80.0,0.0,120.0,1.0,0.0
794,83.0,0.0,120.0,1.0,0.0
795,65.0,120.0,120.0,2.0,0.0
796,58.0,0.0,120.0,2.0,0.0
797,85.0,120.0,120.0,1.0,0.0
798,61.0,0.0,120.0,2.0,0.0
799,82.0,120.0,120.0,1.0,0.0
800,59.0,0.0,120.0,2.0,0.0
801,80.0,120.0,120.0,1.0,0.0
802,61.0,120.0,120.0,2.0,0.0
803,82.0,0.0,120.0,1.0,0.0
804,78.0,0.0,120.0,1.0,0.0
805,66.0,120.0,120.0,2.0,0.0
806,70.0,120.0,120.0,2.0,0.0
807,73.0,0.0,120.0,1.0,0.0
808,71.0,0.0,120.0,1.0,0.0
809,68.0,120.0,120.0,2.0,0.0
810,70.0,120.0,120.0,2.0,0.0
811,73.0,0.0,120.0,1.0,0.0
812,70.0,120.0,120.0,1.0,0.0
813,73.0,0.0,120.0,2.0,0.0
814,70.0,0.0,120.0,2.0,0.0
815,73.0,120.0,120.0,1.0,0.0
816,78.0,0.0,120.0,1.0,0.0
817,66.0,120.0,120.0,2.0,0.0
818,82.0,0.0,120.0,1.0,0.0
819,63.0,120.0,120.0,2.0,0.0
820,56.0,0.0,120.0,2.0,0.0
821,83.0,120.0,120.0,1.0,0.0
822,59.0,0.0,120.0,2.0,0.0
823,80.0,120.0,120.0,1.0,0.0
824,58.0,120.0,120.0,2.0,0.0
825,79.0,0.0,120.0,1.0,0.0
826,59.0,120.0,120.0,2.0,0.0
827,80.0,0.0,120.0,1.0,0.0
828,75.0,0.0,120.0,1.0,0.0
829,63.0,120.0,120.0,2.0,0.0
830,71.0,0.0,120.0,1.0,0.0
831,68.0,120.0,120.0,2.0,0.0
832,70.0,0.0,120.0,1.0,0.0
833,67.0,120.0,120.0,2.0,0.0
834,71.0,0.0,120.0,1.0,0.0
835,68.0,120.0,120.0,2.0,0.0
836,68.0,120.0,120.0,1.0,0.0
837,71.0,0.0,120.0,2.0,0.0
838,68.0,0.0,120.0,2.0,0.0
839,71.0,120.0,120.0,1.0,0.0
840,63.0,120.0,120.0,2.0,0.0
841,75.0,0.0,120.0,1.0,0.0
842,59.0,0.0,120.0,2.0,0.0
843,78.0,120.0,120.0,1.0,0.0
844,77.0,120.0,120.0,1.0,0.0
845,61.0,0.0,120.0,2.0,0.0
846,71.0,120.0,120.0,1.0,0.0
847,68.0,0.0,120.0,2.0,0.0
848,66.0,0.0,120.0,2.0,0.0
849,70.0,120.0,120.0,1.0,0.0
850,71.0,0.0,120.0,1.0,0.0
851,68.0,120.0,120.0,2.0,0.0
852,68.0,120.0,120.0,1.0,0.0
853,71.0,0.0,120.0,2.0,0.0
854,73.0,0.0,120.0,2.0,0.0
855,65.0,120.0,120.0,1.0,0.0
856,71.0,120.0,120.0,2.0,0.0
857,63.0,0.0,120.0,1.0,0.0
858,65.0,0.0,120.0,1.0,0.0
859,73.0,120.0,120.0,2.0,0.0
860,61.0,0.0,120.0,1.0,0.0
861,71.0,120.0,120.0,2.0,0.0
862,68.0,0.0,120.0,2.0,0.0
863,65.0,120.0,120.0,1.0,0.0
864,65.0,120.0,120.0,2.0,0.0
865,68.0,0.0,120.0,1.0,0.0
866,61.0,120.0,120.0,2.0,0.0
867,71.0,0.0,120.0,1.0,0.0
868,54.0,60.0,120.0,3.0,0.0
869,70.0,0.0,120.0,0.0,0.0
870,58.0,0.0,60.0,2.0,0.0
871,66.0,0.0,60.0,1.0,0.0
872,59.0,60.0,60.0,2.0,0.0
873,68.0,0.0,60.0,1.0,0.0
874,66.0,60.0,60.0,1.0,0.0
875,58.0,0.0,60.0,2.0,0.0
876,59.0,0.0,60.0,2.0,0.0
877,68.0,60.0,60.0,1.0,0.0
878,66.0,0.0,60.0,1.0,0.0
879,58.0,60.0,60.0,2.0,0.0
880,68.0,0.0,60.0,1.0,0.0
881,59.0,60.0,60.0,2.0,0.0
882,66.0,0.0,60.0,1.0,0.0
883,58.0,120.0,60.0,2.0,0.0
884,51.0,0.0,120.0,3.0,0.0
885,71.0,0.0,120.0,0.0,0.0
886,58.0,0.0,60.0,2.0,0.0
887,66.0,60.0,60.0,1.0,0.0
888,68.0,60.0,60.0,1.0,0.0
889,59.0,0.0,60.0,2.0,0.0
890,66.0,60.0,60.0,1.0,0.0
891,58.0,0.0,60.0,2.0,0.0
892,68.0,0.0,60.0,1.0,0.0
893,59.0,60.0,60.0,2.0,0.0
894,66.0,60.0,60.0,1.0,0.0
895,58.0,0.0,60.0,2.0,0.0
896,68.0,60.0,60.0,1.0,0.0
897,59.0,0.0,60.0,2.0,0.0
898,58.0,120.0,60.0,2.0,0.0
899,66.0,0.0,60.0,1.0,0.0
900,73.0,0.0,120.0,0.0,0.0
901,49.0,0.0,120.0,3.0,0.0
902,66.0,0.0,60.0,1.0,0.0
903,58.0,60.0,60.0,2.0,0.0
904,68.0,60.0,60.0,1.0,0.0
905,59.0,0.0,60.0,2.0,0.0
906,58.0,0.0,60.0,2.0,0.0
907,66.0,60.0,60.0,1.0,0.0
908,59.0,0.0,60.0,2.0,0.0
909,68.0,60.0,60.0,1.0,0.0
910,58.0,60.0,60.0,2.0,0.0
911,66.0,0.0,60.0,1.0,0.0
912,59.0,0.0,60.0,2.0,0.0
913,68.0,60.0,60.0,1.0,0.0
914,66.0,0.0,60.0,1.0,0.0
915,58.0,120.0,60.0,2.0,0.0
916,75.0,0.0,120.0,0.0,0.0
917,47.0,60.0,120.0,3.0,0.0
918,58.0,0.0,60.0,2.0,0.0
919,66.0,0.0,60.0,1.0,0.0
920,68.0,0.0,60.0,1.0,0.0
921,59.0,60.0,60.0,2.0,0.0
922,58.0,0.0,60.0,2.0,0.0
923,66.0,60.0,60.0,1.0,0.0
924,59.0,0.0,60.0,2.0,0.0
925,68.0,60.0,60.0,1.0,0.0
926,58.0,0.0,60.0,2.0,0.0
927,66.0,60.0,60.0,1.0,0.0
928,59.0,0.0,60.0,2.0,0.0
929,68.0,60.0,60.0,1.0,0.0
930,66.0,0.0,60.0,1.0,0.0
931,58.0,120.0,60.0,2.0,0.0
932,73.0,0.0,120.0,0.0,0.0
933,49.0,0.0,120.0,3.0,0.0
934,58.0,60.0,60.0,2.0,0.0
935,66.0,0.0,60.0,1.0,0.0
936,68.0,60.0,60.0,1.0,0.0
937,59.0,0.0,60.0,2.0,0.0
938,58.0,0.0,60.0,2.0,0.0
939,66.0,60.0,60.0,1.0,0.0
940,59.0,0.0,60.0,2.0,0.0
941,68.0,60.0,60.0,1.0,0.0
942,58.0,0.0,60.0,2.0,0.0
943,66.0,60.0,60.0,1.0,0.0
944,59.0,0.0,60.0,2.0,0.0
945,68.0,60.0,60.0,1.0,0.0
946,66.0,120.0,60.0,1.0,0.0
947,58.0,0.0,60.0,2.0,0.0
948,71.0,60.0,120.0,0.0,0.0
949,51.0,0.0,120.0,3.0,0.0
950,58.0,0.0,60.0,2.0,0.0
951,66.0,0.0,60.0,1.0,0.0
952,68.0,60.0,60.0,1.0,0.0
953,59.0,0.0,60.0,2.0,0.0
954,58.0,0.0,60.0,2.0,0.0
955,66.0,60.0,60.0,1.0,0.0
956,59.0,0.0,60.0,2.0,0.0
957,68.0,60.0,60.0,1.0,0.0
958,58.0,60.0,60.0,2.0,0.0
959,66.0,0.0,60.0,1.0,0.0
960,68.0,60.0,60.0,1.0,0.0
961,59.0,0.0,60.0,2.0,0.0
962,58.0,0.0,60.0,2.0,0.0
963,66.0,120.0,60.0,1.0,0.0
964,49.0,0.0,120.0,3.0,0.0
965,73.0,0.0,120.0,0.0,0.0
966,66.0,0.0,60.0,1.0,0.0
967,58.0,60.0,60.0,2.0,0.0
968,68.0,0.0,60.0,1.0,0.0
969,59.0,60.0,60.0,2.0,0.0
970,66.0,0.0,60.0,1.0,0.0
971,58.0,60.0,60.0,2.0,0.0
972,68.0,60.0,60.0,1.0,0.0
973,59.0,0.0,60.0,2.0,0.0
974,58.0,0.0,60.0,2.0,0.0
975,66.0,60.0,60.0,1.0,0.0
976,68.0,0.0,60.0,1.0,0.0
977,59.0,60.0,60.0,2.0,0.0
978,58.0,120.0,60.0,2.0,0.0
979,66.0,0.0,60.0,1.0,0.0
980,47.0,0.0,120.0,3.0,0.0
981,75.0,0.0,120.0,0.0,0.0
982,66.0,0.0,60.0,1.0,0.0
983,58.0,60.0,60.0,2.0,0.0
984,68.0,60.0,60.0,1.0,0.0
985,59.0,0.0,60.0,2.0,0.0
986,58.0,60.0,60.0,2.0,0.0
987,66.0,0.0,60.0,1.0,0.0
988,68.0,0.0,60.0,1.0,0.0
989,59.0,60.0,60.0,2.0,0.0
990,58.0,0.0,60.0,2.0,0.0
991,66.0,60.0,60.0,1.0,0.0
992,59.0,0.0,60.0,2.0,0.0
993,68.0,60.0,60.0,1.0,0.0
994,66.0,120.0,60.0,1.0,0.0
995,58.0,0.0,60.0,2.0,0.0
996,49.0,0.0,120.0,3.0,0.0
997,73.0,0.0,120.0,0.0,0.0
998,65.0,60.0,60.0,1.0,0.0
999,56.0,0.0,60.0,2.0,0.0
1000,58.0,0.0,60.0,2.0,0.0
1001,66.0,60.0,60.0,1.0,0.0
1002,65.0,0.0,60.0,1.0,0.0
1003,56.0,60.0,60.0,2.0,0.0
1004,58.0,0.0,60.0,2.0,0.0
1005,66.0,60.0,60.0,1.0,0.0
1006,56.0,0.0,60.0,2.0,0.0
1007,65.0,60.0,60.0,1.0,0.0
1008,66.0,60.0,60.0,1.0,0.0
1009,58.0,0.0,60.0,2.0,0.0
1010,56.0,0.0,60.0,2.0,0.0
1011,65.0,120.0,60.0,1.0,0.0
1012,42.0,0.0,120.0,2.0,0.0
1013,70.0,120.0,120.0,1.0,0.0
1014,46.0,0.0,120.0,2.0,0.0
1015,66.0,120.0,120.0,1.0,0.0
1016,44.0,120.0,120.0,2.0,0.0
1017,65.0,0.0,120.0,1.0,0.0
1018,66.0,0.0,120.0,1.0,0.0
1019,46.0,120.0,120.0,2.0,0.0
1020,61.0,0.0,120.0,1.0,0.0
1021,49.0,120.0,120.0,2.0,0.0
1022,54.0,0.0,120.0,2.0,0.0
1023,58.0,120.0,120.0,1.0,0.0
1024,53.0,0.0,120.0,2.0,0.0
1025,56.0,120.0,120.0,1.0,0.0
1026,54.0,480.0,120.0,2.0,0.0
1027,58.0,0.0,120.0,1.0,0.0
1028,54.0,0.0,480.0,1.0,0.0
1029,58.0,120.0,480.0,2.0,0.0
1030,70.0,120.0,120.0,1.0,0.0
1031,66.0,120.0,240.0,2.0,0.0
1032,73.0,0.0,120.0,1.0,0.0
1033,71.0,120.0,120.0,1.0,0.0
1034,56.0,120.0,240.0,2.0,0.0
1035,73.0,0.0,120.0,1.0,0.0
1036,78.0,120.0,120.0,1.0,0.0
1037,58.0,120.0,240.0,2.0,0.0
1038,82.0,0.0,120.0,1.0,0.0
1039,80.0,120.0,120.0,1.0,0.0
1040,64.0,0.0,240.0,2.0,0.0
1041,82.0,120.0,120.0,1.0,0.0
1042,54.0,0.0,240.0,2.0,0.0
1043,85.0,120.0,120.0,1.0,0.0
1044,82.0,120.0,120.0,1.0,0.0
1045,76.0,120.0,120.0,1.0,0.0
1046,70.0,120.0,240.0,2.0,0.0
1047,73.0,0.0,120.0,1.0,0.0
1048,71.0,120.0,240.0,2.0,0.0
1049,75.0,120.0,120.0,1.0,0.0
1050,78.0,0.0,120.0,1.0,0.0
1051,61.0,0.0,240.0,2.0,0.0
1052,76.0,120.0,120.0,1.0,0.0
1053,78.0,120.0,120.0,1.0,0.0
1054,83.0,120.0,120.0,1.0,0.0
1055,63.0,120.0,240.0,2.0,0.0
1056,87.0,0.0,120.0,1.0,0.0
1057,85.0,120.0,120.0,1.0,0.0
1058,69.0,0.0,240.0,2.0,0.0
1059,87.0,120.0,120.0,1.0,0.0
1060,59.0,120.0,240.0,2.0,0.0
1061,90.0,120.0,120.0,1.0,0.0
1062,87.0,0.0,120.0,1.0,0.0
1063,81.0,120.0,120.0,1.0,0.0
1064,75.0,0.0,240.0,2.0,0.0
1065,78.0,120.0,120.0,1.0,0.0
1066,80.0,120.0,240.0,1.0,0.0
1067,76.0,120.0,120.0,2.0,0.0
1068,71.0,0.0,120.0,2.0,0.0
1069,69.0,120.0,120.0,2.0,0.0
1070,75.0,0.0,240.0,1.0,0.0
1071,71.0,120.0,120.0,2.0,0.0
1072,76.0,120.0,240.0,1.0,0.0
1073,68.0,120.0,120.0,2.0,0.0
1074,64.0,0.0,120.0,2.0,0.0
1075,67.0,0.0,240.0,1.0,0.0
1076,63.0,120.0,120.0,2.0,0.0
1077,64.0,120.0,120.0,2.0,0.0
1078,68.0,120.0,240.0,1.0,0.0
1079,61.0,120.0,120.0,2.0,0.0
1080,64.0,0.0,120.0,2.0,0.0
1081,59.0,0.0,240.0,1.0,0.0
1082,68.0,120.0,120.0,2.0,0.0
1083,73.0,120.0,120.0,2.0,0.0
1084,58.0,120.0,240.0,1.0,0.0
1085,67.0,120.0,120.0,2.0,0.0
1086,63.0,0.0,120.0,2.0,0.0
1087,62.0,120.0,120.0,2.0,0.0
1088,80.0,0.0,240.0,1.0,0.0
1089,63.0,120.0,120.0,2.0,0.0
1090,58.0,120.0,120.0,2.0,0.0
1091,79.0,0.0,120.0,1.0,0.0
1092,82.0,0.0,120.0,1.0,0.0
1093,55.0,120.0,120.0,2.0,0.0
1094,80.0,0.0,120.0,1.0,0.0
1095,53.0,120.0,120.0,2.0,0.0
1096,82.0,120.0,120.0,1.0,0.0
1097,55.0,0.0,120.0,2.0,0.0
1098,85.0,120.0,120.0,1.0,0.0
1099,51.0,0.0,120.0,2.0,0.0
1100,55.0,120.0,120.0,2.0,0.0
1101,82.0,0.0,120.0,1.0,0.0
1102,79.0,120.0,120.0,1.0,0.0
1103,58.0,0.0,120.0,2.0,0.0
1104,82.0,120.0,120.0,1.0,0.0
1105,61.0,0.0,120.0,2.0,0.0
1106,75.0,0.0,120.0,1.0,0.0
1107,59.0,0.0,120.0,3.0,0.0
1108,68.0,0.0,60.0,2.0,0.0
1109,83.0,60.0,60.0,0.0,0.0
1110,70.0,0.0,60.0,2.0,0.0
1111,85.0,60.0,60.0,0.0,0.0
1112,68.0,0.0,60.0,2.0,0.0
1113,83.0,60.0,60.0,0.0,0.0
1114,85.0,0.0,60.0,0.0,0.0
1115,70.0,60.0,60.0,2.0,0.0
1116,68.0,0.0,60.0,2.0,0.0
1117,83.0,60.0,60.0,0.0,0.0
1118,70.0,60.0,60.0,2.0,0.0
1119,85.0,0.0,60.0,0.0,0.0
1120,83.0,120.0,60.0,0.0,0.0
1121,68.0,0.0,60.0,2.0,0.0
1122,61.0,0.0,120.0,3.0,0.0
1123,77.0,60.0,120.0,1.0,0.0
1124,83.0,0.0,60.0,0.0,0.0
1125,68.0,0.0,60.0,2.0,0.0
1126,85.0,0.0,60.0,0.0,0.0
1127,70.0,60.0,60.0,2.0,0.0
1128,68.0,60.0,60.0,2.0,0.0
1129,83.0,0.0,60.0,0.0,0.0
1130,70.0,60.0,60.0,2.0,0.0
1131,85.0,0.0,60.0,0.0,0.0
1132,83.0,60.0,60.0,0.0,0.0
1133,68.0,0.0,60.0,2.0,0.0
1134,70.0,0.0,60.0,2.0,0.0
1135,85.0,60.0,60.0,0.0,0.0
1136,83.0,120.0,60.0,0.0,0.0
1137,68.0,0.0,60.0,2.0,0.0
1138,63.0,0.0,120.0,3.0,0.0
1139,79.0,0.0,120.0,1.0,0.0
1140,83.0,0.0,60.0,0.0,0.0
1141,68.0,60.0,60.0,2.0,0.0
1142,70.0,60.0,60.0,2.0,0.0
1143,85.0,0.0,60.0,0.0,0.0
1144,83.0,0.0,60.0,0.0,0.0
1145,68.0,60.0,60.0,2.0,0.0
1146,70.0,0.0,60.0,2.0,0.0
1147,85.0,60.0,60.0,0.0,0.0
1148,68.0,0.0,60.0,2.0,0.0
1149,83.0,60.0,60.0,0.0,0.0
1150,70.0,60.0,60.0,2.0,0.0
1151,85.0,0.0,60.0,0.0,0.0
1152,83.0,120.0,60.0,0.0,0.0
1153,68.0,0.0,60.0,2.0,0.0
1154,64.0,0.0,120.0,3.0,0.0
1155,80.0,0.0,120.0,1.0,0.0
1156,68.0,60.0,60.0,2.0,0.0
1157,83.0,0.0,60.0,0.0,0.0
1158,85.0,60.0,60.0,0.0,0.0
1159,70.0,0.0,60.0,2.0,0.0
1160,68.0,60.0,60.0,2.0,0.0
1161,83.0,0.0,60.0,0.0,0.0
1162,85.0,0.0,60.0,0.0,0.0
1163,70.0,60.0,60.0,2.0,0.0
1164,83.0,0.0,60.0,0.0,0.0
1165,68.0,60.0,60.0,2.0,0.0
1166,85.0,0.0,60.0,0.0,0.0
1167,70.0,60.0,60.0,2.0,0.0
1168,68.0,0.0,60.0,2.0,0.0
1169,83.0,120.0,60.0,0.0,0.0
1170,63.0,0.0,120.0,3.0,0.0
1171,79.0,0.0,120.0,1.0,0.0
1172,68.0,0.0,60.0,2.0,0.0
1173,83.0,60.0,60.0,0.0,0.0
1174,85.0,0.0,60.0,0.0,0.0
1175,70.0,60.0,60.0,2.0,0.0
1176,83.0,60.0,60.0,0.0,0.0
1177,68.0,0.0,60.0,2.0,0.0
1178,85.0,60.0,60.0,0.0,0.0
1179,70.0,0.0,60.0,2.0,0.0
1180,68.0,0.0,60.0,2.0,0.0
1181,83.0,60.0,60.0,0.0,0.0
1182,70.0,60.0,60.0,2.0,0.0
1183,85.0,0.0,60.0,0.0,0.0
1184,83.0,120.0,60.0,0.0,0.0
1185,68.0,0.0,60.0,2.0,0.0
1186,80.0,0.0,120.0,1.0,0.0
1187,64.0,0.0,120.0,3.0,0.0
1188,68.0,0.0,60.0,2.0,0.0
1189,83.0,60.0,60.0,0.0,0.0
1190,70.0,60.0,60.0,2.0,0.0
1191,85.0,0.0,60.0,0.0,0.0
1192,83.0,0.0,60.0,0.0,0.0
1193,68.0,60.0,60.0,2.0,0.0
1194,85.0,0.0,60.0,0.0,0.0
1195,70.0,60.0,60.0,2.0,0.0
1196,68.0,60.0,60.0,2.0,0.0
1197,83.0,0.0,60.0,0.0,0.0
1198,70.0,60.0,60.0,2.0,0.0
1199,85.0,0.0,60.0,0.0,0.0
1200,83.0,0.0,60.0,0.0,0.0
1201,68.0,120.0,60.0,2.0,0.0
1202,62.0,0.0,120.0,3.0,0.0
1203,77.0,60.0,120.0,1.0,0.0
1204,83.0,0.0,60.0,0.0,0.0
1205,68.0,0.0,60.0,2.0,0.0
1206,85.0,0.0,60.0,0.0,0.0
1207,70.0,60.0,60.0,2.0,0.0
1208,83.0,60.0,60.0,0.0,0.0
1209,68.0,0.0,60.0,2.0,0.0
1210,70.0,0.0,60.0,2.0,0.0
1211,85.0,60.0,60.0,0.0,0.0
1212,83.0,0.0,60.0,0.0,0.0
1213,68.0,60.0,60.0,2.0,0.0
1214,70.0,60.0,60.0,2.0,0.0
1215,85.0,0.0,60.0,0.0,0.0
1216,68.0,120.0,60.0,2.0,0.0
1217,83.0,0.0,60.0,0.0,0.0
1218,75.0,60.0,120.0,1.0,0.0
1219,63.0,0.0,120.0,3.0,0.0
1220,83.0,0.0,60.0,0.0,0.0
1221,68.0,0.0,60.0,2.0,0.0
1222,85.0,0.0,60.0,0.0,0.0
1223,70.0,60.0,60.0,2.0,0.0
1224,68.0,60.0,60.0,2.0,0.0
1225,83.0,0.0,60.0,0.0,0.0
1226,85.0,60.0,60.0,0.0,0.0
1227,70.0,0.0,60.0,2.0,0.0
1228,68.0,0.0,60.0,2.0,0.0
1229,83.0,60.0,60.0,0.0,0.0
1230,70.0,60.0,60.0,2.0,0.0
1231,85.0,0.0,60.0,0.0,0.0
1232,83.0,120.0,60.0,0.0,0.0
1233,68.0,0.0,60.0,2.0,0.0
1234,63.0,0.0,120.0,3.0,0.0
1235,73.0,0.0,120.0,1.0,0.0
1236,82.0,0.0,60.0,0.0,0.0
1237,67.0,60.0,60.0,2.0,0.0
1238,83.0,0.0,60.0,0.0,0.0
1239,68.0,60.0,60.0,2.0,0.0
1240,82.0,0.0,60.0,0.0,0.0
1241,67.0,60.0,60.0,2.0,0.0
1242,83.0,0.0,60.0,0.0,0.0
1243,68.0,60.0,60.0,2.0,0.0
1244,82.0,0.0,60.0,0.0,0.0
1245,67.0,60.0,60.0,2.0,0.0
1246,83.0,0.0,60.0,0.0,0.0
1247,68.0,60.0,60.0,2.0,0.0
1248,82.0,120.0,60.0,0.0,0.0
1249,67.0,0.0,60.0,2.0,0.0
1250,80.0,0.0,120.0,0.0,0.0
1251,56.0,120.0,120.0,3.0,0.0
1252,71.0,0.0,120.0,0.0,0.0
1253,68.0,120.0,120.0,3.0,0.0
1254,70.0,120.0,120.0,0.0,0.0
1255,67.0,0.0,120.0,3.0,0.0
1256,68.0,120.0,120.0,3.0,0.0
1257,71.0,0.0,120.0,0.0,0.0
1258,75.0,120.0,120.0,0.0,0.0
1259,63.0,0.0,120.0,3.0,0.0
1260,80.0,0.0,120.0,0.0,0.0
1261,59.0,120.0,120.0,3.0,0.0
1262,79.0,0.0,120.0,0.0,0.0
1263,58.0,120.0,120.0,3.0,0.0
1264,80.0,60.0,120.0,0.0,0.0
1265,59.0,0.0,120.0,3.0,0.0
1266,56.0,120.0,120.0,3.0,0.0
1267,83.0,60.0,60.0,0.0,0.0
1268,81.0,0.0,60.0,0.0,0.0
1269,59.0,0.0,120.0,3.0,0.0
1270,80.0,60.0,120.0,0.0,0.0
1271,63.0,120.0,120.0,3.0,0.0
1272,81.0,60.0,60.0,0.0,0.0
1273,80.0,0.0,60.0,0.0,0.0
1274,66.0,0.0,120.0,3.0,0.0
1275,78.0,120.0,120.0,0.0,0.0
1276,64.0,60.0,120.0,3.0,0.0
1277,80.0,60.0,240.0,0.0,0.0
1278,71.0,0.0,60.0,1.0,0.0
1279,73.0,60.0,60.0,1.0,0.0
1280,71.0,0.0,60.0,1.0,0.0
1281,73.0,60.0,60.0,1.0,0.0
1282,68.0,0.0,240.0,0.0,0.0
1283,71.0,60.0,60.0,1.0,0.0
1284,73.0,60.0,60.0,1.0,0.0
1285,71.0,120.0,60.0,1.0,0.0
1286,67.0,60.0,240.0,0.0,0.0
1287,63.0,60.0,120.0,3.0,0.0
1288,71.0,0.0,60.0,1.0,0.0
1289,73.0,60.0,60.0,1.0,0.0
1290,71.0,0.0,60.0,1.0,0.0
1291,73.0,60.0,60.0,1.0,0.0
1292,66.0,120.0,240.0,0.0,0.0
1293,71.0,60.0,60.0,1.0,0.0
1294,73.0,60.0,60.0,1.0,0.0
1295,71.0,0.0,60.0,1.0,0.0
1296,65.0,60.0,240.0,0.0,0.0
1297,61.0,0.0,120.0,3.0,0.0
1298,71.0,60.0,60.0,1.0,0.0
1299,73.0,60.0,60.0,1.0,0.0
1300,71.0,0.0,60.0,1.0,0.0
1301,80.0,0.0,240.0,0.0,0.0
1302,73.0,60.0,60.0,1.0,0.0
1303,71.0,60.0,60.0,1.0,0.0
1304,73.0,60.0,60.0,1.0,0.0
1305,71.0,120.0,60.0,1.0,0.0
1306,78.0,0.0,240.0,0.0,0.0
1307,63.0,60.0,120.0,3.0,0.0
1308,71.0,0.0,60.0,1.0,0.0
1309,73.0,60.0,60.0,1.0,0.0
1310,71.0,60.0,60.0,1.0,0.0
1311,66.0,120.0,240.0,0.0,0.0
1312,73.0,60.0,60.0,1.0,0.0
1313,71.0,60.0,60.0,1.0,0.0
1314,73.0,60.0,60.0,1.0,0.0
1315,71.0,0.0,60.0,1.0,0.0
1316,65.0,60.0,240.0,0.0,0.0
1317,61.0,0.0,120.0,3.0,0.0
1318,71.0,60.0,60.0,1.0,0.0
1319,73.0,60.0,60.0,1.0,0.0
1320,71.0,0.0,60.0,1.0,0.0
1321,73.0,60.0,60.0,1.0,0.0
1322,64.0,0.0,240.0,0.0,0.0
1323,71.0,60.0,60.0,1.0,0.0
1324,73.0,60.0,60.0,1.0,0.0
1325,71.0,120.0,60.0,1.0,0.0
1326,63.0,60.0,240.0,0.0,0.0
1327,59.0,0.0,120.0,3.0,0.0
1328,71.0,60.0,60.0,1.0,0.0
1329,73.0,60.0,60.0,1.0,0.0
1330,71.0,0.0,60.0,1.0,0.0
1331,73.0,60.0,60.0,1.0,0.0
1332,78.0,0.0,240.0,0.0,0.0
1333,71.0,60.0,60.0,1.0,0.0
1334,73.0,60.0,60.0,1.0,0.0
1335,71.0,120.0,60.0,1.0,0.0
1336,61.0,60.0,240.0,3.0,0.0
1337,68.0,0.0,120.0,1.0,0.0
1338,76.0,60.0,60.0,0.0,0.0
1339,78.0,60.0,60.0,0.0,0.0
1340,76.0,0.0,60.0,0.0,0.0
1341,78.0,60.0,60.0,0.0,0.0
1342,80.0,0.0,240.0,3.0,0.0
1343,76.0,60.0,60.0,0.0,0.0
1344,78.0,60.0,60.0,0.0,0.0
1345,76.0,120.0,60.0,0.0,0.0
1346,66.0,60.0,120.0,1.0,0.0
1347,81.0,60.0,240.0,3.0,0.0
1348,76.0,0.0,60.0,0.0,0.0
1349,78.0,60.0,60.0,0.0,0.0
1350,76.0,0.0,60.0,0.0,0.0
1351,82.0,0.0,240.0,3.0,0.0
1352,78.0,60.0,60.0,0.0,0.0
1353,76.0,60.0,60.0,0.0,0.0
1354,78.0,60.0,60.0,0.0,0.0
1355,76.0,120.0,60.0,0.0,0.0
1356,68.0,60.0,120.0,1.0,0.0
1357,83.0,0.0,240.0,3.0,0.0
1358,76.0,0.0,60.0,0.0,0.0
1359,78.0,60.0,60.0,0.0,0.0
1360,76.0,60.0,60.0,0.0,0.0
1361,61.0,0.0,240.0,3.0,0.0
1362,78.0,60.0,60.0,0.0,0.0
1363,76.0,60.0,60.0,0.0,0.0
1364,78.0,60.0,60.0,0.0,0.0
1365,76.0,120.0,60.0,0.0,0.0
1366,54.0,0.0,240.0,3.0,0.0
1367,70.0,0.0,120.0,1.0,0.0
1368,76.0,60.0,60.0,0.0,0.0
1369,78.0,60.0,60.0,0.0,0.0
1370,76.0,60.0,60.0,0.0,0.0
1371,82.0,120.0,240.0,3.0,0.0
1372,78.0,60.0,60.0,0.0,0.0
1373,76.0,60.0,60.0,0.0,0.0
1374,78.0,60.0,60.0,0.0,0.0
1375,76.0,0.0,60.0,0.0,0.0
1376,83.0,60.0,240.0,3.0,0.0
1377,68.0,0.0,120.0,1.0,0.0
1378,76.0,60.0,60.0,0.0,0.0
1379,78.0,60.0,60.0,0.0,0.0
1380,76.0,0.0,60.0,0.0,0.0
1381,84.0,120.0,240.0,3.0,0.0
1382,78.0,60.0,60.0,0.0,0.0
1383,76.0,60.0,60.0,0.0,0.0
1384,78.0,60.0,60.0,0.0,0.0
1385,76.0,0.0,60.0,0.0,0.0
1386,85.0,60.0,240.0,3.0,0.0
1387,70.0,60.0,120.0,1.0,0.0
1388,76.0,0.0,60.0,0.0,0.0
1389,78.0,60.0,60.0,0.0,0.0
1390,76.0,0.0,60.0,0.0,0.0
1391,78.0,60.0,60.0,0.0,0.0
1392,66.0,0.0,240.0,3.0,0.0
1393,76.0,60.0,60.0,0.0,0.0
1394,78.0,60.0,60.0,0.0,0.0
1395,76.0,120.0,60.0,0.0,0.0
1396,63.0,60.0,240.0,3.0,0.0
1397,75.0,60.0,120.0,0.0,0.0
1398,71.0,0.0,60.0,1.0,0.0
1399,73.0,60.0,60.0,1.0,0.0
1400,71.0,0.0,60.0,1.0,0.0
1401,73.0,60.0,60.0,1.0,0.0
1402,47.0,120.0,240.0,3.0,0.0
1403,71.0,60.0,60.0,1.0,0.0
1404,73.0,60.0,60.0,1.0,0.0
1405,71.0,0.0,60.0,1.0,0.0
1406,48.0,60.0,240.0,3.0,0.0
1407,76.0,0.0,120.0,0.0,0.0
1408,70.0,60.0,60.0,1.0,0.0
1409,71.0,60.0,60.0,1.0,0.0
1410,70.0,0.0,60.0,1.0,0.0
1411,71.0,60.0,60.0,1.0,0.0
1412,49.0,120.0,240.0,3.0,0.0
1413,70.0,60.0,60.0,1.0,0.0
1414,71.0,60.0,60.0,1.0,0.0
1415,70.0,0.0,60.0,1.0,0.0
1416,50.0,60.0,240.0,3.0,0.0
1417,78.0,60.0,120.0,0.0,0.0
1418,69.0,0.0,60.0,1.0,0.0
1419,71.0,60.0,60.0,1.0,0.0
1420,69.0,0.0,60.0,1.0,0.0
1421,71.0,60.0,60.0,1.0,0.0
1422,51.0,0.0,240.0,3.0,0.0
1423,69.0,60.0,60.0,1.0,0.0
1424,71.0,60.0,60.0,1.0,0.0
1425,69.0,120.0,60.0,1.0,0.0
1426,52.0,0.0,120.0,3.0,0.0
1427,68.0,60.0,240.0,0.0,0.0
1428,64.0,60.0,60.0,1.0,0.0
1429,66.0,60.0,60.0,1.0,0.0
1430,64.0,0.0,60.0,1.0,0.0
1431,80.0,120.0,240.0,0.0,0.0
1432,66.0,60.0,60.0,1.0,0.0
1433,64.0,60.0,60.0,1.0,0.0
1434,66.0,60.0,60.0,1.0,0.0
1435,64.0,0.0,60.0,1.0,0.0
1436,54.0,60.0,120.0,3.0,0.0
1437,81.0,0.0,240.0,0.0,0.0
1438,63.0,0.0,60.0,1.0,0.0
1439,64.0,60.0,60.0,1.0,0.0
1440,63.0,60.0,60.0,1.0,0.0
1441,64.0,60.0,60.0,1.0,0.0
1442,82.0,0.0,240.0,0.0,0.0
1443,63.0,60.0,60.0,1.0,0.0
1444,64.0,60.0,60.0,1.0,0.0
1445,63.0,120.0,60.0,1.0,0.0
1446,83.0,0.0,240.0,0.0,0.0
1447,56.0,0.0,120.0,3.0,0.0
1448,62.0,60.0,60.0,1.0,0.0
1449,64.0,60.0,60.0,1.0,0.0
1450,62.0,60.0,60.0,1.0,0.0
1451,64.0,60.0,60.0,1.0,0.0
1452,84.0,0.0,240.0,0.0,0.0
1453,62.0,60.0,60.0,1.0,0.0
1454,64.0,60.0,60.0,1.0,0.0
1455,62.0,120.0,60.0,1.0,0.0
1456,85.0,120.0,120.0,0.0,0.0
1457,58.0,0.0,120.0,3.0,0.0
1458,66.0,120.0,120.0,3.0,0.0
1459,70.0,0.0,120.0,0.0,0.0
1460,68.0,0.0,120.0,0.0,0.0
1461,64.0,120.0,120.0,3.0,0.0
1462,70.0,0.0,120.0,0.0,0.0
1463,66.0,120.0,120.0,3.0,0.0
1464,63.0,0.0,120.0,3.0,0.0
1465,71.0,120.0,120.0,0.0,0.0
1466,59.0,0.0,120.0,3.0,0.0
1467,75.0,120.0,120.0,0.0,0.0
1468,58.0,120.0,120.0,3.0,0.0
1469,73.0,0.0,120.0,0.0,0.0
1470,59.0,0.0,120.0,3.0,0.0
1471,75.0,120.0,120.0,0.0,0.0
1472,54.0,120.0,120.0,3.0,0.0
1473,76.0,0.0,120.0,0.0,0.0
1474,73.0,0.0,120.0,0.0,0.0
1475,58.0,120.0,120.0,3.0,0.0
1476,70.0,0.0,120.0,0.0,0.0
1477,61.0,120.0,120.0,3.0,0.0
1478,66.0,0.0,120.0,0.0,0.0
1479,64.0,120.0,120.0,3.0,0.0
1480,71.0,120.0,120.0,0.0,0.0
1481,63.0,0.0,120.0,3.0,0.0
1482,59.0,0.0,120.0,3.0,0.0
1483,75.0,120.0,120.0,0.0,0.0
1484,58.0,0.0,120.0,3.0,0.0
1485,73.0,120.0,120.0,0.0,0.0
1486,59.0,0.0,120.0,3.0,0.0
1487,75.0,120.0,120.0,0.0,0.0
1488,78.0,0.0,120.0,0.0,0.0
1489,54.0,120.0,120.0,3.0,0.0
1490,83.0,0.0,120.0,0.0,0.0
1491,51.0,120.0,120.0,3.0,0.0
1492,82.0,0.0,120.0,0.0,0.0
1493,49.0,120.0,120.0,3.0,0.0
1494,83.0,480.0,120.0,0.0,0.0
1495,51.0,0.0,120.0,3.0,0.0
1496,47.0,0.0,480.0,3.0,0.0
1497,87.0,120.0,480.0,0.0,0.0
1498,66.0,0.0,240.0,2.0,0.0
1499,70.0,120.0,120.0,1.0,0.0
1500,73.0,120.0,120.0,1.0,0.0
1501,71.0,120.0,120.0,1.0,0.0
1502,56.0,120.0,240.0,2.0,0.0
1503,73.0,0.0,120.0,1.0,0.0
1504,78.0,120.0,120.0,1.0,0.0
1505,58.0,120.0,240.0,2.0,0.0
1506,82.0,0.0,120.0,1.0,0.0
1507,80.0,120.0,120.0,1.0,0.0
1508,64.0,0.0,240.0,2.0,0.0
1509,82.0,120.0,120.0,1.0,0.0
1510,85.0,120.0,120.0,1.0,0.0
1511,54.0,120.0,240.0,2.0,0.0
1512,82.0,0.0,120.0,1.0,0.0
1513,76.0,120.0,120.0,1.0,0.0
1514,70.0,120.0,240.0,2.0,0.0
1515,73.0,0.0,120.0,1.0,0.0
1516,75.0,120.0,120.0,1.0,0.0
1517,71.0,0.0,240.0,2.0,0.0
1518,78.0,120.0,120.0,1.0,0.0
1519,76.0,120.0,120.0,1.0,0.0
1520,61.0,120.0,240.0,2.0,0.0
1521,78.0,0.0,120.0,1.0,0.0
1522,83.0,120.0,120.0,1.0,0.0
1523,63.0,0.0,240.0,2.0,0.0
1524,87.0,120.0,120.0,1.0,0.0
1525,85.0,120.0,120.0,1.0,0.0
1526,69.0,0.0,240.0,2.0,0.0
1527,87.0,120.0,120.0,1.0,0.0
1528,59.0,0.0,240.0,2.0,0.0
1529,90.0,120.0,120.0,1.0,0.0
1530,87.0,120.0,120.0,1.0,0.0
1531,75.0,120.0,240.0,2.0,0.0
1532,81.0,120.0,120.0,1.0,0.0
1533,78.0,0.0,120.0,1.0,0.0
1534,76.0,120.0,120.0,2.0,0.0
1535,80.0,0.0,240.0,1.0,0.0
1536,71.0,120.0,120.0,2.0,0.0
1537,75.0,0.0,240.0,1.0,0.0
1538,69.0,120.0,120.0,2.0,0.0
1539,71.0,120.0,120.0,2.0,0.0
1540,76.0,0.0,240.0,1.0,0.0
1541,68.0,120.0,120.0,2.0,0.0
1542,64.0,120.0,120.0,2.0,0.0
1543,63.0,120.0,120.0,2.0,0.0
1544,67.0,120.0,240.0,1.0,0.0
1545,64.0,0.0,120.0,2.0,0.0
1546,61.0,120.0,120.0,2.0,0.0
1547,68.0,120.0,240.0,1.0,0.0
1548,64.0,0.0,120.0,2.0,0.0
1549,68.0,120.0,120.0,2.0,0.0
1550,59.0,0.0,240.0,1.0,0.0
1551,73.0,120.0,120.0,2.0,0.0
1552,67.0,120.0,120.0,2.0,0.0
1553,58.0,120.0,240.0,1.0,0.0
1554,63.0,0.0,120.0,2.0,0.0
1555,80.0,120.0,240.0,1.0,0.0
1556,62.0,120.0,120.0,2.0,0.0
1557,63.0,0.0,120.0,2.0,0.0
1558,58.0,120.0,120.0,2.0,0.0
1559,79.0,0.0,120.0,1.0,0.0
1560,82.0,0.0,120.0,1.0,0.0
1561,55.0,120.0,120.0,2.0,0.0
1562,80.0,0.0,120.0,1.0,0.0
1563,53.0,120.0,120.0,2.0,0.0
1564,82.0,120.0,120.0,1.0,0.0
1565,55.0,0.0,120.0,2.0,0.0
1566,51.0,0.0,120.0,2.0,0.0
1567,85.0,120.0,120.0,1.0,0.0
1568,82.0,0.0,120.0,1.0,0.0
1569,55.0,120.0,120.0,2.0,0.0
1570,58.0,120.0,120.0,2.0,0.0
1571,79.0,0.0,120.0,1.0,0.0
1572,82.0,120.0,120.0,1.0,0.0
1573,61.0,0.0,120.0,2.0,0.0
1574,75.0,0.0,120.0,1.0,0.0
1575,59.0,0.0,120.0,3.0,0.0
1576,83.0,60.0,60.0,0.0,0.0
1577,68.0,0.0,60.0,2.0,0.0
1578,70.0,60.0,60.0,2.0,0.0
1579,85.0,0.0,60.0,0.0,0.0
1580,83.0,60.0,60.0,0.0,0.0
1581,68.0,0.0,60.0,2.0,0.0
1582,70.0,60.0,60.0,2.0,0.0
1583,85.0,0.0,60.0,0.0,0.0
1584,68.0,60.0,60.0,2.0,0.0
1585,83.0,0.0,60.0,0.0,0.0
1586,70.0,60.0,60.0,2.0,0.0
1587,85.0,0.0,60.0,0.0,0.0
1588,68.0,0.0,60.0,2.0,0.0
1589,83.0,120.0,60.0,0.0,0.0
1590,77.0,0.0,120.0,1.0,0.0
1591,61.0,60.0,120.0,3.0,0.0
1592,68.0,0.0,60.0,2.0,0.0
1593,83.0,0.0,60.0,0.0,0.0
1594,85.0,0.0,60.0,0.0,0.0
1595,70.0,60.0,60.0,2.0,0.0
1596,83.0,0.0,60.0,0.0,0.0
1597,68.0,60.0,60.0,2.0,0.0
1598,70.0,0.0,60.0,2.0,0.0
1599,85.0,60.0,60.0,0.0,0.0
1600,83.0,0.0,60.0,0.0,0.0
1601,68.0,60.0,60.0,2.0,0.0
1602,85.0,60.0,60.0,0.0,0.0
1603,70.0,0.0,60.0,2.0,0.0
1604,68.0,0.0,60.0,2.0,0.0
1605,83.0,120.0,60.0,0.0,0.0
1606,63.0,0.0,120.0,3.0,0.0
1607,79.0,60.0,120.0,1.0,0.0
1608,83.0,0.0,60.0,0.0,0.0
1609,68.0,0.0,60.0,2.0,0.0
1610,85.0,0.0,60.0,0.0,0.0
1611,70.0,60.0,60.0,2.0,0.0
1612,83.0,60.0,60.0,0.0,0.0
1613,68.0,0.0,60.0,2.0,0.0
1614,70.0,0.0,60.0,2.0,0.0
1615,85.0,60.0,60.0,0.0,0.0
1616,68.0,0.0,60.0,2.0,0.0
1617,83.0,60.0,60.0,0.0,0.0
1618,70.0,60.0,60.0,2.0,0.0
1619,85.0,0.0,60.0,0.0,0.0
1620,68.0,120.0,60.0,2.0,0.0
1621,83.0,0.0,60.0,0.0,0.0
1622,80.0,0.0,120.0,1.0,0.0
1623,64.0,60.0,120.0,3.0,0.0
1624,68.0,0.0,60.0,2.0,0.0
1625,83.0,0.0,60.0,0.0,0.0
1626,85.0,60.0,60.0,0.0,0.0
1627,70.0,0.0,60.0,2.0,0.0
1628,68.0,60.0,60.0,2.0,0.0
1629,83.0,0.0,60.0,0.0,0.0
1630,85.0,0.0,60.0,0.0,0.0
1631,70.0,60.0,60.0,2.0,0.0
1632,83.0,0.0,60.0,0.0,0.0
1633,68.0,60.0,60.0,2.0,0.0
1634,85.0,60.0,60.0,0.0,0.0
1635,70.0,0.0,60.0,2.0,0.0
1636,68.0,0.0,60.0,2.0,0.0
1637,83.0,120.0,60.0,0.0,0.0
1638,79.0,0.0,120.0,1.0,0.0
1639,63.0,0.0,120.0,3.0,0.0
1640,83.0,0.0,60.0,0.0,0.0
1641,68.0,60.0,60.0,2.0,0.0
1642,85.0,60.0,60.0,0.0,0.0
1643,70.0,0.0,60.0,2.0,0.0
1644,68.0,0.0,60.0,2.0,0.0
1645,83.0,60.0,60.0,0.0,0.0
1646,70.0,0.0,60.0,2.0,0.0
1647,85.0,60.0,60.0,0.0,0.0
1648,68.0,60.0,60.0,2.0,0.0
1649,83.0,0.0,60.0,0.0,0.0
1650,85.0,0.0,60.0,0.0,0.0
1651,70.0,60.0,60.0,2.0,0.0
1652,68.0,120.0,60.0,2.0,0.0
1653,83.0,0.0,60.0,0.0,0.0
1654,80.0,0.0,120.0,1.0,0.0
1655,64.0,0.0,120.0,3.0,0.0
1656,83.0,60.0,60.0,0.0,0.0
1657,68.0,0.0,60.0,2.0,0.0
1658,85.0,60.0,60.0,0.0,0.0
1659,70.0,0.0,60.0,2.0,0.0
1660,83.0,0.0,60.0,0.0,0.0
1661,68.0,60.0,60.0,2.0,0.0
1662,85.0,0.0,60.0,0.0,0.0
1663,70.0,60.0,60.0,2.0,0.0
1664,83.0,60.0,60.0,0.0,0.0
1665,68.0,0.0,60.0,2.0,0.0
1666,70.0,60.0,60.0,2.0,0.0
1667,85.0,0.0,60.0,0.0,0.0
1668,68.0,0.0,60.0,2.0,0.0
1669,83.0,120.0,60.0,0.0,0.0
1670,62.0,0.0,120.0,3.0,0.0
1671,77.0,0.0,120.0,1.0,0.0
1672,83.0,60.0,60.0,0.0,0.0
1673,68.0,0.0,60.0,2.0,0.0
1674,70.0,60.0,60.0,2.0,0.0
1675,85.0,0.0,60.0,0.0,0.0
1676,83.0,0.0,60.0,0.0,0.0
1677,68.0,60.0,60.0,2.0,0.0
1678,85.0,0.0,60.0,0.0,0.0
1679,70.0,60.0,60.0,2.0,0.0
1680,83.0,0.0,60.0,0.0,0.0
1681,68.0,60.0,60.0,2.0,0.0
1682,85.0,0.0,60.0,0.0,0.0
1683,70.0,60.0,60.0,2.0,0.0
1684,83.0,120.0,60.0,0.0,0.0
1685,68.0,0.0,60.0,2.0,0.0
1686,63.0,0.0,120.0,3.0,0.0
1687,75.0,60.0,120.0,1.0,0.0
1688,83.0,0.0,60.0,0.0,0.0
1689,68.0,0.0,60.0,2.0,0.0
1690,85.0,0.0,60.0,0.0,0.0
1691,70.0,60.0,60.0,2.0,0.0
1692,68.0,60.0,60.0,2.0,0.0
1693,83.0,0.0,60.0,0.0,0.0
1694,85.0,60.0,60.0,0.0,0.0
1695,70.0,0.0,60.0,2.0,0.0
1696,68.0,60.0,60.0,2.0,0.0
1697,83.0,0.0,60.0,0.0,0.0
1698,70.0,0.0,60.0,2.0,0.0
1699,85.0,60.0,60.0,0.0,0.0
1700,68.0,120.0,60.0,2.0,0.0
1701,83.0,0.0,60.0,0.0,0.0
1702,73.0,0.0,120.0,1.0,0.0
1703,63.0,60.0,120.0,3.0,0.0
1704,82.0,0.0,60.0,0.0,0.0
1705,67.0,0.0,60.0,2.0,0.0
1706,83.0,0.0,60.0,0.0,0.0
1707,68.0,60.0,60.0,2.0,0.0
1708,82.0,0.0,60.0,0.0,0.0
1709,67.0,60.0,60.0,2.0,0.0
1710,68.0,60.0,60.0,2.0,0.0
1711,83.0,0.0,60.0,0.0,0.0
1712,82.0,0.0,60.0,0.0,0.0
1713,67.0,60.0,60.0,2.0,0.0
1714,83.0,0.0,60.0,0.0,0.0
1715,68.0,60.0,60.0,2.0,0.0
1716,82.0,0.0,60.0,0.0,0.0
1717,67.0,120.0,60.0,2.0,0.0
1718,80.0,120.0,120.0,0.0,0.0
1719,56.0,0.0,120.0,3.0,0.0
1720,68.0,120.0,120.0,3.0,0.0
1721,71.0,0.0,120.0,0.0,0.0
1722,70.0,120.0,120.0,0.0,0.0
1723,67.0,0.0,120.0,3.0,0.0
1724,71.0,0.0,120.0,0.0,0.0
1725,68.0,120.0,120.0,3.0,0.0
1726,75.0,0.0,120.0,0.0,0.0
1727,63.0,120.0,120.0,3.0,0.0
1728,59.0,0.0,120.0,3.0,0.0
1729,80.0,120.0,120.0,0.0,0.0
1730,58.0,120.0,120.0,3.0,0.0
1731,79.0,0.0,120.0,0.0,0.0
1732,59.0,0.0,120.0,3.0,0.0
1733,80.0,60.0,120.0,0.0,0.0
1734,56.0,120.0,120.0,3.0,0.0
1735,83.0,60.0,60.0,0.0,0.0
1736,81.0,0.0,60.0,0.0,0.0
1737,80.0,0.0,120.0,0.0,0.0
1738,59.0,60.0,120.0,3.0,0.0
1739,63.0,0.0,120.0,3.0,0.0
1740,81.0,60.0,60.0,0.0,0.0
1741,80.0,120.0,60.0,0.0,0.0
1742,66.0,120.0,120.0,3.0,0.0
1743,78.0,0.0,120.0,0.0,0.0
1744,80.0,0.0,240.0,0.0,0.0
1745,64.0,0.0,120.0,3.0,0.0
1746,71.0,60.0,60.0,1.0,0.0
1747,73.0,60.0,60.0,1.0,0.0
1748,71.0,60.0,60.0,1.0,0.0
1749,73.0,60.0,60.0,1.0,0.0
1750,68.0,0.0,240.0,0.0,0.0
1751,71.0,60.0,60.0,1.0,0.0
1752,73.0,60.0,60.0,1.0,0.0
1753,71.0,120.0,60.0,1.0,0.0
1754,67.0,60.0,240.0,0.0,0.0
1755,63.0,60.0,120.0,3.0,0.0
1756,71.0,0.0,60.0,1.0,0.0
1757,73.0,60.0,60.0,1.0,0.0
1758,71.0,0.0,60.0,1.0,0.0
1759,73.0,60.0,60.0,1.0,0.0
1760,66.0,120.0,240.0,0.0,0.0
1761,71.0,60.0,60.0,1.0,0.0
1762,73.0,60.0,60.0,1.0,0.0
1763,71.0,0.0,60.0,1.0,0.0
1764,65.0,0.0,240.0,0.0,0.0
1765,61.0,0.0,120.0,3.0,0.0
1766,71.0,60.0,60.0,1.0,0.0
1767,73.0,60.0,60.0,1.0,0.0
1768,71.0,60.0,60.0,1.0,0.0
1769,73.0,60.0,60.0,1.0,0.0
1770,80.0,0.0,240.0,0.0,0.0
1771,71.0,60.0,60.0,1.0,0.0
1772,73.0,60.0,60.0,1.0,0.0
1773,71.0,120.0,60.0,1.0,0.0
1774,78.0,0.0,240.0,0.0,0.0
1775,63.0,60.0,120.0,3.0,0.0
1776,71.0,0.0,60.0,1.0,0.0
1777,73.0,60.0,60.0,1.0,0.0
1778,71.0,60.0,60.0,1.0,0.0
1779,66.0,120.0,240.0,0.0,0.0
1780,73.0,60.0,60.0,1.0,0.0
1781,71.0,60.0,60.0,1.0,0.0
1782,73.0,60.0,60.0,1.0,0.0
1783,71.0,0.0,60.0,1.0,0.0
1784,61.0,60.0,120.0,3.0,0.0
1785,65.0,60.0,240.0,0.0,0.0
1786,71.0,0.0,60.0,1.0,0.0
1787,73.0,60.0,60.0,1.0,0.0
1788,71.0,0.0,60.0,1.0,0.0
1789,64.0,0.0,240.0,0.0,0.0
1790,73.0,60.0,60.0,1.0,0.0
1791,71.0,60.0,60.0,1.0,0.0
1792,73.0,60.0,60.0,1.0,0.0
1793,71.0,120.0,60.0,1.0,0.0
1794,59.0,0.0,120.0,3.0,0.0
1795,63.0,0.0,240.0,0.0,0.0
1796,71.0,60.0,60.0,1.0,0.0
1797,73.0,60.0,60.0,1.0,0.0
1798,71.0,60.0,60.0,1.0,0.0
1799,78.0,0.0,240.0,0.0,0.0
1800,73.0,60.0,60.0,1.0,0.0
1801,71.0,60.0,60.0,1.0,0.0
1802,73.0,60.0,60.0,1.0,0.0
1803,71.0,120.0,60.0,1.0,0.0
1804,68.0,0.0,120.0,1.0,0.0
1805,61.0,0.0,240.0,3.0,0.0
1806,76.0,60.0,60.0,0.0,0.0
1807,78.0,60.0,60.0,0.0,0.0
1808,76.0,60.0,60.0,0.0,0.0
1809,80.0,0.0,240.0,3.0,0.0
1810,78.0,60.0,60.0,0.0,0.0
1811,76.0,60.0,60.0,0.0,0.0
1812,78.0,60.0,60.0,0.0,0.0
1813,76.0,120.0,60.0,0.0,0.0
1814,66.0,60.0,120.0,1.0,0.0
1815,81.0,60.0,240.0,3.0,0.0
1816,76.0,0.0,60.0,0.0,0.0
1817,78.0,60.0,60.0,0.0,0.0
1818,76.0,0.0,60.0,0.0,0.0
1819,78.0,60.0,60.0,0.0,0.0
1820,82.0,0.0,240.0,3.0,0.0
1821,76.0,60.0,60.0,0.0,0.0
1822,78.0,60.0,60.0,0.0,0.0
1823,76.0,120.0,60.0,0.0,0.0
1824,68.0,0.0,120.0,1.0,0.0
1825,83.0,0.0,240.0,3.0,0.0
1826,76.0,60.0,60.0,0.0,0.0
1827,78.0,60.0,60.0,0.0,0.0
1828,76.0,60.0,60.0,0.0,0.0
1829,61.0,120.0,240.0,3.0,0.0
1830,78.0,60.0,60.0,0.0,0.0
1831,76.0,60.0,60.0,0.0,0.0
1832,78.0,60.0,60.0,0.0,0.0
1833,76.0,0.0,60.0,0.0,0.0
1834,70.0,0.0,120.0,1.0,0.0
1835,54.0,0.0,240.0,3.0,0.0
1836,76.0,60.0,60.0,0.0,0.0
1837,78.0,60.0,60.0,0.0,0.0
1838,76.0,60.0,60.0,0.0,0.0
1839,78.0,60.0,60.0,0.0,0.0
1840,82.0,0.0,240.0,3.0,0.0
1841,76.0,60.0,60.0,0.0,0.0
1842,78.0,60.0,60.0,0.0,0.0
1843,76.0,120.0,60.0,0.0,0.0
1844,68.0,0.0,120.0,1.0,0.0
1845,83.0,0.0,240.0,3.0,0.0
1846,76.0,60.0,60.0,0.0,0.0
1847,78.0,60.0,60.0,0.0,0.0
1848,76.0,60.0,60.0,0.0,0.0
1849,78.0,60.0,60.0,0.0,0.0
1850,84.0,0.0,240.0,3.0,0.0
1851,76.0,60.0,60.0,0.0,0.0
1852,78.0,60.0,60.0,0.0,0.0
1853,76.0,120.0,60.0,0.0,0.0
1854,85.0,60.0,240.0,3.0,0.0
1855,70.0,0.0,120.0,1.0,0.0
1856,76.0,60.0,60.0,0.0,0.0
1857,78.0,60.0,60.0,0.0,0.0
1858,76.0,0.0,60.0,0.0,0.0
1859,66.0,0.0,240.0,3.0,0.0
1860,78.0,60.0,60.0,0.0,0.0
1861,76.0,60.0,60.0,0.0,0.0
1862,78.0,60.0,60.0,0.0,0.0
1863,76.0,120.0,60.0,0.0,0.0
1864,63.0,60.0,240.0,3.0,0.0
1865,75.0,0.0,120.0,0.0,0.0
1866,71.0,60.0,60.0,1.0,0.0
1867,73.0,60.0,60.0,1.0,0.0
1868,71.0,0.0,60.0,1.0,0.0
1869,73.0,60.0,60.0,1.0,0.0
1870,47.0,120.0,240.0,3.0,0.0
1871,71.0,60.0,60.0,1.0,0.0
1872,73.0,60.0,60.0,1.0,0.0
1873,71.0,0.0,60.0,1.0,0.0
1874,76.0,0.0,120.0,0.0,0.0
1875,48.0,60.0,240.0,3.0,0.0
1876,70.0,60.0,60.0,1.0,0.0
1877,71.0,60.0,60.0,1.0,0.0
1878,70.0,0.0,60.0,1.0,0.0
1879,71.0,60.0,60.0,1.0,0.0
1880,49.0,0.0,240.0,3.0,0.0
1881,70.0,60.0,60.0,1.0,0.0
1882,71.0,60.0,60.0,1.0,0.0
1883,70.0,120.0,60.0,1.0,0.0
1884,50.0,60.0,240.0,3.0,0.0
1885,78.0,0.0,120.0,0.0,0.0
1886,69.0,60.0,60.0,1.0,0.0
1887,71.0,60.0,60.0,1.0,0.0
1888,69.0,0.0,60.0,1.0,0.0
1889,51.0,0.0,240.0,3.0,0.0
1890,71.0,60.0,60.0,1.0,0.0
1891,69.0,60.0,60.0,1.0,0.0
1892,71.0,60.0,60.0,1.0,0.0
1893,69.0,120.0,60.0,1.0,0.0
1894,68.0,0.0,240.0,0.0,0.0
1895,52.0,0.0,120.0,3.0,0.0
1896,64.0,60.0,60.0,1.0,0.0
1897,66.0,60.0,60.0,1.0,0.0
1898,64.0,60.0,60.0,1.0,0.0
1899,66.0,60.0,60.0,1.0,0.0
1900,80.0,120.0,240.0,0.0,0.0
1901,64.0,60.0,60.0,1.0,0.0
1902,66.0,60.0,60.0,1.0,0.0
1903,64.0,0.0,60.0,1.0,0.0
1904,54.0,0.0,120.0,3.0,0.0
1905,81.0,0.0,240.0,0.0,0.0
1906,63.0,60.0,60.0,1.0,0.0
1907,64.0,60.0,60.0,1.0,0.0
1908,63.0,60.0,60.0,1.0,0.0
1909,82.0,0.0,240.0,0.0,0.0
1910,64.0,60.0,60.0,1.0,0.0
1911,63.0,60.0,60.0,1.0,0.0
1912,64.0,60.0,60.0,1.0,0.0
1913,63.0,120.0,60.0,1.0,0.0
1914,56.0,60.0,120.0,3.0,0.0
1915,83.0,0.0,240.0,0.0,0.0
1916,62.0,0.0,60.0,1.0,0.0
1917,64.0,60.0,60.0,1.0,0.0
1918,62.0,60.0,60.0,1.0,0.0
1919,84.0,120.0,240.0,0.0,0.0
1920,64.0,60.0,60.0,1.0,0.0
1921,62.0,60.0,60.0,1.0,0.0
1922,64.0,60.0,60.0,1.0,0.0
1923,62.0,0.0,60.0,1.0,0.0
1924,58.0,0.0,120.0,3.0,0.0
1925,85.0,120.0,120.0,0.0,0.0
1926,66.0,120.0,120.0,3.0,0.0
1927,70.0,0.0,120.0,0.0,0.0
1928,64.0,0.0,120.0,3.0,0.0
1929,68.0,120.0,120.0,0.0,0.0
1930,70.0,0.0,120.0,0.0,0.0
1931,66.0,120.0,120.0,3.0,0.0
1932,63.0,0.0,120.0,3.0,0.0
1933,71.0,120.0,120.0,0.0,0.0
1934,59.0,120.0,120.0,3.0,0.0
1935,75.0,0.0,120.0,0.0,0.0
1936,73.0,0.0,120.0,0.0,0.0
1937,58.0,120.0,120.0,3.0,0.0
1938,75.0,120.0,120.0,0.0,0.0
1939,59.0,0.0,120.0,3.0,0.0
1940,76.0,0.0,120.0,0.0,0.0
1941,54.0,120.0,120.0,3.0,0.0
1942,58.0,120.0,120.0,3.0,0.0
1943,73.0,0.0,120.0,0.0,0.0
1944,70.0,120.0,120.0,0.0,0.0
1945,61.0,0.0,120.0,3.0,0.0
1946,64.0,120.0,120.0,3.0,0.0
1947,66.0,0.0,120.0,0.0,0.0
1948,71.0,0.0,120.0,0.0,0.0
1949,63.0,120.0,120.0,3.0,0.0
1950,75.0,0.0,120.0,0.0,0.0
1951,59.0,120.0,120.0,3.0,0.0
1952,73.0,120.0,120.0,0.0,0.0
1953,58.0,0.0,120.0,3.0,0.0
1954,75.0,0.0,120.0,0.0,0.0
1955,59.0,120.0,120.0,3.0,0.0
1956,78.0,0.0,120.0,0.0,0.0
1957,54.0,120.0,120.0,3.0,0.0
1958,51.0,120.0,120.0,3.0,0.0
1959,83.0,0.0,120.0,0.0,0.0
1960,82.0,0.0,120.0,0.0,0.0
1961,49.0,120.0,120.0,3.0,0.0
1962,83.0,480.0,120.0,0.0,0.0
1963,51.0,0.0,120.0,3.0,0.0
1964,87.0,0.0,480.0,0.0,0.0
1965,47.0,0.0,480.0,3.0,0.0
