,note,step,duration,channel,velocity
0,73.0,24.0,60.0,0.0,0.0
1,66.0,24.0,20.0,0.0,0.0
2,65.0,24.0,20.0,0.0,0.0
3,66.0,24.0,20.0,0.0,0.0
4,68.0,24.0,20.0,0.0,0.0
5,66.0,24.0,20.0,0.0,0.0
6,68.0,24.0,20.0,0.0,0.0
7,69.0,24.0,20.0,0.0,0.0
8,68.0,24.0,20.0,0.0,0.0
9,69.0,24.0,20.0,0.0,0.0
10,71.0,24.0,20.0,0.0,0.0
11,69.0,24.0,20.0,0.0,0.0
12,71.0,24.0,20.0,0.0,0.0
13,73.0,24.0,20.0,0.0,0.0
14,71.0,24.0,20.0,0.0,0.0
15,73.0,48.0,20.0,0.0,0.0
16,74.0,72.0,40.0,0.0,0.0
17,73.0,72.0,40.0,0.0,0.0
18,71.0,48.0,40.0,0.0,0.0
19,71.0,96.0,20.0,0.0,0.0
20,69.0,24.0,90.0,0.0,0.0
21,68.0,48.0,20.0,0.0,0.0
22,69.0,24.0,40.0,0.0,0.0
23,71.0,48.0,20.0,0.0,0.0
24,73.0,24.0,40.0,0.0,0.0
25,61.0,24.0,60.0,0.0,0.0
26,83.0,0.0,20.0,0.0,0.0
27,81.0,0.0,40.0,0.0,0.0
28,54.0,24.0,20.0,0.0,0.0
29,53.0,24.0,20.0,0.0,0.0
30,73.0,0.0,20.0,0.0,0.0
31,54.0,24.0,20.0,0.0,0.0
32,71.0,0.0,40.0,0.0,0.0
33,56.0,24.0,20.0,0.0,0.0
34,54.0,24.0,20.0,0.0,0.0
35,56.0,24.0,20.0,0.0,0.0
36,80.0,0.0,20.0,0.0,0.0
37,78.0,0.0,40.0,0.0,0.0
38,57.0,24.0,20.0,0.0,0.0
39,56.0,24.0,20.0,0.0,0.0
40,57.0,0.0,20.0,0.0,0.0
41,69.0,24.0,20.0,0.0,0.0
42,59.0,24.0,20.0,0.0,0.0
43,68.0,0.0,40.0,0.0,0.0
44,57.0,24.0,20.0,0.0,0.0
45,78.0,0.0,20.0,0.0,0.0
46,59.0,24.0,20.0,0.0,0.0
47,61.0,24.0,20.0,0.0,0.0
48,77.0,0.0,40.0,0.0,0.0
49,59.0,24.0,20.0,0.0,0.0
50,61.0,0.0,20.0,0.0,0.0
51,68.0,24.0,15.0,0.0,0.0
52,62.0,0.0,40.0,0.0,0.0
53,66.0,24.0,20.0,0.0,0.0
54,65.0,24.0,20.0,0.0,0.0
55,61.0,24.0,40.0,0.0,0.0
56,66.0,24.0,20.0,0.0,0.0
57,68.0,0.0,20.0,0.0,0.0
58,69.0,24.0,20.0,0.0,0.0
59,59.0,24.0,40.0,0.0,0.0
60,71.0,24.0,20.0,0.0,0.0
61,73.0,0.0,20.0,0.0,0.0
62,74.0,24.0,20.0,0.0,0.0
63,59.0,0.0,20.0,0.0,0.0
64,74.0,24.0,20.0,0.0,0.0
65,57.0,0.0,90.0,0.0,0.0
66,73.0,24.0,20.0,0.0,0.0
67,71.0,24.0,20.0,0.0,0.0
68,73.0,24.0,20.0,0.0,0.0
69,75.0,24.0,20.0,0.0,0.0
70,56.0,0.0,20.0,0.0,0.0
71,77.0,24.0,20.0,0.0,0.0
72,57.0,24.0,40.0,0.0,0.0
73,78.0,24.0,20.0,0.0,0.0
74,80.0,0.0,20.0,0.0,0.0
75,59.0,24.0,20.0,0.0,0.0
76,81.0,0.0,20.0,0.0,0.0
77,61.0,24.0,40.0,0.0,0.0
78,81.0,24.0,20.0,0.0,0.0
79,78.0,0.0,20.0,0.0,0.0
80,71.0,0.0,20.0,0.0,0.0
81,69.0,0.0,40.0,0.0,0.0
82,80.0,24.0,15.0,0.0,0.0
83,77.0,24.0,20.0,0.0,0.0
84,61.0,24.0,20.0,0.0,0.0
85,78.0,0.0,15.0,0.0,0.0
86,59.0,24.0,40.0,0.0,0.0
87,75.0,0.0,20.0,0.0,0.0
88,76.0,24.0,20.0,0.0,0.0
89,68.0,0.0,20.0,0.0,0.0
90,76.0,24.0,20.0,0.0,0.0
91,66.0,24.0,40.0,0.0,0.0
92,73.0,0.0,20.0,0.0,0.0
93,57.0,24.0,20.0,0.0,0.0
94,74.0,0.0,15.0,0.0,0.0
95,56.0,0.0,40.0,0.0,0.0
96,71.0,24.0,20.0,0.0,0.0
97,66.0,0.0,20.0,0.0,0.0
98,65.0,0.0,40.0,0.0,0.0
99,73.0,24.0,15.0,0.0,0.0
100,69.0,24.0,20.0,0.0,0.0
101,71.0,24.0,20.0,0.0,0.0
102,56.0,0.0,15.0,0.0,0.0
103,71.0,24.0,20.0,0.0,0.0
104,54.0,24.0,20.0,0.0,0.0
105,69.0,24.0,60.0,0.0,0.0
106,53.0,24.0,20.0,0.0,0.0
107,54.0,0.0,20.0,0.0,0.0
108,56.0,0.0,20.0,0.0,0.0
109,71.0,24.0,20.0,0.0,0.0
110,57.0,24.0,20.0,0.0,0.0
111,73.0,0.0,20.0,0.0,0.0
112,74.0,24.0,20.0,0.0,0.0
113,59.0,0.0,20.0,0.0,0.0
114,73.0,24.0,20.0,0.0,0.0
115,61.0,0.0,20.0,0.0,0.0
116,71.0,0.0,20.0,0.0,0.0
117,78.0,0.0,20.0,0.0,0.0
118,62.0,24.0,15.0,0.0,0.0
119,77.0,24.0,60.0,0.0,0.0
120,61.0,24.0,20.0,0.0,0.0
121,59.0,24.0,20.0,0.0,0.0
122,61.0,0.0,20.0,0.0,0.0
123,63.0,24.0,20.0,0.0,0.0
124,78.0,0.0,20.0,0.0,0.0
125,80.0,0.0,20.0,0.0,0.0
126,65.0,24.0,20.0,0.0,0.0
127,81.0,0.0,20.0,0.0,0.0
128,66.0,24.0,20.0,0.0,0.0
129,80.0,24.0,20.0,0.0,0.0
130,68.0,0.0,20.0,0.0,0.0
131,69.0,16.0,20.0,0.0,0.0
132,78.0,0.0,20.0,0.0,0.0
133,85.0,8.0,15.0,0.0,0.0
134,69.0,8.0,20.0,0.0,0.0
135,84.0,16.0,15.0,0.0,0.0
136,66.0,16.0,20.0,0.0,0.0
137,85.0,0.0,15.0,0.0,0.0
138,68.0,8.0,20.0,0.0,0.0
139,84.0,8.0,15.0,0.0,0.0
140,85.0,16.0,15.0,0.0,0.0
141,68.0,0.0,20.0,0.0,0.0
142,84.0,16.0,15.0,0.0,0.0
143,65.0,8.0,20.0,0.0,0.0
144,85.0,8.0,15.0,0.0,0.0
145,84.0,16.0,15.0,0.0,0.0
146,66.0,0.0,20.0,0.0,0.0
147,85.0,16.0,15.0,0.0,0.0
148,84.0,8.0,15.0,0.0,0.0
149,66.0,8.0,20.0,0.0,0.0
150,85.0,16.0,15.0,0.0,0.0
151,63.0,0.0,20.0,0.0,0.0
152,84.0,16.0,15.0,0.0,0.0
153,82.0,8.0,15.0,0.0,0.0
154,64.0,0.0,20.0,0.0,0.0
155,84.0,24.0,15.0,0.0,0.0
156,64.0,24.0,20.0,0.0,0.0
157,85.0,0.0,40.0,0.0,0.0
158,61.0,24.0,20.0,0.0,0.0
159,62.0,24.0,20.0,0.0,0.0
160,62.0,24.0,20.0,0.0,0.0
161,59.0,24.0,20.0,0.0,0.0
162,77.0,24.0,20.0,0.0,0.0
163,61.0,0.0,20.0,0.0,0.0
164,78.0,24.0,40.0,0.0,0.0
165,61.0,24.0,20.0,0.0,0.0
166,57.0,0.0,20.0,0.0,0.0
167,80.0,0.0,20.0,0.0,0.0
168,59.0,24.0,15.0,0.0,0.0
169,73.0,0.0,20.0,0.0,0.0
170,57.0,0.0,60.0,0.0,0.0
171,75.0,24.0,20.0,0.0,0.0
172,77.0,24.0,20.0,0.0,0.0
173,78.0,24.0,20.0,0.0,0.0
174,80.0,24.0,20.0,0.0,0.0
175,59.0,0.0,20.0,0.0,0.0
176,61.0,24.0,20.0,0.0,0.0
177,81.0,0.0,20.0,0.0,0.0
178,71.0,0.0,60.0,0.0,0.0
179,62.0,24.0,20.0,0.0,0.0
180,61.0,24.0,20.0,0.0,0.0
181,59.0,24.0,20.0,0.0,0.0
182,66.0,24.0,20.0,0.0,0.0
183,71.0,0.0,20.0,0.0,0.0
184,83.0,24.0,20.0,0.0,0.0
185,65.0,24.0,60.0,0.0,0.0
186,81.0,24.0,20.0,0.0,0.0
187,80.0,0.0,20.0,0.0,0.0
188,78.0,0.0,20.0,0.0,0.0
189,66.0,24.0,20.0,0.0,0.0
190,77.0,24.0,20.0,0.0,0.0
191,68.0,0.0,20.0,0.0,0.0
192,69.0,24.0,20.0,0.0,0.0
193,68.0,24.0,20.0,0.0,0.0
194,66.0,0.0,20.0,0.0,0.0
195,73.0,8.0,15.0,0.0,0.0
196,78.0,16.0,15.0,0.0,0.0
197,72.0,16.0,15.0,0.0,0.0
198,75.0,16.0,20.0,0.0,0.0
199,73.0,0.0,15.0,0.0,0.0
200,77.0,8.0,20.0,0.0,0.0
201,72.0,8.0,15.0,0.0,0.0
202,73.0,16.0,15.0,0.0,0.0
203,78.0,0.0,20.0,0.0,0.0
204,72.0,16.0,15.0,0.0,0.0
205,80.0,8.0,20.0,0.0,0.0
206,73.0,8.0,15.0,0.0,0.0
207,72.0,16.0,15.0,0.0,0.0
208,81.0,0.0,20.0,0.0,0.0
209,73.0,16.0,15.0,0.0,0.0
210,80.0,8.0,20.0,0.0,0.0
211,72.0,8.0,15.0,0.0,0.0
212,73.0,16.0,15.0,0.0,0.0
213,81.0,0.0,20.0,0.0,0.0
214,72.0,16.0,15.0,0.0,0.0
215,78.0,0.0,20.0,0.0,0.0
216,70.0,8.0,15.0,0.0,0.0
217,72.0,24.0,15.0,0.0,0.0
218,77.0,24.0,20.0,0.0,0.0
219,73.0,24.0,40.0,0.0,0.0
220,78.0,0.0,20.0,0.0,0.0
221,80.0,72.0,20.0,0.0,0.0
222,73.0,24.0,90.0,0.0,0.0
223,65.0,24.0,20.0,0.0,0.0
224,66.0,24.0,40.0,0.0,0.0
225,74.0,0.0,20.0,0.0,0.0
226,71.0,24.0,20.0,0.0,0.0
227,68.0,0.0,20.0,0.0,0.0
228,69.0,24.0,20.0,0.0,0.0
229,61.0,0.0,20.0,0.0,0.0
230,71.0,0.0,20.0,0.0,0.0
231,63.0,24.0,20.0,0.0,0.0
232,65.0,0.0,20.0,0.0,0.0
233,68.0,24.0,20.0,0.0,0.0
234,66.0,0.0,20.0,0.0,0.0
235,69.0,24.0,20.0,0.0,0.0
236,68.0,0.0,20.0,0.0,0.0
237,73.0,24.0,20.0,0.0,0.0
238,78.0,0.0,20.0,0.0,0.0
239,69.0,24.0,20.0,0.0,0.0
240,59.0,0.0,60.0,0.0,0.0
241,76.0,24.0,20.0,0.0,0.0
242,74.0,24.0,20.0,0.0,0.0
243,73.0,24.0,20.0,0.0,0.0
244,74.0,0.0,20.0,0.0,0.0
245,59.0,24.0,20.0,0.0,0.0
246,78.0,24.0,20.0,0.0,0.0
247,71.0,0.0,20.0,0.0,0.0
248,83.0,24.0,20.0,0.0,0.0
249,69.0,0.0,20.0,0.0,0.0
250,68.0,24.0,20.0,0.0,0.0
251,77.0,0.0,20.0,0.0,0.0
252,80.0,0.0,20.0,0.0,0.0
253,66.0,24.0,20.0,0.0,0.0
254,65.0,0.0,20.0,0.0,0.0
255,73.0,24.0,20.0,0.0,0.0
256,74.0,24.0,20.0,0.0,0.0
257,73.0,24.0,20.0,0.0,0.0
258,71.0,0.0,20.0,0.0,0.0
259,69.0,0.0,20.0,0.0,0.0
260,66.0,24.0,15.0,0.0,0.0
261,63.0,24.0,20.0,0.0,0.0
262,71.0,0.0,20.0,0.0,0.0
263,68.0,0.0,20.0,0.0,0.0
264,65.0,24.0,20.0,0.0,0.0
265,69.0,0.0,40.0,0.0,0.0
266,66.0,24.0,20.0,0.0,0.0
267,68.0,24.0,20.0,0.0,0.0
268,69.0,0.0,20.0,0.0,0.0
269,78.0,24.0,20.0,0.0,0.0
270,68.0,24.0,20.0,0.0,0.0
271,71.0,24.0,40.0,0.0,0.0
272,69.0,0.0,20.0,0.0,0.0
273,69.0,0.0,20.0,0.0,0.0
274,66.0,24.0,20.0,0.0,0.0
275,68.0,0.0,20.0,0.0,0.0
276,65.0,24.0,20.0,0.0,0.0
277,73.0,0.0,20.0,0.0,0.0
278,66.0,24.0,20.0,0.0,0.0
279,71.0,24.0,20.0,0.0,0.0
280,68.0,0.0,20.0,0.0,0.0
281,61.0,8.0,90.0,0.0,0.0
282,69.0,24.0,20.0,0.0,0.0
283,68.0,24.0,20.0,0.0,0.0
284,66.0,16.0,20.0,0.0,0.0
285,66.0,8.0,15.0,0.0,0.0
286,65.0,16.0,15.0,0.0,0.0
287,62.0,0.0,20.0,0.0,0.0
288,66.0,16.0,15.0,0.0,0.0
289,59.0,0.0,20.0,0.0,0.0
290,65.0,8.0,15.0,0.0,0.0
291,66.0,24.0,15.0,0.0,0.0
292,57.0,24.0,20.0,0.0,0.0
293,59.0,0.0,20.0,0.0,0.0
294,56.0,24.0,20.0,0.0,0.0
295,57.0,24.0,20.0,0.0,0.0
296,61.0,24.0,20.0,0.0,0.0
297,66.0,24.0,20.0,0.0,0.0
298,64.0,24.0,20.0,0.0,0.0
299,62.0,24.0,20.0,0.0,0.0
300,61.0,24.0,20.0,0.0,0.0
301,62.0,24.0,20.0,0.0,0.0
302,66.0,24.0,20.0,0.0,0.0
303,71.0,24.0,20.0,0.0,0.0
304,65.0,24.0,20.0,0.0,0.0
305,68.0,24.0,20.0,0.0,0.0
306,61.0,24.0,20.0,0.0,0.0
307,62.0,24.0,20.0,0.0,0.0
308,61.0,24.0,20.0,0.0,0.0
309,59.0,24.0,20.0,0.0,0.0
310,78.0,0.0,60.0,0.0,0.0
311,57.0,24.0,20.0,0.0,0.0
312,59.0,24.0,20.0,0.0,0.0
313,56.0,24.0,20.0,0.0,0.0
314,57.0,0.0,40.0,0.0,0.0
315,73.0,24.0,20.0,0.0,0.0
316,72.0,24.0,20.0,0.0,0.0
317,73.0,0.0,20.0,0.0,0.0
318,66.0,24.0,20.0,0.0,0.0
319,59.0,0.0,40.0,0.0,0.0
320,75.0,24.0,20.0,0.0,0.0
321,73.0,24.0,20.0,0.0,0.0
322,57.0,0.0,20.0,0.0,0.0
323,75.0,24.0,20.0,0.0,0.0
324,76.0,0.0,20.0,0.0,0.0
325,56.0,24.0,20.0,0.0,0.0
326,61.0,24.0,20.0,0.0,0.0
327,75.0,0.0,20.0,0.0,0.0
328,77.0,0.0,20.0,0.0,0.0
329,59.0,24.0,20.0,0.0,0.0
330,57.0,0.0,20.0,0.0,0.0
331,78.0,24.0,20.0,0.0,0.0
332,56.0,24.0,20.0,0.0,0.0
333,77.0,0.0,20.0,0.0,0.0
334,78.0,0.0,20.0,0.0,0.0
335,54.0,16.0,15.0,0.0,0.0
336,80.0,8.0,20.0,0.0,0.0
337,53.0,16.0,15.0,0.0,0.0
338,78.0,16.0,20.0,0.0,0.0
339,54.0,0.0,15.0,0.0,0.0
340,53.0,8.0,15.0,0.0,0.0
341,80.0,48.0,20.0,0.0,0.0
342,81.0,0.0,40.0,0.0,0.0
343,54.0,0.0,15.0,0.0,0.0
344,80.0,72.0,40.0,0.0,0.0
345,78.0,48.0,40.0,0.0,0.0
346,78.0,96.0,20.0,0.0,0.0
347,77.0,24.0,90.0,0.0,0.0
348,73.0,48.0,20.0,0.0,0.0
349,75.0,24.0,40.0,0.0,0.0
350,77.0,24.0,20.0,0.0,0.0
351,66.0,24.0,60.0,0.0,0.0
352,78.0,24.0,20.0,0.0,0.0
353,76.0,24.0,20.0,0.0,0.0
354,75.0,0.0,20.0,0.0,0.0
355,76.0,0.0,40.0,0.0,0.0
356,61.0,24.0,20.0,0.0,0.0
357,60.0,24.0,20.0,0.0,0.0
358,61.0,24.0,20.0,0.0,0.0
359,85.0,0.0,20.0,0.0,0.0
360,84.0,24.0,40.0,0.0,0.0
361,63.0,24.0,20.0,0.0,0.0
362,61.0,0.0,20.0,0.0,0.0
363,78.0,0.0,20.0,0.0,0.0
364,63.0,24.0,20.0,0.0,0.0
365,80.0,0.0,40.0,0.0,0.0
366,64.0,24.0,20.0,0.0,0.0
367,63.0,24.0,20.0,0.0,0.0
368,65.0,0.0,20.0,0.0,0.0
369,83.0,24.0,20.0,0.0,0.0
370,66.0,0.0,20.0,0.0,0.0
371,81.0,24.0,20.0,0.0,0.0
372,65.0,24.0,20.0,0.0,0.0
373,80.0,0.0,20.0,0.0,0.0
374,78.0,0.0,20.0,0.0,0.0
375,66.0,24.0,20.0,0.0,0.0
376,77.0,24.0,40.0,0.0,0.0
377,68.0,24.0,20.0,0.0,0.0
378,66.0,0.0,20.0,0.0,0.0
379,68.0,24.0,20.0,0.0,0.0
380,86.0,0.0,20.0,0.0,0.0
381,69.0,0.0,40.0,0.0,0.0
382,85.0,24.0,20.0,0.0,0.0
383,81.0,24.0,20.0,0.0,0.0
384,68.0,24.0,40.0,0.0,0.0
385,78.0,24.0,15.0,0.0,0.0
386,83.0,0.0,20.0,0.0,0.0
387,66.0,24.0,40.0,0.0,0.0
388,76.0,24.0,15.0,0.0,0.0
389,81.0,0.0,20.0,0.0,0.0
390,74.0,24.0,15.0,0.0,0.0
391,66.0,0.0,20.0,0.0,0.0
392,73.0,24.0,20.0,0.0,0.0
393,65.0,24.0,90.0,0.0,0.0
394,71.0,24.0,20.0,0.0,0.0
395,73.0,24.0,20.0,0.0,0.0
396,77.0,0.0,20.0,0.0,0.0
397,80.0,24.0,20.0,0.0,0.0
398,61.0,0.0,20.0,0.0,0.0
399,63.0,0.0,40.0,0.0,0.0
400,83.0,24.0,20.0,0.0,0.0
401,81.0,24.0,20.0,0.0,0.0
402,80.0,0.0,20.0,0.0,0.0
403,65.0,24.0,20.0,0.0,0.0
404,66.0,0.0,20.0,0.0,0.0
405,81.0,24.0,20.0,0.0,0.0
406,64.0,0.0,20.0,0.0,0.0
407,80.0,24.0,20.0,0.0,0.0
408,63.0,24.0,20.0,0.0,0.0
409,78.0,0.0,20.0,0.0,0.0
410,64.0,24.0,40.0,0.0,0.0
411,80.0,24.0,20.0,0.0,0.0
412,78.0,0.0,20.0,0.0,0.0
413,76.0,24.0,20.0,0.0,0.0
414,73.0,0.0,20.0,0.0,0.0
415,78.0,24.0,20.0,0.0,0.0
416,72.0,0.0,40.0,0.0,0.0
417,76.0,24.0,20.0,0.0,0.0
418,66.0,24.0,20.0,0.0,0.0
419,75.0,0.0,20.0,0.0,0.0
420,76.0,24.0,20.0,0.0,0.0
421,68.0,0.0,40.0,0.0,0.0
422,78.0,24.0,20.0,0.0,0.0
423,71.0,24.0,20.0,0.0,0.0
424,80.0,0.0,20.0,0.0,0.0
425,78.0,0.0,20.0,0.0,0.0
426,69.0,24.0,20.0,0.0,0.0
427,68.0,24.0,20.0,0.0,0.0
428,80.0,0.0,20.0,0.0,0.0
429,81.0,24.0,20.0,0.0,0.0
430,66.0,0.0,20.0,0.0,0.0
431,80.0,24.0,20.0,0.0,0.0
432,65.0,0.0,40.0,0.0,0.0
433,81.0,24.0,20.0,0.0,0.0
434,74.0,24.0,20.0,0.0,0.0
435,83.0,0.0,20.0,0.0,0.0
436,81.0,24.0,20.0,0.0,0.0
437,73.0,0.0,20.0,0.0,0.0
438,69.0,0.0,20.0,0.0,0.0
439,78.0,24.0,20.0,0.0,0.0
440,85.0,24.0,20.0,0.0,0.0
441,66.0,0.0,15.0,0.0,0.0
442,74.0,0.0,20.0,0.0,0.0
443,71.0,0.0,20.0,0.0,0.0
444,80.0,24.0,20.0,0.0,0.0
445,83.0,24.0,20.0,0.0,0.0
446,64.0,0.0,15.0,0.0,0.0
447,73.0,24.0,20.0,0.0,0.0
448,69.0,0.0,20.0,0.0,0.0
449,78.0,24.0,20.0,0.0,0.0
450,81.0,24.0,20.0,0.0,0.0
451,62.0,0.0,15.0,0.0,0.0
452,71.0,0.0,20.0,0.0,0.0
453,61.0,0.0,20.0,0.0,0.0
454,77.0,24.0,20.0,0.0,0.0
455,59.0,0.0,20.0,0.0,0.0
456,80.0,24.0,20.0,0.0,0.0
457,69.0,24.0,20.0,0.0,0.0
458,61.0,0.0,20.0,0.0,0.0
459,65.0,24.0,20.0,0.0,0.0
460,73.0,0.0,20.0,0.0,0.0
461,71.0,0.0,20.0,0.0,0.0
462,68.0,24.0,20.0,0.0,0.0
463,71.0,24.0,20.0,0.0,0.0
464,74.0,0.0,20.0,0.0,0.0
465,73.0,24.0,20.0,0.0,0.0
466,69.0,0.0,20.0,0.0,0.0
467,68.0,24.0,20.0,0.0,0.0
468,77.0,0.0,20.0,0.0,0.0
469,78.0,0.0,20.0,0.0,0.0
470,69.0,24.0,20.0,0.0,0.0
471,80.0,0.0,20.0,0.0,0.0
472,68.0,24.0,20.0,0.0,0.0
473,66.0,16.0,20.0,0.0,0.0
474,81.0,0.0,20.0,0.0,0.0
475,73.0,8.0,15.0,0.0,0.0
476,68.0,8.0,20.0,0.0,0.0
477,72.0,16.0,15.0,0.0,0.0
478,66.0,16.0,20.0,0.0,0.0
479,73.0,0.0,15.0,0.0,0.0
480,72.0,8.0,15.0,0.0,0.0
481,64.0,8.0,20.0,0.0,0.0
482,73.0,16.0,15.0,0.0,0.0
483,66.0,16.0,20.0,0.0,0.0
484,72.0,0.0,15.0,0.0,0.0
485,70.0,8.0,15.0,0.0,0.0
486,64.0,8.0,20.0,0.0,0.0
487,72.0,16.0,15.0,0.0,0.0
488,63.0,0.0,20.0,0.0,0.0
489,64.0,24.0,20.0,0.0,0.0
490,73.0,24.0,15.0,0.0,0.0
491,66.0,24.0,20.0,0.0,0.0
492,68.0,24.0,20.0,0.0,0.0
493,66.0,24.0,20.0,0.0,0.0
494,68.0,24.0,20.0,0.0,0.0
495,75.0,0.0,20.0,0.0,0.0
496,69.0,24.0,20.0,0.0,0.0
497,68.0,24.0,20.0,0.0,0.0
498,76.0,24.0,40.0,0.0,0.0
499,69.0,0.0,20.0,0.0,0.0
500,71.0,0.0,20.0,0.0,0.0
501,73.0,24.0,20.0,0.0,0.0
502,69.0,24.0,20.0,0.0,0.0
503,78.0,24.0,40.0,0.0,0.0
504,66.0,0.0,20.0,0.0,0.0
505,73.0,0.0,20.0,0.0,0.0
506,81.0,24.0,20.0,0.0,0.0
507,62.0,0.0,20.0,0.0,0.0
508,81.0,24.0,20.0,0.0,0.0
509,68.0,0.0,20.0,0.0,0.0
510,80.0,24.0,20.0,0.0,0.0
511,71.0,0.0,20.0,0.0,0.0
512,78.0,24.0,20.0,0.0,0.0
513,61.0,24.0,20.0,0.0,0.0
514,76.0,0.0,20.0,0.0,0.0
515,66.0,0.0,20.0,0.0,0.0
516,78.0,24.0,20.0,0.0,0.0
517,75.0,24.0,20.0,0.0,0.0
518,69.0,0.0,20.0,0.0,0.0
519,59.0,24.0,20.0,0.0,0.0
520,80.0,0.0,60.0,0.0,0.0
521,65.0,24.0,20.0,0.0,0.0
522,68.0,24.0,20.0,0.0,0.0
523,73.0,0.0,60.0,0.0,0.0
524,57.0,24.0,20.0,0.0,0.0
525,61.0,24.0,20.0,0.0,0.0
526,59.0,24.0,20.0,0.0,0.0
527,62.0,24.0,20.0,0.0,0.0
528,61.0,24.0,20.0,0.0,0.0
529,65.0,24.0,20.0,0.0,0.0
530,73.0,0.0,60.0,0.0,0.0
531,66.0,24.0,20.0,0.0,0.0
532,68.0,24.0,20.0,0.0,0.0
533,69.0,16.0,20.0,0.0,0.0
534,80.0,8.0,20.0,0.0,0.0
535,61.0,8.0,15.0,0.0,0.0
536,60.0,16.0,15.0,0.0,0.0
537,81.0,0.0,20.0,0.0,0.0
538,61.0,16.0,15.0,0.0,0.0
539,80.0,8.0,20.0,0.0,0.0
540,60.0,8.0,15.0,0.0,0.0
541,61.0,16.0,15.0,0.0,0.0
542,78.0,0.0,20.0,0.0,0.0
543,60.0,16.0,15.0,0.0,0.0
544,58.0,8.0,15.0,0.0,0.0
545,80.0,8.0,20.0,0.0,0.0
546,60.0,16.0,15.0,0.0,0.0
547,78.0,24.0,20.0,0.0,0.0
548,61.0,0.0,15.0,0.0,0.0
549,61.0,24.0,40.0,0.0,0.0
550,76.0,24.0,20.0,0.0,0.0
551,78.0,0.0,20.0,0.0,0.0
552,76.0,24.0,20.0,0.0,0.0
553,75.0,24.0,20.0,0.0,0.0
554,76.0,24.0,20.0,0.0,0.0
555,63.0,0.0,20.0,0.0,0.0
556,75.0,24.0,20.0,0.0,0.0
557,64.0,24.0,40.0,0.0,0.0
558,73.0,24.0,20.0,0.0,0.0
559,75.0,0.0,20.0,0.0,0.0
560,61.0,48.0,20.0,0.0,0.0
561,73.0,0.0,20.0,0.0,0.0
562,72.0,24.0,40.0,0.0,0.0
563,62.0,0.0,40.0,0.0,0.0
564,73.0,24.0,40.0,0.0,0.0
565,69.0,24.0,15.0,0.0,0.0
566,68.0,0.0,20.0,0.0,0.0
567,66.0,24.0,20.0,0.0,0.0
568,64.0,24.0,20.0,0.0,0.0
569,74.0,0.0,40.0,0.0,0.0
570,66.0,24.0,20.0,0.0,0.0
571,75.0,0.0,20.0,0.0,0.0
572,63.0,72.0,20.0,0.0,0.0
573,64.0,24.0,60.0,0.0,0.0
574,61.0,48.0,60.0,0.0,0.0
575,76.0,24.0,15.0,0.0,0.0
576,78.0,0.0,20.0,0.0,0.0
577,76.0,24.0,40.0,0.0,0.0
578,75.0,24.0,20.0,0.0,0.0
579,61.0,24.0,60.0,0.0,0.0
580,73.0,24.0,20.0,0.0,0.0
581,68.0,24.0,20.0,0.0,0.0
582,73.0,0.0,20.0,0.0,0.0
583,68.0,0.0,20.0,0.0,0.0
584,76.0,24.0,20.0,0.0,0.0
585,69.0,0.0,20.0,0.0,0.0
586,73.0,24.0,20.0,0.0,0.0
587,76.0,24.0,20.0,0.0,0.0
588,68.0,0.0,20.0,0.0,0.0
589,66.0,24.0,20.0,0.0,0.0
590,80.0,24.0,40.0,0.0,0.0
591,68.0,0.0,20.0,0.0,0.0
592,66.0,0.0,20.0,0.0,0.0
593,72.0,24.0,20.0,0.0,0.0
594,73.0,24.0,40.0,0.0,0.0
595,64.0,24.0,20.0,0.0,0.0
596,66.0,0.0,20.0,0.0,0.0
597,64.0,24.0,20.0,0.0,0.0
598,81.0,0.0,20.0,0.0,0.0
599,71.0,0.0,40.0,0.0,0.0
600,63.0,24.0,20.0,0.0,0.0
601,64.0,24.0,20.0,0.0,0.0
602,63.0,24.0,20.0,0.0,0.0
603,80.0,0.0,20.0,0.0,0.0
604,61.0,24.0,20.0,0.0,0.0
605,69.0,24.0,40.0,0.0,0.0
606,63.0,0.0,20.0,0.0,0.0
607,61.0,24.0,20.0,0.0,0.0
608,78.0,0.0,20.0,0.0,0.0
609,68.0,24.0,20.0,0.0,0.0
610,60.0,24.0,40.0,0.0,0.0
611,75.0,0.0,20.0,0.0,0.0
612,78.0,24.0,20.0,0.0,0.0
613,76.0,24.0,20.0,0.0,0.0
614,61.0,0.0,40.0,0.0,0.0
615,75.0,24.0,20.0,0.0,0.0
616,73.0,24.0,20.0,0.0,0.0
617,72.0,24.0,20.0,0.0,0.0
618,63.0,0.0,40.0,0.0,0.0
619,78.0,24.0,20.0,0.0,0.0
620,81.0,24.0,20.0,0.0,0.0
621,80.0,24.0,20.0,0.0,0.0
622,78.0,24.0,20.0,0.0,0.0
623,76.0,24.0,20.0,0.0,0.0
624,75.0,24.0,20.0,0.0,0.0
625,64.0,0.0,15.0,0.0,0.0
626,73.0,0.0,20.0,0.0,0.0
627,72.0,0.0,20.0,0.0,0.0
628,66.0,24.0,20.0,0.0,0.0
629,73.0,24.0,20.0,0.0,0.0
630,64.0,0.0,40.0,0.0,0.0
631,68.0,24.0,20.0,0.0,0.0
632,63.0,0.0,20.0,0.0,0.0
633,75.0,24.0,20.0,0.0,0.0
634,76.0,0.0,20.0,0.0,0.0
635,61.0,24.0,20.0,0.0,0.0
636,75.0,24.0,20.0,0.0,0.0
637,56.0,0.0,20.0,0.0,0.0
638,61.0,24.0,20.0,0.0,0.0
639,73.0,0.0,20.0,0.0,0.0
640,80.0,24.0,90.0,0.0,0.0
641,64.0,24.0,20.0,0.0,0.0
642,61.0,24.0,20.0,0.0,0.0
643,64.0,24.0,20.0,0.0,0.0
644,68.0,0.0,40.0,0.0,0.0
645,75.0,24.0,20.0,0.0,0.0
646,78.0,0.0,20.0,0.0,0.0
647,60.0,24.0,20.0,0.0,0.0
648,78.0,24.0,20.0,0.0,0.0
649,61.0,24.0,40.0,0.0,0.0
650,76.0,0.0,20.0,0.0,0.0
651,85.0,24.0,20.0,0.0,0.0
652,69.0,0.0,20.0,0.0,0.0
653,59.0,24.0,40.0,0.0,0.0
654,76.0,24.0,20.0,0.0,0.0
655,75.0,0.0,20.0,0.0,0.0
656,68.0,24.0,20.0,0.0,0.0
657,83.0,0.0,20.0,0.0,0.0
658,75.0,24.0,20.0,0.0,0.0
659,57.0,24.0,40.0,0.0,0.0
660,73.0,0.0,20.0,0.0,0.0
661,81.0,0.0,20.0,0.0,0.0
662,66.0,24.0,20.0,0.0,0.0
663,73.0,24.0,20.0,0.0,0.0
664,52.0,0.0,20.0,0.0,0.0
665,63.0,24.0,20.0,0.0,0.0
666,72.0,0.0,20.0,0.0,0.0
667,75.0,0.0,20.0,0.0,0.0
668,66.0,24.0,20.0,0.0,0.0
669,64.0,24.0,20.0,0.0,0.0
670,68.0,0.0,40.0,0.0,0.0
671,63.0,24.0,20.0,0.0,0.0
672,61.0,24.0,20.0,0.0,0.0
673,60.0,24.0,20.0,0.0,0.0
674,66.0,24.0,20.0,0.0,0.0
675,69.0,24.0,20.0,0.0,0.0
676,68.0,24.0,20.0,0.0,0.0
677,66.0,24.0,20.0,0.0,0.0
678,64.0,24.0,20.0,0.0,0.0
679,78.0,0.0,90.0,0.0,0.0
680,63.0,24.0,20.0,0.0,0.0
681,61.0,24.0,20.0,0.0,0.0
682,60.0,24.0,20.0,0.0,0.0
683,61.0,24.0,20.0,0.0,0.0
684,76.0,24.0,20.0,0.0,0.0
685,56.0,0.0,20.0,0.0,0.0
686,78.0,24.0,20.0,0.0,0.0
687,63.0,0.0,20.0,0.0,0.0
688,80.0,24.0,20.0,0.0,0.0
689,64.0,0.0,20.0,0.0,0.0
690,63.0,24.0,20.0,0.0,0.0
691,78.0,0.0,20.0,0.0,0.0
692,76.0,24.0,20.0,0.0,0.0
693,61.0,0.0,20.0,0.0,0.0
694,75.0,24.0,20.0,0.0,0.0
695,68.0,0.0,90.0,0.0,0.0
696,76.0,24.0,20.0,0.0,0.0
697,78.0,24.0,20.0,0.0,0.0
698,80.0,24.0,20.0,0.0,0.0
699,63.0,24.0,20.0,0.0,0.0
700,82.0,0.0,20.0,0.0,0.0
701,84.0,0.0,20.0,0.0,0.0
702,85.0,0.0,20.0,0.0,0.0
703,66.0,24.0,15.0,0.0,0.0
704,80.0,24.0,20.0,0.0,0.0
705,64.0,0.0,20.0,0.0,0.0
706,76.0,24.0,20.0,0.0,0.0
707,73.0,0.0,20.0,0.0,0.0
708,78.0,24.0,20.0,0.0,0.0
709,64.0,0.0,20.0,0.0,0.0
710,63.0,0.0,20.0,0.0,0.0
711,83.0,24.0,20.0,0.0,0.0
712,71.0,0.0,20.0,0.0,0.0
713,75.0,24.0,20.0,0.0,0.0
714,63.0,24.0,20.0,0.0,0.0
715,76.0,0.0,20.0,0.0,0.0
716,61.0,24.0,20.0,0.0,0.0
717,81.0,0.0,20.0,0.0,0.0
718,69.0,0.0,20.0,0.0,0.0
719,73.0,24.0,20.0,0.0,0.0
720,61.0,24.0,20.0,0.0,0.0
721,75.0,0.0,20.0,0.0,0.0
722,80.0,0.0,20.0,0.0,0.0
723,60.0,24.0,20.0,0.0,0.0
724,78.0,24.0,20.0,0.0,0.0
725,63.0,0.0,20.0,0.0,0.0
726,56.0,24.0,40.0,0.0,0.0
727,76.0,24.0,20.0,0.0,0.0
728,75.0,0.0,20.0,0.0,0.0
729,73.0,24.0,20.0,0.0,0.0
730,75.0,24.0,20.0,0.0,0.0
731,73.0,24.0,20.0,0.0,0.0
732,72.0,24.0,20.0,0.0,0.0
733,73.0,24.0,20.0,0.0,0.0
734,72.0,24.0,20.0,0.0,0.0
735,70.0,24.0,20.0,0.0,0.0
736,66.0,0.0,90.0,0.0,0.0
737,72.0,24.0,20.0,0.0,0.0
738,68.0,24.0,20.0,0.0,0.0
739,72.0,24.0,20.0,0.0,0.0
740,75.0,24.0,20.0,0.0,0.0
741,80.0,24.0,20.0,0.0,0.0
742,64.0,0.0,20.0,0.0,0.0
743,78.0,0.0,20.0,0.0,0.0
744,66.0,24.0,20.0,0.0,0.0
745,76.0,0.0,20.0,0.0,0.0
746,68.0,24.0,20.0,0.0,0.0
747,75.0,24.0,20.0,0.0,0.0
748,66.0,0.0,20.0,0.0,0.0
749,64.0,0.0,20.0,0.0,0.0
750,73.0,24.0,20.0,0.0,0.0
751,63.0,24.0,20.0,0.0,0.0
752,78.0,0.0,90.0,0.0,0.0
753,64.0,24.0,20.0,0.0,0.0
754,66.0,24.0,20.0,0.0,0.0
755,68.0,24.0,20.0,0.0,0.0
756,70.0,0.0,20.0,0.0,0.0
757,76.0,24.0,20.0,0.0,0.0
758,75.0,0.0,20.0,0.0,0.0
759,72.0,24.0,20.0,0.0,0.0
760,73.0,24.0,20.0,0.0,0.0
761,76.0,0.0,40.0,0.0,0.0
762,68.0,24.0,20.0,0.0,0.0
763,64.0,24.0,20.0,0.0,0.0
764,66.0,24.0,20.0,0.0,0.0
765,81.0,0.0,40.0,0.0,0.0
766,71.0,24.0,20.0,0.0,0.0
767,63.0,24.0,20.0,0.0,0.0
768,80.0,24.0,40.0,0.0,0.0
769,64.0,24.0,20.0,0.0,0.0
770,69.0,0.0,20.0,0.0,0.0
771,61.0,24.0,20.0,0.0,0.0
772,78.0,24.0,40.0,0.0,0.0
773,63.0,24.0,20.0,0.0,0.0
774,68.0,0.0,20.0,0.0,0.0
775,66.0,0.0,20.0,0.0,0.0
776,72.0,24.0,20.0,0.0,0.0
777,64.0,24.0,20.0,0.0,0.0
778,73.0,0.0,40.0,0.0,0.0
779,63.0,24.0,20.0,0.0,0.0
780,76.0,0.0,20.0,0.0,0.0
781,61.0,16.0,20.0,0.0,0.0
782,63.0,8.0,20.0,0.0,0.0
783,72.0,8.0,15.0,0.0,0.0
784,70.0,16.0,15.0,0.0,0.0
785,61.0,0.0,20.0,0.0,0.0
786,72.0,16.0,15.0,0.0,0.0
787,70.0,8.0,15.0,0.0,0.0
788,60.0,24.0,20.0,0.0,0.0
789,68.0,0.0,15.0,0.0,0.0
790,61.0,24.0,20.0,0.0,0.0
791,68.0,24.0,40.0,0.0,0.0
792,60.0,0.0,20.0,0.0,0.0
793,58.0,24.0,20.0,0.0,0.0
794,60.0,24.0,20.0,0.0,0.0
795,56.0,24.0,20.0,0.0,0.0
796,60.0,24.0,20.0,0.0,0.0
797,63.0,24.0,20.0,0.0,0.0
798,68.0,24.0,20.0,0.0,0.0
799,66.0,24.0,20.0,0.0,0.0
800,64.0,24.0,20.0,0.0,0.0
801,63.0,24.0,20.0,0.0,0.0
802,66.0,0.0,20.0,0.0,0.0
803,61.0,24.0,20.0,0.0,0.0
804,68.0,0.0,20.0,0.0,0.0
805,69.0,24.0,20.0,0.0,0.0
806,66.0,24.0,90.0,0.0,0.0
807,71.0,24.0,20.0,0.0,0.0
808,69.0,24.0,20.0,0.0,0.0
809,64.0,24.0,20.0,0.0,0.0
810,63.0,24.0,20.0,0.0,0.0
811,68.0,0.0,15.0,0.0,0.0
812,64.0,24.0,40.0,0.0,0.0
813,69.0,0.0,20.0,0.0,0.0
814,71.0,24.0,20.0,0.0,0.0
815,69.0,0.0,40.0,0.0,0.0
816,73.0,24.0,20.0,0.0,0.0
817,74.0,24.0,20.0,0.0,0.0
818,73.0,24.0,20.0,0.0,0.0
819,68.0,0.0,40.0,0.0,0.0
820,71.0,24.0,20.0,0.0,0.0
821,73.0,24.0,20.0,0.0,0.0
822,71.0,24.0,20.0,0.0,0.0
823,69.0,24.0,20.0,0.0,0.0
824,66.0,0.0,40.0,0.0,0.0
825,71.0,24.0,20.0,0.0,0.0
826,60.0,24.0,20.0,0.0,0.0
827,69.0,0.0,20.0,0.0,0.0
828,68.0,24.0,20.0,0.0,0.0
829,61.0,0.0,40.0,0.0,0.0
830,69.0,24.0,20.0,0.0,0.0
831,64.0,16.0,20.0,0.0,0.0
832,68.0,0.0,20.0,0.0,0.0
833,66.0,8.0,20.0,0.0,0.0
834,60.0,8.0,15.0,0.0,0.0
835,58.0,16.0,15.0,0.0,0.0
836,68.0,16.0,20.0,0.0,0.0
837,60.0,0.0,15.0,0.0,0.0
838,58.0,8.0,15.0,0.0,0.0
839,66.0,0.0,20.0,0.0,0.0
840,65.0,0.0,40.0,0.0,0.0
841,56.0,48.0,15.0,0.0,0.0
842,66.0,72.0,40.0,0.0,0.0
843,68.0,72.0,40.0,0.0,0.0
844,54.0,24.0,20.0,0.0,0.0
845,56.0,24.0,20.0,0.0,0.0
846,57.0,0.0,20.0,0.0,0.0
847,69.0,24.0,15.0,0.0,0.0
848,59.0,0.0,20.0,0.0,0.0
849,57.0,0.0,20.0,0.0,0.0
850,56.0,0.0,60.0,0.0,0.0
851,73.0,16.0,15.0,0.0,0.0
852,71.0,16.0,15.0,0.0,0.0
853,73.0,24.0,15.0,0.0,0.0
854,69.0,24.0,20.0,0.0,0.0
855,71.0,0.0,20.0,0.0,0.0
856,56.0,24.0,20.0,0.0,0.0
857,69.0,0.0,20.0,0.0,0.0
858,57.0,24.0,20.0,0.0,0.0
859,68.0,16.0,20.0,0.0,0.0
860,59.0,0.0,20.0,0.0,0.0
861,78.0,8.0,15.0,0.0,0.0
862,61.0,8.0,20.0,0.0,0.0
863,77.0,16.0,15.0,0.0,0.0
864,62.0,16.0,20.0,0.0,0.0
865,78.0,0.0,15.0,0.0,0.0
866,61.0,8.0,20.0,0.0,0.0
867,77.0,8.0,15.0,0.0,0.0
868,78.0,16.0,15.0,0.0,0.0
869,59.0,0.0,20.0,0.0,0.0
870,77.0,16.0,15.0,0.0,0.0
871,61.0,8.0,20.0,0.0,0.0
872,75.0,8.0,15.0,0.0,0.0
873,77.0,16.0,15.0,0.0,0.0
874,59.0,24.0,20.0,0.0,0.0
875,78.0,0.0,15.0,0.0,0.0
876,57.0,24.0,20.0,0.0,0.0
877,74.0,24.0,20.0,0.0,0.0
878,59.0,0.0,20.0,0.0,0.0
879,83.0,24.0,20.0,0.0,0.0
880,57.0,0.0,20.0,0.0,0.0
881,56.0,0.0,20.0,0.0,0.0
882,76.0,24.0,20.0,0.0,0.0
883,73.0,0.0,20.0,0.0,0.0
884,57.0,24.0,20.0,0.0,0.0
885,81.0,24.0,20.0,0.0,0.0
886,56.0,0.0,20.0,0.0,0.0
887,54.0,0.0,20.0,0.0,0.0
888,74.0,24.0,20.0,0.0,0.0
889,56.0,24.0,20.0,0.0,0.0
890,71.0,0.0,20.0,0.0,0.0
891,54.0,24.0,20.0,0.0,0.0
892,80.0,0.0,20.0,0.0,0.0
893,50.0,24.0,40.0,0.0,0.0
894,73.0,24.0,20.0,0.0,0.0
895,71.0,0.0,20.0,0.0,0.0
896,80.0,24.0,20.0,0.0,0.0
897,73.0,24.0,20.0,0.0,0.0
898,54.0,24.0,40.0,0.0,0.0
899,69.0,0.0,20.0,0.0,0.0
900,78.0,24.0,20.0,0.0,0.0
901,56.0,24.0,40.0,0.0,0.0
902,71.0,24.0,20.0,0.0,0.0
903,68.0,0.0,20.0,0.0,0.0
904,77.0,24.0,20.0,0.0,0.0
905,57.0,24.0,90.0,0.0,0.0
906,78.0,24.0,20.0,0.0,0.0
907,73.0,24.0,20.0,0.0,0.0
908,69.0,24.0,20.0,0.0,0.0
909,66.0,0.0,20.0,0.0,0.0
910,68.0,0.0,20.0,0.0,0.0
911,57.0,24.0,20.0,0.0,0.0
912,69.0,0.0,20.0,0.0,0.0
913,61.0,16.0,20.0,0.0,0.0
914,68.0,8.0,20.0,0.0,0.0
915,61.0,8.0,15.0,0.0,0.0
916,59.0,16.0,15.0,0.0,0.0
917,69.0,0.0,20.0,0.0,0.0
918,61.0,24.0,15.0,0.0,0.0
919,66.0,24.0,20.0,0.0,0.0
920,57.0,0.0,20.0,0.0,0.0
921,59.0,24.0,20.0,0.0,0.0
922,68.0,8.0,90.0,0.0,0.0
923,57.0,24.0,20.0,0.0,0.0
924,56.0,16.0,20.0,0.0,0.0
925,66.0,8.0,15.0,0.0,0.0
926,65.0,16.0,15.0,0.0,0.0
927,69.0,0.0,20.0,0.0,0.0
928,66.0,16.0,15.0,0.0,0.0
929,71.0,8.0,20.0,0.0,0.0
930,65.0,8.0,15.0,0.0,0.0
931,66.0,16.0,15.0,0.0,0.0
932,69.0,0.0,20.0,0.0,0.0
933,65.0,16.0,15.0,0.0,0.0
934,71.0,8.0,20.0,0.0,0.0
935,63.0,8.0,15.0,0.0,0.0
936,65.0,16.0,15.0,0.0,0.0
937,68.0,0.0,20.0,0.0,0.0
938,69.0,24.0,40.0,0.0,0.0
939,66.0,24.0,15.0,0.0,0.0
940,62.0,0.0,20.0,0.0,0.0
941,71.0,24.0,20.0,0.0,0.0
942,68.0,24.0,40.0,0.0,0.0
943,64.0,24.0,20.0,0.0,0.0
944,61.0,0.0,20.0,0.0,0.0
945,69.0,24.0,20.0,0.0,0.0
946,66.0,0.0,40.0,0.0,0.0
947,62.0,24.0,20.0,0.0,0.0
948,59.0,24.0,20.0,0.0,0.0
949,68.0,24.0,20.0,0.0,0.0
950,61.0,24.0,20.0,0.0,0.0
951,65.0,0.0,40.0,0.0,0.0
952,59.0,24.0,20.0,0.0,0.0
953,68.0,24.0,20.0,0.0,0.0
954,61.0,24.0,20.0,0.0,0.0
955,66.0,0.0,40.0,0.0,0.0
956,57.0,24.0,20.0,0.0,0.0
957,66.0,24.0,20.0,0.0,0.0
958,68.0,0.0,40.0,0.0,0.0
959,59.0,24.0,20.0,0.0,0.0
960,56.0,24.0,20.0,0.0,0.0
961,65.0,24.0,20.0,0.0,0.0
962,69.0,0.0,20.0,0.0,0.0
963,66.0,24.0,20.0,0.0,0.0
964,61.0,0.0,20.0,0.0,0.0
965,68.0,24.0,20.0,0.0,0.0
966,57.0,0.0,20.0,0.0,0.0
967,66.0,24.0,20.0,0.0,0.0
968,54.0,24.0,20.0,0.0,0.0
969,74.0,0.0,20.0,0.0,0.0
970,56.0,0.0,20.0,0.0,0.0
971,73.0,24.0,20.0,0.0,0.0
972,71.0,0.0,20.0,0.0,0.0
973,57.0,24.0,20.0,0.0,0.0
974,77.0,24.0,40.0,0.0,0.0
975,56.0,24.0,20.0,0.0,0.0
976,57.0,0.0,20.0,0.0,0.0
977,54.0,48.0,20.0,0.0,0.0
978,56.0,0.0,90.0,0.0,0.0
979,71.0,24.0,20.0,0.0,0.0
980,66.0,24.0,20.0,0.0,0.0
981,65.0,24.0,20.0,0.0,0.0
982,66.0,24.0,20.0,0.0,0.0
983,57.0,0.0,20.0,0.0,0.0
984,59.0,24.0,20.0,0.0,0.0
985,68.0,0.0,20.0,0.0,0.0
986,61.0,0.0,20.0,0.0,0.0
987,57.0,24.0,20.0,0.0,0.0
988,59.0,0.0,20.0,0.0,0.0
989,63.0,24.0,20.0,0.0,0.0
990,56.0,24.0,20.0,0.0,0.0
991,65.0,0.0,20.0,0.0,0.0
992,66.0,24.0,20.0,0.0,0.0
993,57.0,24.0,40.0,0.0,0.0
994,59.0,0.0,20.0,0.0,0.0
995,62.0,24.0,20.0,0.0,0.0
996,64.0,24.0,20.0,0.0,0.0
997,56.0,24.0,40.0,0.0,0.0
998,57.0,0.0,20.0,0.0,0.0
999,61.0,24.0,20.0,0.0,0.0
1000,62.0,24.0,20.0,0.0,0.0
1001,54.0,24.0,40.0,0.0,0.0
1002,56.0,0.0,20.0,0.0,0.0
1003,59.0,24.0,20.0,0.0,0.0
1004,61.0,24.0,20.0,0.0,0.0
1005,53.0,24.0,40.0,0.0,0.0
1006,73.0,0.0,20.0,0.0,0.0
1007,71.0,24.0,20.0,0.0,0.0
1008,54.0,0.0,40.0,0.0,0.0
1009,69.0,24.0,20.0,0.0,0.0
1010,78.0,24.0,20.0,0.0,0.0
1011,76.0,24.0,20.0,0.0,0.0
1012,56.0,24.0,40.0,0.0,0.0
1013,74.0,24.0,20.0,0.0,0.0
1014,73.0,0.0,20.0,0.0,0.0
1015,74.0,24.0,20.0,0.0,0.0
1016,73.0,24.0,60.0,0.0,0.0
1017,57.0,24.0,20.0,0.0,0.0
1018,56.0,24.0,20.0,0.0,0.0
1019,54.0,0.0,20.0,0.0,0.0
1020,62.0,24.0,20.0,0.0,0.0
1021,66.0,0.0,20.0,0.0,0.0
1022,65.0,24.0,20.0,0.0,0.0
1023,61.0,0.0,20.0,0.0,0.0
1024,59.0,0.0,20.0,0.0,0.0
1025,66.0,24.0,20.0,0.0,0.0
1026,68.0,24.0,20.0,0.0,0.0
1027,65.0,0.0,40.0,0.0,0.0
1028,66.0,24.0,20.0,0.0,0.0
1029,68.0,24.0,20.0,0.0,0.0
1030,69.0,24.0,20.0,0.0,0.0
1031,68.0,0.0,20.0,0.0,0.0
1032,59.0,24.0,20.0,0.0,0.0
1033,54.0,24.0,20.0,0.0,0.0
1034,69.0,0.0,20.0,0.0,0.0
1035,71.0,0.0,20.0,0.0,0.0
1036,53.0,24.0,20.0,0.0,0.0
1037,69.0,24.0,20.0,0.0,0.0
1038,54.0,0.0,20.0,0.0,0.0
1039,56.0,24.0,20.0,0.0,0.0
1040,71.0,0.0,20.0,0.0,0.0
1041,73.0,24.0,20.0,0.0,0.0
1042,49.0,0.0,20.0,0.0,0.0
1043,71.0,24.0,20.0,0.0,0.0
1044,51.0,0.0,20.0,0.0,0.0
1045,73.0,0.0,20.0,0.0,0.0
1046,53.0,24.0,20.0,0.0,0.0
1047,74.0,0.0,40.0,0.0,0.0
1048,54.0,24.0,20.0,0.0,0.0
1049,47.0,24.0,20.0,0.0,0.0
1050,50.0,24.0,20.0,0.0,0.0
1051,73.0,24.0,40.0,0.0,0.0
1052,52.0,24.0,20.0,0.0,0.0
1053,45.0,0.0,20.0,0.0,0.0
1054,49.0,24.0,20.0,0.0,0.0
1055,50.0,24.0,20.0,0.0,0.0
1056,71.0,24.0,40.0,0.0,0.0
1057,44.0,0.0,20.0,0.0,0.0
1058,47.0,24.0,20.0,0.0,0.0
1059,49.0,24.0,20.0,0.0,0.0
1060,71.0,0.0,20.0,0.0,0.0
1061,69.0,24.0,90.0,0.0,0.0
1062,61.0,24.0,20.0,0.0,0.0
1063,59.0,24.0,20.0,0.0,0.0
1064,57.0,24.0,20.0,0.0,0.0
1065,66.0,0.0,20.0,0.0,0.0
1066,68.0,0.0,20.0,0.0,0.0
1067,64.0,24.0,20.0,0.0,0.0
1068,62.0,24.0,20.0,0.0,0.0
1069,69.0,0.0,40.0,0.0,0.0
1070,61.0,24.0,20.0,0.0,0.0
1071,62.0,48.0,20.0,0.0,0.0
1072,71.0,0.0,20.0,0.0,0.0
1073,73.0,24.0,40.0,0.0,0.0
1074,61.0,0.0,60.0,0.0,0.0
1075,83.0,24.0,20.0,0.0,0.0
1076,81.0,0.0,40.0,0.0,0.0
1077,54.0,24.0,20.0,0.0,0.0
1078,53.0,24.0,20.0,0.0,0.0
1079,54.0,24.0,20.0,0.0,0.0
1080,73.0,0.0,20.0,0.0,0.0
1081,71.0,0.0,40.0,0.0,0.0
1082,56.0,24.0,20.0,0.0,0.0
1083,54.0,24.0,20.0,0.0,0.0
1084,80.0,0.0,20.0,0.0,0.0
1085,56.0,24.0,20.0,0.0,0.0
1086,78.0,24.0,40.0,0.0,0.0
1087,57.0,24.0,20.0,0.0,0.0
1088,56.0,0.0,20.0,0.0,0.0
1089,69.0,0.0,20.0,0.0,0.0
1090,57.0,24.0,20.0,0.0,0.0
1091,68.0,24.0,40.0,0.0,0.0
1092,59.0,24.0,20.0,0.0,0.0
1093,57.0,0.0,20.0,0.0,0.0
1094,59.0,24.0,20.0,0.0,0.0
1095,78.0,0.0,20.0,0.0,0.0
1096,61.0,24.0,20.0,0.0,0.0
1097,77.0,24.0,40.0,0.0,0.0
1098,59.0,0.0,20.0,0.0,0.0
1099,61.0,0.0,20.0,0.0,0.0
1100,62.0,24.0,40.0,0.0,0.0
1101,68.0,24.0,15.0,0.0,0.0
1102,66.0,0.0,20.0,0.0,0.0
1103,65.0,24.0,20.0,0.0,0.0
1104,66.0,24.0,20.0,0.0,0.0
1105,61.0,0.0,40.0,0.0,0.0
1106,68.0,24.0,20.0,0.0,0.0
1107,69.0,24.0,20.0,0.0,0.0
1108,59.0,24.0,40.0,0.0,0.0
1109,71.0,24.0,20.0,0.0,0.0
1110,73.0,0.0,20.0,0.0,0.0
1111,74.0,24.0,15.0,0.0,0.0
1112,59.0,0.0,20.0,0.0,0.0
1113,57.0,24.0,90.0,0.0,0.0
1114,73.0,24.0,20.0,0.0,0.0
1115,71.0,24.0,20.0,0.0,0.0
1116,73.0,24.0,20.0,0.0,0.0
1117,75.0,0.0,20.0,0.0,0.0
1118,56.0,24.0,20.0,0.0,0.0
1119,77.0,0.0,20.0,0.0,0.0
1120,78.0,24.0,20.0,0.0,0.0
1121,57.0,0.0,40.0,0.0,0.0
1122,80.0,24.0,20.0,0.0,0.0
1123,59.0,24.0,20.0,0.0,0.0
1124,81.0,0.0,15.0,0.0,0.0
1125,61.0,24.0,40.0,0.0,0.0
1126,78.0,0.0,20.0,0.0,0.0
1127,80.0,24.0,20.0,0.0,0.0
1128,71.0,0.0,20.0,0.0,0.0
1129,80.0,24.0,20.0,0.0,0.0
1130,69.0,0.0,40.0,0.0,0.0
1131,77.0,24.0,20.0,0.0,0.0
1132,61.0,0.0,20.0,0.0,0.0
1133,78.0,24.0,20.0,0.0,0.0
1134,59.0,24.0,40.0,0.0,0.0
1135,78.0,24.0,20.0,0.0,0.0
1136,75.0,0.0,20.0,0.0,0.0
1137,68.0,24.0,20.0,0.0,0.0
1138,76.0,0.0,15.0,0.0,0.0
1139,66.0,24.0,40.0,0.0,0.0
1140,73.0,0.0,20.0,0.0,0.0
1141,57.0,0.0,20.0,0.0,0.0
1142,56.0,0.0,40.0,0.0,0.0
1143,74.0,24.0,15.0,0.0,0.0
1144,71.0,24.0,20.0,0.0,0.0
1145,66.0,0.0,20.0,0.0,0.0
1146,65.0,0.0,40.0,0.0,0.0
1147,73.0,24.0,15.0,0.0,0.0
1148,69.0,24.0,20.0,0.0,0.0
1149,56.0,24.0,20.0,0.0,0.0
1150,71.0,0.0,20.0,0.0,0.0
1151,69.0,0.0,90.0,0.0,0.0
1152,56.0,24.0,20.0,0.0,0.0
1153,54.0,24.0,20.0,0.0,0.0
1154,53.0,24.0,20.0,0.0,0.0
1155,54.0,24.0,20.0,0.0,0.0
1156,56.0,0.0,20.0,0.0,0.0
1157,71.0,24.0,20.0,0.0,0.0
1158,57.0,0.0,20.0,0.0,0.0
1159,73.0,24.0,20.0,0.0,0.0
1160,59.0,24.0,20.0,0.0,0.0
1161,74.0,0.0,20.0,0.0,0.0
1162,73.0,24.0,20.0,0.0,0.0
1163,61.0,0.0,20.0,0.0,0.0
1164,71.0,24.0,20.0,0.0,0.0
1165,78.0,0.0,20.0,0.0,0.0
1166,62.0,0.0,15.0,0.0,0.0
1167,77.0,0.0,60.0,0.0,0.0
1168,61.0,24.0,20.0,0.0,0.0
1169,59.0,24.0,20.0,0.0,0.0
1170,61.0,24.0,20.0,0.0,0.0
1171,63.0,0.0,20.0,0.0,0.0
1172,78.0,24.0,20.0,0.0,0.0
1173,65.0,24.0,20.0,0.0,0.0
1174,80.0,0.0,20.0,0.0,0.0
1175,66.0,24.0,20.0,0.0,0.0
1176,81.0,0.0,20.0,0.0,0.0
1177,68.0,0.0,20.0,0.0,0.0
1178,80.0,24.0,20.0,0.0,0.0
1179,78.0,16.0,20.0,0.0,0.0
1180,69.0,0.0,15.0,0.0,0.0
1181,85.0,8.0,15.0,0.0,0.0
1182,84.0,16.0,15.0,0.0,0.0
1183,66.0,16.0,20.0,0.0,0.0
1184,85.0,0.0,15.0,0.0,0.0
1185,84.0,8.0,15.0,0.0,0.0
1186,85.0,16.0,15.0,0.0,0.0
1187,68.0,8.0,15.0,0.0,0.0
1188,84.0,0.0,15.0,0.0,0.0
1189,85.0,8.0,15.0,0.0,0.0
1190,65.0,8.0,20.0,0.0,0.0
1191,84.0,16.0,15.0,0.0,0.0
1192,85.0,16.0,15.0,0.0,0.0
1193,66.0,0.0,15.0,0.0,0.0
1194,84.0,8.0,15.0,0.0,0.0
1195,85.0,16.0,15.0,0.0,0.0
1196,63.0,0.0,20.0,0.0,0.0
1197,84.0,16.0,15.0,0.0,0.0
1198,64.0,24.0,20.0,0.0,0.0
1199,82.0,8.0,15.0,0.0,0.0
1200,84.0,0.0,15.0,0.0,0.0
1201,85.0,24.0,40.0,0.0,0.0
1202,64.0,24.0,20.0,0.0,0.0
1203,61.0,0.0,20.0,0.0,0.0
1204,62.0,24.0,20.0,0.0,0.0
1205,62.0,24.0,20.0,0.0,0.0
1206,59.0,24.0,20.0,0.0,0.0
1207,77.0,0.0,20.0,0.0,0.0
1208,78.0,24.0,40.0,0.0,0.0
1209,61.0,24.0,15.0,0.0,0.0
1210,57.0,0.0,20.0,0.0,0.0
1211,59.0,0.0,20.0,0.0,0.0
1212,80.0,24.0,20.0,0.0,0.0
1213,57.0,0.0,90.0,0.0,0.0
1214,73.0,24.0,20.0,0.0,0.0
1215,75.0,24.0,20.0,0.0,0.0
1216,77.0,24.0,20.0,0.0,0.0
1217,78.0,24.0,20.0,0.0,0.0
1218,59.0,24.0,20.0,0.0,0.0
1219,80.0,0.0,20.0,0.0,0.0
1220,81.0,0.0,20.0,0.0,0.0
1221,61.0,24.0,20.0,0.0,0.0
1222,62.0,24.0,20.0,0.0,0.0
1223,61.0,24.0,20.0,0.0,0.0
1224,59.0,24.0,20.0,0.0,0.0
1225,66.0,0.0,20.0,0.0,0.0
1226,71.0,0.0,15.0,0.0,0.0
1227,65.0,0.0,60.0,0.0,0.0
1228,83.0,24.0,20.0,0.0,0.0
1229,81.0,24.0,20.0,0.0,0.0
1230,80.0,24.0,20.0,0.0,0.0
1231,66.0,0.0,20.0,0.0,0.0
1232,78.0,24.0,20.0,0.0,0.0
1233,68.0,24.0,20.0,0.0,0.0
1234,77.0,0.0,20.0,0.0,0.0
1235,69.0,24.0,20.0,0.0,0.0
1236,78.0,16.0,60.0,0.0,0.0
1237,68.0,24.0,20.0,0.0,0.0
1238,66.0,0.0,20.0,0.0,0.0
1239,73.0,8.0,15.0,0.0,0.0
1240,78.0,8.0,20.0,0.0,0.0
1241,72.0,16.0,15.0,0.0,0.0
1242,75.0,16.0,20.0,0.0,0.0
1243,73.0,0.0,15.0,0.0,0.0
1244,72.0,8.0,15.0,0.0,0.0
1245,77.0,8.0,20.0,0.0,0.0
1246,73.0,16.0,15.0,0.0,0.0
1247,78.0,16.0,20.0,0.0,0.0
1248,72.0,0.0,15.0,0.0,0.0
1249,80.0,8.0,20.0,0.0,0.0
1250,73.0,8.0,15.0,0.0,0.0
1251,72.0,16.0,15.0,0.0,0.0
1252,81.0,0.0,20.0,0.0,0.0
1253,73.0,16.0,15.0,0.0,0.0
1254,72.0,8.0,15.0,0.0,0.0
1255,80.0,8.0,20.0,0.0,0.0
1256,73.0,16.0,15.0,0.0,0.0
1257,81.0,16.0,20.0,0.0,0.0
1258,72.0,0.0,15.0,0.0,0.0
1259,78.0,0.0,20.0,0.0,0.0
1260,70.0,8.0,15.0,0.0,0.0
1261,72.0,24.0,15.0,0.0,0.0
1262,77.0,24.0,20.0,0.0,0.0
1263,73.0,0.0,40.0,0.0,0.0
1264,78.0,24.0,20.0,0.0,0.0
1265,80.0,72.0,20.0,0.0,0.0
1266,73.0,24.0,90.0,0.0,0.0
1267,65.0,24.0,20.0,0.0,0.0
1268,66.0,24.0,40.0,0.0,0.0
1269,74.0,0.0,20.0,0.0,0.0
1270,68.0,24.0,20.0,0.0,0.0
1271,71.0,0.0,20.0,0.0,0.0
1272,69.0,24.0,20.0,0.0,0.0
1273,61.0,0.0,20.0,0.0,0.0
1274,63.0,24.0,20.0,0.0,0.0
1275,71.0,0.0,20.0,0.0,0.0
1276,68.0,0.0,20.0,0.0,0.0
1277,65.0,24.0,20.0,0.0,0.0
1278,69.0,0.0,20.0,0.0,0.0
1279,66.0,24.0,20.0,0.0,0.0
1280,73.0,24.0,20.0,0.0,0.0
1281,68.0,0.0,20.0,0.0,0.0
1282,69.0,0.0,20.0,0.0,0.0
1283,78.0,24.0,20.0,0.0,0.0
1284,76.0,24.0,20.0,0.0,0.0
1285,74.0,24.0,20.0,0.0,0.0
1286,73.0,0.0,20.0,0.0,0.0
1287,74.0,24.0,20.0,0.0,0.0
1288,59.0,24.0,15.0,0.0,0.0
1289,71.0,0.0,20.0,0.0,0.0
1290,78.0,24.0,20.0,0.0,0.0
1291,69.0,0.0,20.0,0.0,0.0
1292,83.0,24.0,20.0,0.0,0.0
1293,68.0,0.0,20.0,0.0,0.0
1294,77.0,24.0,20.0,0.0,0.0
1295,66.0,0.0,20.0,0.0,0.0
1296,80.0,24.0,20.0,0.0,0.0
1297,65.0,0.0,20.0,0.0,0.0
1298,73.0,24.0,20.0,0.0,0.0
1299,74.0,24.0,20.0,0.0,0.0
1300,73.0,24.0,20.0,0.0,0.0
1301,71.0,0.0,20.0,0.0,0.0
1302,66.0,24.0,15.0,0.0,0.0
1303,69.0,24.0,20.0,0.0,0.0
1304,71.0,0.0,20.0,0.0,0.0
1305,63.0,24.0,20.0,0.0,0.0
1306,65.0,24.0,20.0,0.0,0.0
1307,68.0,0.0,20.0,0.0,0.0
1308,66.0,24.0,20.0,0.0,0.0
1309,69.0,0.0,40.0,0.0,0.0
1310,68.0,24.0,20.0,0.0,0.0
1311,78.0,24.0,20.0,0.0,0.0
1312,69.0,0.0,20.0,0.0,0.0
1313,68.0,24.0,20.0,0.0,0.0
1314,71.0,24.0,40.0,0.0,0.0
1315,69.0,0.0,15.0,0.0,0.0
1316,66.0,0.0,20.0,0.0,0.0
1317,65.0,0.0,20.0,0.0,0.0
1318,68.0,24.0,20.0,0.0,0.0
1319,66.0,24.0,20.0,0.0,0.0
1320,73.0,0.0,20.0,0.0,0.0
1321,71.0,0.0,20.0,0.0,0.0
1322,68.0,24.0,20.0,0.0,0.0
1323,61.0,8.0,90.0,0.0,0.0
1324,69.0,24.0,20.0,0.0,0.0
1325,68.0,24.0,20.0,0.0,0.0
1326,66.0,16.0,20.0,0.0,0.0
1327,66.0,8.0,15.0,0.0,0.0
1328,65.0,16.0,15.0,0.0,0.0
1329,62.0,16.0,20.0,0.0,0.0
1330,66.0,0.0,15.0,0.0,0.0
1331,59.0,24.0,20.0,0.0,0.0
1332,65.0,8.0,15.0,0.0,0.0
1333,66.0,0.0,15.0,0.0,0.0
1334,57.0,24.0,20.0,0.0,0.0
1335,66.0,0.0,40.0,0.0,0.0
1336,59.0,24.0,20.0,0.0,0.0
1337,56.0,24.0,20.0,0.0,0.0
1338,57.0,24.0,20.0,0.0,0.0
1339,61.0,24.0,20.0,0.0,0.0
1340,66.0,24.0,20.0,0.0,0.0
1341,74.0,0.0,20.0,0.0,0.0
1342,73.0,24.0,40.0,0.0,0.0
1343,64.0,24.0,20.0,0.0,0.0
1344,62.0,0.0,20.0,0.0,0.0
1345,61.0,24.0,20.0,0.0,0.0
1346,81.0,0.0,20.0,0.0,0.0
1347,62.0,24.0,20.0,0.0,0.0
1348,71.0,0.0,20.0,0.0,0.0
1349,73.0,0.0,20.0,0.0,0.0
1350,66.0,24.0,20.0,0.0,0.0
1351,74.0,0.0,20.0,0.0,0.0
1352,71.0,24.0,20.0,0.0,0.0
1353,65.0,0.0,20.0,0.0,0.0
1354,73.0,24.0,20.0,0.0,0.0
1355,68.0,24.0,20.0,0.0,0.0
1356,77.0,0.0,20.0,0.0,0.0
1357,80.0,0.0,20.0,0.0,0.0
1358,61.0,24.0,20.0,0.0,0.0
1359,83.0,24.0,20.0,0.0,0.0
1360,62.0,0.0,20.0,0.0,0.0
1361,61.0,24.0,20.0,0.0,0.0
1362,81.0,0.0,20.0,0.0,0.0
1363,80.0,24.0,20.0,0.0,0.0
1364,59.0,0.0,20.0,0.0,0.0
1365,57.0,24.0,20.0,0.0,0.0
1366,85.0,24.0,40.0,0.0,0.0
1367,59.0,0.0,20.0,0.0,0.0
1368,56.0,24.0,20.0,0.0,0.0
1369,77.0,0.0,20.0,0.0,0.0
1370,57.0,0.0,40.0,0.0,0.0
1371,78.0,24.0,20.0,0.0,0.0
1372,80.0,24.0,20.0,0.0,0.0
1373,81.0,0.0,20.0,0.0,0.0
1374,66.0,24.0,20.0,0.0,0.0
1375,59.0,24.0,40.0,0.0,0.0
1376,74.0,24.0,20.0,0.0,0.0
1377,79.0,0.0,20.0,0.0,0.0
1378,78.0,24.0,20.0,0.0,0.0
1379,57.0,0.0,20.0,0.0,0.0
1380,56.0,0.0,20.0,0.0,0.0
1381,77.0,24.0,20.0,0.0,0.0
1382,78.0,0.0,20.0,0.0,0.0
1383,61.0,24.0,20.0,0.0,0.0
1384,80.0,0.0,20.0,0.0,0.0
1385,59.0,24.0,20.0,0.0,0.0
1386,57.0,24.0,20.0,0.0,0.0
1387,73.0,24.0,40.0,0.0,0.0
1388,56.0,0.0,20.0,0.0,0.0
1389,54.0,16.0,20.0,0.0,0.0
1390,54.0,8.0,15.0,0.0,0.0
1391,49.0,8.0,40.0,0.0,0.0
1392,53.0,8.0,15.0,0.0,0.0
1393,54.0,8.0,15.0,0.0,0.0
1394,53.0,8.0,15.0,0.0,0.0
1395,54.0,0.0,15.0,0.0,0.0
1396,53.0,8.0,15.0,0.0,0.0
1397,51.0,8.0,15.0,0.0,0.0
1398,53.0,144.0,15.0,0.0,0.0
1399,42.0,0.0,150.0,0.0,0.0
1400,54.0,72.0,150.0,0.0,0.0
