,note,step,duration,channel,velocity
0,62.0,0.0,1020.0,2.0,0.0
1,71.0,0.0,1020.0,1.0,0.0
2,59.0,1024.0,1020.0,3.0,0.0
3,78.0,0.0,1020.0,0.0,0.0
4,52.0,0.0,1020.0,3.0,0.0
5,62.0,0.0,1020.0,2.0,0.0
6,71.0,0.0,1020.0,1.0,0.0
7,79.0,512.0,1020.0,0.0,0.0
8,61.0,0.0,1020.0,2.0,0.0
9,69.0,0.0,1020.0,1.0,0.0
10,57.0,1024.0,1020.0,3.0,0.0
11,78.0,512.0,510.0,0.0,0.0
12,76.0,0.0,510.0,0.0,0.0
13,62.0,0.0,1020.0,2.0,0.0
14,78.0,0.0,1020.0,0.0,0.0
15,50.0,0.0,1020.0,3.0,0.0
16,69.0,512.0,1020.0,1.0,0.0
17,71.0,0.0,1020.0,0.0,0.0
18,62.0,0.0,1020.0,3.0,0.0
19,64.0,512.0,510.0,2.0,0.0
20,68.0,0.0,1020.0,1.0,0.0
21,66.0,512.0,510.0,2.0,0.0
22,76.0,0.0,2040.0,0.0,0.0
23,67.0,0.0,1020.0,2.0,0.0
24,70.0,0.0,510.0,1.0,0.0
25,61.0,512.0,510.0,3.0,0.0
26,71.0,1024.0,510.0,1.0,0.0
27,59.0,0.0,510.0,3.0,0.0
28,66.0,512.0,1530.0,2.0,0.0
29,73.0,0.0,1020.0,1.0,0.0
30,58.0,512.0,1020.0,3.0,0.0
31,59.0,0.0,1020.0,3.0,0.0
32,71.0,0.0,510.0,1.0,0.0
33,74.0,0.0,510.0,0.0,0.0
34,73.0,0.0,510.0,0.0,0.0
35,70.0,512.0,510.0,1.0,0.0
36,64.0,0.0,510.0,2.0,0.0
37,74.0,0.0,510.0,0.0,0.0
38,52.0,1024.0,1020.0,3.0,0.0
39,66.0,0.0,510.0,2.0,0.0
40,71.0,512.0,510.0,1.0,0.0
41,73.0,0.0,510.0,1.0,0.0
42,76.0,0.0,510.0,0.0,0.0
43,67.0,0.0,510.0,2.0,0.0
44,54.0,0.0,2040.0,3.0,0.0
45,73.0,0.0,2040.0,0.0,0.0
46,66.0,1024.0,1020.0,2.0,0.0
47,70.0,0.0,2040.0,1.0,0.0
48,64.0,1024.0,1020.0,2.0,0.0
49,71.0,0.0,1020.0,0.0,0.0
50,47.0,0.0,1020.0,3.0,0.0
51,66.0,0.0,1020.0,1.0,0.0
52,71.0,0.0,1020.0,1.0,0.0
53,78.0,0.0,1020.0,0.0,0.0
54,59.0,512.0,1020.0,3.0,0.0
55,62.0,1024.0,15.0,2.0,0.0
56,74.0,0.0,1020.0,1.0,0.0
57,64.0,0.0,510.0,2.0,0.0
58,79.0,0.0,510.0,0.0,0.0
59,59.0,512.0,510.0,3.0,0.0
60,81.0,0.0,510.0,0.0,0.0
61,66.0,1024.0,510.0,2.0,0.0
62,57.0,0.0,510.0,3.0,0.0
63,83.0,0.0,1020.0,0.0,0.0
64,74.0,1024.0,1020.0,1.0,0.0
65,55.0,0.0,1020.0,3.0,0.0
66,69.0,0.0,2040.0,1.0,0.0
67,73.0,0.0,1020.0,0.0,0.0
68,57.0,512.0,1530.0,3.0,0.0
69,67.0,0.0,15.0,2.0,0.0
70,66.0,0.0,1020.0,2.0,0.0
71,71.0,0.0,510.0,0.0,0.0
72,69.0,0.0,510.0,0.0,0.0
73,64.0,0.0,1020.0,2.0,0.0
74,81.0,0.0,1020.0,0.0,0.0
75,73.0,512.0,1020.0,1.0,0.0
76,55.0,512.0,15.0,3.0,0.0
77,54.0,0.0,510.0,3.0,0.0
78,54.0,0.0,510.0,3.0,0.0
79,81.0,0.0,510.0,0.0,0.0
80,74.0,512.0,510.0,1.0,0.0
81,66.0,0.0,1020.0,2.0,0.0
82,83.0,0.0,510.0,0.0,0.0
83,55.0,0.0,510.0,3.0,0.0
84,71.0,1024.0,510.0,1.0,0.0
85,57.0,0.0,2040.0,3.0,0.0
86,64.0,512.0,1020.0,2.0,0.0
87,79.0,512.0,1530.0,0.0,0.0
88,73.0,0.0,1530.0,1.0,0.0
89,74.0,0.0,510.0,1.0,0.0
90,74.0,1024.0,3060.0,1.0,0.0
91,78.0,0.0,15.0,0.0,0.0
92,69.0,3072.0,15.0,2.0,0.0
93,50.0,0.0,3060.0,3.0,0.0
94,62.0,512.0,1020.0,2.0,0.0
95,69.0,0.0,1020.0,1.0,0.0
96,78.0,0.0,1020.0,0.0,0.0
97,62.0,0.0,1020.0,3.0,0.0
98,69.0,512.0,1020.0,1.0,0.0
99,64.0,0.0,1020.0,2.0,0.0
100,61.0,0.0,1020.0,3.0,0.0
101,79.0,512.0,510.0,0.0,0.0
102,78.0,0.0,510.0,0.0,0.0
103,59.0,1024.0,1020.0,3.0,0.0
104,76.0,0.0,510.0,0.0,0.0
105,68.0,512.0,510.0,2.0,0.0
106,74.0,0.0,510.0,0.0,0.0
107,66.0,0.0,510.0,2.0,0.0
108,71.0,0.0,15.0,1.0,0.0
109,76.0,512.0,1020.0,0.0,0.0
110,64.0,0.0,1020.0,2.0,0.0
111,61.0,0.0,1020.0,3.0,0.0
112,62.0,0.0,510.0,3.0,0.0
113,66.0,512.0,510.0,2.0,0.0
114,69.0,0.0,1020.0,0.0,0.0
115,69.0,512.0,1020.0,1.0,0.0
116,64.0,0.0,510.0,2.0,0.0
117,61.0,0.0,510.0,3.0,0.0
118,68.0,512.0,510.0,1.0,0.0
119,62.0,0.0,510.0,2.0,0.0
120,59.0,0.0,510.0,3.0,0.0
121,74.0,512.0,2040.0,0.0,0.0
122,66.0,1024.0,510.0,1.0,0.0
123,57.0,0.0,510.0,3.0,0.0
124,61.0,0.0,510.0,2.0,0.0
125,59.0,0.0,1020.0,2.0,0.0
126,56.0,0.0,1020.0,3.0,0.0
127,64.0,512.0,1530.0,1.0,0.0
128,61.0,0.0,1020.0,2.0,0.0
129,57.0,0.0,1020.0,3.0,0.0
130,73.0,0.0,510.0,0.0,0.0
131,78.0,512.0,510.0,0.0,0.0
132,68.0,0.0,510.0,1.0,0.0
133,50.0,0.0,1020.0,3.0,0.0
134,66.0,0.0,1020.0,2.0,0.0
135,76.0,512.0,510.0,0.0,0.0
136,69.0,0.0,1020.0,1.0,0.0
137,74.0,1024.0,510.0,0.0,0.0
138,64.0,0.0,1020.0,2.0,0.0
139,52.0,0.0,2040.0,3.0,0.0
140,73.0,1024.0,1020.0,0.0,0.0
141,69.0,0.0,1020.0,1.0,0.0
142,68.0,0.0,1020.0,1.0,0.0
143,71.0,1024.0,1020.0,0.0,0.0
144,62.0,0.0,1020.0,2.0,0.0
145,64.0,0.0,1020.0,1.0,0.0
146,61.0,1024.0,1020.0,2.0,0.0
147,45.0,0.0,1020.0,3.0,0.0
148,69.0,0.0,1020.0,0.0,0.0
149,66.0,0.0,1020.0,1.0,0.0
150,54.0,1024.0,1020.0,3.0,0.0
151,81.0,0.0,1020.0,0.0,0.0
152,73.0,0.0,1020.0,2.0,0.0
153,80.0,0.0,1020.0,0.0,0.0
154,74.0,0.0,1020.0,1.0,0.0
155,71.0,1024.0,1020.0,2.0,0.0
156,59.0,0.0,1020.0,3.0,0.0
157,73.0,0.0,1020.0,1.0,0.0
158,78.0,0.0,1020.0,0.0,0.0
159,61.0,0.0,1020.0,3.0,0.0
160,69.0,512.0,1020.0,2.0,0.0
161,62.0,512.0,1020.0,3.0,0.0
162,83.0,0.0,1020.0,0.0,0.0
163,71.0,512.0,1530.0,1.0,0.0
164,68.0,512.0,510.0,2.0,0.0
165,66.0,0.0,510.0,2.0,0.0
166,68.0,0.0,1020.0,2.0,0.0
167,73.0,0.0,1020.0,0.0,0.0
168,53.0,512.0,1020.0,3.0,0.0
169,68.0,0.0,510.0,1.0,0.0
170,81.0,512.0,1530.0,0.0,0.0
171,54.0,512.0,1020.0,3.0,0.0
172,69.0,512.0,510.0,1.0,0.0
173,66.0,0.0,1530.0,2.0,0.0
174,71.0,0.0,510.0,1.0,0.0
175,73.0,0.0,510.0,1.0,0.0
176,59.0,0.0,1020.0,3.0,0.0
177,80.0,0.0,510.0,0.0,0.0
178,74.0,0.0,510.0,1.0,0.0
179,71.0,1024.0,510.0,2.0,0.0
180,61.0,0.0,1020.0,3.0,0.0
181,68.0,512.0,1020.0,2.0,0.0
182,77.0,512.0,1530.0,0.0,0.0
183,73.0,0.0,1020.0,1.0,0.0
184,73.0,0.0,1020.0,1.0,0.0
185,49.0,3072.0,1020.0,3.0,0.0
186,68.0,0.0,1020.0,2.0,0.0
187,78.0,0.0,510.0,0.0,0.0
188,70.0,0.0,3060.0,2.0,0.0
189,54.0,0.0,3060.0,3.0,0.0
190,78.0,512.0,3060.0,0.0,0.0
191,73.0,0.0,15.0,1.0,0.0
192,81.0,0.0,1020.0,0.0,0.0
193,54.0,512.0,510.0,3.0,0.0
194,66.0,0.0,1020.0,2.0,0.0
195,55.0,512.0,510.0,3.0,0.0
196,78.0,0.0,1020.0,0.0,0.0
197,61.0,0.0,510.0,2.0,0.0
198,69.0,0.0,1020.0,1.0,0.0
199,57.0,512.0,510.0,3.0,0.0
200,63.0,1024.0,510.0,2.0,0.0
201,59.0,0.0,510.0,3.0,0.0
202,64.0,0.0,1020.0,2.0,0.0
203,69.0,0.0,1020.0,1.0,0.0
204,60.0,512.0,1020.0,3.0,0.0
205,76.0,0.0,1020.0,0.0,0.0
206,59.0,0.0,2040.0,3.0,0.0
207,71.0,0.0,2040.0,1.0,0.0
208,75.0,1024.0,2040.0,0.0,0.0
209,66.0,512.0,510.0,2.0,0.0
210,67.0,1024.0,510.0,2.0,0.0
211,69.0,0.0,1020.0,2.0,0.0
212,61.0,0.0,1020.0,3.0,0.0
213,67.0,0.0,1020.0,2.0,0.0
214,76.0,512.0,1020.0,0.0,0.0
215,64.0,0.0,1020.0,1.0,0.0
216,66.0,256.0,510.0,2.0,0.0
217,63.0,1024.0,1020.0,3.0,0.0
218,81.0,0.0,510.0,0.0,0.0
219,72.0,0.0,510.0,1.0,0.0
220,83.0,256.0,270.0,0.0,0.0
221,67.0,0.0,270.0,2.0,0.0
222,71.0,0.0,270.0,1.0,0.0
223,69.0,0.0,270.0,2.0,0.0
224,69.0,0.0,270.0,1.0,0.0
225,84.0,0.0,270.0,0.0,0.0
226,76.0,1024.0,1020.0,1.0,0.0
227,83.0,0.0,1020.0,0.0,0.0
228,64.0,0.0,1020.0,3.0,0.0
229,67.0,0.0,1020.0,2.0,0.0
230,57.0,0.0,1020.0,3.0,0.0
231,81.0,0.0,1020.0,0.0,0.0
232,64.0,0.0,1020.0,2.0,0.0
233,72.0,1024.0,1020.0,1.0,0.0
234,79.0,0.0,1020.0,0.0,0.0
235,59.0,0.0,2040.0,3.0,0.0
236,64.0,512.0,1020.0,2.0,0.0
237,71.0,512.0,1530.0,1.0,0.0
238,78.0,0.0,1020.0,0.0,0.0
239,63.0,1024.0,1020.0,2.0,0.0
240,69.0,0.0,510.0,1.0,0.0
241,67.0,0.0,1020.0,1.0,0.0
242,76.0,0.0,1020.0,0.0,0.0
243,59.0,0.0,1020.0,2.0,0.0
244,64.0,512.0,510.0,2.0,0.0
245,79.0,512.0,1020.0,0.0,0.0
246,52.0,512.0,15.0,3.0,0.0
247,71.0,0.0,1020.0,1.0,0.0
248,63.0,0.0,510.0,2.0,0.0
249,64.0,0.0,510.0,2.0,0.0
250,71.0,512.0,510.0,1.0,0.0
251,81.0,0.0,510.0,0.0,0.0
252,79.0,512.0,510.0,0.0,0.0
253,66.0,0.0,510.0,2.0,0.0
254,74.0,0.0,510.0,1.0,0.0
255,67.0,512.0,1020.0,2.0,0.0
256,73.0,0.0,510.0,1.0,0.0
257,78.0,512.0,510.0,0.0,0.0
258,71.0,0.0,510.0,1.0,0.0
259,76.0,0.0,510.0,0.0,0.0
260,82.0,0.0,1020.0,0.0,0.0
261,73.0,0.0,1020.0,1.0,0.0
262,66.0,0.0,2040.0,2.0,0.0
263,64.0,512.0,15.0,3.0,0.0
264,83.0,0.0,1020.0,0.0,0.0
265,62.0,512.0,510.0,3.0,0.0
266,66.0,0.0,2040.0,1.0,0.0
267,61.0,512.0,510.0,3.0,0.0
268,59.0,512.0,510.0,3.0,0.0
269,71.0,512.0,1020.0,0.0,0.0
270,62.0,0.0,1020.0,2.0,0.0
271,57.0,0.0,510.0,3.0,0.0
272,55.0,512.0,510.0,3.0,0.0
273,71.0,0.0,3060.0,1.0,0.0
274,76.0,512.0,3570.0,0.0,0.0
275,54.0,512.0,510.0,3.0,0.0
276,57.0,512.0,510.0,3.0,0.0
277,55.0,512.0,510.0,3.0,0.0
278,54.0,512.0,510.0,3.0,0.0
279,52.0,0.0,510.0,3.0,0.0
280,73.0,0.0,1020.0,1.0,0.0
281,58.0,512.0,1020.0,3.0,0.0
282,67.0,512.0,15.0,2.0,0.0
283,79.0,0.0,510.0,0.0,0.0
284,58.0,0.0,510.0,2.0,0.0
285,74.0,0.0,510.0,1.0,0.0
286,78.0,512.0,510.0,0.0,0.0
287,54.0,0.0,2040.0,3.0,0.0
288,61.0,0.0,510.0,2.0,0.0
289,73.0,512.0,510.0,1.0,0.0
290,76.0,0.0,510.0,0.0,0.0
291,71.0,512.0,510.0,1.0,0.0
292,74.0,0.0,510.0,0.0,0.0
293,73.0,0.0,510.0,0.0,0.0
294,70.0,512.0,510.0,1.0,0.0
295,59.0,0.0,1530.0,3.0,0.0
296,71.0,0.0,2040.0,1.0,0.0
297,66.0,0.0,15.0,2.0,0.0
298,74.0,512.0,510.0,0.0,0.0
299,71.0,512.0,510.0,0.0,0.0
300,73.0,512.0,510.0,0.0,0.0
301,57.0,0.0,510.0,3.0,0.0
302,75.0,512.0,510.0,0.0,0.0
303,67.0,512.0,510.0,2.0,0.0
304,73.0,0.0,510.0,1.0,0.0
305,76.0,0.0,510.0,0.0,0.0
306,55.0,0.0,510.0,3.0,0.0
307,78.0,0.0,510.0,0.0,0.0
308,54.0,0.0,510.0,3.0,0.0
309,75.0,0.0,510.0,1.0,0.0
310,69.0,512.0,510.0,2.0,0.0
311,76.0,0.0,510.0,1.0,0.0
312,52.0,0.0,1530.0,3.0,0.0
313,71.0,512.0,510.0,2.0,0.0
314,79.0,0.0,510.0,0.0,0.0
315,76.0,0.0,510.0,0.0,0.0
316,74.0,512.0,510.0,1.0,0.0
317,69.0,0.0,510.0,2.0,0.0
318,82.0,0.0,510.0,0.0,0.0
319,67.0,256.0,510.0,2.0,0.0
320,73.0,0.0,510.0,1.0,0.0
321,71.0,0.0,510.0,1.0,0.0
322,50.0,0.0,510.0,3.0,0.0
323,83.0,256.0,270.0,0.0,0.0
324,66.0,512.0,510.0,2.0,0.0
325,85.0,0.0,270.0,0.0,0.0
326,52.0,512.0,510.0,3.0,0.0
327,73.0,0.0,1020.0,2.0,0.0
328,78.0,0.0,1530.0,0.0,0.0
329,70.0,512.0,1020.0,1.0,0.0
330,49.0,0.0,510.0,3.0,0.0
331,66.0,0.0,1020.0,2.0,0.0
332,50.0,512.0,510.0,3.0,0.0
333,79.0,512.0,510.0,0.0,0.0
334,52.0,0.0,510.0,3.0,0.0
335,66.0,512.0,510.0,2.0,0.0
336,54.0,0.0,2040.0,3.0,0.0
337,71.0,0.0,15.0,1.0,0.0
338,73.0,512.0,1530.0,0.0,0.0
339,62.0,512.0,510.0,2.0,0.0
340,64.0,0.0,1020.0,2.0,0.0
341,70.0,0.0,1020.0,1.0,0.0
342,63.0,0.0,3060.0,2.0,0.0
343,47.0,0.0,3060.0,3.0,0.0
344,66.0,0.0,3060.0,1.0,0.0
345,71.0,3072.0,15.0,0.0,0.0
