,note,step,duration,channel,velocity
0,70.0,0.0,1020.0,0.0,0.0
1,55.0,0.0,1020.0,2.0,0.0
2,51.0,0.0,1020.0,3.0,0.0
3,72.0,0.0,1020.0,0.0,0.0
4,56.0,512.0,510.0,2.0,0.0
5,63.0,512.0,15.0,1.0,0.0
6,44.0,0.0,1020.0,3.0,0.0
7,55.0,0.0,510.0,2.0,0.0
8,53.0,0.0,1020.0,2.0,0.0
9,62.0,0.0,1020.0,1.0,0.0
10,46.0,512.0,1020.0,3.0,0.0
11,70.0,512.0,510.0,0.0,0.0
12,68.0,0.0,510.0,0.0,0.0
13,60.0,0.0,1020.0,2.0,0.0
14,67.0,512.0,510.0,0.0,0.0
15,63.0,0.0,1020.0,1.0,0.0
16,48.0,512.0,1020.0,3.0,0.0
17,68.0,0.0,510.0,0.0,0.0
18,62.0,0.0,1020.0,1.0,0.0
19,70.0,0.0,1020.0,0.0,0.0
20,50.0,0.0,510.0,3.0,0.0
21,53.0,512.0,510.0,2.0,0.0
22,51.0,512.0,510.0,3.0,0.0
23,55.0,0.0,510.0,2.0,0.0
24,68.0,0.0,510.0,0.0,0.0
25,56.0,512.0,510.0,2.0,0.0
26,53.0,0.0,1020.0,3.0,0.0
27,60.0,0.0,510.0,1.0,0.0
28,63.0,512.0,1020.0,1.0,0.0
29,60.0,512.0,510.0,2.0,0.0
30,67.0,0.0,510.0,0.0,0.0
31,46.0,0.0,1020.0,3.0,0.0
32,68.0,0.0,1020.0,0.0,0.0
33,58.0,0.0,1020.0,2.0,0.0
34,62.0,1024.0,510.0,1.0,0.0
35,51.0,0.0,1020.0,3.0,0.0
36,58.0,0.0,1020.0,2.0,0.0
37,67.0,1024.0,1020.0,0.0,0.0
38,63.0,0.0,1020.0,1.0,0.0
39,65.0,0.0,1020.0,1.0,0.0
40,50.0,0.0,1020.0,3.0,0.0
41,65.0,0.0,1020.0,0.0,0.0
42,67.0,0.0,1020.0,0.0,0.0
43,58.0,512.0,15.0,2.0,0.0
44,63.0,512.0,1020.0,1.0,0.0
45,51.0,512.0,510.0,3.0,0.0
46,50.0,0.0,510.0,3.0,0.0
47,48.0,512.0,1020.0,3.0,0.0
48,68.0,0.0,1020.0,0.0,0.0
49,51.0,512.0,510.0,2.0,0.0
50,63.0,0.0,1020.0,1.0,0.0
51,53.0,0.0,510.0,2.0,0.0
52,70.0,0.0,1020.0,0.0,0.0
53,55.0,512.0,510.0,2.0,0.0
54,43.0,512.0,1020.0,3.0,0.0
55,51.0,0.0,510.0,2.0,0.0
56,68.0,512.0,510.0,0.0,0.0
57,63.0,0.0,15.0,1.0,0.0
58,44.0,0.0,1020.0,3.0,0.0
59,60.0,0.0,1020.0,2.0,0.0
60,67.0,512.0,510.0,0.0,0.0
61,46.0,1024.0,2040.0,3.0,0.0
62,53.0,512.0,510.0,2.0,0.0
63,65.0,0.0,510.0,0.0,0.0
64,63.0,0.0,1020.0,1.0,0.0
65,63.0,0.0,510.0,0.0,0.0
66,55.0,1024.0,510.0,2.0,0.0
67,56.0,0.0,1020.0,2.0,0.0
68,65.0,0.0,1020.0,0.0,0.0
69,62.0,0.0,1020.0,1.0,0.0
70,58.0,0.0,1020.0,1.0,0.0
71,63.0,1024.0,1020.0,0.0,0.0
72,39.0,0.0,1020.0,3.0,0.0
73,55.0,0.0,15.0,2.0,0.0
74,70.0,0.0,1020.0,0.0,0.0
75,51.0,0.0,1020.0,3.0,0.0
76,72.0,512.0,1020.0,0.0,0.0
77,63.0,0.0,15.0,1.0,0.0
78,56.0,512.0,510.0,2.0,0.0
79,44.0,0.0,1020.0,3.0,0.0
80,55.0,0.0,510.0,2.0,0.0
81,46.0,0.0,1020.0,3.0,0.0
82,53.0,0.0,1020.0,2.0,0.0
83,62.0,512.0,1020.0,1.0,0.0
84,70.0,512.0,510.0,0.0,0.0
85,68.0,0.0,510.0,0.0,0.0
86,60.0,0.0,1020.0,2.0,0.0
87,67.0,512.0,510.0,0.0,0.0
88,48.0,0.0,1020.0,3.0,0.0
89,63.0,512.0,1020.0,1.0,0.0
90,68.0,0.0,510.0,0.0,0.0
91,70.0,512.0,1020.0,0.0,0.0
92,62.0,0.0,1020.0,1.0,0.0
93,53.0,0.0,510.0,2.0,0.0
94,50.0,512.0,510.0,3.0,0.0
95,51.0,0.0,510.0,3.0,0.0
96,55.0,0.0,510.0,2.0,0.0
97,53.0,0.0,1020.0,3.0,0.0
98,68.0,512.0,510.0,0.0,0.0
99,56.0,0.0,510.0,2.0,0.0
100,60.0,0.0,510.0,1.0,0.0
101,60.0,0.0,510.0,2.0,0.0
102,63.0,512.0,1020.0,1.0,0.0
103,67.0,512.0,510.0,0.0,0.0
104,68.0,0.0,1020.0,0.0,0.0
105,46.0,1024.0,1020.0,3.0,0.0
106,58.0,0.0,1020.0,2.0,0.0
107,62.0,0.0,510.0,1.0,0.0
108,63.0,0.0,1020.0,1.0,0.0
109,51.0,0.0,1020.0,3.0,0.0
110,67.0,0.0,1020.0,0.0,0.0
111,50.0,512.0,510.0,3.0,0.0
112,65.0,0.0,1020.0,0.0,0.0
113,65.0,512.0,1020.0,1.0,0.0
114,58.0,512.0,15.0,2.0,0.0
115,67.0,0.0,1020.0,0.0,0.0
116,58.0,0.0,15.0,2.0,0.0
117,51.0,512.0,510.0,3.0,0.0
118,50.0,512.0,510.0,3.0,0.0
119,63.0,0.0,15.0,1.0,0.0
120,68.0,0.0,1020.0,0.0,0.0
121,48.0,0.0,1020.0,3.0,0.0
122,51.0,512.0,510.0,2.0,0.0
123,53.0,512.0,510.0,2.0,0.0
124,43.0,0.0,1020.0,3.0,0.0
125,63.0,0.0,1020.0,1.0,0.0
126,70.0,0.0,1020.0,0.0,0.0
127,55.0,512.0,510.0,2.0,0.0
128,51.0,512.0,510.0,2.0,0.0
129,60.0,0.0,1020.0,2.0,0.0
130,68.0,512.0,510.0,0.0,0.0
131,63.0,512.0,1020.0,1.0,0.0
132,44.0,0.0,1020.0,3.0,0.0
133,67.0,0.0,510.0,0.0,0.0
134,53.0,0.0,510.0,2.0,0.0
135,65.0,512.0,510.0,0.0,0.0
136,46.0,0.0,2040.0,3.0,0.0
137,63.0,0.0,1020.0,1.0,0.0
138,63.0,1024.0,510.0,0.0,0.0
139,55.0,0.0,510.0,2.0,0.0
140,65.0,0.0,1020.0,0.0,0.0
141,56.0,0.0,1020.0,2.0,0.0
142,62.0,1024.0,1020.0,1.0,0.0
143,39.0,0.0,1020.0,3.0,0.0
144,55.0,0.0,15.0,2.0,0.0
145,58.0,1024.0,15.0,1.0,0.0
146,51.0,0.0,1020.0,3.0,0.0
147,63.0,0.0,15.0,0.0,0.0
148,53.0,0.0,1020.0,2.0,0.0
149,50.0,0.0,1020.0,3.0,0.0
150,58.0,512.0,510.0,1.0,0.0
151,65.0,0.0,1020.0,0.0,0.0
152,60.0,512.0,510.0,1.0,0.0
153,58.0,0.0,1020.0,2.0,0.0
154,67.0,512.0,1020.0,0.0,0.0
155,48.0,512.0,510.0,3.0,0.0
156,62.0,0.0,1020.0,1.0,0.0
157,46.0,0.0,510.0,3.0,0.0
158,48.0,512.0,1020.0,3.0,0.0
159,51.0,0.0,1020.0,2.0,0.0
160,60.0,0.0,1020.0,1.0,0.0
161,68.0,512.0,510.0,0.0,0.0
162,67.0,0.0,510.0,0.0,0.0
163,65.0,0.0,1020.0,0.0,0.0
164,60.0,512.0,510.0,1.0,0.0
165,53.0,512.0,1530.0,2.0,0.0
166,50.0,0.0,1020.0,3.0,0.0
167,58.0,512.0,510.0,1.0,0.0
168,51.0,512.0,1020.0,3.0,0.0
169,67.0,0.0,1020.0,0.0,0.0
170,58.0,0.0,1020.0,1.0,0.0
171,51.0,512.0,1020.0,2.0,0.0
172,65.0,0.0,1020.0,0.0,0.0
173,56.0,0.0,1020.0,1.0,0.0
174,46.0,1024.0,1020.0,3.0,0.0
175,50.0,0.0,510.0,2.0,0.0
176,55.0,512.0,1020.0,1.0,0.0
177,39.0,0.0,1020.0,3.0,0.0
178,63.0,0.0,15.0,0.0,0.0
179,51.0,0.0,15.0,2.0,0.0
180,44.0,0.0,1020.0,3.0,0.0
181,60.0,512.0,1020.0,1.0,0.0
182,65.0,0.0,510.0,0.0,0.0
183,51.0,512.0,510.0,3.0,0.0
184,58.0,0.0,1020.0,1.0,0.0
185,67.0,512.0,1020.0,0.0,0.0
186,51.0,0.0,1020.0,2.0,0.0
187,49.0,0.0,510.0,3.0,0.0
188,60.0,0.0,1020.0,1.0,0.0
189,48.0,512.0,510.0,3.0,0.0
190,68.0,0.0,1020.0,0.0,0.0
191,46.0,0.0,510.0,3.0,0.0
192,44.0,512.0,510.0,3.0,0.0
193,61.0,0.0,1020.0,1.0,0.0
194,70.0,512.0,1020.0,0.0,0.0
195,51.0,512.0,15.0,2.0,0.0
196,43.0,0.0,510.0,3.0,0.0
197,51.0,0.0,15.0,2.0,0.0
198,72.0,0.0,1020.0,0.0,0.0
199,44.0,0.0,510.0,3.0,0.0
200,60.0,512.0,510.0,1.0,0.0
201,46.0,0.0,510.0,3.0,0.0
202,62.0,0.0,510.0,1.0,0.0
203,67.0,512.0,1020.0,0.0,0.0
204,51.0,512.0,15.0,2.0,0.0
205,48.0,0.0,1020.0,3.0,0.0
206,63.0,256.0,510.0,1.0,0.0
207,62.0,0.0,510.0,1.0,0.0
208,53.0,256.0,15.0,2.0,0.0
209,69.0,0.0,1020.0,0.0,0.0
210,41.0,0.0,1020.0,3.0,0.0
211,53.0,0.0,1020.0,2.0,0.0
212,63.0,512.0,510.0,1.0,0.0
213,65.0,1024.0,510.0,1.0,0.0
214,62.0,0.0,1020.0,1.0,0.0
215,46.0,0.0,1020.0,3.0,0.0
216,70.0,512.0,1020.0,0.0,0.0
217,53.0,0.0,1020.0,2.0,0.0
218,51.0,0.0,1020.0,2.0,0.0
219,51.0,0.0,510.0,3.0,0.0
220,67.0,512.0,510.0,0.0,0.0
221,58.0,0.0,1020.0,1.0,0.0
222,53.0,512.0,510.0,3.0,0.0
223,68.0,0.0,510.0,0.0,0.0
224,55.0,0.0,1020.0,3.0,0.0
225,70.0,0.0,1020.0,0.0,0.0
226,51.0,512.0,510.0,2.0,0.0
227,58.0,0.0,510.0,2.0,0.0
228,56.0,0.0,1020.0,3.0,0.0
229,72.0,512.0,1020.0,0.0,0.0
230,63.0,512.0,15.0,1.0,0.0
231,56.0,512.0,510.0,2.0,0.0
232,55.0,0.0,510.0,2.0,0.0
233,53.0,0.0,1020.0,2.0,0.0
234,65.0,1024.0,1020.0,1.0,0.0
235,50.0,0.0,1020.0,3.0,0.0
236,70.0,512.0,510.0,0.0,0.0
237,68.0,0.0,510.0,0.0,0.0
238,52.0,0.0,1020.0,3.0,0.0
239,67.0,0.0,1020.0,0.0,0.0
240,67.0,0.0,1020.0,1.0,0.0
241,53.0,1024.0,1020.0,3.0,0.0
242,68.0,1024.0,2040.0,0.0,0.0
243,60.0,512.0,15.0,2.0,0.0
244,67.0,512.0,510.0,1.0,0.0
245,64.0,0.0,510.0,1.0,0.0
246,41.0,0.0,1020.0,3.0,0.0
247,65.0,0.0,1020.0,1.0,0.0
248,64.0,0.0,1020.0,1.0,0.0
249,67.0,512.0,1020.0,0.0,0.0
250,60.0,0.0,15.0,2.0,0.0
251,48.0,0.0,1020.0,3.0,0.0
252,60.0,0.0,15.0,2.0,0.0
253,72.0,0.0,1020.0,0.0,0.0
254,40.0,0.0,1020.0,3.0,0.0
255,67.0,0.0,1020.0,1.0,0.0
256,58.0,512.0,510.0,2.0,0.0
257,41.0,512.0,510.0,3.0,0.0
258,65.0,0.0,1020.0,1.0,0.0
259,72.0,0.0,1020.0,0.0,0.0
260,56.0,0.0,510.0,2.0,0.0
261,43.0,512.0,510.0,3.0,0.0
262,55.0,0.0,510.0,2.0,0.0
263,72.0,0.0,1020.0,0.0,0.0
264,44.0,0.0,510.0,3.0,0.0
265,60.0,512.0,510.0,1.0,0.0
266,53.0,0.0,1530.0,2.0,0.0
267,41.0,0.0,510.0,3.0,0.0
268,56.0,0.0,510.0,1.0,0.0
269,65.0,512.0,1020.0,0.0,0.0
270,49.0,0.0,1020.0,3.0,0.0
271,58.0,512.0,510.0,1.0,0.0
272,52.0,0.0,510.0,2.0,0.0
273,60.0,0.0,510.0,1.0,0.0
274,53.0,512.0,510.0,2.0,0.0
275,61.0,0.0,1020.0,1.0,0.0
276,70.0,512.0,1020.0,0.0,0.0
277,48.0,0.0,510.0,3.0,0.0
278,55.0,0.0,510.0,2.0,0.0
279,46.0,0.0,510.0,3.0,0.0
280,48.0,512.0,1020.0,3.0,0.0
281,60.0,0.0,1020.0,1.0,0.0
282,68.0,0.0,1020.0,0.0,0.0
283,52.0,512.0,510.0,2.0,0.0
284,53.0,512.0,1020.0,2.0,0.0
285,58.0,0.0,1020.0,1.0,0.0
286,67.0,0.0,1020.0,0.0,0.0
287,36.0,0.0,1020.0,3.0,0.0
288,52.0,1024.0,510.0,2.0,0.0
289,56.0,0.0,1020.0,1.0,0.0
290,65.0,0.0,1020.0,0.0,0.0
291,41.0,0.0,1020.0,3.0,0.0
292,53.0,512.0,1020.0,2.0,0.0
293,65.0,0.0,1020.0,1.0,0.0
294,41.0,512.0,1020.0,3.0,0.0
295,68.0,0.0,1020.0,0.0,0.0
296,48.0,512.0,510.0,2.0,0.0
297,50.0,0.0,510.0,2.0,0.0
298,67.0,0.0,1020.0,0.0,0.0
299,58.0,0.0,510.0,1.0,0.0
300,51.0,512.0,1020.0,2.0,0.0
301,43.0,512.0,510.0,3.0,0.0
302,45.0,0.0,510.0,3.0,0.0
303,60.0,0.0,510.0,1.0,0.0
304,65.0,0.0,1020.0,0.0,0.0
305,46.0,0.0,2040.0,3.0,0.0
306,58.0,512.0,510.0,2.0,0.0
307,61.0,0.0,1020.0,1.0,0.0
308,56.0,512.0,510.0,2.0,0.0
309,60.0,512.0,510.0,1.0,0.0
310,54.0,0.0,1020.0,2.0,0.0
311,63.0,512.0,1020.0,0.0,0.0
312,58.0,0.0,510.0,1.0,0.0
313,60.0,512.0,1530.0,1.0,0.0
314,53.0,0.0,1020.0,2.0,0.0
315,45.0,512.0,1020.0,3.0,0.0
316,65.0,512.0,510.0,0.0,0.0
317,63.0,0.0,510.0,0.0,0.0
318,46.0,512.0,1020.0,3.0,0.0
319,61.0,0.0,1020.0,0.0,0.0
320,53.0,0.0,1020.0,2.0,0.0
321,58.0,512.0,1020.0,1.0,0.0
322,41.0,0.0,1020.0,3.0,0.0
323,60.0,0.0,1020.0,0.0,0.0
324,51.0,0.0,1020.0,2.0,0.0
325,57.0,1024.0,510.0,1.0,0.0
326,58.0,512.0,1020.0,1.0,0.0
327,58.0,0.0,1020.0,0.0,0.0
328,50.0,0.0,1020.0,2.0,0.0
329,46.0,0.0,1020.0,3.0,0.0
330,58.0,0.0,1020.0,0.0,0.0
331,50.0,0.0,1020.0,2.0,0.0
332,43.0,0.0,1020.0,3.0,0.0
333,58.0,512.0,510.0,1.0,0.0
334,56.0,512.0,510.0,1.0,0.0
335,55.0,512.0,510.0,1.0,0.0
336,48.0,0.0,1020.0,3.0,0.0
337,51.0,0.0,1020.0,2.0,0.0
338,63.0,512.0,1020.0,0.0,0.0
339,53.0,0.0,510.0,1.0,0.0
340,46.0,0.0,1020.0,3.0,0.0
341,65.0,0.0,1020.0,0.0,0.0
342,51.0,512.0,510.0,1.0,0.0
343,49.0,0.0,510.0,1.0,0.0
344,51.0,512.0,510.0,3.0,0.0
345,51.0,0.0,1020.0,1.0,0.0
346,58.0,512.0,15.0,2.0,0.0
347,67.0,512.0,1530.0,0.0,0.0
348,50.0,0.0,510.0,3.0,0.0
349,63.0,0.0,1020.0,1.0,0.0
350,60.0,512.0,1020.0,2.0,0.0
351,48.0,0.0,1020.0,3.0,0.0
352,68.0,0.0,510.0,0.0,0.0
353,70.0,0.0,1020.0,0.0,0.0
354,43.0,512.0,510.0,3.0,0.0
355,62.0,512.0,1020.0,1.0,0.0
356,58.0,0.0,2040.0,2.0,0.0
357,41.0,0.0,510.0,3.0,0.0
358,39.0,512.0,1020.0,3.0,0.0
359,63.0,0.0,1020.0,1.0,0.0
360,68.0,512.0,510.0,0.0,0.0
361,67.0,0.0,510.0,0.0,0.0
362,65.0,0.0,1020.0,0.0,0.0
363,44.0,512.0,510.0,3.0,0.0
364,60.0,0.0,510.0,2.0,0.0
365,43.0,0.0,510.0,3.0,0.0
366,58.0,512.0,510.0,2.0,0.0
367,63.0,0.0,15.0,1.0,0.0
368,67.0,512.0,510.0,0.0,0.0
369,41.0,0.0,1020.0,3.0,0.0
370,56.0,512.0,1020.0,2.0,0.0
371,68.0,0.0,510.0,0.0,0.0
372,46.0,0.0,510.0,3.0,0.0
373,65.0,0.0,2040.0,0.0,0.0
374,58.0,512.0,510.0,2.0,0.0
375,44.0,512.0,510.0,3.0,0.0
376,60.0,0.0,510.0,2.0,0.0
377,58.0,512.0,510.0,2.0,0.0
378,46.0,0.0,1020.0,3.0,0.0
379,62.0,0.0,1020.0,1.0,0.0
380,56.0,1024.0,510.0,2.0,0.0
381,39.0,0.0,1020.0,3.0,0.0
382,58.0,0.0,1020.0,1.0,0.0
383,63.0,0.0,1020.0,0.0,0.0
384,55.0,0.0,1020.0,2.0,0.0
