,note,step,duration,channel,velocity
0,61.0,0.0,180.0,10.0,0.0
1,68.0,54.0,90.0,6.0,0.0
2,65.0,0.0,90.0,3.0,0.0
3,53.0,0.0,180.0,5.0,0.0
4,65.0,0.0,90.0,8.0,0.0
5,53.0,6.0,180.0,11.0,0.0
6,61.0,0.0,180.0,4.0,0.0
7,53.0,0.0,180.0,13.0,0.0
8,41.0,0.0,180.0,12.0,0.0
9,68.0,0.0,90.0,7.0,0.0
10,49.0,0.0,90.0,0.0,0.0
11,68.0,0.0,90.0,13.0,0.0
12,61.0,0.0,90.0,13.0,0.0
13,68.0,0.0,90.0,2.0,0.0
14,68.0,0.0,90.0,8.0,0.0
15,71.0,0.0,90.0,6.0,0.0
16,49.0,42.0,30.0,0.0,0.0
17,59.0,0.0,90.0,13.0,0.0
18,71.0,0.0,90.0,7.0,0.0
19,71.0,0.0,90.0,2.0,0.0
20,68.0,0.0,90.0,13.0,0.0
21,68.0,0.0,90.0,3.0,0.0
22,49.0,48.0,30.0,0.0,0.0
23,54.0,0.0,90.0,11.0,0.0
24,61.0,0.0,90.0,10.0,0.0
25,61.0,0.0,90.0,4.0,0.0
26,61.0,0.0,90.0,13.0,0.0
27,70.0,6.0,90.0,7.0,0.0
28,70.0,0.0,90.0,13.0,0.0
29,54.0,0.0,90.0,13.0,0.0
30,42.0,0.0,90.0,12.0,0.0
31,49.0,42.0,30.0,0.0,0.0
32,66.0,0.0,90.0,3.0,0.0
33,70.0,0.0,90.0,6.0,0.0
34,54.0,0.0,90.0,5.0,0.0
35,66.0,0.0,90.0,8.0,0.0
36,70.0,0.0,90.0,2.0,0.0
37,49.0,16.0,30.0,0.0,0.0
38,59.0,0.0,90.0,4.0,0.0
39,61.0,12.0,15.0,10.0,0.0
40,68.0,0.0,90.0,6.0,0.0
41,68.0,0.0,90.0,7.0,0.0
42,49.0,0.0,90.0,1.0,0.0
43,65.0,0.0,90.0,13.0,0.0
44,71.0,0.0,90.0,13.0,0.0
45,56.0,0.0,90.0,13.0,0.0
46,68.0,0.0,90.0,2.0,0.0
47,44.0,0.0,90.0,12.0,0.0
48,65.0,0.0,90.0,3.0,0.0
49,56.0,0.0,90.0,5.0,0.0
50,49.0,0.0,90.0,0.0,0.0
51,56.0,0.0,90.0,11.0,0.0
52,65.0,10.0,90.0,8.0,0.0
53,59.0,12.0,15.0,10.0,0.0
54,61.0,12.0,15.0,10.0,0.0
55,59.0,12.0,15.0,10.0,0.0
56,61.0,12.0,15.0,10.0,0.0
57,59.0,12.0,15.0,10.0,0.0
58,61.0,2.0,15.0,10.0,0.0
59,59.0,44.0,15.0,10.0,0.0
60,66.0,0.0,30.0,7.0,0.0
61,71.0,0.0,90.0,13.0,0.0
62,59.0,0.0,90.0,13.0,0.0
63,59.0,0.0,90.0,11.0,0.0
64,66.0,0.0,90.0,13.0,0.0
65,61.0,0.0,90.0,3.0,0.0
66,47.0,0.0,90.0,12.0,0.0
67,59.0,0.0,90.0,5.0,0.0
68,61.0,6.0,90.0,8.0,0.0
69,58.0,0.0,30.0,10.0,0.0
70,66.0,0.0,30.0,6.0,0.0
71,49.0,0.0,30.0,1.0,0.0
72,58.0,42.0,30.0,4.0,0.0
73,66.0,0.0,30.0,2.0,0.0
74,65.0,0.0,30.0,6.0,0.0
75,49.0,0.0,30.0,1.0,0.0
76,56.0,0.0,30.0,4.0,0.0
77,65.0,0.0,30.0,7.0,0.0
78,65.0,48.0,30.0,2.0,0.0
79,56.0,0.0,30.0,10.0,0.0
80,58.0,0.0,90.0,5.0,0.0
81,66.0,0.0,90.0,2.0,0.0
82,49.0,42.0,30.0,1.0,0.0
83,66.0,0.0,90.0,13.0,0.0
84,58.0,0.0,90.0,13.0,0.0
85,58.0,0.0,90.0,10.0,0.0
86,61.0,0.0,90.0,3.0,0.0
87,46.0,6.0,90.0,12.0,0.0
88,66.0,0.0,90.0,7.0,0.0
89,58.0,0.0,90.0,11.0,0.0
90,66.0,0.0,90.0,6.0,0.0
91,58.0,0.0,90.0,4.0,0.0
92,61.0,0.0,90.0,8.0,0.0
93,49.0,90.0,30.0,1.0,0.0
94,65.0,0.0,90.0,13.0,0.0
95,49.0,0.0,90.0,0.0,0.0
96,68.0,0.0,90.0,7.0,0.0
97,56.0,0.0,90.0,5.0,0.0
98,68.0,0.0,90.0,6.0,0.0
99,56.0,0.0,90.0,11.0,0.0
100,44.0,0.0,90.0,12.0,0.0
101,65.0,54.0,90.0,3.0,0.0
102,71.0,0.0,90.0,13.0,0.0
103,56.0,0.0,90.0,13.0,0.0
104,68.0,0.0,90.0,2.0,0.0
105,65.0,0.0,90.0,8.0,0.0
106,59.0,0.0,90.0,4.0,0.0
107,59.0,0.0,90.0,10.0,0.0
108,49.0,0.0,90.0,1.0,0.0
109,68.0,0.0,90.0,3.0,0.0
110,54.0,0.0,30.0,11.0,0.0
111,42.0,0.0,30.0,12.0,0.0
112,54.0,42.0,30.0,5.0,0.0
113,71.0,0.0,90.0,6.0,0.0
114,56.0,0.0,90.0,10.0,0.0
115,54.0,0.0,30.0,13.0,0.0
116,56.0,0.0,90.0,4.0,0.0
117,49.0,0.0,30.0,0.0,0.0
118,68.0,6.0,90.0,8.0,0.0
119,59.0,0.0,90.0,13.0,0.0
120,71.0,0.0,90.0,7.0,0.0
121,71.0,0.0,90.0,2.0,0.0
122,68.0,0.0,90.0,13.0,0.0
123,53.0,0.0,30.0,11.0,0.0
124,53.0,0.0,30.0,13.0,0.0
125,41.0,0.0,30.0,12.0,0.0
126,49.0,0.0,30.0,0.0,0.0
127,53.0,48.0,30.0,5.0,0.0
128,49.0,42.0,30.0,0.0,0.0
129,66.0,0.0,90.0,8.0,0.0
130,70.0,0.0,90.0,2.0,0.0
131,42.0,0.0,90.0,12.0,0.0
132,54.0,0.0,90.0,11.0,0.0
133,54.0,0.0,90.0,5.0,0.0
134,61.0,0.0,90.0,10.0,0.0
135,70.0,6.0,90.0,6.0,0.0
136,61.0,0.0,90.0,13.0,0.0
137,70.0,0.0,90.0,7.0,0.0
138,61.0,0.0,90.0,4.0,0.0
139,66.0,0.0,90.0,3.0,0.0
140,54.0,0.0,90.0,13.0,0.0
141,70.0,0.0,90.0,13.0,0.0
142,49.0,16.0,30.0,0.0,0.0
143,53.0,0.0,90.0,5.0,0.0
144,49.0,0.0,90.0,1.0,0.0
145,68.0,0.0,90.0,3.0,0.0
146,70.0,0.0,15.0,6.0,0.0
147,70.0,0.0,15.0,7.0,0.0
148,70.0,12.0,15.0,2.0,0.0
149,61.0,6.0,180.0,10.0,0.0
150,61.0,0.0,90.0,13.0,0.0
151,68.0,10.0,90.0,13.0,0.0
152,53.0,0.0,90.0,13.0,0.0
153,41.0,0.0,90.0,12.0,0.0
154,53.0,0.0,90.0,11.0,0.0
155,49.0,0.0,90.0,0.0,0.0
156,61.0,0.0,180.0,4.0,0.0
157,68.0,0.0,90.0,8.0,0.0
158,68.0,0.0,15.0,7.0,0.0
159,68.0,12.0,15.0,6.0,0.0
160,68.0,0.0,15.0,2.0,0.0
161,70.0,0.0,15.0,2.0,0.0
162,70.0,12.0,15.0,6.0,0.0
163,70.0,0.0,15.0,7.0,0.0
164,68.0,0.0,15.0,6.0,0.0
165,68.0,12.0,15.0,7.0,0.0
166,68.0,0.0,15.0,2.0,0.0
167,70.0,12.0,15.0,7.0,0.0
168,70.0,0.0,15.0,6.0,0.0
169,70.0,0.0,15.0,2.0,0.0
170,68.0,0.0,15.0,7.0,0.0
171,68.0,0.0,15.0,6.0,0.0
172,68.0,12.0,15.0,2.0,0.0
173,70.0,0.0,15.0,6.0,0.0
174,70.0,2.0,15.0,2.0,0.0
175,70.0,0.0,15.0,7.0,0.0
176,68.0,0.0,15.0,6.0,0.0
177,68.0,12.0,15.0,2.0,0.0
178,68.0,0.0,15.0,7.0,0.0
179,49.0,0.0,30.0,1.0,0.0
180,66.0,0.0,90.0,3.0,0.0
181,70.0,0.0,15.0,7.0,0.0
182,54.0,0.0,30.0,11.0,0.0
183,70.0,12.0,15.0,2.0,0.0
184,70.0,0.0,15.0,6.0,0.0
185,61.0,0.0,90.0,13.0,0.0
186,54.0,4.0,30.0,13.0,0.0
187,42.0,0.0,30.0,12.0,0.0
188,54.0,0.0,30.0,5.0,0.0
189,66.0,0.0,90.0,8.0,0.0
190,66.0,0.0,90.0,13.0,0.0
191,68.0,0.0,15.0,7.0,0.0
192,68.0,12.0,15.0,2.0,0.0
193,68.0,0.0,15.0,6.0,0.0
194,70.0,0.0,15.0,2.0,0.0
195,70.0,8.0,15.0,7.0,0.0
196,70.0,0.0,15.0,6.0,0.0
197,68.0,0.0,15.0,6.0,0.0
198,68.0,12.0,15.0,2.0,0.0
199,68.0,0.0,15.0,7.0,0.0
200,41.0,0.0,30.0,12.0,0.0
201,53.0,0.0,30.0,13.0,0.0
202,49.0,0.0,30.0,1.0,0.0
203,70.0,0.0,15.0,6.0,0.0
204,70.0,12.0,15.0,7.0,0.0
205,70.0,0.0,15.0,2.0,0.0
206,53.0,4.0,30.0,5.0,0.0
207,53.0,0.0,30.0,11.0,0.0
208,68.0,0.0,15.0,2.0,0.0
209,68.0,12.0,15.0,6.0,0.0
210,68.0,0.0,15.0,7.0,0.0
211,70.0,0.0,15.0,7.0,0.0
212,70.0,2.0,15.0,2.0,0.0
213,70.0,0.0,15.0,6.0,0.0
214,68.0,0.0,15.0,6.0,0.0
215,68.0,0.0,15.0,2.0,0.0
216,68.0,44.0,15.0,7.0,0.0
217,49.0,42.0,30.0,1.0,0.0
218,65.0,0.0,90.0,3.0,0.0
219,73.0,0.0,90.0,6.0,0.0
220,65.0,6.0,90.0,8.0,0.0
221,73.0,0.0,90.0,7.0,0.0
222,56.0,0.0,90.0,10.0,0.0
223,56.0,0.0,90.0,4.0,0.0
224,56.0,0.0,90.0,13.0,0.0
225,65.0,0.0,90.0,13.0,0.0
226,51.0,0.0,30.0,13.0,0.0
227,51.0,0.0,30.0,5.0,0.0
228,39.0,0.0,30.0,12.0,0.0
229,51.0,0.0,30.0,11.0,0.0
230,73.0,0.0,90.0,2.0,0.0
231,37.0,0.0,30.0,12.0,0.0
232,49.0,0.0,30.0,5.0,0.0
233,49.0,16.0,30.0,11.0,0.0
234,49.0,0.0,30.0,1.0,0.0
235,49.0,0.0,30.0,13.0,0.0
236,56.0,0.0,90.0,0.0,0.0
237,56.0,0.0,180.0,4.0,0.0
238,48.0,0.0,180.0,5.0,0.0
239,68.0,0.0,90.0,13.0,0.0
240,49.0,0.0,15.0,13.0,0.0
241,63.0,0.0,90.0,13.0,0.0
242,56.0,0.0,180.0,10.0,0.0
243,49.0,0.0,15.0,11.0,0.0
244,63.0,6.0,180.0,8.0,0.0
245,37.0,12.0,15.0,12.0,0.0
246,66.0,0.0,90.0,7.0,0.0
247,66.0,0.0,90.0,2.0,0.0
248,63.0,0.0,180.0,3.0,0.0
249,56.0,10.0,90.0,1.0,0.0
250,66.0,0.0,90.0,6.0,0.0
251,48.0,12.0,15.0,11.0,0.0
252,48.0,0.0,15.0,13.0,0.0
253,36.0,0.0,15.0,12.0,0.0
254,49.0,12.0,15.0,13.0,0.0
255,37.0,0.0,15.0,12.0,0.0
256,49.0,0.0,15.0,11.0,0.0
257,36.0,12.0,15.0,12.0,0.0
258,48.0,0.0,15.0,13.0,0.0
259,48.0,0.0,15.0,11.0,0.0
260,49.0,0.0,15.0,11.0,0.0
261,49.0,12.0,15.0,13.0,0.0
262,37.0,0.0,15.0,12.0,0.0
263,48.0,0.0,15.0,13.0,0.0
264,36.0,0.0,15.0,12.0,0.0
265,48.0,12.0,15.0,11.0,0.0
266,37.0,0.0,15.0,12.0,0.0
267,49.0,2.0,15.0,13.0,0.0
268,49.0,0.0,15.0,11.0,0.0
269,36.0,12.0,15.0,12.0,0.0
270,48.0,0.0,15.0,13.0,0.0
271,48.0,0.0,15.0,11.0,0.0
272,56.0,0.0,90.0,13.0,0.0
273,56.0,4.0,30.0,0.0,0.0
274,63.0,0.0,90.0,2.0,0.0
275,49.0,0.0,15.0,13.0,0.0
276,63.0,0.0,90.0,13.0,0.0
277,63.0,0.0,90.0,7.0,0.0
278,37.0,0.0,15.0,12.0,0.0
279,63.0,0.0,90.0,6.0,0.0
280,49.0,12.0,15.0,11.0,0.0
281,48.0,12.0,15.0,13.0,0.0
282,48.0,0.0,15.0,11.0,0.0
283,36.0,0.0,15.0,12.0,0.0
284,37.0,8.0,15.0,12.0,0.0
285,49.0,0.0,15.0,13.0,0.0
286,49.0,0.0,15.0,11.0,0.0
287,48.0,0.0,15.0,13.0,0.0
288,48.0,0.0,15.0,11.0,0.0
289,36.0,12.0,15.0,12.0,0.0
290,49.0,0.0,15.0,11.0,0.0
291,49.0,12.0,15.0,13.0,0.0
292,56.0,4.0,30.0,0.0,0.0
293,37.0,0.0,15.0,12.0,0.0
294,48.0,0.0,15.0,11.0,0.0
295,36.0,12.0,15.0,12.0,0.0
296,48.0,0.0,15.0,13.0,0.0
297,49.0,0.0,15.0,13.0,0.0
298,37.0,2.0,15.0,12.0,0.0
299,49.0,0.0,15.0,11.0,0.0
300,48.0,0.0,15.0,13.0,0.0
301,36.0,0.0,15.0,12.0,0.0
302,48.0,44.0,15.0,11.0,0.0
303,56.0,42.0,30.0,0.0,0.0
304,56.0,0.0,90.0,13.0,0.0
305,65.0,0.0,90.0,6.0,0.0
306,49.0,0.0,90.0,13.0,0.0
307,37.0,0.0,90.0,12.0,0.0
308,56.0,0.0,90.0,10.0,0.0
309,65.0,0.0,90.0,2.0,0.0
310,65.0,0.0,90.0,13.0,0.0
311,61.0,6.0,90.0,3.0,0.0
312,65.0,0.0,90.0,7.0,0.0
313,49.0,0.0,90.0,11.0,0.0
314,56.0,0.0,90.0,4.0,0.0
315,49.0,0.0,90.0,5.0,0.0
316,61.0,0.0,90.0,8.0,0.0
317,56.0,48.0,30.0,0.0,0.0
318,51.0,0.0,90.0,5.0,0.0
319,66.0,0.0,90.0,2.0,0.0
320,51.0,0.0,90.0,13.0,0.0
321,51.0,0.0,90.0,10.0,0.0
322,51.0,0.0,90.0,11.0,0.0
323,66.0,0.0,90.0,6.0,0.0
324,60.0,0.0,90.0,4.0,0.0
325,66.0,0.0,90.0,13.0,0.0
326,39.0,0.0,90.0,12.0,0.0
327,56.0,0.0,90.0,1.0,0.0
328,56.0,0.0,90.0,0.0,0.0
329,66.0,6.0,90.0,7.0,0.0
330,60.0,0.0,30.0,3.0,0.0
331,60.0,42.0,30.0,8.0,0.0
332,60.0,0.0,90.0,13.0,0.0
333,61.0,16.0,30.0,8.0,0.0
334,61.0,0.0,30.0,3.0,0.0
335,63.0,0.0,15.0,3.0,0.0
336,63.0,12.0,15.0,8.0,0.0
337,70.0,0.0,180.0,6.0,0.0
338,49.0,4.0,30.0,13.0,0.0
339,65.0,6.0,90.0,13.0,0.0
340,49.0,0.0,30.0,5.0,0.0
341,56.0,0.0,30.0,1.0,0.0
342,58.0,0.0,90.0,13.0,0.0
343,70.0,0.0,180.0,2.0,0.0
344,53.0,0.0,90.0,10.0,0.0
345,37.0,0.0,30.0,12.0,0.0
346,49.0,0.0,30.0,11.0,0.0
347,65.0,0.0,30.0,4.0,0.0
348,70.0,0.0,180.0,7.0,0.0
349,61.0,0.0,15.0,8.0,0.0
350,61.0,12.0,15.0,3.0,0.0
351,63.0,8.0,15.0,8.0,0.0
352,63.0,0.0,15.0,3.0,0.0
353,61.0,12.0,15.0,8.0,0.0
354,61.0,0.0,15.0,3.0,0.0
355,56.0,0.0,30.0,1.0,0.0
356,63.0,4.0,30.0,4.0,0.0
357,48.0,0.0,30.0,11.0,0.0
358,63.0,12.0,15.0,3.0,0.0
359,63.0,0.0,15.0,8.0,0.0
360,48.0,0.0,30.0,13.0,0.0
361,48.0,0.0,30.0,5.0,0.0
362,36.0,0.0,30.0,12.0,0.0
363,61.0,12.0,15.0,3.0,0.0
364,61.0,0.0,15.0,8.0,0.0
365,63.0,0.0,15.0,8.0,0.0
366,63.0,2.0,15.0,3.0,0.0
367,61.0,0.0,15.0,8.0,0.0
368,61.0,12.0,15.0,3.0,0.0
369,63.0,0.0,15.0,8.0,0.0
370,49.0,6.0,90.0,5.0,0.0
371,65.0,0.0,90.0,4.0,0.0
372,49.0,0.0,90.0,10.0,0.0
373,56.0,4.0,30.0,1.0,0.0
374,37.0,0.0,90.0,12.0,0.0
375,49.0,0.0,90.0,11.0,0.0
376,63.0,12.0,15.0,3.0,0.0
377,70.0,0.0,90.0,13.0,0.0
378,65.0,0.0,90.0,13.0,0.0
379,49.0,0.0,90.0,13.0,0.0
380,61.0,12.0,15.0,8.0,0.0
381,61.0,0.0,15.0,3.0,0.0
382,63.0,0.0,15.0,8.0,0.0
383,63.0,8.0,15.0,3.0,0.0
384,61.0,23.0,15.0,3.0,0.0
385,61.0,0.0,15.0,8.0,0.0
386,56.0,3.0,30.0,1.0,0.0
387,60.0,0.0,20.0,8.0,0.0
388,60.0,15.0,20.0,3.0,0.0
389,61.0,13.0,20.0,8.0,0.0
390,61.0,0.0,20.0,3.0,0.0
391,56.0,10.0,90.0,0.0,0.0
392,68.0,12.0,15.0,6.0,0.0
393,68.0,0.0,15.0,7.0,0.0
394,48.0,0.0,90.0,5.0,0.0
395,48.0,0.0,90.0,11.0,0.0
396,63.0,0.0,90.0,8.0,0.0
397,63.0,0.0,90.0,3.0,0.0
398,68.0,0.0,90.0,13.0,0.0
399,63.0,0.0,90.0,13.0,0.0
400,36.0,0.0,90.0,12.0,0.0
401,56.0,0.0,180.0,10.0,0.0
402,56.0,0.0,90.0,1.0,0.0
403,66.0,0.0,90.0,2.0,0.0
404,63.0,0.0,90.0,4.0,0.0
405,48.0,0.0,90.0,13.0,0.0
406,66.0,12.0,15.0,7.0,0.0
407,66.0,0.0,15.0,6.0,0.0
408,68.0,0.0,15.0,7.0,0.0
409,68.0,12.0,15.0,6.0,0.0
410,66.0,12.0,15.0,7.0,0.0
411,66.0,0.0,15.0,6.0,0.0
412,68.0,12.0,15.0,7.0,0.0
413,68.0,0.0,15.0,6.0,0.0
414,66.0,0.0,15.0,7.0,0.0
415,66.0,12.0,15.0,6.0,0.0
416,68.0,2.0,15.0,6.0,0.0
417,68.0,0.0,15.0,7.0,0.0
418,66.0,44.0,15.0,7.0,0.0
419,66.0,0.0,15.0,6.0,0.0
420,56.0,6.0,90.0,13.0,0.0
421,65.0,0.0,90.0,13.0,0.0
422,61.0,0.0,90.0,8.0,0.0
423,56.0,0.0,90.0,4.0,0.0
424,61.0,0.0,90.0,3.0,0.0
425,37.0,0.0,30.0,12.0,0.0
426,49.0,0.0,30.0,11.0,0.0
427,49.0,0.0,30.0,13.0,0.0
428,65.0,42.0,30.0,2.0,0.0
429,65.0,0.0,30.0,7.0,0.0
430,65.0,0.0,30.0,6.0,0.0
431,56.0,0.0,30.0,0.0,0.0
432,49.0,0.0,30.0,5.0,0.0
433,48.0,0.0,30.0,5.0,0.0
434,48.0,0.0,30.0,13.0,0.0
435,48.0,0.0,30.0,11.0,0.0
436,63.0,0.0,30.0,7.0,0.0
437,63.0,0.0,30.0,2.0,0.0
438,63.0,48.0,30.0,6.0,0.0
439,36.0,0.0,30.0,12.0,0.0
440,56.0,0.0,30.0,0.0,0.0
441,68.0,0.0,90.0,7.0,0.0
442,60.0,6.0,90.0,8.0,0.0
443,60.0,0.0,90.0,3.0,0.0
444,56.0,42.0,30.0,0.0,0.0
445,34.0,0.0,30.0,12.0,0.0
446,46.0,0.0,30.0,11.0,0.0
447,56.0,0.0,90.0,10.0,0.0
448,46.0,0.0,30.0,5.0,0.0
449,56.0,0.0,90.0,4.0,0.0
450,46.0,0.0,30.0,13.0,0.0
451,68.0,0.0,90.0,13.0,0.0
452,60.0,0.0,90.0,13.0,0.0
453,68.0,0.0,90.0,2.0,0.0
454,68.0,0.0,90.0,6.0,0.0
455,32.0,16.0,30.0,12.0,0.0
456,56.0,0.0,30.0,0.0,0.0
457,44.0,0.0,30.0,11.0,0.0
458,44.0,0.0,30.0,5.0,0.0
459,44.0,0.0,30.0,13.0,0.0
460,56.0,0.0,90.0,13.0,0.0
461,66.0,0.0,15.0,6.0,0.0
462,37.0,0.0,90.0,12.0,0.0
463,65.0,0.0,180.0,2.0,0.0
464,49.0,0.0,90.0,11.0,0.0
465,56.0,0.0,180.0,4.0,0.0
466,65.0,0.0,90.0,13.0,0.0
467,56.0,10.0,90.0,1.0,0.0
468,56.0,0.0,180.0,10.0,0.0
469,61.0,0.0,180.0,8.0,0.0
470,49.0,0.0,90.0,13.0,0.0
471,56.0,0.0,90.0,0.0,0.0
472,61.0,0.0,180.0,3.0,0.0
473,49.0,0.0,90.0,5.0,0.0
474,66.0,12.0,15.0,7.0,0.0
475,65.0,0.0,15.0,7.0,0.0
476,65.0,12.0,15.0,6.0,0.0
477,66.0,0.0,15.0,6.0,0.0
478,66.0,12.0,15.0,7.0,0.0
479,65.0,0.0,15.0,7.0,0.0
480,65.0,12.0,15.0,6.0,0.0
481,66.0,0.0,15.0,6.0,0.0
482,66.0,12.0,15.0,7.0,0.0
483,65.0,12.0,15.0,7.0,0.0
484,65.0,0.0,15.0,6.0,0.0
485,66.0,0.0,15.0,6.0,0.0
486,66.0,2.0,15.0,7.0,0.0
487,65.0,12.0,15.0,7.0,0.0
488,65.0,0.0,15.0,6.0,0.0
489,66.0,0.0,15.0,7.0,0.0
490,36.0,0.0,30.0,12.0,0.0
491,56.0,0.0,30.0,1.0,0.0
492,65.0,0.0,90.0,13.0,0.0
493,68.0,6.0,90.0,13.0,0.0
494,48.0,0.0,30.0,13.0,0.0
495,48.0,0.0,30.0,11.0,0.0
496,48.0,4.0,30.0,5.0,0.0
497,66.0,12.0,15.0,6.0,0.0
498,65.0,0.0,15.0,6.0,0.0
499,65.0,12.0,15.0,7.0,0.0
500,66.0,0.0,15.0,6.0,0.0
501,66.0,8.0,15.0,7.0,0.0
502,65.0,0.0,15.0,6.0,0.0
503,65.0,12.0,15.0,7.0,0.0
504,46.0,0.0,30.0,5.0,0.0
505,34.0,0.0,30.0,12.0,0.0
506,56.0,0.0,30.0,1.0,0.0
507,46.0,0.0,30.0,11.0,0.0
508,46.0,4.0,30.0,13.0,0.0
509,66.0,0.0,15.0,7.0,0.0
510,66.0,12.0,15.0,6.0,0.0
511,65.0,12.0,15.0,6.0,0.0
512,65.0,0.0,15.0,7.0,0.0
513,66.0,0.0,15.0,7.0,0.0
514,66.0,2.0,15.0,6.0,0.0
515,65.0,0.0,15.0,6.0,0.0
516,65.0,44.0,15.0,7.0,0.0
517,63.0,0.0,90.0,13.0,0.0
518,63.0,0.0,90.0,2.0,0.0
519,63.0,0.0,90.0,8.0,0.0
520,63.0,6.0,90.0,6.0,0.0
521,56.0,0.0,90.0,4.0,0.0
522,48.0,0.0,90.0,5.0,0.0
523,56.0,42.0,30.0,1.0,0.0
524,63.0,0.0,90.0,3.0,0.0
525,63.0,0.0,90.0,7.0,0.0
526,48.0,0.0,90.0,11.0,0.0
527,68.0,0.0,90.0,13.0,0.0
528,48.0,0.0,90.0,13.0,0.0
529,36.0,0.0,90.0,12.0,0.0
530,56.0,0.0,90.0,10.0,0.0
531,56.0,16.0,30.0,1.0,0.0
532,60.0,12.0,15.0,10.0,0.0
533,61.0,0.0,90.0,13.0,0.0
534,61.0,0.0,90.0,8.0,0.0
535,67.0,0.0,30.0,2.0,0.0
536,63.0,0.0,90.0,1.0,0.0
537,67.0,0.0,90.0,13.0,0.0
538,46.0,0.0,90.0,13.0,0.0
539,46.0,6.0,90.0,5.0,0.0
540,61.0,0.0,90.0,3.0,0.0
541,34.0,0.0,90.0,12.0,0.0
542,63.0,0.0,90.0,0.0,0.0
543,67.0,4.0,30.0,7.0,0.0
544,67.0,0.0,30.0,6.0,0.0
545,46.0,0.0,90.0,11.0,0.0
546,58.0,0.0,90.0,4.0,0.0
547,58.0,12.0,15.0,10.0,0.0
548,60.0,8.0,15.0,10.0,0.0
549,58.0,12.0,15.0,10.0,0.0
550,68.0,0.0,30.0,6.0,0.0
551,60.0,12.0,15.0,10.0,0.0
552,68.0,0.0,30.0,2.0,0.0
553,68.0,4.0,30.0,7.0,0.0
554,58.0,12.0,15.0,10.0,0.0
555,60.0,2.0,15.0,10.0,0.0
556,58.0,12.0,15.0,10.0,0.0
557,48.0,0.0,90.0,11.0,0.0
558,63.0,0.0,180.0,3.0,0.0
559,63.0,0.0,30.0,0.0,0.0
560,56.0,4.0,30.0,10.0,0.0
561,63.0,0.0,180.0,8.0,0.0
562,68.0,0.0,90.0,13.0,0.0
563,48.0,6.0,90.0,13.0,0.0
564,70.0,0.0,15.0,7.0,0.0
565,63.0,0.0,90.0,13.0,0.0
566,36.0,0.0,90.0,12.0,0.0
567,56.0,0.0,30.0,4.0,0.0
568,70.0,0.0,15.0,2.0,0.0
569,70.0,12.0,15.0,6.0,0.0
570,48.0,0.0,90.0,5.0,0.0
571,68.0,0.0,15.0,2.0,0.0
572,68.0,0.0,15.0,7.0,0.0
573,68.0,12.0,15.0,6.0,0.0
574,70.0,8.0,15.0,2.0,0.0
575,70.0,0.0,15.0,6.0,0.0
576,70.0,0.0,15.0,7.0,0.0
577,68.0,0.0,15.0,2.0,0.0
578,68.0,12.0,15.0,6.0,0.0
579,68.0,0.0,15.0,7.0,0.0
580,70.0,12.0,15.0,2.0,0.0
581,58.0,0.0,30.0,10.0,0.0
582,70.0,0.0,15.0,7.0,0.0
583,70.0,0.0,15.0,6.0,0.0
584,63.0,4.0,30.0,0.0,0.0
585,58.0,0.0,30.0,4.0,0.0
586,68.0,0.0,15.0,2.0,0.0
587,68.0,12.0,15.0,6.0,0.0
588,68.0,0.0,15.0,7.0,0.0
589,70.0,2.0,15.0,6.0,0.0
590,70.0,0.0,15.0,2.0,0.0
591,70.0,0.0,15.0,7.0,0.0
592,68.0,0.0,15.0,7.0,0.0
593,68.0,12.0,15.0,2.0,0.0
594,68.0,0.0,15.0,6.0,0.0
595,63.0,0.0,90.0,13.0,0.0
596,70.0,0.0,15.0,7.0,0.0
597,70.0,0.0,15.0,6.0,0.0
598,60.0,6.0,90.0,10.0,0.0
599,44.0,0.0,90.0,13.0,0.0
600,72.0,0.0,90.0,13.0,0.0
601,32.0,0.0,90.0,12.0,0.0
602,44.0,0.0,90.0,5.0,0.0
603,44.0,0.0,90.0,11.0,0.0
604,60.0,0.0,90.0,4.0,0.0
605,63.0,4.0,30.0,0.0,0.0
606,70.0,12.0,15.0,2.0,0.0
607,68.0,0.0,15.0,2.0,0.0
608,68.0,12.0,15.0,6.0,0.0
609,68.0,0.0,15.0,7.0,0.0
610,70.0,0.0,15.0,7.0,0.0
611,70.0,8.0,15.0,2.0,0.0
612,70.0,0.0,15.0,6.0,0.0
613,68.0,0.0,15.0,6.0,0.0
614,68.0,23.0,15.0,2.0,0.0
615,68.0,0.0,15.0,7.0,0.0
616,67.0,15.0,20.0,7.0,0.0
617,67.0,0.0,20.0,2.0,0.0
618,63.0,3.0,30.0,0.0,0.0
619,67.0,0.0,20.0,6.0,0.0
620,68.0,0.0,20.0,7.0,0.0
621,68.0,0.0,20.0,6.0,0.0
622,68.0,87.0,20.0,2.0,0.0
623,43.0,0.0,90.0,5.0,0.0
624,43.0,0.0,90.0,13.0,0.0
625,70.0,0.0,90.0,2.0,0.0
626,63.0,0.0,90.0,13.0,0.0
627,63.0,0.0,90.0,0.0,0.0
628,70.0,0.0,90.0,13.0,0.0
629,58.0,0.0,180.0,10.0,0.0
630,31.0,54.0,90.0,12.0,0.0
631,43.0,0.0,90.0,11.0,0.0
632,70.0,0.0,90.0,6.0,0.0
633,58.0,0.0,180.0,4.0,0.0
634,63.0,0.0,180.0,3.0,0.0
635,63.0,0.0,90.0,1.0,0.0
636,70.0,0.0,90.0,7.0,0.0
637,63.0,0.0,180.0,8.0,0.0
638,41.0,0.0,30.0,5.0,0.0
639,68.0,0.0,30.0,6.0,0.0
640,68.0,6.0,90.0,13.0,0.0
641,68.0,42.0,30.0,2.0,0.0
642,41.0,0.0,30.0,11.0,0.0
643,41.0,0.0,30.0,13.0,0.0
644,63.0,0.0,30.0,1.0,0.0
645,63.0,0.0,90.0,13.0,0.0
646,68.0,0.0,30.0,7.0,0.0
647,29.0,0.0,30.0,12.0,0.0
648,67.0,0.0,30.0,6.0,0.0
649,67.0,0.0,30.0,7.0,0.0
650,27.0,0.0,30.0,12.0,0.0
651,63.0,48.0,30.0,1.0,0.0
652,39.0,0.0,30.0,11.0,0.0
653,67.0,0.0,30.0,2.0,0.0
654,39.0,0.0,30.0,13.0,0.0
655,39.0,0.0,30.0,5.0,0.0
656,25.0,42.0,30.0,12.0,0.0
657,37.0,0.0,30.0,11.0,0.0
658,37.0,0.0,30.0,13.0,0.0
659,60.0,0.0,90.0,10.0,0.0
660,68.0,0.0,90.0,13.0,0.0
661,63.0,0.0,90.0,13.0,0.0
662,68.0,0.0,90.0,7.0,0.0
663,37.0,0.0,30.0,5.0,0.0
664,63.0,0.0,90.0,8.0,0.0
665,63.0,0.0,90.0,3.0,0.0
666,60.0,6.0,90.0,4.0,0.0
667,68.0,0.0,90.0,2.0,0.0
668,68.0,0.0,90.0,6.0,0.0
669,63.0,0.0,30.0,1.0,0.0
670,36.0,0.0,30.0,5.0,0.0
671,36.0,48.0,30.0,11.0,0.0
672,36.0,0.0,30.0,13.0,0.0
673,24.0,0.0,30.0,12.0,0.0
674,63.0,0.0,30.0,1.0,0.0
675,41.0,42.0,30.0,11.0,0.0
676,41.0,0.0,30.0,5.0,0.0
677,56.0,0.0,90.0,4.0,0.0
678,56.0,6.0,90.0,10.0,0.0
679,73.0,0.0,30.0,7.0,0.0
680,41.0,0.0,30.0,13.0,0.0
681,73.0,0.0,30.0,6.0,0.0
682,68.0,0.0,30.0,0.0,0.0
683,65.0,0.0,30.0,8.0,0.0
684,73.0,0.0,30.0,2.0,0.0
685,29.0,0.0,30.0,12.0,0.0
686,68.0,0.0,90.0,13.0,0.0
687,65.0,0.0,90.0,1.0,0.0
688,65.0,0.0,30.0,3.0,0.0
689,61.0,0.0,90.0,13.0,0.0
690,75.0,0.0,30.0,6.0,0.0
691,67.0,0.0,30.0,8.0,0.0
692,67.0,0.0,30.0,0.0,0.0
693,25.0,0.0,30.0,12.0,0.0
694,37.0,0.0,30.0,13.0,0.0
695,37.0,0.0,30.0,5.0,0.0
696,37.0,0.0,30.0,11.0,0.0
697,75.0,0.0,30.0,2.0,0.0
698,75.0,16.0,30.0,7.0,0.0
699,67.0,0.0,30.0,3.0,0.0
700,70.0,0.0,120.0,6.0,0.0
701,70.0,6.0,120.0,2.0,0.0
702,39.0,0.0,90.0,11.0,0.0
703,67.0,0.0,120.0,8.0,0.0
704,63.0,4.0,30.0,1.0,0.0
705,70.0,0.0,120.0,7.0,0.0
706,27.0,0.0,90.0,12.0,0.0
707,68.0,12.0,15.0,3.0,0.0
708,39.0,0.0,90.0,13.0,0.0
709,66.0,0.0,90.0,13.0,0.0
710,63.0,6.0,90.0,10.0,0.0
711,63.0,0.0,90.0,4.0,0.0
712,58.0,0.0,90.0,13.0,0.0
713,67.0,0.0,120.0,0.0,0.0
714,39.0,0.0,90.0,5.0,0.0
715,67.0,12.0,15.0,3.0,0.0
716,68.0,8.0,15.0,3.0,0.0
717,67.0,12.0,15.0,3.0,0.0
718,68.0,12.0,15.0,3.0,0.0
719,63.0,4.0,30.0,1.0,0.0
720,67.0,12.0,15.0,3.0,0.0
721,68.0,2.0,15.0,3.0,0.0
722,67.0,12.0,15.0,3.0,0.0
723,39.0,0.0,90.0,13.0,0.0
724,27.0,0.0,90.0,12.0,0.0
725,63.0,4.0,30.0,1.0,0.0
726,39.0,0.0,90.0,11.0,0.0
727,61.0,0.0,90.0,13.0,0.0
728,66.0,0.0,90.0,13.0,0.0
729,61.0,6.0,90.0,10.0,0.0
730,68.0,12.0,15.0,3.0,0.0
731,39.0,0.0,90.0,5.0,0.0
732,61.0,0.0,90.0,4.0,0.0
733,67.0,12.0,15.0,3.0,0.0
734,68.0,2.0,15.0,3.0,0.0
735,67.0,38.0,15.0,3.0,0.0
736,68.0,0.0,30.0,0.0,0.0
737,63.0,0.0,30.0,8.0,0.0
738,68.0,0.0,30.0,7.0,0.0
739,63.0,90.0,30.0,3.0,0.0
740,68.0,0.0,30.0,2.0,0.0
741,68.0,0.0,30.0,6.0,0.0
742,63.0,0.0,30.0,1.0,0.0
743,32.0,0.0,90.0,11.0,0.0
744,63.0,0.0,90.0,13.0,0.0
745,32.0,0.0,90.0,13.0,0.0
746,68.0,0.0,270.0,6.0,0.0
747,68.0,0.0,270.0,7.0,0.0
748,32.0,0.0,90.0,5.0,0.0
749,63.0,0.0,270.0,8.0,0.0
750,20.0,54.0,90.0,12.0,0.0
751,72.0,0.0,90.0,13.0,0.0
752,63.0,0.0,270.0,3.0,0.0
753,60.0,0.0,270.0,4.0,0.0
754,68.0,0.0,270.0,2.0,0.0
755,68.0,0.0,270.0,0.0,0.0
756,60.0,0.0,270.0,10.0,0.0
757,63.0,6.0,270.0,1.0,0.0
758,56.0,0.0,30.0,13.0,0.0
759,44.0,0.0,30.0,13.0,0.0
760,44.0,0.0,30.0,5.0,0.0
761,44.0,0.0,30.0,11.0,0.0
762,32.0,48.0,30.0,12.0,0.0
763,42.0,48.0,30.0,5.0,0.0
764,54.0,0.0,30.0,13.0,0.0
765,42.0,0.0,30.0,11.0,0.0
766,42.0,0.0,30.0,13.0,0.0
767,30.0,0.0,30.0,12.0,0.0
768,29.0,0.0,30.0,12.0,0.0
769,53.0,0.0,30.0,13.0,0.0
770,41.0,0.0,30.0,13.0,0.0
771,41.0,0.0,30.0,5.0,0.0
772,41.0,42.0,30.0,11.0,0.0
773,51.0,90.0,30.0,13.0,0.0
774,39.0,0.0,30.0,11.0,0.0
775,39.0,0.0,30.0,13.0,0.0
776,27.0,0.0,30.0,12.0,0.0
777,39.0,0.0,30.0,5.0,0.0
778,65.0,54.0,90.0,8.0,0.0
779,65.0,0.0,90.0,3.0,0.0
780,37.0,0.0,90.0,11.0,0.0
781,49.0,0.0,90.0,0.0,0.0
782,68.0,0.0,90.0,6.0,0.0
783,68.0,0.0,90.0,7.0,0.0
784,25.0,0.0,90.0,12.0,0.0
785,65.0,0.0,90.0,13.0,0.0
786,37.0,0.0,90.0,13.0,0.0
787,61.0,0.0,180.0,10.0,0.0
788,37.0,0.0,90.0,5.0,0.0
789,56.0,0.0,90.0,13.0,0.0
790,61.0,0.0,180.0,4.0,0.0
791,68.0,0.0,90.0,2.0,0.0
792,49.0,42.0,30.0,0.0,0.0
793,71.0,0.0,90.0,7.0,0.0
794,41.0,0.0,90.0,12.0,0.0
795,68.0,6.0,90.0,8.0,0.0
796,53.0,0.0,90.0,13.0,0.0
797,59.0,0.0,90.0,13.0,0.0
798,68.0,0.0,90.0,3.0,0.0
799,71.0,0.0,90.0,6.0,0.0
800,53.0,0.0,90.0,5.0,0.0
801,68.0,0.0,90.0,13.0,0.0
802,53.0,0.0,90.0,11.0,0.0
803,71.0,0.0,90.0,2.0,0.0
804,49.0,48.0,30.0,0.0,0.0
805,70.0,0.0,90.0,13.0,0.0
806,70.0,0.0,90.0,2.0,0.0
807,61.0,0.0,90.0,13.0,0.0
808,61.0,0.0,90.0,10.0,0.0
809,54.0,0.0,90.0,13.0,0.0
810,54.0,0.0,90.0,11.0,0.0
811,66.0,0.0,90.0,3.0,0.0
812,42.0,0.0,90.0,12.0,0.0
813,66.0,0.0,90.0,8.0,0.0
814,70.0,6.0,90.0,7.0,0.0
815,49.0,42.0,30.0,0.0,0.0
816,70.0,0.0,90.0,6.0,0.0
817,61.0,0.0,90.0,4.0,0.0
818,54.0,0.0,90.0,5.0,0.0
819,49.0,16.0,30.0,0.0,0.0
820,56.0,0.0,90.0,5.0,0.0
821,61.0,12.0,15.0,10.0,0.0
822,68.0,0.0,90.0,7.0,0.0
823,68.0,10.0,90.0,2.0,0.0
824,49.0,0.0,90.0,0.0,0.0
825,49.0,0.0,90.0,1.0,0.0
826,65.0,0.0,90.0,3.0,0.0
827,65.0,0.0,90.0,8.0,0.0
828,56.0,0.0,90.0,11.0,0.0
829,44.0,0.0,90.0,12.0,0.0
830,71.0,0.0,90.0,13.0,0.0
831,68.0,0.0,90.0,6.0,0.0
832,59.0,0.0,90.0,4.0,0.0
833,65.0,0.0,90.0,13.0,0.0
834,56.0,0.0,90.0,13.0,0.0
835,59.0,12.0,15.0,10.0,0.0
836,61.0,12.0,15.0,10.0,0.0
837,59.0,12.0,15.0,10.0,0.0
838,61.0,12.0,15.0,10.0,0.0
839,59.0,12.0,15.0,10.0,0.0
840,61.0,2.0,15.0,10.0,0.0
841,59.0,44.0,15.0,10.0,0.0
842,66.0,0.0,30.0,2.0,0.0
843,66.0,0.0,30.0,6.0,0.0
844,58.0,0.0,30.0,4.0,0.0
845,66.0,0.0,30.0,7.0,0.0
846,58.0,42.0,30.0,10.0,0.0
847,47.0,0.0,90.0,12.0,0.0
848,59.0,0.0,90.0,11.0,0.0
849,59.0,0.0,90.0,13.0,0.0
850,66.0,0.0,90.0,13.0,0.0
851,61.0,0.0,90.0,8.0,0.0
852,59.0,0.0,90.0,5.0,0.0
853,49.0,0.0,30.0,1.0,0.0
854,61.0,0.0,90.0,3.0,0.0
855,71.0,6.0,90.0,13.0,0.0
856,65.0,0.0,30.0,7.0,0.0
857,49.0,0.0,30.0,1.0,0.0
858,56.0,48.0,30.0,4.0,0.0
859,56.0,0.0,30.0,10.0,0.0
860,65.0,0.0,30.0,2.0,0.0
861,65.0,0.0,30.0,6.0,0.0
862,61.0,0.0,90.0,8.0,0.0
863,66.0,0.0,90.0,13.0,0.0
864,46.0,0.0,90.0,12.0,0.0
865,58.0,0.0,90.0,5.0,0.0
866,49.0,42.0,30.0,1.0,0.0
867,58.0,0.0,90.0,13.0,0.0
868,61.0,0.0,90.0,3.0,0.0
869,66.0,0.0,90.0,6.0,0.0
870,58.0,6.0,90.0,10.0,0.0
871,58.0,0.0,90.0,4.0,0.0
872,58.0,0.0,90.0,11.0,0.0
873,66.0,0.0,90.0,2.0,0.0
874,66.0,0.0,90.0,7.0,0.0
875,49.0,90.0,30.0,1.0,0.0
876,56.0,0.0,90.0,11.0,0.0
877,65.0,0.0,90.0,8.0,0.0
878,71.0,0.0,90.0,13.0,0.0
879,56.0,0.0,90.0,13.0,0.0
880,65.0,0.0,90.0,3.0,0.0
881,49.0,0.0,90.0,0.0,0.0
882,65.0,0.0,90.0,13.0,0.0
883,68.0,0.0,90.0,6.0,0.0
884,56.0,0.0,90.0,5.0,0.0
885,68.0,0.0,90.0,7.0,0.0
886,59.0,54.0,90.0,4.0,0.0
887,44.0,0.0,90.0,12.0,0.0
888,49.0,0.0,90.0,1.0,0.0
889,59.0,0.0,90.0,10.0,0.0
890,68.0,0.0,90.0,2.0,0.0
891,68.0,0.0,90.0,13.0,0.0
892,54.0,0.0,30.0,13.0,0.0
893,59.0,0.0,90.0,13.0,0.0
894,68.0,0.0,90.0,8.0,0.0
895,68.0,0.0,90.0,3.0,0.0
896,71.0,0.0,90.0,6.0,0.0
897,71.0,0.0,90.0,7.0,0.0
898,71.0,0.0,90.0,2.0,0.0
899,56.0,6.0,90.0,10.0,0.0
900,56.0,0.0,90.0,4.0,0.0
901,54.0,0.0,30.0,5.0,0.0
902,54.0,42.0,30.0,11.0,0.0
903,42.0,0.0,30.0,12.0,0.0
904,49.0,0.0,30.0,0.0,0.0
905,49.0,0.0,30.0,0.0,0.0
906,53.0,0.0,30.0,11.0,0.0
907,41.0,0.0,30.0,12.0,0.0
908,53.0,0.0,30.0,5.0,0.0
909,53.0,48.0,30.0,13.0,0.0
910,61.0,0.0,90.0,10.0,0.0
911,61.0,0.0,90.0,4.0,0.0
912,61.0,0.0,90.0,13.0,0.0
913,70.0,0.0,90.0,13.0,0.0
914,42.0,0.0,90.0,12.0,0.0
915,70.0,6.0,90.0,2.0,0.0
916,54.0,0.0,90.0,5.0,0.0
917,54.0,0.0,90.0,13.0,0.0
918,54.0,0.0,90.0,11.0,0.0
919,66.0,0.0,90.0,3.0,0.0
920,70.0,0.0,90.0,6.0,0.0
921,49.0,42.0,30.0,0.0,0.0
922,66.0,0.0,90.0,8.0,0.0
923,70.0,0.0,90.0,7.0,0.0
924,49.0,16.0,30.0,0.0,0.0
925,41.0,0.0,90.0,12.0,0.0
926,70.0,0.0,15.0,7.0,0.0
927,61.0,0.0,180.0,4.0,0.0
928,53.0,0.0,90.0,11.0,0.0
929,49.0,0.0,90.0,1.0,0.0
930,61.0,0.0,180.0,10.0,0.0
931,53.0,0.0,90.0,5.0,0.0
932,49.0,0.0,90.0,0.0,0.0
933,70.0,12.0,15.0,6.0,0.0
934,70.0,0.0,15.0,2.0,0.0
935,53.0,0.0,90.0,13.0,0.0
936,68.0,0.0,90.0,13.0,0.0
937,61.0,10.0,90.0,13.0,0.0
938,68.0,0.0,90.0,3.0,0.0
939,68.0,0.0,90.0,8.0,0.0
940,68.0,0.0,15.0,7.0,0.0
941,68.0,0.0,15.0,6.0,0.0
942,68.0,12.0,15.0,2.0,0.0
943,70.0,12.0,15.0,7.0,0.0
944,70.0,0.0,15.0,2.0,0.0
945,70.0,0.0,15.0,6.0,0.0
946,68.0,0.0,15.0,7.0,0.0
947,68.0,12.0,15.0,2.0,0.0
948,68.0,0.0,15.0,6.0,0.0
949,70.0,0.0,15.0,2.0,0.0
950,70.0,12.0,15.0,7.0,0.0
951,70.0,0.0,15.0,6.0,0.0
952,68.0,0.0,15.0,2.0,0.0
953,68.0,12.0,15.0,7.0,0.0
954,68.0,0.0,15.0,6.0,0.0
955,70.0,0.0,15.0,7.0,0.0
956,70.0,2.0,15.0,2.0,0.0
957,70.0,0.0,15.0,6.0,0.0
958,68.0,12.0,15.0,6.0,0.0
959,68.0,0.0,15.0,7.0,0.0
960,68.0,0.0,15.0,2.0,0.0
961,49.0,0.0,30.0,1.0,0.0
962,70.0,0.0,15.0,6.0,0.0
963,70.0,0.0,15.0,2.0,0.0
964,61.0,0.0,90.0,13.0,0.0
965,70.0,12.0,15.0,7.0,0.0
966,66.0,0.0,90.0,8.0,0.0
967,42.0,0.0,30.0,12.0,0.0
968,54.0,4.0,30.0,11.0,0.0
969,66.0,0.0,90.0,13.0,0.0
970,54.0,0.0,30.0,5.0,0.0
971,66.0,6.0,90.0,3.0,0.0
972,54.0,0.0,30.0,13.0,0.0
973,68.0,12.0,15.0,7.0,0.0
974,68.0,0.0,15.0,6.0,0.0
975,68.0,0.0,15.0,2.0,0.0
976,70.0,0.0,15.0,7.0,0.0
977,70.0,0.0,15.0,6.0,0.0
978,70.0,8.0,15.0,2.0,0.0
979,68.0,12.0,15.0,6.0,0.0
980,68.0,0.0,15.0,7.0,0.0
981,68.0,0.0,15.0,2.0,0.0
982,70.0,0.0,15.0,7.0,0.0
983,49.0,4.0,30.0,1.0,0.0
984,70.0,12.0,15.0,2.0,0.0
985,53.0,0.0,30.0,13.0,0.0
986,70.0,0.0,15.0,6.0,0.0
987,53.0,0.0,30.0,11.0,0.0
988,53.0,0.0,30.0,5.0,0.0
989,41.0,0.0,30.0,12.0,0.0
990,68.0,0.0,15.0,6.0,0.0
991,68.0,0.0,15.0,2.0,0.0
992,68.0,12.0,15.0,7.0,0.0
993,70.0,0.0,15.0,6.0,0.0
994,70.0,0.0,15.0,2.0,0.0
995,70.0,2.0,15.0,7.0,0.0
996,68.0,0.0,15.0,2.0,0.0
997,68.0,0.0,15.0,6.0,0.0
998,68.0,44.0,15.0,7.0,0.0
999,51.0,0.0,30.0,11.0,0.0
1000,49.0,0.0,30.0,1.0,0.0
1001,39.0,0.0,30.0,12.0,0.0
1002,65.0,0.0,90.0,3.0,0.0
1003,73.0,0.0,90.0,6.0,0.0
1004,56.0,6.0,90.0,10.0,0.0
1005,56.0,0.0,90.0,13.0,0.0
1006,65.0,0.0,90.0,13.0,0.0
1007,51.0,0.0,30.0,13.0,0.0
1008,73.0,0.0,90.0,2.0,0.0
1009,56.0,0.0,90.0,4.0,0.0
1010,65.0,0.0,90.0,8.0,0.0
1011,73.0,0.0,90.0,7.0,0.0
1012,51.0,42.0,30.0,5.0,0.0
1013,49.0,0.0,30.0,1.0,0.0
1014,49.0,0.0,30.0,13.0,0.0
1015,49.0,0.0,30.0,11.0,0.0
1016,37.0,0.0,30.0,12.0,0.0
1017,49.0,16.0,30.0,5.0,0.0
1018,66.0,10.0,90.0,6.0,0.0
1019,66.0,0.0,90.0,2.0,0.0
1020,49.0,12.0,15.0,11.0,0.0
1021,49.0,0.0,15.0,13.0,0.0
1022,56.0,0.0,180.0,4.0,0.0
1023,63.0,0.0,90.0,13.0,0.0
1024,66.0,0.0,90.0,7.0,0.0
1025,63.0,0.0,180.0,3.0,0.0
1026,63.0,0.0,180.0,8.0,0.0
1027,56.0,6.0,180.0,10.0,0.0
1028,48.0,0.0,180.0,5.0,0.0
1029,68.0,0.0,90.0,13.0,0.0
1030,37.0,0.0,15.0,12.0,0.0
1031,56.0,0.0,90.0,0.0,0.0
1032,56.0,0.0,90.0,1.0,0.0
1033,36.0,12.0,15.0,12.0,0.0
1034,48.0,0.0,15.0,11.0,0.0
1035,48.0,0.0,15.0,13.0,0.0
1036,37.0,12.0,15.0,12.0,0.0
1037,49.0,0.0,15.0,11.0,0.0
1038,49.0,0.0,15.0,13.0,0.0
1039,48.0,12.0,15.0,13.0,0.0
1040,36.0,0.0,15.0,12.0,0.0
1041,48.0,0.0,15.0,11.0,0.0
1042,37.0,12.0,15.0,12.0,0.0
1043,49.0,0.0,15.0,11.0,0.0
1044,49.0,0.0,15.0,13.0,0.0
1045,36.0,0.0,15.0,12.0,0.0
1046,48.0,0.0,15.0,13.0,0.0
1047,48.0,12.0,15.0,11.0,0.0
1048,37.0,2.0,15.0,12.0,0.0
1049,49.0,0.0,15.0,13.0,0.0
1050,49.0,0.0,15.0,11.0,0.0
1051,48.0,12.0,15.0,11.0,0.0
1052,48.0,0.0,15.0,13.0,0.0
1053,36.0,0.0,15.0,12.0,0.0
1054,56.0,0.0,90.0,13.0,0.0
1055,63.0,0.0,90.0,13.0,0.0
1056,49.0,12.0,15.0,13.0,0.0
1057,63.0,0.0,90.0,2.0,0.0
1058,49.0,0.0,15.0,11.0,0.0
1059,56.0,4.0,30.0,0.0,0.0
1060,63.0,0.0,90.0,7.0,0.0
1061,37.0,0.0,15.0,12.0,0.0
1062,63.0,0.0,90.0,6.0,0.0
1063,36.0,0.0,15.0,12.0,0.0
1064,48.0,12.0,15.0,11.0,0.0
1065,48.0,0.0,15.0,13.0,0.0
1066,37.0,8.0,15.0,12.0,0.0
1067,49.0,0.0,15.0,13.0,0.0
1068,49.0,0.0,15.0,11.0,0.0
1069,48.0,12.0,15.0,11.0,0.0
1070,36.0,0.0,15.0,12.0,0.0
1071,48.0,0.0,15.0,13.0,0.0
1072,49.0,0.0,15.0,11.0,0.0
1073,49.0,0.0,15.0,13.0,0.0
1074,56.0,4.0,30.0,0.0,0.0
1075,37.0,12.0,15.0,12.0,0.0
1076,48.0,12.0,15.0,13.0,0.0
1077,48.0,0.0,15.0,11.0,0.0
1078,36.0,0.0,15.0,12.0,0.0
1079,37.0,0.0,15.0,12.0,0.0
1080,49.0,2.0,15.0,11.0,0.0
1081,49.0,0.0,15.0,13.0,0.0
1082,48.0,0.0,15.0,11.0,0.0
1083,48.0,0.0,15.0,13.0,0.0
1084,36.0,44.0,15.0,12.0,0.0
1085,37.0,0.0,90.0,12.0,0.0
1086,61.0,0.0,90.0,8.0,0.0
1087,61.0,0.0,90.0,3.0,0.0
1088,56.0,42.0,30.0,0.0,0.0
1089,65.0,0.0,90.0,6.0,0.0
1090,65.0,0.0,90.0,7.0,0.0
1091,56.0,6.0,90.0,13.0,0.0
1092,56.0,0.0,90.0,10.0,0.0
1093,65.0,0.0,90.0,13.0,0.0
1094,65.0,0.0,90.0,2.0,0.0
1095,56.0,0.0,90.0,4.0,0.0
1096,49.0,0.0,90.0,5.0,0.0
1097,49.0,0.0,90.0,11.0,0.0
1098,49.0,0.0,90.0,13.0,0.0
1099,56.0,48.0,30.0,0.0,0.0
1100,66.0,0.0,90.0,2.0,0.0
1101,51.0,0.0,90.0,11.0,0.0
1102,60.0,42.0,30.0,8.0,0.0
1103,66.0,0.0,90.0,6.0,0.0
1104,51.0,0.0,90.0,10.0,0.0
1105,60.0,0.0,90.0,4.0,0.0
1106,56.0,0.0,90.0,0.0,0.0
1107,39.0,0.0,90.0,12.0,0.0
1108,51.0,0.0,90.0,13.0,0.0
1109,56.0,0.0,90.0,1.0,0.0
1110,51.0,6.0,90.0,5.0,0.0
1111,66.0,0.0,90.0,13.0,0.0
1112,60.0,0.0,90.0,13.0,0.0
1113,66.0,0.0,90.0,7.0,0.0
1114,60.0,0.0,30.0,3.0,0.0
1115,61.0,16.0,30.0,3.0,0.0
1116,61.0,0.0,30.0,8.0,0.0
1117,49.0,0.0,30.0,5.0,0.0
1118,37.0,4.0,30.0,12.0,0.0
1119,56.0,0.0,30.0,1.0,0.0
1120,65.0,0.0,30.0,4.0,0.0
1121,53.0,0.0,90.0,10.0,0.0
1122,65.0,6.0,90.0,13.0,0.0
1123,49.0,0.0,30.0,13.0,0.0
1124,63.0,12.0,15.0,3.0,0.0
1125,63.0,0.0,15.0,8.0,0.0
1126,58.0,0.0,90.0,13.0,0.0
1127,70.0,6.0,180.0,7.0,0.0
1128,70.0,0.0,180.0,6.0,0.0
1129,49.0,0.0,30.0,11.0,0.0
1130,70.0,0.0,180.0,2.0,0.0
1131,61.0,12.0,15.0,3.0,0.0
1132,61.0,0.0,15.0,8.0,0.0
1133,63.0,0.0,15.0,3.0,0.0
1134,63.0,8.0,15.0,8.0,0.0
1135,61.0,0.0,15.0,3.0,0.0
1136,61.0,12.0,15.0,8.0,0.0
1137,48.0,0.0,30.0,5.0,0.0
1138,63.0,0.0,15.0,8.0,0.0
1139,48.0,0.0,30.0,11.0,0.0
1140,48.0,0.0,30.0,13.0,0.0
1141,36.0,0.0,30.0,12.0,0.0
1142,56.0,4.0,30.0,1.0,0.0
1143,63.0,12.0,15.0,3.0,0.0
1144,63.0,0.0,30.0,4.0,0.0
1145,61.0,12.0,15.0,8.0,0.0
1146,61.0,0.0,15.0,3.0,0.0
1147,63.0,0.0,15.0,3.0,0.0
1148,63.0,2.0,15.0,8.0,0.0
1149,61.0,12.0,15.0,8.0,0.0
1150,61.0,0.0,15.0,3.0,0.0
1151,70.0,0.0,90.0,13.0,0.0
1152,63.0,12.0,15.0,8.0,0.0
1153,63.0,0.0,15.0,3.0,0.0
1154,65.0,0.0,90.0,13.0,0.0
1155,65.0,0.0,90.0,4.0,0.0
1156,49.0,0.0,90.0,13.0,0.0
1157,49.0,0.0,90.0,11.0,0.0
1158,49.0,0.0,90.0,10.0,0.0
1159,49.0,0.0,90.0,5.0,0.0
1160,56.0,4.0,30.0,1.0,0.0
1161,37.0,0.0,90.0,12.0,0.0
1162,61.0,0.0,15.0,3.0,0.0
1163,61.0,12.0,15.0,8.0,0.0
1164,63.0,0.0,15.0,8.0,0.0
1165,63.0,8.0,15.0,3.0,0.0
1166,61.0,23.0,15.0,3.0,0.0
1167,61.0,0.0,15.0,8.0,0.0
1168,56.0,3.0,30.0,1.0,0.0
1169,60.0,0.0,20.0,8.0,0.0
1170,60.0,15.0,20.0,3.0,0.0
1171,61.0,0.0,20.0,8.0,0.0
1172,61.0,13.0,20.0,3.0,0.0
1173,68.0,0.0,15.0,7.0,0.0
1174,56.0,0.0,90.0,0.0,0.0
1175,63.0,10.0,90.0,8.0,0.0
1176,36.0,0.0,90.0,12.0,0.0
1177,63.0,0.0,90.0,3.0,0.0
1178,68.0,12.0,15.0,6.0,0.0
1179,56.0,0.0,90.0,1.0,0.0
1180,48.0,0.0,90.0,11.0,0.0
1181,66.0,0.0,90.0,2.0,0.0
1182,48.0,0.0,90.0,5.0,0.0
1183,63.0,0.0,90.0,13.0,0.0
1184,56.0,0.0,180.0,10.0,0.0
1185,48.0,0.0,90.0,13.0,0.0
1186,63.0,0.0,90.0,4.0,0.0
1187,68.0,0.0,90.0,13.0,0.0
1188,66.0,0.0,15.0,7.0,0.0
1189,66.0,12.0,15.0,6.0,0.0
1190,68.0,12.0,15.0,7.0,0.0
1191,68.0,0.0,15.0,6.0,0.0
1192,66.0,0.0,15.0,7.0,0.0
1193,66.0,12.0,15.0,6.0,0.0
1194,68.0,12.0,15.0,6.0,0.0
1195,68.0,0.0,15.0,7.0,0.0
1196,66.0,0.0,15.0,7.0,0.0
1197,66.0,12.0,15.0,6.0,0.0
1198,68.0,0.0,15.0,7.0,0.0
1199,68.0,2.0,15.0,6.0,0.0
1200,66.0,0.0,15.0,7.0,0.0
1201,66.0,44.0,15.0,6.0,0.0
1202,49.0,0.0,30.0,5.0,0.0
1203,49.0,0.0,30.0,11.0,0.0
1204,37.0,42.0,30.0,12.0,0.0
1205,56.0,0.0,90.0,13.0,0.0
1206,65.0,6.0,90.0,13.0,0.0
1207,49.0,0.0,30.0,13.0,0.0
1208,65.0,0.0,30.0,2.0,0.0
1209,61.0,0.0,90.0,3.0,0.0
1210,56.0,0.0,90.0,4.0,0.0
1211,61.0,0.0,90.0,8.0,0.0
1212,65.0,0.0,30.0,7.0,0.0
1213,56.0,0.0,30.0,0.0,0.0
1214,65.0,0.0,30.0,6.0,0.0
1215,63.0,0.0,30.0,6.0,0.0
1216,56.0,0.0,30.0,0.0,0.0
1217,48.0,0.0,30.0,11.0,0.0
1218,63.0,0.0,30.0,2.0,0.0
1219,48.0,48.0,30.0,5.0,0.0
1220,36.0,0.0,30.0,12.0,0.0
1221,63.0,0.0,30.0,7.0,0.0
1222,48.0,0.0,30.0,13.0,0.0
1223,46.0,0.0,30.0,11.0,0.0
1224,56.0,0.0,90.0,10.0,0.0
1225,68.0,0.0,90.0,7.0,0.0
1226,60.0,0.0,90.0,3.0,0.0
1227,60.0,0.0,90.0,8.0,0.0
1228,56.0,6.0,90.0,4.0,0.0
1229,68.0,0.0,90.0,6.0,0.0
1230,46.0,0.0,30.0,5.0,0.0
1231,68.0,0.0,90.0,13.0,0.0
1232,46.0,0.0,30.0,13.0,0.0
1233,34.0,42.0,30.0,12.0,0.0
1234,56.0,0.0,30.0,0.0,0.0
1235,60.0,0.0,90.0,13.0,0.0
1236,68.0,0.0,90.0,2.0,0.0
1237,56.0,0.0,30.0,0.0,0.0
1238,44.0,16.0,30.0,11.0,0.0
1239,44.0,0.0,30.0,5.0,0.0
1240,44.0,0.0,30.0,13.0,0.0
1241,32.0,0.0,30.0,12.0,0.0
1242,56.0,0.0,90.0,0.0,0.0
1243,49.0,0.0,90.0,11.0,0.0
1244,56.0,0.0,180.0,10.0,0.0
1245,65.0,0.0,90.0,13.0,0.0
1246,49.0,10.0,90.0,5.0,0.0
1247,37.0,0.0,90.0,12.0,0.0
1248,56.0,0.0,90.0,1.0,0.0
1249,49.0,0.0,90.0,13.0,0.0
1250,56.0,0.0,90.0,13.0,0.0
1251,66.0,12.0,15.0,7.0,0.0
1252,61.0,0.0,180.0,8.0,0.0
1253,61.0,0.0,180.0,3.0,0.0
1254,65.0,6.0,180.0,2.0,0.0
1255,56.0,0.0,180.0,4.0,0.0
1256,66.0,0.0,15.0,6.0,0.0
1257,65.0,0.0,15.0,6.0,0.0
1258,65.0,12.0,15.0,7.0,0.0
1259,66.0,12.0,15.0,6.0,0.0
1260,66.0,0.0,15.0,7.0,0.0
1261,65.0,12.0,15.0,7.0,0.0
1262,65.0,0.0,15.0,6.0,0.0
1263,66.0,12.0,15.0,7.0,0.0
1264,66.0,0.0,15.0,6.0,0.0
1265,65.0,0.0,15.0,7.0,0.0
1266,65.0,12.0,15.0,6.0,0.0
1267,66.0,0.0,15.0,6.0,0.0
1268,66.0,2.0,15.0,7.0,0.0
1269,65.0,12.0,15.0,7.0,0.0
1270,65.0,0.0,15.0,6.0,0.0
1271,65.0,0.0,90.0,13.0,0.0
1272,68.0,0.0,90.0,13.0,0.0
1273,56.0,0.0,30.0,1.0,0.0
1274,66.0,0.0,15.0,6.0,0.0
1275,36.0,4.0,30.0,12.0,0.0
1276,48.0,0.0,30.0,13.0,0.0
1277,48.0,0.0,30.0,11.0,0.0
1278,48.0,0.0,30.0,5.0,0.0
1279,66.0,12.0,15.0,7.0,0.0
1280,65.0,0.0,15.0,6.0,0.0
1281,65.0,12.0,15.0,7.0,0.0
1282,66.0,0.0,15.0,7.0,0.0
1283,66.0,8.0,15.0,6.0,0.0
1284,65.0,12.0,15.0,7.0,0.0
1285,65.0,0.0,15.0,6.0,0.0
1286,66.0,12.0,15.0,7.0,0.0
1287,66.0,0.0,15.0,6.0,0.0
1288,46.0,0.0,30.0,13.0,0.0
1289,56.0,0.0,30.0,1.0,0.0
1290,46.0,0.0,30.0,5.0,0.0
1291,34.0,0.0,30.0,12.0,0.0
1292,46.0,4.0,30.0,11.0,0.0
1293,65.0,0.0,15.0,6.0,0.0
1294,65.0,12.0,15.0,7.0,0.0
1295,66.0,2.0,15.0,6.0,0.0
1296,66.0,0.0,15.0,7.0,0.0
1297,65.0,44.0,15.0,6.0,0.0
1298,65.0,0.0,15.0,7.0,0.0
1299,63.0,0.0,90.0,8.0,0.0
1300,48.0,0.0,90.0,13.0,0.0
1301,68.0,0.0,90.0,13.0,0.0
1302,63.0,0.0,90.0,13.0,0.0
1303,63.0,0.0,90.0,2.0,0.0
1304,63.0,0.0,90.0,6.0,0.0
1305,63.0,0.0,90.0,3.0,0.0
1306,56.0,42.0,30.0,1.0,0.0
1307,56.0,0.0,90.0,4.0,0.0
1308,48.0,0.0,90.0,5.0,0.0
1309,56.0,0.0,90.0,10.0,0.0
1310,36.0,0.0,90.0,12.0,0.0
1311,63.0,0.0,90.0,7.0,0.0
1312,48.0,6.0,90.0,11.0,0.0
1313,56.0,16.0,30.0,1.0,0.0
1314,60.0,12.0,15.0,10.0,0.0
1315,61.0,0.0,90.0,8.0,0.0
1316,67.0,4.0,30.0,6.0,0.0
1317,34.0,0.0,90.0,12.0,0.0
1318,63.0,0.0,90.0,1.0,0.0
1319,67.0,0.0,90.0,13.0,0.0
1320,46.0,0.0,90.0,13.0,0.0
1321,67.0,0.0,30.0,7.0,0.0
1322,61.0,0.0,90.0,3.0,0.0
1323,58.0,0.0,90.0,4.0,0.0
1324,61.0,0.0,90.0,13.0,0.0
1325,67.0,0.0,30.0,2.0,0.0
1326,46.0,6.0,90.0,5.0,0.0
1327,46.0,0.0,90.0,11.0,0.0
1328,63.0,0.0,90.0,0.0,0.0
1329,58.0,12.0,15.0,10.0,0.0
1330,60.0,8.0,15.0,10.0,0.0
1331,58.0,12.0,15.0,10.0,0.0
1332,68.0,0.0,30.0,6.0,0.0
1333,68.0,4.0,30.0,7.0,0.0
1334,60.0,12.0,15.0,10.0,0.0
1335,68.0,0.0,30.0,2.0,0.0
1336,58.0,12.0,15.0,10.0,0.0
1337,60.0,2.0,15.0,10.0,0.0
1338,58.0,12.0,15.0,10.0,0.0
1339,56.0,0.0,30.0,10.0,0.0
1340,48.0,0.0,90.0,13.0,0.0
1341,68.0,0.0,90.0,13.0,0.0
1342,63.0,0.0,90.0,13.0,0.0
1343,70.0,0.0,15.0,2.0,0.0
1344,63.0,0.0,180.0,3.0,0.0
1345,70.0,0.0,15.0,7.0,0.0
1346,70.0,12.0,15.0,6.0,0.0
1347,63.0,0.0,30.0,0.0,0.0
1348,56.0,4.0,30.0,4.0,0.0
1349,48.0,0.0,90.0,5.0,0.0
1350,63.0,0.0,180.0,8.0,0.0
1351,48.0,6.0,90.0,11.0,0.0
1352,36.0,0.0,90.0,12.0,0.0
1353,68.0,12.0,15.0,7.0,0.0
1354,68.0,0.0,15.0,2.0,0.0
1355,68.0,0.0,15.0,6.0,0.0
1356,70.0,0.0,15.0,6.0,0.0
1357,70.0,8.0,15.0,2.0,0.0
1358,70.0,0.0,15.0,7.0,0.0
1359,68.0,12.0,15.0,2.0,0.0
1360,68.0,0.0,15.0,7.0,0.0
1361,68.0,0.0,15.0,6.0,0.0
1362,58.0,0.0,30.0,10.0,0.0
1363,70.0,0.0,15.0,6.0,0.0
1364,58.0,4.0,30.0,4.0,0.0
1365,63.0,0.0,30.0,0.0,0.0
1366,70.0,0.0,15.0,7.0,0.0
1367,70.0,12.0,15.0,2.0,0.0
1368,68.0,0.0,15.0,2.0,0.0
1369,68.0,0.0,15.0,6.0,0.0
1370,68.0,12.0,15.0,7.0,0.0
1371,70.0,0.0,15.0,2.0,0.0
1372,70.0,2.0,15.0,7.0,0.0
1373,70.0,0.0,15.0,6.0,0.0
1374,68.0,12.0,15.0,6.0,0.0
1375,68.0,0.0,15.0,2.0,0.0
1376,68.0,0.0,15.0,7.0,0.0
1377,63.0,4.0,30.0,0.0,0.0
1378,63.0,0.0,90.0,13.0,0.0
1379,72.0,0.0,90.0,13.0,0.0
1380,44.0,0.0,90.0,13.0,0.0
1381,70.0,12.0,15.0,2.0,0.0
1382,70.0,0.0,15.0,7.0,0.0
1383,44.0,0.0,90.0,11.0,0.0
1384,60.0,0.0,90.0,10.0,0.0
1385,70.0,0.0,15.0,6.0,0.0
1386,32.0,0.0,90.0,12.0,0.0
1387,44.0,0.0,90.0,5.0,0.0
1388,60.0,6.0,90.0,4.0,0.0
1389,68.0,12.0,15.0,6.0,0.0
1390,68.0,0.0,15.0,7.0,0.0
1391,68.0,0.0,15.0,2.0,0.0
1392,70.0,0.0,15.0,2.0,0.0
1393,70.0,0.0,15.0,6.0,0.0
1394,70.0,8.0,15.0,7.0,0.0
1395,68.0,23.0,15.0,6.0,0.0
1396,68.0,0.0,15.0,2.0,0.0
1397,68.0,0.0,15.0,7.0,0.0
1398,63.0,3.0,30.0,0.0,0.0
1399,67.0,0.0,20.0,6.0,0.0
1400,67.0,0.0,20.0,7.0,0.0
1401,67.0,15.0,20.0,2.0,0.0
1402,68.0,0.0,20.0,7.0,0.0
1403,68.0,0.0,20.0,6.0,0.0
1404,68.0,87.0,20.0,2.0,0.0
1405,70.0,0.0,90.0,2.0,0.0
1406,63.0,0.0,90.0,0.0,0.0
1407,63.0,0.0,180.0,3.0,0.0
1408,43.0,0.0,90.0,13.0,0.0
1409,63.0,6.0,180.0,8.0,0.0
1410,70.0,0.0,90.0,7.0,0.0
1411,70.0,54.0,90.0,6.0,0.0
1412,63.0,0.0,90.0,13.0,0.0
1413,70.0,0.0,90.0,13.0,0.0
1414,43.0,0.0,90.0,11.0,0.0
1415,31.0,0.0,90.0,12.0,0.0
1416,43.0,0.0,90.0,5.0,0.0
1417,58.0,0.0,180.0,4.0,0.0
1418,58.0,0.0,180.0,10.0,0.0
1419,63.0,0.0,90.0,1.0,0.0
1420,63.0,42.0,30.0,1.0,0.0
1421,63.0,0.0,90.0,13.0,0.0
1422,68.0,0.0,30.0,6.0,0.0
1423,68.0,0.0,30.0,7.0,0.0
1424,68.0,0.0,90.0,13.0,0.0
1425,29.0,0.0,30.0,12.0,0.0
1426,41.0,0.0,30.0,11.0,0.0
1427,41.0,0.0,30.0,5.0,0.0
1428,68.0,0.0,30.0,2.0,0.0
1429,41.0,0.0,30.0,13.0,0.0
1430,27.0,0.0,30.0,12.0,0.0
1431,39.0,0.0,30.0,13.0,0.0
1432,39.0,0.0,30.0,11.0,0.0
1433,63.0,0.0,30.0,1.0,0.0
1434,39.0,0.0,30.0,5.0,0.0
1435,67.0,0.0,30.0,7.0,0.0
1436,67.0,0.0,30.0,2.0,0.0
1437,67.0,48.0,30.0,6.0,0.0
1438,68.0,0.0,90.0,2.0,0.0
1439,63.0,0.0,30.0,1.0,0.0
1440,37.0,0.0,30.0,5.0,0.0
1441,63.0,0.0,90.0,8.0,0.0
1442,68.0,0.0,90.0,7.0,0.0
1443,37.0,0.0,30.0,11.0,0.0
1444,63.0,0.0,90.0,13.0,0.0
1445,63.0,0.0,90.0,3.0,0.0
1446,60.0,0.0,90.0,10.0,0.0
1447,60.0,6.0,90.0,4.0,0.0
1448,37.0,0.0,30.0,13.0,0.0
1449,68.0,0.0,90.0,13.0,0.0
1450,68.0,0.0,90.0,6.0,0.0
1451,25.0,42.0,30.0,12.0,0.0
1452,24.0,0.0,30.0,12.0,0.0
1453,36.0,0.0,30.0,11.0,0.0
1454,36.0,48.0,30.0,5.0,0.0
1455,36.0,0.0,30.0,13.0,0.0
1456,63.0,0.0,30.0,1.0,0.0
1457,65.0,42.0,30.0,8.0,0.0
1458,29.0,0.0,30.0,12.0,0.0
1459,56.0,0.0,90.0,4.0,0.0
1460,73.0,0.0,30.0,6.0,0.0
1461,41.0,0.0,30.0,5.0,0.0
1462,41.0,0.0,30.0,13.0,0.0
1463,68.0,0.0,30.0,0.0,0.0
1464,73.0,0.0,30.0,2.0,0.0
1465,65.0,0.0,30.0,3.0,0.0
1466,56.0,6.0,90.0,10.0,0.0
1467,65.0,0.0,90.0,1.0,0.0
1468,73.0,0.0,30.0,7.0,0.0
1469,61.0,0.0,90.0,13.0,0.0
1470,68.0,0.0,90.0,13.0,0.0
1471,41.0,0.0,30.0,11.0,0.0
1472,67.0,0.0,30.0,0.0,0.0
1473,75.0,0.0,30.0,2.0,0.0
1474,67.0,0.0,30.0,3.0,0.0
1475,75.0,16.0,30.0,7.0,0.0
1476,25.0,0.0,30.0,12.0,0.0
1477,37.0,0.0,30.0,5.0,0.0
1478,37.0,0.0,30.0,11.0,0.0
1479,75.0,0.0,30.0,6.0,0.0
1480,37.0,0.0,30.0,13.0,0.0
1481,67.0,0.0,30.0,8.0,0.0
1482,70.0,0.0,120.0,2.0,0.0
1483,63.0,0.0,90.0,4.0,0.0
1484,63.0,4.0,30.0,1.0,0.0
1485,67.0,6.0,120.0,0.0,0.0
1486,39.0,0.0,90.0,13.0,0.0
1487,66.0,0.0,90.0,13.0,0.0
1488,58.0,0.0,90.0,13.0,0.0
1489,70.0,0.0,120.0,6.0,0.0
1490,67.0,0.0,120.0,8.0,0.0
1491,70.0,0.0,120.0,7.0,0.0
1492,27.0,0.0,90.0,12.0,0.0
1493,39.0,6.0,90.0,11.0,0.0
1494,63.0,0.0,90.0,10.0,0.0
1495,39.0,0.0,90.0,5.0,0.0
1496,68.0,12.0,15.0,3.0,0.0
1497,67.0,12.0,15.0,3.0,0.0
1498,68.0,8.0,15.0,3.0,0.0
1499,67.0,12.0,15.0,3.0,0.0
1500,63.0,4.0,30.0,1.0,0.0
1501,68.0,12.0,15.0,3.0,0.0
1502,67.0,12.0,15.0,3.0,0.0
1503,68.0,2.0,15.0,3.0,0.0
1504,67.0,12.0,15.0,3.0,0.0
1505,61.0,0.0,90.0,10.0,0.0
1506,27.0,6.0,90.0,12.0,0.0
1507,39.0,0.0,90.0,11.0,0.0
1508,39.0,0.0,90.0,5.0,0.0
1509,66.0,0.0,90.0,13.0,0.0
1510,39.0,0.0,90.0,13.0,0.0
1511,61.0,0.0,90.0,4.0,0.0
1512,63.0,4.0,30.0,1.0,0.0
1513,61.0,0.0,90.0,13.0,0.0
1514,68.0,12.0,15.0,3.0,0.0
1515,67.0,12.0,15.0,3.0,0.0
1516,68.0,2.0,15.0,3.0,0.0
1517,67.0,38.0,15.0,3.0,0.0
1518,63.0,0.0,30.0,3.0,0.0
1519,68.0,0.0,30.0,7.0,0.0
1520,68.0,90.0,30.0,0.0,0.0
1521,63.0,0.0,30.0,1.0,0.0
1522,68.0,0.0,30.0,2.0,0.0
1523,68.0,0.0,30.0,6.0,0.0
1524,63.0,0.0,30.0,8.0,0.0
1525,68.0,0.0,270.0,0.0,0.0
1526,68.0,0.0,270.0,2.0,0.0
1527,68.0,0.0,270.0,7.0,0.0
1528,63.0,0.0,270.0,13.0,0.0
1529,63.0,0.0,270.0,1.0,0.0
1530,72.0,0.0,270.0,13.0,0.0
1531,32.0,0.0,90.0,13.0,0.0
1532,32.0,0.0,90.0,11.0,0.0
1533,20.0,0.0,90.0,12.0,0.0
1534,60.0,0.0,270.0,10.0,0.0
1535,68.0,0.0,270.0,6.0,0.0
1536,32.0,96.0,90.0,5.0,0.0
1537,60.0,96.0,270.0,4.0,0.0
1538,63.0,0.0,270.0,3.0,0.0
1539,63.0,0.0,270.0,8.0,0.0
1540,44.0,0.0,90.0,11.0,0.0
1541,44.0,96.0,90.0,13.0,0.0
1542,32.0,0.0,90.0,12.0,0.0
1543,44.0,0.0,90.0,5.0,0.0
1544,34.0,0.0,90.0,12.0,0.0
1545,46.0,0.0,90.0,11.0,0.0
1546,46.0,0.0,90.0,5.0,0.0
1547,46.0,0.0,90.0,13.0,0.0
1548,75.0,0.0,90.0,6.0,0.0
1549,63.0,0.0,90.0,13.0,0.0
1550,56.0,0.0,90.0,0.0,0.0
1551,68.0,0.0,90.0,3.0,0.0
1552,48.0,0.0,180.0,5.0,0.0
1553,63.0,0.0,180.0,4.0,0.0
1554,63.0,0.0,180.0,10.0,0.0
1555,68.0,0.0,90.0,8.0,0.0
1556,36.0,0.0,180.0,12.0,0.0
1557,75.0,54.0,90.0,2.0,0.0
1558,75.0,0.0,90.0,7.0,0.0
1559,48.0,0.0,180.0,11.0,0.0
1560,48.0,0.0,180.0,13.0,0.0
1561,68.0,0.0,90.0,13.0,0.0
1562,75.0,0.0,90.0,3.0,0.0
1563,63.0,0.0,90.0,13.0,0.0
1564,66.0,0.0,90.0,13.0,0.0
1565,56.0,42.0,30.0,0.0,0.0
1566,78.0,0.0,90.0,7.0,0.0
1567,75.0,0.0,90.0,8.0,0.0
1568,78.0,0.0,90.0,2.0,0.0
1569,78.0,6.0,90.0,6.0,0.0
1570,56.0,48.0,30.0,0.0,0.0
1571,49.0,0.0,90.0,11.0,0.0
1572,77.0,0.0,90.0,2.0,0.0
1573,49.0,0.0,90.0,13.0,0.0
1574,65.0,0.0,90.0,13.0,0.0
1575,77.0,0.0,90.0,6.0,0.0
1576,37.0,0.0,90.0,12.0,0.0
1577,73.0,0.0,90.0,8.0,0.0
1578,56.0,0.0,90.0,13.0,0.0
1579,73.0,0.0,90.0,3.0,0.0
1580,77.0,0.0,90.0,7.0,0.0
1581,49.0,0.0,90.0,5.0,0.0
1582,68.0,0.0,90.0,4.0,0.0
1583,68.0,6.0,90.0,10.0,0.0
1584,56.0,42.0,30.0,0.0,0.0
1585,56.0,16.0,30.0,0.0,0.0
1586,75.0,0.0,90.0,7.0,0.0
1587,72.0,0.0,90.0,3.0,0.0
1588,68.0,12.0,15.0,10.0,0.0
1589,51.0,0.0,90.0,5.0,0.0
1590,51.0,10.0,90.0,13.0,0.0
1591,66.0,0.0,90.0,13.0,0.0
1592,51.0,0.0,90.0,11.0,0.0
1593,39.0,0.0,90.0,12.0,0.0
1594,77.0,0.0,15.0,6.0,0.0
1595,75.0,0.0,90.0,2.0,0.0
1596,72.0,0.0,90.0,8.0,0.0
1597,56.0,0.0,90.0,1.0,0.0
1598,60.0,0.0,90.0,13.0,0.0
1599,66.0,0.0,90.0,4.0,0.0
1600,56.0,0.0,90.0,0.0,0.0
1601,75.0,12.0,15.0,6.0,0.0
1602,66.0,0.0,15.0,10.0,0.0
1603,68.0,12.0,15.0,10.0,0.0
1604,77.0,0.0,15.0,6.0,0.0
1605,66.0,12.0,15.0,10.0,0.0
1606,75.0,0.0,15.0,6.0,0.0
1607,68.0,0.0,15.0,10.0,0.0
1608,77.0,12.0,15.0,6.0,0.0
1609,75.0,0.0,15.0,6.0,0.0
1610,66.0,12.0,15.0,10.0,0.0
1611,77.0,0.0,15.0,6.0,0.0
1612,68.0,2.0,15.0,10.0,0.0
1613,66.0,44.0,15.0,10.0,0.0
1614,75.0,0.0,15.0,6.0,0.0
1615,65.0,42.0,30.0,4.0,0.0
1616,68.0,0.0,90.0,3.0,0.0
1617,73.0,0.0,30.0,7.0,0.0
1618,54.0,0.0,90.0,5.0,0.0
1619,54.0,6.0,90.0,11.0,0.0
1620,73.0,0.0,30.0,6.0,0.0
1621,68.0,0.0,90.0,8.0,0.0
1622,42.0,0.0,90.0,12.0,0.0
1623,60.0,0.0,90.0,13.0,0.0
1624,65.0,0.0,30.0,10.0,0.0
1625,73.0,0.0,30.0,2.0,0.0
1626,56.0,0.0,30.0,1.0,0.0
1627,68.0,0.0,90.0,13.0,0.0
1628,54.0,0.0,90.0,13.0,0.0
1629,63.0,0.0,30.0,4.0,0.0
1630,56.0,0.0,30.0,1.0,0.0
1631,72.0,48.0,30.0,7.0,0.0
1632,63.0,0.0,30.0,10.0,0.0
1633,72.0,0.0,30.0,2.0,0.0
1634,72.0,0.0,30.0,6.0,0.0
1635,65.0,0.0,90.0,10.0,0.0
1636,56.0,42.0,30.0,1.0,0.0
1637,53.0,0.0,90.0,11.0,0.0
1638,73.0,0.0,90.0,6.0,0.0
1639,65.0,0.0,90.0,4.0,0.0
1640,61.0,0.0,90.0,13.0,0.0
1641,68.0,0.0,90.0,13.0,0.0
1642,53.0,0.0,90.0,13.0,0.0
1643,53.0,0.0,90.0,5.0,0.0
1644,73.0,0.0,90.0,7.0,0.0
1645,68.0,0.0,90.0,8.0,0.0
1646,41.0,6.0,90.0,12.0,0.0
1647,73.0,0.0,90.0,2.0,0.0
1648,68.0,0.0,90.0,3.0,0.0
1649,56.0,90.0,30.0,1.0,0.0
1650,56.0,0.0,90.0,1.0,0.0
1651,60.0,0.0,90.0,13.0,0.0
1652,66.0,0.0,90.0,13.0,0.0
1653,51.0,0.0,90.0,13.0,0.0
1654,72.0,54.0,90.0,8.0,0.0
1655,75.0,0.0,90.0,2.0,0.0
1656,66.0,0.0,90.0,4.0,0.0
1657,56.0,0.0,90.0,0.0,0.0
1658,39.0,0.0,90.0,12.0,0.0
1659,51.0,0.0,90.0,5.0,0.0
1660,66.0,0.0,90.0,10.0,0.0
1661,51.0,0.0,90.0,11.0,0.0
1662,72.0,0.0,90.0,3.0,0.0
1663,75.0,0.0,90.0,7.0,0.0
1664,75.0,0.0,90.0,6.0,0.0
1665,66.0,0.0,90.0,13.0,0.0
1666,49.0,42.0,30.0,13.0,0.0
1667,78.0,0.0,90.0,7.0,0.0
1668,78.0,0.0,90.0,6.0,0.0
1669,58.0,0.0,90.0,13.0,0.0
1670,75.0,0.0,90.0,8.0,0.0
1671,75.0,0.0,90.0,3.0,0.0
1672,37.0,0.0,30.0,12.0,0.0
1673,63.0,6.0,90.0,10.0,0.0
1674,49.0,0.0,30.0,11.0,0.0
1675,56.0,0.0,30.0,0.0,0.0
1676,78.0,0.0,90.0,2.0,0.0
1677,49.0,0.0,30.0,5.0,0.0
1678,63.0,0.0,90.0,4.0,0.0
1679,36.0,0.0,30.0,12.0,0.0
1680,48.0,0.0,30.0,5.0,0.0
1681,48.0,48.0,30.0,11.0,0.0
1682,56.0,0.0,30.0,0.0,0.0
1683,48.0,0.0,30.0,13.0,0.0
1684,68.0,0.0,90.0,10.0,0.0
1685,56.0,42.0,30.0,0.0,0.0
1686,37.0,0.0,90.0,12.0,0.0
1687,77.0,0.0,90.0,2.0,0.0
1688,49.0,0.0,90.0,13.0,0.0
1689,65.0,0.0,90.0,13.0,0.0
1690,56.0,6.0,90.0,13.0,0.0
1691,77.0,0.0,90.0,6.0,0.0
1692,49.0,0.0,90.0,5.0,0.0
1693,77.0,0.0,90.0,7.0,0.0
1694,73.0,0.0,90.0,3.0,0.0
1695,49.0,0.0,90.0,11.0,0.0
1696,68.0,0.0,90.0,4.0,0.0
1697,73.0,0.0,90.0,8.0,0.0
1698,56.0,16.0,30.0,0.0,0.0
1699,48.0,0.0,90.0,5.0,0.0
1700,56.0,0.0,90.0,1.0,0.0
1701,75.0,0.0,90.0,8.0,0.0
1702,48.0,0.0,90.0,13.0,0.0
1703,63.0,10.0,90.0,13.0,0.0
1704,75.0,0.0,90.0,3.0,0.0
1705,56.0,0.0,90.0,13.0,0.0
1706,68.0,6.0,180.0,4.0,0.0
1707,77.0,12.0,15.0,2.0,0.0
1708,77.0,0.0,15.0,7.0,0.0
1709,48.0,0.0,90.0,11.0,0.0
1710,36.0,0.0,90.0,12.0,0.0
1711,77.0,0.0,15.0,6.0,0.0
1712,68.0,0.0,180.0,10.0,0.0
1713,56.0,0.0,90.0,0.0,0.0
1714,75.0,0.0,15.0,6.0,0.0
1715,75.0,0.0,15.0,2.0,0.0
1716,75.0,12.0,15.0,7.0,0.0
1717,77.0,0.0,15.0,2.0,0.0
1718,77.0,12.0,15.0,6.0,0.0
1719,77.0,0.0,15.0,7.0,0.0
1720,75.0,0.0,15.0,2.0,0.0
1721,75.0,0.0,15.0,6.0,0.0
1722,75.0,12.0,15.0,7.0,0.0
1723,77.0,0.0,15.0,6.0,0.0
1724,77.0,12.0,15.0,2.0,0.0
1725,77.0,0.0,15.0,7.0,0.0
1726,75.0,0.0,15.0,2.0,0.0
1727,75.0,0.0,15.0,6.0,0.0
1728,75.0,12.0,15.0,7.0,0.0
1729,77.0,0.0,15.0,6.0,0.0
1730,77.0,0.0,15.0,2.0,0.0
1731,77.0,2.0,15.0,7.0,0.0
1732,75.0,0.0,15.0,6.0,0.0
1733,75.0,12.0,15.0,2.0,0.0
1734,75.0,0.0,15.0,7.0,0.0
1735,77.0,12.0,15.0,7.0,0.0
1736,77.0,0.0,15.0,6.0,0.0
1737,37.0,0.0,30.0,12.0,0.0
1738,73.0,0.0,90.0,8.0,0.0
1739,49.0,0.0,30.0,11.0,0.0
1740,73.0,0.0,90.0,3.0,0.0
1741,49.0,0.0,30.0,5.0,0.0
1742,49.0,0.0,30.0,13.0,0.0
1743,68.0,0.0,90.0,13.0,0.0
1744,61.0,0.0,90.0,13.0,0.0
1745,56.0,4.0,30.0,1.0,0.0
1746,77.0,0.0,15.0,2.0,0.0
1747,75.0,0.0,15.0,6.0,0.0
1748,75.0,0.0,15.0,7.0,0.0
1749,75.0,12.0,15.0,2.0,0.0
1750,77.0,0.0,15.0,7.0,0.0
1751,77.0,0.0,15.0,2.0,0.0
1752,77.0,8.0,15.0,6.0,0.0
1753,75.0,12.0,15.0,2.0,0.0
1754,75.0,0.0,15.0,7.0,0.0
1755,75.0,0.0,15.0,6.0,0.0
1756,48.0,0.0,30.0,11.0,0.0
1757,48.0,0.0,30.0,5.0,0.0
1758,77.0,0.0,15.0,2.0,0.0
1759,36.0,0.0,30.0,12.0,0.0
1760,56.0,0.0,30.0,1.0,0.0
1761,48.0,4.0,30.0,13.0,0.0
1762,77.0,12.0,15.0,6.0,0.0
1763,77.0,0.0,15.0,7.0,0.0
1764,75.0,12.0,15.0,2.0,0.0
1765,75.0,0.0,15.0,6.0,0.0
1766,75.0,0.0,15.0,7.0,0.0
1767,77.0,2.0,15.0,7.0,0.0
1768,77.0,0.0,15.0,6.0,0.0
1769,77.0,0.0,15.0,2.0,0.0
1770,75.0,0.0,15.0,2.0,0.0
1771,75.0,0.0,15.0,7.0,0.0
1772,75.0,44.0,15.0,6.0,0.0
1773,46.0,42.0,30.0,5.0,0.0
1774,63.0,6.0,90.0,4.0,0.0
1775,63.0,0.0,90.0,10.0,0.0
1776,80.0,0.0,90.0,2.0,0.0
1777,72.0,0.0,90.0,3.0,0.0
1778,46.0,0.0,30.0,11.0,0.0
1779,63.0,0.0,90.0,13.0,0.0
1780,46.0,0.0,30.0,13.0,0.0
1781,72.0,0.0,90.0,8.0,0.0
1782,80.0,0.0,90.0,7.0,0.0
1783,34.0,0.0,30.0,12.0,0.0
1784,56.0,0.0,30.0,1.0,0.0
1785,72.0,0.0,90.0,13.0,0.0
1786,80.0,0.0,90.0,6.0,0.0
1787,44.0,0.0,30.0,13.0,0.0
1788,56.0,0.0,30.0,1.0,0.0
1789,32.0,0.0,30.0,12.0,0.0
1790,44.0,16.0,30.0,5.0,0.0
1791,44.0,0.0,30.0,11.0,0.0
1792,44.0,1.0,20.0,5.0,0.0
1793,63.0,0.0,180.0,4.0,0.0
1794,32.0,0.0,15.0,12.0,0.0
1795,70.0,6.0,180.0,8.0,0.0
1796,63.0,0.0,90.0,1.0,0.0
1797,73.0,9.0,90.0,7.0,0.0
1798,73.0,0.0,90.0,6.0,0.0
1799,70.0,0.0,90.0,13.0,0.0
1800,63.0,0.0,90.0,13.0,0.0
1801,44.0,11.0,15.0,11.0,0.0
1802,73.0,0.0,90.0,2.0,0.0
1803,70.0,0.0,180.0,3.0,0.0
1804,63.0,0.0,90.0,0.0,0.0
1805,63.0,0.0,180.0,10.0,0.0
1806,44.0,0.0,15.0,13.0,0.0
1807,31.0,12.0,15.0,12.0,0.0
1808,43.0,0.0,15.0,11.0,0.0
1809,43.0,0.0,15.0,13.0,0.0
1810,44.0,0.0,15.0,11.0,0.0
1811,43.0,1.0,20.0,5.0,0.0
1812,44.0,0.0,15.0,13.0,0.0
1813,32.0,11.0,15.0,12.0,0.0
1814,31.0,12.0,15.0,12.0,0.0
1815,43.0,0.0,15.0,13.0,0.0
1816,43.0,0.0,15.0,11.0,0.0
1817,44.0,0.0,15.0,13.0,0.0
1818,32.0,11.0,15.0,12.0,0.0
1819,44.0,1.0,20.0,5.0,0.0
1820,44.0,0.0,15.0,11.0,0.0
1821,31.0,0.0,15.0,12.0,0.0
1822,43.0,0.0,15.0,11.0,0.0
1823,43.0,12.0,15.0,13.0,0.0
1824,43.0,1.0,20.0,5.0,0.0
1825,32.0,0.0,15.0,12.0,0.0
1826,44.0,0.0,15.0,13.0,0.0
1827,44.0,2.0,15.0,11.0,0.0
1828,31.0,12.0,15.0,12.0,0.0
1829,43.0,0.0,15.0,11.0,0.0
1830,43.0,0.0,15.0,13.0,0.0
1831,44.0,11.0,15.0,11.0,0.0
1832,70.0,0.0,90.0,7.0,0.0
1833,70.0,0.0,90.0,6.0,0.0
1834,63.0,3.0,30.0,0.0,0.0
1835,44.0,0.0,15.0,13.0,0.0
1836,44.0,1.0,20.0,5.0,0.0
1837,32.0,0.0,15.0,12.0,0.0
1838,67.0,0.0,90.0,13.0,0.0
1839,58.0,0.0,90.0,13.0,0.0
1840,70.0,0.0,90.0,2.0,0.0
1841,43.0,0.0,15.0,13.0,0.0
1842,31.0,0.0,15.0,12.0,0.0
1843,43.0,12.0,15.0,11.0,0.0
1844,32.0,0.0,15.0,12.0,0.0
1845,43.0,1.0,20.0,5.0,0.0
1846,44.0,0.0,15.0,13.0,0.0
1847,44.0,8.0,15.0,11.0,0.0
1848,43.0,12.0,15.0,11.0,0.0
1849,43.0,0.0,15.0,13.0,0.0
1850,31.0,0.0,15.0,12.0,0.0
1851,44.0,1.0,20.0,5.0,0.0
1852,32.0,0.0,15.0,12.0,0.0
1853,63.0,3.0,30.0,0.0,0.0
1854,44.0,11.0,15.0,13.0,0.0
1855,44.0,0.0,15.0,11.0,0.0
1856,43.0,0.0,15.0,13.0,0.0
1857,31.0,12.0,15.0,12.0,0.0
1858,43.0,0.0,15.0,11.0,0.0
1859,44.0,0.0,15.0,13.0,0.0
1860,43.0,1.0,20.0,5.0,0.0
1861,32.0,2.0,15.0,12.0,0.0
1862,44.0,0.0,15.0,11.0,0.0
1863,43.0,0.0,15.0,11.0,0.0
1864,43.0,0.0,15.0,13.0,0.0
1865,31.0,44.0,15.0,12.0,0.0
1866,44.0,0.0,90.0,11.0,0.0
1867,44.0,0.0,90.0,13.0,0.0
1868,72.0,0.0,90.0,13.0,0.0
1869,72.0,0.0,90.0,6.0,0.0
1870,44.0,0.0,90.0,5.0,0.0
1871,68.0,0.0,90.0,8.0,0.0
1872,63.0,0.0,90.0,4.0,0.0
1873,68.0,0.0,90.0,3.0,0.0
1874,63.0,0.0,90.0,13.0,0.0
1875,72.0,0.0,90.0,7.0,0.0
1876,72.0,6.0,90.0,2.0,0.0
1877,63.0,0.0,90.0,10.0,0.0
1878,32.0,0.0,90.0,12.0,0.0
1879,63.0,42.0,30.0,0.0,0.0
1880,63.0,48.0,30.0,0.0,0.0
1881,67.0,0.0,90.0,13.0,0.0
1882,63.0,0.0,90.0,1.0,0.0
1883,58.0,6.0,90.0,10.0,0.0
1884,67.0,42.0,30.0,8.0,0.0
1885,58.0,0.0,90.0,4.0,0.0
1886,73.0,0.0,90.0,2.0,0.0
1887,73.0,0.0,90.0,6.0,0.0
1888,63.0,0.0,90.0,0.0,0.0
1889,73.0,0.0,90.0,13.0,0.0
1890,46.0,0.0,90.0,11.0,0.0
1891,46.0,0.0,90.0,5.0,0.0
1892,67.0,0.0,30.0,3.0,0.0
1893,73.0,0.0,90.0,7.0,0.0
1894,34.0,0.0,90.0,12.0,0.0
1895,46.0,0.0,90.0,13.0,0.0
1896,68.0,16.0,30.0,3.0,0.0
1897,68.0,0.0,30.0,8.0,0.0
1898,77.0,0.0,180.0,7.0,0.0
1899,32.0,4.0,30.0,12.0,0.0
1900,77.0,0.0,180.0,6.0,0.0
1901,44.0,0.0,30.0,5.0,0.0
1902,77.0,0.0,180.0,2.0,0.0
1903,70.0,0.0,15.0,3.0,0.0
1904,70.0,12.0,15.0,8.0,0.0
1905,44.0,0.0,30.0,13.0,0.0
1906,44.0,0.0,30.0,11.0,0.0
1907,60.0,6.0,90.0,10.0,0.0
1908,63.0,0.0,30.0,1.0,0.0
1909,60.0,0.0,90.0,4.0,0.0
1910,65.0,0.0,90.0,13.0,0.0
1911,72.0,0.0,90.0,13.0,0.0
1912,68.0,12.0,15.0,3.0,0.0
1913,68.0,0.0,15.0,8.0,0.0
1914,70.0,8.0,15.0,8.0,0.0
1915,70.0,0.0,15.0,3.0,0.0
1916,68.0,12.0,15.0,3.0,0.0
1917,68.0,0.0,15.0,8.0,0.0
1918,63.0,4.0,30.0,1.0,0.0
1919,43.0,0.0,30.0,11.0,0.0
1920,70.0,12.0,15.0,8.0,0.0
1921,43.0,0.0,30.0,13.0,0.0
1922,43.0,0.0,30.0,5.0,0.0
1923,70.0,0.0,15.0,3.0,0.0
1924,31.0,0.0,30.0,12.0,0.0
1925,68.0,12.0,15.0,3.0,0.0
1926,68.0,0.0,15.0,8.0,0.0
1927,70.0,0.0,15.0,8.0,0.0
1928,70.0,2.0,15.0,3.0,0.0
1929,68.0,12.0,15.0,3.0,0.0
1930,68.0,0.0,15.0,8.0,0.0
1931,56.0,0.0,90.0,4.0,0.0
1932,70.0,0.0,15.0,3.0,0.0
1933,63.0,4.0,30.0,1.0,0.0
1934,56.0,0.0,90.0,10.0,0.0
1935,65.0,0.0,90.0,13.0,0.0
1936,44.0,0.0,90.0,5.0,0.0
1937,44.0,0.0,90.0,11.0,0.0
1938,44.0,0.0,90.0,13.0,0.0
1939,32.0,0.0,90.0,12.0,0.0
1940,70.0,12.0,15.0,8.0,0.0
1941,68.0,6.0,90.0,13.0,0.0
1942,68.0,12.0,15.0,3.0,0.0
1943,68.0,0.0,15.0,8.0,0.0
1944,70.0,0.0,15.0,8.0,0.0
1945,70.0,8.0,15.0,3.0,0.0
1946,68.0,0.0,15.0,3.0,0.0
1947,68.0,23.0,15.0,8.0,0.0
1948,63.0,3.0,30.0,1.0,0.0
1949,67.0,15.0,20.0,8.0,0.0
1950,67.0,0.0,20.0,3.0,0.0
1951,68.0,0.0,20.0,8.0,0.0
1952,68.0,87.0,20.0,3.0,0.0
1953,73.0,0.0,90.0,6.0,0.0
1954,70.0,0.0,90.0,13.0,0.0
1955,63.0,0.0,180.0,4.0,0.0
1956,31.0,0.0,90.0,12.0,0.0
1957,63.0,0.0,90.0,13.0,0.0
1958,43.0,0.0,90.0,5.0,0.0
1959,63.0,0.0,180.0,10.0,0.0
1960,43.0,0.0,90.0,13.0,0.0
1961,43.0,0.0,90.0,11.0,0.0
1962,63.0,54.0,90.0,0.0,0.0
1963,63.0,0.0,90.0,1.0,0.0
1964,70.0,0.0,90.0,3.0,0.0
1965,73.0,0.0,90.0,7.0,0.0
1966,73.0,0.0,90.0,2.0,0.0
1967,70.0,0.0,90.0,8.0,0.0
1968,72.0,0.0,30.0,7.0,0.0
1969,63.0,0.0,90.0,13.0,0.0
1970,72.0,6.0,90.0,13.0,0.0
1971,72.0,0.0,30.0,6.0,0.0
1972,68.0,0.0,90.0,8.0,0.0
1973,44.0,0.0,30.0,13.0,0.0
1974,63.0,0.0,30.0,0.0,0.0
1975,32.0,0.0,30.0,12.0,0.0
1976,68.0,0.0,90.0,3.0,0.0
1977,44.0,0.0,30.0,5.0,0.0
1978,72.0,0.0,30.0,2.0,0.0
1979,44.0,42.0,30.0,11.0,0.0
1980,70.0,0.0,30.0,6.0,0.0
1981,43.0,0.0,30.0,13.0,0.0
1982,43.0,48.0,30.0,5.0,0.0
1983,31.0,0.0,30.0,12.0,0.0
1984,70.0,0.0,30.0,7.0,0.0
1985,70.0,0.0,30.0,2.0,0.0
1986,63.0,0.0,30.0,0.0,0.0
1987,43.0,0.0,30.0,11.0,0.0
1988,63.0,0.0,90.0,10.0,0.0
1989,75.0,0.0,90.0,2.0,0.0
1990,41.0,0.0,30.0,13.0,0.0
1991,67.0,0.0,90.0,13.0,0.0
1992,41.0,0.0,30.0,5.0,0.0
1993,75.0,6.0,90.0,7.0,0.0
1994,75.0,0.0,90.0,6.0,0.0
1995,63.0,0.0,90.0,4.0,0.0
1996,41.0,42.0,30.0,11.0,0.0
1997,67.0,0.0,90.0,8.0,0.0
1998,67.0,0.0,90.0,3.0,0.0
1999,63.0,0.0,30.0,0.0,0.0
2000,58.0,0.0,90.0,13.0,0.0
2001,29.0,0.0,30.0,12.0,0.0
2002,39.0,0.0,30.0,5.0,0.0
2003,63.0,0.0,30.0,0.0,0.0
2004,27.0,90.0,30.0,12.0,0.0
2005,39.0,0.0,30.0,11.0,0.0
2006,39.0,0.0,30.0,13.0,0.0
2007,32.0,0.0,90.0,12.0,0.0
2008,68.0,0.0,270.0,3.0,0.0
2009,72.0,0.0,120.0,2.0,0.0
2010,63.0,0.0,270.0,4.0,0.0
2011,72.0,0.0,90.0,13.0,0.0
2012,63.0,48.0,90.0,13.0,0.0
2013,72.0,6.0,120.0,6.0,0.0
2014,44.0,0.0,90.0,11.0,0.0
2015,72.0,0.0,120.0,7.0,0.0
2016,63.0,0.0,90.0,1.0,0.0
2017,63.0,0.0,270.0,10.0,0.0
2018,68.0,6.0,270.0,8.0,0.0
2019,63.0,0.0,90.0,0.0,0.0
2020,44.0,0.0,90.0,13.0,0.0
2021,44.0,0.0,90.0,5.0,0.0
2022,30.0,0.0,30.0,12.0,0.0
2023,63.0,0.0,30.0,1.0,0.0
2024,61.0,6.0,90.0,13.0,0.0
2025,70.0,0.0,90.0,13.0,0.0
2026,42.0,0.0,30.0,5.0,0.0
2027,42.0,0.0,30.0,13.0,0.0
2028,42.0,42.0,30.0,11.0,0.0
2029,41.0,0.0,30.0,5.0,0.0
2030,73.0,0.0,30.0,7.0,0.0
2031,63.0,16.0,30.0,1.0,0.0
2032,29.0,0.0,30.0,12.0,0.0
2033,41.0,0.0,30.0,13.0,0.0
2034,73.0,0.0,30.0,2.0,0.0
2035,73.0,0.0,30.0,6.0,0.0
2036,41.0,0.0,30.0,11.0,0.0
2037,75.0,0.0,15.0,2.0,0.0
2038,75.0,0.0,15.0,7.0,0.0
2039,63.0,0.0,30.0,1.0,0.0
2040,39.0,0.0,30.0,13.0,0.0
2041,61.0,0.0,90.0,13.0,0.0
2042,70.0,0.0,90.0,13.0,0.0
2043,39.0,4.0,30.0,11.0,0.0
2044,27.0,0.0,30.0,12.0,0.0
2045,75.0,12.0,15.0,6.0,0.0
2046,39.0,0.0,30.0,5.0,0.0
2047,73.0,0.0,15.0,7.0,0.0
2048,73.0,0.0,15.0,6.0,0.0
2049,73.0,12.0,15.0,2.0,0.0
2050,75.0,0.0,15.0,6.0,0.0
2051,75.0,0.0,15.0,2.0,0.0
2052,75.0,8.0,15.0,7.0,0.0
2053,73.0,12.0,15.0,2.0,0.0
2054,73.0,0.0,15.0,7.0,0.0
2055,73.0,0.0,15.0,6.0,0.0
2056,37.0,4.0,30.0,5.0,0.0
2057,75.0,0.0,15.0,6.0,0.0
2058,63.0,0.0,30.0,1.0,0.0
2059,75.0,0.0,15.0,7.0,0.0
2060,75.0,12.0,15.0,2.0,0.0
2061,25.0,0.0,30.0,12.0,0.0
2062,37.0,0.0,30.0,13.0,0.0
2063,37.0,0.0,30.0,11.0,0.0
2064,73.0,0.0,15.0,2.0,0.0
2065,73.0,0.0,15.0,7.0,0.0
2066,73.0,12.0,15.0,6.0,0.0
2067,72.0,2.0,15.0,6.0,0.0
2068,72.0,0.0,15.0,2.0,0.0
2069,72.0,0.0,15.0,7.0,0.0
2070,73.0,44.0,15.0,2.0,0.0
2071,73.0,0.0,15.0,6.0,0.0
2072,73.0,0.0,15.0,7.0,0.0
2073,68.0,0.0,180.0,8.0,0.0
2074,63.0,0.0,90.0,4.0,0.0
2075,63.0,0.0,90.0,1.0,0.0
2076,75.0,0.0,30.0,2.0,0.0
2077,36.0,0.0,90.0,11.0,0.0
2078,36.0,0.0,90.0,5.0,0.0
2079,24.0,0.0,90.0,12.0,0.0
2080,63.0,0.0,30.0,10.0,0.0
2081,75.0,0.0,30.0,7.0,0.0
2082,63.0,0.0,90.0,13.0,0.0
2083,36.0,0.0,90.0,13.0,0.0
2084,75.0,42.0,30.0,6.0,0.0
2085,68.0,0.0,180.0,3.0,0.0
2086,68.0,6.0,90.0,13.0,0.0
2087,68.0,0.0,90.0,0.0,0.0
2088,61.0,16.0,30.0,10.0,0.0
2089,77.0,0.0,30.0,2.0,0.0
2090,77.0,0.0,30.0,6.0,0.0
2091,77.0,0.0,30.0,7.0,0.0
2092,68.0,0.0,30.0,0.0,0.0
2093,37.0,0.0,30.0,5.0,0.0
2094,78.0,0.0,15.0,7.0,0.0
2095,25.0,4.0,30.0,12.0,0.0
2096,63.0,0.0,15.0,10.0,0.0
2097,37.0,0.0,30.0,13.0,0.0
2098,37.0,0.0,30.0,11.0,0.0
2099,56.0,6.0,90.0,13.0,0.0
2100,63.0,0.0,15.0,4.0,0.0
2101,78.0,12.0,15.0,6.0,0.0
2102,65.0,0.0,90.0,13.0,0.0
2103,78.0,0.0,15.0,2.0,0.0
2104,77.0,0.0,15.0,7.0,0.0
2105,77.0,12.0,15.0,6.0,0.0
2106,61.0,0.0,15.0,10.0,0.0
2107,77.0,0.0,15.0,2.0,0.0
2108,61.0,0.0,15.0,4.0,0.0
2109,78.0,0.0,15.0,2.0,0.0
2110,78.0,0.0,15.0,7.0,0.0
2111,63.0,8.0,15.0,4.0,0.0
2112,78.0,0.0,15.0,6.0,0.0
2113,63.0,0.0,15.0,10.0,0.0
2114,77.0,0.0,15.0,7.0,0.0
2115,77.0,0.0,15.0,2.0,0.0
2116,61.0,12.0,15.0,10.0,0.0
2117,61.0,0.0,15.0,4.0,0.0
2118,77.0,0.0,15.0,6.0,0.0
2119,63.0,0.0,15.0,4.0,0.0
2120,36.0,0.0,30.0,5.0,0.0
2121,78.0,0.0,15.0,7.0,0.0
2122,78.0,0.0,15.0,2.0,0.0
2123,36.0,0.0,30.0,13.0,0.0
2124,24.0,4.0,30.0,12.0,0.0
2125,78.0,0.0,15.0,6.0,0.0
2126,36.0,0.0,30.0,11.0,0.0
2127,68.0,0.0,30.0,0.0,0.0
2128,63.0,12.0,15.0,10.0,0.0
2129,61.0,0.0,15.0,10.0,0.0
2130,61.0,0.0,15.0,4.0,0.0
2131,77.0,0.0,15.0,7.0,0.0
2132,77.0,0.0,15.0,6.0,0.0
2133,77.0,12.0,15.0,2.0,0.0
2134,63.0,0.0,15.0,4.0,0.0
2135,78.0,0.0,15.0,6.0,0.0
2136,78.0,2.0,15.0,2.0,0.0
2137,78.0,0.0,15.0,7.0,0.0
2138,63.0,0.0,15.0,10.0,0.0
2139,61.0,12.0,15.0,10.0,0.0
2140,61.0,0.0,15.0,4.0,0.0
2141,77.0,0.0,15.0,6.0,0.0
2142,77.0,0.0,15.0,2.0,0.0
2143,77.0,0.0,15.0,7.0,0.0
2144,68.0,0.0,30.0,0.0,0.0
2145,73.0,0.0,90.0,8.0,0.0
2146,78.0,0.0,15.0,7.0,0.0
2147,34.0,0.0,30.0,5.0,0.0
2148,22.0,0.0,30.0,12.0,0.0
2149,34.0,0.0,30.0,13.0,0.0
2150,73.0,0.0,90.0,3.0,0.0
2151,34.0,4.0,30.0,11.0,0.0
2152,78.0,0.0,15.0,6.0,0.0
2153,73.0,0.0,90.0,13.0,0.0
2154,65.0,6.0,90.0,13.0,0.0
2155,78.0,0.0,15.0,2.0,0.0
2156,63.0,12.0,15.0,4.0,0.0
2157,63.0,0.0,15.0,10.0,0.0
2158,61.0,0.0,15.0,4.0,0.0
2159,61.0,0.0,15.0,10.0,0.0
2160,77.0,12.0,15.0,2.0,0.0
2161,77.0,0.0,15.0,6.0,0.0
2162,77.0,0.0,15.0,7.0,0.0
2163,63.0,0.0,15.0,10.0,0.0
2164,78.0,0.0,15.0,7.0,0.0
2165,78.0,8.0,15.0,6.0,0.0
2166,63.0,0.0,15.0,4.0,0.0
2167,78.0,0.0,15.0,2.0,0.0
2168,61.0,23.0,15.0,4.0,0.0
2169,61.0,0.0,15.0,10.0,0.0
2170,77.0,0.0,15.0,2.0,0.0
2171,77.0,0.0,15.0,6.0,0.0
2172,77.0,0.0,15.0,7.0,0.0
2173,36.0,3.0,30.0,5.0,0.0
2174,75.0,0.0,20.0,6.0,0.0
2175,75.0,15.0,20.0,7.0,0.0
2176,68.0,0.0,30.0,0.0,0.0
2177,60.0,0.0,20.0,4.0,0.0
2178,36.0,0.0,30.0,11.0,0.0
2179,24.0,0.0,30.0,12.0,0.0
2180,36.0,0.0,30.0,13.0,0.0
2181,75.0,0.0,20.0,2.0,0.0
2182,60.0,0.0,20.0,10.0,0.0
2183,77.0,0.0,20.0,2.0,0.0
2184,61.0,0.0,20.0,10.0,0.0
2185,77.0,87.0,20.0,7.0,0.0
2186,77.0,0.0,20.0,6.0,0.0
2187,61.0,0.0,20.0,4.0,0.0
2188,78.0,0.0,90.0,6.0,0.0
2189,63.0,0.0,90.0,4.0,0.0
2190,32.0,22.0,90.0,11.0,0.0
2191,78.0,0.0,90.0,7.0,0.0
2192,72.0,0.0,90.0,8.0,0.0
2193,32.0,0.0,90.0,5.0,0.0
2194,63.0,0.0,90.0,13.0,0.0
2195,20.0,0.0,90.0,12.0,0.0
2196,68.0,0.0,180.0,0.0,0.0
2197,72.0,0.0,90.0,13.0,0.0
2198,32.0,0.0,90.0,13.0,0.0
2199,63.0,0.0,90.0,10.0,0.0
2200,63.0,0.0,90.0,1.0,0.0
2201,78.0,0.0,90.0,2.0,0.0
2202,72.0,0.0,90.0,3.0,0.0
2203,68.0,6.0,90.0,4.0,0.0
2204,44.0,0.0,30.0,11.0,0.0
2205,75.0,12.0,15.0,3.0,0.0
2206,73.0,0.0,90.0,8.0,0.0
2207,77.0,0.0,30.0,2.0,0.0
2208,56.0,4.0,30.0,1.0,0.0
2209,68.0,0.0,90.0,10.0,0.0
2210,32.0,0.0,30.0,12.0,0.0
2211,77.0,0.0,30.0,7.0,0.0
2212,77.0,0.0,30.0,6.0,0.0
2213,65.0,0.0,90.0,13.0,0.0
2214,73.0,0.0,90.0,13.0,0.0
2215,44.0,0.0,30.0,13.0,0.0
2216,44.0,0.0,30.0,5.0,0.0
2217,73.0,12.0,15.0,3.0,0.0
2218,75.0,8.0,15.0,3.0,0.0
2219,73.0,12.0,15.0,3.0,0.0
2220,46.0,4.0,30.0,5.0,0.0
2221,46.0,0.0,30.0,13.0,0.0
2222,75.0,0.0,30.0,2.0,0.0
2223,75.0,12.0,15.0,3.0,0.0
2224,46.0,0.0,30.0,11.0,0.0
2225,75.0,0.0,30.0,7.0,0.0
2226,34.0,0.0,30.0,12.0,0.0
2227,75.0,0.0,30.0,6.0,0.0
2228,56.0,0.0,30.0,1.0,0.0
2229,73.0,12.0,15.0,3.0,0.0
2230,75.0,2.0,15.0,3.0,0.0
2231,73.0,44.0,15.0,3.0,0.0
2232,80.0,0.0,90.0,2.0,0.0
2233,80.0,0.0,90.0,6.0,0.0
2234,60.0,0.0,90.0,10.0,0.0
2235,56.0,42.0,30.0,1.0,0.0
2236,48.0,0.0,30.0,5.0,0.0
2237,68.0,0.0,90.0,13.0,0.0
2238,80.0,0.0,90.0,7.0,0.0
2239,66.0,0.0,90.0,0.0,0.0
2240,75.0,6.0,90.0,3.0,0.0
2241,48.0,0.0,30.0,11.0,0.0
2242,48.0,0.0,30.0,13.0,0.0
2243,75.0,0.0,90.0,8.0,0.0
2244,75.0,0.0,90.0,13.0,0.0
2245,60.0,0.0,90.0,4.0,0.0
2246,36.0,0.0,30.0,12.0,0.0
2247,44.0,0.0,30.0,11.0,0.0
2248,32.0,0.0,30.0,12.0,0.0
2249,44.0,0.0,30.0,5.0,0.0
2250,56.0,48.0,30.0,1.0,0.0
2251,44.0,0.0,30.0,13.0,0.0
2252,61.0,6.0,90.0,1.0,0.0
2253,34.0,0.0,30.0,12.0,0.0
2254,65.0,0.0,90.0,0.0,0.0
2255,46.0,0.0,30.0,5.0,0.0
2256,73.0,0.0,90.0,13.0,0.0
2257,46.0,0.0,30.0,13.0,0.0
2258,73.0,0.0,30.0,7.0,0.0
2259,70.0,0.0,90.0,3.0,0.0
2260,65.0,0.0,90.0,13.0,0.0
2261,73.0,0.0,30.0,6.0,0.0
2262,65.0,0.0,30.0,10.0,0.0
2263,73.0,0.0,30.0,2.0,0.0
2264,70.0,0.0,90.0,8.0,0.0
2265,46.0,42.0,30.0,11.0,0.0
2266,65.0,0.0,30.0,4.0,0.0
2267,66.0,0.0,30.0,10.0,0.0
2268,42.0,0.0,30.0,13.0,0.0
2269,66.0,0.0,30.0,4.0,0.0
2270,42.0,16.0,30.0,5.0,0.0
2271,42.0,0.0,30.0,11.0,0.0
2272,30.0,0.0,30.0,12.0,0.0
2273,75.0,0.0,30.0,7.0,0.0
2274,75.0,0.0,30.0,6.0,0.0
2275,75.0,0.0,30.0,2.0,0.0
2276,72.0,0.0,120.0,7.0,0.0
2277,44.0,0.0,90.0,11.0,0.0
2278,72.0,0.0,120.0,6.0,0.0
2279,44.0,0.0,90.0,5.0,0.0
2280,63.0,0.0,90.0,13.0,0.0
2281,72.0,0.0,90.0,13.0,0.0
2282,63.0,0.0,15.0,10.0,0.0
2283,70.0,12.0,15.0,8.0,0.0
2284,32.0,6.0,90.0,12.0,0.0
2285,72.0,0.0,120.0,2.0,0.0
2286,63.0,6.0,120.0,4.0,0.0
2287,70.0,0.0,15.0,3.0,0.0
2288,56.0,4.0,30.0,1.0,0.0
2289,66.0,0.0,30.0,0.0,0.0
2290,44.0,0.0,90.0,13.0,0.0
2291,68.0,12.0,15.0,8.0,0.0
2292,61.0,0.0,15.0,10.0,0.0
2293,68.0,0.0,15.0,3.0,0.0
2294,63.0,0.0,15.0,10.0,0.0
2295,70.0,8.0,15.0,8.0,0.0
2296,70.0,0.0,15.0,3.0,0.0
2297,68.0,12.0,15.0,8.0,0.0
2298,68.0,0.0,15.0,3.0,0.0
2299,61.0,0.0,15.0,10.0,0.0
2300,56.0,4.0,30.0,1.0,0.0
2301,63.0,12.0,15.0,10.0,0.0
2302,70.0,0.0,15.0,3.0,0.0
2303,70.0,0.0,15.0,8.0,0.0
2304,65.0,0.0,30.0,0.0,0.0
2305,61.0,0.0,15.0,10.0,0.0
2306,68.0,0.0,15.0,8.0,0.0
2307,68.0,12.0,15.0,3.0,0.0
2308,70.0,2.0,15.0,8.0,0.0
2309,70.0,0.0,15.0,3.0,0.0
2310,63.0,0.0,15.0,10.0,0.0
2311,68.0,0.0,15.0,3.0,0.0
2312,61.0,12.0,15.0,10.0,0.0
2313,68.0,0.0,15.0,8.0,0.0
2314,70.0,12.0,15.0,8.0,0.0
2315,32.0,6.0,90.0,11.0,0.0
2316,70.0,0.0,15.0,3.0,0.0
2317,63.0,4.0,30.0,0.0,0.0
2318,32.0,0.0,90.0,13.0,0.0
2319,56.0,0.0,30.0,1.0,0.0
2320,63.0,0.0,15.0,10.0,0.0
2321,32.0,0.0,90.0,5.0,0.0
2322,63.0,0.0,90.0,13.0,0.0
2323,20.0,0.0,90.0,12.0,0.0
2324,60.0,0.0,90.0,13.0,0.0
2325,68.0,12.0,15.0,8.0,0.0
2326,61.0,0.0,15.0,10.0,0.0
2327,68.0,0.0,15.0,3.0,0.0
2328,70.0,0.0,15.0,3.0,0.0
2329,63.0,0.0,15.0,10.0,0.0
2330,70.0,2.0,15.0,8.0,0.0
2331,68.0,0.0,15.0,8.0,0.0
2332,68.0,38.0,15.0,3.0,0.0
2333,61.0,0.0,15.0,10.0,0.0
2334,68.0,0.0,30.0,8.0,0.0
2335,65.0,0.0,30.0,4.0,0.0
2336,73.0,0.0,30.0,6.0,0.0
2337,73.0,0.0,30.0,7.0,0.0
2338,73.0,0.0,30.0,2.0,0.0
2339,68.0,0.0,30.0,3.0,0.0
2340,65.0,0.0,30.0,0.0,0.0
2341,65.0,0.0,30.0,10.0,0.0
2342,56.0,48.0,30.0,1.0,0.0
2343,61.0,0.0,270.0,0.0,0.0
2344,73.0,6.0,270.0,2.0,0.0
2345,65.0,0.0,270.0,4.0,0.0
2346,53.0,0.0,270.0,1.0,0.0
2347,37.0,0.0,30.0,13.0,0.0
2348,65.0,0.0,270.0,13.0,0.0
2349,56.0,0.0,270.0,13.0,0.0
2350,25.0,0.0,30.0,12.0,0.0
2351,68.0,0.0,270.0,3.0,0.0
2352,37.0,48.0,30.0,11.0,0.0
2353,65.0,0.0,270.0,10.0,0.0
2354,73.0,0.0,270.0,6.0,0.0
2355,73.0,0.0,270.0,7.0,0.0
2356,68.0,6.0,180.0,8.0,0.0
2357,37.0,0.0,30.0,5.0,0.0
2358,39.0,0.0,30.0,5.0,0.0
2359,27.0,48.0,30.0,12.0,0.0
2360,39.0,0.0,30.0,13.0,0.0
2361,39.0,0.0,30.0,11.0,0.0
2362,41.0,0.0,30.0,13.0,0.0
2363,41.0,42.0,30.0,5.0,0.0
2364,29.0,0.0,30.0,12.0,0.0
2365,41.0,0.0,30.0,11.0,0.0
2366,30.0,0.0,30.0,12.0,0.0
2367,42.0,0.0,30.0,5.0,0.0
2368,42.0,48.0,30.0,11.0,0.0
2369,42.0,0.0,30.0,13.0,0.0
2370,32.0,0.0,30.0,12.0,0.0
2371,44.0,0.0,30.0,11.0,0.0
2372,44.0,0.0,30.0,5.0,0.0
2373,44.0,42.0,30.0,13.0,0.0
2374,46.0,0.0,30.0,13.0,0.0
2375,46.0,90.0,30.0,11.0,0.0
2376,46.0,0.0,30.0,5.0,0.0
2377,34.0,0.0,30.0,12.0,0.0
2378,68.0,0.0,90.0,13.0,0.0
2379,48.0,0.0,180.0,13.0,0.0
2380,75.0,54.0,90.0,7.0,0.0
2381,75.0,0.0,90.0,6.0,0.0
2382,36.0,0.0,180.0,12.0,0.0
2383,48.0,6.0,180.0,5.0,0.0
2384,63.0,0.0,90.0,13.0,0.0
2385,63.0,0.0,180.0,10.0,0.0
2386,75.0,0.0,90.0,2.0,0.0
2387,63.0,0.0,180.0,4.0,0.0
2388,68.0,0.0,90.0,8.0,0.0
2389,68.0,0.0,90.0,3.0,0.0
2390,56.0,0.0,90.0,0.0,0.0
2391,48.0,0.0,180.0,11.0,0.0
2392,56.0,42.0,30.0,0.0,0.0
2393,63.0,0.0,90.0,13.0,0.0
2394,78.0,0.0,90.0,6.0,0.0
2395,66.0,0.0,90.0,13.0,0.0
2396,75.0,0.0,90.0,8.0,0.0
2397,78.0,0.0,90.0,7.0,0.0
2398,78.0,0.0,90.0,2.0,0.0
2399,75.0,0.0,90.0,3.0,0.0
2400,56.0,48.0,30.0,0.0,0.0
2401,73.0,6.0,90.0,8.0,0.0
2402,77.0,0.0,90.0,7.0,0.0
2403,49.0,0.0,90.0,13.0,0.0
2404,68.0,0.0,90.0,4.0,0.0
2405,73.0,0.0,90.0,3.0,0.0
2406,37.0,0.0,90.0,12.0,0.0
2407,56.0,42.0,30.0,0.0,0.0
2408,49.0,0.0,90.0,5.0,0.0
2409,56.0,0.0,90.0,13.0,0.0
2410,77.0,0.0,90.0,6.0,0.0
2411,49.0,0.0,90.0,11.0,0.0
2412,68.0,0.0,90.0,10.0,0.0
2413,77.0,0.0,90.0,2.0,0.0
2414,65.0,0.0,90.0,13.0,0.0
2415,56.0,16.0,30.0,0.0,0.0
2416,72.0,0.0,90.0,8.0,0.0
2417,75.0,0.0,90.0,2.0,0.0
2418,56.0,0.0,90.0,0.0,0.0
2419,51.0,10.0,90.0,13.0,0.0
2420,66.0,0.0,90.0,13.0,0.0
2421,60.0,0.0,90.0,13.0,0.0
2422,51.0,0.0,90.0,11.0,0.0
2423,75.0,0.0,90.0,7.0,0.0
2424,68.0,12.0,15.0,10.0,0.0
2425,77.0,0.0,15.0,6.0,0.0
2426,39.0,0.0,90.0,12.0,0.0
2427,51.0,0.0,90.0,5.0,0.0
2428,72.0,0.0,90.0,3.0,0.0
2429,56.0,0.0,90.0,1.0,0.0
2430,66.0,0.0,90.0,4.0,0.0
2431,66.0,12.0,15.0,10.0,0.0
2432,75.0,0.0,15.0,6.0,0.0
2433,68.0,12.0,15.0,10.0,0.0
2434,77.0,0.0,15.0,6.0,0.0
2435,66.0,0.0,15.0,10.0,0.0
2436,75.0,12.0,15.0,6.0,0.0
2437,68.0,12.0,15.0,10.0,0.0
2438,77.0,0.0,15.0,6.0,0.0
2439,66.0,12.0,15.0,10.0,0.0
2440,75.0,0.0,15.0,6.0,0.0
2441,77.0,2.0,15.0,6.0,0.0
2442,68.0,0.0,15.0,10.0,0.0
2443,66.0,0.0,15.0,10.0,0.0
2444,75.0,44.0,15.0,6.0,0.0
2445,54.0,0.0,90.0,5.0,0.0
2446,68.0,0.0,90.0,3.0,0.0
2447,60.0,0.0,90.0,13.0,0.0
2448,68.0,0.0,90.0,13.0,0.0
2449,54.0,6.0,90.0,13.0,0.0
2450,54.0,0.0,90.0,11.0,0.0
2451,73.0,42.0,30.0,6.0,0.0
2452,73.0,0.0,30.0,7.0,0.0
2453,56.0,0.0,30.0,1.0,0.0
2454,42.0,0.0,90.0,12.0,0.0
2455,65.0,0.0,30.0,10.0,0.0
2456,65.0,0.0,30.0,4.0,0.0
2457,73.0,0.0,30.0,2.0,0.0
2458,68.0,0.0,90.0,8.0,0.0
2459,56.0,0.0,30.0,1.0,0.0
2460,72.0,0.0,30.0,2.0,0.0
2461,63.0,0.0,30.0,10.0,0.0
2462,72.0,48.0,30.0,6.0,0.0
2463,72.0,0.0,30.0,7.0,0.0
2464,63.0,0.0,30.0,4.0,0.0
2465,68.0,0.0,90.0,3.0,0.0
2466,65.0,0.0,90.0,10.0,0.0
2467,53.0,0.0,90.0,11.0,0.0
2468,65.0,0.0,90.0,4.0,0.0
2469,41.0,0.0,90.0,12.0,0.0
2470,73.0,0.0,90.0,7.0,0.0
2471,53.0,0.0,90.0,13.0,0.0
2472,68.0,0.0,90.0,8.0,0.0
2473,68.0,0.0,90.0,13.0,0.0
2474,61.0,0.0,90.0,13.0,0.0
2475,53.0,0.0,90.0,5.0,0.0
2476,56.0,42.0,30.0,1.0,0.0
2477,73.0,0.0,90.0,2.0,0.0
2478,73.0,6.0,90.0,6.0,0.0
2479,56.0,90.0,30.0,1.0,0.0
2480,72.0,0.0,90.0,8.0,0.0
2481,75.0,0.0,90.0,7.0,0.0
2482,66.0,0.0,90.0,10.0,0.0
2483,51.0,0.0,90.0,13.0,0.0
2484,75.0,0.0,90.0,2.0,0.0
2485,51.0,0.0,90.0,11.0,0.0
2486,66.0,0.0,90.0,13.0,0.0
2487,60.0,0.0,90.0,13.0,0.0
2488,66.0,0.0,90.0,4.0,0.0
2489,75.0,54.0,90.0,6.0,0.0
2490,72.0,0.0,90.0,3.0,0.0
2491,39.0,0.0,90.0,12.0,0.0
2492,51.0,0.0,90.0,5.0,0.0
2493,56.0,0.0,90.0,0.0,0.0
2494,56.0,0.0,90.0,1.0,0.0
2495,37.0,0.0,30.0,12.0,0.0
2496,75.0,0.0,90.0,3.0,0.0
2497,78.0,0.0,90.0,2.0,0.0
2498,75.0,6.0,90.0,8.0,0.0
2499,78.0,0.0,90.0,6.0,0.0
2500,49.0,42.0,30.0,11.0,0.0
2501,78.0,0.0,90.0,7.0,0.0
2502,63.0,0.0,90.0,4.0,0.0
2503,58.0,0.0,90.0,13.0,0.0
2504,66.0,0.0,90.0,13.0,0.0
2505,49.0,0.0,30.0,13.0,0.0
2506,63.0,0.0,90.0,10.0,0.0
2507,56.0,0.0,30.0,0.0,0.0
2508,49.0,0.0,30.0,5.0,0.0
2509,48.0,0.0,30.0,5.0,0.0
2510,56.0,48.0,30.0,0.0,0.0
2511,48.0,0.0,30.0,11.0,0.0
2512,36.0,0.0,30.0,12.0,0.0
2513,48.0,0.0,30.0,13.0,0.0
2514,77.0,0.0,90.0,2.0,0.0
2515,73.0,0.0,90.0,8.0,0.0
2516,49.0,0.0,90.0,11.0,0.0
2517,77.0,0.0,90.0,6.0,0.0
2518,68.0,0.0,90.0,4.0,0.0
2519,56.0,0.0,90.0,13.0,0.0
2520,65.0,0.0,90.0,13.0,0.0
2521,56.0,42.0,30.0,0.0,0.0
2522,49.0,6.0,90.0,13.0,0.0
2523,68.0,0.0,90.0,10.0,0.0
2524,37.0,0.0,90.0,12.0,0.0
2525,73.0,0.0,90.0,3.0,0.0
2526,49.0,0.0,90.0,5.0,0.0
2527,77.0,0.0,90.0,7.0,0.0
2528,56.0,16.0,30.0,0.0,0.0
2529,77.0,12.0,15.0,2.0,0.0
2530,77.0,0.0,15.0,7.0,0.0
2531,68.0,0.0,180.0,4.0,0.0
2532,68.0,6.0,180.0,10.0,0.0
2533,48.0,0.0,90.0,5.0,0.0
2534,48.0,0.0,90.0,13.0,0.0
2535,56.0,0.0,90.0,0.0,0.0
2536,75.0,0.0,90.0,3.0,0.0
2537,56.0,10.0,90.0,13.0,0.0
2538,75.0,0.0,90.0,8.0,0.0
2539,56.0,0.0,90.0,1.0,0.0
2540,63.0,0.0,90.0,13.0,0.0
2541,77.0,0.0,15.0,6.0,0.0
2542,48.0,0.0,90.0,11.0,0.0
2543,36.0,0.0,90.0,12.0,0.0
2544,75.0,0.0,15.0,6.0,0.0
2545,75.0,12.0,15.0,7.0,0.0
2546,75.0,0.0,15.0,2.0,0.0
2547,77.0,0.0,15.0,7.0,0.0
2548,77.0,12.0,15.0,6.0,0.0
2549,77.0,0.0,15.0,2.0,0.0
2550,75.0,0.0,15.0,7.0,0.0
2551,75.0,12.0,15.0,2.0,0.0
2552,75.0,0.0,15.0,6.0,0.0
2553,77.0,12.0,15.0,6.0,0.0
2554,77.0,0.0,15.0,2.0,0.0
2555,77.0,0.0,15.0,7.0,0.0
2556,75.0,0.0,15.0,6.0,0.0
2557,75.0,0.0,15.0,2.0,0.0
2558,75.0,12.0,15.0,7.0,0.0
2559,77.0,0.0,15.0,6.0,0.0
2560,77.0,0.0,15.0,7.0,0.0
2561,77.0,2.0,15.0,2.0,0.0
2562,75.0,0.0,15.0,7.0,0.0
2563,75.0,12.0,15.0,2.0,0.0
2564,75.0,0.0,15.0,6.0,0.0
2565,77.0,0.0,15.0,6.0,0.0
2566,56.0,0.0,30.0,1.0,0.0
2567,73.0,0.0,90.0,8.0,0.0
2568,49.0,4.0,30.0,13.0,0.0
2569,68.0,0.0,90.0,13.0,0.0
2570,61.0,0.0,90.0,13.0,0.0
2571,73.0,0.0,90.0,3.0,0.0
2572,49.0,0.0,30.0,5.0,0.0
2573,49.0,0.0,30.0,11.0,0.0
2574,77.0,0.0,15.0,2.0,0.0
2575,77.0,12.0,15.0,7.0,0.0
2576,37.0,0.0,30.0,12.0,0.0
2577,75.0,0.0,15.0,6.0,0.0
2578,75.0,12.0,15.0,7.0,0.0
2579,75.0,0.0,15.0,2.0,0.0
2580,77.0,8.0,15.0,7.0,0.0
2581,77.0,0.0,15.0,6.0,0.0
2582,77.0,0.0,15.0,2.0,0.0
2583,75.0,0.0,15.0,2.0,0.0
2584,75.0,0.0,15.0,7.0,0.0
2585,75.0,12.0,15.0,6.0,0.0
2586,77.0,12.0,15.0,2.0,0.0
2587,56.0,0.0,30.0,1.0,0.0
2588,77.0,0.0,15.0,6.0,0.0
2589,48.0,0.0,30.0,5.0,0.0
2590,36.0,0.0,30.0,12.0,0.0
2591,77.0,0.0,15.0,7.0,0.0
2592,48.0,4.0,30.0,11.0,0.0
2593,48.0,0.0,30.0,13.0,0.0
2594,75.0,0.0,15.0,7.0,0.0
2595,75.0,12.0,15.0,2.0,0.0
2596,75.0,0.0,15.0,6.0,0.0
2597,77.0,0.0,15.0,7.0,0.0
2598,77.0,2.0,15.0,2.0,0.0
2599,77.0,0.0,15.0,6.0,0.0
2600,75.0,0.0,15.0,7.0,0.0
2601,75.0,44.0,15.0,6.0,0.0
2602,75.0,0.0,15.0,2.0,0.0
2603,80.0,0.0,90.0,7.0,0.0
2604,80.0,0.0,90.0,6.0,0.0
2605,72.0,0.0,90.0,3.0,0.0
2606,63.0,0.0,90.0,10.0,0.0
2607,34.0,0.0,30.0,12.0,0.0
2608,72.0,0.0,90.0,8.0,0.0
2609,56.0,42.0,30.0,1.0,0.0
2610,63.0,0.0,90.0,4.0,0.0
2611,46.0,0.0,30.0,13.0,0.0
2612,63.0,0.0,90.0,13.0,0.0
2613,46.0,0.0,30.0,5.0,0.0
2614,46.0,0.0,30.0,11.0,0.0
2615,80.0,6.0,90.0,2.0,0.0
2616,72.0,0.0,90.0,13.0,0.0
2617,44.0,0.0,30.0,13.0,0.0
2618,44.0,16.0,30.0,11.0,0.0
2619,44.0,0.0,30.0,5.0,0.0
2620,32.0,0.0,30.0,12.0,0.0
2621,56.0,0.0,30.0,1.0,0.0
2622,70.0,0.0,180.0,3.0,0.0
2623,63.0,0.0,180.0,4.0,0.0
2624,44.0,0.0,15.0,11.0,0.0
2625,32.0,0.0,15.0,12.0,0.0
2626,73.0,9.0,90.0,7.0,0.0
2627,44.0,1.0,20.0,5.0,0.0
2628,73.0,0.0,90.0,2.0,0.0
2629,70.0,0.0,180.0,8.0,0.0
2630,44.0,11.0,15.0,13.0,0.0
2631,70.0,0.0,90.0,13.0,0.0
2632,63.0,0.0,90.0,13.0,0.0
2633,63.0,0.0,90.0,0.0,0.0
2634,63.0,0.0,90.0,1.0,0.0
2635,73.0,0.0,90.0,6.0,0.0
2636,63.0,0.0,180.0,10.0,0.0
2637,31.0,12.0,15.0,12.0,0.0
2638,43.0,0.0,15.0,13.0,0.0
2639,43.0,0.0,15.0,11.0,0.0
2640,32.0,0.0,15.0,12.0,0.0
2641,44.0,11.0,15.0,13.0,0.0
2642,43.0,1.0,20.0,5.0,0.0
2643,44.0,0.0,15.0,11.0,0.0
2644,31.0,0.0,15.0,12.0,0.0
2645,43.0,0.0,15.0,11.0,0.0
2646,43.0,12.0,15.0,13.0,0.0
2647,44.0,1.0,20.0,5.0,0.0
2648,32.0,0.0,15.0,12.0,0.0
2649,44.0,11.0,15.0,13.0,0.0
2650,44.0,0.0,15.0,11.0,0.0
2651,43.0,0.0,15.0,13.0,0.0
2652,31.0,0.0,15.0,12.0,0.0
2653,43.0,12.0,15.0,11.0,0.0
2654,32.0,0.0,15.0,12.0,0.0
2655,44.0,0.0,15.0,13.0,0.0
2656,43.0,1.0,20.0,5.0,0.0
2657,44.0,2.0,15.0,11.0,0.0
2658,43.0,0.0,15.0,13.0,0.0
2659,43.0,0.0,15.0,11.0,0.0
2660,31.0,12.0,15.0,12.0,0.0
2661,32.0,11.0,15.0,12.0,0.0
2662,44.0,1.0,20.0,5.0,0.0
2663,44.0,0.0,15.0,13.0,0.0
2664,67.0,0.0,90.0,13.0,0.0
2665,58.0,6.0,90.0,13.0,0.0
2666,63.0,3.0,30.0,0.0,0.0
2667,70.0,0.0,90.0,7.0,0.0
2668,70.0,0.0,90.0,6.0,0.0
2669,70.0,0.0,90.0,2.0,0.0
2670,44.0,0.0,15.0,11.0,0.0
2671,43.0,0.0,15.0,11.0,0.0
2672,31.0,12.0,15.0,12.0,0.0
2673,43.0,0.0,15.0,13.0,0.0
2674,44.0,0.0,15.0,11.0,0.0
2675,44.0,0.0,15.0,13.0,0.0
2676,32.0,8.0,15.0,12.0,0.0
2677,43.0,1.0,20.0,5.0,0.0
2678,43.0,0.0,15.0,11.0,0.0
2679,31.0,12.0,15.0,12.0,0.0
2680,43.0,0.0,15.0,13.0,0.0
2681,44.0,0.0,15.0,11.0,0.0
2682,32.0,11.0,15.0,12.0,0.0
2683,44.0,0.0,15.0,13.0,0.0
2684,44.0,1.0,20.0,5.0,0.0
2685,63.0,3.0,30.0,0.0,0.0
2686,43.0,12.0,15.0,11.0,0.0
2687,31.0,0.0,15.0,12.0,0.0
2688,43.0,0.0,15.0,13.0,0.0
2689,32.0,0.0,15.0,12.0,0.0
2690,44.0,0.0,15.0,13.0,0.0
2691,43.0,1.0,20.0,5.0,0.0
2692,44.0,2.0,15.0,11.0,0.0
2693,43.0,0.0,15.0,11.0,0.0
2694,31.0,0.0,15.0,12.0,0.0
2695,43.0,44.0,15.0,13.0,0.0
2696,44.0,0.0,90.0,13.0,0.0
2697,72.0,0.0,90.0,7.0,0.0
2698,68.0,0.0,90.0,3.0,0.0
2699,44.0,0.0,90.0,5.0,0.0
2700,63.0,42.0,30.0,0.0,0.0
2701,63.0,0.0,90.0,10.0,0.0
2702,72.0,0.0,90.0,2.0,0.0
2703,63.0,0.0,90.0,13.0,0.0
2704,68.0,0.0,90.0,8.0,0.0
2705,72.0,0.0,90.0,13.0,0.0
2706,44.0,6.0,90.0,11.0,0.0
2707,63.0,0.0,90.0,4.0,0.0
2708,32.0,0.0,90.0,12.0,0.0
2709,72.0,0.0,90.0,6.0,0.0
2710,63.0,48.0,30.0,0.0,0.0
2711,73.0,0.0,90.0,7.0,0.0
2712,58.0,0.0,90.0,4.0,0.0
2713,63.0,6.0,90.0,0.0,0.0
2714,73.0,0.0,90.0,13.0,0.0
2715,67.0,0.0,90.0,13.0,0.0
2716,58.0,0.0,90.0,10.0,0.0
2717,67.0,0.0,30.0,3.0,0.0
2718,73.0,0.0,90.0,2.0,0.0
2719,46.0,0.0,90.0,13.0,0.0
2720,67.0,42.0,30.0,8.0,0.0
2721,34.0,0.0,90.0,12.0,0.0
2722,63.0,0.0,90.0,1.0,0.0
2723,46.0,0.0,90.0,11.0,0.0
2724,73.0,0.0,90.0,6.0,0.0
2725,46.0,0.0,90.0,5.0,0.0
2726,68.0,0.0,30.0,3.0,0.0
2727,68.0,16.0,30.0,8.0,0.0
2728,60.0,0.0,90.0,4.0,0.0
2729,70.0,12.0,15.0,3.0,0.0
2730,44.0,0.0,30.0,11.0,0.0
2731,77.0,0.0,180.0,6.0,0.0
2732,63.0,4.0,30.0,1.0,0.0
2733,32.0,0.0,30.0,12.0,0.0
2734,60.0,0.0,90.0,10.0,0.0
2735,65.0,6.0,90.0,13.0,0.0
2736,70.0,0.0,15.0,8.0,0.0
2737,72.0,0.0,90.0,13.0,0.0
2738,44.0,0.0,30.0,13.0,0.0
2739,77.0,0.0,180.0,7.0,0.0
2740,77.0,0.0,180.0,2.0,0.0
2741,44.0,0.0,30.0,5.0,0.0
2742,68.0,12.0,15.0,8.0,0.0
2743,68.0,0.0,15.0,3.0,0.0
2744,70.0,8.0,15.0,3.0,0.0
2745,70.0,0.0,15.0,8.0,0.0
2746,68.0,0.0,15.0,3.0,0.0
2747,68.0,12.0,15.0,8.0,0.0
2748,43.0,0.0,30.0,13.0,0.0
2749,70.0,12.0,15.0,8.0,0.0
2750,43.0,0.0,30.0,5.0,0.0
2751,31.0,4.0,30.0,12.0,0.0
2752,63.0,0.0,30.0,1.0,0.0
2753,43.0,0.0,30.0,11.0,0.0
2754,70.0,0.0,15.0,3.0,0.0
2755,68.0,12.0,15.0,3.0,0.0
2756,68.0,0.0,15.0,8.0,0.0
2757,70.0,0.0,15.0,8.0,0.0
2758,70.0,2.0,15.0,3.0,0.0
2759,68.0,12.0,15.0,8.0,0.0
2760,68.0,0.0,15.0,3.0,0.0
2761,70.0,12.0,15.0,3.0,0.0
2762,44.0,0.0,90.0,13.0,0.0
2763,63.0,4.0,30.0,1.0,0.0
2764,68.0,0.0,90.0,13.0,0.0
2765,65.0,0.0,90.0,13.0,0.0
2766,56.0,6.0,90.0,4.0,0.0
2767,70.0,0.0,15.0,8.0,0.0
2768,32.0,0.0,90.0,12.0,0.0
2769,44.0,0.0,90.0,11.0,0.0
2770,44.0,0.0,90.0,5.0,0.0
2771,56.0,0.0,90.0,10.0,0.0
2772,68.0,0.0,15.0,8.0,0.0
2773,68.0,12.0,15.0,3.0,0.0
2774,70.0,8.0,15.0,8.0,0.0
2775,70.0,0.0,15.0,3.0,0.0
2776,68.0,23.0,15.0,8.0,0.0
2777,68.0,0.0,15.0,3.0,0.0
2778,63.0,3.0,30.0,1.0,0.0
2779,67.0,0.0,20.0,8.0,0.0
2780,67.0,15.0,20.0,3.0,0.0
2781,68.0,87.0,20.0,8.0,0.0
2782,68.0,0.0,20.0,3.0,0.0
2783,73.0,0.0,90.0,6.0,0.0
2784,73.0,0.0,90.0,2.0,0.0
2785,70.0,0.0,90.0,3.0,0.0
2786,63.0,6.0,180.0,10.0,0.0
2787,70.0,54.0,90.0,8.0,0.0
2788,43.0,0.0,90.0,5.0,0.0
2789,43.0,0.0,90.0,13.0,0.0
2790,70.0,0.0,90.0,13.0,0.0
2791,63.0,0.0,90.0,13.0,0.0
2792,63.0,0.0,90.0,1.0,0.0
2793,73.0,0.0,90.0,7.0,0.0
2794,63.0,0.0,180.0,4.0,0.0
2795,63.0,0.0,90.0,0.0,0.0
2796,31.0,0.0,90.0,12.0,0.0
2797,43.0,0.0,90.0,11.0,0.0
2798,63.0,0.0,30.0,0.0,0.0
2799,72.0,0.0,30.0,2.0,0.0
2800,68.0,0.0,90.0,8.0,0.0
2801,72.0,42.0,30.0,6.0,0.0
2802,44.0,0.0,30.0,5.0,0.0
2803,32.0,0.0,30.0,12.0,0.0
2804,68.0,0.0,90.0,3.0,0.0
2805,44.0,0.0,30.0,13.0,0.0
2806,72.0,0.0,90.0,13.0,0.0
2807,63.0,0.0,90.0,13.0,0.0
2808,44.0,0.0,30.0,11.0,0.0
2809,72.0,0.0,30.0,7.0,0.0
2810,63.0,0.0,30.0,0.0,0.0
2811,43.0,48.0,30.0,5.0,0.0
2812,70.0,0.0,30.0,2.0,0.0
2813,43.0,0.0,30.0,11.0,0.0
2814,43.0,0.0,30.0,13.0,0.0
2815,70.0,0.0,30.0,7.0,0.0
2816,31.0,0.0,30.0,12.0,0.0
2817,70.0,0.0,30.0,6.0,0.0
2818,67.0,0.0,90.0,13.0,0.0
2819,41.0,42.0,30.0,13.0,0.0
2820,63.0,0.0,30.0,0.0,0.0
2821,75.0,0.0,90.0,7.0,0.0
2822,58.0,0.0,90.0,13.0,0.0
2823,63.0,0.0,90.0,10.0,0.0
2824,41.0,0.0,30.0,11.0,0.0
2825,41.0,0.0,30.0,5.0,0.0
2826,29.0,0.0,30.0,12.0,0.0
2827,63.0,0.0,90.0,4.0,0.0
2828,67.0,6.0,90.0,3.0,0.0
2829,75.0,0.0,90.0,2.0,0.0
2830,75.0,0.0,90.0,6.0,0.0
2831,67.0,0.0,90.0,8.0,0.0
2832,39.0,0.0,30.0,11.0,0.0
2833,63.0,0.0,30.0,0.0,0.0
2834,27.0,0.0,30.0,12.0,0.0
2835,39.0,0.0,30.0,5.0,0.0
2836,39.0,90.0,30.0,13.0,0.0
2837,32.0,0.0,90.0,12.0,0.0
2838,72.0,0.0,120.0,7.0,0.0
2839,72.0,0.0,120.0,2.0,0.0
2840,44.0,48.0,90.0,11.0,0.0
2841,68.0,0.0,270.0,3.0,0.0
2842,63.0,0.0,270.0,4.0,0.0
2843,63.0,0.0,90.0,13.0,0.0
2844,72.0,0.0,90.0,13.0,0.0
2845,44.0,0.0,90.0,13.0,0.0
2846,44.0,0.0,90.0,5.0,0.0
2847,63.0,0.0,270.0,10.0,0.0
2848,68.0,0.0,270.0,8.0,0.0
2849,72.0,6.0,120.0,6.0,0.0
2850,63.0,0.0,90.0,0.0,0.0
2851,63.0,0.0,90.0,1.0,0.0
2852,30.0,0.0,30.0,12.0,0.0
2853,61.0,6.0,90.0,13.0,0.0
2854,63.0,0.0,30.0,1.0,0.0
2855,70.0,0.0,90.0,13.0,0.0
2856,42.0,0.0,30.0,13.0,0.0
2857,42.0,42.0,30.0,11.0,0.0
2858,42.0,0.0,30.0,5.0,0.0
2859,41.0,0.0,30.0,13.0,0.0
2860,73.0,0.0,30.0,6.0,0.0
2861,29.0,16.0,30.0,12.0,0.0
2862,41.0,0.0,30.0,5.0,0.0
2863,63.0,0.0,30.0,1.0,0.0
2864,41.0,0.0,30.0,11.0,0.0
2865,73.0,0.0,30.0,2.0,0.0
2866,73.0,0.0,30.0,7.0,0.0
2867,75.0,0.0,15.0,7.0,0.0
2868,39.0,0.0,30.0,13.0,0.0
2869,39.0,4.0,30.0,5.0,0.0
2870,70.0,0.0,90.0,13.0,0.0
2871,61.0,6.0,90.0,13.0,0.0
2872,75.0,0.0,15.0,6.0,0.0
2873,63.0,0.0,30.0,1.0,0.0
2874,39.0,0.0,30.0,11.0,0.0
2875,75.0,12.0,15.0,2.0,0.0
2876,27.0,0.0,30.0,12.0,0.0
2877,73.0,12.0,15.0,2.0,0.0
2878,73.0,0.0,15.0,7.0,0.0
2879,73.0,0.0,15.0,6.0,0.0
2880,75.0,0.0,15.0,6.0,0.0
2881,75.0,0.0,15.0,2.0,0.0
2882,75.0,8.0,15.0,7.0,0.0
2883,73.0,0.0,15.0,6.0,0.0
2884,73.0,0.0,15.0,7.0,0.0
2885,73.0,12.0,15.0,2.0,0.0
2886,37.0,4.0,30.0,11.0,0.0
2887,75.0,12.0,15.0,7.0,0.0
2888,75.0,0.0,15.0,6.0,0.0
2889,37.0,0.0,30.0,13.0,0.0
2890,25.0,0.0,30.0,12.0,0.0
2891,63.0,0.0,30.0,1.0,0.0
2892,75.0,0.0,15.0,2.0,0.0
2893,37.0,0.0,30.0,5.0,0.0
2894,73.0,0.0,15.0,2.0,0.0
2895,73.0,0.0,15.0,6.0,0.0
2896,73.0,12.0,15.0,7.0,0.0
2897,72.0,0.0,15.0,6.0,0.0
2898,72.0,2.0,15.0,7.0,0.0
2899,72.0,0.0,15.0,2.0,0.0
2900,73.0,0.0,15.0,6.0,0.0
2901,73.0,0.0,15.0,7.0,0.0
2902,73.0,44.0,15.0,2.0,0.0
2903,75.0,0.0,30.0,2.0,0.0
2904,36.0,0.0,90.0,5.0,0.0
2905,36.0,0.0,90.0,13.0,0.0
2906,63.0,0.0,90.0,4.0,0.0
2907,75.0,42.0,30.0,6.0,0.0
2908,75.0,0.0,30.0,7.0,0.0
2909,24.0,6.0,90.0,12.0,0.0
2910,63.0,0.0,90.0,1.0,0.0
2911,68.0,0.0,90.0,13.0,0.0
2912,63.0,0.0,90.0,13.0,0.0
2913,36.0,0.0,90.0,11.0,0.0
2914,63.0,0.0,30.0,10.0,0.0
2915,68.0,0.0,180.0,8.0,0.0
2916,68.0,0.0,90.0,0.0,0.0
2917,68.0,6.0,180.0,3.0,0.0
2918,77.0,0.0,30.0,7.0,0.0
2919,77.0,16.0,30.0,2.0,0.0
2920,77.0,0.0,30.0,6.0,0.0
2921,61.0,0.0,30.0,10.0,0.0
2922,68.0,0.0,30.0,0.0,0.0
2923,37.0,4.0,30.0,13.0,0.0
2924,37.0,0.0,30.0,11.0,0.0
2925,78.0,12.0,15.0,7.0,0.0
2926,65.0,0.0,90.0,13.0,0.0
2927,37.0,0.0,30.0,5.0,0.0
2928,63.0,0.0,15.0,4.0,0.0
2929,56.0,0.0,90.0,13.0,0.0
2930,78.0,0.0,15.0,6.0,0.0
2931,78.0,0.0,15.0,2.0,0.0
2932,25.0,0.0,30.0,12.0,0.0
2933,63.0,0.0,15.0,10.0,0.0
2934,61.0,0.0,15.0,10.0,0.0
2935,77.0,0.0,15.0,2.0,0.0
2936,77.0,12.0,15.0,6.0,0.0
2937,61.0,0.0,15.0,4.0,0.0
2938,77.0,0.0,15.0,7.0,0.0
2939,63.0,0.0,15.0,4.0,0.0
2940,63.0,8.0,15.0,10.0,0.0
2941,78.0,0.0,15.0,2.0,0.0
2942,78.0,0.0,15.0,6.0,0.0
2943,78.0,0.0,15.0,7.0,0.0
2944,61.0,0.0,15.0,4.0,0.0
2945,77.0,0.0,15.0,6.0,0.0
2946,61.0,12.0,15.0,10.0,0.0
2947,77.0,0.0,15.0,2.0,0.0
2948,77.0,0.0,15.0,7.0,0.0
2949,63.0,0.0,15.0,4.0,0.0
2950,78.0,0.0,15.0,2.0,0.0
2951,36.0,0.0,30.0,5.0,0.0
2952,24.0,0.0,30.0,12.0,0.0
2953,36.0,0.0,30.0,13.0,0.0
2954,36.0,4.0,30.0,11.0,0.0
2955,68.0,0.0,30.0,0.0,0.0
2956,78.0,0.0,15.0,6.0,0.0
2957,63.0,0.0,15.0,10.0,0.0
2958,78.0,12.0,15.0,7.0,0.0
2959,61.0,0.0,15.0,4.0,0.0
2960,77.0,0.0,15.0,6.0,0.0
2961,77.0,0.0,15.0,7.0,0.0
2962,61.0,0.0,15.0,10.0,0.0
2963,77.0,12.0,15.0,2.0,0.0
2964,78.0,0.0,15.0,7.0,0.0
2965,78.0,0.0,15.0,6.0,0.0
2966,78.0,0.0,15.0,2.0,0.0
2967,63.0,0.0,15.0,4.0,0.0
2968,63.0,2.0,15.0,10.0,0.0
2969,61.0,0.0,15.0,10.0,0.0
2970,77.0,12.0,15.0,2.0,0.0
2971,77.0,0.0,15.0,7.0,0.0
2972,77.0,0.0,15.0,6.0,0.0
2973,61.0,0.0,15.0,4.0,0.0
2974,63.0,0.0,15.0,10.0,0.0
2975,68.0,0.0,30.0,0.0,0.0
2976,34.0,0.0,30.0,5.0,0.0
2977,22.0,0.0,30.0,12.0,0.0
2978,34.0,0.0,30.0,11.0,0.0
2979,73.0,0.0,90.0,8.0,0.0
2980,73.0,0.0,90.0,3.0,0.0
2981,78.0,0.0,15.0,7.0,0.0
2982,78.0,12.0,15.0,2.0,0.0
2983,34.0,4.0,30.0,13.0,0.0
2984,78.0,0.0,15.0,6.0,0.0
2985,73.0,6.0,90.0,13.0,0.0
2986,65.0,0.0,90.0,13.0,0.0
2987,63.0,0.0,15.0,4.0,0.0
2988,61.0,0.0,15.0,10.0,0.0
2989,77.0,0.0,15.0,2.0,0.0
2990,77.0,0.0,15.0,6.0,0.0
2991,61.0,0.0,15.0,4.0,0.0
2992,77.0,12.0,15.0,7.0,0.0
2993,78.0,0.0,15.0,2.0,0.0
2994,63.0,0.0,15.0,4.0,0.0
2995,78.0,8.0,15.0,6.0,0.0
2996,78.0,0.0,15.0,7.0,0.0
2997,63.0,0.0,15.0,10.0,0.0
2998,77.0,0.0,15.0,7.0,0.0
2999,61.0,0.0,15.0,4.0,0.0
3000,77.0,23.0,15.0,6.0,0.0
3001,77.0,0.0,15.0,2.0,0.0
3002,61.0,0.0,15.0,10.0,0.0
3003,36.0,3.0,30.0,11.0,0.0
3004,24.0,0.0,30.0,12.0,0.0
3005,60.0,0.0,20.0,10.0,0.0
3006,75.0,0.0,20.0,6.0,0.0
3007,75.0,0.0,20.0,7.0,0.0
3008,36.0,0.0,30.0,5.0,0.0
3009,68.0,0.0,30.0,0.0,0.0
3010,36.0,0.0,30.0,13.0,0.0
3011,75.0,0.0,20.0,2.0,0.0
3012,60.0,15.0,20.0,4.0,0.0
3013,61.0,0.0,20.0,4.0,0.0
3014,77.0,0.0,20.0,2.0,0.0
3015,77.0,0.0,20.0,7.0,0.0
3016,61.0,87.0,20.0,10.0,0.0
3017,77.0,0.0,20.0,6.0,0.0
3018,63.0,0.0,90.0,1.0,0.0
3019,63.0,0.0,90.0,10.0,0.0
3020,78.0,0.0,90.0,7.0,0.0
3021,78.0,0.0,90.0,2.0,0.0
3022,72.0,0.0,90.0,8.0,0.0
3023,78.0,22.0,90.0,6.0,0.0
3024,32.0,0.0,90.0,11.0,0.0
3025,20.0,0.0,90.0,12.0,0.0
3026,32.0,0.0,90.0,13.0,0.0
3027,72.0,0.0,90.0,13.0,0.0
3028,68.0,0.0,180.0,0.0,0.0
3029,32.0,0.0,90.0,5.0,0.0
3030,63.0,0.0,90.0,4.0,0.0
3031,63.0,0.0,90.0,13.0,0.0
3032,72.0,0.0,90.0,3.0,0.0
3033,68.0,0.0,90.0,4.0,0.0
3034,77.0,0.0,30.0,7.0,0.0
3035,73.0,6.0,90.0,8.0,0.0
3036,44.0,0.0,30.0,5.0,0.0
3037,77.0,0.0,30.0,2.0,0.0
3038,68.0,0.0,90.0,10.0,0.0
3039,73.0,0.0,90.0,13.0,0.0
3040,56.0,0.0,30.0,1.0,0.0
3041,65.0,0.0,90.0,13.0,0.0
3042,44.0,4.0,30.0,13.0,0.0
3043,77.0,0.0,30.0,6.0,0.0
3044,44.0,0.0,30.0,11.0,0.0
3045,32.0,0.0,30.0,12.0,0.0
3046,75.0,12.0,15.0,3.0,0.0
3047,73.0,12.0,15.0,3.0,0.0
3048,75.0,8.0,15.0,3.0,0.0
3049,73.0,12.0,15.0,3.0,0.0
3050,75.0,12.0,15.0,3.0,0.0
3051,34.0,0.0,30.0,12.0,0.0
3052,46.0,0.0,30.0,5.0,0.0
3053,46.0,0.0,30.0,11.0,0.0
3054,46.0,0.0,30.0,13.0,0.0
3055,75.0,0.0,30.0,2.0,0.0
3056,56.0,4.0,30.0,1.0,0.0
3057,75.0,0.0,30.0,7.0,0.0
3058,75.0,0.0,30.0,6.0,0.0
3059,73.0,12.0,15.0,3.0,0.0
3060,75.0,2.0,15.0,3.0,0.0
3061,73.0,44.0,15.0,3.0,0.0
3062,48.0,42.0,30.0,5.0,0.0
3063,75.0,0.0,90.0,8.0,0.0
3064,68.0,0.0,90.0,13.0,0.0
3065,75.0,0.0,90.0,13.0,0.0
3066,48.0,0.0,30.0,11.0,0.0
3067,80.0,6.0,90.0,6.0,0.0
3068,48.0,0.0,30.0,13.0,0.0
3069,60.0,0.0,90.0,10.0,0.0
3070,80.0,0.0,90.0,2.0,0.0
3071,60.0,0.0,90.0,4.0,0.0
3072,66.0,0.0,90.0,0.0,0.0
3073,80.0,0.0,90.0,7.0,0.0
3074,56.0,0.0,30.0,1.0,0.0
3075,36.0,0.0,30.0,12.0,0.0
3076,75.0,0.0,90.0,3.0,0.0
3077,56.0,0.0,30.0,1.0,0.0
3078,32.0,48.0,30.0,12.0,0.0
3079,44.0,0.0,30.0,11.0,0.0
3080,44.0,0.0,30.0,5.0,0.0
3081,44.0,0.0,30.0,13.0,0.0
3082,73.0,0.0,30.0,6.0,0.0
3083,73.0,0.0,30.0,2.0,0.0
3084,65.0,0.0,30.0,10.0,0.0
3085,65.0,0.0,90.0,13.0,0.0
3086,73.0,42.0,30.0,7.0,0.0
3087,46.0,0.0,30.0,13.0,0.0
3088,34.0,0.0,30.0,12.0,0.0
3089,70.0,0.0,90.0,3.0,0.0
3090,46.0,0.0,30.0,11.0,0.0
3091,61.0,0.0,90.0,1.0,0.0
3092,73.0,0.0,90.0,13.0,0.0
3093,46.0,0.0,30.0,5.0,0.0
3094,70.0,0.0,90.0,8.0,0.0
3095,65.0,6.0,90.0,0.0,0.0
3096,65.0,0.0,30.0,4.0,0.0
3097,42.0,0.0,30.0,11.0,0.0
3098,66.0,0.0,30.0,4.0,0.0
3099,30.0,0.0,30.0,12.0,0.0
3100,75.0,16.0,30.0,2.0,0.0
3101,75.0,0.0,30.0,7.0,0.0
3102,42.0,0.0,30.0,13.0,0.0
3103,42.0,0.0,30.0,5.0,0.0
3104,66.0,0.0,30.0,10.0,0.0
3105,75.0,0.0,30.0,6.0,0.0
3106,44.0,0.0,90.0,11.0,0.0
3107,63.0,0.0,90.0,13.0,0.0
3108,72.0,6.0,120.0,7.0,0.0
3109,44.0,0.0,90.0,5.0,0.0
3110,72.0,0.0,120.0,6.0,0.0
3111,70.0,12.0,15.0,3.0,0.0
3112,32.0,0.0,90.0,12.0,0.0
3113,63.0,0.0,15.0,10.0,0.0
3114,56.0,0.0,30.0,1.0,0.0
3115,44.0,0.0,90.0,13.0,0.0
3116,72.0,6.0,90.0,13.0,0.0
3117,63.0,0.0,120.0,4.0,0.0
3118,66.0,4.0,30.0,0.0,0.0
3119,72.0,0.0,120.0,2.0,0.0
3120,70.0,0.0,15.0,8.0,0.0
3121,68.0,0.0,15.0,8.0,0.0
3122,61.0,0.0,15.0,10.0,0.0
3123,68.0,12.0,15.0,3.0,0.0
3124,70.0,0.0,15.0,3.0,0.0
3125,70.0,0.0,15.0,8.0,0.0
3126,63.0,8.0,15.0,10.0,0.0
3127,68.0,12.0,15.0,8.0,0.0
3128,61.0,0.0,15.0,10.0,0.0
3129,68.0,0.0,15.0,3.0,0.0
3130,63.0,0.0,15.0,10.0,0.0
3131,70.0,0.0,15.0,8.0,0.0
3132,65.0,4.0,30.0,0.0,0.0
3133,70.0,12.0,15.0,3.0,0.0
3134,56.0,0.0,30.0,1.0,0.0
3135,68.0,0.0,15.0,3.0,0.0
3136,68.0,0.0,15.0,8.0,0.0
3137,61.0,12.0,15.0,10.0,0.0
3138,63.0,0.0,15.0,10.0,0.0
3139,70.0,0.0,15.0,3.0,0.0
3140,70.0,2.0,15.0,8.0,0.0
3141,68.0,0.0,15.0,8.0,0.0
3142,61.0,12.0,15.0,10.0,0.0
3143,68.0,0.0,15.0,3.0,0.0
3144,63.0,4.0,30.0,0.0,0.0
3145,32.0,0.0,90.0,13.0,0.0
3146,60.0,0.0,90.0,13.0,0.0
3147,63.0,0.0,90.0,13.0,0.0
3148,56.0,0.0,30.0,1.0,0.0
3149,70.0,0.0,15.0,3.0,0.0
3150,70.0,0.0,15.0,8.0,0.0
3151,20.0,6.0,90.0,12.0,0.0
3152,32.0,0.0,90.0,5.0,0.0
3153,63.0,12.0,15.0,10.0,0.0
3154,32.0,0.0,90.0,11.0,0.0
3155,68.0,0.0,15.0,8.0,0.0
3156,61.0,12.0,15.0,10.0,0.0
3157,68.0,0.0,15.0,3.0,0.0
3158,70.0,0.0,15.0,3.0,0.0
3159,70.0,2.0,15.0,8.0,0.0
3160,63.0,0.0,15.0,10.0,0.0
3161,61.0,0.0,15.0,10.0,0.0
3162,68.0,0.0,15.0,3.0,0.0
3163,68.0,38.0,15.0,8.0,0.0
3164,68.0,0.0,30.0,3.0,0.0
3165,65.0,0.0,30.0,10.0,0.0
3166,65.0,0.0,30.0,0.0,0.0
3167,73.0,0.0,30.0,6.0,0.0
3168,73.0,0.0,30.0,7.0,0.0
3169,73.0,0.0,30.0,2.0,0.0
3170,56.0,0.0,30.0,1.0,0.0
3171,65.0,0.0,30.0,4.0,0.0
3172,68.0,186.0,30.0,8.0,0.0
3173,61.0,0.0,270.0,0.0,0.0
3174,73.0,0.0,270.0,2.0,0.0
3175,37.0,0.0,270.0,5.0,0.0
3176,68.0,0.0,270.0,3.0,0.0
3177,53.0,0.0,270.0,1.0,0.0
3178,65.0,0.0,270.0,4.0,0.0
3179,68.0,96.0,180.0,8.0,0.0
3180,65.0,342.0,270.0,13.0,0.0
3181,37.0,0.0,270.0,13.0,0.0
3182,37.0,0.0,270.0,11.0,0.0
3183,65.0,0.0,270.0,10.0,0.0
3184,73.0,0.0,270.0,6.0,0.0
3185,73.0,0.0,270.0,7.0,0.0
3186,56.0,0.0,270.0,13.0,0.0
3187,25.0,0.0,270.0,12.0,0.0
3188,68.0,0.0,90.0,0.0,0.0
3189,65.0,6.0,90.0,1.0,0.0
3190,61.0,0.0,30.0,2.0,0.0
3191,61.0,0.0,30.0,4.0,0.0
3192,61.0,42.0,30.0,3.0,0.0
3193,60.0,48.0,30.0,4.0,0.0
3194,60.0,0.0,30.0,2.0,0.0
3195,60.0,0.0,30.0,3.0,0.0
3196,70.0,0.0,30.0,0.0,0.0
3197,66.0,0.0,30.0,1.0,0.0
3198,58.0,48.0,30.0,4.0,0.0
3199,58.0,0.0,30.0,2.0,0.0
3200,58.0,0.0,30.0,3.0,0.0
3201,65.0,0.0,30.0,1.0,0.0
3202,61.0,0.0,30.0,4.0,0.0
3203,61.0,48.0,30.0,2.0,0.0
3204,61.0,0.0,30.0,3.0,0.0
3205,68.0,0.0,30.0,0.0,0.0
3206,66.0,42.0,30.0,0.0,0.0
3207,63.0,0.0,30.0,1.0,0.0
3208,63.0,0.0,90.0,4.0,0.0
3209,63.0,6.0,90.0,3.0,0.0
3210,63.0,0.0,90.0,2.0,0.0
3211,65.0,48.0,30.0,0.0,0.0
3212,61.0,0.0,30.0,1.0,0.0
3213,66.0,0.0,30.0,0.0,0.0
3214,63.0,0.0,30.0,1.0,0.0
3215,56.0,0.0,30.0,4.0,0.0
3216,56.0,48.0,30.0,3.0,0.0
3217,56.0,0.0,30.0,2.0,0.0
3218,60.0,0.0,30.0,4.0,0.0
3219,63.0,0.0,30.0,0.0,0.0
3220,56.0,0.0,30.0,1.0,0.0
3221,60.0,0.0,30.0,3.0,0.0
3222,60.0,48.0,30.0,2.0,0.0
3223,61.0,0.0,90.0,1.0,0.0
3224,61.0,0.0,30.0,3.0,0.0
3225,61.0,0.0,30.0,4.0,0.0
3226,65.0,6.0,90.0,0.0,0.0
3227,61.0,42.0,30.0,2.0,0.0
3228,65.0,0.0,30.0,2.0,0.0
3229,65.0,0.0,30.0,4.0,0.0
3230,65.0,48.0,30.0,3.0,0.0
3231,61.0,0.0,30.0,2.0,0.0
3232,61.0,42.0,30.0,4.0,0.0
3233,65.0,0.0,90.0,1.0,0.0
3234,61.0,0.0,30.0,3.0,0.0
3235,68.0,6.0,90.0,0.0,0.0
3236,65.0,48.0,30.0,2.0,0.0
3237,65.0,0.0,30.0,4.0,0.0
3238,65.0,0.0,30.0,3.0,0.0
3239,63.0,0.0,30.0,1.0,0.0
3240,68.0,6.0,90.0,4.0,0.0
3241,68.0,0.0,90.0,3.0,0.0
3242,68.0,0.0,90.0,2.0,0.0
3243,66.0,42.0,30.0,0.0,0.0
3244,61.0,48.0,30.0,1.0,0.0
3245,65.0,0.0,30.0,0.0,0.0
3246,56.0,0.0,30.0,4.0,0.0
3247,56.0,0.0,30.0,3.0,0.0
3248,56.0,0.0,30.0,2.0,0.0
3249,63.0,48.0,30.0,1.0,0.0
3250,66.0,0.0,30.0,0.0,0.0
3251,56.0,0.0,30.0,1.0,0.0
3252,60.0,0.0,30.0,2.0,0.0
3253,60.0,0.0,30.0,4.0,0.0
3254,63.0,48.0,30.0,0.0,0.0
3255,60.0,0.0,30.0,3.0,0.0
3256,65.0,42.0,30.0,0.0,0.0
3257,61.0,0.0,30.0,2.0,0.0
3258,61.0,0.0,30.0,4.0,0.0
3259,61.0,0.0,30.0,3.0,0.0
3260,61.0,6.0,90.0,1.0,0.0
3261,61.0,0.0,30.0,0.0,0.0
3262,65.0,0.0,30.0,3.0,0.0
3263,65.0,48.0,30.0,2.0,0.0
3264,65.0,0.0,30.0,4.0,0.0
3265,65.0,0.0,30.0,1.0,0.0
3266,68.0,6.0,90.0,0.0,0.0
3267,61.0,0.0,30.0,2.0,0.0
3268,61.0,42.0,30.0,4.0,0.0
3269,61.0,0.0,30.0,3.0,0.0
3270,65.0,0.0,30.0,2.0,0.0
3271,61.0,0.0,30.0,1.0,0.0
3272,65.0,0.0,30.0,3.0,0.0
3273,65.0,48.0,30.0,4.0,0.0
3274,61.0,0.0,30.0,3.0,0.0
3275,61.0,0.0,30.0,2.0,0.0
3276,65.0,42.0,30.0,0.0,0.0
3277,68.0,6.0,90.0,1.0,0.0
3278,61.0,0.0,30.0,4.0,0.0
3279,65.0,48.0,30.0,4.0,0.0
3280,65.0,0.0,30.0,3.0,0.0
3281,61.0,0.0,30.0,0.0,0.0
3282,65.0,0.0,30.0,2.0,0.0
3283,61.0,0.0,30.0,4.0,0.0
3284,61.0,0.0,30.0,2.0,0.0
3285,73.0,6.0,90.0,0.0,0.0
3286,65.0,42.0,30.0,1.0,0.0
3287,61.0,0.0,30.0,3.0,0.0
3288,65.0,0.0,30.0,2.0,0.0
3289,61.0,0.0,30.0,1.0,0.0
3290,65.0,27.0,30.0,4.0,0.0
3291,65.0,0.0,30.0,3.0,0.0
3292,61.0,0.0,30.0,3.0,0.0
3293,61.0,0.0,30.0,2.0,0.0
3294,65.0,3.0,30.0,0.0,0.0
3295,61.0,0.0,30.0,4.0,0.0
3296,56.0,21.0,20.0,1.0,0.0
3297,53.0,24.0,20.0,1.0,0.0
3298,63.0,21.0,20.0,0.0,0.0
3299,65.0,0.0,30.0,3.0,0.0
3300,65.0,3.0,30.0,2.0,0.0
3301,65.0,0.0,30.0,4.0,0.0
3302,56.0,0.0,20.0,1.0,0.0
3303,65.0,0.0,20.0,0.0,0.0
3304,61.0,45.0,20.0,1.0,0.0
3305,63.0,48.0,30.0,1.0,0.0
3306,66.0,0.0,30.0,0.0,0.0
3307,68.0,0.0,30.0,2.0,0.0
3308,68.0,0.0,30.0,4.0,0.0
3309,68.0,0.0,30.0,3.0,0.0
3310,73.0,0.0,30.0,3.0,0.0
3311,73.0,27.0,30.0,2.0,0.0
3312,73.0,0.0,30.0,4.0,0.0
3313,65.0,0.0,30.0,0.0,0.0
3314,61.0,0.0,30.0,1.0,0.0
3315,72.0,0.0,20.0,4.0,0.0
3316,56.0,3.0,30.0,1.0,0.0
3317,72.0,0.0,20.0,2.0,0.0
3318,63.0,0.0,20.0,0.0,0.0
3319,72.0,21.0,20.0,3.0,0.0
3320,61.0,24.0,20.0,0.0,0.0
3321,70.0,0.0,20.0,4.0,0.0
3322,70.0,0.0,20.0,2.0,0.0
3323,70.0,0.0,20.0,3.0,0.0
3324,72.0,0.0,20.0,3.0,0.0
3325,72.0,0.0,20.0,4.0,0.0
3326,72.0,0.0,20.0,2.0,0.0
3327,56.0,24.0,20.0,1.0,0.0
3328,63.0,0.0,20.0,0.0,0.0
3329,73.0,0.0,20.0,2.0,0.0
3330,56.0,0.0,20.0,1.0,0.0
3331,65.0,0.0,20.0,0.0,0.0
3332,73.0,0.0,20.0,4.0,0.0
3333,73.0,24.0,20.0,3.0,0.0
3334,56.0,0.0,30.0,1.0,0.0
3335,72.0,3.0,30.0,2.0,0.0
3336,72.0,0.0,30.0,3.0,0.0
3337,72.0,0.0,30.0,4.0,0.0
3338,63.0,21.0,20.0,0.0,0.0
3339,65.0,24.0,20.0,0.0,0.0
3340,68.0,3.0,30.0,4.0,0.0
3341,63.0,0.0,30.0,1.0,0.0
3342,66.0,21.0,20.0,0.0,0.0
3343,68.0,0.0,30.0,3.0,0.0
3344,68.0,0.0,30.0,2.0,0.0
3345,63.0,45.0,20.0,0.0,0.0
3346,61.0,42.0,30.0,2.0,0.0
3347,65.0,6.0,90.0,1.0,0.0
3348,61.0,0.0,30.0,4.0,0.0
3349,61.0,0.0,30.0,3.0,0.0
3350,68.0,0.0,90.0,0.0,0.0
3351,60.0,0.0,30.0,2.0,0.0
3352,60.0,0.0,30.0,3.0,0.0
3353,60.0,48.0,30.0,4.0,0.0
3354,66.0,0.0,30.0,1.0,0.0
3355,58.0,0.0,30.0,3.0,0.0
3356,58.0,48.0,30.0,2.0,0.0
3357,70.0,0.0,30.0,0.0,0.0
3358,58.0,0.0,30.0,4.0,0.0
3359,68.0,0.0,30.0,0.0,0.0
3360,61.0,0.0,30.0,2.0,0.0
3361,65.0,0.0,30.0,1.0,0.0
3362,61.0,48.0,30.0,3.0,0.0
3363,61.0,0.0,30.0,4.0,0.0
3364,66.0,42.0,30.0,0.0,0.0
3365,63.0,0.0,30.0,1.0,0.0
3366,63.0,0.0,90.0,3.0,0.0
3367,63.0,0.0,90.0,4.0,0.0
3368,63.0,6.0,90.0,2.0,0.0
3369,65.0,48.0,30.0,0.0,0.0
3370,61.0,0.0,30.0,1.0,0.0
3371,56.0,48.0,30.0,4.0,0.0
3372,56.0,0.0,30.0,2.0,0.0
3373,63.0,0.0,30.0,1.0,0.0
3374,56.0,0.0,30.0,3.0,0.0
3375,66.0,0.0,30.0,0.0,0.0
3376,63.0,0.0,30.0,0.0,0.0
3377,60.0,0.0,30.0,3.0,0.0
3378,60.0,48.0,30.0,2.0,0.0
3379,56.0,0.0,30.0,1.0,0.0
3380,60.0,0.0,30.0,4.0,0.0
3381,61.0,0.0,30.0,2.0,0.0
3382,65.0,0.0,90.0,0.0,0.0
3383,61.0,0.0,30.0,3.0,0.0
3384,61.0,6.0,90.0,1.0,0.0
3385,61.0,42.0,30.0,4.0,0.0
3386,65.0,0.0,30.0,2.0,0.0
3387,65.0,48.0,30.0,3.0,0.0
3388,65.0,0.0,30.0,4.0,0.0
3389,61.0,0.0,30.0,4.0,0.0
3390,65.0,0.0,90.0,1.0,0.0
3391,61.0,0.0,30.0,2.0,0.0
3392,68.0,6.0,90.0,0.0,0.0
3393,61.0,42.0,30.0,3.0,0.0
3394,65.0,0.0,30.0,4.0,0.0
3395,65.0,0.0,30.0,2.0,0.0
3396,65.0,48.0,30.0,3.0,0.0
3397,66.0,42.0,30.0,0.0,0.0
3398,63.0,0.0,30.0,1.0,0.0
3399,68.0,0.0,90.0,3.0,0.0
3400,68.0,0.0,90.0,4.0,0.0
3401,68.0,6.0,90.0,2.0,0.0
3402,61.0,0.0,30.0,1.0,0.0
3403,65.0,48.0,30.0,0.0,0.0
3404,56.0,48.0,30.0,4.0,0.0
3405,66.0,0.0,30.0,0.0,0.0
3406,56.0,0.0,30.0,3.0,0.0
3407,56.0,0.0,30.0,2.0,0.0
3408,63.0,0.0,30.0,1.0,0.0
3409,63.0,0.0,30.0,0.0,0.0
3410,60.0,48.0,30.0,3.0,0.0
3411,60.0,0.0,30.0,2.0,0.0
3412,56.0,0.0,30.0,1.0,0.0
3413,60.0,0.0,30.0,4.0,0.0
3414,65.0,42.0,30.0,0.0,0.0
3415,61.0,0.0,30.0,4.0,0.0
3416,61.0,0.0,30.0,2.0,0.0
3417,61.0,6.0,90.0,1.0,0.0
3418,61.0,0.0,30.0,3.0,0.0
3419,61.0,48.0,30.0,0.0,0.0
3420,65.0,0.0,30.0,3.0,0.0
3421,65.0,0.0,30.0,2.0,0.0
3422,65.0,0.0,30.0,4.0,0.0
3423,61.0,0.0,30.0,4.0,0.0
3424,61.0,42.0,30.0,3.0,0.0
3425,65.0,0.0,30.0,1.0,0.0
3426,68.0,6.0,90.0,0.0,0.0
3427,61.0,0.0,30.0,2.0,0.0
3428,65.0,0.0,30.0,4.0,0.0
3429,65.0,0.0,30.0,2.0,0.0
3430,61.0,0.0,30.0,1.0,0.0
3431,65.0,48.0,30.0,3.0,0.0
3432,61.0,42.0,30.0,4.0,0.0
3433,61.0,0.0,30.0,3.0,0.0
3434,61.0,0.0,30.0,2.0,0.0
3435,65.0,0.0,30.0,0.0,0.0
3436,68.0,6.0,90.0,1.0,0.0
3437,65.0,0.0,30.0,2.0,0.0
3438,65.0,0.0,30.0,3.0,0.0
3439,61.0,48.0,30.0,0.0,0.0
3440,65.0,0.0,30.0,4.0,0.0
3441,61.0,0.0,30.0,2.0,0.0
3442,61.0,0.0,30.0,3.0,0.0
3443,73.0,6.0,90.0,0.0,0.0
3444,61.0,0.0,30.0,4.0,0.0
3445,65.0,42.0,30.0,1.0,0.0
3446,65.0,0.0,30.0,4.0,0.0
3447,65.0,27.0,30.0,2.0,0.0
3448,65.0,0.0,30.0,3.0,0.0
3449,61.0,0.0,30.0,1.0,0.0
3450,56.0,21.0,20.0,1.0,0.0
3451,61.0,0.0,30.0,3.0,0.0
3452,65.0,0.0,30.0,0.0,0.0
3453,61.0,0.0,30.0,2.0,0.0
3454,61.0,3.0,30.0,4.0,0.0
3455,53.0,24.0,20.0,1.0,0.0
3456,65.0,0.0,30.0,4.0,0.0
3457,56.0,0.0,20.0,1.0,0.0
3458,65.0,3.0,30.0,3.0,0.0
3459,63.0,21.0,20.0,0.0,0.0
3460,65.0,0.0,30.0,2.0,0.0
3461,61.0,0.0,20.0,1.0,0.0
3462,65.0,24.0,20.0,0.0,0.0
3463,68.0,0.0,30.0,4.0,0.0
3464,63.0,0.0,20.0,1.0,0.0
3465,68.0,0.0,30.0,3.0,0.0
3466,66.0,21.0,20.0,0.0,0.0
3467,68.0,3.0,30.0,2.0,0.0
3468,65.0,24.0,20.0,0.0,0.0
3469,61.0,0.0,20.0,1.0,0.0
3470,73.0,0.0,30.0,2.0,0.0
3471,73.0,0.0,30.0,4.0,0.0
3472,66.0,0.0,20.0,0.0,0.0
3473,73.0,3.0,30.0,3.0,0.0
3474,63.0,21.0,20.0,1.0,0.0
3475,65.0,0.0,20.0,0.0,0.0
3476,61.0,183.0,20.0,1.0,0.0
3477,56.0,0.0,180.0,1.0,0.0
3478,72.0,0.0,180.0,2.0,0.0
3479,63.0,0.0,180.0,0.0,0.0
3480,72.0,54.0,180.0,4.0,0.0
3481,72.0,0.0,180.0,3.0,0.0
3482,68.0,6.0,90.0,0.0,0.0
3483,61.0,42.0,30.0,4.0,0.0
3484,61.0,0.0,30.0,2.0,0.0
3485,61.0,0.0,30.0,3.0,0.0
3486,65.0,0.0,90.0,1.0,0.0
3487,60.0,0.0,30.0,3.0,0.0
3488,60.0,48.0,30.0,4.0,0.0
3489,60.0,0.0,30.0,2.0,0.0
3490,66.0,0.0,30.0,1.0,0.0
3491,58.0,48.0,30.0,2.0,0.0
3492,58.0,0.0,30.0,4.0,0.0
3493,70.0,0.0,30.0,0.0,0.0
3494,58.0,0.0,30.0,3.0,0.0
3495,61.0,0.0,30.0,3.0,0.0
3496,61.0,48.0,30.0,4.0,0.0
3497,65.0,0.0,30.0,1.0,0.0
3498,61.0,0.0,30.0,2.0,0.0
3499,68.0,0.0,30.0,0.0,0.0
3500,63.0,42.0,30.0,1.0,0.0
3501,63.0,6.0,90.0,2.0,0.0
3502,63.0,0.0,90.0,3.0,0.0
3503,63.0,0.0,90.0,4.0,0.0
3504,66.0,0.0,30.0,0.0,0.0
3505,61.0,48.0,30.0,1.0,0.0
3506,65.0,0.0,30.0,0.0,0.0
3507,56.0,0.0,30.0,3.0,0.0
3508,56.0,0.0,30.0,4.0,0.0
3509,56.0,0.0,30.0,2.0,0.0
3510,63.0,48.0,30.0,1.0,0.0
3511,66.0,0.0,30.0,0.0,0.0
3512,60.0,0.0,30.0,4.0,0.0
3513,56.0,0.0,30.0,1.0,0.0
3514,60.0,0.0,30.0,3.0,0.0
3515,63.0,48.0,30.0,0.0,0.0
3516,60.0,0.0,30.0,2.0,0.0
3517,61.0,42.0,30.0,2.0,0.0
3518,61.0,0.0,90.0,1.0,0.0
3519,61.0,0.0,30.0,4.0,0.0
3520,65.0,6.0,90.0,0.0,0.0
3521,61.0,0.0,30.0,3.0,0.0
3522,65.0,0.0,30.0,4.0,0.0
3523,65.0,48.0,30.0,2.0,0.0
3524,65.0,0.0,30.0,3.0,0.0
3525,68.0,6.0,90.0,0.0,0.0
3526,61.0,0.0,30.0,3.0,0.0
3527,61.0,42.0,30.0,4.0,0.0
3528,61.0,0.0,30.0,2.0,0.0
3529,65.0,0.0,90.0,1.0,0.0
3530,65.0,0.0,30.0,2.0,0.0
3531,65.0,0.0,30.0,3.0,0.0
3532,65.0,48.0,30.0,4.0,0.0
3533,68.0,0.0,90.0,3.0,0.0
3534,66.0,0.0,30.0,0.0,0.0
3535,68.0,0.0,90.0,4.0,0.0
3536,63.0,42.0,30.0,1.0,0.0
3537,68.0,6.0,90.0,2.0,0.0
3538,65.0,48.0,30.0,0.0,0.0
3539,61.0,0.0,30.0,1.0,0.0
3540,56.0,48.0,30.0,2.0,0.0
3541,56.0,0.0,30.0,4.0,0.0
3542,56.0,0.0,30.0,3.0,0.0
3543,66.0,0.0,30.0,0.0,0.0
3544,63.0,0.0,30.0,1.0,0.0
3545,63.0,48.0,30.0,0.0,0.0
3546,60.0,0.0,30.0,3.0,0.0
3547,60.0,0.0,30.0,2.0,0.0
3548,60.0,0.0,30.0,4.0,0.0
3549,56.0,0.0,30.0,1.0,0.0
3550,61.0,6.0,90.0,1.0,0.0
3551,61.0,0.0,30.0,4.0,0.0
3552,61.0,42.0,30.0,3.0,0.0
3553,61.0,0.0,30.0,2.0,0.0
3554,65.0,0.0,30.0,0.0,0.0
3555,65.0,0.0,30.0,4.0,0.0
3556,65.0,0.0,30.0,3.0,0.0
3557,61.0,0.0,30.0,0.0,0.0
3558,65.0,48.0,30.0,2.0,0.0
3559,68.0,6.0,90.0,0.0,0.0
3560,61.0,42.0,30.0,3.0,0.0
3561,61.0,0.0,30.0,4.0,0.0
3562,65.0,0.0,30.0,1.0,0.0
3563,61.0,0.0,30.0,2.0,0.0
3564,61.0,48.0,30.0,1.0,0.0
3565,65.0,0.0,30.0,4.0,0.0
3566,65.0,0.0,30.0,3.0,0.0
3567,65.0,0.0,30.0,2.0,0.0
3568,61.0,0.0,30.0,3.0,0.0
3569,68.0,6.0,90.0,1.0,0.0
3570,61.0,0.0,30.0,4.0,0.0
3571,61.0,0.0,30.0,2.0,0.0
3572,65.0,42.0,30.0,0.0,0.0
3573,61.0,0.0,30.0,0.0,0.0
3574,65.0,0.0,30.0,3.0,0.0
3575,65.0,48.0,30.0,2.0,0.0
3576,65.0,0.0,30.0,4.0,0.0
3577,61.0,0.0,30.0,3.0,0.0
3578,73.0,6.0,90.0,0.0,0.0
3579,65.0,0.0,30.0,1.0,0.0
3580,61.0,42.0,30.0,4.0,0.0
3581,61.0,0.0,30.0,2.0,0.0
3582,61.0,0.0,30.0,1.0,0.0
3583,65.0,0.0,30.0,4.0,0.0
3584,65.0,0.0,30.0,2.0,0.0
3585,65.0,27.0,30.0,3.0,0.0
3586,61.0,0.0,30.0,2.0,0.0
3587,65.0,0.0,30.0,0.0,0.0
3588,61.0,3.0,30.0,4.0,0.0
3589,56.0,21.0,20.0,1.0,0.0
3590,61.0,0.0,30.0,3.0,0.0
3591,53.0,24.0,20.0,1.0,0.0
3592,65.0,3.0,30.0,4.0,0.0
3593,63.0,0.0,20.0,0.0,0.0
3594,65.0,0.0,30.0,2.0,0.0
3595,65.0,0.0,30.0,3.0,0.0
3596,56.0,21.0,20.0,1.0,0.0
3597,61.0,0.0,20.0,1.0,0.0
3598,65.0,45.0,20.0,0.0,0.0
3599,68.0,0.0,30.0,2.0,0.0
3600,68.0,0.0,30.0,3.0,0.0
3601,66.0,0.0,30.0,0.0,0.0
3602,68.0,48.0,30.0,4.0,0.0
3603,63.0,0.0,30.0,1.0,0.0
3604,61.0,0.0,30.0,1.0,0.0
3605,73.0,0.0,30.0,4.0,0.0
3606,65.0,0.0,30.0,0.0,0.0
3607,73.0,0.0,30.0,3.0,0.0
3608,73.0,27.0,30.0,2.0,0.0
3609,72.0,0.0,20.0,2.0,0.0
3610,63.0,21.0,20.0,0.0,0.0
3611,72.0,0.0,20.0,4.0,0.0
3612,72.0,0.0,20.0,3.0,0.0
3613,56.0,3.0,30.0,1.0,0.0
3614,70.0,0.0,20.0,4.0,0.0
3615,61.0,0.0,20.0,0.0,0.0
3616,70.0,0.0,20.0,2.0,0.0
3617,70.0,24.0,20.0,3.0,0.0
3618,56.0,24.0,20.0,1.0,0.0
3619,72.0,0.0,20.0,4.0,0.0
3620,72.0,0.0,20.0,2.0,0.0
3621,63.0,0.0,20.0,0.0,0.0
3622,72.0,0.0,20.0,3.0,0.0
3623,73.0,24.0,20.0,4.0,0.0
3624,65.0,0.0,20.0,0.0,0.0
3625,73.0,0.0,20.0,2.0,0.0
3626,73.0,0.0,20.0,3.0,0.0
3627,56.0,0.0,20.0,1.0,0.0
3628,63.0,21.0,20.0,0.0,0.0
3629,72.0,0.0,30.0,3.0,0.0
3630,72.0,0.0,30.0,4.0,0.0
3631,56.0,0.0,30.0,1.0,0.0
3632,72.0,3.0,30.0,2.0,0.0
3633,65.0,24.0,20.0,0.0,0.0
3634,68.0,3.0,30.0,4.0,0.0
3635,68.0,0.0,30.0,3.0,0.0
3636,66.0,21.0,20.0,0.0,0.0
3637,68.0,0.0,30.0,2.0,0.0
3638,63.0,0.0,30.0,1.0,0.0
3639,63.0,45.0,20.0,0.0,0.0
3640,61.0,0.0,30.0,2.0,0.0
3641,61.0,0.0,30.0,3.0,0.0
3642,65.0,0.0,90.0,1.0,0.0
3643,61.0,42.0,30.0,4.0,0.0
3644,68.0,6.0,90.0,0.0,0.0
3645,60.0,0.0,30.0,4.0,0.0
3646,60.0,48.0,30.0,2.0,0.0
3647,60.0,0.0,30.0,3.0,0.0
3648,58.0,48.0,30.0,4.0,0.0
3649,58.0,0.0,30.0,2.0,0.0
3650,58.0,0.0,30.0,3.0,0.0
3651,66.0,0.0,30.0,1.0,0.0
3652,70.0,0.0,30.0,0.0,0.0
3653,68.0,48.0,30.0,0.0,0.0
3654,65.0,0.0,30.0,1.0,0.0
3655,61.0,0.0,30.0,4.0,0.0
3656,61.0,0.0,30.0,2.0,0.0
3657,61.0,0.0,30.0,3.0,0.0
3658,63.0,0.0,90.0,3.0,0.0
3659,63.0,0.0,90.0,2.0,0.0
3660,63.0,42.0,30.0,1.0,0.0
3661,66.0,0.0,30.0,0.0,0.0
3662,63.0,6.0,90.0,4.0,0.0
3663,61.0,0.0,30.0,1.0,0.0
3664,65.0,48.0,30.0,0.0,0.0
3665,56.0,48.0,30.0,3.0,0.0
3666,56.0,0.0,30.0,2.0,0.0
3667,56.0,0.0,30.0,4.0,0.0
3668,66.0,0.0,30.0,0.0,0.0
3669,63.0,0.0,30.0,1.0,0.0
3670,60.0,0.0,30.0,2.0,0.0
3671,63.0,0.0,30.0,0.0,0.0
3672,60.0,0.0,30.0,3.0,0.0
3673,60.0,48.0,30.0,4.0,0.0
3674,56.0,0.0,30.0,1.0,0.0
3675,61.0,42.0,30.0,3.0,0.0
3676,61.0,0.0,90.0,1.0,0.0
3677,61.0,0.0,30.0,2.0,0.0
3678,65.0,6.0,90.0,0.0,0.0
3679,61.0,0.0,30.0,4.0,0.0
3680,65.0,48.0,30.0,2.0,0.0
3681,65.0,0.0,30.0,3.0,0.0
3682,65.0,0.0,30.0,4.0,0.0
3683,68.0,6.0,90.0,0.0,0.0
3684,65.0,0.0,90.0,1.0,0.0
3685,61.0,0.0,30.0,4.0,0.0
3686,61.0,0.0,30.0,3.0,0.0
3687,61.0,42.0,30.0,2.0,0.0
3688,65.0,0.0,30.0,4.0,0.0
3689,65.0,0.0,30.0,2.0,0.0
3690,65.0,48.0,30.0,3.0,0.0
3691,68.0,0.0,90.0,2.0,0.0
3692,68.0,6.0,90.0,3.0,0.0
3693,63.0,0.0,30.0,1.0,0.0
3694,68.0,0.0,90.0,4.0,0.0
3695,66.0,42.0,30.0,0.0,0.0
3696,65.0,0.0,30.0,0.0,0.0
3697,61.0,48.0,30.0,1.0,0.0
3698,56.0,48.0,30.0,2.0,0.0
3699,63.0,0.0,30.0,1.0,0.0
3700,56.0,0.0,30.0,3.0,0.0
3701,56.0,0.0,30.0,4.0,0.0
3702,66.0,0.0,30.0,0.0,0.0
3703,60.0,0.0,30.0,4.0,0.0
3704,60.0,48.0,30.0,3.0,0.0
3705,63.0,0.0,30.0,0.0,0.0
3706,56.0,0.0,30.0,1.0,0.0
3707,60.0,0.0,30.0,2.0,0.0
3708,65.0,42.0,30.0,0.0,0.0
3709,61.0,0.0,30.0,3.0,0.0
3710,61.0,0.0,30.0,2.0,0.0
3711,61.0,6.0,90.0,1.0,0.0
3712,61.0,0.0,30.0,4.0,0.0
3713,61.0,48.0,30.0,0.0,0.0
3714,65.0,0.0,30.0,3.0,0.0
3715,65.0,0.0,30.0,4.0,0.0
3716,65.0,0.0,30.0,2.0,0.0
3717,61.0,0.0,30.0,3.0,0.0
3718,65.0,0.0,30.0,1.0,0.0
3719,61.0,0.0,30.0,4.0,0.0
3720,68.0,6.0,90.0,0.0,0.0
3721,61.0,42.0,30.0,2.0,0.0
3722,65.0,0.0,30.0,3.0,0.0
3723,65.0,48.0,30.0,4.0,0.0
3724,61.0,0.0,30.0,1.0,0.0
3725,65.0,0.0,30.0,2.0,0.0
3726,61.0,0.0,30.0,3.0,0.0
3727,61.0,0.0,30.0,2.0,0.0
3728,61.0,42.0,30.0,4.0,0.0
3729,68.0,6.0,90.0,1.0,0.0
3730,65.0,0.0,30.0,0.0,0.0
3731,65.0,0.0,30.0,2.0,0.0
3732,65.0,0.0,30.0,4.0,0.0
3733,65.0,0.0,30.0,3.0,0.0
3734,61.0,48.0,30.0,0.0,0.0
3735,61.0,42.0,30.0,3.0,0.0
3736,65.0,0.0,30.0,1.0,0.0
3737,61.0,0.0,30.0,2.0,0.0
3738,61.0,0.0,30.0,4.0,0.0
3739,73.0,6.0,90.0,0.0,0.0
3740,61.0,0.0,30.0,1.0,0.0
3741,65.0,0.0,30.0,3.0,0.0
3742,65.0,0.0,30.0,2.0,0.0
3743,65.0,27.0,30.0,4.0,0.0
3744,61.0,0.0,30.0,3.0,0.0
3745,61.0,3.0,30.0,4.0,0.0
3746,65.0,0.0,30.0,0.0,0.0
3747,56.0,21.0,20.0,1.0,0.0
3748,61.0,0.0,30.0,2.0,0.0
3749,53.0,24.0,20.0,1.0,0.0
3750,65.0,0.0,30.0,4.0,0.0
3751,56.0,0.0,20.0,1.0,0.0
3752,65.0,3.0,30.0,2.0,0.0
3753,65.0,0.0,30.0,3.0,0.0
3754,63.0,21.0,20.0,0.0,0.0
3755,61.0,0.0,20.0,1.0,0.0
3756,65.0,24.0,20.0,0.0,0.0
3757,68.0,0.0,30.0,3.0,0.0
3758,63.0,0.0,20.0,1.0,0.0
3759,68.0,0.0,30.0,4.0,0.0
3760,66.0,21.0,20.0,0.0,0.0
3761,68.0,3.0,30.0,2.0,0.0
3762,61.0,0.0,20.0,1.0,0.0
3763,65.0,24.0,20.0,0.0,0.0
3764,73.0,0.0,30.0,4.0,0.0
3765,73.0,3.0,30.0,2.0,0.0
3766,73.0,0.0,30.0,3.0,0.0
3767,63.0,0.0,20.0,1.0,0.0
3768,66.0,21.0,20.0,0.0,0.0
3769,61.0,0.0,20.0,1.0,0.0
3770,65.0,183.0,20.0,0.0,0.0
3771,72.0,0.0,180.0,4.0,0.0
3772,63.0,54.0,180.0,0.0,0.0
3773,72.0,0.0,180.0,2.0,0.0
3774,56.0,0.0,180.0,1.0,0.0
3775,72.0,0.0,180.0,3.0,0.0
3776,56.0,6.0,90.0,1.0,0.0
3777,60.0,0.0,30.0,4.0,0.0
3778,63.0,0.0,90.0,0.0,0.0
3779,60.0,42.0,30.0,2.0,0.0
3780,60.0,0.0,30.0,3.0,0.0
3781,68.0,48.0,30.0,3.0,0.0
3782,68.0,0.0,30.0,2.0,0.0
3783,68.0,0.0,30.0,4.0,0.0
3784,61.0,48.0,30.0,0.0,0.0
3785,53.0,0.0,30.0,1.0,0.0
3786,56.0,0.0,30.0,2.0,0.0
3787,56.0,0.0,30.0,4.0,0.0
3788,56.0,0.0,30.0,3.0,0.0
3789,68.0,0.0,30.0,4.0,0.0
3790,56.0,48.0,30.0,1.0,0.0
3791,68.0,0.0,30.0,3.0,0.0
3792,68.0,0.0,30.0,2.0,0.0
3793,63.0,0.0,30.0,0.0,0.0
3794,61.0,0.0,30.0,3.0,0.0
3795,65.0,48.0,30.0,0.0,0.0
3796,61.0,0.0,30.0,2.0,0.0
3797,61.0,0.0,30.0,4.0,0.0
3798,61.0,0.0,30.0,1.0,0.0
3799,68.0,0.0,30.0,4.0,0.0
3800,68.0,0.0,30.0,2.0,0.0
3801,68.0,0.0,30.0,3.0,0.0
3802,56.0,48.0,30.0,1.0,0.0
3803,63.0,0.0,30.0,0.0,0.0
3804,56.0,0.0,30.0,4.0,0.0
3805,56.0,0.0,30.0,2.0,0.0
3806,56.0,0.0,30.0,3.0,0.0
3807,65.0,0.0,30.0,0.0,0.0
3808,61.0,48.0,30.0,1.0,0.0
3809,61.0,0.0,30.0,0.0,0.0
3810,68.0,0.0,30.0,4.0,0.0
3811,68.0,0.0,30.0,3.0,0.0
3812,68.0,0.0,30.0,2.0,0.0
3813,53.0,48.0,30.0,1.0,0.0
3814,60.0,42.0,30.0,4.0,0.0
3815,60.0,0.0,30.0,3.0,0.0
3816,60.0,0.0,30.0,2.0,0.0
3817,56.0,0.0,90.0,1.0,0.0
3818,63.0,6.0,90.0,0.0,0.0
3819,68.0,0.0,30.0,2.0,0.0
3820,68.0,0.0,30.0,3.0,0.0
3821,68.0,48.0,30.0,4.0,0.0
3822,56.0,0.0,30.0,4.0,0.0
3823,56.0,0.0,30.0,2.0,0.0
3824,66.0,0.0,90.0,0.0,0.0
3825,56.0,42.0,30.0,3.0,0.0
3826,63.0,6.0,90.0,1.0,0.0
3827,68.0,0.0,30.0,3.0,0.0
3828,68.0,48.0,30.0,4.0,0.0
3829,68.0,0.0,30.0,2.0,0.0
3830,61.0,48.0,30.0,4.0,0.0
3831,61.0,0.0,30.0,3.0,0.0
3832,65.0,0.0,30.0,0.0,0.0
3833,61.0,0.0,30.0,2.0,0.0
3834,61.0,0.0,30.0,1.0,0.0
3835,56.0,0.0,30.0,1.0,0.0
3836,63.0,0.0,30.0,0.0,0.0
3837,68.0,0.0,30.0,3.0,0.0
3838,68.0,0.0,30.0,4.0,0.0
3839,68.0,48.0,30.0,2.0,0.0
3840,65.0,0.0,30.0,0.0,0.0
3841,56.0,0.0,30.0,3.0,0.0
3842,61.0,48.0,30.0,1.0,0.0
3843,56.0,0.0,30.0,4.0,0.0
3844,56.0,0.0,30.0,2.0,0.0
3845,68.0,0.0,30.0,2.0,0.0
3846,68.0,48.0,30.0,4.0,0.0
3847,53.0,0.0,30.0,1.0,0.0
3848,61.0,0.0,30.0,0.0,0.0
3849,68.0,0.0,30.0,3.0,0.0
3850,63.0,0.0,30.0,0.0,0.0
3851,60.0,42.0,30.0,4.0,0.0
3852,56.0,6.0,90.0,1.0,0.0
3853,60.0,0.0,30.0,2.0,0.0
3854,60.0,0.0,30.0,3.0,0.0
3855,56.0,0.0,30.0,0.0,0.0
3856,63.0,48.0,30.0,2.0,0.0
3857,63.0,0.0,30.0,4.0,0.0
3858,63.0,0.0,30.0,3.0,0.0
3859,66.0,6.0,90.0,0.0,0.0
3860,60.0,0.0,30.0,3.0,0.0
3861,60.0,0.0,30.0,4.0,0.0
3862,60.0,42.0,30.0,2.0,0.0
3863,63.0,0.0,30.0,1.0,0.0
3864,56.0,48.0,30.0,1.0,0.0
3865,63.0,0.0,30.0,2.0,0.0
3866,63.0,0.0,30.0,4.0,0.0
3867,63.0,0.0,30.0,3.0,0.0
3868,65.0,0.0,30.0,0.0,0.0
3869,61.0,42.0,30.0,2.0,0.0
3870,61.0,0.0,30.0,4.0,0.0
3871,68.0,6.0,90.0,1.0,0.0
3872,61.0,0.0,30.0,3.0,0.0
3873,65.0,0.0,30.0,4.0,0.0
3874,65.0,0.0,30.0,3.0,0.0
3875,61.0,48.0,30.0,0.0,0.0
3876,65.0,0.0,30.0,2.0,0.0
3877,68.0,0.0,30.0,0.0,0.0
3878,65.0,0.0,30.0,1.0,0.0
3879,61.0,0.0,30.0,3.0,0.0
3880,61.0,27.0,30.0,4.0,0.0
3881,61.0,0.0,30.0,2.0,0.0
3882,61.0,3.0,30.0,1.0,0.0
3883,66.0,21.0,20.0,0.0,0.0
3884,65.0,0.0,30.0,3.0,0.0
3885,65.0,0.0,30.0,2.0,0.0
3886,65.0,0.0,30.0,4.0,0.0
3887,68.0,24.0,20.0,0.0,0.0
3888,66.0,21.0,20.0,2.0,0.0
3889,66.0,0.0,20.0,4.0,0.0
3890,66.0,3.0,30.0,1.0,0.0
3891,66.0,0.0,20.0,3.0,0.0
3892,70.0,0.0,30.0,0.0,0.0
3893,65.0,0.0,20.0,4.0,0.0
3894,65.0,24.0,20.0,3.0,0.0
3895,65.0,0.0,20.0,2.0,0.0
3896,68.0,3.0,30.0,0.0,0.0
3897,65.0,0.0,30.0,1.0,0.0
3898,66.0,0.0,20.0,2.0,0.0
3899,66.0,21.0,20.0,3.0,0.0
3900,66.0,0.0,20.0,4.0,0.0
3901,68.0,24.0,20.0,4.0,0.0
3902,68.0,0.0,20.0,2.0,0.0
3903,68.0,0.0,20.0,3.0,0.0
3904,63.0,0.0,30.0,1.0,0.0
3905,66.0,3.0,30.0,0.0,0.0
3906,70.0,21.0,20.0,2.0,0.0
3907,70.0,0.0,20.0,3.0,0.0
3908,70.0,0.0,20.0,4.0,0.0
3909,72.0,24.0,20.0,3.0,0.0
3910,72.0,0.0,20.0,4.0,0.0
3911,72.0,0.0,20.0,2.0,0.0
3912,61.0,0.0,30.0,1.0,0.0
3913,65.0,3.0,30.0,0.0,0.0
3914,73.0,0.0,20.0,3.0,0.0
3915,73.0,21.0,20.0,4.0,0.0
3916,73.0,0.0,20.0,2.0,0.0
3917,70.0,0.0,20.0,2.0,0.0
3918,70.0,0.0,20.0,3.0,0.0
3919,70.0,24.0,20.0,4.0,0.0
3920,72.0,0.0,20.0,3.0,0.0
3921,72.0,21.0,20.0,2.0,0.0
3922,63.0,0.0,20.0,0.0,0.0
3923,72.0,0.0,20.0,4.0,0.0
3924,56.0,3.0,30.0,1.0,0.0
3925,70.0,0.0,20.0,3.0,0.0
3926,61.0,0.0,20.0,0.0,0.0
3927,70.0,24.0,20.0,2.0,0.0
3928,70.0,0.0,20.0,4.0,0.0
3929,72.0,0.0,20.0,4.0,0.0
3930,72.0,0.0,20.0,2.0,0.0
3931,72.0,0.0,20.0,3.0,0.0
3932,56.0,0.0,20.0,1.0,0.0
3933,63.0,24.0,20.0,0.0,0.0
3934,73.0,0.0,20.0,4.0,0.0
3935,65.0,24.0,20.0,0.0,0.0
3936,73.0,0.0,20.0,3.0,0.0
3937,73.0,0.0,20.0,2.0,0.0
3938,56.0,0.0,20.0,1.0,0.0
3939,63.0,0.0,20.0,0.0,0.0
3940,72.0,21.0,20.0,3.0,0.0
3941,72.0,0.0,20.0,4.0,0.0
3942,56.0,3.0,30.0,1.0,0.0
3943,72.0,0.0,20.0,2.0,0.0
3944,73.0,0.0,20.0,2.0,0.0
3945,65.0,0.0,20.0,0.0,0.0
3946,73.0,24.0,20.0,3.0,0.0
3947,73.0,0.0,20.0,4.0,0.0
3948,75.0,0.0,20.0,4.0,0.0
3949,63.0,3.0,30.0,1.0,0.0
3950,75.0,0.0,20.0,2.0,0.0
3951,75.0,21.0,20.0,3.0,0.0
3952,66.0,0.0,20.0,0.0,0.0
3953,73.0,0.0,20.0,2.0,0.0
3954,73.0,45.0,20.0,4.0,0.0
3955,65.0,0.0,20.0,0.0,0.0
3956,73.0,0.0,20.0,3.0,0.0
3957,72.0,0.0,30.0,4.0,0.0
3958,56.0,0.0,90.0,1.0,0.0
3959,63.0,6.0,90.0,0.0,0.0
3960,72.0,0.0,30.0,2.0,0.0
3961,72.0,42.0,30.0,3.0,0.0
3962,68.0,48.0,30.0,2.0,0.0
3963,68.0,0.0,30.0,4.0,0.0
3964,68.0,0.0,30.0,3.0,0.0
3965,56.0,0.0,30.0,4.0,0.0
3966,56.0,48.0,30.0,3.0,0.0
3967,56.0,0.0,30.0,2.0,0.0
3968,61.0,0.0,30.0,0.0,0.0
3969,53.0,0.0,30.0,1.0,0.0
3970,56.0,48.0,30.0,1.0,0.0
3971,63.0,0.0,30.0,0.0,0.0
3972,68.0,0.0,30.0,2.0,0.0
3973,68.0,0.0,30.0,4.0,0.0
3974,68.0,0.0,30.0,3.0,0.0
3975,65.0,48.0,30.0,0.0,0.0
3976,61.0,0.0,30.0,3.0,0.0
3977,61.0,0.0,30.0,4.0,0.0
3978,61.0,0.0,30.0,1.0,0.0
3979,61.0,0.0,30.0,2.0,0.0
3980,68.0,0.0,30.0,2.0,0.0
3981,63.0,0.0,30.0,0.0,0.0
3982,68.0,0.0,30.0,4.0,0.0
3983,56.0,0.0,30.0,1.0,0.0
3984,68.0,48.0,30.0,3.0,0.0
3985,65.0,48.0,30.0,0.0,0.0
3986,61.0,0.0,30.0,1.0,0.0
3987,56.0,0.0,30.0,3.0,0.0
3988,56.0,0.0,30.0,4.0,0.0
3989,56.0,0.0,30.0,2.0,0.0
3990,68.0,0.0,30.0,4.0,0.0
3991,61.0,48.0,30.0,0.0,0.0
3992,53.0,0.0,30.0,1.0,0.0
3993,68.0,0.0,30.0,3.0,0.0
3994,68.0,0.0,30.0,2.0,0.0
3995,63.0,0.0,90.0,0.0,0.0
3996,56.0,6.0,90.0,1.0,0.0
3997,60.0,0.0,30.0,4.0,0.0
3998,60.0,42.0,30.0,3.0,0.0
3999,60.0,0.0,30.0,2.0,0.0
4000,68.0,48.0,30.0,3.0,0.0
4001,68.0,0.0,30.0,2.0,0.0
4002,68.0,0.0,30.0,4.0,0.0
4003,66.0,0.0,90.0,0.0,0.0
4004,56.0,0.0,30.0,2.0,0.0
4005,56.0,42.0,30.0,3.0,0.0
4006,56.0,0.0,30.0,4.0,0.0
4007,63.0,6.0,90.0,1.0,0.0
4008,68.0,48.0,30.0,2.0,0.0
4009,68.0,0.0,30.0,3.0,0.0
4010,68.0,0.0,30.0,4.0,0.0
4011,61.0,0.0,30.0,3.0,0.0
4012,61.0,0.0,30.0,2.0,0.0
4013,61.0,0.0,30.0,1.0,0.0
4014,61.0,0.0,30.0,4.0,0.0
4015,65.0,48.0,30.0,0.0,0.0
4016,68.0,0.0,30.0,4.0,0.0
4017,68.0,0.0,30.0,3.0,0.0
4018,56.0,0.0,30.0,1.0,0.0
4019,68.0,0.0,30.0,2.0,0.0
4020,63.0,48.0,30.0,0.0,0.0
4021,56.0,0.0,30.0,4.0,0.0
4022,56.0,48.0,30.0,3.0,0.0
4023,61.0,0.0,30.0,1.0,0.0
4024,65.0,0.0,30.0,0.0,0.0
4025,56.0,0.0,30.0,2.0,0.0
4026,68.0,0.0,30.0,2.0,0.0
4027,61.0,0.0,30.0,0.0,0.0
4028,68.0,0.0,30.0,4.0,0.0
4029,68.0,48.0,30.0,3.0,0.0
4030,53.0,0.0,30.0,1.0,0.0
4031,60.0,0.0,30.0,2.0,0.0
4032,56.0,6.0,90.0,1.0,0.0
4033,60.0,0.0,30.0,4.0,0.0
4034,60.0,42.0,30.0,3.0,0.0
4035,63.0,0.0,30.0,0.0,0.0
4036,56.0,0.0,30.0,0.0,0.0
4037,63.0,0.0,30.0,4.0,0.0
4038,63.0,48.0,30.0,3.0,0.0
4039,63.0,0.0,30.0,2.0,0.0
4040,60.0,42.0,30.0,3.0,0.0
4041,63.0,0.0,30.0,1.0,0.0
4042,60.0,0.0,30.0,4.0,0.0
4043,66.0,6.0,90.0,0.0,0.0
4044,60.0,0.0,30.0,2.0,0.0
4045,56.0,0.0,30.0,1.0,0.0
4046,63.0,0.0,30.0,3.0,0.0
4047,63.0,48.0,30.0,4.0,0.0
4048,63.0,0.0,30.0,2.0,0.0
4049,68.0,6.0,90.0,1.0,0.0
4050,61.0,42.0,30.0,3.0,0.0
4051,61.0,0.0,30.0,4.0,0.0
4052,65.0,0.0,30.0,0.0,0.0
4053,61.0,0.0,30.0,2.0,0.0
4054,61.0,48.0,30.0,0.0,0.0
4055,65.0,0.0,30.0,4.0,0.0
4056,65.0,0.0,30.0,2.0,0.0
4057,65.0,0.0,30.0,3.0,0.0
4058,61.0,0.0,30.0,3.0,0.0
4059,65.0,0.0,30.0,1.0,0.0
4060,61.0,48.0,30.0,2.0,0.0
4061,61.0,0.0,30.0,4.0,0.0
4062,73.0,0.0,30.0,0.0,0.0
4063,65.0,0.0,30.0,4.0,0.0
4064,68.0,0.0,30.0,0.0,0.0
4065,65.0,0.0,30.0,3.0,0.0
4066,61.0,27.0,30.0,1.0,0.0
4067,65.0,0.0,30.0,2.0,0.0
4068,56.0,0.0,30.0,1.0,0.0
4069,65.0,21.0,20.0,0.0,0.0
4070,61.0,3.0,30.0,2.0,0.0
4071,61.0,0.0,30.0,3.0,0.0
4072,61.0,0.0,30.0,4.0,0.0
4073,63.0,24.0,20.0,0.0,0.0
4074,73.0,0.0,30.0,4.0,0.0
4075,65.0,21.0,20.0,0.0,0.0
4076,73.0,0.0,30.0,2.0,0.0
4077,73.0,3.0,30.0,3.0,0.0
4078,49.0,0.0,30.0,1.0,0.0
4079,61.0,13.0,20.0,0.0,0.0
4080,53.0,3.0,30.0,1.0,0.0
4081,63.0,1.0,20.0,0.0,0.0
4082,73.0,0.0,15.0,2.0,0.0
4083,73.0,0.0,15.0,4.0,0.0
4084,73.0,11.0,15.0,3.0,0.0
4085,72.0,0.0,15.0,4.0,0.0
4086,72.0,0.0,15.0,2.0,0.0
4087,72.0,12.0,15.0,3.0,0.0
4088,73.0,8.0,15.0,3.0,0.0
4089,61.0,1.0,20.0,0.0,0.0
4090,73.0,0.0,15.0,4.0,0.0
4091,73.0,0.0,15.0,2.0,0.0
4092,72.0,23.0,15.0,4.0,0.0
4093,72.0,0.0,15.0,2.0,0.0
4094,72.0,0.0,15.0,3.0,0.0
4095,70.0,21.0,20.0,3.0,0.0
4096,56.0,3.0,30.0,1.0,0.0
4097,63.0,0.0,20.0,0.0,0.0
4098,70.0,0.0,20.0,4.0,0.0
4099,70.0,0.0,20.0,2.0,0.0
4100,72.0,183.0,20.0,2.0,0.0
4101,72.0,0.0,20.0,3.0,0.0
4102,65.0,0.0,20.0,0.0,0.0
4103,72.0,0.0,20.0,4.0,0.0
4104,73.0,0.0,180.0,2.0,0.0
4105,61.0,0.0,180.0,0.0,0.0
4106,53.0,0.0,180.0,1.0,0.0
4107,73.0,54.0,180.0,3.0,0.0
4108,73.0,0.0,180.0,4.0,0.0
4109,63.0,0.0,90.0,0.0,0.0
4110,60.0,0.0,30.0,3.0,0.0
4111,60.0,42.0,30.0,4.0,0.0
4112,60.0,0.0,30.0,2.0,0.0
4113,56.0,6.0,90.0,1.0,0.0
4114,68.0,48.0,30.0,2.0,0.0
4115,68.0,0.0,30.0,3.0,0.0
4116,68.0,0.0,30.0,4.0,0.0
4117,61.0,0.0,30.0,0.0,0.0
4118,56.0,48.0,30.0,2.0,0.0
4119,56.0,0.0,30.0,3.0,0.0
4120,53.0,0.0,30.0,1.0,0.0
4121,56.0,0.0,30.0,4.0,0.0
4122,68.0,48.0,30.0,4.0,0.0
4123,63.0,0.0,30.0,0.0,0.0
4124,56.0,0.0,30.0,1.0,0.0
4125,68.0,0.0,30.0,3.0,0.0
4126,68.0,0.0,30.0,2.0,0.0
4127,61.0,0.0,30.0,4.0,0.0
4128,65.0,0.0,30.0,0.0,0.0
4129,61.0,48.0,30.0,1.0,0.0
4130,61.0,0.0,30.0,3.0,0.0
4131,61.0,0.0,30.0,2.0,0.0
4132,63.0,0.0,30.0,0.0,0.0
4133,68.0,48.0,30.0,3.0,0.0
4134,68.0,0.0,30.0,4.0,0.0
4135,56.0,0.0,30.0,1.0,0.0
4136,68.0,0.0,30.0,2.0,0.0
4137,56.0,0.0,30.0,2.0,0.0
4138,56.0,0.0,30.0,4.0,0.0
4139,65.0,0.0,30.0,0.0,0.0
4140,56.0,48.0,30.0,3.0,0.0
4141,61.0,0.0,30.0,1.0,0.0
4142,61.0,0.0,30.0,0.0,0.0
4143,68.0,48.0,30.0,4.0,0.0
4144,53.0,0.0,30.0,1.0,0.0
4145,68.0,0.0,30.0,3.0,0.0
4146,68.0,0.0,30.0,2.0,0.0
4147,63.0,6.0,90.0,0.0,0.0
4148,56.0,0.0,90.0,1.0,0.0
4149,60.0,0.0,30.0,3.0,0.0
4150,60.0,42.0,30.0,4.0,0.0
4151,60.0,0.0,30.0,2.0,0.0
4152,68.0,0.0,30.0,3.0,0.0
4153,68.0,0.0,30.0,2.0,0.0
4154,68.0,48.0,30.0,4.0,0.0
4155,56.0,0.0,30.0,4.0,0.0
4156,56.0,0.0,30.0,2.0,0.0
4157,63.0,0.0,90.0,1.0,0.0
4158,56.0,42.0,30.0,3.0,0.0
4159,66.0,6.0,90.0,0.0,0.0
4160,68.0,0.0,30.0,3.0,0.0
4161,68.0,0.0,30.0,4.0,0.0
4162,68.0,48.0,30.0,2.0,0.0
4163,61.0,48.0,30.0,2.0,0.0
4164,61.0,0.0,30.0,3.0,0.0
4165,65.0,0.0,30.0,0.0,0.0
4166,61.0,0.0,30.0,4.0,0.0
4167,61.0,0.0,30.0,1.0,0.0
4168,68.0,0.0,30.0,4.0,0.0
4169,68.0,48.0,30.0,2.0,0.0
4170,68.0,0.0,30.0,3.0,0.0
4171,56.0,0.0,30.0,1.0,0.0
4172,63.0,0.0,30.0,0.0,0.0
4173,65.0,0.0,30.0,0.0,0.0
4174,56.0,0.0,30.0,4.0,0.0
4175,56.0,0.0,30.0,2.0,0.0
4176,61.0,48.0,30.0,1.0,0.0
4177,56.0,0.0,30.0,3.0,0.0
4178,61.0,48.0,30.0,0.0,0.0
4179,68.0,0.0,30.0,2.0,0.0
4180,68.0,0.0,30.0,4.0,0.0
4181,53.0,0.0,30.0,1.0,0.0
4182,68.0,0.0,30.0,3.0,0.0
4183,56.0,6.0,90.0,1.0,0.0
4184,63.0,42.0,30.0,0.0,0.0
4185,60.0,0.0,30.0,4.0,0.0
4186,60.0,0.0,30.0,3.0,0.0
4187,60.0,0.0,30.0,2.0,0.0
4188,63.0,0.0,30.0,2.0,0.0
4189,63.0,0.0,30.0,4.0,0.0
4190,63.0,0.0,30.0,3.0,0.0
4191,56.0,48.0,30.0,0.0,0.0
4192,60.0,0.0,30.0,2.0,0.0
4193,60.0,42.0,30.0,3.0,0.0
4194,63.0,0.0,30.0,1.0,0.0
4195,66.0,6.0,90.0,0.0,0.0
4196,60.0,0.0,30.0,4.0,0.0
4197,63.0,0.0,30.0,3.0,0.0
4198,63.0,0.0,30.0,4.0,0.0
4199,63.0,48.0,30.0,2.0,0.0
4200,56.0,0.0,30.0,1.0,0.0
4201,61.0,0.0,30.0,3.0,0.0
4202,65.0,0.0,30.0,0.0,0.0
4203,61.0,0.0,30.0,2.0,0.0
4204,68.0,6.0,90.0,1.0,0.0
4205,61.0,42.0,30.0,4.0,0.0
4206,65.0,48.0,30.0,4.0,0.0
4207,65.0,0.0,30.0,2.0,0.0
4208,61.0,0.0,30.0,0.0,0.0
4209,65.0,0.0,30.0,3.0,0.0
4210,65.0,27.0,30.0,1.0,0.0
4211,61.0,0.0,30.0,2.0,0.0
4212,61.0,0.0,30.0,3.0,0.0
4213,68.0,0.0,30.0,0.0,0.0
4214,61.0,0.0,30.0,4.0,0.0
4215,65.0,0.0,30.0,2.0,0.0
4216,61.0,3.0,30.0,1.0,0.0
4217,65.0,0.0,30.0,3.0,0.0
4218,65.0,0.0,30.0,4.0,0.0
4219,66.0,21.0,20.0,0.0,0.0
4220,68.0,24.0,20.0,0.0,0.0
4221,66.0,3.0,30.0,1.0,0.0
4222,66.0,0.0,20.0,4.0,0.0
4223,66.0,0.0,20.0,3.0,0.0
4224,70.0,0.0,30.0,0.0,0.0
4225,66.0,21.0,20.0,2.0,0.0
4226,65.0,0.0,20.0,3.0,0.0
4227,65.0,24.0,20.0,2.0,0.0
4228,65.0,0.0,20.0,4.0,0.0
4229,66.0,0.0,20.0,4.0,0.0
4230,66.0,21.0,20.0,2.0,0.0
4231,68.0,0.0,30.0,0.0,0.0
4232,66.0,0.0,20.0,3.0,0.0
4233,65.0,3.0,30.0,1.0,0.0
4234,68.0,24.0,20.0,3.0,0.0
4235,68.0,0.0,20.0,4.0,0.0
4236,68.0,0.0,20.0,2.0,0.0
4237,63.0,3.0,30.0,1.0,0.0
4238,70.0,0.0,20.0,2.0,0.0
4239,70.0,21.0,20.0,4.0,0.0
4240,70.0,0.0,20.0,3.0,0.0
4241,66.0,0.0,30.0,0.0,0.0
4242,72.0,0.0,20.0,2.0,0.0
4243,72.0,0.0,20.0,3.0,0.0
4244,72.0,24.0,20.0,4.0,0.0
4245,73.0,21.0,20.0,2.0,0.0
4246,65.0,3.0,30.0,0.0,0.0
4247,61.0,0.0,30.0,1.0,0.0
4248,73.0,0.0,20.0,4.0,0.0
4249,73.0,0.0,20.0,3.0,0.0
4250,70.0,0.0,20.0,2.0,0.0
4251,70.0,24.0,20.0,3.0,0.0
4252,70.0,0.0,20.0,4.0,0.0
4253,72.0,0.0,20.0,4.0,0.0
4254,72.0,0.0,20.0,3.0,0.0
4255,63.0,0.0,20.0,0.0,0.0
4256,56.0,3.0,30.0,1.0,0.0
4257,72.0,21.0,20.0,2.0,0.0
4258,70.0,0.0,20.0,4.0,0.0
4259,61.0,0.0,20.0,0.0,0.0
4260,70.0,0.0,20.0,3.0,0.0
4261,70.0,24.0,20.0,2.0,0.0
4262,72.0,0.0,20.0,3.0,0.0
4263,72.0,24.0,20.0,4.0,0.0
4264,63.0,0.0,20.0,0.0,0.0
4265,72.0,0.0,20.0,2.0,0.0
4266,56.0,0.0,20.0,1.0,0.0
4267,56.0,24.0,20.0,1.0,0.0
4268,65.0,0.0,20.0,0.0,0.0
4269,73.0,0.0,20.0,3.0,0.0
4270,73.0,0.0,20.0,4.0,0.0
4271,73.0,0.0,20.0,2.0,0.0
4272,63.0,0.0,20.0,0.0,0.0
4273,56.0,3.0,30.0,1.0,0.0
4274,72.0,0.0,20.0,2.0,0.0
4275,72.0,0.0,20.0,4.0,0.0
4276,72.0,21.0,20.0,3.0,0.0
4277,73.0,0.0,20.0,2.0,0.0
4278,73.0,0.0,20.0,4.0,0.0
4279,65.0,0.0,20.0,0.0,0.0
4280,73.0,24.0,20.0,3.0,0.0
4281,66.0,0.0,20.0,0.0,0.0
4282,75.0,0.0,20.0,4.0,0.0
4283,75.0,21.0,20.0,3.0,0.0
4284,63.0,3.0,30.0,1.0,0.0
4285,75.0,0.0,20.0,2.0,0.0
4286,65.0,0.0,20.0,0.0,0.0
4287,73.0,0.0,20.0,2.0,0.0
4288,73.0,45.0,20.0,4.0,0.0
4289,73.0,0.0,20.0,3.0,0.0
4290,72.0,0.0,30.0,3.0,0.0
4291,72.0,42.0,30.0,4.0,0.0
4292,72.0,0.0,30.0,2.0,0.0
4293,63.0,6.0,90.0,0.0,0.0
4294,56.0,0.0,90.0,1.0,0.0
4295,68.0,0.0,30.0,2.0,0.0
4296,68.0,48.0,30.0,3.0,0.0
4297,68.0,0.0,30.0,4.0,0.0
4298,56.0,0.0,30.0,4.0,0.0
4299,56.0,0.0,30.0,3.0,0.0
4300,56.0,0.0,30.0,2.0,0.0
4301,61.0,0.0,30.0,0.0,0.0
4302,53.0,48.0,30.0,1.0,0.0
4303,63.0,0.0,30.0,0.0,0.0
4304,68.0,0.0,30.0,3.0,0.0
4305,68.0,0.0,30.0,4.0,0.0
4306,56.0,0.0,30.0,1.0,0.0
4307,68.0,48.0,30.0,2.0,0.0
4308,61.0,0.0,30.0,3.0,0.0
4309,65.0,48.0,30.0,0.0,0.0
4310,61.0,0.0,30.0,2.0,0.0
4311,61.0,0.0,30.0,4.0,0.0
4312,61.0,0.0,30.0,1.0,0.0
4313,68.0,48.0,30.0,4.0,0.0
4314,56.0,0.0,30.0,1.0,0.0
4315,68.0,0.0,30.0,3.0,0.0
4316,68.0,0.0,30.0,2.0,0.0
4317,63.0,0.0,30.0,0.0,0.0
4318,56.0,0.0,30.0,3.0,0.0
4319,56.0,0.0,30.0,2.0,0.0
4320,61.0,0.0,30.0,1.0,0.0
4321,65.0,0.0,30.0,0.0,0.0
4322,56.0,48.0,30.0,4.0,0.0
4323,53.0,0.0,30.0,1.0,0.0
4324,68.0,0.0,30.0,4.0,0.0
4325,68.0,0.0,30.0,2.0,0.0
4326,68.0,0.0,30.0,3.0,0.0
4327,61.0,48.0,30.0,0.0,0.0
4328,63.0,0.0,90.0,0.0,0.0
4329,60.0,0.0,30.0,2.0,0.0
4330,60.0,42.0,30.0,3.0,0.0
4331,60.0,0.0,30.0,4.0,0.0
4332,56.0,6.0,90.0,1.0,0.0
4333,68.0,0.0,30.0,2.0,0.0
4334,68.0,0.0,30.0,4.0,0.0
4335,68.0,48.0,30.0,3.0,0.0
4336,56.0,0.0,30.0,2.0,0.0
4337,63.0,0.0,90.0,1.0,0.0
4338,66.0,6.0,90.0,0.0,0.0
4339,56.0,0.0,30.0,3.0,0.0
4340,56.0,42.0,30.0,4.0,0.0
4341,68.0,48.0,30.0,4.0,0.0
4342,68.0,0.0,30.0,2.0,0.0
4343,68.0,0.0,30.0,3.0,0.0
4344,65.0,0.0,30.0,0.0,0.0
4345,61.0,48.0,30.0,1.0,0.0
4346,61.0,0.0,30.0,2.0,0.0
4347,61.0,0.0,30.0,3.0,0.0
4348,61.0,0.0,30.0,4.0,0.0
4349,68.0,0.0,30.0,4.0,0.0
4350,63.0,0.0,30.0,0.0,0.0
4351,68.0,48.0,30.0,3.0,0.0
4352,56.0,0.0,30.0,1.0,0.0
4353,68.0,0.0,30.0,2.0,0.0
4354,61.0,0.0,30.0,1.0,0.0
4355,56.0,0.0,30.0,3.0,0.0
4356,56.0,0.0,30.0,4.0,0.0
4357,56.0,0.0,30.0,2.0,0.0
4358,65.0,48.0,30.0,0.0,0.0
4359,68.0,0.0,30.0,2.0,0.0
4360,53.0,0.0,30.0,1.0,0.0
4361,68.0,0.0,30.0,4.0,0.0
4362,68.0,0.0,30.0,3.0,0.0
4363,61.0,48.0,30.0,0.0,0.0
4364,60.0,0.0,30.0,2.0,0.0
4365,56.0,6.0,90.0,1.0,0.0
4366,60.0,42.0,30.0,3.0,0.0
4367,60.0,0.0,30.0,4.0,0.0
4368,63.0,0.0,30.0,0.0,0.0
4369,63.0,48.0,30.0,2.0,0.0
4370,56.0,0.0,30.0,0.0,0.0
4371,63.0,0.0,30.0,3.0,0.0
4372,63.0,0.0,30.0,4.0,0.0
4373,60.0,0.0,30.0,2.0,0.0
4374,66.0,6.0,90.0,0.0,0.0
4375,60.0,0.0,30.0,3.0,0.0
4376,60.0,42.0,30.0,4.0,0.0
4377,63.0,0.0,30.0,1.0,0.0
4378,63.0,0.0,30.0,3.0,0.0
4379,56.0,0.0,30.0,1.0,0.0
4380,63.0,0.0,30.0,4.0,0.0
4381,63.0,48.0,30.0,2.0,0.0
4382,61.0,0.0,30.0,3.0,0.0
4383,65.0,0.0,30.0,0.0,0.0
4384,68.0,6.0,90.0,1.0,0.0
4385,61.0,0.0,30.0,4.0,0.0
4386,61.0,42.0,30.0,2.0,0.0
4387,65.0,0.0,30.0,4.0,0.0
4388,61.0,48.0,30.0,0.0,0.0
4389,65.0,0.0,30.0,3.0,0.0
4390,65.0,0.0,30.0,2.0,0.0
4391,61.0,0.0,30.0,4.0,0.0
4392,61.0,0.0,30.0,2.0,0.0
4393,61.0,0.0,30.0,3.0,0.0
4394,65.0,0.0,30.0,1.0,0.0
4395,73.0,48.0,30.0,0.0,0.0
4396,68.0,27.0,30.0,0.0,0.0
4397,65.0,0.0,30.0,4.0,0.0
4398,65.0,0.0,30.0,2.0,0.0
4399,65.0,0.0,30.0,3.0,0.0
4400,61.0,0.0,30.0,1.0,0.0
4401,61.0,0.0,30.0,3.0,0.0
4402,61.0,0.0,30.0,2.0,0.0
4403,61.0,0.0,30.0,4.0,0.0
4404,65.0,21.0,20.0,0.0,0.0
4405,56.0,3.0,30.0,1.0,0.0
4406,63.0,24.0,20.0,0.0,0.0
4407,65.0,21.0,20.0,0.0,0.0
4408,73.0,0.0,30.0,2.0,0.0
4409,49.0,3.0,30.0,1.0,0.0
4410,73.0,0.0,30.0,4.0,0.0
4411,73.0,0.0,30.0,3.0,0.0
4412,61.0,13.0,20.0,0.0,0.0
4413,63.0,1.0,20.0,0.0,0.0
4414,73.0,0.0,15.0,4.0,0.0
4415,53.0,3.0,30.0,1.0,0.0
4416,73.0,11.0,15.0,3.0,0.0
4417,73.0,0.0,15.0,2.0,0.0
4418,72.0,0.0,15.0,2.0,0.0
4419,72.0,12.0,15.0,4.0,0.0
4420,72.0,0.0,15.0,3.0,0.0
4421,61.0,1.0,20.0,0.0,0.0
4422,73.0,0.0,15.0,4.0,0.0
4423,73.0,0.0,15.0,3.0,0.0
4424,73.0,8.0,15.0,2.0,0.0
4425,72.0,23.0,15.0,4.0,0.0
4426,72.0,0.0,15.0,2.0,0.0
4427,72.0,0.0,15.0,3.0,0.0
4428,63.0,0.0,20.0,0.0,0.0
4429,70.0,21.0,20.0,4.0,0.0
4430,70.0,0.0,20.0,2.0,0.0
4431,56.0,3.0,30.0,1.0,0.0
4432,70.0,0.0,20.0,3.0,0.0
4433,72.0,183.0,20.0,3.0,0.0
4434,72.0,0.0,20.0,2.0,0.0
4435,72.0,0.0,20.0,4.0,0.0
4436,65.0,0.0,20.0,0.0,0.0
4437,73.0,0.0,180.0,3.0,0.0
4438,61.0,0.0,180.0,0.0,0.0
4439,73.0,480.0,180.0,2.0,0.0
4440,53.0,0.0,180.0,1.0,0.0
4441,73.0,0.0,180.0,4.0,0.0
4442,61.0,0.0,90.0,13.0,0.0
4443,68.0,54.0,90.0,2.0,0.0
4444,41.0,0.0,180.0,12.0,0.0
4445,68.0,0.0,90.0,7.0,0.0
4446,53.0,0.0,180.0,11.0,0.0
4447,65.0,0.0,90.0,3.0,0.0
4448,61.0,0.0,180.0,10.0,0.0
4449,61.0,0.0,180.0,4.0,0.0
4450,53.0,6.0,180.0,5.0,0.0
4451,53.0,0.0,180.0,13.0,0.0
4452,68.0,0.0,90.0,13.0,0.0
4453,49.0,0.0,90.0,0.0,0.0
4454,68.0,0.0,90.0,6.0,0.0
4455,65.0,0.0,90.0,8.0,0.0
4456,68.0,0.0,90.0,13.0,0.0
4457,59.0,0.0,90.0,13.0,0.0
4458,71.0,0.0,90.0,6.0,0.0
4459,71.0,0.0,90.0,7.0,0.0
4460,49.0,42.0,30.0,0.0,0.0
4461,68.0,0.0,90.0,8.0,0.0
4462,71.0,0.0,90.0,2.0,0.0
4463,68.0,0.0,90.0,3.0,0.0
4464,49.0,48.0,30.0,0.0,0.0
4465,70.0,0.0,90.0,13.0,0.0
4466,42.0,0.0,90.0,12.0,0.0
4467,54.0,0.0,90.0,13.0,0.0
4468,70.0,0.0,90.0,2.0,0.0
4469,61.0,0.0,90.0,13.0,0.0
4470,49.0,42.0,30.0,0.0,0.0
4471,61.0,0.0,90.0,4.0,0.0
4472,61.0,6.0,90.0,10.0,0.0
4473,54.0,0.0,90.0,11.0,0.0
4474,54.0,0.0,90.0,5.0,0.0
4475,66.0,0.0,90.0,3.0,0.0
4476,66.0,0.0,90.0,8.0,0.0
4477,70.0,0.0,90.0,6.0,0.0
4478,70.0,0.0,90.0,7.0,0.0
4479,49.0,16.0,30.0,0.0,0.0
4480,71.0,0.0,90.0,13.0,0.0
4481,68.0,0.0,90.0,7.0,0.0
4482,49.0,0.0,90.0,0.0,0.0
4483,65.0,0.0,90.0,8.0,0.0
4484,49.0,0.0,90.0,1.0,0.0
4485,56.0,0.0,90.0,5.0,0.0
4486,59.0,0.0,90.0,4.0,0.0
4487,65.0,0.0,90.0,3.0,0.0
4488,61.0,12.0,15.0,10.0,0.0
4489,68.0,0.0,90.0,6.0,0.0
4490,68.0,0.0,90.0,2.0,0.0
4491,44.0,0.0,90.0,12.0,0.0
4492,56.0,0.0,90.0,11.0,0.0
4493,56.0,10.0,90.0,13.0,0.0
4494,65.0,0.0,90.0,13.0,0.0
4495,59.0,12.0,15.0,10.0,0.0
4496,61.0,12.0,15.0,10.0,0.0
4497,59.0,12.0,15.0,10.0,0.0
4498,61.0,12.0,15.0,10.0,0.0
4499,59.0,12.0,15.0,10.0,0.0
4500,61.0,2.0,15.0,10.0,0.0
4501,59.0,44.0,15.0,10.0,0.0
4502,58.0,0.0,30.0,10.0,0.0
4503,66.0,0.0,30.0,2.0,0.0
4504,49.0,42.0,30.0,1.0,0.0
4505,66.0,0.0,30.0,7.0,0.0
4506,61.0,0.0,90.0,3.0,0.0
4507,58.0,0.0,30.0,4.0,0.0
4508,59.0,0.0,90.0,13.0,0.0
4509,47.0,6.0,90.0,12.0,0.0
4510,66.0,0.0,90.0,13.0,0.0
4511,61.0,0.0,90.0,8.0,0.0
4512,71.0,0.0,90.0,13.0,0.0
4513,66.0,0.0,30.0,6.0,0.0
4514,59.0,0.0,90.0,11.0,0.0
4515,59.0,0.0,90.0,5.0,0.0
4516,65.0,48.0,30.0,6.0,0.0
4517,56.0,0.0,30.0,10.0,0.0
4518,65.0,0.0,30.0,7.0,0.0
4519,65.0,0.0,30.0,2.0,0.0
4520,49.0,0.0,30.0,1.0,0.0
4521,56.0,0.0,30.0,4.0,0.0
4522,61.0,0.0,90.0,3.0,0.0
4523,66.0,0.0,90.0,7.0,0.0
4524,61.0,0.0,90.0,8.0,0.0
4525,46.0,0.0,90.0,12.0,0.0
4526,49.0,42.0,30.0,1.0,0.0
4527,66.0,0.0,90.0,6.0,0.0
4528,58.0,0.0,90.0,11.0,0.0
4529,66.0,0.0,90.0,2.0,0.0
4530,58.0,0.0,90.0,4.0,0.0
4531,66.0,6.0,90.0,13.0,0.0
4532,58.0,0.0,90.0,13.0,0.0
4533,58.0,0.0,90.0,5.0,0.0
4534,58.0,0.0,90.0,10.0,0.0
4535,49.0,90.0,30.0,1.0,0.0
4536,56.0,0.0,90.0,13.0,0.0
4537,65.0,0.0,90.0,13.0,0.0
4538,56.0,0.0,90.0,11.0,0.0
4539,59.0,0.0,90.0,4.0,0.0
4540,56.0,0.0,90.0,5.0,0.0
4541,44.0,0.0,90.0,12.0,0.0
4542,65.0,0.0,90.0,8.0,0.0
4543,71.0,54.0,90.0,13.0,0.0
4544,68.0,0.0,90.0,2.0,0.0
4545,68.0,0.0,90.0,7.0,0.0
4546,49.0,0.0,90.0,1.0,0.0
4547,49.0,0.0,90.0,0.0,0.0
4548,59.0,0.0,90.0,10.0,0.0
4549,68.0,0.0,90.0,6.0,0.0
4550,65.0,0.0,90.0,3.0,0.0
4551,54.0,0.0,30.0,11.0,0.0
4552,59.0,0.0,90.0,13.0,0.0
4553,54.0,0.0,30.0,13.0,0.0
4554,56.0,0.0,90.0,10.0,0.0
4555,56.0,0.0,90.0,4.0,0.0
4556,54.0,0.0,30.0,5.0,0.0
4557,68.0,0.0,90.0,13.0,0.0
4558,68.0,6.0,90.0,8.0,0.0
4559,42.0,42.0,30.0,12.0,0.0
4560,71.0,0.0,90.0,2.0,0.0
4561,71.0,0.0,90.0,6.0,0.0
4562,71.0,0.0,90.0,7.0,0.0
4563,68.0,0.0,90.0,3.0,0.0
4564,49.0,0.0,30.0,0.0,0.0
4565,53.0,0.0,30.0,13.0,0.0
4566,41.0,0.0,30.0,12.0,0.0
4567,53.0,0.0,30.0,5.0,0.0
4568,49.0,0.0,30.0,0.0,0.0
4569,53.0,48.0,30.0,11.0,0.0
4570,70.0,0.0,90.0,6.0,0.0
4571,54.0,0.0,90.0,5.0,0.0
4572,66.0,0.0,90.0,3.0,0.0
4573,61.0,0.0,90.0,4.0,0.0
4574,66.0,0.0,90.0,8.0,0.0
4575,61.0,0.0,90.0,10.0,0.0
4576,49.0,42.0,30.0,0.0,0.0
4577,70.0,0.0,90.0,2.0,0.0
4578,54.0,0.0,90.0,13.0,0.0
4579,42.0,6.0,90.0,12.0,0.0
4580,70.0,0.0,90.0,13.0,0.0
4581,70.0,0.0,90.0,7.0,0.0
4582,61.0,0.0,90.0,13.0,0.0
4583,54.0,0.0,90.0,11.0,0.0
4584,49.0,16.0,30.0,0.0,0.0
4585,53.0,0.0,90.0,5.0,0.0
4586,53.0,0.0,90.0,13.0,0.0
4587,68.0,0.0,90.0,13.0,0.0
4588,61.0,0.0,90.0,13.0,0.0
4589,70.0,0.0,15.0,7.0,0.0
4590,70.0,0.0,15.0,2.0,0.0
4591,68.0,0.0,90.0,8.0,0.0
4592,61.0,0.0,180.0,4.0,0.0
4593,70.0,12.0,15.0,6.0,0.0
4594,68.0,0.0,90.0,3.0,0.0
4595,61.0,0.0,180.0,10.0,0.0
4596,49.0,10.0,90.0,1.0,0.0
4597,41.0,0.0,90.0,12.0,0.0
4598,49.0,0.0,90.0,0.0,0.0
4599,53.0,0.0,90.0,11.0,0.0
4600,68.0,0.0,15.0,2.0,0.0
4601,68.0,12.0,15.0,6.0,0.0
4602,68.0,0.0,15.0,7.0,0.0
4603,70.0,0.0,15.0,6.0,0.0
4604,70.0,0.0,15.0,2.0,0.0
4605,70.0,12.0,15.0,7.0,0.0
4606,68.0,0.0,15.0,6.0,0.0
4607,68.0,12.0,15.0,7.0,0.0
4608,68.0,0.0,15.0,2.0,0.0
4609,70.0,0.0,15.0,7.0,0.0
4610,70.0,0.0,15.0,6.0,0.0
4611,70.0,12.0,15.0,2.0,0.0
4612,68.0,0.0,15.0,7.0,0.0
4613,68.0,0.0,15.0,2.0,0.0
4614,68.0,12.0,15.0,6.0,0.0
4615,70.0,0.0,15.0,6.0,0.0
4616,70.0,0.0,15.0,7.0,0.0
4617,70.0,2.0,15.0,2.0,0.0
4618,68.0,0.0,15.0,6.0,0.0
4619,68.0,12.0,15.0,2.0,0.0
4620,68.0,0.0,15.0,7.0,0.0
4621,70.0,12.0,15.0,7.0,0.0
4622,66.0,0.0,90.0,3.0,0.0
4623,42.0,4.0,30.0,12.0,0.0
4624,70.0,0.0,15.0,6.0,0.0
4625,49.0,0.0,30.0,1.0,0.0
4626,66.0,0.0,90.0,8.0,0.0
4627,66.0,0.0,90.0,13.0,0.0
4628,54.0,0.0,30.0,11.0,0.0
4629,70.0,0.0,15.0,2.0,0.0
4630,61.0,6.0,90.0,13.0,0.0
4631,54.0,0.0,30.0,5.0,0.0
4632,54.0,0.0,30.0,13.0,0.0
4633,68.0,0.0,15.0,2.0,0.0
4634,68.0,0.0,15.0,6.0,0.0
4635,68.0,12.0,15.0,7.0,0.0
4636,70.0,8.0,15.0,7.0,0.0
4637,70.0,0.0,15.0,2.0,0.0
4638,70.0,0.0,15.0,6.0,0.0
4639,68.0,12.0,15.0,7.0,0.0
4640,68.0,0.0,15.0,2.0,0.0
4641,68.0,0.0,15.0,6.0,0.0
4642,53.0,0.0,30.0,5.0,0.0
4643,49.0,0.0,30.0,1.0,0.0
4644,53.0,4.0,30.0,11.0,0.0
4645,70.0,12.0,15.0,6.0,0.0
4646,70.0,0.0,15.0,2.0,0.0
4647,41.0,0.0,30.0,12.0,0.0
4648,70.0,0.0,15.0,7.0,0.0
4649,53.0,0.0,30.0,13.0,0.0
4650,68.0,12.0,15.0,2.0,0.0
4651,68.0,0.0,15.0,6.0,0.0
4652,68.0,0.0,15.0,7.0,0.0
4653,70.0,0.0,15.0,7.0,0.0
4654,70.0,0.0,15.0,2.0,0.0
4655,70.0,2.0,15.0,6.0,0.0
4656,68.0,0.0,15.0,2.0,0.0
4657,68.0,0.0,15.0,7.0,0.0
4658,68.0,44.0,15.0,6.0,0.0
4659,51.0,42.0,30.0,13.0,0.0
4660,65.0,0.0,90.0,13.0,0.0
4661,56.0,0.0,90.0,13.0,0.0
4662,65.0,0.0,90.0,8.0,0.0
4663,56.0,6.0,90.0,4.0,0.0
4664,51.0,0.0,30.0,5.0,0.0
4665,73.0,0.0,90.0,2.0,0.0
4666,51.0,0.0,30.0,11.0,0.0
4667,73.0,0.0,90.0,6.0,0.0
4668,49.0,0.0,30.0,1.0,0.0
4669,73.0,0.0,90.0,7.0,0.0
4670,39.0,0.0,30.0,12.0,0.0
4671,56.0,0.0,90.0,10.0,0.0
4672,65.0,0.0,90.0,3.0,0.0
4673,49.0,0.0,30.0,13.0,0.0
4674,49.0,0.0,30.0,5.0,0.0
4675,49.0,0.0,30.0,1.0,0.0
4676,37.0,16.0,30.0,12.0,0.0
4677,49.0,0.0,30.0,11.0,0.0
4678,48.0,0.0,180.0,5.0,0.0
4679,37.0,12.0,15.0,12.0,0.0
4680,66.0,0.0,90.0,7.0,0.0
4681,56.0,0.0,90.0,0.0,0.0
4682,63.0,0.0,90.0,13.0,0.0
4683,68.0,10.0,90.0,13.0,0.0
4684,49.0,0.0,15.0,13.0,0.0
4685,63.0,0.0,180.0,8.0,0.0
4686,56.0,0.0,180.0,4.0,0.0
4687,63.0,0.0,180.0,3.0,0.0
4688,66.0,0.0,90.0,2.0,0.0
4689,56.0,0.0,90.0,1.0,0.0
4690,66.0,0.0,90.0,6.0,0.0
4691,49.0,0.0,15.0,11.0,0.0
4692,56.0,0.0,180.0,10.0,0.0
4693,48.0,0.0,15.0,11.0,0.0
4694,36.0,0.0,15.0,12.0,0.0
4695,48.0,12.0,15.0,13.0,0.0
4696,49.0,0.0,15.0,13.0,0.0
4697,49.0,0.0,15.0,11.0,0.0
4698,37.0,12.0,15.0,12.0,0.0
4699,36.0,0.0,15.0,12.0,0.0
4700,48.0,12.0,15.0,11.0,0.0
4701,48.0,0.0,15.0,13.0,0.0
4702,37.0,0.0,15.0,12.0,0.0
4703,49.0,12.0,15.0,11.0,0.0
4704,49.0,0.0,15.0,13.0,0.0
4705,36.0,12.0,15.0,12.0,0.0
4706,48.0,0.0,15.0,13.0,0.0
4707,48.0,0.0,15.0,11.0,0.0
4708,49.0,0.0,15.0,13.0,0.0
4709,49.0,0.0,15.0,11.0,0.0
4710,37.0,2.0,15.0,12.0,0.0
4711,48.0,0.0,15.0,11.0,0.0
4712,36.0,12.0,15.0,12.0,0.0
4713,48.0,0.0,15.0,13.0,0.0
4714,56.0,4.0,30.0,0.0,0.0
4715,63.0,0.0,90.0,6.0,0.0
4716,37.0,0.0,15.0,12.0,0.0
4717,49.0,12.0,15.0,11.0,0.0
4718,56.0,0.0,90.0,13.0,0.0
4719,63.0,0.0,90.0,13.0,0.0
4720,63.0,6.0,90.0,7.0,0.0
4721,49.0,0.0,15.0,13.0,0.0
4722,63.0,0.0,90.0,2.0,0.0
4723,48.0,0.0,15.0,11.0,0.0
4724,36.0,12.0,15.0,12.0,0.0
4725,48.0,0.0,15.0,13.0,0.0
4726,49.0,0.0,15.0,11.0,0.0
4727,49.0,8.0,15.0,13.0,0.0
4728,37.0,0.0,15.0,12.0,0.0
4729,48.0,12.0,15.0,11.0,0.0
4730,36.0,0.0,15.0,12.0,0.0
4731,48.0,0.0,15.0,13.0,0.0
4732,49.0,0.0,15.0,13.0,0.0
4733,56.0,4.0,30.0,0.0,0.0
4734,37.0,0.0,15.0,12.0,0.0
4735,49.0,12.0,15.0,11.0,0.0
4736,48.0,0.0,15.0,11.0,0.0
4737,36.0,12.0,15.0,12.0,0.0
4738,48.0,0.0,15.0,13.0,0.0
4739,49.0,0.0,15.0,13.0,0.0
4740,37.0,2.0,15.0,12.0,0.0
4741,49.0,0.0,15.0,11.0,0.0
4742,48.0,44.0,15.0,13.0,0.0
4743,36.0,0.0,15.0,12.0,0.0
4744,48.0,0.0,15.0,11.0,0.0
4745,65.0,0.0,90.0,7.0,0.0
4746,61.0,0.0,90.0,3.0,0.0
4747,56.0,0.0,90.0,10.0,0.0
4748,49.0,0.0,90.0,13.0,0.0
4749,37.0,0.0,90.0,12.0,0.0
4750,65.0,0.0,90.0,13.0,0.0
4751,56.0,0.0,90.0,4.0,0.0
4752,65.0,0.0,90.0,2.0,0.0
4753,61.0,6.0,90.0,8.0,0.0
4754,65.0,0.0,90.0,6.0,0.0
4755,49.0,0.0,90.0,5.0,0.0
4756,49.0,0.0,90.0,11.0,0.0
4757,56.0,42.0,30.0,0.0,0.0
4758,56.0,0.0,90.0,13.0,0.0
4759,56.0,48.0,30.0,0.0,0.0
4760,51.0,6.0,90.0,5.0,0.0
4761,60.0,0.0,90.0,13.0,0.0
4762,39.0,0.0,90.0,12.0,0.0
4763,56.0,0.0,90.0,0.0,0.0
4764,51.0,0.0,90.0,10.0,0.0
4765,66.0,0.0,90.0,7.0,0.0
4766,51.0,0.0,90.0,11.0,0.0
4767,51.0,0.0,90.0,13.0,0.0
4768,66.0,0.0,90.0,13.0,0.0
4769,60.0,42.0,30.0,8.0,0.0
4770,60.0,0.0,30.0,3.0,0.0
4771,66.0,0.0,90.0,2.0,0.0
4772,66.0,0.0,90.0,6.0,0.0
4773,56.0,0.0,90.0,1.0,0.0
4774,60.0,0.0,90.0,4.0,0.0
4775,61.0,16.0,30.0,8.0,0.0
4776,61.0,0.0,30.0,3.0,0.0
4777,70.0,0.0,180.0,6.0,0.0
4778,49.0,0.0,30.0,13.0,0.0
4779,63.0,12.0,15.0,8.0,0.0
4780,49.0,0.0,30.0,11.0,0.0
4781,63.0,0.0,15.0,3.0,0.0
4782,56.0,0.0,30.0,1.0,0.0
4783,49.0,4.0,30.0,5.0,0.0
4784,70.0,0.0,180.0,2.0,0.0
4785,70.0,0.0,180.0,7.0,0.0
4786,65.0,0.0,90.0,13.0,0.0
4787,58.0,6.0,90.0,13.0,0.0
4788,53.0,0.0,90.0,10.0,0.0
4789,65.0,0.0,30.0,4.0,0.0
4790,37.0,0.0,30.0,12.0,0.0
4791,61.0,0.0,15.0,3.0,0.0
4792,61.0,12.0,15.0,8.0,0.0
4793,63.0,8.0,15.0,8.0,0.0
4794,63.0,0.0,15.0,3.0,0.0
4795,61.0,12.0,15.0,3.0,0.0
4796,61.0,0.0,15.0,8.0,0.0
4797,56.0,0.0,30.0,1.0,0.0
4798,48.0,0.0,30.0,5.0,0.0
4799,48.0,0.0,30.0,11.0,0.0
4800,63.0,0.0,15.0,3.0,0.0
4801,48.0,0.0,30.0,13.0,0.0
4802,63.0,12.0,15.0,8.0,0.0
4803,63.0,0.0,30.0,4.0,0.0
4804,36.0,4.0,30.0,12.0,0.0
4805,61.0,0.0,15.0,8.0,0.0
4806,61.0,12.0,15.0,3.0,0.0
4807,63.0,2.0,15.0,3.0,0.0
4808,63.0,0.0,15.0,8.0,0.0
4809,61.0,0.0,15.0,3.0,0.0
4810,61.0,12.0,15.0,8.0,0.0
4811,63.0,0.0,15.0,3.0,0.0
4812,56.0,4.0,30.0,1.0,0.0
4813,49.0,0.0,90.0,11.0,0.0
4814,65.0,0.0,90.0,4.0,0.0
4815,49.0,0.0,90.0,10.0,0.0
4816,49.0,6.0,90.0,5.0,0.0
4817,49.0,0.0,90.0,13.0,0.0
4818,70.0,0.0,90.0,13.0,0.0
4819,65.0,0.0,90.0,13.0,0.0
4820,37.0,0.0,90.0,12.0,0.0
4821,63.0,12.0,15.0,8.0,0.0
4822,61.0,0.0,15.0,8.0,0.0
4823,61.0,12.0,15.0,3.0,0.0
4824,63.0,8.0,15.0,8.0,0.0
4825,63.0,0.0,15.0,3.0,0.0
4826,61.0,0.0,15.0,3.0,0.0
4827,61.0,23.0,15.0,8.0,0.0
4828,60.0,15.0,20.0,3.0,0.0
4829,60.0,0.0,20.0,8.0,0.0
4830,56.0,3.0,30.0,1.0,0.0
4831,61.0,13.0,20.0,8.0,0.0
4832,61.0,0.0,20.0,3.0,0.0
4833,63.0,0.0,90.0,13.0,0.0
4834,68.0,0.0,15.0,6.0,0.0
4835,56.0,0.0,90.0,0.0,0.0
4836,56.0,0.0,180.0,10.0,0.0
4837,56.0,0.0,90.0,1.0,0.0
4838,48.0,0.0,90.0,13.0,0.0
4839,68.0,12.0,15.0,7.0,0.0
4840,63.0,0.0,90.0,3.0,0.0
4841,68.0,0.0,90.0,13.0,0.0
4842,48.0,0.0,90.0,11.0,0.0
4843,66.0,0.0,90.0,2.0,0.0
4844,48.0,10.0,90.0,5.0,0.0
4845,63.0,0.0,90.0,8.0,0.0
4846,63.0,0.0,90.0,4.0,0.0
4847,36.0,0.0,90.0,12.0,0.0
4848,66.0,0.0,15.0,7.0,0.0
4849,66.0,12.0,15.0,6.0,0.0
4850,68.0,0.0,15.0,7.0,0.0
4851,68.0,12.0,15.0,6.0,0.0
4852,66.0,0.0,15.0,7.0,0.0
4853,66.0,12.0,15.0,6.0,0.0
4854,68.0,0.0,15.0,6.0,0.0
4855,68.0,12.0,15.0,7.0,0.0
4856,66.0,0.0,15.0,7.0,0.0
4857,66.0,12.0,15.0,6.0,0.0
4858,68.0,2.0,15.0,7.0,0.0
4859,68.0,0.0,15.0,6.0,0.0
4860,66.0,44.0,15.0,6.0,0.0
4861,66.0,0.0,15.0,7.0,0.0
4862,56.0,0.0,30.0,0.0,0.0
4863,56.0,0.0,90.0,4.0,0.0
4864,49.0,0.0,30.0,11.0,0.0
4865,65.0,42.0,30.0,7.0,0.0
4866,49.0,0.0,30.0,13.0,0.0
4867,61.0,0.0,90.0,8.0,0.0
4868,65.0,0.0,30.0,2.0,0.0
4869,37.0,0.0,30.0,12.0,0.0
4870,61.0,6.0,90.0,3.0,0.0
4871,65.0,0.0,30.0,6.0,0.0
4872,49.0,0.0,30.0,5.0,0.0
4873,65.0,0.0,90.0,13.0,0.0
4874,56.0,0.0,90.0,13.0,0.0
4875,63.0,0.0,30.0,7.0,0.0
4876,48.0,0.0,30.0,5.0,0.0
4877,48.0,48.0,30.0,13.0,0.0
4878,48.0,0.0,30.0,11.0,0.0
4879,63.0,0.0,30.0,2.0,0.0
4880,63.0,0.0,30.0,6.0,0.0
4881,36.0,0.0,30.0,12.0,0.0
4882,56.0,0.0,30.0,0.0,0.0
4883,46.0,0.0,30.0,5.0,0.0
4884,34.0,0.0,30.0,12.0,0.0
4885,68.0,0.0,90.0,2.0,0.0
4886,60.0,0.0,90.0,8.0,0.0
4887,46.0,42.0,30.0,13.0,0.0
4888,68.0,6.0,90.0,13.0,0.0
4889,60.0,0.0,90.0,13.0,0.0
4890,68.0,0.0,90.0,7.0,0.0
4891,60.0,0.0,90.0,3.0,0.0
4892,56.0,0.0,90.0,4.0,0.0
4893,46.0,0.0,30.0,11.0,0.0
4894,56.0,0.0,90.0,10.0,0.0
4895,56.0,0.0,30.0,0.0,0.0
4896,68.0,0.0,90.0,6.0,0.0
4897,56.0,0.0,30.0,0.0,0.0
4898,44.0,0.0,30.0,13.0,0.0
4899,44.0,16.0,30.0,5.0,0.0
4900,44.0,0.0,30.0,11.0,0.0
4901,32.0,0.0,30.0,12.0,0.0
4902,66.0,12.0,15.0,7.0,0.0
4903,56.0,0.0,90.0,0.0,0.0
4904,56.0,0.0,180.0,4.0,0.0
4905,56.0,0.0,90.0,1.0,0.0
4906,66.0,0.0,15.0,6.0,0.0
4907,49.0,0.0,90.0,5.0,0.0
4908,61.0,0.0,180.0,8.0,0.0
4909,37.0,10.0,90.0,12.0,0.0
4910,56.0,0.0,90.0,13.0,0.0
4911,49.0,0.0,90.0,11.0,0.0
4912,65.0,0.0,180.0,2.0,0.0
4913,61.0,6.0,180.0,3.0,0.0
4914,56.0,0.0,180.0,10.0,0.0
4915,49.0,0.0,90.0,13.0,0.0
4916,65.0,0.0,90.0,13.0,0.0
4917,65.0,12.0,15.0,7.0,0.0
4918,65.0,0.0,15.0,6.0,0.0
4919,66.0,12.0,15.0,6.0,0.0
4920,66.0,0.0,15.0,7.0,0.0
4921,65.0,0.0,15.0,7.0,0.0
4922,65.0,12.0,15.0,6.0,0.0
4923,66.0,0.0,15.0,7.0,0.0
4924,66.0,12.0,15.0,6.0,0.0
4925,65.0,0.0,15.0,7.0,0.0
4926,65.0,12.0,15.0,6.0,0.0
4927,66.0,0.0,15.0,7.0,0.0
4928,66.0,2.0,15.0,6.0,0.0
4929,65.0,0.0,15.0,7.0,0.0
4930,65.0,12.0,15.0,6.0,0.0
4931,36.0,4.0,30.0,12.0,0.0
4932,48.0,0.0,30.0,11.0,0.0
4933,56.0,0.0,30.0,1.0,0.0
4934,48.0,0.0,30.0,13.0,0.0
4935,66.0,0.0,15.0,7.0,0.0
4936,68.0,0.0,90.0,13.0,0.0
4937,65.0,0.0,90.0,13.0,0.0
4938,48.0,0.0,30.0,5.0,0.0
4939,66.0,12.0,15.0,6.0,0.0
4940,65.0,0.0,15.0,7.0,0.0
4941,65.0,12.0,15.0,6.0,0.0
4942,66.0,8.0,15.0,6.0,0.0
4943,66.0,0.0,15.0,7.0,0.0
4944,65.0,12.0,15.0,6.0,0.0
4945,65.0,0.0,15.0,7.0,0.0
4946,56.0,4.0,30.0,1.0,0.0
4947,46.0,0.0,30.0,13.0,0.0
4948,46.0,0.0,30.0,11.0,0.0
4949,66.0,0.0,15.0,6.0,0.0
4950,46.0,0.0,30.0,5.0,0.0
4951,34.0,0.0,30.0,12.0,0.0
4952,66.0,12.0,15.0,7.0,0.0
4953,65.0,0.0,15.0,7.0,0.0
4954,65.0,12.0,15.0,6.0,0.0
4955,66.0,2.0,15.0,7.0,0.0
4956,66.0,0.0,15.0,6.0,0.0
4957,65.0,44.0,15.0,7.0,0.0
4958,65.0,0.0,15.0,6.0,0.0
4959,36.0,6.0,90.0,12.0,0.0
4960,56.0,0.0,90.0,4.0,0.0
4961,63.0,0.0,90.0,2.0,0.0
4962,63.0,0.0,90.0,3.0,0.0
4963,48.0,0.0,90.0,5.0,0.0
4964,63.0,0.0,90.0,7.0,0.0
4965,48.0,0.0,90.0,11.0,0.0
4966,63.0,0.0,90.0,8.0,0.0
4967,63.0,0.0,90.0,6.0,0.0
4968,63.0,0.0,90.0,13.0,0.0
4969,68.0,0.0,90.0,13.0,0.0
4970,48.0,0.0,90.0,13.0,0.0
4971,56.0,42.0,30.0,1.0,0.0
4972,56.0,0.0,90.0,10.0,0.0
4973,56.0,16.0,30.0,1.0,0.0
4974,67.0,4.0,30.0,2.0,0.0
4975,61.0,0.0,90.0,13.0,0.0
4976,67.0,0.0,90.0,13.0,0.0
4977,46.0,0.0,90.0,13.0,0.0
4978,67.0,0.0,30.0,6.0,0.0
4979,34.0,0.0,90.0,12.0,0.0
4980,60.0,12.0,15.0,10.0,0.0
4981,61.0,0.0,90.0,8.0,0.0
4982,67.0,0.0,30.0,7.0,0.0
4983,46.0,0.0,90.0,5.0,0.0
4984,61.0,0.0,90.0,3.0,0.0
4985,63.0,0.0,90.0,0.0,0.0
4986,46.0,0.0,90.0,11.0,0.0
4987,58.0,0.0,90.0,4.0,0.0
4988,63.0,6.0,90.0,1.0,0.0
4989,58.0,12.0,15.0,10.0,0.0
4990,60.0,8.0,15.0,10.0,0.0
4991,58.0,12.0,15.0,10.0,0.0
4992,68.0,0.0,30.0,7.0,0.0
4993,60.0,12.0,15.0,10.0,0.0
4994,68.0,4.0,30.0,2.0,0.0
4995,68.0,0.0,30.0,6.0,0.0
4996,58.0,12.0,15.0,10.0,0.0
4997,60.0,2.0,15.0,10.0,0.0
4998,58.0,12.0,15.0,10.0,0.0
4999,63.0,0.0,180.0,8.0,0.0
5000,63.0,0.0,180.0,3.0,0.0
5001,70.0,0.0,15.0,7.0,0.0
5002,70.0,12.0,15.0,2.0,0.0
5003,70.0,0.0,15.0,6.0,0.0
5004,63.0,4.0,30.0,0.0,0.0
5005,56.0,0.0,30.0,4.0,0.0
5006,36.0,0.0,90.0,12.0,0.0
5007,48.0,0.0,90.0,11.0,0.0
5008,48.0,6.0,90.0,13.0,0.0
5009,68.0,0.0,90.0,13.0,0.0
5010,63.0,0.0,90.0,13.0,0.0
5011,48.0,0.0,90.0,5.0,0.0
5012,56.0,0.0,30.0,10.0,0.0
5013,68.0,0.0,15.0,7.0,0.0
5014,68.0,12.0,15.0,2.0,0.0
5015,68.0,0.0,15.0,6.0,0.0
5016,70.0,0.0,15.0,2.0,0.0
5017,70.0,0.0,15.0,7.0,0.0
5018,70.0,8.0,15.0,6.0,0.0
5019,68.0,12.0,15.0,6.0,0.0
5020,68.0,0.0,15.0,7.0,0.0
5021,68.0,0.0,15.0,2.0,0.0
5022,63.0,4.0,30.0,0.0,0.0
5023,58.0,0.0,30.0,4.0,0.0
5024,70.0,0.0,15.0,6.0,0.0
5025,70.0,0.0,15.0,7.0,0.0
5026,58.0,0.0,30.0,10.0,0.0
5027,70.0,12.0,15.0,2.0,0.0
5028,68.0,0.0,15.0,7.0,0.0
5029,68.0,0.0,15.0,6.0,0.0
5030,68.0,12.0,15.0,2.0,0.0
5031,70.0,0.0,15.0,6.0,0.0
5032,70.0,2.0,15.0,2.0,0.0
5033,70.0,0.0,15.0,7.0,0.0
5034,68.0,0.0,15.0,2.0,0.0
5035,68.0,12.0,15.0,7.0,0.0
5036,68.0,0.0,15.0,6.0,0.0
5037,60.0,0.0,90.0,4.0,0.0
5038,70.0,12.0,15.0,7.0,0.0
5039,70.0,0.0,15.0,6.0,0.0
5040,44.0,0.0,90.0,5.0,0.0
5041,44.0,0.0,90.0,13.0,0.0
5042,32.0,0.0,90.0,12.0,0.0
5043,72.0,6.0,90.0,13.0,0.0
5044,63.0,0.0,90.0,13.0,0.0
5045,60.0,0.0,90.0,10.0,0.0
5046,70.0,0.0,15.0,2.0,0.0
5047,44.0,0.0,90.0,11.0,0.0
5048,63.0,4.0,30.0,0.0,0.0
5049,68.0,0.0,15.0,2.0,0.0
5050,68.0,0.0,15.0,6.0,0.0
5051,68.0,12.0,15.0,7.0,0.0
5052,70.0,0.0,15.0,6.0,0.0
5053,70.0,0.0,15.0,7.0,0.0
5054,70.0,8.0,15.0,2.0,0.0
5055,68.0,0.0,15.0,6.0,0.0
5056,68.0,0.0,15.0,2.0,0.0
5057,68.0,23.0,15.0,7.0,0.0
5058,63.0,3.0,30.0,0.0,0.0
5059,67.0,0.0,20.0,6.0,0.0
5060,67.0,0.0,20.0,2.0,0.0
5061,67.0,15.0,20.0,7.0,0.0
5062,68.0,87.0,20.0,7.0,0.0
5063,68.0,0.0,20.0,2.0,0.0
5064,68.0,0.0,20.0,6.0,0.0
5065,70.0,0.0,90.0,13.0,0.0
5066,43.0,0.0,90.0,13.0,0.0
5067,63.0,0.0,180.0,8.0,0.0
5068,70.0,0.0,90.0,2.0,0.0
5069,43.0,0.0,90.0,11.0,0.0
5070,58.0,0.0,180.0,10.0,0.0
5071,70.0,0.0,90.0,6.0,0.0
5072,63.0,0.0,180.0,3.0,0.0
5073,63.0,54.0,90.0,1.0,0.0
5074,63.0,0.0,90.0,0.0,0.0
5075,43.0,0.0,90.0,5.0,0.0
5076,58.0,0.0,180.0,4.0,0.0
5077,70.0,0.0,90.0,7.0,0.0
5078,63.0,0.0,90.0,13.0,0.0
5079,31.0,0.0,90.0,12.0,0.0
5080,68.0,0.0,30.0,2.0,0.0
5081,68.0,0.0,30.0,6.0,0.0
5082,63.0,0.0,30.0,1.0,0.0
5083,41.0,0.0,30.0,11.0,0.0
5084,29.0,0.0,30.0,12.0,0.0
5085,41.0,0.0,30.0,13.0,0.0
5086,68.0,6.0,90.0,13.0,0.0
5087,63.0,0.0,90.0,13.0,0.0
5088,41.0,0.0,30.0,5.0,0.0
5089,68.0,42.0,30.0,7.0,0.0
5090,39.0,0.0,30.0,11.0,0.0
5091,67.0,0.0,30.0,7.0,0.0
5092,39.0,0.0,30.0,5.0,0.0
5093,39.0,0.0,30.0,13.0,0.0
5094,27.0,0.0,30.0,12.0,0.0
5095,67.0,0.0,30.0,6.0,0.0
5096,63.0,48.0,30.0,1.0,0.0
5097,67.0,0.0,30.0,2.0,0.0
5098,68.0,0.0,90.0,7.0,0.0
5099,68.0,0.0,90.0,6.0,0.0
5100,37.0,0.0,30.0,5.0,0.0
5101,63.0,0.0,90.0,3.0,0.0
5102,63.0,0.0,30.0,1.0,0.0
5103,63.0,0.0,90.0,8.0,0.0
5104,37.0,0.0,30.0,11.0,0.0
5105,37.0,0.0,30.0,13.0,0.0
5106,68.0,0.0,90.0,2.0,0.0
5107,60.0,6.0,90.0,4.0,0.0
5108,63.0,0.0,90.0,13.0,0.0
5109,60.0,0.0,90.0,10.0,0.0
5110,25.0,42.0,30.0,12.0,0.0
5111,68.0,0.0,90.0,13.0,0.0
5112,36.0,0.0,30.0,11.0,0.0
5113,36.0,0.0,30.0,5.0,0.0
5114,36.0,0.0,30.0,13.0,0.0
5115,63.0,48.0,30.0,1.0,0.0
5116,24.0,0.0,30.0,12.0,0.0
5117,68.0,0.0,90.0,13.0,0.0
5118,65.0,0.0,30.0,3.0,0.0
5119,61.0,0.0,90.0,13.0,0.0
5120,73.0,0.0,30.0,2.0,0.0
5121,41.0,0.0,30.0,13.0,0.0
5122,41.0,0.0,30.0,5.0,0.0
5123,56.0,0.0,90.0,10.0,0.0
5124,65.0,6.0,90.0,1.0,0.0
5125,73.0,0.0,30.0,6.0,0.0
5126,29.0,0.0,30.0,12.0,0.0
5127,65.0,0.0,30.0,8.0,0.0
5128,68.0,42.0,30.0,0.0,0.0
5129,56.0,0.0,90.0,4.0,0.0
5130,41.0,0.0,30.0,11.0,0.0
5131,73.0,0.0,30.0,7.0,0.0
5132,37.0,0.0,30.0,11.0,0.0
5133,37.0,0.0,30.0,5.0,0.0
5134,75.0,0.0,30.0,2.0,0.0
5135,67.0,16.0,30.0,3.0,0.0
5136,75.0,0.0,30.0,7.0,0.0
5137,67.0,0.0,30.0,8.0,0.0
5138,37.0,0.0,30.0,13.0,0.0
5139,25.0,0.0,30.0,12.0,0.0
5140,75.0,0.0,30.0,6.0,0.0
5141,67.0,0.0,30.0,0.0,0.0
5142,70.0,6.0,120.0,6.0,0.0
5143,63.0,4.0,30.0,1.0,0.0
5144,39.0,0.0,90.0,5.0,0.0
5145,58.0,0.0,90.0,13.0,0.0
5146,27.0,6.0,90.0,12.0,0.0
5147,66.0,0.0,90.0,13.0,0.0
5148,39.0,0.0,90.0,13.0,0.0
5149,67.0,0.0,120.0,0.0,0.0
5150,39.0,0.0,90.0,11.0,0.0
5151,70.0,0.0,120.0,7.0,0.0
5152,68.0,12.0,15.0,3.0,0.0
5153,63.0,0.0,90.0,10.0,0.0
5154,63.0,0.0,90.0,4.0,0.0
5155,70.0,0.0,120.0,2.0,0.0
5156,67.0,0.0,120.0,8.0,0.0
5157,67.0,12.0,15.0,3.0,0.0
5158,68.0,8.0,15.0,3.0,0.0
5159,67.0,12.0,15.0,3.0,0.0
5160,68.0,12.0,15.0,3.0,0.0
5161,63.0,4.0,30.0,1.0,0.0
5162,67.0,12.0,15.0,3.0,0.0
5163,68.0,2.0,15.0,3.0,0.0
5164,67.0,12.0,15.0,3.0,0.0
5165,61.0,6.0,90.0,4.0,0.0
5166,63.0,4.0,30.0,1.0,0.0
5167,61.0,0.0,90.0,13.0,0.0
5168,61.0,0.0,90.0,10.0,0.0
5169,39.0,0.0,90.0,13.0,0.0
5170,66.0,0.0,90.0,13.0,0.0
5171,68.0,12.0,15.0,3.0,0.0
5172,27.0,0.0,90.0,12.0,0.0
5173,39.0,0.0,90.0,11.0,0.0
5174,39.0,0.0,90.0,5.0,0.0
5175,67.0,12.0,15.0,3.0,0.0
5176,68.0,2.0,15.0,3.0,0.0
5177,67.0,38.0,15.0,3.0,0.0
5178,63.0,0.0,30.0,1.0,0.0
5179,68.0,0.0,30.0,7.0,0.0
5180,63.0,0.0,30.0,8.0,0.0
5181,68.0,0.0,30.0,0.0,0.0
5182,63.0,0.0,30.0,3.0,0.0
5183,68.0,0.0,30.0,6.0,0.0
5184,68.0,90.0,30.0,2.0,0.0
5185,72.0,0.0,90.0,13.0,0.0
5186,60.0,0.0,270.0,10.0,0.0
5187,60.0,0.0,270.0,4.0,0.0
5188,63.0,0.0,90.0,13.0,0.0
5189,68.0,0.0,270.0,2.0,0.0
5190,20.0,0.0,90.0,12.0,0.0
5191,68.0,0.0,270.0,7.0,0.0
5192,63.0,0.0,270.0,3.0,0.0
5193,68.0,0.0,270.0,6.0,0.0
5194,32.0,0.0,90.0,11.0,0.0
5195,32.0,0.0,90.0,13.0,0.0
5196,63.0,0.0,270.0,8.0,0.0
5197,63.0,6.0,270.0,1.0,0.0
5198,32.0,54.0,90.0,5.0,0.0
5199,68.0,0.0,270.0,0.0,0.0
5200,44.0,0.0,30.0,11.0,0.0
5201,32.0,0.0,30.0,12.0,0.0
5202,44.0,0.0,30.0,5.0,0.0
5203,56.0,0.0,30.0,13.0,0.0
5204,44.0,48.0,30.0,13.0,0.0
5205,42.0,0.0,30.0,13.0,0.0
5206,30.0,48.0,30.0,12.0,0.0
5207,42.0,0.0,30.0,11.0,0.0
5208,42.0,0.0,30.0,5.0,0.0
5209,54.0,0.0,30.0,13.0,0.0
5210,41.0,0.0,30.0,5.0,0.0
5211,53.0,0.0,30.0,13.0,0.0
5212,41.0,0.0,30.0,13.0,0.0
5213,41.0,0.0,30.0,11.0,0.0
5214,29.0,42.0,30.0,12.0,0.0
5215,27.0,0.0,30.0,12.0,0.0
5216,39.0,0.0,30.0,11.0,0.0
5217,51.0,0.0,30.0,13.0,0.0
5218,39.0,0.0,30.0,5.0,0.0
5219,39.0,90.0,30.0,13.0,0.0
5220,56.0,0.0,90.0,13.0,0.0
5221,61.0,0.0,180.0,4.0,0.0
5222,65.0,54.0,90.0,13.0,0.0
5223,61.0,0.0,180.0,10.0,0.0
5224,37.0,0.0,90.0,13.0,0.0
5225,65.0,0.0,90.0,8.0,0.0
5226,68.0,0.0,90.0,6.0,0.0
5227,37.0,0.0,90.0,11.0,0.0
5228,68.0,0.0,90.0,7.0,0.0
5229,25.0,0.0,90.0,12.0,0.0
5230,68.0,0.0,90.0,2.0,0.0
5231,37.0,0.0,90.0,5.0,0.0
5232,65.0,0.0,90.0,3.0,0.0
5233,49.0,0.0,90.0,0.0,0.0
5234,49.0,42.0,30.0,0.0,0.0
5235,53.0,0.0,90.0,11.0,0.0
5236,53.0,0.0,90.0,13.0,0.0
5237,68.0,0.0,90.0,13.0,0.0
5238,59.0,0.0,90.0,13.0,0.0
5239,71.0,0.0,90.0,6.0,0.0
5240,68.0,0.0,90.0,8.0,0.0
5241,53.0,0.0,90.0,5.0,0.0
5242,71.0,6.0,90.0,7.0,0.0
5243,71.0,0.0,90.0,2.0,0.0
5244,68.0,0.0,90.0,3.0,0.0
5245,41.0,0.0,90.0,12.0,0.0
5246,49.0,48.0,30.0,0.0,0.0
5247,54.0,0.0,90.0,11.0,0.0
5248,61.0,0.0,90.0,10.0,0.0
5249,70.0,0.0,90.0,6.0,0.0
5250,61.0,0.0,90.0,4.0,0.0
5251,42.0,0.0,90.0,12.0,0.0
5252,70.0,0.0,90.0,7.0,0.0
5253,66.0,0.0,90.0,8.0,0.0
5254,54.0,0.0,90.0,13.0,0.0
5255,70.0,0.0,90.0,13.0,0.0
5256,61.0,0.0,90.0,13.0,0.0
5257,49.0,42.0,30.0,0.0,0.0
5258,70.0,0.0,90.0,2.0,0.0
5259,54.0,6.0,90.0,5.0,0.0
5260,66.0,0.0,90.0,3.0,0.0
5261,49.0,16.0,30.0,0.0,0.0
5262,61.0,12.0,15.0,10.0,0.0
5263,56.0,10.0,90.0,11.0,0.0
5264,65.0,0.0,90.0,3.0,0.0
5265,49.0,0.0,90.0,0.0,0.0
5266,44.0,0.0,90.0,12.0,0.0
5267,65.0,0.0,90.0,13.0,0.0
5268,59.0,0.0,90.0,4.0,0.0
5269,49.0,0.0,90.0,1.0,0.0
5270,71.0,0.0,90.0,13.0,0.0
5271,65.0,0.0,90.0,8.0,0.0
5272,56.0,0.0,90.0,13.0,0.0
5273,56.0,0.0,90.0,5.0,0.0
5274,68.0,0.0,90.0,2.0,0.0
5275,68.0,0.0,90.0,6.0,0.0
5276,68.0,0.0,90.0,7.0,0.0
5277,59.0,12.0,15.0,10.0,0.0
5278,61.0,12.0,15.0,10.0,0.0
5279,59.0,12.0,15.0,10.0,0.0
5280,61.0,12.0,15.0,10.0,0.0
5281,59.0,12.0,15.0,10.0,0.0
5282,61.0,2.0,15.0,10.0,0.0
5283,59.0,44.0,15.0,10.0,0.0
5284,58.0,0.0,30.0,10.0,0.0
5285,66.0,0.0,90.0,13.0,0.0
5286,61.0,0.0,90.0,8.0,0.0
5287,49.0,0.0,30.0,1.0,0.0
5288,47.0,0.0,90.0,12.0,0.0
5289,58.0,42.0,30.0,4.0,0.0
5290,59.0,0.0,90.0,5.0,0.0
5291,59.0,0.0,90.0,11.0,0.0
5292,71.0,0.0,90.0,13.0,0.0
5293,66.0,0.0,30.0,6.0,0.0
5294,59.0,0.0,90.0,13.0,0.0
5295,66.0,0.0,30.0,7.0,0.0
5296,61.0,6.0,90.0,3.0,0.0
5297,66.0,0.0,30.0,2.0,0.0
5298,56.0,0.0,30.0,10.0,0.0
5299,65.0,48.0,30.0,2.0,0.0
5300,56.0,0.0,30.0,4.0,0.0
5301,65.0,0.0,30.0,6.0,0.0
5302,49.0,0.0,30.0,1.0,0.0
5303,65.0,0.0,30.0,7.0,0.0
5304,49.0,42.0,30.0,1.0,0.0
5305,61.0,0.0,90.0,3.0,0.0
5306,66.0,0.0,90.0,2.0,0.0
5307,66.0,0.0,90.0,7.0,0.0
5308,66.0,0.0,90.0,6.0,0.0
5309,58.0,0.0,90.0,5.0,0.0
5310,66.0,0.0,90.0,13.0,0.0
5311,46.0,6.0,90.0,12.0,0.0
5312,61.0,0.0,90.0,8.0,0.0
5313,58.0,0.0,90.0,4.0,0.0
5314,58.0,0.0,90.0,13.0,0.0
5315,58.0,0.0,90.0,11.0,0.0
5316,58.0,0.0,90.0,10.0,0.0
5317,49.0,90.0,30.0,1.0,0.0
5318,68.0,0.0,90.0,2.0,0.0
5319,65.0,0.0,90.0,8.0,0.0
5320,56.0,0.0,90.0,13.0,0.0
5321,68.0,0.0,90.0,6.0,0.0
5322,49.0,0.0,90.0,1.0,0.0
5323,71.0,0.0,90.0,13.0,0.0
5324,59.0,0.0,90.0,10.0,0.0
5325,68.0,0.0,90.0,7.0,0.0
5326,44.0,0.0,90.0,12.0,0.0
5327,56.0,0.0,90.0,5.0,0.0
5328,49.0,54.0,90.0,0.0,0.0
5329,56.0,0.0,90.0,11.0,0.0
5330,65.0,0.0,90.0,3.0,0.0
5331,65.0,0.0,90.0,13.0,0.0
5332,59.0,0.0,90.0,4.0,0.0
5333,59.0,0.0,90.0,13.0,0.0
5334,56.0,0.0,90.0,4.0,0.0
5335,68.0,0.0,90.0,13.0,0.0
5336,49.0,0.0,30.0,0.0,0.0
5337,54.0,42.0,30.0,11.0,0.0
5338,56.0,0.0,90.0,10.0,0.0
5339,71.0,0.0,90.0,2.0,0.0
5340,42.0,0.0,30.0,12.0,0.0
5341,71.0,0.0,90.0,7.0,0.0
5342,68.0,0.0,90.0,8.0,0.0
5343,54.0,0.0,30.0,13.0,0.0
5344,68.0,0.0,90.0,3.0,0.0
5345,54.0,0.0,30.0,5.0,0.0
5346,71.0,6.0,90.0,6.0,0.0
5347,53.0,0.0,30.0,5.0,0.0
5348,53.0,0.0,30.0,11.0,0.0
5349,41.0,48.0,30.0,12.0,0.0
5350,49.0,0.0,30.0,0.0,0.0
5351,53.0,0.0,30.0,13.0,0.0
5352,70.0,0.0,90.0,7.0,0.0
5353,42.0,0.0,90.0,12.0,0.0
5354,70.0,6.0,90.0,6.0,0.0
5355,61.0,0.0,90.0,4.0,0.0
5356,66.0,0.0,90.0,8.0,0.0
5357,54.0,0.0,90.0,5.0,0.0
5358,70.0,0.0,90.0,2.0,0.0
5359,61.0,0.0,90.0,13.0,0.0
5360,61.0,0.0,90.0,10.0,0.0
5361,54.0,0.0,90.0,11.0,0.0
5362,66.0,0.0,90.0,3.0,0.0
5363,49.0,42.0,30.0,0.0,0.0
5364,54.0,0.0,90.0,13.0,0.0
5365,70.0,0.0,90.0,13.0,0.0
5366,49.0,16.0,30.0,0.0,0.0
5367,70.0,0.0,15.0,7.0,0.0
5368,49.0,0.0,90.0,1.0,0.0
5369,68.0,0.0,90.0,3.0,0.0
5370,70.0,12.0,15.0,2.0,0.0
5371,61.0,0.0,180.0,4.0,0.0
5372,53.0,0.0,90.0,13.0,0.0
5373,68.0,0.0,90.0,13.0,0.0
5374,61.0,0.0,90.0,13.0,0.0
5375,53.0,0.0,90.0,11.0,0.0
5376,49.0,0.0,90.0,0.0,0.0
5377,61.0,0.0,180.0,10.0,0.0
5378,68.0,0.0,90.0,8.0,0.0
5379,70.0,0.0,15.0,6.0,0.0
5380,53.0,0.0,90.0,5.0,0.0
5381,41.0,10.0,90.0,12.0,0.0
5382,68.0,0.0,15.0,6.0,0.0
5383,68.0,12.0,15.0,7.0,0.0
5384,68.0,0.0,15.0,2.0,0.0
5385,70.0,0.0,15.0,7.0,0.0
5386,70.0,0.0,15.0,2.0,0.0
5387,70.0,12.0,15.0,6.0,0.0
5388,68.0,0.0,15.0,2.0,0.0
5389,68.0,0.0,15.0,7.0,0.0
5390,68.0,12.0,15.0,6.0,0.0
5391,70.0,0.0,15.0,2.0,0.0
5392,70.0,12.0,15.0,6.0,0.0
5393,70.0,0.0,15.0,7.0,0.0
5394,68.0,0.0,15.0,7.0,0.0
5395,68.0,0.0,15.0,2.0,0.0
5396,68.0,12.0,15.0,6.0,0.0
5397,70.0,0.0,15.0,2.0,0.0
5398,70.0,2.0,15.0,6.0,0.0
5399,70.0,0.0,15.0,7.0,0.0
5400,68.0,12.0,15.0,7.0,0.0
5401,68.0,0.0,15.0,2.0,0.0
5402,68.0,0.0,15.0,6.0,0.0
5403,54.0,0.0,30.0,13.0,0.0
5404,70.0,0.0,15.0,2.0,0.0
5405,70.0,0.0,15.0,7.0,0.0
5406,66.0,0.0,90.0,8.0,0.0
5407,66.0,0.0,90.0,3.0,0.0
5408,54.0,4.0,30.0,11.0,0.0
5409,54.0,0.0,30.0,5.0,0.0
5410,61.0,0.0,90.0,13.0,0.0
5411,49.0,0.0,30.0,1.0,0.0
5412,66.0,6.0,90.0,13.0,0.0
5413,70.0,12.0,15.0,6.0,0.0
5414,42.0,0.0,30.0,12.0,0.0
5415,68.0,0.0,15.0,2.0,0.0
5416,68.0,12.0,15.0,6.0,0.0
5417,68.0,0.0,15.0,7.0,0.0
5418,70.0,8.0,15.0,6.0,0.0
5419,70.0,0.0,15.0,7.0,0.0
5420,70.0,0.0,15.0,2.0,0.0
5421,68.0,0.0,15.0,7.0,0.0
5422,68.0,0.0,15.0,2.0,0.0
5423,68.0,12.0,15.0,6.0,0.0
5424,70.0,0.0,15.0,7.0,0.0
5425,53.0,0.0,30.0,5.0,0.0
5426,70.0,0.0,15.0,6.0,0.0
5427,53.0,0.0,30.0,11.0,0.0
5428,41.0,0.0,30.0,12.0,0.0
5429,49.0,4.0,30.0,1.0,0.0
5430,70.0,12.0,15.0,2.0,0.0
5431,53.0,0.0,30.0,13.0,0.0
5432,68.0,0.0,15.0,6.0,0.0
5433,68.0,12.0,15.0,2.0,0.0
5434,68.0,0.0,15.0,7.0,0.0
5435,70.0,0.0,15.0,7.0,0.0
5436,70.0,2.0,15.0,6.0,0.0
5437,70.0,0.0,15.0,2.0,0.0
5438,68.0,0.0,15.0,7.0,0.0
5439,68.0,44.0,15.0,2.0,0.0
5440,68.0,0.0,15.0,6.0,0.0
5441,56.0,0.0,90.0,4.0,0.0
5442,65.0,0.0,90.0,8.0,0.0
5443,65.0,0.0,90.0,13.0,0.0
5444,65.0,0.0,90.0,3.0,0.0
5445,51.0,0.0,30.0,13.0,0.0
5446,73.0,0.0,90.0,6.0,0.0
5447,51.0,42.0,30.0,11.0,0.0
5448,56.0,0.0,90.0,10.0,0.0
5449,56.0,6.0,90.0,13.0,0.0
5450,51.0,0.0,30.0,5.0,0.0
5451,39.0,0.0,30.0,12.0,0.0
5452,49.0,0.0,30.0,1.0,0.0
5453,73.0,0.0,90.0,2.0,0.0
5454,73.0,0.0,90.0,7.0,0.0
5455,49.0,0.0,30.0,11.0,0.0
5456,37.0,0.0,30.0,12.0,0.0
5457,49.0,0.0,30.0,1.0,0.0
5458,49.0,16.0,30.0,5.0,0.0
5459,49.0,0.0,30.0,13.0,0.0
5460,63.0,0.0,180.0,3.0,0.0
5461,63.0,0.0,90.0,13.0,0.0
5462,68.0,0.0,90.0,13.0,0.0
5463,56.0,0.0,90.0,0.0,0.0
5464,56.0,0.0,90.0,1.0,0.0
5465,49.0,0.0,15.0,11.0,0.0
5466,48.0,0.0,180.0,5.0,0.0
5467,56.0,0.0,180.0,10.0,0.0
5468,37.0,0.0,15.0,12.0,0.0
5469,66.0,0.0,90.0,2.0,0.0
5470,49.0,12.0,15.0,13.0,0.0
5471,56.0,0.0,180.0,4.0,0.0
5472,66.0,10.0,90.0,6.0,0.0
5473,66.0,0.0,90.0,7.0,0.0
5474,63.0,0.0,180.0,8.0,0.0
5475,48.0,0.0,15.0,13.0,0.0
5476,48.0,0.0,15.0,11.0,0.0
5477,36.0,12.0,15.0,12.0,0.0
5478,49.0,12.0,15.0,13.0,0.0
5479,37.0,0.0,15.0,12.0,0.0
5480,49.0,0.0,15.0,11.0,0.0
5481,36.0,0.0,15.0,12.0,0.0
5482,48.0,12.0,15.0,13.0,0.0
5483,48.0,0.0,15.0,11.0,0.0
5484,37.0,12.0,15.0,12.0,0.0
5485,49.0,0.0,15.0,11.0,0.0
5486,49.0,0.0,15.0,13.0,0.0
5487,36.0,0.0,15.0,12.0,0.0
5488,48.0,12.0,15.0,11.0,0.0
5489,48.0,0.0,15.0,13.0,0.0
5490,49.0,0.0,15.0,11.0,0.0
5491,49.0,2.0,15.0,13.0,0.0
5492,37.0,0.0,15.0,12.0,0.0
5493,36.0,0.0,15.0,12.0,0.0
5494,48.0,12.0,15.0,11.0,0.0
5495,48.0,0.0,15.0,13.0,0.0
5496,37.0,0.0,15.0,12.0,0.0
5497,56.0,4.0,30.0,0.0,0.0
5498,63.0,0.0,90.0,7.0,0.0
5499,63.0,0.0,90.0,13.0,0.0
5500,56.0,0.0,90.0,13.0,0.0
5501,49.0,0.0,15.0,13.0,0.0
5502,49.0,12.0,15.0,11.0,0.0
5503,63.0,0.0,90.0,2.0,0.0
5504,63.0,6.0,90.0,6.0,0.0
5505,36.0,12.0,15.0,12.0,0.0
5506,48.0,0.0,15.0,11.0,0.0
5507,48.0,0.0,15.0,13.0,0.0
5508,37.0,8.0,15.0,12.0,0.0
5509,49.0,0.0,15.0,11.0,0.0
5510,49.0,0.0,15.0,13.0,0.0
5511,48.0,12.0,15.0,11.0,0.0
5512,36.0,0.0,15.0,12.0,0.0
5513,48.0,0.0,15.0,13.0,0.0
5514,49.0,0.0,15.0,11.0,0.0
5515,37.0,0.0,15.0,12.0,0.0
5516,49.0,12.0,15.0,13.0,0.0
5517,56.0,4.0,30.0,0.0,0.0
5518,48.0,0.0,15.0,11.0,0.0
5519,36.0,0.0,15.0,12.0,0.0
5520,48.0,12.0,15.0,13.0,0.0
5521,49.0,0.0,15.0,13.0,0.0
5522,49.0,2.0,15.0,11.0,0.0
5523,37.0,0.0,15.0,12.0,0.0
5524,48.0,44.0,15.0,11.0,0.0
5525,36.0,0.0,15.0,12.0,0.0
5526,48.0,0.0,15.0,13.0,0.0
5527,37.0,6.0,90.0,12.0,0.0
5528,61.0,0.0,90.0,3.0,0.0
5529,49.0,0.0,90.0,5.0,0.0
5530,65.0,0.0,90.0,6.0,0.0
5531,56.0,0.0,90.0,10.0,0.0
5532,65.0,0.0,90.0,7.0,0.0
5533,56.0,42.0,30.0,0.0,0.0
5534,61.0,0.0,90.0,8.0,0.0
5535,49.0,0.0,90.0,11.0,0.0
5536,56.0,0.0,90.0,13.0,0.0
5537,65.0,0.0,90.0,2.0,0.0
5538,49.0,0.0,90.0,13.0,0.0
5539,65.0,0.0,90.0,13.0,0.0
5540,56.0,0.0,90.0,4.0,0.0
5541,56.0,48.0,30.0,0.0,0.0
5542,39.0,0.0,90.0,12.0,0.0
5543,56.0,0.0,90.0,1.0,0.0
5544,66.0,0.0,90.0,6.0,0.0
5545,56.0,0.0,90.0,0.0,0.0
5546,60.0,0.0,90.0,4.0,0.0
5547,51.0,0.0,90.0,11.0,0.0
5548,66.0,6.0,90.0,13.0,0.0
5549,66.0,0.0,90.0,2.0,0.0
5550,51.0,0.0,90.0,5.0,0.0
5551,60.0,0.0,30.0,8.0,0.0
5552,51.0,0.0,90.0,13.0,0.0
5553,60.0,42.0,30.0,3.0,0.0
5554,51.0,0.0,90.0,10.0,0.0
5555,60.0,0.0,90.0,13.0,0.0
5556,66.0,0.0,90.0,7.0,0.0
5557,61.0,16.0,30.0,3.0,0.0
5558,61.0,0.0,30.0,8.0,0.0
5559,63.0,12.0,15.0,3.0,0.0
5560,49.0,4.0,30.0,11.0,0.0
5561,63.0,0.0,15.0,8.0,0.0
5562,49.0,0.0,30.0,5.0,0.0
5563,70.0,0.0,180.0,7.0,0.0
5564,49.0,0.0,30.0,13.0,0.0
5565,56.0,0.0,30.0,1.0,0.0
5566,70.0,6.0,180.0,6.0,0.0
5567,70.0,0.0,180.0,2.0,0.0
5568,37.0,0.0,30.0,12.0,0.0
5569,53.0,0.0,90.0,10.0,0.0
5570,65.0,0.0,90.0,13.0,0.0
5571,58.0,6.0,90.0,13.0,0.0
5572,65.0,0.0,30.0,4.0,0.0
5573,61.0,12.0,15.0,3.0,0.0
5574,61.0,0.0,15.0,8.0,0.0
5575,63.0,0.0,15.0,8.0,0.0
5576,63.0,8.0,15.0,3.0,0.0
5577,61.0,0.0,15.0,8.0,0.0
5578,61.0,12.0,15.0,3.0,0.0
5579,48.0,0.0,30.0,5.0,0.0
5580,48.0,0.0,30.0,13.0,0.0
5581,63.0,12.0,15.0,3.0,0.0
5582,36.0,0.0,30.0,12.0,0.0
5583,63.0,0.0,30.0,4.0,0.0
5584,63.0,0.0,15.0,8.0,0.0
5585,48.0,0.0,30.0,11.0,0.0
5586,56.0,4.0,30.0,1.0,0.0
5587,61.0,0.0,15.0,3.0,0.0
5588,61.0,12.0,15.0,8.0,0.0
5589,63.0,0.0,15.0,3.0,0.0
5590,63.0,2.0,15.0,8.0,0.0
5591,61.0,0.0,15.0,8.0,0.0
5592,61.0,12.0,15.0,3.0,0.0
5593,37.0,0.0,90.0,12.0,0.0
5594,49.0,0.0,90.0,10.0,0.0
5595,65.0,0.0,90.0,4.0,0.0
5596,49.0,0.0,90.0,13.0,0.0
5597,63.0,0.0,15.0,8.0,0.0
5598,70.0,0.0,90.0,13.0,0.0
5599,63.0,12.0,15.0,3.0,0.0
5600,49.0,0.0,90.0,11.0,0.0
5601,65.0,0.0,90.0,13.0,0.0
5602,56.0,4.0,30.0,1.0,0.0
5603,49.0,0.0,90.0,5.0,0.0
5604,61.0,0.0,15.0,8.0,0.0
5605,61.0,12.0,15.0,3.0,0.0
5606,63.0,8.0,15.0,8.0,0.0
5607,63.0,0.0,15.0,3.0,0.0
5608,61.0,23.0,15.0,3.0,0.0
5609,61.0,0.0,15.0,8.0,0.0
5610,60.0,0.0,20.0,8.0,0.0
5611,56.0,3.0,30.0,1.0,0.0
5612,60.0,15.0,20.0,3.0,0.0
5613,61.0,0.0,20.0,8.0,0.0
5614,61.0,13.0,20.0,3.0,0.0
5615,56.0,0.0,90.0,0.0,0.0
5616,56.0,0.0,180.0,10.0,0.0
5617,48.0,0.0,90.0,13.0,0.0
5618,68.0,0.0,90.0,13.0,0.0
5619,63.0,0.0,90.0,13.0,0.0
5620,63.0,0.0,90.0,8.0,0.0
5621,66.0,0.0,90.0,2.0,0.0
5622,48.0,10.0,90.0,5.0,0.0
5623,63.0,0.0,90.0,4.0,0.0
5624,63.0,0.0,90.0,3.0,0.0
5625,68.0,0.0,15.0,6.0,0.0
5626,48.0,0.0,90.0,11.0,0.0
5627,36.0,0.0,90.0,12.0,0.0
5628,68.0,12.0,15.0,7.0,0.0
5629,56.0,0.0,90.0,1.0,0.0
5630,66.0,12.0,15.0,7.0,0.0
5631,66.0,0.0,15.0,6.0,0.0
5632,68.0,12.0,15.0,6.0,0.0
5633,68.0,0.0,15.0,7.0,0.0
5634,66.0,12.0,15.0,6.0,0.0
5635,66.0,0.0,15.0,7.0,0.0
5636,68.0,12.0,15.0,7.0,0.0
5637,68.0,0.0,15.0,6.0,0.0
5638,66.0,0.0,15.0,6.0,0.0
5639,66.0,12.0,15.0,7.0,0.0
5640,68.0,2.0,15.0,7.0,0.0
5641,68.0,0.0,15.0,6.0,0.0
5642,66.0,44.0,15.0,7.0,0.0
5643,66.0,0.0,15.0,6.0,0.0
5644,65.0,0.0,30.0,2.0,0.0
5645,65.0,0.0,30.0,6.0,0.0
5646,56.0,0.0,30.0,0.0,0.0
5647,49.0,0.0,30.0,13.0,0.0
5648,61.0,6.0,90.0,3.0,0.0
5649,56.0,0.0,90.0,4.0,0.0
5650,65.0,0.0,90.0,13.0,0.0
5651,56.0,0.0,90.0,13.0,0.0
5652,49.0,0.0,30.0,11.0,0.0
5653,37.0,0.0,30.0,12.0,0.0
5654,61.0,0.0,90.0,8.0,0.0
5655,49.0,0.0,30.0,5.0,0.0
5656,65.0,42.0,30.0,7.0,0.0
5657,48.0,0.0,30.0,11.0,0.0
5658,48.0,0.0,30.0,5.0,0.0
5659,63.0,0.0,30.0,7.0,0.0
5660,36.0,0.0,30.0,12.0,0.0
5661,56.0,0.0,30.0,0.0,0.0
5662,63.0,0.0,30.0,6.0,0.0
5663,48.0,48.0,30.0,13.0,0.0
5664,63.0,0.0,30.0,2.0,0.0
5665,68.0,0.0,90.0,6.0,0.0
5666,60.0,0.0,90.0,3.0,0.0
5667,46.0,0.0,30.0,11.0,0.0
5668,68.0,6.0,90.0,2.0,0.0
5669,46.0,0.0,30.0,5.0,0.0
5670,68.0,0.0,90.0,7.0,0.0
5671,60.0,0.0,90.0,8.0,0.0
5672,60.0,0.0,90.0,13.0,0.0
5673,68.0,0.0,90.0,13.0,0.0
5674,56.0,0.0,30.0,0.0,0.0
5675,46.0,42.0,30.0,13.0,0.0
5676,34.0,0.0,30.0,12.0,0.0
5677,56.0,0.0,90.0,4.0,0.0
5678,56.0,0.0,90.0,10.0,0.0
5679,56.0,0.0,30.0,0.0,0.0
5680,44.0,0.0,30.0,5.0,0.0
5681,32.0,16.0,30.0,12.0,0.0
5682,44.0,0.0,30.0,11.0,0.0
5683,44.0,0.0,30.0,13.0,0.0
5684,49.0,0.0,90.0,5.0,0.0
5685,37.0,0.0,90.0,12.0,0.0
5686,56.0,10.0,90.0,0.0,0.0
5687,65.0,0.0,180.0,2.0,0.0
5688,49.0,0.0,90.0,11.0,0.0
5689,61.0,0.0,180.0,8.0,0.0
5690,56.0,0.0,180.0,4.0,0.0
5691,56.0,0.0,90.0,1.0,0.0
5692,56.0,0.0,180.0,10.0,0.0
5693,56.0,0.0,90.0,13.0,0.0
5694,65.0,0.0,90.0,13.0,0.0
5695,49.0,0.0,90.0,13.0,0.0
5696,61.0,0.0,180.0,3.0,0.0
5697,66.0,12.0,15.0,6.0,0.0
5698,66.0,0.0,15.0,7.0,0.0
5699,65.0,12.0,15.0,7.0,0.0
5700,65.0,0.0,15.0,6.0,0.0
5701,66.0,12.0,15.0,6.0,0.0
5702,66.0,0.0,15.0,7.0,0.0
5703,65.0,12.0,15.0,7.0,0.0
5704,65.0,0.0,15.0,6.0,0.0
5705,66.0,0.0,15.0,6.0,0.0
5706,66.0,12.0,15.0,7.0,0.0
5707,65.0,0.0,15.0,6.0,0.0
5708,65.0,12.0,15.0,7.0,0.0
5709,66.0,0.0,15.0,6.0,0.0
5710,66.0,2.0,15.0,7.0,0.0
5711,65.0,12.0,15.0,7.0,0.0
5712,65.0,0.0,15.0,6.0,0.0
5713,56.0,0.0,30.0,1.0,0.0
5714,48.0,0.0,30.0,13.0,0.0
5715,66.0,0.0,15.0,6.0,0.0
5716,68.0,6.0,90.0,13.0,0.0
5717,48.0,0.0,30.0,5.0,0.0
5718,48.0,0.0,30.0,11.0,0.0
5719,66.0,12.0,15.0,7.0,0.0
5720,65.0,0.0,90.0,13.0,0.0
5721,36.0,4.0,30.0,12.0,0.0
5722,65.0,0.0,15.0,7.0,0.0
5723,65.0,12.0,15.0,6.0,0.0
5724,66.0,8.0,15.0,6.0,0.0
5725,66.0,0.0,15.0,7.0,0.0
5726,65.0,0.0,15.0,7.0,0.0
5727,65.0,12.0,15.0,6.0,0.0
5728,56.0,0.0,30.0,1.0,0.0
5729,66.0,12.0,15.0,7.0,0.0
5730,66.0,0.0,15.0,6.0,0.0
5731,46.0,0.0,30.0,5.0,0.0
5732,46.0,4.0,30.0,13.0,0.0
5733,34.0,0.0,30.0,12.0,0.0
5734,46.0,0.0,30.0,11.0,0.0
5735,65.0,0.0,15.0,6.0,0.0
5736,65.0,12.0,15.0,7.0,0.0
5737,66.0,2.0,15.0,7.0,0.0
5738,66.0,0.0,15.0,6.0,0.0
5739,65.0,0.0,15.0,6.0,0.0
5740,65.0,44.0,15.0,7.0,0.0
5741,63.0,0.0,90.0,8.0,0.0
5742,48.0,0.0,90.0,11.0,0.0
5743,68.0,0.0,90.0,13.0,0.0
5744,63.0,6.0,90.0,13.0,0.0
5745,56.0,0.0,90.0,10.0,0.0
5746,36.0,0.0,90.0,12.0,0.0
5747,63.0,0.0,90.0,2.0,0.0
5748,63.0,0.0,90.0,6.0,0.0
5749,56.0,42.0,30.0,1.0,0.0
5750,56.0,0.0,90.0,4.0,0.0
5751,48.0,0.0,90.0,5.0,0.0
5752,63.0,0.0,90.0,7.0,0.0
5753,63.0,0.0,90.0,3.0,0.0
5754,48.0,0.0,90.0,13.0,0.0
5755,56.0,16.0,30.0,1.0,0.0
5756,63.0,0.0,90.0,0.0,0.0
5757,63.0,0.0,90.0,1.0,0.0
5758,46.0,0.0,90.0,11.0,0.0
5759,46.0,0.0,90.0,5.0,0.0
5760,67.0,0.0,30.0,2.0,0.0
5761,67.0,0.0,30.0,7.0,0.0
5762,61.0,6.0,90.0,3.0,0.0
5763,34.0,0.0,90.0,12.0,0.0
5764,67.0,4.0,30.0,6.0,0.0
5765,46.0,0.0,90.0,13.0,0.0
5766,67.0,0.0,90.0,13.0,0.0
5767,61.0,0.0,90.0,13.0,0.0
5768,61.0,0.0,90.0,8.0,0.0
5769,58.0,0.0,90.0,4.0,0.0
5770,60.0,12.0,15.0,10.0,0.0
5771,58.0,12.0,15.0,10.0,0.0
5772,60.0,8.0,15.0,10.0,0.0
5773,58.0,12.0,15.0,10.0,0.0
5774,60.0,12.0,15.0,10.0,0.0
5775,68.0,0.0,30.0,7.0,0.0
5776,68.0,0.0,30.0,6.0,0.0
5777,68.0,4.0,30.0,2.0,0.0
5778,58.0,12.0,15.0,10.0,0.0
5779,60.0,2.0,15.0,10.0,0.0
5780,58.0,12.0,15.0,10.0,0.0
5781,63.0,0.0,30.0,0.0,0.0
5782,63.0,0.0,180.0,8.0,0.0
5783,36.0,0.0,90.0,12.0,0.0
5784,63.0,0.0,90.0,13.0,0.0
5785,70.0,12.0,15.0,2.0,0.0
5786,56.0,4.0,30.0,4.0,0.0
5787,68.0,0.0,90.0,13.0,0.0
5788,48.0,6.0,90.0,13.0,0.0
5789,56.0,0.0,30.0,10.0,0.0
5790,70.0,0.0,15.0,7.0,0.0
5791,48.0,0.0,90.0,5.0,0.0
5792,63.0,0.0,180.0,3.0,0.0
5793,48.0,0.0,90.0,11.0,0.0
5794,70.0,0.0,15.0,6.0,0.0
5795,68.0,0.0,15.0,6.0,0.0
5796,68.0,0.0,15.0,7.0,0.0
5797,68.0,12.0,15.0,2.0,0.0
5798,70.0,8.0,15.0,2.0,0.0
5799,70.0,0.0,15.0,7.0,0.0
5800,70.0,0.0,15.0,6.0,0.0
5801,68.0,12.0,15.0,7.0,0.0
5802,68.0,0.0,15.0,6.0,0.0
5803,68.0,0.0,15.0,2.0,0.0
5804,58.0,0.0,30.0,10.0,0.0
5805,63.0,4.0,30.0,0.0,0.0
5806,70.0,0.0,15.0,2.0,0.0
5807,58.0,0.0,30.0,4.0,0.0
5808,70.0,12.0,15.0,6.0,0.0
5809,70.0,0.0,15.0,7.0,0.0
5810,68.0,12.0,15.0,7.0,0.0
5811,68.0,0.0,15.0,2.0,0.0
5812,68.0,0.0,15.0,6.0,0.0
5813,70.0,0.0,15.0,2.0,0.0
5814,70.0,0.0,15.0,7.0,0.0
5815,70.0,2.0,15.0,6.0,0.0
5816,68.0,12.0,15.0,6.0,0.0
5817,68.0,0.0,15.0,2.0,0.0
5818,68.0,0.0,15.0,7.0,0.0
5819,32.0,6.0,90.0,12.0,0.0
5820,70.0,0.0,15.0,7.0,0.0
5821,63.0,4.0,30.0,0.0,0.0
5822,60.0,0.0,90.0,10.0,0.0
5823,70.0,0.0,15.0,6.0,0.0
5824,60.0,0.0,90.0,4.0,0.0
5825,63.0,0.0,90.0,13.0,0.0
5826,72.0,0.0,90.0,13.0,0.0
5827,44.0,0.0,90.0,13.0,0.0
5828,70.0,12.0,15.0,2.0,0.0
5829,44.0,0.0,90.0,11.0,0.0
5830,44.0,0.0,90.0,5.0,0.0
5831,68.0,0.0,15.0,6.0,0.0
5832,68.0,0.0,15.0,7.0,0.0
5833,68.0,12.0,15.0,2.0,0.0
5834,70.0,0.0,15.0,7.0,0.0
5835,70.0,0.0,15.0,6.0,0.0
5836,70.0,8.0,15.0,2.0,0.0
5837,68.0,0.0,15.0,7.0,0.0
5838,68.0,23.0,15.0,6.0,0.0
5839,68.0,0.0,15.0,2.0,0.0
5840,67.0,0.0,20.0,2.0,0.0
5841,67.0,0.0,20.0,6.0,0.0
5842,67.0,15.0,20.0,7.0,0.0
5843,63.0,3.0,30.0,0.0,0.0
5844,68.0,87.0,20.0,6.0,0.0
5845,68.0,0.0,20.0,2.0,0.0
5846,68.0,0.0,20.0,7.0,0.0
5847,70.0,0.0,90.0,13.0,0.0
5848,31.0,0.0,90.0,12.0,0.0
5849,43.0,0.0,90.0,13.0,0.0
5850,43.0,0.0,90.0,11.0,0.0
5851,63.0,0.0,180.0,3.0,0.0
5852,63.0,0.0,180.0,8.0,0.0
5853,58.0,0.0,180.0,10.0,0.0
5854,70.0,0.0,90.0,2.0,0.0
5855,43.0,54.0,90.0,5.0,0.0
5856,63.0,0.0,90.0,1.0,0.0
5857,58.0,6.0,180.0,4.0,0.0
5858,70.0,0.0,90.0,7.0,0.0
5859,70.0,0.0,90.0,6.0,0.0
5860,63.0,0.0,90.0,0.0,0.0
5861,63.0,0.0,90.0,13.0,0.0
5862,29.0,0.0,30.0,12.0,0.0
5863,63.0,0.0,30.0,1.0,0.0
5864,41.0,0.0,30.0,13.0,0.0
5865,41.0,0.0,30.0,11.0,0.0
5866,68.0,0.0,30.0,6.0,0.0
5867,41.0,0.0,30.0,5.0,0.0
5868,68.0,42.0,30.0,7.0,0.0
5869,68.0,0.0,90.0,13.0,0.0
5870,68.0,0.0,30.0,2.0,0.0
5871,63.0,0.0,90.0,13.0,0.0
5872,27.0,0.0,30.0,12.0,0.0
5873,67.0,0.0,30.0,6.0,0.0
5874,39.0,0.0,30.0,11.0,0.0
5875,39.0,0.0,30.0,5.0,0.0
5876,39.0,0.0,30.0,13.0,0.0
5877,67.0,0.0,30.0,7.0,0.0
5878,67.0,0.0,30.0,2.0,0.0
5879,63.0,48.0,30.0,1.0,0.0
5880,68.0,0.0,90.0,13.0,0.0
5881,68.0,6.0,90.0,6.0,0.0
5882,37.0,0.0,30.0,5.0,0.0
5883,63.0,0.0,90.0,13.0,0.0
5884,37.0,0.0,30.0,13.0,0.0
5885,37.0,42.0,30.0,11.0,0.0
5886,68.0,0.0,90.0,7.0,0.0
5887,60.0,0.0,90.0,10.0,0.0
5888,25.0,0.0,30.0,12.0,0.0
5889,63.0,0.0,30.0,1.0,0.0
5890,60.0,0.0,90.0,4.0,0.0
5891,63.0,0.0,90.0,8.0,0.0
5892,63.0,0.0,90.0,3.0,0.0
5893,68.0,0.0,90.0,2.0,0.0
5894,63.0,0.0,30.0,1.0,0.0
5895,36.0,0.0,30.0,13.0,0.0
5896,36.0,0.0,30.0,5.0,0.0
5897,36.0,0.0,30.0,11.0,0.0
5898,24.0,48.0,30.0,12.0,0.0
5899,41.0,0.0,30.0,13.0,0.0
5900,73.0,0.0,30.0,6.0,0.0
5901,61.0,0.0,90.0,13.0,0.0
5902,73.0,0.0,30.0,7.0,0.0
5903,41.0,0.0,30.0,11.0,0.0
5904,65.0,6.0,90.0,1.0,0.0
5905,73.0,0.0,30.0,2.0,0.0
5906,65.0,0.0,30.0,8.0,0.0
5907,56.0,0.0,90.0,4.0,0.0
5908,68.0,0.0,90.0,13.0,0.0
5909,56.0,0.0,90.0,10.0,0.0
5910,29.0,0.0,30.0,12.0,0.0
5911,41.0,42.0,30.0,5.0,0.0
5912,65.0,0.0,30.0,3.0,0.0
5913,68.0,0.0,30.0,0.0,0.0
5914,67.0,0.0,30.0,3.0,0.0
5915,75.0,0.0,30.0,6.0,0.0
5916,75.0,16.0,30.0,7.0,0.0
5917,37.0,0.0,30.0,11.0,0.0
5918,37.0,0.0,30.0,5.0,0.0
5919,37.0,0.0,30.0,13.0,0.0
5920,67.0,0.0,30.0,0.0,0.0
5921,67.0,0.0,30.0,8.0,0.0
5922,75.0,0.0,30.0,2.0,0.0
5923,25.0,0.0,30.0,12.0,0.0
5924,27.0,6.0,90.0,12.0,0.0
5925,66.0,0.0,90.0,13.0,0.0
5926,67.0,0.0,120.0,8.0,0.0
5927,58.0,0.0,90.0,13.0,0.0
5928,39.0,0.0,90.0,13.0,0.0
5929,70.0,6.0,120.0,6.0,0.0
5930,63.0,4.0,30.0,1.0,0.0
5931,68.0,12.0,15.0,3.0,0.0
5932,67.0,0.0,120.0,0.0,0.0
5933,70.0,0.0,120.0,2.0,0.0
5934,63.0,0.0,90.0,4.0,0.0
5935,63.0,0.0,90.0,10.0,0.0
5936,39.0,0.0,90.0,5.0,0.0
5937,39.0,0.0,90.0,11.0,0.0
5938,70.0,0.0,120.0,7.0,0.0
5939,67.0,12.0,15.0,3.0,0.0
5940,68.0,8.0,15.0,3.0,0.0
5941,67.0,12.0,15.0,3.0,0.0
5942,63.0,4.0,30.0,1.0,0.0
5943,68.0,12.0,15.0,3.0,0.0
5944,67.0,12.0,15.0,3.0,0.0
5945,68.0,2.0,15.0,3.0,0.0
5946,67.0,12.0,15.0,3.0,0.0
5947,63.0,4.0,30.0,1.0,0.0
5948,68.0,12.0,15.0,3.0,0.0
5949,39.0,0.0,90.0,11.0,0.0
5950,61.0,0.0,90.0,4.0,0.0
5951,39.0,0.0,90.0,5.0,0.0
5952,61.0,0.0,90.0,13.0,0.0
5953,66.0,0.0,90.0,13.0,0.0
5954,39.0,6.0,90.0,13.0,0.0
5955,61.0,0.0,90.0,10.0,0.0
5956,27.0,0.0,90.0,12.0,0.0
5957,67.0,12.0,15.0,3.0,0.0
5958,68.0,2.0,15.0,3.0,0.0
5959,67.0,38.0,15.0,3.0,0.0
5960,68.0,0.0,30.0,7.0,0.0
5961,68.0,0.0,30.0,2.0,0.0
5962,63.0,0.0,30.0,1.0,0.0
5963,63.0,90.0,30.0,3.0,0.0
5964,68.0,0.0,30.0,0.0,0.0
5965,63.0,0.0,30.0,8.0,0.0
5966,68.0,0.0,30.0,6.0,0.0
5967,68.0,0.0,270.0,0.0,0.0
5968,63.0,0.0,270.0,13.0,0.0
5969,72.0,0.0,270.0,13.0,0.0
5970,32.0,96.0,90.0,5.0,0.0
5971,63.0,0.0,270.0,3.0,0.0
5972,32.0,0.0,90.0,13.0,0.0
5973,60.0,0.0,270.0,10.0,0.0
5974,68.0,0.0,270.0,2.0,0.0
5975,68.0,0.0,270.0,6.0,0.0
5976,68.0,0.0,270.0,7.0,0.0
5977,63.0,0.0,270.0,8.0,0.0
5978,60.0,0.0,270.0,4.0,0.0
5979,32.0,0.0,90.0,11.0,0.0
5980,63.0,96.0,270.0,1.0,0.0
5981,20.0,0.0,90.0,12.0,0.0
5982,44.0,0.0,90.0,11.0,0.0
5983,44.0,0.0,90.0,13.0,0.0
5984,32.0,0.0,90.0,12.0,0.0
5985,44.0,96.0,90.0,5.0,0.0
5986,46.0,0.0,90.0,11.0,0.0
5987,46.0,0.0,90.0,13.0,0.0
5988,34.0,0.0,90.0,12.0,0.0
5989,46.0,0.0,90.0,5.0,0.0
5990,63.0,0.0,90.0,13.0,0.0
5991,63.0,0.0,180.0,4.0,0.0
5992,75.0,0.0,90.0,6.0,0.0
5993,36.0,0.0,180.0,12.0,0.0
5994,75.0,0.0,90.0,2.0,0.0
5995,68.0,0.0,90.0,13.0,0.0
5996,63.0,0.0,180.0,10.0,0.0
5997,68.0,54.0,90.0,8.0,0.0
5998,56.0,0.0,90.0,0.0,0.0
5999,68.0,0.0,90.0,3.0,0.0
6000,48.0,0.0,180.0,11.0,0.0
6001,48.0,0.0,180.0,5.0,0.0
6002,48.0,6.0,180.0,13.0,0.0
6003,75.0,0.0,90.0,7.0,0.0
6004,66.0,0.0,90.0,13.0,0.0
6005,78.0,0.0,90.0,6.0,0.0
6006,56.0,42.0,30.0,0.0,0.0
6007,78.0,0.0,90.0,7.0,0.0
6008,75.0,0.0,90.0,3.0,0.0
6009,75.0,0.0,90.0,8.0,0.0
6010,78.0,0.0,90.0,2.0,0.0
6011,63.0,0.0,90.0,13.0,0.0
6012,56.0,48.0,30.0,0.0,0.0
6013,49.0,6.0,90.0,13.0,0.0
6014,56.0,0.0,90.0,13.0,0.0
6015,77.0,0.0,90.0,7.0,0.0
6016,73.0,0.0,90.0,3.0,0.0
6017,68.0,0.0,90.0,4.0,0.0
6018,77.0,0.0,90.0,2.0,0.0
6019,65.0,0.0,90.0,13.0,0.0
6020,73.0,0.0,90.0,8.0,0.0
6021,77.0,0.0,90.0,6.0,0.0
6022,56.0,42.0,30.0,0.0,0.0
6023,37.0,0.0,90.0,12.0,0.0
6024,68.0,0.0,90.0,10.0,0.0
6025,49.0,0.0,90.0,11.0,0.0
6026,49.0,0.0,90.0,5.0,0.0
6027,56.0,16.0,30.0,0.0,0.0
6028,51.0,0.0,90.0,5.0,0.0
6029,77.0,12.0,15.0,6.0,0.0
6030,66.0,0.0,90.0,4.0,0.0
6031,56.0,0.0,90.0,0.0,0.0
6032,60.0,0.0,90.0,13.0,0.0
6033,51.0,0.0,90.0,13.0,0.0
6034,39.0,0.0,90.0,12.0,0.0
6035,72.0,0.0,90.0,8.0,0.0
6036,56.0,0.0,90.0,1.0,0.0
6037,66.0,0.0,90.0,13.0,0.0
6038,75.0,0.0,90.0,7.0,0.0
6039,72.0,0.0,90.0,3.0,0.0
6040,68.0,0.0,15.0,10.0,0.0
6041,75.0,0.0,90.0,2.0,0.0
6042,51.0,10.0,90.0,11.0,0.0
6043,66.0,12.0,15.0,10.0,0.0
6044,75.0,0.0,15.0,6.0,0.0
6045,68.0,0.0,15.0,10.0,0.0
6046,77.0,12.0,15.0,6.0,0.0
6047,66.0,12.0,15.0,10.0,0.0
6048,75.0,0.0,15.0,6.0,0.0
6049,68.0,0.0,15.0,10.0,0.0
6050,77.0,12.0,15.0,6.0,0.0
6051,75.0,0.0,15.0,6.0,0.0
6052,66.0,12.0,15.0,10.0,0.0
6053,77.0,0.0,15.0,6.0,0.0
6054,68.0,2.0,15.0,10.0,0.0
6055,66.0,0.0,15.0,10.0,0.0
6056,75.0,44.0,15.0,6.0,0.0
6057,54.0,0.0,90.0,11.0,0.0
6058,73.0,42.0,30.0,7.0,0.0
6059,73.0,0.0,30.0,6.0,0.0
6060,56.0,0.0,30.0,1.0,0.0
6061,73.0,0.0,30.0,2.0,0.0
6062,68.0,0.0,90.0,8.0,0.0
6063,68.0,0.0,90.0,13.0,0.0
6064,60.0,0.0,90.0,13.0,0.0
6065,68.0,0.0,90.0,3.0,0.0
6066,65.0,0.0,30.0,10.0,0.0
6067,54.0,0.0,90.0,13.0,0.0
6068,42.0,0.0,90.0,12.0,0.0
6069,65.0,0.0,30.0,4.0,0.0
6070,54.0,6.0,90.0,5.0,0.0
6071,72.0,0.0,30.0,6.0,0.0
6072,72.0,0.0,30.0,7.0,0.0
6073,63.0,48.0,30.0,10.0,0.0
6074,63.0,0.0,30.0,4.0,0.0
6075,56.0,0.0,30.0,1.0,0.0
6076,72.0,0.0,30.0,2.0,0.0
6077,65.0,0.0,90.0,10.0,0.0
6078,41.0,0.0,90.0,12.0,0.0
6079,73.0,0.0,90.0,7.0,0.0
6080,73.0,0.0,90.0,2.0,0.0
6081,53.0,0.0,90.0,13.0,0.0
6082,68.0,0.0,90.0,8.0,0.0
6083,68.0,0.0,90.0,13.0,0.0
6084,61.0,0.0,90.0,13.0,0.0
6085,53.0,0.0,90.0,11.0,0.0
6086,56.0,42.0,30.0,1.0,0.0
6087,65.0,0.0,90.0,4.0,0.0
6088,68.0,0.0,90.0,3.0,0.0
6089,73.0,0.0,90.0,6.0,0.0
6090,53.0,6.0,90.0,5.0,0.0
6091,56.0,90.0,30.0,1.0,0.0
6092,56.0,0.0,90.0,0.0,0.0
6093,75.0,0.0,90.0,7.0,0.0
6094,75.0,0.0,90.0,6.0,0.0
6095,51.0,0.0,90.0,11.0,0.0
6096,72.0,0.0,90.0,3.0,0.0
6097,51.0,0.0,90.0,5.0,0.0
6098,66.0,0.0,90.0,10.0,0.0
6099,51.0,0.0,90.0,13.0,0.0
6100,66.0,0.0,90.0,13.0,0.0
6101,75.0,0.0,90.0,2.0,0.0
6102,66.0,0.0,90.0,4.0,0.0
6103,72.0,54.0,90.0,8.0,0.0
6104,39.0,0.0,90.0,12.0,0.0
6105,60.0,0.0,90.0,13.0,0.0
6106,56.0,0.0,90.0,1.0,0.0
6107,56.0,0.0,30.0,0.0,0.0
6108,63.0,0.0,90.0,4.0,0.0
6109,37.0,42.0,30.0,12.0,0.0
6110,58.0,0.0,90.0,13.0,0.0
6111,78.0,0.0,90.0,7.0,0.0
6112,49.0,0.0,30.0,5.0,0.0
6113,75.0,0.0,90.0,3.0,0.0
6114,49.0,0.0,30.0,11.0,0.0
6115,63.0,0.0,90.0,10.0,0.0
6116,78.0,6.0,90.0,6.0,0.0
6117,49.0,0.0,30.0,13.0,0.0
6118,66.0,0.0,90.0,13.0,0.0
6119,78.0,0.0,90.0,2.0,0.0
6120,75.0,0.0,90.0,8.0,0.0
6121,56.0,48.0,30.0,0.0,0.0
6122,48.0,0.0,30.0,13.0,0.0
6123,48.0,0.0,30.0,5.0,0.0
6124,36.0,0.0,30.0,12.0,0.0
6125,48.0,0.0,30.0,11.0,0.0
6126,56.0,42.0,30.0,0.0,0.0
6127,65.0,0.0,90.0,13.0,0.0
6128,49.0,0.0,90.0,13.0,0.0
6129,77.0,0.0,90.0,2.0,0.0
6130,49.0,0.0,90.0,5.0,0.0
6131,49.0,0.0,90.0,11.0,0.0
6132,77.0,0.0,90.0,6.0,0.0
6133,77.0,0.0,90.0,7.0,0.0
6134,73.0,0.0,90.0,8.0,0.0
6135,56.0,6.0,90.0,13.0,0.0
6136,73.0,0.0,90.0,3.0,0.0
6137,37.0,0.0,90.0,12.0,0.0
6138,68.0,0.0,90.0,10.0,0.0
6139,68.0,0.0,90.0,4.0,0.0
6140,56.0,16.0,30.0,0.0,0.0
6141,68.0,0.0,180.0,10.0,0.0
6142,56.0,0.0,90.0,0.0,0.0
6143,75.0,0.0,90.0,3.0,0.0
6144,63.0,0.0,90.0,13.0,0.0
6145,48.0,10.0,90.0,5.0,0.0
6146,56.0,0.0,90.0,1.0,0.0
6147,48.0,0.0,90.0,13.0,0.0
6148,75.0,0.0,90.0,8.0,0.0
6149,56.0,0.0,90.0,13.0,0.0
6150,36.0,0.0,90.0,12.0,0.0
6151,68.0,0.0,180.0,4.0,0.0
6152,77.0,0.0,15.0,7.0,0.0
6153,77.0,12.0,15.0,2.0,0.0
6154,77.0,0.0,15.0,6.0,0.0
6155,48.0,0.0,90.0,11.0,0.0
6156,75.0,0.0,15.0,2.0,0.0
6157,75.0,0.0,15.0,6.0,0.0
6158,75.0,12.0,15.0,7.0,0.0
6159,77.0,0.0,15.0,6.0,0.0
6160,77.0,0.0,15.0,7.0,0.0
6161,77.0,12.0,15.0,2.0,0.0
6162,75.0,0.0,15.0,6.0,0.0
6163,75.0,0.0,15.0,2.0,0.0
6164,75.0,12.0,15.0,7.0,0.0
6165,77.0,12.0,15.0,2.0,0.0
6166,77.0,0.0,15.0,7.0,0.0
6167,77.0,0.0,15.0,6.0,0.0
6168,75.0,12.0,15.0,6.0,0.0
6169,75.0,0.0,15.0,7.0,0.0
6170,75.0,0.0,15.0,2.0,0.0
6171,77.0,0.0,15.0,6.0,0.0
6172,77.0,0.0,15.0,7.0,0.0
6173,77.0,2.0,15.0,2.0,0.0
6174,75.0,0.0,15.0,6.0,0.0
6175,75.0,0.0,15.0,2.0,0.0
6176,75.0,12.0,15.0,7.0,0.0
6177,49.0,0.0,30.0,5.0,0.0
6178,73.0,0.0,90.0,3.0,0.0
6179,77.0,12.0,15.0,7.0,0.0
6180,49.0,0.0,30.0,13.0,0.0
6181,56.0,0.0,30.0,1.0,0.0
6182,77.0,0.0,15.0,2.0,0.0
6183,49.0,4.0,30.0,11.0,0.0
6184,73.0,0.0,90.0,8.0,0.0
6185,68.0,6.0,90.0,13.0,0.0
6186,77.0,0.0,15.0,6.0,0.0
6187,37.0,0.0,30.0,12.0,0.0
6188,61.0,0.0,90.0,13.0,0.0
6189,75.0,12.0,15.0,7.0,0.0
6190,75.0,0.0,15.0,6.0,0.0
6191,75.0,0.0,15.0,2.0,0.0
6192,77.0,0.0,15.0,7.0,0.0
6193,77.0,0.0,15.0,6.0,0.0
6194,77.0,8.0,15.0,2.0,0.0
6195,75.0,12.0,15.0,7.0,0.0
6196,75.0,0.0,15.0,6.0,0.0
6197,75.0,0.0,15.0,2.0,0.0
6198,36.0,4.0,30.0,12.0,0.0
6199,77.0,0.0,15.0,6.0,0.0
6200,77.0,12.0,15.0,2.0,0.0
6201,56.0,0.0,30.0,1.0,0.0
6202,77.0,0.0,15.0,7.0,0.0
6203,48.0,0.0,30.0,5.0,0.0
6204,48.0,0.0,30.0,11.0,0.0
6205,48.0,0.0,30.0,13.0,0.0
6206,75.0,0.0,15.0,6.0,0.0
6207,75.0,12.0,15.0,7.0,0.0
6208,75.0,0.0,15.0,2.0,0.0
6209,77.0,2.0,15.0,6.0,0.0
6210,77.0,0.0,15.0,7.0,0.0
6211,77.0,0.0,15.0,2.0,0.0
6212,75.0,0.0,15.0,2.0,0.0
6213,75.0,44.0,15.0,6.0,0.0
6214,75.0,0.0,15.0,7.0,0.0
6215,63.0,0.0,90.0,10.0,0.0
6216,63.0,0.0,90.0,13.0,0.0
6217,72.0,0.0,90.0,13.0,0.0
6218,80.0,0.0,90.0,6.0,0.0
6219,56.0,0.0,30.0,1.0,0.0
6220,46.0,0.0,30.0,13.0,0.0
6221,72.0,0.0,90.0,8.0,0.0
6222,46.0,0.0,30.0,11.0,0.0
6223,46.0,0.0,30.0,5.0,0.0
6224,72.0,0.0,90.0,3.0,0.0
6225,34.0,42.0,30.0,12.0,0.0
6226,80.0,6.0,90.0,7.0,0.0
6227,63.0,0.0,90.0,4.0,0.0
6228,80.0,0.0,90.0,2.0,0.0
6229,32.0,0.0,30.0,12.0,0.0
6230,44.0,16.0,30.0,5.0,0.0
6231,56.0,0.0,30.0,1.0,0.0
6232,44.0,0.0,30.0,13.0,0.0
6233,44.0,0.0,30.0,11.0,0.0
6234,73.0,0.0,90.0,7.0,0.0
6235,44.0,11.0,15.0,13.0,0.0
6236,70.0,9.0,90.0,13.0,0.0
6237,63.0,0.0,90.0,13.0,0.0
6238,44.0,1.0,20.0,5.0,0.0
6239,63.0,0.0,180.0,10.0,0.0
6240,44.0,0.0,15.0,11.0,0.0
6241,70.0,0.0,180.0,3.0,0.0
6242,63.0,0.0,90.0,0.0,0.0
6243,63.0,0.0,90.0,1.0,0.0
6244,32.0,0.0,15.0,12.0,0.0
6245,73.0,0.0,90.0,6.0,0.0
6246,63.0,0.0,180.0,4.0,0.0
6247,73.0,0.0,90.0,2.0,0.0
6248,70.0,6.0,180.0,8.0,0.0
6249,43.0,12.0,15.0,11.0,0.0
6250,31.0,0.0,15.0,12.0,0.0
6251,43.0,0.0,15.0,13.0,0.0
6252,44.0,0.0,15.0,13.0,0.0
6253,44.0,0.0,15.0,11.0,0.0
6254,43.0,1.0,20.0,5.0,0.0
6255,32.0,11.0,15.0,12.0,0.0
6256,43.0,0.0,15.0,13.0,0.0
6257,31.0,12.0,15.0,12.0,0.0
6258,43.0,0.0,15.0,11.0,0.0
6259,44.0,0.0,15.0,13.0,0.0
6260,32.0,11.0,15.0,12.0,0.0
6261,44.0,0.0,15.0,11.0,0.0
6262,44.0,1.0,20.0,5.0,0.0
6263,43.0,12.0,15.0,11.0,0.0
6264,43.0,0.0,15.0,13.0,0.0
6265,31.0,0.0,15.0,12.0,0.0
6266,43.0,1.0,20.0,5.0,0.0
6267,32.0,0.0,15.0,12.0,0.0
6268,44.0,2.0,15.0,11.0,0.0
6269,44.0,0.0,15.0,13.0,0.0
6270,43.0,0.0,15.0,13.0,0.0
6271,43.0,12.0,15.0,11.0,0.0
6272,31.0,0.0,15.0,12.0,0.0
6273,70.0,0.0,90.0,7.0,0.0
6274,32.0,11.0,15.0,12.0,0.0
6275,70.0,0.0,90.0,2.0,0.0
6276,44.0,0.0,15.0,13.0,0.0
6277,44.0,1.0,20.0,5.0,0.0
6278,63.0,3.0,30.0,0.0,0.0
6279,44.0,0.0,15.0,11.0,0.0
6280,70.0,0.0,90.0,6.0,0.0
6281,67.0,0.0,90.0,13.0,0.0
6282,58.0,0.0,90.0,13.0,0.0
6283,43.0,12.0,15.0,11.0,0.0
6284,43.0,0.0,15.0,13.0,0.0
6285,31.0,0.0,15.0,12.0,0.0
6286,44.0,0.0,15.0,13.0,0.0
6287,43.0,1.0,20.0,5.0,0.0
6288,32.0,0.0,15.0,12.0,0.0
6289,44.0,8.0,15.0,11.0,0.0
6290,31.0,12.0,15.0,12.0,0.0
6291,43.0,0.0,15.0,13.0,0.0
6292,43.0,0.0,15.0,11.0,0.0
6293,44.0,1.0,20.0,5.0,0.0
6294,44.0,0.0,15.0,13.0,0.0
6295,44.0,0.0,15.0,11.0,0.0
6296,63.0,3.0,30.0,0.0,0.0
6297,32.0,11.0,15.0,12.0,0.0
6298,43.0,0.0,15.0,11.0,0.0
6299,43.0,0.0,15.0,13.0,0.0
6300,31.0,12.0,15.0,12.0,0.0
6301,44.0,0.0,15.0,13.0,0.0
6302,44.0,2.0,15.0,11.0,0.0
6303,32.0,0.0,15.0,12.0,0.0
6304,43.0,1.0,20.0,5.0,0.0
6305,31.0,44.0,15.0,12.0,0.0
6306,43.0,0.0,15.0,13.0,0.0
6307,43.0,0.0,15.0,11.0,0.0
6308,44.0,0.0,90.0,13.0,0.0
6309,68.0,0.0,90.0,3.0,0.0
6310,72.0,0.0,90.0,2.0,0.0
6311,72.0,0.0,90.0,7.0,0.0
6312,72.0,6.0,90.0,13.0,0.0
6313,63.0,0.0,90.0,13.0,0.0
6314,44.0,0.0,90.0,5.0,0.0
6315,32.0,0.0,90.0,12.0,0.0
6316,72.0,0.0,90.0,6.0,0.0
6317,63.0,0.0,90.0,4.0,0.0
6318,63.0,0.0,90.0,10.0,0.0
6319,68.0,0.0,90.0,8.0,0.0
6320,44.0,0.0,90.0,11.0,0.0
6321,63.0,42.0,30.0,0.0,0.0
6322,63.0,48.0,30.0,0.0,0.0
6323,46.0,0.0,90.0,11.0,0.0
6324,58.0,0.0,90.0,4.0,0.0
6325,58.0,0.0,90.0,10.0,0.0
6326,63.0,0.0,90.0,0.0,0.0
6327,73.0,0.0,90.0,13.0,0.0
6328,46.0,6.0,90.0,13.0,0.0
6329,34.0,0.0,90.0,12.0,0.0
6330,46.0,0.0,90.0,5.0,0.0
6331,67.0,42.0,30.0,3.0,0.0
6332,63.0,0.0,90.0,1.0,0.0
6333,73.0,0.0,90.0,6.0,0.0
6334,73.0,0.0,90.0,7.0,0.0
6335,67.0,0.0,30.0,8.0,0.0
6336,67.0,0.0,90.0,13.0,0.0
6337,73.0,0.0,90.0,2.0,0.0
6338,68.0,16.0,30.0,3.0,0.0
6339,68.0,0.0,30.0,8.0,0.0
6340,63.0,0.0,30.0,1.0,0.0
6341,44.0,0.0,30.0,5.0,0.0
6342,32.0,0.0,30.0,12.0,0.0
6343,70.0,0.0,15.0,3.0,0.0
6344,60.0,6.0,90.0,4.0,0.0
6345,60.0,0.0,90.0,10.0,0.0
6346,77.0,0.0,180.0,7.0,0.0
6347,70.0,12.0,15.0,8.0,0.0
6348,65.0,0.0,90.0,13.0,0.0
6349,77.0,0.0,180.0,2.0,0.0
6350,72.0,0.0,90.0,13.0,0.0
6351,44.0,4.0,30.0,11.0,0.0
6352,44.0,0.0,30.0,13.0,0.0
6353,77.0,0.0,180.0,6.0,0.0
6354,68.0,0.0,15.0,3.0,0.0
6355,68.0,12.0,15.0,8.0,0.0
6356,70.0,0.0,15.0,3.0,0.0
6357,70.0,8.0,15.0,8.0,0.0
6358,68.0,12.0,15.0,3.0,0.0
6359,68.0,0.0,15.0,8.0,0.0
6360,70.0,0.0,15.0,8.0,0.0
6361,63.0,0.0,30.0,1.0,0.0
6362,43.0,4.0,30.0,5.0,0.0
6363,43.0,0.0,30.0,11.0,0.0
6364,70.0,12.0,15.0,3.0,0.0
6365,43.0,0.0,30.0,13.0,0.0
6366,31.0,0.0,30.0,12.0,0.0
6367,68.0,12.0,15.0,8.0,0.0
6368,68.0,0.0,15.0,3.0,0.0
6369,70.0,0.0,15.0,3.0,0.0
6370,70.0,2.0,15.0,8.0,0.0
6371,68.0,12.0,15.0,3.0,0.0
6372,68.0,0.0,15.0,8.0,0.0
6373,56.0,0.0,90.0,4.0,0.0
6374,44.0,0.0,90.0,11.0,0.0
6375,44.0,0.0,90.0,13.0,0.0
6376,44.0,0.0,90.0,5.0,0.0
6377,56.0,6.0,90.0,10.0,0.0
6378,68.0,0.0,90.0,13.0,0.0
6379,65.0,0.0,90.0,13.0,0.0
6380,63.0,4.0,30.0,1.0,0.0
6381,70.0,0.0,15.0,3.0,0.0
6382,32.0,0.0,90.0,12.0,0.0
6383,70.0,12.0,15.0,8.0,0.0
6384,68.0,0.0,15.0,3.0,0.0
6385,68.0,12.0,15.0,8.0,0.0
6386,70.0,8.0,15.0,8.0,0.0
6387,70.0,0.0,15.0,3.0,0.0
6388,68.0,0.0,15.0,3.0,0.0
6389,68.0,23.0,15.0,8.0,0.0
6390,63.0,3.0,30.0,1.0,0.0
6391,67.0,0.0,20.0,8.0,0.0
6392,67.0,15.0,20.0,3.0,0.0
6393,68.0,0.0,20.0,8.0,0.0
6394,68.0,87.0,20.0,3.0,0.0
6395,73.0,0.0,90.0,6.0,0.0
6396,63.0,0.0,90.0,1.0,0.0
6397,63.0,0.0,180.0,10.0,0.0
6398,70.0,0.0,90.0,13.0,0.0
6399,63.0,0.0,90.0,13.0,0.0
6400,63.0,0.0,180.0,4.0,0.0
6401,43.0,0.0,90.0,13.0,0.0
6402,63.0,54.0,90.0,0.0,0.0
6403,43.0,0.0,90.0,5.0,0.0
6404,31.0,0.0,90.0,12.0,0.0
6405,73.0,0.0,90.0,2.0,0.0
6406,73.0,0.0,90.0,7.0,0.0
6407,70.0,0.0,90.0,3.0,0.0
6408,43.0,0.0,90.0,11.0,0.0
6409,70.0,0.0,90.0,8.0,0.0
6410,32.0,0.0,30.0,12.0,0.0
6411,72.0,0.0,30.0,7.0,0.0
6412,72.0,0.0,30.0,2.0,0.0
6413,63.0,0.0,30.0,0.0,0.0
6414,44.0,0.0,30.0,11.0,0.0
6415,44.0,42.0,30.0,5.0,0.0
6416,63.0,0.0,90.0,13.0,0.0
6417,68.0,0.0,90.0,3.0,0.0
6418,72.0,0.0,30.0,6.0,0.0
6419,72.0,0.0,90.0,13.0,0.0
6420,44.0,0.0,30.0,13.0,0.0
6421,68.0,6.0,90.0,8.0,0.0
6422,63.0,0.0,30.0,0.0,0.0
6423,43.0,0.0,30.0,5.0,0.0
6424,43.0,48.0,30.0,13.0,0.0
6425,31.0,0.0,30.0,12.0,0.0
6426,70.0,0.0,30.0,7.0,0.0
6427,70.0,0.0,30.0,6.0,0.0
6428,43.0,0.0,30.0,11.0,0.0
6429,70.0,0.0,30.0,2.0,0.0
6430,67.0,0.0,90.0,13.0,0.0
6431,41.0,0.0,30.0,13.0,0.0
6432,75.0,6.0,90.0,6.0,0.0
6433,63.0,0.0,30.0,0.0,0.0
6434,75.0,0.0,90.0,2.0,0.0
6435,58.0,0.0,90.0,13.0,0.0
6436,41.0,42.0,30.0,11.0,0.0
6437,41.0,0.0,30.0,5.0,0.0
6438,29.0,0.0,30.0,12.0,0.0
6439,67.0,0.0,90.0,8.0,0.0
6440,67.0,0.0,90.0,3.0,0.0
6441,63.0,0.0,90.0,10.0,0.0
6442,75.0,0.0,90.0,7.0,0.0
6443,63.0,0.0,90.0,4.0,0.0
6444,63.0,0.0,30.0,0.0,0.0
6445,39.0,0.0,30.0,13.0,0.0
6446,27.0,0.0,30.0,12.0,0.0
6447,39.0,0.0,30.0,11.0,0.0
6448,39.0,90.0,30.0,5.0,0.0
6449,44.0,0.0,90.0,13.0,0.0
6450,63.0,0.0,270.0,10.0,0.0
6451,44.0,0.0,90.0,11.0,0.0
6452,68.0,0.0,270.0,3.0,0.0
6453,63.0,6.0,270.0,4.0,0.0
6454,63.0,0.0,90.0,0.0,0.0
6455,63.0,0.0,90.0,13.0,0.0
6456,72.0,0.0,90.0,13.0,0.0
6457,72.0,0.0,120.0,7.0,0.0
6458,72.0,0.0,120.0,6.0,0.0
6459,32.0,48.0,90.0,12.0,0.0
6460,68.0,0.0,270.0,8.0,0.0
6461,72.0,6.0,120.0,2.0,0.0
6462,63.0,0.0,90.0,1.0,0.0
6463,44.0,0.0,90.0,5.0,0.0
6464,42.0,0.0,30.0,5.0,0.0
6465,42.0,0.0,30.0,11.0,0.0
6466,61.0,0.0,90.0,13.0,0.0
6467,42.0,42.0,30.0,13.0,0.0
6468,70.0,6.0,90.0,13.0,0.0
6469,30.0,0.0,30.0,12.0,0.0
6470,63.0,0.0,30.0,1.0,0.0
6471,29.0,0.0,30.0,12.0,0.0
6472,41.0,0.0,30.0,13.0,0.0
6473,63.0,0.0,30.0,1.0,0.0
6474,73.0,0.0,30.0,6.0,0.0
6475,73.0,0.0,30.0,7.0,0.0
6476,73.0,0.0,30.0,2.0,0.0
6477,41.0,0.0,30.0,11.0,0.0
6478,41.0,16.0,30.0,5.0,0.0
6479,27.0,0.0,30.0,12.0,0.0
6480,75.0,0.0,15.0,7.0,0.0
6481,39.0,0.0,30.0,5.0,0.0
6482,39.0,0.0,30.0,13.0,0.0
6483,70.0,0.0,90.0,13.0,0.0
6484,63.0,4.0,30.0,1.0,0.0
6485,61.0,0.0,90.0,13.0,0.0
6486,75.0,12.0,15.0,6.0,0.0
6487,75.0,0.0,15.0,2.0,0.0
6488,39.0,0.0,30.0,11.0,0.0
6489,73.0,12.0,15.0,2.0,0.0
6490,73.0,0.0,15.0,7.0,0.0
6491,73.0,0.0,15.0,6.0,0.0
6492,75.0,8.0,15.0,2.0,0.0
6493,75.0,0.0,15.0,6.0,0.0
6494,75.0,0.0,15.0,7.0,0.0
6495,73.0,12.0,15.0,7.0,0.0
6496,73.0,0.0,15.0,2.0,0.0
6497,73.0,0.0,15.0,6.0,0.0
6498,25.0,0.0,30.0,12.0,0.0
6499,75.0,0.0,15.0,7.0,0.0
6500,75.0,0.0,15.0,2.0,0.0
6501,63.0,0.0,30.0,1.0,0.0
6502,37.0,0.0,30.0,13.0,0.0
6503,37.0,4.0,30.0,5.0,0.0
6504,75.0,12.0,15.0,6.0,0.0
6505,37.0,0.0,30.0,11.0,0.0
6506,73.0,0.0,15.0,2.0,0.0
6507,73.0,12.0,15.0,6.0,0.0
6508,73.0,0.0,15.0,7.0,0.0
6509,72.0,2.0,15.0,2.0,0.0
6510,72.0,0.0,15.0,7.0,0.0
6511,72.0,0.0,15.0,6.0,0.0
6512,73.0,44.0,15.0,2.0,0.0
6513,73.0,0.0,15.0,6.0,0.0
6514,73.0,0.0,15.0,7.0,0.0
6515,36.0,0.0,90.0,5.0,0.0
6516,63.0,0.0,90.0,4.0,0.0
6517,68.0,6.0,180.0,8.0,0.0
6518,75.0,0.0,30.0,2.0,0.0
6519,75.0,0.0,30.0,6.0,0.0
6520,63.0,42.0,30.0,10.0,0.0
6521,36.0,0.0,90.0,11.0,0.0
6522,68.0,0.0,90.0,0.0,0.0
6523,24.0,0.0,90.0,12.0,0.0
6524,63.0,0.0,90.0,13.0,0.0
6525,68.0,0.0,90.0,13.0,0.0
6526,36.0,0.0,90.0,13.0,0.0
6527,68.0,0.0,180.0,3.0,0.0
6528,63.0,6.0,90.0,1.0,0.0
6529,75.0,0.0,30.0,7.0,0.0
6530,61.0,0.0,30.0,10.0,0.0
6531,77.0,0.0,30.0,6.0,0.0
6532,77.0,16.0,30.0,7.0,0.0
6533,77.0,0.0,30.0,2.0,0.0
6534,68.0,0.0,30.0,0.0,0.0
6535,63.0,0.0,15.0,10.0,0.0
6536,56.0,0.0,90.0,13.0,0.0
6537,65.0,0.0,90.0,13.0,0.0
6538,37.0,0.0,30.0,13.0,0.0
6539,78.0,0.0,15.0,6.0,0.0
6540,63.0,0.0,15.0,4.0,0.0
6541,78.0,0.0,15.0,7.0,0.0
6542,37.0,0.0,30.0,5.0,0.0
6543,37.0,0.0,30.0,11.0,0.0
6544,25.0,4.0,30.0,12.0,0.0
6545,78.0,12.0,15.0,2.0,0.0
6546,61.0,0.0,15.0,4.0,0.0
6547,77.0,12.0,15.0,6.0,0.0
6548,77.0,0.0,15.0,7.0,0.0
6549,77.0,0.0,15.0,2.0,0.0
6550,61.0,0.0,15.0,10.0,0.0
6551,63.0,0.0,15.0,10.0,0.0
6552,78.0,0.0,15.0,2.0,0.0
6553,78.0,0.0,15.0,7.0,0.0
6554,63.0,0.0,15.0,4.0,0.0
6555,78.0,8.0,15.0,6.0,0.0
6556,61.0,0.0,15.0,4.0,0.0
6557,77.0,0.0,15.0,7.0,0.0
6558,77.0,0.0,15.0,2.0,0.0
6559,61.0,0.0,15.0,10.0,0.0
6560,77.0,12.0,15.0,6.0,0.0
6561,36.0,0.0,30.0,5.0,0.0
6562,78.0,0.0,15.0,7.0,0.0
6563,63.0,12.0,15.0,4.0,0.0
6564,78.0,0.0,15.0,6.0,0.0
6565,36.0,4.0,30.0,13.0,0.0
6566,68.0,0.0,30.0,0.0,0.0
6567,36.0,0.0,30.0,11.0,0.0
6568,78.0,0.0,15.0,2.0,0.0
6569,24.0,0.0,30.0,12.0,0.0
6570,63.0,0.0,15.0,10.0,0.0
6571,77.0,0.0,15.0,7.0,0.0
6572,61.0,0.0,15.0,4.0,0.0
6573,77.0,12.0,15.0,6.0,0.0
6574,61.0,0.0,15.0,10.0,0.0
6575,77.0,0.0,15.0,2.0,0.0
6576,63.0,0.0,15.0,4.0,0.0
6577,78.0,0.0,15.0,2.0,0.0
6578,63.0,2.0,15.0,10.0,0.0
6579,78.0,0.0,15.0,6.0,0.0
6580,78.0,0.0,15.0,7.0,0.0
6581,77.0,0.0,15.0,6.0,0.0
6582,61.0,0.0,15.0,4.0,0.0
6583,77.0,12.0,15.0,2.0,0.0
6584,77.0,0.0,15.0,7.0,0.0
6585,61.0,0.0,15.0,10.0,0.0
6586,63.0,0.0,15.0,4.0,0.0
6587,78.0,0.0,15.0,7.0,0.0
6588,34.0,0.0,30.0,13.0,0.0
6589,68.0,0.0,30.0,0.0,0.0
6590,78.0,0.0,15.0,6.0,0.0
6591,22.0,4.0,30.0,12.0,0.0
6592,78.0,0.0,15.0,2.0,0.0
6593,73.0,0.0,90.0,13.0,0.0
6594,34.0,0.0,30.0,11.0,0.0
6595,73.0,0.0,90.0,8.0,0.0
6596,63.0,12.0,15.0,10.0,0.0
6597,73.0,6.0,90.0,3.0,0.0
6598,65.0,0.0,90.0,13.0,0.0
6599,34.0,0.0,30.0,5.0,0.0
6600,77.0,0.0,15.0,6.0,0.0
6601,77.0,0.0,15.0,2.0,0.0
6602,61.0,0.0,15.0,4.0,0.0
6603,77.0,12.0,15.0,7.0,0.0
6604,61.0,0.0,15.0,10.0,0.0
6605,63.0,8.0,15.0,4.0,0.0
6606,78.0,0.0,15.0,2.0,0.0
6607,78.0,0.0,15.0,7.0,0.0
6608,78.0,0.0,15.0,6.0,0.0
6609,63.0,0.0,15.0,10.0,0.0
6610,77.0,0.0,15.0,2.0,0.0
6611,77.0,0.0,15.0,6.0,0.0
6612,61.0,0.0,15.0,4.0,0.0
6613,77.0,23.0,15.0,7.0,0.0
6614,61.0,0.0,15.0,10.0,0.0
6615,24.0,0.0,30.0,12.0,0.0
6616,60.0,0.0,20.0,10.0,0.0
6617,75.0,0.0,20.0,7.0,0.0
6618,68.0,0.0,30.0,0.0,0.0
6619,75.0,15.0,20.0,6.0,0.0
6620,60.0,0.0,20.0,4.0,0.0
6621,36.0,0.0,30.0,5.0,0.0
6622,75.0,0.0,20.0,2.0,0.0
6623,36.0,0.0,30.0,13.0,0.0
6624,36.0,3.0,30.0,11.0,0.0
6625,77.0,0.0,20.0,2.0,0.0
6626,77.0,0.0,20.0,6.0,0.0
6627,61.0,0.0,20.0,10.0,0.0
6628,77.0,0.0,20.0,7.0,0.0
6629,61.0,87.0,20.0,4.0,0.0
6630,63.0,0.0,90.0,10.0,0.0
6631,68.0,0.0,180.0,0.0,0.0
6632,32.0,0.0,90.0,5.0,0.0
6633,63.0,0.0,90.0,1.0,0.0
6634,20.0,0.0,90.0,12.0,0.0
6635,63.0,0.0,90.0,13.0,0.0
6636,78.0,0.0,90.0,2.0,0.0
6637,32.0,0.0,90.0,11.0,0.0
6638,32.0,0.0,90.0,13.0,0.0
6639,72.0,0.0,90.0,13.0,0.0
6640,78.0,0.0,90.0,7.0,0.0
6641,78.0,0.0,90.0,6.0,0.0
6642,72.0,0.0,90.0,8.0,0.0
6643,63.0,22.0,90.0,4.0,0.0
6644,72.0,0.0,90.0,3.0,0.0
6645,68.0,6.0,90.0,10.0,0.0
6646,75.0,12.0,15.0,3.0,0.0
6647,77.0,0.0,30.0,6.0,0.0
6648,32.0,0.0,30.0,12.0,0.0
6649,44.0,0.0,30.0,11.0,0.0
6650,77.0,0.0,30.0,7.0,0.0
6651,73.0,0.0,90.0,8.0,0.0
6652,56.0,0.0,30.0,1.0,0.0
6653,77.0,0.0,30.0,2.0,0.0
6654,73.0,0.0,90.0,13.0,0.0
6655,65.0,0.0,90.0,13.0,0.0
6656,44.0,0.0,30.0,5.0,0.0
6657,44.0,4.0,30.0,13.0,0.0
6658,68.0,0.0,90.0,4.0,0.0
6659,73.0,12.0,15.0,3.0,0.0
6660,75.0,8.0,15.0,3.0,0.0
6661,73.0,12.0,15.0,3.0,0.0
6662,75.0,0.0,30.0,6.0,0.0
6663,75.0,0.0,30.0,2.0,0.0
6664,75.0,0.0,30.0,7.0,0.0
6665,46.0,4.0,30.0,5.0,0.0
6666,46.0,0.0,30.0,11.0,0.0
6667,46.0,0.0,30.0,13.0,0.0
6668,34.0,0.0,30.0,12.0,0.0
6669,75.0,12.0,15.0,3.0,0.0
6670,56.0,0.0,30.0,1.0,0.0
6671,73.0,12.0,15.0,3.0,0.0
6672,75.0,2.0,15.0,3.0,0.0
6673,73.0,44.0,15.0,3.0,0.0
6674,80.0,0.0,90.0,6.0,0.0
6675,80.0,0.0,90.0,7.0,0.0
6676,68.0,0.0,90.0,13.0,0.0
6677,75.0,0.0,90.0,13.0,0.0
6678,80.0,0.0,90.0,2.0,0.0
6679,60.0,6.0,90.0,10.0,0.0
6680,66.0,0.0,90.0,0.0,0.0
6681,75.0,0.0,90.0,3.0,0.0
6682,48.0,0.0,30.0,13.0,0.0
6683,48.0,0.0,30.0,11.0,0.0
6684,56.0,0.0,30.0,1.0,0.0
6685,36.0,0.0,30.0,12.0,0.0
6686,75.0,0.0,90.0,8.0,0.0
6687,60.0,0.0,90.0,4.0,0.0
6688,48.0,42.0,30.0,5.0,0.0
6689,56.0,48.0,30.0,1.0,0.0
6690,32.0,0.0,30.0,12.0,0.0
6691,44.0,0.0,30.0,5.0,0.0
6692,44.0,0.0,30.0,13.0,0.0
6693,44.0,0.0,30.0,11.0,0.0
6694,61.0,0.0,90.0,1.0,0.0
6695,46.0,0.0,30.0,5.0,0.0
6696,65.0,0.0,30.0,10.0,0.0
6697,46.0,0.0,30.0,13.0,0.0
6698,70.0,6.0,90.0,3.0,0.0
6699,65.0,0.0,30.0,4.0,0.0
6700,70.0,0.0,90.0,8.0,0.0
6701,65.0,0.0,90.0,0.0,0.0
6702,73.0,0.0,90.0,13.0,0.0
6703,73.0,0.0,30.0,7.0,0.0
6704,65.0,0.0,90.0,13.0,0.0
6705,73.0,0.0,30.0,2.0,0.0
6706,46.0,42.0,30.0,11.0,0.0
6707,73.0,0.0,30.0,6.0,0.0
6708,34.0,0.0,30.0,12.0,0.0
6709,30.0,16.0,30.0,12.0,0.0
6710,66.0,0.0,30.0,10.0,0.0
6711,42.0,0.0,30.0,11.0,0.0
6712,75.0,0.0,30.0,2.0,0.0
6713,66.0,0.0,30.0,4.0,0.0
6714,42.0,0.0,30.0,5.0,0.0
6715,42.0,0.0,30.0,13.0,0.0
6716,75.0,0.0,30.0,6.0,0.0
6717,75.0,0.0,30.0,7.0,0.0
6718,72.0,0.0,90.0,13.0,0.0
6719,63.0,0.0,90.0,13.0,0.0
6720,70.0,12.0,15.0,3.0,0.0
6721,56.0,4.0,30.0,1.0,0.0
6722,44.0,0.0,90.0,13.0,0.0
6723,63.0,0.0,120.0,4.0,0.0
6724,72.0,0.0,120.0,2.0,0.0
6725,70.0,0.0,15.0,8.0,0.0
6726,66.0,0.0,30.0,0.0,0.0
6727,32.0,0.0,90.0,12.0,0.0
6728,44.0,0.0,90.0,11.0,0.0
6729,44.0,6.0,90.0,5.0,0.0
6730,72.0,6.0,120.0,7.0,0.0
6731,72.0,0.0,120.0,6.0,0.0
6732,63.0,0.0,15.0,10.0,0.0
6733,68.0,0.0,15.0,3.0,0.0
6734,68.0,0.0,15.0,8.0,0.0
6735,61.0,12.0,15.0,10.0,0.0
6736,70.0,0.0,15.0,3.0,0.0
6737,70.0,0.0,15.0,8.0,0.0
6738,63.0,8.0,15.0,10.0,0.0
6739,68.0,12.0,15.0,3.0,0.0
6740,68.0,0.0,15.0,8.0,0.0
6741,61.0,0.0,15.0,10.0,0.0
6742,70.0,0.0,15.0,3.0,0.0
6743,63.0,0.0,15.0,10.0,0.0
6744,70.0,12.0,15.0,8.0,0.0
6745,65.0,0.0,30.0,0.0,0.0
6746,56.0,4.0,30.0,1.0,0.0
6747,68.0,0.0,15.0,8.0,0.0
6748,61.0,0.0,15.0,10.0,0.0
6749,68.0,12.0,15.0,3.0,0.0
6750,63.0,0.0,15.0,10.0,0.0
6751,70.0,0.0,15.0,8.0,0.0
6752,70.0,2.0,15.0,3.0,0.0
6753,68.0,0.0,15.0,8.0,0.0
6754,61.0,0.0,15.0,10.0,0.0
6755,68.0,12.0,15.0,3.0,0.0
6756,56.0,4.0,30.0,1.0,0.0
6757,63.0,0.0,15.0,10.0,0.0
6758,20.0,0.0,90.0,12.0,0.0
6759,70.0,0.0,15.0,8.0,0.0
6760,32.0,0.0,90.0,13.0,0.0
6761,63.0,0.0,90.0,13.0,0.0
6762,60.0,0.0,90.0,13.0,0.0
6763,32.0,0.0,90.0,11.0,0.0
6764,63.0,0.0,30.0,0.0,0.0
6765,70.0,12.0,15.0,3.0,0.0
6766,32.0,6.0,90.0,5.0,0.0
6767,68.0,0.0,15.0,8.0,0.0
6768,61.0,12.0,15.0,10.0,0.0
6769,68.0,0.0,15.0,3.0,0.0
6770,70.0,0.0,15.0,3.0,0.0
6771,70.0,2.0,15.0,8.0,0.0
6772,63.0,0.0,15.0,10.0,0.0
6773,61.0,0.0,15.0,10.0,0.0
6774,68.0,0.0,15.0,3.0,0.0
6775,68.0,38.0,15.0,8.0,0.0
6776,73.0,0.0,30.0,2.0,0.0
6777,73.0,0.0,30.0,7.0,0.0
6778,65.0,0.0,30.0,10.0,0.0
6779,73.0,0.0,30.0,6.0,0.0
6780,68.0,48.0,30.0,3.0,0.0
6781,56.0,0.0,30.0,1.0,0.0
6782,65.0,0.0,30.0,0.0,0.0
6783,68.0,0.0,30.0,8.0,0.0
6784,65.0,0.0,30.0,4.0,0.0
6785,37.0,0.0,30.0,11.0,0.0
6786,25.0,0.0,30.0,12.0,0.0
6787,65.0,0.0,270.0,10.0,0.0
6788,68.0,0.0,270.0,3.0,0.0
6789,53.0,0.0,270.0,1.0,0.0
6790,73.0,6.0,270.0,2.0,0.0
6791,61.0,0.0,270.0,0.0,0.0
6792,73.0,0.0,270.0,7.0,0.0
6793,68.0,6.0,180.0,8.0,0.0
6794,37.0,0.0,30.0,5.0,0.0
6795,73.0,0.0,270.0,6.0,0.0
6796,65.0,0.0,270.0,4.0,0.0
6797,37.0,48.0,30.0,13.0,0.0
6798,65.0,0.0,270.0,13.0,0.0
6799,56.0,0.0,270.0,13.0,0.0
6800,27.0,0.0,30.0,12.0,0.0
6801,39.0,0.0,30.0,13.0,0.0
6802,39.0,48.0,30.0,11.0,0.0
6803,39.0,0.0,30.0,5.0,0.0
6804,41.0,0.0,30.0,13.0,0.0
6805,29.0,42.0,30.0,12.0,0.0
6806,41.0,0.0,30.0,5.0,0.0
6807,41.0,0.0,30.0,11.0,0.0
6808,42.0,0.0,30.0,13.0,0.0
6809,42.0,0.0,30.0,11.0,0.0
6810,30.0,48.0,30.0,12.0,0.0
6811,42.0,0.0,30.0,5.0,0.0
6812,44.0,0.0,30.0,11.0,0.0
6813,44.0,0.0,30.0,5.0,0.0
6814,44.0,42.0,30.0,13.0,0.0
6815,32.0,0.0,30.0,12.0,0.0
6816,46.0,0.0,30.0,11.0,0.0
6817,46.0,0.0,30.0,5.0,0.0
6818,34.0,90.0,30.0,12.0,0.0
6819,46.0,0.0,30.0,13.0,0.0
6820,56.0,0.0,90.0,0.0,0.0
6821,68.0,0.0,90.0,8.0,0.0
6822,75.0,0.0,90.0,6.0,0.0
6823,75.0,0.0,90.0,2.0,0.0
6824,63.0,0.0,90.0,13.0,0.0
6825,48.0,0.0,180.0,5.0,0.0
6826,48.0,0.0,180.0,13.0,0.0
6827,68.0,0.0,90.0,13.0,0.0
6828,63.0,0.0,180.0,4.0,0.0
6829,75.0,54.0,90.0,7.0,0.0
6830,63.0,0.0,180.0,10.0,0.0
6831,36.0,0.0,180.0,12.0,0.0
6832,48.0,0.0,180.0,11.0,0.0
6833,68.0,0.0,90.0,3.0,0.0
6834,56.0,42.0,30.0,0.0,0.0
6835,78.0,6.0,90.0,2.0,0.0
6836,75.0,0.0,90.0,8.0,0.0
6837,75.0,0.0,90.0,3.0,0.0
6838,78.0,0.0,90.0,6.0,0.0
6839,78.0,0.0,90.0,7.0,0.0
6840,66.0,0.0,90.0,13.0,0.0
6841,63.0,0.0,90.0,13.0,0.0
6842,56.0,48.0,30.0,0.0,0.0
6843,73.0,0.0,90.0,8.0,0.0
6844,49.0,0.0,90.0,5.0,0.0
6845,56.0,0.0,90.0,13.0,0.0
6846,56.0,42.0,30.0,0.0,0.0
6847,77.0,0.0,90.0,7.0,0.0
6848,49.0,0.0,90.0,11.0,0.0
6849,68.0,0.0,90.0,4.0,0.0
6850,37.0,0.0,90.0,12.0,0.0
6851,73.0,0.0,90.0,3.0,0.0
6852,49.0,0.0,90.0,13.0,0.0
6853,65.0,0.0,90.0,13.0,0.0
6854,77.0,0.0,90.0,2.0,0.0
6855,77.0,0.0,90.0,6.0,0.0
6856,68.0,6.0,90.0,10.0,0.0
6857,56.0,16.0,30.0,0.0,0.0
6858,60.0,0.0,90.0,13.0,0.0
6859,75.0,0.0,90.0,7.0,0.0
6860,72.0,0.0,90.0,8.0,0.0
6861,51.0,0.0,90.0,11.0,0.0
6862,56.0,10.0,90.0,1.0,0.0
6863,66.0,0.0,90.0,4.0,0.0
6864,75.0,0.0,90.0,2.0,0.0
6865,39.0,0.0,90.0,12.0,0.0
6866,51.0,0.0,90.0,5.0,0.0
6867,68.0,0.0,15.0,10.0,0.0
6868,77.0,12.0,15.0,6.0,0.0
6869,72.0,0.0,90.0,3.0,0.0
6870,56.0,0.0,90.0,0.0,0.0
6871,51.0,0.0,90.0,13.0,0.0
6872,66.0,0.0,90.0,13.0,0.0
6873,75.0,12.0,15.0,6.0,0.0
6874,66.0,0.0,15.0,10.0,0.0
6875,77.0,12.0,15.0,6.0,0.0
6876,68.0,0.0,15.0,10.0,0.0
6877,66.0,0.0,15.0,10.0,0.0
6878,75.0,12.0,15.0,6.0,0.0
6879,68.0,12.0,15.0,10.0,0.0
6880,77.0,0.0,15.0,6.0,0.0
6881,66.0,12.0,15.0,10.0,0.0
6882,75.0,0.0,15.0,6.0,0.0
6883,68.0,0.0,15.0,10.0,0.0
6884,77.0,2.0,15.0,6.0,0.0
6885,75.0,44.0,15.0,6.0,0.0
6886,66.0,0.0,15.0,10.0,0.0
6887,73.0,0.0,30.0,7.0,0.0
6888,73.0,0.0,30.0,6.0,0.0
6889,54.0,0.0,90.0,13.0,0.0
6890,73.0,42.0,30.0,2.0,0.0
6891,65.0,0.0,30.0,4.0,0.0
6892,65.0,0.0,30.0,10.0,0.0
6893,56.0,0.0,30.0,1.0,0.0
6894,42.0,0.0,90.0,12.0,0.0
6895,54.0,0.0,90.0,11.0,0.0
6896,68.0,0.0,90.0,13.0,0.0
6897,60.0,0.0,90.0,13.0,0.0
6898,68.0,6.0,90.0,3.0,0.0
6899,68.0,0.0,90.0,8.0,0.0
6900,54.0,0.0,90.0,5.0,0.0
6901,56.0,0.0,30.0,1.0,0.0
6902,63.0,48.0,30.0,10.0,0.0
6903,72.0,0.0,30.0,6.0,0.0
6904,72.0,0.0,30.0,7.0,0.0
6905,63.0,0.0,30.0,4.0,0.0
6906,72.0,0.0,30.0,2.0,0.0
6907,41.0,0.0,90.0,12.0,0.0
6908,73.0,0.0,90.0,7.0,0.0
6909,68.0,0.0,90.0,3.0,0.0
6910,65.0,0.0,90.0,4.0,0.0
6911,73.0,0.0,90.0,6.0,0.0
6912,53.0,0.0,90.0,5.0,0.0
6913,56.0,42.0,30.0,1.0,0.0
6914,68.0,0.0,90.0,8.0,0.0
6915,61.0,0.0,90.0,13.0,0.0
6916,65.0,0.0,90.0,10.0,0.0
6917,53.0,0.0,90.0,13.0,0.0
6918,53.0,0.0,90.0,11.0,0.0
6919,68.0,6.0,90.0,13.0,0.0
6920,73.0,0.0,90.0,2.0,0.0
6921,56.0,90.0,30.0,1.0,0.0
6922,75.0,0.0,90.0,6.0,0.0
6923,72.0,0.0,90.0,3.0,0.0
6924,75.0,0.0,90.0,7.0,0.0
6925,66.0,0.0,90.0,4.0,0.0
6926,75.0,0.0,90.0,2.0,0.0
6927,60.0,0.0,90.0,13.0,0.0
6928,66.0,0.0,90.0,13.0,0.0
6929,51.0,54.0,90.0,13.0,0.0
6930,51.0,0.0,90.0,11.0,0.0
6931,66.0,0.0,90.0,10.0,0.0
6932,56.0,0.0,90.0,0.0,0.0
6933,51.0,0.0,90.0,5.0,0.0
6934,56.0,0.0,90.0,1.0,0.0
6935,72.0,0.0,90.0,8.0,0.0
6936,39.0,0.0,90.0,12.0,0.0
6937,49.0,0.0,30.0,13.0,0.0
6938,63.0,0.0,90.0,4.0,0.0
6939,37.0,0.0,30.0,12.0,0.0
6940,75.0,0.0,90.0,3.0,0.0
6941,75.0,0.0,90.0,8.0,0.0
6942,78.0,0.0,90.0,6.0,0.0
6943,78.0,0.0,90.0,7.0,0.0
6944,56.0,0.0,30.0,0.0,0.0
6945,66.0,0.0,90.0,13.0,0.0
6946,63.0,0.0,90.0,10.0,0.0
6947,49.0,42.0,30.0,5.0,0.0
6948,58.0,0.0,90.0,13.0,0.0
6949,49.0,0.0,30.0,11.0,0.0
6950,78.0,6.0,90.0,2.0,0.0
6951,48.0,48.0,30.0,5.0,0.0
6952,56.0,0.0,30.0,0.0,0.0
6953,48.0,0.0,30.0,11.0,0.0
6954,36.0,0.0,30.0,12.0,0.0
6955,48.0,0.0,30.0,13.0,0.0
6956,65.0,0.0,90.0,13.0,0.0
6957,49.0,0.0,90.0,13.0,0.0
6958,68.0,0.0,90.0,4.0,0.0
6959,49.0,0.0,90.0,5.0,0.0
6960,77.0,6.0,90.0,6.0,0.0
6961,73.0,0.0,90.0,8.0,0.0
6962,73.0,0.0,90.0,3.0,0.0
6963,56.0,0.0,90.0,13.0,0.0
6964,77.0,0.0,90.0,7.0,0.0
6965,37.0,0.0,90.0,12.0,0.0
6966,77.0,0.0,90.0,2.0,0.0
6967,49.0,0.0,90.0,11.0,0.0
6968,68.0,0.0,90.0,10.0,0.0
6969,56.0,42.0,30.0,0.0,0.0
6970,56.0,16.0,30.0,0.0,0.0
6971,56.0,0.0,90.0,13.0,0.0
6972,75.0,0.0,90.0,3.0,0.0
6973,36.0,0.0,90.0,12.0,0.0
6974,77.0,0.0,15.0,2.0,0.0
6975,77.0,0.0,15.0,6.0,0.0
6976,48.0,0.0,90.0,11.0,0.0
6977,56.0,10.0,90.0,1.0,0.0
6978,77.0,12.0,15.0,7.0,0.0
6979,68.0,0.0,180.0,4.0,0.0
6980,75.0,0.0,90.0,8.0,0.0
6981,48.0,0.0,90.0,13.0,0.0
6982,68.0,0.0,180.0,10.0,0.0
6983,48.0,0.0,90.0,5.0,0.0
6984,63.0,0.0,90.0,13.0,0.0
6985,56.0,0.0,90.0,0.0,0.0
6986,75.0,12.0,15.0,2.0,0.0
6987,75.0,0.0,15.0,6.0,0.0
6988,75.0,0.0,15.0,7.0,0.0
6989,77.0,0.0,15.0,6.0,0.0
6990,77.0,12.0,15.0,7.0,0.0
6991,77.0,0.0,15.0,2.0,0.0
6992,75.0,0.0,15.0,2.0,0.0
6993,75.0,0.0,15.0,6.0,0.0
6994,75.0,12.0,15.0,7.0,0.0
6995,77.0,12.0,15.0,2.0,0.0
6996,77.0,0.0,15.0,6.0,0.0
6997,77.0,0.0,15.0,7.0,0.0
6998,75.0,0.0,15.0,6.0,0.0
6999,75.0,12.0,15.0,7.0,0.0
7000,75.0,0.0,15.0,2.0,0.0
7001,77.0,2.0,15.0,6.0,0.0
7002,77.0,0.0,15.0,7.0,0.0
7003,77.0,0.0,15.0,2.0,0.0
7004,75.0,0.0,15.0,2.0,0.0
7005,75.0,12.0,15.0,6.0,0.0
7006,75.0,0.0,15.0,7.0,0.0
7007,73.0,0.0,90.0,8.0,0.0
7008,77.0,0.0,15.0,6.0,0.0
7009,77.0,12.0,15.0,2.0,0.0
7010,56.0,0.0,30.0,1.0,0.0
7011,77.0,0.0,15.0,7.0,0.0
7012,49.0,0.0,30.0,11.0,0.0
7013,68.0,0.0,90.0,13.0,0.0
7014,61.0,6.0,90.0,13.0,0.0
7015,49.0,0.0,30.0,13.0,0.0
7016,37.0,4.0,30.0,12.0,0.0
7017,73.0,0.0,90.0,3.0,0.0
7018,49.0,0.0,30.0,5.0,0.0
7019,75.0,12.0,15.0,2.0,0.0
7020,75.0,0.0,15.0,7.0,0.0
7021,75.0,0.0,15.0,6.0,0.0
7022,77.0,0.0,15.0,7.0,0.0
7023,77.0,0.0,15.0,2.0,0.0
7024,77.0,8.0,15.0,6.0,0.0
7025,75.0,0.0,15.0,7.0,0.0
7026,75.0,0.0,15.0,2.0,0.0
7027,75.0,12.0,15.0,6.0,0.0
7028,48.0,0.0,30.0,13.0,0.0
7029,56.0,0.0,30.0,1.0,0.0
7030,77.0,0.0,15.0,7.0,0.0
7031,36.0,0.0,30.0,12.0,0.0
7032,77.0,12.0,15.0,2.0,0.0
7033,77.0,0.0,15.0,6.0,0.0
7034,48.0,4.0,30.0,5.0,0.0
7035,48.0,0.0,30.0,11.0,0.0
7036,75.0,12.0,15.0,6.0,0.0
7037,75.0,0.0,15.0,7.0,0.0
7038,75.0,0.0,15.0,2.0,0.0
7039,77.0,2.0,15.0,6.0,0.0
7040,77.0,0.0,15.0,2.0,0.0
7041,77.0,0.0,15.0,7.0,0.0
7042,75.0,0.0,15.0,2.0,0.0
7043,75.0,0.0,15.0,6.0,0.0
7044,75.0,44.0,15.0,7.0,0.0
7045,80.0,0.0,90.0,6.0,0.0
7046,63.0,0.0,90.0,4.0,0.0
7047,80.0,0.0,90.0,7.0,0.0
7048,46.0,0.0,30.0,11.0,0.0
7049,56.0,0.0,30.0,1.0,0.0
7050,72.0,0.0,90.0,3.0,0.0
7051,72.0,0.0,90.0,8.0,0.0
7052,80.0,6.0,90.0,2.0,0.0
7053,63.0,0.0,90.0,13.0,0.0
7054,72.0,0.0,90.0,13.0,0.0
7055,46.0,0.0,30.0,13.0,0.0
7056,46.0,42.0,30.0,5.0,0.0
7057,63.0,0.0,90.0,10.0,0.0
7058,34.0,0.0,30.0,12.0,0.0
7059,32.0,16.0,30.0,12.0,0.0
7060,56.0,0.0,30.0,1.0,0.0
7061,44.0,0.0,30.0,13.0,0.0
7062,44.0,0.0,30.0,11.0,0.0
7063,44.0,0.0,30.0,5.0,0.0
7064,63.0,0.0,180.0,4.0,0.0
7065,63.0,0.0,90.0,1.0,0.0
7066,63.0,0.0,90.0,13.0,0.0
7067,44.0,0.0,15.0,11.0,0.0
7068,44.0,0.0,15.0,13.0,0.0
7069,70.0,0.0,180.0,3.0,0.0
7070,63.0,0.0,180.0,10.0,0.0
7071,70.0,0.0,90.0,13.0,0.0
7072,70.0,0.0,180.0,8.0,0.0
7073,44.0,1.0,20.0,5.0,0.0
7074,73.0,0.0,90.0,7.0,0.0
7075,63.0,9.0,90.0,0.0,0.0
7076,73.0,0.0,90.0,6.0,0.0
7077,32.0,11.0,15.0,12.0,0.0
7078,73.0,0.0,90.0,2.0,0.0
7079,43.0,0.0,15.0,13.0,0.0
7080,43.0,0.0,15.0,11.0,0.0
7081,31.0,12.0,15.0,12.0,0.0
7082,32.0,0.0,15.0,12.0,0.0
7083,44.0,0.0,15.0,13.0,0.0
7084,44.0,11.0,15.0,11.0,0.0
7085,43.0,1.0,20.0,5.0,0.0
7086,43.0,0.0,15.0,11.0,0.0
7087,31.0,0.0,15.0,12.0,0.0
7088,43.0,12.0,15.0,13.0,0.0
7089,44.0,0.0,15.0,11.0,0.0
7090,32.0,0.0,15.0,12.0,0.0
7091,44.0,1.0,20.0,5.0,0.0
7092,44.0,11.0,15.0,13.0,0.0
7093,43.0,0.0,15.0,13.0,0.0
7094,31.0,0.0,15.0,12.0,0.0
7095,43.0,12.0,15.0,11.0,0.0
7096,32.0,2.0,15.0,12.0,0.0
7097,43.0,1.0,20.0,5.0,0.0
7098,44.0,0.0,15.0,11.0,0.0
7099,44.0,0.0,15.0,13.0,0.0
7100,43.0,12.0,15.0,11.0,0.0
7101,31.0,0.0,15.0,12.0,0.0
7102,43.0,0.0,15.0,13.0,0.0
7103,58.0,6.0,90.0,13.0,0.0
7104,70.0,0.0,90.0,7.0,0.0
7105,44.0,0.0,15.0,13.0,0.0
7106,63.0,3.0,30.0,0.0,0.0
7107,70.0,0.0,90.0,2.0,0.0
7108,70.0,0.0,90.0,6.0,0.0
7109,44.0,0.0,15.0,11.0,0.0
7110,44.0,1.0,20.0,5.0,0.0
7111,32.0,11.0,15.0,12.0,0.0
7112,67.0,0.0,90.0,13.0,0.0
7113,43.0,0.0,15.0,13.0,0.0
7114,31.0,0.0,15.0,12.0,0.0
7115,43.0,12.0,15.0,11.0,0.0
7116,44.0,0.0,15.0,13.0,0.0
7117,32.0,8.0,15.0,12.0,0.0
7118,44.0,0.0,15.0,11.0,0.0
7119,43.0,1.0,20.0,5.0,0.0
7120,43.0,0.0,15.0,11.0,0.0
7121,31.0,12.0,15.0,12.0,0.0
7122,43.0,0.0,15.0,13.0,0.0
7123,44.0,11.0,15.0,13.0,0.0
7124,44.0,1.0,20.0,5.0,0.0
7125,32.0,0.0,15.0,12.0,0.0
7126,63.0,3.0,30.0,0.0,0.0
7127,44.0,0.0,15.0,11.0,0.0
7128,43.0,0.0,15.0,11.0,0.0
7129,31.0,12.0,15.0,12.0,0.0
7130,43.0,0.0,15.0,13.0,0.0
7131,44.0,0.0,15.0,11.0,0.0
7132,44.0,0.0,15.0,13.0,0.0
7133,43.0,1.0,20.0,5.0,0.0
7134,32.0,2.0,15.0,12.0,0.0
7135,43.0,0.0,15.0,13.0,0.0
7136,31.0,44.0,15.0,12.0,0.0
7137,43.0,0.0,15.0,11.0,0.0
7138,72.0,0.0,90.0,2.0,0.0
7139,63.0,42.0,30.0,0.0,0.0
7140,44.0,0.0,90.0,11.0,0.0
7141,44.0,0.0,90.0,13.0,0.0
7142,63.0,0.0,90.0,13.0,0.0
7143,72.0,0.0,90.0,7.0,0.0
7144,68.0,0.0,90.0,3.0,0.0
7145,63.0,0.0,90.0,4.0,0.0
7146,68.0,0.0,90.0,8.0,0.0
7147,72.0,0.0,90.0,13.0,0.0
7148,44.0,0.0,90.0,5.0,0.0
7149,32.0,6.0,90.0,12.0,0.0
7150,72.0,0.0,90.0,6.0,0.0
7151,63.0,0.0,90.0,10.0,0.0
7152,63.0,48.0,30.0,0.0,0.0
7153,34.0,0.0,90.0,12.0,0.0
7154,46.0,0.0,90.0,11.0,0.0
7155,73.0,0.0,90.0,2.0,0.0
7156,67.0,0.0,90.0,13.0,0.0
7157,63.0,0.0,90.0,1.0,0.0
7158,46.0,0.0,90.0,13.0,0.0
7159,73.0,0.0,90.0,13.0,0.0
7160,58.0,0.0,90.0,4.0,0.0
7161,46.0,0.0,90.0,5.0,0.0
7162,67.0,0.0,30.0,8.0,0.0
7163,73.0,0.0,90.0,6.0,0.0
7164,67.0,42.0,30.0,3.0,0.0
7165,73.0,6.0,90.0,7.0,0.0
7166,63.0,0.0,90.0,0.0,0.0
7167,58.0,0.0,90.0,10.0,0.0
7168,68.0,0.0,30.0,3.0,0.0
7169,68.0,16.0,30.0,8.0,0.0
7170,44.0,0.0,30.0,13.0,0.0
7171,44.0,0.0,30.0,5.0,0.0
7172,72.0,0.0,90.0,13.0,0.0
7173,65.0,6.0,90.0,13.0,0.0
7174,70.0,12.0,15.0,8.0,0.0
7175,60.0,0.0,90.0,4.0,0.0
7176,60.0,0.0,90.0,10.0,0.0
7177,32.0,0.0,30.0,12.0,0.0
7178,77.0,0.0,180.0,2.0,0.0
7179,44.0,0.0,30.0,11.0,0.0
7180,77.0,0.0,180.0,6.0,0.0
7181,77.0,0.0,180.0,7.0,0.0
7182,70.0,0.0,15.0,3.0,0.0
7183,63.0,4.0,30.0,1.0,0.0
7184,68.0,0.0,15.0,3.0,0.0
7185,68.0,12.0,15.0,8.0,0.0
7186,70.0,0.0,15.0,3.0,0.0
7187,70.0,8.0,15.0,8.0,0.0
7188,68.0,0.0,15.0,8.0,0.0
7189,68.0,12.0,15.0,3.0,0.0
7190,63.0,0.0,30.0,1.0,0.0
7191,43.0,0.0,30.0,11.0,0.0
7192,43.0,0.0,30.0,5.0,0.0
7193,43.0,4.0,30.0,13.0,0.0
7194,31.0,0.0,30.0,12.0,0.0
7195,70.0,12.0,15.0,8.0,0.0
7196,70.0,0.0,15.0,3.0,0.0
7197,68.0,0.0,15.0,3.0,0.0
7198,68.0,12.0,15.0,8.0,0.0
7199,70.0,0.0,15.0,3.0,0.0
7200,70.0,2.0,15.0,8.0,0.0
7201,68.0,12.0,15.0,3.0,0.0
7202,68.0,0.0,15.0,8.0,0.0
7203,70.0,0.0,15.0,3.0,0.0
7204,32.0,0.0,90.0,12.0,0.0
7205,70.0,12.0,15.0,8.0,0.0
7206,56.0,0.0,90.0,10.0,0.0
7207,44.0,0.0,90.0,11.0,0.0
7208,56.0,0.0,90.0,4.0,0.0
7209,44.0,0.0,90.0,13.0,0.0
7210,65.0,0.0,90.0,13.0,0.0
7211,44.0,0.0,90.0,5.0,0.0
7212,63.0,4.0,30.0,1.0,0.0
7213,68.0,6.0,90.0,13.0,0.0
7214,68.0,0.0,15.0,3.0,0.0
7215,68.0,12.0,15.0,8.0,0.0
7216,70.0,0.0,15.0,3.0,0.0
7217,70.0,8.0,15.0,8.0,0.0
7218,68.0,0.0,15.0,8.0,0.0
7219,68.0,23.0,15.0,3.0,0.0
7220,67.0,15.0,20.0,8.0,0.0
7221,67.0,0.0,20.0,3.0,0.0
7222,63.0,3.0,30.0,1.0,0.0
7223,68.0,87.0,20.0,3.0,0.0
7224,68.0,0.0,20.0,8.0,0.0
7225,70.0,0.0,90.0,3.0,0.0
7226,43.0,0.0,90.0,11.0,0.0
7227,63.0,0.0,90.0,13.0,0.0
7228,70.0,0.0,90.0,13.0,0.0
7229,43.0,0.0,90.0,13.0,0.0
7230,63.0,0.0,90.0,1.0,0.0
7231,63.0,0.0,180.0,4.0,0.0
7232,63.0,0.0,180.0,10.0,0.0
7233,63.0,0.0,90.0,0.0,0.0
7234,31.0,0.0,90.0,12.0,0.0
7235,73.0,0.0,90.0,2.0,0.0
7236,73.0,0.0,90.0,6.0,0.0
7237,43.0,0.0,90.0,5.0,0.0
7238,70.0,0.0,90.0,8.0,0.0
7239,73.0,54.0,90.0,7.0,0.0
7240,72.0,0.0,30.0,7.0,0.0
7241,32.0,42.0,30.0,12.0,0.0
7242,68.0,0.0,90.0,3.0,0.0
7243,63.0,0.0,30.0,0.0,0.0
7244,44.0,0.0,30.0,13.0,0.0
7245,63.0,0.0,90.0,13.0,0.0
7246,68.0,0.0,90.0,8.0,0.0
7247,72.0,0.0,30.0,2.0,0.0
7248,72.0,0.0,30.0,6.0,0.0
7249,44.0,0.0,30.0,5.0,0.0
7250,72.0,6.0,90.0,13.0,0.0
7251,44.0,0.0,30.0,11.0,0.0
7252,43.0,0.0,30.0,5.0,0.0
7253,63.0,0.0,30.0,0.0,0.0
7254,70.0,0.0,30.0,7.0,0.0
7255,43.0,48.0,30.0,11.0,0.0
7256,31.0,0.0,30.0,12.0,0.0
7257,70.0,0.0,30.0,2.0,0.0
7258,43.0,0.0,30.0,13.0,0.0
7259,70.0,0.0,30.0,6.0,0.0
7260,63.0,0.0,90.0,4.0,0.0
7261,41.0,42.0,30.0,5.0,0.0
7262,75.0,0.0,90.0,2.0,0.0
7263,58.0,0.0,90.0,13.0,0.0
7264,41.0,0.0,30.0,13.0,0.0
7265,67.0,0.0,90.0,13.0,0.0
7266,63.0,6.0,90.0,10.0,0.0
7267,67.0,0.0,90.0,3.0,0.0
7268,67.0,0.0,90.0,8.0,0.0
7269,63.0,0.0,30.0,0.0,0.0
7270,29.0,0.0,30.0,12.0,0.0
7271,41.0,0.0,30.0,11.0,0.0
7272,75.0,0.0,90.0,7.0,0.0
7273,75.0,0.0,90.0,6.0,0.0
7274,63.0,0.0,30.0,0.0,0.0
7275,39.0,0.0,30.0,11.0,0.0
7276,27.0,0.0,30.0,12.0,0.0
7277,39.0,0.0,30.0,5.0,0.0
7278,39.0,90.0,30.0,13.0,0.0
7279,44.0,0.0,90.0,11.0,0.0
7280,72.0,0.0,120.0,2.0,0.0
7281,68.0,0.0,270.0,3.0,0.0
7282,72.0,6.0,120.0,6.0,0.0
7283,63.0,48.0,90.0,1.0,0.0
7284,63.0,0.0,90.0,13.0,0.0
7285,72.0,0.0,120.0,7.0,0.0
7286,72.0,0.0,90.0,13.0,0.0
7287,44.0,0.0,90.0,13.0,0.0
7288,63.0,0.0,270.0,10.0,0.0
7289,32.0,0.0,90.0,12.0,0.0
7290,68.0,0.0,270.0,8.0,0.0
7291,63.0,0.0,90.0,0.0,0.0
7292,44.0,0.0,90.0,5.0,0.0
7293,63.0,6.0,270.0,4.0,0.0
7294,63.0,0.0,30.0,1.0,0.0
7295,61.0,0.0,90.0,13.0,0.0
7296,70.0,6.0,90.0,13.0,0.0
7297,42.0,42.0,30.0,13.0,0.0
7298,42.0,0.0,30.0,5.0,0.0
7299,30.0,0.0,30.0,12.0,0.0
7300,42.0,0.0,30.0,11.0,0.0
7301,73.0,0.0,30.0,6.0,0.0
7302,73.0,0.0,30.0,7.0,0.0
7303,73.0,0.0,30.0,2.0,0.0
7304,41.0,0.0,30.0,13.0,0.0
7305,29.0,0.0,30.0,12.0,0.0
7306,41.0,0.0,30.0,11.0,0.0
7307,41.0,0.0,30.0,5.0,0.0
7308,63.0,16.0,30.0,1.0,0.0
7309,75.0,0.0,15.0,2.0,0.0
7310,39.0,0.0,30.0,5.0,0.0
7311,27.0,0.0,30.0,12.0,0.0
7312,61.0,0.0,90.0,13.0,0.0
7313,70.0,0.0,90.0,13.0,0.0
7314,39.0,4.0,30.0,13.0,0.0
7315,39.0,0.0,30.0,11.0,0.0
7316,75.0,0.0,15.0,7.0,0.0
7317,63.0,0.0,30.0,1.0,0.0
7318,75.0,12.0,15.0,6.0,0.0
7319,73.0,12.0,15.0,2.0,0.0
7320,73.0,0.0,15.0,6.0,0.0
7321,73.0,0.0,15.0,7.0,0.0
7322,75.0,0.0,15.0,6.0,0.0
7323,75.0,0.0,15.0,7.0,0.0
7324,75.0,8.0,15.0,2.0,0.0
7325,73.0,0.0,15.0,2.0,0.0
7326,73.0,12.0,15.0,7.0,0.0
7327,73.0,0.0,15.0,6.0,0.0
7328,63.0,0.0,30.0,1.0,0.0
7329,75.0,12.0,15.0,2.0,0.0
7330,25.0,0.0,30.0,12.0,0.0
7331,37.0,4.0,30.0,13.0,0.0
7332,37.0,0.0,30.0,5.0,0.0
7333,37.0,0.0,30.0,11.0,0.0
7334,75.0,0.0,15.0,6.0,0.0
7335,75.0,0.0,15.0,7.0,0.0
7336,73.0,0.0,15.0,7.0,0.0
7337,73.0,0.0,15.0,6.0,0.0
7338,73.0,12.0,15.0,2.0,0.0
7339,72.0,0.0,15.0,7.0,0.0
7340,72.0,0.0,15.0,2.0,0.0
7341,72.0,2.0,15.0,6.0,0.0
7342,73.0,44.0,15.0,6.0,0.0
7343,73.0,0.0,15.0,7.0,0.0
7344,73.0,0.0,15.0,2.0,0.0
7345,68.0,0.0,180.0,3.0,0.0
7346,63.0,0.0,90.0,13.0,0.0
7347,36.0,0.0,90.0,5.0,0.0
7348,36.0,0.0,90.0,11.0,0.0
7349,68.0,0.0,180.0,8.0,0.0
7350,75.0,42.0,30.0,6.0,0.0
7351,75.0,0.0,30.0,7.0,0.0
7352,36.0,0.0,90.0,13.0,0.0
7353,68.0,0.0,90.0,0.0,0.0
7354,63.0,0.0,90.0,1.0,0.0
7355,63.0,0.0,30.0,10.0,0.0
7356,24.0,0.0,90.0,12.0,0.0
7357,68.0,0.0,90.0,13.0,0.0
7358,75.0,0.0,30.0,2.0,0.0
7359,63.0,6.0,90.0,4.0,0.0
7360,77.0,0.0,30.0,2.0,0.0
7361,77.0,0.0,30.0,7.0,0.0
7362,61.0,16.0,30.0,10.0,0.0
7363,77.0,0.0,30.0,6.0,0.0
7364,63.0,0.0,15.0,4.0,0.0
7365,37.0,0.0,30.0,5.0,0.0
7366,68.0,4.0,30.0,0.0,0.0
7367,25.0,0.0,30.0,12.0,0.0
7368,78.0,0.0,15.0,2.0,0.0
7369,37.0,0.0,30.0,11.0,0.0
7370,56.0,6.0,90.0,13.0,0.0
7371,65.0,0.0,90.0,13.0,0.0
7372,37.0,0.0,30.0,13.0,0.0
7373,63.0,12.0,15.0,10.0,0.0
7374,78.0,0.0,15.0,6.0,0.0
7375,78.0,0.0,15.0,7.0,0.0
7376,77.0,0.0,15.0,2.0,0.0
7377,61.0,0.0,15.0,10.0,0.0
7378,77.0,12.0,15.0,7.0,0.0
7379,61.0,0.0,15.0,4.0,0.0
7380,77.0,0.0,15.0,6.0,0.0
7381,63.0,0.0,15.0,4.0,0.0
7382,78.0,0.0,15.0,7.0,0.0
7383,78.0,8.0,15.0,6.0,0.0
7384,78.0,0.0,15.0,2.0,0.0
7385,63.0,0.0,15.0,10.0,0.0
7386,61.0,0.0,15.0,4.0,0.0
7387,77.0,0.0,15.0,6.0,0.0
7388,77.0,12.0,15.0,7.0,0.0
7389,61.0,0.0,15.0,10.0,0.0
7390,77.0,0.0,15.0,2.0,0.0
7391,63.0,0.0,15.0,4.0,0.0
7392,36.0,4.0,30.0,11.0,0.0
7393,63.0,12.0,15.0,10.0,0.0
7394,78.0,0.0,15.0,7.0,0.0
7395,68.0,0.0,30.0,0.0,0.0
7396,24.0,0.0,30.0,12.0,0.0
7397,36.0,0.0,30.0,13.0,0.0
7398,78.0,0.0,15.0,6.0,0.0
7399,78.0,0.0,15.0,2.0,0.0
7400,36.0,0.0,30.0,5.0,0.0
7401,61.0,0.0,15.0,4.0,0.0
7402,61.0,0.0,15.0,10.0,0.0
7403,77.0,12.0,15.0,7.0,0.0
7404,77.0,0.0,15.0,2.0,0.0
7405,77.0,0.0,15.0,6.0,0.0
7406,78.0,0.0,15.0,7.0,0.0
7407,63.0,0.0,15.0,4.0,0.0
7408,78.0,0.0,15.0,2.0,0.0
7409,78.0,2.0,15.0,6.0,0.0
7410,63.0,0.0,15.0,10.0,0.0
7411,61.0,0.0,15.0,4.0,0.0
7412,77.0,0.0,15.0,2.0,0.0
7413,61.0,0.0,15.0,10.0,0.0
7414,77.0,0.0,15.0,7.0,0.0
7415,77.0,12.0,15.0,6.0,0.0
7416,73.0,0.0,90.0,3.0,0.0
7417,68.0,0.0,30.0,0.0,0.0
7418,63.0,0.0,15.0,4.0,0.0
7419,34.0,4.0,30.0,13.0,0.0
7420,73.0,6.0,90.0,13.0,0.0
7421,65.0,0.0,90.0,13.0,0.0
7422,34.0,0.0,30.0,11.0,0.0
7423,63.0,0.0,15.0,10.0,0.0
7424,34.0,0.0,30.0,5.0,0.0
7425,78.0,12.0,15.0,7.0,0.0
7426,22.0,0.0,30.0,12.0,0.0
7427,73.0,0.0,90.0,8.0,0.0
7428,78.0,0.0,15.0,2.0,0.0
7429,78.0,0.0,15.0,6.0,0.0
7430,61.0,0.0,15.0,4.0,0.0
7431,61.0,0.0,15.0,10.0,0.0
7432,77.0,0.0,15.0,7.0,0.0
7433,77.0,12.0,15.0,6.0,0.0
7434,77.0,0.0,15.0,2.0,0.0
7435,63.0,0.0,15.0,10.0,0.0
7436,78.0,0.0,15.0,6.0,0.0
7437,63.0,0.0,15.0,4.0,0.0
7438,78.0,8.0,15.0,7.0,0.0
7439,78.0,0.0,15.0,2.0,0.0
7440,77.0,23.0,15.0,2.0,0.0
7441,61.0,0.0,15.0,4.0,0.0
7442,77.0,0.0,15.0,6.0,0.0
7443,61.0,0.0,15.0,10.0,0.0
7444,77.0,0.0,15.0,7.0,0.0
7445,75.0,0.0,20.0,2.0,0.0
7446,24.0,0.0,30.0,12.0,0.0
7447,36.0,0.0,30.0,11.0,0.0
7448,75.0,15.0,20.0,6.0,0.0
7449,68.0,3.0,30.0,0.0,0.0
7450,36.0,0.0,30.0,5.0,0.0
7451,60.0,0.0,20.0,10.0,0.0
7452,75.0,0.0,20.0,7.0,0.0
7453,60.0,0.0,20.0,4.0,0.0
7454,36.0,0.0,30.0,13.0,0.0
7455,77.0,0.0,20.0,7.0,0.0
7456,77.0,0.0,20.0,2.0,0.0
7457,61.0,0.0,20.0,10.0,0.0
7458,61.0,0.0,20.0,4.0,0.0
7459,77.0,87.0,20.0,6.0,0.0
7460,78.0,0.0,90.0,6.0,0.0
7461,20.0,0.0,90.0,12.0,0.0
7462,72.0,0.0,90.0,8.0,0.0
7463,63.0,0.0,90.0,13.0,0.0
7464,32.0,0.0,90.0,11.0,0.0
7465,63.0,0.0,90.0,1.0,0.0
7466,63.0,22.0,90.0,10.0,0.0
7467,78.0,0.0,90.0,7.0,0.0
7468,63.0,0.0,90.0,4.0,0.0
7469,32.0,0.0,90.0,13.0,0.0
7470,78.0,0.0,90.0,2.0,0.0
7471,32.0,0.0,90.0,5.0,0.0
7472,72.0,0.0,90.0,3.0,0.0
7473,68.0,0.0,180.0,0.0,0.0
7474,72.0,0.0,90.0,13.0,0.0
7475,73.0,0.0,90.0,8.0,0.0
7476,77.0,0.0,30.0,6.0,0.0
7477,68.0,0.0,90.0,10.0,0.0
7478,77.0,0.0,30.0,7.0,0.0
7479,73.0,0.0,90.0,13.0,0.0
7480,65.0,6.0,90.0,13.0,0.0
7481,44.0,0.0,30.0,13.0,0.0
7482,44.0,4.0,30.0,5.0,0.0
7483,68.0,0.0,90.0,4.0,0.0
7484,44.0,0.0,30.0,11.0,0.0
7485,56.0,0.0,30.0,1.0,0.0
7486,32.0,0.0,30.0,12.0,0.0
7487,75.0,12.0,15.0,3.0,0.0
7488,77.0,0.0,30.0,2.0,0.0
7489,73.0,12.0,15.0,3.0,0.0
7490,75.0,8.0,15.0,3.0,0.0
7491,73.0,12.0,15.0,3.0,0.0
7492,46.0,0.0,30.0,11.0,0.0
7493,56.0,0.0,30.0,1.0,0.0
7494,34.0,0.0,30.0,12.0,0.0
7495,46.0,0.0,30.0,5.0,0.0
7496,75.0,0.0,30.0,2.0,0.0
7497,75.0,12.0,15.0,3.0,0.0
7498,75.0,0.0,30.0,7.0,0.0
7499,46.0,4.0,30.0,13.0,0.0
7500,75.0,0.0,30.0,6.0,0.0
7501,73.0,12.0,15.0,3.0,0.0
7502,75.0,2.0,15.0,3.0,0.0
7503,73.0,44.0,15.0,3.0,0.0
7504,68.0,0.0,90.0,13.0,0.0
7505,66.0,0.0,90.0,0.0,0.0
7506,48.0,0.0,30.0,5.0,0.0
7507,60.0,0.0,90.0,4.0,0.0
7508,80.0,0.0,90.0,7.0,0.0
7509,80.0,0.0,90.0,6.0,0.0
7510,75.0,0.0,90.0,8.0,0.0
7511,75.0,6.0,90.0,13.0,0.0
7512,48.0,0.0,30.0,13.0,0.0
7513,60.0,0.0,90.0,10.0,0.0
7514,80.0,0.0,90.0,2.0,0.0
7515,48.0,0.0,30.0,11.0,0.0
7516,75.0,0.0,90.0,3.0,0.0
7517,36.0,42.0,30.0,12.0,0.0
7518,56.0,0.0,30.0,1.0,0.0
7519,44.0,0.0,30.0,11.0,0.0
7520,56.0,0.0,30.0,1.0,0.0
7521,44.0,0.0,30.0,13.0,0.0
7522,44.0,48.0,30.0,5.0,0.0
7523,32.0,0.0,30.0,12.0,0.0
7524,65.0,0.0,90.0,13.0,0.0
7525,46.0,0.0,30.0,13.0,0.0
7526,46.0,0.0,30.0,5.0,0.0
7527,46.0,0.0,30.0,11.0,0.0
7528,34.0,0.0,30.0,12.0,0.0
7529,65.0,0.0,30.0,4.0,0.0
7530,65.0,0.0,30.0,10.0,0.0
7531,73.0,0.0,30.0,7.0,0.0
7532,73.0,42.0,30.0,6.0,0.0
7533,70.0,6.0,90.0,3.0,0.0
7534,70.0,0.0,90.0,8.0,0.0
7535,65.0,0.0,90.0,0.0,0.0
7536,73.0,0.0,90.0,13.0,0.0
7537,61.0,0.0,90.0,1.0,0.0
7538,73.0,0.0,30.0,2.0,0.0
7539,75.0,0.0,30.0,2.0,0.0
7540,75.0,0.0,30.0,7.0,0.0
7541,66.0,0.0,30.0,10.0,0.0
7542,42.0,0.0,30.0,11.0,0.0
7543,30.0,0.0,30.0,12.0,0.0
7544,75.0,16.0,30.0,6.0,0.0
7545,42.0,0.0,30.0,13.0,0.0
7546,66.0,0.0,30.0,4.0,0.0
7547,42.0,0.0,30.0,5.0,0.0
7548,44.0,0.0,90.0,13.0,0.0
7549,63.0,0.0,15.0,10.0,0.0
7550,44.0,0.0,90.0,5.0,0.0
7551,56.0,0.0,30.0,1.0,0.0
7552,72.0,0.0,120.0,7.0,0.0
7553,44.0,0.0,90.0,11.0,0.0
7554,66.0,4.0,30.0,0.0,0.0
7555,72.0,0.0,120.0,2.0,0.0
7556,32.0,6.0,90.0,12.0,0.0
7557,63.0,0.0,90.0,13.0,0.0
7558,70.0,12.0,15.0,8.0,0.0
7559,70.0,0.0,15.0,3.0,0.0
7560,63.0,6.0,120.0,4.0,0.0
7561,72.0,0.0,120.0,6.0,0.0
7562,72.0,0.0,90.0,13.0,0.0
7563,61.0,0.0,15.0,10.0,0.0
7564,68.0,0.0,15.0,8.0,0.0
7565,68.0,12.0,15.0,3.0,0.0
7566,63.0,8.0,15.0,10.0,0.0
7567,70.0,0.0,15.0,3.0,0.0
7568,70.0,0.0,15.0,8.0,0.0
7569,68.0,0.0,15.0,8.0,0.0
7570,68.0,12.0,15.0,3.0,0.0
7571,61.0,0.0,15.0,10.0,0.0
7572,70.0,12.0,15.0,8.0,0.0
7573,63.0,0.0,15.0,10.0,0.0
7574,70.0,0.0,15.0,3.0,0.0
7575,65.0,0.0,30.0,0.0,0.0
7576,56.0,4.0,30.0,1.0,0.0
7577,68.0,0.0,15.0,8.0,0.0
7578,61.0,0.0,15.0,10.0,0.0
7579,68.0,12.0,15.0,3.0,0.0
7580,70.0,2.0,15.0,8.0,0.0
7581,70.0,0.0,15.0,3.0,0.0
7582,63.0,0.0,15.0,10.0,0.0
7583,68.0,0.0,15.0,3.0,0.0
7584,68.0,0.0,15.0,8.0,0.0
7585,61.0,12.0,15.0,10.0,0.0
7586,63.0,0.0,15.0,10.0,0.0
7587,70.0,12.0,15.0,8.0,0.0
7588,20.0,0.0,90.0,12.0,0.0
7589,60.0,0.0,90.0,13.0,0.0
7590,56.0,0.0,30.0,1.0,0.0
7591,63.0,4.0,30.0,0.0,0.0
7592,32.0,6.0,90.0,11.0,0.0
7593,63.0,0.0,90.0,13.0,0.0
7594,32.0,0.0,90.0,5.0,0.0
7595,70.0,0.0,15.0,3.0,0.0
7596,32.0,0.0,90.0,13.0,0.0
7597,68.0,12.0,15.0,3.0,0.0
7598,61.0,0.0,15.0,10.0,0.0
7599,68.0,0.0,15.0,8.0,0.0
7600,70.0,2.0,15.0,8.0,0.0
7601,63.0,0.0,15.0,10.0,0.0
7602,70.0,0.0,15.0,3.0,0.0
7603,68.0,0.0,15.0,3.0,0.0
7604,61.0,0.0,15.0,10.0,0.0
7605,68.0,38.0,15.0,8.0,0.0
7606,65.0,0.0,30.0,10.0,0.0
7607,65.0,0.0,30.0,0.0,0.0
7608,56.0,0.0,30.0,1.0,0.0
7609,68.0,0.0,30.0,8.0,0.0
7610,65.0,0.0,30.0,4.0,0.0
7611,73.0,0.0,30.0,7.0,0.0
7612,73.0,0.0,30.0,2.0,0.0
7613,73.0,0.0,30.0,6.0,0.0
7614,68.0,186.0,30.0,3.0,0.0
7615,68.0,0.0,270.0,3.0,0.0
7616,73.0,0.0,270.0,2.0,0.0
7617,73.0,0.0,270.0,7.0,0.0
7618,37.0,0.0,270.0,13.0,0.0
7619,65.0,0.0,270.0,13.0,0.0
7620,68.0,96.0,180.0,8.0,0.0
7621,65.0,0.0,270.0,4.0,0.0
7622,73.0,0.0,270.0,6.0,0.0
7623,65.0,0.0,270.0,10.0,0.0
7624,56.0,0.0,270.0,13.0,0.0
7625,53.0,0.0,270.0,1.0,0.0
7626,61.0,0.0,270.0,0.0,0.0
7627,25.0,0.0,270.0,12.0,0.0
7628,37.0,0.0,270.0,11.0,0.0
7629,37.0,0.0,270.0,5.0,0.0
