,note,step,duration,channel,velocity
0,59.0,192.0,180.0,0.0,64.0
1,54.0,192.0,180.0,0.0,64.0
2,50.0,192.0,180.0,0.0,64.0
3,54.0,192.0,180.0,0.0,64.0
4,47.0,192.0,180.0,0.0,64.0
5,61.0,192.0,180.0,0.0,64.0
6,62.0,192.0,180.0,0.0,64.0
7,64.0,192.0,180.0,0.0,64.0
8,62.0,192.0,180.0,0.0,64.0
9,59.0,192.0,180.0,0.0,64.0
10,54.0,192.0,180.0,0.0,64.0
11,59.0,192.0,180.0,0.0,64.0
12,47.0,192.0,180.0,0.0,64.0
13,64.0,192.0,180.0,0.0,64.0
14,66.0,192.0,180.0,0.0,64.0
15,67.0,192.0,180.0,0.0,64.0
16,66.0,192.0,180.0,0.0,64.0
17,62.0,192.0,180.0,0.0,64.0
18,59.0,192.0,180.0,0.0,64.0
19,62.0,192.0,180.0,0.0,64.0
20,47.0,192.0,180.0,0.0,64.0
21,70.0,192.0,180.0,0.0,64.0
22,71.0,192.0,180.0,0.0,64.0
23,73.0,192.0,180.0,0.0,64.0
24,71.0,192.0,180.0,0.0,64.0
25,66.0,192.0,180.0,0.0,64.0
26,62.0,192.0,180.0,0.0,64.0
27,66.0,192.0,180.0,0.0,64.0
28,47.0,192.0,180.0,0.0,64.0
29,73.0,192.0,180.0,0.0,64.0
30,74.0,192.0,180.0,0.0,64.0
31,76.0,576.0,180.0,0.0,64.0
32,74.0,0.0,780.0,0.0,64.0
33,71.0,192.0,390.0,0.0,64.0
34,59.0,0.0,390.0,0.0,64.0
35,71.0,576.0,180.0,0.0,64.0
36,76.0,0.0,780.0,0.0,64.0
37,61.0,576.0,390.0,0.0,64.0
38,71.0,192.0,15.0,0.0,64.0
39,78.0,384.0,780.0,0.0,64.0
40,71.0,192.0,390.0,0.0,64.0
41,62.0,0.0,390.0,0.0,64.0
42,71.0,0.0,180.0,0.0,64.0
43,47.0,192.0,390.0,0.0,64.0
44,78.0,0.0,180.0,0.0,64.0
45,79.0,192.0,180.0,0.0,64.0
46,81.0,576.0,180.0,0.0,64.0
47,79.0,576.0,780.0,0.0,64.0
48,71.0,192.0,390.0,0.0,64.0
49,64.0,0.0,390.0,0.0,64.0
50,71.0,0.0,180.0,0.0,64.0
51,81.0,0.0,780.0,0.0,64.0
52,66.0,0.0,390.0,0.0,64.0
53,75.0,192.0,15.0,0.0,64.0
54,83.0,384.0,780.0,0.0,64.0
55,76.0,192.0,390.0,0.0,64.0
56,67.0,0.0,390.0,0.0,64.0
57,76.0,0.0,180.0,0.0,64.0
58,47.0,0.0,390.0,0.0,64.0
59,82.0,192.0,180.0,0.0,64.0
60,80.0,192.0,180.0,0.0,64.0
61,82.0,576.0,180.0,0.0,64.0
62,83.0,0.0,780.0,0.0,64.0
63,74.0,192.0,390.0,0.0,64.0
64,66.0,576.0,390.0,0.0,64.0
65,74.0,0.0,180.0,0.0,64.0
66,85.0,576.0,780.0,0.0,64.0
67,76.0,192.0,390.0,0.0,64.0
68,70.0,0.0,390.0,0.0,64.0
69,76.0,0.0,180.0,0.0,64.0
70,86.0,384.0,780.0,0.0,64.0
71,78.0,192.0,390.0,0.0,64.0
72,71.0,0.0,390.0,0.0,64.0
73,78.0,0.0,180.0,0.0,64.0
74,47.0,0.0,390.0,0.0,64.0
75,87.0,192.0,180.0,0.0,64.0
76,85.0,192.0,180.0,0.0,64.0
77,87.0,576.0,180.0,0.0,64.0
78,88.0,0.0,780.0,0.0,64.0
79,79.0,192.0,390.0,0.0,64.0
80,71.0,0.0,390.0,0.0,64.0
81,79.0,576.0,180.0,0.0,64.0
82,86.0,0.0,780.0,0.0,64.0
83,78.0,192.0,390.0,0.0,64.0
84,69.0,576.0,390.0,0.0,64.0
85,78.0,0.0,180.0,0.0,64.0
86,85.0,0.0,780.0,0.0,64.0
87,67.0,0.0,390.0,0.0,64.0
88,76.0,192.0,15.0,0.0,64.0
89,47.0,192.0,390.0,0.0,64.0
90,85.0,0.0,180.0,0.0,64.0
91,83.0,192.0,180.0,0.0,64.0
92,85.0,576.0,180.0,0.0,64.0
93,86.0,0.0,780.0,0.0,64.0
94,78.0,192.0,390.0,0.0,64.0
95,66.0,0.0,390.0,0.0,64.0
96,71.0,0.0,390.0,0.0,64.0
97,78.0,576.0,180.0,0.0,64.0
98,85.0,0.0,780.0,0.0,64.0
99,70.0,0.0,390.0,0.0,64.0
100,64.0,576.0,390.0,0.0,64.0
101,78.0,192.0,15.0,0.0,64.0
102,83.0,576.0,780.0,0.0,64.0
103,71.0,0.0,390.0,0.0,64.0
104,62.0,0.0,390.0,0.0,64.0
105,78.0,192.0,15.0,0.0,64.0
106,82.0,576.0,780.0,0.0,64.0
107,76.0,192.0,390.0,0.0,64.0
108,61.0,0.0,390.0,0.0,64.0
109,73.0,0.0,390.0,0.0,64.0
110,76.0,0.0,180.0,0.0,64.0
111,83.0,0.0,780.0,0.0,64.0
112,62.0,576.0,390.0,0.0,64.0
113,71.0,0.0,390.0,0.0,64.0
114,78.0,192.0,15.0,0.0,64.0
115,81.0,576.0,780.0,0.0,64.0
116,78.0,192.0,390.0,0.0,64.0
117,71.0,0.0,390.0,0.0,64.0
118,63.0,0.0,390.0,0.0,64.0
119,78.0,0.0,180.0,0.0,64.0
120,79.0,0.0,780.0,0.0,64.0
121,71.0,576.0,390.0,0.0,64.0
122,64.0,0.0,390.0,0.0,64.0
123,78.0,192.0,15.0,0.0,64.0
124,79.0,0.0,780.0,0.0,64.0
125,76.0,192.0,390.0,0.0,64.0
126,71.0,0.0,390.0,0.0,64.0
127,64.0,576.0,390.0,0.0,64.0
128,76.0,0.0,180.0,0.0,64.0
129,78.0,0.0,780.0,0.0,64.0
130,58.0,0.0,390.0,0.0,64.0
131,66.0,0.0,390.0,0.0,64.0
132,73.0,192.0,15.0,0.0,64.0
133,76.0,0.0,780.0,0.0,64.0
134,73.0,192.0,390.0,0.0,64.0
135,66.0,0.0,390.0,0.0,64.0
136,58.0,0.0,390.0,0.0,64.0
137,73.0,576.0,180.0,0.0,64.0
138,74.0,0.0,780.0,0.0,64.0
139,73.0,192.0,390.0,0.0,64.0
140,66.0,0.0,390.0,0.0,64.0
141,59.0,576.0,390.0,0.0,64.0
142,73.0,0.0,180.0,0.0,64.0
143,71.0,192.0,390.0,0.0,64.0
144,66.0,384.0,390.0,0.0,64.0
145,59.0,0.0,390.0,0.0,64.0
146,71.0,0.0,180.0,0.0,64.0
147,74.0,0.0,15.0,0.0,64.0
148,47.0,192.0,390.0,0.0,64.0
149,66.0,0.0,390.0,0.0,64.0
150,59.0,0.0,390.0,0.0,64.0
151,71.0,192.0,15.0,0.0,64.0
152,49.0,192.0,390.0,0.0,64.0
153,59.0,384.0,390.0,0.0,64.0
154,66.0,0.0,390.0,0.0,64.0
155,71.0,192.0,15.0,0.0,64.0
156,50.0,192.0,390.0,0.0,64.0
157,74.0,0.0,15.0,0.0,64.0
158,66.0,0.0,390.0,0.0,64.0
159,59.0,0.0,390.0,0.0,64.0
160,71.0,192.0,15.0,0.0,64.0
161,47.0,192.0,390.0,0.0,64.0
162,74.0,0.0,15.0,0.0,64.0
163,71.0,192.0,390.0,0.0,64.0
164,66.0,0.0,390.0,0.0,64.0
165,59.0,0.0,390.0,0.0,64.0
166,71.0,576.0,180.0,0.0,64.0
167,55.0,0.0,1530.0,0.0,64.0
168,74.0,0.0,15.0,0.0,64.0
169,71.0,192.0,390.0,0.0,64.0
170,59.0,576.0,390.0,0.0,64.0
171,66.0,0.0,390.0,0.0,64.0
172,71.0,0.0,180.0,0.0,64.0
173,76.0,0.0,780.0,0.0,64.0
174,71.0,192.0,390.0,0.0,64.0
175,64.0,0.0,390.0,0.0,64.0
176,59.0,0.0,390.0,0.0,64.0
177,71.0,576.0,180.0,0.0,64.0
178,78.0,0.0,780.0,0.0,64.0
179,70.0,192.0,390.0,0.0,64.0
180,61.0,0.0,390.0,0.0,64.0
181,64.0,576.0,390.0,0.0,64.0
182,70.0,0.0,180.0,0.0,64.0
183,78.0,0.0,780.0,0.0,64.0
184,62.0,0.0,390.0,0.0,64.0
185,59.0,0.0,390.0,0.0,64.0
186,71.0,192.0,15.0,0.0,64.0
187,78.0,0.0,780.0,0.0,64.0
188,57.0,576.0,390.0,0.0,64.0
189,63.0,0.0,390.0,0.0,64.0
190,71.0,192.0,15.0,0.0,64.0
191,80.0,0.0,780.0,0.0,64.0
192,71.0,192.0,390.0,0.0,64.0
193,65.0,576.0,390.0,0.0,64.0
194,56.0,0.0,390.0,0.0,64.0
195,71.0,0.0,180.0,0.0,64.0
196,82.0,576.0,780.0,0.0,64.0
197,73.0,192.0,390.0,0.0,64.0
198,54.0,0.0,390.0,0.0,64.0
199,64.0,0.0,390.0,0.0,64.0
200,73.0,0.0,180.0,0.0,64.0
201,83.0,0.0,780.0,0.0,64.0
202,54.0,0.0,390.0,0.0,64.0
203,63.0,576.0,390.0,0.0,64.0
204,71.0,192.0,15.0,0.0,64.0
205,77.0,0.0,780.0,0.0,64.0
206,62.0,576.0,390.0,0.0,64.0
207,56.0,0.0,390.0,0.0,64.0
208,71.0,192.0,15.0,0.0,64.0
209,77.0,576.0,780.0,0.0,64.0
210,71.0,192.0,390.0,0.0,64.0
211,56.0,0.0,390.0,0.0,64.0
212,61.0,0.0,390.0,0.0,64.0
213,71.0,0.0,180.0,0.0,64.0
214,54.0,0.0,390.0,0.0,64.0
215,62.0,0.0,390.0,0.0,64.0
216,71.0,192.0,15.0,0.0,64.0
217,78.0,384.0,15.0,0.0,64.0
218,70.0,192.0,180.0,0.0,64.0
219,59.0,0.0,390.0,0.0,64.0
220,68.0,384.0,390.0,0.0,64.0
221,62.0,0.0,390.0,0.0,64.0
222,77.0,0.0,180.0,0.0,64.0
223,58.0,0.0,780.0,0.0,64.0
224,61.0,0.0,780.0,0.0,64.0
225,78.0,0.0,780.0,0.0,64.0
226,66.0,0.0,780.0,0.0,64.0
227,42.0,960.0,390.0,0.0,64.0
228,66.0,96.0,90.0,0.0,64.0
229,68.0,96.0,90.0,0.0,64.0
230,70.0,96.0,90.0,0.0,64.0
231,71.0,96.0,90.0,0.0,64.0
232,73.0,96.0,90.0,0.0,64.0
233,74.0,96.0,90.0,0.0,64.0
234,76.0,96.0,90.0,0.0,64.0
235,78.0,96.0,90.0,0.0,64.0
236,80.0,96.0,90.0,0.0,64.0
237,82.0,96.0,90.0,0.0,64.0
238,83.0,96.0,90.0,0.0,64.0
239,85.0,96.0,90.0,0.0,64.0
240,86.0,96.0,90.0,0.0,64.0
241,88.0,96.0,90.0,0.0,64.0
242,85.0,96.0,90.0,0.0,64.0
243,86.0,96.0,90.0,0.0,64.0
244,88.0,96.0,90.0,0.0,64.0
245,85.0,96.0,90.0,0.0,64.0
246,86.0,96.0,90.0,0.0,64.0
247,83.0,96.0,90.0,0.0,64.0
248,86.0,96.0,90.0,0.0,64.0
249,85.0,96.0,90.0,0.0,64.0
250,83.0,96.0,90.0,0.0,64.0
251,85.0,96.0,90.0,0.0,64.0
252,86.0,96.0,90.0,0.0,64.0
253,83.0,96.0,90.0,0.0,64.0
254,85.0,96.0,90.0,0.0,64.0
255,82.0,96.0,90.0,0.0,64.0
256,83.0,96.0,90.0,0.0,64.0
257,80.0,96.0,90.0,0.0,64.0
258,82.0,96.0,90.0,0.0,64.0
259,78.0,96.0,90.0,0.0,64.0
260,79.0,96.0,90.0,0.0,64.0
261,76.0,96.0,90.0,0.0,64.0
262,78.0,96.0,90.0,0.0,64.0
263,74.0,96.0,90.0,0.0,64.0
264,78.0,96.0,90.0,0.0,64.0
265,76.0,96.0,90.0,0.0,64.0
266,74.0,96.0,90.0,0.0,64.0
267,76.0,96.0,90.0,0.0,64.0
268,78.0,96.0,90.0,0.0,64.0
269,74.0,96.0,90.0,0.0,64.0
270,76.0,96.0,90.0,0.0,64.0
271,73.0,96.0,90.0,0.0,64.0
272,74.0,96.0,90.0,0.0,64.0
273,71.0,96.0,90.0,0.0,64.0
274,73.0,96.0,90.0,0.0,64.0
275,70.0,96.0,90.0,0.0,64.0
276,71.0,96.0,90.0,0.0,64.0
277,73.0,96.0,90.0,0.0,64.0
278,74.0,96.0,90.0,0.0,64.0
279,76.0,96.0,90.0,0.0,64.0
280,73.0,96.0,90.0,0.0,64.0
281,74.0,96.0,90.0,0.0,64.0
282,76.0,96.0,90.0,0.0,64.0
283,66.0,96.0,90.0,0.0,64.0
284,68.0,96.0,90.0,0.0,64.0
285,70.0,96.0,90.0,0.0,64.0
286,71.0,96.0,90.0,0.0,64.0
287,73.0,96.0,90.0,0.0,64.0
288,70.0,96.0,90.0,0.0,64.0
289,71.0,96.0,90.0,0.0,64.0
290,73.0,96.0,90.0,0.0,64.0
291,62.0,96.0,90.0,0.0,64.0
292,64.0,96.0,90.0,0.0,64.0
293,66.0,96.0,90.0,0.0,64.0
294,68.0,96.0,90.0,0.0,64.0
295,70.0,96.0,90.0,0.0,64.0
296,71.0,96.0,90.0,0.0,64.0
297,73.0,96.0,90.0,0.0,64.0
298,74.0,96.0,90.0,0.0,64.0
299,76.0,96.0,90.0,0.0,64.0
300,73.0,96.0,90.0,0.0,64.0
301,70.0,96.0,90.0,0.0,64.0
302,73.0,96.0,90.0,0.0,64.0
303,66.0,96.0,90.0,0.0,64.0
304,70.0,96.0,90.0,0.0,64.0
305,73.0,96.0,90.0,0.0,64.0
306,76.0,96.0,90.0,0.0,64.0
307,59.0,96.0,90.0,0.0,64.0
308,61.0,96.0,90.0,0.0,64.0
309,62.0,96.0,90.0,0.0,64.0
310,64.0,96.0,90.0,0.0,64.0
311,66.0,96.0,90.0,0.0,64.0
312,67.0,96.0,90.0,0.0,64.0
313,69.0,96.0,90.0,0.0,64.0
314,71.0,96.0,90.0,0.0,64.0
315,72.0,96.0,90.0,0.0,64.0
316,69.0,96.0,90.0,0.0,64.0
317,66.0,96.0,90.0,0.0,64.0
318,69.0,96.0,90.0,0.0,64.0
319,63.0,96.0,90.0,0.0,64.0
320,66.0,96.0,90.0,0.0,64.0
321,69.0,96.0,90.0,0.0,64.0
322,72.0,96.0,90.0,0.0,64.0
323,55.0,96.0,90.0,0.0,64.0
324,57.0,96.0,90.0,0.0,64.0
325,59.0,96.0,90.0,0.0,64.0
326,61.0,96.0,90.0,0.0,64.0
327,63.0,96.0,90.0,0.0,64.0
328,64.0,96.0,90.0,0.0,64.0
329,66.0,96.0,90.0,0.0,64.0
330,67.0,96.0,90.0,0.0,64.0
331,69.0,96.0,90.0,0.0,64.0
332,66.0,96.0,90.0,0.0,64.0
333,63.0,96.0,90.0,0.0,64.0
334,66.0,96.0,90.0,0.0,64.0
335,59.0,96.0,90.0,0.0,64.0
336,61.0,96.0,90.0,0.0,64.0
337,66.0,96.0,90.0,0.0,64.0
338,69.0,96.0,90.0,0.0,64.0
339,52.0,96.0,90.0,0.0,64.0
340,55.0,96.0,90.0,0.0,64.0
341,54.0,96.0,90.0,0.0,64.0
342,57.0,96.0,90.0,0.0,64.0
343,55.0,96.0,90.0,0.0,64.0
344,59.0,96.0,90.0,0.0,64.0
345,57.0,96.0,90.0,0.0,64.0
346,60.0,96.0,90.0,0.0,64.0
347,59.0,96.0,90.0,0.0,64.0
348,64.0,96.0,90.0,0.0,64.0
349,63.0,96.0,90.0,0.0,64.0
350,66.0,96.0,90.0,0.0,64.0
351,64.0,96.0,90.0,0.0,64.0
352,67.0,96.0,90.0,0.0,64.0
353,66.0,96.0,90.0,0.0,64.0
354,69.0,96.0,90.0,0.0,64.0
355,67.0,96.0,90.0,0.0,64.0
356,64.0,96.0,90.0,0.0,64.0
357,66.0,96.0,90.0,0.0,64.0
358,67.0,96.0,90.0,0.0,64.0
359,69.0,96.0,90.0,0.0,64.0
360,71.0,96.0,90.0,0.0,64.0
361,73.0,96.0,90.0,0.0,64.0
362,75.0,96.0,90.0,0.0,64.0
363,76.0,96.0,90.0,0.0,64.0
364,78.0,96.0,90.0,0.0,64.0
365,79.0,96.0,90.0,0.0,64.0
366,81.0,96.0,90.0,0.0,64.0
367,83.0,96.0,90.0,0.0,64.0
368,85.0,96.0,90.0,0.0,64.0
369,87.0,96.0,90.0,0.0,64.0
370,88.0,192.0,90.0,0.0,64.0
371,70.0,96.0,390.0,0.0,64.0
372,76.0,96.0,90.0,0.0,64.0
373,73.0,96.0,90.0,0.0,64.0
374,76.0,0.0,90.0,0.0,64.0
375,79.0,96.0,90.0,0.0,64.0
376,76.0,96.0,90.0,0.0,64.0
377,73.0,96.0,90.0,0.0,64.0
378,76.0,192.0,90.0,0.0,64.0
379,70.0,96.0,390.0,0.0,64.0
380,76.0,96.0,90.0,0.0,64.0
381,73.0,96.0,90.0,0.0,64.0
382,76.0,0.0,90.0,0.0,64.0
383,79.0,96.0,90.0,0.0,64.0
384,76.0,96.0,90.0,0.0,64.0
385,73.0,96.0,90.0,0.0,64.0
386,76.0,192.0,90.0,0.0,64.0
387,70.0,96.0,390.0,0.0,64.0
388,76.0,96.0,90.0,0.0,64.0
389,73.0,96.0,90.0,0.0,64.0
390,76.0,0.0,90.0,0.0,64.0
391,78.0,96.0,90.0,0.0,64.0
392,76.0,96.0,90.0,0.0,64.0
393,73.0,96.0,90.0,0.0,64.0
394,76.0,192.0,90.0,0.0,64.0
395,70.0,96.0,390.0,0.0,64.0
396,76.0,96.0,90.0,0.0,64.0
397,73.0,96.0,90.0,0.0,64.0
398,76.0,0.0,90.0,0.0,64.0
399,78.0,96.0,90.0,0.0,64.0
400,76.0,96.0,90.0,0.0,64.0
401,73.0,96.0,90.0,0.0,64.0
402,76.0,192.0,90.0,0.0,64.0
403,69.0,96.0,390.0,0.0,64.0
404,75.0,96.0,90.0,0.0,64.0
405,72.0,96.0,90.0,0.0,64.0
406,75.0,0.0,90.0,0.0,64.0
407,78.0,96.0,90.0,0.0,64.0
408,75.0,96.0,90.0,0.0,64.0
409,72.0,96.0,90.0,0.0,64.0
410,75.0,192.0,90.0,0.0,64.0
411,69.0,96.0,390.0,0.0,64.0
412,75.0,96.0,90.0,0.0,64.0
413,72.0,96.0,90.0,0.0,64.0
414,75.0,0.0,90.0,0.0,64.0
415,78.0,96.0,90.0,0.0,64.0
416,75.0,96.0,90.0,0.0,64.0
417,72.0,96.0,90.0,0.0,64.0
418,75.0,192.0,90.0,0.0,64.0
419,69.0,96.0,390.0,0.0,64.0
420,75.0,96.0,90.0,0.0,64.0
421,72.0,96.0,90.0,0.0,64.0
422,75.0,0.0,90.0,0.0,64.0
423,77.0,96.0,90.0,0.0,64.0
424,75.0,96.0,90.0,0.0,64.0
425,72.0,96.0,90.0,0.0,64.0
426,75.0,192.0,90.0,0.0,64.0
427,69.0,96.0,390.0,0.0,64.0
428,75.0,96.0,90.0,0.0,64.0
429,72.0,96.0,90.0,0.0,64.0
430,75.0,0.0,90.0,0.0,64.0
431,77.0,96.0,90.0,0.0,64.0
432,75.0,96.0,90.0,0.0,64.0
433,72.0,96.0,90.0,0.0,64.0
434,75.0,192.0,90.0,0.0,64.0
435,68.0,96.0,390.0,0.0,64.0
436,74.0,96.0,90.0,0.0,64.0
437,71.0,96.0,90.0,0.0,64.0
438,74.0,0.0,90.0,0.0,64.0
439,77.0,96.0,90.0,0.0,64.0
440,74.0,96.0,90.0,0.0,64.0
441,71.0,96.0,90.0,0.0,64.0
442,74.0,192.0,90.0,0.0,64.0
443,68.0,96.0,390.0,0.0,64.0
444,74.0,96.0,90.0,0.0,64.0
445,71.0,96.0,90.0,0.0,64.0
446,74.0,0.0,90.0,0.0,64.0
447,77.0,96.0,90.0,0.0,64.0
448,74.0,96.0,90.0,0.0,64.0
449,71.0,96.0,90.0,0.0,64.0
450,74.0,192.0,90.0,0.0,64.0
451,68.0,0.0,390.0,0.0,64.0
452,74.0,96.0,90.0,0.0,64.0
453,71.0,96.0,90.0,0.0,64.0
454,74.0,96.0,90.0,0.0,64.0
455,76.0,96.0,90.0,0.0,64.0
456,74.0,96.0,90.0,0.0,64.0
457,71.0,96.0,90.0,0.0,64.0
458,74.0,192.0,90.0,0.0,64.0
459,68.0,96.0,390.0,0.0,64.0
460,74.0,96.0,90.0,0.0,64.0
461,71.0,96.0,90.0,0.0,64.0
462,74.0,0.0,90.0,0.0,64.0
463,76.0,96.0,90.0,0.0,64.0
464,74.0,96.0,90.0,0.0,64.0
465,71.0,96.0,90.0,0.0,64.0
466,74.0,192.0,90.0,0.0,64.0
467,67.0,96.0,390.0,0.0,64.0
468,73.0,96.0,90.0,0.0,64.0
469,70.0,96.0,90.0,0.0,64.0
470,73.0,0.0,90.0,0.0,64.0
471,76.0,96.0,90.0,0.0,64.0
472,73.0,96.0,90.0,0.0,64.0
473,70.0,96.0,90.0,0.0,64.0
474,73.0,192.0,90.0,0.0,64.0
475,67.0,96.0,390.0,0.0,64.0
476,73.0,96.0,90.0,0.0,64.0
477,70.0,96.0,90.0,0.0,64.0
478,73.0,0.0,90.0,0.0,64.0
479,76.0,96.0,90.0,0.0,64.0
480,73.0,96.0,90.0,0.0,64.0
481,70.0,96.0,90.0,0.0,64.0
482,73.0,192.0,90.0,0.0,64.0
483,67.0,96.0,390.0,0.0,64.0
484,73.0,96.0,90.0,0.0,64.0
485,70.0,96.0,90.0,0.0,64.0
486,73.0,0.0,90.0,0.0,64.0
487,75.0,96.0,90.0,0.0,64.0
488,73.0,96.0,90.0,0.0,64.0
489,70.0,96.0,90.0,0.0,64.0
490,73.0,192.0,90.0,0.0,64.0
491,67.0,96.0,390.0,0.0,64.0
492,73.0,96.0,90.0,0.0,64.0
493,70.0,96.0,90.0,0.0,64.0
494,73.0,0.0,90.0,0.0,64.0
495,75.0,96.0,90.0,0.0,64.0
496,73.0,96.0,90.0,0.0,64.0
497,70.0,96.0,90.0,0.0,64.0
498,73.0,192.0,90.0,0.0,64.0
499,66.0,96.0,390.0,0.0,64.0
500,72.0,96.0,90.0,0.0,64.0
501,69.0,96.0,90.0,0.0,64.0
502,72.0,0.0,90.0,0.0,64.0
503,75.0,96.0,90.0,0.0,64.0
504,72.0,96.0,90.0,0.0,64.0
505,69.0,96.0,90.0,0.0,64.0
506,72.0,192.0,90.0,0.0,64.0
507,66.0,96.0,390.0,0.0,64.0
508,72.0,96.0,90.0,0.0,64.0
509,69.0,96.0,90.0,0.0,64.0
510,72.0,0.0,90.0,0.0,64.0
511,75.0,96.0,90.0,0.0,64.0
512,72.0,96.0,90.0,0.0,64.0
513,69.0,96.0,90.0,0.0,64.0
514,72.0,192.0,90.0,0.0,64.0
515,66.0,0.0,390.0,0.0,64.0
516,72.0,96.0,90.0,0.0,64.0
517,69.0,96.0,90.0,0.0,64.0
518,72.0,96.0,90.0,0.0,64.0
519,74.0,96.0,90.0,0.0,64.0
520,72.0,96.0,90.0,0.0,64.0
521,69.0,96.0,90.0,0.0,64.0
522,72.0,192.0,90.0,0.0,64.0
523,66.0,96.0,390.0,0.0,64.0
524,72.0,96.0,90.0,0.0,64.0
525,69.0,96.0,90.0,0.0,64.0
526,72.0,0.0,90.0,0.0,64.0
527,74.0,96.0,90.0,0.0,64.0
528,72.0,96.0,90.0,0.0,64.0
529,69.0,96.0,90.0,0.0,64.0
530,72.0,192.0,90.0,0.0,64.0
531,65.0,96.0,390.0,0.0,64.0
532,71.0,96.0,90.0,0.0,64.0
533,68.0,96.0,90.0,0.0,64.0
534,71.0,0.0,90.0,0.0,64.0
535,74.0,96.0,90.0,0.0,64.0
536,71.0,96.0,90.0,0.0,64.0
537,68.0,96.0,90.0,0.0,64.0
538,71.0,192.0,90.0,0.0,64.0
539,65.0,96.0,390.0,0.0,64.0
540,71.0,96.0,90.0,0.0,64.0
541,68.0,96.0,90.0,0.0,64.0
542,71.0,0.0,90.0,0.0,64.0
543,74.0,96.0,90.0,0.0,64.0
544,71.0,96.0,90.0,0.0,64.0
545,68.0,96.0,90.0,0.0,64.0
546,71.0,192.0,90.0,0.0,64.0
547,65.0,96.0,390.0,0.0,64.0
548,71.0,96.0,90.0,0.0,64.0
549,68.0,96.0,90.0,0.0,64.0
550,71.0,0.0,90.0,0.0,64.0
551,73.0,96.0,90.0,0.0,64.0
552,71.0,96.0,90.0,0.0,64.0
553,68.0,96.0,90.0,0.0,64.0
554,71.0,192.0,90.0,0.0,64.0
555,65.0,96.0,390.0,0.0,64.0
556,71.0,96.0,90.0,0.0,64.0
557,68.0,96.0,90.0,0.0,64.0
558,71.0,0.0,90.0,0.0,64.0
559,73.0,96.0,90.0,0.0,64.0
560,71.0,96.0,90.0,0.0,64.0
561,68.0,96.0,90.0,0.0,64.0
562,71.0,192.0,90.0,0.0,64.0
563,64.0,0.0,390.0,0.0,64.0
564,70.0,96.0,90.0,0.0,64.0
565,67.0,96.0,90.0,0.0,64.0
566,70.0,96.0,90.0,0.0,64.0
567,73.0,96.0,90.0,0.0,64.0
568,70.0,96.0,90.0,0.0,64.0
569,67.0,96.0,90.0,0.0,64.0
570,70.0,192.0,90.0,0.0,64.0
571,64.0,96.0,390.0,0.0,64.0
572,70.0,96.0,90.0,0.0,64.0
573,67.0,96.0,90.0,0.0,64.0
574,70.0,0.0,90.0,0.0,64.0
575,73.0,96.0,90.0,0.0,64.0
576,70.0,96.0,90.0,0.0,64.0
577,67.0,96.0,90.0,0.0,64.0
578,70.0,192.0,90.0,0.0,64.0
579,64.0,96.0,390.0,0.0,64.0
580,70.0,96.0,90.0,0.0,64.0
581,67.0,96.0,90.0,0.0,64.0
582,70.0,0.0,90.0,0.0,64.0
583,72.0,96.0,90.0,0.0,64.0
584,70.0,96.0,90.0,0.0,64.0
585,67.0,96.0,90.0,0.0,64.0
586,70.0,192.0,90.0,0.0,64.0
587,64.0,96.0,390.0,0.0,64.0
588,70.0,96.0,90.0,0.0,64.0
589,67.0,96.0,90.0,0.0,64.0
590,70.0,0.0,90.0,0.0,64.0
591,72.0,96.0,90.0,0.0,64.0
592,70.0,96.0,90.0,0.0,64.0
593,67.0,96.0,90.0,0.0,64.0
594,70.0,192.0,90.0,0.0,64.0
595,63.0,96.0,390.0,0.0,64.0
596,69.0,96.0,90.0,0.0,64.0
597,66.0,96.0,90.0,0.0,64.0
598,69.0,0.0,90.0,0.0,64.0
599,72.0,96.0,90.0,0.0,64.0
600,69.0,96.0,90.0,0.0,64.0
601,66.0,96.0,90.0,0.0,64.0
602,69.0,192.0,90.0,0.0,64.0
603,63.0,96.0,390.0,0.0,64.0
604,69.0,96.0,90.0,0.0,64.0
605,66.0,96.0,90.0,0.0,64.0
606,69.0,0.0,90.0,0.0,64.0
607,72.0,96.0,90.0,0.0,64.0
608,69.0,96.0,90.0,0.0,64.0
609,66.0,96.0,90.0,0.0,64.0
610,69.0,192.0,90.0,0.0,64.0
611,63.0,96.0,390.0,0.0,64.0
612,69.0,96.0,90.0,0.0,64.0
613,66.0,96.0,90.0,0.0,64.0
614,69.0,0.0,90.0,0.0,64.0
615,71.0,96.0,90.0,0.0,64.0
616,69.0,96.0,90.0,0.0,64.0
617,66.0,96.0,90.0,0.0,64.0
618,69.0,192.0,90.0,0.0,64.0
619,63.0,0.0,390.0,0.0,64.0
620,69.0,96.0,90.0,0.0,64.0
621,66.0,96.0,90.0,0.0,64.0
622,69.0,96.0,90.0,0.0,64.0
623,71.0,96.0,90.0,0.0,64.0
624,69.0,96.0,90.0,0.0,64.0
625,66.0,96.0,90.0,0.0,64.0
626,69.0,192.0,90.0,0.0,64.0
627,62.0,0.0,390.0,0.0,64.0
628,68.0,96.0,90.0,0.0,64.0
629,65.0,96.0,90.0,0.0,64.0
630,68.0,96.0,90.0,0.0,64.0
631,71.0,96.0,90.0,0.0,64.0
632,68.0,96.0,90.0,0.0,64.0
633,65.0,96.0,90.0,0.0,64.0
634,68.0,192.0,90.0,0.0,64.0
635,62.0,0.0,390.0,0.0,64.0
636,68.0,96.0,90.0,0.0,64.0
637,65.0,96.0,90.0,0.0,64.0
638,68.0,96.0,90.0,0.0,64.0
639,71.0,96.0,90.0,0.0,64.0
640,68.0,96.0,90.0,0.0,64.0
641,65.0,96.0,90.0,0.0,64.0
642,68.0,192.0,90.0,0.0,64.0
643,62.0,96.0,390.0,0.0,64.0
644,68.0,96.0,90.0,0.0,64.0
645,65.0,96.0,90.0,0.0,64.0
646,68.0,0.0,90.0,0.0,64.0
647,70.0,96.0,90.0,0.0,64.0
648,68.0,96.0,90.0,0.0,64.0
649,65.0,96.0,90.0,0.0,64.0
650,68.0,192.0,90.0,0.0,64.0
651,62.0,0.0,390.0,0.0,64.0
652,68.0,96.0,90.0,0.0,64.0
653,65.0,96.0,90.0,0.0,64.0
654,68.0,96.0,90.0,0.0,64.0
655,70.0,96.0,90.0,0.0,64.0
656,68.0,96.0,90.0,0.0,64.0
657,65.0,96.0,90.0,0.0,64.0
658,68.0,192.0,90.0,0.0,64.0
659,61.0,0.0,390.0,0.0,64.0
660,67.0,96.0,90.0,0.0,64.0
661,64.0,96.0,90.0,0.0,64.0
662,67.0,96.0,90.0,0.0,64.0
663,70.0,96.0,90.0,0.0,64.0
664,67.0,96.0,90.0,0.0,64.0
665,64.0,96.0,90.0,0.0,64.0
666,67.0,192.0,90.0,0.0,64.0
667,61.0,0.0,390.0,0.0,64.0
668,67.0,96.0,90.0,0.0,64.0
669,64.0,96.0,90.0,0.0,64.0
670,67.0,96.0,90.0,0.0,64.0
671,70.0,96.0,90.0,0.0,64.0
672,67.0,96.0,90.0,0.0,64.0
673,64.0,96.0,90.0,0.0,64.0
674,67.0,192.0,90.0,0.0,64.0
675,61.0,0.0,390.0,0.0,64.0
676,67.0,96.0,90.0,0.0,64.0
677,64.0,96.0,90.0,0.0,64.0
678,67.0,96.0,90.0,0.0,64.0
679,69.0,96.0,90.0,0.0,64.0
680,67.0,96.0,90.0,0.0,64.0
681,64.0,96.0,90.0,0.0,64.0
682,67.0,192.0,90.0,0.0,64.0
683,61.0,96.0,390.0,0.0,64.0
684,67.0,96.0,90.0,0.0,64.0
685,64.0,96.0,90.0,0.0,64.0
686,67.0,0.0,90.0,0.0,64.0
687,69.0,96.0,90.0,0.0,64.0
688,67.0,96.0,90.0,0.0,64.0
689,64.0,96.0,90.0,0.0,64.0
690,67.0,192.0,90.0,0.0,64.0
691,60.0,0.0,390.0,0.0,64.0
692,66.0,96.0,90.0,0.0,64.0
693,63.0,96.0,90.0,0.0,64.0
694,66.0,96.0,90.0,0.0,64.0
695,69.0,96.0,90.0,0.0,64.0
696,66.0,96.0,90.0,0.0,64.0
697,63.0,96.0,90.0,0.0,64.0
698,66.0,192.0,90.0,0.0,64.0
699,60.0,96.0,390.0,0.0,64.0
700,66.0,96.0,90.0,0.0,64.0
701,63.0,96.0,90.0,0.0,64.0
702,66.0,0.0,90.0,0.0,64.0
703,69.0,96.0,90.0,0.0,64.0
704,66.0,96.0,90.0,0.0,64.0
705,63.0,96.0,90.0,0.0,64.0
706,66.0,192.0,90.0,0.0,64.0
707,60.0,96.0,390.0,0.0,64.0
708,66.0,96.0,90.0,0.0,64.0
709,63.0,96.0,90.0,0.0,64.0
710,66.0,0.0,90.0,0.0,64.0
711,68.0,96.0,90.0,0.0,64.0
712,66.0,96.0,90.0,0.0,64.0
713,63.0,96.0,90.0,0.0,64.0
714,66.0,192.0,90.0,0.0,64.0
715,60.0,96.0,390.0,0.0,64.0
716,66.0,96.0,90.0,0.0,64.0
717,63.0,96.0,90.0,0.0,64.0
718,66.0,0.0,90.0,0.0,64.0
719,68.0,96.0,90.0,0.0,64.0
720,66.0,96.0,90.0,0.0,64.0
721,63.0,96.0,90.0,0.0,64.0
722,66.0,192.0,90.0,0.0,64.0
723,59.0,0.0,390.0,0.0,64.0
724,65.0,96.0,90.0,0.0,64.0
725,62.0,96.0,90.0,0.0,64.0
726,65.0,96.0,90.0,0.0,64.0
727,68.0,96.0,90.0,0.0,64.0
728,65.0,96.0,90.0,0.0,64.0
729,62.0,96.0,90.0,0.0,64.0
730,65.0,192.0,90.0,0.0,64.0
731,59.0,0.0,390.0,0.0,64.0
732,65.0,96.0,90.0,0.0,64.0
733,62.0,96.0,90.0,0.0,64.0
734,65.0,96.0,90.0,0.0,64.0
735,68.0,96.0,90.0,0.0,64.0
736,65.0,96.0,90.0,0.0,64.0
737,62.0,96.0,90.0,0.0,64.0
738,65.0,192.0,90.0,0.0,64.0
739,59.0,0.0,390.0,0.0,64.0
740,65.0,96.0,90.0,0.0,64.0
741,62.0,96.0,90.0,0.0,64.0
742,65.0,96.0,90.0,0.0,64.0
743,67.0,96.0,90.0,0.0,64.0
744,65.0,96.0,90.0,0.0,64.0
745,62.0,96.0,90.0,0.0,64.0
746,65.0,192.0,90.0,0.0,64.0
747,59.0,0.0,390.0,0.0,64.0
748,65.0,96.0,90.0,0.0,64.0
749,62.0,96.0,90.0,0.0,64.0
750,65.0,96.0,90.0,0.0,64.0
751,67.0,96.0,90.0,0.0,64.0
752,65.0,96.0,90.0,0.0,64.0
753,62.0,96.0,90.0,0.0,64.0
754,65.0,192.0,90.0,0.0,64.0
755,58.0,0.0,390.0,0.0,64.0
756,64.0,96.0,90.0,0.0,64.0
757,61.0,96.0,90.0,0.0,64.0
758,64.0,96.0,90.0,0.0,64.0
759,67.0,96.0,90.0,0.0,64.0
760,64.0,96.0,90.0,0.0,64.0
761,61.0,96.0,90.0,0.0,64.0
762,64.0,192.0,90.0,0.0,64.0
763,58.0,96.0,390.0,0.0,64.0
764,64.0,96.0,90.0,0.0,64.0
765,61.0,96.0,90.0,0.0,64.0
766,64.0,0.0,90.0,0.0,64.0
767,67.0,96.0,90.0,0.0,64.0
768,64.0,96.0,90.0,0.0,64.0
769,61.0,96.0,90.0,0.0,64.0
770,64.0,192.0,90.0,0.0,64.0
771,57.0,96.0,390.0,0.0,64.0
772,63.0,96.0,90.0,0.0,64.0
773,60.0,96.0,90.0,0.0,64.0
774,63.0,0.0,90.0,0.0,64.0
775,66.0,96.0,90.0,0.0,64.0
776,63.0,96.0,90.0,0.0,64.0
777,60.0,96.0,90.0,0.0,64.0
778,63.0,192.0,90.0,0.0,64.0
779,57.0,96.0,390.0,0.0,64.0
780,63.0,96.0,90.0,0.0,64.0
781,60.0,96.0,90.0,0.0,64.0
782,63.0,0.0,90.0,0.0,64.0
783,66.0,96.0,90.0,0.0,64.0
784,63.0,96.0,90.0,0.0,64.0
785,60.0,96.0,90.0,0.0,64.0
786,63.0,192.0,90.0,0.0,64.0
787,56.0,0.0,390.0,0.0,64.0
788,62.0,96.0,90.0,0.0,64.0
789,59.0,96.0,90.0,0.0,64.0
790,62.0,96.0,90.0,0.0,64.0
791,65.0,96.0,90.0,0.0,64.0
792,62.0,96.0,90.0,0.0,64.0
793,59.0,96.0,90.0,0.0,64.0
794,62.0,192.0,90.0,0.0,64.0
795,56.0,96.0,390.0,0.0,64.0
796,62.0,96.0,90.0,0.0,64.0
797,59.0,96.0,90.0,0.0,64.0
798,62.0,0.0,90.0,0.0,64.0
799,65.0,96.0,90.0,0.0,64.0
800,62.0,96.0,90.0,0.0,64.0
801,59.0,96.0,90.0,0.0,64.0
802,62.0,192.0,90.0,0.0,64.0
803,55.0,96.0,390.0,0.0,64.0
804,61.0,96.0,90.0,0.0,64.0
805,58.0,96.0,90.0,0.0,64.0
806,61.0,0.0,90.0,0.0,64.0
807,64.0,96.0,90.0,0.0,64.0
808,61.0,96.0,90.0,0.0,64.0
809,58.0,96.0,90.0,0.0,64.0
810,61.0,192.0,90.0,0.0,64.0
811,55.0,96.0,390.0,0.0,64.0
812,61.0,96.0,90.0,0.0,64.0
813,58.0,96.0,90.0,0.0,64.0
814,61.0,0.0,90.0,0.0,64.0
815,64.0,96.0,90.0,0.0,64.0
816,61.0,96.0,90.0,0.0,64.0
817,58.0,96.0,90.0,0.0,64.0
818,61.0,192.0,90.0,0.0,64.0
819,54.0,96.0,390.0,0.0,64.0
820,59.0,96.0,90.0,0.0,64.0
821,58.0,96.0,90.0,0.0,64.0
822,59.0,0.0,90.0,0.0,64.0
823,62.0,96.0,90.0,0.0,64.0
824,54.0,0.0,390.0,0.0,64.0
825,59.0,96.0,90.0,0.0,64.0
826,58.0,96.0,90.0,0.0,64.0
827,59.0,96.0,90.0,0.0,64.0
828,56.0,96.0,390.0,0.0,64.0
829,64.0,96.0,90.0,0.0,64.0
830,59.0,96.0,90.0,0.0,64.0
831,58.0,96.0,90.0,0.0,64.0
832,59.0,0.0,90.0,0.0,64.0
833,58.0,0.0,390.0,0.0,64.0
834,66.0,96.0,90.0,0.0,64.0
835,61.0,96.0,90.0,0.0,64.0
836,59.0,96.0,90.0,0.0,64.0
837,61.0,96.0,90.0,0.0,64.0
838,68.0,96.0,90.0,0.0,64.0
839,59.0,0.0,390.0,0.0,64.0
840,54.0,96.0,390.0,0.0,64.0
841,62.0,96.0,90.0,0.0,64.0
842,61.0,96.0,90.0,0.0,64.0
843,62.0,0.0,90.0,0.0,64.0
844,66.0,96.0,90.0,0.0,64.0
845,58.0,96.0,390.0,0.0,64.0
846,61.0,96.0,90.0,0.0,64.0
847,59.0,96.0,90.0,0.0,64.0
848,61.0,0.0,90.0,0.0,64.0
849,68.0,96.0,90.0,0.0,64.0
850,59.0,96.0,390.0,0.0,64.0
851,62.0,96.0,90.0,0.0,64.0
852,61.0,96.0,90.0,0.0,64.0
853,62.0,0.0,90.0,0.0,64.0
854,61.0,96.0,390.0,0.0,64.0
855,70.0,96.0,90.0,0.0,64.0
856,64.0,96.0,90.0,0.0,64.0
857,62.0,96.0,90.0,0.0,64.0
858,64.0,0.0,90.0,0.0,64.0
859,62.0,96.0,390.0,0.0,64.0
860,71.0,96.0,90.0,0.0,64.0
861,54.0,0.0,390.0,0.0,64.0
862,66.0,96.0,90.0,0.0,64.0
863,64.0,96.0,90.0,0.0,64.0
864,66.0,0.0,90.0,0.0,64.0
865,61.0,0.0,390.0,0.0,64.0
866,70.0,96.0,90.0,0.0,64.0
867,66.0,96.0,90.0,0.0,64.0
868,64.0,96.0,90.0,0.0,64.0
869,66.0,96.0,90.0,0.0,64.0
870,62.0,96.0,390.0,0.0,64.0
871,71.0,96.0,90.0,0.0,64.0
872,68.0,96.0,90.0,0.0,64.0
873,66.0,96.0,90.0,0.0,64.0
874,68.0,0.0,90.0,0.0,64.0
875,73.0,96.0,90.0,0.0,64.0
876,64.0,0.0,390.0,0.0,64.0
877,70.0,96.0,90.0,0.0,64.0
878,68.0,96.0,90.0,0.0,64.0
879,70.0,96.0,90.0,0.0,64.0
880,66.0,0.0,390.0,0.0,64.0
881,74.0,96.0,90.0,0.0,64.0
882,54.0,96.0,390.0,0.0,64.0
883,71.0,96.0,90.0,0.0,64.0
884,70.0,96.0,90.0,0.0,64.0
885,71.0,0.0,90.0,0.0,64.0
886,73.0,96.0,90.0,0.0,64.0
887,64.0,96.0,390.0,0.0,64.0
888,71.0,96.0,90.0,0.0,64.0
889,70.0,96.0,90.0,0.0,64.0
890,71.0,0.0,90.0,0.0,64.0
891,74.0,96.0,90.0,0.0,64.0
892,66.0,96.0,390.0,0.0,64.0
893,71.0,96.0,90.0,0.0,64.0
894,70.0,96.0,90.0,0.0,64.0
895,71.0,0.0,90.0,0.0,64.0
896,76.0,96.0,90.0,0.0,64.0
897,61.0,0.0,390.0,0.0,64.0
898,71.0,96.0,90.0,0.0,64.0
899,70.0,96.0,90.0,0.0,64.0
900,71.0,96.0,90.0,0.0,64.0
901,62.0,96.0,390.0,0.0,64.0
902,78.0,96.0,90.0,0.0,64.0
903,54.0,0.0,390.0,0.0,64.0
904,71.0,96.0,90.0,0.0,64.0
905,70.0,96.0,90.0,0.0,64.0
906,71.0,0.0,90.0,0.0,64.0
907,76.0,96.0,90.0,0.0,64.0
908,61.0,0.0,390.0,0.0,64.0
909,71.0,96.0,90.0,0.0,64.0
910,70.0,96.0,90.0,0.0,64.0
911,71.0,96.0,90.0,0.0,64.0
912,62.0,96.0,390.0,0.0,64.0
913,78.0,96.0,90.0,0.0,64.0
914,71.0,96.0,90.0,0.0,64.0
915,70.0,96.0,90.0,0.0,64.0
916,71.0,0.0,90.0,0.0,64.0
917,80.0,96.0,90.0,0.0,64.0
918,59.0,0.0,390.0,0.0,64.0
919,77.0,96.0,90.0,0.0,64.0
920,75.0,96.0,90.0,0.0,64.0
921,77.0,96.0,90.0,0.0,64.0
922,61.0,96.0,390.0,0.0,64.0
923,82.0,96.0,90.0,0.0,64.0
924,54.0,0.0,390.0,0.0,64.0
925,78.0,96.0,90.0,0.0,64.0
926,77.0,96.0,90.0,0.0,64.0
927,78.0,0.0,90.0,0.0,64.0
928,80.0,96.0,90.0,0.0,64.0
929,59.0,0.0,390.0,0.0,64.0
930,78.0,96.0,90.0,0.0,64.0
931,77.0,96.0,90.0,0.0,64.0
932,78.0,96.0,90.0,0.0,64.0
933,82.0,96.0,90.0,0.0,64.0
934,61.0,96.0,390.0,0.0,64.0
935,78.0,96.0,90.0,0.0,64.0
936,77.0,96.0,90.0,0.0,64.0
937,78.0,0.0,90.0,0.0,64.0
938,83.0,96.0,90.0,0.0,64.0
939,56.0,0.0,390.0,0.0,64.0
940,78.0,96.0,90.0,0.0,64.0
941,77.0,96.0,90.0,0.0,64.0
942,78.0,96.0,90.0,0.0,64.0
943,58.0,0.0,390.0,0.0,64.0
944,85.0,96.0,90.0,0.0,64.0
945,54.0,96.0,390.0,0.0,64.0
946,78.0,96.0,90.0,0.0,64.0
947,77.0,96.0,90.0,0.0,64.0
948,78.0,0.0,90.0,0.0,64.0
949,56.0,96.0,390.0,0.0,64.0
950,83.0,96.0,90.0,0.0,64.0
951,78.0,96.0,90.0,0.0,64.0
952,77.0,96.0,90.0,0.0,64.0
953,78.0,0.0,90.0,0.0,64.0
954,85.0,96.0,90.0,0.0,64.0
955,58.0,0.0,390.0,0.0,64.0
956,78.0,96.0,90.0,0.0,64.0
957,77.0,96.0,90.0,0.0,64.0
958,78.0,96.0,90.0,0.0,64.0
959,59.0,192.0,390.0,0.0,64.0
960,86.0,96.0,90.0,0.0,64.0
961,78.0,96.0,90.0,0.0,64.0
962,77.0,96.0,90.0,0.0,64.0
963,78.0,0.0,90.0,0.0,64.0
964,61.0,0.0,1530.0,0.0,64.0
965,46.0,0.0,1530.0,0.0,64.0
966,88.0,96.0,90.0,0.0,64.0
967,86.0,96.0,90.0,0.0,64.0
968,88.0,96.0,90.0,0.0,64.0
969,85.0,96.0,90.0,0.0,64.0
970,86.0,96.0,90.0,0.0,64.0
971,83.0,192.0,90.0,0.0,64.0
972,85.0,0.0,1260.0,0.0,64.0
973,82.0,96.0,90.0,0.0,64.0
974,83.0,96.0,90.0,0.0,64.0
975,80.0,96.0,90.0,0.0,64.0
976,82.0,96.0,90.0,0.0,64.0
977,78.0,96.0,90.0,0.0,64.0
978,79.0,96.0,90.0,0.0,64.0
979,76.0,96.0,90.0,0.0,64.0
980,78.0,192.0,90.0,0.0,64.0
981,47.0,96.0,1530.0,0.0,64.0
982,54.0,96.0,90.0,0.0,64.0
983,56.0,96.0,90.0,0.0,64.0
984,58.0,96.0,90.0,0.0,64.0
985,78.0,0.0,390.0,0.0,64.0
986,59.0,96.0,90.0,0.0,64.0
987,58.0,96.0,90.0,0.0,64.0
988,59.0,96.0,90.0,0.0,64.0
989,61.0,96.0,90.0,0.0,64.0
990,62.0,96.0,90.0,0.0,64.0
991,83.0,96.0,390.0,0.0,64.0
992,59.0,96.0,90.0,0.0,64.0
993,61.0,96.0,90.0,0.0,64.0
994,62.0,0.0,90.0,0.0,64.0
995,64.0,96.0,90.0,0.0,64.0
996,81.0,0.0,390.0,0.0,64.0
997,66.0,96.0,90.0,0.0,64.0
998,67.0,96.0,90.0,0.0,64.0
999,69.0,0.0,90.0,0.0,64.0
1000,79.0,96.0,780.0,0.0,64.0
1001,71.0,96.0,90.0,0.0,64.0
1002,59.0,0.0,1140.0,0.0,64.0
1003,70.0,96.0,90.0,0.0,64.0
1004,71.0,96.0,90.0,0.0,64.0
1005,73.0,0.0,90.0,0.0,64.0
1006,74.0,96.0,15.0,0.0,64.0
1007,73.0,96.0,90.0,0.0,64.0
1008,74.0,96.0,90.0,0.0,64.0
1009,76.0,0.0,90.0,0.0,64.0
1010,78.0,96.0,90.0,0.0,64.0
1011,79.0,96.0,90.0,0.0,64.0
1012,78.0,96.0,90.0,0.0,64.0
1013,76.0,96.0,90.0,0.0,64.0
1014,57.0,0.0,390.0,0.0,64.0
1015,74.0,96.0,90.0,0.0,64.0
1016,76.0,96.0,90.0,0.0,64.0
1017,74.0,96.0,90.0,0.0,64.0
1018,73.0,384.0,90.0,0.0,64.0
1019,55.0,0.0,390.0,0.0,64.0
1020,78.0,192.0,180.0,0.0,64.0
1021,79.0,192.0,180.0,0.0,64.0
1022,54.0,192.0,390.0,0.0,64.0
1023,62.0,0.0,390.0,0.0,64.0
1024,78.0,0.0,180.0,0.0,64.0
1025,64.0,0.0,780.0,0.0,64.0
1026,71.0,192.0,15.0,0.0,64.0
1027,73.0,192.0,180.0,0.0,64.0
1028,55.0,192.0,15.0,0.0,64.0
1029,52.0,192.0,390.0,0.0,64.0
1030,71.0,0.0,180.0,0.0,64.0
1031,69.0,192.0,960.0,0.0,64.0
1032,57.0,0.0,780.0,0.0,64.0
1033,54.0,192.0,390.0,0.0,64.0
1034,76.0,192.0,15.0,0.0,64.0
1035,52.0,192.0,390.0,0.0,64.0
1036,61.0,0.0,390.0,0.0,64.0
1037,78.0,192.0,180.0,0.0,64.0
1038,76.0,0.0,180.0,0.0,64.0
1039,62.0,0.0,780.0,0.0,64.0
1040,54.0,192.0,390.0,0.0,64.0
1041,69.0,0.0,180.0,0.0,64.0
1042,71.0,192.0,180.0,0.0,64.0
1043,54.0,0.0,390.0,0.0,64.0
1044,50.0,0.0,390.0,0.0,64.0
1045,69.0,192.0,180.0,0.0,64.0
1046,67.0,192.0,960.0,0.0,64.0
1047,55.0,0.0,780.0,0.0,64.0
1048,52.0,192.0,390.0,0.0,64.0
1049,74.0,192.0,15.0,0.0,64.0
1050,50.0,192.0,390.0,0.0,64.0
1051,76.0,192.0,180.0,0.0,64.0
1052,59.0,0.0,390.0,0.0,64.0
1053,74.0,0.0,180.0,0.0,64.0
1054,73.0,192.0,960.0,0.0,64.0
1055,61.0,192.0,780.0,0.0,64.0
1056,52.0,0.0,390.0,0.0,64.0
1057,67.0,192.0,180.0,0.0,64.0
1058,69.0,192.0,180.0,0.0,64.0
1059,49.0,0.0,390.0,0.0,64.0
1060,52.0,0.0,390.0,0.0,64.0
1061,67.0,0.0,180.0,0.0,64.0
1062,50.0,192.0,390.0,0.0,64.0
1063,54.0,0.0,780.0,0.0,64.0
1064,73.0,0.0,180.0,0.0,64.0
1065,49.0,192.0,390.0,0.0,64.0
1066,74.0,192.0,180.0,0.0,64.0
1067,58.0,0.0,390.0,0.0,64.0
1068,73.0,0.0,180.0,0.0,64.0
1069,59.0,0.0,780.0,0.0,64.0
1070,66.0,192.0,15.0,0.0,64.0
1071,50.0,192.0,15.0,0.0,64.0
1072,47.0,0.0,390.0,0.0,64.0
1073,67.0,192.0,180.0,0.0,64.0
1074,66.0,0.0,180.0,0.0,64.0
1075,55.0,0.0,2310.0,0.0,64.0
1076,52.0,192.0,1140.0,0.0,64.0
1077,49.0,0.0,1140.0,0.0,64.0
1078,64.0,192.0,1740.0,0.0,64.0
1079,71.0,192.0,15.0,0.0,64.0
1080,73.0,192.0,180.0,0.0,64.0
1081,71.0,192.0,180.0,0.0,64.0
1082,70.0,192.0,180.0,0.0,64.0
1083,71.0,0.0,180.0,0.0,64.0
1084,47.0,0.0,390.0,0.0,64.0
1085,50.0,0.0,390.0,0.0,64.0
1086,70.0,192.0,180.0,0.0,64.0
1087,71.0,192.0,180.0,0.0,64.0
1088,46.0,0.0,1530.0,0.0,64.0
1089,73.0,192.0,1740.0,0.0,64.0
1090,49.0,0.0,1530.0,0.0,64.0
1091,64.0,192.0,180.0,0.0,64.0
1092,66.0,192.0,180.0,0.0,64.0
1093,64.0,192.0,180.0,0.0,64.0
1094,54.0,192.0,1530.0,0.0,64.0
1095,62.0,192.0,180.0,0.0,64.0
1096,64.0,192.0,180.0,0.0,64.0
1097,61.0,192.0,180.0,0.0,64.0
1098,64.0,192.0,180.0,0.0,64.0
1099,50.0,192.0,1530.0,0.0,64.0
1100,62.0,192.0,960.0,0.0,64.0
1101,47.0,192.0,390.0,0.0,64.0
1102,73.0,0.0,180.0,0.0,64.0
1103,45.0,0.0,390.0,0.0,64.0
1104,74.0,192.0,180.0,0.0,64.0
1105,73.0,0.0,180.0,0.0,64.0
1106,55.0,0.0,1530.0,0.0,64.0
1107,43.0,0.0,390.0,0.0,64.0
1108,62.0,192.0,180.0,0.0,64.0
1109,64.0,192.0,180.0,0.0,64.0
1110,42.0,0.0,390.0,0.0,64.0
1111,62.0,0.0,180.0,0.0,64.0
1112,61.0,0.0,1530.0,0.0,64.0
1113,52.0,0.0,1530.0,0.0,64.0
1114,40.0,96.0,780.0,0.0,64.0
1115,71.0,192.0,15.0,0.0,64.0
1116,73.0,192.0,180.0,0.0,64.0
1117,71.0,0.0,180.0,0.0,64.0
1118,42.0,192.0,780.0,0.0,64.0
1119,54.0,192.0,960.0,0.0,64.0
1120,71.0,96.0,90.0,0.0,64.0
1121,70.0,96.0,90.0,0.0,64.0
1122,71.0,96.0,90.0,0.0,64.0
1123,70.0,96.0,90.0,0.0,64.0
1124,71.0,96.0,90.0,0.0,64.0
1125,70.0,192.0,90.0,0.0,64.0
1126,71.0,0.0,180.0,0.0,64.0
1127,51.0,192.0,960.0,0.0,64.0
1128,47.0,0.0,6150.0,0.0,64.0
1129,59.0,0.0,1740.0,0.0,64.0
1130,71.0,192.0,4020.0,0.0,64.0
1131,54.0,192.0,180.0,0.0,64.0
1132,52.0,192.0,180.0,0.0,64.0
1133,54.0,192.0,180.0,0.0,64.0
1134,51.0,192.0,180.0,0.0,64.0
1135,49.0,192.0,180.0,0.0,64.0
1136,51.0,192.0,180.0,0.0,64.0
1137,52.0,192.0,15.0,0.0,64.0
1138,55.0,0.0,15.0,0.0,64.0
1139,61.0,192.0,180.0,0.0,64.0
1140,54.0,0.0,180.0,0.0,64.0
1141,51.0,192.0,180.0,0.0,64.0
1142,59.0,0.0,180.0,0.0,64.0
1143,52.0,0.0,180.0,0.0,64.0
1144,55.0,192.0,180.0,0.0,64.0
1145,61.0,0.0,180.0,0.0,64.0
1146,57.0,0.0,180.0,0.0,64.0
1147,54.0,0.0,180.0,0.0,64.0
1148,63.0,192.0,15.0,0.0,64.0
1149,57.0,0.0,180.0,0.0,64.0
1150,54.0,0.0,180.0,0.0,64.0
1151,52.0,0.0,180.0,0.0,64.0
1152,55.0,192.0,180.0,0.0,64.0
1153,61.0,0.0,180.0,0.0,64.0
1154,57.0,192.0,180.0,0.0,64.0
1155,63.0,0.0,180.0,0.0,64.0
1156,54.0,0.0,180.0,0.0,64.0
1157,55.0,192.0,1530.0,0.0,64.0
1158,59.0,192.0,180.0,0.0,64.0
1159,59.0,192.0,180.0,0.0,64.0
1160,58.0,192.0,180.0,0.0,64.0
1161,59.0,192.0,180.0,0.0,64.0
1162,61.0,0.0,780.0,0.0,64.0
1163,73.0,192.0,180.0,0.0,64.0
1164,71.0,192.0,180.0,0.0,64.0
1165,70.0,0.0,180.0,0.0,64.0
1166,71.0,0.0,1530.0,0.0,64.0
1167,54.0,0.0,1530.0,0.0,64.0
1168,59.0,0.0,1530.0,0.0,64.0
1169,64.0,192.0,15.0,0.0,64.0
1170,63.0,192.0,180.0,0.0,64.0
1171,61.0,768.0,180.0,0.0,64.0
1172,63.0,3840.0,780.0,0.0,64.0
1173,71.0,768.0,780.0,0.0,64.0
1174,73.0,768.0,780.0,0.0,64.0
1175,74.0,768.0,780.0,0.0,64.0
1176,71.0,384.0,780.0,0.0,64.0
1177,79.0,384.0,390.0,0.0,64.0
1178,79.0,384.0,390.0,0.0,64.0
1179,79.0,384.0,390.0,0.0,64.0
1180,79.0,768.0,390.0,0.0,64.0
1181,73.0,768.0,780.0,0.0,64.0
1182,73.0,384.0,390.0,0.0,64.0
1183,78.0,384.0,15.0,0.0,64.0
1184,78.0,384.0,390.0,0.0,64.0
1185,78.0,768.0,390.0,0.0,64.0
1186,71.0,768.0,780.0,0.0,64.0
1187,79.0,192.0,390.0,0.0,64.0
1188,78.0,192.0,180.0,0.0,64.0
1189,79.0,192.0,180.0,0.0,64.0
1190,78.0,192.0,180.0,0.0,64.0
1191,79.0,192.0,180.0,0.0,64.0
1192,78.0,192.0,180.0,0.0,64.0
1193,79.0,192.0,180.0,0.0,64.0
1194,78.0,192.0,180.0,0.0,64.0
1195,79.0,192.0,180.0,0.0,64.0
1196,76.0,192.0,180.0,0.0,64.0
1197,78.0,192.0,180.0,0.0,64.0
1198,76.0,192.0,180.0,0.0,64.0
1199,78.0,192.0,180.0,0.0,64.0
1200,76.0,192.0,180.0,0.0,64.0
1201,78.0,192.0,180.0,0.0,64.0
1202,76.0,192.0,180.0,0.0,64.0
1203,78.0,768.0,180.0,0.0,64.0
1204,66.0,576.0,780.0,0.0,64.0
1205,74.0,0.0,780.0,0.0,64.0
1206,73.0,192.0,570.0,0.0,64.0
1207,68.0,768.0,780.0,0.0,64.0
1208,71.0,0.0,180.0,0.0,64.0
1209,69.0,0.0,780.0,0.0,64.0
1210,73.0,768.0,780.0,0.0,64.0
1211,81.0,0.0,1140.0,0.0,64.0
1212,66.0,384.0,780.0,0.0,64.0
1213,74.0,192.0,390.0,0.0,64.0
1214,80.0,192.0,180.0,0.0,64.0
1215,74.0,384.0,390.0,0.0,64.0
1216,78.0,0.0,180.0,0.0,64.0
1217,83.0,0.0,780.0,0.0,64.0
1218,74.0,384.0,390.0,0.0,64.0
1219,74.0,192.0,390.0,0.0,64.0
1220,68.0,192.0,780.0,0.0,64.0
1221,83.0,192.0,180.0,0.0,64.0
1222,85.0,192.0,180.0,0.0,64.0
1223,81.0,192.0,180.0,0.0,64.0
1224,83.0,0.0,180.0,0.0,64.0
1225,80.0,192.0,180.0,0.0,64.0
1226,81.0,192.0,180.0,0.0,64.0
1227,78.0,192.0,180.0,0.0,64.0
1228,68.0,384.0,390.0,0.0,64.0
1229,80.0,0.0,180.0,0.0,64.0
1230,77.0,192.0,960.0,0.0,64.0
1231,73.0,384.0,15.0,0.0,64.0
1232,73.0,192.0,15.0,0.0,64.0
1233,80.0,192.0,180.0,0.0,64.0
1234,73.0,0.0,390.0,0.0,64.0
1235,78.0,192.0,180.0,0.0,64.0
1236,80.0,192.0,180.0,0.0,64.0
1237,81.0,192.0,180.0,0.0,64.0
1238,66.0,384.0,780.0,0.0,64.0
1239,83.0,192.0,180.0,0.0,64.0
1240,80.0,192.0,180.0,0.0,64.0
1241,81.0,0.0,180.0,0.0,64.0
1242,78.0,384.0,390.0,0.0,64.0
1243,74.0,192.0,390.0,0.0,64.0
1244,83.0,192.0,780.0,0.0,64.0
1245,73.0,192.0,180.0,0.0,64.0
1246,74.0,0.0,180.0,0.0,64.0
1247,76.0,192.0,390.0,0.0,64.0
1248,73.0,192.0,180.0,0.0,64.0
1249,74.0,0.0,180.0,0.0,64.0
1250,81.0,192.0,1140.0,0.0,64.0
1251,73.0,192.0,180.0,0.0,64.0
1252,74.0,192.0,180.0,0.0,64.0
1253,73.0,192.0,180.0,0.0,64.0
1254,74.0,192.0,180.0,0.0,64.0
1255,71.0,192.0,180.0,0.0,64.0
1256,73.0,0.0,180.0,0.0,64.0
1257,86.0,192.0,390.0,0.0,64.0
1258,71.0,192.0,180.0,0.0,64.0
1259,73.0,0.0,180.0,0.0,64.0
1260,71.0,192.0,180.0,0.0,64.0
1261,80.0,384.0,1140.0,0.0,64.0
1262,73.0,192.0,180.0,0.0,64.0
1263,71.0,192.0,180.0,0.0,64.0
1264,73.0,384.0,180.0,0.0,64.0
1265,69.0,576.0,780.0,0.0,64.0
1266,73.0,0.0,390.0,0.0,64.0
1267,68.0,192.0,570.0,0.0,64.0
1268,78.0,192.0,960.0,0.0,64.0
1269,66.0,192.0,180.0,0.0,64.0
1270,68.0,96.0,780.0,0.0,64.0
1271,81.0,192.0,180.0,0.0,64.0
1272,80.0,192.0,180.0,0.0,64.0
1273,83.0,0.0,180.0,0.0,64.0
1274,78.0,96.0,90.0,0.0,64.0
1275,73.0,0.0,780.0,0.0,64.0
1276,77.0,96.0,90.0,0.0,64.0
1277,78.0,96.0,90.0,0.0,64.0
1278,77.0,96.0,90.0,0.0,64.0
1279,78.0,96.0,90.0,0.0,64.0
1280,77.0,192.0,90.0,0.0,64.0
1281,66.0,384.0,390.0,0.0,64.0
1282,78.0,384.0,15.0,0.0,64.0
1283,74.0,192.0,780.0,0.0,64.0
1284,76.0,192.0,1140.0,0.0,64.0
1285,73.0,192.0,180.0,0.0,64.0
1286,71.0,384.0,180.0,0.0,64.0
1287,70.0,192.0,780.0,0.0,64.0
1288,74.0,192.0,180.0,0.0,64.0
1289,73.0,0.0,180.0,0.0,64.0
1290,71.0,0.0,1140.0,0.0,64.0
1291,74.0,192.0,180.0,0.0,64.0
1292,79.0,192.0,180.0,0.0,64.0
1293,78.0,192.0,180.0,0.0,64.0
1294,79.0,384.0,180.0,0.0,64.0
1295,73.0,192.0,390.0,0.0,64.0
1296,70.0,192.0,180.0,0.0,64.0
1297,78.0,192.0,570.0,0.0,64.0
1298,68.0,192.0,180.0,0.0,64.0
1299,70.0,0.0,780.0,0.0,64.0
1300,79.0,192.0,180.0,0.0,64.0
1301,76.0,192.0,180.0,0.0,64.0
1302,78.0,192.0,180.0,0.0,64.0
1303,59.0,0.0,780.0,0.0,64.0
1304,71.0,192.0,780.0,0.0,64.0
1305,74.0,192.0,180.0,0.0,64.0
1306,76.0,192.0,180.0,0.0,64.0
1307,73.0,192.0,180.0,0.0,64.0
1308,74.0,0.0,180.0,0.0,64.0
1309,61.0,0.0,780.0,0.0,64.0
1310,76.0,192.0,180.0,0.0,64.0
1311,69.0,0.0,570.0,0.0,64.0
1312,78.0,192.0,180.0,0.0,64.0
1313,74.0,192.0,180.0,0.0,64.0
1314,67.0,192.0,180.0,0.0,64.0
1315,76.0,0.0,180.0,0.0,64.0
1316,62.0,384.0,780.0,0.0,64.0
1317,78.0,192.0,180.0,0.0,64.0
1318,66.0,0.0,780.0,0.0,64.0
1319,79.0,192.0,180.0,0.0,64.0
1320,76.0,192.0,180.0,0.0,64.0
1321,78.0,0.0,180.0,0.0,64.0
1322,74.0,0.0,1140.0,0.0,64.0
1323,59.0,384.0,780.0,0.0,64.0
1324,78.0,192.0,180.0,0.0,64.0
1325,79.0,192.0,180.0,0.0,64.0
1326,81.0,0.0,180.0,0.0,64.0
1327,67.0,192.0,390.0,0.0,64.0
1328,83.0,192.0,960.0,0.0,64.0
1329,73.0,192.0,180.0,0.0,64.0
1330,71.0,0.0,180.0,0.0,64.0
1331,67.0,192.0,15.0,0.0,64.0
1332,76.0,0.0,1350.0,0.0,64.0
1333,81.0,0.0,180.0,0.0,64.0
1334,79.0,192.0,180.0,0.0,64.0
1335,67.0,192.0,15.0,0.0,64.0
1336,78.0,0.0,180.0,0.0,64.0
1337,61.0,0.0,780.0,0.0,64.0
1338,78.0,192.0,180.0,0.0,64.0
1339,74.0,192.0,180.0,0.0,64.0
1340,76.0,192.0,180.0,0.0,64.0
1341,73.0,192.0,180.0,0.0,64.0
1342,74.0,192.0,180.0,0.0,64.0
1343,71.0,192.0,180.0,0.0,64.0
1344,61.0,192.0,390.0,0.0,64.0
1345,73.0,0.0,180.0,0.0,64.0
1346,69.0,192.0,180.0,0.0,64.0
1347,81.0,192.0,960.0,0.0,64.0
1348,73.0,192.0,180.0,0.0,64.0
1349,71.0,192.0,180.0,0.0,64.0
1350,66.0,0.0,15.0,0.0,64.0
1351,73.0,0.0,180.0,0.0,64.0
1352,66.0,192.0,15.0,0.0,64.0
1353,79.0,192.0,180.0,0.0,64.0
1354,78.0,192.0,180.0,0.0,64.0
1355,66.0,0.0,390.0,0.0,64.0
1356,76.0,384.0,180.0,0.0,64.0
1357,59.0,0.0,780.0,0.0,64.0
1358,76.0,192.0,180.0,0.0,64.0
1359,73.0,192.0,180.0,0.0,64.0
1360,74.0,0.0,15.0,0.0,64.0
1361,71.0,384.0,390.0,0.0,64.0
1362,67.0,192.0,390.0,0.0,64.0
1363,76.0,0.0,780.0,0.0,64.0
1364,66.0,192.0,180.0,0.0,64.0
1365,81.0,192.0,960.0,0.0,64.0
1366,67.0,192.0,180.0,0.0,64.0
1367,66.0,192.0,180.0,0.0,64.0
1368,69.0,0.0,390.0,0.0,64.0
1369,67.0,192.0,180.0,0.0,64.0
1370,74.0,192.0,1140.0,0.0,64.0
1371,66.0,0.0,180.0,0.0,64.0
1372,67.0,192.0,180.0,0.0,64.0
1373,83.0,0.0,180.0,0.0,64.0
1374,81.0,0.0,180.0,0.0,64.0
1375,66.0,192.0,180.0,0.0,64.0
1376,67.0,192.0,180.0,0.0,64.0
1377,83.0,0.0,180.0,0.0,64.0
1378,64.0,192.0,180.0,0.0,64.0
1379,79.0,192.0,960.0,0.0,64.0
1380,66.0,0.0,180.0,0.0,64.0
1381,64.0,192.0,180.0,0.0,64.0
1382,67.0,0.0,390.0,0.0,64.0
1383,66.0,192.0,180.0,0.0,64.0
1384,73.0,384.0,1140.0,0.0,64.0
1385,64.0,0.0,180.0,0.0,64.0
1386,81.0,192.0,180.0,0.0,64.0
1387,66.0,0.0,180.0,0.0,64.0
1388,64.0,192.0,180.0,0.0,64.0
1389,79.0,0.0,180.0,0.0,64.0
1390,66.0,384.0,180.0,0.0,64.0
1391,81.0,0.0,180.0,0.0,64.0
1392,62.0,192.0,780.0,0.0,64.0
1393,78.0,192.0,960.0,0.0,64.0
1394,66.0,0.0,390.0,0.0,64.0
1395,61.0,0.0,390.0,0.0,64.0
1396,81.0,192.0,180.0,0.0,64.0
1397,79.0,192.0,180.0,0.0,64.0
1398,59.0,0.0,390.0,0.0,64.0
1399,78.0,192.0,180.0,0.0,64.0
1400,71.0,0.0,15.0,0.0,64.0
1401,61.0,0.0,780.0,0.0,64.0
1402,74.0,192.0,180.0,0.0,64.0
1403,73.0,192.0,180.0,0.0,64.0
1404,76.0,0.0,15.0,0.0,64.0
1405,66.0,192.0,780.0,0.0,64.0
1406,70.0,0.0,780.0,0.0,64.0
1407,76.0,192.0,15.0,0.0,64.0
1408,79.0,192.0,180.0,0.0,64.0
1409,78.0,192.0,180.0,0.0,64.0
1410,76.0,0.0,180.0,0.0,64.0
1411,59.0,0.0,390.0,0.0,64.0
1412,74.0,192.0,180.0,0.0,64.0
1413,71.0,0.0,1530.0,0.0,64.0
1414,73.0,192.0,180.0,0.0,64.0
1415,61.0,0.0,390.0,0.0,64.0
1416,74.0,192.0,180.0,0.0,64.0
1417,76.0,192.0,180.0,0.0,64.0
1418,78.0,192.0,180.0,0.0,64.0
1419,62.0,192.0,390.0,0.0,64.0
1420,76.0,0.0,180.0,0.0,64.0
1421,74.0,192.0,180.0,0.0,64.0
1422,64.0,192.0,390.0,0.0,64.0
1423,76.0,0.0,180.0,0.0,64.0
1424,73.0,192.0,180.0,0.0,64.0
1425,54.0,192.0,780.0,0.0,64.0
1426,69.0,0.0,780.0,0.0,64.0
1427,66.0,0.0,780.0,0.0,64.0
1428,71.0,192.0,180.0,0.0,64.0
1429,73.0,192.0,180.0,0.0,64.0
1430,74.0,0.0,180.0,0.0,64.0
1431,71.0,192.0,180.0,0.0,64.0
1432,76.0,192.0,960.0,0.0,64.0
1433,56.0,0.0,780.0,0.0,64.0
1434,64.0,0.0,570.0,0.0,64.0
1435,68.0,192.0,180.0,0.0,64.0
1436,69.0,192.0,180.0,0.0,64.0
1437,62.0,0.0,180.0,0.0,64.0
1438,71.0,192.0,180.0,0.0,64.0
1439,64.0,0.0,780.0,0.0,64.0
1440,61.0,0.0,780.0,0.0,64.0
1441,57.0,192.0,780.0,0.0,64.0
1442,73.0,192.0,180.0,0.0,64.0
1443,74.0,192.0,180.0,0.0,64.0
1444,76.0,0.0,180.0,0.0,64.0
1445,69.0,192.0,180.0,0.0,64.0
1446,54.0,0.0,780.0,0.0,64.0
1447,73.0,192.0,180.0,0.0,64.0
1448,75.0,192.0,180.0,0.0,64.0
1449,77.0,192.0,180.0,0.0,64.0
1450,78.0,192.0,180.0,0.0,64.0
1451,80.0,0.0,180.0,0.0,64.0
1452,76.0,192.0,180.0,0.0,64.0
1453,62.0,0.0,15.0,0.0,64.0
1454,68.0,0.0,180.0,0.0,64.0
1455,66.0,0.0,180.0,0.0,64.0
1456,78.0,0.0,180.0,0.0,64.0
1457,62.0,192.0,15.0,0.0,64.0
1458,74.0,192.0,180.0,0.0,64.0
1459,76.0,0.0,180.0,0.0,64.0
1460,62.0,192.0,15.0,0.0,64.0
1461,73.0,192.0,180.0,0.0,64.0
1462,74.0,0.0,180.0,0.0,64.0
1463,71.0,192.0,180.0,0.0,64.0
1464,56.0,0.0,780.0,0.0,64.0
1465,73.0,192.0,180.0,0.0,64.0
1466,69.0,192.0,180.0,0.0,64.0
1467,71.0,0.0,180.0,0.0,64.0
1468,68.0,192.0,180.0,0.0,64.0
1469,69.0,192.0,180.0,0.0,64.0
1470,56.0,192.0,390.0,0.0,64.0
1471,66.0,192.0,180.0,0.0,64.0
1472,71.0,0.0,390.0,0.0,64.0
1473,68.0,0.0,180.0,0.0,64.0
1474,76.0,192.0,180.0,0.0,64.0
1475,64.0,192.0,390.0,0.0,64.0
1476,78.0,0.0,180.0,0.0,64.0
1477,61.0,0.0,15.0,0.0,64.0
1478,74.0,192.0,180.0,0.0,64.0
1479,66.0,0.0,180.0,0.0,64.0
1480,68.0,192.0,180.0,0.0,64.0
1481,76.0,0.0,180.0,0.0,64.0
1482,73.0,192.0,180.0,0.0,64.0
1483,61.0,0.0,390.0,0.0,64.0
1484,74.0,192.0,180.0,0.0,64.0
1485,61.0,192.0,390.0,0.0,64.0
1486,71.0,192.0,180.0,0.0,64.0
1487,73.0,0.0,180.0,0.0,64.0
1488,54.0,0.0,780.0,0.0,64.0
1489,69.0,192.0,180.0,0.0,64.0
1490,73.0,192.0,180.0,0.0,64.0
1491,68.0,192.0,180.0,0.0,64.0
1492,69.0,0.0,180.0,0.0,64.0
1493,66.0,192.0,780.0,0.0,64.0
1494,76.0,192.0,180.0,0.0,64.0
1495,78.0,192.0,180.0,0.0,64.0
1496,62.0,0.0,390.0,0.0,64.0
1497,80.0,0.0,180.0,0.0,64.0
1498,81.0,0.0,1140.0,0.0,64.0
1499,61.0,192.0,180.0,0.0,64.0
1500,62.0,192.0,180.0,0.0,64.0
1501,64.0,192.0,390.0,0.0,64.0
1502,61.0,192.0,180.0,0.0,64.0
1503,62.0,0.0,180.0,0.0,64.0
1504,69.0,0.0,1140.0,0.0,64.0
1505,61.0,192.0,180.0,0.0,64.0
1506,62.0,192.0,180.0,0.0,64.0
1507,61.0,192.0,180.0,0.0,64.0
1508,81.0,0.0,390.0,0.0,64.0
1509,62.0,192.0,180.0,0.0,64.0
1510,59.0,192.0,180.0,0.0,64.0
1511,61.0,192.0,180.0,0.0,64.0
1512,69.0,192.0,390.0,0.0,64.0
1513,59.0,192.0,180.0,0.0,64.0
1514,61.0,0.0,180.0,0.0,64.0
1515,59.0,192.0,180.0,0.0,64.0
1516,68.0,192.0,960.0,0.0,64.0
1517,61.0,0.0,180.0,0.0,64.0
1518,86.0,192.0,15.0,0.0,64.0
1519,59.0,192.0,180.0,0.0,64.0
1520,61.0,0.0,180.0,0.0,64.0
1521,57.0,0.0,780.0,0.0,64.0
1522,85.0,0.0,780.0,0.0,64.0
1523,61.0,192.0,180.0,0.0,64.0
1524,63.0,192.0,180.0,0.0,64.0
1525,65.0,384.0,180.0,0.0,64.0
1526,66.0,192.0,960.0,0.0,64.0
1527,56.0,0.0,390.0,0.0,64.0
1528,78.0,192.0,180.0,0.0,64.0
1529,54.0,192.0,390.0,0.0,64.0
1530,80.0,192.0,180.0,0.0,64.0
1531,81.0,0.0,180.0,0.0,64.0
1532,56.0,192.0,780.0,0.0,64.0
1533,83.0,192.0,960.0,0.0,64.0
1534,66.0,192.0,180.0,0.0,64.0
1535,65.0,192.0,180.0,0.0,64.0
1536,63.0,0.0,180.0,0.0,64.0
1537,65.0,192.0,780.0,0.0,64.0
1538,61.0,0.0,780.0,0.0,64.0
1539,83.0,192.0,180.0,0.0,64.0
1540,81.0,192.0,180.0,0.0,64.0
1541,80.0,0.0,180.0,0.0,64.0
1542,54.0,192.0,1140.0,0.0,64.0
1543,66.0,192.0,180.0,0.0,64.0
1544,81.0,192.0,960.0,0.0,64.0
1545,57.0,192.0,180.0,0.0,64.0
1546,59.0,192.0,180.0,0.0,64.0
1547,61.0,192.0,180.0,0.0,64.0
1548,62.0,192.0,960.0,0.0,64.0
1549,74.0,0.0,180.0,0.0,64.0
1550,76.0,192.0,180.0,0.0,64.0
1551,59.0,0.0,390.0,0.0,64.0
1552,78.0,192.0,180.0,0.0,64.0
1553,52.0,0.0,780.0,0.0,64.0
1554,62.0,192.0,180.0,0.0,64.0
1555,61.0,192.0,180.0,0.0,64.0
1556,59.0,192.0,180.0,0.0,64.0
1557,61.0,192.0,780.0,0.0,64.0
1558,57.0,0.0,780.0,0.0,64.0
1559,79.0,192.0,15.0,0.0,64.0
1560,78.0,192.0,180.0,0.0,64.0
1561,76.0,0.0,180.0,0.0,64.0
1562,50.0,192.0,1140.0,0.0,64.0
1563,62.0,192.0,180.0,0.0,64.0
1564,57.0,192.0,180.0,0.0,64.0
1565,62.0,192.0,180.0,0.0,64.0
1566,61.0,192.0,180.0,0.0,64.0
1567,78.0,192.0,15.0,0.0,64.0
1568,83.0,192.0,180.0,0.0,64.0
1569,51.0,192.0,390.0,0.0,64.0
1570,81.0,0.0,180.0,0.0,64.0
1571,79.0,192.0,180.0,0.0,64.0
1572,52.0,0.0,390.0,0.0,64.0
1573,59.0,0.0,15.0,0.0,64.0
1574,81.0,0.0,180.0,0.0,64.0
1575,79.0,0.0,180.0,0.0,64.0
1576,64.0,192.0,180.0,0.0,64.0
1577,50.0,0.0,390.0,0.0,64.0
1578,78.0,0.0,180.0,0.0,64.0
1579,66.0,192.0,180.0,0.0,64.0
1580,76.0,0.0,180.0,0.0,64.0
1581,67.0,192.0,180.0,0.0,64.0
1582,49.0,0.0,390.0,0.0,64.0
1583,74.0,0.0,180.0,0.0,64.0
1584,66.0,192.0,180.0,0.0,64.0
1585,73.0,0.0,180.0,0.0,64.0
1586,52.0,0.0,390.0,0.0,64.0
1587,64.0,192.0,180.0,0.0,64.0
1588,62.0,192.0,180.0,0.0,64.0
1589,71.0,0.0,180.0,0.0,64.0
1590,61.0,0.0,180.0,0.0,64.0
1591,70.0,192.0,180.0,0.0,64.0
1592,54.0,0.0,390.0,0.0,64.0
1593,73.0,192.0,180.0,0.0,64.0
1594,59.0,0.0,180.0,0.0,64.0
1595,58.0,192.0,180.0,0.0,64.0
1596,74.0,0.0,180.0,0.0,64.0
1597,52.0,0.0,390.0,0.0,64.0
1598,76.0,0.0,180.0,0.0,64.0
1599,56.0,192.0,180.0,0.0,64.0
1600,78.0,192.0,180.0,0.0,64.0
1601,54.0,0.0,180.0,0.0,64.0
1602,52.0,0.0,180.0,0.0,64.0
1603,80.0,0.0,180.0,0.0,64.0
1604,82.0,0.0,180.0,0.0,64.0
1605,50.0,192.0,15.0,0.0,64.0
1606,54.0,0.0,390.0,0.0,64.0
1607,49.0,0.0,180.0,0.0,64.0
1608,78.0,192.0,180.0,0.0,64.0
1609,47.0,192.0,180.0,0.0,64.0
1610,83.0,0.0,180.0,0.0,64.0
1611,55.0,0.0,390.0,0.0,64.0
1612,74.0,192.0,180.0,0.0,64.0
1613,59.0,0.0,180.0,0.0,64.0
1614,52.0,96.0,390.0,0.0,64.0
1615,76.0,0.0,180.0,0.0,64.0
1616,61.0,192.0,180.0,0.0,64.0
1617,78.0,0.0,180.0,0.0,64.0
1618,62.0,0.0,180.0,0.0,64.0
1619,54.0,96.0,390.0,0.0,64.0
1620,59.0,0.0,90.0,0.0,64.0
1621,74.0,96.0,90.0,0.0,64.0
1622,73.0,0.0,90.0,0.0,64.0
1623,58.0,96.0,90.0,0.0,64.0
1624,59.0,96.0,90.0,0.0,64.0
1625,74.0,0.0,90.0,0.0,64.0
1626,58.0,0.0,90.0,0.0,64.0
1627,73.0,0.0,90.0,0.0,64.0
1628,59.0,96.0,90.0,0.0,64.0
1629,74.0,0.0,90.0,0.0,64.0
1630,42.0,192.0,390.0,0.0,64.0
1631,73.0,0.0,90.0,0.0,64.0
1632,58.0,192.0,90.0,0.0,64.0
1633,47.0,192.0,780.0,0.0,64.0
1634,71.0,0.0,15.0,0.0,64.0
1635,59.0,0.0,15.0,0.0,64.0
1636,62.0,384.0,180.0,0.0,64.0
1637,67.0,192.0,570.0,0.0,64.0
1638,74.0,0.0,180.0,0.0,64.0
1639,73.0,192.0,780.0,0.0,64.0
1640,64.0,192.0,180.0,0.0,64.0
1641,69.0,0.0,180.0,0.0,64.0
1642,67.0,0.0,180.0,0.0,64.0
1643,76.0,192.0,15.0,0.0,64.0
1644,66.0,192.0,390.0,0.0,64.0
1645,78.0,192.0,180.0,0.0,64.0
1646,74.0,0.0,780.0,0.0,64.0
1647,79.0,0.0,180.0,0.0,64.0
1648,62.0,192.0,390.0,0.0,64.0
1649,78.0,192.0,180.0,0.0,64.0
1650,76.0,0.0,180.0,0.0,64.0
1651,67.0,192.0,180.0,0.0,64.0
1652,71.0,0.0,780.0,0.0,64.0
1653,74.0,0.0,390.0,0.0,64.0
1654,69.0,192.0,180.0,0.0,64.0
1655,67.0,192.0,180.0,0.0,64.0
1656,66.0,192.0,180.0,0.0,64.0
1657,64.0,0.0,960.0,0.0,64.0
1658,83.0,192.0,15.0,0.0,64.0
1659,79.0,0.0,15.0,0.0,64.0
1660,85.0,192.0,180.0,0.0,64.0
1661,86.0,0.0,180.0,0.0,64.0
1662,88.0,192.0,180.0,0.0,64.0
1663,79.0,192.0,15.0,0.0,64.0
1664,85.0,0.0,180.0,0.0,64.0
1665,64.0,192.0,180.0,0.0,64.0
1666,62.0,192.0,180.0,0.0,64.0
1667,79.0,192.0,390.0,0.0,64.0
1668,86.0,0.0,180.0,0.0,64.0
1669,88.0,0.0,180.0,0.0,64.0
1670,61.0,0.0,180.0,0.0,64.0
1671,82.0,0.0,390.0,0.0,64.0
1672,66.0,192.0,180.0,0.0,64.0
1673,73.0,0.0,780.0,0.0,64.0
1674,64.0,192.0,180.0,0.0,64.0
1675,85.0,192.0,390.0,0.0,64.0
1676,66.0,192.0,180.0,0.0,64.0
1677,67.0,0.0,180.0,0.0,64.0
1678,66.0,192.0,180.0,0.0,64.0
1679,78.0,0.0,780.0,0.0,64.0
1680,67.0,192.0,180.0,0.0,64.0
1681,66.0,192.0,180.0,0.0,64.0
1682,73.0,384.0,390.0,0.0,64.0
1683,64.0,0.0,180.0,0.0,64.0
1684,62.0,192.0,960.0,0.0,64.0
1685,83.0,192.0,180.0,0.0,64.0
1686,78.0,0.0,15.0,0.0,64.0
1687,86.0,192.0,180.0,0.0,64.0
1688,85.0,192.0,180.0,0.0,64.0
1689,78.0,0.0,15.0,0.0,64.0
1690,83.0,0.0,180.0,0.0,64.0
1691,85.0,0.0,180.0,0.0,64.0
1692,59.0,192.0,180.0,0.0,64.0
1693,83.0,192.0,180.0,0.0,64.0
1694,78.0,0.0,15.0,0.0,64.0
1695,61.0,0.0,180.0,0.0,64.0
1696,63.0,192.0,180.0,0.0,64.0
1697,81.0,0.0,180.0,0.0,64.0
1698,79.0,0.0,180.0,0.0,64.0
1699,71.0,0.0,780.0,0.0,64.0
1700,64.0,192.0,180.0,0.0,64.0
1701,78.0,192.0,180.0,0.0,64.0
1702,66.0,0.0,180.0,0.0,64.0
1703,67.0,192.0,180.0,0.0,64.0
1704,76.0,192.0,390.0,0.0,64.0
1705,66.0,0.0,180.0,0.0,64.0
1706,85.0,0.0,1530.0,0.0,64.0
1707,64.0,192.0,180.0,0.0,64.0
1708,62.0,192.0,180.0,0.0,64.0
1709,64.0,192.0,180.0,0.0,64.0
1710,79.0,0.0,390.0,0.0,64.0
1711,61.0,192.0,180.0,0.0,64.0
1712,62.0,192.0,390.0,0.0,64.0
1713,78.0,192.0,180.0,0.0,64.0
1714,79.0,0.0,180.0,0.0,64.0
1715,50.0,192.0,390.0,0.0,64.0
1716,78.0,192.0,180.0,0.0,64.0
1717,79.0,0.0,180.0,0.0,64.0
1718,78.0,192.0,180.0,0.0,64.0
1719,83.0,0.0,1530.0,0.0,64.0
1720,55.0,0.0,180.0,0.0,64.0
1721,79.0,192.0,180.0,0.0,64.0
1722,57.0,0.0,180.0,0.0,64.0
1723,78.0,192.0,180.0,0.0,64.0
1724,79.0,0.0,180.0,0.0,64.0
1725,59.0,192.0,180.0,0.0,64.0
1726,76.0,192.0,180.0,0.0,64.0
1727,49.0,0.0,180.0,0.0,64.0
1728,78.0,192.0,180.0,0.0,64.0
1729,50.0,0.0,180.0,0.0,64.0
1730,76.0,192.0,180.0,0.0,64.0
1731,52.0,0.0,180.0,0.0,64.0
1732,49.0,192.0,180.0,0.0,64.0
1733,78.0,0.0,180.0,0.0,64.0
1734,54.0,0.0,390.0,0.0,64.0
1735,76.0,192.0,180.0,0.0,64.0
1736,82.0,0.0,780.0,0.0,64.0
1737,78.0,192.0,180.0,0.0,64.0
1738,76.0,192.0,180.0,0.0,64.0
1739,42.0,0.0,390.0,0.0,64.0
1740,78.0,192.0,180.0,0.0,64.0
1741,47.0,192.0,180.0,0.0,64.0
1742,83.0,0.0,390.0,0.0,64.0
1743,74.0,192.0,780.0,0.0,64.0
1744,59.0,192.0,180.0,0.0,64.0
1745,78.0,192.0,570.0,0.0,64.0
1746,61.0,192.0,180.0,0.0,64.0
1747,62.0,0.0,180.0,0.0,64.0
1748,58.0,0.0,390.0,0.0,64.0
1749,73.0,96.0,390.0,0.0,64.0
1750,76.0,0.0,180.0,0.0,64.0
1751,59.0,384.0,390.0,0.0,64.0
1752,71.0,96.0,300.0,0.0,64.0
1753,74.0,96.0,90.0,0.0,64.0
1754,73.0,96.0,90.0,0.0,64.0
1755,74.0,0.0,90.0,0.0,64.0
1756,71.0,0.0,90.0,0.0,64.0
1757,76.0,192.0,780.0,0.0,64.0
1758,55.0,192.0,180.0,0.0,64.0
1759,83.0,192.0,570.0,0.0,64.0
1760,54.0,192.0,180.0,0.0,64.0
1761,52.0,0.0,180.0,0.0,64.0
1762,51.0,0.0,390.0,0.0,64.0
1763,78.0,192.0,780.0,0.0,64.0
1764,84.0,192.0,180.0,0.0,64.0
1765,83.0,192.0,180.0,0.0,64.0
1766,47.0,0.0,390.0,0.0,64.0
1767,81.0,0.0,180.0,0.0,64.0
1768,52.0,192.0,180.0,0.0,64.0
1769,79.0,0.0,780.0,0.0,64.0
1770,71.0,0.0,780.0,0.0,64.0
1771,55.0,192.0,180.0,0.0,64.0
1772,54.0,192.0,180.0,0.0,64.0
1773,57.0,192.0,180.0,0.0,64.0
1774,55.0,192.0,180.0,0.0,64.0
1775,54.0,192.0,180.0,0.0,64.0
1776,55.0,192.0,180.0,0.0,64.0
1777,71.0,192.0,390.0,0.0,64.0
1778,52.0,0.0,180.0,0.0,64.0
1779,57.0,0.0,180.0,0.0,64.0
1780,73.0,192.0,180.0,0.0,64.0
1781,79.0,0.0,15.0,0.0,64.0
1782,76.0,192.0,180.0,0.0,64.0
1783,61.0,0.0,180.0,0.0,64.0
1784,74.0,192.0,180.0,0.0,64.0
1785,59.0,0.0,180.0,0.0,64.0
1786,62.0,192.0,180.0,0.0,64.0
1787,78.0,0.0,180.0,0.0,64.0
1788,76.0,0.0,180.0,0.0,64.0
1789,61.0,192.0,180.0,0.0,64.0
1790,74.0,0.0,180.0,0.0,64.0
1791,59.0,192.0,180.0,0.0,64.0
1792,76.0,0.0,180.0,0.0,64.0
1793,61.0,192.0,180.0,0.0,64.0
1794,57.0,0.0,180.0,0.0,64.0
1795,73.0,192.0,180.0,0.0,64.0
1796,62.0,192.0,180.0,0.0,64.0
1797,78.0,0.0,780.0,0.0,64.0
1798,74.0,0.0,390.0,0.0,64.0
1799,66.0,192.0,180.0,0.0,64.0
1800,69.0,0.0,390.0,0.0,64.0
1801,64.0,192.0,180.0,0.0,64.0
1802,67.0,192.0,180.0,0.0,64.0
1803,74.0,0.0,180.0,0.0,64.0
1804,66.0,192.0,180.0,0.0,64.0
1805,64.0,192.0,180.0,0.0,64.0
1806,76.0,0.0,180.0,0.0,64.0
1807,74.0,0.0,180.0,0.0,64.0
1808,66.0,192.0,180.0,0.0,64.0
1809,62.0,0.0,180.0,0.0,64.0
1810,73.0,192.0,180.0,0.0,64.0
1811,71.0,0.0,390.0,0.0,64.0
1812,67.0,192.0,180.0,0.0,64.0
1813,69.0,192.0,180.0,0.0,64.0
1814,74.0,0.0,390.0,0.0,64.0
1815,67.0,192.0,180.0,0.0,64.0
1816,66.0,192.0,180.0,0.0,64.0
1817,65.0,0.0,180.0,0.0,64.0
1818,73.0,192.0,180.0,0.0,64.0
1819,74.0,192.0,180.0,0.0,64.0
1820,66.0,0.0,180.0,0.0,64.0
1821,63.0,192.0,180.0,0.0,64.0
1822,71.0,0.0,180.0,0.0,64.0
1823,73.0,0.0,180.0,0.0,64.0
1824,65.0,192.0,180.0,0.0,64.0
1825,69.0,0.0,180.0,0.0,64.0
1826,66.0,192.0,180.0,0.0,64.0
1827,78.0,192.0,780.0,0.0,64.0
1828,64.0,0.0,180.0,0.0,64.0
1829,73.0,192.0,180.0,0.0,64.0
1830,62.0,192.0,180.0,0.0,64.0
1831,66.0,192.0,570.0,0.0,64.0
1832,61.0,0.0,180.0,0.0,64.0
1833,59.0,0.0,180.0,0.0,64.0
1834,80.0,192.0,780.0,0.0,64.0
1835,56.0,0.0,180.0,0.0,64.0
1836,78.0,192.0,180.0,0.0,64.0
1837,61.0,0.0,180.0,0.0,64.0
1838,77.0,96.0,180.0,0.0,64.0
1839,49.0,0.0,180.0,0.0,64.0
1840,75.0,96.0,90.0,0.0,64.0
1841,77.0,0.0,90.0,0.0,64.0
1842,54.0,0.0,780.0,0.0,64.0
1843,78.0,192.0,180.0,0.0,64.0
1844,81.0,192.0,780.0,0.0,64.0
1845,80.0,192.0,180.0,0.0,64.0
1846,76.0,192.0,180.0,0.0,64.0
1847,78.0,0.0,180.0,0.0,64.0
1848,74.0,192.0,180.0,0.0,64.0
1849,78.0,192.0,780.0,0.0,64.0
1850,76.0,192.0,180.0,0.0,64.0
1851,73.0,192.0,180.0,0.0,64.0
1852,74.0,0.0,180.0,0.0,64.0
1853,71.0,192.0,180.0,0.0,64.0
1854,66.0,192.0,180.0,0.0,64.0
1855,86.0,0.0,15.0,0.0,64.0
1856,71.0,192.0,180.0,0.0,64.0
1857,74.0,0.0,180.0,0.0,64.0
1858,86.0,192.0,390.0,0.0,64.0
1859,78.0,192.0,180.0,0.0,64.0
1860,74.0,0.0,180.0,0.0,64.0
1861,86.0,0.0,390.0,0.0,64.0
1862,71.0,192.0,180.0,0.0,64.0
1863,74.0,192.0,180.0,0.0,64.0
1864,80.0,0.0,780.0,0.0,64.0
1865,76.0,192.0,180.0,0.0,64.0
1866,71.0,192.0,180.0,0.0,64.0
1867,68.0,192.0,180.0,0.0,64.0
1868,71.0,192.0,180.0,0.0,64.0
1869,64.0,192.0,180.0,0.0,64.0
1870,74.0,192.0,180.0,0.0,64.0
1871,80.0,192.0,390.0,0.0,64.0
1872,73.0,192.0,180.0,0.0,64.0
1873,71.0,0.0,180.0,0.0,64.0
1874,85.0,0.0,390.0,0.0,64.0
1875,69.0,192.0,180.0,0.0,64.0
1876,64.0,192.0,180.0,0.0,64.0
1877,69.0,192.0,180.0,0.0,64.0
1878,85.0,0.0,390.0,0.0,64.0
1879,73.0,192.0,180.0,0.0,64.0
1880,85.0,192.0,390.0,0.0,64.0
1881,76.0,192.0,180.0,0.0,64.0
1882,73.0,0.0,180.0,0.0,64.0
1883,85.0,192.0,390.0,0.0,64.0
1884,69.0,192.0,180.0,0.0,64.0
1885,73.0,0.0,180.0,0.0,64.0
1886,78.0,0.0,780.0,0.0,64.0
1887,74.0,192.0,180.0,0.0,64.0
1888,69.0,192.0,180.0,0.0,64.0
1889,66.0,192.0,180.0,0.0,64.0
1890,69.0,192.0,180.0,0.0,64.0
1891,62.0,192.0,180.0,0.0,64.0
1892,74.0,192.0,180.0,0.0,64.0
1893,73.0,192.0,180.0,0.0,64.0
1894,86.0,192.0,390.0,0.0,64.0
1895,71.0,0.0,180.0,0.0,64.0
1896,76.0,0.0,180.0,0.0,64.0
1897,85.0,192.0,180.0,0.0,64.0
1898,78.0,192.0,180.0,0.0,64.0
1899,86.0,0.0,180.0,0.0,64.0
1900,70.0,192.0,180.0,0.0,64.0
1901,85.0,0.0,180.0,0.0,64.0
1902,78.0,192.0,180.0,0.0,64.0
1903,86.0,0.0,180.0,0.0,64.0
1904,66.0,192.0,180.0,0.0,64.0
1905,85.0,0.0,180.0,0.0,64.0
1906,78.0,192.0,180.0,0.0,64.0
1907,86.0,0.0,180.0,0.0,64.0
1908,76.0,192.0,180.0,0.0,64.0
1909,85.0,0.0,180.0,0.0,64.0
1910,78.0,0.0,180.0,0.0,64.0
1911,86.0,192.0,180.0,0.0,64.0
1912,83.0,0.0,180.0,0.0,64.0
1913,74.0,192.0,180.0,0.0,64.0
1914,85.0,0.0,180.0,0.0,64.0
1915,78.0,192.0,180.0,0.0,64.0
1916,71.0,192.0,180.0,0.0,64.0
1917,83.0,0.0,180.0,0.0,64.0
1918,78.0,0.0,180.0,0.0,64.0
1919,85.0,192.0,180.0,0.0,64.0
1920,83.0,192.0,180.0,0.0,64.0
1921,64.0,0.0,180.0,0.0,64.0
1922,76.0,192.0,180.0,0.0,64.0
1923,85.0,0.0,180.0,0.0,64.0
1924,74.0,192.0,180.0,0.0,64.0
1925,83.0,0.0,180.0,0.0,64.0
1926,85.0,0.0,180.0,0.0,64.0
1927,76.0,192.0,180.0,0.0,64.0
1928,81.0,192.0,960.0,0.0,64.0
1929,73.0,192.0,180.0,0.0,64.0
1930,78.0,192.0,180.0,0.0,64.0
1931,69.0,192.0,180.0,0.0,64.0
1932,78.0,192.0,180.0,0.0,64.0
1933,66.0,0.0,180.0,0.0,64.0
1934,83.0,192.0,180.0,0.0,64.0
1935,74.0,0.0,180.0,0.0,64.0
1936,73.0,0.0,180.0,0.0,64.0
1937,81.0,192.0,180.0,0.0,64.0
1938,83.0,192.0,180.0,0.0,64.0
1939,74.0,0.0,180.0,0.0,64.0
1940,80.0,192.0,780.0,0.0,64.0
1941,71.0,192.0,180.0,0.0,64.0
1942,78.0,192.0,180.0,0.0,64.0
1943,74.0,192.0,180.0,0.0,64.0
1944,78.0,0.0,180.0,0.0,64.0
1945,85.0,0.0,780.0,0.0,64.0
1946,73.0,192.0,180.0,0.0,64.0
1947,76.0,192.0,180.0,0.0,64.0
1948,71.0,192.0,180.0,0.0,64.0
1949,76.0,192.0,180.0,0.0,64.0
1950,70.0,192.0,180.0,0.0,64.0
1951,78.0,192.0,780.0,0.0,64.0
1952,76.0,192.0,180.0,0.0,64.0
1953,73.0,192.0,180.0,0.0,64.0
1954,76.0,0.0,180.0,0.0,64.0
1955,71.0,192.0,180.0,0.0,64.0
1956,74.0,192.0,180.0,0.0,64.0
1957,86.0,0.0,390.0,0.0,64.0
1958,69.0,192.0,180.0,0.0,64.0
1959,74.0,192.0,180.0,0.0,64.0
1960,68.0,192.0,180.0,0.0,64.0
1961,76.0,192.0,780.0,0.0,64.0
1962,74.0,192.0,180.0,0.0,64.0
1963,71.0,192.0,180.0,0.0,64.0
1964,74.0,0.0,180.0,0.0,64.0
1965,69.0,192.0,180.0,0.0,64.0
1966,85.0,0.0,780.0,0.0,64.0
1967,73.0,192.0,180.0,0.0,64.0
1968,67.0,192.0,180.0,0.0,64.0
1969,73.0,192.0,180.0,0.0,64.0
1970,74.0,192.0,780.0,0.0,64.0
1971,66.0,192.0,180.0,0.0,64.0
1972,73.0,192.0,180.0,0.0,64.0
1973,69.0,192.0,180.0,0.0,64.0
1974,73.0,0.0,180.0,0.0,64.0
1975,67.0,192.0,180.0,0.0,64.0
1976,83.0,0.0,780.0,0.0,64.0
1977,71.0,192.0,180.0,0.0,64.0
1978,66.0,192.0,180.0,0.0,64.0
1979,71.0,192.0,180.0,0.0,64.0
1980,64.0,192.0,180.0,0.0,64.0
1981,73.0,192.0,390.0,0.0,64.0
1982,71.0,0.0,180.0,0.0,64.0
1983,76.0,0.0,390.0,0.0,64.0
1984,67.0,192.0,180.0,0.0,64.0
1985,71.0,192.0,180.0,0.0,64.0
1986,74.0,192.0,390.0,0.0,64.0
1987,66.0,192.0,180.0,0.0,64.0
1988,70.0,0.0,180.0,0.0,64.0
1989,73.0,0.0,390.0,0.0,64.0
1990,64.0,192.0,180.0,0.0,64.0
1991,70.0,192.0,180.0,0.0,64.0
1992,74.0,192.0,390.0,0.0,64.0
1993,62.0,192.0,180.0,0.0,64.0
1994,59.0,0.0,780.0,0.0,64.0
1995,71.0,0.0,180.0,0.0,64.0
1996,79.0,192.0,780.0,0.0,64.0
1997,70.0,192.0,180.0,0.0,64.0
1998,71.0,192.0,180.0,0.0,64.0
1999,61.0,192.0,780.0,0.0,64.0
2000,64.0,192.0,180.0,0.0,64.0
2001,71.0,0.0,180.0,0.0,64.0
2002,78.0,192.0,180.0,0.0,64.0
2003,70.0,0.0,180.0,0.0,64.0
2004,76.0,0.0,180.0,0.0,64.0
2005,71.0,0.0,180.0,0.0,64.0
2006,74.0,0.0,390.0,0.0,64.0
2007,62.0,192.0,780.0,0.0,64.0
2008,66.0,192.0,180.0,0.0,64.0
2009,71.0,192.0,180.0,0.0,64.0
2010,73.0,0.0,390.0,0.0,64.0
2011,70.0,192.0,180.0,0.0,64.0
2012,71.0,0.0,180.0,0.0,64.0
2013,74.0,192.0,390.0,0.0,64.0
2014,59.0,192.0,180.0,0.0,64.0
2015,70.0,0.0,180.0,0.0,64.0
2016,71.0,0.0,15.0,0.0,64.0
2017,71.0,192.0,15.0,0.0,64.0
2018,67.0,192.0,390.0,0.0,64.0
2019,76.0,0.0,780.0,0.0,64.0
2020,71.0,192.0,15.0,0.0,64.0
2021,73.0,192.0,180.0,0.0,64.0
2022,67.0,0.0,390.0,0.0,64.0
2023,75.0,384.0,180.0,0.0,64.0
2024,76.0,0.0,390.0,0.0,64.0
2025,78.0,0.0,180.0,0.0,64.0
2026,79.0,192.0,180.0,0.0,64.0
2027,67.0,192.0,15.0,0.0,64.0
2028,76.0,0.0,180.0,0.0,64.0
2029,81.0,192.0,180.0,0.0,64.0
2030,61.0,192.0,780.0,0.0,64.0
2031,83.0,192.0,180.0,0.0,64.0
2032,81.0,192.0,180.0,0.0,64.0
2033,64.0,0.0,390.0,0.0,64.0
2034,79.0,0.0,180.0,0.0,64.0
2035,78.0,192.0,180.0,0.0,64.0
2036,79.0,192.0,180.0,0.0,64.0
2037,61.0,192.0,390.0,0.0,64.0
2038,78.0,192.0,180.0,0.0,64.0
2039,76.0,0.0,180.0,0.0,64.0
2040,66.0,0.0,390.0,0.0,64.0
2041,69.0,192.0,15.0,0.0,64.0
2042,66.0,384.0,390.0,0.0,64.0
2043,71.0,192.0,180.0,0.0,64.0
2044,73.0,0.0,180.0,0.0,64.0
2045,74.0,0.0,15.0,0.0,64.0
2046,66.0,192.0,390.0,0.0,64.0
2047,76.0,0.0,180.0,0.0,64.0
2048,78.0,192.0,180.0,0.0,64.0
2049,66.0,192.0,390.0,0.0,64.0
2050,74.0,0.0,180.0,0.0,64.0
2051,79.0,192.0,180.0,0.0,64.0
2052,59.0,384.0,780.0,0.0,64.0
2053,81.0,192.0,180.0,0.0,64.0
2054,79.0,192.0,180.0,0.0,64.0
2055,78.0,0.0,180.0,0.0,64.0
2056,76.0,0.0,960.0,0.0,64.0
2057,74.0,192.0,180.0,0.0,64.0
2058,67.0,192.0,390.0,0.0,64.0
2059,73.0,192.0,180.0,0.0,64.0
2060,71.0,0.0,180.0,0.0,64.0
2061,66.0,192.0,180.0,0.0,64.0
2062,67.0,0.0,180.0,0.0,64.0
2063,66.0,0.0,180.0,0.0,64.0
2064,69.0,192.0,15.0,0.0,64.0
2065,76.0,192.0,15.0,0.0,64.0
2066,67.0,192.0,180.0,0.0,64.0
2067,66.0,0.0,180.0,0.0,64.0
2068,74.0,192.0,960.0,0.0,64.0
2069,71.0,0.0,180.0,0.0,64.0
2070,67.0,192.0,180.0,0.0,64.0
2071,69.0,0.0,180.0,0.0,64.0
2072,66.0,192.0,180.0,0.0,64.0
2073,71.0,0.0,180.0,0.0,64.0
2074,67.0,192.0,15.0,0.0,64.0
2075,64.0,0.0,180.0,0.0,64.0
2076,66.0,192.0,180.0,0.0,64.0
2077,74.0,0.0,390.0,0.0,64.0
2078,67.0,0.0,570.0,0.0,64.0
2079,64.0,192.0,180.0,0.0,64.0
2080,66.0,192.0,180.0,0.0,64.0
2081,74.0,0.0,180.0,0.0,64.0
2082,64.0,192.0,180.0,0.0,64.0
2083,73.0,192.0,960.0,0.0,64.0
2084,69.0,192.0,180.0,0.0,64.0
2085,66.0,0.0,180.0,0.0,64.0
2086,64.0,0.0,180.0,0.0,64.0
2087,67.0,192.0,180.0,0.0,64.0
2088,66.0,0.0,180.0,0.0,64.0
2089,69.0,192.0,180.0,0.0,64.0
2090,66.0,192.0,780.0,0.0,64.0
2091,74.0,192.0,180.0,0.0,64.0
2092,73.0,192.0,180.0,0.0,64.0
2093,74.0,0.0,180.0,0.0,64.0
2094,71.0,192.0,960.0,0.0,64.0
2095,62.0,192.0,15.0,0.0,64.0
2096,79.0,192.0,390.0,0.0,64.0
2097,60.0,192.0,180.0,0.0,64.0
2098,59.0,0.0,180.0,0.0,64.0
2099,76.0,192.0,780.0,0.0,64.0
2100,72.0,192.0,180.0,0.0,64.0
2101,71.0,192.0,180.0,0.0,64.0
2102,72.0,0.0,180.0,0.0,64.0
2103,69.0,192.0,390.0,0.0,64.0
2104,60.0,192.0,15.0,0.0,64.0
2105,59.0,192.0,180.0,0.0,64.0
2106,81.0,192.0,570.0,0.0,64.0
2107,78.0,192.0,390.0,0.0,64.0
2108,57.0,0.0,180.0,0.0,64.0
2109,59.0,192.0,780.0,0.0,64.0
2110,75.0,0.0,780.0,0.0,64.0
2111,79.0,192.0,180.0,0.0,64.0
2112,78.0,192.0,180.0,0.0,64.0
2113,79.0,0.0,180.0,0.0,64.0
2114,81.0,96.0,180.0,0.0,64.0
2115,83.0,96.0,90.0,0.0,64.0
2116,84.0,192.0,90.0,0.0,64.0
2117,51.0,0.0,390.0,0.0,64.0
2118,78.0,192.0,780.0,0.0,64.0
2119,83.0,192.0,180.0,0.0,64.0
2120,81.0,192.0,180.0,0.0,64.0
2121,52.0,192.0,180.0,0.0,64.0
2122,54.0,0.0,180.0,0.0,64.0
2123,76.0,0.0,780.0,0.0,64.0
2124,55.0,0.0,180.0,0.0,64.0
2125,79.0,192.0,15.0,0.0,64.0
2126,52.0,192.0,180.0,0.0,64.0
2127,78.0,96.0,180.0,0.0,64.0
2128,57.0,0.0,180.0,0.0,64.0
2129,54.0,192.0,180.0,0.0,64.0
2130,79.0,96.0,90.0,0.0,64.0
2131,81.0,0.0,90.0,0.0,64.0
2132,79.0,0.0,180.0,0.0,64.0
2133,74.0,192.0,780.0,0.0,64.0
2134,59.0,192.0,180.0,0.0,64.0
2135,54.0,0.0,180.0,0.0,64.0
2136,78.0,192.0,180.0,0.0,64.0
2137,56.0,192.0,180.0,0.0,64.0
2138,52.0,0.0,180.0,0.0,64.0
2139,57.0,192.0,180.0,0.0,64.0
2140,52.0,0.0,180.0,0.0,64.0
2141,76.0,0.0,15.0,0.0,64.0
2142,74.0,192.0,390.0,0.0,64.0
2143,54.0,192.0,180.0,0.0,64.0
2144,72.0,0.0,15.0,0.0,64.0
2145,52.0,0.0,180.0,0.0,64.0
2146,54.0,0.0,180.0,0.0,64.0
2147,74.0,0.0,390.0,0.0,64.0
2148,56.0,192.0,180.0,0.0,64.0
2149,71.0,0.0,570.0,0.0,64.0
2150,57.0,192.0,180.0,0.0,64.0
2151,59.0,192.0,180.0,0.0,64.0
2152,60.0,192.0,180.0,0.0,64.0
2153,69.0,192.0,780.0,0.0,64.0
2154,57.0,0.0,180.0,0.0,64.0
2155,72.0,0.0,15.0,0.0,64.0
2156,71.0,192.0,180.0,0.0,64.0
2157,64.0,0.0,180.0,0.0,64.0
2158,52.0,0.0,180.0,0.0,64.0
2159,79.0,0.0,180.0,0.0,64.0
2160,55.0,192.0,180.0,0.0,64.0
2161,76.0,0.0,180.0,0.0,64.0
2162,67.0,0.0,780.0,0.0,64.0
2163,74.0,0.0,180.0,0.0,64.0
2164,52.0,192.0,180.0,0.0,64.0
2165,57.0,192.0,2310.0,0.0,64.0
2166,73.0,192.0,180.0,0.0,64.0
2167,81.0,384.0,180.0,0.0,64.0
2168,74.0,0.0,780.0,0.0,64.0
2169,66.0,0.0,390.0,0.0,64.0
2170,83.0,192.0,180.0,0.0,64.0
2171,79.0,96.0,180.0,0.0,64.0
2172,64.0,192.0,1140.0,0.0,64.0
2173,81.0,96.0,90.0,0.0,64.0
2174,83.0,192.0,90.0,0.0,64.0
2175,81.0,192.0,180.0,0.0,64.0
2176,73.0,192.0,390.0,0.0,64.0
2177,79.0,0.0,180.0,0.0,64.0
2178,78.0,192.0,180.0,0.0,64.0
2179,50.0,0.0,780.0,0.0,64.0
2180,81.0,0.0,180.0,0.0,64.0
2181,74.0,0.0,15.0,0.0,64.0
2182,62.0,192.0,780.0,0.0,64.0
2183,78.0,0.0,180.0,0.0,64.0
2184,79.0,192.0,180.0,0.0,64.0
2185,55.0,0.0,780.0,0.0,64.0
2186,52.0,192.0,780.0,0.0,64.0
2187,83.0,0.0,180.0,0.0,64.0
2188,61.0,0.0,390.0,0.0,64.0
2189,76.0,192.0,180.0,0.0,64.0
2190,79.0,0.0,180.0,0.0,64.0
2191,62.0,192.0,180.0,0.0,64.0
2192,81.0,0.0,390.0,0.0,64.0
2193,54.0,0.0,390.0,0.0,64.0
2194,61.0,192.0,180.0,0.0,64.0
2195,74.0,192.0,390.0,0.0,64.0
2196,62.0,192.0,180.0,0.0,64.0
2197,57.0,0.0,390.0,0.0,64.0
2198,64.0,0.0,180.0,0.0,64.0
2199,66.0,0.0,390.0,0.0,64.0
2200,50.0,0.0,780.0,0.0,64.0
2201,62.0,192.0,15.0,0.0,64.0
2202,64.0,192.0,180.0,0.0,64.0
2203,66.0,384.0,180.0,0.0,64.0
2204,59.0,0.0,390.0,0.0,64.0
2205,67.0,0.0,390.0,0.0,64.0
2206,66.0,192.0,180.0,0.0,64.0
2207,62.0,384.0,390.0,0.0,64.0
2208,59.0,0.0,390.0,0.0,64.0
2209,67.0,192.0,180.0,0.0,64.0
2210,69.0,0.0,180.0,0.0,64.0
2211,67.0,0.0,1530.0,0.0,64.0
2212,74.0,192.0,180.0,0.0,64.0
2213,76.0,192.0,180.0,0.0,64.0
2214,59.0,0.0,15.0,0.0,64.0
2215,78.0,192.0,180.0,0.0,64.0
2216,52.0,0.0,780.0,0.0,64.0
2217,79.0,192.0,180.0,0.0,64.0
2218,83.0,192.0,180.0,0.0,64.0
2219,79.0,192.0,180.0,0.0,64.0
2220,74.0,0.0,180.0,0.0,64.0
2221,71.0,192.0,15.0,0.0,64.0
2222,74.0,192.0,180.0,0.0,64.0
2223,71.0,0.0,390.0,0.0,64.0
2224,79.0,192.0,180.0,0.0,64.0
2225,52.0,192.0,390.0,0.0,64.0
2226,67.0,0.0,780.0,0.0,64.0
2227,83.0,0.0,180.0,0.0,64.0
2228,57.0,0.0,390.0,0.0,64.0
2229,81.0,192.0,570.0,0.0,64.0
2230,73.0,192.0,180.0,0.0,64.0
2231,69.0,192.0,180.0,0.0,64.0
2232,74.0,192.0,570.0,0.0,64.0
2233,66.0,192.0,390.0,0.0,64.0
2234,83.0,0.0,180.0,0.0,64.0
2235,79.0,192.0,570.0,0.0,64.0
2236,57.0,0.0,15.0,0.0,64.0
2237,64.0,192.0,780.0,0.0,64.0
2238,71.0,0.0,180.0,0.0,64.0
2239,73.0,0.0,390.0,0.0,64.0
2240,57.0,0.0,390.0,0.0,64.0
2241,81.0,0.0,180.0,0.0,64.0
2242,62.0,192.0,180.0,0.0,64.0
2243,74.0,0.0,780.0,0.0,64.0
2244,78.0,192.0,390.0,0.0,64.0
2245,50.0,0.0,780.0,0.0,64.0
2246,61.0,0.0,180.0,0.0,64.0
2247,81.0,0.0,390.0,0.0,64.0
2248,62.0,192.0,180.0,0.0,64.0
2249,64.0,192.0,180.0,0.0,64.0
2250,86.0,192.0,1140.0,0.0,64.0
2251,66.0,192.0,180.0,0.0,64.0
2252,64.0,192.0,180.0,0.0,64.0
2253,74.0,0.0,390.0,0.0,64.0
2254,59.0,192.0,390.0,0.0,64.0
2255,66.0,192.0,180.0,0.0,64.0
2256,67.0,0.0,180.0,0.0,64.0
2257,69.0,0.0,390.0,0.0,64.0
2258,76.0,0.0,780.0,0.0,64.0
2259,57.0,192.0,180.0,0.0,64.0
2260,59.0,0.0,180.0,0.0,64.0
2261,64.0,192.0,390.0,0.0,64.0
2262,57.0,192.0,180.0,0.0,64.0
2263,85.0,0.0,180.0,0.0,64.0
2264,83.0,0.0,180.0,0.0,64.0
2265,59.0,0.0,180.0,0.0,64.0
2266,57.0,192.0,180.0,0.0,64.0
2267,85.0,0.0,390.0,0.0,64.0
2268,69.0,0.0,1140.0,0.0,64.0
2269,59.0,192.0,180.0,0.0,64.0
2270,73.0,0.0,390.0,0.0,64.0
2271,78.0,0.0,390.0,0.0,64.0
2272,57.0,192.0,180.0,0.0,64.0
2273,59.0,192.0,180.0,0.0,64.0
2274,83.0,192.0,1140.0,0.0,64.0
2275,74.0,192.0,390.0,0.0,64.0
2276,55.0,192.0,180.0,0.0,64.0
2277,57.0,0.0,180.0,0.0,64.0
2278,55.0,0.0,180.0,0.0,64.0
2279,62.0,0.0,390.0,0.0,64.0
2280,76.0,192.0,180.0,0.0,64.0
2281,57.0,192.0,180.0,0.0,64.0
2282,78.0,0.0,180.0,0.0,64.0
2283,76.0,192.0,180.0,0.0,64.0
2284,67.0,384.0,780.0,0.0,64.0
2285,55.0,0.0,180.0,0.0,64.0
2286,57.0,0.0,180.0,0.0,64.0
2287,74.0,0.0,180.0,0.0,64.0
2288,55.0,192.0,180.0,0.0,64.0
2289,76.0,0.0,390.0,0.0,64.0
2290,73.0,0.0,180.0,0.0,64.0
2291,71.0,0.0,180.0,0.0,64.0
2292,57.0,0.0,180.0,0.0,64.0
2293,54.0,192.0,780.0,0.0,64.0
2294,69.0,0.0,780.0,0.0,64.0
2295,81.0,0.0,780.0,0.0,64.0
2296,57.0,192.0,180.0,0.0,64.0
2297,59.0,192.0,180.0,0.0,64.0
2298,61.0,0.0,180.0,0.0,64.0
2299,52.0,0.0,390.0,0.0,64.0
2300,62.0,192.0,180.0,0.0,64.0
2301,64.0,192.0,180.0,0.0,64.0
2302,50.0,192.0,390.0,0.0,64.0
2303,66.0,192.0,180.0,0.0,64.0
2304,74.0,192.0,780.0,0.0,64.0
2305,62.0,0.0,180.0,0.0,64.0
2306,67.0,192.0,180.0,0.0,64.0
2307,52.0,0.0,780.0,0.0,64.0
2308,66.0,0.0,180.0,0.0,64.0
2309,67.0,0.0,180.0,0.0,64.0
2310,76.0,192.0,180.0,0.0,64.0
2311,69.0,96.0,180.0,0.0,64.0
2312,78.0,0.0,180.0,0.0,64.0
2313,74.0,96.0,90.0,0.0,64.0
2314,57.0,0.0,780.0,0.0,64.0
2315,67.0,0.0,180.0,0.0,64.0
2316,73.0,96.0,90.0,0.0,64.0
2317,69.0,0.0,180.0,0.0,64.0
2318,74.0,96.0,90.0,0.0,64.0
2319,73.0,96.0,90.0,0.0,64.0
2320,74.0,96.0,90.0,0.0,64.0
2321,67.0,0.0,180.0,0.0,64.0
2322,73.0,192.0,90.0,0.0,64.0
2323,69.0,192.0,180.0,0.0,64.0
2324,74.0,192.0,390.0,0.0,64.0
2325,50.0,0.0,2310.0,0.0,64.0
2326,66.0,192.0,390.0,0.0,64.0
2327,69.0,192.0,390.0,0.0,64.0
2328,78.0,192.0,15.0,0.0,64.0
2329,67.0,192.0,390.0,0.0,64.0
2330,76.0,192.0,390.0,0.0,64.0
2331,66.0,192.0,390.0,0.0,64.0
2332,74.0,0.0,180.0,0.0,64.0
2333,79.0,0.0,180.0,0.0,64.0
2334,64.0,192.0,180.0,0.0,64.0
2335,78.0,0.0,180.0,0.0,64.0
2336,62.0,192.0,180.0,0.0,64.0
2337,64.0,192.0,180.0,0.0,64.0
2338,79.0,0.0,180.0,0.0,64.0
2339,81.0,96.0,180.0,0.0,64.0
2340,66.0,0.0,15.0,0.0,64.0
2341,49.0,0.0,780.0,0.0,64.0
2342,81.0,0.0,90.0,0.0,64.0
2343,79.0,0.0,90.0,0.0,64.0
2344,64.0,96.0,90.0,0.0,64.0
2345,81.0,0.0,90.0,0.0,64.0
2346,66.0,96.0,90.0,0.0,64.0
2347,79.0,96.0,90.0,0.0,64.0
2348,64.0,0.0,90.0,0.0,64.0
2349,81.0,0.0,90.0,0.0,64.0
2350,66.0,96.0,90.0,0.0,64.0
2351,64.0,0.0,90.0,0.0,64.0
2352,79.0,96.0,90.0,0.0,64.0
2353,78.0,96.0,90.0,0.0,64.0
2354,79.0,0.0,90.0,0.0,64.0
2355,62.0,192.0,15.0,0.0,64.0
2356,50.0,0.0,780.0,0.0,64.0
2357,78.0,192.0,180.0,0.0,64.0
2358,57.0,192.0,180.0,0.0,64.0
2359,62.0,192.0,180.0,0.0,64.0
2360,45.0,192.0,180.0,0.0,64.0
2361,64.0,0.0,180.0,0.0,64.0
2362,50.0,192.0,180.0,0.0,64.0
2363,66.0,0.0,180.0,0.0,64.0
2364,67.0,0.0,180.0,0.0,64.0
2365,52.0,192.0,180.0,0.0,64.0
2366,54.0,0.0,180.0,0.0,64.0
2367,69.0,192.0,180.0,0.0,64.0
2368,55.0,0.0,180.0,0.0,64.0
2369,71.0,192.0,180.0,0.0,64.0
2370,73.0,0.0,180.0,0.0,64.0
2371,57.0,192.0,180.0,0.0,64.0
2372,45.0,192.0,780.0,0.0,64.0
2373,52.0,192.0,180.0,0.0,64.0
2374,57.0,192.0,180.0,0.0,64.0
2375,59.0,0.0,180.0,0.0,64.0
2376,64.0,0.0,180.0,0.0,64.0
2377,61.0,192.0,180.0,0.0,64.0
2378,69.0,0.0,180.0,0.0,64.0
2379,71.0,0.0,180.0,0.0,64.0
2380,62.0,192.0,180.0,0.0,64.0
2381,64.0,192.0,180.0,0.0,64.0
2382,73.0,0.0,180.0,0.0,64.0
2383,66.0,192.0,180.0,0.0,64.0
2384,75.0,0.0,180.0,0.0,64.0
2385,76.0,192.0,180.0,0.0,64.0
2386,67.0,0.0,180.0,0.0,64.0
2387,52.0,192.0,780.0,0.0,64.0
2388,71.0,192.0,180.0,0.0,64.0
2389,76.0,192.0,180.0,0.0,64.0
2390,78.0,0.0,180.0,0.0,64.0
2391,59.0,0.0,180.0,0.0,64.0
2392,79.0,192.0,180.0,0.0,64.0
2393,64.0,0.0,180.0,0.0,64.0
2394,81.0,192.0,180.0,0.0,64.0
2395,66.0,0.0,180.0,0.0,64.0
2396,67.0,192.0,180.0,0.0,64.0
2397,83.0,0.0,180.0,0.0,64.0
2398,85.0,0.0,180.0,0.0,64.0
2399,69.0,192.0,180.0,0.0,64.0
2400,71.0,192.0,180.0,0.0,64.0
2401,47.0,192.0,780.0,0.0,64.0
2402,86.0,192.0,570.0,0.0,64.0
2403,66.0,192.0,180.0,0.0,64.0
2404,71.0,0.0,180.0,0.0,64.0
2405,73.0,0.0,180.0,0.0,64.0
2406,85.0,0.0,180.0,0.0,64.0
2407,83.0,0.0,180.0,0.0,64.0
2408,74.0,192.0,180.0,0.0,64.0
2409,81.0,192.0,180.0,0.0,64.0
2410,73.0,0.0,180.0,0.0,64.0
2411,80.0,0.0,180.0,0.0,64.0
2412,71.0,192.0,180.0,0.0,64.0
2413,78.0,0.0,180.0,0.0,64.0
2414,69.0,192.0,180.0,0.0,64.0
2415,68.0,0.0,180.0,0.0,64.0
2416,49.0,0.0,780.0,0.0,64.0
2417,77.0,192.0,180.0,0.0,64.0
2418,69.0,0.0,180.0,0.0,64.0
2419,85.0,192.0,180.0,0.0,64.0
2420,68.0,0.0,180.0,0.0,64.0
2421,83.0,192.0,180.0,0.0,64.0
2422,66.0,96.0,180.0,0.0,64.0
2423,81.0,0.0,15.0,0.0,64.0
2424,66.0,96.0,90.0,0.0,64.0
2425,65.0,0.0,90.0,0.0,64.0
2426,80.0,96.0,90.0,0.0,64.0
2427,66.0,96.0,90.0,0.0,64.0
2428,81.0,0.0,90.0,0.0,64.0
2429,80.0,96.0,90.0,0.0,64.0
2430,65.0,0.0,90.0,0.0,64.0
2431,81.0,96.0,90.0,0.0,64.0
2432,66.0,0.0,90.0,0.0,64.0
2433,80.0,192.0,90.0,0.0,64.0
2434,65.0,0.0,90.0,0.0,64.0
2435,66.0,0.0,180.0,0.0,64.0
2436,78.0,576.0,180.0,0.0,64.0
2437,78.0,0.0,780.0,0.0,64.0
2438,42.0,192.0,570.0,0.0,64.0
2439,66.0,0.0,180.0,0.0,64.0
2440,68.0,0.0,780.0,0.0,64.0
2441,65.0,192.0,180.0,0.0,64.0
2442,66.0,192.0,180.0,0.0,64.0
2443,66.0,192.0,390.0,0.0,64.0
2444,63.0,192.0,180.0,0.0,64.0
2445,65.0,0.0,180.0,0.0,64.0
2446,61.0,0.0,180.0,0.0,64.0
2447,65.0,192.0,180.0,0.0,64.0
2448,69.0,0.0,780.0,0.0,64.0
2449,62.0,0.0,180.0,0.0,64.0
2450,66.0,192.0,180.0,0.0,64.0
2451,59.0,0.0,180.0,0.0,64.0
2452,63.0,192.0,180.0,0.0,64.0
2453,61.0,0.0,180.0,0.0,64.0
2454,65.0,192.0,180.0,0.0,64.0
2455,66.0,192.0,780.0,0.0,64.0
2456,57.0,192.0,180.0,0.0,64.0
2457,61.0,0.0,180.0,0.0,64.0
2458,62.0,0.0,180.0,0.0,64.0
2459,59.0,192.0,15.0,0.0,64.0
2460,56.0,192.0,180.0,0.0,64.0
2461,57.0,0.0,180.0,0.0,64.0
2462,61.0,0.0,180.0,0.0,64.0
2463,54.0,192.0,180.0,0.0,64.0
2464,57.0,0.0,180.0,0.0,64.0
2465,74.0,0.0,390.0,0.0,64.0
2466,59.0,0.0,180.0,0.0,64.0
2467,56.0,192.0,15.0,0.0,64.0
2468,74.0,0.0,390.0,0.0,64.0
2469,52.0,0.0,180.0,0.0,64.0
2470,57.0,192.0,180.0,0.0,64.0
2471,54.0,0.0,180.0,0.0,64.0
2472,50.0,192.0,180.0,0.0,64.0
2473,78.0,192.0,1530.0,0.0,64.0
2474,54.0,0.0,390.0,0.0,64.0
2475,52.0,0.0,180.0,0.0,64.0
2476,57.0,0.0,390.0,0.0,64.0
2477,74.0,192.0,15.0,0.0,64.0
2478,49.0,192.0,180.0,0.0,64.0
2479,50.0,0.0,180.0,0.0,64.0
2480,68.0,0.0,780.0,0.0,64.0
2481,62.0,192.0,180.0,0.0,64.0
2482,47.0,192.0,390.0,0.0,64.0
2483,61.0,0.0,180.0,0.0,64.0
2484,59.0,192.0,180.0,0.0,64.0
2485,44.0,0.0,390.0,0.0,64.0
2486,57.0,0.0,180.0,0.0,64.0
2487,49.0,0.0,780.0,0.0,64.0
2488,77.0,0.0,780.0,0.0,64.0
2489,56.0,192.0,180.0,0.0,64.0
2490,61.0,192.0,180.0,0.0,64.0
2491,68.0,192.0,390.0,0.0,64.0
2492,59.0,192.0,180.0,0.0,64.0
2493,61.0,0.0,180.0,0.0,64.0
2494,42.0,0.0,780.0,0.0,64.0
2495,57.0,192.0,180.0,0.0,64.0
2496,78.0,0.0,570.0,0.0,64.0
2497,59.0,0.0,180.0,0.0,64.0
2498,73.0,192.0,15.0,0.0,64.0
2499,57.0,192.0,180.0,0.0,64.0
2500,80.0,0.0,180.0,0.0,64.0
2501,56.0,192.0,180.0,0.0,64.0
2502,54.0,192.0,180.0,0.0,64.0
2503,73.0,192.0,390.0,0.0,64.0
2504,81.0,192.0,960.0,0.0,64.0
2505,66.0,0.0,180.0,0.0,64.0
2506,64.0,192.0,180.0,0.0,64.0
2507,73.0,192.0,390.0,0.0,64.0
2508,66.0,0.0,180.0,0.0,64.0
2509,62.0,0.0,180.0,0.0,64.0
2510,66.0,0.0,780.0,0.0,64.0
2511,64.0,192.0,180.0,0.0,64.0
2512,85.0,0.0,180.0,0.0,64.0
2513,62.0,192.0,180.0,0.0,64.0
2514,83.0,0.0,180.0,0.0,64.0
2515,61.0,0.0,180.0,0.0,64.0
2516,86.0,192.0,180.0,0.0,64.0
2517,59.0,192.0,180.0,0.0,64.0
2518,80.0,192.0,570.0,0.0,64.0
2519,64.0,192.0,180.0,0.0,64.0
2520,74.0,0.0,390.0,0.0,64.0
2521,62.0,0.0,180.0,0.0,64.0
2522,64.0,192.0,180.0,0.0,64.0
2523,81.0,192.0,570.0,0.0,64.0
2524,73.0,192.0,180.0,0.0,64.0
2525,57.0,0.0,780.0,0.0,64.0
2526,74.0,0.0,180.0,0.0,64.0
2527,76.0,192.0,390.0,0.0,64.0
2528,73.0,192.0,180.0,0.0,64.0
2529,74.0,0.0,180.0,0.0,64.0
2530,81.0,0.0,1530.0,0.0,64.0
2531,73.0,192.0,180.0,0.0,64.0
2532,74.0,192.0,180.0,0.0,64.0
2533,73.0,192.0,180.0,0.0,64.0
2534,69.0,192.0,390.0,0.0,64.0
2535,74.0,0.0,180.0,0.0,64.0
2536,71.0,192.0,180.0,0.0,64.0
2537,63.0,0.0,780.0,0.0,64.0
2538,73.0,192.0,180.0,0.0,64.0
2539,71.0,192.0,180.0,0.0,64.0
2540,73.0,192.0,180.0,0.0,64.0
2541,65.0,0.0,780.0,0.0,64.0
2542,71.0,192.0,180.0,0.0,64.0
2543,80.0,192.0,1140.0,0.0,64.0
2544,73.0,192.0,180.0,0.0,64.0
2545,71.0,192.0,180.0,0.0,64.0
2546,73.0,192.0,180.0,0.0,64.0
2547,66.0,192.0,180.0,0.0,64.0
2548,69.0,0.0,1140.0,0.0,64.0
2549,68.0,0.0,180.0,0.0,64.0
2550,64.0,192.0,180.0,0.0,64.0
2551,73.0,192.0,390.0,0.0,64.0
2552,66.0,0.0,180.0,0.0,64.0
2553,62.0,192.0,180.0,0.0,64.0
2554,78.0,192.0,1530.0,0.0,64.0
2555,64.0,192.0,180.0,0.0,64.0
2556,74.0,192.0,390.0,0.0,64.0
2557,61.0,192.0,180.0,0.0,64.0
2558,62.0,0.0,180.0,0.0,64.0
2559,68.0,192.0,1530.0,0.0,64.0
2560,59.0,192.0,180.0,0.0,64.0
2561,61.0,192.0,180.0,0.0,64.0
2562,57.0,192.0,180.0,0.0,64.0
2563,59.0,0.0,180.0,0.0,64.0
2564,56.0,192.0,180.0,0.0,64.0
2565,77.0,0.0,780.0,0.0,64.0
2566,61.0,192.0,180.0,0.0,64.0
2567,59.0,192.0,180.0,0.0,64.0
2568,61.0,0.0,180.0,0.0,64.0
2569,78.0,96.0,180.0,0.0,64.0
2570,54.0,288.0,780.0,0.0,64.0
2571,66.0,0.0,780.0,0.0,64.0
2572,81.0,96.0,90.0,0.0,64.0
2573,79.0,96.0,90.0,0.0,64.0
2574,78.0,96.0,90.0,0.0,64.0
2575,79.0,192.0,90.0,0.0,64.0
2576,81.0,0.0,180.0,0.0,64.0
2577,74.0,0.0,780.0,0.0,64.0
2578,66.0,96.0,90.0,0.0,64.0
2579,64.0,96.0,90.0,0.0,64.0
2580,62.0,96.0,90.0,0.0,64.0
2581,69.0,0.0,390.0,0.0,64.0
2582,64.0,192.0,90.0,0.0,64.0
2583,66.0,288.0,180.0,0.0,64.0
2584,71.0,288.0,780.0,0.0,64.0
2585,55.0,0.0,780.0,0.0,64.0
2586,83.0,96.0,90.0,0.0,64.0
2587,81.0,96.0,90.0,0.0,64.0
2588,79.0,96.0,90.0,0.0,64.0
2589,81.0,192.0,90.0,0.0,64.0
2590,83.0,0.0,180.0,0.0,64.0
2591,76.0,288.0,780.0,0.0,64.0
2592,68.0,96.0,90.0,0.0,64.0
2593,66.0,96.0,90.0,0.0,64.0
2594,64.0,96.0,90.0,0.0,64.0
2595,71.0,0.0,390.0,0.0,64.0
2596,66.0,192.0,90.0,0.0,64.0
2597,68.0,0.0,180.0,0.0,64.0
2598,54.0,0.0,780.0,0.0,64.0
2599,73.0,0.0,780.0,0.0,64.0
2600,85.0,96.0,90.0,0.0,64.0
2601,83.0,96.0,90.0,0.0,64.0
2602,81.0,96.0,90.0,0.0,64.0
2603,83.0,192.0,90.0,0.0,64.0
2604,85.0,288.0,180.0,0.0,64.0
2605,78.0,384.0,780.0,0.0,64.0
2606,70.0,96.0,90.0,0.0,64.0
2607,68.0,96.0,90.0,0.0,64.0
2608,66.0,96.0,90.0,0.0,64.0
2609,73.0,0.0,390.0,0.0,64.0
2610,68.0,192.0,90.0,0.0,64.0
2611,70.0,0.0,180.0,0.0,64.0
2612,59.0,192.0,390.0,0.0,64.0
2613,78.0,0.0,180.0,0.0,64.0
2614,79.0,0.0,180.0,0.0,64.0
2615,71.0,192.0,180.0,0.0,64.0
2616,69.0,0.0,180.0,0.0,64.0
2617,78.0,192.0,180.0,0.0,64.0
2618,76.0,0.0,390.0,0.0,64.0
2619,68.0,0.0,180.0,0.0,64.0
2620,71.0,0.0,180.0,0.0,64.0
2621,74.0,192.0,15.0,0.0,64.0
2622,68.0,192.0,180.0,0.0,64.0
2623,64.0,0.0,180.0,0.0,64.0
2624,74.0,192.0,180.0,0.0,64.0
2625,69.0,0.0,180.0,0.0,64.0
2626,73.0,0.0,960.0,0.0,64.0
2627,57.0,192.0,180.0,0.0,64.0
2628,76.0,192.0,15.0,0.0,64.0
2629,69.0,192.0,180.0,0.0,64.0
2630,78.0,0.0,180.0,0.0,64.0
2631,76.0,0.0,180.0,0.0,64.0
2632,67.0,192.0,180.0,0.0,64.0
2633,66.0,192.0,180.0,0.0,64.0
2634,73.0,0.0,180.0,0.0,64.0
2635,69.0,192.0,180.0,0.0,64.0
2636,74.0,0.0,15.0,0.0,64.0
2637,66.0,192.0,180.0,0.0,64.0
2638,73.0,0.0,180.0,0.0,64.0
2639,62.0,192.0,180.0,0.0,64.0
2640,71.0,192.0,960.0,0.0,64.0
2641,67.0,192.0,180.0,0.0,64.0
2642,74.0,0.0,15.0,0.0,64.0
2643,55.0,192.0,180.0,0.0,64.0
2644,76.0,192.0,180.0,0.0,64.0
2645,67.0,0.0,180.0,0.0,64.0
2646,66.0,0.0,180.0,0.0,64.0
2647,74.0,192.0,180.0,0.0,64.0
2648,64.0,0.0,180.0,0.0,64.0
2649,67.0,0.0,180.0,0.0,64.0
2650,71.0,192.0,180.0,0.0,64.0
2651,73.0,0.0,15.0,0.0,64.0
2652,64.0,192.0,180.0,0.0,64.0
2653,61.0,0.0,180.0,0.0,64.0
2654,71.0,192.0,180.0,0.0,64.0
2655,66.0,384.0,780.0,0.0,64.0
2656,70.0,192.0,570.0,0.0,64.0
2657,74.0,192.0,180.0,0.0,64.0
2658,73.0,0.0,180.0,0.0,64.0
2659,71.0,0.0,180.0,0.0,64.0
2660,74.0,0.0,180.0,0.0,64.0
2661,76.0,192.0,780.0,0.0,64.0
2662,73.0,192.0,390.0,0.0,64.0
2663,58.0,0.0,180.0,0.0,64.0
2664,56.0,192.0,180.0,0.0,64.0
2665,73.0,0.0,780.0,0.0,64.0
2666,58.0,0.0,180.0,0.0,64.0
2667,59.0,192.0,180.0,0.0,64.0
2668,74.0,192.0,780.0,0.0,64.0
2669,54.0,192.0,180.0,0.0,64.0
2670,50.0,96.0,180.0,0.0,64.0
2671,71.0,192.0,570.0,0.0,64.0
2672,49.0,96.0,90.0,0.0,64.0
2673,50.0,0.0,90.0,0.0,64.0
2674,73.0,0.0,780.0,0.0,64.0
2675,52.0,192.0,390.0,0.0,64.0
2676,70.0,0.0,180.0,0.0,64.0
2677,54.0,192.0,390.0,0.0,64.0
2678,68.0,192.0,180.0,0.0,64.0
2679,70.0,0.0,180.0,0.0,64.0
2680,71.0,0.0,780.0,0.0,64.0
2681,47.0,192.0,180.0,0.0,64.0
2682,50.0,192.0,180.0,0.0,64.0
2683,54.0,192.0,180.0,0.0,64.0
2684,59.0,288.0,180.0,0.0,64.0
2685,49.0,0.0,780.0,0.0,64.0
2686,58.0,0.0,780.0,0.0,64.0
2687,61.0,96.0,90.0,0.0,64.0
2688,62.0,192.0,90.0,0.0,64.0
2689,64.0,192.0,180.0,0.0,64.0
2690,67.0,384.0,180.0,0.0,64.0
2691,50.0,0.0,780.0,0.0,64.0
2692,66.0,0.0,780.0,0.0,64.0
2693,59.0,0.0,780.0,0.0,64.0
2694,71.0,192.0,180.0,0.0,64.0
2695,74.0,192.0,180.0,0.0,64.0
2696,78.0,192.0,180.0,0.0,64.0
2697,83.0,192.0,180.0,0.0,64.0
2698,47.0,192.0,780.0,0.0,64.0
2699,81.0,192.0,180.0,0.0,64.0
2700,63.0,0.0,390.0,0.0,64.0
2701,79.0,192.0,180.0,0.0,64.0
2702,78.0,0.0,180.0,0.0,64.0
2703,71.0,0.0,15.0,0.0,64.0
2704,76.0,0.0,780.0,0.0,64.0
2705,64.0,192.0,180.0,0.0,64.0
2706,59.0,192.0,180.0,0.0,64.0
2707,55.0,0.0,15.0,0.0,64.0
2708,64.0,192.0,180.0,0.0,64.0
2709,67.0,192.0,180.0,0.0,64.0
2710,71.0,0.0,15.0,0.0,64.0
2711,55.0,192.0,390.0,0.0,64.0
2712,69.0,0.0,180.0,0.0,64.0
2713,67.0,192.0,180.0,0.0,64.0
2714,55.0,384.0,390.0,0.0,64.0
2715,66.0,0.0,180.0,0.0,64.0
2716,64.0,0.0,780.0,0.0,64.0
2717,49.0,192.0,780.0,0.0,64.0
2718,69.0,192.0,180.0,0.0,64.0
2719,73.0,192.0,180.0,0.0,64.0
2720,76.0,0.0,180.0,0.0,64.0
2721,81.0,192.0,180.0,0.0,64.0
2722,79.0,192.0,180.0,0.0,64.0
2723,78.0,192.0,180.0,0.0,64.0
2724,49.0,0.0,390.0,0.0,64.0
2725,67.0,192.0,390.0,0.0,64.0
2726,76.0,0.0,180.0,0.0,64.0
2727,69.0,0.0,15.0,0.0,64.0
2728,75.0,0.0,780.0,0.0,64.0
2729,66.0,192.0,180.0,0.0,64.0
2730,57.0,192.0,180.0,0.0,64.0
2731,63.0,192.0,180.0,0.0,64.0
2732,54.0,0.0,15.0,0.0,64.0
2733,66.0,0.0,180.0,0.0,64.0
2734,54.0,0.0,15.0,0.0,64.0
2735,69.0,192.0,15.0,0.0,64.0
2736,67.0,192.0,180.0,0.0,64.0
2737,66.0,192.0,180.0,0.0,64.0
2738,54.0,0.0,390.0,0.0,64.0
2739,64.0,192.0,180.0,0.0,64.0
2740,63.0,192.0,180.0,0.0,64.0
2741,47.0,0.0,780.0,0.0,64.0
2742,66.0,192.0,180.0,0.0,64.0
2743,81.0,0.0,180.0,0.0,64.0
2744,71.0,0.0,390.0,0.0,64.0
2745,64.0,192.0,180.0,0.0,64.0
2746,79.0,0.0,180.0,0.0,64.0
2747,63.0,0.0,180.0,0.0,64.0
2748,78.0,384.0,180.0,0.0,64.0
2749,79.0,384.0,390.0,0.0,64.0
2750,71.0,192.0,780.0,0.0,64.0
2751,64.0,0.0,780.0,0.0,64.0
2752,55.0,0.0,390.0,0.0,64.0
2753,76.0,0.0,390.0,0.0,64.0
2754,54.0,192.0,180.0,0.0,64.0
2755,55.0,192.0,180.0,0.0,64.0
2756,75.0,192.0,390.0,0.0,64.0
2757,54.0,192.0,180.0,0.0,64.0
2758,55.0,0.0,180.0,0.0,64.0
2759,69.0,0.0,15.0,0.0,64.0
2760,54.0,192.0,180.0,0.0,64.0
2761,66.0,0.0,15.0,0.0,64.0
2762,75.0,0.0,780.0,0.0,64.0
2763,55.0,192.0,180.0,0.0,64.0
2764,54.0,192.0,180.0,0.0,64.0
2765,55.0,0.0,180.0,0.0,64.0
2766,52.0,192.0,180.0,0.0,64.0
2767,54.0,192.0,180.0,0.0,64.0
2768,59.0,0.0,390.0,0.0,64.0
2769,52.0,192.0,180.0,0.0,64.0
2770,54.0,0.0,180.0,0.0,64.0
2771,64.0,768.0,780.0,0.0,64.0
2772,79.0,0.0,15.0,0.0,64.0
2773,71.0,192.0,15.0,0.0,64.0
2774,52.0,192.0,180.0,0.0,64.0
2775,54.0,192.0,180.0,0.0,64.0
2776,52.0,192.0,180.0,0.0,64.0
2777,54.0,0.0,180.0,0.0,64.0
2778,50.0,0.0,780.0,0.0,64.0
2779,71.0,192.0,780.0,0.0,64.0
2780,66.0,384.0,390.0,0.0,64.0
2781,78.0,0.0,390.0,0.0,64.0
2782,83.0,192.0,1140.0,0.0,64.0
2783,48.0,0.0,390.0,0.0,64.0
2784,67.0,0.0,1140.0,0.0,64.0
2785,47.0,384.0,390.0,0.0,64.0
2786,73.0,192.0,180.0,0.0,64.0
2787,75.0,0.0,180.0,0.0,64.0
2788,76.0,384.0,1530.0,0.0,64.0
2789,48.0,0.0,1530.0,0.0,64.0
2790,64.0,384.0,390.0,0.0,64.0
2791,81.0,192.0,180.0,0.0,64.0
2792,80.0,0.0,180.0,0.0,64.0
2793,69.0,192.0,390.0,0.0,64.0
2794,81.0,192.0,1140.0,0.0,64.0
2795,71.0,192.0,180.0,0.0,64.0
2796,72.0,0.0,180.0,0.0,64.0
2797,47.0,0.0,3060.0,0.0,64.0
2798,75.0,0.0,780.0,0.0,64.0
2799,66.0,0.0,390.0,0.0,64.0
2800,67.0,192.0,180.0,0.0,64.0
2801,79.0,0.0,180.0,0.0,64.0
2802,78.0,0.0,180.0,0.0,64.0
2803,69.0,192.0,180.0,0.0,64.0
2804,76.0,0.0,390.0,0.0,64.0
2805,79.0,192.0,180.0,0.0,64.0
2806,71.0,192.0,390.0,0.0,64.0
2807,81.0,0.0,180.0,0.0,64.0
2808,75.0,192.0,390.0,0.0,64.0
2809,78.0,192.0,180.0,0.0,64.0
2810,69.0,0.0,390.0,0.0,64.0
2811,79.0,0.0,180.0,0.0,64.0
2812,68.0,0.0,180.0,0.0,64.0
2813,77.0,192.0,180.0,0.0,64.0
2814,80.0,0.0,180.0,0.0,64.0
2815,71.0,192.0,180.0,0.0,64.0
2816,77.0,192.0,180.0,0.0,64.0
2817,74.0,0.0,15.0,0.0,64.0
2818,68.0,0.0,180.0,0.0,64.0
2819,80.0,0.0,180.0,0.0,64.0
2820,71.0,192.0,180.0,0.0,64.0
2821,74.0,0.0,15.0,0.0,64.0
2822,68.0,192.0,180.0,0.0,64.0
2823,77.0,0.0,180.0,0.0,64.0
2824,71.0,0.0,180.0,0.0,64.0
2825,80.0,0.0,180.0,0.0,64.0
2826,68.0,192.0,180.0,0.0,64.0
2827,74.0,0.0,390.0,0.0,64.0
2828,77.0,0.0,180.0,0.0,64.0
2829,71.0,192.0,180.0,0.0,64.0
2830,80.0,0.0,180.0,0.0,64.0
2831,78.0,0.0,180.0,0.0,64.0
2832,73.0,0.0,390.0,0.0,64.0
2833,70.0,192.0,180.0,0.0,64.0
2834,42.0,192.0,1740.0,0.0,64.0
2835,82.0,0.0,180.0,0.0,64.0
2836,66.0,192.0,180.0,0.0,64.0
2837,73.0,0.0,390.0,0.0,64.0
2838,78.0,192.0,180.0,0.0,64.0
2839,70.0,0.0,180.0,0.0,64.0
2840,66.0,0.0,180.0,0.0,64.0
2841,82.0,192.0,180.0,0.0,64.0
2842,68.0,192.0,180.0,0.0,64.0
2843,77.0,0.0,180.0,0.0,64.0
2844,71.0,0.0,180.0,0.0,64.0
2845,80.0,0.0,180.0,0.0,64.0
2846,74.0,192.0,180.0,0.0,64.0
2847,71.0,0.0,180.0,0.0,64.0
2848,70.0,192.0,180.0,0.0,64.0
2849,73.0,0.0,180.0,0.0,64.0
2850,78.0,0.0,180.0,0.0,64.0
2851,71.0,0.0,180.0,0.0,64.0
2852,68.0,0.0,180.0,0.0,64.0
2853,77.0,192.0,180.0,0.0,64.0
2854,73.0,0.0,390.0,0.0,64.0
2855,78.0,192.0,390.0,0.0,64.0
2856,70.0,0.0,390.0,0.0,64.0
2857,49.0,0.0,180.0,0.0,64.0
2858,47.0,192.0,180.0,0.0,64.0
2859,49.0,192.0,180.0,0.0,64.0
2860,46.0,192.0,180.0,0.0,64.0
2861,54.0,192.0,180.0,0.0,64.0
2862,53.0,192.0,180.0,0.0,64.0
2863,54.0,192.0,180.0,0.0,64.0
2864,49.0,192.0,180.0,0.0,64.0
2865,58.0,192.0,180.0,0.0,64.0
2866,56.0,192.0,180.0,0.0,64.0
2867,58.0,192.0,180.0,0.0,64.0
2868,54.0,192.0,180.0,0.0,64.0
2869,61.0,192.0,180.0,0.0,64.0
2870,59.0,192.0,180.0,0.0,64.0
2871,61.0,192.0,180.0,0.0,64.0
2872,58.0,192.0,180.0,0.0,64.0
2873,66.0,192.0,180.0,0.0,64.0
2874,64.0,192.0,180.0,0.0,64.0
2875,66.0,192.0,180.0,0.0,64.0
2876,61.0,192.0,180.0,0.0,64.0
2877,62.0,192.0,180.0,0.0,64.0
2878,61.0,96.0,180.0,0.0,64.0
2879,64.0,96.0,90.0,0.0,64.0
2880,63.0,192.0,90.0,0.0,64.0
2881,72.0,96.0,90.0,0.0,64.0
2882,74.0,96.0,90.0,0.0,64.0
2883,76.0,96.0,90.0,0.0,64.0
2884,77.0,96.0,90.0,0.0,64.0
2885,79.0,96.0,90.0,0.0,64.0
2886,81.0,96.0,90.0,0.0,64.0
2887,83.0,96.0,90.0,0.0,64.0
2888,84.0,96.0,90.0,0.0,64.0
2889,79.0,96.0,90.0,0.0,64.0
2890,76.0,96.0,90.0,0.0,64.0
2891,79.0,96.0,90.0,0.0,64.0
2892,72.0,96.0,90.0,0.0,64.0
2893,67.0,96.0,90.0,0.0,64.0
2894,64.0,96.0,90.0,0.0,64.0
2895,67.0,384.0,90.0,0.0,64.0
2896,40.0,0.0,390.0,0.0,64.0
2897,61.0,0.0,390.0,0.0,64.0
2898,66.0,192.0,390.0,0.0,64.0
2899,73.0,0.0,390.0,0.0,64.0
2900,78.0,0.0,390.0,0.0,64.0
2901,82.0,0.0,390.0,0.0,64.0
2902,86.0,96.0,90.0,0.0,64.0
2903,85.0,96.0,90.0,0.0,64.0
2904,83.0,96.0,90.0,0.0,64.0
2905,85.0,96.0,90.0,0.0,64.0
2906,83.0,96.0,90.0,0.0,64.0
2907,82.0,96.0,90.0,0.0,64.0
2908,80.0,96.0,90.0,0.0,64.0
2909,78.0,96.0,90.0,0.0,64.0
2910,76.0,96.0,90.0,0.0,64.0
2911,74.0,48.0,90.0,0.0,64.0
2912,73.0,48.0,40.0,0.0,64.0
2913,74.0,96.0,40.0,0.0,64.0
2914,76.0,96.0,90.0,0.0,64.0
2915,78.0,96.0,90.0,0.0,64.0
2916,79.0,96.0,90.0,0.0,64.0
2917,78.0,96.0,90.0,0.0,64.0
2918,76.0,96.0,90.0,0.0,64.0
2919,74.0,96.0,90.0,0.0,64.0
2920,73.0,96.0,90.0,0.0,64.0
2921,71.0,96.0,90.0,0.0,64.0
2922,70.0,96.0,90.0,0.0,64.0
2923,71.0,96.0,90.0,0.0,64.0
2924,73.0,96.0,90.0,0.0,64.0
2925,74.0,96.0,90.0,0.0,64.0
2926,71.0,96.0,90.0,0.0,64.0
2927,73.0,96.0,90.0,0.0,64.0
2928,74.0,96.0,90.0,0.0,64.0
2929,76.0,96.0,90.0,0.0,64.0
2930,73.0,96.0,90.0,0.0,64.0
2931,74.0,96.0,90.0,0.0,64.0
2932,76.0,96.0,90.0,0.0,64.0
2933,78.0,96.0,90.0,0.0,64.0
2934,74.0,96.0,90.0,0.0,64.0
2935,76.0,96.0,90.0,0.0,64.0
2936,78.0,96.0,90.0,0.0,64.0
2937,79.0,96.0,90.0,0.0,64.0
2938,76.0,96.0,90.0,0.0,64.0
2939,78.0,96.0,90.0,0.0,64.0
2940,80.0,96.0,90.0,0.0,64.0
2941,82.0,96.0,90.0,0.0,64.0
2942,83.0,96.0,90.0,0.0,64.0
2943,85.0,96.0,90.0,0.0,64.0
2944,86.0,96.0,90.0,0.0,64.0
2945,82.0,384.0,90.0,0.0,64.0
2946,83.0,96.0,1740.0,0.0,64.0
2947,81.0,48.0,180.0,0.0,64.0
2948,79.0,48.0,40.0,0.0,64.0
2949,81.0,96.0,40.0,0.0,64.0
2950,79.0,192.0,90.0,0.0,64.0
2951,78.0,384.0,180.0,0.0,64.0
2952,77.0,0.0,780.0,0.0,64.0
2953,74.0,48.0,180.0,0.0,64.0
2954,44.0,0.0,390.0,0.0,64.0
2955,73.0,48.0,40.0,0.0,64.0
2956,74.0,96.0,40.0,0.0,64.0
2957,73.0,192.0,90.0,0.0,64.0
2958,71.0,192.0,180.0,0.0,64.0
2959,73.0,192.0,1530.0,0.0,64.0
2960,42.0,0.0,1530.0,0.0,64.0
2961,78.0,48.0,1140.0,0.0,64.0
2962,85.0,96.0,90.0,0.0,64.0
2963,86.0,192.0,90.0,0.0,64.0
2964,85.0,96.0,180.0,0.0,64.0
2965,86.0,96.0,90.0,0.0,64.0
2966,88.0,48.0,90.0,0.0,64.0
2967,83.0,48.0,40.0,0.0,64.0
2968,82.0,48.0,40.0,0.0,64.0
2969,83.0,48.0,40.0,0.0,64.0
2970,82.0,48.0,40.0,0.0,64.0
2971,83.0,48.0,40.0,0.0,64.0
2972,82.0,48.0,40.0,0.0,64.0
2973,83.0,48.0,40.0,0.0,64.0
2974,82.0,0.0,40.0,0.0,64.0
2975,76.0,192.0,570.0,0.0,64.0
2976,83.0,48.0,40.0,0.0,64.0
2977,82.0,48.0,40.0,0.0,64.0
2978,83.0,48.0,40.0,0.0,64.0
2979,82.0,192.0,40.0,0.0,64.0
2980,83.0,0.0,180.0,0.0,64.0
2981,83.0,192.0,2490.0,0.0,64.0
2982,71.0,192.0,960.0,0.0,64.0
2983,47.0,0.0,9210.0,0.0,64.0
2984,79.0,192.0,180.0,0.0,64.0
2985,78.0,192.0,180.0,0.0,64.0
2986,76.0,192.0,180.0,0.0,64.0
2987,75.0,192.0,960.0,0.0,64.0
2988,72.0,192.0,180.0,0.0,64.0
2989,71.0,192.0,180.0,0.0,64.0
2990,69.0,192.0,180.0,0.0,64.0
2991,68.0,0.0,780.0,0.0,64.0
2992,71.0,192.0,180.0,0.0,64.0
2993,73.0,192.0,180.0,0.0,64.0
2994,75.0,192.0,180.0,0.0,64.0
2995,76.0,0.0,180.0,0.0,64.0
2996,67.0,192.0,960.0,0.0,64.0
2997,86.0,0.0,180.0,0.0,64.0
2998,78.0,192.0,180.0,0.0,64.0
2999,76.0,0.0,180.0,0.0,64.0
3000,85.0,192.0,180.0,0.0,64.0
3001,83.0,192.0,180.0,0.0,64.0
3002,74.0,0.0,180.0,0.0,64.0
3003,82.0,0.0,780.0,0.0,64.0
3004,73.0,96.0,780.0,0.0,64.0
3005,67.0,192.0,180.0,0.0,64.0
3006,66.0,192.0,180.0,0.0,64.0
3007,64.0,0.0,180.0,0.0,64.0
3008,63.0,96.0,90.0,0.0,64.0
3009,78.0,0.0,1140.0,0.0,64.0
3010,71.0,0.0,1530.0,0.0,64.0
3011,81.0,192.0,780.0,0.0,64.0
3012,64.0,96.0,90.0,0.0,64.0
3013,66.0,96.0,90.0,0.0,64.0
3014,64.0,96.0,90.0,0.0,64.0
3015,63.0,96.0,90.0,0.0,64.0
3016,64.0,96.0,90.0,0.0,64.0
3017,61.0,96.0,90.0,0.0,64.0
3018,63.0,0.0,90.0,0.0,64.0
3019,80.0,0.0,780.0,0.0,64.0
3020,64.0,192.0,180.0,0.0,64.0
3021,62.0,192.0,180.0,0.0,64.0
3022,61.0,192.0,180.0,0.0,64.0
3023,59.0,96.0,180.0,0.0,64.0
3024,58.0,96.0,90.0,0.0,64.0
3025,73.0,192.0,780.0,0.0,64.0
3026,59.0,96.0,90.0,0.0,64.0
3027,61.0,96.0,90.0,0.0,64.0
3028,59.0,96.0,90.0,0.0,64.0
3029,58.0,96.0,90.0,0.0,64.0
3030,59.0,96.0,90.0,0.0,64.0
3031,56.0,96.0,90.0,0.0,64.0
3032,58.0,0.0,90.0,0.0,64.0
3033,71.0,0.0,390.0,0.0,64.0
3034,59.0,0.0,3060.0,0.0,64.0
3035,79.0,192.0,15.0,0.0,64.0
3036,78.0,192.0,570.0,0.0,64.0
3037,69.0,192.0,180.0,0.0,64.0
3038,76.0,0.0,15.0,0.0,64.0
3039,67.0,192.0,180.0,0.0,64.0
3040,75.0,0.0,390.0,0.0,64.0
3041,66.0,192.0,390.0,0.0,64.0
3042,78.0,0.0,180.0,0.0,64.0
3043,73.0,0.0,390.0,0.0,64.0
3044,64.0,0.0,390.0,0.0,64.0
3045,80.0,96.0,180.0,0.0,64.0
3046,83.0,96.0,90.0,0.0,64.0
3047,82.0,1536.0,90.0,0.0,64.0
3048,83.0,0.0,1530.0,0.0,64.0
3049,75.0,0.0,1530.0,0.0,64.0
3050,66.0,0.0,1530.0,0.0,64.0
