,note,step,duration,channel,velocity
0,51.0,30.0,30.0,1.0,0.0
1,63.0,0.0,30.0,0.0,0.0
2,53.0,0.0,30.0,1.0,0.0
3,65.0,60.0,30.0,0.0,0.0
4,54.0,30.0,60.0,1.0,0.0
5,66.0,0.0,60.0,0.0,0.0
6,65.0,0.0,30.0,0.0,0.0
7,53.0,30.0,30.0,1.0,0.0
8,50.0,60.0,30.0,1.0,0.0
9,62.0,0.0,30.0,0.0,0.0
10,63.0,0.0,60.0,0.0,0.0
11,51.0,120.0,60.0,1.0,0.0
12,47.0,0.0,120.0,1.0,0.0
13,59.0,30.0,120.0,0.0,0.0
14,51.0,0.0,30.0,1.0,0.0
15,63.0,30.0,30.0,0.0,0.0
16,65.0,60.0,30.0,0.0,0.0
17,53.0,0.0,30.0,1.0,0.0
18,66.0,30.0,60.0,0.0,0.0
19,54.0,0.0,60.0,1.0,0.0
20,65.0,30.0,30.0,0.0,0.0
21,53.0,0.0,30.0,1.0,0.0
22,62.0,0.0,30.0,0.0,0.0
23,50.0,60.0,30.0,1.0,0.0
24,51.0,0.0,60.0,1.0,0.0
25,63.0,120.0,60.0,0.0,0.0
26,58.0,60.0,120.0,0.0,0.0
27,46.0,0.0,120.0,1.0,0.0
28,51.0,0.0,120.0,1.0,0.0
29,42.0,0.0,120.0,1.0,0.0
30,70.0,30.0,60.0,0.0,0.0
31,70.0,30.0,30.0,0.0,0.0
32,63.0,60.0,30.0,0.0,0.0
33,44.0,60.0,120.0,1.0,0.0
34,71.0,0.0,60.0,0.0,0.0
35,68.0,60.0,60.0,0.0,0.0
36,70.0,0.0,60.0,0.0,0.0
37,66.0,0.0,60.0,0.0,0.0
38,68.0,0.0,60.0,0.0,0.0
39,65.0,60.0,60.0,0.0,0.0
40,44.0,0.0,120.0,1.0,0.0
41,66.0,60.0,60.0,0.0,0.0
42,63.0,0.0,60.0,0.0,0.0
43,65.0,30.0,60.0,0.0,0.0
44,46.0,30.0,150.0,1.0,0.0
45,62.0,0.0,60.0,0.0,0.0
46,65.0,30.0,30.0,0.0,0.0
47,62.0,0.0,30.0,0.0,0.0
48,63.0,30.0,30.0,0.0,0.0
49,66.0,0.0,30.0,0.0,0.0
50,62.0,30.0,120.0,0.0,0.0
51,65.0,0.0,240.0,0.0,0.0
52,44.0,30.0,30.0,1.0,0.0
53,46.0,30.0,30.0,1.0,0.0
54,48.0,0.0,30.0,1.0,0.0
55,58.0,0.0,120.0,0.0,0.0
56,50.0,30.0,30.0,1.0,0.0
57,48.0,30.0,30.0,1.0,0.0
58,50.0,30.0,30.0,1.0,0.0
59,46.0,30.0,30.0,1.0,0.0
60,63.0,30.0,30.0,0.0,0.0
61,51.0,0.0,30.0,1.0,0.0
62,53.0,0.0,30.0,1.0,0.0
63,65.0,60.0,30.0,0.0,0.0
64,66.0,0.0,60.0,0.0,0.0
65,54.0,30.0,60.0,1.0,0.0
66,65.0,0.0,30.0,0.0,0.0
67,53.0,30.0,30.0,1.0,0.0
68,50.0,0.0,30.0,1.0,0.0
69,62.0,60.0,30.0,0.0,0.0
70,63.0,0.0,60.0,0.0,0.0
71,51.0,120.0,60.0,1.0,0.0
72,59.0,0.0,120.0,0.0,0.0
73,47.0,30.0,120.0,1.0,0.0
74,63.0,30.0,30.0,0.0,0.0
75,51.0,0.0,30.0,1.0,0.0
76,53.0,60.0,30.0,1.0,0.0
77,65.0,0.0,30.0,0.0,0.0
78,66.0,0.0,60.0,0.0,0.0
79,54.0,30.0,60.0,1.0,0.0
80,65.0,30.0,30.0,0.0,0.0
81,53.0,0.0,30.0,1.0,0.0
82,50.0,0.0,30.0,1.0,0.0
83,62.0,60.0,30.0,0.0,0.0
84,51.0,0.0,60.0,1.0,0.0
85,63.0,120.0,60.0,0.0,0.0
86,46.0,0.0,120.0,1.0,0.0
87,58.0,60.0,120.0,0.0,0.0
88,70.0,30.0,60.0,0.0,0.0
89,42.0,60.0,120.0,1.0,0.0
90,51.0,0.0,120.0,1.0,0.0
91,70.0,30.0,30.0,0.0,0.0
92,63.0,0.0,30.0,0.0,0.0
93,71.0,60.0,60.0,0.0,0.0
94,68.0,0.0,60.0,0.0,0.0
95,44.0,0.0,120.0,1.0,0.0
96,70.0,0.0,60.0,0.0,0.0
97,66.0,60.0,60.0,0.0,0.0
98,44.0,0.0,120.0,1.0,0.0
99,65.0,60.0,60.0,0.0,0.0
100,68.0,0.0,60.0,0.0,0.0
101,63.0,0.0,60.0,0.0,0.0
102,66.0,26.0,60.0,0.0,0.0
103,46.0,34.0,30.0,1.0,0.0
104,62.0,0.0,60.0,0.0,0.0
105,65.0,26.0,60.0,0.0,0.0
106,63.0,30.0,30.0,0.0,0.0
107,34.0,4.0,30.0,1.0,0.0
108,62.0,60.0,30.0,0.0,0.0
109,63.0,0.0,240.0,0.0,0.0
110,58.0,30.0,240.0,0.0,0.0
111,54.0,0.0,240.0,0.0,0.0
112,39.0,30.0,60.0,1.0,0.0
113,42.0,30.0,30.0,1.0,0.0
114,46.0,120.0,30.0,1.0,0.0
115,51.0,0.0,120.0,1.0,0.0
116,51.0,0.0,30.0,1.0,0.0
117,63.0,30.0,30.0,0.0,0.0
118,65.0,0.0,30.0,0.0,0.0
119,53.0,60.0,30.0,1.0,0.0
120,66.0,30.0,60.0,0.0,0.0
121,54.0,0.0,60.0,1.0,0.0
122,65.0,0.0,30.0,0.0,0.0
123,53.0,30.0,30.0,1.0,0.0
124,62.0,0.0,30.0,0.0,0.0
125,50.0,60.0,30.0,1.0,0.0
126,63.0,120.0,60.0,0.0,0.0
127,51.0,0.0,60.0,1.0,0.0
128,59.0,30.0,120.0,0.0,0.0
129,47.0,0.0,120.0,1.0,0.0
130,51.0,0.0,30.0,1.0,0.0
131,63.0,30.0,30.0,0.0,0.0
132,65.0,60.0,30.0,0.0,0.0
133,53.0,0.0,30.0,1.0,0.0
134,54.0,30.0,60.0,1.0,0.0
135,66.0,0.0,60.0,0.0,0.0
136,53.0,0.0,30.0,1.0,0.0
137,65.0,30.0,30.0,0.0,0.0
138,62.0,0.0,30.0,0.0,0.0
139,50.0,60.0,30.0,1.0,0.0
140,63.0,0.0,60.0,0.0,0.0
141,51.0,120.0,60.0,1.0,0.0
142,58.0,60.0,120.0,0.0,0.0
143,46.0,0.0,120.0,1.0,0.0
144,42.0,0.0,120.0,1.0,0.0
145,51.0,0.0,120.0,1.0,0.0
146,70.0,30.0,60.0,0.0,0.0
147,70.0,30.0,30.0,0.0,0.0
148,63.0,60.0,30.0,0.0,0.0
149,44.0,0.0,120.0,1.0,0.0
150,68.0,0.0,60.0,0.0,0.0
151,71.0,60.0,60.0,0.0,0.0
152,70.0,60.0,60.0,0.0,0.0
153,66.0,0.0,60.0,0.0,0.0
154,44.0,0.0,120.0,1.0,0.0
155,65.0,60.0,60.0,0.0,0.0
156,68.0,0.0,60.0,0.0,0.0
157,63.0,0.0,60.0,0.0,0.0
158,66.0,60.0,60.0,0.0,0.0
159,65.0,30.0,60.0,0.0,0.0
160,62.0,0.0,60.0,0.0,0.0
161,46.0,30.0,150.0,1.0,0.0
162,65.0,30.0,30.0,0.0,0.0
163,62.0,0.0,30.0,0.0,0.0
164,63.0,0.0,30.0,0.0,0.0
165,66.0,30.0,30.0,0.0,0.0
166,62.0,0.0,120.0,0.0,0.0
167,65.0,30.0,240.0,0.0,0.0
168,44.0,30.0,30.0,1.0,0.0
169,46.0,30.0,30.0,1.0,0.0
170,48.0,30.0,30.0,1.0,0.0
171,50.0,30.0,30.0,1.0,0.0
172,58.0,0.0,120.0,0.0,0.0
173,48.0,30.0,30.0,1.0,0.0
174,50.0,30.0,30.0,1.0,0.0
175,46.0,0.0,30.0,1.0,0.0
176,51.0,0.0,30.0,1.0,0.0
177,63.0,30.0,30.0,0.0,0.0
178,65.0,60.0,30.0,0.0,0.0
179,53.0,0.0,30.0,1.0,0.0
180,66.0,0.0,60.0,0.0,0.0
181,54.0,30.0,60.0,1.0,0.0
182,65.0,0.0,30.0,0.0,0.0
183,53.0,30.0,30.0,1.0,0.0
184,50.0,0.0,30.0,1.0,0.0
185,62.0,60.0,30.0,0.0,0.0
186,51.0,0.0,60.0,1.0,0.0
187,63.0,120.0,60.0,0.0,0.0
188,47.0,30.0,120.0,1.0,0.0
189,59.0,0.0,120.0,0.0,0.0
190,51.0,0.0,30.0,1.0,0.0
191,63.0,30.0,30.0,0.0,0.0
192,53.0,60.0,30.0,1.0,0.0
193,65.0,0.0,30.0,0.0,0.0
194,66.0,0.0,60.0,0.0,0.0
195,54.0,30.0,60.0,1.0,0.0
196,53.0,30.0,30.0,1.0,0.0
197,65.0,0.0,30.0,0.0,0.0
198,62.0,0.0,30.0,0.0,0.0
199,50.0,60.0,30.0,1.0,0.0
200,63.0,120.0,60.0,0.0,0.0
201,51.0,0.0,60.0,1.0,0.0
202,58.0,0.0,120.0,0.0,0.0
203,46.0,60.0,120.0,1.0,0.0
204,42.0,60.0,120.0,1.0,0.0
205,70.0,30.0,60.0,0.0,0.0
206,51.0,0.0,120.0,1.0,0.0
207,70.0,30.0,30.0,0.0,0.0
208,63.0,0.0,30.0,0.0,0.0
209,44.0,60.0,120.0,1.0,0.0
210,71.0,60.0,60.0,0.0,0.0
211,68.0,0.0,60.0,0.0,0.0
212,70.0,0.0,60.0,0.0,0.0
213,66.0,0.0,60.0,0.0,0.0
214,65.0,60.0,60.0,0.0,0.0
215,68.0,0.0,60.0,0.0,0.0
216,44.0,26.0,120.0,1.0,0.0
217,63.0,0.0,60.0,0.0,0.0
218,66.0,0.0,60.0,0.0,0.0
219,65.0,0.0,60.0,0.0,0.0
220,46.0,34.0,30.0,1.0,0.0
221,62.0,26.0,60.0,0.0,0.0
222,34.0,4.0,30.0,1.0,0.0
223,63.0,30.0,30.0,0.0,0.0
224,62.0,60.0,30.0,0.0,0.0
225,63.0,30.0,240.0,0.0,0.0
226,39.0,30.0,60.0,1.0,0.0
227,54.0,0.0,240.0,0.0,0.0
228,58.0,0.0,240.0,0.0,0.0
229,42.0,30.0,30.0,1.0,0.0
230,46.0,120.0,30.0,1.0,0.0
231,51.0,0.0,120.0,1.0,0.0
232,54.0,0.0,30.0,1.0,0.0
233,66.0,30.0,30.0,0.0,0.0
234,56.0,0.0,30.0,1.0,0.0
235,68.0,60.0,30.0,0.0,0.0
236,58.0,0.0,60.0,1.0,0.0
237,70.0,30.0,60.0,0.0,0.0
238,56.0,0.0,30.0,1.0,0.0
239,68.0,30.0,30.0,0.0,0.0
240,65.0,60.0,30.0,0.0,0.0
241,53.0,0.0,30.0,1.0,0.0
242,54.0,120.0,60.0,1.0,0.0
243,66.0,0.0,60.0,0.0,0.0
244,66.0,0.0,120.0,0.0,0.0
245,75.0,0.0,120.0,0.0,0.0
246,47.0,30.0,120.0,1.0,0.0
247,66.0,30.0,30.0,0.0,0.0
248,54.0,0.0,30.0,1.0,0.0
249,68.0,60.0,30.0,0.0,0.0
250,56.0,0.0,30.0,1.0,0.0
251,58.0,30.0,60.0,1.0,0.0
252,70.0,0.0,60.0,0.0,0.0
253,68.0,0.0,30.0,0.0,0.0
254,56.0,30.0,30.0,1.0,0.0
255,65.0,0.0,30.0,0.0,0.0
256,53.0,60.0,30.0,1.0,0.0
257,66.0,0.0,60.0,0.0,0.0
258,54.0,120.0,60.0,1.0,0.0
259,73.0,0.0,120.0,0.0,0.0
260,66.0,26.0,120.0,0.0,0.0
261,46.0,0.0,120.0,1.0,0.0
262,47.0,60.0,120.0,1.0,0.0
263,71.0,94.0,30.0,0.0,0.0
264,75.0,0.0,30.0,0.0,0.0
265,71.0,0.0,120.0,0.0,0.0
266,75.0,60.0,120.0,0.0,0.0
267,35.0,0.0,120.0,1.0,0.0
268,73.0,0.0,60.0,0.0,0.0
269,70.0,60.0,60.0,0.0,0.0
270,71.0,0.0,60.0,0.0,0.0
271,47.0,60.0,120.0,1.0,0.0
272,68.0,60.0,60.0,0.0,0.0
273,66.0,0.0,60.0,0.0,0.0
274,70.0,0.0,60.0,0.0,0.0
275,68.0,0.0,60.0,0.0,0.0
276,65.0,30.0,60.0,0.0,0.0
277,49.0,30.0,150.0,1.0,0.0
278,65.0,30.0,30.0,0.0,0.0
279,68.0,0.0,30.0,0.0,0.0
280,66.0,30.0,30.0,0.0,0.0
281,70.0,0.0,30.0,0.0,0.0
282,65.0,0.0,120.0,0.0,0.0
283,68.0,0.0,240.0,0.0,0.0
284,47.0,30.0,30.0,1.0,0.0
285,49.0,30.0,30.0,1.0,0.0
286,51.0,30.0,30.0,1.0,0.0
287,61.0,30.0,120.0,0.0,0.0
288,49.0,30.0,30.0,1.0,0.0
289,47.0,30.0,30.0,1.0,0.0
290,49.0,30.0,30.0,1.0,0.0
291,46.0,0.0,30.0,1.0,0.0
292,44.0,30.0,120.0,1.0,0.0
293,68.0,0.0,30.0,0.0,0.0
294,71.0,30.0,30.0,0.0,0.0
295,67.0,60.0,30.0,0.0,0.0
296,70.0,0.0,30.0,0.0,0.0
297,71.0,0.0,60.0,0.0,0.0
298,68.0,0.0,60.0,0.0,0.0
299,71.0,30.0,30.0,0.0,0.0
300,68.0,0.0,30.0,0.0,0.0
301,56.0,30.0,150.0,1.0,0.0
302,70.0,60.0,30.0,0.0,0.0
303,66.0,0.0,30.0,0.0,0.0
304,68.0,30.0,60.0,0.0,0.0
305,71.0,0.0,60.0,0.0,0.0
306,68.0,0.0,150.0,0.0,0.0
307,71.0,30.0,150.0,0.0,0.0
308,54.0,30.0,30.0,1.0,0.0
309,52.0,30.0,30.0,1.0,0.0
310,51.0,30.0,30.0,1.0,0.0
311,40.0,0.0,120.0,1.0,0.0
312,70.0,60.0,30.0,0.0,0.0
313,67.0,0.0,30.0,0.0,0.0
314,71.0,30.0,60.0,0.0,0.0
315,68.0,0.0,60.0,0.0,0.0
316,71.0,0.0,30.0,0.0,0.0
317,52.0,30.0,150.0,1.0,0.0
318,68.0,30.0,30.0,0.0,0.0
319,70.0,60.0,30.0,0.0,0.0
320,67.0,0.0,30.0,0.0,0.0
321,68.0,0.0,60.0,0.0,0.0
322,71.0,30.0,60.0,0.0,0.0
323,71.0,0.0,180.0,0.0,0.0
324,68.0,30.0,180.0,0.0,0.0
325,51.0,30.0,30.0,1.0,0.0
326,49.0,30.0,30.0,1.0,0.0
327,47.0,60.0,30.0,1.0,0.0
328,49.0,60.0,120.0,1.0,0.0
329,70.0,30.0,30.0,0.0,0.0
330,67.0,0.0,60.0,0.0,0.0
331,76.0,0.0,30.0,0.0,0.0
332,68.0,0.0,120.0,0.0,0.0
333,51.0,60.0,120.0,1.0,0.0
334,71.0,30.0,60.0,0.0,0.0
335,71.0,30.0,30.0,0.0,0.0
336,73.0,0.0,30.0,0.0,0.0
337,39.0,60.0,120.0,1.0,0.0
338,70.0,30.0,60.0,0.0,0.0
339,67.0,0.0,120.0,0.0,0.0
340,70.0,30.0,30.0,0.0,0.0
341,71.0,0.0,30.0,0.0,0.0
342,32.0,30.0,150.0,1.0,0.0
343,59.0,0.0,120.0,0.0,0.0
344,63.0,30.0,120.0,0.0,0.0
345,68.0,30.0,60.0,0.0,0.0
346,68.0,30.0,30.0,0.0,0.0
347,67.0,0.0,30.0,0.0,0.0
348,59.0,0.0,240.0,0.0,0.0
349,68.0,0.0,240.0,0.0,0.0
350,63.0,0.0,240.0,0.0,0.0
351,44.0,30.0,30.0,1.0,0.0
352,46.0,30.0,30.0,1.0,0.0
353,47.0,30.0,30.0,1.0,0.0
354,49.0,30.0,30.0,1.0,0.0
355,51.0,30.0,30.0,1.0,0.0
356,53.0,30.0,30.0,1.0,0.0
357,55.0,26.0,30.0,1.0,0.0
358,63.0,30.0,30.0,0.0,0.0
359,56.0,4.0,30.0,1.0,0.0
360,68.0,26.0,30.0,0.0,0.0
361,71.0,60.0,30.0,0.0,0.0
362,54.0,0.0,30.0,1.0,0.0
363,53.0,4.0,30.0,1.0,0.0
364,61.0,30.0,30.0,0.0,0.0
365,68.0,26.0,30.0,0.0,0.0
366,71.0,64.0,30.0,0.0,0.0
367,49.0,0.0,30.0,1.0,0.0
368,42.0,30.0,30.0,1.0,0.0
369,70.0,30.0,120.0,0.0,0.0
370,49.0,60.0,30.0,1.0,0.0
371,54.0,0.0,120.0,1.0,0.0
372,61.0,30.0,30.0,0.0,0.0
373,66.0,26.0,30.0,0.0,0.0
374,70.0,60.0,30.0,0.0,0.0
375,53.0,0.0,30.0,1.0,0.0
376,59.0,30.0,30.0,0.0,0.0
377,51.0,4.0,30.0,1.0,0.0
378,66.0,26.0,30.0,0.0,0.0
379,47.0,64.0,30.0,1.0,0.0
380,70.0,0.0,30.0,0.0,0.0
381,68.0,30.0,120.0,0.0,0.0
382,41.0,30.0,30.0,1.0,0.0
383,47.0,60.0,30.0,1.0,0.0
384,53.0,0.0,120.0,1.0,0.0
385,59.0,30.0,30.0,0.0,0.0
386,65.0,26.0,30.0,0.0,0.0
387,51.0,0.0,30.0,1.0,0.0
388,68.0,60.0,30.0,0.0,0.0
389,58.0,30.0,30.0,0.0,0.0
390,50.0,4.0,30.0,1.0,0.0
391,65.0,26.0,30.0,0.0,0.0
392,46.0,34.0,30.0,1.0,0.0
393,68.0,26.0,60.0,0.0,0.0
394,39.0,34.0,30.0,1.0,0.0
395,66.0,26.0,30.0,0.0,0.0
396,65.0,30.0,30.0,0.0,0.0
397,51.0,4.0,30.0,1.0,0.0
398,63.0,30.0,30.0,0.0,0.0
399,46.0,0.0,120.0,1.0,0.0
400,69.0,30.0,30.0,0.0,0.0
401,70.0,30.0,30.0,0.0,0.0
402,66.0,30.0,30.0,0.0,0.0
403,63.0,30.0,30.0,0.0,0.0
404,65.0,30.0,30.0,0.0,0.0
405,34.0,30.0,150.0,1.0,0.0
406,62.0,30.0,30.0,0.0,0.0
407,63.0,30.0,30.0,0.0,0.0
408,65.0,30.0,30.0,0.0,0.0
409,58.0,0.0,120.0,0.0,0.0
410,56.0,30.0,30.0,1.0,0.0
411,54.0,30.0,30.0,1.0,0.0
412,53.0,30.0,30.0,1.0,0.0
413,63.0,30.0,30.0,0.0,0.0
414,51.0,0.0,30.0,1.0,0.0
415,53.0,60.0,30.0,1.0,0.0
416,65.0,0.0,30.0,0.0,0.0
417,66.0,30.0,60.0,0.0,0.0
418,54.0,0.0,60.0,1.0,0.0
419,53.0,30.0,30.0,1.0,0.0
420,65.0,0.0,30.0,0.0,0.0
421,50.0,0.0,30.0,1.0,0.0
422,62.0,60.0,30.0,0.0,0.0
423,51.0,120.0,60.0,1.0,0.0
424,63.0,0.0,60.0,0.0,0.0
425,59.0,30.0,120.0,0.0,0.0
426,47.0,0.0,120.0,1.0,0.0
427,51.0,0.0,30.0,1.0,0.0
428,63.0,30.0,30.0,0.0,0.0
429,53.0,0.0,30.0,1.0,0.0
430,65.0,60.0,30.0,0.0,0.0
431,54.0,0.0,60.0,1.0,0.0
432,66.0,30.0,60.0,0.0,0.0
433,53.0,30.0,30.0,1.0,0.0
434,65.0,0.0,30.0,0.0,0.0
435,62.0,0.0,30.0,0.0,0.0
436,50.0,60.0,30.0,1.0,0.0
437,63.0,120.0,60.0,0.0,0.0
438,51.0,0.0,60.0,1.0,0.0
439,58.0,60.0,120.0,0.0,0.0
440,46.0,0.0,120.0,1.0,0.0
441,51.0,60.0,120.0,1.0,0.0
442,70.0,30.0,60.0,0.0,0.0
443,42.0,0.0,120.0,1.0,0.0
444,70.0,30.0,30.0,0.0,0.0
445,63.0,0.0,30.0,0.0,0.0
446,68.0,60.0,60.0,0.0,0.0
447,71.0,0.0,60.0,0.0,0.0
448,44.0,60.0,120.0,1.0,0.0
449,66.0,0.0,60.0,0.0,0.0
450,70.0,0.0,60.0,0.0,0.0
451,44.0,26.0,120.0,1.0,0.0
452,65.0,0.0,60.0,0.0,0.0
453,68.0,60.0,60.0,0.0,0.0
454,63.0,0.0,60.0,0.0,0.0
455,66.0,0.0,60.0,0.0,0.0
456,46.0,34.0,30.0,1.0,0.0
457,62.0,26.0,60.0,0.0,0.0
458,65.0,0.0,60.0,0.0,0.0
459,63.0,30.0,30.0,0.0,0.0
460,34.0,4.0,30.0,1.0,0.0
461,62.0,60.0,30.0,0.0,0.0
462,39.0,30.0,60.0,1.0,0.0
463,63.0,0.0,240.0,0.0,0.0
464,58.0,30.0,240.0,0.0,0.0
465,54.0,0.0,240.0,0.0,0.0
466,42.0,30.0,30.0,1.0,0.0
467,46.0,120.0,30.0,1.0,0.0
468,51.0,0.0,120.0,1.0,0.0
469,66.0,0.0,30.0,0.0,0.0
470,54.0,30.0,30.0,1.0,0.0
471,68.0,0.0,30.0,0.0,0.0
472,56.0,60.0,30.0,1.0,0.0
473,70.0,0.0,60.0,0.0,0.0
474,58.0,30.0,60.0,1.0,0.0
475,56.0,30.0,30.0,1.0,0.0
476,68.0,0.0,30.0,0.0,0.0
477,53.0,60.0,30.0,1.0,0.0
478,65.0,0.0,30.0,0.0,0.0
479,66.0,120.0,60.0,0.0,0.0
480,54.0,0.0,60.0,1.0,0.0
481,66.0,0.0,120.0,0.0,0.0
482,75.0,30.0,120.0,0.0,0.0
483,47.0,0.0,120.0,1.0,0.0
484,66.0,30.0,30.0,0.0,0.0
485,54.0,0.0,30.0,1.0,0.0
486,56.0,0.0,30.0,1.0,0.0
487,68.0,60.0,30.0,0.0,0.0
488,70.0,30.0,60.0,0.0,0.0
489,58.0,0.0,60.0,1.0,0.0
490,56.0,0.0,30.0,1.0,0.0
491,68.0,30.0,30.0,0.0,0.0
492,65.0,60.0,30.0,0.0,0.0
493,53.0,0.0,30.0,1.0,0.0
494,54.0,0.0,60.0,1.0,0.0
495,66.0,120.0,60.0,0.0,0.0
496,46.0,0.0,120.0,1.0,0.0
497,73.0,26.0,120.0,0.0,0.0
498,66.0,0.0,120.0,0.0,0.0
499,47.0,60.0,120.0,1.0,0.0
500,71.0,94.0,30.0,0.0,0.0
501,75.0,0.0,30.0,0.0,0.0
502,71.0,0.0,120.0,0.0,0.0
503,75.0,60.0,120.0,0.0,0.0
504,35.0,0.0,120.0,1.0,0.0
505,73.0,0.0,60.0,0.0,0.0
506,70.0,60.0,60.0,0.0,0.0
507,47.0,0.0,120.0,1.0,0.0
508,68.0,60.0,60.0,0.0,0.0
509,71.0,0.0,60.0,0.0,0.0
510,66.0,60.0,60.0,0.0,0.0
511,70.0,0.0,60.0,0.0,0.0
512,49.0,30.0,150.0,1.0,0.0
513,65.0,30.0,60.0,0.0,0.0
514,68.0,0.0,60.0,0.0,0.0
515,65.0,30.0,30.0,0.0,0.0
516,68.0,0.0,30.0,0.0,0.0
517,66.0,0.0,30.0,0.0,0.0
518,70.0,30.0,30.0,0.0,0.0
519,68.0,0.0,240.0,0.0,0.0
520,65.0,0.0,120.0,0.0,0.0
521,47.0,30.0,30.0,1.0,0.0
522,49.0,30.0,30.0,1.0,0.0
523,51.0,30.0,30.0,1.0,0.0
524,61.0,30.0,120.0,0.0,0.0
525,49.0,30.0,30.0,1.0,0.0
526,47.0,30.0,30.0,1.0,0.0
527,49.0,30.0,30.0,1.0,0.0
528,46.0,0.0,30.0,1.0,0.0
529,44.0,30.0,120.0,1.0,0.0
530,71.0,0.0,30.0,0.0,0.0
531,68.0,30.0,30.0,0.0,0.0
532,67.0,60.0,30.0,0.0,0.0
533,70.0,0.0,30.0,0.0,0.0
534,68.0,0.0,60.0,0.0,0.0
535,71.0,0.0,60.0,0.0,0.0
536,71.0,0.0,30.0,0.0,0.0
537,68.0,30.0,30.0,0.0,0.0
538,56.0,30.0,150.0,1.0,0.0
539,70.0,60.0,30.0,0.0,0.0
540,66.0,0.0,30.0,0.0,0.0
541,71.0,0.0,60.0,0.0,0.0
542,68.0,30.0,60.0,0.0,0.0
543,71.0,0.0,150.0,0.0,0.0
544,68.0,30.0,150.0,0.0,0.0
545,54.0,30.0,30.0,1.0,0.0
546,52.0,30.0,30.0,1.0,0.0
547,51.0,30.0,30.0,1.0,0.0
548,40.0,30.0,120.0,1.0,0.0
549,67.0,0.0,30.0,0.0,0.0
550,70.0,60.0,30.0,0.0,0.0
551,71.0,0.0,60.0,0.0,0.0
552,68.0,0.0,60.0,0.0,0.0
553,52.0,30.0,150.0,1.0,0.0
554,71.0,30.0,30.0,0.0,0.0
555,68.0,0.0,30.0,0.0,0.0
556,70.0,60.0,30.0,0.0,0.0
557,67.0,0.0,30.0,0.0,0.0
558,71.0,0.0,60.0,0.0,0.0
559,68.0,30.0,60.0,0.0,0.0
560,68.0,30.0,180.0,0.0,0.0
561,71.0,0.0,180.0,0.0,0.0
562,51.0,30.0,30.0,1.0,0.0
563,49.0,30.0,30.0,1.0,0.0
564,47.0,60.0,30.0,1.0,0.0
565,49.0,0.0,120.0,1.0,0.0
566,67.0,0.0,60.0,0.0,0.0
567,70.0,30.0,30.0,0.0,0.0
568,76.0,60.0,30.0,0.0,0.0
569,51.0,60.0,120.0,1.0,0.0
570,68.0,0.0,120.0,0.0,0.0
571,71.0,30.0,60.0,0.0,0.0
572,71.0,30.0,30.0,0.0,0.0
573,73.0,0.0,30.0,0.0,0.0
574,70.0,30.0,60.0,0.0,0.0
575,39.0,0.0,120.0,1.0,0.0
576,67.0,60.0,120.0,0.0,0.0
577,70.0,30.0,30.0,0.0,0.0
578,71.0,0.0,30.0,0.0,0.0
579,32.0,30.0,150.0,1.0,0.0
580,68.0,30.0,60.0,0.0,0.0
581,63.0,30.0,120.0,0.0,0.0
582,59.0,0.0,120.0,0.0,0.0
583,68.0,30.0,30.0,0.0,0.0
584,67.0,0.0,30.0,0.0,0.0
585,68.0,0.0,240.0,0.0,0.0
586,63.0,0.0,240.0,0.0,0.0
587,59.0,0.0,240.0,0.0,0.0
588,44.0,30.0,30.0,1.0,0.0
589,46.0,30.0,30.0,1.0,0.0
590,47.0,30.0,30.0,1.0,0.0
591,49.0,30.0,30.0,1.0,0.0
592,51.0,30.0,30.0,1.0,0.0
593,53.0,30.0,30.0,1.0,0.0
594,55.0,26.0,30.0,1.0,0.0
595,56.0,4.0,30.0,1.0,0.0
596,63.0,30.0,30.0,0.0,0.0
597,68.0,26.0,30.0,0.0,0.0
598,54.0,0.0,30.0,1.0,0.0
599,71.0,60.0,30.0,0.0,0.0
600,61.0,30.0,30.0,0.0,0.0
601,53.0,4.0,30.0,1.0,0.0
602,68.0,26.0,30.0,0.0,0.0
603,71.0,64.0,30.0,0.0,0.0
604,49.0,0.0,30.0,1.0,0.0
605,70.0,30.0,120.0,0.0,0.0
606,42.0,30.0,30.0,1.0,0.0
607,49.0,60.0,30.0,1.0,0.0
608,54.0,0.0,120.0,1.0,0.0
609,61.0,30.0,30.0,0.0,0.0
610,66.0,26.0,30.0,0.0,0.0
611,53.0,60.0,30.0,1.0,0.0
612,70.0,0.0,30.0,0.0,0.0
613,51.0,4.0,30.0,1.0,0.0
614,59.0,30.0,30.0,0.0,0.0
615,66.0,26.0,30.0,0.0,0.0
616,70.0,64.0,30.0,0.0,0.0
617,47.0,0.0,30.0,1.0,0.0
618,68.0,30.0,120.0,0.0,0.0
619,41.0,30.0,30.0,1.0,0.0
620,47.0,60.0,30.0,1.0,0.0
621,53.0,26.0,120.0,1.0,0.0
622,59.0,30.0,30.0,0.0,0.0
623,65.0,0.0,30.0,0.0,0.0
624,68.0,0.0,30.0,0.0,0.0
625,51.0,60.0,30.0,1.0,0.0
626,58.0,30.0,30.0,0.0,0.0
627,50.0,4.0,30.0,1.0,0.0
628,65.0,26.0,30.0,0.0,0.0
629,68.0,26.0,60.0,0.0,0.0
630,46.0,34.0,30.0,1.0,0.0
631,39.0,34.0,30.0,1.0,0.0
632,66.0,26.0,30.0,0.0,0.0
633,51.0,4.0,30.0,1.0,0.0
634,65.0,30.0,30.0,0.0,0.0
635,63.0,30.0,30.0,0.0,0.0
636,69.0,30.0,30.0,0.0,0.0
637,46.0,30.0,120.0,1.0,0.0
638,70.0,30.0,30.0,0.0,0.0
639,66.0,30.0,30.0,0.0,0.0
640,63.0,0.0,30.0,0.0,0.0
641,34.0,30.0,150.0,1.0,0.0
642,65.0,30.0,30.0,0.0,0.0
643,62.0,30.0,30.0,0.0,0.0
644,63.0,30.0,30.0,0.0,0.0
645,65.0,30.0,30.0,0.0,0.0
646,58.0,0.0,120.0,0.0,0.0
647,56.0,30.0,30.0,1.0,0.0
648,54.0,30.0,30.0,1.0,0.0
649,53.0,30.0,30.0,1.0,0.0
650,63.0,0.0,30.0,0.0,0.0
651,51.0,30.0,30.0,1.0,0.0
652,53.0,0.0,30.0,1.0,0.0
653,65.0,60.0,30.0,0.0,0.0
654,54.0,30.0,60.0,1.0,0.0
655,66.0,0.0,60.0,0.0,0.0
656,65.0,0.0,30.0,0.0,0.0
657,53.0,30.0,30.0,1.0,0.0
658,62.0,60.0,30.0,0.0,0.0
659,50.0,0.0,30.0,1.0,0.0
660,63.0,120.0,60.0,0.0,0.0
661,51.0,0.0,60.0,1.0,0.0
662,59.0,0.0,120.0,0.0,0.0
663,47.0,30.0,120.0,1.0,0.0
664,63.0,0.0,30.0,0.0,0.0
665,51.0,30.0,30.0,1.0,0.0
666,65.0,0.0,30.0,0.0,0.0
667,53.0,60.0,30.0,1.0,0.0
668,54.0,0.0,60.0,1.0,0.0
669,66.0,30.0,60.0,0.0,0.0
670,53.0,0.0,30.0,1.0,0.0
671,65.0,30.0,30.0,0.0,0.0
672,50.0,0.0,30.0,1.0,0.0
673,62.0,60.0,30.0,0.0,0.0
674,51.0,120.0,60.0,1.0,0.0
675,63.0,0.0,60.0,0.0,0.0
676,46.0,0.0,120.0,1.0,0.0
677,58.0,60.0,120.0,0.0,0.0
678,42.0,0.0,120.0,1.0,0.0
679,51.0,60.0,120.0,1.0,0.0
680,70.0,30.0,60.0,0.0,0.0
681,70.0,30.0,30.0,0.0,0.0
682,63.0,0.0,30.0,0.0,0.0
683,71.0,0.0,60.0,0.0,0.0
684,68.0,60.0,60.0,0.0,0.0
685,44.0,0.0,120.0,1.0,0.0
686,66.0,60.0,60.0,0.0,0.0
687,70.0,0.0,60.0,0.0,0.0
688,65.0,60.0,60.0,0.0,0.0
689,68.0,0.0,60.0,0.0,0.0
690,44.0,0.0,120.0,1.0,0.0
691,66.0,0.0,60.0,0.0,0.0
692,63.0,26.0,60.0,0.0,0.0
693,65.0,26.0,60.0,0.0,0.0
694,62.0,0.0,60.0,0.0,0.0
695,46.0,34.0,30.0,1.0,0.0
696,63.0,30.0,30.0,0.0,0.0
697,34.0,4.0,30.0,1.0,0.0
698,62.0,60.0,30.0,0.0,0.0
699,39.0,30.0,60.0,1.0,0.0
700,54.0,0.0,240.0,0.0,0.0
701,58.0,0.0,240.0,0.0,0.0
702,63.0,0.0,240.0,0.0,0.0
703,42.0,30.0,30.0,1.0,0.0
704,46.0,120.0,30.0,1.0,0.0
705,51.0,0.0,120.0,1.0,0.0
