,note,step,duration,channel,velocity
0,64.0,0.0,1020.0,2.0,0.0
1,68.0,0.0,510.0,1.0,0.0
2,52.0,512.0,510.0,3.0,0.0
3,71.0,512.0,1020.0,0.0,0.0
4,69.0,0.0,510.0,1.0,0.0
5,54.0,0.0,510.0,3.0,0.0
6,71.0,512.0,510.0,1.0,0.0
7,71.0,0.0,1020.0,0.0,0.0
8,56.0,0.0,510.0,3.0,0.0
9,52.0,0.0,510.0,3.0,0.0
10,68.0,512.0,1020.0,1.0,0.0
11,73.0,0.0,1020.0,0.0,0.0
12,57.0,0.0,1530.0,3.0,0.0
13,64.0,512.0,15.0,2.0,0.0
14,66.0,0.0,1020.0,1.0,0.0
15,71.0,512.0,1020.0,0.0,0.0
16,63.0,512.0,510.0,2.0,0.0
17,71.0,0.0,510.0,1.0,0.0
18,56.0,0.0,510.0,3.0,0.0
19,64.0,0.0,510.0,2.0,0.0
20,54.0,512.0,1020.0,3.0,0.0
21,69.0,0.0,1020.0,1.0,0.0
22,69.0,0.0,1020.0,2.0,0.0
23,73.0,512.0,510.0,0.0,0.0
24,75.0,0.0,510.0,0.0,0.0
25,71.0,0.0,1020.0,1.0,0.0
26,68.0,0.0,1020.0,2.0,0.0
27,56.0,512.0,510.0,3.0,0.0
28,57.0,0.0,510.0,3.0,0.0
29,66.0,512.0,510.0,2.0,0.0
30,76.0,512.0,15.0,0.0,0.0
31,59.0,0.0,2040.0,3.0,0.0
32,68.0,512.0,510.0,2.0,0.0
33,75.0,0.0,1020.0,0.0,0.0
34,69.0,256.0,510.0,2.0,0.0
35,71.0,256.0,270.0,2.0,0.0
36,69.0,0.0,270.0,2.0,0.0
37,76.0,0.0,2040.0,0.0,0.0
38,52.0,512.0,2040.0,3.0,0.0
39,71.0,2048.0,15.0,1.0,0.0
40,68.0,0.0,2040.0,2.0,0.0
41,71.0,0.0,15.0,1.0,0.0
42,59.0,0.0,1020.0,3.0,0.0
43,78.0,0.0,1020.0,0.0,0.0
44,69.0,0.0,510.0,1.0,0.0
45,80.0,0.0,1020.0,0.0,0.0
46,63.0,1024.0,15.0,2.0,0.0
47,60.0,0.0,1020.0,3.0,0.0
48,68.0,2048.0,15.0,1.0,0.0
49,61.0,0.0,2040.0,2.0,0.0
50,76.0,0.0,2040.0,0.0,0.0
51,61.0,0.0,2040.0,3.0,0.0
52,75.0,512.0,510.0,0.0,0.0
53,56.0,0.0,1020.0,3.0,0.0
54,68.0,512.0,15.0,1.0,0.0
55,76.0,512.0,510.0,0.0,0.0
56,59.0,0.0,15.0,2.0,0.0
57,78.0,0.0,1020.0,0.0,0.0
58,51.0,512.0,510.0,3.0,0.0
59,52.0,0.0,510.0,3.0,0.0
60,54.0,0.0,2040.0,3.0,0.0
61,58.0,0.0,2040.0,2.0,0.0
62,73.0,1024.0,2040.0,0.0,0.0
63,66.0,2048.0,15.0,1.0,0.0
64,58.0,0.0,1020.0,2.0,0.0
65,51.0,0.0,1020.0,3.0,0.0
66,78.0,0.0,1020.0,0.0,0.0
67,66.0,1024.0,1020.0,1.0,0.0
68,56.0,0.0,1530.0,3.0,0.0
69,78.0,512.0,1020.0,0.0,0.0
70,59.0,512.0,1530.0,2.0,0.0
71,68.0,0.0,15.0,1.0,0.0
72,76.0,0.0,1020.0,0.0,0.0
73,66.0,0.0,1020.0,1.0,0.0
74,61.0,512.0,510.0,2.0,0.0
75,58.0,0.0,510.0,3.0,0.0
76,75.0,0.0,1020.0,0.0,0.0
77,59.0,0.0,510.0,3.0,0.0
78,63.0,512.0,510.0,2.0,0.0
79,51.0,0.0,510.0,3.0,0.0
80,66.0,512.0,510.0,2.0,0.0
81,71.0,0.0,15.0,1.0,0.0
82,73.0,0.0,1020.0,0.0,0.0
83,52.0,512.0,510.0,3.0,0.0
84,68.0,0.0,1020.0,2.0,0.0
85,49.0,0.0,510.0,3.0,0.0
86,54.0,0.0,1020.0,3.0,0.0
87,61.0,256.0,270.0,2.0,0.0
88,70.0,2048.0,1020.0,1.0,0.0
89,73.0,256.0,780.0,0.0,0.0
90,63.0,256.0,270.0,2.0,0.0
91,64.0,0.0,510.0,2.0,0.0
92,71.0,0.0,270.0,0.0,0.0
93,63.0,512.0,2040.0,2.0,0.0
94,47.0,0.0,2040.0,3.0,0.0
95,66.0,0.0,2040.0,1.0,0.0
96,71.0,0.0,2040.0,0.0,0.0
97,59.0,0.0,1020.0,2.0,0.0
98,71.0,512.0,510.0,1.0,0.0
99,56.0,0.0,510.0,3.0,0.0
100,54.0,512.0,510.0,3.0,0.0
101,70.0,0.0,510.0,1.0,0.0
102,68.0,512.0,1020.0,2.0,0.0
103,76.0,0.0,15.0,0.0,0.0
104,71.0,0.0,510.0,1.0,0.0
105,56.0,512.0,510.0,3.0,0.0
106,73.0,0.0,510.0,1.0,0.0
107,58.0,0.0,510.0,3.0,0.0
108,66.0,0.0,1020.0,2.0,0.0
109,75.0,512.0,1020.0,0.0,0.0
110,59.0,512.0,510.0,3.0,0.0
111,57.0,0.0,510.0,3.0,0.0
112,71.0,0.0,15.0,1.0,0.0
113,64.0,0.0,1020.0,2.0,0.0
114,56.0,512.0,510.0,3.0,0.0
115,76.0,512.0,1020.0,0.0,0.0
116,52.0,0.0,510.0,3.0,0.0
117,57.0,512.0,510.0,3.0,0.0
118,64.0,512.0,1020.0,2.0,0.0
119,73.0,0.0,1020.0,0.0,0.0
120,56.0,0.0,510.0,3.0,0.0
121,57.0,512.0,510.0,3.0,0.0
122,69.0,0.0,1020.0,1.0,0.0
123,78.0,0.0,1020.0,0.0,0.0
124,61.0,512.0,1020.0,2.0,0.0
125,54.0,0.0,510.0,3.0,0.0
126,68.0,0.0,2040.0,1.0,0.0
127,78.0,0.0,1020.0,0.0,0.0
128,59.0,512.0,510.0,3.0,0.0
129,62.0,0.0,1020.0,2.0,0.0
130,56.0,512.0,510.0,3.0,0.0
131,61.0,512.0,510.0,3.0,0.0
132,77.0,0.0,1020.0,0.0,0.0
133,49.0,0.0,510.0,3.0,0.0
134,61.0,2048.0,15.0,2.0,0.0
135,54.0,0.0,2040.0,3.0,0.0
136,70.0,0.0,2040.0,1.0,0.0
137,78.0,0.0,15.0,0.0,0.0
138,63.0,0.0,1020.0,2.0,0.0
139,59.0,0.0,1020.0,3.0,0.0
140,62.0,256.0,510.0,2.0,0.0
141,80.0,2048.0,1020.0,0.0,0.0
142,71.0,0.0,15.0,1.0,0.0
143,52.0,0.0,1020.0,3.0,0.0
144,64.0,256.0,270.0,2.0,0.0
145,62.0,0.0,270.0,2.0,0.0
146,61.0,512.0,2040.0,2.0,0.0
147,57.0,0.0,2040.0,3.0,0.0
148,69.0,0.0,2040.0,1.0,0.0
149,76.0,0.0,2040.0,0.0,0.0
150,75.0,0.0,510.0,0.0,0.0
151,66.0,512.0,510.0,1.0,0.0
152,57.0,0.0,510.0,3.0,0.0
153,76.0,512.0,510.0,0.0,0.0
154,68.0,0.0,510.0,1.0,0.0
155,56.0,0.0,510.0,3.0,0.0
156,59.0,0.0,15.0,2.0,0.0
157,51.0,0.0,510.0,3.0,0.0
158,66.0,512.0,510.0,1.0,0.0
159,78.0,2048.0,1020.0,0.0,0.0
160,68.0,0.0,510.0,1.0,0.0
161,52.0,0.0,510.0,3.0,0.0
162,73.0,512.0,2040.0,0.0,0.0
163,54.0,0.0,2040.0,3.0,0.0
164,66.0,0.0,2040.0,2.0,0.0
165,78.0,512.0,1020.0,0.0,0.0
166,51.0,0.0,1020.0,3.0,0.0
167,70.0,0.0,15.0,1.0,0.0
168,66.0,512.0,510.0,2.0,0.0
169,64.0,0.0,510.0,2.0,0.0
170,71.0,512.0,510.0,1.0,0.0
171,56.0,0.0,1020.0,3.0,0.0
172,63.0,0.0,1020.0,2.0,0.0
173,78.0,0.0,1020.0,0.0,0.0
174,70.0,512.0,510.0,1.0,0.0
175,49.0,0.0,1020.0,3.0,0.0
176,76.0,0.0,1020.0,0.0,0.0
177,68.0,512.0,510.0,1.0,0.0
178,64.0,0.0,1020.0,2.0,0.0
179,70.0,512.0,510.0,1.0,0.0
180,75.0,0.0,510.0,0.0,0.0
181,71.0,0.0,1020.0,1.0,0.0
182,51.0,512.0,510.0,3.0,0.0
183,73.0,0.0,510.0,0.0,0.0
184,52.0,0.0,510.0,3.0,0.0
185,71.0,0.0,1020.0,1.0,0.0
186,66.0,1024.0,15.0,2.0,0.0
187,54.0,0.0,2040.0,3.0,0.0
188,73.0,256.0,15.0,0.0,0.0
189,61.0,256.0,270.0,2.0,0.0
190,70.0,0.0,1020.0,1.0,0.0
191,63.0,256.0,270.0,2.0,0.0
192,64.0,2048.0,510.0,2.0,0.0
193,71.0,0.0,270.0,0.0,0.0
194,47.0,0.0,2040.0,3.0,0.0
195,66.0,0.0,2040.0,1.0,0.0
196,63.0,0.0,2040.0,2.0,0.0
197,71.0,0.0,2040.0,0.0,0.0
