,note,step,duration,channel,velocity
0,56.0,96.0,90.0,0.0,64.0
1,58.0,96.0,90.0,0.0,64.0
2,60.0,96.0,90.0,0.0,64.0
3,61.0,96.0,90.0,0.0,64.0
4,63.0,96.0,90.0,0.0,64.0
5,60.0,96.0,90.0,0.0,64.0
6,56.0,96.0,90.0,0.0,64.0
7,63.0,96.0,90.0,0.0,64.0
8,65.0,96.0,90.0,0.0,64.0
9,67.0,96.0,90.0,0.0,64.0
10,68.0,96.0,90.0,0.0,64.0
11,63.0,96.0,90.0,0.0,64.0
12,60.0,96.0,90.0,0.0,64.0
13,63.0,96.0,90.0,0.0,64.0
14,68.0,96.0,90.0,0.0,64.0
15,70.0,96.0,90.0,0.0,64.0
16,72.0,96.0,90.0,0.0,64.0
17,68.0,96.0,90.0,0.0,64.0
18,63.0,96.0,90.0,0.0,64.0
19,68.0,96.0,90.0,0.0,64.0
20,72.0,96.0,90.0,0.0,64.0
21,73.0,96.0,90.0,0.0,64.0
22,75.0,96.0,90.0,0.0,64.0
23,72.0,96.0,90.0,0.0,64.0
24,77.0,96.0,90.0,0.0,64.0
25,72.0,96.0,90.0,0.0,64.0
26,73.0,96.0,90.0,0.0,64.0
27,70.0,96.0,90.0,0.0,64.0
28,67.0,96.0,90.0,0.0,64.0
29,70.0,96.0,90.0,0.0,64.0
30,75.0,96.0,90.0,0.0,64.0
31,70.0,96.0,90.0,0.0,64.0
32,72.0,96.0,90.0,0.0,64.0
33,75.0,96.0,90.0,0.0,64.0
34,80.0,96.0,90.0,0.0,64.0
35,75.0,96.0,90.0,0.0,64.0
36,77.0,96.0,90.0,0.0,64.0
37,80.0,96.0,90.0,0.0,64.0
38,85.0,96.0,90.0,0.0,64.0
39,82.0,96.0,90.0,0.0,64.0
40,79.0,96.0,90.0,0.0,64.0
41,82.0,96.0,90.0,0.0,64.0
42,87.0,96.0,90.0,0.0,64.0
43,82.0,96.0,90.0,0.0,64.0
44,84.0,96.0,90.0,0.0,64.0
45,75.0,96.0,90.0,0.0,64.0
46,80.0,96.0,90.0,0.0,64.0
47,72.0,96.0,90.0,0.0,64.0
48,77.0,96.0,90.0,0.0,64.0
49,68.0,96.0,90.0,0.0,64.0
50,73.0,96.0,90.0,0.0,64.0
51,65.0,96.0,90.0,0.0,64.0
52,67.0,96.0,90.0,0.0,64.0
53,63.0,96.0,90.0,0.0,64.0
54,70.0,96.0,90.0,0.0,64.0
55,61.0,96.0,90.0,0.0,64.0
56,60.0,96.0,90.0,0.0,64.0
57,68.0,96.0,90.0,0.0,64.0
58,58.0,96.0,90.0,0.0,64.0
59,67.0,96.0,90.0,0.0,64.0
60,68.0,96.0,90.0,0.0,64.0
61,56.0,192.0,90.0,0.0,64.0
62,72.0,192.0,960.0,0.0,64.0
63,75.0,0.0,1140.0,0.0,64.0
64,44.0,768.0,15.0,0.0,64.0
65,68.0,0.0,780.0,0.0,64.0
66,60.0,0.0,1140.0,0.0,64.0
67,63.0,192.0,780.0,0.0,64.0
68,56.0,0.0,4980.0,0.0,64.0
69,78.0,192.0,780.0,0.0,64.0
70,65.0,192.0,570.0,0.0,64.0
71,73.0,192.0,570.0,0.0,64.0
72,77.0,0.0,390.0,0.0,64.0
73,61.0,192.0,390.0,0.0,64.0
74,67.0,0.0,180.0,0.0,64.0
75,63.0,0.0,780.0,0.0,64.0
76,68.0,0.0,15.0,0.0,64.0
77,75.0,0.0,1140.0,0.0,64.0
78,70.0,192.0,180.0,0.0,64.0
79,72.0,0.0,390.0,0.0,64.0
80,67.0,384.0,180.0,0.0,64.0
81,72.0,192.0,570.0,0.0,64.0
82,63.0,192.0,180.0,0.0,64.0
83,80.0,192.0,570.0,0.0,64.0
84,65.0,0.0,780.0,0.0,64.0
85,68.0,192.0,180.0,0.0,64.0
86,77.0,0.0,180.0,0.0,64.0
87,67.0,0.0,390.0,0.0,64.0
88,82.0,192.0,570.0,0.0,64.0
89,64.0,0.0,390.0,0.0,64.0
90,73.0,192.0,15.0,0.0,64.0
91,72.0,192.0,390.0,0.0,64.0
92,68.0,0.0,390.0,0.0,64.0
93,63.0,0.0,390.0,0.0,64.0
94,80.0,192.0,390.0,0.0,64.0
95,85.0,384.0,390.0,0.0,64.0
96,73.0,0.0,390.0,0.0,64.0
97,61.0,0.0,390.0,0.0,64.0
98,67.0,0.0,390.0,0.0,64.0
99,70.0,0.0,390.0,0.0,64.0
100,79.0,0.0,180.0,0.0,64.0
101,60.0,0.0,390.0,0.0,64.0
102,63.0,0.0,15.0,0.0,64.0
103,68.0,0.0,390.0,0.0,64.0
104,80.0,0.0,390.0,0.0,64.0
105,72.0,96.0,390.0,0.0,64.0
106,87.0,0.0,390.0,0.0,64.0
107,56.0,96.0,90.0,0.0,64.0
108,55.0,96.0,90.0,0.0,64.0
109,56.0,96.0,90.0,0.0,64.0
110,49.0,96.0,90.0,0.0,64.0
111,58.0,96.0,90.0,0.0,64.0
112,56.0,96.0,90.0,0.0,64.0
113,58.0,96.0,90.0,0.0,64.0
114,51.0,96.0,90.0,0.0,64.0
115,60.0,96.0,90.0,0.0,64.0
116,58.0,96.0,90.0,0.0,64.0
117,60.0,96.0,90.0,0.0,64.0
118,53.0,96.0,90.0,0.0,64.0
119,61.0,96.0,90.0,0.0,64.0
120,60.0,96.0,90.0,0.0,64.0
121,61.0,96.0,90.0,0.0,64.0
122,55.0,96.0,90.0,0.0,64.0
123,63.0,96.0,90.0,0.0,64.0
124,61.0,96.0,90.0,0.0,64.0
125,63.0,96.0,90.0,0.0,64.0
126,56.0,96.0,90.0,0.0,64.0
127,65.0,96.0,90.0,0.0,64.0
128,53.0,96.0,90.0,0.0,64.0
129,65.0,96.0,90.0,0.0,64.0
130,55.0,96.0,90.0,0.0,64.0
131,65.0,96.0,90.0,0.0,64.0
132,63.0,96.0,90.0,0.0,64.0
133,65.0,96.0,90.0,0.0,64.0
134,63.0,96.0,90.0,0.0,64.0
135,65.0,96.0,90.0,0.0,64.0
136,61.0,96.0,90.0,0.0,64.0
137,63.0,96.0,90.0,0.0,64.0
138,60.0,96.0,90.0,0.0,64.0
139,61.0,96.0,90.0,0.0,64.0
140,58.0,96.0,90.0,0.0,64.0
141,60.0,96.0,90.0,0.0,64.0
142,56.0,96.0,90.0,0.0,64.0
143,65.0,96.0,90.0,0.0,64.0
144,63.0,96.0,90.0,0.0,64.0
145,65.0,96.0,90.0,0.0,64.0
146,55.0,96.0,90.0,0.0,64.0
147,63.0,96.0,90.0,0.0,64.0
148,62.0,96.0,90.0,0.0,64.0
149,63.0,96.0,90.0,0.0,64.0
150,53.0,96.0,90.0,0.0,64.0
151,63.0,96.0,90.0,0.0,64.0
152,61.0,96.0,90.0,0.0,64.0
153,53.0,96.0,90.0,0.0,64.0
154,51.0,96.0,90.0,0.0,64.0
155,61.0,96.0,90.0,0.0,64.0
156,60.0,96.0,90.0,0.0,64.0
157,51.0,96.0,90.0,0.0,64.0
158,49.0,96.0,90.0,0.0,64.0
159,60.0,96.0,90.0,0.0,64.0
160,58.0,96.0,90.0,0.0,64.0
161,49.0,96.0,90.0,0.0,64.0
162,48.0,96.0,90.0,0.0,64.0
163,56.0,96.0,90.0,0.0,64.0
164,46.0,96.0,90.0,0.0,64.0
165,55.0,192.0,90.0,0.0,64.0
166,44.0,0.0,570.0,0.0,64.0
167,63.0,96.0,90.0,0.0,64.0
168,65.0,96.0,90.0,0.0,64.0
169,67.0,96.0,90.0,0.0,64.0
170,68.0,96.0,90.0,0.0,64.0
171,70.0,96.0,90.0,0.0,64.0
172,72.0,96.0,90.0,0.0,64.0
173,73.0,96.0,90.0,0.0,64.0
174,72.0,96.0,90.0,0.0,64.0
175,68.0,96.0,90.0,0.0,64.0
176,73.0,96.0,90.0,0.0,64.0
177,72.0,96.0,90.0,0.0,64.0
178,70.0,96.0,90.0,0.0,64.0
179,68.0,96.0,90.0,0.0,64.0
180,67.0,96.0,90.0,0.0,64.0
181,65.0,768.0,90.0,0.0,64.0
182,64.0,0.0,780.0,0.0,64.0
183,55.0,0.0,390.0,0.0,64.0
184,58.0,0.0,390.0,0.0,64.0
185,70.0,0.0,390.0,0.0,64.0
186,72.0,0.0,390.0,0.0,64.0
187,76.0,0.0,390.0,0.0,64.0
188,79.0,0.0,390.0,0.0,64.0
189,67.0,192.0,390.0,0.0,64.0
190,46.0,0.0,390.0,0.0,64.0
191,56.0,0.0,390.0,0.0,64.0
192,53.0,0.0,390.0,0.0,64.0
193,44.0,0.0,570.0,0.0,64.0
194,60.0,192.0,15.0,0.0,64.0
195,72.0,0.0,15.0,0.0,64.0
196,77.0,192.0,15.0,0.0,64.0
197,65.0,0.0,15.0,0.0,64.0
198,80.0,192.0,15.0,0.0,64.0
199,56.0,0.0,180.0,0.0,64.0
200,73.0,0.0,570.0,0.0,64.0
201,85.0,96.0,480.0,0.0,64.0
202,61.0,0.0,180.0,0.0,64.0
203,61.0,0.0,390.0,0.0,64.0
204,78.0,0.0,180.0,0.0,64.0
205,66.0,0.0,180.0,0.0,64.0
206,84.0,0.0,90.0,0.0,64.0
207,65.0,0.0,180.0,0.0,64.0
208,77.0,0.0,180.0,0.0,64.0
209,82.0,0.0,180.0,0.0,64.0
210,85.0,96.0,90.0,0.0,64.0
211,58.0,96.0,15.0,0.0,64.0
212,87.0,0.0,90.0,0.0,64.0
213,60.0,192.0,180.0,0.0,64.0
214,72.0,0.0,780.0,0.0,64.0
215,79.0,0.0,390.0,0.0,64.0
216,84.0,0.0,570.0,0.0,64.0
217,64.0,0.0,180.0,0.0,64.0
218,60.0,0.0,390.0,0.0,64.0
219,77.0,96.0,570.0,0.0,64.0
220,56.0,96.0,180.0,0.0,64.0
221,65.0,192.0,390.0,0.0,64.0
222,82.0,96.0,90.0,0.0,64.0
223,61.0,0.0,180.0,0.0,64.0
224,80.0,0.0,90.0,0.0,64.0
225,67.0,0.0,780.0,0.0,64.0
226,55.0,0.0,390.0,0.0,64.0
227,82.0,96.0,570.0,0.0,64.0
228,70.0,0.0,390.0,0.0,64.0
229,79.0,96.0,90.0,0.0,64.0
230,74.0,0.0,90.0,0.0,64.0
231,76.0,192.0,390.0,0.0,64.0
232,60.0,0.0,390.0,0.0,64.0
233,80.0,96.0,90.0,0.0,64.0
234,79.0,0.0,90.0,0.0,64.0
235,72.0,0.0,15.0,0.0,64.0
236,60.0,0.0,15.0,0.0,64.0
237,65.0,0.0,390.0,0.0,64.0
238,77.0,0.0,390.0,0.0,64.0
239,53.0,192.0,180.0,0.0,64.0
240,80.0,192.0,390.0,0.0,64.0
241,51.0,0.0,180.0,0.0,64.0
242,50.0,192.0,180.0,0.0,64.0
243,80.0,96.0,390.0,0.0,64.0
244,75.0,0.0,180.0,0.0,64.0
245,68.0,0.0,180.0,0.0,64.0
246,65.0,0.0,180.0,0.0,64.0
247,60.0,0.0,180.0,0.0,64.0
248,48.0,192.0,180.0,0.0,64.0
249,47.0,192.0,780.0,0.0,64.0
250,71.0,0.0,780.0,0.0,64.0
251,62.0,0.0,780.0,0.0,64.0
252,79.0,0.0,90.0,0.0,64.0
253,77.0,96.0,15.0,0.0,64.0
254,79.0,192.0,180.0,0.0,64.0
255,55.0,0.0,390.0,0.0,64.0
256,74.0,0.0,15.0,0.0,64.0
257,67.0,192.0,390.0,0.0,64.0
258,55.0,0.0,780.0,0.0,64.0
259,60.0,0.0,1140.0,0.0,64.0
260,75.0,0.0,390.0,0.0,64.0
261,48.0,0.0,780.0,0.0,64.0
262,72.0,96.0,90.0,0.0,64.0
263,71.0,0.0,90.0,0.0,64.0
264,72.0,192.0,180.0,0.0,64.0
265,63.0,0.0,180.0,0.0,64.0
266,75.0,96.0,390.0,0.0,64.0
267,67.0,192.0,180.0,0.0,64.0
268,66.0,0.0,780.0,0.0,64.0
269,69.0,0.0,390.0,0.0,64.0
270,54.0,192.0,390.0,0.0,64.0
271,74.0,96.0,90.0,0.0,64.0
272,72.0,0.0,90.0,0.0,64.0
273,57.0,0.0,390.0,0.0,64.0
274,74.0,192.0,180.0,0.0,64.0
275,69.0,192.0,180.0,0.0,64.0
276,62.0,0.0,570.0,0.0,64.0
277,71.0,192.0,180.0,0.0,64.0
278,67.0,0.0,180.0,0.0,64.0
279,55.0,0.0,780.0,0.0,64.0
280,67.0,0.0,960.0,0.0,64.0
281,77.0,192.0,90.0,0.0,64.0
282,60.0,0.0,390.0,0.0,64.0
283,75.0,96.0,180.0,0.0,64.0
284,72.0,96.0,90.0,0.0,64.0
285,80.0,192.0,90.0,0.0,64.0
286,79.0,0.0,390.0,0.0,64.0
287,72.0,96.0,180.0,0.0,64.0
288,63.0,0.0,390.0,0.0,64.0
289,60.0,96.0,480.0,0.0,64.0
290,72.0,96.0,90.0,0.0,64.0
291,75.0,96.0,90.0,0.0,64.0
292,66.0,384.0,390.0,0.0,64.0
293,74.0,96.0,180.0,0.0,64.0
294,57.0,0.0,90.0,0.0,64.0
295,62.0,0.0,960.0,0.0,64.0
296,69.0,96.0,90.0,0.0,64.0
297,72.0,0.0,90.0,0.0,64.0
298,71.0,0.0,780.0,0.0,64.0
299,43.0,96.0,390.0,0.0,64.0
300,67.0,0.0,780.0,0.0,64.0
301,74.0,0.0,570.0,0.0,64.0
302,55.0,96.0,90.0,0.0,64.0
303,79.0,0.0,390.0,0.0,64.0
304,56.0,96.0,90.0,0.0,64.0
305,53.0,96.0,90.0,0.0,64.0
306,55.0,480.0,90.0,0.0,64.0
307,67.0,0.0,780.0,0.0,64.0
308,60.0,0.0,1530.0,0.0,64.0
309,52.0,0.0,780.0,0.0,64.0
310,72.0,0.0,780.0,0.0,64.0
311,79.0,96.0,300.0,0.0,64.0
312,84.0,0.0,390.0,0.0,64.0
313,80.0,96.0,90.0,0.0,64.0
314,77.0,96.0,90.0,0.0,64.0
315,79.0,480.0,90.0,0.0,64.0
316,80.0,0.0,780.0,0.0,64.0
317,65.0,0.0,780.0,0.0,64.0
318,53.0,96.0,480.0,0.0,64.0
319,72.0,0.0,570.0,0.0,64.0
320,77.0,0.0,390.0,0.0,64.0
321,54.0,96.0,90.0,0.0,64.0
322,51.0,96.0,90.0,0.0,64.0
323,53.0,576.0,90.0,0.0,64.0
324,73.0,0.0,780.0,0.0,64.0
325,58.0,192.0,780.0,0.0,64.0
326,65.0,0.0,780.0,0.0,64.0
327,49.0,0.0,570.0,0.0,64.0
328,77.0,96.0,390.0,0.0,64.0
329,82.0,96.0,570.0,0.0,64.0
330,46.0,0.0,180.0,0.0,64.0
331,79.0,96.0,90.0,0.0,64.0
332,77.0,0.0,90.0,0.0,64.0
333,76.0,0.0,180.0,0.0,64.0
334,55.0,0.0,180.0,0.0,64.0
335,48.0,192.0,780.0,0.0,64.0
336,56.0,96.0,90.0,0.0,64.0
337,80.0,96.0,180.0,0.0,64.0
338,77.0,0.0,390.0,0.0,64.0
339,58.0,0.0,90.0,0.0,64.0
340,60.0,96.0,90.0,0.0,64.0
341,79.0,0.0,570.0,0.0,64.0
342,61.0,96.0,90.0,0.0,64.0
343,75.0,0.0,780.0,0.0,64.0
344,63.0,96.0,90.0,0.0,64.0
345,60.0,0.0,90.0,0.0,64.0
346,53.0,192.0,390.0,0.0,64.0
347,72.0,0.0,15.0,0.0,64.0
348,57.0,192.0,180.0,0.0,64.0
349,58.0,0.0,180.0,0.0,64.0
350,78.0,96.0,390.0,0.0,64.0
351,60.0,0.0,390.0,0.0,64.0
352,45.0,0.0,390.0,0.0,64.0
353,65.0,0.0,960.0,0.0,64.0
354,72.0,0.0,15.0,0.0,64.0
355,77.0,96.0,90.0,0.0,64.0
356,75.0,192.0,90.0,0.0,64.0
357,73.0,96.0,870.0,0.0,64.0
358,61.0,0.0,570.0,0.0,64.0
359,46.0,96.0,390.0,0.0,64.0
360,70.0,96.0,90.0,0.0,64.0
361,69.0,0.0,90.0,0.0,64.0
362,70.0,96.0,870.0,0.0,64.0
363,58.0,96.0,90.0,0.0,64.0
364,60.0,96.0,90.0,0.0,64.0
365,56.0,96.0,90.0,0.0,64.0
366,60.0,0.0,180.0,0.0,64.0
367,66.0,192.0,780.0,0.0,64.0
368,58.0,96.0,15.0,0.0,64.0
369,54.0,0.0,570.0,0.0,64.0
370,73.0,96.0,90.0,0.0,64.0
371,72.0,96.0,90.0,0.0,64.0
372,73.0,96.0,90.0,0.0,64.0
373,75.0,0.0,780.0,0.0,64.0
374,73.0,96.0,90.0,0.0,64.0
375,60.0,0.0,180.0,0.0,64.0
376,51.0,0.0,180.0,0.0,64.0
377,72.0,96.0,90.0,0.0,64.0
378,70.0,0.0,90.0,0.0,64.0
379,53.0,96.0,390.0,0.0,64.0
380,72.0,0.0,390.0,0.0,64.0
381,69.0,0.0,390.0,0.0,64.0
382,65.0,0.0,390.0,0.0,64.0
383,60.0,96.0,90.0,0.0,64.0
384,58.0,96.0,90.0,0.0,64.0
385,60.0,0.0,90.0,0.0,64.0
386,73.0,0.0,780.0,0.0,64.0
387,61.0,96.0,90.0,0.0,64.0
388,65.0,0.0,390.0,0.0,64.0
389,46.0,96.0,390.0,0.0,64.0
390,60.0,96.0,90.0,0.0,64.0
391,58.0,96.0,90.0,0.0,64.0
392,56.0,0.0,90.0,0.0,64.0
393,51.0,0.0,390.0,0.0,64.0
394,63.0,96.0,780.0,0.0,64.0
395,55.0,0.0,390.0,0.0,64.0
396,70.0,96.0,15.0,0.0,64.0
397,68.0,96.0,90.0,0.0,64.0
398,70.0,192.0,90.0,0.0,64.0
399,56.0,96.0,480.0,0.0,64.0
400,44.0,96.0,180.0,0.0,64.0
401,72.0,96.0,780.0,0.0,64.0
402,70.0,0.0,90.0,0.0,64.0
403,68.0,96.0,90.0,0.0,64.0
404,48.0,0.0,180.0,0.0,64.0
405,67.0,0.0,90.0,0.0,64.0
406,68.0,0.0,390.0,0.0,64.0
407,65.0,0.0,390.0,0.0,64.0
408,49.0,96.0,480.0,0.0,64.0
409,61.0,0.0,390.0,0.0,64.0
410,56.0,96.0,90.0,0.0,64.0
411,58.0,96.0,90.0,0.0,64.0
412,60.0,0.0,90.0,0.0,64.0
413,61.0,96.0,780.0,0.0,64.0
414,65.0,96.0,480.0,0.0,64.0
415,70.0,96.0,180.0,0.0,64.0
416,51.0,0.0,90.0,0.0,64.0
417,72.0,0.0,180.0,0.0,64.0
418,48.0,96.0,90.0,0.0,64.0
419,49.0,96.0,90.0,0.0,64.0
420,73.0,96.0,480.0,0.0,64.0
421,46.0,0.0,390.0,0.0,64.0
422,68.0,96.0,90.0,0.0,64.0
423,67.0,96.0,90.0,0.0,64.0
424,65.0,0.0,90.0,0.0,64.0
425,51.0,96.0,390.0,0.0,64.0
426,58.0,0.0,390.0,0.0,64.0
427,67.0,0.0,390.0,0.0,64.0
428,77.0,96.0,90.0,0.0,64.0
429,75.0,96.0,90.0,0.0,64.0
430,73.0,0.0,90.0,0.0,64.0
431,56.0,192.0,390.0,0.0,64.0
432,60.0,0.0,390.0,0.0,64.0
433,65.0,0.0,390.0,0.0,64.0
434,53.0,0.0,390.0,0.0,64.0
435,72.0,96.0,90.0,0.0,64.0
436,73.0,0.0,90.0,0.0,64.0
437,68.0,96.0,15.0,0.0,64.0
438,72.0,96.0,90.0,0.0,64.0
439,73.0,0.0,90.0,0.0,64.0
440,68.0,0.0,390.0,0.0,64.0
441,72.0,0.0,390.0,0.0,64.0
442,75.0,0.0,390.0,0.0,64.0
443,63.0,96.0,90.0,0.0,64.0
444,60.0,96.0,90.0,0.0,64.0
445,48.0,96.0,180.0,0.0,64.0
446,56.0,0.0,90.0,0.0,64.0
447,70.0,0.0,180.0,0.0,64.0
448,73.0,96.0,90.0,0.0,64.0
449,49.0,0.0,390.0,0.0,64.0
450,61.0,0.0,390.0,0.0,64.0
451,65.0,192.0,390.0,0.0,64.0
452,75.0,96.0,90.0,0.0,64.0
453,73.0,96.0,90.0,0.0,64.0
454,70.0,0.0,180.0,0.0,64.0
455,75.0,0.0,90.0,0.0,64.0
456,70.0,0.0,390.0,0.0,64.0
457,73.0,0.0,390.0,0.0,64.0
458,77.0,0.0,390.0,0.0,64.0
459,65.0,96.0,90.0,0.0,64.0
460,61.0,96.0,90.0,0.0,64.0
461,49.0,96.0,180.0,0.0,64.0
462,58.0,0.0,90.0,0.0,64.0
463,63.0,0.0,390.0,0.0,64.0
464,75.0,96.0,90.0,0.0,64.0
465,51.0,0.0,390.0,0.0,64.0
466,67.0,0.0,390.0,0.0,64.0
467,72.0,0.0,180.0,0.0,64.0
468,77.0,96.0,90.0,0.0,64.0
469,75.0,96.0,90.0,0.0,64.0
470,77.0,192.0,90.0,0.0,64.0
471,75.0,0.0,390.0,0.0,64.0
472,72.0,0.0,15.0,0.0,64.0
473,79.0,96.0,390.0,0.0,64.0
474,67.0,96.0,90.0,0.0,64.0
475,51.0,0.0,180.0,0.0,64.0
476,63.0,96.0,90.0,0.0,64.0
477,60.0,0.0,90.0,0.0,64.0
478,68.0,192.0,390.0,0.0,64.0
479,65.0,0.0,390.0,0.0,64.0
480,77.0,96.0,90.0,0.0,64.0
481,53.0,0.0,390.0,0.0,64.0
482,79.0,96.0,90.0,0.0,64.0
483,77.0,96.0,90.0,0.0,64.0
484,73.0,0.0,15.0,0.0,64.0
485,79.0,0.0,90.0,0.0,64.0
486,77.0,192.0,390.0,0.0,64.0
487,73.0,0.0,15.0,0.0,64.0
488,80.0,0.0,390.0,0.0,64.0
489,68.0,96.0,90.0,0.0,64.0
490,49.0,192.0,570.0,0.0,64.0
491,65.0,96.0,90.0,0.0,64.0
492,61.0,0.0,90.0,0.0,64.0
493,58.0,0.0,180.0,0.0,64.0
494,79.0,96.0,180.0,0.0,64.0
495,75.0,96.0,300.0,0.0,64.0
496,70.0,0.0,390.0,0.0,64.0
497,63.0,0.0,390.0,0.0,64.0
498,77.0,0.0,90.0,0.0,64.0
499,55.0,0.0,180.0,0.0,64.0
500,75.0,0.0,90.0,0.0,64.0
501,48.0,96.0,180.0,0.0,64.0
502,68.0,0.0,390.0,0.0,64.0
503,72.0,0.0,180.0,0.0,64.0
504,60.0,0.0,180.0,0.0,64.0
505,80.0,96.0,960.0,0.0,64.0
506,53.0,192.0,180.0,0.0,64.0
507,58.0,96.0,90.0,0.0,64.0
508,74.0,0.0,180.0,0.0,64.0
509,56.0,0.0,90.0,0.0,64.0
510,58.0,0.0,780.0,0.0,64.0
511,51.0,96.0,780.0,0.0,64.0
512,63.0,0.0,780.0,0.0,64.0
513,75.0,96.0,180.0,0.0,64.0
514,70.0,96.0,90.0,0.0,64.0
515,72.0,96.0,90.0,0.0,64.0
516,73.0,96.0,90.0,0.0,64.0
517,75.0,0.0,90.0,0.0,64.0
518,73.0,96.0,90.0,0.0,64.0
519,79.0,0.0,180.0,0.0,64.0
520,75.0,0.0,90.0,0.0,64.0
521,56.0,96.0,90.0,0.0,64.0
522,68.0,96.0,390.0,0.0,64.0
523,72.0,0.0,390.0,0.0,64.0
524,75.0,0.0,390.0,0.0,64.0
525,60.0,0.0,390.0,0.0,64.0
526,63.0,0.0,390.0,0.0,64.0
527,80.0,0.0,390.0,0.0,64.0
528,58.0,96.0,90.0,0.0,64.0
529,56.0,96.0,90.0,0.0,64.0
530,58.0,0.0,90.0,0.0,64.0
531,55.0,96.0,90.0,0.0,64.0
532,56.0,96.0,90.0,0.0,64.0
533,55.0,96.0,90.0,0.0,64.0
534,56.0,192.0,90.0,0.0,64.0
535,53.0,96.0,480.0,0.0,64.0
536,68.0,96.0,90.0,0.0,64.0
537,70.0,96.0,90.0,0.0,64.0
538,72.0,96.0,90.0,0.0,64.0
539,68.0,0.0,390.0,0.0,64.0
540,73.0,0.0,390.0,0.0,64.0
541,65.0,0.0,390.0,0.0,64.0
542,56.0,0.0,390.0,0.0,64.0
543,61.0,0.0,390.0,0.0,64.0
544,54.0,96.0,90.0,0.0,64.0
545,49.0,96.0,90.0,0.0,64.0
546,53.0,192.0,90.0,0.0,64.0
547,51.0,96.0,480.0,0.0,64.0
548,67.0,96.0,90.0,0.0,64.0
549,68.0,96.0,90.0,0.0,64.0
550,70.0,96.0,90.0,0.0,64.0
551,67.0,0.0,390.0,0.0,64.0
552,63.0,192.0,390.0,0.0,64.0
553,55.0,0.0,390.0,0.0,64.0
554,60.0,0.0,390.0,0.0,64.0
555,72.0,0.0,390.0,0.0,64.0
556,53.0,96.0,90.0,0.0,64.0
557,48.0,96.0,90.0,0.0,64.0
558,51.0,0.0,90.0,0.0,64.0
559,49.0,96.0,480.0,0.0,64.0
560,77.0,96.0,90.0,0.0,64.0
561,79.0,96.0,90.0,0.0,64.0
562,80.0,96.0,90.0,0.0,64.0
563,73.0,0.0,390.0,0.0,64.0
564,77.0,192.0,390.0,0.0,64.0
565,82.0,0.0,390.0,0.0,64.0
566,70.0,0.0,390.0,0.0,64.0
567,61.0,0.0,390.0,0.0,64.0
568,65.0,0.0,390.0,0.0,64.0
569,51.0,96.0,90.0,0.0,64.0
570,46.0,96.0,90.0,0.0,64.0
571,49.0,0.0,90.0,0.0,64.0
572,48.0,96.0,480.0,0.0,64.0
573,75.0,96.0,90.0,0.0,64.0
574,77.0,96.0,90.0,0.0,64.0
575,79.0,96.0,90.0,0.0,64.0
576,80.0,0.0,390.0,0.0,64.0
577,75.0,0.0,390.0,0.0,64.0
578,72.0,0.0,390.0,0.0,64.0
579,68.0,192.0,390.0,0.0,64.0
580,63.0,96.0,90.0,0.0,64.0
581,56.0,96.0,90.0,0.0,64.0
582,60.0,0.0,90.0,0.0,64.0
583,53.0,96.0,480.0,0.0,64.0
584,75.0,96.0,90.0,0.0,64.0
585,77.0,96.0,90.0,0.0,64.0
586,79.0,96.0,90.0,0.0,64.0
587,80.0,0.0,390.0,0.0,64.0
588,72.0,192.0,390.0,0.0,64.0
589,65.0,0.0,390.0,0.0,64.0
590,77.0,0.0,390.0,0.0,64.0
591,68.0,0.0,390.0,0.0,64.0
592,60.0,96.0,90.0,0.0,64.0
593,56.0,96.0,90.0,0.0,64.0
594,60.0,0.0,90.0,0.0,64.0
595,51.0,96.0,480.0,0.0,64.0
596,75.0,96.0,90.0,0.0,64.0
597,77.0,96.0,90.0,0.0,64.0
598,79.0,96.0,90.0,0.0,64.0
599,68.0,0.0,390.0,0.0,64.0
600,63.0,0.0,390.0,0.0,64.0
601,72.0,0.0,390.0,0.0,64.0
602,75.0,0.0,390.0,0.0,64.0
603,80.0,0.0,390.0,0.0,64.0
604,60.0,96.0,90.0,0.0,64.0
605,56.0,96.0,90.0,0.0,64.0
606,60.0,0.0,90.0,0.0,64.0
607,49.0,96.0,480.0,0.0,64.0
608,75.0,96.0,90.0,0.0,64.0
609,77.0,96.0,90.0,0.0,64.0
610,79.0,96.0,90.0,0.0,64.0
611,80.0,96.0,870.0,0.0,64.0
612,77.0,0.0,390.0,0.0,64.0
613,73.0,96.0,480.0,0.0,64.0
614,65.0,0.0,390.0,0.0,64.0
615,70.0,0.0,390.0,0.0,64.0
616,60.0,96.0,90.0,0.0,64.0
617,61.0,96.0,90.0,0.0,64.0
618,58.0,0.0,90.0,0.0,64.0
619,75.0,96.0,780.0,0.0,64.0
620,63.0,0.0,570.0,0.0,64.0
621,72.0,96.0,90.0,0.0,64.0
622,70.0,96.0,90.0,0.0,64.0
623,68.0,96.0,90.0,0.0,64.0
624,70.0,0.0,390.0,0.0,64.0
625,73.0,0.0,390.0,0.0,64.0
626,82.0,96.0,90.0,0.0,64.0
627,80.0,96.0,90.0,0.0,64.0
628,51.0,0.0,180.0,0.0,64.0
629,79.0,0.0,90.0,0.0,64.0
630,56.0,0.0,180.0,0.0,64.0
631,68.0,96.0,180.0,0.0,64.0
632,63.0,0.0,180.0,0.0,64.0
633,80.0,96.0,90.0,0.0,64.0
634,75.0,0.0,90.0,0.0,64.0
635,72.0,0.0,15.0,0.0,64.0
636,68.0,96.0,15.0,0.0,64.0
637,72.0,0.0,570.0,0.0,64.0
638,78.0,0.0,390.0,0.0,64.0
639,75.0,0.0,570.0,0.0,64.0
640,63.0,96.0,90.0,0.0,64.0
641,60.0,96.0,90.0,0.0,64.0
642,56.0,96.0,90.0,0.0,64.0
643,61.0,96.0,90.0,0.0,64.0
644,44.0,0.0,2310.0,0.0,64.0
645,56.0,96.0,90.0,0.0,64.0
646,73.0,96.0,480.0,0.0,64.0
647,70.0,0.0,570.0,0.0,64.0
648,53.0,96.0,90.0,0.0,64.0
649,49.0,0.0,90.0,0.0,64.0
650,67.0,0.0,390.0,0.0,64.0
651,61.0,1536.0,390.0,0.0,64.0
652,77.0,96.0,15.0,0.0,64.0
653,75.0,0.0,90.0,0.0,64.0
654,73.0,0.0,90.0,0.0,64.0
655,68.0,0.0,1530.0,0.0,64.0
656,60.0,0.0,1530.0,0.0,64.0
657,72.0,0.0,1530.0,0.0,64.0
658,75.0,0.0,1530.0,0.0,64.0
659,80.0,1728.0,1530.0,0.0,64.0
660,56.0,0.0,1530.0,0.0,64.0
661,63.0,0.0,1530.0,0.0,64.0
662,75.0,192.0,15.0,0.0,64.0
663,75.0,192.0,15.0,0.0,64.0
664,75.0,192.0,180.0,0.0,64.0
665,72.0,192.0,180.0,0.0,64.0
666,72.0,192.0,180.0,0.0,64.0
667,68.0,192.0,15.0,0.0,64.0
668,77.0,192.0,180.0,0.0,64.0
669,77.0,192.0,180.0,0.0,64.0
670,75.0,192.0,180.0,0.0,64.0
671,75.0,96.0,180.0,0.0,64.0
672,80.0,96.0,90.0,0.0,64.0
673,79.0,96.0,90.0,0.0,64.0
674,80.0,96.0,90.0,0.0,64.0
675,82.0,96.0,90.0,0.0,64.0
676,79.0,96.0,90.0,0.0,64.0
677,77.0,96.0,90.0,0.0,64.0
678,79.0,96.0,90.0,0.0,64.0
679,80.0,192.0,90.0,0.0,64.0
680,77.0,192.0,15.0,0.0,64.0
681,77.0,96.0,90.0,0.0,64.0
682,75.0,96.0,90.0,0.0,64.0
683,77.0,96.0,90.0,0.0,64.0
684,79.0,192.0,90.0,0.0,64.0
685,75.0,192.0,180.0,0.0,64.0
686,75.0,96.0,180.0,0.0,64.0
687,75.0,96.0,90.0,0.0,64.0
688,73.0,96.0,90.0,0.0,64.0
689,75.0,96.0,90.0,0.0,64.0
690,77.0,192.0,90.0,0.0,64.0
691,73.0,192.0,180.0,0.0,64.0
692,73.0,96.0,180.0,0.0,64.0
693,73.0,96.0,90.0,0.0,64.0
694,72.0,96.0,90.0,0.0,64.0
695,73.0,96.0,90.0,0.0,64.0
696,75.0,192.0,90.0,0.0,64.0
697,72.0,192.0,180.0,0.0,64.0
698,72.0,96.0,180.0,0.0,64.0
699,72.0,96.0,90.0,0.0,64.0
700,70.0,96.0,90.0,0.0,64.0
701,72.0,96.0,90.0,0.0,64.0
702,73.0,192.0,90.0,0.0,64.0
703,70.0,192.0,180.0,0.0,64.0
704,70.0,96.0,15.0,0.0,64.0
705,68.0,96.0,90.0,0.0,64.0
706,70.0,96.0,90.0,0.0,64.0
707,72.0,192.0,90.0,0.0,64.0
708,68.0,192.0,180.0,0.0,64.0
709,68.0,192.0,180.0,0.0,64.0
710,68.0,192.0,15.0,0.0,64.0
711,67.0,192.0,180.0,0.0,64.0
712,67.0,192.0,180.0,0.0,64.0
713,70.0,0.0,180.0,0.0,64.0
714,63.0,192.0,180.0,0.0,64.0
715,75.0,0.0,390.0,0.0,64.0
716,63.0,192.0,180.0,0.0,64.0
717,72.0,192.0,180.0,0.0,64.0
718,75.0,192.0,180.0,0.0,64.0
719,72.0,0.0,180.0,0.0,64.0
720,80.0,0.0,390.0,0.0,64.0
721,68.0,192.0,15.0,0.0,64.0
722,75.0,96.0,90.0,0.0,64.0
723,74.0,96.0,90.0,0.0,64.0
724,79.0,0.0,90.0,0.0,64.0
725,75.0,96.0,90.0,0.0,64.0
726,77.0,0.0,90.0,0.0,64.0
727,80.0,96.0,90.0,0.0,64.0
728,74.0,96.0,90.0,0.0,64.0
729,82.0,0.0,180.0,0.0,64.0
730,72.0,96.0,90.0,0.0,64.0
731,77.0,0.0,90.0,0.0,64.0
732,74.0,96.0,90.0,0.0,64.0
733,75.0,192.0,90.0,0.0,64.0
734,79.0,0.0,90.0,0.0,64.0
735,72.0,192.0,180.0,0.0,64.0
736,80.0,0.0,180.0,0.0,64.0
737,75.0,0.0,180.0,0.0,64.0
738,72.0,96.0,15.0,0.0,64.0
739,80.0,0.0,570.0,0.0,64.0
740,70.0,96.0,90.0,0.0,64.0
741,72.0,96.0,90.0,0.0,64.0
742,74.0,192.0,90.0,0.0,64.0
743,70.0,192.0,15.0,0.0,64.0
744,74.0,0.0,180.0,0.0,64.0
745,70.0,96.0,90.0,0.0,64.0
746,79.0,0.0,570.0,0.0,64.0
747,68.0,96.0,90.0,0.0,64.0
748,70.0,96.0,90.0,0.0,64.0
749,72.0,192.0,90.0,0.0,64.0
750,68.0,192.0,180.0,0.0,64.0
751,72.0,0.0,180.0,0.0,64.0
752,68.0,96.0,180.0,0.0,64.0
753,68.0,96.0,90.0,0.0,64.0
754,77.0,192.0,570.0,0.0,64.0
755,67.0,96.0,90.0,0.0,64.0
756,68.0,96.0,90.0,0.0,64.0
757,70.0,192.0,90.0,0.0,64.0
758,67.0,0.0,180.0,0.0,64.0
759,67.0,96.0,180.0,0.0,64.0
760,70.0,0.0,180.0,0.0,64.0
761,67.0,96.0,90.0,0.0,64.0
762,75.0,0.0,570.0,0.0,64.0
763,65.0,96.0,90.0,0.0,64.0
764,67.0,96.0,90.0,0.0,64.0
765,68.0,192.0,90.0,0.0,64.0
766,65.0,96.0,15.0,0.0,64.0
767,77.0,96.0,90.0,0.0,64.0
768,75.0,0.0,15.0,0.0,64.0
769,65.0,48.0,15.0,0.0,64.0
770,74.0,0.0,40.0,0.0,64.0
771,75.0,48.0,40.0,0.0,64.0
772,63.0,48.0,90.0,0.0,64.0
773,74.0,0.0,40.0,0.0,64.0
774,65.0,0.0,90.0,0.0,64.0
775,75.0,48.0,40.0,0.0,64.0
776,74.0,48.0,40.0,0.0,64.0
777,67.0,0.0,90.0,0.0,64.0
778,75.0,48.0,40.0,0.0,64.0
779,74.0,192.0,40.0,0.0,64.0
780,75.0,96.0,300.0,0.0,64.0
781,63.0,96.0,180.0,0.0,64.0
782,63.0,0.0,180.0,0.0,64.0
783,77.0,96.0,90.0,0.0,64.0
784,63.0,96.0,180.0,0.0,64.0
785,79.0,96.0,90.0,0.0,64.0
786,80.0,0.0,90.0,0.0,64.0
787,77.0,96.0,90.0,0.0,64.0
788,63.0,192.0,180.0,0.0,64.0
789,79.0,0.0,90.0,0.0,64.0
790,60.0,96.0,180.0,0.0,64.0
791,80.0,96.0,300.0,0.0,64.0
792,60.0,0.0,180.0,0.0,64.0
793,63.0,96.0,180.0,0.0,64.0
794,82.0,0.0,90.0,0.0,64.0
795,84.0,96.0,90.0,0.0,64.0
796,68.0,0.0,390.0,0.0,64.0
797,85.0,0.0,90.0,0.0,64.0
798,82.0,96.0,90.0,0.0,64.0
799,56.0,96.0,15.0,0.0,64.0
800,84.0,96.0,90.0,0.0,64.0
801,65.0,96.0,180.0,0.0,64.0
802,80.0,96.0,90.0,0.0,64.0
803,79.0,0.0,90.0,0.0,64.0
804,80.0,96.0,90.0,0.0,64.0
805,68.0,192.0,180.0,0.0,64.0
806,65.0,0.0,180.0,0.0,64.0
807,82.0,0.0,90.0,0.0,64.0
808,75.0,96.0,390.0,0.0,64.0
809,79.0,0.0,180.0,0.0,64.0
810,63.0,96.0,180.0,0.0,64.0
811,80.0,96.0,90.0,0.0,64.0
812,63.0,0.0,180.0,0.0,64.0
813,82.0,0.0,90.0,0.0,64.0
814,68.0,96.0,90.0,0.0,64.0
815,84.0,96.0,390.0,0.0,64.0
816,67.0,96.0,90.0,0.0,64.0
817,68.0,96.0,90.0,0.0,64.0
818,72.0,0.0,90.0,0.0,64.0
819,70.0,0.0,90.0,0.0,64.0
820,73.0,0.0,90.0,0.0,64.0
821,67.0,96.0,90.0,0.0,64.0
822,75.0,0.0,180.0,0.0,64.0
823,82.0,192.0,390.0,0.0,64.0
824,65.0,96.0,90.0,0.0,64.0
825,70.0,96.0,90.0,0.0,64.0
826,67.0,0.0,90.0,0.0,64.0
827,68.0,0.0,90.0,0.0,64.0
828,72.0,0.0,90.0,0.0,64.0
829,80.0,0.0,570.0,0.0,64.0
830,73.0,192.0,180.0,0.0,64.0
831,65.0,0.0,15.0,0.0,64.0
832,68.0,96.0,180.0,0.0,64.0
833,65.0,0.0,15.0,0.0,64.0
834,73.0,0.0,570.0,0.0,64.0
835,63.0,96.0,90.0,0.0,64.0
836,80.0,0.0,180.0,0.0,64.0
837,65.0,96.0,90.0,0.0,64.0
838,67.0,192.0,90.0,0.0,64.0
839,63.0,192.0,180.0,0.0,64.0
840,79.0,96.0,480.0,0.0,64.0
841,63.0,0.0,180.0,0.0,64.0
842,67.0,96.0,180.0,0.0,64.0
843,63.0,0.0,90.0,0.0,64.0
844,72.0,0.0,570.0,0.0,64.0
845,61.0,96.0,90.0,0.0,64.0
846,77.0,0.0,90.0,0.0,64.0
847,79.0,0.0,90.0,0.0,64.0
848,63.0,96.0,90.0,0.0,64.0
849,65.0,0.0,90.0,0.0,64.0
850,80.0,192.0,90.0,0.0,64.0
851,77.0,0.0,570.0,0.0,64.0
852,61.0,192.0,180.0,0.0,64.0
853,65.0,96.0,180.0,0.0,64.0
854,61.0,0.0,15.0,0.0,64.0
855,70.0,192.0,570.0,0.0,64.0
856,60.0,96.0,90.0,0.0,64.0
857,77.0,192.0,180.0,0.0,64.0
858,61.0,96.0,90.0,0.0,64.0
859,63.0,0.0,90.0,0.0,64.0
860,60.0,0.0,180.0,0.0,64.0
861,75.0,0.0,480.0,0.0,64.0
862,63.0,0.0,180.0,0.0,64.0
863,60.0,96.0,15.0,0.0,64.0
864,68.0,0.0,570.0,0.0,64.0
865,73.0,0.0,90.0,0.0,64.0
866,58.0,96.0,90.0,0.0,64.0
867,75.0,0.0,90.0,0.0,64.0
868,60.0,96.0,90.0,0.0,64.0
869,61.0,0.0,90.0,0.0,64.0
870,77.0,192.0,90.0,0.0,64.0
871,73.0,0.0,570.0,0.0,64.0
872,58.0,96.0,15.0,0.0,64.0
873,70.0,96.0,90.0,0.0,64.0
874,68.0,0.0,90.0,0.0,64.0
875,67.0,192.0,390.0,0.0,64.0
876,58.0,96.0,90.0,0.0,64.0
877,56.0,96.0,90.0,0.0,64.0
878,58.0,96.0,90.0,0.0,64.0
879,73.0,0.0,180.0,0.0,64.0
880,60.0,0.0,90.0,0.0,64.0
881,68.0,0.0,300.0,0.0,64.0
882,72.0,96.0,300.0,0.0,64.0
883,56.0,96.0,15.0,0.0,64.0
884,70.0,0.0,90.0,0.0,64.0
885,73.0,0.0,90.0,0.0,64.0
886,72.0,96.0,90.0,0.0,64.0
887,75.0,0.0,90.0,0.0,64.0
888,70.0,0.0,90.0,0.0,64.0
889,73.0,0.0,90.0,0.0,64.0
890,75.0,0.0,90.0,0.0,64.0
891,56.0,96.0,15.0,0.0,64.0
892,72.0,96.0,90.0,0.0,64.0
893,77.0,0.0,90.0,0.0,64.0
894,73.0,0.0,90.0,0.0,64.0
895,79.0,0.0,300.0,0.0,64.0
896,75.0,96.0,300.0,0.0,64.0
897,58.0,96.0,180.0,0.0,64.0
898,55.0,96.0,15.0,0.0,64.0
899,77.0,0.0,90.0,0.0,64.0
900,80.0,0.0,90.0,0.0,64.0
901,63.0,0.0,390.0,0.0,64.0
902,79.0,96.0,90.0,0.0,64.0
903,82.0,96.0,570.0,0.0,64.0
904,80.0,0.0,90.0,0.0,64.0
905,51.0,96.0,15.0,0.0,64.0
906,77.0,96.0,90.0,0.0,64.0
907,79.0,96.0,90.0,0.0,64.0
908,60.0,0.0,180.0,0.0,64.0
909,75.0,96.0,90.0,0.0,64.0
910,73.0,0.0,90.0,0.0,64.0
911,80.0,0.0,390.0,0.0,64.0
912,63.0,0.0,180.0,0.0,64.0
913,75.0,96.0,90.0,0.0,64.0
914,60.0,0.0,180.0,0.0,64.0
915,77.0,192.0,90.0,0.0,64.0
916,72.0,0.0,180.0,0.0,64.0
917,68.0,0.0,390.0,0.0,64.0
918,84.0,96.0,570.0,0.0,64.0
919,75.0,96.0,90.0,0.0,64.0
920,56.0,96.0,15.0,0.0,64.0
921,77.0,0.0,90.0,0.0,64.0
922,63.0,96.0,90.0,0.0,64.0
923,79.0,0.0,390.0,0.0,64.0
924,65.0,96.0,90.0,0.0,64.0
925,67.0,0.0,90.0,0.0,64.0
926,63.0,96.0,90.0,0.0,64.0
927,65.0,0.0,90.0,0.0,64.0
928,68.0,0.0,90.0,0.0,64.0
929,82.0,192.0,390.0,0.0,64.0
930,61.0,96.0,90.0,0.0,64.0
931,70.0,96.0,180.0,0.0,64.0
932,77.0,0.0,390.0,0.0,64.0
933,63.0,0.0,90.0,0.0,64.0
934,61.0,0.0,90.0,0.0,64.0
935,65.0,96.0,90.0,0.0,64.0
936,67.0,0.0,90.0,0.0,64.0
937,63.0,0.0,90.0,0.0,64.0
938,68.0,192.0,180.0,0.0,64.0
939,75.0,0.0,570.0,0.0,64.0
940,63.0,0.0,180.0,0.0,64.0
941,60.0,0.0,15.0,0.0,64.0
942,68.0,192.0,570.0,0.0,64.0
943,60.0,96.0,15.0,0.0,64.0
944,80.0,96.0,15.0,0.0,64.0
945,61.0,96.0,90.0,0.0,64.0
946,75.0,0.0,180.0,0.0,64.0
947,82.0,0.0,90.0,0.0,64.0
948,60.0,96.0,90.0,0.0,64.0
949,84.0,192.0,90.0,0.0,64.0
950,61.0,0.0,90.0,0.0,64.0
951,58.0,0.0,180.0,0.0,64.0
952,85.0,0.0,390.0,0.0,64.0
953,73.0,0.0,480.0,0.0,64.0
954,61.0,0.0,180.0,0.0,64.0
955,67.0,0.0,570.0,0.0,64.0
956,58.0,96.0,15.0,0.0,64.0
957,75.0,96.0,90.0,0.0,64.0
958,60.0,0.0,90.0,0.0,64.0
959,73.0,96.0,90.0,0.0,64.0
960,79.0,0.0,180.0,0.0,64.0
961,58.0,0.0,90.0,0.0,64.0
962,60.0,192.0,90.0,0.0,64.0
963,75.0,0.0,90.0,0.0,64.0
964,84.0,0.0,390.0,0.0,64.0
965,72.0,0.0,570.0,0.0,64.0
966,60.0,0.0,180.0,0.0,64.0
967,56.0,192.0,15.0,0.0,64.0
968,65.0,192.0,570.0,0.0,64.0
969,56.0,96.0,15.0,0.0,64.0
970,77.0,0.0,90.0,0.0,64.0
971,58.0,96.0,90.0,0.0,64.0
972,72.0,0.0,180.0,0.0,64.0
973,79.0,0.0,90.0,0.0,64.0
974,56.0,96.0,90.0,0.0,64.0
975,58.0,192.0,90.0,0.0,64.0
976,80.0,0.0,90.0,0.0,64.0
977,70.0,0.0,480.0,0.0,64.0
978,82.0,0.0,390.0,0.0,64.0
979,55.0,0.0,180.0,0.0,64.0
980,55.0,96.0,180.0,0.0,64.0
981,58.0,0.0,180.0,0.0,64.0
982,63.0,96.0,570.0,0.0,64.0
983,55.0,96.0,90.0,0.0,64.0
984,72.0,0.0,90.0,0.0,64.0
985,56.0,96.0,90.0,0.0,64.0
986,75.0,192.0,180.0,0.0,64.0
987,70.0,0.0,90.0,0.0,64.0
988,55.0,96.0,90.0,0.0,64.0
989,72.0,0.0,90.0,0.0,64.0
990,56.0,0.0,90.0,0.0,64.0
991,68.0,0.0,390.0,0.0,64.0
992,80.0,0.0,480.0,0.0,64.0
993,53.0,0.0,15.0,0.0,64.0
994,65.0,96.0,90.0,0.0,64.0
995,63.0,0.0,90.0,0.0,64.0
996,53.0,96.0,15.0,0.0,64.0
997,62.0,96.0,390.0,0.0,64.0
998,79.0,0.0,90.0,0.0,64.0
999,55.0,96.0,90.0,0.0,64.0
1000,53.0,96.0,90.0,0.0,64.0
1001,77.0,0.0,180.0,0.0,64.0
1002,80.0,0.0,90.0,0.0,64.0
1003,82.0,0.0,90.0,0.0,64.0
1004,55.0,0.0,90.0,0.0,64.0
1005,79.0,0.0,390.0,0.0,64.0
1006,70.0,96.0,90.0,0.0,64.0
1007,63.0,0.0,390.0,0.0,64.0
1008,51.0,96.0,390.0,0.0,64.0
1009,68.0,96.0,90.0,0.0,64.0
1010,70.0,96.0,90.0,0.0,64.0
1011,72.0,0.0,90.0,0.0,64.0
1012,65.0,96.0,90.0,0.0,64.0
1013,68.0,96.0,180.0,0.0,64.0
1014,66.0,0.0,90.0,0.0,64.0
1015,65.0,96.0,90.0,0.0,64.0
1016,68.0,96.0,180.0,0.0,64.0
1017,63.0,0.0,90.0,0.0,64.0
1018,73.0,96.0,90.0,0.0,64.0
1019,72.0,96.0,90.0,0.0,64.0
1020,73.0,96.0,90.0,0.0,64.0
1021,61.0,0.0,15.0,0.0,64.0
1022,75.0,0.0,90.0,0.0,64.0
1023,72.0,0.0,180.0,0.0,64.0
1024,68.0,96.0,90.0,0.0,64.0
1025,70.0,96.0,90.0,0.0,64.0
1026,72.0,96.0,180.0,0.0,64.0
1027,68.0,96.0,90.0,0.0,64.0
1028,67.0,0.0,90.0,0.0,64.0
1029,65.0,96.0,180.0,0.0,64.0
1030,80.0,96.0,90.0,0.0,64.0
1031,79.0,0.0,90.0,0.0,64.0
1032,68.0,0.0,180.0,0.0,64.0
1033,77.0,96.0,90.0,0.0,64.0
1034,75.0,96.0,90.0,0.0,64.0
1035,74.0,96.0,90.0,0.0,64.0
1036,72.0,0.0,90.0,0.0,64.0
1037,70.0,96.0,15.0,0.0,64.0
1038,62.0,0.0,180.0,0.0,64.0
1039,68.0,192.0,90.0,0.0,64.0
1040,63.0,96.0,300.0,0.0,64.0
1041,75.0,96.0,15.0,0.0,64.0
1042,65.0,96.0,90.0,0.0,64.0
1043,67.0,0.0,15.0,0.0,64.0
1044,75.0,96.0,180.0,0.0,64.0
1045,68.0,0.0,90.0,0.0,64.0
1046,67.0,96.0,90.0,0.0,64.0
1047,75.0,0.0,180.0,0.0,64.0
1048,65.0,96.0,90.0,0.0,64.0
1049,63.0,96.0,90.0,0.0,64.0
1050,65.0,0.0,90.0,0.0,64.0
1051,63.0,96.0,90.0,0.0,64.0
1052,51.0,96.0,180.0,0.0,64.0
1053,72.0,96.0,15.0,0.0,64.0
1054,61.0,0.0,90.0,0.0,64.0
1055,56.0,0.0,390.0,0.0,64.0
1056,60.0,96.0,90.0,0.0,64.0
1057,63.0,0.0,90.0,0.0,64.0
1058,68.0,96.0,15.0,0.0,64.0
1059,65.0,96.0,90.0,0.0,64.0
1060,67.0,0.0,90.0,0.0,64.0
1061,68.0,96.0,15.0,0.0,64.0
1062,67.0,0.0,90.0,0.0,64.0
1063,77.0,96.0,15.0,0.0,64.0
1064,68.0,96.0,90.0,0.0,64.0
1065,56.0,0.0,180.0,0.0,64.0
1066,70.0,0.0,90.0,0.0,64.0
1067,67.0,96.0,90.0,0.0,64.0
1068,63.0,0.0,390.0,0.0,64.0
1069,75.0,0.0,180.0,0.0,64.0
1070,70.0,96.0,90.0,0.0,64.0
1071,72.0,96.0,90.0,0.0,64.0
1072,75.0,0.0,180.0,0.0,64.0
1073,73.0,96.0,90.0,0.0,64.0
1074,80.0,96.0,90.0,0.0,64.0
1075,72.0,0.0,90.0,0.0,64.0
1076,79.0,96.0,90.0,0.0,64.0
1077,75.0,0.0,90.0,0.0,64.0
1078,73.0,0.0,90.0,0.0,64.0
1079,60.0,0.0,90.0,0.0,64.0
1080,80.0,96.0,90.0,0.0,64.0
1081,72.0,96.0,90.0,0.0,64.0
1082,82.0,0.0,90.0,0.0,64.0
1083,61.0,0.0,90.0,0.0,64.0
1084,79.0,0.0,90.0,0.0,64.0
1085,63.0,0.0,180.0,0.0,64.0
1086,70.0,96.0,90.0,0.0,64.0
1087,72.0,96.0,90.0,0.0,64.0
1088,77.0,0.0,90.0,0.0,64.0
1089,58.0,0.0,90.0,0.0,64.0
1090,79.0,0.0,90.0,0.0,64.0
1091,73.0,96.0,90.0,0.0,64.0
1092,60.0,0.0,90.0,0.0,64.0
1093,80.0,192.0,90.0,0.0,64.0
1094,75.0,0.0,90.0,0.0,64.0
1095,68.0,0.0,480.0,0.0,64.0
1096,77.0,0.0,180.0,0.0,64.0
1097,61.0,192.0,180.0,0.0,64.0
1098,77.0,0.0,180.0,0.0,64.0
1099,56.0,96.0,180.0,0.0,64.0
1100,77.0,96.0,90.0,0.0,64.0
1101,61.0,192.0,570.0,0.0,64.0
1102,75.0,96.0,90.0,0.0,64.0
1103,67.0,0.0,90.0,0.0,64.0
1104,68.0,0.0,90.0,0.0,64.0
1105,77.0,96.0,90.0,0.0,64.0
1106,70.0,192.0,90.0,0.0,64.0
1107,79.0,0.0,90.0,0.0,64.0
1108,67.0,0.0,480.0,0.0,64.0
1109,75.0,0.0,180.0,0.0,64.0
1110,55.0,0.0,180.0,0.0,64.0
1111,75.0,96.0,180.0,0.0,64.0
1112,60.0,192.0,570.0,0.0,64.0
1113,75.0,96.0,90.0,0.0,64.0
1114,65.0,0.0,90.0,0.0,64.0
1115,73.0,96.0,90.0,0.0,64.0
1116,67.0,96.0,90.0,0.0,64.0
1117,75.0,0.0,90.0,0.0,64.0
1118,77.0,192.0,90.0,0.0,64.0
1119,68.0,0.0,90.0,0.0,64.0
1120,65.0,96.0,480.0,0.0,64.0
1121,73.0,0.0,15.0,0.0,64.0
1122,53.0,0.0,180.0,0.0,64.0
1123,73.0,96.0,15.0,0.0,64.0
1124,58.0,192.0,570.0,0.0,64.0
1125,63.0,96.0,90.0,0.0,64.0
1126,72.0,0.0,90.0,0.0,64.0
1127,73.0,0.0,90.0,0.0,64.0
1128,65.0,96.0,90.0,0.0,64.0
1129,75.0,192.0,90.0,0.0,64.0
1130,67.0,0.0,90.0,0.0,64.0
1131,72.0,0.0,180.0,0.0,64.0
1132,63.0,0.0,480.0,0.0,64.0
1133,51.0,0.0,180.0,0.0,64.0
1134,56.0,96.0,480.0,0.0,64.0
1135,72.0,96.0,15.0,0.0,64.0
1136,61.0,0.0,90.0,0.0,64.0
1137,70.0,96.0,90.0,0.0,64.0
1138,63.0,96.0,90.0,0.0,64.0
1139,72.0,0.0,90.0,0.0,64.0
1140,65.0,0.0,90.0,0.0,64.0
1141,73.0,96.0,90.0,0.0,64.0
1142,61.0,96.0,480.0,0.0,64.0
1143,58.0,0.0,90.0,0.0,64.0
1144,70.0,96.0,15.0,0.0,64.0
1145,56.0,96.0,90.0,0.0,64.0
1146,58.0,96.0,90.0,0.0,64.0
1147,55.0,0.0,390.0,0.0,64.0
1148,70.0,0.0,90.0,0.0,64.0
1149,68.0,96.0,90.0,0.0,64.0
1150,60.0,0.0,90.0,0.0,64.0
1151,61.0,96.0,90.0,0.0,64.0
1152,70.0,0.0,90.0,0.0,64.0
1153,63.0,0.0,90.0,0.0,64.0
1154,72.0,96.0,90.0,0.0,64.0
1155,60.0,96.0,300.0,0.0,64.0
1156,68.0,96.0,90.0,0.0,64.0
1157,56.0,96.0,390.0,0.0,64.0
1158,75.0,96.0,90.0,0.0,64.0
1159,80.0,96.0,390.0,0.0,64.0
1160,61.0,0.0,90.0,0.0,64.0
1161,51.0,0.0,390.0,0.0,64.0
1162,63.0,96.0,90.0,0.0,64.0
1163,70.0,0.0,90.0,0.0,64.0
1164,79.0,96.0,90.0,0.0,64.0
1165,75.0,96.0,480.0,0.0,64.0
1166,80.0,96.0,90.0,0.0,64.0
1167,53.0,96.0,180.0,0.0,64.0
1168,77.0,96.0,90.0,0.0,64.0
1169,68.0,0.0,90.0,0.0,64.0
1170,77.0,96.0,180.0,0.0,64.0
1171,58.0,0.0,180.0,0.0,64.0
1172,73.0,96.0,390.0,0.0,64.0
1173,49.0,0.0,180.0,0.0,64.0
1174,75.0,96.0,90.0,0.0,64.0
1175,67.0,96.0,90.0,0.0,64.0
1176,56.0,0.0,180.0,0.0,64.0
1177,75.0,96.0,180.0,0.0,64.0
1178,72.0,96.0,390.0,0.0,64.0
1179,49.0,96.0,180.0,0.0,64.0
1180,73.0,96.0,90.0,0.0,64.0
1181,65.0,0.0,90.0,0.0,64.0
1182,51.0,0.0,180.0,0.0,64.0
1183,73.0,96.0,180.0,0.0,64.0
1184,70.0,96.0,390.0,0.0,64.0
1185,53.0,0.0,180.0,0.0,64.0
1186,72.0,96.0,90.0,0.0,64.0
1187,65.0,96.0,90.0,0.0,64.0
1188,48.0,0.0,180.0,0.0,64.0
1189,72.0,96.0,180.0,0.0,64.0
1190,68.0,96.0,390.0,0.0,64.0
1191,49.0,0.0,180.0,0.0,64.0
1192,70.0,96.0,90.0,0.0,64.0
1193,65.0,96.0,90.0,0.0,64.0
1194,46.0,0.0,180.0,0.0,64.0
1195,70.0,96.0,300.0,0.0,64.0
1196,65.0,96.0,90.0,0.0,64.0
1197,51.0,0.0,390.0,0.0,64.0
1198,67.0,0.0,390.0,0.0,64.0
1199,63.0,96.0,90.0,0.0,64.0
1200,75.0,96.0,90.0,0.0,64.0
1201,73.0,96.0,90.0,0.0,64.0
1202,44.0,192.0,390.0,0.0,64.0
1203,68.0,0.0,180.0,0.0,64.0
1204,72.0,96.0,90.0,0.0,64.0
1205,80.0,96.0,90.0,0.0,64.0
1206,68.0,0.0,180.0,0.0,64.0
1207,79.0,96.0,90.0,0.0,64.0
1208,77.0,0.0,90.0,0.0,64.0
1209,82.0,0.0,180.0,0.0,64.0
1210,68.0,192.0,180.0,0.0,64.0
1211,74.0,192.0,180.0,0.0,64.0
1212,68.0,0.0,180.0,0.0,64.0
1213,67.0,192.0,180.0,0.0,64.0
1214,75.0,0.0,390.0,0.0,64.0
1215,70.0,0.0,180.0,0.0,64.0
1216,67.0,192.0,180.0,0.0,64.0
1217,75.0,0.0,390.0,0.0,64.0
1218,63.0,0.0,180.0,0.0,64.0
1219,79.0,96.0,90.0,0.0,64.0
1220,77.0,96.0,90.0,0.0,64.0
1221,63.0,96.0,180.0,0.0,64.0
1222,79.0,0.0,90.0,0.0,64.0
1223,72.0,96.0,180.0,0.0,64.0
1224,80.0,96.0,90.0,0.0,64.0
1225,82.0,0.0,90.0,0.0,64.0
1226,75.0,96.0,180.0,0.0,64.0
1227,80.0,96.0,90.0,0.0,64.0
1228,72.0,0.0,180.0,0.0,64.0
1229,82.0,0.0,90.0,0.0,64.0
1230,68.0,96.0,180.0,0.0,64.0
1231,84.0,96.0,90.0,0.0,64.0
1232,80.0,0.0,390.0,0.0,64.0
1233,87.0,0.0,90.0,0.0,64.0
1234,85.0,96.0,90.0,0.0,64.0
1235,68.0,0.0,180.0,0.0,64.0
1236,84.0,96.0,90.0,0.0,64.0
1237,75.0,96.0,90.0,0.0,64.0
1238,82.0,96.0,180.0,0.0,64.0
1239,73.0,0.0,90.0,0.0,64.0
1240,75.0,0.0,90.0,0.0,64.0
1241,79.0,96.0,90.0,0.0,64.0
1242,77.0,0.0,90.0,0.0,64.0
1243,80.0,96.0,90.0,0.0,64.0
1244,73.0,96.0,90.0,0.0,64.0
1245,82.0,0.0,180.0,0.0,64.0
1246,72.0,96.0,90.0,0.0,64.0
1247,77.0,96.0,90.0,0.0,64.0
1248,73.0,0.0,90.0,0.0,64.0
1249,79.0,0.0,90.0,0.0,64.0
1250,75.0,192.0,90.0,0.0,64.0
1251,72.0,192.0,180.0,0.0,64.0
1252,80.0,0.0,390.0,0.0,64.0
1253,75.0,0.0,180.0,0.0,64.0
1254,80.0,192.0,570.0,0.0,64.0
1255,72.0,96.0,15.0,0.0,64.0
1256,70.0,96.0,90.0,0.0,64.0
1257,87.0,0.0,180.0,0.0,64.0
1258,72.0,96.0,90.0,0.0,64.0
1259,73.0,192.0,90.0,0.0,64.0
1260,85.0,0.0,480.0,0.0,64.0
1261,70.0,0.0,180.0,0.0,64.0
1262,73.0,96.0,180.0,0.0,64.0
1263,70.0,0.0,180.0,0.0,64.0
1264,70.0,96.0,90.0,0.0,64.0
1265,82.0,96.0,90.0,0.0,64.0
1266,68.0,0.0,90.0,0.0,64.0
1267,70.0,0.0,90.0,0.0,64.0
1268,80.0,96.0,90.0,0.0,64.0
1269,79.0,0.0,15.0,0.0,64.0
1270,72.0,192.0,90.0,0.0,64.0
1271,68.0,192.0,180.0,0.0,64.0
1272,72.0,0.0,180.0,0.0,64.0
1273,68.0,96.0,180.0,0.0,64.0
1274,77.0,192.0,570.0,0.0,64.0
1275,68.0,96.0,90.0,0.0,64.0
1276,67.0,0.0,90.0,0.0,64.0
1277,84.0,96.0,15.0,0.0,64.0
1278,68.0,96.0,90.0,0.0,64.0
1279,70.0,192.0,90.0,0.0,64.0
1280,82.0,96.0,480.0,0.0,64.0
1281,67.0,0.0,15.0,0.0,64.0
1282,70.0,0.0,180.0,0.0,64.0
1283,75.0,0.0,300.0,0.0,64.0
1284,67.0,0.0,90.0,0.0,64.0
1285,79.0,96.0,90.0,0.0,64.0
1286,65.0,0.0,90.0,0.0,64.0
1287,67.0,0.0,90.0,0.0,64.0
1288,77.0,96.0,90.0,0.0,64.0
1289,68.0,192.0,90.0,0.0,64.0
1290,75.0,0.0,300.0,0.0,64.0
1291,80.0,0.0,570.0,0.0,64.0
1292,77.0,96.0,90.0,0.0,64.0
1293,65.0,96.0,15.0,0.0,64.0
1294,75.0,0.0,90.0,0.0,64.0
1295,73.0,96.0,480.0,0.0,64.0
1296,65.0,96.0,90.0,0.0,64.0
1297,63.0,96.0,90.0,0.0,64.0
1298,77.0,0.0,180.0,0.0,64.0
1299,65.0,96.0,90.0,0.0,64.0
1300,67.0,96.0,90.0,0.0,64.0
1301,79.0,96.0,480.0,0.0,64.0
1302,63.0,0.0,1530.0,0.0,64.0
1303,77.0,96.0,90.0,0.0,64.0
1304,75.0,96.0,90.0,0.0,64.0
1305,73.0,96.0,90.0,0.0,64.0
1306,72.0,96.0,390.0,0.0,64.0
1307,75.0,96.0,90.0,0.0,64.0
1308,80.0,96.0,90.0,0.0,64.0
1309,77.0,0.0,90.0,0.0,64.0
1310,70.0,96.0,180.0,0.0,64.0
1311,82.0,96.0,90.0,0.0,64.0
1312,79.0,0.0,90.0,0.0,64.0
1313,68.0,48.0,390.0,0.0,64.0
1314,85.0,96.0,90.0,0.0,64.0
1315,84.0,48.0,15.0,0.0,64.0
1316,82.0,48.0,40.0,0.0,64.0
1317,84.0,48.0,40.0,0.0,64.0
1318,82.0,0.0,40.0,0.0,64.0
1319,67.0,0.0,180.0,0.0,64.0
1320,84.0,48.0,40.0,0.0,64.0
1321,82.0,96.0,40.0,0.0,64.0
1322,80.0,96.0,15.0,0.0,64.0
1323,68.0,192.0,390.0,0.0,64.0
1324,65.0,96.0,180.0,0.0,64.0
1325,77.0,0.0,90.0,0.0,64.0
1326,60.0,0.0,180.0,0.0,64.0
1327,84.0,96.0,90.0,0.0,64.0
1328,82.0,0.0,90.0,0.0,64.0
1329,80.0,96.0,300.0,0.0,64.0
1330,70.0,96.0,480.0,0.0,64.0
1331,62.0,96.0,180.0,0.0,64.0
1332,58.0,96.0,180.0,0.0,64.0
1333,79.0,0.0,90.0,0.0,64.0
1334,79.0,96.0,480.0,0.0,64.0
1335,63.0,96.0,90.0,0.0,64.0
1336,75.0,96.0,90.0,0.0,64.0
1337,73.0,96.0,90.0,0.0,64.0
1338,72.0,96.0,180.0,0.0,64.0
1339,75.0,0.0,90.0,0.0,64.0
1340,70.0,96.0,180.0,0.0,64.0
1341,87.0,96.0,90.0,0.0,64.0
1342,85.0,0.0,90.0,0.0,64.0
1343,69.0,96.0,180.0,0.0,64.0
1344,84.0,96.0,90.0,0.0,64.0
1345,65.0,0.0,780.0,0.0,64.0
1346,77.0,0.0,90.0,0.0,64.0
1347,70.0,96.0,390.0,0.0,64.0
1348,87.0,96.0,90.0,0.0,64.0
1349,85.0,192.0,90.0,0.0,64.0
1350,84.0,96.0,300.0,0.0,64.0
1351,69.0,96.0,180.0,0.0,64.0
1352,82.0,0.0,90.0,0.0,64.0
1353,70.0,96.0,90.0,0.0,64.0
1354,82.0,96.0,480.0,0.0,64.0
1355,67.0,96.0,390.0,0.0,64.0
1356,73.0,96.0,90.0,0.0,64.0
1357,75.0,96.0,90.0,0.0,64.0
1358,70.0,0.0,90.0,0.0,64.0
1359,72.0,96.0,480.0,0.0,64.0
1360,68.0,0.0,180.0,0.0,64.0
1361,85.0,96.0,90.0,0.0,64.0
1362,67.0,96.0,180.0,0.0,64.0
1363,87.0,96.0,90.0,0.0,64.0
1364,79.0,0.0,90.0,0.0,64.0
1365,80.0,96.0,480.0,0.0,64.0
1366,65.0,96.0,390.0,0.0,64.0
1367,75.0,96.0,90.0,0.0,64.0
1368,77.0,96.0,90.0,0.0,64.0
1369,72.0,0.0,90.0,0.0,64.0
1370,74.0,0.0,390.0,0.0,64.0
1371,70.0,0.0,390.0,0.0,64.0
1372,80.0,96.0,90.0,0.0,64.0
1373,82.0,96.0,90.0,0.0,64.0
1374,77.0,96.0,90.0,0.0,64.0
1375,63.0,0.0,390.0,0.0,64.0
1376,79.0,192.0,90.0,0.0,64.0
1377,75.0,0.0,90.0,0.0,64.0
1378,75.0,96.0,180.0,0.0,64.0
1379,82.0,96.0,300.0,0.0,64.0
1380,73.0,96.0,90.0,0.0,64.0
1381,64.0,0.0,390.0,0.0,64.0
1382,82.0,96.0,90.0,0.0,64.0
1383,84.0,96.0,90.0,0.0,64.0
1384,79.0,96.0,90.0,0.0,64.0
1385,65.0,96.0,180.0,0.0,64.0
1386,80.0,96.0,90.0,0.0,64.0
1387,77.0,0.0,90.0,0.0,64.0
1388,84.0,96.0,90.0,0.0,64.0
1389,63.0,96.0,180.0,0.0,64.0
1390,72.0,0.0,15.0,0.0,64.0
1391,77.0,96.0,90.0,0.0,64.0
1392,61.0,0.0,390.0,0.0,64.0
1393,80.0,96.0,90.0,0.0,64.0
1394,70.0,96.0,180.0,0.0,64.0
1395,82.0,96.0,90.0,0.0,64.0
1396,79.0,0.0,90.0,0.0,64.0
1397,72.0,96.0,390.0,0.0,64.0
1398,76.0,96.0,90.0,0.0,64.0
1399,60.0,96.0,180.0,0.0,64.0
1400,79.0,0.0,90.0,0.0,64.0
1401,82.0,96.0,90.0,0.0,64.0
1402,62.0,0.0,180.0,0.0,64.0
1403,79.0,0.0,90.0,0.0,64.0
1404,76.0,96.0,90.0,0.0,64.0
1405,67.0,192.0,390.0,0.0,64.0
1406,64.0,0.0,180.0,0.0,64.0
1407,79.0,96.0,90.0,0.0,64.0
1408,60.0,0.0,180.0,0.0,64.0
1409,82.0,96.0,90.0,0.0,64.0
1410,79.0,0.0,90.0,0.0,64.0
1411,80.0,0.0,390.0,0.0,64.0
1412,77.0,192.0,390.0,0.0,64.0
1413,65.0,96.0,180.0,0.0,64.0
1414,68.0,0.0,90.0,0.0,64.0
1415,72.0,96.0,90.0,0.0,64.0
1416,68.0,0.0,90.0,0.0,64.0
1417,73.0,0.0,390.0,0.0,64.0
1418,80.0,96.0,90.0,0.0,64.0
1419,79.0,96.0,90.0,0.0,64.0
1420,77.0,96.0,90.0,0.0,64.0
1421,82.0,192.0,390.0,0.0,64.0
1422,67.0,96.0,90.0,0.0,64.0
1423,70.0,96.0,90.0,0.0,64.0
1424,74.0,96.0,90.0,0.0,64.0
1425,70.0,0.0,90.0,0.0,64.0
1426,75.0,96.0,390.0,0.0,64.0
1427,82.0,96.0,90.0,0.0,64.0
1428,80.0,96.0,90.0,0.0,64.0
1429,79.0,0.0,90.0,0.0,64.0
1430,68.0,96.0,90.0,0.0,64.0
1431,84.0,192.0,390.0,0.0,64.0
1432,72.0,96.0,90.0,0.0,64.0
1433,76.0,96.0,90.0,0.0,64.0
1434,72.0,0.0,90.0,0.0,64.0
1435,77.0,96.0,390.0,0.0,64.0
1436,84.0,96.0,90.0,0.0,64.0
1437,82.0,96.0,90.0,0.0,64.0
1438,80.0,0.0,90.0,0.0,64.0
1439,70.0,96.0,90.0,0.0,64.0
1440,85.0,192.0,390.0,0.0,64.0
1441,73.0,96.0,90.0,0.0,64.0
1442,77.0,96.0,90.0,0.0,64.0
1443,73.0,0.0,90.0,0.0,64.0
1444,78.0,96.0,480.0,0.0,64.0
1445,84.0,96.0,90.0,0.0,64.0
1446,85.0,96.0,90.0,0.0,64.0
1447,70.0,96.0,180.0,0.0,64.0
1448,87.0,0.0,90.0,0.0,64.0
1449,84.0,96.0,300.0,0.0,64.0
1450,69.0,96.0,180.0,0.0,64.0
1451,77.0,0.0,90.0,0.0,64.0
1452,75.0,0.0,90.0,0.0,64.0
1453,70.0,96.0,180.0,0.0,64.0
1454,82.0,96.0,180.0,0.0,64.0
1455,73.0,0.0,90.0,0.0,64.0
1456,72.0,96.0,390.0,0.0,64.0
1457,65.0,0.0,390.0,0.0,64.0
1458,84.0,96.0,90.0,0.0,64.0
1459,82.0,96.0,90.0,0.0,64.0
1460,81.0,0.0,90.0,0.0,64.0
1461,67.0,0.0,390.0,0.0,64.0
1462,82.0,96.0,90.0,0.0,64.0
1463,80.0,96.0,90.0,0.0,64.0
1464,70.0,0.0,180.0,0.0,64.0
1465,79.0,96.0,90.0,0.0,64.0
1466,77.0,96.0,90.0,0.0,64.0
1467,68.0,96.0,180.0,0.0,64.0
1468,75.0,96.0,90.0,0.0,64.0
1469,72.0,0.0,180.0,0.0,64.0
1470,79.0,0.0,90.0,0.0,64.0
1471,80.0,96.0,90.0,0.0,64.0
1472,70.0,0.0,180.0,0.0,64.0
1473,67.0,96.0,180.0,0.0,64.0
1474,82.0,0.0,90.0,0.0,64.0
1475,65.0,96.0,180.0,0.0,64.0
1476,68.0,0.0,180.0,0.0,64.0
1477,84.0,96.0,90.0,0.0,64.0
1478,79.0,0.0,90.0,0.0,64.0
1479,72.0,0.0,180.0,0.0,64.0
1480,77.0,96.0,90.0,0.0,64.0
1481,68.0,0.0,180.0,0.0,64.0
1482,75.0,48.0,15.0,0.0,64.0
1483,70.0,0.0,180.0,0.0,64.0
1484,74.0,48.0,40.0,0.0,64.0
1485,75.0,48.0,40.0,0.0,64.0
1486,74.0,0.0,40.0,0.0,64.0
1487,58.0,0.0,570.0,0.0,64.0
1488,75.0,48.0,40.0,0.0,64.0
1489,68.0,0.0,390.0,0.0,64.0
1490,74.0,96.0,40.0,0.0,64.0
1491,75.0,192.0,15.0,0.0,64.0
1492,67.0,96.0,90.0,0.0,64.0
1493,51.0,96.0,15.0,0.0,64.0
1494,65.0,0.0,90.0,0.0,64.0
1495,51.0,192.0,15.0,0.0,64.0
1496,67.0,96.0,300.0,0.0,64.0
1497,75.0,0.0,180.0,0.0,64.0
1498,51.0,192.0,180.0,0.0,64.0
1499,68.0,0.0,90.0,0.0,64.0
1500,68.0,96.0,300.0,0.0,64.0
1501,80.0,0.0,390.0,0.0,64.0
1502,48.0,96.0,15.0,0.0,64.0
1503,63.0,0.0,180.0,0.0,64.0
1504,70.0,0.0,90.0,0.0,64.0
1505,68.0,0.0,180.0,0.0,64.0
1506,72.0,96.0,90.0,0.0,64.0
1507,44.0,96.0,180.0,0.0,64.0
1508,73.0,0.0,90.0,0.0,64.0
1509,72.0,96.0,90.0,0.0,64.0
1510,63.0,0.0,390.0,0.0,64.0
1511,44.0,0.0,180.0,0.0,64.0
1512,70.0,192.0,90.0,0.0,64.0
1513,53.0,192.0,180.0,0.0,64.0
1514,68.0,192.0,390.0,0.0,64.0
1515,53.0,0.0,180.0,0.0,64.0
1516,80.0,0.0,180.0,0.0,64.0
1517,61.0,96.0,390.0,0.0,64.0
1518,67.0,0.0,390.0,0.0,64.0
1519,87.0,96.0,390.0,0.0,64.0
1520,51.0,0.0,180.0,0.0,64.0
1521,51.0,0.0,180.0,0.0,64.0
1522,60.0,96.0,90.0,0.0,64.0
1523,58.0,0.0,90.0,0.0,64.0
1524,60.0,0.0,390.0,0.0,64.0
1525,56.0,96.0,90.0,0.0,64.0
1526,68.0,0.0,390.0,0.0,64.0
1527,58.0,96.0,90.0,0.0,64.0
1528,84.0,0.0,90.0,0.0,64.0
1529,56.0,96.0,90.0,0.0,64.0
1530,85.0,96.0,90.0,0.0,64.0
1531,58.0,0.0,90.0,0.0,64.0
1532,55.0,96.0,90.0,0.0,64.0
1533,58.0,0.0,390.0,0.0,64.0
1534,87.0,0.0,180.0,0.0,64.0
1535,70.0,0.0,390.0,0.0,64.0
1536,56.0,96.0,90.0,0.0,64.0
1537,82.0,0.0,90.0,0.0,64.0
1538,55.0,96.0,90.0,0.0,64.0
1539,56.0,192.0,90.0,0.0,64.0
1540,84.0,0.0,90.0,0.0,64.0
1541,68.0,96.0,480.0,0.0,64.0
1542,85.0,0.0,180.0,0.0,64.0
1543,65.0,0.0,390.0,0.0,64.0
1544,53.0,192.0,180.0,0.0,64.0
1545,53.0,0.0,180.0,0.0,64.0
1546,80.0,96.0,180.0,0.0,64.0
1547,53.0,0.0,90.0,0.0,64.0
1548,85.0,0.0,570.0,0.0,64.0
1549,70.0,0.0,90.0,0.0,64.0
1550,55.0,96.0,90.0,0.0,64.0
1551,53.0,96.0,90.0,0.0,64.0
1552,68.0,0.0,90.0,0.0,64.0
1553,70.0,192.0,90.0,0.0,64.0
1554,55.0,0.0,90.0,0.0,64.0
1555,67.0,96.0,480.0,0.0,64.0
1556,51.0,192.0,180.0,0.0,64.0
1557,58.0,0.0,180.0,0.0,64.0
1558,79.0,0.0,180.0,0.0,64.0
1559,84.0,0.0,570.0,0.0,64.0
1560,51.0,96.0,15.0,0.0,64.0
1561,63.0,0.0,390.0,0.0,64.0
1562,68.0,0.0,90.0,0.0,64.0
1563,53.0,96.0,90.0,0.0,64.0
1564,67.0,0.0,90.0,0.0,64.0
1565,51.0,96.0,90.0,0.0,64.0
1566,53.0,192.0,90.0,0.0,64.0
1567,68.0,0.0,90.0,0.0,64.0
1568,65.0,0.0,480.0,0.0,64.0
1569,49.0,192.0,180.0,0.0,64.0
1570,56.0,0.0,390.0,0.0,64.0
1571,77.0,0.0,180.0,0.0,64.0
1572,49.0,96.0,180.0,0.0,64.0
1573,61.0,192.0,390.0,0.0,64.0
1574,82.0,0.0,570.0,0.0,64.0
1575,49.0,96.0,90.0,0.0,64.0
1576,67.0,96.0,90.0,0.0,64.0
1577,51.0,0.0,90.0,0.0,64.0
1578,65.0,0.0,90.0,0.0,64.0
1579,49.0,96.0,90.0,0.0,64.0
1580,51.0,0.0,90.0,0.0,64.0
1581,67.0,0.0,90.0,0.0,64.0
1582,55.0,0.0,390.0,0.0,64.0
1583,63.0,96.0,480.0,0.0,64.0
1584,48.0,192.0,15.0,0.0,64.0
1585,75.0,96.0,180.0,0.0,64.0
1586,60.0,0.0,390.0,0.0,64.0
1587,48.0,0.0,15.0,0.0,64.0
1588,80.0,96.0,570.0,0.0,64.0
1589,49.0,0.0,90.0,0.0,64.0
1590,65.0,96.0,90.0,0.0,64.0
1591,48.0,0.0,90.0,0.0,64.0
1592,63.0,96.0,90.0,0.0,64.0
1593,65.0,0.0,90.0,0.0,64.0
1594,49.0,192.0,90.0,0.0,64.0
1595,61.0,0.0,480.0,0.0,64.0
1596,53.0,96.0,390.0,0.0,64.0
1597,82.0,96.0,90.0,0.0,64.0
1598,46.0,0.0,15.0,0.0,64.0
1599,80.0,0.0,90.0,0.0,64.0
1600,46.0,96.0,90.0,0.0,64.0
1601,79.0,0.0,300.0,0.0,64.0
1602,58.0,0.0,390.0,0.0,64.0
1603,63.0,96.0,90.0,0.0,64.0
1604,48.0,0.0,90.0,0.0,64.0
1605,46.0,0.0,90.0,0.0,64.0
1606,61.0,96.0,90.0,0.0,64.0
1607,48.0,0.0,90.0,0.0,64.0
1608,63.0,0.0,90.0,0.0,64.0
1609,80.0,96.0,90.0,0.0,64.0
1610,44.0,0.0,390.0,0.0,64.0
1611,80.0,0.0,390.0,0.0,64.0
1612,63.0,96.0,90.0,0.0,64.0
1613,65.0,96.0,90.0,0.0,64.0
1614,63.0,96.0,90.0,0.0,64.0
1615,61.0,96.0,90.0,0.0,64.0
1616,68.0,96.0,90.0,0.0,64.0
1617,60.0,0.0,15.0,0.0,64.0
1618,70.0,0.0,90.0,0.0,64.0
1619,68.0,96.0,90.0,0.0,64.0
1620,56.0,0.0,180.0,0.0,64.0
1621,67.0,96.0,90.0,0.0,64.0
1622,61.0,0.0,180.0,0.0,64.0
1623,65.0,96.0,90.0,0.0,64.0
1624,67.0,96.0,90.0,0.0,64.0
1625,68.0,96.0,90.0,0.0,64.0
1626,60.0,0.0,180.0,0.0,64.0
1627,70.0,96.0,90.0,0.0,64.0
1628,58.0,96.0,180.0,0.0,64.0
1629,67.0,96.0,90.0,0.0,64.0
1630,68.0,0.0,90.0,0.0,64.0
1631,67.0,96.0,90.0,0.0,64.0
1632,63.0,0.0,180.0,0.0,64.0
1633,65.0,96.0,90.0,0.0,64.0
1634,60.0,96.0,180.0,0.0,64.0
1635,63.0,96.0,90.0,0.0,64.0
1636,68.0,0.0,90.0,0.0,64.0
1637,58.0,0.0,90.0,0.0,64.0
1638,67.0,96.0,90.0,0.0,64.0
1639,65.0,0.0,90.0,0.0,64.0
1640,56.0,48.0,90.0,0.0,64.0
1641,58.0,0.0,90.0,0.0,64.0
1642,67.0,48.0,40.0,0.0,64.0
1643,65.0,48.0,40.0,0.0,64.0
1644,56.0,0.0,90.0,0.0,64.0
1645,67.0,48.0,40.0,0.0,64.0
1646,65.0,48.0,40.0,0.0,64.0
1647,58.0,0.0,180.0,0.0,64.0
1648,67.0,48.0,40.0,0.0,64.0
1649,65.0,96.0,40.0,0.0,64.0
1650,63.0,96.0,90.0,0.0,64.0
1651,60.0,0.0,180.0,0.0,64.0
1652,63.0,96.0,90.0,0.0,64.0
1653,68.0,96.0,90.0,0.0,64.0
1654,56.0,96.0,180.0,0.0,64.0
1655,67.0,96.0,90.0,0.0,64.0
1656,68.0,0.0,90.0,0.0,64.0
1657,61.0,96.0,180.0,0.0,64.0
1658,65.0,96.0,90.0,0.0,64.0
1659,70.0,0.0,90.0,0.0,64.0
1660,68.0,96.0,90.0,0.0,64.0
1661,58.0,0.0,180.0,0.0,64.0
1662,70.0,96.0,90.0,0.0,64.0
1663,67.0,96.0,90.0,0.0,64.0
1664,63.0,96.0,180.0,0.0,64.0
1665,72.0,0.0,90.0,0.0,64.0
1666,70.0,96.0,90.0,0.0,64.0
1667,60.0,96.0,180.0,0.0,64.0
1668,72.0,0.0,90.0,0.0,64.0
1669,68.0,96.0,90.0,0.0,64.0
1670,65.0,0.0,180.0,0.0,64.0
1671,70.0,96.0,90.0,0.0,64.0
1672,58.0,96.0,180.0,0.0,64.0
1673,68.0,96.0,90.0,0.0,64.0
1674,67.0,0.0,90.0,0.0,64.0
1675,60.0,0.0,180.0,0.0,64.0
1676,68.0,96.0,90.0,0.0,64.0
1677,70.0,96.0,90.0,0.0,64.0
1678,65.0,96.0,180.0,0.0,64.0
1679,68.0,96.0,90.0,0.0,64.0
1680,67.0,0.0,90.0,0.0,64.0
1681,62.0,96.0,180.0,0.0,64.0
1682,68.0,96.0,90.0,0.0,64.0
1683,72.0,0.0,90.0,0.0,64.0
1684,70.0,96.0,90.0,0.0,64.0
1685,58.0,96.0,180.0,0.0,64.0
1686,68.0,0.0,90.0,0.0,64.0
1687,63.0,0.0,180.0,0.0,64.0
1688,67.0,96.0,90.0,0.0,64.0
1689,68.0,96.0,90.0,0.0,64.0
1690,58.0,0.0,180.0,0.0,64.0
1691,67.0,96.0,90.0,0.0,64.0
1692,51.0,96.0,180.0,0.0,64.0
1693,65.0,0.0,90.0,0.0,64.0
1694,63.0,96.0,90.0,0.0,64.0
1695,60.0,96.0,300.0,0.0,64.0
1696,56.0,96.0,480.0,0.0,64.0
1697,67.0,96.0,90.0,0.0,64.0
1698,68.0,0.0,90.0,0.0,64.0
1699,61.0,0.0,90.0,0.0,64.0
1700,70.0,96.0,90.0,0.0,64.0
1701,63.0,0.0,390.0,0.0,64.0
1702,72.0,0.0,390.0,0.0,64.0
1703,58.0,0.0,90.0,0.0,64.0
1704,80.0,96.0,15.0,0.0,64.0
1705,55.0,96.0,90.0,0.0,64.0
1706,56.0,0.0,90.0,0.0,64.0
1707,65.0,96.0,390.0,0.0,64.0
1708,80.0,96.0,15.0,0.0,64.0
1709,74.0,0.0,390.0,0.0,64.0
1710,53.0,96.0,90.0,0.0,64.0
1711,58.0,0.0,90.0,0.0,64.0
1712,56.0,96.0,90.0,0.0,64.0
1713,80.0,0.0,180.0,0.0,64.0
1714,58.0,0.0,90.0,0.0,64.0
1715,75.0,0.0,390.0,0.0,64.0
1716,79.0,0.0,180.0,0.0,64.0
1717,67.0,96.0,90.0,0.0,64.0
1718,70.0,0.0,90.0,0.0,64.0
1719,68.0,96.0,90.0,0.0,64.0
1720,79.0,0.0,180.0,0.0,64.0
1721,51.0,96.0,15.0,0.0,64.0
1722,70.0,0.0,90.0,0.0,64.0
1723,56.0,0.0,390.0,0.0,64.0
1724,75.0,0.0,180.0,0.0,64.0
1725,72.0,96.0,90.0,0.0,64.0
1726,73.0,96.0,90.0,0.0,64.0
1727,75.0,192.0,180.0,0.0,64.0
1728,72.0,96.0,90.0,0.0,64.0
1729,70.0,0.0,90.0,0.0,64.0
1730,84.0,96.0,180.0,0.0,64.0
1731,70.0,0.0,90.0,0.0,64.0
1732,68.0,0.0,15.0,0.0,64.0
1733,72.0,96.0,90.0,0.0,64.0
1734,84.0,0.0,180.0,0.0,64.0
1735,56.0,0.0,180.0,0.0,64.0
1736,73.0,0.0,90.0,0.0,64.0
1737,60.0,0.0,390.0,0.0,64.0
1738,80.0,96.0,180.0,0.0,64.0
1739,68.0,192.0,390.0,0.0,64.0
1740,75.0,96.0,90.0,0.0,64.0
1741,77.0,0.0,90.0,0.0,64.0
1742,73.0,96.0,90.0,0.0,64.0
1743,80.0,0.0,180.0,0.0,64.0
1744,72.0,0.0,90.0,0.0,64.0
1745,67.0,0.0,390.0,0.0,64.0
1746,87.0,96.0,180.0,0.0,64.0
1747,70.0,0.0,570.0,0.0,64.0
1748,55.0,96.0,90.0,0.0,64.0
1749,87.0,0.0,180.0,0.0,64.0
1750,56.0,96.0,90.0,0.0,64.0
1751,65.0,192.0,390.0,0.0,64.0
1752,85.0,96.0,90.0,0.0,64.0
1753,58.0,96.0,180.0,0.0,64.0
1754,84.0,0.0,90.0,0.0,64.0
1755,85.0,96.0,90.0,0.0,64.0
1756,53.0,0.0,90.0,0.0,64.0
1757,55.0,0.0,90.0,0.0,64.0
1758,87.0,0.0,90.0,0.0,64.0
1759,68.0,0.0,15.0,0.0,64.0
1760,56.0,192.0,180.0,0.0,64.0
1761,63.0,0.0,480.0,0.0,64.0
1762,84.0,0.0,15.0,0.0,64.0
1763,51.0,96.0,180.0,0.0,64.0
1764,84.0,96.0,90.0,0.0,64.0
1765,56.0,0.0,570.0,0.0,64.0
1766,61.0,0.0,90.0,0.0,64.0
1767,82.0,96.0,90.0,0.0,64.0
1768,63.0,96.0,90.0,0.0,64.0
1769,84.0,0.0,90.0,0.0,64.0
1770,65.0,192.0,90.0,0.0,64.0
1771,85.0,0.0,90.0,0.0,64.0
1772,62.0,96.0,480.0,0.0,64.0
1773,70.0,0.0,390.0,0.0,64.0
1774,50.0,96.0,180.0,0.0,64.0
1775,82.0,192.0,15.0,0.0,64.0
1776,82.0,0.0,90.0,0.0,64.0
1777,55.0,0.0,570.0,0.0,64.0
1778,80.0,96.0,90.0,0.0,64.0
1779,60.0,0.0,90.0,0.0,64.0
1780,62.0,0.0,90.0,0.0,64.0
1781,82.0,96.0,90.0,0.0,64.0
1782,63.0,192.0,90.0,0.0,64.0
1783,84.0,0.0,90.0,0.0,64.0
1784,75.0,96.0,390.0,0.0,64.0
1785,80.0,192.0,180.0,0.0,64.0
1786,60.0,0.0,480.0,0.0,64.0
1787,48.0,0.0,180.0,0.0,64.0
1788,68.0,0.0,390.0,0.0,64.0
1789,53.0,0.0,570.0,0.0,64.0
1790,80.0,0.0,15.0,0.0,64.0
1791,58.0,96.0,90.0,0.0,64.0
1792,79.0,0.0,90.0,0.0,64.0
1793,80.0,0.0,90.0,0.0,64.0
1794,60.0,96.0,90.0,0.0,64.0
1795,82.0,0.0,90.0,0.0,64.0
1796,62.0,192.0,90.0,0.0,64.0
1797,58.0,96.0,480.0,0.0,64.0
1798,74.0,0.0,390.0,0.0,64.0
1799,79.0,192.0,15.0,0.0,64.0
1800,46.0,0.0,180.0,0.0,64.0
1801,51.0,0.0,390.0,0.0,64.0
1802,79.0,96.0,15.0,0.0,64.0
1803,75.0,0.0,780.0,0.0,64.0
1804,77.0,0.0,90.0,0.0,64.0
1805,56.0,96.0,90.0,0.0,64.0
1806,79.0,0.0,90.0,0.0,64.0
1807,58.0,96.0,90.0,0.0,64.0
1808,80.0,96.0,90.0,0.0,64.0
1809,60.0,0.0,90.0,0.0,64.0
1810,44.0,0.0,390.0,0.0,64.0
1811,56.0,96.0,90.0,0.0,64.0
1812,60.0,0.0,90.0,0.0,64.0
1813,65.0,96.0,90.0,0.0,64.0
1814,77.0,96.0,15.0,0.0,64.0
1815,67.0,0.0,90.0,0.0,64.0
1816,77.0,96.0,15.0,0.0,64.0
1817,46.0,0.0,390.0,0.0,64.0
1818,68.0,0.0,90.0,0.0,64.0
1819,74.0,96.0,390.0,0.0,64.0
1820,75.0,96.0,90.0,0.0,64.0
1821,67.0,0.0,90.0,0.0,64.0
1822,68.0,0.0,90.0,0.0,64.0
1823,77.0,96.0,90.0,0.0,64.0
1824,79.0,0.0,90.0,0.0,64.0
1825,70.0,0.0,90.0,0.0,64.0
1826,67.0,0.0,390.0,0.0,64.0
1827,51.0,96.0,480.0,0.0,64.0
1828,75.0,96.0,90.0,0.0,64.0
1829,70.0,0.0,390.0,0.0,64.0
1830,79.0,96.0,90.0,0.0,64.0
1831,80.0,96.0,90.0,0.0,64.0
1832,82.0,96.0,90.0,0.0,64.0
1833,67.0,0.0,390.0,0.0,64.0
1834,84.0,192.0,390.0,0.0,64.0
1835,63.0,96.0,90.0,0.0,64.0
1836,60.0,96.0,90.0,0.0,64.0
1837,63.0,0.0,90.0,0.0,64.0
1838,49.0,96.0,480.0,0.0,64.0
1839,65.0,96.0,390.0,0.0,64.0
1840,68.0,0.0,390.0,0.0,64.0
1841,77.0,96.0,90.0,0.0,64.0
1842,79.0,96.0,90.0,0.0,64.0
1843,80.0,0.0,90.0,0.0,64.0
1844,82.0,192.0,390.0,0.0,64.0
1845,65.0,0.0,390.0,0.0,64.0
1846,61.0,96.0,90.0,0.0,64.0
1847,58.0,96.0,90.0,0.0,64.0
1848,61.0,0.0,90.0,0.0,64.0
1849,63.0,0.0,390.0,0.0,64.0
1850,48.0,96.0,480.0,0.0,64.0
1851,67.0,0.0,390.0,0.0,64.0
1852,75.0,96.0,90.0,0.0,64.0
1853,77.0,96.0,90.0,0.0,64.0
1854,79.0,96.0,90.0,0.0,64.0
1855,80.0,96.0,570.0,0.0,64.0
1856,63.0,96.0,390.0,0.0,64.0
1857,60.0,96.0,90.0,0.0,64.0
1858,56.0,96.0,90.0,0.0,64.0
1859,60.0,0.0,90.0,0.0,64.0
1860,65.0,0.0,390.0,0.0,64.0
1861,61.0,96.0,90.0,0.0,64.0
1862,60.0,0.0,90.0,0.0,64.0
1863,82.0,96.0,90.0,0.0,64.0
1864,61.0,0.0,90.0,0.0,64.0
1865,77.0,0.0,90.0,0.0,64.0
1866,58.0,0.0,90.0,0.0,64.0
1867,58.0,96.0,15.0,0.0,64.0
1868,63.0,96.0,90.0,0.0,64.0
1869,51.0,96.0,90.0,0.0,64.0
1870,55.0,96.0,90.0,0.0,64.0
1871,51.0,0.0,90.0,0.0,64.0
1872,56.0,96.0,480.0,0.0,64.0
1873,60.0,0.0,390.0,0.0,64.0
1874,63.0,96.0,15.0,0.0,64.0
1875,79.0,96.0,15.0,0.0,64.0
1876,80.0,96.0,90.0,0.0,64.0
1877,75.0,96.0,90.0,0.0,64.0
1878,68.0,0.0,390.0,0.0,64.0
1879,77.0,96.0,480.0,0.0,64.0
1880,60.0,96.0,390.0,0.0,64.0
1881,55.0,96.0,90.0,0.0,64.0
1882,56.0,96.0,90.0,0.0,64.0
1883,53.0,0.0,90.0,0.0,64.0
1884,55.0,96.0,480.0,0.0,64.0
1885,58.0,96.0,390.0,0.0,64.0
1886,70.0,0.0,390.0,0.0,64.0
1887,80.0,96.0,90.0,0.0,64.0
1888,79.0,96.0,90.0,0.0,64.0
1889,77.0,0.0,90.0,0.0,64.0
1890,70.0,0.0,390.0,0.0,64.0
1891,75.0,96.0,480.0,0.0,64.0
1892,63.0,0.0,390.0,0.0,64.0
1893,53.0,96.0,90.0,0.0,64.0
1894,55.0,96.0,90.0,0.0,64.0
1895,51.0,96.0,90.0,0.0,64.0
1896,56.0,0.0,390.0,0.0,64.0
1897,68.0,96.0,480.0,0.0,64.0
1898,53.0,96.0,390.0,0.0,64.0
1899,77.0,96.0,90.0,0.0,64.0
1900,79.0,96.0,90.0,0.0,64.0
1901,80.0,0.0,90.0,0.0,64.0
1902,74.0,96.0,300.0,0.0,64.0
1903,58.0,0.0,180.0,0.0,64.0
1904,67.0,96.0,90.0,0.0,64.0
1905,68.0,0.0,90.0,0.0,64.0
1906,46.0,0.0,180.0,0.0,64.0
1907,70.0,0.0,90.0,0.0,64.0
1908,75.0,96.0,15.0,0.0,64.0
1909,51.0,0.0,390.0,0.0,64.0
1910,58.0,0.0,15.0,0.0,64.0
1911,67.0,96.0,390.0,0.0,64.0
1912,77.0,0.0,90.0,0.0,64.0
1913,58.0,96.0,15.0,0.0,64.0
1914,74.0,96.0,90.0,0.0,64.0
1915,75.0,0.0,90.0,0.0,64.0
1916,50.0,192.0,390.0,0.0,64.0
1917,58.0,0.0,15.0,0.0,64.0
1918,77.0,96.0,90.0,0.0,64.0
1919,79.0,96.0,90.0,0.0,64.0
1920,58.0,0.0,15.0,0.0,64.0
1921,75.0,96.0,90.0,0.0,64.0
1922,77.0,0.0,90.0,0.0,64.0
1923,55.0,192.0,180.0,0.0,64.0
1924,70.0,0.0,180.0,0.0,64.0
1925,55.0,0.0,180.0,0.0,64.0
1926,51.0,96.0,15.0,0.0,64.0
1927,75.0,96.0,300.0,0.0,64.0
1928,79.0,96.0,15.0,0.0,64.0
1929,51.0,192.0,180.0,0.0,64.0
1930,77.0,0.0,90.0,0.0,64.0
1931,75.0,0.0,90.0,0.0,64.0
1932,60.0,192.0,180.0,0.0,64.0
1933,60.0,0.0,180.0,0.0,64.0
1934,75.0,96.0,180.0,0.0,64.0
1935,82.0,96.0,390.0,0.0,64.0
1936,80.0,96.0,15.0,0.0,64.0
1937,79.0,96.0,90.0,0.0,64.0
1938,58.0,0.0,15.0,0.0,64.0
1939,77.0,0.0,90.0,0.0,64.0
1940,79.0,0.0,180.0,0.0,64.0
1941,63.0,96.0,90.0,0.0,64.0
1942,62.0,96.0,90.0,0.0,64.0
1943,79.0,96.0,90.0,0.0,64.0
1944,63.0,0.0,90.0,0.0,64.0
1945,80.0,0.0,90.0,0.0,64.0
1946,65.0,96.0,90.0,0.0,64.0
1947,82.0,96.0,180.0,0.0,64.0
1948,62.0,96.0,90.0,0.0,64.0
1949,60.0,0.0,90.0,0.0,64.0
1950,62.0,96.0,90.0,0.0,64.0
1951,77.0,0.0,90.0,0.0,64.0
1952,79.0,192.0,90.0,0.0,64.0
1953,63.0,0.0,90.0,0.0,64.0
1954,60.0,0.0,180.0,0.0,64.0
1955,80.0,192.0,180.0,0.0,64.0
1956,75.0,0.0,180.0,0.0,64.0
1957,80.0,0.0,570.0,0.0,64.0
1958,60.0,96.0,15.0,0.0,64.0
1959,58.0,96.0,90.0,0.0,64.0
1960,60.0,96.0,90.0,0.0,64.0
1961,75.0,192.0,180.0,0.0,64.0
1962,62.0,0.0,90.0,0.0,64.0
1963,74.0,0.0,180.0,0.0,64.0
1964,74.0,96.0,300.0,0.0,64.0
1965,58.0,192.0,15.0,0.0,64.0
1966,79.0,0.0,570.0,0.0,64.0
1967,58.0,96.0,15.0,0.0,64.0
1968,72.0,0.0,90.0,0.0,64.0
1969,56.0,96.0,90.0,0.0,64.0
1970,74.0,96.0,90.0,0.0,64.0
1971,58.0,0.0,90.0,0.0,64.0
1972,75.0,0.0,90.0,0.0,64.0
1973,60.0,192.0,90.0,0.0,64.0
1974,72.0,0.0,180.0,0.0,64.0
1975,56.0,192.0,15.0,0.0,64.0
1976,77.0,192.0,570.0,0.0,64.0
1977,56.0,96.0,90.0,0.0,64.0
1978,55.0,0.0,90.0,0.0,64.0
1979,72.0,96.0,15.0,0.0,64.0
1980,56.0,96.0,90.0,0.0,64.0
1981,58.0,0.0,90.0,0.0,64.0
1982,55.0,0.0,180.0,0.0,64.0
1983,70.0,0.0,180.0,0.0,64.0
1984,70.0,96.0,300.0,0.0,64.0
1985,55.0,96.0,15.0,0.0,64.0
1986,75.0,0.0,570.0,0.0,64.0
1987,53.0,0.0,90.0,0.0,64.0
1988,68.0,96.0,90.0,0.0,64.0
1989,70.0,0.0,90.0,0.0,64.0
1990,55.0,96.0,90.0,0.0,64.0
1991,72.0,0.0,90.0,0.0,64.0
1992,56.0,192.0,90.0,0.0,64.0
1993,68.0,96.0,570.0,0.0,64.0
1994,53.0,96.0,15.0,0.0,64.0
1995,77.0,96.0,90.0,0.0,64.0
1996,75.0,96.0,90.0,0.0,64.0
1997,53.0,96.0,90.0,0.0,64.0
1998,74.0,96.0,300.0,0.0,64.0
1999,51.0,0.0,90.0,0.0,64.0
2000,80.0,96.0,180.0,0.0,64.0
2001,53.0,0.0,90.0,0.0,64.0
2002,55.0,0.0,90.0,0.0,64.0
2003,75.0,0.0,90.0,0.0,64.0
2004,51.0,0.0,390.0,0.0,64.0
2005,75.0,96.0,180.0,0.0,64.0
2006,79.0,96.0,90.0,0.0,64.0
2007,77.0,0.0,90.0,0.0,64.0
2008,79.0,96.0,90.0,0.0,64.0
2009,70.0,0.0,90.0,0.0,64.0
2010,72.0,0.0,90.0,0.0,64.0
2011,80.0,96.0,90.0,0.0,64.0
2012,58.0,96.0,180.0,0.0,64.0
2013,77.0,96.0,90.0,0.0,64.0
2014,73.0,0.0,180.0,0.0,64.0
2015,75.0,0.0,90.0,0.0,64.0
2016,77.0,96.0,90.0,0.0,64.0
2017,53.0,96.0,180.0,0.0,64.0
2018,78.0,0.0,90.0,0.0,64.0
2019,55.0,96.0,180.0,0.0,64.0
2020,75.0,96.0,90.0,0.0,64.0
2021,73.0,0.0,15.0,0.0,64.0
2022,57.0,96.0,180.0,0.0,64.0
2023,72.0,96.0,390.0,0.0,64.0
2024,75.0,96.0,90.0,0.0,64.0
2025,77.0,0.0,90.0,0.0,64.0
2026,58.0,96.0,90.0,0.0,64.0
2027,60.0,0.0,90.0,0.0,64.0
2028,70.0,96.0,300.0,0.0,64.0
2029,73.0,0.0,15.0,0.0,64.0
2030,61.0,96.0,90.0,0.0,64.0
2031,63.0,96.0,90.0,0.0,64.0
2032,72.0,96.0,480.0,0.0,64.0
2033,65.0,0.0,180.0,0.0,64.0
2034,70.0,96.0,90.0,0.0,64.0
2035,68.0,96.0,90.0,0.0,64.0
2036,60.0,96.0,180.0,0.0,64.0
2037,67.0,0.0,90.0,0.0,64.0
2038,68.0,96.0,390.0,0.0,64.0
2039,65.0,96.0,300.0,0.0,64.0
2040,72.0,96.0,90.0,0.0,64.0
2041,63.0,0.0,90.0,0.0,64.0
2042,61.0,96.0,300.0,0.0,64.0
2043,70.0,0.0,300.0,0.0,64.0
2044,77.0,96.0,15.0,0.0,64.0
2045,82.0,96.0,300.0,0.0,64.0
2046,60.0,0.0,90.0,0.0,64.0
2047,72.0,96.0,90.0,0.0,64.0
2048,58.0,0.0,390.0,0.0,64.0
2049,73.0,96.0,480.0,0.0,64.0
2050,80.0,96.0,90.0,0.0,64.0
2051,79.0,96.0,90.0,0.0,64.0
2052,77.0,96.0,90.0,0.0,64.0
2053,60.0,96.0,390.0,0.0,64.0
2054,76.0,96.0,480.0,0.0,64.0
2055,72.0,96.0,90.0,0.0,64.0
2056,70.0,96.0,90.0,0.0,64.0
2057,72.0,0.0,90.0,0.0,64.0
2058,65.0,0.0,570.0,0.0,64.0
2059,68.0,96.0,570.0,0.0,64.0
2060,72.0,96.0,90.0,0.0,64.0
2061,77.0,96.0,90.0,0.0,64.0
2062,72.0,96.0,90.0,0.0,64.0
2063,73.0,96.0,90.0,0.0,64.0
2064,75.0,0.0,90.0,0.0,64.0
2065,67.0,0.0,180.0,0.0,64.0
2066,70.0,0.0,570.0,0.0,64.0
2067,73.0,96.0,90.0,0.0,64.0
2068,75.0,96.0,90.0,0.0,64.0
2069,72.0,96.0,90.0,0.0,64.0
2070,64.0,96.0,390.0,0.0,64.0
2071,79.0,96.0,90.0,0.0,64.0
2072,77.0,96.0,90.0,0.0,64.0
2073,79.0,0.0,90.0,0.0,64.0
2074,68.0,0.0,390.0,0.0,64.0
2075,80.0,96.0,90.0,0.0,64.0
2076,65.0,0.0,390.0,0.0,64.0
2077,70.0,96.0,90.0,0.0,64.0
2078,72.0,96.0,90.0,0.0,64.0
2079,73.0,96.0,90.0,0.0,64.0
2080,72.0,96.0,90.0,0.0,64.0
2081,63.0,96.0,390.0,0.0,64.0
2082,67.0,0.0,390.0,0.0,64.0
2083,80.0,96.0,90.0,0.0,64.0
2084,79.0,96.0,90.0,0.0,64.0
2085,80.0,0.0,90.0,0.0,64.0
2086,65.0,96.0,180.0,0.0,64.0
2087,82.0,96.0,90.0,0.0,64.0
2088,61.0,0.0,390.0,0.0,64.0
2089,84.0,0.0,90.0,0.0,64.0
2090,70.0,0.0,390.0,0.0,64.0
2091,81.0,96.0,90.0,0.0,64.0
2092,82.0,96.0,90.0,0.0,64.0
2093,60.0,96.0,390.0,0.0,64.0
2094,84.0,96.0,90.0,0.0,64.0
2095,85.0,96.0,90.0,0.0,64.0
2096,69.0,0.0,180.0,0.0,64.0
2097,82.0,96.0,90.0,0.0,64.0
2098,84.0,0.0,90.0,0.0,64.0
2099,70.0,96.0,90.0,0.0,64.0
2100,85.0,96.0,180.0,0.0,64.0
2101,58.0,0.0,180.0,0.0,64.0
2102,72.0,0.0,90.0,0.0,64.0
2103,69.0,96.0,90.0,0.0,64.0
2104,84.0,0.0,90.0,0.0,64.0
2105,70.0,96.0,90.0,0.0,64.0
2106,82.0,0.0,90.0,0.0,64.0
2107,81.0,96.0,90.0,0.0,64.0
2108,72.0,0.0,90.0,0.0,64.0
2109,82.0,96.0,90.0,0.0,64.0
2110,73.0,0.0,90.0,0.0,64.0
2111,79.0,96.0,90.0,0.0,64.0
2112,70.0,0.0,90.0,0.0,64.0
2113,72.0,0.0,90.0,0.0,64.0
2114,81.0,96.0,90.0,0.0,64.0
2115,82.0,96.0,90.0,0.0,64.0
2116,73.0,288.0,390.0,0.0,64.0
2117,77.0,96.0,90.0,0.0,64.0
2118,85.0,96.0,90.0,0.0,64.0
2119,84.0,0.0,90.0,0.0,64.0
2120,82.0,96.0,300.0,0.0,64.0
2121,74.0,96.0,180.0,0.0,64.0
2122,80.0,0.0,90.0,0.0,64.0
2123,79.0,96.0,90.0,0.0,64.0
2124,75.0,192.0,180.0,0.0,64.0
2125,70.0,0.0,90.0,0.0,64.0
2126,75.0,288.0,180.0,0.0,64.0
2127,73.0,0.0,90.0,0.0,64.0
2128,72.0,96.0,300.0,0.0,64.0
2129,63.0,0.0,180.0,0.0,64.0
2130,70.0,96.0,90.0,0.0,64.0
2131,65.0,0.0,390.0,0.0,64.0
2132,68.0,96.0,90.0,0.0,64.0
2133,73.0,96.0,90.0,0.0,64.0
2134,77.0,96.0,90.0,0.0,64.0
2135,75.0,288.0,90.0,0.0,64.0
2136,73.0,96.0,300.0,0.0,64.0
2137,65.0,0.0,180.0,0.0,64.0
2138,72.0,96.0,90.0,0.0,64.0
2139,70.0,96.0,90.0,0.0,64.0
2140,67.0,288.0,390.0,0.0,64.0
2141,75.0,96.0,90.0,0.0,64.0
2142,79.0,96.0,90.0,0.0,64.0
2143,77.0,0.0,90.0,0.0,64.0
2144,75.0,96.0,300.0,0.0,64.0
2145,67.0,0.0,180.0,0.0,64.0
2146,73.0,192.0,90.0,0.0,64.0
2147,72.0,96.0,180.0,0.0,64.0
2148,68.0,0.0,180.0,0.0,64.0
2149,67.0,0.0,180.0,0.0,64.0
2150,68.0,0.0,15.0,0.0,64.0
2151,74.0,96.0,90.0,0.0,64.0
2152,75.0,0.0,90.0,0.0,64.0
2153,74.0,96.0,300.0,0.0,64.0
2154,68.0,192.0,15.0,0.0,64.0
2155,65.0,96.0,180.0,0.0,64.0
2156,68.0,0.0,15.0,0.0,64.0
2157,58.0,0.0,180.0,0.0,64.0
2158,75.0,0.0,90.0,0.0,64.0
2159,63.0,0.0,180.0,0.0,64.0
2160,67.0,192.0,180.0,0.0,64.0
2161,75.0,0.0,390.0,0.0,64.0
2162,67.0,0.0,180.0,0.0,64.0
2163,51.0,0.0,180.0,0.0,64.0
2164,55.0,192.0,180.0,0.0,64.0
2165,56.0,0.0,570.0,0.0,64.0
2166,63.0,192.0,15.0,0.0,64.0
2167,72.0,192.0,180.0,0.0,64.0
2168,80.0,0.0,390.0,0.0,64.0
2169,72.0,0.0,15.0,0.0,64.0
2170,56.0,192.0,180.0,0.0,64.0
2171,60.0,192.0,15.0,0.0,64.0
2172,65.0,0.0,390.0,0.0,64.0
2173,61.0,96.0,390.0,0.0,64.0
2174,68.0,192.0,15.0,0.0,64.0
2175,77.0,0.0,180.0,0.0,64.0
2176,60.0,0.0,390.0,0.0,64.0
2177,84.0,0.0,390.0,0.0,64.0
2178,75.0,96.0,90.0,0.0,64.0
2179,73.0,96.0,90.0,0.0,64.0
2180,67.0,0.0,90.0,0.0,64.0
2181,75.0,96.0,90.0,0.0,64.0
2182,68.0,96.0,90.0,0.0,64.0
2183,77.0,0.0,90.0,0.0,64.0
2184,58.0,192.0,390.0,0.0,64.0
2185,73.0,96.0,90.0,0.0,64.0
2186,77.0,0.0,180.0,0.0,64.0
2187,70.0,96.0,180.0,0.0,64.0
2188,72.0,0.0,90.0,0.0,64.0
2189,73.0,0.0,90.0,0.0,64.0
2190,82.0,0.0,180.0,0.0,64.0
2191,65.0,96.0,90.0,0.0,64.0
2192,67.0,0.0,90.0,0.0,64.0
2193,68.0,0.0,180.0,0.0,64.0
2194,75.0,0.0,15.0,0.0,64.0
2195,56.0,96.0,390.0,0.0,64.0
2196,72.0,192.0,15.0,0.0,64.0
2197,63.0,0.0,180.0,0.0,64.0
2198,60.0,96.0,180.0,0.0,64.0
2199,68.0,0.0,570.0,0.0,64.0
2200,72.0,0.0,90.0,0.0,64.0
2201,73.0,0.0,90.0,0.0,64.0
2202,70.0,0.0,90.0,0.0,64.0
2203,56.0,0.0,180.0,0.0,64.0
2204,72.0,96.0,90.0,0.0,64.0
2205,75.0,0.0,90.0,0.0,64.0
2206,77.0,0.0,90.0,0.0,64.0
2207,58.0,0.0,390.0,0.0,64.0
2208,73.0,192.0,15.0,0.0,64.0
2209,61.0,0.0,180.0,0.0,64.0
2210,70.0,192.0,15.0,0.0,64.0
2211,70.0,96.0,15.0,0.0,64.0
2212,63.0,0.0,180.0,0.0,64.0
2213,67.0,192.0,570.0,0.0,64.0
2214,68.0,0.0,90.0,0.0,64.0
2215,72.0,96.0,90.0,0.0,64.0
2216,73.0,96.0,90.0,0.0,64.0
2217,51.0,0.0,180.0,0.0,64.0
2218,70.0,0.0,90.0,0.0,64.0
2219,75.0,0.0,90.0,0.0,64.0
2220,56.0,96.0,390.0,0.0,64.0
2221,68.0,0.0,180.0,0.0,64.0
2222,72.0,192.0,15.0,0.0,64.0
2223,68.0,0.0,180.0,0.0,64.0
2224,60.0,0.0,180.0,0.0,64.0
2225,65.0,0.0,570.0,0.0,64.0
2226,68.0,0.0,90.0,0.0,64.0
2227,62.0,0.0,180.0,0.0,64.0
2228,67.0,96.0,90.0,0.0,64.0
2229,70.0,0.0,90.0,0.0,64.0
2230,72.0,0.0,90.0,0.0,64.0
2231,50.0,0.0,180.0,0.0,64.0
2232,68.0,96.0,90.0,0.0,64.0
2233,70.0,0.0,90.0,0.0,64.0
2234,73.0,192.0,90.0,0.0,64.0
2235,55.0,0.0,390.0,0.0,64.0
2236,70.0,0.0,480.0,0.0,64.0
2237,58.0,0.0,180.0,0.0,64.0
2238,67.0,192.0,15.0,0.0,64.0
2239,67.0,96.0,15.0,0.0,64.0
2240,63.0,0.0,570.0,0.0,64.0
2241,60.0,96.0,180.0,0.0,64.0
2242,68.0,0.0,90.0,0.0,64.0
2243,65.0,0.0,90.0,0.0,64.0
2244,70.0,96.0,90.0,0.0,64.0
2245,67.0,0.0,90.0,0.0,64.0
2246,48.0,192.0,180.0,0.0,64.0
2247,72.0,0.0,90.0,0.0,64.0
2248,68.0,0.0,90.0,0.0,64.0
2249,68.0,0.0,480.0,0.0,64.0
2250,53.0,0.0,390.0,0.0,64.0
2251,65.0,96.0,15.0,0.0,64.0
2252,65.0,96.0,90.0,0.0,64.0
2253,63.0,0.0,90.0,0.0,64.0
2254,62.0,96.0,300.0,0.0,64.0
2255,65.0,96.0,90.0,0.0,64.0
2256,58.0,0.0,180.0,0.0,64.0
2257,67.0,0.0,90.0,0.0,64.0
2258,63.0,96.0,90.0,0.0,64.0
2259,46.0,96.0,180.0,0.0,64.0
2260,65.0,0.0,90.0,0.0,64.0
2261,68.0,0.0,90.0,0.0,64.0
2262,67.0,0.0,90.0,0.0,64.0
2263,70.0,0.0,90.0,0.0,64.0
2264,63.0,0.0,15.0,0.0,64.0
2265,67.0,0.0,390.0,0.0,64.0
2266,51.0,96.0,90.0,0.0,64.0
2267,63.0,0.0,390.0,0.0,64.0
2268,58.0,96.0,90.0,0.0,64.0
2269,55.0,96.0,90.0,0.0,64.0
2270,58.0,192.0,90.0,0.0,64.0
2271,48.0,0.0,390.0,0.0,64.0
2272,72.0,0.0,90.0,0.0,64.0
2273,80.0,96.0,90.0,0.0,64.0
2274,70.0,96.0,90.0,0.0,64.0
2275,79.0,0.0,90.0,0.0,64.0
2276,80.0,96.0,90.0,0.0,64.0
2277,72.0,0.0,90.0,0.0,64.0
2278,68.0,192.0,390.0,0.0,64.0
2279,77.0,0.0,390.0,0.0,64.0
2280,49.0,96.0,90.0,0.0,64.0
2281,56.0,96.0,90.0,0.0,64.0
2282,53.0,96.0,90.0,0.0,64.0
2283,56.0,0.0,90.0,0.0,64.0
2284,46.0,96.0,390.0,0.0,64.0
2285,70.0,96.0,90.0,0.0,64.0
2286,79.0,0.0,90.0,0.0,64.0
2287,68.0,0.0,90.0,0.0,64.0
2288,77.0,96.0,90.0,0.0,64.0
2289,79.0,0.0,90.0,0.0,64.0
2290,70.0,0.0,90.0,0.0,64.0
2291,48.0,96.0,90.0,0.0,64.0
2292,75.0,0.0,390.0,0.0,64.0
2293,67.0,0.0,390.0,0.0,64.0
2294,55.0,96.0,90.0,0.0,64.0
2295,51.0,96.0,90.0,0.0,64.0
2296,55.0,192.0,90.0,0.0,64.0
2297,44.0,96.0,390.0,0.0,64.0
2298,77.0,0.0,90.0,0.0,64.0
2299,68.0,96.0,90.0,0.0,64.0
2300,75.0,0.0,90.0,0.0,64.0
2301,67.0,96.0,90.0,0.0,64.0
2302,68.0,0.0,90.0,0.0,64.0
2303,77.0,0.0,90.0,0.0,64.0
2304,74.0,96.0,90.0,0.0,64.0
2305,65.0,0.0,90.0,0.0,64.0
2306,46.0,0.0,180.0,0.0,64.0
2307,79.0,96.0,90.0,0.0,64.0
2308,70.0,0.0,90.0,0.0,64.0
2309,58.0,0.0,180.0,0.0,64.0
2310,77.0,96.0,90.0,0.0,64.0
2311,68.0,0.0,90.0,0.0,64.0
2312,79.0,0.0,90.0,0.0,64.0
2313,70.0,96.0,90.0,0.0,64.0
2314,67.0,0.0,90.0,0.0,64.0
2315,60.0,0.0,180.0,0.0,64.0
2316,76.0,96.0,90.0,0.0,64.0
2317,72.0,96.0,90.0,0.0,64.0
2318,80.0,0.0,90.0,0.0,64.0
2319,70.0,0.0,90.0,0.0,64.0
2320,48.0,0.0,180.0,0.0,64.0
2321,79.0,96.0,90.0,0.0,64.0
2322,72.0,0.0,90.0,0.0,64.0
2323,80.0,96.0,90.0,0.0,64.0
2324,68.0,96.0,90.0,0.0,64.0
2325,77.0,0.0,90.0,0.0,64.0
2326,49.0,96.0,180.0,0.0,64.0
2327,73.0,0.0,90.0,0.0,64.0
2328,82.0,0.0,90.0,0.0,64.0
2329,72.0,0.0,90.0,0.0,64.0
2330,80.0,96.0,90.0,0.0,64.0
2331,61.0,0.0,180.0,0.0,64.0
2332,82.0,0.0,90.0,0.0,64.0
2333,73.0,96.0,90.0,0.0,64.0
2334,79.0,96.0,90.0,0.0,64.0
2335,63.0,0.0,180.0,0.0,64.0
2336,70.0,0.0,90.0,0.0,64.0
2337,75.0,96.0,90.0,0.0,64.0
2338,84.0,0.0,90.0,0.0,64.0
2339,51.0,192.0,180.0,0.0,64.0
2340,73.0,96.0,90.0,0.0,64.0
2341,82.0,0.0,90.0,0.0,64.0
2342,84.0,0.0,90.0,0.0,64.0
2343,75.0,0.0,90.0,0.0,64.0
2344,72.0,0.0,180.0,0.0,64.0
2345,80.0,96.0,180.0,0.0,64.0
2346,53.0,0.0,180.0,0.0,64.0
2347,58.0,48.0,180.0,0.0,64.0
2348,70.0,96.0,90.0,0.0,64.0
2349,79.0,0.0,90.0,0.0,64.0
2350,68.0,0.0,90.0,0.0,64.0
2351,77.0,0.0,90.0,0.0,64.0
2352,77.0,48.0,40.0,0.0,64.0
2353,67.0,0.0,300.0,0.0,64.0
2354,60.0,0.0,180.0,0.0,64.0
2355,76.0,48.0,40.0,0.0,64.0
2356,77.0,48.0,40.0,0.0,64.0
2357,76.0,48.0,40.0,0.0,64.0
2358,48.0,0.0,180.0,0.0,64.0
2359,77.0,48.0,40.0,0.0,64.0
2360,76.0,96.0,40.0,0.0,64.0
2361,68.0,0.0,15.0,0.0,64.0
2362,77.0,192.0,15.0,0.0,64.0
2363,53.0,0.0,390.0,0.0,64.0
2364,60.0,0.0,15.0,0.0,64.0
2365,72.0,96.0,90.0,0.0,64.0
2366,68.0,0.0,15.0,0.0,64.0
2367,73.0,192.0,90.0,0.0,64.0
2368,60.0,0.0,15.0,0.0,64.0
2369,67.0,0.0,180.0,0.0,64.0
2370,52.0,0.0,180.0,0.0,64.0
2371,60.0,192.0,15.0,0.0,64.0
2372,64.0,0.0,180.0,0.0,64.0
2373,48.0,0.0,180.0,0.0,64.0
2374,65.0,0.0,180.0,0.0,64.0
2375,56.0,96.0,15.0,0.0,64.0
2376,77.0,96.0,90.0,0.0,64.0
2377,72.0,0.0,15.0,0.0,64.0
2378,79.0,0.0,90.0,0.0,64.0
2379,53.0,0.0,15.0,0.0,64.0
2380,77.0,96.0,390.0,0.0,64.0
2381,80.0,96.0,480.0,0.0,64.0
2382,53.0,192.0,15.0,0.0,64.0
2383,82.0,0.0,90.0,0.0,64.0
2384,65.0,192.0,180.0,0.0,64.0
2385,84.0,96.0,90.0,0.0,64.0
2386,61.0,96.0,15.0,0.0,64.0
2387,85.0,0.0,90.0,0.0,64.0
2388,76.0,0.0,180.0,0.0,64.0
2389,72.0,0.0,390.0,0.0,64.0
2390,77.0,96.0,90.0,0.0,64.0
2391,60.0,96.0,15.0,0.0,64.0
2392,79.0,0.0,90.0,0.0,64.0
2393,65.0,96.0,90.0,0.0,64.0
2394,80.0,0.0,390.0,0.0,64.0
2395,63.0,96.0,90.0,0.0,64.0
2396,65.0,0.0,90.0,0.0,64.0
2397,68.0,96.0,90.0,0.0,64.0
2398,67.0,0.0,90.0,0.0,64.0
2399,70.0,96.0,90.0,0.0,64.0
2400,63.0,96.0,90.0,0.0,64.0
2401,72.0,0.0,180.0,0.0,64.0
2402,79.0,0.0,390.0,0.0,64.0
2403,61.0,96.0,90.0,0.0,64.0
2404,67.0,0.0,90.0,0.0,64.0
2405,63.0,96.0,90.0,0.0,64.0
2406,68.0,0.0,90.0,0.0,64.0
2407,65.0,192.0,90.0,0.0,64.0
2408,61.0,192.0,180.0,0.0,64.0
2409,70.0,0.0,180.0,0.0,64.0
2410,77.0,0.0,570.0,0.0,64.0
2411,65.0,0.0,180.0,0.0,64.0
2412,70.0,192.0,570.0,0.0,64.0
2413,61.0,96.0,15.0,0.0,64.0
2414,60.0,96.0,90.0,0.0,64.0
2415,77.0,0.0,180.0,0.0,64.0
2416,61.0,96.0,90.0,0.0,64.0
2417,63.0,192.0,90.0,0.0,64.0
2418,75.0,0.0,480.0,0.0,64.0
2419,60.0,0.0,180.0,0.0,64.0
2420,63.0,0.0,180.0,0.0,64.0
2421,60.0,96.0,15.0,0.0,64.0
2422,68.0,0.0,570.0,0.0,64.0
2423,73.0,96.0,90.0,0.0,64.0
2424,58.0,0.0,90.0,0.0,64.0
2425,60.0,0.0,90.0,0.0,64.0
2426,75.0,96.0,90.0,0.0,64.0
2427,77.0,0.0,90.0,0.0,64.0
2428,61.0,192.0,90.0,0.0,64.0
2429,73.0,96.0,480.0,0.0,64.0
2430,61.0,96.0,180.0,0.0,64.0
2431,58.0,192.0,15.0,0.0,64.0
2432,58.0,0.0,15.0,0.0,64.0
2433,67.0,192.0,570.0,0.0,64.0
2434,56.0,0.0,90.0,0.0,64.0
2435,72.0,96.0,90.0,0.0,64.0
2436,58.0,96.0,90.0,0.0,64.0
2437,73.0,0.0,90.0,0.0,64.0
2438,60.0,0.0,90.0,0.0,64.0
2439,75.0,192.0,90.0,0.0,64.0
2440,72.0,0.0,480.0,0.0,64.0
2441,60.0,0.0,180.0,0.0,64.0
2442,56.0,0.0,15.0,0.0,64.0
2443,65.0,96.0,570.0,0.0,64.0
2444,56.0,96.0,15.0,0.0,64.0
2445,70.0,0.0,90.0,0.0,64.0
2446,55.0,96.0,90.0,0.0,64.0
2447,56.0,0.0,90.0,0.0,64.0
2448,72.0,96.0,90.0,0.0,64.0
2449,73.0,192.0,90.0,0.0,64.0
2450,58.0,0.0,90.0,0.0,64.0
2451,55.0,0.0,180.0,0.0,64.0
2452,70.0,96.0,480.0,0.0,64.0
2453,67.0,96.0,90.0,0.0,64.0
2454,65.0,96.0,90.0,0.0,64.0
2455,55.0,0.0,15.0,0.0,64.0
2456,64.0,0.0,390.0,0.0,64.0
2457,53.0,96.0,90.0,0.0,64.0
2458,68.0,0.0,90.0,0.0,64.0
2459,55.0,0.0,90.0,0.0,64.0
2460,70.0,96.0,90.0,0.0,64.0
2461,56.0,192.0,90.0,0.0,64.0
2462,72.0,0.0,90.0,0.0,64.0
2463,53.0,0.0,390.0,0.0,64.0
2464,65.0,96.0,180.0,0.0,64.0
2465,68.0,0.0,15.0,0.0,64.0
2466,77.0,0.0,90.0,0.0,64.0
2467,70.0,0.0,90.0,0.0,64.0
2468,79.0,288.0,90.0,0.0,64.0
2469,72.0,288.0,390.0,0.0,64.0
2470,80.0,0.0,390.0,0.0,64.0
2471,65.0,96.0,90.0,0.0,64.0
2472,67.0,0.0,90.0,0.0,64.0
2473,68.0,0.0,390.0,0.0,64.0
2474,72.0,0.0,180.0,0.0,64.0
2475,77.0,96.0,90.0,0.0,64.0
2476,79.0,192.0,90.0,0.0,64.0
2477,77.0,96.0,180.0,0.0,64.0
2478,80.0,0.0,180.0,0.0,64.0
2479,79.0,96.0,90.0,0.0,64.0
2480,73.0,0.0,180.0,0.0,64.0
2481,70.0,0.0,180.0,0.0,64.0
2482,77.0,192.0,90.0,0.0,64.0
2483,72.0,96.0,180.0,0.0,64.0
2484,70.0,0.0,180.0,0.0,64.0
2485,76.0,96.0,15.0,0.0,64.0
2486,77.0,96.0,90.0,0.0,64.0
2487,69.0,0.0,180.0,0.0,64.0
2488,78.0,96.0,90.0,0.0,64.0
2489,75.0,96.0,90.0,0.0,64.0
2490,65.0,192.0,180.0,0.0,64.0
2491,77.0,0.0,90.0,0.0,64.0
2492,74.0,96.0,300.0,0.0,64.0
2493,70.0,96.0,180.0,0.0,64.0
2494,68.0,96.0,180.0,0.0,64.0
2495,74.0,0.0,90.0,0.0,64.0
2496,75.0,96.0,90.0,0.0,64.0
2497,67.0,0.0,180.0,0.0,64.0
2498,77.0,96.0,90.0,0.0,64.0
2499,63.0,0.0,180.0,0.0,64.0
2500,73.0,96.0,90.0,0.0,64.0
2501,75.0,0.0,90.0,0.0,64.0
2502,72.0,96.0,90.0,0.0,64.0
2503,68.0,0.0,180.0,0.0,64.0
2504,80.0,96.0,90.0,0.0,64.0
2505,63.0,192.0,180.0,0.0,64.0
2506,79.0,96.0,90.0,0.0,64.0
2507,77.0,0.0,90.0,0.0,64.0
2508,70.0,0.0,180.0,0.0,64.0
2509,77.0,96.0,300.0,0.0,64.0
2510,58.0,0.0,180.0,0.0,64.0
2511,68.0,0.0,180.0,0.0,64.0
2512,60.0,96.0,570.0,0.0,64.0
2513,75.0,96.0,15.0,0.0,64.0
2514,67.0,96.0,90.0,0.0,64.0
2515,63.0,96.0,90.0,0.0,64.0
2516,65.0,96.0,90.0,0.0,64.0
2517,67.0,96.0,90.0,0.0,64.0
2518,68.0,96.0,960.0,0.0,64.0
2519,75.0,96.0,15.0,0.0,64.0
2520,80.0,96.0,90.0,0.0,64.0
2521,56.0,96.0,180.0,0.0,64.0
2522,79.0,0.0,90.0,0.0,64.0
2523,77.0,96.0,90.0,0.0,64.0
2524,61.0,0.0,180.0,0.0,64.0
2525,75.0,96.0,90.0,0.0,64.0
2526,77.0,96.0,90.0,0.0,64.0
2527,63.0,0.0,180.0,0.0,64.0
2528,79.0,96.0,90.0,0.0,64.0
2529,65.0,0.0,180.0,0.0,64.0
2530,80.0,96.0,90.0,0.0,64.0
2531,79.0,0.0,90.0,0.0,64.0
2532,73.0,96.0,300.0,0.0,64.0
2533,80.0,96.0,90.0,0.0,64.0
2534,61.0,96.0,180.0,0.0,64.0
2535,82.0,0.0,90.0,0.0,64.0
2536,63.0,0.0,570.0,0.0,64.0
2537,79.0,0.0,300.0,0.0,64.0
2538,70.0,96.0,90.0,0.0,64.0
2539,75.0,96.0,90.0,0.0,64.0
2540,77.0,0.0,90.0,0.0,64.0
2541,73.0,96.0,90.0,0.0,64.0
2542,72.0,96.0,180.0,0.0,64.0
2543,75.0,96.0,90.0,0.0,64.0
2544,77.0,0.0,90.0,0.0,64.0
2545,73.0,96.0,90.0,0.0,64.0
2546,70.0,0.0,180.0,0.0,64.0
2547,63.0,0.0,180.0,0.0,64.0
2548,75.0,96.0,90.0,0.0,64.0
2549,68.0,96.0,180.0,0.0,64.0
2550,72.0,96.0,90.0,0.0,64.0
2551,73.0,0.0,90.0,0.0,64.0
2552,67.0,0.0,180.0,0.0,64.0
2553,75.0,96.0,90.0,0.0,64.0
2554,77.0,192.0,90.0,0.0,64.0
2555,73.0,96.0,300.0,0.0,64.0
2556,65.0,96.0,180.0,0.0,64.0
2557,63.0,96.0,180.0,0.0,64.0
2558,72.0,0.0,90.0,0.0,64.0
2559,72.0,96.0,90.0,0.0,64.0
2560,61.0,96.0,180.0,0.0,64.0
2561,70.0,0.0,90.0,0.0,64.0
2562,62.0,0.0,180.0,0.0,64.0
2563,77.0,96.0,90.0,0.0,64.0
2564,63.0,96.0,180.0,0.0,64.0
2565,70.0,192.0,15.0,0.0,64.0
2566,67.0,0.0,180.0,0.0,64.0
2567,51.0,96.0,180.0,0.0,64.0
2568,68.0,0.0,90.0,0.0,64.0
2569,68.0,0.0,180.0,0.0,64.0
2570,56.0,96.0,90.0,0.0,64.0
2571,58.0,0.0,90.0,0.0,64.0
2572,67.0,96.0,90.0,0.0,64.0
2573,60.0,96.0,90.0,0.0,64.0
2574,56.0,0.0,15.0,0.0,64.0
2575,68.0,0.0,180.0,0.0,64.0
2576,61.0,96.0,90.0,0.0,64.0
2577,70.0,0.0,90.0,0.0,64.0
2578,72.0,96.0,90.0,0.0,64.0
2579,56.0,0.0,15.0,0.0,64.0
2580,63.0,0.0,90.0,0.0,64.0
2581,61.0,96.0,90.0,0.0,64.0
2582,70.0,0.0,90.0,0.0,64.0
2583,56.0,0.0,15.0,0.0,64.0
2584,72.0,96.0,90.0,0.0,64.0
2585,63.0,0.0,90.0,0.0,64.0
2586,65.0,0.0,90.0,0.0,64.0
2587,73.0,0.0,90.0,0.0,64.0
2588,75.0,0.0,300.0,0.0,64.0
2589,55.0,96.0,180.0,0.0,64.0
2590,67.0,96.0,300.0,0.0,64.0
2591,70.0,0.0,180.0,0.0,64.0
2592,55.0,96.0,180.0,0.0,64.0
2593,77.0,0.0,90.0,0.0,64.0
2594,68.0,0.0,90.0,0.0,64.0
2595,79.0,96.0,90.0,0.0,64.0
2596,75.0,96.0,390.0,0.0,64.0
2597,51.0,0.0,180.0,0.0,64.0
2598,70.0,0.0,90.0,0.0,64.0
2599,80.0,96.0,90.0,0.0,64.0
2600,72.0,0.0,90.0,0.0,64.0
2601,77.0,96.0,90.0,0.0,64.0
2602,51.0,0.0,180.0,0.0,64.0
2603,68.0,0.0,90.0,0.0,64.0
2604,79.0,0.0,90.0,0.0,64.0
2605,70.0,0.0,90.0,0.0,64.0
2606,60.0,0.0,180.0,0.0,64.0
2607,72.0,96.0,90.0,0.0,64.0
2608,80.0,0.0,90.0,0.0,64.0
2609,82.0,0.0,90.0,0.0,64.0
2610,73.0,96.0,90.0,0.0,64.0
2611,75.0,0.0,180.0,0.0,64.0
2612,60.0,96.0,180.0,0.0,64.0
2613,80.0,0.0,90.0,0.0,64.0
2614,72.0,96.0,90.0,0.0,64.0
2615,82.0,0.0,90.0,0.0,64.0
2616,73.0,0.0,90.0,0.0,64.0
2617,56.0,0.0,180.0,0.0,64.0
2618,80.0,96.0,570.0,0.0,64.0
2619,75.0,0.0,90.0,0.0,64.0
2620,84.0,96.0,90.0,0.0,64.0
2621,73.0,96.0,90.0,0.0,64.0
2622,85.0,0.0,90.0,0.0,64.0
2623,87.0,0.0,390.0,0.0,64.0
2624,56.0,0.0,180.0,0.0,64.0
2625,72.0,96.0,90.0,0.0,64.0
2626,73.0,96.0,90.0,0.0,64.0
2627,63.0,96.0,90.0,0.0,64.0
2628,70.0,0.0,390.0,0.0,64.0
2629,65.0,0.0,90.0,0.0,64.0
2630,79.0,0.0,90.0,0.0,64.0
2631,82.0,0.0,180.0,0.0,64.0
2632,63.0,96.0,90.0,0.0,64.0
2633,80.0,96.0,90.0,0.0,64.0
2634,65.0,0.0,90.0,0.0,64.0
2635,82.0,0.0,390.0,0.0,64.0
2636,61.0,96.0,90.0,0.0,64.0
2637,65.0,0.0,390.0,0.0,64.0
2638,63.0,96.0,90.0,0.0,64.0
2639,61.0,0.0,90.0,0.0,64.0
2640,77.0,96.0,90.0,0.0,64.0
2641,79.0,0.0,90.0,0.0,64.0
2642,80.0,96.0,480.0,0.0,64.0
2643,63.0,192.0,15.0,0.0,64.0
2644,75.0,0.0,180.0,0.0,64.0
2645,60.0,192.0,15.0,0.0,64.0
2646,60.0,0.0,90.0,0.0,64.0
2647,61.0,96.0,90.0,0.0,64.0
2648,80.0,192.0,480.0,0.0,64.0
2649,60.0,96.0,90.0,0.0,64.0
2650,82.0,0.0,90.0,0.0,64.0
2651,72.0,192.0,180.0,0.0,64.0
2652,84.0,0.0,90.0,0.0,64.0
2653,61.0,0.0,90.0,0.0,64.0
2654,58.0,0.0,180.0,0.0,64.0
2655,65.0,0.0,390.0,0.0,64.0
2656,85.0,0.0,480.0,0.0,64.0
2657,73.0,0.0,180.0,0.0,64.0
2658,58.0,96.0,15.0,0.0,64.0
2659,79.0,0.0,570.0,0.0,64.0
2660,60.0,0.0,90.0,0.0,64.0
2661,85.0,96.0,90.0,0.0,64.0
2662,70.0,192.0,180.0,0.0,64.0
2663,84.0,0.0,90.0,0.0,64.0
2664,58.0,96.0,90.0,0.0,64.0
2665,82.0,0.0,90.0,0.0,64.0
2666,60.0,0.0,90.0,0.0,64.0
2667,63.0,0.0,390.0,0.0,64.0
2668,56.0,192.0,180.0,0.0,64.0
2669,72.0,0.0,180.0,0.0,64.0
2670,56.0,96.0,15.0,0.0,64.0
2671,77.0,0.0,570.0,0.0,64.0
2672,84.0,96.0,15.0,0.0,64.0
2673,58.0,0.0,90.0,0.0,64.0
2674,56.0,0.0,90.0,0.0,64.0
2675,68.0,192.0,180.0,0.0,64.0
2676,82.0,96.0,90.0,0.0,64.0
2677,58.0,0.0,90.0,0.0,64.0
2678,80.0,0.0,90.0,0.0,64.0
2679,82.0,0.0,480.0,0.0,64.0
2680,55.0,192.0,180.0,0.0,64.0
2681,62.0,96.0,390.0,0.0,64.0
2682,70.0,0.0,180.0,0.0,64.0
2683,55.0,0.0,180.0,0.0,64.0
2684,55.0,96.0,90.0,0.0,64.0
2685,75.0,0.0,780.0,0.0,64.0
2686,56.0,96.0,90.0,0.0,64.0
2687,82.0,0.0,90.0,0.0,64.0
2688,67.0,96.0,180.0,0.0,64.0
2689,80.0,96.0,90.0,0.0,64.0
2690,55.0,0.0,90.0,0.0,64.0
2691,56.0,0.0,90.0,0.0,64.0
2692,79.0,0.0,90.0,0.0,64.0
2693,60.0,0.0,390.0,0.0,64.0
2694,53.0,96.0,390.0,0.0,64.0
2695,80.0,96.0,15.0,0.0,64.0
2696,82.0,96.0,90.0,0.0,64.0
2697,84.0,0.0,90.0,0.0,64.0
2698,85.0,96.0,90.0,0.0,64.0
2699,77.0,96.0,90.0,0.0,64.0
2700,61.0,96.0,180.0,0.0,64.0
2701,58.0,0.0,180.0,0.0,64.0
2702,73.0,0.0,390.0,0.0,64.0
2703,79.0,96.0,90.0,0.0,64.0
2704,80.0,0.0,90.0,0.0,64.0
2705,79.0,96.0,90.0,0.0,64.0
2706,51.0,1536.0,780.0,0.0,64.0
2707,75.0,96.0,90.0,0.0,64.0
2708,80.0,96.0,90.0,0.0,64.0
2709,72.0,0.0,90.0,0.0,64.0
2710,73.0,0.0,90.0,0.0,64.0
2711,82.0,48.0,90.0,0.0,64.0
2712,72.0,0.0,40.0,0.0,64.0
2713,80.0,48.0,40.0,0.0,64.0
2714,79.0,0.0,40.0,0.0,64.0
2715,70.0,48.0,40.0,0.0,64.0
2716,80.0,48.0,40.0,0.0,64.0
2717,72.0,0.0,40.0,0.0,64.0
2718,79.0,48.0,40.0,0.0,64.0
2719,70.0,0.0,40.0,0.0,64.0
2720,72.0,48.0,40.0,0.0,64.0
2721,80.0,0.0,40.0,0.0,64.0
2722,70.0,0.0,40.0,0.0,64.0
2723,79.0,96.0,40.0,0.0,64.0
2724,72.0,0.0,90.0,0.0,64.0
2725,80.0,0.0,90.0,0.0,64.0
2726,68.0,0.0,1530.0,0.0,64.0
2727,72.0,1728.0,1530.0,0.0,64.0
2728,80.0,0.0,1530.0,0.0,64.0
2729,44.0,0.0,1530.0,0.0,64.0
2730,63.0,0.0,15.0,0.0,64.0
2731,56.0,0.0,1530.0,0.0,64.0
2732,63.0,96.0,90.0,0.0,64.0
2733,65.0,96.0,90.0,0.0,64.0
2734,67.0,96.0,90.0,0.0,64.0
2735,68.0,96.0,90.0,0.0,64.0
2736,70.0,96.0,90.0,0.0,92.0
2737,72.0,96.0,90.0,0.0,92.0
2738,73.0,96.0,90.0,0.0,92.0
2739,72.0,96.0,90.0,0.0,92.0
2740,68.0,96.0,90.0,0.0,92.0
2741,70.0,96.0,90.0,0.0,92.0
2742,72.0,96.0,90.0,0.0,92.0
2743,73.0,96.0,90.0,0.0,92.0
2744,75.0,96.0,90.0,0.0,92.0
2745,77.0,96.0,90.0,0.0,92.0
2746,79.0,96.0,90.0,0.0,92.0
2747,80.0,96.0,90.0,0.0,92.0
2748,72.0,96.0,90.0,0.0,92.0
2749,73.0,96.0,90.0,0.0,92.0
2750,75.0,96.0,90.0,0.0,92.0
2751,77.0,96.0,90.0,0.0,92.0
2752,79.0,96.0,90.0,0.0,92.0
2753,80.0,96.0,90.0,0.0,92.0
2754,82.0,96.0,90.0,0.0,92.0
2755,84.0,96.0,90.0,0.0,92.0
2756,75.0,96.0,90.0,0.0,92.0
2757,77.0,96.0,90.0,0.0,92.0
2758,79.0,96.0,90.0,0.0,92.0
2759,80.0,96.0,90.0,0.0,92.0
2760,82.0,96.0,90.0,0.0,92.0
2761,84.0,96.0,90.0,0.0,92.0
2762,85.0,384.0,90.0,0.0,92.0
2763,84.0,144.0,390.0,0.0,92.0
2764,80.0,0.0,390.0,0.0,92.0
2765,75.0,0.0,390.0,0.0,92.0
2766,48.0,0.0,390.0,0.0,64.0
2767,87.0,0.0,390.0,0.0,92.0
2768,68.0,0.0,390.0,0.0,64.0
2769,87.0,48.0,40.0,0.0,92.0
2770,85.0,48.0,40.0,0.0,92.0
2771,84.0,48.0,40.0,0.0,92.0
2772,82.0,48.0,40.0,0.0,92.0
2773,80.0,48.0,40.0,0.0,92.0
2774,78.0,192.0,40.0,0.0,92.0
2775,77.0,0.0,390.0,0.0,92.0
2776,73.0,0.0,390.0,0.0,92.0
2777,68.0,96.0,390.0,0.0,92.0
2778,49.0,0.0,390.0,0.0,64.0
2779,56.0,96.0,90.0,0.0,102.0
2780,58.0,96.0,90.0,0.0,102.0
2781,60.0,0.0,90.0,0.0,102.0
2782,61.0,96.0,90.0,0.0,102.0
2783,63.0,96.0,90.0,0.0,102.0
2784,65.0,96.0,90.0,0.0,102.0
2785,66.0,96.0,90.0,0.0,102.0
2786,65.0,96.0,90.0,0.0,102.0
2787,61.0,96.0,90.0,0.0,102.0
2788,63.0,96.0,90.0,0.0,102.0
2789,65.0,96.0,90.0,0.0,102.0
2790,66.0,96.0,90.0,0.0,64.0
2791,68.0,96.0,90.0,0.0,92.0
2792,70.0,96.0,90.0,0.0,92.0
2793,72.0,96.0,90.0,0.0,92.0
2794,73.0,96.0,90.0,0.0,92.0
2795,65.0,96.0,90.0,0.0,64.0
2796,66.0,96.0,90.0,0.0,64.0
2797,68.0,96.0,90.0,0.0,64.0
2798,70.0,96.0,90.0,0.0,92.0
2799,72.0,96.0,90.0,0.0,92.0
2800,73.0,96.0,90.0,0.0,92.0
2801,75.0,96.0,90.0,0.0,92.0
2802,77.0,96.0,90.0,0.0,92.0
2803,68.0,96.0,90.0,0.0,92.0
2804,70.0,96.0,90.0,0.0,92.0
2805,72.0,96.0,90.0,0.0,92.0
2806,73.0,96.0,90.0,0.0,92.0
2807,75.0,96.0,90.0,0.0,92.0
2808,77.0,96.0,90.0,0.0,92.0
2809,78.0,336.0,90.0,0.0,92.0
2810,68.0,0.0,390.0,0.0,92.0
2811,73.0,0.0,390.0,0.0,92.0
2812,77.0,0.0,390.0,0.0,92.0
2813,80.0,144.0,390.0,0.0,92.0
2814,65.0,48.0,150.0,0.0,112.0
2815,53.0,0.0,15.0,0.0,112.0
2816,80.0,48.0,40.0,0.0,92.0
2817,79.0,48.0,40.0,0.0,92.0
2818,77.0,48.0,40.0,0.0,92.0
2819,75.0,48.0,40.0,0.0,92.0
2820,73.0,48.0,40.0,0.0,92.0
2821,72.0,336.0,40.0,0.0,92.0
2822,75.0,0.0,390.0,0.0,92.0
2823,79.0,0.0,390.0,0.0,92.0
2824,82.0,0.0,390.0,0.0,92.0
2825,70.0,144.0,390.0,0.0,92.0
2826,55.0,48.0,150.0,0.0,112.0
2827,43.0,0.0,40.0,0.0,112.0
2828,43.0,0.0,390.0,0.0,112.0
2829,82.0,48.0,40.0,0.0,92.0
2830,80.0,48.0,40.0,0.0,92.0
2831,79.0,48.0,40.0,0.0,92.0
2832,77.0,48.0,40.0,0.0,92.0
2833,75.0,48.0,40.0,0.0,92.0
2834,73.0,336.0,40.0,0.0,92.0
2835,84.0,0.0,390.0,0.0,92.0
2836,80.0,96.0,390.0,0.0,92.0
2837,75.0,0.0,390.0,0.0,92.0
2838,72.0,0.0,390.0,0.0,92.0
2839,56.0,48.0,150.0,0.0,112.0
2840,44.0,0.0,15.0,0.0,112.0
2841,87.0,48.0,40.0,0.0,92.0
2842,85.0,48.0,40.0,0.0,92.0
2843,84.0,48.0,40.0,0.0,92.0
2844,82.0,48.0,40.0,0.0,92.0
2845,80.0,48.0,40.0,0.0,92.0
2846,79.0,48.0,40.0,0.0,92.0
2847,77.0,0.0,40.0,0.0,92.0
2848,75.0,0.0,390.0,0.0,92.0
2849,84.0,0.0,390.0,0.0,92.0
2850,80.0,0.0,390.0,0.0,92.0
2851,87.0,96.0,390.0,0.0,92.0
2852,60.0,48.0,150.0,0.0,112.0
2853,48.0,0.0,40.0,0.0,112.0
2854,48.0,96.0,390.0,0.0,112.0
2855,68.0,48.0,40.0,0.0,92.0
2856,70.0,48.0,40.0,0.0,92.0
2857,72.0,48.0,40.0,0.0,92.0
2858,73.0,48.0,40.0,0.0,92.0
2859,75.0,48.0,40.0,0.0,92.0
2860,77.0,48.0,40.0,0.0,92.0
2861,78.0,0.0,40.0,0.0,92.0
2862,77.0,0.0,390.0,0.0,92.0
2863,80.0,0.0,390.0,0.0,92.0
2864,85.0,0.0,390.0,0.0,92.0
2865,49.0,48.0,390.0,0.0,112.0
2866,61.0,48.0,40.0,0.0,102.0
2867,63.0,48.0,40.0,0.0,102.0
2868,65.0,48.0,40.0,0.0,102.0
2869,66.0,48.0,40.0,0.0,102.0
2870,68.0,48.0,40.0,0.0,92.0
2871,70.0,48.0,40.0,0.0,92.0
2872,72.0,0.0,40.0,0.0,92.0
2873,73.0,48.0,40.0,0.0,92.0
2874,75.0,48.0,40.0,0.0,92.0
2875,77.0,48.0,40.0,0.0,92.0
2876,78.0,48.0,40.0,0.0,92.0
2877,80.0,48.0,40.0,0.0,92.0
2878,82.0,48.0,40.0,0.0,92.0
2879,84.0,48.0,40.0,0.0,92.0
2880,85.0,336.0,40.0,0.0,92.0
2881,70.0,0.0,390.0,0.0,92.0
2882,75.0,0.0,390.0,0.0,92.0
2883,79.0,96.0,390.0,0.0,92.0
2884,63.0,0.0,390.0,0.0,102.0
2885,61.0,48.0,150.0,0.0,112.0
2886,49.0,0.0,40.0,0.0,112.0
2887,49.0,0.0,390.0,0.0,112.0
2888,87.0,48.0,40.0,0.0,92.0
2889,85.0,48.0,40.0,0.0,92.0
2890,84.0,48.0,40.0,0.0,92.0
2891,82.0,48.0,40.0,0.0,92.0
2892,80.0,48.0,40.0,0.0,92.0
2893,79.0,48.0,40.0,0.0,92.0
2894,77.0,48.0,40.0,0.0,92.0
2895,79.0,48.0,40.0,0.0,92.0
2896,75.0,48.0,40.0,0.0,92.0
2897,77.0,48.0,40.0,0.0,92.0
2898,79.0,48.0,40.0,0.0,92.0
2899,80.0,48.0,40.0,0.0,92.0
2900,82.0,48.0,40.0,0.0,92.0
2901,84.0,48.0,40.0,0.0,92.0
2902,79.0,48.0,40.0,0.0,92.0
2903,80.0,48.0,40.0,0.0,92.0
2904,82.0,48.0,40.0,0.0,92.0
2905,84.0,48.0,40.0,0.0,92.0
2906,85.0,48.0,40.0,0.0,92.0
2907,87.0,48.0,40.0,0.0,92.0
2908,63.0,48.0,40.0,0.0,102.0
2909,65.0,48.0,40.0,0.0,102.0
2910,67.0,336.0,40.0,0.0,102.0
2911,75.0,0.0,390.0,0.0,92.0
2912,68.0,0.0,390.0,0.0,102.0
2913,72.0,0.0,390.0,0.0,92.0
2914,80.0,96.0,390.0,0.0,92.0
2915,60.0,48.0,150.0,0.0,112.0
2916,48.0,0.0,40.0,0.0,112.0
2917,48.0,96.0,90.0,0.0,112.0
2918,63.0,96.0,90.0,0.0,112.0
2919,60.0,96.0,90.0,0.0,112.0
2920,63.0,96.0,90.0,0.0,112.0
2921,72.0,96.0,390.0,0.0,92.0
2922,75.0,0.0,390.0,0.0,92.0
2923,80.0,0.0,390.0,0.0,92.0
2924,68.0,0.0,390.0,0.0,102.0
2925,56.0,96.0,90.0,0.0,112.0
2926,60.0,96.0,90.0,0.0,112.0
2927,56.0,96.0,90.0,0.0,112.0
2928,60.0,0.0,90.0,0.0,112.0
2929,56.0,96.0,90.0,0.0,112.0
2930,60.0,96.0,90.0,0.0,112.0
2931,56.0,96.0,90.0,0.0,112.0
2932,60.0,96.0,90.0,0.0,112.0
2933,53.0,96.0,90.0,0.0,112.0
2934,60.0,0.0,180.0,0.0,102.0
2935,63.0,0.0,180.0,0.0,102.0
2936,65.0,0.0,180.0,0.0,102.0
2937,68.0,0.0,180.0,0.0,92.0
2938,72.0,0.0,180.0,0.0,92.0
2939,75.0,0.0,180.0,0.0,92.0
2940,77.0,0.0,180.0,0.0,92.0
2941,80.0,0.0,180.0,0.0,92.0
2942,56.0,0.0,90.0,0.0,102.0
2943,53.0,96.0,90.0,0.0,112.0
2944,56.0,96.0,90.0,0.0,112.0
2945,63.0,0.0,180.0,0.0,102.0
2946,65.0,0.0,180.0,0.0,102.0
2947,60.0,0.0,180.0,0.0,102.0
2948,53.0,96.0,90.0,0.0,112.0
2949,80.0,0.0,180.0,0.0,92.0
2950,77.0,0.0,180.0,0.0,92.0
2951,75.0,0.0,180.0,0.0,92.0
2952,72.0,0.0,180.0,0.0,92.0
2953,68.0,0.0,180.0,0.0,92.0
2954,56.0,0.0,90.0,0.0,112.0
2955,53.0,96.0,90.0,0.0,112.0
2956,56.0,48.0,90.0,0.0,112.0
2957,53.0,48.0,40.0,0.0,112.0
2958,60.0,48.0,180.0,0.0,102.0
2959,63.0,0.0,180.0,0.0,102.0
2960,65.0,0.0,180.0,0.0,102.0
2961,75.0,0.0,180.0,0.0,92.0
2962,80.0,0.0,180.0,0.0,92.0
2963,72.0,0.0,180.0,0.0,92.0
2964,68.0,0.0,180.0,0.0,92.0
2965,77.0,0.0,180.0,0.0,92.0
2966,56.0,48.0,40.0,0.0,112.0
2967,53.0,48.0,40.0,0.0,112.0
2968,56.0,0.0,40.0,0.0,102.0
2969,53.0,48.0,40.0,0.0,112.0
2970,56.0,48.0,40.0,0.0,112.0
2971,53.0,48.0,40.0,0.0,112.0
2972,56.0,48.0,40.0,0.0,112.0
2973,53.0,48.0,40.0,0.0,112.0
2974,58.0,48.0,40.0,0.0,112.0
2975,56.0,48.0,40.0,0.0,112.0
2976,58.0,48.0,40.0,0.0,112.0
2977,56.0,48.0,40.0,0.0,112.0
2978,58.0,48.0,40.0,0.0,112.0
2979,74.0,0.0,90.0,0.0,92.0
2980,56.0,48.0,40.0,0.0,112.0
2981,77.0,0.0,90.0,0.0,92.0
2982,80.0,0.0,90.0,0.0,92.0
2983,65.0,0.0,90.0,0.0,102.0
2984,62.0,0.0,90.0,0.0,102.0
2985,70.0,0.0,90.0,0.0,92.0
2986,68.0,1536.0,90.0,0.0,102.0
2987,58.0,0.0,40.0,0.0,112.0
2988,79.0,0.0,1530.0,0.0,92.0
2989,51.0,576.0,1530.0,0.0,112.0
2990,75.0,0.0,1530.0,0.0,92.0
2991,70.0,0.0,1530.0,0.0,92.0
2992,67.0,0.0,1530.0,0.0,102.0
2993,58.0,0.0,1530.0,0.0,102.0
2994,63.0,0.0,1530.0,0.0,102.0
2995,63.0,192.0,15.0,0.0,102.0
2996,63.0,384.0,15.0,0.0,102.0
2997,63.0,576.0,15.0,0.0,102.0
2998,63.0,384.0,15.0,0.0,102.0
2999,60.0,192.0,570.0,0.0,102.0
3000,61.0,384.0,180.0,0.0,102.0
3001,58.0,576.0,390.0,0.0,102.0
3002,56.0,192.0,570.0,0.0,102.0
3003,58.0,192.0,180.0,0.0,102.0
3004,60.0,192.0,180.0,0.0,102.0
3005,61.0,384.0,180.0,0.0,102.0
3006,60.0,192.0,390.0,0.0,102.0
3007,68.0,192.0,570.0,0.0,64.0
3008,56.0,0.0,180.0,0.0,102.0
3009,58.0,192.0,180.0,0.0,102.0
3010,68.0,0.0,180.0,0.0,64.0
3011,68.0,0.0,390.0,0.0,64.0
3012,60.0,192.0,180.0,0.0,102.0
3013,61.0,384.0,180.0,0.0,102.0
3014,68.0,192.0,570.0,0.0,64.0
3015,60.0,192.0,390.0,0.0,102.0
3016,56.0,0.0,180.0,0.0,102.0
3017,58.0,192.0,180.0,0.0,102.0
3018,68.0,0.0,180.0,0.0,64.0
3019,60.0,192.0,180.0,0.0,102.0
3020,68.0,0.0,390.0,0.0,64.0
3021,61.0,384.0,180.0,0.0,102.0
3022,67.0,0.0,570.0,0.0,64.0
3023,63.0,192.0,390.0,0.0,102.0
3024,58.0,192.0,180.0,0.0,102.0
3025,60.0,0.0,180.0,0.0,102.0
3026,68.0,384.0,180.0,0.0,64.0
3027,61.0,192.0,780.0,0.0,64.0
3028,65.0,384.0,390.0,0.0,64.0
3029,63.0,192.0,570.0,0.0,64.0
3030,60.0,192.0,390.0,0.0,102.0
3031,65.0,0.0,180.0,0.0,64.0
3032,58.0,0.0,390.0,0.0,102.0
3033,67.0,192.0,180.0,0.0,64.0
3034,68.0,384.0,180.0,0.0,64.0
3035,63.0,0.0,390.0,0.0,102.0
3036,67.0,192.0,390.0,0.0,64.0
3037,63.0,0.0,180.0,0.0,64.0
3038,75.0,192.0,15.0,0.0,92.0
3039,65.0,192.0,180.0,0.0,64.0
3040,75.0,0.0,15.0,0.0,92.0
3041,67.0,192.0,180.0,0.0,64.0
3042,68.0,384.0,180.0,0.0,64.0
3043,67.0,0.0,390.0,0.0,64.0
3044,63.0,192.0,15.0,0.0,102.0
3045,75.0,0.0,15.0,0.0,92.0
3046,65.0,384.0,180.0,0.0,64.0
3047,67.0,0.0,390.0,0.0,64.0
3048,75.0,0.0,15.0,0.0,92.0
3049,60.0,384.0,390.0,0.0,102.0
3050,65.0,192.0,390.0,0.0,102.0
3051,68.0,0.0,570.0,0.0,92.0
3052,72.0,192.0,570.0,0.0,92.0
3053,61.0,0.0,390.0,0.0,102.0
3054,73.0,0.0,180.0,0.0,92.0
3055,67.0,0.0,390.0,0.0,92.0
3056,70.0,384.0,15.0,0.0,92.0
3057,63.0,192.0,780.0,0.0,102.0
3058,65.0,0.0,780.0,0.0,64.0
3059,68.0,0.0,570.0,0.0,92.0
3060,61.0,192.0,180.0,0.0,102.0
3061,70.0,0.0,180.0,0.0,92.0
3062,58.0,192.0,180.0,0.0,102.0
3063,67.0,0.0,390.0,0.0,64.0
3064,72.0,192.0,180.0,0.0,92.0
3065,73.0,0.0,180.0,0.0,92.0
3066,68.0,0.0,390.0,0.0,92.0
3067,63.0,384.0,15.0,0.0,102.0
3068,72.0,0.0,390.0,0.0,92.0
3069,63.0,192.0,15.0,0.0,102.0
3070,68.0,0.0,180.0,0.0,92.0
3071,60.0,0.0,390.0,0.0,102.0
3072,70.0,192.0,180.0,0.0,92.0
3073,56.0,192.0,15.0,0.0,112.0
3074,56.0,0.0,15.0,0.0,112.0
3075,72.0,192.0,180.0,0.0,92.0
3076,73.0,0.0,180.0,0.0,92.0
3077,72.0,0.0,390.0,0.0,92.0
3078,68.0,192.0,390.0,0.0,92.0
3079,63.0,0.0,390.0,0.0,102.0
3080,63.0,0.0,390.0,0.0,64.0
3081,68.0,192.0,180.0,0.0,92.0
3082,60.0,0.0,390.0,0.0,102.0
3083,56.0,0.0,15.0,0.0,112.0
3084,70.0,0.0,180.0,0.0,92.0
3085,72.0,192.0,180.0,0.0,92.0
3086,68.0,0.0,390.0,0.0,92.0
3087,56.0,192.0,15.0,0.0,112.0
3088,73.0,192.0,180.0,0.0,92.0
3089,75.0,384.0,180.0,0.0,92.0
3090,70.0,0.0,180.0,0.0,64.0
3091,55.0,192.0,570.0,0.0,112.0
3092,63.0,0.0,15.0,0.0,102.0
3093,75.0,0.0,390.0,0.0,92.0
3094,56.0,384.0,180.0,0.0,112.0
3095,70.0,0.0,15.0,0.0,92.0
3096,80.0,0.0,390.0,0.0,92.0
3097,53.0,0.0,390.0,0.0,112.0
3098,77.0,0.0,390.0,0.0,92.0
3099,74.0,0.0,390.0,0.0,92.0
3100,62.0,0.0,390.0,0.0,102.0
3101,58.0,192.0,390.0,0.0,102.0
3102,51.0,192.0,570.0,0.0,112.0
3103,70.0,0.0,15.0,0.0,92.0
3104,75.0,0.0,180.0,0.0,92.0
3105,63.0,0.0,1140.0,0.0,102.0
3106,70.0,384.0,15.0,0.0,64.0
3107,75.0,96.0,960.0,0.0,92.0
3108,53.0,0.0,180.0,0.0,112.0
3109,79.0,192.0,15.0,0.0,92.0
3110,58.0,0.0,15.0,0.0,102.0
3111,55.0,192.0,180.0,0.0,112.0
3112,56.0,192.0,180.0,0.0,112.0
3113,58.0,0.0,15.0,0.0,102.0
3114,65.0,0.0,780.0,0.0,102.0
3115,73.0,96.0,90.0,0.0,92.0
3116,72.0,192.0,90.0,0.0,92.0
3117,73.0,0.0,1140.0,0.0,92.0
3118,56.0,192.0,180.0,0.0,112.0
3119,77.0,0.0,15.0,0.0,92.0
3120,68.0,384.0,390.0,0.0,102.0
3121,55.0,192.0,180.0,0.0,112.0
3122,53.0,0.0,180.0,0.0,112.0
3123,75.0,0.0,570.0,0.0,92.0
3124,55.0,0.0,390.0,0.0,112.0
3125,63.0,192.0,570.0,0.0,102.0
3126,68.0,0.0,780.0,0.0,92.0
3127,72.0,0.0,780.0,0.0,92.0
3128,56.0,0.0,390.0,0.0,112.0
3129,77.0,0.0,180.0,0.0,92.0
3130,63.0,192.0,15.0,0.0,102.0
3131,44.0,384.0,390.0,0.0,112.0
3132,79.0,192.0,180.0,0.0,92.0
3133,80.0,0.0,180.0,0.0,92.0
3134,79.0,192.0,390.0,0.0,92.0
3135,63.0,0.0,15.0,0.0,102.0
3136,75.0,0.0,180.0,0.0,92.0
3137,77.0,384.0,180.0,0.0,92.0
3138,63.0,0.0,15.0,0.0,102.0
3139,70.0,0.0,15.0,0.0,92.0
3140,51.0,0.0,15.0,0.0,112.0
3141,79.0,384.0,390.0,0.0,92.0
3142,60.0,192.0,570.0,0.0,102.0
3143,53.0,384.0,780.0,0.0,112.0
3144,80.0,0.0,390.0,0.0,92.0
3145,68.0,192.0,15.0,0.0,92.0
3146,61.0,0.0,180.0,0.0,102.0
3147,58.0,0.0,390.0,0.0,102.0
3148,72.0,0.0,15.0,0.0,92.0
3149,67.0,0.0,390.0,0.0,92.0
3150,52.0,0.0,390.0,0.0,112.0
3151,56.0,192.0,780.0,0.0,102.0
3152,72.0,384.0,15.0,0.0,92.0
3153,53.0,192.0,570.0,0.0,112.0
3154,68.0,96.0,960.0,0.0,92.0
3155,77.0,96.0,960.0,0.0,92.0
3156,51.0,0.0,180.0,0.0,112.0
3157,50.0,0.0,390.0,0.0,112.0
3158,70.0,96.0,90.0,0.0,92.0
3159,68.0,192.0,90.0,0.0,92.0
3160,58.0,0.0,15.0,0.0,102.0
3161,67.0,192.0,570.0,0.0,92.0
3162,51.0,0.0,570.0,0.0,112.0
3163,79.0,96.0,90.0,0.0,92.0
3164,77.0,192.0,90.0,0.0,92.0
3165,75.0,192.0,960.0,0.0,92.0
3166,49.0,192.0,180.0,0.0,112.0
3167,65.0,0.0,180.0,0.0,64.0
3168,67.0,192.0,180.0,0.0,64.0
3169,48.0,0.0,180.0,0.0,112.0
3170,46.0,192.0,180.0,0.0,112.0
3171,68.0,0.0,180.0,0.0,64.0
3172,65.0,0.0,1140.0,0.0,64.0
3173,44.0,0.0,390.0,0.0,112.0
3174,60.0,576.0,390.0,0.0,102.0
3175,77.0,0.0,180.0,0.0,92.0
3176,46.0,0.0,780.0,0.0,112.0
3177,74.0,192.0,570.0,0.0,92.0
3178,75.0,384.0,180.0,0.0,92.0
3179,51.0,0.0,780.0,0.0,112.0
3180,67.0,0.0,780.0,0.0,64.0
3181,75.0,192.0,780.0,0.0,92.0
3182,58.0,192.0,15.0,0.0,102.0
3183,56.0,0.0,180.0,0.0,102.0
3184,70.0,192.0,15.0,0.0,92.0
3185,55.0,192.0,180.0,0.0,102.0
3186,70.0,0.0,390.0,0.0,92.0
3187,53.0,192.0,180.0,0.0,102.0
3188,55.0,192.0,180.0,0.0,102.0
3189,56.0,192.0,180.0,0.0,102.0
3190,58.0,192.0,180.0,0.0,102.0
3191,70.0,0.0,15.0,0.0,92.0
3192,56.0,0.0,180.0,0.0,102.0
3193,55.0,192.0,180.0,0.0,102.0
3194,70.0,192.0,390.0,0.0,92.0
3195,53.0,0.0,180.0,0.0,102.0
3196,51.0,192.0,180.0,0.0,102.0
3197,67.0,192.0,570.0,0.0,64.0
3198,58.0,192.0,180.0,0.0,102.0
3199,63.0,192.0,570.0,0.0,102.0
3200,68.0,192.0,180.0,0.0,64.0
3201,65.0,0.0,390.0,0.0,64.0
3202,61.0,192.0,180.0,0.0,102.0
3203,63.0,192.0,180.0,0.0,64.0
3204,60.0,192.0,570.0,0.0,102.0
3205,68.0,192.0,180.0,0.0,64.0
3206,75.0,192.0,570.0,0.0,92.0
3207,63.0,192.0,180.0,0.0,102.0
3208,65.0,0.0,180.0,0.0,102.0
3209,73.0,192.0,180.0,0.0,92.0
3210,67.0,0.0,180.0,0.0,102.0
3211,72.0,192.0,180.0,0.0,92.0
3212,68.0,192.0,570.0,0.0,102.0
3213,73.0,192.0,180.0,0.0,92.0
3214,75.0,192.0,570.0,0.0,92.0
3215,70.0,192.0,180.0,0.0,102.0
3216,72.0,0.0,180.0,0.0,102.0
3217,79.0,192.0,180.0,0.0,92.0
3218,63.0,0.0,180.0,0.0,102.0
3219,80.0,192.0,180.0,0.0,92.0
3220,65.0,192.0,570.0,0.0,102.0
3221,72.0,192.0,180.0,0.0,92.0
3222,77.0,192.0,570.0,0.0,92.0
3223,67.0,192.0,180.0,0.0,102.0
3224,68.0,0.0,180.0,0.0,102.0
3225,65.0,192.0,180.0,0.0,102.0
3226,75.0,0.0,180.0,0.0,92.0
3227,74.0,192.0,570.0,0.0,92.0
3228,70.0,192.0,180.0,0.0,102.0
3229,72.0,192.0,180.0,0.0,102.0
3230,70.0,0.0,180.0,0.0,102.0
3231,68.0,192.0,180.0,0.0,102.0
3232,70.0,0.0,180.0,0.0,92.0
3233,75.0,192.0,180.0,0.0,92.0
3234,67.0,192.0,390.0,0.0,102.0
3235,74.0,0.0,180.0,0.0,92.0
3236,72.0,192.0,180.0,0.0,92.0
3237,68.0,0.0,570.0,0.0,102.0
3238,70.0,192.0,180.0,0.0,92.0
3239,72.0,192.0,180.0,0.0,92.0
3240,68.0,192.0,180.0,0.0,102.0
3241,74.0,0.0,180.0,0.0,92.0
3242,75.0,0.0,180.0,0.0,92.0
3243,67.0,192.0,180.0,0.0,102.0
3244,77.0,0.0,180.0,0.0,92.0
3245,65.0,192.0,180.0,0.0,102.0
3246,82.0,192.0,570.0,0.0,92.0
3247,79.0,192.0,180.0,0.0,92.0
3248,63.0,0.0,780.0,0.0,102.0
3249,80.0,192.0,180.0,0.0,92.0
3250,82.0,192.0,180.0,0.0,92.0
3251,62.0,0.0,390.0,0.0,102.0
3252,77.0,192.0,15.0,0.0,92.0
3253,79.0,192.0,570.0,0.0,92.0
3254,63.0,192.0,180.0,0.0,102.0
3255,82.0,0.0,15.0,0.0,92.0
3256,70.0,192.0,180.0,0.0,102.0
3257,75.0,0.0,390.0,0.0,102.0
3258,77.0,192.0,180.0,0.0,92.0
3259,82.0,0.0,180.0,0.0,92.0
3260,70.0,192.0,390.0,0.0,102.0
3261,75.0,192.0,180.0,0.0,92.0
3262,82.0,0.0,390.0,0.0,92.0
3263,74.0,0.0,180.0,0.0,92.0
3264,72.0,192.0,180.0,0.0,102.0
3265,79.0,192.0,570.0,0.0,92.0
3266,75.0,192.0,780.0,0.0,92.0
3267,67.0,192.0,180.0,0.0,102.0
3268,72.0,192.0,570.0,0.0,102.0
3269,80.0,0.0,180.0,0.0,92.0
3270,74.0,192.0,390.0,0.0,92.0
3271,77.0,0.0,390.0,0.0,92.0
3272,71.0,0.0,180.0,0.0,102.0
3273,72.0,0.0,390.0,0.0,102.0
3274,75.0,192.0,180.0,0.0,92.0
3275,87.0,192.0,180.0,0.0,92.0
3276,86.0,192.0,180.0,0.0,92.0
3277,84.0,0.0,180.0,0.0,92.0
3278,74.0,192.0,390.0,0.0,92.0
3279,82.0,192.0,180.0,0.0,92.0
3280,80.0,0.0,180.0,0.0,92.0
3281,79.0,192.0,570.0,0.0,92.0
3282,75.0,192.0,180.0,0.0,92.0
3283,77.0,192.0,180.0,0.0,92.0
3284,75.0,0.0,180.0,0.0,92.0
3285,73.0,192.0,180.0,0.0,92.0
3286,75.0,0.0,180.0,0.0,92.0
3287,72.0,192.0,180.0,0.0,92.0
3288,80.0,0.0,180.0,0.0,92.0
3289,79.0,0.0,180.0,0.0,92.0
3290,68.0,192.0,180.0,0.0,92.0
3291,77.0,192.0,570.0,0.0,92.0
3292,73.0,192.0,180.0,0.0,92.0
3293,75.0,192.0,180.0,0.0,92.0
3294,73.0,0.0,180.0,0.0,92.0
3295,72.0,0.0,180.0,0.0,92.0
3296,77.0,192.0,180.0,0.0,92.0
3297,82.0,192.0,390.0,0.0,92.0
3298,73.0,192.0,180.0,0.0,92.0
3299,70.0,0.0,180.0,0.0,92.0
3300,72.0,192.0,390.0,0.0,92.0
3301,75.0,192.0,180.0,0.0,92.0
3302,77.0,0.0,180.0,0.0,92.0
3303,67.0,0.0,390.0,0.0,64.0
3304,75.0,192.0,180.0,0.0,92.0
3305,73.0,192.0,180.0,0.0,92.0
3306,72.0,192.0,180.0,0.0,92.0
3307,68.0,192.0,570.0,0.0,64.0
3308,73.0,192.0,180.0,0.0,92.0
3309,70.0,96.0,480.0,0.0,92.0
3310,51.0,0.0,570.0,0.0,112.0
3311,68.0,96.0,180.0,0.0,64.0
3312,67.0,0.0,390.0,0.0,64.0
3313,75.0,96.0,90.0,0.0,92.0
3314,51.0,96.0,180.0,0.0,112.0
3315,73.0,96.0,90.0,0.0,92.0
3316,75.0,0.0,90.0,0.0,92.0
3317,72.0,96.0,90.0,0.0,92.0
3318,68.0,96.0,480.0,0.0,64.0
3319,75.0,96.0,90.0,0.0,92.0
3320,73.0,96.0,90.0,0.0,92.0
3321,75.0,0.0,90.0,0.0,92.0
3322,70.0,96.0,480.0,0.0,92.0
3323,51.0,96.0,15.0,0.0,112.0
3324,68.0,96.0,90.0,0.0,64.0
3325,67.0,96.0,90.0,0.0,64.0
3326,65.0,96.0,90.0,0.0,64.0
3327,67.0,96.0,570.0,0.0,64.0
3328,70.0,96.0,90.0,0.0,92.0
3329,51.0,0.0,15.0,0.0,112.0
3330,72.0,96.0,90.0,0.0,92.0
3331,73.0,0.0,90.0,0.0,92.0
3332,75.0,96.0,90.0,0.0,92.0
3333,51.0,96.0,15.0,0.0,112.0
3334,77.0,0.0,90.0,0.0,92.0
3335,70.0,0.0,180.0,0.0,92.0
3336,79.0,96.0,90.0,0.0,92.0
3337,75.0,0.0,90.0,0.0,92.0
3338,72.0,96.0,90.0,0.0,92.0
3339,80.0,96.0,480.0,0.0,92.0
3340,48.0,96.0,390.0,0.0,112.0
3341,73.0,96.0,90.0,0.0,92.0
3342,75.0,96.0,90.0,0.0,92.0
3343,72.0,0.0,90.0,0.0,92.0
3344,77.0,96.0,480.0,0.0,92.0
3345,49.0,96.0,390.0,0.0,112.0
3346,82.0,96.0,90.0,0.0,92.0
3347,84.0,96.0,90.0,0.0,92.0
3348,80.0,0.0,90.0,0.0,92.0
3349,85.0,0.0,390.0,0.0,92.0
3350,46.0,96.0,390.0,0.0,112.0
3351,75.0,96.0,90.0,0.0,92.0
3352,77.0,96.0,90.0,0.0,92.0
3353,79.0,0.0,90.0,0.0,92.0
3354,80.0,96.0,90.0,0.0,92.0
3355,44.0,0.0,780.0,0.0,112.0
3356,72.0,96.0,90.0,0.0,92.0
3357,73.0,96.0,90.0,0.0,92.0
3358,75.0,96.0,90.0,0.0,92.0
3359,84.0,96.0,15.0,0.0,92.0
3360,82.0,96.0,90.0,0.0,92.0
3361,80.0,96.0,90.0,0.0,92.0
3362,43.0,96.0,390.0,0.0,112.0
3363,82.0,96.0,480.0,0.0,92.0
3364,77.0,96.0,15.0,0.0,92.0
3365,75.0,96.0,90.0,0.0,92.0
3366,74.0,0.0,90.0,0.0,92.0
3367,75.0,0.0,390.0,0.0,92.0
3368,48.0,96.0,390.0,0.0,112.0
3369,82.0,96.0,90.0,0.0,92.0
3370,80.0,96.0,90.0,0.0,92.0
3371,79.0,0.0,90.0,0.0,92.0
3372,75.0,96.0,90.0,0.0,92.0
3373,80.0,96.0,480.0,0.0,92.0
3374,53.0,96.0,390.0,0.0,112.0
3375,75.0,96.0,90.0,0.0,92.0
3376,74.0,96.0,90.0,0.0,92.0
3377,72.0,0.0,90.0,0.0,92.0
3378,74.0,192.0,390.0,0.0,92.0
3379,46.0,0.0,390.0,0.0,112.0
3380,79.0,96.0,90.0,0.0,92.0
3381,80.0,96.0,90.0,0.0,92.0
3382,82.0,0.0,90.0,0.0,92.0
3383,51.0,0.0,390.0,0.0,112.0
3384,79.0,0.0,390.0,0.0,92.0
3385,75.0,96.0,90.0,0.0,92.0
3386,70.0,96.0,90.0,0.0,92.0
3387,75.0,192.0,90.0,0.0,92.0
3388,77.0,192.0,390.0,0.0,92.0
3389,74.0,96.0,90.0,0.0,92.0
3390,68.0,96.0,90.0,0.0,92.0
3391,74.0,0.0,90.0,0.0,92.0
3392,75.0,192.0,390.0,0.0,92.0
3393,70.0,96.0,90.0,0.0,92.0
3394,67.0,96.0,90.0,0.0,92.0
3395,70.0,0.0,90.0,0.0,92.0
3396,80.0,0.0,390.0,0.0,92.0
3397,53.0,192.0,390.0,0.0,112.0
3398,72.0,96.0,90.0,0.0,92.0
3399,65.0,96.0,90.0,0.0,64.0
3400,72.0,0.0,90.0,0.0,92.0
3401,79.0,192.0,390.0,0.0,92.0
3402,70.0,96.0,90.0,0.0,92.0
3403,61.0,96.0,90.0,0.0,64.0
3404,70.0,0.0,90.0,0.0,92.0
3405,77.0,192.0,390.0,0.0,92.0
3406,68.0,96.0,90.0,0.0,92.0
3407,60.0,96.0,90.0,0.0,64.0
3408,68.0,0.0,90.0,0.0,92.0
3409,55.0,0.0,390.0,0.0,112.0
3410,82.0,192.0,390.0,0.0,92.0
3411,79.0,96.0,90.0,0.0,92.0
3412,75.0,96.0,90.0,0.0,92.0
3413,79.0,0.0,90.0,0.0,92.0
3414,80.0,192.0,390.0,0.0,92.0
3415,77.0,96.0,90.0,0.0,92.0
3416,70.0,96.0,90.0,0.0,92.0
3417,77.0,0.0,90.0,0.0,92.0
3418,79.0,0.0,390.0,0.0,92.0
3419,75.0,96.0,90.0,0.0,92.0
3420,70.0,96.0,90.0,0.0,92.0
3421,75.0,192.0,90.0,0.0,92.0
3422,84.0,96.0,570.0,0.0,92.0
3423,56.0,96.0,390.0,0.0,112.0
3424,63.0,96.0,90.0,0.0,64.0
3425,65.0,96.0,90.0,0.0,64.0
3426,67.0,0.0,90.0,0.0,64.0
3427,68.0,96.0,90.0,0.0,92.0
3428,70.0,0.0,90.0,0.0,92.0
3429,72.0,96.0,90.0,0.0,92.0
3430,82.0,96.0,180.0,0.0,92.0
3431,73.0,0.0,90.0,0.0,92.0
3432,72.0,96.0,180.0,0.0,92.0
3433,80.0,96.0,90.0,0.0,92.0
3434,44.0,0.0,390.0,0.0,112.0
3435,82.0,0.0,90.0,0.0,92.0
3436,70.0,0.0,180.0,0.0,92.0
3437,80.0,96.0,90.0,0.0,92.0
3438,79.0,96.0,90.0,0.0,92.0
3439,68.0,96.0,180.0,0.0,92.0
3440,77.0,96.0,90.0,0.0,92.0
3441,49.0,96.0,390.0,0.0,112.0
3442,80.0,0.0,90.0,0.0,92.0
3443,67.0,0.0,180.0,0.0,64.0
3444,82.0,96.0,90.0,0.0,92.0
3445,84.0,0.0,90.0,0.0,92.0
3446,65.0,0.0,180.0,0.0,64.0
3447,85.0,96.0,90.0,0.0,92.0
3448,77.0,96.0,90.0,0.0,92.0
3449,70.0,96.0,390.0,0.0,92.0
3450,79.0,96.0,90.0,0.0,92.0
3451,80.0,192.0,90.0,0.0,92.0
3452,51.0,0.0,390.0,0.0,112.0
3453,79.0,96.0,300.0,0.0,92.0
3454,73.0,0.0,180.0,0.0,92.0
3455,56.0,0.0,390.0,0.0,112.0
3456,80.0,192.0,15.0,0.0,92.0
3457,72.0,192.0,390.0,0.0,92.0
3458,63.0,192.0,570.0,0.0,102.0
3459,75.0,0.0,180.0,0.0,92.0
3460,75.0,192.0,570.0,0.0,92.0
3461,63.0,192.0,180.0,0.0,102.0
3462,70.0,192.0,390.0,0.0,92.0
3463,55.0,0.0,390.0,0.0,112.0
3464,75.0,192.0,780.0,0.0,92.0
3465,56.0,0.0,390.0,0.0,112.0
3466,72.0,0.0,390.0,0.0,92.0
3467,63.0,192.0,15.0,0.0,102.0
3468,63.0,192.0,15.0,0.0,102.0
3469,75.0,192.0,15.0,0.0,92.0
3470,51.0,0.0,390.0,0.0,112.0
3471,67.0,192.0,390.0,0.0,92.0
3472,63.0,192.0,15.0,0.0,102.0
3473,68.0,0.0,390.0,0.0,92.0
3474,60.0,96.0,570.0,0.0,102.0
3475,53.0,192.0,390.0,0.0,112.0
3476,77.0,96.0,90.0,0.0,92.0
3477,75.0,0.0,90.0,0.0,92.0
3478,73.0,96.0,570.0,0.0,92.0
3479,61.0,96.0,90.0,0.0,102.0
3480,60.0,192.0,90.0,0.0,102.0
3481,55.0,0.0,390.0,0.0,112.0
3482,70.0,0.0,390.0,0.0,92.0
3483,58.0,96.0,570.0,0.0,102.0
3484,75.0,96.0,90.0,0.0,92.0
3485,73.0,192.0,90.0,0.0,92.0
3486,52.0,0.0,390.0,0.0,112.0
3487,67.0,192.0,390.0,0.0,92.0
3488,72.0,96.0,570.0,0.0,92.0
3489,60.0,96.0,90.0,0.0,102.0
3490,58.0,0.0,90.0,0.0,102.0
3491,56.0,0.0,390.0,0.0,102.0
3492,65.0,192.0,570.0,0.0,64.0
3493,53.0,0.0,390.0,0.0,112.0
3494,73.0,96.0,90.0,0.0,92.0
3495,72.0,192.0,90.0,0.0,92.0
3496,55.0,192.0,390.0,0.0,102.0
3497,48.0,0.0,390.0,0.0,112.0
3498,70.0,0.0,390.0,0.0,92.0
3499,64.0,0.0,180.0,0.0,64.0
3500,68.0,192.0,180.0,0.0,92.0
3501,65.0,0.0,390.0,0.0,64.0
3502,49.0,0.0,390.0,0.0,112.0
3503,53.0,0.0,180.0,0.0,102.0
3504,55.0,0.0,180.0,0.0,102.0
3505,70.0,192.0,180.0,0.0,92.0
3506,65.0,0.0,390.0,0.0,64.0
3507,44.0,192.0,390.0,0.0,112.0
3508,56.0,0.0,390.0,0.0,102.0
3509,72.0,192.0,180.0,0.0,92.0
3510,73.0,0.0,180.0,0.0,92.0
3511,61.0,192.0,390.0,0.0,64.0
3512,70.0,0.0,180.0,0.0,92.0
3513,55.0,192.0,180.0,0.0,102.0
3514,46.0,0.0,390.0,0.0,112.0
3515,68.0,0.0,390.0,0.0,92.0
3516,53.0,0.0,180.0,0.0,102.0
3517,48.0,0.0,1140.0,0.0,112.0
3518,60.0,0.0,180.0,0.0,64.0
3519,52.0,96.0,180.0,0.0,102.0
3520,53.0,0.0,180.0,0.0,102.0
3521,65.0,384.0,570.0,0.0,64.0
3522,70.0,96.0,90.0,0.0,92.0
3523,72.0,192.0,90.0,0.0,92.0
3524,55.0,0.0,390.0,0.0,102.0
3525,67.0,0.0,780.0,0.0,92.0
3526,60.0,192.0,15.0,0.0,102.0
3527,60.0,0.0,15.0,0.0,102.0
3528,58.0,0.0,390.0,0.0,102.0
3529,64.0,384.0,390.0,0.0,64.0
3530,60.0,0.0,15.0,0.0,102.0
3531,56.0,0.0,390.0,0.0,102.0
3532,65.0,192.0,390.0,0.0,64.0
3533,53.0,0.0,390.0,0.0,112.0
3534,67.0,0.0,180.0,0.0,92.0
3535,68.0,192.0,180.0,0.0,92.0
3536,70.0,0.0,180.0,0.0,92.0
3537,60.0,384.0,15.0,0.0,102.0
3538,64.0,0.0,390.0,0.0,64.0
3539,55.0,0.0,390.0,0.0,102.0
3540,48.0,384.0,390.0,0.0,112.0
3541,65.0,192.0,570.0,0.0,64.0
3542,49.0,0.0,570.0,0.0,112.0
3543,56.0,0.0,390.0,0.0,102.0
3544,53.0,192.0,390.0,0.0,102.0
3545,61.0,192.0,780.0,0.0,102.0
3546,51.0,0.0,180.0,0.0,112.0
3547,67.0,192.0,180.0,0.0,92.0
3548,53.0,192.0,180.0,0.0,112.0
3549,68.0,0.0,180.0,0.0,92.0
3550,70.0,0.0,180.0,0.0,92.0
3551,55.0,0.0,180.0,0.0,112.0
3552,72.0,0.0,180.0,0.0,92.0
3553,51.0,0.0,390.0,0.0,112.0
3554,63.0,192.0,180.0,0.0,102.0
3555,70.0,0.0,180.0,0.0,92.0
3556,61.0,192.0,180.0,0.0,102.0
3557,68.0,192.0,180.0,0.0,92.0
3558,53.0,192.0,780.0,0.0,112.0
3559,60.0,0.0,180.0,0.0,102.0
3560,70.0,0.0,180.0,0.0,92.0
3561,58.0,192.0,180.0,0.0,102.0
3562,56.0,0.0,180.0,0.0,102.0
3563,72.0,192.0,180.0,0.0,92.0
3564,58.0,0.0,180.0,0.0,102.0
3565,73.0,0.0,180.0,0.0,92.0
3566,75.0,0.0,1350.0,0.0,92.0
3567,48.0,192.0,180.0,0.0,112.0
3568,60.0,192.0,180.0,0.0,112.0
3569,56.0,192.0,180.0,0.0,112.0
3570,63.0,192.0,180.0,0.0,112.0
3571,51.0,192.0,180.0,0.0,112.0
3572,54.0,192.0,180.0,0.0,112.0
3573,53.0,0.0,1140.0,0.0,112.0
3574,78.0,0.0,180.0,0.0,92.0
3575,63.0,192.0,180.0,0.0,102.0
3576,77.0,192.0,180.0,0.0,92.0
3577,61.0,0.0,180.0,0.0,102.0
3578,75.0,192.0,180.0,0.0,92.0
3579,60.0,0.0,180.0,0.0,102.0
3580,58.0,0.0,180.0,0.0,102.0
3581,73.0,192.0,180.0,0.0,92.0
3582,72.0,0.0,180.0,0.0,92.0
3583,57.0,192.0,180.0,0.0,102.0
3584,73.0,96.0,1740.0,0.0,92.0
3585,46.0,192.0,180.0,0.0,112.0
3586,61.0,192.0,180.0,0.0,112.0
3587,58.0,192.0,180.0,0.0,112.0
3588,61.0,192.0,180.0,0.0,112.0
3589,53.0,192.0,180.0,0.0,112.0
3590,56.0,192.0,180.0,0.0,112.0
3591,55.0,192.0,780.0,0.0,112.0
3592,60.0,96.0,90.0,0.0,102.0
3593,61.0,192.0,90.0,0.0,102.0
3594,63.0,96.0,570.0,0.0,102.0
3595,72.0,96.0,90.0,0.0,92.0
3596,70.0,0.0,90.0,0.0,92.0
3597,72.0,96.0,570.0,0.0,92.0
3598,56.0,0.0,780.0,0.0,112.0
3599,65.0,96.0,90.0,0.0,102.0
3600,67.0,192.0,90.0,0.0,102.0
3601,68.0,0.0,780.0,0.0,92.0
3602,73.0,96.0,90.0,0.0,92.0
3603,75.0,192.0,90.0,0.0,92.0
3604,61.0,192.0,390.0,0.0,112.0
3605,77.0,96.0,180.0,0.0,92.0
3606,79.0,96.0,90.0,0.0,92.0
3607,80.0,0.0,90.0,0.0,92.0
3608,58.0,192.0,390.0,0.0,112.0
3609,82.0,96.0,180.0,0.0,92.0
3610,67.0,96.0,570.0,0.0,92.0
3611,79.0,96.0,90.0,0.0,92.0
3612,77.0,0.0,90.0,0.0,92.0
3613,60.0,96.0,780.0,0.0,112.0
3614,76.0,96.0,480.0,0.0,92.0
3615,68.0,96.0,90.0,0.0,92.0
3616,70.0,96.0,90.0,0.0,92.0
3617,72.0,96.0,90.0,0.0,92.0
3618,74.0,96.0,90.0,0.0,92.0
3619,76.0,0.0,90.0,0.0,92.0
3620,61.0,96.0,390.0,0.0,112.0
3621,77.0,96.0,480.0,0.0,92.0
3622,68.0,96.0,15.0,0.0,92.0
3623,67.0,96.0,90.0,0.0,64.0
3624,65.0,0.0,90.0,0.0,64.0
3625,70.0,0.0,570.0,0.0,92.0
3626,55.0,96.0,390.0,0.0,112.0
3627,80.0,96.0,90.0,0.0,92.0
3628,79.0,96.0,90.0,0.0,92.0
3629,77.0,0.0,90.0,0.0,92.0
3630,76.0,96.0,90.0,0.0,92.0
3631,60.0,96.0,180.0,0.0,112.0
3632,72.0,0.0,90.0,0.0,92.0
3633,77.0,96.0,90.0,0.0,92.0
3634,68.0,0.0,180.0,0.0,92.0
3635,53.0,0.0,180.0,0.0,112.0
3636,79.0,192.0,90.0,0.0,92.0
3637,67.0,0.0,300.0,0.0,92.0
3638,76.0,96.0,300.0,0.0,92.0
3639,60.0,96.0,180.0,0.0,112.0
3640,48.0,0.0,180.0,0.0,112.0
3641,77.0,0.0,15.0,0.0,92.0
3642,68.0,96.0,15.0,0.0,92.0
3643,53.0,0.0,390.0,0.0,112.0
3644,80.0,96.0,90.0,0.0,92.0
3645,72.0,0.0,90.0,0.0,92.0
3646,70.0,0.0,90.0,0.0,92.0
3647,79.0,96.0,90.0,0.0,92.0
3648,68.0,0.0,90.0,0.0,92.0
3649,77.0,96.0,90.0,0.0,92.0
3650,82.0,96.0,90.0,0.0,92.0
3651,67.0,0.0,180.0,0.0,64.0
3652,55.0,96.0,390.0,0.0,112.0
3653,84.0,96.0,90.0,0.0,92.0
3654,80.0,96.0,90.0,0.0,92.0
3655,65.0,0.0,180.0,0.0,64.0
3656,82.0,0.0,90.0,0.0,92.0
3657,79.0,96.0,90.0,0.0,92.0
3658,63.0,96.0,180.0,0.0,102.0
3659,80.0,0.0,90.0,0.0,92.0
3660,77.0,96.0,90.0,0.0,92.0
3661,61.0,0.0,180.0,0.0,102.0
3662,79.0,96.0,90.0,0.0,92.0
3663,60.0,96.0,90.0,0.0,102.0
3664,75.0,96.0,480.0,0.0,92.0
3665,61.0,96.0,90.0,0.0,102.0
3666,58.0,96.0,90.0,0.0,102.0
3667,60.0,0.0,90.0,0.0,102.0
3668,56.0,96.0,15.0,0.0,112.0
3669,77.0,96.0,90.0,0.0,92.0
3670,73.0,96.0,90.0,0.0,92.0
3671,75.0,0.0,90.0,0.0,92.0
3672,68.0,96.0,90.0,0.0,92.0
3673,72.0,96.0,390.0,0.0,92.0
3674,70.0,96.0,90.0,0.0,92.0
3675,66.0,96.0,90.0,0.0,92.0
3676,68.0,0.0,90.0,0.0,92.0
3677,49.0,0.0,390.0,0.0,112.0
3678,65.0,96.0,480.0,0.0,102.0
3679,80.0,96.0,90.0,0.0,92.0
3680,82.0,96.0,90.0,0.0,92.0
3681,78.0,96.0,90.0,0.0,92.0
3682,80.0,96.0,90.0,0.0,92.0
3683,77.0,96.0,480.0,0.0,92.0
3684,66.0,96.0,90.0,0.0,102.0
3685,63.0,96.0,90.0,0.0,102.0
3686,65.0,96.0,90.0,0.0,102.0
3687,61.0,96.0,480.0,0.0,102.0
3688,78.0,96.0,90.0,0.0,92.0
3689,75.0,96.0,90.0,0.0,92.0
3690,77.0,96.0,90.0,0.0,92.0
3691,51.0,96.0,390.0,0.0,112.0
3692,63.0,96.0,90.0,0.0,102.0
3693,60.0,96.0,90.0,0.0,102.0
3694,61.0,0.0,90.0,0.0,102.0
3695,58.0,96.0,90.0,0.0,102.0
3696,61.0,96.0,90.0,0.0,102.0
3697,79.0,0.0,15.0,0.0,92.0
3698,60.0,96.0,90.0,0.0,102.0
3699,58.0,96.0,90.0,0.0,102.0
3700,80.0,96.0,90.0,0.0,92.0
3701,53.0,0.0,180.0,0.0,112.0
3702,56.0,96.0,180.0,0.0,102.0
3703,82.0,0.0,90.0,0.0,92.0
3704,80.0,96.0,90.0,0.0,92.0
3705,55.0,96.0,180.0,0.0,112.0
3706,63.0,0.0,390.0,0.0,102.0
3707,82.0,0.0,90.0,0.0,92.0
3708,84.0,96.0,90.0,0.0,92.0
3709,56.0,96.0,180.0,0.0,112.0
3710,85.0,0.0,90.0,0.0,92.0
3711,58.0,0.0,180.0,0.0,112.0
3712,84.0,96.0,90.0,0.0,92.0
3713,67.0,96.0,180.0,0.0,102.0
3714,85.0,0.0,90.0,0.0,92.0
3715,87.0,96.0,90.0,0.0,92.0
3716,60.0,0.0,180.0,0.0,112.0
3717,68.0,96.0,180.0,0.0,102.0
3718,84.0,0.0,90.0,0.0,92.0
3719,65.0,96.0,390.0,0.0,102.0
3720,80.0,96.0,90.0,0.0,92.0
3721,61.0,0.0,180.0,0.0,112.0
3722,77.0,96.0,90.0,0.0,92.0
3723,58.0,0.0,180.0,0.0,112.0
3724,85.0,96.0,90.0,0.0,92.0
3725,82.0,0.0,90.0,0.0,92.0
3726,63.0,0.0,180.0,0.0,102.0
3727,79.0,96.0,90.0,0.0,92.0
3728,75.0,96.0,90.0,0.0,92.0
3729,63.0,0.0,15.0,0.0,112.0
3730,84.0,96.0,90.0,0.0,92.0
3731,56.0,0.0,390.0,0.0,112.0
3732,80.0,96.0,90.0,0.0,92.0
3733,75.0,96.0,90.0,0.0,92.0
3734,72.0,96.0,90.0,0.0,92.0
3735,65.0,0.0,390.0,0.0,102.0
3736,61.0,0.0,390.0,0.0,102.0
3737,82.0,96.0,90.0,0.0,92.0
3738,49.0,96.0,390.0,0.0,112.0
3739,77.0,96.0,90.0,0.0,92.0
3740,73.0,96.0,90.0,0.0,92.0
3741,70.0,0.0,90.0,0.0,92.0
3742,82.0,96.0,90.0,0.0,92.0
3743,58.0,0.0,390.0,0.0,102.0
3744,51.0,0.0,390.0,0.0,112.0
3745,67.0,0.0,390.0,0.0,102.0
3746,79.0,96.0,90.0,0.0,92.0
3747,73.0,96.0,90.0,0.0,92.0
3748,70.0,96.0,90.0,0.0,92.0
3749,44.0,96.0,390.0,0.0,112.0
3750,72.0,96.0,90.0,0.0,92.0
3751,63.0,0.0,15.0,0.0,102.0
3752,56.0,0.0,390.0,0.0,102.0
3753,68.0,96.0,90.0,0.0,92.0
3754,70.0,96.0,90.0,0.0,92.0
3755,72.0,0.0,90.0,0.0,92.0
3756,73.0,96.0,90.0,0.0,92.0
3757,70.0,96.0,90.0,0.0,92.0
3758,72.0,96.0,90.0,0.0,92.0
3759,73.0,48.0,90.0,0.0,92.0
3760,48.0,0.0,390.0,0.0,112.0
3761,63.0,0.0,390.0,0.0,102.0
3762,75.0,48.0,40.0,0.0,92.0
3763,68.0,48.0,40.0,0.0,92.0
3764,70.0,48.0,40.0,0.0,92.0
3765,72.0,48.0,40.0,0.0,92.0
3766,73.0,48.0,40.0,0.0,92.0
3767,75.0,48.0,40.0,0.0,92.0
3768,77.0,48.0,40.0,0.0,92.0
3769,78.0,96.0,40.0,0.0,92.0
3770,56.0,0.0,15.0,0.0,102.0
3771,49.0,96.0,390.0,0.0,112.0
3772,61.0,0.0,390.0,0.0,102.0
3773,77.0,96.0,90.0,0.0,92.0
3774,73.0,96.0,90.0,0.0,92.0
3775,75.0,96.0,90.0,0.0,92.0
3776,77.0,0.0,90.0,0.0,92.0
3777,79.0,96.0,90.0,0.0,92.0
3778,75.0,96.0,90.0,0.0,92.0
3779,77.0,96.0,90.0,0.0,92.0
3780,79.0,48.0,90.0,0.0,92.0
3781,61.0,0.0,390.0,0.0,102.0
3782,80.0,48.0,40.0,0.0,92.0
3783,56.0,96.0,390.0,0.0,102.0
3784,53.0,0.0,390.0,0.0,112.0
3785,75.0,48.0,40.0,0.0,92.0
3786,77.0,48.0,40.0,0.0,92.0
3787,79.0,48.0,40.0,0.0,92.0
3788,80.0,48.0,40.0,0.0,92.0
3789,82.0,48.0,40.0,0.0,92.0
3790,84.0,48.0,40.0,0.0,92.0
3791,85.0,0.0,40.0,0.0,92.0
3792,82.0,96.0,90.0,0.0,92.0
3793,55.0,0.0,390.0,0.0,112.0
3794,58.0,96.0,390.0,0.0,102.0
3795,79.0,96.0,90.0,0.0,92.0
3796,80.0,96.0,90.0,0.0,92.0
3797,82.0,0.0,90.0,0.0,92.0
3798,84.0,96.0,90.0,0.0,92.0
3799,56.0,0.0,390.0,0.0,102.0
3800,80.0,0.0,90.0,0.0,92.0
3801,63.0,96.0,15.0,0.0,102.0
3802,82.0,96.0,90.0,0.0,92.0
3803,84.0,96.0,90.0,0.0,92.0
3804,63.0,0.0,15.0,0.0,102.0
3805,55.0,0.0,390.0,0.0,102.0
3806,51.0,0.0,390.0,0.0,112.0
3807,82.0,96.0,90.0,0.0,92.0
3808,79.0,96.0,90.0,0.0,92.0
3809,80.0,96.0,90.0,0.0,92.0
3810,82.0,0.0,90.0,0.0,92.0
3811,84.0,96.0,90.0,0.0,92.0
3812,44.0,0.0,390.0,0.0,112.0
3813,63.0,96.0,15.0,0.0,102.0
3814,56.0,96.0,390.0,0.0,102.0
3815,80.0,96.0,90.0,0.0,92.0
3816,82.0,96.0,90.0,0.0,92.0
3817,84.0,0.0,90.0,0.0,92.0
3818,82.0,96.0,90.0,0.0,92.0
3819,51.0,96.0,390.0,0.0,112.0
3820,55.0,0.0,390.0,0.0,102.0
3821,79.0,96.0,90.0,0.0,92.0
3822,80.0,96.0,90.0,0.0,92.0
3823,82.0,0.0,90.0,0.0,92.0
3824,63.0,0.0,15.0,0.0,102.0
3825,56.0,0.0,390.0,0.0,102.0
3826,84.0,96.0,90.0,0.0,92.0
3827,75.0,96.0,90.0,0.0,92.0
3828,77.0,96.0,90.0,0.0,92.0
3829,78.0,0.0,90.0,0.0,92.0
3830,61.0,0.0,570.0,0.0,102.0
3831,56.0,96.0,15.0,0.0,112.0
3832,77.0,96.0,90.0,0.0,92.0
3833,49.0,0.0,390.0,0.0,112.0
3834,72.0,96.0,90.0,0.0,92.0
3835,73.0,96.0,90.0,0.0,92.0
3836,75.0,0.0,90.0,0.0,92.0
3837,77.0,96.0,90.0,0.0,92.0
3838,75.0,96.0,90.0,0.0,92.0
3839,63.0,96.0,180.0,0.0,102.0
3840,77.0,96.0,90.0,0.0,92.0
3841,79.0,0.0,90.0,0.0,92.0
3842,80.0,96.0,90.0,0.0,92.0
3843,53.0,0.0,390.0,0.0,102.0
3844,50.0,0.0,390.0,0.0,112.0
3845,60.0,96.0,390.0,0.0,102.0
3846,72.0,96.0,90.0,0.0,92.0
3847,70.0,96.0,90.0,0.0,92.0
3848,68.0,0.0,90.0,0.0,92.0
3849,67.0,96.0,90.0,0.0,64.0
3850,58.0,0.0,390.0,0.0,102.0
3851,55.0,96.0,390.0,0.0,102.0
3852,51.0,0.0,390.0,0.0,112.0
3853,68.0,96.0,90.0,0.0,64.0
3854,67.0,96.0,90.0,0.0,64.0
3855,65.0,0.0,90.0,0.0,64.0
3856,63.0,96.0,90.0,0.0,64.0
3857,70.0,96.0,90.0,0.0,92.0
3858,72.0,96.0,90.0,0.0,92.0
3859,73.0,96.0,90.0,0.0,92.0
3860,75.0,96.0,90.0,0.0,92.0
3861,63.0,0.0,390.0,0.0,102.0
3862,58.0,0.0,390.0,0.0,102.0
3863,43.0,96.0,390.0,0.0,112.0
3864,77.0,96.0,90.0,0.0,92.0
3865,75.0,96.0,90.0,0.0,92.0
3866,73.0,0.0,90.0,0.0,92.0
3867,56.0,0.0,390.0,0.0,102.0
3868,63.0,0.0,390.0,0.0,102.0
3869,44.0,0.0,390.0,0.0,112.0
3870,72.0,96.0,90.0,0.0,92.0
3871,73.0,96.0,90.0,0.0,92.0
3872,72.0,96.0,90.0,0.0,92.0
3873,70.0,96.0,90.0,0.0,92.0
3874,68.0,96.0,90.0,0.0,92.0
3875,75.0,96.0,90.0,0.0,92.0
3876,77.0,96.0,90.0,0.0,92.0
3877,79.0,96.0,90.0,0.0,92.0
3878,48.0,0.0,390.0,0.0,112.0
3879,80.0,96.0,90.0,0.0,92.0
3880,63.0,0.0,390.0,0.0,102.0
3881,82.0,96.0,90.0,0.0,92.0
3882,80.0,96.0,90.0,0.0,92.0
3883,78.0,0.0,90.0,0.0,92.0
3884,56.0,96.0,15.0,0.0,102.0
3885,61.0,96.0,390.0,0.0,102.0
3886,49.0,0.0,390.0,0.0,112.0
3887,77.0,96.0,90.0,0.0,92.0
3888,78.0,96.0,90.0,0.0,92.0
3889,80.0,96.0,90.0,0.0,92.0
3890,75.0,0.0,90.0,0.0,92.0
3891,77.0,96.0,90.0,0.0,92.0
3892,78.0,96.0,90.0,0.0,92.0
3893,80.0,96.0,90.0,0.0,92.0
3894,75.0,96.0,90.0,0.0,92.0
3895,77.0,96.0,90.0,0.0,92.0
3896,65.0,0.0,180.0,0.0,102.0
3897,68.0,0.0,390.0,0.0,102.0
3898,61.0,0.0,180.0,0.0,112.0
3899,80.0,96.0,90.0,0.0,92.0
3900,63.0,96.0,180.0,0.0,102.0
3901,82.0,96.0,90.0,0.0,92.0
3902,60.0,0.0,180.0,0.0,112.0
3903,84.0,0.0,90.0,0.0,92.0
3904,70.0,0.0,390.0,0.0,102.0
3905,65.0,96.0,180.0,0.0,102.0
3906,58.0,0.0,390.0,0.0,112.0
3907,85.0,96.0,90.0,0.0,92.0
3908,87.0,0.0,90.0,0.0,92.0
3909,84.0,96.0,90.0,0.0,92.0
3910,67.0,0.0,180.0,0.0,102.0
3911,85.0,96.0,90.0,0.0,92.0
3912,63.0,0.0,390.0,0.0,102.0
3913,60.0,0.0,180.0,0.0,112.0
3914,87.0,96.0,90.0,0.0,92.0
3915,75.0,96.0,90.0,0.0,92.0
3916,56.0,0.0,180.0,0.0,112.0
3917,77.0,96.0,90.0,0.0,92.0
3918,78.0,96.0,90.0,0.0,92.0
3919,68.0,0.0,15.0,0.0,102.0
3920,61.0,0.0,180.0,0.0,102.0
3921,77.0,96.0,90.0,0.0,92.0
3922,80.0,96.0,90.0,0.0,92.0
3923,82.0,96.0,90.0,0.0,92.0
3924,49.0,0.0,180.0,0.0,112.0
3925,63.0,0.0,180.0,0.0,102.0
3926,77.0,96.0,90.0,0.0,92.0
3927,70.0,96.0,180.0,0.0,64.0
3928,79.0,96.0,90.0,0.0,92.0
3929,58.0,0.0,570.0,0.0,102.0
3930,80.0,0.0,90.0,0.0,92.0
3931,68.0,0.0,180.0,0.0,64.0
3932,79.0,96.0,90.0,0.0,92.0
3933,77.0,96.0,90.0,0.0,92.0
3934,67.0,96.0,180.0,0.0,64.0
3935,75.0,96.0,90.0,0.0,92.0
3936,80.0,0.0,90.0,0.0,92.0
3937,56.0,0.0,180.0,0.0,102.0
3938,63.0,0.0,15.0,0.0,102.0
3939,65.0,96.0,180.0,0.0,64.0
3940,74.0,96.0,90.0,0.0,92.0
3941,82.0,0.0,90.0,0.0,92.0
3942,58.0,96.0,390.0,0.0,102.0
3943,63.0,0.0,390.0,0.0,102.0
3944,79.0,96.0,90.0,0.0,92.0
3945,75.0,96.0,90.0,0.0,92.0
3946,70.0,96.0,90.0,0.0,92.0
3947,73.0,0.0,90.0,0.0,92.0
3948,51.0,0.0,15.0,0.0,112.0
3949,56.0,0.0,390.0,0.0,102.0
3950,63.0,0.0,780.0,0.0,102.0
3951,72.0,96.0,90.0,0.0,92.0
3952,75.0,96.0,90.0,0.0,92.0
3953,68.0,96.0,90.0,0.0,92.0
3954,72.0,96.0,90.0,0.0,92.0
3955,55.0,0.0,180.0,0.0,102.0
3956,70.0,96.0,90.0,0.0,92.0
3957,68.0,0.0,90.0,0.0,92.0
3958,67.0,96.0,90.0,0.0,64.0
3959,56.0,0.0,180.0,0.0,102.0
3960,62.0,0.0,180.0,0.0,102.0
3961,51.0,96.0,15.0,0.0,112.0
3962,65.0,0.0,90.0,0.0,64.0
3963,58.0,0.0,390.0,0.0,102.0
3964,67.0,96.0,90.0,0.0,64.0
3965,63.0,0.0,390.0,0.0,64.0
3966,51.0,96.0,15.0,0.0,112.0
3967,70.0,192.0,90.0,0.0,64.0
3968,75.0,0.0,180.0,0.0,64.0
3969,51.0,96.0,90.0,0.0,112.0
3970,60.0,96.0,90.0,0.0,112.0
3971,56.0,96.0,90.0,0.0,112.0
3972,60.0,96.0,90.0,0.0,112.0
3973,51.0,96.0,90.0,0.0,112.0
3974,60.0,96.0,90.0,0.0,112.0
3975,56.0,96.0,90.0,0.0,112.0
3976,60.0,96.0,90.0,0.0,112.0
3977,51.0,96.0,90.0,0.0,112.0
3978,60.0,96.0,90.0,0.0,112.0
3979,56.0,96.0,90.0,0.0,112.0
3980,60.0,96.0,90.0,0.0,112.0
3981,51.0,96.0,90.0,0.0,112.0
3982,58.0,96.0,90.0,0.0,112.0
3983,55.0,96.0,90.0,0.0,112.0
3984,58.0,96.0,90.0,0.0,112.0
3985,51.0,96.0,90.0,0.0,112.0
3986,58.0,96.0,90.0,0.0,112.0
3987,55.0,96.0,90.0,0.0,112.0
3988,58.0,96.0,90.0,0.0,112.0
3989,51.0,96.0,90.0,0.0,112.0
3990,60.0,96.0,90.0,0.0,112.0
3991,56.0,96.0,90.0,0.0,112.0
3992,60.0,96.0,90.0,0.0,112.0
3993,53.0,96.0,90.0,0.0,112.0
3994,61.0,96.0,90.0,0.0,112.0
3995,56.0,96.0,90.0,0.0,112.0
3996,61.0,96.0,90.0,0.0,112.0
3997,55.0,96.0,90.0,0.0,112.0
3998,61.0,96.0,90.0,0.0,112.0
3999,58.0,96.0,90.0,0.0,112.0
4000,61.0,96.0,90.0,0.0,112.0
4001,56.0,96.0,90.0,0.0,112.0
4002,63.0,96.0,90.0,0.0,112.0
4003,60.0,96.0,90.0,0.0,112.0
4004,63.0,384.0,90.0,0.0,112.0
4005,82.0,0.0,570.0,0.0,92.0
4006,51.0,0.0,3840.0,0.0,112.0
4007,79.0,192.0,570.0,0.0,92.0
4008,70.0,0.0,15.0,0.0,92.0
4009,63.0,0.0,15.0,0.0,102.0
4010,67.0,192.0,15.0,0.0,92.0
4011,79.0,0.0,180.0,0.0,92.0
4012,82.0,0.0,180.0,0.0,92.0
4013,63.0,0.0,390.0,0.0,102.0
4014,72.0,0.0,390.0,0.0,92.0
4015,87.0,96.0,90.0,0.0,92.0
4016,68.0,96.0,390.0,0.0,92.0
4017,84.0,96.0,90.0,0.0,92.0
4018,80.0,96.0,90.0,0.0,92.0
4019,84.0,0.0,90.0,0.0,92.0
4020,70.0,0.0,390.0,0.0,92.0
4021,67.0,0.0,390.0,0.0,92.0
4022,75.0,96.0,90.0,0.0,92.0
4023,63.0,96.0,390.0,0.0,102.0
4024,87.0,96.0,90.0,0.0,92.0
4025,82.0,96.0,90.0,0.0,92.0
4026,87.0,0.0,90.0,0.0,92.0
4027,75.0,96.0,90.0,0.0,92.0
4028,87.0,96.0,90.0,0.0,92.0
4029,82.0,96.0,90.0,0.0,92.0
4030,87.0,96.0,90.0,0.0,92.0
4031,75.0,96.0,90.0,0.0,92.0
4032,72.0,0.0,390.0,0.0,92.0
4033,68.0,96.0,390.0,0.0,92.0
4034,87.0,96.0,90.0,0.0,92.0
4035,84.0,96.0,90.0,0.0,92.0
4036,87.0,0.0,90.0,0.0,92.0
4037,75.0,96.0,90.0,0.0,92.0
4038,73.0,0.0,390.0,0.0,92.0
4039,70.0,0.0,390.0,0.0,92.0
4040,63.0,0.0,15.0,0.0,102.0
4041,67.0,96.0,390.0,0.0,92.0
4042,87.0,96.0,90.0,0.0,92.0
4043,85.0,96.0,90.0,0.0,92.0
4044,87.0,0.0,90.0,0.0,92.0
4045,75.0,96.0,90.0,0.0,92.0
4046,87.0,96.0,90.0,0.0,92.0
4047,85.0,96.0,90.0,0.0,92.0
4048,87.0,96.0,90.0,0.0,92.0
4049,75.0,96.0,90.0,0.0,92.0
4050,68.0,0.0,390.0,0.0,92.0
4051,72.0,0.0,390.0,0.0,92.0
4052,87.0,96.0,90.0,0.0,92.0
4053,84.0,96.0,90.0,0.0,92.0
4054,87.0,96.0,90.0,0.0,92.0
4055,63.0,0.0,15.0,0.0,102.0
4056,82.0,96.0,90.0,0.0,92.0
4057,75.0,96.0,390.0,0.0,92.0
4058,67.0,0.0,390.0,0.0,92.0
4059,70.0,0.0,390.0,0.0,92.0
4060,87.0,96.0,90.0,0.0,92.0
4061,85.0,96.0,90.0,0.0,92.0
4062,84.0,0.0,90.0,0.0,92.0
4063,82.0,96.0,90.0,0.0,92.0
4064,84.0,96.0,90.0,0.0,92.0
4065,82.0,96.0,90.0,0.0,92.0
4066,80.0,96.0,90.0,0.0,92.0
4067,79.0,96.0,90.0,0.0,92.0
4068,87.0,96.0,90.0,0.0,92.0
4069,85.0,96.0,90.0,0.0,92.0
4070,87.0,96.0,90.0,0.0,92.0
4071,77.0,96.0,90.0,0.0,92.0
4072,85.0,96.0,90.0,0.0,92.0
4073,84.0,96.0,90.0,0.0,92.0
4074,85.0,96.0,90.0,0.0,92.0
4075,75.0,96.0,90.0,0.0,92.0
4076,84.0,96.0,90.0,0.0,92.0
4077,82.0,96.0,90.0,0.0,92.0
4078,84.0,96.0,90.0,0.0,92.0
4079,73.0,96.0,90.0,0.0,92.0
4080,82.0,96.0,90.0,0.0,92.0
4081,80.0,96.0,90.0,0.0,92.0
4082,82.0,96.0,90.0,0.0,92.0
4083,72.0,96.0,90.0,0.0,92.0
4084,80.0,96.0,90.0,0.0,92.0
4085,79.0,96.0,90.0,0.0,92.0
4086,80.0,96.0,90.0,0.0,92.0
4087,70.0,96.0,90.0,0.0,92.0
4088,79.0,96.0,90.0,0.0,92.0
4089,77.0,96.0,90.0,0.0,92.0
4090,79.0,96.0,90.0,0.0,92.0
4091,68.0,96.0,90.0,0.0,92.0
4092,77.0,96.0,90.0,0.0,92.0
4093,75.0,96.0,90.0,0.0,92.0
4094,77.0,96.0,90.0,0.0,92.0
4095,67.0,96.0,90.0,0.0,64.0
4096,75.0,96.0,90.0,0.0,92.0
4097,73.0,96.0,90.0,0.0,92.0
4098,75.0,96.0,90.0,0.0,92.0
4099,65.0,96.0,90.0,0.0,64.0
4100,73.0,96.0,90.0,0.0,92.0
4101,72.0,96.0,90.0,0.0,92.0
4102,73.0,96.0,90.0,0.0,92.0
4103,63.0,96.0,90.0,0.0,64.0
4104,72.0,96.0,90.0,0.0,92.0
4105,70.0,96.0,90.0,0.0,92.0
4106,72.0,576.0,90.0,0.0,92.0
4107,49.0,0.0,570.0,0.0,112.0
4108,67.0,192.0,570.0,0.0,92.0
4109,70.0,0.0,570.0,0.0,92.0
4110,75.0,0.0,570.0,0.0,92.0
4111,63.0,0.0,570.0,0.0,102.0
4112,58.0,0.0,15.0,0.0,102.0
4113,55.0,0.0,15.0,0.0,102.0
4114,67.0,0.0,180.0,0.0,92.0
4115,70.0,0.0,180.0,0.0,92.0
4116,75.0,0.0,180.0,0.0,92.0
4117,49.0,0.0,180.0,0.0,112.0
4118,63.0,0.0,180.0,0.0,102.0
4119,48.0,192.0,390.0,0.0,112.0
4120,72.0,0.0,390.0,0.0,92.0
4121,75.0,0.0,390.0,0.0,92.0
4122,80.0,0.0,390.0,0.0,92.0
4123,63.0,0.0,390.0,0.0,102.0
4124,60.0,0.0,390.0,0.0,102.0
4125,65.0,0.0,390.0,0.0,64.0
4126,82.0,96.0,180.0,0.0,92.0
4127,49.0,384.0,390.0,0.0,112.0
4128,58.0,192.0,780.0,0.0,102.0
4129,70.0,0.0,1140.0,0.0,92.0
4130,65.0,0.0,180.0,0.0,102.0
4131,77.0,0.0,390.0,0.0,92.0
4132,68.0,0.0,180.0,0.0,102.0
4133,84.0,96.0,90.0,0.0,92.0
4134,85.0,0.0,90.0,0.0,92.0
4135,51.0,0.0,780.0,0.0,112.0
4136,63.0,0.0,780.0,0.0,102.0
4137,79.0,192.0,570.0,0.0,92.0
4138,61.0,0.0,390.0,0.0,102.0
4139,79.0,384.0,180.0,0.0,92.0
4140,68.0,0.0,390.0,0.0,64.0
4141,60.0,0.0,390.0,0.0,102.0
4142,63.0,96.0,390.0,0.0,102.0
4143,80.0,0.0,390.0,0.0,92.0
4144,75.0,0.0,15.0,0.0,92.0
4145,72.0,0.0,390.0,0.0,92.0
4146,44.0,0.0,390.0,0.0,112.0
4147,56.0,96.0,90.0,0.0,102.0
4148,68.0,96.0,90.0,0.0,102.0
4149,67.0,96.0,90.0,0.0,102.0
4150,72.0,0.0,390.0,0.0,92.0
4151,68.0,96.0,15.0,0.0,102.0
4152,54.0,96.0,90.0,0.0,102.0
4153,66.0,96.0,90.0,0.0,102.0
4154,65.0,96.0,90.0,0.0,102.0
4155,66.0,96.0,90.0,0.0,102.0
4156,70.0,0.0,390.0,0.0,92.0
4157,73.0,0.0,390.0,0.0,92.0
4158,53.0,96.0,90.0,0.0,102.0
4159,44.0,0.0,390.0,0.0,112.0
4160,65.0,96.0,90.0,0.0,102.0
4161,63.0,96.0,90.0,0.0,102.0
4162,65.0,0.0,90.0,0.0,102.0
4163,51.0,96.0,90.0,0.0,102.0
4164,66.0,0.0,390.0,0.0,92.0
4165,68.0,96.0,15.0,0.0,92.0
4166,72.0,0.0,390.0,0.0,92.0
4167,75.0,0.0,390.0,0.0,92.0
4168,63.0,96.0,90.0,0.0,102.0
4169,61.0,96.0,90.0,0.0,102.0
4170,63.0,0.0,90.0,0.0,102.0
4171,49.0,96.0,90.0,0.0,102.0
4172,76.0,0.0,390.0,0.0,92.0
4173,70.0,0.0,390.0,0.0,92.0
4174,67.0,1152.0,390.0,0.0,92.0
4175,73.0,0.0,390.0,0.0,92.0
4176,61.0,96.0,90.0,0.0,102.0
4177,60.0,96.0,90.0,0.0,102.0
4178,61.0,0.0,90.0,0.0,102.0
4179,63.0,0.0,1140.0,0.0,102.0
4180,56.0,0.0,1140.0,0.0,102.0
4181,60.0,0.0,1140.0,0.0,102.0
4182,44.0,0.0,1140.0,0.0,112.0
4183,75.0,0.0,1140.0,0.0,92.0
4184,72.0,0.0,1140.0,0.0,92.0
4185,68.0,0.0,1140.0,0.0,92.0
4186,51.0,0.0,1140.0,0.0,102.0
