,note,step,duration,channel,velocity
0,36.0,68.0,120.0,6.0,0.0
1,24.0,0.0,120.0,8.0,0.0
2,36.0,0.0,120.0,8.0,0.0
3,24.0,0.0,120.0,7.0,0.0
4,79.0,4.0,60.0,3.0,0.0
5,36.0,0.0,120.0,7.0,0.0
6,48.0,0.0,120.0,6.0,0.0
7,60.0,43.0,120.0,5.0,0.0
8,79.0,3.0,60.0,1.0,0.0
9,36.0,0.0,120.0,8.0,0.0
10,75.0,3.0,60.0,4.0,0.0
11,79.0,0.0,60.0,0.0,0.0
12,75.0,45.0,60.0,2.0,0.0
13,80.0,4.0,60.0,1.0,0.0
14,80.0,0.0,60.0,0.0,0.0
15,80.0,6.0,60.0,3.0,0.0
16,77.0,2.0,60.0,2.0,0.0
17,77.0,1.0,60.0,4.0,0.0
18,60.0,0.0,240.0,6.0,0.0
19,48.0,0.0,240.0,7.0,0.0
20,75.0,6.0,60.0,2.0,0.0
21,60.0,0.0,240.0,8.0,0.0
22,48.0,1.0,15.0,8.0,0.0
23,75.0,0.0,60.0,4.0,0.0
24,79.0,0.0,60.0,3.0,0.0
25,79.0,0.0,60.0,1.0,0.0
26,79.0,54.0,60.0,0.0,0.0
27,63.0,3.0,120.0,5.0,0.0
28,77.0,5.0,60.0,2.0,0.0
29,80.0,2.0,60.0,1.0,0.0
30,77.0,0.0,60.0,4.0,0.0
31,80.0,0.0,60.0,0.0,0.0
32,80.0,53.0,60.0,3.0,0.0
33,77.0,0.0,60.0,3.0,0.0
34,68.0,3.0,120.0,5.0,0.0
35,74.0,4.0,60.0,4.0,0.0
36,77.0,55.0,60.0,1.0,0.0
37,77.0,0.0,60.0,0.0,0.0
38,74.0,0.0,60.0,2.0,0.0
39,72.0,57.0,60.0,4.0,0.0
40,75.0,3.0,60.0,0.0,0.0
41,75.0,0.0,60.0,3.0,0.0
42,72.0,1.0,60.0,2.0,0.0
43,75.0,0.0,60.0,1.0,0.0
44,59.0,0.0,240.0,6.0,0.0
45,77.0,0.0,60.0,1.0,0.0
46,77.0,0.0,60.0,3.0,0.0
47,77.0,1.0,60.0,0.0,0.0
48,47.0,0.0,240.0,7.0,0.0
49,74.0,50.0,60.0,2.0,0.0
50,74.0,3.0,60.0,4.0,0.0
51,59.0,0.0,240.0,8.0,0.0
52,62.0,1.0,120.0,5.0,0.0
53,47.0,0.0,240.0,8.0,0.0
54,80.0,0.0,60.0,3.0,0.0
55,77.0,2.0,60.0,2.0,0.0
56,80.0,0.0,60.0,1.0,0.0
57,77.0,2.0,60.0,4.0,0.0
58,80.0,60.0,60.0,0.0,0.0
59,79.0,0.0,60.0,0.0,0.0
60,67.0,13.0,120.0,5.0,0.0
61,75.0,39.0,60.0,4.0,0.0
62,79.0,2.0,60.0,3.0,0.0
63,75.0,2.0,60.0,2.0,0.0
64,79.0,0.0,60.0,1.0,0.0
65,74.0,1.0,60.0,2.0,0.0
66,77.0,4.0,60.0,1.0,0.0
67,77.0,4.0,60.0,0.0,0.0
68,74.0,72.0,60.0,4.0,0.0
69,77.0,0.0,60.0,3.0,0.0
70,60.0,51.0,120.0,6.0,0.0
71,75.0,0.0,120.0,0.0,0.0
72,72.0,6.0,120.0,4.0,0.0
73,67.0,12.0,120.0,5.0,0.0
74,72.0,17.0,90.0,2.0,0.0
75,48.0,0.0,120.0,7.0,0.0
76,48.0,0.0,120.0,8.0,0.0
77,75.0,9.0,90.0,1.0,0.0
78,60.0,0.0,120.0,8.0,0.0
79,75.0,2.0,120.0,3.0,0.0
80,60.0,1.0,120.0,0.0,0.0
81,79.0,45.0,60.0,1.0,0.0
82,75.0,13.0,60.0,2.0,0.0
83,77.0,5.0,60.0,2.0,0.0
84,80.0,56.0,60.0,1.0,0.0
85,75.0,3.0,60.0,2.0,0.0
86,72.0,9.0,240.0,0.0,0.0
87,79.0,57.0,60.0,1.0,0.0
88,80.0,0.0,60.0,1.0,0.0
89,77.0,63.0,60.0,2.0,0.0
90,74.0,53.0,60.0,2.0,0.0
91,77.0,1.0,60.0,1.0,0.0
92,72.0,56.0,60.0,2.0,0.0
93,75.0,4.0,60.0,1.0,0.0
94,77.0,5.0,60.0,1.0,0.0
95,74.0,54.0,60.0,2.0,0.0
96,71.0,60.0,240.0,0.0,0.0
97,77.0,5.0,60.0,2.0,0.0
98,80.0,56.0,60.0,1.0,0.0
99,79.0,56.0,60.0,1.0,0.0
100,75.0,6.0,60.0,2.0,0.0
101,74.0,3.0,60.0,2.0,0.0
102,77.0,2.0,60.0,1.0,0.0
103,75.0,15.0,90.0,1.0,0.0
104,72.0,24.0,60.0,2.0,0.0
105,72.0,68.0,120.0,0.0,0.0
106,75.0,48.0,60.0,0.0,0.0
107,60.0,0.0,120.0,6.0,0.0
108,48.0,1.0,120.0,8.0,0.0
109,60.0,0.0,120.0,8.0,0.0
110,67.0,5.0,60.0,4.0,0.0
111,67.0,3.0,60.0,2.0,0.0
112,75.0,0.0,60.0,3.0,0.0
113,75.0,2.0,60.0,1.0,0.0
114,60.0,47.0,120.0,5.0,0.0
115,48.0,0.0,120.0,7.0,0.0
116,68.0,3.0,60.0,4.0,0.0
117,68.0,4.0,60.0,2.0,0.0
118,77.0,0.0,60.0,0.0,0.0
119,77.0,2.0,60.0,1.0,0.0
120,77.0,2.0,60.0,3.0,0.0
121,36.0,0.0,120.0,8.0,0.0
122,75.0,0.0,60.0,0.0,0.0
123,48.0,47.0,120.0,8.0,0.0
124,48.0,0.0,120.0,6.0,0.0
125,36.0,0.0,120.0,7.0,0.0
126,67.0,4.0,60.0,2.0,0.0
127,67.0,50.0,60.0,4.0,0.0
128,75.0,1.0,60.0,1.0,0.0
129,75.0,2.0,60.0,3.0,0.0
130,63.0,3.0,120.0,5.0,0.0
131,77.0,0.0,60.0,3.0,0.0
132,77.0,6.0,60.0,1.0,0.0
133,68.0,2.0,60.0,4.0,0.0
134,77.0,4.0,60.0,0.0,0.0
135,68.0,0.0,60.0,2.0,0.0
136,65.0,11.0,60.0,4.0,0.0
137,65.0,2.0,60.0,2.0,0.0
138,74.0,4.0,60.0,1.0,0.0
139,53.0,0.0,120.0,8.0,0.0
140,41.0,0.0,120.0,8.0,0.0
141,68.0,6.0,120.0,5.0,0.0
142,74.0,42.0,60.0,0.0,0.0
143,74.0,0.0,60.0,3.0,0.0
144,41.0,4.0,120.0,7.0,0.0
145,53.0,0.0,120.0,6.0,0.0
146,72.0,0.0,60.0,3.0,0.0
147,72.0,50.0,60.0,0.0,0.0
148,72.0,3.0,60.0,1.0,0.0
149,63.0,2.0,60.0,2.0,0.0
150,63.0,3.0,60.0,4.0,0.0
151,65.0,4.0,60.0,4.0,0.0
152,74.0,2.0,60.0,3.0,0.0
153,65.0,52.0,60.0,2.0,0.0
154,74.0,0.0,60.0,1.0,0.0
155,74.0,0.0,60.0,0.0,0.0
156,59.0,43.0,120.0,5.0,0.0
157,56.0,1.0,60.0,6.0,0.0
158,44.0,0.0,60.0,8.0,0.0
159,56.0,0.0,60.0,8.0,0.0
160,44.0,0.0,60.0,7.0,0.0
161,55.0,8.0,60.0,6.0,0.0
162,67.0,1.0,60.0,2.0,0.0
163,67.0,2.0,60.0,4.0,0.0
164,75.0,0.0,60.0,0.0,0.0
165,75.0,1.0,60.0,3.0,0.0
166,75.0,0.0,60.0,1.0,0.0
167,43.0,0.0,60.0,7.0,0.0
168,43.0,0.0,60.0,8.0,0.0
169,55.0,0.0,60.0,8.0,0.0
170,56.0,0.0,120.0,8.0,0.0
171,44.0,0.0,120.0,8.0,0.0
172,56.0,1.0,120.0,6.0,0.0
173,63.0,2.0,60.0,2.0,0.0
174,72.0,55.0,60.0,1.0,0.0
175,72.0,0.0,60.0,0.0,0.0
176,44.0,0.0,120.0,7.0,0.0
177,72.0,7.0,60.0,3.0,0.0
178,63.0,3.0,60.0,4.0,0.0
179,60.0,1.0,120.0,5.0,0.0
180,65.0,2.0,60.0,4.0,0.0
181,74.0,0.0,60.0,3.0,0.0
182,74.0,1.0,60.0,1.0,0.0
183,74.0,2.0,60.0,0.0,0.0
184,65.0,82.0,60.0,2.0,0.0
185,55.0,61.0,120.0,6.0,0.0
186,43.0,0.0,120.0,7.0,0.0
187,67.0,5.0,120.0,4.0,0.0
188,71.0,5.0,120.0,0.0,0.0
189,55.0,0.0,120.0,8.0,0.0
190,71.0,0.0,120.0,3.0,0.0
191,67.0,8.0,90.0,2.0,0.0
192,62.0,8.0,120.0,5.0,0.0
193,71.0,6.0,90.0,1.0,0.0
194,43.0,0.0,120.0,8.0,0.0
195,72.0,0.0,120.0,0.0,0.0
196,75.0,52.0,60.0,1.0,0.0
197,67.0,3.0,60.0,2.0,0.0
198,77.0,3.0,60.0,1.0,0.0
199,68.0,56.0,60.0,2.0,0.0
200,67.0,46.0,60.0,2.0,0.0
201,60.0,0.0,120.0,0.0,0.0
202,75.0,7.0,60.0,1.0,0.0
203,68.0,58.0,60.0,2.0,0.0
204,77.0,9.0,60.0,1.0,0.0
205,74.0,1.0,60.0,1.0,0.0
206,65.0,52.0,120.0,0.0,0.0
207,65.0,49.0,60.0,2.0,0.0
208,63.0,12.0,60.0,2.0,0.0
209,72.0,13.0,60.0,1.0,0.0
210,74.0,45.0,60.0,1.0,0.0
211,65.0,0.0,60.0,2.0,0.0
212,68.0,6.0,60.0,0.0,0.0
213,75.0,7.0,60.0,1.0,0.0
214,67.0,5.0,60.0,2.0,0.0
215,67.0,57.0,60.0,0.0,0.0
216,72.0,5.0,60.0,1.0,0.0
217,63.0,54.0,60.0,2.0,0.0
218,68.0,2.0,120.0,0.0,0.0
219,65.0,90.0,60.0,2.0,0.0
220,74.0,0.0,60.0,1.0,0.0
221,71.0,24.0,90.0,1.0,0.0
222,67.0,2.0,90.0,2.0,0.0
223,67.0,56.0,120.0,0.0,0.0
224,74.0,0.0,60.0,3.0,0.0
225,55.0,0.0,120.0,6.0,0.0
226,67.0,15.0,120.0,5.0,0.0
227,43.0,0.0,120.0,7.0,0.0
228,55.0,1.0,120.0,8.0,0.0
229,71.0,6.0,60.0,2.0,0.0
230,71.0,36.0,60.0,4.0,0.0
231,74.0,2.0,60.0,0.0,0.0
232,74.0,3.0,60.0,1.0,0.0
233,75.0,1.0,60.0,0.0,0.0
234,72.0,0.0,60.0,2.0,0.0
235,75.0,0.0,60.0,3.0,0.0
236,75.0,52.0,60.0,1.0,0.0
237,72.0,2.0,60.0,4.0,0.0
238,77.0,0.0,60.0,0.0,0.0
239,43.0,0.0,120.0,6.0,0.0
240,77.0,45.0,60.0,1.0,0.0
241,77.0,0.0,60.0,3.0,0.0
242,74.0,3.0,60.0,2.0,0.0
243,74.0,6.0,60.0,4.0,0.0
244,31.0,0.0,120.0,8.0,0.0
245,43.0,0.0,15.0,8.0,0.0
246,67.0,1.0,120.0,5.0,0.0
247,31.0,11.0,120.0,7.0,0.0
248,74.0,2.0,60.0,1.0,0.0
249,71.0,1.0,60.0,4.0,0.0
250,74.0,85.0,60.0,0.0,0.0
251,71.0,0.0,60.0,2.0,0.0
252,74.0,0.0,60.0,3.0,0.0
253,36.0,52.0,120.0,7.0,0.0
254,75.0,8.0,120.0,0.0,0.0
255,75.0,2.0,120.0,3.0,0.0
256,48.0,0.0,120.0,8.0,0.0
257,75.0,10.0,90.0,1.0,0.0
258,72.0,10.0,90.0,4.0,0.0
259,36.0,0.0,120.0,8.0,0.0
260,67.0,3.0,120.0,5.0,0.0
261,48.0,0.0,120.0,6.0,0.0
262,72.0,3.0,90.0,2.0,0.0
263,71.0,2.0,60.0,2.0,0.0
264,67.0,4.0,120.0,0.0,0.0
265,74.0,51.0,60.0,1.0,0.0
266,75.0,5.0,60.0,1.0,0.0
267,72.0,55.0,60.0,2.0,0.0
268,77.0,5.0,60.0,1.0,0.0
269,55.0,2.0,120.0,0.0,0.0
270,74.0,63.0,60.0,2.0,0.0
271,74.0,63.0,60.0,1.0,0.0
272,71.0,7.0,60.0,2.0,0.0
273,72.0,22.0,90.0,2.0,0.0
274,60.0,62.0,120.0,0.0,0.0
275,75.0,24.0,90.0,1.0,0.0
276,60.0,7.0,120.0,5.0,0.0
277,76.0,2.0,60.0,0.0,0.0
278,67.0,1.0,60.0,4.0,0.0
279,67.0,39.0,60.0,2.0,0.0
280,46.0,58.0,120.0,6.0,0.0
281,76.0,3.0,60.0,3.0,0.0
282,34.0,0.0,120.0,8.0,0.0
283,76.0,0.0,60.0,1.0,0.0
284,34.0,0.0,120.0,7.0,0.0
285,68.0,1.0,60.0,2.0,0.0
286,77.0,4.0,60.0,3.0,0.0
287,68.0,2.0,60.0,4.0,0.0
288,77.0,0.0,60.0,1.0,0.0
289,77.0,2.0,60.0,0.0,0.0
290,65.0,4.0,60.0,4.0,0.0
291,74.0,1.0,60.0,0.0,0.0
292,46.0,0.0,120.0,7.0,0.0
293,65.0,1.0,60.0,2.0,0.0
294,58.0,0.0,120.0,6.0,0.0
295,46.0,0.0,15.0,8.0,0.0
296,58.0,86.0,120.0,8.0,0.0
297,74.0,40.0,60.0,1.0,0.0
298,60.0,17.0,120.0,5.0,0.0
299,74.0,0.0,60.0,3.0,0.0
300,76.0,0.0,60.0,1.0,0.0
301,67.0,0.0,60.0,4.0,0.0
302,76.0,3.0,60.0,3.0,0.0
303,67.0,0.0,60.0,2.0,0.0
304,76.0,2.0,60.0,0.0,0.0
305,77.0,0.0,120.0,3.0,0.0
306,56.0,6.0,120.0,6.0,0.0
307,60.0,51.0,120.0,5.0,0.0
308,68.0,5.0,90.0,2.0,0.0
309,77.0,1.0,120.0,0.0,0.0
310,44.0,0.0,120.0,7.0,0.0
311,68.0,5.0,120.0,4.0,0.0
312,44.0,0.0,120.0,8.0,0.0
313,77.0,14.0,90.0,1.0,0.0
314,56.0,0.0,120.0,8.0,0.0
315,67.0,51.0,60.0,2.0,0.0
316,58.0,2.0,120.0,0.0,0.0
317,76.0,1.0,60.0,1.0,0.0
318,77.0,62.0,60.0,1.0,0.0
319,68.0,9.0,60.0,2.0,0.0
320,74.0,55.0,60.0,1.0,0.0
321,65.0,2.0,60.0,2.0,0.0
322,70.0,3.0,120.0,0.0,0.0
323,67.0,4.0,60.0,2.0,0.0
324,76.0,76.0,60.0,1.0,0.0
325,68.0,29.0,90.0,2.0,0.0
326,68.0,62.0,120.0,0.0,0.0
327,77.0,12.0,90.0,1.0,0.0
328,38.0,0.0,120.0,7.0,0.0
329,77.0,57.0,360.0,0.0,0.0
330,77.0,0.0,360.0,1.0,0.0
331,50.0,0.0,120.0,6.0,0.0
332,38.0,0.0,120.0,8.0,0.0
333,50.0,1.0,120.0,8.0,0.0
334,74.0,48.0,60.0,2.0,0.0
335,77.0,3.0,360.0,3.0,0.0
336,65.0,1.0,120.0,5.0,0.0
337,74.0,3.0,60.0,4.0,0.0
338,75.0,63.0,60.0,4.0,0.0
339,75.0,1.0,60.0,2.0,0.0
340,38.0,0.0,120.0,8.0,0.0
341,72.0,5.0,60.0,4.0,0.0
342,26.0,0.0,120.0,8.0,0.0
343,72.0,48.0,60.0,2.0,0.0
344,26.0,0.0,120.0,7.0,0.0
345,68.0,3.0,120.0,5.0,0.0
346,38.0,1.0,120.0,6.0,0.0
347,74.0,58.0,60.0,2.0,0.0
348,74.0,1.0,60.0,4.0,0.0
349,71.0,36.0,60.0,2.0,0.0
350,43.0,0.0,120.0,8.0,0.0
351,31.0,0.0,120.0,8.0,0.0
352,43.0,5.0,120.0,6.0,0.0
353,71.0,7.0,60.0,4.0,0.0
354,31.0,0.0,120.0,7.0,0.0
355,67.0,6.0,120.0,5.0,0.0
356,74.0,4.0,60.0,2.0,0.0
357,74.0,9.0,30.0,4.0,0.0
358,48.0,0.0,120.0,8.0,0.0
359,55.0,52.0,120.0,5.0,0.0
360,76.0,0.0,120.0,1.0,0.0
361,72.0,52.0,60.0,4.0,0.0
362,36.0,2.0,120.0,7.0,0.0
363,48.0,0.0,120.0,6.0,0.0
364,72.0,2.0,60.0,2.0,0.0
365,76.0,1.0,120.0,3.0,0.0
366,76.0,1.0,120.0,0.0,0.0
367,74.0,2.0,60.0,4.0,0.0
368,74.0,1.0,60.0,2.0,0.0
369,60.0,12.0,180.0,5.0,0.0
370,36.0,0.0,15.0,8.0,0.0
371,75.0,54.0,240.0,3.0,0.0
372,75.0,0.0,240.0,1.0,0.0
373,24.0,44.0,120.0,8.0,0.0
374,24.0,0.0,120.0,7.0,0.0
375,70.0,2.0,60.0,4.0,0.0
376,36.0,0.0,120.0,6.0,0.0
377,75.0,9.0,240.0,0.0,0.0
378,70.0,57.0,60.0,2.0,0.0
379,72.0,7.0,60.0,4.0,0.0
380,72.0,0.0,60.0,2.0,0.0
381,41.0,0.0,120.0,6.0,0.0
382,29.0,3.0,120.0,7.0,0.0
383,41.0,0.0,120.0,8.0,0.0
384,29.0,0.0,120.0,8.0,0.0
385,69.0,27.0,60.0,4.0,0.0
386,69.0,10.0,60.0,2.0,0.0
387,72.0,14.0,30.0,2.0,0.0
388,72.0,4.0,30.0,4.0,0.0
389,57.0,1.0,60.0,5.0,0.0
390,74.0,6.0,120.0,0.0,0.0
391,34.0,0.0,120.0,8.0,0.0
392,74.0,0.0,120.0,3.0,0.0
393,70.0,5.0,60.0,4.0,0.0
394,46.0,0.0,120.0,6.0,0.0
395,34.0,0.0,120.0,7.0,0.0
396,74.0,1.0,120.0,1.0,0.0
397,53.0,48.0,120.0,5.0,0.0
398,70.0,42.0,60.0,2.0,0.0
399,46.0,11.0,120.0,8.0,0.0
400,72.0,4.0,60.0,2.0,0.0
401,72.0,1.0,60.0,4.0,0.0
402,73.0,0.0,240.0,3.0,0.0
403,58.0,7.0,180.0,5.0,0.0
404,22.0,0.0,120.0,7.0,0.0
405,34.0,19.0,120.0,6.0,0.0
406,68.0,55.0,60.0,2.0,0.0
407,73.0,21.0,210.0,0.0,0.0
408,68.0,3.0,60.0,4.0,0.0
409,73.0,1.0,240.0,1.0,0.0
410,34.0,0.0,120.0,8.0,0.0
411,22.0,0.0,120.0,8.0,0.0
412,70.0,0.0,60.0,4.0,0.0
413,70.0,2.0,60.0,2.0,0.0
414,27.0,0.0,120.0,8.0,0.0
415,68.0,36.0,20.0,4.0,0.0
416,67.0,31.0,60.0,4.0,0.0
417,39.0,0.0,120.0,8.0,0.0
418,67.0,4.0,60.0,2.0,0.0
419,39.0,6.0,120.0,6.0,0.0
420,27.0,0.0,120.0,7.0,0.0
421,60.0,50.0,60.0,5.0,0.0
422,68.0,2.0,60.0,4.0,0.0
423,68.0,0.0,60.0,2.0,0.0
424,39.0,54.0,120.0,8.0,0.0
425,51.0,0.0,120.0,8.0,0.0
426,62.0,7.0,120.0,5.0,0.0
427,67.0,13.0,60.0,2.0,0.0
428,71.0,6.0,120.0,0.0,0.0
429,67.0,40.0,60.0,4.0,0.0
430,71.0,0.0,120.0,1.0,0.0
431,51.0,0.0,120.0,6.0,0.0
432,71.0,0.0,120.0,3.0,0.0
433,39.0,0.0,120.0,7.0,0.0
434,65.0,0.0,60.0,2.0,0.0
435,65.0,3.0,60.0,4.0,0.0
436,44.0,0.0,60.0,8.0,0.0
437,56.0,7.0,60.0,8.0,0.0
438,60.0,13.0,180.0,5.0,0.0
439,63.0,3.0,60.0,4.0,0.0
440,72.0,0.0,210.0,1.0,0.0
441,44.0,0.0,60.0,7.0,0.0
442,72.0,32.0,210.0,0.0,0.0
443,72.0,0.0,210.0,3.0,0.0
444,63.0,49.0,60.0,2.0,0.0
445,56.0,0.0,60.0,6.0,0.0
446,67.0,4.0,60.0,4.0,0.0
447,43.0,0.0,60.0,7.0,0.0
448,55.0,0.0,60.0,6.0,0.0
449,43.0,38.0,60.0,8.0,0.0
450,55.0,0.0,60.0,8.0,0.0
451,67.0,4.0,60.0,2.0,0.0
452,44.0,0.0,60.0,8.0,0.0
453,56.0,0.0,60.0,8.0,0.0
454,44.0,0.0,60.0,7.0,0.0
455,56.0,16.0,60.0,6.0,0.0
456,72.0,2.0,60.0,4.0,0.0
457,72.0,0.0,60.0,2.0,0.0
458,71.0,9.0,60.0,2.0,0.0
459,71.0,0.0,60.0,4.0,0.0
460,74.0,3.0,60.0,0.0,0.0
461,74.0,0.0,60.0,3.0,0.0
462,74.0,0.0,60.0,1.0,0.0
463,53.0,0.0,60.0,6.0,0.0
464,41.0,17.0,60.0,7.0,0.0
465,41.0,0.0,60.0,8.0,0.0
466,53.0,0.0,60.0,8.0,0.0
467,68.0,0.0,60.0,5.0,0.0
468,72.0,0.0,20.0,4.0,0.0
469,72.0,10.0,20.0,2.0,0.0
470,75.0,0.0,30.0,3.0,0.0
471,75.0,0.0,30.0,0.0,0.0
472,75.0,6.0,30.0,1.0,0.0
473,67.0,52.0,120.0,5.0,0.0
474,55.0,0.0,120.0,8.0,0.0
475,43.0,1.0,120.0,7.0,0.0
476,55.0,0.0,120.0,6.0,0.0
477,71.0,0.0,20.0,4.0,0.0
478,71.0,12.0,20.0,2.0,0.0
479,74.0,7.0,20.0,3.0,0.0
480,74.0,0.0,20.0,0.0,0.0
481,74.0,0.0,20.0,1.0,0.0
482,72.0,11.0,20.0,4.0,0.0
483,72.0,0.0,20.0,2.0,0.0
484,75.0,2.0,20.0,1.0,0.0
485,75.0,0.0,20.0,0.0,0.0
486,75.0,0.0,20.0,3.0,0.0
487,71.0,13.0,15.0,2.0,0.0
488,71.0,0.0,15.0,4.0,0.0
489,72.0,13.0,20.0,2.0,0.0
490,74.0,4.0,15.0,0.0,0.0
491,72.0,0.0,20.0,4.0,0.0
492,74.0,0.0,15.0,3.0,0.0
493,74.0,0.0,15.0,1.0,0.0
494,75.0,11.0,15.0,0.0,0.0
495,75.0,0.0,15.0,1.0,0.0
496,75.0,0.0,15.0,3.0,0.0
497,71.0,40.0,120.0,2.0,0.0
498,71.0,0.0,120.0,4.0,0.0
499,74.0,16.0,15.0,0.0,0.0
500,74.0,0.0,15.0,3.0,0.0
501,74.0,0.0,15.0,1.0,0.0
502,75.0,3.0,15.0,0.0,0.0
503,75.0,0.0,15.0,3.0,0.0
504,75.0,0.0,15.0,1.0,0.0
505,43.0,0.0,120.0,6.0,0.0
506,31.0,0.0,120.0,8.0,0.0
507,43.0,0.0,15.0,8.0,0.0
508,65.0,94.0,120.0,5.0,0.0
509,31.0,9.0,120.0,7.0,0.0
510,74.0,0.0,60.0,0.0,0.0
511,74.0,8.0,60.0,3.0,0.0
512,74.0,0.0,60.0,1.0,0.0
513,72.0,0.0,60.0,0.0,0.0
514,72.0,0.0,60.0,3.0,0.0
515,72.0,0.0,60.0,2.0,0.0
516,72.0,3.0,60.0,1.0,0.0
517,72.0,6.0,90.0,2.0,0.0
518,48.0,0.0,120.0,6.0,0.0
519,72.0,6.0,120.0,0.0,0.0
520,72.0,2.0,120.0,3.0,0.0
521,36.0,0.0,120.0,7.0,0.0
522,48.0,0.0,120.0,8.0,0.0
523,72.0,0.0,120.0,1.0,0.0
524,36.0,53.0,120.0,8.0,0.0
525,72.0,7.0,15.0,4.0,0.0
526,63.0,14.0,120.0,5.0,0.0
527,75.0,5.0,60.0,2.0,0.0
528,79.0,57.0,60.0,1.0,0.0
529,72.0,3.0,120.0,0.0,0.0
530,80.0,50.0,60.0,1.0,0.0
531,77.0,2.0,60.0,2.0,0.0
532,60.0,1.0,120.0,0.0,0.0
533,79.0,4.0,60.0,1.0,0.0
534,75.0,62.0,60.0,2.0,0.0
535,77.0,61.0,60.0,2.0,0.0
536,80.0,0.0,60.0,1.0,0.0
537,67.0,1.0,60.0,0.0,0.0
538,82.0,4.0,90.0,1.0,0.0
539,79.0,25.0,90.0,2.0,0.0
540,59.0,28.0,15.0,5.0,0.0
541,68.0,54.0,60.0,0.0,0.0
542,77.0,0.0,60.0,1.0,0.0
543,34.0,0.0,120.0,7.0,0.0
544,58.0,13.0,120.0,5.0,0.0
545,46.0,4.0,120.0,6.0,0.0
546,74.0,10.0,60.0,4.0,0.0
547,46.0,0.0,120.0,8.0,0.0
548,74.0,1.0,60.0,2.0,0.0
549,70.0,2.0,60.0,0.0,0.0
550,77.0,36.0,60.0,3.0,0.0
551,79.0,0.0,60.0,3.0,0.0
552,75.0,2.0,60.0,2.0,0.0
553,75.0,2.0,60.0,4.0,0.0
554,79.0,0.0,60.0,1.0,0.0
555,79.0,50.0,60.0,0.0,0.0
556,34.0,17.0,120.0,6.0,0.0
557,77.0,1.0,60.0,4.0,0.0
558,77.0,1.0,60.0,2.0,0.0
559,80.0,0.0,60.0,1.0,0.0
560,22.0,0.0,120.0,7.0,0.0
561,80.0,42.0,60.0,3.0,0.0
562,58.0,6.0,120.0,5.0,0.0
563,80.0,2.0,60.0,0.0,0.0
564,22.0,0.0,120.0,8.0,0.0
565,34.0,0.0,15.0,8.0,0.0
566,74.0,1.0,60.0,4.0,0.0
567,77.0,1.0,60.0,1.0,0.0
568,74.0,76.0,60.0,2.0,0.0
569,77.0,0.0,60.0,3.0,0.0
570,77.0,0.0,60.0,0.0,0.0
571,39.0,0.0,120.0,6.0,0.0
572,79.0,3.0,90.0,1.0,0.0
573,79.0,10.0,120.0,3.0,0.0
574,58.0,54.0,120.0,5.0,0.0
575,27.0,3.0,120.0,8.0,0.0
576,39.0,0.0,120.0,8.0,0.0
577,75.0,3.0,90.0,4.0,0.0
578,75.0,8.0,90.0,2.0,0.0
579,27.0,0.0,120.0,7.0,0.0
580,79.0,15.0,90.0,0.0,0.0
581,74.0,1.0,60.0,2.0,0.0
582,70.0,3.0,120.0,0.0,0.0
583,77.0,53.0,60.0,1.0,0.0
584,75.0,2.0,60.0,2.0,0.0
585,79.0,58.0,60.0,1.0,0.0
586,80.0,58.0,60.0,1.0,0.0
587,58.0,13.0,120.0,0.0,0.0
588,77.0,3.0,60.0,2.0,0.0
589,77.0,80.0,60.0,1.0,0.0
590,74.0,2.0,60.0,2.0,0.0
591,63.0,64.0,120.0,0.0,0.0
592,79.0,19.0,90.0,1.0,0.0
593,75.0,4.0,90.0,2.0,0.0
594,76.0,2.0,60.0,4.0,0.0
595,79.0,28.0,90.0,3.0,0.0
596,79.0,3.0,60.0,1.0,0.0
597,36.0,0.0,120.0,8.0,0.0
598,36.0,0.0,120.0,7.0,0.0
599,60.0,8.0,120.0,5.0,0.0
600,48.0,1.0,120.0,8.0,0.0
601,76.0,14.0,60.0,2.0,0.0
602,48.0,0.0,120.0,6.0,0.0
603,79.0,0.0,90.0,0.0,0.0
604,80.0,0.0,60.0,1.0,0.0
605,77.0,8.0,60.0,2.0,0.0
606,80.0,0.0,60.0,3.0,0.0
607,77.0,2.0,60.0,4.0,0.0
608,80.0,55.0,60.0,0.0,0.0
609,24.0,0.0,120.0,8.0,0.0
610,36.0,0.0,120.0,6.0,0.0
611,82.0,0.0,60.0,1.0,0.0
612,36.0,0.0,120.0,8.0,0.0
613,79.0,0.0,60.0,4.0,0.0
614,82.0,1.0,60.0,0.0,0.0
615,24.0,8.0,120.0,7.0,0.0
616,79.0,45.0,60.0,2.0,0.0
617,60.0,8.0,120.0,5.0,0.0
618,82.0,0.0,60.0,3.0,0.0
619,76.0,0.0,60.0,2.0,0.0
620,76.0,2.0,60.0,4.0,0.0
621,79.0,2.0,60.0,3.0,0.0
622,79.0,57.0,60.0,1.0,0.0
623,79.0,0.0,60.0,0.0,0.0
624,77.0,51.0,60.0,4.0,0.0
625,60.0,0.0,120.0,5.0,0.0
626,29.0,3.0,120.0,7.0,0.0
627,80.0,0.0,60.0,1.0,0.0
628,80.0,0.0,60.0,0.0,0.0
629,80.0,0.0,60.0,3.0,0.0
630,41.0,0.0,120.0,6.0,0.0
631,77.0,4.0,60.0,2.0,0.0
632,29.0,0.0,120.0,8.0,0.0
633,75.0,1.0,60.0,4.0,0.0
634,79.0,0.0,60.0,3.0,0.0
635,79.0,2.0,60.0,0.0,0.0
636,75.0,54.0,60.0,2.0,0.0
637,79.0,1.0,60.0,1.0,0.0
638,73.0,50.0,60.0,2.0,0.0
639,53.0,0.0,120.0,6.0,0.0
640,41.0,0.0,15.0,8.0,0.0
641,82.0,1.0,60.0,1.0,0.0
642,73.0,0.0,60.0,4.0,0.0
643,53.0,0.0,120.0,8.0,0.0
644,41.0,5.0,120.0,7.0,0.0
645,82.0,0.0,60.0,3.0,0.0
646,65.0,3.0,60.0,5.0,0.0
647,82.0,2.0,60.0,0.0,0.0
648,64.0,3.0,60.0,5.0,0.0
649,72.0,2.0,60.0,2.0,0.0
650,80.0,43.0,60.0,0.0,0.0
651,80.0,3.0,60.0,1.0,0.0
652,80.0,0.0,60.0,3.0,0.0
653,72.0,1.0,60.0,4.0,0.0
654,68.0,59.0,60.0,4.0,0.0
655,65.0,6.0,120.0,5.0,0.0
656,79.0,5.0,60.0,1.0,0.0
657,79.0,4.0,60.0,3.0,0.0
658,37.0,80.0,150.0,8.0,0.0
659,49.0,0.0,150.0,8.0,0.0
660,79.0,0.0,60.0,0.0,0.0
661,49.0,0.0,150.0,6.0,0.0
662,37.0,0.0,150.0,7.0,0.0
663,68.0,1.0,60.0,2.0,0.0
664,77.0,2.0,60.0,1.0,0.0
665,77.0,0.0,60.0,0.0,0.0
666,77.0,2.0,60.0,3.0,0.0
667,70.0,3.0,60.0,2.0,0.0
668,70.0,0.0,60.0,4.0,0.0
669,76.0,5.0,90.0,3.0,0.0
670,48.0,0.0,90.0,6.0,0.0
671,76.0,1.0,90.0,1.0,0.0
672,36.0,0.0,90.0,7.0,0.0
673,72.0,0.0,90.0,2.0,0.0
674,72.0,16.0,90.0,4.0,0.0
675,76.0,0.0,90.0,0.0,0.0
676,36.0,0.0,90.0,8.0,0.0
677,48.0,0.0,90.0,8.0,0.0
678,67.0,61.0,120.0,5.0,0.0
679,73.0,4.0,60.0,2.0,0.0
680,58.0,53.0,60.0,0.0,0.0
681,82.0,4.0,60.0,1.0,0.0
682,72.0,3.0,60.0,2.0,0.0
683,60.0,55.0,60.0,0.0,0.0
684,80.0,3.0,60.0,1.0,0.0
685,61.0,62.0,60.0,0.0,0.0
686,70.0,1.0,60.0,2.0,0.0
687,79.0,4.0,60.0,1.0,0.0
688,58.0,1.0,60.0,0.0,0.0
689,68.0,5.0,60.0,2.0,0.0
690,77.0,48.0,60.0,1.0,0.0
691,76.0,24.0,60.0,1.0,0.0
692,60.0,14.0,120.0,0.0,0.0
693,67.0,30.0,90.0,2.0,0.0
694,46.0,0.0,60.0,6.0,0.0
695,46.0,50.0,60.0,8.0,0.0
696,34.0,0.0,60.0,7.0,0.0
697,34.0,0.0,60.0,8.0,0.0
698,65.0,0.0,360.0,5.0,0.0
699,44.0,0.0,60.0,6.0,0.0
700,72.0,57.0,60.0,4.0,0.0
701,72.0,1.0,360.0,2.0,0.0
702,32.0,2.0,60.0,7.0,0.0
703,77.0,1.0,60.0,1.0,0.0
704,44.0,0.0,60.0,8.0,0.0
705,32.0,0.0,60.0,8.0,0.0
706,77.0,3.0,300.0,0.0,0.0
707,77.0,0.0,300.0,3.0,0.0
708,43.0,0.0,60.0,8.0,0.0
709,43.0,0.0,60.0,6.0,0.0
710,31.0,1.0,60.0,7.0,0.0
711,31.0,0.0,60.0,8.0,0.0
712,70.0,6.0,60.0,4.0,0.0
713,75.0,53.0,60.0,1.0,0.0
714,33.0,0.0,60.0,7.0,0.0
715,73.0,52.0,60.0,1.0,0.0
716,33.0,2.0,60.0,8.0,0.0
717,45.0,0.0,60.0,6.0,0.0
718,69.0,3.0,60.0,4.0,0.0
719,45.0,0.0,60.0,8.0,0.0
720,41.0,0.0,60.0,8.0,0.0
721,41.0,1.0,60.0,6.0,0.0
722,29.0,0.0,60.0,8.0,0.0
723,72.0,3.0,60.0,4.0,0.0
724,72.0,49.0,60.0,1.0,0.0
725,29.0,0.0,60.0,7.0,0.0
726,70.0,48.0,60.0,4.0,0.0
727,34.0,0.0,60.0,7.0,0.0
728,46.0,0.0,60.0,6.0,0.0
729,46.0,0.0,60.0,8.0,0.0
730,34.0,10.0,60.0,8.0,0.0
731,73.0,3.0,60.0,1.0,0.0
732,33.0,0.0,60.0,8.0,0.0
733,75.0,0.0,60.0,3.0,0.0
734,77.0,3.0,60.0,1.0,0.0
735,45.0,10.0,60.0,8.0,0.0
736,45.0,0.0,60.0,6.0,0.0
737,75.0,0.0,60.0,0.0,0.0
738,33.0,0.0,60.0,7.0,0.0
739,72.0,51.0,60.0,4.0,0.0
740,73.0,0.0,60.0,0.0,0.0
741,73.0,4.0,60.0,3.0,0.0
742,82.0,51.0,60.0,1.0,0.0
743,46.0,2.0,60.0,8.0,0.0
744,34.0,0.0,60.0,8.0,0.0
745,46.0,0.0,60.0,6.0,0.0
746,73.0,1.0,60.0,4.0,0.0
747,67.0,1.0,360.0,5.0,0.0
748,70.0,23.0,270.0,2.0,0.0
749,34.0,0.0,60.0,7.0,0.0
750,48.0,0.0,60.0,8.0,0.0
751,72.0,0.0,60.0,0.0,0.0
752,36.0,0.0,60.0,8.0,0.0
753,75.0,3.0,60.0,4.0,0.0
754,48.0,0.0,60.0,6.0,0.0
755,72.0,7.0,60.0,3.0,0.0
756,36.0,53.0,60.0,7.0,0.0
757,80.0,0.0,60.0,1.0,0.0
758,49.0,5.0,60.0,8.0,0.0
759,70.0,0.0,60.0,0.0,0.0
760,37.0,0.0,60.0,7.0,0.0
761,49.0,0.0,60.0,6.0,0.0
762,79.0,50.0,60.0,1.0,0.0
763,73.0,34.0,120.0,4.0,0.0
764,37.0,0.0,60.0,8.0,0.0
765,70.0,3.0,60.0,3.0,0.0
766,34.0,0.0,60.0,7.0,0.0
767,68.0,0.0,60.0,0.0,0.0
768,77.0,8.0,60.0,1.0,0.0
769,68.0,1.0,60.0,3.0,0.0
770,46.0,0.0,60.0,6.0,0.0
771,46.0,0.0,60.0,8.0,0.0
772,34.0,0.0,60.0,8.0,0.0
773,52.0,0.0,120.0,8.0,0.0
774,52.0,10.0,120.0,6.0,0.0
775,84.0,59.0,60.0,1.0,0.0
776,40.0,0.0,120.0,7.0,0.0
777,67.0,15.0,150.0,3.0,0.0
778,67.0,0.0,150.0,0.0,0.0
779,40.0,0.0,120.0,8.0,0.0
780,72.0,33.0,150.0,4.0,0.0
781,73.0,0.0,60.0,2.0,0.0
782,82.0,1.0,60.0,1.0,0.0
783,68.0,9.0,120.0,5.0,0.0
784,76.0,0.0,120.0,3.0,0.0
785,36.0,4.0,120.0,8.0,0.0
786,76.0,6.0,120.0,0.0,0.0
787,36.0,0.0,120.0,7.0,0.0
788,72.0,9.0,60.0,2.0,0.0
789,48.0,0.0,120.0,8.0,0.0
790,48.0,0.0,120.0,6.0,0.0
791,80.0,35.0,60.0,1.0,0.0
792,73.0,5.0,60.0,4.0,0.0
793,70.0,47.0,60.0,2.0,0.0
794,79.0,0.0,60.0,1.0,0.0
795,68.0,0.0,120.0,5.0,0.0
796,41.0,0.0,120.0,7.0,0.0
797,68.0,5.0,60.0,2.0,0.0
798,41.0,0.0,120.0,8.0,0.0
799,53.0,0.0,120.0,8.0,0.0
800,77.0,0.0,180.0,0.0,0.0
801,77.0,7.0,60.0,1.0,0.0
802,53.0,1.0,120.0,6.0,0.0
803,77.0,2.0,180.0,3.0,0.0
804,72.0,49.0,60.0,4.0,0.0
805,85.0,52.0,60.0,1.0,0.0
806,67.0,4.0,60.0,2.0,0.0
807,70.0,1.0,60.0,4.0,0.0
808,46.0,0.0,120.0,8.0,0.0
809,34.0,12.0,120.0,8.0,0.0
810,68.0,3.0,60.0,4.0,0.0
811,65.0,5.0,120.0,5.0,0.0
812,68.0,45.0,60.0,2.0,0.0
813,34.0,0.0,120.0,7.0,0.0
814,46.0,0.0,120.0,6.0,0.0
815,65.0,15.0,60.0,2.0,0.0
816,79.0,0.0,60.0,1.0,0.0
817,79.0,1.0,60.0,3.0,0.0
818,79.0,0.0,60.0,0.0,0.0
819,73.0,0.0,60.0,4.0,0.0
820,80.0,0.0,90.0,3.0,0.0
821,65.0,14.0,20.0,2.0,0.0
822,80.0,13.0,90.0,1.0,0.0
823,80.0,0.0,90.0,0.0,0.0
824,60.0,6.0,120.0,5.0,0.0
825,36.0,0.0,120.0,7.0,0.0
826,48.0,0.0,120.0,8.0,0.0
827,36.0,0.0,120.0,8.0,0.0
828,48.0,7.0,120.0,6.0,0.0
829,72.0,9.0,120.0,4.0,0.0
830,64.0,17.0,15.0,2.0,0.0
831,65.0,13.0,20.0,2.0,0.0
832,64.0,18.0,15.0,2.0,0.0
833,65.0,14.0,20.0,2.0,0.0
834,64.0,7.0,120.0,2.0,0.0
835,80.0,0.0,15.0,1.0,0.0
836,80.0,0.0,15.0,3.0,0.0
837,80.0,4.0,15.0,0.0,0.0
838,24.0,0.0,120.0,7.0,0.0
839,60.0,5.0,120.0,5.0,0.0
840,36.0,0.0,120.0,8.0,0.0
841,24.0,10.0,120.0,8.0,0.0
842,70.0,75.0,120.0,4.0,0.0
843,36.0,0.0,120.0,6.0,0.0
844,79.0,13.0,15.0,3.0,0.0
845,79.0,0.0,15.0,1.0,0.0
846,79.0,0.0,15.0,0.0,0.0
847,80.0,0.0,15.0,0.0,0.0
848,80.0,39.0,15.0,3.0,0.0
849,80.0,0.0,15.0,1.0,0.0
850,79.0,34.0,60.0,1.0,0.0
851,79.0,0.0,60.0,3.0,0.0
852,79.0,0.0,60.0,0.0,0.0
853,65.0,0.0,60.0,2.0,0.0
854,77.0,0.0,30.0,0.0,0.0
855,77.0,0.0,30.0,1.0,0.0
856,77.0,10.0,30.0,3.0,0.0
857,77.0,7.0,120.0,1.0,0.0
858,29.0,49.0,120.0,7.0,0.0
859,60.0,13.0,90.0,5.0,0.0
860,29.0,0.0,120.0,8.0,0.0
861,68.0,9.0,90.0,4.0,0.0
862,77.0,0.0,120.0,3.0,0.0
863,77.0,0.0,120.0,0.0,0.0
864,41.0,0.0,120.0,6.0,0.0
865,65.0,8.0,120.0,2.0,0.0
866,80.0,86.0,240.0,1.0,0.0
867,60.0,11.0,120.0,5.0,0.0
868,41.0,0.0,15.0,8.0,0.0
869,77.0,7.0,60.0,2.0,0.0
870,80.0,0.0,360.0,3.0,0.0
871,80.0,1.0,360.0,0.0,0.0
872,41.0,0.0,120.0,7.0,0.0
873,53.0,60.0,120.0,6.0,0.0
874,53.0,0.0,120.0,8.0,0.0
875,77.0,48.0,60.0,4.0,0.0
876,79.0,1.0,60.0,2.0,0.0
877,79.0,0.0,60.0,4.0,0.0
878,75.0,43.0,60.0,2.0,0.0
879,75.0,4.0,60.0,4.0,0.0
880,29.0,0.0,120.0,7.0,0.0
881,29.0,0.0,120.0,8.0,0.0
882,65.0,15.0,120.0,5.0,0.0
883,41.0,0.0,15.0,8.0,0.0
884,41.0,6.0,120.0,6.0,0.0
885,77.0,2.0,60.0,2.0,0.0
886,77.0,2.0,60.0,4.0,0.0
887,74.0,1.0,120.0,2.0,0.0
888,22.0,0.0,120.0,7.0,0.0
889,65.0,1.0,120.0,5.0,0.0
890,34.0,16.0,120.0,8.0,0.0
891,74.0,5.0,120.0,4.0,0.0
892,34.0,0.0,120.0,6.0,0.0
893,22.0,0.0,120.0,8.0,0.0
894,70.0,20.0,30.0,1.0,0.0
895,72.0,3.0,30.0,1.0,0.0
896,74.0,39.0,30.0,1.0,0.0
897,75.0,26.0,30.0,1.0,0.0
898,77.0,34.0,30.0,1.0,0.0
899,79.0,25.0,30.0,1.0,0.0
900,80.0,31.0,30.0,1.0,0.0
901,79.0,29.0,30.0,1.0,0.0
902,80.0,40.0,30.0,1.0,0.0
903,77.0,174.0,30.0,1.0,0.0
904,79.0,41.0,390.0,1.0,0.0
905,51.0,0.0,120.0,8.0,0.0
906,79.0,5.0,360.0,0.0,0.0
907,79.0,0.0,360.0,3.0,0.0
908,39.0,0.0,120.0,7.0,0.0
909,51.0,8.0,120.0,6.0,0.0
910,58.0,44.0,120.0,5.0,0.0
911,39.0,0.0,120.0,8.0,0.0
912,75.0,8.0,60.0,4.0,0.0
913,75.0,45.0,60.0,2.0,0.0
914,77.0,2.0,60.0,4.0,0.0
915,77.0,4.0,60.0,2.0,0.0
916,27.0,0.0,120.0,8.0,0.0
917,27.0,0.0,120.0,7.0,0.0
918,63.0,11.0,120.0,5.0,0.0
919,39.0,0.0,120.0,6.0,0.0
920,74.0,42.0,60.0,2.0,0.0
921,39.0,5.0,120.0,8.0,0.0
922,74.0,9.0,60.0,4.0,0.0
923,75.0,23.0,60.0,2.0,0.0
924,75.0,1.0,60.0,4.0,0.0
925,72.0,4.0,120.0,2.0,0.0
926,63.0,10.0,150.0,5.0,0.0
927,20.0,0.0,120.0,8.0,0.0
928,32.0,0.0,120.0,8.0,0.0
929,72.0,8.0,120.0,4.0,0.0
930,32.0,14.0,120.0,6.0,0.0
931,20.0,0.0,120.0,7.0,0.0
932,77.0,27.0,30.0,1.0,0.0
933,75.0,17.0,30.0,1.0,0.0
934,74.0,0.0,30.0,1.0,0.0
935,72.0,36.0,30.0,1.0,0.0
936,70.0,21.0,30.0,1.0,0.0
937,68.0,38.0,30.0,1.0,0.0
938,67.0,19.0,30.0,1.0,0.0
939,68.0,38.0,30.0,1.0,0.0
940,72.0,27.0,30.0,1.0,0.0
941,75.0,24.0,30.0,1.0,0.0
942,79.0,177.0,30.0,1.0,0.0
943,77.0,18.0,780.0,1.0,0.0
944,38.0,0.0,150.0,7.0,0.0
945,74.0,49.0,60.0,2.0,0.0
946,50.0,39.0,150.0,6.0,0.0
947,77.0,17.0,60.0,0.0,0.0
948,50.0,0.0,150.0,8.0,0.0
949,75.0,14.0,60.0,2.0,0.0
950,79.0,5.0,60.0,0.0,0.0
951,38.0,0.0,120.0,6.0,0.0
952,72.0,45.0,60.0,2.0,0.0
953,26.0,0.0,120.0,7.0,0.0
954,75.0,11.0,60.0,0.0,0.0
955,26.0,2.0,120.0,8.0,0.0
956,38.0,0.0,20.0,8.0,0.0
957,77.0,11.0,60.0,0.0,0.0
958,74.0,56.0,60.0,2.0,0.0
959,31.0,0.0,120.0,7.0,0.0
960,74.0,42.0,60.0,0.0,0.0
961,31.0,0.0,120.0,8.0,0.0
962,43.0,16.0,120.0,6.0,0.0
963,71.0,7.0,90.0,2.0,0.0
964,43.0,0.0,120.0,8.0,0.0
965,72.0,59.0,60.0,0.0,0.0
966,74.0,2.0,60.0,0.0,0.0
967,74.0,0.0,60.0,3.0,0.0
968,71.0,53.0,120.0,4.0,0.0
969,77.0,55.0,60.0,2.0,0.0
970,79.0,0.0,60.0,2.0,0.0
971,75.0,0.0,60.0,0.0,0.0
972,75.0,4.0,60.0,3.0,0.0
973,72.0,0.0,60.0,3.0,0.0
974,72.0,7.0,60.0,0.0,0.0
975,72.0,6.0,120.0,4.0,0.0
976,75.0,51.0,60.0,2.0,0.0
977,74.0,0.0,60.0,0.0,0.0
978,77.0,1.0,60.0,2.0,0.0
979,74.0,43.0,60.0,3.0,0.0
980,74.0,11.0,120.0,4.0,0.0
981,74.0,29.0,60.0,2.0,0.0
982,71.0,29.0,90.0,3.0,0.0
983,71.0,0.0,90.0,0.0,0.0
984,77.0,3.0,60.0,2.0,0.0
985,80.0,6.0,60.0,1.0,0.0
986,71.0,5.0,120.0,4.0,0.0
987,79.0,10.0,60.0,1.0,0.0
988,55.0,0.0,120.0,8.0,0.0
989,55.0,8.0,120.0,5.0,0.0
990,55.0,0.0,120.0,6.0,0.0
991,43.0,0.0,120.0,7.0,0.0
992,75.0,1.0,60.0,2.0,0.0
993,72.0,0.0,20.0,3.0,0.0
994,72.0,14.0,20.0,0.0,0.0
995,71.0,0.0,15.0,3.0,0.0
996,71.0,14.0,15.0,0.0,0.0
997,72.0,14.0,15.0,3.0,0.0
998,72.0,0.0,15.0,0.0,0.0
999,71.0,0.0,15.0,0.0,0.0
1000,71.0,3.0,15.0,3.0,0.0
1001,80.0,3.0,60.0,1.0,0.0
1002,77.0,1.0,60.0,2.0,0.0
1003,72.0,11.0,15.0,0.0,0.0
1004,72.0,0.0,15.0,3.0,0.0
1005,71.0,0.0,15.0,0.0,0.0
1006,71.0,15.0,15.0,3.0,0.0
1007,72.0,9.0,15.0,0.0,0.0
1008,72.0,0.0,15.0,3.0,0.0
1009,71.0,0.0,120.0,3.0,0.0
1010,71.0,0.0,120.0,0.0,0.0
1011,74.0,46.0,60.0,2.0,0.0
1012,31.0,0.0,120.0,7.0,0.0
1013,43.0,51.0,15.0,8.0,0.0
1014,31.0,3.0,120.0,8.0,0.0
1015,43.0,0.0,120.0,6.0,0.0
1016,62.0,7.0,120.0,5.0,0.0
1017,77.0,2.0,60.0,1.0,0.0
1018,67.0,4.0,120.0,4.0,0.0
1019,75.0,3.0,60.0,2.0,0.0
1020,79.0,50.0,60.0,1.0,0.0
1021,72.0,0.0,60.0,0.0,0.0
1022,72.0,41.0,60.0,3.0,0.0
1023,36.0,0.0,60.0,6.0,0.0
1024,72.0,0.0,60.0,2.0,0.0
1025,24.0,0.0,60.0,7.0,0.0
1026,36.0,0.0,60.0,8.0,0.0
1027,63.0,1.0,60.0,5.0,0.0
1028,24.0,0.0,60.0,8.0,0.0
1029,75.0,33.0,420.0,1.0,0.0
1030,67.0,7.0,60.0,4.0,0.0
1031,31.0,0.0,60.0,7.0,0.0
1032,31.0,0.0,60.0,8.0,0.0
1033,43.0,0.0,60.0,8.0,0.0
1034,74.0,0.0,60.0,3.0,0.0
1035,74.0,4.0,60.0,0.0,0.0
1036,43.0,0.0,60.0,6.0,0.0
1037,70.0,48.0,60.0,2.0,0.0
1038,65.0,18.0,60.0,5.0,0.0
1039,70.0,0.0,60.0,4.0,0.0
1040,75.0,0.0,240.0,0.0,0.0
1041,75.0,49.0,240.0,3.0,0.0
1042,36.0,59.0,60.0,8.0,0.0
1043,48.0,0.0,60.0,6.0,0.0
1044,48.0,0.0,60.0,8.0,0.0
1045,69.0,0.0,60.0,4.0,0.0
1046,69.0,0.0,60.0,2.0,0.0
1047,36.0,0.0,60.0,7.0,0.0
1048,63.0,8.0,60.0,5.0,0.0
1049,65.0,52.0,60.0,5.0,0.0
1050,70.0,0.0,60.0,2.0,0.0
1051,50.0,0.0,60.0,8.0,0.0
1052,38.0,4.0,60.0,7.0,0.0
1053,50.0,0.0,60.0,6.0,0.0
1054,70.0,0.0,60.0,4.0,0.0
1055,38.0,0.0,60.0,8.0,0.0
1056,62.0,3.0,60.0,5.0,0.0
1057,67.0,6.0,60.0,2.0,0.0
1058,46.0,0.0,60.0,8.0,0.0
1059,46.0,38.0,60.0,6.0,0.0
1060,67.0,2.0,60.0,4.0,0.0
1061,34.0,0.0,60.0,7.0,0.0
1062,34.0,0.0,60.0,8.0,0.0
1063,69.0,3.0,60.0,4.0,0.0
1064,48.0,0.0,60.0,8.0,0.0
1065,63.0,8.0,60.0,5.0,0.0
1066,36.0,0.0,60.0,8.0,0.0
1067,36.0,1.0,60.0,7.0,0.0
1068,69.0,9.0,60.0,2.0,0.0
1069,48.0,0.0,60.0,6.0,0.0
1070,45.0,0.0,120.0,6.0,0.0
1071,45.0,0.0,120.0,8.0,0.0
1072,33.0,0.0,120.0,8.0,0.0
1073,66.0,26.0,90.0,2.0,0.0
1074,60.0,3.0,120.0,5.0,0.0
1075,33.0,1.0,120.0,7.0,0.0
1076,66.0,0.0,90.0,4.0,0.0
1077,75.0,18.0,60.0,0.0,0.0
1078,75.0,5.0,60.0,1.0,0.0
1079,75.0,0.0,60.0,3.0,0.0
1080,50.0,57.0,120.0,8.0,0.0
1081,50.0,0.0,120.0,6.0,0.0
1082,57.0,0.0,120.0,5.0,0.0
1083,74.0,2.0,60.0,3.0,0.0
1084,74.0,9.0,60.0,1.0,0.0
1085,38.0,0.0,120.0,7.0,0.0
1086,74.0,0.0,60.0,0.0,0.0
1087,67.0,14.0,20.0,4.0,0.0
1088,67.0,0.0,20.0,2.0,0.0
1089,66.0,15.0,15.0,4.0,0.0
1090,66.0,0.0,15.0,2.0,0.0
1091,67.0,13.0,15.0,2.0,0.0
1092,67.0,0.0,15.0,4.0,0.0
1093,66.0,0.0,15.0,4.0,0.0
1094,66.0,6.0,15.0,2.0,0.0
1095,75.0,4.0,60.0,0.0,0.0
1096,75.0,1.0,60.0,1.0,0.0
1097,75.0,0.0,60.0,3.0,0.0
1098,67.0,0.0,15.0,4.0,0.0
1099,67.0,34.0,15.0,2.0,0.0
1100,66.0,57.0,150.0,4.0,0.0
1101,66.0,0.0,150.0,2.0,0.0
1102,72.0,2.0,60.0,3.0,0.0
1103,72.0,57.0,60.0,1.0,0.0
1104,26.0,0.0,120.0,8.0,0.0
1105,62.0,1.0,120.0,5.0,0.0
1106,38.0,0.0,120.0,6.0,0.0
1107,26.0,0.0,120.0,7.0,0.0
1108,72.0,0.0,60.0,0.0,0.0
1109,38.0,0.0,15.0,8.0,0.0
1110,74.0,0.0,60.0,1.0,0.0
1111,74.0,0.0,60.0,3.0,0.0
1112,74.0,2.0,60.0,0.0,0.0
1113,67.0,2.0,60.0,2.0,0.0
1114,62.0,8.0,120.0,5.0,0.0
1115,43.0,0.0,60.0,6.0,0.0
1116,31.0,0.0,60.0,8.0,0.0
1117,43.0,4.0,60.0,8.0,0.0
1118,70.0,7.0,60.0,3.0,0.0
1119,67.0,0.0,60.0,4.0,0.0
1120,70.0,0.0,60.0,0.0,0.0
1121,70.0,43.0,60.0,1.0,0.0
1122,31.0,0.0,60.0,7.0,0.0
1123,69.0,0.0,60.0,2.0,0.0
1124,72.0,1.0,60.0,1.0,0.0
1125,69.0,0.0,60.0,4.0,0.0
1126,50.0,0.0,60.0,6.0,0.0
1127,38.0,0.0,60.0,7.0,0.0
1128,72.0,51.0,60.0,3.0,0.0
1129,72.0,0.0,60.0,0.0,0.0
1130,38.0,4.0,60.0,8.0,0.0
1131,50.0,0.0,60.0,8.0,0.0
1132,43.0,0.0,60.0,7.0,0.0
1133,43.0,0.0,60.0,8.0,0.0
1134,74.0,7.0,270.0,1.0,0.0
1135,70.0,0.0,60.0,4.0,0.0
1136,55.0,51.0,60.0,8.0,0.0
1137,74.0,0.0,270.0,3.0,0.0
1138,70.0,9.0,60.0,2.0,0.0
1139,62.0,0.0,120.0,5.0,0.0
1140,55.0,0.0,60.0,6.0,0.0
1141,74.0,1.0,270.0,0.0,0.0
1142,72.0,6.0,60.0,2.0,0.0
1143,45.0,0.0,60.0,8.0,0.0
1144,57.0,0.0,60.0,8.0,0.0
1145,45.0,0.0,60.0,7.0,0.0
1146,72.0,0.0,60.0,4.0,0.0
1147,57.0,54.0,60.0,6.0,0.0
1148,41.0,0.0,60.0,7.0,0.0
1149,41.0,0.0,60.0,8.0,0.0
1150,53.0,49.0,60.0,8.0,0.0
1151,65.0,0.0,120.0,5.0,0.0
1152,69.0,4.0,60.0,2.0,0.0
1153,69.0,0.0,60.0,4.0,0.0
1154,53.0,0.0,60.0,6.0,0.0
1155,70.0,21.0,60.0,4.0,0.0
1156,55.0,0.0,60.0,6.0,0.0
1157,43.0,7.0,60.0,8.0,0.0
1158,43.0,0.0,60.0,7.0,0.0
1159,70.0,0.0,60.0,2.0,0.0
1160,55.0,0.0,60.0,8.0,0.0
1161,67.0,15.0,60.0,2.0,0.0
1162,67.0,45.0,60.0,4.0,0.0
1163,58.0,9.0,120.0,5.0,0.0
1164,41.0,13.0,15.0,7.0,0.0
1165,53.0,0.0,15.0,6.0,0.0
1166,41.0,0.0,15.0,8.0,0.0
1167,53.0,0.0,15.0,8.0,0.0
1168,52.0,0.0,15.0,8.0,0.0
1169,40.0,0.0,15.0,7.0,0.0
1170,52.0,15.0,15.0,6.0,0.0
1171,40.0,0.0,15.0,8.0,0.0
1172,41.0,3.0,20.0,8.0,0.0
1173,53.0,0.0,20.0,8.0,0.0
1174,41.0,0.0,20.0,7.0,0.0
1175,53.0,0.0,20.0,6.0,0.0
1176,40.0,0.0,330.0,8.0,0.0
1177,52.0,33.0,330.0,8.0,0.0
1178,52.0,0.0,330.0,6.0,0.0
1179,40.0,0.0,330.0,7.0,0.0
1180,78.0,0.0,60.0,3.0,0.0
1181,78.0,49.0,60.0,1.0,0.0
1182,69.0,0.0,60.0,2.0,0.0
1183,78.0,0.0,60.0,0.0,0.0
1184,69.0,2.0,60.0,4.0,0.0
1185,55.0,1.0,120.0,5.0,0.0
1186,79.0,0.0,60.0,0.0,0.0
1187,79.0,57.0,60.0,1.0,0.0
1188,79.0,3.0,60.0,3.0,0.0
1189,70.0,0.0,60.0,2.0,0.0
1190,70.0,3.0,120.0,4.0,0.0
1191,82.0,1.0,60.0,0.0,0.0
1192,82.0,16.0,60.0,1.0,0.0
1193,82.0,0.0,60.0,3.0,0.0
1194,74.0,0.0,60.0,2.0,0.0
1195,74.0,15.0,20.0,4.0,0.0
1196,81.0,0.0,60.0,0.0,0.0
1197,64.0,8.0,120.0,5.0,0.0
1198,70.0,1.0,60.0,2.0,0.0
1199,81.0,1.0,60.0,3.0,0.0
1200,81.0,6.0,60.0,1.0,0.0
1201,72.0,13.0,15.0,4.0,0.0
1202,74.0,11.0,15.0,4.0,0.0
1203,72.0,6.0,15.0,4.0,0.0
1204,74.0,46.0,15.0,4.0,0.0
1205,79.0,4.0,60.0,1.0,0.0
1206,72.0,0.0,60.0,2.0,0.0
1207,79.0,0.0,60.0,0.0,0.0
1208,79.0,1.0,60.0,3.0,0.0
1209,72.0,0.0,60.0,4.0,0.0
1210,74.0,0.0,480.0,2.0,0.0
1211,38.0,0.0,120.0,8.0,0.0
1212,57.0,7.0,120.0,5.0,0.0
1213,78.0,61.0,120.0,3.0,0.0
1214,78.0,72.0,60.0,1.0,0.0
1215,50.0,0.0,120.0,8.0,0.0
1216,74.0,0.0,120.0,4.0,0.0
1217,50.0,0.0,120.0,6.0,0.0
1218,38.0,2.0,120.0,7.0,0.0
1219,78.0,0.0,120.0,0.0,0.0
1220,81.0,0.0,60.0,1.0,0.0
1221,79.0,59.0,120.0,0.0,0.0
1222,55.0,0.0,120.0,6.0,0.0
1223,43.0,0.0,120.0,7.0,0.0
1224,74.0,6.0,120.0,4.0,0.0
1225,82.0,48.0,60.0,1.0,0.0
1226,79.0,0.0,120.0,3.0,0.0
1227,55.0,0.0,120.0,5.0,0.0
1228,43.0,4.0,120.0,8.0,0.0
1229,55.0,0.0,120.0,8.0,0.0
1230,84.0,1.0,60.0,1.0,0.0
1231,41.0,53.0,120.0,8.0,0.0
1232,53.0,0.0,120.0,8.0,0.0
1233,53.0,0.0,120.0,6.0,0.0
1234,41.0,0.0,120.0,7.0,0.0
1235,81.0,60.0,60.0,1.0,0.0
1236,82.0,1.0,60.0,1.0,0.0
1237,79.0,56.0,120.0,3.0,0.0
1238,52.0,8.0,120.0,8.0,0.0
1239,40.0,0.0,120.0,8.0,0.0
1240,70.0,6.0,60.0,5.0,0.0
1241,79.0,34.0,60.0,1.0,0.0
1242,40.0,0.0,120.0,7.0,0.0
1243,76.0,4.0,120.0,4.0,0.0
1244,52.0,0.0,120.0,6.0,0.0
1245,79.0,0.0,120.0,0.0,0.0
1246,67.0,0.0,60.0,5.0,0.0
1247,82.0,20.0,30.0,1.0,0.0
1248,57.0,9.0,120.0,6.0,0.0
1249,45.0,0.0,120.0,7.0,0.0
1250,64.0,0.0,120.0,5.0,0.0
1251,81.0,52.0,60.0,1.0,0.0
1252,57.0,0.0,120.0,8.0,0.0
1253,76.0,6.0,120.0,4.0,0.0
1254,73.0,0.0,120.0,2.0,0.0
1255,81.0,53.0,150.0,3.0,0.0
1256,81.0,0.0,150.0,0.0,0.0
1257,82.0,2.0,60.0,1.0,0.0
1258,33.0,0.0,120.0,8.0,0.0
1259,45.0,0.0,15.0,8.0,0.0
1260,72.0,3.0,240.0,2.0,0.0
1261,33.0,0.0,120.0,7.0,0.0
1262,45.0,0.0,120.0,6.0,0.0
1263,79.0,53.0,60.0,1.0,0.0
1264,81.0,1.0,60.0,1.0,0.0
1265,78.0,0.0,120.0,0.0,0.0
1266,78.0,33.0,60.0,1.0,0.0
1267,69.0,12.0,60.0,5.0,0.0
1268,38.0,4.0,120.0,8.0,0.0
1269,38.0,0.0,120.0,7.0,0.0
1270,50.0,0.0,120.0,8.0,0.0
1271,50.0,0.0,120.0,6.0,0.0
1272,74.0,0.0,120.0,4.0,0.0
1273,78.0,70.0,120.0,3.0,0.0
1274,66.0,0.0,60.0,5.0,0.0
1275,81.0,11.0,30.0,1.0,0.0
1276,79.0,47.0,60.0,1.0,0.0
1277,79.0,0.0,150.0,3.0,0.0
1278,43.0,0.0,120.0,7.0,0.0
1279,62.0,2.0,120.0,5.0,0.0
1280,74.0,0.0,120.0,4.0,0.0
1281,79.0,38.0,150.0,0.0,0.0
1282,71.0,0.0,120.0,2.0,0.0
1283,55.0,0.0,120.0,6.0,0.0
1284,55.0,0.0,120.0,8.0,0.0
1285,81.0,20.0,60.0,1.0,0.0
1286,31.0,0.0,120.0,7.0,0.0
1287,43.0,0.0,120.0,6.0,0.0
1288,43.0,3.0,15.0,8.0,0.0
1289,77.0,60.0,60.0,1.0,0.0
1290,70.0,0.0,240.0,2.0,0.0
1291,31.0,55.0,120.0,8.0,0.0
1292,79.0,2.0,60.0,1.0,0.0
1293,48.0,0.0,120.0,6.0,0.0
1294,76.0,0.0,120.0,0.0,0.0
1295,72.0,0.0,120.0,4.0,0.0
1296,36.0,0.0,120.0,7.0,0.0
1297,76.0,0.0,120.0,3.0,0.0
1298,67.0,8.0,60.0,5.0,0.0
1299,76.0,35.0,60.0,1.0,0.0
1300,36.0,0.0,120.0,8.0,0.0
1301,48.0,67.0,120.0,8.0,0.0
1302,79.0,17.0,30.0,1.0,0.0
1303,64.0,5.0,60.0,5.0,0.0
1304,72.0,0.0,120.0,4.0,0.0
1305,77.0,47.0,60.0,1.0,0.0
1306,53.0,0.0,120.0,6.0,0.0
1307,69.0,5.0,120.0,2.0,0.0
1308,77.0,1.0,120.0,0.0,0.0
1309,53.0,0.0,120.0,8.0,0.0
1310,41.0,0.0,120.0,7.0,0.0
1311,77.0,0.0,120.0,3.0,0.0
1312,60.0,0.0,120.0,5.0,0.0
1313,79.0,4.0,60.0,1.0,0.0
1314,29.0,4.0,120.0,7.0,0.0
1315,41.0,54.0,15.0,8.0,0.0
1316,29.0,0.0,120.0,8.0,0.0
1317,75.0,56.0,60.0,1.0,0.0
1318,41.0,0.0,120.0,6.0,0.0
1319,68.0,0.0,240.0,2.0,0.0
1320,77.0,60.0,60.0,1.0,0.0
1321,74.0,10.0,60.0,0.0,0.0
1322,65.0,2.0,120.0,5.0,0.0
1323,22.0,0.0,120.0,8.0,0.0
1324,22.0,4.0,120.0,7.0,0.0
1325,74.0,0.0,60.0,3.0,0.0
1326,74.0,46.0,60.0,1.0,0.0
1327,34.0,0.0,120.0,6.0,0.0
1328,70.0,0.0,180.0,4.0,0.0
1329,72.0,0.0,60.0,3.0,0.0
1330,75.0,54.0,60.0,1.0,0.0
1331,72.0,1.0,60.0,0.0,0.0
1332,34.0,0.0,15.0,8.0,0.0
1333,46.0,0.0,120.0,8.0,0.0
1334,66.0,0.0,120.0,2.0,0.0
1335,70.0,0.0,60.0,3.0,0.0
1336,74.0,3.0,60.0,1.0,0.0
1337,34.0,0.0,120.0,7.0,0.0
1338,46.0,0.0,120.0,6.0,0.0
1339,70.0,43.0,60.0,0.0,0.0
1340,58.0,9.0,60.0,5.0,0.0
1341,72.0,58.0,60.0,1.0,0.0
1342,66.0,2.0,60.0,4.0,0.0
1343,69.0,5.0,60.0,3.0,0.0
1344,69.0,0.0,60.0,0.0,0.0
1345,58.0,0.0,120.0,5.0,0.0
1346,67.0,48.0,60.0,0.0,0.0
1347,70.0,2.0,60.0,1.0,0.0
1348,67.0,0.0,60.0,3.0,0.0
1349,39.0,0.0,60.0,7.0,0.0
1350,51.0,0.0,60.0,8.0,0.0
1351,51.0,1.0,60.0,6.0,0.0
1352,67.0,9.0,60.0,4.0,0.0
1353,39.0,0.0,60.0,8.0,0.0
1354,67.0,1.0,180.0,2.0,0.0
1355,38.0,0.0,60.0,8.0,0.0
1356,70.0,52.0,60.0,0.0,0.0
1357,70.0,0.0,60.0,3.0,0.0
1358,74.0,3.0,60.0,1.0,0.0
1359,50.0,1.0,60.0,6.0,0.0
1360,65.0,4.0,60.0,4.0,0.0
1361,38.0,0.0,60.0,7.0,0.0
1362,50.0,0.0,60.0,8.0,0.0
1363,39.0,0.0,60.0,8.0,0.0
1364,51.0,0.0,60.0,8.0,0.0
1365,72.0,0.0,60.0,3.0,0.0
1366,51.0,0.0,60.0,6.0,0.0
1367,57.0,0.0,60.0,5.0,0.0
1368,39.0,0.0,60.0,7.0,0.0
1369,72.0,40.0,60.0,0.0,0.0
1370,63.0,0.0,60.0,4.0,0.0
1371,79.0,3.0,60.0,1.0,0.0
1372,69.0,11.0,60.0,2.0,0.0
1373,78.0,5.0,30.0,1.0,0.0
1374,75.0,5.0,60.0,0.0,0.0
1375,60.0,2.0,60.0,5.0,0.0
1376,36.0,7.0,60.0,8.0,0.0
1377,48.0,0.0,60.0,8.0,0.0
1378,75.0,0.0,60.0,3.0,0.0
1379,75.0,0.0,60.0,4.0,0.0
1380,36.0,0.0,60.0,7.0,0.0
1381,48.0,0.0,60.0,6.0,0.0
1382,70.0,12.0,20.0,2.0,0.0
1383,79.0,3.0,20.0,1.0,0.0
1384,50.0,0.0,120.0,6.0,0.0
1385,38.0,0.0,120.0,7.0,0.0
1386,50.0,0.0,120.0,8.0,0.0
1387,74.0,60.0,60.0,4.0,0.0
1388,69.0,0.0,180.0,3.0,0.0
1389,54.0,0.0,120.0,5.0,0.0
1390,69.0,4.0,180.0,0.0,0.0
1391,69.0,13.0,15.0,2.0,0.0
1392,78.0,1.0,15.0,1.0,0.0
1393,70.0,3.0,20.0,2.0,0.0
1394,79.0,14.0,20.0,1.0,0.0
1395,69.0,3.0,150.0,2.0,0.0
1396,78.0,30.0,150.0,1.0,0.0
1397,75.0,3.0,60.0,4.0,0.0
1398,26.0,0.0,120.0,8.0,0.0
1399,38.0,54.0,15.0,8.0,0.0
1400,38.0,54.0,120.0,6.0,0.0
1401,26.0,0.0,120.0,7.0,0.0
1402,72.0,10.0,60.0,4.0,0.0
1403,62.0,6.0,120.0,5.0,0.0
1404,79.0,7.0,30.0,1.0,0.0
1405,67.0,3.0,60.0,2.0,0.0
1406,74.0,0.0,60.0,4.0,0.0
1407,67.0,0.0,60.0,3.0,0.0
1408,67.0,6.0,60.0,0.0,0.0
1409,67.0,6.0,120.0,3.0,0.0
1410,43.0,0.0,120.0,8.0,0.0
1411,79.0,60.0,120.0,1.0,0.0
1412,43.0,0.0,120.0,6.0,0.0
1413,70.0,0.0,120.0,4.0,0.0
1414,31.0,0.0,120.0,8.0,0.0
1415,67.0,0.0,120.0,0.0,0.0
1416,31.0,4.0,120.0,7.0,0.0
1417,67.0,7.0,90.0,2.0,0.0
1418,62.0,43.0,60.0,5.0,0.0
1419,70.0,60.0,60.0,2.0,0.0
1420,67.0,0.0,120.0,0.0,0.0
1421,74.0,0.0,60.0,1.0,0.0
1422,72.0,5.0,60.0,2.0,0.0
1423,75.0,55.0,60.0,1.0,0.0
1424,74.0,54.0,60.0,1.0,0.0
1425,55.0,0.0,120.0,0.0,0.0
1426,70.0,6.0,60.0,2.0,0.0
1427,75.0,56.0,60.0,1.0,0.0
1428,72.0,5.0,60.0,2.0,0.0
1429,74.0,59.0,120.0,2.0,0.0
1430,77.0,25.0,90.0,1.0,0.0
1431,62.0,32.0,60.0,0.0,0.0
1432,63.0,2.0,60.0,0.0,0.0
1433,41.0,0.0,120.0,8.0,0.0
1434,53.0,7.0,120.0,8.0,0.0
1435,69.0,0.0,60.0,4.0,0.0
1436,69.0,11.0,60.0,2.0,0.0
1437,72.0,42.0,60.0,3.0,0.0
1438,41.0,0.0,120.0,7.0,0.0
1439,65.0,0.0,120.0,5.0,0.0
1440,72.0,0.0,60.0,1.0,0.0
1441,53.0,0.0,120.0,6.0,0.0
1442,65.0,1.0,60.0,0.0,0.0
1443,74.0,56.0,60.0,0.0,0.0
1444,74.0,1.0,60.0,1.0,0.0
1445,74.0,0.0,60.0,3.0,0.0
1446,70.0,3.0,60.0,4.0,0.0
1447,70.0,0.0,60.0,2.0,0.0
1448,41.0,3.0,120.0,8.0,0.0
1449,72.0,0.0,60.0,2.0,0.0
1450,72.0,2.0,60.0,4.0,0.0
1451,29.0,0.0,120.0,8.0,0.0
1452,75.0,55.0,60.0,1.0,0.0
1453,75.0,0.0,60.0,3.0,0.0
1454,65.0,0.0,120.0,5.0,0.0
1455,41.0,0.0,120.0,6.0,0.0
1456,75.0,0.0,60.0,0.0,0.0
1457,29.0,0.0,120.0,7.0,0.0
1458,69.0,0.0,60.0,4.0,0.0
1459,72.0,3.0,60.0,0.0,0.0
1460,72.0,51.0,60.0,1.0,0.0
1461,72.0,0.0,60.0,3.0,0.0
1462,69.0,6.0,60.0,2.0,0.0
1463,70.0,0.0,120.0,4.0,0.0
1464,34.0,0.0,120.0,6.0,0.0
1465,65.0,7.0,120.0,5.0,0.0
1466,74.0,8.0,90.0,1.0,0.0
1467,34.0,0.0,120.0,8.0,0.0
1468,22.0,53.0,120.0,7.0,0.0
1469,22.0,0.0,120.0,8.0,0.0
1470,70.0,36.0,60.0,2.0,0.0
1471,74.0,16.0,90.0,0.0,0.0
1472,74.0,0.0,90.0,3.0,0.0
1473,65.0,5.0,120.0,0.0,0.0
1474,72.0,0.0,60.0,1.0,0.0
1475,69.0,55.0,60.0,2.0,0.0
1476,70.0,2.0,60.0,2.0,0.0
1477,74.0,58.0,60.0,1.0,0.0
1478,53.0,98.0,120.0,0.0,0.0
1479,72.0,1.0,60.0,2.0,0.0
1480,75.0,59.0,60.0,1.0,0.0
1481,72.0,0.0,60.0,1.0,0.0
1482,69.0,5.0,60.0,2.0,0.0
1483,74.0,7.0,90.0,1.0,0.0
1484,70.0,60.0,120.0,2.0,0.0
1485,58.0,10.0,120.0,0.0,0.0
1486,71.0,5.0,60.0,2.0,0.0
1487,43.0,0.0,120.0,8.0,0.0
1488,74.0,8.0,60.0,3.0,0.0
1489,55.0,2.0,120.0,6.0,0.0
1490,71.0,0.0,60.0,4.0,0.0
1491,67.0,0.0,120.0,5.0,0.0
1492,74.0,0.0,60.0,1.0,0.0
1493,43.0,0.0,120.0,7.0,0.0
1494,55.0,0.0,120.0,8.0,0.0
1495,74.0,47.0,60.0,0.0,0.0
1496,75.0,0.0,60.0,1.0,0.0
1497,75.0,2.0,60.0,3.0,0.0
1498,72.0,0.0,60.0,2.0,0.0
1499,75.0,56.0,60.0,0.0,0.0
1500,72.0,0.0,60.0,4.0,0.0
1501,74.0,4.0,60.0,2.0,0.0
1502,31.0,0.0,120.0,7.0,0.0
1503,67.0,0.0,120.0,5.0,0.0
1504,31.0,2.0,120.0,8.0,0.0
1505,77.0,1.0,60.0,3.0,0.0
1506,43.0,0.0,120.0,8.0,0.0
1507,77.0,0.0,60.0,1.0,0.0
1508,43.0,0.0,120.0,6.0,0.0
1509,74.0,0.0,60.0,4.0,0.0
1510,77.0,53.0,60.0,0.0,0.0
1511,71.0,5.0,60.0,4.0,0.0
1512,71.0,0.0,60.0,2.0,0.0
1513,74.0,0.0,60.0,1.0,0.0
1514,74.0,0.0,60.0,0.0,0.0
1515,74.0,55.0,60.0,3.0,0.0
1516,75.0,5.0,60.0,3.0,0.0
1517,75.0,52.0,60.0,0.0,0.0
1518,72.0,3.0,60.0,2.0,0.0
1519,36.0,0.0,120.0,6.0,0.0
1520,72.0,0.0,60.0,4.0,0.0
1521,67.0,0.0,120.0,5.0,0.0
1522,24.0,0.0,120.0,7.0,0.0
1523,24.0,0.0,120.0,8.0,0.0
1524,75.0,0.0,60.0,1.0,0.0
1525,74.0,3.0,60.0,1.0,0.0
1526,70.0,0.0,60.0,4.0,0.0
1527,74.0,51.0,60.0,0.0,0.0
1528,74.0,0.0,60.0,3.0,0.0
1529,70.0,3.0,60.0,2.0,0.0
1530,60.0,0.0,60.0,5.0,0.0
1531,68.0,5.0,60.0,2.0,0.0
1532,36.0,3.0,15.0,8.0,0.0
1533,36.0,1.0,120.0,7.0,0.0
1534,77.0,53.0,60.0,3.0,0.0
1535,48.0,0.0,120.0,6.0,0.0
1536,77.0,0.0,60.0,1.0,0.0
1537,68.0,0.0,60.0,4.0,0.0
1538,48.0,0.0,120.0,8.0,0.0
1539,77.0,2.0,60.0,0.0,0.0
1540,75.0,47.0,60.0,1.0,0.0
1541,59.0,8.0,60.0,5.0,0.0
1542,67.0,0.0,60.0,2.0,0.0
1543,75.0,0.0,60.0,3.0,0.0
1544,67.0,0.0,60.0,4.0,0.0
1545,75.0,1.0,60.0,0.0,0.0
1546,32.0,0.0,120.0,7.0,0.0
1547,32.0,0.0,120.0,8.0,0.0
1548,44.0,0.0,120.0,8.0,0.0
1549,74.0,53.0,60.0,3.0,0.0
1550,74.0,3.0,60.0,0.0,0.0
1551,74.0,0.0,60.0,1.0,0.0
1552,60.0,3.0,120.0,5.0,0.0
1553,63.0,0.0,60.0,2.0,0.0
1554,63.0,7.0,60.0,4.0,0.0
1555,44.0,2.0,120.0,6.0,0.0
1556,72.0,89.0,60.0,3.0,0.0
1557,72.0,0.0,60.0,1.0,0.0
1558,72.0,0.0,60.0,0.0,0.0
1559,65.0,0.0,60.0,2.0,0.0
1560,65.0,0.0,60.0,4.0,0.0
1561,71.0,0.0,90.0,1.0,0.0
1562,67.0,0.0,120.0,2.0,0.0
1563,43.0,0.0,120.0,6.0,0.0
1564,62.0,0.0,120.0,5.0,0.0
1565,71.0,5.0,120.0,0.0,0.0
1566,67.0,0.0,120.0,4.0,0.0
1567,71.0,21.0,90.0,3.0,0.0
1568,31.0,0.0,120.0,8.0,0.0
1569,43.0,60.0,120.0,8.0,0.0
1570,31.0,0.0,120.0,7.0,0.0
1571,53.0,54.0,60.0,0.0,0.0
1572,77.0,3.0,60.0,1.0,0.0
1573,68.0,3.0,60.0,2.0,0.0
1574,67.0,4.0,60.0,2.0,0.0
1575,75.0,51.0,60.0,1.0,0.0
1576,55.0,5.0,60.0,0.0,0.0
1577,65.0,2.0,60.0,2.0,0.0
1578,56.0,2.0,60.0,0.0,0.0
1579,74.0,56.0,60.0,1.0,0.0
1580,75.0,5.0,60.0,2.0,0.0
1581,72.0,7.0,60.0,1.0,0.0
1582,53.0,64.0,60.0,0.0,0.0
1583,74.0,59.0,120.0,2.0,0.0
1584,55.0,2.0,120.0,0.0,0.0
1585,71.0,37.0,60.0,1.0,0.0
1586,41.0,0.0,60.0,8.0,0.0
1587,29.0,5.0,60.0,8.0,0.0
1588,41.0,0.0,60.0,6.0,0.0
1589,29.0,0.0,60.0,7.0,0.0
1590,27.0,54.0,60.0,7.0,0.0
1591,60.0,0.0,360.0,5.0,0.0
1592,79.0,0.0,360.0,2.0,0.0
1593,39.0,0.0,60.0,8.0,0.0
1594,72.0,0.0,300.0,0.0,0.0
1595,72.0,12.0,300.0,3.0,0.0
1596,72.0,1.0,60.0,1.0,0.0
1597,39.0,0.0,60.0,6.0,0.0
1598,67.0,4.0,60.0,4.0,0.0
1599,27.0,0.0,60.0,8.0,0.0
1600,26.0,54.0,60.0,7.0,0.0
1601,70.0,2.0,60.0,1.0,0.0
1602,26.0,0.0,60.0,8.0,0.0
1603,38.0,0.0,60.0,6.0,0.0
1604,65.0,6.0,60.0,4.0,0.0
1605,38.0,0.0,60.0,8.0,0.0
1606,40.0,3.0,60.0,8.0,0.0
1607,64.0,4.0,60.0,4.0,0.0
1608,28.0,0.0,60.0,7.0,0.0
1609,68.0,53.0,60.0,1.0,0.0
1610,40.0,0.0,60.0,6.0,0.0
1611,28.0,0.0,60.0,8.0,0.0
1612,67.0,1.0,60.0,1.0,0.0
1613,24.0,0.0,60.0,7.0,0.0
1614,24.0,44.0,60.0,8.0,0.0
1615,67.0,3.0,60.0,4.0,0.0
1616,36.0,0.0,60.0,8.0,0.0
1617,36.0,0.0,60.0,6.0,0.0
1618,29.0,1.0,60.0,8.0,0.0
1619,41.0,0.0,60.0,6.0,0.0
1620,68.0,53.0,60.0,1.0,0.0
1621,29.0,0.0,60.0,7.0,0.0
1622,41.0,0.0,60.0,8.0,0.0
1623,65.0,6.0,60.0,4.0,0.0
1624,70.0,0.0,60.0,0.0,0.0
1625,70.0,53.0,60.0,3.0,0.0
1626,40.0,0.0,60.0,8.0,0.0
1627,72.0,3.0,60.0,1.0,0.0
1628,28.0,0.0,60.0,8.0,0.0
1629,67.0,2.0,60.0,4.0,0.0
1630,40.0,2.0,60.0,6.0,0.0
1631,28.0,0.0,60.0,7.0,0.0
1632,68.0,1.0,60.0,4.0,0.0
1633,29.0,0.0,60.0,7.0,0.0
1634,77.0,10.0,300.0,2.0,0.0
1635,29.0,0.0,60.0,8.0,0.0
1636,41.0,0.0,60.0,8.0,0.0
1637,77.0,1.0,60.0,1.0,0.0
1638,41.0,8.0,60.0,6.0,0.0
1639,68.0,50.0,60.0,3.0,0.0
1640,68.0,0.0,60.0,0.0,0.0
1641,62.0,2.0,360.0,5.0,0.0
1642,43.0,0.0,60.0,6.0,0.0
1643,31.0,0.0,60.0,7.0,0.0
1644,67.0,0.0,60.0,0.0,0.0
1645,31.0,4.0,60.0,8.0,0.0
1646,43.0,0.0,60.0,8.0,0.0
1647,75.0,45.0,60.0,1.0,0.0
1648,67.0,0.0,60.0,3.0,0.0
1649,70.0,6.0,60.0,4.0,0.0
1650,32.0,0.0,60.0,7.0,0.0
1651,44.0,54.0,60.0,6.0,0.0
1652,44.0,0.0,60.0,8.0,0.0
1653,74.0,1.0,60.0,1.0,0.0
1654,65.0,0.0,60.0,3.0,0.0
1655,65.0,7.0,60.0,0.0,0.0
1656,32.0,0.0,60.0,8.0,0.0
1657,68.0,1.0,120.0,4.0,0.0
1658,63.0,47.0,60.0,3.0,0.0
1659,29.0,0.0,60.0,7.0,0.0
1660,72.0,3.0,60.0,1.0,0.0
1661,63.0,0.0,60.0,0.0,0.0
1662,41.0,0.0,60.0,8.0,0.0
1663,29.0,0.0,60.0,8.0,0.0
1664,41.0,12.0,60.0,6.0,0.0
1665,47.0,54.0,120.0,8.0,0.0
1666,67.0,0.0,180.0,4.0,0.0
1667,62.0,0.0,120.0,0.0,0.0
1668,62.0,2.0,120.0,3.0,0.0
1669,35.0,0.0,120.0,7.0,0.0
1670,47.0,0.0,120.0,6.0,0.0
1671,35.0,0.0,120.0,8.0,0.0
1672,79.0,50.0,60.0,1.0,0.0
1673,80.0,0.0,60.0,2.0,0.0
1674,77.0,2.0,60.0,1.0,0.0
1675,79.0,8.0,60.0,2.0,0.0
1676,71.0,5.0,120.0,0.0,0.0
1677,43.0,0.0,120.0,8.0,0.0
1678,43.0,3.0,120.0,6.0,0.0
1679,31.0,0.0,120.0,8.0,0.0
1680,31.0,0.0,120.0,7.0,0.0
1681,75.0,49.0,60.0,1.0,0.0
1682,63.0,2.0,120.0,5.0,0.0
1683,71.0,0.0,120.0,3.0,0.0
1684,68.0,0.0,60.0,4.0,0.0
1685,77.0,0.0,60.0,2.0,0.0
1686,74.0,53.0,60.0,1.0,0.0
1687,72.0,0.0,180.0,0.0,0.0
1688,67.0,2.0,60.0,4.0,0.0
1689,48.0,0.0,120.0,6.0,0.0
1690,48.0,0.0,120.0,8.0,0.0
1691,72.0,1.0,180.0,3.0,0.0
1692,63.0,0.0,120.0,5.0,0.0
1693,36.0,0.0,120.0,8.0,0.0
1694,72.0,58.0,60.0,1.0,0.0
1695,75.0,0.0,60.0,2.0,0.0
1696,36.0,0.0,120.0,7.0,0.0
1697,74.0,0.0,60.0,2.0,0.0
1698,65.0,2.0,60.0,4.0,0.0
1699,80.0,58.0,60.0,1.0,0.0
1700,75.0,0.0,60.0,2.0,0.0
1701,41.0,0.0,120.0,8.0,0.0
1702,53.0,0.0,120.0,6.0,0.0
1703,79.0,37.0,60.0,1.0,0.0
1704,41.0,0.0,120.0,7.0,0.0
1705,63.0,12.0,60.0,4.0,0.0
1706,53.0,1.0,120.0,8.0,0.0
1707,60.0,4.0,120.0,5.0,0.0
1708,77.0,1.0,60.0,1.0,0.0
1709,72.0,10.0,60.0,2.0,0.0
1710,68.0,0.0,60.0,4.0,0.0
1711,74.0,0.0,60.0,3.0,0.0
1712,74.0,19.0,60.0,0.0,0.0
1713,43.0,0.0,120.0,7.0,0.0
1714,75.0,18.0,90.0,1.0,0.0
1715,75.0,1.0,90.0,0.0,0.0
1716,75.0,0.0,90.0,3.0,0.0
1717,72.0,14.0,20.0,2.0,0.0
1718,55.0,3.0,120.0,6.0,0.0
1719,55.0,0.0,120.0,8.0,0.0
1720,67.0,0.0,120.0,4.0,0.0
1721,67.0,7.0,120.0,5.0,0.0
1722,71.0,14.0,15.0,2.0,0.0
1723,72.0,12.0,15.0,2.0,0.0
1724,71.0,17.0,15.0,2.0,0.0
1725,72.0,19.0,15.0,2.0,0.0
1726,71.0,3.0,120.0,2.0,0.0
1727,75.0,13.0,20.0,1.0,0.0
1728,75.0,0.0,15.0,3.0,0.0
1729,75.0,0.0,15.0,0.0,0.0
1730,67.0,10.0,120.0,5.0,0.0
1731,65.0,0.0,120.0,4.0,0.0
1732,43.0,0.0,15.0,8.0,0.0
1733,31.0,110.0,120.0,8.0,0.0
1734,31.0,0.0,120.0,7.0,0.0
1735,43.0,0.0,120.0,6.0,0.0
1736,74.0,0.0,15.0,1.0,0.0
1737,74.0,13.0,15.0,0.0,0.0
1738,74.0,0.0,15.0,3.0,0.0
1739,75.0,27.0,20.0,1.0,0.0
1740,75.0,4.0,15.0,3.0,0.0
1741,75.0,0.0,15.0,0.0,0.0
1742,74.0,0.0,30.0,3.0,0.0
1743,74.0,29.0,30.0,1.0,0.0
1744,74.0,6.0,30.0,0.0,0.0
1745,72.0,0.0,30.0,3.0,0.0
1746,72.0,14.0,30.0,0.0,0.0
1747,72.0,1.0,60.0,2.0,0.0
1748,72.0,0.0,30.0,1.0,0.0
1749,72.0,0.0,120.0,3.0,0.0
1750,72.0,65.0,120.0,0.0,0.0
1751,24.0,1.0,120.0,7.0,0.0
1752,67.0,3.0,120.0,5.0,0.0
1753,63.0,0.0,120.0,4.0,0.0
1754,72.0,12.0,1440.0,1.0,0.0
1755,72.0,9.0,720.0,2.0,0.0
1756,36.0,0.0,120.0,6.0,0.0
1757,24.0,0.0,120.0,8.0,0.0
1758,36.0,0.0,120.0,8.0,0.0
1759,48.0,49.0,60.0,8.0,0.0
1760,60.0,1.0,120.0,5.0,0.0
1761,48.0,0.0,60.0,7.0,0.0
1762,75.0,60.0,120.0,0.0,0.0
1763,75.0,0.0,120.0,3.0,0.0
1764,60.0,0.0,60.0,6.0,0.0
1765,60.0,0.0,60.0,8.0,0.0
1766,67.0,0.0,120.0,4.0,0.0
1767,61.0,2.0,60.0,6.0,0.0
1768,49.0,0.0,60.0,8.0,0.0
1769,61.0,0.0,60.0,8.0,0.0
1770,49.0,0.0,60.0,7.0,0.0
1771,60.0,0.0,60.0,8.0,0.0
1772,48.0,64.0,60.0,8.0,0.0
1773,48.0,0.0,60.0,7.0,0.0
1774,60.0,0.0,60.0,6.0,0.0
1775,49.0,61.0,60.0,7.0,0.0
1776,61.0,0.0,60.0,6.0,0.0
1777,49.0,0.0,60.0,8.0,0.0
1778,61.0,0.0,60.0,8.0,0.0
1779,58.0,54.0,60.0,6.0,0.0
1780,64.0,5.0,120.0,5.0,0.0
1781,67.0,0.0,120.0,4.0,0.0
1782,79.0,56.0,120.0,0.0,0.0
1783,79.0,0.0,120.0,3.0,0.0
1784,46.0,0.0,60.0,7.0,0.0
1785,46.0,0.0,60.0,8.0,0.0
1786,58.0,0.0,60.0,8.0,0.0
1787,44.0,0.0,60.0,8.0,0.0
1788,56.0,0.0,60.0,8.0,0.0
1789,56.0,0.0,60.0,6.0,0.0
1790,44.0,2.0,60.0,7.0,0.0
1791,67.0,2.0,120.0,5.0,0.0
1792,72.0,0.0,120.0,4.0,0.0
1793,58.0,57.0,60.0,6.0,0.0
1794,58.0,0.0,60.0,8.0,0.0
1795,76.0,0.0,120.0,3.0,0.0
1796,46.0,0.0,60.0,8.0,0.0
1797,76.0,61.0,120.0,0.0,0.0
1798,46.0,0.0,60.0,7.0,0.0
1799,61.0,0.0,60.0,6.0,0.0
1800,61.0,0.0,60.0,8.0,0.0
1801,49.0,4.0,60.0,8.0,0.0
1802,49.0,0.0,60.0,7.0,0.0
1803,60.0,0.0,60.0,8.0,0.0
1804,48.0,0.0,60.0,7.0,0.0
1805,60.0,53.0,60.0,6.0,0.0
1806,48.0,0.0,60.0,8.0,0.0
1807,46.0,0.0,60.0,8.0,0.0
1808,58.0,0.0,60.0,8.0,0.0
1809,46.0,0.0,60.0,7.0,0.0
1810,58.0,48.0,60.0,6.0,0.0
1811,44.0,0.0,60.0,7.0,0.0
1812,72.0,0.0,120.0,4.0,0.0
1813,56.0,53.0,60.0,8.0,0.0
1814,77.0,0.0,120.0,3.0,0.0
1815,77.0,59.0,120.0,0.0,0.0
1816,44.0,0.0,60.0,8.0,0.0
1817,56.0,0.0,60.0,6.0,0.0
1818,65.0,0.0,120.0,5.0,0.0
1819,43.0,10.0,60.0,8.0,0.0
1820,55.0,0.0,60.0,6.0,0.0
1821,43.0,0.0,60.0,7.0,0.0
1822,70.0,1.0,60.0,2.0,0.0
1823,55.0,0.0,60.0,8.0,0.0
1824,60.0,57.0,120.0,5.0,0.0
1825,56.0,0.0,60.0,8.0,0.0
1826,44.0,0.0,60.0,8.0,0.0
1827,44.0,53.0,60.0,7.0,0.0
1828,80.0,3.0,120.0,3.0,0.0
1829,77.0,0.0,120.0,4.0,0.0
1830,80.0,0.0,120.0,0.0,0.0
1831,56.0,0.0,60.0,6.0,0.0
1832,72.0,0.0,60.0,2.0,0.0
1833,46.0,0.0,60.0,8.0,0.0
1834,46.0,4.0,60.0,7.0,0.0
1835,73.0,0.0,60.0,2.0,0.0
1836,58.0,0.0,60.0,6.0,0.0
1837,58.0,0.0,60.0,8.0,0.0
1838,44.0,0.0,60.0,8.0,0.0
1839,56.0,0.0,60.0,6.0,0.0
1840,56.0,0.0,60.0,8.0,0.0
1841,44.0,3.0,60.0,7.0,0.0
1842,72.0,57.0,60.0,2.0,0.0
1843,58.0,0.0,60.0,6.0,0.0
1844,46.0,0.0,60.0,7.0,0.0
1845,73.0,60.0,60.0,2.0,0.0
1846,58.0,0.0,60.0,8.0,0.0
1847,46.0,3.0,60.0,8.0,0.0
1848,67.0,9.0,120.0,5.0,0.0
1849,43.0,0.0,60.0,8.0,0.0
1850,55.0,0.0,60.0,8.0,0.0
1851,76.0,0.0,120.0,4.0,0.0
1852,70.0,4.0,60.0,2.0,0.0
1853,43.0,0.0,60.0,7.0,0.0
1854,82.0,0.0,120.0,0.0,0.0
1855,55.0,56.0,60.0,6.0,0.0
1856,82.0,45.0,120.0,3.0,0.0
1857,41.0,0.0,60.0,7.0,0.0
1858,53.0,0.0,60.0,8.0,0.0
1859,68.0,0.0,60.0,2.0,0.0
1860,41.0,0.0,60.0,8.0,0.0
1861,53.0,6.0,60.0,6.0,0.0
1862,70.0,4.0,60.0,2.0,0.0
1863,58.0,0.0,120.0,5.0,0.0
1864,55.0,43.0,60.0,6.0,0.0
1865,67.0,8.0,120.0,4.0,0.0
1866,43.0,0.0,60.0,8.0,0.0
1867,43.0,0.0,60.0,7.0,0.0
1868,76.0,13.0,120.0,0.0,0.0
1869,76.0,0.0,120.0,3.0,0.0
1870,55.0,0.0,60.0,8.0,0.0
1871,46.0,0.0,60.0,8.0,0.0
1872,58.0,0.0,60.0,6.0,0.0
1873,46.0,52.0,60.0,7.0,0.0
1874,73.0,0.0,60.0,2.0,0.0
1875,58.0,0.0,60.0,8.0,0.0
1876,56.0,0.0,60.0,8.0,0.0
1877,72.0,9.0,60.0,2.0,0.0
1878,44.0,0.0,60.0,8.0,0.0
1879,44.0,39.0,60.0,7.0,0.0
1880,56.0,0.0,60.0,6.0,0.0
1881,55.0,50.0,60.0,6.0,0.0
1882,70.0,13.0,60.0,2.0,0.0
1883,55.0,0.0,60.0,8.0,0.0
1884,43.0,0.0,60.0,8.0,0.0
1885,43.0,0.0,60.0,7.0,0.0
1886,77.0,5.0,60.0,3.0,0.0
1887,41.0,0.0,120.0,8.0,0.0
1888,53.0,4.0,120.0,8.0,0.0
1889,73.0,52.0,60.0,1.0,0.0
1890,77.0,0.0,60.0,0.0,0.0
1891,41.0,0.0,120.0,7.0,0.0
1892,65.0,0.0,120.0,5.0,0.0
1893,53.0,0.0,120.0,6.0,0.0
1894,68.0,0.0,120.0,4.0,0.0
1895,68.0,0.0,120.0,2.0,0.0
1896,75.0,51.0,60.0,1.0,0.0
1897,75.0,0.0,60.0,0.0,0.0
1898,75.0,5.0,60.0,3.0,0.0
1899,77.0,24.0,90.0,1.0,0.0
1900,68.0,0.0,120.0,5.0,0.0
1901,77.0,0.0,90.0,3.0,0.0
1902,77.0,9.0,90.0,0.0,0.0
1903,29.0,0.0,120.0,8.0,0.0
1904,73.0,27.0,60.0,4.0,0.0
1905,77.0,12.0,120.0,2.0,0.0
1906,41.0,0.0,120.0,8.0,0.0
1907,29.0,0.0,120.0,7.0,0.0
1908,41.0,61.0,120.0,6.0,0.0
1909,73.0,53.0,60.0,1.0,0.0
1910,75.0,54.0,60.0,1.0,0.0
1911,77.0,0.0,60.0,2.0,0.0
1912,77.0,56.0,60.0,3.0,0.0
1913,77.0,0.0,60.0,0.0,0.0
1914,56.0,0.0,120.0,5.0,0.0
1915,53.0,0.0,120.0,8.0,0.0
1916,53.0,0.0,120.0,6.0,0.0
1917,41.0,0.0,120.0,7.0,0.0
1918,77.0,3.0,120.0,1.0,0.0
1919,41.0,1.0,120.0,8.0,0.0
1920,73.0,0.0,60.0,4.0,0.0
1921,79.0,0.0,60.0,2.0,0.0
1922,79.0,59.0,60.0,3.0,0.0
1923,75.0,1.0,60.0,4.0,0.0
1924,79.0,0.0,60.0,0.0,0.0
1925,80.0,28.0,90.0,0.0,0.0
1926,77.0,30.0,60.0,4.0,0.0
1927,80.0,0.0,90.0,3.0,0.0
1928,80.0,0.0,120.0,2.0,0.0
1929,29.0,0.0,120.0,8.0,0.0
1930,41.0,0.0,120.0,6.0,0.0
1931,29.0,0.0,120.0,7.0,0.0
1932,61.0,9.0,120.0,5.0,0.0
1933,41.0,2.0,120.0,8.0,0.0
1934,77.0,54.0,60.0,1.0,0.0
1935,79.0,61.0,60.0,1.0,0.0
1936,80.0,92.0,60.0,1.0,0.0
1937,67.0,0.0,120.0,4.0,0.0
1938,71.0,4.0,120.0,0.0,0.0
1939,71.0,0.0,120.0,3.0,0.0
1940,71.0,60.0,120.0,2.0,0.0
1941,31.0,0.0,120.0,8.0,0.0
1942,43.0,0.0,120.0,8.0,0.0
1943,62.0,0.0,120.0,5.0,0.0
1944,71.0,17.0,90.0,1.0,0.0
1945,31.0,3.0,120.0,7.0,0.0
1946,43.0,0.0,120.0,6.0,0.0
1947,79.0,2.0,360.0,1.0,0.0
1948,72.0,49.0,120.0,0.0,0.0
1949,75.0,60.0,60.0,2.0,0.0
1950,77.0,11.0,60.0,2.0,0.0
1951,74.0,60.0,60.0,2.0,0.0
1952,70.0,52.0,120.0,0.0,0.0
1953,75.0,8.0,60.0,2.0,0.0
1954,73.0,60.0,60.0,2.0,0.0
1955,69.0,53.0,120.0,0.0,0.0
1956,76.0,5.0,60.0,2.0,0.0
1957,74.0,13.0,120.0,0.0,0.0
1958,74.0,60.0,60.0,2.0,0.0
1959,78.0,46.0,120.0,1.0,0.0
1960,75.0,1.0,60.0,2.0,0.0
1961,77.0,10.0,240.0,1.0,0.0
1962,62.0,51.0,120.0,0.0,0.0
1963,72.0,60.0,60.0,2.0,0.0
1964,74.0,9.0,60.0,2.0,0.0
1965,71.0,60.0,60.0,2.0,0.0
1966,67.0,47.0,120.0,0.0,0.0
1967,74.0,3.0,60.0,2.0,0.0
1968,76.0,54.0,120.0,1.0,0.0
1969,72.0,58.0,60.0,2.0,0.0
1970,72.0,2.0,120.0,0.0,0.0
1971,74.0,6.0,60.0,2.0,0.0
1972,70.0,60.0,60.0,2.0,0.0
1973,75.0,46.0,240.0,1.0,0.0
1974,60.0,51.0,120.0,0.0,0.0
1975,72.0,9.0,60.0,2.0,0.0
1976,65.0,3.0,120.0,0.0,0.0
1977,69.0,60.0,60.0,2.0,0.0
1978,72.0,11.0,60.0,2.0,0.0
1979,70.0,7.0,120.0,0.0,0.0
1980,70.0,53.0,60.0,2.0,0.0
1981,74.0,58.0,120.0,1.0,0.0
1982,72.0,2.0,60.0,2.0,0.0
1983,68.0,60.0,60.0,2.0,0.0
1984,73.0,9.0,240.0,1.0,0.0
1985,58.0,38.0,150.0,0.0,0.0
1986,70.0,22.0,60.0,2.0,0.0
1987,63.0,45.0,120.0,0.0,0.0
1988,67.0,60.0,60.0,2.0,0.0
1989,80.0,6.0,60.0,2.0,0.0
1990,71.0,50.0,120.0,1.0,0.0
1991,65.0,52.0,60.0,0.0,0.0
1992,79.0,8.0,60.0,2.0,0.0
1993,67.0,0.0,60.0,0.0,0.0
1994,77.0,5.0,60.0,2.0,0.0
1995,75.0,59.0,60.0,2.0,0.0
1996,68.0,5.0,60.0,0.0,0.0
1997,72.0,3.0,180.0,1.0,0.0
1998,80.0,53.0,60.0,0.0,0.0
1999,80.0,0.0,60.0,3.0,0.0
2000,38.0,0.0,60.0,7.0,0.0
2001,38.0,0.0,60.0,8.0,0.0
2002,71.0,0.0,60.0,2.0,0.0
2003,65.0,7.0,60.0,5.0,0.0
2004,50.0,0.0,60.0,6.0,0.0
2005,71.0,0.0,60.0,4.0,0.0
2006,50.0,1.0,60.0,8.0,0.0
2007,51.0,0.0,60.0,8.0,0.0
2008,39.0,0.0,60.0,7.0,0.0
2009,67.0,0.0,60.0,5.0,0.0
2010,79.0,26.0,60.0,3.0,0.0
2011,39.0,6.0,60.0,8.0,0.0
2012,70.0,0.0,60.0,4.0,0.0
2013,79.0,0.0,60.0,0.0,0.0
2014,72.0,0.0,60.0,2.0,0.0
2015,51.0,0.0,60.0,6.0,0.0
2016,72.0,6.0,60.0,4.0,0.0
2017,80.0,19.0,30.0,2.0,0.0
2018,77.0,0.0,60.0,3.0,0.0
2019,53.0,0.0,60.0,8.0,0.0
2020,68.0,0.0,60.0,5.0,0.0
2021,41.0,0.0,60.0,8.0,0.0
2022,53.0,4.0,60.0,6.0,0.0
2023,77.0,0.0,60.0,0.0,0.0
2024,41.0,0.0,60.0,7.0,0.0
2025,80.0,0.0,60.0,4.0,0.0
2026,74.0,18.0,60.0,1.0,0.0
2027,75.0,0.0,90.0,0.0,0.0
2028,75.0,30.0,90.0,3.0,0.0
2029,72.0,14.0,20.0,2.0,0.0
2030,55.0,0.0,120.0,6.0,0.0
2031,71.0,3.0,180.0,4.0,0.0
2032,55.0,0.0,120.0,8.0,0.0
2033,43.0,0.0,120.0,7.0,0.0
2034,67.0,1.0,120.0,5.0,0.0
2035,75.0,8.0,120.0,1.0,0.0
2036,71.0,17.0,15.0,2.0,0.0
2037,72.0,12.0,15.0,2.0,0.0
2038,71.0,14.0,15.0,2.0,0.0
2039,72.0,0.0,15.0,2.0,0.0
2040,71.0,38.0,120.0,2.0,0.0
2041,75.0,0.0,20.0,3.0,0.0
2042,75.0,11.0,20.0,0.0,0.0
2043,74.0,0.0,15.0,0.0,0.0
2044,74.0,4.0,15.0,3.0,0.0
2045,75.0,0.0,15.0,3.0,0.0
2046,75.0,45.0,15.0,0.0,0.0
2047,65.0,0.0,120.0,5.0,0.0
2048,31.0,0.0,120.0,7.0,0.0
2049,43.0,1.0,120.0,6.0,0.0
2050,74.0,1.0,60.0,1.0,0.0
2051,31.0,0.0,120.0,8.0,0.0
2052,43.0,2.0,15.0,8.0,0.0
2053,74.0,0.0,60.0,0.0,0.0
2054,74.0,0.0,60.0,3.0,0.0
2055,72.0,0.0,60.0,0.0,0.0
2056,72.0,4.0,60.0,3.0,0.0
2057,72.0,7.0,60.0,2.0,0.0
2058,72.0,6.0,60.0,1.0,0.0
2059,72.0,240.0,60.0,4.0,0.0
2060,72.0,2.0,270.0,0.0,0.0
2061,72.0,0.0,270.0,3.0,0.0
2062,48.0,0.0,240.0,6.0,0.0
2063,72.0,99.0,270.0,1.0,0.0
2064,72.0,0.0,240.0,4.0,0.0
2065,72.0,0.0,240.0,2.0,0.0
2066,36.0,0.0,240.0,8.0,0.0
2067,36.0,9.0,240.0,7.0,0.0
2068,48.0,0.0,240.0,8.0,0.0
2069,63.0,9.0,240.0,5.0,0.0
2070,79.0,57.0,120.0,3.0,0.0
2071,67.0,0.0,120.0,5.0,0.0
2072,79.0,0.0,120.0,1.0,0.0
2073,79.0,0.0,120.0,0.0,0.0
2074,34.0,0.0,120.0,8.0,0.0
2075,46.0,0.0,120.0,8.0,0.0
2076,34.0,0.0,120.0,7.0,0.0
2077,74.0,0.0,120.0,2.0,0.0
2078,46.0,1.0,120.0,6.0,0.0
2079,74.0,3.0,120.0,4.0,0.0
2080,67.0,30.0,30.0,1.0,0.0
2081,68.0,30.0,30.0,1.0,0.0
2082,70.0,30.0,30.0,1.0,0.0
2083,72.0,30.0,30.0,1.0,0.0
2084,74.0,30.0,30.0,1.0,0.0
2085,75.0,30.0,30.0,1.0,0.0
2086,77.0,30.0,30.0,1.0,0.0
2087,79.0,30.0,30.0,1.0,0.0
2088,80.0,30.0,30.0,1.0,0.0
2089,82.0,30.0,30.0,1.0,0.0
2090,79.0,30.0,30.0,1.0,0.0
2091,84.0,30.0,30.0,1.0,0.0
2092,82.0,30.0,30.0,1.0,0.0
2093,80.0,30.0,30.0,1.0,0.0
2094,79.0,30.0,30.0,1.0,0.0
2095,77.0,30.0,30.0,1.0,0.0
2096,75.0,30.0,30.0,1.0,0.0
2097,74.0,30.0,30.0,1.0,0.0
2098,72.0,30.0,30.0,1.0,0.0
2099,71.0,30.0,30.0,1.0,0.0
2100,72.0,30.0,30.0,1.0,0.0
2101,71.0,30.0,30.0,1.0,0.0
2102,72.0,150.0,30.0,1.0,0.0
2103,77.0,0.0,240.0,1.0,0.0
2104,77.0,1.0,240.0,0.0,0.0
2105,32.0,0.0,240.0,7.0,0.0
2106,32.0,4.0,240.0,8.0,0.0
2107,68.0,8.0,240.0,5.0,0.0
2108,77.0,0.0,240.0,3.0,0.0
2109,44.0,0.0,240.0,8.0,0.0
2110,44.0,0.0,240.0,6.0,0.0
2111,74.0,15.0,30.0,2.0,0.0
2112,74.0,0.0,30.0,4.0,0.0
2113,72.0,16.0,15.0,4.0,0.0
2114,72.0,0.0,15.0,2.0,0.0
2115,74.0,12.0,15.0,4.0,0.0
2116,74.0,0.0,15.0,2.0,0.0
2117,72.0,0.0,15.0,4.0,0.0
2118,72.0,15.0,15.0,2.0,0.0
2119,74.0,11.0,15.0,2.0,0.0
2120,74.0,0.0,15.0,4.0,0.0
2121,72.0,0.0,15.0,4.0,0.0
2122,72.0,13.0,15.0,2.0,0.0
2123,74.0,0.0,15.0,4.0,0.0
2124,74.0,12.0,15.0,2.0,0.0
2125,72.0,17.0,15.0,4.0,0.0
2126,72.0,0.0,15.0,2.0,0.0
2127,74.0,0.0,15.0,4.0,0.0
2128,74.0,99.0,15.0,2.0,0.0
2129,72.0,0.0,120.0,4.0,0.0
2130,72.0,347.0,120.0,2.0,0.0
2131,43.0,7.0,360.0,8.0,0.0
2132,31.0,0.0,360.0,7.0,0.0
2133,79.0,0.0,360.0,3.0,0.0
2134,43.0,0.0,360.0,6.0,0.0
2135,79.0,0.0,360.0,0.0,0.0
2136,31.0,0.0,360.0,8.0,0.0
2137,79.0,1.0,360.0,1.0,0.0
2138,62.0,0.0,360.0,5.0,0.0
2139,71.0,0.0,360.0,2.0,0.0
2140,71.0,65.0,360.0,4.0,0.0
