,note,step,duration,channel,velocity
0,75.0,240.0,120.0,0.0,0.0
1,77.0,60.0,300.0,0.0,0.0
2,72.0,60.0,120.0,0.0,0.0
3,77.0,60.0,60.0,0.0,0.0
4,75.0,60.0,60.0,0.0,0.0
5,73.0,60.0,60.0,0.0,0.0
6,73.0,60.0,60.0,0.0,0.0
7,72.0,60.0,60.0,0.0,0.0
8,70.0,60.0,60.0,0.0,0.0
9,72.0,60.0,120.0,0.0,0.0
10,75.0,60.0,15.0,0.0,0.0
11,80.0,60.0,60.0,0.0,0.0
12,79.0,60.0,60.0,0.0,0.0
13,77.0,60.0,60.0,0.0,0.0
14,75.0,60.0,60.0,0.0,0.0
15,73.0,60.0,60.0,0.0,0.0
16,72.0,120.0,60.0,0.0,0.0
17,73.0,60.0,780.0,0.0,0.0
18,72.0,60.0,60.0,0.0,0.0
19,70.0,60.0,60.0,0.0,0.0
20,68.0,60.0,60.0,0.0,0.0
21,56.0,60.0,15.0,0.0,0.0
22,55.0,60.0,60.0,0.0,0.0
23,53.0,60.0,60.0,0.0,0.0
24,55.0,60.0,60.0,0.0,0.0
25,58.0,60.0,60.0,0.0,0.0
26,51.0,60.0,60.0,0.0,0.0
27,55.0,60.0,60.0,0.0,0.0
28,56.0,0.0,120.0,0.0,0.0
29,73.0,60.0,60.0,0.0,0.0
30,44.0,0.0,120.0,0.0,0.0
31,72.0,60.0,60.0,0.0,0.0
32,70.0,60.0,60.0,0.0,0.0
33,56.0,0.0,120.0,0.0,0.0
34,70.0,60.0,60.0,0.0,0.0
35,58.0,60.0,120.0,0.0,0.0
36,68.0,60.0,60.0,0.0,0.0
37,67.0,0.0,60.0,0.0,0.0
38,60.0,60.0,120.0,0.0,0.0
39,68.0,0.0,120.0,0.0,0.0
40,72.0,60.0,15.0,0.0,0.0
41,61.0,120.0,120.0,0.0,0.0
42,70.0,60.0,60.0,0.0,0.0
43,68.0,0.0,60.0,0.0,0.0
44,63.0,60.0,1740.0,0.0,0.0
45,67.0,120.0,120.0,0.0,0.0
46,70.0,240.0,120.0,0.0,0.0
47,72.0,60.0,300.0,0.0,0.0
48,79.0,60.0,120.0,0.0,0.0
49,72.0,60.0,60.0,0.0,0.0
50,70.0,60.0,60.0,0.0,0.0
51,68.0,60.0,60.0,0.0,0.0
52,80.0,60.0,15.0,0.0,0.0
53,79.0,60.0,60.0,0.0,0.0
54,77.0,60.0,60.0,0.0,0.0
55,79.0,0.0,120.0,0.0,0.0
56,70.0,60.0,15.0,0.0,0.0
57,75.0,60.0,60.0,0.0,0.0
58,73.0,60.0,60.0,0.0,0.0
59,72.0,60.0,60.0,0.0,0.0
60,70.0,60.0,60.0,0.0,0.0
61,68.0,60.0,60.0,0.0,0.0
62,67.0,120.0,60.0,0.0,0.0
63,68.0,60.0,780.0,0.0,0.0
64,79.0,60.0,60.0,0.0,0.0
65,77.0,60.0,60.0,0.0,0.0
66,75.0,60.0,60.0,0.0,0.0
67,77.0,60.0,780.0,0.0,0.0
68,63.0,60.0,60.0,0.0,0.0
69,62.0,60.0,60.0,0.0,0.0
70,60.0,60.0,60.0,0.0,0.0
71,62.0,60.0,60.0,0.0,0.0
72,65.0,60.0,60.0,0.0,0.0
73,58.0,60.0,60.0,0.0,0.0
74,62.0,60.0,60.0,0.0,0.0
75,63.0,60.0,540.0,0.0,0.0
76,68.0,60.0,60.0,0.0,0.0
77,67.0,60.0,60.0,0.0,0.0
78,65.0,60.0,60.0,0.0,0.0
79,67.0,0.0,480.0,0.0,0.0
80,77.0,60.0,60.0,0.0,0.0
81,75.0,60.0,60.0,0.0,0.0
82,74.0,60.0,60.0,0.0,0.0
83,75.0,60.0,300.0,0.0,0.0
84,65.0,60.0,60.0,0.0,0.0
85,63.0,60.0,60.0,0.0,0.0
86,61.0,60.0,60.0,0.0,0.0
87,60.0,60.0,720.0,0.0,0.0
88,73.0,60.0,60.0,0.0,0.0
89,72.0,60.0,60.0,0.0,0.0
90,61.0,0.0,120.0,0.0,0.0
91,70.0,60.0,60.0,0.0,0.0
92,63.0,60.0,120.0,0.0,0.0
93,69.0,60.0,60.0,0.0,0.0
94,72.0,0.0,60.0,0.0,0.0
95,66.0,60.0,60.0,0.0,0.0
96,75.0,0.0,60.0,0.0,0.0
97,69.0,60.0,60.0,0.0,0.0
98,78.0,60.0,120.0,0.0,0.0
99,70.0,60.0,120.0,0.0,0.0
100,78.0,0.0,60.0,0.0,0.0
101,77.0,60.0,60.0,0.0,0.0
102,75.0,60.0,120.0,0.0,0.0
103,58.0,60.0,780.0,0.0,0.0
104,73.0,0.0,60.0,0.0,0.0
105,69.0,60.0,15.0,0.0,0.0
106,72.0,60.0,60.0,0.0,0.0
107,75.0,60.0,60.0,0.0,0.0
108,73.0,60.0,60.0,0.0,0.0
109,70.0,60.0,120.0,0.0,0.0
110,77.0,0.0,60.0,0.0,0.0
111,68.0,60.0,120.0,0.0,0.0
112,82.0,60.0,60.0,0.0,0.0
113,85.0,60.0,120.0,0.0,0.0
114,67.0,0.0,120.0,0.0,0.0
115,82.0,60.0,60.0,0.0,0.0
116,84.0,60.0,60.0,0.0,0.0
117,65.0,0.0,120.0,0.0,0.0
118,85.0,60.0,60.0,0.0,0.0
119,67.0,60.0,120.0,0.0,0.0
120,76.0,0.0,120.0,0.0,0.0
121,56.0,0.0,60.0,0.0,0.0
122,77.0,0.0,120.0,0.0,0.0
123,68.0,60.0,120.0,0.0,0.0
124,55.0,60.0,60.0,0.0,0.0
125,53.0,0.0,60.0,0.0,0.0
126,52.0,60.0,60.0,0.0,0.0
127,70.0,0.0,120.0,0.0,0.0
128,79.0,0.0,480.0,0.0,0.0
129,55.0,60.0,60.0,0.0,0.0
130,73.0,0.0,60.0,0.0,0.0
131,58.0,60.0,60.0,0.0,0.0
132,76.0,60.0,60.0,0.0,0.0
133,61.0,60.0,120.0,0.0,0.0
134,77.0,60.0,120.0,0.0,0.0
135,61.0,0.0,60.0,0.0,0.0
136,76.0,60.0,120.0,0.0,0.0
137,60.0,60.0,60.0,0.0,0.0
138,58.0,60.0,120.0,0.0,0.0
139,56.0,60.0,60.0,0.0,0.0
140,55.0,60.0,60.0,0.0,0.0
141,72.0,0.0,120.0,0.0,0.0
142,58.0,60.0,60.0,0.0,0.0
143,77.0,0.0,15.0,0.0,0.0
144,56.0,60.0,60.0,0.0,0.0
145,60.0,60.0,60.0,0.0,0.0
146,65.0,60.0,60.0,0.0,0.0
147,80.0,60.0,120.0,0.0,0.0
148,68.0,60.0,120.0,0.0,0.0
149,71.0,60.0,240.0,0.0,0.0
150,74.0,0.0,120.0,0.0,0.0
151,65.0,60.0,60.0,0.0,0.0
152,75.0,60.0,60.0,0.0,0.0
153,67.0,0.0,60.0,0.0,0.0
154,77.0,60.0,120.0,0.0,0.0
155,68.0,0.0,60.0,0.0,0.0
156,62.0,60.0,120.0,0.0,0.0
157,69.0,0.0,60.0,0.0,0.0
158,65.0,60.0,120.0,0.0,0.0
159,70.0,0.0,15.0,0.0,0.0
160,72.0,0.0,60.0,0.0,0.0
161,74.0,60.0,60.0,0.0,0.0
162,70.0,0.0,120.0,0.0,0.0
163,75.0,60.0,60.0,0.0,0.0
164,65.0,60.0,120.0,0.0,0.0
165,77.0,60.0,60.0,0.0,0.0
166,79.0,0.0,60.0,0.0,0.0
167,62.0,60.0,120.0,0.0,0.0
168,80.0,60.0,60.0,0.0,0.0
169,79.0,0.0,60.0,0.0,0.0
170,58.0,120.0,120.0,0.0,0.0
171,80.0,60.0,60.0,0.0,0.0
172,77.0,0.0,60.0,0.0,0.0
173,79.0,0.0,960.0,0.0,0.0
174,63.0,0.0,120.0,0.0,0.0
175,62.0,60.0,60.0,0.0,0.0
176,63.0,60.0,60.0,0.0,0.0
177,65.0,60.0,60.0,0.0,0.0
178,67.0,60.0,60.0,0.0,0.0
179,68.0,60.0,60.0,0.0,0.0
180,70.0,60.0,60.0,0.0,0.0
181,72.0,60.0,60.0,0.0,0.0
182,73.0,60.0,60.0,0.0,0.0
183,72.0,60.0,60.0,0.0,0.0
184,73.0,60.0,60.0,0.0,0.0
185,70.0,60.0,60.0,0.0,0.0
186,72.0,60.0,60.0,0.0,0.0
187,70.0,0.0,60.0,0.0,0.0
188,55.0,60.0,60.0,0.0,0.0
189,56.0,60.0,60.0,0.0,0.0
190,72.0,0.0,60.0,0.0,0.0
191,58.0,60.0,60.0,0.0,0.0
192,74.0,0.0,60.0,0.0,0.0
193,78.0,0.0,120.0,0.0,0.0
194,60.0,60.0,60.0,0.0,0.0
195,62.0,60.0,60.0,0.0,0.0
196,75.0,0.0,15.0,0.0,0.0
197,63.0,60.0,60.0,0.0,0.0
198,65.0,0.0,60.0,0.0,0.0
199,69.0,0.0,240.0,0.0,0.0
200,66.0,60.0,60.0,0.0,0.0
201,72.0,60.0,15.0,0.0,0.0
202,65.0,0.0,60.0,0.0,0.0
203,66.0,60.0,60.0,0.0,0.0
204,63.0,60.0,60.0,0.0,0.0
205,65.0,60.0,360.0,0.0,0.0
206,68.0,60.0,540.0,0.0,0.0
207,75.0,60.0,15.0,0.0,0.0
208,74.0,60.0,60.0,0.0,0.0
209,72.0,60.0,60.0,0.0,0.0
210,74.0,60.0,60.0,0.0,0.0
211,75.0,0.0,60.0,0.0,0.0
212,77.0,60.0,60.0,0.0,0.0
213,63.0,60.0,120.0,0.0,0.0
214,74.0,0.0,60.0,0.0,0.0
215,70.0,0.0,120.0,0.0,0.0
216,62.0,60.0,240.0,0.0,0.0
217,68.0,60.0,60.0,0.0,0.0
218,82.0,60.0,180.0,0.0,0.0
219,67.0,60.0,60.0,0.0,0.0
220,65.0,0.0,60.0,0.0,0.0
221,67.0,0.0,120.0,0.0,0.0
222,63.0,0.0,120.0,0.0,0.0
223,80.0,60.0,60.0,0.0,0.0
224,62.0,0.0,120.0,0.0,0.0
225,58.0,0.0,120.0,0.0,0.0
226,84.0,60.0,60.0,0.0,0.0
227,82.0,60.0,60.0,0.0,0.0
228,80.0,60.0,60.0,0.0,0.0
229,60.0,0.0,120.0,0.0,0.0
230,63.0,0.0,360.0,0.0,0.0
231,79.0,60.0,60.0,0.0,0.0
232,77.0,60.0,60.0,0.0,0.0
233,56.0,0.0,120.0,0.0,0.0
234,75.0,60.0,60.0,0.0,0.0
235,79.0,60.0,60.0,0.0,0.0
236,58.0,0.0,240.0,0.0,0.0
237,70.0,60.0,60.0,0.0,0.0
238,62.0,60.0,120.0,0.0,0.0
239,77.0,60.0,60.0,0.0,0.0
240,68.0,0.0,60.0,0.0,0.0
241,67.0,60.0,60.0,0.0,0.0
242,63.0,120.0,240.0,0.0,0.0
243,70.0,60.0,60.0,0.0,0.0
244,75.0,60.0,60.0,0.0,0.0
245,74.0,0.0,60.0,0.0,0.0
246,51.0,0.0,15.0,0.0,0.0
247,75.0,60.0,240.0,0.0,0.0
248,70.0,60.0,60.0,0.0,0.0
249,68.0,60.0,60.0,0.0,0.0
250,70.0,60.0,120.0,0.0,0.0
251,63.0,0.0,15.0,0.0,0.0
252,72.0,0.0,240.0,0.0,0.0
253,68.0,60.0,60.0,0.0,0.0
254,67.0,60.0,60.0,0.0,0.0
255,51.0,60.0,120.0,0.0,0.0
256,68.0,0.0,300.0,0.0,0.0
257,63.0,60.0,120.0,0.0,0.0
258,70.0,60.0,60.0,0.0,0.0
259,72.0,0.0,60.0,0.0,0.0
260,73.0,60.0,60.0,0.0,0.0
261,51.0,0.0,120.0,0.0,0.0
262,72.0,120.0,60.0,0.0,0.0
263,51.0,0.0,120.0,0.0,0.0
264,73.0,60.0,240.0,0.0,0.0
265,68.0,60.0,60.0,0.0,0.0
266,63.0,0.0,120.0,0.0,0.0
267,67.0,60.0,60.0,0.0,0.0
268,68.0,60.0,120.0,0.0,0.0
269,70.0,0.0,240.0,0.0,0.0
270,63.0,60.0,120.0,0.0,0.0
271,67.0,0.0,60.0,0.0,0.0
272,51.0,60.0,120.0,0.0,0.0
273,65.0,60.0,60.0,0.0,0.0
274,67.0,120.0,300.0,0.0,0.0
275,63.0,0.0,120.0,0.0,0.0
276,68.0,60.0,60.0,0.0,0.0
277,70.0,60.0,60.0,0.0,0.0
278,51.0,0.0,120.0,0.0,0.0
279,71.0,60.0,60.0,0.0,0.0
280,70.0,0.0,60.0,0.0,0.0
281,71.0,0.0,240.0,0.0,0.0
282,51.0,0.0,120.0,0.0,0.0
283,67.0,60.0,60.0,0.0,0.0
284,65.0,60.0,60.0,0.0,0.0
285,67.0,60.0,120.0,0.0,0.0
286,63.0,60.0,15.0,0.0,0.0
287,68.0,30.0,360.0,0.0,0.0
288,65.0,60.0,60.0,0.0,0.0
289,51.0,120.0,120.0,0.0,0.0
290,63.0,60.0,60.0,0.0,0.0
291,65.0,0.0,300.0,0.0,0.0
292,63.0,0.0,120.0,0.0,0.0
293,63.0,24.0,30.0,0.0,0.0
294,77.0,63.0,120.0,0.0,0.0
295,62.0,24.0,30.0,0.0,0.0
296,63.0,42.0,30.0,0.0,0.0
297,62.0,57.0,120.0,0.0,0.0
298,77.0,0.0,120.0,0.0,0.0
299,58.0,60.0,60.0,0.0,0.0
300,60.0,60.0,60.0,0.0,0.0
301,65.0,60.0,120.0,0.0,0.0
302,68.0,0.0,120.0,0.0,0.0
303,62.0,0.0,60.0,0.0,0.0
304,67.0,60.0,120.0,0.0,0.0
305,63.0,60.0,60.0,0.0,0.0
306,60.0,0.0,60.0,0.0,0.0
307,58.0,60.0,60.0,0.0,0.0
308,82.0,0.0,120.0,0.0,0.0
309,56.0,0.0,60.0,0.0,0.0
310,82.0,0.0,120.0,0.0,0.0
311,55.0,60.0,60.0,0.0,0.0
312,53.0,60.0,60.0,0.0,0.0
313,75.0,60.0,120.0,0.0,0.0
314,55.0,60.0,60.0,0.0,0.0
315,67.0,0.0,120.0,0.0,0.0
316,56.0,0.0,60.0,0.0,0.0
317,74.0,60.0,120.0,0.0,0.0
318,65.0,0.0,240.0,0.0,0.0
319,58.0,60.0,60.0,0.0,0.0
320,55.0,0.0,60.0,0.0,0.0
321,53.0,60.0,60.0,0.0,0.0
322,80.0,0.0,120.0,0.0,0.0
323,51.0,60.0,60.0,0.0,0.0
324,80.0,0.0,120.0,0.0,0.0
325,50.0,60.0,60.0,0.0,0.0
326,48.0,60.0,60.0,0.0,0.0
327,68.0,60.0,120.0,0.0,0.0
328,65.0,0.0,120.0,0.0,0.0
329,70.0,0.0,120.0,0.0,0.0
330,50.0,60.0,60.0,0.0,0.0
331,51.0,0.0,60.0,0.0,0.0
332,53.0,60.0,60.0,0.0,0.0
333,70.0,0.0,360.0,0.0,0.0
334,62.0,60.0,240.0,0.0,0.0
335,68.0,60.0,300.0,0.0,0.0
336,50.0,60.0,60.0,0.0,0.0
337,48.0,60.0,60.0,0.0,0.0
338,46.0,0.0,60.0,0.0,0.0
339,63.0,0.0,240.0,0.0,0.0
340,51.0,60.0,120.0,0.0,0.0
341,67.0,0.0,180.0,0.0,0.0
342,72.0,60.0,60.0,0.0,0.0
343,48.0,60.0,120.0,0.0,0.0
344,44.0,0.0,120.0,0.0,0.0
345,65.0,60.0,120.0,0.0,0.0
346,75.0,60.0,15.0,0.0,0.0
347,58.0,60.0,240.0,0.0,0.0
348,68.0,60.0,180.0,0.0,0.0
349,46.0,0.0,120.0,0.0,0.0
350,74.0,60.0,60.0,0.0,0.0
351,51.0,240.0,720.0,0.0,0.0
352,75.0,0.0,120.0,0.0,0.0
353,67.0,60.0,120.0,0.0,0.0
354,68.0,0.0,120.0,0.0,0.0
355,59.0,60.0,120.0,0.0,0.0
356,65.0,60.0,120.0,0.0,0.0
357,58.0,0.0,120.0,0.0,0.0
358,67.0,60.0,120.0,0.0,0.0
359,63.0,60.0,120.0,0.0,0.0
360,65.0,240.0,120.0,0.0,0.0
361,56.0,0.0,120.0,0.0,0.0
362,62.0,0.0,60.0,0.0,0.0
363,67.0,0.0,240.0,0.0,0.0
364,63.0,0.0,240.0,0.0,0.0
365,58.0,0.0,240.0,0.0,0.0
366,56.0,60.0,1740.0,0.0,0.0
367,75.0,240.0,120.0,0.0,0.0
368,72.0,60.0,120.0,0.0,0.0
369,77.0,60.0,15.0,0.0,0.0
370,75.0,60.0,60.0,0.0,0.0
371,73.0,60.0,60.0,0.0,0.0
372,73.0,60.0,15.0,0.0,0.0
373,72.0,60.0,60.0,0.0,0.0
374,70.0,60.0,60.0,0.0,0.0
375,72.0,60.0,120.0,0.0,0.0
376,75.0,60.0,15.0,0.0,0.0
377,80.0,60.0,60.0,0.0,0.0
378,79.0,60.0,60.0,0.0,0.0
379,77.0,60.0,60.0,0.0,0.0
380,75.0,60.0,60.0,0.0,0.0
381,73.0,60.0,60.0,0.0,0.0
382,72.0,120.0,60.0,0.0,0.0
383,72.0,60.0,60.0,0.0,0.0
384,70.0,60.0,60.0,0.0,0.0
385,68.0,60.0,60.0,0.0,0.0
386,56.0,60.0,60.0,0.0,0.0
387,55.0,60.0,60.0,0.0,0.0
388,53.0,60.0,60.0,0.0,0.0
389,55.0,60.0,60.0,0.0,0.0
390,58.0,60.0,60.0,0.0,0.0
391,51.0,60.0,60.0,0.0,0.0
392,55.0,60.0,60.0,0.0,0.0
393,56.0,0.0,120.0,0.0,0.0
394,73.0,60.0,15.0,0.0,0.0
395,72.0,60.0,60.0,0.0,0.0
396,44.0,0.0,120.0,0.0,0.0
397,70.0,60.0,60.0,0.0,0.0
398,56.0,60.0,120.0,0.0,0.0
399,70.0,0.0,60.0,0.0,0.0
400,58.0,0.0,120.0,0.0,0.0
401,68.0,60.0,60.0,0.0,0.0
402,67.0,60.0,60.0,0.0,0.0
403,60.0,0.0,120.0,0.0,0.0
404,68.0,60.0,120.0,0.0,0.0
405,72.0,60.0,15.0,0.0,0.0
406,61.0,0.0,120.0,0.0,0.0
407,70.0,60.0,60.0,0.0,0.0
408,68.0,120.0,60.0,0.0,0.0
409,67.0,120.0,120.0,0.0,0.0
410,63.0,60.0,1740.0,0.0,0.0
411,70.0,240.0,120.0,0.0,0.0
412,72.0,60.0,300.0,0.0,0.0
413,79.0,60.0,120.0,0.0,0.0
414,72.0,60.0,60.0,0.0,0.0
415,70.0,60.0,60.0,0.0,0.0
416,68.0,60.0,60.0,0.0,0.0
417,70.0,60.0,300.0,0.0,0.0
418,80.0,60.0,15.0,0.0,0.0
419,79.0,60.0,60.0,0.0,0.0
420,77.0,60.0,60.0,0.0,0.0
421,79.0,0.0,120.0,0.0,0.0
422,70.0,60.0,60.0,0.0,0.0
423,75.0,60.0,60.0,0.0,0.0
424,73.0,60.0,60.0,0.0,0.0
425,72.0,60.0,60.0,0.0,0.0
426,70.0,60.0,60.0,0.0,0.0
427,68.0,60.0,60.0,0.0,0.0
428,67.0,120.0,60.0,0.0,0.0
429,79.0,60.0,60.0,0.0,0.0
430,77.0,60.0,60.0,0.0,0.0
431,75.0,60.0,60.0,0.0,0.0
432,77.0,60.0,780.0,0.0,0.0
433,63.0,60.0,60.0,0.0,0.0
434,62.0,60.0,60.0,0.0,0.0
435,60.0,60.0,60.0,0.0,0.0
436,62.0,60.0,60.0,0.0,0.0
437,65.0,60.0,60.0,0.0,0.0
438,58.0,60.0,60.0,0.0,0.0
439,62.0,60.0,60.0,0.0,0.0
440,63.0,60.0,540.0,0.0,0.0
441,68.0,60.0,15.0,0.0,0.0
442,67.0,60.0,60.0,0.0,0.0
443,65.0,60.0,60.0,0.0,0.0
444,67.0,60.0,480.0,0.0,0.0
445,77.0,60.0,60.0,0.0,0.0
446,75.0,60.0,60.0,0.0,0.0
447,74.0,60.0,60.0,0.0,0.0
448,75.0,60.0,300.0,0.0,0.0
449,65.0,60.0,60.0,0.0,0.0
450,63.0,60.0,60.0,0.0,0.0
451,61.0,0.0,60.0,0.0,0.0
452,60.0,60.0,720.0,0.0,0.0
453,73.0,60.0,60.0,0.0,0.0
454,72.0,60.0,60.0,0.0,0.0
455,61.0,60.0,120.0,0.0,0.0
456,70.0,0.0,60.0,0.0,0.0
457,63.0,0.0,120.0,0.0,0.0
458,69.0,60.0,60.0,0.0,0.0
459,72.0,60.0,60.0,0.0,0.0
460,75.0,60.0,60.0,0.0,0.0
461,66.0,0.0,60.0,0.0,0.0
462,69.0,60.0,60.0,0.0,0.0
463,70.0,0.0,120.0,0.0,0.0
464,78.0,60.0,15.0,0.0,0.0
465,77.0,60.0,60.0,0.0,0.0
466,69.0,0.0,240.0,0.0,0.0
467,75.0,60.0,120.0,0.0,0.0
468,58.0,60.0,780.0,0.0,0.0
469,73.0,60.0,60.0,0.0,0.0
470,72.0,60.0,60.0,0.0,0.0
471,69.0,0.0,120.0,0.0,0.0
472,75.0,60.0,60.0,0.0,0.0
473,70.0,0.0,120.0,0.0,0.0
474,73.0,60.0,60.0,0.0,0.0
475,77.0,60.0,60.0,0.0,0.0
476,82.0,60.0,60.0,0.0,0.0
477,68.0,60.0,120.0,0.0,0.0
478,85.0,60.0,120.0,0.0,0.0
479,67.0,0.0,120.0,0.0,0.0
480,82.0,60.0,60.0,0.0,0.0
481,84.0,60.0,60.0,0.0,0.0
482,65.0,0.0,120.0,0.0,0.0
483,85.0,60.0,60.0,0.0,0.0
484,67.0,0.0,120.0,0.0,0.0
485,76.0,0.0,120.0,0.0,0.0
486,56.0,60.0,60.0,0.0,0.0
487,77.0,60.0,120.0,0.0,0.0
488,55.0,60.0,60.0,0.0,0.0
489,68.0,0.0,120.0,0.0,0.0
490,53.0,0.0,60.0,0.0,0.0
491,52.0,60.0,60.0,0.0,0.0
492,79.0,0.0,480.0,0.0,0.0
493,70.0,0.0,120.0,0.0,0.0
494,55.0,60.0,60.0,0.0,0.0
495,58.0,60.0,60.0,0.0,0.0
496,73.0,0.0,60.0,0.0,0.0
497,76.0,60.0,60.0,0.0,0.0
498,61.0,60.0,120.0,0.0,0.0
499,77.0,0.0,120.0,0.0,0.0
500,61.0,60.0,60.0,0.0,0.0
501,76.0,60.0,120.0,0.0,0.0
502,60.0,60.0,60.0,0.0,0.0
503,58.0,60.0,120.0,0.0,0.0
504,77.0,0.0,240.0,0.0,0.0
505,56.0,60.0,60.0,0.0,0.0
506,55.0,60.0,60.0,0.0,0.0
507,72.0,60.0,120.0,0.0,0.0
508,58.0,0.0,60.0,0.0,0.0
509,77.0,60.0,120.0,0.0,0.0
510,56.0,60.0,60.0,0.0,0.0
511,60.0,0.0,60.0,0.0,0.0
512,80.0,60.0,120.0,0.0,0.0
513,65.0,60.0,60.0,0.0,0.0
514,68.0,60.0,120.0,0.0,0.0
515,74.0,0.0,120.0,0.0,0.0
516,71.0,0.0,240.0,0.0,0.0
517,65.0,60.0,60.0,0.0,0.0
518,67.0,60.0,60.0,0.0,0.0
519,75.0,0.0,60.0,0.0,0.0
520,77.0,60.0,120.0,0.0,0.0
521,68.0,60.0,60.0,0.0,0.0
522,62.0,0.0,120.0,0.0,0.0
523,70.0,60.0,120.0,0.0,0.0
524,69.0,0.0,60.0,0.0,0.0
525,65.0,0.0,120.0,0.0,0.0
526,70.0,60.0,60.0,0.0,0.0
527,72.0,60.0,60.0,0.0,0.0
528,74.0,60.0,60.0,0.0,0.0
529,70.0,60.0,120.0,0.0,0.0
530,75.0,0.0,60.0,0.0,0.0
531,65.0,0.0,120.0,0.0,0.0
532,77.0,60.0,60.0,0.0,0.0
533,79.0,60.0,60.0,0.0,0.0
534,80.0,60.0,60.0,0.0,0.0
535,62.0,60.0,120.0,0.0,0.0
536,79.0,0.0,60.0,0.0,0.0
537,58.0,120.0,120.0,0.0,0.0
538,80.0,60.0,60.0,0.0,0.0
539,77.0,0.0,60.0,0.0,0.0
540,79.0,0.0,960.0,0.0,0.0
541,62.0,60.0,60.0,0.0,0.0
542,63.0,0.0,15.0,0.0,0.0
543,65.0,60.0,60.0,0.0,0.0
544,67.0,60.0,60.0,0.0,0.0
545,68.0,60.0,60.0,0.0,0.0
546,70.0,60.0,60.0,0.0,0.0
547,72.0,60.0,60.0,0.0,0.0
548,73.0,60.0,60.0,0.0,0.0
549,72.0,60.0,60.0,0.0,0.0
550,73.0,60.0,60.0,0.0,0.0
551,70.0,60.0,60.0,0.0,0.0
552,72.0,60.0,60.0,0.0,0.0
553,70.0,0.0,60.0,0.0,0.0
554,55.0,60.0,60.0,0.0,0.0
555,56.0,60.0,60.0,0.0,0.0
556,72.0,0.0,60.0,0.0,0.0
557,74.0,0.0,60.0,0.0,0.0
558,58.0,60.0,60.0,0.0,0.0
559,78.0,0.0,120.0,0.0,0.0
560,60.0,60.0,60.0,0.0,0.0
561,62.0,60.0,60.0,0.0,0.0
562,63.0,60.0,60.0,0.0,0.0
563,72.0,0.0,120.0,0.0,0.0
564,75.0,0.0,15.0,0.0,0.0
565,65.0,0.0,60.0,0.0,0.0
566,72.0,60.0,120.0,0.0,0.0
567,66.0,60.0,60.0,0.0,0.0
568,69.0,60.0,240.0,0.0,0.0
569,65.0,0.0,60.0,0.0,0.0
570,66.0,60.0,60.0,0.0,0.0
571,63.0,0.0,60.0,0.0,0.0
572,65.0,0.0,360.0,0.0,0.0
573,75.0,60.0,15.0,0.0,0.0
574,74.0,60.0,60.0,0.0,0.0
575,72.0,60.0,60.0,0.0,0.0
576,74.0,60.0,60.0,0.0,0.0
577,75.0,60.0,60.0,0.0,0.0
578,63.0,60.0,120.0,0.0,0.0
579,77.0,60.0,60.0,0.0,0.0
580,74.0,0.0,60.0,0.0,0.0
581,70.0,60.0,120.0,0.0,0.0
582,62.0,60.0,240.0,0.0,0.0
583,68.0,60.0,15.0,0.0,0.0
584,67.0,60.0,60.0,0.0,0.0
585,82.0,60.0,180.0,0.0,0.0
586,65.0,0.0,60.0,0.0,0.0
587,63.0,0.0,120.0,0.0,0.0
588,67.0,0.0,120.0,0.0,0.0
589,80.0,60.0,60.0,0.0,0.0
590,58.0,60.0,120.0,0.0,0.0
591,62.0,0.0,120.0,0.0,0.0
592,84.0,60.0,60.0,0.0,0.0
593,82.0,0.0,60.0,0.0,0.0
594,80.0,60.0,60.0,0.0,0.0
595,63.0,0.0,360.0,0.0,0.0
596,60.0,60.0,120.0,0.0,0.0
597,79.0,0.0,60.0,0.0,0.0
598,77.0,60.0,60.0,0.0,0.0
599,56.0,0.0,120.0,0.0,0.0
600,75.0,60.0,60.0,0.0,0.0
601,79.0,60.0,60.0,0.0,0.0
602,58.0,60.0,240.0,0.0,0.0
603,70.0,60.0,60.0,0.0,0.0
604,77.0,60.0,60.0,0.0,0.0
605,62.0,0.0,120.0,0.0,0.0
606,68.0,0.0,60.0,0.0,0.0
607,67.0,60.0,60.0,0.0,0.0
608,63.0,120.0,240.0,0.0,0.0
609,70.0,60.0,60.0,0.0,0.0
610,75.0,60.0,60.0,0.0,0.0
611,51.0,0.0,120.0,0.0,0.0
612,74.0,0.0,60.0,0.0,0.0
613,75.0,0.0,240.0,0.0,0.0
614,51.0,0.0,120.0,0.0,0.0
615,70.0,60.0,60.0,0.0,0.0
616,68.0,60.0,60.0,0.0,0.0
617,70.0,60.0,120.0,0.0,0.0
618,63.0,60.0,15.0,0.0,0.0
619,72.0,60.0,240.0,0.0,0.0
620,68.0,60.0,60.0,0.0,0.0
621,51.0,0.0,120.0,0.0,0.0
622,67.0,60.0,60.0,0.0,0.0
623,68.0,0.0,300.0,0.0,0.0
624,63.0,0.0,120.0,0.0,0.0
625,70.0,60.0,60.0,0.0,0.0
626,72.0,60.0,60.0,0.0,0.0
627,73.0,60.0,60.0,0.0,0.0
628,72.0,120.0,60.0,0.0,0.0
629,51.0,0.0,15.0,0.0,0.0
630,73.0,0.0,240.0,0.0,0.0
631,68.0,60.0,60.0,0.0,0.0
632,67.0,60.0,60.0,0.0,0.0
633,63.0,60.0,120.0,0.0,0.0
634,68.0,60.0,120.0,0.0,0.0
635,70.0,0.0,240.0,0.0,0.0
636,63.0,0.0,120.0,0.0,0.0
637,67.0,60.0,60.0,0.0,0.0
638,65.0,60.0,60.0,0.0,0.0
639,51.0,60.0,120.0,0.0,0.0
640,67.0,0.0,300.0,0.0,0.0
641,63.0,0.0,120.0,0.0,0.0
642,68.0,60.0,60.0,0.0,0.0
643,70.0,60.0,60.0,0.0,0.0
644,51.0,0.0,120.0,0.0,0.0
645,71.0,60.0,60.0,0.0,0.0
646,70.0,120.0,60.0,0.0,0.0
647,71.0,0.0,240.0,0.0,0.0
648,51.0,0.0,120.0,0.0,0.0
649,67.0,60.0,60.0,0.0,0.0
650,63.0,60.0,120.0,0.0,0.0
651,65.0,60.0,60.0,0.0,0.0
652,67.0,60.0,120.0,0.0,0.0
653,63.0,60.0,120.0,0.0,0.0
654,68.0,30.0,360.0,0.0,0.0
655,65.0,0.0,60.0,0.0,0.0
656,51.0,120.0,120.0,0.0,0.0
657,63.0,60.0,60.0,0.0,0.0
658,65.0,63.0,300.0,0.0,0.0
659,63.0,0.0,120.0,0.0,0.0
660,77.0,0.0,120.0,0.0,0.0
661,63.0,24.0,30.0,0.0,0.0
662,62.0,20.0,30.0,0.0,0.0
663,63.0,46.0,30.0,0.0,0.0
664,62.0,57.0,120.0,0.0,0.0
665,77.0,0.0,120.0,0.0,0.0
666,58.0,60.0,60.0,0.0,0.0
667,68.0,60.0,120.0,0.0,0.0
668,60.0,60.0,60.0,0.0,0.0
669,65.0,0.0,120.0,0.0,0.0
670,62.0,0.0,60.0,0.0,0.0
671,67.0,60.0,120.0,0.0,0.0
672,63.0,60.0,60.0,0.0,0.0
673,60.0,0.0,60.0,0.0,0.0
674,58.0,60.0,60.0,0.0,0.0
675,82.0,0.0,120.0,0.0,0.0
676,56.0,0.0,60.0,0.0,0.0
677,55.0,60.0,60.0,0.0,0.0
678,82.0,60.0,120.0,0.0,0.0
679,53.0,0.0,60.0,0.0,0.0
680,67.0,60.0,120.0,0.0,0.0
681,55.0,60.0,60.0,0.0,0.0
682,75.0,0.0,120.0,0.0,0.0
683,56.0,0.0,60.0,0.0,0.0
684,58.0,60.0,60.0,0.0,0.0
685,65.0,0.0,240.0,0.0,0.0
686,74.0,60.0,120.0,0.0,0.0
687,55.0,0.0,60.0,0.0,0.0
688,53.0,60.0,60.0,0.0,0.0
689,51.0,60.0,60.0,0.0,0.0
690,80.0,0.0,15.0,0.0,0.0
691,50.0,60.0,60.0,0.0,0.0
692,48.0,60.0,60.0,0.0,0.0
693,50.0,60.0,60.0,0.0,0.0
694,70.0,0.0,120.0,0.0,0.0
695,65.0,0.0,120.0,0.0,0.0
696,68.0,0.0,120.0,0.0,0.0
697,51.0,60.0,60.0,0.0,0.0
698,62.0,0.0,240.0,0.0,0.0
699,68.0,60.0,300.0,0.0,0.0
700,53.0,60.0,60.0,0.0,0.0
701,70.0,0.0,360.0,0.0,0.0
702,50.0,60.0,60.0,0.0,0.0
703,48.0,60.0,60.0,0.0,0.0
704,46.0,60.0,60.0,0.0,0.0
705,51.0,60.0,120.0,0.0,0.0
706,63.0,0.0,240.0,0.0,0.0
707,67.0,0.0,180.0,0.0,0.0
708,72.0,60.0,60.0,0.0,0.0
709,48.0,60.0,120.0,0.0,0.0
710,44.0,60.0,120.0,0.0,0.0
711,65.0,0.0,120.0,0.0,0.0
712,75.0,60.0,15.0,0.0,0.0
713,46.0,0.0,120.0,0.0,0.0
714,58.0,0.0,240.0,0.0,0.0
715,68.0,60.0,180.0,0.0,0.0
716,74.0,60.0,60.0,0.0,0.0
717,75.0,60.0,120.0,0.0,0.0
718,51.0,0.0,720.0,0.0,0.0
719,67.0,60.0,120.0,0.0,0.0
720,68.0,0.0,120.0,0.0,0.0
721,59.0,60.0,120.0,0.0,0.0
722,65.0,60.0,120.0,0.0,0.0
723,58.0,0.0,120.0,0.0,0.0
724,67.0,60.0,120.0,0.0,0.0
725,63.0,60.0,120.0,0.0,0.0
726,65.0,0.0,120.0,0.0,0.0
727,56.0,240.0,120.0,0.0,0.0
728,62.0,0.0,60.0,0.0,0.0
729,58.0,0.0,240.0,0.0,0.0
730,67.0,0.0,240.0,0.0,0.0
731,63.0,240.0,15.0,0.0,0.0
732,82.0,240.0,120.0,0.0,0.0
733,79.0,60.0,120.0,0.0,0.0
734,84.0,60.0,15.0,0.0,0.0
735,82.0,60.0,60.0,0.0,0.0
736,80.0,60.0,60.0,0.0,0.0
737,80.0,60.0,60.0,0.0,0.0
738,79.0,60.0,60.0,0.0,0.0
739,77.0,0.0,60.0,0.0,0.0
740,79.0,3.0,240.0,0.0,0.0
741,65.0,30.0,30.0,0.0,0.0
742,64.0,30.0,30.0,0.0,0.0
743,82.0,3.0,15.0,0.0,0.0
744,65.0,27.0,30.0,0.0,0.0
745,64.0,30.0,30.0,0.0,0.0
746,84.0,3.0,60.0,0.0,0.0
747,65.0,27.0,30.0,0.0,0.0
748,64.0,30.0,30.0,0.0,0.0
749,65.0,27.0,30.0,0.0,0.0
750,85.0,0.0,60.0,0.0,0.0
751,64.0,30.0,30.0,0.0,0.0
752,84.0,3.0,60.0,0.0,0.0
753,65.0,27.0,30.0,0.0,0.0
754,64.0,30.0,30.0,0.0,0.0
755,82.0,3.0,60.0,0.0,0.0
756,65.0,27.0,30.0,0.0,0.0
757,64.0,30.0,30.0,0.0,0.0
758,65.0,27.0,30.0,0.0,0.0
759,80.0,3.0,60.0,0.0,0.0
760,64.0,30.0,30.0,0.0,0.0
761,65.0,27.0,30.0,0.0,0.0
762,79.0,3.0,60.0,0.0,0.0
763,64.0,117.0,30.0,0.0,0.0
764,65.0,60.0,300.0,0.0,0.0
765,80.0,60.0,360.0,0.0,0.0
766,79.0,60.0,60.0,0.0,0.0
767,77.0,60.0,60.0,0.0,0.0
768,76.0,60.0,60.0,0.0,0.0
769,77.0,0.0,240.0,0.0,0.0
770,63.0,0.0,60.0,0.0,0.0
771,61.0,60.0,60.0,0.0,0.0
772,80.0,60.0,120.0,0.0,0.0
773,60.0,0.0,60.0,0.0,0.0
774,70.0,60.0,300.0,0.0,0.0
775,79.0,60.0,120.0,0.0,0.0
776,61.0,60.0,60.0,0.0,0.0
777,65.0,0.0,60.0,0.0,0.0
778,58.0,60.0,60.0,0.0,0.0
779,77.0,0.0,120.0,0.0,0.0
780,61.0,60.0,60.0,0.0,0.0
781,60.0,0.0,120.0,0.0,0.0
782,76.0,60.0,480.0,0.0,0.0
783,70.0,60.0,60.0,0.0,0.0
784,72.0,60.0,60.0,0.0,0.0
785,48.0,60.0,120.0,0.0,0.0
786,73.0,0.0,60.0,0.0,0.0
787,72.0,60.0,60.0,0.0,0.0
788,60.0,0.0,120.0,0.0,0.0
789,70.0,60.0,60.0,0.0,0.0
790,61.0,0.0,120.0,0.0,0.0
791,68.0,60.0,60.0,0.0,0.0
792,67.0,0.0,60.0,0.0,0.0
793,65.0,60.0,60.0,0.0,0.0
794,60.0,0.0,120.0,0.0,0.0
795,64.0,60.0,60.0,0.0,0.0
796,58.0,120.0,120.0,0.0,0.0
797,65.0,60.0,60.0,0.0,0.0
798,67.0,0.0,60.0,0.0,0.0
799,56.0,0.0,120.0,0.0,0.0
800,60.0,60.0,120.0,0.0,0.0
801,77.0,0.0,60.0,0.0,0.0
802,65.0,60.0,120.0,0.0,0.0
803,72.0,60.0,60.0,0.0,0.0
804,71.0,0.0,60.0,0.0,0.0
805,65.0,0.0,120.0,0.0,0.0
806,72.0,60.0,60.0,0.0,0.0
807,76.0,60.0,60.0,0.0,0.0
808,77.0,60.0,60.0,0.0,0.0
809,79.0,0.0,60.0,0.0,0.0
810,80.0,60.0,60.0,0.0,0.0
811,60.0,60.0,15.0,0.0,0.0
812,53.0,0.0,240.0,0.0,0.0
813,79.0,0.0,60.0,0.0,0.0
814,60.0,60.0,15.0,0.0,0.0
815,80.0,60.0,60.0,0.0,0.0
816,77.0,0.0,60.0,0.0,0.0
817,52.0,60.0,120.0,0.0,0.0
818,60.0,60.0,15.0,0.0,0.0
819,79.0,60.0,60.0,0.0,0.0
820,76.0,0.0,60.0,0.0,0.0
821,72.0,60.0,60.0,0.0,0.0
822,67.0,0.0,120.0,0.0,0.0
823,71.0,60.0,60.0,0.0,0.0
824,67.0,0.0,120.0,0.0,0.0
825,72.0,60.0,60.0,0.0,0.0
826,76.0,60.0,60.0,0.0,0.0
827,79.0,60.0,60.0,0.0,0.0
828,60.0,0.0,120.0,0.0,0.0
829,80.0,60.0,60.0,0.0,0.0
830,60.0,0.0,120.0,0.0,0.0
831,82.0,60.0,60.0,0.0,0.0
832,48.0,0.0,240.0,0.0,0.0
833,80.0,60.0,60.0,0.0,0.0
834,82.0,60.0,60.0,0.0,0.0
835,79.0,0.0,60.0,0.0,0.0
836,80.0,60.0,420.0,0.0,0.0
837,60.0,60.0,15.0,0.0,0.0
838,53.0,60.0,120.0,0.0,0.0
839,77.0,0.0,60.0,0.0,0.0
840,72.0,60.0,60.0,0.0,0.0
841,56.0,0.0,120.0,0.0,0.0
842,75.0,60.0,60.0,0.0,0.0
843,58.0,60.0,120.0,0.0,0.0
844,73.0,60.0,60.0,0.0,0.0
845,77.0,0.0,60.0,0.0,0.0
846,70.0,0.0,120.0,0.0,0.0
847,61.0,60.0,120.0,0.0,0.0
848,79.0,60.0,120.0,0.0,0.0
849,59.0,0.0,120.0,0.0,0.0
850,68.0,60.0,120.0,0.0,0.0
851,77.0,60.0,120.0,0.0,0.0
852,67.0,0.0,120.0,0.0,0.0
853,60.0,60.0,120.0,0.0,0.0
854,76.0,0.0,60.0,0.0,0.0
855,77.0,0.0,240.0,0.0,0.0
856,53.0,0.0,120.0,0.0,0.0
857,68.0,60.0,60.0,0.0,0.0
858,73.0,60.0,60.0,0.0,0.0
859,56.0,0.0,120.0,0.0,0.0
860,72.0,60.0,60.0,0.0,0.0
861,70.0,60.0,60.0,0.0,0.0
862,60.0,60.0,120.0,0.0,0.0
863,68.0,60.0,60.0,0.0,0.0
864,67.0,0.0,60.0,0.0,0.0
865,65.0,60.0,120.0,0.0,0.0
866,68.0,60.0,60.0,0.0,0.0
867,70.0,0.0,60.0,0.0,0.0
868,72.0,60.0,60.0,0.0,0.0
869,63.0,0.0,120.0,0.0,0.0
870,73.0,30.0,60.0,0.0,0.0
871,75.0,30.0,30.0,0.0,0.0
872,61.0,120.0,120.0,0.0,0.0
873,73.0,30.0,30.0,0.0,0.0
874,72.0,30.0,30.0,0.0,0.0
875,73.0,0.0,30.0,0.0,0.0
876,75.0,0.0,120.0,0.0,0.0
877,60.0,60.0,120.0,0.0,0.0
878,80.0,0.0,60.0,0.0,0.0
879,63.0,60.0,120.0,0.0,0.0
880,79.0,60.0,60.0,0.0,0.0
881,77.0,0.0,60.0,0.0,0.0
882,68.0,60.0,120.0,0.0,0.0
883,75.0,60.0,60.0,0.0,0.0
884,74.0,0.0,60.0,0.0,0.0
885,75.0,60.0,60.0,0.0,0.0
886,72.0,60.0,120.0,0.0,0.0
887,77.0,0.0,60.0,0.0,0.0
888,70.0,0.0,120.0,0.0,0.0
889,79.0,60.0,60.0,0.0,0.0
890,80.0,30.0,60.0,0.0,0.0
891,68.0,60.0,120.0,0.0,0.0
892,82.0,30.0,30.0,0.0,0.0
893,80.0,30.0,30.0,0.0,0.0
894,79.0,30.0,30.0,0.0,0.0
895,80.0,0.0,30.0,0.0,0.0
896,82.0,60.0,60.0,0.0,0.0
897,67.0,60.0,120.0,0.0,0.0
898,84.0,0.0,60.0,0.0,0.0
899,82.0,60.0,60.0,0.0,0.0
900,75.0,0.0,120.0,0.0,0.0
901,72.0,0.0,120.0,0.0,0.0
902,80.0,60.0,60.0,0.0,0.0
903,73.0,0.0,120.0,0.0,0.0
904,70.0,60.0,120.0,0.0,0.0
905,79.0,60.0,60.0,0.0,0.0
906,77.0,0.0,60.0,0.0,0.0
907,68.0,60.0,120.0,0.0,0.0
908,72.0,0.0,120.0,0.0,0.0
909,79.0,60.0,60.0,0.0,0.0
910,80.0,0.0,60.0,0.0,0.0
911,67.0,0.0,120.0,0.0,0.0
912,82.0,60.0,60.0,0.0,0.0
913,70.0,0.0,120.0,0.0,0.0
914,84.0,30.0,60.0,0.0,0.0
915,85.0,30.0,30.0,0.0,0.0
916,65.0,0.0,120.0,0.0,0.0
917,68.0,0.0,120.0,0.0,0.0
918,84.0,30.0,30.0,0.0,0.0
919,82.0,30.0,30.0,0.0,0.0
920,84.0,60.0,30.0,0.0,0.0
921,63.0,0.0,120.0,0.0,0.0
922,67.0,0.0,120.0,0.0,0.0
923,85.0,60.0,60.0,0.0,0.0
924,77.0,60.0,60.0,0.0,0.0
925,75.0,60.0,60.0,0.0,0.0
926,65.0,0.0,120.0,0.0,0.0
927,68.0,60.0,120.0,0.0,0.0
928,74.0,0.0,60.0,0.0,0.0
929,75.0,60.0,60.0,0.0,0.0
930,63.0,60.0,120.0,0.0,0.0
931,67.0,0.0,120.0,0.0,0.0
932,85.0,0.0,60.0,0.0,0.0
933,84.0,60.0,60.0,0.0,0.0
934,61.0,0.0,120.0,0.0,0.0
935,65.0,60.0,120.0,0.0,0.0
936,82.0,0.0,60.0,0.0,0.0
937,60.0,0.0,120.0,0.0,0.0
938,87.0,60.0,60.0,0.0,0.0
939,63.0,0.0,300.0,0.0,0.0
940,80.0,60.0,60.0,0.0,0.0
941,79.0,60.0,60.0,0.0,0.0
942,58.0,0.0,120.0,0.0,0.0
943,85.0,60.0,60.0,0.0,0.0
944,56.0,60.0,120.0,0.0,0.0
945,84.0,60.0,60.0,0.0,0.0
946,70.0,0.0,60.0,0.0,0.0
947,58.0,60.0,120.0,0.0,0.0
948,68.0,60.0,60.0,0.0,0.0
949,67.0,0.0,60.0,0.0,0.0
950,68.0,60.0,60.0,0.0,0.0
951,60.0,60.0,120.0,0.0,0.0
952,78.0,0.0,60.0,0.0,0.0
953,77.0,60.0,60.0,0.0,0.0
954,56.0,0.0,120.0,0.0,0.0
955,75.0,60.0,60.0,0.0,0.0
956,53.0,0.0,120.0,0.0,0.0
957,80.0,60.0,60.0,0.0,0.0
958,73.0,60.0,60.0,0.0,0.0
959,56.0,120.0,120.0,0.0,0.0
960,72.0,60.0,60.0,0.0,0.0
961,78.0,0.0,60.0,0.0,0.0
962,49.0,60.0,120.0,0.0,0.0
963,77.0,0.0,480.0,0.0,0.0
964,84.0,0.0,60.0,0.0,0.0
965,82.0,60.0,60.0,0.0,0.0
966,61.0,60.0,180.0,0.0,0.0
967,80.0,60.0,60.0,0.0,0.0
968,82.0,60.0,120.0,0.0,0.0
969,60.0,0.0,60.0,0.0,0.0
970,85.0,0.0,240.0,0.0,0.0
971,58.0,60.0,60.0,0.0,0.0
972,56.0,60.0,60.0,0.0,0.0
973,75.0,60.0,720.0,0.0,0.0
974,55.0,60.0,60.0,0.0,0.0
975,53.0,60.0,60.0,0.0,0.0
976,51.0,60.0,60.0,0.0,0.0
977,79.0,60.0,180.0,0.0,0.0
978,49.0,60.0,60.0,0.0,0.0
979,48.0,0.0,120.0,0.0,0.0
980,82.0,60.0,60.0,0.0,0.0
981,60.0,60.0,180.0,0.0,0.0
982,80.0,60.0,60.0,0.0,0.0
983,79.0,60.0,60.0,0.0,0.0
984,80.0,60.0,120.0,0.0,0.0
985,58.0,0.0,60.0,0.0,0.0
986,84.0,60.0,240.0,0.0,0.0
987,56.0,60.0,60.0,0.0,0.0
988,55.0,0.0,60.0,0.0,0.0
989,73.0,0.0,840.0,0.0,0.0
990,53.0,60.0,60.0,0.0,0.0
991,51.0,0.0,60.0,0.0,0.0
992,49.0,60.0,60.0,0.0,0.0
993,77.0,60.0,180.0,0.0,0.0
994,48.0,60.0,60.0,0.0,0.0
995,46.0,0.0,120.0,0.0,0.0
996,80.0,60.0,60.0,0.0,0.0
997,58.0,60.0,180.0,0.0,0.0
998,79.0,60.0,60.0,0.0,0.0
999,77.0,60.0,60.0,0.0,0.0
1000,79.0,0.0,120.0,0.0,0.0
1001,56.0,60.0,60.0,0.0,0.0
1002,55.0,60.0,60.0,0.0,0.0
1003,82.0,0.0,120.0,0.0,0.0
1004,53.0,60.0,60.0,0.0,0.0
1005,51.0,60.0,60.0,0.0,0.0
1006,82.0,60.0,120.0,0.0,0.0
1007,49.0,0.0,60.0,0.0,0.0
1008,73.0,0.0,240.0,0.0,0.0
1009,67.0,60.0,180.0,0.0,0.0
1010,48.0,60.0,60.0,0.0,0.0
1011,46.0,60.0,60.0,0.0,0.0
1012,44.0,60.0,120.0,0.0,0.0
1013,63.0,0.0,420.0,0.0,0.0
1014,72.0,60.0,60.0,0.0,0.0
1015,56.0,60.0,180.0,0.0,0.0
1016,70.0,60.0,60.0,0.0,0.0
1017,68.0,60.0,480.0,0.0,0.0
1018,55.0,60.0,60.0,0.0,0.0
1019,56.0,60.0,60.0,0.0,0.0
1020,58.0,60.0,60.0,0.0,0.0
1021,60.0,60.0,60.0,0.0,0.0
1022,63.0,60.0,60.0,0.0,0.0
1023,56.0,60.0,60.0,0.0,0.0
1024,60.0,0.0,60.0,0.0,0.0
1025,61.0,0.0,120.0,0.0,0.0
1026,65.0,60.0,240.0,0.0,0.0
1027,72.0,60.0,15.0,0.0,0.0
1028,49.0,0.0,120.0,0.0,0.0
1029,70.0,60.0,60.0,0.0,0.0
1030,68.0,0.0,60.0,0.0,0.0
1031,61.0,60.0,120.0,0.0,0.0
1032,67.0,60.0,60.0,0.0,0.0
1033,65.0,0.0,60.0,0.0,0.0
1034,67.0,60.0,60.0,0.0,0.0
1035,63.0,0.0,120.0,0.0,0.0
1036,68.0,60.0,60.0,0.0,0.0
1037,70.0,60.0,60.0,0.0,0.0
1038,61.0,30.0,120.0,0.0,0.0
1039,72.0,0.0,60.0,0.0,0.0
1040,60.0,0.0,120.0,0.0,0.0
1041,73.0,30.0,30.0,0.0,0.0
1042,72.0,30.0,30.0,0.0,0.0
1043,70.0,30.0,30.0,0.0,0.0
1044,72.0,120.0,30.0,0.0,0.0
1045,58.0,0.0,240.0,0.0,0.0
1046,73.0,120.0,840.0,0.0,0.0
1047,68.0,60.0,60.0,0.0,0.0
1048,67.0,60.0,60.0,0.0,0.0
1049,65.0,60.0,60.0,0.0,0.0
1050,63.0,60.0,60.0,0.0,0.0
1051,62.0,60.0,60.0,0.0,0.0
1052,63.0,60.0,60.0,0.0,0.0
1053,60.0,0.0,120.0,0.0,0.0
1054,65.0,60.0,60.0,0.0,0.0
1055,58.0,30.0,120.0,0.0,0.0
1056,67.0,60.0,60.0,0.0,0.0
1057,68.0,0.0,60.0,0.0,0.0
1058,70.0,30.0,30.0,0.0,0.0
1059,56.0,10.0,120.0,0.0,0.0
1060,68.0,30.0,30.0,0.0,0.0
1061,67.0,20.0,30.0,0.0,0.0
1062,68.0,30.0,30.0,0.0,0.0
1063,70.0,60.0,240.0,0.0,0.0
1064,56.0,90.0,30.0,0.0,0.0
1065,55.0,60.0,270.0,0.0,0.0
1066,82.0,0.0,15.0,0.0,0.0
1067,63.0,0.0,60.0,0.0,0.0
1068,73.0,0.0,120.0,0.0,0.0
1069,70.0,120.0,120.0,0.0,0.0
1070,65.0,60.0,60.0,0.0,0.0
1071,67.0,0.0,60.0,0.0,0.0
1072,68.0,0.0,120.0,0.0,0.0
1073,72.0,60.0,120.0,0.0,0.0
1074,65.0,0.0,60.0,0.0,0.0
1075,63.0,60.0,60.0,0.0,0.0
1076,61.0,60.0,60.0,0.0,0.0
1077,60.0,60.0,60.0,0.0,0.0
1078,87.0,0.0,15.0,0.0,0.0
1079,58.0,0.0,60.0,0.0,0.0
1080,60.0,60.0,60.0,0.0,0.0
1081,72.0,60.0,120.0,0.0,0.0
1082,80.0,0.0,120.0,0.0,0.0
1083,61.0,0.0,60.0,0.0,0.0
1084,79.0,60.0,120.0,0.0,0.0
1085,63.0,60.0,60.0,0.0,0.0
1086,70.0,0.0,240.0,0.0,0.0
1087,60.0,0.0,60.0,0.0,0.0
1088,85.0,0.0,120.0,0.0,0.0
1089,58.0,60.0,60.0,0.0,0.0
1090,56.0,60.0,60.0,0.0,0.0
1091,55.0,60.0,60.0,0.0,0.0
1092,85.0,0.0,120.0,0.0,0.0
1093,53.0,60.0,60.0,0.0,0.0
1094,55.0,60.0,60.0,0.0,0.0
1095,70.0,0.0,120.0,0.0,0.0
1096,73.0,0.0,120.0,0.0,0.0
1097,56.0,0.0,60.0,0.0,0.0
1098,58.0,60.0,60.0,0.0,0.0
1099,67.0,60.0,240.0,0.0,0.0
1100,75.0,60.0,15.0,0.0,0.0
1101,73.0,60.0,300.0,0.0,0.0
1102,55.0,60.0,60.0,0.0,0.0
1103,53.0,60.0,60.0,0.0,0.0
1104,51.0,0.0,60.0,0.0,0.0
1105,68.0,60.0,240.0,0.0,0.0
1106,56.0,0.0,120.0,0.0,0.0
1107,72.0,0.0,180.0,0.0,0.0
1108,53.0,0.0,120.0,0.0,0.0
1109,77.0,60.0,60.0,0.0,0.0
1110,70.0,60.0,120.0,0.0,0.0
1111,49.0,0.0,120.0,0.0,0.0
1112,80.0,60.0,15.0,0.0,0.0
1113,51.0,0.0,120.0,0.0,0.0
1114,73.0,0.0,120.0,0.0,0.0
1115,79.0,120.0,60.0,0.0,0.0
1116,72.0,0.0,240.0,0.0,0.0
1117,56.0,60.0,120.0,0.0,0.0
1118,75.0,0.0,60.0,0.0,0.0
1119,80.0,60.0,60.0,0.0,0.0
1120,79.0,120.0,60.0,0.0,0.0
1121,44.0,0.0,15.0,0.0,0.0
1122,80.0,0.0,240.0,0.0,0.0
1123,75.0,0.0,60.0,0.0,0.0
1124,73.0,60.0,60.0,0.0,0.0
1125,75.0,0.0,60.0,0.0,0.0
1126,77.0,0.0,240.0,0.0,0.0
1127,56.0,120.0,15.0,0.0,0.0
1128,73.0,60.0,60.0,0.0,0.0
1129,72.0,60.0,60.0,0.0,0.0
1130,44.0,60.0,120.0,0.0,0.0
1131,75.0,60.0,60.0,0.0,0.0
1132,56.0,0.0,120.0,0.0,0.0
1133,77.0,60.0,60.0,0.0,0.0
1134,78.0,60.0,60.0,0.0,0.0
1135,77.0,60.0,60.0,0.0,0.0
1136,44.0,0.0,15.0,0.0,0.0
1137,78.0,60.0,240.0,0.0,0.0
1138,73.0,60.0,15.0,0.0,0.0
1139,56.0,0.0,120.0,0.0,0.0
1140,72.0,60.0,60.0,0.0,0.0
1141,73.0,60.0,120.0,0.0,0.0
1142,75.0,60.0,240.0,0.0,0.0
1143,56.0,60.0,120.0,0.0,0.0
1144,72.0,0.0,60.0,0.0,0.0
1145,44.0,0.0,120.0,0.0,0.0
1146,70.0,60.0,60.0,0.0,0.0
1147,72.0,120.0,300.0,0.0,0.0
1148,56.0,0.0,120.0,0.0,0.0
1149,73.0,60.0,60.0,0.0,0.0
1150,75.0,60.0,60.0,0.0,0.0
1151,76.0,60.0,60.0,0.0,0.0
1152,75.0,0.0,60.0,0.0,0.0
1153,44.0,0.0,15.0,0.0,0.0
1154,76.0,0.0,240.0,0.0,0.0
1155,72.0,60.0,60.0,0.0,0.0
1156,70.0,60.0,60.0,0.0,0.0
1157,72.0,120.0,60.0,0.0,0.0
1158,56.0,0.0,15.0,0.0,0.0
1159,73.0,60.0,480.0,0.0,0.0
1160,70.0,60.0,60.0,0.0,0.0
1161,68.0,60.0,60.0,0.0,0.0
1162,44.0,60.0,120.0,0.0,0.0
1163,70.0,0.0,300.0,0.0,0.0
1164,43.0,60.0,60.0,0.0,0.0
1165,63.0,0.0,240.0,0.0,0.0
1166,46.0,60.0,60.0,0.0,0.0
1167,51.0,60.0,60.0,0.0,0.0
1168,53.0,0.0,60.0,0.0,0.0
1169,55.0,60.0,60.0,0.0,0.0
1170,56.0,60.0,60.0,0.0,0.0
1171,58.0,60.0,60.0,0.0,0.0
1172,60.0,60.0,60.0,0.0,0.0
1173,61.0,60.0,60.0,0.0,0.0
1174,63.0,60.0,60.0,0.0,0.0
1175,65.0,60.0,60.0,0.0,0.0
1176,67.0,120.0,60.0,0.0,0.0
1177,68.0,120.0,240.0,0.0,0.0
1178,72.0,0.0,240.0,0.0,0.0
1179,65.0,60.0,60.0,0.0,0.0
1180,63.0,60.0,60.0,0.0,0.0
1181,61.0,0.0,60.0,0.0,0.0
1182,63.0,120.0,240.0,0.0,0.0
1183,72.0,60.0,60.0,0.0,0.0
1184,70.0,60.0,60.0,0.0,0.0
1185,68.0,0.0,60.0,0.0,0.0
1186,51.0,120.0,240.0,0.0,0.0
1187,70.0,0.0,240.0,0.0,0.0
1188,65.0,120.0,60.0,0.0,0.0
1189,67.0,0.0,120.0,0.0,0.0
1190,61.0,0.0,60.0,0.0,0.0
1191,60.0,0.0,120.0,0.0,0.0
1192,56.0,0.0,2880.0,0.0,0.0
1193,63.0,60.0,60.0,0.0,0.0
1194,68.0,60.0,60.0,0.0,0.0
1195,58.0,60.0,120.0,0.0,0.0
1196,67.0,0.0,60.0,0.0,0.0
1197,60.0,60.0,120.0,0.0,0.0
1198,68.0,60.0,60.0,0.0,0.0
1199,63.0,0.0,60.0,0.0,0.0
1200,72.0,60.0,60.0,0.0,0.0
1201,63.0,0.0,120.0,0.0,0.0
1202,68.0,120.0,60.0,0.0,0.0
1203,61.0,60.0,120.0,0.0,0.0
1204,75.0,60.0,300.0,0.0,0.0
1205,70.0,0.0,60.0,0.0,0.0
1206,68.0,60.0,60.0,0.0,0.0
1207,60.0,0.0,120.0,0.0,0.0
1208,66.0,60.0,60.0,0.0,0.0
1209,61.0,60.0,120.0,0.0,0.0
1210,65.0,0.0,120.0,0.0,0.0
1211,68.0,0.0,60.0,0.0,0.0
1212,73.0,60.0,60.0,0.0,0.0
1213,63.0,0.0,120.0,0.0,0.0
1214,72.0,60.0,60.0,0.0,0.0
1215,65.0,0.0,120.0,0.0,0.0
1216,73.0,60.0,60.0,0.0,0.0
1217,77.0,60.0,60.0,0.0,0.0
1218,68.0,60.0,15.0,0.0,0.0
1219,73.0,120.0,60.0,0.0,0.0
1220,80.0,60.0,300.0,0.0,0.0
1221,61.0,0.0,480.0,0.0,0.0
1222,75.0,60.0,60.0,0.0,0.0
1223,73.0,60.0,60.0,0.0,0.0
1224,63.0,0.0,120.0,0.0,0.0
1225,72.0,60.0,60.0,0.0,0.0
1226,70.0,0.0,120.0,0.0,0.0
1227,64.0,60.0,240.0,0.0,0.0
1228,73.0,60.0,60.0,0.0,0.0
1229,79.0,60.0,60.0,0.0,0.0
1230,77.0,0.0,60.0,0.0,0.0
1231,79.0,60.0,60.0,0.0,0.0
1232,73.0,60.0,60.0,0.0,0.0
1233,82.0,60.0,60.0,0.0,0.0
1234,79.0,60.0,60.0,0.0,0.0
1235,64.0,0.0,15.0,0.0,0.0
1236,61.0,0.0,15.0,0.0,0.0
1237,85.0,60.0,60.0,0.0,0.0
1238,82.0,0.0,60.0,0.0,0.0
1239,80.0,60.0,60.0,0.0,0.0
1240,61.0,0.0,15.0,0.0,0.0
1241,64.0,60.0,15.0,0.0,0.0
1242,79.0,0.0,60.0,0.0,0.0
1243,60.0,0.0,720.0,0.0,0.0
1244,63.0,0.0,720.0,0.0,0.0
1245,75.0,0.0,720.0,0.0,0.0
1246,72.0,0.0,720.0,0.0,0.0
1247,80.0,240.0,720.0,0.0,0.0
1248,63.0,30.0,960.0,0.0,0.0
1249,82.0,240.0,120.0,0.0,0.0
1250,84.0,60.0,300.0,0.0,0.0
1251,79.0,60.0,120.0,0.0,0.0
1252,84.0,60.0,60.0,0.0,0.0
1253,82.0,60.0,60.0,0.0,0.0
1254,80.0,60.0,60.0,0.0,0.0
1255,80.0,60.0,15.0,0.0,0.0
1256,79.0,60.0,60.0,0.0,0.0
1257,77.0,0.0,60.0,0.0,0.0
1258,79.0,0.0,240.0,0.0,0.0
1259,65.0,30.0,30.0,0.0,0.0
1260,64.0,30.0,30.0,0.0,0.0
1261,82.0,3.0,15.0,0.0,0.0
1262,65.0,27.0,30.0,0.0,0.0
1263,64.0,30.0,30.0,0.0,0.0
1264,65.0,27.0,30.0,0.0,0.0
1265,84.0,3.0,60.0,0.0,0.0
1266,64.0,30.0,30.0,0.0,0.0
1267,65.0,27.0,30.0,0.0,0.0
1268,85.0,3.0,60.0,0.0,0.0
1269,64.0,30.0,30.0,0.0,0.0
1270,84.0,3.0,60.0,0.0,0.0
1271,65.0,27.0,30.0,0.0,0.0
1272,64.0,30.0,30.0,0.0,0.0
1273,65.0,27.0,30.0,0.0,0.0
1274,82.0,3.0,60.0,0.0,0.0
1275,64.0,30.0,30.0,0.0,0.0
1276,80.0,3.0,60.0,0.0,0.0
1277,65.0,27.0,30.0,0.0,0.0
1278,64.0,30.0,30.0,0.0,0.0
1279,79.0,3.0,60.0,0.0,0.0
1280,65.0,27.0,30.0,0.0,0.0
1281,64.0,117.0,30.0,0.0,0.0
1282,65.0,60.0,300.0,0.0,0.0
1283,79.0,60.0,60.0,0.0,0.0
1284,77.0,60.0,60.0,0.0,0.0
1285,76.0,60.0,60.0,0.0,0.0
1286,77.0,0.0,240.0,0.0,0.0
1287,63.0,60.0,60.0,0.0,0.0
1288,61.0,60.0,60.0,0.0,0.0
1289,80.0,0.0,15.0,0.0,0.0
1290,60.0,60.0,60.0,0.0,0.0
1291,61.0,60.0,60.0,0.0,0.0
1292,79.0,0.0,120.0,0.0,0.0
1293,70.0,60.0,300.0,0.0,0.0
1294,65.0,60.0,60.0,0.0,0.0
1295,58.0,60.0,60.0,0.0,0.0
1296,77.0,0.0,120.0,0.0,0.0
1297,61.0,60.0,60.0,0.0,0.0
1298,60.0,0.0,120.0,0.0,0.0
1299,76.0,60.0,480.0,0.0,0.0
1300,70.0,60.0,60.0,0.0,0.0
1301,48.0,60.0,120.0,0.0,0.0
1302,72.0,60.0,60.0,0.0,0.0
1303,73.0,0.0,60.0,0.0,0.0
1304,60.0,0.0,120.0,0.0,0.0
1305,72.0,60.0,60.0,0.0,0.0
1306,70.0,60.0,60.0,0.0,0.0
1307,68.0,60.0,60.0,0.0,0.0
1308,61.0,0.0,120.0,0.0,0.0
1309,67.0,0.0,60.0,0.0,0.0
1310,60.0,0.0,120.0,0.0,0.0
1311,65.0,60.0,60.0,0.0,0.0
1312,64.0,60.0,60.0,0.0,0.0
1313,58.0,120.0,120.0,0.0,0.0
1314,65.0,60.0,60.0,0.0,0.0
1315,67.0,0.0,60.0,0.0,0.0
1316,56.0,0.0,120.0,0.0,0.0
1317,60.0,0.0,120.0,0.0,0.0
1318,77.0,60.0,60.0,0.0,0.0
1319,65.0,60.0,120.0,0.0,0.0
1320,72.0,60.0,60.0,0.0,0.0
1321,71.0,0.0,60.0,0.0,0.0
1322,72.0,60.0,60.0,0.0,0.0
1323,65.0,0.0,120.0,0.0,0.0
1324,76.0,60.0,60.0,0.0,0.0
1325,60.0,60.0,120.0,0.0,0.0
1326,77.0,60.0,60.0,0.0,0.0
1327,79.0,0.0,60.0,0.0,0.0
1328,53.0,0.0,240.0,0.0,0.0
1329,80.0,60.0,60.0,0.0,0.0
1330,79.0,60.0,60.0,0.0,0.0
1331,60.0,0.0,15.0,0.0,0.0
1332,80.0,60.0,60.0,0.0,0.0
1333,77.0,60.0,60.0,0.0,0.0
1334,52.0,60.0,120.0,0.0,0.0
1335,60.0,0.0,15.0,0.0,0.0
1336,79.0,60.0,60.0,0.0,0.0
1337,76.0,0.0,60.0,0.0,0.0
1338,72.0,60.0,60.0,0.0,0.0
1339,67.0,60.0,120.0,0.0,0.0
1340,71.0,0.0,60.0,0.0,0.0
1341,72.0,60.0,60.0,0.0,0.0
1342,67.0,60.0,120.0,0.0,0.0
1343,76.0,0.0,60.0,0.0,0.0
1344,79.0,60.0,60.0,0.0,0.0
1345,80.0,60.0,60.0,0.0,0.0
1346,60.0,0.0,15.0,0.0,0.0
1347,48.0,0.0,240.0,0.0,0.0
1348,82.0,60.0,60.0,0.0,0.0
1349,80.0,0.0,60.0,0.0,0.0
1350,82.0,60.0,60.0,0.0,0.0
1351,60.0,60.0,15.0,0.0,0.0
1352,79.0,60.0,60.0,0.0,0.0
1353,60.0,60.0,60.0,0.0,0.0
1354,53.0,0.0,120.0,0.0,0.0
1355,80.0,60.0,420.0,0.0,0.0
1356,77.0,60.0,60.0,0.0,0.0
1357,56.0,60.0,120.0,0.0,0.0
1358,72.0,60.0,60.0,0.0,0.0
1359,75.0,0.0,60.0,0.0,0.0
1360,58.0,0.0,120.0,0.0,0.0
1361,73.0,60.0,60.0,0.0,0.0
1362,77.0,60.0,60.0,0.0,0.0
1363,70.0,60.0,120.0,0.0,0.0
1364,61.0,0.0,120.0,0.0,0.0
1365,79.0,60.0,120.0,0.0,0.0
1366,59.0,0.0,120.0,0.0,0.0
1367,68.0,60.0,120.0,0.0,0.0
1368,77.0,60.0,120.0,0.0,0.0
1369,60.0,0.0,120.0,0.0,0.0
1370,67.0,0.0,120.0,0.0,0.0
1371,76.0,60.0,60.0,0.0,0.0
1372,53.0,60.0,120.0,0.0,0.0
1373,68.0,60.0,60.0,0.0,0.0
1374,77.0,0.0,240.0,0.0,0.0
1375,73.0,0.0,60.0,0.0,0.0
1376,72.0,60.0,60.0,0.0,0.0
1377,56.0,0.0,120.0,0.0,0.0
1378,70.0,60.0,60.0,0.0,0.0
1379,60.0,60.0,120.0,0.0,0.0
1380,68.0,60.0,60.0,0.0,0.0
1381,67.0,0.0,60.0,0.0,0.0
1382,65.0,60.0,120.0,0.0,0.0
1383,68.0,60.0,60.0,0.0,0.0
1384,70.0,0.0,60.0,0.0,0.0
1385,63.0,30.0,120.0,0.0,0.0
1386,72.0,60.0,60.0,0.0,0.0
1387,73.0,0.0,60.0,0.0,0.0
1388,61.0,120.0,120.0,0.0,0.0
1389,75.0,30.0,30.0,0.0,0.0
1390,73.0,30.0,30.0,0.0,0.0
1391,72.0,30.0,30.0,0.0,0.0
1392,73.0,0.0,30.0,0.0,0.0
1393,60.0,0.0,120.0,0.0,0.0
1394,75.0,0.0,120.0,0.0,0.0
1395,80.0,60.0,60.0,0.0,0.0
1396,63.0,0.0,120.0,0.0,0.0
1397,79.0,60.0,60.0,0.0,0.0
1398,77.0,60.0,60.0,0.0,0.0
1399,68.0,0.0,120.0,0.0,0.0
1400,75.0,60.0,60.0,0.0,0.0
1401,74.0,60.0,60.0,0.0,0.0
1402,72.0,60.0,120.0,0.0,0.0
1403,75.0,60.0,60.0,0.0,0.0
1404,77.0,0.0,60.0,0.0,0.0
1405,70.0,30.0,120.0,0.0,0.0
1406,79.0,60.0,60.0,0.0,0.0
1407,80.0,0.0,60.0,0.0,0.0
1408,82.0,30.0,30.0,0.0,0.0
1409,68.0,0.0,120.0,0.0,0.0
1410,80.0,30.0,30.0,0.0,0.0
1411,79.0,30.0,30.0,0.0,0.0
1412,80.0,60.0,30.0,0.0,0.0
1413,82.0,60.0,60.0,0.0,0.0
1414,67.0,0.0,120.0,0.0,0.0
1415,84.0,60.0,60.0,0.0,0.0
1416,82.0,60.0,60.0,0.0,0.0
1417,75.0,0.0,120.0,0.0,0.0
1418,72.0,0.0,120.0,0.0,0.0
1419,80.0,60.0,60.0,0.0,0.0
1420,79.0,60.0,60.0,0.0,0.0
1421,73.0,0.0,120.0,0.0,0.0
1422,70.0,60.0,120.0,0.0,0.0
1423,77.0,0.0,60.0,0.0,0.0
1424,79.0,60.0,60.0,0.0,0.0
1425,68.0,0.0,120.0,0.0,0.0
1426,72.0,0.0,120.0,0.0,0.0
1427,80.0,60.0,60.0,0.0,0.0
1428,70.0,0.0,120.0,0.0,0.0
1429,82.0,60.0,60.0,0.0,0.0
1430,67.0,0.0,120.0,0.0,0.0
1431,84.0,30.0,60.0,0.0,0.0
1432,85.0,30.0,30.0,0.0,0.0
1433,65.0,0.0,120.0,0.0,0.0
1434,68.0,0.0,120.0,0.0,0.0
1435,84.0,30.0,30.0,0.0,0.0
1436,82.0,30.0,30.0,0.0,0.0
1437,84.0,60.0,30.0,0.0,0.0
1438,85.0,60.0,60.0,0.0,0.0
1439,67.0,0.0,120.0,0.0,0.0
1440,63.0,60.0,120.0,0.0,0.0
1441,77.0,0.0,60.0,0.0,0.0
1442,65.0,60.0,120.0,0.0,0.0
1443,68.0,0.0,120.0,0.0,0.0
1444,75.0,60.0,60.0,0.0,0.0
1445,74.0,0.0,60.0,0.0,0.0
1446,75.0,60.0,60.0,0.0,0.0
1447,63.0,0.0,120.0,0.0,0.0
1448,67.0,0.0,120.0,0.0,0.0
1449,85.0,60.0,60.0,0.0,0.0
1450,65.0,60.0,120.0,0.0,0.0
1451,61.0,0.0,120.0,0.0,0.0
1452,84.0,60.0,60.0,0.0,0.0
1453,82.0,0.0,60.0,0.0,0.0
1454,60.0,60.0,120.0,0.0,0.0
1455,87.0,60.0,60.0,0.0,0.0
1456,63.0,60.0,300.0,0.0,0.0
1457,80.0,0.0,60.0,0.0,0.0
1458,58.0,0.0,120.0,0.0,0.0
1459,79.0,60.0,60.0,0.0,0.0
1460,85.0,60.0,60.0,0.0,0.0
1461,56.0,0.0,120.0,0.0,0.0
1462,84.0,0.0,60.0,0.0,0.0
1463,70.0,60.0,60.0,0.0,0.0
1464,58.0,0.0,120.0,0.0,0.0
1465,68.0,60.0,60.0,0.0,0.0
1466,67.0,60.0,60.0,0.0,0.0
1467,68.0,60.0,60.0,0.0,0.0
1468,60.0,60.0,120.0,0.0,0.0
1469,78.0,0.0,60.0,0.0,0.0
1470,56.0,0.0,120.0,0.0,0.0
1471,77.0,60.0,60.0,0.0,0.0
1472,75.0,60.0,60.0,0.0,0.0
1473,53.0,60.0,120.0,0.0,0.0
1474,80.0,60.0,60.0,0.0,0.0
1475,73.0,0.0,60.0,0.0,0.0
1476,56.0,0.0,120.0,0.0,0.0
1477,72.0,60.0,60.0,0.0,0.0
1478,78.0,120.0,60.0,0.0,0.0
1479,77.0,0.0,480.0,0.0,0.0
1480,49.0,60.0,120.0,0.0,0.0
1481,84.0,0.0,60.0,0.0,0.0
1482,61.0,60.0,180.0,0.0,0.0
1483,82.0,60.0,60.0,0.0,0.0
1484,80.0,60.0,60.0,0.0,0.0
1485,82.0,0.0,120.0,0.0,0.0
1486,60.0,60.0,60.0,0.0,0.0
1487,58.0,60.0,60.0,0.0,0.0
1488,85.0,60.0,240.0,0.0,0.0
1489,56.0,60.0,60.0,0.0,0.0
1490,75.0,60.0,720.0,0.0,0.0
1491,55.0,60.0,60.0,0.0,0.0
1492,53.0,0.0,60.0,0.0,0.0
1493,79.0,60.0,180.0,0.0,0.0
1494,51.0,60.0,60.0,0.0,0.0
1495,49.0,60.0,60.0,0.0,0.0
1496,48.0,0.0,120.0,0.0,0.0
1497,82.0,60.0,60.0,0.0,0.0
1498,60.0,60.0,180.0,0.0,0.0
1499,80.0,60.0,60.0,0.0,0.0
1500,79.0,60.0,60.0,0.0,0.0
1501,80.0,60.0,120.0,0.0,0.0
1502,58.0,0.0,60.0,0.0,0.0
1503,84.0,0.0,240.0,0.0,0.0
1504,56.0,60.0,60.0,0.0,0.0
1505,55.0,0.0,60.0,0.0,0.0
1506,53.0,60.0,60.0,0.0,0.0
1507,51.0,60.0,60.0,0.0,0.0
1508,77.0,60.0,180.0,0.0,0.0
1509,49.0,60.0,60.0,0.0,0.0
1510,48.0,60.0,60.0,0.0,0.0
1511,46.0,60.0,120.0,0.0,0.0
1512,80.0,0.0,60.0,0.0,0.0
1513,58.0,60.0,180.0,0.0,0.0
1514,79.0,60.0,60.0,0.0,0.0
1515,77.0,60.0,60.0,0.0,0.0
1516,79.0,60.0,120.0,0.0,0.0
1517,56.0,0.0,60.0,0.0,0.0
1518,55.0,60.0,60.0,0.0,0.0
1519,53.0,60.0,60.0,0.0,0.0
1520,51.0,60.0,60.0,0.0,0.0
1521,82.0,0.0,15.0,0.0,0.0
1522,49.0,0.0,60.0,0.0,0.0
1523,48.0,60.0,60.0,0.0,0.0
1524,73.0,0.0,15.0,0.0,0.0
1525,67.0,60.0,180.0,0.0,0.0
1526,46.0,60.0,60.0,0.0,0.0
1527,44.0,0.0,120.0,0.0,0.0
1528,63.0,0.0,420.0,0.0,0.0
1529,72.0,60.0,60.0,0.0,0.0
1530,56.0,60.0,180.0,0.0,0.0
1531,70.0,60.0,60.0,0.0,0.0
1532,68.0,0.0,480.0,0.0,0.0
1533,55.0,60.0,60.0,0.0,0.0
1534,56.0,60.0,60.0,0.0,0.0
1535,58.0,60.0,60.0,0.0,0.0
1536,60.0,60.0,60.0,0.0,0.0
1537,63.0,60.0,60.0,0.0,0.0
1538,56.0,60.0,60.0,0.0,0.0
1539,60.0,60.0,60.0,0.0,0.0
1540,61.0,60.0,120.0,0.0,0.0
1541,65.0,60.0,240.0,0.0,0.0
1542,72.0,60.0,15.0,0.0,0.0
1543,49.0,0.0,120.0,0.0,0.0
1544,70.0,60.0,60.0,0.0,0.0
1545,68.0,0.0,60.0,0.0,0.0
1546,61.0,60.0,120.0,0.0,0.0
1547,67.0,60.0,60.0,0.0,0.0
1548,65.0,0.0,60.0,0.0,0.0
1549,67.0,60.0,60.0,0.0,0.0
1550,63.0,60.0,120.0,0.0,0.0
1551,68.0,0.0,60.0,0.0,0.0
1552,70.0,60.0,60.0,0.0,0.0
1553,61.0,0.0,120.0,0.0,0.0
1554,72.0,30.0,60.0,0.0,0.0
1555,60.0,120.0,120.0,0.0,0.0
1556,73.0,30.0,30.0,0.0,0.0
1557,72.0,30.0,30.0,0.0,0.0
1558,70.0,30.0,30.0,0.0,0.0
1559,72.0,0.0,30.0,0.0,0.0
1560,58.0,60.0,240.0,0.0,0.0
1561,73.0,120.0,840.0,0.0,0.0
1562,68.0,60.0,60.0,0.0,0.0
1563,67.0,60.0,60.0,0.0,0.0
1564,65.0,0.0,60.0,0.0,0.0
1565,63.0,60.0,60.0,0.0,0.0
1566,62.0,60.0,60.0,0.0,0.0
1567,60.0,60.0,120.0,0.0,0.0
1568,63.0,60.0,60.0,0.0,0.0
1569,65.0,0.0,60.0,0.0,0.0
1570,58.0,30.0,120.0,0.0,0.0
1571,67.0,60.0,60.0,0.0,0.0
1572,68.0,0.0,60.0,0.0,0.0
1573,56.0,10.0,120.0,0.0,0.0
1574,70.0,30.0,30.0,0.0,0.0
1575,68.0,30.0,30.0,0.0,0.0
1576,67.0,20.0,30.0,0.0,0.0
1577,68.0,30.0,30.0,0.0,0.0
1578,56.0,90.0,30.0,0.0,0.0
1579,70.0,60.0,240.0,0.0,0.0
1580,55.0,60.0,270.0,0.0,0.0
1581,82.0,0.0,15.0,0.0,0.0
1582,63.0,60.0,60.0,0.0,0.0
1583,65.0,60.0,60.0,0.0,0.0
1584,70.0,120.0,120.0,0.0,0.0
1585,73.0,0.0,120.0,0.0,0.0
1586,67.0,0.0,60.0,0.0,0.0
1587,68.0,0.0,120.0,0.0,0.0
1588,72.0,60.0,120.0,0.0,0.0
1589,65.0,0.0,60.0,0.0,0.0
1590,63.0,60.0,60.0,0.0,0.0
1591,61.0,60.0,60.0,0.0,0.0
1592,87.0,0.0,15.0,0.0,0.0
1593,60.0,60.0,60.0,0.0,0.0
1594,58.0,60.0,60.0,0.0,0.0
1595,80.0,60.0,120.0,0.0,0.0
1596,72.0,0.0,120.0,0.0,0.0
1597,60.0,60.0,60.0,0.0,0.0
1598,61.0,0.0,60.0,0.0,0.0
1599,63.0,60.0,60.0,0.0,0.0
1600,70.0,60.0,240.0,0.0,0.0
1601,79.0,60.0,120.0,0.0,0.0
1602,60.0,0.0,60.0,0.0,0.0
1603,58.0,60.0,60.0,0.0,0.0
1604,85.0,0.0,120.0,0.0,0.0
1605,56.0,0.0,60.0,0.0,0.0
1606,85.0,60.0,120.0,0.0,0.0
1607,55.0,60.0,60.0,0.0,0.0
1608,53.0,0.0,60.0,0.0,0.0
1609,55.0,60.0,60.0,0.0,0.0
1610,70.0,0.0,120.0,0.0,0.0
1611,73.0,0.0,120.0,0.0,0.0
1612,56.0,0.0,60.0,0.0,0.0
1613,58.0,60.0,60.0,0.0,0.0
1614,73.0,60.0,300.0,0.0,0.0
1615,67.0,0.0,240.0,0.0,0.0
1616,75.0,60.0,15.0,0.0,0.0
1617,55.0,60.0,60.0,0.0,0.0
1618,53.0,60.0,60.0,0.0,0.0
1619,51.0,60.0,60.0,0.0,0.0
1620,56.0,60.0,120.0,0.0,0.0
1621,68.0,0.0,240.0,0.0,0.0
1622,72.0,0.0,180.0,0.0,0.0
1623,53.0,60.0,120.0,0.0,0.0
1624,77.0,60.0,60.0,0.0,0.0
1625,70.0,60.0,120.0,0.0,0.0
1626,49.0,0.0,120.0,0.0,0.0
1627,80.0,60.0,15.0,0.0,0.0
1628,73.0,0.0,120.0,0.0,0.0
1629,51.0,0.0,120.0,0.0,0.0
1630,79.0,120.0,60.0,0.0,0.0
1631,56.0,60.0,120.0,0.0,0.0
1632,72.0,0.0,240.0,0.0,0.0
1633,75.0,0.0,60.0,0.0,0.0
1634,44.0,0.0,120.0,0.0,0.0
1635,80.0,60.0,60.0,0.0,0.0
1636,79.0,120.0,60.0,0.0,0.0
1637,80.0,0.0,240.0,0.0,0.0
1638,44.0,60.0,120.0,0.0,0.0
1639,75.0,0.0,60.0,0.0,0.0
1640,73.0,60.0,60.0,0.0,0.0
1641,56.0,0.0,120.0,0.0,0.0
1642,75.0,120.0,60.0,0.0,0.0
1643,77.0,60.0,240.0,0.0,0.0
1644,56.0,60.0,120.0,0.0,0.0
1645,73.0,0.0,60.0,0.0,0.0
1646,72.0,60.0,60.0,0.0,0.0
1647,44.0,0.0,120.0,0.0,0.0
1648,73.0,60.0,360.0,0.0,0.0
1649,75.0,60.0,60.0,0.0,0.0
1650,56.0,0.0,120.0,0.0,0.0
1651,77.0,60.0,60.0,0.0,0.0
1652,44.0,0.0,120.0,0.0,0.0
1653,78.0,60.0,60.0,0.0,0.0
1654,77.0,60.0,60.0,0.0,0.0
1655,44.0,0.0,120.0,0.0,0.0
1656,78.0,60.0,240.0,0.0,0.0
1657,73.0,60.0,60.0,0.0,0.0
1658,72.0,60.0,60.0,0.0,0.0
1659,73.0,60.0,120.0,0.0,0.0
1660,56.0,0.0,15.0,0.0,0.0
1661,75.0,60.0,240.0,0.0,0.0
1662,72.0,60.0,60.0,0.0,0.0
1663,70.0,60.0,60.0,0.0,0.0
1664,44.0,0.0,120.0,0.0,0.0
1665,72.0,120.0,300.0,0.0,0.0
1666,73.0,60.0,60.0,0.0,0.0
1667,56.0,0.0,120.0,0.0,0.0
1668,75.0,60.0,60.0,0.0,0.0
1669,76.0,60.0,60.0,0.0,0.0
1670,75.0,0.0,60.0,0.0,0.0
1671,44.0,0.0,15.0,0.0,0.0
1672,76.0,0.0,240.0,0.0,0.0
1673,72.0,0.0,60.0,0.0,0.0
1674,70.0,60.0,60.0,0.0,0.0
1675,56.0,0.0,120.0,0.0,0.0
1676,72.0,120.0,60.0,0.0,0.0
1677,73.0,0.0,480.0,0.0,0.0
1678,56.0,60.0,120.0,0.0,0.0
1679,70.0,0.0,60.0,0.0,0.0
1680,44.0,60.0,120.0,0.0,0.0
1681,68.0,60.0,60.0,0.0,0.0
1682,70.0,0.0,300.0,0.0,0.0
1683,43.0,60.0,60.0,0.0,0.0
1684,63.0,60.0,240.0,0.0,0.0
1685,46.0,60.0,60.0,0.0,0.0
1686,51.0,60.0,60.0,0.0,0.0
1687,53.0,0.0,60.0,0.0,0.0
1688,55.0,60.0,60.0,0.0,0.0
1689,56.0,60.0,60.0,0.0,0.0
1690,58.0,60.0,60.0,0.0,0.0
1691,60.0,60.0,60.0,0.0,0.0
1692,61.0,60.0,60.0,0.0,0.0
1693,63.0,60.0,60.0,0.0,0.0
1694,65.0,60.0,60.0,0.0,0.0
1695,67.0,120.0,60.0,0.0,0.0
1696,72.0,120.0,240.0,0.0,0.0
1697,68.0,0.0,240.0,0.0,0.0
1698,65.0,60.0,60.0,0.0,0.0
1699,63.0,60.0,60.0,0.0,0.0
1700,61.0,0.0,60.0,0.0,0.0
1701,63.0,0.0,240.0,0.0,0.0
1702,72.0,60.0,60.0,0.0,0.0
1703,70.0,60.0,60.0,0.0,0.0
1704,68.0,120.0,60.0,0.0,0.0
1705,51.0,0.0,240.0,0.0,0.0
1706,70.0,0.0,240.0,0.0,0.0
1707,65.0,120.0,60.0,0.0,0.0
1708,67.0,120.0,120.0,0.0,0.0
1709,61.0,0.0,60.0,0.0,0.0
1710,56.0,0.0,2880.0,0.0,0.0
1711,60.0,0.0,120.0,0.0,0.0
1712,63.0,60.0,60.0,0.0,0.0
1713,58.0,60.0,120.0,0.0,0.0
1714,68.0,60.0,60.0,0.0,0.0
1715,67.0,0.0,60.0,0.0,0.0
1716,68.0,60.0,60.0,0.0,0.0
1717,60.0,0.0,120.0,0.0,0.0
1718,72.0,60.0,60.0,0.0,0.0
1719,63.0,60.0,15.0,0.0,0.0
1720,68.0,0.0,60.0,0.0,0.0
1721,61.0,60.0,120.0,0.0,0.0
1722,75.0,60.0,300.0,0.0,0.0
1723,70.0,0.0,60.0,0.0,0.0
1724,60.0,0.0,120.0,0.0,0.0
1725,68.0,60.0,60.0,0.0,0.0
1726,66.0,60.0,60.0,0.0,0.0
1727,61.0,60.0,120.0,0.0,0.0
1728,65.0,0.0,120.0,0.0,0.0
1729,68.0,0.0,60.0,0.0,0.0
1730,63.0,0.0,120.0,0.0,0.0
1731,73.0,60.0,60.0,0.0,0.0
1732,72.0,60.0,60.0,0.0,0.0
1733,65.0,0.0,120.0,0.0,0.0
1734,73.0,60.0,60.0,0.0,0.0
1735,68.0,60.0,60.0,0.0,0.0
1736,68.0,0.0,120.0,0.0,0.0
1737,77.0,60.0,60.0,0.0,0.0
1738,73.0,120.0,60.0,0.0,0.0
1739,80.0,60.0,300.0,0.0,0.0
1740,61.0,60.0,480.0,0.0,0.0
1741,75.0,60.0,60.0,0.0,0.0
1742,63.0,0.0,120.0,0.0,0.0
1743,73.0,60.0,60.0,0.0,0.0
1744,72.0,60.0,60.0,0.0,0.0
1745,70.0,60.0,120.0,0.0,0.0
1746,64.0,0.0,240.0,0.0,0.0
1747,73.0,0.0,60.0,0.0,0.0
1748,79.0,60.0,60.0,0.0,0.0
1749,77.0,0.0,60.0,0.0,0.0
1750,79.0,60.0,60.0,0.0,0.0
1751,73.0,60.0,60.0,0.0,0.0
1752,61.0,60.0,120.0,0.0,0.0
1753,82.0,60.0,60.0,0.0,0.0
1754,79.0,0.0,60.0,0.0,0.0
1755,64.0,0.0,15.0,0.0,0.0
1756,85.0,60.0,60.0,0.0,0.0
1757,61.0,60.0,120.0,0.0,0.0
1758,82.0,0.0,60.0,0.0,0.0
1759,64.0,0.0,120.0,0.0,0.0
1760,61.0,0.0,120.0,0.0,0.0
1761,80.0,60.0,60.0,0.0,0.0
1762,79.0,720.0,60.0,0.0,0.0
1763,72.0,0.0,720.0,0.0,0.0
1764,75.0,0.0,720.0,0.0,0.0
1765,80.0,0.0,720.0,0.0,0.0
1766,63.0,0.0,720.0,0.0,0.0
1767,60.0,0.0,720.0,0.0,0.0
