,note,step,duration,channel,velocity
0,55.0,96.0,90.0,0.0,64.0
1,60.0,96.0,90.0,0.0,64.0
2,63.0,96.0,90.0,0.0,64.0
3,62.0,96.0,90.0,0.0,64.0
4,56.0,96.0,90.0,0.0,64.0
5,55.0,96.0,90.0,0.0,64.0
6,53.0,96.0,90.0,0.0,64.0
7,51.0,96.0,90.0,0.0,64.0
8,55.0,96.0,90.0,0.0,64.0
9,51.0,96.0,90.0,0.0,64.0
10,48.0,96.0,90.0,0.0,64.0
11,55.0,96.0,90.0,0.0,64.0
12,50.0,96.0,90.0,0.0,64.0
13,47.0,96.0,90.0,0.0,64.0
14,43.0,96.0,90.0,0.0,64.0
15,48.0,96.0,90.0,0.0,64.0
16,55.0,96.0,90.0,0.0,64.0
17,51.0,96.0,90.0,0.0,64.0
18,48.0,96.0,90.0,0.0,64.0
19,60.0,96.0,90.0,0.0,64.0
20,48.0,96.0,90.0,0.0,64.0
21,44.0,96.0,90.0,0.0,64.0
22,41.0,96.0,90.0,0.0,64.0
23,53.0,96.0,90.0,0.0,64.0
24,60.0,96.0,90.0,0.0,64.0
25,56.0,96.0,90.0,0.0,64.0
26,53.0,96.0,90.0,0.0,64.0
27,68.0,96.0,90.0,0.0,64.0
28,60.0,96.0,90.0,0.0,64.0
29,56.0,96.0,90.0,0.0,64.0
30,53.0,96.0,90.0,0.0,64.0
31,65.0,96.0,90.0,0.0,64.0
32,70.0,96.0,90.0,0.0,64.0
33,68.0,96.0,90.0,0.0,64.0
34,67.0,96.0,90.0,0.0,64.0
35,65.0,96.0,90.0,0.0,64.0
36,67.0,96.0,90.0,0.0,64.0
37,68.0,96.0,90.0,0.0,64.0
38,64.0,96.0,90.0,0.0,64.0
39,65.0,96.0,90.0,0.0,64.0
40,67.0,96.0,90.0,0.0,64.0
41,68.0,96.0,90.0,0.0,64.0
42,67.0,96.0,90.0,0.0,64.0
43,65.0,96.0,90.0,0.0,64.0
44,63.0,96.0,90.0,0.0,64.0
45,62.0,96.0,90.0,0.0,64.0
46,60.0,96.0,90.0,0.0,64.0
47,59.0,96.0,90.0,0.0,64.0
48,60.0,96.0,90.0,0.0,64.0
49,62.0,96.0,90.0,0.0,64.0
50,60.0,96.0,90.0,0.0,64.0
51,59.0,96.0,90.0,0.0,64.0
52,57.0,96.0,90.0,0.0,64.0
53,55.0,96.0,90.0,0.0,64.0
54,53.0,96.0,90.0,0.0,64.0
55,51.0,96.0,90.0,0.0,64.0
56,53.0,96.0,90.0,0.0,64.0
57,55.0,96.0,90.0,0.0,64.0
58,53.0,96.0,90.0,0.0,64.0
59,51.0,96.0,90.0,0.0,64.0
60,50.0,96.0,90.0,0.0,64.0
61,48.0,96.0,90.0,0.0,64.0
62,47.0,96.0,90.0,0.0,64.0
63,48.0,96.0,15.0,0.0,64.0
64,46.0,96.0,90.0,0.0,64.0
65,44.0,96.0,90.0,0.0,64.0
66,43.0,96.0,90.0,0.0,64.0
67,41.0,96.0,90.0,0.0,64.0
68,39.0,96.0,90.0,0.0,64.0
69,38.0,192.0,90.0,0.0,64.0
70,36.0,960.0,180.0,0.0,64.0
71,36.0,48.0,390.0,0.0,64.0
72,62.0,0.0,40.0,0.0,64.0
73,67.0,0.0,40.0,0.0,64.0
74,71.0,48.0,40.0,0.0,64.0
75,72.0,0.0,40.0,0.0,64.0
76,65.0,48.0,40.0,0.0,64.0
77,62.0,0.0,40.0,0.0,64.0
78,67.0,0.0,40.0,0.0,64.0
79,71.0,48.0,40.0,0.0,64.0
80,65.0,48.0,40.0,0.0,64.0
81,72.0,0.0,40.0,0.0,64.0
82,71.0,0.0,40.0,0.0,64.0
83,62.0,48.0,40.0,0.0,64.0
84,67.0,0.0,40.0,0.0,64.0
85,65.0,48.0,40.0,0.0,64.0
86,72.0,0.0,40.0,0.0,64.0
87,69.0,0.0,40.0,0.0,64.0
88,62.0,48.0,40.0,0.0,64.0
89,67.0,0.0,40.0,0.0,64.0
90,65.0,96.0,40.0,0.0,64.0
91,71.0,0.0,40.0,0.0,64.0
92,72.0,96.0,90.0,0.0,64.0
93,67.0,0.0,90.0,0.0,64.0
94,63.0,0.0,90.0,0.0,64.0
95,36.0,0.0,390.0,0.0,64.0
96,74.0,96.0,90.0,0.0,64.0
97,75.0,96.0,90.0,0.0,64.0
98,71.0,96.0,90.0,0.0,64.0
99,72.0,96.0,90.0,0.0,64.0
100,65.0,96.0,90.0,0.0,64.0
101,67.0,96.0,90.0,0.0,64.0
102,68.0,192.0,90.0,0.0,64.0
103,39.0,96.0,390.0,0.0,64.0
104,67.0,0.0,390.0,0.0,64.0
105,63.0,0.0,390.0,0.0,64.0
106,60.0,0.0,390.0,0.0,64.0
107,74.0,96.0,90.0,0.0,64.0
108,75.0,96.0,90.0,0.0,64.0
109,71.0,0.0,90.0,0.0,64.0
110,72.0,96.0,90.0,0.0,64.0
111,67.0,96.0,90.0,0.0,64.0
112,68.0,96.0,90.0,0.0,64.0
113,70.0,192.0,90.0,0.0,64.0
114,65.0,0.0,390.0,0.0,64.0
115,60.0,96.0,390.0,0.0,64.0
116,41.0,0.0,390.0,0.0,64.0
117,68.0,0.0,390.0,0.0,64.0
118,74.0,96.0,90.0,0.0,64.0
119,75.0,96.0,90.0,0.0,64.0
120,71.0,0.0,90.0,0.0,64.0
121,72.0,96.0,90.0,0.0,64.0
122,65.0,0.0,90.0,0.0,64.0
123,62.0,96.0,90.0,0.0,64.0
124,63.0,96.0,90.0,0.0,64.0
125,67.0,0.0,90.0,0.0,64.0
126,65.0,192.0,90.0,0.0,64.0
127,68.0,0.0,90.0,0.0,64.0
128,43.0,0.0,390.0,0.0,64.0
129,67.0,48.0,390.0,0.0,64.0
130,63.0,0.0,390.0,0.0,64.0
131,74.0,96.0,90.0,0.0,64.0
132,75.0,96.0,90.0,0.0,64.0
133,71.0,0.0,90.0,0.0,64.0
134,69.0,0.0,40.0,0.0,64.0
135,66.0,0.0,40.0,0.0,64.0
136,60.0,48.0,40.0,0.0,64.0
137,72.0,0.0,40.0,0.0,64.0
138,63.0,48.0,40.0,0.0,64.0
139,60.0,48.0,40.0,0.0,64.0
140,66.0,0.0,40.0,0.0,64.0
141,69.0,0.0,40.0,0.0,64.0
142,72.0,0.0,40.0,0.0,64.0
143,63.0,48.0,40.0,0.0,64.0
144,66.0,48.0,40.0,0.0,64.0
145,60.0,0.0,40.0,0.0,64.0
146,69.0,0.0,40.0,0.0,64.0
147,63.0,48.0,40.0,0.0,64.0
148,72.0,0.0,40.0,0.0,64.0
149,69.0,48.0,40.0,0.0,64.0
150,60.0,0.0,40.0,0.0,64.0
151,66.0,0.0,40.0,0.0,64.0
152,63.0,96.0,40.0,0.0,64.0
153,72.0,0.0,40.0,0.0,64.0
154,71.0,96.0,480.0,0.0,64.0
155,62.0,96.0,90.0,0.0,64.0
156,43.0,0.0,390.0,0.0,64.0
157,55.0,96.0,90.0,0.0,64.0
158,59.0,96.0,90.0,0.0,64.0
159,62.0,96.0,90.0,0.0,64.0
160,67.0,0.0,15.0,0.0,64.0
161,74.0,192.0,90.0,0.0,64.0
162,79.0,192.0,180.0,0.0,64.0
163,54.0,96.0,90.0,0.0,64.0
164,55.0,96.0,90.0,0.0,64.0
165,54.0,96.0,90.0,0.0,64.0
166,55.0,96.0,90.0,0.0,64.0
167,49.0,96.0,90.0,0.0,64.0
168,50.0,96.0,90.0,0.0,64.0
169,49.0,96.0,90.0,0.0,64.0
170,50.0,96.0,90.0,0.0,64.0
171,45.0,96.0,90.0,0.0,64.0
172,47.0,96.0,90.0,0.0,64.0
173,45.0,96.0,90.0,0.0,64.0
174,47.0,48.0,90.0,0.0,64.0
175,43.0,48.0,40.0,0.0,64.0
176,50.0,48.0,40.0,0.0,64.0
177,47.0,48.0,40.0,0.0,64.0
178,50.0,48.0,40.0,0.0,64.0
179,47.0,48.0,40.0,0.0,64.0
180,50.0,384.0,40.0,0.0,64.0
181,40.0,96.0,390.0,0.0,64.0
182,72.0,48.0,40.0,0.0,64.0
183,70.0,48.0,40.0,0.0,64.0
184,68.0,48.0,40.0,0.0,64.0
185,67.0,48.0,40.0,0.0,64.0
186,65.0,48.0,40.0,0.0,64.0
187,64.0,48.0,40.0,0.0,64.0
188,62.0,96.0,40.0,0.0,64.0
189,60.0,48.0,390.0,0.0,64.0
190,62.0,48.0,40.0,0.0,64.0
191,64.0,48.0,40.0,0.0,64.0
192,65.0,48.0,40.0,0.0,64.0
193,67.0,48.0,40.0,0.0,64.0
194,68.0,48.0,40.0,0.0,64.0
195,70.0,48.0,40.0,0.0,64.0
196,72.0,0.0,40.0,0.0,64.0
197,70.0,0.0,40.0,0.0,64.0
198,67.0,48.0,40.0,0.0,64.0
199,64.0,0.0,40.0,0.0,64.0
200,40.0,0.0,390.0,0.0,64.0
201,72.0,48.0,40.0,0.0,64.0
202,67.0,0.0,15.0,0.0,64.0
203,60.0,0.0,15.0,0.0,64.0
204,70.0,0.0,40.0,0.0,64.0
205,64.0,0.0,40.0,0.0,64.0
206,67.0,48.0,40.0,0.0,64.0
207,72.0,0.0,40.0,0.0,64.0
208,64.0,0.0,40.0,0.0,64.0
209,70.0,0.0,40.0,0.0,64.0
210,67.0,48.0,15.0,0.0,64.0
211,72.0,48.0,40.0,0.0,64.0
212,64.0,0.0,40.0,0.0,64.0
213,70.0,0.0,40.0,0.0,64.0
214,60.0,0.0,15.0,0.0,64.0
215,67.0,48.0,15.0,0.0,64.0
216,72.0,0.0,40.0,0.0,64.0
217,41.0,24.0,390.0,0.0,64.0
218,55.0,0.0,90.0,0.0,64.0
219,64.0,96.0,90.0,0.0,64.0
220,56.0,0.0,90.0,0.0,64.0
221,65.0,96.0,90.0,0.0,64.0
222,58.0,0.0,90.0,0.0,64.0
223,67.0,0.0,90.0,0.0,64.0
224,56.0,96.0,300.0,0.0,64.0
225,65.0,24.0,20.0,0.0,64.0
226,67.0,240.0,20.0,0.0,64.0
227,65.0,0.0,240.0,0.0,64.0
228,64.0,0.0,90.0,0.0,64.0
229,55.0,384.0,90.0,0.0,64.0
230,41.0,384.0,390.0,0.0,64.0
231,53.0,0.0,390.0,0.0,64.0
232,68.0,0.0,390.0,0.0,64.0
233,60.0,0.0,390.0,0.0,64.0
234,65.0,0.0,390.0,0.0,64.0
235,60.0,0.0,180.0,0.0,64.0
236,65.0,192.0,180.0,0.0,64.0
237,68.0,0.0,180.0,0.0,64.0
238,53.0,0.0,180.0,0.0,64.0
239,67.0,0.0,390.0,0.0,64.0
240,62.0,0.0,390.0,0.0,64.0
241,55.0,384.0,390.0,0.0,64.0
242,59.0,0.0,390.0,0.0,64.0
243,47.0,0.0,180.0,0.0,64.0
244,63.0,0.0,180.0,0.0,64.0
245,67.0,192.0,180.0,0.0,64.0
246,51.0,0.0,180.0,0.0,64.0
247,60.0,0.0,15.0,0.0,64.0
248,53.0,0.0,390.0,0.0,64.0
249,65.0,384.0,390.0,0.0,64.0
250,57.0,0.0,390.0,0.0,64.0
251,45.0,0.0,180.0,0.0,64.0
252,50.0,0.0,180.0,0.0,64.0
253,65.0,192.0,180.0,0.0,64.0
254,53.0,0.0,180.0,0.0,64.0
255,59.0,0.0,180.0,0.0,64.0
256,51.0,0.0,390.0,0.0,64.0
257,55.0,384.0,390.0,0.0,64.0
258,60.0,0.0,390.0,0.0,64.0
259,63.0,0.0,390.0,0.0,64.0
260,43.0,0.0,180.0,0.0,64.0
261,68.0,0.0,180.0,0.0,64.0
262,48.0,192.0,180.0,0.0,64.0
263,63.0,0.0,180.0,0.0,64.0
264,62.0,0.0,390.0,0.0,64.0
265,56.0,0.0,15.0,0.0,64.0
266,53.0,0.0,390.0,0.0,64.0
267,46.0,96.0,90.0,0.0,64.0
268,44.0,0.0,90.0,0.0,64.0
269,62.0,192.0,390.0,0.0,64.0
270,50.0,192.0,15.0,0.0,64.0
271,46.0,96.0,180.0,0.0,64.0
272,67.0,192.0,570.0,0.0,64.0
273,55.0,0.0,180.0,0.0,64.0
274,44.0,96.0,90.0,0.0,64.0
275,43.0,0.0,90.0,0.0,64.0
276,48.0,0.0,390.0,0.0,64.0
277,52.0,0.0,390.0,0.0,64.0
278,44.0,384.0,390.0,0.0,64.0
279,60.0,0.0,180.0,0.0,64.0
280,60.0,0.0,180.0,0.0,64.0
281,65.0,0.0,570.0,0.0,64.0
282,60.0,192.0,180.0,0.0,64.0
283,44.0,0.0,180.0,0.0,64.0
284,48.0,0.0,180.0,0.0,64.0
285,53.0,0.0,180.0,0.0,64.0
286,50.0,0.0,390.0,0.0,64.0
287,43.0,192.0,390.0,0.0,64.0
288,59.0,192.0,15.0,0.0,64.0
289,55.0,0.0,15.0,0.0,64.0
290,48.0,192.0,180.0,0.0,64.0
291,60.0,0.0,390.0,0.0,64.0
292,63.0,192.0,570.0,0.0,64.0
293,39.0,192.0,180.0,0.0,64.0
294,53.0,0.0,390.0,0.0,64.0
295,48.0,0.0,15.0,0.0,64.0
296,41.0,0.0,390.0,0.0,64.0
297,56.0,0.0,180.0,0.0,64.0
298,56.0,0.0,180.0,0.0,64.0
299,61.0,192.0,570.0,0.0,64.0
300,58.0,0.0,180.0,0.0,64.0
301,43.0,192.0,180.0,0.0,64.0
302,46.0,0.0,180.0,0.0,64.0
303,51.0,0.0,180.0,0.0,64.0
304,56.0,0.0,390.0,0.0,64.0
305,48.0,0.0,390.0,0.0,64.0
306,51.0,0.0,390.0,0.0,64.0
307,44.0,0.0,390.0,0.0,64.0
308,60.0,384.0,180.0,0.0,64.0
309,65.0,0.0,570.0,0.0,64.0
310,53.0,0.0,180.0,0.0,64.0
311,48.0,0.0,180.0,0.0,64.0
312,57.0,0.0,180.0,0.0,64.0
313,41.0,192.0,180.0,0.0,64.0
314,43.0,0.0,390.0,0.0,64.0
315,58.0,192.0,180.0,0.0,64.0
316,51.0,0.0,390.0,0.0,64.0
317,46.0,0.0,390.0,0.0,64.0
318,58.0,384.0,180.0,0.0,64.0
319,63.0,192.0,570.0,0.0,64.0
320,53.0,0.0,180.0,0.0,64.0
321,48.0,192.0,180.0,0.0,64.0
322,45.0,0.0,180.0,0.0,64.0
323,60.0,0.0,180.0,0.0,64.0
324,50.0,0.0,390.0,0.0,64.0
325,46.0,0.0,390.0,0.0,64.0
326,53.0,384.0,390.0,0.0,64.0
327,58.0,0.0,390.0,0.0,64.0
328,62.0,0.0,180.0,0.0,64.0
329,67.0,192.0,570.0,0.0,64.0
330,41.0,0.0,180.0,0.0,64.0
331,59.0,0.0,180.0,0.0,64.0
332,55.0,192.0,180.0,0.0,64.0
333,50.0,0.0,180.0,0.0,64.0
334,60.0,0.0,180.0,0.0,64.0
335,45.0,0.0,390.0,0.0,64.0
336,51.0,0.0,390.0,0.0,64.0
337,48.0,0.0,390.0,0.0,64.0
338,60.0,384.0,180.0,0.0,64.0
339,65.0,192.0,570.0,0.0,64.0
340,47.0,0.0,180.0,0.0,64.0
341,50.0,0.0,180.0,0.0,64.0
342,62.0,192.0,180.0,0.0,64.0
343,55.0,0.0,15.0,0.0,64.0
344,48.0,0.0,390.0,0.0,64.0
345,51.0,0.0,390.0,0.0,64.0
346,63.0,0.0,180.0,0.0,64.0
347,60.0,0.0,15.0,0.0,64.0
348,68.0,0.0,180.0,0.0,64.0
349,63.0,192.0,90.0,0.0,64.0
350,67.0,0.0,180.0,0.0,64.0
351,58.0,0.0,180.0,0.0,64.0
352,63.0,384.0,90.0,0.0,64.0
353,57.0,0.0,390.0,0.0,64.0
354,48.0,0.0,390.0,0.0,64.0
355,66.0,0.0,390.0,0.0,64.0
356,62.0,384.0,390.0,0.0,64.0
357,49.0,384.0,180.0,0.0,64.0
358,58.0,0.0,180.0,0.0,64.0
359,52.0,0.0,180.0,0.0,64.0
360,64.0,0.0,180.0,0.0,64.0
361,67.0,0.0,15.0,0.0,64.0
362,49.0,0.0,180.0,0.0,64.0
363,64.0,384.0,180.0,0.0,64.0
364,52.0,0.0,180.0,0.0,64.0
365,58.0,0.0,180.0,0.0,64.0
366,67.0,384.0,390.0,0.0,64.0
367,52.0,0.0,180.0,0.0,64.0
368,64.0,0.0,180.0,0.0,64.0
369,49.0,0.0,180.0,0.0,64.0
370,58.0,0.0,180.0,0.0,64.0
371,57.0,0.0,390.0,0.0,64.0
372,50.0,0.0,390.0,0.0,64.0
373,62.0,0.0,390.0,0.0,64.0
374,66.0,384.0,390.0,0.0,64.0
375,60.0,0.0,180.0,0.0,64.0
376,69.0,0.0,180.0,0.0,64.0
377,54.0,0.0,180.0,0.0,64.0
378,57.0,384.0,180.0,0.0,64.0
379,63.0,0.0,15.0,0.0,64.0
380,69.0,0.0,180.0,0.0,64.0
381,57.0,0.0,180.0,0.0,64.0
382,54.0,0.0,180.0,0.0,64.0
383,60.0,0.0,180.0,0.0,64.0
384,62.0,384.0,390.0,0.0,64.0
385,60.0,0.0,180.0,0.0,64.0
386,54.0,0.0,180.0,0.0,64.0
387,69.0,0.0,180.0,0.0,64.0
388,57.0,0.0,180.0,0.0,64.0
389,62.0,0.0,390.0,0.0,64.0
390,70.0,0.0,390.0,0.0,64.0
391,55.0,0.0,390.0,0.0,64.0
392,58.0,0.0,390.0,0.0,64.0
393,65.0,0.0,180.0,0.0,64.0
394,55.0,0.0,180.0,0.0,64.0
395,62.0,0.0,180.0,0.0,64.0
396,71.0,384.0,180.0,0.0,64.0
397,68.0,0.0,15.0,0.0,64.0
398,62.0,0.0,180.0,0.0,64.0
399,55.0,0.0,180.0,0.0,64.0
400,71.0,0.0,180.0,0.0,64.0
401,65.0,384.0,180.0,0.0,64.0
402,71.0,0.0,180.0,0.0,64.0
403,62.0,384.0,180.0,0.0,64.0
404,53.0,0.0,180.0,0.0,64.0
405,55.0,0.0,180.0,0.0,64.0
406,72.0,0.0,390.0,0.0,64.0
407,51.0,0.0,390.0,0.0,64.0
408,67.0,0.0,15.0,0.0,64.0
409,60.0,384.0,390.0,0.0,64.0
410,55.0,0.0,390.0,0.0,64.0
411,67.0,384.0,180.0,0.0,64.0
412,70.0,0.0,180.0,0.0,64.0
413,55.0,0.0,180.0,0.0,64.0
414,52.0,0.0,180.0,0.0,64.0
415,61.0,0.0,15.0,0.0,64.0
416,70.0,0.0,180.0,0.0,64.0
417,55.0,0.0,180.0,0.0,64.0
418,52.0,0.0,180.0,0.0,64.0
419,67.0,0.0,180.0,0.0,64.0
420,60.0,0.0,390.0,0.0,64.0
421,52.0,384.0,180.0,0.0,64.0
422,70.0,0.0,180.0,0.0,64.0
423,67.0,0.0,180.0,0.0,64.0
424,55.0,0.0,180.0,0.0,64.0
425,65.0,0.0,390.0,0.0,64.0
426,60.0,0.0,390.0,0.0,64.0
427,53.0,0.0,390.0,0.0,64.0
428,68.0,0.0,390.0,0.0,64.0
429,56.0,0.0,390.0,0.0,64.0
430,47.0,0.0,180.0,0.0,64.0
431,62.0,0.0,180.0,0.0,64.0
432,65.0,384.0,180.0,0.0,64.0
433,74.0,0.0,180.0,0.0,64.0
434,56.0,0.0,390.0,0.0,64.0
435,47.0,0.0,180.0,0.0,64.0
436,74.0,384.0,180.0,0.0,64.0
437,65.0,0.0,180.0,0.0,64.0
438,62.0,0.0,180.0,0.0,64.0
439,55.0,0.0,390.0,0.0,64.0
440,74.0,0.0,180.0,0.0,64.0
441,65.0,0.0,180.0,0.0,64.0
442,47.0,0.0,180.0,0.0,64.0
443,62.0,384.0,180.0,0.0,64.0
444,63.0,96.0,390.0,0.0,64.0
445,67.0,0.0,390.0,0.0,64.0
446,55.0,0.0,390.0,0.0,64.0
447,60.0,0.0,390.0,0.0,64.0
448,48.0,0.0,15.0,0.0,64.0
449,51.0,96.0,90.0,0.0,64.0
450,50.0,96.0,90.0,0.0,64.0
451,53.0,96.0,90.0,0.0,64.0
452,51.0,96.0,90.0,0.0,64.0
453,55.0,96.0,90.0,0.0,64.0
454,53.0,96.0,90.0,0.0,64.0
455,56.0,192.0,90.0,0.0,64.0
456,71.0,0.0,180.0,0.0,64.0
457,65.0,0.0,180.0,0.0,64.0
458,55.0,192.0,15.0,0.0,64.0
459,62.0,0.0,180.0,0.0,64.0
460,43.0,0.0,180.0,0.0,64.0
461,63.0,0.0,390.0,0.0,64.0
462,72.0,0.0,390.0,0.0,64.0
463,60.0,0.0,390.0,0.0,64.0
464,55.0,384.0,15.0,0.0,64.0
465,51.0,384.0,390.0,0.0,64.0
466,61.0,0.0,390.0,0.0,64.0
467,70.0,384.0,180.0,0.0,64.0
468,40.0,0.0,180.0,0.0,64.0
469,55.0,0.0,180.0,0.0,64.0
470,67.0,0.0,180.0,0.0,64.0
471,61.0,0.0,390.0,0.0,64.0
472,40.0,0.0,180.0,0.0,64.0
473,55.0,384.0,180.0,0.0,64.0
474,70.0,0.0,180.0,0.0,64.0
475,67.0,0.0,180.0,0.0,64.0
476,60.0,0.0,390.0,0.0,64.0
477,40.0,0.0,180.0,0.0,64.0
478,55.0,0.0,180.0,0.0,64.0
479,67.0,384.0,180.0,0.0,64.0
480,70.0,0.0,180.0,0.0,64.0
481,53.0,0.0,390.0,0.0,64.0
482,48.0,0.0,390.0,0.0,64.0
483,65.0,0.0,390.0,0.0,64.0
484,60.0,0.0,390.0,0.0,64.0
485,68.0,96.0,390.0,0.0,64.0
486,41.0,0.0,15.0,0.0,64.0
487,44.0,96.0,90.0,0.0,64.0
488,43.0,96.0,90.0,0.0,64.0
489,46.0,96.0,90.0,0.0,64.0
490,44.0,96.0,90.0,0.0,64.0
491,48.0,96.0,90.0,0.0,64.0
492,46.0,96.0,90.0,0.0,64.0
493,49.0,192.0,90.0,0.0,64.0
494,48.0,192.0,180.0,0.0,64.0
495,72.0,0.0,180.0,0.0,64.0
496,76.0,0.0,180.0,0.0,64.0
497,36.0,0.0,180.0,0.0,64.0
498,70.0,0.0,180.0,0.0,64.0
499,67.0,384.0,180.0,0.0,64.0
500,64.0,0.0,180.0,0.0,64.0
501,41.0,0.0,390.0,0.0,64.0
502,68.0,0.0,390.0,0.0,64.0
503,77.0,0.0,390.0,0.0,64.0
504,72.0,384.0,390.0,0.0,64.0
505,60.0,0.0,15.0,0.0,64.0
506,65.0,0.0,390.0,0.0,64.0
507,56.0,0.0,390.0,0.0,64.0
508,65.0,0.0,180.0,0.0,64.0
509,77.0,0.0,180.0,0.0,64.0
510,62.0,0.0,180.0,0.0,64.0
511,74.0,0.0,180.0,0.0,64.0
512,68.0,0.0,180.0,0.0,64.0
513,47.0,384.0,180.0,0.0,64.0
514,56.0,0.0,390.0,0.0,64.0
515,77.0,0.0,180.0,0.0,64.0
516,74.0,0.0,180.0,0.0,64.0
517,68.0,0.0,180.0,0.0,64.0
518,62.0,0.0,180.0,0.0,64.0
519,65.0,384.0,180.0,0.0,64.0
520,47.0,0.0,180.0,0.0,64.0
521,55.0,0.0,390.0,0.0,64.0
522,62.0,0.0,180.0,0.0,64.0
523,47.0,0.0,180.0,0.0,64.0
524,77.0,384.0,180.0,0.0,64.0
525,74.0,0.0,180.0,0.0,64.0
526,75.0,0.0,390.0,0.0,64.0
527,72.0,0.0,390.0,0.0,64.0
528,67.0,0.0,15.0,0.0,64.0
529,55.0,0.0,390.0,0.0,64.0
530,63.0,0.0,390.0,0.0,64.0
531,60.0,0.0,390.0,0.0,64.0
532,48.0,96.0,15.0,0.0,64.0
533,51.0,96.0,90.0,0.0,64.0
534,50.0,96.0,90.0,0.0,64.0
535,53.0,96.0,90.0,0.0,64.0
536,51.0,96.0,90.0,0.0,64.0
537,55.0,96.0,90.0,0.0,64.0
538,53.0,96.0,90.0,0.0,64.0
539,56.0,192.0,90.0,0.0,64.0
540,59.0,192.0,180.0,0.0,64.0
541,55.0,192.0,15.0,0.0,64.0
542,43.0,0.0,180.0,0.0,64.0
543,62.0,0.0,180.0,0.0,64.0
544,67.0,192.0,390.0,0.0,64.0
545,44.0,0.0,390.0,0.0,64.0
546,48.0,576.0,390.0,0.0,64.0
547,60.0,0.0,390.0,0.0,64.0
548,65.0,0.0,180.0,0.0,64.0
549,45.0,48.0,390.0,0.0,64.0
550,72.0,192.0,90.0,0.0,64.0
551,66.0,0.0,180.0,0.0,64.0
552,54.0,48.0,40.0,0.0,64.0
553,69.0,0.0,40.0,0.0,64.0
554,57.0,0.0,40.0,0.0,64.0
555,72.0,48.0,40.0,0.0,64.0
556,54.0,0.0,40.0,0.0,64.0
557,69.0,48.0,40.0,0.0,64.0
558,62.0,0.0,15.0,0.0,64.0
559,57.0,0.0,40.0,0.0,64.0
560,72.0,0.0,40.0,0.0,64.0
561,50.0,0.0,180.0,0.0,64.0
562,54.0,0.0,40.0,0.0,64.0
563,62.0,48.0,90.0,0.0,64.0
564,69.0,48.0,40.0,0.0,64.0
565,57.0,0.0,40.0,0.0,64.0
566,72.0,0.0,40.0,0.0,64.0
567,54.0,48.0,40.0,0.0,64.0
568,69.0,0.0,40.0,0.0,64.0
569,62.0,0.0,90.0,0.0,64.0
570,72.0,384.0,40.0,0.0,64.0
571,57.0,0.0,40.0,0.0,64.0
572,43.0,0.0,390.0,0.0,64.0
573,62.0,0.0,390.0,0.0,64.0
574,67.0,0.0,390.0,0.0,64.0
575,71.0,0.0,390.0,0.0,64.0
576,55.0,96.0,15.0,0.0,64.0
577,56.0,96.0,90.0,0.0,64.0
578,53.0,96.0,90.0,0.0,64.0
579,55.0,96.0,90.0,0.0,64.0
580,52.0,96.0,90.0,0.0,64.0
581,53.0,96.0,90.0,0.0,64.0
582,50.0,96.0,90.0,0.0,64.0
583,53.0,192.0,90.0,0.0,64.0
584,52.0,192.0,180.0,0.0,64.0
585,48.0,0.0,180.0,0.0,64.0
586,55.0,0.0,180.0,0.0,64.0
587,60.0,0.0,180.0,0.0,64.0
588,64.0,0.0,180.0,0.0,64.0
589,70.0,384.0,180.0,0.0,64.0
590,53.0,0.0,390.0,0.0,64.0
591,60.0,0.0,390.0,0.0,64.0
592,68.0,0.0,390.0,0.0,64.0
593,65.0,0.0,15.0,0.0,64.0
594,74.0,0.0,90.0,0.0,64.0
595,75.0,96.0,90.0,0.0,64.0
596,67.0,0.0,90.0,0.0,64.0
597,72.0,96.0,90.0,0.0,64.0
598,63.0,0.0,90.0,0.0,64.0
599,41.0,0.0,180.0,0.0,64.0
600,65.0,0.0,90.0,0.0,64.0
601,74.0,96.0,90.0,0.0,64.0
602,43.0,0.0,390.0,0.0,64.0
603,62.0,96.0,90.0,0.0,64.0
604,71.0,0.0,90.0,0.0,64.0
605,63.0,96.0,90.0,0.0,64.0
606,72.0,0.0,90.0,0.0,64.0
607,60.0,0.0,90.0,0.0,64.0
608,69.0,96.0,90.0,0.0,64.0
609,72.0,192.0,90.0,0.0,64.0
610,63.0,0.0,90.0,0.0,64.0
611,55.0,0.0,180.0,0.0,64.0
612,71.0,192.0,15.0,0.0,64.0
613,65.0,384.0,180.0,0.0,64.0
614,62.0,0.0,15.0,0.0,64.0
615,43.0,0.0,180.0,0.0,64.0
616,67.0,0.0,180.0,0.0,64.0
617,55.0,0.0,390.0,0.0,64.0
618,48.0,0.0,390.0,0.0,64.0
619,60.0,0.0,390.0,0.0,64.0
620,72.0,0.0,390.0,0.0,64.0
621,67.0,96.0,390.0,0.0,64.0
622,63.0,0.0,390.0,0.0,64.0
623,36.0,96.0,90.0,0.0,64.0
624,51.0,96.0,90.0,0.0,64.0
625,38.0,96.0,90.0,0.0,64.0
626,53.0,96.0,90.0,0.0,64.0
627,39.0,96.0,90.0,0.0,64.0
628,55.0,96.0,90.0,0.0,64.0
629,41.0,96.0,90.0,0.0,64.0
630,56.0,192.0,90.0,0.0,64.0
631,43.0,192.0,180.0,0.0,64.0
632,65.0,384.0,180.0,0.0,64.0
633,62.0,0.0,180.0,0.0,64.0
634,71.0,0.0,180.0,0.0,64.0
635,55.0,0.0,180.0,0.0,64.0
636,63.0,0.0,390.0,0.0,64.0
637,60.0,0.0,390.0,0.0,64.0
638,72.0,0.0,390.0,0.0,64.0
639,67.0,0.0,15.0,0.0,64.0
640,48.0,0.0,390.0,0.0,64.0
641,55.0,0.0,15.0,0.0,64.0
642,55.0,0.0,180.0,0.0,64.0
643,59.0,0.0,180.0,0.0,64.0
644,50.0,0.0,180.0,0.0,64.0
645,53.0,384.0,180.0,0.0,64.0
646,36.0,0.0,15.0,0.0,64.0
647,43.0,2304.0,390.0,0.0,64.0
648,48.0,0.0,390.0,0.0,64.0
649,51.0,0.0,390.0,0.0,64.0
650,55.0,0.0,390.0,0.0,64.0
651,60.0,0.0,390.0,0.0,64.0
652,55.0,48.0,180.0,0.0,64.0
653,55.0,48.0,40.0,0.0,64.0
654,54.0,288.0,40.0,0.0,64.0
655,55.0,384.0,300.0,0.0,64.0
656,55.0,48.0,180.0,0.0,64.0
657,55.0,48.0,40.0,0.0,64.0
658,54.0,288.0,40.0,0.0,64.0
659,55.0,384.0,300.0,0.0,64.0
660,55.0,192.0,180.0,0.0,64.0
661,48.0,192.0,180.0,0.0,64.0
662,50.0,192.0,180.0,0.0,64.0
663,51.0,192.0,180.0,0.0,64.0
664,55.0,192.0,180.0,0.0,64.0
665,48.0,192.0,180.0,0.0,64.0
666,50.0,384.0,180.0,0.0,64.0
667,51.0,48.0,390.0,0.0,64.0
668,48.0,0.0,180.0,0.0,64.0
669,48.0,48.0,40.0,0.0,64.0
670,47.0,192.0,40.0,0.0,64.0
671,48.0,384.0,300.0,0.0,64.0
672,55.0,96.0,90.0,0.0,64.0
673,50.0,0.0,90.0,0.0,64.0
674,51.0,0.0,390.0,0.0,64.0
675,48.0,48.0,15.0,0.0,64.0
676,47.0,192.0,40.0,0.0,64.0
677,48.0,384.0,300.0,0.0,64.0
678,55.0,96.0,90.0,0.0,64.0
679,50.0,0.0,90.0,0.0,64.0
680,51.0,0.0,390.0,0.0,64.0
681,48.0,192.0,180.0,0.0,64.0
682,43.0,192.0,180.0,0.0,64.0
683,60.0,192.0,180.0,0.0,64.0
684,45.0,0.0,180.0,0.0,64.0
685,62.0,192.0,180.0,0.0,64.0
686,46.0,0.0,180.0,0.0,64.0
687,50.0,0.0,180.0,0.0,64.0
688,54.0,192.0,180.0,0.0,64.0
689,43.0,0.0,180.0,0.0,64.0
690,55.0,96.0,90.0,0.0,64.0
691,45.0,0.0,180.0,0.0,64.0
692,53.0,96.0,90.0,0.0,64.0
693,51.0,192.0,90.0,0.0,64.0
694,46.0,96.0,180.0,0.0,64.0
695,50.0,0.0,180.0,0.0,64.0
696,55.0,96.0,90.0,0.0,64.0
697,47.0,192.0,180.0,0.0,64.0
698,50.0,0.0,90.0,0.0,64.0
699,51.0,96.0,180.0,0.0,64.0
700,48.0,0.0,180.0,0.0,64.0
701,56.0,96.0,90.0,0.0,64.0
702,36.0,192.0,180.0,0.0,64.0
703,51.0,0.0,90.0,0.0,64.0
704,53.0,96.0,180.0,0.0,64.0
705,38.0,0.0,180.0,0.0,64.0
706,58.0,96.0,90.0,0.0,64.0
707,50.0,192.0,180.0,0.0,64.0
708,53.0,0.0,90.0,0.0,64.0
709,55.0,96.0,180.0,0.0,64.0
710,51.0,0.0,180.0,0.0,64.0
711,52.0,192.0,180.0,0.0,64.0
712,60.0,96.0,90.0,0.0,64.0
713,55.0,0.0,90.0,0.0,64.0
714,53.0,96.0,180.0,0.0,64.0
715,56.0,96.0,300.0,0.0,64.0
716,51.0,192.0,180.0,0.0,64.0
717,55.0,0.0,90.0,0.0,64.0
718,50.0,96.0,180.0,0.0,64.0
719,53.0,96.0,300.0,0.0,64.0
720,48.0,384.0,180.0,0.0,64.0
721,51.0,0.0,90.0,0.0,64.0
722,50.0,0.0,390.0,0.0,64.0
723,47.0,0.0,390.0,0.0,64.0
724,67.0,48.0,15.0,0.0,64.0
725,66.0,288.0,40.0,0.0,64.0
726,67.0,0.0,300.0,0.0,64.0
727,50.0,384.0,180.0,0.0,64.0
728,47.0,0.0,180.0,0.0,64.0
729,48.0,0.0,390.0,0.0,64.0
730,51.0,0.0,390.0,0.0,64.0
731,67.0,48.0,180.0,0.0,64.0
732,67.0,48.0,40.0,0.0,64.0
733,66.0,192.0,40.0,0.0,64.0
734,67.0,384.0,300.0,0.0,64.0
735,47.0,0.0,180.0,0.0,64.0
736,55.0,96.0,90.0,0.0,64.0
737,50.0,0.0,90.0,0.0,64.0
738,51.0,0.0,390.0,0.0,64.0
739,48.0,192.0,390.0,0.0,64.0
740,67.0,0.0,180.0,0.0,64.0
741,60.0,192.0,180.0,0.0,64.0
742,62.0,0.0,180.0,0.0,64.0
743,47.0,192.0,180.0,0.0,64.0
744,55.0,0.0,180.0,0.0,64.0
745,63.0,0.0,180.0,0.0,64.0
746,48.0,0.0,180.0,0.0,64.0
747,55.0,96.0,180.0,0.0,64.0
748,67.0,0.0,180.0,0.0,64.0
749,59.0,0.0,180.0,0.0,64.0
750,43.0,96.0,90.0,0.0,64.0
751,41.0,192.0,90.0,0.0,64.0
752,39.0,192.0,180.0,0.0,64.0
753,60.0,0.0,180.0,0.0,64.0
754,62.0,0.0,180.0,0.0,64.0
755,59.0,192.0,180.0,0.0,64.0
756,43.0,0.0,180.0,0.0,64.0
757,63.0,192.0,390.0,0.0,64.0
758,60.0,192.0,570.0,0.0,64.0
759,36.0,96.0,180.0,0.0,64.0
760,44.0,96.0,90.0,0.0,64.0
761,39.0,0.0,90.0,0.0,64.0
762,68.0,0.0,180.0,0.0,64.0
763,41.0,0.0,180.0,0.0,64.0
764,43.0,0.0,180.0,0.0,64.0
765,67.0,192.0,180.0,0.0,64.0
766,59.0,0.0,180.0,0.0,64.0
767,65.0,0.0,180.0,0.0,64.0
768,60.0,0.0,180.0,0.0,64.0
769,44.0,192.0,180.0,0.0,64.0
770,43.0,0.0,180.0,0.0,64.0
771,58.0,0.0,180.0,0.0,64.0
772,63.0,192.0,180.0,0.0,64.0
773,41.0,0.0,390.0,0.0,64.0
774,56.0,192.0,390.0,0.0,64.0
775,62.0,192.0,180.0,0.0,64.0
776,60.0,0.0,180.0,0.0,64.0
777,43.0,96.0,180.0,0.0,64.0
778,59.0,192.0,390.0,0.0,64.0
779,55.0,96.0,90.0,0.0,64.0
780,53.0,0.0,90.0,0.0,64.0
781,51.0,96.0,180.0,0.0,64.0
782,55.0,0.0,180.0,0.0,64.0
783,59.0,0.0,90.0,0.0,64.0
784,60.0,96.0,90.0,0.0,64.0
785,50.0,384.0,180.0,0.0,64.0
786,53.0,0.0,180.0,0.0,64.0
787,62.0,0.0,90.0,0.0,64.0
788,48.0,0.0,390.0,0.0,64.0
789,55.0,48.0,390.0,0.0,64.0
790,63.0,0.0,390.0,0.0,64.0
791,60.0,0.0,180.0,0.0,64.0
792,60.0,48.0,40.0,0.0,64.0
793,59.0,288.0,40.0,0.0,64.0
794,60.0,0.0,300.0,0.0,64.0
795,68.0,384.0,180.0,0.0,64.0
796,53.0,0.0,180.0,0.0,64.0
797,67.0,0.0,390.0,0.0,64.0
798,51.0,48.0,390.0,0.0,64.0
799,60.0,0.0,15.0,0.0,64.0
800,59.0,288.0,40.0,0.0,64.0
801,60.0,384.0,300.0,0.0,64.0
802,50.0,0.0,180.0,0.0,64.0
803,65.0,0.0,180.0,0.0,64.0
804,48.0,192.0,390.0,0.0,64.0
805,63.0,0.0,390.0,0.0,64.0
806,60.0,0.0,180.0,0.0,64.0
807,55.0,96.0,180.0,0.0,64.0
808,48.0,0.0,90.0,0.0,64.0
809,57.0,192.0,180.0,0.0,64.0
810,66.0,0.0,180.0,0.0,64.0
811,46.0,96.0,90.0,0.0,64.0
812,45.0,0.0,90.0,0.0,64.0
813,43.0,192.0,390.0,0.0,64.0
814,58.0,192.0,180.0,0.0,64.0
815,67.0,0.0,390.0,0.0,64.0
816,62.0,0.0,180.0,0.0,64.0
817,55.0,96.0,180.0,0.0,64.0
818,51.0,0.0,90.0,0.0,64.0
819,57.0,96.0,180.0,0.0,64.0
820,66.0,0.0,180.0,0.0,64.0
821,50.0,96.0,90.0,0.0,64.0
822,48.0,0.0,90.0,0.0,64.0
823,67.0,96.0,90.0,0.0,64.0
824,58.0,0.0,180.0,0.0,64.0
825,50.0,0.0,180.0,0.0,64.0
826,66.0,96.0,90.0,0.0,64.0
827,67.0,96.0,90.0,0.0,64.0
828,48.0,0.0,180.0,0.0,64.0
829,69.0,24.0,90.0,0.0,64.0
830,50.0,0.0,390.0,0.0,64.0
831,57.0,0.0,15.0,0.0,64.0
832,67.0,24.0,20.0,0.0,64.0
833,66.0,24.0,20.0,0.0,64.0
834,67.0,24.0,20.0,0.0,64.0
835,66.0,24.0,20.0,0.0,64.0
836,67.0,24.0,20.0,0.0,64.0
837,66.0,24.0,20.0,0.0,64.0
838,67.0,24.0,20.0,0.0,64.0
839,66.0,24.0,20.0,0.0,64.0
840,67.0,24.0,20.0,0.0,64.0
841,62.0,96.0,90.0,0.0,64.0
842,66.0,24.0,20.0,0.0,64.0
843,67.0,24.0,20.0,0.0,64.0
844,66.0,0.0,20.0,0.0,64.0
845,57.0,0.0,90.0,0.0,64.0
846,67.0,192.0,15.0,0.0,64.0
847,58.0,0.0,180.0,0.0,64.0
848,74.0,96.0,90.0,0.0,64.0
849,54.0,192.0,180.0,0.0,64.0
850,50.0,0.0,180.0,0.0,64.0
851,69.0,0.0,90.0,0.0,64.0
852,50.0,0.0,390.0,0.0,64.0
853,55.0,96.0,180.0,0.0,64.0
854,70.0,0.0,180.0,0.0,64.0
855,66.0,192.0,180.0,0.0,64.0
856,62.0,96.0,90.0,0.0,64.0
857,57.0,0.0,90.0,0.0,64.0
858,58.0,96.0,180.0,0.0,64.0
859,67.0,0.0,180.0,0.0,64.0
860,54.0,0.0,180.0,0.0,64.0
861,74.0,96.0,90.0,0.0,64.0
862,69.0,0.0,90.0,0.0,64.0
863,50.0,192.0,15.0,0.0,64.0
864,55.0,0.0,180.0,0.0,64.0
865,70.0,96.0,180.0,0.0,64.0
866,66.0,0.0,180.0,0.0,64.0
867,62.0,96.0,90.0,0.0,64.0
868,57.0,0.0,90.0,0.0,64.0
869,58.0,192.0,390.0,0.0,64.0
870,67.0,0.0,390.0,0.0,64.0
871,50.0,0.0,180.0,0.0,64.0
872,43.0,192.0,180.0,0.0,64.0
873,45.0,192.0,180.0,0.0,64.0
874,72.0,0.0,180.0,0.0,64.0
875,66.0,0.0,180.0,0.0,64.0
876,67.0,192.0,180.0,0.0,64.0
877,46.0,0.0,180.0,0.0,64.0
878,74.0,0.0,180.0,0.0,64.0
879,50.0,0.0,180.0,0.0,64.0
880,69.0,0.0,180.0,0.0,64.0
881,66.0,192.0,180.0,0.0,64.0
882,43.0,192.0,180.0,0.0,64.0
883,67.0,0.0,960.0,0.0,64.0
884,70.0,0.0,180.0,0.0,64.0
885,72.0,192.0,180.0,0.0,64.0
886,45.0,0.0,180.0,0.0,64.0
887,74.0,96.0,180.0,0.0,64.0
888,46.0,0.0,180.0,0.0,64.0
889,75.0,96.0,90.0,0.0,64.0
890,48.0,192.0,180.0,0.0,64.0
891,69.0,0.0,90.0,0.0,64.0
892,50.0,0.0,180.0,0.0,64.0
893,70.0,96.0,180.0,0.0,64.0
894,69.0,0.0,90.0,0.0,64.0
895,38.0,0.0,180.0,0.0,64.0
896,66.0,96.0,90.0,0.0,64.0
897,67.0,192.0,90.0,0.0,64.0
898,43.0,96.0,390.0,0.0,64.0
899,68.0,0.0,90.0,0.0,64.0
900,55.0,0.0,180.0,0.0,64.0
901,67.0,96.0,15.0,0.0,64.0
902,65.0,0.0,90.0,0.0,64.0
903,60.0,96.0,180.0,0.0,64.0
904,63.0,96.0,90.0,0.0,64.0
905,65.0,0.0,90.0,0.0,64.0
906,62.0,96.0,90.0,0.0,64.0
907,58.0,96.0,180.0,0.0,64.0
908,63.0,0.0,90.0,0.0,64.0
909,65.0,96.0,90.0,0.0,64.0
910,57.0,96.0,180.0,0.0,64.0
911,67.0,0.0,90.0,0.0,64.0
912,65.0,96.0,90.0,0.0,64.0
913,53.0,0.0,180.0,0.0,64.0
914,63.0,96.0,90.0,0.0,64.0
915,58.0,0.0,180.0,0.0,64.0
916,62.0,96.0,90.0,0.0,64.0
917,63.0,96.0,90.0,0.0,64.0
918,60.0,96.0,90.0,0.0,64.0
919,56.0,192.0,180.0,0.0,64.0
920,62.0,0.0,90.0,0.0,64.0
921,55.0,0.0,180.0,0.0,64.0
922,63.0,96.0,180.0,0.0,64.0
923,50.0,192.0,180.0,0.0,64.0
924,70.0,96.0,90.0,0.0,64.0
925,65.0,0.0,90.0,0.0,64.0
926,67.0,0.0,180.0,0.0,64.0
927,51.0,96.0,180.0,0.0,64.0
928,72.0,96.0,90.0,0.0,64.0
929,52.0,192.0,180.0,0.0,64.0
930,67.0,0.0,90.0,0.0,64.0
931,53.0,0.0,180.0,0.0,64.0
932,69.0,96.0,180.0,0.0,64.0
933,54.0,0.0,180.0,0.0,64.0
934,74.0,96.0,90.0,0.0,64.0
935,69.0,192.0,90.0,0.0,64.0
936,71.0,96.0,180.0,0.0,64.0
937,55.0,0.0,180.0,0.0,64.0
938,75.0,96.0,90.0,0.0,64.0
939,67.0,192.0,180.0,0.0,64.0
940,71.0,0.0,90.0,0.0,64.0
941,68.0,0.0,180.0,0.0,64.0
942,72.0,96.0,180.0,0.0,64.0
943,69.0,192.0,180.0,0.0,64.0
944,77.0,96.0,90.0,0.0,64.0
945,72.0,0.0,90.0,0.0,64.0
946,74.0,96.0,180.0,0.0,64.0
947,70.0,0.0,180.0,0.0,64.0
948,71.0,192.0,180.0,0.0,64.0
949,79.0,96.0,90.0,0.0,64.0
950,74.0,0.0,90.0,0.0,64.0
951,75.0,0.0,180.0,0.0,64.0
952,72.0,96.0,180.0,0.0,64.0
953,67.0,96.0,90.0,0.0,64.0
954,71.0,192.0,180.0,0.0,64.0
955,65.0,0.0,90.0,0.0,64.0
956,63.0,96.0,180.0,0.0,64.0
957,72.0,0.0,180.0,0.0,64.0
958,72.0,96.0,90.0,0.0,64.0
959,64.0,96.0,180.0,0.0,64.0
960,67.0,0.0,90.0,0.0,64.0
961,68.0,96.0,180.0,0.0,64.0
962,65.0,96.0,90.0,0.0,64.0
963,67.0,0.0,90.0,0.0,64.0
964,63.0,96.0,90.0,0.0,64.0
965,67.0,96.0,180.0,0.0,64.0
966,65.0,0.0,90.0,0.0,64.0
967,65.0,96.0,180.0,0.0,64.0
968,62.0,96.0,90.0,0.0,64.0
969,63.0,0.0,90.0,0.0,64.0
970,68.0,192.0,180.0,0.0,64.0
971,60.0,96.0,90.0,0.0,64.0
972,62.0,0.0,90.0,0.0,64.0
973,67.0,0.0,180.0,0.0,64.0
974,59.0,96.0,180.0,0.0,64.0
975,55.0,96.0,180.0,0.0,64.0
976,74.0,96.0,90.0,0.0,64.0
977,65.0,0.0,90.0,0.0,64.0
978,60.0,0.0,180.0,0.0,64.0
979,63.0,96.0,90.0,0.0,64.0
980,67.0,96.0,90.0,0.0,64.0
981,72.0,96.0,90.0,0.0,64.0
982,63.0,0.0,180.0,0.0,64.0
983,66.0,384.0,90.0,0.0,64.0
984,62.0,0.0,390.0,0.0,64.0
985,67.0,0.0,390.0,0.0,64.0
986,71.0,48.0,390.0,0.0,64.0
987,55.0,0.0,180.0,0.0,64.0
988,55.0,48.0,40.0,0.0,64.0
989,54.0,288.0,40.0,0.0,64.0
990,55.0,0.0,300.0,0.0,64.0
991,62.0,384.0,180.0,0.0,64.0
992,67.0,0.0,180.0,0.0,64.0
993,71.0,0.0,180.0,0.0,64.0
994,53.0,0.0,180.0,0.0,64.0
995,51.0,0.0,390.0,0.0,64.0
996,63.0,0.0,390.0,0.0,64.0
997,67.0,0.0,390.0,0.0,64.0
998,72.0,48.0,390.0,0.0,64.0
999,55.0,0.0,180.0,0.0,64.0
1000,55.0,48.0,40.0,0.0,64.0
1001,54.0,288.0,40.0,0.0,64.0
1002,55.0,0.0,300.0,0.0,64.0
1003,74.0,0.0,180.0,0.0,64.0
1004,47.0,384.0,180.0,0.0,64.0
1005,62.0,0.0,180.0,0.0,64.0
1006,65.0,0.0,180.0,0.0,64.0
1007,60.0,0.0,390.0,0.0,64.0
1008,63.0,0.0,390.0,0.0,64.0
1009,67.0,0.0,390.0,0.0,64.0
1010,55.0,192.0,180.0,0.0,64.0
1011,48.0,0.0,15.0,0.0,64.0
1012,47.0,0.0,180.0,0.0,64.0
1013,50.0,192.0,180.0,0.0,64.0
1014,65.0,0.0,180.0,0.0,64.0
1015,62.0,0.0,180.0,0.0,64.0
1016,63.0,0.0,390.0,0.0,64.0
1017,67.0,0.0,15.0,0.0,64.0
1018,48.0,0.0,390.0,0.0,64.0
1019,60.0,0.0,390.0,0.0,64.0
1020,51.0,192.0,180.0,0.0,64.0
1021,55.0,0.0,180.0,0.0,64.0
1022,48.0,192.0,180.0,0.0,64.0
1023,65.0,0.0,180.0,0.0,64.0
1024,50.0,0.0,180.0,0.0,64.0
1025,43.0,192.0,180.0,0.0,64.0
1026,62.0,0.0,180.0,0.0,64.0
1027,59.0,0.0,180.0,0.0,64.0
1028,67.0,0.0,15.0,0.0,64.0
1029,51.0,96.0,180.0,0.0,64.0
1030,48.0,0.0,390.0,0.0,64.0
1031,63.0,0.0,390.0,0.0,64.0
1032,60.0,0.0,390.0,0.0,64.0
1033,55.0,96.0,90.0,0.0,64.0
1034,51.0,384.0,90.0,0.0,64.0
1035,56.0,0.0,570.0,0.0,64.0
1036,48.0,192.0,180.0,0.0,64.0
1037,68.0,0.0,180.0,0.0,64.0
1038,63.0,0.0,180.0,0.0,64.0
1039,60.0,0.0,180.0,0.0,64.0
1040,58.0,96.0,570.0,0.0,64.0
1041,65.0,0.0,180.0,0.0,64.0
1042,50.0,96.0,180.0,0.0,64.0
1043,63.0,0.0,90.0,0.0,64.0
1044,55.0,96.0,90.0,0.0,64.0
1045,51.0,192.0,180.0,0.0,64.0
1046,65.0,0.0,90.0,0.0,64.0
1047,56.0,0.0,90.0,0.0,64.0
1048,53.0,192.0,390.0,0.0,64.0
1049,46.0,0.0,390.0,0.0,64.0
1050,63.0,0.0,180.0,0.0,64.0
1051,62.0,96.0,90.0,0.0,64.0
1052,56.0,0.0,180.0,0.0,64.0
1053,48.0,96.0,180.0,0.0,64.0
1054,63.0,0.0,15.0,0.0,64.0
1055,51.0,0.0,390.0,0.0,64.0
1056,62.0,96.0,90.0,0.0,64.0
1057,46.0,48.0,180.0,0.0,64.0
1058,63.0,0.0,90.0,0.0,64.0
1059,51.0,0.0,390.0,0.0,64.0
1060,60.0,48.0,40.0,0.0,64.0
1061,44.0,96.0,180.0,0.0,64.0
1062,58.0,96.0,40.0,0.0,64.0
1063,43.0,0.0,180.0,0.0,64.0
1064,60.0,96.0,15.0,0.0,64.0
1065,53.0,0.0,180.0,0.0,64.0
1066,62.0,96.0,180.0,0.0,64.0
1067,41.0,0.0,390.0,0.0,64.0
1068,51.0,96.0,90.0,0.0,64.0
1069,60.0,0.0,90.0,0.0,64.0
1070,53.0,0.0,90.0,0.0,64.0
1071,62.0,24.0,90.0,0.0,64.0
1072,50.0,0.0,390.0,0.0,64.0
1073,43.0,0.0,180.0,0.0,64.0
1074,60.0,24.0,20.0,0.0,64.0
1075,59.0,24.0,20.0,0.0,64.0
1076,60.0,24.0,20.0,0.0,64.0
1077,59.0,24.0,20.0,0.0,64.0
1078,60.0,24.0,20.0,0.0,64.0
1079,59.0,24.0,20.0,0.0,64.0
1080,60.0,24.0,20.0,0.0,64.0
1081,59.0,24.0,20.0,0.0,64.0
1082,41.0,192.0,180.0,0.0,64.0
1083,60.0,24.0,20.0,0.0,64.0
1084,59.0,24.0,20.0,0.0,64.0
1085,60.0,24.0,20.0,0.0,64.0
1086,59.0,96.0,20.0,0.0,64.0
1087,59.0,0.0,90.0,0.0,64.0
1088,60.0,96.0,180.0,0.0,64.0
1089,39.0,96.0,300.0,0.0,64.0
1090,48.0,96.0,570.0,0.0,64.0
1091,67.0,0.0,90.0,0.0,64.0
1092,40.0,192.0,90.0,0.0,64.0
1093,60.0,0.0,300.0,0.0,64.0
1094,68.0,0.0,390.0,0.0,64.0
1095,41.0,0.0,390.0,0.0,64.0
1096,50.0,0.0,180.0,0.0,64.0
1097,65.0,96.0,90.0,0.0,64.0
1098,59.0,192.0,90.0,0.0,64.0
1099,43.0,0.0,780.0,0.0,64.0
1100,67.0,192.0,960.0,0.0,64.0
1101,51.0,96.0,180.0,0.0,64.0
1102,60.0,0.0,180.0,0.0,64.0
1103,53.0,0.0,90.0,0.0,64.0
1104,62.0,96.0,90.0,0.0,64.0
1105,51.0,192.0,90.0,0.0,64.0
1106,60.0,0.0,15.0,0.0,64.0
1107,50.0,0.0,180.0,0.0,64.0
1108,59.0,24.0,20.0,0.0,64.0
1109,53.0,192.0,180.0,0.0,64.0
1110,60.0,48.0,20.0,0.0,64.0
1111,59.0,96.0,40.0,0.0,64.0
1112,48.0,0.0,390.0,0.0,64.0
1113,60.0,0.0,15.0,0.0,64.0
1114,51.0,0.0,390.0,0.0,64.0
1115,72.0,48.0,15.0,0.0,64.0
1116,71.0,288.0,40.0,0.0,64.0
1117,72.0,0.0,300.0,0.0,64.0
1118,64.0,0.0,180.0,0.0,64.0
1119,48.0,0.0,180.0,0.0,64.0
1120,55.0,384.0,180.0,0.0,64.0
1121,53.0,48.0,390.0,0.0,64.0
1122,65.0,0.0,390.0,0.0,64.0
1123,56.0,0.0,390.0,0.0,64.0
1124,72.0,0.0,180.0,0.0,64.0
1125,72.0,48.0,40.0,0.0,64.0
1126,71.0,288.0,40.0,0.0,64.0
1127,72.0,384.0,300.0,0.0,64.0
1128,58.0,0.0,180.0,0.0,64.0
1129,55.0,0.0,180.0,0.0,64.0
1130,64.0,0.0,180.0,0.0,64.0
1131,60.0,0.0,390.0,0.0,64.0
1132,56.0,0.0,390.0,0.0,64.0
1133,65.0,0.0,390.0,0.0,64.0
1134,72.0,48.0,15.0,0.0,64.0
1135,71.0,288.0,40.0,0.0,64.0
1136,72.0,0.0,300.0,0.0,64.0
1137,57.0,0.0,180.0,0.0,64.0
1138,66.0,0.0,180.0,0.0,64.0
1139,60.0,384.0,180.0,0.0,64.0
1140,58.0,0.0,390.0,0.0,64.0
1141,67.0,0.0,390.0,0.0,64.0
1142,55.0,0.0,390.0,0.0,64.0
1143,74.0,192.0,180.0,0.0,64.0
1144,67.0,192.0,180.0,0.0,64.0
1145,60.0,0.0,180.0,0.0,64.0
1146,69.0,0.0,180.0,0.0,64.0
1147,54.0,192.0,180.0,0.0,64.0
1148,62.0,0.0,15.0,0.0,64.0
1149,70.0,192.0,180.0,0.0,64.0
1150,55.0,0.0,390.0,0.0,64.0
1151,58.0,192.0,390.0,0.0,64.0
1152,74.0,0.0,180.0,0.0,64.0
1153,67.0,192.0,180.0,0.0,64.0
1154,60.0,0.0,180.0,0.0,64.0
1155,69.0,0.0,180.0,0.0,64.0
1156,66.0,192.0,180.0,0.0,64.0
1157,50.0,0.0,180.0,0.0,64.0
1158,55.0,0.0,180.0,0.0,64.0
1159,70.0,0.0,180.0,0.0,64.0
1160,67.0,0.0,180.0,0.0,64.0
1161,53.0,0.0,180.0,0.0,64.0
1162,74.0,192.0,180.0,0.0,64.0
1163,62.0,192.0,15.0,0.0,64.0
1164,57.0,0.0,180.0,0.0,64.0
1165,51.0,0.0,390.0,0.0,64.0
1166,58.0,96.0,180.0,0.0,64.0
1167,67.0,0.0,180.0,0.0,64.0
1168,60.0,0.0,180.0,0.0,64.0
1169,57.0,96.0,90.0,0.0,64.0
1170,69.0,48.0,180.0,0.0,64.0
1171,55.0,0.0,90.0,0.0,64.0
1172,72.0,48.0,40.0,0.0,64.0
1173,62.0,24.0,390.0,0.0,64.0
1174,54.0,0.0,180.0,0.0,64.0
1175,50.0,0.0,780.0,0.0,64.0
1176,70.0,48.0,40.0,0.0,64.0
1177,69.0,48.0,40.0,0.0,64.0
1178,70.0,96.0,40.0,0.0,64.0
1179,55.0,24.0,390.0,0.0,64.0
1180,70.0,96.0,90.0,0.0,64.0
1181,72.0,0.0,90.0,0.0,64.0
1182,70.0,24.0,20.0,0.0,64.0
1183,60.0,192.0,390.0,0.0,64.0
1184,69.0,24.0,20.0,0.0,64.0
1185,70.0,24.0,20.0,0.0,64.0
1186,69.0,24.0,20.0,0.0,64.0
1187,70.0,24.0,20.0,0.0,64.0
1188,69.0,24.0,20.0,0.0,64.0
1189,70.0,24.0,20.0,0.0,64.0
1190,69.0,0.0,20.0,0.0,64.0
1191,54.0,0.0,180.0,0.0,64.0
1192,70.0,24.0,20.0,0.0,64.0
1193,69.0,24.0,20.0,0.0,64.0
1194,70.0,24.0,20.0,0.0,64.0
1195,69.0,96.0,20.0,0.0,64.0
1196,67.0,0.0,90.0,0.0,64.0
1197,55.0,0.0,390.0,0.0,64.0
1198,43.0,48.0,390.0,0.0,64.0
1199,67.0,0.0,180.0,0.0,64.0
1200,59.0,192.0,180.0,0.0,64.0
1201,67.0,0.0,180.0,0.0,64.0
1202,67.0,48.0,40.0,0.0,64.0
1203,66.0,288.0,40.0,0.0,64.0
1204,67.0,384.0,300.0,0.0,64.0
1205,74.0,0.0,180.0,0.0,64.0
1206,59.0,0.0,180.0,0.0,64.0
1207,60.0,48.0,390.0,0.0,64.0
1208,75.0,0.0,390.0,0.0,64.0
1209,67.0,0.0,180.0,0.0,64.0
1210,67.0,48.0,40.0,0.0,64.0
1211,66.0,192.0,40.0,0.0,64.0
1212,67.0,0.0,300.0,0.0,64.0
1213,59.0,0.0,180.0,0.0,64.0
1214,79.0,96.0,90.0,0.0,64.0
1215,74.0,384.0,90.0,0.0,64.0
1216,60.0,0.0,390.0,0.0,64.0
1217,75.0,192.0,390.0,0.0,64.0
1218,67.0,0.0,180.0,0.0,64.0
1219,60.0,96.0,180.0,0.0,64.0
1220,59.0,0.0,180.0,0.0,64.0
1221,74.0,96.0,90.0,0.0,64.0
1222,62.0,0.0,180.0,0.0,64.0
1223,67.0,192.0,90.0,0.0,64.0
1224,72.0,0.0,390.0,0.0,64.0
1225,60.0,0.0,390.0,0.0,64.0
1226,63.0,192.0,180.0,0.0,64.0
1227,67.0,192.0,180.0,0.0,64.0
1228,60.0,96.0,180.0,0.0,64.0
1229,79.0,96.0,90.0,0.0,64.0
1230,62.0,0.0,180.0,0.0,64.0
1231,58.0,192.0,180.0,0.0,64.0
1232,67.0,0.0,90.0,0.0,64.0
1233,72.0,96.0,300.0,0.0,64.0
1234,63.0,96.0,180.0,0.0,64.0
1235,56.0,96.0,570.0,0.0,64.0
1236,60.0,0.0,180.0,0.0,64.0
1237,70.0,192.0,90.0,0.0,64.0
1238,68.0,192.0,780.0,0.0,64.0
1239,65.0,96.0,570.0,0.0,64.0
1240,50.0,96.0,90.0,0.0,64.0
1241,47.0,192.0,90.0,0.0,64.0
1242,51.0,96.0,570.0,0.0,64.0
1243,62.0,96.0,90.0,0.0,64.0
1244,59.0,0.0,90.0,0.0,64.0
1245,67.0,192.0,780.0,0.0,64.0
1246,63.0,96.0,570.0,0.0,64.0
1247,48.0,96.0,90.0,0.0,64.0
1248,45.0,192.0,90.0,0.0,64.0
1249,50.0,96.0,570.0,0.0,64.0
1250,60.0,96.0,90.0,0.0,64.0
1251,57.0,0.0,90.0,0.0,64.0
1252,65.0,192.0,780.0,0.0,64.0
1253,62.0,96.0,570.0,0.0,64.0
1254,47.0,96.0,90.0,0.0,64.0
1255,43.0,192.0,90.0,0.0,64.0
1256,48.0,96.0,570.0,0.0,64.0
1257,59.0,96.0,90.0,0.0,64.0
1258,55.0,0.0,90.0,0.0,64.0
1259,63.0,0.0,390.0,0.0,64.0
1260,51.0,96.0,90.0,0.0,64.0
1261,48.0,0.0,90.0,0.0,64.0
1262,62.0,96.0,300.0,0.0,64.0
1263,53.0,96.0,180.0,0.0,64.0
1264,60.0,192.0,15.0,0.0,64.0
1265,55.0,192.0,180.0,0.0,64.0
1266,63.0,0.0,90.0,0.0,64.0
1267,65.0,0.0,180.0,0.0,64.0
1268,56.0,96.0,180.0,0.0,64.0
1269,63.0,0.0,90.0,0.0,64.0
1270,60.0,0.0,15.0,0.0,64.0
1271,55.0,96.0,90.0,0.0,64.0
1272,53.0,192.0,90.0,0.0,64.0
1273,62.0,0.0,90.0,0.0,64.0
1274,63.0,96.0,180.0,0.0,64.0
1275,55.0,96.0,480.0,0.0,64.0
1276,65.0,96.0,90.0,0.0,64.0
1277,63.0,0.0,90.0,0.0,64.0
1278,58.0,0.0,570.0,0.0,64.0
1279,62.0,192.0,390.0,0.0,64.0
1280,56.0,96.0,90.0,0.0,64.0
1281,55.0,96.0,90.0,0.0,64.0
1282,53.0,0.0,90.0,0.0,64.0
1283,52.0,96.0,180.0,0.0,64.0
1284,60.0,96.0,480.0,0.0,64.0
1285,48.0,96.0,180.0,0.0,64.0
1286,56.0,96.0,90.0,0.0,64.0
1287,55.0,0.0,90.0,0.0,64.0
1288,56.0,96.0,180.0,0.0,64.0
1289,53.0,0.0,180.0,0.0,64.0
1290,63.0,0.0,90.0,0.0,64.0
1291,62.0,96.0,90.0,0.0,64.0
1292,51.0,192.0,180.0,0.0,64.0
1293,55.0,0.0,180.0,0.0,64.0
1294,60.0,0.0,90.0,0.0,64.0
1295,53.0,0.0,180.0,0.0,64.0
1296,50.0,96.0,180.0,0.0,64.0
1297,59.0,0.0,300.0,0.0,64.0
1298,68.0,96.0,300.0,0.0,64.0
1299,48.0,0.0,180.0,0.0,64.0
1300,51.0,96.0,180.0,0.0,64.0
1301,60.0,96.0,180.0,0.0,64.0
1302,55.0,0.0,180.0,0.0,64.0
1303,47.0,192.0,180.0,0.0,64.0
1304,62.0,0.0,90.0,0.0,64.0
1305,60.0,0.0,180.0,0.0,64.0
1306,48.0,384.0,180.0,0.0,64.0
1307,63.0,0.0,180.0,0.0,64.0
1308,62.0,0.0,390.0,0.0,64.0
1309,59.0,384.0,390.0,0.0,64.0
1310,55.0,0.0,390.0,0.0,64.0
1311,43.0,0.0,15.0,0.0,64.0
1312,62.0,0.0,180.0,0.0,64.0
1313,67.0,0.0,180.0,0.0,64.0
1314,53.0,384.0,180.0,0.0,64.0
1315,71.0,0.0,180.0,0.0,64.0
1316,51.0,0.0,390.0,0.0,64.0
1317,60.0,0.0,390.0,0.0,64.0
1318,63.0,0.0,390.0,0.0,64.0
1319,67.0,0.0,390.0,0.0,64.0
1320,72.0,0.0,390.0,0.0,64.0
1321,43.0,384.0,15.0,0.0,64.0
1322,60.0,0.0,180.0,0.0,64.0
1323,66.0,0.0,180.0,0.0,64.0
1324,69.0,0.0,180.0,0.0,64.0
1325,50.0,0.0,180.0,0.0,64.0
1326,67.0,96.0,180.0,0.0,64.0
1327,62.0,0.0,390.0,0.0,64.0
1328,55.0,0.0,390.0,0.0,64.0
1329,65.0,192.0,180.0,0.0,64.0
1330,43.0,0.0,180.0,0.0,64.0
1331,71.0,96.0,15.0,0.0,64.0
1332,72.0,0.0,180.0,0.0,64.0
1333,63.0,192.0,180.0,0.0,64.0
1334,36.0,0.0,180.0,0.0,64.0
1335,71.0,0.0,180.0,0.0,64.0
1336,65.0,192.0,180.0,0.0,64.0
1337,38.0,0.0,180.0,0.0,64.0
1338,39.0,0.0,180.0,0.0,64.0
1339,67.0,0.0,180.0,0.0,64.0
1340,72.0,192.0,180.0,0.0,64.0
1341,62.0,0.0,180.0,0.0,64.0
1342,43.0,0.0,180.0,0.0,64.0
1343,59.0,192.0,180.0,0.0,64.0
1344,60.0,0.0,180.0,0.0,64.0
1345,63.0,0.0,180.0,0.0,64.0
1346,55.0,0.0,15.0,0.0,64.0
1347,36.0,192.0,180.0,0.0,64.0
1348,53.0,0.0,180.0,0.0,64.0
1349,59.0,0.0,180.0,0.0,64.0
1350,65.0,48.0,180.0,0.0,64.0
1351,38.0,0.0,180.0,0.0,64.0
1352,51.0,0.0,180.0,0.0,64.0
1353,39.0,96.0,180.0,0.0,64.0
1354,68.0,48.0,40.0,0.0,64.0
1355,60.0,24.0,390.0,0.0,64.0
1356,67.0,48.0,40.0,0.0,64.0
1357,65.0,48.0,40.0,0.0,64.0
1358,67.0,0.0,15.0,0.0,64.0
1359,50.0,0.0,390.0,0.0,64.0
1360,41.0,0.0,180.0,0.0,64.0
1361,68.0,0.0,90.0,0.0,64.0
1362,59.0,96.0,300.0,0.0,64.0
1363,63.0,24.0,20.0,0.0,64.0
1364,43.0,0.0,390.0,0.0,64.0
1365,62.0,24.0,20.0,0.0,64.0
1366,63.0,24.0,20.0,0.0,64.0
1367,62.0,24.0,20.0,0.0,64.0
1368,63.0,24.0,20.0,0.0,64.0
1369,62.0,24.0,20.0,0.0,64.0
1370,63.0,24.0,20.0,0.0,64.0
1371,62.0,24.0,20.0,0.0,64.0
1372,63.0,24.0,20.0,0.0,64.0
1373,53.0,0.0,180.0,0.0,64.0
1374,62.0,24.0,20.0,0.0,64.0
1375,63.0,24.0,20.0,0.0,64.0
1376,62.0,0.0,20.0,0.0,64.0
1377,48.0,0.0,1530.0,0.0,64.0
1378,52.0,0.0,1530.0,0.0,64.0
1379,55.0,0.0,1530.0,0.0,64.0
1380,60.0,1536.0,15.0,0.0,64.0
1381,36.0,0.0,1530.0,0.0,64.0
