,note,step,duration,channel,velocity
0,76.0,1024.0,2040.0,0.0,0.0
1,75.0,1024.0,1020.0,0.0,0.0
2,73.0,1024.0,1020.0,0.0,0.0
3,75.0,1024.0,1020.0,0.0,0.0
4,71.0,1024.0,1020.0,0.0,0.0
5,73.0,1024.0,1020.0,0.0,0.0
6,75.0,512.0,1020.0,0.0,0.0
7,76.0,512.0,510.0,0.0,0.0
8,71.0,2048.0,510.0,0.0,0.0
9,76.0,1024.0,2040.0,0.0,0.0
10,71.0,512.0,2040.0,1.0,0.0
11,75.0,0.0,1020.0,0.0,0.0
12,76.0,512.0,510.0,0.0,0.0
13,68.0,0.0,1020.0,1.0,0.0
14,71.0,512.0,510.0,0.0,0.0
15,66.0,512.0,1020.0,1.0,0.0
16,73.0,512.0,510.0,0.0,0.0
17,75.0,0.0,510.0,0.0,0.0
18,76.0,512.0,510.0,0.0,0.0
19,68.0,512.0,1020.0,1.0,0.0
20,78.0,0.0,510.0,0.0,0.0
21,64.0,0.0,1020.0,1.0,0.0
22,80.0,512.0,510.0,0.0,0.0
23,78.0,512.0,510.0,0.0,0.0
24,68.0,512.0,1020.0,1.0,0.0
25,76.0,512.0,510.0,0.0,0.0
26,75.0,0.0,510.0,0.0,0.0
27,73.0,512.0,510.0,0.0,0.0
28,70.0,0.0,1020.0,1.0,0.0
29,78.0,512.0,510.0,0.0,0.0
30,71.0,512.0,510.0,1.0,0.0
31,75.0,256.0,1290.0,0.0,0.0
32,66.0,256.0,510.0,1.0,0.0
33,71.0,512.0,1530.0,1.0,0.0
34,75.0,256.0,270.0,0.0,0.0
35,76.0,256.0,270.0,0.0,0.0
36,78.0,512.0,270.0,0.0,0.0
37,64.0,0.0,2040.0,2.0,0.0
38,80.0,512.0,2040.0,0.0,0.0
39,68.0,512.0,510.0,1.0,0.0
40,73.0,512.0,510.0,1.0,0.0
41,70.0,0.0,510.0,1.0,0.0
42,71.0,512.0,510.0,1.0,0.0
43,63.0,0.0,1020.0,2.0,0.0
44,78.0,512.0,1020.0,0.0,0.0
45,66.0,0.0,510.0,1.0,0.0
46,61.0,0.0,1020.0,2.0,0.0
47,68.0,512.0,510.0,1.0,0.0
48,76.0,0.0,1020.0,0.0,0.0
49,70.0,512.0,510.0,1.0,0.0
50,63.0,512.0,1020.0,2.0,0.0
51,75.0,512.0,510.0,0.0,0.0
52,71.0,0.0,510.0,1.0,0.0
53,76.0,0.0,510.0,0.0,0.0
54,73.0,0.0,510.0,1.0,0.0
55,78.0,512.0,510.0,0.0,0.0
56,75.0,0.0,510.0,1.0,0.0
57,59.0,0.0,1020.0,2.0,0.0
58,75.0,512.0,510.0,0.0,0.0
59,71.0,0.0,510.0,1.0,0.0
60,76.0,0.0,1020.0,0.0,0.0
61,61.0,512.0,1020.0,2.0,0.0
62,69.0,512.0,510.0,1.0,0.0
63,68.0,0.0,510.0,1.0,0.0
64,63.0,512.0,1020.0,2.0,0.0
65,66.0,512.0,510.0,1.0,0.0
66,78.0,0.0,1020.0,0.0,0.0
67,69.0,0.0,1530.0,1.0,0.0
68,64.0,512.0,510.0,2.0,0.0
69,71.0,0.0,5130.0,0.0,0.0
70,59.0,1024.0,510.0,2.0,0.0
71,68.0,1024.0,1020.0,1.0,0.0
72,64.0,1024.0,2040.0,2.0,0.0
73,59.0,0.0,2040.0,3.0,0.0
74,66.0,512.0,2040.0,1.0,0.0
75,63.0,0.0,1020.0,2.0,0.0
76,68.0,0.0,1020.0,1.0,0.0
77,64.0,512.0,510.0,2.0,0.0
78,56.0,0.0,1020.0,3.0,0.0
79,59.0,512.0,510.0,2.0,0.0
80,69.0,0.0,1020.0,1.0,0.0
81,61.0,512.0,510.0,2.0,0.0
82,54.0,512.0,1020.0,3.0,0.0
83,63.0,0.0,510.0,2.0,0.0
84,56.0,512.0,1020.0,3.0,0.0
85,68.0,512.0,510.0,1.0,0.0
86,64.0,0.0,510.0,2.0,0.0
87,69.0,0.0,510.0,1.0,0.0
88,66.0,0.0,510.0,2.0,0.0
89,71.0,0.0,2040.0,1.0,0.0
90,68.0,512.0,510.0,2.0,0.0
91,52.0,0.0,1020.0,3.0,0.0
92,66.0,512.0,510.0,2.0,0.0
93,64.0,512.0,510.0,2.0,0.0
94,56.0,0.0,1020.0,3.0,0.0
95,63.0,512.0,510.0,2.0,0.0
96,73.0,0.0,2040.0,1.0,0.0
97,61.0,512.0,510.0,2.0,0.0
98,58.0,512.0,1020.0,3.0,0.0
99,66.0,0.0,510.0,2.0,0.0
100,59.0,512.0,510.0,3.0,0.0
101,63.0,256.0,1290.0,2.0,0.0
102,54.0,256.0,510.0,3.0,0.0
103,71.0,512.0,1530.0,1.0,0.0
104,59.0,512.0,2040.0,3.0,0.0
105,66.0,256.0,270.0,2.0,0.0
106,68.0,256.0,270.0,2.0,0.0
107,69.0,512.0,270.0,2.0,0.0
108,52.0,512.0,2040.0,3.0,0.0
109,68.0,0.0,1020.0,1.0,0.0
110,73.0,512.0,1020.0,0.0,0.0
111,58.0,0.0,1020.0,2.0,0.0
112,66.0,0.0,2040.0,1.0,0.0
113,73.0,512.0,1020.0,0.0,0.0
114,59.0,512.0,1020.0,2.0,0.0
115,51.0,0.0,1020.0,3.0,0.0
116,71.0,512.0,1020.0,0.0,0.0
117,49.0,0.0,1020.0,3.0,0.0
118,64.0,0.0,1020.0,1.0,0.0
119,61.0,0.0,1020.0,2.0,0.0
120,70.0,512.0,510.0,0.0,0.0
121,71.0,512.0,510.0,0.0,0.0
122,59.0,512.0,1530.0,2.0,0.0
123,51.0,0.0,1020.0,3.0,0.0
124,66.0,0.0,2040.0,1.0,0.0
125,73.0,512.0,510.0,0.0,0.0
126,47.0,512.0,1020.0,3.0,0.0
127,75.0,0.0,1020.0,0.0,0.0
128,57.0,0.0,510.0,2.0,0.0
129,76.0,0.0,1020.0,0.0,0.0
130,56.0,512.0,510.0,2.0,0.0
131,73.0,512.0,1020.0,1.0,0.0
132,49.0,0.0,1020.0,3.0,0.0
133,61.0,0.0,510.0,2.0,0.0
134,59.0,512.0,510.0,2.0,0.0
135,51.0,512.0,1020.0,3.0,0.0
136,78.0,0.0,2040.0,0.0,0.0
137,66.0,0.0,1020.0,1.0,0.0
138,57.0,0.0,510.0,2.0,0.0
139,71.0,512.0,3060.0,1.0,0.0
140,56.0,512.0,1530.0,2.0,0.0
141,52.0,512.0,510.0,3.0,0.0
142,47.0,512.0,510.0,3.0,0.0
143,76.0,0.0,1020.0,0.0,0.0
144,52.0,0.0,2040.0,3.0,0.0
145,56.0,1024.0,510.0,2.0,0.0
146,83.0,512.0,2040.0,0.0,0.0
147,51.0,0.0,1020.0,3.0,0.0
148,78.0,0.0,1020.0,1.0,0.0
149,54.0,512.0,15.0,2.0,0.0
150,59.0,0.0,5130.0,2.0,0.0
151,76.0,0.0,1020.0,1.0,0.0
152,80.0,0.0,1020.0,0.0,0.0
153,52.0,512.0,510.0,3.0,0.0
154,47.0,512.0,510.0,3.0,0.0
155,78.0,0.0,1020.0,0.0,0.0
156,49.0,512.0,510.0,3.0,0.0
157,78.0,512.0,1020.0,1.0,0.0
158,51.0,0.0,510.0,3.0,0.0
159,52.0,512.0,510.0,3.0,0.0
160,76.0,0.0,1020.0,1.0,0.0
161,80.0,512.0,1020.0,0.0,0.0
162,54.0,0.0,510.0,3.0,0.0
163,76.0,512.0,1020.0,0.0,0.0
164,71.0,0.0,1020.0,1.0,0.0
165,56.0,512.0,510.0,3.0,0.0
166,54.0,0.0,510.0,3.0,0.0
167,80.0,0.0,1020.0,0.0,0.0
168,71.0,0.0,510.0,1.0,0.0
169,52.0,512.0,510.0,3.0,0.0
170,76.0,0.0,1020.0,1.0,0.0
171,51.0,512.0,510.0,3.0,0.0
172,82.0,0.0,1020.0,0.0,0.0
173,61.0,512.0,1020.0,2.0,0.0
174,49.0,512.0,510.0,3.0,0.0
175,76.0,0.0,510.0,1.0,0.0
176,54.0,0.0,510.0,3.0,0.0
177,59.0,512.0,1020.0,2.0,0.0
178,75.0,0.0,1530.0,1.0,0.0
179,83.0,512.0,510.0,0.0,0.0
180,47.0,256.0,1530.0,3.0,0.0
181,78.0,0.0,510.0,0.0,0.0
182,83.0,0.0,2040.0,0.0,0.0
183,73.0,256.0,270.0,1.0,0.0
184,59.0,0.0,510.0,3.0,0.0
185,75.0,1024.0,270.0,1.0,0.0
186,61.0,0.0,2040.0,3.0,0.0
187,76.0,512.0,2040.0,1.0,0.0
188,64.0,512.0,510.0,2.0,0.0
189,66.0,512.0,510.0,2.0,0.0
190,82.0,0.0,1020.0,0.0,0.0
191,64.0,0.0,510.0,2.0,0.0
192,83.0,512.0,1020.0,0.0,0.0
193,66.0,512.0,510.0,2.0,0.0
194,59.0,512.0,1530.0,3.0,0.0
195,75.0,0.0,1020.0,1.0,0.0
196,63.0,0.0,510.0,2.0,0.0
197,78.0,512.0,2040.0,0.0,0.0
198,73.0,0.0,1020.0,1.0,0.0
199,64.0,0.0,1020.0,2.0,0.0
200,58.0,512.0,510.0,3.0,0.0
201,63.0,0.0,1020.0,2.0,0.0
202,59.0,512.0,510.0,3.0,0.0
203,75.0,0.0,1020.0,1.0,0.0
204,57.0,0.0,510.0,3.0,0.0
205,56.0,512.0,1020.0,3.0,0.0
206,71.0,0.0,1020.0,1.0,0.0
207,64.0,0.0,510.0,2.0,0.0
208,80.0,512.0,510.0,0.0,0.0
209,63.0,0.0,510.0,2.0,0.0
210,78.0,0.0,510.0,0.0,0.0
211,61.0,1024.0,1020.0,2.0,0.0
212,73.0,0.0,1020.0,1.0,0.0
213,76.0,0.0,1020.0,0.0,0.0
214,57.0,512.0,510.0,3.0,0.0
215,56.0,0.0,510.0,3.0,0.0
216,66.0,512.0,1020.0,2.0,0.0
217,81.0,0.0,1020.0,0.0,0.0
218,75.0,0.0,1020.0,1.0,0.0
219,54.0,0.0,1020.0,3.0,0.0
220,76.0,512.0,510.0,1.0,0.0
221,52.0,0.0,2040.0,3.0,0.0
222,59.0,1024.0,2040.0,2.0,0.0
223,71.0,512.0,510.0,1.0,0.0
224,76.0,512.0,2040.0,1.0,0.0
225,80.0,512.0,15.0,0.0,0.0
226,78.0,512.0,2550.0,0.0,0.0
227,59.0,512.0,1530.0,3.0,0.0
228,71.0,0.0,2040.0,2.0,0.0
229,75.0,0.0,1530.0,1.0,0.0
230,59.0,512.0,510.0,3.0,0.0
231,61.0,0.0,1020.0,3.0,0.0
232,68.0,0.0,1020.0,2.0,0.0
233,76.0,512.0,510.0,0.0,0.0
234,73.0,512.0,1020.0,1.0,0.0
235,66.0,0.0,1020.0,2.0,0.0
236,78.0,256.0,1530.0,0.0,0.0
237,63.0,512.0,1020.0,3.0,0.0
238,71.0,0.0,15.0,1.0,0.0
239,68.0,0.0,1020.0,2.0,0.0
240,64.0,0.0,1020.0,3.0,0.0
241,76.0,256.0,270.0,0.0,0.0
242,78.0,512.0,270.0,0.0,0.0
243,64.0,0.0,1020.0,2.0,0.0
244,80.0,512.0,510.0,0.0,0.0
245,61.0,512.0,1530.0,3.0,0.0
246,78.0,512.0,510.0,0.0,0.0
247,68.0,512.0,1020.0,2.0,0.0
248,59.0,0.0,510.0,3.0,0.0
249,70.0,512.0,1020.0,1.0,0.0
250,70.0,0.0,1020.0,2.0,0.0
251,61.0,0.0,510.0,3.0,0.0
252,54.0,0.0,510.0,3.0,0.0
253,76.0,512.0,15.0,0.0,0.0
254,66.0,512.0,1020.0,2.0,0.0
255,59.0,512.0,510.0,3.0,0.0
256,57.0,0.0,510.0,3.0,0.0
257,56.0,0.0,510.0,3.0,0.0
258,68.0,512.0,510.0,2.0,0.0
259,75.0,0.0,15.0,0.0,0.0
260,54.0,512.0,510.0,3.0,0.0
261,69.0,0.0,510.0,2.0,0.0
262,71.0,0.0,15.0,1.0,0.0
263,68.0,512.0,1020.0,2.0,0.0
264,52.0,512.0,2040.0,4.0,0.0
265,52.0,0.0,1020.0,3.0,0.0
266,76.0,512.0,510.0,0.0,0.0
267,78.0,0.0,510.0,0.0,0.0
268,80.0,512.0,510.0,0.0,0.0
269,64.0,0.0,1020.0,3.0,0.0
270,82.0,0.0,510.0,0.0,0.0
271,73.0,0.0,510.0,1.0,0.0
272,63.0,0.0,1020.0,3.0,0.0
273,66.0,512.0,1020.0,2.0,0.0
274,75.0,0.0,1020.0,1.0,0.0
275,51.0,0.0,1020.0,4.0,0.0
276,83.0,512.0,510.0,0.0,0.0
277,78.0,0.0,510.0,0.0,0.0
278,61.0,0.0,1020.0,3.0,0.0
279,76.0,512.0,1020.0,1.0,0.0
280,80.0,512.0,510.0,0.0,0.0
281,64.0,0.0,1020.0,2.0,0.0
282,49.0,0.0,1020.0,4.0,0.0
283,82.0,0.0,510.0,0.0,0.0
284,63.0,0.0,1020.0,3.0,0.0
285,75.0,512.0,1530.0,1.0,0.0
286,66.0,512.0,2040.0,2.0,0.0
287,83.0,512.0,510.0,0.0,0.0
288,51.0,512.0,1020.0,4.0,0.0
289,78.0,0.0,510.0,0.0,0.0
290,59.0,0.0,1020.0,3.0,0.0
291,83.0,256.0,1530.0,0.0,0.0
292,47.0,0.0,1020.0,4.0,0.0
293,75.0,0.0,510.0,1.0,0.0
294,64.0,0.0,1020.0,2.0,0.0
295,49.0,0.0,1020.0,4.0,0.0
296,73.0,512.0,1530.0,1.0,0.0
297,61.0,512.0,1020.0,3.0,0.0
298,81.0,256.0,270.0,0.0,0.0
299,80.0,0.0,270.0,0.0,0.0
300,66.0,0.0,1020.0,2.0,0.0
301,63.0,0.0,1020.0,3.0,0.0
302,78.0,0.0,510.0,0.0,0.0
303,51.0,0.0,1020.0,4.0,0.0
304,71.0,512.0,510.0,1.0,0.0
305,81.0,256.0,1020.0,0.0,0.0
306,59.0,0.0,1020.0,3.0,0.0
307,64.0,0.0,1020.0,2.0,0.0
308,52.0,0.0,2040.0,4.0,0.0
309,76.0,512.0,2040.0,1.0,0.0
310,80.0,256.0,270.0,0.0,0.0
311,78.0,512.0,270.0,0.0,0.0
312,80.0,512.0,510.0,0.0,0.0
313,64.0,0.0,510.0,3.0,0.0
314,63.0,512.0,510.0,3.0,0.0
315,61.0,512.0,510.0,3.0,0.0
316,63.0,512.0,510.0,3.0,0.0
317,59.0,1024.0,510.0,3.0,0.0
318,61.0,512.0,1530.0,3.0,0.0
319,76.0,512.0,15.0,1.0,0.0
320,63.0,0.0,510.0,3.0,0.0
321,64.0,512.0,510.0,3.0,0.0
322,71.0,512.0,15.0,1.0,0.0
323,63.0,512.0,510.0,3.0,0.0
324,68.0,512.0,510.0,1.0,0.0
325,64.0,0.0,510.0,3.0,0.0
326,69.0,0.0,510.0,1.0,0.0
327,61.0,512.0,510.0,3.0,0.0
328,63.0,512.0,1530.0,3.0,0.0
329,71.0,512.0,510.0,1.0,0.0
330,66.0,512.0,510.0,1.0,0.0
331,71.0,512.0,1530.0,1.0,0.0
332,65.0,512.0,510.0,3.0,0.0
333,66.0,0.0,510.0,3.0,0.0
334,68.0,512.0,510.0,1.0,0.0
335,65.0,0.0,510.0,3.0,0.0
336,66.0,512.0,510.0,3.0,0.0
337,69.0,0.0,1020.0,1.0,0.0
338,63.0,512.0,510.0,3.0,0.0
339,64.0,512.0,510.0,3.0,0.0
340,68.0,512.0,1530.0,1.0,0.0
341,63.0,512.0,510.0,3.0,0.0
342,76.0,1024.0,1020.0,0.0,0.0
343,64.0,0.0,510.0,3.0,0.0
344,61.0,0.0,510.0,3.0,0.0
345,70.0,0.0,510.0,1.0,0.0
346,71.0,0.0,1530.0,1.0,0.0
347,75.0,0.0,1530.0,0.0,0.0
348,59.0,512.0,15.0,3.0,0.0
349,73.0,0.0,510.0,0.0,0.0
350,70.0,512.0,510.0,1.0,0.0
351,54.0,0.0,510.0,3.0,0.0
352,75.0,0.0,510.0,0.0,0.0
353,54.0,0.0,1020.0,3.0,0.0
354,71.0,512.0,510.0,1.0,0.0
355,70.0,0.0,510.0,1.0,0.0
356,73.0,512.0,510.0,0.0,0.0
357,51.0,512.0,510.0,3.0,0.0
358,71.0,0.0,2040.0,1.0,0.0
359,78.0,0.0,510.0,0.0,0.0
360,52.0,512.0,510.0,3.0,0.0
361,80.0,0.0,510.0,0.0,0.0
362,73.0,512.0,1530.0,0.0,0.0
363,54.0,512.0,510.0,3.0,0.0
364,49.0,512.0,510.0,3.0,0.0
365,70.0,0.0,2040.0,1.0,0.0
366,54.0,512.0,1530.0,3.0,0.0
367,78.0,512.0,510.0,0.0,0.0
368,71.0,512.0,1530.0,0.0,0.0
369,51.0,512.0,510.0,3.0,0.0
370,52.0,512.0,2040.0,3.0,0.0
371,68.0,0.0,1020.0,1.0,0.0
372,80.0,512.0,510.0,0.0,0.0
373,70.0,512.0,510.0,1.0,0.0
374,78.0,512.0,1530.0,0.0,0.0
375,66.0,0.0,510.0,1.0,0.0
376,71.0,512.0,1530.0,1.0,0.0
377,51.0,0.0,1020.0,3.0,0.0
378,75.0,512.0,510.0,0.0,0.0
379,49.0,0.0,1020.0,3.0,0.0
380,76.0,512.0,2550.0,0.0,0.0
381,70.0,512.0,510.0,1.0,0.0
382,51.0,0.0,510.0,3.0,0.0
383,71.0,512.0,510.0,1.0,0.0
384,68.0,512.0,510.0,1.0,0.0
385,52.0,0.0,510.0,3.0,0.0
386,54.0,512.0,1530.0,3.0,0.0
387,70.0,0.0,510.0,1.0,0.0
388,71.0,0.0,510.0,1.0,0.0
389,75.0,512.0,510.0,0.0,0.0
390,73.0,0.0,510.0,1.0,0.0
391,76.0,0.0,510.0,0.0,0.0
392,70.0,0.0,510.0,1.0,0.0
393,73.0,512.0,510.0,0.0,0.0
394,42.0,0.0,510.0,3.0,0.0
395,47.0,0.0,1020.0,3.0,0.0
396,71.0,512.0,510.0,1.0,0.0
397,75.0,0.0,510.0,0.0,0.0
398,83.0,0.0,510.0,0.0,0.0
399,59.0,0.0,510.0,3.0,0.0
400,83.0,512.0,510.0,0.0,0.0
401,75.0,512.0,15.0,1.0,0.0
402,73.0,0.0,510.0,1.0,0.0
403,58.0,512.0,510.0,3.0,0.0
404,78.0,0.0,15.0,0.0,0.0
405,59.0,512.0,510.0,3.0,0.0
406,75.0,0.0,1020.0,1.0,0.0
407,47.0,0.0,510.0,3.0,0.0
408,59.0,512.0,1530.0,3.0,0.0
409,75.0,512.0,510.0,0.0,0.0
410,71.0,0.0,510.0,1.0,0.0
411,76.0,512.0,510.0,0.0,0.0
412,73.0,0.0,510.0,1.0,0.0
413,78.0,0.0,2040.0,0.0,0.0
414,75.0,0.0,510.0,1.0,0.0
415,58.0,0.0,510.0,3.0,0.0
416,73.0,512.0,510.0,1.0,0.0
417,60.0,512.0,510.0,3.0,0.0
418,75.0,512.0,2040.0,1.0,0.0
419,56.0,512.0,510.0,3.0,0.0
420,76.0,512.0,2040.0,0.0,0.0
421,61.0,512.0,510.0,3.0,0.0
422,59.0,0.0,510.0,3.0,0.0
423,73.0,0.0,2040.0,1.0,0.0
424,58.0,512.0,510.0,3.0,0.0
425,56.0,0.0,510.0,3.0,0.0
426,55.0,512.0,510.0,3.0,0.0
427,75.0,0.0,2040.0,0.0,0.0
428,58.0,512.0,510.0,3.0,0.0
429,71.0,0.0,2040.0,1.0,0.0
430,56.0,512.0,510.0,3.0,0.0
431,54.0,1024.0,510.0,3.0,0.0
432,73.0,512.0,1530.0,0.0,0.0
433,53.0,512.0,1020.0,3.0,0.0
434,69.0,512.0,1530.0,1.0,0.0
435,54.0,0.0,510.0,3.0,0.0
436,52.0,0.0,510.0,3.0,0.0
437,78.0,512.0,510.0,0.0,0.0
438,51.0,0.0,1020.0,3.0,0.0
439,71.0,512.0,1530.0,0.0,0.0
440,66.0,512.0,510.0,1.0,0.0
441,52.0,0.0,2040.0,3.0,0.0
442,68.0,0.0,1020.0,1.0,0.0
443,76.0,512.0,510.0,0.0,0.0
444,78.0,256.0,2550.0,0.0,0.0
445,69.0,512.0,510.0,1.0,0.0
446,66.0,512.0,510.0,1.0,0.0
447,71.0,512.0,510.0,1.0,0.0
448,51.0,512.0,1020.0,3.0,0.0
449,66.0,0.0,510.0,1.0,0.0
450,68.0,0.0,1530.0,1.0,0.0
451,52.0,0.0,2040.0,4.0,0.0
452,59.0,0.0,510.0,2.0,0.0
453,76.0,256.0,270.0,0.0,0.0
454,75.0,512.0,270.0,0.0,0.0
455,76.0,512.0,510.0,0.0,0.0
456,64.0,512.0,1530.0,2.0,0.0
457,69.0,0.0,510.0,1.0,0.0
458,71.0,0.0,510.0,0.0,0.0
459,52.0,512.0,1020.0,4.0,0.0
460,52.0,512.0,15.0,3.0,0.0
461,71.0,0.0,3060.0,1.0,0.0
462,76.0,0.0,1530.0,0.0,0.0
463,68.0,0.0,15.0,2.0,0.0
464,59.0,0.0,1020.0,3.0,0.0
465,78.0,0.0,510.0,0.0,0.0
466,47.0,0.0,15.0,4.0,0.0
467,63.0,512.0,15.0,2.0,0.0
468,80.0,512.0,510.0,0.0,0.0
469,59.0,512.0,1020.0,3.0,0.0
470,78.0,0.0,510.0,0.0,0.0
471,44.0,0.0,1020.0,4.0,0.0
472,56.0,512.0,1020.0,3.0,0.0
473,59.0,0.0,1020.0,2.0,0.0
474,80.0,512.0,510.0,0.0,0.0
475,76.0,0.0,1020.0,1.0,0.0
476,81.0,0.0,510.0,0.0,0.0
477,47.0,0.0,2040.0,4.0,0.0
478,71.0,0.0,2040.0,1.0,0.0
479,78.0,256.0,510.0,0.0,0.0
480,59.0,0.0,1530.0,3.0,0.0
481,76.0,256.0,270.0,0.0,0.0
482,78.0,512.0,270.0,0.0,0.0
483,80.0,512.0,2040.0,0.0,0.0
484,59.0,512.0,510.0,3.0,0.0
485,63.0,512.0,15.0,2.0,0.0
486,73.0,256.0,510.0,1.0,0.0
487,45.0,0.0,2040.0,4.0,0.0
488,72.0,256.0,270.0,1.0,0.0
489,73.0,0.0,270.0,1.0,0.0
490,78.0,0.0,2040.0,0.0,0.0
491,75.0,0.0,2040.0,1.0,0.0
492,61.0,0.0,15.0,2.0,0.0
493,57.0,512.0,15.0,3.0,0.0
494,44.0,0.0,4110.0,4.0,0.0
495,56.0,1024.0,4110.0,3.0,0.0
496,60.0,512.0,510.0,2.0,0.0
497,63.0,512.0,510.0,2.0,0.0
498,76.0,512.0,1020.0,0.0,0.0
499,73.0,256.0,1530.0,1.0,0.0
500,64.0,512.0,510.0,2.0,0.0
501,66.0,0.0,510.0,2.0,0.0
502,68.0,0.0,2040.0,2.0,0.0
503,75.0,0.0,2040.0,0.0,0.0
504,72.0,256.0,270.0,1.0,0.0
505,70.0,512.0,270.0,1.0,0.0
506,72.0,512.0,510.0,1.0,0.0
507,68.0,0.0,510.0,1.0,0.0
508,73.0,1024.0,15.0,0.0,0.0
509,61.0,512.0,510.0,1.0,0.0
510,71.0,256.0,270.0,0.0,0.0
511,69.0,512.0,270.0,0.0,0.0
512,68.0,0.0,15.0,1.0,0.0
513,71.0,512.0,510.0,0.0,0.0
514,75.0,512.0,510.0,0.0,0.0
515,76.0,256.0,2550.0,0.0,0.0
516,64.0,256.0,270.0,1.0,0.0
517,63.0,512.0,270.0,1.0,0.0
518,64.0,512.0,510.0,1.0,0.0
519,66.0,512.0,510.0,1.0,0.0
520,71.0,256.0,2550.0,1.0,0.0
521,75.0,256.0,270.0,0.0,0.0
522,73.0,1024.0,270.0,0.0,0.0
523,75.0,512.0,1020.0,0.0,0.0
524,56.0,0.0,510.0,3.0,0.0
525,76.0,512.0,1530.0,0.0,0.0
526,70.0,256.0,270.0,1.0,0.0
527,68.0,0.0,270.0,1.0,0.0
528,70.0,0.0,1020.0,1.0,0.0
529,61.0,512.0,15.0,3.0,0.0
530,80.0,512.0,510.0,0.0,0.0
531,75.0,256.0,2550.0,1.0,0.0
532,78.0,0.0,1020.0,0.0,0.0
533,59.0,256.0,270.0,3.0,0.0
534,58.0,512.0,270.0,3.0,0.0
535,80.0,512.0,510.0,0.0,0.0
536,59.0,0.0,510.0,3.0,0.0
537,63.0,0.0,510.0,3.0,0.0
538,78.0,512.0,510.0,0.0,0.0
539,80.0,512.0,1530.0,0.0,0.0
540,64.0,512.0,2040.0,3.0,0.0
541,73.0,256.0,270.0,1.0,0.0
542,72.0,512.0,270.0,1.0,0.0
543,73.0,256.0,1530.0,1.0,0.0
544,76.0,0.0,510.0,0.0,0.0
545,78.0,512.0,1530.0,0.0,0.0
546,63.0,512.0,2040.0,3.0,0.0
547,71.0,256.0,270.0,1.0,0.0
548,70.0,512.0,270.0,1.0,0.0
549,71.0,256.0,1530.0,1.0,0.0
550,75.0,0.0,510.0,0.0,0.0
551,76.0,512.0,1530.0,0.0,0.0
552,61.0,0.0,2040.0,3.0,0.0
553,70.0,256.0,270.0,1.0,0.0
554,68.0,512.0,270.0,1.0,0.0
555,70.0,0.0,1020.0,1.0,0.0
556,78.0,512.0,510.0,0.0,0.0
557,71.0,512.0,510.0,1.0,0.0
558,59.0,0.0,1530.0,3.0,0.0
559,75.0,512.0,1530.0,0.0,0.0
560,66.0,512.0,510.0,1.0,0.0
561,71.0,512.0,1530.0,1.0,0.0
562,71.0,512.0,510.0,0.0,0.0
563,57.0,0.0,510.0,3.0,0.0
564,56.0,0.0,510.0,3.0,0.0
565,69.0,512.0,510.0,1.0,0.0
566,54.0,0.0,510.0,3.0,0.0
567,76.0,0.0,15.0,0.0,0.0
568,56.0,0.0,510.0,3.0,0.0
569,71.0,512.0,510.0,1.0,0.0
570,68.0,512.0,510.0,1.0,0.0
571,52.0,0.0,510.0,3.0,0.0
572,66.0,512.0,1020.0,1.0,0.0
573,59.0,0.0,1530.0,3.0,0.0
574,75.0,256.0,270.0,0.0,0.0
575,73.0,0.0,270.0,0.0,0.0
576,71.0,512.0,1530.0,1.0,0.0
577,75.0,512.0,510.0,0.0,0.0
578,78.0,512.0,510.0,0.0,0.0
579,51.0,0.0,510.0,3.0,0.0
580,80.0,512.0,2040.0,0.0,0.0
581,52.0,256.0,2550.0,3.0,0.0
582,68.0,512.0,510.0,1.0,0.0
583,73.0,512.0,510.0,1.0,0.0
584,68.0,0.0,510.0,1.0,0.0
585,70.0,512.0,1530.0,1.0,0.0
586,78.0,512.0,2040.0,0.0,0.0
587,51.0,256.0,270.0,3.0,0.0
588,49.0,512.0,270.0,3.0,0.0
589,51.0,0.0,1020.0,3.0,0.0
590,72.0,0.0,510.0,1.0,0.0
591,49.0,0.0,510.0,3.0,0.0
592,73.0,512.0,510.0,1.0,0.0
593,76.0,512.0,2040.0,0.0,0.0
594,51.0,0.0,510.0,3.0,0.0
595,68.0,512.0,510.0,1.0,0.0
596,52.0,512.0,510.0,3.0,0.0
597,73.0,256.0,1530.0,1.0,0.0
598,54.0,0.0,510.0,3.0,0.0
599,56.0,0.0,2040.0,3.0,0.0
600,72.0,256.0,270.0,1.0,0.0
601,70.0,512.0,270.0,1.0,0.0
602,44.0,512.0,1020.0,4.0,0.0
603,72.0,0.0,1020.0,1.0,0.0
604,75.0,512.0,15.0,0.0,0.0
605,73.0,512.0,510.0,1.0,0.0
606,61.0,0.0,1020.0,3.0,0.0
607,76.0,0.0,2040.0,0.0,0.0
608,49.0,512.0,1020.0,4.0,0.0
609,68.0,512.0,1020.0,1.0,0.0
610,61.0,512.0,1020.0,3.0,0.0
611,49.0,0.0,1020.0,4.0,0.0
612,70.0,0.0,510.0,1.0,0.0
613,75.0,512.0,510.0,0.0,0.0
614,47.0,0.0,1020.0,4.0,0.0
615,59.0,0.0,1020.0,3.0,0.0
616,71.0,512.0,1530.0,1.0,0.0
617,76.0,512.0,510.0,0.0,0.0
618,59.0,0.0,2040.0,2.0,0.0
619,51.0,0.0,1020.0,3.0,0.0
620,78.0,256.0,1530.0,0.0,0.0
621,51.0,512.0,1020.0,4.0,0.0
622,69.0,0.0,510.0,1.0,0.0
623,52.0,512.0,1020.0,3.0,0.0
624,68.0,512.0,1530.0,1.0,0.0
625,52.0,0.0,1020.0,4.0,0.0
626,76.0,256.0,270.0,0.0,0.0
627,75.0,0.0,270.0,0.0,0.0
628,76.0,256.0,1530.0,0.0,0.0
629,49.0,0.0,1020.0,3.0,0.0
630,49.0,0.0,1020.0,4.0,0.0
631,61.0,512.0,1020.0,2.0,0.0
632,70.0,0.0,510.0,1.0,0.0
633,59.0,0.0,2040.0,3.0,0.0
634,47.0,1024.0,2040.0,4.0,0.0
635,71.0,0.0,2040.0,1.0,0.0
636,66.0,0.0,2040.0,2.0,0.0
637,75.0,256.0,270.0,0.0,0.0
638,73.0,1024.0,270.0,0.0,0.0
639,75.0,0.0,1020.0,0.0,0.0
640,64.0,512.0,1020.0,3.0,0.0
641,63.0,512.0,510.0,3.0,0.0
642,61.0,1024.0,510.0,3.0,0.0
643,59.0,0.0,2040.0,3.0,0.0
644,71.0,512.0,510.0,1.0,0.0
645,68.0,512.0,510.0,1.0,0.0
646,66.0,512.0,510.0,1.0,0.0
647,64.0,512.0,510.0,1.0,0.0
648,61.0,512.0,1530.0,3.0,0.0
649,68.0,512.0,510.0,1.0,0.0
650,73.0,0.0,2040.0,1.0,0.0
651,59.0,1024.0,510.0,3.0,0.0
652,57.0,1024.0,1020.0,3.0,0.0
653,56.0,0.0,1020.0,3.0,0.0
654,76.0,512.0,2040.0,0.0,0.0
655,71.0,512.0,1020.0,1.0,0.0
656,54.0,0.0,2550.0,3.0,0.0
657,69.0,512.0,510.0,1.0,0.0
658,68.0,0.0,510.0,1.0,0.0
659,69.0,256.0,1530.0,1.0,0.0
660,75.0,512.0,510.0,0.0,0.0
661,73.0,512.0,510.0,0.0,0.0
662,71.0,0.0,1530.0,0.0,0.0
663,52.0,0.0,270.0,3.0,0.0
664,68.0,256.0,270.0,1.0,0.0
665,51.0,0.0,270.0,3.0,0.0
666,66.0,512.0,270.0,1.0,0.0
667,52.0,512.0,510.0,3.0,0.0
668,68.0,0.0,510.0,1.0,0.0
669,73.0,0.0,510.0,0.0,0.0
670,64.0,512.0,510.0,1.0,0.0
671,49.0,0.0,510.0,3.0,0.0
672,66.0,512.0,3060.0,1.0,0.0
673,51.0,512.0,510.0,3.0,0.0
674,69.0,0.0,2040.0,0.0,0.0
675,47.0,512.0,510.0,3.0,0.0
676,49.0,512.0,510.0,3.0,0.0
677,51.0,512.0,510.0,3.0,0.0
678,52.0,512.0,510.0,3.0,0.0
679,68.0,0.0,2040.0,0.0,0.0
680,54.0,0.0,510.0,3.0,0.0
681,56.0,512.0,510.0,3.0,0.0
682,64.0,256.0,1530.0,1.0,0.0
683,58.0,512.0,510.0,3.0,0.0
684,59.0,512.0,2040.0,3.0,0.0
685,66.0,512.0,1530.0,0.0,0.0
686,63.0,256.0,270.0,1.0,0.0
687,61.0,512.0,270.0,1.0,0.0
688,63.0,0.0,510.0,1.0,0.0
689,75.0,0.0,510.0,0.0,0.0
690,65.0,0.0,510.0,1.0,0.0
691,58.0,0.0,1020.0,3.0,0.0
692,73.0,0.0,1020.0,0.0,0.0
693,68.0,512.0,510.0,1.0,0.0
694,61.0,512.0,510.0,1.0,0.0
695,56.0,0.0,1020.0,3.0,0.0
696,71.0,0.0,1020.0,0.0,0.0
697,63.0,512.0,510.0,1.0,0.0
698,65.0,512.0,510.0,1.0,0.0
699,66.0,512.0,510.0,1.0,0.0
700,70.0,0.0,1020.0,0.0,0.0
701,54.0,512.0,1020.0,3.0,0.0
702,64.0,0.0,510.0,1.0,0.0
703,56.0,512.0,510.0,3.0,0.0
704,71.0,512.0,2550.0,0.0,0.0
705,63.0,512.0,1020.0,1.0,0.0
706,54.0,0.0,510.0,3.0,0.0
707,52.0,0.0,510.0,3.0,0.0
708,68.0,512.0,510.0,1.0,0.0
709,66.0,512.0,510.0,1.0,0.0
710,51.0,0.0,510.0,3.0,0.0
711,49.0,512.0,1020.0,3.0,0.0
712,64.0,0.0,1020.0,1.0,0.0
713,70.0,0.0,510.0,0.0,0.0
714,71.0,512.0,2550.0,0.0,0.0
715,47.0,512.0,510.0,3.0,0.0
716,63.0,0.0,510.0,1.0,0.0
717,64.0,0.0,510.0,1.0,0.0
718,49.0,512.0,510.0,3.0,0.0
719,51.0,0.0,510.0,3.0,0.0
720,66.0,512.0,510.0,1.0,0.0
721,59.0,512.0,2040.0,2.0,0.0
722,63.0,0.0,510.0,1.0,0.0
723,47.0,512.0,510.0,3.0,0.0
724,52.0,512.0,2040.0,4.0,0.0
725,68.0,0.0,1020.0,1.0,0.0
726,52.0,0.0,2040.0,3.0,0.0
727,73.0,512.0,1020.0,0.0,0.0
728,58.0,0.0,1020.0,2.0,0.0
729,66.0,0.0,2040.0,1.0,0.0
730,73.0,512.0,1020.0,0.0,0.0
731,51.0,0.0,1020.0,3.0,0.0
732,59.0,0.0,1020.0,2.0,0.0
733,51.0,512.0,1020.0,4.0,0.0
734,71.0,512.0,1020.0,0.0,0.0
735,64.0,1024.0,1020.0,1.0,0.0
736,61.0,0.0,1020.0,2.0,0.0
737,49.0,0.0,1020.0,4.0,0.0
738,49.0,0.0,1020.0,3.0,0.0
739,70.0,0.0,510.0,0.0,0.0
740,63.0,0.0,1020.0,1.0,0.0
741,47.0,0.0,1020.0,4.0,0.0
742,47.0,0.0,1020.0,3.0,0.0
743,54.0,0.0,1020.0,2.0,0.0
744,71.0,0.0,1020.0,0.0,0.0
745,66.0,512.0,1020.0,1.0,0.0
746,64.0,512.0,1530.0,1.0,0.0
747,61.0,1024.0,2040.0,2.0,0.0
748,49.0,512.0,1020.0,4.0,0.0
749,69.0,512.0,510.0,0.0,0.0
750,49.0,0.0,1020.0,3.0,0.0
751,71.0,0.0,510.0,0.0,0.0
752,57.0,0.0,1020.0,3.0,0.0
753,73.0,0.0,510.0,0.0,0.0
754,45.0,0.0,1020.0,4.0,0.0
755,75.0,0.0,510.0,0.0,0.0
756,66.0,0.0,510.0,1.0,0.0
757,56.0,1024.0,1020.0,3.0,0.0
758,68.0,0.0,1020.0,1.0,0.0
759,59.0,0.0,1020.0,2.0,0.0
760,76.0,1024.0,2040.0,0.0,0.0
761,44.0,0.0,1020.0,4.0,0.0
762,57.0,0.0,2040.0,2.0,0.0
763,69.0,0.0,2040.0,1.0,0.0
764,42.0,0.0,2040.0,4.0,0.0
765,54.0,1024.0,2040.0,3.0,0.0
766,75.0,0.0,1020.0,0.0,0.0
767,64.0,0.0,1020.0,1.0,0.0
768,40.0,0.0,10230.0,4.0,0.0
769,59.0,0.0,1020.0,2.0,0.0
770,64.0,0.0,1020.0,2.0,0.0
771,68.0,0.0,1020.0,1.0,0.0
772,71.0,0.0,1020.0,1.0,0.0
773,56.0,0.0,1020.0,3.0,0.0
774,76.0,0.0,1020.0,0.0,0.0
775,52.0,1024.0,1020.0,3.0,0.0
776,68.0,512.0,510.0,1.0,0.0
777,76.0,0.0,510.0,0.0,0.0
778,74.0,512.0,510.0,0.0,0.0
779,66.0,0.0,1530.0,1.0,0.0
780,73.0,512.0,510.0,0.0,0.0
781,74.0,512.0,510.0,0.0,0.0
782,71.0,0.0,510.0,0.0,0.0
783,68.0,512.0,510.0,1.0,0.0
784,69.0,512.0,510.0,1.0,0.0
785,73.0,0.0,1530.0,0.0,0.0
786,68.0,512.0,510.0,1.0,0.0
787,69.0,512.0,510.0,1.0,0.0
788,57.0,0.0,510.0,2.0,0.0
789,71.0,0.0,510.0,0.0,0.0
790,75.0,4096.0,510.0,0.0,0.0
791,54.0,0.0,510.0,3.0,0.0
792,66.0,0.0,510.0,1.0,0.0
793,69.0,0.0,510.0,1.0,0.0
794,59.0,0.0,4110.0,2.0,0.0
795,68.0,0.0,4110.0,1.0,0.0
796,64.0,0.0,4110.0,1.0,0.0
797,76.0,0.0,4110.0,0.0,0.0
798,56.0,0.0,4110.0,3.0,0.0
799,52.0,0.0,4110.0,3.0,0.0
800,71.0,0.0,4110.0,0.0,0.0
