,note,step,duration,channel,velocity
0,59.0,240.0,240.0,0.0,64.0
1,71.0,0.0,480.0,0.0,64.0
2,58.0,0.0,240.0,0.0,64.0
3,59.0,240.0,240.0,0.0,64.0
4,71.0,240.0,15.0,0.0,64.0
5,61.0,0.0,240.0,0.0,64.0
6,71.0,240.0,15.0,0.0,64.0
7,63.0,120.0,240.0,0.0,64.0
8,71.0,0.0,240.0,0.0,64.0
9,61.0,0.0,240.0,0.0,64.0
10,70.0,0.0,120.0,0.0,64.0
11,68.0,0.0,120.0,0.0,64.0
12,63.0,0.0,240.0,0.0,64.0
13,66.0,0.0,240.0,0.0,64.0
14,64.0,0.0,240.0,0.0,64.0
15,66.0,0.0,480.0,0.0,64.0
16,63.0,0.0,240.0,0.0,64.0
17,71.0,0.0,240.0,0.0,64.0
18,54.0,0.0,480.0,0.0,64.0
19,61.0,0.0,240.0,0.0,64.0
20,70.0,0.0,240.0,0.0,64.0
21,47.0,0.0,240.0,0.0,64.0
22,59.0,0.0,240.0,0.0,64.0
23,71.0,120.0,120.0,0.0,64.0
24,63.0,0.0,240.0,0.0,64.0
25,70.0,120.0,120.0,0.0,64.0
26,61.0,120.0,240.0,0.0,64.0
27,71.0,120.0,120.0,0.0,64.0
28,73.0,0.0,120.0,0.0,64.0
29,75.0,120.0,120.0,0.0,64.0
30,59.0,0.0,240.0,0.0,64.0
31,77.0,240.0,120.0,0.0,64.0
32,58.0,240.0,240.0,0.0,64.0
33,78.0,0.0,480.0,0.0,64.0
34,56.0,240.0,240.0,0.0,64.0
35,78.0,0.0,15.0,0.0,64.0
36,54.0,240.0,240.0,0.0,64.0
37,56.0,0.0,240.0,0.0,64.0
38,78.0,0.0,15.0,0.0,64.0
39,58.0,0.0,240.0,0.0,64.0
40,78.0,0.0,240.0,0.0,64.0
41,56.0,120.0,240.0,0.0,64.0
42,77.0,0.0,120.0,0.0,64.0
43,75.0,0.0,120.0,0.0,64.0
44,73.0,0.0,120.0,0.0,64.0
45,58.0,0.0,240.0,0.0,64.0
46,78.0,0.0,120.0,0.0,64.0
47,59.0,0.0,240.0,0.0,64.0
48,71.0,0.0,120.0,0.0,64.0
49,78.0,0.0,120.0,0.0,64.0
50,61.0,0.0,480.0,0.0,64.0
51,70.0,0.0,120.0,0.0,64.0
52,78.0,0.0,120.0,0.0,64.0
53,77.0,0.0,120.0,0.0,64.0
54,78.0,0.0,120.0,0.0,64.0
55,49.0,0.0,480.0,0.0,64.0
56,68.0,0.0,120.0,0.0,64.0
57,78.0,0.0,120.0,0.0,64.0
58,77.0,0.0,120.0,0.0,64.0
59,78.0,0.0,120.0,0.0,64.0
60,66.0,120.0,120.0,0.0,64.0
61,42.0,120.0,240.0,0.0,64.0
62,68.0,0.0,120.0,0.0,64.0
63,70.0,120.0,120.0,0.0,64.0
64,54.0,0.0,240.0,0.0,64.0
65,71.0,0.0,120.0,0.0,64.0
66,73.0,120.0,120.0,0.0,64.0
67,58.0,0.0,240.0,0.0,64.0
68,75.0,120.0,120.0,0.0,64.0
69,73.0,0.0,120.0,0.0,64.0
70,61.0,240.0,240.0,0.0,64.0
71,76.0,120.0,120.0,0.0,64.0
72,73.0,0.0,120.0,0.0,64.0
73,70.0,0.0,120.0,0.0,64.0
74,64.0,240.0,480.0,0.0,64.0
75,66.0,0.0,240.0,0.0,64.0
76,70.0,120.0,240.0,0.0,64.0
77,73.0,120.0,120.0,0.0,64.0
78,70.0,0.0,120.0,0.0,64.0
79,66.0,0.0,15.0,0.0,64.0
80,66.0,0.0,15.0,0.0,64.0
81,75.0,120.0,120.0,0.0,64.0
82,54.0,240.0,240.0,0.0,64.0
83,71.0,0.0,120.0,0.0,64.0
84,63.0,0.0,480.0,0.0,64.0
85,66.0,0.0,15.0,0.0,64.0
86,66.0,0.0,15.0,0.0,64.0
87,75.0,120.0,120.0,0.0,64.0
88,71.0,240.0,120.0,0.0,64.0
89,66.0,0.0,240.0,0.0,64.0
90,54.0,240.0,240.0,0.0,64.0
91,66.0,120.0,15.0,0.0,64.0
92,76.0,120.0,120.0,0.0,64.0
93,73.0,0.0,120.0,0.0,64.0
94,61.0,0.0,240.0,0.0,64.0
95,59.0,240.0,240.0,0.0,64.0
96,66.0,0.0,15.0,0.0,64.0
97,76.0,120.0,120.0,0.0,64.0
98,73.0,0.0,120.0,0.0,64.0
99,66.0,0.0,15.0,0.0,64.0
100,58.0,0.0,240.0,0.0,64.0
101,56.0,0.0,240.0,0.0,64.0
102,66.0,0.0,15.0,0.0,64.0
103,70.0,120.0,120.0,0.0,64.0
104,73.0,240.0,120.0,0.0,64.0
105,54.0,0.0,240.0,0.0,64.0
106,66.0,0.0,240.0,0.0,64.0
107,76.0,120.0,240.0,0.0,64.0
108,52.0,0.0,240.0,0.0,64.0
109,70.0,120.0,120.0,0.0,64.0
110,73.0,0.0,120.0,0.0,64.0
111,76.0,0.0,120.0,0.0,64.0
112,73.0,240.0,120.0,0.0,64.0
113,82.0,120.0,240.0,0.0,64.0
114,76.0,0.0,240.0,0.0,64.0
115,51.0,0.0,240.0,0.0,64.0
116,49.0,0.0,240.0,0.0,64.0
117,70.0,0.0,120.0,0.0,64.0
118,76.0,120.0,120.0,0.0,64.0
119,82.0,240.0,120.0,0.0,64.0
120,73.0,0.0,120.0,0.0,64.0
121,47.0,0.0,480.0,0.0,64.0
122,83.0,0.0,240.0,0.0,64.0
123,75.0,240.0,240.0,0.0,64.0
124,76.0,0.0,240.0,0.0,64.0
125,85.0,240.0,240.0,0.0,64.0
126,82.0,0.0,240.0,0.0,64.0
127,73.0,240.0,240.0,0.0,64.0
128,83.0,240.0,240.0,0.0,64.0
129,75.0,0.0,240.0,0.0,64.0
130,46.0,0.0,480.0,0.0,64.0
131,66.0,120.0,15.0,0.0,64.0
132,75.0,120.0,120.0,0.0,64.0
133,73.0,120.0,120.0,0.0,64.0
134,76.0,120.0,120.0,0.0,64.0
135,66.0,0.0,15.0,0.0,64.0
136,75.0,120.0,15.0,0.0,64.0
137,73.0,120.0,120.0,0.0,64.0
138,71.0,0.0,120.0,0.0,64.0
139,44.0,0.0,480.0,0.0,64.0
140,83.0,0.0,240.0,0.0,64.0
141,64.0,240.0,240.0,0.0,64.0
142,76.0,0.0,240.0,0.0,64.0
143,73.0,240.0,15.0,0.0,64.0
144,70.0,240.0,240.0,0.0,64.0
145,75.0,0.0,240.0,0.0,64.0
146,71.0,240.0,240.0,0.0,64.0
147,42.0,0.0,480.0,0.0,64.0
148,63.0,120.0,120.0,0.0,64.0
149,81.0,120.0,15.0,0.0,64.0
150,61.0,0.0,120.0,0.0,64.0
151,64.0,120.0,120.0,0.0,64.0
152,81.0,120.0,15.0,0.0,64.0
153,63.0,120.0,120.0,0.0,64.0
154,75.0,240.0,240.0,0.0,64.0
155,61.0,120.0,120.0,0.0,64.0
156,59.0,0.0,120.0,0.0,64.0
157,40.0,0.0,480.0,0.0,64.0
158,71.0,0.0,240.0,0.0,64.0
159,80.0,240.0,240.0,0.0,64.0
160,85.0,240.0,240.0,0.0,64.0
161,76.0,0.0,240.0,0.0,64.0
162,52.0,0.0,960.0,0.0,64.0
163,73.0,240.0,240.0,0.0,64.0
164,82.0,0.0,240.0,0.0,64.0
165,75.0,0.0,240.0,0.0,64.0
166,83.0,240.0,240.0,0.0,64.0
167,70.0,0.0,240.0,0.0,64.0
168,73.0,120.0,240.0,0.0,64.0
169,66.0,240.0,240.0,0.0,64.0
170,75.0,120.0,120.0,0.0,64.0
171,76.0,0.0,120.0,0.0,64.0
172,78.0,0.0,240.0,0.0,64.0
173,71.0,120.0,600.0,0.0,64.0
174,51.0,240.0,240.0,0.0,64.0
175,76.0,120.0,240.0,0.0,64.0
176,52.0,0.0,240.0,0.0,64.0
177,54.0,30.0,480.0,0.0,64.0
178,75.0,240.0,120.0,0.0,64.0
179,78.0,0.0,240.0,0.0,64.0
180,70.0,120.0,120.0,0.0,64.0
181,73.0,30.0,30.0,0.0,64.0
182,42.0,240.0,480.0,0.0,64.0
183,75.0,60.0,30.0,0.0,64.0
184,73.0,240.0,120.0,0.0,64.0
185,76.0,0.0,240.0,0.0,64.0
186,76.0,120.0,240.0,0.0,64.0
187,71.0,0.0,240.0,0.0,64.0
188,47.0,0.0,240.0,0.0,64.0
189,64.0,0.0,240.0,0.0,64.0
190,73.0,120.0,120.0,0.0,64.0
191,75.0,0.0,120.0,0.0,64.0
192,63.0,120.0,240.0,0.0,64.0
193,76.0,120.0,120.0,0.0,64.0
194,78.0,0.0,120.0,0.0,64.0
195,80.0,120.0,120.0,0.0,64.0
196,61.0,0.0,240.0,0.0,64.0
197,82.0,120.0,120.0,0.0,64.0
198,83.0,120.0,120.0,0.0,64.0
199,59.0,0.0,480.0,0.0,64.0
200,78.0,240.0,120.0,0.0,64.0
201,66.0,120.0,240.0,0.0,64.0
202,87.0,120.0,360.0,0.0,64.0
203,71.0,120.0,240.0,0.0,64.0
204,85.0,0.0,120.0,0.0,64.0
205,73.0,0.0,240.0,0.0,64.0
206,83.0,120.0,120.0,0.0,64.0
207,82.0,120.0,120.0,0.0,64.0
208,83.0,0.0,120.0,0.0,64.0
209,75.0,120.0,120.0,0.0,64.0
210,71.0,120.0,120.0,0.0,64.0
211,87.0,0.0,120.0,0.0,64.0
212,59.0,120.0,240.0,0.0,64.0
213,75.0,120.0,120.0,0.0,64.0
214,78.0,0.0,120.0,0.0,64.0
215,81.0,0.0,120.0,0.0,64.0
216,80.0,120.0,120.0,0.0,64.0
217,59.0,120.0,15.0,0.0,64.0
218,78.0,0.0,120.0,0.0,64.0
219,47.0,0.0,480.0,0.0,64.0
220,80.0,120.0,120.0,0.0,64.0
221,76.0,240.0,120.0,0.0,64.0
222,83.0,120.0,360.0,0.0,64.0
223,64.0,120.0,240.0,0.0,64.0
224,68.0,0.0,240.0,0.0,64.0
225,81.0,120.0,120.0,0.0,64.0
226,71.0,0.0,240.0,0.0,64.0
227,80.0,120.0,120.0,0.0,64.0
228,78.0,120.0,120.0,0.0,64.0
229,76.0,0.0,120.0,0.0,64.0
230,80.0,120.0,120.0,0.0,64.0
231,83.0,0.0,120.0,0.0,64.0
232,71.0,120.0,120.0,0.0,64.0
233,76.0,120.0,120.0,0.0,64.0
234,78.0,120.0,120.0,0.0,64.0
235,59.0,0.0,15.0,0.0,64.0
236,80.0,0.0,240.0,0.0,64.0
237,75.0,120.0,120.0,0.0,64.0
238,59.0,0.0,15.0,0.0,64.0
239,73.0,120.0,120.0,0.0,64.0
240,71.0,120.0,120.0,0.0,64.0
241,47.0,0.0,480.0,0.0,64.0
242,73.0,120.0,120.0,0.0,64.0
243,70.0,120.0,15.0,0.0,64.0
244,76.0,0.0,360.0,0.0,64.0
245,71.0,120.0,120.0,0.0,64.0
246,73.0,120.0,120.0,0.0,64.0
247,75.0,0.0,120.0,0.0,64.0
248,73.0,120.0,120.0,0.0,64.0
249,71.0,120.0,120.0,0.0,64.0
250,73.0,120.0,120.0,0.0,64.0
251,76.0,0.0,120.0,0.0,64.0
252,73.0,120.0,120.0,0.0,64.0
253,70.0,0.0,120.0,0.0,64.0
254,59.0,120.0,15.0,0.0,64.0
255,66.0,0.0,240.0,0.0,64.0
256,73.0,120.0,120.0,0.0,64.0
257,59.0,0.0,15.0,0.0,64.0
258,76.0,0.0,480.0,0.0,64.0
259,71.0,120.0,120.0,0.0,64.0
260,70.0,120.0,120.0,0.0,64.0
261,47.0,0.0,240.0,0.0,64.0
262,71.0,120.0,120.0,0.0,64.0
263,66.0,120.0,120.0,0.0,64.0
264,51.0,0.0,240.0,0.0,64.0
265,78.0,0.0,240.0,0.0,64.0
266,71.0,120.0,120.0,0.0,64.0
267,75.0,120.0,15.0,0.0,64.0
268,78.0,120.0,120.0,0.0,64.0
269,47.0,0.0,240.0,0.0,64.0
270,75.0,0.0,120.0,0.0,64.0
271,51.0,60.0,240.0,0.0,64.0
272,83.0,0.0,240.0,0.0,64.0
273,71.0,120.0,360.0,0.0,64.0
274,75.0,60.0,60.0,0.0,64.0
275,54.0,0.0,240.0,0.0,64.0
276,76.0,0.0,60.0,0.0,64.0
277,75.0,120.0,120.0,0.0,64.0
278,70.0,0.0,120.0,0.0,64.0
279,73.0,0.0,240.0,0.0,64.0
280,47.0,120.0,240.0,0.0,64.0
281,68.0,120.0,120.0,0.0,64.0
282,70.0,0.0,120.0,0.0,64.0
283,71.0,120.0,120.0,0.0,64.0
284,46.0,120.0,240.0,0.0,64.0
285,73.0,0.0,120.0,0.0,64.0
286,75.0,120.0,120.0,0.0,64.0
287,44.0,120.0,240.0,0.0,64.0
288,77.0,0.0,120.0,0.0,64.0
289,42.0,120.0,480.0,0.0,64.0
290,78.0,120.0,120.0,0.0,64.0
291,73.0,240.0,15.0,0.0,64.0
292,82.0,120.0,360.0,0.0,64.0
293,80.0,120.0,15.0,0.0,64.0
294,78.0,0.0,15.0,0.0,64.0
295,77.0,120.0,120.0,0.0,64.0
296,78.0,0.0,120.0,0.0,64.0
297,82.0,120.0,15.0,0.0,64.0
298,78.0,0.0,120.0,0.0,64.0
299,82.0,120.0,15.0,0.0,64.0
300,73.0,120.0,360.0,0.0,64.0
301,85.0,120.0,120.0,0.0,64.0
302,54.0,0.0,15.0,0.0,64.0
303,88.0,0.0,240.0,0.0,64.0
304,76.0,120.0,120.0,0.0,64.0
305,54.0,0.0,15.0,0.0,64.0
306,75.0,120.0,120.0,0.0,64.0
307,73.0,120.0,120.0,0.0,64.0
308,42.0,0.0,480.0,0.0,64.0
309,75.0,120.0,120.0,0.0,64.0
310,71.0,0.0,120.0,0.0,64.0
311,75.0,120.0,240.0,0.0,64.0
312,78.0,120.0,120.0,0.0,64.0
313,76.0,120.0,120.0,0.0,64.0
314,75.0,120.0,120.0,0.0,64.0
315,73.0,120.0,120.0,0.0,64.0
316,83.0,0.0,120.0,0.0,64.0
317,75.0,120.0,120.0,0.0,64.0
318,78.0,0.0,120.0,0.0,64.0
319,54.0,120.0,240.0,0.0,64.0
320,83.0,120.0,120.0,0.0,64.0
321,71.0,120.0,360.0,0.0,64.0
322,85.0,0.0,120.0,0.0,64.0
323,87.0,0.0,240.0,0.0,64.0
324,54.0,0.0,240.0,0.0,64.0
325,70.0,120.0,120.0,0.0,64.0
326,54.0,120.0,240.0,0.0,64.0
327,68.0,120.0,120.0,0.0,64.0
328,66.0,0.0,120.0,0.0,64.0
329,42.0,120.0,480.0,0.0,64.0
330,68.0,120.0,120.0,0.0,64.0
331,65.0,120.0,120.0,0.0,64.0
332,77.0,120.0,120.0,0.0,64.0
333,71.0,120.0,360.0,0.0,64.0
334,78.0,0.0,120.0,0.0,64.0
335,80.0,0.0,120.0,0.0,64.0
336,82.0,120.0,120.0,0.0,64.0
337,70.0,0.0,120.0,0.0,64.0
338,83.0,120.0,480.0,0.0,64.0
339,68.0,120.0,120.0,0.0,64.0
340,66.0,120.0,120.0,0.0,64.0
341,68.0,120.0,120.0,0.0,64.0
342,71.0,0.0,120.0,0.0,64.0
343,65.0,120.0,360.0,0.0,64.0
344,54.0,0.0,240.0,0.0,64.0
345,80.0,120.0,120.0,0.0,64.0
346,77.0,120.0,120.0,0.0,64.0
347,73.0,0.0,240.0,0.0,64.0
348,54.0,0.0,240.0,0.0,64.0
349,68.0,120.0,120.0,0.0,64.0
350,54.0,120.0,240.0,0.0,64.0
351,83.0,0.0,480.0,0.0,64.0
352,66.0,120.0,120.0,0.0,64.0
353,65.0,0.0,120.0,0.0,64.0
354,66.0,120.0,120.0,0.0,64.0
355,42.0,0.0,240.0,0.0,64.0
356,61.0,120.0,120.0,0.0,64.0
357,85.0,0.0,240.0,0.0,64.0
358,58.0,120.0,240.0,0.0,64.0
359,66.0,120.0,120.0,0.0,64.0
360,70.0,0.0,120.0,0.0,64.0
361,73.0,120.0,120.0,0.0,64.0
362,54.0,0.0,240.0,0.0,64.0
363,82.0,0.0,240.0,0.0,64.0
364,70.0,240.0,120.0,0.0,64.0
365,58.0,60.0,240.0,0.0,64.0
366,78.0,0.0,240.0,0.0,64.0
367,61.0,120.0,240.0,0.0,64.0
368,70.0,60.0,60.0,0.0,64.0
369,71.0,0.0,60.0,0.0,64.0
370,70.0,0.0,120.0,0.0,64.0
371,75.0,0.0,120.0,0.0,64.0
372,77.0,120.0,120.0,0.0,64.0
373,68.0,0.0,240.0,0.0,64.0
374,49.0,0.0,240.0,0.0,64.0
375,82.0,120.0,120.0,0.0,64.0
376,80.0,120.0,120.0,0.0,64.0
377,53.0,0.0,240.0,0.0,64.0
378,78.0,120.0,120.0,0.0,64.0
379,77.0,120.0,120.0,0.0,64.0
380,56.0,0.0,240.0,0.0,64.0
381,75.0,120.0,120.0,0.0,64.0
382,73.0,120.0,120.0,0.0,64.0
383,61.0,0.0,480.0,0.0,64.0
384,77.0,120.0,120.0,0.0,64.0
385,80.0,120.0,120.0,0.0,64.0
386,65.0,0.0,240.0,0.0,64.0
387,77.0,120.0,120.0,0.0,64.0
388,68.0,120.0,240.0,0.0,64.0
389,85.0,120.0,120.0,0.0,64.0
390,80.0,0.0,120.0,0.0,64.0
391,77.0,120.0,120.0,0.0,64.0
392,73.0,0.0,240.0,0.0,64.0
393,80.0,120.0,120.0,0.0,64.0
394,73.0,120.0,120.0,0.0,64.0
395,59.0,0.0,480.0,0.0,64.0
396,77.0,120.0,120.0,0.0,64.0
397,65.0,0.0,240.0,0.0,64.0
398,80.0,120.0,120.0,0.0,64.0
399,77.0,120.0,120.0,0.0,64.0
400,68.0,0.0,240.0,0.0,64.0
401,85.0,120.0,120.0,0.0,64.0
402,80.0,120.0,120.0,0.0,64.0
403,73.0,0.0,240.0,0.0,64.0
404,77.0,120.0,120.0,0.0,64.0
405,80.0,120.0,120.0,0.0,64.0
406,73.0,120.0,120.0,0.0,64.0
407,58.0,0.0,480.0,0.0,64.0
408,78.0,120.0,120.0,0.0,64.0
409,82.0,120.0,120.0,0.0,64.0
410,66.0,0.0,240.0,0.0,64.0
411,78.0,120.0,120.0,0.0,64.0
412,85.0,120.0,120.0,0.0,64.0
413,70.0,120.0,240.0,0.0,64.0
414,82.0,0.0,120.0,0.0,64.0
415,78.0,120.0,120.0,0.0,64.0
416,82.0,0.0,120.0,0.0,64.0
417,73.0,120.0,15.0,0.0,64.0
418,54.0,120.0,480.0,0.0,64.0
419,76.0,120.0,120.0,0.0,64.0
420,82.0,120.0,120.0,0.0,64.0
421,66.0,0.0,240.0,0.0,64.0
422,76.0,0.0,120.0,0.0,64.0
423,70.0,120.0,240.0,0.0,64.0
424,85.0,120.0,120.0,0.0,64.0
425,82.0,0.0,120.0,0.0,64.0
426,73.0,120.0,240.0,0.0,64.0
427,76.0,120.0,120.0,0.0,64.0
428,82.0,0.0,120.0,0.0,64.0
429,75.0,120.0,120.0,0.0,64.0
430,59.0,0.0,480.0,0.0,64.0
431,78.0,120.0,120.0,0.0,64.0
432,83.0,120.0,120.0,0.0,64.0
433,66.0,120.0,240.0,0.0,64.0
434,78.0,0.0,120.0,0.0,64.0
435,71.0,0.0,240.0,0.0,64.0
436,87.0,120.0,120.0,0.0,64.0
437,83.0,120.0,120.0,0.0,64.0
438,78.0,120.0,120.0,0.0,64.0
439,83.0,0.0,120.0,0.0,64.0
440,75.0,120.0,15.0,0.0,64.0
441,58.0,0.0,480.0,0.0,64.0
442,78.0,120.0,120.0,0.0,64.0
443,66.0,0.0,240.0,0.0,64.0
444,83.0,120.0,120.0,0.0,64.0
445,78.0,120.0,120.0,0.0,64.0
446,71.0,120.0,240.0,0.0,64.0
447,87.0,120.0,120.0,0.0,64.0
448,83.0,0.0,120.0,0.0,64.0
449,75.0,120.0,240.0,0.0,64.0
450,78.0,120.0,120.0,0.0,64.0
451,83.0,0.0,120.0,0.0,64.0
452,76.0,120.0,120.0,0.0,64.0
453,56.0,120.0,480.0,0.0,64.0
454,80.0,120.0,120.0,0.0,64.0
455,64.0,0.0,240.0,0.0,64.0
456,83.0,120.0,120.0,0.0,64.0
457,80.0,0.0,120.0,0.0,64.0
458,87.0,120.0,120.0,0.0,64.0
459,71.0,0.0,240.0,0.0,64.0
460,83.0,120.0,120.0,0.0,64.0
461,80.0,120.0,120.0,0.0,64.0
462,75.0,120.0,240.0,0.0,64.0
463,83.0,0.0,120.0,0.0,64.0
464,52.0,0.0,480.0,0.0,64.0
465,76.0,120.0,120.0,0.0,64.0
466,80.0,120.0,120.0,0.0,64.0
467,68.0,0.0,240.0,0.0,64.0
468,83.0,120.0,120.0,0.0,64.0
469,80.0,120.0,120.0,0.0,64.0
470,71.0,0.0,240.0,0.0,64.0
471,87.0,120.0,120.0,0.0,64.0
472,83.0,120.0,120.0,0.0,64.0
473,80.0,120.0,120.0,0.0,64.0
474,75.0,0.0,240.0,0.0,64.0
475,83.0,120.0,120.0,0.0,64.0
476,58.0,0.0,480.0,0.0,64.0
477,73.0,120.0,120.0,0.0,64.0
478,76.0,120.0,120.0,0.0,64.0
479,80.0,120.0,120.0,0.0,64.0
480,64.0,0.0,240.0,0.0,64.0
481,76.0,120.0,120.0,0.0,64.0
482,85.0,120.0,120.0,0.0,64.0
483,68.0,120.0,240.0,0.0,64.0
484,80.0,0.0,120.0,0.0,64.0
485,73.0,120.0,240.0,0.0,64.0
486,76.0,120.0,120.0,0.0,64.0
487,80.0,0.0,120.0,0.0,64.0
488,56.0,120.0,480.0,0.0,64.0
489,73.0,120.0,120.0,0.0,64.0
490,76.0,120.0,120.0,0.0,64.0
491,64.0,0.0,240.0,0.0,64.0
492,80.0,120.0,120.0,0.0,64.0
493,76.0,0.0,120.0,0.0,64.0
494,68.0,0.0,240.0,0.0,64.0
495,85.0,120.0,120.0,0.0,64.0
496,80.0,120.0,120.0,0.0,64.0
497,76.0,120.0,120.0,0.0,64.0
498,73.0,0.0,240.0,0.0,64.0
499,80.0,120.0,120.0,0.0,64.0
500,75.0,120.0,120.0,0.0,64.0
501,55.0,120.0,480.0,0.0,64.0
502,79.0,120.0,120.0,0.0,64.0
503,82.0,120.0,120.0,0.0,64.0
504,63.0,0.0,240.0,0.0,64.0
505,79.0,0.0,120.0,0.0,64.0
506,70.0,120.0,240.0,0.0,64.0
507,85.0,120.0,120.0,0.0,64.0
508,82.0,0.0,120.0,0.0,64.0
509,73.0,0.0,240.0,0.0,64.0
510,79.0,120.0,120.0,0.0,64.0
511,82.0,120.0,120.0,0.0,64.0
512,51.0,0.0,480.0,0.0,64.0
513,75.0,120.0,120.0,0.0,64.0
514,79.0,120.0,120.0,0.0,64.0
515,82.0,120.0,120.0,0.0,64.0
516,67.0,120.0,240.0,0.0,64.0
517,79.0,0.0,120.0,0.0,64.0
518,70.0,120.0,240.0,0.0,64.0
519,85.0,120.0,120.0,0.0,64.0
520,82.0,0.0,120.0,0.0,64.0
521,75.0,0.0,240.0,0.0,64.0
522,79.0,120.0,120.0,0.0,64.0
523,82.0,120.0,120.0,0.0,64.0
524,56.0,0.0,480.0,0.0,64.0
525,75.0,120.0,120.0,0.0,64.0
526,79.0,120.0,120.0,0.0,64.0
527,63.0,0.0,240.0,0.0,64.0
528,80.0,120.0,120.0,0.0,64.0
529,79.0,120.0,120.0,0.0,64.0
530,83.0,120.0,120.0,0.0,64.0
531,68.0,0.0,240.0,0.0,64.0
532,80.0,120.0,120.0,0.0,64.0
533,71.0,0.0,240.0,0.0,64.0
534,79.0,120.0,120.0,0.0,64.0
535,80.0,120.0,120.0,0.0,64.0
536,59.0,0.0,480.0,0.0,64.0
537,75.0,120.0,120.0,0.0,64.0
538,79.0,120.0,120.0,0.0,64.0
539,80.0,120.0,120.0,0.0,64.0
540,63.0,0.0,240.0,0.0,64.0
541,79.0,120.0,120.0,0.0,64.0
542,68.0,120.0,240.0,0.0,64.0
543,83.0,120.0,120.0,0.0,64.0
544,80.0,0.0,120.0,0.0,64.0
545,79.0,120.0,120.0,0.0,64.0
546,71.0,120.0,240.0,0.0,64.0
547,80.0,0.0,120.0,0.0,64.0
548,63.0,0.0,480.0,0.0,64.0
549,75.0,120.0,120.0,0.0,64.0
550,79.0,120.0,120.0,0.0,64.0
551,70.0,0.0,240.0,0.0,64.0
552,80.0,120.0,120.0,0.0,64.0
553,79.0,120.0,120.0,0.0,64.0
554,73.0,120.0,240.0,0.0,64.0
555,82.0,120.0,120.0,0.0,64.0
556,80.0,0.0,120.0,0.0,64.0
557,79.0,120.0,120.0,0.0,64.0
558,76.0,0.0,240.0,0.0,64.0
559,80.0,120.0,120.0,0.0,64.0
560,73.0,120.0,120.0,0.0,64.0
561,51.0,120.0,480.0,0.0,64.0
562,79.0,120.0,120.0,0.0,64.0
563,75.0,0.0,240.0,0.0,64.0
564,80.0,120.0,120.0,0.0,64.0
565,79.0,0.0,120.0,0.0,64.0
566,73.0,0.0,240.0,0.0,64.0
567,82.0,120.0,120.0,0.0,64.0
568,80.0,120.0,120.0,0.0,64.0
569,70.0,0.0,240.0,0.0,64.0
570,79.0,120.0,120.0,0.0,64.0
571,80.0,120.0,120.0,0.0,64.0
572,56.0,0.0,480.0,0.0,64.0
573,71.0,120.0,120.0,0.0,64.0
574,68.0,0.0,240.0,0.0,64.0
575,73.0,120.0,120.0,0.0,64.0
576,75.0,120.0,120.0,0.0,64.0
577,73.0,120.0,120.0,0.0,64.0
578,76.0,120.0,120.0,0.0,64.0
579,54.0,120.0,480.0,0.0,64.0
580,75.0,120.0,120.0,0.0,64.0
581,73.0,120.0,120.0,0.0,64.0
582,80.0,0.0,15.0,0.0,64.0
583,72.0,0.0,120.0,0.0,64.0
584,73.0,120.0,120.0,0.0,64.0
585,52.0,120.0,480.0,0.0,64.0
586,71.0,120.0,120.0,0.0,64.0
587,70.0,0.0,120.0,0.0,64.0
588,78.0,120.0,120.0,0.0,64.0
589,68.0,0.0,120.0,0.0,64.0
590,76.0,0.0,120.0,0.0,64.0
591,75.0,120.0,120.0,0.0,64.0
592,47.0,120.0,480.0,0.0,64.0
593,80.0,120.0,120.0,0.0,64.0
594,73.0,120.0,120.0,0.0,64.0
595,80.0,0.0,120.0,0.0,64.0
596,71.0,120.0,120.0,0.0,64.0
597,49.0,120.0,480.0,0.0,64.0
598,75.0,120.0,120.0,0.0,64.0
599,80.0,0.0,240.0,0.0,64.0
600,78.0,120.0,120.0,0.0,64.0
601,76.0,0.0,120.0,0.0,64.0
602,75.0,120.0,120.0,0.0,64.0
603,70.0,120.0,240.0,0.0,64.0
604,51.0,0.0,480.0,0.0,64.0
605,73.0,0.0,120.0,0.0,64.0
606,71.0,120.0,120.0,0.0,64.0
607,79.0,0.0,240.0,0.0,64.0
608,70.0,120.0,120.0,0.0,64.0
609,71.0,0.0,240.0,0.0,64.0
610,44.0,120.0,240.0,0.0,64.0
611,68.0,120.0,120.0,0.0,64.0
612,67.0,0.0,120.0,0.0,64.0
613,56.0,0.0,240.0,0.0,64.0
614,68.0,120.0,120.0,0.0,64.0
615,70.0,0.0,120.0,0.0,64.0
616,71.0,120.0,120.0,0.0,64.0
617,54.0,0.0,240.0,0.0,64.0
618,73.0,120.0,120.0,0.0,64.0
619,52.0,120.0,240.0,0.0,64.0
620,75.0,120.0,120.0,0.0,64.0
621,76.0,0.0,120.0,0.0,64.0
622,51.0,120.0,240.0,0.0,64.0
623,78.0,120.0,120.0,0.0,64.0
624,80.0,0.0,120.0,0.0,64.0
625,81.0,120.0,120.0,0.0,64.0
626,54.0,120.0,240.0,0.0,64.0
627,80.0,0.0,120.0,0.0,64.0
628,51.0,0.0,240.0,0.0,64.0
629,83.0,120.0,120.0,0.0,64.0
630,81.0,0.0,120.0,0.0,64.0
631,71.0,120.0,15.0,0.0,64.0
632,80.0,120.0,120.0,0.0,64.0
633,47.0,120.0,240.0,0.0,64.0
634,78.0,0.0,120.0,0.0,64.0
635,81.0,120.0,120.0,0.0,64.0
636,52.0,0.0,240.0,0.0,64.0
637,80.0,120.0,120.0,0.0,64.0
638,70.0,0.0,120.0,0.0,64.0
639,78.0,120.0,120.0,0.0,64.0
640,49.0,0.0,240.0,0.0,64.0
641,76.0,120.0,120.0,0.0,64.0
642,68.0,0.0,120.0,0.0,64.0
643,51.0,0.0,240.0,0.0,64.0
644,66.0,120.0,120.0,0.0,64.0
645,83.0,0.0,720.0,0.0,64.0
646,71.0,120.0,120.0,0.0,64.0
647,56.0,120.0,240.0,0.0,64.0
648,64.0,120.0,120.0,0.0,64.0
649,71.0,0.0,120.0,0.0,64.0
650,63.0,120.0,120.0,0.0,64.0
651,54.0,0.0,240.0,0.0,64.0
652,66.0,120.0,120.0,0.0,64.0
653,82.0,120.0,120.0,0.0,64.0
654,52.0,0.0,240.0,0.0,64.0
655,71.0,120.0,240.0,0.0,64.0
656,80.0,0.0,120.0,0.0,64.0
657,54.0,120.0,240.0,0.0,64.0
658,61.0,0.0,240.0,0.0,64.0
659,78.0,120.0,120.0,0.0,64.0
660,76.0,0.0,120.0,0.0,64.0
661,75.0,120.0,120.0,0.0,64.0
662,70.0,120.0,240.0,0.0,64.0
663,42.0,0.0,240.0,0.0,64.0
664,73.0,0.0,120.0,0.0,64.0
665,47.0,0.0,240.0,0.0,64.0
666,75.0,120.0,240.0,0.0,64.0
667,59.0,120.0,120.0,0.0,64.0
668,63.0,0.0,120.0,0.0,64.0
669,46.0,0.0,240.0,0.0,64.0
670,71.0,0.0,240.0,0.0,64.0
671,65.0,120.0,120.0,0.0,64.0
672,66.0,120.0,120.0,0.0,64.0
673,47.0,0.0,240.0,0.0,64.0
674,68.0,120.0,120.0,0.0,64.0
675,70.0,120.0,120.0,0.0,64.0
676,44.0,0.0,240.0,0.0,64.0
677,71.0,120.0,480.0,0.0,64.0
678,80.0,120.0,120.0,0.0,64.0
679,77.0,240.0,120.0,0.0,64.0
680,73.0,0.0,240.0,0.0,64.0
681,53.0,0.0,480.0,0.0,64.0
682,68.0,120.0,120.0,0.0,64.0
683,73.0,0.0,240.0,0.0,64.0
684,65.0,240.0,120.0,0.0,64.0
685,61.0,120.0,240.0,0.0,64.0
686,73.0,0.0,240.0,0.0,64.0
687,82.0,120.0,120.0,0.0,64.0
688,49.0,0.0,240.0,0.0,64.0
689,78.0,0.0,120.0,0.0,64.0
690,61.0,240.0,15.0,0.0,64.0
691,58.0,0.0,480.0,0.0,64.0
692,73.0,0.0,240.0,0.0,64.0
693,70.0,120.0,120.0,0.0,64.0
694,66.0,240.0,120.0,0.0,64.0
695,73.0,0.0,15.0,0.0,64.0
696,61.0,0.0,240.0,0.0,64.0
697,49.0,240.0,240.0,0.0,64.0
698,83.0,120.0,120.0,0.0,64.0
699,80.0,0.0,120.0,0.0,64.0
700,56.0,0.0,240.0,0.0,64.0
701,61.0,0.0,15.0,0.0,64.0
702,54.0,0.0,240.0,0.0,64.0
703,73.0,0.0,15.0,0.0,64.0
704,71.0,120.0,120.0,0.0,64.0
705,68.0,0.0,120.0,0.0,64.0
706,53.0,0.0,240.0,0.0,64.0
707,73.0,0.0,240.0,0.0,64.0
708,61.0,120.0,240.0,0.0,64.0
709,51.0,0.0,240.0,0.0,64.0
710,77.0,120.0,120.0,0.0,64.0
711,61.0,240.0,240.0,0.0,64.0
712,80.0,0.0,120.0,0.0,64.0
713,83.0,0.0,240.0,0.0,64.0
714,49.0,120.0,240.0,0.0,64.0
715,61.0,0.0,240.0,0.0,64.0
716,65.0,0.0,120.0,0.0,64.0
717,80.0,120.0,120.0,0.0,64.0
718,59.0,0.0,240.0,0.0,64.0
719,68.0,240.0,120.0,0.0,64.0
720,77.0,0.0,120.0,0.0,64.0
721,71.0,0.0,240.0,0.0,64.0
722,58.0,0.0,240.0,0.0,64.0
723,73.0,120.0,240.0,0.0,64.0
724,56.0,240.0,240.0,0.0,64.0
725,77.0,120.0,120.0,0.0,64.0
726,68.0,0.0,120.0,0.0,64.0
727,65.0,0.0,120.0,0.0,64.0
728,80.0,0.0,120.0,0.0,64.0
729,82.0,240.0,240.0,0.0,64.0
730,61.0,0.0,240.0,0.0,64.0
731,54.0,240.0,480.0,0.0,64.0
732,68.0,0.0,240.0,0.0,64.0
733,83.0,0.0,240.0,0.0,64.0
734,65.0,240.0,240.0,0.0,64.0
735,80.0,0.0,240.0,0.0,64.0
736,82.0,0.0,240.0,0.0,64.0
737,66.0,240.0,240.0,0.0,64.0
738,73.0,120.0,240.0,0.0,64.0
739,53.0,0.0,480.0,0.0,64.0
740,58.0,120.0,120.0,0.0,64.0
741,56.0,120.0,120.0,0.0,64.0
742,59.0,120.0,120.0,0.0,64.0
743,73.0,0.0,15.0,0.0,64.0
744,58.0,0.0,120.0,0.0,64.0
745,56.0,120.0,120.0,0.0,64.0
746,82.0,240.0,240.0,0.0,64.0
747,54.0,0.0,120.0,0.0,64.0
748,51.0,0.0,480.0,0.0,64.0
749,71.0,0.0,240.0,0.0,64.0
750,66.0,240.0,240.0,0.0,64.0
751,83.0,0.0,240.0,0.0,64.0
752,56.0,240.0,240.0,0.0,64.0
753,53.0,240.0,240.0,0.0,64.0
754,80.0,0.0,240.0,0.0,64.0
755,82.0,0.0,240.0,0.0,64.0
756,54.0,240.0,240.0,0.0,64.0
757,49.0,120.0,480.0,0.0,64.0
758,64.0,120.0,240.0,0.0,64.0
759,70.0,120.0,120.0,0.0,64.0
760,64.0,0.0,240.0,0.0,64.0
761,68.0,0.0,120.0,0.0,64.0
762,64.0,120.0,240.0,0.0,64.0
763,71.0,120.0,120.0,0.0,64.0
764,70.0,0.0,120.0,0.0,64.0
765,68.0,120.0,120.0,0.0,64.0
766,58.0,0.0,240.0,0.0,64.0
767,66.0,240.0,120.0,0.0,64.0
768,63.0,240.0,240.0,0.0,64.0
769,78.0,0.0,240.0,0.0,64.0
770,47.0,240.0,480.0,0.0,64.0
771,83.0,0.0,240.0,0.0,64.0
772,68.0,0.0,240.0,0.0,64.0
773,65.0,240.0,240.0,0.0,64.0
774,80.0,0.0,240.0,0.0,64.0
775,82.0,240.0,240.0,0.0,64.0
776,66.0,0.0,240.0,0.0,64.0
777,56.0,120.0,240.0,0.0,64.0
778,77.0,0.0,240.0,0.0,64.0
779,73.0,0.0,240.0,0.0,64.0
780,58.0,120.0,120.0,0.0,64.0
781,59.0,0.0,120.0,0.0,64.0
782,58.0,0.0,240.0,0.0,64.0
783,78.0,120.0,600.0,0.0,64.0
784,61.0,240.0,240.0,0.0,64.0
785,59.0,0.0,240.0,0.0,64.0
786,58.0,0.0,480.0,0.0,64.0
787,61.0,120.0,480.0,0.0,64.0
788,82.0,240.0,120.0,0.0,64.0
789,85.0,0.0,240.0,0.0,64.0
790,49.0,0.0,480.0,0.0,64.0
791,56.0,0.0,480.0,0.0,64.0
792,77.0,120.0,120.0,0.0,64.0
793,80.0,240.0,120.0,0.0,64.0
794,83.0,240.0,240.0,0.0,64.0
795,82.0,120.0,240.0,0.0,64.0
796,54.0,0.0,240.0,0.0,64.0
797,53.0,0.0,240.0,0.0,64.0
798,85.0,120.0,120.0,0.0,64.0
799,83.0,0.0,120.0,0.0,64.0
800,54.0,120.0,15.0,0.0,64.0
801,82.0,120.0,120.0,0.0,64.0
802,80.0,0.0,120.0,0.0,64.0
803,56.0,0.0,240.0,0.0,64.0
804,78.0,120.0,120.0,0.0,64.0
805,77.0,120.0,120.0,0.0,64.0
806,58.0,120.0,120.0,0.0,64.0
807,59.0,120.0,120.0,0.0,64.0
808,56.0,120.0,120.0,0.0,64.0
809,58.0,0.0,120.0,0.0,64.0
810,78.0,120.0,15.0,0.0,64.0
811,54.0,120.0,120.0,0.0,64.0
812,56.0,120.0,120.0,0.0,64.0
813,53.0,120.0,120.0,0.0,64.0
814,54.0,0.0,120.0,0.0,64.0
815,51.0,120.0,240.0,0.0,64.0
816,78.0,240.0,15.0,0.0,64.0
817,77.0,120.0,120.0,0.0,64.0
818,59.0,0.0,240.0,0.0,64.0
819,75.0,120.0,120.0,0.0,64.0
820,53.0,0.0,240.0,0.0,64.0
821,73.0,120.0,120.0,0.0,64.0
822,71.0,120.0,120.0,0.0,64.0
823,61.0,0.0,240.0,0.0,64.0
824,70.0,120.0,120.0,0.0,64.0
825,68.0,120.0,120.0,0.0,64.0
826,54.0,0.0,240.0,0.0,64.0
827,70.0,120.0,120.0,0.0,64.0
828,73.0,120.0,120.0,0.0,64.0
829,58.0,120.0,120.0,0.0,64.0
830,78.0,0.0,240.0,0.0,64.0
831,54.0,0.0,120.0,0.0,64.0
832,61.0,120.0,120.0,0.0,64.0
833,73.0,120.0,15.0,0.0,64.0
834,68.0,0.0,240.0,0.0,64.0
835,58.0,120.0,120.0,0.0,64.0
836,77.0,240.0,240.0,0.0,64.0
837,59.0,120.0,120.0,0.0,64.0
838,56.0,0.0,120.0,0.0,64.0
839,58.0,120.0,240.0,0.0,64.0
840,66.0,0.0,240.0,0.0,64.0
841,73.0,0.0,240.0,0.0,64.0
842,71.0,120.0,120.0,0.0,64.0
843,54.0,0.0,240.0,0.0,64.0
844,70.0,120.0,120.0,0.0,64.0
845,68.0,120.0,120.0,0.0,64.0
846,60.0,0.0,240.0,0.0,64.0
847,66.0,120.0,120.0,0.0,64.0
848,56.0,0.0,240.0,0.0,64.0
849,64.0,120.0,120.0,0.0,64.0
850,63.0,120.0,120.0,0.0,64.0
851,61.0,120.0,120.0,0.0,64.0
852,80.0,0.0,480.0,0.0,64.0
853,64.0,0.0,120.0,0.0,64.0
854,68.0,120.0,120.0,0.0,64.0
855,49.0,0.0,120.0,0.0,64.0
856,52.0,120.0,120.0,0.0,64.0
857,73.0,0.0,240.0,0.0,64.0
858,49.0,120.0,120.0,0.0,64.0
859,63.0,120.0,240.0,0.0,64.0
860,56.0,120.0,120.0,0.0,64.0
861,52.0,0.0,120.0,0.0,64.0
862,54.0,120.0,120.0,0.0,64.0
863,72.0,0.0,240.0,0.0,64.0
864,51.0,0.0,120.0,0.0,64.0
865,52.0,0.0,240.0,0.0,64.0
866,80.0,240.0,15.0,0.0,64.0
867,61.0,120.0,240.0,0.0,64.0
868,49.0,0.0,240.0,0.0,64.0
869,78.0,120.0,120.0,0.0,64.0
870,76.0,120.0,120.0,0.0,64.0
871,75.0,120.0,120.0,0.0,64.0
872,55.0,120.0,240.0,0.0,64.0
873,73.0,0.0,120.0,0.0,64.0
874,71.0,120.0,120.0,0.0,64.0
875,51.0,120.0,240.0,0.0,64.0
876,70.0,0.0,120.0,0.0,64.0
877,71.0,120.0,120.0,0.0,64.0
878,56.0,120.0,240.0,0.0,64.0
879,75.0,0.0,120.0,0.0,64.0
880,59.0,120.0,120.0,0.0,64.0
881,80.0,0.0,240.0,0.0,64.0
882,56.0,120.0,120.0,0.0,64.0
883,70.0,0.0,240.0,0.0,64.0
884,63.0,120.0,120.0,0.0,64.0
885,59.0,120.0,120.0,0.0,64.0
886,79.0,0.0,240.0,0.0,64.0
887,61.0,120.0,120.0,0.0,64.0
888,58.0,240.0,120.0,0.0,64.0
889,59.0,120.0,240.0,0.0,64.0
890,75.0,0.0,15.0,0.0,64.0
891,68.0,0.0,240.0,0.0,64.0
892,73.0,120.0,120.0,0.0,64.0
893,56.0,0.0,240.0,0.0,64.0
894,71.0,120.0,120.0,0.0,64.0
895,61.0,0.0,720.0,0.0,64.0
896,70.0,120.0,120.0,0.0,64.0
897,71.0,120.0,120.0,0.0,64.0
898,68.0,120.0,120.0,0.0,64.0
899,70.0,120.0,120.0,0.0,64.0
900,87.0,0.0,480.0,0.0,64.0
901,67.0,120.0,120.0,0.0,64.0
902,68.0,120.0,120.0,0.0,64.0
903,70.0,120.0,120.0,0.0,64.0
904,58.0,0.0,240.0,0.0,64.0
905,67.0,120.0,120.0,0.0,64.0
906,59.0,0.0,240.0,0.0,64.0
907,68.0,120.0,120.0,0.0,64.0
908,67.0,120.0,120.0,0.0,64.0
909,56.0,0.0,240.0,0.0,64.0
910,65.0,120.0,120.0,0.0,64.0
911,63.0,0.0,120.0,0.0,64.0
912,68.0,120.0,240.0,0.0,64.0
913,87.0,240.0,15.0,0.0,64.0
914,64.0,0.0,240.0,0.0,64.0
915,52.0,120.0,240.0,0.0,64.0
916,85.0,0.0,120.0,0.0,64.0
917,70.0,120.0,120.0,0.0,64.0
918,83.0,0.0,120.0,0.0,64.0
919,71.0,0.0,120.0,0.0,64.0
920,73.0,120.0,120.0,0.0,64.0
921,82.0,0.0,120.0,0.0,64.0
922,64.0,120.0,720.0,0.0,64.0
923,83.0,0.0,120.0,0.0,64.0
924,75.0,120.0,120.0,0.0,64.0
925,71.0,0.0,120.0,0.0,64.0
926,80.0,120.0,120.0,0.0,64.0
927,82.0,120.0,120.0,0.0,64.0
928,73.0,0.0,120.0,0.0,64.0
929,70.0,0.0,120.0,0.0,64.0
930,79.0,120.0,120.0,0.0,64.0
931,80.0,0.0,120.0,0.0,64.0
932,71.0,0.0,120.0,0.0,64.0
933,73.0,0.0,120.0,0.0,64.0
934,82.0,120.0,120.0,0.0,64.0
935,55.0,0.0,240.0,0.0,64.0
936,76.0,120.0,120.0,0.0,64.0
937,85.0,0.0,120.0,0.0,64.0
938,83.0,120.0,120.0,0.0,64.0
939,75.0,0.0,120.0,0.0,64.0
940,56.0,0.0,240.0,0.0,64.0
941,73.0,120.0,120.0,0.0,64.0
942,82.0,0.0,120.0,0.0,64.0
943,50.0,0.0,240.0,0.0,64.0
944,80.0,0.0,120.0,0.0,64.0
945,71.0,120.0,120.0,0.0,64.0
946,79.0,120.0,120.0,0.0,64.0
947,70.0,0.0,120.0,0.0,64.0
948,71.0,120.0,120.0,0.0,64.0
949,51.0,120.0,240.0,0.0,64.0
950,80.0,0.0,120.0,0.0,64.0
951,79.0,0.0,120.0,0.0,64.0
952,70.0,0.0,120.0,0.0,64.0
953,68.0,0.0,120.0,0.0,64.0
954,77.0,120.0,120.0,0.0,64.0
955,61.0,0.0,240.0,0.0,64.0
956,75.0,120.0,120.0,0.0,64.0
957,67.0,0.0,120.0,0.0,64.0
958,59.0,0.0,240.0,0.0,64.0
959,68.0,0.0,120.0,0.0,64.0
960,77.0,120.0,120.0,0.0,64.0
961,79.0,0.0,120.0,0.0,64.0
962,70.0,120.0,120.0,0.0,64.0
963,80.0,0.0,120.0,0.0,64.0
964,71.0,120.0,120.0,0.0,64.0
965,58.0,0.0,240.0,0.0,64.0
966,82.0,0.0,120.0,0.0,64.0
967,73.0,120.0,120.0,0.0,64.0
968,56.0,0.0,480.0,0.0,64.0
969,83.0,120.0,240.0,0.0,64.0
970,75.0,120.0,120.0,0.0,64.0
971,71.0,0.0,120.0,0.0,64.0
972,68.0,120.0,120.0,0.0,64.0
973,87.0,0.0,240.0,0.0,64.0
974,71.0,120.0,120.0,0.0,64.0
975,63.0,120.0,120.0,0.0,64.0
976,83.0,0.0,240.0,0.0,64.0
977,68.0,120.0,120.0,0.0,64.0
978,80.0,120.0,240.0,0.0,64.0
979,71.0,120.0,120.0,0.0,64.0
980,68.0,0.0,120.0,0.0,64.0
981,54.0,0.0,480.0,0.0,64.0
982,75.0,120.0,120.0,0.0,64.0
983,71.0,120.0,120.0,0.0,64.0
984,83.0,120.0,240.0,0.0,64.0
985,68.0,120.0,120.0,0.0,64.0
986,71.0,0.0,120.0,0.0,64.0
987,63.0,120.0,120.0,0.0,64.0
988,80.0,120.0,240.0,0.0,64.0
989,68.0,0.0,120.0,0.0,64.0
990,71.0,120.0,120.0,0.0,64.0
991,75.0,0.0,240.0,0.0,64.0
992,68.0,120.0,120.0,0.0,64.0
993,73.0,120.0,120.0,0.0,64.0
994,53.0,0.0,480.0,0.0,64.0
995,68.0,120.0,120.0,0.0,64.0
996,80.0,120.0,240.0,0.0,64.0
997,65.0,120.0,120.0,0.0,64.0
998,68.0,0.0,120.0,0.0,64.0
999,61.0,120.0,120.0,0.0,64.0
1000,77.0,120.0,240.0,0.0,64.0
1001,65.0,0.0,120.0,0.0,64.0
1002,73.0,0.0,240.0,0.0,64.0
1003,68.0,120.0,120.0,0.0,64.0
1004,65.0,120.0,120.0,0.0,64.0
1005,49.0,0.0,480.0,0.0,64.0
1006,73.0,120.0,120.0,0.0,64.0
1007,68.0,120.0,120.0,0.0,64.0
1008,85.0,120.0,240.0,0.0,64.0
1009,65.0,120.0,120.0,0.0,64.0
1010,68.0,0.0,120.0,0.0,64.0
1011,61.0,120.0,120.0,0.0,64.0
1012,80.0,120.0,240.0,0.0,64.0
1013,65.0,0.0,120.0,0.0,64.0
1014,68.0,120.0,120.0,0.0,64.0
1015,77.0,0.0,240.0,0.0,64.0
1016,65.0,120.0,120.0,0.0,64.0
1017,73.0,120.0,120.0,0.0,64.0
1018,54.0,120.0,480.0,0.0,64.0
1019,70.0,120.0,120.0,0.0,64.0
1020,66.0,120.0,120.0,0.0,64.0
1021,85.0,0.0,240.0,0.0,64.0
1022,70.0,0.0,120.0,0.0,64.0
1023,61.0,120.0,120.0,0.0,64.0
1024,82.0,0.0,240.0,0.0,64.0
1025,66.0,120.0,120.0,0.0,64.0
1026,78.0,120.0,240.0,0.0,64.0
1027,70.0,120.0,120.0,0.0,64.0
1028,66.0,0.0,120.0,0.0,64.0
1029,53.0,0.0,480.0,0.0,64.0
1030,73.0,120.0,120.0,0.0,64.0
1031,70.0,120.0,120.0,0.0,64.0
1032,66.0,120.0,120.0,0.0,64.0
1033,82.0,120.0,240.0,0.0,64.0
1034,70.0,0.0,120.0,0.0,64.0
1035,61.0,120.0,120.0,0.0,64.0
1036,78.0,0.0,240.0,0.0,64.0
1037,66.0,120.0,120.0,0.0,64.0
1038,73.0,120.0,240.0,0.0,64.0
1039,70.0,120.0,120.0,0.0,64.0
1040,66.0,0.0,120.0,0.0,64.0
1041,51.0,120.0,480.0,0.0,64.0
1042,71.0,120.0,120.0,0.0,64.0
1043,66.0,120.0,120.0,0.0,64.0
1044,78.0,0.0,240.0,0.0,64.0
1045,63.0,120.0,120.0,0.0,64.0
1046,66.0,0.0,120.0,0.0,64.0
1047,75.0,0.0,240.0,0.0,64.0
1048,59.0,120.0,120.0,0.0,64.0
1049,63.0,120.0,120.0,0.0,64.0
1050,71.0,0.0,240.0,0.0,64.0
1051,66.0,120.0,120.0,0.0,64.0
1052,63.0,120.0,120.0,0.0,64.0
1053,47.0,0.0,480.0,0.0,64.0
1054,71.0,120.0,120.0,0.0,64.0
1055,66.0,120.0,120.0,0.0,64.0
1056,83.0,0.0,240.0,0.0,64.0
1057,63.0,120.0,120.0,0.0,64.0
1058,66.0,120.0,120.0,0.0,64.0
1059,78.0,120.0,240.0,0.0,64.0
1060,59.0,120.0,120.0,0.0,64.0
1061,63.0,0.0,120.0,0.0,64.0
1062,75.0,0.0,240.0,0.0,64.0
1063,66.0,120.0,120.0,0.0,64.0
1064,63.0,120.0,120.0,0.0,64.0
1065,53.0,0.0,480.0,0.0,64.0
1066,71.0,120.0,120.0,0.0,64.0
1067,68.0,120.0,120.0,0.0,64.0
1068,83.0,120.0,240.0,0.0,64.0
1069,63.0,120.0,120.0,0.0,64.0
1070,68.0,0.0,120.0,0.0,64.0
1071,59.0,120.0,120.0,0.0,64.0
1072,80.0,120.0,240.0,0.0,64.0
1073,63.0,0.0,120.0,0.0,64.0
1074,77.0,120.0,240.0,0.0,64.0
1075,68.0,120.0,120.0,0.0,64.0
1076,63.0,0.0,120.0,0.0,64.0
1077,71.0,120.0,120.0,0.0,64.0
1078,51.0,120.0,480.0,0.0,64.0
1079,68.0,120.0,120.0,0.0,64.0
1080,80.0,0.0,240.0,0.0,64.0
1081,65.0,120.0,120.0,0.0,64.0
1082,68.0,0.0,120.0,0.0,64.0
1083,59.0,120.0,120.0,0.0,64.0
1084,77.0,0.0,240.0,0.0,64.0
1085,65.0,120.0,120.0,0.0,64.0
1086,68.0,120.0,120.0,0.0,64.0
1087,71.0,0.0,240.0,0.0,64.0
1088,65.0,120.0,120.0,0.0,64.0
1089,50.0,0.0,480.0,0.0,64.0
1090,70.0,120.0,120.0,0.0,64.0
1091,68.0,120.0,120.0,0.0,64.0
1092,80.0,120.0,240.0,0.0,64.0
1093,65.0,120.0,120.0,0.0,64.0
1094,68.0,0.0,120.0,0.0,64.0
1095,62.0,120.0,120.0,0.0,64.0
1096,77.0,120.0,240.0,0.0,64.0
1097,65.0,0.0,120.0,0.0,64.0
1098,68.0,120.0,120.0,0.0,64.0
1099,70.0,0.0,240.0,0.0,64.0
1100,65.0,120.0,120.0,0.0,64.0
1101,70.0,120.0,120.0,0.0,64.0
1102,46.0,120.0,480.0,0.0,64.0
1103,68.0,120.0,120.0,0.0,64.0
1104,80.0,0.0,240.0,0.0,64.0
1105,65.0,120.0,120.0,0.0,64.0
1106,68.0,0.0,120.0,0.0,64.0
1107,62.0,120.0,120.0,0.0,64.0
1108,77.0,0.0,240.0,0.0,64.0
1109,65.0,120.0,120.0,0.0,64.0
1110,74.0,0.0,240.0,0.0,64.0
1111,68.0,120.0,120.0,0.0,64.0
1112,63.0,120.0,120.0,0.0,64.0
1113,51.0,0.0,480.0,0.0,64.0
1114,70.0,120.0,120.0,0.0,64.0
1115,66.0,120.0,120.0,0.0,64.0
1116,63.0,120.0,120.0,0.0,64.0
1117,78.0,0.0,240.0,0.0,64.0
1118,66.0,120.0,120.0,0.0,64.0
1119,75.0,0.0,240.0,0.0,64.0
1120,58.0,120.0,120.0,0.0,64.0
1121,63.0,120.0,120.0,0.0,64.0
1122,66.0,120.0,120.0,0.0,64.0
1123,63.0,0.0,120.0,0.0,64.0
1124,54.0,0.0,480.0,0.0,64.0
1125,70.0,120.0,15.0,0.0,64.0
1126,66.0,120.0,120.0,0.0,64.0
1127,82.0,0.0,240.0,0.0,64.0
1128,63.0,120.0,120.0,0.0,64.0
1129,66.0,120.0,120.0,0.0,64.0
1130,78.0,120.0,240.0,0.0,64.0
1131,58.0,120.0,120.0,0.0,64.0
1132,63.0,0.0,120.0,0.0,64.0
1133,66.0,120.0,120.0,0.0,64.0
1134,75.0,0.0,240.0,0.0,64.0
1135,63.0,120.0,120.0,0.0,64.0
1136,58.0,0.0,480.0,0.0,64.0
1137,70.0,120.0,120.0,0.0,64.0
1138,65.0,120.0,120.0,0.0,64.0
1139,63.0,120.0,120.0,0.0,64.0
1140,80.0,0.0,240.0,0.0,64.0
1141,65.0,120.0,120.0,0.0,64.0
1142,77.0,120.0,240.0,0.0,64.0
1143,58.0,120.0,120.0,0.0,64.0
1144,63.0,0.0,120.0,0.0,64.0
1145,65.0,120.0,120.0,0.0,64.0
1146,70.0,0.0,240.0,0.0,64.0
1147,63.0,120.0,120.0,0.0,64.0
1148,46.0,0.0,480.0,0.0,64.0
1149,68.0,120.0,120.0,0.0,64.0
1150,65.0,120.0,120.0,0.0,64.0
1151,77.0,0.0,240.0,0.0,64.0
1152,62.0,120.0,120.0,0.0,64.0
1153,65.0,120.0,120.0,0.0,64.0
1154,58.0,120.0,120.0,0.0,64.0
1155,74.0,120.0,240.0,0.0,64.0
1156,62.0,0.0,120.0,0.0,64.0
1157,65.0,120.0,120.0,0.0,64.0
1158,70.0,0.0,240.0,0.0,64.0
1159,62.0,120.0,120.0,0.0,64.0
1160,63.0,0.0,240.0,0.0,64.0
1161,78.0,120.0,120.0,0.0,64.0
1162,51.0,120.0,480.0,0.0,64.0
1163,75.0,120.0,120.0,0.0,64.0
1164,66.0,120.0,120.0,0.0,64.0
1165,82.0,120.0,360.0,0.0,64.0
1166,70.0,0.0,120.0,0.0,64.0
1167,49.0,0.0,480.0,0.0,64.0
1168,75.0,0.0,120.0,0.0,64.0
1169,70.0,0.0,120.0,0.0,64.0
1170,80.0,120.0,120.0,0.0,64.0
1171,75.0,0.0,480.0,0.0,64.0
1172,78.0,120.0,120.0,0.0,64.0
1173,77.0,120.0,120.0,0.0,64.0
1174,80.0,120.0,120.0,0.0,64.0
1175,47.0,0.0,480.0,0.0,64.0
1176,78.0,120.0,120.0,0.0,64.0
1177,73.0,120.0,120.0,0.0,64.0
1178,77.0,0.0,120.0,0.0,64.0
1179,71.0,0.0,120.0,0.0,64.0
1180,75.0,120.0,120.0,0.0,64.0
1181,70.0,120.0,120.0,0.0,64.0
1182,87.0,120.0,720.0,0.0,64.0
1183,42.0,120.0,480.0,0.0,64.0
1184,75.0,120.0,120.0,0.0,64.0
1185,68.0,120.0,120.0,0.0,64.0
1186,75.0,0.0,120.0,0.0,64.0
1187,44.0,0.0,480.0,0.0,64.0
1188,66.0,120.0,120.0,0.0,64.0
1189,70.0,0.0,120.0,0.0,64.0
1190,85.0,120.0,120.0,0.0,64.0
1191,75.0,0.0,240.0,0.0,64.0
1192,83.0,120.0,120.0,0.0,64.0
1193,65.0,0.0,240.0,0.0,64.0
1194,82.0,120.0,120.0,0.0,64.0
1195,46.0,0.0,480.0,0.0,64.0
1196,80.0,120.0,120.0,0.0,64.0
1197,74.0,0.0,240.0,0.0,64.0
1198,78.0,120.0,120.0,0.0,64.0
1199,77.0,120.0,120.0,0.0,64.0
1200,51.0,120.0,240.0,0.0,64.0
1201,63.0,120.0,120.0,0.0,64.0
1202,78.0,0.0,240.0,0.0,64.0
1203,62.0,0.0,120.0,0.0,64.0
1204,75.0,0.0,240.0,0.0,64.0
1205,63.0,120.0,120.0,0.0,64.0
1206,65.0,120.0,120.0,0.0,64.0
1207,61.0,120.0,240.0,0.0,64.0
1208,66.0,120.0,120.0,0.0,64.0
1209,68.0,0.0,120.0,0.0,64.0
1210,59.0,120.0,240.0,0.0,64.0
1211,70.0,120.0,120.0,0.0,64.0
1212,71.0,0.0,120.0,0.0,64.0
1213,58.0,0.0,240.0,0.0,64.0
1214,73.0,120.0,120.0,0.0,64.0
1215,75.0,120.0,120.0,0.0,64.0
1216,61.0,0.0,240.0,0.0,64.0
1217,76.0,0.0,120.0,0.0,64.0
1218,70.0,120.0,120.0,0.0,64.0
1219,75.0,0.0,120.0,0.0,64.0
1220,66.0,120.0,120.0,0.0,64.0
1221,58.0,0.0,240.0,0.0,64.0
1222,78.0,0.0,120.0,0.0,64.0
1223,73.0,120.0,120.0,0.0,64.0
1224,76.0,0.0,120.0,0.0,64.0
1225,70.0,120.0,120.0,0.0,64.0
1226,54.0,0.0,240.0,0.0,64.0
1227,75.0,120.0,120.0,0.0,64.0
1228,78.0,0.0,480.0,0.0,64.0
1229,73.0,120.0,120.0,0.0,64.0
1230,76.0,120.0,120.0,0.0,64.0
1231,59.0,0.0,240.0,0.0,64.0
1232,75.0,120.0,120.0,0.0,64.0
1233,56.0,0.0,240.0,0.0,64.0
1234,77.0,120.0,120.0,0.0,64.0
1235,73.0,0.0,120.0,0.0,64.0
1236,71.0,0.0,120.0,0.0,64.0
1237,75.0,120.0,120.0,0.0,64.0
1238,58.0,0.0,240.0,0.0,64.0
1239,73.0,120.0,120.0,0.0,64.0
1240,78.0,120.0,120.0,0.0,64.0
1241,71.0,120.0,120.0,0.0,64.0
1242,63.0,0.0,240.0,0.0,64.0
1243,78.0,120.0,120.0,0.0,64.0
1244,61.0,120.0,240.0,0.0,64.0
1245,70.0,120.0,120.0,0.0,64.0
1246,73.0,0.0,120.0,0.0,64.0
1247,59.0,120.0,240.0,0.0,64.0
1248,77.0,120.0,120.0,0.0,64.0
1249,78.0,0.0,240.0,0.0,64.0
1250,75.0,0.0,120.0,0.0,64.0
1251,68.0,120.0,240.0,0.0,64.0
1252,61.0,0.0,240.0,0.0,64.0
1253,73.0,120.0,120.0,0.0,64.0
1254,71.0,0.0,120.0,0.0,64.0
1255,70.0,120.0,120.0,0.0,64.0
1256,49.0,0.0,240.0,0.0,64.0
1257,77.0,0.0,240.0,0.0,64.0
1258,68.0,120.0,120.0,0.0,64.0
1259,54.0,120.0,240.0,0.0,64.0
1260,66.0,120.0,120.0,0.0,64.0
1261,70.0,0.0,240.0,0.0,64.0
1262,65.0,0.0,120.0,0.0,64.0
1263,66.0,120.0,120.0,0.0,64.0
1264,68.0,120.0,120.0,0.0,64.0
1265,70.0,120.0,120.0,0.0,64.0
1266,64.0,120.0,240.0,0.0,64.0
1267,71.0,0.0,120.0,0.0,64.0
1268,63.0,120.0,240.0,0.0,64.0
1269,73.0,120.0,120.0,0.0,64.0
1270,75.0,0.0,120.0,0.0,64.0
1271,61.0,120.0,120.0,0.0,64.0
1272,63.0,120.0,120.0,0.0,64.0
1273,76.0,0.0,15.0,0.0,64.0
1274,59.0,120.0,120.0,0.0,64.0
1275,61.0,120.0,120.0,0.0,64.0
1276,73.0,120.0,720.0,0.0,64.0
1277,76.0,0.0,240.0,0.0,64.0
1278,58.0,120.0,120.0,0.0,64.0
1279,59.0,120.0,120.0,0.0,64.0
1280,56.0,0.0,120.0,0.0,64.0
1281,85.0,120.0,120.0,0.0,64.0
1282,82.0,240.0,120.0,0.0,64.0
1283,58.0,0.0,120.0,0.0,64.0
1284,54.0,120.0,1080.0,0.0,64.0
1285,75.0,0.0,240.0,0.0,64.0
1286,75.0,120.0,120.0,0.0,64.0
1287,73.0,120.0,120.0,0.0,64.0
1288,75.0,0.0,240.0,0.0,64.0
1289,71.0,120.0,120.0,0.0,64.0
1290,73.0,120.0,120.0,0.0,64.0
1291,85.0,0.0,120.0,0.0,64.0
1292,70.0,120.0,120.0,0.0,64.0
1293,82.0,120.0,120.0,0.0,64.0
1294,73.0,0.0,120.0,0.0,64.0
1295,71.0,120.0,240.0,0.0,64.0
1296,75.0,0.0,240.0,0.0,64.0
1297,59.0,0.0,120.0,0.0,64.0
1298,58.0,120.0,120.0,0.0,64.0
1299,75.0,0.0,240.0,0.0,64.0
1300,66.0,120.0,240.0,0.0,64.0
1301,59.0,0.0,120.0,0.0,64.0
1302,56.0,120.0,120.0,0.0,64.0
1303,75.0,120.0,240.0,0.0,64.0
1304,71.0,0.0,720.0,0.0,64.0
1305,58.0,0.0,120.0,0.0,64.0
1306,83.0,0.0,120.0,0.0,64.0
1307,54.0,120.0,120.0,0.0,64.0
1308,56.0,0.0,120.0,0.0,64.0
1309,80.0,240.0,120.0,0.0,64.0
1310,53.0,120.0,1080.0,0.0,64.0
1311,73.0,120.0,15.0,0.0,64.0
1312,73.0,120.0,120.0,0.0,64.0
1313,71.0,0.0,120.0,0.0,64.0
1314,73.0,120.0,15.0,0.0,64.0
1315,70.0,120.0,120.0,0.0,64.0
1316,71.0,120.0,120.0,0.0,64.0
1317,83.0,0.0,120.0,0.0,64.0
1318,68.0,120.0,120.0,0.0,64.0
1319,80.0,120.0,120.0,0.0,64.0
1320,71.0,0.0,120.0,0.0,64.0
1321,73.0,120.0,240.0,0.0,64.0
1322,70.0,0.0,240.0,0.0,64.0
1323,58.0,0.0,120.0,0.0,64.0
1324,56.0,120.0,120.0,0.0,64.0
1325,65.0,0.0,240.0,0.0,64.0
1326,58.0,120.0,120.0,0.0,64.0
1327,70.0,120.0,720.0,0.0,64.0
1328,73.0,0.0,15.0,0.0,64.0
1329,55.0,120.0,120.0,0.0,64.0
1330,56.0,0.0,120.0,0.0,64.0
1331,82.0,120.0,120.0,0.0,64.0
1332,53.0,0.0,120.0,0.0,64.0
1333,79.0,0.0,120.0,0.0,64.0
1334,55.0,240.0,120.0,0.0,64.0
1335,51.0,120.0,1080.0,0.0,64.0
1336,71.0,0.0,15.0,0.0,64.0
1337,71.0,120.0,120.0,0.0,64.0
1338,70.0,120.0,120.0,0.0,64.0
1339,68.0,120.0,120.0,0.0,64.0
1340,71.0,0.0,15.0,0.0,64.0
1341,70.0,0.0,120.0,0.0,64.0
1342,67.0,120.0,120.0,0.0,64.0
1343,82.0,0.0,120.0,0.0,64.0
1344,79.0,0.0,120.0,0.0,64.0
1345,70.0,120.0,120.0,0.0,64.0
1346,71.0,120.0,240.0,0.0,64.0
1347,68.0,0.0,1200.0,0.0,64.0
1348,56.0,0.0,120.0,0.0,64.0
1349,54.0,120.0,120.0,0.0,64.0
1350,72.0,0.0,240.0,0.0,64.0
1351,56.0,120.0,120.0,0.0,64.0
1352,73.0,120.0,240.0,0.0,64.0
1353,52.0,120.0,120.0,0.0,64.0
1354,54.0,0.0,120.0,0.0,64.0
1355,51.0,120.0,120.0,0.0,64.0
1356,75.0,0.0,240.0,0.0,64.0
1357,52.0,120.0,120.0,0.0,64.0
1358,76.0,120.0,240.0,0.0,64.0
1359,49.0,120.0,120.0,0.0,64.0
1360,61.0,0.0,120.0,0.0,64.0
1361,73.0,0.0,240.0,0.0,64.0
1362,59.0,120.0,120.0,0.0,64.0
1363,77.0,120.0,240.0,0.0,64.0
1364,61.0,0.0,120.0,0.0,64.0
1365,78.0,120.0,240.0,0.0,64.0
1366,58.0,120.0,120.0,0.0,64.0
1367,75.0,0.0,240.0,0.0,64.0
1368,59.0,0.0,120.0,0.0,64.0
1369,56.0,120.0,120.0,0.0,64.0
1370,80.0,0.0,240.0,0.0,64.0
1371,77.0,0.0,240.0,0.0,64.0
1372,58.0,120.0,120.0,0.0,64.0
1373,54.0,120.0,120.0,0.0,64.0
1374,78.0,0.0,240.0,0.0,64.0
1375,66.0,0.0,120.0,0.0,64.0
1376,73.0,0.0,240.0,0.0,64.0
1377,64.0,120.0,120.0,0.0,64.0
1378,69.0,120.0,15.0,0.0,64.0
1379,66.0,0.0,120.0,0.0,64.0
1380,63.0,120.0,120.0,0.0,64.0
1381,69.0,120.0,240.0,0.0,64.0
1382,64.0,0.0,120.0,0.0,64.0
1383,78.0,120.0,120.0,0.0,64.0
1384,61.0,0.0,120.0,0.0,64.0
1385,63.0,240.0,120.0,0.0,64.0
1386,75.0,0.0,120.0,0.0,64.0
1387,68.0,0.0,240.0,0.0,64.0
1388,59.0,120.0,1080.0,0.0,64.0
1389,80.0,120.0,120.0,0.0,64.0
1390,78.0,120.0,120.0,0.0,64.0
1391,68.0,0.0,15.0,0.0,64.0
1392,76.0,120.0,120.0,0.0,64.0
1393,78.0,120.0,15.0,0.0,64.0
1394,78.0,0.0,15.0,0.0,64.0
1395,75.0,120.0,15.0,0.0,64.0
1396,68.0,120.0,240.0,0.0,64.0
1397,76.0,0.0,240.0,0.0,64.0
1398,64.0,0.0,120.0,0.0,64.0
1399,71.0,0.0,240.0,0.0,64.0
1400,63.0,120.0,120.0,0.0,64.0
1401,64.0,0.0,120.0,0.0,64.0
1402,61.0,120.0,120.0,0.0,64.0
1403,68.0,120.0,15.0,0.0,64.0
1404,63.0,0.0,120.0,0.0,64.0
1405,59.0,120.0,120.0,0.0,64.0
1406,76.0,0.0,120.0,0.0,64.0
1407,73.0,240.0,120.0,0.0,64.0
1408,61.0,0.0,120.0,0.0,64.0
1409,58.0,120.0,1080.0,0.0,64.0
1410,66.0,0.0,15.0,0.0,64.0
1411,78.0,120.0,120.0,0.0,64.0
1412,76.0,0.0,120.0,0.0,64.0
1413,75.0,120.0,120.0,0.0,64.0
1414,66.0,120.0,240.0,0.0,64.0
1415,73.0,0.0,120.0,0.0,64.0
1416,76.0,0.0,15.0,0.0,64.0
1417,76.0,120.0,15.0,0.0,64.0
1418,73.0,0.0,120.0,0.0,64.0
1419,75.0,0.0,240.0,0.0,64.0
1420,66.0,0.0,240.0,0.0,64.0
1421,63.0,120.0,120.0,0.0,64.0
1422,61.0,120.0,120.0,0.0,64.0
1423,66.0,0.0,240.0,0.0,64.0
1424,70.0,0.0,240.0,0.0,64.0
1425,63.0,120.0,120.0,0.0,64.0
1426,66.0,120.0,240.0,0.0,64.0
1427,60.0,120.0,120.0,0.0,64.0
1428,61.0,0.0,120.0,0.0,64.0
1429,75.0,0.0,120.0,0.0,64.0
1430,58.0,120.0,120.0,0.0,64.0
1431,72.0,240.0,120.0,0.0,64.0
1432,60.0,0.0,120.0,0.0,64.0
1433,56.0,120.0,1080.0,0.0,64.0
1434,64.0,0.0,240.0,0.0,64.0
1435,76.0,120.0,120.0,0.0,64.0
1436,75.0,120.0,120.0,0.0,64.0
1437,64.0,0.0,15.0,0.0,64.0
1438,73.0,120.0,120.0,0.0,64.0
1439,75.0,120.0,15.0,0.0,64.0
1440,75.0,0.0,120.0,0.0,64.0
1441,72.0,120.0,15.0,0.0,64.0
1442,73.0,0.0,240.0,0.0,64.0
1443,64.0,0.0,1200.0,0.0,64.0
1444,61.0,120.0,120.0,0.0,64.0
1445,68.0,120.0,240.0,0.0,64.0
1446,59.0,120.0,120.0,0.0,64.0
1447,61.0,0.0,120.0,0.0,64.0
1448,58.0,120.0,120.0,0.0,64.0
1449,73.0,0.0,240.0,0.0,64.0
1450,59.0,120.0,120.0,0.0,64.0
1451,56.0,120.0,120.0,0.0,64.0
1452,71.0,0.0,240.0,0.0,64.0
1453,58.0,120.0,120.0,0.0,64.0
1454,54.0,120.0,120.0,0.0,64.0
1455,70.0,120.0,1200.0,0.0,64.0
1456,58.0,120.0,120.0,0.0,64.0
1457,56.0,120.0,120.0,0.0,64.0
1458,76.0,0.0,240.0,0.0,64.0
1459,58.0,120.0,120.0,0.0,64.0
1460,54.0,120.0,120.0,0.0,64.0
1461,75.0,0.0,240.0,0.0,64.0
1462,56.0,120.0,120.0,0.0,64.0
1463,73.0,120.0,240.0,0.0,64.0
1464,52.0,120.0,120.0,0.0,64.0
1465,54.0,0.0,120.0,0.0,64.0
1466,51.0,120.0,120.0,0.0,64.0
1467,71.0,0.0,480.0,0.0,64.0
1468,63.0,0.0,120.0,0.0,64.0
1469,61.0,120.0,120.0,0.0,64.0
1470,82.0,120.0,240.0,0.0,64.0
1471,63.0,0.0,120.0,0.0,64.0
1472,71.0,0.0,480.0,0.0,64.0
1473,80.0,0.0,240.0,0.0,64.0
1474,59.0,120.0,120.0,0.0,64.0
1475,61.0,120.0,120.0,0.0,64.0
1476,78.0,120.0,240.0,0.0,64.0
1477,58.0,120.0,120.0,0.0,64.0
1478,59.0,0.0,120.0,0.0,64.0
1479,56.0,120.0,240.0,0.0,64.0
1480,71.0,0.0,240.0,0.0,64.0
1481,77.0,120.0,120.0,0.0,64.0
1482,87.0,0.0,120.0,0.0,64.0
1483,85.0,120.0,120.0,0.0,64.0
1484,70.0,0.0,120.0,0.0,64.0
1485,61.0,0.0,240.0,0.0,64.0
1486,68.0,120.0,120.0,0.0,64.0
1487,83.0,0.0,120.0,0.0,64.0
1488,58.0,0.0,240.0,0.0,64.0
1489,85.0,120.0,120.0,0.0,64.0
1490,66.0,0.0,240.0,0.0,64.0
1491,83.0,120.0,120.0,0.0,64.0
1492,64.0,0.0,240.0,0.0,64.0
1493,54.0,0.0,240.0,0.0,64.0
1494,82.0,120.0,120.0,0.0,64.0
1495,80.0,120.0,120.0,0.0,64.0
1496,59.0,120.0,120.0,0.0,64.0
1497,63.0,0.0,120.0,0.0,64.0
1498,78.0,120.0,480.0,0.0,64.0
1499,66.0,0.0,120.0,0.0,64.0
1500,47.0,120.0,120.0,0.0,64.0
1501,52.0,120.0,120.0,0.0,64.0
1502,71.0,0.0,240.0,0.0,64.0
1503,47.0,0.0,120.0,0.0,64.0
1504,61.0,0.0,240.0,0.0,64.0
1505,54.0,120.0,120.0,0.0,64.0
1506,51.0,120.0,120.0,0.0,64.0
1507,52.0,120.0,120.0,0.0,64.0
1508,70.0,0.0,240.0,0.0,64.0
1509,49.0,0.0,120.0,0.0,64.0
1510,78.0,240.0,15.0,0.0,64.0
1511,59.0,0.0,240.0,0.0,64.0
1512,51.0,120.0,240.0,0.0,64.0
1513,47.0,0.0,240.0,0.0,64.0
1514,77.0,120.0,120.0,0.0,64.0
1515,75.0,120.0,120.0,0.0,64.0
1516,53.0,120.0,240.0,0.0,64.0
1517,73.0,120.0,120.0,0.0,64.0
1518,71.0,0.0,120.0,0.0,64.0
1519,69.0,120.0,120.0,0.0,64.0
1520,49.0,0.0,240.0,0.0,64.0
1521,68.0,120.0,120.0,0.0,64.0
1522,54.0,0.0,240.0,0.0,64.0
1523,69.0,120.0,120.0,0.0,64.0
1524,73.0,120.0,120.0,0.0,64.0
1525,57.0,120.0,120.0,0.0,64.0
1526,78.0,0.0,240.0,0.0,64.0
1527,54.0,120.0,120.0,0.0,64.0
1528,68.0,120.0,240.0,0.0,64.0
1529,73.0,0.0,480.0,0.0,64.0
1530,61.0,120.0,120.0,0.0,64.0
1531,57.0,0.0,120.0,0.0,64.0
1532,59.0,120.0,120.0,0.0,64.0
1533,77.0,240.0,240.0,0.0,64.0
1534,56.0,0.0,120.0,0.0,64.0
1535,57.0,120.0,240.0,0.0,64.0
1536,66.0,0.0,240.0,0.0,64.0
1537,73.0,0.0,240.0,0.0,64.0
1538,71.0,120.0,120.0,0.0,64.0
1539,54.0,120.0,240.0,0.0,64.0
1540,69.0,0.0,120.0,0.0,64.0
1541,68.0,120.0,120.0,0.0,64.0
1542,60.0,0.0,240.0,0.0,64.0
1543,66.0,120.0,120.0,0.0,64.0
1544,56.0,120.0,240.0,0.0,64.0
1545,64.0,120.0,120.0,0.0,64.0
1546,63.0,0.0,120.0,0.0,64.0
1547,61.0,0.0,120.0,0.0,64.0
1548,64.0,120.0,120.0,0.0,64.0
1549,49.0,0.0,120.0,0.0,64.0
1550,68.0,120.0,120.0,0.0,64.0
1551,52.0,120.0,120.0,0.0,64.0
1552,73.0,0.0,240.0,0.0,64.0
1553,49.0,0.0,120.0,0.0,64.0
1554,80.0,120.0,15.0,0.0,64.0
1555,56.0,120.0,120.0,0.0,64.0
1556,63.0,120.0,240.0,0.0,64.0
1557,52.0,0.0,120.0,0.0,64.0
1558,54.0,120.0,120.0,0.0,64.0
1559,72.0,0.0,240.0,0.0,64.0
1560,51.0,240.0,120.0,0.0,64.0
1561,61.0,120.0,240.0,0.0,64.0
1562,52.0,0.0,240.0,0.0,64.0
1563,80.0,0.0,240.0,0.0,64.0
1564,49.0,0.0,240.0,0.0,64.0
1565,78.0,120.0,120.0,0.0,64.0
1566,76.0,120.0,120.0,0.0,64.0
1567,75.0,120.0,120.0,0.0,64.0
1568,54.0,0.0,720.0,0.0,64.0
1569,76.0,120.0,120.0,0.0,64.0
1570,73.0,120.0,120.0,0.0,64.0
1571,75.0,120.0,120.0,0.0,64.0
1572,80.0,0.0,480.0,0.0,64.0
1573,72.0,120.0,120.0,0.0,64.0
1574,73.0,120.0,120.0,0.0,64.0
1575,75.0,120.0,120.0,0.0,64.0
1576,51.0,0.0,240.0,0.0,64.0
1577,72.0,120.0,120.0,0.0,64.0
1578,52.0,0.0,240.0,0.0,64.0
1579,73.0,120.0,120.0,0.0,64.0
1580,72.0,120.0,120.0,0.0,64.0
1581,49.0,0.0,240.0,0.0,64.0
1582,70.0,120.0,120.0,0.0,64.0
1583,68.0,0.0,120.0,0.0,64.0
1584,57.0,0.0,240.0,0.0,64.0
1585,80.0,240.0,15.0,0.0,64.0
1586,73.0,0.0,240.0,0.0,64.0
1587,78.0,120.0,120.0,0.0,64.0
1588,45.0,0.0,240.0,0.0,64.0
1589,75.0,0.0,120.0,0.0,64.0
1590,76.0,0.0,120.0,0.0,64.0
1591,57.0,0.0,720.0,0.0,64.0
1592,75.0,0.0,120.0,0.0,64.0
1593,78.0,120.0,120.0,0.0,64.0
1594,80.0,120.0,120.0,0.0,64.0
1595,76.0,0.0,15.0,0.0,64.0
1596,73.0,0.0,120.0,0.0,64.0
1597,78.0,120.0,120.0,0.0,64.0
1598,75.0,0.0,15.0,0.0,64.0
1599,72.0,0.0,120.0,0.0,64.0
1600,73.0,120.0,120.0,0.0,64.0
1601,76.0,0.0,120.0,0.0,64.0
1602,78.0,0.0,120.0,0.0,64.0
1603,48.0,0.0,240.0,0.0,64.0
1604,75.0,120.0,120.0,0.0,64.0
1605,81.0,120.0,120.0,0.0,64.0
1606,78.0,0.0,120.0,0.0,64.0
1607,76.0,0.0,120.0,0.0,64.0
1608,49.0,0.0,240.0,0.0,64.0
1609,80.0,120.0,120.0,0.0,64.0
1610,78.0,120.0,120.0,0.0,64.0
1611,75.0,0.0,120.0,0.0,64.0
1612,76.0,0.0,120.0,0.0,64.0
1613,43.0,120.0,240.0,0.0,64.0
1614,73.0,120.0,120.0,0.0,64.0
1615,75.0,0.0,120.0,0.0,64.0
1616,72.0,0.0,120.0,0.0,64.0
1617,73.0,0.0,120.0,0.0,64.0
1618,44.0,120.0,480.0,0.0,64.0
1619,76.0,120.0,120.0,0.0,64.0
1620,72.0,0.0,120.0,0.0,64.0
1621,75.0,120.0,120.0,0.0,64.0
1622,70.0,120.0,120.0,0.0,64.0
1623,73.0,0.0,120.0,0.0,64.0
1624,72.0,0.0,120.0,0.0,64.0
1625,68.0,0.0,120.0,0.0,64.0
1626,73.0,120.0,120.0,0.0,64.0
1627,70.0,0.0,120.0,0.0,64.0
1628,76.0,120.0,120.0,0.0,64.0
1629,73.0,0.0,120.0,0.0,64.0
1630,72.0,0.0,120.0,0.0,64.0
1631,78.0,0.0,120.0,0.0,64.0
1632,75.0,120.0,15.0,0.0,64.0
1633,76.0,0.0,120.0,0.0,64.0
1634,73.0,120.0,120.0,0.0,64.0
1635,80.0,120.0,120.0,0.0,64.0
1636,68.0,0.0,120.0,0.0,64.0
1637,64.0,120.0,120.0,0.0,64.0
1638,85.0,0.0,120.0,0.0,64.0
1639,68.0,120.0,120.0,0.0,64.0
1640,80.0,0.0,120.0,0.0,64.0
1641,88.0,0.0,120.0,0.0,64.0
1642,61.0,120.0,120.0,0.0,64.0
1643,64.0,0.0,120.0,0.0,64.0
1644,85.0,120.0,120.0,0.0,64.0
1645,68.0,120.0,120.0,0.0,64.0
1646,80.0,0.0,120.0,0.0,64.0
1647,64.0,0.0,120.0,0.0,64.0
1648,85.0,0.0,120.0,0.0,64.0
1649,76.0,120.0,120.0,0.0,64.0
1650,73.0,0.0,120.0,0.0,64.0
1651,80.0,0.0,120.0,0.0,64.0
1652,68.0,120.0,120.0,0.0,64.0
1653,85.0,0.0,120.0,0.0,64.0
1654,64.0,120.0,120.0,0.0,64.0
1655,80.0,0.0,120.0,0.0,64.0
1656,68.0,120.0,120.0,0.0,64.0
1657,88.0,120.0,120.0,0.0,64.0
1658,59.0,120.0,480.0,0.0,64.0
1659,61.0,0.0,120.0,0.0,64.0
1660,64.0,120.0,120.0,0.0,64.0
1661,85.0,0.0,120.0,0.0,64.0
1662,80.0,0.0,120.0,0.0,64.0
1663,68.0,120.0,120.0,0.0,64.0
1664,85.0,0.0,120.0,0.0,64.0
1665,64.0,0.0,120.0,0.0,64.0
1666,73.0,0.0,120.0,0.0,64.0
1667,78.0,120.0,120.0,0.0,64.0
1668,82.0,120.0,120.0,0.0,64.0
1669,70.0,0.0,120.0,0.0,64.0
1670,85.0,0.0,120.0,0.0,64.0
1671,66.0,120.0,120.0,0.0,64.0
1672,82.0,120.0,120.0,0.0,64.0
1673,70.0,0.0,120.0,0.0,64.0
1674,58.0,120.0,480.0,0.0,64.0
1675,61.0,120.0,120.0,0.0,64.0
1676,88.0,0.0,120.0,0.0,64.0
1677,66.0,120.0,120.0,0.0,64.0
1678,85.0,0.0,120.0,0.0,64.0
1679,70.0,120.0,120.0,0.0,64.0
1680,82.0,0.0,120.0,0.0,64.0
1681,85.0,0.0,120.0,0.0,64.0
1682,66.0,0.0,120.0,0.0,64.0
1683,78.0,0.0,120.0,0.0,64.0
1684,73.0,120.0,120.0,0.0,64.0
1685,82.0,0.0,120.0,0.0,64.0
1686,70.0,120.0,120.0,0.0,64.0
1687,85.0,0.0,120.0,0.0,64.0
1688,66.0,120.0,120.0,0.0,64.0
1689,70.0,120.0,120.0,0.0,64.0
1690,82.0,0.0,120.0,0.0,64.0
1691,61.0,120.0,120.0,0.0,64.0
1692,88.0,0.0,120.0,0.0,64.0
1693,54.0,120.0,480.0,0.0,64.0
1694,85.0,120.0,120.0,0.0,64.0
1695,66.0,0.0,120.0,0.0,64.0
1696,70.0,120.0,120.0,0.0,64.0
1697,82.0,0.0,120.0,0.0,64.0
1698,66.0,0.0,120.0,0.0,64.0
1699,85.0,0.0,120.0,0.0,64.0
1700,71.0,120.0,120.0,0.0,64.0
1701,75.0,0.0,120.0,0.0,64.0
1702,78.0,0.0,120.0,0.0,64.0
1703,66.0,120.0,120.0,0.0,64.0
1704,63.0,0.0,120.0,0.0,64.0
1705,83.0,120.0,120.0,0.0,64.0
1706,66.0,0.0,120.0,0.0,64.0
1707,78.0,120.0,120.0,0.0,64.0
1708,59.0,0.0,120.0,0.0,64.0
1709,87.0,120.0,120.0,0.0,64.0
1710,83.0,120.0,120.0,0.0,64.0
1711,63.0,0.0,120.0,0.0,64.0
1712,66.0,120.0,120.0,0.0,64.0
1713,78.0,0.0,120.0,0.0,64.0
1714,83.0,0.0,120.0,0.0,64.0
1715,63.0,120.0,120.0,0.0,64.0
1716,75.0,120.0,120.0,0.0,64.0
1717,71.0,0.0,120.0,0.0,64.0
1718,66.0,0.0,120.0,0.0,64.0
1719,78.0,120.0,120.0,0.0,64.0
1720,63.0,0.0,120.0,0.0,64.0
1721,83.0,120.0,120.0,0.0,64.0
1722,66.0,120.0,120.0,0.0,64.0
1723,78.0,0.0,120.0,0.0,64.0
1724,59.0,120.0,120.0,0.0,64.0
1725,87.0,0.0,120.0,0.0,64.0
1726,58.0,120.0,480.0,0.0,64.0
1727,63.0,0.0,120.0,0.0,64.0
1728,83.0,120.0,120.0,0.0,64.0
1729,66.0,0.0,120.0,0.0,64.0
1730,78.0,120.0,120.0,0.0,64.0
1731,83.0,0.0,120.0,0.0,64.0
1732,63.0,0.0,120.0,0.0,64.0
1733,71.0,120.0,120.0,0.0,64.0
1734,76.0,0.0,120.0,0.0,64.0
1735,68.0,0.0,120.0,0.0,64.0
1736,80.0,120.0,120.0,0.0,64.0
1737,64.0,0.0,120.0,0.0,64.0
1738,83.0,120.0,120.0,0.0,64.0
1739,68.0,0.0,120.0,0.0,64.0
1740,80.0,120.0,120.0,0.0,64.0
1741,56.0,0.0,480.0,0.0,64.0
1742,59.0,0.0,120.0,0.0,64.0
1743,87.0,120.0,120.0,0.0,64.0
1744,83.0,0.0,120.0,0.0,64.0
1745,64.0,120.0,120.0,0.0,64.0
1746,80.0,120.0,120.0,0.0,64.0
1747,68.0,0.0,120.0,0.0,64.0
1748,83.0,0.0,120.0,0.0,64.0
1749,64.0,120.0,120.0,0.0,64.0
1750,71.0,0.0,120.0,0.0,64.0
1751,76.0,120.0,120.0,0.0,64.0
1752,68.0,120.0,120.0,0.0,64.0
1753,80.0,0.0,120.0,0.0,64.0
1754,83.0,120.0,120.0,0.0,64.0
1755,64.0,0.0,120.0,0.0,64.0
1756,68.0,0.0,120.0,0.0,64.0
1757,80.0,120.0,120.0,0.0,64.0
1758,59.0,120.0,120.0,0.0,64.0
1759,87.0,0.0,120.0,0.0,64.0
1760,52.0,120.0,480.0,0.0,64.0
1761,83.0,120.0,120.0,0.0,64.0
1762,64.0,0.0,120.0,0.0,64.0
1763,68.0,120.0,120.0,0.0,64.0
1764,80.0,0.0,120.0,0.0,64.0
1765,83.0,0.0,120.0,0.0,64.0
1766,64.0,0.0,120.0,0.0,64.0
1767,73.0,0.0,120.0,0.0,64.0
1768,70.0,120.0,120.0,0.0,64.0
1769,76.0,120.0,120.0,0.0,64.0
1770,64.0,0.0,120.0,0.0,64.0
1771,80.0,0.0,120.0,0.0,64.0
1772,61.0,120.0,120.0,0.0,64.0
1773,76.0,0.0,120.0,0.0,64.0
1774,64.0,120.0,120.0,0.0,64.0
1775,85.0,120.0,120.0,0.0,64.0
1776,58.0,0.0,120.0,0.0,64.0
1777,80.0,0.0,120.0,0.0,64.0
1778,61.0,120.0,120.0,0.0,64.0
1779,64.0,120.0,120.0,0.0,64.0
1780,76.0,0.0,120.0,0.0,64.0
1781,80.0,0.0,120.0,0.0,64.0
1782,61.0,120.0,120.0,0.0,64.0
1783,73.0,120.0,120.0,0.0,64.0
1784,70.0,0.0,120.0,0.0,64.0
1785,76.0,0.0,120.0,0.0,64.0
1786,64.0,120.0,120.0,0.0,64.0
1787,80.0,0.0,120.0,0.0,64.0
1788,61.0,120.0,120.0,0.0,64.0
1789,76.0,120.0,120.0,0.0,64.0
1790,64.0,0.0,120.0,0.0,64.0
1791,58.0,0.0,120.0,0.0,64.0
1792,85.0,120.0,120.0,0.0,64.0
1793,56.0,120.0,480.0,0.0,64.0
1794,61.0,0.0,120.0,0.0,64.0
1795,82.0,120.0,120.0,0.0,64.0
1796,64.0,120.0,120.0,0.0,64.0
1797,76.0,0.0,120.0,0.0,64.0
1798,61.0,0.0,120.0,0.0,64.0
1799,82.0,0.0,120.0,0.0,64.0
1800,75.0,0.0,120.0,0.0,64.0
1801,70.0,120.0,120.0,0.0,64.0
1802,79.0,120.0,120.0,0.0,64.0
1803,67.0,0.0,120.0,0.0,64.0
1804,63.0,120.0,120.0,0.0,64.0
1805,82.0,0.0,120.0,0.0,64.0
1806,79.0,120.0,120.0,0.0,64.0
1807,67.0,0.0,120.0,0.0,64.0
1808,55.0,120.0,480.0,0.0,64.0
1809,58.0,0.0,120.0,0.0,64.0
1810,85.0,120.0,120.0,0.0,64.0
1811,82.0,0.0,120.0,0.0,64.0
1812,63.0,120.0,120.0,0.0,64.0
1813,79.0,0.0,120.0,0.0,64.0
1814,67.0,120.0,120.0,0.0,64.0
1815,63.0,0.0,120.0,0.0,64.0
1816,82.0,0.0,120.0,0.0,64.0
1817,70.0,120.0,120.0,0.0,64.0
1818,75.0,0.0,120.0,0.0,64.0
1819,79.0,120.0,120.0,0.0,64.0
1820,67.0,0.0,120.0,0.0,64.0
1821,82.0,120.0,120.0,0.0,64.0
1822,63.0,0.0,120.0,0.0,64.0
1823,67.0,120.0,120.0,0.0,64.0
1824,79.0,0.0,120.0,0.0,64.0
1825,51.0,0.0,480.0,0.0,64.0
1826,85.0,120.0,120.0,0.0,64.0
1827,58.0,0.0,120.0,0.0,64.0
1828,82.0,0.0,120.0,0.0,64.0
1829,63.0,120.0,120.0,0.0,64.0
1830,79.0,120.0,120.0,0.0,64.0
1831,67.0,0.0,120.0,0.0,64.0
1832,63.0,0.0,120.0,0.0,64.0
1833,82.0,120.0,120.0,0.0,64.0
1834,68.0,120.0,120.0,0.0,64.0
1835,71.0,0.0,120.0,0.0,64.0
1836,75.0,0.0,120.0,0.0,64.0
1837,63.0,120.0,120.0,0.0,64.0
1838,80.0,120.0,120.0,0.0,64.0
1839,59.0,0.0,120.0,0.0,64.0
1840,63.0,120.0,120.0,0.0,64.0
1841,75.0,0.0,120.0,0.0,64.0
1842,83.0,120.0,120.0,0.0,64.0
1843,56.0,0.0,120.0,0.0,64.0
1844,59.0,120.0,120.0,0.0,64.0
1845,80.0,0.0,120.0,0.0,64.0
1846,63.0,0.0,120.0,0.0,64.0
1847,75.0,120.0,120.0,0.0,64.0
1848,80.0,0.0,120.0,0.0,64.0
1849,59.0,120.0,120.0,0.0,64.0
1850,71.0,120.0,120.0,0.0,64.0
1851,68.0,0.0,120.0,0.0,64.0
1852,75.0,0.0,120.0,0.0,64.0
1853,63.0,120.0,120.0,0.0,64.0
1854,80.0,120.0,120.0,0.0,64.0
1855,59.0,0.0,120.0,0.0,64.0
1856,63.0,0.0,120.0,0.0,64.0
1857,75.0,120.0,120.0,0.0,64.0
1858,56.0,120.0,120.0,0.0,64.0
1859,54.0,0.0,480.0,0.0,64.0
1860,83.0,0.0,120.0,0.0,64.0
1861,59.0,120.0,120.0,0.0,64.0
1862,80.0,0.0,120.0,0.0,64.0
1863,75.0,120.0,120.0,0.0,64.0
1864,63.0,0.0,120.0,0.0,64.0
1865,80.0,0.0,120.0,0.0,64.0
1866,59.0,120.0,120.0,0.0,64.0
1867,73.0,120.0,120.0,0.0,64.0
1868,68.0,0.0,120.0,0.0,64.0
1869,65.0,120.0,120.0,0.0,64.0
1870,77.0,0.0,120.0,0.0,64.0
1871,80.0,120.0,120.0,0.0,64.0
1872,61.0,0.0,120.0,0.0,64.0
1873,65.0,0.0,120.0,0.0,64.0
1874,77.0,120.0,120.0,0.0,64.0
1875,56.0,120.0,120.0,0.0,64.0
1876,83.0,0.0,120.0,0.0,64.0
1877,53.0,0.0,480.0,0.0,64.0
1878,61.0,0.0,120.0,0.0,64.0
1879,80.0,120.0,120.0,0.0,64.0
1880,65.0,0.0,120.0,0.0,64.0
1881,77.0,120.0,120.0,0.0,64.0
1882,61.0,120.0,120.0,0.0,64.0
1883,80.0,0.0,120.0,0.0,64.0
1884,73.0,120.0,120.0,0.0,64.0
1885,68.0,0.0,120.0,0.0,64.0
1886,77.0,120.0,120.0,0.0,64.0
1887,65.0,0.0,120.0,0.0,64.0
1888,61.0,0.0,120.0,0.0,64.0
1889,80.0,120.0,120.0,0.0,64.0
1890,65.0,120.0,120.0,0.0,64.0
1891,77.0,0.0,120.0,0.0,64.0
1892,83.0,0.0,120.0,0.0,64.0
1893,56.0,120.0,120.0,0.0,64.0
1894,49.0,0.0,480.0,0.0,64.0
1895,80.0,120.0,120.0,0.0,64.0
1896,61.0,0.0,120.0,0.0,64.0
1897,65.0,0.0,120.0,0.0,64.0
1898,77.0,120.0,120.0,0.0,64.0
1899,80.0,0.0,120.0,0.0,64.0
1900,61.0,120.0,120.0,0.0,64.0
1901,82.0,120.0,120.0,0.0,64.0
1902,66.0,0.0,240.0,0.0,64.0
1903,42.0,0.0,6240.0,0.0,64.0
1904,78.0,240.0,120.0,0.0,64.0
1905,54.0,120.0,240.0,0.0,64.0
1906,85.0,120.0,360.0,0.0,64.0
1907,58.0,0.0,240.0,0.0,64.0
1908,83.0,120.0,120.0,0.0,64.0
1909,82.0,120.0,120.0,0.0,64.0
1910,61.0,120.0,240.0,0.0,64.0
1911,80.0,0.0,120.0,0.0,64.0
1912,82.0,0.0,120.0,0.0,64.0
1913,64.0,120.0,120.0,0.0,64.0
1914,58.0,120.0,120.0,0.0,64.0
1915,85.0,0.0,120.0,0.0,64.0
1916,76.0,120.0,360.0,0.0,64.0
1917,61.0,120.0,120.0,0.0,64.0
1918,64.0,120.0,120.0,0.0,64.0
1919,67.0,120.0,240.0,0.0,64.0
1920,79.0,0.0,120.0,0.0,64.0
1921,78.0,120.0,120.0,0.0,64.0
1922,76.0,120.0,120.0,0.0,64.0
1923,74.0,120.0,120.0,0.0,64.0
1924,71.0,240.0,120.0,0.0,64.0
1925,59.0,120.0,240.0,0.0,64.0
1926,78.0,120.0,360.0,0.0,64.0
1927,62.0,120.0,240.0,0.0,64.0
1928,76.0,0.0,120.0,0.0,64.0
1929,74.0,120.0,120.0,0.0,64.0
1930,66.0,120.0,240.0,0.0,64.0
1931,73.0,0.0,120.0,0.0,64.0
1932,74.0,0.0,120.0,0.0,64.0
1933,71.0,120.0,120.0,0.0,64.0
1934,78.0,120.0,120.0,0.0,64.0
1935,62.0,0.0,120.0,0.0,64.0
1936,66.0,120.0,120.0,0.0,64.0
1937,71.0,120.0,120.0,0.0,64.0
1938,74.0,120.0,240.0,0.0,64.0
1939,69.0,0.0,120.0,0.0,64.0
1940,68.0,120.0,120.0,0.0,64.0
1941,66.0,120.0,120.0,0.0,64.0
1942,65.0,120.0,120.0,0.0,64.0
1943,59.0,240.0,120.0,0.0,64.0
1944,65.0,120.0,240.0,0.0,64.0
1945,68.0,120.0,120.0,0.0,64.0
1946,66.0,0.0,120.0,0.0,64.0
1947,65.0,120.0,120.0,0.0,64.0
1948,71.0,120.0,240.0,0.0,64.0
1949,63.0,0.0,120.0,0.0,64.0
1950,65.0,0.0,120.0,0.0,64.0
1951,74.0,120.0,120.0,0.0,64.0
1952,68.0,0.0,120.0,0.0,64.0
1953,71.0,120.0,120.0,0.0,64.0
1954,59.0,120.0,360.0,0.0,64.0
1955,74.0,120.0,120.0,0.0,64.0
1956,77.0,120.0,120.0,0.0,64.0
1957,80.0,120.0,240.0,0.0,64.0
1958,62.0,0.0,120.0,0.0,64.0
1959,61.0,120.0,120.0,0.0,64.0
1960,59.0,240.0,120.0,0.0,64.0
1961,58.0,0.0,600.0,0.0,64.0
1962,78.0,120.0,120.0,0.0,64.0
1963,76.0,120.0,120.0,0.0,64.0
1964,74.0,120.0,120.0,0.0,64.0
1965,73.0,120.0,120.0,0.0,64.0
1966,71.0,120.0,120.0,0.0,64.0
1967,59.0,0.0,120.0,0.0,64.0
1968,61.0,120.0,120.0,0.0,64.0
1969,70.0,0.0,120.0,0.0,64.0
1970,62.0,0.0,120.0,0.0,64.0
1971,68.0,120.0,120.0,0.0,64.0
1972,66.0,120.0,240.0,0.0,64.0
1973,64.0,120.0,120.0,0.0,64.0
1974,62.0,0.0,120.0,0.0,64.0
1975,61.0,120.0,120.0,0.0,64.0
1976,62.0,120.0,120.0,0.0,64.0
1977,64.0,120.0,120.0,0.0,64.0
1978,66.0,120.0,120.0,0.0,64.0
1979,68.0,120.0,120.0,0.0,64.0
1980,70.0,240.0,120.0,0.0,64.0
1981,59.0,240.0,240.0,0.0,64.0
1982,71.0,0.0,480.0,0.0,64.0
1983,58.0,240.0,240.0,0.0,64.0
1984,59.0,240.0,240.0,0.0,64.0
1985,71.0,0.0,480.0,0.0,64.0
1986,61.0,240.0,240.0,0.0,64.0
1987,63.0,0.0,240.0,0.0,64.0
1988,71.0,0.0,15.0,0.0,64.0
1989,61.0,240.0,240.0,0.0,64.0
1990,70.0,120.0,120.0,0.0,64.0
1991,68.0,0.0,120.0,0.0,64.0
1992,63.0,240.0,240.0,0.0,64.0
1993,66.0,0.0,240.0,0.0,64.0
1994,64.0,0.0,240.0,0.0,64.0
1995,66.0,0.0,480.0,0.0,64.0
1996,63.0,0.0,240.0,0.0,64.0
1997,71.0,0.0,240.0,0.0,64.0
1998,61.0,0.0,240.0,0.0,64.0
1999,54.0,0.0,480.0,0.0,64.0
2000,70.0,0.0,240.0,0.0,64.0
2001,47.0,0.0,240.0,0.0,64.0
2002,59.0,0.0,240.0,0.0,64.0
2003,63.0,120.0,240.0,0.0,64.0
2004,71.0,120.0,120.0,0.0,64.0
2005,70.0,0.0,120.0,0.0,64.0
2006,71.0,120.0,120.0,0.0,64.0
2007,61.0,0.0,240.0,0.0,64.0
2008,73.0,120.0,120.0,0.0,64.0
2009,75.0,120.0,120.0,0.0,64.0
2010,59.0,0.0,240.0,0.0,64.0
2011,77.0,240.0,120.0,0.0,64.0
2012,58.0,240.0,240.0,0.0,64.0
2013,56.0,0.0,240.0,0.0,64.0
2014,78.0,0.0,15.0,0.0,64.0
2015,78.0,240.0,15.0,0.0,64.0
2016,54.0,240.0,240.0,0.0,64.0
2017,56.0,0.0,240.0,0.0,64.0
2018,78.0,0.0,15.0,0.0,64.0
2019,58.0,120.0,240.0,0.0,64.0
2020,78.0,0.0,240.0,0.0,64.0
2021,56.0,0.0,240.0,0.0,64.0
2022,77.0,0.0,120.0,0.0,64.0
2023,75.0,0.0,120.0,0.0,64.0
2024,58.0,0.0,240.0,0.0,64.0
2025,73.0,0.0,120.0,0.0,64.0
2026,78.0,0.0,120.0,0.0,64.0
2027,71.0,0.0,120.0,0.0,64.0
2028,59.0,0.0,240.0,0.0,64.0
2029,78.0,0.0,120.0,0.0,64.0
2030,61.0,0.0,480.0,0.0,64.0
2031,70.0,0.0,120.0,0.0,64.0
2032,78.0,0.0,120.0,0.0,64.0
2033,77.0,0.0,120.0,0.0,64.0
2034,78.0,0.0,120.0,0.0,64.0
2035,49.0,0.0,480.0,0.0,64.0
2036,68.0,0.0,120.0,0.0,64.0
2037,78.0,0.0,120.0,0.0,64.0
2038,77.0,0.0,120.0,0.0,64.0
2039,78.0,0.0,120.0,0.0,64.0
2040,66.0,120.0,120.0,0.0,64.0
2041,42.0,0.0,240.0,0.0,64.0
2042,68.0,120.0,120.0,0.0,64.0
2043,70.0,120.0,120.0,0.0,64.0
2044,54.0,120.0,240.0,0.0,64.0
2045,71.0,0.0,120.0,0.0,64.0
2046,73.0,120.0,120.0,0.0,64.0
2047,58.0,120.0,240.0,0.0,64.0
2048,75.0,0.0,120.0,0.0,64.0
2049,76.0,0.0,120.0,0.0,64.0
2050,61.0,240.0,240.0,0.0,64.0
2051,73.0,120.0,15.0,0.0,64.0
2052,70.0,0.0,120.0,0.0,64.0
2053,64.0,240.0,480.0,0.0,64.0
2054,70.0,120.0,240.0,0.0,64.0
2055,66.0,0.0,15.0,0.0,64.0
2056,73.0,120.0,120.0,0.0,64.0
2057,70.0,0.0,120.0,0.0,64.0
2058,66.0,0.0,15.0,0.0,64.0
2059,54.0,0.0,240.0,0.0,64.0
2060,75.0,120.0,120.0,0.0,64.0
2061,71.0,240.0,120.0,0.0,64.0
2062,63.0,0.0,480.0,0.0,64.0
2063,66.0,0.0,240.0,0.0,64.0
2064,66.0,120.0,15.0,0.0,64.0
2065,75.0,120.0,120.0,0.0,64.0
2066,71.0,0.0,120.0,0.0,64.0
2067,66.0,0.0,15.0,0.0,64.0
2068,54.0,240.0,240.0,0.0,64.0
2069,76.0,120.0,120.0,0.0,64.0
2070,73.0,0.0,120.0,0.0,64.0
2071,66.0,0.0,15.0,0.0,64.0
2072,61.0,120.0,240.0,0.0,64.0
2073,66.0,0.0,15.0,0.0,64.0
2074,76.0,120.0,120.0,0.0,64.0
2075,59.0,0.0,240.0,0.0,64.0
2076,73.0,0.0,120.0,0.0,64.0
2077,66.0,240.0,15.0,0.0,64.0
2078,58.0,0.0,240.0,0.0,64.0
2079,66.0,0.0,240.0,0.0,64.0
2080,66.0,120.0,15.0,0.0,64.0
2081,56.0,240.0,240.0,0.0,64.0
2082,70.0,120.0,120.0,0.0,64.0
2083,73.0,0.0,120.0,0.0,64.0
2084,66.0,0.0,15.0,0.0,64.0
2085,54.0,0.0,240.0,0.0,64.0
2086,76.0,0.0,240.0,0.0,64.0
2087,52.0,0.0,240.0,0.0,64.0
2088,70.0,120.0,120.0,0.0,64.0
2089,73.0,0.0,15.0,0.0,64.0
2090,76.0,240.0,120.0,0.0,64.0
2091,51.0,120.0,240.0,0.0,64.0
2092,82.0,0.0,240.0,0.0,64.0
2093,76.0,0.0,240.0,0.0,64.0
2094,76.0,0.0,120.0,0.0,64.0
2095,49.0,240.0,240.0,0.0,64.0
2096,70.0,120.0,120.0,0.0,64.0
2097,73.0,0.0,120.0,0.0,64.0
2098,82.0,0.0,120.0,0.0,64.0
2099,75.0,0.0,240.0,0.0,64.0
2100,83.0,240.0,240.0,0.0,64.0
2101,47.0,240.0,480.0,0.0,64.0
2102,76.0,0.0,240.0,0.0,64.0
2103,85.0,0.0,240.0,0.0,64.0
2104,73.0,240.0,240.0,0.0,64.0
2105,82.0,0.0,240.0,0.0,64.0
2106,83.0,0.0,240.0,0.0,64.0
2107,75.0,240.0,240.0,0.0,64.0
2108,46.0,0.0,480.0,0.0,64.0
2109,66.0,120.0,15.0,0.0,64.0
2110,75.0,120.0,120.0,0.0,64.0
2111,73.0,120.0,120.0,0.0,64.0
2112,66.0,0.0,15.0,0.0,64.0
2113,76.0,120.0,120.0,0.0,64.0
2114,75.0,120.0,15.0,0.0,64.0
2115,73.0,120.0,120.0,0.0,64.0
2116,71.0,0.0,120.0,0.0,64.0
2117,83.0,240.0,240.0,0.0,64.0
2118,44.0,240.0,480.0,0.0,64.0
2119,64.0,0.0,240.0,0.0,64.0
2120,76.0,0.0,240.0,0.0,64.0
2121,73.0,0.0,15.0,0.0,64.0
2122,70.0,240.0,240.0,0.0,64.0
2123,75.0,0.0,240.0,0.0,64.0
2124,71.0,240.0,240.0,0.0,64.0
2125,42.0,120.0,480.0,0.0,64.0
2126,81.0,120.0,240.0,0.0,64.0
2127,81.0,0.0,240.0,0.0,64.0
2128,63.0,120.0,120.0,0.0,64.0
2129,61.0,0.0,120.0,0.0,64.0
2130,81.0,120.0,240.0,0.0,64.0
2131,64.0,120.0,120.0,0.0,64.0
2132,63.0,0.0,120.0,0.0,64.0
2133,61.0,120.0,120.0,0.0,64.0
2134,75.0,240.0,240.0,0.0,64.0
2135,59.0,0.0,120.0,0.0,64.0
2136,71.0,240.0,240.0,0.0,64.0
2137,40.0,0.0,480.0,0.0,64.0
2138,80.0,0.0,240.0,0.0,64.0
2139,76.0,240.0,240.0,0.0,64.0
2140,85.0,0.0,240.0,0.0,64.0
2141,82.0,0.0,240.0,0.0,64.0
2142,73.0,240.0,240.0,0.0,64.0
2143,52.0,240.0,960.0,0.0,64.0
2144,75.0,240.0,240.0,0.0,64.0
2145,83.0,0.0,240.0,0.0,64.0
2146,73.0,0.0,240.0,0.0,64.0
2147,70.0,120.0,240.0,0.0,64.0
2148,75.0,120.0,120.0,0.0,64.0
2149,66.0,0.0,240.0,0.0,64.0
2150,76.0,0.0,120.0,0.0,64.0
2151,78.0,240.0,240.0,0.0,64.0
2152,51.0,0.0,240.0,0.0,64.0
2153,71.0,120.0,600.0,0.0,64.0
2154,76.0,0.0,240.0,0.0,64.0
2155,52.0,120.0,240.0,0.0,64.0
2156,54.0,0.0,480.0,0.0,64.0
2157,75.0,120.0,120.0,0.0,64.0
2158,71.0,120.0,120.0,0.0,64.0
2159,66.0,0.0,120.0,0.0,64.0
2160,70.0,120.0,120.0,0.0,64.0
2161,42.0,0.0,480.0,0.0,64.0
2162,73.0,30.0,30.0,0.0,64.0
2163,75.0,60.0,30.0,0.0,64.0
2164,73.0,120.0,120.0,0.0,64.0
2165,70.0,120.0,120.0,0.0,64.0
2166,64.0,0.0,120.0,0.0,64.0
2167,63.0,1445.0,960.0,0.0,64.0
2168,71.0,0.0,960.0,0.0,64.0
2169,47.0,0.0,960.0,0.0,64.0
2170,75.0,30.0,240.0,0.0,64.0
2171,56.0,120.0,240.0,0.0,64.0
2172,80.0,30.0,30.0,0.0,64.0
2173,82.0,180.0,30.0,0.0,64.0
2174,83.0,120.0,300.0,0.0,64.0
2175,58.0,240.0,240.0,0.0,64.0
2176,82.0,0.0,120.0,0.0,64.0
2177,59.0,120.0,240.0,0.0,64.0
2178,80.0,0.0,15.0,0.0,64.0
2179,61.0,240.0,240.0,0.0,64.0
2180,79.0,0.0,120.0,0.0,64.0
2181,59.0,0.0,240.0,0.0,64.0
2182,80.0,240.0,240.0,0.0,64.0
2183,61.0,120.0,240.0,0.0,64.0
2184,63.0,120.0,240.0,0.0,64.0
2185,73.0,120.0,120.0,0.0,64.0
2186,72.0,60.0,240.0,0.0,64.0
2187,64.0,60.0,240.0,0.0,64.0
2188,73.0,60.0,60.0,0.0,64.0
2189,75.0,0.0,60.0,0.0,64.0
2190,73.0,60.0,60.0,0.0,64.0
2191,66.0,0.0,240.0,0.0,64.0
2192,72.0,60.0,60.0,0.0,64.0
2193,70.0,60.0,60.0,0.0,64.0
2194,68.0,60.0,60.0,0.0,64.0
2195,78.0,60.0,60.0,0.0,64.0
2196,56.0,240.0,240.0,0.0,64.0
2197,77.0,120.0,60.0,0.0,64.0
2198,75.0,0.0,120.0,0.0,64.0
2199,61.0,0.0,240.0,0.0,64.0
2200,77.0,240.0,240.0,0.0,64.0
2201,59.0,30.0,240.0,0.0,64.0
2202,58.0,120.0,240.0,0.0,64.0
2203,78.0,30.0,30.0,0.0,64.0
2204,76.0,60.0,30.0,0.0,64.0
2205,75.0,120.0,60.0,0.0,64.0
2206,76.0,120.0,240.0,0.0,64.0
2207,61.0,120.0,240.0,0.0,64.0
2208,79.0,120.0,240.0,0.0,64.0
2209,64.0,0.0,240.0,0.0,64.0
2210,82.0,120.0,120.0,0.0,64.0
2211,55.0,120.0,240.0,0.0,64.0
2212,85.0,120.0,120.0,0.0,64.0
2213,76.0,0.0,15.0,0.0,64.0
2214,56.0,120.0,240.0,0.0,64.0
2215,75.0,120.0,240.0,0.0,64.0
2216,58.0,60.0,240.0,0.0,64.0
2217,74.0,0.0,120.0,0.0,64.0
2218,59.0,120.0,240.0,0.0,64.0
2219,75.0,60.0,60.0,0.0,64.0
2220,79.0,120.0,60.0,0.0,64.0
2221,80.0,0.0,120.0,0.0,64.0
2222,68.0,120.0,120.0,0.0,64.0
2223,61.0,120.0,240.0,0.0,64.0
2224,73.0,60.0,240.0,0.0,64.0
2225,63.0,120.0,240.0,0.0,64.0
2226,71.0,60.0,60.0,0.0,64.0
2227,70.0,0.0,60.0,0.0,64.0
2228,71.0,120.0,120.0,0.0,64.0
2229,56.0,120.0,240.0,0.0,64.0
2230,83.0,0.0,120.0,0.0,64.0
2231,54.0,120.0,240.0,0.0,64.0
2232,82.0,120.0,120.0,0.0,64.0
2233,75.0,120.0,240.0,0.0,64.0
2234,53.0,0.0,240.0,0.0,64.0
2235,68.0,0.0,240.0,0.0,64.0
2236,74.0,60.0,120.0,0.0,64.0
2237,51.0,0.0,240.0,0.0,64.0
2238,75.0,0.0,60.0,0.0,64.0
2239,77.0,30.0,60.0,0.0,64.0
2240,78.0,90.0,330.0,0.0,64.0
2241,73.0,120.0,60.0,0.0,64.0
2242,71.0,150.0,120.0,0.0,64.0
2243,53.0,0.0,240.0,0.0,64.0
2244,70.0,120.0,840.0,0.0,64.0
2245,77.0,240.0,120.0,0.0,64.0
2246,54.0,0.0,240.0,0.0,64.0
2247,56.0,120.0,240.0,0.0,64.0
2248,75.0,120.0,15.0,0.0,64.0
2249,74.0,0.0,120.0,0.0,64.0
2250,75.0,0.0,240.0,0.0,64.0
2251,54.0,0.0,240.0,0.0,64.0
2252,82.0,60.0,120.0,0.0,64.0
2253,56.0,120.0,240.0,0.0,64.0
2254,80.0,60.0,60.0,0.0,64.0
2255,79.0,60.0,60.0,0.0,64.0
2256,77.0,60.0,60.0,0.0,64.0
2257,79.0,0.0,60.0,0.0,64.0
2258,68.0,120.0,120.0,0.0,64.0
2259,58.0,120.0,240.0,0.0,64.0
2260,85.0,0.0,120.0,0.0,64.0
2261,67.0,60.0,240.0,0.0,64.0
2262,76.0,0.0,120.0,0.0,64.0
2263,75.0,0.0,240.0,0.0,64.0
2264,59.0,0.0,240.0,0.0,64.0
2265,68.0,60.0,60.0,0.0,64.0
2266,70.0,60.0,60.0,0.0,64.0
2267,68.0,60.0,60.0,0.0,64.0
2268,61.0,0.0,240.0,0.0,64.0
2269,67.0,60.0,60.0,0.0,64.0
2270,65.0,60.0,60.0,0.0,64.0
2271,83.0,0.0,120.0,0.0,64.0
2272,63.0,60.0,60.0,0.0,64.0
2273,51.0,120.0,240.0,0.0,64.0
2274,73.0,0.0,60.0,0.0,64.0
2275,82.0,60.0,60.0,0.0,64.0
2276,72.0,120.0,60.0,0.0,64.0
2277,80.0,0.0,60.0,0.0,64.0
2278,79.0,0.0,120.0,0.0,64.0
2279,70.0,0.0,120.0,0.0,64.0
2280,80.0,60.0,120.0,0.0,64.0
2281,72.0,0.0,240.0,0.0,64.0
2282,56.0,0.0,240.0,0.0,64.0
2283,78.0,60.0,60.0,0.0,64.0
2284,77.0,60.0,60.0,0.0,64.0
2285,75.0,60.0,60.0,0.0,64.0
2286,54.0,30.0,240.0,0.0,64.0
2287,74.0,120.0,60.0,0.0,64.0
2288,75.0,0.0,120.0,0.0,64.0
2289,68.0,120.0,120.0,0.0,64.0
2290,73.0,30.0,30.0,0.0,64.0
2291,53.0,0.0,240.0,0.0,64.0
2292,71.0,60.0,30.0,0.0,64.0
2293,70.0,0.0,60.0,0.0,64.0
2294,71.0,120.0,240.0,0.0,64.0
2295,75.0,120.0,120.0,0.0,64.0
2296,56.0,0.0,240.0,0.0,64.0
2297,74.0,120.0,120.0,0.0,64.0
2298,59.0,0.0,240.0,0.0,64.0
2299,77.0,120.0,15.0,0.0,64.0
2300,80.0,120.0,120.0,0.0,64.0
2301,50.0,0.0,240.0,0.0,64.0
2302,68.0,0.0,120.0,0.0,64.0
2303,71.0,120.0,120.0,0.0,64.0
2304,51.0,120.0,240.0,0.0,64.0
2305,66.0,120.0,120.0,0.0,64.0
2306,70.0,0.0,120.0,0.0,64.0
2307,53.0,0.0,240.0,0.0,64.0
2308,74.0,0.0,240.0,0.0,64.0
2309,69.0,60.0,120.0,0.0,64.0
2310,54.0,0.0,240.0,0.0,64.0
2311,70.0,60.0,60.0,0.0,64.0
2312,74.0,120.0,60.0,0.0,64.0
2313,82.0,120.0,120.0,0.0,64.0
2314,75.0,0.0,120.0,0.0,64.0
2315,83.0,0.0,120.0,0.0,64.0
2316,63.0,120.0,120.0,0.0,64.0
2317,56.0,120.0,240.0,0.0,64.0
2318,80.0,0.0,120.0,0.0,64.0
2319,68.0,0.0,240.0,0.0,64.0
2320,77.0,60.0,120.0,0.0,64.0
2321,58.0,0.0,240.0,0.0,64.0
2322,66.0,60.0,60.0,0.0,64.0
2323,86.0,120.0,120.0,0.0,64.0
2324,65.0,0.0,60.0,0.0,64.0
2325,51.0,0.0,240.0,0.0,64.0
2326,87.0,120.0,120.0,0.0,64.0
2327,66.0,120.0,240.0,0.0,64.0
2328,75.0,120.0,240.0,0.0,64.0
2329,52.0,60.0,240.0,0.0,64.0
2330,73.0,60.0,180.0,0.0,64.0
2331,54.0,0.0,240.0,0.0,64.0
2332,81.0,120.0,360.0,0.0,64.0
2333,72.0,120.0,60.0,0.0,64.0
2334,73.0,60.0,120.0,0.0,64.0
2335,56.0,120.0,240.0,0.0,64.0
2336,72.0,60.0,60.0,0.0,64.0
2337,73.0,0.0,60.0,0.0,64.0
2338,75.0,0.0,120.0,0.0,64.0
2339,80.0,120.0,240.0,0.0,64.0
2340,58.0,60.0,240.0,0.0,64.0
2341,78.0,60.0,180.0,0.0,64.0
2342,87.0,120.0,360.0,0.0,64.0
2343,60.0,60.0,240.0,0.0,64.0
2344,76.0,120.0,60.0,0.0,64.0
2345,75.0,0.0,120.0,0.0,64.0
2346,49.0,0.0,240.0,0.0,64.0
2347,76.0,60.0,60.0,0.0,64.0
2348,78.0,0.0,60.0,0.0,64.0
2349,80.0,120.0,120.0,0.0,64.0
2350,85.0,120.0,240.0,0.0,64.0
2351,51.0,60.0,240.0,0.0,64.0
2352,83.0,60.0,180.0,0.0,64.0
2353,52.0,0.0,240.0,0.0,64.0
2354,68.0,0.0,360.0,0.0,64.0
2355,82.0,120.0,60.0,0.0,64.0
2356,80.0,60.0,120.0,0.0,64.0
2357,82.0,60.0,60.0,0.0,64.0
2358,54.0,0.0,240.0,0.0,64.0
2359,83.0,120.0,60.0,0.0,64.0
2360,66.0,120.0,240.0,0.0,64.0
2361,85.0,120.0,120.0,0.0,64.0
2362,56.0,60.0,240.0,0.0,64.0
2363,64.0,60.0,180.0,0.0,64.0
2364,58.0,60.0,240.0,0.0,64.0
2365,73.0,120.0,360.0,0.0,64.0
2366,63.0,120.0,60.0,0.0,64.0
2367,61.0,0.0,120.0,0.0,64.0
2368,47.0,0.0,240.0,0.0,64.0
2369,63.0,60.0,60.0,0.0,64.0
2370,64.0,0.0,60.0,0.0,64.0
2371,66.0,120.0,120.0,0.0,64.0
2372,71.0,120.0,240.0,0.0,64.0
2373,49.0,60.0,240.0,0.0,64.0
2374,70.0,60.0,180.0,0.0,64.0
2375,51.0,60.0,240.0,0.0,64.0
2376,78.0,60.0,300.0,0.0,64.0
2377,68.0,120.0,60.0,0.0,64.0
2378,66.0,0.0,120.0,0.0,64.0
2379,68.0,0.0,240.0,0.0,64.0
2380,52.0,120.0,360.0,0.0,64.0
2381,76.0,120.0,60.0,0.0,64.0
2382,73.0,30.0,30.0,0.0,64.0
2383,75.0,30.0,15.0,0.0,64.0
2384,71.0,60.0,30.0,0.0,64.0
2385,73.0,60.0,480.0,0.0,64.0
2386,51.0,240.0,120.0,0.0,64.0
2387,49.0,60.0,240.0,0.0,64.0
2388,76.0,60.0,600.0,0.0,64.0
2389,55.0,0.0,240.0,0.0,64.0
2390,71.0,120.0,60.0,0.0,64.0
2391,70.0,120.0,120.0,0.0,64.0
2392,56.0,60.0,240.0,0.0,64.0
2393,71.0,0.0,240.0,0.0,64.0
2394,75.0,60.0,60.0,0.0,64.0
2395,77.0,0.0,60.0,0.0,64.0
2396,79.0,60.0,60.0,0.0,64.0
2397,58.0,0.0,240.0,0.0,64.0
2398,85.0,60.0,300.0,0.0,64.0
2399,80.0,120.0,60.0,0.0,64.0
2400,82.0,60.0,120.0,0.0,64.0
2401,75.0,0.0,240.0,0.0,64.0
2402,59.0,120.0,360.0,0.0,64.0
2403,83.0,120.0,60.0,0.0,64.0
2404,82.0,120.0,120.0,0.0,64.0
2405,80.0,60.0,540.0,0.0,64.0
2406,83.0,60.0,840.0,0.0,64.0
2407,58.0,240.0,120.0,0.0,64.0
2408,56.0,60.0,240.0,0.0,64.0
2409,62.0,120.0,240.0,0.0,64.0
2410,78.0,120.0,60.0,0.0,64.0
2411,77.0,0.0,120.0,0.0,64.0
2412,63.0,60.0,240.0,0.0,64.0
2413,82.0,60.0,60.0,0.0,64.0
2414,80.0,0.0,60.0,0.0,64.0
2415,68.0,60.0,300.0,0.0,64.0
2416,53.0,60.0,240.0,0.0,64.0
2417,78.0,0.0,15.0,0.0,64.0
2418,77.0,120.0,60.0,0.0,64.0
2419,75.0,0.0,120.0,0.0,64.0
2420,54.0,120.0,360.0,0.0,64.0
2421,74.0,30.0,240.0,0.0,64.0
2422,66.0,120.0,60.0,0.0,64.0
2423,65.0,0.0,120.0,0.0,64.0
2424,66.0,60.0,840.0,0.0,64.0
2425,75.0,30.0,30.0,0.0,64.0
2426,74.0,60.0,30.0,0.0,64.0
2427,75.0,240.0,180.0,0.0,64.0
2428,53.0,0.0,120.0,0.0,64.0
2429,51.0,60.0,240.0,0.0,64.0
2430,87.0,60.0,300.0,0.0,64.0
2431,57.0,120.0,240.0,0.0,64.0
2432,86.0,120.0,60.0,0.0,64.0
2433,84.0,0.0,120.0,0.0,64.0
2434,86.0,60.0,240.0,0.0,64.0
2435,58.0,0.0,240.0,0.0,64.0
2436,65.0,60.0,60.0,0.0,64.0
2437,63.0,0.0,60.0,0.0,64.0
2438,65.0,60.0,60.0,0.0,64.0
2439,85.0,60.0,300.0,0.0,64.0
2440,67.0,120.0,60.0,0.0,64.0
2441,68.0,60.0,120.0,0.0,64.0
2442,55.0,0.0,240.0,0.0,64.0
2443,70.0,60.0,360.0,0.0,64.0
2444,84.0,120.0,60.0,0.0,64.0
2445,82.0,120.0,120.0,0.0,64.0
2446,56.0,0.0,240.0,0.0,64.0
2447,84.0,60.0,240.0,0.0,64.0
2448,68.0,60.0,60.0,0.0,64.0
2449,67.0,0.0,60.0,0.0,64.0
2450,68.0,60.0,60.0,0.0,64.0
2451,83.0,60.0,300.0,0.0,64.0
2452,70.0,120.0,60.0,0.0,64.0
2453,71.0,60.0,120.0,0.0,64.0
2454,53.0,0.0,240.0,0.0,64.0
2455,74.0,60.0,360.0,0.0,64.0
2456,82.0,120.0,60.0,0.0,64.0
2457,81.0,120.0,120.0,0.0,64.0
2458,54.0,0.0,240.0,0.0,64.0
2459,82.0,0.0,240.0,0.0,64.0
2460,75.0,60.0,60.0,0.0,64.0
2461,74.0,60.0,60.0,0.0,64.0
2462,81.0,60.0,300.0,0.0,64.0
2463,75.0,60.0,60.0,0.0,64.0
2464,77.0,120.0,60.0,0.0,64.0
2465,78.0,60.0,120.0,0.0,64.0
2466,72.0,60.0,360.0,0.0,64.0
2467,51.0,0.0,240.0,0.0,64.0
2468,80.0,120.0,60.0,0.0,64.0
2469,79.0,120.0,120.0,0.0,64.0
2470,52.0,0.0,240.0,0.0,64.0
2471,80.0,0.0,240.0,0.0,64.0
2472,73.0,60.0,60.0,0.0,64.0
2473,75.0,60.0,60.0,0.0,64.0
2474,68.0,60.0,300.0,0.0,64.0
2475,73.0,60.0,60.0,0.0,64.0
2476,71.0,120.0,60.0,0.0,64.0
2477,70.0,60.0,120.0,0.0,64.0
2478,50.0,120.0,240.0,0.0,64.0
2479,71.0,60.0,360.0,0.0,64.0
2480,66.0,120.0,60.0,0.0,64.0
2481,65.0,0.0,120.0,0.0,64.0
2482,66.0,60.0,240.0,0.0,64.0
2483,51.0,0.0,240.0,0.0,64.0
2484,70.0,60.0,60.0,0.0,64.0
2485,69.0,0.0,60.0,0.0,64.0
2486,78.0,60.0,300.0,0.0,64.0
2487,70.0,60.0,60.0,0.0,64.0
2488,74.0,120.0,60.0,0.0,64.0
2489,75.0,60.0,120.0,0.0,64.0
2490,63.0,0.0,240.0,0.0,64.0
2491,47.0,0.0,240.0,0.0,64.0
2492,77.0,120.0,60.0,0.0,64.0
2493,75.0,240.0,120.0,0.0,64.0
2494,77.0,0.0,240.0,0.0,64.0
2495,68.0,0.0,240.0,0.0,64.0
2496,44.0,30.0,240.0,0.0,64.0
2497,74.0,0.0,30.0,0.0,64.0
2498,65.0,30.0,30.0,0.0,64.0
2499,46.0,480.0,240.0,0.0,64.0
2500,66.0,180.0,30.0,0.0,64.0
2501,75.0,0.0,30.0,0.0,64.0
2502,74.0,0.0,180.0,0.0,64.0
2503,65.0,0.0,180.0,0.0,64.0
2504,51.0,0.0,480.0,0.0,64.0
2505,63.0,0.0,480.0,0.0,64.0
2506,75.0,240.0,15.0,0.0,64.0
2507,80.0,30.0,30.0,0.0,64.0
2508,56.0,120.0,240.0,0.0,64.0
2509,82.0,180.0,30.0,0.0,64.0
2510,83.0,120.0,300.0,0.0,64.0
2511,58.0,240.0,240.0,0.0,64.0
2512,82.0,0.0,120.0,0.0,64.0
2513,59.0,120.0,240.0,0.0,64.0
2514,61.0,240.0,240.0,0.0,64.0
2515,80.0,0.0,15.0,0.0,64.0
2516,79.0,0.0,120.0,0.0,64.0
2517,59.0,0.0,240.0,0.0,64.0
2518,80.0,240.0,240.0,0.0,64.0
2519,61.0,120.0,240.0,0.0,64.0
2520,63.0,120.0,240.0,0.0,64.0
2521,73.0,120.0,120.0,0.0,64.0
2522,72.0,60.0,240.0,0.0,64.0
2523,64.0,60.0,240.0,0.0,64.0
2524,73.0,60.0,60.0,0.0,64.0
2525,75.0,0.0,60.0,0.0,64.0
2526,73.0,60.0,60.0,0.0,64.0
2527,66.0,60.0,240.0,0.0,64.0
2528,72.0,60.0,60.0,0.0,64.0
2529,70.0,60.0,60.0,0.0,64.0
2530,68.0,0.0,60.0,0.0,64.0
2531,78.0,60.0,60.0,0.0,64.0
2532,56.0,0.0,240.0,0.0,64.0
2533,77.0,120.0,60.0,0.0,64.0
2534,75.0,240.0,120.0,0.0,64.0
2535,61.0,0.0,240.0,0.0,64.0
2536,77.0,240.0,240.0,0.0,64.0
2537,59.0,30.0,240.0,0.0,64.0
2538,58.0,120.0,240.0,0.0,64.0
2539,78.0,30.0,30.0,0.0,64.0
2540,76.0,60.0,30.0,0.0,64.0
2541,75.0,120.0,60.0,0.0,64.0
2542,76.0,120.0,240.0,0.0,64.0
2543,61.0,120.0,240.0,0.0,64.0
2544,79.0,120.0,240.0,0.0,64.0
2545,64.0,120.0,240.0,0.0,64.0
2546,82.0,0.0,120.0,0.0,64.0
2547,55.0,120.0,240.0,0.0,64.0
2548,85.0,120.0,120.0,0.0,64.0
2549,56.0,120.0,240.0,0.0,64.0
2550,76.0,0.0,15.0,0.0,64.0
2551,75.0,120.0,240.0,0.0,64.0
2552,58.0,60.0,240.0,0.0,64.0
2553,74.0,0.0,120.0,0.0,64.0
2554,75.0,60.0,60.0,0.0,64.0
2555,59.0,0.0,240.0,0.0,64.0
2556,79.0,120.0,60.0,0.0,64.0
2557,80.0,120.0,120.0,0.0,64.0
2558,68.0,120.0,120.0,0.0,64.0
2559,61.0,120.0,240.0,0.0,64.0
2560,73.0,60.0,240.0,0.0,64.0
2561,63.0,0.0,240.0,0.0,64.0
2562,71.0,60.0,60.0,0.0,64.0
2563,70.0,120.0,60.0,0.0,64.0
2564,56.0,0.0,240.0,0.0,64.0
2565,71.0,120.0,120.0,0.0,64.0
2566,83.0,120.0,120.0,0.0,64.0
2567,54.0,120.0,240.0,0.0,64.0
2568,82.0,120.0,120.0,0.0,64.0
2569,75.0,120.0,240.0,0.0,64.0
2570,68.0,0.0,240.0,0.0,64.0
2571,53.0,60.0,240.0,0.0,64.0
2572,74.0,0.0,120.0,0.0,64.0
2573,75.0,0.0,60.0,0.0,64.0
2574,51.0,120.0,240.0,0.0,64.0
2575,77.0,30.0,60.0,0.0,64.0
2576,78.0,120.0,300.0,0.0,64.0
2577,73.0,120.0,60.0,0.0,64.0
2578,71.0,0.0,120.0,0.0,64.0
2579,53.0,240.0,240.0,0.0,64.0
2580,70.0,120.0,840.0,0.0,64.0
2581,77.0,0.0,120.0,0.0,64.0
2582,54.0,120.0,240.0,0.0,64.0
2583,75.0,0.0,15.0,0.0,64.0
2584,56.0,120.0,240.0,0.0,64.0
2585,74.0,0.0,120.0,0.0,64.0
2586,75.0,60.0,240.0,0.0,64.0
2587,54.0,0.0,240.0,0.0,64.0
2588,82.0,0.0,120.0,0.0,64.0
2589,56.0,0.0,240.0,0.0,64.0
2590,80.0,60.0,60.0,0.0,64.0
2591,79.0,60.0,60.0,0.0,64.0
2592,77.0,60.0,60.0,0.0,64.0
2593,79.0,120.0,60.0,0.0,64.0
2594,68.0,120.0,120.0,0.0,64.0
2595,58.0,0.0,240.0,0.0,64.0
2596,85.0,0.0,120.0,0.0,64.0
2597,76.0,120.0,120.0,0.0,64.0
2598,67.0,60.0,240.0,0.0,64.0
2599,75.0,0.0,240.0,0.0,64.0
2600,59.0,0.0,240.0,0.0,64.0
2601,68.0,60.0,60.0,0.0,64.0
2602,70.0,60.0,60.0,0.0,64.0
2603,68.0,60.0,60.0,0.0,64.0
2604,61.0,0.0,240.0,0.0,64.0
2605,67.0,60.0,60.0,0.0,64.0
2606,83.0,60.0,120.0,0.0,64.0
2607,65.0,60.0,60.0,0.0,64.0
2608,63.0,0.0,60.0,0.0,64.0
2609,73.0,60.0,60.0,0.0,64.0
2610,51.0,0.0,240.0,0.0,64.0
2611,82.0,0.0,60.0,0.0,64.0
2612,80.0,0.0,60.0,0.0,64.0
2613,72.0,120.0,60.0,0.0,64.0
2614,79.0,0.0,120.0,0.0,64.0
2615,70.0,120.0,120.0,0.0,64.0
2616,80.0,60.0,120.0,0.0,64.0
2617,72.0,60.0,240.0,0.0,64.0
2618,56.0,0.0,240.0,0.0,64.0
2619,78.0,60.0,60.0,0.0,64.0
2620,77.0,0.0,60.0,0.0,64.0
2621,54.0,30.0,240.0,0.0,64.0
2622,75.0,60.0,60.0,0.0,64.0
2623,74.0,120.0,60.0,0.0,64.0
2624,75.0,0.0,120.0,0.0,64.0
2625,53.0,0.0,240.0,0.0,64.0
2626,73.0,30.0,30.0,0.0,64.0
2627,68.0,120.0,120.0,0.0,64.0
2628,71.0,60.0,30.0,0.0,64.0
2629,70.0,0.0,60.0,0.0,64.0
2630,71.0,120.0,240.0,0.0,64.0
2631,75.0,120.0,120.0,0.0,64.0
2632,56.0,0.0,240.0,0.0,64.0
2633,74.0,120.0,120.0,0.0,64.0
2634,59.0,0.0,240.0,0.0,64.0
2635,50.0,120.0,240.0,0.0,64.0
2636,80.0,120.0,120.0,0.0,64.0
2637,77.0,120.0,15.0,0.0,64.0
2638,71.0,0.0,120.0,0.0,64.0
2639,68.0,0.0,120.0,0.0,64.0
2640,66.0,120.0,120.0,0.0,64.0
2641,51.0,120.0,240.0,0.0,64.0
2642,70.0,0.0,120.0,0.0,64.0
2643,74.0,0.0,240.0,0.0,64.0
2644,53.0,0.0,240.0,0.0,64.0
2645,69.0,60.0,120.0,0.0,64.0
2646,54.0,0.0,240.0,0.0,64.0
2647,70.0,60.0,60.0,0.0,64.0
2648,74.0,120.0,60.0,0.0,64.0
2649,75.0,0.0,120.0,0.0,64.0
2650,82.0,120.0,120.0,0.0,64.0
2651,83.0,120.0,120.0,0.0,64.0
2652,63.0,0.0,120.0,0.0,64.0
2653,56.0,120.0,240.0,0.0,64.0
2654,68.0,0.0,240.0,0.0,64.0
2655,80.0,0.0,120.0,0.0,64.0
2656,58.0,120.0,240.0,0.0,64.0
2657,77.0,60.0,120.0,0.0,64.0
2658,66.0,60.0,60.0,0.0,64.0
2659,86.0,0.0,120.0,0.0,64.0
2660,65.0,0.0,60.0,0.0,64.0
2661,51.0,0.0,240.0,0.0,64.0
2662,66.0,120.0,240.0,0.0,64.0
2663,87.0,120.0,120.0,0.0,64.0
2664,75.0,120.0,240.0,0.0,64.0
2665,52.0,60.0,240.0,0.0,64.0
2666,73.0,60.0,180.0,0.0,64.0
2667,54.0,0.0,240.0,0.0,64.0
2668,81.0,0.0,360.0,0.0,64.0
2669,72.0,120.0,60.0,0.0,64.0
2670,73.0,60.0,120.0,0.0,64.0
2671,56.0,0.0,240.0,0.0,64.0
2672,72.0,60.0,60.0,0.0,64.0
2673,73.0,120.0,60.0,0.0,64.0
2674,75.0,120.0,120.0,0.0,64.0
2675,80.0,120.0,240.0,0.0,64.0
2676,58.0,60.0,240.0,0.0,64.0
2677,78.0,60.0,180.0,0.0,64.0
2678,87.0,0.0,360.0,0.0,64.0
2679,60.0,0.0,240.0,0.0,64.0
2680,76.0,120.0,60.0,0.0,64.0
2681,75.0,60.0,120.0,0.0,64.0
2682,49.0,0.0,240.0,0.0,64.0
2683,76.0,60.0,60.0,0.0,64.0
2684,78.0,120.0,60.0,0.0,64.0
2685,80.0,120.0,120.0,0.0,64.0
2686,85.0,120.0,240.0,0.0,64.0
2687,51.0,60.0,240.0,0.0,64.0
2688,83.0,60.0,180.0,0.0,64.0
2689,68.0,0.0,360.0,0.0,64.0
2690,52.0,60.0,240.0,0.0,64.0
2691,82.0,120.0,60.0,0.0,64.0
2692,80.0,0.0,120.0,0.0,64.0
2693,54.0,0.0,240.0,0.0,64.0
2694,82.0,60.0,60.0,0.0,64.0
2695,83.0,120.0,60.0,0.0,64.0
2696,85.0,120.0,120.0,0.0,64.0
2697,66.0,120.0,240.0,0.0,64.0
2698,56.0,60.0,240.0,0.0,64.0
2699,64.0,60.0,180.0,0.0,64.0
2700,58.0,60.0,240.0,0.0,64.0
2701,73.0,120.0,360.0,0.0,64.0
2702,63.0,120.0,60.0,0.0,64.0
2703,61.0,0.0,120.0,0.0,64.0
2704,63.0,60.0,60.0,0.0,64.0
2705,47.0,0.0,240.0,0.0,64.0
2706,64.0,0.0,60.0,0.0,64.0
2707,71.0,120.0,240.0,0.0,64.0
2708,66.0,120.0,120.0,0.0,64.0
2709,49.0,60.0,240.0,0.0,64.0
2710,70.0,60.0,180.0,0.0,64.0
2711,78.0,60.0,300.0,0.0,64.0
2712,51.0,60.0,240.0,0.0,64.0
2713,68.0,120.0,60.0,0.0,64.0
2714,66.0,0.0,120.0,0.0,64.0
2715,68.0,0.0,240.0,0.0,64.0
2716,52.0,120.0,360.0,0.0,64.0
2717,76.0,120.0,60.0,0.0,64.0
2718,75.0,30.0,15.0,0.0,64.0
2719,73.0,30.0,30.0,0.0,64.0
2720,71.0,60.0,30.0,0.0,64.0
2721,73.0,60.0,480.0,0.0,64.0
2722,51.0,240.0,120.0,0.0,64.0
2723,76.0,60.0,720.0,0.0,64.0
2724,49.0,60.0,240.0,0.0,64.0
2725,55.0,120.0,240.0,0.0,64.0
2726,71.0,120.0,60.0,0.0,64.0
2727,70.0,0.0,120.0,0.0,64.0
2728,71.0,60.0,240.0,0.0,64.0
2729,56.0,0.0,240.0,0.0,64.0
2730,75.0,60.0,60.0,0.0,64.0
2731,77.0,0.0,60.0,0.0,64.0
2732,58.0,0.0,240.0,0.0,64.0
2733,79.0,60.0,60.0,0.0,64.0
2734,85.0,60.0,300.0,0.0,64.0
2735,80.0,120.0,60.0,0.0,64.0
2736,82.0,60.0,120.0,0.0,64.0
2737,59.0,120.0,360.0,0.0,64.0
2738,75.0,0.0,240.0,0.0,64.0
2739,83.0,120.0,60.0,0.0,64.0
2740,82.0,120.0,120.0,0.0,64.0
2741,83.0,60.0,840.0,0.0,64.0
2742,80.0,60.0,540.0,0.0,64.0
2743,58.0,240.0,120.0,0.0,64.0
2744,56.0,60.0,240.0,0.0,64.0
2745,62.0,120.0,240.0,0.0,64.0
2746,78.0,120.0,60.0,0.0,64.0
2747,77.0,0.0,120.0,0.0,64.0
2748,63.0,0.0,240.0,0.0,64.0
2749,82.0,60.0,60.0,0.0,64.0
2750,80.0,0.0,60.0,0.0,64.0
2751,78.0,60.0,15.0,0.0,64.0
2752,53.0,60.0,240.0,0.0,64.0
2753,68.0,60.0,300.0,0.0,64.0
2754,77.0,120.0,60.0,0.0,64.0
2755,75.0,0.0,120.0,0.0,64.0
2756,74.0,30.0,240.0,0.0,64.0
2757,54.0,120.0,360.0,0.0,64.0
2758,66.0,120.0,60.0,0.0,64.0
2759,65.0,0.0,120.0,0.0,64.0
2760,75.0,30.0,30.0,0.0,64.0
2761,66.0,60.0,840.0,0.0,64.0
2762,74.0,60.0,30.0,0.0,64.0
2763,75.0,0.0,180.0,0.0,64.0
2764,53.0,240.0,120.0,0.0,64.0
2765,51.0,60.0,240.0,0.0,64.0
2766,87.0,60.0,300.0,0.0,64.0
2767,57.0,0.0,240.0,0.0,64.0
2768,86.0,120.0,60.0,0.0,64.0
2769,84.0,120.0,120.0,0.0,64.0
2770,58.0,60.0,240.0,0.0,64.0
2771,86.0,0.0,240.0,0.0,64.0
2772,65.0,60.0,60.0,0.0,64.0
2773,63.0,0.0,60.0,0.0,64.0
2774,65.0,60.0,60.0,0.0,64.0
2775,85.0,60.0,300.0,0.0,64.0
2776,67.0,120.0,60.0,0.0,64.0
2777,68.0,60.0,120.0,0.0,64.0
2778,55.0,0.0,240.0,0.0,64.0
2779,70.0,60.0,360.0,0.0,64.0
2780,84.0,120.0,60.0,0.0,64.0
2781,82.0,120.0,120.0,0.0,64.0
2782,56.0,60.0,240.0,0.0,64.0
2783,84.0,0.0,240.0,0.0,64.0
2784,68.0,60.0,60.0,0.0,64.0
2785,67.0,0.0,60.0,0.0,64.0
2786,68.0,60.0,60.0,0.0,64.0
2787,83.0,60.0,300.0,0.0,64.0
2788,70.0,120.0,60.0,0.0,64.0
2789,71.0,60.0,120.0,0.0,64.0
2790,74.0,60.0,360.0,0.0,64.0
2791,53.0,0.0,240.0,0.0,64.0
2792,82.0,120.0,60.0,0.0,64.0
2793,81.0,120.0,120.0,0.0,64.0
2794,54.0,0.0,240.0,0.0,64.0
2795,82.0,60.0,240.0,0.0,64.0
2796,75.0,60.0,60.0,0.0,64.0
2797,74.0,0.0,60.0,0.0,64.0
2798,81.0,60.0,300.0,0.0,64.0
2799,75.0,60.0,60.0,0.0,64.0
2800,77.0,120.0,60.0,0.0,64.0
2801,78.0,60.0,120.0,0.0,64.0
2802,72.0,60.0,360.0,0.0,64.0
2803,51.0,120.0,240.0,0.0,64.0
2804,80.0,120.0,60.0,0.0,64.0
2805,79.0,0.0,120.0,0.0,64.0
2806,80.0,60.0,240.0,0.0,64.0
2807,52.0,0.0,240.0,0.0,64.0
2808,73.0,60.0,60.0,0.0,64.0
2809,75.0,0.0,60.0,0.0,64.0
2810,68.0,60.0,300.0,0.0,64.0
2811,73.0,60.0,60.0,0.0,64.0
2812,71.0,120.0,60.0,0.0,64.0
2813,70.0,60.0,120.0,0.0,64.0
2814,71.0,60.0,360.0,0.0,64.0
2815,50.0,120.0,240.0,0.0,64.0
2816,66.0,120.0,60.0,0.0,64.0
2817,65.0,0.0,120.0,0.0,64.0
2818,51.0,0.0,240.0,0.0,64.0
2819,66.0,60.0,240.0,0.0,64.0
2820,70.0,60.0,60.0,0.0,64.0
2821,69.0,0.0,60.0,0.0,64.0
2822,70.0,60.0,60.0,0.0,64.0
2823,78.0,60.0,300.0,0.0,64.0
2824,74.0,120.0,60.0,0.0,64.0
2825,75.0,60.0,120.0,0.0,64.0
2826,63.0,0.0,240.0,0.0,64.0
2827,47.0,240.0,240.0,0.0,64.0
2828,77.0,120.0,60.0,0.0,64.0
2829,75.0,0.0,120.0,0.0,64.0
2830,77.0,30.0,240.0,0.0,64.0
2831,68.0,0.0,240.0,0.0,64.0
2832,44.0,0.0,240.0,0.0,64.0
2833,74.0,0.0,30.0,0.0,64.0
2834,65.0,30.0,30.0,0.0,64.0
2835,46.0,0.0,240.0,0.0,64.0
2836,75.0,0.0,30.0,0.0,64.0
2837,66.0,180.0,30.0,0.0,64.0
2838,74.0,240.0,180.0,0.0,64.0
2839,65.0,0.0,180.0,0.0,64.0
2840,75.0,0.0,480.0,0.0,64.0
2841,51.0,240.0,240.0,0.0,64.0
2842,63.0,0.0,240.0,0.0,64.0
2843,54.0,240.0,240.0,0.0,64.0
2844,70.0,120.0,240.0,0.0,64.0
2845,58.0,0.0,240.0,0.0,64.0
2846,68.0,120.0,120.0,0.0,64.0
2847,67.0,60.0,240.0,0.0,64.0
2848,61.0,120.0,15.0,0.0,64.0
2849,63.0,60.0,60.0,0.0,64.0
2850,65.0,0.0,60.0,0.0,64.0
2851,61.0,60.0,15.0,0.0,64.0
2852,67.0,60.0,60.0,0.0,64.0
2853,68.0,120.0,60.0,0.0,64.0
2854,70.0,0.0,120.0,0.0,64.0
2855,73.0,60.0,360.0,0.0,64.0
2856,58.0,120.0,15.0,0.0,64.0
2857,67.0,60.0,60.0,0.0,64.0
2858,68.0,0.0,60.0,0.0,64.0
2859,58.0,60.0,15.0,0.0,64.0
2860,70.0,60.0,60.0,0.0,64.0
2861,71.0,120.0,60.0,0.0,64.0
2862,73.0,120.0,120.0,0.0,64.0
2863,76.0,120.0,120.0,0.0,64.0
2864,75.0,60.0,240.0,0.0,64.0
2865,55.0,120.0,15.0,0.0,64.0
2866,73.0,60.0,60.0,0.0,64.0
2867,71.0,60.0,60.0,0.0,64.0
2868,55.0,0.0,15.0,0.0,64.0
2869,70.0,60.0,60.0,0.0,64.0
2870,71.0,120.0,60.0,0.0,64.0
2871,73.0,120.0,240.0,0.0,64.0
2872,56.0,120.0,240.0,0.0,64.0
2873,71.0,60.0,240.0,0.0,64.0
2874,59.0,0.0,240.0,0.0,64.0
2875,70.0,60.0,60.0,0.0,64.0
2876,68.0,60.0,60.0,0.0,64.0
2877,63.0,120.0,240.0,0.0,64.0
2878,75.0,0.0,240.0,0.0,64.0
2879,67.0,60.0,60.0,0.0,64.0
2880,68.0,120.0,60.0,0.0,64.0
2881,70.0,0.0,120.0,0.0,64.0
2882,73.0,120.0,120.0,0.0,64.0
2883,68.0,0.0,120.0,0.0,64.0
2884,72.0,120.0,120.0,0.0,64.0
2885,66.0,0.0,15.0,0.0,64.0
2886,75.0,60.0,240.0,0.0,64.0
2887,68.0,60.0,60.0,0.0,64.0
2888,70.0,0.0,60.0,0.0,64.0
2889,66.0,0.0,15.0,0.0,64.0
2890,72.0,60.0,60.0,0.0,64.0
2891,73.0,120.0,60.0,0.0,64.0
2892,75.0,120.0,120.0,0.0,64.0
2893,72.0,120.0,120.0,0.0,64.0
2894,75.0,0.0,120.0,0.0,64.0
2895,78.0,60.0,120.0,0.0,64.0
2896,63.0,120.0,15.0,0.0,64.0
2897,72.0,60.0,60.0,0.0,64.0
2898,73.0,0.0,60.0,0.0,64.0
2899,75.0,60.0,60.0,0.0,64.0
2900,63.0,60.0,15.0,0.0,64.0
2901,76.0,120.0,60.0,0.0,64.0
2902,78.0,120.0,120.0,0.0,64.0
2903,82.0,120.0,120.0,0.0,64.0
2904,80.0,60.0,240.0,0.0,64.0
2905,60.0,120.0,15.0,0.0,64.0
2906,75.0,0.0,120.0,0.0,64.0
2907,78.0,60.0,60.0,0.0,64.0
2908,76.0,0.0,60.0,0.0,64.0
2909,75.0,60.0,60.0,0.0,64.0
2910,60.0,60.0,15.0,0.0,64.0
2911,81.0,120.0,240.0,0.0,64.0
2912,76.0,120.0,60.0,0.0,64.0
2913,78.0,120.0,240.0,0.0,64.0
2914,80.0,120.0,240.0,0.0,64.0
2915,61.0,0.0,240.0,0.0,64.0
2916,76.0,60.0,240.0,0.0,64.0
2917,52.0,60.0,240.0,0.0,64.0
2918,75.0,60.0,60.0,0.0,64.0
2919,73.0,0.0,60.0,0.0,64.0
2920,72.0,60.0,60.0,0.0,64.0
2921,56.0,60.0,240.0,0.0,64.0
2922,73.0,120.0,60.0,0.0,64.0
2923,75.0,0.0,120.0,0.0,64.0
2924,76.0,60.0,60.0,0.0,64.0
2925,73.0,60.0,240.0,0.0,64.0
2926,49.0,0.0,360.0,0.0,64.0
2927,81.0,60.0,60.0,0.0,64.0
2928,80.0,60.0,60.0,0.0,64.0
2929,78.0,0.0,60.0,0.0,64.0
2930,80.0,60.0,60.0,0.0,64.0
2931,85.0,60.0,60.0,0.0,64.0
2932,51.0,0.0,120.0,0.0,64.0
2933,83.0,60.0,60.0,0.0,64.0
2934,81.0,60.0,60.0,0.0,64.0
2935,53.0,0.0,240.0,0.0,64.0
2936,80.0,60.0,300.0,0.0,64.0
2937,83.0,60.0,60.0,0.0,64.0
2938,74.0,60.0,60.0,0.0,64.0
2939,73.0,60.0,60.0,0.0,64.0
2940,71.0,60.0,60.0,0.0,64.0
2941,77.0,60.0,240.0,0.0,64.0
2942,47.0,0.0,240.0,0.0,64.0
2943,74.0,60.0,60.0,0.0,64.0
2944,73.0,60.0,60.0,0.0,64.0
2945,71.0,0.0,60.0,0.0,64.0
2946,45.0,0.0,240.0,0.0,64.0
2947,73.0,60.0,60.0,0.0,64.0
2948,79.0,60.0,60.0,0.0,64.0
2949,78.0,60.0,60.0,0.0,64.0
2950,77.0,0.0,60.0,0.0,64.0
2951,78.0,60.0,15.0,0.0,64.0
2952,86.0,60.0,60.0,0.0,64.0
2953,85.0,60.0,60.0,0.0,64.0
2954,84.0,60.0,60.0,0.0,64.0
2955,79.0,60.0,60.0,0.0,64.0
2956,51.0,0.0,360.0,0.0,64.0
2957,85.0,0.0,240.0,0.0,64.0
2958,83.0,60.0,60.0,0.0,64.0
2959,82.0,60.0,60.0,0.0,64.0
2960,80.0,60.0,60.0,0.0,64.0
2961,79.0,0.0,240.0,0.0,64.0
2962,82.0,60.0,60.0,0.0,64.0
2963,87.0,60.0,60.0,0.0,64.0
2964,85.0,60.0,60.0,0.0,64.0
2965,53.0,0.0,120.0,0.0,64.0
2966,83.0,60.0,60.0,0.0,64.0
2967,82.0,60.0,300.0,0.0,64.0
2968,55.0,0.0,240.0,0.0,64.0
2969,85.0,60.0,60.0,0.0,64.0
2970,76.0,60.0,60.0,0.0,64.0
2971,75.0,60.0,60.0,0.0,64.0
2972,73.0,60.0,60.0,0.0,64.0
2973,79.0,0.0,240.0,0.0,64.0
2974,49.0,0.0,240.0,0.0,64.0
2975,76.0,60.0,60.0,0.0,64.0
2976,75.0,60.0,60.0,0.0,64.0
2977,73.0,60.0,60.0,0.0,64.0
2978,75.0,60.0,60.0,0.0,64.0
2979,47.0,0.0,240.0,0.0,64.0
2980,81.0,60.0,60.0,0.0,64.0
2981,80.0,60.0,60.0,0.0,64.0
2982,79.0,0.0,60.0,0.0,64.0
2983,80.0,60.0,15.0,0.0,64.0
2984,88.0,60.0,60.0,0.0,64.0
2985,87.0,60.0,60.0,0.0,64.0
2986,86.0,180.0,60.0,0.0,64.0
2987,60.0,0.0,360.0,0.0,64.0
2988,87.0,0.0,240.0,0.0,64.0
2989,68.0,60.0,60.0,0.0,64.0
2990,70.0,60.0,60.0,0.0,64.0
2991,72.0,60.0,60.0,0.0,64.0
2992,73.0,60.0,60.0,0.0,64.0
2993,81.0,0.0,60.0,0.0,64.0
2994,75.0,60.0,60.0,0.0,64.0
2995,61.0,0.0,120.0,0.0,64.0
2996,80.0,60.0,60.0,0.0,64.0
2997,76.0,0.0,60.0,0.0,64.0
2998,63.0,30.0,240.0,0.0,64.0
2999,78.0,60.0,60.0,0.0,64.0
3000,76.0,60.0,60.0,0.0,64.0
3001,75.0,60.0,60.0,0.0,64.0
3002,73.0,0.0,60.0,0.0,64.0
3003,72.0,30.0,30.0,0.0,64.0
3004,57.0,0.0,240.0,0.0,64.0
3005,73.0,0.0,30.0,0.0,64.0
3006,75.0,60.0,60.0,0.0,64.0
3007,72.0,60.0,60.0,0.0,64.0
3008,73.0,60.0,60.0,0.0,64.0
3009,56.0,60.0,240.0,0.0,64.0
3010,75.0,60.0,60.0,0.0,64.0
3011,76.0,60.0,60.0,0.0,64.0
3012,78.0,60.0,60.0,0.0,64.0
3013,80.0,0.0,60.0,0.0,64.0
3014,81.0,60.0,60.0,0.0,64.0
3015,80.0,60.0,60.0,0.0,64.0
3016,79.0,60.0,60.0,0.0,64.0
3017,80.0,30.0,60.0,0.0,64.0
3018,56.0,30.0,240.0,0.0,64.0
3019,78.0,30.0,30.0,0.0,64.0
3020,77.0,30.0,30.0,0.0,64.0
3021,75.0,30.0,60.0,0.0,64.0
3022,78.0,30.0,30.0,0.0,64.0
3023,77.0,0.0,30.0,0.0,64.0
3024,78.0,30.0,30.0,0.0,64.0
3025,73.0,30.0,60.0,0.0,64.0
3026,77.0,0.0,30.0,0.0,64.0
3027,78.0,30.0,30.0,0.0,64.0
3028,72.0,0.0,60.0,0.0,64.0
3029,77.0,0.0,30.0,0.0,64.0
3030,73.0,30.0,60.0,0.0,64.0
3031,78.0,30.0,30.0,0.0,64.0
3032,55.0,30.0,240.0,0.0,64.0
3033,77.0,0.0,15.0,0.0,64.0
3034,78.0,30.0,30.0,0.0,64.0
3035,77.0,0.0,30.0,0.0,64.0
3036,80.0,0.0,60.0,0.0,64.0
3037,78.0,30.0,30.0,0.0,64.0
3038,77.0,30.0,30.0,0.0,64.0
3039,84.0,0.0,60.0,0.0,64.0
3040,78.0,30.0,30.0,0.0,64.0
3041,77.0,0.0,30.0,0.0,64.0
3042,85.0,240.0,480.0,0.0,64.0
3043,78.0,30.0,30.0,0.0,64.0
3044,76.0,30.0,30.0,0.0,64.0
3045,78.0,30.0,30.0,0.0,64.0
3046,76.0,30.0,30.0,0.0,64.0
3047,78.0,30.0,30.0,0.0,64.0
3048,76.0,30.0,30.0,0.0,64.0
3049,78.0,270.0,30.0,0.0,64.0
3050,76.0,0.0,270.0,0.0,64.0
3051,56.0,0.0,240.0,0.0,64.0
3052,44.0,0.0,240.0,0.0,64.0
3053,75.0,240.0,240.0,0.0,64.0
3054,84.0,0.0,240.0,0.0,64.0
3055,48.0,30.0,240.0,0.0,64.0
3056,68.0,0.0,240.0,0.0,64.0
3057,49.0,120.0,240.0,0.0,64.0
3058,73.0,30.0,30.0,0.0,64.0
3059,75.0,180.0,30.0,0.0,64.0
3060,76.0,120.0,300.0,0.0,64.0
3061,51.0,240.0,240.0,0.0,64.0
3062,75.0,0.0,120.0,0.0,64.0
3063,73.0,30.0,240.0,0.0,64.0
3064,52.0,0.0,240.0,0.0,64.0
3065,72.0,30.0,30.0,0.0,64.0
3066,54.0,0.0,240.0,0.0,64.0
3067,73.0,180.0,30.0,0.0,64.0
3068,72.0,240.0,180.0,0.0,64.0
3069,52.0,240.0,240.0,0.0,64.0
3070,73.0,0.0,240.0,0.0,64.0
3071,54.0,120.0,240.0,0.0,64.0
3072,66.0,120.0,120.0,0.0,64.0
3073,56.0,120.0,240.0,0.0,64.0
3074,65.0,60.0,240.0,0.0,64.0
3075,57.0,60.0,240.0,0.0,64.0
3076,66.0,60.0,60.0,0.0,64.0
3077,68.0,0.0,60.0,0.0,64.0
3078,66.0,60.0,60.0,0.0,64.0
3079,59.0,60.0,240.0,0.0,64.0
3080,65.0,60.0,60.0,0.0,64.0
3081,63.0,60.0,60.0,0.0,64.0
3082,61.0,0.0,60.0,0.0,64.0
3083,71.0,60.0,60.0,0.0,64.0
3084,49.0,120.0,240.0,0.0,64.0
3085,70.0,120.0,60.0,0.0,64.0
3086,68.0,0.0,15.0,0.0,64.0
3087,54.0,0.0,240.0,0.0,64.0
3088,70.0,240.0,120.0,0.0,64.0
3089,52.0,30.0,240.0,0.0,64.0
3090,71.0,30.0,30.0,0.0,64.0
3091,51.0,120.0,240.0,0.0,64.0
3092,69.0,60.0,30.0,0.0,64.0
3093,68.0,120.0,60.0,0.0,64.0
3094,69.0,120.0,240.0,0.0,64.0
3095,54.0,120.0,240.0,0.0,64.0
3096,72.0,120.0,240.0,0.0,64.0
3097,57.0,120.0,240.0,0.0,64.0
3098,75.0,0.0,120.0,0.0,64.0
3099,48.0,240.0,240.0,0.0,64.0
3100,78.0,120.0,120.0,0.0,64.0
3101,69.0,0.0,120.0,0.0,64.0
3102,49.0,120.0,240.0,0.0,64.0
3103,68.0,120.0,360.0,0.0,64.0
3104,51.0,60.0,240.0,0.0,64.0
3105,67.0,0.0,120.0,0.0,64.0
3106,52.0,0.0,240.0,0.0,64.0
3107,68.0,60.0,60.0,0.0,64.0
3108,72.0,120.0,60.0,0.0,64.0
3109,73.0,120.0,120.0,0.0,64.0
3110,61.0,120.0,120.0,0.0,64.0
3111,54.0,120.0,240.0,0.0,64.0
3112,66.0,60.0,240.0,0.0,64.0
3113,56.0,0.0,240.0,0.0,64.0
3114,64.0,60.0,60.0,0.0,64.0
3115,63.0,120.0,60.0,0.0,64.0
3116,49.0,120.0,240.0,0.0,64.0
3117,64.0,120.0,120.0,0.0,64.0
3118,76.0,0.0,120.0,0.0,64.0
3119,75.0,120.0,120.0,0.0,64.0
3120,47.0,120.0,240.0,0.0,64.0
3121,68.0,120.0,240.0,0.0,64.0
3122,46.0,0.0,240.0,0.0,64.0
3123,73.0,60.0,240.0,0.0,64.0
3124,67.0,0.0,120.0,0.0,64.0
3125,68.0,0.0,60.0,0.0,64.0
3126,80.0,60.0,60.0,0.0,64.0
3127,44.0,0.0,240.0,0.0,64.0
3128,66.0,0.0,60.0,0.0,64.0
3129,82.0,120.0,60.0,0.0,64.0
3130,64.0,120.0,120.0,0.0,64.0
3131,83.0,120.0,240.0,0.0,64.0
3132,46.0,240.0,240.0,0.0,64.0
3133,63.0,120.0,840.0,0.0,64.0
3134,82.0,0.0,120.0,0.0,64.0
3135,47.0,0.0,240.0,0.0,64.0
3136,80.0,240.0,240.0,0.0,64.0
3137,79.0,0.0,240.0,0.0,64.0
3138,49.0,120.0,240.0,0.0,64.0
3139,80.0,60.0,240.0,0.0,64.0
3140,47.0,0.0,240.0,0.0,64.0
3141,75.0,0.0,120.0,0.0,64.0
3142,73.0,60.0,60.0,0.0,64.0
3143,49.0,0.0,240.0,0.0,64.0
3144,72.0,60.0,60.0,0.0,64.0
3145,70.0,60.0,60.0,0.0,64.0
3146,72.0,120.0,60.0,0.0,64.0
3147,73.0,0.0,120.0,0.0,64.0
3148,78.0,120.0,120.0,0.0,64.0
3149,51.0,0.0,240.0,0.0,64.0
3150,69.0,120.0,120.0,0.0,64.0
3151,72.0,60.0,240.0,0.0,64.0
3152,52.0,0.0,240.0,0.0,64.0
3153,68.0,0.0,240.0,0.0,64.0
3154,73.0,60.0,60.0,0.0,64.0
3155,75.0,60.0,60.0,0.0,64.0
3156,54.0,60.0,240.0,0.0,64.0
3157,73.0,60.0,60.0,0.0,64.0
3158,72.0,60.0,60.0,0.0,64.0
3159,70.0,60.0,60.0,0.0,64.0
3160,76.0,0.0,120.0,0.0,64.0
3161,68.0,0.0,60.0,0.0,64.0
3162,75.0,60.0,60.0,0.0,64.0
3163,78.0,0.0,60.0,0.0,64.0
3164,44.0,0.0,240.0,0.0,64.0
3165,73.0,120.0,60.0,0.0,64.0
3166,77.0,0.0,60.0,0.0,64.0
3167,75.0,0.0,120.0,0.0,64.0
3168,72.0,120.0,120.0,0.0,64.0
3169,49.0,0.0,240.0,0.0,64.0
3170,77.0,0.0,240.0,0.0,64.0
3171,73.0,60.0,120.0,0.0,64.0
3172,71.0,60.0,60.0,0.0,64.0
3173,70.0,60.0,60.0,0.0,64.0
3174,68.0,60.0,60.0,0.0,64.0
3175,47.0,60.0,240.0,0.0,64.0
3176,67.0,120.0,60.0,0.0,64.0
3177,68.0,0.0,120.0,0.0,64.0
3178,61.0,0.0,120.0,0.0,64.0
3179,46.0,120.0,240.0,0.0,64.0
3180,76.0,60.0,60.0,0.0,64.0
3181,75.0,120.0,60.0,0.0,64.0
3182,68.0,0.0,120.0,0.0,64.0
3183,76.0,120.0,240.0,0.0,64.0
3184,67.0,0.0,240.0,0.0,64.0
3185,49.0,120.0,240.0,0.0,64.0
3186,79.0,120.0,240.0,0.0,64.0
3187,52.0,120.0,240.0,0.0,64.0
3188,82.0,0.0,120.0,0.0,64.0
3189,85.0,120.0,120.0,0.0,64.0
3190,70.0,0.0,120.0,0.0,64.0
3191,43.0,0.0,240.0,0.0,64.0
3192,61.0,120.0,120.0,0.0,64.0
3193,76.0,0.0,120.0,0.0,64.0
3194,75.0,120.0,360.0,0.0,64.0
3195,44.0,0.0,240.0,0.0,64.0
3196,59.0,120.0,120.0,0.0,64.0
3197,63.0,120.0,120.0,0.0,64.0
3198,67.0,0.0,240.0,0.0,64.0
3199,46.0,60.0,240.0,0.0,64.0
3200,74.0,0.0,120.0,0.0,64.0
3201,75.0,60.0,60.0,0.0,64.0
3202,47.0,0.0,240.0,0.0,64.0
3203,79.0,120.0,60.0,0.0,64.0
3204,75.0,0.0,120.0,0.0,64.0
3205,80.0,120.0,120.0,0.0,64.0
3206,68.0,120.0,120.0,0.0,64.0
3207,76.0,0.0,120.0,0.0,64.0
3208,49.0,0.0,240.0,0.0,64.0
3209,73.0,120.0,120.0,0.0,64.0
3210,70.0,0.0,120.0,0.0,64.0
3211,51.0,120.0,240.0,0.0,64.0
3212,79.0,0.0,120.0,0.0,64.0
3213,71.0,60.0,60.0,0.0,64.0
3214,70.0,0.0,60.0,0.0,64.0
3215,80.0,120.0,120.0,0.0,64.0
3216,71.0,120.0,240.0,0.0,64.0
3217,44.0,0.0,240.0,0.0,64.0
3218,68.0,120.0,240.0,0.0,64.0
3219,45.0,60.0,240.0,0.0,64.0
3220,66.0,60.0,180.0,0.0,64.0
3221,47.0,0.0,240.0,0.0,64.0
3222,86.0,0.0,360.0,0.0,64.0
3223,65.0,120.0,60.0,0.0,64.0
3224,66.0,60.0,120.0,0.0,64.0
3225,65.0,60.0,60.0,0.0,64.0
3226,49.0,0.0,240.0,0.0,64.0
3227,66.0,120.0,60.0,0.0,64.0
3228,68.0,120.0,120.0,0.0,64.0
3229,85.0,120.0,240.0,0.0,64.0
3230,51.0,60.0,240.0,0.0,64.0
3231,83.0,60.0,180.0,0.0,64.0
3232,53.0,60.0,240.0,0.0,64.0
3233,81.0,120.0,60.0,0.0,64.0
3234,80.0,0.0,120.0,0.0,64.0
3235,54.0,0.0,240.0,0.0,64.0
3236,81.0,60.0,60.0,0.0,64.0
3237,83.0,120.0,60.0,0.0,64.0
3238,85.0,120.0,120.0,0.0,64.0
3239,78.0,120.0,240.0,0.0,64.0
3240,56.0,60.0,240.0,0.0,64.0
3241,76.0,60.0,180.0,0.0,64.0
3242,57.0,60.0,240.0,0.0,64.0
3243,75.0,120.0,60.0,0.0,64.0
3244,73.0,0.0,120.0,0.0,64.0
3245,59.0,120.0,240.0,0.0,64.0
3246,75.0,60.0,60.0,0.0,64.0
3247,76.0,120.0,60.0,0.0,64.0
3248,78.0,0.0,120.0,0.0,64.0
3249,71.0,120.0,240.0,0.0,64.0
3250,61.0,60.0,240.0,0.0,64.0
3251,69.0,60.0,180.0,0.0,64.0
3252,63.0,60.0,240.0,0.0,64.0
3253,68.0,120.0,60.0,0.0,64.0
3254,66.0,0.0,120.0,0.0,64.0
3255,52.0,120.0,240.0,0.0,64.0
3256,68.0,60.0,60.0,0.0,64.0
3257,69.0,120.0,60.0,0.0,64.0
3258,71.0,0.0,120.0,0.0,64.0
3259,64.0,120.0,240.0,0.0,64.0
3260,54.0,60.0,240.0,0.0,64.0
3261,62.0,60.0,180.0,0.0,64.0
3262,83.0,60.0,300.0,0.0,64.0
3263,56.0,60.0,240.0,0.0,64.0
3264,61.0,120.0,60.0,0.0,64.0
3265,59.0,0.0,120.0,0.0,64.0
3266,61.0,0.0,240.0,0.0,64.0
3267,45.0,120.0,360.0,0.0,64.0
3268,81.0,120.0,60.0,0.0,64.0
3269,80.0,30.0,120.0,0.0,64.0
3270,81.0,30.0,30.0,0.0,64.0
3271,66.0,0.0,30.0,0.0,64.0
3272,64.0,60.0,30.0,0.0,64.0
3273,80.0,0.0,30.0,0.0,64.0
3274,81.0,60.0,780.0,0.0,64.0
3275,66.0,60.0,480.0,0.0,64.0
3276,44.0,240.0,120.0,0.0,64.0
3277,42.0,60.0,240.0,0.0,64.0
3278,48.0,0.0,240.0,0.0,64.0
3279,64.0,120.0,60.0,0.0,64.0
3280,63.0,120.0,120.0,0.0,64.0
3281,49.0,0.0,240.0,0.0,64.0
3282,64.0,60.0,240.0,0.0,64.0
3283,80.0,60.0,60.0,0.0,64.0
3284,82.0,0.0,60.0,0.0,64.0
3285,84.0,60.0,60.0,0.0,64.0
3286,51.0,0.0,240.0,0.0,64.0
3287,78.0,60.0,300.0,0.0,64.0
3288,85.0,120.0,60.0,0.0,64.0
3289,87.0,60.0,120.0,0.0,64.0
3290,52.0,120.0,360.0,0.0,64.0
3291,80.0,0.0,240.0,0.0,64.0
3292,76.0,120.0,60.0,0.0,64.0
3293,75.0,30.0,120.0,0.0,64.0
3294,85.0,0.0,30.0,0.0,64.0
3295,76.0,30.0,30.0,0.0,64.0
3296,83.0,0.0,30.0,0.0,64.0
3297,75.0,60.0,30.0,0.0,64.0
3298,85.0,60.0,480.0,0.0,64.0
3299,76.0,60.0,780.0,0.0,64.0
3300,51.0,240.0,120.0,0.0,64.0
3301,49.0,60.0,240.0,0.0,64.0
3302,55.0,0.0,240.0,0.0,64.0
3303,83.0,120.0,60.0,0.0,64.0
3304,82.0,30.0,120.0,0.0,64.0
3305,83.0,30.0,30.0,0.0,64.0
3306,56.0,0.0,240.0,0.0,64.0
3307,82.0,60.0,30.0,0.0,64.0
3308,83.0,0.0,180.0,0.0,64.0
3309,75.0,60.0,60.0,0.0,64.0
3310,58.0,60.0,240.0,0.0,64.0
3311,71.0,60.0,60.0,0.0,64.0
3312,73.0,60.0,15.0,0.0,64.0
3313,70.0,120.0,60.0,0.0,64.0
3314,68.0,0.0,120.0,0.0,64.0
3315,67.0,30.0,240.0,0.0,64.0
3316,59.0,120.0,360.0,0.0,64.0
3317,71.0,120.0,60.0,0.0,64.0
3318,70.0,0.0,120.0,0.0,64.0
3319,68.0,0.0,30.0,0.0,64.0
3320,71.0,30.0,30.0,0.0,64.0
3321,70.0,0.0,30.0,0.0,64.0
3322,67.0,60.0,30.0,0.0,64.0
3323,71.0,60.0,780.0,0.0,64.0
3324,68.0,0.0,180.0,0.0,64.0
3325,58.0,240.0,120.0,0.0,64.0
3326,56.0,60.0,240.0,0.0,64.0
3327,80.0,60.0,300.0,0.0,64.0
3328,62.0,0.0,240.0,0.0,64.0
3329,79.0,120.0,60.0,0.0,64.0
3330,77.0,120.0,120.0,0.0,64.0
3331,79.0,0.0,240.0,0.0,64.0
3332,63.0,0.0,240.0,0.0,64.0
3333,70.0,60.0,60.0,0.0,64.0
3334,68.0,60.0,60.0,0.0,64.0
3335,70.0,60.0,60.0,0.0,64.0
3336,78.0,60.0,300.0,0.0,64.0
3337,72.0,120.0,60.0,0.0,64.0
3338,73.0,60.0,120.0,0.0,64.0
3339,60.0,120.0,240.0,0.0,64.0
3340,77.0,120.0,60.0,0.0,64.0
3341,75.0,0.0,120.0,0.0,64.0
3342,77.0,60.0,240.0,0.0,64.0
3343,61.0,0.0,240.0,0.0,64.0
3344,73.0,60.0,60.0,0.0,64.0
3345,72.0,0.0,60.0,0.0,64.0
3346,73.0,60.0,60.0,0.0,64.0
3347,75.0,120.0,60.0,0.0,64.0
3348,76.0,60.0,120.0,0.0,64.0
3349,58.0,0.0,240.0,0.0,64.0
3350,79.0,60.0,360.0,0.0,64.0
3351,75.0,120.0,60.0,0.0,64.0
3352,74.0,120.0,120.0,0.0,64.0
3353,75.0,0.0,240.0,0.0,64.0
3354,59.0,60.0,240.0,0.0,64.0
3355,80.0,60.0,60.0,0.0,64.0
3356,79.0,0.0,60.0,0.0,64.0
3357,80.0,60.0,60.0,0.0,64.0
3358,74.0,60.0,300.0,0.0,64.0
3359,82.0,120.0,60.0,0.0,64.0
3360,83.0,60.0,120.0,0.0,64.0
3361,77.0,60.0,360.0,0.0,64.0
3362,56.0,0.0,240.0,0.0,64.0
3363,73.0,120.0,60.0,0.0,64.0
3364,72.0,120.0,120.0,0.0,64.0
3365,73.0,0.0,240.0,0.0,64.0
3366,57.0,60.0,240.0,0.0,64.0
3367,78.0,60.0,60.0,0.0,64.0
3368,80.0,0.0,60.0,0.0,64.0
3369,61.0,60.0,300.0,0.0,64.0
3370,78.0,60.0,60.0,0.0,64.0
3371,76.0,120.0,60.0,0.0,64.0
3372,75.0,60.0,120.0,0.0,64.0
3373,55.0,120.0,240.0,0.0,64.0
3374,76.0,60.0,360.0,0.0,64.0
3375,59.0,120.0,60.0,0.0,64.0
3376,58.0,0.0,120.0,0.0,64.0
3377,59.0,0.0,240.0,0.0,64.0
3378,56.0,0.0,240.0,0.0,64.0
3379,75.0,60.0,60.0,0.0,64.0
3380,74.0,60.0,60.0,0.0,64.0
3381,75.0,60.0,60.0,0.0,64.0
3382,71.0,60.0,300.0,0.0,64.0
3383,79.0,120.0,60.0,0.0,64.0
3384,80.0,60.0,120.0,0.0,64.0
3385,52.0,0.0,240.0,0.0,64.0
3386,70.0,120.0,60.0,0.0,64.0
3387,68.0,0.0,120.0,0.0,64.0
3388,73.0,0.0,240.0,0.0,64.0
3389,49.0,30.0,240.0,0.0,64.0
3390,67.0,0.0,30.0,0.0,64.0
3391,51.0,240.0,240.0,0.0,64.0
3392,70.0,0.0,15.0,0.0,64.0
3393,68.0,180.0,30.0,0.0,64.0
3394,71.0,0.0,30.0,0.0,64.0
3395,70.0,0.0,180.0,0.0,64.0
3396,67.0,0.0,180.0,0.0,64.0
3397,68.0,240.0,240.0,0.0,64.0
3398,56.0,0.0,240.0,0.0,64.0
3399,59.0,0.0,240.0,0.0,64.0
3400,63.0,120.0,240.0,0.0,64.0
3401,70.0,0.0,240.0,0.0,64.0
3402,68.0,120.0,120.0,0.0,64.0
3403,67.0,60.0,240.0,0.0,64.0
3404,61.0,120.0,15.0,0.0,64.0
3405,63.0,60.0,60.0,0.0,64.0
3406,65.0,0.0,60.0,0.0,64.0
3407,67.0,60.0,60.0,0.0,64.0
3408,61.0,60.0,15.0,0.0,64.0
3409,68.0,120.0,60.0,0.0,64.0
3410,70.0,240.0,120.0,0.0,64.0
3411,73.0,60.0,360.0,0.0,64.0
3412,58.0,120.0,15.0,0.0,64.0
3413,67.0,60.0,60.0,0.0,64.0
3414,68.0,60.0,60.0,0.0,64.0
3415,70.0,60.0,60.0,0.0,64.0
3416,58.0,0.0,15.0,0.0,64.0
3417,71.0,120.0,60.0,0.0,64.0
3418,73.0,0.0,120.0,0.0,64.0
3419,76.0,120.0,120.0,0.0,64.0
3420,75.0,60.0,240.0,0.0,64.0
3421,55.0,120.0,15.0,0.0,64.0
3422,73.0,60.0,60.0,0.0,64.0
3423,71.0,0.0,60.0,0.0,64.0
3424,55.0,60.0,15.0,0.0,64.0
3425,70.0,60.0,60.0,0.0,64.0
3426,71.0,120.0,60.0,0.0,64.0
3427,73.0,120.0,240.0,0.0,64.0
3428,56.0,120.0,240.0,0.0,64.0
3429,71.0,60.0,240.0,0.0,64.0
3430,59.0,0.0,240.0,0.0,64.0
3431,70.0,60.0,60.0,0.0,64.0
3432,68.0,60.0,60.0,0.0,64.0
3433,75.0,0.0,240.0,0.0,64.0
3434,67.0,60.0,60.0,0.0,64.0
3435,63.0,120.0,240.0,0.0,64.0
3436,68.0,120.0,60.0,0.0,64.0
3437,70.0,0.0,120.0,0.0,64.0
3438,73.0,120.0,120.0,0.0,64.0
3439,68.0,0.0,120.0,0.0,64.0
3440,72.0,120.0,120.0,0.0,64.0
3441,75.0,0.0,240.0,0.0,64.0
3442,66.0,0.0,15.0,0.0,64.0
3443,68.0,60.0,60.0,0.0,64.0
3444,70.0,0.0,60.0,0.0,64.0
3445,72.0,60.0,60.0,0.0,64.0
3446,66.0,60.0,15.0,0.0,64.0
3447,73.0,120.0,60.0,0.0,64.0
3448,75.0,120.0,120.0,0.0,64.0
3449,72.0,120.0,120.0,0.0,64.0
3450,75.0,120.0,120.0,0.0,64.0
3451,78.0,60.0,120.0,0.0,64.0
3452,63.0,0.0,15.0,0.0,64.0
3453,72.0,60.0,60.0,0.0,64.0
3454,73.0,60.0,60.0,0.0,64.0
3455,63.0,0.0,15.0,0.0,64.0
3456,75.0,60.0,60.0,0.0,64.0
3457,76.0,120.0,60.0,0.0,64.0
3458,78.0,0.0,120.0,0.0,64.0
3459,82.0,120.0,120.0,0.0,64.0
3460,80.0,60.0,240.0,0.0,64.0
3461,75.0,0.0,120.0,0.0,64.0
3462,60.0,120.0,15.0,0.0,64.0
3463,78.0,60.0,60.0,0.0,64.0
3464,76.0,60.0,60.0,0.0,64.0
3465,75.0,60.0,60.0,0.0,64.0
3466,60.0,0.0,15.0,0.0,64.0
3467,81.0,0.0,240.0,0.0,64.0
3468,76.0,120.0,60.0,0.0,64.0
3469,78.0,120.0,240.0,0.0,64.0
3470,80.0,0.0,240.0,0.0,64.0
3471,61.0,120.0,240.0,0.0,64.0
3472,76.0,60.0,240.0,0.0,64.0
3473,52.0,0.0,240.0,0.0,64.0
3474,75.0,60.0,60.0,0.0,64.0
3475,73.0,0.0,60.0,0.0,64.0
3476,72.0,60.0,60.0,0.0,64.0
3477,56.0,0.0,240.0,0.0,64.0
3478,73.0,120.0,60.0,0.0,64.0
3479,75.0,0.0,120.0,0.0,64.0
3480,49.0,60.0,360.0,0.0,64.0
3481,73.0,0.0,240.0,0.0,64.0
3482,76.0,60.0,60.0,0.0,64.0
3483,81.0,60.0,60.0,0.0,64.0
3484,80.0,60.0,60.0,0.0,64.0
3485,78.0,60.0,60.0,0.0,64.0
3486,80.0,60.0,60.0,0.0,64.0
3487,85.0,0.0,60.0,0.0,64.0
3488,83.0,60.0,60.0,0.0,64.0
3489,51.0,0.0,120.0,0.0,64.0
3490,81.0,60.0,60.0,0.0,64.0
3491,83.0,60.0,60.0,0.0,64.0
3492,53.0,0.0,240.0,0.0,64.0
3493,80.0,60.0,300.0,0.0,64.0
3494,74.0,60.0,60.0,0.0,64.0
3495,73.0,60.0,60.0,0.0,64.0
3496,71.0,60.0,60.0,0.0,64.0
3497,47.0,0.0,240.0,0.0,64.0
3498,77.0,60.0,240.0,0.0,64.0
3499,74.0,60.0,60.0,0.0,64.0
3500,73.0,60.0,60.0,0.0,64.0
3501,71.0,0.0,60.0,0.0,64.0
3502,45.0,0.0,240.0,0.0,64.0
3503,73.0,60.0,60.0,0.0,64.0
3504,79.0,60.0,60.0,0.0,64.0
3505,78.0,60.0,60.0,0.0,64.0
3506,77.0,0.0,60.0,0.0,64.0
3507,78.0,60.0,15.0,0.0,64.0
3508,86.0,60.0,60.0,0.0,64.0
3509,85.0,60.0,60.0,0.0,64.0
3510,84.0,60.0,60.0,0.0,64.0
3511,51.0,60.0,360.0,0.0,64.0
3512,85.0,0.0,240.0,0.0,64.0
3513,79.0,60.0,60.0,0.0,64.0
3514,83.0,60.0,60.0,0.0,64.0
3515,82.0,60.0,60.0,0.0,64.0
3516,80.0,60.0,60.0,0.0,64.0
3517,79.0,0.0,240.0,0.0,64.0
3518,82.0,60.0,60.0,0.0,64.0
3519,87.0,0.0,60.0,0.0,64.0
3520,53.0,60.0,120.0,0.0,64.0
3521,85.0,60.0,60.0,0.0,64.0
3522,83.0,0.0,60.0,0.0,64.0
3523,82.0,60.0,300.0,0.0,64.0
3524,55.0,0.0,240.0,0.0,64.0
3525,85.0,60.0,60.0,0.0,64.0
3526,76.0,60.0,60.0,0.0,64.0
3527,75.0,60.0,60.0,0.0,64.0
3528,73.0,60.0,60.0,0.0,64.0
3529,49.0,0.0,240.0,0.0,64.0
3530,79.0,60.0,240.0,0.0,64.0
3531,76.0,60.0,60.0,0.0,64.0
3532,75.0,60.0,60.0,0.0,64.0
3533,73.0,0.0,60.0,0.0,64.0
3534,75.0,60.0,60.0,0.0,64.0
3535,47.0,0.0,240.0,0.0,64.0
3536,81.0,60.0,60.0,0.0,64.0
3537,80.0,60.0,60.0,0.0,64.0
3538,79.0,0.0,60.0,0.0,64.0
3539,80.0,60.0,15.0,0.0,64.0
3540,88.0,60.0,60.0,0.0,64.0
3541,87.0,60.0,60.0,0.0,64.0
3542,86.0,180.0,60.0,0.0,64.0
3543,60.0,60.0,360.0,0.0,64.0
3544,87.0,60.0,240.0,0.0,64.0
3545,68.0,60.0,60.0,0.0,64.0
3546,70.0,0.0,60.0,0.0,64.0
3547,72.0,60.0,60.0,0.0,64.0
3548,73.0,0.0,60.0,0.0,64.0
3549,81.0,60.0,60.0,0.0,64.0
3550,75.0,0.0,60.0,0.0,64.0
3551,61.0,60.0,120.0,0.0,64.0
3552,80.0,0.0,60.0,0.0,64.0
3553,76.0,0.0,60.0,0.0,64.0
3554,78.0,60.0,60.0,0.0,64.0
3555,63.0,0.0,240.0,0.0,64.0
3556,76.0,60.0,60.0,0.0,64.0
3557,75.0,60.0,60.0,0.0,64.0
3558,73.0,30.0,60.0,0.0,64.0
3559,57.0,60.0,240.0,0.0,64.0
3560,72.0,30.0,30.0,0.0,64.0
3561,73.0,0.0,30.0,0.0,64.0
3562,75.0,60.0,60.0,0.0,64.0
3563,72.0,60.0,60.0,0.0,64.0
3564,73.0,0.0,60.0,0.0,64.0
3565,75.0,60.0,60.0,0.0,64.0
3566,56.0,0.0,240.0,0.0,64.0
3567,76.0,60.0,60.0,0.0,64.0
3568,78.0,60.0,60.0,0.0,64.0
3569,80.0,60.0,60.0,0.0,64.0
3570,81.0,60.0,60.0,0.0,64.0
3571,80.0,60.0,60.0,0.0,64.0
3572,79.0,60.0,60.0,0.0,64.0
3573,80.0,30.0,60.0,0.0,64.0
3574,56.0,0.0,240.0,0.0,64.0
3575,78.0,30.0,30.0,0.0,64.0
3576,77.0,30.0,30.0,0.0,64.0
3577,75.0,0.0,60.0,0.0,64.0
3578,78.0,30.0,30.0,0.0,64.0
3579,77.0,30.0,30.0,0.0,64.0
3580,78.0,30.0,30.0,0.0,64.0
3581,73.0,0.0,60.0,0.0,64.0
3582,77.0,30.0,30.0,0.0,64.0
3583,72.0,0.0,60.0,0.0,64.0
3584,78.0,30.0,30.0,0.0,64.0
3585,77.0,30.0,30.0,0.0,64.0
3586,55.0,0.0,240.0,0.0,64.0
3587,73.0,0.0,60.0,0.0,64.0
3588,78.0,30.0,30.0,0.0,64.0
3589,78.0,30.0,30.0,0.0,64.0
3590,77.0,30.0,15.0,0.0,64.0
3591,77.0,0.0,30.0,0.0,64.0
3592,80.0,0.0,60.0,0.0,64.0
3593,78.0,30.0,30.0,0.0,64.0
3594,77.0,30.0,30.0,0.0,64.0
3595,84.0,30.0,60.0,0.0,64.0
3596,78.0,30.0,30.0,0.0,64.0
3597,77.0,0.0,30.0,0.0,64.0
3598,78.0,30.0,30.0,0.0,64.0
3599,85.0,0.0,480.0,0.0,64.0
3600,76.0,30.0,30.0,0.0,64.0
3601,78.0,30.0,30.0,0.0,64.0
3602,76.0,30.0,30.0,0.0,64.0
3603,78.0,30.0,30.0,0.0,64.0
3604,76.0,30.0,30.0,0.0,64.0
3605,78.0,270.0,30.0,0.0,64.0
3606,76.0,240.0,270.0,0.0,64.0
3607,56.0,0.0,240.0,0.0,64.0
3608,84.0,0.0,240.0,0.0,64.0
3609,44.0,240.0,240.0,0.0,64.0
3610,75.0,0.0,240.0,0.0,64.0
3611,68.0,0.0,240.0,0.0,64.0
3612,48.0,30.0,240.0,0.0,64.0
3613,73.0,30.0,30.0,0.0,64.0
3614,49.0,110.0,240.0,0.0,64.0
3615,75.0,180.0,30.0,0.0,64.0
3616,76.0,130.0,300.0,0.0,64.0
3617,51.0,240.0,240.0,0.0,64.0
3618,75.0,0.0,120.0,0.0,64.0
3619,73.0,30.0,240.0,0.0,64.0
3620,52.0,0.0,240.0,0.0,64.0
3621,72.0,30.0,30.0,0.0,64.0
3622,54.0,240.0,240.0,0.0,64.0
3623,73.0,180.0,30.0,0.0,64.0
3624,72.0,0.0,180.0,0.0,64.0
3625,52.0,240.0,240.0,0.0,64.0
3626,73.0,0.0,240.0,0.0,64.0
3627,54.0,120.0,240.0,0.0,64.0
3628,66.0,120.0,120.0,0.0,64.0
3629,56.0,120.0,240.0,0.0,64.0
3630,65.0,60.0,240.0,0.0,64.0
3631,57.0,0.0,240.0,0.0,64.0
3632,66.0,60.0,60.0,0.0,64.0
3633,68.0,60.0,60.0,0.0,64.0
3634,59.0,60.0,240.0,0.0,64.0
3635,66.0,60.0,60.0,0.0,64.0
3636,65.0,60.0,60.0,0.0,64.0
3637,63.0,60.0,60.0,0.0,64.0
3638,61.0,0.0,60.0,0.0,64.0
3639,71.0,60.0,60.0,0.0,64.0
3640,49.0,120.0,240.0,0.0,64.0
3641,70.0,120.0,60.0,0.0,64.0
3642,68.0,0.0,15.0,0.0,64.0
3643,54.0,0.0,240.0,0.0,64.0
3644,70.0,240.0,120.0,0.0,64.0
3645,52.0,30.0,240.0,0.0,64.0
3646,51.0,120.0,240.0,0.0,64.0
3647,70.0,30.0,30.0,0.0,64.0
3648,69.0,60.0,30.0,0.0,64.0
3649,68.0,120.0,60.0,0.0,64.0
3650,69.0,120.0,240.0,0.0,64.0
3651,54.0,120.0,240.0,0.0,64.0
3652,72.0,120.0,240.0,0.0,64.0
3653,57.0,120.0,240.0,0.0,64.0
3654,75.0,0.0,120.0,0.0,64.0
3655,48.0,240.0,240.0,0.0,64.0
3656,78.0,120.0,120.0,0.0,64.0
3657,69.0,0.0,120.0,0.0,64.0
3658,49.0,120.0,240.0,0.0,64.0
3659,68.0,120.0,360.0,0.0,64.0
3660,51.0,0.0,240.0,0.0,64.0
3661,67.0,60.0,120.0,0.0,64.0
3662,68.0,60.0,60.0,0.0,64.0
3663,52.0,0.0,240.0,0.0,64.0
3664,72.0,120.0,60.0,0.0,64.0
3665,73.0,120.0,120.0,0.0,64.0
3666,54.0,120.0,240.0,0.0,64.0
3667,61.0,120.0,120.0,0.0,64.0
3668,66.0,60.0,240.0,0.0,64.0
3669,56.0,0.0,240.0,0.0,64.0
3670,64.0,60.0,60.0,0.0,64.0
3671,63.0,120.0,60.0,0.0,64.0
3672,49.0,0.0,240.0,0.0,64.0
3673,64.0,120.0,120.0,0.0,64.0
3674,76.0,120.0,120.0,0.0,64.0
3675,47.0,120.0,240.0,0.0,64.0
3676,75.0,120.0,120.0,0.0,64.0
3677,68.0,120.0,240.0,0.0,64.0
3678,46.0,60.0,240.0,0.0,64.0
3679,73.0,0.0,240.0,0.0,64.0
3680,67.0,0.0,120.0,0.0,64.0
3681,80.0,0.0,60.0,0.0,64.0
3682,44.0,120.0,240.0,0.0,64.0
3683,68.0,60.0,60.0,0.0,64.0
3684,82.0,120.0,60.0,0.0,64.0
3685,66.0,0.0,60.0,0.0,64.0
3686,64.0,0.0,120.0,0.0,64.0
3687,83.0,120.0,240.0,0.0,64.0
3688,46.0,240.0,240.0,0.0,64.0
3689,63.0,120.0,840.0,0.0,64.0
3690,82.0,0.0,120.0,0.0,64.0
3691,80.0,0.0,240.0,0.0,64.0
3692,47.0,240.0,240.0,0.0,64.0
3693,79.0,120.0,240.0,0.0,64.0
3694,49.0,0.0,240.0,0.0,64.0
3695,47.0,0.0,240.0,0.0,64.0
3696,80.0,60.0,240.0,0.0,64.0
3697,75.0,0.0,120.0,0.0,64.0
3698,73.0,60.0,60.0,0.0,64.0
3699,49.0,120.0,240.0,0.0,64.0
3700,72.0,60.0,60.0,0.0,64.0
3701,70.0,60.0,60.0,0.0,64.0
3702,72.0,0.0,60.0,0.0,64.0
3703,78.0,120.0,120.0,0.0,64.0
3704,51.0,0.0,240.0,0.0,64.0
3705,73.0,0.0,120.0,0.0,64.0
3706,69.0,120.0,120.0,0.0,64.0
3707,72.0,60.0,240.0,0.0,64.0
3708,52.0,0.0,240.0,0.0,64.0
3709,68.0,0.0,240.0,0.0,64.0
3710,73.0,60.0,60.0,0.0,64.0
3711,75.0,60.0,60.0,0.0,64.0
3712,54.0,0.0,240.0,0.0,64.0
3713,73.0,60.0,60.0,0.0,64.0
3714,72.0,60.0,60.0,0.0,64.0
3715,76.0,60.0,120.0,0.0,64.0
3716,70.0,60.0,60.0,0.0,64.0
3717,68.0,0.0,60.0,0.0,64.0
3718,78.0,0.0,60.0,0.0,64.0
3719,44.0,120.0,240.0,0.0,64.0
3720,75.0,60.0,60.0,0.0,64.0
3721,73.0,120.0,60.0,0.0,64.0
3722,77.0,0.0,60.0,0.0,64.0
3723,75.0,0.0,120.0,0.0,64.0
3724,72.0,0.0,120.0,0.0,64.0
3725,77.0,0.0,240.0,0.0,64.0
3726,73.0,60.0,120.0,0.0,64.0
3727,49.0,0.0,240.0,0.0,64.0
3728,71.0,60.0,60.0,0.0,64.0
3729,70.0,60.0,60.0,0.0,64.0
3730,47.0,0.0,240.0,0.0,64.0
3731,68.0,60.0,60.0,0.0,64.0
3732,67.0,120.0,60.0,0.0,64.0
3733,68.0,60.0,120.0,0.0,64.0
3734,61.0,0.0,120.0,0.0,64.0
3735,76.0,60.0,60.0,0.0,64.0
3736,46.0,0.0,240.0,0.0,64.0
3737,75.0,120.0,60.0,0.0,64.0
3738,76.0,120.0,240.0,0.0,64.0
3739,68.0,120.0,120.0,0.0,64.0
3740,67.0,120.0,240.0,0.0,64.0
3741,49.0,0.0,240.0,0.0,64.0
3742,79.0,120.0,240.0,0.0,64.0
3743,52.0,0.0,240.0,0.0,64.0
3744,82.0,120.0,120.0,0.0,64.0
3745,43.0,0.0,240.0,0.0,64.0
3746,85.0,120.0,120.0,0.0,64.0
3747,70.0,0.0,120.0,0.0,64.0
3748,76.0,0.0,120.0,0.0,64.0
3749,61.0,120.0,120.0,0.0,64.0
3750,59.0,120.0,120.0,0.0,64.0
3751,75.0,120.0,360.0,0.0,64.0
3752,44.0,120.0,240.0,0.0,64.0
3753,63.0,0.0,120.0,0.0,64.0
3754,67.0,60.0,240.0,0.0,64.0
3755,46.0,0.0,240.0,0.0,64.0
3756,74.0,0.0,120.0,0.0,64.0
3757,75.0,60.0,60.0,0.0,64.0
3758,47.0,0.0,240.0,0.0,64.0
3759,79.0,120.0,60.0,0.0,64.0
3760,75.0,120.0,120.0,0.0,64.0
3761,80.0,0.0,120.0,0.0,64.0
3762,68.0,0.0,120.0,0.0,64.0
3763,49.0,120.0,240.0,0.0,64.0
3764,76.0,120.0,120.0,0.0,64.0
3765,73.0,0.0,120.0,0.0,64.0
3766,70.0,60.0,120.0,0.0,64.0
3767,51.0,0.0,240.0,0.0,64.0
3768,79.0,0.0,120.0,0.0,64.0
3769,71.0,60.0,60.0,0.0,64.0
3770,70.0,120.0,60.0,0.0,64.0
3771,80.0,120.0,120.0,0.0,64.0
3772,44.0,0.0,240.0,0.0,64.0
3773,71.0,120.0,240.0,0.0,64.0
3774,68.0,120.0,240.0,0.0,64.0
3775,45.0,60.0,240.0,0.0,64.0
3776,66.0,60.0,180.0,0.0,64.0
3777,86.0,0.0,360.0,0.0,64.0
3778,47.0,0.0,240.0,0.0,64.0
3779,65.0,120.0,60.0,0.0,64.0
3780,66.0,60.0,120.0,0.0,64.0
3781,65.0,60.0,60.0,0.0,64.0
3782,49.0,120.0,240.0,0.0,64.0
3783,66.0,120.0,60.0,0.0,64.0
3784,85.0,120.0,240.0,0.0,64.0
3785,68.0,0.0,120.0,0.0,64.0
3786,51.0,60.0,240.0,0.0,64.0
3787,83.0,60.0,180.0,0.0,64.0
3788,53.0,0.0,240.0,0.0,64.0
3789,81.0,120.0,60.0,0.0,64.0
3790,80.0,60.0,120.0,0.0,64.0
3791,81.0,60.0,60.0,0.0,64.0
3792,54.0,120.0,240.0,0.0,64.0
3793,83.0,0.0,60.0,0.0,64.0
3794,85.0,0.0,120.0,0.0,64.0
3795,78.0,120.0,240.0,0.0,64.0
3796,56.0,60.0,240.0,0.0,64.0
3797,76.0,60.0,180.0,0.0,64.0
3798,57.0,0.0,240.0,0.0,64.0
3799,75.0,120.0,60.0,0.0,64.0
3800,73.0,60.0,120.0,0.0,64.0
3801,75.0,60.0,60.0,0.0,64.0
3802,59.0,0.0,240.0,0.0,64.0
3803,76.0,0.0,60.0,0.0,64.0
3804,78.0,120.0,120.0,0.0,64.0
3805,71.0,120.0,240.0,0.0,64.0
3806,61.0,60.0,240.0,0.0,64.0
3807,69.0,60.0,180.0,0.0,64.0
3808,63.0,0.0,240.0,0.0,64.0
3809,68.0,120.0,60.0,0.0,64.0
3810,66.0,60.0,120.0,0.0,64.0
3811,68.0,60.0,60.0,0.0,64.0
3812,52.0,120.0,240.0,0.0,64.0
3813,69.0,0.0,60.0,0.0,64.0
3814,64.0,120.0,240.0,0.0,64.0
3815,71.0,0.0,120.0,0.0,64.0
3816,54.0,60.0,240.0,0.0,64.0
3817,62.0,60.0,180.0,0.0,64.0
3818,56.0,0.0,240.0,0.0,64.0
3819,83.0,60.0,300.0,0.0,64.0
3820,61.0,120.0,60.0,0.0,64.0
3821,59.0,60.0,120.0,0.0,64.0
3822,45.0,120.0,360.0,0.0,64.0
3823,61.0,30.0,240.0,0.0,64.0
3824,81.0,120.0,60.0,0.0,64.0
3825,80.0,0.0,120.0,0.0,64.0
3826,66.0,30.0,30.0,0.0,64.0
3827,81.0,0.0,30.0,0.0,64.0
3828,80.0,0.0,30.0,0.0,64.0
3829,64.0,60.0,30.0,0.0,64.0
3830,66.0,60.0,480.0,0.0,64.0
3831,81.0,60.0,780.0,0.0,64.0
3832,44.0,240.0,120.0,0.0,64.0
3833,42.0,60.0,240.0,0.0,64.0
3834,48.0,120.0,240.0,0.0,64.0
3835,64.0,120.0,60.0,0.0,64.0
3836,63.0,0.0,120.0,0.0,64.0
3837,49.0,0.0,240.0,0.0,64.0
3838,64.0,0.0,240.0,0.0,64.0
3839,80.0,60.0,60.0,0.0,64.0
3840,82.0,60.0,60.0,0.0,64.0
3841,84.0,60.0,60.0,0.0,64.0
3842,51.0,60.0,240.0,0.0,64.0
3843,78.0,60.0,300.0,0.0,64.0
3844,85.0,120.0,60.0,0.0,64.0
3845,87.0,0.0,120.0,0.0,64.0
3846,80.0,0.0,240.0,0.0,64.0
3847,52.0,120.0,360.0,0.0,64.0
3848,76.0,120.0,60.0,0.0,64.0
3849,75.0,30.0,120.0,0.0,64.0
3850,85.0,0.0,30.0,0.0,64.0
3851,76.0,30.0,30.0,0.0,64.0
3852,75.0,60.0,30.0,0.0,64.0
3853,83.0,0.0,30.0,0.0,64.0
3854,85.0,60.0,480.0,0.0,64.0
3855,76.0,60.0,780.0,0.0,64.0
3856,51.0,240.0,120.0,0.0,64.0
3857,49.0,60.0,240.0,0.0,64.0
3858,55.0,30.0,240.0,0.0,64.0
3859,83.0,120.0,60.0,0.0,64.0
3860,82.0,0.0,120.0,0.0,64.0
3861,83.0,30.0,30.0,0.0,64.0
3862,56.0,0.0,240.0,0.0,64.0
3863,82.0,60.0,30.0,0.0,64.0
3864,83.0,60.0,180.0,0.0,64.0
3865,75.0,60.0,60.0,0.0,64.0
3866,73.0,0.0,15.0,0.0,64.0
3867,71.0,60.0,60.0,0.0,64.0
3868,58.0,0.0,240.0,0.0,64.0
3869,70.0,120.0,60.0,0.0,64.0
3870,68.0,60.0,120.0,0.0,64.0
3871,67.0,0.0,240.0,0.0,64.0
3872,59.0,120.0,360.0,0.0,64.0
3873,71.0,120.0,60.0,0.0,64.0
3874,70.0,30.0,120.0,0.0,64.0
3875,71.0,30.0,30.0,0.0,64.0
3876,68.0,0.0,30.0,0.0,64.0
3877,70.0,0.0,30.0,0.0,64.0
3878,67.0,60.0,30.0,0.0,64.0
3879,71.0,60.0,780.0,0.0,64.0
3880,68.0,240.0,180.0,0.0,64.0
3881,58.0,0.0,120.0,0.0,64.0
3882,56.0,60.0,240.0,0.0,64.0
3883,80.0,60.0,300.0,0.0,64.0
3884,62.0,120.0,240.0,0.0,64.0
3885,79.0,120.0,60.0,0.0,64.0
3886,77.0,0.0,120.0,0.0,64.0
3887,63.0,60.0,240.0,0.0,64.0
3888,79.0,0.0,240.0,0.0,64.0
3889,70.0,60.0,60.0,0.0,64.0
3890,68.0,0.0,60.0,0.0,64.0
3891,70.0,60.0,60.0,0.0,64.0
3892,78.0,60.0,300.0,0.0,64.0
3893,72.0,120.0,60.0,0.0,64.0
3894,73.0,60.0,120.0,0.0,64.0
3895,60.0,120.0,240.0,0.0,64.0
3896,77.0,120.0,60.0,0.0,64.0
3897,75.0,0.0,120.0,0.0,64.0
3898,77.0,0.0,240.0,0.0,64.0
3899,61.0,0.0,240.0,0.0,64.0
3900,73.0,60.0,60.0,0.0,64.0
3901,72.0,60.0,60.0,0.0,64.0
3902,73.0,60.0,60.0,0.0,64.0
3903,75.0,120.0,60.0,0.0,64.0
3904,76.0,60.0,120.0,0.0,64.0
3905,79.0,60.0,360.0,0.0,64.0
3906,58.0,0.0,240.0,0.0,64.0
3907,75.0,120.0,60.0,0.0,64.0
3908,74.0,120.0,120.0,0.0,64.0
3909,75.0,60.0,240.0,0.0,64.0
3910,59.0,0.0,240.0,0.0,64.0
3911,80.0,60.0,60.0,0.0,64.0
3912,79.0,0.0,60.0,0.0,64.0
3913,80.0,60.0,60.0,0.0,64.0
3914,74.0,60.0,300.0,0.0,64.0
3915,82.0,120.0,60.0,0.0,64.0
3916,83.0,60.0,120.0,0.0,64.0
3917,56.0,120.0,240.0,0.0,64.0
3918,77.0,60.0,360.0,0.0,64.0
3919,73.0,120.0,60.0,0.0,64.0
3920,72.0,0.0,120.0,0.0,64.0
3921,73.0,0.0,240.0,0.0,64.0
3922,57.0,0.0,240.0,0.0,64.0
3923,78.0,60.0,60.0,0.0,64.0
3924,80.0,60.0,60.0,0.0,64.0
3925,61.0,60.0,300.0,0.0,64.0
3926,78.0,60.0,60.0,0.0,64.0
3927,76.0,120.0,60.0,0.0,64.0
3928,75.0,60.0,120.0,0.0,64.0
3929,76.0,60.0,360.0,0.0,64.0
3930,55.0,0.0,240.0,0.0,64.0
3931,59.0,120.0,60.0,0.0,64.0
3932,58.0,120.0,120.0,0.0,64.0
3933,56.0,0.0,240.0,0.0,64.0
3934,59.0,0.0,240.0,0.0,64.0
3935,75.0,60.0,60.0,0.0,64.0
3936,74.0,60.0,60.0,0.0,64.0
3937,75.0,60.0,60.0,0.0,64.0
3938,71.0,60.0,300.0,0.0,64.0
3939,79.0,120.0,60.0,0.0,64.0
3940,80.0,60.0,120.0,0.0,64.0
3941,52.0,0.0,240.0,0.0,64.0
3942,70.0,120.0,60.0,0.0,64.0
3943,68.0,0.0,120.0,0.0,64.0
3944,73.0,0.0,240.0,0.0,64.0
3945,49.0,30.0,240.0,0.0,64.0
3946,67.0,0.0,30.0,0.0,64.0
3947,70.0,0.0,15.0,0.0,64.0
3948,51.0,0.0,240.0,0.0,64.0
3949,68.0,0.0,30.0,0.0,64.0
3950,71.0,180.0,30.0,0.0,64.0
3951,67.0,720.0,180.0,0.0,64.0
3952,70.0,0.0,180.0,0.0,64.0
3953,68.0,0.0,720.0,0.0,64.0
3954,44.0,0.0,720.0,0.0,64.0
3955,47.0,120.0,480.0,0.0,64.0
3956,71.0,120.0,600.0,0.0,64.0
3957,59.0,240.0,960.0,0.0,64.0
3958,70.0,120.0,120.0,0.0,64.0
3959,68.0,120.0,120.0,0.0,64.0
3960,73.0,240.0,120.0,0.0,64.0
3961,66.0,60.0,240.0,0.0,64.0
3962,73.0,60.0,60.0,0.0,64.0
3963,75.0,120.0,60.0,0.0,64.0
3964,76.0,0.0,120.0,0.0,64.0
3965,58.0,120.0,480.0,0.0,64.0
3966,75.0,240.0,240.0,0.0,64.0
3967,73.0,0.0,240.0,0.0,64.0
3968,75.0,120.0,120.0,0.0,64.0
3969,59.0,0.0,480.0,0.0,64.0
3970,71.0,120.0,120.0,0.0,64.0
3971,75.0,120.0,120.0,0.0,64.0
3972,78.0,240.0,120.0,0.0,64.0
3973,76.0,240.0,240.0,0.0,64.0
3974,47.0,0.0,240.0,0.0,64.0
3975,75.0,240.0,240.0,0.0,64.0
3976,73.0,0.0,240.0,0.0,64.0
3977,54.0,240.0,240.0,0.0,64.0
3978,56.0,0.0,240.0,0.0,64.0
3979,66.0,120.0,240.0,0.0,64.0
3980,58.0,0.0,240.0,0.0,64.0
3981,78.0,120.0,120.0,0.0,64.0
3982,77.0,120.0,120.0,0.0,64.0
3983,75.0,120.0,120.0,0.0,64.0
3984,59.0,0.0,240.0,0.0,64.0
3985,80.0,240.0,120.0,0.0,64.0
3986,73.0,0.0,240.0,0.0,64.0
3987,61.0,60.0,240.0,0.0,64.0
3988,63.0,0.0,240.0,0.0,64.0
3989,80.0,60.0,60.0,0.0,64.0
3990,77.0,120.0,120.0,0.0,64.0
3991,82.0,0.0,60.0,0.0,64.0
3992,83.0,30.0,120.0,0.0,64.0
3993,75.0,0.0,120.0,0.0,64.0
3994,82.0,0.0,240.0,0.0,64.0
3995,61.0,120.0,240.0,0.0,64.0
3996,77.0,30.0,30.0,0.0,64.0
3997,78.0,180.0,30.0,0.0,64.0
3998,77.0,60.0,300.0,0.0,64.0
3999,80.0,120.0,240.0,0.0,64.0
4000,59.0,0.0,240.0,0.0,64.0
4001,75.0,60.0,60.0,0.0,64.0
4002,77.0,0.0,60.0,0.0,64.0
4003,58.0,0.0,240.0,0.0,64.0
4004,82.0,120.0,120.0,0.0,64.0
4005,78.0,120.0,120.0,0.0,64.0
4006,82.0,120.0,120.0,0.0,64.0
4007,61.0,0.0,240.0,0.0,64.0
4008,85.0,0.0,120.0,0.0,64.0
4009,83.0,0.0,240.0,0.0,64.0
4010,53.0,240.0,240.0,0.0,64.0
4011,82.0,120.0,240.0,0.0,64.0
4012,78.0,0.0,240.0,0.0,64.0
4013,54.0,0.0,240.0,0.0,64.0
4014,77.0,120.0,120.0,0.0,64.0
4015,80.0,120.0,240.0,0.0,64.0
4016,49.0,0.0,240.0,0.0,64.0
4017,61.0,0.0,240.0,0.0,64.0
4018,73.0,0.0,15.0,0.0,64.0
4019,77.0,120.0,120.0,0.0,64.0
4020,80.0,0.0,120.0,0.0,64.0
4021,53.0,0.0,240.0,0.0,64.0
4022,83.0,120.0,120.0,0.0,64.0
4023,73.0,120.0,120.0,0.0,64.0
4024,82.0,0.0,120.0,0.0,64.0
4025,56.0,0.0,240.0,0.0,64.0
4026,77.0,120.0,120.0,0.0,64.0
4027,80.0,0.0,120.0,0.0,64.0
4028,49.0,120.0,240.0,0.0,64.0
4029,83.0,120.0,15.0,0.0,64.0
4030,73.0,0.0,120.0,0.0,64.0
4031,82.0,0.0,120.0,0.0,64.0
4032,77.0,120.0,120.0,0.0,64.0
4033,61.0,0.0,240.0,0.0,64.0
4034,80.0,0.0,120.0,0.0,64.0
4035,53.0,0.0,240.0,0.0,64.0
4036,83.0,120.0,15.0,0.0,64.0
4037,82.0,0.0,120.0,0.0,64.0
4038,73.0,120.0,120.0,0.0,64.0
4039,77.0,120.0,120.0,0.0,64.0
4040,56.0,0.0,240.0,0.0,64.0
4041,80.0,120.0,120.0,0.0,64.0
4042,49.0,120.0,240.0,0.0,64.0
4043,83.0,0.0,15.0,0.0,64.0
4044,82.0,0.0,120.0,0.0,64.0
4045,73.0,0.0,120.0,0.0,64.0
4046,61.0,0.0,240.0,0.0,64.0
4047,77.0,120.0,120.0,0.0,64.0
4048,80.0,0.0,120.0,0.0,64.0
4049,83.0,120.0,15.0,0.0,64.0
4050,53.0,120.0,240.0,0.0,64.0
4051,82.0,0.0,120.0,0.0,64.0
4052,80.0,120.0,120.0,0.0,64.0
4053,56.0,0.0,240.0,0.0,64.0
4054,78.0,120.0,120.0,0.0,64.0
4055,49.0,0.0,240.0,0.0,64.0
4056,77.0,120.0,120.0,0.0,64.0
4057,73.0,120.0,120.0,0.0,64.0
4058,77.0,120.0,120.0,0.0,64.0
4059,59.0,0.0,240.0,0.0,64.0
4060,80.0,120.0,120.0,0.0,64.0
4061,85.0,120.0,120.0,0.0,64.0
4062,58.0,0.0,240.0,0.0,64.0
4063,83.0,120.0,120.0,0.0,64.0
4064,77.0,0.0,240.0,0.0,64.0
4065,82.0,120.0,120.0,0.0,64.0
4066,61.0,0.0,240.0,0.0,64.0
4067,80.0,120.0,120.0,0.0,64.0
4068,82.0,120.0,240.0,0.0,64.0
4069,78.0,120.0,120.0,0.0,64.0
4070,54.0,0.0,240.0,0.0,64.0
4071,66.0,0.0,15.0,0.0,64.0
4072,78.0,0.0,240.0,0.0,64.0
4073,70.0,120.0,120.0,0.0,64.0
4074,73.0,120.0,120.0,0.0,64.0
4075,58.0,0.0,240.0,0.0,64.0
4076,76.0,120.0,120.0,0.0,64.0
4077,75.0,120.0,120.0,0.0,64.0
4078,66.0,0.0,120.0,0.0,64.0
4079,61.0,120.0,240.0,0.0,64.0
4080,70.0,120.0,120.0,0.0,64.0
4081,73.0,0.0,120.0,0.0,64.0
4082,76.0,0.0,15.0,0.0,64.0
4083,54.0,0.0,240.0,0.0,64.0
4084,75.0,120.0,120.0,0.0,64.0
4085,66.0,0.0,15.0,0.0,64.0
4086,70.0,120.0,120.0,0.0,64.0
4087,73.0,0.0,120.0,0.0,64.0
4088,76.0,0.0,15.0,0.0,64.0
4089,58.0,0.0,240.0,0.0,64.0
4090,66.0,0.0,120.0,0.0,64.0
4091,75.0,120.0,120.0,0.0,64.0
4092,61.0,120.0,240.0,0.0,64.0
4093,70.0,120.0,120.0,0.0,64.0
4094,73.0,0.0,120.0,0.0,64.0
4095,76.0,0.0,15.0,0.0,64.0
4096,54.0,0.0,240.0,0.0,64.0
4097,75.0,120.0,120.0,0.0,64.0
4098,66.0,0.0,15.0,0.0,64.0
4099,70.0,120.0,120.0,0.0,64.0
4100,73.0,120.0,120.0,0.0,64.0
4101,58.0,0.0,240.0,0.0,64.0
4102,76.0,0.0,15.0,0.0,64.0
4103,75.0,120.0,120.0,0.0,64.0
4104,61.0,120.0,240.0,0.0,64.0
4105,73.0,120.0,120.0,0.0,64.0
4106,71.0,0.0,120.0,0.0,64.0
4107,54.0,120.0,240.0,0.0,64.0
4108,70.0,120.0,120.0,0.0,64.0
4109,66.0,0.0,120.0,0.0,64.0
4110,70.0,120.0,120.0,0.0,64.0
4111,64.0,120.0,240.0,0.0,64.0
4112,73.0,0.0,120.0,0.0,64.0
4113,63.0,0.0,240.0,0.0,64.0
4114,78.0,120.0,120.0,0.0,64.0
4115,76.0,120.0,120.0,0.0,64.0
4116,66.0,0.0,240.0,0.0,64.0
4117,75.0,120.0,120.0,0.0,64.0
4118,82.0,120.0,240.0,0.0,64.0
4119,73.0,0.0,120.0,0.0,64.0
4120,59.0,120.0,720.0,0.0,64.0
4121,83.0,120.0,120.0,0.0,64.0
4122,75.0,120.0,240.0,0.0,64.0
4123,85.0,0.0,120.0,0.0,64.0
4124,78.0,120.0,240.0,0.0,64.0
4125,83.0,120.0,120.0,0.0,64.0
4126,82.0,0.0,120.0,0.0,64.0
4127,83.0,0.0,720.0,0.0,64.0
4128,80.0,120.0,120.0,0.0,64.0
4129,78.0,0.0,120.0,0.0,64.0
4130,76.0,120.0,120.0,0.0,64.0
4131,61.0,120.0,240.0,0.0,64.0
4132,75.0,0.0,120.0,0.0,64.0
4133,54.0,0.0,240.0,0.0,64.0
4134,73.0,120.0,120.0,0.0,64.0
4135,71.0,120.0,120.0,0.0,64.0
4136,64.0,120.0,240.0,0.0,64.0
4137,73.0,120.0,120.0,0.0,64.0
4138,82.0,0.0,240.0,0.0,64.0
4139,75.0,0.0,120.0,0.0,64.0
4140,76.0,120.0,120.0,0.0,64.0
4141,63.0,120.0,240.0,0.0,64.0
4142,78.0,0.0,120.0,0.0,64.0
4143,80.0,120.0,120.0,0.0,64.0
4144,61.0,120.0,240.0,0.0,64.0
4145,76.0,120.0,360.0,0.0,64.0
4146,82.0,0.0,120.0,0.0,64.0
4147,83.0,120.0,240.0,0.0,64.0
4148,63.0,0.0,240.0,0.0,64.0
4149,73.0,0.0,120.0,0.0,64.0
4150,66.0,0.0,240.0,0.0,64.0
4151,75.0,120.0,120.0,0.0,64.0
4152,76.0,120.0,120.0,0.0,64.0
4153,64.0,120.0,240.0,0.0,64.0
4154,83.0,120.0,720.0,0.0,64.0
4155,78.0,0.0,15.0,0.0,64.0
4156,82.0,0.0,120.0,0.0,64.0
4157,80.0,120.0,120.0,0.0,64.0
4158,63.0,120.0,240.0,0.0,64.0
4159,78.0,0.0,120.0,0.0,64.0
4160,76.0,120.0,120.0,0.0,64.0
4161,61.0,0.0,240.0,0.0,64.0
4162,75.0,0.0,120.0,0.0,64.0
4163,73.0,120.0,120.0,0.0,64.0
4164,82.0,0.0,120.0,0.0,64.0
4165,54.0,0.0,240.0,0.0,64.0
4166,80.0,0.0,120.0,0.0,64.0
4167,71.0,120.0,120.0,0.0,64.0
4168,78.0,120.0,120.0,0.0,64.0
4169,70.0,120.0,240.0,0.0,64.0
4170,76.0,0.0,120.0,0.0,64.0
4171,75.0,120.0,120.0,0.0,64.0
4172,55.0,120.0,240.0,0.0,64.0
4173,82.0,120.0,360.0,0.0,64.0
4174,73.0,0.0,120.0,0.0,64.0
4175,56.0,120.0,720.0,0.0,64.0
4176,71.0,120.0,240.0,0.0,64.0
4177,80.0,120.0,120.0,0.0,64.0
4178,75.0,0.0,15.0,0.0,64.0
4179,78.0,120.0,120.0,0.0,64.0
4180,80.0,0.0,720.0,0.0,64.0
4181,76.0,120.0,120.0,0.0,64.0
4182,75.0,0.0,120.0,0.0,64.0
4183,73.0,120.0,120.0,0.0,64.0
4184,58.0,0.0,240.0,0.0,64.0
4185,71.0,120.0,120.0,0.0,64.0
4186,51.0,0.0,240.0,0.0,64.0
4187,70.0,120.0,120.0,0.0,64.0
4188,68.0,120.0,120.0,0.0,64.0
4189,61.0,120.0,240.0,0.0,64.0
4190,79.0,0.0,240.0,0.0,64.0
4191,70.0,120.0,120.0,0.0,64.0
4192,71.0,0.0,120.0,0.0,64.0
4193,59.0,0.0,240.0,0.0,64.0
4194,73.0,120.0,120.0,0.0,64.0
4195,75.0,120.0,120.0,0.0,64.0
4196,73.0,120.0,360.0,0.0,64.0
4197,58.0,120.0,240.0,0.0,64.0
4198,77.0,120.0,120.0,0.0,64.0
4199,79.0,0.0,120.0,0.0,64.0
4200,80.0,0.0,240.0,0.0,64.0
4201,59.0,120.0,240.0,0.0,64.0
4202,70.0,0.0,120.0,0.0,64.0
4203,63.0,0.0,240.0,0.0,64.0
4204,71.0,120.0,120.0,0.0,64.0
4205,73.0,120.0,120.0,0.0,64.0
4206,61.0,0.0,240.0,0.0,64.0
4207,75.0,0.0,15.0,0.0,64.0
4208,80.0,0.0,720.0,0.0,64.0
4209,78.0,120.0,120.0,0.0,64.0
4210,59.0,0.0,240.0,0.0,64.0
4211,76.0,120.0,120.0,0.0,64.0
4212,75.0,120.0,120.0,0.0,64.0
4213,73.0,120.0,120.0,0.0,64.0
4214,58.0,0.0,240.0,0.0,64.0
4215,71.0,120.0,120.0,0.0,64.0
4216,51.0,120.0,240.0,0.0,64.0
4217,78.0,0.0,120.0,0.0,64.0
4218,70.0,120.0,120.0,0.0,64.0
4219,68.0,0.0,120.0,0.0,64.0
4220,76.0,0.0,120.0,0.0,64.0
4221,75.0,120.0,120.0,0.0,64.0
4222,66.0,0.0,240.0,0.0,64.0
4223,73.0,120.0,120.0,0.0,64.0
4224,71.0,120.0,120.0,0.0,64.0
4225,78.0,120.0,360.0,0.0,64.0
4226,51.0,0.0,240.0,0.0,64.0
4227,69.0,120.0,120.0,0.0,64.0
4228,52.0,120.0,720.0,0.0,64.0
4229,68.0,0.0,240.0,0.0,64.0
4230,71.0,120.0,15.0,0.0,64.0
4231,76.0,120.0,120.0,0.0,64.0
4232,75.0,120.0,120.0,0.0,64.0
4233,76.0,120.0,720.0,0.0,64.0
4234,73.0,120.0,120.0,0.0,64.0
4235,71.0,0.0,120.0,0.0,64.0
4236,54.0,120.0,240.0,0.0,64.0
4237,69.0,120.0,120.0,0.0,64.0
4238,68.0,0.0,120.0,0.0,64.0
4239,66.0,120.0,120.0,0.0,64.0
4240,47.0,0.0,240.0,0.0,64.0
4241,64.0,0.0,120.0,0.0,64.0
4242,57.0,0.0,240.0,0.0,64.0
4243,75.0,0.0,240.0,0.0,64.0
4244,66.0,120.0,120.0,0.0,64.0
4245,68.0,120.0,120.0,0.0,64.0
4246,56.0,0.0,240.0,0.0,64.0
4247,69.0,120.0,120.0,0.0,64.0
4248,71.0,120.0,120.0,0.0,64.0
4249,69.0,120.0,360.0,0.0,64.0
4250,54.0,0.0,240.0,0.0,64.0
4251,73.0,120.0,120.0,0.0,64.0
4252,75.0,120.0,120.0,0.0,64.0
4253,56.0,0.0,240.0,0.0,64.0
4254,76.0,0.0,240.0,0.0,64.0
4255,66.0,120.0,120.0,0.0,64.0
4256,59.0,120.0,240.0,0.0,64.0
4257,68.0,120.0,120.0,0.0,64.0
4258,70.0,0.0,120.0,0.0,64.0
4259,71.0,0.0,15.0,0.0,64.0
4260,58.0,120.0,240.0,0.0,64.0
4261,76.0,120.0,600.0,0.0,64.0
4262,75.0,0.0,120.0,0.0,64.0
4263,73.0,120.0,120.0,0.0,64.0
4264,56.0,0.0,240.0,0.0,64.0
4265,71.0,120.0,120.0,0.0,64.0
4266,58.0,0.0,240.0,0.0,64.0
4267,73.0,0.0,120.0,0.0,64.0
4268,71.0,120.0,120.0,0.0,64.0
4269,75.0,0.0,120.0,0.0,64.0
4270,61.0,120.0,240.0,0.0,64.0
4271,73.0,120.0,120.0,0.0,64.0
4272,70.0,0.0,120.0,0.0,64.0
4273,71.0,0.0,120.0,0.0,64.0
4274,75.0,0.0,120.0,0.0,64.0
4275,73.0,0.0,120.0,0.0,64.0
4276,59.0,120.0,240.0,0.0,64.0
4277,76.0,120.0,15.0,0.0,64.0
4278,80.0,0.0,120.0,0.0,64.0
4279,58.0,0.0,240.0,0.0,64.0
4280,78.0,0.0,120.0,0.0,64.0
4281,75.0,120.0,120.0,0.0,64.0
4282,76.0,0.0,120.0,0.0,64.0
4283,73.0,120.0,120.0,0.0,64.0
4284,59.0,0.0,240.0,0.0,64.0
4285,75.0,120.0,120.0,0.0,64.0
4286,71.0,120.0,120.0,0.0,64.0
4287,73.0,120.0,120.0,0.0,64.0
4288,56.0,0.0,240.0,0.0,64.0
4289,75.0,120.0,120.0,0.0,64.0
4290,76.0,120.0,120.0,0.0,64.0
4291,54.0,0.0,240.0,0.0,64.0
4292,78.0,120.0,120.0,0.0,64.0
4293,70.0,0.0,120.0,0.0,64.0
4294,52.0,0.0,240.0,0.0,64.0
4295,68.0,0.0,120.0,0.0,64.0
4296,80.0,120.0,120.0,0.0,64.0
4297,73.0,240.0,120.0,0.0,64.0
4298,82.0,0.0,120.0,0.0,64.0
4299,66.0,0.0,240.0,0.0,64.0
4300,51.0,60.0,240.0,0.0,64.0
4301,83.0,0.0,240.0,0.0,64.0
4302,73.0,60.0,60.0,0.0,64.0
4303,49.0,240.0,240.0,0.0,64.0
4304,75.0,120.0,60.0,0.0,64.0
4305,76.0,0.0,120.0,0.0,64.0
4306,75.0,0.0,240.0,0.0,64.0
4307,47.0,240.0,240.0,0.0,64.0
4308,73.0,120.0,240.0,0.0,64.0
4309,46.0,0.0,240.0,0.0,64.0
4310,75.0,120.0,120.0,0.0,64.0
4311,47.0,120.0,240.0,0.0,64.0
4312,71.0,0.0,120.0,0.0,64.0
4313,75.0,120.0,120.0,0.0,64.0
4314,59.0,0.0,240.0,0.0,64.0
4315,78.0,120.0,120.0,0.0,64.0
4316,76.0,120.0,600.0,0.0,64.0
4317,56.0,0.0,240.0,0.0,64.0
4318,70.0,120.0,120.0,0.0,64.0
4319,61.0,0.0,240.0,0.0,64.0
4320,68.0,120.0,120.0,0.0,64.0
4321,73.0,120.0,120.0,0.0,64.0
4322,58.0,60.0,240.0,0.0,64.0
4323,66.0,0.0,240.0,0.0,64.0
4324,54.0,0.0,240.0,0.0,64.0
4325,73.0,0.0,15.0,0.0,64.0
4326,75.0,0.0,60.0,0.0,64.0
4327,80.0,240.0,120.0,0.0,64.0
4328,76.0,120.0,15.0,0.0,64.0
4329,75.0,240.0,240.0,0.0,64.0
4330,78.0,120.0,600.0,0.0,64.0
4331,73.0,0.0,240.0,0.0,64.0
4332,58.0,120.0,240.0,0.0,64.0
4333,59.0,0.0,240.0,0.0,64.0
4334,71.0,120.0,120.0,0.0,64.0
4335,75.0,0.0,15.0,0.0,64.0
4336,75.0,0.0,15.0,0.0,64.0
4337,47.0,0.0,240.0,0.0,64.0
4338,81.0,120.0,120.0,0.0,64.0
4339,78.0,0.0,15.0,0.0,64.0
4340,80.0,120.0,120.0,0.0,64.0
4341,52.0,0.0,240.0,0.0,64.0
4342,78.0,120.0,120.0,0.0,64.0
4343,56.0,120.0,240.0,0.0,64.0
4344,76.0,120.0,120.0,0.0,64.0
4345,75.0,0.0,120.0,0.0,64.0
4346,58.0,120.0,240.0,0.0,64.0
4347,73.0,120.0,15.0,0.0,64.0
4348,70.0,0.0,120.0,0.0,64.0
4349,73.0,0.0,15.0,0.0,64.0
4350,46.0,120.0,240.0,0.0,64.0
4351,80.0,0.0,120.0,0.0,64.0
4352,76.0,120.0,15.0,0.0,64.0
4353,75.0,120.0,120.0,0.0,64.0
4354,51.0,120.0,240.0,0.0,64.0
4355,78.0,120.0,600.0,0.0,64.0
4356,73.0,0.0,120.0,0.0,64.0
4357,71.0,120.0,120.0,0.0,64.0
4358,54.0,120.0,240.0,0.0,64.0
4359,70.0,0.0,120.0,0.0,64.0
4360,71.0,0.0,1080.0,0.0,64.0
4361,56.0,0.0,240.0,0.0,64.0
4362,75.0,120.0,120.0,0.0,64.0
4363,51.0,120.0,240.0,0.0,64.0
4364,78.0,120.0,120.0,0.0,64.0
4365,81.0,0.0,120.0,0.0,64.0
4366,52.0,120.0,240.0,0.0,64.0
4367,80.0,120.0,120.0,0.0,64.0
4368,78.0,0.0,120.0,0.0,64.0
4369,76.0,120.0,120.0,0.0,64.0
4370,49.0,120.0,240.0,0.0,64.0
4371,75.0,0.0,120.0,0.0,64.0
4372,73.0,120.0,120.0,0.0,64.0
4373,54.0,0.0,240.0,0.0,64.0
4374,66.0,0.0,120.0,0.0,64.0
4375,70.0,120.0,15.0,0.0,64.0
4376,42.0,0.0,240.0,0.0,64.0
4377,73.0,0.0,15.0,0.0,64.0
4378,76.0,0.0,120.0,0.0,64.0
4379,75.0,120.0,120.0,0.0,64.0
4380,71.0,0.0,120.0,0.0,64.0
4381,73.0,120.0,120.0,0.0,64.0
4382,70.0,0.0,120.0,0.0,64.0
4383,71.0,120.0,120.0,0.0,64.0
4384,52.0,0.0,240.0,0.0,64.0
4385,68.0,0.0,120.0,0.0,64.0
4386,70.0,120.0,120.0,0.0,64.0
4387,66.0,0.0,120.0,0.0,64.0
4388,71.0,0.0,240.0,0.0,64.0
4389,51.0,120.0,240.0,0.0,64.0
4390,78.0,120.0,120.0,0.0,64.0
4391,76.0,0.0,120.0,0.0,64.0
4392,63.0,120.0,240.0,0.0,64.0
4393,80.0,120.0,120.0,0.0,64.0
4394,47.0,0.0,240.0,0.0,64.0
4395,78.0,0.0,120.0,0.0,64.0
4396,76.0,120.0,120.0,0.0,64.0
4397,54.0,0.0,240.0,0.0,64.0
4398,61.0,120.0,240.0,0.0,64.0
4399,75.0,0.0,120.0,0.0,64.0
4400,70.0,0.0,240.0,0.0,64.0
4401,73.0,120.0,120.0,0.0,64.0
4402,42.0,0.0,240.0,0.0,64.0
4403,75.0,240.0,120.0,0.0,64.0
4404,73.0,0.0,240.0,0.0,64.0
4405,47.0,240.0,240.0,0.0,64.0
4406,71.0,0.0,240.0,0.0,64.0
4407,59.0,0.0,240.0,0.0,64.0
4408,58.0,240.0,240.0,0.0,64.0
4409,56.0,60.0,240.0,0.0,64.0
4410,75.0,0.0,240.0,0.0,64.0
4411,49.0,240.0,240.0,0.0,64.0
4412,76.0,60.0,60.0,0.0,64.0
4413,75.0,120.0,60.0,0.0,64.0
4414,73.0,0.0,120.0,0.0,64.0
4415,75.0,240.0,240.0,0.0,64.0
4416,61.0,0.0,240.0,0.0,64.0
4417,68.0,60.0,240.0,0.0,64.0
4418,59.0,0.0,240.0,0.0,64.0
4419,58.0,0.0,240.0,0.0,64.0
4420,70.0,60.0,60.0,0.0,64.0
4421,68.0,120.0,60.0,0.0,64.0
4422,70.0,240.0,120.0,0.0,64.0
4423,71.0,0.0,240.0,0.0,64.0
4424,56.0,120.0,240.0,0.0,64.0
4425,70.0,120.0,120.0,0.0,64.0
4426,79.0,0.0,240.0,0.0,64.0
4427,63.0,0.0,240.0,0.0,64.0
4428,71.0,120.0,120.0,0.0,64.0
4429,59.0,120.0,240.0,0.0,64.0
4430,80.0,0.0,240.0,0.0,64.0
4431,68.0,120.0,120.0,0.0,64.0
4432,63.0,0.0,15.0,0.0,64.0
4433,79.0,120.0,240.0,0.0,64.0
4434,70.0,120.0,120.0,0.0,64.0
4435,63.0,0.0,120.0,0.0,64.0
4436,71.0,120.0,120.0,0.0,64.0
4437,56.0,0.0,240.0,0.0,64.0
4438,80.0,120.0,240.0,0.0,64.0
4439,63.0,0.0,120.0,0.0,64.0
4440,70.0,120.0,120.0,0.0,64.0
4441,75.0,0.0,240.0,0.0,64.0
4442,55.0,120.0,240.0,0.0,64.0
4443,63.0,0.0,120.0,0.0,64.0
4444,56.0,0.0,240.0,0.0,64.0
4445,71.0,120.0,120.0,0.0,64.0
4446,68.0,240.0,120.0,0.0,64.0
4447,73.0,60.0,240.0,0.0,64.0
4448,53.0,0.0,240.0,0.0,64.0
4449,70.0,60.0,60.0,0.0,64.0
4450,54.0,0.0,240.0,0.0,64.0
4451,71.0,120.0,60.0,0.0,64.0
4452,70.0,120.0,120.0,0.0,64.0
4453,68.0,120.0,120.0,0.0,64.0
4454,61.0,120.0,240.0,0.0,64.0
4455,77.0,0.0,240.0,0.0,64.0
4456,70.0,0.0,120.0,0.0,64.0
4457,78.0,0.0,240.0,0.0,64.0
4458,58.0,0.0,240.0,0.0,64.0
4459,66.0,120.0,120.0,0.0,64.0
4460,68.0,120.0,120.0,0.0,64.0
4461,61.0,120.0,15.0,0.0,64.0
4462,77.0,0.0,240.0,0.0,64.0
4463,61.0,0.0,120.0,0.0,64.0
4464,78.0,0.0,240.0,0.0,64.0
4465,54.0,120.0,240.0,0.0,64.0
4466,70.0,120.0,120.0,0.0,64.0
4467,61.0,0.0,120.0,0.0,64.0
4468,68.0,120.0,120.0,0.0,64.0
4469,53.0,0.0,240.0,0.0,64.0
4470,73.0,120.0,240.0,0.0,64.0
4471,61.0,0.0,120.0,0.0,64.0
4472,54.0,240.0,240.0,0.0,64.0
4473,70.0,120.0,120.0,0.0,64.0
4474,66.0,0.0,120.0,0.0,64.0
4475,71.0,0.0,240.0,0.0,64.0
4476,51.0,120.0,240.0,0.0,64.0
4477,70.0,120.0,120.0,0.0,64.0
4478,52.0,0.0,240.0,0.0,64.0
4479,68.0,120.0,120.0,0.0,64.0
4480,67.0,120.0,120.0,0.0,64.0
4481,40.0,0.0,240.0,0.0,64.0
4482,68.0,120.0,120.0,0.0,64.0
4483,72.0,120.0,120.0,0.0,64.0
4484,68.0,120.0,120.0,0.0,64.0
4485,51.0,0.0,240.0,0.0,64.0
4486,67.0,120.0,120.0,0.0,64.0
4487,68.0,120.0,120.0,0.0,64.0
4488,52.0,0.0,240.0,0.0,64.0
4489,73.0,120.0,120.0,0.0,64.0
4490,68.0,120.0,120.0,0.0,64.0
4491,67.0,120.0,120.0,0.0,64.0
4492,61.0,120.0,240.0,0.0,64.0
4493,68.0,0.0,120.0,0.0,64.0
4494,53.0,120.0,240.0,0.0,64.0
4495,74.0,120.0,120.0,0.0,64.0
4496,68.0,0.0,120.0,0.0,64.0
4497,67.0,120.0,120.0,0.0,64.0
4498,62.0,0.0,240.0,0.0,64.0
4499,68.0,240.0,120.0,0.0,64.0
4500,75.0,0.0,1200.0,0.0,64.0
4501,54.0,240.0,240.0,0.0,64.0
4502,63.0,240.0,240.0,0.0,64.0
4503,55.0,240.0,240.0,0.0,64.0
4504,82.0,60.0,240.0,0.0,64.0
4505,63.0,0.0,240.0,0.0,64.0
4506,44.0,240.0,240.0,0.0,64.0
4507,83.0,60.0,60.0,0.0,64.0
4508,82.0,120.0,60.0,0.0,64.0
4509,80.0,0.0,120.0,0.0,64.0
4510,56.0,0.0,240.0,0.0,64.0
4511,82.0,0.0,240.0,0.0,64.0
4512,74.0,240.0,240.0,0.0,64.0
4513,75.0,60.0,240.0,0.0,64.0
4514,54.0,0.0,240.0,0.0,64.0
4515,53.0,0.0,240.0,0.0,64.0
4516,77.0,60.0,60.0,0.0,64.0
4517,75.0,120.0,60.0,0.0,64.0
4518,77.0,240.0,120.0,0.0,64.0
4519,78.0,0.0,240.0,0.0,64.0
4520,51.0,120.0,240.0,0.0,64.0
4521,77.0,120.0,120.0,0.0,64.0
4522,58.0,120.0,240.0,0.0,64.0
4523,74.0,0.0,240.0,0.0,64.0
4524,78.0,0.0,120.0,0.0,64.0
4525,75.0,120.0,120.0,0.0,64.0
4526,54.0,0.0,240.0,0.0,64.0
4527,70.0,120.0,120.0,0.0,64.0
4528,74.0,0.0,240.0,0.0,64.0
4529,77.0,120.0,120.0,0.0,64.0
4530,58.0,120.0,240.0,0.0,64.0
4531,70.0,0.0,120.0,0.0,64.0
4532,51.0,0.0,240.0,0.0,64.0
4533,75.0,120.0,240.0,0.0,64.0
4534,78.0,120.0,120.0,0.0,64.0
4535,77.0,120.0,120.0,0.0,64.0
4536,62.0,120.0,240.0,0.0,64.0
4537,70.0,0.0,15.0,0.0,64.0
4538,70.0,0.0,120.0,0.0,64.0
4539,78.0,120.0,120.0,0.0,64.0
4540,63.0,0.0,240.0,0.0,64.0
4541,75.0,240.0,120.0,0.0,64.0
4542,60.0,0.0,240.0,0.0,64.0
4543,80.0,60.0,240.0,0.0,64.0
4544,61.0,120.0,240.0,0.0,64.0
4545,77.0,60.0,60.0,0.0,64.0
4546,78.0,120.0,60.0,0.0,64.0
4547,77.0,0.0,120.0,0.0,64.0
4548,75.0,120.0,120.0,0.0,64.0
4549,56.0,120.0,240.0,0.0,64.0
4550,72.0,0.0,240.0,0.0,64.0
4551,77.0,0.0,120.0,0.0,64.0
4552,53.0,0.0,240.0,0.0,64.0
4553,73.0,120.0,120.0,0.0,64.0
4554,68.0,120.0,120.0,0.0,64.0
4555,56.0,120.0,240.0,0.0,64.0
4556,72.0,0.0,240.0,0.0,64.0
4557,75.0,120.0,120.0,0.0,64.0
4558,68.0,0.0,120.0,0.0,64.0
4559,49.0,120.0,240.0,0.0,64.0
4560,73.0,0.0,240.0,0.0,64.0
4561,77.0,120.0,120.0,0.0,64.0
4562,68.0,0.0,15.0,0.0,64.0
4563,75.0,120.0,120.0,0.0,64.0
4564,60.0,0.0,240.0,0.0,64.0
4565,68.0,0.0,120.0,0.0,64.0
4566,77.0,120.0,120.0,0.0,64.0
4567,61.0,240.0,240.0,0.0,64.0
4568,73.0,0.0,120.0,0.0,64.0
4569,78.0,0.0,240.0,0.0,64.0
4570,58.0,120.0,240.0,0.0,64.0
4571,77.0,120.0,120.0,0.0,64.0
4572,59.0,120.0,240.0,0.0,64.0
4573,75.0,0.0,120.0,0.0,64.0
4574,74.0,120.0,120.0,0.0,64.0
4575,47.0,0.0,240.0,0.0,64.0
4576,75.0,120.0,120.0,0.0,64.0
4577,79.0,120.0,120.0,0.0,64.0
4578,75.0,120.0,120.0,0.0,64.0
4579,46.0,0.0,240.0,0.0,64.0
4580,74.0,120.0,120.0,0.0,64.0
4581,75.0,120.0,120.0,0.0,64.0
4582,80.0,120.0,120.0,0.0,64.0
4583,47.0,120.0,240.0,0.0,64.0
4584,75.0,0.0,120.0,0.0,64.0
4585,56.0,120.0,240.0,0.0,64.0
4586,74.0,120.0,120.0,0.0,64.0
4587,75.0,0.0,120.0,0.0,64.0
4588,48.0,120.0,240.0,0.0,64.0
4589,81.0,120.0,120.0,0.0,64.0
4590,75.0,0.0,120.0,0.0,64.0
4591,57.0,240.0,240.0,0.0,64.0
4592,74.0,120.0,120.0,0.0,64.0
4593,75.0,0.0,120.0,0.0,64.0
4594,49.0,0.0,240.0,0.0,64.0
4595,77.0,120.0,120.0,0.0,64.0
4596,58.0,0.0,240.0,0.0,64.0
4597,78.0,120.0,120.0,0.0,64.0
4598,80.0,120.0,120.0,0.0,64.0
4599,50.0,0.0,240.0,0.0,64.0
4600,70.0,120.0,120.0,0.0,64.0
4601,80.0,120.0,120.0,0.0,64.0
4602,78.0,120.0,120.0,0.0,64.0
4603,58.0,0.0,240.0,0.0,64.0
4604,77.0,120.0,120.0,0.0,64.0
4605,51.0,120.0,240.0,0.0,64.0
4606,78.0,120.0,120.0,0.0,64.0
4607,75.0,0.0,120.0,0.0,64.0
4608,58.0,120.0,240.0,0.0,64.0
4609,77.0,120.0,120.0,0.0,64.0
4610,78.0,0.0,120.0,0.0,64.0
4611,74.0,120.0,120.0,0.0,64.0
4612,53.0,0.0,240.0,0.0,64.0
4613,77.0,120.0,120.0,0.0,64.0
4614,56.0,120.0,240.0,0.0,64.0
4615,75.0,120.0,120.0,0.0,64.0
4616,74.0,0.0,120.0,0.0,64.0
4617,54.0,0.0,240.0,0.0,64.0
4618,82.0,120.0,15.0,0.0,64.0
4619,83.0,120.0,120.0,0.0,64.0
4620,63.0,0.0,240.0,0.0,64.0
4621,85.0,120.0,120.0,0.0,64.0
4622,55.0,120.0,240.0,0.0,64.0
4623,75.0,120.0,120.0,0.0,64.0
4624,85.0,0.0,120.0,0.0,64.0
4625,63.0,0.0,240.0,0.0,64.0
4626,83.0,120.0,120.0,0.0,64.0
4627,82.0,120.0,120.0,0.0,64.0
4628,56.0,120.0,240.0,0.0,64.0
4629,83.0,120.0,120.0,0.0,64.0
4630,80.0,0.0,120.0,0.0,64.0
4631,82.0,120.0,120.0,0.0,64.0
4632,63.0,120.0,240.0,0.0,64.0
4633,83.0,0.0,120.0,0.0,64.0
4634,79.0,120.0,120.0,0.0,64.0
4635,58.0,0.0,240.0,0.0,64.0
4636,82.0,120.0,120.0,0.0,64.0
4637,61.0,0.0,240.0,0.0,64.0
4638,80.0,120.0,120.0,0.0,64.0
4639,79.0,120.0,120.0,0.0,64.0
4640,59.0,120.0,240.0,0.0,64.0
4641,75.0,120.0,15.0,0.0,64.0
4642,76.0,120.0,120.0,0.0,64.0
4643,58.0,120.0,240.0,0.0,64.0
4644,78.0,0.0,120.0,0.0,64.0
4645,68.0,120.0,120.0,0.0,64.0
4646,60.0,0.0,240.0,0.0,64.0
4647,78.0,120.0,120.0,0.0,64.0
4648,56.0,0.0,240.0,0.0,64.0
4649,76.0,120.0,120.0,0.0,64.0
4650,75.0,120.0,120.0,0.0,64.0
4651,76.0,120.0,120.0,0.0,64.0
4652,61.0,0.0,240.0,0.0,64.0
4653,73.0,120.0,120.0,0.0,64.0
4654,75.0,120.0,120.0,0.0,64.0
4655,56.0,0.0,240.0,0.0,64.0
4656,76.0,120.0,120.0,0.0,64.0
4657,72.0,120.0,120.0,0.0,64.0
4658,63.0,0.0,240.0,0.0,64.0
4659,75.0,120.0,120.0,0.0,64.0
4660,56.0,0.0,240.0,0.0,64.0
4661,73.0,120.0,120.0,0.0,64.0
4662,72.0,120.0,120.0,0.0,64.0
4663,64.0,120.0,240.0,0.0,64.0
4664,80.0,120.0,15.0,0.0,64.0
4665,82.0,120.0,120.0,0.0,64.0
4666,63.0,120.0,240.0,0.0,64.0
4667,83.0,0.0,120.0,0.0,64.0
4668,65.0,0.0,240.0,0.0,64.0
4669,73.0,120.0,120.0,0.0,64.0
4670,83.0,120.0,120.0,0.0,64.0
4671,61.0,120.0,240.0,0.0,64.0
4672,82.0,120.0,120.0,0.0,64.0
4673,80.0,0.0,120.0,0.0,64.0
4674,54.0,120.0,240.0,0.0,64.0
4675,82.0,120.0,120.0,0.0,64.0
4676,78.0,0.0,120.0,0.0,64.0
4677,61.0,0.0,240.0,0.0,64.0
4678,80.0,120.0,120.0,0.0,64.0
4679,82.0,120.0,120.0,0.0,64.0
4680,56.0,0.0,240.0,0.0,64.0
4681,77.0,120.0,120.0,0.0,64.0
4682,80.0,120.0,120.0,0.0,64.0
4683,78.0,120.0,120.0,0.0,64.0
4684,59.0,120.0,240.0,0.0,64.0
4685,77.0,0.0,120.0,0.0,64.0
4686,78.0,120.0,1080.0,0.0,64.0
4687,58.0,0.0,240.0,0.0,64.0
4688,73.0,120.0,15.0,0.0,64.0
4689,56.0,0.0,240.0,0.0,64.0
4690,75.0,120.0,120.0,0.0,64.0
4691,76.0,120.0,120.0,0.0,64.0
4692,58.0,0.0,240.0,0.0,64.0
4693,66.0,120.0,120.0,0.0,64.0
4694,76.0,120.0,120.0,0.0,64.0
4695,75.0,120.0,120.0,0.0,64.0
4696,54.0,120.0,240.0,0.0,64.0
4697,73.0,0.0,120.0,0.0,64.0
4698,59.0,0.0,240.0,0.0,64.0
4699,75.0,0.0,15.0,0.0,64.0
4700,71.0,120.0,120.0,0.0,64.0
4701,76.0,120.0,120.0,0.0,64.0
4702,73.0,0.0,120.0,0.0,64.0
4703,54.0,0.0,240.0,0.0,64.0
4704,75.0,120.0,120.0,0.0,64.0
4705,78.0,0.0,120.0,0.0,64.0
4706,70.0,0.0,120.0,0.0,64.0
4707,66.0,120.0,120.0,0.0,64.0
4708,76.0,0.0,120.0,0.0,64.0
4709,73.0,0.0,120.0,0.0,64.0
4710,75.0,120.0,120.0,0.0,64.0
4711,54.0,120.0,240.0,0.0,64.0
4712,71.0,0.0,120.0,0.0,64.0
4713,73.0,0.0,120.0,0.0,64.0
4714,70.0,0.0,120.0,0.0,64.0
4715,59.0,0.0,240.0,0.0,64.0
4716,75.0,120.0,120.0,0.0,64.0
4717,71.0,120.0,120.0,0.0,64.0
4718,58.0,120.0,240.0,0.0,64.0
4719,73.0,120.0,120.0,0.0,64.0
4720,75.0,0.0,120.0,0.0,64.0
4721,59.0,0.0,240.0,0.0,64.0
4722,66.0,0.0,120.0,0.0,64.0
4723,73.0,120.0,120.0,0.0,64.0
4724,70.0,0.0,120.0,0.0,64.0
4725,61.0,240.0,240.0,0.0,64.0
4726,71.0,120.0,120.0,0.0,64.0
4727,68.0,0.0,120.0,0.0,64.0
4728,73.0,0.0,120.0,0.0,64.0
4729,70.0,0.0,120.0,0.0,64.0
4730,71.0,120.0,600.0,0.0,64.0
4731,63.0,60.0,240.0,0.0,64.0
4732,66.0,0.0,240.0,0.0,64.0
4733,73.0,60.0,60.0,0.0,64.0
4734,64.0,0.0,240.0,0.0,64.0
4735,75.0,120.0,60.0,0.0,64.0
4736,76.0,120.0,120.0,0.0,64.0
4737,75.0,120.0,240.0,0.0,64.0
4738,66.0,0.0,240.0,0.0,64.0
4739,70.0,0.0,120.0,0.0,64.0
4740,64.0,240.0,240.0,0.0,64.0
4741,68.0,120.0,120.0,0.0,64.0
4742,73.0,0.0,120.0,0.0,64.0
4743,66.0,0.0,240.0,0.0,64.0
4744,63.0,0.0,240.0,0.0,64.0
4745,71.0,60.0,240.0,0.0,64.0
4746,73.0,60.0,60.0,0.0,64.0
4747,61.0,240.0,240.0,0.0,64.0
4748,75.0,120.0,60.0,0.0,64.0
4749,76.0,0.0,120.0,0.0,64.0
4750,59.0,0.0,240.0,0.0,64.0
4751,75.0,30.0,240.0,0.0,64.0
4752,73.0,30.0,30.0,0.0,64.0
4753,58.0,60.0,240.0,0.0,64.0
4754,71.0,180.0,30.0,0.0,64.0
4755,73.0,0.0,180.0,0.0,64.0
4756,59.0,0.0,240.0,0.0,64.0
4757,78.0,120.0,600.0,0.0,64.0
4758,75.0,60.0,60.0,0.0,64.0
4759,76.0,120.0,60.0,0.0,64.0
4760,75.0,240.0,120.0,0.0,64.0
4761,63.0,120.0,240.0,0.0,64.0
4762,61.0,0.0,240.0,0.0,64.0
4763,77.0,120.0,120.0,0.0,64.0
4764,75.0,120.0,120.0,0.0,64.0
4765,59.0,0.0,240.0,0.0,64.0
4766,80.0,240.0,120.0,0.0,64.0
4767,73.0,60.0,240.0,0.0,64.0
4768,58.0,0.0,240.0,0.0,64.0
4769,78.0,120.0,600.0,0.0,64.0
4770,59.0,120.0,240.0,0.0,64.0
4771,80.0,60.0,60.0,0.0,64.0
4772,82.0,120.0,60.0,0.0,64.0
4773,83.0,0.0,120.0,0.0,64.0
4774,82.0,0.0,240.0,0.0,64.0
4775,61.0,0.0,240.0,0.0,64.0
4776,77.0,60.0,120.0,0.0,64.0
4777,59.0,0.0,240.0,0.0,64.0
4778,80.0,60.0,60.0,0.0,64.0
4779,75.0,0.0,120.0,0.0,64.0
4780,82.0,120.0,60.0,0.0,64.0
4781,80.0,0.0,120.0,0.0,64.0
4782,73.0,0.0,240.0,0.0,64.0
4783,78.0,0.0,240.0,0.0,64.0
4784,58.0,60.0,240.0,0.0,64.0
4785,80.0,60.0,60.0,0.0,64.0
4786,56.0,0.0,240.0,0.0,64.0
4787,82.0,120.0,60.0,0.0,64.0
4788,83.0,240.0,120.0,0.0,64.0
4789,82.0,0.0,240.0,0.0,64.0
4790,54.0,60.0,240.0,0.0,64.0
4791,53.0,0.0,240.0,0.0,64.0
4792,80.0,60.0,60.0,0.0,64.0
4793,82.0,120.0,60.0,0.0,64.0
4794,80.0,120.0,120.0,0.0,64.0
4795,82.0,120.0,120.0,0.0,64.0
4796,54.0,120.0,240.0,0.0,64.0
4797,78.0,0.0,120.0,0.0,64.0
4798,82.0,120.0,120.0,0.0,64.0
4799,61.0,240.0,240.0,0.0,64.0
4800,85.0,0.0,120.0,0.0,64.0
4801,53.0,240.0,240.0,0.0,64.0
4802,83.0,0.0,240.0,0.0,64.0
4803,78.0,120.0,360.0,0.0,64.0
4804,82.0,120.0,240.0,0.0,64.0
4805,54.0,0.0,240.0,0.0,64.0
4806,80.0,0.0,240.0,0.0,64.0
4807,49.0,0.0,480.0,0.0,64.0
4808,75.0,120.0,120.0,0.0,64.0
4809,77.0,120.0,120.0,0.0,64.0
4810,73.0,240.0,240.0,0.0,64.0
4811,80.0,0.0,120.0,0.0,64.0
4812,78.0,240.0,240.0,0.0,64.0
4813,85.0,120.0,360.0,0.0,64.0
4814,77.0,120.0,240.0,0.0,64.0
4815,75.0,120.0,240.0,0.0,64.0
4816,44.0,240.0,480.0,0.0,64.0
4817,82.0,0.0,120.0,0.0,64.0
4818,83.0,120.0,120.0,0.0,64.0
4819,68.0,0.0,240.0,0.0,64.0
4820,87.0,0.0,120.0,0.0,64.0
4821,85.0,240.0,240.0,0.0,64.0
4822,80.0,120.0,360.0,0.0,64.0
4823,83.0,120.0,240.0,0.0,64.0
4824,82.0,120.0,240.0,0.0,64.0
4825,51.0,240.0,480.0,0.0,64.0
4826,77.0,0.0,120.0,0.0,64.0
4827,78.0,120.0,120.0,0.0,64.0
4828,75.0,0.0,240.0,0.0,64.0
4829,82.0,0.0,120.0,0.0,64.0
4830,80.0,240.0,240.0,0.0,64.0
4831,87.0,120.0,360.0,0.0,64.0
4832,78.0,120.0,240.0,0.0,64.0
4833,77.0,0.0,240.0,0.0,64.0
4834,46.0,0.0,240.0,0.0,64.0
4835,83.0,120.0,120.0,0.0,64.0
4836,70.0,120.0,240.0,0.0,64.0
4837,85.0,120.0,120.0,0.0,64.0
4838,82.0,0.0,120.0,0.0,64.0
4839,79.0,120.0,120.0,0.0,64.0
4840,51.0,0.0,240.0,0.0,64.0
4841,77.0,120.0,120.0,0.0,64.0
4842,70.0,120.0,480.0,0.0,64.0
4843,79.0,120.0,120.0,0.0,64.0
4844,82.0,120.0,120.0,0.0,64.0
4845,44.0,0.0,240.0,0.0,64.0
4846,85.0,120.0,120.0,0.0,64.0
4847,82.0,0.0,120.0,0.0,64.0
4848,68.0,120.0,240.0,0.0,64.0
4849,83.0,120.0,120.0,0.0,64.0
4850,80.0,0.0,120.0,0.0,64.0
4851,77.0,120.0,120.0,0.0,64.0
4852,49.0,120.0,240.0,0.0,64.0
4853,75.0,0.0,120.0,0.0,64.0
4854,77.0,120.0,120.0,0.0,64.0
4855,80.0,120.0,120.0,0.0,64.0
4856,83.0,120.0,240.0,0.0,64.0
4857,54.0,0.0,240.0,0.0,64.0
4858,77.0,0.0,120.0,0.0,64.0
4859,78.0,120.0,120.0,0.0,64.0
4860,82.0,0.0,240.0,0.0,64.0
4861,75.0,120.0,120.0,0.0,64.0
4862,56.0,120.0,240.0,0.0,64.0
4863,72.0,120.0,120.0,0.0,64.0
4864,70.0,0.0,120.0,0.0,64.0
4865,72.0,120.0,120.0,0.0,64.0
4866,75.0,120.0,120.0,0.0,64.0
4867,78.0,120.0,120.0,0.0,64.0
4868,49.0,0.0,240.0,0.0,64.0
4869,75.0,0.0,120.0,0.0,64.0
4870,76.0,120.0,120.0,0.0,64.0
4871,73.0,0.0,120.0,0.0,64.0
4872,54.0,120.0,240.0,0.0,64.0
4873,70.0,120.0,120.0,0.0,64.0
4874,68.0,0.0,120.0,0.0,64.0
4875,70.0,120.0,120.0,0.0,64.0
4876,85.0,120.0,360.0,0.0,64.0
4877,73.0,120.0,120.0,0.0,64.0
4878,76.0,0.0,240.0,0.0,64.0
4879,59.0,0.0,240.0,0.0,64.0
4880,82.0,120.0,120.0,0.0,64.0
4881,75.0,0.0,240.0,0.0,64.0
4882,83.0,120.0,120.0,0.0,64.0
4883,80.0,120.0,120.0,0.0,64.0
4884,61.0,0.0,240.0,0.0,64.0
4885,77.0,120.0,120.0,0.0,64.0
4886,75.0,120.0,120.0,0.0,64.0
4887,68.0,0.0,480.0,0.0,64.0
4888,77.0,120.0,120.0,0.0,64.0
4889,80.0,120.0,120.0,0.0,64.0
4890,83.0,120.0,120.0,0.0,64.0
4891,54.0,120.0,240.0,0.0,64.0
4892,80.0,0.0,120.0,0.0,64.0
4893,82.0,120.0,120.0,0.0,64.0
4894,66.0,120.0,240.0,0.0,64.0
4895,78.0,0.0,120.0,0.0,64.0
4896,75.0,120.0,120.0,0.0,64.0
4897,59.0,120.0,240.0,0.0,64.0
4898,73.0,0.0,120.0,0.0,64.0
4899,75.0,120.0,120.0,0.0,64.0
4900,78.0,120.0,120.0,0.0,64.0
4901,52.0,0.0,240.0,0.0,64.0
4902,75.0,120.0,120.0,0.0,64.0
4903,81.0,0.0,240.0,0.0,64.0
4904,76.0,120.0,120.0,0.0,64.0
4905,73.0,120.0,120.0,0.0,64.0
4906,70.0,120.0,120.0,0.0,64.0
4907,54.0,0.0,240.0,0.0,64.0
4908,80.0,0.0,240.0,0.0,64.0
4909,68.0,120.0,120.0,0.0,64.0
4910,70.0,120.0,120.0,0.0,64.0
4911,73.0,120.0,120.0,0.0,64.0
4912,59.0,120.0,240.0,0.0,64.0
4913,76.0,120.0,120.0,0.0,64.0
4914,73.0,0.0,120.0,0.0,64.0
4915,75.0,120.0,120.0,0.0,64.0
4916,71.0,0.0,120.0,0.0,64.0
4917,68.0,120.0,120.0,0.0,64.0
4918,53.0,0.0,240.0,0.0,64.0
4919,66.0,120.0,120.0,0.0,64.0
4920,83.0,120.0,360.0,0.0,64.0
4921,68.0,120.0,120.0,0.0,64.0
4922,71.0,120.0,120.0,0.0,64.0
4923,54.0,120.0,240.0,0.0,64.0
4924,74.0,0.0,240.0,0.0,64.0
4925,80.0,0.0,120.0,0.0,64.0
4926,73.0,0.0,240.0,0.0,64.0
4927,82.0,120.0,120.0,0.0,64.0
4928,78.0,120.0,120.0,0.0,64.0
4929,55.0,0.0,240.0,0.0,64.0
4930,75.0,120.0,120.0,0.0,64.0
4931,73.0,120.0,120.0,0.0,64.0
4932,70.0,120.0,480.0,0.0,64.0
4933,75.0,120.0,120.0,0.0,64.0
4934,82.0,120.0,120.0,0.0,64.0
4935,85.0,120.0,120.0,0.0,64.0
4936,56.0,0.0,240.0,0.0,64.0
4937,82.0,0.0,120.0,0.0,64.0
4938,83.0,120.0,120.0,0.0,64.0
4939,68.0,120.0,240.0,0.0,64.0
4940,80.0,0.0,120.0,0.0,64.0
4941,77.0,120.0,120.0,0.0,64.0
4942,57.0,0.0,240.0,0.0,64.0
4943,75.0,120.0,120.0,0.0,64.0
4944,72.0,120.0,360.0,0.0,64.0
4945,77.0,120.0,120.0,0.0,64.0
4946,84.0,120.0,120.0,0.0,64.0
4947,87.0,120.0,240.0,0.0,64.0
4948,58.0,0.0,240.0,0.0,64.0
4949,69.0,0.0,120.0,0.0,64.0
4950,86.0,0.0,240.0,0.0,64.0
4951,70.0,120.0,120.0,0.0,64.0
4952,46.0,120.0,240.0,0.0,64.0
4953,65.0,0.0,120.0,0.0,64.0
4954,62.0,120.0,120.0,0.0,64.0
4955,60.0,120.0,120.0,0.0,64.0
4956,62.0,120.0,120.0,0.0,64.0
4957,82.0,60.0,240.0,0.0,64.0
4958,65.0,0.0,120.0,0.0,64.0
4959,68.0,0.0,120.0,0.0,64.0
4960,83.0,60.0,60.0,0.0,64.0
4961,82.0,120.0,60.0,0.0,64.0
4962,80.0,0.0,120.0,0.0,64.0
4963,65.0,120.0,120.0,0.0,64.0
4964,66.0,120.0,120.0,0.0,64.0
4965,82.0,120.0,240.0,0.0,64.0
4966,63.0,0.0,120.0,0.0,64.0
4967,75.0,120.0,240.0,0.0,64.0
4968,60.0,120.0,120.0,0.0,64.0
4969,77.0,0.0,240.0,0.0,64.0
4970,58.0,0.0,15.0,0.0,64.0
4971,60.0,120.0,120.0,0.0,64.0
4972,62.0,0.0,120.0,0.0,64.0
4973,78.0,60.0,60.0,0.0,64.0
4974,51.0,0.0,240.0,0.0,64.0
4975,63.0,0.0,240.0,0.0,64.0
4976,80.0,120.0,60.0,0.0,64.0
4977,78.0,120.0,120.0,0.0,64.0
4978,77.0,120.0,120.0,0.0,64.0
4979,74.0,120.0,240.0,0.0,64.0
4980,58.0,0.0,240.0,0.0,64.0
4981,78.0,0.0,120.0,0.0,64.0
4982,54.0,0.0,240.0,0.0,64.0
4983,75.0,120.0,120.0,0.0,64.0
4984,70.0,120.0,120.0,0.0,64.0
4985,58.0,0.0,240.0,0.0,64.0
4986,77.0,120.0,120.0,0.0,64.0
4987,74.0,120.0,240.0,0.0,64.0
4988,70.0,0.0,120.0,0.0,64.0
4989,78.0,120.0,120.0,0.0,64.0
4990,51.0,120.0,240.0,0.0,64.0
4991,75.0,0.0,240.0,0.0,64.0
4992,50.0,120.0,240.0,0.0,64.0
4993,70.0,0.0,15.0,0.0,64.0
4994,77.0,120.0,120.0,0.0,64.0
4995,70.0,0.0,120.0,0.0,64.0
4996,51.0,240.0,240.0,0.0,64.0
4997,78.0,120.0,120.0,0.0,64.0
4998,75.0,0.0,120.0,0.0,64.0
4999,80.0,60.0,240.0,0.0,64.0
5000,48.0,0.0,240.0,0.0,64.0
5001,77.0,60.0,60.0,0.0,64.0
5002,49.0,0.0,240.0,0.0,64.0
5003,78.0,120.0,60.0,0.0,64.0
5004,77.0,120.0,120.0,0.0,64.0
5005,56.0,0.0,240.0,0.0,64.0
5006,75.0,120.0,120.0,0.0,64.0
5007,72.0,0.0,240.0,0.0,64.0
5008,77.0,120.0,120.0,0.0,64.0
5009,53.0,0.0,240.0,0.0,64.0
5010,73.0,120.0,120.0,0.0,64.0
5011,68.0,120.0,120.0,0.0,64.0
5012,56.0,0.0,240.0,0.0,64.0
5013,72.0,120.0,240.0,0.0,64.0
5014,75.0,120.0,120.0,0.0,64.0
5015,68.0,0.0,120.0,0.0,64.0
5016,49.0,120.0,240.0,0.0,64.0
5017,73.0,0.0,240.0,0.0,64.0
5018,77.0,120.0,120.0,0.0,64.0
5019,48.0,120.0,240.0,0.0,64.0
5020,68.0,0.0,15.0,0.0,64.0
5021,75.0,120.0,120.0,0.0,64.0
5022,68.0,0.0,120.0,0.0,64.0
5023,77.0,120.0,120.0,0.0,64.0
5024,49.0,240.0,240.0,0.0,64.0
5025,73.0,0.0,120.0,0.0,64.0
5026,78.0,0.0,240.0,0.0,64.0
5027,46.0,120.0,240.0,0.0,64.0
5028,76.0,120.0,120.0,0.0,64.0
5029,47.0,0.0,240.0,0.0,64.0
5030,75.0,120.0,120.0,0.0,64.0
5031,74.0,120.0,120.0,0.0,64.0
5032,68.0,0.0,240.0,0.0,64.0
5033,75.0,120.0,120.0,0.0,64.0
5034,79.0,120.0,120.0,0.0,64.0
5035,49.0,0.0,240.0,0.0,64.0
5036,70.0,0.0,240.0,0.0,64.0
5037,75.0,120.0,120.0,0.0,64.0
5038,67.0,120.0,240.0,0.0,64.0
5039,74.0,120.0,120.0,0.0,64.0
5040,75.0,0.0,120.0,0.0,64.0
5041,80.0,120.0,120.0,0.0,64.0
5042,71.0,120.0,240.0,0.0,64.0
5043,47.0,0.0,240.0,0.0,64.0
5044,75.0,0.0,120.0,0.0,64.0
5045,74.0,120.0,120.0,0.0,64.0
5046,68.0,120.0,240.0,0.0,64.0
5047,75.0,0.0,120.0,0.0,64.0
5048,46.0,0.0,240.0,0.0,64.0
5049,73.0,0.0,240.0,0.0,64.0
5050,82.0,120.0,120.0,0.0,64.0
5051,75.0,120.0,120.0,0.0,64.0
5052,74.0,120.0,120.0,0.0,64.0
5053,70.0,0.0,240.0,0.0,64.0
5054,75.0,120.0,15.0,0.0,64.0
5055,83.0,120.0,1080.0,0.0,64.0
5056,44.0,0.0,240.0,0.0,64.0
5057,73.0,120.0,120.0,0.0,64.0
5058,47.0,120.0,240.0,0.0,64.0
5059,75.0,120.0,120.0,0.0,64.0
5060,71.0,0.0,120.0,0.0,64.0
5061,68.0,120.0,120.0,0.0,64.0
5062,52.0,0.0,240.0,0.0,64.0
5063,67.0,120.0,120.0,0.0,64.0
5064,51.0,60.0,240.0,0.0,64.0
5065,68.0,120.0,120.0,0.0,64.0
5066,75.0,0.0,120.0,0.0,64.0
5067,76.0,60.0,60.0,0.0,64.0
5068,49.0,0.0,240.0,0.0,64.0
5069,75.0,0.0,60.0,0.0,64.0
5070,82.0,0.0,120.0,0.0,64.0
5071,73.0,120.0,120.0,0.0,64.0
5072,75.0,0.0,240.0,0.0,64.0
5073,47.0,0.0,480.0,0.0,64.0
5074,83.0,120.0,120.0,0.0,64.0
5075,80.0,120.0,120.0,0.0,64.0
5076,68.0,0.0,240.0,0.0,64.0
5077,77.0,120.0,120.0,0.0,64.0
5078,80.0,120.0,120.0,0.0,64.0
5079,70.0,60.0,240.0,0.0,64.0
5080,46.0,0.0,240.0,0.0,64.0
5081,85.0,120.0,120.0,0.0,64.0
5082,79.0,0.0,120.0,0.0,64.0
5083,71.0,60.0,60.0,0.0,64.0
5084,44.0,120.0,240.0,0.0,64.0
5085,80.0,0.0,240.0,0.0,64.0
5086,73.0,120.0,60.0,0.0,64.0
5087,71.0,0.0,120.0,0.0,64.0
5088,70.0,120.0,120.0,0.0,64.0
5089,63.0,0.0,240.0,0.0,64.0
5090,79.0,0.0,240.0,0.0,64.0
5091,71.0,120.0,120.0,0.0,64.0
5092,68.0,120.0,120.0,0.0,64.0
5093,80.0,0.0,240.0,0.0,64.0
5094,59.0,120.0,240.0,0.0,64.0
5095,79.0,0.0,240.0,0.0,64.0
5096,70.0,120.0,120.0,0.0,64.0
5097,63.0,0.0,15.0,0.0,64.0
5098,63.0,0.0,120.0,0.0,64.0
5099,56.0,0.0,240.0,0.0,64.0
5100,80.0,0.0,240.0,0.0,64.0
5101,71.0,120.0,120.0,0.0,64.0
5102,63.0,120.0,120.0,0.0,64.0
5103,75.0,0.0,240.0,0.0,64.0
5104,55.0,0.0,240.0,0.0,64.0
5105,70.0,120.0,120.0,0.0,64.0
5106,63.0,120.0,120.0,0.0,64.0
5107,71.0,120.0,120.0,0.0,64.0
5108,56.0,0.0,240.0,0.0,64.0
5109,68.0,240.0,120.0,0.0,64.0
5110,53.0,0.0,240.0,0.0,64.0
5111,73.0,60.0,240.0,0.0,64.0
5112,54.0,0.0,240.0,0.0,64.0
5113,70.0,60.0,60.0,0.0,64.0
5114,71.0,120.0,60.0,0.0,64.0
5115,70.0,120.0,120.0,0.0,64.0
5116,77.0,120.0,240.0,0.0,64.0
5117,61.0,0.0,240.0,0.0,64.0
5118,68.0,120.0,120.0,0.0,64.0
5119,70.0,0.0,120.0,0.0,64.0
5120,78.0,120.0,240.0,0.0,64.0
5121,66.0,120.0,120.0,0.0,64.0
5122,58.0,0.0,240.0,0.0,64.0
5123,68.0,120.0,120.0,0.0,64.0
5124,77.0,0.0,240.0,0.0,64.0
5125,61.0,0.0,15.0,0.0,64.0
5126,61.0,0.0,120.0,0.0,64.0
5127,78.0,120.0,240.0,0.0,64.0
5128,54.0,0.0,240.0,0.0,64.0
5129,70.0,120.0,120.0,0.0,64.0
5130,61.0,0.0,120.0,0.0,64.0
5131,53.0,120.0,240.0,0.0,64.0
5132,68.0,120.0,120.0,0.0,64.0
5133,73.0,0.0,240.0,0.0,64.0
5134,61.0,0.0,120.0,0.0,64.0
5135,70.0,120.0,120.0,0.0,64.0
5136,54.0,0.0,240.0,0.0,64.0
5137,66.0,240.0,120.0,0.0,64.0
5138,51.0,120.0,240.0,0.0,64.0
5139,71.0,0.0,240.0,0.0,64.0
5140,52.0,0.0,240.0,0.0,64.0
5141,69.0,120.0,120.0,0.0,64.0
5142,68.0,120.0,120.0,0.0,64.0
5143,73.0,120.0,240.0,0.0,64.0
5144,67.0,120.0,120.0,0.0,64.0
5145,68.0,0.0,120.0,0.0,64.0
5146,72.0,120.0,120.0,0.0,64.0
5147,54.0,120.0,240.0,0.0,64.0
5148,75.0,0.0,240.0,0.0,64.0
5149,68.0,0.0,120.0,0.0,64.0
5150,67.0,120.0,120.0,0.0,64.0
5151,72.0,120.0,240.0,0.0,64.0
5152,68.0,0.0,120.0,0.0,64.0
5153,52.0,0.0,240.0,0.0,64.0
5154,76.0,120.0,240.0,0.0,64.0
5155,73.0,120.0,120.0,0.0,64.0
5156,68.0,0.0,120.0,0.0,64.0
5157,73.0,0.0,240.0,0.0,64.0
5158,67.0,120.0,120.0,0.0,64.0
5159,68.0,120.0,120.0,0.0,64.0
5160,78.0,0.0,240.0,0.0,64.0
5161,75.0,120.0,120.0,0.0,64.0
5162,51.0,120.0,240.0,0.0,64.0
5163,68.0,0.0,120.0,0.0,64.0
5164,67.0,120.0,120.0,0.0,64.0
5165,75.0,0.0,240.0,0.0,64.0
5166,68.0,120.0,120.0,0.0,64.0
5167,80.0,120.0,120.0,0.0,64.0
5168,76.0,0.0,240.0,0.0,64.0
5169,49.0,120.0,240.0,0.0,64.0
5170,73.0,0.0,120.0,0.0,64.0
5171,72.0,120.0,120.0,0.0,64.0
5172,66.0,120.0,240.0,0.0,64.0
5173,73.0,0.0,120.0,0.0,64.0
5174,77.0,120.0,120.0,0.0,64.0
5175,59.0,0.0,240.0,0.0,64.0
5176,68.0,120.0,240.0,0.0,64.0
5177,73.0,0.0,120.0,0.0,64.0
5178,72.0,120.0,120.0,0.0,64.0
5179,65.0,0.0,240.0,0.0,64.0
5180,73.0,120.0,120.0,0.0,64.0
5181,70.0,120.0,240.0,0.0,64.0
5182,78.0,120.0,120.0,0.0,64.0
5183,58.0,0.0,240.0,0.0,64.0
5184,73.0,0.0,120.0,0.0,64.0
5185,66.0,0.0,240.0,0.0,64.0
5186,72.0,120.0,120.0,0.0,64.0
5187,73.0,120.0,120.0,0.0,64.0
5188,71.0,0.0,240.0,0.0,64.0
5189,56.0,0.0,240.0,0.0,64.0
5190,80.0,120.0,120.0,0.0,64.0
5191,73.0,120.0,120.0,0.0,64.0
5192,68.0,120.0,240.0,0.0,64.0
5193,72.0,120.0,120.0,0.0,64.0
5194,73.0,0.0,15.0,0.0,64.0
5195,54.0,120.0,240.0,0.0,64.0
5196,82.0,120.0,15.0,0.0,64.0
5197,66.0,0.0,120.0,0.0,64.0
5198,65.0,120.0,120.0,0.0,64.0
5199,83.0,0.0,120.0,0.0,64.0
5200,66.0,120.0,120.0,0.0,64.0
5201,82.0,0.0,120.0,0.0,64.0
5202,73.0,0.0,120.0,0.0,64.0
5203,52.0,0.0,240.0,0.0,64.0
5204,70.0,120.0,120.0,0.0,64.0
5205,82.0,0.0,120.0,0.0,64.0
5206,66.0,120.0,120.0,0.0,64.0
5207,65.0,120.0,120.0,0.0,64.0
5208,83.0,0.0,120.0,0.0,64.0
5209,82.0,0.0,120.0,0.0,64.0
5210,66.0,120.0,120.0,0.0,64.0
5211,75.0,120.0,120.0,0.0,64.0
5212,71.0,0.0,120.0,0.0,64.0
5213,51.0,0.0,240.0,0.0,64.0
5214,82.0,0.0,120.0,0.0,64.0
5215,66.0,120.0,120.0,0.0,64.0
5216,65.0,0.0,120.0,0.0,64.0
5217,83.0,120.0,120.0,0.0,64.0
5218,66.0,0.0,120.0,0.0,64.0
5219,82.0,120.0,120.0,0.0,64.0
5220,73.0,120.0,120.0,0.0,64.0
5221,76.0,0.0,120.0,0.0,64.0
5222,49.0,120.0,240.0,0.0,64.0
5223,66.0,0.0,120.0,0.0,64.0
5224,82.0,0.0,120.0,0.0,64.0
5225,65.0,0.0,120.0,0.0,64.0
5226,83.0,120.0,120.0,0.0,64.0
5227,66.0,0.0,120.0,0.0,64.0
5228,82.0,120.0,120.0,0.0,64.0
5229,47.0,0.0,240.0,0.0,64.0
5230,83.0,0.0,120.0,0.0,64.0
5231,71.0,0.0,120.0,0.0,64.0
5232,75.0,120.0,15.0,0.0,64.0
5233,76.0,0.0,120.0,0.0,64.0
5234,70.0,120.0,120.0,0.0,64.0
5235,71.0,0.0,120.0,0.0,64.0
5236,75.0,120.0,15.0,0.0,64.0
5237,66.0,0.0,120.0,0.0,64.0
5238,45.0,0.0,240.0,0.0,64.0
5239,75.0,120.0,15.0,0.0,64.0
5240,71.0,120.0,120.0,0.0,64.0
5241,76.0,0.0,120.0,0.0,64.0
5242,70.0,120.0,120.0,0.0,64.0
5243,75.0,120.0,120.0,0.0,64.0
5244,71.0,0.0,120.0,0.0,64.0
5245,68.0,0.0,120.0,0.0,64.0
5246,44.0,0.0,240.0,0.0,64.0
5247,76.0,120.0,120.0,0.0,64.0
5248,71.0,120.0,120.0,0.0,64.0
5249,75.0,0.0,120.0,0.0,64.0
5250,76.0,120.0,120.0,0.0,64.0
5251,70.0,0.0,120.0,0.0,64.0
5252,75.0,0.0,120.0,0.0,64.0
5253,71.0,120.0,120.0,0.0,64.0
5254,42.0,120.0,240.0,0.0,64.0
5255,69.0,120.0,120.0,0.0,64.0
5256,78.0,0.0,120.0,0.0,64.0
5257,75.0,0.0,120.0,0.0,64.0
5258,71.0,0.0,120.0,0.0,64.0
5259,76.0,120.0,120.0,0.0,64.0
5260,70.0,0.0,120.0,0.0,64.0
5261,75.0,120.0,120.0,0.0,64.0
5262,80.0,0.0,120.0,0.0,64.0
5263,71.0,0.0,15.0,0.0,64.0
5264,40.0,0.0,480.0,0.0,64.0
5265,78.0,0.0,120.0,0.0,64.0
5266,75.0,120.0,120.0,0.0,64.0
5267,76.0,120.0,120.0,0.0,64.0
5268,71.0,120.0,120.0,0.0,64.0
5269,68.0,0.0,120.0,0.0,64.0
5270,52.0,240.0,960.0,0.0,64.0
5271,71.0,0.0,120.0,0.0,64.0
5272,75.0,120.0,120.0,0.0,64.0
5273,64.0,0.0,240.0,0.0,64.0
5274,73.0,120.0,120.0,0.0,64.0
5275,78.0,240.0,120.0,0.0,64.0
5276,71.0,60.0,240.0,0.0,64.0
5277,78.0,60.0,60.0,0.0,64.0
5278,80.0,120.0,60.0,0.0,64.0
5279,81.0,0.0,120.0,0.0,64.0
5280,80.0,60.0,240.0,0.0,64.0
5281,51.0,120.0,480.0,0.0,64.0
5282,78.0,60.0,60.0,0.0,64.0
5283,76.0,120.0,60.0,0.0,64.0
5284,78.0,0.0,120.0,0.0,64.0
5285,80.0,120.0,120.0,0.0,64.0
5286,52.0,240.0,480.0,0.0,64.0
5287,76.0,120.0,120.0,0.0,64.0
5288,80.0,120.0,120.0,0.0,64.0
5289,83.0,0.0,120.0,0.0,64.0
5290,81.0,60.0,240.0,0.0,64.0
5291,40.0,0.0,240.0,0.0,64.0
5292,80.0,60.0,60.0,0.0,64.0
5293,81.0,120.0,60.0,0.0,64.0
5294,80.0,240.0,120.0,0.0,64.0
5295,78.0,0.0,240.0,0.0,64.0
5296,47.0,240.0,240.0,0.0,64.0
5297,49.0,120.0,240.0,0.0,64.0
5298,71.0,0.0,240.0,0.0,64.0
5299,83.0,0.0,720.0,0.0,64.0
5300,51.0,120.0,240.0,0.0,64.0
5301,70.0,0.0,120.0,0.0,64.0
5302,52.0,0.0,240.0,0.0,64.0
5303,68.0,120.0,120.0,0.0,64.0
5304,73.0,240.0,120.0,0.0,64.0
5305,66.0,60.0,240.0,0.0,64.0
5306,54.0,0.0,240.0,0.0,64.0
5307,82.0,0.0,120.0,0.0,64.0
5308,73.0,60.0,60.0,0.0,64.0
5309,56.0,60.0,240.0,0.0,64.0
5310,75.0,120.0,60.0,0.0,64.0
5311,76.0,0.0,120.0,0.0,64.0
5312,80.0,0.0,120.0,0.0,64.0
5313,82.0,60.0,60.0,0.0,64.0
5314,54.0,0.0,240.0,0.0,64.0
5315,75.0,120.0,240.0,0.0,64.0
5316,83.0,120.0,60.0,0.0,64.0
5317,82.0,60.0,240.0,0.0,64.0
5318,73.0,120.0,240.0,0.0,64.0
5319,52.0,0.0,240.0,0.0,64.0
5320,80.0,60.0,60.0,0.0,64.0
5321,82.0,0.0,60.0,0.0,64.0
5322,75.0,120.0,120.0,0.0,64.0
5323,51.0,120.0,240.0,0.0,64.0
5324,83.0,0.0,480.0,0.0,64.0
5325,71.0,0.0,120.0,0.0,64.0
5326,54.0,240.0,240.0,0.0,64.0
5327,75.0,120.0,120.0,0.0,64.0
5328,78.0,0.0,120.0,0.0,64.0
5329,46.0,0.0,240.0,0.0,64.0
5330,76.0,240.0,240.0,0.0,64.0
5331,47.0,0.0,240.0,0.0,64.0
5332,71.0,120.0,240.0,0.0,64.0
5333,75.0,0.0,240.0,0.0,64.0
5334,42.0,0.0,240.0,0.0,64.0
5335,73.0,120.0,240.0,0.0,64.0
5336,70.0,120.0,120.0,0.0,64.0
5337,70.0,120.0,120.0,0.0,64.0
5338,66.0,0.0,15.0,0.0,64.0
5339,73.0,0.0,120.0,0.0,64.0
5340,58.0,0.0,240.0,0.0,64.0
5341,76.0,120.0,120.0,0.0,64.0
5342,75.0,0.0,120.0,0.0,64.0
5343,66.0,120.0,120.0,0.0,64.0
5344,70.0,120.0,120.0,0.0,64.0
5345,61.0,0.0,240.0,0.0,64.0
5346,73.0,120.0,120.0,0.0,64.0
5347,76.0,0.0,15.0,0.0,64.0
5348,54.0,0.0,240.0,0.0,64.0
5349,75.0,0.0,120.0,0.0,64.0
5350,66.0,120.0,15.0,0.0,64.0
5351,70.0,120.0,120.0,0.0,64.0
5352,73.0,120.0,120.0,0.0,64.0
5353,58.0,120.0,240.0,0.0,64.0
5354,76.0,0.0,15.0,0.0,64.0
5355,75.0,0.0,120.0,0.0,64.0
5356,66.0,0.0,120.0,0.0,64.0
5357,70.0,120.0,120.0,0.0,64.0
5358,61.0,0.0,240.0,0.0,64.0
5359,73.0,0.0,120.0,0.0,64.0
5360,76.0,120.0,15.0,0.0,64.0
5361,54.0,0.0,240.0,0.0,64.0
5362,75.0,0.0,120.0,0.0,64.0
5363,66.0,120.0,15.0,0.0,64.0
5364,70.0,120.0,120.0,0.0,64.0
5365,73.0,120.0,120.0,0.0,64.0
5366,76.0,0.0,15.0,0.0,64.0
5367,58.0,0.0,240.0,0.0,64.0
5368,75.0,120.0,120.0,0.0,64.0
5369,61.0,120.0,240.0,0.0,64.0
5370,73.0,120.0,120.0,0.0,64.0
5371,71.0,0.0,120.0,0.0,64.0
5372,54.0,0.0,240.0,0.0,64.0
5373,70.0,120.0,15.0,0.0,64.0
5374,66.0,120.0,120.0,0.0,64.0
5375,70.0,0.0,15.0,0.0,64.0
5376,52.0,0.0,240.0,0.0,64.0
5377,73.0,0.0,15.0,0.0,64.0
5378,51.0,0.0,240.0,0.0,64.0
5379,82.0,0.0,120.0,0.0,64.0
5380,78.0,0.0,15.0,0.0,64.0
5381,85.0,0.0,120.0,0.0,64.0
5382,76.0,120.0,120.0,0.0,64.0
5383,54.0,120.0,240.0,0.0,64.0
5384,83.0,0.0,120.0,0.0,64.0
5385,75.0,120.0,120.0,0.0,64.0
5386,82.0,0.0,120.0,0.0,64.0
5387,73.0,0.0,120.0,0.0,64.0
5388,75.0,120.0,120.0,0.0,64.0
5389,83.0,0.0,240.0,0.0,64.0
5390,47.0,240.0,240.0,0.0,64.0
5391,73.0,0.0,120.0,0.0,64.0
5392,49.0,0.0,240.0,0.0,64.0
5393,66.0,120.0,240.0,0.0,64.0
5394,71.0,120.0,120.0,0.0,64.0
5395,51.0,120.0,240.0,0.0,64.0
5396,70.0,0.0,120.0,0.0,64.0
5397,68.0,120.0,120.0,0.0,64.0
5398,52.0,0.0,240.0,0.0,64.0
5399,73.0,240.0,120.0,0.0,64.0
5400,66.0,60.0,240.0,0.0,64.0
5401,54.0,0.0,240.0,0.0,64.0
5402,70.0,0.0,120.0,0.0,64.0
5403,56.0,60.0,240.0,0.0,64.0
5404,73.0,60.0,60.0,0.0,64.0
5405,75.0,120.0,60.0,0.0,64.0
5406,68.0,0.0,120.0,0.0,64.0
5407,76.0,0.0,120.0,0.0,64.0
5408,54.0,60.0,240.0,0.0,64.0
5409,75.0,0.0,240.0,0.0,64.0
5410,70.0,60.0,60.0,0.0,64.0
5411,71.0,120.0,60.0,0.0,64.0
5412,70.0,60.0,240.0,0.0,64.0
5413,52.0,0.0,240.0,0.0,64.0
5414,73.0,60.0,60.0,0.0,64.0
5415,75.0,0.0,60.0,0.0,64.0
5416,73.0,120.0,120.0,0.0,64.0
5417,68.0,60.0,60.0,0.0,64.0
5418,70.0,0.0,60.0,0.0,64.0
5419,51.0,120.0,240.0,0.0,64.0
5420,75.0,120.0,120.0,0.0,64.0
5421,71.0,0.0,120.0,0.0,64.0
5422,75.0,120.0,120.0,0.0,64.0
5423,54.0,240.0,240.0,0.0,64.0
5424,78.0,0.0,120.0,0.0,64.0
5425,76.0,0.0,240.0,0.0,64.0
5426,46.0,240.0,240.0,0.0,64.0
5427,75.0,240.0,240.0,0.0,64.0
5428,47.0,0.0,240.0,0.0,64.0
5429,54.0,0.0,240.0,0.0,64.0
5430,73.0,240.0,240.0,0.0,64.0
5431,56.0,0.0,240.0,0.0,64.0
5432,66.0,120.0,240.0,0.0,64.0
5433,58.0,0.0,240.0,0.0,64.0
5434,78.0,60.0,720.0,0.0,64.0
5435,65.0,120.0,120.0,0.0,64.0
5436,63.0,120.0,120.0,0.0,64.0
5437,59.0,0.0,240.0,0.0,64.0
5438,68.0,240.0,120.0,0.0,64.0
5439,61.0,0.0,240.0,0.0,64.0
5440,63.0,0.0,240.0,0.0,64.0
5441,77.0,120.0,120.0,0.0,64.0
5442,68.0,60.0,60.0,0.0,64.0
5443,70.0,0.0,60.0,0.0,64.0
5444,71.0,0.0,120.0,0.0,64.0
5445,75.0,60.0,120.0,0.0,64.0
5446,61.0,60.0,240.0,0.0,64.0
5447,70.0,0.0,240.0,0.0,64.0
5448,77.0,60.0,60.0,0.0,64.0
5449,78.0,120.0,60.0,0.0,64.0
5450,77.0,60.0,240.0,0.0,64.0
5451,59.0,0.0,240.0,0.0,64.0
5452,68.0,60.0,60.0,0.0,64.0
5453,70.0,0.0,60.0,0.0,64.0
5454,68.0,0.0,120.0,0.0,64.0
5455,75.0,60.0,60.0,0.0,64.0
5456,77.0,120.0,60.0,0.0,64.0
5457,78.0,0.0,480.0,0.0,64.0
5458,70.0,120.0,120.0,0.0,64.0
5459,58.0,0.0,240.0,0.0,64.0
5460,66.0,120.0,120.0,0.0,64.0
5461,61.0,0.0,240.0,0.0,64.0
5462,70.0,120.0,120.0,0.0,64.0
5463,73.0,240.0,120.0,0.0,64.0
5464,53.0,0.0,240.0,0.0,64.0
5465,71.0,240.0,240.0,0.0,64.0
5466,54.0,120.0,240.0,0.0,64.0
5467,78.0,0.0,240.0,0.0,64.0
5468,70.0,0.0,240.0,0.0,64.0
5469,49.0,120.0,240.0,0.0,64.0
5470,68.0,0.0,240.0,0.0,64.0
5471,77.0,120.0,120.0,0.0,64.0
5472,73.0,0.0,120.0,0.0,64.0
5473,77.0,120.0,120.0,0.0,64.0
5474,61.0,0.0,240.0,0.0,64.0
5475,80.0,120.0,120.0,0.0,64.0
5476,53.0,120.0,240.0,0.0,64.0
5477,83.0,120.0,120.0,0.0,64.0
5478,73.0,0.0,120.0,0.0,64.0
5479,82.0,0.0,120.0,0.0,64.0
5480,77.0,120.0,120.0,0.0,64.0
5481,56.0,0.0,240.0,0.0,64.0
5482,80.0,0.0,120.0,0.0,64.0
5483,83.0,120.0,15.0,0.0,64.0
5484,49.0,0.0,240.0,0.0,64.0
5485,82.0,0.0,120.0,0.0,64.0
5486,73.0,120.0,120.0,0.0,64.0
5487,77.0,120.0,120.0,0.0,64.0
5488,61.0,0.0,240.0,0.0,64.0
5489,80.0,120.0,120.0,0.0,64.0
5490,53.0,0.0,240.0,0.0,64.0
5491,83.0,0.0,15.0,0.0,64.0
5492,82.0,120.0,120.0,0.0,64.0
5493,73.0,0.0,120.0,0.0,64.0
5494,56.0,120.0,240.0,0.0,64.0
5495,77.0,120.0,120.0,0.0,64.0
5496,80.0,0.0,120.0,0.0,64.0
5497,83.0,0.0,15.0,0.0,64.0
5498,49.0,0.0,240.0,0.0,64.0
5499,82.0,120.0,120.0,0.0,64.0
5500,73.0,0.0,120.0,0.0,64.0
5501,77.0,120.0,120.0,0.0,64.0
5502,61.0,120.0,240.0,0.0,64.0
5503,80.0,0.0,120.0,0.0,64.0
5504,83.0,0.0,15.0,0.0,64.0
5505,53.0,120.0,240.0,0.0,64.0
5506,82.0,0.0,120.0,0.0,64.0
5507,80.0,120.0,120.0,0.0,64.0
5508,56.0,120.0,240.0,0.0,64.0
5509,78.0,0.0,120.0,0.0,64.0
5510,49.0,0.0,240.0,0.0,64.0
5511,77.0,120.0,120.0,0.0,64.0
5512,73.0,0.0,120.0,0.0,64.0
5513,65.0,120.0,120.0,0.0,64.0
5514,68.0,0.0,120.0,0.0,64.0
5515,77.0,120.0,120.0,0.0,64.0
5516,59.0,0.0,240.0,0.0,64.0
5517,71.0,120.0,120.0,0.0,64.0
5518,80.0,0.0,120.0,0.0,64.0
5519,58.0,0.0,240.0,0.0,64.0
5520,85.0,0.0,120.0,0.0,64.0
5521,77.0,120.0,120.0,0.0,64.0
5522,83.0,120.0,120.0,0.0,64.0
5523,80.0,0.0,120.0,0.0,64.0
5524,78.0,0.0,120.0,0.0,64.0
5525,82.0,120.0,120.0,0.0,64.0
5526,61.0,120.0,240.0,0.0,64.0
5527,77.0,0.0,120.0,0.0,64.0
5528,80.0,0.0,120.0,0.0,64.0
5529,78.0,120.0,120.0,0.0,64.0
5530,82.0,120.0,240.0,0.0,64.0
5531,54.0,0.0,240.0,0.0,64.0
5532,61.0,0.0,120.0,0.0,64.0
5533,63.0,120.0,240.0,0.0,64.0
5534,66.0,120.0,120.0,0.0,64.0
5535,78.0,0.0,240.0,0.0,64.0
5536,70.0,0.0,120.0,0.0,64.0
5537,73.0,120.0,120.0,0.0,64.0
5538,55.0,0.0,240.0,0.0,64.0
5539,71.0,0.0,120.0,0.0,64.0
5540,75.0,120.0,120.0,0.0,64.0
5541,73.0,0.0,240.0,0.0,64.0
5542,58.0,0.0,240.0,0.0,64.0
5543,79.0,120.0,120.0,0.0,64.0
5544,82.0,120.0,120.0,0.0,64.0
5545,51.0,0.0,240.0,0.0,64.0
5546,85.0,120.0,120.0,0.0,64.0
5547,83.0,120.0,120.0,0.0,64.0
5548,85.0,120.0,240.0,0.0,64.0
5549,63.0,0.0,15.0,0.0,64.0
5550,67.0,120.0,120.0,0.0,64.0
5551,70.0,0.0,120.0,0.0,64.0
5552,73.0,120.0,120.0,0.0,64.0
5553,55.0,0.0,240.0,0.0,64.0
5554,71.0,0.0,120.0,0.0,64.0
5555,75.0,120.0,120.0,0.0,64.0
5556,58.0,0.0,240.0,0.0,64.0
5557,73.0,120.0,240.0,0.0,64.0
5558,79.0,120.0,120.0,0.0,64.0
5559,82.0,0.0,120.0,0.0,64.0
5560,51.0,0.0,240.0,0.0,64.0
5561,85.0,120.0,120.0,0.0,64.0
5562,83.0,0.0,120.0,0.0,64.0
5563,63.0,120.0,15.0,0.0,64.0
5564,85.0,0.0,240.0,0.0,64.0
5565,67.0,120.0,120.0,0.0,64.0
5566,70.0,120.0,120.0,0.0,64.0
5567,55.0,120.0,240.0,0.0,64.0
5568,73.0,120.0,120.0,0.0,64.0
5569,71.0,0.0,120.0,0.0,64.0
5570,58.0,0.0,240.0,0.0,64.0
5571,70.0,120.0,120.0,0.0,64.0
5572,68.0,120.0,120.0,0.0,64.0
5573,51.0,0.0,240.0,0.0,64.0
5574,67.0,120.0,120.0,0.0,64.0
5575,79.0,0.0,120.0,0.0,64.0
5576,63.0,120.0,120.0,0.0,64.0
5577,82.0,0.0,120.0,0.0,64.0
5578,61.0,0.0,240.0,0.0,64.0
5579,67.0,120.0,120.0,0.0,64.0
5580,87.0,0.0,120.0,0.0,64.0
5581,70.0,120.0,120.0,0.0,64.0
5582,59.0,120.0,240.0,0.0,64.0
5583,75.0,0.0,120.0,0.0,64.0
5584,82.0,0.0,120.0,0.0,64.0
5585,73.0,0.0,120.0,0.0,64.0
5586,80.0,0.0,120.0,0.0,64.0
5587,63.0,0.0,240.0,0.0,64.0
5588,71.0,120.0,120.0,0.0,64.0
5589,70.0,120.0,120.0,0.0,64.0
5590,79.0,0.0,120.0,0.0,64.0
5591,80.0,0.0,240.0,0.0,64.0
5592,71.0,120.0,120.0,0.0,64.0
5593,56.0,120.0,240.0,0.0,64.0
5594,68.0,0.0,120.0,0.0,64.0
5595,71.0,120.0,120.0,0.0,64.0
5596,54.0,240.0,240.0,0.0,64.0
5597,75.0,0.0,120.0,0.0,64.0
5598,73.0,0.0,240.0,0.0,64.0
5599,80.0,120.0,600.0,0.0,64.0
5600,53.0,240.0,240.0,0.0,64.0
5601,71.0,0.0,240.0,0.0,64.0
5602,49.0,120.0,240.0,0.0,64.0
5603,70.0,0.0,240.0,0.0,64.0
5604,54.0,120.0,240.0,0.0,64.0
5605,78.0,0.0,120.0,0.0,64.0
5606,73.0,0.0,240.0,0.0,64.0
5607,82.0,120.0,120.0,0.0,64.0
5608,52.0,0.0,240.0,0.0,64.0
5609,85.0,240.0,120.0,0.0,64.0
5610,78.0,120.0,600.0,0.0,64.0
5611,83.0,0.0,240.0,0.0,64.0
5612,51.0,240.0,240.0,0.0,64.0
5613,81.0,0.0,240.0,0.0,64.0
5614,47.0,120.0,240.0,0.0,64.0
5615,52.0,0.0,240.0,0.0,64.0
5616,80.0,0.0,240.0,0.0,64.0
5617,75.0,120.0,120.0,0.0,64.0
5618,44.0,240.0,240.0,0.0,64.0
5619,76.0,120.0,120.0,0.0,64.0
5620,71.0,0.0,240.0,0.0,64.0
5621,80.0,0.0,120.0,0.0,64.0
5622,46.0,0.0,240.0,0.0,64.0
5623,78.0,240.0,240.0,0.0,64.0
5624,42.0,0.0,240.0,0.0,64.0
5625,76.0,120.0,240.0,0.0,64.0
5626,47.0,120.0,240.0,0.0,64.0
5627,75.0,0.0,120.0,0.0,64.0
5628,70.0,0.0,120.0,0.0,64.0
5629,73.0,120.0,15.0,0.0,64.0
5630,71.0,120.0,120.0,0.0,64.0
5631,54.0,0.0,240.0,0.0,64.0
5632,75.0,0.0,15.0,0.0,64.0
5633,78.0,0.0,120.0,0.0,64.0
5634,76.0,0.0,240.0,0.0,64.0
5635,73.0,0.0,240.0,0.0,64.0
5636,46.0,240.0,240.0,0.0,64.0
5637,71.0,0.0,360.0,0.0,64.0
5638,47.0,0.0,240.0,0.0,64.0
5639,75.0,60.0,15.0,0.0,64.0
5640,42.0,0.0,480.0,0.0,64.0
5641,76.0,120.0,60.0,0.0,64.0
5642,75.0,120.0,120.0,0.0,64.0
5643,68.0,0.0,120.0,0.0,64.0
5644,70.0,120.0,120.0,0.0,64.0
5645,73.0,0.0,120.0,0.0,64.0
5646,73.0,120.0,120.0,0.0,64.0
5647,76.0,0.0,360.0,0.0,64.0
5648,78.0,0.0,15.0,0.0,64.0
5649,82.0,120.0,120.0,0.0,64.0
5650,83.0,120.0,120.0,0.0,64.0
5651,59.0,120.0,720.0,0.0,64.0
5652,73.0,0.0,120.0,0.0,64.0
5653,85.0,120.0,120.0,0.0,64.0
5654,83.0,120.0,120.0,0.0,64.0
5655,75.0,0.0,120.0,0.0,64.0
5656,78.0,0.0,120.0,0.0,64.0
5657,82.0,120.0,120.0,0.0,64.0
5658,80.0,120.0,120.0,0.0,64.0
5659,83.0,0.0,720.0,0.0,64.0
5660,78.0,0.0,120.0,0.0,64.0
5661,61.0,0.0,240.0,0.0,64.0
5662,76.0,120.0,120.0,0.0,64.0
5663,75.0,120.0,120.0,0.0,64.0
5664,73.0,120.0,120.0,0.0,64.0
5665,54.0,120.0,240.0,0.0,64.0
5666,71.0,0.0,120.0,0.0,64.0
5667,73.0,120.0,120.0,0.0,64.0
5668,64.0,120.0,240.0,0.0,64.0
5669,82.0,0.0,240.0,0.0,64.0
5670,75.0,0.0,120.0,0.0,64.0
5671,63.0,0.0,240.0,0.0,64.0
5672,76.0,120.0,120.0,0.0,64.0
5673,78.0,120.0,120.0,0.0,64.0
5674,76.0,120.0,360.0,0.0,64.0
5675,80.0,120.0,120.0,0.0,64.0
5676,61.0,0.0,240.0,0.0,64.0
5677,82.0,120.0,120.0,0.0,64.0
5678,83.0,0.0,240.0,0.0,64.0
5679,63.0,0.0,240.0,0.0,64.0
5680,73.0,120.0,120.0,0.0,64.0
5681,66.0,120.0,240.0,0.0,64.0
5682,75.0,120.0,120.0,0.0,64.0
5683,76.0,0.0,120.0,0.0,64.0
5684,64.0,0.0,240.0,0.0,64.0
5685,78.0,0.0,15.0,0.0,64.0
5686,83.0,120.0,720.0,0.0,64.0
5687,82.0,120.0,120.0,0.0,64.0
5688,80.0,120.0,120.0,0.0,64.0
5689,63.0,120.0,240.0,0.0,64.0
5690,78.0,0.0,120.0,0.0,64.0
5691,76.0,120.0,120.0,0.0,64.0
5692,61.0,0.0,240.0,0.0,64.0
5693,75.0,0.0,120.0,0.0,64.0
5694,73.0,120.0,120.0,0.0,64.0
5695,54.0,0.0,240.0,0.0,64.0
5696,82.0,0.0,120.0,0.0,64.0
5697,71.0,0.0,120.0,0.0,64.0
5698,80.0,120.0,120.0,0.0,64.0
5699,78.0,120.0,120.0,0.0,64.0
5700,70.0,0.0,240.0,0.0,64.0
5701,76.0,120.0,120.0,0.0,64.0
5702,82.0,0.0,360.0,0.0,64.0
5703,75.0,120.0,120.0,0.0,64.0
5704,55.0,0.0,240.0,0.0,64.0
5705,73.0,120.0,120.0,0.0,64.0
5706,71.0,120.0,120.0,0.0,64.0
5707,56.0,120.0,720.0,0.0,64.0
5708,70.0,120.0,120.0,0.0,64.0
5709,75.0,0.0,120.0,0.0,64.0
5710,71.0,120.0,120.0,0.0,64.0
5711,80.0,0.0,120.0,0.0,64.0
5712,78.0,120.0,120.0,0.0,64.0
5713,75.0,0.0,120.0,0.0,64.0
5714,76.0,120.0,120.0,0.0,64.0
5715,80.0,120.0,720.0,0.0,64.0
5716,75.0,0.0,120.0,0.0,64.0
5717,58.0,120.0,240.0,0.0,64.0
5718,73.0,120.0,120.0,0.0,64.0
5719,71.0,0.0,120.0,0.0,64.0
5720,51.0,0.0,240.0,0.0,64.0
5721,70.0,120.0,120.0,0.0,64.0
5722,68.0,0.0,120.0,0.0,64.0
5723,70.0,120.0,120.0,0.0,64.0
5724,61.0,0.0,240.0,0.0,64.0
5725,79.0,0.0,240.0,0.0,64.0
5726,71.0,120.0,120.0,0.0,64.0
5727,73.0,120.0,120.0,0.0,64.0
5728,59.0,120.0,240.0,0.0,64.0
5729,75.0,0.0,120.0,0.0,64.0
5730,77.0,120.0,120.0,0.0,64.0
5731,73.0,120.0,360.0,0.0,64.0
5732,58.0,0.0,240.0,0.0,64.0
5733,79.0,120.0,120.0,0.0,64.0
5734,59.0,0.0,240.0,0.0,64.0
5735,80.0,0.0,240.0,0.0,64.0
5736,70.0,120.0,120.0,0.0,64.0
5737,71.0,120.0,120.0,0.0,64.0
5738,63.0,0.0,240.0,0.0,64.0
5739,73.0,120.0,120.0,0.0,64.0
5740,80.0,120.0,720.0,0.0,64.0
5741,61.0,120.0,240.0,0.0,64.0
5742,75.0,0.0,15.0,0.0,64.0
5743,78.0,0.0,120.0,0.0,64.0
5744,59.0,120.0,240.0,0.0,64.0
5745,76.0,120.0,120.0,0.0,64.0
5746,75.0,0.0,120.0,0.0,64.0
5747,73.0,120.0,120.0,0.0,64.0
5748,58.0,0.0,240.0,0.0,64.0
5749,71.0,0.0,120.0,0.0,64.0
5750,78.0,0.0,120.0,0.0,64.0
5751,51.0,120.0,240.0,0.0,64.0
5752,70.0,120.0,120.0,0.0,64.0
5753,68.0,0.0,120.0,0.0,64.0
5754,76.0,0.0,120.0,0.0,64.0
5755,66.0,0.0,240.0,0.0,64.0
5756,75.0,120.0,120.0,0.0,64.0
5757,73.0,120.0,120.0,0.0,64.0
5758,51.0,120.0,240.0,0.0,64.0
5759,78.0,120.0,360.0,0.0,64.0
5760,71.0,120.0,120.0,0.0,64.0
5761,69.0,0.0,120.0,0.0,64.0
5762,68.0,120.0,240.0,0.0,64.0
5763,52.0,0.0,720.0,0.0,64.0
5764,76.0,120.0,120.0,0.0,64.0
5765,71.0,0.0,15.0,0.0,64.0
5766,75.0,0.0,120.0,0.0,64.0
5767,73.0,120.0,120.0,0.0,64.0
5768,76.0,0.0,720.0,0.0,64.0
5769,71.0,120.0,120.0,0.0,64.0
5770,69.0,120.0,120.0,0.0,64.0
5771,54.0,0.0,240.0,0.0,64.0
5772,68.0,120.0,120.0,0.0,64.0
5773,66.0,120.0,120.0,0.0,64.0
5774,47.0,120.0,240.0,0.0,64.0
5775,64.0,0.0,120.0,0.0,64.0
5776,66.0,120.0,120.0,0.0,64.0
5777,57.0,0.0,240.0,0.0,64.0
5778,75.0,0.0,240.0,0.0,64.0
5779,68.0,120.0,120.0,0.0,64.0
5780,56.0,0.0,240.0,0.0,64.0
5781,69.0,120.0,120.0,0.0,64.0
5782,71.0,120.0,120.0,0.0,64.0
5783,73.0,120.0,120.0,0.0,64.0
5784,69.0,120.0,360.0,0.0,64.0
5785,54.0,0.0,240.0,0.0,64.0
5786,75.0,120.0,120.0,0.0,64.0
5787,56.0,0.0,240.0,0.0,64.0
5788,76.0,0.0,240.0,0.0,64.0
5789,66.0,120.0,120.0,0.0,64.0
5790,59.0,120.0,240.0,0.0,64.0
5791,68.0,120.0,120.0,0.0,64.0
5792,70.0,0.0,120.0,0.0,64.0
5793,71.0,0.0,15.0,0.0,64.0
5794,58.0,0.0,240.0,0.0,64.0
5795,76.0,120.0,600.0,0.0,64.0
5796,75.0,120.0,120.0,0.0,64.0
5797,56.0,0.0,240.0,0.0,64.0
5798,73.0,120.0,120.0,0.0,64.0
5799,71.0,120.0,120.0,0.0,64.0
5800,58.0,0.0,240.0,0.0,64.0
5801,73.0,0.0,120.0,0.0,64.0
5802,71.0,0.0,120.0,0.0,64.0
5803,75.0,120.0,120.0,0.0,64.0
5804,70.0,120.0,120.0,0.0,64.0
5805,73.0,0.0,120.0,0.0,64.0
5806,61.0,0.0,240.0,0.0,64.0
5807,75.0,120.0,120.0,0.0,64.0
5808,71.0,0.0,120.0,0.0,64.0
5809,73.0,0.0,120.0,0.0,64.0
5810,59.0,120.0,240.0,0.0,64.0
5811,80.0,0.0,120.0,0.0,64.0
5812,76.0,120.0,15.0,0.0,64.0
5813,75.0,120.0,120.0,0.0,64.0
5814,78.0,0.0,120.0,0.0,64.0
5815,58.0,0.0,240.0,0.0,64.0
5816,76.0,0.0,120.0,0.0,64.0
5817,73.0,120.0,120.0,0.0,64.0
5818,59.0,0.0,240.0,0.0,64.0
5819,75.0,120.0,120.0,0.0,64.0
5820,71.0,120.0,120.0,0.0,64.0
5821,56.0,120.0,240.0,0.0,64.0
5822,73.0,120.0,120.0,0.0,64.0
5823,75.0,0.0,120.0,0.0,64.0
5824,76.0,120.0,120.0,0.0,64.0
5825,54.0,0.0,240.0,0.0,64.0
5826,70.0,0.0,120.0,0.0,64.0
5827,78.0,120.0,120.0,0.0,64.0
5828,52.0,240.0,240.0,0.0,64.0
5829,80.0,120.0,120.0,0.0,64.0
5830,68.0,0.0,120.0,0.0,64.0
5831,82.0,0.0,120.0,0.0,64.0
5832,73.0,0.0,120.0,0.0,64.0
5833,51.0,0.0,240.0,0.0,64.0
5834,66.0,60.0,240.0,0.0,64.0
5835,83.0,0.0,240.0,0.0,64.0
5836,49.0,240.0,240.0,0.0,64.0
5837,73.0,60.0,60.0,0.0,64.0
5838,75.0,120.0,60.0,0.0,64.0
5839,76.0,0.0,120.0,0.0,64.0
5840,47.0,60.0,240.0,0.0,64.0
5841,75.0,0.0,240.0,0.0,64.0
5842,73.0,60.0,60.0,0.0,64.0
5843,46.0,120.0,240.0,0.0,64.0
5844,75.0,120.0,60.0,0.0,64.0
5845,73.0,0.0,120.0,0.0,64.0
5846,47.0,120.0,240.0,0.0,64.0
5847,75.0,120.0,120.0,0.0,64.0
5848,71.0,0.0,120.0,0.0,64.0
5849,59.0,0.0,240.0,0.0,64.0
5850,75.0,120.0,120.0,0.0,64.0
5851,78.0,120.0,120.0,0.0,64.0
5852,56.0,120.0,240.0,0.0,64.0
5853,76.0,120.0,600.0,0.0,64.0
5854,70.0,0.0,120.0,0.0,64.0
5855,68.0,120.0,120.0,0.0,64.0
5856,61.0,120.0,240.0,0.0,64.0
5857,73.0,0.0,120.0,0.0,64.0
5858,58.0,0.0,240.0,0.0,64.0
5859,66.0,60.0,240.0,0.0,64.0
5860,54.0,240.0,240.0,0.0,64.0
5861,73.0,0.0,15.0,0.0,64.0
5862,75.0,0.0,60.0,0.0,64.0
5863,76.0,120.0,15.0,0.0,64.0
5864,80.0,0.0,120.0,0.0,64.0
5865,75.0,60.0,240.0,0.0,64.0
5866,78.0,120.0,600.0,0.0,64.0
5867,73.0,60.0,60.0,0.0,64.0
5868,58.0,0.0,240.0,0.0,64.0
5869,75.0,120.0,60.0,0.0,64.0
5870,73.0,120.0,120.0,0.0,64.0
5871,59.0,0.0,240.0,0.0,64.0
5872,75.0,0.0,15.0,0.0,64.0
5873,71.0,120.0,120.0,0.0,64.0
5874,75.0,0.0,15.0,0.0,64.0
5875,47.0,0.0,240.0,0.0,64.0
5876,78.0,0.0,15.0,0.0,64.0
5877,81.0,0.0,120.0,0.0,64.0
5878,52.0,0.0,240.0,0.0,64.0
5879,80.0,120.0,120.0,0.0,64.0
5880,78.0,120.0,120.0,0.0,64.0
5881,56.0,120.0,240.0,0.0,64.0
5882,76.0,120.0,120.0,0.0,64.0
5883,75.0,0.0,120.0,0.0,64.0
5884,58.0,0.0,240.0,0.0,64.0
5885,70.0,0.0,120.0,0.0,64.0
5886,73.0,0.0,15.0,0.0,64.0
5887,73.0,120.0,15.0,0.0,64.0
5888,46.0,120.0,240.0,0.0,64.0
5889,76.0,120.0,15.0,0.0,64.0
5890,80.0,0.0,120.0,0.0,64.0
5891,75.0,120.0,120.0,0.0,64.0
5892,51.0,0.0,240.0,0.0,64.0
5893,78.0,120.0,600.0,0.0,64.0
5894,73.0,120.0,120.0,0.0,64.0
5895,54.0,0.0,240.0,0.0,64.0
5896,71.0,120.0,120.0,0.0,64.0
5897,70.0,120.0,120.0,0.0,64.0
5898,71.0,0.0,1080.0,0.0,64.0
5899,56.0,120.0,240.0,0.0,64.0
5900,75.0,0.0,120.0,0.0,64.0
5901,78.0,120.0,120.0,0.0,64.0
5902,51.0,120.0,240.0,0.0,64.0
5903,81.0,0.0,120.0,0.0,64.0
5904,52.0,120.0,240.0,0.0,64.0
5905,80.0,120.0,120.0,0.0,64.0
5906,78.0,0.0,120.0,0.0,64.0
5907,49.0,120.0,240.0,0.0,64.0
5908,76.0,120.0,120.0,0.0,64.0
5909,75.0,0.0,120.0,0.0,64.0
5910,73.0,120.0,120.0,0.0,64.0
5911,54.0,0.0,240.0,0.0,64.0
5912,66.0,0.0,120.0,0.0,64.0
5913,42.0,0.0,240.0,0.0,64.0
5914,70.0,120.0,15.0,0.0,64.0
5915,76.0,0.0,120.0,0.0,64.0
5916,73.0,0.0,15.0,0.0,64.0
5917,75.0,0.0,120.0,0.0,64.0
5918,71.0,120.0,120.0,0.0,64.0
5919,73.0,120.0,120.0,0.0,64.0
5920,70.0,0.0,120.0,0.0,64.0
5921,71.0,120.0,120.0,0.0,64.0
5922,52.0,0.0,240.0,0.0,64.0
5923,68.0,0.0,120.0,0.0,64.0
5924,66.0,120.0,120.0,0.0,64.0
5925,70.0,0.0,120.0,0.0,64.0
5926,78.0,120.0,120.0,0.0,64.0
5927,51.0,0.0,240.0,0.0,64.0
5928,71.0,120.0,240.0,0.0,64.0
5929,76.0,0.0,120.0,0.0,64.0
5930,80.0,120.0,120.0,0.0,64.0
5931,63.0,0.0,240.0,0.0,64.0
5932,47.0,0.0,240.0,0.0,64.0
5933,78.0,120.0,120.0,0.0,64.0
5934,54.0,0.0,240.0,0.0,64.0
5935,61.0,0.0,240.0,0.0,64.0
5936,76.0,120.0,120.0,0.0,64.0
5937,75.0,120.0,120.0,0.0,64.0
5938,70.0,0.0,240.0,0.0,64.0
5939,42.0,0.0,240.0,0.0,64.0
5940,73.0,120.0,120.0,0.0,64.0
5941,47.0,123.0,960.0,0.0,64.0
5942,71.0,960.0,15.0,0.0,64.0
