,note,step,duration,channel,velocity
0,51.0,16.0,60.0,3.0,64.0
1,87.0,1.0,90.0,4.0,64.0
2,82.0,70.0,90.0,1.0,64.0
3,78.0,1.0,60.0,2.0,64.0
4,87.0,12.0,60.0,0.0,64.0
5,90.0,36.0,40.0,4.0,64.0
6,51.0,7.0,60.0,3.0,64.0
7,87.0,87.0,30.0,4.0,64.0
8,54.0,27.0,60.0,3.0,64.0
9,82.0,52.0,90.0,4.0,64.0
10,78.0,22.0,60.0,1.0,64.0
11,82.0,1.0,60.0,0.0,64.0
12,75.0,0.0,60.0,2.0,64.0
13,51.0,27.0,60.0,3.0,64.0
14,87.0,24.0,40.0,4.0,64.0
15,82.0,79.0,30.0,4.0,64.0
16,78.0,10.0,90.0,0.0,64.0
17,58.0,20.0,60.0,3.0,64.0
18,75.0,26.0,90.0,1.0,64.0
19,70.0,4.0,60.0,2.0,64.0
20,78.0,53.0,90.0,4.0,64.0
21,54.0,33.0,60.0,3.0,64.0
22,82.0,21.0,30.0,4.0,64.0
23,78.0,90.0,40.0,4.0,64.0
24,75.0,3.0,90.0,0.0,64.0
25,63.0,21.0,60.0,3.0,64.0
26,75.0,42.0,120.0,4.0,64.0
27,66.0,7.0,90.0,2.0,64.0
28,70.0,41.0,90.0,1.0,64.0
29,58.0,117.0,60.0,3.0,64.0
30,70.0,1.0,60.0,4.0,64.0
31,54.0,3.0,60.0,3.0,64.0
32,66.0,5.0,60.0,2.0,64.0
33,70.0,35.0,60.0,1.0,64.0
34,75.0,6.0,40.0,0.0,64.0
35,75.0,69.0,40.0,4.0,64.0
36,51.0,6.0,60.0,3.0,64.0
37,75.0,0.0,60.0,1.0,64.0
38,70.0,31.0,60.0,2.0,64.0
39,78.0,1.0,60.0,0.0,64.0
40,78.0,5.0,60.0,4.0,64.0
41,75.0,77.0,40.0,4.0,64.0
42,71.0,6.0,60.0,2.0,64.0
43,75.0,25.0,60.0,1.0,64.0
44,77.0,4.0,60.0,0.0,64.0
45,56.0,7.0,60.0,3.0,64.0
46,77.0,1.0,40.0,4.0,64.0
47,75.0,78.0,40.0,4.0,64.0
48,68.0,7.0,60.0,2.0,64.0
49,75.0,34.0,60.0,1.0,64.0
50,53.0,1.0,60.0,3.0,64.0
51,77.0,4.0,60.0,0.0,64.0
52,77.0,3.0,60.0,4.0,64.0
53,75.0,67.0,40.0,4.0,64.0
54,77.0,13.0,60.0,0.0,64.0
55,58.0,7.0,60.0,3.0,64.0
56,70.0,11.0,60.0,2.0,64.0
57,74.0,29.0,90.0,1.0,64.0
58,74.0,0.0,40.0,4.0,64.0
59,77.0,59.0,60.0,4.0,64.0
60,80.0,0.0,40.0,4.0,64.0
61,80.0,10.0,40.0,0.0,64.0
62,46.0,5.0,60.0,3.0,64.0
63,70.0,17.0,60.0,2.0,64.0
64,74.0,14.0,90.0,1.0,64.0
65,77.0,76.0,40.0,4.0,64.0
66,70.0,1.0,60.0,2.0,64.0
67,75.0,47.0,60.0,1.0,64.0
68,78.0,8.0,60.0,4.0,64.0
69,51.0,2.0,40.0,3.0,64.0
70,78.0,3.0,40.0,0.0,64.0
71,53.0,46.0,60.0,3.0,64.0
72,54.0,6.0,40.0,3.0,64.0
73,75.0,20.0,40.0,4.0,64.0
74,75.0,7.0,60.0,0.0,64.0
75,66.0,6.0,60.0,2.0,64.0
76,70.0,20.0,60.0,1.0,64.0
77,53.0,81.0,40.0,3.0,64.0
78,51.0,16.0,60.0,3.0,64.0
79,87.0,57.0,90.0,4.0,64.0
80,82.0,24.0,60.0,1.0,64.0
81,78.0,1.0,60.0,2.0,64.0
82,87.0,5.0,60.0,0.0,64.0
83,90.0,17.0,40.0,4.0,64.0
84,51.0,24.0,60.0,3.0,64.0
85,87.0,98.0,30.0,4.0,64.0
86,82.0,55.0,90.0,4.0,64.0
87,54.0,8.0,60.0,3.0,64.0
88,75.0,10.0,60.0,2.0,64.0
89,78.0,21.0,90.0,1.0,64.0
90,82.0,5.0,60.0,0.0,64.0
91,51.0,34.0,60.0,3.0,64.0
92,87.0,18.0,30.0,4.0,64.0
93,82.0,82.0,40.0,4.0,64.0
94,78.0,9.0,60.0,0.0,64.0
95,58.0,12.0,60.0,3.0,64.0
96,75.0,21.0,90.0,1.0,64.0
97,70.0,6.0,60.0,2.0,64.0
98,78.0,60.0,90.0,4.0,64.0
99,54.0,38.0,60.0,3.0,64.0
100,82.0,18.0,40.0,4.0,64.0
101,78.0,77.0,40.0,4.0,64.0
102,66.0,2.0,90.0,2.0,64.0
103,63.0,7.0,60.0,3.0,64.0
104,75.0,20.0,60.0,0.0,64.0
105,70.0,81.0,90.0,1.0,64.0
106,75.0,16.0,150.0,4.0,64.0
107,58.0,115.0,60.0,3.0,64.0
108,70.0,4.0,60.0,1.0,64.0
109,78.0,0.0,60.0,4.0,64.0
110,75.0,4.0,60.0,2.0,64.0
111,63.0,21.0,90.0,3.0,64.0
112,78.0,28.0,60.0,0.0,64.0
113,77.0,53.0,60.0,0.0,64.0
114,78.0,33.0,150.0,0.0,64.0
115,66.0,9.0,40.0,3.0,64.0
116,70.0,5.0,60.0,2.0,64.0
117,78.0,35.0,60.0,4.0,64.0
118,75.0,3.0,60.0,1.0,64.0
119,63.0,50.0,40.0,3.0,64.0
120,75.0,4.0,60.0,2.0,64.0
121,60.0,5.0,90.0,3.0,64.0
122,68.0,35.0,60.0,1.0,64.0
123,78.0,1.0,60.0,4.0,64.0
124,77.0,58.0,40.0,0.0,64.0
125,78.0,34.0,150.0,0.0,64.0
126,63.0,20.0,40.0,3.0,64.0
127,72.0,2.0,60.0,2.0,64.0
128,75.0,5.0,60.0,1.0,64.0
129,78.0,24.0,60.0,4.0,64.0
130,60.0,51.0,40.0,3.0,64.0
131,72.0,2.0,60.0,1.0,64.0
132,56.0,60.0,90.0,3.0,64.0
133,75.0,27.0,60.0,2.0,64.0
134,87.0,8.0,40.0,4.0,64.0
135,87.0,6.0,40.0,0.0,64.0
136,78.0,63.0,90.0,0.0,64.0
137,60.0,16.0,40.0,3.0,64.0
138,78.0,1.0,60.0,4.0,64.0
139,68.0,24.0,60.0,2.0,64.0
140,75.0,7.0,60.0,1.0,64.0
141,56.0,1.0,40.0,3.0,64.0
142,73.0,5.0,60.0,1.0,64.0
143,61.0,36.0,90.0,3.0,64.0
144,80.0,26.0,30.0,0.0,64.0
145,80.0,0.0,30.0,4.0,64.0
146,68.0,1.0,60.0,2.0,64.0
147,78.0,17.0,40.0,4.0,64.0
148,78.0,5.0,30.0,0.0,64.0
149,80.0,1.0,30.0,4.0,64.0
150,80.0,3.0,30.0,0.0,64.0
151,78.0,30.0,40.0,4.0,64.0
152,78.0,0.0,40.0,0.0,64.0
153,68.0,2.0,60.0,1.0,64.0
154,65.0,18.0,40.0,3.0,64.0
155,77.0,6.0,90.0,4.0,64.0
156,73.0,20.0,60.0,2.0,64.0
157,77.0,6.0,90.0,0.0,64.0
158,61.0,82.0,40.0,3.0,64.0
159,73.0,4.0,60.0,1.0,64.0
160,82.0,7.0,60.0,0.0,64.0
161,70.0,38.0,60.0,2.0,64.0
162,82.0,3.0,60.0,4.0,64.0
163,66.0,5.0,90.0,3.0,64.0
164,81.0,52.0,60.0,0.0,64.0
165,78.0,6.0,60.0,1.0,64.0
166,82.0,27.0,150.0,0.0,64.0
167,73.0,40.0,60.0,2.0,64.0
168,70.0,18.0,30.0,3.0,64.0
169,82.0,0.0,60.0,4.0,64.0
170,66.0,45.0,40.0,3.0,64.0
171,72.0,21.0,60.0,1.0,64.0
172,78.0,10.0,60.0,2.0,64.0
173,82.0,3.0,60.0,4.0,64.0
174,63.0,3.0,90.0,3.0,64.0
175,81.0,69.0,40.0,0.0,64.0
176,82.0,26.0,150.0,0.0,64.0
177,78.0,9.0,60.0,1.0,64.0
178,75.0,4.0,60.0,2.0,64.0
179,66.0,10.0,40.0,3.0,64.0
180,82.0,30.0,60.0,4.0,64.0
181,63.0,48.0,40.0,3.0,64.0
182,78.0,9.0,60.0,2.0,64.0
183,75.0,8.0,60.0,1.0,64.0
184,60.0,2.0,90.0,3.0,64.0
185,90.0,25.0,60.0,4.0,64.0
186,90.0,74.0,40.0,0.0,64.0
187,82.0,5.0,90.0,0.0,64.0
188,72.0,10.0,60.0,2.0,64.0
189,78.0,14.0,60.0,1.0,64.0
190,63.0,3.0,60.0,3.0,64.0
191,82.0,13.0,60.0,4.0,64.0
192,60.0,48.0,40.0,3.0,64.0
193,84.0,16.0,30.0,0.0,64.0
194,77.0,6.0,60.0,1.0,64.0
195,72.0,2.0,60.0,2.0,64.0
196,65.0,6.0,60.0,3.0,64.0
197,84.0,11.0,30.0,4.0,64.0
198,82.0,4.0,30.0,0.0,64.0
199,82.0,26.0,40.0,4.0,64.0
200,84.0,5.0,40.0,0.0,64.0
201,66.0,14.0,40.0,3.0,64.0
202,84.0,10.0,40.0,4.0,64.0
203,82.0,24.0,40.0,0.0,64.0
204,82.0,9.0,60.0,4.0,64.0
205,81.0,28.0,90.0,0.0,64.0
206,65.0,15.0,40.0,3.0,64.0
207,72.0,12.0,60.0,1.0,64.0
208,77.0,7.0,60.0,2.0,64.0
209,81.0,2.0,60.0,4.0,64.0
210,63.0,77.0,40.0,3.0,64.0
211,82.0,5.0,60.0,0.0,64.0
212,77.0,6.0,60.0,1.0,64.0
213,70.0,1.0,60.0,2.0,64.0
214,61.0,2.0,60.0,3.0,64.0
215,77.0,38.0,60.0,4.0,64.0
216,82.0,64.0,40.0,4.0,64.0
217,82.0,2.0,60.0,1.0,64.0
218,77.0,0.0,60.0,2.0,64.0
219,85.0,0.0,60.0,0.0,64.0
220,58.0,50.0,60.0,3.0,64.0
221,85.0,3.0,40.0,4.0,64.0
222,82.0,67.0,40.0,4.0,64.0
223,63.0,6.0,60.0,3.0,64.0
224,78.0,2.0,60.0,2.0,64.0
225,84.0,11.0,60.0,0.0,64.0
226,82.0,23.0,60.0,1.0,64.0
227,84.0,0.0,60.0,4.0,64.0
228,82.0,73.0,30.0,4.0,64.0
229,60.0,4.0,60.0,3.0,64.0
230,78.0,2.0,60.0,2.0,64.0
231,84.0,7.0,40.0,4.0,64.0
232,84.0,3.0,60.0,0.0,64.0
233,82.0,36.0,60.0,1.0,64.0
234,82.0,66.0,40.0,4.0,64.0
235,81.0,5.0,40.0,4.0,64.0
236,84.0,5.0,60.0,0.0,64.0
237,77.0,4.0,60.0,2.0,64.0
238,81.0,31.0,60.0,1.0,64.0
239,65.0,4.0,60.0,3.0,64.0
240,84.0,70.0,40.0,4.0,64.0
241,87.0,14.0,60.0,0.0,64.0
242,87.0,1.0,40.0,4.0,64.0
243,77.0,3.0,40.0,2.0,64.0
244,81.0,25.0,60.0,1.0,64.0
245,53.0,0.0,60.0,3.0,64.0
246,84.0,74.0,30.0,4.0,64.0
247,58.0,3.0,60.0,3.0,64.0
248,85.0,1.0,60.0,0.0,64.0
249,82.0,38.0,60.0,1.0,64.0
250,85.0,9.0,40.0,4.0,64.0
251,65.0,0.0,60.0,2.0,64.0
252,84.0,70.0,30.0,4.0,64.0
253,82.0,1.0,60.0,0.0,64.0
254,73.0,6.0,60.0,1.0,64.0
255,77.0,30.0,60.0,2.0,64.0
256,85.0,14.0,40.0,4.0,64.0
257,46.0,3.0,60.0,3.0,64.0
258,81.0,1.0,60.0,0.0,64.0
259,84.0,61.0,40.0,4.0,64.0
260,82.0,11.0,60.0,0.0,64.0
261,73.0,23.0,60.0,2.0,64.0
262,58.0,10.0,60.0,3.0,64.0
263,77.0,1.0,60.0,1.0,64.0
264,82.0,10.0,30.0,4.0,64.0
265,85.0,72.0,30.0,4.0,64.0
266,77.0,21.0,60.0,0.0,64.0
267,61.0,7.0,40.0,3.0,64.0
268,82.0,41.0,60.0,4.0,64.0
269,81.0,40.0,60.0,4.0,64.0
270,82.0,13.0,60.0,0.0,64.0
271,82.0,17.0,30.0,4.0,64.0
272,54.0,11.0,60.0,3.0,64.0
273,75.0,14.0,90.0,1.0,64.0
274,70.0,5.0,60.0,2.0,64.0
275,87.0,86.0,30.0,4.0,64.0
276,82.0,54.0,60.0,4.0,64.0
277,75.0,5.0,60.0,0.0,64.0
278,63.0,10.0,60.0,3.0,64.0
279,81.0,25.0,60.0,4.0,64.0
280,82.0,19.0,60.0,0.0,64.0
281,73.0,3.0,60.0,2.0,64.0
282,73.0,26.0,90.0,1.0,64.0
283,82.0,18.0,30.0,4.0,64.0
284,53.0,8.0,60.0,3.0,64.0
285,89.0,69.0,40.0,4.0,64.0
286,82.0,70.0,60.0,4.0,64.0
287,73.0,3.0,60.0,0.0,64.0
288,65.0,1.0,60.0,3.0,64.0
289,81.0,20.0,60.0,4.0,64.0
290,82.0,27.0,30.0,4.0,64.0
291,51.0,5.0,60.0,3.0,64.0
292,82.0,11.0,60.0,0.0,64.0
293,75.0,13.0,60.0,2.0,64.0
294,72.0,9.0,90.0,1.0,64.0
295,90.0,72.0,40.0,4.0,64.0
296,66.0,73.0,60.0,3.0,64.0
297,82.0,7.0,60.0,4.0,64.0
298,72.0,1.0,40.0,0.0,64.0
299,81.0,22.0,90.0,4.0,64.0
300,63.0,4.0,60.0,3.0,64.0
301,82.0,24.0,30.0,4.0,64.0
302,72.0,1.0,60.0,2.0,64.0
303,82.0,5.0,60.0,0.0,64.0
304,75.0,26.0,60.0,1.0,64.0
305,90.0,57.0,40.0,4.0,64.0
306,89.0,31.0,40.0,4.0,64.0
307,60.0,4.0,60.0,3.0,64.0
308,81.0,1.0,60.0,0.0,64.0
309,75.0,3.0,60.0,2.0,64.0
310,78.0,33.0,60.0,1.0,64.0
311,87.0,64.0,40.0,4.0,64.0
312,82.0,18.0,60.0,0.0,64.0
313,61.0,0.0,60.0,3.0,64.0
314,77.0,3.0,60.0,1.0,64.0
315,89.0,2.0,40.0,4.0,64.0
316,73.0,35.0,60.0,2.0,64.0
317,85.0,48.0,40.0,4.0,64.0
318,84.0,5.0,60.0,0.0,64.0
319,75.0,11.0,60.0,1.0,64.0
320,84.0,23.0,30.0,4.0,64.0
321,63.0,2.0,60.0,3.0,64.0
322,78.0,20.0,60.0,2.0,64.0
323,82.0,83.0,40.0,4.0,64.0
324,73.0,1.0,60.0,1.0,64.0
325,77.0,1.0,60.0,0.0,64.0
326,65.0,3.0,60.0,3.0,64.0
327,85.0,1.0,60.0,4.0,64.0
328,77.0,91.0,60.0,2.0,64.0
329,77.0,3.0,60.0,1.0,64.0
330,81.0,1.0,60.0,0.0,64.0
331,85.0,20.0,30.0,4.0,64.0
332,75.0,27.0,60.0,2.0,64.0
333,53.0,2.0,40.0,3.0,64.0
334,84.0,1.0,30.0,4.0,64.0
335,85.0,37.0,30.0,4.0,64.0
336,84.0,103.0,40.0,4.0,64.0
337,82.0,17.0,120.0,4.0,64.0
338,58.0,10.0,120.0,3.0,64.0
339,73.0,166.0,120.0,2.0,64.0
340,77.0,1.0,120.0,1.0,64.0
341,82.0,4.0,120.0,0.0,64.0
342,51.0,16.0,60.0,3.0,64.0
343,87.0,1.0,90.0,4.0,64.0
344,82.0,70.0,90.0,1.0,64.0
345,78.0,1.0,60.0,2.0,64.0
346,87.0,12.0,60.0,0.0,64.0
347,90.0,36.0,40.0,4.0,64.0
348,51.0,7.0,60.0,3.0,64.0
349,87.0,87.0,30.0,4.0,64.0
350,54.0,27.0,60.0,3.0,64.0
351,82.0,52.0,90.0,4.0,64.0
352,78.0,0.0,60.0,1.0,64.0
353,82.0,1.0,60.0,0.0,64.0
354,75.0,22.0,60.0,2.0,64.0
355,51.0,27.0,60.0,3.0,64.0
356,87.0,24.0,40.0,4.0,64.0
357,82.0,79.0,30.0,4.0,64.0
358,78.0,10.0,90.0,0.0,64.0
359,58.0,20.0,60.0,3.0,64.0
360,75.0,26.0,90.0,1.0,64.0
361,70.0,4.0,60.0,2.0,64.0
362,78.0,53.0,90.0,4.0,64.0
363,54.0,33.0,60.0,3.0,64.0
364,82.0,21.0,30.0,4.0,64.0
365,78.0,90.0,40.0,4.0,64.0
366,75.0,3.0,90.0,0.0,64.0
367,63.0,21.0,60.0,3.0,64.0
368,75.0,42.0,120.0,4.0,64.0
369,66.0,7.0,90.0,2.0,64.0
370,70.0,41.0,90.0,1.0,64.0
371,58.0,117.0,60.0,3.0,64.0
372,70.0,1.0,60.0,4.0,64.0
373,54.0,3.0,60.0,3.0,64.0
374,66.0,5.0,60.0,2.0,64.0
375,70.0,35.0,60.0,1.0,64.0
376,75.0,6.0,40.0,0.0,64.0
377,75.0,69.0,40.0,4.0,64.0
378,51.0,6.0,60.0,3.0,64.0
379,75.0,5.0,60.0,1.0,64.0
380,70.0,31.0,60.0,2.0,64.0
381,78.0,1.0,60.0,0.0,64.0
382,78.0,0.0,60.0,4.0,64.0
383,75.0,77.0,40.0,4.0,64.0
384,71.0,6.0,60.0,2.0,64.0
385,75.0,25.0,60.0,1.0,64.0
386,77.0,4.0,60.0,0.0,64.0
387,56.0,7.0,60.0,3.0,64.0
388,77.0,1.0,40.0,4.0,64.0
389,75.0,78.0,40.0,4.0,64.0
390,68.0,7.0,60.0,2.0,64.0
391,75.0,34.0,60.0,1.0,64.0
392,53.0,1.0,60.0,3.0,64.0
393,77.0,4.0,60.0,0.0,64.0
394,77.0,3.0,60.0,4.0,64.0
395,75.0,67.0,40.0,4.0,64.0
396,77.0,13.0,60.0,0.0,64.0
397,58.0,7.0,60.0,3.0,64.0
398,70.0,11.0,60.0,2.0,64.0
399,74.0,29.0,90.0,1.0,64.0
400,74.0,0.0,40.0,4.0,64.0
401,77.0,59.0,60.0,4.0,64.0
402,80.0,0.0,40.0,4.0,64.0
403,80.0,10.0,40.0,0.0,64.0
404,46.0,5.0,60.0,3.0,64.0
405,70.0,17.0,60.0,2.0,64.0
406,74.0,14.0,90.0,1.0,64.0
407,77.0,76.0,40.0,4.0,64.0
408,70.0,1.0,60.0,2.0,64.0
409,75.0,47.0,60.0,1.0,64.0
410,78.0,8.0,60.0,4.0,64.0
411,78.0,3.0,40.0,0.0,64.0
412,51.0,2.0,40.0,3.0,64.0
413,53.0,46.0,60.0,3.0,64.0
414,54.0,6.0,40.0,3.0,64.0
415,75.0,20.0,40.0,4.0,64.0
416,75.0,7.0,60.0,0.0,64.0
417,66.0,6.0,60.0,2.0,64.0
418,70.0,20.0,60.0,1.0,64.0
419,53.0,81.0,40.0,3.0,64.0
420,51.0,16.0,60.0,3.0,64.0
421,87.0,57.0,90.0,4.0,64.0
422,82.0,24.0,60.0,1.0,64.0
423,78.0,1.0,60.0,2.0,64.0
424,87.0,5.0,60.0,0.0,64.0
425,90.0,17.0,40.0,4.0,64.0
426,51.0,24.0,60.0,3.0,64.0
427,87.0,98.0,30.0,4.0,64.0
428,82.0,55.0,90.0,4.0,64.0
429,54.0,8.0,60.0,3.0,64.0
430,78.0,21.0,90.0,1.0,64.0
431,82.0,5.0,60.0,0.0,64.0
432,75.0,10.0,60.0,2.0,64.0
433,51.0,34.0,60.0,3.0,64.0
434,87.0,18.0,30.0,4.0,64.0
435,82.0,82.0,40.0,4.0,64.0
436,58.0,12.0,60.0,3.0,64.0
437,78.0,9.0,60.0,0.0,64.0
438,75.0,21.0,90.0,1.0,64.0
439,70.0,6.0,60.0,2.0,64.0
440,78.0,60.0,90.0,4.0,64.0
441,54.0,38.0,60.0,3.0,64.0
442,82.0,18.0,40.0,4.0,64.0
443,78.0,77.0,40.0,4.0,64.0
444,66.0,2.0,90.0,2.0,64.0
445,63.0,7.0,60.0,3.0,64.0
446,75.0,20.0,60.0,0.0,64.0
447,70.0,81.0,90.0,1.0,64.0
448,75.0,16.0,150.0,4.0,64.0
449,58.0,115.0,60.0,3.0,64.0
450,70.0,4.0,60.0,1.0,64.0
451,75.0,4.0,60.0,2.0,64.0
452,78.0,28.0,60.0,4.0,64.0
453,63.0,21.0,90.0,3.0,64.0
454,78.0,0.0,60.0,0.0,64.0
455,77.0,53.0,60.0,0.0,64.0
456,78.0,33.0,150.0,0.0,64.0
457,70.0,5.0,60.0,2.0,64.0
458,66.0,9.0,40.0,3.0,64.0
459,78.0,35.0,60.0,4.0,64.0
460,75.0,3.0,60.0,1.0,64.0
461,63.0,50.0,40.0,3.0,64.0
462,75.0,4.0,60.0,2.0,64.0
463,60.0,5.0,90.0,3.0,64.0
464,68.0,35.0,60.0,1.0,64.0
465,78.0,1.0,60.0,4.0,64.0
466,77.0,58.0,40.0,0.0,64.0
467,78.0,34.0,150.0,0.0,64.0
468,63.0,20.0,40.0,3.0,64.0
469,72.0,2.0,60.0,2.0,64.0
470,75.0,5.0,60.0,1.0,64.0
471,78.0,24.0,60.0,4.0,64.0
472,60.0,51.0,40.0,3.0,64.0
473,72.0,2.0,60.0,1.0,64.0
474,56.0,60.0,90.0,3.0,64.0
475,75.0,27.0,60.0,2.0,64.0
476,87.0,8.0,40.0,4.0,64.0
477,87.0,6.0,40.0,0.0,64.0
478,78.0,63.0,90.0,0.0,64.0
479,60.0,16.0,40.0,3.0,64.0
480,78.0,1.0,60.0,4.0,64.0
481,68.0,24.0,60.0,2.0,64.0
482,75.0,7.0,60.0,1.0,64.0
483,56.0,1.0,40.0,3.0,64.0
484,73.0,5.0,60.0,1.0,64.0
485,61.0,36.0,90.0,3.0,64.0
486,80.0,26.0,30.0,0.0,64.0
487,68.0,1.0,60.0,2.0,64.0
488,80.0,0.0,30.0,4.0,64.0
489,78.0,17.0,40.0,4.0,64.0
490,78.0,5.0,30.0,0.0,64.0
491,80.0,1.0,30.0,4.0,64.0
492,80.0,3.0,30.0,0.0,64.0
493,78.0,0.0,40.0,4.0,64.0
494,78.0,30.0,40.0,0.0,64.0
495,68.0,2.0,60.0,1.0,64.0
496,65.0,18.0,40.0,3.0,64.0
497,77.0,6.0,90.0,4.0,64.0
498,73.0,20.0,60.0,2.0,64.0
499,77.0,6.0,90.0,0.0,64.0
500,61.0,82.0,40.0,3.0,64.0
501,73.0,4.0,60.0,1.0,64.0
502,82.0,7.0,60.0,0.0,64.0
503,70.0,38.0,60.0,2.0,64.0
504,66.0,5.0,90.0,3.0,64.0
505,82.0,3.0,60.0,4.0,64.0
506,81.0,52.0,60.0,0.0,64.0
507,78.0,6.0,60.0,1.0,64.0
508,82.0,27.0,150.0,0.0,64.0
509,73.0,40.0,60.0,2.0,64.0
510,70.0,18.0,30.0,3.0,64.0
511,82.0,0.0,60.0,4.0,64.0
512,66.0,45.0,40.0,3.0,64.0
513,72.0,21.0,60.0,1.0,64.0
514,78.0,10.0,60.0,2.0,64.0
515,82.0,3.0,60.0,4.0,64.0
516,63.0,3.0,90.0,3.0,64.0
517,81.0,69.0,40.0,0.0,64.0
518,78.0,9.0,60.0,1.0,64.0
519,82.0,26.0,150.0,0.0,64.0
520,75.0,4.0,60.0,2.0,64.0
521,66.0,10.0,40.0,3.0,64.0
522,82.0,30.0,60.0,4.0,64.0
523,63.0,48.0,40.0,3.0,64.0
524,78.0,9.0,60.0,2.0,64.0
525,75.0,8.0,60.0,1.0,64.0
526,60.0,2.0,90.0,3.0,64.0
527,90.0,25.0,60.0,4.0,64.0
528,90.0,74.0,40.0,0.0,64.0
529,82.0,5.0,90.0,0.0,64.0
530,72.0,10.0,60.0,2.0,64.0
531,78.0,14.0,60.0,1.0,64.0
532,63.0,3.0,60.0,3.0,64.0
533,82.0,13.0,60.0,4.0,64.0
534,60.0,48.0,40.0,3.0,64.0
535,84.0,16.0,30.0,0.0,64.0
536,77.0,6.0,60.0,1.0,64.0
537,72.0,2.0,60.0,2.0,64.0
538,65.0,6.0,60.0,3.0,64.0
539,84.0,11.0,30.0,4.0,64.0
540,82.0,4.0,30.0,0.0,64.0
541,82.0,26.0,40.0,4.0,64.0
542,84.0,5.0,40.0,0.0,64.0
543,66.0,14.0,40.0,3.0,64.0
544,84.0,10.0,40.0,4.0,64.0
545,82.0,24.0,40.0,0.0,64.0
546,82.0,9.0,60.0,4.0,64.0
547,81.0,28.0,90.0,0.0,64.0
548,65.0,15.0,40.0,3.0,64.0
549,72.0,12.0,60.0,1.0,64.0
550,77.0,7.0,60.0,2.0,64.0
551,81.0,2.0,60.0,4.0,64.0
552,63.0,77.0,40.0,3.0,64.0
553,82.0,5.0,60.0,0.0,64.0
554,77.0,6.0,60.0,1.0,64.0
555,70.0,1.0,60.0,2.0,64.0
556,61.0,2.0,60.0,3.0,64.0
557,77.0,38.0,60.0,4.0,64.0
558,82.0,64.0,40.0,4.0,64.0
559,82.0,2.0,60.0,1.0,64.0
560,77.0,0.0,60.0,2.0,64.0
561,58.0,50.0,60.0,3.0,64.0
562,85.0,0.0,60.0,0.0,64.0
563,85.0,3.0,40.0,4.0,64.0
564,82.0,67.0,40.0,4.0,64.0
565,63.0,6.0,60.0,3.0,64.0
566,78.0,2.0,60.0,2.0,64.0
567,84.0,11.0,60.0,0.0,64.0
568,82.0,23.0,60.0,1.0,64.0
569,84.0,0.0,60.0,4.0,64.0
570,82.0,73.0,30.0,4.0,64.0
571,60.0,4.0,60.0,3.0,64.0
572,78.0,2.0,60.0,2.0,64.0
573,84.0,7.0,40.0,4.0,64.0
574,84.0,3.0,60.0,0.0,64.0
575,82.0,36.0,60.0,1.0,64.0
576,82.0,66.0,40.0,4.0,64.0
577,81.0,5.0,40.0,4.0,64.0
578,84.0,5.0,60.0,0.0,64.0
579,77.0,4.0,60.0,2.0,64.0
580,81.0,31.0,60.0,1.0,64.0
581,65.0,4.0,60.0,3.0,64.0
582,84.0,70.0,40.0,4.0,64.0
583,87.0,14.0,60.0,0.0,64.0
584,87.0,1.0,40.0,4.0,64.0
585,77.0,3.0,40.0,2.0,64.0
586,81.0,25.0,60.0,1.0,64.0
587,53.0,0.0,60.0,3.0,64.0
588,84.0,74.0,30.0,4.0,64.0
589,58.0,3.0,60.0,3.0,64.0
590,85.0,1.0,60.0,0.0,64.0
591,82.0,0.0,60.0,1.0,64.0
592,85.0,9.0,40.0,4.0,64.0
593,65.0,38.0,60.0,2.0,64.0
594,84.0,70.0,30.0,4.0,64.0
595,82.0,1.0,60.0,0.0,64.0
596,73.0,6.0,60.0,1.0,64.0
597,77.0,30.0,60.0,2.0,64.0
598,85.0,14.0,40.0,4.0,64.0
599,46.0,3.0,60.0,3.0,64.0
600,81.0,1.0,60.0,0.0,64.0
601,84.0,61.0,40.0,4.0,64.0
602,82.0,11.0,60.0,0.0,64.0
603,73.0,23.0,60.0,2.0,64.0
604,58.0,10.0,60.0,3.0,64.0
605,77.0,1.0,60.0,1.0,64.0
606,82.0,10.0,30.0,4.0,64.0
607,85.0,72.0,30.0,4.0,64.0
608,77.0,21.0,60.0,0.0,64.0
609,61.0,7.0,40.0,3.0,64.0
610,82.0,41.0,60.0,4.0,64.0
611,81.0,40.0,60.0,4.0,64.0
612,82.0,13.0,60.0,0.0,64.0
613,82.0,17.0,30.0,4.0,64.0
614,54.0,11.0,60.0,3.0,64.0
615,75.0,14.0,90.0,1.0,64.0
616,70.0,5.0,60.0,2.0,64.0
617,87.0,86.0,30.0,4.0,64.0
618,75.0,5.0,60.0,0.0,64.0
619,82.0,54.0,60.0,4.0,64.0
620,63.0,10.0,60.0,3.0,64.0
621,81.0,25.0,60.0,4.0,64.0
622,82.0,19.0,60.0,0.0,64.0
623,73.0,3.0,60.0,2.0,64.0
624,73.0,26.0,90.0,1.0,64.0
625,82.0,18.0,30.0,4.0,64.0
626,53.0,8.0,60.0,3.0,64.0
627,89.0,69.0,40.0,4.0,64.0
628,82.0,70.0,60.0,4.0,64.0
629,73.0,3.0,60.0,0.0,64.0
630,65.0,1.0,60.0,3.0,64.0
631,81.0,20.0,60.0,4.0,64.0
632,82.0,27.0,30.0,4.0,64.0
633,51.0,5.0,60.0,3.0,64.0
634,82.0,11.0,60.0,0.0,64.0
635,75.0,13.0,60.0,2.0,64.0
636,72.0,9.0,90.0,1.0,64.0
637,90.0,72.0,40.0,4.0,64.0
638,66.0,73.0,60.0,3.0,64.0
639,82.0,7.0,60.0,4.0,64.0
640,72.0,1.0,40.0,0.0,64.0
641,81.0,22.0,90.0,4.0,64.0
642,63.0,4.0,60.0,3.0,64.0
643,82.0,24.0,30.0,4.0,64.0
644,72.0,1.0,60.0,2.0,64.0
645,82.0,5.0,60.0,0.0,64.0
646,75.0,26.0,60.0,1.0,64.0
647,90.0,57.0,40.0,4.0,64.0
648,89.0,31.0,40.0,4.0,64.0
649,60.0,4.0,60.0,3.0,64.0
650,81.0,1.0,60.0,0.0,64.0
651,75.0,3.0,60.0,2.0,64.0
652,78.0,33.0,60.0,1.0,64.0
653,87.0,64.0,40.0,4.0,64.0
654,82.0,18.0,60.0,0.0,64.0
655,61.0,35.0,60.0,3.0,64.0
656,77.0,3.0,60.0,1.0,64.0
657,73.0,0.0,60.0,2.0,64.0
658,89.0,2.0,40.0,4.0,64.0
659,85.0,48.0,40.0,4.0,64.0
660,84.0,5.0,60.0,0.0,64.0
661,75.0,11.0,60.0,1.0,64.0
662,84.0,23.0,30.0,4.0,64.0
663,63.0,2.0,60.0,3.0,64.0
664,78.0,20.0,60.0,2.0,64.0
665,82.0,83.0,40.0,4.0,64.0
666,73.0,1.0,60.0,1.0,64.0
667,77.0,1.0,60.0,0.0,64.0
668,65.0,3.0,60.0,3.0,64.0
669,85.0,1.0,60.0,4.0,64.0
670,77.0,91.0,60.0,2.0,64.0
671,77.0,3.0,60.0,1.0,64.0
672,81.0,1.0,60.0,0.0,64.0
673,75.0,27.0,60.0,2.0,64.0
674,85.0,20.0,30.0,4.0,64.0
675,53.0,2.0,40.0,3.0,64.0
676,84.0,1.0,30.0,4.0,64.0
677,85.0,37.0,30.0,4.0,64.0
678,84.0,103.0,40.0,4.0,64.0
679,82.0,17.0,120.0,4.0,64.0
680,58.0,10.0,120.0,3.0,64.0
681,77.0,1.0,120.0,1.0,64.0
682,73.0,172.0,120.0,2.0,64.0
683,82.0,4.0,120.0,0.0,64.0
684,73.0,1.0,90.0,2.0,64.0
685,82.0,6.0,60.0,0.0,64.0
686,82.0,64.0,90.0,4.0,64.0
687,77.0,23.0,60.0,1.0,64.0
688,46.0,8.0,60.0,3.0,64.0
689,85.0,19.0,40.0,4.0,64.0
690,46.0,26.0,60.0,3.0,64.0
691,82.0,81.0,30.0,4.0,64.0
692,70.0,41.0,90.0,2.0,64.0
693,77.0,3.0,60.0,0.0,64.0
694,73.0,2.0,60.0,1.0,64.0
695,49.0,17.0,60.0,3.0,64.0
696,77.0,47.0,120.0,4.0,64.0
697,46.0,59.0,60.0,3.0,64.0
698,82.0,2.0,40.0,4.0,64.0
699,77.0,64.0,40.0,4.0,64.0
700,73.0,30.0,90.0,0.0,64.0
701,53.0,27.0,60.0,3.0,64.0
702,70.0,3.0,90.0,1.0,64.0
703,65.0,4.0,60.0,2.0,64.0
704,73.0,51.0,90.0,4.0,64.0
705,49.0,52.0,60.0,3.0,64.0
706,77.0,7.0,30.0,4.0,64.0
707,73.0,98.0,40.0,4.0,64.0
708,61.0,8.0,90.0,2.0,64.0
709,70.0,3.0,90.0,0.0,64.0
710,65.0,8.0,90.0,1.0,64.0
711,58.0,30.0,90.0,3.0,64.0
712,70.0,35.0,120.0,4.0,64.0
713,61.0,44.0,40.0,3.0,64.0
714,58.0,117.0,40.0,3.0,64.0
715,55.0,39.0,90.0,3.0,64.0
716,70.0,0.0,90.0,1.0,64.0
717,58.0,4.0,90.0,2.0,64.0
718,76.0,41.0,120.0,4.0,64.0
719,73.0,0.0,90.0,0.0,64.0
720,75.0,19.0,90.0,4.0,64.0
721,58.0,22.0,60.0,3.0,64.0
722,55.0,119.0,40.0,3.0,64.0
723,51.0,9.0,120.0,3.0,64.0
724,68.0,2.0,90.0,1.0,64.0
725,80.0,60.0,120.0,4.0,64.0
726,71.0,5.0,90.0,0.0,64.0
727,59.0,3.0,90.0,2.0,64.0
728,51.0,101.0,90.0,3.0,64.0
729,79.0,43.0,40.0,4.0,64.0
730,82.0,4.0,40.0,4.0,64.0
731,51.0,2.0,90.0,3.0,64.0
732,85.0,7.0,90.0,4.0,64.0
733,63.0,5.0,90.0,2.0,64.0
734,67.0,2.0,90.0,1.0,64.0
735,70.0,55.0,90.0,0.0,64.0
736,51.0,17.0,90.0,3.0,64.0
737,83.0,38.0,40.0,4.0,64.0
738,82.0,76.0,40.0,4.0,64.0
739,56.0,19.0,90.0,3.0,64.0
740,68.0,1.0,90.0,0.0,64.0
741,83.0,33.0,40.0,4.0,64.0
742,68.0,66.0,90.0,1.0,64.0
743,63.0,1.0,90.0,2.0,64.0
744,63.0,3.0,60.0,3.0,64.0
745,80.0,43.0,40.0,4.0,64.0
746,59.0,112.0,40.0,3.0,64.0
747,56.0,10.0,90.0,3.0,64.0
748,83.0,19.0,90.0,0.0,64.0
749,75.0,1.0,90.0,2.0,64.0
750,83.0,51.0,120.0,4.0,64.0
751,80.0,1.0,90.0,1.0,64.0
752,59.0,35.0,60.0,3.0,64.0
753,87.0,3.0,40.0,4.0,64.0
754,56.0,10.0,40.0,3.0,64.0
755,83.0,101.0,30.0,4.0,64.0
756,53.0,14.0,60.0,3.0,64.0
757,83.0,3.0,90.0,0.0,64.0
758,80.0,64.0,90.0,4.0,64.0
759,80.0,7.0,90.0,1.0,64.0
760,73.0,3.0,90.0,2.0,64.0
761,49.0,20.0,60.0,3.0,64.0
762,83.0,31.0,40.0,4.0,64.0
763,80.0,90.0,30.0,4.0,64.0
764,80.0,5.0,90.0,0.0,64.0
765,77.0,61.0,90.0,4.0,64.0
766,56.0,22.0,60.0,3.0,64.0
767,73.0,8.0,90.0,2.0,64.0
768,77.0,7.0,90.0,1.0,64.0
769,53.0,35.0,60.0,3.0,64.0
770,80.0,13.0,40.0,4.0,64.0
771,77.0,102.0,40.0,4.0,64.0
772,68.0,2.0,90.0,2.0,64.0
773,59.0,22.0,60.0,3.0,64.0
774,73.0,57.0,240.0,4.0,64.0
775,77.0,12.0,90.0,0.0,64.0
776,73.0,89.0,90.0,1.0,64.0
777,56.0,45.0,90.0,3.0,64.0
778,58.0,29.0,60.0,3.0,64.0
779,78.0,6.0,60.0,0.0,64.0
780,73.0,2.0,60.0,1.0,64.0
781,73.0,2.0,60.0,2.0,64.0
782,78.0,45.0,40.0,4.0,64.0
783,82.0,31.0,30.0,4.0,64.0
784,82.0,0.0,60.0,0.0,64.0
785,78.0,3.0,60.0,1.0,64.0
786,63.0,30.0,60.0,3.0,64.0
787,70.0,2.0,60.0,2.0,64.0
788,78.0,78.0,40.0,4.0,64.0
789,75.0,6.0,60.0,2.0,64.0
790,80.0,4.0,60.0,4.0,64.0
791,80.0,6.0,60.0,0.0,64.0
792,59.0,29.0,60.0,3.0,64.0
793,78.0,2.0,60.0,1.0,64.0
794,78.0,75.0,40.0,4.0,64.0
795,71.0,5.0,60.0,2.0,64.0
796,56.0,10.0,60.0,3.0,64.0
797,80.0,1.0,60.0,0.0,64.0
798,80.0,1.0,60.0,4.0,64.0
799,78.0,37.0,60.0,1.0,64.0
800,78.0,63.0,60.0,4.0,64.0
801,61.0,4.0,60.0,3.0,64.0
802,73.0,1.0,60.0,2.0,64.0
803,80.0,51.0,60.0,0.0,64.0
804,77.0,8.0,40.0,4.0,64.0
805,77.0,0.0,60.0,1.0,64.0
806,80.0,51.0,60.0,4.0,64.0
807,73.0,8.0,60.0,2.0,64.0
808,49.0,33.0,60.0,3.0,64.0
809,83.0,1.0,60.0,0.0,64.0
810,83.0,8.0,40.0,4.0,64.0
811,77.0,7.0,60.0,1.0,64.0
812,80.0,56.0,40.0,4.0,64.0
813,82.0,22.0,40.0,4.0,64.0
814,54.0,4.0,60.0,3.0,64.0
815,61.0,0.0,60.0,2.0,64.0
816,78.0,6.0,60.0,1.0,64.0
817,82.0,26.0,60.0,0.0,64.0
818,80.0,66.0,40.0,4.0,64.0
819,73.0,6.0,60.0,2.0,64.0
820,82.0,11.0,40.0,4.0,64.0
821,70.0,1.0,60.0,1.0,64.0
822,78.0,8.0,60.0,0.0,64.0
823,42.0,26.0,60.0,3.0,64.0
824,77.0,59.0,60.0,0.0,64.0
825,80.0,7.0,40.0,4.0,64.0
826,78.0,12.0,40.0,4.0,64.0
827,70.0,86.0,90.0,2.0,64.0
828,78.0,13.0,60.0,0.0,64.0
829,52.0,17.0,60.0,3.0,64.0
830,73.0,3.0,90.0,1.0,64.0
831,82.0,4.0,30.0,4.0,64.0
832,78.0,1.0,60.0,4.0,64.0
833,58.0,57.0,60.0,3.0,64.0
834,73.0,5.0,60.0,0.0,64.0
835,77.0,29.0,60.0,4.0,64.0
836,78.0,25.0,30.0,4.0,64.0
837,66.0,6.0,90.0,2.0,64.0
838,78.0,22.0,60.0,0.0,64.0
839,51.0,6.0,60.0,3.0,64.0
840,71.0,29.0,90.0,1.0,64.0
841,83.0,61.0,60.0,4.0,64.0
842,78.0,55.0,60.0,4.0,64.0
843,71.0,2.0,60.0,0.0,64.0
844,59.0,5.0,60.0,3.0,64.0
845,77.0,30.0,60.0,4.0,64.0
846,70.0,1.0,90.0,2.0,64.0
847,78.0,19.0,30.0,4.0,64.0
848,78.0,17.0,60.0,0.0,64.0
849,49.0,17.0,60.0,3.0,64.0
850,70.0,19.0,90.0,1.0,64.0
851,85.0,68.0,40.0,4.0,64.0
852,61.0,7.0,60.0,3.0,64.0
853,78.0,58.0,60.0,4.0,64.0
854,70.0,2.0,60.0,0.0,64.0
855,77.0,31.0,60.0,4.0,64.0
856,78.0,19.0,30.0,4.0,64.0
857,78.0,9.0,60.0,0.0,64.0
858,47.0,29.0,60.0,3.0,64.0
859,71.0,10.0,90.0,2.0,64.0
860,68.0,6.0,90.0,1.0,64.0
861,87.0,70.0,40.0,4.0,64.0
862,63.0,65.0,60.0,3.0,64.0
863,68.0,3.0,60.0,0.0,64.0
864,78.0,1.0,60.0,4.0,64.0
865,77.0,36.0,60.0,4.0,64.0
866,59.0,6.0,60.0,3.0,64.0
867,78.0,8.0,60.0,0.0,64.0
868,68.0,2.0,60.0,2.0,64.0
869,75.0,42.0,60.0,1.0,64.0
870,78.0,8.0,40.0,4.0,64.0
871,87.0,70.0,40.0,4.0,64.0
872,56.0,1.0,60.0,3.0,64.0
873,71.0,3.0,60.0,2.0,64.0
874,77.0,2.0,60.0,0.0,64.0
875,80.0,37.0,60.0,1.0,64.0
876,85.0,2.0,60.0,4.0,64.0
877,83.0,75.0,30.0,4.0,64.0
878,70.0,4.0,60.0,2.0,64.0
879,78.0,7.0,60.0,0.0,64.0
880,73.0,40.0,60.0,1.0,64.0
881,58.0,0.0,60.0,3.0,64.0
882,85.0,3.0,40.0,4.0,64.0
883,82.0,59.0,40.0,4.0,64.0
884,75.0,5.0,60.0,2.0,64.0
885,59.0,35.0,60.0,3.0,64.0
886,80.0,1.0,60.0,0.0,64.0
887,71.0,2.0,60.0,1.0,64.0
888,80.0,12.0,40.0,4.0,64.0
889,78.0,68.0,40.0,4.0,64.0
890,73.0,3.0,60.0,2.0,64.0
891,61.0,2.0,60.0,3.0,64.0
892,73.0,7.0,60.0,0.0,64.0
893,70.0,10.0,60.0,1.0,64.0
894,82.0,74.0,60.0,4.0,64.0
895,71.0,34.0,60.0,2.0,64.0
896,82.0,19.0,30.0,4.0,64.0
897,49.0,1.0,60.0,3.0,64.0
898,77.0,9.0,40.0,0.0,64.0
899,73.0,0.0,40.0,1.0,64.0
900,80.0,4.0,30.0,4.0,64.0
901,82.0,25.0,40.0,4.0,64.0
902,80.0,68.0,40.0,4.0,64.0
903,54.0,63.0,60.0,3.0,64.0
904,78.0,10.0,150.0,4.0,64.0
905,78.0,17.0,120.0,0.0,64.0
906,70.0,22.0,150.0,2.0,64.0
907,73.0,1.0,150.0,1.0,64.0
908,49.0,34.0,60.0,3.0,64.0
909,46.0,82.0,40.0,3.0,64.0
910,42.0,0.0,60.0,3.0,64.0
911,82.0,3.0,40.0,4.0,64.0
912,82.0,1.0,60.0,0.0,64.0
913,78.0,44.0,60.0,2.0,64.0
914,73.0,6.0,40.0,1.0,64.0
915,80.0,63.0,60.0,0.0,64.0
916,82.0,21.0,150.0,0.0,64.0
917,66.0,5.0,60.0,3.0,64.0
918,82.0,2.0,60.0,4.0,64.0
919,73.0,31.0,60.0,2.0,64.0
920,78.0,5.0,60.0,1.0,64.0
921,61.0,58.0,40.0,3.0,64.0
922,58.0,27.0,90.0,3.0,64.0
923,66.0,2.0,60.0,2.0,64.0
924,73.0,8.0,60.0,1.0,64.0
925,82.0,5.0,40.0,4.0,64.0
926,80.0,71.0,40.0,0.0,64.0
927,73.0,1.0,60.0,2.0,64.0
928,61.0,1.0,40.0,3.0,64.0
929,78.0,10.0,40.0,1.0,64.0
930,82.0,16.0,150.0,0.0,64.0
931,82.0,34.0,60.0,4.0,64.0
932,58.0,62.0,40.0,3.0,64.0
933,54.0,24.0,90.0,3.0,64.0
934,70.0,4.0,60.0,2.0,64.0
935,73.0,19.0,60.0,1.0,64.0
936,90.0,2.0,40.0,4.0,64.0
937,90.0,61.0,40.0,0.0,64.0
938,82.0,47.0,90.0,0.0,64.0
939,73.0,12.0,40.0,2.0,64.0
940,58.0,4.0,60.0,3.0,64.0
941,82.0,20.0,60.0,4.0,64.0
942,78.0,11.0,60.0,1.0,64.0
943,54.0,2.0,40.0,3.0,64.0
944,80.0,3.0,40.0,1.0,64.0
945,83.0,4.0,40.0,0.0,64.0
946,73.0,8.0,150.0,2.0,64.0
947,61.0,1.0,60.0,3.0,64.0
948,59.0,18.0,15.0,3.0,64.0
949,83.0,17.0,30.0,4.0,64.0
950,78.0,4.0,30.0,1.0,64.0
951,82.0,9.0,30.0,0.0,64.0
952,82.0,13.0,30.0,4.0,64.0
953,80.0,16.0,40.0,1.0,64.0
954,83.0,12.0,40.0,0.0,64.0
955,83.0,9.0,30.0,4.0,64.0
956,78.0,15.0,60.0,1.0,64.0
957,82.0,14.0,40.0,0.0,64.0
958,82.0,1.0,40.0,4.0,64.0
959,56.0,26.0,40.0,3.0,64.0
960,80.0,3.0,90.0,0.0,64.0
961,77.0,8.0,40.0,1.0,64.0
962,80.0,17.0,60.0,4.0,64.0
963,53.0,83.0,40.0,3.0,64.0
964,50.0,6.0,60.0,3.0,64.0
965,80.0,1.0,60.0,0.0,64.0
966,70.0,4.0,60.0,1.0,64.0
967,80.0,37.0,60.0,4.0,64.0
968,77.0,0.0,60.0,2.0,64.0
969,78.0,64.0,40.0,0.0,64.0
970,80.0,19.0,150.0,0.0,64.0
971,68.0,7.0,40.0,3.0,64.0
972,77.0,7.0,60.0,1.0,64.0
973,74.0,6.0,40.0,2.0,64.0
974,80.0,30.0,60.0,4.0,64.0
975,65.0,57.0,40.0,3.0,64.0
976,77.0,0.0,60.0,2.0,64.0
977,62.0,24.0,90.0,3.0,64.0
978,70.0,11.0,60.0,1.0,64.0
979,80.0,10.0,60.0,4.0,64.0
980,78.0,69.0,40.0,0.0,64.0
981,74.0,5.0,60.0,2.0,64.0
982,77.0,2.0,60.0,1.0,64.0
983,80.0,18.0,150.0,0.0,64.0
984,65.0,15.0,60.0,3.0,64.0
985,80.0,25.0,60.0,4.0,64.0
986,62.0,54.0,40.0,3.0,64.0
987,77.0,2.0,60.0,2.0,64.0
988,58.0,17.0,90.0,3.0,64.0
989,74.0,25.0,60.0,1.0,64.0
990,89.0,4.0,40.0,4.0,64.0
991,89.0,69.0,40.0,0.0,64.0
992,62.0,1.0,60.0,3.0,64.0
993,80.0,5.0,90.0,0.0,64.0
994,80.0,5.0,60.0,4.0,64.0
995,70.0,15.0,40.0,2.0,64.0
996,77.0,18.0,60.0,1.0,64.0
997,58.0,52.0,40.0,3.0,64.0
998,82.0,7.0,30.0,4.0,64.0
999,78.0,19.0,40.0,1.0,64.0
1000,82.0,1.0,30.0,0.0,64.0
1001,63.0,30.0,60.0,3.0,64.0
1002,70.0,66.0,210.0,2.0,64.0
1003,80.0,1.0,30.0,0.0,64.0
1004,80.0,7.0,30.0,4.0,64.0
1005,77.0,2.0,30.0,1.0,64.0
1006,78.0,1.0,40.0,1.0,64.0
1007,82.0,2.0,40.0,0.0,64.0
1008,82.0,24.0,40.0,4.0,64.0
1009,80.0,2.0,40.0,0.0,64.0
1010,80.0,6.0,40.0,4.0,64.0
1011,77.0,56.0,40.0,1.0,64.0
1012,78.0,18.0,120.0,0.0,64.0
1013,75.0,29.0,60.0,1.0,64.0
1014,78.0,2.0,60.0,4.0,64.0
1015,58.0,2.0,60.0,3.0,64.0
1016,87.0,5.0,60.0,4.0,64.0
1017,54.0,91.0,60.0,3.0,64.0
1018,90.0,30.0,40.0,4.0,64.0
1019,51.0,21.0,60.0,3.0,64.0
1020,87.0,151.0,30.0,4.0,64.0
1021,85.0,53.0,120.0,4.0,64.0
1022,56.0,8.0,210.0,3.0,64.0
1023,83.0,25.0,150.0,4.0,64.0
1024,83.0,0.0,60.0,0.0,64.0
1025,75.0,36.0,60.0,2.0,64.0
1026,80.0,10.0,40.0,1.0,64.0
1027,71.0,1.0,40.0,2.0,64.0
1028,75.0,47.0,60.0,1.0,64.0
1029,80.0,4.0,40.0,0.0,64.0
1030,71.0,14.0,60.0,1.0,64.0
1031,68.0,2.0,90.0,2.0,64.0
1032,75.0,100.0,90.0,0.0,64.0
1033,56.0,1.0,60.0,3.0,64.0
1034,87.0,13.0,60.0,4.0,64.0
1035,44.0,16.0,60.0,3.0,64.0
1036,85.0,8.0,60.0,4.0,64.0
1037,83.0,34.0,30.0,4.0,64.0
1038,82.0,120.0,40.0,4.0,64.0
1039,56.0,51.0,120.0,3.0,64.0
1040,80.0,24.0,270.0,4.0,64.0
1041,75.0,1.0,60.0,1.0,64.0
1042,71.0,47.0,60.0,2.0,64.0
1043,80.0,5.0,40.0,0.0,64.0
1044,56.0,4.0,90.0,3.0,64.0
1045,71.0,3.0,40.0,1.0,64.0
1046,68.0,2.0,60.0,2.0,64.0
1047,75.0,44.0,40.0,0.0,64.0
1048,68.0,3.0,90.0,1.0,64.0
1049,63.0,21.0,60.0,2.0,64.0
1050,71.0,77.0,90.0,0.0,64.0
1051,56.0,11.0,40.0,3.0,64.0
1052,83.0,20.0,60.0,4.0,64.0
1053,44.0,13.0,60.0,3.0,64.0
1054,82.0,3.0,40.0,4.0,64.0
1055,80.0,36.0,40.0,4.0,64.0
1056,78.0,44.0,40.0,4.0,64.0
1057,56.0,42.0,120.0,3.0,64.0
1058,76.0,58.0,40.0,4.0,64.0
1059,80.0,11.0,40.0,4.0,64.0
1060,83.0,7.0,40.0,4.0,64.0
1061,76.0,16.0,60.0,0.0,64.0
1062,68.0,1.0,40.0,1.0,64.0
1063,59.0,16.0,60.0,2.0,64.0
1064,56.0,53.0,90.0,3.0,64.0
1065,80.0,31.0,30.0,4.0,64.0
1066,76.0,10.0,60.0,4.0,64.0
1067,80.0,1.0,60.0,0.0,64.0
1068,71.0,2.0,40.0,1.0,64.0
1069,64.0,17.0,60.0,2.0,64.0
1070,56.0,74.0,60.0,3.0,64.0
1071,75.0,6.0,30.0,4.0,64.0
1072,76.0,5.0,60.0,4.0,64.0
1073,76.0,7.0,40.0,1.0,64.0
1074,83.0,6.0,40.0,0.0,64.0
1075,68.0,9.0,60.0,2.0,64.0
1076,44.0,12.0,60.0,3.0,64.0
1077,75.0,90.0,30.0,4.0,64.0
1078,75.0,24.0,120.0,1.0,64.0
1079,83.0,42.0,120.0,0.0,64.0
1080,74.0,50.0,40.0,4.0,64.0
1081,65.0,8.0,90.0,2.0,64.0
1082,56.0,1.0,90.0,3.0,64.0
1083,74.0,1.0,90.0,1.0,64.0
1084,70.0,7.0,60.0,4.0,64.0
1085,82.0,37.0,60.0,0.0,64.0
1086,68.0,4.0,40.0,3.0,64.0
1087,65.0,95.0,40.0,3.0,64.0
1088,71.0,58.0,120.0,4.0,64.0
1089,77.0,9.0,60.0,1.0,64.0
1090,62.0,2.0,90.0,3.0,64.0
1091,80.0,10.0,90.0,0.0,64.0
1092,65.0,16.0,90.0,2.0,64.0
1093,65.0,35.0,60.0,3.0,64.0
1094,70.0,14.0,40.0,4.0,64.0
1095,62.0,94.0,40.0,3.0,64.0
1096,75.0,11.0,90.0,4.0,64.0
1097,58.0,6.0,60.0,3.0,64.0
1098,75.0,3.0,60.0,1.0,64.0
1099,78.0,7.0,60.0,0.0,64.0
1100,66.0,61.0,90.0,2.0,64.0
1101,74.0,31.0,40.0,4.0,64.0
1102,58.0,22.0,60.0,3.0,64.0
1103,77.0,95.0,40.0,4.0,64.0
1104,77.0,5.0,90.0,0.0,64.0
1105,80.0,65.0,90.0,4.0,64.0
1106,74.0,13.0,60.0,1.0,64.0
1107,58.0,2.0,60.0,3.0,64.0
1108,70.0,5.0,90.0,2.0,64.0
1109,78.0,34.0,40.0,4.0,64.0
1110,58.0,16.0,60.0,3.0,64.0
1111,77.0,103.0,40.0,4.0,64.0
1112,75.0,6.0,120.0,1.0,64.0
1113,78.0,10.0,90.0,4.0,64.0
1114,75.0,12.0,60.0,0.0,64.0
1115,63.0,7.0,90.0,3.0,64.0
1116,70.0,62.0,90.0,2.0,64.0
1117,75.0,2.0,60.0,4.0,64.0
1118,66.0,15.0,40.0,3.0,64.0
1119,70.0,5.0,60.0,0.0,64.0
1120,77.0,20.0,40.0,4.0,64.0
1121,78.0,1.0,40.0,4.0,64.0
1122,63.0,12.0,40.0,3.0,64.0
1123,75.0,20.0,40.0,0.0,64.0
1124,80.0,36.0,60.0,4.0,64.0
1125,82.0,28.0,60.0,4.0,64.0
1126,58.0,17.0,90.0,3.0,64.0
1127,78.0,15.0,40.0,0.0,64.0
1128,75.0,61.0,40.0,0.0,64.0
1129,78.0,8.0,40.0,4.0,64.0
1130,78.0,4.0,40.0,0.0,64.0
1131,63.0,3.0,60.0,3.0,64.0
1132,70.0,2.0,60.0,2.0,64.0
1133,75.0,35.0,60.0,1.0,64.0
1134,82.0,7.0,40.0,4.0,64.0
1135,75.0,7.0,60.0,2.0,64.0
1136,58.0,0.0,40.0,3.0,64.0
1137,82.0,3.0,40.0,0.0,64.0
1138,78.0,55.0,60.0,1.0,64.0
1139,87.0,6.0,40.0,4.0,64.0
1140,82.0,9.0,60.0,1.0,64.0
1141,87.0,9.0,60.0,0.0,64.0
1142,54.0,78.0,90.0,3.0,64.0
1143,78.0,7.0,60.0,2.0,64.0
1144,51.0,6.0,60.0,3.0,64.0
1145,66.0,6.0,60.0,2.0,64.0
1146,82.0,0.0,40.0,0.0,64.0
1147,82.0,12.0,40.0,4.0,64.0
1148,75.0,29.0,60.0,1.0,64.0
1149,54.0,76.0,40.0,3.0,64.0
1150,58.0,2.0,60.0,3.0,64.0
1151,65.0,50.0,60.0,2.0,64.0
1152,75.0,4.0,40.0,1.0,64.0
1153,80.0,6.0,40.0,4.0,64.0
1154,80.0,0.0,40.0,0.0,64.0
1155,78.0,8.0,60.0,4.0,64.0
1156,78.0,40.0,60.0,0.0,64.0
1157,77.0,8.0,40.0,4.0,64.0
1158,77.0,7.0,40.0,0.0,64.0
1159,74.0,6.0,60.0,1.0,64.0
1160,70.0,5.0,40.0,2.0,64.0
1161,46.0,21.0,60.0,3.0,64.0
1162,78.0,157.0,40.0,0.0,64.0
1163,78.0,6.0,30.0,4.0,64.0
1164,77.0,7.0,120.0,0.0,64.0
1165,77.0,24.0,120.0,4.0,64.0
1166,70.0,57.0,180.0,1.0,64.0
1167,66.0,16.0,240.0,2.0,64.0
1168,51.0,42.0,240.0,3.0,64.0
1169,75.0,21.0,60.0,0.0,64.0
1170,75.0,18.0,40.0,4.0,64.0
1171,73.0,1.0,90.0,2.0,64.0
1172,82.0,6.0,60.0,0.0,64.0
1173,82.0,64.0,90.0,4.0,64.0
1174,77.0,23.0,60.0,1.0,64.0
1175,46.0,8.0,60.0,3.0,64.0
1176,85.0,19.0,40.0,4.0,64.0
1177,46.0,26.0,60.0,3.0,64.0
1178,82.0,81.0,30.0,4.0,64.0
1179,70.0,41.0,90.0,2.0,64.0
1180,77.0,3.0,60.0,0.0,64.0
1181,73.0,2.0,60.0,1.0,64.0
1182,49.0,17.0,60.0,3.0,64.0
1183,77.0,47.0,120.0,4.0,64.0
1184,46.0,59.0,60.0,3.0,64.0
1185,82.0,2.0,40.0,4.0,64.0
1186,77.0,64.0,40.0,4.0,64.0
1187,73.0,30.0,90.0,0.0,64.0
1188,53.0,27.0,60.0,3.0,64.0
1189,70.0,3.0,90.0,1.0,64.0
1190,65.0,4.0,60.0,2.0,64.0
1191,73.0,51.0,90.0,4.0,64.0
1192,49.0,52.0,60.0,3.0,64.0
1193,77.0,7.0,30.0,4.0,64.0
1194,73.0,98.0,40.0,4.0,64.0
1195,61.0,8.0,90.0,2.0,64.0
1196,70.0,3.0,90.0,0.0,64.0
1197,65.0,8.0,90.0,1.0,64.0
1198,58.0,30.0,90.0,3.0,64.0
1199,70.0,35.0,120.0,4.0,64.0
1200,61.0,44.0,40.0,3.0,64.0
1201,58.0,117.0,40.0,3.0,64.0
1202,70.0,4.0,90.0,1.0,64.0
1203,55.0,39.0,90.0,3.0,64.0
1204,58.0,0.0,90.0,2.0,64.0
1205,76.0,41.0,120.0,4.0,64.0
1206,73.0,0.0,90.0,0.0,64.0
1207,75.0,19.0,90.0,4.0,64.0
1208,58.0,22.0,60.0,3.0,64.0
1209,55.0,119.0,40.0,3.0,64.0
1210,51.0,9.0,120.0,3.0,64.0
1211,68.0,2.0,90.0,1.0,64.0
1212,80.0,60.0,120.0,4.0,64.0
1213,71.0,5.0,90.0,0.0,64.0
1214,59.0,3.0,90.0,2.0,64.0
1215,51.0,101.0,90.0,3.0,64.0
1216,79.0,43.0,40.0,4.0,64.0
1217,82.0,4.0,40.0,4.0,64.0
1218,51.0,2.0,90.0,3.0,64.0
1219,85.0,7.0,90.0,4.0,64.0
1220,63.0,5.0,90.0,2.0,64.0
1221,67.0,2.0,90.0,1.0,64.0
1222,70.0,55.0,90.0,0.0,64.0
1223,51.0,17.0,90.0,3.0,64.0
1224,83.0,38.0,40.0,4.0,64.0
1225,82.0,76.0,40.0,4.0,64.0
1226,56.0,19.0,90.0,3.0,64.0
1227,68.0,1.0,90.0,0.0,64.0
1228,83.0,33.0,40.0,4.0,64.0
1229,68.0,66.0,90.0,1.0,64.0
1230,63.0,1.0,90.0,2.0,64.0
1231,63.0,3.0,60.0,3.0,64.0
1232,80.0,43.0,40.0,4.0,64.0
1233,59.0,112.0,40.0,3.0,64.0
1234,56.0,10.0,90.0,3.0,64.0
1235,83.0,19.0,90.0,0.0,64.0
1236,83.0,51.0,120.0,4.0,64.0
1237,75.0,1.0,90.0,2.0,64.0
1238,80.0,1.0,90.0,1.0,64.0
1239,59.0,35.0,60.0,3.0,64.0
1240,87.0,3.0,40.0,4.0,64.0
1241,56.0,10.0,40.0,3.0,64.0
1242,83.0,101.0,30.0,4.0,64.0
1243,53.0,14.0,60.0,3.0,64.0
1244,83.0,3.0,90.0,0.0,64.0
1245,80.0,64.0,90.0,4.0,64.0
1246,80.0,7.0,90.0,1.0,64.0
1247,73.0,3.0,90.0,2.0,64.0
1248,49.0,20.0,60.0,3.0,64.0
1249,83.0,31.0,40.0,4.0,64.0
1250,80.0,90.0,30.0,4.0,64.0
1251,80.0,5.0,90.0,0.0,64.0
1252,77.0,61.0,90.0,4.0,64.0
1253,73.0,8.0,90.0,2.0,64.0
1254,56.0,22.0,60.0,3.0,64.0
1255,77.0,7.0,90.0,1.0,64.0
1256,53.0,35.0,60.0,3.0,64.0
1257,80.0,13.0,40.0,4.0,64.0
1258,77.0,102.0,40.0,4.0,64.0
1259,68.0,2.0,90.0,2.0,64.0
1260,59.0,22.0,60.0,3.0,64.0
1261,73.0,57.0,240.0,4.0,64.0
1262,77.0,12.0,90.0,0.0,64.0
1263,73.0,89.0,90.0,1.0,64.0
1264,56.0,45.0,90.0,3.0,64.0
1265,58.0,29.0,60.0,3.0,64.0
1266,78.0,6.0,60.0,0.0,64.0
1267,73.0,2.0,60.0,1.0,64.0
1268,73.0,2.0,60.0,2.0,64.0
1269,78.0,45.0,40.0,4.0,64.0
1270,82.0,31.0,30.0,4.0,64.0
1271,82.0,2.0,60.0,0.0,64.0
1272,78.0,3.0,60.0,1.0,64.0
1273,70.0,0.0,60.0,2.0,64.0
1274,63.0,30.0,60.0,3.0,64.0
1275,78.0,78.0,40.0,4.0,64.0
1276,75.0,6.0,60.0,2.0,64.0
1277,80.0,4.0,60.0,4.0,64.0
1278,80.0,6.0,60.0,0.0,64.0
1279,59.0,29.0,60.0,3.0,64.0
1280,78.0,2.0,60.0,1.0,64.0
1281,78.0,75.0,40.0,4.0,64.0
1282,71.0,5.0,60.0,2.0,64.0
1283,56.0,10.0,60.0,3.0,64.0
1284,80.0,1.0,60.0,0.0,64.0
1285,80.0,1.0,60.0,4.0,64.0
1286,78.0,37.0,60.0,1.0,64.0
1287,78.0,63.0,60.0,4.0,64.0
1288,61.0,4.0,60.0,3.0,64.0
1289,73.0,1.0,60.0,2.0,64.0
1290,80.0,51.0,60.0,0.0,64.0
1291,77.0,8.0,40.0,4.0,64.0
1292,77.0,0.0,60.0,1.0,64.0
1293,80.0,51.0,60.0,4.0,64.0
1294,73.0,8.0,60.0,2.0,64.0
1295,83.0,1.0,60.0,0.0,64.0
1296,83.0,8.0,40.0,4.0,64.0
1297,49.0,33.0,60.0,3.0,64.0
1298,77.0,7.0,60.0,1.0,64.0
1299,80.0,56.0,40.0,4.0,64.0
1300,82.0,22.0,40.0,4.0,64.0
1301,54.0,4.0,60.0,3.0,64.0
1302,61.0,0.0,60.0,2.0,64.0
1303,78.0,6.0,60.0,1.0,64.0
1304,82.0,26.0,60.0,0.0,64.0
1305,80.0,66.0,40.0,4.0,64.0
1306,73.0,6.0,60.0,2.0,64.0
1307,82.0,11.0,40.0,4.0,64.0
1308,70.0,1.0,60.0,1.0,64.0
1309,78.0,8.0,60.0,0.0,64.0
1310,42.0,26.0,60.0,3.0,64.0
1311,77.0,59.0,60.0,0.0,64.0
1312,80.0,7.0,40.0,4.0,64.0
1313,78.0,12.0,40.0,4.0,64.0
1314,70.0,86.0,90.0,2.0,64.0
1315,78.0,13.0,60.0,0.0,64.0
1316,52.0,17.0,60.0,3.0,64.0
1317,73.0,3.0,90.0,1.0,64.0
1318,82.0,4.0,30.0,4.0,64.0
1319,78.0,1.0,60.0,4.0,64.0
1320,58.0,57.0,60.0,3.0,64.0
1321,73.0,5.0,60.0,0.0,64.0
1322,77.0,29.0,60.0,4.0,64.0
1323,78.0,25.0,30.0,4.0,64.0
1324,66.0,6.0,90.0,2.0,64.0
1325,78.0,22.0,60.0,0.0,64.0
1326,51.0,6.0,60.0,3.0,64.0
1327,71.0,29.0,90.0,1.0,64.0
1328,83.0,61.0,60.0,4.0,64.0
1329,78.0,55.0,60.0,4.0,64.0
1330,71.0,2.0,60.0,0.0,64.0
1331,59.0,5.0,60.0,3.0,64.0
1332,77.0,30.0,60.0,4.0,64.0
1333,70.0,1.0,90.0,2.0,64.0
1334,78.0,19.0,30.0,4.0,64.0
1335,78.0,17.0,60.0,0.0,64.0
1336,49.0,17.0,60.0,3.0,64.0
1337,70.0,19.0,90.0,1.0,64.0
1338,85.0,68.0,40.0,4.0,64.0
1339,61.0,7.0,60.0,3.0,64.0
1340,78.0,58.0,60.0,4.0,64.0
1341,70.0,2.0,60.0,0.0,64.0
1342,77.0,31.0,60.0,4.0,64.0
1343,78.0,19.0,30.0,4.0,64.0
1344,47.0,29.0,60.0,3.0,64.0
1345,78.0,9.0,60.0,0.0,64.0
1346,71.0,10.0,90.0,2.0,64.0
1347,68.0,6.0,90.0,1.0,64.0
1348,87.0,70.0,40.0,4.0,64.0
1349,63.0,65.0,60.0,3.0,64.0
1350,68.0,3.0,60.0,0.0,64.0
1351,78.0,1.0,60.0,4.0,64.0
1352,77.0,36.0,60.0,4.0,64.0
1353,59.0,6.0,60.0,3.0,64.0
1354,78.0,8.0,60.0,0.0,64.0
1355,68.0,2.0,60.0,2.0,64.0
1356,75.0,42.0,60.0,1.0,64.0
1357,78.0,8.0,40.0,4.0,64.0
1358,87.0,70.0,40.0,4.0,64.0
1359,56.0,1.0,60.0,3.0,64.0
1360,71.0,3.0,60.0,2.0,64.0
1361,77.0,2.0,60.0,0.0,64.0
1362,80.0,37.0,60.0,1.0,64.0
1363,85.0,2.0,60.0,4.0,64.0
1364,83.0,75.0,30.0,4.0,64.0
1365,70.0,4.0,60.0,2.0,64.0
1366,78.0,7.0,60.0,0.0,64.0
1367,73.0,40.0,60.0,1.0,64.0
1368,58.0,0.0,60.0,3.0,64.0
1369,85.0,3.0,40.0,4.0,64.0
1370,82.0,59.0,40.0,4.0,64.0
1371,75.0,5.0,60.0,2.0,64.0
1372,59.0,35.0,60.0,3.0,64.0
1373,80.0,1.0,60.0,0.0,64.0
1374,71.0,2.0,60.0,1.0,64.0
1375,80.0,12.0,40.0,4.0,64.0
1376,78.0,68.0,40.0,4.0,64.0
1377,73.0,3.0,60.0,2.0,64.0
1378,61.0,2.0,60.0,3.0,64.0
1379,73.0,7.0,60.0,0.0,64.0
1380,70.0,10.0,60.0,1.0,64.0
1381,82.0,74.0,60.0,4.0,64.0
1382,71.0,34.0,60.0,2.0,64.0
1383,82.0,19.0,30.0,4.0,64.0
1384,49.0,1.0,60.0,3.0,64.0
1385,77.0,0.0,40.0,0.0,64.0
1386,73.0,9.0,40.0,1.0,64.0
1387,80.0,4.0,30.0,4.0,64.0
1388,82.0,25.0,40.0,4.0,64.0
1389,80.0,68.0,40.0,4.0,64.0
1390,78.0,10.0,150.0,4.0,64.0
1391,54.0,63.0,60.0,3.0,64.0
1392,78.0,17.0,120.0,0.0,64.0
1393,70.0,22.0,150.0,2.0,64.0
1394,73.0,1.0,150.0,1.0,64.0
1395,49.0,34.0,60.0,3.0,64.0
1396,46.0,82.0,40.0,3.0,64.0
1397,42.0,0.0,60.0,3.0,64.0
1398,82.0,3.0,40.0,4.0,64.0
1399,82.0,1.0,60.0,0.0,64.0
1400,78.0,44.0,60.0,2.0,64.0
1401,73.0,6.0,40.0,1.0,64.0
1402,80.0,63.0,60.0,0.0,64.0
1403,82.0,21.0,150.0,0.0,64.0
1404,66.0,5.0,60.0,3.0,64.0
1405,82.0,2.0,60.0,4.0,64.0
1406,73.0,31.0,60.0,2.0,64.0
1407,78.0,5.0,60.0,1.0,64.0
1408,61.0,58.0,40.0,3.0,64.0
1409,58.0,27.0,90.0,3.0,64.0
1410,66.0,2.0,60.0,2.0,64.0
1411,73.0,8.0,60.0,1.0,64.0
1412,82.0,5.0,40.0,4.0,64.0
1413,80.0,71.0,40.0,0.0,64.0
1414,73.0,1.0,60.0,2.0,64.0
1415,61.0,1.0,40.0,3.0,64.0
1416,78.0,10.0,40.0,1.0,64.0
1417,82.0,16.0,150.0,0.0,64.0
1418,82.0,34.0,60.0,4.0,64.0
1419,58.0,62.0,40.0,3.0,64.0
1420,54.0,24.0,90.0,3.0,64.0
1421,70.0,4.0,60.0,2.0,64.0
1422,73.0,19.0,60.0,1.0,64.0
1423,90.0,2.0,40.0,4.0,64.0
1424,90.0,61.0,40.0,0.0,64.0
1425,82.0,47.0,90.0,0.0,64.0
1426,73.0,12.0,40.0,2.0,64.0
1427,58.0,4.0,60.0,3.0,64.0
1428,82.0,20.0,60.0,4.0,64.0
1429,78.0,11.0,60.0,1.0,64.0
1430,54.0,2.0,40.0,3.0,64.0
1431,80.0,3.0,40.0,1.0,64.0
1432,73.0,8.0,150.0,2.0,64.0
1433,83.0,4.0,40.0,0.0,64.0
1434,61.0,1.0,60.0,3.0,64.0
1435,59.0,18.0,15.0,3.0,64.0
1436,83.0,17.0,30.0,4.0,64.0
1437,78.0,4.0,30.0,1.0,64.0
1438,82.0,9.0,30.0,0.0,64.0
1439,82.0,13.0,30.0,4.0,64.0
1440,80.0,16.0,40.0,1.0,64.0
1441,83.0,12.0,40.0,0.0,64.0
1442,83.0,9.0,30.0,4.0,64.0
1443,78.0,15.0,60.0,1.0,64.0
1444,82.0,14.0,40.0,0.0,64.0
1445,82.0,1.0,40.0,4.0,64.0
1446,56.0,26.0,40.0,3.0,64.0
1447,80.0,3.0,90.0,0.0,64.0
1448,77.0,8.0,40.0,1.0,64.0
1449,80.0,17.0,60.0,4.0,64.0
1450,53.0,83.0,40.0,3.0,64.0
1451,50.0,6.0,60.0,3.0,64.0
1452,80.0,1.0,60.0,0.0,64.0
1453,70.0,4.0,60.0,1.0,64.0
1454,80.0,37.0,60.0,4.0,64.0
1455,77.0,0.0,60.0,2.0,64.0
1456,78.0,64.0,40.0,0.0,64.0
1457,80.0,19.0,150.0,0.0,64.0
1458,68.0,7.0,40.0,3.0,64.0
1459,77.0,7.0,60.0,1.0,64.0
1460,74.0,6.0,40.0,2.0,64.0
1461,80.0,30.0,60.0,4.0,64.0
1462,65.0,57.0,40.0,3.0,64.0
1463,62.0,24.0,90.0,3.0,64.0
1464,77.0,11.0,60.0,2.0,64.0
1465,70.0,0.0,60.0,1.0,64.0
1466,80.0,10.0,60.0,4.0,64.0
1467,78.0,69.0,40.0,0.0,64.0
1468,74.0,5.0,60.0,2.0,64.0
1469,77.0,2.0,60.0,1.0,64.0
1470,80.0,18.0,150.0,0.0,64.0
1471,65.0,15.0,60.0,3.0,64.0
1472,80.0,25.0,60.0,4.0,64.0
1473,62.0,54.0,40.0,3.0,64.0
1474,77.0,2.0,60.0,2.0,64.0
1475,58.0,17.0,90.0,3.0,64.0
1476,74.0,25.0,60.0,1.0,64.0
1477,89.0,4.0,40.0,4.0,64.0
1478,89.0,69.0,40.0,0.0,64.0
1479,62.0,1.0,60.0,3.0,64.0
1480,80.0,5.0,90.0,0.0,64.0
1481,80.0,5.0,60.0,4.0,64.0
1482,70.0,15.0,40.0,2.0,64.0
1483,77.0,18.0,60.0,1.0,64.0
1484,58.0,52.0,40.0,3.0,64.0
1485,82.0,7.0,30.0,4.0,64.0
1486,78.0,19.0,40.0,1.0,64.0
1487,82.0,1.0,30.0,0.0,64.0
1488,63.0,30.0,60.0,3.0,64.0
1489,70.0,66.0,210.0,2.0,64.0
1490,80.0,1.0,30.0,0.0,64.0
1491,80.0,7.0,30.0,4.0,64.0
1492,77.0,2.0,30.0,1.0,64.0
1493,78.0,1.0,40.0,1.0,64.0
1494,82.0,2.0,40.0,0.0,64.0
1495,82.0,24.0,40.0,4.0,64.0
1496,80.0,2.0,40.0,0.0,64.0
1497,80.0,6.0,40.0,4.0,64.0
1498,77.0,56.0,40.0,1.0,64.0
1499,78.0,18.0,120.0,0.0,64.0
1500,75.0,29.0,60.0,1.0,64.0
1501,78.0,2.0,60.0,4.0,64.0
1502,58.0,2.0,60.0,3.0,64.0
1503,87.0,5.0,60.0,4.0,64.0
1504,54.0,91.0,60.0,3.0,64.0
1505,90.0,30.0,40.0,4.0,64.0
1506,51.0,21.0,60.0,3.0,64.0
1507,87.0,151.0,30.0,4.0,64.0
1508,85.0,53.0,120.0,4.0,64.0
1509,56.0,8.0,210.0,3.0,64.0
1510,83.0,25.0,150.0,4.0,64.0
1511,83.0,0.0,60.0,0.0,64.0
1512,75.0,36.0,60.0,2.0,64.0
1513,80.0,10.0,40.0,1.0,64.0
1514,75.0,47.0,60.0,1.0,64.0
1515,71.0,1.0,40.0,2.0,64.0
1516,80.0,4.0,40.0,0.0,64.0
1517,71.0,14.0,60.0,1.0,64.0
1518,68.0,2.0,90.0,2.0,64.0
1519,75.0,100.0,90.0,0.0,64.0
1520,56.0,1.0,60.0,3.0,64.0
1521,87.0,13.0,60.0,4.0,64.0
1522,44.0,16.0,60.0,3.0,64.0
1523,85.0,8.0,60.0,4.0,64.0
1524,83.0,34.0,30.0,4.0,64.0
1525,82.0,120.0,40.0,4.0,64.0
1526,56.0,51.0,120.0,3.0,64.0
1527,80.0,24.0,270.0,4.0,64.0
1528,75.0,1.0,60.0,1.0,64.0
1529,71.0,47.0,60.0,2.0,64.0
1530,80.0,5.0,40.0,0.0,64.0
1531,56.0,4.0,90.0,3.0,64.0
1532,71.0,3.0,40.0,1.0,64.0
1533,68.0,2.0,60.0,2.0,64.0
1534,75.0,44.0,40.0,0.0,64.0
1535,68.0,3.0,90.0,1.0,64.0
1536,63.0,21.0,60.0,2.0,64.0
1537,71.0,77.0,90.0,0.0,64.0
1538,56.0,11.0,40.0,3.0,64.0
1539,83.0,20.0,60.0,4.0,64.0
1540,44.0,13.0,60.0,3.0,64.0
1541,82.0,3.0,40.0,4.0,64.0
1542,80.0,36.0,40.0,4.0,64.0
1543,78.0,44.0,40.0,4.0,64.0
1544,56.0,42.0,120.0,3.0,64.0
1545,76.0,58.0,40.0,4.0,64.0
1546,80.0,11.0,40.0,4.0,64.0
1547,83.0,7.0,40.0,4.0,64.0
1548,76.0,16.0,60.0,0.0,64.0
1549,68.0,1.0,40.0,1.0,64.0
1550,59.0,16.0,60.0,2.0,64.0
1551,56.0,53.0,90.0,3.0,64.0
1552,80.0,31.0,30.0,4.0,64.0
1553,76.0,10.0,60.0,4.0,64.0
1554,80.0,1.0,60.0,0.0,64.0
1555,71.0,2.0,40.0,1.0,64.0
1556,64.0,17.0,60.0,2.0,64.0
1557,56.0,74.0,60.0,3.0,64.0
1558,75.0,6.0,30.0,4.0,64.0
1559,76.0,5.0,60.0,4.0,64.0
1560,76.0,7.0,40.0,1.0,64.0
1561,83.0,6.0,40.0,0.0,64.0
1562,68.0,9.0,60.0,2.0,64.0
1563,44.0,12.0,60.0,3.0,64.0
1564,75.0,90.0,30.0,4.0,64.0
1565,75.0,24.0,120.0,1.0,64.0
1566,83.0,42.0,120.0,0.0,64.0
1567,74.0,50.0,40.0,4.0,64.0
1568,65.0,8.0,90.0,2.0,64.0
1569,56.0,1.0,90.0,3.0,64.0
1570,74.0,1.0,90.0,1.0,64.0
1571,70.0,7.0,60.0,4.0,64.0
1572,82.0,37.0,60.0,0.0,64.0
1573,68.0,4.0,40.0,3.0,64.0
1574,65.0,95.0,40.0,3.0,64.0
1575,71.0,58.0,120.0,4.0,64.0
1576,77.0,9.0,60.0,1.0,64.0
1577,62.0,2.0,90.0,3.0,64.0
1578,80.0,10.0,90.0,0.0,64.0
1579,65.0,16.0,90.0,2.0,64.0
1580,65.0,35.0,60.0,3.0,64.0
1581,70.0,14.0,40.0,4.0,64.0
1582,62.0,94.0,40.0,3.0,64.0
1583,75.0,11.0,90.0,4.0,64.0
1584,58.0,6.0,60.0,3.0,64.0
1585,75.0,3.0,60.0,1.0,64.0
1586,78.0,7.0,60.0,0.0,64.0
1587,66.0,61.0,90.0,2.0,64.0
1588,74.0,31.0,40.0,4.0,64.0
1589,58.0,22.0,60.0,3.0,64.0
1590,77.0,95.0,40.0,4.0,64.0
1591,77.0,5.0,90.0,0.0,64.0
1592,80.0,65.0,90.0,4.0,64.0
1593,74.0,13.0,60.0,1.0,64.0
1594,58.0,2.0,60.0,3.0,64.0
1595,70.0,5.0,90.0,2.0,64.0
1596,78.0,34.0,40.0,4.0,64.0
1597,58.0,16.0,60.0,3.0,64.0
1598,77.0,103.0,40.0,4.0,64.0
1599,75.0,6.0,120.0,1.0,64.0
1600,78.0,10.0,90.0,4.0,64.0
1601,75.0,12.0,60.0,0.0,64.0
1602,63.0,7.0,90.0,3.0,64.0
1603,70.0,62.0,90.0,2.0,64.0
1604,75.0,2.0,60.0,4.0,64.0
1605,66.0,15.0,40.0,3.0,64.0
1606,70.0,5.0,60.0,0.0,64.0
1607,77.0,20.0,40.0,4.0,64.0
1608,78.0,1.0,40.0,4.0,64.0
1609,63.0,12.0,40.0,3.0,64.0
1610,75.0,20.0,40.0,0.0,64.0
1611,80.0,36.0,60.0,4.0,64.0
1612,82.0,28.0,60.0,4.0,64.0
1613,58.0,17.0,90.0,3.0,64.0
1614,78.0,15.0,40.0,0.0,64.0
1615,75.0,61.0,40.0,0.0,64.0
1616,78.0,8.0,40.0,4.0,64.0
1617,78.0,4.0,40.0,0.0,64.0
1618,63.0,3.0,60.0,3.0,64.0
1619,70.0,2.0,60.0,2.0,64.0
1620,75.0,35.0,60.0,1.0,64.0
1621,82.0,7.0,40.0,4.0,64.0
1622,75.0,7.0,60.0,2.0,64.0
1623,58.0,0.0,40.0,3.0,64.0
1624,82.0,3.0,40.0,0.0,64.0
1625,78.0,55.0,60.0,1.0,64.0
1626,82.0,9.0,60.0,1.0,64.0
1627,87.0,6.0,40.0,4.0,64.0
1628,87.0,9.0,60.0,0.0,64.0
1629,54.0,78.0,90.0,3.0,64.0
1630,78.0,7.0,60.0,2.0,64.0
1631,51.0,0.0,60.0,3.0,64.0
1632,66.0,6.0,60.0,2.0,64.0
1633,82.0,6.0,40.0,0.0,64.0
1634,82.0,12.0,40.0,4.0,64.0
1635,75.0,29.0,60.0,1.0,64.0
1636,54.0,76.0,40.0,3.0,64.0
1637,58.0,2.0,60.0,3.0,64.0
1638,65.0,50.0,60.0,2.0,64.0
1639,75.0,4.0,40.0,1.0,64.0
1640,80.0,6.0,40.0,4.0,64.0
1641,80.0,0.0,40.0,0.0,64.0
1642,78.0,8.0,60.0,4.0,64.0
1643,78.0,40.0,60.0,0.0,64.0
1644,77.0,7.0,40.0,0.0,64.0
1645,77.0,8.0,40.0,4.0,64.0
1646,74.0,6.0,60.0,1.0,64.0
1647,70.0,5.0,40.0,2.0,64.0
1648,46.0,21.0,60.0,3.0,64.0
1649,78.0,157.0,40.0,0.0,64.0
1650,78.0,6.0,30.0,4.0,64.0
1651,77.0,7.0,120.0,0.0,64.0
1652,77.0,59.0,120.0,4.0,64.0
1653,70.0,57.0,180.0,1.0,64.0
1654,66.0,7.0,240.0,2.0,64.0
1655,51.0,0.0,240.0,3.0,64.0
1656,75.0,9.0,150.0,0.0,64.0
1657,75.0,4.0,60.0,4.0,64.0
