,note,step,duration,channel,velocity
0,72.0,60.0,120.0,0.0,0.0
1,74.0,60.0,60.0,0.0,0.0
2,72.0,60.0,60.0,0.0,0.0
3,70.0,60.0,60.0,0.0,0.0
4,72.0,120.0,60.0,0.0,0.0
5,81.0,120.0,120.0,0.0,0.0
6,77.0,120.0,120.0,0.0,0.0
7,72.0,60.0,120.0,0.0,0.0
8,70.0,60.0,60.0,0.0,0.0
9,69.0,120.0,60.0,0.0,0.0
10,70.0,120.0,120.0,0.0,0.0
11,79.0,120.0,120.0,0.0,0.0
12,69.0,120.0,120.0,0.0,0.0
13,77.0,120.0,120.0,0.0,0.0
14,67.0,120.0,120.0,0.0,0.0
15,76.0,120.0,120.0,0.0,0.0
16,65.0,60.0,120.0,0.0,0.0
17,77.0,60.0,60.0,0.0,0.0
18,76.0,60.0,60.0,0.0,0.0
19,77.0,60.0,60.0,0.0,0.0
20,79.0,60.0,60.0,0.0,0.0
21,65.0,60.0,120.0,1.0,0.0
22,81.0,60.0,60.0,0.0,0.0
23,82.0,0.0,60.0,0.0,0.0
24,84.0,60.0,60.0,0.0,0.0
25,69.0,0.0,60.0,1.0,0.0
26,67.0,60.0,60.0,1.0,0.0
27,83.0,0.0,60.0,0.0,0.0
28,81.0,0.0,60.0,0.0,0.0
29,65.0,60.0,60.0,1.0,0.0
30,83.0,0.0,60.0,0.0,0.0
31,67.0,60.0,60.0,1.0,0.0
32,76.0,60.0,120.0,1.0,0.0
33,84.0,60.0,60.0,0.0,0.0
34,82.0,0.0,60.0,0.0,0.0
35,81.0,60.0,60.0,0.0,0.0
36,72.0,120.0,120.0,1.0,0.0
37,79.0,0.0,60.0,0.0,0.0
38,67.0,60.0,120.0,1.0,0.0
39,81.0,60.0,300.0,0.0,0.0
40,65.0,60.0,60.0,1.0,0.0
41,64.0,60.0,60.0,1.0,0.0
42,65.0,0.0,120.0,1.0,0.0
43,79.0,60.0,60.0,0.0,0.0
44,74.0,0.0,120.0,1.0,0.0
45,77.0,60.0,60.0,0.0,0.0
46,81.0,60.0,60.0,0.0,0.0
47,79.0,60.0,60.0,0.0,0.0
48,64.0,0.0,120.0,1.0,0.0
49,77.0,60.0,60.0,0.0,0.0
50,76.0,60.0,60.0,0.0,0.0
51,72.0,0.0,120.0,1.0,0.0
52,79.0,60.0,60.0,0.0,0.0
53,77.0,60.0,60.0,0.0,0.0
54,62.0,60.0,120.0,1.0,0.0
55,76.0,0.0,60.0,0.0,0.0
56,77.0,60.0,60.0,0.0,0.0
57,71.0,30.0,120.0,1.0,0.0
58,74.0,0.0,15.0,0.0,0.0
59,60.0,30.0,120.0,1.0,0.0
60,76.0,30.0,120.0,0.0,0.0
61,72.0,60.0,60.0,1.0,0.0
62,79.0,0.0,120.0,0.0,0.0
63,71.0,60.0,60.0,1.0,0.0
64,72.0,60.0,60.0,1.0,0.0
65,82.0,0.0,480.0,0.0,0.0
66,74.0,60.0,60.0,1.0,0.0
67,60.0,0.0,120.0,2.0,0.0
68,76.0,60.0,60.0,1.0,0.0
69,72.0,60.0,60.0,1.0,0.0
70,62.0,60.0,60.0,2.0,0.0
71,77.0,0.0,60.0,1.0,0.0
72,76.0,0.0,60.0,1.0,0.0
73,60.0,60.0,60.0,2.0,0.0
74,58.0,0.0,60.0,2.0,0.0
75,74.0,60.0,60.0,1.0,0.0
76,76.0,0.0,60.0,1.0,0.0
77,60.0,60.0,60.0,2.0,0.0
78,81.0,0.0,480.0,0.0,0.0
79,77.0,60.0,60.0,1.0,0.0
80,69.0,0.0,120.0,2.0,0.0
81,76.0,60.0,60.0,1.0,0.0
82,65.0,0.0,120.0,2.0,0.0
83,74.0,60.0,60.0,1.0,0.0
84,72.0,120.0,60.0,1.0,0.0
85,60.0,60.0,120.0,2.0,0.0
86,74.0,60.0,300.0,1.0,0.0
87,58.0,60.0,60.0,2.0,0.0
88,57.0,60.0,60.0,2.0,0.0
89,58.0,60.0,120.0,2.0,0.0
90,79.0,60.0,360.0,0.0,0.0
91,72.0,0.0,60.0,1.0,0.0
92,67.0,60.0,120.0,2.0,0.0
93,70.0,60.0,60.0,1.0,0.0
94,74.0,0.0,60.0,1.0,0.0
95,57.0,0.0,120.0,2.0,0.0
96,72.0,60.0,60.0,1.0,0.0
97,70.0,0.0,60.0,1.0,0.0
98,77.0,0.0,120.0,0.0,0.0
99,69.0,60.0,60.0,1.0,0.0
100,65.0,60.0,120.0,2.0,0.0
101,72.0,0.0,60.0,1.0,0.0
102,76.0,60.0,120.0,0.0,0.0
103,55.0,0.0,120.0,2.0,0.0
104,70.0,60.0,60.0,1.0,0.0
105,69.0,0.0,60.0,1.0,0.0
106,64.0,120.0,120.0,2.0,0.0
107,70.0,60.0,60.0,1.0,0.0
108,79.0,53.0,240.0,0.0,0.0
109,67.0,0.0,60.0,1.0,0.0
110,69.0,60.0,240.0,1.0,0.0
111,53.0,7.0,120.0,2.0,0.0
112,65.0,60.0,60.0,2.0,0.0
113,72.0,0.0,120.0,0.0,0.0
114,64.0,0.0,60.0,2.0,0.0
115,81.0,10.0,360.0,0.0,0.0
116,65.0,60.0,60.0,2.0,0.0
117,67.0,60.0,60.0,2.0,0.0
118,69.0,60.0,60.0,2.0,0.0
119,72.0,54.0,120.0,1.0,0.0
120,65.0,6.0,60.0,2.0,0.0
121,62.0,50.0,60.0,2.0,0.0
122,77.0,55.0,300.0,1.0,0.0
123,64.0,60.0,60.0,2.0,0.0
124,81.0,0.0,60.0,0.0,0.0
125,65.0,60.0,60.0,2.0,0.0
126,62.0,60.0,60.0,2.0,0.0
127,77.0,0.0,60.0,0.0,0.0
128,74.0,10.0,360.0,0.0,0.0
129,59.0,5.0,60.0,2.0,0.0
130,60.0,60.0,60.0,2.0,0.0
131,77.0,0.0,60.0,1.0,0.0
132,62.0,60.0,60.0,2.0,0.0
133,74.0,110.0,60.0,1.0,0.0
134,59.0,0.0,60.0,2.0,0.0
135,67.0,0.0,240.0,1.0,0.0
136,52.0,60.0,120.0,2.0,0.0
137,64.0,60.0,60.0,2.0,0.0
138,74.0,60.0,120.0,0.0,0.0
139,62.0,0.0,60.0,2.0,0.0
140,79.0,20.0,330.0,0.0,0.0
141,64.0,60.0,60.0,2.0,0.0
142,65.0,60.0,60.0,2.0,0.0
143,71.0,60.0,120.0,1.0,0.0
144,67.0,60.0,60.0,2.0,0.0
145,64.0,0.0,60.0,2.0,0.0
146,76.0,10.0,360.0,1.0,0.0
147,60.0,40.0,60.0,2.0,0.0
148,62.0,60.0,60.0,2.0,0.0
149,64.0,60.0,60.0,2.0,0.0
150,79.0,0.0,60.0,0.0,0.0
151,76.0,0.0,60.0,0.0,0.0
152,60.0,60.0,60.0,2.0,0.0
153,57.0,50.0,60.0,2.0,0.0
154,72.0,10.0,360.0,0.0,0.0
155,59.0,60.0,60.0,2.0,0.0
156,60.0,60.0,60.0,2.0,0.0
157,76.0,0.0,60.0,1.0,0.0
158,72.0,0.0,60.0,1.0,0.0
159,57.0,110.0,60.0,2.0,0.0
160,65.0,0.0,360.0,1.0,0.0
161,50.0,60.0,120.0,2.0,0.0
162,72.0,0.0,120.0,0.0,0.0
163,62.0,60.0,60.0,2.0,0.0
164,60.0,60.0,60.0,2.0,0.0
165,77.0,60.0,300.0,0.0,0.0
166,62.0,60.0,60.0,2.0,0.0
167,64.0,60.0,60.0,2.0,0.0
168,65.0,60.0,60.0,2.0,0.0
169,69.0,60.0,120.0,1.0,0.0
170,62.0,0.0,60.0,2.0,0.0
171,74.0,60.0,300.0,1.0,0.0
172,59.0,0.0,60.0,2.0,0.0
173,76.0,60.0,60.0,0.0,0.0
174,60.0,0.0,60.0,2.0,0.0
175,62.0,60.0,60.0,2.0,0.0
176,77.0,0.0,60.0,0.0,0.0
177,74.0,0.0,60.0,0.0,0.0
178,59.0,60.0,60.0,2.0,0.0
179,86.0,60.0,300.0,0.0,0.0
180,55.0,0.0,60.0,2.0,0.0
181,57.0,0.0,60.0,2.0,0.0
182,77.0,60.0,60.0,1.0,0.0
183,59.0,0.0,60.0,2.0,0.0
184,79.0,60.0,60.0,1.0,0.0
185,74.0,60.0,60.0,1.0,0.0
186,55.0,0.0,60.0,2.0,0.0
187,48.0,0.0,120.0,2.0,0.0
188,76.0,0.0,240.0,1.0,0.0
189,84.0,60.0,60.0,0.0,0.0
190,60.0,0.0,60.0,2.0,0.0
191,83.0,60.0,60.0,0.0,0.0
192,62.0,0.0,60.0,2.0,0.0
193,86.0,60.0,60.0,0.0,0.0
194,64.0,60.0,120.0,2.0,0.0
195,84.0,60.0,60.0,0.0,0.0
196,79.0,0.0,60.0,0.0,0.0
197,72.0,60.0,180.0,1.0,0.0
198,81.0,60.0,60.0,0.0,0.0
199,60.0,60.0,120.0,2.0,0.0
200,82.0,0.0,60.0,0.0,0.0
201,81.0,0.0,60.0,0.0,0.0
202,65.0,60.0,240.0,2.0,0.0
203,79.0,60.0,60.0,0.0,0.0
204,71.0,0.0,60.0,1.0,0.0
205,69.0,0.0,60.0,1.0,0.0
206,77.0,60.0,60.0,0.0,0.0
207,79.0,0.0,60.0,0.0,0.0
208,71.0,0.0,60.0,1.0,0.0
209,72.0,60.0,60.0,1.0,0.0
210,88.0,60.0,120.0,0.0,0.0
211,64.0,120.0,240.0,2.0,0.0
212,70.0,0.0,60.0,1.0,0.0
213,84.0,0.0,120.0,0.0,0.0
214,69.0,60.0,60.0,1.0,0.0
215,67.0,0.0,60.0,1.0,0.0
216,62.0,60.0,120.0,2.0,0.0
217,69.0,60.0,300.0,1.0,0.0
218,79.0,0.0,120.0,0.0,0.0
219,60.0,0.0,120.0,2.0,0.0
220,77.0,60.0,60.0,0.0,0.0
221,76.0,60.0,60.0,0.0,0.0
222,77.0,0.0,120.0,0.0,0.0
223,59.0,60.0,240.0,2.0,0.0
224,67.0,60.0,60.0,1.0,0.0
225,86.0,0.0,120.0,0.0,0.0
226,65.0,60.0,60.0,1.0,0.0
227,69.0,0.0,60.0,1.0,0.0
228,76.0,60.0,120.0,0.0,0.0
229,67.0,60.0,60.0,1.0,0.0
230,60.0,0.0,240.0,2.0,0.0
231,65.0,0.0,60.0,1.0,0.0
232,84.0,60.0,120.0,0.0,0.0
233,64.0,60.0,60.0,1.0,0.0
234,67.0,0.0,60.0,1.0,0.0
235,55.0,0.0,240.0,2.0,0.0
236,74.0,0.0,120.0,0.0,0.0
237,65.0,60.0,60.0,1.0,0.0
238,64.0,60.0,60.0,1.0,0.0
239,83.0,0.0,120.0,0.0,0.0
240,65.0,60.0,60.0,1.0,0.0
241,62.0,60.0,60.0,1.0,0.0
242,60.0,0.0,240.0,2.0,0.0
243,64.0,0.0,120.0,1.0,0.0
244,72.0,60.0,60.0,0.0,0.0
245,74.0,60.0,60.0,0.0,0.0
246,67.0,60.0,120.0,1.0,0.0
247,76.0,60.0,60.0,0.0,0.0
248,77.0,0.0,60.0,0.0,0.0
249,76.0,60.0,60.0,0.0,0.0
250,72.0,60.0,120.0,1.0,0.0
251,74.0,0.0,60.0,0.0,0.0
252,67.0,0.0,60.0,2.0,0.0
253,72.0,60.0,60.0,0.0,0.0
254,64.0,60.0,60.0,2.0,0.0
255,76.0,0.0,60.0,0.0,0.0
256,60.0,0.0,240.0,2.0,0.0
257,81.0,60.0,60.0,0.0,0.0
258,79.0,60.0,60.0,0.0,0.0
259,78.0,0.0,60.0,0.0,0.0
260,63.0,60.0,60.0,1.0,0.0
261,81.0,0.0,60.0,0.0,0.0
262,60.0,60.0,60.0,1.0,0.0
263,57.0,6.0,240.0,1.0,0.0
264,84.0,60.0,60.0,0.0,0.0
265,82.0,60.0,60.0,0.0,0.0
266,60.0,54.0,60.0,2.0,0.0
267,81.0,0.0,60.0,0.0,0.0
268,84.0,0.0,60.0,0.0,0.0
269,57.0,22.0,60.0,2.0,0.0
270,87.0,20.0,20.0,0.0,0.0
271,54.0,60.0,240.0,2.0,0.0
272,86.0,78.0,20.0,0.0,0.0
273,87.0,60.0,90.0,0.0,0.0
274,86.0,60.0,60.0,0.0,0.0
275,57.0,0.0,60.0,1.0,0.0
276,60.0,0.0,60.0,1.0,0.0
277,84.0,0.0,60.0,0.0,0.0
278,63.0,60.0,240.0,1.0,0.0
279,82.0,60.0,60.0,0.0,0.0
280,81.0,60.0,60.0,0.0,0.0
281,57.0,0.0,120.0,2.0,0.0
282,79.0,60.0,60.0,0.0,0.0
283,78.0,0.0,60.0,0.0,0.0
284,62.0,0.0,120.0,1.0,0.0
285,58.0,60.0,120.0,2.0,0.0
286,79.0,60.0,60.0,0.0,0.0
287,82.0,0.0,60.0,0.0,0.0
288,81.0,60.0,60.0,0.0,0.0
289,63.0,60.0,120.0,1.0,0.0
290,60.0,0.0,120.0,2.0,0.0
291,79.0,0.0,60.0,0.0,0.0
292,78.0,60.0,60.0,0.0,0.0
293,62.0,0.0,120.0,2.0,0.0
294,62.0,60.0,120.0,1.0,0.0
295,81.0,0.0,60.0,0.0,0.0
296,74.0,60.0,60.0,0.0,0.0
297,50.0,60.0,120.0,2.0,0.0
298,54.0,0.0,120.0,1.0,0.0
299,72.0,0.0,60.0,0.0,0.0
300,55.0,60.0,240.0,1.0,0.0
301,70.0,60.0,60.0,0.0,0.0
302,43.0,0.0,240.0,2.0,0.0
303,69.0,60.0,60.0,0.0,0.0
304,67.0,60.0,60.0,0.0,0.0
305,66.0,0.0,60.0,0.0,0.0
306,67.0,60.0,60.0,0.0,0.0
307,69.0,60.0,60.0,0.0,0.0
308,55.0,60.0,120.0,2.0,0.0
309,70.0,60.0,60.0,0.0,0.0
310,72.0,0.0,60.0,0.0,0.0
311,74.0,60.0,60.0,0.0,0.0
312,58.0,0.0,60.0,2.0,0.0
313,57.0,0.0,60.0,2.0,0.0
314,72.0,60.0,60.0,0.0,0.0
315,55.0,0.0,60.0,2.0,0.0
316,70.0,60.0,60.0,0.0,0.0
317,57.0,0.0,60.0,2.0,0.0
318,72.0,60.0,60.0,0.0,0.0
319,74.0,60.0,60.0,0.0,0.0
320,65.0,0.0,120.0,2.0,0.0
321,72.0,60.0,60.0,0.0,0.0
322,62.0,0.0,120.0,2.0,0.0
323,70.0,60.0,60.0,0.0,0.0
324,69.0,120.0,60.0,0.0,0.0
325,70.0,60.0,300.0,0.0,0.0
326,57.0,60.0,120.0,2.0,0.0
327,55.0,60.0,60.0,2.0,0.0
328,53.0,60.0,60.0,2.0,0.0
329,55.0,0.0,120.0,2.0,0.0
330,69.0,60.0,60.0,0.0,0.0
331,64.0,60.0,120.0,2.0,0.0
332,67.0,60.0,60.0,0.0,0.0
333,70.0,0.0,60.0,0.0,0.0
334,69.0,60.0,60.0,0.0,0.0
335,53.0,60.0,120.0,2.0,0.0
336,67.0,0.0,60.0,0.0,0.0
337,65.0,60.0,60.0,0.0,0.0
338,62.0,0.0,120.0,2.0,0.0
339,69.0,60.0,60.0,0.0,0.0
340,52.0,60.0,120.0,2.0,0.0
341,67.0,60.0,60.0,0.0,0.0
342,65.0,0.0,60.0,0.0,0.0
343,67.0,60.0,60.0,0.0,0.0
344,61.0,0.0,120.0,2.0,0.0
345,64.0,60.0,60.0,0.0,0.0
346,50.0,60.0,120.0,2.0,0.0
347,65.0,60.0,60.0,0.0,0.0
348,69.0,0.0,60.0,0.0,0.0
349,62.0,60.0,60.0,2.0,0.0
350,70.0,0.0,60.0,0.0,0.0
351,61.0,0.0,60.0,2.0,0.0
352,69.0,60.0,60.0,0.0,0.0
353,62.0,60.0,60.0,2.0,0.0
354,77.0,60.0,300.0,0.0,0.0
355,64.0,60.0,60.0,2.0,0.0
356,69.0,60.0,120.0,1.0,0.0
357,65.0,60.0,60.0,2.0,0.0
358,62.0,0.0,60.0,2.0,0.0
359,59.0,0.0,60.0,2.0,0.0
360,74.0,60.0,300.0,1.0,0.0
361,60.0,60.0,60.0,2.0,0.0
362,76.0,0.0,60.0,0.0,0.0
363,77.0,0.0,60.0,0.0,0.0
364,62.0,60.0,60.0,2.0,0.0
365,74.0,60.0,60.0,0.0,0.0
366,59.0,0.0,60.0,2.0,0.0
367,86.0,60.0,300.0,0.0,0.0
368,55.0,0.0,60.0,2.0,0.0
369,57.0,0.0,60.0,2.0,0.0
370,77.0,60.0,60.0,1.0,0.0
371,59.0,0.0,60.0,2.0,0.0
372,79.0,60.0,60.0,1.0,0.0
373,55.0,60.0,60.0,2.0,0.0
374,74.0,0.0,60.0,1.0,0.0
375,48.0,0.0,120.0,2.0,0.0
376,76.0,60.0,120.0,1.0,0.0
377,67.0,0.0,60.0,0.0,0.0
378,60.0,60.0,60.0,2.0,0.0
379,69.0,0.0,60.0,0.0,0.0
380,67.0,0.0,60.0,0.0,0.0
381,59.0,60.0,60.0,2.0,0.0
382,60.0,60.0,60.0,2.0,0.0
383,76.0,60.0,300.0,0.0,0.0
384,62.0,60.0,60.0,2.0,0.0
385,67.0,0.0,120.0,1.0,0.0
386,64.0,60.0,60.0,2.0,0.0
387,60.0,60.0,60.0,2.0,0.0
388,72.0,60.0,300.0,1.0,0.0
389,57.0,0.0,60.0,2.0,0.0
390,74.0,60.0,60.0,0.0,0.0
391,59.0,0.0,60.0,2.0,0.0
392,60.0,60.0,60.0,2.0,0.0
393,76.0,0.0,60.0,0.0,0.0
394,72.0,0.0,60.0,0.0,0.0
395,57.0,60.0,60.0,2.0,0.0
396,53.0,0.0,60.0,2.0,0.0
397,84.0,60.0,300.0,0.0,0.0
398,55.0,0.0,60.0,2.0,0.0
399,76.0,60.0,60.0,1.0,0.0
400,77.0,0.0,60.0,1.0,0.0
401,57.0,60.0,60.0,2.0,0.0
402,72.0,60.0,60.0,1.0,0.0
403,53.0,0.0,60.0,2.0,0.0
404,47.0,0.0,120.0,2.0,0.0
405,74.0,0.0,120.0,1.0,0.0
406,65.0,60.0,60.0,0.0,0.0
407,59.0,60.0,60.0,2.0,0.0
408,67.0,0.0,60.0,0.0,0.0
409,57.0,60.0,60.0,2.0,0.0
410,65.0,0.0,60.0,0.0,0.0
411,74.0,0.0,300.0,0.0,0.0
412,59.0,60.0,60.0,2.0,0.0
413,60.0,60.0,60.0,2.0,0.0
414,65.0,60.0,120.0,1.0,0.0
415,62.0,60.0,60.0,2.0,0.0
416,59.0,0.0,60.0,2.0,0.0
417,71.0,60.0,300.0,1.0,0.0
418,56.0,60.0,60.0,2.0,0.0
419,57.0,0.0,60.0,2.0,0.0
420,72.0,60.0,60.0,0.0,0.0
421,59.0,0.0,60.0,2.0,0.0
422,74.0,60.0,60.0,0.0,0.0
423,56.0,0.0,60.0,2.0,0.0
424,71.0,60.0,60.0,0.0,0.0
425,52.0,0.0,60.0,2.0,0.0
426,83.0,60.0,300.0,0.0,0.0
427,74.0,60.0,60.0,1.0,0.0
428,54.0,0.0,60.0,2.0,0.0
429,77.0,0.0,60.0,1.0,0.0
430,56.0,60.0,60.0,2.0,0.0
431,52.0,60.0,60.0,2.0,0.0
432,71.0,0.0,60.0,1.0,0.0
433,45.0,0.0,60.0,2.0,0.0
434,72.0,60.0,240.0,1.0,0.0
435,80.0,0.0,60.0,0.0,0.0
436,47.0,60.0,60.0,2.0,0.0
437,48.0,0.0,60.0,2.0,0.0
438,81.0,60.0,60.0,0.0,0.0
439,77.0,0.0,60.0,0.0,0.0
440,50.0,0.0,60.0,2.0,0.0
441,52.0,60.0,60.0,2.0,0.0
442,74.0,0.0,480.0,0.0,0.0
443,54.0,60.0,60.0,2.0,0.0
444,64.0,60.0,120.0,1.0,0.0
445,56.0,60.0,60.0,2.0,0.0
446,52.0,0.0,60.0,2.0,0.0
447,57.0,0.0,60.0,2.0,0.0
448,65.0,60.0,60.0,1.0,0.0
449,64.0,60.0,60.0,1.0,0.0
450,55.0,0.0,60.0,2.0,0.0
451,53.0,0.0,60.0,2.0,0.0
452,62.0,60.0,60.0,1.0,0.0
453,55.0,0.0,60.0,2.0,0.0
454,64.0,60.0,60.0,1.0,0.0
455,57.0,60.0,60.0,2.0,0.0
456,72.0,60.0,480.0,0.0,0.0
457,55.0,60.0,60.0,2.0,0.0
458,69.0,120.0,120.0,1.0,0.0
459,53.0,60.0,60.0,2.0,0.0
460,52.0,0.0,60.0,2.0,0.0
461,53.0,60.0,300.0,2.0,0.0
462,64.0,60.0,120.0,1.0,0.0
463,62.0,60.0,60.0,1.0,0.0
464,60.0,0.0,60.0,1.0,0.0
465,62.0,60.0,120.0,1.0,0.0
466,71.0,0.0,360.0,0.0,0.0
467,52.0,0.0,60.0,2.0,0.0
468,50.0,60.0,60.0,2.0,0.0
469,71.0,60.0,120.0,1.0,0.0
470,53.0,0.0,60.0,2.0,0.0
471,52.0,60.0,60.0,2.0,0.0
472,60.0,0.0,120.0,1.0,0.0
473,50.0,60.0,60.0,2.0,0.0
474,48.0,60.0,60.0,2.0,0.0
475,69.0,60.0,120.0,0.0,0.0
476,52.0,0.0,60.0,2.0,0.0
477,59.0,0.0,120.0,1.0,0.0
478,68.0,0.0,120.0,0.0,0.0
479,50.0,60.0,60.0,2.0,0.0
480,48.0,60.0,60.0,2.0,0.0
481,68.0,0.0,120.0,1.0,0.0
482,71.0,0.0,120.0,0.0,0.0
483,50.0,60.0,60.0,2.0,0.0
484,47.0,60.0,60.0,2.0,0.0
485,57.0,0.0,240.0,1.0,0.0
486,76.0,60.0,60.0,0.0,0.0
487,48.0,0.0,120.0,2.0,0.0
488,74.0,60.0,60.0,0.0,0.0
489,53.0,0.0,120.0,2.0,0.0
490,72.0,60.0,60.0,0.0,0.0
491,76.0,60.0,60.0,0.0,0.0
492,74.0,60.0,60.0,0.0,0.0
493,47.0,60.0,120.0,2.0,0.0
494,72.0,0.0,60.0,0.0,0.0
495,71.0,60.0,60.0,0.0,0.0
496,52.0,60.0,120.0,2.0,0.0
497,56.0,0.0,120.0,1.0,0.0
498,74.0,0.0,60.0,0.0,0.0
499,72.0,60.0,60.0,0.0,0.0
500,45.0,0.0,120.0,2.0,0.0
501,57.0,60.0,120.0,1.0,0.0
502,69.0,0.0,60.0,0.0,0.0
503,56.0,0.0,120.0,1.0,0.0
504,50.0,60.0,120.0,2.0,0.0
505,77.0,60.0,60.0,0.0,0.0
506,74.0,0.0,60.0,0.0,0.0
507,76.0,60.0,60.0,0.0,0.0
508,57.0,60.0,120.0,1.0,0.0
509,48.0,0.0,120.0,2.0,0.0
510,72.0,0.0,60.0,0.0,0.0
511,53.0,60.0,120.0,2.0,0.0
512,82.0,55.0,60.0,0.0,0.0
513,62.0,0.0,120.0,1.0,0.0
514,80.0,5.0,60.0,0.0,0.0
515,80.0,60.0,60.0,0.0,0.0
516,52.0,0.0,480.0,2.0,0.0
517,60.0,60.0,120.0,1.0,0.0
518,81.0,0.0,60.0,0.0,0.0
519,87.0,60.0,60.0,0.0,0.0
520,59.0,0.0,60.0,1.0,0.0
521,57.0,22.0,60.0,1.0,0.0
522,88.0,0.0,60.0,0.0,0.0
523,59.0,12.0,120.0,1.0,0.0
524,80.0,22.0,20.0,0.0,0.0
525,81.0,22.0,20.0,0.0,0.0
526,80.0,22.0,20.0,0.0,0.0
527,81.0,22.0,20.0,0.0,0.0
528,80.0,10.0,20.0,0.0,0.0
529,81.0,45.0,20.0,0.0,0.0
530,62.0,60.0,120.0,1.0,0.0
531,80.0,53.0,40.0,0.0,0.0
532,81.0,10.0,60.0,0.0,0.0
533,57.0,60.0,240.0,2.0,0.0
534,81.0,3.0,240.0,0.0,0.0
535,60.0,60.0,60.0,1.0,0.0
536,62.0,60.0,60.0,1.0,0.0
537,64.0,57.0,60.0,1.0,0.0
538,60.0,0.0,60.0,1.0,0.0
539,57.0,60.0,60.0,1.0,0.0
540,58.0,60.0,60.0,1.0,0.0
541,60.0,60.0,60.0,1.0,0.0
542,81.0,60.0,120.0,0.0,0.0
543,57.0,0.0,60.0,1.0,0.0
544,75.0,60.0,60.0,0.0,0.0
545,54.0,0.0,60.0,1.0,0.0
546,55.0,0.0,60.0,1.0,0.0
547,74.0,60.0,60.0,0.0,0.0
548,72.0,60.0,60.0,0.0,0.0
549,57.0,0.0,60.0,1.0,0.0
550,74.0,0.0,60.0,0.0,0.0
551,54.0,60.0,60.0,1.0,0.0
552,81.0,60.0,120.0,0.0,0.0
553,50.0,60.0,60.0,1.0,0.0
554,54.0,0.0,60.0,1.0,0.0
555,57.0,60.0,60.0,1.0,0.0
556,78.0,60.0,120.0,0.0,0.0
557,62.0,0.0,60.0,1.0,0.0
558,55.0,60.0,60.0,1.0,0.0
559,72.0,0.0,120.0,0.0,0.0
560,58.0,60.0,60.0,1.0,0.0
561,70.0,60.0,60.0,0.0,0.0
562,62.0,0.0,60.0,1.0,0.0
563,66.0,0.0,60.0,1.0,0.0
564,69.0,60.0,60.0,0.0,0.0
565,67.0,60.0,60.0,1.0,0.0
566,70.0,0.0,120.0,0.0,0.0
567,69.0,60.0,60.0,1.0,0.0
568,70.0,60.0,60.0,1.0,0.0
569,79.0,60.0,120.0,0.0,0.0
570,67.0,0.0,60.0,1.0,0.0
571,73.0,60.0,60.0,0.0,0.0
572,64.0,0.0,60.0,1.0,0.0
573,65.0,60.0,60.0,1.0,0.0
574,72.0,0.0,60.0,0.0,0.0
575,70.0,0.0,60.0,0.0,0.0
576,67.0,60.0,60.0,1.0,0.0
577,72.0,0.0,60.0,0.0,0.0
578,64.0,120.0,60.0,1.0,0.0
579,79.0,0.0,120.0,0.0,0.0
580,60.0,70.0,300.0,1.0,0.0
581,48.0,60.0,60.0,2.0,0.0
582,76.0,50.0,120.0,0.0,0.0
583,50.0,60.0,60.0,2.0,0.0
584,52.0,0.0,60.0,2.0,0.0
585,53.0,0.0,300.0,2.0,0.0
586,70.0,60.0,120.0,0.0,0.0
587,60.0,0.0,60.0,1.0,0.0
588,69.0,53.0,60.0,0.0,0.0
589,62.0,7.0,60.0,1.0,0.0
590,64.0,0.0,60.0,1.0,0.0
591,67.0,60.0,60.0,0.0,0.0
592,69.0,60.0,60.0,0.0,0.0
593,65.0,0.0,120.0,1.0,0.0
594,72.0,0.0,60.0,0.0,0.0
595,55.0,60.0,60.0,2.0,0.0
596,57.0,0.0,60.0,2.0,0.0
597,77.0,60.0,60.0,0.0,0.0
598,79.0,60.0,60.0,0.0,0.0
599,59.0,0.0,60.0,2.0,0.0
600,81.0,0.0,60.0,0.0,0.0
601,60.0,60.0,60.0,2.0,0.0
602,79.0,60.0,60.0,0.0,0.0
603,59.0,0.0,60.0,2.0,0.0
604,57.0,0.0,60.0,2.0,0.0
605,77.0,60.0,60.0,0.0,0.0
606,59.0,60.0,60.0,2.0,0.0
607,79.0,0.0,60.0,0.0,0.0
608,76.0,0.0,480.0,1.0,0.0
609,60.0,60.0,60.0,2.0,0.0
610,88.0,60.0,120.0,0.0,0.0
611,59.0,0.0,60.0,2.0,0.0
612,57.0,60.0,60.0,2.0,0.0
613,84.0,0.0,120.0,0.0,0.0
614,55.0,120.0,60.0,2.0,0.0
615,79.0,60.0,120.0,0.0,0.0
616,57.0,60.0,300.0,2.0,0.0
617,77.0,60.0,60.0,0.0,0.0
618,76.0,60.0,60.0,0.0,0.0
619,74.0,0.0,360.0,1.0,0.0
620,77.0,60.0,120.0,0.0,0.0
621,55.0,0.0,60.0,2.0,0.0
622,86.0,0.0,120.0,0.0,0.0
623,53.0,60.0,60.0,2.0,0.0
624,57.0,60.0,60.0,2.0,0.0
625,76.0,0.0,120.0,0.0,0.0
626,55.0,60.0,60.0,2.0,0.0
627,53.0,60.0,60.0,2.0,0.0
628,84.0,60.0,120.0,0.0,0.0
629,72.0,0.0,120.0,1.0,0.0
630,52.0,60.0,60.0,2.0,0.0
631,55.0,0.0,60.0,2.0,0.0
632,71.0,0.0,120.0,1.0,0.0
633,53.0,60.0,60.0,2.0,0.0
634,74.0,60.0,120.0,0.0,0.0
635,52.0,0.0,60.0,2.0,0.0
636,74.0,0.0,120.0,1.0,0.0
637,50.0,60.0,60.0,2.0,0.0
638,83.0,60.0,120.0,0.0,0.0
639,53.0,0.0,60.0,2.0,0.0
640,67.0,60.0,60.0,1.0,0.0
641,52.0,60.0,120.0,2.0,0.0
642,72.0,0.0,60.0,0.0,0.0
643,67.0,0.0,60.0,0.0,0.0
644,69.0,60.0,60.0,0.0,0.0
645,55.0,60.0,120.0,2.0,0.0
646,71.0,0.0,60.0,0.0,0.0
647,72.0,60.0,60.0,0.0,0.0
648,58.0,0.0,480.0,2.0,0.0
649,74.0,60.0,60.0,0.0,0.0
650,60.0,0.0,120.0,1.0,0.0
651,76.0,60.0,60.0,0.0,0.0
652,72.0,60.0,60.0,0.0,0.0
653,62.0,60.0,60.0,1.0,0.0
654,77.0,0.0,60.0,0.0,0.0
655,76.0,60.0,60.0,0.0,0.0
656,60.0,0.0,60.0,1.0,0.0
657,74.0,60.0,60.0,0.0,0.0
658,58.0,0.0,60.0,1.0,0.0
659,76.0,0.0,60.0,0.0,0.0
660,60.0,60.0,60.0,1.0,0.0
661,69.0,0.0,120.0,1.0,0.0
662,77.0,60.0,60.0,0.0,0.0
663,57.0,60.0,480.0,2.0,0.0
664,76.0,60.0,60.0,0.0,0.0
665,65.0,120.0,120.0,1.0,0.0
666,74.0,60.0,60.0,0.0,0.0
667,72.0,0.0,60.0,0.0,0.0
668,74.0,60.0,300.0,0.0,0.0
669,60.0,60.0,120.0,1.0,0.0
670,58.0,60.0,60.0,1.0,0.0
671,57.0,0.0,60.0,1.0,0.0
672,58.0,0.0,120.0,1.0,0.0
673,55.0,0.0,360.0,2.0,0.0
674,72.0,60.0,60.0,0.0,0.0
675,70.0,60.0,60.0,0.0,0.0
676,67.0,60.0,120.0,1.0,0.0
677,74.0,0.0,60.0,0.0,0.0
678,57.0,0.0,120.0,1.0,0.0
679,72.0,60.0,60.0,0.0,0.0
680,70.0,60.0,60.0,0.0,0.0
681,65.0,0.0,120.0,1.0,0.0
682,53.0,0.0,120.0,2.0,0.0
683,69.0,60.0,60.0,0.0,0.0
684,72.0,60.0,60.0,0.0,0.0
685,70.0,60.0,60.0,0.0,0.0
686,55.0,60.0,120.0,2.0,0.0
687,69.0,0.0,60.0,0.0,0.0
688,64.0,60.0,120.0,1.0,0.0
689,48.0,0.0,120.0,2.0,0.0
690,67.0,60.0,60.0,0.0,0.0
691,70.0,0.0,60.0,0.0,0.0
692,53.0,60.0,60.0,2.0,0.0
693,69.0,60.0,120.0,0.0,0.0
694,65.0,0.0,120.0,1.0,0.0
695,55.0,0.0,60.0,2.0,0.0
696,72.0,0.0,120.0,0.0,0.0
697,57.0,60.0,60.0,2.0,0.0
698,58.0,60.0,60.0,2.0,0.0
699,77.0,0.0,240.0,0.0,0.0
700,57.0,60.0,60.0,2.0,0.0
701,55.0,60.0,60.0,2.0,0.0
702,84.0,60.0,60.0,1.0,0.0
703,53.0,0.0,60.0,2.0,0.0
704,57.0,60.0,60.0,2.0,0.0
705,81.0,0.0,60.0,1.0,0.0
706,77.0,60.0,240.0,1.0,0.0
707,62.0,60.0,60.0,2.0,0.0
708,60.0,60.0,60.0,2.0,0.0
709,59.0,0.0,60.0,2.0,0.0
710,80.0,60.0,60.0,0.0,0.0
711,62.0,0.0,60.0,2.0,0.0
712,77.0,0.0,60.0,0.0,0.0
713,65.0,60.0,60.0,2.0,0.0
714,74.0,87.0,270.0,0.0,0.0
715,63.0,60.0,60.0,2.0,0.0
716,62.0,0.0,60.0,2.0,0.0
717,77.0,60.0,60.0,1.0,0.0
718,65.0,0.0,60.0,2.0,0.0
719,74.0,33.0,60.0,1.0,0.0
720,68.0,60.0,120.0,2.0,0.0
721,71.0,0.0,240.0,1.0,0.0
722,67.0,0.0,60.0,2.0,0.0
723,74.0,60.0,60.0,0.0,0.0
724,65.0,60.0,60.0,2.0,0.0
725,77.0,0.0,60.0,0.0,0.0
726,80.0,57.0,240.0,0.0,0.0
727,63.0,60.0,60.0,2.0,0.0
728,62.0,60.0,60.0,2.0,0.0
729,77.0,3.0,120.0,1.0,0.0
730,60.0,60.0,60.0,2.0,0.0
731,59.0,0.0,60.0,2.0,0.0
732,60.0,60.0,60.0,2.0,0.0
733,79.0,0.0,120.0,0.0,0.0
734,75.0,0.0,240.0,1.0,0.0
735,63.0,60.0,60.0,2.0,0.0
736,84.0,60.0,120.0,0.0,0.0
737,62.0,60.0,60.0,2.0,0.0
738,60.0,0.0,60.0,2.0,0.0
739,74.0,0.0,240.0,1.0,0.0
740,77.0,60.0,120.0,0.0,0.0
741,59.0,60.0,60.0,2.0,0.0
742,57.0,0.0,60.0,2.0,0.0
743,55.0,60.0,60.0,2.0,0.0
744,83.0,0.0,120.0,0.0,0.0
745,53.0,60.0,60.0,2.0,0.0
746,72.0,0.0,120.0,0.0,0.0
747,51.0,60.0,60.0,2.0,0.0
748,53.0,60.0,60.0,2.0,0.0
749,84.0,60.0,60.0,0.0,0.0
750,55.0,0.0,60.0,2.0,0.0
751,82.0,0.0,60.0,0.0,0.0
752,51.0,60.0,60.0,2.0,0.0
753,48.0,60.0,120.0,2.0,0.0
754,84.0,60.0,60.0,0.0,0.0
755,86.0,0.0,60.0,0.0,0.0
756,87.0,60.0,60.0,0.0,0.0
757,60.0,0.0,60.0,2.0,0.0
758,57.0,0.0,60.0,2.0,0.0
759,84.0,60.0,60.0,0.0,0.0
760,53.0,60.0,120.0,2.0,0.0
761,81.0,60.0,60.0,0.0,0.0
762,82.0,0.0,60.0,0.0,0.0
763,84.0,60.0,60.0,0.0,0.0
764,63.0,0.0,60.0,1.0,0.0
765,60.0,60.0,60.0,1.0,0.0
766,81.0,0.0,60.0,0.0,0.0
767,77.0,60.0,60.0,0.0,0.0
768,57.0,0.0,120.0,1.0,0.0
769,79.0,60.0,60.0,0.0,0.0
770,53.0,60.0,60.0,2.0,0.0
771,81.0,0.0,60.0,0.0,0.0
772,77.0,60.0,60.0,0.0,0.0
773,50.0,0.0,60.0,2.0,0.0
774,74.0,60.0,60.0,0.0,0.0
775,46.0,0.0,120.0,2.0,0.0
776,76.0,60.0,60.0,0.0,0.0
777,62.0,0.0,60.0,1.0,0.0
778,77.0,60.0,60.0,0.0,0.0
779,58.0,60.0,60.0,1.0,0.0
780,74.0,0.0,60.0,0.0,0.0
781,55.0,60.0,120.0,1.0,0.0
782,82.0,60.0,60.0,0.0,0.0
783,84.0,0.0,60.0,0.0,0.0
784,86.0,0.0,60.0,0.0,0.0
785,58.0,60.0,60.0,2.0,0.0
786,55.0,0.0,60.0,2.0,0.0
787,82.0,60.0,60.0,0.0,0.0
788,52.0,0.0,120.0,2.0,0.0
789,79.0,60.0,60.0,0.0,0.0
790,81.0,60.0,60.0,0.0,0.0
791,62.0,0.0,60.0,1.0,0.0
792,82.0,60.0,60.0,0.0,0.0
793,79.0,0.0,60.0,0.0,0.0
794,58.0,60.0,60.0,1.0,0.0
795,76.0,60.0,60.0,0.0,0.0
796,55.0,0.0,120.0,1.0,0.0
797,77.0,60.0,60.0,0.0,0.0
798,52.0,0.0,60.0,2.0,0.0
799,79.0,60.0,60.0,0.0,0.0
800,48.0,0.0,60.0,2.0,0.0
801,76.0,60.0,60.0,0.0,0.0
802,45.0,0.0,120.0,2.0,0.0
803,72.0,60.0,60.0,0.0,0.0
804,74.0,60.0,60.0,0.0,0.0
805,60.0,0.0,60.0,1.0,0.0
806,76.0,60.0,60.0,0.0,0.0
807,57.0,60.0,60.0,1.0,0.0
808,72.0,0.0,60.0,0.0,0.0
809,81.0,60.0,60.0,0.0,0.0
810,54.0,0.0,120.0,1.0,0.0
811,82.0,60.0,60.0,0.0,0.0
812,84.0,0.0,60.0,0.0,0.0
813,57.0,60.0,60.0,2.0,0.0
814,81.0,0.0,60.0,0.0,0.0
815,54.0,60.0,60.0,2.0,0.0
816,78.0,60.0,60.0,0.0,0.0
817,50.0,60.0,120.0,2.0,0.0
818,79.0,0.0,60.0,0.0,0.0
819,81.0,60.0,60.0,0.0,0.0
820,60.0,0.0,60.0,1.0,0.0
821,57.0,0.0,60.0,1.0,0.0
822,78.0,60.0,60.0,0.0,0.0
823,54.0,60.0,120.0,1.0,0.0
824,74.0,60.0,60.0,0.0,0.0
825,76.0,0.0,60.0,0.0,0.0
826,78.0,0.0,60.0,0.0,0.0
827,50.0,60.0,60.0,2.0,0.0
828,74.0,0.0,60.0,0.0,0.0
829,46.0,60.0,60.0,2.0,0.0
830,70.0,60.0,60.0,0.0,0.0
831,43.0,0.0,120.0,2.0,0.0
832,72.0,60.0,60.0,0.0,0.0
833,58.0,60.0,60.0,1.0,0.0
834,74.0,0.0,60.0,0.0,0.0
835,55.0,0.0,60.0,1.0,0.0
836,70.0,60.0,60.0,0.0,0.0
837,52.0,0.0,120.0,1.0,0.0
838,79.0,60.0,60.0,0.0,0.0
839,81.0,60.0,60.0,0.0,0.0
840,82.0,0.0,60.0,0.0,0.0
841,55.0,60.0,60.0,2.0,0.0
842,79.0,0.0,60.0,0.0,0.0
843,52.0,60.0,60.0,2.0,0.0
844,76.0,60.0,60.0,0.0,0.0
845,48.0,0.0,120.0,2.0,0.0
846,77.0,60.0,60.0,0.0,0.0
847,58.0,0.0,60.0,1.0,0.0
848,79.0,60.0,60.0,0.0,0.0
849,55.0,0.0,60.0,1.0,0.0
850,76.0,60.0,60.0,0.0,0.0
851,72.0,60.0,60.0,0.0,0.0
852,52.0,0.0,120.0,1.0,0.0
853,74.0,60.0,60.0,0.0,0.0
854,48.0,60.0,60.0,2.0,0.0
855,76.0,0.0,60.0,0.0,0.0
856,72.0,0.0,60.0,0.0,0.0
857,45.0,60.0,60.0,2.0,0.0
858,69.0,60.0,60.0,0.0,0.0
859,41.0,60.0,120.0,2.0,0.0
860,70.0,0.0,60.0,0.0,0.0
861,72.0,60.0,60.0,0.0,0.0
862,69.0,60.0,60.0,0.0,0.0
863,65.0,60.0,60.0,0.0,0.0
864,69.0,60.0,60.0,0.0,0.0
865,72.0,60.0,60.0,0.0,0.0
866,74.0,60.0,60.0,0.0,0.0
867,75.0,60.0,60.0,0.0,0.0
868,74.0,60.0,60.0,0.0,0.0
869,63.0,0.0,60.0,2.0,0.0
870,72.0,60.0,60.0,0.0,0.0
871,53.0,60.0,60.0,2.0,0.0
872,74.0,0.0,60.0,0.0,0.0
873,82.0,0.0,120.0,0.0,0.0
874,62.0,60.0,60.0,2.0,0.0
875,53.0,60.0,60.0,2.0,0.0
876,77.0,60.0,120.0,0.0,0.0
877,60.0,60.0,60.0,2.0,0.0
878,53.0,0.0,60.0,2.0,0.0
879,74.0,0.0,120.0,0.0,0.0
880,58.0,60.0,60.0,2.0,0.0
881,53.0,60.0,60.0,2.0,0.0
882,72.0,0.0,60.0,0.0,0.0
883,57.0,60.0,60.0,2.0,0.0
884,70.0,60.0,60.0,0.0,0.0
885,55.0,0.0,60.0,2.0,0.0
886,57.0,0.0,120.0,2.0,0.0
887,72.0,60.0,60.0,0.0,0.0
888,65.0,60.0,60.0,0.0,0.0
889,48.0,60.0,120.0,2.0,0.0
890,69.0,60.0,60.0,0.0,0.0
891,72.0,0.0,60.0,0.0,0.0
892,74.0,60.0,60.0,0.0,0.0
893,72.0,60.0,60.0,0.0,0.0
894,70.0,0.0,60.0,0.0,0.0
895,62.0,60.0,60.0,2.0,0.0
896,72.0,60.0,60.0,0.0,0.0
897,53.0,0.0,60.0,2.0,0.0
898,60.0,60.0,60.0,2.0,0.0
899,81.0,0.0,120.0,0.0,0.0
900,53.0,60.0,60.0,2.0,0.0
901,58.0,60.0,60.0,2.0,0.0
902,77.0,0.0,120.0,0.0,0.0
903,53.0,60.0,60.0,2.0,0.0
904,72.0,60.0,120.0,0.0,0.0
905,57.0,60.0,60.0,2.0,0.0
906,53.0,0.0,60.0,2.0,0.0
907,55.0,60.0,60.0,2.0,0.0
908,70.0,0.0,60.0,0.0,0.0
909,69.0,60.0,60.0,0.0,0.0
910,53.0,0.0,60.0,2.0,0.0
911,70.0,60.0,60.0,0.0,0.0
912,55.0,60.0,120.0,2.0,0.0
913,64.0,0.0,60.0,0.0,0.0
914,67.0,60.0,60.0,0.0,0.0
915,48.0,60.0,120.0,2.0,0.0
916,70.0,0.0,60.0,0.0,0.0
917,72.0,60.0,60.0,0.0,0.0
918,70.0,60.0,60.0,0.0,0.0
919,69.0,0.0,60.0,0.0,0.0
920,60.0,60.0,60.0,2.0,0.0
921,48.0,4.0,60.0,2.0,0.0
922,70.0,56.0,60.0,0.0,0.0
923,58.0,60.0,60.0,2.0,0.0
924,79.0,60.0,120.0,0.0,0.0
925,48.0,0.0,60.0,2.0,0.0
926,57.0,60.0,60.0,2.0,0.0
927,76.0,0.0,120.0,0.0,0.0
928,48.0,60.0,60.0,2.0,0.0
929,70.0,60.0,120.0,0.0,0.0
930,55.0,60.0,60.0,2.0,0.0
931,48.0,0.0,60.0,2.0,0.0
932,53.0,0.0,60.0,2.0,0.0
933,69.0,60.0,60.0,0.0,0.0
934,67.0,60.0,60.0,0.0,0.0
935,52.0,0.0,60.0,2.0,0.0
936,69.0,0.0,60.0,0.0,0.0
937,53.0,60.0,60.0,2.0,0.0
938,72.0,60.0,60.0,0.0,0.0
939,48.0,0.0,60.0,2.0,0.0
940,74.0,0.0,60.0,0.0,0.0
941,57.0,60.0,60.0,2.0,0.0
942,76.0,0.0,60.0,0.0,0.0
943,55.0,60.0,60.0,2.0,0.0
944,77.0,0.0,60.0,0.0,0.0
945,57.0,60.0,60.0,2.0,0.0
946,79.0,0.0,60.0,0.0,0.0
947,48.0,60.0,60.0,2.0,0.0
948,81.0,0.0,60.0,0.0,0.0
949,60.0,60.0,60.0,2.0,0.0
950,58.0,60.0,60.0,2.0,0.0
951,79.0,0.0,60.0,0.0,0.0
952,82.0,60.0,60.0,0.0,0.0
953,60.0,0.0,60.0,2.0,0.0
954,48.0,0.0,60.0,2.0,0.0
955,81.0,60.0,60.0,0.0,0.0
956,79.0,0.0,60.0,0.0,0.0
957,62.0,60.0,60.0,2.0,0.0
958,77.0,22.0,60.0,0.0,0.0
959,48.0,0.0,60.0,2.0,0.0
960,64.0,6.0,60.0,2.0,0.0
961,86.0,22.0,20.0,0.0,0.0
962,84.0,16.0,20.0,0.0,0.0
963,86.0,22.0,20.0,0.0,0.0
964,65.0,12.0,60.0,2.0,0.0
965,84.0,22.0,20.0,0.0,0.0
966,86.0,10.0,20.0,0.0,0.0
967,84.0,22.0,20.0,0.0,0.0
968,67.0,18.0,60.0,2.0,0.0
969,86.0,22.0,20.0,0.0,0.0
970,84.0,4.0,20.0,0.0,0.0
971,86.0,22.0,20.0,0.0,0.0
972,64.0,2.0,60.0,2.0,0.0
973,84.0,20.0,20.0,0.0,0.0
974,86.0,22.0,20.0,0.0,0.0
975,60.0,8.0,60.0,2.0,0.0
976,84.0,22.0,20.0,0.0,0.0
977,86.0,14.0,20.0,0.0,0.0
978,84.0,22.0,20.0,0.0,0.0
979,64.0,14.0,60.0,2.0,0.0
980,86.0,22.0,20.0,0.0,0.0
981,84.0,8.0,20.0,0.0,0.0
982,86.0,22.0,20.0,0.0,0.0
983,67.0,20.0,60.0,2.0,0.0
984,84.0,22.0,20.0,0.0,0.0
985,86.0,2.0,20.0,0.0,0.0
986,84.0,32.0,20.0,0.0,0.0
987,69.0,50.0,60.0,2.0,0.0
988,86.0,8.0,30.0,0.0,0.0
989,84.0,10.0,60.0,0.0,0.0
990,70.0,60.0,60.0,2.0,0.0
991,84.0,0.0,60.0,0.0,0.0
992,69.0,60.0,60.0,2.0,0.0
993,67.0,0.0,60.0,2.0,0.0
994,82.0,60.0,60.0,0.0,0.0
995,69.0,60.0,60.0,2.0,0.0
996,84.0,0.0,60.0,0.0,0.0
997,81.0,60.0,60.0,0.0,0.0
998,77.0,0.0,120.0,2.0,0.0
999,84.0,60.0,60.0,0.0,0.0
1000,79.0,60.0,60.0,0.0,0.0
1001,72.0,0.0,120.0,2.0,0.0
1002,84.0,60.0,60.0,0.0,0.0
1003,69.0,60.0,120.0,2.0,0.0
1004,77.0,60.0,60.0,0.0,0.0
1005,84.0,0.0,60.0,0.0,0.0
1006,76.0,0.0,60.0,0.0,0.0
1007,67.0,60.0,60.0,2.0,0.0
1008,65.0,0.0,60.0,2.0,0.0
1009,74.0,60.0,60.0,0.0,0.0
1010,67.0,0.0,60.0,2.0,0.0
1011,76.0,60.0,60.0,0.0,0.0
1012,60.0,0.0,60.0,2.0,0.0
1013,79.0,60.0,60.0,0.0,0.0
1014,64.0,60.0,60.0,2.0,0.0
1015,81.0,0.0,60.0,0.0,0.0
1016,67.0,60.0,60.0,2.0,0.0
1017,82.0,0.0,60.0,0.0,0.0
1018,84.0,0.0,60.0,0.0,0.0
1019,69.0,60.0,60.0,2.0,0.0
1020,82.0,60.0,60.0,0.0,0.0
1021,67.0,0.0,60.0,2.0,0.0
1022,81.0,0.0,60.0,0.0,0.0
1023,65.0,48.0,60.0,2.0,0.0
1024,84.0,60.0,60.0,0.0,0.0
1025,67.0,12.0,40.0,2.0,0.0
1026,76.0,60.0,120.0,2.0,0.0
1027,79.0,60.0,60.0,0.0,0.0
1028,84.0,0.0,60.0,0.0,0.0
1029,72.0,0.0,120.0,2.0,0.0
1030,77.0,60.0,60.0,0.0,0.0
1031,84.0,60.0,60.0,0.0,0.0
1032,76.0,60.0,60.0,0.0,0.0
1033,67.0,60.0,120.0,2.0,0.0
1034,84.0,0.0,60.0,0.0,0.0
1035,74.0,60.0,60.0,0.0,0.0
1036,65.0,0.0,60.0,2.0,0.0
1037,64.0,60.0,60.0,2.0,0.0
1038,72.0,0.0,60.0,0.0,0.0
1039,65.0,60.0,60.0,2.0,0.0
1040,74.0,0.0,60.0,0.0,0.0
1041,77.0,0.0,60.0,0.0,0.0
1042,60.0,60.0,60.0,2.0,0.0
1043,79.0,60.0,60.0,0.0,0.0
1044,64.0,0.0,60.0,2.0,0.0
1045,81.0,0.0,60.0,0.0,0.0
1046,65.0,60.0,60.0,2.0,0.0
1047,67.0,60.0,60.0,2.0,0.0
1048,82.0,0.0,60.0,0.0,0.0
1049,81.0,60.0,60.0,0.0,0.0
1050,65.0,0.0,60.0,2.0,0.0
1051,79.0,0.0,60.0,0.0,0.0
1052,64.0,60.0,60.0,2.0,0.0
1053,81.0,0.0,60.0,0.0,0.0
1054,65.0,60.0,60.0,2.0,0.0
1055,77.0,60.0,60.0,0.0,0.0
1056,74.0,60.0,120.0,2.0,0.0
1057,79.0,0.0,60.0,0.0,0.0
1058,76.0,60.0,60.0,0.0,0.0
1059,71.0,60.0,120.0,2.0,0.0
1060,79.0,0.0,60.0,0.0,0.0
1061,65.0,0.0,120.0,2.0,0.0
1062,74.0,60.0,60.0,0.0,0.0
1063,79.0,60.0,60.0,0.0,0.0
1064,64.0,60.0,60.0,2.0,0.0
1065,72.0,0.0,60.0,0.0,0.0
1066,71.0,0.0,60.0,0.0,0.0
1067,62.0,60.0,60.0,2.0,0.0
1068,72.0,60.0,60.0,0.0,0.0
1069,64.0,0.0,60.0,2.0,0.0
1070,60.0,0.0,60.0,2.0,0.0
1071,76.0,60.0,60.0,0.0,0.0
1072,62.0,60.0,60.0,2.0,0.0
1073,77.0,0.0,60.0,0.0,0.0
1074,64.0,0.0,60.0,2.0,0.0
1075,79.0,60.0,60.0,0.0,0.0
1076,81.0,0.0,60.0,0.0,0.0
1077,65.0,60.0,60.0,2.0,0.0
1078,67.0,60.0,60.0,2.0,0.0
1079,82.0,0.0,60.0,0.0,0.0
1080,84.0,0.0,60.0,0.0,0.0
1081,69.0,60.0,60.0,2.0,0.0
1082,86.0,22.0,60.0,0.0,0.0
1083,67.0,0.0,60.0,2.0,0.0
1084,70.0,2.0,60.0,2.0,0.0
1085,77.0,20.0,20.0,0.0,0.0
1086,76.0,18.0,20.0,0.0,0.0
1087,77.0,58.0,20.0,0.0,0.0
1088,76.0,60.0,60.0,0.0,0.0
1089,69.0,0.0,60.0,2.0,0.0
1090,67.0,60.0,60.0,2.0,0.0
1091,72.0,0.0,120.0,0.0,0.0
1092,65.0,60.0,60.0,2.0,0.0
1093,74.0,60.0,60.0,0.0,0.0
1094,70.0,60.0,120.0,2.0,0.0
1095,72.0,0.0,60.0,0.0,0.0
1096,70.0,60.0,60.0,0.0,0.0
1097,62.0,0.0,60.0,2.0,0.0
1098,64.0,0.0,60.0,2.0,0.0
1099,72.0,60.0,60.0,0.0,0.0
1100,65.0,60.0,60.0,2.0,0.0
1101,81.0,60.0,120.0,0.0,0.0
1102,64.0,0.0,60.0,2.0,0.0
1103,62.0,60.0,60.0,2.0,0.0
1104,77.0,0.0,120.0,0.0,0.0
1105,60.0,120.0,60.0,2.0,0.0
1106,72.0,60.0,120.0,0.0,0.0
1107,62.0,60.0,300.0,2.0,0.0
1108,70.0,60.0,60.0,0.0,0.0
1109,69.0,60.0,60.0,0.0,0.0
1110,70.0,0.0,120.0,0.0,0.0
1111,60.0,60.0,60.0,2.0,0.0
1112,79.0,0.0,120.0,0.0,0.0
1113,58.0,60.0,60.0,2.0,0.0
1114,62.0,60.0,60.0,2.0,0.0
1115,69.0,60.0,120.0,0.0,0.0
1116,60.0,60.0,60.0,2.0,0.0
1117,58.0,0.0,60.0,2.0,0.0
1118,57.0,60.0,60.0,2.0,0.0
1119,77.0,60.0,120.0,0.0,0.0
1120,60.0,0.0,60.0,2.0,0.0
1121,67.0,60.0,120.0,0.0,0.0
1122,58.0,60.0,60.0,2.0,0.0
1123,57.0,0.0,60.0,2.0,0.0
1124,76.0,120.0,120.0,0.0,0.0
1125,58.0,60.0,60.0,2.0,0.0
1126,55.0,0.0,60.0,2.0,0.0
1127,65.0,60.0,120.0,0.0,0.0
1128,57.0,60.0,180.0,2.0,0.0
1129,77.0,0.0,60.0,0.0,0.0
1130,76.0,60.0,60.0,0.0,0.0
1131,60.0,0.0,60.0,2.0,0.0
1132,77.0,60.0,60.0,0.0,0.0
1133,62.0,0.0,60.0,2.0,0.0
1134,64.0,56.0,60.0,2.0,0.0
1135,79.0,4.0,60.0,0.0,0.0
1136,65.0,60.0,60.0,1.0,0.0
1137,81.0,0.0,60.0,0.0,0.0
1138,65.0,0.0,360.0,2.0,0.0
1139,67.0,60.0,60.0,1.0,0.0
1140,82.0,0.0,60.0,0.0,0.0
1141,84.0,60.0,60.0,0.0,0.0
1142,69.0,0.0,60.0,1.0,0.0
1143,82.0,0.0,60.0,0.0,0.0
1144,67.0,60.0,60.0,1.0,0.0
1145,65.0,60.0,60.0,1.0,0.0
1146,81.0,0.0,60.0,0.0,0.0
1147,82.0,60.0,60.0,0.0,0.0
1148,67.0,0.0,60.0,1.0,0.0
1149,64.0,0.0,480.0,2.0,0.0
1150,84.0,60.0,60.0,0.0,0.0
1151,76.0,0.0,120.0,1.0,0.0
1152,82.0,60.0,60.0,0.0,0.0
1153,72.0,0.0,120.0,1.0,0.0
1154,81.0,60.0,60.0,0.0,0.0
1155,79.0,120.0,60.0,0.0,0.0
1156,81.0,60.0,300.0,0.0,0.0
1157,67.0,60.0,120.0,1.0,0.0
1158,65.0,60.0,60.0,1.0,0.0
1159,64.0,60.0,60.0,1.0,0.0
1160,62.0,60.0,360.0,2.0,0.0
1161,65.0,0.0,120.0,1.0,0.0
1162,79.0,60.0,60.0,0.0,0.0
1163,77.0,60.0,60.0,0.0,0.0
1164,74.0,0.0,120.0,1.0,0.0
1165,81.0,60.0,60.0,0.0,0.0
1166,64.0,0.0,120.0,1.0,0.0
1167,79.0,60.0,60.0,0.0,0.0
1168,77.0,0.0,60.0,0.0,0.0
1169,76.0,60.0,60.0,0.0,0.0
1170,72.0,60.0,120.0,1.0,0.0
1171,60.0,0.0,120.0,2.0,0.0
1172,79.0,0.0,60.0,0.0,0.0
1173,62.0,0.0,120.0,2.0,0.0
1174,62.0,0.0,120.0,1.0,0.0
1175,77.0,60.0,60.0,0.0,0.0
1176,76.0,60.0,60.0,0.0,0.0
1177,71.0,120.0,120.0,1.0,0.0
1178,77.0,60.0,60.0,0.0,0.0
1179,55.0,0.0,120.0,2.0,0.0
1180,74.0,0.0,60.0,0.0,0.0
1181,60.0,60.0,240.0,2.0,0.0
1182,76.0,60.0,120.0,0.0,0.0
1183,60.0,0.0,120.0,1.0,0.0
1184,72.0,60.0,60.0,1.0,0.0
1185,79.0,0.0,120.0,0.0,0.0
1186,70.0,0.0,60.0,1.0,0.0
1187,72.0,60.0,60.0,1.0,0.0
1188,82.0,0.0,480.0,0.0,0.0
1189,74.0,60.0,60.0,1.0,0.0
1190,76.0,60.0,60.0,1.0,0.0
1191,60.0,60.0,120.0,2.0,0.0
1192,72.0,0.0,60.0,1.0,0.0
1193,77.0,0.0,60.0,1.0,0.0
1194,62.0,60.0,60.0,2.0,0.0
1195,76.0,60.0,60.0,1.0,0.0
1196,60.0,0.0,60.0,2.0,0.0
1197,58.0,60.0,60.0,2.0,0.0
1198,74.0,0.0,60.0,1.0,0.0
1199,76.0,0.0,60.0,1.0,0.0
1200,60.0,60.0,60.0,2.0,0.0
1201,77.0,60.0,60.0,1.0,0.0
1202,69.0,60.0,120.0,2.0,0.0
1203,81.0,7.0,480.0,0.0,0.0
1204,76.0,0.0,60.0,1.0,0.0
1205,74.0,60.0,60.0,1.0,0.0
1206,65.0,0.0,120.0,2.0,0.0
1207,72.0,120.0,60.0,1.0,0.0
1208,60.0,60.0,120.0,2.0,0.0
1209,74.0,59.0,300.0,1.0,0.0
1210,58.0,60.0,60.0,2.0,0.0
1211,57.0,54.0,60.0,2.0,0.0
1212,79.0,0.0,360.0,0.0,0.0
1213,58.0,60.0,120.0,2.0,0.0
1214,72.0,0.0,60.0,1.0,0.0
1215,70.0,60.0,60.0,1.0,0.0
1216,67.0,60.0,120.0,2.0,0.0
1217,74.0,0.0,60.0,1.0,0.0
1218,72.0,60.0,60.0,1.0,0.0
1219,57.0,0.0,120.0,2.0,0.0
1220,70.0,60.0,60.0,1.0,0.0
1221,65.0,60.0,120.0,2.0,0.0
1222,69.0,60.0,60.0,1.0,0.0
1223,77.0,0.0,120.0,0.0,0.0
1224,72.0,0.0,60.0,1.0,0.0
1225,76.0,0.0,120.0,0.0,0.0
1226,55.0,0.0,120.0,2.0,0.0
1227,70.0,60.0,60.0,1.0,0.0
1228,69.0,60.0,60.0,1.0,0.0
1229,64.0,0.0,120.0,2.0,0.0
1230,70.0,60.0,60.0,1.0,0.0
1231,79.0,60.0,240.0,0.0,0.0
1232,67.0,60.0,60.0,1.0,0.0
1233,53.0,60.0,60.0,2.0,0.0
1234,69.0,60.0,600.0,1.0,0.0
1235,48.0,0.0,60.0,2.0,0.0
1236,53.0,60.0,60.0,2.0,0.0
1237,72.0,0.0,120.0,0.0,0.0
1238,55.0,60.0,60.0,2.0,0.0
1239,77.0,60.0,120.0,0.0,0.0
1240,57.0,60.0,60.0,2.0,0.0
1241,58.0,0.0,60.0,2.0,0.0
1242,60.0,60.0,60.0,2.0,0.0
1243,75.0,60.0,120.0,0.0,0.0
1244,57.0,0.0,60.0,2.0,0.0
1245,74.0,10.0,600.0,0.0,0.0
1246,58.0,60.0,60.0,2.0,0.0
1247,46.0,0.0,60.0,2.0,0.0
1248,58.0,60.0,60.0,2.0,0.0
1249,65.0,60.0,120.0,1.0,0.0
1250,57.0,0.0,60.0,2.0,0.0
1251,58.0,60.0,60.0,2.0,0.0
1252,70.0,60.0,120.0,1.0,0.0
1253,60.0,0.0,60.0,2.0,0.0
1254,62.0,60.0,60.0,2.0,0.0
1255,69.0,0.0,120.0,1.0,0.0
1256,58.0,60.0,60.0,2.0,0.0
1257,55.0,50.0,60.0,2.0,0.0
1258,70.0,60.0,240.0,1.0,0.0
1259,57.0,60.0,60.0,2.0,0.0
1260,74.0,60.0,60.0,0.0,0.0
1261,58.0,0.0,60.0,2.0,0.0
1262,70.0,0.0,60.0,0.0,0.0
1263,55.0,0.0,60.0,2.0,0.0
1264,52.0,60.0,60.0,2.0,0.0
1265,67.0,10.0,360.0,0.0,0.0
1266,53.0,60.0,60.0,2.0,0.0
1267,55.0,60.0,60.0,2.0,0.0
1268,70.0,0.0,60.0,1.0,0.0
1269,67.0,0.0,60.0,1.0,0.0
1270,52.0,110.0,60.0,2.0,0.0
1271,60.0,0.0,240.0,1.0,0.0
1272,45.0,60.0,120.0,2.0,0.0
1273,57.0,60.0,60.0,2.0,0.0
1274,67.0,0.0,120.0,0.0,0.0
1275,55.0,60.0,60.0,2.0,0.0
1276,57.0,60.0,60.0,2.0,0.0
1277,72.0,10.0,360.0,0.0,0.0
1278,58.0,60.0,60.0,2.0,0.0
1279,60.0,60.0,60.0,2.0,0.0
1280,64.0,60.0,120.0,1.0,0.0
1281,57.0,0.0,60.0,2.0,0.0
1282,69.0,0.0,240.0,1.0,0.0
1283,54.0,50.0,60.0,2.0,0.0
1284,55.0,60.0,60.0,2.0,0.0
1285,57.0,0.0,60.0,2.0,0.0
1286,72.0,60.0,60.0,0.0,0.0
1287,69.0,60.0,60.0,0.0,0.0
1288,54.0,0.0,60.0,2.0,0.0
1289,50.0,60.0,60.0,2.0,0.0
1290,66.0,0.0,360.0,0.0,0.0
1291,52.0,60.0,60.0,2.0,0.0
1292,69.0,0.0,60.0,1.0,0.0
1293,54.0,60.0,60.0,2.0,0.0
1294,50.0,120.0,60.0,2.0,0.0
1295,66.0,0.0,60.0,1.0,0.0
1296,43.0,60.0,120.0,2.0,0.0
1297,58.0,0.0,240.0,1.0,0.0
1298,62.0,0.0,120.0,0.0,0.0
1299,55.0,60.0,60.0,2.0,0.0
1300,54.0,60.0,60.0,2.0,0.0
1301,70.0,0.0,300.0,0.0,0.0
1302,55.0,60.0,60.0,2.0,0.0
1303,57.0,60.0,60.0,2.0,0.0
1304,58.0,60.0,60.0,2.0,0.0
1305,62.0,60.0,120.0,1.0,0.0
1306,55.0,0.0,60.0,2.0,0.0
1307,52.0,60.0,60.0,2.0,0.0
1308,67.0,53.0,300.0,1.0,0.0
1309,69.0,0.0,60.0,0.0,0.0
1310,53.0,60.0,60.0,2.0,0.0
1311,70.0,0.0,60.0,0.0,0.0
1312,55.0,60.0,60.0,2.0,0.0
1313,67.0,0.0,60.0,0.0,0.0
1314,52.0,60.0,60.0,2.0,0.0
1315,48.0,7.0,60.0,2.0,0.0
1316,79.0,56.0,300.0,0.0,0.0
1317,50.0,60.0,60.0,2.0,0.0
1318,70.0,0.0,60.0,1.0,0.0
1319,72.0,0.0,60.0,1.0,0.0
1320,52.0,60.0,60.0,2.0,0.0
1321,67.0,64.0,60.0,1.0,0.0
1322,48.0,0.0,60.0,2.0,0.0
1323,41.0,0.0,120.0,2.0,0.0
1324,69.0,0.0,240.0,1.0,0.0
1325,77.0,60.0,60.0,0.0,0.0
1326,53.0,0.0,60.0,2.0,0.0
1327,76.0,60.0,60.0,0.0,0.0
1328,79.0,0.0,60.0,0.0,0.0
1329,55.0,60.0,60.0,2.0,0.0
1330,57.0,60.0,120.0,2.0,0.0
1331,77.0,60.0,60.0,0.0,0.0
1332,72.0,0.0,60.0,0.0,0.0
1333,65.0,60.0,180.0,1.0,0.0
1334,74.0,60.0,60.0,0.0,0.0
1335,53.0,60.0,120.0,2.0,0.0
1336,75.0,0.0,60.0,0.0,0.0
1337,58.0,0.0,240.0,2.0,0.0
1338,74.0,0.0,60.0,0.0,0.0
1339,72.0,0.0,60.0,0.0,0.0
1340,64.0,60.0,60.0,1.0,0.0
1341,70.0,0.0,60.0,0.0,0.0
1342,62.0,60.0,60.0,1.0,0.0
1343,64.0,0.0,60.0,1.0,0.0
1344,72.0,60.0,60.0,0.0,0.0
1345,65.0,60.0,60.0,1.0,0.0
1346,81.0,60.0,120.0,0.0,0.0
1347,57.0,0.0,240.0,2.0,0.0
1348,64.0,0.0,60.0,1.0,0.0
1349,62.0,60.0,60.0,1.0,0.0
1350,77.0,0.0,120.0,0.0,0.0
1351,60.0,120.0,60.0,1.0,0.0
1352,72.0,0.0,120.0,0.0,0.0
1353,55.0,60.0,120.0,2.0,0.0
1354,62.0,60.0,300.0,1.0,0.0
1355,53.0,60.0,120.0,2.0,0.0
1356,70.0,60.0,60.0,0.0,0.0
1357,69.0,0.0,60.0,0.0,0.0
1358,52.0,60.0,240.0,2.0,0.0
1359,70.0,60.0,120.0,0.0,0.0
1360,60.0,0.0,60.0,1.0,0.0
1361,79.0,0.0,120.0,0.0,0.0
1362,58.0,60.0,60.0,1.0,0.0
1363,62.0,0.0,60.0,1.0,0.0
1364,60.0,60.0,60.0,1.0,0.0
1365,69.0,0.0,120.0,0.0,0.0
1366,53.0,60.0,240.0,2.0,0.0
1367,58.0,0.0,60.0,1.0,0.0
1368,57.0,60.0,60.0,1.0,0.0
1369,77.0,0.0,120.0,0.0,0.0
1370,60.0,0.0,60.0,1.0,0.0
1371,58.0,60.0,60.0,1.0,0.0
1372,67.0,0.0,120.0,0.0,0.0
1373,48.0,0.0,240.0,2.0,0.0
1374,57.0,60.0,60.0,1.0,0.0
1375,55.0,60.0,60.0,1.0,0.0
1376,76.0,0.0,120.0,0.0,0.0
1377,58.0,60.0,60.0,1.0,0.0
1378,57.0,0.0,60.0,1.0,0.0
1379,50.0,60.0,120.0,2.0,0.0
1380,65.0,60.0,60.0,0.0,0.0
1381,60.0,0.0,60.0,1.0,0.0
1382,69.0,0.0,60.0,0.0,0.0
1383,62.0,0.0,60.0,1.0,0.0
1384,70.0,60.0,60.0,0.0,0.0
1385,64.0,0.0,60.0,1.0,0.0
1386,72.0,60.0,60.0,0.0,0.0
1387,65.0,0.0,60.0,1.0,0.0
1388,74.0,60.0,60.0,0.0,0.0
1389,64.0,60.0,60.0,1.0,0.0
1390,76.0,0.0,60.0,0.0,0.0
1391,77.0,60.0,60.0,0.0,0.0
1392,62.0,0.0,60.0,1.0,0.0
1393,60.0,0.0,60.0,1.0,0.0
1394,79.0,60.0,60.0,0.0,0.0
1395,59.0,60.0,60.0,1.0,0.0
1396,80.0,0.0,60.0,0.0,0.0
1397,79.0,60.0,60.0,0.0,0.0
1398,60.0,0.0,60.0,1.0,0.0
1399,62.0,0.0,60.0,1.0,0.0
1400,77.0,60.0,60.0,0.0,0.0
1401,59.0,60.0,60.0,1.0,0.0
1402,79.0,0.0,60.0,0.0,0.0
1403,80.0,60.0,60.0,0.0,0.0
1404,55.0,10.0,300.0,1.0,0.0
1405,83.0,60.0,60.0,0.0,0.0
1406,53.0,0.0,60.0,2.0,0.0
1407,52.0,60.0,60.0,2.0,0.0
1408,84.0,0.0,60.0,0.0,0.0
1409,86.0,50.0,60.0,0.0,0.0
1410,50.0,0.0,60.0,2.0,0.0
1411,48.0,0.0,240.0,2.0,0.0
1412,77.0,60.0,60.0,0.0,0.0
1413,76.0,3.0,60.0,0.0,0.0
1414,55.0,57.0,60.0,1.0,0.0
1415,74.0,60.0,60.0,0.0,0.0
1416,57.0,0.0,60.0,1.0,0.0
1417,58.0,60.0,60.0,1.0,0.0
1418,72.0,0.0,60.0,0.0,0.0
1419,79.0,60.0,120.0,0.0,0.0
1420,60.0,60.0,60.0,1.0,0.0
1421,62.0,0.0,60.0,1.0,0.0
1422,64.0,60.0,60.0,1.0,0.0
1423,70.0,0.0,120.0,0.0,0.0
1424,60.0,110.0,60.0,1.0,0.0
1425,69.0,120.0,120.0,0.0,0.0
1426,65.0,0.0,120.0,1.0,0.0
1427,77.0,0.0,120.0,0.0,0.0
1428,45.0,120.0,120.0,2.0,0.0
1429,72.0,0.0,120.0,1.0,0.0
1430,65.0,0.0,120.0,1.0,0.0
1431,67.0,0.0,240.0,0.0,0.0
1432,46.0,0.0,120.0,2.0,0.0
1433,74.0,120.0,120.0,1.0,0.0
1434,70.0,0.0,120.0,1.0,0.0
1435,48.0,0.0,120.0,2.0,0.0
1436,76.0,490.0,120.0,0.0,0.0
1437,72.0,0.0,120.0,1.0,0.0
1438,70.0,0.0,120.0,1.0,0.0
1439,65.0,0.0,480.0,1.0,0.0
1440,69.0,0.0,480.0,1.0,0.0
1441,41.0,0.0,480.0,2.0,0.0
1442,72.0,0.0,480.0,1.0,0.0
1443,77.0,0.0,480.0,0.0,0.0
