,note,step,duration,channel,velocity
0,55.0,60.0,120.0,3.0,0.0
1,63.0,0.0,60.0,1.0,0.0
2,58.0,0.0,120.0,2.0,0.0
3,39.0,0.0,120.0,5.0,0.0
4,63.0,60.0,60.0,0.0,0.0
5,58.0,0.0,120.0,0.0,0.0
6,58.0,60.0,120.0,1.0,0.0
7,58.0,0.0,120.0,2.0,0.0
8,38.0,0.0,120.0,5.0,0.0
9,53.0,0.0,120.0,3.0,0.0
10,56.0,60.0,60.0,0.0,0.0
11,56.0,0.0,60.0,1.0,0.0
12,58.0,0.0,120.0,2.0,0.0
13,55.0,30.0,60.0,0.0,0.0
14,51.0,0.0,120.0,3.0,0.0
15,39.0,0.0,60.0,5.0,0.0
16,55.0,0.0,60.0,1.0,0.0
17,41.0,0.0,30.0,5.0,0.0
18,56.0,0.0,30.0,1.0,0.0
19,56.0,30.0,30.0,0.0,0.0
20,58.0,0.0,30.0,1.0,0.0
21,58.0,0.0,30.0,0.0,0.0
22,43.0,60.0,30.0,5.0,0.0
23,60.0,0.0,60.0,0.0,0.0
24,56.0,60.0,60.0,2.0,0.0
25,51.0,0.0,60.0,3.0,0.0
26,44.0,0.0,60.0,5.0,0.0
27,60.0,0.0,60.0,1.0,0.0
28,60.0,0.0,60.0,2.0,0.0
29,56.0,0.0,60.0,3.0,0.0
30,65.0,0.0,60.0,0.0,0.0
31,56.0,0.0,120.0,5.0,0.0
32,65.0,60.0,60.0,1.0,0.0
33,62.0,0.0,60.0,0.0,0.0
34,58.0,60.0,120.0,2.0,0.0
35,53.0,60.0,60.0,3.0,0.0
36,62.0,0.0,60.0,1.0,0.0
37,63.0,0.0,60.0,0.0,0.0
38,55.0,0.0,60.0,5.0,0.0
39,58.0,60.0,120.0,3.0,0.0
40,63.0,0.0,60.0,1.0,0.0
41,65.0,0.0,60.0,2.0,0.0
42,68.0,0.0,60.0,0.0,0.0
43,50.0,0.0,60.0,5.0,0.0
44,68.0,0.0,60.0,1.0,0.0
45,67.0,0.0,60.0,0.0,0.0
46,67.0,0.0,60.0,1.0,0.0
47,51.0,0.0,60.0,5.0,0.0
48,63.0,0.0,60.0,2.0,0.0
49,58.0,20.0,60.0,3.0,0.0
50,67.0,0.0,20.0,0.0,0.0
51,67.0,0.0,20.0,1.0,0.0
52,58.0,0.0,60.0,3.0,0.0
53,63.0,20.0,20.0,2.0,0.0
54,58.0,0.0,60.0,5.0,0.0
55,68.0,20.0,20.0,1.0,0.0
56,65.0,0.0,20.0,2.0,0.0
57,68.0,0.0,20.0,0.0,0.0
58,67.0,0.0,20.0,1.0,0.0
59,63.0,0.0,20.0,2.0,0.0
60,67.0,60.0,20.0,0.0,0.0
61,58.0,0.0,60.0,3.0,0.0
62,65.0,180.0,60.0,1.0,0.0
63,62.0,0.0,60.0,2.0,0.0
64,46.0,0.0,60.0,5.0,0.0
65,65.0,0.0,60.0,0.0,0.0
66,44.0,0.0,120.0,5.0,0.0
67,65.0,0.0,60.0,0.0,0.0
68,60.0,0.0,120.0,2.0,0.0
69,53.0,60.0,120.0,3.0,0.0
70,65.0,60.0,60.0,1.0,0.0
71,60.0,0.0,120.0,0.0,0.0
72,60.0,60.0,120.0,1.0,0.0
73,60.0,60.0,120.0,2.0,0.0
74,40.0,0.0,120.0,5.0,0.0
75,55.0,0.0,120.0,3.0,0.0
76,58.0,0.0,60.0,0.0,0.0
77,58.0,0.0,60.0,1.0,0.0
78,53.0,0.0,120.0,3.0,0.0
79,60.0,0.0,120.0,2.0,0.0
80,56.0,0.0,60.0,1.0,0.0
81,56.0,0.0,60.0,0.0,0.0
82,41.0,30.0,60.0,5.0,0.0
83,43.0,0.0,30.0,5.0,0.0
84,58.0,0.0,30.0,1.0,0.0
85,58.0,30.0,30.0,0.0,0.0
86,60.0,0.0,30.0,1.0,0.0
87,60.0,15.0,30.0,0.0,0.0
88,44.0,0.0,30.0,5.0,0.0
89,61.0,15.0,15.0,0.0,0.0
90,58.0,60.0,60.0,2.0,0.0
91,53.0,0.0,60.0,3.0,0.0
92,61.0,0.0,15.0,1.0,0.0
93,46.0,0.0,60.0,5.0,0.0
94,60.0,0.0,15.0,0.0,0.0
95,60.0,30.0,15.0,1.0,0.0
96,58.0,0.0,30.0,0.0,0.0
97,58.0,0.0,30.0,1.0,0.0
98,58.0,0.0,120.0,5.0,0.0
99,58.0,0.0,60.0,3.0,0.0
100,67.0,60.0,60.0,0.0,0.0
101,61.0,0.0,60.0,2.0,0.0
102,67.0,0.0,60.0,1.0,0.0
103,60.0,0.0,120.0,2.0,0.0
104,55.0,0.0,60.0,3.0,0.0
105,64.0,0.0,60.0,1.0,0.0
106,64.0,60.0,60.0,0.0,0.0
107,65.0,60.0,60.0,1.0,0.0
108,60.0,60.0,120.0,3.0,0.0
109,65.0,0.0,60.0,0.0,0.0
110,56.0,0.0,60.0,5.0,0.0
111,70.0,0.0,60.0,0.0,0.0
112,70.0,0.0,60.0,1.0,0.0
113,52.0,0.0,60.0,5.0,0.0
114,67.0,0.0,60.0,2.0,0.0
115,68.0,0.0,60.0,1.0,0.0
116,65.0,0.0,60.0,2.0,0.0
117,68.0,0.0,60.0,0.0,0.0
118,53.0,0.0,60.0,5.0,0.0
119,60.0,20.0,60.0,3.0,0.0
120,68.0,0.0,20.0,0.0,0.0
121,60.0,0.0,60.0,3.0,0.0
122,65.0,20.0,20.0,2.0,0.0
123,68.0,0.0,20.0,1.0,0.0
124,60.0,0.0,60.0,5.0,0.0
125,70.0,20.0,20.0,1.0,0.0
126,70.0,0.0,20.0,0.0,0.0
127,67.0,0.0,20.0,2.0,0.0
128,68.0,0.0,20.0,0.0,0.0
129,65.0,0.0,20.0,2.0,0.0
130,68.0,60.0,20.0,1.0,0.0
131,64.0,0.0,60.0,2.0,0.0
132,60.0,0.0,60.0,3.0,0.0
133,48.0,60.0,60.0,5.0,0.0
134,67.0,0.0,60.0,0.0,0.0
135,67.0,0.0,60.0,1.0,0.0
136,67.0,30.0,30.0,0.0,0.0
137,65.0,30.0,30.0,0.0,0.0
138,67.0,30.0,30.0,0.0,0.0
139,53.0,0.0,60.0,5.0,0.0
140,68.0,30.0,30.0,0.0,0.0
141,60.0,30.0,30.0,0.0,0.0
142,41.0,15.0,60.0,5.0,0.0
143,53.0,30.0,30.0,0.0,0.0
144,60.0,0.0,30.0,0.0,0.0
145,68.0,15.0,15.0,0.0,0.0
146,68.0,15.0,60.0,1.0,0.0
147,65.0,0.0,60.0,3.0,0.0
148,68.0,0.0,60.0,2.0,0.0
149,65.0,15.0,15.0,0.0,0.0
150,67.0,15.0,15.0,0.0,0.0
151,68.0,0.0,15.0,0.0,0.0
152,70.0,15.0,15.0,0.0,0.0
153,53.0,0.0,60.0,3.0,0.0
154,60.0,0.0,60.0,2.0,0.0
155,60.0,30.0,60.0,1.0,0.0
156,72.0,15.0,15.0,0.0,0.0
157,74.0,15.0,15.0,0.0,0.0
158,75.0,0.0,15.0,0.0,0.0
159,44.0,0.0,60.0,5.0,0.0
160,77.0,30.0,30.0,0.0,0.0
161,68.0,30.0,30.0,0.0,0.0
162,60.0,30.0,30.0,0.0,0.0
163,41.0,30.0,60.0,5.0,0.0
164,68.0,0.0,30.0,0.0,0.0
165,72.0,0.0,60.0,2.0,0.0
166,56.0,30.0,60.0,3.0,0.0
167,77.0,30.0,30.0,0.0,0.0
168,72.0,0.0,60.0,1.0,0.0
169,68.0,0.0,30.0,0.0,0.0
170,68.0,0.0,60.0,2.0,0.0
171,75.0,30.0,30.0,0.0,0.0
172,68.0,0.0,60.0,1.0,0.0
173,53.0,30.0,60.0,3.0,0.0
174,68.0,0.0,30.0,0.0,0.0
175,74.0,30.0,30.0,0.0,0.0
176,46.0,0.0,60.0,5.0,0.0
177,68.0,30.0,30.0,0.0,0.0
178,58.0,30.0,30.0,0.0,0.0
179,34.0,15.0,60.0,5.0,0.0
180,68.0,0.0,30.0,0.0,0.0
181,58.0,15.0,60.0,3.0,0.0
182,74.0,15.0,15.0,0.0,0.0
183,65.0,0.0,60.0,1.0,0.0
184,65.0,0.0,60.0,2.0,0.0
185,70.0,15.0,15.0,0.0,0.0
186,72.0,15.0,15.0,0.0,0.0
187,74.0,0.0,15.0,0.0,0.0
188,46.0,30.0,60.0,3.0,0.0
189,62.0,0.0,60.0,1.0,0.0
190,75.0,15.0,15.0,0.0,0.0
191,62.0,0.0,60.0,2.0,0.0
192,77.0,15.0,15.0,0.0,0.0
193,79.0,15.0,15.0,0.0,0.0
194,80.0,0.0,15.0,0.0,0.0
195,50.0,30.0,60.0,5.0,0.0
196,82.0,30.0,30.0,0.0,0.0
197,70.0,0.0,30.0,0.0,0.0
198,46.0,0.0,60.0,5.0,0.0
199,58.0,30.0,30.0,0.0,0.0
200,70.0,30.0,30.0,0.0,0.0
201,70.0,0.0,60.0,2.0,0.0
202,62.0,0.0,60.0,3.0,0.0
203,70.0,0.0,60.0,1.0,0.0
204,82.0,30.0,30.0,0.0,0.0
205,70.0,30.0,30.0,0.0,0.0
206,65.0,0.0,60.0,1.0,0.0
207,58.0,0.0,60.0,3.0,0.0
208,80.0,30.0,30.0,0.0,0.0
209,65.0,30.0,60.0,2.0,0.0
210,70.0,0.0,30.0,0.0,0.0
211,79.0,30.0,30.0,0.0,0.0
212,51.0,0.0,60.0,5.0,0.0
213,70.0,30.0,30.0,0.0,0.0
214,63.0,30.0,30.0,0.0,0.0
215,67.0,0.0,60.0,2.0,0.0
216,39.0,0.0,60.0,5.0,0.0
217,70.0,0.0,60.0,1.0,0.0
218,63.0,30.0,60.0,3.0,0.0
219,70.0,0.0,30.0,0.0,0.0
220,75.0,0.0,60.0,1.0,0.0
221,70.0,0.0,60.0,2.0,0.0
222,79.0,30.0,30.0,0.0,0.0
223,67.0,30.0,60.0,3.0,0.0
224,70.0,0.0,30.0,0.0,0.0
225,79.0,30.0,30.0,0.0,0.0
226,63.0,30.0,60.0,3.0,0.0
227,67.0,0.0,60.0,2.0,0.0
228,79.0,0.0,60.0,1.0,0.0
229,70.0,0.0,30.0,0.0,0.0
230,79.0,30.0,30.0,0.0,0.0
231,72.0,0.0,60.0,1.0,0.0
232,63.0,0.0,60.0,2.0,0.0
233,56.0,0.0,60.0,3.0,0.0
234,72.0,30.0,30.0,0.0,0.0
235,63.0,0.0,30.0,0.0,0.0
236,56.0,30.0,30.0,5.0,0.0
237,72.0,30.0,30.0,0.0,0.0
238,55.0,0.0,30.0,5.0,0.0
239,80.0,30.0,30.0,0.0,0.0
240,53.0,0.0,60.0,5.0,0.0
241,72.0,30.0,30.0,0.0,0.0
242,51.0,0.0,60.0,5.0,0.0
243,79.0,30.0,30.0,0.0,0.0
244,72.0,30.0,30.0,0.0,0.0
245,50.0,30.0,60.0,5.0,0.0
246,77.0,30.0,30.0,0.0,0.0
247,72.0,0.0,30.0,0.0,0.0
248,38.0,0.0,60.0,5.0,0.0
249,62.0,0.0,60.0,3.0,0.0
250,65.0,0.0,60.0,2.0,0.0
251,62.0,30.0,30.0,0.0,0.0
252,72.0,0.0,60.0,1.0,0.0
253,72.0,30.0,30.0,0.0,0.0
254,65.0,0.0,60.0,3.0,0.0
255,68.0,0.0,60.0,2.0,0.0
256,74.0,0.0,60.0,1.0,0.0
257,77.0,30.0,30.0,0.0,0.0
258,72.0,30.0,30.0,0.0,0.0
259,62.0,0.0,60.0,3.0,0.0
260,77.0,0.0,60.0,1.0,0.0
261,65.0,0.0,60.0,2.0,0.0
262,77.0,30.0,30.0,0.0,0.0
263,72.0,30.0,30.0,0.0,0.0
264,62.0,30.0,60.0,2.0,0.0
265,55.0,0.0,60.0,3.0,0.0
266,70.0,0.0,60.0,1.0,0.0
267,77.0,30.0,30.0,0.0,0.0
268,70.0,0.0,30.0,0.0,0.0
269,55.0,0.0,30.0,5.0,0.0
270,62.0,30.0,30.0,0.0,0.0
271,53.0,0.0,30.0,5.0,0.0
272,70.0,30.0,30.0,0.0,0.0
273,51.0,0.0,60.0,5.0,0.0
274,79.0,30.0,30.0,0.0,0.0
275,70.0,30.0,30.0,0.0,0.0
276,50.0,0.0,60.0,5.0,0.0
277,77.0,30.0,30.0,0.0,0.0
278,70.0,30.0,30.0,0.0,0.0
279,48.0,30.0,60.0,5.0,0.0
280,75.0,30.0,30.0,0.0,0.0
281,70.0,0.0,30.0,0.0,0.0
282,60.0,30.0,30.0,0.0,0.0
283,60.0,0.0,60.0,3.0,0.0
284,70.0,0.0,60.0,1.0,0.0
285,36.0,30.0,60.0,5.0,0.0
286,63.0,0.0,60.0,2.0,0.0
287,70.0,0.0,30.0,0.0,0.0
288,67.0,0.0,60.0,2.0,0.0
289,72.0,30.0,60.0,1.0,0.0
290,75.0,30.0,30.0,0.0,0.0
291,65.0,0.0,60.0,3.0,0.0
292,70.0,0.0,30.0,0.0,0.0
293,75.0,0.0,60.0,1.0,0.0
294,63.0,0.0,60.0,2.0,0.0
295,75.0,30.0,30.0,0.0,0.0
296,60.0,30.0,60.0,3.0,0.0
297,70.0,0.0,30.0,0.0,0.0
298,60.0,30.0,240.0,2.0,0.0
299,75.0,30.0,30.0,0.0,0.0
300,53.0,0.0,360.0,3.0,0.0
301,68.0,0.0,360.0,1.0,0.0
302,68.0,30.0,30.0,0.0,0.0
303,53.0,30.0,30.0,5.0,0.0
304,60.0,0.0,30.0,0.0,0.0
305,68.0,30.0,30.0,0.0,0.0
306,51.0,0.0,30.0,5.0,0.0
307,50.0,30.0,60.0,5.0,0.0
308,77.0,30.0,30.0,0.0,0.0
309,68.0,0.0,30.0,0.0,0.0
310,75.0,30.0,30.0,0.0,0.0
311,48.0,0.0,60.0,5.0,0.0
312,68.0,0.0,30.0,0.0,0.0
313,46.0,0.0,60.0,5.0,0.0
314,74.0,30.0,30.0,0.0,0.0
315,65.0,30.0,120.0,2.0,0.0
316,68.0,30.0,30.0,0.0,0.0
317,58.0,30.0,30.0,0.0,0.0
318,34.0,0.0,60.0,5.0,0.0
319,68.0,0.0,30.0,0.0,0.0
320,58.0,30.0,60.0,1.0,0.0
321,74.0,30.0,30.0,0.0,0.0
322,68.0,0.0,30.0,0.0,0.0
323,75.0,30.0,30.0,0.0,0.0
324,60.0,30.0,60.0,1.0,0.0
325,68.0,0.0,30.0,0.0,0.0
326,62.0,30.0,60.0,1.0,0.0
327,77.0,30.0,30.0,0.0,0.0
328,68.0,0.0,30.0,0.0,0.0
329,79.0,30.0,30.0,0.0,0.0
330,63.0,30.0,60.0,1.0,0.0
331,68.0,0.0,30.0,0.0,0.0
332,62.0,30.0,60.0,1.0,0.0
333,77.0,30.0,30.0,0.0,0.0
334,68.0,0.0,30.0,0.0,0.0
335,75.0,30.0,30.0,0.0,0.0
336,60.0,30.0,60.0,1.0,0.0
337,68.0,0.0,30.0,0.0,0.0
338,46.0,30.0,60.0,5.0,0.0
339,74.0,30.0,30.0,0.0,0.0
340,58.0,0.0,120.0,1.0,0.0
341,68.0,0.0,30.0,0.0,0.0
342,34.0,0.0,60.0,5.0,0.0
343,58.0,30.0,30.0,0.0,0.0
344,68.0,30.0,30.0,0.0,0.0
345,65.0,0.0,60.0,2.0,0.0
346,46.0,0.0,60.0,3.0,0.0
347,68.0,30.0,60.0,1.0,0.0
348,74.0,30.0,30.0,0.0,0.0
349,68.0,0.0,30.0,0.0,0.0
350,63.0,30.0,60.0,2.0,0.0
351,48.0,0.0,60.0,3.0,0.0
352,67.0,0.0,60.0,1.0,0.0
353,75.0,30.0,30.0,0.0,0.0
354,68.0,0.0,30.0,0.0,0.0
355,77.0,30.0,30.0,0.0,0.0
356,50.0,30.0,60.0,3.0,0.0
357,65.0,0.0,60.0,1.0,0.0
358,62.0,0.0,60.0,2.0,0.0
359,68.0,0.0,30.0,0.0,0.0
360,63.0,0.0,60.0,1.0,0.0
361,60.0,30.0,60.0,2.0,0.0
362,79.0,30.0,30.0,0.0,0.0
363,51.0,0.0,60.0,3.0,0.0
364,68.0,0.0,30.0,0.0,0.0
365,77.0,30.0,30.0,0.0,0.0
366,50.0,0.0,60.0,3.0,0.0
367,62.0,0.0,60.0,2.0,0.0
368,65.0,30.0,60.0,1.0,0.0
369,68.0,0.0,30.0,0.0,0.0
370,48.0,0.0,60.0,3.0,0.0
371,75.0,30.0,30.0,0.0,0.0
372,67.0,0.0,60.0,1.0,0.0
373,63.0,30.0,60.0,2.0,0.0
374,68.0,0.0,30.0,0.0,0.0
375,74.0,30.0,30.0,0.0,0.0
376,68.0,30.0,60.0,1.0,0.0
377,46.0,0.0,60.0,3.0,0.0
378,65.0,0.0,60.0,2.0,0.0
379,68.0,0.0,30.0,0.0,0.0
380,63.0,0.0,30.0,2.0,0.0
381,58.0,30.0,60.0,3.0,0.0
382,46.0,0.0,60.0,5.0,0.0
383,67.0,0.0,30.0,1.0,0.0
384,67.0,30.0,30.0,0.0,0.0
385,62.0,0.0,30.0,2.0,0.0
386,65.0,0.0,30.0,1.0,0.0
387,65.0,0.0,30.0,0.0,0.0
388,67.0,30.0,60.0,1.0,0.0
389,51.0,0.0,60.0,5.0,0.0
390,67.0,30.0,30.0,0.0,0.0
391,58.0,0.0,60.0,3.0,0.0
392,63.0,0.0,60.0,2.0,0.0
393,75.0,0.0,30.0,0.0,0.0
394,44.0,0.0,60.0,5.0,0.0
395,60.0,0.0,60.0,3.0,0.0
396,75.0,0.0,60.0,1.0,0.0
397,63.0,0.0,60.0,2.0,0.0
398,65.0,30.0,30.0,0.0,0.0
399,63.0,30.0,30.0,0.0,0.0
400,58.0,0.0,240.0,3.0,0.0
401,46.0,0.0,120.0,5.0,0.0
402,67.0,0.0,120.0,1.0,0.0
403,58.0,30.0,30.0,0.0,0.0
404,63.0,0.0,60.0,2.0,0.0
405,65.0,30.0,30.0,0.0,0.0
406,58.0,0.0,120.0,2.0,0.0
407,75.0,30.0,30.0,0.0,0.0
408,72.0,30.0,30.0,0.0,0.0
409,65.0,20.0,30.0,1.0,0.0
410,74.0,10.0,30.0,0.0,0.0
411,34.0,0.0,120.0,5.0,0.0
412,77.0,20.0,30.0,0.0,0.0
413,67.0,10.0,30.0,1.0,0.0
414,70.0,30.0,30.0,0.0,0.0
415,56.0,0.0,60.0,2.0,0.0
416,65.0,0.0,30.0,1.0,0.0
417,74.0,60.0,30.0,0.0,0.0
418,55.0,0.0,60.0,2.0,0.0
419,51.0,0.0,60.0,4.0,0.0
420,58.0,0.0,60.0,3.0,0.0
421,75.0,0.0,60.0,0.0,0.0
422,63.0,60.0,60.0,1.0,0.0
423,39.0,0.0,120.0,5.0,0.0
424,46.0,0.0,120.0,4.0,0.0
425,63.0,60.0,60.0,0.0,0.0
426,38.0,0.0,120.0,5.0,0.0
427,65.0,60.0,60.0,1.0,0.0
428,58.0,0.0,60.0,2.0,0.0
429,58.0,0.0,60.0,3.0,0.0
430,44.0,60.0,60.0,4.0,0.0
431,67.0,0.0,60.0,1.0,0.0
432,58.0,0.0,60.0,3.0,0.0
433,39.0,30.0,60.0,5.0,0.0
434,43.0,0.0,60.0,4.0,0.0
435,63.0,0.0,60.0,2.0,0.0
436,44.0,0.0,30.0,4.0,0.0
437,41.0,30.0,30.0,5.0,0.0
438,43.0,60.0,30.0,5.0,0.0
439,46.0,0.0,30.0,4.0,0.0
440,65.0,0.0,60.0,1.0,0.0
441,60.0,0.0,60.0,2.0,0.0
442,44.0,0.0,60.0,5.0,0.0
443,48.0,60.0,60.0,4.0,0.0
444,56.0,0.0,60.0,3.0,0.0
445,56.0,0.0,120.0,5.0,0.0
446,53.0,60.0,60.0,4.0,0.0
447,50.0,0.0,60.0,4.0,0.0
448,70.0,0.0,60.0,1.0,0.0
449,50.0,0.0,60.0,3.0,0.0
450,58.0,60.0,60.0,2.0,0.0
451,70.0,0.0,60.0,2.0,0.0
452,51.0,0.0,60.0,4.0,0.0
453,63.0,0.0,60.0,0.0,0.0
454,63.0,60.0,60.0,1.0,0.0
455,55.0,0.0,60.0,5.0,0.0
456,58.0,0.0,120.0,3.0,0.0
457,65.0,0.0,60.0,2.0,0.0
458,50.0,0.0,60.0,5.0,0.0
459,68.0,0.0,60.0,0.0,0.0
460,68.0,0.0,60.0,1.0,0.0
461,56.0,60.0,60.0,4.0,0.0
462,58.0,0.0,60.0,3.0,0.0
463,67.0,0.0,60.0,1.0,0.0
464,63.0,0.0,60.0,2.0,0.0
465,51.0,0.0,60.0,5.0,0.0
466,67.0,20.0,60.0,0.0,0.0
467,55.0,0.0,60.0,4.0,0.0
468,67.0,0.0,20.0,1.0,0.0
469,55.0,0.0,60.0,4.0,0.0
470,63.0,0.0,20.0,2.0,0.0
471,58.0,0.0,60.0,5.0,0.0
472,67.0,20.0,20.0,0.0,0.0
473,58.0,0.0,60.0,3.0,0.0
474,68.0,0.0,20.0,0.0,0.0
475,68.0,20.0,20.0,1.0,0.0
476,65.0,0.0,20.0,2.0,0.0
477,63.0,30.0,20.0,2.0,0.0
478,67.0,0.0,20.0,0.0,0.0
479,67.0,0.0,20.0,1.0,0.0
480,50.0,30.0,60.0,5.0,0.0
481,58.0,0.0,120.0,3.0,0.0
482,65.0,15.0,90.0,0.0,0.0
483,62.0,30.0,30.0,2.0,0.0
484,53.0,0.0,60.0,4.0,0.0
485,65.0,0.0,30.0,1.0,0.0
486,63.0,0.0,30.0,1.0,0.0
487,60.0,0.0,30.0,2.0,0.0
488,44.0,0.0,60.0,5.0,0.0
489,65.0,0.0,60.0,1.0,0.0
490,62.0,0.0,60.0,2.0,0.0
491,67.0,15.0,15.0,0.0,0.0
492,68.0,15.0,15.0,0.0,0.0
493,64.0,60.0,60.0,2.0,0.0
494,67.0,0.0,60.0,1.0,0.0
495,58.0,0.0,60.0,3.0,0.0
496,43.0,0.0,60.0,5.0,0.0
497,70.0,15.0,15.0,0.0,0.0
498,72.0,15.0,15.0,0.0,0.0
499,74.0,15.0,15.0,0.0,0.0
500,76.0,0.0,15.0,0.0,0.0
501,41.0,0.0,120.0,5.0,0.0
502,53.0,0.0,60.0,4.0,0.0
503,68.0,60.0,60.0,1.0,0.0
504,60.0,0.0,60.0,3.0,0.0
505,60.0,0.0,60.0,2.0,0.0
506,77.0,0.0,60.0,0.0,0.0
507,65.0,60.0,60.0,0.0,0.0
508,48.0,60.0,120.0,4.0,0.0
509,60.0,0.0,60.0,3.0,0.0
510,67.0,0.0,60.0,2.0,0.0
511,40.0,0.0,120.0,5.0,0.0
512,72.0,0.0,60.0,1.0,0.0
513,46.0,60.0,60.0,4.0,0.0
514,68.0,0.0,60.0,2.0,0.0
515,41.0,0.0,60.0,5.0,0.0
516,44.0,0.0,60.0,4.0,0.0
517,60.0,0.0,60.0,3.0,0.0
518,77.0,30.0,60.0,1.0,0.0
519,43.0,30.0,30.0,5.0,0.0
520,46.0,0.0,30.0,4.0,0.0
521,44.0,15.0,30.0,5.0,0.0
522,48.0,0.0,30.0,4.0,0.0
523,49.0,15.0,15.0,4.0,0.0
524,67.0,0.0,60.0,2.0,0.0
525,65.0,60.0,60.0,1.0,0.0
526,58.0,0.0,60.0,3.0,0.0
527,46.0,0.0,60.0,5.0,0.0
528,48.0,30.0,15.0,4.0,0.0
529,46.0,0.0,30.0,4.0,0.0
530,55.0,60.0,60.0,4.0,0.0
531,58.0,0.0,120.0,5.0,0.0
532,60.0,0.0,60.0,3.0,0.0
533,67.0,0.0,60.0,2.0,0.0
534,52.0,60.0,60.0,4.0,0.0
535,72.0,0.0,60.0,1.0,0.0
536,53.0,0.0,60.0,4.0,0.0
537,60.0,60.0,120.0,3.0,0.0
538,65.0,0.0,60.0,1.0,0.0
539,72.0,60.0,60.0,2.0,0.0
540,56.0,0.0,60.0,5.0,0.0
541,65.0,0.0,60.0,0.0,0.0
542,52.0,0.0,60.0,5.0,0.0
543,70.0,0.0,60.0,0.0,0.0
544,67.0,0.0,60.0,2.0,0.0
545,70.0,0.0,60.0,1.0,0.0
546,58.0,0.0,60.0,4.0,0.0
547,68.0,0.0,60.0,1.0,0.0
548,68.0,20.0,60.0,0.0,0.0
549,65.0,0.0,60.0,2.0,0.0
550,53.0,0.0,60.0,5.0,0.0
551,60.0,0.0,60.0,3.0,0.0
552,56.0,0.0,60.0,4.0,0.0
553,68.0,0.0,20.0,0.0,0.0
554,68.0,0.0,20.0,1.0,0.0
555,56.0,30.0,60.0,4.0,0.0
556,48.0,0.0,60.0,5.0,0.0
557,60.0,0.0,60.0,3.0,0.0
558,65.0,20.0,20.0,2.0,0.0
559,70.0,20.0,20.0,1.0,0.0
560,70.0,0.0,20.0,0.0,0.0
561,67.0,0.0,20.0,2.0,0.0
562,65.0,0.0,20.0,2.0,0.0
563,68.0,0.0,20.0,1.0,0.0
564,68.0,0.0,20.0,0.0,0.0
565,60.0,0.0,120.0,3.0,0.0
566,67.0,0.0,60.0,0.0,0.0
567,55.0,0.0,60.0,4.0,0.0
568,46.0,0.0,60.0,5.0,0.0
569,67.0,0.0,60.0,1.0,0.0
570,64.0,30.0,30.0,2.0,0.0
571,62.0,15.0,30.0,2.0,0.0
572,72.0,0.0,60.0,1.0,0.0
573,67.0,15.0,15.0,0.0,0.0
574,63.0,15.0,60.0,2.0,0.0
575,44.0,0.0,60.0,5.0,0.0
576,46.0,0.0,60.0,5.0,0.0
577,65.0,15.0,15.0,0.0,0.0
578,67.0,15.0,15.0,0.0,0.0
579,68.0,0.0,15.0,0.0,0.0
580,70.0,15.0,15.0,0.0,0.0
581,60.0,0.0,60.0,3.0,0.0
582,43.0,0.0,60.0,5.0,0.0
583,67.0,0.0,60.0,2.0,0.0
584,70.0,0.0,60.0,1.0,0.0
585,72.0,15.0,15.0,0.0,0.0
586,74.0,15.0,15.0,0.0,0.0
587,76.0,30.0,15.0,0.0,0.0
588,56.0,0.0,30.0,4.0,0.0
589,77.0,30.0,30.0,0.0,0.0
590,60.0,0.0,60.0,3.0,0.0
591,60.0,0.0,60.0,2.0,0.0
592,41.0,0.0,60.0,5.0,0.0
593,68.0,0.0,60.0,1.0,0.0
594,55.0,30.0,30.0,4.0,0.0
595,68.0,0.0,30.0,0.0,0.0
596,53.0,0.0,120.0,4.0,0.0
597,60.0,30.0,30.0,0.0,0.0
598,68.0,29.0,30.0,0.0,0.0
599,77.0,30.0,30.0,0.0,0.0
600,72.0,0.0,60.0,1.0,0.0
601,60.0,0.0,60.0,3.0,0.0
602,65.0,0.0,60.0,2.0,0.0
603,44.0,29.0,60.0,5.0,0.0
604,68.0,1.0,30.0,0.0,0.0
605,77.0,30.0,30.0,0.0,0.0
606,51.0,29.0,60.0,4.0,0.0
607,68.0,1.0,30.0,0.0,0.0
608,77.0,30.0,30.0,0.0,0.0
609,58.0,0.0,60.0,3.0,0.0
610,50.0,0.0,60.0,4.0,0.0
611,46.0,29.0,60.0,5.0,0.0
612,65.0,0.0,60.0,2.0,0.0
613,74.0,0.0,60.0,1.0,0.0
614,68.0,1.0,30.0,0.0,0.0
615,58.0,1.0,30.0,0.0,0.0
616,48.0,29.0,30.0,4.0,0.0
617,68.0,1.0,30.0,0.0,0.0
618,46.0,29.0,30.0,4.0,0.0
619,77.0,30.0,30.0,0.0,0.0
620,34.0,0.0,60.0,5.0,0.0
621,58.0,0.0,60.0,3.0,0.0
622,65.0,29.0,60.0,2.0,0.0
623,74.0,0.0,60.0,1.0,0.0
624,56.0,0.0,60.0,4.0,0.0
625,68.0,1.0,30.0,0.0,0.0
626,77.0,30.0,30.0,0.0,0.0
627,56.0,28.0,60.0,4.0,0.0
628,68.0,1.0,30.0,0.0,0.0
629,75.0,30.0,30.0,0.0,0.0
630,75.0,0.0,60.0,1.0,0.0
631,58.0,0.0,60.0,3.0,0.0
632,39.0,0.0,60.0,5.0,0.0
633,63.0,28.0,60.0,2.0,0.0
634,56.0,0.0,60.0,4.0,0.0
635,67.0,2.0,30.0,0.0,0.0
636,58.0,30.0,30.0,0.0,0.0
637,51.0,0.0,60.0,5.0,0.0
638,67.0,28.0,60.0,1.0,0.0
639,67.0,0.0,120.0,3.0,0.0
640,55.0,0.0,60.0,4.0,0.0
641,63.0,0.0,120.0,2.0,0.0
642,67.0,2.0,30.0,0.0,0.0
643,75.0,30.0,30.0,0.0,0.0
644,53.0,28.0,60.0,5.0,0.0
645,69.0,0.0,60.0,1.0,0.0
646,67.0,2.0,30.0,0.0,0.0
647,75.0,30.0,30.0,0.0,0.0
648,55.0,28.0,60.0,5.0,0.0
649,71.0,0.0,60.0,1.0,0.0
650,62.0,0.0,60.0,2.0,0.0
651,55.0,0.0,60.0,3.0,0.0
652,67.0,2.0,30.0,0.0,0.0
653,75.0,2.0,30.0,0.0,0.0
654,53.0,28.0,30.0,4.0,0.0
655,60.0,0.0,60.0,3.0,0.0
656,60.0,0.0,60.0,2.0,0.0
657,72.0,28.0,60.0,1.0,0.0
658,56.0,0.0,60.0,5.0,0.0
659,65.0,2.0,30.0,0.0,0.0
660,51.0,0.0,30.0,4.0,0.0
661,60.0,30.0,30.0,0.0,0.0
662,50.0,0.0,120.0,4.0,0.0
663,65.0,30.0,30.0,0.0,0.0
664,74.0,30.0,30.0,0.0,0.0
665,62.0,0.0,60.0,3.0,0.0
666,68.0,28.0,60.0,1.0,0.0
667,53.0,0.0,60.0,5.0,0.0
668,65.0,0.0,60.0,2.0,0.0
669,65.0,2.0,30.0,0.0,0.0
670,74.0,30.0,30.0,0.0,0.0
671,48.0,27.0,60.0,4.0,0.0
672,65.0,2.0,30.0,0.0,0.0
673,74.0,30.0,30.0,0.0,0.0
674,67.0,0.0,60.0,1.0,0.0
675,55.0,0.0,60.0,3.0,0.0
676,55.0,0.0,60.0,5.0,0.0
677,62.0,0.0,60.0,2.0,0.0
678,47.0,27.0,60.0,4.0,0.0
679,67.0,3.0,30.0,0.0,0.0
680,65.0,3.0,30.0,0.0,0.0
681,45.0,27.0,30.0,4.0,0.0
682,67.0,3.0,30.0,0.0,0.0
683,43.0,27.0,30.0,4.0,0.0
684,74.0,30.0,30.0,0.0,0.0
685,53.0,0.0,60.0,4.0,0.0
686,71.0,0.0,60.0,1.0,0.0
687,43.0,0.0,60.0,5.0,0.0
688,67.0,0.0,60.0,2.0,0.0
689,55.0,27.0,60.0,3.0,0.0
690,67.0,3.0,30.0,0.0,0.0
691,74.0,30.0,30.0,0.0,0.0
692,53.0,27.0,60.0,4.0,0.0
693,67.0,3.0,30.0,0.0,0.0
694,72.0,30.0,30.0,0.0,0.0
695,72.0,0.0,60.0,1.0,0.0
696,67.0,0.0,60.0,2.0,0.0
697,36.0,0.0,60.0,5.0,0.0
698,53.0,27.0,60.0,4.0,0.0
699,55.0,0.0,60.0,3.0,0.0
700,67.0,3.0,30.0,0.0,0.0
701,63.0,3.0,30.0,0.0,0.0
702,51.0,30.0,120.0,4.0,0.0
703,55.0,27.0,30.0,5.0,0.0
704,67.0,3.0,30.0,0.0,0.0
705,53.0,57.0,30.0,5.0,0.0
706,72.0,3.0,60.0,0.0,0.0
707,51.0,0.0,60.0,5.0,0.0
708,50.0,0.0,60.0,5.0,0.0
709,55.0,30.0,30.0,4.0,0.0
710,53.0,60.0,30.0,4.0,0.0
711,48.0,60.0,60.0,5.0,0.0
712,51.0,0.0,60.0,4.0,0.0
713,50.0,30.0,60.0,4.0,0.0
714,46.0,0.0,60.0,5.0,0.0
715,45.0,0.0,60.0,5.0,0.0
716,48.0,30.0,30.0,4.0,0.0
717,50.0,60.0,30.0,4.0,0.0
718,51.0,57.0,60.0,4.0,0.0
719,43.0,0.0,60.0,5.0,0.0
720,45.0,27.0,60.0,4.0,0.0
721,41.0,0.0,60.0,5.0,0.0
722,77.0,3.0,30.0,0.0,0.0
723,79.0,30.0,30.0,0.0,0.0
724,41.0,0.0,60.0,4.0,0.0
725,44.0,27.0,60.0,5.0,0.0
726,77.0,3.0,30.0,0.0,0.0
727,75.0,30.0,30.0,0.0,0.0
728,53.0,27.0,60.0,4.0,0.0
729,46.0,0.0,60.0,5.0,0.0
730,74.0,3.0,30.0,0.0,0.0
731,72.0,30.0,30.0,0.0,0.0
732,53.0,27.0,60.0,4.0,0.0
733,50.0,0.0,60.0,5.0,0.0
734,70.0,3.0,30.0,0.0,0.0
735,69.0,30.0,30.0,0.0,0.0
736,53.0,0.0,120.0,4.0,0.0
737,53.0,27.0,60.0,5.0,0.0
738,63.0,3.0,30.0,0.0,0.0
739,53.0,30.0,30.0,0.0,0.0
740,41.0,27.0,60.0,5.0,0.0
741,63.0,3.0,30.0,0.0,0.0
742,69.0,30.0,30.0,0.0,0.0
743,53.0,27.0,60.0,1.0,0.0
744,63.0,3.0,30.0,0.0,0.0
745,70.0,30.0,30.0,0.0,0.0
746,55.0,27.0,60.0,1.0,0.0
747,63.0,3.0,30.0,0.0,0.0
748,72.0,30.0,30.0,0.0,0.0
749,57.0,27.0,60.0,1.0,0.0
750,63.0,3.0,30.0,0.0,0.0
751,74.0,30.0,30.0,0.0,0.0
752,58.0,27.0,60.0,1.0,0.0
753,41.0,0.0,60.0,4.0,0.0
754,63.0,3.0,30.0,0.0,0.0
755,72.0,30.0,30.0,0.0,0.0
756,57.0,27.0,60.0,1.0,0.0
757,53.0,0.0,60.0,4.0,0.0
758,63.0,3.0,30.0,0.0,0.0
759,70.0,30.0,30.0,0.0,0.0
760,55.0,27.0,60.0,1.0,0.0
761,53.0,0.0,60.0,4.0,0.0
762,63.0,3.0,30.0,0.0,0.0
763,69.0,30.0,30.0,0.0,0.0
764,53.0,27.0,60.0,5.0,0.0
765,53.0,27.0,120.0,1.0,0.0
766,53.0,0.0,120.0,4.0,0.0
767,63.0,3.0,30.0,0.0,0.0
768,53.0,30.0,30.0,0.0,0.0
769,41.0,0.0,60.0,5.0,0.0
770,63.0,3.0,30.0,0.0,0.0
771,69.0,30.0,30.0,0.0,0.0
772,60.0,27.0,60.0,2.0,0.0
773,63.0,0.0,60.0,1.0,0.0
774,53.0,0.0,60.0,3.0,0.0
775,63.0,3.0,30.0,0.0,0.0
776,70.0,30.0,30.0,0.0,0.0
777,58.0,0.0,60.0,2.0,0.0
778,62.0,0.0,60.0,1.0,0.0
779,55.0,27.0,60.0,3.0,0.0
780,63.0,3.0,30.0,0.0,0.0
781,72.0,30.0,30.0,0.0,0.0
782,57.0,0.0,60.0,3.0,0.0
783,57.0,27.0,60.0,2.0,0.0
784,60.0,0.0,60.0,1.0,0.0
785,63.0,3.0,30.0,0.0,0.0
786,74.0,30.0,30.0,0.0,0.0
787,58.0,0.0,60.0,3.0,0.0
788,55.0,0.0,60.0,2.0,0.0
789,58.0,27.0,60.0,1.0,0.0
790,63.0,3.0,30.0,0.0,0.0
791,72.0,30.0,30.0,0.0,0.0
792,60.0,0.0,60.0,1.0,0.0
793,57.0,27.0,60.0,2.0,0.0
794,57.0,0.0,60.0,3.0,0.0
795,63.0,3.0,30.0,0.0,0.0
796,70.0,30.0,30.0,0.0,0.0
797,55.0,0.0,60.0,3.0,0.0
798,58.0,30.0,60.0,2.0,0.0
799,62.0,0.0,60.0,1.0,0.0
800,63.0,3.0,30.0,0.0,0.0
801,53.0,29.0,120.0,3.0,0.0
802,60.0,0.0,30.0,4.0,0.0
803,60.0,0.0,120.0,2.0,0.0
804,63.0,1.0,120.0,1.0,0.0
805,69.0,30.0,30.0,0.0,0.0
806,63.0,30.0,30.0,0.0,0.0
807,58.0,0.0,30.0,4.0,0.0
808,53.0,30.0,30.0,0.0,0.0
809,57.0,0.0,120.0,4.0,0.0
810,63.0,0.0,30.0,0.0,0.0
811,41.0,30.0,60.0,5.0,0.0
812,69.0,30.0,30.0,0.0,0.0
813,63.0,0.0,30.0,0.0,0.0
814,43.0,0.0,60.0,5.0,0.0
815,70.0,30.0,30.0,0.0,0.0
816,55.0,0.0,60.0,4.0,0.0
817,63.0,30.0,30.0,0.0,0.0
818,53.0,30.0,60.0,4.0,0.0
819,45.0,0.0,60.0,5.0,0.0
820,72.0,30.0,30.0,0.0,0.0
821,63.0,0.0,30.0,0.0,0.0
822,69.0,0.0,30.0,0.0,0.0
823,48.0,0.0,60.0,5.0,0.0
824,51.0,30.0,30.0,4.0,0.0
825,63.0,0.0,30.0,0.0,0.0
826,50.0,30.0,30.0,4.0,0.0
827,45.0,0.0,60.0,5.0,0.0
828,72.0,30.0,30.0,0.0,0.0
829,51.0,30.0,60.0,4.0,0.0
830,63.0,0.0,30.0,0.0,0.0
831,41.0,0.0,60.0,5.0,0.0
832,69.0,30.0,30.0,0.0,0.0
833,60.0,0.0,60.0,4.0,0.0
834,63.0,30.0,30.0,0.0,0.0
835,46.0,30.0,60.0,5.0,0.0
836,51.0,0.0,30.0,4.0,0.0
837,70.0,30.0,30.0,0.0,0.0
838,62.0,0.0,30.0,0.0,0.0
839,50.0,0.0,90.0,4.0,0.0
840,53.0,0.0,30.0,0.0,0.0
841,48.0,30.0,60.0,5.0,0.0
842,62.0,0.0,30.0,3.0,0.0
843,65.0,0.0,30.0,2.0,0.0
844,70.0,30.0,30.0,1.0,0.0
845,69.0,0.0,30.0,1.0,0.0
846,60.0,0.0,30.0,3.0,0.0
847,63.0,0.0,30.0,2.0,0.0
848,62.0,0.0,30.0,0.0,0.0
849,70.0,30.0,60.0,1.0,0.0
850,58.0,0.0,60.0,3.0,0.0
851,70.0,30.0,30.0,0.0,0.0
852,62.0,0.0,60.0,2.0,0.0
853,50.0,0.0,60.0,5.0,0.0
854,62.0,0.0,30.0,0.0,0.0
855,51.0,0.0,60.0,5.0,0.0
856,70.0,30.0,30.0,0.0,0.0
857,62.0,0.0,60.0,1.0,0.0
858,55.0,0.0,60.0,3.0,0.0
859,58.0,30.0,60.0,2.0,0.0
860,62.0,0.0,30.0,0.0,0.0
861,60.0,0.0,120.0,3.0,0.0
862,65.0,30.0,120.0,2.0,0.0
863,60.0,0.0,120.0,1.0,0.0
864,69.0,0.0,30.0,0.0,0.0
865,53.0,0.0,120.0,5.0,0.0
866,60.0,30.0,30.0,4.0,0.0
867,63.0,0.0,30.0,0.0,0.0
868,58.0,30.0,30.0,4.0,0.0
869,53.0,30.0,30.0,0.0,0.0
870,57.0,0.0,120.0,4.0,0.0
871,63.0,0.0,30.0,0.0,0.0
872,69.0,30.0,30.0,0.0,0.0
873,41.0,0.0,60.0,5.0,0.0
874,63.0,30.0,30.0,0.0,0.0
875,55.0,0.0,60.0,4.0,0.0
876,70.0,30.0,30.0,0.0,0.0
877,43.0,0.0,60.0,5.0,0.0
878,63.0,30.0,30.0,0.0,0.0
879,72.0,30.0,30.0,0.0,0.0
880,45.0,0.0,60.0,5.0,0.0
881,53.0,0.0,60.0,4.0,0.0
882,63.0,30.0,30.0,0.0,0.0
883,69.0,30.0,30.0,0.0,0.0
884,51.0,0.0,30.0,4.0,0.0
885,48.0,30.0,60.0,5.0,0.0
886,50.0,0.0,30.0,4.0,0.0
887,63.0,0.0,30.0,0.0,0.0
888,51.0,0.0,60.0,4.0,0.0
889,45.0,30.0,60.0,5.0,0.0
890,72.0,30.0,30.0,0.0,0.0
891,63.0,0.0,30.0,0.0,0.0
892,60.0,0.0,60.0,4.0,0.0
893,69.0,30.0,30.0,0.0,0.0
894,41.0,60.0,60.0,5.0,0.0
895,63.0,0.0,30.0,0.0,0.0
896,50.0,30.0,60.0,4.0,0.0
897,70.0,0.0,60.0,0.0,0.0
898,46.0,0.0,60.0,5.0,0.0
899,34.0,0.0,60.0,5.0,0.0
900,67.0,30.0,30.0,1.0,0.0
901,55.0,0.0,120.0,4.0,0.0
902,65.0,60.0,30.0,1.0,0.0
903,46.0,60.0,180.0,5.0,0.0
904,63.0,60.0,60.0,1.0,0.0
905,53.0,60.0,60.0,4.0,0.0
906,62.0,0.0,60.0,1.0,0.0
907,52.0,0.0,60.0,4.0,0.0
908,60.0,0.0,60.0,1.0,0.0
909,45.0,60.0,60.0,5.0,0.0
910,53.0,60.0,120.0,4.0,0.0
911,50.0,0.0,60.0,5.0,0.0
912,46.0,60.0,60.0,4.0,0.0
913,51.0,0.0,60.0,5.0,0.0
914,53.0,60.0,60.0,5.0,0.0
915,50.0,60.0,120.0,4.0,0.0
916,51.0,0.0,60.0,5.0,0.0
917,48.0,0.0,120.0,4.0,0.0
918,53.0,60.0,60.0,5.0,0.0
919,41.0,60.0,60.0,5.0,0.0
920,53.0,0.0,120.0,3.0,0.0
921,70.0,60.0,60.0,0.0,0.0
922,46.0,60.0,120.0,4.0,0.0
923,70.0,0.0,60.0,1.0,0.0
924,46.0,0.0,120.0,5.0,0.0
925,62.0,0.0,120.0,2.0,0.0
926,65.0,60.0,120.0,1.0,0.0
927,65.0,0.0,120.0,0.0,0.0
928,45.0,0.0,120.0,5.0,0.0
929,60.0,0.0,120.0,2.0,0.0
930,53.0,60.0,120.0,3.0,0.0
931,63.0,0.0,60.0,1.0,0.0
932,63.0,0.0,60.0,0.0,0.0
933,58.0,0.0,120.0,2.0,0.0
934,53.0,0.0,120.0,3.0,0.0
935,62.0,30.0,60.0,0.0,0.0
936,62.0,0.0,60.0,1.0,0.0
937,46.0,0.0,60.0,5.0,0.0
938,63.0,0.0,30.0,0.0,0.0
939,48.0,0.0,30.0,5.0,0.0
940,63.0,30.0,30.0,1.0,0.0
941,65.0,0.0,30.0,1.0,0.0
942,50.0,0.0,30.0,5.0,0.0
943,65.0,60.0,30.0,0.0,0.0
944,51.0,0.0,60.0,3.0,0.0
945,58.0,0.0,60.0,2.0,0.0
946,51.0,0.0,60.0,5.0,0.0
947,67.0,60.0,60.0,0.0,0.0
948,67.0,0.0,60.0,1.0,0.0
949,72.0,60.0,60.0,1.0,0.0
950,55.0,0.0,60.0,3.0,0.0
951,63.0,0.0,60.0,2.0,0.0
952,39.0,0.0,120.0,5.0,0.0
953,72.0,0.0,60.0,0.0,0.0
954,69.0,0.0,60.0,0.0,0.0
955,60.0,0.0,60.0,2.0,0.0
956,53.0,60.0,120.0,3.0,0.0
957,69.0,60.0,60.0,1.0,0.0
958,70.0,0.0,60.0,1.0,0.0
959,70.0,0.0,60.0,0.0,0.0
960,65.0,0.0,120.0,2.0,0.0
961,38.0,0.0,60.0,5.0,0.0
962,75.0,0.0,60.0,1.0,0.0
963,75.0,0.0,60.0,0.0,0.0
964,45.0,0.0,60.0,5.0,0.0
965,65.0,60.0,60.0,3.0,0.0
966,70.0,0.0,60.0,2.0,0.0
967,74.0,20.0,60.0,0.0,0.0
968,46.0,0.0,60.0,5.0,0.0
969,74.0,0.0,60.0,1.0,0.0
970,65.0,0.0,60.0,3.0,0.0
971,70.0,0.0,20.0,2.0,0.0
972,74.0,20.0,20.0,1.0,0.0
973,53.0,0.0,60.0,5.0,0.0
974,65.0,60.0,60.0,3.0,0.0
975,74.0,0.0,20.0,0.0,0.0
976,72.0,0.0,20.0,2.0,0.0
977,75.0,0.0,20.0,1.0,0.0
978,75.0,20.0,20.0,0.0,0.0
979,74.0,0.0,20.0,1.0,0.0
980,74.0,0.0,20.0,0.0,0.0
981,70.0,0.0,20.0,2.0,0.0
982,69.0,180.0,60.0,2.0,0.0
983,72.0,0.0,60.0,0.0,0.0
984,72.0,0.0,60.0,1.0,0.0
985,41.0,0.0,60.0,5.0,0.0
986,65.0,0.0,60.0,3.0,0.0
987,67.0,0.0,120.0,2.0,0.0
988,72.0,60.0,60.0,1.0,0.0
989,60.0,60.0,120.0,3.0,0.0
990,72.0,0.0,60.0,0.0,0.0
991,51.0,0.0,120.0,5.0,0.0
992,67.0,60.0,120.0,1.0,0.0
993,67.0,0.0,120.0,0.0,0.0
994,62.0,60.0,120.0,3.0,0.0
995,67.0,0.0,120.0,2.0,0.0
996,47.0,0.0,120.0,5.0,0.0
997,65.0,0.0,60.0,1.0,0.0
998,65.0,0.0,60.0,0.0,0.0
999,63.0,0.0,60.0,1.0,0.0
1000,63.0,30.0,60.0,0.0,0.0
1001,67.0,0.0,120.0,2.0,0.0
1002,60.0,0.0,120.0,3.0,0.0
1003,48.0,0.0,60.0,5.0,0.0
1004,65.0,0.0,30.0,1.0,0.0
1005,65.0,30.0,30.0,0.0,0.0
1006,50.0,0.0,30.0,5.0,0.0
1007,51.0,0.0,30.0,5.0,0.0
1008,67.0,0.0,30.0,1.0,0.0
1009,67.0,15.0,30.0,0.0,0.0
1010,65.0,0.0,60.0,2.0,0.0
1011,60.0,0.0,60.0,3.0,0.0
1012,53.0,0.0,60.0,5.0,0.0
1013,68.0,15.0,15.0,1.0,0.0
1014,68.0,0.0,15.0,0.0,0.0
1015,67.0,0.0,15.0,1.0,0.0
1016,67.0,30.0,15.0,0.0,0.0
1017,65.0,60.0,30.0,1.0,0.0
1018,65.0,0.0,30.0,0.0,0.0
1019,41.0,0.0,120.0,5.0,0.0
1020,74.0,0.0,60.0,0.0,0.0
1021,74.0,0.0,60.0,1.0,0.0
1022,68.0,60.0,60.0,2.0,0.0
1023,65.0,0.0,60.0,3.0,0.0
1024,67.0,60.0,120.0,2.0,0.0
1025,71.0,60.0,60.0,0.0,0.0
1026,62.0,0.0,60.0,3.0,0.0
1027,71.0,0.0,60.0,1.0,0.0
1028,39.0,0.0,60.0,5.0,0.0
1029,72.0,0.0,60.0,0.0,0.0
1030,67.0,0.0,120.0,3.0,0.0
1031,72.0,0.0,60.0,1.0,0.0
1032,77.0,0.0,60.0,0.0,0.0
1033,47.0,0.0,60.0,5.0,0.0
1034,74.0,0.0,60.0,2.0,0.0
1035,77.0,60.0,60.0,1.0,0.0
1036,67.0,0.0,60.0,3.0,0.0
1037,75.0,0.0,60.0,0.0,0.0
1038,72.0,20.0,60.0,2.0,0.0
1039,48.0,0.0,60.0,5.0,0.0
1040,75.0,0.0,60.0,1.0,0.0
1041,67.0,60.0,60.0,3.0,0.0
1042,75.0,0.0,20.0,1.0,0.0
1043,75.0,20.0,20.0,0.0,0.0
1044,55.0,0.0,60.0,5.0,0.0
1045,72.0,0.0,20.0,2.0,0.0
1046,74.0,0.0,20.0,2.0,0.0
1047,77.0,20.0,20.0,0.0,0.0
1048,77.0,0.0,20.0,1.0,0.0
1049,72.0,0.0,20.0,2.0,0.0
1050,75.0,0.0,20.0,1.0,0.0
1051,75.0,0.0,20.0,0.0,0.0
1052,67.0,0.0,60.0,3.0,0.0
1053,71.0,0.0,60.0,2.0,0.0
1054,74.0,0.0,60.0,1.0,0.0
1055,43.0,60.0,60.0,5.0,0.0
1056,74.0,0.0,60.0,0.0,0.0
1057,74.0,30.0,30.0,0.0,0.0
1058,72.0,30.0,30.0,0.0,0.0
1059,74.0,30.0,30.0,0.0,0.0
1060,75.0,30.0,30.0,0.0,0.0
1061,48.0,30.0,60.0,5.0,0.0
1062,67.0,0.0,30.0,0.0,0.0
1063,36.0,15.0,60.0,5.0,0.0
1064,60.0,30.0,30.0,0.0,0.0
1065,67.0,0.0,30.0,0.0,0.0
1066,72.0,15.0,60.0,1.0,0.0
1067,75.0,15.0,15.0,0.0,0.0
1068,67.0,0.0,60.0,2.0,0.0
1069,60.0,0.0,60.0,3.0,0.0
1070,77.0,15.0,15.0,0.0,0.0
1071,75.0,15.0,15.0,0.0,0.0
1072,74.0,0.0,15.0,0.0,0.0
1073,72.0,15.0,15.0,0.0,0.0
1074,63.0,30.0,60.0,2.0,0.0
1075,48.0,0.0,60.0,3.0,0.0
1076,67.0,0.0,60.0,1.0,0.0
1077,70.0,15.0,15.0,0.0,0.0
1078,68.0,15.0,15.0,0.0,0.0
1079,67.0,0.0,15.0,0.0,0.0
1080,68.0,30.0,30.0,0.0,0.0
1081,53.0,30.0,60.0,5.0,0.0
1082,60.0,0.0,30.0,0.0,0.0
1083,53.0,30.0,30.0,0.0,0.0
1084,41.0,15.0,60.0,5.0,0.0
1085,60.0,0.0,30.0,0.0,0.0
1086,68.0,0.0,60.0,1.0,0.0
1087,68.0,15.0,15.0,0.0,0.0
1088,65.0,0.0,60.0,3.0,0.0
1089,60.0,0.0,60.0,2.0,0.0
1090,65.0,15.0,15.0,0.0,0.0
1091,67.0,15.0,15.0,0.0,0.0
1092,68.0,15.0,15.0,0.0,0.0
1093,53.0,30.0,60.0,3.0,0.0
1094,56.0,0.0,60.0,2.0,0.0
1095,65.0,0.0,60.0,1.0,0.0
1096,70.0,15.0,15.0,0.0,0.0
1097,72.0,15.0,15.0,0.0,0.0
1098,74.0,15.0,15.0,0.0,0.0
1099,75.0,0.0,15.0,0.0,0.0
1100,46.0,30.0,60.0,5.0,0.0
1101,74.0,30.0,30.0,0.0,0.0
1102,65.0,0.0,30.0,0.0,0.0
1103,58.0,30.0,30.0,0.0,0.0
1104,34.0,0.0,60.0,5.0,0.0
1105,65.0,15.0,30.0,0.0,0.0
1106,74.0,15.0,15.0,0.0,0.0
1107,58.0,0.0,60.0,3.0,0.0
1108,70.0,0.0,60.0,1.0,0.0
1109,65.0,0.0,60.0,2.0,0.0
1110,75.0,15.0,15.0,0.0,0.0
1111,74.0,15.0,15.0,0.0,0.0
1112,72.0,15.0,15.0,0.0,0.0
1113,70.0,15.0,15.0,0.0,0.0
1114,62.0,0.0,60.0,2.0,0.0
1115,65.0,0.0,60.0,1.0,0.0
1116,46.0,30.0,60.0,3.0,0.0
1117,68.0,15.0,15.0,0.0,0.0
1118,67.0,15.0,15.0,0.0,0.0
1119,65.0,0.0,15.0,0.0,0.0
1120,67.0,30.0,30.0,0.0,0.0
1121,51.0,0.0,60.0,5.0,0.0
1122,58.0,30.0,30.0,0.0,0.0
1123,51.0,30.0,30.0,0.0,0.0
1124,39.0,15.0,60.0,5.0,0.0
1125,58.0,0.0,30.0,0.0,0.0
1126,67.0,15.0,15.0,0.0,0.0
1127,67.0,15.0,60.0,1.0,0.0
1128,63.0,0.0,60.0,3.0,0.0
1129,58.0,0.0,60.0,2.0,0.0
1130,63.0,15.0,15.0,0.0,0.0
1131,65.0,15.0,15.0,0.0,0.0
1132,67.0,0.0,15.0,0.0,0.0
1133,63.0,30.0,60.0,1.0,0.0
1134,68.0,15.0,15.0,0.0,0.0
1135,51.0,0.0,60.0,3.0,0.0
1136,55.0,0.0,60.0,2.0,0.0
1137,70.0,15.0,15.0,0.0,0.0
1138,72.0,15.0,15.0,0.0,0.0
1139,73.0,0.0,15.0,0.0,0.0
1140,72.0,0.0,30.0,0.0,0.0
1141,58.0,30.0,30.0,4.0,0.0
1142,67.0,0.0,60.0,1.0,0.0
1143,60.0,0.0,60.0,2.0,0.0
1144,52.0,29.0,60.0,3.0,0.0
1145,40.0,0.0,60.0,5.0,0.0
1146,70.0,0.0,30.0,0.0,0.0
1147,56.0,1.0,30.0,4.0,0.0
1148,64.0,30.0,30.0,0.0,0.0
1149,55.0,0.0,120.0,4.0,0.0
1150,70.0,30.0,30.0,0.0,0.0
1151,43.0,0.0,60.0,5.0,0.0
1152,72.0,30.0,30.0,0.0,0.0
1153,58.0,29.0,60.0,3.0,0.0
1154,70.0,0.0,60.0,1.0,0.0
1155,64.0,1.0,60.0,2.0,0.0
1156,70.0,0.0,30.0,0.0,0.0
1157,53.0,30.0,60.0,4.0,0.0
1158,72.0,30.0,30.0,0.0,0.0
1159,70.0,0.0,30.0,0.0,0.0
1160,52.0,0.0,60.0,4.0,0.0
1161,79.0,30.0,30.0,0.0,0.0
1162,72.0,1.0,60.0,1.0,0.0
1163,64.0,0.0,60.0,2.0,0.0
1164,36.0,0.0,60.0,5.0,0.0
1165,55.0,29.0,60.0,3.0,0.0
1166,70.0,0.0,30.0,0.0,0.0
1167,60.0,30.0,30.0,0.0,0.0
1168,50.0,0.0,30.0,4.0,0.0
1169,48.0,0.0,30.0,4.0,0.0
1170,70.0,30.0,30.0,0.0,0.0
1171,58.0,0.0,60.0,4.0,0.0
1172,79.0,30.0,30.0,0.0,0.0
1173,48.0,0.0,60.0,5.0,0.0
1174,60.0,29.0,60.0,3.0,0.0
1175,72.0,0.0,60.0,1.0,0.0
1176,64.0,1.0,60.0,2.0,0.0
1177,70.0,0.0,30.0,0.0,0.0
1178,58.0,0.0,60.0,4.0,0.0
1179,79.0,30.0,30.0,0.0,0.0
1180,70.0,30.0,30.0,0.0,0.0
1181,65.0,0.0,60.0,2.0,0.0
1182,53.0,1.0,60.0,5.0,0.0
1183,58.0,0.0,60.0,4.0,0.0
1184,72.0,0.0,60.0,1.0,0.0
1185,60.0,29.0,60.0,3.0,0.0
1186,79.0,30.0,30.0,0.0,0.0
1187,68.0,0.0,30.0,0.0,0.0
1188,60.0,30.0,30.0,0.0,0.0
1189,72.0,0.0,60.0,2.0,0.0
1190,77.0,0.0,60.0,1.0,0.0
1191,41.0,1.0,60.0,5.0,0.0
1192,56.0,0.0,60.0,4.0,0.0
1193,56.0,29.0,60.0,3.0,0.0
1194,68.0,0.0,30.0,0.0,0.0
1195,60.0,29.0,60.0,3.0,0.0
1196,79.0,30.0,30.0,0.0,0.0
1197,44.0,0.0,60.0,5.0,0.0
1198,72.0,0.0,60.0,1.0,0.0
1199,68.0,0.0,60.0,2.0,0.0
1200,68.0,1.0,30.0,0.0,0.0
1201,67.0,0.0,60.0,2.0,0.0
1202,48.0,0.0,60.0,5.0,0.0
1203,79.0,30.0,30.0,0.0,0.0
1204,64.0,29.0,60.0,3.0,0.0
1205,70.0,0.0,60.0,1.0,0.0
1206,68.0,1.0,30.0,0.0,0.0
1207,53.0,0.0,60.0,5.0,0.0
1208,56.0,30.0,30.0,4.0,0.0
1209,65.0,29.0,60.0,3.0,0.0
1210,68.0,0.0,60.0,1.0,0.0
1211,77.0,0.0,30.0,0.0,0.0
1212,60.0,0.0,60.0,2.0,0.0
1213,55.0,1.0,30.0,4.0,0.0
1214,68.0,0.0,30.0,0.0,0.0
1215,60.0,30.0,30.0,0.0,0.0
1216,53.0,0.0,120.0,4.0,0.0
1217,68.0,30.0,30.0,0.0,0.0
1218,53.0,29.0,60.0,3.0,0.0
1219,68.0,0.0,60.0,1.0,0.0
1220,60.0,0.0,60.0,2.0,0.0
1221,77.0,30.0,30.0,0.0,0.0
1222,44.0,0.0,60.0,5.0,0.0
1223,68.0,1.0,30.0,0.0,0.0
1224,51.0,0.0,60.0,4.0,0.0
1225,77.0,30.0,30.0,0.0,0.0
1226,68.0,30.0,30.0,0.0,0.0
1227,58.0,0.0,60.0,3.0,0.0
1228,46.0,1.0,60.0,5.0,0.0
1229,49.0,29.0,60.0,4.0,0.0
1230,68.0,0.0,60.0,1.0,0.0
1231,61.0,0.0,60.0,2.0,0.0
1232,77.0,30.0,30.0,0.0,0.0
1233,68.0,0.0,30.0,0.0,0.0
1234,55.0,29.0,30.0,4.0,0.0
1235,58.0,1.0,30.0,0.0,0.0
1236,56.0,29.0,30.0,4.0,0.0
1237,68.0,1.0,30.0,0.0,0.0
1238,58.0,29.0,60.0,4.0,0.0
1239,67.0,1.0,60.0,1.0,0.0
1240,39.0,0.0,60.0,5.0,0.0
1241,63.0,0.0,60.0,2.0,0.0
1242,58.0,0.0,60.0,3.0,0.0
1243,75.0,30.0,30.0,0.0,0.0
1244,67.0,0.0,30.0,0.0,0.0
1245,49.0,29.0,60.0,4.0,0.0
1246,75.0,30.0,30.0,0.0,0.0
1247,67.0,1.0,30.0,0.0,0.0
1248,63.0,1.0,60.0,2.0,0.0
1249,48.0,0.0,60.0,4.0,0.0
1250,44.0,0.0,60.0,5.0,0.0
1251,68.0,0.0,60.0,1.0,0.0
1252,75.0,30.0,30.0,0.0,0.0
1253,60.0,29.0,60.0,3.0,0.0
1254,68.0,0.0,30.0,0.0,0.0
1255,54.0,29.0,90.0,4.0,0.0
1256,60.0,30.0,30.0,0.0,0.0
1257,51.0,0.0,30.0,5.0,0.0
1258,68.0,31.0,30.0,0.0,0.0
1259,49.0,0.0,30.0,5.0,0.0
1260,75.0,0.0,60.0,0.0,0.0
1261,48.0,1.0,60.0,5.0,0.0
1262,51.0,59.0,30.0,4.0,0.0
1263,44.0,1.0,60.0,5.0,0.0
1264,53.0,29.0,60.0,4.0,0.0
1265,53.0,30.0,30.0,4.0,0.0
1266,49.0,30.0,60.0,5.0,0.0
1267,51.0,0.0,30.0,4.0,0.0
1268,50.0,0.0,120.0,4.0,0.0
1269,47.0,30.0,30.0,5.0,0.0
1270,46.0,60.0,30.0,5.0,0.0
1271,44.0,60.0,60.0,5.0,0.0
1272,51.0,0.0,60.0,4.0,0.0
1273,41.0,60.0,60.0,5.0,0.0
1274,51.0,30.0,120.0,4.0,0.0
1275,43.0,0.0,60.0,5.0,0.0
1276,75.0,30.0,30.0,0.0,0.0
1277,39.0,0.0,60.0,5.0,0.0
1278,77.0,30.0,30.0,0.0,0.0
1279,75.0,0.0,30.0,0.0,0.0
1280,43.0,30.0,60.0,5.0,0.0
1281,39.0,30.0,120.0,4.0,0.0
1282,73.0,30.0,30.0,0.0,0.0
1283,72.0,0.0,30.0,0.0,0.0
1284,70.0,30.0,30.0,0.0,0.0
1285,46.0,0.0,60.0,5.0,0.0
1286,68.0,0.0,30.0,0.0,0.0
1287,51.0,30.0,60.0,5.0,0.0
1288,67.0,30.0,30.0,0.0,0.0
1289,61.0,0.0,30.0,0.0,0.0
1290,39.0,30.0,60.0,5.0,0.0
1291,51.0,30.0,30.0,0.0,0.0
1292,61.0,0.0,30.0,0.0,0.0
1293,67.0,30.0,30.0,0.0,0.0
1294,51.0,25.0,60.0,4.0,0.0
1295,61.0,5.0,30.0,0.0,0.0
1296,68.0,30.0,30.0,0.0,0.0
1297,53.0,25.0,60.0,4.0,0.0
1298,61.0,5.0,30.0,0.0,0.0
1299,70.0,30.0,30.0,0.0,0.0
1300,55.0,25.0,60.0,4.0,0.0
1301,61.0,5.0,30.0,0.0,0.0
1302,72.0,30.0,30.0,0.0,0.0
1303,56.0,25.0,60.0,4.0,0.0
1304,61.0,5.0,30.0,0.0,0.0
1305,70.0,30.0,30.0,0.0,0.0
1306,55.0,25.0,60.0,4.0,0.0
1307,61.0,5.0,30.0,0.0,0.0
1308,68.0,30.0,30.0,0.0,0.0
1309,53.0,25.0,60.0,4.0,0.0
1310,61.0,5.0,30.0,0.0,0.0
1311,67.0,30.0,30.0,0.0,0.0
1312,51.0,5.0,60.0,5.0,0.0
1313,51.0,25.0,60.0,4.0,0.0
1314,61.0,0.0,30.0,0.0,0.0
1315,39.0,0.0,60.0,5.0,0.0
1316,51.0,5.0,30.0,0.0,0.0
1317,49.0,25.0,30.0,4.0,0.0
1318,61.0,5.0,30.0,0.0,0.0
1319,48.0,25.0,30.0,4.0,0.0
1320,51.0,5.0,60.0,2.0,0.0
1321,51.0,0.0,60.0,3.0,0.0
1322,51.0,0.0,60.0,1.0,0.0
1323,67.0,30.0,30.0,0.0,0.0
1324,46.0,25.0,60.0,4.0,0.0
1325,61.0,0.0,30.0,0.0,0.0
1326,53.0,0.0,60.0,3.0,0.0
1327,53.0,0.0,60.0,2.0,0.0
1328,68.0,30.0,30.0,0.0,0.0
1329,53.0,5.0,60.0,1.0,0.0
1330,48.0,25.0,60.0,4.0,0.0
1331,61.0,0.0,30.0,0.0,0.0
1332,70.0,30.0,30.0,0.0,0.0
1333,55.0,0.0,60.0,3.0,0.0
1334,55.0,5.0,60.0,2.0,0.0
1335,55.0,0.0,60.0,1.0,0.0
1336,49.0,25.0,60.0,4.0,0.0
1337,61.0,0.0,30.0,0.0,0.0
1338,56.0,0.0,60.0,3.0,0.0
1339,56.0,0.0,60.0,2.0,0.0
1340,72.0,30.0,30.0,0.0,0.0
1341,56.0,5.0,60.0,1.0,0.0
1342,48.0,25.0,60.0,4.0,0.0
1343,61.0,0.0,30.0,0.0,0.0
1344,55.0,5.0,60.0,3.0,0.0
1345,55.0,0.0,60.0,2.0,0.0
1346,55.0,0.0,60.0,1.0,0.0
1347,70.0,30.0,30.0,0.0,0.0
1348,49.0,25.0,60.0,4.0,0.0
1349,61.0,0.0,30.0,0.0,0.0
1350,53.0,0.0,60.0,1.0,0.0
1351,68.0,30.0,30.0,0.0,0.0
1352,53.0,0.0,60.0,3.0,0.0
1353,53.0,5.0,60.0,2.0,0.0
1354,46.0,25.0,60.0,4.0,0.0
1355,61.0,0.0,30.0,0.0,0.0
1356,51.0,0.0,120.0,2.0,0.0
1357,67.0,30.0,30.0,0.0,0.0
1358,51.0,0.0,120.0,3.0,0.0
1359,51.0,5.0,120.0,1.0,0.0
1360,58.0,30.0,60.0,4.0,0.0
1361,61.0,5.0,30.0,0.0,0.0
1362,51.0,0.0,60.0,0.0,0.0
1363,56.0,25.0,30.0,4.0,0.0
1364,55.0,60.0,30.0,4.0,0.0
1365,53.0,25.0,60.0,4.0,0.0
1366,51.0,30.0,30.0,5.0,0.0
1367,55.0,55.0,60.0,4.0,0.0
1368,49.0,5.0,30.0,5.0,0.0
1369,48.0,5.0,60.0,5.0,0.0
1370,56.0,25.0,60.0,4.0,0.0
1371,46.0,30.0,30.0,5.0,0.0
1372,50.0,55.0,60.0,4.0,0.0
1373,44.0,5.0,30.0,5.0,0.0
1374,43.0,5.0,60.0,5.0,0.0
1375,51.0,25.0,60.0,4.0,0.0
1376,48.0,30.0,30.0,5.0,0.0
1377,44.0,55.0,60.0,4.0,0.0
1378,44.0,5.0,30.0,5.0,0.0
1379,51.0,60.0,60.0,5.0,0.0
1380,48.0,55.0,120.0,4.0,0.0
1381,49.0,5.0,60.0,5.0,0.0
1382,51.0,60.0,60.0,5.0,0.0
1383,46.0,115.0,120.0,4.0,0.0
1384,39.0,5.0,60.0,5.0,0.0
1385,44.0,5.0,120.0,5.0,0.0
1386,44.0,175.0,120.0,4.0,0.0
1387,63.0,0.0,60.0,0.0,0.0
1388,63.0,60.0,60.0,1.0,0.0
1389,58.0,60.0,120.0,2.0,0.0
1390,39.0,0.0,120.0,5.0,0.0
1391,55.0,0.0,120.0,3.0,0.0
1392,58.0,0.0,120.0,1.0,0.0
1393,58.0,60.0,120.0,0.0,0.0
1394,58.0,0.0,120.0,2.0,0.0
1395,38.0,0.0,120.0,5.0,0.0
1396,53.0,60.0,120.0,3.0,0.0
1397,56.0,0.0,60.0,1.0,0.0
1398,56.0,0.0,60.0,0.0,0.0
1399,39.0,0.0,60.0,5.0,0.0
1400,55.0,0.0,60.0,0.0,0.0
1401,58.0,0.0,120.0,2.0,0.0
1402,55.0,30.0,60.0,1.0,0.0
1403,51.0,0.0,120.0,3.0,0.0
1404,56.0,0.0,30.0,0.0,0.0
1405,56.0,30.0,30.0,1.0,0.0
1406,41.0,0.0,30.0,5.0,0.0
1407,58.0,60.0,30.0,1.0,0.0
1408,43.0,0.0,30.0,5.0,0.0
1409,58.0,0.0,30.0,0.0,0.0
1410,51.0,0.0,60.0,3.0,0.0
1411,56.0,0.0,60.0,2.0,0.0
1412,60.0,60.0,60.0,0.0,0.0
1413,60.0,0.0,60.0,1.0,0.0
1414,44.0,0.0,60.0,5.0,0.0
1415,56.0,0.0,120.0,5.0,0.0
1416,60.0,0.0,60.0,2.0,0.0
1417,56.0,0.0,60.0,3.0,0.0
1418,65.0,0.0,60.0,1.0,0.0
1419,65.0,60.0,60.0,0.0,0.0
1420,62.0,0.0,60.0,0.0,0.0
1421,58.0,0.0,120.0,2.0,0.0
1422,62.0,60.0,60.0,1.0,0.0
1423,53.0,0.0,60.0,3.0,0.0
1424,63.0,0.0,60.0,1.0,0.0
1425,55.0,0.0,60.0,5.0,0.0
1426,63.0,60.0,60.0,0.0,0.0
1427,58.0,0.0,120.0,3.0,0.0
1428,68.0,0.0,60.0,0.0,0.0
1429,68.0,0.0,60.0,1.0,0.0
1430,65.0,60.0,60.0,2.0,0.0
1431,50.0,0.0,60.0,5.0,0.0
1432,51.0,0.0,60.0,5.0,0.0
1433,67.0,0.0,60.0,1.0,0.0
1434,67.0,0.0,60.0,0.0,0.0
1435,63.0,20.0,60.0,2.0,0.0
1436,58.0,0.0,60.0,3.0,0.0
1437,63.0,0.0,20.0,2.0,0.0
1438,67.0,0.0,20.0,1.0,0.0
1439,58.0,0.0,60.0,3.0,0.0
1440,67.0,20.0,20.0,0.0,0.0
1441,46.0,0.0,60.0,5.0,0.0
1442,68.0,20.0,20.0,1.0,0.0
1443,65.0,0.0,20.0,2.0,0.0
1444,68.0,0.0,20.0,0.0,0.0
1445,41.0,30.0,30.0,4.0,0.0
1446,67.0,0.0,20.0,0.0,0.0
1447,63.0,0.0,20.0,2.0,0.0
1448,67.0,5.0,20.0,1.0,0.0
1449,58.0,5.0,60.0,3.0,0.0
1450,65.0,0.0,60.0,0.0,0.0
1451,65.0,0.0,60.0,1.0,0.0
1452,34.0,0.0,60.0,5.0,0.0
1453,62.0,0.0,60.0,2.0,0.0
1454,43.0,25.0,30.0,4.0,0.0
1455,44.0,30.0,30.0,4.0,0.0
1456,46.0,30.0,30.0,4.0,0.0
1457,48.0,30.0,30.0,4.0,0.0
1458,50.0,30.0,30.0,4.0,0.0
1459,51.0,55.0,30.0,4.0,0.0
1460,53.0,25.0,60.0,4.0,0.0
1461,68.0,5.0,30.0,0.0,0.0
1462,34.0,0.0,60.0,5.0,0.0
1463,58.0,30.0,30.0,0.0,0.0
1464,46.0,25.0,60.0,4.0,0.0
1465,68.0,5.0,30.0,0.0,0.0
1466,36.0,0.0,60.0,5.0,0.0
1467,77.0,30.0,30.0,0.0,0.0
1468,46.0,25.0,60.0,4.0,0.0
1469,68.0,5.0,30.0,0.0,0.0
1470,38.0,0.0,60.0,5.0,0.0
1471,77.0,30.0,30.0,0.0,0.0
1472,44.0,25.0,60.0,4.0,0.0
1473,68.0,5.0,30.0,0.0,0.0
1474,39.0,0.0,120.0,5.0,0.0
1475,77.0,30.0,30.0,0.0,0.0
1476,43.0,25.0,60.0,4.0,0.0
1477,67.0,5.0,30.0,0.0,0.0
1478,58.0,5.0,30.0,0.0,0.0
1479,44.0,25.0,30.0,4.0,0.0
1480,67.0,5.0,30.0,0.0,0.0
1481,46.0,25.0,30.0,4.0,0.0
1482,77.0,5.0,30.0,0.0,0.0
1483,48.0,25.0,30.0,4.0,0.0
1484,67.0,5.0,30.0,0.0,0.0
1485,50.0,25.0,30.0,4.0,0.0
1486,77.0,5.0,30.0,0.0,0.0
1487,51.0,25.0,30.0,4.0,0.0
1488,67.0,5.0,30.0,0.0,0.0
1489,53.0,25.0,30.0,4.0,0.0
1490,75.0,30.0,30.0,0.0,0.0
1491,55.0,25.0,60.0,4.0,0.0
1492,67.0,5.0,30.0,0.0,0.0
1493,36.0,5.0,60.0,5.0,0.0
1494,60.0,30.0,30.0,0.0,0.0
1495,48.0,25.0,60.0,4.0,0.0
1496,67.0,0.0,30.0,0.0,0.0
1497,75.0,30.0,30.0,0.0,0.0
1498,38.0,5.0,60.0,5.0,0.0
1499,48.0,25.0,60.0,4.0,0.0
1500,67.0,0.0,30.0,0.0,0.0
1501,39.0,0.0,60.0,5.0,0.0
1502,75.0,30.0,30.0,0.0,0.0
1503,46.0,25.0,60.0,4.0,0.0
1504,67.0,5.0,30.0,0.0,0.0
1505,75.0,30.0,30.0,0.0,0.0
1506,41.0,5.0,60.0,5.0,0.0
1507,46.0,25.0,60.0,4.0,0.0
1508,68.0,0.0,30.0,0.0,0.0
1509,65.0,30.0,30.0,0.0,0.0
1510,39.0,0.0,60.0,5.0,0.0
1511,44.0,25.0,60.0,4.0,0.0
1512,68.0,5.0,30.0,0.0,0.0
1513,41.0,30.0,60.0,5.0,0.0
1514,73.0,30.0,30.0,0.0,0.0
1515,68.0,0.0,30.0,0.0,0.0
1516,73.0,30.0,30.0,0.0,0.0
1517,46.0,0.0,60.0,5.0,0.0
1518,68.0,30.0,30.0,0.0,0.0
1519,43.0,0.0,60.0,5.0,0.0
1520,73.0,30.0,30.0,0.0,0.0
1521,58.0,30.0,60.0,4.0,0.0
1522,70.0,0.0,30.0,0.0,0.0
1523,63.0,30.0,30.0,0.0,0.0
1524,51.0,0.0,120.0,4.0,0.0
1525,39.0,30.0,60.0,5.0,0.0
1526,70.0,0.0,30.0,0.0,0.0
1527,73.0,30.0,30.0,0.0,0.0
1528,41.0,0.0,60.0,5.0,0.0
1529,70.0,15.0,30.0,0.0,0.0
1530,46.0,15.0,15.0,4.0,0.0
1531,73.0,0.0,30.0,0.0,0.0
1532,43.0,0.0,60.0,5.0,0.0
1533,48.0,30.0,15.0,4.0,0.0
1534,49.0,0.0,30.0,4.0,0.0
1535,70.0,30.0,30.0,0.0,0.0
1536,44.0,30.0,120.0,5.0,0.0
1537,48.0,30.0,60.0,4.0,0.0
1538,72.0,30.0,30.0,0.0,0.0
1539,70.0,0.0,30.0,0.0,0.0
1540,63.0,30.0,30.0,0.0,0.0
1541,50.0,0.0,30.0,4.0,0.0
1542,52.0,0.0,30.0,4.0,0.0
1543,70.0,0.0,30.0,0.0,0.0
1544,72.0,30.0,30.0,0.0,0.0
1545,53.0,0.0,30.0,4.0,0.0
1546,55.0,0.0,30.0,4.0,0.0
1547,70.0,30.0,30.0,0.0,0.0
1548,72.0,0.0,30.0,0.0,0.0
1549,56.0,30.0,30.0,4.0,0.0
1550,70.0,30.0,30.0,0.0,0.0
1551,58.0,0.0,30.0,4.0,0.0
1552,60.0,0.0,60.0,4.0,0.0
1553,77.0,30.0,30.0,0.0,0.0
1554,68.0,30.0,30.0,0.0,0.0
1555,41.0,0.0,60.0,5.0,0.0
1556,53.0,0.0,60.0,4.0,0.0
1557,60.0,30.0,30.0,0.0,0.0
1558,68.0,30.0,30.0,0.0,0.0
1559,77.0,30.0,30.0,0.0,0.0
1560,53.0,30.0,60.0,4.0,0.0
1561,43.0,0.0,60.0,5.0,0.0
1562,68.0,0.0,30.0,0.0,0.0
1563,77.0,30.0,30.0,0.0,0.0
1564,44.0,0.0,60.0,5.0,0.0
1565,51.0,30.0,60.0,4.0,0.0
1566,68.0,0.0,30.0,0.0,0.0
1567,77.0,30.0,30.0,0.0,0.0
1568,46.0,30.0,60.0,5.0,0.0
1569,51.0,0.0,60.0,4.0,0.0
1570,68.0,0.0,30.0,0.0,0.0
1571,48.0,0.0,60.0,5.0,0.0
1572,50.0,0.0,60.0,4.0,0.0
1573,58.0,30.0,30.0,0.0,0.0
1574,68.0,60.0,30.0,0.0,0.0
1575,53.0,30.0,60.0,4.0,0.0
1576,77.0,0.0,60.0,0.0,0.0
1577,46.0,0.0,60.0,5.0,0.0
1578,44.0,0.0,60.0,5.0,0.0
1579,55.0,30.0,30.0,4.0,0.0
1580,56.0,30.0,30.0,4.0,0.0
1581,43.0,30.0,60.0,5.0,0.0
1582,58.0,30.0,30.0,4.0,0.0
1583,60.0,0.0,30.0,4.0,0.0
1584,41.0,30.0,60.0,5.0,0.0
1585,58.0,30.0,30.0,4.0,0.0
1586,56.0,0.0,30.0,4.0,0.0
1587,39.0,0.0,60.0,5.0,0.0
1588,55.0,30.0,30.0,4.0,0.0
1589,53.0,30.0,30.0,4.0,0.0
1590,41.0,0.0,30.0,5.0,0.0
1591,51.0,30.0,30.0,4.0,0.0
1592,50.0,0.0,30.0,4.0,0.0
1593,43.0,30.0,30.0,5.0,0.0
1594,44.0,30.0,30.0,5.0,0.0
1595,48.0,30.0,60.0,4.0,0.0
1596,46.0,0.0,30.0,5.0,0.0
1597,44.0,30.0,30.0,5.0,0.0
1598,51.0,30.0,60.0,4.0,0.0
1599,43.0,0.0,30.0,5.0,0.0
1600,41.0,30.0,30.0,5.0,0.0
1601,56.0,0.0,180.0,4.0,0.0
1602,39.0,30.0,30.0,5.0,0.0
1603,38.0,30.0,30.0,5.0,0.0
1604,36.0,60.0,30.0,5.0,0.0
1605,34.0,30.0,60.0,5.0,0.0
1606,55.0,0.0,30.0,4.0,0.0
1607,36.0,30.0,30.0,5.0,0.0
1608,38.0,30.0,30.0,5.0,0.0
1609,53.0,0.0,30.0,4.0,0.0
1610,39.0,30.0,30.0,5.0,0.0
1611,55.0,0.0,60.0,4.0,0.0
1612,41.0,30.0,30.0,5.0,0.0
1613,43.0,30.0,30.0,5.0,0.0
1614,46.0,0.0,60.0,4.0,0.0
1615,39.0,30.0,30.0,5.0,0.0
1616,46.0,0.0,60.0,4.0,0.0
1617,41.0,30.0,30.0,5.0,0.0
1618,39.0,30.0,30.0,5.0,0.0
1619,41.0,0.0,30.0,5.0,0.0
1620,44.0,0.0,60.0,4.0,0.0
1621,68.0,30.0,30.0,0.0,0.0
1622,43.0,30.0,30.0,5.0,0.0
1623,70.0,0.0,30.0,0.0,0.0
1624,44.0,30.0,30.0,5.0,0.0
1625,72.0,0.0,30.0,0.0,0.0
1626,46.0,0.0,30.0,5.0,0.0
1627,74.0,30.0,30.0,0.0,0.0
1628,48.0,0.0,30.0,5.0,0.0
1629,75.0,30.0,30.0,0.0,0.0
1630,72.0,0.0,30.0,0.0,0.0
1631,44.0,30.0,30.0,5.0,0.0
1632,46.0,0.0,60.0,5.0,0.0
1633,74.0,30.0,30.0,0.0,0.0
1634,68.0,30.0,30.0,0.0,0.0
1635,60.0,30.0,30.0,0.0,0.0
1636,34.0,30.0,60.0,5.0,0.0
1637,68.0,0.0,30.0,0.0,0.0
1638,74.0,30.0,30.0,0.0,0.0
1639,46.0,30.0,60.0,4.0,0.0
1640,68.0,0.0,30.0,0.0,0.0
1641,75.0,30.0,30.0,0.0,0.0
1642,48.0,0.0,60.0,4.0,0.0
1643,68.0,30.0,30.0,0.0,0.0
1644,77.0,30.0,30.0,0.0,0.0
1645,50.0,0.0,60.0,4.0,0.0
1646,46.0,30.0,60.0,5.0,0.0
1647,68.0,0.0,30.0,0.0,0.0
1648,51.0,0.0,60.0,4.0,0.0
1649,79.0,30.0,30.0,0.0,0.0
1650,34.0,0.0,60.0,5.0,0.0
1651,68.0,30.0,30.0,0.0,0.0
1652,77.0,30.0,30.0,0.0,0.0
1653,50.0,30.0,60.0,4.0,0.0
1654,68.0,0.0,30.0,0.0,0.0
1655,75.0,30.0,30.0,0.0,0.0
1656,48.0,0.0,60.0,4.0,0.0
1657,68.0,30.0,30.0,0.0,0.0
1658,46.0,0.0,60.0,5.0,0.0
1659,74.0,30.0,30.0,0.0,0.0
1660,46.0,0.0,30.0,4.0,0.0
1661,68.0,0.0,30.0,0.0,0.0
1662,48.0,30.0,30.0,4.0,0.0
1663,34.0,0.0,60.0,5.0,0.0
1664,58.0,30.0,30.0,0.0,0.0
1665,50.0,0.0,30.0,4.0,0.0
1666,68.0,0.0,30.0,0.0,0.0
1667,51.0,30.0,30.0,4.0,0.0
1668,58.0,0.0,60.0,2.0,0.0
1669,53.0,0.0,60.0,4.0,0.0
1670,58.0,0.0,60.0,3.0,0.0
1671,58.0,0.0,60.0,1.0,0.0
1672,74.0,30.0,30.0,0.0,0.0
1673,68.0,30.0,30.0,0.0,0.0
1674,60.0,0.0,60.0,2.0,0.0
1675,60.0,0.0,60.0,1.0,0.0
1676,75.0,30.0,30.0,0.0,0.0
1677,55.0,0.0,60.0,4.0,0.0
1678,60.0,30.0,60.0,3.0,0.0
1679,68.0,0.0,30.0,0.0,0.0
1680,77.0,30.0,30.0,0.0,0.0
1681,62.0,0.0,60.0,1.0,0.0
1682,62.0,0.0,60.0,3.0,0.0
1683,62.0,0.0,60.0,2.0,0.0
1684,56.0,30.0,60.0,4.0,0.0
1685,46.0,0.0,60.0,5.0,0.0
1686,68.0,0.0,30.0,0.0,0.0
1687,79.0,0.0,30.0,0.0,0.0
1688,34.0,0.0,60.0,5.0,0.0
1689,63.0,30.0,60.0,3.0,0.0
1690,63.0,0.0,60.0,2.0,0.0
1691,63.0,0.0,60.0,1.0,0.0
1692,58.0,30.0,30.0,4.0,0.0
1693,68.0,0.0,30.0,0.0,0.0
1694,55.0,0.0,30.0,4.0,0.0
1695,56.0,0.0,60.0,4.0,0.0
1696,62.0,0.0,60.0,1.0,0.0
1697,62.0,0.0,60.0,3.0,0.0
1698,77.0,30.0,30.0,0.0,0.0
1699,62.0,30.0,60.0,2.0,0.0
1700,68.0,0.0,30.0,0.0,0.0
1701,60.0,0.0,60.0,1.0,0.0
1702,60.0,0.0,60.0,2.0,0.0
1703,60.0,0.0,60.0,3.0,0.0
1704,58.0,0.0,30.0,4.0,0.0
1705,75.0,30.0,30.0,0.0,0.0
1706,55.0,30.0,30.0,4.0,0.0
1707,68.0,0.0,30.0,0.0,0.0
1708,58.0,0.0,120.0,1.0,0.0
1709,58.0,30.0,120.0,2.0,0.0
1710,58.0,0.0,120.0,3.0,0.0
1711,74.0,30.0,30.0,0.0,0.0
1712,56.0,26.0,180.0,4.0,0.0
1713,68.0,30.0,30.0,0.0,0.0
1714,46.0,0.0,30.0,5.0,0.0
1715,58.0,30.0,30.0,0.0,0.0
1716,48.0,0.0,30.0,5.0,0.0
1717,68.0,0.0,30.0,0.0,0.0
1718,46.0,30.0,30.0,5.0,0.0
1719,74.0,2.0,60.0,0.0,0.0
1720,44.0,0.0,30.0,5.0,0.0
1721,58.0,2.0,30.0,4.0,0.0
1722,43.0,30.0,30.0,5.0,0.0
1723,41.0,2.0,30.0,5.0,0.0
1724,56.0,26.0,30.0,4.0,0.0
1725,55.0,32.0,30.0,4.0,0.0
1726,39.0,0.0,60.0,5.0,0.0
1727,53.0,30.0,30.0,4.0,0.0
1728,41.0,4.0,30.0,5.0,0.0
1729,51.0,26.0,30.0,4.0,0.0
1730,43.0,5.0,30.0,5.0,0.0
1731,50.0,55.0,30.0,4.0,0.0
1732,44.0,4.0,60.0,5.0,0.0
1733,48.0,52.0,60.0,4.0,0.0
1734,53.0,4.0,60.0,4.0,0.0
1735,41.0,60.0,60.0,5.0,0.0
1736,46.0,0.0,60.0,5.0,0.0
1737,50.0,30.0,60.0,4.0,0.0
1738,46.0,0.0,60.0,4.0,0.0
1739,48.0,30.0,30.0,5.0,0.0
1740,50.0,30.0,30.0,5.0,0.0
1741,51.0,0.0,60.0,5.0,0.0
1742,55.0,30.0,30.0,4.0,0.0
1743,53.0,30.0,30.0,4.0,0.0
1744,48.0,0.0,60.0,5.0,0.0
1745,56.0,30.0,30.0,4.0,0.0
1746,55.0,30.0,30.0,4.0,0.0
1747,44.0,30.0,60.0,5.0,0.0
1748,53.0,30.0,30.0,4.0,0.0
1749,50.0,0.0,30.0,4.0,0.0
1750,41.0,0.0,60.0,5.0,0.0
1751,51.0,30.0,30.0,4.0,0.0
1752,48.0,60.0,30.0,4.0,0.0
1753,50.0,30.0,90.0,4.0,0.0
1754,46.0,30.0,60.0,5.0,0.0
1755,34.0,0.0,60.0,5.0,0.0
1756,51.0,60.0,30.0,4.0,0.0
1757,63.0,60.0,60.0,0.0,0.0
1758,63.0,0.0,60.0,1.0,0.0
1759,51.0,60.0,120.0,4.0,0.0
1760,39.0,0.0,120.0,5.0,0.0
1761,58.0,0.0,120.0,2.0,0.0
1762,55.0,0.0,120.0,3.0,0.0
1763,58.0,60.0,120.0,0.0,0.0
1764,58.0,0.0,120.0,1.0,0.0
1765,58.0,0.0,120.0,2.0,0.0
1766,38.0,0.0,120.0,5.0,0.0
1767,53.0,0.0,120.0,3.0,0.0
1768,56.0,0.0,60.0,0.0,0.0
1769,56.0,60.0,60.0,1.0,0.0
1770,51.0,60.0,120.0,3.0,0.0
1771,39.0,0.0,60.0,5.0,0.0
1772,58.0,0.0,120.0,2.0,0.0
1773,55.0,0.0,60.0,0.0,0.0
1774,55.0,30.0,60.0,1.0,0.0
1775,56.0,0.0,30.0,1.0,0.0
1776,56.0,30.0,30.0,0.0,0.0
1777,41.0,0.0,30.0,5.0,0.0
1778,43.0,0.0,30.0,5.0,0.0
1779,58.0,0.0,30.0,1.0,0.0
1780,58.0,0.0,30.0,0.0,0.0
1781,44.0,60.0,60.0,5.0,0.0
1782,56.0,0.0,60.0,2.0,0.0
1783,60.0,0.0,60.0,1.0,0.0
1784,60.0,0.0,60.0,0.0,0.0
1785,51.0,0.0,60.0,3.0,0.0
1786,65.0,0.0,60.0,0.0,0.0
1787,56.0,0.0,60.0,3.0,0.0
1788,60.0,60.0,60.0,2.0,0.0
1789,65.0,0.0,60.0,1.0,0.0
1790,56.0,60.0,120.0,5.0,0.0
1791,62.0,0.0,60.0,0.0,0.0
1792,58.0,0.0,120.0,2.0,0.0
1793,53.0,0.0,60.0,3.0,0.0
1794,62.0,0.0,60.0,1.0,0.0
1795,63.0,60.0,60.0,1.0,0.0
1796,63.0,0.0,60.0,0.0,0.0
1797,58.0,0.0,120.0,3.0,0.0
1798,55.0,0.0,60.0,5.0,0.0
1799,68.0,0.0,60.0,0.0,0.0
1800,50.0,0.0,60.0,5.0,0.0
1801,65.0,60.0,60.0,2.0,0.0
1802,68.0,0.0,60.0,1.0,0.0
1803,51.0,0.0,60.0,5.0,0.0
1804,58.0,0.0,60.0,3.0,0.0
1805,63.0,0.0,60.0,2.0,0.0
1806,67.0,20.0,60.0,1.0,0.0
1807,67.0,0.0,60.0,0.0,0.0
1808,63.0,0.0,20.0,2.0,0.0
1809,58.0,0.0,60.0,5.0,0.0
1810,58.0,0.0,60.0,3.0,0.0
1811,67.0,0.0,20.0,1.0,0.0
1812,67.0,20.0,20.0,0.0,0.0
1813,68.0,0.0,20.0,0.0,0.0
1814,68.0,0.0,20.0,1.0,0.0
1815,65.0,20.0,20.0,2.0,0.0
1816,67.0,0.0,20.0,1.0,0.0
1817,67.0,0.0,20.0,0.0,0.0
1818,63.0,60.0,20.0,2.0,0.0
1819,65.0,0.0,60.0,0.0,0.0
1820,58.0,0.0,60.0,3.0,0.0
1821,46.0,0.0,60.0,5.0,0.0
1822,65.0,180.0,60.0,1.0,0.0
1823,62.0,0.0,60.0,2.0,0.0
1824,65.0,0.0,60.0,1.0,0.0
1825,44.0,0.0,120.0,5.0,0.0
1826,65.0,60.0,60.0,0.0,0.0
1827,60.0,0.0,120.0,2.0,0.0
1828,53.0,60.0,120.0,3.0,0.0
1829,60.0,60.0,120.0,1.0,0.0
1830,60.0,0.0,120.0,0.0,0.0
1831,55.0,0.0,120.0,3.0,0.0
1832,40.0,0.0,120.0,5.0,0.0
1833,60.0,0.0,120.0,2.0,0.0
1834,58.0,60.0,60.0,0.0,0.0
1835,58.0,0.0,60.0,1.0,0.0
1836,56.0,0.0,60.0,1.0,0.0
1837,60.0,0.0,120.0,2.0,0.0
1838,53.0,0.0,120.0,3.0,0.0
1839,41.0,0.0,60.0,5.0,0.0
1840,56.0,30.0,60.0,0.0,0.0
1841,43.0,0.0,30.0,5.0,0.0
1842,58.0,0.0,30.0,1.0,0.0
1843,58.0,30.0,30.0,0.0,0.0
1844,44.0,0.0,30.0,5.0,0.0
1845,60.0,15.0,30.0,0.0,0.0
1846,60.0,0.0,30.0,1.0,0.0
1847,53.0,0.0,60.0,3.0,0.0
1848,61.0,0.0,15.0,0.0,0.0
1849,61.0,15.0,15.0,1.0,0.0
1850,58.0,0.0,60.0,2.0,0.0
1851,46.0,0.0,60.0,5.0,0.0
1852,60.0,0.0,15.0,0.0,0.0
1853,60.0,30.0,15.0,1.0,0.0
1854,58.0,0.0,30.0,0.0,0.0
1855,58.0,60.0,30.0,1.0,0.0
1856,61.0,0.0,60.0,2.0,0.0
1857,67.0,60.0,60.0,1.0,0.0
1858,67.0,0.0,60.0,0.0,0.0
1859,58.0,0.0,60.0,3.0,0.0
1860,55.0,60.0,60.0,3.0,0.0
1861,64.0,0.0,60.0,0.0,0.0
1862,60.0,3.0,120.0,2.0,0.0
1863,64.0,0.0,60.0,1.0,0.0
1864,58.0,0.0,60.0,5.0,0.0
1865,60.0,0.0,120.0,3.0,0.0
1866,65.0,0.0,60.0,0.0,0.0
1867,65.0,0.0,60.0,1.0,0.0
1868,56.0,57.0,60.0,5.0,0.0
1869,70.0,60.0,60.0,0.0,0.0
1870,52.0,0.0,60.0,5.0,0.0
1871,67.0,0.0,60.0,2.0,0.0
1872,70.0,0.0,60.0,1.0,0.0
1873,65.0,0.0,60.0,2.0,0.0
1874,60.0,20.0,60.0,3.0,0.0
1875,68.0,0.0,60.0,1.0,0.0
1876,53.0,0.0,60.0,5.0,0.0
1877,68.0,0.0,60.0,0.0,0.0
1878,65.0,20.0,20.0,2.0,0.0
1879,60.0,0.0,60.0,3.0,0.0
1880,68.0,0.0,20.0,0.0,0.0
1881,68.0,0.0,20.0,1.0,0.0
1882,60.0,0.0,60.0,5.0,0.0
1883,70.0,0.0,20.0,0.0,0.0
1884,67.0,0.0,20.0,2.0,0.0
1885,70.0,20.0,20.0,1.0,0.0
1886,65.0,0.0,20.0,2.0,0.0
1887,68.0,0.0,20.0,1.0,0.0
1888,68.0,60.0,20.0,0.0,0.0
1889,48.0,60.0,60.0,5.0,0.0
1890,60.0,0.0,60.0,3.0,0.0
1891,67.0,0.0,60.0,1.0,0.0
1892,67.0,0.0,60.0,0.0,0.0
1893,64.0,0.0,60.0,2.0,0.0
1894,67.0,30.0,30.0,0.0,0.0
1895,65.0,30.0,30.0,0.0,0.0
1896,67.0,30.0,30.0,0.0,0.0
1897,53.0,0.0,60.0,5.0,0.0
1898,68.0,30.0,30.0,0.0,0.0
1899,60.0,30.0,30.0,0.0,0.0
1900,53.0,30.0,30.0,0.0,0.0
1901,41.0,0.0,60.0,5.0,0.0
1902,60.0,15.0,30.0,0.0,0.0
1903,68.0,15.0,15.0,0.0,0.0
1904,68.0,15.0,60.0,2.0,0.0
1905,72.0,0.0,60.0,1.0,0.0
1906,65.0,0.0,60.0,3.0,0.0
1907,65.0,15.0,15.0,0.0,0.0
1908,67.0,15.0,15.0,0.0,0.0
1909,68.0,0.0,15.0,0.0,0.0
1910,53.0,0.0,60.0,3.0,0.0
1911,60.0,30.0,60.0,2.0,0.0
1912,68.0,0.0,60.0,1.0,0.0
1913,70.0,15.0,15.0,0.0,0.0
1914,72.0,15.0,15.0,0.0,0.0
1915,74.0,15.0,15.0,0.0,0.0
1916,75.0,0.0,15.0,0.0,0.0
1917,44.0,0.0,60.0,5.0,0.0
1918,77.0,30.0,30.0,0.0,0.0
1919,68.0,30.0,30.0,0.0,0.0
1920,60.0,30.0,30.0,0.0,0.0
1921,41.0,30.0,60.0,5.0,0.0
1922,68.0,0.0,30.0,0.0,0.0
1923,56.0,0.0,60.0,3.0,0.0
1924,72.0,0.0,60.0,2.0,0.0
1925,77.0,30.0,60.0,1.0,0.0
1926,77.0,30.0,30.0,0.0,0.0
1927,68.0,0.0,30.0,0.0,0.0
1928,75.0,30.0,30.0,0.0,0.0
1929,68.0,0.0,60.0,2.0,0.0
1930,53.0,0.0,60.0,3.0,0.0
1931,72.0,30.0,60.0,1.0,0.0
1932,68.0,0.0,30.0,0.0,0.0
1933,46.0,30.0,60.0,5.0,0.0
1934,74.0,30.0,30.0,0.0,0.0
1935,68.0,0.0,30.0,0.0,0.0
1936,58.0,30.0,30.0,0.0,0.0
1937,34.0,15.0,60.0,5.0,0.0
1938,68.0,0.0,30.0,0.0,0.0
1939,74.0,0.0,60.0,1.0,0.0
1940,58.0,15.0,60.0,3.0,0.0
1941,65.0,0.0,60.0,2.0,0.0
1942,74.0,15.0,15.0,0.0,0.0
1943,70.0,15.0,15.0,0.0,0.0
1944,72.0,15.0,15.0,0.0,0.0
1945,74.0,0.0,15.0,0.0,0.0
1946,46.0,0.0,60.0,3.0,0.0
1947,70.0,30.0,60.0,1.0,0.0
1948,62.0,0.0,60.0,2.0,0.0
1949,75.0,15.0,15.0,0.0,0.0
1950,77.0,15.0,15.0,0.0,0.0
1951,79.0,15.0,15.0,0.0,0.0
1952,80.0,0.0,15.0,0.0,0.0
1953,82.0,30.0,30.0,0.0,0.0
1954,50.0,0.0,60.0,5.0,0.0
1955,70.0,30.0,30.0,0.0,0.0
1956,58.0,30.0,30.0,0.0,0.0
1957,46.0,30.0,60.0,5.0,0.0
1958,70.0,0.0,30.0,0.0,0.0
1959,82.0,30.0,30.0,0.0,0.0
1960,77.0,0.0,60.0,1.0,0.0
1961,70.0,0.0,60.0,2.0,0.0
1962,62.0,30.0,60.0,3.0,0.0
1963,70.0,0.0,30.0,0.0,0.0
1964,65.0,0.0,60.0,2.0,0.0
1965,58.0,0.0,60.0,3.0,0.0
1966,74.0,30.0,60.0,1.0,0.0
1967,80.0,30.0,30.0,0.0,0.0
1968,70.0,0.0,30.0,0.0,0.0
1969,79.0,30.0,30.0,0.0,0.0
1970,51.0,30.0,60.0,5.0,0.0
1971,70.0,0.0,30.0,0.0,0.0
1972,39.0,0.0,60.0,5.0,0.0
1973,63.0,0.0,60.0,3.0,0.0
1974,67.0,0.0,60.0,2.0,0.0
1975,70.0,30.0,60.0,1.0,0.0
1976,63.0,30.0,30.0,0.0,0.0
1977,70.0,0.0,30.0,0.0,0.0
1978,79.0,30.0,30.0,0.0,0.0
1979,70.0,0.0,60.0,2.0,0.0
1980,67.0,30.0,60.0,3.0,0.0
1981,75.0,0.0,60.0,1.0,0.0
1982,70.0,0.0,30.0,0.0,0.0
1983,67.0,0.0,60.0,2.0,0.0
1984,79.0,30.0,30.0,0.0,0.0
1985,63.0,0.0,60.0,3.0,0.0
1986,79.0,30.0,60.0,1.0,0.0
1987,70.0,0.0,30.0,0.0,0.0
1988,63.0,0.0,60.0,2.0,0.0
1989,72.0,0.0,60.0,1.0,0.0
1990,79.0,30.0,30.0,0.0,0.0
1991,56.0,0.0,60.0,3.0,0.0
1992,72.0,30.0,30.0,0.0,0.0
1993,56.0,30.0,30.0,5.0,0.0
1994,63.0,0.0,30.0,0.0,0.0
1995,55.0,0.0,30.0,5.0,0.0
1996,72.0,30.0,30.0,0.0,0.0
1997,53.0,30.0,60.0,5.0,0.0
1998,77.0,30.0,30.0,0.0,0.0
1999,72.0,0.0,30.0,0.0,0.0
2000,79.0,30.0,30.0,0.0,0.0
2001,51.0,0.0,60.0,5.0,0.0
2002,72.0,30.0,30.0,0.0,0.0
2003,50.0,0.0,60.0,5.0,0.0
2004,77.0,30.0,30.0,0.0,0.0
2005,72.0,30.0,30.0,0.0,0.0
2006,62.0,0.0,60.0,3.0,0.0
2007,38.0,0.0,60.0,5.0,0.0
2008,72.0,0.0,60.0,1.0,0.0
2009,65.0,0.0,60.0,2.0,0.0
2010,62.0,30.0,30.0,0.0,0.0
2011,72.0,30.0,30.0,0.0,0.0
2012,68.0,0.0,60.0,2.0,0.0
2013,65.0,0.0,60.0,3.0,0.0
2014,77.0,30.0,30.0,0.0,0.0
2015,74.0,0.0,60.0,1.0,0.0
2016,72.0,30.0,30.0,0.0,0.0
2017,65.0,0.0,60.0,2.0,0.0
2018,77.0,30.0,60.0,1.0,0.0
2019,77.0,30.0,30.0,0.0,0.0
2020,62.0,0.0,60.0,3.0,0.0
2021,72.0,0.0,30.0,0.0,0.0
2022,77.0,30.0,30.0,0.0,0.0
2023,62.0,0.0,60.0,2.0,0.0
2024,55.0,30.0,60.0,3.0,0.0
2025,70.0,0.0,60.0,1.0,0.0
2026,70.0,0.0,30.0,0.0,0.0
2027,62.0,0.0,30.0,0.0,0.0
2028,55.0,30.0,30.0,5.0,0.0
2029,70.0,0.0,30.0,0.0,0.0
2030,53.0,30.0,30.0,5.0,0.0
2031,51.0,30.0,60.0,5.0,0.0
2032,79.0,30.0,30.0,0.0,0.0
2033,70.0,0.0,30.0,0.0,0.0
2034,50.0,30.0,60.0,5.0,0.0
2035,77.0,30.0,30.0,0.0,0.0
2036,70.0,0.0,30.0,0.0,0.0
2037,48.0,0.0,60.0,5.0,0.0
2038,75.0,30.0,30.0,0.0,0.0
2039,70.0,30.0,30.0,0.0,0.0
2040,60.0,0.0,60.0,3.0,0.0
2041,60.0,30.0,30.0,0.0,0.0
2042,36.0,0.0,60.0,5.0,0.0
2043,70.0,0.0,60.0,1.0,0.0
2044,63.0,30.0,60.0,2.0,0.0
2045,70.0,0.0,30.0,0.0,0.0
2046,72.0,0.0,60.0,1.0,0.0
2047,75.0,30.0,30.0,0.0,0.0
2048,63.0,0.0,60.0,3.0,0.0
2049,67.0,30.0,60.0,2.0,0.0
2050,70.0,0.0,30.0,0.0,0.0
2051,63.0,0.0,60.0,2.0,0.0
2052,75.0,30.0,30.0,0.0,0.0
2053,60.0,30.0,60.0,3.0,0.0
2054,75.0,0.0,60.0,1.0,0.0
2055,70.0,0.0,30.0,0.0,0.0
2056,53.0,30.0,360.0,3.0,0.0
2057,60.0,0.0,240.0,2.0,0.0
2058,68.0,0.0,360.0,1.0,0.0
2059,75.0,30.0,30.0,0.0,0.0
2060,68.0,30.0,30.0,0.0,0.0
2061,53.0,0.0,30.0,5.0,0.0
2062,60.0,30.0,30.0,0.0,0.0
2063,51.0,30.0,30.0,5.0,0.0
2064,68.0,0.0,30.0,0.0,0.0
2065,77.0,30.0,30.0,0.0,0.0
2066,50.0,30.0,60.0,5.0,0.0
2067,68.0,0.0,30.0,0.0,0.0
2068,48.0,0.0,60.0,5.0,0.0
2069,75.0,30.0,30.0,0.0,0.0
2070,68.0,30.0,30.0,0.0,0.0
2071,74.0,30.0,30.0,0.0,0.0
2072,65.0,0.0,120.0,2.0,0.0
2073,46.0,30.0,60.0,5.0,0.0
2074,68.0,0.0,30.0,0.0,0.0
2075,34.0,0.0,60.0,5.0,0.0
2076,58.0,30.0,30.0,0.0,0.0
2077,68.0,0.0,30.0,0.0,0.0
2078,74.0,30.0,30.0,0.0,0.0
2079,58.0,30.0,60.0,1.0,0.0
2080,68.0,0.0,30.0,0.0,0.0
2081,75.0,30.0,30.0,0.0,0.0
2082,60.0,0.0,60.0,1.0,0.0
2083,68.0,30.0,30.0,0.0,0.0
2084,77.0,30.0,30.0,0.0,0.0
2085,62.0,0.0,60.0,1.0,0.0
2086,68.0,30.0,30.0,0.0,0.0
2087,63.0,30.0,60.0,1.0,0.0
2088,79.0,30.0,30.0,0.0,0.0
2089,68.0,0.0,30.0,0.0,0.0
2090,77.0,30.0,30.0,0.0,0.0
2091,62.0,30.0,60.0,1.0,0.0
2092,68.0,0.0,30.0,0.0,0.0
2093,60.0,0.0,60.0,1.0,0.0
2094,75.0,30.0,30.0,0.0,0.0
2095,68.0,30.0,30.0,0.0,0.0
2096,58.0,0.0,120.0,1.0,0.0
2097,74.0,30.0,30.0,0.0,0.0
2098,46.0,30.0,60.0,5.0,0.0
2099,68.0,0.0,30.0,0.0,0.0
2100,34.0,0.0,60.0,5.0,0.0
2101,58.0,30.0,30.0,0.0,0.0
2102,68.0,30.0,30.0,0.0,0.0
2103,74.0,30.0,30.0,0.0,0.0
2104,68.0,0.0,60.0,1.0,0.0
2105,46.0,0.0,60.0,3.0,0.0
2106,65.0,0.0,60.0,2.0,0.0
2107,68.0,30.0,30.0,0.0,0.0
2108,48.0,0.0,60.0,3.0,0.0
2109,67.0,0.0,60.0,1.0,0.0
2110,75.0,30.0,30.0,0.0,0.0
2111,63.0,30.0,60.0,2.0,0.0
2112,68.0,0.0,30.0,0.0,0.0
2113,65.0,0.0,60.0,1.0,0.0
2114,77.0,30.0,30.0,0.0,0.0
2115,62.0,30.0,60.0,2.0,0.0
2116,50.0,0.0,60.0,3.0,0.0
2117,68.0,0.0,30.0,0.0,0.0
2118,60.0,0.0,60.0,2.0,0.0
2119,63.0,0.0,60.0,1.0,0.0
2120,51.0,0.0,60.0,3.0,0.0
2121,79.0,30.0,30.0,0.0,0.0
2122,68.0,30.0,30.0,0.0,0.0
2123,62.0,30.0,60.0,2.0,0.0
2124,50.0,0.0,60.0,3.0,0.0
2125,65.0,0.0,60.0,1.0,0.0
2126,77.0,30.0,30.0,0.0,0.0
2127,68.0,0.0,30.0,0.0,0.0
2128,48.0,0.0,60.0,3.0,0.0
2129,75.0,30.0,30.0,0.0,0.0
2130,67.0,0.0,60.0,1.0,0.0
2131,63.0,0.0,60.0,2.0,0.0
2132,68.0,30.0,30.0,0.0,0.0
2133,46.0,0.0,60.0,3.0,0.0
2134,74.0,30.0,30.0,0.0,0.0
2135,65.0,30.0,60.0,2.0,0.0
2136,68.0,0.0,60.0,1.0,0.0
2137,68.0,0.0,30.0,0.0,0.0
2138,63.0,30.0,30.0,2.0,0.0
2139,67.0,0.0,30.0,0.0,0.0
2140,46.0,0.0,60.0,5.0,0.0
2141,58.0,0.0,60.0,3.0,0.0
2142,67.0,0.0,30.0,1.0,0.0
2143,65.0,0.0,30.0,0.0,0.0
2144,62.0,0.0,30.0,2.0,0.0
2145,65.0,30.0,30.0,1.0,0.0
2146,63.0,0.0,60.0,2.0,0.0
2147,51.0,0.0,60.0,5.0,0.0
2148,67.0,30.0,30.0,0.0,0.0
2149,67.0,30.0,60.0,1.0,0.0
2150,58.0,0.0,60.0,3.0,0.0
2151,75.0,0.0,30.0,0.0,0.0
2152,60.0,0.0,60.0,3.0,0.0
2153,75.0,0.0,60.0,1.0,0.0
2154,44.0,0.0,60.0,5.0,0.0
2155,65.0,30.0,30.0,0.0,0.0
2156,63.0,30.0,60.0,2.0,0.0
2157,63.0,0.0,30.0,0.0,0.0
2158,58.0,30.0,30.0,0.0,0.0
2159,63.0,30.0,60.0,2.0,0.0
2160,58.0,0.0,240.0,3.0,0.0
2161,67.0,30.0,120.0,1.0,0.0
2162,46.0,0.0,120.0,5.0,0.0
2163,65.0,0.0,30.0,0.0,0.0
2164,58.0,20.0,120.0,2.0,0.0
2165,75.0,30.0,30.0,0.0,0.0
2166,72.0,0.0,30.0,0.0,0.0
2167,74.0,10.0,30.0,0.0,0.0
2168,34.0,0.0,120.0,5.0,0.0
2169,65.0,20.0,30.0,1.0,0.0
2170,77.0,0.0,30.0,0.0,0.0
2171,67.0,10.0,30.0,1.0,0.0
2172,56.0,60.0,60.0,2.0,0.0
2173,70.0,30.0,30.0,0.0,0.0
2174,65.0,0.0,30.0,1.0,0.0
2175,74.0,0.0,30.0,0.0,0.0
2176,63.0,0.0,480.0,1.0,0.0
2177,39.0,0.0,480.0,5.0,0.0
2178,75.0,360.0,60.0,0.0,0.0
2179,58.0,0.0,480.0,3.0,0.0
2180,55.0,0.0,480.0,2.0,0.0
2181,63.0,60.0,360.0,0.0,0.0
