,note,step,duration,channel,velocity
0,68.0,0.0,1020.0,0.0,0.0
1,63.0,0.0,1020.0,1.0,0.0
2,44.0,0.0,1020.0,3.0,0.0
3,59.0,1024.0,1020.0,2.0,0.0
4,56.0,1024.0,1020.0,3.0,0.0
5,68.0,0.0,1020.0,1.0,0.0
6,71.0,0.0,1020.0,0.0,0.0
7,63.0,0.0,1020.0,2.0,0.0
8,69.0,512.0,1530.0,1.0,0.0
9,66.0,0.0,1020.0,2.0,0.0
10,73.0,0.0,1020.0,0.0,0.0
11,54.0,512.0,1020.0,3.0,0.0
12,59.0,512.0,1530.0,2.0,0.0
13,52.0,512.0,1020.0,3.0,0.0
14,76.0,0.0,1020.0,0.0,0.0
15,68.0,0.0,510.0,1.0,0.0
16,73.0,0.0,1020.0,0.0,0.0
17,66.0,2048.0,1020.0,1.0,0.0
18,54.0,0.0,1020.0,3.0,0.0
19,57.0,0.0,510.0,2.0,0.0
20,56.0,0.0,2040.0,2.0,0.0
21,49.0,0.0,2040.0,3.0,0.0
22,73.0,0.0,2040.0,0.0,0.0
23,64.0,1536.0,2040.0,1.0,0.0
24,61.0,512.0,1020.0,3.0,0.0
25,64.0,512.0,510.0,2.0,0.0
26,68.0,0.0,510.0,1.0,0.0
27,66.0,0.0,510.0,2.0,0.0
28,70.0,0.0,510.0,1.0,0.0
29,68.0,0.0,510.0,2.0,0.0
30,76.0,0.0,15.0,0.0,0.0
31,71.0,512.0,510.0,1.0,0.0
32,56.0,0.0,510.0,3.0,0.0
33,58.0,512.0,510.0,3.0,0.0
34,66.0,0.0,510.0,2.0,0.0
35,73.0,512.0,1020.0,1.0,0.0
36,75.0,256.0,1020.0,0.0,0.0
37,66.0,0.0,1020.0,2.0,0.0
38,59.0,0.0,1020.0,3.0,0.0
39,71.0,256.0,1020.0,1.0,0.0
40,68.0,256.0,270.0,2.0,0.0
41,52.0,512.0,1020.0,3.0,0.0
42,66.0,0.0,270.0,2.0,0.0
43,70.0,256.0,270.0,1.0,0.0
44,64.0,256.0,1020.0,2.0,0.0
45,68.0,0.0,270.0,1.0,0.0
46,73.0,0.0,15.0,0.0,0.0
47,70.0,0.0,1020.0,1.0,0.0
48,54.0,0.0,1020.0,3.0,0.0
49,66.0,256.0,270.0,2.0,0.0
50,64.0,3072.0,270.0,2.0,0.0
51,66.0,0.0,3060.0,1.0,0.0
52,47.0,0.0,3060.0,3.0,0.0
53,63.0,1024.0,3060.0,2.0,0.0
54,71.0,0.0,3060.0,0.0,0.0
55,56.0,512.0,1020.0,3.0,0.0
56,68.0,0.0,1530.0,2.0,0.0
57,71.0,256.0,1530.0,1.0,0.0
58,76.0,0.0,15.0,0.0,0.0
59,61.0,512.0,1020.0,3.0,0.0
60,66.0,0.0,270.0,2.0,0.0
61,70.0,256.0,270.0,1.0,0.0
62,68.0,0.0,270.0,1.0,0.0
63,64.0,0.0,270.0,2.0,0.0
64,70.0,256.0,510.0,1.0,0.0
65,66.0,0.0,2040.0,2.0,0.0
66,54.0,0.0,510.0,3.0,0.0
67,76.0,0.0,1020.0,0.0,0.0
68,73.0,256.0,1020.0,1.0,0.0
69,56.0,256.0,270.0,3.0,0.0
70,58.0,512.0,270.0,3.0,0.0
71,59.0,256.0,1530.0,3.0,0.0
72,75.0,512.0,1020.0,0.0,0.0
73,71.0,256.0,270.0,1.0,0.0
74,70.0,0.0,270.0,1.0,0.0
75,64.0,0.0,510.0,2.0,0.0
76,73.0,0.0,1020.0,0.0,0.0
77,68.0,0.0,510.0,1.0,0.0
78,58.0,0.0,510.0,3.0,0.0
79,66.0,512.0,510.0,1.0,0.0
80,66.0,256.0,270.0,2.0,0.0
81,64.0,0.0,270.0,2.0,0.0
82,59.0,0.0,510.0,3.0,0.0
83,66.0,256.0,510.0,1.0,0.0
84,63.0,0.0,510.0,2.0,0.0
85,75.0,512.0,1020.0,0.0,0.0
86,71.0,256.0,1020.0,1.0,0.0
87,56.0,0.0,510.0,3.0,0.0
88,68.0,256.0,270.0,2.0,0.0
89,66.0,0.0,270.0,2.0,0.0
90,65.0,0.0,1020.0,2.0,0.0
91,61.0,0.0,1020.0,3.0,0.0
92,70.0,256.0,270.0,1.0,0.0
93,68.0,1024.0,270.0,1.0,0.0
94,66.0,0.0,1020.0,2.0,0.0
95,54.0,512.0,1020.0,3.0,0.0
96,73.0,0.0,15.0,0.0,0.0
97,70.0,0.0,1020.0,1.0,0.0
98,68.0,0.0,1020.0,2.0,0.0
99,68.0,512.0,510.0,1.0,0.0
100,53.0,0.0,1020.0,3.0,0.0
101,71.0,512.0,1020.0,1.0,0.0
102,54.0,0.0,1020.0,3.0,0.0
103,66.0,0.0,1530.0,2.0,0.0
104,73.0,512.0,15.0,0.0,0.0
105,69.0,256.0,1020.0,1.0,0.0
106,71.0,0.0,1020.0,0.0,0.0
107,56.0,0.0,1020.0,3.0,0.0
108,68.0,0.0,270.0,1.0,0.0
109,64.0,256.0,270.0,2.0,0.0
110,66.0,0.0,270.0,1.0,0.0
111,63.0,512.0,270.0,2.0,0.0
112,61.0,0.0,510.0,2.0,0.0
113,57.0,512.0,510.0,3.0,0.0
114,64.0,0.0,1020.0,1.0,0.0
115,73.0,0.0,1020.0,0.0,0.0
116,59.0,0.0,510.0,2.0,0.0
117,56.0,256.0,510.0,3.0,0.0
118,57.0,256.0,1020.0,2.0,0.0
119,75.0,0.0,1020.0,0.0,0.0
120,54.0,0.0,1020.0,3.0,0.0
121,66.0,256.0,270.0,1.0,0.0
122,68.0,512.0,270.0,1.0,0.0
123,69.0,0.0,510.0,1.0,0.0
124,52.0,512.0,1020.0,3.0,0.0
125,76.0,0.0,1020.0,0.0,0.0
126,68.0,256.0,270.0,1.0,0.0
127,59.0,0.0,510.0,2.0,0.0
128,70.0,512.0,270.0,1.0,0.0
129,68.0,0.0,510.0,2.0,0.0
130,71.0,256.0,1020.0,1.0,0.0
131,66.0,256.0,780.0,2.0,0.0
132,73.0,0.0,1020.0,0.0,0.0
133,54.0,1024.0,1020.0,3.0,0.0
134,70.0,0.0,510.0,1.0,0.0
135,64.0,0.0,270.0,2.0,0.0
136,66.0,0.0,1020.0,1.0,0.0
137,63.0,1024.0,1020.0,2.0,0.0
138,71.0,0.0,1020.0,0.0,0.0
139,47.0,0.0,1020.0,3.0,0.0
140,56.0,512.0,1020.0,3.0,0.0
141,71.0,0.0,1530.0,1.0,0.0
142,68.0,256.0,1530.0,2.0,0.0
143,61.0,0.0,1020.0,3.0,0.0
144,76.0,0.0,15.0,0.0,0.0
145,70.0,256.0,270.0,1.0,0.0
146,66.0,0.0,270.0,2.0,0.0
147,68.0,0.0,270.0,1.0,0.0
148,64.0,512.0,270.0,2.0,0.0
149,54.0,0.0,510.0,3.0,0.0
150,76.0,0.0,1020.0,0.0,0.0
151,66.0,512.0,2040.0,2.0,0.0
152,70.0,256.0,510.0,1.0,0.0
153,73.0,256.0,1020.0,1.0,0.0
154,56.0,256.0,270.0,3.0,0.0
155,58.0,512.0,270.0,3.0,0.0
156,59.0,0.0,1530.0,3.0,0.0
157,75.0,0.0,1020.0,0.0,0.0
158,71.0,256.0,270.0,1.0,0.0
159,70.0,0.0,270.0,1.0,0.0
160,64.0,0.0,510.0,2.0,0.0
161,68.0,256.0,510.0,1.0,0.0
162,73.0,0.0,1020.0,0.0,0.0
163,66.0,256.0,270.0,2.0,0.0
164,58.0,0.0,510.0,3.0,0.0
165,64.0,512.0,270.0,2.0,0.0
166,63.0,0.0,510.0,2.0,0.0
167,59.0,256.0,510.0,3.0,0.0
168,75.0,0.0,1020.0,0.0,0.0
169,66.0,0.0,15.0,1.0,0.0
170,71.0,256.0,1020.0,1.0,0.0
171,56.0,512.0,510.0,3.0,0.0
172,68.0,256.0,270.0,2.0,0.0
173,66.0,0.0,270.0,2.0,0.0
174,65.0,0.0,1020.0,2.0,0.0
175,61.0,0.0,1020.0,3.0,0.0
176,70.0,256.0,270.0,1.0,0.0
177,68.0,0.0,270.0,1.0,0.0
178,73.0,1024.0,15.0,0.0,0.0
179,54.0,0.0,1020.0,3.0,0.0
180,70.0,0.0,1020.0,1.0,0.0
181,66.0,0.0,1020.0,2.0,0.0
182,53.0,0.0,1020.0,3.0,0.0
183,68.0,512.0,510.0,1.0,0.0
184,73.0,512.0,15.0,0.0,0.0
185,68.0,0.0,1020.0,2.0,0.0
186,71.0,512.0,1020.0,1.0,0.0
187,66.0,256.0,1530.0,2.0,0.0
188,54.0,0.0,1020.0,3.0,0.0
189,73.0,512.0,15.0,0.0,0.0
190,69.0,0.0,1020.0,1.0,0.0
191,71.0,512.0,1020.0,0.0,0.0
192,56.0,0.0,1020.0,3.0,0.0
193,64.0,256.0,270.0,2.0,0.0
194,68.0,0.0,270.0,1.0,0.0
195,63.0,0.0,270.0,2.0,0.0
196,66.0,0.0,270.0,1.0,0.0
197,64.0,0.0,1020.0,1.0,0.0
198,57.0,0.0,510.0,3.0,0.0
199,61.0,512.0,510.0,2.0,0.0
200,73.0,0.0,1020.0,0.0,0.0
201,56.0,256.0,510.0,3.0,0.0
202,59.0,0.0,510.0,2.0,0.0
203,66.0,256.0,270.0,1.0,0.0
204,75.0,0.0,1020.0,0.0,0.0
205,57.0,0.0,1020.0,2.0,0.0
206,54.0,0.0,1020.0,3.0,0.0
207,68.0,512.0,270.0,1.0,0.0
208,69.0,256.0,510.0,1.0,0.0
209,52.0,0.0,1020.0,3.0,0.0
210,68.0,256.0,270.0,1.0,0.0
211,59.0,512.0,510.0,2.0,0.0
212,76.0,0.0,1020.0,0.0,0.0
213,70.0,0.0,270.0,1.0,0.0
214,71.0,256.0,1020.0,1.0,0.0
215,68.0,512.0,510.0,2.0,0.0
216,54.0,1024.0,1020.0,3.0,0.0
217,66.0,256.0,780.0,2.0,0.0
218,73.0,0.0,1020.0,0.0,0.0
219,70.0,0.0,510.0,1.0,0.0
220,64.0,0.0,270.0,2.0,0.0
221,66.0,0.0,1020.0,1.0,0.0
222,63.0,0.0,1020.0,2.0,0.0
223,47.0,0.0,1020.0,3.0,0.0
224,71.0,1024.0,1020.0,0.0,0.0
225,68.0,0.0,1530.0,2.0,0.0
226,71.0,256.0,1530.0,1.0,0.0
227,56.0,0.0,1020.0,3.0,0.0
228,76.0,512.0,1020.0,0.0,0.0
229,61.0,0.0,1020.0,3.0,0.0
230,66.0,256.0,270.0,2.0,0.0
231,70.0,0.0,270.0,1.0,0.0
232,68.0,0.0,270.0,1.0,0.0
233,64.0,512.0,270.0,2.0,0.0
234,76.0,0.0,15.0,0.0,0.0
235,54.0,0.0,510.0,3.0,0.0
236,70.0,256.0,510.0,1.0,0.0
237,66.0,0.0,2040.0,2.0,0.0
238,73.0,256.0,1020.0,1.0,0.0
239,56.0,256.0,270.0,3.0,0.0
240,58.0,512.0,270.0,3.0,0.0
241,75.0,0.0,1020.0,0.0,0.0
242,59.0,0.0,1530.0,3.0,0.0
243,71.0,256.0,270.0,1.0,0.0
244,70.0,512.0,270.0,1.0,0.0
245,64.0,256.0,510.0,2.0,0.0
246,68.0,0.0,510.0,1.0,0.0
247,73.0,512.0,1020.0,0.0,0.0
248,58.0,0.0,510.0,3.0,0.0
249,66.0,256.0,270.0,2.0,0.0
250,64.0,0.0,270.0,2.0,0.0
251,59.0,0.0,510.0,3.0,0.0
252,66.0,0.0,15.0,1.0,0.0
253,63.0,0.0,510.0,2.0,0.0
254,75.0,0.0,1020.0,0.0,0.0
255,68.0,256.0,270.0,2.0,0.0
256,56.0,512.0,510.0,3.0,0.0
257,71.0,256.0,1020.0,1.0,0.0
258,66.0,0.0,270.0,2.0,0.0
259,65.0,0.0,1020.0,2.0,0.0
260,61.0,1024.0,1020.0,3.0,0.0
261,70.0,256.0,270.0,1.0,0.0
262,68.0,0.0,270.0,1.0,0.0
263,73.0,0.0,15.0,0.0,0.0
264,66.0,0.0,1020.0,2.0,0.0
265,70.0,0.0,1020.0,1.0,0.0
266,54.0,512.0,1020.0,3.0,0.0
267,73.0,0.0,1020.0,0.0,0.0
268,68.0,512.0,510.0,1.0,0.0
269,53.0,512.0,1020.0,3.0,0.0
270,68.0,0.0,1020.0,2.0,0.0
271,71.0,512.0,1020.0,1.0,0.0
272,73.0,0.0,1020.0,0.0,0.0
273,66.0,0.0,1530.0,2.0,0.0
274,54.0,512.0,1020.0,3.0,0.0
275,69.0,256.0,1020.0,1.0,0.0
276,71.0,512.0,1020.0,0.0,0.0
277,56.0,0.0,1020.0,3.0,0.0
278,68.0,0.0,270.0,1.0,0.0
279,64.0,256.0,270.0,2.0,0.0
280,66.0,0.0,270.0,1.0,0.0
281,63.0,0.0,270.0,2.0,0.0
282,57.0,0.0,510.0,3.0,0.0
283,61.0,512.0,510.0,2.0,0.0
284,64.0,256.0,1020.0,1.0,0.0
285,73.0,0.0,1020.0,0.0,0.0
286,59.0,0.0,510.0,2.0,0.0
287,56.0,0.0,510.0,3.0,0.0
288,75.0,256.0,1020.0,0.0,0.0
289,54.0,0.0,1020.0,3.0,0.0
290,57.0,0.0,1020.0,2.0,0.0
291,66.0,256.0,270.0,1.0,0.0
292,68.0,512.0,270.0,1.0,0.0
293,69.0,0.0,510.0,1.0,0.0
294,52.0,0.0,1020.0,3.0,0.0
295,76.0,512.0,1020.0,0.0,0.0
296,59.0,512.0,510.0,2.0,0.0
297,68.0,256.0,270.0,1.0,0.0
298,70.0,0.0,270.0,1.0,0.0
299,68.0,0.0,510.0,2.0,0.0
300,71.0,256.0,1020.0,1.0,0.0
301,73.0,0.0,1020.0,0.0,0.0
302,54.0,0.0,1020.0,3.0,0.0
303,66.0,256.0,780.0,2.0,0.0
304,70.0,1024.0,510.0,1.0,0.0
305,64.0,0.0,270.0,2.0,0.0
306,71.0,0.0,1020.0,0.0,0.0
307,47.0,0.0,1020.0,3.0,0.0
308,63.0,1024.0,1020.0,2.0,0.0
309,66.0,0.0,1020.0,1.0,0.0
310,59.0,256.0,1530.0,2.0,0.0
311,52.0,512.0,1020.0,3.0,0.0
312,64.0,0.0,1020.0,1.0,0.0
313,68.0,0.0,1020.0,0.0,0.0
314,71.0,0.0,1020.0,0.0,0.0
315,66.0,512.0,1020.0,1.0,0.0
316,51.0,0.0,1020.0,3.0,0.0
317,61.0,256.0,270.0,2.0,0.0
318,63.0,0.0,270.0,2.0,0.0
319,64.0,0.0,510.0,2.0,0.0
320,73.0,0.0,1020.0,0.0,0.0
321,49.0,256.0,510.0,3.0,0.0
322,68.0,0.0,510.0,1.0,0.0
323,66.0,256.0,270.0,1.0,0.0
324,61.0,0.0,1020.0,2.0,0.0
325,57.0,256.0,510.0,3.0,0.0
326,64.0,0.0,270.0,1.0,0.0
327,54.0,256.0,510.0,3.0,0.0
328,69.0,256.0,270.0,1.0,0.0
329,68.0,0.0,270.0,1.0,0.0
330,51.0,0.0,510.0,3.0,0.0
331,66.0,256.0,1020.0,1.0,0.0
332,60.0,256.0,270.0,2.0,0.0
333,58.0,512.0,270.0,2.0,0.0
334,75.0,0.0,15.0,0.0,0.0
335,56.0,0.0,1020.0,3.0,0.0
336,60.0,0.0,1020.0,2.0,0.0
337,68.0,256.0,270.0,1.0,0.0
338,66.0,0.0,270.0,1.0,0.0
339,64.0,0.0,3060.0,1.0,0.0
340,49.0,1024.0,3060.0,3.0,0.0
341,56.0,0.0,3060.0,2.0,0.0
342,73.0,0.0,3060.0,0.0,0.0
343,68.0,0.0,1020.0,0.0,0.0
344,64.0,0.0,1020.0,1.0,0.0
345,52.0,512.0,1020.0,3.0,0.0
346,59.0,256.0,1530.0,2.0,0.0
347,71.0,0.0,1020.0,0.0,0.0
348,66.0,0.0,1020.0,1.0,0.0
349,51.0,512.0,1020.0,3.0,0.0
350,61.0,256.0,270.0,2.0,0.0
351,63.0,0.0,270.0,2.0,0.0
352,64.0,256.0,510.0,2.0,0.0
353,49.0,0.0,510.0,3.0,0.0
354,68.0,0.0,510.0,1.0,0.0
355,73.0,0.0,1020.0,0.0,0.0
356,66.0,256.0,270.0,1.0,0.0
357,57.0,0.0,510.0,3.0,0.0
358,61.0,0.0,1020.0,2.0,0.0
359,64.0,256.0,270.0,1.0,0.0
360,54.0,256.0,510.0,3.0,0.0
361,69.0,256.0,270.0,1.0,0.0
362,68.0,0.0,270.0,1.0,0.0
363,60.0,256.0,270.0,2.0,0.0
364,66.0,256.0,1020.0,1.0,0.0
365,51.0,512.0,510.0,3.0,0.0
366,58.0,0.0,270.0,2.0,0.0
367,60.0,0.0,1020.0,2.0,0.0
368,56.0,0.0,1020.0,3.0,0.0
369,75.0,0.0,15.0,0.0,0.0
370,68.0,256.0,270.0,1.0,0.0
371,66.0,3072.0,270.0,1.0,0.0
372,56.0,0.0,3060.0,2.0,0.0
373,49.0,0.0,3060.0,3.0,0.0
374,64.0,512.0,3060.0,1.0,0.0
375,73.0,0.0,3060.0,0.0,0.0
376,56.0,0.0,510.0,3.0,0.0
377,71.0,0.0,510.0,1.0,0.0
378,75.0,0.0,1020.0,0.0,0.0
379,68.0,512.0,510.0,2.0,0.0
380,67.0,0.0,510.0,2.0,0.0
381,58.0,512.0,510.0,3.0,0.0
382,73.0,0.0,510.0,1.0,0.0
383,68.0,512.0,1020.0,2.0,0.0
384,75.0,0.0,1020.0,0.0,0.0
385,59.0,512.0,510.0,3.0,0.0
386,58.0,0.0,510.0,3.0,0.0
387,56.0,0.0,1020.0,3.0,0.0
388,71.0,0.0,15.0,1.0,0.0
389,76.0,512.0,510.0,0.0,0.0
390,68.0,1024.0,1020.0,2.0,0.0
391,78.0,0.0,510.0,0.0,0.0
392,66.0,512.0,1020.0,2.0,0.0
393,71.0,0.0,15.0,1.0,0.0
394,80.0,0.0,1020.0,0.0,0.0
395,51.0,0.0,1020.0,3.0,0.0
396,73.0,512.0,1020.0,0.0,0.0
397,68.0,0.0,510.0,2.0,0.0
398,53.0,0.0,1020.0,3.0,0.0
399,61.0,256.0,1020.0,2.0,0.0
400,69.0,256.0,270.0,1.0,0.0
401,68.0,0.0,270.0,1.0,0.0
402,54.0,0.0,1020.0,3.0,0.0
403,69.0,0.0,1530.0,1.0,0.0
404,73.0,512.0,1020.0,0.0,0.0
405,66.0,256.0,270.0,2.0,0.0
406,64.0,0.0,270.0,2.0,0.0
407,59.0,0.0,1020.0,3.0,0.0
408,63.0,256.0,510.0,2.0,0.0
409,71.0,0.0,1020.0,0.0,0.0
410,68.0,256.0,270.0,1.0,0.0
411,64.0,0.0,270.0,2.0,0.0
412,66.0,0.0,270.0,1.0,0.0
413,63.0,512.0,270.0,2.0,0.0
414,64.0,0.0,510.0,1.0,0.0
415,57.0,256.0,510.0,3.0,0.0
416,61.0,0.0,510.0,2.0,0.0
417,73.0,0.0,1020.0,0.0,0.0
418,66.0,0.0,270.0,1.0,0.0
419,63.0,256.0,270.0,2.0,0.0
420,56.0,0.0,510.0,3.0,0.0
421,68.0,1024.0,270.0,1.0,0.0
422,64.0,0.0,270.0,2.0,0.0
423,54.0,0.0,1020.0,3.0,0.0
424,75.0,0.0,1020.0,0.0,0.0
425,66.0,0.0,1020.0,2.0,0.0
426,69.0,256.0,1020.0,1.0,0.0
427,52.0,512.0,1020.0,3.0,0.0
428,59.0,512.0,510.0,2.0,0.0
429,68.0,256.0,270.0,1.0,0.0
430,76.0,0.0,1020.0,0.0,0.0
431,70.0,0.0,270.0,1.0,0.0
432,71.0,256.0,1020.0,1.0,0.0
433,68.0,0.0,510.0,2.0,0.0
434,73.0,0.0,1020.0,0.0,0.0
435,66.0,256.0,780.0,2.0,0.0
436,54.0,1024.0,1020.0,3.0,0.0
437,70.0,0.0,510.0,1.0,0.0
438,64.0,0.0,270.0,2.0,0.0
439,66.0,0.0,1020.0,1.0,0.0
440,63.0,0.0,1020.0,2.0,0.0
441,71.0,512.0,1020.0,0.0,0.0
442,47.0,0.0,1020.0,3.0,0.0
443,56.0,0.0,510.0,3.0,0.0
444,71.0,512.0,510.0,1.0,0.0
445,64.0,512.0,1020.0,2.0,0.0
446,69.0,0.0,510.0,1.0,0.0
447,54.0,0.0,510.0,3.0,0.0
448,59.0,0.0,1530.0,2.0,0.0
449,52.0,512.0,510.0,3.0,0.0
450,76.0,0.0,15.0,0.0,0.0
451,68.0,0.0,510.0,1.0,0.0
452,70.0,0.0,510.0,1.0,0.0
453,54.0,512.0,510.0,3.0,0.0
454,56.0,0.0,510.0,3.0,0.0
455,76.0,0.0,1020.0,0.0,0.0
456,71.0,512.0,510.0,1.0,0.0
457,58.0,0.0,510.0,3.0,0.0
458,73.0,512.0,1020.0,1.0,0.0
459,75.0,0.0,1020.0,0.0,0.0
460,59.0,512.0,1020.0,3.0,0.0
461,66.0,512.0,15.0,2.0,0.0
462,71.0,512.0,1020.0,1.0,0.0
463,73.0,0.0,1020.0,0.0,0.0
464,54.0,0.0,1020.0,3.0,0.0
465,70.0,512.0,510.0,1.0,0.0
466,66.0,0.0,15.0,2.0,0.0
467,75.0,512.0,1020.0,0.0,0.0
468,47.0,0.0,1020.0,3.0,0.0
469,71.0,512.0,510.0,1.0,0.0
470,70.0,0.0,510.0,1.0,0.0
471,49.0,0.0,1020.0,3.0,0.0
472,68.0,0.0,1020.0,1.0,0.0
473,73.0,0.0,1020.0,0.0,0.0
474,65.0,1024.0,510.0,2.0,0.0
475,42.0,0.0,1020.0,3.0,0.0
476,70.0,0.0,1020.0,1.0,0.0
477,73.0,0.0,1020.0,0.0,0.0
478,66.0,512.0,1020.0,2.0,0.0
479,54.0,512.0,510.0,3.0,0.0
480,66.0,256.0,1020.0,1.0,0.0
481,57.0,0.0,510.0,2.0,0.0
482,73.0,0.0,1020.0,0.0,0.0
483,59.0,0.0,510.0,2.0,0.0
484,56.0,0.0,510.0,3.0,0.0
485,61.0,0.0,510.0,2.0,0.0
486,64.0,256.0,270.0,1.0,0.0
487,57.0,0.0,1020.0,3.0,0.0
488,73.0,0.0,1020.0,0.0,0.0
489,61.0,512.0,270.0,1.0,0.0
490,66.0,512.0,1020.0,1.0,0.0
491,57.0,512.0,510.0,2.0,0.0
492,71.0,0.0,1020.0,0.0,0.0
493,56.0,512.0,1020.0,3.0,0.0
494,59.0,0.0,1530.0,2.0,0.0
495,64.0,256.0,1020.0,1.0,0.0
496,73.0,0.0,1020.0,0.0,0.0
497,54.0,0.0,1020.0,3.0,0.0
498,58.0,0.0,510.0,2.0,0.0
499,66.0,256.0,270.0,1.0,0.0
500,64.0,512.0,270.0,1.0,0.0
501,59.0,512.0,510.0,3.0,0.0
502,75.0,0.0,1020.0,0.0,0.0
503,66.0,0.0,1020.0,2.0,0.0
504,63.0,0.0,510.0,1.0,0.0
505,66.0,512.0,510.0,1.0,0.0
506,57.0,0.0,510.0,3.0,0.0
507,64.0,512.0,510.0,2.0,0.0
508,76.0,0.0,1020.0,0.0,0.0
509,56.0,0.0,510.0,3.0,0.0
510,71.0,256.0,1530.0,1.0,0.0
511,52.0,0.0,510.0,3.0,0.0
512,68.0,512.0,510.0,2.0,0.0
513,54.0,0.0,1020.0,3.0,0.0
514,73.0,0.0,1020.0,0.0,0.0
515,66.0,256.0,780.0,2.0,0.0
516,70.0,0.0,510.0,1.0,0.0
517,64.0,1024.0,270.0,2.0,0.0
518,66.0,0.0,1020.0,1.0,0.0
519,47.0,512.0,1020.0,3.0,0.0
520,71.0,0.0,1020.0,0.0,0.0
521,63.0,0.0,1020.0,2.0,0.0
522,56.0,512.0,510.0,3.0,0.0
523,76.0,0.0,1020.0,0.0,0.0
524,64.0,512.0,1020.0,2.0,0.0
525,71.0,0.0,510.0,1.0,0.0
526,54.0,0.0,510.0,3.0,0.0
527,69.0,0.0,510.0,1.0,0.0
528,52.0,512.0,510.0,3.0,0.0
529,59.0,0.0,1530.0,2.0,0.0
530,68.0,0.0,510.0,1.0,0.0
531,70.0,0.0,510.0,1.0,0.0
532,54.0,512.0,510.0,3.0,0.0
533,76.0,0.0,15.0,0.0,0.0
534,56.0,0.0,510.0,3.0,0.0
535,71.0,512.0,510.0,1.0,0.0
536,58.0,512.0,510.0,3.0,0.0
537,73.0,512.0,1020.0,1.0,0.0
538,66.0,0.0,15.0,2.0,0.0
539,75.0,512.0,1020.0,0.0,0.0
540,59.0,0.0,1020.0,3.0,0.0
541,71.0,512.0,1020.0,1.0,0.0
542,73.0,0.0,1020.0,0.0,0.0
543,54.0,0.0,1020.0,3.0,0.0
544,70.0,512.0,510.0,1.0,0.0
545,75.0,0.0,1020.0,0.0,0.0
546,71.0,512.0,510.0,1.0,0.0
547,47.0,512.0,1020.0,3.0,0.0
548,66.0,0.0,15.0,2.0,0.0
549,70.0,0.0,510.0,1.0,0.0
550,73.0,0.0,1020.0,0.0,0.0
551,49.0,0.0,1020.0,3.0,0.0
552,68.0,1024.0,1020.0,1.0,0.0
553,65.0,0.0,510.0,2.0,0.0
554,42.0,0.0,1020.0,3.0,0.0
555,66.0,512.0,1020.0,2.0,0.0
556,70.0,0.0,1020.0,1.0,0.0
557,73.0,0.0,15.0,0.0,0.0
558,54.0,512.0,510.0,3.0,0.0
559,66.0,0.0,1020.0,1.0,0.0
560,57.0,0.0,510.0,2.0,0.0
561,59.0,256.0,510.0,2.0,0.0
562,56.0,0.0,510.0,3.0,0.0
563,57.0,512.0,1020.0,3.0,0.0
564,64.0,256.0,270.0,1.0,0.0
565,73.0,0.0,1020.0,0.0,0.0
566,61.0,0.0,510.0,2.0,0.0
567,61.0,512.0,270.0,1.0,0.0
568,66.0,512.0,1020.0,1.0,0.0
569,57.0,0.0,510.0,2.0,0.0
570,56.0,0.0,1020.0,3.0,0.0
571,71.0,512.0,1020.0,0.0,0.0
572,59.0,0.0,1530.0,2.0,0.0
573,64.0,256.0,1020.0,1.0,0.0
574,54.0,0.0,1020.0,3.0,0.0
575,73.0,512.0,1020.0,0.0,0.0
576,58.0,0.0,510.0,2.0,0.0
577,66.0,256.0,270.0,1.0,0.0
578,64.0,0.0,270.0,1.0,0.0
579,63.0,512.0,510.0,1.0,0.0
580,66.0,0.0,1020.0,2.0,0.0
581,59.0,0.0,510.0,3.0,0.0
582,75.0,512.0,1020.0,0.0,0.0
583,57.0,0.0,510.0,3.0,0.0
584,66.0,0.0,510.0,1.0,0.0
585,71.0,256.0,1530.0,1.0,0.0
586,56.0,0.0,510.0,3.0,0.0
587,64.0,512.0,510.0,2.0,0.0
588,76.0,0.0,1020.0,0.0,0.0
589,52.0,0.0,510.0,3.0,0.0
590,68.0,512.0,510.0,2.0,0.0
591,54.0,0.0,1020.0,3.0,0.0
592,66.0,256.0,780.0,2.0,0.0
593,73.0,0.0,1020.0,0.0,0.0
594,70.0,0.0,510.0,1.0,0.0
595,64.0,1024.0,270.0,2.0,0.0
596,66.0,0.0,1020.0,1.0,0.0
597,47.0,0.0,1020.0,3.0,0.0
598,63.0,0.0,1020.0,2.0,0.0
599,71.0,512.0,1020.0,0.0,0.0
600,56.0,0.0,510.0,3.0,0.0
601,71.0,512.0,510.0,1.0,0.0
602,76.0,0.0,1020.0,0.0,0.0
603,64.0,0.0,1020.0,2.0,0.0
604,54.0,0.0,510.0,3.0,0.0
605,69.0,512.0,510.0,1.0,0.0
606,59.0,0.0,1530.0,2.0,0.0
607,52.0,0.0,510.0,3.0,0.0
608,68.0,512.0,510.0,1.0,0.0
609,54.0,0.0,510.0,3.0,0.0
610,70.0,0.0,510.0,1.0,0.0
611,71.0,512.0,510.0,1.0,0.0
612,76.0,512.0,15.0,0.0,0.0
613,56.0,0.0,510.0,3.0,0.0
614,58.0,0.0,510.0,3.0,0.0
615,73.0,512.0,1020.0,1.0,0.0
616,75.0,512.0,1020.0,0.0,0.0
617,66.0,512.0,15.0,2.0,0.0
618,59.0,0.0,1020.0,3.0,0.0
619,71.0,512.0,1020.0,1.0,0.0
620,73.0,512.0,1020.0,0.0,0.0
621,54.0,0.0,1020.0,3.0,0.0
622,70.0,0.0,510.0,1.0,0.0
623,71.0,512.0,510.0,1.0,0.0
624,47.0,0.0,1020.0,3.0,0.0
625,66.0,0.0,15.0,2.0,0.0
626,75.0,512.0,1020.0,0.0,0.0
627,70.0,0.0,510.0,1.0,0.0
628,49.0,0.0,1020.0,3.0,0.0
629,68.0,0.0,1020.0,1.0,0.0
630,73.0,0.0,1020.0,0.0,0.0
631,65.0,1024.0,510.0,2.0,0.0
632,42.0,0.0,1020.0,3.0,0.0
633,70.0,0.0,1020.0,1.0,0.0
634,66.0,0.0,1020.0,2.0,0.0
635,54.0,512.0,510.0,3.0,0.0
636,57.0,0.0,510.0,2.0,0.0
637,66.0,0.0,1020.0,1.0,0.0
638,73.0,512.0,15.0,0.0,0.0
639,56.0,0.0,510.0,3.0,0.0
640,59.0,0.0,510.0,2.0,0.0
641,57.0,512.0,1020.0,3.0,0.0
642,64.0,256.0,270.0,1.0,0.0
643,73.0,256.0,15.0,0.0,0.0
644,61.0,0.0,510.0,2.0,0.0
645,61.0,512.0,270.0,1.0,0.0
646,57.0,0.0,510.0,2.0,0.0
647,66.0,512.0,1020.0,1.0,0.0
648,56.0,0.0,1020.0,3.0,0.0
649,59.0,256.0,1530.0,2.0,0.0
650,71.0,512.0,1020.0,0.0,0.0
651,64.0,0.0,1020.0,1.0,0.0
652,54.0,0.0,1020.0,3.0,0.0
653,73.0,0.0,1020.0,0.0,0.0
654,66.0,256.0,270.0,1.0,0.0
655,58.0,0.0,510.0,2.0,0.0
656,64.0,512.0,270.0,1.0,0.0
657,59.0,512.0,510.0,3.0,0.0
658,66.0,0.0,1020.0,2.0,0.0
659,75.0,0.0,1020.0,0.0,0.0
660,63.0,0.0,510.0,1.0,0.0
661,66.0,0.0,510.0,1.0,0.0
662,57.0,512.0,510.0,3.0,0.0
663,56.0,0.0,510.0,3.0,0.0
664,71.0,256.0,1530.0,1.0,0.0
665,76.0,0.0,1020.0,0.0,0.0
666,64.0,512.0,510.0,2.0,0.0
667,52.0,512.0,510.0,3.0,0.0
668,68.0,0.0,510.0,2.0,0.0
669,54.0,0.0,1020.0,3.0,0.0
670,66.0,256.0,780.0,2.0,0.0
671,73.0,1024.0,1020.0,0.0,0.0
672,70.0,0.0,510.0,1.0,0.0
673,64.0,0.0,270.0,2.0,0.0
674,71.0,0.0,1020.0,0.0,0.0
675,47.0,0.0,1020.0,3.0,0.0
676,66.0,0.0,1020.0,1.0,0.0
677,63.0,512.0,1020.0,2.0,0.0
678,76.0,0.0,1020.0,0.0,0.0
679,56.0,0.0,510.0,3.0,0.0
680,71.0,512.0,510.0,1.0,0.0
681,64.0,0.0,1020.0,2.0,0.0
682,54.0,512.0,510.0,3.0,0.0
683,69.0,0.0,510.0,1.0,0.0
684,68.0,0.0,510.0,1.0,0.0
685,52.0,512.0,510.0,3.0,0.0
686,59.0,0.0,1530.0,2.0,0.0
687,70.0,0.0,510.0,1.0,0.0
688,54.0,0.0,510.0,3.0,0.0
689,71.0,512.0,510.0,1.0,0.0
690,56.0,0.0,510.0,3.0,0.0
691,76.0,512.0,15.0,0.0,0.0
692,58.0,0.0,510.0,3.0,0.0
693,73.0,512.0,1020.0,1.0,0.0
694,66.0,512.0,510.0,2.0,0.0
695,75.0,512.0,1020.0,0.0,0.0
696,66.0,0.0,1020.0,2.0,0.0
697,59.0,0.0,1020.0,3.0,0.0
698,71.0,512.0,1020.0,1.0,0.0
699,54.0,0.0,1020.0,3.0,0.0
700,73.0,512.0,1020.0,0.0,0.0
701,70.0,0.0,510.0,1.0,0.0
702,75.0,0.0,1020.0,0.0,0.0
703,66.0,0.0,15.0,2.0,0.0
704,47.0,0.0,1020.0,3.0,0.0
705,71.0,512.0,510.0,1.0,0.0
706,70.0,512.0,510.0,1.0,0.0
707,73.0,0.0,1020.0,0.0,0.0
708,49.0,0.0,1020.0,3.0,0.0
709,68.0,1024.0,1020.0,1.0,0.0
710,65.0,0.0,510.0,2.0,0.0
711,66.0,0.0,1020.0,2.0,0.0
712,70.0,0.0,1020.0,1.0,0.0
713,42.0,0.0,1020.0,3.0,0.0
714,73.0,512.0,1020.0,0.0,0.0
715,54.0,0.0,510.0,3.0,0.0
716,57.0,512.0,510.0,2.0,0.0
717,73.0,0.0,1020.0,0.0,0.0
718,66.0,0.0,1020.0,1.0,0.0
719,56.0,0.0,510.0,3.0,0.0
720,59.0,256.0,510.0,2.0,0.0
721,57.0,0.0,1020.0,3.0,0.0
722,64.0,256.0,270.0,1.0,0.0
723,61.0,512.0,510.0,2.0,0.0
724,73.0,0.0,1020.0,0.0,0.0
725,61.0,0.0,270.0,1.0,0.0
726,66.0,512.0,1020.0,1.0,0.0
727,57.0,512.0,510.0,2.0,0.0
728,56.0,0.0,1020.0,3.0,0.0
729,71.0,512.0,1020.0,0.0,0.0
730,59.0,0.0,1530.0,2.0,0.0
731,64.0,256.0,1020.0,1.0,0.0
732,73.0,512.0,1020.0,0.0,0.0
733,54.0,0.0,1020.0,3.0,0.0
734,66.0,256.0,270.0,1.0,0.0
735,58.0,0.0,510.0,2.0,0.0
736,64.0,0.0,270.0,1.0,0.0
737,66.0,512.0,1020.0,2.0,0.0
738,75.0,0.0,1020.0,0.0,0.0
739,59.0,512.0,510.0,3.0,0.0
740,63.0,0.0,510.0,1.0,0.0
741,66.0,0.0,510.0,1.0,0.0
742,57.0,0.0,510.0,3.0,0.0
743,76.0,0.0,1020.0,0.0,0.0
744,71.0,256.0,1530.0,1.0,0.0
745,64.0,0.0,510.0,2.0,0.0
746,56.0,512.0,510.0,3.0,0.0
747,52.0,512.0,510.0,3.0,0.0
748,68.0,0.0,510.0,2.0,0.0
749,73.0,0.0,1020.0,0.0,0.0
750,66.0,256.0,780.0,2.0,0.0
751,54.0,0.0,1020.0,3.0,0.0
752,70.0,1024.0,510.0,1.0,0.0
753,64.0,0.0,270.0,2.0,0.0
754,66.0,0.0,1020.0,1.0,0.0
755,63.0,0.0,1020.0,2.0,0.0
756,47.0,512.0,1020.0,3.0,0.0
757,71.0,0.0,1020.0,0.0,0.0
758,71.0,0.0,510.0,1.0,0.0
759,56.0,512.0,510.0,3.0,0.0
760,64.0,0.0,1020.0,2.0,0.0
761,54.0,512.0,510.0,3.0,0.0
762,69.0,0.0,510.0,1.0,0.0
763,76.0,0.0,15.0,0.0,0.0
764,59.0,0.0,1530.0,2.0,0.0
765,52.0,0.0,510.0,3.0,0.0
766,68.0,512.0,510.0,1.0,0.0
767,54.0,0.0,510.0,3.0,0.0
768,70.0,512.0,510.0,1.0,0.0
769,56.0,0.0,510.0,3.0,0.0
770,76.0,0.0,1020.0,0.0,0.0
771,71.0,512.0,510.0,1.0,0.0
772,58.0,0.0,510.0,3.0,0.0
773,73.0,512.0,1020.0,1.0,0.0
774,59.0,512.0,1020.0,3.0,0.0
775,75.0,0.0,1020.0,0.0,0.0
776,66.0,512.0,15.0,2.0,0.0
777,71.0,512.0,1020.0,1.0,0.0
778,66.0,0.0,15.0,2.0,0.0
779,73.0,0.0,1020.0,0.0,0.0
780,54.0,0.0,1020.0,3.0,0.0
781,70.0,512.0,510.0,1.0,0.0
782,75.0,512.0,1020.0,0.0,0.0
783,47.0,0.0,1020.0,3.0,0.0
784,66.0,512.0,1530.0,2.0,0.0
785,71.0,512.0,510.0,1.0,0.0
786,70.0,0.0,510.0,1.0,0.0
787,49.0,0.0,1020.0,3.0,0.0
788,68.0,0.0,1020.0,1.0,0.0
789,73.0,1024.0,1020.0,0.0,0.0
790,65.0,0.0,510.0,2.0,0.0
791,66.0,512.0,1020.0,2.0,0.0
792,70.0,0.0,1020.0,1.0,0.0
793,42.0,0.0,1020.0,3.0,0.0
794,73.0,0.0,1020.0,0.0,0.0
795,66.0,0.0,1020.0,1.0,0.0
796,54.0,512.0,510.0,3.0,0.0
797,57.0,0.0,510.0,2.0,0.0
798,59.0,256.0,510.0,2.0,0.0
799,56.0,0.0,510.0,3.0,0.0
800,64.0,256.0,270.0,1.0,0.0
801,73.0,0.0,15.0,0.0,0.0
802,61.0,512.0,510.0,2.0,0.0
803,57.0,0.0,1020.0,3.0,0.0
804,61.0,0.0,270.0,1.0,0.0
805,66.0,512.0,1020.0,1.0,0.0
806,57.0,0.0,510.0,2.0,0.0
807,59.0,256.0,1530.0,2.0,0.0
808,71.0,512.0,1020.0,0.0,0.0
809,56.0,0.0,1020.0,3.0,0.0
810,64.0,0.0,1020.0,1.0,0.0
811,73.0,0.0,1020.0,0.0,0.0
812,54.0,512.0,1020.0,3.0,0.0
813,58.0,0.0,510.0,2.0,0.0
814,66.0,256.0,270.0,1.0,0.0
815,64.0,0.0,270.0,1.0,0.0
816,66.0,512.0,1020.0,2.0,0.0
817,75.0,0.0,1020.0,0.0,0.0
818,63.0,512.0,510.0,1.0,0.0
819,59.0,0.0,510.0,3.0,0.0
820,57.0,0.0,510.0,3.0,0.0
821,66.0,0.0,510.0,1.0,0.0
822,71.0,256.0,1530.0,1.0,0.0
823,64.0,512.0,510.0,2.0,0.0
824,56.0,0.0,510.0,3.0,0.0
825,76.0,0.0,1020.0,0.0,0.0
826,52.0,512.0,510.0,3.0,0.0
827,68.0,0.0,510.0,2.0,0.0
828,66.0,256.0,780.0,2.0,0.0
829,73.0,0.0,1020.0,0.0,0.0
830,54.0,0.0,1020.0,3.0,0.0
831,70.0,1024.0,510.0,1.0,0.0
832,64.0,0.0,270.0,2.0,0.0
833,47.0,0.0,1020.0,3.0,0.0
834,71.0,512.0,1020.0,0.0,0.0
835,63.0,0.0,1020.0,2.0,0.0
836,66.0,0.0,1020.0,1.0,0.0
837,56.0,512.0,510.0,3.0,0.0
838,76.0,0.0,1020.0,0.0,0.0
839,71.0,0.0,510.0,1.0,0.0
840,64.0,512.0,1020.0,2.0,0.0
841,69.0,0.0,510.0,1.0,0.0
842,54.0,0.0,510.0,3.0,0.0
843,68.0,512.0,510.0,1.0,0.0
844,52.0,0.0,510.0,3.0,0.0
845,59.0,0.0,1530.0,2.0,0.0
846,70.0,0.0,510.0,1.0,0.0
847,54.0,0.0,510.0,3.0,0.0
848,71.0,0.0,510.0,1.0,0.0
849,56.0,512.0,510.0,3.0,0.0
850,76.0,512.0,15.0,0.0,0.0
851,73.0,512.0,1020.0,1.0,0.0
852,58.0,512.0,510.0,3.0,0.0
853,59.0,0.0,1020.0,3.0,0.0
854,75.0,512.0,1020.0,0.0,0.0
855,66.0,0.0,15.0,2.0,0.0
856,71.0,512.0,1020.0,1.0,0.0
857,73.0,0.0,1020.0,0.0,0.0
858,54.0,0.0,1020.0,3.0,0.0
859,66.0,512.0,1020.0,2.0,0.0
860,70.0,0.0,510.0,1.0,0.0
861,47.0,512.0,1020.0,3.0,0.0
862,71.0,512.0,510.0,1.0,0.0
863,66.0,512.0,1530.0,2.0,0.0
864,75.0,0.0,1020.0,0.0,0.0
865,70.0,0.0,510.0,1.0,0.0
866,68.0,0.0,1020.0,1.0,0.0
867,49.0,0.0,1020.0,3.0,0.0
868,65.0,1024.0,510.0,2.0,0.0
869,42.0,0.0,1020.0,3.0,0.0
870,73.0,0.0,15.0,0.0,0.0
871,70.0,0.0,1020.0,1.0,0.0
872,66.0,512.0,1020.0,2.0,0.0
873,54.0,0.0,510.0,3.0,0.0
874,57.0,512.0,510.0,2.0,0.0
875,66.0,0.0,1020.0,1.0,0.0
876,56.0,0.0,510.0,3.0,0.0
877,59.0,0.0,510.0,2.0,0.0
878,61.0,0.0,510.0,2.0,0.0
879,57.0,0.0,1020.0,3.0,0.0
880,64.0,256.0,270.0,1.0,0.0
881,73.0,256.0,15.0,0.0,0.0
882,61.0,512.0,270.0,1.0,0.0
883,57.0,512.0,510.0,2.0,0.0
884,66.0,512.0,1020.0,1.0,0.0
885,56.0,512.0,1020.0,3.0,0.0
886,71.0,0.0,1020.0,0.0,0.0
887,59.0,0.0,1530.0,2.0,0.0
888,64.0,256.0,1020.0,1.0,0.0
889,54.0,0.0,1020.0,3.0,0.0
890,73.0,512.0,1020.0,0.0,0.0
891,58.0,0.0,510.0,2.0,0.0
892,66.0,256.0,270.0,1.0,0.0
893,64.0,0.0,270.0,1.0,0.0
894,63.0,0.0,510.0,1.0,0.0
895,75.0,512.0,1020.0,0.0,0.0
896,66.0,0.0,1020.0,2.0,0.0
897,59.0,512.0,510.0,3.0,0.0
898,66.0,0.0,510.0,1.0,0.0
899,57.0,0.0,510.0,3.0,0.0
900,71.0,256.0,1530.0,1.0,0.0
901,56.0,512.0,510.0,3.0,0.0
902,64.0,0.0,510.0,2.0,0.0
903,76.0,0.0,1020.0,0.0,0.0
904,68.0,512.0,510.0,2.0,0.0
905,52.0,0.0,510.0,3.0,0.0
906,73.0,1024.0,1020.0,0.0,0.0
907,66.0,256.0,780.0,2.0,0.0
908,54.0,0.0,1020.0,3.0,0.0
909,70.0,0.0,510.0,1.0,0.0
910,64.0,0.0,270.0,2.0,0.0
911,66.0,0.0,1020.0,1.0,0.0
912,71.0,0.0,1020.0,0.0,0.0
913,47.0,0.0,1020.0,3.0,0.0
914,63.0,1024.0,1020.0,2.0,0.0
915,54.0,0.0,1020.0,3.0,0.0
916,66.0,256.0,1020.0,2.0,0.0
917,73.0,0.0,1020.0,0.0,0.0
918,69.0,0.0,1020.0,1.0,0.0
919,73.0,512.0,1020.0,0.0,0.0
920,53.0,0.0,1020.0,3.0,0.0
921,61.0,512.0,510.0,2.0,0.0
922,68.0,256.0,270.0,1.0,0.0
923,69.0,0.0,270.0,1.0,0.0
924,71.0,0.0,1020.0,1.0,0.0
925,68.0,256.0,1020.0,2.0,0.0
926,54.0,0.0,1020.0,3.0,0.0
927,73.0,512.0,1020.0,0.0,0.0
928,66.0,256.0,270.0,2.0,0.0
929,70.0,256.0,1020.0,1.0,0.0
930,64.0,0.0,270.0,2.0,0.0
931,71.0,0.0,1020.0,0.0,0.0
932,56.0,512.0,1530.0,3.0,0.0
933,63.0,0.0,1020.0,2.0,0.0
934,68.0,256.0,270.0,1.0,0.0
935,70.0,512.0,270.0,1.0,0.0
936,75.0,512.0,1020.0,0.0,0.0
937,68.0,0.0,1020.0,2.0,0.0
938,71.0,0.0,1020.0,1.0,0.0
939,58.0,0.0,510.0,3.0,0.0
940,66.0,0.0,1020.0,2.0,0.0
941,59.0,0.0,1020.0,3.0,0.0
942,71.0,512.0,510.0,1.0,0.0
943,75.0,0.0,1020.0,0.0,0.0
944,69.0,1024.0,510.0,1.0,0.0
945,68.0,0.0,1020.0,2.0,0.0
946,53.0,0.0,1020.0,3.0,0.0
947,71.0,512.0,1530.0,1.0,0.0
948,66.0,0.0,1020.0,2.0,0.0
949,54.0,0.0,1020.0,3.0,0.0
950,73.0,512.0,15.0,0.0,0.0
951,69.0,0.0,510.0,1.0,0.0
952,64.0,256.0,510.0,1.0,0.0
953,57.0,0.0,1020.0,3.0,0.0
954,61.0,0.0,510.0,2.0,0.0
955,69.0,256.0,270.0,1.0,0.0
956,62.0,0.0,510.0,2.0,0.0
957,68.0,0.0,270.0,1.0,0.0
958,73.0,512.0,15.0,0.0,0.0
959,64.0,0.0,1020.0,2.0,0.0
960,49.0,512.0,510.0,3.0,0.0
961,69.0,512.0,1530.0,1.0,0.0
962,50.0,512.0,510.0,3.0,0.0
963,64.0,512.0,1020.0,2.0,0.0
964,52.0,0.0,1020.0,3.0,0.0
965,71.0,0.0,1020.0,0.0,0.0
966,68.0,0.0,510.0,1.0,0.0
967,73.0,512.0,510.0,0.0,0.0
968,69.0,0.0,1020.0,1.0,0.0
969,64.0,0.0,1020.0,2.0,0.0
970,45.0,0.0,510.0,3.0,0.0
971,75.0,0.0,510.0,0.0,0.0
972,47.0,512.0,510.0,3.0,0.0
973,69.0,512.0,1530.0,1.0,0.0
974,49.0,512.0,510.0,3.0,0.0
975,76.0,0.0,1020.0,0.0,0.0
976,64.0,512.0,2550.0,2.0,0.0
977,51.0,512.0,510.0,3.0,0.0
978,52.0,512.0,1020.0,3.0,0.0
979,68.0,0.0,510.0,1.0,0.0
980,47.0,0.0,1020.0,3.0,0.0
981,66.0,1024.0,1020.0,1.0,0.0
982,71.0,0.0,15.0,0.0,0.0
983,63.0,0.0,510.0,2.0,0.0
984,68.0,0.0,1020.0,0.0,0.0
985,64.0,0.0,1020.0,1.0,0.0
986,56.0,0.0,1020.0,3.0,0.0
987,59.0,1024.0,1020.0,2.0,0.0
988,54.0,256.0,1020.0,3.0,0.0
989,69.0,0.0,1020.0,0.0,0.0
990,66.0,0.0,1020.0,2.0,0.0
991,69.0,0.0,1020.0,1.0,0.0
992,61.0,0.0,510.0,2.0,0.0
993,68.0,256.0,270.0,1.0,0.0
994,53.0,0.0,1020.0,3.0,0.0
995,69.0,512.0,270.0,1.0,0.0
996,68.0,0.0,1020.0,2.0,0.0
997,71.0,256.0,1020.0,1.0,0.0
998,54.0,512.0,1020.0,3.0,0.0
999,73.0,512.0,15.0,0.0,0.0
1000,70.0,256.0,1020.0,1.0,0.0
1001,66.0,256.0,270.0,2.0,0.0
1002,64.0,0.0,270.0,2.0,0.0
1003,71.0,0.0,1020.0,0.0,0.0
1004,63.0,0.0,1020.0,2.0,0.0
1005,56.0,512.0,1530.0,3.0,0.0
1006,68.0,256.0,270.0,1.0,0.0
1007,70.0,512.0,270.0,1.0,0.0
1008,68.0,0.0,1020.0,2.0,0.0
1009,58.0,0.0,510.0,3.0,0.0
1010,71.0,0.0,15.0,1.0,0.0
1011,75.0,512.0,15.0,0.0,0.0
1012,66.0,1024.0,1020.0,2.0,0.0
1013,59.0,0.0,1020.0,3.0,0.0
1014,69.0,0.0,510.0,1.0,0.0
1015,53.0,0.0,1020.0,3.0,0.0
1016,73.0,0.0,1020.0,0.0,0.0
1017,68.0,512.0,1020.0,2.0,0.0
1018,71.0,512.0,1530.0,1.0,0.0
1019,54.0,0.0,1020.0,3.0,0.0
1020,66.0,0.0,1020.0,2.0,0.0
1021,69.0,512.0,510.0,1.0,0.0
1022,73.0,0.0,15.0,0.0,0.0
1023,64.0,0.0,510.0,1.0,0.0
1024,57.0,0.0,1020.0,3.0,0.0
1025,61.0,256.0,510.0,2.0,0.0
1026,69.0,256.0,270.0,1.0,0.0
1027,62.0,0.0,510.0,2.0,0.0
1028,68.0,0.0,270.0,1.0,0.0
1029,49.0,512.0,510.0,3.0,0.0
1030,73.0,512.0,15.0,0.0,0.0
1031,69.0,512.0,1530.0,1.0,0.0
1032,50.0,0.0,510.0,3.0,0.0
1033,71.0,0.0,1020.0,0.0,0.0
1034,64.0,512.0,15.0,2.0,0.0
1035,52.0,0.0,1020.0,3.0,0.0
1036,68.0,0.0,510.0,1.0,0.0
1037,45.0,0.0,510.0,3.0,0.0
1038,64.0,512.0,15.0,2.0,0.0
1039,73.0,512.0,510.0,0.0,0.0
1040,69.0,512.0,1020.0,1.0,0.0
1041,75.0,0.0,510.0,0.0,0.0
1042,47.0,0.0,510.0,3.0,0.0
1043,76.0,512.0,1020.0,0.0,0.0
1044,64.0,0.0,15.0,2.0,0.0
1045,49.0,512.0,510.0,3.0,0.0
1046,69.0,512.0,1530.0,1.0,0.0
1047,51.0,0.0,510.0,3.0,0.0
1048,52.0,512.0,1020.0,3.0,0.0
1049,71.0,0.0,1020.0,0.0,0.0
1050,68.0,0.0,510.0,1.0,0.0
1051,66.0,1024.0,1020.0,1.0,0.0
1052,47.0,0.0,1020.0,3.0,0.0
1053,71.0,0.0,1020.0,0.0,0.0
1054,63.0,0.0,510.0,2.0,0.0
1055,68.0,0.0,1020.0,0.0,0.0
1056,64.0,0.0,1020.0,1.0,0.0
1057,56.0,0.0,1020.0,3.0,0.0
1058,59.0,1024.0,1020.0,2.0,0.0
1059,69.0,256.0,1020.0,1.0,0.0
1060,69.0,0.0,1020.0,0.0,0.0
1061,54.0,0.0,1020.0,3.0,0.0
1062,66.0,0.0,1020.0,2.0,0.0
1063,61.0,0.0,510.0,2.0,0.0
1064,68.0,256.0,270.0,1.0,0.0
1065,53.0,0.0,1020.0,3.0,0.0
1066,69.0,512.0,270.0,1.0,0.0
1067,68.0,256.0,1020.0,2.0,0.0
1068,71.0,0.0,1020.0,1.0,0.0
1069,54.0,512.0,1020.0,3.0,0.0
1070,73.0,512.0,15.0,0.0,0.0
1071,70.0,256.0,1020.0,1.0,0.0
1072,66.0,256.0,270.0,2.0,0.0
1073,64.0,0.0,270.0,2.0,0.0
1074,63.0,512.0,1020.0,2.0,0.0
1075,71.0,0.0,1020.0,0.0,0.0
1076,56.0,512.0,1530.0,3.0,0.0
1077,68.0,256.0,270.0,1.0,0.0
1078,70.0,0.0,270.0,1.0,0.0
1079,68.0,0.0,1020.0,2.0,0.0
1080,71.0,0.0,1020.0,1.0,0.0
1081,58.0,512.0,510.0,3.0,0.0
1082,66.0,1024.0,1020.0,2.0,0.0
1083,59.0,0.0,1020.0,3.0,0.0
1084,71.0,512.0,510.0,1.0,0.0
1085,75.0,0.0,15.0,0.0,0.0
1086,69.0,0.0,510.0,1.0,0.0
1087,53.0,0.0,1020.0,3.0,0.0
1088,71.0,512.0,1530.0,1.0,0.0
1089,68.0,0.0,1020.0,2.0,0.0
1090,66.0,0.0,1020.0,2.0,0.0
1091,73.0,512.0,15.0,0.0,0.0
1092,54.0,512.0,1020.0,3.0,0.0
1093,69.0,0.0,510.0,1.0,0.0
1094,73.0,0.0,15.0,0.0,0.0
1095,64.0,0.0,510.0,1.0,0.0
1096,57.0,0.0,1020.0,3.0,0.0
1097,61.0,256.0,510.0,2.0,0.0
1098,62.0,0.0,510.0,2.0,0.0
1099,69.0,256.0,270.0,1.0,0.0
1100,68.0,512.0,270.0,1.0,0.0
1101,73.0,0.0,15.0,0.0,0.0
1102,49.0,512.0,510.0,3.0,0.0
1103,69.0,512.0,1530.0,1.0,0.0
1104,64.0,0.0,1020.0,2.0,0.0
1105,50.0,512.0,510.0,3.0,0.0
1106,71.0,0.0,1020.0,0.0,0.0
1107,52.0,0.0,1020.0,3.0,0.0
1108,68.0,0.0,510.0,1.0,0.0
1109,73.0,512.0,510.0,0.0,0.0
1110,69.0,0.0,1020.0,1.0,0.0
1111,45.0,0.0,510.0,3.0,0.0
1112,64.0,512.0,15.0,2.0,0.0
1113,47.0,0.0,510.0,3.0,0.0
1114,75.0,512.0,510.0,0.0,0.0
1115,64.0,0.0,15.0,2.0,0.0
1116,49.0,512.0,510.0,3.0,0.0
1117,76.0,0.0,1020.0,0.0,0.0
1118,69.0,512.0,1530.0,1.0,0.0
1119,51.0,512.0,510.0,3.0,0.0
1120,52.0,0.0,1020.0,3.0,0.0
1121,68.0,0.0,510.0,1.0,0.0
1122,47.0,0.0,1020.0,3.0,0.0
1123,66.0,0.0,1020.0,1.0,0.0
1124,71.0,512.0,15.0,0.0,0.0
1125,63.0,0.0,510.0,2.0,0.0
1126,68.0,0.0,1020.0,0.0,0.0
1127,56.0,0.0,1020.0,3.0,0.0
1128,64.0,1024.0,1020.0,1.0,0.0
1129,59.0,0.0,1020.0,2.0,0.0
1130,66.0,0.0,1020.0,2.0,0.0
1131,69.0,256.0,1020.0,0.0,0.0
1132,69.0,0.0,1020.0,1.0,0.0
1133,54.0,0.0,1020.0,3.0,0.0
1134,68.0,256.0,270.0,1.0,0.0
1135,61.0,512.0,510.0,2.0,0.0
1136,53.0,0.0,1020.0,3.0,0.0
1137,69.0,0.0,270.0,1.0,0.0
1138,68.0,0.0,1020.0,2.0,0.0
1139,71.0,256.0,1020.0,1.0,0.0
1140,73.0,512.0,15.0,0.0,0.0
1141,54.0,0.0,1020.0,3.0,0.0
1142,66.0,256.0,270.0,2.0,0.0
1143,70.0,256.0,1020.0,1.0,0.0
1144,64.0,512.0,270.0,2.0,0.0
1145,56.0,512.0,1530.0,3.0,0.0
1146,71.0,0.0,1020.0,0.0,0.0
1147,63.0,0.0,1020.0,2.0,0.0
1148,68.0,256.0,270.0,1.0,0.0
1149,70.0,512.0,270.0,1.0,0.0
1150,68.0,0.0,1020.0,2.0,0.0
1151,58.0,0.0,510.0,3.0,0.0
1152,75.0,0.0,15.0,0.0,0.0
1153,66.0,0.0,1020.0,2.0,0.0
1154,59.0,1024.0,1020.0,3.0,0.0
1155,71.0,512.0,15.0,1.0,0.0
1156,69.0,0.0,510.0,1.0,0.0
1157,68.0,0.0,1020.0,2.0,0.0
1158,73.0,0.0,1020.0,0.0,0.0
1159,53.0,512.0,1020.0,3.0,0.0
1160,71.0,512.0,1530.0,1.0,0.0
1161,54.0,512.0,1020.0,3.0,0.0
1162,66.0,0.0,1020.0,2.0,0.0
1163,73.0,0.0,1020.0,0.0,0.0
1164,69.0,0.0,510.0,1.0,0.0
1165,64.0,256.0,510.0,1.0,0.0
1166,57.0,0.0,1020.0,3.0,0.0
1167,61.0,0.0,510.0,2.0,0.0
1168,73.0,512.0,1020.0,0.0,0.0
1169,69.0,256.0,270.0,1.0,0.0
1170,62.0,0.0,510.0,2.0,0.0
1171,68.0,0.0,270.0,1.0,0.0
1172,69.0,512.0,1530.0,1.0,0.0
1173,64.0,0.0,1020.0,2.0,0.0
1174,49.0,512.0,510.0,3.0,0.0
1175,73.0,512.0,1020.0,0.0,0.0
1176,50.0,0.0,510.0,3.0,0.0
1177,52.0,0.0,1020.0,3.0,0.0
1178,71.0,0.0,1020.0,0.0,0.0
1179,68.0,0.0,510.0,1.0,0.0
1180,73.0,0.0,510.0,0.0,0.0
1181,64.0,512.0,15.0,2.0,0.0
1182,45.0,512.0,510.0,3.0,0.0
1183,75.0,0.0,510.0,0.0,0.0
1184,47.0,512.0,510.0,3.0,0.0
1185,64.0,512.0,2550.0,2.0,0.0
1186,69.0,0.0,15.0,1.0,0.0
1187,49.0,512.0,510.0,3.0,0.0
1188,76.0,0.0,1020.0,0.0,0.0
1189,51.0,512.0,510.0,3.0,0.0
1190,52.0,0.0,1020.0,3.0,0.0
1191,68.0,512.0,510.0,1.0,0.0
1192,71.0,0.0,15.0,0.0,0.0
1193,66.0,0.0,1020.0,1.0,0.0
1194,47.0,1024.0,1020.0,3.0,0.0
1195,63.0,0.0,510.0,2.0,0.0
1196,59.0,0.0,1020.0,2.0,0.0
1197,64.0,0.0,1020.0,1.0,0.0
1198,68.0,0.0,1020.0,0.0,0.0
1199,56.0,1024.0,1020.0,3.0,0.0
1200,66.0,256.0,1020.0,2.0,0.0
1201,69.0,0.0,1020.0,0.0,0.0
1202,69.0,0.0,1020.0,1.0,0.0
1203,54.0,0.0,1020.0,3.0,0.0
1204,53.0,0.0,1020.0,3.0,0.0
1205,73.0,512.0,1020.0,0.0,0.0
1206,68.0,256.0,270.0,1.0,0.0
1207,61.0,512.0,510.0,2.0,0.0
1208,69.0,0.0,270.0,1.0,0.0
1209,68.0,0.0,1020.0,2.0,0.0
1210,71.0,256.0,1020.0,1.0,0.0
1211,73.0,512.0,1020.0,0.0,0.0
1212,54.0,0.0,1020.0,3.0,0.0
1213,66.0,256.0,270.0,2.0,0.0
1214,70.0,256.0,1020.0,1.0,0.0
1215,64.0,0.0,270.0,2.0,0.0
1216,71.0,0.0,1020.0,0.0,0.0
1217,63.0,512.0,1020.0,2.0,0.0
1218,56.0,512.0,1530.0,3.0,0.0
1219,68.0,256.0,270.0,1.0,0.0
1220,70.0,0.0,270.0,1.0,0.0
1221,71.0,0.0,1020.0,1.0,0.0
1222,75.0,512.0,1020.0,0.0,0.0
1223,68.0,0.0,1020.0,2.0,0.0
1224,58.0,0.0,510.0,3.0,0.0
1225,59.0,1024.0,1020.0,3.0,0.0
1226,66.0,0.0,1020.0,2.0,0.0
1227,71.0,512.0,510.0,1.0,0.0
1228,75.0,0.0,1020.0,0.0,0.0
1229,69.0,0.0,510.0,1.0,0.0
1230,68.0,0.0,1020.0,2.0,0.0
1231,71.0,512.0,1530.0,1.0,0.0
1232,53.0,0.0,1020.0,3.0,0.0
1233,73.0,512.0,15.0,0.0,0.0
1234,54.0,512.0,1020.0,3.0,0.0
1235,66.0,0.0,1020.0,2.0,0.0
1236,69.0,0.0,510.0,1.0,0.0
1237,64.0,0.0,510.0,1.0,0.0
1238,61.0,256.0,510.0,2.0,0.0
1239,57.0,0.0,1020.0,3.0,0.0
1240,62.0,512.0,510.0,2.0,0.0
1241,69.0,256.0,270.0,1.0,0.0
1242,68.0,0.0,270.0,1.0,0.0
1243,73.0,0.0,15.0,0.0,0.0
1244,49.0,512.0,510.0,3.0,0.0
1245,69.0,512.0,1530.0,1.0,0.0
1246,50.0,0.0,510.0,3.0,0.0
1247,52.0,0.0,1020.0,3.0,0.0
1248,64.0,512.0,15.0,2.0,0.0
1249,71.0,512.0,1020.0,0.0,0.0
1250,68.0,0.0,510.0,1.0,0.0
1251,45.0,0.0,510.0,3.0,0.0
1252,64.0,0.0,1020.0,2.0,0.0
1253,73.0,512.0,510.0,0.0,0.0
1254,47.0,0.0,510.0,3.0,0.0
1255,75.0,512.0,510.0,0.0,0.0
1256,49.0,512.0,510.0,3.0,0.0
1257,76.0,0.0,1020.0,0.0,0.0
1258,69.0,0.0,15.0,1.0,0.0
1259,64.0,512.0,2550.0,2.0,0.0
1260,51.0,512.0,510.0,3.0,0.0
1261,52.0,512.0,1020.0,3.0,0.0
1262,71.0,0.0,1020.0,0.0,0.0
1263,68.0,0.0,510.0,1.0,0.0
1264,71.0,1024.0,1020.0,0.0,0.0
1265,47.0,0.0,1020.0,3.0,0.0
1266,66.0,0.0,1020.0,1.0,0.0
1267,63.0,0.0,510.0,2.0,0.0
1268,64.0,0.0,1020.0,1.0,0.0
1269,56.0,0.0,1020.0,3.0,0.0
1270,59.0,1024.0,1020.0,2.0,0.0
1271,68.0,0.0,1020.0,0.0,0.0
1272,69.0,0.0,1020.0,0.0,0.0
1273,54.0,256.0,1020.0,3.0,0.0
1274,69.0,0.0,1020.0,1.0,0.0
1275,66.0,0.0,1020.0,2.0,0.0
1276,61.0,512.0,510.0,2.0,0.0
1277,68.0,256.0,270.0,1.0,0.0
1278,73.0,512.0,1020.0,0.0,0.0
1279,53.0,0.0,1020.0,3.0,0.0
1280,69.0,0.0,270.0,1.0,0.0
1281,71.0,0.0,1020.0,1.0,0.0
1282,68.0,256.0,1020.0,2.0,0.0
1283,54.0,0.0,1020.0,3.0,0.0
1284,73.0,512.0,1020.0,0.0,0.0
1285,66.0,256.0,270.0,2.0,0.0
1286,70.0,256.0,1020.0,1.0,0.0
1287,64.0,0.0,270.0,2.0,0.0
1288,56.0,512.0,1530.0,3.0,0.0
1289,63.0,512.0,1020.0,2.0,0.0
1290,71.0,0.0,1020.0,0.0,0.0
1291,68.0,256.0,270.0,1.0,0.0
1292,70.0,0.0,270.0,1.0,0.0
1293,68.0,512.0,1020.0,2.0,0.0
1294,71.0,0.0,1020.0,1.0,0.0
1295,58.0,0.0,510.0,3.0,0.0
1296,75.0,0.0,15.0,0.0,0.0
1297,66.0,0.0,1020.0,2.0,0.0
1298,59.0,1024.0,1020.0,3.0,0.0
1299,71.0,512.0,510.0,1.0,0.0
1300,69.0,0.0,510.0,1.0,0.0
1301,71.0,512.0,1530.0,1.0,0.0
1302,53.0,512.0,1020.0,3.0,0.0
1303,73.0,0.0,1020.0,0.0,0.0
1304,68.0,0.0,1020.0,2.0,0.0
1305,54.0,0.0,1020.0,3.0,0.0
1306,66.0,0.0,1020.0,2.0,0.0
1307,73.0,0.0,1020.0,0.0,0.0
1308,69.0,512.0,510.0,1.0,0.0
1309,57.0,0.0,1020.0,3.0,0.0
1310,61.0,0.0,510.0,2.0,0.0
1311,64.0,256.0,510.0,1.0,0.0
1312,69.0,256.0,270.0,1.0,0.0
1313,62.0,0.0,510.0,2.0,0.0
1314,68.0,512.0,270.0,1.0,0.0
1315,49.0,512.0,510.0,3.0,0.0
1316,73.0,0.0,15.0,0.0,0.0
1317,69.0,512.0,1530.0,1.0,0.0
1318,50.0,0.0,510.0,3.0,0.0
1319,52.0,512.0,1020.0,3.0,0.0
1320,64.0,0.0,15.0,2.0,0.0
1321,71.0,0.0,1020.0,0.0,0.0
1322,68.0,0.0,510.0,1.0,0.0
1323,69.0,512.0,1020.0,1.0,0.0
1324,73.0,0.0,510.0,0.0,0.0
1325,64.0,0.0,15.0,2.0,0.0
1326,45.0,512.0,510.0,3.0,0.0
1327,75.0,0.0,510.0,0.0,0.0
1328,47.0,0.0,510.0,3.0,0.0
1329,76.0,512.0,1020.0,0.0,0.0
1330,64.0,0.0,15.0,2.0,0.0
1331,49.0,512.0,510.0,3.0,0.0
1332,69.0,512.0,1530.0,1.0,0.0
1333,51.0,0.0,510.0,3.0,0.0
1334,52.0,0.0,1020.0,3.0,0.0
1335,68.0,0.0,510.0,1.0,0.0
1336,66.0,0.0,1020.0,1.0,0.0
1337,47.0,0.0,1020.0,3.0,0.0
1338,71.0,512.0,15.0,0.0,0.0
1339,63.0,0.0,510.0,2.0,0.0
1340,59.0,0.0,1020.0,2.0,0.0
1341,56.0,0.0,1020.0,3.0,0.0
1342,64.0,0.0,1020.0,1.0,0.0
1343,68.0,1024.0,1020.0,0.0,0.0
1344,69.0,0.0,1020.0,0.0,0.0
1345,61.0,512.0,1020.0,2.0,0.0
1346,45.0,0.0,1020.0,3.0,0.0
1347,64.0,512.0,1530.0,1.0,0.0
1348,66.0,0.0,1020.0,0.0,0.0
1349,59.0,0.0,1020.0,2.0,0.0
1350,47.0,512.0,1020.0,3.0,0.0
1351,63.0,0.0,510.0,1.0,0.0
1352,52.0,0.0,510.0,2.0,0.0
1353,64.0,512.0,510.0,1.0,0.0
1354,49.0,0.0,510.0,3.0,0.0
1355,69.0,0.0,1020.0,0.0,0.0
1356,51.0,0.0,510.0,3.0,0.0
1357,66.0,512.0,1020.0,1.0,0.0
1358,59.0,512.0,510.0,2.0,0.0
1359,68.0,512.0,1020.0,0.0,0.0
1360,52.0,0.0,1020.0,3.0,0.0
1361,59.0,0.0,1020.0,2.0,0.0
1362,64.0,0.0,510.0,1.0,0.0
1363,51.0,512.0,1020.0,3.0,0.0
1364,66.0,256.0,1530.0,1.0,0.0
1365,59.0,512.0,510.0,2.0,0.0
1366,66.0,0.0,1020.0,0.0,0.0
1367,54.0,0.0,510.0,2.0,0.0
1368,61.0,0.0,1530.0,2.0,0.0
1369,49.0,0.0,1020.0,3.0,0.0
1370,68.0,512.0,1020.0,0.0,0.0
1371,64.0,256.0,270.0,1.0,0.0
1372,63.0,0.0,270.0,1.0,0.0
1373,64.0,256.0,510.0,1.0,0.0
1374,54.0,0.0,1020.0,3.0,0.0
1375,70.0,1024.0,1020.0,0.0,0.0
1376,63.0,256.0,270.0,1.0,0.0
1377,61.0,0.0,270.0,1.0,0.0
1378,63.0,0.0,1020.0,1.0,0.0
1379,54.0,0.0,15.0,2.0,0.0
1380,47.0,0.0,1020.0,3.0,0.0
1381,66.0,512.0,1020.0,1.0,0.0
1382,71.0,0.0,15.0,0.0,0.0
1383,59.0,0.0,510.0,2.0,0.0
1384,59.0,512.0,510.0,3.0,0.0
1385,57.0,0.0,510.0,2.0,0.0
1386,57.0,0.0,510.0,3.0,0.0
1387,56.0,0.0,510.0,3.0,0.0
1388,71.0,0.0,15.0,0.0,0.0
1389,64.0,0.0,510.0,2.0,0.0
1390,68.0,512.0,510.0,1.0,0.0
1391,54.0,0.0,510.0,3.0,0.0
1392,69.0,0.0,510.0,1.0,0.0
1393,66.0,0.0,510.0,2.0,0.0
1394,71.0,0.0,510.0,1.0,0.0
1395,71.0,512.0,15.0,0.0,0.0
1396,52.0,0.0,1020.0,3.0,0.0
1397,68.0,512.0,510.0,2.0,0.0
1398,64.0,0.0,510.0,2.0,0.0
1399,68.0,0.0,510.0,1.0,0.0
1400,64.0,256.0,510.0,1.0,0.0
1401,61.0,0.0,510.0,2.0,0.0
1402,57.0,0.0,510.0,3.0,0.0
1403,73.0,0.0,1530.0,0.0,0.0
1404,59.0,256.0,270.0,3.0,0.0
1405,69.0,0.0,510.0,1.0,0.0
1406,64.0,256.0,510.0,2.0,0.0
1407,61.0,0.0,270.0,3.0,0.0
1408,69.0,0.0,270.0,1.0,0.0
1409,66.0,256.0,270.0,2.0,0.0
1410,62.0,512.0,1530.0,3.0,0.0
1411,68.0,0.0,270.0,2.0,0.0
1412,68.0,256.0,270.0,1.0,0.0
1413,69.0,0.0,510.0,2.0,0.0
1414,69.0,0.0,510.0,0.0,0.0
1415,66.0,256.0,270.0,1.0,0.0
1416,65.0,512.0,270.0,1.0,0.0
1417,66.0,0.0,510.0,1.0,0.0
1418,69.0,0.0,510.0,2.0,0.0
1419,71.0,512.0,1020.0,0.0,0.0
1420,68.0,0.0,510.0,2.0,0.0
1421,53.0,0.0,510.0,3.0,0.0
1422,66.0,0.0,510.0,2.0,0.0
1423,69.0,0.0,1020.0,0.0,0.0
1424,61.0,0.0,15.0,1.0,0.0
1425,54.0,0.0,1020.0,3.0,0.0
1426,66.0,512.0,1020.0,1.0,0.0
1427,68.0,1024.0,1020.0,0.0,0.0
1428,49.0,0.0,1020.0,3.0,0.0
1429,61.0,512.0,15.0,2.0,0.0
1430,65.0,0.0,510.0,1.0,0.0
1431,61.0,1024.0,1020.0,1.0,0.0
1432,56.0,0.0,1020.0,2.0,0.0
1433,64.0,0.0,1020.0,0.0,0.0
1434,49.0,0.0,1020.0,3.0,0.0
1435,51.0,0.0,1020.0,3.0,0.0
1436,54.0,0.0,1020.0,2.0,0.0
1437,66.0,512.0,1020.0,0.0,0.0
1438,59.0,0.0,1020.0,1.0,0.0
1439,61.0,0.0,510.0,2.0,0.0
1440,64.0,512.0,510.0,1.0,0.0
1441,69.0,0.0,1020.0,0.0,0.0
1442,49.0,0.0,510.0,3.0,0.0
1443,66.0,512.0,1020.0,1.0,0.0
1444,51.0,512.0,510.0,3.0,0.0
1445,59.0,0.0,510.0,2.0,0.0
1446,59.0,0.0,1020.0,2.0,0.0
1447,68.0,512.0,1020.0,0.0,0.0
1448,52.0,0.0,1020.0,3.0,0.0
1449,64.0,512.0,1020.0,1.0,0.0
1450,59.0,0.0,1020.0,2.0,0.0
1451,47.0,0.0,1020.0,3.0,0.0
1452,66.0,0.0,1020.0,0.0,0.0
1453,63.0,256.0,510.0,1.0,0.0
1454,52.0,512.0,510.0,2.0,0.0
1455,45.0,512.0,1020.0,3.0,0.0
1456,69.0,0.0,1020.0,0.0,0.0
1457,61.0,256.0,270.0,1.0,0.0
1458,63.0,0.0,270.0,1.0,0.0
1459,61.0,0.0,510.0,2.0,0.0
1460,64.0,256.0,1020.0,1.0,0.0
1461,66.0,0.0,1020.0,0.0,0.0
1462,59.0,256.0,780.0,2.0,0.0
1463,47.0,1024.0,1020.0,3.0,0.0
1464,63.0,0.0,510.0,1.0,0.0
1465,57.0,0.0,270.0,2.0,0.0
1466,59.0,0.0,1020.0,1.0,0.0
1467,64.0,512.0,1020.0,0.0,0.0
1468,52.0,0.0,15.0,3.0,0.0
1469,56.0,0.0,15.0,2.0,0.0
1470,71.0,0.0,1020.0,0.0,0.0
1471,64.0,0.0,1020.0,1.0,0.0
1472,57.0,0.0,510.0,2.0,0.0
1473,54.0,512.0,510.0,3.0,0.0
1474,64.0,512.0,510.0,1.0,0.0
1475,56.0,512.0,1020.0,3.0,0.0
1476,59.0,0.0,1020.0,2.0,0.0
1477,66.0,0.0,510.0,1.0,0.0
1478,68.0,256.0,1530.0,1.0,0.0
1479,71.0,0.0,15.0,0.0,0.0
1480,64.0,512.0,510.0,2.0,0.0
1481,52.0,512.0,1020.0,3.0,0.0
1482,62.0,0.0,510.0,2.0,0.0
1483,61.0,0.0,510.0,2.0,0.0
1484,45.0,0.0,1020.0,3.0,0.0
1485,73.0,0.0,1530.0,0.0,0.0
1486,57.0,0.0,1020.0,2.0,0.0
1487,66.0,256.0,270.0,1.0,0.0
1488,65.0,512.0,270.0,1.0,0.0
1489,50.0,256.0,510.0,3.0,0.0
1490,66.0,512.0,1530.0,1.0,0.0
1491,69.0,0.0,510.0,0.0,0.0
1492,59.0,256.0,270.0,2.0,0.0
1493,49.0,0.0,510.0,3.0,0.0
1494,61.0,512.0,270.0,2.0,0.0
1495,71.0,0.0,1020.0,0.0,0.0
1496,47.0,0.0,1020.0,3.0,0.0
1497,62.0,512.0,1020.0,2.0,0.0
1498,68.0,512.0,1020.0,1.0,0.0
1499,54.0,0.0,1020.0,3.0,0.0
1500,69.0,0.0,1020.0,0.0,0.0
1501,61.0,512.0,1020.0,2.0,0.0
1502,66.0,512.0,1020.0,1.0,0.0
1503,49.0,0.0,1020.0,3.0,0.0
1504,68.0,512.0,1020.0,0.0,0.0
1505,65.0,0.0,510.0,1.0,0.0
1506,66.0,512.0,1530.0,1.0,0.0
1507,54.0,512.0,510.0,3.0,0.0
1508,61.0,0.0,15.0,2.0,0.0
1509,52.0,0.0,510.0,3.0,0.0
1510,69.0,0.0,15.0,0.0,0.0
1511,51.0,0.0,510.0,3.0,0.0
1512,59.0,0.0,1020.0,2.0,0.0
1513,64.0,0.0,510.0,1.0,0.0
1514,49.0,0.0,510.0,3.0,0.0
1515,69.0,512.0,15.0,0.0,0.0
1516,47.0,0.0,1020.0,3.0,0.0
1517,63.0,512.0,510.0,1.0,0.0
1518,66.0,512.0,1020.0,1.0,0.0
1519,52.0,0.0,1020.0,3.0,0.0
1520,68.0,512.0,1020.0,0.0,0.0
1521,59.0,512.0,15.0,2.0,0.0
1522,64.0,512.0,1020.0,1.0,0.0
1523,59.0,0.0,15.0,2.0,0.0
1524,47.0,0.0,1020.0,3.0,0.0
1525,66.0,512.0,1020.0,0.0,0.0
1526,63.0,0.0,510.0,1.0,0.0
1527,64.0,256.0,1530.0,1.0,0.0
1528,49.0,512.0,510.0,3.0,0.0
1529,69.0,512.0,1020.0,0.0,0.0
1530,57.0,0.0,510.0,2.0,0.0
1531,45.0,0.0,510.0,3.0,0.0
1532,61.0,0.0,510.0,2.0,0.0
1533,66.0,0.0,1020.0,0.0,0.0
1534,59.0,256.0,780.0,2.0,0.0
1535,47.0,1024.0,1020.0,3.0,0.0
1536,63.0,0.0,510.0,1.0,0.0
1537,57.0,0.0,270.0,2.0,0.0
1538,59.0,0.0,1020.0,1.0,0.0
1539,64.0,0.0,1020.0,0.0,0.0
1540,56.0,512.0,1020.0,2.0,0.0
1541,40.0,0.0,1020.0,3.0,0.0
1542,52.0,0.0,510.0,3.0,0.0
1543,56.0,512.0,510.0,2.0,0.0
1544,54.0,0.0,510.0,3.0,0.0
1545,57.0,512.0,510.0,2.0,0.0
1546,71.0,0.0,15.0,0.0,0.0
1547,64.0,0.0,15.0,1.0,0.0
1548,56.0,0.0,510.0,3.0,0.0
1549,59.0,512.0,510.0,2.0,0.0
1550,61.0,0.0,510.0,2.0,0.0
1551,57.0,512.0,510.0,3.0,0.0
1552,66.0,0.0,510.0,1.0,0.0
1553,68.0,256.0,510.0,1.0,0.0
1554,62.0,0.0,1020.0,2.0,0.0
1555,71.0,0.0,1020.0,0.0,0.0
1556,59.0,0.0,1020.0,3.0,0.0
1557,66.0,256.0,270.0,1.0,0.0
1558,68.0,512.0,270.0,1.0,0.0
1559,57.0,512.0,510.0,3.0,0.0
1560,73.0,256.0,1530.0,0.0,0.0
1561,64.0,0.0,1020.0,2.0,0.0
1562,56.0,0.0,510.0,3.0,0.0
1563,66.0,256.0,780.0,2.0,0.0
1564,69.0,512.0,15.0,1.0,0.0
1565,69.0,0.0,510.0,0.0,0.0
1566,64.0,0.0,270.0,2.0,0.0
1567,68.0,512.0,1530.0,1.0,0.0
1568,71.0,0.0,1020.0,0.0,0.0
1569,54.0,512.0,15.0,3.0,0.0
1570,62.0,0.0,510.0,2.0,0.0
1571,53.0,512.0,510.0,3.0,0.0
1572,69.0,1024.0,1020.0,0.0,0.0
1573,61.0,0.0,15.0,2.0,0.0
1574,54.0,0.0,1020.0,3.0,0.0
1575,66.0,0.0,510.0,1.0,0.0
1576,49.0,512.0,1020.0,3.0,0.0
1577,65.0,0.0,1020.0,1.0,0.0
1578,61.0,0.0,15.0,2.0,0.0
1579,68.0,0.0,1020.0,0.0,0.0
1580,61.0,0.0,1020.0,3.0,0.0
1581,64.0,512.0,1020.0,1.0,0.0
1582,61.0,0.0,15.0,2.0,0.0
1583,68.0,512.0,510.0,0.0,0.0
1584,69.0,0.0,510.0,0.0,0.0
1585,71.0,0.0,1020.0,0.0,0.0
1586,59.0,0.0,510.0,2.0,0.0
1587,56.0,0.0,510.0,3.0,0.0
1588,63.0,256.0,510.0,1.0,0.0
1589,54.0,0.0,510.0,3.0,0.0
1590,61.0,256.0,270.0,2.0,0.0
1591,64.0,0.0,270.0,1.0,0.0
1592,66.0,512.0,270.0,1.0,0.0
1593,63.0,0.0,270.0,2.0,0.0
1594,52.0,0.0,1020.0,3.0,0.0
1595,68.0,512.0,510.0,1.0,0.0
1596,64.0,0.0,510.0,2.0,0.0
1597,73.0,0.0,1020.0,0.0,0.0
1598,63.0,512.0,510.0,2.0,0.0
1599,66.0,0.0,510.0,1.0,0.0
1600,64.0,0.0,510.0,1.0,0.0
1601,73.0,0.0,1020.0,0.0,0.0
1602,57.0,0.0,510.0,3.0,0.0
1603,61.0,256.0,510.0,2.0,0.0
1604,56.0,1024.0,510.0,3.0,0.0
1605,63.0,0.0,270.0,2.0,0.0
1606,66.0,256.0,270.0,1.0,0.0
1607,68.0,0.0,270.0,1.0,0.0
1608,64.0,0.0,270.0,2.0,0.0
1609,66.0,256.0,1020.0,2.0,0.0
1610,69.0,0.0,1020.0,1.0,0.0
1611,54.0,0.0,1020.0,3.0,0.0
1612,73.0,0.0,1020.0,0.0,0.0
1613,64.0,256.0,270.0,2.0,0.0
1614,68.0,256.0,1290.0,1.0,0.0
1615,76.0,256.0,1020.0,0.0,0.0
1616,61.0,256.0,510.0,3.0,0.0
1617,63.0,0.0,270.0,2.0,0.0
1618,61.0,256.0,270.0,2.0,0.0
1619,59.0,0.0,510.0,3.0,0.0
1620,59.0,0.0,270.0,2.0,0.0
1621,61.0,0.0,510.0,2.0,0.0
1622,57.0,0.0,510.0,3.0,0.0
1623,73.0,0.0,1020.0,0.0,0.0
1624,66.0,256.0,270.0,1.0,0.0
1625,54.0,0.0,510.0,3.0,0.0
1626,69.0,1024.0,510.0,2.0,0.0
1627,64.0,256.0,270.0,1.0,0.0
1628,63.0,0.0,270.0,1.0,0.0
1629,68.0,0.0,1020.0,2.0,0.0
1630,61.0,0.0,1020.0,3.0,0.0
1631,64.0,512.0,1020.0,1.0,0.0
1632,73.0,0.0,15.0,0.0,0.0
1633,49.0,0.0,510.0,3.0,0.0
1634,64.0,512.0,510.0,2.0,0.0
1635,68.0,0.0,1020.0,1.0,0.0
1636,51.0,0.0,510.0,3.0,0.0
1637,66.0,512.0,510.0,2.0,0.0
1638,73.0,0.0,15.0,0.0,0.0
1639,52.0,0.0,510.0,3.0,0.0
1640,68.0,0.0,510.0,1.0,0.0
1641,68.0,512.0,510.0,2.0,0.0
1642,54.0,512.0,510.0,3.0,0.0
1643,69.0,0.0,510.0,1.0,0.0
1644,66.0,512.0,1020.0,2.0,0.0
1645,71.0,0.0,1020.0,1.0,0.0
1646,56.0,0.0,1530.0,3.0,0.0
1647,71.0,512.0,1020.0,0.0,0.0
1648,64.0,512.0,1020.0,2.0,0.0
1649,73.0,0.0,510.0,0.0,0.0
1650,69.0,0.0,1020.0,1.0,0.0
1651,75.0,0.0,510.0,0.0,0.0
1652,66.0,512.0,510.0,2.0,0.0
1653,54.0,0.0,510.0,3.0,0.0
1654,59.0,0.0,510.0,2.0,0.0
1655,56.0,512.0,510.0,3.0,0.0
1656,76.0,0.0,1020.0,0.0,0.0
1657,71.0,0.0,510.0,1.0,0.0
1658,61.0,0.0,510.0,2.0,0.0
1659,69.0,512.0,510.0,1.0,0.0
1660,57.0,0.0,510.0,3.0,0.0
1661,63.0,0.0,510.0,2.0,0.0
1662,59.0,512.0,510.0,3.0,0.0
1663,68.0,0.0,1020.0,1.0,0.0
1664,57.0,0.0,510.0,3.0,0.0
1665,64.0,0.0,1020.0,2.0,0.0
1666,71.0,512.0,15.0,0.0,0.0
1667,66.0,0.0,1020.0,1.0,0.0
1668,59.0,512.0,510.0,3.0,0.0
1669,63.0,1024.0,510.0,2.0,0.0
1670,47.0,0.0,510.0,3.0,0.0
1671,59.0,0.0,1020.0,2.0,0.0
1672,68.0,1024.0,1020.0,0.0,0.0
1673,56.0,0.0,1020.0,3.0,0.0
1674,64.0,0.0,1020.0,1.0,0.0
1675,49.0,0.0,1020.0,3.0,0.0
1676,68.0,1024.0,1020.0,1.0,0.0
1677,64.0,0.0,1020.0,2.0,0.0
1678,66.0,0.0,1020.0,2.0,0.0
1679,73.0,0.0,15.0,0.0,0.0
1680,54.0,512.0,1020.0,3.0,0.0
1681,69.0,0.0,1020.0,1.0,0.0
1682,52.0,0.0,510.0,3.0,0.0
1683,68.0,256.0,510.0,1.0,0.0
1684,61.0,0.0,510.0,2.0,0.0
1685,73.0,512.0,1020.0,0.0,0.0
1686,66.0,256.0,270.0,1.0,0.0
1687,69.0,0.0,1020.0,2.0,0.0
1688,54.0,0.0,510.0,3.0,0.0
1689,64.0,0.0,270.0,1.0,0.0
1690,56.0,256.0,510.0,3.0,0.0
1691,71.0,0.0,1020.0,0.0,0.0
1692,63.0,512.0,1020.0,1.0,0.0
1693,68.0,256.0,270.0,2.0,0.0
1694,57.0,0.0,510.0,3.0,0.0
1695,66.0,0.0,270.0,2.0,0.0
1696,75.0,512.0,1020.0,0.0,0.0
1697,68.0,256.0,510.0,2.0,0.0
1698,59.0,0.0,510.0,3.0,0.0
1699,63.0,0.0,510.0,1.0,0.0
1700,64.0,256.0,270.0,1.0,0.0
1701,61.0,0.0,510.0,2.0,0.0
1702,57.0,0.0,510.0,3.0,0.0
1703,66.0,0.0,270.0,1.0,0.0
1704,56.0,0.0,510.0,3.0,0.0
1705,59.0,512.0,510.0,2.0,0.0
1706,68.0,256.0,1290.0,1.0,0.0
1707,54.0,0.0,510.0,3.0,0.0
1708,58.0,0.0,510.0,2.0,0.0
1709,53.0,0.0,1020.0,3.0,0.0
1710,59.0,512.0,1020.0,2.0,0.0
1711,75.0,256.0,15.0,0.0,0.0
1712,70.0,512.0,270.0,1.0,0.0
1713,71.0,512.0,1020.0,1.0,0.0
1714,54.0,0.0,1020.0,3.0,0.0
1715,66.0,0.0,1020.0,2.0,0.0
1716,70.0,512.0,510.0,1.0,0.0
1717,57.0,512.0,510.0,3.0,0.0
1718,73.0,0.0,15.0,0.0,0.0
1719,64.0,512.0,1530.0,2.0,0.0
1720,56.0,512.0,510.0,3.0,0.0
1721,69.0,0.0,15.0,1.0,0.0
1722,73.0,0.0,1020.0,0.0,0.0
1723,54.0,1024.0,1020.0,3.0,0.0
1724,62.0,0.0,510.0,2.0,0.0
1725,62.0,0.0,1020.0,2.0,0.0
1726,56.0,0.0,1020.0,3.0,0.0
1727,71.0,0.0,1020.0,0.0,0.0
1728,61.0,512.0,510.0,2.0,0.0
1729,57.0,0.0,1020.0,3.0,0.0
1730,64.0,512.0,15.0,1.0,0.0
1731,73.0,512.0,1020.0,0.0,0.0
1732,59.0,0.0,510.0,2.0,0.0
1733,49.0,0.0,510.0,3.0,0.0
1734,57.0,0.0,1020.0,2.0,0.0
1735,64.0,512.0,510.0,1.0,0.0
1736,76.0,0.0,1020.0,0.0,0.0
1737,51.0,512.0,510.0,3.0,0.0
1738,66.0,0.0,510.0,1.0,0.0
1739,56.0,512.0,510.0,2.0,0.0
1740,71.0,0.0,1020.0,0.0,0.0
1741,52.0,0.0,1020.0,3.0,0.0
1742,59.0,256.0,510.0,2.0,0.0
1743,71.0,512.0,1020.0,0.0,0.0
1744,47.0,0.0,1020.0,3.0,0.0
1745,68.0,0.0,15.0,1.0,0.0
1746,62.0,0.0,1020.0,2.0,0.0
1747,65.0,512.0,270.0,1.0,0.0
1748,66.0,512.0,1020.0,1.0,0.0
1749,61.0,0.0,1020.0,2.0,0.0
1750,49.0,0.0,1020.0,3.0,0.0
1751,68.0,1024.0,1020.0,0.0,0.0
1752,65.0,0.0,510.0,1.0,0.0
1753,64.0,0.0,1020.0,2.0,0.0
1754,68.0,0.0,1020.0,1.0,0.0
1755,49.0,0.0,1020.0,3.0,0.0
1756,54.0,0.0,1020.0,3.0,0.0
1757,69.0,0.0,1020.0,1.0,0.0
1758,73.0,1024.0,15.0,0.0,0.0
1759,66.0,512.0,1020.0,2.0,0.0
1760,68.0,0.0,510.0,1.0,0.0
1761,73.0,0.0,1020.0,0.0,0.0
1762,52.0,256.0,510.0,3.0,0.0
1763,61.0,0.0,510.0,2.0,0.0
1764,66.0,256.0,270.0,1.0,0.0
1765,69.0,0.0,1020.0,2.0,0.0
1766,54.0,512.0,510.0,3.0,0.0
1767,64.0,0.0,270.0,1.0,0.0
1768,63.0,0.0,1020.0,1.0,0.0
1769,56.0,256.0,510.0,3.0,0.0
1770,71.0,0.0,1020.0,0.0,0.0
1771,68.0,256.0,270.0,2.0,0.0
1772,57.0,0.0,510.0,3.0,0.0
1773,66.0,512.0,270.0,2.0,0.0
1774,68.0,0.0,510.0,2.0,0.0
1775,63.0,0.0,510.0,1.0,0.0
1776,59.0,256.0,510.0,3.0,0.0
1777,61.0,0.0,510.0,2.0,0.0
1778,64.0,256.0,270.0,1.0,0.0
1779,57.0,0.0,510.0,3.0,0.0
1780,66.0,512.0,270.0,1.0,0.0
1781,59.0,0.0,510.0,2.0,0.0
1782,75.0,0.0,15.0,0.0,0.0
1783,56.0,512.0,510.0,3.0,0.0
1784,68.0,256.0,1290.0,1.0,0.0
1785,58.0,256.0,510.0,2.0,0.0
1786,54.0,0.0,510.0,3.0,0.0
1787,75.0,512.0,1020.0,0.0,0.0
1788,59.0,0.0,1020.0,2.0,0.0
1789,53.0,0.0,1020.0,3.0,0.0
1790,70.0,512.0,270.0,1.0,0.0
1791,71.0,512.0,1020.0,1.0,0.0
1792,66.0,0.0,1020.0,2.0,0.0
1793,54.0,512.0,1020.0,3.0,0.0
1794,70.0,0.0,510.0,1.0,0.0
1795,73.0,0.0,15.0,0.0,0.0
1796,57.0,512.0,510.0,3.0,0.0
1797,69.0,0.0,1020.0,1.0,0.0
1798,64.0,512.0,1530.0,2.0,0.0
1799,56.0,0.0,510.0,3.0,0.0
1800,54.0,1024.0,1020.0,3.0,0.0
1801,73.0,512.0,15.0,0.0,0.0
1802,69.0,0.0,1020.0,1.0,0.0
1803,62.0,0.0,15.0,2.0,0.0
1804,71.0,512.0,1020.0,0.0,0.0
1805,64.0,0.0,1020.0,1.0,0.0
1806,56.0,0.0,1020.0,3.0,0.0
1807,57.0,512.0,1020.0,3.0,0.0
1808,61.0,512.0,510.0,2.0,0.0
1809,73.0,0.0,1020.0,0.0,0.0
1810,64.0,0.0,1020.0,1.0,0.0
1811,59.0,0.0,510.0,2.0,0.0
1812,49.0,512.0,510.0,3.0,0.0
1813,76.0,0.0,1020.0,0.0,0.0
1814,57.0,0.0,1020.0,2.0,0.0
1815,64.0,0.0,510.0,1.0,0.0
1816,51.0,512.0,510.0,3.0,0.0
1817,66.0,0.0,510.0,1.0,0.0
1818,71.0,256.0,1020.0,0.0,0.0
1819,52.0,0.0,1020.0,3.0,0.0
1820,68.0,0.0,1020.0,1.0,0.0
1821,56.0,512.0,510.0,2.0,0.0
1822,59.0,0.0,510.0,2.0,0.0
1823,68.0,256.0,270.0,1.0,0.0
1824,71.0,0.0,1020.0,0.0,0.0
1825,62.0,0.0,1020.0,2.0,0.0
1826,47.0,512.0,1020.0,3.0,0.0
1827,65.0,512.0,270.0,1.0,0.0
1828,66.0,512.0,1020.0,1.0,0.0
1829,68.0,0.0,1020.0,0.0,0.0
1830,61.0,0.0,1020.0,2.0,0.0
1831,65.0,0.0,510.0,1.0,0.0
1832,49.0,1024.0,15.0,3.0,0.0
1833,64.0,1024.0,1020.0,2.0,0.0
1834,68.0,0.0,1020.0,1.0,0.0
1835,54.0,0.0,1020.0,3.0,0.0
1836,69.0,0.0,1020.0,1.0,0.0
1837,66.0,512.0,1020.0,2.0,0.0
1838,73.0,0.0,15.0,0.0,0.0
1839,52.0,256.0,510.0,3.0,0.0
1840,68.0,0.0,510.0,1.0,0.0
1841,73.0,512.0,1020.0,0.0,0.0
1842,61.0,0.0,510.0,2.0,0.0
1843,66.0,256.0,270.0,1.0,0.0
1844,69.0,0.0,1020.0,2.0,0.0
1845,54.0,0.0,510.0,3.0,0.0
1846,64.0,0.0,270.0,1.0,0.0
1847,63.0,0.0,1020.0,1.0,0.0
1848,71.0,512.0,1020.0,0.0,0.0
1849,56.0,256.0,510.0,3.0,0.0
1850,57.0,0.0,510.0,3.0,0.0
1851,68.0,256.0,270.0,2.0,0.0
1852,66.0,0.0,270.0,2.0,0.0
1853,68.0,256.0,510.0,2.0,0.0
1854,59.0,0.0,510.0,3.0,0.0
1855,63.0,0.0,510.0,1.0,0.0
1856,57.0,0.0,510.0,3.0,0.0
1857,64.0,256.0,270.0,1.0,0.0
1858,61.0,0.0,510.0,2.0,0.0
1859,66.0,0.0,270.0,1.0,0.0
1860,56.0,512.0,510.0,3.0,0.0
1861,68.0,256.0,1290.0,1.0,0.0
1862,75.0,512.0,15.0,0.0,0.0
1863,59.0,0.0,510.0,2.0,0.0
1864,58.0,0.0,510.0,2.0,0.0
1865,54.0,0.0,510.0,3.0,0.0
1866,59.0,0.0,1020.0,2.0,0.0
1867,75.0,256.0,15.0,0.0,0.0
1868,53.0,0.0,1020.0,3.0,0.0
1869,70.0,512.0,270.0,1.0,0.0
1870,71.0,512.0,1020.0,1.0,0.0
1871,54.0,512.0,1020.0,3.0,0.0
1872,66.0,0.0,1020.0,2.0,0.0
1873,70.0,0.0,510.0,1.0,0.0
1874,73.0,0.0,15.0,0.0,0.0
1875,64.0,512.0,1530.0,2.0,0.0
1876,57.0,512.0,510.0,3.0,0.0
1877,56.0,0.0,510.0,3.0,0.0
1878,69.0,512.0,15.0,1.0,0.0
1879,73.0,0.0,15.0,0.0,0.0
1880,54.0,0.0,1020.0,3.0,0.0
1881,62.0,1024.0,15.0,2.0,0.0
1882,56.0,0.0,1020.0,3.0,0.0
1883,64.0,0.0,1020.0,1.0,0.0
1884,71.0,512.0,1020.0,0.0,0.0
1885,64.0,0.0,1020.0,1.0,0.0
1886,73.0,0.0,1020.0,0.0,0.0
1887,57.0,0.0,1020.0,3.0,0.0
1888,61.0,512.0,510.0,2.0,0.0
1889,59.0,512.0,510.0,2.0,0.0
1890,49.0,512.0,510.0,3.0,0.0
1891,57.0,0.0,1020.0,2.0,0.0
1892,64.0,0.0,510.0,1.0,0.0
1893,76.0,0.0,1020.0,0.0,0.0
1894,66.0,512.0,510.0,1.0,0.0
1895,51.0,0.0,510.0,3.0,0.0
1896,52.0,256.0,1020.0,3.0,0.0
1897,56.0,512.0,510.0,2.0,0.0
1898,68.0,0.0,1020.0,1.0,0.0
1899,59.0,0.0,510.0,2.0,0.0
1900,71.0,0.0,15.0,0.0,0.0
1901,62.0,0.0,1020.0,2.0,0.0
1902,47.0,512.0,1020.0,3.0,0.0
1903,68.0,256.0,270.0,1.0,0.0
1904,65.0,512.0,270.0,1.0,0.0
1905,66.0,512.0,1020.0,1.0,0.0
1906,61.0,0.0,1020.0,2.0,0.0
1907,49.0,512.0,1020.0,3.0,0.0
1908,68.0,0.0,1020.0,0.0,0.0
1909,65.0,0.0,510.0,1.0,0.0
1910,66.0,512.0,1020.0,1.0,0.0
1911,69.0,512.0,510.0,0.0,0.0
1912,61.0,0.0,510.0,2.0,0.0
1913,59.0,0.0,510.0,2.0,0.0
1914,68.0,0.0,510.0,0.0,0.0
1915,54.0,0.0,15.0,3.0,0.0
1916,61.0,256.0,510.0,1.0,0.0
1917,57.0,0.0,1530.0,2.0,0.0
1918,66.0,512.0,1020.0,0.0,0.0
1919,52.0,0.0,510.0,3.0,0.0
1920,62.0,256.0,270.0,1.0,0.0
1921,64.0,0.0,270.0,1.0,0.0
1922,50.0,256.0,510.0,3.0,0.0
1923,69.0,0.0,1020.0,0.0,0.0
1924,66.0,0.0,1530.0,1.0,0.0
1925,59.0,256.0,270.0,2.0,0.0
1926,49.0,512.0,510.0,3.0,0.0
1927,61.0,0.0,270.0,2.0,0.0
1928,71.0,0.0,1020.0,0.0,0.0
1929,47.0,0.0,1020.0,3.0,0.0
1930,62.0,256.0,510.0,2.0,0.0
1931,64.0,256.0,270.0,2.0,0.0
1932,68.0,512.0,1020.0,1.0,0.0
1933,62.0,512.0,270.0,2.0,0.0
1934,73.0,512.0,1020.0,0.0,0.0
1935,61.0,0.0,510.0,2.0,0.0
1936,45.0,0.0,1020.0,3.0,0.0
1937,57.0,0.0,510.0,2.0,0.0
1938,66.0,512.0,1020.0,1.0,0.0
1939,44.0,1024.0,1020.0,3.0,0.0
1940,71.0,0.0,1020.0,0.0,0.0
1941,62.0,0.0,510.0,2.0,0.0
1942,59.0,0.0,510.0,2.0,0.0
1943,65.0,0.0,510.0,1.0,0.0
1944,61.0,0.0,1020.0,2.0,0.0
1945,69.0,1024.0,1020.0,0.0,0.0
1946,66.0,0.0,1020.0,1.0,0.0
1947,42.0,0.0,1020.0,3.0,0.0
1948,65.0,512.0,1020.0,1.0,0.0
1949,61.0,0.0,1020.0,2.0,0.0
1950,49.0,0.0,1020.0,3.0,0.0
1951,68.0,0.0,1020.0,0.0,0.0
1952,61.0,0.0,1020.0,2.0,0.0
1953,54.0,512.0,510.0,3.0,0.0
1954,52.0,512.0,510.0,3.0,0.0
1955,69.0,0.0,15.0,0.0,0.0
1956,66.0,0.0,15.0,1.0,0.0
1957,62.0,0.0,1020.0,2.0,0.0
1958,50.0,512.0,510.0,3.0,0.0
1959,49.0,0.0,510.0,3.0,0.0
1960,71.0,512.0,1020.0,0.0,0.0
1961,47.0,0.0,1020.0,3.0,0.0
1962,62.0,0.0,1020.0,2.0,0.0
1963,68.0,0.0,510.0,1.0,0.0
1964,73.0,512.0,1020.0,0.0,0.0
1965,64.0,0.0,1020.0,2.0,0.0
1966,69.0,256.0,510.0,1.0,0.0
1967,45.0,0.0,510.0,3.0,0.0
1968,47.0,256.0,270.0,3.0,0.0
1969,68.0,0.0,510.0,1.0,0.0
1970,49.0,0.0,270.0,3.0,0.0
1971,50.0,512.0,1530.0,3.0,0.0
1972,71.0,512.0,510.0,0.0,0.0
1973,66.0,0.0,1020.0,1.0,0.0
1974,62.0,0.0,1020.0,2.0,0.0
1975,69.0,512.0,510.0,0.0,0.0
1976,62.0,0.0,1020.0,2.0,0.0
1977,71.0,0.0,1020.0,0.0,0.0
1978,47.0,0.0,510.0,3.0,0.0
1979,61.0,512.0,510.0,2.0,0.0
1980,69.0,0.0,1020.0,0.0,0.0
1981,66.0,256.0,15.0,1.0,0.0
1982,54.0,1024.0,1020.0,3.0,0.0
1983,65.0,0.0,270.0,1.0,0.0
1984,66.0,0.0,510.0,1.0,0.0
1985,60.0,0.0,510.0,2.0,0.0
1986,68.0,0.0,1020.0,0.0,0.0
1987,61.0,1024.0,1020.0,2.0,0.0
1988,65.0,0.0,1020.0,1.0,0.0
1989,49.0,0.0,1020.0,3.0,0.0
1990,66.0,0.0,1020.0,1.0,0.0
1991,51.0,0.0,1020.0,3.0,0.0
1992,71.0,0.0,1020.0,0.0,0.0
1993,52.0,0.0,3060.0,3.0,0.0
1994,64.0,0.0,1020.0,1.0,0.0
1995,68.0,0.0,1020.0,0.0,0.0
1996,59.0,1024.0,15.0,2.0,0.0
1997,56.0,0.0,1020.0,2.0,0.0
1998,59.0,0.0,1020.0,1.0,0.0
1999,64.0,1024.0,1020.0,0.0,0.0
2000,66.0,0.0,2040.0,0.0,0.0
2001,57.0,0.0,2040.0,2.0,0.0
2002,61.0,512.0,1020.0,1.0,0.0
2003,60.0,0.0,510.0,1.0,0.0
2004,51.0,512.0,510.0,3.0,0.0
2005,49.0,0.0,510.0,3.0,0.0
2006,61.0,512.0,510.0,1.0,0.0
2007,68.0,0.0,8190.0,0.0,0.0
2008,56.0,512.0,1020.0,2.0,0.0
2009,48.0,512.0,1530.0,3.0,0.0
2010,63.0,512.0,510.0,1.0,0.0
2011,64.0,0.0,510.0,1.0,0.0
2012,66.0,512.0,1020.0,1.0,0.0
2013,63.0,512.0,2040.0,2.0,0.0
2014,44.0,0.0,510.0,3.0,0.0
2015,64.0,0.0,3060.0,1.0,0.0
2016,49.0,512.0,510.0,3.0,0.0
2017,51.0,0.0,510.0,3.0,0.0
2018,52.0,512.0,510.0,3.0,0.0
2019,61.0,512.0,2040.0,2.0,0.0
2020,54.0,1024.0,510.0,3.0,0.0
2021,56.0,2048.0,2040.0,3.0,0.0
2022,63.0,512.0,510.0,1.0,0.0
2023,60.0,0.0,510.0,2.0,0.0
2024,61.0,0.0,510.0,1.0,0.0
2025,58.0,0.0,510.0,2.0,0.0
2026,44.0,0.0,2040.0,3.0,0.0
2027,63.0,0.0,2040.0,1.0,0.0
2028,60.0,0.0,2040.0,2.0,0.0
