,note,step,duration,channel,velocity
0,59.0,0.0,120.0,8.0,0.0
1,59.0,75.0,120.0,5.0,0.0
2,50.0,0.0,120.0,5.0,0.0
3,71.0,30.0,60.0,0.0,0.0
4,59.0,0.0,120.0,4.0,0.0
5,50.0,0.0,120.0,8.0,0.0
6,66.0,11.0,120.0,3.0,0.0
7,71.0,0.0,60.0,6.0,0.0
8,73.0,0.0,30.0,6.0,0.0
9,73.0,15.0,30.0,0.0,0.0
10,74.0,0.0,30.0,6.0,0.0
11,74.0,64.0,30.0,0.0,0.0
12,54.0,0.0,120.0,5.0,0.0
13,73.0,30.0,60.0,6.0,0.0
14,66.0,11.0,120.0,3.0,0.0
15,54.0,0.0,120.0,8.0,0.0
16,58.0,0.0,120.0,4.0,0.0
17,73.0,0.0,60.0,0.0,0.0
18,74.0,15.0,30.0,6.0,0.0
19,74.0,0.0,30.0,0.0,0.0
20,76.0,0.0,30.0,0.0,0.0
21,76.0,109.0,30.0,6.0,0.0
22,74.0,0.0,180.0,0.0,0.0
23,47.0,60.0,120.0,8.0,0.0
24,59.0,0.0,180.0,4.0,0.0
25,74.0,60.0,180.0,6.0,0.0
26,47.0,0.0,120.0,5.0,0.0
27,66.0,0.0,360.0,3.0,0.0
28,59.0,7.0,120.0,8.0,0.0
29,59.0,0.0,120.0,5.0,0.0
30,73.0,113.0,60.0,0.0,0.0
31,61.0,0.0,60.0,4.0,0.0
32,73.0,0.0,60.0,6.0,0.0
33,71.0,0.0,120.0,0.0,0.0
34,57.0,0.0,120.0,5.0,0.0
35,71.0,120.0,120.0,6.0,0.0
36,62.0,0.0,240.0,4.0,0.0
37,57.0,0.0,120.0,8.0,0.0
38,56.0,0.0,180.0,8.0,0.0
39,64.0,60.0,120.0,3.0,0.0
40,56.0,33.0,180.0,5.0,0.0
41,76.0,27.0,90.0,0.0,0.0
42,76.0,0.0,90.0,6.0,0.0
43,61.0,7.0,120.0,4.0,0.0
44,66.0,53.0,540.0,3.0,0.0
45,58.0,0.0,60.0,5.0,0.0
46,58.0,4.0,60.0,8.0,0.0
47,78.0,0.0,30.0,6.0,0.0
48,78.0,82.0,30.0,0.0,0.0
49,74.0,27.0,90.0,0.0,0.0
50,74.0,0.0,90.0,6.0,0.0
51,59.0,0.0,240.0,4.0,0.0
52,59.0,11.0,120.0,5.0,0.0
53,59.0,0.0,120.0,8.0,0.0
54,73.0,109.0,30.0,6.0,0.0
55,73.0,0.0,30.0,0.0,0.0
56,73.0,67.0,240.0,0.0,0.0
57,54.0,0.0,120.0,8.0,0.0
58,54.0,120.0,120.0,5.0,0.0
59,73.0,0.0,240.0,6.0,0.0
60,52.0,0.0,120.0,5.0,0.0
61,58.0,0.0,120.0,4.0,0.0
62,52.0,0.0,120.0,8.0,0.0
63,50.0,0.0,120.0,5.0,0.0
64,59.0,7.0,120.0,4.0,0.0
65,50.0,0.0,120.0,8.0,0.0
66,68.0,60.0,60.0,3.0,0.0
67,49.0,0.0,120.0,8.0,0.0
68,70.0,53.0,60.0,3.0,0.0
69,64.0,0.0,120.0,4.0,0.0
70,49.0,7.0,120.0,5.0,0.0
71,71.0,60.0,60.0,3.0,0.0
72,61.0,0.0,120.0,4.0,0.0
73,46.0,7.0,120.0,5.0,0.0
74,46.0,0.0,120.0,8.0,0.0
75,73.0,0.0,120.0,3.0,0.0
76,79.0,0.0,60.0,6.0,0.0
77,79.0,53.0,60.0,0.0,0.0
78,78.0,0.0,60.0,0.0,0.0
79,78.0,34.0,60.0,6.0,0.0
80,66.0,60.0,300.0,3.0,0.0
81,47.0,13.0,120.0,5.0,0.0
82,76.0,0.0,30.0,0.0,0.0
83,47.0,0.0,120.0,8.0,0.0
84,59.0,3.0,240.0,4.0,0.0
85,76.0,30.0,30.0,6.0,0.0
86,74.0,0.0,30.0,6.0,0.0
87,74.0,30.0,30.0,0.0,0.0
88,73.0,0.0,30.0,0.0,0.0
89,73.0,17.0,30.0,6.0,0.0
90,74.0,0.0,15.0,0.0,0.0
91,74.0,2.0,15.0,6.0,0.0
92,71.0,0.0,15.0,0.0,0.0
93,71.0,15.0,15.0,6.0,0.0
94,42.0,0.0,120.0,5.0,0.0
95,73.0,0.0,15.0,6.0,0.0
96,73.0,15.0,15.0,0.0,0.0
97,42.0,0.0,120.0,8.0,0.0
98,71.0,0.0,15.0,6.0,0.0
99,71.0,77.0,15.0,0.0,0.0
100,73.0,57.0,90.0,0.0,0.0
101,73.0,0.0,90.0,6.0,0.0
102,66.0,0.0,120.0,0.0,0.0
103,58.0,7.0,120.0,4.0,0.0
104,54.0,0.0,120.0,5.0,0.0
105,54.0,0.0,120.0,8.0,0.0
106,66.0,0.0,120.0,6.0,0.0
107,66.0,60.0,60.0,3.0,0.0
108,68.0,53.0,60.0,3.0,0.0
109,52.0,0.0,120.0,8.0,0.0
110,52.0,7.0,120.0,5.0,0.0
111,59.0,0.0,60.0,4.0,0.0
112,61.0,0.0,60.0,4.0,0.0
113,70.0,60.0,60.0,3.0,0.0
114,71.0,60.0,60.0,3.0,0.0
115,50.0,7.0,180.0,8.0,0.0
116,62.0,0.0,60.0,4.0,0.0
117,50.0,0.0,180.0,5.0,0.0
118,73.0,53.0,60.0,3.0,0.0
119,64.0,0.0,60.0,4.0,0.0
120,66.0,0.0,60.0,4.0,0.0
121,74.0,60.0,60.0,3.0,0.0
122,64.0,0.0,60.0,4.0,0.0
123,52.0,0.0,60.0,5.0,0.0
124,73.0,0.0,60.0,3.0,0.0
125,52.0,60.0,60.0,8.0,0.0
126,54.0,0.0,120.0,8.0,0.0
127,71.0,0.0,60.0,3.0,0.0
128,54.0,7.0,120.0,5.0,0.0
129,62.0,53.0,60.0,4.0,0.0
130,70.0,60.0,60.0,3.0,0.0
131,61.0,0.0,60.0,4.0,0.0
132,47.0,7.0,120.0,8.0,0.0
133,62.0,0.0,120.0,4.0,0.0
134,71.0,53.0,60.0,3.0,0.0
135,71.0,0.0,360.0,7.0,0.0
136,71.0,0.0,360.0,1.0,0.0
137,47.0,0.0,120.0,5.0,0.0
138,69.0,60.0,60.0,3.0,0.0
139,64.0,0.0,120.0,4.0,0.0
140,67.0,53.0,60.0,3.0,0.0
141,49.0,0.0,120.0,5.0,0.0
142,49.0,7.0,120.0,8.0,0.0
143,66.0,60.0,60.0,3.0,0.0
144,64.0,53.0,60.0,3.0,0.0
145,51.0,0.0,120.0,5.0,0.0
146,59.0,60.0,180.0,4.0,0.0
147,51.0,7.0,120.0,8.0,0.0
148,66.0,60.0,60.0,3.0,0.0
149,73.0,0.0,360.0,1.0,0.0
150,52.0,7.0,180.0,5.0,0.0
151,67.0,0.0,180.0,3.0,0.0
152,52.0,0.0,180.0,8.0,0.0
153,73.0,7.0,360.0,7.0,0.0
154,62.0,53.0,60.0,4.0,0.0
155,61.0,60.0,60.0,4.0,0.0
156,50.0,60.0,60.0,8.0,0.0
157,59.0,0.0,60.0,4.0,0.0
158,50.0,0.0,60.0,5.0,0.0
159,67.0,0.0,60.0,3.0,0.0
160,66.0,53.0,60.0,3.0,0.0
161,58.0,0.0,120.0,4.0,0.0
162,49.0,0.0,120.0,5.0,0.0
163,49.0,0.0,120.0,8.0,0.0
164,64.0,60.0,60.0,3.0,0.0
165,62.0,53.0,60.0,3.0,0.0
166,59.0,0.0,60.0,4.0,0.0
167,74.0,0.0,360.0,7.0,0.0
168,47.0,0.0,120.0,8.0,0.0
169,74.0,7.0,360.0,1.0,0.0
170,47.0,7.0,120.0,5.0,0.0
171,61.0,0.0,60.0,4.0,0.0
172,64.0,60.0,60.0,3.0,0.0
173,62.0,53.0,60.0,4.0,0.0
174,59.0,7.0,120.0,8.0,0.0
175,66.0,0.0,240.0,3.0,0.0
176,59.0,0.0,120.0,5.0,0.0
177,64.0,60.0,60.0,4.0,0.0
178,57.0,0.0,120.0,5.0,0.0
179,57.0,0.0,120.0,8.0,0.0
180,62.0,53.0,60.0,4.0,0.0
181,60.0,60.0,60.0,4.0,0.0
182,55.0,0.0,180.0,8.0,0.0
183,74.0,7.0,360.0,7.0,0.0
184,55.0,0.0,180.0,5.0,0.0
185,74.0,0.0,360.0,1.0,0.0
186,67.0,60.0,60.0,3.0,0.0
187,59.0,7.0,180.0,4.0,0.0
188,72.0,53.0,60.0,3.0,0.0
189,71.0,60.0,60.0,3.0,0.0
190,57.0,60.0,60.0,5.0,0.0
191,60.0,0.0,60.0,4.0,0.0
192,69.0,0.0,60.0,3.0,0.0
193,57.0,0.0,60.0,8.0,0.0
194,67.0,53.0,60.0,3.0,0.0
195,59.0,0.0,120.0,8.0,0.0
196,59.0,0.0,120.0,5.0,0.0
197,62.0,53.0,180.0,4.0,0.0
198,66.0,60.0,60.0,3.0,0.0
199,49.0,7.0,120.0,8.0,0.0
200,49.0,0.0,120.0,5.0,0.0
201,64.0,7.0,240.0,3.0,0.0
202,76.0,7.0,360.0,1.0,0.0
203,76.0,0.0,360.0,7.0,0.0
204,61.0,60.0,60.0,4.0,0.0
205,56.0,0.0,120.0,5.0,0.0
206,56.0,0.0,120.0,8.0,0.0
207,59.0,53.0,60.0,4.0,0.0
208,58.0,60.0,60.0,4.0,0.0
209,58.0,0.0,120.0,5.0,0.0
210,59.0,53.0,60.0,4.0,0.0
211,66.0,6.0,180.0,3.0,0.0
212,58.0,0.0,120.0,8.0,0.0
213,61.0,21.0,60.0,4.0,0.0
214,59.0,0.0,180.0,8.0,0.0
215,59.0,7.0,180.0,5.0,0.0
216,74.0,15.0,15.0,1.0,0.0
217,62.0,0.0,180.0,4.0,0.0
218,74.0,0.0,15.0,7.0,0.0
219,76.0,15.0,15.0,7.0,0.0
220,76.0,0.0,15.0,1.0,0.0
221,74.0,0.0,15.0,1.0,0.0
222,74.0,9.0,15.0,7.0,0.0
223,76.0,15.0,15.0,1.0,0.0
224,76.0,0.0,15.0,7.0,0.0
225,74.0,0.0,15.0,7.0,0.0
226,66.0,6.0,60.0,3.0,0.0
227,74.0,15.0,15.0,1.0,0.0
228,76.0,0.0,15.0,7.0,0.0
229,76.0,15.0,15.0,1.0,0.0
230,74.0,0.0,15.0,1.0,0.0
231,74.0,9.0,15.0,7.0,0.0
232,76.0,15.0,15.0,1.0,0.0
233,76.0,0.0,15.0,7.0,0.0
234,68.0,6.0,60.0,3.0,0.0
235,74.0,0.0,15.0,7.0,0.0
236,74.0,15.0,15.0,1.0,0.0
237,76.0,15.0,15.0,7.0,0.0
238,76.0,0.0,15.0,1.0,0.0
239,74.0,2.0,15.0,7.0,0.0
240,74.0,0.0,15.0,1.0,0.0
241,76.0,15.0,15.0,7.0,0.0
242,76.0,0.0,15.0,1.0,0.0
243,74.0,15.0,15.0,1.0,0.0
244,61.0,6.0,60.0,4.0,0.0
245,69.0,0.0,60.0,3.0,0.0
246,57.0,0.0,60.0,8.0,0.0
247,57.0,0.0,60.0,5.0,0.0
248,74.0,0.0,15.0,7.0,0.0
249,76.0,15.0,15.0,7.0,0.0
250,76.0,0.0,15.0,1.0,0.0
251,74.0,9.0,15.0,1.0,0.0
252,74.0,0.0,15.0,7.0,0.0
253,76.0,54.0,15.0,1.0,0.0
254,76.0,0.0,15.0,7.0,0.0
255,59.0,0.0,120.0,4.0,0.0
256,71.0,53.0,60.0,3.0,0.0
257,74.0,0.0,120.0,7.0,0.0
258,56.0,0.0,120.0,5.0,0.0
259,56.0,7.0,120.0,8.0,0.0
260,74.0,0.0,120.0,1.0,0.0
261,65.0,60.0,60.0,3.0,0.0
262,57.0,7.0,120.0,5.0,0.0
263,66.0,53.0,60.0,3.0,0.0
264,73.0,7.0,360.0,7.0,0.0
265,61.0,7.0,180.0,4.0,0.0
266,57.0,0.0,120.0,8.0,0.0
267,73.0,0.0,360.0,1.0,0.0
268,68.0,53.0,60.0,3.0,0.0
269,61.0,7.0,120.0,8.0,0.0
270,61.0,0.0,120.0,5.0,0.0
271,69.0,53.0,60.0,3.0,0.0
272,71.0,0.0,60.0,3.0,0.0
273,63.0,60.0,60.0,4.0,0.0
274,73.0,60.0,180.0,3.0,0.0
275,59.0,0.0,120.0,8.0,0.0
276,65.0,53.0,60.0,4.0,0.0
277,59.0,0.0,120.0,5.0,0.0
278,61.0,60.0,60.0,4.0,0.0
279,66.0,0.0,180.0,4.0,0.0
280,73.0,7.0,360.0,1.0,0.0
281,57.0,7.0,180.0,8.0,0.0
282,73.0,0.0,360.0,7.0,0.0
283,57.0,0.0,180.0,5.0,0.0
284,74.0,53.0,60.0,3.0,0.0
285,73.0,60.0,60.0,3.0,0.0
286,59.0,0.0,60.0,8.0,0.0
287,59.0,60.0,60.0,5.0,0.0
288,71.0,0.0,60.0,3.0,0.0
289,68.0,0.0,60.0,4.0,0.0
290,66.0,0.0,60.0,4.0,0.0
291,69.0,53.0,60.0,3.0,0.0
292,61.0,0.0,120.0,8.0,0.0
293,61.0,0.0,120.0,5.0,0.0
294,65.0,60.0,60.0,4.0,0.0
295,68.0,0.0,60.0,3.0,0.0
296,54.0,0.0,120.0,5.0,0.0
297,54.0,7.0,120.0,8.0,0.0
298,66.0,0.0,240.0,4.0,0.0
299,69.0,53.0,60.0,3.0,0.0
300,73.0,60.0,60.0,3.0,0.0
301,71.0,53.0,60.0,3.0,0.0
302,47.0,0.0,120.0,5.0,0.0
303,47.0,7.0,120.0,8.0,0.0
304,69.0,60.0,60.0,3.0,0.0
305,49.0,0.0,120.0,5.0,0.0
306,65.0,7.0,120.0,4.0,0.0
307,68.0,53.0,60.0,3.0,0.0
308,49.0,0.0,120.0,8.0,0.0
309,69.0,60.0,60.0,3.0,0.0
310,42.0,0.0,60.0,5.0,0.0
311,42.0,53.0,60.0,8.0,0.0
312,66.0,7.0,120.0,3.0,0.0
313,66.0,0.0,120.0,4.0,0.0
314,55.0,0.0,60.0,5.0,0.0
315,55.0,60.0,60.0,8.0,0.0
316,54.0,0.0,60.0,5.0,0.0
317,54.0,60.0,60.0,8.0,0.0
318,52.0,0.0,60.0,5.0,0.0
319,52.0,60.0,60.0,8.0,0.0
320,50.0,60.0,60.0,8.0,0.0
321,50.0,0.0,60.0,5.0,0.0
322,49.0,113.0,60.0,5.0,0.0
323,49.0,0.0,60.0,8.0,0.0
324,47.0,0.0,120.0,8.0,0.0
325,47.0,120.0,120.0,5.0,0.0
326,74.0,75.0,120.0,6.0,0.0
327,74.0,0.0,120.0,0.0,0.0
328,59.0,0.0,120.0,5.0,0.0
329,66.0,0.0,120.0,4.0,0.0
330,71.0,0.0,120.0,3.0,0.0
331,59.0,0.0,120.0,8.0,0.0
332,76.0,0.0,60.0,6.0,0.0
333,76.0,30.0,60.0,0.0,0.0
334,64.0,0.0,120.0,4.0,0.0
335,69.0,0.0,120.0,3.0,0.0
336,61.0,11.0,120.0,8.0,0.0
337,61.0,0.0,120.0,5.0,0.0
338,78.0,0.0,30.0,6.0,0.0
339,78.0,15.0,30.0,0.0,0.0
340,79.0,109.0,30.0,6.0,0.0
341,79.0,0.0,30.0,0.0,0.0
342,62.0,0.0,120.0,5.0,0.0
343,69.0,0.0,360.0,3.0,0.0
344,62.0,60.0,180.0,4.0,0.0
345,78.0,0.0,180.0,0.0,0.0
346,78.0,0.0,180.0,6.0,0.0
347,62.0,60.0,120.0,8.0,0.0
348,50.0,7.0,120.0,5.0,0.0
349,50.0,0.0,120.0,8.0,0.0
350,76.0,113.0,60.0,0.0,0.0
351,76.0,0.0,60.0,6.0,0.0
352,64.0,0.0,60.0,4.0,0.0
353,66.0,0.0,240.0,4.0,0.0
354,49.0,120.0,120.0,5.0,0.0
355,74.0,0.0,120.0,0.0,0.0
356,74.0,0.0,120.0,6.0,0.0
357,49.0,0.0,120.0,8.0,0.0
358,47.0,33.0,180.0,8.0,0.0
359,67.0,60.0,120.0,3.0,0.0
360,47.0,0.0,180.0,5.0,0.0
361,69.0,53.0,540.0,3.0,0.0
362,79.0,0.0,90.0,6.0,0.0
363,79.0,27.0,90.0,0.0,0.0
364,64.0,7.0,120.0,4.0,0.0
365,49.0,0.0,60.0,8.0,0.0
366,49.0,4.0,60.0,5.0,0.0
367,81.0,0.0,30.0,6.0,0.0
368,81.0,82.0,30.0,0.0,0.0
369,78.0,0.0,90.0,0.0,0.0
370,50.0,0.0,120.0,5.0,0.0
371,50.0,11.0,120.0,8.0,0.0
372,78.0,27.0,90.0,6.0,0.0
373,62.0,0.0,240.0,4.0,0.0
374,76.0,109.0,30.0,0.0,0.0
375,76.0,0.0,30.0,6.0,0.0
376,76.0,67.0,240.0,6.0,0.0
377,76.0,0.0,240.0,0.0,0.0
378,57.0,120.0,120.0,5.0,0.0
379,57.0,0.0,120.0,8.0,0.0
380,55.0,0.0,120.0,5.0,0.0
381,55.0,0.0,120.0,8.0,0.0
382,61.0,0.0,120.0,4.0,0.0
383,54.0,0.0,120.0,8.0,0.0
384,62.0,0.0,120.0,4.0,0.0
385,54.0,7.0,120.0,5.0,0.0
386,71.0,60.0,60.0,3.0,0.0
387,52.0,0.0,120.0,5.0,0.0
388,67.0,0.0,120.0,4.0,0.0
389,73.0,53.0,60.0,3.0,0.0
390,52.0,7.0,120.0,8.0,0.0
391,74.0,60.0,60.0,3.0,0.0
392,83.0,0.0,60.0,6.0,0.0
393,49.0,7.0,120.0,8.0,0.0
394,49.0,0.0,120.0,5.0,0.0
395,76.0,0.0,120.0,3.0,0.0
396,64.0,0.0,120.0,4.0,0.0
397,83.0,53.0,60.0,0.0,0.0
398,81.0,0.0,60.0,6.0,0.0
399,81.0,60.0,60.0,0.0,0.0
400,69.0,60.0,300.0,3.0,0.0
401,79.0,14.0,60.0,0.0,0.0
402,50.0,0.0,120.0,5.0,0.0
403,50.0,13.0,120.0,8.0,0.0
404,62.0,0.0,240.0,4.0,0.0
405,79.0,0.0,60.0,6.0,0.0
406,78.0,0.0,15.0,0.0,0.0
407,78.0,7.0,15.0,6.0,0.0
408,79.0,8.0,15.0,0.0,0.0
409,79.0,0.0,15.0,6.0,0.0
410,78.0,7.0,15.0,6.0,0.0
411,78.0,0.0,15.0,0.0,0.0
412,79.0,15.0,15.0,0.0,0.0
413,79.0,0.0,15.0,6.0,0.0
414,76.0,2.0,15.0,0.0,0.0
415,76.0,0.0,15.0,6.0,0.0
416,78.0,0.0,15.0,0.0,0.0
417,78.0,107.0,15.0,6.0,0.0
418,45.0,0.0,120.0,8.0,0.0
419,45.0,0.0,120.0,5.0,0.0
420,76.0,60.0,120.0,6.0,0.0
421,76.0,0.0,120.0,0.0,0.0
422,69.0,0.0,120.0,6.0,0.0
423,57.0,0.0,120.0,5.0,0.0
424,61.0,7.0,120.0,4.0,0.0
425,69.0,0.0,120.0,0.0,0.0
426,57.0,0.0,120.0,8.0,0.0
427,69.0,60.0,60.0,3.0,0.0
428,55.0,0.0,120.0,5.0,0.0
429,55.0,7.0,120.0,8.0,0.0
430,71.0,0.0,60.0,3.0,0.0
431,62.0,53.0,60.0,4.0,0.0
432,64.0,0.0,60.0,4.0,0.0
433,73.0,60.0,60.0,3.0,0.0
434,54.0,7.0,180.0,8.0,0.0
435,54.0,0.0,180.0,5.0,0.0
436,66.0,60.0,60.0,4.0,0.0
437,74.0,0.0,60.0,3.0,0.0
438,67.0,53.0,60.0,4.0,0.0
439,76.0,0.0,60.0,3.0,0.0
440,78.0,0.0,60.0,3.0,0.0
441,69.0,60.0,60.0,4.0,0.0
442,55.0,60.0,60.0,5.0,0.0
443,76.0,0.0,60.0,3.0,0.0
444,67.0,0.0,60.0,4.0,0.0
445,55.0,0.0,60.0,8.0,0.0
446,66.0,53.0,60.0,4.0,0.0
447,74.0,0.0,60.0,3.0,0.0
448,57.0,7.0,120.0,8.0,0.0
449,57.0,0.0,120.0,5.0,0.0
450,73.0,0.0,60.0,3.0,0.0
451,64.0,60.0,60.0,4.0,0.0
452,50.0,7.0,120.0,5.0,0.0
453,66.0,0.0,120.0,4.0,0.0
454,50.0,0.0,120.0,8.0,0.0
455,74.0,53.0,60.0,3.0,0.0
456,74.0,0.0,360.0,7.0,0.0
457,74.0,0.0,360.0,1.0,0.0
458,72.0,60.0,60.0,3.0,0.0
459,52.0,0.0,120.0,8.0,0.0
460,71.0,53.0,60.0,3.0,0.0
461,67.0,0.0,120.0,4.0,0.0
462,52.0,7.0,120.0,5.0,0.0
463,69.0,60.0,60.0,3.0,0.0
464,54.0,0.0,120.0,5.0,0.0
465,62.0,60.0,180.0,4.0,0.0
466,54.0,7.0,120.0,8.0,0.0
467,67.0,53.0,60.0,3.0,0.0
468,69.0,60.0,60.0,3.0,0.0
469,71.0,7.0,180.0,3.0,0.0
470,55.0,0.0,180.0,5.0,0.0
471,76.0,0.0,360.0,7.0,0.0
472,55.0,0.0,180.0,8.0,0.0
473,76.0,7.0,360.0,1.0,0.0
474,66.0,53.0,60.0,4.0,0.0
475,64.0,60.0,60.0,4.0,0.0
476,54.0,0.0,60.0,8.0,0.0
477,62.0,0.0,60.0,4.0,0.0
478,54.0,0.0,60.0,5.0,0.0
479,71.0,60.0,60.0,3.0,0.0
480,52.0,0.0,120.0,5.0,0.0
481,52.0,0.0,120.0,8.0,0.0
482,61.0,0.0,120.0,4.0,0.0
483,69.0,53.0,60.0,3.0,0.0
484,67.0,60.0,60.0,3.0,0.0
485,50.0,7.0,120.0,5.0,0.0
486,62.0,60.0,180.0,4.0,0.0
487,78.0,0.0,360.0,1.0,0.0
488,50.0,0.0,120.0,8.0,0.0
489,78.0,0.0,360.0,7.0,0.0
490,66.0,53.0,60.0,3.0,0.0
491,67.0,53.0,60.0,3.0,0.0
492,62.0,0.0,120.0,8.0,0.0
493,62.0,7.0,120.0,5.0,0.0
494,69.0,0.0,120.0,3.0,0.0
495,61.0,60.0,60.0,4.0,0.0
496,61.0,0.0,120.0,5.0,0.0
497,70.0,0.0,120.0,3.0,0.0
498,62.0,53.0,60.0,4.0,0.0
499,61.0,7.0,120.0,8.0,0.0
500,64.0,60.0,60.0,4.0,0.0
501,74.0,7.0,360.0,7.0,0.0
502,71.0,60.0,60.0,3.0,0.0
503,66.0,0.0,180.0,4.0,0.0
504,59.0,0.0,180.0,5.0,0.0
505,59.0,7.0,180.0,8.0,0.0
506,74.0,0.0,360.0,1.0,0.0
507,72.0,53.0,60.0,3.0,0.0
508,71.0,60.0,60.0,3.0,0.0
509,66.0,60.0,60.0,4.0,0.0
510,61.0,0.0,60.0,5.0,0.0
511,69.0,0.0,60.0,3.0,0.0
512,61.0,0.0,60.0,8.0,0.0
513,64.0,53.0,60.0,4.0,0.0
514,62.0,0.0,120.0,8.0,0.0
515,67.0,0.0,60.0,3.0,0.0
516,62.0,0.0,120.0,5.0,0.0
517,66.0,60.0,60.0,3.0,0.0
518,62.0,0.0,120.0,4.0,0.0
519,79.0,0.0,360.0,1.0,0.0
520,52.0,7.0,120.0,5.0,0.0
521,52.0,0.0,120.0,8.0,0.0
522,79.0,0.0,360.0,7.0,0.0
523,67.0,53.0,60.0,3.0,0.0
524,61.0,60.0,60.0,4.0,0.0
525,69.0,0.0,60.0,3.0,0.0
526,71.0,0.0,120.0,3.0,0.0
527,62.0,53.0,60.0,4.0,0.0
528,47.0,7.0,120.0,5.0,0.0
529,47.0,0.0,120.0,8.0,0.0
530,67.0,60.0,60.0,4.0,0.0
531,69.0,60.0,180.0,3.0,0.0
532,49.0,0.0,120.0,5.0,0.0
533,66.0,53.0,60.0,4.0,0.0
534,49.0,7.0,120.0,8.0,0.0
535,64.0,60.0,60.0,4.0,0.0
536,78.0,7.0,360.0,1.0,0.0
537,50.0,0.0,180.0,8.0,0.0
538,62.0,53.0,420.0,4.0,0.0
539,78.0,0.0,360.0,7.0,0.0
540,50.0,7.0,180.0,5.0,0.0
541,66.0,53.0,60.0,3.0,0.0
542,68.0,60.0,60.0,3.0,0.0
543,49.0,60.0,60.0,8.0,0.0
544,49.0,0.0,60.0,5.0,0.0
545,70.0,0.0,60.0,3.0,0.0
546,71.0,6.0,540.0,3.0,0.0
547,47.0,0.0,60.0,5.0,0.0
548,47.0,53.0,60.0,8.0,0.0
549,45.0,0.0,60.0,5.0,0.0
550,45.0,60.0,60.0,8.0,0.0
551,44.0,0.0,120.0,5.0,0.0
552,76.0,0.0,360.0,1.0,0.0
553,44.0,7.0,120.0,8.0,0.0
554,76.0,15.0,360.0,7.0,0.0
555,59.0,60.0,60.0,4.0,0.0
556,64.0,53.0,60.0,4.0,0.0
557,42.0,0.0,120.0,5.0,0.0
558,42.0,7.0,120.0,8.0,0.0
559,66.0,60.0,60.0,4.0,0.0
560,64.0,53.0,60.0,4.0,0.0
561,44.0,0.0,120.0,5.0,0.0
562,44.0,7.0,120.0,8.0,0.0
563,62.0,21.0,60.0,4.0,0.0
564,61.0,0.0,360.0,4.0,0.0
565,45.0,0.0,120.0,5.0,0.0
566,45.0,7.0,120.0,8.0,0.0
567,78.0,15.0,15.0,1.0,0.0
568,78.0,0.0,15.0,7.0,0.0
569,76.0,0.0,15.0,1.0,0.0
570,76.0,9.0,15.0,7.0,0.0
571,78.0,15.0,15.0,1.0,0.0
572,78.0,0.0,15.0,7.0,0.0
573,76.0,15.0,15.0,1.0,0.0
574,76.0,0.0,15.0,7.0,0.0
575,64.0,6.0,60.0,3.0,0.0
576,78.0,0.0,15.0,7.0,0.0
577,78.0,15.0,15.0,1.0,0.0
578,76.0,0.0,15.0,1.0,0.0
579,76.0,2.0,15.0,7.0,0.0
580,78.0,15.0,15.0,7.0,0.0
581,78.0,0.0,15.0,1.0,0.0
582,76.0,0.0,15.0,1.0,0.0
583,76.0,15.0,15.0,7.0,0.0
584,43.0,7.0,120.0,5.0,0.0
585,43.0,0.0,120.0,8.0,0.0
586,69.0,6.0,60.0,3.0,0.0
587,78.0,15.0,15.0,1.0,0.0
588,78.0,0.0,15.0,7.0,0.0
589,76.0,0.0,15.0,7.0,0.0
590,76.0,9.0,15.0,1.0,0.0
591,78.0,0.0,15.0,7.0,0.0
592,78.0,15.0,15.0,1.0,0.0
593,76.0,0.0,15.0,7.0,0.0
594,71.0,6.0,60.0,3.0,0.0
595,76.0,15.0,15.0,1.0,0.0
596,78.0,15.0,15.0,7.0,0.0
597,78.0,0.0,15.0,1.0,0.0
598,76.0,0.0,15.0,1.0,0.0
599,76.0,2.0,15.0,7.0,0.0
600,78.0,54.0,15.0,7.0,0.0
601,78.0,0.0,15.0,1.0,0.0
602,76.0,0.0,120.0,1.0,0.0
603,76.0,0.0,120.0,7.0,0.0
604,69.0,53.0,60.0,3.0,0.0
605,45.0,0.0,120.0,5.0,0.0
606,45.0,7.0,120.0,8.0,0.0
607,67.0,60.0,60.0,3.0,0.0
608,62.0,53.0,60.0,4.0,0.0
609,74.0,7.0,360.0,1.0,0.0
610,74.0,0.0,360.0,7.0,0.0
611,47.0,7.0,180.0,8.0,0.0
612,66.0,7.0,120.0,3.0,0.0
613,47.0,0.0,180.0,5.0,0.0
614,61.0,53.0,60.0,4.0,0.0
615,62.0,53.0,60.0,4.0,0.0
616,71.0,7.0,120.0,3.0,0.0
617,64.0,0.0,60.0,4.0,0.0
618,49.0,0.0,60.0,8.0,0.0
619,49.0,60.0,60.0,5.0,0.0
620,50.0,0.0,120.0,5.0,0.0
621,69.0,53.0,60.0,3.0,0.0
622,50.0,0.0,120.0,8.0,0.0
623,66.0,0.0,60.0,4.0,0.0
624,67.0,60.0,60.0,4.0,0.0
625,71.0,0.0,60.0,3.0,0.0
626,43.0,0.0,120.0,8.0,0.0
627,73.0,0.0,60.0,3.0,0.0
628,64.0,53.0,60.0,4.0,0.0
629,43.0,7.0,120.0,5.0,0.0
630,74.0,0.0,60.0,3.0,0.0
631,66.0,60.0,60.0,4.0,0.0
632,67.0,53.0,60.0,4.0,0.0
633,40.0,7.0,120.0,5.0,0.0
634,40.0,0.0,120.0,8.0,0.0
635,76.0,0.0,60.0,3.0,0.0
636,74.0,60.0,60.0,3.0,0.0
637,66.0,0.0,60.0,4.0,0.0
638,76.0,0.0,60.0,3.0,0.0
639,67.0,53.0,60.0,4.0,0.0
640,45.0,7.0,120.0,5.0,0.0
641,45.0,0.0,120.0,8.0,0.0
642,73.0,0.0,60.0,3.0,0.0
643,64.0,60.0,60.0,4.0,0.0
644,50.0,53.0,60.0,5.0,0.0
645,74.0,0.0,120.0,3.0,0.0
646,50.0,0.0,60.0,8.0,0.0
647,66.0,7.0,120.0,4.0,0.0
648,54.0,60.0,60.0,8.0,0.0
649,54.0,0.0,60.0,5.0,0.0
650,55.0,0.0,60.0,5.0,0.0
651,55.0,60.0,60.0,8.0,0.0
652,57.0,60.0,60.0,8.0,0.0
653,57.0,0.0,60.0,5.0,0.0
654,59.0,60.0,60.0,5.0,0.0
655,59.0,0.0,60.0,8.0,0.0
656,61.0,0.0,60.0,8.0,0.0
657,61.0,113.0,60.0,5.0,0.0
658,62.0,7.0,120.0,5.0,0.0
659,62.0,0.0,120.0,8.0,0.0
660,62.0,0.0,60.0,4.0,0.0
661,66.0,60.0,60.0,3.0,0.0
662,67.0,53.0,60.0,3.0,0.0
663,64.0,0.0,60.0,4.0,0.0
664,50.0,0.0,120.0,8.0,0.0
665,78.0,0.0,120.0,0.0,0.0
666,78.0,7.0,120.0,6.0,0.0
667,50.0,0.0,120.0,5.0,0.0
668,69.0,0.0,60.0,3.0,0.0
669,66.0,60.0,60.0,4.0,0.0
670,49.0,0.0,120.0,8.0,0.0
671,49.0,7.0,120.0,5.0,0.0
672,76.0,0.0,120.0,0.0,0.0
673,76.0,0.0,120.0,6.0,0.0
674,68.0,53.0,60.0,4.0,0.0
675,71.0,0.0,60.0,3.0,0.0
676,70.0,0.0,60.0,4.0,0.0
677,73.0,60.0,60.0,3.0,0.0
678,74.0,0.0,180.0,6.0,0.0
679,47.0,7.0,180.0,8.0,0.0
680,74.0,0.0,180.0,0.0,0.0
681,47.0,0.0,180.0,5.0,0.0
682,74.0,60.0,60.0,3.0,0.0
683,71.0,0.0,60.0,4.0,0.0
684,76.0,0.0,60.0,4.0,0.0
685,79.0,53.0,60.0,3.0,0.0
686,78.0,60.0,60.0,3.0,0.0
687,74.0,0.0,60.0,4.0,0.0
688,73.0,0.0,60.0,4.0,0.0
689,76.0,0.0,60.0,6.0,0.0
690,76.0,0.0,60.0,3.0,0.0
691,49.0,0.0,60.0,5.0,0.0
692,76.0,60.0,60.0,0.0,0.0
693,49.0,0.0,60.0,8.0,0.0
694,78.0,0.0,120.0,6.0,0.0
695,50.0,7.0,240.0,8.0,0.0
696,78.0,7.0,120.0,0.0,0.0
697,74.0,0.0,60.0,3.0,0.0
698,71.0,53.0,60.0,4.0,0.0
699,50.0,0.0,240.0,5.0,0.0
700,69.0,0.0,60.0,4.0,0.0
701,73.0,60.0,60.0,3.0,0.0
702,71.0,33.0,180.0,3.0,0.0
703,68.0,53.0,60.0,4.0,0.0
704,66.0,53.0,60.0,4.0,0.0
705,49.0,0.0,120.0,8.0,0.0
706,49.0,11.0,120.0,5.0,0.0
707,64.0,0.0,300.0,4.0,0.0
708,76.0,0.0,90.0,6.0,0.0
709,76.0,27.0,90.0,0.0,0.0
710,69.0,6.0,120.0,3.0,0.0
711,78.0,0.0,30.0,0.0,0.0
712,78.0,17.0,30.0,6.0,0.0
713,74.0,15.0,15.0,6.0,0.0
714,47.0,0.0,120.0,8.0,0.0
715,74.0,0.0,15.0,0.0,0.0
716,47.0,7.0,120.0,5.0,0.0
717,76.0,0.0,15.0,0.0,0.0
718,76.0,15.0,15.0,6.0,0.0
719,74.0,0.0,15.0,6.0,0.0
720,74.0,9.0,15.0,0.0,0.0
721,76.0,15.0,15.0,0.0,0.0
722,76.0,0.0,15.0,6.0,0.0
723,68.0,6.0,60.0,3.0,0.0
724,74.0,15.0,15.0,6.0,0.0
725,74.0,0.0,15.0,0.0,0.0
726,76.0,0.0,15.0,0.0,0.0
727,76.0,15.0,15.0,6.0,0.0
728,73.0,2.0,15.0,0.0,0.0
729,73.0,0.0,15.0,6.0,0.0
730,74.0,0.0,15.0,6.0,0.0
731,74.0,54.0,15.0,0.0,0.0
732,73.0,53.0,60.0,3.0,0.0
733,76.0,0.0,120.0,6.0,0.0
734,45.0,0.0,120.0,8.0,0.0
735,45.0,7.0,120.0,5.0,0.0
736,76.0,0.0,120.0,0.0,0.0
737,66.0,60.0,60.0,4.0,0.0
738,74.0,0.0,60.0,3.0,0.0
739,69.0,0.0,120.0,0.0,0.0
740,73.0,0.0,60.0,3.0,0.0
741,57.0,0.0,120.0,5.0,0.0
742,69.0,0.0,120.0,6.0,0.0
743,57.0,7.0,120.0,8.0,0.0
744,64.0,53.0,60.0,4.0,0.0
745,71.0,60.0,60.0,3.0,0.0
746,62.0,0.0,60.0,4.0,0.0
747,55.0,7.0,120.0,8.0,0.0
748,81.0,60.0,180.0,0.0,0.0
749,81.0,0.0,180.0,6.0,0.0
750,64.0,53.0,60.0,4.0,0.0
751,55.0,0.0,120.0,5.0,0.0
752,73.0,0.0,60.0,3.0,0.0
753,61.0,60.0,60.0,4.0,0.0
754,69.0,0.0,60.0,3.0,0.0
755,54.0,0.0,180.0,5.0,0.0
756,74.0,0.0,180.0,3.0,0.0
757,66.0,0.0,60.0,4.0,0.0
758,54.0,7.0,180.0,8.0,0.0
759,79.0,0.0,60.0,6.0,0.0
760,79.0,0.0,60.0,0.0,0.0
761,67.0,53.0,60.0,4.0,0.0
762,78.0,0.0,60.0,0.0,0.0
763,78.0,0.0,60.0,6.0,0.0
764,69.0,60.0,60.0,4.0,0.0
765,67.0,0.0,60.0,4.0,0.0
766,55.0,0.0,60.0,8.0,0.0
767,55.0,0.0,60.0,5.0,0.0
768,73.0,21.0,60.0,3.0,0.0
769,76.0,0.0,60.0,6.0,0.0
770,76.0,0.0,60.0,0.0,0.0
771,74.0,15.0,15.0,6.0,0.0
772,57.0,6.0,60.0,8.0,0.0
773,71.0,7.0,240.0,3.0,0.0
774,66.0,7.0,120.0,4.0,0.0
775,74.0,0.0,15.0,0.0,0.0
776,57.0,0.0,60.0,5.0,0.0
777,76.0,15.0,15.0,6.0,0.0
778,76.0,0.0,15.0,0.0,0.0
779,74.0,0.0,15.0,0.0,0.0
780,74.0,9.0,15.0,6.0,0.0
781,76.0,0.0,15.0,0.0,0.0
782,76.0,15.0,15.0,6.0,0.0
783,74.0,0.0,15.0,6.0,0.0
784,59.0,6.0,60.0,8.0,0.0
785,59.0,0.0,60.0,5.0,0.0
786,74.0,15.0,15.0,0.0,0.0
787,76.0,15.0,15.0,6.0,0.0
788,76.0,0.0,15.0,0.0,0.0
789,73.0,0.0,15.0,0.0,0.0
790,73.0,2.0,15.0,6.0,0.0
791,74.0,0.0,15.0,0.0,0.0
792,74.0,54.0,15.0,6.0,0.0
793,61.0,0.0,120.0,5.0,0.0
794,76.0,0.0,240.0,6.0,0.0
795,61.0,0.0,120.0,8.0,0.0
796,64.0,53.0,60.0,4.0,0.0
797,76.0,0.0,240.0,0.0,0.0
798,62.0,60.0,60.0,4.0,0.0
799,69.0,53.0,60.0,3.0,0.0
800,57.0,0.0,120.0,8.0,0.0
801,57.0,0.0,120.0,5.0,0.0
802,61.0,7.0,120.0,4.0,0.0
803,67.0,60.0,60.0,3.0,0.0
804,62.0,53.0,180.0,4.0,0.0
805,62.0,0.0,120.0,5.0,0.0
806,66.0,53.0,60.0,3.0,0.0
807,62.0,7.0,120.0,8.0,0.0
808,69.0,60.0,60.0,3.0,0.0
809,55.0,7.0,120.0,5.0,0.0
810,55.0,0.0,120.0,8.0,0.0
811,71.0,60.0,180.0,3.0,0.0
812,62.0,53.0,60.0,4.0,0.0
813,67.0,0.0,240.0,4.0,0.0
814,52.0,0.0,120.0,5.0,0.0
815,52.0,7.0,120.0,8.0,0.0
816,76.0,21.0,60.0,3.0,0.0
817,57.0,0.0,120.0,8.0,0.0
818,73.0,15.0,15.0,3.0,0.0
819,57.0,11.0,120.0,5.0,0.0
820,74.0,15.0,15.0,3.0,0.0
821,73.0,15.0,15.0,3.0,0.0
822,74.0,28.0,15.0,3.0,0.0
823,71.0,19.0,30.0,3.0,0.0
824,73.0,56.0,30.0,3.0,0.0
825,50.0,0.0,120.0,5.0,0.0
826,78.0,0.0,360.0,7.0,0.0
827,66.0,53.0,60.0,4.0,0.0
828,50.0,0.0,120.0,8.0,0.0
829,78.0,0.0,360.0,1.0,0.0
830,74.0,7.0,120.0,3.0,0.0
831,71.0,60.0,60.0,4.0,0.0
832,54.0,7.0,120.0,8.0,0.0
833,54.0,0.0,120.0,5.0,0.0
834,69.0,53.0,60.0,4.0,0.0
835,67.0,60.0,60.0,4.0,0.0
836,52.0,7.0,120.0,5.0,0.0
837,52.0,0.0,120.0,8.0,0.0
838,66.0,53.0,60.0,4.0,0.0
839,67.0,120.0,60.0,4.0,0.0
840,78.0,0.0,360.0,1.0,0.0
841,78.0,0.0,360.0,7.0,0.0
842,50.0,0.0,180.0,8.0,0.0
843,69.0,7.0,240.0,4.0,0.0
844,50.0,7.0,180.0,5.0,0.0
845,76.0,53.0,60.0,3.0,0.0
846,74.0,53.0,60.0,3.0,0.0
847,52.0,0.0,60.0,5.0,0.0
848,52.0,60.0,60.0,8.0,0.0
849,73.0,0.0,60.0,3.0,0.0
850,54.0,7.0,120.0,5.0,0.0
851,70.0,0.0,120.0,4.0,0.0
852,71.0,53.0,60.0,3.0,0.0
853,54.0,0.0,120.0,8.0,0.0
854,73.0,60.0,60.0,3.0,0.0
855,78.0,0.0,360.0,7.0,0.0
856,74.0,0.0,60.0,3.0,0.0
857,78.0,0.0,360.0,1.0,0.0
858,47.0,0.0,120.0,5.0,0.0
859,47.0,7.0,120.0,8.0,0.0
860,71.0,53.0,60.0,4.0,0.0
861,76.0,60.0,60.0,3.0,0.0
862,67.0,0.0,60.0,4.0,0.0
863,74.0,0.0,60.0,3.0,0.0
864,59.0,0.0,120.0,8.0,0.0
865,59.0,7.0,120.0,5.0,0.0
866,66.0,53.0,60.0,4.0,0.0
867,64.0,0.0,60.0,4.0,0.0
868,73.0,60.0,60.0,3.0,0.0
869,61.0,0.0,120.0,8.0,0.0
870,62.0,0.0,60.0,4.0,0.0
871,61.0,7.0,120.0,5.0,0.0
872,71.0,53.0,60.0,3.0,0.0
873,70.0,60.0,60.0,3.0,0.0
874,61.0,0.0,60.0,4.0,0.0
875,78.0,0.0,360.0,1.0,0.0
876,62.0,0.0,180.0,8.0,0.0
877,62.0,7.0,180.0,5.0,0.0
878,71.0,60.0,60.0,3.0,0.0
879,78.0,0.0,360.0,7.0,0.0
880,59.0,0.0,60.0,4.0,0.0
881,70.0,0.0,60.0,3.0,0.0
882,61.0,53.0,60.0,4.0,0.0
883,71.0,0.0,60.0,3.0,0.0
884,62.0,60.0,60.0,4.0,0.0
885,64.0,0.0,60.0,4.0,0.0
886,61.0,0.0,60.0,8.0,0.0
887,61.0,60.0,60.0,5.0,0.0
888,73.0,0.0,60.0,3.0,0.0
889,59.0,0.0,120.0,5.0,0.0
890,74.0,53.0,180.0,3.0,0.0
891,66.0,53.0,60.0,4.0,0.0
892,59.0,7.0,120.0,8.0,0.0
893,68.0,60.0,60.0,4.0,0.0
894,69.0,0.0,60.0,4.0,0.0
895,76.0,0.0,360.0,7.0,0.0
896,61.0,0.0,120.0,5.0,0.0
897,76.0,0.0,360.0,1.0,0.0
898,61.0,7.0,120.0,8.0,0.0
899,74.0,0.0,60.0,3.0,0.0
900,68.0,60.0,60.0,4.0,0.0
901,57.0,7.0,120.0,5.0,0.0
902,57.0,0.0,120.0,8.0,0.0
903,69.0,0.0,60.0,4.0,0.0
904,73.0,53.0,60.0,3.0,0.0
905,62.0,0.0,60.0,4.0,0.0
906,71.0,60.0,60.0,3.0,0.0
907,55.0,7.0,120.0,5.0,0.0
908,55.0,0.0,120.0,8.0,0.0
909,69.0,53.0,60.0,3.0,0.0
910,61.0,0.0,60.0,4.0,0.0
911,59.0,60.0,60.0,4.0,0.0
912,67.0,0.0,60.0,3.0,0.0
913,74.0,7.0,360.0,1.0,0.0
914,74.0,0.0,360.0,7.0,0.0
915,54.0,0.0,180.0,5.0,0.0
916,57.0,60.0,60.0,4.0,0.0
917,54.0,7.0,180.0,8.0,0.0
918,69.0,53.0,300.0,3.0,0.0
919,61.0,53.0,60.0,4.0,0.0
920,62.0,60.0,60.0,4.0,0.0
921,55.0,60.0,60.0,8.0,0.0
922,55.0,0.0,60.0,5.0,0.0
923,64.0,0.0,60.0,4.0,0.0
924,57.0,0.0,120.0,5.0,0.0
925,66.0,0.0,120.0,4.0,0.0
926,57.0,0.0,120.0,8.0,0.0
927,68.0,60.0,60.0,3.0,0.0
928,76.0,0.0,360.0,7.0,0.0
929,76.0,0.0,360.0,1.0,0.0
930,69.0,0.0,60.0,3.0,0.0
931,49.0,0.0,120.0,8.0,0.0
932,49.0,7.0,120.0,5.0,0.0
933,64.0,53.0,60.0,4.0,0.0
934,71.0,0.0,60.0,3.0,0.0
935,62.0,60.0,60.0,4.0,0.0
936,69.0,53.0,60.0,3.0,0.0
937,52.0,0.0,120.0,8.0,0.0
938,61.0,0.0,60.0,4.0,0.0
939,52.0,7.0,120.0,5.0,0.0
940,64.0,60.0,60.0,4.0,0.0
941,68.0,0.0,60.0,3.0,0.0
942,50.0,0.0,120.0,8.0,0.0
943,69.0,53.0,60.0,3.0,0.0
944,50.0,7.0,120.0,5.0,0.0
945,66.0,0.0,60.0,4.0,0.0
946,68.0,0.0,60.0,4.0,0.0
947,71.0,60.0,60.0,3.0,0.0
948,76.0,0.0,360.0,1.0,0.0
949,73.0,60.0,60.0,3.0,0.0
950,49.0,0.0,180.0,8.0,0.0
951,76.0,7.0,360.0,7.0,0.0
952,69.0,0.0,60.0,4.0,0.0
953,49.0,7.0,180.0,5.0,0.0
954,66.0,0.0,60.0,4.0,0.0
955,74.0,53.0,60.0,3.0,0.0
956,64.0,0.0,60.0,4.0,0.0
957,73.0,60.0,60.0,3.0,0.0
958,62.0,0.0,60.0,4.0,0.0
959,50.0,60.0,60.0,5.0,0.0
960,71.0,0.0,60.0,3.0,0.0
961,50.0,0.0,60.0,8.0,0.0
962,61.0,0.0,60.0,4.0,0.0
963,69.0,53.0,60.0,3.0,0.0
964,52.0,0.0,120.0,8.0,0.0
965,52.0,0.0,120.0,5.0,0.0
966,59.0,0.0,60.0,4.0,0.0
967,68.0,113.0,60.0,3.0,0.0
968,69.0,75.0,120.0,3.0,0.0
969,45.0,0.0,120.0,8.0,0.0
970,61.0,0.0,120.0,4.0,0.0
971,45.0,0.0,120.0,5.0,0.0
972,76.0,30.0,60.0,0.0,0.0
973,55.0,10.0,120.0,8.0,0.0
974,69.0,15.0,180.0,3.0,0.0
975,76.0,0.0,60.0,6.0,0.0
976,55.0,0.0,120.0,5.0,0.0
977,61.0,0.0,120.0,4.0,0.0
978,75.0,0.0,30.0,6.0,0.0
979,75.0,15.0,30.0,0.0,0.0
980,76.0,49.0,30.0,6.0,0.0
981,76.0,1.0,30.0,0.0,0.0
982,78.0,0.0,60.0,6.0,0.0
983,54.0,7.0,120.0,5.0,0.0
984,54.0,0.0,120.0,8.0,0.0
985,63.0,0.0,120.0,4.0,0.0
986,78.0,30.0,60.0,0.0,0.0
987,79.0,15.0,30.0,0.0,0.0
988,66.0,4.0,60.0,3.0,0.0
989,79.0,0.0,30.0,6.0,0.0
990,81.0,0.0,30.0,6.0,0.0
991,81.0,56.0,30.0,0.0,0.0
992,71.0,60.0,60.0,3.0,0.0
993,52.0,7.0,180.0,8.0,0.0
994,52.0,0.0,180.0,5.0,0.0
995,64.0,0.0,300.0,4.0,0.0
996,79.0,0.0,180.0,0.0,0.0
997,79.0,0.0,180.0,6.0,0.0
998,72.0,53.0,60.0,3.0,0.0
999,71.0,60.0,60.0,3.0,0.0
1000,69.0,0.0,60.0,3.0,0.0
1001,78.0,0.0,60.0,6.0,0.0
1002,54.0,60.0,60.0,5.0,0.0
1003,78.0,0.0,60.0,0.0,0.0
1004,54.0,0.0,60.0,8.0,0.0
1005,55.0,0.0,240.0,5.0,0.0
1006,76.0,0.0,120.0,6.0,0.0
1007,67.0,53.0,60.0,3.0,0.0
1008,76.0,7.0,120.0,0.0,0.0
1009,55.0,7.0,240.0,8.0,0.0
1010,62.0,0.0,60.0,4.0,0.0
1011,66.0,60.0,60.0,3.0,0.0
1012,60.0,53.0,60.0,4.0,0.0
1013,64.0,0.0,120.0,3.0,0.0
1014,59.0,60.0,60.0,4.0,0.0
1015,54.0,0.0,120.0,5.0,0.0
1016,84.0,53.0,60.0,6.0,0.0
1017,63.0,0.0,120.0,3.0,0.0
1018,54.0,7.0,120.0,8.0,0.0
1019,57.0,0.0,120.0,4.0,0.0
1020,84.0,0.0,60.0,0.0,0.0
1021,83.0,60.0,60.0,6.0,0.0
1022,83.0,0.0,60.0,0.0,0.0
1023,81.0,0.0,60.0,6.0,0.0
1024,64.0,0.0,120.0,3.0,0.0
1025,59.0,7.0,360.0,4.0,0.0
1026,81.0,34.0,60.0,0.0,0.0
1027,55.0,11.0,120.0,8.0,0.0
1028,55.0,0.0,120.0,5.0,0.0
1029,83.0,0.0,30.0,0.0,0.0
1030,83.0,19.0,30.0,6.0,0.0
1031,84.0,56.0,30.0,6.0,0.0
1032,84.0,0.0,30.0,0.0,0.0
1033,75.0,0.0,180.0,0.0,0.0
1034,66.0,60.0,60.0,3.0,0.0
1035,75.0,7.0,180.0,6.0,0.0
1036,57.0,0.0,180.0,5.0,0.0
1037,57.0,0.0,180.0,8.0,0.0
1038,64.0,53.0,60.0,3.0,0.0
1039,66.0,53.0,60.0,3.0,0.0
1040,55.0,0.0,60.0,8.0,0.0
1041,76.0,0.0,60.0,0.0,0.0
1042,76.0,0.0,60.0,6.0,0.0
1043,55.0,60.0,60.0,5.0,0.0
1044,67.0,0.0,60.0,3.0,0.0
1045,63.0,0.0,120.0,4.0,0.0
1046,54.0,0.0,120.0,5.0,0.0
1047,78.0,0.0,60.0,0.0,0.0
1048,69.0,7.0,120.0,3.0,0.0
1049,78.0,53.0,60.0,6.0,0.0
1050,54.0,0.0,120.0,8.0,0.0
1051,71.0,0.0,60.0,6.0,0.0
1052,71.0,60.0,60.0,0.0,0.0
1053,83.0,0.0,60.0,0.0,0.0
1054,83.0,53.0,60.0,6.0,0.0
1055,67.0,0.0,120.0,3.0,0.0
1056,64.0,0.0,120.0,4.0,0.0
1057,55.0,7.0,120.0,8.0,0.0
1058,55.0,0.0,120.0,5.0,0.0
1059,76.0,0.0,60.0,0.0,0.0
1060,76.0,113.0,60.0,6.0,0.0
1061,69.0,0.0,120.0,3.0,0.0
1062,54.0,60.0,120.0,5.0,0.0
1063,75.0,0.0,180.0,0.0,0.0
1064,75.0,60.0,180.0,6.0,0.0
1065,66.0,0.0,120.0,4.0,0.0
1066,54.0,0.0,120.0,8.0,0.0
1067,52.0,0.0,120.0,8.0,0.0
1068,59.0,7.0,300.0,4.0,0.0
1069,67.0,7.0,120.0,3.0,0.0
1070,52.0,0.0,120.0,5.0,0.0
1071,76.0,0.0,60.0,0.0,0.0
1072,76.0,60.0,60.0,6.0,0.0
1073,78.0,0.0,120.0,6.0,0.0
1074,47.0,0.0,120.0,5.0,0.0
1075,78.0,7.0,120.0,0.0,0.0
1076,63.0,53.0,60.0,3.0,0.0
1077,47.0,0.0,120.0,8.0,0.0
1078,66.0,53.0,60.0,3.0,0.0
1079,52.0,7.0,120.0,5.0,0.0
1080,52.0,0.0,120.0,8.0,0.0
1081,67.0,53.0,60.0,3.0,0.0
1082,66.0,0.0,60.0,3.0,0.0
1083,57.0,60.0,60.0,4.0,0.0
1084,54.0,0.0,120.0,5.0,0.0
1085,54.0,7.0,120.0,8.0,0.0
1086,64.0,53.0,60.0,3.0,0.0
1087,55.0,0.0,60.0,4.0,0.0
1088,63.0,0.0,60.0,3.0,0.0
1089,54.0,60.0,60.0,4.0,0.0
1090,52.0,7.0,120.0,4.0,0.0
1091,55.0,7.0,180.0,8.0,0.0
1092,76.0,7.0,360.0,7.0,0.0
1093,76.0,0.0,360.0,1.0,0.0
1094,55.0,0.0,180.0,5.0,0.0
1095,64.0,53.0,60.0,3.0,0.0
1096,66.0,53.0,60.0,3.0,0.0
1097,59.0,7.0,120.0,4.0,0.0
1098,67.0,53.0,60.0,3.0,0.0
1099,54.0,0.0,60.0,8.0,0.0
1100,54.0,0.0,60.0,5.0,0.0
1101,69.0,60.0,60.0,3.0,0.0
1102,52.0,0.0,120.0,8.0,0.0
1103,64.0,0.0,360.0,4.0,0.0
1104,52.0,0.0,120.0,5.0,0.0
1105,71.0,53.0,60.0,3.0,0.0
1106,67.0,60.0,60.0,3.0,0.0
1107,78.0,0.0,360.0,7.0,0.0
1108,72.0,53.0,60.0,3.0,0.0
1109,57.0,7.0,120.0,8.0,0.0
1110,57.0,0.0,120.0,5.0,0.0
1111,78.0,0.0,360.0,1.0,0.0
1112,71.0,60.0,60.0,3.0,0.0
1113,54.0,0.0,120.0,5.0,0.0
1114,69.0,53.0,60.0,3.0,0.0
1115,54.0,7.0,120.0,8.0,0.0
1116,72.0,60.0,60.0,3.0,0.0
1117,71.0,53.0,60.0,3.0,0.0
1118,59.0,0.0,120.0,8.0,0.0
1119,63.0,7.0,120.0,4.0,0.0
1120,59.0,0.0,120.0,5.0,0.0
1121,69.0,60.0,60.0,3.0,0.0
1122,52.0,7.0,120.0,8.0,0.0
1123,67.0,53.0,60.0,3.0,0.0
1124,64.0,0.0,60.0,4.0,0.0
1125,79.0,7.0,360.0,7.0,0.0
1126,79.0,0.0,360.0,1.0,0.0
1127,52.0,0.0,120.0,5.0,0.0
1128,66.0,60.0,60.0,4.0,0.0
1129,69.0,0.0,60.0,3.0,0.0
1130,67.0,7.0,120.0,4.0,0.0
1131,64.0,0.0,120.0,8.0,0.0
1132,71.0,53.0,60.0,3.0,0.0
1133,64.0,0.0,120.0,5.0,0.0
1134,72.0,60.0,60.0,3.0,0.0
1135,65.0,0.0,120.0,4.0,0.0
1136,74.0,53.0,60.0,3.0,0.0
1137,62.0,0.0,120.0,8.0,0.0
1138,62.0,0.0,120.0,5.0,0.0
1139,71.0,60.0,60.0,3.0,0.0
1140,76.0,60.0,60.0,3.0,0.0
1141,79.0,0.0,360.0,7.0,0.0
1142,64.0,7.0,480.0,4.0,0.0
1143,60.0,7.0,180.0,5.0,0.0
1144,60.0,0.0,180.0,8.0,0.0
1145,79.0,7.0,360.0,1.0,0.0
1146,77.0,53.0,60.0,3.0,0.0
1147,76.0,60.0,60.0,3.0,0.0
1148,62.0,60.0,60.0,8.0,0.0
1149,62.0,0.0,60.0,5.0,0.0
1150,74.0,0.0,60.0,3.0,0.0
1151,64.0,0.0,120.0,8.0,0.0
1152,64.0,0.0,120.0,5.0,0.0
1153,72.0,53.0,60.0,3.0,0.0
1154,71.0,60.0,60.0,3.0,0.0
1155,57.0,0.0,120.0,8.0,0.0
1156,78.0,0.0,360.0,7.0,0.0
1157,72.0,53.0,60.0,3.0,0.0
1158,57.0,0.0,120.0,5.0,0.0
1159,78.0,7.0,360.0,1.0,0.0
1160,69.0,60.0,60.0,3.0,0.0
1161,66.0,0.0,60.0,3.0,0.0
1162,59.0,0.0,120.0,8.0,0.0
1163,63.0,53.0,60.0,4.0,0.0
1164,59.0,7.0,120.0,5.0,0.0
1165,67.0,0.0,60.0,3.0,0.0
1166,64.0,60.0,60.0,4.0,0.0
1167,66.0,0.0,60.0,4.0,0.0
1168,69.0,53.0,60.0,3.0,0.0
1169,57.0,0.0,120.0,5.0,0.0
1170,57.0,0.0,120.0,8.0,0.0
1171,63.0,0.0,60.0,4.0,0.0
1172,66.0,60.0,60.0,3.0,0.0
1173,76.0,0.0,360.0,7.0,0.0
1174,76.0,0.0,360.0,1.0,0.0
1175,55.0,7.0,120.0,5.0,0.0
1176,55.0,0.0,120.0,8.0,0.0
1177,71.0,0.0,60.0,3.0,0.0
1178,67.0,53.0,60.0,4.0,0.0
1179,69.0,0.0,60.0,3.0,0.0
1180,66.0,60.0,60.0,4.0,0.0
1181,67.0,53.0,60.0,3.0,0.0
1182,60.0,7.0,120.0,5.0,0.0
1183,64.0,0.0,60.0,4.0,0.0
1184,60.0,0.0,120.0,8.0,0.0
1185,66.0,60.0,60.0,4.0,0.0
1186,69.0,0.0,60.0,3.0,0.0
1187,71.0,53.0,60.0,3.0,0.0
1188,67.0,0.0,60.0,4.0,0.0
1189,59.0,0.0,120.0,8.0,0.0
1190,59.0,7.0,120.0,5.0,0.0
1191,67.0,60.0,60.0,3.0,0.0
1192,64.0,0.0,60.0,4.0,0.0
1193,57.0,7.0,180.0,5.0,0.0
1194,72.0,60.0,60.0,3.0,0.0
1195,69.0,0.0,60.0,4.0,0.0
1196,57.0,0.0,180.0,8.0,0.0
1197,78.0,0.0,360.0,1.0,0.0
1198,78.0,15.0,360.0,7.0,0.0
1199,74.0,53.0,60.0,3.0,0.0
1200,71.0,0.0,60.0,4.0,0.0
1201,72.0,0.0,60.0,3.0,0.0
1202,69.0,60.0,60.0,4.0,0.0
1203,59.0,0.0,60.0,5.0,0.0
1204,59.0,0.0,60.0,8.0,0.0
1205,71.0,0.0,60.0,3.0,0.0
1206,67.0,60.0,60.0,4.0,0.0
1207,69.0,53.0,60.0,3.0,0.0
1208,60.0,0.0,120.0,8.0,0.0
1209,60.0,7.0,120.0,5.0,0.0
1210,66.0,0.0,60.0,4.0,0.0
1211,64.0,21.0,60.0,4.0,0.0
1212,67.0,0.0,60.0,3.0,0.0
1213,69.0,6.0,60.0,3.0,0.0
1214,54.0,0.0,120.0,8.0,0.0
1215,54.0,7.0,120.0,5.0,0.0
1216,63.0,7.0,360.0,4.0,0.0
1217,79.0,0.0,15.0,1.0,0.0
1218,79.0,15.0,15.0,7.0,0.0
1219,78.0,0.0,15.0,7.0,0.0
1220,78.0,9.0,15.0,1.0,0.0
1221,79.0,0.0,15.0,7.0,0.0
1222,79.0,15.0,15.0,1.0,0.0
1223,78.0,0.0,15.0,7.0,0.0
1224,72.0,6.0,60.0,3.0,0.0
1225,78.0,15.0,15.0,1.0,0.0
1226,79.0,0.0,15.0,1.0,0.0
1227,79.0,15.0,15.0,7.0,0.0
1228,78.0,0.0,15.0,7.0,0.0
1229,78.0,2.0,15.0,1.0,0.0
1230,79.0,15.0,15.0,7.0,0.0
1231,79.0,0.0,15.0,1.0,0.0
1232,78.0,0.0,15.0,1.0,0.0
1233,59.0,0.0,120.0,5.0,0.0
1234,71.0,6.0,60.0,3.0,0.0
1235,78.0,15.0,15.0,7.0,0.0
1236,59.0,7.0,120.0,8.0,0.0
1237,79.0,0.0,15.0,1.0,0.0
1238,79.0,15.0,15.0,7.0,0.0
1239,78.0,0.0,15.0,1.0,0.0
1240,78.0,9.0,15.0,7.0,0.0
1241,79.0,15.0,15.0,7.0,0.0
1242,79.0,0.0,15.0,1.0,0.0
1243,78.0,15.0,15.0,7.0,0.0
1244,78.0,0.0,15.0,1.0,0.0
1245,69.0,6.0,60.0,3.0,0.0
1246,79.0,15.0,15.0,7.0,0.0
1247,79.0,0.0,15.0,1.0,0.0
1248,78.0,0.0,15.0,7.0,0.0
1249,78.0,2.0,15.0,1.0,0.0
1250,79.0,54.0,15.0,7.0,0.0
1251,79.0,0.0,15.0,1.0,0.0
1252,78.0,0.0,120.0,1.0,0.0
1253,68.0,53.0,60.0,3.0,0.0
1254,78.0,0.0,120.0,7.0,0.0
1255,60.0,0.0,120.0,5.0,0.0
1256,60.0,0.0,120.0,8.0,0.0
1257,69.0,60.0,60.0,3.0,0.0
1258,68.0,60.0,60.0,3.0,0.0
1259,76.0,0.0,360.0,7.0,0.0
1260,64.0,0.0,60.0,4.0,0.0
1261,76.0,7.0,360.0,1.0,0.0
1262,62.0,0.0,180.0,8.0,0.0
1263,62.0,7.0,180.0,5.0,0.0
1264,66.0,0.0,60.0,4.0,0.0
1265,69.0,53.0,60.0,3.0,0.0
1266,68.0,0.0,60.0,4.0,0.0
1267,71.0,60.0,60.0,3.0,0.0
1268,60.0,0.0,60.0,5.0,0.0
1269,72.0,0.0,60.0,3.0,0.0
1270,60.0,60.0,60.0,8.0,0.0
1271,69.0,0.0,60.0,4.0,0.0
1272,59.0,0.0,120.0,8.0,0.0
1273,74.0,53.0,60.0,3.0,0.0
1274,66.0,0.0,60.0,4.0,0.0
1275,59.0,0.0,120.0,5.0,0.0
1276,71.0,0.0,60.0,3.0,0.0
1277,68.0,60.0,60.0,4.0,0.0
1278,60.0,0.0,120.0,5.0,0.0
1279,69.0,53.0,60.0,4.0,0.0
1280,76.0,60.0,180.0,3.0,0.0
1281,60.0,7.0,120.0,8.0,0.0
1282,71.0,53.0,60.0,4.0,0.0
1283,57.0,0.0,120.0,5.0,0.0
1284,57.0,0.0,120.0,8.0,0.0
1285,72.0,7.0,120.0,4.0,0.0
1286,78.0,60.0,60.0,3.0,0.0
1287,59.0,0.0,120.0,5.0,0.0
1288,71.0,53.0,60.0,4.0,0.0
1289,75.0,7.0,120.0,3.0,0.0
1290,59.0,0.0,120.0,8.0,0.0
1291,69.0,60.0,60.0,4.0,0.0
1292,52.0,53.0,60.0,5.0,0.0
1293,52.0,0.0,60.0,8.0,0.0
1294,76.0,0.0,120.0,3.0,0.0
1295,67.0,7.0,120.0,4.0,0.0
1296,48.0,60.0,60.0,5.0,0.0
1297,48.0,0.0,60.0,8.0,0.0
1298,47.0,60.0,60.0,5.0,0.0
1299,47.0,0.0,60.0,8.0,0.0
1300,45.0,60.0,60.0,5.0,0.0
1301,45.0,0.0,60.0,8.0,0.0
1302,43.0,0.0,60.0,8.0,0.0
1303,43.0,60.0,60.0,5.0,0.0
1304,42.0,0.0,60.0,5.0,0.0
1305,42.0,113.0,60.0,8.0,0.0
1306,40.0,0.0,120.0,8.0,0.0
1307,40.0,67.0,120.0,5.0,0.0
1308,50.0,0.0,120.0,8.0,0.0
1309,71.0,0.0,60.0,6.0,0.0
1310,67.0,8.0,60.0,4.0,0.0
1311,50.0,7.0,120.0,5.0,0.0
1312,71.0,30.0,60.0,0.0,0.0
1313,71.0,15.0,180.0,3.0,0.0
1314,66.0,4.0,60.0,4.0,0.0
1315,70.0,0.0,30.0,0.0,0.0
1316,70.0,15.0,30.0,6.0,0.0
1317,71.0,0.0,30.0,6.0,0.0
1318,71.0,49.0,30.0,0.0,0.0
1319,64.0,0.0,120.0,4.0,0.0
1320,49.0,7.0,120.0,8.0,0.0
1321,73.0,30.0,60.0,0.0,0.0
1322,73.0,0.0,60.0,6.0,0.0
1323,49.0,0.0,120.0,5.0,0.0
1324,74.0,5.0,30.0,6.0,0.0
1325,70.0,4.0,60.0,3.0,0.0
1326,74.0,10.0,30.0,0.0,0.0
1327,76.0,109.0,30.0,0.0,0.0
1328,76.0,0.0,30.0,6.0,0.0
1329,71.0,53.0,420.0,3.0,0.0
1330,66.0,60.0,180.0,4.0,0.0
1331,47.0,60.0,120.0,8.0,0.0
1332,47.0,0.0,120.0,5.0,0.0
1333,74.0,0.0,180.0,0.0,0.0
1334,74.0,0.0,180.0,6.0,0.0
1335,59.0,0.0,120.0,8.0,0.0
1336,59.0,7.0,120.0,5.0,0.0
1337,73.0,113.0,60.0,0.0,0.0
1338,64.0,0.0,60.0,4.0,0.0
1339,73.0,0.0,60.0,6.0,0.0
1340,57.0,67.0,120.0,8.0,0.0
1341,71.0,0.0,120.0,0.0,0.0
1342,62.0,0.0,360.0,4.0,0.0
1343,71.0,0.0,120.0,6.0,0.0
1344,57.0,0.0,120.0,5.0,0.0
1345,55.0,7.0,120.0,8.0,0.0
1346,55.0,0.0,120.0,5.0,0.0
1347,69.0,60.0,60.0,3.0,0.0
1348,67.0,26.0,60.0,3.0,0.0
1349,76.0,27.0,90.0,6.0,0.0
1350,52.0,0.0,120.0,8.0,0.0
1351,52.0,7.0,120.0,5.0,0.0
1352,76.0,0.0,90.0,0.0,0.0
1353,66.0,4.0,60.0,3.0,0.0
1354,78.0,82.0,30.0,6.0,0.0
1355,78.0,0.0,30.0,0.0,0.0
1356,57.0,0.0,120.0,8.0,0.0
1357,57.0,0.0,120.0,5.0,0.0
1358,79.0,27.0,90.0,6.0,0.0
1359,64.0,0.0,120.0,3.0,0.0
1360,79.0,0.0,90.0,0.0,0.0
1361,61.0,11.0,120.0,4.0,0.0
1362,81.0,56.0,30.0,6.0,0.0
1363,81.0,0.0,30.0,0.0,0.0
1364,62.0,0.0,480.0,4.0,0.0
1365,78.0,0.0,240.0,0.0,0.0
1366,50.0,0.0,120.0,5.0,0.0
1367,50.0,7.0,120.0,8.0,0.0
1368,78.0,7.0,240.0,6.0,0.0
1369,66.0,53.0,60.0,3.0,0.0
1370,64.0,60.0,60.0,3.0,0.0
1371,66.0,53.0,60.0,3.0,0.0
1372,59.0,0.0,120.0,5.0,0.0
1373,59.0,0.0,120.0,8.0,0.0
1374,67.0,60.0,60.0,3.0,0.0
1375,78.0,0.0,120.0,6.0,0.0
1376,57.0,0.0,120.0,5.0,0.0
1377,78.0,7.0,120.0,0.0,0.0
1378,69.0,53.0,60.0,3.0,0.0
1379,57.0,0.0,120.0,8.0,0.0
1380,66.0,113.0,60.0,3.0,0.0
1381,56.0,7.0,180.0,5.0,0.0
1382,56.0,0.0,180.0,8.0,0.0
1383,71.0,7.0,120.0,3.0,0.0
1384,78.0,0.0,60.0,0.0,0.0
1385,78.0,53.0,60.0,6.0,0.0
1386,61.0,7.0,120.0,4.0,0.0
1387,66.0,53.0,300.0,3.0,0.0
1388,76.0,53.0,60.0,6.0,0.0
1389,76.0,0.0,60.0,0.0,0.0
1390,74.0,0.0,60.0,0.0,0.0
1391,58.0,0.0,60.0,8.0,0.0
1392,74.0,0.0,60.0,6.0,0.0
1393,58.0,60.0,60.0,5.0,0.0
1394,59.0,0.0,120.0,8.0,0.0
1395,73.0,0.0,60.0,6.0,0.0
1396,62.0,11.0,120.0,4.0,0.0
1397,73.0,34.0,60.0,0.0,0.0
1398,59.0,0.0,120.0,5.0,0.0
1399,74.0,19.0,30.0,6.0,0.0
1400,74.0,0.0,30.0,0.0,0.0
1401,71.0,0.0,30.0,6.0,0.0
1402,71.0,17.0,30.0,0.0,0.0
1403,78.0,0.0,15.0,0.0,0.0
1404,58.0,0.0,120.0,8.0,0.0
1405,61.0,0.0,60.0,4.0,0.0
1406,58.0,7.0,120.0,5.0,0.0
1407,78.0,15.0,15.0,6.0,0.0
1408,76.0,0.0,15.0,6.0,0.0
1409,76.0,24.0,15.0,0.0,0.0
1410,78.0,0.0,180.0,6.0,0.0
1411,78.0,0.0,180.0,0.0,0.0
1412,68.0,60.0,60.0,3.0,0.0
1413,59.0,0.0,60.0,4.0,0.0
1414,66.0,0.0,120.0,5.0,0.0
1415,61.0,0.0,60.0,4.0,0.0
1416,70.0,53.0,60.0,3.0,0.0
1417,66.0,7.0,120.0,8.0,0.0
1418,62.0,60.0,60.0,4.0,0.0
1419,71.0,0.0,60.0,3.0,0.0
1420,73.0,0.0,60.0,3.0,0.0
1421,64.0,0.0,120.0,5.0,0.0
1422,64.0,53.0,60.0,4.0,0.0
1423,64.0,7.0,120.0,8.0,0.0
1424,70.0,0.0,60.0,3.0,0.0
1425,61.0,60.0,60.0,4.0,0.0
1426,66.0,0.0,60.0,4.0,0.0
1427,62.0,0.0,180.0,8.0,0.0
1428,74.0,60.0,60.0,3.0,0.0
1429,62.0,7.0,180.0,5.0,0.0
1430,76.0,53.0,60.0,3.0,0.0
1431,67.0,0.0,60.0,4.0,0.0
1432,74.0,0.0,60.0,3.0,0.0
1433,66.0,60.0,60.0,4.0,0.0
1434,64.0,60.0,60.0,5.0,0.0
1435,64.0,0.0,60.0,8.0,0.0
1436,73.0,0.0,60.0,3.0,0.0
1437,64.0,0.0,60.0,4.0,0.0
1438,71.0,0.0,60.0,3.0,0.0
1439,66.0,0.0,120.0,5.0,0.0
1440,66.0,7.0,120.0,8.0,0.0
1441,62.0,53.0,60.0,4.0,0.0
1442,61.0,0.0,60.0,4.0,0.0
1443,70.0,60.0,60.0,3.0,0.0
1444,71.0,0.0,480.0,2.0,0.0
1445,71.0,0.0,360.0,1.0,0.0
1446,59.0,0.0,120.0,5.0,0.0
1447,59.0,7.0,120.0,8.0,0.0
1448,71.0,7.0,360.0,7.0,0.0
1449,62.0,0.0,360.0,4.0,0.0
1450,71.0,53.0,60.0,3.0,0.0
1451,66.0,60.0,60.0,3.0,0.0
1452,71.0,53.0,60.0,3.0,0.0
1453,55.0,7.0,120.0,8.0,0.0
1454,55.0,0.0,120.0,5.0,0.0
1455,73.0,60.0,60.0,3.0,0.0
1456,54.0,0.0,120.0,5.0,0.0
1457,54.0,0.0,120.0,8.0,0.0
1458,71.0,53.0,60.0,3.0,0.0
1459,69.0,60.0,60.0,3.0,0.0
1460,52.0,7.0,120.0,5.0,0.0
1461,73.0,0.0,360.0,1.0,0.0
1462,64.0,53.0,60.0,4.0,0.0
1463,73.0,0.0,360.0,7.0,0.0
1464,67.0,0.0,120.0,3.0,0.0
1465,52.0,0.0,120.0,8.0,0.0
1466,62.0,60.0,60.0,4.0,0.0
1467,54.0,0.0,120.0,8.0,0.0
1468,66.0,60.0,300.0,3.0,0.0
1469,70.0,53.0,60.0,2.0,0.0
1470,61.0,0.0,60.0,4.0,0.0
1471,54.0,7.0,120.0,5.0,0.0
1472,59.0,0.0,60.0,4.0,0.0
1473,68.0,60.0,60.0,2.0,0.0
1474,61.0,53.0,60.0,4.0,0.0
1475,70.0,7.0,120.0,2.0,0.0
1476,52.0,0.0,120.0,8.0,0.0
1477,52.0,0.0,120.0,5.0,0.0
1478,58.0,60.0,60.0,4.0,0.0
1479,50.0,7.0,180.0,8.0,0.0
1480,74.0,0.0,360.0,7.0,0.0
1481,74.0,7.0,360.0,1.0,0.0
1482,71.0,0.0,360.0,2.0,0.0
1483,50.0,0.0,180.0,5.0,0.0
1484,54.0,0.0,480.0,4.0,0.0
1485,67.0,53.0,60.0,3.0,0.0
1486,66.0,60.0,60.0,3.0,0.0
1487,52.0,60.0,60.0,5.0,0.0
1488,64.0,0.0,60.0,3.0,0.0
1489,52.0,0.0,60.0,8.0,0.0
1490,62.0,53.0,60.0,3.0,0.0
1491,54.0,0.0,120.0,8.0,0.0
1492,54.0,0.0,120.0,5.0,0.0
1493,61.0,60.0,60.0,3.0,0.0
1494,74.0,7.0,360.0,1.0,0.0
1495,47.0,0.0,120.0,5.0,0.0
1496,59.0,53.0,60.0,3.0,0.0
1497,71.0,60.0,420.0,2.0,0.0
1498,47.0,7.0,120.0,8.0,0.0
1499,74.0,0.0,360.0,7.0,0.0
1500,61.0,60.0,60.0,3.0,0.0
1501,59.0,7.0,120.0,5.0,0.0
1502,59.0,0.0,120.0,8.0,0.0
1503,59.0,53.0,60.0,4.0,0.0
1504,62.0,0.0,60.0,3.0,0.0
1505,64.0,60.0,60.0,3.0,0.0
1506,61.0,0.0,60.0,4.0,0.0
1507,57.0,0.0,120.0,8.0,0.0
1508,62.0,53.0,60.0,4.0,0.0
1509,57.0,0.0,120.0,5.0,0.0
1510,66.0,0.0,120.0,3.0,0.0
1511,61.0,60.0,60.0,4.0,0.0
1512,76.0,0.0,360.0,1.0,0.0
1513,55.0,7.0,180.0,8.0,0.0
1514,76.0,7.0,360.0,7.0,0.0
1515,67.0,0.0,60.0,3.0,0.0
1516,55.0,0.0,180.0,5.0,0.0
1517,59.0,0.0,360.0,4.0,0.0
1518,73.0,0.0,60.0,2.0,0.0
1519,66.0,53.0,60.0,3.0,0.0
1520,74.0,60.0,60.0,2.0,0.0
1521,64.0,0.0,60.0,3.0,0.0
1522,66.0,0.0,60.0,3.0,0.0
1523,73.0,60.0,60.0,2.0,0.0
1524,57.0,0.0,60.0,8.0,0.0
1525,57.0,0.0,60.0,5.0,0.0
1526,59.0,0.0,120.0,5.0,0.0
1527,59.0,0.0,120.0,8.0,0.0
1528,74.0,0.0,120.0,2.0,0.0
1529,64.0,53.0,60.0,3.0,0.0
1530,62.0,21.0,60.0,3.0,0.0
1531,76.0,0.0,15.0,1.0,0.0
1532,52.0,7.0,120.0,5.0,0.0
1533,52.0,0.0,120.0,8.0,0.0
1534,67.0,6.0,60.0,3.0,0.0
1535,73.0,0.0,360.0,2.0,0.0
1536,64.0,0.0,60.0,4.0,0.0
1537,76.0,15.0,15.0,7.0,0.0
1538,78.0,0.0,15.0,7.0,0.0
1539,78.0,15.0,15.0,1.0,0.0
1540,76.0,0.0,15.0,7.0,0.0
1541,76.0,9.0,15.0,1.0,0.0
1542,78.0,0.0,15.0,7.0,0.0
1543,78.0,15.0,15.0,1.0,0.0
1544,66.0,0.0,60.0,3.0,0.0
1545,76.0,0.0,15.0,1.0,0.0
1546,76.0,15.0,15.0,7.0,0.0
1547,62.0,6.0,60.0,4.0,0.0
1548,78.0,0.0,15.0,1.0,0.0
1549,78.0,15.0,15.0,7.0,0.0
1550,76.0,2.0,15.0,1.0,0.0
1551,76.0,0.0,15.0,7.0,0.0
1552,78.0,15.0,15.0,1.0,0.0
1553,78.0,0.0,15.0,7.0,0.0
1554,76.0,0.0,15.0,1.0,0.0
1555,57.0,7.0,120.0,5.0,0.0
1556,57.0,0.0,120.0,8.0,0.0
1557,61.0,6.0,60.0,4.0,0.0
1558,64.0,0.0,240.0,3.0,0.0
1559,76.0,15.0,15.0,7.0,0.0
1560,78.0,0.0,15.0,7.0,0.0
1561,78.0,15.0,15.0,1.0,0.0
1562,76.0,9.0,15.0,1.0,0.0
1563,76.0,0.0,15.0,7.0,0.0
1564,78.0,15.0,15.0,1.0,0.0
1565,78.0,0.0,15.0,7.0,0.0
1566,76.0,0.0,15.0,7.0,0.0
1567,76.0,15.0,15.0,1.0,0.0
1568,62.0,6.0,60.0,4.0,0.0
1569,78.0,0.0,15.0,7.0,0.0
1570,78.0,15.0,15.0,1.0,0.0
1571,76.0,2.0,15.0,7.0,0.0
1572,76.0,0.0,15.0,1.0,0.0
1573,78.0,0.0,15.0,1.0,0.0
1574,78.0,54.0,15.0,7.0,0.0
1575,55.0,0.0,120.0,8.0,0.0
1576,76.0,0.0,120.0,1.0,0.0
1577,61.0,53.0,60.0,4.0,0.0
1578,55.0,0.0,120.0,5.0,0.0
1579,76.0,7.0,120.0,7.0,0.0
1580,59.0,60.0,60.0,4.0,0.0
1581,57.0,60.0,60.0,4.0,0.0
1582,54.0,7.0,180.0,8.0,0.0
1583,78.0,0.0,360.0,1.0,0.0
1584,74.0,7.0,360.0,2.0,0.0
1585,54.0,0.0,180.0,5.0,0.0
1586,69.0,0.0,300.0,3.0,0.0
1587,78.0,0.0,360.0,7.0,0.0
1588,61.0,53.0,60.0,4.0,0.0
1589,62.0,60.0,60.0,4.0,0.0
1590,55.0,60.0,60.0,5.0,0.0
1591,55.0,0.0,60.0,8.0,0.0
1592,64.0,0.0,60.0,4.0,0.0
1593,57.0,0.0,120.0,5.0,0.0
1594,66.0,53.0,60.0,4.0,0.0
1595,57.0,0.0,120.0,8.0,0.0
1596,71.0,0.0,60.0,3.0,0.0
1597,67.0,60.0,60.0,4.0,0.0
1598,50.0,0.0,180.0,5.0,0.0
1599,74.0,7.0,360.0,2.0,0.0
1600,78.0,0.0,360.0,7.0,0.0
1601,72.0,0.0,60.0,3.0,0.0
1602,78.0,0.0,360.0,1.0,0.0
1603,50.0,7.0,180.0,8.0,0.0
1604,69.0,60.0,60.0,4.0,0.0
1605,67.0,0.0,60.0,4.0,0.0
1606,71.0,53.0,60.0,3.0,0.0
1607,69.0,0.0,60.0,3.0,0.0
1608,66.0,60.0,60.0,4.0,0.0
1609,67.0,0.0,60.0,3.0,0.0
1610,52.0,0.0,60.0,8.0,0.0
1611,52.0,0.0,60.0,5.0,0.0
1612,64.0,60.0,60.0,4.0,0.0
1613,54.0,0.0,120.0,8.0,0.0
1614,54.0,0.0,120.0,5.0,0.0
1615,62.0,0.0,60.0,4.0,0.0
1616,66.0,53.0,60.0,3.0,0.0
1617,64.0,60.0,60.0,3.0,0.0
1618,60.0,0.0,60.0,4.0,0.0
1619,62.0,60.0,60.0,3.0,0.0
1620,59.0,0.0,180.0,4.0,0.0
1621,55.0,0.0,180.0,5.0,0.0
1622,55.0,7.0,180.0,8.0,0.0
1623,63.0,53.0,60.0,3.0,0.0
1624,64.0,60.0,60.0,3.0,0.0
1625,83.0,0.0,60.0,6.0,0.0
1626,83.0,0.0,60.0,0.0,0.0
1627,60.0,0.0,60.0,4.0,0.0
1628,57.0,0.0,60.0,5.0,0.0
1629,81.0,0.0,60.0,6.0,0.0
1630,81.0,0.0,60.0,0.0,0.0
1631,66.0,0.0,60.0,3.0,0.0
1632,57.0,60.0,60.0,8.0,0.0
1633,59.0,53.0,180.0,4.0,0.0
1634,59.0,0.0,120.0,8.0,0.0
1635,59.0,7.0,120.0,5.0,0.0
1636,79.0,0.0,60.0,6.0,0.0
1637,64.0,0.0,60.0,3.0,0.0
1638,79.0,34.0,60.0,0.0,0.0
1639,63.0,4.0,60.0,3.0,0.0
1640,81.0,19.0,30.0,6.0,0.0
1641,81.0,0.0,30.0,0.0,0.0
1642,78.0,56.0,30.0,6.0,0.0
1643,78.0,0.0,30.0,0.0,0.0
1644,64.0,7.0,120.0,3.0,0.0
1645,52.0,0.0,120.0,5.0,0.0
1646,52.0,0.0,120.0,8.0,0.0
1647,79.0,0.0,180.0,0.0,0.0
1648,79.0,7.0,180.0,6.0,0.0
1649,63.0,53.0,60.0,4.0,0.0
1650,64.0,7.0,120.0,8.0,0.0
1651,71.0,0.0,240.0,3.0,0.0
1652,64.0,0.0,120.0,5.0,0.0
1653,64.0,53.0,60.0,4.0,0.0
1654,66.0,0.0,60.0,4.0,0.0
1655,81.0,113.0,60.0,0.0,0.0
1656,81.0,0.0,60.0,6.0,0.0
1657,62.0,0.0,120.0,8.0,0.0
1658,83.0,0.0,120.0,0.0,0.0
1659,67.0,60.0,180.0,4.0,0.0
1660,62.0,67.0,120.0,5.0,0.0
1661,83.0,0.0,120.0,6.0,0.0
1662,61.0,0.0,180.0,5.0,0.0
1663,61.0,7.0,180.0,8.0,0.0
1664,69.0,0.0,600.0,3.0,0.0
1665,66.0,53.0,60.0,4.0,0.0
1666,76.0,7.0,120.0,0.0,0.0
1667,64.0,53.0,60.0,4.0,0.0
1668,76.0,0.0,120.0,6.0,0.0
1669,59.0,68.0,60.0,5.0,0.0
1670,62.0,0.0,60.0,4.0,0.0
1671,59.0,0.0,60.0,8.0,0.0
1672,78.0,0.0,60.0,0.0,0.0
1673,57.0,11.0,120.0,8.0,0.0
1674,61.0,0.0,120.0,4.0,0.0
1675,57.0,0.0,120.0,5.0,0.0
1676,78.0,30.0,60.0,6.0,0.0
1677,79.0,0.0,30.0,6.0,0.0
1678,79.0,15.0,30.0,0.0,0.0
1679,81.0,0.0,30.0,6.0,0.0
1680,81.0,109.0,30.0,0.0,0.0
1681,62.0,0.0,120.0,8.0,0.0
1682,78.0,60.0,180.0,0.0,0.0
1683,62.0,53.0,420.0,4.0,0.0
1684,78.0,0.0,180.0,6.0,0.0
1685,62.0,60.0,120.0,5.0,0.0
1686,50.0,7.0,120.0,5.0,0.0
1687,50.0,0.0,120.0,8.0,0.0
1688,76.0,68.0,60.0,6.0,0.0
1689,76.0,0.0,60.0,0.0,0.0
1690,54.0,0.0,120.0,8.0,0.0
1691,74.0,0.0,60.0,0.0,0.0
1692,54.0,11.0,120.0,5.0,0.0
1693,74.0,30.0,60.0,6.0,0.0
1694,69.0,0.0,240.0,3.0,0.0
1695,76.0,15.0,30.0,6.0,0.0
1696,76.0,0.0,30.0,0.0,0.0
1697,78.0,56.0,30.0,6.0,0.0
1698,78.0,0.0,30.0,0.0,0.0
1699,55.0,7.0,180.0,8.0,0.0
1700,71.0,0.0,120.0,6.0,0.0
1701,55.0,0.0,180.0,5.0,0.0
1702,71.0,7.0,120.0,0.0,0.0
1703,61.0,53.0,60.0,4.0,0.0
1704,67.0,0.0,240.0,3.0,0.0
1705,76.0,53.0,60.0,6.0,0.0
1706,59.0,7.0,120.0,4.0,0.0
1707,76.0,0.0,60.0,0.0,0.0
1708,74.0,0.0,60.0,0.0,0.0
1709,54.0,60.0,60.0,5.0,0.0
1710,74.0,0.0,60.0,6.0,0.0
1711,54.0,0.0,60.0,8.0,0.0
1712,52.0,7.0,120.0,5.0,0.0
1713,52.0,0.0,120.0,8.0,0.0
1714,73.0,0.0,60.0,0.0,0.0
1715,64.0,0.0,60.0,4.0,0.0
1716,73.0,34.0,60.0,6.0,0.0
1717,74.0,0.0,30.0,0.0,0.0
1718,62.0,4.0,60.0,4.0,0.0
1719,74.0,19.0,30.0,6.0,0.0
1720,71.0,0.0,30.0,6.0,0.0
1721,71.0,109.0,30.0,0.0,0.0
1722,70.0,0.0,180.0,6.0,0.0
1723,70.0,60.0,180.0,0.0,0.0
1724,66.0,0.0,180.0,3.0,0.0
1725,54.0,0.0,120.0,5.0,0.0
1726,61.0,0.0,360.0,4.0,0.0
1727,54.0,60.0,120.0,8.0,0.0
1728,66.0,0.0,120.0,5.0,0.0
1729,66.0,7.0,120.0,8.0,0.0
1730,68.0,0.0,60.0,3.0,0.0
1731,68.0,0.0,60.0,6.0,0.0
1732,68.0,60.0,60.0,0.0,0.0
1733,66.0,7.0,120.0,0.0,0.0
1734,66.0,0.0,120.0,6.0,0.0
1735,70.0,53.0,60.0,3.0,0.0
1736,64.0,0.0,120.0,8.0,0.0
1737,64.0,0.0,120.0,5.0,0.0
1738,66.0,60.0,60.0,3.0,0.0
1739,66.0,0.0,60.0,4.0,0.0
1740,71.0,60.0,60.0,3.0,0.0
1741,62.0,0.0,180.0,8.0,0.0
1742,62.0,7.0,180.0,5.0,0.0
1743,67.0,53.0,60.0,4.0,0.0
1744,76.0,0.0,60.0,3.0,0.0
1745,66.0,0.0,60.0,4.0,0.0
1746,74.0,60.0,60.0,3.0,0.0
1747,64.0,0.0,60.0,4.0,0.0
1748,73.0,0.0,60.0,3.0,0.0
1749,64.0,0.0,60.0,5.0,0.0
1750,64.0,60.0,60.0,8.0,0.0
1751,66.0,7.0,120.0,5.0,0.0
1752,62.0,0.0,60.0,4.0,0.0
1753,71.0,53.0,60.0,3.0,0.0
1754,66.0,0.0,120.0,8.0,0.0
1755,61.0,113.0,60.0,4.0,0.0
1756,70.0,0.0,60.0,3.0,0.0
1757,71.0,0.0,120.0,3.0,0.0
1758,78.0,0.0,360.0,1.0,0.0
1759,62.0,0.0,120.0,4.0,0.0
1760,59.0,0.0,120.0,8.0,0.0
1761,78.0,0.0,360.0,7.0,0.0
1762,59.0,7.0,120.0,5.0,0.0
1763,66.0,60.0,60.0,2.0,0.0
1764,59.0,0.0,120.0,5.0,0.0
1765,59.0,7.0,120.0,8.0,0.0
1766,71.0,53.0,60.0,2.0,0.0
1767,74.0,60.0,60.0,2.0,0.0
1768,73.0,53.0,60.0,2.0,0.0
1769,57.0,7.0,120.0,5.0,0.0
1770,57.0,0.0,120.0,8.0,0.0
1771,76.0,120.0,60.0,2.0,0.0
1772,55.0,0.0,180.0,5.0,0.0
1773,78.0,0.0,360.0,7.0,0.0
1774,78.0,0.0,360.0,1.0,0.0
1775,55.0,7.0,180.0,8.0,0.0
1776,75.0,7.0,360.0,2.0,0.0
1777,66.0,53.0,60.0,3.0,0.0
1778,71.0,60.0,60.0,3.0,0.0
1779,57.0,0.0,60.0,5.0,0.0
1780,57.0,0.0,60.0,8.0,0.0
1781,67.0,60.0,60.0,3.0,0.0
1782,59.0,0.0,120.0,8.0,0.0
1783,69.0,53.0,60.0,3.0,0.0
1784,59.0,0.0,120.0,5.0,0.0
1785,66.0,113.0,60.0,3.0,0.0
1786,52.0,7.0,120.0,5.0,0.0
1787,52.0,0.0,120.0,8.0,0.0
1788,79.0,0.0,360.0,7.0,0.0
1789,79.0,0.0,360.0,1.0,0.0
1790,71.0,0.0,120.0,3.0,0.0
1791,76.0,0.0,480.0,2.0,0.0
1792,59.0,60.0,60.0,4.0,0.0
1793,64.0,53.0,60.0,4.0,0.0
1794,49.0,0.0,120.0,5.0,0.0
1795,49.0,7.0,120.0,8.0,0.0
1796,70.0,0.0,120.0,3.0,0.0
1797,61.0,60.0,60.0,4.0,0.0
1798,71.0,7.0,120.0,3.0,0.0
1799,62.0,53.0,60.0,4.0,0.0
1800,47.0,0.0,120.0,5.0,0.0
1801,47.0,0.0,120.0,8.0,0.0
1802,59.0,60.0,60.0,4.0,0.0
1803,46.0,0.0,60.0,5.0,0.0
1804,78.0,7.0,360.0,7.0,0.0
1805,46.0,53.0,60.0,8.0,0.0
1806,78.0,0.0,360.0,1.0,0.0
1807,66.0,0.0,360.0,4.0,0.0
1808,73.0,7.0,120.0,3.0,0.0
1809,58.0,60.0,60.0,8.0,0.0
1810,58.0,0.0,60.0,5.0,0.0
1811,71.0,0.0,60.0,3.0,0.0
1812,74.0,60.0,60.0,2.0,0.0
1813,59.0,0.0,60.0,8.0,0.0
1814,59.0,0.0,60.0,5.0,0.0
1815,55.0,0.0,60.0,5.0,0.0
1816,73.0,0.0,60.0,2.0,0.0
1817,55.0,60.0,60.0,8.0,0.0
1818,70.0,0.0,60.0,3.0,0.0
1819,57.0,0.0,60.0,8.0,0.0
1820,74.0,7.0,240.0,2.0,0.0
1821,71.0,0.0,240.0,3.0,0.0
1822,57.0,53.0,60.0,5.0,0.0
1823,54.0,60.0,60.0,5.0,0.0
1824,54.0,0.0,60.0,8.0,0.0
1825,76.0,0.0,360.0,7.0,0.0
1826,55.0,0.0,60.0,5.0,0.0
1827,76.0,0.0,360.0,1.0,0.0
1828,55.0,53.0,60.0,8.0,0.0
1829,59.0,0.0,120.0,4.0,0.0
1830,52.0,0.0,60.0,5.0,0.0
1831,52.0,60.0,60.0,8.0,0.0
1832,73.0,0.0,60.0,2.0,0.0
1833,61.0,7.0,240.0,4.0,0.0
1834,57.0,60.0,60.0,8.0,0.0
1835,57.0,0.0,60.0,5.0,0.0
1836,69.0,0.0,60.0,3.0,0.0
1837,54.0,60.0,60.0,8.0,0.0
1838,71.0,0.0,60.0,2.0,0.0
1839,67.0,0.0,60.0,3.0,0.0
1840,54.0,0.0,60.0,5.0,0.0
1841,69.0,7.0,240.0,3.0,0.0
1842,73.0,0.0,240.0,2.0,0.0
1843,55.0,0.0,60.0,8.0,0.0
1844,55.0,53.0,60.0,5.0,0.0
1845,52.0,0.0,60.0,8.0,0.0
1846,52.0,60.0,60.0,5.0,0.0
1847,54.0,0.0,60.0,8.0,0.0
1848,74.0,7.0,360.0,7.0,0.0
1849,62.0,0.0,300.0,4.0,0.0
1850,54.0,53.0,60.0,5.0,0.0
1851,74.0,0.0,360.0,1.0,0.0
1852,50.0,0.0,60.0,8.0,0.0
1853,50.0,60.0,60.0,5.0,0.0
1854,55.0,0.0,60.0,5.0,0.0
1855,55.0,0.0,60.0,8.0,0.0
1856,71.0,0.0,60.0,2.0,0.0
1857,67.0,60.0,60.0,3.0,0.0
1858,66.0,0.0,60.0,3.0,0.0
1859,70.0,0.0,60.0,2.0,0.0
1860,52.0,0.0,60.0,5.0,0.0
1861,52.0,60.0,60.0,8.0,0.0
1862,67.0,53.0,60.0,3.0,0.0
1863,54.0,0.0,60.0,5.0,0.0
1864,71.0,7.0,480.0,2.0,0.0
1865,54.0,0.0,60.0,8.0,0.0
1866,50.0,60.0,60.0,8.0,0.0
1867,59.0,0.0,60.0,4.0,0.0
1868,50.0,0.0,60.0,5.0,0.0
1869,66.0,0.0,60.0,3.0,0.0
1870,52.0,7.0,120.0,5.0,0.0
1871,64.0,53.0,60.0,4.0,0.0
1872,73.0,0.0,360.0,7.0,0.0
1873,67.0,0.0,360.0,3.0,0.0
1874,73.0,0.0,360.0,1.0,0.0
1875,52.0,0.0,120.0,8.0,0.0
1876,66.0,60.0,60.0,4.0,0.0
1877,50.0,0.0,120.0,5.0,0.0
1878,64.0,53.0,60.0,4.0,0.0
1879,50.0,7.0,120.0,8.0,0.0
1880,62.0,60.0,60.0,4.0,0.0
1881,52.0,0.0,120.0,5.0,0.0
1882,61.0,53.0,60.0,4.0,0.0
1883,52.0,0.0,120.0,8.0,0.0
1884,59.0,60.0,60.0,4.0,0.0
1885,54.0,0.0,180.0,8.0,0.0
1886,66.0,60.0,60.0,4.0,0.0
1887,54.0,0.0,180.0,5.0,0.0
1888,70.0,7.0,180.0,2.0,0.0
1889,66.0,0.0,180.0,3.0,0.0
1890,73.0,7.0,360.0,7.0,0.0
1891,73.0,0.0,360.0,1.0,0.0
1892,62.0,53.0,60.0,4.0,0.0
1893,61.0,60.0,60.0,4.0,0.0
1894,56.0,0.0,60.0,5.0,0.0
1895,59.0,60.0,60.0,4.0,0.0
1896,65.0,0.0,60.0,3.0,0.0
1897,56.0,0.0,60.0,8.0,0.0
1898,68.0,0.0,60.0,2.0,0.0
1899,66.0,53.0,180.0,2.0,0.0
1900,57.0,0.0,240.0,5.0,0.0
1901,66.0,53.0,60.0,3.0,0.0
1902,57.0,0.0,60.0,4.0,0.0
1903,57.0,7.0,240.0,8.0,0.0
1904,64.0,0.0,60.0,3.0,0.0
1905,55.0,60.0,60.0,4.0,0.0
1906,71.0,7.0,480.0,1.0,0.0
1907,71.0,0.0,480.0,7.0,0.0
1908,63.0,0.0,60.0,3.0,0.0
1909,54.0,0.0,360.0,4.0,0.0
1910,64.0,0.0,60.0,2.0,0.0
1911,61.0,60.0,60.0,3.0,0.0
1912,63.0,0.0,60.0,3.0,0.0
1913,66.0,53.0,60.0,2.0,0.0
1914,55.0,0.0,120.0,5.0,0.0
1915,55.0,7.0,120.0,8.0,0.0
1916,63.0,0.0,60.0,2.0,0.0
1917,59.0,60.0,60.0,3.0,0.0
1918,64.0,53.0,60.0,2.0,0.0
1919,54.0,0.0,120.0,5.0,0.0
1920,61.0,0.0,60.0,3.0,0.0
1921,54.0,7.0,120.0,8.0,0.0
1922,66.0,0.0,60.0,2.0,0.0
1923,63.0,60.0,60.0,3.0,0.0
1924,64.0,7.0,180.0,3.0,0.0
1925,67.0,53.0,60.0,2.0,0.0
1926,52.0,0.0,180.0,5.0,0.0
1927,59.0,0.0,960.0,4.0,0.0
1928,52.0,0.0,180.0,8.0,0.0
1929,66.0,53.0,60.0,2.0,0.0
1930,67.0,60.0,60.0,2.0,0.0
1931,54.0,0.0,60.0,5.0,0.0
1932,54.0,0.0,60.0,8.0,0.0
1933,63.0,0.0,60.0,3.0,0.0
1934,69.0,60.0,60.0,2.0,0.0
1935,71.0,53.0,60.0,2.0,0.0
1936,55.0,7.0,120.0,5.0,0.0
1937,55.0,0.0,120.0,8.0,0.0
1938,64.0,0.0,120.0,3.0,0.0
1939,72.0,60.0,60.0,2.0,0.0
1940,51.0,53.0,60.0,8.0,0.0
1941,66.0,7.0,120.0,2.0,0.0
1942,69.0,0.0,120.0,3.0,0.0
1943,51.0,0.0,60.0,5.0,0.0
1944,49.0,60.0,60.0,8.0,0.0
1945,49.0,0.0,60.0,5.0,0.0
1946,47.0,53.0,60.0,5.0,0.0
1947,47.0,0.0,60.0,8.0,0.0
1948,63.0,0.0,120.0,3.0,0.0
1949,83.0,7.0,120.0,0.0,0.0
1950,83.0,52.0,120.0,6.0,0.0
1951,49.0,0.0,60.0,5.0,0.0
1952,49.0,8.0,60.0,8.0,0.0
1953,51.0,0.0,60.0,8.0,0.0
1954,51.0,53.0,60.0,5.0,0.0
1955,66.0,0.0,240.0,3.0,0.0
1956,81.0,7.0,120.0,0.0,0.0
1957,81.0,105.0,120.0,6.0,0.0
1958,47.0,8.0,60.0,5.0,0.0
1959,47.0,0.0,60.0,8.0,0.0
1960,52.0,60.0,120.0,8.0,0.0
1961,79.0,7.0,180.0,0.0,0.0
1962,52.0,0.0,120.0,5.0,0.0
1963,79.0,45.0,180.0,6.0,0.0
1964,64.0,7.0,120.0,8.0,0.0
1965,64.0,8.0,60.0,3.0,0.0
1966,64.0,0.0,120.0,5.0,0.0
1967,81.0,105.0,60.0,6.0,0.0
1968,81.0,0.0,60.0,0.0,0.0
1969,66.0,8.0,60.0,3.0,0.0
1970,83.0,0.0,120.0,0.0,0.0
1971,67.0,53.0,180.0,3.0,0.0
1972,64.0,0.0,300.0,4.0,0.0
1973,62.0,15.0,120.0,8.0,0.0
1974,83.0,52.0,120.0,6.0,0.0
1975,62.0,0.0,120.0,5.0,0.0
1976,76.0,7.0,120.0,6.0,0.0
1977,76.0,0.0,120.0,0.0,0.0
1978,61.0,0.0,180.0,8.0,0.0
1979,61.0,7.0,180.0,5.0,0.0
1980,74.0,53.0,60.0,3.0,0.0
1981,88.0,7.0,120.0,0.0,0.0
1982,88.0,52.0,120.0,6.0,0.0
1983,73.0,53.0,60.0,3.0,0.0
1984,62.0,8.0,60.0,4.0,0.0
1985,62.0,0.0,60.0,5.0,0.0
1986,71.0,0.0,60.0,3.0,0.0
1987,62.0,0.0,60.0,8.0,0.0
1988,86.0,0.0,90.0,6.0,0.0
1989,70.0,0.0,60.0,3.0,0.0
1990,61.0,26.0,60.0,4.0,0.0
1991,64.0,7.0,120.0,5.0,0.0
1992,64.0,0.0,120.0,8.0,0.0
1993,86.0,27.0,90.0,0.0,0.0
1994,59.0,68.0,60.0,4.0,0.0
1995,71.0,0.0,60.0,3.0,0.0
1996,52.0,0.0,240.0,5.0,0.0
1997,52.0,7.0,240.0,8.0,0.0
1998,86.0,0.0,60.0,6.0,0.0
1999,70.0,7.0,120.0,3.0,0.0
2000,86.0,45.0,60.0,0.0,0.0
2001,66.0,0.0,240.0,4.0,0.0
2002,85.0,0.0,60.0,0.0,0.0
2003,85.0,60.0,60.0,6.0,0.0
2004,83.0,8.0,60.0,0.0,0.0
2005,83.0,45.0,60.0,6.0,0.0
2006,73.0,0.0,120.0,3.0,0.0
2007,82.0,105.0,60.0,6.0,0.0
2008,82.0,8.0,60.0,0.0,0.0
2009,71.0,7.0,240.0,3.0,0.0
2010,50.0,0.0,120.0,5.0,0.0
2011,50.0,67.0,120.0,8.0,0.0
2012,83.0,53.0,180.0,6.0,0.0
2013,66.0,0.0,120.0,4.0,0.0
2014,83.0,0.0,180.0,0.0,0.0
2015,52.0,0.0,120.0,5.0,0.0
2016,67.0,0.0,120.0,4.0,0.0
2017,52.0,0.0,120.0,8.0,0.0
2018,76.0,8.0,60.0,0.0,0.0
2019,76.0,105.0,60.0,6.0,0.0
2020,54.0,0.0,120.0,5.0,0.0
2021,71.0,0.0,120.0,3.0,0.0
2022,74.0,0.0,120.0,6.0,0.0
2023,66.0,28.0,120.0,4.0,0.0
2024,74.0,0.0,120.0,0.0,0.0
2025,54.0,0.0,120.0,8.0,0.0
2026,73.0,0.0,15.0,6.0,0.0
2027,64.0,0.0,120.0,4.0,0.0
2028,42.0,0.0,120.0,8.0,0.0
2029,42.0,0.0,120.0,5.0,0.0
2030,70.0,7.0,120.0,3.0,0.0
2031,73.0,15.0,15.0,0.0,0.0
2032,74.0,28.0,15.0,6.0,0.0
2033,74.0,0.0,15.0,0.0,0.0
2034,73.0,0.0,30.0,0.0,0.0
2035,73.0,49.0,30.0,6.0,0.0
2036,71.0,368.0,60.0,0.0,0.0
2037,71.0,0.0,60.0,6.0,0.0
2038,71.0,0.0,360.0,0.0,0.0
2039,47.0,0.0,360.0,8.0,0.0
2040,66.0,0.0,360.0,3.0,0.0
2041,63.0,0.0,360.0,4.0,0.0
2042,71.0,0.0,360.0,6.0,0.0
2043,47.0,0.0,360.0,5.0,0.0
