,note,step,duration,channel,velocity
0,71.0,60.0,120.0,0.0,0.0
1,73.0,60.0,60.0,0.0,0.0
2,71.0,60.0,60.0,0.0,0.0
3,70.0,60.0,60.0,0.0,0.0
4,71.0,120.0,60.0,0.0,0.0
5,73.0,60.0,120.0,0.0,0.0
6,75.0,60.0,60.0,0.0,0.0
7,73.0,60.0,60.0,0.0,0.0
8,71.0,60.0,60.0,0.0,0.0
9,73.0,120.0,60.0,0.0,0.0
10,75.0,120.0,120.0,0.0,0.0
11,73.0,120.0,120.0,0.0,0.0
12,71.0,120.0,120.0,0.0,0.0
13,66.0,240.0,120.0,0.0,0.0
14,76.0,120.0,240.0,0.0,0.0
15,75.0,120.0,120.0,0.0,0.0
16,73.0,120.0,120.0,0.0,0.0
17,71.0,120.0,120.0,0.0,0.0
18,70.0,240.0,120.0,0.0,0.0
19,80.0,120.0,240.0,0.0,0.0
20,78.0,60.0,120.0,0.0,0.0
21,80.0,60.0,60.0,0.0,0.0
22,78.0,60.0,60.0,0.0,0.0
23,76.0,60.0,60.0,0.0,0.0
24,75.0,120.0,60.0,0.0,0.0
25,73.0,60.0,120.0,0.0,0.0
26,76.0,60.0,60.0,0.0,0.0
27,75.0,60.0,60.0,0.0,0.0
28,73.0,60.0,60.0,0.0,0.0
29,71.0,120.0,60.0,0.0,0.0
30,70.0,60.0,120.0,0.0,0.0
31,66.0,0.0,120.0,1.0,0.0
32,71.0,0.0,120.0,0.0,0.0
33,68.0,60.0,60.0,1.0,0.0
34,66.0,60.0,60.0,1.0,0.0
35,73.0,120.0,120.0,0.0,0.0
36,65.0,60.0,60.0,1.0,0.0
37,66.0,0.0,60.0,1.0,0.0
38,68.0,60.0,120.0,1.0,0.0
39,71.0,0.0,120.0,0.0,0.0
40,73.0,0.0,120.0,0.0,0.0
41,70.0,60.0,60.0,1.0,0.0
42,68.0,60.0,60.0,1.0,0.0
43,75.0,0.0,120.0,0.0,0.0
44,66.0,60.0,60.0,1.0,0.0
45,68.0,120.0,60.0,1.0,0.0
46,70.0,0.0,120.0,1.0,0.0
47,73.0,60.0,120.0,0.0,0.0
48,68.0,0.0,120.0,1.0,0.0
49,75.0,60.0,60.0,0.0,0.0
50,77.0,60.0,60.0,0.0,0.0
51,66.0,60.0,120.0,1.0,0.0
52,78.0,60.0,60.0,0.0,0.0
53,75.0,0.0,60.0,0.0,0.0
54,61.0,0.0,120.0,1.0,0.0
55,77.0,60.0,60.0,0.0,0.0
56,75.0,60.0,60.0,0.0,0.0
57,71.0,0.0,240.0,1.0,0.0
58,77.0,60.0,60.0,0.0,0.0
59,78.0,60.0,60.0,0.0,0.0
60,80.0,60.0,60.0,0.0,0.0
61,77.0,60.0,60.0,0.0,0.0
62,78.0,60.0,60.0,0.0,0.0
63,70.0,0.0,120.0,1.0,0.0
64,77.0,60.0,60.0,0.0,0.0
65,68.0,60.0,120.0,1.0,0.0
66,78.0,60.0,60.0,0.0,0.0
67,80.0,0.0,60.0,0.0,0.0
68,82.0,60.0,60.0,0.0,0.0
69,66.0,60.0,120.0,1.0,0.0
70,78.0,0.0,60.0,0.0,0.0
71,80.0,60.0,60.0,0.0,0.0
72,65.0,60.0,120.0,1.0,0.0
73,78.0,0.0,60.0,0.0,0.0
74,75.0,120.0,240.0,1.0,0.0
75,80.0,60.0,60.0,0.0,0.0
76,82.0,60.0,60.0,0.0,0.0
77,83.0,60.0,60.0,0.0,0.0
78,80.0,0.0,60.0,0.0,0.0
79,82.0,0.0,120.0,0.0,0.0
80,73.0,60.0,120.0,1.0,0.0
81,83.0,60.0,60.0,0.0,0.0
82,75.0,0.0,60.0,1.0,0.0
83,73.0,0.0,60.0,1.0,0.0
84,82.0,60.0,60.0,0.0,0.0
85,71.0,60.0,60.0,1.0,0.0
86,80.0,0.0,60.0,0.0,0.0
87,78.0,0.0,60.0,0.0,0.0
88,70.0,120.0,60.0,1.0,0.0
89,68.0,60.0,120.0,1.0,0.0
90,83.0,60.0,420.0,0.0,0.0
91,71.0,60.0,60.0,1.0,0.0
92,70.0,60.0,60.0,1.0,0.0
93,68.0,60.0,60.0,1.0,0.0
94,66.0,60.0,60.0,1.0,0.0
95,65.0,0.0,120.0,1.0,0.0
96,82.0,60.0,60.0,0.0,0.0
97,80.0,60.0,60.0,0.0,0.0
98,71.0,60.0,120.0,1.0,0.0
99,83.0,0.0,60.0,0.0,0.0
100,70.0,0.0,120.0,1.0,0.0
101,78.0,60.0,60.0,0.0,0.0
102,83.0,60.0,60.0,0.0,0.0
103,68.0,0.0,120.0,1.0,0.0
104,77.0,60.0,60.0,0.0,0.0
105,83.0,60.0,60.0,0.0,0.0
106,66.0,0.0,120.0,1.0,0.0
107,75.0,60.0,60.0,0.0,0.0
108,83.0,60.0,60.0,0.0,0.0
109,65.0,0.0,120.0,1.0,0.0
110,73.0,60.0,60.0,0.0,0.0
111,83.0,60.0,60.0,0.0,0.0
112,82.0,60.0,120.0,0.0,0.0
113,66.0,60.0,60.0,1.0,0.0
114,68.0,0.0,60.0,1.0,0.0
115,78.0,0.0,120.0,0.0,0.0
116,70.0,60.0,60.0,1.0,0.0
117,66.0,60.0,60.0,1.0,0.0
118,80.0,60.0,120.0,0.0,0.0
119,71.0,60.0,60.0,1.0,0.0
120,66.0,0.0,60.0,1.0,0.0
121,73.0,60.0,60.0,1.0,0.0
122,82.0,60.0,120.0,0.0,0.0
123,66.0,0.0,60.0,1.0,0.0
124,75.0,60.0,60.0,1.0,0.0
125,83.0,60.0,120.0,0.0,0.0
126,66.0,0.0,60.0,1.0,0.0
127,76.0,60.0,60.0,1.0,0.0
128,85.0,60.0,240.0,0.0,0.0
129,66.0,120.0,60.0,1.0,0.0
130,59.0,0.0,120.0,2.0,0.0
131,75.0,120.0,360.0,1.0,0.0
132,61.0,60.0,60.0,2.0,0.0
133,78.0,60.0,120.0,0.0,0.0
134,59.0,0.0,60.0,2.0,0.0
135,83.0,0.0,240.0,0.0,0.0
136,58.0,60.0,60.0,2.0,0.0
137,59.0,0.0,60.0,2.0,0.0
138,61.0,60.0,120.0,2.0,0.0
139,76.0,0.0,480.0,1.0,0.0
140,82.0,60.0,120.0,0.0,0.0
141,63.0,60.0,60.0,2.0,0.0
142,61.0,0.0,60.0,2.0,0.0
143,80.0,120.0,120.0,0.0,0.0
144,59.0,60.0,60.0,2.0,0.0
145,61.0,0.0,60.0,2.0,0.0
146,63.0,0.0,120.0,2.0,0.0
147,78.0,120.0,120.0,0.0,0.0
148,70.0,0.0,120.0,1.0,0.0
149,61.0,120.0,120.0,2.0,0.0
150,76.0,0.0,120.0,0.0,0.0
151,59.0,120.0,120.0,2.0,0.0
152,71.0,0.0,240.0,1.0,0.0
153,75.0,0.0,120.0,0.0,0.0
154,73.0,60.0,240.0,0.0,0.0
155,54.0,60.0,120.0,2.0,0.0
156,64.0,0.0,240.0,2.0,0.0
157,70.0,60.0,60.0,1.0,0.0
158,71.0,0.0,60.0,1.0,0.0
159,73.0,60.0,60.0,1.0,0.0
160,70.0,60.0,60.0,1.0,0.0
161,71.0,60.0,60.0,1.0,0.0
162,63.0,0.0,120.0,2.0,0.0
163,70.0,60.0,60.0,1.0,0.0
164,61.0,60.0,120.0,2.0,0.0
165,71.0,60.0,60.0,1.0,0.0
166,73.0,0.0,60.0,1.0,0.0
167,78.0,0.0,240.0,0.0,0.0
168,59.0,60.0,120.0,2.0,0.0
169,75.0,60.0,60.0,1.0,0.0
170,71.0,0.0,60.0,1.0,0.0
171,73.0,60.0,60.0,1.0,0.0
172,58.0,60.0,120.0,2.0,0.0
173,71.0,0.0,60.0,1.0,0.0
174,68.0,120.0,240.0,2.0,0.0
175,76.0,0.0,120.0,0.0,0.0
176,73.0,60.0,60.0,1.0,0.0
177,75.0,60.0,60.0,1.0,0.0
178,76.0,60.0,60.0,1.0,0.0
179,85.0,0.0,240.0,0.0,0.0
180,73.0,0.0,60.0,1.0,0.0
181,66.0,60.0,120.0,2.0,0.0
182,75.0,0.0,120.0,1.0,0.0
183,83.0,0.0,360.0,0.0,0.0
184,68.0,60.0,60.0,2.0,0.0
185,76.0,0.0,60.0,1.0,0.0
186,66.0,0.0,60.0,2.0,0.0
187,75.0,60.0,60.0,1.0,0.0
188,64.0,0.0,60.0,2.0,0.0
189,73.0,60.0,60.0,1.0,0.0
190,71.0,120.0,60.0,1.0,0.0
191,63.0,0.0,60.0,2.0,0.0
192,76.0,60.0,420.0,1.0,0.0
193,61.0,60.0,120.0,2.0,0.0
194,85.0,0.0,60.0,0.0,0.0
195,64.0,60.0,60.0,2.0,0.0
196,83.0,0.0,60.0,0.0,0.0
197,63.0,60.0,60.0,2.0,0.0
198,82.0,60.0,60.0,0.0,0.0
199,61.0,0.0,60.0,2.0,0.0
200,80.0,0.0,60.0,0.0,0.0
201,59.0,60.0,60.0,2.0,0.0
202,78.0,10.0,840.0,0.0,0.0
203,58.0,60.0,240.0,2.0,0.0
204,75.0,60.0,60.0,1.0,0.0
205,73.0,60.0,60.0,1.0,0.0
206,76.0,0.0,60.0,1.0,0.0
207,71.0,60.0,60.0,1.0,0.0
208,56.0,60.0,120.0,2.0,0.0
209,76.0,0.0,60.0,1.0,0.0
210,54.0,60.0,60.0,2.0,0.0
211,70.0,0.0,60.0,1.0,0.0
212,76.0,60.0,60.0,1.0,0.0
213,56.0,0.0,60.0,2.0,0.0
214,68.0,60.0,60.0,1.0,0.0
215,54.0,0.0,60.0,2.0,0.0
216,76.0,60.0,60.0,1.0,0.0
217,52.0,0.0,60.0,2.0,0.0
218,66.0,0.0,60.0,1.0,0.0
219,51.0,60.0,60.0,2.0,0.0
220,49.0,0.0,60.0,2.0,0.0
221,76.0,60.0,60.0,1.0,0.0
222,47.0,50.0,60.0,2.0,0.0
223,75.0,0.0,120.0,1.0,0.0
224,49.0,60.0,60.0,2.0,0.0
225,69.0,0.0,120.0,1.0,0.0
226,78.0,60.0,120.0,0.0,0.0
227,51.0,60.0,60.0,2.0,0.0
228,47.0,0.0,60.0,2.0,0.0
229,68.0,0.0,120.0,1.0,0.0
230,52.0,60.0,60.0,2.0,0.0
231,76.0,60.0,120.0,0.0,0.0
232,47.0,0.0,60.0,2.0,0.0
233,54.0,60.0,60.0,2.0,0.0
234,66.0,0.0,120.0,1.0,0.0
235,75.0,60.0,120.0,0.0,0.0
236,47.0,0.0,60.0,2.0,0.0
237,64.0,60.0,120.0,1.0,0.0
238,56.0,60.0,60.0,2.0,0.0
239,73.0,0.0,120.0,0.0,0.0
240,47.0,0.0,60.0,2.0,0.0
241,57.0,60.0,60.0,2.0,0.0
242,63.0,0.0,120.0,1.0,0.0
243,71.0,0.0,120.0,0.0,0.0
244,47.0,60.0,60.0,2.0,0.0
245,56.0,60.0,60.0,2.0,0.0
246,76.0,0.0,60.0,0.0,0.0
247,54.0,60.0,60.0,2.0,0.0
248,78.0,0.0,60.0,0.0,0.0
249,80.0,0.0,300.0,0.0,0.0
250,52.0,60.0,60.0,2.0,0.0
251,56.0,60.0,60.0,2.0,0.0
252,51.0,60.0,60.0,2.0,0.0
253,71.0,0.0,120.0,1.0,0.0
254,56.0,60.0,60.0,2.0,0.0
255,49.0,60.0,60.0,2.0,0.0
256,70.0,10.0,600.0,1.0,0.0
257,56.0,0.0,60.0,2.0,0.0
258,78.0,60.0,60.0,0.0,0.0
259,47.0,0.0,60.0,2.0,0.0
260,76.0,60.0,60.0,0.0,0.0
261,56.0,0.0,60.0,2.0,0.0
262,75.0,60.0,60.0,0.0,0.0
263,46.0,60.0,60.0,2.0,0.0
264,73.0,0.0,60.0,0.0,0.0
265,56.0,60.0,60.0,2.0,0.0
266,76.0,0.0,60.0,0.0,0.0
267,75.0,60.0,60.0,0.0,0.0
268,54.0,0.0,60.0,2.0,0.0
269,52.0,0.0,60.0,2.0,0.0
270,76.0,60.0,60.0,0.0,0.0
271,78.0,60.0,300.0,0.0,0.0
272,51.0,50.0,60.0,2.0,0.0
273,54.0,60.0,60.0,2.0,0.0
274,49.0,60.0,60.0,2.0,0.0
275,70.0,0.0,120.0,1.0,0.0
276,54.0,60.0,60.0,2.0,0.0
277,47.0,0.0,60.0,2.0,0.0
278,68.0,10.0,600.0,1.0,0.0
279,54.0,60.0,60.0,2.0,0.0
280,76.0,0.0,60.0,0.0,0.0
281,46.0,60.0,60.0,2.0,0.0
282,75.0,0.0,60.0,0.0,0.0
283,54.0,0.0,60.0,2.0,0.0
284,73.0,60.0,60.0,0.0,0.0
285,44.0,60.0,60.0,2.0,0.0
286,71.0,0.0,60.0,0.0,0.0
287,54.0,0.0,60.0,2.0,0.0
288,75.0,60.0,60.0,0.0,0.0
289,52.0,60.0,60.0,2.0,0.0
290,73.0,0.0,60.0,0.0,0.0
291,75.0,60.0,60.0,0.0,0.0
292,51.0,0.0,60.0,2.0,0.0
293,76.0,60.0,300.0,0.0,0.0
294,49.0,50.0,60.0,2.0,0.0
295,52.0,60.0,60.0,2.0,0.0
296,47.0,60.0,60.0,2.0,0.0
297,68.0,0.0,120.0,1.0,0.0
298,52.0,60.0,60.0,2.0,0.0
299,66.0,0.0,360.0,1.0,0.0
300,46.0,0.0,60.0,2.0,0.0
301,52.0,0.0,60.0,2.0,0.0
302,75.0,60.0,60.0,0.0,0.0
303,44.0,0.0,60.0,2.0,0.0
304,73.0,60.0,60.0,0.0,0.0
305,71.0,60.0,60.0,0.0,0.0
306,52.0,0.0,60.0,2.0,0.0
307,70.0,60.0,60.0,0.0,0.0
308,42.0,0.0,60.0,2.0,0.0
309,52.0,60.0,60.0,2.0,0.0
310,73.0,0.0,60.0,0.0,0.0
311,71.0,60.0,60.0,0.0,0.0
312,66.0,0.0,120.0,1.0,0.0
313,51.0,0.0,120.0,2.0,0.0
314,73.0,60.0,60.0,0.0,0.0
315,64.0,60.0,60.0,1.0,0.0
316,49.0,0.0,120.0,2.0,0.0
317,75.0,60.0,360.0,0.0,0.0
318,66.0,60.0,60.0,1.0,0.0
319,47.0,120.0,120.0,2.0,0.0
320,68.0,60.0,60.0,1.0,0.0
321,66.0,0.0,60.0,1.0,0.0
322,64.0,0.0,120.0,1.0,0.0
323,49.0,0.0,120.0,2.0,0.0
324,63.0,60.0,60.0,1.0,0.0
325,68.0,60.0,120.0,0.0,0.0
326,47.0,0.0,120.0,2.0,0.0
327,64.0,0.0,60.0,1.0,0.0
328,66.0,60.0,60.0,1.0,0.0
329,46.0,60.0,120.0,2.0,0.0
330,73.0,0.0,180.0,0.0,0.0
331,64.0,0.0,60.0,1.0,0.0
332,63.0,0.0,120.0,1.0,0.0
333,47.0,60.0,60.0,2.0,0.0
334,59.0,0.0,60.0,2.0,0.0
335,71.0,60.0,60.0,0.0,0.0
336,64.0,60.0,120.0,1.0,0.0
337,57.0,60.0,60.0,2.0,0.0
338,73.0,0.0,120.0,0.0,0.0
339,56.0,0.0,60.0,2.0,0.0
340,75.0,60.0,120.0,0.0,0.0
341,54.0,60.0,60.0,2.0,0.0
342,66.0,0.0,120.0,1.0,0.0
343,57.0,0.0,60.0,2.0,0.0
344,71.0,0.0,120.0,1.0,0.0
345,56.0,0.0,60.0,2.0,0.0
346,76.0,60.0,60.0,0.0,0.0
347,57.0,60.0,60.0,2.0,0.0
348,78.0,0.0,60.0,0.0,0.0
349,76.0,60.0,60.0,0.0,0.0
350,61.0,0.0,240.0,1.0,0.0
351,56.0,0.0,60.0,2.0,0.0
352,54.0,0.0,60.0,2.0,0.0
353,75.0,60.0,60.0,0.0,0.0
354,73.0,50.0,60.0,0.0,0.0
355,52.0,0.0,60.0,2.0,0.0
356,71.0,10.0,60.0,0.0,0.0
357,56.0,22.0,60.0,2.0,0.0
358,54.0,6.0,60.0,2.0,0.0
359,71.0,22.0,20.0,0.0,0.0
360,63.0,0.0,120.0,1.0,0.0
361,70.0,16.0,20.0,0.0,0.0
362,71.0,22.0,20.0,0.0,0.0
363,56.0,12.0,60.0,2.0,0.0
364,70.0,22.0,20.0,0.0,0.0
365,71.0,10.0,20.0,0.0,0.0
366,70.0,22.0,20.0,0.0,0.0
367,64.0,0.0,120.0,1.0,0.0
368,54.0,30.0,60.0,2.0,0.0
369,71.0,22.0,20.0,0.0,0.0
370,70.0,4.0,20.0,0.0,0.0
371,68.0,30.0,30.0,0.0,0.0
372,52.0,60.0,60.0,2.0,0.0
373,70.0,0.0,30.0,0.0,0.0
374,71.0,0.0,180.0,0.0,0.0
375,66.0,60.0,120.0,1.0,0.0
376,51.0,60.0,60.0,2.0,0.0
377,54.0,0.0,60.0,2.0,0.0
378,52.0,60.0,60.0,2.0,0.0
379,68.0,0.0,120.0,1.0,0.0
380,75.0,0.0,60.0,0.0,0.0
381,54.0,60.0,60.0,2.0,0.0
382,58.0,0.0,240.0,1.0,0.0
383,52.0,0.0,60.0,2.0,0.0
384,73.0,60.0,60.0,0.0,0.0
385,71.0,60.0,60.0,0.0,0.0
386,51.0,0.0,60.0,2.0,0.0
387,49.0,60.0,60.0,2.0,0.0
388,70.0,0.0,60.0,0.0,0.0
389,68.0,0.0,60.0,0.0,0.0
390,52.0,60.0,60.0,2.0,0.0
391,66.0,0.0,120.0,0.0,0.0
392,51.0,50.0,60.0,2.0,0.0
393,59.0,10.0,120.0,1.0,0.0
394,52.0,60.0,60.0,2.0,0.0
395,59.0,0.0,60.0,1.0,0.0
396,51.0,60.0,60.0,2.0,0.0
397,61.0,0.0,60.0,1.0,0.0
398,49.0,60.0,60.0,2.0,0.0
399,63.0,0.0,60.0,1.0,0.0
400,47.0,60.0,60.0,2.0,0.0
401,65.0,60.0,60.0,1.0,0.0
402,49.0,0.0,60.0,2.0,0.0
403,51.0,60.0,60.0,2.0,0.0
404,66.0,0.0,120.0,1.0,0.0
405,53.0,60.0,60.0,2.0,0.0
406,63.0,60.0,60.0,1.0,0.0
407,54.0,0.0,60.0,2.0,0.0
408,65.0,0.0,60.0,1.0,0.0
409,56.0,60.0,60.0,2.0,0.0
410,66.0,60.0,60.0,1.0,0.0
411,58.0,0.0,60.0,2.0,0.0
412,59.0,0.0,60.0,2.0,0.0
413,68.0,120.0,60.0,1.0,0.0
414,73.0,0.0,120.0,0.0,0.0
415,58.0,0.0,120.0,2.0,0.0
416,70.0,60.0,120.0,1.0,0.0
417,63.0,0.0,120.0,2.0,0.0
418,71.0,60.0,60.0,0.0,0.0
419,68.0,60.0,120.0,1.0,0.0
420,73.0,0.0,60.0,0.0,0.0
421,51.0,120.0,120.0,2.0,0.0
422,67.0,0.0,120.0,1.0,0.0
423,75.0,60.0,60.0,0.0,0.0
424,73.0,0.0,60.0,0.0,0.0
425,68.0,0.0,120.0,1.0,0.0
426,71.0,60.0,120.0,0.0,0.0
427,56.0,0.0,120.0,2.0,0.0
428,66.0,0.0,120.0,1.0,0.0
429,70.0,60.0,60.0,0.0,0.0
430,61.0,0.0,120.0,2.0,0.0
431,71.0,60.0,60.0,0.0,0.0
432,73.0,60.0,60.0,0.0,0.0
433,49.0,0.0,120.0,2.0,0.0
434,65.0,120.0,120.0,1.0,0.0
435,70.0,0.0,60.0,0.0,0.0
436,54.0,0.0,120.0,2.0,0.0
437,71.0,0.0,120.0,0.0,0.0
438,66.0,60.0,120.0,1.0,0.0
439,56.0,0.0,120.0,2.0,0.0
440,73.0,60.0,120.0,0.0,0.0
441,65.0,60.0,60.0,1.0,0.0
442,63.0,0.0,60.0,1.0,0.0
443,75.0,0.0,120.0,0.0,0.0
444,58.0,0.0,240.0,2.0,0.0
445,61.0,60.0,60.0,1.0,0.0
446,64.0,60.0,60.0,1.0,0.0
447,78.0,22.0,120.0,0.0,0.0
448,63.0,60.0,60.0,1.0,0.0
449,64.0,0.0,60.0,1.0,0.0
450,59.0,12.0,120.0,2.0,0.0
451,70.0,22.0,20.0,0.0,0.0
452,63.0,6.0,60.0,1.0,0.0
453,68.0,16.0,20.0,0.0,0.0
454,70.0,22.0,20.0,0.0,0.0
455,61.0,0.0,60.0,1.0,0.0
456,68.0,22.0,20.0,0.0,0.0
457,70.0,10.0,20.0,0.0,0.0
458,68.0,22.0,20.0,0.0,0.0
459,59.0,18.0,60.0,1.0,0.0
460,53.0,0.0,120.0,2.0,0.0
461,70.0,22.0,20.0,0.0,0.0
462,68.0,4.0,20.0,0.0,0.0
463,70.0,40.0,20.0,0.0,0.0
464,63.0,60.0,60.0,1.0,0.0
465,68.0,2.0,40.0,0.0,0.0
466,61.0,60.0,60.0,1.0,0.0
467,70.0,0.0,120.0,0.0,0.0
468,54.0,0.0,120.0,2.0,0.0
469,63.0,60.0,60.0,1.0,0.0
470,61.0,60.0,60.0,1.0,0.0
471,71.0,60.0,120.0,0.0,0.0
472,59.0,0.0,60.0,1.0,0.0
473,58.0,60.0,60.0,1.0,0.0
474,73.0,0.0,120.0,0.0,0.0
475,61.0,60.0,60.0,1.0,0.0
476,59.0,60.0,60.0,1.0,0.0
477,75.0,22.0,120.0,0.0,0.0
478,61.0,0.0,60.0,1.0,0.0
479,59.0,6.0,60.0,1.0,0.0
480,66.0,22.0,20.0,0.0,0.0
481,65.0,16.0,20.0,0.0,0.0
482,66.0,22.0,20.0,0.0,0.0
483,58.0,12.0,60.0,1.0,0.0
484,65.0,22.0,20.0,0.0,0.0
485,66.0,10.0,20.0,0.0,0.0
486,65.0,22.0,20.0,0.0,0.0
487,56.0,18.0,60.0,1.0,0.0
488,66.0,22.0,20.0,0.0,0.0
489,65.0,4.0,20.0,0.0,0.0
490,66.0,40.0,20.0,0.0,0.0
491,59.0,60.0,60.0,1.0,0.0
492,65.0,2.0,40.0,0.0,0.0
493,58.0,50.0,60.0,1.0,0.0
494,66.0,10.0,120.0,0.0,0.0
495,59.0,60.0,60.0,1.0,0.0
496,58.0,60.0,60.0,1.0,0.0
497,66.0,0.0,60.0,0.0,0.0
498,56.0,0.0,60.0,1.0,0.0
499,68.0,60.0,60.0,0.0,0.0
500,70.0,0.0,60.0,0.0,0.0
501,54.0,60.0,60.0,1.0,0.0
502,71.0,60.0,60.0,0.0,0.0
503,56.0,0.0,60.0,1.0,0.0
504,73.0,0.0,120.0,0.0,0.0
505,58.0,60.0,60.0,1.0,0.0
506,59.0,60.0,60.0,1.0,0.0
507,70.0,0.0,60.0,0.0,0.0
508,61.0,60.0,60.0,1.0,0.0
509,63.0,60.0,60.0,1.0,0.0
510,71.0,0.0,60.0,0.0,0.0
511,73.0,0.0,60.0,0.0,0.0
512,64.0,60.0,60.0,1.0,0.0
513,66.0,120.0,60.0,1.0,0.0
514,75.0,0.0,60.0,0.0,0.0
515,58.0,0.0,120.0,1.0,0.0
516,54.0,60.0,120.0,2.0,0.0
517,76.0,0.0,240.0,0.0,0.0
518,73.0,60.0,120.0,1.0,0.0
519,52.0,60.0,60.0,2.0,0.0
520,54.0,0.0,60.0,2.0,0.0
521,56.0,60.0,60.0,2.0,0.0
522,75.0,120.0,120.0,0.0,0.0
523,71.0,60.0,240.0,1.0,0.0
524,54.0,0.0,60.0,2.0,0.0
525,73.0,120.0,360.0,0.0,0.0
526,52.0,0.0,120.0,2.0,0.0
527,51.0,60.0,60.0,2.0,0.0
528,71.0,60.0,120.0,1.0,0.0
529,52.0,0.0,60.0,2.0,0.0
530,70.0,0.0,120.0,1.0,0.0
531,54.0,60.0,60.0,2.0,0.0
532,52.0,0.0,60.0,2.0,0.0
533,51.0,60.0,120.0,2.0,0.0
534,71.0,0.0,120.0,1.0,0.0
535,83.0,0.0,60.0,0.0,0.0
536,82.0,60.0,60.0,0.0,0.0
537,52.0,60.0,120.0,2.0,0.0
538,80.0,0.0,60.0,0.0,0.0
539,78.0,60.0,60.0,0.0,0.0
540,54.0,60.0,120.0,2.0,0.0
541,82.0,0.0,60.0,0.0,0.0
542,80.0,60.0,60.0,0.0,0.0
543,59.0,0.0,120.0,2.0,0.0
544,82.0,60.0,60.0,0.0,0.0
545,80.0,60.0,60.0,0.0,0.0
546,49.0,0.0,240.0,2.0,0.0
547,78.0,60.0,60.0,0.0,0.0
548,76.0,60.0,60.0,0.0,0.0
549,80.0,60.0,60.0,0.0,0.0
550,51.0,0.0,120.0,2.0,0.0
551,78.0,60.0,60.0,0.0,0.0
552,80.0,60.0,60.0,0.0,0.0
553,52.0,60.0,120.0,2.0,0.0
554,78.0,60.0,60.0,0.0,0.0
555,76.0,0.0,60.0,0.0,0.0
556,75.0,60.0,60.0,0.0,0.0
557,54.0,0.0,120.0,2.0,0.0
558,78.0,60.0,60.0,0.0,0.0
559,56.0,60.0,120.0,2.0,0.0
560,76.0,60.0,60.0,0.0,0.0
561,78.0,0.0,60.0,0.0,0.0
562,76.0,60.0,60.0,0.0,0.0
563,46.0,0.0,240.0,2.0,0.0
564,75.0,60.0,60.0,0.0,0.0
565,73.0,60.0,60.0,0.0,0.0
566,76.0,60.0,60.0,0.0,0.0
567,47.0,60.0,60.0,2.0,0.0
568,75.0,0.0,60.0,0.0,0.0
569,73.0,0.0,60.0,0.0,0.0
570,49.0,60.0,60.0,2.0,0.0
571,71.0,60.0,60.0,0.0,0.0
572,51.0,0.0,300.0,2.0,0.0
573,75.0,60.0,60.0,0.0,0.0
574,66.0,0.0,120.0,1.0,0.0
575,70.0,60.0,60.0,0.0,0.0
576,75.0,60.0,60.0,0.0,0.0
577,68.0,60.0,60.0,0.0,0.0
578,65.0,60.0,120.0,1.0,0.0
579,49.0,0.0,60.0,2.0,0.0
580,75.0,0.0,60.0,0.0,0.0
581,47.0,60.0,60.0,2.0,0.0
582,66.0,0.0,60.0,0.0,0.0
583,46.0,0.0,60.0,2.0,0.0
584,75.0,60.0,60.0,0.0,0.0
585,44.0,60.0,60.0,2.0,0.0
586,65.0,0.0,60.0,0.0,0.0
587,75.0,60.0,60.0,0.0,0.0
588,47.0,0.0,60.0,2.0,0.0
589,46.0,60.0,60.0,2.0,0.0
590,73.0,0.0,60.0,0.0,0.0
591,71.0,0.0,60.0,0.0,0.0
592,47.0,60.0,60.0,2.0,0.0
593,49.0,0.0,300.0,2.0,0.0
594,70.0,60.0,60.0,0.0,0.0
595,73.0,60.0,60.0,0.0,0.0
596,65.0,0.0,120.0,1.0,0.0
597,68.0,60.0,60.0,0.0,0.0
598,73.0,60.0,60.0,0.0,0.0
599,63.0,60.0,120.0,1.0,0.0
600,66.0,60.0,60.0,0.0,0.0
601,73.0,0.0,60.0,0.0,0.0
602,47.0,0.0,60.0,2.0,0.0
603,46.0,60.0,60.0,2.0,0.0
604,65.0,0.0,60.0,0.0,0.0
605,73.0,60.0,60.0,0.0,0.0
606,44.0,0.0,60.0,2.0,0.0
607,42.0,0.0,60.0,2.0,0.0
608,63.0,60.0,60.0,0.0,0.0
609,46.0,0.0,60.0,2.0,0.0
610,73.0,60.0,60.0,0.0,0.0
611,44.0,60.0,60.0,2.0,0.0
612,71.0,0.0,60.0,0.0,0.0
613,46.0,0.0,60.0,2.0,0.0
614,70.0,60.0,60.0,0.0,0.0
615,68.0,60.0,60.0,0.0,0.0
616,47.0,0.0,300.0,2.0,0.0
617,71.0,60.0,60.0,0.0,0.0
618,66.0,60.0,60.0,0.0,0.0
619,63.0,60.0,120.0,1.0,0.0
620,71.0,0.0,60.0,0.0,0.0
621,61.0,60.0,120.0,1.0,0.0
622,65.0,60.0,60.0,0.0,0.0
623,46.0,0.0,60.0,2.0,0.0
624,71.0,0.0,60.0,0.0,0.0
625,44.0,0.0,60.0,2.0,0.0
626,63.0,60.0,60.0,0.0,0.0
627,71.0,0.0,60.0,0.0,0.0
628,42.0,60.0,60.0,2.0,0.0
629,61.0,0.0,60.0,0.0,0.0
630,41.0,60.0,60.0,2.0,0.0
631,44.0,60.0,60.0,2.0,0.0
632,71.0,0.0,60.0,0.0,0.0
633,70.0,0.0,60.0,0.0,0.0
634,42.0,60.0,60.0,2.0,0.0
635,44.0,0.0,60.0,2.0,0.0
636,78.0,60.0,60.0,0.0,0.0
637,46.0,60.0,60.0,2.0,0.0
638,76.0,0.0,60.0,0.0,0.0
639,75.0,60.0,60.0,0.0,0.0
640,42.0,0.0,60.0,2.0,0.0
641,73.0,60.0,60.0,0.0,0.0
642,47.0,0.0,60.0,2.0,0.0
643,42.0,0.0,60.0,2.0,0.0
644,71.0,60.0,60.0,0.0,0.0
645,70.0,0.0,60.0,0.0,0.0
646,49.0,60.0,60.0,2.0,0.0
647,68.0,0.0,60.0,0.0,0.0
648,42.0,60.0,60.0,2.0,0.0
649,66.0,0.0,60.0,0.0,0.0
650,51.0,60.0,60.0,2.0,0.0
651,64.0,60.0,60.0,0.0,0.0
652,42.0,0.0,60.0,2.0,0.0
653,63.0,0.0,60.0,0.0,0.0
654,52.0,60.0,60.0,2.0,0.0
655,61.0,0.0,60.0,0.0,0.0
656,42.0,60.0,60.0,2.0,0.0
657,59.0,0.0,60.0,0.0,0.0
658,51.0,60.0,60.0,2.0,0.0
659,61.0,0.0,60.0,0.0,0.0
660,59.0,60.0,60.0,2.0,0.0
661,63.0,60.0,60.0,0.0,0.0
662,57.0,0.0,60.0,2.0,0.0
663,59.0,0.0,60.0,0.0,0.0
664,56.0,60.0,60.0,2.0,0.0
665,64.0,60.0,60.0,0.0,0.0
666,54.0,0.0,60.0,2.0,0.0
667,52.0,60.0,60.0,2.0,0.0
668,59.0,0.0,60.0,0.0,0.0
669,66.0,60.0,60.0,0.0,0.0
670,51.0,0.0,60.0,2.0,0.0
671,49.0,60.0,60.0,2.0,0.0
672,59.0,0.0,60.0,0.0,0.0
673,68.0,60.0,60.0,0.0,0.0
674,47.0,0.0,60.0,2.0,0.0
675,45.0,0.0,60.0,2.0,0.0
676,59.0,60.0,60.0,0.0,0.0
677,69.0,0.0,60.0,0.0,0.0
678,44.0,60.0,60.0,2.0,0.0
679,42.0,0.0,60.0,2.0,0.0
680,59.0,60.0,60.0,0.0,0.0
681,40.0,0.0,60.0,2.0,0.0
682,68.0,60.0,60.0,0.0,0.0
683,76.0,0.0,60.0,0.0,0.0
684,42.0,60.0,60.0,2.0,0.0
685,75.0,0.0,60.0,0.0,0.0
686,44.0,60.0,60.0,2.0,0.0
687,78.0,60.0,60.0,0.0,0.0
688,46.0,0.0,60.0,2.0,0.0
689,48.0,0.0,60.0,2.0,0.0
690,73.0,60.0,60.0,0.0,0.0
691,49.0,0.0,60.0,2.0,0.0
692,78.0,60.0,60.0,0.0,0.0
693,51.0,0.0,60.0,2.0,0.0
694,72.0,60.0,60.0,0.0,0.0
695,52.0,0.0,60.0,2.0,0.0
696,78.0,60.0,60.0,0.0,0.0
697,54.0,60.0,60.0,2.0,0.0
698,70.0,0.0,60.0,0.0,0.0
699,56.0,0.0,60.0,2.0,0.0
700,78.0,60.0,60.0,0.0,0.0
701,58.0,0.0,60.0,2.0,0.0
702,68.0,60.0,60.0,0.0,0.0
703,78.0,60.0,60.0,0.0,0.0
704,60.0,0.0,60.0,2.0,0.0
705,76.0,0.0,60.0,0.0,0.0
706,61.0,60.0,60.0,2.0,0.0
707,59.0,60.0,60.0,2.0,0.0
708,73.0,0.0,60.0,0.0,0.0
709,75.0,0.0,60.0,0.0,0.0
710,58.0,60.0,60.0,2.0,0.0
711,77.0,60.0,60.0,0.0,0.0
712,61.0,0.0,60.0,2.0,0.0
713,79.0,0.0,60.0,0.0,0.0
714,56.0,60.0,60.0,2.0,0.0
715,80.0,0.0,60.0,0.0,0.0
716,61.0,60.0,60.0,2.0,0.0
717,82.0,60.0,60.0,0.0,0.0
718,55.0,0.0,60.0,2.0,0.0
719,83.0,60.0,60.0,0.0,0.0
720,61.0,0.0,60.0,2.0,0.0
721,53.0,0.0,60.0,2.0,0.0
722,85.0,60.0,60.0,0.0,0.0
723,61.0,60.0,60.0,2.0,0.0
724,87.0,0.0,60.0,0.0,0.0
725,51.0,60.0,60.0,2.0,0.0
726,88.0,0.0,60.0,0.0,0.0
727,79.0,0.0,60.0,0.0,0.0
728,61.0,120.0,60.0,2.0,0.0
729,80.0,60.0,120.0,0.0,0.0
730,59.0,0.0,120.0,2.0,0.0
731,64.0,0.0,120.0,2.0,0.0
732,82.0,60.0,60.0,0.0,0.0
733,80.0,60.0,60.0,0.0,0.0
734,63.0,0.0,120.0,2.0,0.0
735,79.0,60.0,60.0,0.0,0.0
736,80.0,120.0,60.0,0.0,0.0
737,82.0,60.0,120.0,0.0,0.0
738,61.0,0.0,120.0,2.0,0.0
739,63.0,60.0,120.0,2.0,0.0
740,83.0,60.0,60.0,0.0,0.0
741,82.0,0.0,60.0,0.0,0.0
742,51.0,60.0,120.0,2.0,0.0
743,80.0,60.0,60.0,0.0,0.0
744,82.0,0.0,60.0,0.0,0.0
745,56.0,60.0,60.0,2.0,0.0
746,83.0,60.0,120.0,0.0,0.0
747,58.0,0.0,60.0,2.0,0.0
748,59.0,60.0,60.0,2.0,0.0
749,82.0,0.0,120.0,0.0,0.0
750,56.0,60.0,60.0,2.0,0.0
751,61.0,60.0,60.0,2.0,0.0
752,80.0,0.0,120.0,0.0,0.0
753,56.0,60.0,60.0,2.0,0.0
754,75.0,60.0,120.0,0.0,0.0
755,63.0,60.0,60.0,2.0,0.0
756,56.0,0.0,60.0,2.0,0.0
757,65.0,60.0,60.0,2.0,0.0
758,85.0,0.0,240.0,0.0,0.0
759,56.0,60.0,60.0,2.0,0.0
760,67.0,60.0,60.0,2.0,0.0
761,56.0,120.0,60.0,2.0,0.0
762,83.0,60.0,120.0,0.0,0.0
763,68.0,0.0,120.0,2.0,0.0
764,67.0,0.0,60.0,1.0,0.0
765,68.0,60.0,60.0,1.0,0.0
766,82.0,0.0,120.0,0.0,0.0
767,70.0,60.0,60.0,1.0,0.0
768,80.0,0.0,120.0,0.0,0.0
769,71.0,60.0,60.0,1.0,0.0
770,68.0,60.0,60.0,1.0,0.0
771,70.0,60.0,60.0,1.0,0.0
772,79.0,0.0,120.0,0.0,0.0
773,68.0,60.0,60.0,1.0,0.0
774,88.0,120.0,240.0,0.0,0.0
775,70.0,60.0,60.0,1.0,0.0
776,71.0,60.0,60.0,1.0,0.0
777,73.0,60.0,60.0,1.0,0.0
778,70.0,0.0,60.0,1.0,0.0
779,71.0,0.0,120.0,1.0,0.0
780,87.0,60.0,120.0,0.0,0.0
781,73.0,60.0,60.0,1.0,0.0
782,88.0,0.0,60.0,0.0,0.0
783,87.0,0.0,60.0,0.0,0.0
784,71.0,60.0,60.0,1.0,0.0
785,85.0,60.0,60.0,0.0,0.0
786,70.0,0.0,60.0,1.0,0.0
787,83.0,120.0,60.0,0.0,0.0
788,68.0,0.0,60.0,1.0,0.0
789,73.0,60.0,420.0,1.0,0.0
790,82.0,60.0,120.0,0.0,0.0
791,85.0,60.0,60.0,0.0,0.0
792,83.0,60.0,60.0,0.0,0.0
793,82.0,60.0,60.0,0.0,0.0
794,80.0,60.0,60.0,0.0,0.0
795,79.0,0.0,120.0,0.0,0.0
796,71.0,60.0,60.0,1.0,0.0
797,70.0,60.0,60.0,1.0,0.0
798,85.0,0.0,120.0,0.0,0.0
799,73.0,60.0,60.0,1.0,0.0
800,68.0,60.0,60.0,1.0,0.0
801,83.0,60.0,120.0,0.0,0.0
802,73.0,0.0,60.0,1.0,0.0
803,67.0,60.0,60.0,1.0,0.0
804,82.0,0.0,120.0,0.0,0.0
805,73.0,60.0,60.0,1.0,0.0
806,80.0,0.0,120.0,0.0,0.0
807,65.0,60.0,60.0,1.0,0.0
808,73.0,60.0,60.0,1.0,0.0
809,79.0,120.0,120.0,0.0,0.0
810,63.0,60.0,60.0,1.0,0.0
811,73.0,0.0,60.0,1.0,0.0
812,71.0,0.0,120.0,1.0,0.0
813,80.0,60.0,120.0,0.0,0.0
814,70.0,60.0,60.0,1.0,0.0
815,78.0,0.0,120.0,0.0,0.0
816,71.0,60.0,60.0,1.0,0.0
817,76.0,120.0,120.0,0.0,0.0
818,73.0,60.0,60.0,1.0,0.0
819,71.0,0.0,60.0,1.0,0.0
820,70.0,60.0,120.0,1.0,0.0
821,78.0,0.0,120.0,0.0,0.0
822,76.0,60.0,120.0,0.0,0.0
823,68.0,60.0,60.0,1.0,0.0
824,70.0,0.0,60.0,1.0,0.0
825,71.0,60.0,60.0,1.0,0.0
826,75.0,60.0,120.0,0.0,0.0
827,70.0,0.0,60.0,1.0,0.0
828,76.0,60.0,60.0,0.0,0.0
829,68.0,0.0,120.0,1.0,0.0
830,88.0,60.0,60.0,0.0,0.0
831,87.0,60.0,60.0,0.0,0.0
832,70.0,0.0,120.0,1.0,0.0
833,85.0,60.0,60.0,0.0,0.0
834,71.0,60.0,120.0,1.0,0.0
835,83.0,60.0,60.0,0.0,0.0
836,87.0,0.0,60.0,0.0,0.0
837,76.0,0.0,120.0,1.0,0.0
838,85.0,60.0,60.0,0.0,0.0
839,87.0,60.0,60.0,0.0,0.0
840,67.0,60.0,240.0,1.0,0.0
841,85.0,60.0,60.0,0.0,0.0
842,83.0,60.0,60.0,0.0,0.0
843,82.0,60.0,60.0,0.0,0.0
844,85.0,0.0,60.0,0.0,0.0
845,68.0,0.0,120.0,1.0,0.0
846,83.0,60.0,60.0,0.0,0.0
847,85.0,60.0,60.0,0.0,0.0
848,70.0,0.0,120.0,1.0,0.0
849,83.0,60.0,60.0,0.0,0.0
850,82.0,60.0,60.0,0.0,0.0
851,71.0,60.0,120.0,1.0,0.0
852,80.0,60.0,60.0,0.0,0.0
853,83.0,0.0,60.0,0.0,0.0
854,82.0,60.0,60.0,0.0,0.0
855,73.0,0.0,120.0,1.0,0.0
856,83.0,60.0,60.0,0.0,0.0
857,82.0,60.0,60.0,0.0,0.0
858,63.0,60.0,240.0,1.0,0.0
859,80.0,60.0,60.0,0.0,0.0
860,79.0,60.0,60.0,0.0,0.0
861,82.0,0.0,60.0,0.0,0.0
862,64.0,60.0,60.0,1.0,0.0
863,80.0,60.0,120.0,0.0,0.0
864,63.0,0.0,60.0,1.0,0.0
865,61.0,60.0,60.0,1.0,0.0
866,82.0,0.0,60.0,0.0,0.0
867,63.0,0.0,60.0,1.0,0.0
868,83.0,60.0,60.0,0.0,0.0
869,64.0,60.0,60.0,1.0,0.0
870,85.0,0.0,240.0,0.0,0.0
871,66.0,60.0,60.0,1.0,0.0
872,68.0,60.0,60.0,1.0,0.0
873,67.0,60.0,60.0,1.0,0.0
874,68.0,60.0,60.0,1.0,0.0
875,83.0,0.0,60.0,0.0,0.0
876,70.0,0.0,60.0,1.0,0.0
877,85.0,60.0,60.0,0.0,0.0
878,87.0,60.0,240.0,0.0,0.0
879,71.0,60.0,60.0,1.0,0.0
880,73.0,90.0,60.0,1.0,0.0
881,75.0,0.0,480.0,1.0,0.0
882,51.0,30.0,30.0,2.0,0.0
883,53.0,0.0,30.0,2.0,0.0
884,85.0,60.0,120.0,0.0,0.0
885,55.0,60.0,60.0,2.0,0.0
886,51.0,0.0,60.0,2.0,0.0
887,83.0,60.0,120.0,0.0,0.0
888,56.0,60.0,60.0,2.0,0.0
889,51.0,0.0,60.0,2.0,0.0
890,82.0,60.0,60.0,0.0,0.0
891,58.0,0.0,60.0,2.0,0.0
892,51.0,60.0,60.0,2.0,0.0
893,83.0,0.0,60.0,0.0,0.0
894,85.0,0.0,120.0,0.0,0.0
895,76.0,0.0,120.0,1.0,0.0
896,59.0,60.0,60.0,2.0,0.0
897,51.0,60.0,60.0,2.0,0.0
898,61.0,60.0,60.0,2.0,0.0
899,79.0,0.0,120.0,0.0,0.0
900,70.0,60.0,120.0,1.0,0.0
901,51.0,0.0,60.0,2.0,0.0
902,59.0,60.0,60.0,2.0,0.0
903,80.0,60.0,240.0,0.0,0.0
904,68.0,0.0,60.0,1.0,0.0
905,58.0,0.0,60.0,2.0,0.0
906,70.0,60.0,60.0,1.0,0.0
907,71.0,0.0,300.0,1.0,0.0
908,56.0,60.0,60.0,2.0,0.0
909,59.0,0.0,60.0,2.0,0.0
910,54.0,60.0,60.0,2.0,0.0
911,75.0,0.0,120.0,0.0,0.0
912,59.0,60.0,60.0,2.0,0.0
913,53.0,60.0,60.0,2.0,0.0
914,73.0,10.0,600.0,0.0,0.0
915,70.0,60.0,60.0,1.0,0.0
916,59.0,0.0,60.0,2.0,0.0
917,68.0,60.0,60.0,1.0,0.0
918,51.0,0.0,60.0,2.0,0.0
919,59.0,0.0,60.0,2.0,0.0
920,66.0,60.0,60.0,1.0,0.0
921,65.0,60.0,60.0,1.0,0.0
922,49.0,0.0,60.0,2.0,0.0
923,59.0,0.0,60.0,2.0,0.0
924,68.0,60.0,60.0,1.0,0.0
925,66.0,60.0,60.0,1.0,0.0
926,58.0,0.0,60.0,2.0,0.0
927,56.0,60.0,60.0,2.0,0.0
928,68.0,0.0,60.0,1.0,0.0
929,70.0,0.0,300.0,1.0,0.0
930,54.0,50.0,60.0,2.0,0.0
931,58.0,60.0,60.0,2.0,0.0
932,53.0,60.0,60.0,2.0,0.0
933,73.0,0.0,120.0,0.0,0.0
934,58.0,60.0,60.0,2.0,0.0
935,51.0,60.0,60.0,2.0,0.0
936,71.0,10.0,600.0,0.0,0.0
937,68.0,0.0,60.0,1.0,0.0
938,58.0,60.0,60.0,2.0,0.0
939,66.0,60.0,60.0,1.0,0.0
940,49.0,0.0,60.0,2.0,0.0
941,65.0,0.0,60.0,1.0,0.0
942,58.0,60.0,60.0,2.0,0.0
943,47.0,0.0,60.0,2.0,0.0
944,63.0,60.0,60.0,1.0,0.0
945,58.0,0.0,60.0,2.0,0.0
946,66.0,60.0,60.0,1.0,0.0
947,56.0,60.0,60.0,2.0,0.0
948,65.0,0.0,60.0,1.0,0.0
949,66.0,0.0,60.0,1.0,0.0
950,54.0,60.0,60.0,2.0,0.0
951,68.0,0.0,300.0,1.0,0.0
952,53.0,50.0,60.0,2.0,0.0
953,56.0,60.0,60.0,2.0,0.0
954,51.0,60.0,60.0,2.0,0.0
955,71.0,0.0,120.0,0.0,0.0
956,56.0,60.0,60.0,2.0,0.0
957,50.0,60.0,60.0,2.0,0.0
958,70.0,60.0,420.0,0.0,0.0
959,56.0,60.0,60.0,2.0,0.0
960,66.0,0.0,60.0,1.0,0.0
961,65.0,60.0,60.0,1.0,0.0
962,48.0,0.0,60.0,2.0,0.0
963,63.0,0.0,60.0,1.0,0.0
964,56.0,60.0,60.0,2.0,0.0
965,46.0,60.0,60.0,2.0,0.0
966,62.0,0.0,60.0,1.0,0.0
967,56.0,60.0,60.0,2.0,0.0
968,65.0,0.0,60.0,1.0,0.0
969,54.0,0.0,60.0,2.0,0.0
970,63.0,60.0,120.0,1.0,0.0
971,75.0,0.0,60.0,0.0,0.0
972,58.0,0.0,60.0,2.0,0.0
973,56.0,0.0,60.0,2.0,0.0
974,77.0,60.0,60.0,0.0,0.0
975,54.0,0.0,60.0,2.0,0.0
976,75.0,60.0,60.0,0.0,0.0
977,53.0,60.0,60.0,2.0,0.0
978,74.0,0.0,60.0,0.0,0.0
979,75.0,0.0,60.0,0.0,0.0
980,51.0,60.0,60.0,2.0,0.0
981,50.0,60.0,60.0,2.0,0.0
982,77.0,0.0,120.0,0.0,0.0
983,53.0,60.0,60.0,2.0,0.0
984,78.0,60.0,60.0,0.0,0.0
985,51.0,0.0,60.0,2.0,0.0
986,77.0,0.0,60.0,0.0,0.0
987,50.0,60.0,60.0,2.0,0.0
988,48.0,0.0,60.0,2.0,0.0
989,75.0,60.0,60.0,0.0,0.0
990,46.0,0.0,60.0,2.0,0.0
991,77.0,120.0,60.0,0.0,0.0
992,78.0,60.0,120.0,0.0,0.0
993,51.0,0.0,120.0,2.0,0.0
994,53.0,60.0,60.0,2.0,0.0
995,77.0,0.0,120.0,0.0,0.0
996,51.0,60.0,60.0,2.0,0.0
997,75.0,0.0,120.0,0.0,0.0
998,50.0,60.0,60.0,2.0,0.0
999,51.0,120.0,60.0,2.0,0.0
1000,74.0,0.0,120.0,0.0,0.0
1001,53.0,60.0,120.0,2.0,0.0
1002,83.0,120.0,240.0,0.0,0.0
1003,54.0,60.0,60.0,2.0,0.0
1004,53.0,60.0,60.0,2.0,0.0
1005,51.0,60.0,60.0,2.0,0.0
1006,53.0,0.0,60.0,2.0,0.0
1007,54.0,0.0,120.0,2.0,0.0
1008,82.0,60.0,120.0,0.0,0.0
1009,53.0,0.0,120.0,2.0,0.0
1010,83.0,60.0,60.0,0.0,0.0
1011,82.0,60.0,60.0,0.0,0.0
1012,51.0,0.0,120.0,2.0,0.0
1013,80.0,60.0,60.0,0.0,0.0
1014,78.0,120.0,60.0,0.0,0.0
1015,77.0,0.0,120.0,0.0,0.0
1016,50.0,60.0,120.0,2.0,0.0
1017,80.0,60.0,60.0,0.0,0.0
1018,59.0,60.0,240.0,2.0,0.0
1019,78.0,60.0,60.0,0.0,0.0
1020,77.0,60.0,60.0,0.0,0.0
1021,75.0,0.0,60.0,0.0,0.0
1022,74.0,60.0,60.0,0.0,0.0
1023,58.0,0.0,60.0,2.0,0.0
1024,60.0,0.0,60.0,2.0,0.0
1025,75.0,60.0,60.0,0.0,0.0
1026,77.0,0.0,60.0,0.0,0.0
1027,62.0,60.0,60.0,2.0,0.0
1028,74.0,60.0,60.0,0.0,0.0
1029,58.0,0.0,60.0,2.0,0.0
1030,78.0,0.0,60.0,0.0,0.0
1031,63.0,60.0,60.0,2.0,0.0
1032,74.0,0.0,60.0,0.0,0.0
1033,58.0,60.0,60.0,2.0,0.0
1034,65.0,60.0,60.0,2.0,0.0
1035,80.0,0.0,60.0,0.0,0.0
1036,58.0,60.0,60.0,2.0,0.0
1037,74.0,0.0,60.0,0.0,0.0
1038,66.0,0.0,60.0,2.0,0.0
1039,82.0,60.0,60.0,0.0,0.0
1040,58.0,60.0,60.0,2.0,0.0
1041,74.0,0.0,60.0,0.0,0.0
1042,68.0,0.0,60.0,2.0,0.0
1043,83.0,60.0,60.0,0.0,0.0
1044,74.0,60.0,60.0,0.0,0.0
1045,58.0,0.0,60.0,2.0,0.0
1046,66.0,60.0,60.0,2.0,0.0
1047,82.0,0.0,60.0,0.0,0.0
1048,58.0,0.0,60.0,2.0,0.0
1049,74.0,60.0,60.0,0.0,0.0
1050,59.0,0.0,60.0,2.0,0.0
1051,75.0,60.0,60.0,0.0,0.0
1052,82.0,0.0,60.0,0.0,0.0
1053,66.0,30.0,60.0,2.0,0.0
1054,80.0,30.0,30.0,0.0,0.0
1055,65.0,0.0,30.0,2.0,0.0
1056,78.0,0.0,30.0,0.0,0.0
1057,63.0,30.0,30.0,2.0,0.0
1058,77.0,0.0,30.0,0.0,0.0
1059,62.0,30.0,30.0,2.0,0.0
1060,78.0,60.0,30.0,0.0,0.0
1061,63.0,0.0,30.0,2.0,0.0
1062,65.0,0.0,60.0,2.0,0.0
1063,80.0,60.0,60.0,0.0,0.0
1064,56.0,0.0,60.0,2.0,0.0
1065,72.0,60.0,60.0,0.0,0.0
1066,58.0,0.0,60.0,2.0,0.0
1067,73.0,60.0,60.0,0.0,0.0
1068,65.0,30.0,60.0,2.0,0.0
1069,80.0,0.0,60.0,0.0,0.0
1070,63.0,30.0,30.0,2.0,0.0
1071,78.0,0.0,30.0,0.0,0.0
1072,77.0,0.0,30.0,0.0,0.0
1073,61.0,30.0,30.0,2.0,0.0
1074,75.0,0.0,30.0,0.0,0.0
1075,60.0,30.0,30.0,2.0,0.0
1076,77.0,0.0,30.0,0.0,0.0
1077,61.0,120.0,30.0,2.0,0.0
1078,78.0,30.0,1500.0,0.0,0.0
1079,63.0,60.0,120.0,2.0,0.0
1080,65.0,0.0,60.0,1.0,0.0
1081,66.0,60.0,60.0,1.0,0.0
1082,63.0,60.0,60.0,1.0,0.0
1083,68.0,60.0,60.0,1.0,0.0
1084,63.0,60.0,60.0,1.0,0.0
1085,70.0,60.0,60.0,1.0,0.0
1086,63.0,60.0,60.0,1.0,0.0
1087,72.0,60.0,60.0,1.0,0.0
1088,63.0,60.0,60.0,1.0,0.0
1089,51.0,60.0,120.0,2.0,0.0
1090,73.0,60.0,60.0,1.0,0.0
1091,63.0,0.0,60.0,1.0,0.0
1092,72.0,0.0,120.0,1.0,0.0
1093,56.0,60.0,60.0,2.0,0.0
1094,58.0,60.0,60.0,2.0,0.0
1095,68.0,60.0,120.0,1.0,0.0
1096,60.0,60.0,60.0,2.0,0.0
1097,56.0,0.0,60.0,2.0,0.0
1098,61.0,60.0,60.0,2.0,0.0
1099,70.0,60.0,120.0,1.0,0.0
1100,56.0,0.0,60.0,2.0,0.0
1101,63.0,60.0,60.0,2.0,0.0
1102,72.0,60.0,120.0,1.0,0.0
1103,56.0,0.0,60.0,2.0,0.0
1104,65.0,60.0,60.0,2.0,0.0
1105,73.0,60.0,120.0,1.0,0.0
1106,56.0,0.0,60.0,2.0,0.0
1107,66.0,60.0,60.0,2.0,0.0
1108,75.0,60.0,120.0,1.0,0.0
1109,56.0,0.0,60.0,2.0,0.0
1110,68.0,60.0,180.0,1.0,0.0
1111,65.0,60.0,120.0,2.0,0.0
1112,70.0,30.0,30.0,0.0,0.0
1113,72.0,0.0,30.0,0.0,0.0
1114,73.0,0.0,60.0,0.0,0.0
1115,66.0,0.0,60.0,1.0,0.0
1116,68.0,60.0,60.0,0.0,0.0
1117,65.0,60.0,60.0,1.0,0.0
1118,75.0,0.0,60.0,0.0,0.0
1119,63.0,60.0,60.0,1.0,0.0
1120,68.0,0.0,60.0,0.0,0.0
1121,77.0,0.0,60.0,0.0,0.0
1122,61.0,60.0,60.0,1.0,0.0
1123,68.0,0.0,60.0,0.0,0.0
1124,63.0,60.0,60.0,1.0,0.0
1125,78.0,0.0,60.0,0.0,0.0
1126,61.0,60.0,60.0,1.0,0.0
1127,70.0,0.0,60.0,0.0,0.0
1128,59.0,60.0,60.0,1.0,0.0
1129,53.0,0.0,120.0,2.0,0.0
1130,80.0,0.0,60.0,0.0,0.0
1131,58.0,60.0,60.0,1.0,0.0
1132,71.0,60.0,60.0,0.0,0.0
1133,56.0,0.0,60.0,1.0,0.0
1134,54.0,60.0,180.0,2.0,0.0
1135,70.0,30.0,60.0,0.0,0.0
1136,71.0,30.0,30.0,0.0,0.0
1137,73.0,60.0,30.0,0.0,0.0
1138,75.0,0.0,60.0,0.0,0.0
1139,70.0,60.0,60.0,0.0,0.0
1140,56.0,0.0,60.0,2.0,0.0
1141,77.0,60.0,60.0,0.0,0.0
1142,54.0,0.0,60.0,2.0,0.0
1143,53.0,60.0,60.0,2.0,0.0
1144,70.0,0.0,60.0,0.0,0.0
1145,78.0,0.0,60.0,0.0,0.0
1146,51.0,60.0,60.0,2.0,0.0
1147,70.0,0.0,60.0,0.0,0.0
1148,53.0,60.0,60.0,2.0,0.0
1149,80.0,60.0,60.0,0.0,0.0
1150,51.0,0.0,60.0,2.0,0.0
1151,49.0,60.0,60.0,2.0,0.0
1152,71.0,0.0,60.0,0.0,0.0
1153,47.0,60.0,60.0,2.0,0.0
1154,82.0,0.0,60.0,0.0,0.0
1155,46.0,0.0,60.0,2.0,0.0
1156,73.0,60.0,60.0,0.0,0.0
1157,44.0,60.0,120.0,2.0,0.0
1158,71.0,60.0,60.0,0.0,0.0
1159,70.0,0.0,60.0,0.0,0.0
1160,54.0,60.0,120.0,2.0,0.0
1161,71.0,60.0,60.0,0.0,0.0
1162,75.0,0.0,60.0,0.0,0.0
1163,53.0,60.0,120.0,2.0,0.0
1164,80.0,60.0,60.0,0.0,0.0
1165,71.0,0.0,60.0,0.0,0.0
1166,70.0,60.0,60.0,0.0,0.0
1167,54.0,0.0,120.0,2.0,0.0
1168,75.0,60.0,60.0,0.0,0.0
1169,56.0,0.0,60.0,1.0,0.0
1170,73.0,60.0,60.0,0.0,0.0
1171,54.0,60.0,60.0,1.0,0.0
1172,77.0,0.0,60.0,0.0,0.0
1173,51.0,0.0,120.0,2.0,0.0
1174,78.0,0.0,240.0,0.0,0.0
1175,53.0,60.0,60.0,1.0,0.0
1176,54.0,120.0,60.0,1.0,0.0
1177,47.0,60.0,120.0,2.0,0.0
1178,56.0,0.0,120.0,1.0,0.0
1179,49.0,0.0,240.0,2.0,0.0
1180,58.0,60.0,60.0,1.0,0.0
1181,77.0,0.0,240.0,0.0,0.0
1182,56.0,60.0,60.0,1.0,0.0
1183,54.0,60.0,60.0,1.0,0.0
1184,56.0,120.0,60.0,1.0,0.0
1185,54.0,60.0,120.0,2.0,0.0
1186,78.0,0.0,120.0,0.0,0.0
1187,58.0,0.0,120.0,1.0,0.0
1188,80.0,60.0,60.0,0.0,0.0
1189,56.0,0.0,120.0,1.0,0.0
1190,53.0,60.0,120.0,2.0,0.0
1191,78.0,0.0,60.0,0.0,0.0
1192,51.0,120.0,120.0,2.0,0.0
1193,54.0,0.0,120.0,1.0,0.0
1194,77.0,60.0,60.0,0.0,0.0
1195,78.0,0.0,60.0,0.0,0.0
1196,53.0,60.0,120.0,1.0,0.0
1197,49.0,16.0,2040.0,2.0,0.0
1198,80.0,0.0,120.0,0.0,0.0
1199,63.0,0.0,240.0,1.0,0.0
1200,82.0,60.0,60.0,0.0,0.0
1201,80.0,60.0,60.0,0.0,0.0
1202,78.0,60.0,60.0,0.0,0.0
1203,80.0,120.0,60.0,0.0,0.0
1204,82.0,60.0,120.0,0.0,0.0
1205,61.0,0.0,120.0,1.0,0.0
1206,63.0,60.0,60.0,1.0,0.0
1207,83.0,0.0,60.0,0.0,0.0
1208,82.0,0.0,60.0,0.0,0.0
1209,61.0,60.0,60.0,1.0,0.0
1210,59.0,0.0,60.0,1.0,0.0
1211,80.0,60.0,60.0,0.0,0.0
1212,78.0,120.0,60.0,0.0,0.0
1213,58.0,0.0,60.0,1.0,0.0
1214,56.0,0.0,120.0,1.0,0.0
1215,77.0,60.0,120.0,0.0,0.0
1216,87.0,60.0,300.0,0.0,0.0
1217,59.0,60.0,60.0,1.0,0.0
1218,58.0,60.0,60.0,1.0,0.0
1219,56.0,60.0,60.0,1.0,0.0
1220,54.0,60.0,60.0,1.0,0.0
1221,53.0,0.0,240.0,1.0,0.0
1222,85.0,60.0,60.0,0.0,0.0
1223,87.0,60.0,60.0,0.0,0.0
1224,85.0,60.0,60.0,0.0,0.0
1225,54.0,6.0,180.0,1.0,0.0
1226,83.0,60.0,60.0,0.0,0.0
1227,82.0,22.0,15.0,0.0,0.0
1228,80.0,16.0,20.0,0.0,0.0
1229,82.0,22.0,20.0,0.0,0.0
1230,59.0,20.0,30.0,1.0,0.0
1231,80.0,2.0,20.0,0.0,0.0
1232,82.0,10.0,20.0,0.0,0.0
1233,58.0,12.0,30.0,1.0,0.0
1234,80.0,22.0,20.0,0.0,0.0
1235,56.0,18.0,60.0,1.0,0.0
1236,82.0,22.0,20.0,0.0,0.0
1237,80.0,4.0,20.0,0.0,0.0
1238,82.0,22.0,20.0,0.0,0.0
1239,59.0,2.0,60.0,1.0,0.0
1240,80.0,20.0,20.0,0.0,0.0
1241,82.0,22.0,20.0,0.0,0.0
1242,54.0,8.0,60.0,1.0,0.0
1243,80.0,22.0,20.0,0.0,0.0
1244,82.0,14.0,20.0,0.0,0.0
1245,80.0,22.0,20.0,0.0,0.0
1246,59.0,14.0,60.0,1.0,0.0
1247,82.0,22.0,20.0,0.0,0.0
1248,80.0,8.0,20.0,0.0,0.0
1249,82.0,22.0,20.0,0.0,0.0
1250,53.0,20.0,60.0,1.0,0.0
1251,80.0,22.0,20.0,0.0,0.0
1252,82.0,2.0,20.0,0.0,0.0
1253,80.0,22.0,20.0,0.0,0.0
1254,59.0,4.0,60.0,1.0,0.0
1255,82.0,18.0,20.0,0.0,0.0
1256,80.0,22.0,20.0,0.0,0.0
1257,51.0,10.0,60.0,1.0,0.0
1258,82.0,22.0,20.0,0.0,0.0
1259,80.0,12.0,20.0,0.0,0.0
1260,82.0,22.0,20.0,0.0,0.0
1261,59.0,0.0,60.0,1.0,0.0
1262,80.0,22.0,20.0,0.0,0.0
1263,82.0,6.0,20.0,0.0,0.0
1264,80.0,22.0,20.0,0.0,0.0
1265,49.0,22.0,60.0,1.0,0.0
1266,82.0,22.0,20.0,0.0,0.0
1267,80.0,0.0,20.0,0.0,0.0
1268,59.0,6.0,60.0,1.0,0.0
1269,82.0,22.0,20.0,0.0,0.0
1270,80.0,16.0,20.0,0.0,0.0
1271,82.0,54.0,20.0,0.0,0.0
1272,58.0,6.0,60.0,1.0,0.0
1273,80.0,24.0,60.0,0.0,0.0
1274,59.0,60.0,60.0,1.0,0.0
1275,85.0,30.0,30.0,0.0,0.0
1276,83.0,0.0,30.0,0.0,0.0
1277,82.0,60.0,60.0,0.0,0.0
1278,61.0,60.0,300.0,1.0,0.0
1279,56.0,0.0,60.0,2.0,0.0
1280,85.0,60.0,60.0,0.0,0.0
1281,80.0,0.0,60.0,0.0,0.0
1282,54.0,60.0,60.0,2.0,0.0
1283,85.0,60.0,60.0,0.0,0.0
1284,53.0,0.0,60.0,2.0,0.0
1285,51.0,60.0,240.0,2.0,0.0
1286,78.0,0.0,60.0,0.0,0.0
1287,85.0,0.0,60.0,0.0,0.0
1288,59.0,60.0,60.0,1.0,0.0
1289,77.0,60.0,60.0,0.0,0.0
1290,58.0,0.0,60.0,1.0,0.0
1291,56.0,0.0,60.0,1.0,0.0
1292,85.0,0.0,60.0,0.0,0.0
1293,54.0,0.0,60.0,1.0,0.0
1294,75.0,60.0,60.0,0.0,0.0
1295,58.0,0.0,60.0,1.0,0.0
1296,85.0,60.0,60.0,0.0,0.0
1297,56.0,0.0,60.0,1.0,0.0
1298,83.0,60.0,60.0,0.0,0.0
1299,58.0,60.0,60.0,1.0,0.0
1300,82.0,0.0,60.0,0.0,0.0
1301,59.0,60.0,300.0,1.0,0.0
1302,80.0,60.0,60.0,0.0,0.0
1303,83.0,60.0,60.0,0.0,0.0
1304,54.0,0.0,60.0,2.0,0.0
1305,78.0,60.0,60.0,0.0,0.0
1306,53.0,0.0,60.0,2.0,0.0
1307,51.0,60.0,60.0,2.0,0.0
1308,83.0,0.0,60.0,0.0,0.0
1309,49.0,0.0,240.0,2.0,0.0
1310,77.0,0.0,60.0,0.0,0.0
1311,83.0,0.0,60.0,0.0,0.0
1312,58.0,60.0,60.0,1.0,0.0
1313,56.0,0.0,60.0,1.0,0.0
1314,75.0,60.0,60.0,0.0,0.0
1315,54.0,0.0,60.0,1.0,0.0
1316,83.0,60.0,60.0,0.0,0.0
1317,53.0,60.0,60.0,1.0,0.0
1318,73.0,0.0,60.0,0.0,0.0
1319,83.0,0.0,60.0,0.0,0.0
1320,56.0,60.0,60.0,1.0,0.0
1321,82.0,0.0,60.0,0.0,0.0
1322,54.0,60.0,60.0,1.0,0.0
1323,56.0,60.0,60.0,1.0,0.0
1324,80.0,0.0,60.0,0.0,0.0
1325,58.0,60.0,300.0,1.0,0.0
1326,78.0,60.0,60.0,0.0,0.0
1327,52.0,0.0,60.0,2.0,0.0
1328,82.0,60.0,60.0,0.0,0.0
1329,51.0,60.0,60.0,2.0,0.0
1330,76.0,0.0,60.0,0.0,0.0
1331,82.0,0.0,60.0,0.0,0.0
1332,49.0,60.0,60.0,2.0,0.0
1333,75.0,0.0,60.0,0.0,0.0
1334,47.0,0.0,120.0,2.0,0.0
1335,51.0,0.0,60.0,1.0,0.0
1336,82.0,60.0,60.0,0.0,0.0
1337,53.0,60.0,60.0,1.0,0.0
1338,73.0,0.0,60.0,0.0,0.0
1339,54.0,60.0,60.0,1.0,0.0
1340,82.0,0.0,60.0,0.0,0.0
1341,71.0,0.0,60.0,0.0,0.0
1342,56.0,60.0,60.0,1.0,0.0
1343,82.0,60.0,60.0,0.0,0.0
1344,58.0,0.0,60.0,1.0,0.0
1345,80.0,0.0,60.0,0.0,0.0
1346,59.0,60.0,60.0,1.0,0.0
1347,78.0,0.0,60.0,0.0,0.0
1348,61.0,60.0,60.0,1.0,0.0
1349,77.0,0.0,60.0,0.0,0.0
1350,59.0,60.0,60.0,1.0,0.0
1351,80.0,60.0,60.0,0.0,0.0
1352,58.0,0.0,60.0,1.0,0.0
1353,75.0,0.0,60.0,0.0,0.0
1354,56.0,60.0,60.0,1.0,0.0
1355,80.0,0.0,60.0,0.0,0.0
1356,54.0,60.0,60.0,1.0,0.0
1357,73.0,60.0,60.0,0.0,0.0
1358,53.0,0.0,120.0,1.0,0.0
1359,49.0,0.0,60.0,2.0,0.0
1360,80.0,60.0,60.0,0.0,0.0
1361,51.0,0.0,60.0,2.0,0.0
1362,71.0,60.0,60.0,0.0,0.0
1363,80.0,60.0,60.0,0.0,0.0
1364,53.0,0.0,60.0,2.0,0.0
1365,54.0,0.0,60.0,2.0,0.0
1366,70.0,60.0,60.0,0.0,0.0
1367,80.0,0.0,60.0,0.0,0.0
1368,56.0,60.0,60.0,2.0,0.0
1369,78.0,60.0,60.0,0.0,0.0
1370,58.0,0.0,60.0,2.0,0.0
1371,70.0,0.0,60.0,0.0,0.0
1372,59.0,60.0,60.0,2.0,0.0
1373,61.0,0.0,120.0,2.0,0.0
1374,68.0,60.0,60.0,0.0,0.0
1375,71.0,60.0,60.0,0.0,0.0
1376,49.0,22.0,120.0,2.0,0.0
1377,78.0,60.0,60.0,0.0,0.0
1378,77.0,0.0,60.0,0.0,0.0
1379,54.0,12.0,120.0,2.0,0.0
1380,80.0,22.0,20.0,0.0,0.0
1381,78.0,22.0,20.0,0.0,0.0
1382,80.0,22.0,20.0,0.0,0.0
1383,78.0,22.0,20.0,0.0,0.0
1384,80.0,10.0,20.0,0.0,0.0
1385,78.0,22.0,20.0,0.0,0.0
1386,52.0,18.0,60.0,2.0,0.0
1387,80.0,22.0,20.0,0.0,0.0
1388,78.0,4.0,20.0,0.0,0.0
1389,80.0,22.0,20.0,0.0,0.0
1390,54.0,2.0,60.0,2.0,0.0
1391,78.0,20.0,20.0,0.0,0.0
1392,80.0,22.0,20.0,0.0,0.0
1393,56.0,8.0,60.0,2.0,0.0
1394,78.0,22.0,20.0,0.0,0.0
1395,80.0,14.0,20.0,0.0,0.0
1396,78.0,22.0,20.0,0.0,0.0
1397,54.0,14.0,60.0,2.0,0.0
1398,80.0,22.0,20.0,0.0,0.0
1399,78.0,8.0,20.0,0.0,0.0
1400,80.0,22.0,20.0,0.0,0.0
1401,52.0,4.0,120.0,2.0,0.0
1402,78.0,22.0,20.0,0.0,0.0
1403,80.0,22.0,20.0,0.0,0.0
1404,78.0,22.0,20.0,0.0,0.0
1405,80.0,18.0,20.0,0.0,0.0
1406,78.0,22.0,20.0,0.0,0.0
1407,51.0,10.0,60.0,2.0,0.0
1408,80.0,22.0,20.0,0.0,0.0
1409,78.0,12.0,20.0,0.0,0.0
1410,80.0,22.0,20.0,0.0,0.0
1411,52.0,16.0,60.0,2.0,0.0
1412,78.0,22.0,20.0,0.0,0.0
1413,80.0,6.0,20.0,0.0,0.0
1414,78.0,22.0,20.0,0.0,0.0
1415,54.0,22.0,60.0,2.0,0.0
1416,80.0,22.0,20.0,0.0,0.0
1417,78.0,0.0,20.0,0.0,0.0
1418,80.0,22.0,20.0,0.0,0.0
1419,52.0,6.0,60.0,2.0,0.0
1420,78.0,16.0,20.0,0.0,0.0
1421,80.0,22.0,20.0,0.0,0.0
1422,51.0,0.0,120.0,2.0,0.0
1423,78.0,22.0,20.0,0.0,0.0
1424,80.0,22.0,20.0,0.0,0.0
1425,78.0,22.0,20.0,0.0,0.0
1426,71.0,18.0,60.0,1.0,0.0
1427,80.0,22.0,20.0,0.0,0.0
1428,78.0,4.0,20.0,0.0,0.0
1429,80.0,22.0,20.0,0.0,0.0
1430,69.0,2.0,60.0,1.0,0.0
1431,52.0,0.0,120.0,2.0,0.0
1432,78.0,20.0,20.0,0.0,0.0
1433,80.0,22.0,20.0,0.0,0.0
1434,68.0,8.0,60.0,1.0,0.0
1435,78.0,22.0,20.0,0.0,0.0
1436,80.0,14.0,20.0,0.0,0.0
1437,78.0,22.0,20.0,0.0,0.0
1438,66.0,14.0,60.0,1.0,0.0
1439,54.0,0.0,120.0,2.0,0.0
1440,80.0,22.0,20.0,0.0,0.0
1441,78.0,8.0,20.0,0.0,0.0
1442,80.0,22.0,20.0,0.0,0.0
1443,69.0,20.0,60.0,1.0,0.0
1444,78.0,22.0,20.0,0.0,0.0
1445,80.0,2.0,20.0,0.0,0.0
1446,78.0,22.0,20.0,0.0,0.0
1447,68.0,42.0,60.0,1.0,0.0
1448,59.0,60.0,120.0,2.0,0.0
1449,80.0,18.0,20.0,0.0,0.0
1450,78.0,18.0,60.0,0.0,0.0
1451,69.0,0.0,60.0,1.0,0.0
1452,68.0,60.0,60.0,1.0,0.0
1453,49.0,60.0,240.0,2.0,0.0
1454,76.0,0.0,360.0,0.0,0.0
1455,66.0,60.0,60.0,1.0,0.0
1456,64.0,60.0,60.0,1.0,0.0
1457,68.0,0.0,60.0,1.0,0.0
1458,66.0,60.0,60.0,1.0,0.0
1459,51.0,0.0,120.0,2.0,0.0
1460,68.0,60.0,60.0,1.0,0.0
1461,75.0,0.0,360.0,0.0,0.0
1462,52.0,60.0,120.0,2.0,0.0
1463,66.0,60.0,60.0,1.0,0.0
1464,64.0,0.0,60.0,1.0,0.0
1465,54.0,60.0,120.0,2.0,0.0
1466,63.0,60.0,60.0,1.0,0.0
1467,66.0,0.0,60.0,1.0,0.0
1468,64.0,60.0,60.0,1.0,0.0
1469,56.0,0.0,120.0,2.0,0.0
1470,66.0,60.0,60.0,1.0,0.0
1471,46.0,120.0,240.0,2.0,0.0
1472,73.0,0.0,240.0,0.0,0.0
1473,64.0,60.0,60.0,1.0,0.0
1474,63.0,60.0,60.0,1.0,0.0
1475,61.0,60.0,60.0,1.0,0.0
1476,64.0,0.0,60.0,1.0,0.0
1477,63.0,0.0,360.0,1.0,0.0
1478,47.0,60.0,120.0,2.0,0.0
1479,71.0,0.0,60.0,0.0,0.0
1480,73.0,0.0,60.0,0.0,0.0
1481,46.0,60.0,60.0,2.0,0.0
1482,71.0,0.0,60.0,0.0,0.0
1483,47.0,60.0,60.0,2.0,0.0
1484,70.0,60.0,60.0,0.0,0.0
1485,49.0,0.0,60.0,2.0,0.0
1486,51.0,0.0,60.0,2.0,0.0
1487,71.0,60.0,60.0,0.0,0.0
1488,40.0,0.0,120.0,2.0,0.0
1489,70.0,30.0,60.0,0.0,0.0
1490,61.0,0.0,120.0,1.0,0.0
1491,66.0,30.0,30.0,0.0,0.0
1492,68.0,60.0,30.0,0.0,0.0
1493,70.0,60.0,60.0,0.0,0.0
1494,64.0,0.0,60.0,2.0,0.0
1495,66.0,60.0,60.0,0.0,0.0
1496,63.0,0.0,60.0,2.0,0.0
1497,71.0,0.0,60.0,0.0,0.0
1498,61.0,60.0,60.0,2.0,0.0
1499,59.0,0.0,60.0,2.0,0.0
1500,66.0,60.0,60.0,0.0,0.0
1501,58.0,0.0,60.0,2.0,0.0
1502,73.0,60.0,60.0,0.0,0.0
1503,56.0,0.0,60.0,2.0,0.0
1504,66.0,60.0,60.0,0.0,0.0
1505,54.0,0.0,60.0,2.0,0.0
1506,75.0,60.0,60.0,0.0,0.0
1507,52.0,60.0,60.0,2.0,0.0
1508,66.0,0.0,60.0,0.0,0.0
1509,51.0,60.0,60.0,2.0,0.0
1510,76.0,0.0,60.0,0.0,0.0
1511,66.0,60.0,60.0,0.0,0.0
1512,49.0,0.0,60.0,2.0,0.0
1513,75.0,0.0,60.0,0.0,0.0
1514,47.0,60.0,60.0,2.0,0.0
1515,83.0,0.0,60.0,0.0,0.0
1516,49.0,60.0,60.0,2.0,0.0
1517,51.0,0.0,60.0,2.0,0.0
1518,81.0,60.0,60.0,0.0,0.0
1519,80.0,0.0,60.0,0.0,0.0
1520,47.0,60.0,60.0,2.0,0.0
1521,78.0,60.0,60.0,0.0,0.0
1522,52.0,0.0,60.0,2.0,0.0
1523,47.0,0.0,60.0,2.0,0.0
1524,76.0,60.0,60.0,0.0,0.0
1525,54.0,0.0,60.0,2.0,0.0
1526,75.0,60.0,60.0,0.0,0.0
1527,47.0,0.0,60.0,2.0,0.0
1528,73.0,60.0,60.0,0.0,0.0
1529,71.0,0.0,60.0,0.0,0.0
1530,56.0,60.0,60.0,2.0,0.0
1531,47.0,60.0,60.0,2.0,0.0
1532,69.0,0.0,60.0,0.0,0.0
1533,57.0,0.0,60.0,2.0,0.0
1534,68.0,60.0,60.0,0.0,0.0
1535,47.0,0.0,60.0,2.0,0.0
1536,66.0,60.0,60.0,0.0,0.0
1537,56.0,0.0,60.0,2.0,0.0
1538,64.0,30.0,60.0,0.0,0.0
1539,44.0,30.0,30.0,2.0,0.0
1540,80.0,60.0,60.0,0.0,0.0
1541,46.0,0.0,30.0,2.0,0.0
1542,48.0,0.0,60.0,2.0,0.0
1543,78.0,60.0,60.0,0.0,0.0
1544,44.0,60.0,60.0,2.0,0.0
1545,76.0,0.0,60.0,0.0,0.0
1546,75.0,60.0,60.0,0.0,0.0
1547,49.0,0.0,60.0,2.0,0.0
1548,44.0,60.0,60.0,2.0,0.0
1549,73.0,0.0,60.0,0.0,0.0
1550,51.0,0.0,60.0,2.0,0.0
1551,72.0,60.0,60.0,0.0,0.0
1552,44.0,0.0,60.0,2.0,0.0
1553,70.0,60.0,60.0,0.0,0.0
1554,52.0,0.0,60.0,2.0,0.0
1555,68.0,60.0,60.0,0.0,0.0
1556,66.0,0.0,60.0,0.0,0.0
1557,44.0,60.0,60.0,2.0,0.0
1558,64.0,60.0,60.0,0.0,0.0
1559,54.0,0.0,60.0,2.0,0.0
1560,44.0,60.0,60.0,2.0,0.0
1561,63.0,0.0,60.0,0.0,0.0
1562,53.0,0.0,60.0,2.0,0.0
1563,61.0,60.0,60.0,0.0,0.0
1564,63.0,0.0,60.0,0.0,0.0
1565,61.0,60.0,60.0,2.0,0.0
1566,65.0,0.0,60.0,0.0,0.0
1567,59.0,60.0,60.0,2.0,0.0
1568,58.0,60.0,60.0,2.0,0.0
1569,61.0,0.0,60.0,0.0,0.0
1570,66.0,0.0,60.0,0.0,0.0
1571,56.0,60.0,60.0,2.0,0.0
1572,54.0,0.0,60.0,2.0,0.0
1573,61.0,60.0,60.0,0.0,0.0
1574,53.0,0.0,60.0,2.0,0.0
1575,68.0,60.0,60.0,0.0,0.0
1576,51.0,0.0,60.0,2.0,0.0
1577,61.0,60.0,60.0,0.0,0.0
1578,49.0,60.0,60.0,2.0,0.0
1579,70.0,0.0,60.0,0.0,0.0
1580,61.0,60.0,60.0,0.0,0.0
1581,47.0,0.0,60.0,2.0,0.0
1582,46.0,60.0,60.0,2.0,0.0
1583,71.0,0.0,60.0,0.0,0.0
1584,44.0,120.0,60.0,2.0,0.0
1585,61.0,0.0,60.0,0.0,0.0
1586,66.0,0.0,120.0,1.0,0.0
1587,70.0,60.0,120.0,0.0,0.0
1588,42.0,60.0,780.0,2.0,0.0
1589,64.0,60.0,60.0,1.0,0.0
1590,75.0,0.0,120.0,0.0,0.0
1591,66.0,60.0,60.0,1.0,0.0
1592,71.0,120.0,120.0,0.0,0.0
1593,68.0,60.0,60.0,1.0,0.0
1594,66.0,0.0,60.0,1.0,0.0
1595,64.0,0.0,120.0,1.0,0.0
1596,68.0,60.0,120.0,0.0,0.0
1597,73.0,0.0,120.0,0.0,0.0
1598,63.0,60.0,60.0,1.0,0.0
1599,64.0,60.0,60.0,1.0,0.0
1600,70.0,0.0,120.0,0.0,0.0
1601,66.0,60.0,60.0,1.0,0.0
1602,64.0,60.0,60.0,1.0,0.0
1603,71.0,50.0,420.0,0.0,0.0
1604,63.0,0.0,120.0,1.0,0.0
1605,54.0,60.0,60.0,2.0,0.0
1606,64.0,0.0,120.0,1.0,0.0
1607,52.0,60.0,60.0,2.0,0.0
1608,54.0,60.0,60.0,2.0,0.0
1609,66.0,0.0,120.0,1.0,0.0
1610,56.0,60.0,60.0,2.0,0.0
1611,54.0,60.0,60.0,2.0,0.0
1612,68.0,14.0,120.0,1.0,0.0
1613,52.0,0.0,120.0,2.0,0.0
1614,73.0,10.0,60.0,0.0,0.0
1615,75.0,22.0,20.0,0.0,0.0
1616,51.0,20.0,60.0,2.0,0.0
1617,58.0,0.0,240.0,1.0,0.0
1618,73.0,22.0,20.0,0.0,0.0
1619,75.0,2.0,20.0,0.0,0.0
1620,73.0,22.0,20.0,0.0,0.0
1621,52.0,60.0,60.0,2.0,0.0
1622,75.0,18.0,20.0,0.0,0.0
1623,73.0,0.0,90.0,0.0,0.0
1624,54.0,30.0,60.0,2.0,0.0
1625,71.0,30.0,30.0,0.0,0.0
1626,52.0,120.0,60.0,2.0,0.0
1627,73.0,0.0,30.0,0.0,0.0
1628,75.0,0.0,120.0,0.0,0.0
1629,51.0,60.0,120.0,2.0,0.0
1630,59.0,0.0,120.0,1.0,0.0
1631,73.0,0.0,60.0,1.0,0.0
1632,49.0,0.0,60.0,2.0,0.0
1633,76.0,60.0,60.0,0.0,0.0
1634,71.0,60.0,60.0,1.0,0.0
1635,51.0,0.0,60.0,2.0,0.0
1636,75.0,0.0,60.0,0.0,0.0
1637,52.0,60.0,60.0,2.0,0.0
1638,73.0,0.0,60.0,0.0,0.0
1639,70.0,0.0,60.0,1.0,0.0
1640,75.0,0.0,60.0,0.0,0.0
1641,51.0,0.0,60.0,2.0,0.0
1642,71.0,120.0,60.0,1.0,0.0
1643,76.0,0.0,120.0,0.0,0.0
1644,73.0,0.0,120.0,1.0,0.0
1645,49.0,60.0,120.0,2.0,0.0
1646,78.0,60.0,60.0,0.0,0.0
1647,75.0,0.0,60.0,1.0,0.0
1648,47.0,0.0,60.0,2.0,0.0
1649,73.0,0.0,60.0,1.0,0.0
1650,49.0,0.0,60.0,2.0,0.0
1651,76.0,60.0,60.0,0.0,0.0
1652,51.0,0.0,60.0,2.0,0.0
1653,71.0,0.0,60.0,1.0,0.0
1654,75.0,60.0,60.0,0.0,0.0
1655,73.0,0.0,60.0,1.0,0.0
1656,49.0,0.0,60.0,2.0,0.0
1657,76.0,60.0,60.0,0.0,0.0
1658,75.0,60.0,120.0,1.0,0.0
1659,78.0,0.0,120.0,0.0,0.0
1660,47.0,30.0,60.0,2.0,0.0
1661,59.0,30.0,30.0,2.0,0.0
1662,58.0,0.0,30.0,2.0,0.0
1663,76.0,60.0,120.0,0.0,0.0
1664,73.0,0.0,120.0,1.0,0.0
1665,56.0,60.0,60.0,2.0,0.0
1666,59.0,0.0,60.0,2.0,0.0
1667,71.0,0.0,240.0,1.0,0.0
1668,54.0,60.0,60.0,2.0,0.0
1669,75.0,0.0,120.0,0.0,0.0
1670,59.0,60.0,60.0,2.0,0.0
1671,73.0,0.0,120.0,0.0,0.0
1672,53.0,60.0,60.0,2.0,0.0
1673,59.0,60.0,60.0,2.0,0.0
1674,78.0,60.0,120.0,1.0,0.0
1675,51.0,60.0,60.0,2.0,0.0
1676,83.0,60.0,240.0,0.0,0.0
1677,59.0,0.0,60.0,2.0,0.0
1678,77.0,0.0,120.0,1.0,0.0
1679,49.0,60.0,60.0,2.0,0.0
1680,59.0,0.0,60.0,2.0,0.0
1681,54.0,60.0,60.0,2.0,0.0
1682,78.0,0.0,120.0,1.0,0.0
1683,82.0,0.0,120.0,0.0,0.0
1684,52.0,60.0,60.0,2.0,0.0
1685,80.0,0.0,120.0,0.0,0.0
1686,50.0,60.0,60.0,2.0,0.0
1687,71.0,0.0,120.0,1.0,0.0
1688,54.0,60.0,60.0,2.0,0.0
1689,49.0,60.0,60.0,2.0,0.0
1690,70.0,60.0,120.0,1.0,0.0
1691,78.0,0.0,120.0,0.0,0.0
1692,54.0,0.0,60.0,2.0,0.0
1693,47.0,60.0,60.0,2.0,0.0
1694,68.0,0.0,120.0,1.0,0.0
1695,77.0,0.0,120.0,0.0,0.0
1696,56.0,60.0,60.0,2.0,0.0
1697,86.0,60.0,240.0,0.0,0.0
1698,77.0,0.0,240.0,1.0,0.0
1699,46.0,60.0,60.0,2.0,0.0
1700,56.0,60.0,60.0,2.0,0.0
1701,44.0,60.0,60.0,2.0,0.0
1702,56.0,0.0,60.0,2.0,0.0
1703,46.0,60.0,120.0,2.0,0.0
1704,76.0,0.0,240.0,1.0,0.0
1705,85.0,60.0,60.0,0.0,0.0
1706,83.0,0.0,60.0,0.0,0.0
1707,82.0,60.0,60.0,0.0,0.0
1708,42.0,0.0,120.0,2.0,0.0
1709,80.0,90.0,60.0,0.0,0.0
1710,47.0,120.0,120.0,2.0,0.0
1711,78.0,0.0,120.0,0.0,0.0
1712,75.0,30.0,30.0,1.0,0.0
1713,73.0,0.0,30.0,1.0,0.0
1714,75.0,0.0,120.0,1.0,0.0
1715,44.0,60.0,120.0,2.0,0.0
1716,83.0,60.0,120.0,0.0,0.0
1717,73.0,0.0,240.0,1.0,0.0
1718,40.0,60.0,120.0,2.0,0.0
1719,76.0,0.0,60.0,0.0,0.0
1720,42.0,0.0,120.0,2.0,0.0
1721,83.0,60.0,60.0,0.0,0.0
1722,82.0,60.0,60.0,0.0,0.0
1723,47.0,0.0,360.0,2.0,0.0
1724,83.0,30.0,60.0,0.0,0.0
1725,75.0,0.0,120.0,1.0,0.0
1726,82.0,30.0,30.0,0.0,0.0
1727,80.0,60.0,30.0,0.0,0.0
1728,75.0,60.0,120.0,1.0,0.0
1729,78.0,60.0,60.0,0.0,0.0
1730,83.0,0.0,60.0,0.0,0.0
1731,76.0,60.0,60.0,0.0,0.0
1732,73.0,0.0,120.0,1.0,0.0
1733,83.0,90.0,60.0,0.0,0.0
1734,71.0,0.0,240.0,1.0,0.0
1735,75.0,0.0,120.0,0.0,0.0
1736,47.0,30.0,30.0,2.0,0.0
1737,49.0,60.0,30.0,2.0,0.0
1738,51.0,60.0,60.0,2.0,0.0
1739,83.0,60.0,120.0,0.0,0.0
1740,47.0,0.0,60.0,2.0,0.0
1741,70.0,60.0,120.0,1.0,0.0
1742,52.0,60.0,60.0,2.0,0.0
1743,73.0,0.0,120.0,0.0,0.0
1744,47.0,10.0,180.0,2.0,0.0
1745,54.0,0.0,120.0,2.0,0.0
1746,75.0,30.0,60.0,0.0,0.0
1747,78.0,20.0,30.0,0.0,0.0
1748,76.0,60.0,30.0,0.0,0.0
1749,47.0,0.0,2040.0,2.0,0.0
1750,75.0,60.0,60.0,0.0,0.0
1751,71.0,0.0,15.0,1.0,0.0
1752,78.0,0.0,60.0,0.0,0.0
1753,51.0,0.0,120.0,2.0,0.0
1754,69.0,30.0,120.0,1.0,0.0
1755,73.0,60.0,60.0,0.0,0.0
1756,78.0,0.0,60.0,0.0,0.0
1757,71.0,60.0,120.0,0.0,0.0
1758,68.0,60.0,240.0,1.0,0.0
1759,52.0,30.0,30.0,2.0,0.0
1760,51.0,30.0,30.0,2.0,0.0
1761,52.0,30.0,30.0,2.0,0.0
1762,54.0,0.0,30.0,2.0,0.0
1763,76.0,0.0,300.0,0.0,0.0
1764,56.0,60.0,60.0,2.0,0.0
1765,52.0,0.0,60.0,2.0,0.0
1766,67.0,60.0,120.0,1.0,0.0
1767,58.0,60.0,60.0,2.0,0.0
1768,52.0,0.0,60.0,2.0,0.0
1769,59.0,0.0,1440.0,2.0,0.0
1770,66.0,60.0,120.0,1.0,0.0
1771,71.0,30.0,30.0,0.0,0.0
1772,73.0,30.0,30.0,0.0,0.0
1773,75.0,0.0,30.0,0.0,0.0
1774,76.0,60.0,60.0,0.0,0.0
1775,68.0,60.0,120.0,1.0,0.0
1776,71.0,0.0,60.0,0.0,0.0
1777,78.0,60.0,60.0,0.0,0.0
1778,75.0,0.0,120.0,1.0,0.0
1779,69.0,0.0,120.0,1.0,0.0
1780,71.0,30.0,60.0,0.0,0.0
1781,76.0,0.0,120.0,1.0,0.0
1782,80.0,30.0,30.0,0.0,0.0
1783,75.0,30.0,30.0,0.0,0.0
1784,76.0,30.0,30.0,0.0,0.0
1785,78.0,0.0,30.0,0.0,0.0
1786,80.0,60.0,60.0,0.0,0.0
1787,71.0,60.0,15.0,1.0,0.0
1788,76.0,0.0,60.0,0.0,0.0
1789,82.0,60.0,60.0,0.0,0.0
1790,73.0,0.0,120.0,1.0,0.0
1791,76.0,120.0,60.0,0.0,0.0
1792,83.0,60.0,300.0,0.0,0.0
1793,75.0,60.0,240.0,1.0,0.0
1794,78.0,60.0,60.0,1.0,0.0
1795,80.0,60.0,60.0,1.0,0.0
1796,76.0,0.0,180.0,1.0,0.0
1797,73.0,360.0,120.0,1.0,0.0
1798,82.0,0.0,60.0,0.0,0.0
1799,78.0,0.0,360.0,1.0,0.0
1800,75.0,0.0,360.0,1.0,0.0
1801,83.0,0.0,360.0,0.0,0.0
