,note,step,duration,channel,velocity
0,61.0,0.0,150.0,1.0,0.0
1,80.0,222.0,150.0,0.0,0.0
2,80.0,96.0,90.0,0.0,0.0
3,61.0,30.0,150.0,1.0,0.0
4,80.0,66.0,90.0,0.0,0.0
5,80.0,0.0,150.0,2.0,0.0
6,80.0,96.0,90.0,0.0,0.0
7,80.0,66.0,90.0,0.0,0.0
8,61.0,30.0,150.0,3.0,0.0
9,80.0,96.0,90.0,2.0,0.0
10,80.0,0.0,90.0,0.0,0.0
11,76.0,0.0,90.0,2.0,0.0
12,61.0,30.0,150.0,1.0,0.0
13,85.0,66.0,90.0,0.0,0.0
14,73.0,96.0,90.0,2.0,0.0
15,80.0,0.0,90.0,0.0,0.0
16,80.0,66.0,90.0,0.0,0.0
17,61.0,30.0,150.0,3.0,0.0
18,80.0,96.0,90.0,0.0,0.0
19,80.0,0.0,90.0,2.0,0.0
20,85.0,0.0,90.0,0.0,0.0
21,61.0,30.0,150.0,1.0,0.0
22,76.0,66.0,90.0,2.0,0.0
23,80.0,96.0,90.0,0.0,0.0
24,73.0,0.0,90.0,2.0,0.0
25,61.0,30.0,150.0,3.0,0.0
26,80.0,66.0,90.0,0.0,0.0
27,80.0,0.0,90.0,0.0,0.0
28,80.0,24.0,90.0,2.0,0.0
29,81.0,0.0,20.0,0.0,0.0
30,61.0,30.0,150.0,1.0,0.0
31,78.0,24.0,20.0,2.0,0.0
32,80.0,0.0,20.0,0.0,0.0
33,76.0,24.0,20.0,2.0,0.0
34,78.0,0.0,20.0,2.0,0.0
35,81.0,24.0,20.0,0.0,0.0
36,76.0,0.0,20.0,2.0,0.0
37,80.0,48.0,20.0,0.0,0.0
38,73.0,18.0,60.0,2.0,0.0
39,76.0,0.0,60.0,0.0,0.0
40,68.0,96.0,90.0,3.0,0.0
41,75.0,0.0,60.0,2.0,0.0
42,78.0,0.0,60.0,0.0,0.0
43,73.0,0.0,90.0,3.0,0.0
44,61.0,30.0,150.0,1.0,0.0
45,80.0,0.0,90.0,0.0,0.0
46,76.0,66.0,90.0,2.0,0.0
47,76.0,0.0,90.0,2.0,0.0
48,80.0,24.0,90.0,0.0,0.0
49,68.0,0.0,90.0,3.0,0.0
50,61.0,30.0,150.0,1.0,0.0
51,78.0,24.0,20.0,2.0,0.0
52,81.0,0.0,20.0,0.0,0.0
53,80.0,0.0,20.0,0.0,0.0
54,76.0,24.0,20.0,2.0,0.0
55,81.0,0.0,20.0,0.0,0.0
56,78.0,24.0,20.0,2.0,0.0
57,80.0,0.0,20.0,0.0,0.0
58,76.0,48.0,20.0,2.0,0.0
59,68.0,0.0,90.0,3.0,0.0
60,73.0,18.0,60.0,2.0,0.0
61,76.0,0.0,60.0,0.0,0.0
62,75.0,96.0,60.0,2.0,0.0
63,78.0,0.0,60.0,0.0,0.0
64,61.0,30.0,150.0,1.0,0.0
65,80.0,0.0,90.0,0.0,0.0
66,73.0,0.0,90.0,3.0,0.0
67,76.0,66.0,90.0,2.0,0.0
68,80.0,0.0,90.0,0.0,0.0
69,76.0,96.0,90.0,2.0,0.0
70,68.0,0.0,90.0,3.0,0.0
71,61.0,30.0,150.0,1.0,0.0
72,80.0,0.0,90.0,0.0,0.0
73,76.0,66.0,90.0,2.0,0.0
74,80.0,0.0,90.0,0.0,0.0
75,76.0,0.0,90.0,2.0,0.0
76,68.0,96.0,90.0,3.0,0.0
77,73.0,48.0,90.0,3.0,0.0
78,76.0,0.0,90.0,2.0,0.0
79,80.0,0.0,90.0,0.0,0.0
80,61.0,0.0,90.0,1.0,0.0
81,68.0,0.0,90.0,3.0,0.0
82,75.0,48.0,60.0,2.0,0.0
83,78.0,0.0,60.0,0.0,0.0
84,76.0,0.0,60.0,0.0,0.0
85,73.0,96.0,60.0,2.0,0.0
86,75.0,48.0,90.0,0.0,0.0
87,56.0,0.0,90.0,1.0,0.0
88,72.0,0.0,90.0,2.0,0.0
89,68.0,0.0,60.0,3.0,0.0
90,66.0,48.0,60.0,3.0,0.0
91,68.0,0.0,90.0,0.0,0.0
92,58.0,0.0,90.0,1.0,0.0
93,73.0,0.0,90.0,2.0,0.0
94,64.0,48.0,60.0,3.0,0.0
95,75.0,0.0,90.0,2.0,0.0
96,63.0,48.0,60.0,3.0,0.0
97,60.0,0.0,90.0,1.0,0.0
98,66.0,48.0,60.0,3.0,0.0
99,56.0,0.0,90.0,1.0,0.0
100,72.0,162.0,90.0,2.0,0.0
101,64.0,48.0,60.0,3.0,0.0
102,63.0,0.0,60.0,3.0,0.0
103,61.0,0.0,150.0,5.0,0.0
104,61.0,0.0,150.0,7.0,0.0
105,64.0,0.0,150.0,7.0,0.0
106,64.0,0.0,150.0,3.0,0.0
107,80.0,0.0,150.0,4.0,0.0
108,76.0,0.0,150.0,10.0,0.0
109,73.0,0.0,150.0,4.0,0.0
110,68.0,0.0,150.0,4.0,0.0
111,73.0,0.0,150.0,6.0,0.0
112,56.0,0.0,150.0,5.0,0.0
113,76.0,0.0,150.0,6.0,0.0
114,80.0,0.0,150.0,0.0,0.0
115,49.0,0.0,150.0,5.0,0.0
116,73.0,0.0,150.0,0.0,0.0
117,68.0,0.0,150.0,0.0,0.0
118,52.0,0.0,150.0,5.0,0.0
119,73.0,0.0,150.0,11.0,0.0
120,68.0,0.0,150.0,6.0,0.0
121,76.0,0.0,150.0,0.0,0.0
122,76.0,0.0,150.0,4.0,0.0
123,49.0,222.0,150.0,12.0,0.0
124,49.0,0.0,150.0,1.0,0.0
125,52.0,0.0,150.0,1.0,0.0
126,61.0,0.0,150.0,3.0,0.0
127,80.0,0.0,150.0,8.0,0.0
128,56.0,0.0,150.0,1.0,0.0
129,61.0,0.0,150.0,1.0,0.0
130,68.0,0.0,150.0,2.0,0.0
131,73.0,0.0,150.0,2.0,0.0
132,76.0,0.0,150.0,2.0,0.0
133,80.0,0.0,90.0,10.0,0.0
134,61.0,0.0,90.0,5.0,0.0
135,80.0,0.0,90.0,0.0,0.0
136,61.0,0.0,90.0,3.0,0.0
137,61.0,0.0,90.0,1.0,0.0
138,80.0,0.0,90.0,4.0,0.0
139,64.0,0.0,90.0,11.0,0.0
140,76.0,0.0,90.0,2.0,0.0
141,80.0,48.0,90.0,8.0,0.0
142,73.0,0.0,90.0,6.0,0.0
143,61.0,0.0,90.0,12.0,0.0
144,76.0,0.0,90.0,10.0,0.0
145,49.0,0.0,90.0,1.0,0.0
146,68.0,0.0,90.0,11.0,0.0
147,49.0,0.0,90.0,5.0,0.0
148,76.0,0.0,60.0,2.0,0.0
149,76.0,0.0,90.0,4.0,0.0
150,80.0,0.0,90.0,8.0,0.0
151,61.0,0.0,90.0,3.0,0.0
152,80.0,48.0,60.0,6.0,0.0
153,49.0,0.0,90.0,12.0,0.0
154,80.0,48.0,90.0,0.0,0.0
155,73.0,0.0,60.0,2.0,0.0
156,78.0,0.0,60.0,6.0,0.0
157,64.0,0.0,90.0,7.0,0.0
158,61.0,0.0,90.0,1.0,0.0
159,73.0,0.0,90.0,10.0,0.0
160,80.0,0.0,90.0,6.0,0.0
161,80.0,0.0,90.0,0.0,0.0
162,80.0,0.0,90.0,8.0,0.0
163,61.0,0.0,90.0,12.0,0.0
164,61.0,0.0,90.0,5.0,0.0
165,64.0,0.0,90.0,11.0,0.0
166,68.0,48.0,90.0,3.0,0.0
167,76.0,48.0,60.0,2.0,0.0
168,73.0,0.0,90.0,4.0,0.0
169,80.0,0.0,60.0,2.0,0.0
170,80.0,48.0,60.0,2.0,0.0
171,63.0,0.0,90.0,7.0,0.0
172,80.0,0.0,90.0,0.0,0.0
173,60.0,0.0,90.0,12.0,0.0
174,60.0,0.0,90.0,5.0,0.0
175,63.0,0.0,90.0,11.0,0.0
176,60.0,48.0,90.0,1.0,0.0
177,80.0,0.0,90.0,8.0,0.0
178,78.0,0.0,60.0,2.0,0.0
179,72.0,0.0,60.0,6.0,0.0
180,56.0,0.0,90.0,1.0,0.0
181,80.0,0.0,90.0,2.0,0.0
182,60.0,0.0,90.0,3.0,0.0
183,60.0,0.0,90.0,7.0,0.0
184,80.0,0.0,90.0,8.0,0.0
185,56.0,0.0,90.0,12.0,0.0
186,80.0,0.0,90.0,10.0,0.0
187,56.0,0.0,90.0,5.0,0.0
188,80.0,0.0,90.0,0.0,0.0
189,60.0,0.0,90.0,11.0,0.0
190,75.0,48.0,60.0,6.0,0.0
191,80.0,0.0,90.0,4.0,0.0
192,80.0,48.0,60.0,6.0,0.0
193,76.0,0.0,90.0,10.0,0.0
194,80.0,48.0,60.0,6.0,0.0
195,85.0,0.0,90.0,0.0,0.0
196,85.0,0.0,90.0,8.0,0.0
197,61.0,48.0,90.0,3.0,0.0
198,76.0,0.0,90.0,4.0,0.0
199,73.0,0.0,60.0,2.0,0.0
200,78.0,0.0,60.0,6.0,0.0
201,61.0,0.0,90.0,12.0,0.0
202,76.0,48.0,60.0,2.0,0.0
203,80.0,0.0,90.0,0.0,0.0
204,61.0,0.0,90.0,1.0,0.0
205,80.0,0.0,90.0,8.0,0.0
206,49.0,0.0,90.0,3.0,0.0
207,73.0,0.0,90.0,10.0,0.0
208,64.0,0.0,90.0,7.0,0.0
209,80.0,0.0,90.0,6.0,0.0
210,73.0,0.0,90.0,4.0,0.0
211,61.0,48.0,90.0,5.0,0.0
212,64.0,0.0,90.0,11.0,0.0
213,80.0,0.0,60.0,2.0,0.0
214,80.0,0.0,90.0,8.0,0.0
215,63.0,0.0,90.0,7.0,0.0
216,60.0,0.0,90.0,5.0,0.0
217,60.0,0.0,90.0,1.0,0.0
218,80.0,0.0,90.0,0.0,0.0
219,63.0,48.0,90.0,11.0,0.0
220,80.0,48.0,60.0,2.0,0.0
221,60.0,0.0,90.0,12.0,0.0
222,72.0,0.0,60.0,6.0,0.0
223,78.0,0.0,60.0,2.0,0.0
224,80.0,0.0,90.0,2.0,0.0
225,60.0,0.0,90.0,7.0,0.0
226,80.0,0.0,90.0,8.0,0.0
227,60.0,0.0,90.0,3.0,0.0
228,56.0,0.0,90.0,5.0,0.0
229,80.0,0.0,90.0,10.0,0.0
230,75.0,48.0,60.0,6.0,0.0
231,60.0,0.0,90.0,11.0,0.0
232,80.0,0.0,90.0,4.0,0.0
233,56.0,0.0,90.0,12.0,0.0
234,80.0,0.0,90.0,0.0,0.0
235,56.0,48.0,90.0,1.0,0.0
236,80.0,0.0,60.0,6.0,0.0
237,85.0,0.0,90.0,8.0,0.0
238,76.0,0.0,90.0,10.0,0.0
239,61.0,0.0,90.0,3.0,0.0
240,85.0,0.0,90.0,0.0,0.0
241,80.0,48.0,60.0,6.0,0.0
242,76.0,0.0,90.0,4.0,0.0
243,73.0,48.0,60.0,2.0,0.0
244,78.0,0.0,60.0,6.0,0.0
245,80.0,0.0,90.0,0.0,0.0
246,64.0,0.0,90.0,7.0,0.0
247,73.0,0.0,90.0,10.0,0.0
248,80.0,0.0,90.0,6.0,0.0
249,61.0,0.0,90.0,5.0,0.0
250,73.0,48.0,90.0,4.0,0.0
251,80.0,0.0,90.0,8.0,0.0
252,76.0,48.0,60.0,2.0,0.0
253,49.0,0.0,90.0,3.0,0.0
254,61.0,0.0,90.0,1.0,0.0
255,64.0,0.0,90.0,11.0,0.0
256,61.0,0.0,90.0,12.0,0.0
257,80.0,0.0,60.0,2.0,0.0
258,80.0,0.0,90.0,0.0,0.0
259,63.0,0.0,90.0,7.0,0.0
260,80.0,48.0,60.0,2.0,0.0
261,60.0,0.0,90.0,12.0,0.0
262,60.0,0.0,90.0,5.0,0.0
263,63.0,0.0,90.0,11.0,0.0
264,60.0,0.0,90.0,1.0,0.0
265,80.0,48.0,90.0,8.0,0.0
266,72.0,0.0,60.0,6.0,0.0
267,78.0,0.0,60.0,2.0,0.0
268,56.0,0.0,90.0,1.0,0.0
269,80.0,24.0,90.0,2.0,0.0
270,75.0,48.0,60.0,6.0,0.0
271,80.0,0.0,90.0,10.0,0.0
272,80.0,0.0,90.0,0.0,0.0
273,80.0,0.0,90.0,4.0,0.0
274,56.0,0.0,90.0,5.0,0.0
275,72.0,0.0,90.0,3.0,0.0
276,60.0,0.0,90.0,7.0,0.0
277,80.0,0.0,90.0,8.0,0.0
278,60.0,0.0,90.0,11.0,0.0
279,56.0,0.0,90.0,12.0,0.0
280,80.0,0.0,60.0,6.0,0.0
281,49.0,0.0,90.0,1.0,0.0
282,49.0,30.0,150.0,5.0,0.0
283,49.0,0.0,150.0,12.0,0.0
284,81.0,0.0,20.0,0.0,0.0
285,81.0,0.0,20.0,8.0,0.0
286,73.0,0.0,90.0,3.0,0.0
287,56.0,0.0,90.0,7.0,0.0
288,80.0,0.0,60.0,6.0,0.0
289,56.0,0.0,90.0,11.0,0.0
290,78.0,0.0,20.0,4.0,0.0
291,78.0,24.0,20.0,10.0,0.0
292,76.0,0.0,20.0,10.0,0.0
293,80.0,24.0,20.0,0.0,0.0
294,80.0,0.0,20.0,8.0,0.0
295,76.0,0.0,20.0,4.0,0.0
296,78.0,0.0,60.0,6.0,0.0
297,78.0,0.0,20.0,10.0,0.0
298,81.0,24.0,20.0,8.0,0.0
299,78.0,0.0,20.0,4.0,0.0
300,81.0,0.0,20.0,0.0,0.0
301,80.0,0.0,20.0,0.0,0.0
302,80.0,0.0,20.0,8.0,0.0
303,76.0,48.0,20.0,10.0,0.0
304,76.0,0.0,20.0,4.0,0.0
305,61.0,0.0,90.0,1.0,0.0
306,73.0,0.0,60.0,4.0,0.0
307,64.0,0.0,90.0,7.0,0.0
308,73.0,0.0,60.0,10.0,0.0
309,80.0,0.0,90.0,2.0,0.0
310,68.0,0.0,90.0,11.0,0.0
311,76.0,18.0,60.0,0.0,0.0
312,68.0,0.0,90.0,3.0,0.0
313,80.0,0.0,90.0,6.0,0.0
314,76.0,0.0,60.0,8.0,0.0
315,78.0,0.0,60.0,0.0,0.0
316,78.0,0.0,60.0,8.0,0.0
317,75.0,0.0,60.0,10.0,0.0
318,75.0,96.0,60.0,4.0,0.0
319,76.0,0.0,90.0,4.0,0.0
320,85.0,0.0,150.0,2.0,0.0
321,64.0,66.0,90.0,11.0,0.0
322,80.0,0.0,90.0,8.0,0.0
323,49.0,30.0,150.0,1.0,0.0
324,61.0,0.0,150.0,7.0,0.0
325,64.0,0.0,90.0,3.0,0.0
326,76.0,0.0,90.0,10.0,0.0
327,80.0,0.0,90.0,0.0,0.0
328,76.0,0.0,90.0,10.0,0.0
329,61.0,0.0,90.0,11.0,0.0
330,80.0,0.0,90.0,8.0,0.0
331,61.0,0.0,90.0,5.0,0.0
332,76.0,0.0,90.0,4.0,0.0
333,61.0,0.0,90.0,3.0,0.0
334,80.0,24.0,90.0,6.0,0.0
335,80.0,0.0,90.0,0.0,0.0
336,78.0,0.0,20.0,4.0,0.0
337,56.0,0.0,90.0,11.0,0.0
338,81.0,0.0,20.0,8.0,0.0
339,81.0,0.0,20.0,0.0,0.0
340,64.0,0.0,90.0,3.0,0.0
341,49.0,0.0,150.0,5.0,0.0
342,49.0,0.0,150.0,12.0,0.0
343,78.0,24.0,20.0,10.0,0.0
344,85.0,30.0,150.0,6.0,0.0
345,80.0,0.0,20.0,8.0,0.0
346,76.0,0.0,20.0,4.0,0.0
347,76.0,24.0,20.0,10.0,0.0
348,80.0,0.0,20.0,0.0,0.0
349,78.0,0.0,20.0,10.0,0.0
350,81.0,0.0,20.0,8.0,0.0
351,78.0,0.0,20.0,4.0,0.0
352,81.0,24.0,20.0,0.0,0.0
353,80.0,0.0,20.0,0.0,0.0
354,76.0,0.0,20.0,10.0,0.0
355,76.0,0.0,20.0,4.0,0.0
356,80.0,48.0,20.0,8.0,0.0
357,73.0,0.0,60.0,10.0,0.0
358,80.0,0.0,90.0,2.0,0.0
359,68.0,0.0,90.0,3.0,0.0
360,76.0,18.0,60.0,0.0,0.0
361,76.0,0.0,60.0,8.0,0.0
362,61.0,0.0,90.0,1.0,0.0
363,68.0,0.0,90.0,11.0,0.0
364,73.0,0.0,60.0,4.0,0.0
365,64.0,96.0,90.0,7.0,0.0
366,75.0,0.0,60.0,10.0,0.0
367,75.0,0.0,60.0,4.0,0.0
368,78.0,0.0,60.0,0.0,0.0
369,78.0,0.0,60.0,8.0,0.0
370,80.0,0.0,90.0,8.0,0.0
371,49.0,0.0,150.0,1.0,0.0
372,64.0,0.0,90.0,3.0,0.0
373,64.0,48.0,90.0,11.0,0.0
374,61.0,0.0,150.0,7.0,0.0
375,76.0,0.0,90.0,10.0,0.0
376,76.0,0.0,90.0,4.0,0.0
377,80.0,0.0,90.0,0.0,0.0
378,85.0,30.0,150.0,2.0,0.0
379,80.0,0.0,90.0,6.0,0.0
380,61.0,0.0,90.0,5.0,0.0
381,61.0,0.0,90.0,11.0,0.0
382,80.0,48.0,90.0,0.0,0.0
383,61.0,18.0,60.0,3.0,0.0
384,76.0,0.0,90.0,10.0,0.0
385,76.0,0.0,90.0,4.0,0.0
386,80.0,0.0,90.0,8.0,0.0
387,63.0,0.0,60.0,3.0,0.0
388,80.0,0.0,90.0,0.0,0.0
389,80.0,0.0,90.0,8.0,0.0
390,76.0,0.0,90.0,10.0,0.0
391,56.0,48.0,90.0,11.0,0.0
392,64.0,48.0,60.0,3.0,0.0
393,85.0,30.0,150.0,6.0,0.0
394,76.0,0.0,90.0,4.0,0.0
395,49.0,0.0,90.0,5.0,0.0
396,49.0,0.0,90.0,12.0,0.0
397,66.0,0.0,60.0,3.0,0.0
398,61.0,0.0,60.0,1.0,0.0
399,61.0,0.0,60.0,5.0,0.0
400,76.0,24.0,90.0,10.0,0.0
401,68.0,0.0,60.0,3.0,0.0
402,61.0,0.0,90.0,11.0,0.0
403,61.0,18.0,60.0,12.0,0.0
404,80.0,0.0,90.0,8.0,0.0
405,76.0,0.0,90.0,4.0,0.0
406,80.0,0.0,90.0,2.0,0.0
407,64.0,0.0,90.0,7.0,0.0
408,80.0,0.0,90.0,0.0,0.0
409,60.0,0.0,60.0,5.0,0.0
410,66.0,0.0,60.0,3.0,0.0
411,60.0,0.0,60.0,12.0,0.0
412,60.0,0.0,60.0,1.0,0.0
413,61.0,0.0,90.0,1.0,0.0
414,64.0,0.0,60.0,3.0,0.0
415,78.0,0.0,20.0,10.0,0.0
416,61.0,0.0,90.0,7.0,0.0
417,61.0,0.0,90.0,12.0,0.0
418,76.0,0.0,90.0,4.0,0.0
419,80.0,48.0,90.0,0.0,0.0
420,64.0,0.0,90.0,11.0,0.0
421,61.0,0.0,90.0,5.0,0.0
422,85.0,24.0,60.0,2.0,0.0
423,81.0,24.0,20.0,8.0,0.0
424,80.0,0.0,20.0,8.0,0.0
425,76.0,0.0,20.0,10.0,0.0
426,78.0,24.0,20.0,10.0,0.0
427,81.0,0.0,20.0,8.0,0.0
428,68.0,0.0,60.0,3.0,0.0
429,76.0,0.0,60.0,6.0,0.0
430,76.0,0.0,60.0,2.0,0.0
431,80.0,0.0,20.0,8.0,0.0
432,76.0,0.0,20.0,10.0,0.0
433,78.0,48.0,60.0,0.0,0.0
434,78.0,0.0,60.0,8.0,0.0
435,49.0,0.0,90.0,1.0,0.0
436,68.0,0.0,90.0,11.0,0.0
437,56.0,0.0,90.0,7.0,0.0
438,49.0,0.0,90.0,12.0,0.0
439,75.0,0.0,60.0,10.0,0.0
440,78.0,0.0,60.0,6.0,0.0
441,49.0,0.0,90.0,5.0,0.0
442,78.0,0.0,60.0,2.0,0.0
443,69.0,0.0,60.0,3.0,0.0
444,75.0,0.0,60.0,4.0,0.0
445,76.0,0.0,60.0,0.0,0.0
446,73.0,0.0,60.0,4.0,0.0
447,76.0,0.0,60.0,8.0,0.0
448,80.0,0.0,60.0,2.0,0.0
449,73.0,0.0,60.0,10.0,0.0
450,80.0,0.0,60.0,6.0,0.0
451,68.0,24.0,60.0,3.0,0.0
452,72.0,0.0,150.0,10.0,0.0
453,72.0,6.0,150.0,4.0,0.0
454,75.0,0.0,90.0,0.0,0.0
455,68.0,0.0,150.0,7.0,0.0
456,68.0,0.0,150.0,11.0,0.0
457,56.0,0.0,90.0,5.0,0.0
458,73.0,24.0,20.0,6.0,0.0
459,75.0,24.0,90.0,8.0,0.0
460,56.0,0.0,150.0,1.0,0.0
461,56.0,0.0,150.0,12.0,0.0
462,56.0,0.0,60.0,3.0,0.0
463,75.0,0.0,90.0,2.0,0.0
464,72.0,24.0,20.0,6.0,0.0
465,68.0,0.0,60.0,3.0,0.0
466,73.0,24.0,20.0,6.0,0.0
467,72.0,0.0,20.0,6.0,0.0
468,58.0,48.0,90.0,5.0,0.0
469,68.0,0.0,90.0,2.0,0.0
470,73.0,24.0,20.0,6.0,0.0
471,66.0,18.0,60.0,3.0,0.0
472,68.0,0.0,90.0,0.0,0.0
473,68.0,0.0,90.0,8.0,0.0
474,72.0,0.0,20.0,6.0,0.0
475,73.0,24.0,20.0,6.0,0.0
476,64.0,0.0,60.0,3.0,0.0
477,72.0,0.0,20.0,6.0,0.0
478,63.0,48.0,60.0,3.0,0.0
479,60.0,48.0,90.0,5.0,0.0
480,75.0,0.0,60.0,4.0,0.0
481,72.0,0.0,60.0,2.0,0.0
482,66.0,0.0,60.0,3.0,0.0
483,76.0,0.0,60.0,4.0,0.0
484,56.0,0.0,90.0,5.0,0.0
485,73.0,0.0,60.0,2.0,0.0
486,64.0,48.0,60.0,3.0,0.0
487,63.0,0.0,60.0,3.0,0.0
488,75.0,0.0,60.0,2.0,0.0
489,78.0,48.0,60.0,4.0,0.0
490,76.0,0.0,60.0,2.0,0.0
491,76.0,48.0,60.0,4.0,0.0
492,61.0,30.0,150.0,3.0,0.0
493,49.0,48.0,90.0,5.0,0.0
494,78.0,0.0,60.0,2.0,0.0
495,75.0,0.0,60.0,4.0,0.0
496,73.0,18.0,60.0,4.0,0.0
497,80.0,0.0,90.0,2.0,0.0
498,61.0,48.0,90.0,5.0,0.0
499,76.0,0.0,60.0,4.0,0.0
500,80.0,48.0,60.0,4.0,0.0
501,60.0,48.0,90.0,5.0,0.0
502,75.0,0.0,60.0,4.0,0.0
503,56.0,0.0,90.0,5.0,0.0
504,76.0,48.0,60.0,4.0,0.0
505,78.0,48.0,60.0,4.0,0.0
506,76.0,48.0,60.0,4.0,0.0
507,49.0,48.0,90.0,5.0,0.0
508,75.0,0.0,60.0,4.0,0.0
509,73.0,48.0,60.0,4.0,0.0
510,61.0,0.0,90.0,5.0,0.0
511,76.0,48.0,60.0,4.0,0.0
512,60.0,0.0,90.0,5.0,0.0
513,80.0,48.0,60.0,4.0,0.0
514,75.0,48.0,60.0,4.0,0.0
515,56.0,0.0,90.0,5.0,0.0
516,76.0,48.0,60.0,4.0,0.0
517,78.0,48.0,60.0,4.0,0.0
518,76.0,48.0,60.0,4.0,0.0
519,49.0,0.0,90.0,5.0,0.0
520,75.0,48.0,60.0,4.0,0.0
521,73.0,48.0,60.0,4.0,0.0
522,61.0,0.0,90.0,5.0,0.0
523,76.0,48.0,60.0,4.0,0.0
524,60.0,48.0,90.0,5.0,0.0
525,80.0,48.0,60.0,4.0,0.0
526,75.0,0.0,60.0,4.0,0.0
527,76.0,48.0,60.0,4.0,0.0
528,56.0,0.0,90.0,5.0,0.0
529,78.0,48.0,60.0,4.0,0.0
530,49.0,48.0,90.0,5.0,0.0
531,76.0,48.0,60.0,4.0,0.0
532,73.0,0.0,60.0,4.0,0.0
533,76.0,48.0,60.0,4.0,0.0
534,61.0,48.0,90.0,5.0,0.0
535,80.0,0.0,60.0,4.0,0.0
536,64.0,48.0,90.0,5.0,0.0
537,85.0,48.0,60.0,4.0,0.0
538,73.0,0.0,60.0,4.0,0.0
539,76.0,48.0,60.0,4.0,0.0
540,61.0,48.0,90.0,5.0,0.0
541,80.0,0.0,60.0,4.0,0.0
542,85.0,48.0,60.0,4.0,0.0
543,49.0,0.0,90.0,5.0,0.0
544,73.0,48.0,60.0,4.0,0.0
545,61.0,0.0,90.0,5.0,0.0
546,76.0,48.0,60.0,4.0,0.0
547,80.0,48.0,60.0,4.0,0.0
548,85.0,48.0,60.0,4.0,0.0
549,64.0,0.0,90.0,5.0,0.0
550,73.0,48.0,60.0,4.0,0.0
551,61.0,0.0,90.0,5.0,0.0
552,76.0,48.0,60.0,4.0,0.0
553,80.0,48.0,60.0,4.0,0.0
554,49.0,30.0,150.0,5.0,0.0
555,85.0,48.0,60.0,4.0,0.0
556,80.0,48.0,60.0,4.0,0.0
557,76.0,18.0,60.0,4.0,0.0
558,80.0,48.0,60.0,4.0,0.0
559,73.0,48.0,60.0,4.0,0.0
560,68.0,0.0,60.0,5.0,0.0
561,76.0,48.0,60.0,4.0,0.0
562,64.0,0.0,60.0,5.0,0.0
563,73.0,48.0,60.0,4.0,0.0
564,68.0,48.0,60.0,5.0,0.0
565,76.0,0.0,60.0,4.0,0.0
566,61.0,30.0,150.0,5.0,0.0
567,68.0,48.0,60.0,4.0,0.0
568,73.0,48.0,60.0,4.0,0.0
569,68.0,18.0,60.0,4.0,0.0
570,73.0,48.0,60.0,4.0,0.0
571,64.0,48.0,60.0,4.0,0.0
572,56.0,0.0,60.0,5.0,0.0
573,68.0,48.0,60.0,4.0,0.0
574,64.0,48.0,60.0,4.0,0.0
575,52.0,0.0,60.0,5.0,0.0
576,56.0,162.0,60.0,5.0,0.0
577,68.0,0.0,60.0,4.0,0.0
578,61.0,0.0,150.0,1.0,0.0
579,52.0,0.0,150.0,3.0,0.0
580,49.0,0.0,150.0,3.0,0.0
581,61.0,0.0,150.0,4.0,0.0
582,49.0,0.0,150.0,12.0,0.0
583,80.0,0.0,150.0,6.0,0.0
584,76.0,0.0,150.0,6.0,0.0
585,73.0,0.0,150.0,6.0,0.0
586,68.0,0.0,150.0,6.0,0.0
587,49.0,0.0,150.0,5.0,0.0
588,64.0,0.0,150.0,1.0,0.0
589,61.0,0.0,150.0,3.0,0.0
590,56.0,222.0,150.0,3.0,0.0
591,73.0,0.0,150.0,11.0,0.0
592,61.0,0.0,150.0,7.0,0.0
593,73.0,0.0,150.0,2.0,0.0
594,68.0,0.0,150.0,2.0,0.0
595,68.0,0.0,150.0,0.0,0.0
596,73.0,0.0,150.0,0.0,0.0
597,76.0,0.0,150.0,0.0,0.0
598,80.0,0.0,150.0,8.0,0.0
599,76.0,0.0,150.0,2.0,0.0
600,49.0,0.0,150.0,7.0,0.0
601,52.0,0.0,150.0,7.0,0.0
602,80.0,0.0,150.0,2.0,0.0
603,76.0,0.0,150.0,10.0,0.0
604,56.0,0.0,150.0,7.0,0.0
605,76.0,0.0,90.0,0.0,0.0
606,80.0,0.0,90.0,2.0,0.0
607,64.0,0.0,90.0,11.0,0.0
608,61.0,0.0,90.0,12.0,0.0
609,73.0,0.0,90.0,4.0,0.0
610,61.0,12.0,90.0,7.0,0.0
611,80.0,0.0,90.0,10.0,0.0
612,80.0,0.0,90.0,6.0,0.0
613,61.0,0.0,90.0,3.0,0.0
614,80.0,0.0,90.0,8.0,0.0
615,61.0,0.0,90.0,1.0,0.0
616,80.0,0.0,90.0,8.0,0.0
617,76.0,0.0,90.0,10.0,0.0
618,76.0,0.0,90.0,6.0,0.0
619,76.0,48.0,60.0,0.0,0.0
620,49.0,0.0,90.0,12.0,0.0
621,81.0,12.0,15.0,4.0,0.0
622,49.0,0.0,90.0,3.0,0.0
623,49.0,0.0,90.0,7.0,0.0
624,61.0,0.0,90.0,1.0,0.0
625,68.0,0.0,90.0,11.0,0.0
626,80.0,0.0,90.0,2.0,0.0
627,80.0,12.0,15.0,4.0,0.0
628,81.0,12.0,15.0,4.0,0.0
629,80.0,0.0,15.0,4.0,0.0
630,78.0,48.0,60.0,4.0,0.0
631,73.0,0.0,60.0,0.0,0.0
632,80.0,0.0,90.0,2.0,0.0
633,80.0,0.0,90.0,8.0,0.0
634,73.0,0.0,90.0,10.0,0.0
635,64.0,0.0,90.0,11.0,0.0
636,61.0,0.0,90.0,12.0,0.0
637,64.0,0.0,90.0,5.0,0.0
638,61.0,0.0,90.0,7.0,0.0
639,80.0,0.0,90.0,4.0,0.0
640,61.0,0.0,90.0,3.0,0.0
641,68.0,0.0,90.0,1.0,0.0
642,73.0,48.0,90.0,6.0,0.0
643,76.0,48.0,60.0,0.0,0.0
644,80.0,0.0,60.0,0.0,0.0
645,63.0,0.0,90.0,5.0,0.0
646,60.0,0.0,90.0,7.0,0.0
647,63.0,48.0,90.0,11.0,0.0
648,80.0,0.0,90.0,8.0,0.0
649,60.0,0.0,90.0,3.0,0.0
650,80.0,48.0,60.0,0.0,0.0
651,80.0,0.0,90.0,2.0,0.0
652,60.0,0.0,90.0,12.0,0.0
653,72.0,0.0,60.0,4.0,0.0
654,78.0,0.0,60.0,0.0,0.0
655,56.0,0.0,90.0,3.0,0.0
656,80.0,0.0,90.0,6.0,0.0
657,80.0,0.0,90.0,0.0,0.0
658,75.0,48.0,60.0,4.0,0.0
659,60.0,0.0,90.0,11.0,0.0
660,60.0,12.0,90.0,1.0,0.0
661,80.0,0.0,90.0,8.0,0.0
662,80.0,0.0,90.0,2.0,0.0
663,80.0,0.0,90.0,10.0,0.0
664,56.0,0.0,90.0,12.0,0.0
665,60.0,0.0,90.0,5.0,0.0
666,56.0,0.0,90.0,7.0,0.0
667,80.0,0.0,60.0,4.0,0.0
668,85.0,48.0,90.0,2.0,0.0
669,61.0,0.0,90.0,1.0,0.0
670,76.0,0.0,90.0,10.0,0.0
671,81.0,12.0,15.0,4.0,0.0
672,76.0,0.0,90.0,6.0,0.0
673,85.0,0.0,90.0,8.0,0.0
674,80.0,12.0,15.0,4.0,0.0
675,81.0,12.0,15.0,4.0,0.0
676,80.0,48.0,15.0,4.0,0.0
677,73.0,0.0,60.0,0.0,0.0
678,78.0,0.0,60.0,4.0,0.0
679,80.0,0.0,90.0,8.0,0.0
680,61.0,0.0,90.0,7.0,0.0
681,80.0,0.0,90.0,2.0,0.0
682,64.0,0.0,90.0,11.0,0.0
683,64.0,0.0,90.0,5.0,0.0
684,49.0,0.0,90.0,1.0,0.0
685,73.0,48.0,90.0,10.0,0.0
686,61.0,0.0,90.0,12.0,0.0
687,61.0,0.0,90.0,3.0,0.0
688,73.0,0.0,90.0,6.0,0.0
689,80.0,0.0,90.0,4.0,0.0
690,76.0,48.0,60.0,0.0,0.0
691,80.0,0.0,60.0,0.0,0.0
692,80.0,0.0,90.0,8.0,0.0
693,60.0,0.0,90.0,7.0,0.0
694,60.0,0.0,90.0,12.0,0.0
695,60.0,0.0,90.0,3.0,0.0
696,80.0,48.0,60.0,0.0,0.0
697,80.0,0.0,90.0,2.0,0.0
698,63.0,0.0,90.0,11.0,0.0
699,63.0,0.0,90.0,5.0,0.0
700,72.0,48.0,60.0,4.0,0.0
701,78.0,0.0,60.0,0.0,0.0
702,60.0,0.0,90.0,5.0,0.0
703,80.0,12.0,90.0,6.0,0.0
704,60.0,0.0,90.0,11.0,0.0
705,60.0,0.0,90.0,1.0,0.0
706,80.0,0.0,90.0,10.0,0.0
707,56.0,0.0,90.0,7.0,0.0
708,56.0,0.0,90.0,3.0,0.0
709,80.0,0.0,90.0,8.0,0.0
710,80.0,0.0,90.0,2.0,0.0
711,56.0,0.0,90.0,12.0,0.0
712,80.0,0.0,90.0,0.0,0.0
713,75.0,48.0,60.0,4.0,0.0
714,80.0,0.0,60.0,4.0,0.0
715,85.0,0.0,90.0,8.0,0.0
716,85.0,0.0,90.0,2.0,0.0
717,76.0,48.0,90.0,10.0,0.0
718,76.0,0.0,90.0,6.0,0.0
719,81.0,12.0,15.0,4.0,0.0
720,61.0,0.0,90.0,1.0,0.0
721,80.0,12.0,15.0,4.0,0.0
722,81.0,12.0,15.0,4.0,0.0
723,80.0,48.0,15.0,4.0,0.0
724,73.0,0.0,60.0,0.0,0.0
725,78.0,0.0,60.0,4.0,0.0
726,80.0,48.0,90.0,8.0,0.0
727,61.0,0.0,90.0,7.0,0.0
728,80.0,0.0,90.0,2.0,0.0
729,76.0,48.0,60.0,0.0,0.0
730,64.0,0.0,90.0,5.0,0.0
731,61.0,0.0,90.0,12.0,0.0
732,61.0,0.0,90.0,3.0,0.0
733,73.0,0.0,90.0,10.0,0.0
734,64.0,0.0,90.0,11.0,0.0
735,49.0,0.0,90.0,1.0,0.0
736,80.0,0.0,90.0,4.0,0.0
737,73.0,0.0,90.0,6.0,0.0
738,80.0,0.0,60.0,0.0,0.0
739,80.0,48.0,90.0,8.0,0.0
740,60.0,0.0,90.0,3.0,0.0
741,80.0,48.0,60.0,0.0,0.0
742,60.0,0.0,90.0,7.0,0.0
743,60.0,0.0,90.0,12.0,0.0
744,80.0,0.0,90.0,2.0,0.0
745,63.0,0.0,90.0,11.0,0.0
746,63.0,0.0,90.0,5.0,0.0
747,78.0,0.0,60.0,0.0,0.0
748,72.0,0.0,60.0,4.0,0.0
749,75.0,48.0,60.0,4.0,0.0
750,56.0,0.0,90.0,12.0,0.0
751,56.0,0.0,90.0,3.0,0.0
752,80.0,0.0,90.0,10.0,0.0
753,60.0,0.0,90.0,5.0,0.0
754,56.0,0.0,90.0,7.0,0.0
755,60.0,12.0,90.0,11.0,0.0
756,80.0,0.0,90.0,8.0,0.0
757,72.0,0.0,90.0,1.0,0.0
758,80.0,0.0,90.0,6.0,0.0
759,80.0,0.0,90.0,2.0,0.0
760,80.0,0.0,90.0,0.0,0.0
761,80.0,0.0,60.0,4.0,0.0
762,81.0,12.0,15.0,4.0,0.0
763,49.0,30.0,150.0,12.0,0.0
764,78.0,0.0,20.0,10.0,0.0
765,56.0,0.0,90.0,5.0,0.0
766,73.0,0.0,90.0,1.0,0.0
767,81.0,0.0,20.0,8.0,0.0
768,81.0,0.0,20.0,2.0,0.0
769,49.0,0.0,90.0,3.0,0.0
770,78.0,0.0,20.0,6.0,0.0
771,49.0,0.0,150.0,7.0,0.0
772,56.0,0.0,90.0,11.0,0.0
773,80.0,12.0,15.0,4.0,0.0
774,76.0,0.0,20.0,10.0,0.0
775,76.0,0.0,20.0,6.0,0.0
776,81.0,12.0,15.0,4.0,0.0
777,80.0,0.0,20.0,8.0,0.0
778,80.0,24.0,20.0,2.0,0.0
779,80.0,0.0,15.0,4.0,0.0
780,81.0,0.0,20.0,8.0,0.0
781,81.0,0.0,20.0,2.0,0.0
782,78.0,24.0,20.0,6.0,0.0
783,78.0,0.0,20.0,10.0,0.0
784,78.0,0.0,60.0,4.0,0.0
785,76.0,0.0,20.0,10.0,0.0
786,80.0,0.0,20.0,8.0,0.0
787,80.0,48.0,20.0,2.0,0.0
788,76.0,0.0,20.0,6.0,0.0
789,73.0,18.0,60.0,10.0,0.0
790,61.0,0.0,90.0,3.0,0.0
791,80.0,0.0,90.0,0.0,0.0
792,68.0,0.0,90.0,1.0,0.0
793,76.0,0.0,60.0,8.0,0.0
794,68.0,0.0,90.0,11.0,0.0
795,80.0,96.0,90.0,4.0,0.0
796,73.0,0.0,60.0,6.0,0.0
797,76.0,0.0,60.0,2.0,0.0
798,64.0,0.0,90.0,5.0,0.0
799,75.0,0.0,60.0,6.0,0.0
800,78.0,0.0,60.0,2.0,0.0
801,75.0,0.0,60.0,10.0,0.0
802,78.0,0.0,60.0,8.0,0.0
803,80.0,0.0,90.0,2.0,0.0
804,76.0,0.0,90.0,10.0,0.0
805,64.0,0.0,90.0,11.0,0.0
806,49.0,0.0,150.0,3.0,0.0
807,64.0,66.0,90.0,1.0,0.0
808,85.0,0.0,150.0,0.0,0.0
809,76.0,0.0,90.0,6.0,0.0
810,61.0,30.0,150.0,5.0,0.0
811,80.0,0.0,90.0,8.0,0.0
812,61.0,0.0,90.0,1.0,0.0
813,80.0,0.0,90.0,2.0,0.0
814,80.0,0.0,90.0,8.0,0.0
815,61.0,24.0,90.0,7.0,0.0
816,76.0,0.0,90.0,10.0,0.0
817,61.0,0.0,90.0,11.0,0.0
818,80.0,0.0,90.0,4.0,0.0
819,76.0,0.0,90.0,6.0,0.0
820,78.0,0.0,20.0,6.0,0.0
821,81.0,0.0,20.0,2.0,0.0
822,85.0,0.0,150.0,4.0,0.0
823,49.0,30.0,150.0,12.0,0.0
824,56.0,48.0,90.0,11.0,0.0
825,49.0,0.0,150.0,7.0,0.0
826,81.0,0.0,20.0,8.0,0.0
827,64.0,0.0,90.0,1.0,0.0
828,78.0,24.0,20.0,10.0,0.0
829,76.0,0.0,20.0,10.0,0.0
830,76.0,0.0,20.0,6.0,0.0
831,80.0,0.0,20.0,2.0,0.0
832,80.0,24.0,20.0,8.0,0.0
833,78.0,24.0,20.0,10.0,0.0
834,78.0,0.0,20.0,6.0,0.0
835,81.0,0.0,20.0,8.0,0.0
836,81.0,0.0,20.0,2.0,0.0
837,76.0,0.0,20.0,10.0,0.0
838,80.0,0.0,20.0,2.0,0.0
839,76.0,0.0,20.0,6.0,0.0
840,80.0,0.0,20.0,8.0,0.0
841,61.0,0.0,90.0,3.0,0.0
842,76.0,0.0,60.0,8.0,0.0
843,64.0,0.0,90.0,5.0,0.0
844,76.0,18.0,60.0,2.0,0.0
845,68.0,0.0,90.0,1.0,0.0
846,68.0,0.0,90.0,11.0,0.0
847,73.0,0.0,60.0,6.0,0.0
848,73.0,0.0,60.0,10.0,0.0
849,80.0,96.0,90.0,0.0,0.0
850,75.0,0.0,60.0,10.0,0.0
851,75.0,0.0,60.0,6.0,0.0
852,78.0,0.0,60.0,2.0,0.0
853,78.0,0.0,60.0,8.0,0.0
854,80.0,0.0,90.0,2.0,0.0
855,64.0,0.0,90.0,11.0,0.0
856,49.0,30.0,150.0,3.0,0.0
857,76.0,0.0,90.0,6.0,0.0
858,76.0,0.0,90.0,10.0,0.0
859,80.0,48.0,90.0,8.0,0.0
860,64.0,0.0,90.0,1.0,0.0
861,61.0,0.0,150.0,5.0,0.0
862,85.0,0.0,150.0,0.0,0.0
863,80.0,0.0,90.0,2.0,0.0
864,61.0,18.0,60.0,1.0,0.0
865,61.0,0.0,90.0,7.0,0.0
866,76.0,0.0,90.0,10.0,0.0
867,80.0,0.0,90.0,8.0,0.0
868,76.0,48.0,90.0,6.0,0.0
869,61.0,0.0,90.0,11.0,0.0
870,80.0,0.0,90.0,4.0,0.0
871,63.0,0.0,60.0,1.0,0.0
872,80.0,0.0,90.0,2.0,0.0
873,56.0,0.0,90.0,11.0,0.0
874,49.0,0.0,90.0,12.0,0.0
875,85.0,30.0,150.0,4.0,0.0
876,49.0,48.0,90.0,7.0,0.0
877,64.0,48.0,60.0,1.0,0.0
878,76.0,0.0,90.0,6.0,0.0
879,80.0,0.0,90.0,8.0,0.0
880,76.0,0.0,90.0,10.0,0.0
881,66.0,0.0,60.0,1.0,0.0
882,76.0,0.0,90.0,6.0,0.0
883,61.0,0.0,90.0,11.0,0.0
884,61.0,0.0,60.0,12.0,0.0
885,61.0,18.0,60.0,3.0,0.0
886,76.0,0.0,90.0,10.0,0.0
887,80.0,0.0,90.0,2.0,0.0
888,80.0,0.0,90.0,0.0,0.0
889,64.0,0.0,90.0,5.0,0.0
890,61.0,0.0,60.0,7.0,0.0
891,80.0,24.0,90.0,8.0,0.0
892,68.0,0.0,60.0,1.0,0.0
893,66.0,0.0,60.0,1.0,0.0
894,60.0,0.0,60.0,12.0,0.0
895,60.0,0.0,60.0,3.0,0.0
896,60.0,0.0,60.0,7.0,0.0
897,64.0,0.0,90.0,11.0,0.0
898,61.0,0.0,90.0,5.0,0.0
899,61.0,0.0,90.0,7.0,0.0
900,61.0,48.0,90.0,12.0,0.0
901,78.0,0.0,20.0,10.0,0.0
902,78.0,0.0,20.0,6.0,0.0
903,64.0,0.0,60.0,1.0,0.0
904,81.0,0.0,20.0,8.0,0.0
905,61.0,0.0,90.0,3.0,0.0
906,85.0,0.0,60.0,0.0,0.0
907,81.0,24.0,20.0,2.0,0.0
908,80.0,0.0,20.0,2.0,0.0
909,76.0,24.0,20.0,10.0,0.0
910,80.0,0.0,20.0,8.0,0.0
911,76.0,0.0,20.0,6.0,0.0
912,73.0,0.0,60.0,4.0,0.0
913,81.0,24.0,20.0,8.0,0.0
914,68.0,0.0,60.0,1.0,0.0
915,81.0,0.0,20.0,2.0,0.0
916,78.0,0.0,20.0,10.0,0.0
917,76.0,0.0,60.0,0.0,0.0
918,78.0,0.0,20.0,6.0,0.0
919,76.0,0.0,20.0,10.0,0.0
920,80.0,0.0,20.0,8.0,0.0
921,80.0,0.0,20.0,2.0,0.0
922,76.0,0.0,20.0,6.0,0.0
923,56.0,0.0,90.0,5.0,0.0
924,75.0,0.0,60.0,6.0,0.0
925,69.0,0.0,60.0,1.0,0.0
926,78.0,48.0,60.0,0.0,0.0
927,78.0,0.0,60.0,8.0,0.0
928,75.0,0.0,60.0,10.0,0.0
929,49.0,0.0,90.0,7.0,0.0
930,49.0,48.0,90.0,3.0,0.0
931,78.0,0.0,60.0,2.0,0.0
932,68.0,0.0,90.0,11.0,0.0
933,49.0,0.0,90.0,12.0,0.0
934,75.0,0.0,60.0,4.0,0.0
935,80.0,0.0,60.0,0.0,0.0
936,73.0,0.0,60.0,10.0,0.0
937,73.0,0.0,60.0,6.0,0.0
938,76.0,0.0,60.0,8.0,0.0
939,68.0,0.0,60.0,1.0,0.0
940,76.0,0.0,60.0,2.0,0.0
941,76.0,0.0,60.0,4.0,0.0
942,56.0,0.0,150.0,12.0,0.0
943,68.0,0.0,150.0,5.0,0.0
944,56.0,0.0,90.0,7.0,0.0
945,75.0,0.0,90.0,0.0,0.0
946,56.0,30.0,150.0,3.0,0.0
947,72.0,0.0,150.0,10.0,0.0
948,72.0,0.0,150.0,6.0,0.0
949,68.0,0.0,150.0,11.0,0.0
950,75.0,48.0,90.0,2.0,0.0
951,56.0,48.0,60.0,1.0,0.0
952,72.0,0.0,150.0,4.0,0.0
953,75.0,0.0,90.0,8.0,0.0
954,68.0,0.0,60.0,1.0,0.0
955,68.0,0.0,90.0,8.0,0.0
956,66.0,18.0,60.0,1.0,0.0
957,68.0,0.0,90.0,0.0,0.0
958,58.0,0.0,90.0,7.0,0.0
959,68.0,48.0,90.0,2.0,0.0
960,64.0,0.0,60.0,1.0,0.0
961,60.0,0.0,90.0,7.0,0.0
962,63.0,48.0,60.0,1.0,0.0
963,66.0,48.0,60.0,1.0,0.0
964,72.0,0.0,60.0,0.0,0.0
965,75.0,0.0,60.0,6.0,0.0
966,73.0,0.0,60.0,0.0,0.0
967,64.0,0.0,60.0,1.0,0.0
968,76.0,48.0,60.0,6.0,0.0
969,56.0,48.0,90.0,7.0,0.0
970,78.0,0.0,60.0,6.0,0.0
971,75.0,0.0,60.0,0.0,0.0
972,63.0,0.0,60.0,1.0,0.0
973,61.0,30.0,150.0,1.0,0.0
974,76.0,0.0,60.0,0.0,0.0
975,49.0,0.0,90.0,7.0,0.0
976,76.0,48.0,60.0,6.0,0.0
977,75.0,0.0,60.0,6.0,0.0
978,78.0,48.0,60.0,0.0,0.0
979,80.0,0.0,90.0,0.0,0.0
980,73.0,18.0,60.0,6.0,0.0
981,61.0,48.0,90.0,7.0,0.0
982,76.0,0.0,60.0,6.0,0.0
983,80.0,48.0,60.0,6.0,0.0
984,60.0,0.0,90.0,7.0,0.0
985,75.0,48.0,60.0,6.0,0.0
986,56.0,0.0,90.0,7.0,0.0
987,76.0,48.0,60.0,6.0,0.0
988,78.0,48.0,60.0,6.0,0.0
989,76.0,48.0,60.0,6.0,0.0
990,49.0,48.0,90.0,7.0,0.0
991,75.0,0.0,60.0,6.0,0.0
992,61.0,48.0,90.0,7.0,0.0
993,73.0,48.0,60.0,6.0,0.0
994,76.0,0.0,60.0,6.0,0.0
995,60.0,48.0,90.0,7.0,0.0
996,80.0,48.0,60.0,6.0,0.0
997,75.0,0.0,60.0,6.0,0.0
998,56.0,48.0,90.0,7.0,0.0
999,76.0,48.0,60.0,6.0,0.0
1000,78.0,0.0,60.0,6.0,0.0
1001,76.0,48.0,60.0,6.0,0.0
1002,49.0,48.0,90.0,7.0,0.0
1003,75.0,0.0,60.0,6.0,0.0
1004,73.0,48.0,60.0,6.0,0.0
1005,61.0,48.0,90.0,7.0,0.0
1006,76.0,0.0,60.0,6.0,0.0
1007,80.0,48.0,60.0,6.0,0.0
1008,60.0,0.0,90.0,7.0,0.0
1009,75.0,48.0,60.0,6.0,0.0
1010,76.0,48.0,60.0,6.0,0.0
1011,56.0,0.0,90.0,7.0,0.0
1012,78.0,48.0,60.0,6.0,0.0
1013,76.0,48.0,60.0,6.0,0.0
1014,49.0,0.0,90.0,7.0,0.0
1015,73.0,48.0,60.0,6.0,0.0
1016,61.0,48.0,90.0,7.0,0.0
1017,76.0,48.0,60.0,6.0,0.0
1018,80.0,0.0,60.0,6.0,0.0
1019,64.0,0.0,90.0,7.0,0.0
1020,85.0,48.0,60.0,6.0,0.0
1021,73.0,48.0,60.0,6.0,0.0
1022,76.0,48.0,60.0,6.0,0.0
1023,61.0,0.0,90.0,7.0,0.0
1024,80.0,48.0,60.0,6.0,0.0
1025,49.0,0.0,90.0,7.0,0.0
1026,85.0,48.0,60.0,6.0,0.0
1027,73.0,48.0,60.0,6.0,0.0
1028,61.0,0.0,90.0,7.0,0.0
1029,76.0,48.0,60.0,6.0,0.0
1030,80.0,48.0,60.0,6.0,0.0
1031,64.0,0.0,90.0,7.0,0.0
1032,85.0,48.0,60.0,6.0,0.0
1033,83.0,48.0,60.0,6.0,0.0
1034,81.0,48.0,60.0,6.0,0.0
1035,61.0,48.0,90.0,7.0,0.0
1036,80.0,0.0,60.0,6.0,0.0
1037,81.0,48.0,60.0,6.0,0.0
1038,54.0,48.0,90.0,7.0,0.0
1039,78.0,0.0,60.0,6.0,0.0
1040,76.0,48.0,60.0,6.0,0.0
1041,66.0,0.0,90.0,7.0,0.0
1042,78.0,48.0,60.0,6.0,0.0
1043,83.0,48.0,60.0,6.0,0.0
1044,63.0,48.0,90.0,7.0,0.0
1045,81.0,0.0,60.0,6.0,0.0
1046,80.0,48.0,60.0,6.0,0.0
1047,59.0,48.0,90.0,7.0,0.0
1048,78.0,0.0,60.0,6.0,0.0
1049,52.0,0.0,90.0,7.0,0.0
1050,80.0,48.0,60.0,6.0,0.0
1051,76.0,48.0,60.0,6.0,0.0
1052,64.0,48.0,90.0,7.0,0.0
1053,75.0,48.0,60.0,6.0,0.0
1054,76.0,0.0,60.0,6.0,0.0
1055,81.0,48.0,60.0,6.0,0.0
1056,61.0,48.0,90.0,7.0,0.0
1057,80.0,0.0,60.0,6.0,0.0
1058,57.0,0.0,90.0,7.0,0.0
1059,78.0,48.0,60.0,6.0,0.0
1060,76.0,48.0,60.0,6.0,0.0
1061,51.0,48.0,90.0,7.0,0.0
1062,78.0,48.0,60.0,6.0,0.0
1063,75.0,0.0,60.0,6.0,0.0
1064,73.0,48.0,60.0,6.0,0.0
1065,63.0,0.0,90.0,7.0,0.0
1066,75.0,48.0,60.0,6.0,0.0
1067,75.0,30.0,150.0,10.0,0.0
1068,60.0,0.0,90.0,7.0,0.0
1069,80.0,48.0,60.0,6.0,0.0
1070,78.0,48.0,60.0,6.0,0.0
1071,68.0,0.0,60.0,1.0,0.0
1072,56.0,0.0,90.0,12.0,0.0
1073,70.0,18.0,60.0,1.0,0.0
1074,76.0,0.0,60.0,6.0,0.0
1075,56.0,0.0,90.0,7.0,0.0
1076,75.0,24.0,60.0,6.0,0.0
1077,72.0,0.0,60.0,1.0,0.0
1078,61.0,0.0,90.0,7.0,0.0
1079,61.0,0.0,90.0,12.0,0.0
1080,76.0,22.0,720.0,10.0,0.0
1081,85.0,0.0,60.0,0.0,0.0
1082,73.0,0.0,90.0,1.0,0.0
1083,78.0,24.0,20.0,6.0,0.0
1084,76.0,24.0,20.0,6.0,0.0
1085,78.0,24.0,20.0,6.0,0.0
1086,80.0,24.0,60.0,0.0,0.0
1087,76.0,0.0,20.0,6.0,0.0
1088,49.0,0.0,90.0,7.0,0.0
1089,56.0,0.0,90.0,5.0,0.0
1090,68.0,0.0,90.0,1.0,0.0
1091,78.0,24.0,20.0,6.0,0.0
1092,76.0,0.0,60.0,0.0,0.0
1093,49.0,0.0,90.0,12.0,0.0
1094,68.0,0.0,90.0,11.0,0.0
1095,76.0,24.0,20.0,6.0,0.0
1096,85.0,0.0,60.0,0.0,0.0
1097,78.0,24.0,20.0,6.0,0.0
1098,76.0,24.0,20.0,6.0,0.0
1099,78.0,24.0,20.0,6.0,0.0
1100,80.0,6.0,150.0,4.0,0.0
1101,80.0,0.0,150.0,8.0,0.0
1102,61.0,24.0,90.0,5.0,0.0
1103,64.0,0.0,90.0,1.0,0.0
1104,64.0,0.0,90.0,11.0,0.0
1105,85.0,24.0,60.0,0.0,0.0
1106,76.0,0.0,20.0,6.0,0.0
1107,64.0,0.0,60.0,3.0,0.0
1108,80.0,0.0,60.0,0.0,0.0
1109,78.0,24.0,20.0,6.0,0.0
1110,76.0,0.0,20.0,6.0,0.0
1111,78.0,24.0,20.0,6.0,0.0
1112,61.0,0.0,90.0,1.0,0.0
1113,76.0,18.0,60.0,0.0,0.0
1114,49.0,24.0,90.0,12.0,0.0
1115,49.0,0.0,90.0,5.0,0.0
1116,63.0,0.0,60.0,3.0,0.0
1117,49.0,0.0,90.0,7.0,0.0
1118,61.0,0.0,90.0,11.0,0.0
1119,76.0,0.0,20.0,6.0,0.0
1120,85.0,0.0,60.0,0.0,0.0
1121,78.0,24.0,20.0,6.0,0.0
1122,64.0,0.0,60.0,3.0,0.0
1123,76.0,0.0,20.0,6.0,0.0
1124,78.0,0.0,60.0,2.0,0.0
1125,69.0,24.0,60.0,1.0,0.0
1126,81.0,22.0,720.0,8.0,0.0
1127,54.0,0.0,90.0,12.0,0.0
1128,66.0,0.0,90.0,3.0,0.0
1129,85.0,0.0,90.0,0.0,0.0
1130,54.0,24.0,90.0,7.0,0.0
1131,78.0,24.0,20.0,6.0,0.0
1132,83.0,0.0,20.0,4.0,0.0
1133,76.0,0.0,20.0,6.0,0.0
1134,81.0,0.0,20.0,4.0,0.0
1135,73.0,0.0,60.0,2.0,0.0
1136,78.0,24.0,20.0,6.0,0.0
1137,68.0,0.0,60.0,1.0,0.0
1138,83.0,0.0,20.0,4.0,0.0
1139,81.0,0.0,20.0,4.0,0.0
1140,76.0,0.0,20.0,6.0,0.0
1141,42.0,0.0,90.0,12.0,0.0
1142,78.0,24.0,20.0,6.0,0.0
1143,61.0,0.0,90.0,11.0,0.0
1144,61.0,0.0,90.0,3.0,0.0
1145,83.0,0.0,20.0,4.0,0.0
1146,42.0,0.0,90.0,7.0,0.0
1147,78.0,0.0,90.0,0.0,0.0
1148,69.0,0.0,90.0,1.0,0.0
1149,61.0,0.0,90.0,5.0,0.0
1150,69.0,24.0,60.0,2.0,0.0
1151,76.0,0.0,20.0,6.0,0.0
1152,81.0,0.0,20.0,4.0,0.0
1153,78.0,24.0,20.0,6.0,0.0
1154,83.0,0.0,20.0,4.0,0.0
1155,78.0,0.0,60.0,2.0,0.0
1156,81.0,0.0,20.0,4.0,0.0
1157,76.0,24.0,20.0,6.0,0.0
1158,66.0,0.0,90.0,5.0,0.0
1159,81.0,0.0,90.0,0.0,0.0
1160,78.0,0.0,60.0,2.0,0.0
1161,78.0,0.0,20.0,6.0,0.0
1162,57.0,0.0,90.0,3.0,0.0
1163,66.0,0.0,90.0,11.0,0.0
1164,83.0,24.0,20.0,4.0,0.0
1165,76.0,24.0,20.0,6.0,0.0
1166,81.0,0.0,20.0,4.0,0.0
1167,73.0,0.0,60.0,2.0,0.0
1168,78.0,24.0,20.0,6.0,0.0
1169,83.0,0.0,20.0,4.0,0.0
1170,76.0,0.0,20.0,6.0,0.0
1171,81.0,24.0,20.0,4.0,0.0
1172,54.0,0.0,90.0,3.0,0.0
1173,69.0,0.0,90.0,11.0,0.0
1174,54.0,0.0,90.0,5.0,0.0
1175,85.0,0.0,90.0,0.0,0.0
1176,54.0,24.0,90.0,7.0,0.0
1177,71.0,24.0,20.0,1.0,0.0
1178,83.0,0.0,20.0,4.0,0.0
1179,54.0,0.0,90.0,12.0,0.0
1180,69.0,0.0,60.0,2.0,0.0
1181,78.0,0.0,20.0,6.0,0.0
1182,81.0,0.0,20.0,4.0,0.0
1183,76.0,2.0,20.0,6.0,0.0
1184,69.0,0.0,20.0,1.0,0.0
1185,78.0,0.0,60.0,2.0,0.0
1186,71.0,0.0,20.0,1.0,0.0
1187,78.0,0.0,20.0,6.0,0.0
1188,83.0,24.0,20.0,4.0,0.0
1189,69.0,0.0,20.0,1.0,0.0
1190,76.0,0.0,20.0,6.0,0.0
1191,81.0,0.0,20.0,4.0,0.0
1192,78.0,0.0,90.0,2.0,0.0
1193,71.0,0.0,90.0,1.0,0.0
1194,63.0,0.0,60.0,3.0,0.0
1195,75.0,22.0,720.0,10.0,0.0
1196,76.0,24.0,20.0,6.0,0.0
1197,59.0,24.0,90.0,7.0,0.0
1198,83.0,24.0,60.0,0.0,0.0
1199,59.0,0.0,90.0,12.0,0.0
1200,83.0,0.0,20.0,4.0,0.0
1201,81.0,0.0,20.0,4.0,0.0
1202,75.0,0.0,20.0,6.0,0.0
1203,83.0,24.0,20.0,4.0,0.0
1204,78.0,0.0,60.0,0.0,0.0
1205,61.0,0.0,60.0,3.0,0.0
1206,76.0,0.0,20.0,6.0,0.0
1207,75.0,0.0,20.0,6.0,0.0
1208,81.0,0.0,20.0,4.0,0.0
1209,66.0,0.0,90.0,1.0,0.0
1210,75.0,0.0,60.0,0.0,0.0
1211,76.0,24.0,20.0,6.0,0.0
1212,83.0,0.0,20.0,4.0,0.0
1213,54.0,0.0,90.0,5.0,0.0
1214,66.0,0.0,90.0,11.0,0.0
1215,63.0,0.0,90.0,3.0,0.0
1216,71.0,0.0,90.0,2.0,0.0
1217,47.0,24.0,90.0,7.0,0.0
1218,47.0,0.0,90.0,12.0,0.0
1219,81.0,24.0,20.0,4.0,0.0
1220,75.0,0.0,20.0,6.0,0.0
1221,83.0,0.0,20.0,4.0,0.0
1222,76.0,24.0,20.0,6.0,0.0
1223,83.0,0.0,60.0,0.0,0.0
1224,81.0,0.0,20.0,4.0,0.0
1225,75.0,0.0,20.0,6.0,0.0
1226,76.0,24.0,20.0,6.0,0.0
1227,75.0,0.0,90.0,2.0,0.0
1228,63.0,0.0,90.0,11.0,0.0
1229,63.0,0.0,90.0,1.0,0.0
1230,83.0,0.0,60.0,0.0,0.0
1231,83.0,0.0,20.0,4.0,0.0
1232,59.0,0.0,90.0,5.0,0.0
1233,81.0,24.0,20.0,4.0,0.0
1234,75.0,0.0,20.0,6.0,0.0
1235,78.0,0.0,60.0,0.0,0.0
1236,83.0,24.0,20.0,4.0,0.0
1237,76.0,0.0,20.0,6.0,0.0
1238,81.0,24.0,20.0,4.0,0.0
1239,75.0,0.0,20.0,6.0,0.0
1240,75.0,0.0,60.0,0.0,0.0
1241,78.0,0.0,90.0,2.0,0.0
1242,64.0,24.0,20.0,3.0,0.0
1243,59.0,0.0,90.0,11.0,0.0
1244,47.0,0.0,90.0,12.0,0.0
1245,59.0,0.0,90.0,1.0,0.0
1246,47.0,0.0,90.0,5.0,0.0
1247,47.0,0.0,90.0,7.0,0.0
1248,76.0,0.0,20.0,6.0,0.0
1249,83.0,0.0,20.0,4.0,0.0
1250,75.0,0.0,20.0,6.0,0.0
1251,63.0,2.0,20.0,3.0,0.0
1252,81.0,0.0,20.0,4.0,0.0
1253,83.0,0.0,60.0,0.0,0.0
1254,83.0,24.0,20.0,4.0,0.0
1255,64.0,0.0,20.0,3.0,0.0
1256,76.0,0.0,20.0,6.0,0.0
1257,81.0,0.0,20.0,4.0,0.0
1258,63.0,0.0,20.0,3.0,0.0
1259,75.0,24.0,20.0,6.0,0.0
1260,83.0,0.0,90.0,0.0,0.0
1261,68.0,24.0,60.0,1.0,0.0
1262,76.0,24.0,20.0,6.0,0.0
1263,52.0,0.0,90.0,12.0,0.0
1264,52.0,0.0,90.0,7.0,0.0
1265,76.0,0.0,60.0,2.0,0.0
1266,81.0,0.0,20.0,4.0,0.0
1267,80.0,22.0,720.0,8.0,0.0
1268,64.0,0.0,90.0,3.0,0.0
1269,75.0,0.0,20.0,6.0,0.0
1270,80.0,0.0,20.0,4.0,0.0
1271,71.0,24.0,60.0,2.0,0.0
1272,66.0,0.0,60.0,1.0,0.0
1273,76.0,0.0,20.0,6.0,0.0
1274,81.0,24.0,20.0,4.0,0.0
1275,75.0,0.0,20.0,6.0,0.0
1276,80.0,0.0,20.0,4.0,0.0
1277,76.0,0.0,20.0,6.0,0.0
1278,59.0,0.0,90.0,5.0,0.0
1279,59.0,0.0,90.0,11.0,0.0
1280,40.0,0.0,90.0,12.0,0.0
1281,59.0,24.0,90.0,3.0,0.0
1282,68.0,0.0,60.0,2.0,0.0
1283,40.0,0.0,90.0,7.0,0.0
1284,81.0,24.0,20.0,4.0,0.0
1285,76.0,0.0,90.0,0.0,0.0
1286,68.0,0.0,90.0,1.0,0.0
1287,75.0,0.0,20.0,6.0,0.0
1288,80.0,24.0,20.0,4.0,0.0
1289,76.0,0.0,60.0,2.0,0.0
1290,81.0,24.0,20.0,4.0,0.0
1291,76.0,0.0,20.0,6.0,0.0
1292,75.0,0.0,20.0,6.0,0.0
1293,80.0,0.0,20.0,4.0,0.0
1294,76.0,0.0,20.0,6.0,0.0
1295,64.0,24.0,90.0,11.0,0.0
1296,80.0,0.0,90.0,0.0,0.0
1297,81.0,24.0,20.0,4.0,0.0
1298,64.0,0.0,90.0,5.0,0.0
1299,56.0,0.0,90.0,3.0,0.0
1300,76.0,0.0,60.0,2.0,0.0
1301,80.0,24.0,20.0,4.0,0.0
1302,75.0,0.0,20.0,6.0,0.0
1303,71.0,0.0,60.0,2.0,0.0
1304,81.0,0.0,20.0,4.0,0.0
1305,76.0,24.0,20.0,6.0,0.0
1306,80.0,0.0,20.0,4.0,0.0
1307,75.0,0.0,20.0,6.0,0.0
1308,68.0,0.0,60.0,2.0,0.0
1309,52.0,0.0,90.0,7.0,0.0
1310,81.0,0.0,20.0,4.0,0.0
1311,83.0,0.0,90.0,0.0,0.0
1312,52.0,0.0,90.0,3.0,0.0
1313,52.0,0.0,90.0,5.0,0.0
1314,69.0,0.0,20.0,1.0,0.0
1315,76.0,24.0,20.0,6.0,0.0
1316,68.0,0.0,90.0,11.0,0.0
1317,52.0,0.0,90.0,12.0,0.0
1318,68.0,2.0,20.0,1.0,0.0
1319,75.0,0.0,20.0,6.0,0.0
1320,80.0,0.0,20.0,4.0,0.0
1321,76.0,0.0,20.0,6.0,0.0
1322,76.0,0.0,60.0,2.0,0.0
1323,81.0,24.0,20.0,4.0,0.0
1324,69.0,0.0,20.0,1.0,0.0
1325,75.0,0.0,20.0,6.0,0.0
1326,80.0,0.0,20.0,4.0,0.0
1327,68.0,24.0,20.0,1.0,0.0
1328,69.0,0.0,90.0,1.0,0.0
1329,76.0,24.0,90.0,2.0,0.0
1330,61.0,24.0,60.0,3.0,0.0
1331,73.0,22.0,720.0,10.0,0.0
1332,57.0,0.0,90.0,12.0,0.0
1333,57.0,0.0,90.0,7.0,0.0
1334,75.0,0.0,20.0,6.0,0.0
1335,81.0,0.0,60.0,0.0,0.0
1336,81.0,24.0,20.0,4.0,0.0
1337,73.0,0.0,20.0,6.0,0.0
1338,80.0,0.0,20.0,4.0,0.0
1339,76.0,0.0,60.0,0.0,0.0
1340,60.0,0.0,60.0,3.0,0.0
1341,81.0,24.0,20.0,4.0,0.0
1342,75.0,0.0,20.0,6.0,0.0
1343,73.0,0.0,20.0,6.0,0.0
1344,80.0,0.0,20.0,4.0,0.0
1345,64.0,0.0,90.0,1.0,0.0
1346,52.0,0.0,90.0,5.0,0.0
1347,61.0,24.0,90.0,3.0,0.0
1348,45.0,0.0,90.0,7.0,0.0
1349,73.0,0.0,60.0,0.0,0.0
1350,69.0,0.0,90.0,2.0,0.0
1351,45.0,0.0,90.0,12.0,0.0
1352,75.0,24.0,20.0,6.0,0.0
1353,81.0,0.0,20.0,4.0,0.0
1354,64.0,0.0,90.0,11.0,0.0
1355,73.0,24.0,20.0,6.0,0.0
1356,80.0,0.0,20.0,4.0,0.0
1357,81.0,24.0,20.0,4.0,0.0
1358,75.0,0.0,20.0,6.0,0.0
1359,81.0,0.0,60.0,0.0,0.0
1360,80.0,0.0,20.0,4.0,0.0
1361,73.0,0.0,20.0,6.0,0.0
1362,75.0,0.0,20.0,6.0,0.0
1363,61.0,0.0,90.0,11.0,0.0
1364,61.0,0.0,90.0,1.0,0.0
1365,81.0,24.0,20.0,4.0,0.0
1366,81.0,0.0,60.0,0.0,0.0
1367,57.0,24.0,90.0,5.0,0.0
1368,73.0,0.0,90.0,2.0,0.0
1369,80.0,24.0,20.0,4.0,0.0
1370,73.0,0.0,20.0,6.0,0.0
1371,76.0,0.0,60.0,0.0,0.0
1372,81.0,0.0,20.0,4.0,0.0
1373,75.0,24.0,20.0,6.0,0.0
1374,80.0,0.0,20.0,4.0,0.0
1375,73.0,0.0,20.0,6.0,0.0
1376,57.0,24.0,90.0,1.0,0.0
1377,81.0,0.0,20.0,4.0,0.0
1378,57.0,0.0,90.0,7.0,0.0
1379,76.0,0.0,90.0,2.0,0.0
1380,63.0,24.0,20.0,3.0,0.0
1381,57.0,0.0,90.0,12.0,0.0
1382,45.0,0.0,90.0,5.0,0.0
1383,75.0,0.0,20.0,6.0,0.0
1384,57.0,0.0,90.0,11.0,0.0
1385,73.0,0.0,60.0,0.0,0.0
1386,73.0,0.0,20.0,6.0,0.0
1387,80.0,2.0,20.0,4.0,0.0
1388,61.0,0.0,20.0,3.0,0.0
1389,75.0,0.0,20.0,6.0,0.0
1390,63.0,0.0,20.0,3.0,0.0
1391,81.0,0.0,60.0,0.0,0.0
1392,81.0,24.0,20.0,4.0,0.0
1393,73.0,0.0,20.0,6.0,0.0
1394,61.0,0.0,20.0,3.0,0.0
1395,80.0,0.0,20.0,4.0,0.0
1396,75.0,24.0,60.0,2.0,0.0
1397,75.0,0.0,20.0,6.0,0.0
1398,51.0,0.0,90.0,12.0,0.0
1399,80.0,24.0,20.0,4.0,0.0
1400,63.0,0.0,90.0,3.0,0.0
1401,66.0,0.0,60.0,1.0,0.0
1402,81.0,0.0,90.0,0.0,0.0
1403,78.0,0.0,720.0,8.0,0.0
1404,51.0,0.0,90.0,7.0,0.0
1405,78.0,0.0,20.0,4.0,0.0
1406,73.0,0.0,20.0,6.0,0.0
1407,64.0,24.0,60.0,1.0,0.0
1408,80.0,0.0,20.0,4.0,0.0
1409,75.0,24.0,20.0,6.0,0.0
1410,69.0,0.0,60.0,2.0,0.0
1411,78.0,0.0,20.0,4.0,0.0
1412,73.0,0.0,20.0,6.0,0.0
1413,75.0,0.0,20.0,6.0,0.0
1414,66.0,24.0,60.0,2.0,0.0
1415,66.0,0.0,90.0,1.0,0.0
1416,75.0,0.0,90.0,0.0,0.0
1417,63.0,0.0,90.0,12.0,0.0
1418,63.0,0.0,90.0,7.0,0.0
1419,80.0,24.0,20.0,4.0,0.0
1420,57.0,0.0,90.0,11.0,0.0
1421,57.0,0.0,90.0,3.0,0.0
1422,57.0,24.0,90.0,5.0,0.0
1423,78.0,0.0,20.0,4.0,0.0
1424,73.0,0.0,20.0,6.0,0.0
1425,75.0,0.0,60.0,2.0,0.0
1426,80.0,0.0,20.0,4.0,0.0
1427,75.0,24.0,20.0,6.0,0.0
1428,78.0,0.0,20.0,4.0,0.0
1429,73.0,0.0,20.0,6.0,0.0
1430,80.0,0.0,20.0,4.0,0.0
1431,63.0,0.0,90.0,11.0,0.0
1432,51.0,0.0,90.0,5.0,0.0
1433,78.0,0.0,90.0,0.0,0.0
1434,54.0,24.0,90.0,3.0,0.0
1435,75.0,24.0,20.0,6.0,0.0
1436,75.0,24.0,60.0,2.0,0.0
1437,78.0,0.0,20.0,4.0,0.0
1438,73.0,0.0,20.0,6.0,0.0
1439,80.0,24.0,20.0,4.0,0.0
1440,69.0,0.0,60.0,2.0,0.0
1441,75.0,0.0,20.0,6.0,0.0
1442,78.0,0.0,20.0,4.0,0.0
1443,73.0,0.0,20.0,6.0,0.0
1444,68.0,24.0,20.0,1.0,0.0
1445,51.0,24.0,90.0,3.0,0.0
1446,51.0,0.0,90.0,7.0,0.0
1447,66.0,2.0,60.0,2.0,0.0
1448,66.0,0.0,90.0,11.0,0.0
1449,75.0,0.0,20.0,6.0,0.0
1450,51.0,0.0,90.0,12.0,0.0
1451,81.0,0.0,90.0,0.0,0.0
1452,80.0,0.0,20.0,4.0,0.0
1453,63.0,0.0,90.0,5.0,0.0
1454,66.0,0.0,20.0,1.0,0.0
1455,73.0,0.0,20.0,6.0,0.0
1456,78.0,0.0,20.0,4.0,0.0
1457,75.0,0.0,60.0,2.0,0.0
1458,75.0,0.0,20.0,6.0,0.0
1459,68.0,0.0,20.0,1.0,0.0
1460,80.0,24.0,20.0,4.0,0.0
1461,78.0,0.0,20.0,4.0,0.0
1462,73.0,0.0,20.0,6.0,0.0
1463,66.0,0.0,20.0,1.0,0.0
1464,73.0,0.0,20.0,6.0,0.0
1465,56.0,0.0,90.0,12.0,0.0
1466,80.0,24.0,20.0,4.0,0.0
1467,72.0,22.0,330.0,10.0,0.0
1468,68.0,0.0,90.0,1.0,0.0
1469,60.0,0.0,60.0,3.0,0.0
1470,75.0,0.0,90.0,2.0,0.0
1471,80.0,24.0,60.0,0.0,0.0
1472,56.0,0.0,90.0,7.0,0.0
1473,78.0,0.0,20.0,4.0,0.0
1474,72.0,0.0,20.0,6.0,0.0
1475,75.0,24.0,60.0,0.0,0.0
1476,58.0,0.0,60.0,3.0,0.0
1477,73.0,0.0,20.0,6.0,0.0
1478,80.0,24.0,20.0,4.0,0.0
1479,72.0,0.0,20.0,6.0,0.0
1480,78.0,0.0,20.0,4.0,0.0
1481,60.0,0.0,90.0,3.0,0.0
1482,80.0,0.0,20.0,4.0,0.0
1483,63.0,0.0,90.0,11.0,0.0
1484,63.0,0.0,90.0,1.0,0.0
1485,44.0,0.0,90.0,12.0,0.0
1486,51.0,0.0,90.0,5.0,0.0
1487,73.0,24.0,20.0,6.0,0.0
1488,72.0,0.0,60.0,0.0,0.0
1489,68.0,0.0,90.0,2.0,0.0
1490,44.0,0.0,90.0,7.0,0.0
1491,72.0,24.0,20.0,6.0,0.0
1492,78.0,0.0,20.0,4.0,0.0
1493,80.0,0.0,20.0,4.0,0.0
1494,73.0,24.0,20.0,6.0,0.0
1495,80.0,24.0,60.0,0.0,0.0
1496,72.0,0.0,20.0,6.0,0.0
1497,78.0,0.0,20.0,4.0,0.0
1498,80.0,0.0,60.0,0.0,0.0
1499,60.0,24.0,90.0,1.0,0.0
1500,80.0,24.0,20.0,4.0,0.0
1501,73.0,0.0,20.0,6.0,0.0
1502,56.0,0.0,90.0,5.0,0.0
1503,72.0,0.0,90.0,2.0,0.0
1504,60.0,0.0,90.0,11.0,0.0
1505,72.0,0.0,20.0,6.0,0.0
1506,78.0,24.0,20.0,4.0,0.0
1507,80.0,0.0,20.0,4.0,0.0
1508,75.0,0.0,60.0,0.0,0.0
1509,73.0,24.0,20.0,6.0,0.0
1510,78.0,0.0,20.0,4.0,0.0
1511,72.0,0.0,20.0,6.0,0.0
1512,75.0,0.0,90.0,2.0,0.0
1513,44.0,0.0,90.0,5.0,0.0
1514,72.0,0.0,60.0,0.0,0.0
1515,73.0,0.0,20.0,6.0,0.0
1516,56.0,0.0,90.0,12.0,0.0
1517,80.0,24.0,20.0,4.0,0.0
1518,56.0,48.0,90.0,11.0,0.0
1519,60.0,0.0,90.0,3.0,0.0
1520,56.0,0.0,90.0,1.0,0.0
1521,56.0,0.0,90.0,7.0,0.0
1522,72.0,2.0,20.0,6.0,0.0
1523,78.0,0.0,20.0,4.0,0.0
1524,80.0,0.0,20.0,4.0,0.0
1525,80.0,0.0,60.0,0.0,0.0
1526,73.0,24.0,20.0,6.0,0.0
1527,78.0,0.0,20.0,4.0,0.0
1528,72.0,0.0,20.0,6.0,0.0
1529,61.0,0.0,60.0,1.0,0.0
1530,80.0,0.0,90.0,0.0,0.0
1531,73.0,0.0,90.0,6.0,0.0
1532,49.0,0.0,60.0,7.0,0.0
1533,61.0,0.0,90.0,12.0,0.0
1534,73.0,0.0,90.0,10.0,0.0
1535,49.0,48.0,60.0,5.0,0.0
1536,76.0,0.0,90.0,8.0,0.0
1537,76.0,0.0,90.0,2.0,0.0
1538,56.0,0.0,60.0,3.0,0.0
1539,76.0,30.0,150.0,4.0,0.0
1540,60.0,48.0,60.0,1.0,0.0
1541,56.0,0.0,60.0,7.0,0.0
1542,56.0,0.0,60.0,5.0,0.0
1543,60.0,0.0,60.0,3.0,0.0
1544,68.0,0.0,60.0,11.0,0.0
1545,61.0,0.0,60.0,1.0,0.0
1546,73.0,0.0,90.0,0.0,0.0
1547,58.0,0.0,60.0,5.0,0.0
1548,61.0,0.0,60.0,3.0,0.0
1549,49.0,0.0,60.0,12.0,0.0
1550,73.0,0.0,90.0,8.0,0.0
1551,68.0,0.0,60.0,11.0,0.0
1552,68.0,0.0,90.0,10.0,0.0
1553,58.0,0.0,60.0,7.0,0.0
1554,73.0,0.0,90.0,2.0,0.0
1555,76.0,18.0,60.0,6.0,0.0
1556,63.0,0.0,60.0,1.0,0.0
1557,63.0,0.0,60.0,3.0,0.0
1558,60.0,48.0,60.0,5.0,0.0
1559,60.0,0.0,60.0,7.0,0.0
1560,68.0,0.0,60.0,11.0,0.0
1561,75.0,0.0,60.0,6.0,0.0
1562,51.0,0.0,60.0,12.0,0.0
1563,73.0,0.0,90.0,10.0,0.0
1564,68.0,0.0,60.0,11.0,0.0
1565,52.0,0.0,90.0,12.0,0.0
1566,61.0,48.0,90.0,5.0,0.0
1567,64.0,0.0,60.0,1.0,0.0
1568,73.0,0.0,90.0,6.0,0.0
1569,64.0,48.0,60.0,3.0,0.0
1570,61.0,0.0,90.0,7.0,0.0
1571,63.0,0.0,60.0,1.0,0.0
1572,63.0,0.0,60.0,3.0,0.0
1573,68.0,0.0,60.0,11.0,0.0
1574,80.0,0.0,60.0,4.0,0.0
1575,64.0,0.0,60.0,3.0,0.0
1576,80.0,0.0,60.0,4.0,0.0
1577,76.0,0.0,90.0,6.0,0.0
1578,49.0,0.0,90.0,7.0,0.0
1579,85.0,0.0,90.0,8.0,0.0
1580,85.0,0.0,90.0,0.0,0.0
1581,49.0,0.0,90.0,5.0,0.0
1582,64.0,48.0,60.0,1.0,0.0
1583,68.0,0.0,60.0,11.0,0.0
1584,49.0,48.0,90.0,12.0,0.0
1585,76.0,0.0,90.0,10.0,0.0
1586,66.0,0.0,60.0,3.0,0.0
1587,66.0,0.0,60.0,1.0,0.0
1588,68.0,0.0,60.0,11.0,0.0
1589,80.0,0.0,60.0,4.0,0.0
1590,84.0,0.0,90.0,0.0,0.0
1591,75.0,0.0,90.0,10.0,0.0
1592,75.0,30.0,150.0,6.0,0.0
1593,56.0,0.0,90.0,5.0,0.0
1594,44.0,0.0,90.0,7.0,0.0
1595,80.0,0.0,60.0,4.0,0.0
1596,68.0,0.0,90.0,3.0,0.0
1597,44.0,0.0,90.0,12.0,0.0
1598,68.0,0.0,60.0,1.0,0.0
1599,68.0,48.0,60.0,11.0,0.0
1600,84.0,0.0,90.0,8.0,0.0
1601,80.0,48.0,60.0,4.0,0.0
1602,68.0,0.0,60.0,11.0,0.0
1603,56.0,0.0,60.0,1.0,0.0
1604,60.0,0.0,60.0,1.0,0.0
1605,84.0,0.0,90.0,10.0,0.0
1606,80.0,48.0,90.0,0.0,0.0
1607,80.0,0.0,90.0,8.0,0.0
1608,84.0,0.0,90.0,2.0,0.0
1609,80.0,0.0,60.0,4.0,0.0
1610,68.0,18.0,60.0,11.0,0.0
1611,56.0,0.0,90.0,7.0,0.0
1612,63.0,0.0,90.0,3.0,0.0
1613,68.0,0.0,90.0,5.0,0.0
1614,56.0,0.0,90.0,12.0,0.0
1615,68.0,0.0,60.0,11.0,0.0
1616,80.0,0.0,60.0,4.0,0.0
1617,56.0,0.0,60.0,1.0,0.0
1618,80.0,48.0,60.0,4.0,0.0
1619,52.0,48.0,90.0,7.0,0.0
1620,52.0,0.0,90.0,12.0,0.0
1621,61.0,0.0,60.0,1.0,0.0
1622,85.0,0.0,90.0,2.0,0.0
1623,85.0,0.0,90.0,10.0,0.0
1624,68.0,0.0,60.0,11.0,0.0
1625,61.0,0.0,60.0,5.0,0.0
1626,56.0,0.0,60.0,1.0,0.0
1627,80.0,0.0,60.0,4.0,0.0
1628,68.0,0.0,60.0,11.0,0.0
1629,56.0,0.0,60.0,3.0,0.0
1630,64.0,0.0,60.0,5.0,0.0
1631,68.0,0.0,60.0,11.0,0.0
1632,85.0,0.0,90.0,8.0,0.0
1633,80.0,48.0,60.0,4.0,0.0
1634,85.0,0.0,90.0,0.0,0.0
1635,61.0,0.0,60.0,3.0,0.0
1636,76.0,0.0,90.0,10.0,0.0
1637,49.0,0.0,90.0,7.0,0.0
1638,73.0,0.0,90.0,2.0,0.0
1639,49.0,0.0,90.0,12.0,0.0
1640,52.0,0.0,60.0,1.0,0.0
1641,76.0,0.0,90.0,6.0,0.0
1642,64.0,0.0,60.0,3.0,0.0
1643,68.0,0.0,60.0,5.0,0.0
1644,68.0,0.0,60.0,11.0,0.0
1645,80.0,0.0,60.0,4.0,0.0
1646,49.0,48.0,60.0,1.0,0.0
1647,44.0,48.0,60.0,1.0,0.0
1648,56.0,0.0,90.0,5.0,0.0
1649,80.0,0.0,60.0,4.0,0.0
1650,84.0,0.0,90.0,0.0,0.0
1651,68.0,0.0,60.0,11.0,0.0
1652,84.0,0.0,90.0,8.0,0.0
1653,68.0,0.0,90.0,3.0,0.0
1654,75.0,0.0,90.0,10.0,0.0
1655,75.0,30.0,150.0,6.0,0.0
1656,80.0,0.0,60.0,4.0,0.0
1657,56.0,0.0,60.0,1.0,0.0
1658,68.0,48.0,60.0,11.0,0.0
1659,56.0,0.0,90.0,12.0,0.0
1660,68.0,0.0,60.0,11.0,0.0
1661,63.0,0.0,90.0,3.0,0.0
1662,56.0,0.0,90.0,7.0,0.0
1663,80.0,0.0,90.0,8.0,0.0
1664,80.0,0.0,60.0,4.0,0.0
1665,80.0,0.0,90.0,0.0,0.0
1666,60.0,18.0,60.0,1.0,0.0
1667,84.0,0.0,90.0,2.0,0.0
1668,84.0,0.0,90.0,10.0,0.0
1669,68.0,0.0,90.0,5.0,0.0
1670,56.0,0.0,60.0,1.0,0.0
1671,80.0,0.0,60.0,4.0,0.0
1672,68.0,48.0,60.0,11.0,0.0
1673,68.0,0.0,60.0,11.0,0.0
1674,52.0,0.0,90.0,7.0,0.0
1675,80.0,0.0,60.0,4.0,0.0
1676,85.0,0.0,90.0,2.0,0.0
1677,85.0,48.0,90.0,10.0,0.0
1678,61.0,48.0,60.0,1.0,0.0
1679,52.0,0.0,90.0,12.0,0.0
1680,68.0,0.0,60.0,11.0,0.0
1681,56.0,0.0,60.0,3.0,0.0
1682,56.0,0.0,60.0,1.0,0.0
1683,80.0,0.0,60.0,4.0,0.0
1684,61.0,0.0,60.0,5.0,0.0
1685,85.0,0.0,90.0,8.0,0.0
1686,85.0,0.0,90.0,0.0,0.0
1687,49.0,0.0,90.0,12.0,0.0
1688,76.0,0.0,90.0,6.0,0.0
1689,64.0,0.0,60.0,5.0,0.0
1690,52.0,0.0,60.0,1.0,0.0
1691,80.0,48.0,60.0,4.0,0.0
1692,76.0,0.0,90.0,10.0,0.0
1693,73.0,0.0,90.0,2.0,0.0
1694,68.0,0.0,60.0,11.0,0.0
1695,61.0,0.0,60.0,3.0,0.0
1696,49.0,48.0,90.0,7.0,0.0
1697,64.0,0.0,60.0,3.0,0.0
1698,80.0,0.0,60.0,4.0,0.0
1699,49.0,0.0,60.0,1.0,0.0
1700,68.0,0.0,60.0,11.0,0.0
1701,68.0,0.0,60.0,5.0,0.0
1702,56.0,0.0,90.0,5.0,0.0
1703,68.0,0.0,60.0,11.0,0.0
1704,68.0,0.0,90.0,3.0,0.0
1705,75.0,30.0,150.0,6.0,0.0
1706,84.0,0.0,90.0,0.0,0.0
1707,44.0,0.0,60.0,1.0,0.0
1708,75.0,0.0,90.0,10.0,0.0
1709,84.0,0.0,90.0,8.0,0.0
1710,80.0,48.0,60.0,4.0,0.0
1711,80.0,48.0,60.0,4.0,0.0
1712,68.0,0.0,60.0,11.0,0.0
1713,56.0,0.0,60.0,1.0,0.0
1714,68.0,0.0,60.0,11.0,0.0
1715,84.0,0.0,90.0,10.0,0.0
1716,80.0,0.0,90.0,8.0,0.0
1717,84.0,48.0,90.0,2.0,0.0
1718,80.0,18.0,60.0,4.0,0.0
1719,60.0,0.0,60.0,1.0,0.0
1720,68.0,0.0,90.0,5.0,0.0
1721,56.0,0.0,90.0,12.0,0.0
1722,63.0,0.0,90.0,3.0,0.0
1723,80.0,0.0,90.0,0.0,0.0
1724,56.0,0.0,90.0,7.0,0.0
1725,68.0,0.0,60.0,11.0,0.0
1726,80.0,0.0,60.0,4.0,0.0
1727,56.0,0.0,60.0,1.0,0.0
1728,85.0,0.0,60.0,10.0,0.0
1729,52.0,0.0,90.0,12.0,0.0
1730,61.0,48.0,60.0,1.0,0.0
1731,85.0,0.0,60.0,2.0,0.0
1732,52.0,0.0,90.0,7.0,0.0
1733,68.0,0.0,90.0,11.0,0.0
1734,80.0,0.0,60.0,4.0,0.0
1735,80.0,0.0,60.0,6.0,0.0
1736,80.0,0.0,60.0,2.0,0.0
1737,56.0,0.0,60.0,1.0,0.0
1738,80.0,0.0,60.0,0.0,0.0
1739,80.0,0.0,60.0,10.0,0.0
1740,80.0,0.0,60.0,8.0,0.0
1741,56.0,48.0,60.0,3.0,0.0
1742,61.0,0.0,60.0,5.0,0.0
1743,80.0,0.0,60.0,4.0,0.0
1744,49.0,0.0,90.0,12.0,0.0
1745,80.0,0.0,60.0,2.0,0.0
1746,80.0,0.0,60.0,0.0,0.0
1747,49.0,48.0,90.0,7.0,0.0
1748,80.0,0.0,60.0,10.0,0.0
1749,80.0,48.0,60.0,8.0,0.0
1750,61.0,0.0,60.0,3.0,0.0
1751,80.0,0.0,60.0,6.0,0.0
1752,52.0,0.0,60.0,1.0,0.0
1753,64.0,0.0,90.0,11.0,0.0
1754,80.0,0.0,60.0,4.0,0.0
1755,64.0,0.0,60.0,5.0,0.0
1756,80.0,0.0,60.0,0.0,0.0
1757,63.0,0.0,60.0,3.0,0.0
1758,80.0,0.0,60.0,10.0,0.0
1759,80.0,0.0,60.0,2.0,0.0
1760,49.0,0.0,60.0,1.0,0.0
1761,80.0,0.0,60.0,4.0,0.0
1762,80.0,0.0,60.0,8.0,0.0
1763,68.0,0.0,60.0,5.0,0.0
1764,80.0,0.0,60.0,6.0,0.0
1765,64.0,0.0,90.0,11.0,0.0
1766,85.0,0.0,60.0,0.0,0.0
1767,85.0,48.0,60.0,2.0,0.0
1768,64.0,0.0,60.0,3.0,0.0
1769,61.0,30.0,150.0,1.0,0.0
1770,85.0,0.0,60.0,10.0,0.0
1771,64.0,0.0,60.0,5.0,0.0
1772,85.0,0.0,60.0,6.0,0.0
1773,85.0,0.0,60.0,4.0,0.0
1774,85.0,0.0,60.0,8.0,0.0
1775,80.0,0.0,60.0,10.0,0.0
1776,80.0,0.0,60.0,8.0,0.0
1777,80.0,0.0,60.0,0.0,0.0
1778,80.0,0.0,60.0,2.0,0.0
1779,80.0,0.0,60.0,6.0,0.0
1780,80.0,48.0,60.0,4.0,0.0
1781,61.0,0.0,60.0,3.0,0.0
1782,68.0,0.0,60.0,5.0,0.0
1783,61.0,48.0,90.0,11.0,0.0
1784,73.0,0.0,60.0,5.0,0.0
1785,80.0,0.0,60.0,0.0,0.0
1786,80.0,0.0,60.0,4.0,0.0
1787,61.0,0.0,90.0,12.0,0.0
1788,61.0,0.0,90.0,7.0,0.0
1789,80.0,0.0,60.0,10.0,0.0
1790,80.0,0.0,60.0,6.0,0.0
1791,80.0,0.0,60.0,2.0,0.0
1792,80.0,0.0,60.0,8.0,0.0
1793,64.0,18.0,60.0,3.0,0.0
1794,80.0,0.0,60.0,4.0,0.0
1795,61.0,0.0,60.0,5.0,0.0
1796,80.0,0.0,60.0,6.0,0.0
1797,80.0,0.0,60.0,0.0,0.0
1798,80.0,0.0,60.0,10.0,0.0
1799,68.0,0.0,60.0,3.0,0.0
1800,80.0,0.0,60.0,2.0,0.0
1801,80.0,0.0,60.0,8.0,0.0
1802,49.0,0.0,150.0,7.0,0.0
1803,85.0,0.0,60.0,6.0,0.0
1804,85.0,0.0,60.0,4.0,0.0
1805,64.0,0.0,60.0,3.0,0.0
1806,49.0,30.0,150.0,12.0,0.0
1807,85.0,0.0,60.0,0.0,0.0
1808,85.0,0.0,60.0,8.0,0.0
1809,64.0,0.0,60.0,5.0,0.0
1810,85.0,48.0,60.0,10.0,0.0
1811,85.0,0.0,60.0,2.0,0.0
1812,61.0,0.0,60.0,3.0,0.0
1813,80.0,0.0,60.0,6.0,0.0
1814,68.0,0.0,60.0,5.0,0.0
1815,80.0,48.0,60.0,10.0,0.0
1816,80.0,0.0,60.0,0.0,0.0
1817,80.0,0.0,60.0,4.0,0.0
1818,80.0,0.0,60.0,2.0,0.0
1819,80.0,0.0,60.0,8.0,0.0
1820,64.0,0.0,60.0,3.0,0.0
1821,61.0,0.0,90.0,1.0,0.0
1822,73.0,0.0,60.0,5.0,0.0
1823,80.0,0.0,60.0,10.0,0.0
1824,80.0,18.0,60.0,2.0,0.0
1825,80.0,0.0,60.0,4.0,0.0
1826,68.0,0.0,90.0,11.0,0.0
1827,80.0,0.0,60.0,0.0,0.0
1828,80.0,0.0,60.0,8.0,0.0
1829,80.0,0.0,60.0,6.0,0.0
1830,80.0,0.0,60.0,6.0,0.0
1831,68.0,0.0,60.0,3.0,0.0
1832,80.0,0.0,60.0,4.0,0.0
1833,80.0,0.0,60.0,2.0,0.0
1834,80.0,48.0,60.0,8.0,0.0
1835,61.0,0.0,60.0,5.0,0.0
1836,80.0,0.0,60.0,10.0,0.0
1837,80.0,0.0,60.0,0.0,0.0
1838,49.0,30.0,150.0,1.0,0.0
1839,85.0,48.0,60.0,10.0,0.0
1840,64.0,48.0,90.0,11.0,0.0
1841,85.0,0.0,60.0,6.0,0.0
1842,85.0,0.0,60.0,0.0,0.0
1843,64.0,0.0,60.0,3.0,0.0
1844,85.0,0.0,60.0,4.0,0.0
1845,64.0,0.0,60.0,5.0,0.0
1846,85.0,0.0,60.0,2.0,0.0
1847,85.0,0.0,60.0,8.0,0.0
1848,68.0,0.0,60.0,5.0,0.0
1849,80.0,0.0,60.0,2.0,0.0
1850,80.0,0.0,60.0,10.0,0.0
1851,80.0,0.0,60.0,0.0,0.0
1852,80.0,0.0,60.0,4.0,0.0
1853,80.0,0.0,60.0,8.0,0.0
1854,61.0,0.0,60.0,3.0,0.0
1855,80.0,0.0,60.0,6.0,0.0
1856,64.0,0.0,60.0,3.0,0.0
1857,80.0,0.0,60.0,4.0,0.0
1858,61.0,0.0,90.0,11.0,0.0
1859,80.0,0.0,60.0,2.0,0.0
1860,61.0,0.0,90.0,12.0,0.0
1861,80.0,0.0,60.0,8.0,0.0
1862,80.0,0.0,60.0,10.0,0.0
1863,80.0,0.0,60.0,0.0,0.0
1864,61.0,0.0,90.0,7.0,0.0
1865,80.0,0.0,60.0,6.0,0.0
1866,73.0,18.0,60.0,5.0,0.0
1867,61.0,0.0,60.0,5.0,0.0
1868,68.0,0.0,60.0,3.0,0.0
1869,80.0,0.0,60.0,10.0,0.0
1870,80.0,0.0,60.0,2.0,0.0
1871,80.0,48.0,60.0,0.0,0.0
1872,80.0,0.0,60.0,8.0,0.0
1873,80.0,0.0,60.0,4.0,0.0
1874,80.0,0.0,60.0,6.0,0.0
1875,85.0,0.0,60.0,0.0,0.0
1876,64.0,0.0,60.0,3.0,0.0
1877,49.0,30.0,150.0,12.0,0.0
1878,85.0,48.0,60.0,10.0,0.0
1879,85.0,0.0,60.0,2.0,0.0
1880,85.0,0.0,60.0,6.0,0.0
1881,85.0,0.0,60.0,4.0,0.0
1882,85.0,0.0,60.0,8.0,0.0
1883,49.0,0.0,150.0,7.0,0.0
1884,64.0,0.0,60.0,5.0,0.0
1885,80.0,0.0,60.0,4.0,0.0
1886,61.0,0.0,60.0,3.0,0.0
1887,80.0,0.0,60.0,10.0,0.0
1888,68.0,0.0,60.0,5.0,0.0
1889,80.0,48.0,60.0,0.0,0.0
1890,80.0,0.0,60.0,2.0,0.0
1891,80.0,0.0,60.0,6.0,0.0
1892,80.0,0.0,60.0,8.0,0.0
1893,64.0,0.0,60.0,3.0,0.0
1894,80.0,0.0,60.0,10.0,0.0
1895,80.0,0.0,60.0,2.0,0.0
1896,80.0,0.0,60.0,0.0,0.0
1897,61.0,0.0,90.0,1.0,0.0
1898,68.0,0.0,90.0,11.0,0.0
1899,73.0,0.0,60.0,5.0,0.0
1900,80.0,0.0,60.0,4.0,0.0
1901,80.0,0.0,60.0,8.0,0.0
1902,80.0,18.0,60.0,6.0,0.0
1903,80.0,0.0,60.0,0.0,0.0
1904,80.0,0.0,60.0,8.0,0.0
1905,61.0,0.0,60.0,5.0,0.0
1906,80.0,48.0,60.0,4.0,0.0
1907,80.0,0.0,60.0,10.0,0.0
1908,80.0,0.0,60.0,2.0,0.0
1909,68.0,0.0,60.0,3.0,0.0
1910,80.0,0.0,60.0,6.0,0.0
1911,85.0,48.0,90.0,8.0,0.0
1912,68.0,0.0,90.0,11.0,0.0
1913,64.0,0.0,60.0,5.0,0.0
1914,85.0,0.0,90.0,2.0,0.0
1915,85.0,0.0,90.0,10.0,0.0
1916,49.0,0.0,90.0,1.0,0.0
1917,85.0,0.0,90.0,4.0,0.0
1918,64.0,48.0,60.0,3.0,0.0
1919,85.0,0.0,90.0,6.0,0.0
1920,85.0,0.0,90.0,0.0,0.0
1921,68.0,0.0,60.0,5.0,0.0
1922,63.0,0.0,60.0,3.0,0.0
1923,83.0,0.0,60.0,6.0,0.0
1924,61.0,0.0,90.0,12.0,0.0
1925,83.0,0.0,60.0,2.0,0.0
1926,64.0,0.0,60.0,3.0,0.0
1927,76.0,0.0,90.0,11.0,0.0
1928,73.0,0.0,90.0,5.0,0.0
1929,83.0,0.0,60.0,10.0,0.0
1930,83.0,48.0,60.0,0.0,0.0
1931,61.0,48.0,90.0,1.0,0.0
1932,83.0,0.0,60.0,4.0,0.0
1933,61.0,0.0,90.0,7.0,0.0
1934,83.0,0.0,60.0,8.0,0.0
1935,66.0,0.0,60.0,3.0,0.0
1936,81.0,0.0,60.0,8.0,0.0
1937,81.0,0.0,60.0,6.0,0.0
1938,81.0,0.0,60.0,10.0,0.0
1939,81.0,0.0,60.0,2.0,0.0
1940,81.0,0.0,60.0,4.0,0.0
1941,81.0,0.0,60.0,0.0,0.0
1942,80.0,0.0,90.0,8.0,0.0
1943,80.0,0.0,90.0,6.0,0.0
1944,60.0,0.0,90.0,7.0,0.0
1945,80.0,48.0,90.0,10.0,0.0
1946,68.0,48.0,60.0,3.0,0.0
1947,80.0,0.0,90.0,0.0,0.0
1948,60.0,0.0,90.0,1.0,0.0
1949,80.0,0.0,90.0,2.0,0.0
1950,75.0,0.0,90.0,11.0,0.0
1951,60.0,0.0,90.0,12.0,0.0
1952,80.0,0.0,90.0,4.0,0.0
1953,70.0,0.0,60.0,3.0,0.0
1954,61.0,0.0,60.0,5.0,0.0
1955,56.0,48.0,90.0,7.0,0.0
1956,78.0,0.0,90.0,6.0,0.0
1957,72.0,0.0,90.0,11.0,0.0
1958,78.0,0.0,90.0,0.0,0.0
1959,56.0,0.0,90.0,12.0,0.0
1960,78.0,0.0,90.0,10.0,0.0
1961,78.0,0.0,90.0,4.0,0.0
1962,72.0,48.0,60.0,3.0,0.0
1963,56.0,0.0,90.0,1.0,0.0
1964,78.0,0.0,90.0,8.0,0.0
1965,78.0,0.0,90.0,2.0,0.0
1966,63.0,0.0,60.0,5.0,0.0
1967,60.0,0.0,60.0,5.0,0.0
1968,68.0,0.0,60.0,3.0,0.0
1969,49.0,0.0,90.0,12.0,0.0
1970,61.0,48.0,60.0,5.0,0.0
1971,73.0,0.0,60.0,3.0,0.0
1972,76.0,0.0,60.0,10.0,0.0
1973,76.0,0.0,150.0,8.0,0.0
1974,49.0,0.0,90.0,7.0,0.0
1975,76.0,0.0,150.0,0.0,0.0
1976,76.0,0.0,90.0,4.0,0.0
1977,68.0,0.0,90.0,11.0,0.0
1978,76.0,0.0,90.0,6.0,0.0
1979,49.0,0.0,90.0,1.0,0.0
1980,76.0,30.0,150.0,2.0,0.0
1981,63.0,0.0,60.0,5.0,0.0
1982,75.0,0.0,60.0,10.0,0.0
1983,71.0,48.0,60.0,3.0,0.0
1984,73.0,0.0,150.0,4.0,0.0
1985,54.0,0.0,90.0,7.0,0.0
1986,64.0,18.0,60.0,5.0,0.0
1987,69.0,0.0,90.0,11.0,0.0
1988,69.0,0.0,60.0,3.0,0.0
1989,73.0,6.0,150.0,6.0,0.0
1990,73.0,0.0,150.0,10.0,0.0
1991,54.0,0.0,90.0,12.0,0.0
1992,54.0,0.0,90.0,1.0,0.0
1993,61.0,24.0,60.0,5.0,0.0
1994,68.0,0.0,60.0,3.0,0.0
1995,56.0,24.0,90.0,1.0,0.0
1996,76.0,24.0,20.0,0.0,0.0
1997,56.0,0.0,90.0,12.0,0.0
1998,76.0,0.0,20.0,8.0,0.0
1999,63.0,0.0,90.0,11.0,0.0
2000,66.0,0.0,60.0,3.0,0.0
2001,56.0,0.0,60.0,5.0,0.0
2002,56.0,0.0,90.0,7.0,0.0
2003,75.0,6.0,150.0,2.0,0.0
2004,75.0,0.0,20.0,0.0,0.0
2005,75.0,18.0,20.0,8.0,0.0
2006,69.0,0.0,60.0,3.0,0.0
2007,76.0,24.0,20.0,0.0,0.0
2008,76.0,0.0,20.0,8.0,0.0
2009,63.0,0.0,60.0,5.0,0.0
2010,75.0,0.0,20.0,0.0,0.0
2011,75.0,0.0,20.0,8.0,0.0
2012,76.0,0.0,20.0,8.0,0.0
2013,72.0,0.0,90.0,6.0,0.0
2014,76.0,24.0,20.0,0.0,0.0
2015,73.0,0.0,20.0,10.0,0.0
2016,44.0,0.0,90.0,12.0,0.0
2017,68.0,0.0,60.0,5.0,0.0
2018,68.0,0.0,90.0,11.0,0.0
2019,68.0,18.0,60.0,3.0,0.0
2020,44.0,0.0,90.0,7.0,0.0
2021,72.0,0.0,90.0,4.0,0.0
2022,44.0,0.0,90.0,1.0,0.0
2023,75.0,0.0,20.0,0.0,0.0
2024,75.0,0.0,20.0,8.0,0.0
2025,72.0,0.0,20.0,10.0,0.0
2026,66.0,50.0,60.0,3.0,0.0
2027,76.0,0.0,20.0,0.0,0.0
2028,76.0,0.0,20.0,8.0,0.0
2029,63.0,0.0,60.0,5.0,0.0
2030,73.0,24.0,20.0,10.0,0.0
2031,75.0,0.0,20.0,0.0,0.0
2032,75.0,0.0,20.0,8.0,0.0
2033,72.0,0.0,20.0,10.0,0.0
2034,68.0,30.0,150.0,10.0,0.0
2035,73.0,0.0,150.0,10.0,0.0
2036,49.0,0.0,150.0,7.0,0.0
2037,49.0,0.0,150.0,12.0,0.0
2038,73.0,0.0,150.0,6.0,0.0
2039,73.0,0.0,150.0,2.0,0.0
2040,73.0,0.0,150.0,4.0,0.0
2041,49.0,0.0,150.0,1.0,0.0
2042,73.0,46.0,60.0,0.0,0.0
2043,64.0,0.0,150.0,11.0,0.0
2044,73.0,0.0,150.0,8.0,0.0
2045,64.0,2.0,90.0,3.0,0.0
2046,64.0,0.0,150.0,5.0,0.0
2047,76.0,46.0,60.0,0.0,0.0
2048,75.0,18.0,60.0,0.0,0.0
2049,68.0,0.0,90.0,3.0,0.0
2050,73.0,48.0,60.0,0.0,0.0
2051,80.0,48.0,60.0,0.0,0.0
2052,61.0,0.0,90.0,3.0,0.0
2053,76.0,48.0,60.0,0.0,0.0
2054,75.0,48.0,60.0,0.0,0.0
2055,68.0,0.0,90.0,5.0,0.0
2056,64.0,0.0,90.0,3.0,0.0
2057,73.0,50.0,60.0,0.0,0.0
2058,49.0,0.0,150.0,12.0,0.0
2059,61.0,2.0,90.0,5.0,0.0
2060,61.0,0.0,150.0,11.0,0.0
2061,68.0,46.0,60.0,0.0,0.0
2062,68.0,0.0,150.0,8.0,0.0
2063,56.0,0.0,90.0,3.0,0.0
2064,49.0,30.0,150.0,1.0,0.0
2065,64.0,0.0,150.0,10.0,0.0
2066,76.0,46.0,60.0,0.0,0.0
2067,75.0,18.0,60.0,0.0,0.0
2068,68.0,0.0,90.0,7.0,0.0
2069,61.0,0.0,90.0,3.0,0.0
2070,64.0,48.0,90.0,5.0,0.0
2071,73.0,0.0,60.0,0.0,0.0
2072,52.0,0.0,90.0,3.0,0.0
2073,61.0,0.0,90.0,7.0,0.0
2074,80.0,48.0,60.0,0.0,0.0
2075,56.0,48.0,90.0,5.0,0.0
2076,76.0,0.0,60.0,0.0,0.0
2077,61.0,0.0,90.0,5.0,0.0
2078,75.0,48.0,60.0,0.0,0.0
2079,64.0,0.0,90.0,7.0,0.0
2080,56.0,50.0,90.0,3.0,0.0
2081,73.0,0.0,60.0,0.0,0.0
2082,52.0,2.0,90.0,5.0,0.0
2083,73.0,30.0,150.0,8.0,0.0
2084,64.0,0.0,150.0,11.0,0.0
2085,68.0,46.0,60.0,0.0,0.0
2086,49.0,0.0,150.0,1.0,0.0
2087,49.0,0.0,150.0,12.0,0.0
2088,68.0,0.0,150.0,10.0,0.0
2089,49.0,0.0,150.0,3.0,0.0
2090,56.0,0.0,90.0,7.0,0.0
2091,76.0,46.0,60.0,0.0,0.0
2092,61.0,0.0,90.0,7.0,0.0
2093,88.0,48.0,90.0,2.0,0.0
2094,75.0,18.0,60.0,0.0,0.0
2095,56.0,0.0,90.0,5.0,0.0
2096,73.0,0.0,60.0,0.0,0.0
2097,52.0,48.0,90.0,7.0,0.0
2098,80.0,48.0,60.0,0.0,0.0
2099,80.0,0.0,90.0,2.0,0.0
2100,49.0,30.0,150.0,5.0,0.0
2101,76.0,0.0,60.0,0.0,0.0
2102,88.0,0.0,90.0,4.0,0.0
2103,75.0,18.0,60.0,0.0,0.0
2104,85.0,50.0,90.0,2.0,0.0
2105,56.0,0.0,90.0,7.0,0.0
2106,73.0,0.0,60.0,0.0,0.0
2107,49.0,0.0,150.0,7.0,0.0
2108,49.0,0.0,150.0,1.0,0.0
2109,80.0,0.0,90.0,4.0,0.0
2110,73.0,30.0,150.0,10.0,0.0
2111,76.0,0.0,150.0,8.0,0.0
2112,76.0,2.0,90.0,2.0,0.0
2113,49.0,0.0,150.0,12.0,0.0
2114,68.0,0.0,150.0,11.0,0.0
2115,85.0,46.0,60.0,0.0,0.0
2116,76.0,46.0,60.0,0.0,0.0
2117,85.0,0.0,90.0,4.0,0.0
2118,75.0,18.0,60.0,0.0,0.0
2119,88.0,48.0,90.0,6.0,0.0
2120,80.0,0.0,90.0,2.0,0.0
2121,73.0,0.0,60.0,0.0,0.0
2122,80.0,0.0,90.0,6.0,0.0
2123,80.0,48.0,60.0,0.0,0.0
2124,73.0,48.0,90.0,2.0,0.0
2125,76.0,0.0,90.0,4.0,0.0
2126,76.0,0.0,60.0,0.0,0.0
2127,85.0,0.0,90.0,6.0,0.0
2128,80.0,0.0,90.0,4.0,0.0
2129,75.0,48.0,60.0,0.0,0.0
2130,76.0,50.0,90.0,2.0,0.0
2131,73.0,0.0,60.0,0.0,0.0
2132,76.0,0.0,90.0,6.0,0.0
2133,68.0,0.0,90.0,2.0,0.0
2134,76.0,0.0,150.0,10.0,0.0
2135,49.0,30.0,150.0,1.0,0.0
2136,73.0,2.0,90.0,4.0,0.0
2137,85.0,46.0,60.0,0.0,0.0
2138,49.0,0.0,150.0,12.0,0.0
2139,80.0,0.0,150.0,8.0,0.0
2140,73.0,0.0,150.0,11.0,0.0
2141,76.0,46.0,60.0,0.0,0.0
2142,75.0,18.0,60.0,0.0,0.0
2143,80.0,0.0,90.0,6.0,0.0
2144,73.0,0.0,90.0,2.0,0.0
2145,76.0,0.0,90.0,4.0,0.0
2146,73.0,48.0,60.0,0.0,0.0
2147,68.0,0.0,90.0,4.0,0.0
2148,80.0,48.0,60.0,0.0,0.0
2149,73.0,0.0,90.0,6.0,0.0
2150,64.0,48.0,90.0,2.0,0.0
2151,76.0,0.0,60.0,0.0,0.0
2152,76.0,96.0,90.0,6.0,0.0
2153,73.0,0.0,90.0,4.0,0.0
2154,68.0,0.0,90.0,2.0,0.0
2155,75.0,48.0,60.0,0.0,0.0
2156,73.0,0.0,60.0,0.0,0.0
2157,80.0,0.0,150.0,10.0,0.0
2158,64.0,0.0,90.0,4.0,0.0
2159,76.0,0.0,150.0,11.0,0.0
2160,49.0,0.0,150.0,1.0,0.0
2161,49.0,0.0,150.0,12.0,0.0
2162,85.0,0.0,90.0,0.0,0.0
2163,68.0,66.0,90.0,6.0,0.0
2164,85.0,30.0,150.0,8.0,0.0
2165,61.0,0.0,150.0,2.0,0.0
2166,73.0,0.0,90.0,6.0,0.0
2167,73.0,96.0,90.0,0.0,0.0
2168,68.0,0.0,90.0,4.0,0.0
2169,64.0,0.0,90.0,6.0,0.0
2170,61.0,30.0,150.0,4.0,0.0
2171,80.0,48.0,60.0,0.0,0.0
2172,68.0,48.0,90.0,6.0,0.0
2173,76.0,18.0,60.0,0.0,0.0
2174,73.0,0.0,60.0,0.0,0.0
2175,61.0,30.0,150.0,6.0,0.0
2176,49.0,0.0,90.0,1.0,0.0
2177,85.0,48.0,60.0,0.0,0.0
2178,80.0,48.0,60.0,0.0,0.0
2179,51.0,0.0,90.0,1.0,0.0
2180,76.0,18.0,60.0,0.0,0.0
2181,73.0,48.0,60.0,0.0,0.0
2182,52.0,0.0,90.0,1.0,0.0
2183,85.0,48.0,60.0,0.0,0.0
2184,83.0,48.0,60.0,0.0,0.0
2185,81.0,48.0,60.0,0.0,0.0
2186,49.0,48.0,90.0,1.0,0.0
2187,80.0,0.0,60.0,0.0,0.0
2188,81.0,48.0,60.0,0.0,0.0
2189,54.0,30.0,150.0,1.0,0.0
2190,85.0,48.0,60.0,0.0,0.0
2191,83.0,18.0,60.0,0.0,0.0
2192,85.0,48.0,60.0,0.0,0.0
2193,81.0,48.0,60.0,0.0,0.0
2194,83.0,48.0,60.0,0.0,0.0
2195,80.0,48.0,60.0,0.0,0.0
2196,81.0,48.0,60.0,0.0,0.0
2197,57.0,48.0,60.0,1.0,0.0
2198,78.0,0.0,60.0,0.0,0.0
2199,81.0,0.0,60.0,0.0,0.0
2200,61.0,48.0,60.0,1.0,0.0
2201,80.0,0.0,60.0,0.0,0.0
2202,59.0,48.0,60.0,1.0,0.0
2203,81.0,0.0,60.0,0.0,0.0
2204,61.0,48.0,60.0,1.0,0.0
2205,57.0,48.0,60.0,1.0,0.0
2206,78.0,0.0,60.0,0.0,0.0
2207,59.0,0.0,60.0,1.0,0.0
2208,80.0,48.0,60.0,0.0,0.0
2209,56.0,48.0,60.0,1.0,0.0
2210,76.0,0.0,60.0,0.0,0.0
2211,57.0,0.0,60.0,1.0,0.0
2212,78.0,48.0,60.0,0.0,0.0
2213,54.0,0.0,60.0,1.0,0.0
2214,75.0,48.0,60.0,0.0,0.0
2215,78.0,0.0,60.0,0.0,0.0
2216,57.0,48.0,60.0,1.0,0.0
2217,76.0,0.0,60.0,0.0,0.0
2218,56.0,48.0,60.0,1.0,0.0
2219,78.0,0.0,60.0,0.0,0.0
2220,57.0,48.0,60.0,1.0,0.0
2221,75.0,48.0,60.0,0.0,0.0
2222,54.0,0.0,60.0,1.0,0.0
2223,76.0,48.0,60.0,0.0,0.0
2224,56.0,0.0,60.0,1.0,0.0
2225,52.0,48.0,60.0,1.0,0.0
2226,73.0,0.0,60.0,0.0,0.0
2227,75.0,48.0,60.0,0.0,0.0
2228,54.0,0.0,60.0,1.0,0.0
2229,51.0,0.0,60.0,1.0,0.0
2230,71.0,48.0,60.0,0.0,0.0
2231,75.0,0.0,60.0,0.0,0.0
2232,47.0,48.0,60.0,1.0,0.0
2233,78.0,0.0,60.0,0.0,0.0
2234,51.0,48.0,60.0,1.0,0.0
2235,75.0,0.0,60.0,0.0,0.0
2236,54.0,48.0,60.0,1.0,0.0
2237,71.0,48.0,60.0,0.0,0.0
2238,57.0,48.0,90.0,1.0,0.0
2239,75.0,0.0,60.0,0.0,0.0
2240,45.0,48.0,90.0,1.0,0.0
2241,73.0,48.0,60.0,0.0,0.0
2242,71.0,0.0,60.0,0.0,0.0
2243,76.0,48.0,60.0,0.0,0.0
2244,44.0,30.0,150.0,1.0,0.0
2245,68.0,48.0,60.0,0.0,0.0
2246,59.0,0.0,60.0,7.0,0.0
2247,57.0,18.0,60.0,7.0,0.0
2248,76.0,48.0,90.0,6.0,0.0
2249,66.0,0.0,60.0,0.0,0.0
2250,68.0,0.0,60.0,0.0,0.0
2251,59.0,0.0,60.0,7.0,0.0
2252,56.0,0.0,90.0,7.0,0.0
2253,71.0,0.0,90.0,6.0,0.0
2254,76.0,48.0,60.0,0.0,0.0
2255,75.0,48.0,60.0,0.0,0.0
2256,52.0,0.0,60.0,1.0,0.0
2257,64.0,0.0,90.0,7.0,0.0
2258,54.0,48.0,60.0,1.0,0.0
2259,68.0,48.0,90.0,6.0,0.0
2260,73.0,0.0,60.0,0.0,0.0
2261,71.0,0.0,60.0,0.0,0.0
2262,56.0,0.0,60.0,1.0,0.0
2263,45.0,30.0,150.0,1.0,0.0
2264,73.0,48.0,60.0,0.0,0.0
2265,61.0,48.0,60.0,7.0,0.0
2266,69.0,0.0,60.0,0.0,0.0
2267,76.0,0.0,90.0,6.0,0.0
2268,59.0,0.0,60.0,7.0,0.0
2269,68.0,18.0,60.0,0.0,0.0
2270,61.0,48.0,60.0,7.0,0.0
2271,69.0,0.0,60.0,0.0,0.0
2272,57.0,0.0,90.0,7.0,0.0
2273,73.0,0.0,90.0,6.0,0.0
2274,78.0,48.0,60.0,0.0,0.0
2275,76.0,48.0,60.0,0.0,0.0
2276,54.0,0.0,60.0,1.0,0.0
2277,75.0,48.0,60.0,0.0,0.0
2278,69.0,0.0,90.0,6.0,0.0
2279,56.0,0.0,60.0,1.0,0.0
2280,66.0,0.0,90.0,7.0,0.0
2281,57.0,0.0,60.0,1.0,0.0
2282,73.0,48.0,60.0,0.0,0.0
2283,47.0,30.0,150.0,1.0,0.0
2284,75.0,48.0,60.0,0.0,0.0
2285,71.0,48.0,60.0,0.0,0.0
2286,63.0,0.0,60.0,7.0,0.0
2287,61.0,18.0,60.0,7.0,0.0
2288,78.0,0.0,90.0,6.0,0.0
2289,69.0,0.0,60.0,0.0,0.0
2290,71.0,0.0,60.0,0.0,0.0
2291,63.0,48.0,60.0,7.0,0.0
2292,75.0,0.0,90.0,6.0,0.0
2293,59.0,0.0,90.0,7.0,0.0
2294,80.0,48.0,60.0,0.0,0.0
2295,78.0,48.0,60.0,0.0,0.0
2296,56.0,0.0,60.0,1.0,0.0
2297,68.0,48.0,90.0,7.0,0.0
2298,76.0,48.0,60.0,0.0,0.0
2299,71.0,0.0,90.0,6.0,0.0
2300,57.0,0.0,60.0,1.0,0.0
2301,75.0,0.0,60.0,0.0,0.0
2302,59.0,0.0,60.0,1.0,0.0
2303,49.0,30.0,150.0,1.0,0.0
2304,76.0,48.0,60.0,0.0,0.0
2305,73.0,46.0,60.0,0.0,0.0
2306,64.0,2.0,60.0,7.0,0.0
2307,63.0,2.0,60.0,7.0,0.0
2308,80.0,48.0,90.0,6.0,0.0
2309,71.0,16.0,60.0,0.0,0.0
2310,64.0,0.0,60.0,7.0,0.0
2311,73.0,0.0,60.0,0.0,0.0
2312,81.0,48.0,60.0,0.0,0.0
2313,76.0,0.0,90.0,6.0,0.0
2314,61.0,0.0,90.0,7.0,0.0
2315,57.0,48.0,60.0,1.0,0.0
2316,80.0,0.0,60.0,0.0,0.0
2317,59.0,48.0,60.0,1.0,0.0
2318,73.0,48.0,90.0,6.0,0.0
2319,78.0,0.0,60.0,0.0,0.0
2320,69.0,0.0,90.0,7.0,0.0
2321,76.0,0.0,60.0,0.0,0.0
2322,61.0,0.0,60.0,1.0,0.0
2323,51.0,30.0,150.0,1.0,0.0
2324,78.0,48.0,60.0,0.0,0.0
2325,75.0,46.0,60.0,0.0,0.0
2326,66.0,2.0,60.0,7.0,0.0
2327,81.0,0.0,90.0,6.0,0.0
2328,73.0,16.0,60.0,0.0,0.0
2329,64.0,2.0,60.0,7.0,0.0
2330,75.0,48.0,60.0,0.0,0.0
2331,66.0,0.0,60.0,7.0,0.0
2332,78.0,48.0,90.0,6.0,0.0
2333,63.0,0.0,90.0,7.0,0.0
2334,83.0,48.0,60.0,0.0,0.0
2335,59.0,0.0,60.0,1.0,0.0
2336,81.0,0.0,60.0,0.0,0.0
2337,71.0,0.0,90.0,7.0,0.0
2338,75.0,0.0,90.0,6.0,0.0
2339,80.0,0.0,60.0,0.0,0.0
2340,61.0,48.0,60.0,1.0,0.0
2341,63.0,0.0,60.0,1.0,0.0
2342,78.0,48.0,60.0,0.0,0.0
2343,80.0,48.0,60.0,0.0,0.0
2344,52.0,30.0,150.0,1.0,0.0
2345,68.0,48.0,60.0,7.0,0.0
2346,76.0,0.0,60.0,0.0,0.0
2347,75.0,18.0,60.0,0.0,0.0
2348,66.0,0.0,60.0,7.0,0.0
2349,83.0,48.0,90.0,6.0,0.0
2350,68.0,0.0,60.0,7.0,0.0
2351,76.0,0.0,60.0,0.0,0.0
2352,64.0,48.0,60.0,7.0,0.0
2353,88.0,0.0,60.0,0.0,0.0
2354,80.0,0.0,90.0,6.0,0.0
2355,52.0,0.0,60.0,1.0,0.0
2356,87.0,0.0,60.0,0.0,0.0
2357,68.0,48.0,60.0,7.0,0.0
2358,69.0,48.0,60.0,7.0,0.0
2359,54.0,0.0,60.0,1.0,0.0
2360,76.0,0.0,90.0,6.0,0.0
2361,85.0,0.0,60.0,0.0,0.0
2362,83.0,48.0,60.0,0.0,0.0
2363,56.0,0.0,60.0,1.0,0.0
2364,71.0,0.0,60.0,7.0,0.0
2365,45.0,30.0,150.0,1.0,0.0
2366,64.0,0.0,60.0,7.0,0.0
2367,85.0,48.0,60.0,0.0,0.0
2368,81.0,0.0,60.0,0.0,0.0
2369,73.0,48.0,60.0,7.0,0.0
2370,71.0,0.0,60.0,7.0,0.0
2371,85.0,0.0,90.0,6.0,0.0
2372,80.0,18.0,60.0,0.0,0.0
2373,81.0,48.0,60.0,0.0,0.0
2374,73.0,0.0,60.0,7.0,0.0
2375,66.0,48.0,60.0,7.0,0.0
2376,90.0,0.0,60.0,0.0,0.0
2377,85.0,0.0,90.0,6.0,0.0
2378,70.0,48.0,60.0,7.0,0.0
2379,54.0,0.0,60.0,1.0,0.0
2380,88.0,0.0,60.0,0.0,0.0
2381,87.0,0.0,60.0,0.0,0.0
2382,71.0,48.0,60.0,7.0,0.0
2383,56.0,0.0,60.0,1.0,0.0
2384,78.0,0.0,90.0,6.0,0.0
2385,85.0,0.0,60.0,0.0,0.0
2386,58.0,0.0,60.0,1.0,0.0
2387,73.0,48.0,60.0,7.0,0.0
2388,78.0,30.0,150.0,4.0,0.0
2389,75.0,0.0,150.0,2.0,0.0
2390,47.0,0.0,90.0,1.0,0.0
2391,83.0,0.0,150.0,4.0,0.0
2392,59.0,0.0,60.0,3.0,0.0
2393,75.0,0.0,150.0,4.0,0.0
2394,71.0,0.0,150.0,4.0,0.0
2395,87.0,0.0,90.0,0.0,0.0
2396,59.0,0.0,90.0,12.0,0.0
2397,78.0,0.0,150.0,10.0,0.0
2398,66.0,48.0,60.0,7.0,0.0
2399,59.0,0.0,90.0,5.0,0.0
2400,75.0,0.0,150.0,6.0,0.0
2401,75.0,0.0,150.0,11.0,0.0
2402,83.0,0.0,150.0,8.0,0.0
2403,78.0,0.0,150.0,2.0,0.0
2404,71.0,48.0,60.0,3.0,0.0
2405,68.0,0.0,60.0,7.0,0.0
2406,66.0,0.0,60.0,7.0,0.0
2407,47.0,0.0,60.0,12.0,0.0
2408,83.0,0.0,90.0,0.0,0.0
2409,69.0,0.0,60.0,3.0,0.0
2410,47.0,0.0,60.0,5.0,0.0
2411,59.0,18.0,60.0,1.0,0.0
2412,64.0,0.0,60.0,7.0,0.0
2413,49.0,0.0,60.0,5.0,0.0
2414,49.0,48.0,60.0,12.0,0.0
2415,68.0,0.0,60.0,3.0,0.0
2416,61.0,0.0,60.0,1.0,0.0
2417,63.0,48.0,90.0,1.0,0.0
2418,66.0,48.0,60.0,3.0,0.0
2419,51.0,0.0,90.0,5.0,0.0
2420,51.0,0.0,90.0,12.0,0.0
2421,63.0,0.0,60.0,7.0,0.0
2422,64.0,0.0,60.0,3.0,0.0
2423,59.0,0.0,60.0,7.0,0.0
2424,47.0,0.0,90.0,5.0,0.0
2425,75.0,0.0,90.0,11.0,0.0
2426,75.0,0.0,90.0,6.0,0.0
2427,59.0,0.0,90.0,1.0,0.0
2428,83.0,0.0,90.0,10.0,0.0
2429,83.0,0.0,90.0,8.0,0.0
2430,66.0,0.0,90.0,7.0,0.0
2431,83.0,0.0,90.0,4.0,0.0
2432,63.0,48.0,60.0,3.0,0.0
2433,47.0,0.0,90.0,12.0,0.0
2434,78.0,48.0,90.0,2.0,0.0
2435,83.0,0.0,90.0,0.0,0.0
2436,61.0,0.0,60.0,3.0,0.0
2437,52.0,0.0,90.0,1.0,0.0
2438,76.0,0.0,90.0,11.0,0.0
2439,52.0,0.0,90.0,12.0,0.0
2440,52.0,0.0,90.0,5.0,0.0
2441,80.0,48.0,60.0,2.0,0.0
2442,76.0,30.0,150.0,6.0,0.0
2443,80.0,0.0,90.0,0.0,0.0
2444,83.0,0.0,90.0,4.0,0.0
2445,80.0,0.0,90.0,10.0,0.0
2446,83.0,48.0,90.0,8.0,0.0
2447,59.0,0.0,90.0,3.0,0.0
2448,76.0,0.0,60.0,2.0,0.0
2449,68.0,0.0,90.0,11.0,0.0
2450,64.0,0.0,90.0,5.0,0.0
2451,64.0,0.0,90.0,3.0,0.0
2452,64.0,0.0,90.0,12.0,0.0
2453,64.0,0.0,90.0,1.0,0.0
2454,76.0,0.0,90.0,0.0,0.0
2455,83.0,0.0,90.0,8.0,0.0
2456,83.0,0.0,90.0,4.0,0.0
2457,76.0,0.0,90.0,10.0,0.0
2458,68.0,50.0,90.0,7.0,0.0
2459,80.0,18.0,60.0,2.0,0.0
2460,83.0,0.0,60.0,2.0,0.0
2461,66.0,0.0,90.0,11.0,0.0
2462,83.0,0.0,90.0,4.0,0.0
2463,63.0,0.0,90.0,1.0,0.0
2464,83.0,46.0,60.0,2.0,0.0
2465,63.0,0.0,90.0,12.0,0.0
2466,63.0,48.0,90.0,5.0,0.0
2467,66.0,0.0,90.0,7.0,0.0
2468,83.0,0.0,90.0,8.0,0.0
2469,75.0,0.0,60.0,6.0,0.0
2470,81.0,0.0,60.0,2.0,0.0
2471,83.0,0.0,90.0,2.0,0.0
2472,59.0,0.0,90.0,5.0,0.0
2473,63.0,0.0,90.0,11.0,0.0
2474,78.0,48.0,60.0,6.0,0.0
2475,83.0,0.0,90.0,8.0,0.0
2476,59.0,0.0,90.0,12.0,0.0
2477,83.0,0.0,90.0,0.0,0.0
2478,83.0,48.0,90.0,4.0,0.0
2479,83.0,0.0,90.0,10.0,0.0
2480,63.0,0.0,90.0,3.0,0.0
2481,59.0,0.0,90.0,1.0,0.0
2482,63.0,0.0,90.0,7.0,0.0
2483,83.0,0.0,60.0,6.0,0.0
2484,83.0,48.0,60.0,6.0,0.0
2485,80.0,48.0,90.0,10.0,0.0
2486,88.0,0.0,90.0,4.0,0.0
2487,88.0,0.0,90.0,8.0,0.0
2488,80.0,0.0,90.0,0.0,0.0
2489,64.0,0.0,90.0,3.0,0.0
2490,76.0,0.0,60.0,2.0,0.0
2491,81.0,0.0,60.0,6.0,0.0
2492,80.0,48.0,60.0,2.0,0.0
2493,64.0,0.0,90.0,5.0,0.0
2494,76.0,0.0,90.0,0.0,0.0
2495,83.0,0.0,90.0,8.0,0.0
2496,76.0,0.0,90.0,10.0,0.0
2497,68.0,0.0,90.0,11.0,0.0
2498,64.0,0.0,90.0,1.0,0.0
2499,64.0,0.0,90.0,12.0,0.0
2500,83.0,0.0,90.0,4.0,0.0
2501,68.0,0.0,90.0,7.0,0.0
2502,83.0,0.0,90.0,6.0,0.0
2503,52.0,50.0,90.0,3.0,0.0
2504,83.0,0.0,60.0,2.0,0.0
2505,63.0,0.0,90.0,5.0,0.0
2506,83.0,0.0,90.0,8.0,0.0
2507,66.0,48.0,90.0,11.0,0.0
2508,63.0,0.0,90.0,1.0,0.0
2509,63.0,0.0,90.0,12.0,0.0
2510,83.0,0.0,90.0,4.0,0.0
2511,66.0,0.0,90.0,7.0,0.0
2512,83.0,46.0,60.0,2.0,0.0
2513,81.0,0.0,60.0,2.0,0.0
2514,75.0,0.0,60.0,6.0,0.0
2515,83.0,0.0,90.0,0.0,0.0
2516,83.0,0.0,90.0,8.0,0.0
2517,63.0,0.0,90.0,3.0,0.0
2518,83.0,0.0,90.0,2.0,0.0
2519,83.0,0.0,90.0,4.0,0.0
2520,59.0,0.0,90.0,1.0,0.0
2521,78.0,48.0,60.0,6.0,0.0
2522,59.0,48.0,90.0,5.0,0.0
2523,59.0,0.0,90.0,12.0,0.0
2524,63.0,0.0,90.0,7.0,0.0
2525,63.0,0.0,90.0,11.0,0.0
2526,83.0,0.0,90.0,10.0,0.0
2527,83.0,0.0,60.0,6.0,0.0
2528,88.0,0.0,90.0,8.0,0.0
2529,80.0,48.0,90.0,10.0,0.0
2530,88.0,0.0,90.0,4.0,0.0
2531,64.0,0.0,90.0,3.0,0.0
2532,80.0,0.0,90.0,0.0,0.0
2533,83.0,48.0,60.0,6.0,0.0
2534,76.0,0.0,60.0,2.0,0.0
2535,81.0,0.0,60.0,6.0,0.0
2536,64.0,50.0,90.0,1.0,0.0
2537,83.0,0.0,90.0,4.0,0.0
2538,80.0,48.0,60.0,2.0,0.0
2539,64.0,0.0,90.0,5.0,0.0
2540,76.0,0.0,90.0,10.0,0.0
2541,68.0,0.0,90.0,11.0,0.0
2542,83.0,0.0,90.0,8.0,0.0
2543,76.0,0.0,90.0,0.0,0.0
2544,68.0,0.0,90.0,7.0,0.0
2545,52.0,0.0,90.0,3.0,0.0
2546,64.0,0.0,90.0,12.0,0.0
2547,83.0,0.0,90.0,6.0,0.0
2548,83.0,0.0,60.0,2.0,0.0
2549,63.0,0.0,90.0,5.0,0.0
2550,83.0,46.0,60.0,2.0,0.0
2551,66.0,0.0,90.0,11.0,0.0
2552,63.0,0.0,90.0,12.0,0.0
2553,66.0,0.0,90.0,7.0,0.0
2554,83.0,0.0,90.0,8.0,0.0
2555,83.0,0.0,90.0,4.0,0.0
2556,63.0,0.0,90.0,1.0,0.0
2557,75.0,48.0,60.0,6.0,0.0
2558,81.0,0.0,60.0,2.0,0.0
2559,75.0,0.0,90.0,3.0,0.0
2560,83.0,0.0,90.0,10.0,0.0
2561,83.0,0.0,90.0,2.0,0.0
2562,59.0,0.0,90.0,1.0,0.0
2563,63.0,0.0,90.0,7.0,0.0
2564,83.0,0.0,90.0,0.0,0.0
2565,59.0,0.0,90.0,12.0,0.0
2566,59.0,0.0,90.0,5.0,0.0
2567,83.0,0.0,90.0,8.0,0.0
2568,83.0,0.0,90.0,4.0,0.0
2569,78.0,48.0,60.0,6.0,0.0
2570,63.0,24.0,90.0,11.0,0.0
2571,83.0,0.0,60.0,6.0,0.0
2572,85.0,0.0,20.0,4.0,0.0
2573,83.0,0.0,60.0,6.0,0.0
2574,81.0,24.0,20.0,10.0,0.0
2575,52.0,0.0,90.0,1.0,0.0
2576,52.0,0.0,150.0,12.0,0.0
2577,52.0,30.0,150.0,5.0,0.0
2578,76.0,0.0,90.0,3.0,0.0
2579,80.0,0.0,90.0,0.0,0.0
2580,59.0,0.0,90.0,7.0,0.0
2581,59.0,0.0,90.0,11.0,0.0
2582,85.0,0.0,20.0,8.0,0.0
2583,80.0,0.0,20.0,10.0,0.0
2584,83.0,24.0,20.0,8.0,0.0
2585,83.0,0.0,20.0,4.0,0.0
2586,81.0,0.0,20.0,10.0,0.0
2587,85.0,24.0,20.0,8.0,0.0
2588,85.0,0.0,20.0,4.0,0.0
2589,81.0,0.0,60.0,6.0,0.0
2590,83.0,0.0,20.0,8.0,0.0
2591,83.0,0.0,20.0,4.0,0.0
2592,80.0,48.0,20.0,10.0,0.0
2593,64.0,0.0,90.0,1.0,0.0
2594,71.0,0.0,90.0,3.0,0.0
2595,80.0,18.0,60.0,4.0,0.0
2596,80.0,0.0,60.0,8.0,0.0
2597,76.0,0.0,60.0,10.0,0.0
2598,83.0,0.0,90.0,2.0,0.0
2599,83.0,0.0,90.0,6.0,0.0
2600,76.0,0.0,60.0,0.0,0.0
2601,68.0,0.0,90.0,7.0,0.0
2602,71.0,0.0,90.0,11.0,0.0
2603,78.0,0.0,60.0,10.0,0.0
2604,81.0,96.0,60.0,8.0,0.0
2605,78.0,0.0,60.0,0.0,0.0
2606,81.0,0.0,60.0,4.0,0.0
2607,88.0,0.0,150.0,2.0,0.0
2608,68.0,0.0,90.0,11.0,0.0
2609,52.0,0.0,150.0,1.0,0.0
2610,80.0,0.0,90.0,10.0,0.0
2611,83.0,0.0,90.0,8.0,0.0
2612,83.0,0.0,90.0,4.0,0.0
2613,64.0,30.0,150.0,7.0,0.0
2614,68.0,66.0,90.0,3.0,0.0
2615,80.0,0.0,90.0,0.0,0.0
2616,64.0,0.0,90.0,3.0,0.0
2617,83.0,0.0,90.0,4.0,0.0
2618,80.0,0.0,90.0,0.0,0.0
2619,64.0,0.0,90.0,5.0,0.0
2620,64.0,24.0,90.0,11.0,0.0
2621,80.0,0.0,90.0,10.0,0.0
2622,83.0,0.0,90.0,6.0,0.0
2623,83.0,0.0,90.0,8.0,0.0
2624,68.0,48.0,90.0,3.0,0.0
2625,59.0,0.0,90.0,11.0,0.0
2626,52.0,0.0,150.0,12.0,0.0
2627,81.0,0.0,20.0,10.0,0.0
2628,85.0,24.0,20.0,8.0,0.0
2629,80.0,0.0,90.0,0.0,0.0
2630,52.0,0.0,150.0,5.0,0.0
2631,85.0,0.0,20.0,4.0,0.0
2632,88.0,30.0,150.0,6.0,0.0
2633,80.0,0.0,20.0,10.0,0.0
2634,83.0,0.0,20.0,4.0,0.0
2635,83.0,24.0,20.0,8.0,0.0
2636,85.0,0.0,20.0,8.0,0.0
2637,85.0,24.0,20.0,4.0,0.0
2638,81.0,0.0,20.0,10.0,0.0
2639,83.0,0.0,20.0,8.0,0.0
2640,80.0,0.0,20.0,10.0,0.0
2641,83.0,0.0,20.0,4.0,0.0
2642,83.0,0.0,90.0,2.0,0.0
2643,68.0,0.0,90.0,7.0,0.0
2644,76.0,18.0,60.0,10.0,0.0
2645,71.0,0.0,90.0,3.0,0.0
2646,71.0,0.0,90.0,11.0,0.0
2647,76.0,0.0,60.0,0.0,0.0
2648,64.0,0.0,90.0,1.0,0.0
2649,80.0,0.0,60.0,4.0,0.0
2650,80.0,0.0,60.0,8.0,0.0
2651,78.0,0.0,60.0,0.0,0.0
2652,81.0,0.0,60.0,4.0,0.0
2653,81.0,0.0,60.0,8.0,0.0
2654,78.0,96.0,60.0,10.0,0.0
2655,68.0,0.0,90.0,11.0,0.0
2656,64.0,0.0,150.0,7.0,0.0
2657,88.0,0.0,150.0,2.0,0.0
2658,80.0,0.0,90.0,0.0,0.0
2659,83.0,0.0,90.0,4.0,0.0
2660,83.0,0.0,90.0,8.0,0.0
2661,52.0,30.0,150.0,1.0,0.0
2662,68.0,48.0,90.0,3.0,0.0
2663,80.0,0.0,90.0,10.0,0.0
2664,80.0,0.0,90.0,10.0,0.0
2665,83.0,0.0,90.0,4.0,0.0
2666,80.0,0.0,90.0,0.0,0.0
2667,64.0,0.0,90.0,5.0,0.0
2668,83.0,48.0,90.0,6.0,0.0
2669,64.0,0.0,90.0,11.0,0.0
2670,83.0,0.0,90.0,8.0,0.0
2671,64.0,18.0,60.0,3.0,0.0
2672,66.0,0.0,60.0,3.0,0.0
2673,83.0,0.0,90.0,4.0,0.0
2674,88.0,30.0,150.0,6.0,0.0
2675,68.0,48.0,60.0,3.0,0.0
2676,59.0,0.0,90.0,11.0,0.0
2677,52.0,0.0,90.0,5.0,0.0
2678,80.0,0.0,90.0,0.0,0.0
2679,80.0,0.0,90.0,10.0,0.0
2680,83.0,0.0,90.0,8.0,0.0
2681,52.0,0.0,90.0,12.0,0.0
2682,69.0,48.0,60.0,3.0,0.0
2683,68.0,0.0,90.0,7.0,0.0
2684,83.0,0.0,90.0,8.0,0.0
2685,64.0,0.0,90.0,11.0,0.0
2686,80.0,0.0,90.0,10.0,0.0
2687,64.0,0.0,60.0,12.0,0.0
2688,83.0,0.0,90.0,4.0,0.0
2689,80.0,0.0,90.0,0.0,0.0
2690,64.0,0.0,60.0,1.0,0.0
2691,83.0,0.0,90.0,2.0,0.0
2692,64.0,0.0,60.0,5.0,0.0
2693,71.0,18.0,60.0,3.0,0.0
2694,63.0,0.0,60.0,5.0,0.0
2695,63.0,0.0,60.0,1.0,0.0
2696,63.0,0.0,60.0,12.0,0.0
2697,69.0,24.0,60.0,3.0,0.0
2698,85.0,0.0,20.0,8.0,0.0
2699,64.0,0.0,90.0,12.0,0.0
2700,85.0,24.0,20.0,4.0,0.0
2701,64.0,0.0,90.0,1.0,0.0
2702,68.0,48.0,90.0,11.0,0.0
2703,68.0,24.0,60.0,3.0,0.0
2704,88.0,0.0,60.0,2.0,0.0
2705,80.0,0.0,90.0,0.0,0.0
2706,64.0,0.0,90.0,7.0,0.0
2707,64.0,0.0,90.0,5.0,0.0
2708,81.0,0.0,20.0,10.0,0.0
2709,83.0,0.0,20.0,4.0,0.0
2710,80.0,0.0,20.0,10.0,0.0
2711,83.0,0.0,20.0,8.0,0.0
2712,85.0,0.0,20.0,8.0,0.0
2713,76.0,0.0,60.0,6.0,0.0
2714,85.0,0.0,20.0,4.0,0.0
2715,80.0,0.0,60.0,2.0,0.0
2716,81.0,24.0,20.0,10.0,0.0
2717,71.0,0.0,60.0,3.0,0.0
2718,83.0,0.0,20.0,4.0,0.0
2719,83.0,0.0,20.0,8.0,0.0
2720,80.0,0.0,20.0,10.0,0.0
2721,59.0,0.0,90.0,7.0,0.0
2722,81.0,0.0,60.0,8.0,0.0
2723,78.0,0.0,60.0,0.0,0.0
2724,52.0,0.0,90.0,12.0,0.0
2725,71.0,0.0,90.0,11.0,0.0
2726,52.0,0.0,90.0,1.0,0.0
2727,78.0,0.0,60.0,10.0,0.0
2728,78.0,0.0,60.0,6.0,0.0
2729,73.0,0.0,60.0,3.0,0.0
2730,81.0,48.0,60.0,2.0,0.0
2731,81.0,0.0,60.0,4.0,0.0
2732,52.0,0.0,90.0,5.0,0.0
2733,76.0,48.0,60.0,10.0,0.0
2734,76.0,0.0,60.0,0.0,0.0
2735,80.0,0.0,60.0,8.0,0.0
2736,80.0,0.0,60.0,4.0,0.0
2737,80.0,0.0,60.0,6.0,0.0
2738,83.0,0.0,60.0,2.0,0.0
2739,71.0,0.0,60.0,3.0,0.0
2740,78.0,0.0,150.0,2.0,0.0
2741,78.0,0.0,90.0,4.0,0.0
2742,75.0,0.0,150.0,0.0,0.0
2743,59.0,30.0,150.0,1.0,0.0
2744,71.0,0.0,150.0,11.0,0.0
2745,75.0,0.0,150.0,10.0,0.0
2746,75.0,0.0,150.0,6.0,0.0
2747,59.0,0.0,90.0,5.0,0.0
2748,59.0,0.0,150.0,12.0,0.0
2749,71.0,0.0,150.0,7.0,0.0
2750,78.0,0.0,90.0,8.0,0.0
2751,59.0,48.0,60.0,3.0,0.0
2752,64.0,48.0,60.0,3.0,0.0
2753,71.0,0.0,90.0,4.0,0.0
2754,47.0,0.0,90.0,5.0,0.0
2755,71.0,0.0,90.0,8.0,0.0
2756,63.0,18.0,60.0,3.0,0.0
2757,61.0,48.0,60.0,3.0,0.0
2758,59.0,48.0,60.0,3.0,0.0
2759,71.0,0.0,60.0,2.0,0.0
2760,57.0,48.0,60.0,3.0,0.0
2761,73.0,48.0,60.0,2.0,0.0
2762,56.0,0.0,60.0,3.0,0.0
2763,54.0,48.0,60.0,3.0,0.0
2764,75.0,0.0,60.0,2.0,0.0
2765,76.0,48.0,60.0,2.0,0.0
2766,56.0,48.0,90.0,3.0,0.0
2767,78.0,0.0,60.0,2.0,0.0
2768,80.0,48.0,60.0,2.0,0.0
2769,52.0,48.0,90.0,3.0,0.0
2770,81.0,0.0,60.0,2.0,0.0
2771,83.0,50.0,60.0,2.0,0.0
2772,68.0,0.0,150.0,10.0,0.0
2773,68.0,0.0,150.0,11.0,0.0
2774,68.0,30.0,150.0,8.0,0.0
2775,74.0,48.0,60.0,2.0,0.0
2776,73.0,16.0,60.0,2.0,0.0
2777,59.0,0.0,90.0,3.0,0.0
2778,74.0,48.0,60.0,2.0,0.0
2779,56.0,2.0,90.0,3.0,0.0
2780,83.0,48.0,60.0,2.0,0.0
2781,74.0,48.0,60.0,2.0,0.0
2782,52.0,0.0,90.0,3.0,0.0
2783,73.0,46.0,60.0,2.0,0.0
2784,74.0,48.0,60.0,2.0,0.0
2785,68.0,0.0,150.0,8.0,0.0
2786,83.0,50.0,60.0,2.0,0.0
2787,68.0,30.0,150.0,10.0,0.0
2788,68.0,0.0,150.0,11.0,0.0
2789,74.0,48.0,60.0,2.0,0.0
2790,73.0,16.0,60.0,2.0,0.0
2791,56.0,96.0,90.0,3.0,0.0
2792,71.0,0.0,60.0,2.0,0.0
2793,57.0,0.0,90.0,3.0,0.0
2794,73.0,96.0,90.0,2.0,0.0
2795,59.0,96.0,90.0,3.0,0.0
2796,69.0,0.0,90.0,2.0,0.0
2797,69.0,0.0,150.0,11.0,0.0
2798,61.0,48.0,90.0,3.0,0.0
2799,69.0,30.0,150.0,10.0,0.0
2800,69.0,0.0,150.0,8.0,0.0
2801,73.0,0.0,60.0,2.0,0.0
2802,75.0,18.0,60.0,2.0,0.0
2803,59.0,0.0,90.0,3.0,0.0
2804,77.0,48.0,60.0,2.0,0.0
2805,78.0,48.0,60.0,2.0,0.0
2806,58.0,0.0,90.0,3.0,0.0
2807,80.0,48.0,60.0,2.0,0.0
2808,54.0,0.0,90.0,3.0,0.0
2809,82.0,48.0,60.0,2.0,0.0
2810,83.0,48.0,60.0,2.0,0.0
2811,85.0,50.0,60.0,2.0,0.0
2812,70.0,30.0,150.0,8.0,0.0
2813,70.0,0.0,150.0,11.0,0.0
2814,70.0,0.0,150.0,10.0,0.0
2815,76.0,48.0,60.0,2.0,0.0
2816,75.0,16.0,60.0,2.0,0.0
2817,61.0,0.0,90.0,3.0,0.0
2818,76.0,48.0,60.0,2.0,0.0
2819,58.0,2.0,90.0,3.0,0.0
2820,85.0,48.0,60.0,2.0,0.0
2821,76.0,48.0,60.0,2.0,0.0
2822,75.0,46.0,60.0,2.0,0.0
2823,54.0,48.0,90.0,3.0,0.0
2824,76.0,0.0,60.0,2.0,0.0
2825,70.0,0.0,150.0,11.0,0.0
2826,70.0,30.0,150.0,8.0,0.0
2827,85.0,50.0,60.0,2.0,0.0
2828,70.0,0.0,150.0,10.0,0.0
2829,76.0,48.0,60.0,2.0,0.0
2830,75.0,16.0,60.0,2.0,0.0
2831,58.0,0.0,90.0,3.0,0.0
2832,73.0,48.0,60.0,2.0,0.0
2833,59.0,48.0,60.0,3.0,0.0
2834,75.0,0.0,90.0,2.0,0.0
2835,47.0,48.0,60.0,3.0,0.0
2836,71.0,0.0,90.0,11.0,0.0
2837,71.0,48.0,90.0,2.0,0.0
2838,71.0,0.0,90.0,8.0,0.0
2839,71.0,0.0,90.0,10.0,0.0
2840,49.0,48.0,60.0,3.0,0.0
2841,51.0,0.0,60.0,3.0,0.0
2842,59.0,0.0,150.0,10.0,0.0
2843,59.0,0.0,150.0,8.0,0.0
2844,52.0,48.0,60.0,3.0,0.0
2845,59.0,30.0,150.0,11.0,0.0
2846,75.0,48.0,60.0,2.0,0.0
2847,54.0,0.0,60.0,3.0,0.0
2848,56.0,0.0,60.0,3.0,0.0
2849,76.0,18.0,60.0,2.0,0.0
2850,57.0,48.0,60.0,3.0,0.0
2851,78.0,0.0,60.0,2.0,0.0
2852,59.0,0.0,90.0,3.0,0.0
2853,80.0,48.0,60.0,2.0,0.0
2854,81.0,48.0,60.0,2.0,0.0
2855,63.0,48.0,90.0,3.0,0.0
2856,80.0,48.0,60.0,2.0,0.0
2857,81.0,0.0,60.0,2.0,0.0
2858,59.0,0.0,90.0,3.0,0.0
2859,59.0,30.0,150.0,12.0,0.0
2860,80.0,48.0,60.0,2.0,0.0
2861,81.0,48.0,60.0,2.0,0.0
2862,56.0,0.0,90.0,3.0,0.0
2863,80.0,18.0,60.0,2.0,0.0
2864,78.0,48.0,60.0,2.0,0.0
2865,61.0,0.0,90.0,3.0,0.0
2866,76.0,48.0,60.0,2.0,0.0
2867,75.0,48.0,60.0,2.0,0.0
2868,76.0,48.0,60.0,2.0,0.0
2869,68.0,0.0,90.0,3.0,0.0
2870,75.0,48.0,60.0,2.0,0.0
2871,64.0,48.0,90.0,3.0,0.0
2872,61.0,30.0,150.0,12.0,0.0
2873,73.0,48.0,60.0,2.0,0.0
2874,76.0,0.0,60.0,2.0,0.0
2875,78.0,18.0,60.0,2.0,0.0
2876,63.0,0.0,90.0,3.0,0.0
2877,80.0,48.0,60.0,2.0,0.0
2878,81.0,48.0,60.0,2.0,0.0
2879,61.0,48.0,90.0,3.0,0.0
2880,83.0,0.0,60.0,2.0,0.0
2881,64.0,0.0,90.0,3.0,0.0
2882,81.0,48.0,60.0,2.0,0.0
2883,83.0,48.0,60.0,2.0,0.0
2884,61.0,30.0,150.0,12.0,0.0
2885,61.0,48.0,90.0,3.0,0.0
2886,81.0,48.0,60.0,2.0,0.0
2887,83.0,0.0,60.0,2.0,0.0
2888,57.0,48.0,90.0,3.0,0.0
2889,81.0,18.0,60.0,2.0,0.0
2890,80.0,0.0,60.0,2.0,0.0
2891,63.0,0.0,90.0,3.0,0.0
2892,78.0,48.0,60.0,2.0,0.0
2893,76.0,48.0,60.0,2.0,0.0
2894,69.0,48.0,90.0,3.0,0.0
2895,78.0,48.0,60.0,2.0,0.0
2896,76.0,0.0,60.0,2.0,0.0
2897,75.0,48.0,60.0,2.0,0.0
2898,63.0,30.0,150.0,12.0,0.0
2899,66.0,0.0,90.0,3.0,0.0
2900,78.0,48.0,60.0,2.0,0.0
2901,64.0,48.0,90.0,3.0,0.0
2902,80.0,18.0,60.0,2.0,0.0
2903,81.0,0.0,60.0,2.0,0.0
2904,63.0,0.0,90.0,3.0,0.0
2905,83.0,48.0,60.0,2.0,0.0
2906,85.0,48.0,60.0,2.0,0.0
2907,66.0,0.0,90.0,3.0,0.0
2908,83.0,48.0,60.0,2.0,0.0
2909,85.0,48.0,60.0,2.0,0.0
2910,83.0,48.0,60.0,2.0,0.0
2911,63.0,30.0,150.0,12.0,0.0
2912,63.0,48.0,90.0,3.0,0.0
2913,85.0,0.0,60.0,2.0,0.0
2914,83.0,18.0,60.0,2.0,0.0
2915,59.0,0.0,90.0,3.0,0.0
2916,81.0,48.0,60.0,2.0,0.0
2917,64.0,48.0,90.0,3.0,0.0
2918,80.0,48.0,60.0,2.0,0.0
2919,78.0,0.0,60.0,2.0,0.0
2920,80.0,48.0,60.0,2.0,0.0
2921,71.0,48.0,90.0,3.0,0.0
2922,78.0,0.0,60.0,2.0,0.0
2923,64.0,30.0,150.0,12.0,0.0
2924,76.0,48.0,60.0,2.0,0.0
2925,68.0,0.0,90.0,3.0,0.0
2926,83.0,48.0,60.0,2.0,0.0
2927,66.0,0.0,90.0,3.0,0.0
2928,85.0,18.0,60.0,2.0,0.0
2929,87.0,48.0,60.0,2.0,0.0
2930,80.0,48.0,60.0,4.0,0.0
2931,88.0,0.0,60.0,2.0,0.0
2932,64.0,0.0,90.0,11.0,0.0
2933,64.0,0.0,90.0,5.0,0.0
2934,64.0,48.0,90.0,3.0,0.0
2935,87.0,0.0,60.0,2.0,0.0
2936,78.0,0.0,60.0,4.0,0.0
2937,64.0,0.0,90.0,5.0,0.0
2938,88.0,0.0,60.0,2.0,0.0
2939,80.0,48.0,60.0,4.0,0.0
2940,64.0,48.0,90.0,3.0,0.0
2941,87.0,0.0,60.0,2.0,0.0
2942,78.0,0.0,60.0,4.0,0.0
2943,85.0,0.0,60.0,2.0,0.0
2944,76.0,48.0,60.0,4.0,0.0
2945,66.0,48.0,90.0,3.0,0.0
2946,66.0,0.0,90.0,5.0,0.0
2947,66.0,0.0,90.0,11.0,0.0
2948,80.0,0.0,60.0,4.0,0.0
2949,88.0,0.0,60.0,2.0,0.0
2950,66.0,0.0,90.0,5.0,0.0
2951,87.0,48.0,60.0,2.0,0.0
2952,66.0,0.0,90.0,3.0,0.0
2953,78.0,0.0,60.0,4.0,0.0
2954,76.0,48.0,60.0,4.0,0.0
2955,85.0,0.0,60.0,2.0,0.0
2956,68.0,0.0,90.0,5.0,0.0
2957,68.0,0.0,90.0,11.0,0.0
2958,68.0,48.0,90.0,3.0,0.0
2959,84.0,0.0,60.0,2.0,0.0
2960,75.0,48.0,60.0,4.0,0.0
2961,85.0,0.0,60.0,2.0,0.0
2962,76.0,0.0,60.0,4.0,0.0
2963,78.0,0.0,60.0,4.0,0.0
2964,68.0,0.0,90.0,5.0,0.0
2965,72.0,0.0,60.0,10.0,0.0
2966,75.0,0.0,60.0,8.0,0.0
2967,68.0,0.0,90.0,3.0,0.0
2968,87.0,48.0,60.0,2.0,0.0
2969,76.0,0.0,60.0,8.0,0.0
2970,73.0,0.0,60.0,10.0,0.0
2971,76.0,48.0,60.0,4.0,0.0
2972,85.0,0.0,60.0,2.0,0.0
2973,84.0,0.0,60.0,2.0,0.0
2974,75.0,48.0,60.0,4.0,0.0
2975,78.0,0.0,90.0,8.0,0.0
2976,75.0,0.0,90.0,10.0,0.0
2977,68.0,48.0,90.0,3.0,0.0
2978,68.0,0.0,90.0,5.0,0.0
2979,78.0,0.0,60.0,4.0,0.0
2980,87.0,0.0,60.0,2.0,0.0
2981,56.0,0.0,90.0,11.0,0.0
2982,85.0,0.0,60.0,2.0,0.0
2983,68.0,48.0,90.0,3.0,0.0
2984,68.0,0.0,90.0,5.0,0.0
2985,76.0,48.0,60.0,4.0,0.0
2986,84.0,0.0,60.0,2.0,0.0
2987,75.0,0.0,60.0,4.0,0.0
2988,76.0,0.0,60.0,4.0,0.0
2989,68.0,0.0,90.0,3.0,0.0
2990,68.0,48.0,90.0,11.0,0.0
2991,85.0,48.0,60.0,2.0,0.0
2992,68.0,0.0,90.0,5.0,0.0
2993,78.0,0.0,60.0,4.0,0.0
2994,87.0,0.0,60.0,2.0,0.0
2995,76.0,0.0,60.0,8.0,0.0
2996,73.0,0.0,60.0,10.0,0.0
2997,68.0,48.0,90.0,5.0,0.0
2998,68.0,0.0,90.0,3.0,0.0
2999,80.0,0.0,60.0,4.0,0.0
3000,88.0,48.0,60.0,2.0,0.0
3001,75.0,0.0,60.0,10.0,0.0
3002,78.0,0.0,60.0,8.0,0.0
3003,78.0,0.0,60.0,4.0,0.0
3004,87.0,0.0,60.0,2.0,0.0
3005,76.0,48.0,90.0,10.0,0.0
3006,85.0,48.0,60.0,2.0,0.0
3007,80.0,0.0,90.0,8.0,0.0
3008,68.0,0.0,90.0,5.0,0.0
3009,68.0,0.0,90.0,3.0,0.0
3010,76.0,0.0,60.0,4.0,0.0
3011,80.0,0.0,60.0,4.0,0.0
3012,88.0,0.0,60.0,2.0,0.0
3013,68.0,0.0,90.0,5.0,0.0
3014,78.0,0.0,60.0,4.0,0.0
3015,87.0,48.0,60.0,2.0,0.0
3016,68.0,0.0,90.0,3.0,0.0
3017,56.0,48.0,90.0,11.0,0.0
3018,76.0,0.0,60.0,4.0,0.0
3019,85.0,0.0,60.0,2.0,0.0
3020,68.0,48.0,90.0,11.0,0.0
3021,75.0,0.0,60.0,4.0,0.0
3022,84.0,48.0,60.0,2.0,0.0
3023,68.0,0.0,90.0,5.0,0.0
3024,68.0,0.0,90.0,3.0,0.0
3025,76.0,0.0,60.0,4.0,0.0
3026,85.0,0.0,60.0,2.0,0.0
3027,68.0,0.0,90.0,5.0,0.0
3028,68.0,0.0,90.0,3.0,0.0
3029,72.0,0.0,60.0,10.0,0.0
3030,78.0,0.0,60.0,4.0,0.0
3031,75.0,0.0,60.0,8.0,0.0
3032,87.0,48.0,60.0,2.0,0.0
3033,76.0,48.0,60.0,4.0,0.0
3034,76.0,0.0,60.0,8.0,0.0
3035,73.0,0.0,60.0,10.0,0.0
3036,85.0,0.0,60.0,2.0,0.0
3037,68.0,0.0,90.0,5.0,0.0
3038,68.0,0.0,90.0,3.0,0.0
3039,84.0,0.0,60.0,2.0,0.0
3040,75.0,48.0,90.0,10.0,0.0
3041,78.0,0.0,90.0,8.0,0.0
3042,75.0,48.0,60.0,4.0,0.0
3043,78.0,0.0,60.0,4.0,0.0
3044,87.0,0.0,60.0,2.0,0.0
3045,68.0,48.0,90.0,3.0,0.0
3046,56.0,0.0,90.0,11.0,0.0
3047,68.0,0.0,90.0,5.0,0.0
3048,85.0,0.0,60.0,2.0,0.0
3049,76.0,48.0,60.0,4.0,0.0
3050,84.0,0.0,60.0,2.0,0.0
3051,75.0,0.0,60.0,4.0,0.0
3052,85.0,0.0,60.0,2.0,0.0
3053,68.0,0.0,90.0,5.0,0.0
3054,76.0,48.0,60.0,4.0,0.0
3055,68.0,48.0,90.0,3.0,0.0
3056,68.0,0.0,90.0,11.0,0.0
3057,87.0,0.0,60.0,2.0,0.0
3058,78.0,0.0,60.0,4.0,0.0
3059,88.0,0.0,60.0,2.0,0.0
3060,73.0,0.0,60.0,10.0,0.0
3061,80.0,0.0,60.0,4.0,0.0
3062,68.0,0.0,90.0,5.0,0.0
3063,76.0,48.0,60.0,8.0,0.0
3064,68.0,0.0,90.0,3.0,0.0
3065,78.0,0.0,60.0,4.0,0.0
3066,87.0,0.0,60.0,2.0,0.0
3067,75.0,48.0,60.0,10.0,0.0
3068,78.0,0.0,60.0,8.0,0.0
3069,68.0,0.0,90.0,3.0,0.0
3070,76.0,0.0,60.0,4.0,0.0
3071,80.0,0.0,90.0,8.0,0.0
3072,85.0,48.0,60.0,2.0,0.0
3073,68.0,48.0,90.0,5.0,0.0
3074,76.0,0.0,90.0,10.0,0.0
3075,80.0,0.0,60.0,4.0,0.0
3076,88.0,0.0,60.0,2.0,0.0
3077,56.0,0.0,90.0,11.0,0.0
3078,68.0,0.0,90.0,3.0,0.0
3079,78.0,0.0,60.0,4.0,0.0
3080,68.0,96.0,90.0,5.0,0.0
3081,87.0,48.0,60.0,2.0,0.0
3082,76.0,0.0,60.0,4.0,0.0
3083,85.0,0.0,60.0,2.0,0.0
3084,84.0,48.0,90.0,2.0,0.0
3085,68.0,0.0,90.0,3.0,0.0
3086,75.0,0.0,150.0,4.0,0.0
3087,68.0,30.0,150.0,11.0,0.0
3088,68.0,0.0,150.0,5.0,0.0
3089,80.0,0.0,90.0,8.0,0.0
3090,56.0,18.0,60.0,3.0,0.0
3091,80.0,0.0,90.0,2.0,0.0
3092,80.0,96.0,90.0,10.0,0.0
3093,54.0,0.0,60.0,3.0,0.0
3094,68.0,30.0,150.0,8.0,0.0
3095,68.0,0.0,150.0,10.0,0.0
3096,52.0,48.0,90.0,3.0,0.0
3097,80.0,0.0,60.0,2.0,0.0
3098,85.0,18.0,60.0,2.0,0.0
3099,49.0,0.0,90.0,3.0,0.0
3100,83.0,48.0,60.0,2.0,0.0
3101,81.0,48.0,60.0,2.0,0.0
3102,54.0,0.0,90.0,3.0,0.0
3103,78.0,48.0,60.0,2.0,0.0
3104,80.0,48.0,60.0,2.0,0.0
3105,57.0,0.0,90.0,3.0,0.0
3106,76.0,48.0,60.0,2.0,0.0
3107,59.0,0.0,90.0,3.0,0.0
3108,75.0,48.0,60.0,2.0,0.0
3109,78.0,48.0,60.0,2.0,0.0
3110,51.0,48.0,90.0,3.0,0.0
3111,83.0,48.0,60.0,2.0,0.0
3112,81.0,0.0,60.0,2.0,0.0
3113,80.0,48.0,60.0,2.0,0.0
3114,52.0,0.0,90.0,3.0,0.0
3115,76.0,48.0,60.0,2.0,0.0
3116,56.0,48.0,90.0,3.0,0.0
3117,78.0,48.0,60.0,2.0,0.0
3118,75.0,0.0,60.0,2.0,0.0
3119,57.0,0.0,90.0,3.0,0.0
3120,73.0,48.0,60.0,2.0,0.0
3121,76.0,48.0,60.0,2.0,0.0
3122,49.0,0.0,90.0,3.0,0.0
3123,81.0,48.0,60.0,2.0,0.0
3124,80.0,48.0,60.0,2.0,0.0
3125,78.0,48.0,60.0,2.0,0.0
3126,51.0,48.0,90.0,3.0,0.0
3127,75.0,0.0,60.0,2.0,0.0
3128,76.0,48.0,60.0,2.0,0.0
3129,54.0,0.0,90.0,3.0,0.0
3130,73.0,48.0,60.0,2.0,0.0
3131,56.0,48.0,90.0,3.0,0.0
3132,72.0,48.0,60.0,2.0,0.0
3133,75.0,0.0,60.0,2.0,0.0
3134,80.0,48.0,60.0,2.0,0.0
3135,48.0,0.0,90.0,3.0,0.0
3136,78.0,48.0,60.0,2.0,0.0
3137,76.0,48.0,60.0,2.0,0.0
3138,49.0,48.0,90.0,3.0,0.0
3139,73.0,0.0,60.0,2.0,0.0
3140,61.0,48.0,90.0,3.0,0.0
3141,75.0,48.0,60.0,2.0,0.0
3142,76.0,0.0,60.0,2.0,0.0
3143,58.0,48.0,90.0,3.0,0.0
3144,67.0,48.0,60.0,2.0,0.0
3145,76.0,0.0,60.0,2.0,0.0
3146,55.0,48.0,90.0,3.0,0.0
3147,75.0,48.0,60.0,2.0,0.0
3148,73.0,0.0,60.0,2.0,0.0
3149,71.0,48.0,60.0,2.0,0.0
3150,56.0,48.0,90.0,3.0,0.0
3151,70.0,0.0,60.0,2.0,0.0
3152,59.0,0.0,90.0,3.0,0.0
3153,68.0,48.0,60.0,2.0,0.0
3154,78.0,48.0,60.0,2.0,0.0
3155,76.0,48.0,60.0,2.0,0.0
3156,61.0,48.0,90.0,3.0,0.0
3157,75.0,0.0,60.0,2.0,0.0
3158,73.0,48.0,60.0,2.0,0.0
3159,64.0,0.0,90.0,3.0,0.0
3160,82.0,48.0,60.0,2.0,0.0
3161,63.0,0.0,90.0,3.0,0.0
3162,79.0,48.0,60.0,2.0,0.0
3163,77.0,48.0,60.0,2.0,0.0
3164,75.0,48.0,60.0,2.0,0.0
3165,55.0,0.0,90.0,3.0,0.0
3166,73.0,48.0,60.0,2.0,0.0
3167,56.0,0.0,90.0,3.0,0.0
3168,71.0,48.0,60.0,2.0,0.0
3169,70.0,48.0,60.0,2.0,0.0
3170,51.0,48.0,90.0,3.0,0.0
3171,68.0,48.0,60.0,2.0,0.0
3172,67.0,0.0,60.0,2.0,0.0
3173,52.0,0.0,90.0,3.0,0.0
3174,68.0,48.0,60.0,2.0,0.0
3175,61.0,48.0,60.0,2.0,0.0
3176,68.0,48.0,60.0,2.0,0.0
3177,47.0,0.0,90.0,3.0,0.0
3178,59.0,48.0,60.0,2.0,0.0
3179,49.0,48.0,90.0,3.0,0.0
3180,58.0,48.0,60.0,2.0,0.0
3181,68.0,0.0,60.0,2.0,0.0
3182,51.0,0.0,90.0,3.0,0.0
3183,63.0,24.0,90.0,5.0,0.0
3184,58.0,48.0,60.0,2.0,0.0
3185,67.0,0.0,60.0,2.0,0.0
3186,56.0,0.0,90.0,1.0,0.0
3187,68.0,6.0,150.0,2.0,0.0
3188,81.0,24.0,20.0,0.0,0.0
3189,44.0,24.0,90.0,12.0,0.0
3190,59.0,0.0,90.0,5.0,0.0
3191,80.0,22.0,720.0,8.0,0.0
3192,44.0,0.0,90.0,3.0,0.0
3193,80.0,24.0,20.0,0.0,0.0
3194,71.0,0.0,60.0,4.0,0.0
3195,81.0,24.0,20.0,0.0,0.0
3196,80.0,0.0,20.0,0.0,0.0
3197,81.0,24.0,20.0,0.0,0.0
3198,56.0,0.0,60.0,3.0,0.0
3199,56.0,0.0,90.0,5.0,0.0
3200,63.0,0.0,90.0,7.0,0.0
3201,44.0,0.0,90.0,12.0,0.0
3202,75.0,0.0,60.0,4.0,0.0
3203,44.0,24.0,90.0,1.0,0.0
3204,63.0,0.0,90.0,11.0,0.0
3205,80.0,18.0,20.0,0.0,0.0
3206,81.0,24.0,20.0,0.0,0.0
3207,58.0,0.0,60.0,3.0,0.0
3208,80.0,0.0,60.0,4.0,0.0
3209,80.0,0.0,20.0,0.0,0.0
3210,59.0,0.0,90.0,11.0,0.0
3211,47.0,0.0,90.0,12.0,0.0
3212,80.0,22.0,60.0,4.0,0.0
3213,59.0,0.0,90.0,7.0,0.0
3214,59.0,0.0,90.0,3.0,0.0
3215,81.0,24.0,20.0,0.0,0.0
3216,80.0,2.0,20.0,0.0,0.0
3217,71.0,24.0,60.0,6.0,0.0
3218,78.0,0.0,60.0,4.0,0.0
3219,81.0,24.0,20.0,0.0,0.0
3220,80.0,0.0,20.0,0.0,0.0
3221,59.0,0.0,90.0,1.0,0.0
3222,75.0,24.0,60.0,6.0,0.0
3223,75.0,0.0,90.0,10.0,0.0
3224,75.0,0.0,90.0,2.0,0.0
3225,80.0,0.0,90.0,4.0,0.0
3226,47.0,0.0,90.0,3.0,0.0
3227,56.0,0.0,90.0,7.0,0.0
3228,47.0,0.0,90.0,12.0,0.0
3229,81.0,24.0,20.0,0.0,0.0
3230,56.0,24.0,90.0,11.0,0.0
3231,56.0,0.0,90.0,5.0,0.0
3232,80.0,0.0,20.0,0.0,0.0
3233,81.0,24.0,20.0,0.0,0.0
3234,80.0,0.0,60.0,6.0,0.0
3235,80.0,0.0,20.0,0.0,0.0
3236,49.0,24.0,90.0,12.0,0.0
3237,81.0,24.0,20.0,0.0,0.0
3238,77.0,0.0,90.0,6.0,0.0
3239,78.0,0.0,20.0,2.0,0.0
3240,61.0,0.0,90.0,5.0,0.0
3241,77.0,22.0,720.0,10.0,0.0
3242,61.0,0.0,90.0,1.0,0.0
3243,80.0,24.0,20.0,0.0,0.0
3244,77.0,0.0,20.0,2.0,0.0
3245,78.0,24.0,20.0,2.0,0.0
3246,81.0,0.0,20.0,0.0,0.0
3247,73.0,0.0,60.0,4.0,0.0
3248,77.0,0.0,20.0,2.0,0.0
3249,80.0,0.0,20.0,0.0,0.0
3250,73.0,0.0,90.0,6.0,0.0
3251,78.0,0.0,20.0,2.0,0.0
3252,77.0,24.0,60.0,4.0,0.0
3253,49.0,0.0,90.0,12.0,0.0
3254,68.0,0.0,90.0,11.0,0.0
3255,61.0,0.0,90.0,3.0,0.0
3256,68.0,0.0,90.0,5.0,0.0
3257,65.0,0.0,90.0,7.0,0.0
3258,81.0,24.0,20.0,0.0,0.0
3259,49.0,0.0,90.0,1.0,0.0
3260,77.0,0.0,20.0,2.0,0.0
3261,80.0,0.0,20.0,0.0,0.0
3262,78.0,24.0,20.0,2.0,0.0
3263,80.0,0.0,60.0,4.0,0.0
3264,81.0,0.0,20.0,0.0,0.0
3265,80.0,0.0,20.0,0.0,0.0
3266,77.0,24.0,20.0,2.0,0.0
3267,49.0,0.0,90.0,12.0,0.0
3268,61.0,0.0,90.0,3.0,0.0
3269,80.0,22.0,60.0,4.0,0.0
3270,78.0,0.0,20.0,2.0,0.0
3271,81.0,24.0,20.0,0.0,0.0
3272,61.0,0.0,90.0,7.0,0.0
3273,65.0,24.0,90.0,11.0,0.0
3274,77.0,0.0,20.0,2.0,0.0
3275,80.0,2.0,20.0,0.0,0.0
3276,78.0,0.0,60.0,4.0,0.0
3277,78.0,0.0,20.0,2.0,0.0
3278,81.0,24.0,20.0,0.0,0.0
3279,73.0,0.0,60.0,6.0,0.0
3280,80.0,0.0,20.0,0.0,0.0
3281,77.0,0.0,20.0,2.0,0.0
3282,61.0,0.0,90.0,1.0,0.0
3283,81.0,0.0,20.0,0.0,0.0
3284,49.0,0.0,90.0,3.0,0.0
3285,77.0,0.0,60.0,6.0,0.0
3286,80.0,0.0,90.0,4.0,0.0
3287,65.0,0.0,90.0,5.0,0.0
3288,61.0,0.0,90.0,11.0,0.0
3289,49.0,0.0,90.0,12.0,0.0
3290,78.0,24.0,20.0,2.0,0.0
3291,56.0,24.0,90.0,7.0,0.0
3292,77.0,0.0,20.0,2.0,0.0
3293,80.0,2.0,20.0,0.0,0.0
3294,80.0,0.0,60.0,6.0,0.0
3295,81.0,24.0,20.0,0.0,0.0
3296,78.0,0.0,20.0,2.0,0.0
3297,77.0,0.0,20.0,2.0,0.0
3298,80.0,0.0,20.0,0.0,0.0
3299,83.0,0.0,20.0,0.0,0.0
3300,62.0,0.0,90.0,1.0,0.0
3301,82.0,22.0,720.0,8.0,0.0
3302,77.0,0.0,90.0,6.0,0.0
3303,78.0,24.0,20.0,2.0,0.0
3304,62.0,0.0,90.0,5.0,0.0
3305,50.0,0.0,90.0,12.0,0.0
3306,82.0,0.0,20.0,0.0,0.0
3307,77.0,24.0,20.0,2.0,0.0
3308,78.0,0.0,20.0,2.0,0.0
3309,74.0,24.0,60.0,4.0,0.0
3310,83.0,24.0,20.0,0.0,0.0
3311,77.0,0.0,20.0,2.0,0.0
3312,82.0,0.0,20.0,0.0,0.0
3313,65.0,0.0,90.0,11.0,0.0
3314,50.0,0.0,90.0,12.0,0.0
3315,78.0,0.0,20.0,2.0,0.0
3316,77.0,0.0,60.0,4.0,0.0
3317,58.0,0.0,90.0,5.0,0.0
3318,74.0,0.0,90.0,6.0,0.0
3319,50.0,0.0,90.0,1.0,0.0
3320,62.0,24.0,90.0,3.0,0.0
3321,65.0,0.0,90.0,7.0,0.0
3322,83.0,24.0,20.0,0.0,0.0
3323,82.0,0.0,20.0,0.0,0.0
3324,77.0,24.0,20.0,2.0,0.0
3325,78.0,0.0,20.0,2.0,0.0
3326,83.0,24.0,20.0,0.0,0.0
3327,82.0,0.0,60.0,4.0,0.0
3328,77.0,0.0,20.0,2.0,0.0
3329,82.0,0.0,20.0,0.0,0.0
3330,83.0,0.0,20.0,0.0,0.0
3331,78.0,24.0,20.0,2.0,0.0
3332,50.0,0.0,90.0,12.0,0.0
3333,82.0,22.0,60.0,4.0,0.0
3334,62.0,0.0,90.0,7.0,0.0
3335,62.0,24.0,90.0,11.0,0.0
3336,62.0,0.0,90.0,3.0,0.0
3337,82.0,2.0,20.0,0.0,0.0
3338,77.0,0.0,20.0,2.0,0.0
3339,83.0,0.0,20.0,0.0,0.0
3340,78.0,24.0,20.0,2.0,0.0
3341,80.0,0.0,60.0,4.0,0.0
3342,74.0,0.0,60.0,6.0,0.0
3343,82.0,0.0,20.0,0.0,0.0
3344,77.0,0.0,20.0,2.0,0.0
3345,62.0,0.0,90.0,1.0,0.0
3346,58.0,0.0,90.0,7.0,0.0
3347,58.0,0.0,90.0,5.0,0.0
3348,82.0,24.0,90.0,4.0,0.0
3349,50.0,0.0,90.0,12.0,0.0
3350,50.0,0.0,90.0,3.0,0.0
3351,58.0,0.0,90.0,11.0,0.0
3352,83.0,24.0,20.0,0.0,0.0
3353,77.0,0.0,60.0,6.0,0.0
3354,78.0,0.0,20.0,2.0,0.0
3355,82.0,2.0,20.0,0.0,0.0
3356,77.0,0.0,20.0,2.0,0.0
3357,82.0,0.0,60.0,6.0,0.0
3358,78.0,0.0,20.0,2.0,0.0
3359,83.0,24.0,20.0,0.0,0.0
3360,77.0,0.0,20.0,2.0,0.0
3361,82.0,0.0,20.0,0.0,0.0
3362,83.0,0.0,20.0,0.0,0.0
3363,63.0,0.0,90.0,5.0,0.0
3364,79.0,0.0,90.0,6.0,0.0
3365,51.0,24.0,90.0,12.0,0.0
3366,79.0,22.0,720.0,10.0,0.0
3367,80.0,24.0,20.0,2.0,0.0
3368,63.0,0.0,90.0,1.0,0.0
3369,82.0,0.0,20.0,0.0,0.0
3370,79.0,24.0,20.0,2.0,0.0
3371,83.0,0.0,20.0,0.0,0.0
3372,80.0,24.0,20.0,2.0,0.0
3373,75.0,0.0,60.0,4.0,0.0
3374,82.0,0.0,20.0,0.0,0.0
3375,79.0,0.0,20.0,2.0,0.0
3376,51.0,0.0,90.0,1.0,0.0
3377,70.0,0.0,90.0,5.0,0.0
3378,63.0,0.0,90.0,3.0,0.0
3379,80.0,0.0,20.0,2.0,0.0
3380,79.0,0.0,60.0,4.0,0.0
3381,70.0,0.0,90.0,11.0,0.0
3382,67.0,0.0,90.0,7.0,0.0
3383,75.0,0.0,90.0,6.0,0.0
3384,83.0,24.0,20.0,0.0,0.0
3385,51.0,24.0,90.0,12.0,0.0
3386,79.0,0.0,20.0,2.0,0.0
3387,82.0,24.0,20.0,0.0,0.0
3388,80.0,24.0,20.0,2.0,0.0
3389,83.0,0.0,20.0,0.0,0.0
3390,82.0,0.0,60.0,4.0,0.0
3391,82.0,0.0,20.0,0.0,0.0
3392,79.0,0.0,20.0,2.0,0.0
3393,51.0,0.0,90.0,12.0,0.0
3394,82.0,22.0,60.0,4.0,0.0
3395,83.0,24.0,20.0,0.0,0.0
3396,80.0,0.0,20.0,2.0,0.0
3397,63.0,24.0,90.0,7.0,0.0
3398,63.0,0.0,90.0,3.0,0.0
3399,67.0,0.0,90.0,11.0,0.0
3400,79.0,2.0,20.0,2.0,0.0
3401,82.0,0.0,20.0,0.0,0.0
3402,80.0,0.0,20.0,2.0,0.0
3403,83.0,24.0,20.0,0.0,0.0
3404,75.0,0.0,60.0,6.0,0.0
3405,80.0,0.0,60.0,4.0,0.0
3406,82.0,0.0,20.0,0.0,0.0
3407,79.0,0.0,20.0,2.0,0.0
3408,58.0,0.0,90.0,7.0,0.0
3409,51.0,0.0,90.0,3.0,0.0
3410,51.0,24.0,90.0,12.0,0.0
3411,79.0,0.0,60.0,6.0,0.0
3412,80.0,24.0,20.0,2.0,0.0
3413,83.0,0.0,20.0,0.0,0.0
3414,63.0,0.0,90.0,1.0,0.0
3415,67.0,0.0,90.0,5.0,0.0
3416,82.0,0.0,90.0,4.0,0.0
3417,63.0,0.0,90.0,11.0,0.0
3418,79.0,2.0,20.0,2.0,0.0
3419,82.0,0.0,20.0,0.0,0.0
3420,80.0,0.0,20.0,2.0,0.0
3421,83.0,24.0,20.0,0.0,0.0
3422,82.0,0.0,60.0,6.0,0.0
3423,82.0,0.0,20.0,0.0,0.0
3424,79.0,0.0,20.0,2.0,0.0
3425,63.0,0.0,90.0,1.0,0.0
3426,63.0,0.0,90.0,5.0,0.0
3427,79.0,24.0,90.0,6.0,0.0
3428,80.0,24.0,20.0,2.0,0.0
3429,85.0,0.0,20.0,0.0,0.0
3430,51.0,0.0,90.0,12.0,0.0
3431,79.0,0.0,20.0,2.0,0.0
3432,83.0,24.0,20.0,0.0,0.0
3433,75.0,0.0,60.0,4.0,0.0
3434,85.0,0.0,20.0,0.0,0.0
3435,80.0,24.0,20.0,2.0,0.0
3436,83.0,0.0,20.0,0.0,0.0
3437,79.0,0.0,20.0,2.0,0.0
3438,75.0,24.0,90.0,6.0,0.0
3439,67.0,0.0,90.0,7.0,0.0
3440,85.0,0.0,20.0,0.0,0.0
3441,51.0,0.0,90.0,12.0,0.0
3442,79.0,24.0,60.0,4.0,0.0
3443,51.0,0.0,90.0,1.0,0.0
3444,67.0,0.0,90.0,11.0,0.0
3445,63.0,0.0,90.0,3.0,0.0
3446,59.0,0.0,90.0,5.0,0.0
3447,80.0,24.0,20.0,2.0,0.0
3448,79.0,0.0,20.0,2.0,0.0
3449,83.0,0.0,20.0,0.0,0.0
3450,83.0,0.0,60.0,4.0,0.0
3451,80.0,0.0,20.0,2.0,0.0
3452,85.0,24.0,20.0,0.0,0.0
3453,79.0,0.0,20.0,2.0,0.0
3454,83.0,0.0,20.0,0.0,0.0
3455,83.0,22.0,60.0,4.0,0.0
3456,51.0,0.0,90.0,12.0,0.0
3457,63.0,0.0,90.0,3.0,0.0
3458,63.0,0.0,90.0,11.0,0.0
3459,80.0,0.0,20.0,2.0,0.0
3460,85.0,24.0,20.0,0.0,0.0
3461,63.0,24.0,90.0,7.0,0.0
3462,79.0,2.0,20.0,2.0,0.0
3463,83.0,0.0,20.0,0.0,0.0
3464,82.0,0.0,60.0,4.0,0.0
3465,80.0,24.0,20.0,2.0,0.0
3466,85.0,0.0,20.0,0.0,0.0
3467,75.0,0.0,60.0,6.0,0.0
3468,83.0,0.0,20.0,0.0,0.0
3469,79.0,0.0,20.0,2.0,0.0
3470,51.0,0.0,90.0,12.0,0.0
3471,85.0,24.0,20.0,0.0,0.0
3472,63.0,0.0,90.0,1.0,0.0
3473,79.0,0.0,60.0,6.0,0.0
3474,80.0,0.0,20.0,2.0,0.0
3475,59.0,0.0,90.0,5.0,0.0
3476,59.0,0.0,90.0,11.0,0.0
3477,83.0,0.0,90.0,4.0,0.0
3478,51.0,0.0,90.0,3.0,0.0
3479,59.0,2.0,90.0,7.0,0.0
3480,79.0,2.0,20.0,2.0,0.0
3481,83.0,0.0,20.0,0.0,0.0
3482,80.0,0.0,20.0,2.0,0.0
3483,83.0,0.0,60.0,6.0,0.0
3484,85.0,24.0,20.0,0.0,0.0
3485,83.0,0.0,20.0,0.0,0.0
3486,79.0,0.0,20.0,2.0,0.0
3487,80.0,22.0,720.0,10.0,0.0
3488,83.0,22.0,15.0,8.0,0.0
3489,52.0,0.0,90.0,12.0,0.0
3490,64.0,0.0,90.0,1.0,0.0
3491,80.0,0.0,90.0,6.0,0.0
3492,81.0,24.0,20.0,2.0,0.0
3493,85.0,0.0,20.0,0.0,0.0
3494,64.0,0.0,90.0,5.0,0.0
3495,83.0,0.0,20.0,0.0,0.0
3496,80.0,24.0,20.0,2.0,0.0
3497,81.0,0.0,20.0,2.0,0.0
3498,85.0,24.0,20.0,0.0,0.0
3499,76.0,0.0,60.0,4.0,0.0
3500,80.0,24.0,20.0,2.0,0.0
3501,83.0,0.0,20.0,0.0,0.0
3502,71.0,0.0,90.0,5.0,0.0
3503,64.0,0.0,90.0,3.0,0.0
3504,85.0,0.0,20.0,0.0,0.0
3505,52.0,0.0,90.0,1.0,0.0
3506,52.0,0.0,90.0,12.0,0.0
3507,71.0,0.0,90.0,11.0,0.0
3508,76.0,0.0,90.0,6.0,0.0
3509,81.0,24.0,20.0,2.0,0.0
3510,80.0,24.0,60.0,4.0,0.0
3511,68.0,24.0,90.0,7.0,0.0
3512,83.0,0.0,20.0,0.0,0.0
3513,80.0,0.0,20.0,2.0,0.0
3514,81.0,0.0,20.0,2.0,0.0
3515,83.0,0.0,60.0,4.0,0.0
3516,85.0,24.0,20.0,0.0,0.0
3517,80.0,0.0,20.0,2.0,0.0
3518,83.0,0.0,20.0,0.0,0.0
3519,85.0,0.0,20.0,0.0,0.0
3520,81.0,24.0,20.0,2.0,0.0
3521,68.0,0.0,90.0,11.0,0.0
3522,64.0,0.0,90.0,3.0,0.0
3523,52.0,0.0,90.0,12.0,0.0
3524,83.0,22.0,60.0,4.0,0.0
3525,64.0,0.0,90.0,7.0,0.0
3526,83.0,2.0,20.0,0.0,0.0
3527,80.0,0.0,20.0,2.0,0.0
3528,82.0,24.0,60.0,4.0,0.0
3529,85.0,24.0,20.0,0.0,0.0
3530,81.0,0.0,20.0,2.0,0.0
3531,76.0,0.0,60.0,6.0,0.0
3532,80.0,0.0,20.0,2.0,0.0
3533,83.0,0.0,20.0,0.0,0.0
3534,80.0,0.0,60.0,6.0,0.0
3535,52.0,0.0,90.0,3.0,0.0
3536,85.0,0.0,20.0,0.0,0.0
3537,81.0,24.0,20.0,2.0,0.0
3538,64.0,0.0,90.0,1.0,0.0
3539,83.0,0.0,90.0,4.0,0.0
3540,64.0,0.0,90.0,11.0,0.0
3541,68.0,0.0,90.0,5.0,0.0
3542,52.0,0.0,90.0,12.0,0.0
3543,59.0,0.0,90.0,7.0,0.0
3544,80.0,2.0,20.0,2.0,0.0
3545,83.0,0.0,20.0,0.0,0.0
3546,85.0,0.0,20.0,0.0,0.0
3547,81.0,24.0,20.0,2.0,0.0
3548,83.0,0.0,60.0,6.0,0.0
3549,83.0,0.0,20.0,0.0,0.0
3550,80.0,24.0,20.0,2.0,0.0
3551,81.0,24.0,20.0,2.0,0.0
3552,64.0,0.0,90.0,5.0,0.0
3553,52.0,0.0,90.0,12.0,0.0
3554,87.0,0.0,20.0,0.0,0.0
3555,64.0,0.0,90.0,1.0,0.0
3556,80.0,0.0,90.0,6.0,0.0
3557,80.0,0.0,20.0,2.0,0.0
3558,85.0,24.0,20.0,0.0,0.0
3559,76.0,0.0,60.0,4.0,0.0
3560,81.0,0.0,20.0,2.0,0.0
3561,87.0,24.0,20.0,0.0,0.0
3562,85.0,0.0,20.0,0.0,0.0
3563,80.0,24.0,20.0,2.0,0.0
3564,52.0,0.0,90.0,1.0,0.0
3565,87.0,24.0,20.0,0.0,0.0
3566,76.0,0.0,90.0,6.0,0.0
3567,64.0,0.0,90.0,3.0,0.0
3568,68.0,0.0,90.0,7.0,0.0
3569,61.0,0.0,90.0,5.0,0.0
3570,80.0,0.0,60.0,4.0,0.0
3571,68.0,0.0,90.0,11.0,0.0
3572,81.0,0.0,20.0,2.0,0.0
3573,52.0,0.0,90.0,12.0,0.0
3574,80.0,0.0,20.0,2.0,0.0
3575,85.0,24.0,20.0,0.0,0.0
3576,87.0,0.0,20.0,0.0,0.0
3577,81.0,24.0,20.0,2.0,0.0
3578,85.0,0.0,60.0,4.0,0.0
3579,80.0,24.0,20.0,2.0,0.0
3580,85.0,0.0,20.0,0.0,0.0
3581,85.0,22.0,60.0,4.0,0.0
3582,64.0,0.0,90.0,11.0,0.0
3583,87.0,0.0,20.0,0.0,0.0
3584,64.0,0.0,90.0,3.0,0.0
3585,81.0,24.0,20.0,2.0,0.0
3586,64.0,0.0,90.0,7.0,0.0
3587,52.0,0.0,90.0,12.0,0.0
3588,85.0,0.0,20.0,0.0,0.0
3589,80.0,2.0,20.0,2.0,0.0
3590,87.0,0.0,20.0,0.0,0.0
3591,83.0,0.0,60.0,4.0,0.0
3592,81.0,24.0,20.0,2.0,0.0
3593,76.0,0.0,60.0,6.0,0.0
3594,85.0,24.0,20.0,0.0,0.0
3595,80.0,0.0,20.0,2.0,0.0
3596,80.0,0.0,60.0,6.0,0.0
3597,61.0,0.0,90.0,5.0,0.0
3598,81.0,24.0,20.0,2.0,0.0
3599,85.0,0.0,90.0,4.0,0.0
3600,61.0,0.0,90.0,11.0,0.0
3601,52.0,2.0,90.0,12.0,0.0
3602,87.0,0.0,20.0,0.0,0.0
3603,52.0,0.0,90.0,3.0,0.0
3604,64.0,0.0,90.0,1.0,0.0
3605,61.0,0.0,90.0,7.0,0.0
3606,80.0,0.0,20.0,2.0,0.0
3607,85.0,2.0,20.0,0.0,0.0
3608,87.0,24.0,20.0,0.0,0.0
3609,85.0,0.0,60.0,6.0,0.0
3610,81.0,0.0,20.0,2.0,0.0
3611,85.0,0.0,20.0,0.0,0.0
3612,80.0,0.0,20.0,2.0,0.0
3613,51.0,0.0,90.0,12.0,0.0
3614,85.0,22.0,15.0,8.0,0.0
3615,63.0,0.0,90.0,5.0,0.0
3616,79.0,0.0,90.0,6.0,0.0
3617,79.0,0.0,330.0,10.0,0.0
3618,63.0,0.0,90.0,1.0,0.0
3619,80.0,0.0,20.0,2.0,0.0
3620,87.0,24.0,20.0,0.0,0.0
3621,79.0,0.0,20.0,2.0,0.0
3622,85.0,24.0,20.0,0.0,0.0
3623,80.0,0.0,20.0,2.0,0.0
3624,87.0,24.0,20.0,0.0,0.0
3625,75.0,0.0,60.0,4.0,0.0
3626,85.0,24.0,20.0,0.0,0.0
3627,79.0,0.0,20.0,2.0,0.0
3628,87.0,0.0,20.0,0.0,0.0
3629,75.0,0.0,90.0,6.0,0.0
3630,67.0,0.0,90.0,7.0,0.0
3631,51.0,0.0,90.0,12.0,0.0
3632,80.0,24.0,20.0,2.0,0.0
3633,51.0,24.0,90.0,1.0,0.0
3634,70.0,0.0,90.0,5.0,0.0
3635,79.0,0.0,60.0,4.0,0.0
3636,63.0,0.0,90.0,3.0,0.0
3637,70.0,0.0,90.0,11.0,0.0
3638,79.0,0.0,20.0,2.0,0.0
3639,85.0,24.0,20.0,0.0,0.0
3640,80.0,24.0,20.0,2.0,0.0
3641,85.0,0.0,60.0,4.0,0.0
3642,87.0,0.0,20.0,0.0,0.0
3643,85.0,0.0,20.0,0.0,0.0
3644,79.0,0.0,20.0,2.0,0.0
3645,80.0,0.0,20.0,2.0,0.0
3646,85.0,22.0,60.0,4.0,0.0
3647,51.0,0.0,90.0,12.0,0.0
3648,63.0,0.0,90.0,7.0,0.0
3649,63.0,24.0,90.0,3.0,0.0
3650,87.0,24.0,20.0,0.0,0.0
3651,67.0,0.0,90.0,11.0,0.0
3652,85.0,0.0,20.0,0.0,0.0
3653,79.0,2.0,20.0,2.0,0.0
3654,80.0,0.0,20.0,2.0,0.0
3655,87.0,24.0,20.0,0.0,0.0
3656,83.0,0.0,60.0,4.0,0.0
3657,75.0,0.0,60.0,6.0,0.0
3658,85.0,0.0,20.0,0.0,0.0
3659,79.0,0.0,20.0,2.0,0.0
3660,70.0,0.0,90.0,5.0,0.0
3661,51.0,0.0,90.0,3.0,0.0
3662,80.0,0.0,20.0,2.0,0.0
3663,85.0,0.0,90.0,4.0,0.0
3664,63.0,24.0,90.0,11.0,0.0
3665,87.0,24.0,20.0,0.0,0.0
3666,63.0,0.0,90.0,1.0,0.0
3667,51.0,0.0,90.0,12.0,0.0
3668,58.0,0.0,90.0,7.0,0.0
3669,79.0,2.0,60.0,6.0,0.0
3670,85.0,0.0,20.0,0.0,0.0
3671,79.0,0.0,20.0,2.0,0.0
3672,80.0,24.0,20.0,2.0,0.0
3673,87.0,0.0,20.0,0.0,0.0
3674,85.0,0.0,60.0,6.0,0.0
3675,79.0,0.0,20.0,2.0,0.0
3676,85.0,0.0,20.0,0.0,0.0
3677,80.0,22.0,720.0,10.0,0.0
3678,80.0,0.0,90.0,6.0,0.0
3679,81.0,24.0,20.0,2.0,0.0
3680,71.0,0.0,90.0,5.0,0.0
3681,51.0,0.0,90.0,12.0,0.0
3682,63.0,0.0,90.0,1.0,0.0
3683,83.0,22.0,330.0,8.0,0.0
3684,85.0,0.0,20.0,0.0,0.0
3685,80.0,24.0,20.0,2.0,0.0
3686,83.0,0.0,20.0,0.0,0.0
3687,85.0,24.0,20.0,0.0,0.0
3688,75.0,24.0,60.0,4.0,0.0
3689,81.0,0.0,20.0,2.0,0.0
3690,83.0,0.0,20.0,0.0,0.0
3691,80.0,0.0,20.0,2.0,0.0
3692,68.0,0.0,90.0,7.0,0.0
3693,85.0,0.0,20.0,0.0,0.0
3694,75.0,0.0,90.0,11.0,0.0
3695,75.0,0.0,90.0,6.0,0.0
3696,63.0,0.0,90.0,3.0,0.0
3697,51.0,24.0,90.0,1.0,0.0
3698,80.0,24.0,60.0,4.0,0.0
3699,81.0,24.0,20.0,2.0,0.0
3700,51.0,0.0,90.0,12.0,0.0
3701,68.0,0.0,90.0,5.0,0.0
3702,80.0,0.0,20.0,2.0,0.0
3703,83.0,0.0,20.0,0.0,0.0
3704,81.0,24.0,20.0,2.0,0.0
3705,85.0,0.0,20.0,0.0,0.0
3706,83.0,0.0,60.0,4.0,0.0
3707,80.0,0.0,20.0,2.0,0.0
3708,83.0,0.0,20.0,0.0,0.0
3709,51.0,0.0,90.0,12.0,0.0
3710,71.0,0.0,90.0,11.0,0.0
3711,83.0,22.0,60.0,4.0,0.0
3712,63.0,0.0,90.0,3.0,0.0
3713,85.0,0.0,20.0,0.0,0.0
3714,63.0,24.0,90.0,7.0,0.0
3715,81.0,24.0,20.0,2.0,0.0
3716,83.0,2.0,20.0,0.0,0.0
3717,80.0,0.0,20.0,2.0,0.0
3718,85.0,0.0,20.0,0.0,0.0
3719,75.0,0.0,60.0,6.0,0.0
3720,81.0,24.0,20.0,2.0,0.0
3721,82.0,0.0,60.0,4.0,0.0
3722,83.0,0.0,20.0,0.0,0.0
3723,80.0,0.0,20.0,2.0,0.0
3724,85.0,0.0,20.0,0.0,0.0
3725,80.0,0.0,60.0,6.0,0.0
3726,63.0,0.0,90.0,1.0,0.0
3727,68.0,0.0,90.0,11.0,0.0
3728,81.0,24.0,20.0,2.0,0.0
3729,83.0,0.0,90.0,4.0,0.0
3730,51.0,24.0,90.0,3.0,0.0
3731,51.0,0.0,90.0,12.0,0.0
3732,59.0,0.0,90.0,7.0,0.0
3733,63.0,0.0,90.0,5.0,0.0
3734,80.0,2.0,20.0,2.0,0.0
3735,83.0,0.0,20.0,0.0,0.0
3736,85.0,0.0,20.0,0.0,0.0
3737,81.0,24.0,20.0,2.0,0.0
3738,83.0,0.0,60.0,6.0,0.0
3739,80.0,0.0,20.0,2.0,0.0
3740,83.0,0.0,20.0,0.0,0.0
3741,83.0,0.0,20.0,0.0,0.0
3742,70.0,0.0,90.0,5.0,0.0
3743,51.0,0.0,90.0,12.0,0.0
3744,82.0,22.0,720.0,8.0,0.0
3745,81.0,24.0,20.0,2.0,0.0
3746,63.0,0.0,90.0,1.0,0.0
3747,80.0,0.0,90.0,6.0,0.0
3748,80.0,0.0,20.0,2.0,0.0
3749,82.0,24.0,20.0,0.0,0.0
3750,81.0,0.0,20.0,2.0,0.0
3751,83.0,24.0,20.0,0.0,0.0
3752,75.0,24.0,60.0,4.0,0.0
3753,82.0,0.0,20.0,0.0,0.0
3754,80.0,0.0,20.0,2.0,0.0
3755,81.0,0.0,20.0,2.0,0.0
3756,63.0,0.0,90.0,3.0,0.0
3757,51.0,0.0,90.0,12.0,0.0
3758,70.0,0.0,90.0,7.0,0.0
3759,51.0,0.0,90.0,1.0,0.0
3760,83.0,24.0,20.0,0.0,0.0
3761,63.0,0.0,90.0,11.0,0.0
3762,73.0,0.0,90.0,5.0,0.0
3763,75.0,0.0,90.0,6.0,0.0
3764,80.0,0.0,60.0,4.0,0.0
3765,80.0,0.0,20.0,2.0,0.0
3766,82.0,24.0,20.0,0.0,0.0
3767,81.0,0.0,20.0,2.0,0.0
3768,82.0,24.0,60.0,4.0,0.0
3769,83.0,24.0,20.0,0.0,0.0
3770,82.0,0.0,20.0,0.0,0.0
3771,80.0,0.0,20.0,2.0,0.0
3772,63.0,0.0,90.0,3.0,0.0
3773,83.0,24.0,20.0,0.0,0.0
3774,82.0,22.0,60.0,4.0,0.0
3775,70.0,0.0,90.0,11.0,0.0
3776,81.0,0.0,20.0,2.0,0.0
3777,63.0,0.0,90.0,7.0,0.0
3778,51.0,0.0,90.0,12.0,0.0
3779,82.0,0.0,20.0,0.0,0.0
3780,80.0,2.0,20.0,2.0,0.0
3781,80.0,0.0,60.0,4.0,0.0
3782,75.0,24.0,60.0,6.0,0.0
3783,81.0,24.0,20.0,2.0,0.0
3784,83.0,0.0,20.0,0.0,0.0
3785,80.0,0.0,20.0,2.0,0.0
3786,82.0,0.0,20.0,0.0,0.0
3787,82.0,24.0,90.0,4.0,0.0
3788,63.0,0.0,90.0,1.0,0.0
3789,51.0,0.0,90.0,12.0,0.0
3790,61.0,0.0,90.0,7.0,0.0
3791,80.0,0.0,60.0,6.0,0.0
3792,83.0,24.0,20.0,0.0,0.0
3793,81.0,0.0,20.0,2.0,0.0
3794,51.0,0.0,90.0,3.0,0.0
3795,73.0,0.0,90.0,11.0,0.0
3796,63.0,0.0,90.0,5.0,0.0
3797,80.0,0.0,20.0,2.0,0.0
3798,82.0,2.0,20.0,0.0,0.0
3799,82.0,0.0,60.0,6.0,0.0
3800,81.0,0.0,20.0,2.0,0.0
3801,83.0,24.0,20.0,0.0,0.0
3802,82.0,0.0,20.0,0.0,0.0
3803,80.0,0.0,20.0,2.0,0.0
3804,83.0,24.0,20.0,0.0,0.0
3805,79.0,0.0,90.0,6.0,0.0
3806,51.0,0.0,90.0,12.0,0.0
3807,63.0,0.0,90.0,1.0,0.0
3808,80.0,0.0,20.0,2.0,0.0
3809,79.0,0.0,330.0,10.0,0.0
3810,70.0,0.0,90.0,5.0,0.0
3811,79.0,24.0,20.0,2.0,0.0
3812,82.0,0.0,20.0,0.0,0.0
3813,80.0,0.0,20.0,2.0,0.0
3814,75.0,24.0,60.0,4.0,0.0
3815,83.0,24.0,20.0,0.0,0.0
3816,82.0,0.0,20.0,0.0,0.0
3817,79.0,0.0,20.0,2.0,0.0
3818,51.0,0.0,90.0,1.0,0.0
3819,75.0,0.0,90.0,6.0,0.0
3820,70.0,0.0,90.0,7.0,0.0
3821,51.0,0.0,90.0,12.0,0.0
3822,63.0,0.0,90.0,11.0,0.0
3823,63.0,0.0,90.0,3.0,0.0
3824,79.0,0.0,60.0,4.0,0.0
3825,83.0,24.0,20.0,0.0,0.0
3826,80.0,0.0,20.0,2.0,0.0
3827,73.0,0.0,90.0,5.0,0.0
3828,79.0,24.0,20.0,2.0,0.0
3829,82.0,0.0,20.0,0.0,0.0
3830,83.0,24.0,20.0,0.0,0.0
3831,82.0,24.0,60.0,4.0,0.0
3832,80.0,0.0,20.0,2.0,0.0
3833,82.0,0.0,20.0,0.0,0.0
3834,79.0,0.0,20.0,2.0,0.0
3835,51.0,0.0,90.0,12.0,0.0
3836,63.0,0.0,90.0,7.0,0.0
3837,83.0,0.0,20.0,0.0,0.0
3838,67.0,0.0,90.0,11.0,0.0
3839,63.0,0.0,90.0,3.0,0.0
3840,82.0,22.0,60.0,4.0,0.0
3841,80.0,24.0,20.0,2.0,0.0
3842,79.0,0.0,20.0,2.0,0.0
3843,82.0,2.0,20.0,0.0,0.0
3844,75.0,24.0,60.0,6.0,0.0
3845,80.0,0.0,20.0,2.0,0.0
3846,80.0,0.0,60.0,4.0,0.0
3847,83.0,24.0,20.0,0.0,0.0
3848,79.0,0.0,20.0,2.0,0.0
3849,82.0,0.0,20.0,0.0,0.0
3850,80.0,24.0,20.0,2.0,0.0
3851,63.0,0.0,90.0,1.0,0.0
3852,51.0,0.0,90.0,12.0,0.0
3853,61.0,0.0,90.0,7.0,0.0
3854,70.0,0.0,90.0,11.0,0.0
3855,63.0,0.0,90.0,5.0,0.0
3856,51.0,0.0,90.0,3.0,0.0
3857,82.0,0.0,90.0,4.0,0.0
3858,79.0,0.0,60.0,6.0,0.0
3859,83.0,0.0,20.0,0.0,0.0
3860,79.0,2.0,20.0,2.0,0.0
3861,82.0,0.0,20.0,0.0,0.0
3862,80.0,24.0,20.0,2.0,0.0
3863,83.0,0.0,20.0,0.0,0.0
3864,82.0,0.0,60.0,6.0,0.0
3865,82.0,0.0,20.0,0.0,0.0
3866,79.0,48.0,20.0,2.0,0.0
3867,63.0,0.0,60.0,5.0,0.0
3868,80.0,0.0,150.0,2.0,0.0
3869,71.0,0.0,150.0,11.0,0.0
3870,75.0,0.0,150.0,10.0,0.0
3871,44.0,30.0,150.0,3.0,0.0
3872,80.0,0.0,150.0,8.0,0.0
3873,80.0,48.0,60.0,0.0,0.0
3874,80.0,0.0,150.0,10.0,0.0
3875,68.0,0.0,90.0,1.0,0.0
3876,80.0,0.0,150.0,6.0,0.0
3877,59.0,0.0,150.0,7.0,0.0
3878,56.0,0.0,150.0,12.0,0.0
3879,83.0,48.0,90.0,4.0,0.0
3880,68.0,0.0,60.0,5.0,0.0
3881,75.0,0.0,60.0,0.0,0.0
3882,71.0,0.0,60.0,0.0,0.0
3883,71.0,48.0,150.0,5.0,0.0
3884,87.0,18.0,60.0,4.0,0.0
3885,63.0,0.0,90.0,1.0,0.0
3886,75.0,48.0,60.0,0.0,0.0
3887,83.0,0.0,60.0,4.0,0.0
3888,80.0,30.0,270.0,4.0,0.0
3889,59.0,0.0,90.0,1.0,0.0
3890,80.0,0.0,60.0,0.0,0.0
3891,83.0,0.0,60.0,0.0,0.0
3892,68.0,48.0,60.0,5.0,0.0
3893,73.0,0.0,60.0,5.0,0.0
3894,64.0,0.0,90.0,1.0,0.0
3895,82.0,48.0,60.0,0.0,0.0
3896,71.0,48.0,60.0,5.0,0.0
3897,80.0,0.0,60.0,0.0,0.0
3898,82.0,18.0,60.0,0.0,0.0
3899,70.0,0.0,240.0,5.0,0.0
3900,61.0,48.0,90.0,1.0,0.0
3901,79.0,0.0,60.0,0.0,0.0
3902,58.0,0.0,90.0,1.0,0.0
3903,75.0,0.0,60.0,0.0,0.0
3904,85.0,48.0,60.0,4.0,0.0
3905,82.0,0.0,60.0,4.0,0.0
3906,79.0,24.0,60.0,0.0,0.0
3907,80.0,24.0,20.0,4.0,0.0
3908,82.0,24.0,60.0,0.0,0.0
3909,63.0,0.0,90.0,1.0,0.0
3910,79.0,0.0,20.0,4.0,0.0
3911,76.0,0.0,60.0,5.0,0.0
3912,80.0,24.0,20.0,4.0,0.0
3913,85.0,0.0,60.0,0.0,0.0
3914,79.0,24.0,20.0,4.0,0.0
3915,83.0,0.0,60.0,0.0,0.0
3916,75.0,24.0,60.0,5.0,0.0
3917,51.0,0.0,90.0,1.0,0.0
3918,80.0,24.0,20.0,4.0,0.0
3919,79.0,0.0,20.0,4.0,0.0
3920,80.0,24.0,20.0,4.0,0.0
3921,82.0,0.0,60.0,0.0,0.0
3922,73.0,0.0,60.0,5.0,0.0
3923,79.0,48.0,20.0,4.0,0.0
3924,80.0,30.0,150.0,4.0,0.0
3925,83.0,48.0,60.0,0.0,0.0
3926,71.0,0.0,90.0,5.0,0.0
3927,56.0,0.0,60.0,1.0,0.0
3928,80.0,0.0,60.0,0.0,0.0
3929,59.0,48.0,60.0,1.0,0.0
3930,71.0,0.0,90.0,2.0,0.0
3931,58.0,0.0,60.0,1.0,0.0
3932,75.0,0.0,90.0,2.0,0.0
3933,68.0,0.0,90.0,2.0,0.0
3934,68.0,0.0,90.0,5.0,0.0
3935,56.0,0.0,90.0,3.0,0.0
3936,82.0,18.0,60.0,0.0,0.0
3937,83.0,0.0,60.0,0.0,0.0
3938,56.0,48.0,60.0,1.0,0.0
3939,77.0,0.0,60.0,0.0,0.0
3940,61.0,0.0,90.0,3.0,0.0
3941,61.0,48.0,60.0,1.0,0.0
3942,68.0,0.0,90.0,2.0,0.0
3943,77.0,0.0,90.0,2.0,0.0
3944,71.0,0.0,90.0,2.0,0.0
3945,83.0,0.0,60.0,0.0,0.0
3946,63.0,48.0,60.0,1.0,0.0
3947,80.0,0.0,90.0,6.0,0.0
3948,77.0,0.0,90.0,6.0,0.0
3949,49.0,0.0,90.0,7.0,0.0
3950,85.0,0.0,60.0,0.0,0.0
3951,73.0,48.0,90.0,6.0,0.0
3952,65.0,48.0,60.0,1.0,0.0
3953,61.0,0.0,60.0,1.0,0.0
3954,83.0,0.0,60.0,0.0,0.0
3955,54.0,0.0,90.0,7.0,0.0
3956,66.0,48.0,60.0,1.0,0.0
3957,81.0,0.0,90.0,6.0,0.0
3958,73.0,48.0,90.0,6.0,0.0
3959,78.0,0.0,90.0,6.0,0.0
3960,81.0,0.0,60.0,0.0,0.0
3961,57.0,0.0,60.0,1.0,0.0
3962,78.0,0.0,60.0,0.0,0.0
3963,56.0,0.0,60.0,1.0,0.0
3964,69.0,0.0,90.0,4.0,0.0
3965,73.0,0.0,90.0,4.0,0.0
3966,66.0,0.0,90.0,4.0,0.0
3967,80.0,48.0,60.0,0.0,0.0
3968,54.0,48.0,90.0,5.0,0.0
3969,81.0,0.0,60.0,0.0,0.0
3970,54.0,0.0,60.0,1.0,0.0
3971,59.0,0.0,90.0,5.0,0.0
3972,59.0,48.0,60.0,1.0,0.0
3973,69.0,0.0,90.0,4.0,0.0
3974,75.0,0.0,60.0,0.0,0.0
3975,75.0,0.0,90.0,4.0,0.0
3976,71.0,0.0,90.0,4.0,0.0
3977,66.0,0.0,90.0,4.0,0.0
3978,61.0,48.0,60.0,1.0,0.0
3979,81.0,0.0,60.0,0.0,0.0
3980,69.0,0.0,90.0,4.0,0.0
3981,71.0,0.0,90.0,4.0,0.0
3982,81.0,0.0,90.0,8.0,0.0
3983,75.0,0.0,90.0,6.0,0.0
3984,75.0,0.0,90.0,4.0,0.0
3985,71.0,0.0,90.0,2.0,0.0
3986,63.0,48.0,60.0,1.0,0.0
3987,75.0,0.0,90.0,11.0,0.0
3988,83.0,0.0,60.0,0.0,0.0
3989,59.0,0.0,90.0,3.0,0.0
3990,47.0,0.0,90.0,12.0,0.0
3991,47.0,0.0,90.0,7.0,0.0
3992,47.0,0.0,90.0,5.0,0.0
3993,66.0,0.0,90.0,4.0,0.0
3994,78.0,0.0,90.0,6.0,0.0
3995,78.0,0.0,90.0,2.0,0.0
3996,78.0,0.0,90.0,10.0,0.0
3997,75.0,0.0,90.0,2.0,0.0
3998,81.0,0.0,90.0,6.0,0.0
3999,59.0,48.0,60.0,1.0,0.0
4000,81.0,0.0,60.0,0.0,0.0
4001,52.0,0.0,90.0,7.0,0.0
4002,71.0,0.0,90.0,11.0,0.0
4003,64.0,48.0,60.0,1.0,0.0
4004,71.0,0.0,90.0,2.0,0.0
4005,76.0,0.0,90.0,6.0,0.0
4006,40.0,0.0,90.0,5.0,0.0
4007,80.0,0.0,60.0,0.0,0.0
4008,64.0,0.0,90.0,3.0,0.0
4009,68.0,0.0,90.0,4.0,0.0
4010,80.0,48.0,90.0,6.0,0.0
4011,80.0,0.0,90.0,8.0,0.0
4012,76.0,0.0,90.0,4.0,0.0
4013,52.0,0.0,90.0,12.0,0.0
4014,80.0,0.0,90.0,2.0,0.0
4015,71.0,0.0,90.0,4.0,0.0
4016,76.0,0.0,90.0,10.0,0.0
4017,76.0,0.0,90.0,2.0,0.0
4018,56.0,0.0,60.0,1.0,0.0
4019,76.0,0.0,60.0,0.0,0.0
4020,52.0,0.0,90.0,5.0,0.0
4021,78.0,48.0,60.0,0.0,0.0
4022,68.0,48.0,90.0,4.0,0.0
4023,72.0,0.0,90.0,4.0,0.0
4024,54.0,0.0,60.0,1.0,0.0
4025,52.0,0.0,60.0,1.0,0.0
4026,80.0,0.0,60.0,0.0,0.0
4027,73.0,0.0,60.0,0.0,0.0
4028,73.0,0.0,90.0,4.0,0.0
4029,45.0,0.0,90.0,5.0,0.0
4030,57.0,48.0,60.0,1.0,0.0
4031,64.0,0.0,90.0,4.0,0.0
4032,59.0,48.0,60.0,1.0,0.0
4033,80.0,0.0,60.0,0.0,0.0
4034,57.0,0.0,90.0,3.0,0.0
4035,69.0,0.0,90.0,2.0,0.0
4036,61.0,0.0,60.0,1.0,0.0
4037,73.0,0.0,90.0,2.0,0.0
4038,76.0,0.0,90.0,2.0,0.0
4039,81.0,48.0,60.0,0.0,0.0
4040,57.0,48.0,60.0,1.0,0.0
4041,80.0,0.0,60.0,0.0,0.0
4042,51.0,0.0,90.0,3.0,0.0
4043,73.0,0.0,90.0,2.0,0.0
4044,69.0,0.0,90.0,2.0,0.0
4045,63.0,0.0,60.0,1.0,0.0
4046,78.0,48.0,60.0,0.0,0.0
4047,78.0,0.0,90.0,2.0,0.0
4048,54.0,0.0,60.0,1.0,0.0
4049,75.0,48.0,60.0,0.0,0.0
4050,78.0,0.0,90.0,6.0,0.0
4051,73.0,0.0,90.0,6.0,0.0
4052,81.0,0.0,90.0,6.0,0.0
4053,76.0,0.0,60.0,0.0,0.0
4054,63.0,0.0,90.0,7.0,0.0
4055,52.0,48.0,60.0,1.0,0.0
4056,51.0,48.0,60.0,1.0,0.0
4057,78.0,0.0,60.0,0.0,0.0
4058,56.0,48.0,90.0,7.0,0.0
4059,72.0,48.0,60.0,0.0,0.0
4060,75.0,0.0,90.0,6.0,0.0
4061,72.0,0.0,90.0,6.0,0.0
4062,80.0,0.0,90.0,6.0,0.0
4063,56.0,0.0,60.0,1.0,0.0
4064,78.0,0.0,60.0,0.0,0.0
4065,58.0,0.0,60.0,1.0,0.0
4066,56.0,0.0,90.0,5.0,0.0
4067,72.0,0.0,90.0,11.0,0.0
4068,66.0,0.0,90.0,4.0,0.0
4069,72.0,0.0,90.0,4.0,0.0
4070,56.0,0.0,90.0,3.0,0.0
4071,78.0,0.0,90.0,8.0,0.0
4072,68.0,0.0,90.0,4.0,0.0
4073,72.0,48.0,90.0,2.0,0.0
4074,75.0,0.0,90.0,10.0,0.0
4075,75.0,0.0,90.0,2.0,0.0
4076,80.0,48.0,60.0,0.0,0.0
4077,44.0,0.0,90.0,12.0,0.0
4078,44.0,0.0,90.0,7.0,0.0
4079,60.0,0.0,60.0,1.0,0.0
4080,72.0,0.0,90.0,6.0,0.0
4081,75.0,0.0,90.0,6.0,0.0
4082,78.0,0.0,90.0,6.0,0.0
4083,68.0,0.0,90.0,2.0,0.0
4084,56.0,0.0,60.0,1.0,0.0
4085,78.0,0.0,60.0,0.0,0.0
4086,73.0,0.0,90.0,10.0,0.0
4087,76.0,0.0,90.0,6.0,0.0
4088,76.0,48.0,60.0,0.0,0.0
4089,73.0,0.0,90.0,6.0,0.0
4090,68.0,48.0,90.0,6.0,0.0
4091,76.0,0.0,90.0,2.0,0.0
4092,73.0,0.0,90.0,2.0,0.0
4093,68.0,0.0,90.0,2.0,0.0
4094,76.0,0.0,90.0,8.0,0.0
4095,61.0,0.0,90.0,1.0,0.0
4096,49.0,0.0,150.0,12.0,0.0
4097,64.0,0.0,90.0,4.0,0.0
4098,68.0,0.0,90.0,4.0,0.0
4099,73.0,0.0,90.0,4.0,0.0
4100,49.0,0.0,90.0,7.0,0.0
4101,61.0,0.0,90.0,5.0,0.0
4102,49.0,0.0,90.0,3.0,0.0
4103,68.0,30.0,150.0,11.0,0.0
4104,73.0,0.0,60.0,0.0,0.0
4105,80.0,48.0,90.0,10.0,0.0
4106,85.0,18.0,60.0,0.0,0.0
4107,64.0,0.0,90.0,1.0,0.0
4108,76.0,0.0,60.0,0.0,0.0
4109,76.0,30.0,150.0,11.0,0.0
4110,82.0,48.0,60.0,0.0,0.0
4111,79.0,46.0,90.0,10.0,0.0
4112,61.0,0.0,90.0,1.0,0.0
4113,76.0,2.0,60.0,0.0,0.0
4114,78.0,0.0,90.0,10.0,0.0
4115,78.0,18.0,60.0,0.0,0.0
4116,58.0,0.0,90.0,12.0,0.0
4117,58.0,48.0,90.0,1.0,0.0
4118,85.0,0.0,90.0,8.0,0.0
4119,73.0,0.0,60.0,0.0,0.0
4120,59.0,2.0,90.0,12.0,0.0
4121,74.0,48.0,60.0,0.0,0.0
4122,85.0,46.0,90.0,8.0,0.0
4123,74.0,46.0,330.0,11.0,0.0
4124,59.0,0.0,90.0,1.0,0.0
4125,71.0,0.0,60.0,0.0,0.0
4126,83.0,48.0,90.0,8.0,0.0
4127,78.0,0.0,90.0,10.0,0.0
4128,83.0,48.0,60.0,0.0,0.0
4129,62.0,0.0,90.0,1.0,0.0
4130,74.0,0.0,60.0,0.0,0.0
4131,78.0,46.0,90.0,10.0,0.0
4132,59.0,2.0,90.0,1.0,0.0
4133,80.0,48.0,60.0,0.0,0.0
4134,74.0,0.0,60.0,0.0,0.0
4135,76.0,2.0,60.0,0.0,0.0
4136,76.0,48.0,90.0,10.0,0.0
4137,56.0,0.0,90.0,1.0,0.0
4138,83.0,0.0,90.0,8.0,0.0
4139,56.0,0.0,90.0,12.0,0.0
4140,71.0,0.0,60.0,0.0,0.0
4141,73.0,48.0,60.0,0.0,0.0
4142,73.0,46.0,330.0,11.0,0.0
4143,57.0,0.0,90.0,12.0,0.0
4144,57.0,0.0,90.0,1.0,0.0
4145,83.0,46.0,90.0,8.0,0.0
4146,69.0,2.0,60.0,0.0,0.0
4147,61.0,0.0,90.0,1.0,0.0
4148,76.0,0.0,90.0,10.0,0.0
4149,81.0,48.0,60.0,0.0,0.0
4150,81.0,48.0,90.0,8.0,0.0
4151,73.0,0.0,60.0,0.0,0.0
4152,78.0,48.0,60.0,0.0,0.0
4153,57.0,0.0,90.0,1.0,0.0
4154,76.0,46.0,90.0,10.0,0.0
4155,73.0,2.0,60.0,0.0,0.0
4156,74.0,2.0,60.0,0.0,0.0
4157,74.0,0.0,90.0,10.0,0.0
4158,54.0,48.0,90.0,1.0,0.0
4159,54.0,0.0,90.0,12.0,0.0
4160,81.0,0.0,90.0,8.0,0.0
4161,69.0,0.0,60.0,0.0,0.0
4162,56.0,2.0,90.0,12.0,0.0
4163,56.0,0.0,90.0,1.0,0.0
4164,81.0,46.0,90.0,8.0,0.0
4165,71.0,48.0,60.0,0.0,0.0
4166,71.0,46.0,330.0,11.0,0.0
4167,68.0,0.0,60.0,0.0,0.0
4168,80.0,48.0,60.0,0.0,0.0
4169,80.0,0.0,90.0,8.0,0.0
4170,74.0,0.0,90.0,10.0,0.0
4171,59.0,0.0,90.0,1.0,0.0
4172,71.0,48.0,60.0,0.0,0.0
4173,77.0,48.0,60.0,0.0,0.0
4174,74.0,46.0,90.0,10.0,0.0
4175,56.0,2.0,90.0,1.0,0.0
4176,71.0,0.0,60.0,0.0,0.0
4177,53.0,48.0,90.0,12.0,0.0
4178,80.0,0.0,90.0,8.0,0.0
4179,53.0,0.0,90.0,1.0,0.0
4180,73.0,0.0,90.0,10.0,0.0
4181,73.0,2.0,60.0,0.0,0.0
4182,68.0,0.0,60.0,0.0,0.0
4183,54.0,0.0,90.0,12.0,0.0
4184,69.0,30.0,150.0,11.0,0.0
4185,73.0,0.0,150.0,10.0,0.0
4186,69.0,0.0,60.0,0.0,0.0
4187,80.0,46.0,90.0,8.0,0.0
4188,54.0,48.0,60.0,1.0,0.0
4189,57.0,0.0,60.0,1.0,0.0
4190,66.0,2.0,60.0,0.0,0.0
4191,68.0,0.0,60.0,0.0,0.0
4192,78.0,0.0,90.0,8.0,0.0
4193,56.0,18.0,60.0,1.0,0.0
4194,66.0,48.0,90.0,6.0,0.0
4195,54.0,0.0,90.0,7.0,0.0
4196,69.0,0.0,90.0,6.0,0.0
4197,73.0,0.0,90.0,6.0,0.0
4198,54.0,0.0,60.0,1.0,0.0
4199,69.0,0.0,60.0,0.0,0.0
4200,59.0,0.0,90.0,7.0,0.0
4201,63.0,0.0,60.0,0.0,0.0
4202,59.0,48.0,60.0,1.0,0.0
4203,66.0,0.0,90.0,6.0,0.0
4204,69.0,0.0,90.0,6.0,0.0
4205,75.0,0.0,90.0,6.0,0.0
4206,69.0,48.0,60.0,0.0,0.0
4207,54.0,0.0,60.0,1.0,0.0
4208,75.0,0.0,90.0,4.0,0.0
4209,51.0,0.0,60.0,1.0,0.0
4210,59.0,0.0,90.0,5.0,0.0
4211,71.0,48.0,60.0,0.0,0.0
4212,71.0,0.0,90.0,4.0,0.0
4213,78.0,48.0,90.0,4.0,0.0
4214,69.0,0.0,60.0,0.0,0.0
4215,47.0,0.0,60.0,1.0,0.0
4216,68.0,0.0,60.0,0.0,0.0
4217,64.0,48.0,90.0,5.0,0.0
4218,71.0,0.0,90.0,4.0,0.0
4219,75.0,0.0,90.0,4.0,0.0
4220,80.0,0.0,90.0,4.0,0.0
4221,52.0,48.0,60.0,1.0,0.0
4222,56.0,0.0,60.0,1.0,0.0
4223,64.0,0.0,60.0,0.0,0.0
4224,54.0,0.0,60.0,1.0,0.0
4225,64.0,0.0,90.0,3.0,0.0
4226,84.0,48.0,90.0,2.0,0.0
4227,78.0,0.0,90.0,2.0,0.0
4228,75.0,0.0,90.0,2.0,0.0
4229,66.0,48.0,60.0,0.0,0.0
4230,68.0,0.0,60.0,0.0,0.0
4231,52.0,0.0,60.0,1.0,0.0
4232,61.0,0.0,60.0,0.0,0.0
4233,57.0,48.0,60.0,1.0,0.0
4234,69.0,0.0,90.0,3.0,0.0
4235,85.0,0.0,90.0,2.0,0.0
4236,76.0,0.0,90.0,2.0,0.0
4237,73.0,48.0,90.0,2.0,0.0
4238,68.0,0.0,60.0,0.0,0.0
4239,52.0,0.0,60.0,1.0,0.0
4240,76.0,0.0,90.0,4.0,0.0
4241,57.0,0.0,90.0,5.0,0.0
4242,69.0,48.0,90.0,4.0,0.0
4243,69.0,48.0,60.0,0.0,0.0
4244,73.0,0.0,90.0,4.0,0.0
4245,49.0,0.0,60.0,1.0,0.0
4246,68.0,0.0,60.0,0.0,0.0
4247,45.0,0.0,60.0,1.0,0.0
4248,63.0,48.0,90.0,5.0,0.0
4249,66.0,48.0,60.0,0.0,0.0
4250,78.0,0.0,90.0,4.0,0.0
4251,73.0,0.0,90.0,4.0,0.0
4252,69.0,0.0,90.0,4.0,0.0
4253,51.0,0.0,60.0,1.0,0.0
4254,54.0,0.0,60.0,1.0,0.0
4255,63.0,0.0,60.0,0.0,0.0
4256,51.0,0.0,90.0,7.0,0.0
4257,69.0,0.0,90.0,6.0,0.0
4258,64.0,48.0,60.0,0.0,0.0
4259,66.0,48.0,90.0,6.0,0.0
4260,52.0,0.0,60.0,1.0,0.0
4261,61.0,0.0,90.0,6.0,0.0
4262,66.0,0.0,60.0,0.0,0.0
4263,51.0,0.0,60.0,1.0,0.0
4264,60.0,0.0,90.0,6.0,0.0
4265,56.0,0.0,90.0,7.0,0.0
4266,56.0,48.0,60.0,1.0,0.0
4267,68.0,0.0,90.0,6.0,0.0
4268,60.0,0.0,60.0,0.0,0.0
4269,66.0,0.0,90.0,6.0,0.0
4270,66.0,48.0,60.0,0.0,0.0
4271,51.0,0.0,60.0,1.0,0.0
4272,63.0,0.0,90.0,6.0,0.0
4273,66.0,0.0,90.0,6.0,0.0
4274,72.0,0.0,90.0,6.0,0.0
4275,56.0,0.0,90.0,5.0,0.0
4276,72.0,0.0,90.0,4.0,0.0
4277,75.0,0.0,90.0,4.0,0.0
4278,78.0,0.0,90.0,4.0,0.0
4279,72.0,48.0,90.0,8.0,0.0
4280,66.0,0.0,90.0,11.0,0.0
4281,68.0,0.0,90.0,10.0,0.0
4282,80.0,0.0,90.0,2.0,0.0
4283,68.0,0.0,60.0,0.0,0.0
4284,87.0,0.0,90.0,2.0,0.0
4285,84.0,0.0,90.0,2.0,0.0
4286,44.0,0.0,90.0,7.0,0.0
4287,48.0,48.0,60.0,1.0,0.0
4288,68.0,0.0,90.0,3.0,0.0
4289,44.0,0.0,90.0,12.0,0.0
4290,44.0,0.0,60.0,1.0,0.0
4291,66.0,0.0,60.0,0.0,0.0
4292,61.0,0.0,90.0,3.0,0.0
4293,80.0,0.0,90.0,2.0,0.0
4294,73.0,0.0,90.0,8.0,0.0
4295,88.0,0.0,90.0,2.0,0.0
4296,85.0,0.0,90.0,2.0,0.0
4297,61.0,0.0,90.0,6.0,0.0
4298,61.0,0.0,90.0,5.0,0.0
4299,64.0,48.0,60.0,0.0,0.0
4300,49.0,0.0,90.0,1.0,0.0
4301,76.0,0.0,90.0,4.0,0.0
4302,73.0,0.0,90.0,4.0,0.0
4303,68.0,0.0,90.0,4.0,0.0
4304,64.0,0.0,90.0,6.0,0.0
4305,49.0,0.0,90.0,7.0,0.0
4306,49.0,0.0,90.0,12.0,0.0
4307,68.0,0.0,90.0,10.0,0.0
4308,64.0,0.0,90.0,11.0,0.0
4309,73.0,0.0,90.0,6.0,0.0
4310,68.0,0.0,90.0,6.0,0.0
4311,61.0,48.0,60.0,0.0,0.0
4312,61.0,0.0,60.0,1.0,0.0
4313,64.0,48.0,60.0,0.0,0.0
4314,63.0,48.0,60.0,1.0,0.0
4315,68.0,0.0,60.0,0.0,0.0
4316,73.0,48.0,60.0,0.0,0.0
4317,64.0,48.0,90.0,1.0,0.0
4318,71.0,0.0,60.0,0.0,0.0
4319,53.0,0.0,90.0,1.0,0.0
4320,56.0,0.0,90.0,1.0,0.0
4321,61.0,0.0,90.0,1.0,0.0
4322,69.0,48.0,60.0,0.0,0.0
4323,49.0,0.0,90.0,1.0,0.0
4324,68.0,48.0,60.0,0.0,0.0
4325,69.0,48.0,60.0,0.0,0.0
4326,54.0,48.0,90.0,1.0,0.0
4327,61.0,0.0,90.0,1.0,0.0
4328,66.0,0.0,60.0,0.0,0.0
4329,69.0,0.0,60.0,0.0,0.0
4330,66.0,48.0,60.0,1.0,0.0
4331,68.0,0.0,60.0,1.0,0.0
4332,73.0,48.0,60.0,0.0,0.0
4333,69.0,48.0,90.0,1.0,0.0
4334,78.0,48.0,60.0,0.0,0.0
4335,76.0,0.0,60.0,0.0,0.0
4336,75.0,48.0,60.0,0.0,0.0
4337,54.0,0.0,90.0,1.0,0.0
4338,63.0,48.0,90.0,1.0,0.0
4339,57.0,0.0,90.0,1.0,0.0
4340,73.0,0.0,60.0,0.0,0.0
4341,56.0,48.0,60.0,1.0,0.0
4342,72.0,0.0,60.0,0.0,0.0
4343,63.0,48.0,90.0,1.0,0.0
4344,57.0,0.0,60.0,1.0,0.0
4345,75.0,0.0,60.0,0.0,0.0
4346,78.0,0.0,60.0,0.0,0.0
4347,56.0,48.0,60.0,1.0,0.0
4348,81.0,0.0,60.0,0.0,0.0
4349,54.0,48.0,60.0,1.0,0.0
4350,80.0,0.0,60.0,0.0,0.0
4351,52.0,48.0,60.0,1.0,0.0
4352,78.0,0.0,60.0,0.0,0.0
4353,51.0,48.0,60.0,1.0,0.0
4354,76.0,0.0,60.0,0.0,0.0
4355,49.0,48.0,60.0,1.0,0.0
4356,75.0,0.0,60.0,0.0,0.0
4357,48.0,48.0,60.0,1.0,0.0
4358,76.0,48.0,60.0,0.0,0.0
4359,49.0,0.0,90.0,1.0,0.0
4360,73.0,48.0,60.0,0.0,0.0
4361,61.0,48.0,60.0,1.0,0.0
4362,76.0,0.0,60.0,0.0,0.0
4363,80.0,48.0,60.0,0.0,0.0
4364,63.0,0.0,60.0,1.0,0.0
4365,64.0,48.0,90.0,1.0,0.0
4366,85.0,48.0,60.0,0.0,0.0
4367,83.0,0.0,60.0,0.0,0.0
4368,61.0,0.0,90.0,1.0,0.0
4369,52.0,48.0,90.0,1.0,0.0
4370,49.0,0.0,90.0,1.0,0.0
4371,81.0,48.0,60.0,0.0,0.0
4372,80.0,0.0,60.0,0.0,0.0
4373,54.0,0.0,90.0,1.0,0.0
4374,81.0,48.0,60.0,0.0,0.0
4375,61.0,48.0,90.0,1.0,0.0
4376,78.0,0.0,60.0,0.0,0.0
4377,73.0,48.0,60.0,0.0,0.0
4378,57.0,48.0,90.0,1.0,0.0
4379,78.0,0.0,60.0,0.0,0.0
4380,61.0,0.0,90.0,1.0,0.0
4381,82.0,48.0,60.0,0.0,0.0
4382,83.0,48.0,60.0,0.0,0.0
4383,80.0,48.0,60.0,0.0,0.0
4384,52.0,48.0,90.0,1.0,0.0
4385,82.0,0.0,60.0,0.0,0.0
4386,83.0,48.0,60.0,0.0,0.0
4387,51.0,48.0,90.0,1.0,0.0
4388,78.0,0.0,60.0,0.0,0.0
4389,59.0,0.0,60.0,1.0,0.0
4390,75.0,48.0,60.0,0.0,0.0
4391,78.0,0.0,60.0,0.0,0.0
4392,61.0,48.0,60.0,1.0,0.0
4393,63.0,48.0,90.0,1.0,0.0
4394,84.0,48.0,60.0,0.0,0.0
4395,75.0,30.0,150.0,10.0,0.0
4396,85.0,0.0,60.0,0.0,0.0
4397,63.0,0.0,90.0,1.0,0.0
4398,54.0,0.0,90.0,1.0,0.0
4399,56.0,0.0,90.0,12.0,0.0
4400,82.0,18.0,60.0,0.0,0.0
4401,84.0,24.0,60.0,0.0,0.0
4402,78.0,24.0,20.0,4.0,0.0
4403,61.0,0.0,90.0,12.0,0.0
4404,56.0,0.0,90.0,1.0,0.0
4405,76.0,22.0,720.0,10.0,0.0
4406,52.0,0.0,90.0,1.0,0.0
4407,61.0,24.0,90.0,5.0,0.0
4408,85.0,24.0,60.0,0.0,0.0
4409,76.0,0.0,20.0,4.0,0.0
4410,78.0,24.0,20.0,4.0,0.0
4411,80.0,0.0,60.0,0.0,0.0
4412,76.0,0.0,20.0,4.0,0.0
4413,76.0,0.0,60.0,0.0,0.0
4414,49.0,0.0,90.0,12.0,0.0
4415,56.0,0.0,90.0,3.0,0.0
4416,68.0,0.0,90.0,11.0,0.0
4417,78.0,24.0,20.0,4.0,0.0
4418,68.0,0.0,90.0,1.0,0.0
4419,49.0,0.0,90.0,5.0,0.0
4420,76.0,24.0,20.0,4.0,0.0
4421,85.0,24.0,60.0,0.0,0.0
4422,78.0,24.0,20.0,4.0,0.0
4423,76.0,0.0,20.0,4.0,0.0
4424,61.0,0.0,90.0,3.0,0.0
4425,80.0,0.0,150.0,2.0,0.0
4426,78.0,24.0,20.0,4.0,0.0
4427,64.0,0.0,90.0,11.0,0.0
4428,64.0,0.0,90.0,1.0,0.0
4429,85.0,24.0,60.0,0.0,0.0
4430,80.0,6.0,150.0,8.0,0.0
4431,76.0,0.0,20.0,4.0,0.0
4432,80.0,24.0,60.0,0.0,0.0
4433,78.0,24.0,20.0,4.0,0.0
4434,64.0,0.0,60.0,7.0,0.0
4435,76.0,0.0,20.0,4.0,0.0
4436,61.0,0.0,60.0,7.0,0.0
4437,78.0,24.0,20.0,4.0,0.0
4438,49.0,0.0,90.0,5.0,0.0
4439,49.0,0.0,90.0,3.0,0.0
4440,49.0,0.0,90.0,12.0,0.0
4441,61.0,0.0,90.0,1.0,0.0
4442,61.0,24.0,90.0,11.0,0.0
4443,76.0,18.0,60.0,0.0,0.0
4444,76.0,0.0,20.0,4.0,0.0
4445,85.0,0.0,60.0,0.0,0.0
4446,64.0,0.0,60.0,7.0,0.0
4447,78.0,24.0,20.0,4.0,0.0
4448,76.0,0.0,20.0,4.0,0.0
4449,69.0,0.0,60.0,1.0,0.0
4450,81.0,22.0,720.0,8.0,0.0
4451,78.0,24.0,20.0,4.0,0.0
4452,54.0,0.0,90.0,5.0,0.0
4453,83.0,0.0,20.0,2.0,0.0
4454,85.0,0.0,90.0,0.0,0.0
4455,66.0,24.0,90.0,7.0,0.0
4456,78.0,24.0,60.0,6.0,0.0
4457,54.0,0.0,90.0,12.0,0.0
4458,81.0,0.0,20.0,2.0,0.0
4459,76.0,0.0,20.0,4.0,0.0
4460,68.0,0.0,60.0,1.0,0.0
4461,83.0,0.0,20.0,2.0,0.0
4462,78.0,24.0,20.0,4.0,0.0
4463,73.0,0.0,60.0,6.0,0.0
4464,81.0,0.0,20.0,2.0,0.0
4465,76.0,0.0,20.0,4.0,0.0
4466,69.0,0.0,60.0,6.0,0.0
4467,42.0,0.0,90.0,12.0,0.0
4468,69.0,0.0,90.0,1.0,0.0
4469,78.0,24.0,20.0,4.0,0.0
4470,42.0,0.0,90.0,5.0,0.0
4471,61.0,24.0,90.0,11.0,0.0
4472,78.0,0.0,90.0,0.0,0.0
4473,83.0,0.0,20.0,2.0,0.0
4474,61.0,0.0,90.0,3.0,0.0
4475,61.0,0.0,90.0,7.0,0.0
4476,81.0,0.0,20.0,2.0,0.0
4477,76.0,24.0,20.0,4.0,0.0
4478,78.0,0.0,60.0,6.0,0.0
4479,83.0,24.0,20.0,2.0,0.0
4480,78.0,0.0,20.0,4.0,0.0
4481,76.0,0.0,20.0,4.0,0.0
4482,81.0,0.0,20.0,2.0,0.0
4483,83.0,24.0,20.0,2.0,0.0
4484,78.0,0.0,20.0,4.0,0.0
4485,57.0,24.0,90.0,7.0,0.0
4486,78.0,24.0,60.0,6.0,0.0
4487,66.0,0.0,90.0,3.0,0.0
4488,66.0,0.0,90.0,11.0,0.0
4489,81.0,0.0,90.0,0.0,0.0
4490,81.0,0.0,20.0,2.0,0.0
4491,76.0,0.0,20.0,4.0,0.0
4492,83.0,24.0,20.0,2.0,0.0
4493,73.0,0.0,60.0,6.0,0.0
4494,78.0,0.0,20.0,4.0,0.0
4495,76.0,0.0,20.0,4.0,0.0
4496,81.0,0.0,20.0,2.0,0.0
4497,85.0,0.0,90.0,0.0,0.0
4498,54.0,0.0,90.0,7.0,0.0
4499,71.0,0.0,20.0,1.0,0.0
4500,54.0,24.0,90.0,12.0,0.0
4501,78.0,24.0,20.0,4.0,0.0
4502,54.0,0.0,90.0,3.0,0.0
4503,54.0,0.0,90.0,5.0,0.0
4504,69.0,0.0,60.0,6.0,0.0
4505,83.0,0.0,20.0,2.0,0.0
4506,69.0,0.0,90.0,11.0,0.0
4507,81.0,0.0,20.0,2.0,0.0
4508,69.0,0.0,20.0,1.0,0.0
4509,76.0,2.0,20.0,4.0,0.0
4510,78.0,24.0,20.0,4.0,0.0
4511,71.0,0.0,20.0,1.0,0.0
4512,83.0,0.0,20.0,2.0,0.0
4513,78.0,0.0,60.0,6.0,0.0
4514,81.0,0.0,20.0,2.0,0.0
4515,76.0,0.0,20.0,4.0,0.0
4516,69.0,0.0,20.0,1.0,0.0
4517,83.0,24.0,20.0,2.0,0.0
4518,75.0,22.0,720.0,10.0,0.0
4519,78.0,0.0,90.0,6.0,0.0
4520,71.0,0.0,90.0,1.0,0.0
4521,83.0,0.0,60.0,0.0,0.0
4522,59.0,0.0,90.0,5.0,0.0
4523,76.0,0.0,20.0,4.0,0.0
4524,63.0,0.0,60.0,7.0,0.0
4525,59.0,24.0,90.0,12.0,0.0
4526,75.0,0.0,20.0,4.0,0.0
4527,81.0,24.0,20.0,2.0,0.0
4528,83.0,24.0,20.0,2.0,0.0
4529,76.0,0.0,20.0,4.0,0.0
4530,78.0,0.0,60.0,0.0,0.0
4531,61.0,0.0,60.0,7.0,0.0
4532,81.0,0.0,20.0,2.0,0.0
4533,75.0,0.0,20.0,4.0,0.0
4534,54.0,0.0,90.0,3.0,0.0
4535,47.0,24.0,90.0,5.0,0.0
4536,75.0,0.0,60.0,0.0,0.0
4537,66.0,0.0,90.0,11.0,0.0
4538,63.0,0.0,90.0,7.0,0.0
4539,71.0,0.0,90.0,6.0,0.0
4540,47.0,0.0,90.0,12.0,0.0
4541,66.0,0.0,90.0,1.0,0.0
4542,76.0,24.0,20.0,4.0,0.0
4543,83.0,0.0,20.0,2.0,0.0
4544,81.0,24.0,20.0,2.0,0.0
4545,75.0,0.0,20.0,4.0,0.0
4546,83.0,0.0,60.0,0.0,0.0
4547,76.0,24.0,20.0,4.0,0.0
4548,83.0,0.0,20.0,2.0,0.0
4549,75.0,0.0,20.0,4.0,0.0
4550,81.0,0.0,20.0,2.0,0.0
4551,63.0,0.0,90.0,1.0,0.0
4552,75.0,0.0,90.0,6.0,0.0
4553,63.0,0.0,90.0,11.0,0.0
4554,59.0,0.0,90.0,3.0,0.0
4555,83.0,0.0,20.0,2.0,0.0
4556,76.0,24.0,20.0,4.0,0.0
4557,83.0,0.0,60.0,0.0,0.0
4558,81.0,0.0,20.0,2.0,0.0
4559,75.0,24.0,20.0,4.0,0.0
4560,78.0,0.0,60.0,0.0,0.0
4561,83.0,24.0,20.0,2.0,0.0
4562,76.0,0.0,20.0,4.0,0.0
4563,81.0,0.0,20.0,2.0,0.0
4564,75.0,24.0,20.0,4.0,0.0
4565,64.0,0.0,20.0,7.0,0.0
4566,47.0,24.0,90.0,3.0,0.0
4567,59.0,0.0,90.0,1.0,0.0
4568,47.0,0.0,90.0,5.0,0.0
4569,59.0,0.0,90.0,11.0,0.0
4570,83.0,0.0,20.0,2.0,0.0
4571,47.0,0.0,90.0,12.0,0.0
4572,76.0,24.0,20.0,4.0,0.0
4573,78.0,0.0,90.0,6.0,0.0
4574,75.0,2.0,60.0,0.0,0.0
4575,63.0,0.0,20.0,7.0,0.0
4576,75.0,0.0,20.0,4.0,0.0
4577,81.0,0.0,20.0,2.0,0.0
4578,83.0,0.0,60.0,0.0,0.0
4579,64.0,0.0,20.0,7.0,0.0
4580,83.0,0.0,20.0,2.0,0.0
4581,76.0,24.0,20.0,4.0,0.0
4582,75.0,0.0,20.0,4.0,0.0
4583,81.0,0.0,20.0,2.0,0.0
4584,63.0,0.0,20.0,7.0,0.0
4585,68.0,0.0,60.0,1.0,0.0
4586,52.0,0.0,90.0,12.0,0.0
4587,64.0,0.0,90.0,7.0,0.0
4588,76.0,24.0,20.0,4.0,0.0
4589,81.0,0.0,20.0,2.0,0.0
4590,83.0,0.0,90.0,0.0,0.0
4591,76.0,0.0,60.0,6.0,0.0
4592,80.0,22.0,720.0,8.0,0.0
4593,52.0,0.0,90.0,5.0,0.0
4594,80.0,0.0,20.0,2.0,0.0
4595,75.0,24.0,20.0,4.0,0.0
4596,76.0,24.0,20.0,4.0,0.0
4597,81.0,0.0,20.0,2.0,0.0
4598,71.0,0.0,60.0,6.0,0.0
4599,66.0,24.0,60.0,1.0,0.0
4600,80.0,0.0,20.0,2.0,0.0
4601,75.0,0.0,20.0,4.0,0.0
4602,59.0,24.0,90.0,7.0,0.0
4603,40.0,0.0,90.0,12.0,0.0
4604,59.0,0.0,90.0,3.0,0.0
4605,81.0,24.0,20.0,2.0,0.0
4606,40.0,0.0,90.0,5.0,0.0
4607,59.0,0.0,90.0,11.0,0.0
4608,68.0,0.0,90.0,1.0,0.0
4609,76.0,0.0,90.0,0.0,0.0
4610,68.0,0.0,60.0,6.0,0.0
4611,76.0,0.0,20.0,4.0,0.0
4612,75.0,24.0,20.0,4.0,0.0
4613,80.0,0.0,20.0,2.0,0.0
4614,76.0,0.0,60.0,6.0,0.0
4615,76.0,0.0,20.0,4.0,0.0
4616,81.0,24.0,20.0,2.0,0.0
4617,75.0,0.0,20.0,4.0,0.0
4618,80.0,0.0,20.0,2.0,0.0
4619,64.0,0.0,90.0,11.0,0.0
4620,76.0,0.0,20.0,4.0,0.0
4621,81.0,24.0,20.0,2.0,0.0
4622,80.0,24.0,90.0,0.0,0.0
4623,76.0,24.0,60.0,6.0,0.0
4624,64.0,0.0,90.0,3.0,0.0
4625,56.0,0.0,90.0,7.0,0.0
4626,75.0,0.0,20.0,4.0,0.0
4627,80.0,0.0,20.0,2.0,0.0
4628,81.0,0.0,20.0,2.0,0.0
4629,76.0,24.0,20.0,4.0,0.0
4630,71.0,0.0,60.0,6.0,0.0
4631,80.0,0.0,20.0,2.0,0.0
4632,75.0,0.0,20.0,4.0,0.0
4633,52.0,0.0,90.0,3.0,0.0
4634,69.0,0.0,20.0,1.0,0.0
4635,52.0,0.0,90.0,5.0,0.0
4636,52.0,0.0,90.0,7.0,0.0
4637,76.0,24.0,20.0,4.0,0.0
4638,83.0,0.0,90.0,0.0,0.0
4639,68.0,2.0,60.0,6.0,0.0
4640,81.0,0.0,20.0,2.0,0.0
4641,68.0,24.0,90.0,11.0,0.0
4642,52.0,0.0,90.0,12.0,0.0
4643,68.0,0.0,20.0,1.0,0.0
4644,80.0,0.0,20.0,2.0,0.0
4645,75.0,0.0,20.0,4.0,0.0
4646,69.0,0.0,20.0,1.0,0.0
4647,76.0,0.0,60.0,6.0,0.0
4648,81.0,0.0,20.0,2.0,0.0
4649,76.0,24.0,20.0,4.0,0.0
4650,80.0,0.0,20.0,2.0,0.0
4651,75.0,0.0,20.0,4.0,0.0
4652,68.0,0.0,20.0,1.0,0.0
4653,61.0,0.0,60.0,7.0,0.0
4654,81.0,24.0,20.0,2.0,0.0
4655,76.0,0.0,90.0,6.0,0.0
4656,81.0,24.0,60.0,0.0,0.0
4657,57.0,0.0,90.0,12.0,0.0
4658,75.0,0.0,20.0,4.0,0.0
4659,57.0,0.0,90.0,5.0,0.0
4660,69.0,24.0,90.0,1.0,0.0
4661,73.0,22.0,720.0,10.0,0.0
4662,80.0,0.0,20.0,2.0,0.0
4663,73.0,0.0,20.0,4.0,0.0
4664,81.0,24.0,20.0,2.0,0.0
4665,76.0,0.0,60.0,0.0,0.0
4666,60.0,0.0,60.0,7.0,0.0
4667,75.0,0.0,20.0,4.0,0.0
4668,73.0,0.0,20.0,4.0,0.0
4669,80.0,0.0,20.0,2.0,0.0
4670,69.0,0.0,90.0,6.0,0.0
4671,52.0,0.0,90.0,3.0,0.0
4672,73.0,0.0,60.0,0.0,0.0
4673,64.0,0.0,90.0,11.0,0.0
4674,61.0,0.0,90.0,7.0,0.0
4675,45.0,24.0,90.0,12.0,0.0
4676,45.0,0.0,90.0,5.0,0.0
4677,81.0,24.0,20.0,2.0,0.0
4678,75.0,0.0,20.0,4.0,0.0
4679,64.0,0.0,90.0,1.0,0.0
4680,80.0,0.0,20.0,2.0,0.0
4681,73.0,24.0,20.0,4.0,0.0
4682,75.0,24.0,20.0,4.0,0.0
4683,81.0,0.0,20.0,2.0,0.0
4684,81.0,0.0,60.0,0.0,0.0
4685,73.0,0.0,20.0,4.0,0.0
4686,80.0,0.0,20.0,2.0,0.0
4687,57.0,24.0,90.0,3.0,0.0
4688,75.0,0.0,20.0,4.0,0.0
4689,81.0,24.0,20.0,2.0,0.0
4690,61.0,0.0,90.0,11.0,0.0
4691,81.0,24.0,60.0,0.0,0.0
4692,73.0,0.0,90.0,6.0,0.0
4693,61.0,0.0,90.0,1.0,0.0
4694,80.0,0.0,20.0,2.0,0.0
4695,73.0,0.0,20.0,4.0,0.0
4696,81.0,0.0,20.0,2.0,0.0
4697,76.0,0.0,60.0,0.0,0.0
4698,75.0,24.0,20.0,4.0,0.0
4699,80.0,0.0,20.0,2.0,0.0
4700,73.0,0.0,20.0,4.0,0.0
4701,45.0,24.0,90.0,3.0,0.0
4702,63.0,0.0,20.0,7.0,0.0
4703,57.0,0.0,90.0,5.0,0.0
4704,57.0,0.0,90.0,1.0,0.0
4705,75.0,0.0,20.0,4.0,0.0
4706,81.0,24.0,20.0,2.0,0.0
4707,73.0,0.0,60.0,0.0,0.0
4708,76.0,0.0,90.0,6.0,0.0
4709,57.0,0.0,90.0,12.0,0.0
4710,57.0,0.0,90.0,11.0,0.0
4711,61.0,0.0,20.0,7.0,0.0
4712,80.0,2.0,20.0,2.0,0.0
4713,73.0,0.0,20.0,4.0,0.0
4714,75.0,0.0,20.0,4.0,0.0
4715,63.0,24.0,20.0,7.0,0.0
4716,81.0,0.0,60.0,0.0,0.0
4717,81.0,0.0,20.0,2.0,0.0
4718,61.0,0.0,20.0,7.0,0.0
4719,73.0,0.0,20.0,4.0,0.0
4720,80.0,0.0,20.0,2.0,0.0
4721,75.0,24.0,60.0,6.0,0.0
4722,51.0,0.0,90.0,12.0,0.0
4723,63.0,0.0,90.0,7.0,0.0
4724,75.0,0.0,20.0,4.0,0.0
4725,66.0,0.0,60.0,1.0,0.0
4726,81.0,0.0,90.0,0.0,0.0
4727,78.0,0.0,720.0,8.0,0.0
4728,51.0,0.0,90.0,5.0,0.0
4729,80.0,24.0,20.0,2.0,0.0
4730,73.0,0.0,20.0,4.0,0.0
4731,78.0,0.0,20.0,2.0,0.0
4732,64.0,0.0,60.0,1.0,0.0
4733,69.0,0.0,60.0,6.0,0.0
4734,75.0,0.0,20.0,4.0,0.0
4735,80.0,24.0,20.0,2.0,0.0
4736,73.0,0.0,20.0,4.0,0.0
4737,78.0,24.0,20.0,2.0,0.0
4738,63.0,0.0,90.0,5.0,0.0
4739,57.0,0.0,90.0,3.0,0.0
4740,80.0,0.0,20.0,2.0,0.0
4741,57.0,0.0,90.0,7.0,0.0
4742,63.0,0.0,90.0,12.0,0.0
4743,66.0,0.0,60.0,6.0,0.0
4744,75.0,0.0,90.0,0.0,0.0
4745,66.0,0.0,90.0,1.0,0.0
4746,75.0,24.0,20.0,4.0,0.0
4747,57.0,0.0,90.0,11.0,0.0
4748,73.0,0.0,20.0,4.0,0.0
4749,78.0,24.0,20.0,2.0,0.0
4750,80.0,24.0,20.0,2.0,0.0
4751,75.0,0.0,60.0,6.0,0.0
4752,75.0,0.0,20.0,4.0,0.0
4753,78.0,24.0,20.0,2.0,0.0
4754,73.0,0.0,20.0,4.0,0.0
4755,75.0,0.0,60.0,6.0,0.0
4756,63.0,0.0,90.0,11.0,0.0
4757,80.0,0.0,20.0,2.0,0.0
4758,54.0,0.0,90.0,7.0,0.0
4759,75.0,24.0,20.0,4.0,0.0
4760,51.0,0.0,90.0,3.0,0.0
4761,78.0,24.0,90.0,0.0,0.0
4762,73.0,24.0,20.0,4.0,0.0
4763,78.0,0.0,20.0,2.0,0.0
4764,80.0,0.0,20.0,2.0,0.0
4765,69.0,0.0,60.0,6.0,0.0
4766,75.0,24.0,20.0,4.0,0.0
4767,73.0,0.0,20.0,4.0,0.0
4768,78.0,0.0,20.0,2.0,0.0
4769,75.0,24.0,20.0,4.0,0.0
4770,66.0,0.0,60.0,6.0,0.0
4771,66.0,0.0,90.0,11.0,0.0
4772,68.0,0.0,20.0,1.0,0.0
4773,80.0,0.0,20.0,2.0,0.0
4774,51.0,24.0,90.0,12.0,0.0
4775,51.0,0.0,90.0,5.0,0.0
4776,63.0,0.0,90.0,3.0,0.0
4777,51.0,0.0,90.0,7.0,0.0
4778,81.0,0.0,90.0,0.0,0.0
4779,78.0,0.0,20.0,2.0,0.0
4780,73.0,0.0,20.0,4.0,0.0
4781,66.0,2.0,20.0,1.0,0.0
4782,75.0,0.0,20.0,4.0,0.0
4783,80.0,0.0,20.0,2.0,0.0
4784,75.0,0.0,60.0,6.0,0.0
4785,68.0,24.0,20.0,1.0,0.0
4786,73.0,0.0,20.0,4.0,0.0
4787,78.0,0.0,20.0,2.0,0.0
4788,66.0,0.0,20.0,1.0,0.0
4789,68.0,0.0,90.0,1.0,0.0
4790,80.0,0.0,60.0,0.0,0.0
4791,75.0,0.0,90.0,6.0,0.0
4792,56.0,0.0,90.0,5.0,0.0
4793,60.0,24.0,60.0,7.0,0.0
4794,56.0,0.0,90.0,12.0,0.0
4795,72.0,22.0,330.0,10.0,0.0
4796,73.0,0.0,20.0,4.0,0.0
4797,80.0,24.0,20.0,2.0,0.0
4798,78.0,0.0,20.0,2.0,0.0
4799,72.0,0.0,20.0,4.0,0.0
4800,73.0,24.0,20.0,4.0,0.0
4801,58.0,0.0,60.0,7.0,0.0
4802,80.0,0.0,20.0,2.0,0.0
4803,75.0,24.0,60.0,0.0,0.0
4804,72.0,0.0,20.0,4.0,0.0
4805,78.0,0.0,20.0,2.0,0.0
4806,60.0,0.0,90.0,7.0,0.0
4807,63.0,0.0,90.0,11.0,0.0
4808,44.0,0.0,90.0,5.0,0.0
4809,44.0,24.0,90.0,12.0,0.0
4810,51.0,0.0,90.0,3.0,0.0
4811,72.0,0.0,60.0,0.0,0.0
4812,63.0,0.0,90.0,1.0,0.0
4813,73.0,0.0,20.0,4.0,0.0
4814,80.0,24.0,20.0,2.0,0.0
4815,68.0,0.0,90.0,6.0,0.0
4816,72.0,0.0,20.0,4.0,0.0
4817,78.0,24.0,20.0,2.0,0.0
4818,80.0,0.0,60.0,0.0,0.0
4819,73.0,0.0,20.0,4.0,0.0
4820,80.0,24.0,20.0,2.0,0.0
4821,78.0,0.0,20.0,2.0,0.0
4822,72.0,0.0,20.0,4.0,0.0
4823,73.0,24.0,20.0,4.0,0.0
4824,80.0,0.0,20.0,2.0,0.0
4825,60.0,0.0,90.0,1.0,0.0
4826,72.0,0.0,90.0,6.0,0.0
4827,60.0,0.0,90.0,11.0,0.0
4828,80.0,0.0,60.0,0.0,0.0
4829,56.0,0.0,90.0,3.0,0.0
4830,72.0,24.0,20.0,4.0,0.0
4831,78.0,0.0,20.0,2.0,0.0
4832,75.0,24.0,60.0,0.0,0.0
4833,73.0,24.0,20.0,4.0,0.0
4834,80.0,0.0,20.0,2.0,0.0
4835,72.0,0.0,20.0,4.0,0.0
4836,78.0,0.0,20.0,2.0,0.0
4837,56.0,0.0,90.0,1.0,0.0
4838,73.0,24.0,20.0,4.0,0.0
4839,61.0,0.0,20.0,7.0,0.0
4840,44.0,0.0,90.0,3.0,0.0
4841,80.0,0.0,20.0,2.0,0.0
4842,56.0,0.0,90.0,5.0,0.0
4843,56.0,0.0,90.0,11.0,0.0
4844,44.0,48.0,90.0,12.0,0.0
4845,72.0,0.0,60.0,0.0,0.0
4846,75.0,0.0,90.0,6.0,0.0
4847,72.0,0.0,20.0,4.0,0.0
4848,60.0,0.0,20.0,7.0,0.0
4849,78.0,2.0,20.0,2.0,0.0
4850,80.0,0.0,20.0,2.0,0.0
4851,61.0,24.0,20.0,7.0,0.0
4852,73.0,0.0,20.0,4.0,0.0
4853,80.0,0.0,60.0,0.0,0.0
4854,60.0,0.0,20.0,7.0,0.0
4855,78.0,0.0,20.0,2.0,0.0
4856,72.0,0.0,20.0,4.0,0.0
4857,49.0,0.0,90.0,3.0,0.0
4858,49.0,0.0,90.0,5.0,0.0
4859,73.0,0.0,150.0,10.0,0.0
4860,68.0,0.0,150.0,11.0,0.0
4861,80.0,0.0,90.0,0.0,0.0
4862,64.0,0.0,60.0,1.0,0.0
4863,49.0,0.0,150.0,12.0,0.0
4864,76.0,48.0,60.0,2.0,0.0
4865,76.0,0.0,150.0,6.0,0.0
4866,76.0,30.0,150.0,8.0,0.0
4867,56.0,0.0,90.0,7.0,0.0
4868,73.0,0.0,90.0,4.0,0.0
4869,63.0,0.0,60.0,1.0,0.0
4870,80.0,48.0,60.0,2.0,0.0
4871,61.0,0.0,90.0,7.0,0.0
4872,80.0,18.0,60.0,2.0,0.0
4873,73.0,0.0,90.0,0.0,0.0
4874,76.0,0.0,60.0,4.0,0.0
4875,64.0,0.0,90.0,1.0,0.0
4876,61.0,0.0,90.0,5.0,0.0
4877,49.0,0.0,90.0,3.0,0.0
4878,78.0,48.0,60.0,4.0,0.0
4879,80.0,0.0,60.0,2.0,0.0
4880,49.0,0.0,90.0,3.0,0.0
4881,64.0,48.0,90.0,5.0,0.0
4882,85.0,0.0,60.0,2.0,0.0
4883,80.0,48.0,60.0,4.0,0.0
4884,80.0,0.0,60.0,2.0,0.0
4885,78.0,0.0,60.0,4.0,0.0
4886,61.0,0.0,90.0,5.0,0.0
4887,80.0,0.0,60.0,2.0,0.0
4888,49.0,0.0,90.0,3.0,0.0
4889,76.0,48.0,60.0,4.0,0.0
4890,80.0,0.0,60.0,2.0,0.0
4891,78.0,48.0,60.0,4.0,0.0
4892,85.0,0.0,60.0,2.0,0.0
4893,49.0,48.0,90.0,5.0,0.0
4894,53.0,0.0,90.0,3.0,0.0
4895,80.0,48.0,60.0,4.0,0.0
4896,78.0,0.0,60.0,4.0,0.0
4897,80.0,0.0,60.0,2.0,0.0
4898,49.0,0.0,90.0,3.0,0.0
4899,80.0,0.0,60.0,2.0,0.0
4900,61.0,48.0,90.0,5.0,0.0
4901,77.0,48.0,60.0,4.0,0.0
4902,80.0,0.0,60.0,2.0,0.0
4903,78.0,0.0,60.0,4.0,0.0
4904,85.0,48.0,60.0,2.0,0.0
4905,49.0,0.0,90.0,3.0,0.0
4906,65.0,0.0,90.0,5.0,0.0
4907,80.0,0.0,90.0,4.0,0.0
4908,83.0,48.0,60.0,2.0,0.0
4909,81.0,48.0,60.0,2.0,0.0
4910,80.0,0.0,90.0,10.0,0.0
4911,77.0,0.0,90.0,11.0,0.0
4912,61.0,0.0,90.0,5.0,0.0
4913,85.0,48.0,90.0,8.0,0.0
4914,61.0,0.0,90.0,12.0,0.0
4915,73.0,0.0,90.0,4.0,0.0
4916,49.0,0.0,90.0,3.0,0.0
4917,80.0,0.0,60.0,2.0,0.0
4918,73.0,0.0,90.0,11.0,0.0
4919,81.0,0.0,150.0,2.0,0.0
4920,66.0,0.0,90.0,6.0,0.0
4921,54.0,0.0,90.0,5.0,0.0
4922,81.0,0.0,90.0,8.0,0.0
4923,42.0,0.0,90.0,7.0,0.0
4924,73.0,48.0,60.0,4.0,0.0
4925,66.0,0.0,90.0,12.0,0.0
4926,54.0,30.0,150.0,3.0,0.0
4927,78.0,0.0,90.0,10.0,0.0
4928,73.0,48.0,60.0,4.0,0.0
4929,69.0,0.0,90.0,11.0,0.0
4930,69.0,18.0,60.0,6.0,0.0
4931,42.0,48.0,90.0,5.0,0.0
4932,73.0,0.0,60.0,4.0,0.0
4933,73.0,0.0,90.0,10.0,0.0
4934,78.0,0.0,90.0,8.0,0.0
4935,54.0,0.0,90.0,12.0,0.0
4936,54.0,0.0,90.0,7.0,0.0
4937,73.0,0.0,60.0,4.0,0.0
4938,71.0,0.0,60.0,6.0,0.0
4939,78.0,0.0,60.0,4.0,0.0
4940,42.0,48.0,90.0,5.0,0.0
4941,73.0,48.0,60.0,6.0,0.0
4942,57.0,0.0,90.0,7.0,0.0
4943,73.0,0.0,60.0,4.0,0.0
4944,71.0,0.0,60.0,6.0,0.0
4945,73.0,0.0,60.0,4.0,0.0
4946,69.0,48.0,60.0,6.0,0.0
4947,42.0,0.0,90.0,5.0,0.0
4948,54.0,0.0,90.0,7.0,0.0
4949,73.0,0.0,60.0,4.0,0.0
4950,71.0,48.0,60.0,6.0,0.0
4951,46.0,0.0,90.0,5.0,0.0
4952,78.0,0.0,60.0,4.0,0.0
4953,73.0,48.0,60.0,6.0,0.0
4954,42.0,0.0,90.0,7.0,0.0
4955,73.0,48.0,60.0,4.0,0.0
4956,71.0,0.0,60.0,6.0,0.0
4957,54.0,0.0,90.0,7.0,0.0
4958,70.0,0.0,60.0,6.0,0.0
4959,73.0,48.0,60.0,4.0,0.0
4960,42.0,48.0,90.0,5.0,0.0
4961,71.0,0.0,60.0,6.0,0.0
4962,73.0,0.0,60.0,4.0,0.0
4963,78.0,48.0,60.0,4.0,0.0
4964,58.0,48.0,90.0,7.0,0.0
4965,73.0,0.0,90.0,6.0,0.0
4966,42.0,0.0,90.0,5.0,0.0
4967,76.0,0.0,60.0,4.0,0.0
4968,54.0,0.0,90.0,12.0,0.0
4969,73.0,0.0,90.0,10.0,0.0
4970,70.0,0.0,90.0,6.0,0.0
4971,70.0,0.0,90.0,11.0,0.0
4972,42.0,0.0,90.0,5.0,0.0
4973,54.0,0.0,90.0,7.0,0.0
4974,78.0,0.0,90.0,8.0,0.0
4975,75.0,48.0,60.0,4.0,0.0
4976,73.0,48.0,60.0,4.0,0.0
4977,59.0,0.0,90.0,7.0,0.0
4978,71.0,0.0,90.0,10.0,0.0
4979,66.0,0.0,90.0,11.0,0.0
4980,59.0,0.0,90.0,12.0,0.0
4981,75.0,30.0,150.0,4.0,0.0
4982,47.0,0.0,90.0,1.0,0.0
4983,66.0,48.0,60.0,6.0,0.0
4984,75.0,48.0,90.0,8.0,0.0
4985,47.0,0.0,150.0,5.0,0.0
4986,66.0,0.0,60.0,6.0,0.0
4987,63.0,0.0,60.0,0.0,0.0
4988,71.0,48.0,90.0,8.0,0.0
4989,66.0,0.0,90.0,10.0,0.0
4990,47.0,0.0,90.0,12.0,0.0
4991,47.0,0.0,90.0,7.0,0.0
4992,66.0,18.0,60.0,6.0,0.0
4993,59.0,0.0,90.0,1.0,0.0
4994,63.0,0.0,90.0,11.0,0.0
4995,64.0,0.0,60.0,0.0,0.0
4996,66.0,0.0,60.0,6.0,0.0
4997,71.0,48.0,60.0,6.0,0.0
4998,66.0,0.0,60.0,0.0,0.0
4999,47.0,0.0,90.0,7.0,0.0
5000,63.0,0.0,90.0,1.0,0.0
5001,64.0,48.0,60.0,0.0,0.0
5002,66.0,0.0,60.0,6.0,0.0
5003,59.0,0.0,90.0,1.0,0.0
5004,66.0,0.0,60.0,6.0,0.0
5005,47.0,0.0,90.0,7.0,0.0
5006,63.0,48.0,60.0,0.0,0.0
5007,66.0,48.0,60.0,6.0,0.0
5008,64.0,0.0,60.0,0.0,0.0
5009,66.0,0.0,60.0,0.0,0.0
5010,71.0,48.0,60.0,6.0,0.0
5011,51.0,48.0,90.0,7.0,0.0
5012,47.0,0.0,90.0,1.0,0.0
5013,66.0,0.0,60.0,6.0,0.0
5014,64.0,0.0,60.0,0.0,0.0
5015,59.0,0.0,90.0,1.0,0.0
5016,47.0,0.0,90.0,7.0,0.0
5017,66.0,0.0,60.0,6.0,0.0
5018,63.0,48.0,60.0,0.0,0.0
5019,66.0,0.0,60.0,6.0,0.0
5020,64.0,48.0,60.0,0.0,0.0
5021,66.0,0.0,90.0,0.0,0.0
5022,71.0,48.0,60.0,6.0,0.0
5023,63.0,0.0,90.0,1.0,0.0
5024,47.0,0.0,90.0,7.0,0.0
5025,69.0,48.0,60.0,6.0,0.0
5026,63.0,0.0,90.0,0.0,0.0
5027,47.0,0.0,90.0,7.0,0.0
5028,63.0,0.0,90.0,11.0,0.0
5029,71.0,0.0,90.0,8.0,0.0
5030,66.0,0.0,90.0,10.0,0.0
5031,47.0,0.0,90.0,12.0,0.0
5032,68.0,48.0,60.0,6.0,0.0
5033,59.0,0.0,90.0,1.0,0.0
5034,66.0,48.0,60.0,6.0,0.0
5035,68.0,0.0,90.0,8.0,0.0
5036,59.0,48.0,90.0,11.0,0.0
5037,52.0,0.0,90.0,7.0,0.0
5038,59.0,48.0,60.0,0.0,0.0
5039,68.0,0.0,90.0,6.0,0.0
5040,52.0,0.0,90.0,12.0,0.0
5041,64.0,0.0,90.0,10.0,0.0
5042,56.0,0.0,90.0,1.0,0.0
5043,59.0,0.0,60.0,0.0,0.0
5044,56.0,0.0,90.0,11.0,0.0
5045,44.0,0.0,90.0,1.0,0.0
5046,68.0,48.0,90.0,6.0,0.0
5047,59.0,0.0,60.0,0.0,0.0
5048,52.0,48.0,60.0,7.0,0.0
5049,59.0,0.0,90.0,10.0,0.0
5050,40.0,0.0,90.0,12.0,0.0
5051,64.0,0.0,90.0,8.0,0.0
5052,54.0,0.0,60.0,7.0,0.0
5053,59.0,0.0,60.0,0.0,0.0
5054,56.0,0.0,60.0,7.0,0.0
5055,71.0,0.0,90.0,6.0,0.0
5056,44.0,0.0,90.0,1.0,0.0
5057,64.0,48.0,60.0,0.0,0.0
5058,54.0,0.0,60.0,7.0,0.0
5059,59.0,48.0,60.0,0.0,0.0
5060,59.0,0.0,60.0,0.0,0.0
5061,76.0,0.0,90.0,6.0,0.0
5062,52.0,48.0,60.0,7.0,0.0
5063,44.0,0.0,90.0,1.0,0.0
5064,54.0,48.0,60.0,7.0,0.0
5065,59.0,0.0,60.0,0.0,0.0
5066,64.0,0.0,60.0,0.0,0.0
5067,71.0,0.0,90.0,6.0,0.0
5068,56.0,48.0,60.0,7.0,0.0
5069,40.0,0.0,90.0,1.0,0.0
5070,54.0,48.0,60.0,7.0,0.0
5071,59.0,0.0,60.0,0.0,0.0
5072,59.0,0.0,60.0,0.0,0.0
5073,52.0,48.0,60.0,7.0,0.0
5074,40.0,0.0,90.0,1.0,0.0
5075,76.0,48.0,90.0,6.0,0.0
5076,54.0,0.0,60.0,7.0,0.0
5077,59.0,0.0,60.0,0.0,0.0
5078,40.0,0.0,90.0,1.0,0.0
5079,64.0,48.0,60.0,0.0,0.0
5080,71.0,48.0,90.0,6.0,0.0
5081,56.0,0.0,90.0,7.0,0.0
5082,63.0,0.0,60.0,0.0,0.0
5083,68.0,0.0,90.0,11.0,0.0
5084,52.0,0.0,90.0,7.0,0.0
5085,71.0,0.0,90.0,10.0,0.0
5086,76.0,0.0,90.0,8.0,0.0
5087,52.0,0.0,90.0,12.0,0.0
5088,40.0,0.0,90.0,1.0,0.0
5089,61.0,48.0,60.0,0.0,0.0
5090,68.0,48.0,90.0,6.0,0.0
5091,59.0,0.0,60.0,0.0,0.0
5092,61.0,48.0,60.0,0.0,0.0
5093,57.0,0.0,90.0,12.0,0.0
5094,64.0,0.0,90.0,11.0,0.0
5095,64.0,0.0,90.0,6.0,0.0
5096,57.0,0.0,90.0,7.0,0.0
5097,69.0,48.0,90.0,10.0,0.0
5098,45.0,0.0,90.0,1.0,0.0
5099,73.0,0.0,90.0,8.0,0.0
5100,61.0,0.0,60.0,0.0,0.0
5101,61.0,0.0,60.0,0.0,0.0
5102,69.0,0.0,90.0,8.0,0.0
5103,69.0,0.0,90.0,4.0,0.0
5104,64.0,0.0,90.0,10.0,0.0
5105,61.0,48.0,60.0,5.0,0.0
5106,45.0,48.0,90.0,1.0,0.0
5107,61.0,0.0,90.0,11.0,0.0
5108,45.0,0.0,90.0,12.0,0.0
5109,61.0,0.0,60.0,0.0,0.0
5110,59.0,0.0,60.0,5.0,0.0
5111,57.0,48.0,60.0,5.0,0.0
5112,73.0,0.0,90.0,4.0,0.0
5113,66.0,0.0,60.0,0.0,0.0
5114,45.0,0.0,90.0,1.0,0.0
5115,61.0,48.0,60.0,0.0,0.0
5116,56.0,0.0,60.0,5.0,0.0
5117,54.0,48.0,60.0,5.0,0.0
5118,45.0,48.0,90.0,1.0,0.0
5119,78.0,0.0,90.0,4.0,0.0
5120,61.0,0.0,60.0,0.0,0.0
5121,56.0,0.0,60.0,5.0,0.0
5122,61.0,0.0,60.0,0.0,0.0
5123,73.0,0.0,90.0,4.0,0.0
5124,42.0,0.0,90.0,1.0,0.0
5125,66.0,48.0,60.0,0.0,0.0
5126,58.0,0.0,60.0,5.0,0.0
5127,61.0,0.0,60.0,0.0,0.0
5128,56.0,48.0,60.0,5.0,0.0
5129,42.0,0.0,90.0,1.0,0.0
5130,61.0,0.0,60.0,0.0,0.0
5131,54.0,48.0,60.0,5.0,0.0
5132,78.0,48.0,90.0,4.0,0.0
5133,61.0,0.0,60.0,0.0,0.0
5134,56.0,0.0,60.0,5.0,0.0
5135,73.0,0.0,90.0,4.0,0.0
5136,58.0,0.0,90.0,5.0,0.0
5137,42.0,48.0,90.0,1.0,0.0
5138,66.0,48.0,60.0,0.0,0.0
5139,64.0,0.0,60.0,0.0,0.0
5140,63.0,48.0,60.0,0.0,0.0
5141,73.0,0.0,90.0,10.0,0.0
5142,54.0,48.0,90.0,5.0,0.0
5143,70.0,0.0,90.0,4.0,0.0
5144,70.0,0.0,90.0,11.0,0.0
5145,78.0,0.0,90.0,8.0,0.0
5146,54.0,0.0,90.0,12.0,0.0
5147,42.0,0.0,90.0,1.0,0.0
5148,61.0,0.0,60.0,0.0,0.0
5149,66.0,0.0,90.0,11.0,0.0
5150,63.0,48.0,60.0,0.0,0.0
5151,71.0,48.0,90.0,10.0,0.0
5152,47.0,0.0,90.0,1.0,0.0
5153,75.0,0.0,90.0,8.0,0.0
5154,59.0,0.0,90.0,5.0,0.0
5155,66.0,0.0,90.0,4.0,0.0
5156,59.0,0.0,90.0,12.0,0.0
5157,63.0,0.0,60.0,0.0,0.0
5158,63.0,48.0,60.0,0.0,0.0
5159,47.0,0.0,90.0,1.0,0.0
5160,63.0,0.0,60.0,3.0,0.0
5161,47.0,0.0,90.0,12.0,0.0
5162,66.0,48.0,90.0,10.0,0.0
5163,63.0,0.0,90.0,11.0,0.0
5164,71.0,0.0,90.0,2.0,0.0
5165,71.0,0.0,90.0,8.0,0.0
5166,61.0,0.0,60.0,3.0,0.0
5167,63.0,0.0,60.0,0.0,0.0
5168,59.0,0.0,60.0,3.0,0.0
5169,68.0,48.0,60.0,0.0,0.0
5170,47.0,0.0,90.0,1.0,0.0
5171,75.0,0.0,90.0,2.0,0.0
5172,58.0,48.0,60.0,3.0,0.0
5173,63.0,0.0,60.0,0.0,0.0
5174,63.0,0.0,60.0,0.0,0.0
5175,80.0,0.0,90.0,2.0,0.0
5176,47.0,0.0,90.0,1.0,0.0
5177,56.0,48.0,60.0,3.0,0.0
5178,58.0,0.0,60.0,3.0,0.0
5179,63.0,48.0,60.0,0.0,0.0
5180,60.0,48.0,60.0,3.0,0.0
5181,68.0,0.0,60.0,0.0,0.0
5182,44.0,0.0,90.0,1.0,0.0
5183,75.0,0.0,90.0,2.0,0.0
5184,58.0,48.0,60.0,3.0,0.0
5185,63.0,0.0,60.0,0.0,0.0
5186,80.0,0.0,90.0,2.0,0.0
5187,44.0,0.0,90.0,1.0,0.0
5188,56.0,48.0,60.0,3.0,0.0
5189,63.0,0.0,60.0,0.0,0.0
5190,63.0,0.0,60.0,0.0,0.0
5191,58.0,48.0,60.0,3.0,0.0
5192,75.0,0.0,90.0,2.0,0.0
5193,68.0,48.0,60.0,0.0,0.0
5194,44.0,48.0,90.0,1.0,0.0
5195,60.0,0.0,90.0,3.0,0.0
5196,66.0,0.0,60.0,0.0,0.0
5197,64.0,48.0,60.0,0.0,0.0
5198,72.0,0.0,90.0,2.0,0.0
5199,56.0,0.0,90.0,3.0,0.0
5200,56.0,0.0,90.0,12.0,0.0
5201,75.0,0.0,90.0,10.0,0.0
5202,80.0,0.0,90.0,8.0,0.0
5203,72.0,0.0,90.0,11.0,0.0
5204,44.0,0.0,90.0,1.0,0.0
5205,63.0,48.0,60.0,0.0,0.0
5206,68.0,0.0,90.0,11.0,0.0
5207,61.0,0.0,90.0,12.0,0.0
5208,64.0,0.0,90.0,0.0,0.0
5209,68.0,48.0,60.0,2.0,0.0
5210,49.0,0.0,90.0,3.0,0.0
5211,49.0,30.0,150.0,1.0,0.0
5212,76.0,0.0,90.0,8.0,0.0
5213,73.0,48.0,90.0,10.0,0.0
5214,80.0,0.0,60.0,2.0,0.0
5215,80.0,18.0,60.0,2.0,0.0
5216,73.0,0.0,60.0,0.0,0.0
5217,68.0,0.0,90.0,10.0,0.0
5218,64.0,0.0,90.0,11.0,0.0
5219,61.0,0.0,90.0,3.0,0.0
5220,49.0,0.0,90.0,12.0,0.0
5221,73.0,0.0,90.0,8.0,0.0
5222,76.0,0.0,60.0,0.0,0.0
5223,80.0,48.0,60.0,2.0,0.0
5224,85.0,48.0,60.0,2.0,0.0
5225,64.0,48.0,90.0,3.0,0.0
5226,80.0,0.0,90.0,0.0,0.0
5227,80.0,0.0,60.0,2.0,0.0
5228,80.0,48.0,60.0,2.0,0.0
5229,61.0,0.0,90.0,3.0,0.0
5230,64.0,0.0,90.0,1.0,0.0
5231,85.0,0.0,90.0,0.0,0.0
5232,80.0,48.0,60.0,2.0,0.0
5233,81.0,48.0,60.0,2.0,0.0
5234,60.0,48.0,90.0,3.0,0.0
5235,66.0,0.0,90.0,1.0,0.0
5236,80.0,0.0,60.0,2.0,0.0
5237,64.0,0.0,90.0,1.0,0.0
5238,80.0,48.0,60.0,2.0,0.0
5239,73.0,0.0,60.0,0.0,0.0
5240,61.0,0.0,90.0,3.0,0.0
5241,80.0,0.0,60.0,2.0,0.0
5242,76.0,48.0,60.0,0.0,0.0
5243,85.0,48.0,60.0,2.0,0.0
5244,80.0,48.0,90.0,0.0,0.0
5245,49.0,0.0,90.0,3.0,0.0
5246,80.0,0.0,60.0,2.0,0.0
5247,64.0,48.0,90.0,11.0,0.0
5248,61.0,0.0,90.0,3.0,0.0
5249,83.0,0.0,90.0,0.0,0.0
5250,61.0,0.0,90.0,12.0,0.0
5251,73.0,0.0,90.0,10.0,0.0
5252,80.0,0.0,90.0,8.0,0.0
5253,80.0,48.0,60.0,2.0,0.0
5254,64.0,0.0,90.0,1.0,0.0
5255,80.0,0.0,60.0,2.0,0.0
5256,54.0,0.0,90.0,3.0,0.0
5257,81.0,46.0,60.0,8.0,0.0
5258,73.0,0.0,90.0,10.0,0.0
5259,64.0,0.0,90.0,11.0,0.0
5260,81.0,2.0,60.0,2.0,0.0
5261,54.0,0.0,90.0,12.0,0.0
5262,64.0,2.0,90.0,1.0,0.0
5263,80.0,46.0,60.0,8.0,0.0
5264,78.0,0.0,60.0,2.0,0.0
5265,78.0,48.0,60.0,2.0,0.0
5266,63.0,0.0,90.0,1.0,0.0
5267,71.0,0.0,90.0,10.0,0.0
5268,59.0,0.0,90.0,3.0,0.0
5269,81.0,0.0,90.0,8.0,0.0
5270,59.0,0.0,90.0,12.0,0.0
5271,71.0,0.0,60.0,0.0,0.0
5272,63.0,48.0,90.0,11.0,0.0
5273,78.0,0.0,60.0,2.0,0.0
5274,75.0,0.0,60.0,0.0,0.0
5275,78.0,0.0,90.0,0.0,0.0
5276,83.0,48.0,60.0,2.0,0.0
5277,63.0,48.0,90.0,3.0,0.0
5278,78.0,0.0,60.0,2.0,0.0
5279,63.0,48.0,90.0,1.0,0.0
5280,83.0,0.0,90.0,0.0,0.0
5281,78.0,48.0,60.0,2.0,0.0
5282,59.0,0.0,90.0,3.0,0.0
5283,78.0,0.0,60.0,2.0,0.0
5284,58.0,0.0,90.0,3.0,0.0
5285,64.0,0.0,90.0,1.0,0.0
5286,80.0,48.0,60.0,2.0,0.0
5287,78.0,48.0,60.0,2.0,0.0
5288,71.0,48.0,60.0,0.0,0.0
5289,59.0,0.0,90.0,3.0,0.0
5290,63.0,48.0,90.0,1.0,0.0
5291,78.0,0.0,60.0,2.0,0.0
5292,78.0,0.0,60.0,2.0,0.0
5293,75.0,0.0,60.0,0.0,0.0
5294,83.0,48.0,60.0,2.0,0.0
5295,47.0,0.0,90.0,3.0,0.0
5296,78.0,48.0,90.0,0.0,0.0
5297,78.0,0.0,60.0,2.0,0.0
5298,62.0,48.0,90.0,11.0,0.0
5299,71.0,0.0,90.0,10.0,0.0
5300,78.0,48.0,60.0,2.0,0.0
5301,81.0,0.0,90.0,0.0,0.0
5302,78.0,0.0,90.0,8.0,0.0
5303,59.0,0.0,90.0,12.0,0.0
5304,62.0,0.0,90.0,1.0,0.0
5305,59.0,0.0,90.0,3.0,0.0
5306,78.0,0.0,60.0,2.0,0.0
5307,80.0,46.0,60.0,8.0,0.0
5308,52.0,0.0,90.0,12.0,0.0
5309,62.0,0.0,90.0,11.0,0.0
5310,71.0,0.0,90.0,10.0,0.0
5311,62.0,0.0,90.0,1.0,0.0
5312,80.0,2.0,60.0,2.0,0.0
5313,52.0,2.0,90.0,3.0,0.0
5314,76.0,0.0,60.0,2.0,0.0
5315,78.0,46.0,60.0,8.0,0.0
5316,76.0,0.0,60.0,2.0,0.0
5317,69.0,0.0,90.0,10.0,0.0
5318,69.0,48.0,60.0,0.0,0.0
5319,57.0,0.0,90.0,3.0,0.0
5320,61.0,0.0,90.0,1.0,0.0
5321,57.0,0.0,90.0,12.0,0.0
5322,61.0,0.0,90.0,11.0,0.0
5323,80.0,0.0,90.0,8.0,0.0
5324,76.0,0.0,60.0,2.0,0.0
5325,73.0,48.0,60.0,0.0,0.0
5326,61.0,0.0,90.0,3.0,0.0
5327,76.0,0.0,90.0,0.0,0.0
5328,81.0,48.0,60.0,2.0,0.0
5329,76.0,48.0,60.0,2.0,0.0
5330,61.0,0.0,90.0,1.0,0.0
5331,81.0,0.0,90.0,0.0,0.0
5332,76.0,48.0,60.0,2.0,0.0
5333,57.0,48.0,90.0,3.0,0.0
5334,76.0,0.0,60.0,2.0,0.0
5335,62.0,48.0,90.0,1.0,0.0
5336,78.0,48.0,60.0,2.0,0.0
5337,56.0,0.0,90.0,3.0,0.0
5338,76.0,0.0,60.0,2.0,0.0
5339,69.0,48.0,60.0,0.0,0.0
5340,57.0,48.0,90.0,3.0,0.0
5341,61.0,0.0,90.0,1.0,0.0
5342,76.0,0.0,60.0,2.0,0.0
5343,76.0,0.0,60.0,2.0,0.0
5344,73.0,0.0,60.0,0.0,0.0
5345,45.0,0.0,90.0,3.0,0.0
5346,81.0,48.0,60.0,2.0,0.0
5347,76.0,48.0,90.0,0.0,0.0
5348,76.0,0.0,60.0,2.0,0.0
5349,76.0,48.0,60.0,2.0,0.0
5350,69.0,0.0,90.0,10.0,0.0
5351,80.0,0.0,90.0,0.0,0.0
5352,61.0,48.0,90.0,11.0,0.0
5353,57.0,0.0,90.0,12.0,0.0
5354,76.0,0.0,90.0,8.0,0.0
5355,61.0,0.0,90.0,1.0,0.0
5356,57.0,0.0,90.0,3.0,0.0
5357,76.0,0.0,60.0,2.0,0.0
5358,78.0,2.0,60.0,2.0,0.0
5359,61.0,0.0,90.0,1.0,0.0
5360,78.0,46.0,60.0,8.0,0.0
5361,51.0,0.0,90.0,12.0,0.0
5362,61.0,0.0,90.0,11.0,0.0
5363,69.0,46.0,90.0,10.0,0.0
5364,51.0,2.0,90.0,3.0,0.0
5365,75.0,0.0,60.0,2.0,0.0
5366,76.0,0.0,60.0,8.0,0.0
5367,60.0,0.0,90.0,11.0,0.0
5368,60.0,0.0,90.0,1.0,0.0
5369,75.0,0.0,60.0,2.0,0.0
5370,56.0,0.0,90.0,12.0,0.0
5371,56.0,0.0,90.0,3.0,0.0
5372,68.0,48.0,90.0,10.0,0.0
5373,78.0,0.0,90.0,8.0,0.0
5374,68.0,48.0,60.0,0.0,0.0
5375,72.0,0.0,60.0,0.0,0.0
5376,75.0,0.0,60.0,2.0,0.0
5377,75.0,0.0,90.0,0.0,0.0
5378,60.0,48.0,90.0,3.0,0.0
5379,80.0,48.0,60.0,2.0,0.0
5380,75.0,0.0,60.0,2.0,0.0
5381,75.0,48.0,60.0,2.0,0.0
5382,60.0,0.0,90.0,1.0,0.0
5383,80.0,0.0,90.0,0.0,0.0
5384,56.0,0.0,90.0,3.0,0.0
5385,75.0,48.0,60.0,2.0,0.0
5386,55.0,0.0,90.0,3.0,0.0
5387,76.0,48.0,60.0,2.0,0.0
5388,61.0,0.0,90.0,1.0,0.0
5389,75.0,48.0,60.0,2.0,0.0
5390,68.0,0.0,60.0,0.0,0.0
5391,56.0,0.0,90.0,3.0,0.0
5392,60.0,0.0,90.0,1.0,0.0
5393,75.0,48.0,60.0,2.0,0.0
5394,75.0,0.0,60.0,2.0,0.0
5395,72.0,48.0,60.0,0.0,0.0
5396,44.0,0.0,90.0,3.0,0.0
5397,80.0,48.0,60.0,2.0,0.0
5398,75.0,0.0,90.0,0.0,0.0
5399,75.0,48.0,60.0,2.0,0.0
5400,60.0,0.0,90.0,1.0,0.0
5401,56.0,0.0,90.0,3.0,0.0
5402,78.0,0.0,90.0,0.0,0.0
5403,75.0,48.0,60.0,2.0,0.0
5404,75.0,48.0,90.0,8.0,0.0
5405,60.0,0.0,90.0,11.0,0.0
5406,56.0,0.0,90.0,12.0,0.0
5407,68.0,0.0,90.0,10.0,0.0
5408,75.0,0.0,60.0,2.0,0.0
5409,76.0,0.0,60.0,0.0,0.0
5410,76.0,46.0,60.0,8.0,0.0
5411,49.0,30.0,150.0,3.0,0.0
5412,61.0,0.0,90.0,11.0,0.0
5413,61.0,0.0,90.0,1.0,0.0
5414,49.0,0.0,90.0,5.0,0.0
5415,61.0,2.0,60.0,7.0,0.0
5416,68.0,0.0,90.0,10.0,0.0
5417,61.0,0.0,90.0,12.0,0.0
5418,76.0,0.0,90.0,2.0,0.0
5419,75.0,46.0,60.0,8.0,0.0
5420,78.0,2.0,60.0,0.0,0.0
5421,63.0,0.0,60.0,7.0,0.0
5422,80.0,0.0,60.0,4.0,0.0
5423,80.0,18.0,60.0,0.0,0.0
5424,73.0,0.0,60.0,6.0,0.0
5425,64.0,48.0,90.0,7.0,0.0
5426,73.0,0.0,90.0,2.0,0.0
5427,61.0,0.0,90.0,5.0,0.0
5428,73.0,0.0,90.0,8.0,0.0
5429,56.0,0.0,90.0,11.0,0.0
5430,49.0,0.0,90.0,12.0,0.0
5431,64.0,0.0,90.0,10.0,0.0
5432,49.0,0.0,90.0,1.0,0.0
5433,80.0,0.0,60.0,4.0,0.0
5434,80.0,0.0,60.0,4.0,0.0
5435,76.0,0.0,60.0,6.0,0.0
5436,76.0,0.0,60.0,0.0,0.0
5437,85.0,48.0,60.0,4.0,0.0
5438,73.0,0.0,90.0,0.0,0.0
5439,64.0,0.0,90.0,5.0,0.0
5440,80.0,48.0,90.0,6.0,0.0
5441,80.0,0.0,60.0,4.0,0.0
5442,64.0,0.0,90.0,7.0,0.0
5443,85.0,0.0,90.0,6.0,0.0
5444,61.0,48.0,90.0,5.0,0.0
5445,80.0,48.0,60.0,4.0,0.0
5446,80.0,0.0,60.0,4.0,0.0
5447,60.0,48.0,90.0,5.0,0.0
5448,66.0,0.0,90.0,7.0,0.0
5449,81.0,48.0,60.0,4.0,0.0
5450,80.0,0.0,60.0,4.0,0.0
5451,73.0,0.0,60.0,6.0,0.0
5452,61.0,0.0,90.0,5.0,0.0
5453,80.0,48.0,60.0,4.0,0.0
5454,64.0,0.0,90.0,7.0,0.0
5455,76.0,48.0,60.0,6.0,0.0
5456,80.0,0.0,60.0,4.0,0.0
5457,85.0,48.0,60.0,4.0,0.0
5458,49.0,0.0,90.0,5.0,0.0
5459,80.0,0.0,90.0,6.0,0.0
5460,80.0,48.0,60.0,4.0,0.0
5461,80.0,48.0,60.0,4.0,0.0
5462,73.0,0.0,90.0,8.0,0.0
5463,49.0,48.0,90.0,12.0,0.0
5464,61.0,0.0,90.0,5.0,0.0
5465,64.0,0.0,90.0,7.0,0.0
5466,64.0,0.0,90.0,10.0,0.0
5467,83.0,0.0,90.0,6.0,0.0
5468,68.0,0.0,90.0,11.0,0.0
5469,80.0,0.0,60.0,4.0,0.0
5470,64.0,0.0,90.0,7.0,0.0
5471,81.0,48.0,60.0,4.0,0.0
5472,54.0,0.0,90.0,12.0,0.0
5473,64.0,0.0,90.0,10.0,0.0
5474,54.0,2.0,90.0,5.0,0.0
5475,73.0,0.0,90.0,8.0,0.0
5476,78.0,0.0,60.0,4.0,0.0
5477,71.0,48.0,60.0,6.0,0.0
5478,78.0,0.0,60.0,4.0,0.0
5479,66.0,46.0,15.0,11.0,0.0
5480,71.0,0.0,90.0,8.0,0.0
5481,63.0,0.0,90.0,10.0,0.0
5482,59.0,0.0,90.0,5.0,0.0
5483,63.0,0.0,90.0,7.0,0.0
5484,47.0,48.0,90.0,12.0,0.0
5485,75.0,0.0,60.0,6.0,0.0
5486,78.0,0.0,60.0,4.0,0.0
5487,63.0,0.0,90.0,5.0,0.0
5488,78.0,0.0,90.0,6.0,0.0
5489,83.0,48.0,60.0,4.0,0.0
5490,78.0,48.0,60.0,4.0,0.0
5491,59.0,0.0,90.0,5.0,0.0
5492,63.0,48.0,90.0,7.0,0.0
5493,83.0,0.0,90.0,6.0,0.0
5494,78.0,48.0,60.0,4.0,0.0
5495,78.0,0.0,60.0,4.0,0.0
5496,80.0,48.0,60.0,4.0,0.0
5497,64.0,48.0,90.0,7.0,0.0
5498,58.0,0.0,90.0,5.0,0.0
5499,78.0,0.0,60.0,4.0,0.0
5500,78.0,0.0,60.0,4.0,0.0
5501,71.0,48.0,60.0,6.0,0.0
5502,63.0,48.0,90.0,7.0,0.0
5503,59.0,0.0,90.0,5.0,0.0
5504,78.0,0.0,60.0,4.0,0.0
5505,75.0,0.0,60.0,6.0,0.0
5506,83.0,48.0,60.0,4.0,0.0
5507,78.0,0.0,90.0,6.0,0.0
5508,47.0,48.0,90.0,5.0,0.0
5509,78.0,0.0,60.0,4.0,0.0
5510,71.0,0.0,90.0,8.0,0.0
5511,62.0,0.0,90.0,10.0,0.0
5512,66.0,0.0,90.0,11.0,0.0
5513,47.0,0.0,90.0,12.0,0.0
5514,59.0,0.0,90.0,5.0,0.0
5515,62.0,48.0,90.0,7.0,0.0
5516,81.0,0.0,90.0,6.0,0.0
5517,78.0,48.0,60.0,4.0,0.0
5518,78.0,0.0,60.0,4.0,0.0
5519,80.0,48.0,60.0,4.0,0.0
5520,62.0,0.0,90.0,10.0,0.0
5521,52.0,0.0,90.0,12.0,0.0
5522,71.0,0.0,90.0,8.0,0.0
5523,62.0,2.0,90.0,7.0,0.0
5524,52.0,0.0,90.0,5.0,0.0
5525,76.0,0.0,60.0,4.0,0.0
5526,76.0,48.0,60.0,4.0,0.0
5527,69.0,0.0,60.0,6.0,0.0
5528,69.0,0.0,90.0,8.0,0.0
5529,61.0,0.0,90.0,7.0,0.0
5530,45.0,0.0,90.0,12.0,0.0
5531,64.0,46.0,15.0,11.0,0.0
5532,57.0,0.0,90.0,5.0,0.0
5533,61.0,48.0,90.0,10.0,0.0
5534,76.0,0.0,60.0,4.0,0.0
5535,73.0,0.0,60.0,6.0,0.0
5536,76.0,0.0,90.0,6.0,0.0
5537,81.0,48.0,60.0,4.0,0.0
5538,61.0,0.0,90.0,5.0,0.0
5539,76.0,48.0,60.0,4.0,0.0
5540,61.0,0.0,90.0,7.0,0.0
5541,76.0,48.0,60.0,4.0,0.0
5542,81.0,0.0,90.0,6.0,0.0
5543,57.0,48.0,90.0,5.0,0.0
5544,76.0,0.0,60.0,4.0,0.0
5545,56.0,0.0,90.0,5.0,0.0
5546,78.0,48.0,60.0,4.0,0.0
5547,62.0,0.0,90.0,7.0,0.0
5548,76.0,48.0,60.0,4.0,0.0
5549,57.0,48.0,90.0,5.0,0.0
5550,61.0,0.0,90.0,7.0,0.0
5551,69.0,48.0,60.0,6.0,0.0
5552,76.0,0.0,60.0,4.0,0.0
5553,76.0,0.0,60.0,4.0,0.0
5554,73.0,0.0,60.0,6.0,0.0
5555,81.0,48.0,60.0,4.0,0.0
5556,76.0,0.0,90.0,6.0,0.0
5557,45.0,48.0,90.0,5.0,0.0
5558,76.0,0.0,60.0,4.0,0.0
5559,64.0,0.0,90.0,11.0,0.0
5560,45.0,0.0,90.0,12.0,0.0
5561,76.0,48.0,60.0,4.0,0.0
5562,80.0,0.0,90.0,6.0,0.0
5563,69.0,0.0,90.0,8.0,0.0
5564,61.0,0.0,90.0,7.0,0.0
5565,61.0,0.0,90.0,10.0,0.0
5566,57.0,0.0,90.0,5.0,0.0
5567,76.0,48.0,60.0,4.0,0.0
5568,63.0,46.0,90.0,11.0,0.0
5569,61.0,0.0,90.0,10.0,0.0
5570,51.0,0.0,90.0,5.0,0.0
5571,61.0,0.0,90.0,7.0,0.0
5572,51.0,2.0,90.0,12.0,0.0
5573,69.0,0.0,90.0,8.0,0.0
5574,78.0,48.0,60.0,4.0,0.0
5575,75.0,0.0,60.0,4.0,0.0
5576,68.0,48.0,90.0,8.0,0.0
5577,44.0,0.0,90.0,12.0,0.0
5578,60.0,0.0,90.0,7.0,0.0
5579,75.0,48.0,60.0,4.0,0.0
5580,63.0,0.0,90.0,11.0,0.0
5581,60.0,0.0,90.0,10.0,0.0
5582,68.0,0.0,60.0,6.0,0.0
5583,56.0,0.0,90.0,5.0,0.0
5584,75.0,0.0,60.0,4.0,0.0
5585,72.0,0.0,60.0,6.0,0.0
5586,80.0,48.0,60.0,4.0,0.0
5587,75.0,0.0,90.0,6.0,0.0
5588,60.0,48.0,90.0,5.0,0.0
5589,75.0,0.0,60.0,4.0,0.0
5590,75.0,48.0,60.0,4.0,0.0
5591,56.0,48.0,90.0,5.0,0.0
5592,80.0,0.0,90.0,6.0,0.0
5593,60.0,0.0,90.0,7.0,0.0
5594,75.0,0.0,60.0,4.0,0.0
5595,76.0,48.0,60.0,4.0,0.0
5596,61.0,0.0,90.0,7.0,0.0
5597,55.0,48.0,90.0,5.0,0.0
5598,75.0,0.0,60.0,4.0,0.0
5599,68.0,0.0,60.0,6.0,0.0
5600,56.0,48.0,90.0,5.0,0.0
5601,60.0,0.0,90.0,7.0,0.0
5602,75.0,48.0,60.0,4.0,0.0
5603,72.0,0.0,60.0,6.0,0.0
5604,75.0,0.0,60.0,4.0,0.0
5605,75.0,0.0,90.0,6.0,0.0
5606,44.0,0.0,90.0,5.0,0.0
5607,80.0,48.0,60.0,4.0,0.0
5608,75.0,48.0,60.0,4.0,0.0
5609,63.0,0.0,90.0,11.0,0.0
5610,56.0,0.0,90.0,5.0,0.0
5611,60.0,0.0,90.0,7.0,0.0
5612,75.0,48.0,60.0,4.0,0.0
5613,44.0,0.0,90.0,12.0,0.0
5614,60.0,0.0,90.0,10.0,0.0
5615,68.0,0.0,90.0,8.0,0.0
5616,78.0,24.0,90.0,6.0,0.0
5617,75.0,0.0,60.0,4.0,0.0
5618,49.0,24.0,90.0,5.0,0.0
5619,68.0,0.0,150.0,8.0,0.0
5620,61.0,0.0,150.0,10.0,0.0
5621,61.0,6.0,150.0,1.0,0.0
5622,76.0,0.0,90.0,4.0,0.0
5623,76.0,0.0,60.0,0.0,0.0
5624,76.0,0.0,90.0,3.0,0.0
5625,76.0,0.0,90.0,6.0,0.0
5626,87.0,24.0,20.0,2.0,0.0
5627,61.0,0.0,90.0,7.0,0.0
5628,64.0,0.0,150.0,11.0,0.0
5629,49.0,0.0,150.0,12.0,0.0
5630,85.0,24.0,20.0,2.0,0.0
5631,85.0,0.0,20.0,0.0,0.0
5632,87.0,24.0,20.0,2.0,0.0
5633,85.0,0.0,20.0,2.0,0.0
5634,87.0,0.0,20.0,0.0,0.0
5635,88.0,18.0,60.0,0.0,0.0
5636,87.0,24.0,20.0,2.0,0.0
5637,73.0,24.0,90.0,6.0,0.0
5638,76.0,0.0,90.0,3.0,0.0
5639,49.0,0.0,90.0,7.0,0.0
5640,80.0,0.0,90.0,4.0,0.0
5641,73.0,0.0,90.0,5.0,0.0
5642,85.0,0.0,20.0,2.0,0.0
5643,85.0,0.0,60.0,0.0,0.0
5644,87.0,24.0,20.0,2.0,0.0
5645,85.0,0.0,20.0,2.0,0.0
5646,88.0,0.0,60.0,0.0,0.0
5647,73.0,0.0,90.0,5.0,0.0
5648,84.0,0.0,90.0,4.0,0.0
5649,87.0,24.0,20.0,2.0,0.0
5650,76.0,0.0,90.0,3.0,0.0
5651,85.0,24.0,20.0,2.0,0.0
5652,87.0,24.0,20.0,2.0,0.0
5653,85.0,24.0,60.0,0.0,0.0
5654,85.0,0.0,20.0,2.0,0.0
5655,76.0,0.0,90.0,3.0,0.0
5656,85.0,24.0,90.0,4.0,0.0
5657,73.0,0.0,90.0,5.0,0.0
5658,88.0,0.0,60.0,0.0,0.0
5659,61.0,0.0,90.0,1.0,0.0
5660,87.0,24.0,20.0,2.0,0.0
5661,85.0,24.0,20.0,2.0,0.0
5662,85.0,0.0,60.0,0.0,0.0
5663,87.0,24.0,20.0,2.0,0.0
5664,85.0,0.0,20.0,2.0,0.0
5665,78.0,24.0,60.0,0.0,0.0
5666,75.0,0.0,90.0,5.0,0.0
5667,87.0,24.0,20.0,2.0,0.0
5668,78.0,24.0,90.0,3.0,0.0
5669,63.0,6.0,150.0,1.0,0.0
5670,85.0,0.0,20.0,2.0,0.0
5671,87.0,24.0,20.0,2.0,0.0
5672,85.0,0.0,20.0,0.0,0.0
5673,85.0,0.0,20.0,2.0,0.0
5674,87.0,0.0,20.0,0.0,0.0
5675,75.0,0.0,90.0,5.0,0.0
5676,87.0,24.0,20.0,2.0,0.0
5677,78.0,0.0,90.0,4.0,0.0
5678,78.0,0.0,90.0,3.0,0.0
5679,88.0,18.0,60.0,0.0,0.0
5680,85.0,0.0,20.0,2.0,0.0
5681,87.0,24.0,20.0,2.0,0.0
5682,85.0,24.0,60.0,0.0,0.0
5683,85.0,0.0,20.0,2.0,0.0
5684,75.0,0.0,90.0,5.0,0.0
5685,84.0,0.0,90.0,4.0,0.0
5686,78.0,0.0,90.0,3.0,0.0
5687,87.0,24.0,20.0,2.0,0.0
5688,88.0,24.0,60.0,0.0,0.0
5689,85.0,0.0,20.0,2.0,0.0
5690,85.0,0.0,60.0,0.0,0.0
5691,87.0,24.0,20.0,2.0,0.0
5692,85.0,24.0,20.0,2.0,0.0
5693,78.0,0.0,90.0,3.0,0.0
5694,75.0,24.0,90.0,5.0,0.0
5695,88.0,0.0,60.0,0.0,0.0
5696,63.0,0.0,90.0,1.0,0.0
5697,87.0,24.0,20.0,2.0,0.0
5698,85.0,0.0,90.0,4.0,0.0
5699,85.0,24.0,20.0,2.0,0.0
5700,85.0,0.0,60.0,0.0,0.0
5701,87.0,24.0,20.0,2.0,0.0
5702,85.0,0.0,20.0,2.0,0.0
5703,80.0,24.0,60.0,0.0,0.0
5704,76.0,0.0,90.0,5.0,0.0
5705,64.0,6.0,150.0,1.0,0.0
5706,80.0,24.0,90.0,3.0,0.0
5707,87.0,24.0,20.0,2.0,0.0
5708,85.0,0.0,20.0,2.0,0.0
5709,85.0,24.0,20.0,0.0,0.0
5710,87.0,0.0,20.0,2.0,0.0
5711,85.0,0.0,20.0,2.0,0.0
5712,87.0,0.0,20.0,0.0,0.0
5713,87.0,24.0,20.0,2.0,0.0
5714,88.0,18.0,60.0,0.0,0.0
5715,76.0,24.0,90.0,5.0,0.0
5716,80.0,0.0,90.0,4.0,0.0
5717,80.0,0.0,90.0,3.0,0.0
5718,85.0,0.0,20.0,2.0,0.0
5719,87.0,24.0,20.0,2.0,0.0
5720,85.0,0.0,60.0,0.0,0.0
5721,85.0,0.0,20.0,2.0,0.0
5722,76.0,0.0,90.0,5.0,0.0
5723,84.0,0.0,90.0,4.0,0.0
5724,87.0,24.0,20.0,2.0,0.0
5725,88.0,0.0,60.0,0.0,0.0
5726,80.0,24.0,90.0,3.0,0.0
5727,85.0,24.0,20.0,2.0,0.0
5728,85.0,0.0,60.0,0.0,0.0
5729,87.0,24.0,20.0,2.0,0.0
5730,85.0,0.0,20.0,2.0,0.0
5731,64.0,0.0,90.0,1.0,0.0
5732,87.0,24.0,20.0,2.0,0.0
5733,76.0,24.0,90.0,5.0,0.0
5734,85.0,0.0,90.0,4.0,0.0
5735,88.0,24.0,60.0,0.0,0.0
5736,80.0,0.0,90.0,3.0,0.0
5737,85.0,0.0,20.0,2.0,0.0
5738,85.0,0.0,60.0,0.0,0.0
5739,87.0,24.0,20.0,2.0,0.0
5740,85.0,0.0,20.0,2.0,0.0
5741,81.0,24.0,60.0,0.0,0.0
5742,66.0,6.0,150.0,1.0,0.0
5743,81.0,0.0,90.0,3.0,0.0
5744,87.0,24.0,20.0,2.0,0.0
5745,78.0,0.0,90.0,5.0,0.0
5746,85.0,0.0,20.0,2.0,0.0
5747,85.0,0.0,20.0,0.0,0.0
5748,87.0,24.0,20.0,2.0,0.0
5749,85.0,0.0,20.0,2.0,0.0
5750,87.0,24.0,20.0,0.0,0.0
5751,78.0,0.0,90.0,5.0,0.0
5752,81.0,0.0,90.0,3.0,0.0
5753,88.0,0.0,60.0,0.0,0.0
5754,87.0,24.0,20.0,2.0,0.0
5755,81.0,24.0,90.0,4.0,0.0
5756,85.0,18.0,20.0,2.0,0.0
5757,87.0,24.0,20.0,2.0,0.0
5758,85.0,0.0,60.0,0.0,0.0
5759,85.0,0.0,20.0,2.0,0.0
5760,88.0,24.0,60.0,0.0,0.0
5761,87.0,24.0,20.0,2.0,0.0
5762,84.0,0.0,90.0,4.0,0.0
5763,78.0,0.0,90.0,5.0,0.0
5764,81.0,24.0,90.0,3.0,0.0
5765,85.0,0.0,20.0,2.0,0.0
5766,87.0,24.0,20.0,2.0,0.0
5767,85.0,0.0,60.0,0.0,0.0
5768,85.0,0.0,20.0,2.0,0.0
5769,85.0,0.0,90.0,4.0,0.0
5770,66.0,0.0,90.0,1.0,0.0
5771,78.0,0.0,90.0,5.0,0.0
5772,81.0,0.0,90.0,3.0,0.0
5773,88.0,24.0,60.0,0.0,0.0
5774,87.0,24.0,20.0,2.0,0.0
5775,85.0,0.0,20.0,2.0,0.0
5776,85.0,24.0,60.0,0.0,0.0
5777,87.0,24.0,20.0,2.0,0.0
5778,85.0,0.0,20.0,2.0,0.0
5779,76.0,24.0,60.0,0.0,0.0
5780,64.0,6.0,150.0,1.0,0.0
5781,76.0,0.0,90.0,3.0,0.0
5782,61.0,0.0,150.0,1.0,0.0
5783,73.0,24.0,90.0,5.0,0.0
5784,87.0,24.0,20.0,2.0,0.0
5785,85.0,0.0,20.0,2.0,0.0
5786,87.0,24.0,20.0,2.0,0.0
5787,85.0,0.0,60.0,0.0,0.0
5788,85.0,0.0,20.0,2.0,0.0
5789,87.0,24.0,20.0,2.0,0.0
5790,76.0,0.0,90.0,3.0,0.0
5791,76.0,18.0,60.0,4.0,0.0
5792,73.0,0.0,90.0,5.0,0.0
5793,88.0,0.0,60.0,0.0,0.0
5794,85.0,0.0,20.0,2.0,0.0
5795,87.0,24.0,20.0,2.0,0.0
5796,84.0,0.0,60.0,0.0,0.0
5797,78.0,24.0,60.0,4.0,0.0
5798,85.0,0.0,20.0,2.0,0.0
5799,73.0,0.0,90.0,5.0,0.0
5800,85.0,24.0,60.0,0.0,0.0
5801,76.0,0.0,90.0,3.0,0.0
5802,80.0,24.0,90.0,4.0,0.0
5803,87.0,24.0,20.0,2.0,0.0
5804,85.0,0.0,20.0,2.0,0.0
5805,87.0,24.0,20.0,2.0,0.0
5806,80.0,0.0,60.0,0.0,0.0
5807,85.0,0.0,20.0,2.0,0.0
5808,85.0,0.0,90.0,4.0,0.0
5809,87.0,24.0,20.0,2.0,0.0
5810,73.0,0.0,90.0,5.0,0.0
5811,76.0,24.0,60.0,0.0,0.0
5812,76.0,0.0,90.0,3.0,0.0
5813,85.0,0.0,20.0,2.0,0.0
5814,87.0,24.0,20.0,2.0,0.0
5815,73.0,0.0,60.0,0.0,0.0
5816,85.0,24.0,20.0,2.0,0.0
5817,75.0,0.0,90.0,5.0,0.0
5818,66.0,0.0,150.0,1.0,0.0
5819,63.0,6.0,150.0,1.0,0.0
5820,78.0,0.0,90.0,3.0,0.0
5821,87.0,24.0,20.0,2.0,0.0
5822,85.0,24.0,20.0,2.0,0.0
5823,85.0,24.0,60.0,0.0,0.0
5824,87.0,24.0,20.0,2.0,0.0
5825,85.0,0.0,20.0,2.0,0.0
5826,78.0,0.0,60.0,4.0,0.0
5827,88.0,0.0,60.0,0.0,0.0
5828,87.0,24.0,20.0,2.0,0.0
5829,75.0,0.0,90.0,5.0,0.0
5830,78.0,0.0,90.0,3.0,0.0
5831,85.0,18.0,20.0,2.0,0.0
5832,84.0,24.0,60.0,0.0,0.0
5833,87.0,24.0,20.0,2.0,0.0
5834,80.0,0.0,60.0,4.0,0.0
5835,85.0,0.0,20.0,2.0,0.0
5836,81.0,0.0,90.0,4.0,0.0
5837,87.0,24.0,20.0,2.0,0.0
5838,75.0,24.0,90.0,5.0,0.0
5839,85.0,24.0,60.0,0.0,0.0
5840,78.0,0.0,90.0,3.0,0.0
5841,85.0,0.0,20.0,2.0,0.0
5842,81.0,0.0,60.0,0.0,0.0
5843,87.0,24.0,20.0,2.0,0.0
5844,85.0,0.0,20.0,2.0,0.0
5845,87.0,24.0,20.0,2.0,0.0
5846,85.0,0.0,90.0,4.0,0.0
5847,78.0,0.0,60.0,0.0,0.0
5848,78.0,24.0,90.0,3.0,0.0
5849,75.0,0.0,90.0,5.0,0.0
5850,85.0,24.0,20.0,2.0,0.0
5851,87.0,24.0,20.0,2.0,0.0
5852,75.0,0.0,60.0,0.0,0.0
5853,85.0,0.0,20.0,2.0,0.0
5854,87.0,24.0,20.0,2.0,0.0
5855,64.0,0.0,150.0,1.0,0.0
5856,76.0,0.0,90.0,5.0,0.0
5857,68.0,6.0,150.0,1.0,0.0
5858,80.0,0.0,90.0,3.0,0.0
5859,85.0,24.0,20.0,2.0,0.0
5860,87.0,24.0,20.0,2.0,0.0
5861,85.0,24.0,60.0,0.0,0.0
5862,85.0,0.0,20.0,2.0,0.0
5863,80.0,24.0,90.0,3.0,0.0
5864,80.0,18.0,60.0,4.0,0.0
5865,76.0,0.0,90.0,5.0,0.0
5866,88.0,0.0,60.0,0.0,0.0
5867,87.0,24.0,20.0,2.0,0.0
5868,85.0,0.0,20.0,2.0,0.0
5869,84.0,0.0,60.0,0.0,0.0
5870,87.0,24.0,20.0,2.0,0.0
5871,78.0,0.0,60.0,4.0,0.0
5872,85.0,0.0,20.0,2.0,0.0
5873,80.0,24.0,90.0,4.0,0.0
5874,85.0,24.0,60.0,0.0,0.0
5875,87.0,24.0,20.0,2.0,0.0
5876,76.0,0.0,90.0,5.0,0.0
5877,80.0,0.0,90.0,3.0,0.0
5878,85.0,0.0,20.0,2.0,0.0
5879,87.0,24.0,20.0,2.0,0.0
5880,80.0,0.0,60.0,0.0,0.0
5881,85.0,0.0,20.0,2.0,0.0
5882,76.0,0.0,90.0,5.0,0.0
5883,80.0,0.0,90.0,3.0,0.0
5884,76.0,24.0,60.0,0.0,0.0
5885,85.0,0.0,90.0,4.0,0.0
5886,87.0,24.0,20.0,2.0,0.0
5887,85.0,0.0,20.0,2.0,0.0
5888,73.0,0.0,60.0,0.0,0.0
5889,87.0,24.0,20.0,2.0,0.0
5890,85.0,24.0,20.0,2.0,0.0
5891,81.0,0.0,90.0,3.0,0.0
5892,87.0,24.0,20.0,2.0,0.0
5893,78.0,24.0,90.0,5.0,0.0
5894,66.0,0.0,150.0,1.0,0.0
5895,69.0,6.0,150.0,1.0,0.0
5896,85.0,24.0,20.0,2.0,0.0
5897,87.0,24.0,20.0,2.0,0.0
5898,85.0,0.0,60.0,0.0,0.0
5899,85.0,0.0,20.0,2.0,0.0
5900,87.0,24.0,20.0,2.0,0.0
5901,80.0,0.0,60.0,4.0,0.0
5902,88.0,18.0,60.0,0.0,0.0
5903,81.0,24.0,90.0,3.0,0.0
5904,78.0,0.0,90.0,5.0,0.0
5905,85.0,0.0,20.0,2.0,0.0
5906,78.0,0.0,60.0,4.0,0.0
5907,87.0,24.0,20.0,2.0,0.0
5908,84.0,0.0,60.0,0.0,0.0
5909,85.0,0.0,20.0,2.0,0.0
5910,87.0,24.0,20.0,2.0,0.0
5911,78.0,0.0,90.0,5.0,0.0
5912,80.0,24.0,90.0,4.0,0.0
5913,81.0,0.0,90.0,3.0,0.0
5914,85.0,0.0,60.0,0.0,0.0
5915,85.0,24.0,20.0,2.0,0.0
5916,87.0,24.0,20.0,2.0,0.0
5917,81.0,0.0,60.0,0.0,0.0
5918,85.0,0.0,20.0,2.0,0.0
5919,85.0,0.0,90.0,4.0,0.0
5920,87.0,24.0,20.0,2.0,0.0
5921,81.0,0.0,90.0,3.0,0.0
5922,78.0,0.0,90.0,5.0,0.0
5923,78.0,0.0,60.0,0.0,0.0
5924,85.0,24.0,20.0,2.0,0.0
5925,75.0,0.0,60.0,0.0,0.0
5926,87.0,24.0,20.0,2.0,0.0
5927,85.0,24.0,20.0,2.0,0.0
5928,73.0,24.0,90.0,5.0,0.0
5929,68.0,24.0,60.0,0.0,0.0
5930,76.0,0.0,90.0,3.0,0.0
5931,76.0,0.0,60.0,0.0,0.0
5932,87.0,24.0,20.0,2.0,0.0
5933,85.0,0.0,20.0,2.0,0.0
5934,61.0,0.0,20.0,1.0,0.0
5935,63.0,0.0,20.0,1.0,0.0
5936,87.0,24.0,20.0,2.0,0.0
5937,85.0,0.0,20.0,2.0,0.0
5938,64.0,0.0,20.0,1.0,0.0
5939,80.0,24.0,60.0,4.0,0.0
5940,66.0,0.0,20.0,1.0,0.0
5941,87.0,24.0,20.0,2.0,0.0
5942,76.0,24.0,90.0,3.0,0.0
5943,73.0,0.0,90.0,5.0,0.0
5944,85.0,0.0,20.0,2.0,0.0
5945,68.0,0.0,20.0,1.0,0.0
5946,70.0,0.0,20.0,1.0,0.0
5947,78.0,0.0,60.0,4.0,0.0
5948,87.0,24.0,20.0,2.0,0.0
5949,72.0,0.0,20.0,1.0,0.0
5950,85.0,0.0,20.0,2.0,0.0
5951,87.0,0.0,20.0,2.0,0.0
5952,73.0,24.0,90.0,5.0,0.0
5953,73.0,24.0,20.0,0.0,0.0
5954,76.0,0.0,90.0,3.0,0.0
5955,80.0,0.0,90.0,4.0,0.0
5956,85.0,24.0,20.0,2.0,0.0
5957,75.0,0.0,20.0,0.0,0.0
5958,76.0,0.0,20.0,0.0,0.0
5959,87.0,24.0,20.0,2.0,0.0
5960,78.0,0.0,20.0,0.0,0.0
5961,85.0,0.0,20.0,2.0,0.0
5962,76.0,0.0,90.0,3.0,0.0
5963,80.0,24.0,20.0,0.0,0.0
5964,73.0,0.0,90.0,5.0,0.0
5965,87.0,0.0,20.0,2.0,0.0
5966,88.0,0.0,90.0,4.0,0.0
5967,85.0,0.0,20.0,2.0,0.0
5968,82.0,24.0,20.0,0.0,0.0
5969,87.0,0.0,20.0,2.0,0.0
5970,84.0,24.0,20.0,0.0,0.0
5971,85.0,0.0,20.0,0.0,0.0
5972,85.0,24.0,20.0,2.0,0.0
5973,69.0,0.0,60.0,0.0,0.0
5974,78.0,24.0,60.0,0.0,0.0
5975,78.0,24.0,90.0,3.0,0.0
5976,87.0,24.0,20.0,2.0,0.0
5977,75.0,0.0,90.0,5.0,0.0
5978,85.0,0.0,20.0,2.0,0.0
5979,87.0,0.0,20.0,2.0,0.0
5980,63.0,24.0,20.0,1.0,0.0
5981,64.0,0.0,20.0,1.0,0.0
5982,85.0,0.0,20.0,2.0,0.0
5983,78.0,24.0,60.0,4.0,0.0
5984,78.0,0.0,90.0,3.0,0.0
5985,75.0,0.0,90.0,5.0,0.0
5986,87.0,0.0,20.0,2.0,0.0
5987,66.0,24.0,20.0,1.0,0.0
5988,68.0,0.0,20.0,1.0,0.0
5989,85.0,0.0,20.0,2.0,0.0
5990,70.0,24.0,20.0,1.0,0.0
5991,87.0,0.0,20.0,2.0,0.0
5992,76.0,24.0,60.0,4.0,0.0
5993,72.0,0.0,20.0,1.0,0.0
5994,85.0,0.0,20.0,2.0,0.0
5995,87.0,0.0,20.0,2.0,0.0
5996,75.0,24.0,90.0,5.0,0.0
5997,78.0,0.0,90.0,3.0,0.0
5998,78.0,0.0,90.0,4.0,0.0
5999,73.0,24.0,20.0,0.0,0.0
6000,75.0,0.0,20.0,0.0,0.0
6001,85.0,24.0,20.0,2.0,0.0
6002,76.0,24.0,20.0,0.0,0.0
6003,87.0,0.0,20.0,2.0,0.0
6004,78.0,0.0,20.0,0.0,0.0
6005,85.0,0.0,20.0,2.0,0.0
6006,87.0,0.0,20.0,2.0,0.0
6007,87.0,0.0,90.0,4.0,0.0
6008,75.0,0.0,90.0,5.0,0.0
6009,78.0,24.0,90.0,3.0,0.0
6010,80.0,24.0,20.0,0.0,0.0
6011,82.0,0.0,20.0,0.0,0.0
6012,85.0,24.0,20.0,2.0,0.0
6013,87.0,24.0,20.0,2.0,0.0
6014,84.0,0.0,20.0,0.0,0.0
6015,85.0,0.0,20.0,0.0,0.0
6016,85.0,0.0,20.0,2.0,0.0
6017,75.0,0.0,90.0,3.0,0.0
6018,68.0,0.0,60.0,1.0,0.0
6019,75.0,0.0,60.0,1.0,0.0
6020,87.0,24.0,20.0,2.0,0.0
6021,68.0,0.0,90.0,5.0,0.0
6022,85.0,0.0,20.0,0.0,0.0
6023,85.0,24.0,20.0,2.0,0.0
6024,87.0,0.0,20.0,2.0,0.0
6025,84.0,24.0,20.0,0.0,0.0
6026,82.0,0.0,20.0,0.0,0.0
6027,85.0,24.0,20.0,2.0,0.0
6028,68.0,0.0,90.0,5.0,0.0
6029,75.0,0.0,90.0,3.0,0.0
6030,87.0,0.0,20.0,2.0,0.0
6031,78.0,0.0,60.0,4.0,0.0
6032,84.0,24.0,20.0,0.0,0.0
6033,85.0,0.0,20.0,2.0,0.0
6034,85.0,24.0,20.0,0.0,0.0
6035,84.0,0.0,60.0,2.0,0.0
6036,76.0,0.0,60.0,4.0,0.0
6037,87.0,24.0,20.0,0.0,0.0
6038,85.0,24.0,20.0,0.0,0.0
6039,84.0,0.0,20.0,0.0,0.0
6040,85.0,24.0,20.0,2.0,0.0
6041,78.0,24.0,90.0,4.0,0.0
6042,75.0,0.0,90.0,3.0,0.0
6043,68.0,0.0,90.0,5.0,0.0
6044,84.0,0.0,20.0,2.0,0.0
6045,82.0,24.0,20.0,0.0,0.0
6046,80.0,0.0,20.0,0.0,0.0
6047,85.0,24.0,20.0,2.0,0.0
6048,85.0,0.0,20.0,0.0,0.0
6049,84.0,0.0,20.0,2.0,0.0
6050,85.0,24.0,20.0,2.0,0.0
6051,87.0,0.0,90.0,4.0,0.0
6052,84.0,0.0,20.0,0.0,0.0
6053,68.0,0.0,90.0,5.0,0.0
6054,75.0,0.0,90.0,3.0,0.0
6055,82.0,0.0,20.0,0.0,0.0
6056,84.0,24.0,20.0,2.0,0.0
6057,85.0,96.0,60.0,2.0,0.0
6058,80.0,24.0,20.0,0.0,0.0
6059,78.0,0.0,20.0,0.0,0.0
6060,61.0,0.0,90.0,0.0,0.0
6061,73.0,0.0,90.0,0.0,0.0
6062,76.0,0.0,90.0,0.0,0.0
6063,64.0,30.0,150.0,10.0,0.0
6064,61.0,0.0,90.0,5.0,0.0
6065,61.0,0.0,150.0,11.0,0.0
6066,85.0,0.0,90.0,2.0,0.0
6067,73.0,46.0,1500.0,8.0,0.0
6068,85.0,0.0,90.0,4.0,0.0
6069,76.0,0.0,90.0,3.0,0.0
6070,64.0,0.0,90.0,7.0,0.0
6071,61.0,0.0,90.0,7.0,0.0
6072,73.0,48.0,60.0,6.0,0.0
6073,75.0,18.0,60.0,6.0,0.0
6074,61.0,0.0,90.0,7.0,0.0
6075,64.0,0.0,90.0,7.0,0.0
6076,76.0,48.0,60.0,6.0,0.0
6077,61.0,48.0,90.0,7.0,0.0
6078,64.0,0.0,90.0,7.0,0.0
6079,75.0,48.0,60.0,6.0,0.0
6080,73.0,0.0,60.0,6.0,0.0
6081,61.0,0.0,90.0,7.0,0.0
6082,64.0,0.0,90.0,7.0,0.0
6083,72.0,48.0,60.0,6.0,0.0
6084,73.0,96.0,60.0,6.0,0.0
6085,66.0,48.0,90.0,7.0,0.0
6086,66.0,0.0,150.0,10.0,0.0
6087,63.0,30.0,150.0,11.0,0.0
6088,63.0,0.0,90.0,7.0,0.0
6089,73.0,0.0,60.0,6.0,0.0
6090,63.0,0.0,90.0,7.0,0.0
6091,66.0,48.0,90.0,7.0,0.0
6092,75.0,18.0,60.0,6.0,0.0
6093,76.0,0.0,60.0,6.0,0.0
6094,75.0,48.0,60.0,6.0,0.0
6095,66.0,0.0,90.0,7.0,0.0
6096,63.0,0.0,90.0,7.0,0.0
6097,73.0,48.0,60.0,6.0,0.0
6098,63.0,0.0,90.0,7.0,0.0
6099,66.0,0.0,90.0,7.0,0.0
6100,72.0,48.0,60.0,6.0,0.0
6101,73.0,96.0,60.0,6.0,0.0
6102,64.0,0.0,90.0,7.0,0.0
6103,68.0,0.0,90.0,7.0,0.0
6104,64.0,30.0,150.0,11.0,0.0
6105,68.0,0.0,150.0,10.0,0.0
6106,73.0,48.0,60.0,6.0,0.0
6107,75.0,18.0,60.0,6.0,0.0
6108,68.0,0.0,90.0,7.0,0.0
6109,64.0,0.0,90.0,7.0,0.0
6110,76.0,48.0,60.0,6.0,0.0
6111,75.0,48.0,60.0,6.0,0.0
6112,68.0,0.0,90.0,7.0,0.0
6113,64.0,0.0,90.0,7.0,0.0
6114,73.0,48.0,60.0,6.0,0.0
6115,64.0,0.0,90.0,7.0,0.0
6116,68.0,0.0,90.0,7.0,0.0
6117,72.0,48.0,60.0,6.0,0.0
6118,73.0,96.0,60.0,6.0,0.0
6119,69.0,0.0,150.0,10.0,0.0
6120,66.0,30.0,150.0,11.0,0.0
6121,69.0,0.0,90.0,7.0,0.0
6122,66.0,0.0,90.0,7.0,0.0
6123,73.0,48.0,60.0,6.0,0.0
6124,66.0,0.0,90.0,7.0,0.0
6125,69.0,0.0,90.0,7.0,0.0
6126,75.0,18.0,60.0,6.0,0.0
6127,76.0,48.0,60.0,6.0,0.0
6128,75.0,48.0,60.0,6.0,0.0
6129,66.0,0.0,90.0,7.0,0.0
6130,69.0,0.0,90.0,7.0,0.0
6131,73.0,48.0,60.0,6.0,0.0
6132,69.0,0.0,90.0,7.0,0.0
6133,66.0,48.0,90.0,7.0,0.0
6134,72.0,2.0,60.0,6.0,0.0
6135,73.0,0.0,60.0,6.0,0.0
6136,80.0,0.0,60.0,6.0,0.0
6137,61.0,48.0,60.0,7.0,0.0
6138,85.0,0.0,60.0,6.0,0.0
6139,64.0,48.0,60.0,7.0,0.0
6140,61.0,48.0,60.0,7.0,0.0
6141,88.0,0.0,150.0,6.0,0.0
6142,64.0,2.0,60.0,7.0,0.0
6143,76.0,0.0,15.0,8.0,0.0
6144,61.0,48.0,60.0,7.0,0.0
6145,61.0,0.0,15.0,11.0,0.0
6146,68.0,46.0,15.0,10.0,0.0
6147,64.0,2.0,60.0,7.0,0.0
6148,85.0,0.0,60.0,6.0,0.0
6149,61.0,46.0,15.0,11.0,0.0
6150,81.0,0.0,60.0,6.0,0.0
6151,73.0,0.0,90.0,10.0,0.0
6152,76.0,48.0,90.0,8.0,0.0
6153,61.0,48.0,60.0,7.0,0.0
6154,80.0,0.0,60.0,6.0,0.0
6155,64.0,0.0,60.0,7.0,0.0
6156,63.0,0.0,60.0,7.0,0.0
6157,78.0,48.0,60.0,6.0,0.0
6158,66.0,48.0,60.0,7.0,0.0
6159,84.0,0.0,60.0,6.0,0.0
6160,72.0,0.0,90.0,10.0,0.0
6161,87.0,48.0,150.0,6.0,0.0
6162,63.0,48.0,60.0,7.0,0.0
6163,66.0,2.0,60.0,7.0,0.0
6164,78.0,0.0,15.0,8.0,0.0
6165,63.0,46.0,15.0,11.0,0.0
6166,63.0,0.0,60.0,7.0,0.0
6167,72.0,0.0,90.0,10.0,0.0
6168,66.0,0.0,60.0,7.0,0.0
6169,84.0,2.0,60.0,6.0,0.0
6170,63.0,0.0,90.0,11.0,0.0
6171,72.0,0.0,90.0,10.0,0.0
6172,78.0,48.0,90.0,8.0,0.0
6173,63.0,0.0,60.0,7.0,0.0
6174,80.0,48.0,60.0,6.0,0.0
6175,66.0,0.0,60.0,7.0,0.0
6176,78.0,0.0,60.0,6.0,0.0
6177,64.0,0.0,60.0,7.0,0.0
6178,80.0,48.0,60.0,6.0,0.0
6179,68.0,0.0,60.0,7.0,0.0
6180,76.0,48.0,60.0,6.0,0.0
6181,80.0,0.0,90.0,8.0,0.0
6182,64.0,48.0,60.0,7.0,0.0
6183,85.0,0.0,150.0,6.0,0.0
6184,64.0,0.0,90.0,11.0,0.0
6185,68.0,2.0,60.0,7.0,0.0
6186,64.0,48.0,60.0,7.0,0.0
6187,73.0,46.0,15.0,10.0,0.0
6188,80.0,0.0,90.0,8.0,0.0
6189,68.0,0.0,60.0,7.0,0.0
6190,80.0,2.0,60.0,6.0,0.0
6191,64.0,46.0,15.0,11.0,0.0
6192,80.0,0.0,90.0,8.0,0.0
6193,73.0,0.0,90.0,10.0,0.0
6194,78.0,48.0,60.0,6.0,0.0
6195,64.0,0.0,60.0,7.0,0.0
6196,76.0,0.0,60.0,6.0,0.0
6197,68.0,0.0,60.0,7.0,0.0
6198,66.0,0.0,60.0,7.0,0.0
6199,75.0,48.0,60.0,6.0,0.0
6200,69.0,48.0,60.0,7.0,0.0
6201,73.0,0.0,60.0,6.0,0.0
6202,72.0,48.0,60.0,6.0,0.0
6203,81.0,0.0,90.0,8.0,0.0
6204,66.0,0.0,60.0,7.0,0.0
6205,69.0,2.0,60.0,7.0,0.0
6206,73.0,0.0,60.0,6.0,0.0
6207,72.0,0.0,15.0,10.0,0.0
6208,66.0,46.0,15.0,11.0,0.0
6209,81.0,0.0,90.0,8.0,0.0
6210,66.0,48.0,60.0,7.0,0.0
6211,75.0,0.0,60.0,6.0,0.0
6212,78.0,0.0,60.0,6.0,0.0
6213,69.0,2.0,60.0,7.0,0.0
6214,66.0,0.0,60.0,7.0,0.0
6215,72.0,0.0,90.0,10.0,0.0
6216,66.0,46.0,15.0,11.0,0.0
6217,76.0,48.0,60.0,6.0,0.0
6218,81.0,0.0,90.0,8.0,0.0
6219,69.0,48.0,60.0,7.0,0.0
6220,75.0,0.0,60.0,6.0,0.0
6221,76.0,48.0,60.0,6.0,0.0
6222,61.0,0.0,60.0,7.0,0.0
6223,73.0,0.0,60.0,6.0,0.0
6224,64.0,48.0,60.0,7.0,0.0
6225,64.0,0.0,90.0,11.0,0.0
6226,68.0,0.0,60.0,6.0,0.0
6227,73.0,0.0,90.0,10.0,0.0
6228,61.0,48.0,60.0,7.0,0.0
6229,80.0,46.0,90.0,8.0,0.0
6230,64.0,2.0,60.0,7.0,0.0
6231,73.0,0.0,60.0,6.0,0.0
6232,61.0,0.0,90.0,11.0,0.0
6233,61.0,48.0,60.0,7.0,0.0
6234,76.0,0.0,90.0,8.0,0.0
6235,76.0,0.0,60.0,6.0,0.0
6236,73.0,0.0,60.0,6.0,0.0
6237,64.0,2.0,60.0,7.0,0.0
6238,61.0,48.0,60.0,7.0,0.0
6239,76.0,48.0,90.0,8.0,0.0
6240,68.0,0.0,60.0,6.0,0.0
6241,73.0,46.0,15.0,10.0,0.0
6242,61.0,0.0,90.0,11.0,0.0
6243,64.0,0.0,60.0,7.0,0.0
6244,73.0,0.0,60.0,6.0,0.0
6245,73.0,16.0,330.0,10.0,0.0
6246,75.0,16.0,720.0,8.0,0.0
6247,55.0,0.0,90.0,7.0,0.0
6248,55.0,30.0,150.0,11.0,0.0
6249,75.0,48.0,60.0,6.0,0.0
6250,73.0,48.0,60.0,6.0,0.0
6251,63.0,48.0,90.0,7.0,0.0
6252,70.0,18.0,60.0,6.0,0.0
6253,73.0,0.0,60.0,6.0,0.0
6254,75.0,48.0,60.0,6.0,0.0
6255,55.0,48.0,90.0,7.0,0.0
6256,67.0,30.0,150.0,11.0,0.0
6257,73.0,0.0,60.0,6.0,0.0
6258,70.0,2.0,60.0,6.0,0.0
6259,63.0,0.0,90.0,7.0,0.0
6260,73.0,48.0,60.0,6.0,0.0
6261,68.0,30.0,150.0,11.0,0.0
6262,56.0,0.0,90.0,7.0,0.0
6263,75.0,48.0,60.0,6.0,0.0
6264,72.0,0.0,330.0,10.0,0.0
6265,72.0,48.0,60.0,6.0,0.0
6266,68.0,18.0,60.0,6.0,0.0
6267,66.0,48.0,90.0,7.0,0.0
6268,72.0,0.0,60.0,6.0,0.0
6269,75.0,48.0,60.0,6.0,0.0
6270,56.0,30.0,150.0,11.0,0.0
6271,56.0,0.0,90.0,7.0,0.0
6272,72.0,48.0,60.0,6.0,0.0
6273,68.0,2.0,60.0,6.0,0.0
6274,66.0,0.0,90.0,7.0,0.0
6275,72.0,48.0,60.0,6.0,0.0
6276,52.0,0.0,150.0,5.0,0.0
6277,49.0,0.0,150.0,1.0,0.0
6278,56.0,0.0,150.0,1.0,0.0
6279,61.0,0.0,150.0,1.0,0.0
6280,73.0,0.0,60.0,8.0,0.0
6281,52.0,0.0,150.0,1.0,0.0
6282,73.0,0.0,60.0,10.0,0.0
6283,76.0,0.0,150.0,0.0,0.0
6284,68.0,0.0,150.0,0.0,0.0
6285,49.0,0.0,150.0,5.0,0.0
6286,73.0,0.0,150.0,0.0,0.0
6287,56.0,0.0,150.0,5.0,0.0
6288,61.0,0.0,150.0,5.0,0.0
6289,80.0,0.0,150.0,4.0,0.0
6290,76.0,0.0,150.0,4.0,0.0
6291,76.0,0.0,150.0,2.0,0.0
6292,49.0,0.0,150.0,12.0,0.0
6293,64.0,0.0,150.0,3.0,0.0
6294,61.0,0.0,150.0,3.0,0.0
6295,61.0,0.0,150.0,7.0,0.0
6296,64.0,48.0,60.0,11.0,0.0
6297,68.0,0.0,150.0,6.0,0.0
6298,73.0,0.0,150.0,6.0,0.0
6299,73.0,0.0,150.0,2.0,0.0
6300,64.0,0.0,150.0,7.0,0.0
6301,68.0,30.0,150.0,2.0,0.0
6302,73.0,0.0,150.0,4.0,0.0
6303,80.0,0.0,150.0,0.0,0.0
6304,68.0,0.0,150.0,4.0,0.0
6305,76.0,0.0,150.0,6.0,0.0
6306,68.0,48.0,60.0,10.0,0.0
6307,68.0,0.0,60.0,8.0,0.0
6308,68.0,0.0,60.0,11.0,0.0
6309,64.0,0.0,60.0,10.0,0.0
6310,64.0,18.0,60.0,8.0,0.0
6311,64.0,0.0,60.0,11.0,0.0
6312,68.0,96.0,60.0,11.0,0.0
6313,68.0,0.0,60.0,8.0,0.0
6314,68.0,0.0,60.0,10.0,0.0
6315,61.0,0.0,90.0,11.0,0.0
6316,61.0,0.0,90.0,10.0,0.0
6317,61.0,96.0,90.0,8.0,0.0
6318,80.0,0.0,90.0,8.0,0.0
6319,61.0,0.0,90.0,5.0,0.0
6320,80.0,0.0,90.0,10.0,0.0
6321,61.0,0.0,90.0,12.0,0.0
6322,61.0,0.0,90.0,3.0,0.0
6323,80.0,48.0,90.0,0.0,0.0
6324,76.0,0.0,90.0,2.0,0.0
6325,64.0,0.0,90.0,11.0,0.0
6326,80.0,0.0,90.0,4.0,0.0
6327,61.0,0.0,90.0,1.0,0.0
6328,73.0,0.0,90.0,6.0,0.0
6329,76.0,0.0,90.0,10.0,0.0
6330,61.0,0.0,90.0,3.0,0.0
6331,49.0,0.0,90.0,1.0,0.0
6332,76.0,48.0,60.0,2.0,0.0
6333,80.0,0.0,60.0,6.0,0.0
6334,80.0,0.0,90.0,0.0,0.0
6335,49.0,0.0,90.0,5.0,0.0
6336,49.0,0.0,90.0,12.0,0.0
6337,68.0,0.0,90.0,11.0,0.0
6338,76.0,0.0,90.0,4.0,0.0
6339,80.0,0.0,90.0,8.0,0.0
6340,78.0,48.0,60.0,6.0,0.0
6341,73.0,0.0,60.0,2.0,0.0
6342,64.0,50.0,90.0,7.0,0.0
6343,61.0,0.0,90.0,5.0,0.0
6344,73.0,0.0,90.0,4.0,0.0
6345,76.0,48.0,60.0,2.0,0.0
6346,73.0,0.0,90.0,10.0,0.0
6347,64.0,0.0,90.0,11.0,0.0
6348,61.0,0.0,90.0,12.0,0.0
6349,80.0,0.0,90.0,8.0,0.0
6350,68.0,0.0,90.0,3.0,0.0
6351,61.0,0.0,90.0,1.0,0.0
6352,80.0,0.0,90.0,0.0,0.0
6353,80.0,0.0,90.0,6.0,0.0
6354,80.0,0.0,60.0,2.0,0.0
6355,80.0,46.0,60.0,2.0,0.0
6356,80.0,0.0,90.0,0.0,0.0
6357,80.0,0.0,90.0,8.0,0.0
6358,60.0,0.0,90.0,12.0,0.0
6359,60.0,0.0,90.0,1.0,0.0
6360,60.0,0.0,90.0,5.0,0.0
6361,63.0,48.0,90.0,11.0,0.0
6362,63.0,0.0,90.0,7.0,0.0
6363,78.0,0.0,60.0,2.0,0.0
6364,72.0,0.0,60.0,6.0,0.0
6365,56.0,0.0,90.0,5.0,0.0
6366,56.0,0.0,90.0,12.0,0.0
6367,60.0,0.0,90.0,11.0,0.0
6368,80.0,0.0,90.0,0.0,0.0
6369,56.0,0.0,90.0,1.0,0.0
6370,80.0,0.0,90.0,8.0,0.0
6371,80.0,0.0,90.0,10.0,0.0
6372,80.0,0.0,90.0,2.0,0.0
6373,80.0,0.0,90.0,4.0,0.0
6374,60.0,48.0,90.0,7.0,0.0
6375,60.0,0.0,90.0,3.0,0.0
6376,75.0,48.0,60.0,6.0,0.0
6377,80.0,0.0,60.0,6.0,0.0
6378,85.0,0.0,90.0,8.0,0.0
6379,85.0,0.0,90.0,0.0,0.0
6380,80.0,48.0,60.0,6.0,0.0
6381,76.0,0.0,90.0,10.0,0.0
6382,61.0,0.0,90.0,3.0,0.0
6383,76.0,48.0,90.0,4.0,0.0
6384,78.0,0.0,60.0,6.0,0.0
6385,73.0,0.0,60.0,2.0,0.0
6386,61.0,0.0,90.0,12.0,0.0
6387,80.0,0.0,90.0,6.0,0.0
6388,73.0,50.0,90.0,10.0,0.0
6389,80.0,0.0,90.0,0.0,0.0
6390,73.0,0.0,90.0,4.0,0.0
6391,80.0,0.0,90.0,8.0,0.0
6392,61.0,0.0,90.0,1.0,0.0
6393,61.0,0.0,90.0,5.0,0.0
6394,76.0,48.0,60.0,2.0,0.0
6395,64.0,0.0,90.0,7.0,0.0
6396,49.0,0.0,90.0,3.0,0.0
6397,64.0,0.0,90.0,11.0,0.0
6398,80.0,0.0,60.0,2.0,0.0
6399,60.0,0.0,90.0,5.0,0.0
6400,60.0,0.0,90.0,1.0,0.0
6401,60.0,0.0,90.0,12.0,0.0
6402,63.0,48.0,90.0,7.0,0.0
6403,80.0,0.0,90.0,8.0,0.0
6404,80.0,0.0,90.0,0.0,0.0
6405,80.0,46.0,60.0,2.0,0.0
6406,63.0,0.0,90.0,11.0,0.0
6407,72.0,0.0,60.0,6.0,0.0
6408,78.0,0.0,60.0,2.0,0.0
6409,56.0,0.0,90.0,1.0,0.0
6410,75.0,48.0,60.0,6.0,0.0
6411,80.0,0.0,90.0,4.0,0.0
6412,56.0,0.0,90.0,12.0,0.0
6413,60.0,0.0,90.0,7.0,0.0
6414,60.0,0.0,90.0,3.0,0.0
6415,60.0,0.0,90.0,11.0,0.0
6416,80.0,0.0,90.0,8.0,0.0
6417,80.0,0.0,90.0,10.0,0.0
6418,56.0,0.0,90.0,5.0,0.0
6419,80.0,0.0,90.0,2.0,0.0
6420,80.0,0.0,90.0,0.0,0.0
6421,80.0,48.0,60.0,6.0,0.0
6422,85.0,0.0,90.0,8.0,0.0
6423,76.0,0.0,90.0,4.0,0.0
6424,61.0,0.0,90.0,3.0,0.0
6425,76.0,0.0,90.0,10.0,0.0
6426,85.0,48.0,90.0,0.0,0.0
6427,80.0,48.0,60.0,6.0,0.0
6428,73.0,0.0,60.0,2.0,0.0
6429,78.0,0.0,60.0,6.0,0.0
6430,61.0,0.0,90.0,5.0,0.0
6431,80.0,0.0,90.0,0.0,0.0
6432,73.0,0.0,90.0,10.0,0.0
6433,64.0,0.0,90.0,11.0,0.0
6434,49.0,0.0,90.0,3.0,0.0
6435,80.0,0.0,90.0,6.0,0.0
6436,64.0,0.0,90.0,7.0,0.0
6437,73.0,50.0,90.0,4.0,0.0
6438,76.0,48.0,60.0,2.0,0.0
6439,80.0,0.0,90.0,8.0,0.0
6440,61.0,0.0,90.0,1.0,0.0
6441,61.0,0.0,90.0,12.0,0.0
6442,80.0,0.0,60.0,2.0,0.0
6443,80.0,46.0,60.0,2.0,0.0
6444,63.0,0.0,90.0,11.0,0.0
6445,80.0,0.0,90.0,0.0,0.0
6446,60.0,0.0,90.0,12.0,0.0
6447,80.0,0.0,90.0,8.0,0.0
6448,60.0,0.0,90.0,5.0,0.0
6449,60.0,48.0,90.0,1.0,0.0
6450,63.0,0.0,90.0,7.0,0.0
6451,78.0,0.0,60.0,2.0,0.0
6452,72.0,0.0,60.0,6.0,0.0
6453,75.0,48.0,60.0,6.0,0.0
6454,56.0,0.0,90.0,12.0,0.0
6455,80.0,0.0,90.0,8.0,0.0
6456,80.0,0.0,90.0,2.0,0.0
6457,80.0,0.0,90.0,0.0,0.0
6458,60.0,0.0,90.0,7.0,0.0
6459,56.0,0.0,90.0,5.0,0.0
6460,56.0,0.0,90.0,1.0,0.0
6461,80.0,48.0,90.0,10.0,0.0
6462,60.0,0.0,90.0,11.0,0.0
6463,80.0,0.0,90.0,4.0,0.0
6464,60.0,0.0,90.0,3.0,0.0
6465,80.0,0.0,60.0,6.0,0.0
6466,76.0,0.0,60.0,10.0,0.0
6467,76.0,48.0,60.0,4.0,0.0
6468,49.0,0.0,60.0,5.0,0.0
6469,61.0,0.0,60.0,3.0,0.0
6470,49.0,30.0,150.0,7.0,0.0
6471,56.0,30.0,270.0,11.0,0.0
6472,85.0,0.0,60.0,0.0,0.0
6473,49.0,0.0,150.0,12.0,0.0
6474,80.0,0.0,60.0,6.0,0.0
6475,85.0,0.0,60.0,8.0,0.0
6476,61.0,0.0,60.0,5.0,0.0
6477,80.0,0.0,60.0,10.0,0.0
6478,80.0,48.0,60.0,4.0,0.0
6479,80.0,0.0,60.0,8.0,0.0
6480,80.0,0.0,60.0,6.0,0.0
6481,80.0,0.0,60.0,0.0,0.0
6482,64.0,0.0,60.0,3.0,0.0
6483,80.0,0.0,60.0,2.0,0.0
6484,80.0,0.0,60.0,2.0,0.0
6485,80.0,0.0,60.0,6.0,0.0
6486,80.0,0.0,60.0,8.0,0.0
6487,80.0,0.0,60.0,0.0,0.0
6488,68.0,0.0,60.0,3.0,0.0
6489,64.0,0.0,60.0,5.0,0.0
6490,61.0,0.0,90.0,1.0,0.0
6491,80.0,0.0,60.0,10.0,0.0
6492,80.0,18.0,60.0,4.0,0.0
6493,80.0,48.0,60.0,4.0,0.0
6494,73.0,0.0,60.0,3.0,0.0
6495,80.0,0.0,60.0,0.0,0.0
6496,80.0,0.0,60.0,8.0,0.0
6497,80.0,0.0,60.0,10.0,0.0
6498,80.0,0.0,60.0,2.0,0.0
6499,80.0,0.0,60.0,6.0,0.0
6500,68.0,0.0,60.0,5.0,0.0
6501,85.0,0.0,60.0,8.0,0.0
6502,85.0,0.0,60.0,2.0,0.0
6503,85.0,0.0,60.0,10.0,0.0
6504,85.0,0.0,60.0,0.0,0.0
6505,49.0,30.0,150.0,1.0,0.0
6506,85.0,0.0,60.0,4.0,0.0
6507,64.0,18.0,60.0,5.0,0.0
6508,85.0,0.0,60.0,6.0,0.0
6509,61.0,0.0,60.0,3.0,0.0
6510,80.0,0.0,60.0,6.0,0.0
6511,80.0,0.0,60.0,10.0,0.0
6512,61.0,0.0,60.0,5.0,0.0
6513,64.0,0.0,60.0,3.0,0.0
6514,80.0,48.0,60.0,0.0,0.0
6515,80.0,0.0,60.0,8.0,0.0
6516,80.0,0.0,60.0,4.0,0.0
6517,80.0,0.0,60.0,2.0,0.0
6518,80.0,0.0,60.0,10.0,0.0
6519,80.0,18.0,60.0,4.0,0.0
6520,61.0,0.0,90.0,7.0,0.0
6521,64.0,0.0,60.0,5.0,0.0
6522,61.0,0.0,90.0,12.0,0.0
6523,80.0,0.0,60.0,8.0,0.0
6524,68.0,0.0,60.0,3.0,0.0
6525,80.0,0.0,60.0,6.0,0.0
6526,80.0,0.0,60.0,2.0,0.0
6527,68.0,0.0,90.0,11.0,0.0
6528,80.0,0.0,60.0,0.0,0.0
6529,80.0,0.0,60.0,0.0,0.0
6530,73.0,0.0,60.0,3.0,0.0
6531,80.0,0.0,60.0,6.0,0.0
6532,80.0,0.0,60.0,2.0,0.0
6533,68.0,48.0,60.0,5.0,0.0
6534,80.0,0.0,60.0,4.0,0.0
6535,80.0,0.0,60.0,10.0,0.0
6536,80.0,0.0,60.0,8.0,0.0
6537,85.0,0.0,60.0,4.0,0.0
6538,49.0,0.0,150.0,7.0,0.0
6539,85.0,0.0,60.0,0.0,0.0
6540,64.0,0.0,90.0,11.0,0.0
6541,49.0,30.0,150.0,12.0,0.0
6542,85.0,0.0,60.0,10.0,0.0
6543,64.0,0.0,60.0,5.0,0.0
6544,85.0,0.0,60.0,8.0,0.0
6545,85.0,48.0,60.0,2.0,0.0
6546,61.0,0.0,60.0,3.0,0.0
6547,85.0,0.0,60.0,6.0,0.0
6548,80.0,0.0,60.0,8.0,0.0
6549,80.0,0.0,60.0,4.0,0.0
6550,64.0,0.0,60.0,3.0,0.0
6551,80.0,0.0,60.0,6.0,0.0
6552,80.0,0.0,60.0,10.0,0.0
6553,80.0,0.0,60.0,0.0,0.0
6554,80.0,0.0,60.0,2.0,0.0
6555,61.0,48.0,60.0,5.0,0.0
6556,80.0,0.0,60.0,8.0,0.0
6557,80.0,0.0,60.0,6.0,0.0
6558,80.0,0.0,60.0,2.0,0.0
6559,80.0,0.0,60.0,4.0,0.0
6560,61.0,0.0,90.0,1.0,0.0
6561,68.0,0.0,60.0,3.0,0.0
6562,80.0,18.0,60.0,10.0,0.0
6563,61.0,0.0,90.0,11.0,0.0
6564,80.0,0.0,60.0,0.0,0.0
6565,64.0,0.0,60.0,5.0,0.0
6566,80.0,0.0,60.0,2.0,0.0
6567,80.0,0.0,60.0,8.0,0.0
6568,80.0,0.0,60.0,0.0,0.0
6569,80.0,0.0,60.0,4.0,0.0
6570,68.0,0.0,60.0,5.0,0.0
6571,80.0,0.0,60.0,10.0,0.0
6572,73.0,0.0,60.0,3.0,0.0
6573,80.0,48.0,60.0,6.0,0.0
6574,64.0,0.0,60.0,5.0,0.0
6575,49.0,30.0,150.0,1.0,0.0
6576,85.0,48.0,60.0,2.0,0.0
6577,61.0,0.0,60.0,3.0,0.0
6578,85.0,0.0,60.0,0.0,0.0
6579,85.0,0.0,60.0,8.0,0.0
6580,85.0,0.0,60.0,4.0,0.0
6581,85.0,0.0,60.0,6.0,0.0
6582,85.0,0.0,60.0,10.0,0.0
6583,61.0,0.0,60.0,5.0,0.0
6584,64.0,0.0,60.0,3.0,0.0
6585,80.0,0.0,60.0,0.0,0.0
6586,80.0,48.0,60.0,6.0,0.0
6587,80.0,0.0,60.0,4.0,0.0
6588,80.0,0.0,60.0,10.0,0.0
6589,80.0,0.0,60.0,8.0,0.0
6590,80.0,0.0,60.0,2.0,0.0
6591,68.0,0.0,90.0,11.0,0.0
6592,61.0,0.0,90.0,12.0,0.0
6593,80.0,0.0,60.0,10.0,0.0
6594,80.0,0.0,60.0,0.0,0.0
6595,80.0,0.0,60.0,6.0,0.0
6596,68.0,0.0,60.0,3.0,0.0
6597,80.0,0.0,60.0,4.0,0.0
6598,64.0,0.0,60.0,5.0,0.0
6599,61.0,0.0,90.0,7.0,0.0
6600,80.0,0.0,60.0,8.0,0.0
6601,80.0,18.0,60.0,2.0,0.0
6602,80.0,0.0,60.0,4.0,0.0
6603,80.0,0.0,60.0,8.0,0.0
6604,80.0,0.0,60.0,0.0,0.0
6605,80.0,0.0,60.0,6.0,0.0
6606,73.0,96.0,60.0,3.0,0.0
6607,80.0,0.0,60.0,10.0,0.0
6608,80.0,0.0,60.0,2.0,0.0
6609,68.0,0.0,60.0,5.0,0.0
6610,64.0,0.0,90.0,5.0,0.0
6611,85.0,0.0,90.0,8.0,0.0
6612,85.0,0.0,90.0,10.0,0.0
6613,49.0,0.0,90.0,12.0,0.0
6614,85.0,0.0,90.0,2.0,0.0
6615,61.0,48.0,90.0,3.0,0.0
6616,49.0,0.0,90.0,7.0,0.0
6617,85.0,0.0,90.0,4.0,0.0
6618,85.0,0.0,90.0,0.0,0.0
6619,64.0,0.0,90.0,11.0,0.0
6620,85.0,0.0,90.0,6.0,0.0
6621,83.0,0.0,60.0,2.0,0.0
6622,61.0,0.0,90.0,12.0,0.0
6623,64.0,0.0,90.0,1.0,0.0
6624,61.0,96.0,90.0,1.0,0.0
6625,83.0,0.0,60.0,6.0,0.0
6626,83.0,0.0,60.0,0.0,0.0
6627,61.0,0.0,90.0,11.0,0.0
6628,64.0,0.0,90.0,5.0,0.0
6629,61.0,0.0,90.0,5.0,0.0
6630,64.0,0.0,90.0,3.0,0.0
6631,83.0,0.0,60.0,4.0,0.0
6632,83.0,0.0,60.0,8.0,0.0
6633,64.0,0.0,90.0,7.0,0.0
6634,61.0,0.0,90.0,7.0,0.0
6635,61.0,0.0,90.0,3.0,0.0
6636,83.0,48.0,60.0,10.0,0.0
6637,81.0,0.0,60.0,0.0,0.0
6638,81.0,0.0,60.0,6.0,0.0
6639,81.0,0.0,60.0,4.0,0.0
6640,81.0,0.0,60.0,2.0,0.0
6641,81.0,0.0,60.0,8.0,0.0
6642,81.0,0.0,60.0,10.0,0.0
6643,63.0,0.0,90.0,5.0,0.0
6644,80.0,0.0,90.0,10.0,0.0
6645,80.0,96.0,90.0,6.0,0.0
6646,60.0,0.0,90.0,1.0,0.0
6647,80.0,0.0,90.0,0.0,0.0
6648,60.0,0.0,90.0,5.0,0.0
6649,63.0,0.0,90.0,3.0,0.0
6650,60.0,0.0,90.0,3.0,0.0
6651,80.0,0.0,90.0,8.0,0.0
6652,80.0,0.0,90.0,2.0,0.0
6653,63.0,0.0,90.0,1.0,0.0
6654,60.0,0.0,90.0,12.0,0.0
6655,63.0,0.0,90.0,7.0,0.0
6656,60.0,0.0,90.0,7.0,0.0
6657,80.0,0.0,90.0,4.0,0.0
6658,60.0,0.0,90.0,1.0,0.0
6659,78.0,0.0,90.0,8.0,0.0
6660,78.0,0.0,90.0,0.0,0.0
6661,60.0,0.0,90.0,3.0,0.0
6662,56.0,0.0,90.0,1.0,0.0
6663,78.0,0.0,90.0,2.0,0.0
6664,56.0,0.0,90.0,12.0,0.0
6665,78.0,0.0,90.0,4.0,0.0
6666,56.0,0.0,90.0,7.0,0.0
6667,56.0,0.0,90.0,3.0,0.0
6668,60.0,0.0,90.0,7.0,0.0
6669,60.0,50.0,90.0,5.0,0.0
6670,78.0,0.0,90.0,6.0,0.0
6671,68.0,0.0,90.0,11.0,0.0
6672,56.0,0.0,90.0,5.0,0.0
6673,78.0,0.0,90.0,10.0,0.0
6674,61.0,66.0,90.0,1.0,0.0
6675,61.0,0.0,90.0,3.0,0.0
6676,68.0,0.0,90.0,11.0,0.0
6677,49.0,0.0,90.0,3.0,0.0
6678,61.0,0.0,90.0,7.0,0.0
6679,76.0,46.0,60.0,10.0,0.0
6680,61.0,0.0,90.0,12.0,0.0
6681,76.0,30.0,150.0,4.0,0.0
6682,61.0,0.0,90.0,5.0,0.0
6683,76.0,0.0,90.0,2.0,0.0
6684,49.0,0.0,90.0,1.0,0.0
6685,76.0,0.0,90.0,6.0,0.0
6686,76.0,0.0,150.0,0.0,0.0
6687,76.0,0.0,150.0,8.0,0.0
6688,75.0,0.0,60.0,10.0,0.0
6689,69.0,0.0,90.0,6.0,0.0
6690,69.0,0.0,90.0,11.0,0.0
6691,73.0,0.0,150.0,6.0,0.0
6692,69.0,0.0,90.0,2.0,0.0
6693,54.0,24.0,90.0,12.0,0.0
6694,54.0,0.0,90.0,3.0,0.0
6695,73.0,0.0,150.0,10.0,0.0
6696,54.0,0.0,90.0,1.0,0.0
6697,54.0,0.0,90.0,5.0,0.0
6698,54.0,0.0,90.0,7.0,0.0
6699,73.0,6.0,150.0,2.0,0.0
6700,56.0,0.0,90.0,1.0,0.0
6701,76.0,24.0,20.0,4.0,0.0
6702,56.0,0.0,90.0,3.0,0.0
6703,56.0,0.0,90.0,12.0,0.0
6704,56.0,0.0,90.0,7.0,0.0
6705,63.0,0.0,90.0,3.0,0.0
6706,76.0,0.0,20.0,8.0,0.0
6707,63.0,0.0,90.0,11.0,0.0
6708,76.0,0.0,20.0,0.0,0.0
6709,56.0,24.0,90.0,5.0,0.0
6710,63.0,0.0,180.0,6.0,0.0
6711,75.0,18.0,20.0,4.0,0.0
6712,75.0,0.0,20.0,8.0,0.0
6713,75.0,0.0,20.0,0.0,0.0
6714,76.0,0.0,20.0,0.0,0.0
6715,76.0,24.0,20.0,8.0,0.0
6716,76.0,0.0,20.0,4.0,0.0
6717,75.0,0.0,20.0,0.0,0.0
6718,75.0,0.0,20.0,4.0,0.0
6719,75.0,0.0,20.0,8.0,0.0
6720,76.0,24.0,20.0,0.0,0.0
6721,44.0,0.0,90.0,5.0,0.0
6722,68.0,0.0,90.0,11.0,0.0
6723,76.0,0.0,20.0,8.0,0.0
6724,72.0,0.0,90.0,6.0,0.0
6725,44.0,0.0,90.0,3.0,0.0
6726,44.0,0.0,90.0,7.0,0.0
6727,72.0,0.0,90.0,2.0,0.0
6728,44.0,0.0,90.0,1.0,0.0
6729,76.0,0.0,20.0,4.0,0.0
6730,72.0,0.0,90.0,10.0,0.0
6731,44.0,0.0,90.0,12.0,0.0
6732,75.0,0.0,20.0,8.0,0.0
6733,75.0,0.0,20.0,0.0,0.0
6734,75.0,24.0,20.0,4.0,0.0
6735,76.0,0.0,20.0,0.0,0.0
6736,76.0,0.0,20.0,8.0,0.0
6737,76.0,24.0,20.0,4.0,0.0
6738,75.0,0.0,20.0,0.0,0.0
6739,75.0,48.0,20.0,4.0,0.0
6740,75.0,0.0,20.0,8.0,0.0
6741,49.0,0.0,90.0,3.0,0.0
6742,49.0,0.0,90.0,12.0,0.0
6743,49.0,0.0,150.0,5.0,0.0
6744,68.0,0.0,150.0,10.0,0.0
6745,73.0,0.0,60.0,4.0,0.0
6746,73.0,0.0,60.0,2.0,0.0
6747,64.0,30.0,150.0,11.0,0.0
6748,49.0,0.0,90.0,7.0,0.0
6749,49.0,0.0,150.0,1.0,0.0
6750,73.0,0.0,60.0,6.0,0.0
6751,73.0,0.0,870.0,8.0,0.0
6752,73.0,48.0,60.0,0.0,0.0
6753,68.0,0.0,60.0,0.0,0.0
6754,64.0,0.0,60.0,4.0,0.0
6755,64.0,48.0,60.0,2.0,0.0
6756,61.0,0.0,60.0,6.0,0.0
6757,61.0,0.0,90.0,12.0,0.0
6758,63.0,18.0,60.0,4.0,0.0
6759,56.0,0.0,90.0,7.0,0.0
6760,56.0,0.0,90.0,3.0,0.0
6761,69.0,0.0,60.0,0.0,0.0
6762,66.0,0.0,60.0,2.0,0.0
6763,60.0,0.0,60.0,6.0,0.0
6764,64.0,0.0,60.0,2.0,0.0
6765,61.0,48.0,60.0,6.0,0.0
6766,68.0,0.0,60.0,0.0,0.0
6767,64.0,0.0,60.0,4.0,0.0
6768,52.0,0.0,90.0,3.0,0.0
6769,73.0,48.0,60.0,0.0,0.0
6770,52.0,0.0,90.0,7.0,0.0
6771,73.0,0.0,60.0,2.0,0.0
6772,68.0,0.0,60.0,4.0,0.0
6773,64.0,0.0,60.0,6.0,0.0
6774,49.0,30.0,150.0,12.0,0.0
6775,68.0,0.0,60.0,0.0,0.0
6776,64.0,48.0,60.0,2.0,0.0
6777,64.0,0.0,60.0,4.0,0.0
6778,61.0,0.0,60.0,6.0,0.0
6779,66.0,0.0,90.0,11.0,0.0
6780,49.0,48.0,90.0,3.0,0.0
6781,69.0,0.0,60.0,0.0,0.0
6782,60.0,0.0,60.0,6.0,0.0
6783,63.0,18.0,60.0,4.0,0.0
6784,69.0,0.0,90.0,10.0,0.0
6785,49.0,0.0,90.0,7.0,0.0
6786,66.0,0.0,60.0,2.0,0.0
6787,56.0,0.0,90.0,1.0,0.0
6788,56.0,0.0,90.0,5.0,0.0
6789,64.0,0.0,60.0,2.0,0.0
6790,61.0,0.0,60.0,6.0,0.0
6791,64.0,0.0,60.0,4.0,0.0
6792,68.0,0.0,60.0,0.0,0.0
6793,64.0,48.0,60.0,6.0,0.0
6794,73.0,0.0,60.0,0.0,0.0
6795,64.0,30.0,150.0,11.0,0.0
6796,68.0,0.0,150.0,10.0,0.0
6797,73.0,0.0,60.0,2.0,0.0
6798,52.0,0.0,90.0,5.0,0.0
6799,52.0,0.0,90.0,1.0,0.0
6800,68.0,0.0,60.0,4.0,0.0
6801,68.0,0.0,60.0,0.0,0.0
6802,64.0,48.0,60.0,2.0,0.0
6803,64.0,0.0,60.0,4.0,0.0
6804,61.0,0.0,60.0,6.0,0.0
6805,49.0,0.0,90.0,5.0,0.0
6806,66.0,18.0,60.0,2.0,0.0
6807,61.0,0.0,90.0,12.0,0.0
6808,69.0,0.0,60.0,0.0,0.0
6809,49.0,0.0,90.0,1.0,0.0
6810,63.0,0.0,60.0,4.0,0.0
6811,56.0,0.0,90.0,7.0,0.0
6812,60.0,0.0,60.0,6.0,0.0
6813,56.0,0.0,90.0,3.0,0.0
6814,64.0,0.0,60.0,4.0,0.0
6815,61.0,0.0,60.0,6.0,0.0
6816,68.0,0.0,60.0,0.0,0.0
6817,64.0,48.0,60.0,2.0,0.0
6818,68.0,0.0,60.0,4.0,0.0
6819,64.0,0.0,60.0,6.0,0.0
6820,73.0,0.0,60.0,0.0,0.0
6821,49.0,30.0,150.0,12.0,0.0
6822,52.0,0.0,90.0,3.0,0.0
6823,73.0,48.0,60.0,2.0,0.0
6824,52.0,48.0,90.0,7.0,0.0
6825,61.0,0.0,60.0,6.0,0.0
6826,64.0,0.0,60.0,2.0,0.0
6827,64.0,0.0,60.0,4.0,0.0
6828,68.0,0.0,60.0,0.0,0.0
6829,56.0,0.0,90.0,5.0,0.0
6830,66.0,0.0,90.0,10.0,0.0
6831,49.0,0.0,90.0,3.0,0.0
6832,49.0,96.0,90.0,7.0,0.0
6833,60.0,0.0,60.0,6.0,0.0
6834,56.0,0.0,90.0,1.0,0.0
6835,69.0,0.0,60.0,0.0,0.0
6836,63.0,0.0,90.0,11.0,0.0
6837,63.0,0.0,60.0,4.0,0.0
6838,66.0,18.0,60.0,2.0,0.0
6839,64.0,0.0,60.0,2.0,0.0
6840,64.0,0.0,60.0,4.0,0.0
6841,61.0,0.0,60.0,6.0,0.0
6842,68.0,0.0,60.0,0.0,0.0
6843,52.0,0.0,90.0,5.0,0.0
6844,73.0,0.0,90.0,6.0,0.0
6845,73.0,0.0,90.0,4.0,0.0
6846,52.0,0.0,90.0,1.0,0.0
6847,73.0,0.0,90.0,2.0,0.0
6848,61.0,0.0,90.0,11.0,0.0
6849,64.0,0.0,90.0,10.0,0.0
6850,73.0,48.0,90.0,0.0,0.0
6851,64.0,0.0,90.0,11.0,0.0
6852,61.0,0.0,90.0,10.0,0.0
6853,71.0,0.0,60.0,8.0,0.0
6854,61.0,0.0,90.0,7.0,0.0
6855,61.0,0.0,90.0,3.0,0.0
6856,49.0,0.0,90.0,1.0,0.0
6857,71.0,0.0,60.0,2.0,0.0
6858,71.0,0.0,60.0,4.0,0.0
6859,71.0,0.0,60.0,0.0,0.0
6860,61.0,0.0,90.0,12.0,0.0
6861,71.0,48.0,60.0,6.0,0.0
6862,49.0,0.0,90.0,5.0,0.0
6863,69.0,96.0,60.0,8.0,0.0
6864,69.0,0.0,60.0,0.0,0.0
6865,69.0,0.0,60.0,2.0,0.0
6866,69.0,0.0,60.0,6.0,0.0
6867,69.0,0.0,60.0,4.0,0.0
6868,48.0,0.0,90.0,5.0,0.0
6869,68.0,96.0,90.0,2.0,0.0
6870,68.0,0.0,90.0,6.0,0.0
6871,68.0,0.0,90.0,0.0,0.0
6872,48.0,0.0,90.0,1.0,0.0
6873,68.0,0.0,90.0,4.0,0.0
6874,63.0,0.0,90.0,10.0,0.0
6875,68.0,0.0,90.0,8.0,0.0
6876,60.0,0.0,90.0,7.0,0.0
6877,60.0,0.0,90.0,12.0,0.0
6878,60.0,0.0,90.0,3.0,0.0
6879,63.0,0.0,90.0,11.0,0.0
6880,56.0,0.0,90.0,12.0,0.0
6881,56.0,0.0,90.0,7.0,0.0
6882,66.0,0.0,90.0,8.0,0.0
6883,72.0,0.0,90.0,10.0,0.0
6884,63.0,0.0,90.0,11.0,0.0
6885,66.0,0.0,90.0,4.0,0.0
6886,66.0,0.0,90.0,2.0,0.0
6887,56.0,0.0,90.0,3.0,0.0
6888,44.0,0.0,90.0,5.0,0.0
6889,66.0,0.0,90.0,0.0,0.0
6890,44.0,0.0,90.0,1.0,0.0
6891,66.0,96.0,90.0,6.0,0.0
6892,64.0,0.0,90.0,2.0,0.0
6893,61.0,0.0,90.0,3.0,0.0
6894,64.0,0.0,150.0,0.0,0.0
6895,49.0,66.0,90.0,12.0,0.0
6896,73.0,0.0,90.0,10.0,0.0
6897,49.0,0.0,90.0,1.0,0.0
6898,64.0,30.0,150.0,8.0,0.0
6899,64.0,0.0,150.0,4.0,0.0
6900,61.0,0.0,90.0,11.0,0.0
6901,49.0,0.0,90.0,5.0,0.0
6902,61.0,0.0,90.0,7.0,0.0
6903,64.0,0.0,90.0,6.0,0.0
6904,61.0,0.0,150.0,6.0,0.0
6905,54.0,0.0,90.0,1.0,0.0
6906,61.0,0.0,150.0,10.0,0.0
6907,54.0,0.0,90.0,3.0,0.0
6908,54.0,24.0,90.0,5.0,0.0
6909,54.0,0.0,90.0,7.0,0.0
6910,61.0,6.0,150.0,2.0,0.0
6911,61.0,0.0,90.0,11.0,0.0
6912,54.0,0.0,90.0,12.0,0.0
6913,56.0,0.0,90.0,12.0,0.0
6914,56.0,24.0,90.0,3.0,0.0
6915,56.0,0.0,90.0,5.0,0.0
6916,56.0,0.0,90.0,7.0,0.0
6917,64.0,0.0,20.0,0.0,0.0
6918,56.0,0.0,90.0,11.0,0.0
6919,64.0,24.0,20.0,4.0,0.0
6920,56.0,0.0,90.0,1.0,0.0
6921,64.0,0.0,20.0,8.0,0.0
6922,63.0,0.0,20.0,0.0,0.0
6923,63.0,0.0,20.0,4.0,0.0
6924,63.0,18.0,20.0,8.0,0.0
6925,64.0,24.0,20.0,0.0,0.0
6926,64.0,0.0,20.0,4.0,0.0
6927,64.0,0.0,20.0,8.0,0.0
6928,63.0,0.0,20.0,8.0,0.0
6929,63.0,0.0,20.0,0.0,0.0
6930,63.0,0.0,20.0,4.0,0.0
6931,64.0,0.0,20.0,8.0,0.0
6932,44.0,0.0,90.0,1.0,0.0
6933,56.0,0.0,90.0,11.0,0.0
6934,64.0,24.0,20.0,4.0,0.0
6935,44.0,0.0,90.0,7.0,0.0
6936,60.0,0.0,90.0,2.0,0.0
6937,60.0,0.0,90.0,10.0,0.0
6938,44.0,0.0,90.0,12.0,0.0
6939,64.0,0.0,20.0,0.0,0.0
6940,44.0,0.0,90.0,3.0,0.0
6941,60.0,0.0,90.0,6.0,0.0
6942,44.0,722.0,90.0,5.0,0.0
6943,63.0,0.0,20.0,0.0,0.0
6944,63.0,0.0,20.0,8.0,0.0
6945,63.0,24.0,20.0,4.0,0.0
6946,64.0,0.0,20.0,4.0,0.0
6947,64.0,24.0,20.0,0.0,0.0
6948,64.0,0.0,20.0,8.0,0.0
6949,63.0,0.0,20.0,4.0,0.0
6950,63.0,0.0,20.0,8.0,0.0
6951,63.0,0.0,20.0,0.0,0.0
6952,61.0,0.0,720.0,10.0,0.0
6953,49.0,0.0,720.0,5.0,0.0
6954,61.0,0.0,720.0,0.0,0.0
6955,49.0,0.0,720.0,12.0,0.0
6956,56.0,0.0,720.0,11.0,0.0
6957,61.0,0.0,720.0,4.0,0.0
6958,61.0,0.0,720.0,6.0,0.0
6959,61.0,976.0,720.0,2.0,0.0
6960,49.0,0.0,720.0,3.0,0.0
6961,49.0,0.0,720.0,1.0,0.0
6962,61.0,0.0,720.0,8.0,0.0
6963,49.0,0.0,720.0,7.0,0.0
6964,77.0,0.0,150.0,0.0,0.0
6965,61.0,0.0,150.0,1.0,0.0
6966,56.0,0.0,150.0,1.0,0.0
6967,61.0,0.0,150.0,3.0,0.0
6968,53.0,0.0,150.0,1.0,0.0
6969,56.0,0.0,150.0,3.0,0.0
6970,53.0,0.0,150.0,3.0,0.0
6971,49.0,0.0,150.0,3.0,0.0
6972,77.0,0.0,150.0,10.0,0.0
6973,68.0,0.0,150.0,4.0,0.0
6974,83.0,0.0,150.0,8.0,0.0
6975,49.0,0.0,150.0,7.0,0.0
6976,53.0,0.0,150.0,7.0,0.0
6977,56.0,0.0,150.0,7.0,0.0
6978,61.0,288.0,150.0,7.0,0.0
6979,49.0,0.0,150.0,5.0,0.0
6980,53.0,0.0,150.0,5.0,0.0
6981,56.0,0.0,150.0,5.0,0.0
6982,61.0,0.0,150.0,5.0,0.0
6983,83.0,0.0,150.0,0.0,0.0
6984,80.0,0.0,150.0,0.0,0.0
6985,73.0,0.0,150.0,0.0,0.0
6986,49.0,0.0,150.0,12.0,0.0
6987,49.0,0.0,150.0,1.0,0.0
6988,71.0,0.0,150.0,2.0,0.0
6989,73.0,0.0,150.0,6.0,0.0
6990,71.0,0.0,150.0,6.0,0.0
6991,68.0,0.0,150.0,6.0,0.0
6992,77.0,0.0,150.0,4.0,0.0
6993,65.0,0.0,150.0,6.0,0.0
6994,71.0,0.0,150.0,4.0,0.0
6995,73.0,0.0,150.0,2.0,0.0
6996,73.0,0.0,150.0,4.0,0.0
6997,80.0,0.0,150.0,2.0,0.0
6998,68.0,0.0,150.0,11.0,0.0
6999,77.0,0.0,150.0,2.0,0.0
7000,68.0,0.0,270.0,4.0,0.0
7001,71.0,0.0,270.0,4.0,0.0
7002,73.0,0.0,270.0,4.0,0.0
7003,61.0,0.0,270.0,1.0,0.0
7004,56.0,0.0,270.0,1.0,0.0
7005,53.0,0.0,270.0,1.0,0.0
7006,77.0,0.0,270.0,4.0,0.0
7007,49.0,0.0,270.0,1.0,0.0
7008,49.0,0.0,270.0,3.0,0.0
7009,53.0,126.0,270.0,3.0,0.0
7010,49.0,0.0,270.0,5.0,0.0
7011,53.0,0.0,270.0,7.0,0.0
7012,56.0,0.0,270.0,5.0,0.0
7013,61.0,0.0,270.0,5.0,0.0
7014,80.0,0.0,270.0,2.0,0.0
7015,77.0,0.0,270.0,2.0,0.0
7016,73.0,0.0,270.0,2.0,0.0
7017,71.0,0.0,270.0,2.0,0.0
7018,71.0,0.0,270.0,6.0,0.0
7019,68.0,0.0,270.0,6.0,0.0
7020,65.0,0.0,270.0,6.0,0.0
7021,49.0,0.0,270.0,12.0,0.0
7022,68.0,0.0,270.0,11.0,0.0
7023,49.0,0.0,270.0,7.0,0.0
7024,77.0,0.0,270.0,10.0,0.0
7025,56.0,0.0,270.0,3.0,0.0
7026,61.0,0.0,270.0,3.0,0.0
7027,56.0,0.0,270.0,7.0,0.0
7028,61.0,0.0,270.0,7.0,0.0
7029,73.0,0.0,270.0,6.0,0.0
7030,53.0,0.0,270.0,5.0,0.0
7031,83.0,0.0,270.0,8.0,0.0
7032,73.0,0.0,270.0,0.0,0.0
7033,77.0,0.0,270.0,0.0,0.0
7034,83.0,0.0,270.0,0.0,0.0
7035,80.0,0.0,270.0,0.0,0.0
7036,56.0,0.0,90.0,7.0,0.0
7037,53.0,0.0,90.0,7.0,0.0
7038,61.0,144.0,90.0,7.0,0.0
7039,49.0,0.0,90.0,7.0,0.0
7040,83.0,0.0,90.0,0.0,0.0
7041,80.0,0.0,90.0,0.0,0.0
7042,77.0,0.0,90.0,0.0,0.0
7043,73.0,0.0,90.0,0.0,0.0
7044,83.0,0.0,90.0,8.0,0.0
7045,61.0,0.0,90.0,3.0,0.0
7046,56.0,0.0,90.0,3.0,0.0
7047,68.0,0.0,90.0,4.0,0.0
7048,71.0,0.0,90.0,4.0,0.0
7049,77.0,0.0,90.0,4.0,0.0
7050,49.0,0.0,90.0,3.0,0.0
7051,68.0,0.0,90.0,11.0,0.0
7052,53.0,0.0,90.0,1.0,0.0
7053,73.0,0.0,90.0,6.0,0.0
7054,71.0,0.0,90.0,6.0,0.0
7055,68.0,0.0,90.0,6.0,0.0
7056,65.0,0.0,90.0,6.0,0.0
7057,61.0,0.0,90.0,5.0,0.0
7058,56.0,0.0,90.0,5.0,0.0
7059,53.0,0.0,90.0,5.0,0.0
7060,49.0,0.0,90.0,1.0,0.0
7061,49.0,0.0,90.0,5.0,0.0
7062,77.0,0.0,90.0,2.0,0.0
7063,73.0,0.0,90.0,2.0,0.0
7064,71.0,0.0,90.0,2.0,0.0
7065,77.0,0.0,90.0,10.0,0.0
7066,49.0,0.0,90.0,12.0,0.0
7067,73.0,0.0,90.0,4.0,0.0
7068,61.0,0.0,90.0,1.0,0.0
7069,56.0,0.0,90.0,1.0,0.0
7070,80.0,0.0,90.0,2.0,0.0
7071,53.0,0.0,90.0,3.0,0.0
7072,49.0,0.0,150.0,3.0,0.0
7073,83.0,0.0,150.0,0.0,0.0
7074,68.0,0.0,150.0,4.0,0.0
7075,71.0,0.0,150.0,4.0,0.0
7076,77.0,18.0,150.0,4.0,0.0
7077,68.0,0.0,150.0,6.0,0.0
7078,49.0,0.0,150.0,12.0,0.0
7079,56.0,0.0,150.0,3.0,0.0
7080,61.0,0.0,150.0,1.0,0.0
7081,56.0,0.0,150.0,1.0,0.0
7082,80.0,0.0,150.0,0.0,0.0
7083,53.0,0.0,150.0,3.0,0.0
7084,53.0,0.0,150.0,1.0,0.0
7085,49.0,0.0,150.0,1.0,0.0
7086,61.0,0.0,150.0,3.0,0.0
7087,77.0,30.0,150.0,0.0,0.0
7088,65.0,0.0,150.0,6.0,0.0
7089,61.0,0.0,150.0,7.0,0.0
7090,68.0,0.0,150.0,11.0,0.0
7091,49.0,0.0,150.0,5.0,0.0
7092,77.0,0.0,150.0,10.0,0.0
7093,83.0,0.0,150.0,8.0,0.0
7094,71.0,0.0,150.0,2.0,0.0
7095,73.0,0.0,150.0,2.0,0.0
7096,77.0,0.0,150.0,2.0,0.0
7097,53.0,0.0,150.0,5.0,0.0
7098,80.0,0.0,150.0,2.0,0.0
7099,56.0,0.0,150.0,5.0,0.0
7100,61.0,0.0,150.0,5.0,0.0
7101,73.0,0.0,150.0,6.0,0.0
7102,71.0,0.0,150.0,6.0,0.0
7103,53.0,0.0,150.0,7.0,0.0
7104,56.0,0.0,150.0,7.0,0.0
7105,49.0,0.0,150.0,7.0,0.0
7106,73.0,0.0,150.0,0.0,0.0
7107,73.0,0.0,60.0,0.0,0.0
7108,73.0,0.0,15.0,4.0,0.0
7109,71.0,0.0,150.0,0.0,0.0
7110,73.0,48.0,150.0,4.0,0.0
7111,69.0,144.0,60.0,0.0,0.0
7112,75.0,0.0,60.0,4.0,0.0
7113,77.0,48.0,150.0,4.0,0.0
7114,68.0,0.0,150.0,1.0,0.0
7115,78.0,144.0,60.0,4.0,0.0
7116,66.0,0.0,60.0,1.0,0.0
7117,65.0,48.0,150.0,1.0,0.0
7118,80.0,0.0,750.0,4.0,0.0
7119,73.0,0.0,60.0,5.0,0.0
7120,68.0,0.0,60.0,1.0,0.0
7121,77.0,144.0,60.0,0.0,0.0
7122,71.0,48.0,150.0,5.0,0.0
7123,68.0,0.0,150.0,1.0,0.0
7124,77.0,0.0,150.0,0.0,0.0
7125,69.0,0.0,60.0,5.0,0.0
7126,66.0,0.0,60.0,1.0,0.0
7127,78.0,144.0,60.0,0.0,0.0
7128,65.0,0.0,150.0,1.0,0.0
7129,68.0,0.0,150.0,5.0,0.0
7130,80.0,48.0,150.0,0.0,0.0
7131,81.0,0.0,60.0,0.0,0.0
7132,66.0,144.0,60.0,5.0,0.0
7133,63.0,0.0,60.0,1.0,0.0
7134,65.0,18.0,150.0,5.0,0.0
7135,61.0,30.0,150.0,0.0,0.0
7136,83.0,0.0,150.0,0.0,0.0
7137,53.0,144.0,60.0,5.0,0.0
7138,73.0,0.0,60.0,6.0,0.0
7139,77.0,0.0,60.0,10.0,0.0
7140,68.0,0.0,60.0,11.0,0.0
7141,68.0,0.0,60.0,2.0,0.0
7142,71.0,0.0,60.0,2.0,0.0
7143,73.0,0.0,60.0,2.0,0.0
7144,71.0,0.0,60.0,6.0,0.0
7145,49.0,0.0,60.0,1.0,0.0
7146,61.0,0.0,60.0,5.0,0.0
7147,56.0,0.0,60.0,5.0,0.0
7148,49.0,0.0,60.0,5.0,0.0
7149,77.0,0.0,60.0,2.0,0.0
7150,83.0,0.0,60.0,8.0,0.0
7151,68.0,0.0,60.0,6.0,0.0
7152,65.0,0.0,60.0,6.0,0.0
7153,49.0,0.0,60.0,3.0,0.0
7154,61.0,0.0,60.0,3.0,0.0
7155,53.0,0.0,60.0,3.0,0.0
7156,56.0,0.0,60.0,3.0,0.0
7157,49.0,0.0,60.0,12.0,0.0
7158,49.0,0.0,60.0,7.0,0.0
7159,53.0,0.0,60.0,7.0,0.0
7160,56.0,0.0,60.0,7.0,0.0
7161,61.0,0.0,60.0,7.0,0.0
7162,61.0,0.0,150.0,7.0,0.0
7163,49.0,0.0,150.0,1.0,0.0
7164,73.0,48.0,150.0,2.0,0.0
7165,56.0,0.0,150.0,1.0,0.0
7166,68.0,0.0,150.0,11.0,0.0
7167,73.0,0.0,150.0,6.0,0.0
7168,49.0,0.0,150.0,7.0,0.0
7169,53.0,0.0,150.0,7.0,0.0
7170,56.0,0.0,150.0,7.0,0.0
7171,53.0,0.0,150.0,1.0,0.0
7172,61.0,0.0,150.0,1.0,0.0
7173,61.0,0.0,150.0,5.0,0.0
7174,77.0,0.0,150.0,2.0,0.0
7175,56.0,0.0,150.0,5.0,0.0
7176,53.0,0.0,150.0,5.0,0.0
7177,77.0,0.0,150.0,10.0,0.0
7178,71.0,0.0,150.0,6.0,0.0
7179,49.0,0.0,150.0,5.0,0.0
7180,80.0,0.0,150.0,0.0,0.0
7181,68.0,0.0,150.0,6.0,0.0
7182,65.0,0.0,150.0,6.0,0.0
7183,73.0,0.0,150.0,4.0,0.0
7184,71.0,0.0,150.0,4.0,0.0
7185,71.0,0.0,150.0,2.0,0.0
7186,77.0,0.0,150.0,4.0,0.0
7187,80.0,0.0,150.0,4.0,0.0
7188,53.0,0.0,150.0,3.0,0.0
7189,49.0,0.0,150.0,12.0,0.0
7190,56.0,0.0,150.0,3.0,0.0
7191,49.0,0.0,150.0,3.0,0.0
7192,73.0,0.0,150.0,0.0,0.0
7193,77.0,0.0,150.0,0.0,0.0
7194,83.0,0.0,150.0,8.0,0.0
7195,83.0,0.0,150.0,0.0,0.0
7196,68.0,0.0,150.0,2.0,0.0
7197,61.0,0.0,150.0,3.0,0.0
7198,53.0,0.0,60.0,5.0,0.0
7199,77.0,0.0,60.0,10.0,0.0
7200,56.0,0.0,60.0,5.0,0.0
7201,61.0,0.0,60.0,5.0,0.0
7202,68.0,0.0,60.0,11.0,0.0
7203,65.0,0.0,60.0,6.0,0.0
7204,68.0,0.0,60.0,6.0,0.0
7205,71.0,0.0,60.0,6.0,0.0
7206,73.0,0.0,60.0,6.0,0.0
7207,49.0,0.0,60.0,1.0,0.0
7208,49.0,0.0,60.0,12.0,0.0
7209,83.0,0.0,60.0,0.0,0.0
7210,73.0,144.0,60.0,2.0,0.0
7211,53.0,0.0,60.0,3.0,0.0
7212,49.0,0.0,60.0,3.0,0.0
7213,49.0,0.0,60.0,7.0,0.0
7214,77.0,0.0,60.0,2.0,0.0
7215,80.0,0.0,60.0,4.0,0.0
7216,71.0,0.0,60.0,2.0,0.0
7217,68.0,0.0,60.0,2.0,0.0
7218,53.0,0.0,60.0,7.0,0.0
7219,56.0,0.0,60.0,7.0,0.0
7220,61.0,0.0,60.0,7.0,0.0
7221,77.0,0.0,60.0,4.0,0.0
7222,73.0,0.0,60.0,4.0,0.0
7223,71.0,0.0,60.0,4.0,0.0
7224,61.0,0.0,60.0,1.0,0.0
7225,56.0,0.0,60.0,1.0,0.0
7226,53.0,0.0,60.0,1.0,0.0
7227,83.0,0.0,60.0,8.0,0.0
7228,49.0,0.0,60.0,5.0,0.0
7229,80.0,0.0,60.0,0.0,0.0
7230,77.0,0.0,60.0,0.0,0.0
7231,73.0,0.0,60.0,0.0,0.0
7232,56.0,0.0,60.0,3.0,0.0
7233,61.0,0.0,60.0,3.0,0.0
7234,61.0,0.0,150.0,1.0,0.0
7235,56.0,0.0,150.0,1.0,0.0
7236,53.0,0.0,150.0,1.0,0.0
7237,49.0,0.0,150.0,1.0,0.0
7238,80.0,0.0,150.0,4.0,0.0
7239,77.0,0.0,150.0,4.0,0.0
7240,49.0,0.0,150.0,12.0,0.0
7241,71.0,0.0,150.0,4.0,0.0
7242,83.0,0.0,150.0,0.0,0.0
7243,80.0,0.0,150.0,0.0,0.0
7244,77.0,0.0,150.0,0.0,0.0
7245,77.0,0.0,150.0,2.0,0.0
7246,73.0,0.0,150.0,2.0,0.0
7247,53.0,0.0,150.0,5.0,0.0
7248,49.0,0.0,150.0,5.0,0.0
7249,56.0,0.0,150.0,5.0,0.0
7250,73.0,0.0,150.0,4.0,0.0
7251,71.0,0.0,150.0,2.0,0.0
7252,73.0,0.0,150.0,0.0,0.0
7253,65.0,0.0,150.0,6.0,0.0
7254,71.0,0.0,150.0,6.0,0.0
7255,68.0,0.0,150.0,6.0,0.0
7256,68.0,0.0,150.0,2.0,0.0
7257,49.0,0.0,150.0,3.0,0.0
7258,53.0,0.0,150.0,3.0,0.0
7259,49.0,0.0,150.0,7.0,0.0
7260,53.0,0.0,150.0,7.0,0.0
7261,77.0,0.0,150.0,10.0,0.0
7262,56.0,0.0,150.0,3.0,0.0
7263,61.0,0.0,150.0,3.0,0.0
7264,56.0,48.0,150.0,7.0,0.0
7265,61.0,0.0,150.0,7.0,0.0
7266,83.0,0.0,150.0,8.0,0.0
7267,68.0,0.0,150.0,11.0,0.0
7268,61.0,0.0,150.0,5.0,0.0
7269,73.0,0.0,150.0,6.0,0.0
7270,83.0,0.0,60.0,0.0,0.0
7271,80.0,0.0,60.0,0.0,0.0
7272,77.0,0.0,60.0,0.0,0.0
7273,61.0,0.0,60.0,3.0,0.0
7274,56.0,0.0,60.0,1.0,0.0
7275,56.0,0.0,60.0,3.0,0.0
7276,53.0,0.0,60.0,3.0,0.0
7277,68.0,0.0,60.0,2.0,0.0
7278,71.0,0.0,60.0,2.0,0.0
7279,83.0,0.0,60.0,8.0,0.0
7280,49.0,0.0,60.0,3.0,0.0
7281,77.0,0.0,60.0,2.0,0.0
7282,73.0,0.0,60.0,2.0,0.0
7283,61.0,0.0,60.0,1.0,0.0
7284,73.0,0.0,60.0,0.0,0.0
7285,53.0,0.0,60.0,5.0,0.0
7286,53.0,0.0,60.0,7.0,0.0
7287,73.0,0.0,60.0,4.0,0.0
7288,49.0,0.0,60.0,7.0,0.0
7289,68.0,0.0,60.0,11.0,0.0
7290,77.0,0.0,60.0,10.0,0.0
7291,71.0,0.0,60.0,4.0,0.0
7292,49.0,144.0,60.0,12.0,0.0
7293,65.0,0.0,60.0,6.0,0.0
7294,77.0,0.0,60.0,4.0,0.0
7295,53.0,0.0,60.0,1.0,0.0
7296,49.0,0.0,60.0,5.0,0.0
7297,68.0,0.0,60.0,6.0,0.0
7298,56.0,0.0,60.0,5.0,0.0
7299,49.0,0.0,60.0,1.0,0.0
7300,80.0,0.0,60.0,4.0,0.0
7301,56.0,0.0,60.0,7.0,0.0
7302,71.0,0.0,60.0,6.0,0.0
7303,73.0,0.0,60.0,6.0,0.0
7304,61.0,0.0,60.0,7.0,0.0
7305,61.0,0.0,60.0,5.0,0.0
7306,61.0,0.0,150.0,5.0,0.0
7307,73.0,0.0,150.0,4.0,0.0
7308,69.0,0.0,150.0,4.0,0.0
7309,61.0,0.0,150.0,1.0,0.0
7310,57.0,0.0,150.0,5.0,0.0
7311,54.0,0.0,150.0,1.0,0.0
7312,54.0,0.0,150.0,5.0,0.0
7313,73.0,0.0,150.0,10.0,0.0
7314,78.0,0.0,150.0,4.0,0.0
7315,54.0,0.0,150.0,12.0,0.0
7316,57.0,0.0,150.0,1.0,0.0
7317,81.0,0.0,150.0,4.0,0.0
7318,78.0,0.0,150.0,2.0,0.0
7319,57.0,0.0,150.0,7.0,0.0
7320,81.0,0.0,150.0,0.0,0.0
7321,78.0,0.0,150.0,0.0,0.0
7322,73.0,0.0,150.0,0.0,0.0
7323,57.0,18.0,150.0,3.0,0.0
7324,61.0,0.0,150.0,3.0,0.0
7325,54.0,30.0,150.0,7.0,0.0
7326,54.0,0.0,150.0,3.0,0.0
7327,81.0,0.0,150.0,8.0,0.0
7328,66.0,0.0,150.0,2.0,0.0
7329,73.0,0.0,150.0,6.0,0.0
7330,69.0,0.0,150.0,6.0,0.0
7331,66.0,0.0,150.0,6.0,0.0
7332,73.0,0.0,150.0,2.0,0.0
7333,69.0,0.0,150.0,2.0,0.0
7334,61.0,0.0,150.0,7.0,0.0
7335,66.0,0.0,150.0,11.0,0.0
7336,66.0,0.0,60.0,3.0,0.0
7337,66.0,144.0,60.0,6.0,0.0
7338,64.0,48.0,150.0,3.0,0.0
7339,66.0,0.0,150.0,6.0,0.0
7340,63.0,0.0,60.0,3.0,0.0
7341,68.0,144.0,60.0,6.0,0.0
7342,70.0,0.0,150.0,6.0,0.0
7343,61.0,48.0,150.0,3.0,0.0
7344,59.0,144.0,60.0,3.0,0.0
7345,71.0,0.0,60.0,6.0,0.0
7346,58.0,48.0,150.0,3.0,0.0
7347,73.0,0.0,750.0,6.0,0.0
7348,61.0,144.0,60.0,3.0,0.0
7349,70.0,0.0,60.0,2.0,0.0
7350,66.0,0.0,60.0,7.0,0.0
7351,61.0,0.0,150.0,3.0,0.0
7352,64.0,0.0,150.0,7.0,0.0
7353,70.0,48.0,150.0,2.0,0.0
7354,63.0,0.0,60.0,7.0,0.0
7355,59.0,0.0,60.0,3.0,0.0
7356,71.0,144.0,60.0,2.0,0.0
7357,58.0,0.0,150.0,3.0,0.0
7358,61.0,48.0,150.0,7.0,0.0
7359,73.0,0.0,150.0,2.0,0.0
7360,56.0,0.0,60.0,3.0,0.0
7361,59.0,0.0,60.0,7.0,0.0
7362,75.0,144.0,60.0,2.0,0.0
7363,54.0,0.0,150.0,2.0,0.0
7364,76.0,30.0,150.0,2.0,0.0
7365,58.0,18.0,150.0,7.0,0.0
7366,66.0,0.0,60.0,5.0,0.0
7367,61.0,0.0,60.0,5.0,0.0
7368,58.0,0.0,60.0,5.0,0.0
7369,54.0,0.0,60.0,5.0,0.0
7370,61.0,0.0,60.0,1.0,0.0
7371,58.0,0.0,60.0,1.0,0.0
7372,82.0,0.0,60.0,8.0,0.0
7373,54.0,0.0,60.0,12.0,0.0
7374,42.0,0.0,60.0,7.0,0.0
7375,73.0,0.0,60.0,4.0,0.0
7376,73.0,0.0,60.0,11.0,0.0
7377,70.0,0.0,60.0,4.0,0.0
7378,76.0,0.0,60.0,10.0,0.0
7379,54.0,0.0,60.0,1.0,0.0
7380,54.0,0.0,60.0,7.0,0.0
7381,66.0,0.0,60.0,1.0,0.0
7382,78.0,0.0,60.0,4.0,0.0
7383,73.0,0.0,60.0,0.0,0.0
7384,42.0,144.0,60.0,3.0,0.0
7385,76.0,0.0,60.0,0.0,0.0
7386,78.0,0.0,60.0,0.0,0.0
7387,82.0,0.0,60.0,0.0,0.0
7388,70.0,0.0,150.0,6.0,0.0
7389,66.0,0.0,150.0,6.0,0.0
7390,42.0,0.0,150.0,3.0,0.0
7391,76.0,0.0,150.0,2.0,0.0
7392,66.0,0.0,150.0,2.0,0.0
7393,73.0,0.0,150.0,2.0,0.0
7394,70.0,0.0,150.0,2.0,0.0
7395,78.0,0.0,150.0,4.0,0.0
7396,82.0,0.0,150.0,8.0,0.0
7397,73.0,0.0,150.0,6.0,0.0
7398,76.0,0.0,150.0,10.0,0.0
7399,54.0,0.0,150.0,7.0,0.0
7400,66.0,0.0,150.0,1.0,0.0
7401,76.0,0.0,150.0,0.0,0.0
7402,70.0,0.0,150.0,4.0,0.0
7403,58.0,48.0,150.0,5.0,0.0
7404,54.0,0.0,150.0,5.0,0.0
7405,54.0,0.0,150.0,12.0,0.0
7406,61.0,0.0,150.0,1.0,0.0
7407,58.0,0.0,150.0,1.0,0.0
7408,54.0,0.0,150.0,1.0,0.0
7409,61.0,0.0,150.0,5.0,0.0
7410,66.0,0.0,150.0,5.0,0.0
7411,73.0,0.0,150.0,0.0,0.0
7412,78.0,0.0,150.0,0.0,0.0
7413,82.0,0.0,150.0,0.0,0.0
7414,73.0,0.0,150.0,4.0,0.0
7415,73.0,0.0,150.0,11.0,0.0
7416,54.0,0.0,150.0,3.0,0.0
7417,42.0,0.0,150.0,7.0,0.0
7418,73.0,0.0,60.0,0.0,0.0
7419,61.0,0.0,60.0,5.0,0.0
7420,58.0,0.0,60.0,5.0,0.0
7421,54.0,144.0,60.0,5.0,0.0
7422,73.0,0.0,60.0,11.0,0.0
7423,61.0,0.0,60.0,1.0,0.0
7424,58.0,0.0,60.0,1.0,0.0
7425,54.0,0.0,60.0,1.0,0.0
7426,66.0,0.0,60.0,1.0,0.0
7427,66.0,0.0,60.0,6.0,0.0
7428,42.0,0.0,60.0,3.0,0.0
7429,70.0,0.0,60.0,6.0,0.0
7430,73.0,0.0,60.0,6.0,0.0
7431,54.0,0.0,60.0,3.0,0.0
7432,76.0,0.0,60.0,2.0,0.0
7433,66.0,0.0,60.0,5.0,0.0
7434,73.0,0.0,60.0,2.0,0.0
7435,70.0,0.0,60.0,2.0,0.0
7436,66.0,0.0,60.0,2.0,0.0
7437,76.0,0.0,60.0,0.0,0.0
7438,82.0,0.0,60.0,8.0,0.0
7439,76.0,0.0,60.0,10.0,0.0
7440,70.0,0.0,60.0,4.0,0.0
7441,73.0,0.0,60.0,4.0,0.0
7442,82.0,0.0,60.0,0.0,0.0
7443,78.0,0.0,60.0,4.0,0.0
7444,78.0,0.0,60.0,0.0,0.0
7445,54.0,0.0,60.0,7.0,0.0
7446,42.0,0.0,60.0,7.0,0.0
7447,54.0,0.0,60.0,12.0,0.0
7448,70.0,0.0,150.0,4.0,0.0
7449,73.0,0.0,150.0,4.0,0.0
7450,78.0,0.0,150.0,4.0,0.0
7451,54.0,0.0,150.0,7.0,0.0
7452,66.0,0.0,150.0,2.0,0.0
7453,70.0,0.0,150.0,2.0,0.0
7454,73.0,0.0,150.0,2.0,0.0
7455,76.0,0.0,150.0,2.0,0.0
7456,76.0,0.0,150.0,0.0,0.0
7457,42.0,48.0,150.0,7.0,0.0
7458,78.0,0.0,150.0,0.0,0.0
7459,66.0,0.0,150.0,1.0,0.0
7460,42.0,0.0,150.0,3.0,0.0
7461,76.0,0.0,150.0,10.0,0.0
7462,54.0,0.0,150.0,5.0,0.0
7463,58.0,0.0,150.0,5.0,0.0
7464,61.0,0.0,150.0,5.0,0.0
7465,66.0,0.0,150.0,5.0,0.0
7466,73.0,0.0,150.0,11.0,0.0
7467,66.0,0.0,150.0,6.0,0.0
7468,70.0,0.0,150.0,6.0,0.0
7469,73.0,0.0,150.0,6.0,0.0
7470,54.0,0.0,150.0,12.0,0.0
7471,54.0,0.0,150.0,3.0,0.0
7472,82.0,0.0,150.0,8.0,0.0
7473,54.0,0.0,150.0,1.0,0.0
7474,58.0,0.0,150.0,1.0,0.0
7475,61.0,0.0,150.0,1.0,0.0
7476,82.0,0.0,150.0,0.0,0.0
7477,73.0,0.0,150.0,0.0,0.0
7478,42.0,0.0,60.0,3.0,0.0
7479,73.0,0.0,60.0,2.0,0.0
7480,70.0,0.0,60.0,2.0,0.0
7481,73.0,0.0,60.0,0.0,0.0
7482,76.0,0.0,60.0,0.0,0.0
7483,78.0,0.0,60.0,0.0,0.0
7484,66.0,0.0,60.0,2.0,0.0
7485,58.0,0.0,60.0,1.0,0.0
7486,82.0,0.0,60.0,8.0,0.0
7487,78.0,0.0,60.0,4.0,0.0
7488,61.0,0.0,60.0,1.0,0.0
7489,66.0,0.0,60.0,1.0,0.0
7490,82.0,0.0,60.0,0.0,0.0
7491,54.0,0.0,60.0,3.0,0.0
7492,76.0,0.0,60.0,10.0,0.0
7493,73.0,0.0,60.0,4.0,0.0
7494,61.0,144.0,60.0,5.0,0.0
7495,70.0,0.0,60.0,6.0,0.0
7496,76.0,0.0,60.0,2.0,0.0
7497,66.0,0.0,60.0,6.0,0.0
7498,42.0,0.0,60.0,7.0,0.0
7499,58.0,0.0,60.0,5.0,0.0
7500,73.0,0.0,60.0,6.0,0.0
7501,54.0,0.0,60.0,7.0,0.0
7502,54.0,0.0,60.0,12.0,0.0
7503,54.0,0.0,60.0,1.0,0.0
7504,66.0,0.0,60.0,11.0,0.0
7505,70.0,0.0,60.0,4.0,0.0
7506,54.0,0.0,60.0,5.0,0.0
7507,66.0,0.0,60.0,5.0,0.0
7508,59.0,0.0,150.0,7.0,0.0
7509,63.0,0.0,150.0,5.0,0.0
7510,54.0,0.0,150.0,7.0,0.0
7511,47.0,0.0,150.0,7.0,0.0
7512,71.0,0.0,150.0,4.0,0.0
7513,75.0,0.0,150.0,4.0,0.0
7514,78.0,0.0,150.0,4.0,0.0
7515,66.0,0.0,150.0,1.0,0.0
7516,59.0,0.0,150.0,1.0,0.0
7517,63.0,0.0,150.0,1.0,0.0
7518,66.0,0.0,150.0,5.0,0.0
7519,54.0,0.0,150.0,2.0,0.0
7520,66.0,0.0,150.0,11.0,0.0
7521,59.0,0.0,150.0,3.0,0.0
7522,66.0,0.0,150.0,6.0,0.0
7523,71.0,0.0,150.0,6.0,0.0
7524,75.0,0.0,150.0,6.0,0.0
7525,47.0,0.0,150.0,12.0,0.0
7526,75.0,0.0,150.0,10.0,0.0
7527,71.0,0.0,150.0,0.0,0.0
7528,59.0,0.0,150.0,5.0,0.0
7529,78.0,0.0,150.0,0.0,0.0
7530,83.0,18.0,150.0,0.0,0.0
7531,75.0,0.0,150.0,0.0,0.0
7532,83.0,30.0,150.0,8.0,0.0
7533,75.0,0.0,150.0,2.0,0.0
7534,47.0,0.0,150.0,2.0,0.0
7535,66.0,0.0,150.0,2.0,0.0
7536,71.0,0.0,150.0,2.0,0.0
7537,71.0,144.0,60.0,6.0,0.0
7538,78.0,0.0,60.0,4.0,0.0
7539,63.0,0.0,60.0,3.0,0.0
7540,83.0,0.0,60.0,0.0,0.0
7541,71.0,0.0,150.0,6.0,0.0
7542,78.0,0.0,150.0,4.0,0.0
7543,63.0,48.0,150.0,3.0,0.0
7544,81.0,0.0,150.0,0.0,0.0
7545,64.0,0.0,60.0,3.0,0.0
7546,80.0,0.0,60.0,0.0,0.0
7547,73.0,0.0,60.0,6.0,0.0
7548,76.0,144.0,60.0,4.0,0.0
7549,75.0,0.0,150.0,6.0,0.0
7550,78.0,0.0,150.0,0.0,0.0
7551,66.0,0.0,150.0,3.0,0.0
7552,75.0,48.0,150.0,4.0,0.0
7553,73.0,0.0,60.0,4.0,0.0
7554,76.0,0.0,60.0,0.0,0.0
7555,76.0,144.0,60.0,6.0,0.0
7556,68.0,0.0,60.0,3.0,0.0
7557,71.0,0.0,720.0,5.0,0.0
7558,69.0,0.0,150.0,3.0,0.0
7559,78.0,0.0,720.0,6.0,0.0
7560,75.0,48.0,150.0,0.0,0.0
7561,71.0,0.0,60.0,7.0,0.0
7562,75.0,144.0,60.0,2.0,0.0
7563,78.0,0.0,60.0,4.0,0.0
7564,75.0,0.0,60.0,0.0,0.0
7565,78.0,0.0,60.0,0.0,0.0
7566,66.0,0.0,60.0,3.0,0.0
7567,66.0,0.0,150.0,3.0,0.0
7568,75.0,0.0,150.0,2.0,0.0
7569,83.0,0.0,150.0,0.0,0.0
7570,69.0,48.0,150.0,7.0,0.0
7571,75.0,0.0,150.0,0.0,0.0
7572,78.0,0.0,150.0,4.0,0.0
7573,76.0,144.0,60.0,2.0,0.0
7574,68.0,0.0,60.0,7.0,0.0
7575,80.0,0.0,60.0,4.0,0.0
7576,85.0,0.0,60.0,0.0,0.0
7577,64.0,0.0,60.0,3.0,0.0
7578,73.0,0.0,60.0,0.0,0.0
7579,78.0,0.0,150.0,2.0,0.0
7580,71.0,48.0,150.0,0.0,0.0
7581,87.0,0.0,150.0,0.0,0.0
7582,66.0,0.0,150.0,7.0,0.0
7583,63.0,0.0,150.0,3.0,0.0
7584,81.0,0.0,150.0,4.0,0.0
7585,85.0,0.0,60.0,4.0,0.0
7586,64.0,0.0,60.0,0.0,0.0
7587,88.0,0.0,60.0,0.0,0.0
7588,80.0,0.0,60.0,2.0,0.0
7589,64.0,144.0,60.0,7.0,0.0
7590,61.0,0.0,60.0,3.0,0.0
7591,63.0,0.0,150.0,7.0,0.0
7592,81.0,0.0,150.0,2.0,0.0
7593,59.0,0.0,150.0,3.0,0.0
7594,90.0,0.0,150.0,0.0,0.0
7595,71.0,0.0,150.0,0.0,0.0
7596,75.0,48.0,150.0,4.0,0.0
7597,59.0,0.0,60.0,3.0,0.0
7598,59.0,0.0,60.0,1.0,0.0
7599,66.0,0.0,60.0,1.0,0.0
7600,75.0,0.0,60.0,10.0,0.0
7601,63.0,144.0,60.0,1.0,0.0
7602,47.0,0.0,60.0,3.0,0.0
7603,81.0,0.0,60.0,0.0,0.0
7604,78.0,0.0,60.0,0.0,0.0
7605,75.0,0.0,60.0,0.0,0.0
7606,71.0,0.0,60.0,0.0,0.0
7607,78.0,0.0,60.0,2.0,0.0
7608,75.0,0.0,60.0,2.0,0.0
7609,71.0,0.0,60.0,2.0,0.0
7610,47.0,0.0,60.0,12.0,0.0
7611,81.0,0.0,60.0,8.0,0.0
7612,59.0,0.0,60.0,5.0,0.0
7613,75.0,0.0,60.0,4.0,0.0
7614,66.0,0.0,60.0,11.0,0.0
7615,71.0,0.0,60.0,4.0,0.0
7616,47.0,0.0,60.0,7.0,0.0
7617,63.0,0.0,60.0,5.0,0.0
7618,69.0,0.0,60.0,4.0,0.0
7619,66.0,0.0,60.0,4.0,0.0
7620,51.0,0.0,60.0,7.0,0.0
7621,71.0,0.0,60.0,6.0,0.0
7622,54.0,0.0,60.0,7.0,0.0
7623,59.0,0.0,60.0,7.0,0.0
7624,66.0,0.0,60.0,6.0,0.0
7625,63.0,0.0,60.0,6.0,0.0
7626,54.0,0.0,60.0,3.0,0.0
7627,51.0,0.0,60.0,3.0,0.0
7628,47.0,0.0,150.0,12.0,0.0
7629,59.0,0.0,150.0,3.0,0.0
7630,54.0,0.0,150.0,3.0,0.0
7631,71.0,0.0,150.0,6.0,0.0
7632,59.0,0.0,150.0,1.0,0.0
7633,63.0,0.0,150.0,6.0,0.0
7634,59.0,0.0,150.0,5.0,0.0
7635,63.0,0.0,150.0,5.0,0.0
7636,47.0,0.0,150.0,3.0,0.0
7637,66.0,0.0,150.0,6.0,0.0
7638,75.0,48.0,150.0,10.0,0.0
7639,51.0,0.0,150.0,3.0,0.0
7640,63.0,0.0,150.0,1.0,0.0
7641,81.0,0.0,150.0,8.0,0.0
7642,71.0,0.0,150.0,0.0,0.0
7643,71.0,0.0,150.0,2.0,0.0
7644,75.0,0.0,150.0,0.0,0.0
7645,78.0,0.0,150.0,0.0,0.0
7646,81.0,0.0,150.0,0.0,0.0
7647,75.0,0.0,150.0,4.0,0.0
7648,75.0,0.0,150.0,2.0,0.0
7649,71.0,0.0,150.0,4.0,0.0
7650,78.0,0.0,150.0,2.0,0.0
7651,66.0,0.0,150.0,4.0,0.0
7652,66.0,0.0,150.0,11.0,0.0
7653,59.0,0.0,150.0,7.0,0.0
7654,54.0,0.0,150.0,7.0,0.0
7655,51.0,0.0,150.0,7.0,0.0
7656,47.0,0.0,150.0,7.0,0.0
7657,66.0,0.0,150.0,1.0,0.0
7658,69.0,0.0,150.0,4.0,0.0
7659,71.0,0.0,60.0,4.0,0.0
7660,47.0,0.0,60.0,12.0,0.0
7661,51.0,0.0,60.0,7.0,0.0
7662,47.0,0.0,60.0,7.0,0.0
7663,63.0,0.0,60.0,6.0,0.0
7664,66.0,0.0,60.0,6.0,0.0
7665,71.0,0.0,60.0,6.0,0.0
7666,47.0,0.0,60.0,3.0,0.0
7667,63.0,144.0,60.0,5.0,0.0
7668,51.0,0.0,60.0,3.0,0.0
7669,66.0,0.0,60.0,11.0,0.0
7670,75.0,0.0,60.0,10.0,0.0
7671,71.0,0.0,60.0,0.0,0.0
7672,81.0,0.0,60.0,0.0,0.0
7673,78.0,0.0,60.0,0.0,0.0
7674,75.0,0.0,60.0,0.0,0.0
7675,81.0,0.0,60.0,8.0,0.0
7676,54.0,0.0,60.0,3.0,0.0
7677,59.0,0.0,60.0,5.0,0.0
7678,54.0,0.0,60.0,7.0,0.0
7679,59.0,0.0,60.0,3.0,0.0
7680,66.0,0.0,60.0,1.0,0.0
7681,63.0,0.0,60.0,1.0,0.0
7682,59.0,0.0,60.0,1.0,0.0
7683,66.0,0.0,60.0,4.0,0.0
7684,78.0,0.0,60.0,2.0,0.0
7685,75.0,0.0,60.0,2.0,0.0
7686,69.0,0.0,60.0,4.0,0.0
7687,71.0,0.0,60.0,2.0,0.0
7688,59.0,0.0,60.0,7.0,0.0
7689,75.0,0.0,60.0,4.0,0.0
7690,47.0,0.0,150.0,12.0,0.0
7691,71.0,0.0,150.0,2.0,0.0
7692,75.0,0.0,150.0,2.0,0.0
7693,81.0,0.0,150.0,8.0,0.0
7694,59.0,0.0,150.0,5.0,0.0
7695,63.0,0.0,150.0,6.0,0.0
7696,78.0,0.0,150.0,2.0,0.0
7697,59.0,0.0,150.0,1.0,0.0
7698,63.0,0.0,150.0,1.0,0.0
7699,47.0,0.0,150.0,3.0,0.0
7700,51.0,0.0,150.0,3.0,0.0
7701,66.0,0.0,150.0,1.0,0.0
7702,63.0,0.0,150.0,5.0,0.0
7703,47.0,0.0,150.0,7.0,0.0
7704,51.0,0.0,150.0,7.0,0.0
7705,54.0,0.0,150.0,3.0,0.0
7706,59.0,0.0,150.0,3.0,0.0
7707,59.0,0.0,150.0,7.0,0.0
7708,54.0,0.0,150.0,7.0,0.0
7709,66.0,0.0,150.0,6.0,0.0
7710,71.0,0.0,150.0,6.0,0.0
7711,75.0,0.0,150.0,4.0,0.0
7712,71.0,0.0,150.0,4.0,0.0
7713,75.0,0.0,150.0,10.0,0.0
7714,69.0,48.0,150.0,4.0,0.0
7715,71.0,0.0,150.0,0.0,0.0
7716,66.0,0.0,150.0,4.0,0.0
7717,78.0,0.0,150.0,0.0,0.0
7718,81.0,0.0,150.0,0.0,0.0
7719,75.0,0.0,150.0,0.0,0.0
7720,66.0,0.0,150.0,11.0,0.0
7721,63.0,0.0,60.0,1.0,0.0
7722,66.0,0.0,60.0,1.0,0.0
7723,78.0,0.0,60.0,2.0,0.0
7724,51.0,0.0,60.0,7.0,0.0
7725,54.0,0.0,60.0,7.0,0.0
7726,59.0,0.0,60.0,7.0,0.0
7727,47.0,0.0,60.0,3.0,0.0
7728,71.0,0.0,60.0,2.0,0.0
7729,75.0,0.0,60.0,2.0,0.0
7730,47.0,0.0,60.0,7.0,0.0
7731,75.0,0.0,60.0,10.0,0.0
7732,59.0,0.0,60.0,1.0,0.0
7733,75.0,0.0,60.0,4.0,0.0
7734,69.0,0.0,60.0,4.0,0.0
7735,63.0,0.0,60.0,5.0,0.0
7736,66.0,0.0,60.0,4.0,0.0
7737,66.0,0.0,60.0,11.0,0.0
7738,47.0,144.0,60.0,12.0,0.0
7739,59.0,0.0,60.0,5.0,0.0
7740,81.0,0.0,60.0,8.0,0.0
7741,59.0,0.0,60.0,3.0,0.0
7742,54.0,0.0,60.0,3.0,0.0
7743,81.0,0.0,60.0,0.0,0.0
7744,78.0,0.0,60.0,0.0,0.0
7745,51.0,0.0,60.0,3.0,0.0
7746,71.0,0.0,60.0,0.0,0.0
7747,71.0,0.0,60.0,4.0,0.0
7748,63.0,0.0,60.0,6.0,0.0
7749,66.0,0.0,60.0,6.0,0.0
7750,71.0,0.0,60.0,6.0,0.0
7751,75.0,0.0,60.0,0.0,0.0
7752,71.0,0.0,150.0,6.0,0.0
7753,52.0,0.0,1110.0,1.0,0.0
7754,59.0,0.0,150.0,4.0,0.0
7755,71.0,0.0,150.0,10.0,0.0
7756,64.0,0.0,150.0,4.0,0.0
7757,71.0,0.0,150.0,4.0,0.0
7758,76.0,0.0,150.0,2.0,0.0
7759,71.0,0.0,150.0,2.0,0.0
7760,59.0,0.0,150.0,2.0,0.0
7761,52.0,0.0,1110.0,7.0,0.0
7762,76.0,0.0,150.0,4.0,0.0
7763,80.0,0.0,150.0,2.0,0.0
7764,52.0,0.0,1110.0,5.0,0.0
7765,59.0,0.0,150.0,7.0,0.0
7766,52.0,0.0,1110.0,12.0,0.0
7767,71.0,30.0,150.0,0.0,0.0
7768,80.0,18.0,150.0,0.0,0.0
7769,64.0,0.0,150.0,11.0,0.0
7770,80.0,0.0,150.0,8.0,0.0
7771,64.0,0.0,150.0,6.0,0.0
7772,52.0,46.0,1110.0,3.0,0.0
7773,68.0,0.0,150.0,6.0,0.0
7774,64.0,0.0,1110.0,1.0,0.0
7775,76.0,0.0,15.0,0.0,0.0
7776,68.0,0.0,15.0,4.0,0.0
7777,68.0,48.0,150.0,4.0,0.0
7778,76.0,0.0,150.0,0.0,0.0
7779,71.0,144.0,60.0,4.0,0.0
7780,80.0,0.0,60.0,0.0,0.0
7781,71.0,0.0,150.0,4.0,0.0
7782,80.0,48.0,150.0,0.0,0.0
7783,76.0,0.0,60.0,4.0,0.0
7784,85.0,144.0,60.0,0.0,0.0
7785,85.0,18.0,150.0,0.0,0.0
7786,80.0,0.0,150.0,10.0,0.0
7787,76.0,0.0,150.0,4.0,0.0
7788,61.0,30.0,150.0,11.0,0.0
7789,85.0,0.0,150.0,8.0,0.0
7790,88.0,0.0,60.0,2.0,0.0
7791,80.0,0.0,60.0,0.0,0.0
7792,80.0,0.0,60.0,6.0,0.0
7793,73.0,144.0,60.0,4.0,0.0
7794,88.0,48.0,150.0,2.0,0.0
7795,80.0,0.0,150.0,0.0,0.0
7796,73.0,0.0,150.0,4.0,0.0
7797,80.0,0.0,150.0,6.0,0.0
7798,85.0,0.0,60.0,0.0,0.0
7799,76.0,0.0,60.0,4.0,0.0
7800,85.0,0.0,60.0,2.0,0.0
7801,76.0,144.0,60.0,6.0,0.0
7802,85.0,0.0,150.0,0.0,0.0
7803,85.0,0.0,150.0,2.0,0.0
7804,76.0,0.0,150.0,4.0,0.0
7805,76.0,2.0,150.0,6.0,0.0
7806,80.0,0.0,60.0,4.0,0.0
7807,82.0,0.0,60.0,2.0,0.0
7808,88.0,144.0,60.0,0.0,0.0
7809,73.0,0.0,60.0,6.0,0.0
7810,79.0,0.0,330.0,10.0,0.0
7811,63.0,0.0,150.0,11.0,0.0
7812,82.0,0.0,330.0,2.0,0.0
7813,51.0,0.0,150.0,3.0,0.0
7814,51.0,48.0,150.0,1.0,0.0
7815,73.0,0.0,150.0,6.0,0.0
7816,51.0,0.0,150.0,12.0,0.0
7817,82.0,0.0,330.0,8.0,0.0
7818,79.0,0.0,330.0,4.0,0.0
7819,82.0,46.0,330.0,0.0,0.0
7820,51.0,0.0,150.0,7.0,0.0
7821,51.0,0.0,150.0,5.0,0.0
7822,70.0,0.0,60.0,11.0,0.0
7823,51.0,0.0,60.0,1.0,0.0
7824,79.0,0.0,60.0,6.0,0.0
7825,51.0,144.0,60.0,7.0,0.0
7826,63.0,0.0,60.0,3.0,0.0
7827,51.0,0.0,60.0,12.0,0.0
7828,70.0,0.0,60.0,5.0,0.0
7829,63.0,0.0,150.0,3.0,0.0
7830,49.0,0.0,150.0,1.0,0.0
7831,79.0,0.0,150.0,6.0,0.0
7832,70.0,2.0,150.0,5.0,0.0
7833,70.0,0.0,150.0,11.0,0.0
7834,49.0,0.0,150.0,12.0,0.0
7835,49.0,0.0,150.0,7.0,0.0
7836,63.0,144.0,60.0,3.0,0.0
7837,49.0,0.0,60.0,12.0,0.0
7838,75.0,0.0,60.0,11.0,0.0
7839,70.0,0.0,60.0,5.0,0.0
7840,49.0,0.0,60.0,7.0,0.0
7841,79.0,0.0,60.0,6.0,0.0
7842,49.0,0.0,60.0,1.0,0.0
7843,47.0,0.0,150.0,1.0,0.0
7844,47.0,0.0,150.0,7.0,0.0
7845,80.0,6.0,360.0,10.0,0.0
7846,47.0,0.0,150.0,12.0,0.0
7847,63.0,0.0,150.0,3.0,0.0
7848,83.0,0.0,240.0,2.0,0.0
7849,75.0,48.0,150.0,11.0,0.0
7850,68.0,0.0,150.0,5.0,0.0
7851,83.0,0.0,240.0,0.0,0.0
7852,83.0,0.0,360.0,8.0,0.0
7853,80.0,12.0,240.0,4.0,0.0
7854,80.0,0.0,240.0,6.0,0.0
7855,47.0,0.0,60.0,12.0,0.0
7856,59.0,0.0,60.0,5.0,0.0
7857,63.0,0.0,60.0,11.0,0.0
7858,63.0,36.0,60.0,3.0,0.0
7859,47.0,0.0,60.0,1.0,0.0
7860,47.0,0.0,60.0,7.0,0.0
7861,64.0,0.0,150.0,11.0,0.0
7862,59.0,0.0,150.0,5.0,0.0
7863,64.0,18.0,150.0,3.0,0.0
7864,49.0,0.0,150.0,7.0,0.0
7865,49.0,0.0,150.0,12.0,0.0
7866,49.0,0.0,150.0,1.0,0.0
7867,82.0,0.0,15.0,6.0,0.0
7868,82.0,0.0,15.0,4.0,0.0
7869,85.0,0.0,15.0,2.0,0.0
7870,85.0,12.0,15.0,0.0,0.0
7871,80.0,0.0,15.0,6.0,0.0
7872,83.0,12.0,15.0,0.0,0.0
7873,80.0,0.0,15.0,4.0,0.0
7874,83.0,0.0,15.0,2.0,0.0
7875,82.0,0.0,15.0,0.0,0.0
7876,82.0,0.0,15.0,2.0,0.0
7877,79.0,0.0,15.0,4.0,0.0
7878,79.0,48.0,15.0,6.0,0.0
7879,80.0,0.0,60.0,6.0,0.0
7880,80.0,24.0,60.0,4.0,0.0
7881,83.0,0.0,60.0,0.0,0.0
7882,83.0,0.0,60.0,2.0,0.0
7883,85.0,0.0,60.0,0.0,0.0
7884,85.0,0.0,60.0,2.0,0.0
7885,82.0,24.0,60.0,6.0,0.0
7886,82.0,0.0,60.0,4.0,0.0
7887,49.0,0.0,60.0,1.0,0.0
7888,49.0,0.0,60.0,7.0,0.0
7889,64.0,0.0,60.0,5.0,0.0
7890,76.0,0.0,60.0,11.0,0.0
7891,61.0,0.0,60.0,3.0,0.0
7892,49.0,0.0,60.0,12.0,0.0
7893,83.0,0.0,20.0,4.0,0.0
7894,80.0,0.0,20.0,0.0,0.0
7895,80.0,0.0,20.0,2.0,0.0
7896,83.0,24.0,20.0,6.0,0.0
7897,63.0,0.0,150.0,5.0,0.0
7898,51.0,0.0,150.0,1.0,0.0
7899,79.0,0.0,20.0,0.0,0.0
7900,70.0,0.0,150.0,11.0,0.0
7901,79.0,46.0,330.0,10.0,0.0
7902,58.0,0.0,150.0,3.0,0.0
7903,51.0,0.0,150.0,7.0,0.0
7904,82.0,0.0,20.0,4.0,0.0
7905,51.0,0.0,150.0,12.0,0.0
7906,82.0,0.0,20.0,6.0,0.0
7907,79.0,12.0,20.0,2.0,0.0
7908,82.0,0.0,330.0,8.0,0.0
7909,80.0,0.0,15.0,2.0,0.0
7910,80.0,0.0,15.0,0.0,0.0
7911,83.0,0.0,15.0,4.0,0.0
7912,83.0,12.0,15.0,6.0,0.0
7913,79.0,0.0,15.0,0.0,0.0
7914,79.0,0.0,15.0,2.0,0.0
7915,82.0,12.0,15.0,4.0,0.0
7916,82.0,0.0,15.0,6.0,0.0
7917,83.0,12.0,15.0,4.0,0.0
7918,80.0,0.0,15.0,2.0,0.0
7919,80.0,0.0,15.0,0.0,0.0
7920,83.0,0.0,15.0,6.0,0.0
7921,79.0,0.0,15.0,2.0,0.0
7922,82.0,12.0,15.0,4.0,0.0
7923,82.0,0.0,15.0,6.0,0.0
7924,79.0,0.0,15.0,0.0,0.0
7925,80.0,0.0,15.0,2.0,0.0
7926,80.0,0.0,15.0,0.0,0.0
7927,83.0,12.0,15.0,6.0,0.0
7928,83.0,0.0,15.0,4.0,0.0
7929,79.0,0.0,15.0,2.0,0.0
7930,79.0,12.0,15.0,0.0,0.0
7931,82.0,0.0,15.0,6.0,0.0
7932,82.0,0.0,15.0,4.0,0.0
7933,83.0,12.0,15.0,4.0,0.0
7934,83.0,0.0,15.0,6.0,0.0
7935,80.0,0.0,15.0,0.0,0.0
7936,80.0,0.0,15.0,2.0,0.0
7937,79.0,0.0,15.0,0.0,0.0
7938,82.0,0.0,15.0,6.0,0.0
7939,82.0,0.0,15.0,4.0,0.0
7940,79.0,12.0,15.0,2.0,0.0
7941,83.0,0.0,15.0,6.0,0.0
7942,83.0,12.0,15.0,4.0,0.0
7943,80.0,0.0,15.0,2.0,0.0
7944,80.0,0.0,15.0,0.0,0.0
7945,82.0,0.0,15.0,4.0,0.0
7946,79.0,0.0,15.0,2.0,0.0
7947,82.0,12.0,15.0,6.0,0.0
7948,79.0,0.0,15.0,0.0,0.0
7949,51.0,0.0,60.0,1.0,0.0
7950,51.0,0.0,60.0,7.0,0.0
7951,61.0,0.0,60.0,5.0,0.0
7952,51.0,0.0,60.0,5.0,0.0
7953,80.0,0.0,15.0,0.0,0.0
7954,58.0,12.0,60.0,11.0,0.0
7955,80.0,12.0,15.0,2.0,0.0
7956,83.0,0.0,15.0,4.0,0.0
7957,51.0,0.0,60.0,12.0,0.0
7958,83.0,0.0,15.0,6.0,0.0
7959,58.0,0.0,60.0,3.0,0.0
7960,51.0,0.0,60.0,3.0,0.0
7961,82.0,12.0,15.0,6.0,0.0
7962,79.0,0.0,15.0,0.0,0.0
7963,82.0,0.0,15.0,4.0,0.0
7964,79.0,0.0,15.0,2.0,0.0
7965,80.0,0.0,15.0,0.0,0.0
7966,83.0,12.0,15.0,6.0,0.0
7967,83.0,0.0,15.0,4.0,0.0
7968,80.0,0.0,15.0,2.0,0.0
7969,79.0,0.0,15.0,0.0,0.0
7970,82.0,0.0,15.0,6.0,0.0
7971,79.0,0.0,15.0,2.0,0.0
7972,82.0,0.0,15.0,4.0,0.0
7973,51.0,0.0,150.0,12.0,0.0
7974,51.0,0.0,150.0,1.0,0.0
7975,80.0,0.0,15.0,0.0,0.0
7976,51.0,2.0,150.0,3.0,0.0
7977,61.0,0.0,150.0,5.0,0.0
7978,51.0,0.0,150.0,5.0,0.0
7979,51.0,0.0,150.0,7.0,0.0
7980,83.0,12.0,15.0,4.0,0.0
7981,83.0,0.0,15.0,6.0,0.0
7982,58.0,0.0,150.0,11.0,0.0
7983,80.0,0.0,15.0,2.0,0.0
7984,58.0,0.0,150.0,3.0,0.0
7985,82.0,0.0,15.0,4.0,0.0
7986,82.0,0.0,15.0,6.0,0.0
7987,79.0,0.0,15.0,2.0,0.0
7988,79.0,12.0,15.0,0.0,0.0
7989,80.0,0.0,15.0,0.0,0.0
7990,80.0,12.0,15.0,2.0,0.0
7991,83.0,0.0,15.0,6.0,0.0
7992,83.0,0.0,15.0,4.0,0.0
7993,82.0,0.0,15.0,6.0,0.0
7994,79.0,12.0,15.0,0.0,0.0
7995,82.0,0.0,15.0,4.0,0.0
7996,79.0,0.0,15.0,2.0,0.0
7997,80.0,0.0,15.0,2.0,0.0
7998,83.0,0.0,15.0,4.0,0.0
7999,83.0,0.0,15.0,6.0,0.0
8000,80.0,12.0,15.0,0.0,0.0
8001,79.0,0.0,15.0,0.0,0.0
8002,79.0,0.0,15.0,2.0,0.0
8003,82.0,12.0,15.0,6.0,0.0
8004,82.0,0.0,15.0,4.0,0.0
8005,83.0,12.0,15.0,4.0,0.0
8006,80.0,0.0,15.0,2.0,0.0
8007,80.0,0.0,15.0,0.0,0.0
8008,83.0,0.0,15.0,6.0,0.0
8009,82.0,0.0,15.0,6.0,0.0
8010,79.0,0.0,15.0,0.0,0.0
8011,79.0,0.0,15.0,2.0,0.0
8012,82.0,48.0,15.0,4.0,0.0
8013,80.0,0.0,90.0,4.0,0.0
8014,80.0,0.0,90.0,2.0,0.0
8015,80.0,0.0,90.0,0.0,0.0
8016,80.0,0.0,90.0,6.0,0.0
8017,51.0,530.0,60.0,12.0,0.0
8018,58.0,0.0,60.0,3.0,0.0
8019,51.0,0.0,60.0,7.0,0.0
8020,58.0,0.0,60.0,11.0,0.0
8021,61.0,0.0,60.0,5.0,0.0
8022,51.0,0.0,60.0,5.0,0.0
8023,51.0,0.0,60.0,3.0,0.0
8024,51.0,0.0,60.0,1.0,0.0
8025,44.0,0.0,540.0,12.0,0.0
8026,80.0,0.0,540.0,6.0,0.0
8027,60.0,0.0,540.0,5.0,0.0
8028,56.0,0.0,540.0,5.0,0.0
8029,80.0,0.0,540.0,4.0,0.0
8030,44.0,0.0,540.0,1.0,0.0
8031,80.0,70.0,540.0,2.0,0.0
8032,80.0,0.0,540.0,0.0,0.0
8033,80.0,0.0,540.0,8.0,0.0
8034,60.0,0.0,540.0,11.0,0.0
8035,75.0,0.0,540.0,10.0,0.0
8036,44.0,0.0,540.0,7.0,0.0
8037,60.0,0.0,540.0,3.0,0.0
8038,56.0,0.0,540.0,3.0,0.0
8039,80.0,24.0,60.0,2.0,0.0
8040,73.0,0.0,60.0,4.0,0.0
8041,76.0,0.0,60.0,6.0,0.0
8042,49.0,0.0,90.0,3.0,0.0
8043,68.0,24.0,20.0,0.0,0.0
8044,68.0,0.0,90.0,7.0,0.0
8045,64.0,0.0,90.0,5.0,0.0
8046,73.0,0.0,20.0,0.0,0.0
8047,76.0,0.0,60.0,2.0,0.0
8048,76.0,24.0,20.0,0.0,0.0
8049,73.0,0.0,60.0,6.0,0.0
8050,76.0,24.0,60.0,4.0,0.0
8051,80.0,0.0,20.0,0.0,0.0
8052,76.0,0.0,60.0,6.0,0.0
8053,68.0,0.0,90.0,7.0,0.0
8054,64.0,0.0,90.0,5.0,0.0
8055,80.0,0.0,60.0,4.0,0.0
8056,49.0,24.0,90.0,3.0,0.0
8057,85.0,24.0,20.0,0.0,0.0
8058,73.0,24.0,60.0,2.0,0.0
8059,80.0,0.0,20.0,0.0,0.0
8060,80.0,0.0,60.0,2.0,0.0
8061,73.0,0.0,60.0,6.0,0.0
8062,76.0,0.0,60.0,4.0,0.0
8063,76.0,24.0,20.0,0.0,0.0
8064,73.0,0.0,20.0,0.0,0.0
8065,68.0,0.0,90.0,7.0,0.0
8066,76.0,24.0,60.0,6.0,0.0
8067,64.0,0.0,90.0,5.0,0.0
8068,73.0,0.0,60.0,4.0,0.0
8069,68.0,24.0,20.0,0.0,0.0
8070,49.0,24.0,90.0,3.0,0.0
8071,80.0,0.0,60.0,2.0,0.0
8072,73.0,0.0,20.0,0.0,0.0
8073,73.0,0.0,60.0,6.0,0.0
8074,76.0,0.0,60.0,4.0,0.0
8075,76.0,24.0,20.0,0.0,0.0
8076,76.0,0.0,60.0,2.0,0.0
8077,80.0,0.0,20.0,0.0,0.0
8078,80.0,0.0,60.0,4.0,0.0
8079,85.0,24.0,20.0,0.0,0.0
8080,68.0,0.0,90.0,7.0,0.0
8081,76.0,0.0,60.0,6.0,0.0
8082,73.0,0.0,60.0,2.0,0.0
8083,49.0,0.0,90.0,3.0,0.0
8084,64.0,0.0,90.0,5.0,0.0
8085,80.0,24.0,20.0,0.0,0.0
8086,76.0,0.0,60.0,4.0,0.0
8087,80.0,0.0,60.0,2.0,0.0
8088,76.0,24.0,20.0,0.0,0.0
8089,73.0,0.0,60.0,6.0,0.0
8090,73.0,24.0,20.0,0.0,0.0
8091,49.0,0.0,90.0,3.0,0.0
8092,80.0,0.0,60.0,2.0,0.0
8093,68.0,24.0,20.0,0.0,0.0
8094,68.0,0.0,90.0,7.0,0.0
8095,64.0,24.0,90.0,5.0,0.0
8096,76.0,0.0,60.0,6.0,0.0
8097,73.0,24.0,60.0,4.0,0.0
8098,73.0,0.0,20.0,0.0,0.0
8099,73.0,0.0,60.0,6.0,0.0
8100,76.0,0.0,60.0,2.0,0.0
8101,76.0,0.0,60.0,4.0,0.0
8102,76.0,24.0,20.0,0.0,0.0
8103,80.0,0.0,20.0,0.0,0.0
8104,76.0,0.0,60.0,6.0,0.0
8105,85.0,24.0,20.0,0.0,0.0
8106,64.0,0.0,90.0,5.0,0.0
8107,49.0,0.0,90.0,3.0,0.0
8108,68.0,0.0,90.0,7.0,0.0
8109,80.0,24.0,60.0,4.0,0.0
8110,73.0,0.0,60.0,2.0,0.0
8111,80.0,0.0,20.0,0.0,0.0
8112,76.0,24.0,20.0,0.0,0.0
8113,73.0,0.0,60.0,6.0,0.0
8114,76.0,0.0,60.0,4.0,0.0
8115,80.0,0.0,60.0,2.0,0.0
8116,73.0,24.0,20.0,0.0,0.0
8117,68.0,24.0,20.0,0.0,0.0
8118,72.0,24.0,60.0,4.0,0.0
8119,56.0,0.0,90.0,3.0,0.0
8120,80.0,0.0,60.0,2.0,0.0
8121,68.0,0.0,90.0,7.0,0.0
8122,75.0,0.0,60.0,6.0,0.0
8123,68.0,0.0,90.0,5.0,0.0
8124,75.0,0.0,20.0,0.0,0.0
8125,75.0,0.0,60.0,4.0,0.0
8126,78.0,24.0,20.0,0.0,0.0
8127,75.0,0.0,60.0,2.0,0.0
8128,72.0,24.0,60.0,6.0,0.0
8129,80.0,0.0,20.0,0.0,0.0
8130,56.0,0.0,90.0,3.0,0.0
8131,84.0,24.0,20.0,0.0,0.0
8132,72.0,0.0,60.0,2.0,0.0
8133,80.0,0.0,60.0,4.0,0.0
8134,68.0,0.0,90.0,5.0,0.0
8135,75.0,0.0,60.0,6.0,0.0
8136,68.0,0.0,90.0,7.0,0.0
8137,80.0,24.0,20.0,0.0,0.0
8138,78.0,24.0,20.0,0.0,0.0
8139,72.0,0.0,60.0,6.0,0.0
8140,80.0,0.0,60.0,2.0,0.0
8141,75.0,0.0,60.0,4.0,0.0
8142,75.0,24.0,20.0,0.0,0.0
8143,68.0,24.0,20.0,0.0,0.0
8144,68.0,24.0,90.0,7.0,0.0
8145,72.0,0.0,60.0,4.0,0.0
8146,56.0,0.0,90.0,3.0,0.0
8147,63.0,0.0,90.0,5.0,0.0
8148,80.0,24.0,60.0,2.0,0.0
8149,75.0,0.0,60.0,6.0,0.0
8150,75.0,0.0,20.0,0.0,0.0
8151,72.0,0.0,60.0,6.0,0.0
8152,78.0,24.0,20.0,0.0,0.0
8153,75.0,0.0,60.0,4.0,0.0
8154,75.0,0.0,60.0,2.0,0.0
8155,80.0,0.0,20.0,0.0,0.0
8156,84.0,24.0,20.0,0.0,0.0
8157,72.0,0.0,60.0,2.0,0.0
8158,56.0,0.0,90.0,3.0,0.0
8159,68.0,24.0,90.0,7.0,0.0
8160,75.0,0.0,60.0,6.0,0.0
8161,80.0,24.0,60.0,4.0,0.0
8162,63.0,0.0,90.0,5.0,0.0
8163,80.0,0.0,20.0,0.0,0.0
8164,78.0,24.0,20.0,0.0,0.0
8165,75.0,0.0,60.0,4.0,0.0
8166,80.0,0.0,60.0,2.0,0.0
8167,72.0,0.0,60.0,6.0,0.0
8168,75.0,0.0,20.0,0.0,0.0
8169,68.0,24.0,20.0,0.0,0.0
8170,80.0,0.0,60.0,2.0,0.0
8171,56.0,0.0,90.0,3.0,0.0
8172,68.0,0.0,90.0,7.0,0.0
8173,75.0,24.0,60.0,6.0,0.0
8174,72.0,0.0,60.0,4.0,0.0
8175,66.0,0.0,90.0,5.0,0.0
8176,75.0,0.0,20.0,0.0,0.0
8177,75.0,0.0,60.0,2.0,0.0
8178,75.0,0.0,60.0,4.0,0.0
8179,78.0,24.0,20.0,0.0,0.0
8180,72.0,0.0,60.0,6.0,0.0
8181,80.0,24.0,20.0,0.0,0.0
8182,72.0,24.0,60.0,2.0,0.0
8183,75.0,0.0,60.0,6.0,0.0
8184,84.0,24.0,20.0,0.0,0.0
8185,56.0,0.0,90.0,3.0,0.0
8186,66.0,0.0,90.0,5.0,0.0
8187,68.0,0.0,90.0,7.0,0.0
8188,80.0,0.0,60.0,4.0,0.0
8189,80.0,0.0,20.0,0.0,0.0
8190,80.0,24.0,60.0,2.0,0.0
8191,75.0,0.0,60.0,4.0,0.0
8192,72.0,0.0,60.0,6.0,0.0
8193,78.0,24.0,20.0,0.0,0.0
8194,75.0,0.0,20.0,0.0,0.0
8195,68.0,24.0,20.0,0.0,0.0
8196,68.0,24.0,90.0,7.0,0.0
8197,73.0,0.0,60.0,4.0,0.0
8198,64.0,0.0,90.0,5.0,0.0
8199,76.0,24.0,60.0,6.0,0.0
8200,80.0,0.0,60.0,2.0,0.0
8201,49.0,0.0,90.0,3.0,0.0
8202,73.0,0.0,20.0,0.0,0.0
8203,76.0,24.0,20.0,0.0,0.0
8204,73.0,0.0,60.0,6.0,0.0
8205,76.0,0.0,60.0,2.0,0.0
8206,76.0,0.0,60.0,4.0,0.0
8207,80.0,0.0,20.0,0.0,0.0
8208,76.0,0.0,60.0,6.0,0.0
8209,64.0,24.0,90.0,5.0,0.0
8210,73.0,24.0,60.0,2.0,0.0
8211,49.0,0.0,90.0,3.0,0.0
8212,85.0,24.0,20.0,0.0,0.0
8213,80.0,0.0,60.0,4.0,0.0
8214,68.0,0.0,90.0,7.0,0.0
8215,80.0,0.0,20.0,0.0,0.0
8216,73.0,0.0,60.0,6.0,0.0
8217,80.0,0.0,60.0,2.0,0.0
8218,76.0,24.0,20.0,0.0,0.0
8219,76.0,0.0,60.0,4.0,0.0
8220,73.0,0.0,20.0,0.0,0.0
8221,73.0,24.0,60.0,4.0,0.0
8222,68.0,24.0,20.0,0.0,0.0
8223,76.0,0.0,60.0,6.0,0.0
8224,49.0,0.0,90.0,3.0,0.0
8225,64.0,0.0,90.0,5.0,0.0
8226,68.0,0.0,90.0,7.0,0.0
8227,80.0,0.0,60.0,2.0,0.0
8228,73.0,0.0,20.0,0.0,0.0
8229,76.0,24.0,20.0,0.0,0.0
8230,76.0,0.0,60.0,4.0,0.0
8231,73.0,0.0,60.0,6.0,0.0
8232,76.0,24.0,60.0,2.0,0.0
8233,80.0,0.0,20.0,0.0,0.0
8234,85.0,24.0,20.0,0.0,0.0
8235,73.0,0.0,60.0,2.0,0.0
8236,64.0,24.0,90.0,5.0,0.0
8237,76.0,0.0,60.0,6.0,0.0
8238,49.0,0.0,90.0,3.0,0.0
8239,80.0,24.0,60.0,4.0,0.0
8240,68.0,0.0,90.0,7.0,0.0
8241,80.0,0.0,20.0,0.0,0.0
8242,73.0,0.0,60.0,6.0,0.0
8243,76.0,24.0,20.0,0.0,0.0
8244,76.0,0.0,60.0,4.0,0.0
8245,80.0,0.0,60.0,2.0,0.0
8246,73.0,0.0,20.0,0.0,0.0
8247,68.0,24.0,90.0,7.0,0.0
8248,49.0,0.0,90.0,3.0,0.0
8249,80.0,0.0,60.0,2.0,0.0
8250,73.0,0.0,60.0,4.0,0.0
8251,68.0,24.0,20.0,0.0,0.0
8252,76.0,24.0,60.0,6.0,0.0
8253,64.0,0.0,90.0,5.0,0.0
8254,73.0,0.0,20.0,0.0,0.0
8255,76.0,0.0,60.0,4.0,0.0
8256,76.0,24.0,20.0,0.0,0.0
8257,76.0,0.0,60.0,2.0,0.0
8258,73.0,0.0,60.0,6.0,0.0
8259,80.0,0.0,20.0,0.0,0.0
8260,64.0,0.0,90.0,5.0,0.0
8261,68.0,0.0,90.0,7.0,0.0
8262,76.0,24.0,60.0,6.0,0.0
8263,80.0,0.0,60.0,4.0,0.0
8264,85.0,24.0,20.0,0.0,0.0
8265,73.0,0.0,60.0,2.0,0.0
8266,49.0,24.0,90.0,3.0,0.0
8267,80.0,0.0,20.0,0.0,0.0
8268,76.0,24.0,20.0,0.0,0.0
8269,76.0,0.0,60.0,4.0,0.0
8270,80.0,0.0,60.0,2.0,0.0
8271,73.0,0.0,60.0,6.0,0.0
8272,73.0,0.0,20.0,0.0,0.0
8273,56.0,24.0,90.0,5.0,0.0
8274,73.0,0.0,60.0,4.0,0.0
8275,68.0,24.0,20.0,0.0,0.0
8276,77.0,0.0,60.0,6.0,0.0
8277,80.0,24.0,60.0,2.0,0.0
8278,49.0,0.0,90.0,3.0,0.0
8279,68.0,0.0,90.0,7.0,0.0
8280,73.0,0.0,20.0,0.0,0.0
8281,77.0,24.0,20.0,0.0,0.0
8282,77.0,0.0,60.0,4.0,0.0
8283,73.0,0.0,60.0,6.0,0.0
8284,77.0,0.0,60.0,2.0,0.0
8285,80.0,0.0,20.0,0.0,0.0
8286,80.0,0.0,60.0,4.0,0.0
8287,49.0,0.0,90.0,3.0,0.0
8288,68.0,0.0,90.0,7.0,0.0
8289,83.0,24.0,20.0,0.0,0.0
8290,56.0,0.0,90.0,5.0,0.0
8291,77.0,0.0,60.0,6.0,0.0
8292,73.0,0.0,60.0,2.0,0.0
8293,80.0,24.0,20.0,0.0,0.0
8294,73.0,0.0,60.0,6.0,0.0
8295,77.0,0.0,60.0,4.0,0.0
8296,80.0,0.0,60.0,2.0,0.0
8297,77.0,24.0,20.0,0.0,0.0
8298,73.0,24.0,20.0,0.0,0.0
8299,61.0,24.0,90.0,5.0,0.0
8300,73.0,0.0,60.0,4.0,0.0
8301,68.0,0.0,90.0,7.0,0.0
8302,68.0,24.0,20.0,0.0,0.0
8303,49.0,0.0,90.0,3.0,0.0
8304,77.0,0.0,60.0,6.0,0.0
8305,80.0,0.0,60.0,2.0,0.0
8306,73.0,24.0,20.0,0.0,0.0
8307,77.0,24.0,20.0,0.0,0.0
8308,73.0,0.0,60.0,6.0,0.0
8309,77.0,0.0,60.0,2.0,0.0
8310,77.0,0.0,60.0,4.0,0.0
8311,80.0,0.0,20.0,0.0,0.0
8312,80.0,0.0,60.0,4.0,0.0
8313,77.0,0.0,60.0,6.0,0.0
8314,68.0,0.0,90.0,7.0,0.0
8315,49.0,0.0,90.0,3.0,0.0
8316,73.0,0.0,60.0,2.0,0.0
8317,83.0,24.0,20.0,0.0,0.0
8318,61.0,0.0,90.0,5.0,0.0
8319,80.0,24.0,20.0,0.0,0.0
8320,77.0,24.0,20.0,0.0,0.0
8321,77.0,0.0,60.0,4.0,0.0
8322,73.0,0.0,60.0,6.0,0.0
8323,80.0,24.0,60.0,2.0,0.0
8324,73.0,0.0,20.0,0.0,0.0
8325,80.0,0.0,60.0,2.0,0.0
8326,77.0,0.0,60.0,6.0,0.0
8327,49.0,0.0,90.0,3.0,0.0
8328,68.0,24.0,20.0,0.0,0.0
8329,68.0,0.0,90.0,7.0,0.0
8330,61.0,0.0,90.0,5.0,0.0
8331,73.0,24.0,60.0,4.0,0.0
8332,73.0,0.0,20.0,0.0,0.0
8333,77.0,24.0,60.0,4.0,0.0
8334,77.0,0.0,60.0,2.0,0.0
8335,73.0,0.0,60.0,6.0,0.0
8336,77.0,24.0,20.0,0.0,0.0
8337,80.0,0.0,20.0,0.0,0.0
8338,61.0,0.0,90.0,5.0,0.0
8339,73.0,0.0,60.0,2.0,0.0
8340,80.0,0.0,60.0,4.0,0.0
8341,68.0,0.0,90.0,7.0,0.0
8342,49.0,0.0,90.0,3.0,0.0
8343,77.0,0.0,60.0,6.0,0.0
8344,83.0,24.0,20.0,0.0,0.0
8345,80.0,24.0,20.0,0.0,0.0
8346,80.0,0.0,60.0,2.0,0.0
8347,73.0,24.0,60.0,6.0,0.0
8348,77.0,0.0,60.0,4.0,0.0
8349,77.0,24.0,20.0,0.0,0.0
8350,73.0,0.0,20.0,0.0,0.0
8351,66.0,24.0,20.0,0.0,0.0
8352,66.0,0.0,90.0,7.0,0.0
8353,73.0,0.0,60.0,4.0,0.0
8354,54.0,0.0,90.0,3.0,0.0
8355,61.0,0.0,90.0,5.0,0.0
8356,78.0,0.0,60.0,6.0,0.0
8357,81.0,0.0,60.0,2.0,0.0
8358,73.0,24.0,20.0,0.0,0.0
8359,78.0,24.0,60.0,2.0,0.0
8360,78.0,0.0,60.0,4.0,0.0
8361,73.0,0.0,60.0,6.0,0.0
8362,77.0,24.0,20.0,0.0,0.0
8363,78.0,0.0,20.0,0.0,0.0
8364,78.0,0.0,60.0,6.0,0.0
8365,73.0,0.0,60.0,2.0,0.0
8366,81.0,0.0,60.0,4.0,0.0
8367,54.0,24.0,90.0,3.0,0.0
8368,81.0,24.0,20.0,0.0,0.0
8369,61.0,0.0,90.0,5.0,0.0
8370,66.0,0.0,90.0,7.0,0.0
8371,77.0,24.0,20.0,0.0,0.0
8372,78.0,24.0,20.0,0.0,0.0
8373,78.0,0.0,60.0,4.0,0.0
8374,81.0,0.0,60.0,2.0,0.0
8375,73.0,0.0,60.0,6.0,0.0
8376,73.0,0.0,20.0,0.0,0.0
8377,66.0,0.0,90.0,7.0,0.0
8378,66.0,24.0,20.0,0.0,0.0
8379,78.0,0.0,60.0,6.0,0.0
8380,54.0,0.0,90.0,3.0,0.0
8381,57.0,0.0,90.0,5.0,0.0
8382,81.0,24.0,60.0,2.0,0.0
8383,73.0,0.0,60.0,4.0,0.0
8384,73.0,0.0,20.0,0.0,0.0
8385,77.0,24.0,20.0,0.0,0.0
8386,78.0,0.0,60.0,2.0,0.0
8387,78.0,0.0,60.0,4.0,0.0
8388,73.0,24.0,60.0,6.0,0.0
8389,78.0,0.0,20.0,0.0,0.0
8390,54.0,0.0,90.0,3.0,0.0
8391,66.0,0.0,90.0,7.0,0.0
8392,57.0,0.0,90.0,5.0,0.0
8393,73.0,24.0,60.0,2.0,0.0
8394,81.0,24.0,20.0,0.0,0.0
8395,81.0,0.0,60.0,4.0,0.0
8396,78.0,0.0,60.0,6.0,0.0
8397,77.0,0.0,20.0,0.0,0.0
8398,78.0,24.0,60.0,4.0,0.0
8399,78.0,24.0,20.0,0.0,0.0
8400,81.0,0.0,60.0,2.0,0.0
8401,73.0,0.0,60.0,6.0,0.0
8402,73.0,0.0,20.0,0.0,0.0
8403,78.0,0.0,60.0,6.0,0.0
8404,54.0,24.0,90.0,3.0,0.0
8405,66.0,0.0,90.0,7.0,0.0
8406,54.0,0.0,90.0,5.0,0.0
8407,66.0,24.0,20.0,0.0,0.0
8408,73.0,24.0,60.0,4.0,0.0
8409,81.0,0.0,60.0,2.0,0.0
8410,73.0,0.0,20.0,0.0,0.0
8411,78.0,0.0,60.0,4.0,0.0
8412,73.0,0.0,60.0,6.0,0.0
8413,77.0,24.0,20.0,0.0,0.0
8414,78.0,0.0,60.0,2.0,0.0
8415,78.0,0.0,20.0,0.0,0.0
8416,78.0,0.0,60.0,6.0,0.0
8417,54.0,0.0,90.0,5.0,0.0
8418,81.0,0.0,60.0,4.0,0.0
8419,66.0,0.0,90.0,7.0,0.0
8420,81.0,24.0,20.0,0.0,0.0
8421,73.0,24.0,60.0,2.0,0.0
8422,54.0,0.0,90.0,3.0,0.0
8423,77.0,0.0,20.0,0.0,0.0
8424,78.0,24.0,20.0,0.0,0.0
8425,78.0,24.0,60.0,4.0,0.0
8426,81.0,0.0,60.0,2.0,0.0
8427,73.0,0.0,60.0,6.0,0.0
8428,73.0,0.0,20.0,0.0,0.0
8429,66.0,24.0,20.0,0.0,0.0
8430,73.0,0.0,60.0,4.0,0.0
8431,66.0,0.0,90.0,7.0,0.0
8432,82.0,24.0,60.0,2.0,0.0
8433,78.0,0.0,60.0,6.0,0.0
8434,66.0,0.0,90.0,5.0,0.0
8435,52.0,0.0,90.0,3.0,0.0
8436,73.0,0.0,20.0,0.0,0.0
8437,78.0,0.0,60.0,4.0,0.0
8438,73.0,0.0,60.0,6.0,0.0
8439,78.0,0.0,60.0,2.0,0.0
8440,76.0,24.0,20.0,0.0,0.0
8441,78.0,24.0,20.0,0.0,0.0
8442,52.0,0.0,90.0,3.0,0.0
8443,85.0,0.0,60.0,4.0,0.0
8444,73.0,0.0,60.0,2.0,0.0
8445,78.0,0.0,60.0,6.0,0.0
8446,66.0,0.0,90.0,5.0,0.0
8447,66.0,0.0,90.0,7.0,0.0
8448,82.0,24.0,20.0,0.0,0.0
8449,78.0,24.0,20.0,0.0,0.0
8450,73.0,0.0,60.0,6.0,0.0
8451,76.0,24.0,20.0,0.0,0.0
8452,82.0,0.0,60.0,2.0,0.0
8453,78.0,0.0,60.0,4.0,0.0
8454,73.0,24.0,20.0,0.0,0.0
8455,54.0,0.0,90.0,7.0,0.0
8456,52.0,0.0,90.0,3.0,0.0
8457,73.0,0.0,60.0,4.0,0.0
8458,78.0,24.0,60.0,6.0,0.0
8459,82.0,0.0,60.0,2.0,0.0
8460,66.0,24.0,20.0,0.0,0.0
8461,58.0,0.0,90.0,5.0,0.0
8462,73.0,0.0,20.0,0.0,0.0
8463,78.0,24.0,60.0,2.0,0.0
8464,78.0,0.0,60.0,4.0,0.0
8465,73.0,0.0,60.0,6.0,0.0
8466,76.0,24.0,20.0,0.0,0.0
8467,78.0,0.0,20.0,0.0,0.0
8468,85.0,0.0,60.0,4.0,0.0
8469,82.0,24.0,20.0,0.0,0.0
8470,58.0,0.0,90.0,5.0,0.0
8471,52.0,0.0,90.0,3.0,0.0
8472,73.0,0.0,60.0,2.0,0.0
8473,78.0,0.0,60.0,6.0,0.0
8474,54.0,24.0,90.0,7.0,0.0
8475,78.0,24.0,20.0,0.0,0.0
8476,82.0,0.0,60.0,2.0,0.0
8477,78.0,0.0,60.0,4.0,0.0
8478,76.0,24.0,20.0,0.0,0.0
8479,73.0,0.0,60.0,6.0,0.0
8480,73.0,0.0,20.0,0.0,0.0
8481,61.0,0.0,90.0,5.0,0.0
8482,78.0,0.0,60.0,6.0,0.0
8483,58.0,0.0,90.0,7.0,0.0
8484,52.0,0.0,90.0,3.0,0.0
8485,73.0,0.0,60.0,4.0,0.0
8486,82.0,24.0,60.0,2.0,0.0
8487,66.0,24.0,20.0,0.0,0.0
8488,73.0,0.0,20.0,0.0,0.0
8489,76.0,24.0,20.0,0.0,0.0
8490,78.0,0.0,60.0,2.0,0.0
8491,73.0,0.0,60.0,6.0,0.0
8492,78.0,24.0,60.0,4.0,0.0
8493,78.0,0.0,20.0,0.0,0.0
8494,85.0,0.0,60.0,4.0,0.0
8495,61.0,0.0,90.0,5.0,0.0
8496,52.0,0.0,90.0,3.0,0.0
8497,58.0,0.0,90.0,7.0,0.0
8498,73.0,0.0,60.0,2.0,0.0
8499,82.0,24.0,20.0,0.0,0.0
8500,78.0,24.0,60.0,6.0,0.0
8501,78.0,0.0,20.0,0.0,0.0
8502,78.0,0.0,60.0,4.0,0.0
8503,82.0,24.0,60.0,2.0,0.0
8504,76.0,24.0,20.0,0.0,0.0
8505,73.0,0.0,60.0,6.0,0.0
8506,73.0,0.0,20.0,0.0,0.0
8507,66.0,24.0,20.0,0.0,0.0
8508,83.0,0.0,60.0,2.0,0.0
8509,51.0,0.0,90.0,3.0,0.0
8510,78.0,0.0,60.0,6.0,0.0
8511,63.0,0.0,90.0,7.0,0.0
8512,54.0,24.0,90.0,5.0,0.0
8513,75.0,24.0,60.0,4.0,0.0
8514,71.0,0.0,20.0,0.0,0.0
8515,78.0,0.0,60.0,2.0,0.0
8516,75.0,24.0,20.0,0.0,0.0
8517,75.0,0.0,60.0,6.0,0.0
8518,78.0,0.0,60.0,4.0,0.0
8519,78.0,0.0,20.0,0.0,0.0
8520,54.0,0.0,90.0,5.0,0.0
8521,83.0,24.0,60.0,4.0,0.0
8522,51.0,0.0,90.0,3.0,0.0
8523,83.0,24.0,20.0,0.0,0.0
8524,78.0,0.0,60.0,6.0,0.0
8525,75.0,0.0,60.0,2.0,0.0
8526,63.0,0.0,90.0,7.0,0.0
8527,78.0,0.0,20.0,0.0,0.0
8528,75.0,24.0,20.0,0.0,0.0
8529,75.0,0.0,60.0,6.0,0.0
8530,83.0,0.0,60.0,2.0,0.0
8531,78.0,24.0,60.0,4.0,0.0
8532,71.0,0.0,20.0,0.0,0.0
8533,59.0,0.0,90.0,5.0,0.0
8534,66.0,24.0,20.0,0.0,0.0
8535,83.0,0.0,60.0,2.0,0.0
8536,63.0,0.0,90.0,7.0,0.0
8537,51.0,0.0,90.0,3.0,0.0
8538,78.0,0.0,60.0,6.0,0.0
8539,75.0,24.0,60.0,4.0,0.0
8540,71.0,0.0,20.0,0.0,0.0
8541,78.0,0.0,60.0,2.0,0.0
8542,75.0,24.0,60.0,6.0,0.0
8543,75.0,24.0,20.0,0.0,0.0
8544,78.0,0.0,60.0,4.0,0.0
8545,78.0,0.0,20.0,0.0,0.0
8546,83.0,0.0,60.0,4.0,0.0
8547,75.0,24.0,60.0,2.0,0.0
8548,51.0,0.0,90.0,3.0,0.0
8549,63.0,24.0,90.0,7.0,0.0
8550,78.0,0.0,60.0,6.0,0.0
8551,59.0,0.0,90.0,5.0,0.0
8552,83.0,24.0,20.0,0.0,0.0
8553,78.0,0.0,20.0,0.0,0.0
8554,75.0,24.0,20.0,0.0,0.0
8555,78.0,0.0,60.0,4.0,0.0
8556,75.0,0.0,60.0,6.0,0.0
8557,83.0,0.0,60.0,2.0,0.0
8558,71.0,0.0,20.0,0.0,0.0
8559,63.0,0.0,90.0,7.0,0.0
8560,75.0,0.0,60.0,4.0,0.0
8561,66.0,0.0,90.0,5.0,0.0
8562,66.0,24.0,20.0,0.0,0.0
8563,83.0,24.0,60.0,2.0,0.0
8564,78.0,0.0,60.0,6.0,0.0
8565,51.0,0.0,90.0,3.0,0.0
8566,71.0,0.0,20.0,0.0,0.0
8567,78.0,0.0,60.0,4.0,0.0
8568,75.0,0.0,60.0,6.0,0.0
8569,75.0,24.0,20.0,0.0,0.0
8570,78.0,24.0,60.0,2.0,0.0
8571,78.0,0.0,20.0,0.0,0.0
8572,83.0,0.0,60.0,4.0,0.0
8573,51.0,0.0,90.0,3.0,0.0
8574,83.0,24.0,20.0,0.0,0.0
8575,66.0,0.0,90.0,5.0,0.0
8576,78.0,24.0,60.0,6.0,0.0
8577,75.0,0.0,60.0,2.0,0.0
8578,63.0,0.0,90.0,7.0,0.0
8579,78.0,0.0,20.0,0.0,0.0
8580,75.0,24.0,20.0,0.0,0.0
8581,75.0,24.0,60.0,6.0,0.0
8582,83.0,0.0,60.0,2.0,0.0
8583,78.0,0.0,60.0,4.0,0.0
8584,71.0,0.0,20.0,0.0,0.0
8585,78.0,24.0,60.0,6.0,0.0
8586,63.0,0.0,90.0,7.0,0.0
8587,68.0,24.0,20.0,0.0,0.0
8588,84.0,0.0,60.0,2.0,0.0
8589,68.0,24.0,90.0,5.0,0.0
8590,75.0,0.0,60.0,4.0,0.0
8591,56.0,0.0,90.0,3.0,0.0
8592,75.0,0.0,20.0,0.0,0.0
8593,78.0,0.0,60.0,2.0,0.0
8594,78.0,0.0,60.0,4.0,0.0
8595,75.0,0.0,60.0,6.0,0.0
8596,78.0,24.0,20.0,0.0,0.0
8597,80.0,0.0,20.0,0.0,0.0
8598,56.0,24.0,90.0,3.0,0.0
8599,75.0,0.0,60.0,2.0,0.0
8600,68.0,0.0,90.0,5.0,0.0
8601,63.0,0.0,90.0,7.0,0.0
8602,78.0,0.0,60.0,6.0,0.0
8603,84.0,0.0,60.0,4.0,0.0
8604,84.0,24.0,20.0,0.0,0.0
8605,80.0,24.0,20.0,0.0,0.0
8606,78.0,0.0,60.0,4.0,0.0
8607,84.0,0.0,60.0,2.0,0.0
8608,75.0,0.0,60.0,6.0,0.0
8609,78.0,24.0,20.0,0.0,0.0
8610,75.0,0.0,20.0,0.0,0.0
8611,56.0,24.0,90.0,3.0,0.0
8612,68.0,24.0,20.0,0.0,0.0
8613,60.0,0.0,90.0,7.0,0.0
8614,75.0,0.0,60.0,4.0,0.0
8615,68.0,0.0,90.0,5.0,0.0
8616,84.0,24.0,60.0,2.0,0.0
8617,78.0,0.0,60.0,6.0,0.0
8618,75.0,0.0,20.0,0.0,0.0
8619,78.0,24.0,20.0,0.0,0.0
8620,75.0,0.0,60.0,6.0,0.0
8621,78.0,0.0,60.0,4.0,0.0
8622,78.0,0.0,60.0,2.0,0.0
8623,80.0,0.0,20.0,0.0,0.0
8624,68.0,0.0,90.0,5.0,0.0
8625,84.0,24.0,20.0,0.0,0.0
8626,75.0,0.0,60.0,2.0,0.0
8627,60.0,0.0,90.0,7.0,0.0
8628,84.0,0.0,60.0,4.0,0.0
8629,56.0,0.0,90.0,3.0,0.0
8630,78.0,24.0,60.0,6.0,0.0
8631,80.0,0.0,20.0,0.0,0.0
8632,78.0,0.0,60.0,4.0,0.0
8633,78.0,24.0,20.0,0.0,0.0
8634,84.0,0.0,60.0,2.0,0.0
8635,75.0,0.0,60.0,6.0,0.0
8636,75.0,24.0,20.0,0.0,0.0
8637,68.0,24.0,20.0,0.0,0.0
8638,56.0,0.0,90.0,3.0,0.0
8639,78.0,24.0,60.0,6.0,0.0
8640,56.0,0.0,90.0,7.0,0.0
8641,68.0,0.0,90.0,5.0,0.0
8642,84.0,0.0,60.0,2.0,0.0
8643,75.0,0.0,60.0,4.0,0.0
8644,75.0,0.0,20.0,0.0,0.0
8645,78.0,0.0,60.0,2.0,0.0
8646,78.0,24.0,60.0,4.0,0.0
8647,75.0,0.0,60.0,6.0,0.0
8648,78.0,24.0,20.0,0.0,0.0
8649,80.0,0.0,20.0,0.0,0.0
8650,56.0,0.0,90.0,7.0,0.0
8651,75.0,24.0,60.0,2.0,0.0
8652,56.0,0.0,90.0,3.0,0.0
8653,84.0,24.0,20.0,0.0,0.0
8654,78.0,0.0,60.0,6.0,0.0
8655,84.0,0.0,60.0,4.0,0.0
8656,68.0,0.0,90.0,5.0,0.0
8657,80.0,0.0,20.0,0.0,0.0
8658,78.0,0.0,60.0,4.0,0.0
8659,84.0,0.0,60.0,2.0,0.0
8660,78.0,24.0,20.0,0.0,0.0
8661,75.0,24.0,60.0,6.0,0.0
8662,75.0,0.0,20.0,0.0,0.0
8663,80.0,0.0,60.0,6.0,0.0
8664,64.0,24.0,90.0,7.0,0.0
8665,68.0,0.0,90.0,5.0,0.0
8666,68.0,24.0,20.0,0.0,0.0
8667,49.0,0.0,90.0,3.0,0.0
8668,85.0,0.0,60.0,2.0,0.0
8669,76.0,24.0,60.0,4.0,0.0
8670,73.0,0.0,20.0,0.0,0.0
8671,76.0,24.0,20.0,0.0,0.0
8672,76.0,0.0,60.0,6.0,0.0
8673,80.0,0.0,60.0,2.0,0.0
8674,80.0,0.0,60.0,4.0,0.0
8675,80.0,0.0,20.0,0.0,0.0
8676,68.0,0.0,90.0,5.0,0.0
8677,76.0,0.0,60.0,2.0,0.0
8678,80.0,0.0,60.0,6.0,0.0
8679,64.0,0.0,90.0,7.0,0.0
8680,85.0,24.0,60.0,4.0,0.0
8681,85.0,24.0,20.0,0.0,0.0
8682,49.0,0.0,90.0,3.0,0.0
8683,80.0,0.0,20.0,0.0,0.0
8684,76.0,0.0,60.0,6.0,0.0
8685,85.0,24.0,60.0,2.0,0.0
8686,76.0,24.0,20.0,0.0,0.0
8687,80.0,0.0,60.0,4.0,0.0
8688,73.0,0.0,20.0,0.0,0.0
8689,80.0,24.0,60.0,6.0,0.0
8690,76.0,0.0,60.0,4.0,0.0
8691,49.0,0.0,90.0,3.0,0.0
8692,64.0,0.0,90.0,7.0,0.0
8693,68.0,0.0,90.0,5.0,0.0
8694,68.0,24.0,20.0,0.0,0.0
8695,85.0,0.0,60.0,2.0,0.0
8696,73.0,0.0,20.0,0.0,0.0
8697,76.0,0.0,60.0,6.0,0.0
8698,76.0,24.0,20.0,0.0,0.0
8699,80.0,0.0,60.0,2.0,0.0
8700,80.0,24.0,60.0,4.0,0.0
8701,80.0,0.0,20.0,0.0,0.0
8702,85.0,0.0,60.0,4.0,0.0
8703,68.0,0.0,90.0,5.0,0.0
8704,64.0,24.0,90.0,7.0,0.0
8705,49.0,0.0,90.0,3.0,0.0
8706,80.0,24.0,60.0,6.0,0.0
8707,85.0,24.0,20.0,0.0,0.0
8708,76.0,0.0,60.0,2.0,0.0
8709,80.0,0.0,20.0,0.0,0.0
8710,76.0,0.0,60.0,6.0,0.0
8711,85.0,0.0,60.0,2.0,0.0
8712,76.0,24.0,20.0,0.0,0.0
8713,80.0,0.0,60.0,4.0,0.0
8714,73.0,0.0,20.0,0.0,0.0
8715,85.0,0.0,60.0,2.0,0.0
8716,61.0,0.0,90.0,3.0,0.0
8717,76.0,0.0,60.0,4.0,0.0
8718,64.0,0.0,90.0,7.0,0.0
8719,68.0,0.0,90.0,5.0,0.0
8720,80.0,24.0,60.0,6.0,0.0
8721,68.0,24.0,20.0,0.0,0.0
8722,73.0,0.0,20.0,0.0,0.0
8723,80.0,0.0,60.0,4.0,0.0
8724,80.0,0.0,60.0,2.0,0.0
8725,76.0,0.0,60.0,6.0,0.0
8726,76.0,24.0,20.0,0.0,0.0
8727,80.0,24.0,20.0,0.0,0.0
8728,85.0,0.0,60.0,4.0,0.0
8729,76.0,0.0,60.0,2.0,0.0
8730,64.0,0.0,90.0,7.0,0.0
8731,85.0,24.0,20.0,0.0,0.0
8732,61.0,0.0,90.0,3.0,0.0
8733,80.0,0.0,60.0,6.0,0.0
8734,68.0,24.0,90.0,5.0,0.0
8735,80.0,24.0,20.0,0.0,0.0
8736,76.0,0.0,60.0,6.0,0.0
8737,76.0,24.0,20.0,0.0,0.0
8738,80.0,0.0,60.0,4.0,0.0
8739,85.0,0.0,60.0,2.0,0.0
8740,73.0,0.0,20.0,0.0,0.0
8741,76.0,0.0,60.0,4.0,0.0
8742,61.0,0.0,90.0,5.0,0.0
8743,55.0,24.0,90.0,3.0,0.0
8744,64.0,0.0,90.0,7.0,0.0
8745,82.0,0.0,60.0,6.0,0.0
8746,70.0,24.0,20.0,0.0,0.0
8747,85.0,0.0,60.0,2.0,0.0
8748,73.0,24.0,20.0,0.0,0.0
8749,79.0,0.0,60.0,6.0,0.0
8750,76.0,24.0,20.0,0.0,0.0
8751,82.0,0.0,60.0,4.0,0.0
8752,82.0,0.0,60.0,2.0,0.0
8753,79.0,0.0,20.0,0.0,0.0
8754,55.0,24.0,90.0,3.0,0.0
8755,61.0,0.0,90.0,5.0,0.0
8756,64.0,0.0,90.0,7.0,0.0
8757,85.0,24.0,20.0,0.0,0.0
8758,82.0,0.0,60.0,6.0,0.0
8759,76.0,0.0,60.0,2.0,0.0
8760,85.0,24.0,60.0,4.0,0.0
8761,79.0,0.0,20.0,0.0,0.0
8762,76.0,24.0,20.0,0.0,0.0
8763,79.0,0.0,60.0,6.0,0.0
8764,85.0,0.0,60.0,2.0,0.0
8765,82.0,0.0,60.0,4.0,0.0
8766,73.0,0.0,20.0,0.0,0.0
8767,61.0,0.0,90.0,5.0,0.0
8768,76.0,0.0,60.0,4.0,0.0
8769,55.0,0.0,90.0,3.0,0.0
8770,70.0,24.0,20.0,0.0,0.0
8771,82.0,24.0,60.0,6.0,0.0
8772,64.0,0.0,90.0,7.0,0.0
8773,85.0,0.0,60.0,2.0,0.0
8774,73.0,0.0,20.0,0.0,0.0
8775,79.0,0.0,60.0,6.0,0.0
8776,76.0,24.0,20.0,0.0,0.0
8777,82.0,0.0,60.0,2.0,0.0
8778,82.0,24.0,60.0,4.0,0.0
8779,79.0,0.0,20.0,0.0,0.0
8780,55.0,0.0,90.0,3.0,0.0
8781,64.0,24.0,90.0,7.0,0.0
8782,76.0,24.0,60.0,2.0,0.0
8783,85.0,24.0,20.0,0.0,0.0
8784,82.0,0.0,60.0,6.0,0.0
8785,85.0,0.0,60.0,4.0,0.0
8786,61.0,0.0,90.0,5.0,0.0
8787,79.0,0.0,20.0,0.0,0.0
8788,82.0,0.0,60.0,4.0,0.0
8789,76.0,24.0,20.0,0.0,0.0
8790,79.0,0.0,60.0,6.0,0.0
8791,85.0,0.0,60.0,2.0,0.0
8792,73.0,0.0,20.0,0.0,0.0
8793,61.0,0.0,90.0,5.0,0.0
8794,76.0,0.0,60.0,4.0,0.0
8795,82.0,24.0,60.0,6.0,0.0
8796,64.0,0.0,90.0,7.0,0.0
8797,55.0,24.0,90.0,3.0,0.0
8798,85.0,0.0,60.0,2.0,0.0
8799,70.0,24.0,20.0,0.0,0.0
8800,73.0,0.0,20.0,0.0,0.0
8801,82.0,0.0,60.0,2.0,0.0
8802,82.0,0.0,60.0,4.0,0.0
8803,76.0,24.0,20.0,0.0,0.0
8804,79.0,0.0,60.0,6.0,0.0
8805,79.0,0.0,20.0,0.0,0.0
8806,55.0,24.0,90.0,3.0,0.0
8807,61.0,0.0,90.0,5.0,0.0
8808,64.0,0.0,90.0,7.0,0.0
8809,82.0,0.0,60.0,6.0,0.0
8810,76.0,0.0,60.0,2.0,0.0
8811,85.0,24.0,60.0,4.0,0.0
8812,85.0,24.0,20.0,0.0,0.0
8813,79.0,0.0,20.0,0.0,0.0
8814,82.0,0.0,60.0,4.0,0.0
8815,85.0,0.0,60.0,2.0,0.0
8816,79.0,0.0,60.0,6.0,0.0
8817,76.0,24.0,20.0,0.0,0.0
8818,73.0,0.0,20.0,0.0,0.0
8819,54.0,24.0,90.0,3.0,0.0
8820,66.0,0.0,90.0,5.0,0.0
8821,82.0,0.0,60.0,6.0,0.0
8822,85.0,24.0,60.0,2.0,0.0
8823,70.0,24.0,20.0,0.0,0.0
8824,61.0,0.0,90.0,7.0,0.0
8825,76.0,0.0,60.0,4.0,0.0
8826,73.0,0.0,20.0,0.0,0.0
8827,76.0,24.0,20.0,0.0,0.0
8828,82.0,0.0,60.0,4.0,0.0
8829,76.0,0.0,60.0,6.0,0.0
8830,78.0,0.0,60.0,2.0,0.0
8831,78.0,0.0,20.0,0.0,0.0
8832,54.0,0.0,90.0,3.0,0.0
8833,76.0,0.0,60.0,2.0,0.0
8834,61.0,0.0,90.0,7.0,0.0
8835,66.0,24.0,90.0,5.0,0.0
8836,82.0,0.0,60.0,6.0,0.0
8837,85.0,24.0,20.0,0.0,0.0
8838,85.0,24.0,60.0,4.0,0.0
8839,78.0,0.0,20.0,0.0,0.0
8840,82.0,0.0,60.0,4.0,0.0
8841,76.0,0.0,60.0,6.0,0.0
8842,85.0,0.0,60.0,2.0,0.0
8843,76.0,24.0,20.0,0.0,0.0
8844,73.0,0.0,20.0,0.0,0.0
8845,66.0,0.0,90.0,5.0,0.0
8846,61.0,24.0,90.0,7.0,0.0
8847,54.0,0.0,90.0,3.0,0.0
8848,85.0,0.0,60.0,2.0,0.0
8849,76.0,0.0,60.0,4.0,0.0
8850,82.0,24.0,60.0,6.0,0.0
8851,70.0,24.0,20.0,0.0,0.0
8852,73.0,0.0,20.0,0.0,0.0
8853,82.0,0.0,60.0,4.0,0.0
8854,76.0,24.0,20.0,0.0,0.0
8855,76.0,0.0,60.0,6.0,0.0
8856,78.0,0.0,60.0,2.0,0.0
8857,78.0,0.0,20.0,0.0,0.0
8858,66.0,0.0,90.0,5.0,0.0
8859,82.0,0.0,60.0,6.0,0.0
8860,76.0,24.0,60.0,2.0,0.0
8861,54.0,24.0,90.0,3.0,0.0
8862,85.0,24.0,20.0,0.0,0.0
8863,85.0,0.0,60.0,4.0,0.0
8864,61.0,0.0,90.0,7.0,0.0
8865,78.0,0.0,20.0,0.0,0.0
8866,82.0,0.0,60.0,4.0,0.0
8867,85.0,0.0,60.0,2.0,0.0
8868,76.0,24.0,20.0,0.0,0.0
8869,76.0,0.0,60.0,6.0,0.0
8870,73.0,0.0,20.0,0.0,0.0
8871,61.0,0.0,90.0,7.0,0.0
8872,76.0,0.0,60.0,4.0,0.0
8873,85.0,0.0,60.0,2.0,0.0
8874,82.0,0.0,60.0,6.0,0.0
8875,54.0,0.0,90.0,3.0,0.0
8876,70.0,24.0,20.0,0.0,0.0
8877,66.0,0.0,90.0,5.0,0.0
8878,73.0,24.0,20.0,0.0,0.0
8879,78.0,0.0,60.0,2.0,0.0
8880,76.0,24.0,60.0,6.0,0.0
8881,82.0,0.0,60.0,4.0,0.0
8882,76.0,24.0,20.0,0.0,0.0
8883,78.0,0.0,20.0,0.0,0.0
8884,82.0,0.0,60.0,6.0,0.0
8885,76.0,0.0,60.0,2.0,0.0
8886,85.0,0.0,60.0,4.0,0.0
8887,85.0,24.0,20.0,0.0,0.0
8888,61.0,0.0,90.0,7.0,0.0
8889,66.0,0.0,90.0,5.0,0.0
8890,54.0,0.0,90.0,3.0,0.0
8891,78.0,24.0,20.0,0.0,0.0
8892,82.0,24.0,60.0,4.0,0.0
8893,85.0,0.0,60.0,2.0,0.0
8894,76.0,24.0,20.0,0.0,0.0
8895,76.0,0.0,60.0,6.0,0.0
8896,73.0,0.0,20.0,0.0,0.0
8897,75.0,24.0,60.0,4.0,0.0
8898,66.0,24.0,20.0,0.0,0.0
8899,54.0,24.0,90.0,3.0,0.0
8900,58.0,0.0,90.0,7.0,0.0
8901,78.0,0.0,60.0,6.0,0.0
8902,66.0,0.0,90.0,5.0,0.0
8903,85.0,0.0,60.0,2.0,0.0
8904,75.0,0.0,20.0,0.0,0.0
8905,75.0,0.0,60.0,6.0,0.0
8906,78.0,0.0,60.0,4.0,0.0
8907,78.0,0.0,60.0,2.0,0.0
8908,78.0,24.0,20.0,0.0,0.0
8909,82.0,0.0,20.0,0.0,0.0
8910,66.0,0.0,90.0,5.0,0.0
8911,75.0,0.0,60.0,2.0,0.0
8912,78.0,0.0,60.0,6.0,0.0
8913,58.0,0.0,90.0,7.0,0.0
8914,85.0,24.0,60.0,4.0,0.0
8915,85.0,24.0,20.0,0.0,0.0
8916,54.0,0.0,90.0,3.0,0.0
8917,82.0,0.0,20.0,0.0,0.0
8918,78.0,24.0,20.0,0.0,0.0
8919,85.0,0.0,60.0,2.0,0.0
8920,75.0,24.0,60.0,6.0,0.0
8921,78.0,0.0,60.0,4.0,0.0
8922,75.0,0.0,20.0,0.0,0.0
8923,58.0,0.0,90.0,7.0,0.0
8924,78.0,0.0,60.0,6.0,0.0
8925,85.0,0.0,60.0,2.0,0.0
8926,54.0,0.0,90.0,3.0,0.0
8927,66.0,0.0,90.0,5.0,0.0
8928,75.0,0.0,60.0,4.0,0.0
8929,66.0,24.0,20.0,0.0,0.0
8930,75.0,24.0,20.0,0.0,0.0
8931,78.0,24.0,60.0,2.0,0.0
8932,78.0,0.0,60.0,4.0,0.0
8933,78.0,24.0,20.0,0.0,0.0
8934,75.0,0.0,60.0,6.0,0.0
8935,82.0,0.0,20.0,0.0,0.0
8936,66.0,0.0,90.0,5.0,0.0
8937,78.0,24.0,60.0,6.0,0.0
8938,85.0,24.0,20.0,0.0,0.0
8939,58.0,0.0,90.0,7.0,0.0
8940,54.0,0.0,90.0,3.0,0.0
8941,85.0,0.0,60.0,4.0,0.0
8942,75.0,0.0,60.0,2.0,0.0
8943,82.0,0.0,20.0,0.0,0.0
8944,85.0,24.0,60.0,2.0,0.0
8945,78.0,0.0,60.0,4.0,0.0
8946,75.0,0.0,60.0,6.0,0.0
8947,78.0,24.0,20.0,0.0,0.0
8948,75.0,0.0,20.0,0.0,0.0
8949,75.0,0.0,60.0,4.0,0.0
8950,85.0,0.0,60.0,2.0,0.0
8951,78.0,0.0,60.0,6.0,0.0
8952,54.0,0.0,90.0,3.0,0.0
8953,66.0,24.0,20.0,0.0,0.0
8954,58.0,0.0,90.0,7.0,0.0
8955,66.0,0.0,90.0,5.0,0.0
8956,75.0,24.0,20.0,0.0,0.0
8957,78.0,24.0,60.0,2.0,0.0
8958,78.0,24.0,20.0,0.0,0.0
8959,78.0,0.0,60.0,4.0,0.0
8960,75.0,0.0,60.0,6.0,0.0
8961,82.0,0.0,20.0,0.0,0.0
8962,78.0,0.0,60.0,6.0,0.0
8963,66.0,0.0,90.0,5.0,0.0
8964,85.0,24.0,60.0,4.0,0.0
8965,85.0,24.0,20.0,0.0,0.0
8966,58.0,0.0,90.0,7.0,0.0
8967,75.0,0.0,60.0,2.0,0.0
8968,54.0,0.0,90.0,3.0,0.0
8969,82.0,0.0,20.0,0.0,0.0
8970,85.0,0.0,60.0,2.0,0.0
8971,75.0,0.0,60.0,6.0,0.0
8972,78.0,24.0,60.0,4.0,0.0
8973,78.0,24.0,20.0,0.0,0.0
8974,75.0,0.0,20.0,0.0,0.0
8975,75.0,24.0,60.0,4.0,0.0
8976,47.0,0.0,90.0,3.0,0.0
8977,66.0,0.0,90.0,5.0,0.0
8978,59.0,0.0,90.0,7.0,0.0
8979,66.0,24.0,20.0,0.0,0.0
8980,83.0,0.0,60.0,2.0,0.0
8981,78.0,0.0,60.0,6.0,0.0
8982,75.0,0.0,20.0,0.0,0.0
8983,75.0,0.0,60.0,6.0,0.0
8984,78.0,0.0,60.0,2.0,0.0
8985,78.0,24.0,20.0,0.0,0.0
8986,78.0,0.0,60.0,4.0,0.0
8987,82.0,24.0,20.0,0.0,0.0
8988,66.0,0.0,90.0,5.0,0.0
8989,47.0,24.0,90.0,3.0,0.0
8990,83.0,24.0,20.0,0.0,0.0
8991,83.0,0.0,60.0,4.0,0.0
8992,59.0,0.0,90.0,7.0,0.0
8993,75.0,24.0,60.0,2.0,0.0
8994,78.0,0.0,60.0,6.0,0.0
8995,82.0,0.0,20.0,0.0,0.0
8996,78.0,24.0,20.0,0.0,0.0
8997,83.0,0.0,60.0,2.0,0.0
8998,75.0,0.0,60.0,6.0,0.0
8999,78.0,0.0,60.0,4.0,0.0
9000,75.0,0.0,20.0,0.0,0.0
9001,83.0,24.0,60.0,2.0,0.0
9002,78.0,0.0,60.0,6.0,0.0
9003,47.0,0.0,90.0,3.0,0.0
9004,66.0,0.0,90.0,5.0,0.0
9005,66.0,24.0,20.0,0.0,0.0
9006,59.0,0.0,90.0,7.0,0.0
9007,75.0,0.0,60.0,4.0,0.0
9008,75.0,0.0,20.0,0.0,0.0
9009,78.0,0.0,60.0,4.0,0.0
9010,78.0,24.0,60.0,2.0,0.0
9011,78.0,24.0,20.0,0.0,0.0
9012,75.0,0.0,60.0,6.0,0.0
9013,82.0,0.0,20.0,0.0,0.0
9014,47.0,0.0,90.0,3.0,0.0
9015,78.0,0.0,60.0,6.0,0.0
9016,66.0,0.0,90.0,5.0,0.0
9017,83.0,0.0,60.0,4.0,0.0
9018,83.0,24.0,20.0,0.0,0.0
9019,59.0,0.0,90.0,7.0,0.0
9020,75.0,24.0,60.0,2.0,0.0
9021,82.0,0.0,20.0,0.0,0.0
9022,83.0,0.0,60.0,2.0,0.0
9023,78.0,0.0,60.0,4.0,0.0
9024,75.0,0.0,60.0,6.0,0.0
9025,78.0,24.0,20.0,0.0,0.0
9026,75.0,24.0,20.0,0.0,0.0
9027,66.0,24.0,20.0,0.0,0.0
9028,59.0,0.0,90.0,7.0,0.0
9029,59.0,0.0,90.0,3.0,0.0
9030,83.0,0.0,60.0,2.0,0.0
9031,75.0,24.0,60.0,4.0,0.0
9032,66.0,0.0,90.0,5.0,0.0
9033,78.0,0.0,60.0,6.0,0.0
9034,75.0,0.0,20.0,0.0,0.0
9035,78.0,0.0,60.0,2.0,0.0
9036,78.0,24.0,20.0,0.0,0.0
9037,75.0,0.0,60.0,6.0,0.0
9038,78.0,24.0,60.0,4.0,0.0
9039,82.0,0.0,20.0,0.0,0.0
9040,59.0,24.0,90.0,3.0,0.0
9041,59.0,0.0,90.0,7.0,0.0
9042,83.0,24.0,20.0,0.0,0.0
9043,75.0,0.0,60.0,2.0,0.0
9044,83.0,0.0,60.0,4.0,0.0
9045,66.0,0.0,90.0,5.0,0.0
9046,78.0,24.0,60.0,6.0,0.0
9047,82.0,0.0,20.0,0.0,0.0
9048,78.0,24.0,20.0,0.0,0.0
9049,83.0,0.0,60.0,2.0,0.0
9050,78.0,0.0,60.0,4.0,0.0
9051,75.0,0.0,60.0,6.0,0.0
9052,75.0,0.0,20.0,0.0,0.0
9053,68.0,24.0,90.0,7.0,0.0
9054,68.0,24.0,20.0,0.0,0.0
9055,65.0,0.0,90.0,5.0,0.0
9056,50.0,0.0,90.0,3.0,0.0
9057,77.0,24.0,60.0,6.0,0.0
9058,74.0,0.0,60.0,4.0,0.0
9059,83.0,0.0,60.0,2.0,0.0
9060,74.0,0.0,20.0,0.0,0.0
9061,74.0,0.0,60.0,6.0,0.0
9062,77.0,0.0,60.0,4.0,0.0
9063,80.0,0.0,60.0,2.0,0.0
9064,77.0,24.0,20.0,0.0,0.0
9065,80.0,0.0,20.0,0.0,0.0
9066,50.0,24.0,90.0,3.0,0.0
9067,80.0,0.0,60.0,4.0,0.0
9068,65.0,0.0,90.0,5.0,0.0
9069,68.0,0.0,90.0,7.0,0.0
9070,77.0,0.0,60.0,6.0,0.0
9071,83.0,24.0,20.0,0.0,0.0
9072,77.0,0.0,60.0,2.0,0.0
9073,80.0,24.0,20.0,0.0,0.0
9074,83.0,0.0,60.0,2.0,0.0
9075,74.0,0.0,60.0,6.0,0.0
9076,77.0,0.0,60.0,4.0,0.0
9077,77.0,24.0,20.0,0.0,0.0
9078,74.0,0.0,20.0,0.0,0.0
9079,50.0,24.0,90.0,3.0,0.0
9080,74.0,24.0,60.0,4.0,0.0
9081,77.0,0.0,60.0,6.0,0.0
9082,83.0,0.0,60.0,2.0,0.0
9083,68.0,0.0,90.0,7.0,0.0
9084,68.0,24.0,20.0,0.0,0.0
9085,65.0,0.0,90.0,5.0,0.0
9086,74.0,0.0,20.0,0.0,0.0
9087,74.0,0.0,60.0,6.0,0.0
9088,80.0,0.0,60.0,2.0,0.0
9089,77.0,24.0,20.0,0.0,0.0
9090,77.0,0.0,60.0,4.0,0.0
9091,80.0,0.0,20.0,0.0,0.0
9092,80.0,0.0,60.0,4.0,0.0
9093,83.0,24.0,20.0,0.0,0.0
9094,65.0,0.0,90.0,5.0,0.0
9095,68.0,0.0,90.0,7.0,0.0
9096,77.0,24.0,60.0,6.0,0.0
9097,77.0,0.0,60.0,2.0,0.0
9098,50.0,0.0,90.0,3.0,0.0
9099,80.0,0.0,20.0,0.0,0.0
9100,77.0,24.0,20.0,0.0,0.0
9101,77.0,24.0,60.0,4.0,0.0
9102,83.0,0.0,60.0,2.0,0.0
9103,74.0,0.0,60.0,6.0,0.0
9104,74.0,0.0,20.0,0.0,0.0
9105,74.0,24.0,60.0,4.0,0.0
9106,77.0,0.0,60.0,6.0,0.0
9107,68.0,0.0,90.0,7.0,0.0
9108,83.0,0.0,60.0,2.0,0.0
9109,65.0,24.0,90.0,5.0,0.0
9110,50.0,0.0,90.0,3.0,0.0
9111,68.0,24.0,20.0,0.0,0.0
9112,74.0,0.0,20.0,0.0,0.0
9113,77.0,24.0,20.0,0.0,0.0
9114,80.0,0.0,60.0,2.0,0.0
9115,74.0,0.0,60.0,6.0,0.0
9116,77.0,0.0,60.0,4.0,0.0
9117,80.0,0.0,20.0,0.0,0.0
9118,50.0,0.0,90.0,3.0,0.0
9119,65.0,0.0,90.0,5.0,0.0
9120,77.0,0.0,60.0,2.0,0.0
9121,68.0,24.0,90.0,7.0,0.0
9122,80.0,0.0,60.0,4.0,0.0
9123,77.0,0.0,60.0,6.0,0.0
9124,83.0,24.0,20.0,0.0,0.0
9125,80.0,24.0,20.0,0.0,0.0
9126,83.0,0.0,60.0,2.0,0.0
9127,74.0,0.0,60.0,6.0,0.0
9128,77.0,24.0,20.0,0.0,0.0
9129,77.0,0.0,60.0,4.0,0.0
9130,74.0,0.0,20.0,0.0,0.0
9131,77.0,0.0,60.0,6.0,0.0
9132,68.0,24.0,20.0,0.0,0.0
9133,65.0,0.0,90.0,5.0,0.0
9134,50.0,24.0,90.0,3.0,0.0
9135,82.0,0.0,60.0,2.0,0.0
9136,74.0,24.0,60.0,4.0,0.0
9137,70.0,0.0,90.0,7.0,0.0
9138,70.0,0.0,20.0,0.0,0.0
9139,74.0,24.0,20.0,0.0,0.0
9140,77.0,0.0,60.0,2.0,0.0
9141,77.0,0.0,60.0,4.0,0.0
9142,74.0,0.0,60.0,6.0,0.0
9143,77.0,0.0,20.0,0.0,0.0
9144,82.0,24.0,60.0,4.0,0.0
9145,74.0,0.0,60.0,2.0,0.0
9146,77.0,0.0,60.0,6.0,0.0
9147,65.0,0.0,90.0,5.0,0.0
9148,50.0,0.0,90.0,3.0,0.0
9149,70.0,0.0,90.0,7.0,0.0
9150,82.0,24.0,20.0,0.0,0.0
9151,77.0,0.0,20.0,0.0,0.0
9152,74.0,0.0,60.0,6.0,0.0
9153,74.0,24.0,20.0,0.0,0.0
9154,82.0,24.0,60.0,2.0,0.0
9155,77.0,0.0,60.0,4.0,0.0
9156,70.0,0.0,20.0,0.0,0.0
9157,82.0,0.0,60.0,2.0,0.0
9158,74.0,24.0,60.0,4.0,0.0
9159,70.0,0.0,90.0,7.0,0.0
9160,50.0,0.0,90.0,3.0,0.0
9161,65.0,0.0,90.0,5.0,0.0
9162,68.0,24.0,20.0,0.0,0.0
9163,77.0,0.0,60.0,6.0,0.0
9164,70.0,0.0,20.0,0.0,0.0
9165,74.0,0.0,60.0,6.0,0.0
9166,77.0,0.0,60.0,2.0,0.0
9167,74.0,24.0,20.0,0.0,0.0
9168,77.0,0.0,60.0,4.0,0.0
9169,77.0,24.0,20.0,0.0,0.0
9170,70.0,24.0,90.0,7.0,0.0
9171,77.0,0.0,60.0,6.0,0.0
9172,65.0,0.0,90.0,5.0,0.0
9173,74.0,24.0,60.0,2.0,0.0
9174,50.0,0.0,90.0,3.0,0.0
9175,82.0,0.0,60.0,4.0,0.0
9176,82.0,24.0,20.0,0.0,0.0
9177,77.0,0.0,20.0,0.0,0.0
9178,77.0,0.0,60.0,4.0,0.0
9179,74.0,24.0,20.0,0.0,0.0
9180,74.0,0.0,60.0,6.0,0.0
9181,82.0,0.0,60.0,2.0,0.0
9182,70.0,0.0,20.0,0.0,0.0
9183,70.0,0.0,90.0,7.0,0.0
9184,77.0,24.0,60.0,6.0,0.0
9185,68.0,24.0,20.0,0.0,0.0
9186,50.0,0.0,90.0,3.0,0.0
9187,65.0,0.0,90.0,5.0,0.0
9188,74.0,0.0,60.0,4.0,0.0
9189,82.0,0.0,60.0,2.0,0.0
9190,70.0,0.0,20.0,0.0,0.0
9191,74.0,24.0,20.0,0.0,0.0
9192,77.0,0.0,60.0,2.0,0.0
9193,74.0,0.0,60.0,6.0,0.0
9194,77.0,0.0,60.0,4.0,0.0
9195,77.0,24.0,20.0,0.0,0.0
9196,82.0,24.0,60.0,4.0,0.0
9197,82.0,24.0,20.0,0.0,0.0
9198,50.0,24.0,90.0,3.0,0.0
9199,70.0,0.0,90.0,7.0,0.0
9200,65.0,0.0,90.0,5.0,0.0
9201,74.0,0.0,60.0,2.0,0.0
9202,77.0,0.0,60.0,6.0,0.0
9203,77.0,0.0,20.0,0.0,0.0
9204,74.0,0.0,60.0,6.0,0.0
9205,74.0,24.0,20.0,0.0,0.0
9206,77.0,0.0,60.0,4.0,0.0
9207,82.0,0.0,60.0,2.0,0.0
9208,70.0,0.0,20.0,0.0,0.0
9209,66.0,24.0,20.0,0.0,0.0
9210,82.0,24.0,60.0,2.0,0.0
9211,51.0,0.0,90.0,3.0,0.0
9212,78.0,0.0,60.0,6.0,0.0
9213,70.0,0.0,90.0,7.0,0.0
9214,75.0,0.0,60.0,4.0,0.0
9215,66.0,0.0,90.0,5.0,0.0
9216,70.0,0.0,20.0,0.0,0.0
9217,75.0,0.0,60.0,6.0,0.0
9218,75.0,24.0,20.0,0.0,0.0
9219,78.0,0.0,60.0,2.0,0.0
9220,78.0,0.0,60.0,4.0,0.0
9221,78.0,24.0,20.0,0.0,0.0
9222,51.0,0.0,90.0,3.0,0.0
9223,66.0,0.0,90.0,5.0,0.0
9224,78.0,0.0,60.0,6.0,0.0
9225,70.0,0.0,90.0,7.0,0.0
9226,82.0,0.0,60.0,4.0,0.0
9227,75.0,0.0,60.0,2.0,0.0
9228,82.0,24.0,20.0,0.0,0.0
9229,78.0,24.0,20.0,0.0,0.0
9230,82.0,0.0,60.0,2.0,0.0
9231,75.0,0.0,60.0,6.0,0.0
9232,78.0,24.0,60.0,4.0,0.0
9233,75.0,24.0,20.0,0.0,0.0
9234,70.0,0.0,20.0,0.0,0.0
9235,78.0,0.0,60.0,6.0,0.0
9236,51.0,0.0,90.0,3.0,0.0
9237,75.0,0.0,60.0,4.0,0.0
9238,82.0,24.0,60.0,2.0,0.0
9239,66.0,24.0,20.0,0.0,0.0
9240,66.0,24.0,90.0,5.0,0.0
9241,70.0,0.0,90.0,7.0,0.0
9242,70.0,0.0,20.0,0.0,0.0
9243,75.0,0.0,60.0,6.0,0.0
9244,78.0,0.0,60.0,2.0,0.0
9245,75.0,24.0,20.0,0.0,0.0
9246,78.0,0.0,60.0,4.0,0.0
9247,78.0,0.0,20.0,0.0,0.0
9248,51.0,0.0,90.0,3.0,0.0
9249,75.0,0.0,60.0,2.0,0.0
9250,82.0,0.0,60.0,4.0,0.0
9251,66.0,0.0,90.0,5.0,0.0
9252,82.0,24.0,20.0,0.0,0.0
9253,78.0,0.0,60.0,6.0,0.0
9254,70.0,0.0,90.0,7.0,0.0
9255,78.0,24.0,20.0,0.0,0.0
9256,82.0,0.0,60.0,2.0,0.0
9257,75.0,0.0,60.0,6.0,0.0
9258,75.0,24.0,20.0,0.0,0.0
9259,78.0,24.0,60.0,4.0,0.0
9260,70.0,0.0,20.0,0.0,0.0
9261,78.0,0.0,60.0,6.0,0.0
9262,66.0,24.0,20.0,0.0,0.0
9263,82.0,0.0,60.0,2.0,0.0
9264,66.0,0.0,90.0,5.0,0.0
9265,70.0,0.0,90.0,7.0,0.0
9266,75.0,24.0,60.0,4.0,0.0
9267,51.0,0.0,90.0,3.0,0.0
9268,70.0,0.0,20.0,0.0,0.0
9269,78.0,0.0,60.0,2.0,0.0
9270,78.0,0.0,60.0,4.0,0.0
9271,75.0,24.0,20.0,0.0,0.0
9272,75.0,0.0,60.0,6.0,0.0
9273,78.0,24.0,20.0,0.0,0.0
9274,82.0,24.0,20.0,0.0,0.0
9275,82.0,0.0,60.0,4.0,0.0
9276,70.0,0.0,90.0,7.0,0.0
9277,78.0,0.0,60.0,6.0,0.0
9278,66.0,0.0,90.0,5.0,0.0
9279,75.0,24.0,60.0,2.0,0.0
9280,51.0,24.0,90.0,3.0,0.0
9281,78.0,0.0,20.0,0.0,0.0
9282,85.0,0.0,60.0,2.0,0.0
9283,75.0,0.0,60.0,6.0,0.0
9284,75.0,24.0,20.0,0.0,0.0
9285,78.0,0.0,60.0,4.0,0.0
9286,70.0,0.0,20.0,0.0,0.0
9287,82.0,0.0,60.0,6.0,0.0
9288,76.0,0.0,60.0,4.0,0.0
9289,67.0,0.0,90.0,5.0,0.0
9290,70.0,24.0,20.0,0.0,0.0
9291,73.0,0.0,90.0,7.0,0.0
9292,85.0,0.0,60.0,2.0,0.0
9293,55.0,0.0,90.0,3.0,0.0
9294,73.0,24.0,20.0,0.0,0.0
9295,82.0,24.0,60.0,2.0,0.0
9296,76.0,24.0,20.0,0.0,0.0
9297,82.0,0.0,60.0,4.0,0.0
9298,76.0,0.0,60.0,6.0,0.0
9299,82.0,0.0,20.0,0.0,0.0
9300,85.0,24.0,20.0,0.0,0.0
9301,67.0,24.0,90.0,5.0,0.0
9302,82.0,0.0,60.0,6.0,0.0
9303,73.0,0.0,90.0,7.0,0.0
9304,79.0,0.0,60.0,2.0,0.0
9305,55.0,0.0,90.0,3.0,0.0
9306,85.0,24.0,60.0,4.0,0.0
9307,82.0,0.0,20.0,0.0,0.0
9308,85.0,0.0,60.0,2.0,0.0
9309,76.0,0.0,60.0,6.0,0.0
9310,82.0,0.0,60.0,4.0,0.0
9311,76.0,24.0,20.0,0.0,0.0
9312,73.0,0.0,20.0,0.0,0.0
9313,85.0,0.0,60.0,2.0,0.0
9314,55.0,0.0,90.0,3.0,0.0
9315,73.0,0.0,90.0,7.0,0.0
9316,82.0,24.0,60.0,6.0,0.0
9317,70.0,24.0,20.0,0.0,0.0
9318,76.0,0.0,60.0,4.0,0.0
9319,67.0,0.0,90.0,5.0,0.0
9320,73.0,0.0,20.0,0.0,0.0
9321,82.0,0.0,60.0,2.0,0.0
9322,76.0,24.0,20.0,0.0,0.0
9323,82.0,0.0,60.0,4.0,0.0
9324,76.0,24.0,60.0,6.0,0.0
9325,82.0,0.0,20.0,0.0,0.0
9326,85.0,24.0,20.0,0.0,0.0
9327,79.0,0.0,60.0,2.0,0.0
9328,55.0,0.0,90.0,3.0,0.0
9329,82.0,24.0,60.0,6.0,0.0
9330,67.0,0.0,90.0,5.0,0.0
9331,73.0,0.0,90.0,7.0,0.0
9332,85.0,0.0,60.0,4.0,0.0
9333,82.0,0.0,20.0,0.0,0.0
9334,76.0,0.0,60.0,6.0,0.0
9335,76.0,24.0,20.0,0.0,0.0
9336,85.0,24.0,60.0,2.0,0.0
9337,82.0,0.0,60.0,4.0,0.0
9338,73.0,0.0,20.0,0.0,0.0
9339,73.0,0.0,90.0,7.0,0.0
9340,67.0,0.0,90.0,5.0,0.0
9341,76.0,24.0,60.0,4.0,0.0
9342,82.0,0.0,60.0,6.0,0.0
9343,70.0,24.0,20.0,0.0,0.0
9344,55.0,0.0,90.0,3.0,0.0
9345,85.0,0.0,60.0,2.0,0.0
9346,73.0,0.0,20.0,0.0,0.0
9347,82.0,0.0,60.0,4.0,0.0
9348,82.0,0.0,60.0,2.0,0.0
9349,76.0,24.0,20.0,0.0,0.0
9350,76.0,24.0,60.0,6.0,0.0
9351,82.0,0.0,20.0,0.0,0.0
9352,55.0,0.0,90.0,3.0,0.0
9353,73.0,0.0,90.0,7.0,0.0
9354,85.0,24.0,20.0,0.0,0.0
9355,85.0,0.0,60.0,4.0,0.0
9356,82.0,24.0,60.0,6.0,0.0
9357,79.0,0.0,60.0,2.0,0.0
9358,67.0,0.0,90.0,5.0,0.0
9359,82.0,0.0,20.0,0.0,0.0
9360,76.0,0.0,60.0,6.0,0.0
9361,82.0,0.0,60.0,4.0,0.0
9362,76.0,24.0,20.0,0.0,0.0
9363,85.0,24.0,60.0,2.0,0.0
9364,73.0,0.0,20.0,0.0,0.0
9365,56.0,0.0,90.0,3.0,0.0
9366,68.0,24.0,20.0,0.0,0.0
9367,75.0,0.0,60.0,4.0,0.0
9368,63.0,0.0,90.0,5.0,0.0
9369,68.0,0.0,90.0,7.0,0.0
9370,85.0,0.0,60.0,2.0,0.0
9371,80.0,0.0,60.0,6.0,0.0
9372,75.0,24.0,20.0,0.0,0.0
9373,80.0,0.0,60.0,4.0,0.0
9374,80.0,0.0,60.0,2.0,0.0
9375,75.0,0.0,60.0,6.0,0.0
9376,79.0,24.0,20.0,0.0,0.0
9377,80.0,24.0,20.0,0.0,0.0
9378,85.0,24.0,20.0,0.0,0.0
9379,56.0,0.0,90.0,3.0,0.0
9380,63.0,0.0,90.0,5.0,0.0
9381,68.0,0.0,90.0,7.0,0.0
9382,75.0,0.0,60.0,2.0,0.0
9383,85.0,0.0,60.0,4.0,0.0
9384,80.0,24.0,60.0,6.0,0.0
9385,79.0,0.0,20.0,0.0,0.0
9386,75.0,0.0,60.0,6.0,0.0
9387,85.0,0.0,60.0,2.0,0.0
9388,80.0,24.0,20.0,0.0,0.0
9389,80.0,24.0,60.0,4.0,0.0
9390,75.0,0.0,20.0,0.0,0.0
9391,68.0,24.0,90.0,7.0,0.0
9392,75.0,24.0,60.0,4.0,0.0
9393,56.0,0.0,90.0,3.0,0.0
9394,80.0,0.0,60.0,6.0,0.0
9395,68.0,24.0,20.0,0.0,0.0
9396,85.0,0.0,60.0,2.0,0.0
9397,63.0,0.0,90.0,5.0,0.0
9398,75.0,0.0,20.0,0.0,0.0
9399,79.0,24.0,20.0,0.0,0.0
9400,75.0,0.0,60.0,6.0,0.0
9401,80.0,0.0,60.0,4.0,0.0
9402,80.0,0.0,60.0,2.0,0.0
9403,80.0,0.0,20.0,0.0,0.0
9404,85.0,24.0,20.0,0.0,0.0
9405,75.0,0.0,60.0,2.0,0.0
9406,56.0,24.0,90.0,3.0,0.0
9407,80.0,0.0,60.0,6.0,0.0
9408,63.0,0.0,90.0,5.0,0.0
9409,68.0,0.0,90.0,7.0,0.0
9410,85.0,0.0,60.0,4.0,0.0
9411,79.0,24.0,20.0,0.0,0.0
9412,85.0,0.0,60.0,2.0,0.0
9413,75.0,0.0,60.0,6.0,0.0
9414,80.0,0.0,60.0,4.0,0.0
9415,80.0,24.0,20.0,0.0,0.0
9416,75.0,0.0,20.0,0.0,0.0
9417,68.0,0.0,90.0,7.0,0.0
9418,63.0,0.0,90.0,5.0,0.0
9419,75.0,24.0,60.0,4.0,0.0
9420,56.0,0.0,90.0,3.0,0.0
9421,80.0,0.0,60.0,6.0,0.0
9422,85.0,0.0,60.0,2.0,0.0
9423,68.0,24.0,20.0,0.0,0.0
9424,75.0,0.0,20.0,0.0,0.0
9425,80.0,0.0,60.0,2.0,0.0
9426,75.0,0.0,60.0,6.0,0.0
9427,79.0,24.0,20.0,0.0,0.0
9428,80.0,0.0,60.0,4.0,0.0
9429,80.0,24.0,20.0,0.0,0.0
9430,56.0,0.0,90.0,3.0,0.0
9431,80.0,24.0,60.0,6.0,0.0
9432,63.0,0.0,90.0,5.0,0.0
9433,75.0,0.0,60.0,2.0,0.0
9434,85.0,0.0,60.0,4.0,0.0
9435,85.0,24.0,20.0,0.0,0.0
9436,68.0,24.0,90.0,7.0,0.0
9437,79.0,0.0,20.0,0.0,0.0
9438,80.0,24.0,20.0,0.0,0.0
9439,75.0,0.0,60.0,6.0,0.0
9440,80.0,0.0,60.0,4.0,0.0
9441,85.0,0.0,60.0,2.0,0.0
9442,75.0,0.0,20.0,0.0,0.0
9443,80.0,24.0,60.0,6.0,0.0
9444,75.0,0.0,60.0,4.0,0.0
9445,56.0,0.0,90.0,3.0,0.0
9446,63.0,0.0,90.0,5.0,0.0
9447,83.0,0.0,60.0,2.0,0.0
9448,68.0,24.0,20.0,0.0,0.0
9449,71.0,24.0,90.0,7.0,0.0
9450,75.0,0.0,20.0,0.0,0.0
9451,80.0,0.0,60.0,2.0,0.0
9452,79.0,24.0,20.0,0.0,0.0
9453,80.0,0.0,60.0,4.0,0.0
9454,75.0,0.0,60.0,6.0,0.0
9455,80.0,0.0,20.0,0.0,0.0
9456,83.0,24.0,20.0,0.0,0.0
9457,56.0,0.0,90.0,3.0,0.0
9458,83.0,24.0,60.0,4.0,0.0
9459,80.0,0.0,60.0,6.0,0.0
9460,75.0,0.0,60.0,2.0,0.0
9461,71.0,0.0,90.0,7.0,0.0
9462,63.0,0.0,90.0,5.0,0.0
9463,79.0,0.0,20.0,0.0,0.0
9464,80.0,24.0,20.0,0.0,0.0
9465,83.0,0.0,60.0,2.0,0.0
9466,80.0,24.0,60.0,4.0,0.0
9467,75.0,0.0,60.0,6.0,0.0
9468,75.0,0.0,20.0,0.0,0.0
9469,68.0,24.0,20.0,0.0,0.0
9470,71.0,0.0,90.0,7.0,0.0
9471,63.0,0.0,90.0,5.0,0.0
9472,56.0,0.0,90.0,3.0,0.0
9473,80.0,24.0,60.0,6.0,0.0
9474,75.0,0.0,60.0,4.0,0.0
9475,83.0,0.0,60.0,2.0,0.0
9476,75.0,0.0,20.0,0.0,0.0
9477,79.0,24.0,20.0,0.0,0.0
9478,75.0,0.0,60.0,6.0,0.0
9479,80.0,0.0,60.0,2.0,0.0
9480,80.0,0.0,60.0,4.0,0.0
9481,80.0,24.0,20.0,0.0,0.0
9482,83.0,0.0,60.0,4.0,0.0
9483,80.0,0.0,60.0,6.0,0.0
9484,75.0,24.0,60.0,2.0,0.0
9485,71.0,24.0,90.0,7.0,0.0
9486,83.0,24.0,20.0,0.0,0.0
9487,63.0,0.0,90.0,5.0,0.0
9488,56.0,0.0,90.0,3.0,0.0
9489,79.0,0.0,20.0,0.0,0.0
9490,80.0,24.0,20.0,0.0,0.0
9491,75.0,0.0,60.0,6.0,0.0
9492,80.0,0.0,60.0,4.0,0.0
9493,83.0,0.0,60.0,2.0,0.0
9494,75.0,0.0,20.0,0.0,0.0
9495,63.0,0.0,90.0,5.0,0.0
9496,71.0,0.0,90.0,7.0,0.0
9497,80.0,24.0,60.0,6.0,0.0
9498,68.0,24.0,20.0,0.0,0.0
9499,75.0,0.0,60.0,4.0,0.0
9500,56.0,0.0,90.0,3.0,0.0
9501,83.0,0.0,60.0,2.0,0.0
9502,75.0,0.0,20.0,0.0,0.0
9503,80.0,0.0,60.0,4.0,0.0
9504,80.0,0.0,60.0,2.0,0.0
9505,75.0,24.0,60.0,6.0,0.0
9506,79.0,24.0,20.0,0.0,0.0
9507,80.0,0.0,20.0,0.0,0.0
9508,83.0,24.0,20.0,0.0,0.0
9509,80.0,0.0,60.0,6.0,0.0
9510,63.0,0.0,90.0,5.0,0.0
9511,56.0,0.0,90.0,3.0,0.0
9512,71.0,0.0,90.0,7.0,0.0
9513,75.0,0.0,60.0,2.0,0.0
9514,83.0,0.0,60.0,4.0,0.0
9515,79.0,24.0,20.0,0.0,0.0
9516,75.0,0.0,60.0,6.0,0.0
9517,80.0,0.0,60.0,4.0,0.0
9518,83.0,0.0,60.0,2.0,0.0
9519,80.0,24.0,20.0,0.0,0.0
9520,75.0,24.0,20.0,0.0,0.0
9521,73.0,24.0,90.0,7.0,0.0
9522,80.0,0.0,60.0,6.0,0.0
9523,68.0,24.0,20.0,0.0,0.0
9524,77.0,0.0,60.0,4.0,0.0
9525,49.0,0.0,90.0,3.0,0.0
9526,68.0,0.0,90.0,5.0,0.0
9527,83.0,24.0,60.0,2.0,0.0
9528,73.0,0.0,20.0,0.0,0.0
9529,77.0,0.0,60.0,6.0,0.0
9530,80.0,0.0,60.0,2.0,0.0
9531,77.0,24.0,20.0,0.0,0.0
9532,80.0,0.0,60.0,4.0,0.0
9533,80.0,0.0,20.0,0.0,0.0
9534,73.0,0.0,90.0,7.0,0.0
9535,80.0,0.0,60.0,6.0,0.0
9536,83.0,24.0,20.0,0.0,0.0
9537,83.0,0.0,60.0,4.0,0.0
9538,49.0,0.0,90.0,3.0,0.0
9539,73.0,24.0,60.0,2.0,0.0
9540,68.0,0.0,90.0,5.0,0.0
9541,80.0,0.0,20.0,0.0,0.0
9542,77.0,24.0,20.0,0.0,0.0
9543,80.0,24.0,60.0,4.0,0.0
9544,77.0,0.0,60.0,6.0,0.0
9545,83.0,0.0,60.0,2.0,0.0
9546,73.0,0.0,20.0,0.0,0.0
9547,68.0,0.0,90.0,5.0,0.0
9548,49.0,0.0,90.0,3.0,0.0
9549,83.0,0.0,60.0,2.0,0.0
9550,80.0,24.0,60.0,6.0,0.0
9551,77.0,0.0,60.0,4.0,0.0
9552,73.0,0.0,90.0,7.0,0.0
9553,68.0,24.0,20.0,0.0,0.0
9554,73.0,0.0,20.0,0.0,0.0
9555,80.0,24.0,60.0,4.0,0.0
9556,77.0,0.0,60.0,6.0,0.0
9557,77.0,24.0,20.0,0.0,0.0
9558,80.0,0.0,60.0,2.0,0.0
9559,80.0,0.0,20.0,0.0,0.0
9560,80.0,0.0,60.0,6.0,0.0
9561,73.0,24.0,60.0,2.0,0.0
9562,49.0,24.0,90.0,3.0,0.0
9563,83.0,0.0,60.0,4.0,0.0
9564,68.0,0.0,90.0,5.0,0.0
9565,73.0,0.0,90.0,7.0,0.0
9566,83.0,24.0,20.0,0.0,0.0
9567,80.0,0.0,20.0,0.0,0.0
9568,80.0,0.0,60.0,4.0,0.0
9569,77.0,24.0,20.0,0.0,0.0
9570,77.0,0.0,60.0,6.0,0.0
9571,83.0,0.0,60.0,2.0,0.0
9572,73.0,0.0,20.0,0.0,0.0
9573,80.0,0.0,60.0,6.0,0.0
9574,73.0,0.0,90.0,7.0,0.0
9575,77.0,0.0,60.0,4.0,0.0
9576,83.0,0.0,60.0,2.0,0.0
9577,49.0,0.0,90.0,3.0,0.0
9578,68.0,0.0,90.0,5.0,0.0
9579,68.0,24.0,20.0,0.0,0.0
9580,73.0,24.0,20.0,0.0,0.0
9581,77.0,24.0,20.0,0.0,0.0
9582,80.0,24.0,60.0,4.0,0.0
9583,80.0,0.0,60.0,2.0,0.0
9584,77.0,0.0,60.0,6.0,0.0
9585,80.0,0.0,20.0,0.0,0.0
9586,73.0,24.0,60.0,2.0,0.0
9587,83.0,0.0,60.0,4.0,0.0
9588,83.0,24.0,20.0,0.0,0.0
9589,73.0,0.0,90.0,7.0,0.0
9590,80.0,0.0,60.0,6.0,0.0
9591,68.0,0.0,90.0,5.0,0.0
9592,49.0,0.0,90.0,3.0,0.0
9593,80.0,0.0,20.0,0.0,0.0
9594,77.0,0.0,60.0,6.0,0.0
9595,77.0,24.0,20.0,0.0,0.0
9596,80.0,0.0,60.0,4.0,0.0
9597,83.0,0.0,60.0,2.0,0.0
9598,73.0,24.0,20.0,0.0,0.0
9599,66.0,0.0,90.0,7.0,0.0
9600,69.0,0.0,90.0,5.0,0.0
9601,54.0,0.0,90.0,3.0,0.0
9602,78.0,24.0,60.0,6.0,0.0
9603,73.0,0.0,60.0,4.0,0.0
9604,66.0,24.0,20.0,0.0,0.0
9605,81.0,0.0,60.0,2.0,0.0
9606,73.0,0.0,20.0,0.0,0.0
9607,73.0,0.0,60.0,6.0,0.0
9608,77.0,24.0,20.0,0.0,0.0
9609,78.0,0.0,60.0,2.0,0.0
9610,78.0,24.0,60.0,4.0,0.0
9611,78.0,0.0,20.0,0.0,0.0
9612,78.0,0.0,60.0,6.0,0.0
9613,73.0,0.0,60.0,2.0,0.0
9614,81.0,24.0,20.0,0.0,0.0
9615,54.0,0.0,90.0,3.0,0.0
9616,66.0,0.0,90.0,7.0,0.0
9617,81.0,24.0,60.0,4.0,0.0
9618,69.0,0.0,90.0,5.0,0.0
9619,77.0,0.0,20.0,0.0,0.0
9620,78.0,0.0,60.0,4.0,0.0
9621,73.0,0.0,60.0,6.0,0.0
9622,78.0,24.0,20.0,0.0,0.0
9623,81.0,0.0,60.0,2.0,0.0
9624,73.0,24.0,20.0,0.0,0.0
9625,66.0,24.0,90.0,7.0,0.0
9626,81.0,0.0,60.0,2.0,0.0
9627,54.0,0.0,90.0,3.0,0.0
9628,78.0,24.0,60.0,6.0,0.0
9629,73.0,0.0,60.0,4.0,0.0
9630,69.0,0.0,90.0,5.0,0.0
9631,66.0,24.0,20.0,0.0,0.0
9632,73.0,0.0,20.0,0.0,0.0
9633,73.0,0.0,60.0,6.0,0.0
9634,78.0,0.0,60.0,2.0,0.0
9635,77.0,24.0,20.0,0.0,0.0
9636,78.0,0.0,60.0,4.0,0.0
9637,78.0,0.0,20.0,0.0,0.0
9638,81.0,24.0,20.0,0.0,0.0
9639,78.0,0.0,60.0,6.0,0.0
9640,73.0,0.0,60.0,2.0,0.0
9641,54.0,0.0,90.0,3.0,0.0
9642,81.0,0.0,60.0,4.0,0.0
9643,66.0,0.0,90.0,7.0,0.0
9644,69.0,0.0,90.0,5.0,0.0
9645,77.0,24.0,20.0,0.0,0.0
9646,78.0,24.0,20.0,0.0,0.0
9647,81.0,24.0,60.0,2.0,0.0
9648,73.0,0.0,60.0,6.0,0.0
9649,78.0,0.0,60.0,4.0,0.0
9650,73.0,0.0,20.0,0.0,0.0
9651,81.0,24.0,60.0,2.0,0.0
9652,69.0,0.0,90.0,5.0,0.0
9653,78.0,0.0,60.0,6.0,0.0
9654,66.0,0.0,90.0,7.0,0.0
9655,54.0,24.0,90.0,3.0,0.0
9656,73.0,0.0,60.0,4.0,0.0
9657,66.0,24.0,20.0,0.0,0.0
9658,73.0,0.0,20.0,0.0,0.0
9659,78.0,0.0,60.0,4.0,0.0
9660,73.0,0.0,60.0,6.0,0.0
9661,77.0,24.0,20.0,0.0,0.0
9662,78.0,0.0,60.0,2.0,0.0
9663,78.0,0.0,20.0,0.0,0.0
9664,78.0,0.0,60.0,6.0,0.0
9665,81.0,0.0,60.0,4.0,0.0
9666,73.0,0.0,60.0,2.0,0.0
9667,81.0,24.0,20.0,0.0,0.0
9668,69.0,0.0,90.0,5.0,0.0
9669,66.0,0.0,90.0,7.0,0.0
9670,54.0,0.0,90.0,3.0,0.0
9671,77.0,24.0,20.0,0.0,0.0
9672,78.0,0.0,60.0,4.0,0.0
9673,78.0,24.0,20.0,0.0,0.0
9674,81.0,0.0,60.0,2.0,0.0
9675,73.0,530.0,60.0,6.0,0.0
9676,73.0,0.0,20.0,0.0,0.0
9677,56.0,6.0,660.0,5.0,0.0
9678,56.0,0.0,540.0,12.0,0.0
9679,56.0,0.0,660.0,7.0,0.0
9680,78.0,0.0,540.0,8.0,0.0
9681,72.0,10.0,540.0,11.0,0.0
9682,75.0,0.0,540.0,10.0,0.0
9683,60.0,0.0,780.0,1.0,0.0
9684,56.0,0.0,660.0,3.0,0.0
9685,63.0,0.0,630.0,5.0,0.0
9686,63.0,0.0,750.0,1.0,0.0
9687,63.0,0.0,630.0,7.0,0.0
9688,63.0,0.0,630.0,3.0,0.0
9689,68.0,0.0,720.0,2.0,0.0
9690,68.0,0.0,720.0,4.0,0.0
9691,68.0,0.0,480.0,0.0,0.0
9692,68.0,144.0,720.0,6.0,0.0
9693,72.0,0.0,720.0,4.0,0.0
9694,72.0,0.0,720.0,6.0,0.0
9695,72.0,0.0,720.0,2.0,0.0
9696,72.0,0.0,480.0,0.0,0.0
9697,75.0,0.0,690.0,4.0,0.0
9698,75.0,0.0,690.0,6.0,0.0
9699,75.0,0.0,690.0,2.0,0.0
9700,78.0,0.0,480.0,0.0,0.0
9701,78.0,0.0,690.0,4.0,0.0
9702,78.0,0.0,690.0,6.0,0.0
9703,78.0,0.0,690.0,2.0,0.0
9704,80.0,48.0,450.0,0.0,0.0
9705,80.0,0.0,660.0,2.0,0.0
9706,68.0,24.0,60.0,0.0,0.0
9707,70.0,12.0,20.0,0.0,0.0
9708,72.0,12.0,15.0,0.0,0.0
9709,73.0,12.0,15.0,0.0,0.0
9710,75.0,12.0,15.0,0.0,0.0
9711,76.0,6.0,15.0,0.0,0.0
9712,78.0,12.0,15.0,0.0,0.0
9713,76.0,12.0,15.0,0.0,0.0
9714,75.0,12.0,15.0,0.0,0.0
9715,76.0,12.0,15.0,0.0,0.0
9716,78.0,12.0,15.0,0.0,0.0
9717,80.0,12.0,15.0,0.0,0.0
9718,82.0,12.0,15.0,0.0,0.0
9719,84.0,12.0,15.0,0.0,0.0
9720,85.0,0.0,15.0,0.0,0.0
9721,76.0,0.0,150.0,10.0,0.0
9722,68.0,48.0,150.0,2.0,0.0
9723,61.0,0.0,150.0,1.0,0.0
9724,85.0,0.0,150.0,0.0,0.0
9725,73.0,0.0,150.0,2.0,0.0
9726,76.0,0.0,150.0,2.0,0.0
9727,76.0,0.0,150.0,0.0,0.0
9728,80.0,0.0,150.0,0.0,0.0
9729,73.0,0.0,150.0,6.0,0.0
9730,68.0,0.0,150.0,11.0,0.0
9731,61.0,0.0,150.0,7.0,0.0
9732,68.0,0.0,150.0,4.0,0.0
9733,73.0,0.0,150.0,4.0,0.0
9734,76.0,0.0,150.0,4.0,0.0
9735,76.0,0.0,150.0,6.0,0.0
9736,85.0,0.0,150.0,8.0,0.0
9737,49.0,0.0,150.0,5.0,0.0
9738,61.0,0.0,150.0,3.0,0.0
9739,68.0,0.0,150.0,6.0,0.0
9740,61.0,0.0,150.0,12.0,0.0
9741,68.0,0.0,60.0,11.0,0.0
9742,49.0,0.0,60.0,5.0,0.0
9743,61.0,0.0,60.0,3.0,0.0
9744,85.0,0.0,60.0,8.0,0.0
9745,73.0,0.0,60.0,4.0,0.0
9746,73.0,0.0,60.0,2.0,0.0
9747,76.0,0.0,60.0,2.0,0.0
9748,61.0,0.0,60.0,1.0,0.0
9749,68.0,144.0,60.0,6.0,0.0
9750,73.0,0.0,60.0,6.0,0.0
9751,76.0,0.0,60.0,6.0,0.0
9752,76.0,0.0,60.0,4.0,0.0
9753,85.0,0.0,60.0,0.0,0.0
9754,80.0,0.0,60.0,0.0,0.0
9755,68.0,0.0,60.0,2.0,0.0
9756,76.0,0.0,60.0,0.0,0.0
9757,61.0,0.0,60.0,7.0,0.0
9758,61.0,0.0,60.0,12.0,0.0
9759,76.0,0.0,60.0,10.0,0.0
9760,68.0,0.0,60.0,4.0,0.0
9761,49.0,0.0,150.0,5.0,0.0
9762,76.0,0.0,150.0,10.0,0.0
9763,61.0,0.0,150.0,12.0,0.0
9764,61.0,0.0,150.0,1.0,0.0
9765,85.0,0.0,150.0,8.0,0.0
9766,68.0,0.0,150.0,4.0,0.0
9767,68.0,0.0,150.0,11.0,0.0
9768,61.0,0.0,150.0,7.0,0.0
9769,76.0,0.0,150.0,4.0,0.0
9770,76.0,0.0,150.0,0.0,0.0
9771,80.0,0.0,150.0,0.0,0.0
9772,85.0,0.0,150.0,0.0,0.0
9773,68.0,48.0,150.0,6.0,0.0
9774,73.0,0.0,150.0,6.0,0.0
9775,76.0,0.0,150.0,6.0,0.0
9776,76.0,0.0,150.0,2.0,0.0
9777,73.0,0.0,150.0,2.0,0.0
9778,68.0,0.0,150.0,2.0,0.0
9779,61.0,0.0,150.0,3.0,0.0
9780,73.0,0.0,150.0,4.0,0.0
9781,68.0,0.0,60.0,6.0,0.0
9782,68.0,0.0,60.0,4.0,0.0
9783,73.0,144.0,60.0,4.0,0.0
9784,76.0,0.0,60.0,4.0,0.0
9785,76.0,0.0,60.0,10.0,0.0
9786,49.0,0.0,60.0,5.0,0.0
9787,61.0,0.0,60.0,3.0,0.0
9788,61.0,0.0,60.0,7.0,0.0
9789,76.0,0.0,60.0,2.0,0.0
9790,73.0,0.0,60.0,2.0,0.0
9791,68.0,0.0,60.0,2.0,0.0
9792,76.0,0.0,60.0,0.0,0.0
9793,61.0,0.0,60.0,1.0,0.0
9794,68.0,0.0,60.0,11.0,0.0
9795,61.0,0.0,60.0,12.0,0.0
9796,80.0,0.0,60.0,0.0,0.0
9797,73.0,0.0,60.0,6.0,0.0
9798,85.0,0.0,60.0,0.0,0.0
9799,85.0,0.0,60.0,8.0,0.0
9800,76.0,0.0,60.0,6.0,0.0
9801,73.0,0.0,150.0,2.0,0.0
9802,61.0,48.0,150.0,7.0,0.0
9803,85.0,0.0,150.0,0.0,0.0
9804,80.0,0.0,150.0,0.0,0.0
9805,76.0,0.0,150.0,6.0,0.0
9806,73.0,0.0,150.0,6.0,0.0
9807,61.0,0.0,150.0,1.0,0.0
9808,68.0,0.0,150.0,2.0,0.0
9809,68.0,0.0,150.0,6.0,0.0
9810,76.0,0.0,150.0,2.0,0.0
9811,76.0,0.0,150.0,0.0,0.0
9812,61.0,0.0,150.0,12.0,0.0
9813,68.0,0.0,150.0,11.0,0.0
9814,68.0,0.0,150.0,4.0,0.0
9815,73.0,0.0,150.0,4.0,0.0
9816,76.0,0.0,150.0,4.0,0.0
9817,76.0,0.0,150.0,10.0,0.0
9818,61.0,0.0,150.0,3.0,0.0
9819,85.0,0.0,150.0,8.0,0.0
9820,49.0,0.0,150.0,5.0,0.0
9821,76.0,0.0,60.0,10.0,0.0
9822,61.0,0.0,60.0,7.0,0.0
9823,68.0,0.0,60.0,11.0,0.0
9824,80.0,0.0,60.0,0.0,0.0
9825,73.0,0.0,60.0,6.0,0.0
9826,76.0,0.0,60.0,6.0,0.0
9827,76.0,0.0,60.0,0.0,0.0
9828,85.0,0.0,60.0,8.0,0.0
9829,85.0,0.0,60.0,0.0,0.0
9830,68.0,0.0,60.0,6.0,0.0
9831,49.0,48.0,60.0,5.0,0.0
9832,61.0,0.0,60.0,12.0,0.0
9833,68.0,0.0,60.0,4.0,0.0
9834,73.0,0.0,60.0,4.0,0.0
9835,76.0,0.0,60.0,4.0,0.0
9836,76.0,0.0,60.0,2.0,0.0
9837,61.0,0.0,60.0,3.0,0.0
9838,61.0,0.0,60.0,1.0,0.0
9839,73.0,0.0,60.0,2.0,0.0
9840,68.0,0.0,60.0,2.0,0.0
9841,76.0,0.0,540.0,1.0,0.0
9842,70.0,0.0,540.0,11.0,0.0
9843,55.0,0.0,540.0,12.0,0.0
9844,70.0,0.0,180.0,6.0,0.0
9845,87.0,0.0,60.0,8.0,0.0
9846,55.0,0.0,540.0,1.0,0.0
9847,73.0,0.0,540.0,4.0,0.0
9848,78.0,0.0,60.0,4.0,0.0
9849,43.0,0.0,540.0,5.0,0.0
9850,78.0,48.0,60.0,10.0,0.0
9851,73.0,0.0,180.0,6.0,0.0
9852,82.0,0.0,540.0,1.0,0.0
9853,55.0,0.0,540.0,7.0,0.0
9854,55.0,10.0,540.0,3.0,0.0
9855,61.0,0.0,540.0,3.0,0.0
9856,87.0,0.0,60.0,0.0,0.0
9857,78.0,0.0,60.0,2.0,0.0
9858,85.0,36.0,60.0,8.0,0.0
9859,85.0,0.0,60.0,0.0,0.0
9860,76.0,0.0,60.0,4.0,0.0
9861,76.0,0.0,60.0,2.0,0.0
9862,76.0,0.0,60.0,10.0,0.0
9863,78.0,0.0,30.0,2.0,0.0
9864,87.0,0.0,30.0,8.0,0.0
9865,87.0,0.0,30.0,0.0,0.0
9866,78.0,36.0,30.0,10.0,0.0
9867,78.0,0.0,30.0,4.0,0.0
9868,76.0,36.0,30.0,2.0,0.0
9869,76.0,0.0,30.0,4.0,0.0
9870,85.0,0.0,30.0,0.0,0.0
9871,76.0,0.0,30.0,10.0,0.0
9872,85.0,0.0,30.0,8.0,0.0
9873,87.0,36.0,30.0,8.0,0.0
9874,87.0,0.0,30.0,0.0,0.0
9875,78.0,0.0,30.0,4.0,0.0
9876,78.0,0.0,30.0,10.0,0.0
9877,78.0,0.0,30.0,2.0,0.0
9878,76.0,0.0,30.0,2.0,0.0
9879,76.0,0.0,30.0,10.0,0.0
9880,85.0,0.0,30.0,8.0,0.0
9881,85.0,24.0,30.0,0.0,0.0
9882,76.0,0.0,30.0,4.0,0.0
9883,78.0,24.0,20.0,10.0,0.0
9884,87.0,0.0,20.0,0.0,0.0
9885,87.0,0.0,20.0,8.0,0.0
9886,70.0,6.0,300.0,6.0,0.0
9887,78.0,0.0,20.0,4.0,0.0
9888,78.0,0.0,20.0,2.0,0.0
9889,76.0,0.0,20.0,10.0,0.0
9890,76.0,24.0,20.0,4.0,0.0
9891,76.0,0.0,20.0,2.0,0.0
9892,85.0,0.0,20.0,8.0,0.0
9893,85.0,0.0,20.0,0.0,0.0
9894,87.0,24.0,20.0,0.0,0.0
9895,78.0,0.0,20.0,4.0,0.0
9896,78.0,0.0,20.0,2.0,0.0
9897,87.0,0.0,20.0,8.0,0.0
9898,78.0,0.0,20.0,10.0,0.0
9899,85.0,24.0,20.0,8.0,0.0
9900,76.0,0.0,20.0,4.0,0.0
9901,85.0,0.0,20.0,0.0,0.0
9902,76.0,0.0,20.0,2.0,0.0
9903,76.0,0.0,20.0,10.0,0.0
9904,87.0,0.0,20.0,0.0,0.0
9905,78.0,0.0,20.0,2.0,0.0
9906,78.0,0.0,20.0,4.0,0.0
9907,78.0,24.0,20.0,10.0,0.0
9908,87.0,0.0,20.0,8.0,0.0
9909,76.0,0.0,20.0,2.0,0.0
9910,76.0,0.0,20.0,10.0,0.0
9911,85.0,0.0,20.0,0.0,0.0
9912,76.0,18.0,20.0,4.0,0.0
9913,85.0,0.0,20.0,8.0,0.0
9914,78.0,18.0,15.0,10.0,0.0
9915,78.0,0.0,15.0,4.0,0.0
9916,78.0,0.0,15.0,2.0,0.0
9917,87.0,0.0,15.0,0.0,0.0
9918,87.0,0.0,15.0,8.0,0.0
9919,85.0,18.0,15.0,8.0,0.0
9920,76.0,0.0,15.0,4.0,0.0
9921,76.0,0.0,15.0,10.0,0.0
9922,85.0,0.0,15.0,0.0,0.0
9923,76.0,0.0,15.0,2.0,0.0
9924,78.0,18.0,15.0,4.0,0.0
9925,87.0,0.0,15.0,0.0,0.0
9926,78.0,0.0,15.0,10.0,0.0
9927,78.0,0.0,15.0,2.0,0.0
9928,87.0,0.0,15.0,8.0,0.0
9929,76.0,0.0,15.0,2.0,0.0
9930,76.0,0.0,15.0,4.0,0.0
9931,85.0,0.0,15.0,8.0,0.0
9932,76.0,0.0,15.0,10.0,0.0
9933,85.0,12.0,15.0,0.0,0.0
9934,87.0,0.0,15.0,8.0,0.0
9935,78.0,12.0,15.0,4.0,0.0
9936,78.0,0.0,15.0,2.0,0.0
9937,87.0,0.0,15.0,0.0,0.0
9938,78.0,0.0,15.0,10.0,0.0
9939,85.0,12.0,15.0,0.0,0.0
9940,76.0,0.0,15.0,2.0,0.0
9941,76.0,0.0,15.0,4.0,0.0
9942,85.0,0.0,15.0,8.0,0.0
9943,76.0,0.0,15.0,10.0,0.0
9944,87.0,12.0,15.0,0.0,0.0
9945,78.0,0.0,15.0,2.0,0.0
9946,87.0,0.0,15.0,8.0,0.0
9947,78.0,0.0,15.0,10.0,0.0
9948,78.0,0.0,15.0,4.0,0.0
9949,76.0,12.0,15.0,4.0,0.0
9950,85.0,0.0,15.0,0.0,0.0
9951,76.0,0.0,15.0,10.0,0.0
9952,76.0,0.0,15.0,2.0,0.0
9953,85.0,0.0,15.0,8.0,0.0
9954,87.0,0.0,15.0,8.0,0.0
9955,78.0,0.0,15.0,2.0,0.0
9956,78.0,12.0,15.0,10.0,0.0
9957,87.0,0.0,15.0,0.0,0.0
9958,78.0,0.0,15.0,4.0,0.0
9959,85.0,0.0,15.0,0.0,0.0
9960,76.0,2.0,15.0,2.0,0.0
9961,85.0,0.0,15.0,8.0,0.0
9962,76.0,0.0,15.0,10.0,0.0
9963,76.0,0.0,15.0,4.0,0.0
9964,78.0,6.0,15.0,10.0,0.0
9965,78.0,0.0,15.0,4.0,0.0
9966,87.0,0.0,15.0,8.0,0.0
9967,87.0,0.0,15.0,0.0,0.0
9968,78.0,0.0,15.0,2.0,0.0
9969,85.0,0.0,15.0,0.0,0.0
9970,76.0,12.0,15.0,10.0,0.0
9971,76.0,0.0,15.0,4.0,0.0
9972,76.0,0.0,15.0,2.0,0.0
9973,85.0,0.0,15.0,8.0,0.0
9974,87.0,0.0,15.0,8.0,0.0
9975,78.0,12.0,15.0,10.0,0.0
9976,87.0,0.0,15.0,0.0,0.0
9977,78.0,0.0,15.0,4.0,0.0
9978,78.0,0.0,15.0,2.0,0.0
9979,76.0,480.0,15.0,2.0,0.0
9980,85.0,0.0,15.0,0.0,0.0
9981,76.0,0.0,15.0,4.0,0.0
9982,85.0,0.0,15.0,8.0,0.0
9983,76.0,0.0,15.0,10.0,0.0
9984,68.0,0.0,540.0,6.0,0.0
9985,56.0,0.0,480.0,12.0,0.0
9986,72.0,0.0,540.0,6.0,0.0
9987,75.0,0.0,480.0,10.0,0.0
9988,75.0,718.0,540.0,2.0,0.0
9989,84.0,0.0,540.0,0.0,0.0
9990,44.0,0.0,540.0,5.0,0.0
9991,56.0,0.0,540.0,7.0,0.0
9992,56.0,0.0,540.0,1.0,0.0
9993,56.0,0.0,540.0,3.0,0.0
9994,63.0,0.0,480.0,11.0,0.0
9995,68.0,50.0,480.0,11.0,0.0
9996,68.0,0.0,540.0,4.0,0.0
9997,75.0,0.0,540.0,4.0,0.0
9998,84.0,0.0,480.0,8.0,0.0
9999,72.0,0.0,540.0,2.0,0.0
10000,80.0,0.0,540.0,0.0,0.0
10001,75.0,0.0,540.0,0.0,0.0
10002,73.0,0.0,90.0,0.0,0.0
10003,73.0,0.0,90.0,8.0,0.0
10004,49.0,0.0,150.0,5.0,0.0
10005,52.0,0.0,150.0,5.0,0.0
10006,56.0,0.0,150.0,5.0,0.0
10007,61.0,30.0,150.0,5.0,0.0
10008,61.0,0.0,150.0,7.0,0.0
10009,56.0,0.0,150.0,7.0,0.0
10010,49.0,0.0,150.0,7.0,0.0
10011,52.0,0.0,150.0,1.0,0.0
10012,61.0,0.0,150.0,1.0,0.0
10013,49.0,0.0,150.0,1.0,0.0
10014,49.0,0.0,150.0,3.0,0.0
10015,52.0,0.0,150.0,3.0,0.0
10016,56.0,0.0,150.0,3.0,0.0
10017,61.0,0.0,150.0,3.0,0.0
10018,52.0,0.0,150.0,7.0,0.0
10019,56.0,0.0,150.0,1.0,0.0
10020,73.0,0.0,90.0,2.0,0.0
10021,73.0,48.0,90.0,10.0,0.0
10022,64.0,0.0,150.0,11.0,0.0
10023,68.0,0.0,150.0,11.0,0.0
10024,73.0,0.0,90.0,6.0,0.0
10025,49.0,0.0,150.0,12.0,0.0
10026,73.0,0.0,90.0,4.0,0.0
10027,76.0,18.0,60.0,4.0,0.0
10028,76.0,0.0,60.0,2.0,0.0
10029,76.0,0.0,60.0,10.0,0.0
10030,76.0,0.0,60.0,0.0,0.0
10031,76.0,0.0,60.0,6.0,0.0
10032,76.0,0.0,60.0,8.0,0.0
10033,75.0,0.0,60.0,4.0,0.0
10034,75.0,0.0,60.0,6.0,0.0
10035,75.0,0.0,60.0,8.0,0.0
10036,75.0,0.0,60.0,0.0,0.0
10037,75.0,96.0,60.0,2.0,0.0
10038,75.0,0.0,60.0,10.0,0.0
10039,73.0,96.0,90.0,10.0,0.0
10040,73.0,0.0,90.0,0.0,0.0
10041,73.0,0.0,90.0,8.0,0.0
10042,73.0,0.0,90.0,6.0,0.0
10043,73.0,0.0,90.0,4.0,0.0
10044,73.0,0.0,90.0,2.0,0.0
10045,68.0,0.0,90.0,2.0,0.0
10046,49.0,0.0,150.0,12.0,0.0
10047,68.0,0.0,90.0,10.0,0.0
10048,49.0,0.0,150.0,1.0,0.0
10049,68.0,0.0,150.0,11.0,0.0
10050,64.0,0.0,150.0,11.0,0.0
10051,68.0,66.0,90.0,0.0,0.0
10052,61.0,0.0,150.0,1.0,0.0
10053,56.0,0.0,150.0,1.0,0.0
10054,68.0,0.0,90.0,8.0,0.0
10055,52.0,0.0,150.0,1.0,0.0
10056,61.0,0.0,150.0,3.0,0.0
10057,52.0,0.0,150.0,3.0,0.0
10058,56.0,30.0,150.0,3.0,0.0
10059,52.0,0.0,150.0,7.0,0.0
10060,56.0,0.0,150.0,7.0,0.0
10061,61.0,0.0,150.0,7.0,0.0
10062,49.0,0.0,150.0,7.0,0.0
10063,68.0,0.0,90.0,6.0,0.0
10064,56.0,0.0,150.0,5.0,0.0
10065,52.0,0.0,150.0,5.0,0.0
10066,68.0,0.0,90.0,4.0,0.0
10067,49.0,0.0,150.0,5.0,0.0
10068,61.0,0.0,150.0,5.0,0.0
10069,49.0,0.0,150.0,3.0,0.0
10070,73.0,0.0,90.0,8.0,0.0
10071,73.0,96.0,90.0,10.0,0.0
10072,73.0,0.0,90.0,4.0,0.0
10073,73.0,0.0,90.0,6.0,0.0
10074,73.0,0.0,90.0,0.0,0.0
10075,73.0,0.0,90.0,2.0,0.0
10076,68.0,0.0,90.0,0.0,0.0
10077,68.0,0.0,90.0,10.0,0.0
10078,68.0,0.0,90.0,4.0,0.0
10079,68.0,0.0,90.0,6.0,0.0
10080,68.0,96.0,90.0,8.0,0.0
10081,68.0,0.0,90.0,2.0,0.0
10082,64.0,0.0,90.0,10.0,0.0
10083,49.0,0.0,150.0,7.0,0.0
10084,49.0,0.0,150.0,3.0,0.0
10085,56.0,0.0,150.0,7.0,0.0
10086,61.0,0.0,150.0,7.0,0.0
10087,52.0,0.0,150.0,5.0,0.0
10088,56.0,0.0,150.0,5.0,0.0
10089,61.0,0.0,150.0,5.0,0.0
10090,61.0,0.0,150.0,3.0,0.0
10091,49.0,0.0,150.0,12.0,0.0
10092,64.0,0.0,90.0,0.0,0.0
10093,64.0,0.0,150.0,11.0,0.0
10094,68.0,30.0,150.0,11.0,0.0
10095,56.0,0.0,150.0,3.0,0.0
10096,64.0,0.0,90.0,2.0,0.0
10097,49.0,0.0,150.0,5.0,0.0
10098,64.0,0.0,90.0,8.0,0.0
10099,52.0,0.0,150.0,7.0,0.0
10100,52.0,0.0,150.0,3.0,0.0
10101,64.0,48.0,90.0,6.0,0.0
10102,61.0,0.0,150.0,1.0,0.0
10103,64.0,0.0,90.0,4.0,0.0
10104,56.0,0.0,150.0,1.0,0.0
10105,52.0,0.0,150.0,1.0,0.0
10106,49.0,0.0,150.0,1.0,0.0
10107,68.0,0.0,60.0,2.0,0.0
10108,68.0,0.0,60.0,10.0,0.0
10109,68.0,0.0,60.0,4.0,0.0
10110,68.0,18.0,60.0,8.0,0.0
10111,68.0,0.0,60.0,6.0,0.0
10112,68.0,0.0,60.0,0.0,0.0
10113,66.0,0.0,60.0,2.0,0.0
10114,66.0,48.0,60.0,8.0,0.0
10115,66.0,0.0,60.0,6.0,0.0
10116,66.0,0.0,60.0,0.0,0.0
10117,66.0,0.0,60.0,10.0,0.0
10118,66.0,0.0,60.0,4.0,0.0
10119,64.0,48.0,60.0,10.0,0.0
10120,64.0,0.0,60.0,8.0,0.0
10121,64.0,0.0,60.0,4.0,0.0
10122,64.0,0.0,60.0,6.0,0.0
10123,64.0,0.0,60.0,2.0,0.0
10124,64.0,0.0,60.0,0.0,0.0
10125,63.0,0.0,60.0,0.0,0.0
10126,63.0,0.0,60.0,8.0,0.0
10127,63.0,0.0,60.0,4.0,0.0
10128,63.0,0.0,60.0,2.0,0.0
10129,63.0,0.0,60.0,6.0,0.0
10130,63.0,96.0,60.0,10.0,0.0
10131,56.0,0.0,150.0,7.0,0.0
10132,61.0,0.0,90.0,2.0,0.0
10133,49.0,0.0,150.0,7.0,0.0
10134,56.0,0.0,150.0,1.0,0.0
10135,52.0,0.0,150.0,1.0,0.0
10136,64.0,0.0,150.0,11.0,0.0
10137,49.0,0.0,150.0,1.0,0.0
10138,61.0,66.0,90.0,8.0,0.0
10139,49.0,30.0,150.0,5.0,0.0
10140,52.0,0.0,150.0,5.0,0.0
10141,52.0,0.0,150.0,7.0,0.0
10142,56.0,0.0,150.0,5.0,0.0
10143,56.0,0.0,150.0,3.0,0.0
10144,61.0,0.0,90.0,10.0,0.0
10145,68.0,0.0,150.0,11.0,0.0
10146,61.0,0.0,90.0,6.0,0.0
10147,61.0,0.0,90.0,0.0,0.0
10148,49.0,0.0,150.0,3.0,0.0
10149,61.0,0.0,90.0,4.0,0.0
10150,49.0,0.0,150.0,12.0,0.0
10151,52.0,0.0,150.0,3.0,0.0
10152,64.0,0.0,90.0,0.0,0.0
10153,64.0,0.0,90.0,2.0,0.0
10154,64.0,96.0,90.0,10.0,0.0
10155,64.0,0.0,90.0,6.0,0.0
10156,64.0,0.0,90.0,8.0,0.0
10157,64.0,0.0,90.0,4.0,0.0
10158,68.0,0.0,90.0,2.0,0.0
10159,68.0,0.0,90.0,4.0,0.0
10160,68.0,0.0,90.0,6.0,0.0
10161,68.0,96.0,90.0,10.0,0.0
10162,68.0,0.0,90.0,8.0,0.0
10163,68.0,0.0,90.0,0.0,0.0
10164,64.0,0.0,150.0,0.0,0.0
10165,64.0,0.0,150.0,6.0,0.0
10166,68.0,0.0,150.0,6.0,0.0
10167,73.0,0.0,150.0,6.0,0.0
10168,61.0,0.0,90.0,7.0,0.0
10169,61.0,0.0,90.0,5.0,0.0
10170,64.0,0.0,150.0,4.0,0.0
10171,61.0,0.0,90.0,12.0,0.0
10172,73.0,0.0,150.0,0.0,0.0
10173,64.0,0.0,150.0,2.0,0.0
10174,68.0,0.0,150.0,2.0,0.0
10175,73.0,0.0,150.0,2.0,0.0
10176,73.0,0.0,150.0,8.0,0.0
10177,68.0,0.0,150.0,0.0,0.0
10178,68.0,0.0,150.0,4.0,0.0
10179,68.0,0.0,150.0,11.0,0.0
10180,61.0,0.0,90.0,1.0,0.0
10181,61.0,48.0,90.0,3.0,0.0
10182,73.0,30.0,150.0,4.0,0.0
10183,64.0,0.0,150.0,11.0,0.0
10184,73.0,0.0,150.0,10.0,0.0
10185,56.0,0.0,60.0,3.0,0.0
10186,56.0,0.0,60.0,12.0,0.0
10187,56.0,0.0,60.0,5.0,0.0
10188,56.0,0.0,60.0,1.0,0.0
10189,56.0,18.0,60.0,7.0,0.0
10190,54.0,0.0,60.0,3.0,0.0
10191,54.0,48.0,60.0,5.0,0.0
10192,54.0,0.0,60.0,12.0,0.0
10193,54.0,0.0,60.0,1.0,0.0
10194,54.0,0.0,60.0,7.0,0.0
10195,61.0,96.0,90.0,8.0,0.0
10196,61.0,0.0,90.0,6.0,0.0
10197,61.0,0.0,90.0,2.0,0.0
10198,61.0,0.0,90.0,4.0,0.0
10199,61.0,0.0,90.0,10.0,0.0
10200,52.0,0.0,60.0,1.0,0.0
10201,52.0,0.0,60.0,5.0,0.0
10202,61.0,0.0,90.0,0.0,0.0
10203,52.0,0.0,60.0,12.0,0.0
10204,52.0,48.0,60.0,3.0,0.0
10205,52.0,0.0,60.0,7.0,0.0
10206,51.0,0.0,60.0,3.0,0.0
10207,51.0,0.0,60.0,12.0,0.0
10208,51.0,0.0,60.0,7.0,0.0
10209,51.0,0.0,60.0,1.0,0.0
10210,51.0,0.0,60.0,5.0,0.0
10211,49.0,0.0,90.0,5.0,0.0
10212,49.0,0.0,90.0,7.0,0.0
10213,49.0,96.0,90.0,3.0,0.0
10214,49.0,0.0,90.0,12.0,0.0
10215,49.0,0.0,90.0,1.0,0.0
10216,52.0,96.0,90.0,3.0,0.0
10217,52.0,0.0,90.0,1.0,0.0
10218,52.0,0.0,90.0,12.0,0.0
10219,52.0,0.0,90.0,5.0,0.0
10220,52.0,0.0,90.0,7.0,0.0
10221,56.0,0.0,90.0,7.0,0.0
10222,56.0,0.0,90.0,5.0,0.0
10223,56.0,0.0,90.0,1.0,0.0
10224,56.0,96.0,90.0,3.0,0.0
10225,56.0,0.0,90.0,12.0,0.0
10226,61.0,0.0,90.0,5.0,0.0
10227,76.0,0.0,90.0,6.0,0.0
10228,80.0,0.0,90.0,4.0,0.0
10229,80.0,34.0,90.0,10.0,0.0
10230,76.0,0.0,90.0,11.0,0.0
10231,61.0,0.0,90.0,7.0,0.0
10232,61.0,0.0,150.0,1.0,0.0
10233,61.0,0.0,90.0,12.0,0.0
10234,61.0,30.0,150.0,3.0,0.0
10235,85.0,32.0,30.0,10.0,0.0
10236,64.0,0.0,90.0,7.0,0.0
10237,76.0,0.0,90.0,11.0,0.0
10238,85.0,0.0,90.0,4.0,0.0
10239,80.0,34.0,90.0,6.0,0.0
10240,64.0,0.0,90.0,5.0,0.0
10241,61.0,0.0,90.0,5.0,0.0
10242,76.0,0.0,90.0,6.0,0.0
10243,80.0,0.0,90.0,4.0,0.0
10244,76.0,48.0,90.0,11.0,0.0
10245,61.0,0.0,90.0,7.0,0.0
10246,80.0,62.0,30.0,10.0,0.0
10247,61.0,0.0,90.0,12.0,0.0
10248,66.0,0.0,90.0,5.0,0.0
10249,76.0,0.0,90.0,11.0,0.0
10250,78.0,0.0,60.0,6.0,0.0
10251,85.0,0.0,90.0,0.0,0.0
10252,54.0,34.0,90.0,12.0,0.0
10253,81.0,0.0,60.0,10.0,0.0
10254,81.0,0.0,90.0,2.0,0.0
10255,54.0,0.0,90.0,3.0,0.0
10256,66.0,0.0,90.0,7.0,0.0
10257,81.0,48.0,60.0,4.0,0.0
10258,85.0,0.0,90.0,8.0,0.0
10259,54.0,0.0,90.0,1.0,0.0
10260,80.0,0.0,60.0,6.0,0.0
10261,83.0,0.0,60.0,4.0,0.0
10262,83.0,0.0,60.0,10.0,0.0
10263,81.0,48.0,60.0,4.0,0.0
10264,90.0,14.0,30.0,8.0,0.0
10265,85.0,0.0,90.0,2.0,0.0
10266,90.0,34.0,90.0,0.0,0.0
10267,76.0,0.0,90.0,11.0,0.0
10268,57.0,0.0,90.0,3.0,0.0
10269,78.0,0.0,60.0,6.0,0.0
10270,81.0,0.0,60.0,10.0,0.0
10271,57.0,0.0,90.0,1.0,0.0
10272,83.0,0.0,60.0,10.0,0.0
10273,83.0,0.0,60.0,4.0,0.0
10274,80.0,0.0,60.0,6.0,0.0
10275,81.0,0.0,90.0,2.0,0.0
10276,54.0,0.0,90.0,3.0,0.0
10277,85.0,0.0,90.0,0.0,0.0
10278,76.0,0.0,90.0,11.0,0.0
10279,81.0,0.0,60.0,10.0,0.0
10280,66.0,0.0,90.0,7.0,0.0
10281,78.0,0.0,60.0,6.0,0.0
10282,85.0,14.0,30.0,8.0,0.0
10283,66.0,0.0,90.0,5.0,0.0
10284,81.0,48.0,60.0,4.0,0.0
10285,54.0,0.0,90.0,1.0,0.0
10286,54.0,0.0,90.0,12.0,0.0
10287,76.0,0.0,60.0,6.0,0.0
10288,80.0,48.0,60.0,10.0,0.0
10289,80.0,0.0,60.0,4.0,0.0
10290,59.0,0.0,90.0,1.0,0.0
10291,75.0,0.0,90.0,6.0,0.0
10292,87.0,0.0,60.0,0.0,0.0
10293,87.0,0.0,60.0,8.0,0.0
10294,78.0,0.0,90.0,4.0,0.0
10295,59.0,34.0,90.0,3.0,0.0
10296,83.0,48.0,60.0,2.0,0.0
10297,59.0,0.0,90.0,7.0,0.0
10298,78.0,0.0,90.0,10.0,0.0
10299,59.0,0.0,90.0,5.0,0.0
10300,75.0,0.0,90.0,11.0,0.0
10301,59.0,0.0,90.0,12.0,0.0
10302,88.0,0.0,60.0,0.0,0.0
10303,85.0,0.0,60.0,2.0,0.0
10304,88.0,0.0,60.0,8.0,0.0
10305,87.0,0.0,60.0,8.0,0.0
10306,75.0,0.0,90.0,11.0,0.0
10307,83.0,0.0,90.0,4.0,0.0
10308,63.0,0.0,90.0,7.0,0.0
10309,83.0,0.0,60.0,2.0,0.0
10310,78.0,34.0,90.0,6.0,0.0
10311,63.0,0.0,90.0,5.0,0.0
10312,83.0,14.0,30.0,10.0,0.0
10313,87.0,48.0,60.0,0.0,0.0
10314,85.0,0.0,60.0,2.0,0.0
10315,88.0,0.0,60.0,0.0,0.0
10316,88.0,0.0,60.0,8.0,0.0
10317,87.0,48.0,60.0,8.0,0.0
10318,59.0,0.0,90.0,12.0,0.0
10319,78.0,0.0,90.0,4.0,0.0
10320,59.0,0.0,90.0,7.0,0.0
10321,59.0,48.0,90.0,5.0,0.0
10322,83.0,0.0,60.0,2.0,0.0
10323,75.0,0.0,90.0,11.0,0.0
10324,59.0,0.0,90.0,3.0,0.0
10325,87.0,0.0,60.0,0.0,0.0
10326,59.0,0.0,90.0,1.0,0.0
10327,78.0,14.0,30.0,10.0,0.0
10328,75.0,0.0,90.0,6.0,0.0
10329,81.0,0.0,60.0,2.0,0.0
10330,85.0,0.0,60.0,8.0,0.0
10331,85.0,0.0,60.0,0.0,0.0
10332,64.0,0.0,90.0,5.0,0.0
10333,64.0,0.0,90.0,7.0,0.0
10334,52.0,0.0,90.0,3.0,0.0
10335,52.0,0.0,90.0,1.0,0.0
10336,83.0,0.0,90.0,0.0,0.0
10337,83.0,34.0,90.0,8.0,0.0
10338,52.0,0.0,90.0,12.0,0.0
10339,80.0,48.0,60.0,4.0,0.0
10340,80.0,0.0,90.0,2.0,0.0
10341,80.0,0.0,60.0,10.0,0.0
10342,75.0,0.0,90.0,11.0,0.0
10343,76.0,0.0,60.0,6.0,0.0
10344,81.0,0.0,60.0,4.0,0.0
10345,81.0,0.0,60.0,10.0,0.0
10346,78.0,0.0,60.0,6.0,0.0
10347,56.0,0.0,90.0,1.0,0.0
10348,80.0,48.0,60.0,10.0,0.0
10349,56.0,0.0,90.0,3.0,0.0
10350,76.0,0.0,60.0,6.0,0.0
10351,88.0,14.0,30.0,8.0,0.0
10352,80.0,0.0,60.0,4.0,0.0
10353,83.0,34.0,90.0,2.0,0.0
10354,75.0,0.0,90.0,11.0,0.0
10355,88.0,0.0,90.0,0.0,0.0
10356,81.0,0.0,60.0,10.0,0.0
10357,81.0,0.0,60.0,4.0,0.0
10358,78.0,0.0,60.0,6.0,0.0
10359,64.0,0.0,90.0,5.0,0.0
10360,80.0,48.0,60.0,4.0,0.0
10361,52.0,0.0,90.0,3.0,0.0
10362,64.0,0.0,90.0,7.0,0.0
10363,52.0,0.0,90.0,12.0,0.0
10364,52.0,0.0,90.0,1.0,0.0
10365,80.0,0.0,90.0,2.0,0.0
10366,80.0,0.0,60.0,10.0,0.0
10367,75.0,0.0,90.0,11.0,0.0
10368,83.0,14.0,30.0,8.0,0.0
10369,76.0,0.0,60.0,6.0,0.0
10370,83.0,48.0,90.0,0.0,0.0
10371,78.0,0.0,60.0,4.0,0.0
10372,75.0,0.0,60.0,6.0,0.0
10373,78.0,0.0,60.0,10.0,0.0
10374,81.0,0.0,60.0,2.0,0.0
10375,57.0,30.0,150.0,12.0,0.0
10376,57.0,0.0,90.0,1.0,0.0
10377,85.0,48.0,60.0,8.0,0.0
10378,73.0,0.0,90.0,6.0,0.0
10379,85.0,0.0,60.0,0.0,0.0
10380,57.0,0.0,90.0,3.0,0.0
10381,73.0,0.0,90.0,11.0,0.0
10382,57.0,0.0,90.0,5.0,0.0
10383,76.0,0.0,90.0,4.0,0.0
10384,57.0,0.0,90.0,7.0,0.0
10385,76.0,0.0,90.0,10.0,0.0
10386,87.0,0.0,60.0,0.0,0.0
10387,83.0,0.0,60.0,2.0,0.0
10388,87.0,48.0,60.0,8.0,0.0
10389,61.0,0.0,90.0,5.0,0.0
10390,85.0,18.0,60.0,8.0,0.0
10391,81.0,0.0,60.0,2.0,0.0
10392,73.0,0.0,90.0,11.0,0.0
10393,81.0,0.0,90.0,4.0,0.0
10394,81.0,0.0,60.0,10.0,0.0
10395,76.0,48.0,90.0,6.0,0.0
10396,61.0,0.0,90.0,7.0,0.0
10397,85.0,0.0,60.0,0.0,0.0
10398,87.0,0.0,60.0,0.0,0.0
10399,83.0,0.0,60.0,10.0,0.0
10400,87.0,0.0,60.0,8.0,0.0
10401,83.0,0.0,60.0,2.0,0.0
10402,69.0,48.0,90.0,3.0,0.0
10403,85.0,48.0,60.0,8.0,0.0
10404,85.0,0.0,60.0,0.0,0.0
10405,57.0,0.0,90.0,7.0,0.0
10406,57.0,0.0,90.0,5.0,0.0
10407,57.0,0.0,90.0,1.0,0.0
10408,81.0,0.0,60.0,2.0,0.0
10409,81.0,0.0,60.0,10.0,0.0
10410,73.0,0.0,90.0,11.0,0.0
10411,57.0,0.0,90.0,12.0,0.0
10412,76.0,0.0,90.0,4.0,0.0
10413,73.0,0.0,90.0,6.0,0.0
10414,83.0,0.0,60.0,0.0,0.0
10415,80.0,0.0,60.0,10.0,0.0
10416,83.0,0.0,60.0,8.0,0.0
10417,80.0,0.0,60.0,2.0,0.0
10418,60.0,0.0,90.0,3.0,0.0
10419,78.0,48.0,90.0,4.0,0.0
10420,75.0,0.0,90.0,11.0,0.0
10421,81.0,0.0,60.0,8.0,0.0
10422,48.0,0.0,90.0,12.0,0.0
10423,63.0,0.0,90.0,5.0,0.0
10424,48.0,0.0,90.0,1.0,0.0
10425,60.0,0.0,90.0,7.0,0.0
10426,81.0,0.0,60.0,0.0,0.0
10427,75.0,0.0,90.0,6.0,0.0
10428,78.0,48.0,60.0,10.0,0.0
10429,78.0,0.0,60.0,2.0,0.0
10430,83.0,0.0,60.0,8.0,0.0
10431,80.0,0.0,60.0,2.0,0.0
10432,83.0,0.0,60.0,0.0,0.0
10433,80.0,0.0,60.0,10.0,0.0
10434,78.0,0.0,60.0,10.0,0.0
10435,48.0,0.0,90.0,1.0,0.0
10436,81.0,0.0,60.0,0.0,0.0
10437,63.0,48.0,90.0,7.0,0.0
10438,81.0,0.0,60.0,8.0,0.0
10439,60.0,0.0,90.0,3.0,0.0
10440,48.0,0.0,90.0,12.0,0.0
10441,78.0,48.0,60.0,2.0,0.0
10442,72.0,0.0,90.0,6.0,0.0
10443,75.0,0.0,90.0,4.0,0.0
10444,75.0,0.0,90.0,11.0,0.0
10445,66.0,0.0,90.0,5.0,0.0
10446,83.0,0.0,60.0,0.0,0.0
10447,83.0,0.0,60.0,8.0,0.0
10448,80.0,0.0,60.0,2.0,0.0
10449,80.0,0.0,60.0,10.0,0.0
10450,60.0,0.0,90.0,3.0,0.0
10451,72.0,0.0,90.0,4.0,0.0
10452,81.0,0.0,60.0,0.0,0.0
10453,48.0,0.0,90.0,12.0,0.0
10454,48.0,0.0,90.0,1.0,0.0
10455,81.0,0.0,60.0,8.0,0.0
10456,78.0,48.0,60.0,2.0,0.0
10457,63.0,0.0,90.0,11.0,0.0
10458,66.0,0.0,90.0,7.0,0.0
10459,63.0,48.0,90.0,5.0,0.0
10460,78.0,0.0,60.0,10.0,0.0
10461,75.0,0.0,90.0,6.0,0.0
10462,80.0,0.0,60.0,10.0,0.0
10463,83.0,0.0,60.0,0.0,0.0
10464,83.0,0.0,60.0,8.0,0.0
10465,80.0,0.0,60.0,2.0,0.0
10466,61.0,0.0,90.0,3.0,0.0
10467,76.0,34.0,90.0,2.0,0.0
10468,49.0,0.0,90.0,12.0,0.0
10469,80.0,0.0,90.0,8.0,0.0
10470,68.0,0.0,60.0,5.0,0.0
10471,76.0,0.0,90.0,10.0,0.0
10472,49.0,0.0,90.0,1.0,0.0
10473,64.0,0.0,60.0,7.0,0.0
10474,80.0,0.0,90.0,0.0,0.0
10475,64.0,48.0,60.0,11.0,0.0
10476,76.0,0.0,90.0,6.0,0.0
10477,69.0,0.0,60.0,5.0,0.0
10478,66.0,0.0,60.0,11.0,0.0
10479,66.0,0.0,60.0,7.0,0.0
10480,73.0,0.0,90.0,6.0,0.0
10481,85.0,0.0,30.0,8.0,0.0
10482,68.0,48.0,60.0,5.0,0.0
10483,49.0,34.0,90.0,1.0,0.0
10484,49.0,0.0,90.0,12.0,0.0
10485,64.0,0.0,60.0,7.0,0.0
10486,80.0,14.0,30.0,10.0,0.0
10487,85.0,0.0,90.0,0.0,0.0
10488,80.0,0.0,90.0,2.0,0.0
10489,61.0,0.0,90.0,3.0,0.0
10490,76.0,0.0,90.0,4.0,0.0
10491,64.0,0.0,60.0,11.0,0.0
10492,66.0,0.0,60.0,11.0,0.0
10493,69.0,0.0,60.0,5.0,0.0
10494,66.0,0.0,60.0,7.0,0.0
10495,80.0,0.0,90.0,0.0,0.0
10496,76.0,14.0,30.0,10.0,0.0
10497,49.0,0.0,90.0,1.0,0.0
10498,73.0,0.0,90.0,4.0,0.0
10499,64.0,0.0,60.0,11.0,0.0
10500,80.0,0.0,30.0,8.0,0.0
10501,68.0,0.0,60.0,5.0,0.0
10502,49.0,0.0,90.0,12.0,0.0
10503,76.0,0.0,90.0,2.0,0.0
10504,64.0,48.0,60.0,7.0,0.0
10505,61.0,0.0,90.0,3.0,0.0
10506,76.0,0.0,90.0,6.0,0.0
10507,66.0,48.0,60.0,7.0,0.0
10508,66.0,0.0,60.0,11.0,0.0
10509,69.0,0.0,60.0,5.0,0.0
10510,78.0,0.0,60.0,2.0,0.0
10511,60.0,0.0,90.0,7.0,0.0
10512,81.0,0.0,60.0,8.0,0.0
10513,48.0,0.0,90.0,12.0,0.0
10514,75.0,0.0,90.0,6.0,0.0
10515,63.0,0.0,90.0,5.0,0.0
10516,81.0,48.0,60.0,0.0,0.0
10517,63.0,0.0,90.0,11.0,0.0
10518,60.0,0.0,90.0,3.0,0.0
10519,78.0,0.0,60.0,10.0,0.0
10520,48.0,0.0,90.0,1.0,0.0
10521,83.0,0.0,60.0,0.0,0.0
10522,80.0,0.0,60.0,2.0,0.0
10523,80.0,48.0,60.0,10.0,0.0
10524,83.0,0.0,60.0,8.0,0.0
10525,78.0,48.0,60.0,2.0,0.0
10526,81.0,0.0,60.0,8.0,0.0
10527,78.0,0.0,60.0,10.0,0.0
10528,60.0,0.0,90.0,3.0,0.0
10529,75.0,0.0,90.0,11.0,0.0
10530,66.0,0.0,90.0,5.0,0.0
10531,72.0,0.0,90.0,6.0,0.0
10532,63.0,0.0,90.0,7.0,0.0
10533,48.0,0.0,90.0,12.0,0.0
10534,48.0,0.0,90.0,1.0,0.0
10535,75.0,48.0,90.0,4.0,0.0
10536,81.0,0.0,60.0,0.0,0.0
10537,83.0,0.0,60.0,0.0,0.0
10538,80.0,0.0,60.0,2.0,0.0
10539,80.0,0.0,60.0,10.0,0.0
10540,83.0,0.0,60.0,8.0,0.0
10541,63.0,0.0,90.0,5.0,0.0
10542,48.0,0.0,90.0,1.0,0.0
10543,48.0,0.0,90.0,12.0,0.0
10544,81.0,0.0,60.0,0.0,0.0
10545,75.0,0.0,90.0,6.0,0.0
10546,72.0,0.0,90.0,4.0,0.0
10547,78.0,0.0,60.0,2.0,0.0
10548,66.0,0.0,90.0,7.0,0.0
10549,78.0,48.0,60.0,10.0,0.0
10550,63.0,48.0,90.0,11.0,0.0
10551,60.0,0.0,90.0,3.0,0.0
10552,81.0,0.0,60.0,8.0,0.0
10553,83.0,0.0,60.0,8.0,0.0
10554,80.0,0.0,60.0,10.0,0.0
10555,83.0,0.0,60.0,0.0,0.0
10556,80.0,0.0,60.0,2.0,0.0
10557,61.0,0.0,90.0,3.0,0.0
10558,49.0,0.0,90.0,12.0,0.0
10559,80.0,0.0,90.0,0.0,0.0
10560,76.0,0.0,90.0,6.0,0.0
10561,64.0,48.0,60.0,11.0,0.0
10562,76.0,0.0,90.0,10.0,0.0
10563,68.0,0.0,60.0,5.0,0.0
10564,80.0,34.0,90.0,8.0,0.0
10565,49.0,0.0,90.0,1.0,0.0
10566,64.0,0.0,60.0,7.0,0.0
10567,76.0,0.0,90.0,2.0,0.0
10568,69.0,0.0,60.0,5.0,0.0
10569,66.0,0.0,60.0,7.0,0.0
10570,63.0,0.0,60.0,11.0,0.0
10571,64.0,48.0,60.0,11.0,0.0
10572,49.0,0.0,90.0,12.0,0.0
10573,73.0,0.0,90.0,6.0,0.0
10574,49.0,0.0,90.0,1.0,0.0
10575,85.0,0.0,90.0,0.0,0.0
10576,80.0,0.0,90.0,2.0,0.0
10577,64.0,0.0,60.0,7.0,0.0
10578,85.0,14.0,30.0,8.0,0.0
10579,80.0,0.0,30.0,10.0,0.0
10580,61.0,0.0,90.0,3.0,0.0
10581,68.0,0.0,60.0,5.0,0.0
10582,76.0,48.0,90.0,4.0,0.0
10583,66.0,0.0,60.0,7.0,0.0
10584,69.0,0.0,60.0,5.0,0.0
10585,61.0,0.0,60.0,11.0,0.0
10586,76.0,48.0,90.0,6.0,0.0
10587,49.0,0.0,90.0,1.0,0.0
10588,64.0,48.0,60.0,7.0,0.0
10589,73.0,0.0,90.0,4.0,0.0
10590,68.0,0.0,60.0,5.0,0.0
10591,80.0,0.0,90.0,0.0,0.0
10592,68.0,0.0,60.0,11.0,0.0
10593,61.0,0.0,90.0,3.0,0.0
10594,73.0,0.0,90.0,8.0,0.0
10595,76.0,0.0,90.0,2.0,0.0
10596,49.0,0.0,90.0,12.0,0.0
10597,76.0,0.0,90.0,10.0,0.0
10598,68.0,0.0,60.0,7.0,0.0
10599,69.0,0.0,60.0,5.0,0.0
10600,64.0,0.0,60.0,11.0,0.0
10601,82.0,0.0,90.0,2.0,0.0
10602,55.0,0.0,90.0,3.0,0.0
10603,43.0,0.0,90.0,1.0,0.0
10604,73.0,0.0,60.0,6.0,0.0
10605,70.0,0.0,90.0,11.0,0.0
10606,76.0,0.0,60.0,8.0,0.0
10607,70.0,0.0,90.0,7.0,0.0
10608,73.0,0.0,60.0,10.0,0.0
10609,73.0,0.0,90.0,5.0,0.0
10610,43.0,48.0,90.0,12.0,0.0
10611,76.0,48.0,60.0,4.0,0.0
10612,78.0,0.0,60.0,4.0,0.0
10613,75.0,0.0,60.0,6.0,0.0
10614,78.0,0.0,60.0,8.0,0.0
10615,75.0,0.0,60.0,10.0,0.0
10616,79.0,0.0,90.0,2.0,0.0
10617,73.0,0.0,60.0,10.0,0.0
10618,61.0,0.0,90.0,5.0,0.0
10619,73.0,48.0,60.0,6.0,0.0
10620,43.0,0.0,90.0,1.0,0.0
10621,58.0,0.0,90.0,11.0,0.0
10622,43.0,0.0,90.0,12.0,0.0
10623,76.0,0.0,60.0,4.0,0.0
10624,82.0,0.0,90.0,0.0,0.0
10625,61.0,0.0,90.0,7.0,0.0
10626,55.0,0.0,90.0,3.0,0.0
10627,76.0,0.0,60.0,8.0,0.0
10628,78.0,0.0,60.0,4.0,0.0
10629,75.0,0.0,60.0,10.0,0.0
10630,78.0,0.0,60.0,8.0,0.0
10631,75.0,48.0,60.0,6.0,0.0
10632,73.0,48.0,60.0,6.0,0.0
10633,43.0,0.0,90.0,1.0,0.0
10634,70.0,0.0,90.0,7.0,0.0
10635,82.0,0.0,90.0,2.0,0.0
10636,79.0,0.0,90.0,0.0,0.0
10637,43.0,0.0,90.0,12.0,0.0
10638,76.0,0.0,60.0,8.0,0.0
10639,76.0,0.0,60.0,4.0,0.0
10640,70.0,0.0,90.0,11.0,0.0
10641,73.0,0.0,60.0,10.0,0.0
10642,55.0,0.0,90.0,3.0,0.0
10643,67.0,0.0,90.0,5.0,0.0
10644,75.0,48.0,60.0,6.0,0.0
10645,75.0,0.0,60.0,10.0,0.0
10646,78.0,0.0,60.0,8.0,0.0
10647,78.0,0.0,60.0,4.0,0.0
10648,44.0,0.0,90.0,12.0,0.0
10649,72.0,34.0,90.0,10.0,0.0
10650,72.0,0.0,90.0,6.0,0.0
10651,75.0,0.0,90.0,8.0,0.0
10652,44.0,0.0,90.0,1.0,0.0
10653,56.0,0.0,90.0,3.0,0.0
10654,84.0,0.0,90.0,2.0,0.0
10655,63.0,0.0,60.0,7.0,0.0
10656,72.0,0.0,60.0,5.0,0.0
10657,72.0,48.0,60.0,11.0,0.0
10658,75.0,0.0,90.0,4.0,0.0
10659,64.0,0.0,60.0,7.0,0.0
10660,73.0,0.0,60.0,11.0,0.0
10661,73.0,0.0,60.0,5.0,0.0
10662,80.0,0.0,90.0,4.0,0.0
10663,63.0,0.0,60.0,7.0,0.0
10664,80.0,0.0,30.0,8.0,0.0
10665,44.0,0.0,90.0,12.0,0.0
10666,72.0,0.0,60.0,11.0,0.0
10667,72.0,48.0,60.0,5.0,0.0
10668,44.0,0.0,90.0,1.0,0.0
10669,75.0,14.0,30.0,10.0,0.0
10670,56.0,34.0,90.0,3.0,0.0
10671,75.0,0.0,90.0,6.0,0.0
10672,84.0,0.0,90.0,0.0,0.0
10673,80.0,0.0,90.0,2.0,0.0
10674,73.0,0.0,60.0,11.0,0.0
10675,73.0,0.0,60.0,5.0,0.0
10676,64.0,0.0,60.0,7.0,0.0
10677,75.0,0.0,90.0,4.0,0.0
10678,44.0,48.0,90.0,1.0,0.0
10679,44.0,0.0,90.0,12.0,0.0
10680,56.0,0.0,90.0,3.0,0.0
10681,72.0,0.0,60.0,11.0,0.0
10682,72.0,0.0,90.0,6.0,0.0
10683,72.0,0.0,30.0,10.0,0.0
10684,72.0,0.0,60.0,5.0,0.0
10685,75.0,14.0,30.0,8.0,0.0
10686,80.0,0.0,90.0,0.0,0.0
10687,84.0,0.0,90.0,2.0,0.0
10688,63.0,48.0,60.0,7.0,0.0
10689,73.0,0.0,60.0,5.0,0.0
10690,73.0,0.0,60.0,11.0,0.0
10691,64.0,0.0,60.0,7.0,0.0
10692,76.0,0.0,60.0,8.0,0.0
10693,58.0,0.0,90.0,7.0,0.0
10694,76.0,48.0,60.0,4.0,0.0
10695,61.0,0.0,90.0,5.0,0.0
10696,43.0,0.0,90.0,12.0,0.0
10697,73.0,0.0,60.0,10.0,0.0
10698,82.0,0.0,90.0,2.0,0.0
10699,55.0,0.0,90.0,3.0,0.0
10700,73.0,0.0,60.0,6.0,0.0
10701,43.0,0.0,90.0,1.0,0.0
10702,70.0,0.0,90.0,11.0,0.0
10703,78.0,0.0,60.0,4.0,0.0
10704,78.0,48.0,60.0,8.0,0.0
10705,75.0,0.0,60.0,10.0,0.0
10706,75.0,0.0,60.0,6.0,0.0
10707,73.0,0.0,90.0,5.0,0.0
10708,43.0,0.0,90.0,12.0,0.0
10709,58.0,0.0,90.0,11.0,0.0
10710,79.0,0.0,90.0,2.0,0.0
10711,43.0,0.0,90.0,1.0,0.0
10712,61.0,0.0,90.0,7.0,0.0
10713,76.0,0.0,60.0,4.0,0.0
10714,55.0,0.0,90.0,3.0,0.0
10715,73.0,48.0,60.0,6.0,0.0
10716,76.0,0.0,60.0,8.0,0.0
10717,73.0,0.0,60.0,10.0,0.0
10718,82.0,0.0,90.0,0.0,0.0
10719,75.0,0.0,60.0,6.0,0.0
10720,75.0,48.0,60.0,10.0,0.0
10721,78.0,0.0,60.0,8.0,0.0
10722,78.0,0.0,60.0,4.0,0.0
10723,73.0,48.0,60.0,10.0,0.0
10724,67.0,0.0,90.0,7.0,0.0
10725,76.0,0.0,60.0,4.0,0.0
10726,55.0,0.0,90.0,3.0,0.0
10727,43.0,0.0,90.0,12.0,0.0
10728,82.0,0.0,90.0,2.0,0.0
10729,70.0,0.0,90.0,11.0,0.0
10730,79.0,0.0,90.0,0.0,0.0
10731,76.0,0.0,60.0,8.0,0.0
10732,61.0,0.0,90.0,5.0,0.0
10733,73.0,0.0,60.0,6.0,0.0
10734,43.0,0.0,90.0,1.0,0.0
10735,75.0,0.0,60.0,10.0,0.0
10736,75.0,0.0,60.0,6.0,0.0
10737,78.0,0.0,60.0,8.0,0.0
10738,78.0,96.0,60.0,4.0,0.0
10739,75.0,0.0,90.0,4.0,0.0
10740,63.0,30.0,150.0,7.0,0.0
10741,44.0,0.0,150.0,1.0,0.0
10742,63.0,0.0,150.0,11.0,0.0
10743,72.0,0.0,90.0,6.0,0.0
10744,72.0,0.0,150.0,10.0,0.0
10745,44.0,0.0,150.0,12.0,0.0
10746,68.0,0.0,150.0,5.0,0.0
10747,75.0,0.0,150.0,8.0,0.0
10748,56.0,0.0,150.0,3.0,0.0
10749,84.0,66.0,90.0,2.0,0.0
10750,84.0,0.0,90.0,0.0,0.0
10751,80.0,0.0,90.0,2.0,0.0
10752,80.0,96.0,90.0,4.0,0.0
10753,75.0,0.0,90.0,6.0,0.0
10754,72.0,96.0,90.0,6.0,0.0
10755,80.0,0.0,90.0,0.0,0.0
10756,75.0,0.0,90.0,4.0,0.0
10757,80.0,0.0,150.0,8.0,0.0
10758,75.0,0.0,90.0,7.0,0.0
10759,80.0,66.0,90.0,2.0,0.0
10760,72.0,0.0,150.0,11.0,0.0
10761,56.0,0.0,150.0,3.0,0.0
10762,75.0,0.0,150.0,10.0,0.0
10763,44.0,0.0,150.0,12.0,0.0
10764,84.0,0.0,90.0,6.0,0.0
10765,44.0,30.0,150.0,1.0,0.0
10766,75.0,0.0,90.0,5.0,0.0
10767,72.0,0.0,90.0,7.0,0.0
10768,80.0,0.0,90.0,6.0,0.0
10769,80.0,0.0,90.0,0.0,0.0
10770,75.0,0.0,90.0,2.0,0.0
10771,84.0,96.0,90.0,4.0,0.0
10772,75.0,96.0,90.0,0.0,0.0
10773,72.0,0.0,90.0,5.0,0.0
10774,80.0,0.0,90.0,4.0,0.0
10775,56.0,0.0,150.0,3.0,0.0
10776,75.0,0.0,90.0,2.0,0.0
10777,84.0,0.0,150.0,8.0,0.0
10778,72.0,66.0,90.0,7.0,0.0
10779,80.0,0.0,150.0,10.0,0.0
10780,80.0,0.0,90.0,4.0,0.0
10781,44.0,0.0,150.0,1.0,0.0
10782,80.0,0.0,90.0,6.0,0.0
10783,75.0,0.0,150.0,11.0,0.0
10784,44.0,30.0,150.0,12.0,0.0
10785,75.0,0.0,90.0,0.0,0.0
10786,72.0,0.0,90.0,5.0,0.0
10787,75.0,0.0,90.0,6.0,0.0
10788,72.0,0.0,90.0,2.0,0.0
10789,68.0,0.0,90.0,7.0,0.0
10790,75.0,96.0,90.0,4.0,0.0
10791,68.0,0.0,90.0,5.0,0.0
10792,72.0,96.0,90.0,0.0,0.0
10793,72.0,66.0,90.0,2.0,0.0
10794,56.0,0.0,150.0,3.0,0.0
10795,84.0,30.0,150.0,10.0,0.0
10796,80.0,0.0,150.0,11.0,0.0
10797,75.0,0.0,90.0,6.0,0.0
10798,87.0,0.0,150.0,8.0,0.0
10799,68.0,0.0,90.0,7.0,0.0
10800,44.0,0.0,150.0,12.0,0.0
10801,75.0,0.0,90.0,4.0,0.0
10802,44.0,0.0,150.0,1.0,0.0
10803,72.0,0.0,90.0,4.0,0.0
10804,68.0,96.0,90.0,5.0,0.0
10805,72.0,0.0,90.0,6.0,0.0
10806,63.0,0.0,90.0,7.0,0.0
10807,68.0,0.0,90.0,2.0,0.0
10808,72.0,0.0,90.0,0.0,0.0
10809,68.0,96.0,90.0,0.0,0.0
10810,63.0,0.0,90.0,5.0,0.0
10811,75.0,0.0,150.0,11.0,0.0
10812,44.0,0.0,150.0,12.0,0.0
10813,72.0,0.0,90.0,6.0,0.0
10814,63.0,66.0,90.0,7.0,0.0
10815,56.0,30.0,270.0,3.0,0.0
10816,44.0,0.0,150.0,1.0,0.0
10817,84.0,0.0,150.0,10.0,0.0
10818,92.0,30.0,150.0,8.0,0.0
10819,68.0,0.0,90.0,6.0,0.0
10820,72.0,0.0,90.0,4.0,0.0
10821,63.0,66.0,90.0,5.0,0.0
10822,60.0,0.0,90.0,7.0,0.0
10823,60.0,0.0,90.0,5.0,0.0
10824,68.0,24.0,90.0,4.0,0.0
10825,72.0,6.0,270.0,10.0,0.0
10826,56.0,0.0,90.0,5.0,0.0
10827,73.0,24.0,20.0,2.0,0.0
10828,56.0,24.0,90.0,7.0,0.0
10829,73.0,0.0,20.0,6.0,0.0
10830,56.0,0.0,90.0,12.0,0.0
10831,68.0,0.0,60.0,3.0,0.0
10832,75.0,0.0,270.0,8.0,0.0
10833,76.0,0.0,20.0,0.0,0.0
10834,76.0,0.0,20.0,4.0,0.0
10835,68.0,24.0,60.0,1.0,0.0
10836,68.0,0.0,90.0,11.0,0.0
10837,75.0,0.0,20.0,0.0,0.0
10838,75.0,0.0,20.0,4.0,0.0
10839,72.0,0.0,20.0,6.0,0.0
10840,72.0,0.0,20.0,2.0,0.0
10841,66.0,0.0,60.0,1.0,0.0
10842,76.0,0.0,20.0,0.0,0.0
10843,69.0,0.0,60.0,3.0,0.0
10844,73.0,24.0,20.0,2.0,0.0
10845,76.0,0.0,20.0,4.0,0.0
10846,73.0,0.0,20.0,6.0,0.0
10847,72.0,0.0,20.0,6.0,0.0
10848,75.0,0.0,20.0,0.0,0.0
10849,75.0,0.0,20.0,4.0,0.0
10850,72.0,0.0,20.0,2.0,0.0
10851,56.0,0.0,90.0,7.0,0.0
10852,76.0,24.0,20.0,0.0,0.0
10853,68.0,0.0,90.0,11.0,0.0
10854,56.0,0.0,90.0,5.0,0.0
10855,73.0,0.0,20.0,2.0,0.0
10856,76.0,0.0,20.0,4.0,0.0
10857,68.0,0.0,60.0,1.0,0.0
10858,68.0,0.0,60.0,3.0,0.0
10859,56.0,0.0,90.0,12.0,0.0
10860,73.0,0.0,20.0,6.0,0.0
10861,75.0,0.0,20.0,4.0,0.0
10862,72.0,0.0,20.0,6.0,0.0
10863,72.0,24.0,20.0,2.0,0.0
10864,75.0,0.0,20.0,0.0,0.0
10865,66.0,24.0,60.0,3.0,0.0
10866,76.0,0.0,20.0,4.0,0.0
10867,73.0,0.0,20.0,6.0,0.0
10868,76.0,24.0,20.0,0.0,0.0
10869,69.0,0.0,60.0,1.0,0.0
10870,73.0,0.0,20.0,2.0,0.0
10871,72.0,0.0,20.0,6.0,0.0
10872,72.0,0.0,20.0,2.0,0.0
10873,75.0,0.0,20.0,0.0,0.0
10874,75.0,0.0,20.0,4.0,0.0
10875,76.0,24.0,20.0,0.0,0.0
10876,76.0,0.0,20.0,4.0,0.0
10877,56.0,0.0,90.0,5.0,0.0
10878,68.0,0.0,90.0,11.0,0.0
10879,73.0,0.0,20.0,6.0,0.0
10880,56.0,0.0,90.0,7.0,0.0
10881,68.0,0.0,60.0,1.0,0.0
10882,56.0,0.0,90.0,12.0,0.0
10883,73.0,0.0,20.0,2.0,0.0
10884,64.0,18.0,60.0,3.0,0.0
10885,72.0,0.0,20.0,2.0,0.0
10886,75.0,0.0,20.0,4.0,0.0
10887,72.0,0.0,20.0,6.0,0.0
10888,75.0,0.0,20.0,0.0,0.0
10889,76.0,0.0,20.0,0.0,0.0
10890,63.0,0.0,60.0,3.0,0.0
10891,66.0,0.0,60.0,1.0,0.0
10892,73.0,0.0,20.0,6.0,0.0
10893,76.0,0.0,20.0,4.0,0.0
10894,73.0,24.0,20.0,2.0,0.0
10895,72.0,0.0,20.0,6.0,0.0
10896,72.0,24.0,20.0,2.0,0.0
10897,75.0,0.0,20.0,4.0,0.0
10898,75.0,0.0,20.0,0.0,0.0
10899,78.0,0.0,20.0,0.0,0.0
10900,76.0,6.0,270.0,8.0,0.0
10901,73.0,24.0,90.0,10.0,0.0
10902,64.0,0.0,60.0,1.0,0.0
10903,73.0,0.0,90.0,6.0,0.0
10904,73.0,0.0,90.0,2.0,0.0
10905,61.0,0.0,60.0,3.0,0.0
10906,61.0,0.0,90.0,5.0,0.0
10907,78.0,24.0,20.0,4.0,0.0
10908,61.0,0.0,90.0,12.0,0.0
10909,68.0,0.0,90.0,11.0,0.0
10910,61.0,0.0,90.0,7.0,0.0
10911,76.0,24.0,20.0,0.0,0.0
10912,76.0,0.0,20.0,4.0,0.0
10913,63.0,0.0,60.0,1.0,0.0
10914,78.0,24.0,20.0,4.0,0.0
10915,60.0,0.0,60.0,3.0,0.0
10916,78.0,0.0,20.0,0.0,0.0
10917,76.0,0.0,20.0,4.0,0.0
10918,76.0,0.0,20.0,0.0,0.0
10919,85.0,0.0,90.0,2.0,0.0
10920,68.0,0.0,90.0,11.0,0.0
10921,61.0,0.0,90.0,7.0,0.0
10922,61.0,0.0,90.0,12.0,0.0
10923,78.0,24.0,20.0,4.0,0.0
10924,85.0,24.0,90.0,6.0,0.0
10925,85.0,0.0,90.0,10.0,0.0
10926,78.0,0.0,20.0,0.0,0.0
10927,61.0,0.0,90.0,5.0,0.0
10928,61.0,24.0,60.0,3.0,0.0
10929,64.0,0.0,60.0,1.0,0.0
10930,76.0,0.0,20.0,4.0,0.0
10931,76.0,0.0,20.0,0.0,0.0
10932,66.0,0.0,60.0,1.0,0.0
10933,78.0,0.0,20.0,0.0,0.0
10934,78.0,24.0,20.0,4.0,0.0
10935,63.0,0.0,60.0,3.0,0.0
10936,76.0,0.0,20.0,0.0,0.0
10937,76.0,0.0,20.0,4.0,0.0
10938,73.0,0.0,90.0,2.0,0.0
10939,78.0,24.0,20.0,0.0,0.0
10940,61.0,0.0,90.0,5.0,0.0
10941,73.0,0.0,90.0,6.0,0.0
10942,73.0,0.0,90.0,10.0,0.0
10943,61.0,0.0,90.0,7.0,0.0
10944,64.0,0.0,60.0,1.0,0.0
10945,61.0,24.0,90.0,12.0,0.0
10946,64.0,0.0,60.0,3.0,0.0
10947,68.0,0.0,90.0,11.0,0.0
10948,78.0,0.0,20.0,4.0,0.0
10949,76.0,0.0,20.0,4.0,0.0
10950,76.0,18.0,20.0,0.0,0.0
10951,66.0,0.0,60.0,3.0,0.0
10952,78.0,24.0,20.0,0.0,0.0
10953,78.0,0.0,20.0,4.0,0.0
10954,63.0,0.0,60.0,1.0,0.0
10955,76.0,0.0,20.0,0.0,0.0
10956,76.0,0.0,20.0,4.0,0.0
10957,61.0,0.0,60.0,1.0,0.0
10958,59.0,0.0,90.0,7.0,0.0
10959,68.0,0.0,60.0,3.0,0.0
10960,73.0,0.0,90.0,10.0,0.0
10961,78.0,0.0,20.0,0.0,0.0
10962,73.0,0.0,90.0,6.0,0.0
10963,59.0,0.0,90.0,5.0,0.0
10964,59.0,0.0,90.0,12.0,0.0
10965,73.0,0.0,90.0,2.0,0.0
10966,68.0,24.0,90.0,11.0,0.0
10967,78.0,24.0,20.0,4.0,0.0
10968,77.0,6.0,270.0,8.0,0.0
10969,77.0,0.0,20.0,4.0,0.0
10970,77.0,24.0,20.0,0.0,0.0
10971,78.0,0.0,20.0,0.0,0.0
10972,66.0,0.0,60.0,3.0,0.0
10973,62.0,0.0,60.0,1.0,0.0
10974,78.0,24.0,20.0,4.0,0.0
10975,77.0,0.0,20.0,0.0,0.0
10976,77.0,0.0,20.0,4.0,0.0
10977,59.0,0.0,90.0,12.0,0.0
10978,59.0,0.0,90.0,5.0,0.0
10979,85.0,0.0,90.0,6.0,0.0
10980,68.0,0.0,60.0,3.0,0.0
10981,61.0,24.0,60.0,1.0,0.0
10982,85.0,0.0,90.0,2.0,0.0
10983,59.0,24.0,90.0,7.0,0.0
10984,85.0,0.0,90.0,10.0,0.0
10985,78.0,24.0,20.0,4.0,0.0
10986,78.0,0.0,20.0,0.0,0.0
10987,68.0,0.0,90.0,11.0,0.0
10988,77.0,0.0,20.0,0.0,0.0
10989,77.0,0.0,20.0,4.0,0.0
10990,59.0,0.0,60.0,1.0,0.0
10991,78.0,24.0,20.0,4.0,0.0
10992,69.0,0.0,60.0,3.0,0.0
10993,78.0,0.0,20.0,0.0,0.0
10994,77.0,0.0,20.0,0.0,0.0
10995,77.0,0.0,20.0,4.0,0.0
10996,59.0,0.0,90.0,12.0,0.0
10997,73.0,0.0,90.0,10.0,0.0
10998,59.0,0.0,90.0,5.0,0.0
10999,73.0,0.0,90.0,6.0,0.0
11000,68.0,0.0,90.0,11.0,0.0
11001,78.0,24.0,20.0,4.0,0.0
11002,73.0,0.0,90.0,2.0,0.0
11003,57.0,18.0,60.0,1.0,0.0
11004,66.0,0.0,60.0,3.0,0.0
11005,78.0,0.0,20.0,0.0,0.0
11006,59.0,0.0,90.0,7.0,0.0
11007,77.0,0.0,20.0,0.0,0.0
11008,77.0,0.0,20.0,4.0,0.0
11009,78.0,24.0,20.0,0.0,0.0
11010,78.0,0.0,20.0,4.0,0.0
11011,68.0,24.0,60.0,3.0,0.0
11012,56.0,0.0,60.0,1.0,0.0
11013,77.0,0.0,20.0,0.0,0.0
11014,77.0,0.0,20.0,4.0,0.0
11015,73.0,0.0,90.0,10.0,0.0
11016,73.0,0.0,90.0,6.0,0.0
11017,69.0,0.0,90.0,11.0,0.0
11018,57.0,0.0,90.0,7.0,0.0
11019,80.0,0.0,20.0,4.0,0.0
11020,73.0,0.0,90.0,2.0,0.0
11021,57.0,0.0,90.0,5.0,0.0
11022,69.0,24.0,60.0,3.0,0.0
11023,80.0,24.0,20.0,0.0,0.0
11024,57.0,0.0,60.0,1.0,0.0
11025,57.0,0.0,90.0,12.0,0.0
11026,78.0,6.0,270.0,8.0,0.0
11027,78.0,0.0,20.0,0.0,0.0
11028,78.0,0.0,20.0,4.0,0.0
11029,61.0,0.0,60.0,1.0,0.0
11030,68.0,0.0,60.0,3.0,0.0
11031,80.0,0.0,20.0,4.0,0.0
11032,80.0,24.0,20.0,0.0,0.0
11033,78.0,0.0,20.0,0.0,0.0
11034,78.0,24.0,20.0,4.0,0.0
11035,85.0,0.0,90.0,2.0,0.0
11036,57.0,0.0,90.0,12.0,0.0
11037,57.0,24.0,90.0,7.0,0.0
11038,69.0,0.0,60.0,3.0,0.0
11039,85.0,0.0,90.0,6.0,0.0
11040,80.0,24.0,20.0,0.0,0.0
11041,80.0,0.0,20.0,4.0,0.0
11042,85.0,0.0,90.0,10.0,0.0
11043,57.0,0.0,90.0,5.0,0.0
11044,66.0,0.0,60.0,1.0,0.0
11045,69.0,0.0,90.0,11.0,0.0
11046,78.0,24.0,20.0,4.0,0.0
11047,78.0,0.0,20.0,0.0,0.0
11048,65.0,0.0,60.0,1.0,0.0
11049,80.0,0.0,20.0,0.0,0.0
11050,80.0,24.0,20.0,4.0,0.0
11051,71.0,0.0,60.0,3.0,0.0
11052,78.0,0.0,20.0,4.0,0.0
11053,78.0,0.0,20.0,0.0,0.0
11054,57.0,0.0,90.0,7.0,0.0
11055,66.0,0.0,60.0,1.0,0.0
11056,57.0,0.0,90.0,5.0,0.0
11057,73.0,0.0,90.0,2.0,0.0
11058,73.0,0.0,90.0,6.0,0.0
11059,80.0,24.0,20.0,0.0,0.0
11060,57.0,0.0,90.0,12.0,0.0
11061,73.0,0.0,90.0,10.0,0.0
11062,69.0,0.0,90.0,11.0,0.0
11063,69.0,18.0,60.0,3.0,0.0
11064,80.0,0.0,20.0,4.0,0.0
11065,78.0,0.0,20.0,0.0,0.0
11066,78.0,0.0,20.0,4.0,0.0
11067,80.0,0.0,20.0,4.0,0.0
11068,68.0,24.0,60.0,3.0,0.0
11069,68.0,0.0,60.0,1.0,0.0
11070,80.0,24.0,20.0,0.0,0.0
11071,78.0,0.0,20.0,4.0,0.0
11072,78.0,0.0,20.0,0.0,0.0
11073,51.0,0.0,90.0,5.0,0.0
11074,67.0,0.0,60.0,3.0,0.0
11075,80.0,0.0,20.0,4.0,0.0
11076,79.0,6.0,270.0,8.0,0.0
11077,51.0,0.0,90.0,12.0,0.0
11078,73.0,0.0,90.0,2.0,0.0
11079,51.0,0.0,90.0,7.0,0.0
11080,70.0,0.0,60.0,1.0,0.0
11081,73.0,24.0,90.0,6.0,0.0
11082,73.0,0.0,90.0,10.0,0.0
11083,80.0,24.0,20.0,0.0,0.0
11084,70.0,0.0,90.0,11.0,0.0
11085,79.0,0.0,20.0,4.0,0.0
11086,79.0,24.0,20.0,0.0,0.0
11087,80.0,0.0,20.0,0.0,0.0
11088,68.0,0.0,60.0,3.0,0.0
11089,68.0,0.0,60.0,1.0,0.0
11090,80.0,24.0,20.0,4.0,0.0
11091,79.0,0.0,20.0,4.0,0.0
11092,79.0,0.0,20.0,0.0,0.0
11093,70.0,24.0,60.0,3.0,0.0
11094,80.0,24.0,20.0,4.0,0.0
11095,70.0,0.0,90.0,11.0,0.0
11096,85.0,0.0,90.0,2.0,0.0
11097,51.0,0.0,90.0,12.0,0.0
11098,80.0,0.0,20.0,0.0,0.0
11099,67.0,0.0,60.0,1.0,0.0
11100,51.0,0.0,90.0,5.0,0.0
11101,85.0,24.0,90.0,10.0,0.0
11102,85.0,0.0,90.0,6.0,0.0
11103,51.0,0.0,90.0,7.0,0.0
11104,79.0,0.0,20.0,0.0,0.0
11105,79.0,0.0,20.0,4.0,0.0
11106,68.0,0.0,60.0,3.0,0.0
11107,80.0,0.0,20.0,4.0,0.0
11108,65.0,0.0,60.0,1.0,0.0
11109,80.0,24.0,20.0,0.0,0.0
11110,79.0,0.0,20.0,0.0,0.0
11111,79.0,0.0,20.0,4.0,0.0
11112,73.0,0.0,90.0,6.0,0.0
11113,63.0,0.0,60.0,1.0,0.0
11114,80.0,24.0,20.0,4.0,0.0
11115,51.0,48.0,90.0,7.0,0.0
11116,51.0,0.0,90.0,5.0,0.0
11117,51.0,0.0,90.0,12.0,0.0
11118,67.0,0.0,60.0,3.0,0.0
11119,73.0,0.0,90.0,2.0,0.0
11120,70.0,0.0,90.0,11.0,0.0
11121,80.0,0.0,20.0,0.0,0.0
11122,73.0,0.0,90.0,10.0,0.0
11123,79.0,18.0,20.0,0.0,0.0
11124,79.0,0.0,20.0,4.0,0.0
11125,70.0,0.0,60.0,1.0,0.0
11126,80.0,24.0,20.0,4.0,0.0
11127,65.0,0.0,60.0,3.0,0.0
11128,80.0,0.0,20.0,0.0,0.0
11129,79.0,0.0,20.0,4.0,0.0
11130,79.0,0.0,20.0,0.0,0.0
11131,68.0,0.0,90.0,11.0,0.0
11132,56.0,0.0,90.0,5.0,0.0
11133,80.0,0.0,90.0,0.0,0.0
11134,80.0,0.0,90.0,4.0,0.0
11135,56.0,30.0,150.0,7.0,0.0
11136,72.0,0.0,90.0,10.0,0.0
11137,80.0,48.0,90.0,8.0,0.0
11138,63.0,48.0,60.0,3.0,0.0
11139,72.0,0.0,90.0,6.0,0.0
11140,72.0,0.0,60.0,1.0,0.0
11141,72.0,0.0,90.0,2.0,0.0
11142,56.0,0.0,90.0,12.0,0.0
11143,66.0,0.0,60.0,3.0,0.0
11144,60.0,0.0,60.0,1.0,0.0
11145,44.0,0.0,90.0,5.0,0.0
11146,68.0,0.0,90.0,0.0,0.0
11147,64.0,18.0,60.0,3.0,0.0
11148,68.0,0.0,90.0,4.0,0.0
11149,61.0,0.0,60.0,1.0,0.0
11150,68.0,48.0,90.0,8.0,0.0
11151,56.0,0.0,90.0,12.0,0.0
11152,63.0,0.0,60.0,1.0,0.0
11153,63.0,0.0,60.0,3.0,0.0
11154,61.0,48.0,60.0,3.0,0.0
11155,76.0,0.0,90.0,4.0,0.0
11156,80.0,48.0,90.0,0.0,0.0
11157,56.0,0.0,90.0,5.0,0.0
11158,80.0,0.0,90.0,8.0,0.0
11159,64.0,0.0,90.0,11.0,0.0
11160,56.0,0.0,90.0,12.0,0.0
11161,73.0,0.0,90.0,6.0,0.0
11162,73.0,0.0,90.0,2.0,0.0
11163,73.0,0.0,90.0,10.0,0.0
11164,64.0,0.0,60.0,1.0,0.0
11165,44.0,0.0,90.0,7.0,0.0
11166,66.0,0.0,60.0,1.0,0.0
11167,63.0,0.0,60.0,3.0,0.0
11168,75.0,48.0,60.0,10.0,0.0
11169,60.0,0.0,90.0,11.0,0.0
11170,56.0,0.0,90.0,5.0,0.0
11171,56.0,0.0,90.0,12.0,0.0
11172,75.0,0.0,90.0,4.0,0.0
11173,68.0,48.0,90.0,1.0,0.0
11174,56.0,30.0,150.0,7.0,0.0
11175,75.0,0.0,90.0,2.0,0.0
11176,78.0,0.0,60.0,8.0,0.0
11177,56.0,0.0,90.0,3.0,0.0
11178,72.0,0.0,90.0,6.0,0.0
11179,78.0,0.0,60.0,0.0,0.0
11180,76.0,0.0,60.0,8.0,0.0
11181,76.0,0.0,60.0,0.0,0.0
11182,73.0,0.0,60.0,10.0,0.0
11183,60.0,0.0,90.0,1.0,0.0
11184,75.0,0.0,90.0,10.0,0.0
11185,68.0,48.0,90.0,3.0,0.0
11186,68.0,0.0,90.0,11.0,0.0
11187,80.0,0.0,90.0,4.0,0.0
11188,78.0,0.0,60.0,8.0,0.0
11189,56.0,0.0,90.0,12.0,0.0
11190,75.0,0.0,90.0,2.0,0.0
11191,78.0,18.0,60.0,0.0,0.0
11192,44.0,0.0,90.0,5.0,0.0
11193,75.0,0.0,60.0,6.0,0.0
11194,80.0,0.0,60.0,8.0,0.0
11195,80.0,0.0,60.0,0.0,0.0
11196,75.0,0.0,90.0,10.0,0.0
11197,68.0,0.0,90.0,1.0,0.0
11198,75.0,48.0,90.0,2.0,0.0
11199,78.0,0.0,90.0,8.0,0.0
11200,78.0,0.0,90.0,0.0,0.0
11201,78.0,48.0,60.0,6.0,0.0
11202,60.0,0.0,90.0,3.0,0.0
11203,60.0,0.0,90.0,11.0,0.0
11204,56.0,0.0,90.0,12.0,0.0
11205,44.0,0.0,90.0,7.0,0.0
11206,56.0,0.0,90.0,5.0,0.0
11207,75.0,0.0,60.0,6.0,0.0
11208,73.0,0.0,90.0,2.0,0.0
11209,76.0,48.0,60.0,0.0,0.0
11210,68.0,0.0,90.0,6.0,0.0
11211,73.0,0.0,60.0,10.0,0.0
11212,68.0,48.0,90.0,1.0,0.0
11213,61.0,0.0,90.0,11.0,0.0
11214,56.0,0.0,90.0,12.0,0.0
11215,56.0,30.0,150.0,7.0,0.0
11216,56.0,0.0,90.0,5.0,0.0
11217,61.0,0.0,90.0,3.0,0.0
11218,76.0,0.0,60.0,8.0,0.0
11219,73.0,0.0,90.0,4.0,0.0
11220,75.0,0.0,60.0,0.0,0.0
11221,75.0,0.0,60.0,8.0,0.0
11222,72.0,0.0,60.0,10.0,0.0
11223,61.0,48.0,90.0,1.0,0.0
11224,76.0,0.0,60.0,8.0,0.0
11225,76.0,18.0,60.0,0.0,0.0
11226,68.0,0.0,90.0,3.0,0.0
11227,73.0,0.0,90.0,2.0,0.0
11228,68.0,0.0,90.0,11.0,0.0
11229,80.0,0.0,90.0,4.0,0.0
11230,56.0,0.0,90.0,12.0,0.0
11231,73.0,0.0,90.0,10.0,0.0
11232,44.0,0.0,90.0,5.0,0.0
11233,73.0,0.0,60.0,6.0,0.0
11234,78.0,0.0,60.0,8.0,0.0
11235,78.0,0.0,60.0,0.0,0.0
11236,68.0,0.0,90.0,1.0,0.0
11237,76.0,48.0,60.0,6.0,0.0
11238,56.0,0.0,90.0,12.0,0.0
11239,56.0,0.0,90.0,5.0,0.0
11240,61.0,0.0,90.0,3.0,0.0
11241,44.0,0.0,90.0,7.0,0.0
11242,73.0,0.0,90.0,10.0,0.0
11243,76.0,48.0,90.0,0.0,0.0
11244,76.0,0.0,90.0,8.0,0.0
11245,61.0,0.0,90.0,11.0,0.0
11246,73.0,0.0,90.0,2.0,0.0
11247,73.0,0.0,60.0,6.0,0.0
11248,56.0,0.0,90.0,12.0,0.0
11249,72.0,0.0,90.0,4.0,0.0
11250,68.0,0.0,90.0,6.0,0.0
11251,75.0,0.0,60.0,8.0,0.0
11252,75.0,48.0,60.0,0.0,0.0
11253,68.0,0.0,90.0,1.0,0.0
11254,63.0,0.0,90.0,11.0,0.0
11255,72.0,0.0,90.0,2.0,0.0
11256,72.0,0.0,60.0,10.0,0.0
11257,56.0,30.0,150.0,7.0,0.0
11258,56.0,0.0,90.0,5.0,0.0
11259,63.0,0.0,90.0,3.0,0.0
11260,73.0,0.0,60.0,8.0,0.0
11261,70.0,48.0,60.0,10.0,0.0
11262,73.0,0.0,60.0,0.0,0.0
11263,75.0,18.0,60.0,8.0,0.0
11264,75.0,0.0,60.0,0.0,0.0
11265,56.0,0.0,90.0,12.0,0.0
11266,68.0,0.0,90.0,11.0,0.0
11267,72.0,0.0,90.0,10.0,0.0
11268,44.0,0.0,90.0,5.0,0.0
11269,60.0,0.0,90.0,1.0,0.0
11270,72.0,0.0,90.0,2.0,0.0
11271,68.0,0.0,90.0,3.0,0.0
11272,80.0,0.0,90.0,4.0,0.0
11273,76.0,48.0,60.0,8.0,0.0
11274,72.0,0.0,60.0,6.0,0.0
11275,76.0,0.0,60.0,0.0,0.0
11276,75.0,48.0,90.0,8.0,0.0
11277,44.0,0.0,90.0,7.0,0.0
11278,75.0,48.0,60.0,6.0,0.0
11279,68.0,0.0,90.0,1.0,0.0
11280,75.0,0.0,90.0,0.0,0.0
11281,56.0,0.0,90.0,12.0,0.0
11282,72.0,0.0,90.0,2.0,0.0
11283,56.0,0.0,90.0,5.0,0.0
11284,72.0,0.0,90.0,10.0,0.0
11285,63.0,0.0,90.0,3.0,0.0
11286,63.0,0.0,90.0,11.0,0.0
11287,72.0,0.0,60.0,6.0,0.0
11288,76.0,48.0,60.0,8.0,0.0
11289,73.0,0.0,60.0,10.0,0.0
11290,76.0,0.0,60.0,0.0,0.0
11291,56.0,0.0,90.0,12.0,0.0
11292,56.0,48.0,90.0,5.0,0.0
11293,56.0,30.0,150.0,7.0,0.0
11294,73.0,0.0,90.0,4.0,0.0
11295,61.0,0.0,90.0,3.0,0.0
11296,68.0,0.0,90.0,6.0,0.0
11297,68.0,0.0,90.0,1.0,0.0
11298,73.0,0.0,90.0,2.0,0.0
11299,61.0,0.0,90.0,11.0,0.0
11300,75.0,0.0,60.0,0.0,0.0
11301,75.0,0.0,60.0,8.0,0.0
11302,72.0,0.0,60.0,10.0,0.0
11303,73.0,0.0,90.0,10.0,0.0
11304,44.0,0.0,90.0,5.0,0.0
11305,61.0,0.0,90.0,1.0,0.0
11306,76.0,18.0,60.0,0.0,0.0
11307,68.0,0.0,90.0,3.0,0.0
11308,80.0,0.0,90.0,4.0,0.0
11309,76.0,0.0,60.0,8.0,0.0
11310,68.0,48.0,90.0,11.0,0.0
11311,56.0,0.0,90.0,12.0,0.0
11312,73.0,0.0,90.0,2.0,0.0
11313,73.0,0.0,60.0,6.0,0.0
11314,78.0,0.0,60.0,8.0,0.0
11315,78.0,0.0,60.0,0.0,0.0
11316,56.0,0.0,90.0,5.0,0.0
11317,76.0,0.0,90.0,8.0,0.0
11318,68.0,0.0,90.0,1.0,0.0
11319,61.0,0.0,90.0,3.0,0.0
11320,56.0,0.0,90.0,12.0,0.0
11321,76.0,48.0,60.0,6.0,0.0
11322,61.0,0.0,90.0,11.0,0.0
11323,76.0,0.0,90.0,0.0,0.0
11324,44.0,0.0,90.0,7.0,0.0
11325,73.0,0.0,90.0,10.0,0.0
11326,73.0,48.0,90.0,2.0,0.0
11327,73.0,0.0,60.0,6.0,0.0
11328,75.0,0.0,90.0,2.0,0.0
11329,68.0,0.0,90.0,1.0,0.0
11330,60.0,0.0,90.0,3.0,0.0
11331,75.0,0.0,90.0,4.0,0.0
11332,56.0,30.0,150.0,7.0,0.0
11333,60.0,0.0,90.0,11.0,0.0
11334,56.0,0.0,90.0,12.0,0.0
11335,78.0,0.0,60.0,0.0,0.0
11336,56.0,0.0,90.0,5.0,0.0
11337,78.0,48.0,60.0,8.0,0.0
11338,68.0,0.0,90.0,6.0,0.0
11339,75.0,0.0,60.0,10.0,0.0
11340,73.0,0.0,60.0,10.0,0.0
11341,76.0,0.0,60.0,0.0,0.0
11342,76.0,48.0,60.0,8.0,0.0
11343,75.0,0.0,90.0,2.0,0.0
11344,68.0,0.0,90.0,3.0,0.0
11345,68.0,0.0,90.0,11.0,0.0
11346,78.0,0.0,60.0,0.0,0.0
11347,78.0,18.0,60.0,8.0,0.0
11348,60.0,0.0,90.0,1.0,0.0
11349,75.0,0.0,90.0,10.0,0.0
11350,56.0,0.0,90.0,12.0,0.0
11351,44.0,48.0,90.0,5.0,0.0
11352,80.0,0.0,90.0,4.0,0.0
11353,75.0,0.0,60.0,6.0,0.0
11354,80.0,0.0,60.0,0.0,0.0
11355,80.0,0.0,60.0,8.0,0.0
11356,75.0,0.0,90.0,2.0,0.0
11357,78.0,48.0,60.0,6.0,0.0
11358,75.0,0.0,90.0,10.0,0.0
11359,60.0,0.0,90.0,11.0,0.0
11360,68.0,0.0,90.0,1.0,0.0
11361,56.0,48.0,90.0,12.0,0.0
11362,56.0,0.0,90.0,5.0,0.0
11363,44.0,0.0,90.0,7.0,0.0
11364,78.0,0.0,90.0,0.0,0.0
11365,60.0,0.0,90.0,3.0,0.0
11366,78.0,0.0,90.0,8.0,0.0
11367,75.0,0.0,60.0,6.0,0.0
11368,76.0,48.0,60.0,0.0,0.0
11369,73.0,0.0,90.0,4.0,0.0
11370,68.0,0.0,90.0,1.0,0.0
11371,56.0,48.0,90.0,5.0,0.0
11372,56.0,0.0,90.0,12.0,0.0
11373,73.0,0.0,90.0,2.0,0.0
11374,76.0,0.0,60.0,8.0,0.0
11375,68.0,0.0,90.0,6.0,0.0
11376,61.0,0.0,90.0,11.0,0.0
11377,61.0,0.0,90.0,3.0,0.0
11378,73.0,0.0,60.0,10.0,0.0
11379,56.0,30.0,150.0,7.0,0.0
11380,75.0,0.0,60.0,8.0,0.0
11381,72.0,0.0,60.0,10.0,0.0
11382,75.0,0.0,60.0,0.0,0.0
11383,61.0,48.0,90.0,1.0,0.0
11384,44.0,0.0,90.0,5.0,0.0
11385,56.0,0.0,90.0,12.0,0.0
11386,76.0,0.0,60.0,0.0,0.0
11387,73.0,0.0,90.0,10.0,0.0
11388,73.0,0.0,90.0,2.0,0.0
11389,80.0,0.0,90.0,4.0,0.0
11390,68.0,0.0,90.0,3.0,0.0
11391,68.0,0.0,90.0,11.0,0.0
11392,76.0,18.0,60.0,8.0,0.0
11393,78.0,0.0,60.0,0.0,0.0
11394,73.0,0.0,60.0,6.0,0.0
11395,78.0,0.0,60.0,8.0,0.0
11396,61.0,48.0,90.0,3.0,0.0
11397,56.0,0.0,90.0,12.0,0.0
11398,56.0,0.0,90.0,5.0,0.0
11399,76.0,0.0,90.0,8.0,0.0
11400,68.0,0.0,90.0,1.0,0.0
11401,76.0,0.0,90.0,0.0,0.0
11402,76.0,48.0,60.0,6.0,0.0
11403,73.0,0.0,90.0,2.0,0.0
11404,61.0,0.0,90.0,11.0,0.0
11405,44.0,0.0,90.0,7.0,0.0
11406,73.0,0.0,90.0,10.0,0.0
11407,73.0,0.0,60.0,6.0,0.0
11408,56.0,48.0,60.0,1.0,0.0
11409,56.0,0.0,90.0,12.0,0.0
11410,68.0,0.0,150.0,2.0,0.0
11411,72.0,0.0,150.0,2.0,0.0
11412,68.0,30.0,150.0,6.0,0.0
11413,72.0,0.0,150.0,6.0,0.0
11414,68.0,0.0,150.0,11.0,0.0
11415,75.0,0.0,150.0,4.0,0.0
11416,60.0,0.0,60.0,5.0,0.0
11417,75.0,0.0,150.0,8.0,0.0
11418,72.0,0.0,150.0,10.0,0.0
11419,63.0,48.0,90.0,7.0,0.0
11420,78.0,0.0,150.0,0.0,0.0
11421,75.0,0.0,150.0,0.0,0.0
11422,63.0,0.0,150.0,3.0,0.0
11423,78.0,0.0,150.0,4.0,0.0
11424,61.0,0.0,60.0,5.0,0.0
11425,58.0,0.0,60.0,1.0,0.0
11426,60.0,0.0,90.0,12.0,0.0
11427,63.0,18.0,60.0,5.0,0.0
11428,60.0,0.0,60.0,1.0,0.0
11429,60.0,0.0,90.0,7.0,0.0
11430,64.0,0.0,60.0,5.0,0.0
11431,61.0,48.0,60.0,1.0,0.0
11432,63.0,0.0,90.0,12.0,0.0
11433,56.0,0.0,90.0,7.0,0.0
11434,63.0,48.0,60.0,1.0,0.0
11435,66.0,0.0,60.0,5.0,0.0
11436,64.0,0.0,60.0,5.0,0.0
11437,61.0,48.0,60.0,1.0,0.0
11438,56.0,0.0,90.0,12.0,0.0
11439,78.0,0.0,150.0,8.0,0.0
11440,56.0,48.0,60.0,3.0,0.0
11441,68.0,0.0,150.0,6.0,0.0
11442,60.0,48.0,90.0,7.0,0.0
11443,63.0,0.0,90.0,5.0,0.0
11444,75.0,0.0,150.0,4.0,0.0
11445,78.0,30.0,150.0,0.0,0.0
11446,75.0,0.0,150.0,10.0,0.0
11447,60.0,0.0,60.0,1.0,0.0
11448,72.0,0.0,150.0,6.0,0.0
11449,78.0,0.0,150.0,4.0,0.0
11450,72.0,0.0,150.0,2.0,0.0
11451,68.0,0.0,150.0,2.0,0.0
11452,75.0,0.0,150.0,0.0,0.0
11453,72.0,0.0,150.0,11.0,0.0
11454,61.0,0.0,60.0,1.0,0.0
11455,58.0,0.0,60.0,3.0,0.0
11456,60.0,18.0,60.0,3.0,0.0
11457,56.0,0.0,90.0,7.0,0.0
11458,60.0,48.0,90.0,12.0,0.0
11459,60.0,0.0,90.0,5.0,0.0
11460,63.0,0.0,60.0,1.0,0.0
11461,64.0,0.0,60.0,1.0,0.0
11462,61.0,0.0,60.0,3.0,0.0
11463,51.0,0.0,90.0,7.0,0.0
11464,63.0,0.0,60.0,3.0,0.0
11465,56.0,0.0,90.0,5.0,0.0
11466,63.0,0.0,90.0,12.0,0.0
11467,66.0,48.0,60.0,1.0,0.0
11468,61.0,48.0,60.0,3.0,0.0
11469,64.0,0.0,60.0,1.0,0.0
11470,63.0,0.0,90.0,1.0,0.0
11471,68.0,0.0,150.0,2.0,0.0
11472,72.0,0.0,150.0,2.0,0.0
11473,75.0,0.0,150.0,11.0,0.0
11474,60.0,48.0,60.0,3.0,0.0
11475,84.0,0.0,150.0,8.0,0.0
11476,56.0,0.0,90.0,12.0,0.0
11477,75.0,0.0,150.0,0.0,0.0
11478,78.0,0.0,150.0,0.0,0.0
11479,78.0,30.0,150.0,4.0,0.0
11480,75.0,0.0,150.0,4.0,0.0
11481,72.0,0.0,150.0,6.0,0.0
11482,68.0,0.0,150.0,6.0,0.0
11483,60.0,0.0,90.0,5.0,0.0
11484,44.0,0.0,60.0,7.0,0.0
11485,78.0,0.0,150.0,10.0,0.0
11486,61.0,48.0,60.0,3.0,0.0
11487,46.0,0.0,60.0,7.0,0.0
11488,56.0,0.0,90.0,5.0,0.0
11489,60.0,48.0,90.0,1.0,0.0
11490,63.0,0.0,60.0,3.0,0.0
11491,60.0,0.0,90.0,12.0,0.0
11492,48.0,18.0,60.0,7.0,0.0
11493,64.0,0.0,60.0,3.0,0.0
11494,49.0,0.0,60.0,7.0,0.0
11495,63.0,0.0,90.0,12.0,0.0
11496,51.0,48.0,60.0,7.0,0.0
11497,56.0,0.0,90.0,1.0,0.0
11498,52.0,0.0,90.0,5.0,0.0
11499,66.0,0.0,60.0,3.0,0.0
11500,52.0,48.0,60.0,7.0,0.0
11501,64.0,0.0,60.0,3.0,0.0
11502,72.0,0.0,150.0,6.0,0.0
11503,54.0,0.0,60.0,7.0,0.0
11504,60.0,48.0,90.0,1.0,0.0
11505,78.0,0.0,150.0,11.0,0.0
11506,75.0,0.0,150.0,4.0,0.0
11507,84.0,0.0,150.0,10.0,0.0
11508,63.0,0.0,90.0,3.0,0.0
11509,68.0,0.0,150.0,6.0,0.0
11510,78.0,0.0,150.0,0.0,0.0
11511,78.0,0.0,150.0,4.0,0.0
11512,54.0,48.0,60.0,5.0,0.0
11513,72.0,0.0,150.0,2.0,0.0
11514,68.0,0.0,150.0,2.0,0.0
11515,56.0,30.0,150.0,12.0,0.0
11516,87.0,0.0,150.0,8.0,0.0
11517,75.0,0.0,150.0,0.0,0.0
11518,57.0,0.0,60.0,5.0,0.0
11519,51.0,0.0,60.0,7.0,0.0
11520,56.0,48.0,90.0,1.0,0.0
11521,56.0,0.0,60.0,5.0,0.0
11522,60.0,0.0,90.0,3.0,0.0
11523,56.0,18.0,60.0,7.0,0.0
11524,54.0,0.0,60.0,7.0,0.0
11525,54.0,0.0,60.0,5.0,0.0
11526,52.0,48.0,60.0,5.0,0.0
11527,56.0,0.0,90.0,3.0,0.0
11528,60.0,0.0,90.0,1.0,0.0
11529,52.0,0.0,60.0,7.0,0.0
11530,51.0,48.0,60.0,5.0,0.0
11531,51.0,0.0,60.0,7.0,0.0
11532,73.0,48.0,60.0,6.0,0.0
11533,68.0,0.0,90.0,11.0,0.0
11534,49.0,0.0,90.0,7.0,0.0
11535,73.0,0.0,90.0,10.0,0.0
11536,76.0,0.0,90.0,8.0,0.0
11537,76.0,0.0,60.0,0.0,0.0
11538,76.0,0.0,60.0,4.0,0.0
11539,73.0,0.0,60.0,2.0,0.0
11540,61.0,0.0,90.0,1.0,0.0
11541,49.0,0.0,90.0,5.0,0.0
11542,52.0,0.0,90.0,3.0,0.0
11543,49.0,0.0,90.0,1.0,0.0
11544,49.0,0.0,90.0,12.0,0.0
11545,80.0,0.0,60.0,4.0,0.0
11546,76.0,0.0,60.0,2.0,0.0
11547,73.0,0.0,60.0,0.0,0.0
11548,68.0,48.0,60.0,6.0,0.0
11549,52.0,48.0,90.0,5.0,0.0
11550,49.0,0.0,90.0,12.0,0.0
11551,56.0,0.0,90.0,3.0,0.0
11552,61.0,0.0,90.0,7.0,0.0
11553,76.0,0.0,60.0,4.0,0.0
11554,73.0,48.0,60.0,6.0,0.0
11555,68.0,0.0,60.0,0.0,0.0
11556,61.0,0.0,90.0,1.0,0.0
11557,68.0,0.0,90.0,11.0,0.0
11558,76.0,0.0,90.0,8.0,0.0
11559,73.0,0.0,90.0,10.0,0.0
11560,73.0,0.0,60.0,2.0,0.0
11561,49.0,0.0,90.0,1.0,0.0
11562,68.0,0.0,60.0,2.0,0.0
11563,76.0,0.0,60.0,6.0,0.0
11564,73.0,0.0,60.0,4.0,0.0
11565,73.0,0.0,60.0,0.0,0.0
11566,49.0,0.0,90.0,1.0,0.0
11567,49.0,0.0,90.0,12.0,0.0
11568,68.0,0.0,60.0,4.0,0.0
11569,49.0,0.0,90.0,3.0,0.0
11570,73.0,48.0,60.0,2.0,0.0
11571,73.0,0.0,60.0,6.0,0.0
11572,68.0,0.0,90.0,11.0,0.0
11573,76.0,0.0,60.0,0.0,0.0
11574,56.0,0.0,90.0,5.0,0.0
11575,61.0,48.0,90.0,1.0,0.0
11576,49.0,0.0,90.0,7.0,0.0
11577,76.0,0.0,90.0,8.0,0.0
11578,73.0,0.0,90.0,10.0,0.0
11579,73.0,0.0,60.0,0.0,0.0
11580,76.0,0.0,60.0,2.0,0.0
11581,73.0,0.0,60.0,4.0,0.0
11582,68.0,0.0,60.0,6.0,0.0
11583,54.0,0.0,90.0,5.0,0.0
11584,73.0,0.0,60.0,6.0,0.0
11585,54.0,0.0,90.0,3.0,0.0
11586,54.0,0.0,90.0,1.0,0.0
11587,75.0,0.0,90.0,8.0,0.0
11588,42.0,0.0,90.0,1.0,0.0
11589,57.0,0.0,90.0,7.0,0.0
11590,75.0,48.0,60.0,0.0,0.0
11591,69.0,0.0,90.0,11.0,0.0
11592,54.0,0.0,90.0,12.0,0.0
11593,75.0,0.0,60.0,4.0,0.0
11594,73.0,0.0,60.0,2.0,0.0
11595,73.0,0.0,90.0,10.0,0.0
11596,73.0,0.0,60.0,0.0,0.0
11597,78.0,0.0,60.0,4.0,0.0
11598,75.0,0.0,60.0,2.0,0.0
11599,69.0,48.0,60.0,6.0,0.0
11600,42.0,48.0,90.0,5.0,0.0
11601,73.0,0.0,90.0,10.0,0.0
11602,75.0,0.0,60.0,4.0,0.0
11603,75.0,0.0,90.0,8.0,0.0
11604,42.0,0.0,90.0,1.0,0.0
11605,54.0,0.0,90.0,1.0,0.0
11606,73.0,0.0,60.0,2.0,0.0
11607,57.0,0.0,90.0,3.0,0.0
11608,73.0,48.0,60.0,6.0,0.0
11609,54.0,0.0,90.0,12.0,0.0
11610,69.0,0.0,90.0,11.0,0.0
11611,54.0,0.0,90.0,7.0,0.0
11612,69.0,0.0,60.0,0.0,0.0
11613,73.0,0.0,60.0,0.0,0.0
11614,73.0,0.0,60.0,4.0,0.0
11615,69.0,0.0,60.0,2.0,0.0
11616,75.0,0.0,60.0,6.0,0.0
11617,73.0,0.0,60.0,6.0,0.0
11618,54.0,0.0,90.0,3.0,0.0
11619,69.0,0.0,60.0,4.0,0.0
11620,73.0,0.0,60.0,2.0,0.0
11621,57.0,0.0,90.0,7.0,0.0
11622,42.0,0.0,90.0,1.0,0.0
11623,73.0,0.0,90.0,10.0,0.0
11624,54.0,0.0,90.0,5.0,0.0
11625,69.0,0.0,90.0,11.0,0.0
11626,75.0,0.0,90.0,8.0,0.0
11627,75.0,48.0,60.0,0.0,0.0
11628,54.0,0.0,90.0,1.0,0.0
11629,54.0,0.0,90.0,12.0,0.0
11630,69.0,48.0,60.0,6.0,0.0
11631,75.0,0.0,60.0,2.0,0.0
11632,73.0,0.0,60.0,4.0,0.0
11633,73.0,0.0,60.0,0.0,0.0
11634,44.0,0.0,90.0,1.0,0.0
11635,56.0,0.0,90.0,5.0,0.0
11636,56.0,0.0,90.0,1.0,0.0
11637,75.0,0.0,60.0,4.0,0.0
11638,68.0,0.0,90.0,11.0,0.0
11639,75.0,48.0,90.0,8.0,0.0
11640,56.0,0.0,90.0,3.0,0.0
11641,51.0,0.0,90.0,7.0,0.0
11642,72.0,0.0,90.0,10.0,0.0
11643,72.0,48.0,60.0,6.0,0.0
11644,56.0,0.0,90.0,12.0,0.0
11645,75.0,0.0,60.0,0.0,0.0
11646,72.0,0.0,60.0,2.0,0.0
11647,75.0,0.0,60.0,2.0,0.0
11648,68.0,0.0,60.0,6.0,0.0
11649,72.0,0.0,60.0,0.0,0.0
11650,78.0,0.0,60.0,4.0,0.0
11651,72.0,0.0,60.0,6.0,0.0
11652,56.0,0.0,90.0,1.0,0.0
11653,44.0,0.0,90.0,3.0,0.0
11654,44.0,0.0,90.0,1.0,0.0
11655,56.0,0.0,90.0,12.0,0.0
11656,68.0,0.0,90.0,11.0,0.0
11657,68.0,0.0,60.0,0.0,0.0
11658,63.0,0.0,90.0,5.0,0.0
11659,75.0,48.0,90.0,8.0,0.0
11660,75.0,0.0,60.0,4.0,0.0
11661,56.0,0.0,90.0,7.0,0.0
11662,72.0,48.0,60.0,2.0,0.0
11663,72.0,0.0,90.0,10.0,0.0
11664,72.0,0.0,60.0,4.0,0.0
11665,75.0,0.0,60.0,6.0,0.0
11666,72.0,0.0,60.0,0.0,0.0
11667,68.0,0.0,60.0,2.0,0.0
11668,68.0,0.0,60.0,4.0,0.0
11669,72.0,48.0,60.0,6.0,0.0
11670,44.0,0.0,90.0,7.0,0.0
11671,44.0,0.0,90.0,1.0,0.0
11672,75.0,0.0,90.0,8.0,0.0
11673,66.0,0.0,90.0,11.0,0.0
11674,66.0,0.0,90.0,5.0,0.0
11675,75.0,0.0,60.0,0.0,0.0
11676,56.0,48.0,90.0,12.0,0.0
11677,56.0,0.0,90.0,1.0,0.0
11678,72.0,0.0,60.0,2.0,0.0
11679,72.0,0.0,90.0,10.0,0.0
11680,56.0,0.0,90.0,3.0,0.0
11681,75.0,0.0,60.0,2.0,0.0
11682,68.0,0.0,60.0,6.0,0.0
11683,72.0,0.0,60.0,0.0,0.0
11684,72.0,0.0,60.0,4.0,0.0
11685,64.0,0.0,150.0,6.0,0.0
11686,64.0,0.0,150.0,5.0,0.0
11687,56.0,0.0,150.0,1.0,0.0
11688,49.0,0.0,150.0,3.0,0.0
11689,68.0,0.0,150.0,10.0,0.0
11690,52.0,0.0,150.0,1.0,0.0
11691,73.0,0.0,150.0,8.0,0.0
11692,61.0,0.0,150.0,5.0,0.0
11693,68.0,0.0,150.0,6.0,0.0
11694,49.0,0.0,150.0,7.0,0.0
11695,49.0,0.0,150.0,1.0,0.0
11696,73.0,0.0,150.0,4.0,0.0
11697,73.0,48.0,60.0,0.0,0.0
11698,49.0,0.0,150.0,12.0,0.0
11699,73.0,0.0,150.0,6.0,0.0
11700,64.0,0.0,150.0,11.0,0.0
11701,73.0,30.0,150.0,2.0,0.0
11702,61.0,0.0,150.0,1.0,0.0
11703,68.0,48.0,60.0,0.0,0.0
11704,64.0,18.0,60.0,0.0,0.0
11705,68.0,48.0,60.0,0.0,0.0
11706,73.0,48.0,60.0,0.0,0.0
11707,75.0,48.0,60.0,0.0,0.0
11708,61.0,0.0,150.0,12.0,0.0
11709,73.0,0.0,150.0,10.0,0.0
11710,49.0,0.0,150.0,1.0,0.0
11711,52.0,0.0,150.0,1.0,0.0
11712,56.0,30.0,150.0,1.0,0.0
11713,61.0,0.0,150.0,1.0,0.0
11714,68.0,0.0,150.0,11.0,0.0
11715,73.0,48.0,60.0,0.0,0.0
11716,76.0,0.0,150.0,8.0,0.0
11717,68.0,48.0,60.0,0.0,0.0
11718,64.0,18.0,60.0,0.0,0.0
11719,68.0,48.0,60.0,0.0,0.0
11720,73.0,48.0,60.0,0.0,0.0
11721,76.0,48.0,60.0,0.0,0.0
11722,75.0,48.0,60.0,0.0,0.0
11723,68.0,0.0,150.0,11.0,0.0
11724,56.0,0.0,150.0,12.0,0.0
11725,75.0,0.0,150.0,8.0,0.0
11726,60.0,0.0,150.0,1.0,0.0
11727,56.0,0.0,150.0,1.0,0.0
11728,72.0,30.0,150.0,10.0,0.0
11729,72.0,48.0,60.0,0.0,0.0
11730,68.0,18.0,60.0,0.0,0.0
11731,72.0,48.0,60.0,0.0,0.0
11732,75.0,48.0,60.0,0.0,0.0
11733,76.0,48.0,60.0,0.0,0.0
11734,75.0,30.0,150.0,10.0,0.0
11735,60.0,0.0,150.0,1.0,0.0
11736,63.0,0.0,150.0,1.0,0.0
11737,72.0,0.0,150.0,11.0,0.0
11738,44.0,0.0,150.0,12.0,0.0
11739,78.0,0.0,150.0,8.0,0.0
11740,75.0,48.0,60.0,0.0,0.0
11741,72.0,48.0,60.0,0.0,0.0
11742,68.0,18.0,60.0,0.0,0.0
11743,72.0,48.0,60.0,0.0,0.0
11744,75.0,48.0,60.0,0.0,0.0
11745,78.0,48.0,60.0,0.0,0.0
11746,76.0,0.0,60.0,0.0,0.0
11747,49.0,0.0,150.0,12.0,0.0
11748,73.0,30.0,150.0,10.0,0.0
11749,76.0,0.0,150.0,8.0,0.0
11750,68.0,0.0,150.0,11.0,0.0
11751,61.0,48.0,60.0,1.0,0.0
11752,75.0,48.0,60.0,0.0,0.0
11753,56.0,0.0,60.0,1.0,0.0
11754,58.0,0.0,60.0,1.0,0.0
11755,73.0,18.0,60.0,0.0,0.0
11756,75.0,48.0,60.0,0.0,0.0
11757,60.0,0.0,60.0,1.0,0.0
11758,76.0,0.0,60.0,0.0,0.0
11759,61.0,48.0,60.0,1.0,0.0
11760,78.0,0.0,60.0,0.0,0.0
11761,63.0,96.0,60.0,1.0,0.0
11762,64.0,0.0,150.0,11.0,0.0
11763,61.0,0.0,150.0,12.0,0.0
11764,64.0,0.0,90.0,1.0,0.0
11765,80.0,48.0,90.0,0.0,0.0
11766,73.0,0.0,150.0,10.0,0.0
11767,80.0,30.0,150.0,8.0,0.0
11768,78.0,18.0,60.0,0.0,0.0
11769,61.0,48.0,90.0,1.0,0.0
11770,76.0,0.0,60.0,0.0,0.0
11771,64.0,0.0,90.0,1.0,0.0
11772,75.0,48.0,60.0,0.0,0.0
11773,73.0,96.0,60.0,0.0,0.0
11774,81.0,30.0,150.0,8.0,0.0
11775,66.0,48.0,90.0,1.0,0.0
11776,54.0,0.0,150.0,12.0,0.0
11777,81.0,0.0,90.0,0.0,0.0
11778,66.0,0.0,150.0,11.0,0.0
11779,73.0,0.0,150.0,10.0,0.0
11780,80.0,18.0,60.0,0.0,0.0
11781,63.0,48.0,90.0,1.0,0.0
11782,78.0,0.0,60.0,0.0,0.0
11783,76.0,48.0,60.0,0.0,0.0
11784,66.0,48.0,90.0,1.0,0.0
11785,75.0,0.0,60.0,0.0,0.0
11786,64.0,48.0,60.0,1.0,0.0
11787,76.0,0.0,150.0,10.0,0.0
11788,49.0,0.0,150.0,12.0,0.0
11789,85.0,30.0,150.0,8.0,0.0
11790,80.0,48.0,90.0,0.0,0.0
11791,68.0,0.0,150.0,11.0,0.0
11792,60.0,0.0,60.0,1.0,0.0
11793,61.0,0.0,60.0,1.0,0.0
11794,78.0,18.0,60.0,0.0,0.0
11795,63.0,0.0,60.0,1.0,0.0
11796,76.0,48.0,60.0,0.0,0.0
11797,75.0,48.0,60.0,0.0,0.0
11798,64.0,0.0,60.0,1.0,0.0
11799,73.0,0.0,60.0,0.0,0.0
11800,66.0,48.0,60.0,1.0,0.0
11801,68.0,48.0,90.0,1.0,0.0
11802,84.0,0.0,90.0,8.0,0.0
11803,56.0,30.0,270.0,12.0,0.0
11804,75.0,30.0,150.0,10.0,0.0
11805,68.0,0.0,150.0,11.0,0.0
11806,84.0,48.0,60.0,0.0,0.0
11807,85.0,0.0,60.0,0.0,0.0
11808,82.0,0.0,60.0,0.0,0.0
11809,82.0,0.0,90.0,8.0,0.0
11810,66.0,18.0,60.0,1.0,0.0
11811,84.0,48.0,60.0,0.0,0.0
11812,64.0,0.0,60.0,1.0,0.0
11813,63.0,18.0,60.0,1.0,0.0
11814,80.0,0.0,90.0,0.0,0.0
11815,80.0,48.0,90.0,8.0,0.0
11816,61.0,0.0,60.0,1.0,0.0
11817,60.0,48.0,60.0,1.0,0.0
11818,44.0,0.0,90.0,12.0,0.0
11819,58.0,48.0,60.0,1.0,0.0
11820,56.0,0.0,60.0,1.0,0.0
11821,56.0,48.0,60.0,12.0,0.0
11822,54.0,0.0,60.0,1.0,0.0
11823,54.0,48.0,60.0,12.0,0.0
11824,53.0,0.0,60.0,1.0,0.0
11825,53.0,48.0,60.0,12.0,0.0
11826,51.0,0.0,60.0,12.0,0.0
11827,51.0,48.0,60.0,1.0,0.0
11828,80.0,48.0,60.0,0.0,0.0
11829,49.0,30.0,150.0,12.0,0.0
11830,49.0,48.0,90.0,1.0,0.0
11831,77.0,0.0,60.0,0.0,0.0
11832,53.0,48.0,90.0,1.0,0.0
11833,73.0,18.0,60.0,0.0,0.0
11834,80.0,0.0,60.0,0.0,0.0
11835,77.0,48.0,60.0,0.0,0.0
11836,56.0,0.0,90.0,1.0,0.0
11837,73.0,48.0,60.0,0.0,0.0
11838,53.0,48.0,90.0,1.0,0.0
11839,80.0,48.0,60.0,0.0,0.0
11840,53.0,30.0,150.0,12.0,0.0
11841,80.0,30.0,270.0,10.0,0.0
11842,77.0,0.0,60.0,0.0,0.0
11843,73.0,18.0,60.0,0.0,0.0
11844,56.0,0.0,90.0,1.0,0.0
11845,80.0,48.0,60.0,0.0,0.0
11846,77.0,18.0,60.0,0.0,0.0
11847,61.0,2.0,90.0,1.0,0.0
11848,73.0,0.0,60.0,0.0,0.0
11849,73.0,46.0,15.0,11.0,0.0
11850,81.0,46.0,1110.0,10.0,0.0
11851,54.0,48.0,90.0,1.0,0.0
11852,54.0,30.0,150.0,12.0,0.0
11853,81.0,48.0,60.0,0.0,0.0
11854,78.0,0.0,60.0,0.0,0.0
11855,73.0,18.0,60.0,0.0,0.0
11856,57.0,48.0,90.0,1.0,0.0
11857,81.0,0.0,60.0,0.0,0.0
11858,61.0,48.0,90.0,1.0,0.0
11859,78.0,48.0,60.0,0.0,0.0
11860,73.0,0.0,60.0,0.0,0.0
11861,81.0,48.0,60.0,0.0,0.0
11862,85.0,30.0,270.0,8.0,0.0
11863,42.0,30.0,150.0,12.0,0.0
11864,66.0,0.0,90.0,1.0,0.0
11865,78.0,48.0,60.0,0.0,0.0
11866,54.0,0.0,60.0,1.0,0.0
11867,73.0,18.0,60.0,0.0,0.0
11868,52.0,0.0,60.0,1.0,0.0
11869,81.0,48.0,60.0,0.0,0.0
11870,78.0,2.0,60.0,0.0,0.0
11871,51.0,0.0,60.0,1.0,0.0
11872,49.0,0.0,60.0,1.0,0.0
11873,73.0,48.0,60.0,0.0,0.0
11874,47.0,48.0,90.0,1.0,0.0
11875,71.0,46.0,570.0,11.0,0.0
11876,81.0,48.0,60.0,0.0,0.0
11877,47.0,30.0,150.0,12.0,0.0
11878,87.0,46.0,1110.0,8.0,0.0
11879,75.0,0.0,60.0,0.0,0.0
11880,71.0,18.0,60.0,0.0,0.0
11881,51.0,0.0,90.0,1.0,0.0
11882,81.0,48.0,60.0,0.0,0.0
11883,54.0,48.0,90.0,1.0,0.0
11884,75.0,48.0,60.0,0.0,0.0
11885,71.0,0.0,60.0,0.0,0.0
11886,51.0,48.0,90.0,1.0,0.0
11887,51.0,30.0,150.0,12.0,0.0
11888,81.0,48.0,60.0,0.0,0.0
11889,75.0,0.0,60.0,0.0,0.0
11890,71.0,18.0,60.0,0.0,0.0
11891,54.0,0.0,90.0,1.0,0.0
11892,81.0,48.0,60.0,0.0,0.0
11893,75.0,2.0,60.0,0.0,0.0
11894,59.0,2.0,90.0,1.0,0.0
11895,71.0,0.0,60.0,0.0,0.0
11896,80.0,48.0,60.0,0.0,0.0
11897,52.0,48.0,90.0,1.0,0.0
11898,52.0,30.0,150.0,12.0,0.0
11899,80.0,46.0,1110.0,10.0,0.0
11900,71.0,0.0,540.0,11.0,0.0
11901,76.0,0.0,60.0,0.0,0.0
11902,56.0,48.0,90.0,1.0,0.0
11903,71.0,18.0,60.0,0.0,0.0
11904,80.0,0.0,60.0,0.0,0.0
11905,59.0,0.0,90.0,1.0,0.0
11906,76.0,48.0,60.0,0.0,0.0
11907,71.0,48.0,60.0,0.0,0.0
11908,64.0,0.0,90.0,1.0,0.0
11909,80.0,48.0,60.0,0.0,0.0
11910,40.0,30.0,150.0,12.0,0.0
11911,76.0,48.0,60.0,0.0,0.0
11912,52.0,18.0,60.0,1.0,0.0
11913,71.0,0.0,60.0,0.0,0.0
11914,80.0,0.0,60.0,0.0,0.0
11915,51.0,48.0,60.0,1.0,0.0
11916,76.0,0.0,60.0,0.0,0.0
11917,49.0,2.0,60.0,1.0,0.0
11918,71.0,0.0,60.0,0.0,0.0
11919,47.0,48.0,60.0,1.0,0.0
11920,46.0,30.0,150.0,12.0,0.0
11921,46.0,48.0,90.0,1.0,0.0
11922,85.0,46.0,1110.0,8.0,0.0
11923,85.0,48.0,60.0,0.0,0.0
11924,80.0,0.0,60.0,0.0,0.0
11925,49.0,48.0,90.0,1.0,0.0
11926,76.0,18.0,60.0,0.0,0.0
11927,85.0,0.0,60.0,0.0,0.0
11928,80.0,48.0,60.0,0.0,0.0
11929,52.0,48.0,90.0,1.0,0.0
11930,76.0,0.0,60.0,0.0,0.0
11931,49.0,30.0,150.0,12.0,0.0
11932,85.0,48.0,60.0,0.0,0.0
11933,49.0,0.0,90.0,1.0,0.0
11934,80.0,48.0,60.0,0.0,0.0
11935,52.0,48.0,90.0,1.0,0.0
11936,76.0,18.0,60.0,0.0,0.0
11937,85.0,0.0,60.0,0.0,0.0
11938,58.0,0.0,90.0,1.0,0.0
11939,80.0,2.0,60.0,0.0,0.0
11940,76.0,2.0,60.0,0.0,0.0
11941,70.0,46.0,15.0,11.0,0.0
11942,51.0,48.0,90.0,1.0,0.0
11943,51.0,30.0,150.0,12.0,0.0
11944,85.0,48.0,60.0,0.0,0.0
11945,79.0,0.0,540.0,10.0,0.0
11946,79.0,0.0,60.0,0.0,0.0
11947,75.0,18.0,60.0,0.0,0.0
11948,55.0,48.0,90.0,1.0,0.0
11949,85.0,0.0,60.0,0.0,0.0
11950,79.0,48.0,60.0,0.0,0.0
11951,58.0,0.0,90.0,1.0,0.0
11952,75.0,48.0,60.0,0.0,0.0
11953,63.0,0.0,90.0,1.0,0.0
11954,63.0,30.0,150.0,12.0,0.0
11955,85.0,48.0,60.0,0.0,0.0
11956,79.0,48.0,60.0,0.0,0.0
11957,75.0,18.0,60.0,0.0,0.0
11958,51.0,0.0,60.0,1.0,0.0
11959,49.0,0.0,60.0,1.0,0.0
11960,85.0,48.0,60.0,0.0,0.0
11961,47.0,0.0,60.0,1.0,0.0
11962,79.0,2.0,60.0,0.0,0.0
11963,75.0,0.0,60.0,0.0,0.0
11964,46.0,48.0,60.0,1.0,0.0
11965,71.0,30.0,270.0,11.0,0.0
11966,80.0,46.0,1110.0,10.0,0.0
11967,44.0,48.0,90.0,1.0,0.0
11968,83.0,16.0,540.0,8.0,0.0
11969,56.0,30.0,150.0,12.0,0.0
11970,83.0,48.0,60.0,0.0,0.0
11971,80.0,0.0,60.0,0.0,0.0
11972,47.0,0.0,90.0,1.0,0.0
11973,75.0,18.0,60.0,0.0,0.0
11974,83.0,48.0,60.0,0.0,0.0
11975,51.0,0.0,90.0,1.0,0.0
11976,80.0,18.0,60.0,0.0,0.0
11977,75.0,48.0,60.0,0.0,0.0
11978,59.0,30.0,150.0,12.0,0.0
11979,75.0,30.0,270.0,11.0,0.0
11980,83.0,0.0,60.0,0.0,0.0
11981,56.0,48.0,60.0,1.0,0.0
11982,80.0,0.0,60.0,0.0,0.0
11983,58.0,48.0,60.0,1.0,0.0
11984,75.0,18.0,60.0,0.0,0.0
11985,59.0,0.0,60.0,1.0,0.0
11986,56.0,0.0,60.0,1.0,0.0
11987,83.0,48.0,60.0,0.0,0.0
11988,80.0,2.0,60.0,0.0,0.0
11989,58.0,0.0,60.0,1.0,0.0
11990,75.0,0.0,60.0,0.0,0.0
11991,59.0,48.0,60.0,1.0,0.0
11992,76.0,30.0,270.0,11.0,0.0
11993,61.0,30.0,150.0,12.0,0.0
11994,82.0,48.0,60.0,0.0,0.0
11995,82.0,16.0,1110.0,8.0,0.0
11996,49.0,48.0,90.0,1.0,0.0
11997,80.0,0.0,60.0,0.0,0.0
11998,76.0,18.0,60.0,0.0,0.0
11999,52.0,0.0,90.0,1.0,0.0
12000,82.0,48.0,60.0,0.0,0.0
12001,56.0,0.0,90.0,1.0,0.0
12002,80.0,18.0,60.0,0.0,0.0
12003,76.0,48.0,60.0,0.0,0.0
12004,61.0,0.0,60.0,1.0,0.0
12005,82.0,48.0,60.0,0.0,0.0
12006,64.0,30.0,150.0,12.0,0.0
12007,73.0,30.0,540.0,11.0,0.0
12008,59.0,48.0,60.0,1.0,0.0
12009,80.0,0.0,60.0,0.0,0.0
12010,61.0,0.0,60.0,1.0,0.0
12011,76.0,18.0,60.0,0.0,0.0
12012,82.0,0.0,60.0,0.0,0.0
12013,63.0,48.0,60.0,1.0,0.0
12014,64.0,0.0,60.0,1.0,0.0
12015,80.0,2.0,60.0,0.0,0.0
12016,76.0,48.0,60.0,0.0,0.0
12017,61.0,0.0,60.0,1.0,0.0
12018,63.0,30.0,150.0,12.0,0.0
12019,79.0,0.0,540.0,10.0,0.0
12020,63.0,48.0,90.0,1.0,0.0
12021,82.0,48.0,60.0,0.0,0.0
12022,79.0,0.0,60.0,0.0,0.0
12023,75.0,18.0,60.0,0.0,0.0
12024,61.0,0.0,60.0,1.0,0.0
12025,82.0,0.0,60.0,0.0,0.0
12026,59.0,48.0,60.0,1.0,0.0
12027,58.0,0.0,60.0,1.0,0.0
12028,79.0,18.0,60.0,0.0,0.0
12029,59.0,48.0,60.0,1.0,0.0
12030,75.0,0.0,60.0,0.0,0.0
12031,61.0,0.0,90.0,1.0,0.0
12032,70.0,30.0,270.0,11.0,0.0
12033,51.0,30.0,150.0,12.0,0.0
12034,82.0,48.0,60.0,0.0,0.0
12035,79.0,48.0,60.0,0.0,0.0
12036,75.0,18.0,60.0,0.0,0.0
12037,63.0,48.0,90.0,1.0,0.0
12038,82.0,0.0,60.0,0.0,0.0
12039,79.0,2.0,60.0,0.0,0.0
12040,51.0,48.0,90.0,1.0,0.0
12041,75.0,0.0,60.0,0.0,0.0
12042,80.0,0.0,90.0,0.0,0.0
12043,80.0,0.0,90.0,8.0,0.0
12044,56.0,48.0,90.0,12.0,0.0
12045,56.0,48.0,60.0,1.0,0.0
12046,80.0,0.0,90.0,10.0,0.0
12047,72.0,0.0,90.0,11.0,0.0
12048,60.0,0.0,60.0,1.0,0.0
12049,61.0,48.0,60.0,1.0,0.0
12050,68.0,0.0,90.0,8.0,0.0
12051,56.0,0.0,90.0,12.0,0.0
12052,68.0,48.0,90.0,0.0,0.0
12053,63.0,0.0,60.0,1.0,0.0
12054,56.0,0.0,90.0,12.0,0.0
12055,73.0,0.0,90.0,2.0,0.0
12056,80.0,48.0,90.0,0.0,0.0
12057,68.0,0.0,90.0,11.0,0.0
12058,61.0,0.0,90.0,3.0,0.0
12059,68.0,0.0,90.0,10.0,0.0
12060,56.0,0.0,90.0,5.0,0.0
12061,73.0,0.0,90.0,6.0,0.0
12062,56.0,0.0,90.0,7.0,0.0
12063,64.0,48.0,60.0,1.0,0.0
12064,80.0,0.0,90.0,8.0,0.0
12065,76.0,0.0,90.0,4.0,0.0
12066,66.0,0.0,60.0,1.0,0.0
12067,75.0,48.0,90.0,2.0,0.0
12068,56.0,0.0,90.0,12.0,0.0
12069,72.0,0.0,90.0,6.0,0.0
12070,75.0,0.0,90.0,4.0,0.0
12071,60.0,0.0,90.0,3.0,0.0
12072,78.0,48.0,60.0,0.0,0.0
12073,78.0,0.0,60.0,8.0,0.0
12074,44.0,30.0,150.0,7.0,0.0
12075,56.0,0.0,90.0,5.0,0.0
12076,75.0,0.0,60.0,10.0,0.0
12077,68.0,0.0,90.0,1.0,0.0
12078,60.0,0.0,90.0,11.0,0.0
12079,73.0,0.0,60.0,10.0,0.0
12080,76.0,0.0,60.0,0.0,0.0
12081,76.0,0.0,60.0,8.0,0.0
12082,68.0,48.0,90.0,3.0,0.0
12083,75.0,0.0,90.0,2.0,0.0
12084,78.0,18.0,60.0,8.0,0.0
12085,44.0,0.0,90.0,5.0,0.0
12086,75.0,0.0,90.0,10.0,0.0
12087,68.0,0.0,90.0,11.0,0.0
12088,56.0,0.0,90.0,12.0,0.0
12089,78.0,0.0,60.0,0.0,0.0
12090,80.0,0.0,90.0,4.0,0.0
12091,60.0,0.0,90.0,1.0,0.0
12092,80.0,0.0,60.0,0.0,0.0
12093,75.0,0.0,60.0,6.0,0.0
12094,80.0,0.0,60.0,8.0,0.0
12095,75.0,0.0,90.0,10.0,0.0
12096,68.0,0.0,90.0,1.0,0.0
12097,60.0,0.0,90.0,11.0,0.0
12098,75.0,0.0,90.0,2.0,0.0
12099,60.0,0.0,90.0,3.0,0.0
12100,78.0,48.0,90.0,8.0,0.0
12101,56.0,0.0,90.0,5.0,0.0
12102,56.0,0.0,90.0,12.0,0.0
12103,56.0,0.0,90.0,7.0,0.0
12104,78.0,0.0,90.0,0.0,0.0
12105,78.0,48.0,60.0,6.0,0.0
12106,75.0,0.0,60.0,6.0,0.0
12107,73.0,0.0,90.0,4.0,0.0
12108,76.0,0.0,60.0,0.0,0.0
12109,61.0,0.0,90.0,11.0,0.0
12110,56.0,0.0,90.0,12.0,0.0
12111,76.0,48.0,60.0,8.0,0.0
12112,61.0,0.0,90.0,3.0,0.0
12113,68.0,0.0,90.0,6.0,0.0
12114,44.0,30.0,150.0,7.0,0.0
12115,68.0,0.0,90.0,1.0,0.0
12116,73.0,0.0,60.0,10.0,0.0
12117,73.0,0.0,90.0,2.0,0.0
12118,56.0,0.0,90.0,5.0,0.0
12119,72.0,48.0,60.0,10.0,0.0
12120,75.0,0.0,60.0,0.0,0.0
12121,75.0,0.0,60.0,8.0,0.0
12122,80.0,0.0,90.0,4.0,0.0
12123,73.0,0.0,90.0,10.0,0.0
12124,56.0,0.0,90.0,12.0,0.0
12125,68.0,0.0,90.0,3.0,0.0
12126,61.0,0.0,90.0,1.0,0.0
12127,76.0,18.0,60.0,0.0,0.0
12128,68.0,0.0,90.0,11.0,0.0
12129,73.0,0.0,90.0,2.0,0.0
12130,44.0,48.0,90.0,5.0,0.0
12131,76.0,0.0,60.0,8.0,0.0
12132,73.0,0.0,60.0,6.0,0.0
12133,78.0,0.0,60.0,8.0,0.0
12134,78.0,0.0,60.0,0.0,0.0
12135,68.0,0.0,90.0,1.0,0.0
12136,61.0,0.0,90.0,11.0,0.0
12137,76.0,0.0,90.0,0.0,0.0
12138,56.0,0.0,90.0,12.0,0.0
12139,73.0,0.0,90.0,10.0,0.0
12140,61.0,48.0,90.0,3.0,0.0
12141,56.0,0.0,90.0,7.0,0.0
12142,56.0,0.0,90.0,5.0,0.0
12143,76.0,0.0,90.0,8.0,0.0
12144,76.0,48.0,60.0,6.0,0.0
12145,73.0,0.0,90.0,2.0,0.0
12146,73.0,0.0,60.0,6.0,0.0
12147,68.0,0.0,90.0,1.0,0.0
12148,75.0,0.0,60.0,8.0,0.0
12149,68.0,48.0,90.0,6.0,0.0
12150,72.0,48.0,60.0,10.0,0.0
12151,44.0,30.0,150.0,7.0,0.0
12152,72.0,0.0,90.0,2.0,0.0
12153,72.0,0.0,90.0,4.0,0.0
12154,56.0,0.0,90.0,12.0,0.0
12155,63.0,0.0,90.0,3.0,0.0
12156,75.0,0.0,60.0,0.0,0.0
12157,56.0,0.0,90.0,5.0,0.0
12158,63.0,0.0,90.0,11.0,0.0
12159,70.0,0.0,60.0,10.0,0.0
12160,73.0,0.0,60.0,8.0,0.0
12161,73.0,0.0,60.0,0.0,0.0
12162,75.0,18.0,60.0,8.0,0.0
12163,75.0,0.0,60.0,0.0,0.0
12164,60.0,0.0,90.0,1.0,0.0
12165,68.0,0.0,90.0,11.0,0.0
12166,68.0,0.0,90.0,3.0,0.0
12167,56.0,0.0,90.0,12.0,0.0
12168,80.0,0.0,90.0,4.0,0.0
12169,72.0,0.0,90.0,2.0,0.0
12170,44.0,0.0,90.0,5.0,0.0
12171,72.0,0.0,90.0,10.0,0.0
12172,72.0,48.0,60.0,6.0,0.0
12173,76.0,0.0,60.0,8.0,0.0
12174,76.0,0.0,60.0,0.0,0.0
12175,63.0,0.0,90.0,3.0,0.0
12176,72.0,0.0,90.0,10.0,0.0
12177,75.0,48.0,90.0,8.0,0.0
12178,56.0,0.0,90.0,7.0,0.0
12179,75.0,0.0,90.0,0.0,0.0
12180,56.0,0.0,90.0,5.0,0.0
12181,72.0,0.0,90.0,2.0,0.0
12182,63.0,0.0,90.0,11.0,0.0
12183,68.0,0.0,90.0,1.0,0.0
12184,75.0,48.0,60.0,6.0,0.0
12185,56.0,0.0,90.0,12.0,0.0
12186,72.0,0.0,60.0,6.0,0.0
12187,76.0,0.0,60.0,0.0,0.0
12188,68.0,0.0,90.0,1.0,0.0
12189,56.0,0.0,90.0,5.0,0.0
12190,61.0,0.0,90.0,11.0,0.0
12191,73.0,0.0,60.0,10.0,0.0
12192,76.0,48.0,60.0,8.0,0.0
12193,61.0,0.0,90.0,3.0,0.0
12194,68.0,0.0,90.0,6.0,0.0
12195,73.0,0.0,90.0,4.0,0.0
12196,56.0,48.0,90.0,12.0,0.0
12197,73.0,0.0,90.0,2.0,0.0
12198,44.0,30.0,150.0,7.0,0.0
12199,72.0,0.0,60.0,10.0,0.0
12200,75.0,0.0,60.0,0.0,0.0
12201,75.0,0.0,60.0,8.0,0.0
12202,68.0,0.0,90.0,3.0,0.0
12203,80.0,0.0,90.0,4.0,0.0
12204,73.0,0.0,90.0,2.0,0.0
12205,44.0,0.0,90.0,5.0,0.0
12206,56.0,48.0,90.0,12.0,0.0
12207,73.0,0.0,90.0,10.0,0.0
12208,76.0,0.0,60.0,0.0,0.0
12209,61.0,0.0,90.0,1.0,0.0
12210,68.0,0.0,90.0,11.0,0.0
12211,76.0,18.0,60.0,8.0,0.0
12212,78.0,0.0,60.0,0.0,0.0
12213,78.0,0.0,60.0,8.0,0.0
12214,73.0,0.0,60.0,6.0,0.0
12215,76.0,0.0,90.0,8.0,0.0
12216,76.0,0.0,90.0,0.0,0.0
12217,61.0,0.0,90.0,11.0,0.0
12218,56.0,0.0,90.0,5.0,0.0
12219,61.0,0.0,90.0,3.0,0.0
12220,68.0,0.0,90.0,1.0,0.0
12221,56.0,0.0,90.0,7.0,0.0
12222,76.0,48.0,60.0,6.0,0.0
12223,56.0,0.0,90.0,12.0,0.0
12224,73.0,48.0,90.0,2.0,0.0
12225,73.0,0.0,90.0,10.0,0.0
12226,73.0,0.0,60.0,6.0,0.0
12227,78.0,0.0,60.0,8.0,0.0
12228,75.0,0.0,90.0,4.0,0.0
12229,60.0,0.0,90.0,11.0,0.0
12230,75.0,48.0,60.0,10.0,0.0
12231,75.0,0.0,90.0,2.0,0.0
12232,44.0,30.0,150.0,7.0,0.0
12233,56.0,0.0,90.0,12.0,0.0
12234,68.0,0.0,90.0,6.0,0.0
12235,60.0,0.0,90.0,3.0,0.0
12236,68.0,48.0,90.0,1.0,0.0
12237,56.0,0.0,90.0,5.0,0.0
12238,78.0,0.0,60.0,0.0,0.0
12239,76.0,0.0,60.0,0.0,0.0
12240,73.0,0.0,60.0,10.0,0.0
12241,76.0,0.0,60.0,8.0,0.0
12242,68.0,0.0,90.0,11.0,0.0
12243,68.0,0.0,90.0,3.0,0.0
12244,44.0,0.0,90.0,5.0,0.0
12245,75.0,0.0,90.0,10.0,0.0
12246,75.0,0.0,90.0,2.0,0.0
12247,60.0,48.0,90.0,1.0,0.0
12248,80.0,0.0,90.0,4.0,0.0
12249,78.0,18.0,60.0,0.0,0.0
12250,78.0,0.0,60.0,8.0,0.0
12251,56.0,0.0,90.0,12.0,0.0
12252,80.0,0.0,60.0,0.0,0.0
12253,80.0,0.0,60.0,8.0,0.0
12254,75.0,0.0,60.0,6.0,0.0
12255,60.0,0.0,90.0,3.0,0.0
12256,56.0,0.0,90.0,5.0,0.0
12257,56.0,0.0,90.0,7.0,0.0
12258,78.0,48.0,60.0,6.0,0.0
12259,60.0,0.0,90.0,11.0,0.0
12260,68.0,0.0,90.0,1.0,0.0
12261,75.0,48.0,90.0,2.0,0.0
12262,78.0,0.0,90.0,0.0,0.0
12263,75.0,0.0,90.0,10.0,0.0
12264,56.0,0.0,90.0,12.0,0.0
12265,78.0,0.0,90.0,8.0,0.0
12266,75.0,0.0,60.0,6.0,0.0
12267,44.0,30.0,150.0,7.0,0.0
12268,76.0,0.0,60.0,8.0,0.0
12269,73.0,48.0,60.0,10.0,0.0
12270,56.0,0.0,90.0,12.0,0.0
12271,61.0,0.0,90.0,3.0,0.0
12272,56.0,0.0,90.0,5.0,0.0
12273,68.0,0.0,90.0,6.0,0.0
12274,61.0,0.0,90.0,11.0,0.0
12275,73.0,0.0,90.0,2.0,0.0
12276,73.0,0.0,90.0,4.0,0.0
12277,76.0,0.0,60.0,0.0,0.0
12278,68.0,0.0,90.0,1.0,0.0
12279,72.0,0.0,60.0,10.0,0.0
12280,75.0,0.0,60.0,0.0,0.0
12281,75.0,48.0,60.0,8.0,0.0
12282,44.0,0.0,90.0,5.0,0.0
12283,68.0,0.0,90.0,3.0,0.0
12284,68.0,0.0,90.0,11.0,0.0
12285,80.0,0.0,90.0,4.0,0.0
12286,61.0,0.0,90.0,1.0,0.0
12287,73.0,0.0,90.0,2.0,0.0
12288,76.0,18.0,60.0,8.0,0.0
12289,56.0,0.0,90.0,12.0,0.0
12290,76.0,0.0,60.0,0.0,0.0
12291,73.0,0.0,90.0,10.0,0.0
12292,78.0,0.0,60.0,0.0,0.0
12293,78.0,48.0,60.0,8.0,0.0
12294,73.0,0.0,60.0,6.0,0.0
12295,56.0,0.0,90.0,7.0,0.0
12296,73.0,0.0,90.0,10.0,0.0
12297,68.0,0.0,90.0,1.0,0.0
12298,56.0,48.0,90.0,5.0,0.0
12299,56.0,0.0,90.0,12.0,0.0
12300,76.0,48.0,60.0,6.0,0.0
12301,61.0,0.0,90.0,3.0,0.0
12302,76.0,0.0,90.0,0.0,0.0
12303,61.0,0.0,90.0,11.0,0.0
12304,73.0,0.0,90.0,2.0,0.0
12305,76.0,0.0,90.0,8.0,0.0
12306,73.0,0.0,60.0,6.0,0.0
12307,72.0,0.0,150.0,2.0,0.0
12308,56.0,48.0,90.0,5.0,0.0
12309,72.0,30.0,150.0,10.0,0.0
12310,75.0,0.0,150.0,8.0,0.0
12311,72.0,0.0,150.0,6.0,0.0
12312,68.0,0.0,60.0,1.0,0.0
12313,68.0,0.0,150.0,11.0,0.0
12314,56.0,0.0,150.0,12.0,0.0
12315,63.0,0.0,150.0,3.0,0.0
12316,75.0,0.0,150.0,0.0,0.0
12317,44.0,0.0,150.0,7.0,0.0
12318,75.0,48.0,60.0,4.0,0.0
12319,80.0,0.0,60.0,4.0,0.0
12320,60.0,0.0,60.0,1.0,0.0
12321,78.0,18.0,60.0,4.0,0.0
12322,58.0,0.0,60.0,1.0,0.0
12323,44.0,0.0,90.0,5.0,0.0
12324,60.0,0.0,60.0,1.0,0.0
12325,80.0,48.0,60.0,4.0,0.0
12326,56.0,48.0,90.0,5.0,0.0
12327,75.0,48.0,60.0,4.0,0.0
12328,56.0,0.0,60.0,1.0,0.0
12329,60.0,0.0,60.0,1.0,0.0
12330,80.0,0.0,60.0,4.0,0.0
12331,56.0,48.0,90.0,5.0,0.0
12332,84.0,0.0,60.0,4.0,0.0
12333,56.0,30.0,150.0,12.0,0.0
12334,63.0,48.0,60.0,1.0,0.0
12335,75.0,0.0,90.0,0.0,0.0
12336,60.0,0.0,60.0,1.0,0.0
12337,80.0,0.0,60.0,4.0,0.0
12338,44.0,0.0,90.0,5.0,0.0
12339,78.0,0.0,60.0,4.0,0.0
12340,80.0,0.0,90.0,0.0,0.0
12341,58.0,18.0,60.0,1.0,0.0
12342,80.0,0.0,60.0,4.0,0.0
12343,60.0,48.0,60.0,1.0,0.0
12344,56.0,0.0,90.0,5.0,0.0
12345,75.0,0.0,60.0,4.0,0.0
12346,84.0,0.0,90.0,0.0,0.0
12347,56.0,48.0,60.0,1.0,0.0
12348,60.0,48.0,60.0,1.0,0.0
12349,80.0,0.0,60.0,4.0,0.0
12350,63.0,48.0,60.0,1.0,0.0
12351,56.0,0.0,90.0,5.0,0.0
12352,75.0,0.0,90.0,0.0,0.0
12353,44.0,30.0,150.0,12.0,0.0
12354,84.0,0.0,60.0,4.0,0.0
12355,80.0,48.0,60.0,4.0,0.0
12356,60.0,0.0,60.0,1.0,0.0
12357,58.0,18.0,60.0,1.0,0.0
12358,78.0,0.0,60.0,4.0,0.0
12359,44.0,0.0,90.0,5.0,0.0
12360,80.0,48.0,90.0,0.0,0.0
12361,60.0,0.0,60.0,1.0,0.0
12362,80.0,0.0,60.0,4.0,0.0
12363,75.0,0.0,60.0,4.0,0.0
12364,84.0,48.0,90.0,0.0,0.0
12365,56.0,0.0,90.0,5.0,0.0
12366,56.0,48.0,60.0,1.0,0.0
12367,80.0,0.0,60.0,4.0,0.0
12368,60.0,0.0,60.0,1.0,0.0
12369,63.0,0.0,60.0,1.0,0.0
12370,56.0,0.0,90.0,5.0,0.0
12371,84.0,48.0,60.0,4.0,0.0
12372,56.0,30.0,150.0,12.0,0.0
12373,75.0,0.0,90.0,0.0,0.0
12374,60.0,48.0,60.0,1.0,0.0
12375,80.0,0.0,60.0,4.0,0.0
12376,80.0,0.0,90.0,0.0,0.0
12377,58.0,0.0,60.0,1.0,0.0
12378,44.0,0.0,90.0,5.0,0.0
12379,78.0,18.0,60.0,4.0,0.0
12380,80.0,0.0,60.0,4.0,0.0
12381,60.0,48.0,60.0,1.0,0.0
12382,84.0,0.0,90.0,0.0,0.0
12383,56.0,48.0,60.0,1.0,0.0
12384,80.0,0.0,90.0,10.0,0.0
12385,75.0,0.0,90.0,11.0,0.0
12386,75.0,0.0,60.0,4.0,0.0
12387,84.0,0.0,90.0,8.0,0.0
12388,56.0,0.0,90.0,5.0,0.0
12389,44.0,0.0,90.0,12.0,0.0
12390,80.0,0.0,60.0,4.0,0.0
12391,60.0,96.0,60.0,1.0,0.0
12392,61.0,0.0,90.0,3.0,0.0
12393,49.0,0.0,150.0,5.0,0.0
12394,49.0,0.0,150.0,1.0,0.0
12395,80.0,0.0,150.0,10.0,0.0
12396,77.0,0.0,150.0,11.0,0.0
12397,85.0,0.0,150.0,8.0,0.0
12398,49.0,0.0,150.0,12.0,0.0
12399,85.0,48.0,90.0,0.0,0.0
12400,77.0,30.0,150.0,4.0,0.0
12401,73.0,0.0,60.0,2.0,0.0
12402,65.0,0.0,60.0,7.0,0.0
12403,49.0,0.0,90.0,3.0,0.0
12404,71.0,0.0,60.0,2.0,0.0
12405,73.0,48.0,90.0,0.0,0.0
12406,63.0,18.0,60.0,7.0,0.0
12407,73.0,0.0,60.0,2.0,0.0
12408,65.0,0.0,60.0,7.0,0.0
12409,68.0,0.0,60.0,2.0,0.0
12410,61.0,0.0,90.0,3.0,0.0
12411,61.0,48.0,60.0,7.0,0.0
12412,65.0,48.0,60.0,7.0,0.0
12413,73.0,0.0,60.0,2.0,0.0
12414,68.0,0.0,90.0,6.0,0.0
12415,68.0,0.0,60.0,7.0,0.0
12416,77.0,48.0,60.0,2.0,0.0
12417,61.0,48.0,90.0,3.0,0.0
12418,61.0,30.0,150.0,12.0,0.0
12419,73.0,0.0,60.0,2.0,0.0
12420,65.0,0.0,60.0,7.0,0.0
12421,63.0,0.0,60.0,7.0,0.0
12422,71.0,18.0,60.0,2.0,0.0
12423,73.0,48.0,90.0,6.0,0.0
12424,49.0,0.0,90.0,3.0,0.0
12425,73.0,0.0,60.0,2.0,0.0
12426,65.0,0.0,60.0,7.0,0.0
12427,61.0,0.0,90.0,3.0,0.0
12428,61.0,48.0,60.0,7.0,0.0
12429,68.0,0.0,60.0,2.0,0.0
12430,77.0,0.0,90.0,6.0,0.0
12431,73.0,0.0,60.0,2.0,0.0
12432,65.0,48.0,60.0,7.0,0.0
12433,68.0,0.0,60.0,7.0,0.0
12434,49.0,30.0,150.0,12.0,0.0
12435,68.0,0.0,90.0,6.0,0.0
12436,77.0,48.0,60.0,2.0,0.0
12437,61.0,0.0,90.0,3.0,0.0
12438,73.0,48.0,60.0,2.0,0.0
12439,65.0,0.0,60.0,7.0,0.0
12440,71.0,0.0,60.0,2.0,0.0
12441,63.0,18.0,60.0,7.0,0.0
12442,73.0,0.0,90.0,6.0,0.0
12443,49.0,0.0,90.0,3.0,0.0
12444,73.0,0.0,60.0,2.0,0.0
12445,65.0,48.0,60.0,7.0,0.0
12446,68.0,48.0,60.0,2.0,0.0
12447,61.0,0.0,60.0,7.0,0.0
12448,77.0,0.0,90.0,6.0,0.0
12449,61.0,0.0,90.0,3.0,0.0
12450,73.0,0.0,60.0,2.0,0.0
12451,65.0,48.0,60.0,7.0,0.0
12452,68.0,0.0,90.0,6.0,0.0
12453,61.0,30.0,150.0,12.0,0.0
12454,61.0,48.0,90.0,3.0,0.0
12455,77.0,0.0,60.0,2.0,0.0
12456,68.0,48.0,60.0,7.0,0.0
12457,65.0,0.0,60.0,7.0,0.0
12458,73.0,0.0,60.0,2.0,0.0
12459,49.0,0.0,90.0,3.0,0.0
12460,71.0,18.0,60.0,2.0,0.0
12461,73.0,0.0,90.0,6.0,0.0
12462,63.0,0.0,60.0,7.0,0.0
12463,65.0,48.0,60.0,7.0,0.0
12464,73.0,0.0,60.0,2.0,0.0
12465,77.0,0.0,90.0,8.0,0.0
12466,68.0,0.0,90.0,11.0,0.0
12467,61.0,48.0,60.0,7.0,0.0
12468,61.0,0.0,90.0,3.0,0.0
12469,49.0,0.0,90.0,12.0,0.0
12470,68.0,0.0,60.0,2.0,0.0
12471,77.0,96.0,90.0,6.0,0.0
12472,73.0,0.0,90.0,10.0,0.0
12473,73.0,0.0,60.0,2.0,0.0
12474,65.0,0.0,60.0,7.0,0.0
12475,70.0,0.0,150.0,2.0,0.0
12476,54.0,0.0,90.0,1.0,0.0
12477,78.0,0.0,90.0,6.0,0.0
12478,54.0,0.0,150.0,12.0,0.0
12479,73.0,0.0,150.0,10.0,0.0
12480,54.0,0.0,150.0,3.0,0.0
12481,70.0,0.0,150.0,11.0,0.0
12482,78.0,0.0,150.0,8.0,0.0
12483,54.0,30.0,150.0,7.0,0.0
12484,58.0,2.0,60.0,5.0,0.0
12485,78.0,46.0,60.0,0.0,0.0
12486,42.0,0.0,90.0,1.0,0.0
12487,77.0,16.0,60.0,0.0,0.0
12488,66.0,2.0,90.0,6.0,0.0
12489,56.0,2.0,60.0,5.0,0.0
12490,78.0,46.0,60.0,0.0,0.0
12491,58.0,0.0,60.0,5.0,0.0
12492,54.0,0.0,90.0,1.0,0.0
12493,54.0,2.0,60.0,5.0,0.0
12494,73.0,46.0,60.0,0.0,0.0
12495,58.0,0.0,60.0,5.0,0.0
12496,78.0,48.0,60.0,0.0,0.0
12497,54.0,0.0,90.0,1.0,0.0
12498,61.0,2.0,60.0,5.0,0.0
12499,54.0,30.0,150.0,12.0,0.0
12500,73.0,2.0,90.0,4.0,0.0
12501,82.0,46.0,60.0,0.0,0.0
12502,78.0,46.0,60.0,0.0,0.0
12503,58.0,0.0,60.0,5.0,0.0
12504,42.0,2.0,90.0,1.0,0.0
12505,77.0,16.0,60.0,0.0,0.0
12506,78.0,0.0,90.0,4.0,0.0
12507,56.0,2.0,60.0,5.0,0.0
12508,78.0,46.0,60.0,0.0,0.0
12509,58.0,0.0,60.0,5.0,0.0
12510,54.0,48.0,90.0,1.0,0.0
12511,73.0,46.0,60.0,0.0,0.0
12512,82.0,0.0,90.0,4.0,0.0
12513,54.0,2.0,60.0,5.0,0.0
12514,58.0,0.0,60.0,5.0,0.0
12515,78.0,0.0,60.0,0.0,0.0
12516,82.0,46.0,60.0,0.0,0.0
12517,61.0,2.0,60.0,5.0,0.0
12518,73.0,0.0,90.0,4.0,0.0
12519,42.0,30.0,150.0,12.0,0.0
12520,54.0,0.0,90.0,1.0,0.0
12521,58.0,2.0,60.0,5.0,0.0
12522,78.0,46.0,60.0,0.0,0.0
12523,56.0,2.0,60.0,5.0,0.0
12524,78.0,0.0,90.0,4.0,0.0
12525,77.0,16.0,60.0,0.0,0.0
12526,42.0,0.0,90.0,1.0,0.0
12527,78.0,46.0,60.0,0.0,0.0
12528,58.0,2.0,60.0,5.0,0.0
12529,54.0,0.0,90.0,1.0,0.0
12530,73.0,46.0,60.0,0.0,0.0
12531,54.0,2.0,60.0,5.0,0.0
12532,82.0,48.0,90.0,4.0,0.0
12533,78.0,0.0,60.0,0.0,0.0
12534,58.0,0.0,60.0,5.0,0.0
12535,73.0,48.0,90.0,4.0,0.0
12536,82.0,0.0,60.0,0.0,0.0
12537,61.0,48.0,60.0,5.0,0.0
12538,54.0,30.0,150.0,12.0,0.0
12539,54.0,0.0,90.0,1.0,0.0
12540,78.0,0.0,60.0,0.0,0.0
12541,58.0,0.0,60.0,5.0,0.0
12542,78.0,0.0,90.0,4.0,0.0
12543,56.0,18.0,60.0,5.0,0.0
12544,77.0,0.0,60.0,0.0,0.0
12545,42.0,0.0,90.0,1.0,0.0
12546,78.0,48.0,60.0,0.0,0.0
12547,58.0,0.0,60.0,5.0,0.0
12548,82.0,0.0,90.0,8.0,0.0
12549,54.0,48.0,60.0,5.0,0.0
12550,42.0,0.0,90.0,12.0,0.0
12551,78.0,0.0,90.0,10.0,0.0
12552,54.0,0.0,90.0,1.0,0.0
12553,73.0,0.0,60.0,0.0,0.0
12554,82.0,0.0,90.0,4.0,0.0
12555,73.0,96.0,90.0,11.0,0.0
12556,58.0,0.0,60.0,5.0,0.0
12557,78.0,0.0,60.0,0.0,0.0
12558,75.0,0.0,150.0,11.0,0.0
12559,83.0,0.0,150.0,8.0,0.0
12560,47.0,0.0,150.0,5.0,0.0
12561,47.0,0.0,150.0,12.0,0.0
12562,47.0,30.0,150.0,1.0,0.0
12563,75.0,0.0,150.0,0.0,0.0
12564,59.0,0.0,90.0,7.0,0.0
12565,78.0,0.0,150.0,10.0,0.0
12566,83.0,0.0,90.0,4.0,0.0
12567,71.0,0.0,60.0,6.0,0.0
12568,63.0,48.0,60.0,3.0,0.0
12569,78.0,48.0,90.0,4.0,0.0
12570,70.0,18.0,60.0,6.0,0.0
12571,47.0,0.0,90.0,7.0,0.0
12572,61.0,0.0,60.0,3.0,0.0
12573,71.0,0.0,60.0,6.0,0.0
12574,63.0,0.0,60.0,3.0,0.0
12575,59.0,48.0,60.0,3.0,0.0
12576,59.0,0.0,90.0,7.0,0.0
12577,66.0,0.0,60.0,6.0,0.0
12578,63.0,0.0,60.0,3.0,0.0
12579,71.0,48.0,60.0,6.0,0.0
12580,66.0,0.0,60.0,3.0,0.0
12581,75.0,48.0,60.0,6.0,0.0
12582,59.0,30.0,150.0,12.0,0.0
12583,59.0,0.0,90.0,7.0,0.0
12584,66.0,48.0,90.0,2.0,0.0
12585,63.0,0.0,60.0,3.0,0.0
12586,71.0,0.0,60.0,6.0,0.0
12587,71.0,48.0,90.0,2.0,0.0
12588,70.0,0.0,60.0,6.0,0.0
12589,47.0,0.0,90.0,7.0,0.0
12590,61.0,18.0,60.0,3.0,0.0
12591,71.0,0.0,60.0,6.0,0.0
12592,63.0,0.0,60.0,3.0,0.0
12593,66.0,48.0,60.0,6.0,0.0
12594,59.0,0.0,90.0,7.0,0.0
12595,59.0,0.0,60.0,3.0,0.0
12596,75.0,0.0,90.0,2.0,0.0
12597,71.0,0.0,60.0,6.0,0.0
12598,63.0,48.0,60.0,3.0,0.0
12599,66.0,0.0,90.0,2.0,0.0
12600,75.0,0.0,60.0,6.0,0.0
12601,59.0,0.0,90.0,7.0,0.0
12602,47.0,30.0,150.0,12.0,0.0
12603,66.0,48.0,60.0,3.0,0.0
12604,71.0,48.0,60.0,6.0,0.0
12605,63.0,0.0,60.0,3.0,0.0
12606,71.0,48.0,90.0,2.0,0.0
12607,47.0,0.0,90.0,7.0,0.0
12608,61.0,0.0,60.0,3.0,0.0
12609,70.0,18.0,60.0,6.0,0.0
12610,71.0,0.0,60.0,6.0,0.0
12611,63.0,0.0,60.0,3.0,0.0
12612,66.0,48.0,60.0,6.0,0.0
12613,59.0,0.0,90.0,7.0,0.0
12614,59.0,0.0,60.0,3.0,0.0
12615,75.0,0.0,90.0,2.0,0.0
12616,71.0,48.0,60.0,6.0,0.0
12617,63.0,0.0,60.0,3.0,0.0
12618,66.0,0.0,90.0,2.0,0.0
12619,59.0,30.0,150.0,12.0,0.0
12620,59.0,0.0,90.0,7.0,0.0
12621,66.0,48.0,60.0,3.0,0.0
12622,75.0,0.0,60.0,6.0,0.0
12623,71.0,48.0,60.0,6.0,0.0
12624,63.0,0.0,60.0,3.0,0.0
12625,47.0,0.0,90.0,7.0,0.0
12626,71.0,48.0,90.0,2.0,0.0
12627,61.0,0.0,60.0,3.0,0.0
12628,70.0,18.0,60.0,6.0,0.0
12629,71.0,0.0,60.0,6.0,0.0
12630,63.0,0.0,60.0,3.0,0.0
12631,66.0,96.0,90.0,11.0,0.0
12632,59.0,48.0,60.0,3.0,0.0
12633,47.0,0.0,90.0,12.0,0.0
12634,75.0,0.0,90.0,2.0,0.0
12635,71.0,0.0,90.0,10.0,0.0
12636,59.0,0.0,90.0,7.0,0.0
12637,66.0,0.0,60.0,6.0,0.0
12638,75.0,0.0,90.0,8.0,0.0
12639,63.0,0.0,60.0,3.0,0.0
12640,71.0,0.0,60.0,6.0,0.0
12641,52.0,0.0,150.0,3.0,0.0
12642,71.0,0.0,150.0,10.0,0.0
12643,52.0,0.0,150.0,7.0,0.0
12644,68.0,0.0,150.0,6.0,0.0
12645,52.0,30.0,150.0,12.0,0.0
12646,68.0,0.0,150.0,11.0,0.0
12647,76.0,0.0,150.0,8.0,0.0
12648,52.0,0.0,90.0,5.0,0.0
12649,76.0,0.0,90.0,2.0,0.0
12650,76.0,0.0,60.0,4.0,0.0
12651,56.0,48.0,60.0,1.0,0.0
12652,75.0,18.0,60.0,4.0,0.0
12653,71.0,48.0,90.0,2.0,0.0
12654,40.0,0.0,90.0,5.0,0.0
12655,54.0,0.0,60.0,1.0,0.0
12656,56.0,0.0,60.0,1.0,0.0
12657,76.0,0.0,60.0,4.0,0.0
12658,52.0,0.0,60.0,1.0,0.0
12659,52.0,0.0,90.0,5.0,0.0
12660,71.0,48.0,60.0,4.0,0.0
12661,76.0,0.0,60.0,4.0,0.0
12662,56.0,48.0,60.0,1.0,0.0
12663,52.0,0.0,90.0,5.0,0.0
12664,59.0,48.0,60.0,1.0,0.0
12665,80.0,0.0,60.0,4.0,0.0
12666,52.0,30.0,150.0,12.0,0.0
12667,71.0,0.0,90.0,0.0,0.0
12668,76.0,48.0,60.0,4.0,0.0
12669,56.0,0.0,60.0,1.0,0.0
12670,75.0,0.0,60.0,4.0,0.0
12671,76.0,48.0,90.0,0.0,0.0
12672,54.0,18.0,60.0,1.0,0.0
12673,40.0,0.0,90.0,5.0,0.0
12674,76.0,0.0,60.0,4.0,0.0
12675,56.0,0.0,60.0,1.0,0.0
12676,71.0,0.0,90.0,11.0,0.0
12677,40.0,48.0,90.0,12.0,0.0
12678,76.0,0.0,90.0,10.0,0.0
12679,52.0,48.0,60.0,1.0,0.0
12680,52.0,0.0,90.0,5.0,0.0
12681,80.0,0.0,90.0,0.0,0.0
12682,71.0,0.0,60.0,4.0,0.0
12683,80.0,0.0,90.0,8.0,0.0
12684,76.0,0.0,60.0,4.0,0.0
12685,56.0,0.0,60.0,1.0,0.0
12686,45.0,48.0,60.0,5.0,0.0
12687,45.0,30.0,150.0,1.0,0.0
12688,45.0,0.0,150.0,12.0,0.0
12689,81.0,0.0,90.0,0.0,0.0
12690,81.0,0.0,150.0,8.0,0.0
12691,73.0,0.0,150.0,4.0,0.0
12692,73.0,0.0,150.0,11.0,0.0
12693,76.0,0.0,150.0,10.0,0.0
12694,57.0,0.0,90.0,3.0,0.0
12695,61.0,48.0,60.0,5.0,0.0
12696,76.0,0.0,60.0,2.0,0.0
12697,59.0,18.0,60.0,5.0,0.0
12698,76.0,0.0,90.0,0.0,0.0
12699,75.0,0.0,60.0,2.0,0.0
12700,45.0,0.0,90.0,3.0,0.0
12701,76.0,0.0,60.0,2.0,0.0
12702,61.0,48.0,60.0,5.0,0.0
12703,56.0,0.0,90.0,3.0,0.0
12704,73.0,48.0,60.0,2.0,0.0
12705,58.0,0.0,60.0,5.0,0.0
12706,59.0,0.0,60.0,5.0,0.0
12707,76.0,48.0,60.0,2.0,0.0
12708,82.0,48.0,60.0,2.0,0.0
12709,61.0,0.0,60.0,5.0,0.0
12710,54.0,30.0,150.0,12.0,0.0
12711,54.0,0.0,90.0,3.0,0.0
12712,73.0,0.0,90.0,4.0,0.0
12713,78.0,0.0,60.0,2.0,0.0
12714,58.0,48.0,60.0,5.0,0.0
12715,56.0,0.0,60.0,5.0,0.0
12716,78.0,0.0,90.0,4.0,0.0
12717,42.0,0.0,90.0,3.0,0.0
12718,76.0,18.0,60.0,2.0,0.0
12719,78.0,48.0,60.0,2.0,0.0
12720,58.0,0.0,60.0,5.0,0.0
12721,82.0,0.0,90.0,8.0,0.0
12722,78.0,48.0,90.0,10.0,0.0
12723,54.0,0.0,90.0,3.0,0.0
12724,73.0,0.0,90.0,11.0,0.0
12725,54.0,0.0,60.0,5.0,0.0
12726,82.0,0.0,90.0,4.0,0.0
12727,42.0,0.0,90.0,12.0,0.0
12728,73.0,48.0,60.0,2.0,0.0
12729,58.0,0.0,60.0,5.0,0.0
12730,78.0,0.0,60.0,2.0,0.0
12731,59.0,48.0,90.0,7.0,0.0
12732,75.0,0.0,150.0,11.0,0.0
12733,47.0,0.0,150.0,5.0,0.0
12734,47.0,48.0,60.0,3.0,0.0
12735,78.0,0.0,150.0,10.0,0.0
12736,83.0,0.0,90.0,4.0,0.0
12737,83.0,0.0,150.0,8.0,0.0
12738,75.0,0.0,150.0,2.0,0.0
12739,47.0,30.0,150.0,12.0,0.0
12740,78.0,0.0,60.0,6.0,0.0
12741,63.0,0.0,60.0,3.0,0.0
12742,76.0,18.0,60.0,6.0,0.0
12743,61.0,0.0,60.0,3.0,0.0
12744,47.0,0.0,90.0,7.0,0.0
12745,78.0,0.0,90.0,4.0,0.0
12746,63.0,0.0,60.0,3.0,0.0
12747,78.0,48.0,60.0,6.0,0.0
12748,75.0,48.0,60.0,6.0,0.0
12749,57.0,0.0,90.0,7.0,0.0
12750,60.0,0.0,60.0,3.0,0.0
12751,61.0,0.0,60.0,3.0,0.0
12752,78.0,48.0,60.0,6.0,0.0
12753,75.0,0.0,90.0,2.0,0.0
12754,56.0,30.0,150.0,12.0,0.0
12755,63.0,0.0,60.0,3.0,0.0
12756,56.0,0.0,90.0,7.0,0.0
12757,84.0,48.0,60.0,6.0,0.0
12758,80.0,48.0,60.0,6.0,0.0
12759,60.0,0.0,60.0,3.0,0.0
12760,80.0,0.0,90.0,2.0,0.0
12761,78.0,18.0,60.0,6.0,0.0
12762,44.0,48.0,90.0,7.0,0.0
12763,58.0,0.0,60.0,3.0,0.0
12764,60.0,0.0,60.0,3.0,0.0
12765,80.0,0.0,60.0,6.0,0.0
12766,75.0,0.0,60.0,6.0,0.0
12767,80.0,0.0,90.0,10.0,0.0
12768,44.0,0.0,90.0,12.0,0.0
12769,75.0,96.0,90.0,11.0,0.0
12770,84.0,0.0,90.0,8.0,0.0
12771,56.0,0.0,90.0,7.0,0.0
12772,84.0,0.0,90.0,2.0,0.0
12773,56.0,48.0,60.0,3.0,0.0
12774,60.0,0.0,60.0,3.0,0.0
12775,80.0,0.0,60.0,6.0,0.0
12776,76.0,0.0,150.0,6.0,0.0
12777,49.0,30.0,150.0,12.0,0.0
12778,85.0,0.0,150.0,8.0,0.0
12779,61.0,48.0,90.0,1.0,0.0
12780,49.0,0.0,150.0,3.0,0.0
12781,85.0,0.0,90.0,2.0,0.0
12782,49.0,0.0,150.0,7.0,0.0
12783,76.0,0.0,150.0,11.0,0.0
12784,80.0,0.0,150.0,10.0,0.0
12785,80.0,0.0,60.0,0.0,0.0
12786,64.0,0.0,60.0,5.0,0.0
12787,63.0,0.0,60.0,5.0,0.0
12788,78.0,18.0,60.0,0.0,0.0
12789,80.0,0.0,90.0,2.0,0.0
12790,49.0,48.0,90.0,1.0,0.0
12791,64.0,0.0,60.0,5.0,0.0
12792,80.0,0.0,60.0,0.0,0.0
12793,61.0,48.0,90.0,1.0,0.0
12794,76.0,0.0,60.0,0.0,0.0
12795,61.0,48.0,60.0,5.0,0.0
12796,80.0,0.0,60.0,0.0,0.0
12797,64.0,0.0,60.0,5.0,0.0
12798,61.0,30.0,150.0,12.0,0.0
12799,61.0,0.0,90.0,1.0,0.0
12800,68.0,0.0,60.0,5.0,0.0
12801,76.0,48.0,90.0,4.0,0.0
12802,85.0,48.0,60.0,0.0,0.0
12803,64.0,0.0,60.0,5.0,0.0
12804,80.0,0.0,60.0,0.0,0.0
12805,63.0,18.0,60.0,5.0,0.0
12806,49.0,0.0,90.0,1.0,0.0
12807,80.0,0.0,90.0,4.0,0.0
12808,78.0,0.0,60.0,0.0,0.0
12809,64.0,48.0,60.0,5.0,0.0
12810,80.0,0.0,60.0,0.0,0.0
12811,61.0,0.0,90.0,1.0,0.0
12812,76.0,48.0,60.0,0.0,0.0
12813,85.0,0.0,90.0,4.0,0.0
12814,61.0,0.0,60.0,5.0,0.0
12815,80.0,48.0,60.0,0.0,0.0
12816,64.0,0.0,60.0,5.0,0.0
12817,68.0,48.0,60.0,5.0,0.0
12818,61.0,0.0,90.0,1.0,0.0
12819,49.0,30.0,150.0,12.0,0.0
12820,85.0,0.0,60.0,0.0,0.0
12821,76.0,0.0,90.0,4.0,0.0
12822,80.0,48.0,60.0,0.0,0.0
12823,64.0,0.0,60.0,5.0,0.0
12824,80.0,0.0,90.0,4.0,0.0
12825,78.0,0.0,60.0,0.0,0.0
12826,49.0,0.0,90.0,1.0,0.0
12827,63.0,18.0,60.0,5.0,0.0
12828,64.0,0.0,60.0,5.0,0.0
12829,80.0,48.0,60.0,0.0,0.0
12830,61.0,0.0,90.0,1.0,0.0
12831,85.0,0.0,90.0,4.0,0.0
12832,76.0,0.0,60.0,0.0,0.0
12833,61.0,48.0,60.0,5.0,0.0
12834,64.0,0.0,60.0,5.0,0.0
12835,80.0,48.0,60.0,0.0,0.0
12836,79.0,0.0,150.0,4.0,0.0
12837,85.0,0.0,150.0,4.0,0.0
12838,75.0,0.0,150.0,4.0,0.0
12839,70.0,0.0,150.0,5.0,0.0
12840,67.0,0.0,150.0,5.0,0.0
12841,55.0,0.0,150.0,7.0,0.0
12842,63.0,0.0,150.0,5.0,0.0
12843,82.0,0.0,150.0,4.0,0.0
12844,70.0,0.0,150.0,2.0,0.0
12845,70.0,0.0,150.0,8.0,0.0
12846,70.0,0.0,150.0,6.0,0.0
12847,75.0,0.0,150.0,6.0,0.0
12848,79.0,0.0,150.0,6.0,0.0
12849,51.0,48.0,90.0,12.0,0.0
12850,75.0,0.0,150.0,2.0,0.0
12851,79.0,0.0,150.0,2.0,0.0
12852,82.0,0.0,150.0,2.0,0.0
12853,75.0,0.0,150.0,0.0,0.0
12854,79.0,0.0,150.0,0.0,0.0
12855,82.0,0.0,150.0,0.0,0.0
12856,85.0,0.0,150.0,0.0,0.0
12857,51.0,0.0,150.0,7.0,0.0
12858,61.0,48.0,60.0,3.0,0.0
12859,63.0,30.0,150.0,11.0,0.0
12860,58.0,0.0,150.0,7.0,0.0
12861,67.0,0.0,150.0,10.0,0.0
12862,51.0,0.0,60.0,1.0,0.0
12863,53.0,0.0,60.0,1.0,0.0
12864,59.0,0.0,60.0,3.0,0.0
12865,58.0,18.0,60.0,3.0,0.0
12866,55.0,0.0,60.0,1.0,0.0
12867,55.0,0.0,90.0,12.0,0.0
12868,56.0,0.0,60.0,1.0,0.0
12869,56.0,48.0,60.0,3.0,0.0
12870,58.0,48.0,90.0,12.0,0.0
12871,58.0,48.0,60.0,1.0,0.0
12872,55.0,0.0,60.0,3.0,0.0
12873,53.0,0.0,60.0,3.0,0.0
12874,59.0,0.0,60.0,1.0,0.0
12875,70.0,0.0,150.0,10.0,0.0
12876,61.0,0.0,60.0,1.0,0.0
12877,63.0,0.0,150.0,5.0,0.0
12878,67.0,0.0,150.0,5.0,0.0
12879,75.0,0.0,150.0,8.0,0.0
12880,79.0,0.0,150.0,6.0,0.0
12881,67.0,0.0,150.0,11.0,0.0
12882,75.0,0.0,150.0,6.0,0.0
12883,70.0,30.0,150.0,2.0,0.0
12884,70.0,0.0,150.0,6.0,0.0
12885,85.0,0.0,150.0,0.0,0.0
12886,75.0,0.0,150.0,0.0,0.0
12887,75.0,0.0,150.0,2.0,0.0
12888,75.0,0.0,150.0,4.0,0.0
12889,82.0,0.0,150.0,2.0,0.0
12890,79.0,0.0,150.0,4.0,0.0
12891,82.0,0.0,150.0,4.0,0.0
12892,85.0,0.0,150.0,4.0,0.0
12893,58.0,0.0,150.0,7.0,0.0
12894,55.0,0.0,150.0,7.0,0.0
12895,51.0,0.0,90.0,12.0,0.0
12896,79.0,0.0,150.0,2.0,0.0
12897,51.0,0.0,150.0,7.0,0.0
12898,70.0,0.0,150.0,5.0,0.0
12899,79.0,0.0,150.0,0.0,0.0
12900,82.0,0.0,150.0,0.0,0.0
12901,51.0,48.0,60.0,3.0,0.0
12902,53.0,0.0,60.0,3.0,0.0
12903,59.0,48.0,60.0,1.0,0.0
12904,58.0,18.0,60.0,1.0,0.0
12905,55.0,48.0,90.0,12.0,0.0
12906,55.0,0.0,60.0,3.0,0.0
12907,56.0,0.0,60.0,1.0,0.0
12908,56.0,0.0,60.0,3.0,0.0
12909,55.0,48.0,60.0,1.0,0.0
12910,58.0,0.0,90.0,12.0,0.0
12911,58.0,0.0,60.0,3.0,0.0
12912,59.0,0.0,60.0,3.0,0.0
12913,53.0,48.0,60.0,1.0,0.0
12914,79.0,0.0,150.0,8.0,0.0
12915,61.0,0.0,150.0,3.0,0.0
12916,67.0,0.0,150.0,3.0,0.0
12917,70.0,0.0,150.0,6.0,0.0
12918,51.0,0.0,60.0,5.0,0.0
12919,75.0,0.0,150.0,6.0,0.0
12920,79.0,0.0,150.0,6.0,0.0
12921,70.0,0.0,150.0,11.0,0.0
12922,70.0,0.0,150.0,2.0,0.0
12923,85.0,0.0,150.0,0.0,0.0
12924,75.0,0.0,150.0,10.0,0.0
12925,75.0,0.0,150.0,2.0,0.0
12926,79.0,0.0,150.0,2.0,0.0
12927,82.0,0.0,150.0,2.0,0.0
12928,79.0,0.0,150.0,0.0,0.0
12929,75.0,0.0,150.0,0.0,0.0
12930,55.0,0.0,150.0,1.0,0.0
12931,58.0,0.0,150.0,1.0,0.0
12932,61.0,48.0,60.0,7.0,0.0
12933,63.0,0.0,150.0,1.0,0.0
12934,82.0,0.0,150.0,4.0,0.0
12935,79.0,30.0,150.0,4.0,0.0
12936,51.0,48.0,90.0,12.0,0.0
12937,75.0,0.0,150.0,4.0,0.0
12938,82.0,0.0,150.0,0.0,0.0
12939,51.0,0.0,150.0,1.0,0.0
12940,85.0,0.0,150.0,4.0,0.0
12941,53.0,0.0,60.0,5.0,0.0
12942,59.0,0.0,60.0,7.0,0.0
12943,58.0,18.0,60.0,7.0,0.0
12944,55.0,0.0,60.0,5.0,0.0
12945,55.0,0.0,90.0,12.0,0.0
12946,56.0,0.0,60.0,7.0,0.0
12947,56.0,48.0,60.0,5.0,0.0
12948,58.0,0.0,60.0,5.0,0.0
12949,55.0,48.0,60.0,7.0,0.0
12950,58.0,0.0,90.0,12.0,0.0
12951,59.0,0.0,60.0,5.0,0.0
12952,53.0,48.0,60.0,7.0,0.0
12953,51.0,0.0,60.0,7.0,0.0
12954,82.0,0.0,150.0,8.0,0.0
12955,75.0,30.0,150.0,11.0,0.0
12956,63.0,0.0,150.0,1.0,0.0
12957,55.0,0.0,150.0,1.0,0.0
12958,79.0,0.0,150.0,10.0,0.0
12959,51.0,0.0,150.0,1.0,0.0
12960,51.0,0.0,90.0,12.0,0.0
12961,79.0,0.0,150.0,6.0,0.0
12962,58.0,0.0,150.0,1.0,0.0
12963,82.0,0.0,150.0,2.0,0.0
12964,79.0,0.0,150.0,2.0,0.0
12965,75.0,0.0,150.0,2.0,0.0
12966,67.0,0.0,150.0,3.0,0.0
12967,61.0,0.0,150.0,3.0,0.0
12968,61.0,48.0,60.0,5.0,0.0
12969,85.0,0.0,150.0,4.0,0.0
12970,82.0,0.0,150.0,4.0,0.0
12971,79.0,0.0,150.0,4.0,0.0
12972,75.0,0.0,150.0,4.0,0.0
12973,75.0,0.0,150.0,6.0,0.0
12974,85.0,0.0,150.0,0.0,0.0
12975,82.0,0.0,150.0,0.0,0.0
12976,79.0,0.0,150.0,0.0,0.0
12977,75.0,0.0,150.0,0.0,0.0
12978,70.0,0.0,150.0,2.0,0.0
12979,70.0,0.0,150.0,6.0,0.0
12980,59.0,0.0,60.0,5.0,0.0
12981,53.0,48.0,60.0,7.0,0.0
12982,55.0,0.0,90.0,12.0,0.0
12983,58.0,0.0,60.0,5.0,0.0
12984,55.0,18.0,60.0,7.0,0.0
12985,56.0,48.0,60.0,5.0,0.0
12986,56.0,0.0,60.0,7.0,0.0
12987,58.0,0.0,60.0,7.0,0.0
12988,58.0,162.0,90.0,12.0,0.0
12989,55.0,48.0,60.0,5.0,0.0
12990,53.0,0.0,60.0,5.0,0.0
12991,59.0,0.0,60.0,7.0,0.0
12992,51.0,0.0,150.0,1.0,0.0
12993,61.0,0.0,150.0,3.0,0.0
12994,67.0,0.0,150.0,3.0,0.0
12995,82.0,0.0,150.0,4.0,0.0
12996,58.0,0.0,150.0,1.0,0.0
12997,51.0,0.0,150.0,12.0,0.0
12998,75.0,0.0,150.0,0.0,0.0
12999,79.0,0.0,150.0,4.0,0.0
13000,79.0,174.0,150.0,10.0,0.0
13001,55.0,0.0,150.0,1.0,0.0
13002,85.0,0.0,150.0,4.0,0.0
13003,51.0,0.0,150.0,7.0,0.0
13004,75.0,0.0,150.0,4.0,0.0
13005,75.0,0.0,150.0,2.0,0.0
13006,79.0,0.0,150.0,6.0,0.0
13007,75.0,0.0,150.0,6.0,0.0
13008,85.0,0.0,150.0,8.0,0.0
13009,63.0,0.0,150.0,1.0,0.0
13010,70.0,0.0,150.0,6.0,0.0
13011,51.0,0.0,150.0,5.0,0.0
13012,55.0,0.0,150.0,5.0,0.0
13013,70.0,0.0,150.0,2.0,0.0
13014,63.0,0.0,150.0,5.0,0.0
13015,70.0,0.0,150.0,11.0,0.0
13016,58.0,0.0,150.0,5.0,0.0
13017,85.0,0.0,150.0,0.0,0.0
13018,82.0,0.0,150.0,0.0,0.0
13019,79.0,0.0,150.0,0.0,0.0
13020,82.0,0.0,150.0,2.0,0.0
13021,79.0,0.0,150.0,2.0,0.0
13022,61.0,0.0,150.0,7.0,0.0
13023,80.0,0.0,150.0,4.0,0.0
13024,83.0,0.0,150.0,8.0,0.0
13025,56.0,0.0,60.0,7.0,0.0
13026,80.0,0.0,150.0,10.0,0.0
13027,75.0,0.0,150.0,11.0,0.0
13028,83.0,0.0,150.0,0.0,0.0
13029,75.0,0.0,150.0,2.0,0.0
13030,71.0,0.0,150.0,2.0,0.0
13031,75.0,0.0,150.0,4.0,0.0
13032,59.0,48.0,60.0,3.0,0.0
13033,83.0,0.0,150.0,4.0,0.0
13034,80.0,0.0,150.0,2.0,0.0
13035,44.0,0.0,90.0,1.0,0.0
13036,80.0,0.0,150.0,0.0,0.0
13037,75.0,0.0,150.0,0.0,0.0
13038,44.0,0.0,90.0,12.0,0.0
13039,71.0,0.0,150.0,6.0,0.0
13040,75.0,30.0,150.0,6.0,0.0
13041,80.0,0.0,150.0,6.0,0.0
13042,56.0,0.0,60.0,5.0,0.0
13043,68.0,0.0,60.0,5.0,0.0
13044,59.0,48.0,60.0,7.0,0.0
13045,63.0,0.0,60.0,3.0,0.0
13046,58.0,0.0,60.0,7.0,0.0
13047,61.0,0.0,60.0,3.0,0.0
13048,56.0,0.0,90.0,1.0,0.0
13049,67.0,18.0,60.0,5.0,0.0
13050,56.0,0.0,90.0,12.0,0.0
13051,59.0,0.0,60.0,3.0,0.0
13052,56.0,48.0,60.0,7.0,0.0
13053,68.0,0.0,60.0,5.0,0.0
13054,58.0,0.0,60.0,3.0,0.0
13055,64.0,48.0,60.0,5.0,0.0
13056,44.0,0.0,90.0,12.0,0.0
13057,44.0,0.0,90.0,1.0,0.0
13058,55.0,0.0,60.0,7.0,0.0
13059,63.0,0.0,60.0,5.0,0.0
13060,56.0,48.0,60.0,7.0,0.0
13061,56.0,0.0,60.0,3.0,0.0
13062,76.0,0.0,150.0,0.0,0.0
13063,61.0,0.0,60.0,3.0,0.0
13064,49.0,0.0,90.0,1.0,0.0
13065,82.0,0.0,150.0,8.0,0.0
13066,76.0,0.0,150.0,6.0,0.0
13067,73.0,0.0,150.0,6.0,0.0
13068,70.0,0.0,150.0,6.0,0.0
13069,80.0,0.0,150.0,0.0,0.0
13070,80.0,0.0,150.0,2.0,0.0
13071,82.0,0.0,150.0,4.0,0.0
13072,73.0,0.0,150.0,2.0,0.0
13073,61.0,0.0,60.0,5.0,0.0
13074,76.0,30.0,150.0,4.0,0.0
13075,76.0,0.0,150.0,2.0,0.0
13076,49.0,0.0,90.0,12.0,0.0
13077,58.0,48.0,60.0,7.0,0.0
13078,80.0,0.0,150.0,4.0,0.0
13079,82.0,0.0,150.0,0.0,0.0
13080,80.0,0.0,150.0,10.0,0.0
13081,76.0,0.0,150.0,11.0,0.0
13082,55.0,0.0,60.0,5.0,0.0
13083,64.0,0.0,60.0,3.0,0.0
13084,61.0,48.0,60.0,7.0,0.0
13085,61.0,0.0,90.0,1.0,0.0
13086,61.0,0.0,90.0,12.0,0.0
13087,59.0,0.0,60.0,7.0,0.0
13088,56.0,18.0,60.0,5.0,0.0
13089,63.0,0.0,60.0,3.0,0.0
13090,58.0,0.0,60.0,7.0,0.0
13091,58.0,0.0,60.0,5.0,0.0
13092,61.0,48.0,60.0,3.0,0.0
13093,49.0,0.0,90.0,12.0,0.0
13094,56.0,48.0,60.0,7.0,0.0
13095,49.0,48.0,90.0,1.0,0.0
13096,59.0,0.0,60.0,3.0,0.0
13097,59.0,0.0,60.0,5.0,0.0
13098,58.0,0.0,60.0,3.0,0.0
13099,58.0,0.0,60.0,7.0,0.0
13100,61.0,0.0,60.0,5.0,0.0
13101,51.0,0.0,90.0,1.0,0.0
13102,79.0,0.0,150.0,10.0,0.0
13103,79.0,0.0,150.0,0.0,0.0
13104,75.0,0.0,150.0,11.0,0.0
13105,63.0,0.0,60.0,5.0,0.0
13106,70.0,0.0,150.0,6.0,0.0
13107,82.0,0.0,150.0,0.0,0.0
13108,75.0,0.0,150.0,6.0,0.0
13109,79.0,0.0,150.0,6.0,0.0
13110,82.0,0.0,150.0,8.0,0.0
13111,75.0,0.0,150.0,0.0,0.0
13112,75.0,0.0,150.0,4.0,0.0
13113,73.0,0.0,150.0,2.0,0.0
13114,51.0,0.0,90.0,12.0,0.0
13115,63.0,48.0,60.0,3.0,0.0
13116,75.0,0.0,150.0,2.0,0.0
13117,79.0,30.0,150.0,2.0,0.0
13118,51.0,0.0,60.0,7.0,0.0
13119,70.0,0.0,150.0,2.0,0.0
13120,79.0,0.0,150.0,4.0,0.0
13121,82.0,0.0,150.0,4.0,0.0
13122,64.0,48.0,60.0,3.0,0.0
13123,61.0,0.0,60.0,5.0,0.0
13124,55.0,0.0,60.0,7.0,0.0
13125,56.0,0.0,60.0,7.0,0.0
13126,63.0,0.0,90.0,12.0,0.0
13127,59.0,18.0,60.0,5.0,0.0
13128,63.0,0.0,60.0,3.0,0.0
13129,63.0,48.0,90.0,1.0,0.0
13130,58.0,0.0,60.0,7.0,0.0
13131,61.0,0.0,60.0,3.0,0.0
13132,58.0,0.0,60.0,5.0,0.0
13133,56.0,48.0,60.0,5.0,0.0
13134,51.0,0.0,90.0,12.0,0.0
13135,59.0,0.0,60.0,7.0,0.0
13136,63.0,0.0,60.0,3.0,0.0
13137,51.0,0.0,90.0,1.0,0.0
13138,55.0,0.0,60.0,5.0,0.0
13139,51.0,96.0,60.0,3.0,0.0
13140,61.0,0.0,60.0,7.0,0.0
13141,63.0,0.0,150.0,5.0,0.0
13142,80.0,0.0,90.0,10.0,0.0
13143,59.0,0.0,150.0,7.0,0.0
13144,59.0,30.0,150.0,3.0,0.0
13145,63.0,0.0,150.0,3.0,0.0
13146,80.0,0.0,90.0,4.0,0.0
13147,59.0,0.0,150.0,5.0,0.0
13148,56.0,0.0,150.0,5.0,0.0
13149,56.0,0.0,150.0,3.0,0.0
13150,56.0,0.0,150.0,12.0,0.0
13151,80.0,0.0,90.0,6.0,0.0
13152,75.0,0.0,150.0,11.0,0.0
13153,80.0,0.0,90.0,0.0,0.0
13154,75.0,0.0,90.0,0.0,0.0
13155,71.0,48.0,90.0,0.0,0.0
13156,80.0,0.0,90.0,8.0,0.0
13157,56.0,0.0,150.0,7.0,0.0
13158,44.0,0.0,150.0,1.0,0.0
13159,51.0,0.0,150.0,1.0,0.0
13160,56.0,0.0,150.0,1.0,0.0
13161,71.0,0.0,150.0,11.0,0.0
13162,80.0,0.0,90.0,2.0,0.0
13163,63.0,0.0,150.0,7.0,0.0
13164,83.0,18.0,60.0,8.0,0.0
13165,83.0,0.0,60.0,6.0,0.0
13166,83.0,0.0,60.0,2.0,0.0
13167,83.0,0.0,60.0,0.0,0.0
13168,83.0,0.0,60.0,4.0,0.0
13169,83.0,0.0,60.0,10.0,0.0
13170,82.0,96.0,60.0,6.0,0.0
13171,82.0,0.0,60.0,4.0,0.0
13172,82.0,0.0,60.0,0.0,0.0
13173,82.0,0.0,60.0,2.0,0.0
13174,82.0,0.0,60.0,8.0,0.0
13175,82.0,0.0,60.0,10.0,0.0
13176,80.0,0.0,90.0,4.0,0.0
13177,80.0,96.0,90.0,0.0,0.0
13178,80.0,0.0,90.0,10.0,0.0
13179,80.0,0.0,90.0,6.0,0.0
13180,80.0,0.0,90.0,8.0,0.0
13181,80.0,0.0,90.0,2.0,0.0
13182,75.0,0.0,90.0,4.0,0.0
13183,56.0,0.0,150.0,5.0,0.0
13184,59.0,0.0,150.0,5.0,0.0
13185,63.0,0.0,150.0,5.0,0.0
13186,75.0,66.0,90.0,0.0,0.0
13187,59.0,0.0,150.0,7.0,0.0
13188,75.0,0.0,150.0,11.0,0.0
13189,56.0,0.0,150.0,3.0,0.0
13190,71.0,0.0,150.0,11.0,0.0
13191,59.0,30.0,150.0,3.0,0.0
13192,63.0,0.0,150.0,3.0,0.0
13193,56.0,0.0,150.0,7.0,0.0
13194,75.0,0.0,90.0,8.0,0.0
13195,75.0,0.0,90.0,10.0,0.0
13196,63.0,0.0,150.0,7.0,0.0
13197,75.0,0.0,90.0,2.0,0.0
13198,56.0,0.0,150.0,12.0,0.0
13199,56.0,0.0,150.0,1.0,0.0
13200,51.0,0.0,150.0,1.0,0.0
13201,44.0,0.0,150.0,1.0,0.0
13202,75.0,0.0,90.0,6.0,0.0
13203,80.0,0.0,90.0,10.0,0.0
13204,80.0,0.0,90.0,8.0,0.0
13205,80.0,96.0,90.0,2.0,0.0
13206,80.0,0.0,90.0,4.0,0.0
13207,80.0,0.0,90.0,6.0,0.0
13208,80.0,0.0,90.0,0.0,0.0
13209,75.0,0.0,90.0,0.0,0.0
13210,75.0,0.0,90.0,6.0,0.0
13211,75.0,0.0,90.0,8.0,0.0
13212,75.0,0.0,90.0,2.0,0.0
13213,75.0,96.0,90.0,4.0,0.0
13214,75.0,0.0,90.0,10.0,0.0
13215,59.0,0.0,150.0,5.0,0.0
13216,56.0,0.0,150.0,12.0,0.0
13217,71.0,0.0,90.0,0.0,0.0
13218,63.0,0.0,150.0,7.0,0.0
13219,71.0,0.0,90.0,6.0,0.0
13220,56.0,0.0,150.0,7.0,0.0
13221,71.0,0.0,150.0,11.0,0.0
13222,63.0,30.0,150.0,3.0,0.0
13223,71.0,48.0,90.0,8.0,0.0
13224,63.0,0.0,150.0,5.0,0.0
13225,71.0,0.0,90.0,4.0,0.0
13226,71.0,0.0,90.0,2.0,0.0
13227,59.0,0.0,150.0,7.0,0.0
13228,51.0,0.0,150.0,1.0,0.0
13229,44.0,0.0,150.0,1.0,0.0
13230,56.0,0.0,150.0,3.0,0.0
13231,56.0,0.0,150.0,1.0,0.0
13232,56.0,0.0,150.0,5.0,0.0
13233,75.0,0.0,150.0,11.0,0.0
13234,71.0,0.0,90.0,10.0,0.0
13235,59.0,0.0,150.0,3.0,0.0
13236,75.0,18.0,60.0,6.0,0.0
13237,75.0,0.0,60.0,0.0,0.0
13238,75.0,0.0,60.0,10.0,0.0
13239,75.0,0.0,60.0,4.0,0.0
13240,75.0,0.0,60.0,8.0,0.0
13241,75.0,0.0,60.0,2.0,0.0
13242,73.0,0.0,60.0,4.0,0.0
13243,73.0,0.0,60.0,0.0,0.0
13244,73.0,0.0,60.0,8.0,0.0
13245,73.0,0.0,60.0,2.0,0.0
13246,73.0,0.0,60.0,10.0,0.0
13247,73.0,48.0,60.0,6.0,0.0
13248,71.0,0.0,60.0,6.0,0.0
13249,71.0,0.0,60.0,2.0,0.0
13250,71.0,48.0,60.0,10.0,0.0
13251,71.0,0.0,60.0,8.0,0.0
13252,71.0,0.0,60.0,4.0,0.0
13253,71.0,0.0,60.0,0.0,0.0
13254,70.0,96.0,60.0,0.0,0.0
13255,70.0,0.0,60.0,6.0,0.0
13256,70.0,0.0,60.0,10.0,0.0
13257,70.0,0.0,60.0,2.0,0.0
13258,70.0,0.0,60.0,8.0,0.0
13259,70.0,0.0,60.0,4.0,0.0
13260,56.0,0.0,150.0,3.0,0.0
13261,68.0,0.0,90.0,8.0,0.0
13262,68.0,0.0,90.0,10.0,0.0
13263,63.0,0.0,150.0,7.0,0.0
13264,75.0,0.0,150.0,11.0,0.0
13265,59.0,0.0,150.0,7.0,0.0
13266,56.0,0.0,150.0,7.0,0.0
13267,63.0,0.0,150.0,5.0,0.0
13268,56.0,30.0,150.0,12.0,0.0
13269,59.0,0.0,150.0,3.0,0.0
13270,63.0,0.0,150.0,3.0,0.0
13271,68.0,66.0,90.0,6.0,0.0
13272,56.0,0.0,150.0,1.0,0.0
13273,51.0,0.0,150.0,1.0,0.0
13274,71.0,0.0,150.0,11.0,0.0
13275,44.0,0.0,150.0,1.0,0.0
13276,68.0,0.0,90.0,4.0,0.0
13277,56.0,0.0,150.0,5.0,0.0
13278,59.0,0.0,150.0,5.0,0.0
13279,68.0,0.0,90.0,0.0,0.0
13280,68.0,0.0,90.0,2.0,0.0
13281,71.0,96.0,90.0,2.0,0.0
13282,71.0,0.0,90.0,6.0,0.0
13283,71.0,0.0,90.0,0.0,0.0
13284,71.0,0.0,90.0,4.0,0.0
13285,71.0,0.0,90.0,10.0,0.0
13286,71.0,0.0,90.0,8.0,0.0
13287,75.0,0.0,90.0,4.0,0.0
13288,75.0,0.0,90.0,10.0,0.0
13289,75.0,0.0,90.0,2.0,0.0
13290,75.0,0.0,90.0,6.0,0.0
13291,75.0,0.0,90.0,0.0,0.0
13292,75.0,96.0,90.0,8.0,0.0
13293,80.0,0.0,150.0,10.0,0.0
13294,56.0,0.0,90.0,3.0,0.0
13295,56.0,0.0,90.0,5.0,0.0
13296,80.0,0.0,150.0,0.0,0.0
13297,80.0,0.0,150.0,6.0,0.0
13298,80.0,30.0,150.0,2.0,0.0
13299,56.0,48.0,90.0,1.0,0.0
13300,80.0,0.0,150.0,4.0,0.0
13301,71.0,0.0,150.0,11.0,0.0
13302,75.0,0.0,150.0,11.0,0.0
13303,56.0,0.0,90.0,12.0,0.0
13304,56.0,0.0,90.0,7.0,0.0
13305,80.0,0.0,150.0,8.0,0.0
13306,51.0,0.0,60.0,3.0,0.0
13307,51.0,18.0,60.0,12.0,0.0
13308,51.0,0.0,60.0,5.0,0.0
13309,51.0,0.0,60.0,7.0,0.0
13310,51.0,0.0,60.0,1.0,0.0
13311,49.0,0.0,60.0,1.0,0.0
13312,49.0,0.0,60.0,3.0,0.0
13313,49.0,48.0,60.0,7.0,0.0
13314,49.0,0.0,60.0,12.0,0.0
13315,49.0,0.0,60.0,5.0,0.0
13316,47.0,0.0,60.0,12.0,0.0
13317,47.0,48.0,60.0,1.0,0.0
13318,68.0,96.0,90.0,6.0,0.0
13319,47.0,0.0,60.0,3.0,0.0
13320,68.0,0.0,90.0,2.0,0.0
13321,47.0,0.0,60.0,7.0,0.0
13322,68.0,0.0,90.0,4.0,0.0
13323,68.0,0.0,90.0,0.0,0.0
13324,47.0,0.0,60.0,5.0,0.0
13325,68.0,0.0,90.0,10.0,0.0
13326,68.0,0.0,90.0,8.0,0.0
13327,46.0,0.0,60.0,5.0,0.0
13328,46.0,0.0,60.0,12.0,0.0
13329,46.0,0.0,60.0,7.0,0.0
13330,46.0,0.0,60.0,3.0,0.0
13331,46.0,0.0,60.0,1.0,0.0
13332,44.0,0.0,90.0,7.0,0.0
13333,44.0,96.0,90.0,3.0,0.0
13334,44.0,0.0,90.0,12.0,0.0
13335,44.0,0.0,90.0,5.0,0.0
13336,44.0,0.0,90.0,1.0,0.0
13337,47.0,0.0,90.0,12.0,0.0
13338,47.0,0.0,90.0,1.0,0.0
13339,47.0,0.0,90.0,3.0,0.0
13340,47.0,0.0,90.0,5.0,0.0
13341,47.0,96.0,90.0,7.0,0.0
13342,51.0,48.0,90.0,7.0,0.0
13343,51.0,0.0,90.0,12.0,0.0
13344,51.0,0.0,90.0,5.0,0.0
13345,51.0,0.0,90.0,3.0,0.0
13346,51.0,0.0,90.0,1.0,0.0
13347,75.0,48.0,90.0,11.0,0.0
13348,56.0,0.0,90.0,5.0,0.0
13349,56.0,0.0,90.0,1.0,0.0
13350,83.0,0.0,60.0,0.0,0.0
13351,56.0,0.0,90.0,12.0,0.0
13352,80.0,0.0,60.0,2.0,0.0
13353,80.0,0.0,60.0,6.0,0.0
13354,56.0,0.0,90.0,3.0,0.0
13355,83.0,0.0,60.0,8.0,0.0
13356,83.0,0.0,60.0,4.0,0.0
13357,56.0,0.0,90.0,7.0,0.0
13358,80.0,48.0,60.0,10.0,0.0
13359,85.0,0.0,60.0,0.0,0.0
13360,82.0,0.0,60.0,2.0,0.0
13361,85.0,0.0,60.0,8.0,0.0
13362,82.0,0.0,60.0,10.0,0.0
13363,85.0,0.0,60.0,4.0,0.0
13364,82.0,0.0,60.0,6.0,0.0
13365,83.0,0.0,60.0,4.0,0.0
13366,50.0,0.0,90.0,1.0,0.0
13367,83.0,48.0,60.0,8.0,0.0
13368,65.0,0.0,90.0,7.0,0.0
13369,80.0,0.0,60.0,6.0,0.0
13370,50.0,0.0,90.0,12.0,0.0
13371,59.0,0.0,90.0,3.0,0.0
13372,80.0,0.0,60.0,10.0,0.0
13373,68.0,0.0,90.0,5.0,0.0
13374,77.0,0.0,90.0,11.0,0.0
13375,80.0,0.0,60.0,2.0,0.0
13376,83.0,0.0,60.0,0.0,0.0
13377,82.0,0.0,60.0,2.0,0.0
13378,85.0,0.0,60.0,8.0,0.0
13379,85.0,0.0,60.0,0.0,0.0
13380,82.0,0.0,60.0,10.0,0.0
13381,85.0,0.0,60.0,4.0,0.0
13382,82.0,48.0,60.0,6.0,0.0
13383,83.0,0.0,60.0,4.0,0.0
13384,80.0,0.0,60.0,10.0,0.0
13385,80.0,0.0,60.0,2.0,0.0
13386,77.0,0.0,90.0,11.0,0.0
13387,50.0,48.0,90.0,1.0,0.0
13388,83.0,0.0,60.0,8.0,0.0
13389,62.0,0.0,90.0,7.0,0.0
13390,50.0,0.0,90.0,12.0,0.0
13391,56.0,0.0,90.0,3.0,0.0
13392,83.0,0.0,60.0,0.0,0.0
13393,65.0,0.0,90.0,5.0,0.0
13394,80.0,48.0,60.0,6.0,0.0
13395,85.0,0.0,60.0,0.0,0.0
13396,85.0,0.0,60.0,4.0,0.0
13397,82.0,0.0,60.0,6.0,0.0
13398,85.0,0.0,60.0,8.0,0.0
13399,82.0,0.0,60.0,2.0,0.0
13400,82.0,0.0,60.0,10.0,0.0
13401,67.0,0.0,60.0,5.0,0.0
13402,70.0,34.0,90.0,11.0,0.0
13403,63.0,0.0,60.0,3.0,0.0
13404,51.0,0.0,90.0,12.0,0.0
13405,58.0,48.0,60.0,7.0,0.0
13406,79.0,0.0,90.0,10.0,0.0
13407,82.0,0.0,90.0,0.0,0.0
13408,79.0,0.0,90.0,2.0,0.0
13409,82.0,0.0,90.0,8.0,0.0
13410,82.0,0.0,90.0,4.0,0.0
13411,79.0,0.0,90.0,6.0,0.0
13412,51.0,0.0,90.0,1.0,0.0
13413,59.0,0.0,60.0,7.0,0.0
13414,64.0,0.0,60.0,3.0,0.0
13415,68.0,0.0,60.0,5.0,0.0
13416,87.0,0.0,90.0,0.0,0.0
13417,82.0,0.0,30.0,10.0,0.0
13418,51.0,0.0,90.0,1.0,0.0
13419,87.0,14.0,30.0,8.0,0.0
13420,51.0,0.0,90.0,12.0,0.0
13421,63.0,48.0,60.0,3.0,0.0
13422,58.0,0.0,60.0,7.0,0.0
13423,87.0,34.0,90.0,4.0,0.0
13424,82.0,0.0,90.0,6.0,0.0
13425,82.0,0.0,90.0,2.0,0.0
13426,67.0,0.0,60.0,5.0,0.0
13427,67.0,0.0,90.0,11.0,0.0
13428,59.0,0.0,60.0,7.0,0.0
13429,68.0,0.0,60.0,5.0,0.0
13430,64.0,0.0,60.0,3.0,0.0
13431,58.0,0.0,60.0,7.0,0.0
13432,51.0,0.0,90.0,12.0,0.0
13433,82.0,0.0,90.0,4.0,0.0
13434,51.0,48.0,90.0,1.0,0.0
13435,67.0,0.0,60.0,5.0,0.0
13436,63.0,48.0,60.0,3.0,0.0
13437,70.0,0.0,90.0,11.0,0.0
13438,79.0,0.0,90.0,2.0,0.0
13439,79.0,14.0,30.0,10.0,0.0
13440,82.0,0.0,30.0,8.0,0.0
13441,82.0,0.0,90.0,0.0,0.0
13442,79.0,0.0,90.0,6.0,0.0
13443,64.0,0.0,60.0,3.0,0.0
13444,68.0,0.0,60.0,5.0,0.0
13445,59.0,0.0,60.0,7.0,0.0
13446,50.0,0.0,90.0,12.0,0.0
13447,77.0,0.0,90.0,11.0,0.0
13448,83.0,0.0,60.0,0.0,0.0
13449,56.0,0.0,90.0,3.0,0.0
13450,80.0,0.0,60.0,10.0,0.0
13451,83.0,0.0,60.0,4.0,0.0
13452,65.0,0.0,90.0,5.0,0.0
13453,80.0,0.0,60.0,2.0,0.0
13454,56.0,0.0,90.0,7.0,0.0
13455,80.0,0.0,60.0,6.0,0.0
13456,83.0,48.0,60.0,8.0,0.0
13457,50.0,48.0,90.0,1.0,0.0
13458,85.0,0.0,60.0,0.0,0.0
13459,85.0,0.0,60.0,4.0,0.0
13460,85.0,0.0,60.0,8.0,0.0
13461,82.0,0.0,60.0,2.0,0.0
13462,82.0,0.0,60.0,10.0,0.0
13463,82.0,0.0,60.0,6.0,0.0
13464,68.0,0.0,90.0,5.0,0.0
13465,77.0,0.0,90.0,11.0,0.0
13466,83.0,48.0,60.0,0.0,0.0
13467,80.0,0.0,60.0,2.0,0.0
13468,59.0,0.0,90.0,3.0,0.0
13469,80.0,0.0,60.0,10.0,0.0
13470,80.0,0.0,60.0,6.0,0.0
13471,83.0,0.0,60.0,4.0,0.0
13472,83.0,0.0,60.0,8.0,0.0
13473,65.0,0.0,90.0,7.0,0.0
13474,50.0,0.0,90.0,12.0,0.0
13475,50.0,0.0,90.0,1.0,0.0
13476,85.0,0.0,60.0,8.0,0.0
13477,82.0,0.0,60.0,2.0,0.0
13478,82.0,0.0,60.0,6.0,0.0
13479,85.0,48.0,60.0,4.0,0.0
13480,85.0,0.0,60.0,0.0,0.0
13481,82.0,0.0,60.0,10.0,0.0
13482,62.0,0.0,90.0,7.0,0.0
13483,83.0,0.0,60.0,8.0,0.0
13484,80.0,48.0,60.0,2.0,0.0
13485,50.0,0.0,90.0,1.0,0.0
13486,65.0,0.0,90.0,5.0,0.0
13487,80.0,0.0,60.0,6.0,0.0
13488,80.0,0.0,60.0,10.0,0.0
13489,77.0,0.0,90.0,11.0,0.0
13490,83.0,0.0,60.0,0.0,0.0
13491,50.0,0.0,90.0,12.0,0.0
13492,83.0,0.0,60.0,4.0,0.0
13493,56.0,0.0,90.0,3.0,0.0
13494,82.0,0.0,60.0,10.0,0.0
13495,82.0,0.0,60.0,2.0,0.0
13496,85.0,48.0,60.0,8.0,0.0
13497,85.0,0.0,60.0,4.0,0.0
13498,85.0,0.0,60.0,0.0,0.0
13499,82.0,0.0,60.0,6.0,0.0
13500,51.0,0.0,90.0,1.0,0.0
13501,51.0,34.0,90.0,12.0,0.0
13502,58.0,48.0,60.0,7.0,0.0
13503,82.0,0.0,90.0,8.0,0.0
13504,79.0,0.0,90.0,6.0,0.0
13505,67.0,0.0,60.0,5.0,0.0
13506,82.0,0.0,90.0,4.0,0.0
13507,63.0,0.0,60.0,3.0,0.0
13508,79.0,0.0,90.0,10.0,0.0
13509,79.0,0.0,90.0,2.0,0.0
13510,70.0,0.0,90.0,11.0,0.0
13511,82.0,0.0,90.0,0.0,0.0
13512,64.0,0.0,60.0,3.0,0.0
13513,68.0,0.0,60.0,5.0,0.0
13514,59.0,0.0,60.0,7.0,0.0
13515,58.0,0.0,60.0,7.0,0.0
13516,87.0,14.0,30.0,8.0,0.0
13517,87.0,34.0,90.0,0.0,0.0
13518,63.0,48.0,60.0,3.0,0.0
13519,87.0,0.0,90.0,4.0,0.0
13520,67.0,0.0,60.0,5.0,0.0
13521,82.0,0.0,90.0,6.0,0.0
13522,51.0,0.0,90.0,1.0,0.0
13523,51.0,0.0,90.0,12.0,0.0
13524,67.0,0.0,90.0,11.0,0.0
13525,82.0,0.0,90.0,2.0,0.0
13526,82.0,0.0,30.0,10.0,0.0
13527,64.0,0.0,60.0,3.0,0.0
13528,68.0,0.0,60.0,5.0,0.0
13529,59.0,0.0,60.0,7.0,0.0
13530,51.0,0.0,90.0,1.0,0.0
13531,82.0,0.0,30.0,8.0,0.0
13532,82.0,0.0,90.0,4.0,0.0
13533,79.0,48.0,90.0,6.0,0.0
13534,58.0,0.0,60.0,7.0,0.0
13535,51.0,0.0,90.0,12.0,0.0
13536,63.0,0.0,60.0,3.0,0.0
13537,79.0,0.0,90.0,2.0,0.0
13538,70.0,0.0,90.0,11.0,0.0
13539,67.0,48.0,60.0,5.0,0.0
13540,82.0,0.0,90.0,0.0,0.0
13541,79.0,14.0,30.0,10.0,0.0
13542,68.0,0.0,60.0,5.0,0.0
13543,64.0,0.0,60.0,3.0,0.0
13544,59.0,0.0,60.0,7.0,0.0
13545,50.0,0.0,90.0,1.0,0.0
13546,80.0,0.0,60.0,6.0,0.0
13547,83.0,0.0,60.0,8.0,0.0
13548,50.0,0.0,90.0,12.0,0.0
13549,77.0,0.0,90.0,11.0,0.0
13550,80.0,0.0,60.0,2.0,0.0
13551,65.0,0.0,90.0,5.0,0.0
13552,80.0,0.0,60.0,10.0,0.0
13553,56.0,0.0,90.0,3.0,0.0
13554,83.0,0.0,60.0,0.0,0.0
13555,56.0,0.0,90.0,7.0,0.0
13556,83.0,48.0,60.0,4.0,0.0
13557,82.0,0.0,60.0,6.0,0.0
13558,82.0,0.0,60.0,2.0,0.0
13559,85.0,0.0,60.0,0.0,0.0
13560,82.0,48.0,60.0,10.0,0.0
13561,85.0,0.0,60.0,4.0,0.0
13562,85.0,0.0,60.0,8.0,0.0
13563,59.0,0.0,90.0,3.0,0.0
13564,80.0,0.0,60.0,6.0,0.0
13565,83.0,0.0,60.0,4.0,0.0
13566,50.0,0.0,90.0,12.0,0.0
13567,83.0,0.0,60.0,0.0,0.0
13568,50.0,0.0,90.0,1.0,0.0
13569,80.0,0.0,60.0,10.0,0.0
13570,65.0,0.0,90.0,7.0,0.0
13571,83.0,0.0,60.0,8.0,0.0
13572,68.0,0.0,90.0,5.0,0.0
13573,77.0,0.0,90.0,11.0,0.0
13574,80.0,48.0,60.0,2.0,0.0
13575,85.0,48.0,60.0,4.0,0.0
13576,82.0,0.0,60.0,2.0,0.0
13577,85.0,0.0,60.0,0.0,0.0
13578,85.0,0.0,60.0,8.0,0.0
13579,82.0,0.0,60.0,6.0,0.0
13580,82.0,0.0,60.0,10.0,0.0
13581,50.0,0.0,90.0,1.0,0.0
13582,65.0,0.0,90.0,5.0,0.0
13583,77.0,0.0,90.0,11.0,0.0
13584,83.0,0.0,60.0,0.0,0.0
13585,56.0,0.0,90.0,3.0,0.0
13586,83.0,0.0,60.0,8.0,0.0
13587,80.0,0.0,60.0,6.0,0.0
13588,50.0,48.0,90.0,12.0,0.0
13589,80.0,0.0,60.0,10.0,0.0
13590,62.0,0.0,90.0,7.0,0.0
13591,80.0,0.0,60.0,2.0,0.0
13592,83.0,48.0,60.0,4.0,0.0
13593,82.0,0.0,60.0,6.0,0.0
13594,85.0,0.0,60.0,4.0,0.0
13595,85.0,0.0,60.0,0.0,0.0
13596,82.0,0.0,60.0,2.0,0.0
13597,85.0,0.0,60.0,8.0,0.0
13598,82.0,0.0,60.0,10.0,0.0
13599,79.0,0.0,150.0,10.0,0.0
13600,67.0,0.0,150.0,5.0,0.0
13601,63.0,0.0,90.0,3.0,0.0
13602,70.0,0.0,150.0,11.0,0.0
13603,79.0,0.0,90.0,2.0,0.0
13604,82.0,0.0,150.0,8.0,0.0
13605,79.0,0.0,150.0,6.0,0.0
13606,82.0,30.0,150.0,4.0,0.0
13607,51.0,0.0,150.0,12.0,0.0
13608,82.0,48.0,60.0,0.0,0.0
13609,58.0,0.0,150.0,7.0,0.0
13610,51.0,0.0,90.0,1.0,0.0
13611,85.0,48.0,60.0,0.0,0.0
13612,85.0,18.0,60.0,0.0,0.0
13613,82.0,0.0,90.0,2.0,0.0
13614,67.0,0.0,90.0,3.0,0.0
13615,51.0,0.0,90.0,1.0,0.0
13616,82.0,48.0,60.0,0.0,0.0
13617,79.0,48.0,90.0,2.0,0.0
13618,51.0,0.0,90.0,1.0,0.0
13619,70.0,0.0,90.0,3.0,0.0
13620,82.0,48.0,60.0,0.0,0.0
13621,79.0,0.0,60.0,0.0,0.0
13622,73.0,30.0,150.0,2.0,0.0
13623,79.0,48.0,60.0,0.0,0.0
13624,63.0,48.0,90.0,5.0,0.0
13625,51.0,0.0,90.0,1.0,0.0
13626,75.0,0.0,150.0,2.0,0.0
13627,75.0,0.0,60.0,0.0,0.0
13628,75.0,18.0,60.0,0.0,0.0
13629,51.0,0.0,90.0,1.0,0.0
13630,67.0,0.0,90.0,5.0,0.0
13631,82.0,48.0,90.0,4.0,0.0
13632,76.0,0.0,60.0,0.0,0.0
13633,79.0,0.0,90.0,4.0,0.0
13634,70.0,0.0,90.0,5.0,0.0
13635,51.0,48.0,90.0,1.0,0.0
13636,76.0,48.0,60.0,0.0,0.0
13637,73.0,0.0,60.0,0.0,0.0
13638,63.0,0.0,90.0,7.0,0.0
13639,75.0,0.0,150.0,4.0,0.0
13640,73.0,48.0,60.0,0.0,0.0
13641,67.0,30.0,150.0,5.0,0.0
13642,51.0,48.0,90.0,1.0,0.0
13643,82.0,0.0,60.0,0.0,0.0
13644,51.0,0.0,90.0,12.0,0.0
13645,67.0,48.0,90.0,11.0,0.0
13646,82.0,0.0,90.0,6.0,0.0
13647,82.0,18.0,60.0,0.0,0.0
13648,67.0,0.0,90.0,7.0,0.0
13649,85.0,0.0,90.0,8.0,0.0
13650,75.0,0.0,90.0,10.0,0.0
13651,51.0,0.0,90.0,1.0,0.0
13652,85.0,0.0,60.0,0.0,0.0
13653,70.0,0.0,90.0,7.0,0.0
13654,85.0,48.0,60.0,0.0,0.0
13655,51.0,0.0,90.0,12.0,0.0
13656,51.0,0.0,90.0,1.0,0.0
13657,67.0,0.0,90.0,11.0,0.0
13658,85.0,0.0,90.0,8.0,0.0
13659,79.0,96.0,90.0,6.0,0.0
13660,75.0,0.0,90.0,10.0,0.0
13661,82.0,0.0,60.0,0.0,0.0
13662,75.0,0.0,90.0,10.0,0.0
13663,68.0,30.0,150.0,7.0,0.0
13664,56.0,0.0,150.0,1.0,0.0
13665,56.0,0.0,90.0,12.0,0.0
13666,68.0,48.0,90.0,11.0,0.0
13667,83.0,0.0,90.0,8.0,0.0
13668,75.0,0.0,150.0,6.0,0.0
13669,56.0,0.0,90.0,5.0,0.0
13670,83.0,0.0,150.0,0.0,0.0
13671,56.0,0.0,90.0,3.0,0.0
13672,80.0,0.0,60.0,4.0,0.0
13673,75.0,0.0,90.0,2.0,0.0
13674,60.0,48.0,90.0,3.0,0.0
13675,80.0,18.0,60.0,4.0,0.0
13676,56.0,0.0,90.0,5.0,0.0
13677,75.0,0.0,60.0,4.0,0.0
13678,63.0,0.0,90.0,3.0,0.0
13679,56.0,0.0,90.0,5.0,0.0
13680,75.0,48.0,60.0,4.0,0.0
13681,72.0,48.0,90.0,2.0,0.0
13682,72.0,0.0,60.0,4.0,0.0
13683,72.0,48.0,60.0,4.0,0.0
13684,56.0,0.0,90.0,1.0,0.0
13685,68.0,30.0,150.0,2.0,0.0
13686,66.0,0.0,150.0,3.0,0.0
13687,56.0,48.0,90.0,5.0,0.0
13688,68.0,0.0,60.0,4.0,0.0
13689,68.0,18.0,60.0,4.0,0.0
13690,60.0,0.0,90.0,1.0,0.0
13691,56.0,0.0,90.0,5.0,0.0
13692,75.0,48.0,90.0,0.0,0.0
13693,69.0,0.0,60.0,4.0,0.0
13694,56.0,0.0,90.0,5.0,0.0
13695,63.0,0.0,90.0,1.0,0.0
13696,69.0,48.0,60.0,4.0,0.0
13697,72.0,48.0,90.0,0.0,0.0
13698,66.0,0.0,60.0,4.0,0.0
13699,68.0,0.0,150.0,0.0,0.0
13700,60.0,30.0,150.0,1.0,0.0
13701,66.0,48.0,60.0,4.0,0.0
13702,56.0,0.0,90.0,7.0,0.0
13703,56.0,48.0,90.0,5.0,0.0
13704,75.0,0.0,60.0,4.0,0.0
13705,56.0,0.0,90.0,5.0,0.0
13706,84.0,0.0,90.0,8.0,0.0
13707,78.0,0.0,90.0,10.0,0.0
13708,75.0,18.0,60.0,4.0,0.0
13709,56.0,0.0,90.0,12.0,0.0
13710,68.0,0.0,90.0,11.0,0.0
13711,60.0,0.0,90.0,7.0,0.0
13712,75.0,48.0,90.0,6.0,0.0
13713,78.0,0.0,60.0,4.0,0.0
13714,78.0,48.0,60.0,4.0,0.0
13715,56.0,0.0,90.0,12.0,0.0
13716,78.0,0.0,90.0,10.0,0.0
13717,84.0,0.0,90.0,8.0,0.0
13718,68.0,0.0,90.0,11.0,0.0
13719,72.0,0.0,90.0,6.0,0.0
13720,63.0,0.0,90.0,7.0,0.0
13721,56.0,96.0,90.0,5.0,0.0
13722,75.0,0.0,60.0,4.0,0.0
13723,76.0,48.0,90.0,10.0,0.0
13724,49.0,30.0,150.0,5.0,0.0
13725,68.0,0.0,150.0,6.0,0.0
13726,68.0,0.0,90.0,11.0,0.0
13727,49.0,0.0,90.0,3.0,0.0
13728,76.0,0.0,150.0,4.0,0.0
13729,85.0,0.0,90.0,8.0,0.0
13730,49.0,0.0,90.0,12.0,0.0
13731,61.0,0.0,90.0,1.0,0.0
13732,61.0,0.0,150.0,7.0,0.0
13733,85.0,0.0,60.0,2.0,0.0
13734,65.0,0.0,90.0,1.0,0.0
13735,85.0,18.0,60.0,2.0,0.0
13736,49.0,48.0,90.0,3.0,0.0
13737,80.0,0.0,90.0,0.0,0.0
13738,80.0,0.0,60.0,2.0,0.0
13739,77.0,0.0,90.0,0.0,0.0
13740,68.0,0.0,90.0,1.0,0.0
13741,49.0,48.0,90.0,3.0,0.0
13742,80.0,48.0,60.0,2.0,0.0
13743,77.0,0.0,60.0,2.0,0.0
13744,71.0,30.0,150.0,1.0,0.0
13745,73.0,0.0,150.0,0.0,0.0
13746,77.0,48.0,60.0,2.0,0.0
13747,49.0,0.0,90.0,3.0,0.0
13748,61.0,48.0,90.0,7.0,0.0
13749,73.0,0.0,60.0,2.0,0.0
13750,49.0,0.0,90.0,3.0,0.0
13751,73.0,18.0,60.0,2.0,0.0
13752,65.0,48.0,90.0,7.0,0.0
13753,80.0,0.0,90.0,6.0,0.0
13754,74.0,0.0,60.0,2.0,0.0
13755,74.0,48.0,60.0,2.0,0.0
13756,77.0,0.0,90.0,6.0,0.0
13757,68.0,48.0,90.0,7.0,0.0
13758,49.0,0.0,90.0,3.0,0.0
13759,71.0,0.0,60.0,2.0,0.0
13760,65.0,30.0,150.0,7.0,0.0
13761,71.0,48.0,60.0,2.0,0.0
13762,49.0,0.0,90.0,3.0,0.0
13763,73.0,0.0,150.0,6.0,0.0
13764,61.0,48.0,90.0,5.0,0.0
13765,80.0,0.0,60.0,2.0,0.0
13766,65.0,48.0,90.0,5.0,0.0
13767,65.0,0.0,90.0,11.0,0.0
13768,80.0,18.0,60.0,2.0,0.0
13769,73.0,0.0,90.0,10.0,0.0
13770,49.0,0.0,90.0,12.0,0.0
13771,80.0,0.0,90.0,4.0,0.0
13772,83.0,0.0,90.0,8.0,0.0
13773,49.0,0.0,90.0,3.0,0.0
13774,83.0,0.0,60.0,2.0,0.0
13775,49.0,0.0,90.0,12.0,0.0
13776,73.0,0.0,90.0,10.0,0.0
13777,83.0,48.0,60.0,2.0,0.0
13778,65.0,0.0,90.0,11.0,0.0
13779,49.0,0.0,90.0,3.0,0.0
13780,77.0,0.0,90.0,4.0,0.0
13781,83.0,0.0,90.0,8.0,0.0
13782,68.0,0.0,90.0,5.0,0.0
13783,80.0,96.0,60.0,2.0,0.0
13784,73.0,0.0,90.0,10.0,0.0
13785,54.0,0.0,90.0,12.0,0.0
13786,54.0,0.0,90.0,1.0,0.0
13787,54.0,0.0,150.0,3.0,0.0
13788,54.0,0.0,90.0,7.0,0.0
13789,81.0,30.0,150.0,2.0,0.0
13790,66.0,0.0,90.0,11.0,0.0
13791,66.0,0.0,150.0,5.0,0.0
13792,81.0,0.0,90.0,8.0,0.0
13793,73.0,0.0,150.0,4.0,0.0
13794,78.0,48.0,60.0,6.0,0.0
13795,78.0,18.0,60.0,6.0,0.0
13796,73.0,0.0,90.0,0.0,0.0
13797,58.0,0.0,90.0,1.0,0.0
13798,54.0,48.0,90.0,7.0,0.0
13799,73.0,0.0,60.0,6.0,0.0
13800,73.0,48.0,60.0,6.0,0.0
13801,61.0,0.0,90.0,1.0,0.0
13802,70.0,0.0,90.0,0.0,0.0
13803,54.0,48.0,90.0,7.0,0.0
13804,70.0,0.0,60.0,6.0,0.0
13805,64.0,0.0,150.0,1.0,0.0
13806,66.0,30.0,150.0,0.0,0.0
13807,70.0,48.0,60.0,6.0,0.0
13808,54.0,48.0,90.0,5.0,0.0
13809,54.0,0.0,90.0,7.0,0.0
13810,66.0,0.0,60.0,6.0,0.0
13811,66.0,18.0,60.0,6.0,0.0
13812,54.0,0.0,90.0,7.0,0.0
13813,58.0,0.0,90.0,5.0,0.0
13814,73.0,48.0,90.0,4.0,0.0
13815,67.0,0.0,60.0,6.0,0.0
13816,54.0,0.0,90.0,7.0,0.0
13817,61.0,0.0,90.0,5.0,0.0
13818,67.0,48.0,60.0,6.0,0.0
13819,70.0,48.0,90.0,4.0,0.0
13820,64.0,0.0,60.0,6.0,0.0
13821,64.0,48.0,60.0,6.0,0.0
13822,54.0,48.0,90.0,3.0,0.0
13823,58.0,30.0,150.0,5.0,0.0
13824,54.0,0.0,90.0,7.0,0.0
13825,66.0,0.0,150.0,4.0,0.0
13826,73.0,0.0,60.0,6.0,0.0
13827,82.0,0.0,90.0,8.0,0.0
13828,73.0,18.0,60.0,6.0,0.0
13829,54.0,0.0,90.0,7.0,0.0
13830,58.0,0.0,90.0,3.0,0.0
13831,66.0,48.0,90.0,11.0,0.0
13832,73.0,0.0,90.0,2.0,0.0
13833,76.0,0.0,90.0,10.0,0.0
13834,54.0,0.0,90.0,12.0,0.0
13835,76.0,0.0,60.0,6.0,0.0
13836,61.0,0.0,90.0,3.0,0.0
13837,82.0,0.0,90.0,8.0,0.0
13838,54.0,96.0,90.0,7.0,0.0
13839,54.0,0.0,90.0,12.0,0.0
13840,70.0,0.0,90.0,2.0,0.0
13841,76.0,48.0,60.0,6.0,0.0
13842,76.0,0.0,90.0,10.0,0.0
13843,66.0,0.0,90.0,11.0,0.0
13844,73.0,0.0,60.0,6.0,0.0
13845,59.0,30.0,150.0,3.0,0.0
13846,47.0,0.0,90.0,5.0,0.0
13847,47.0,0.0,90.0,12.0,0.0
13848,59.0,0.0,90.0,1.0,0.0
13849,74.0,0.0,90.0,10.0,0.0
13850,66.0,0.0,90.0,11.0,0.0
13851,47.0,0.0,90.0,7.0,0.0
13852,83.0,0.0,90.0,8.0,0.0
13853,74.0,0.0,90.0,6.0,0.0
13854,66.0,0.0,150.0,2.0,0.0
13855,78.0,48.0,60.0,4.0,0.0
13856,47.0,0.0,90.0,5.0,0.0
13857,78.0,18.0,60.0,4.0,0.0
13858,63.0,0.0,90.0,1.0,0.0
13859,83.0,0.0,90.0,0.0,0.0
13860,76.0,48.0,60.0,4.0,0.0
13861,66.0,0.0,90.0,1.0,0.0
13862,76.0,48.0,60.0,4.0,0.0
13863,47.0,0.0,90.0,5.0,0.0
13864,78.0,48.0,90.0,0.0,0.0
13865,75.0,0.0,60.0,4.0,0.0
13866,47.0,0.0,90.0,5.0,0.0
13867,69.0,0.0,150.0,1.0,0.0
13868,71.0,30.0,150.0,0.0,0.0
13869,59.0,0.0,90.0,7.0,0.0
13870,75.0,48.0,60.0,4.0,0.0
13871,69.0,48.0,60.0,4.0,0.0
13872,47.0,0.0,90.0,5.0,0.0
13873,71.0,0.0,90.0,10.0,0.0
13874,78.0,0.0,90.0,6.0,0.0
13875,63.0,0.0,90.0,7.0,0.0
13876,69.0,18.0,60.0,4.0,0.0
13877,47.0,0.0,90.0,12.0,0.0
13878,81.0,48.0,90.0,8.0,0.0
13879,63.0,0.0,90.0,11.0,0.0
13880,75.0,0.0,60.0,4.0,0.0
13881,63.0,0.0,90.0,11.0,0.0
13882,47.0,0.0,90.0,5.0,0.0
13883,71.0,0.0,90.0,10.0,0.0
13884,75.0,48.0,60.0,4.0,0.0
13885,81.0,0.0,90.0,8.0,0.0
13886,75.0,0.0,90.0,6.0,0.0
13887,66.0,0.0,90.0,7.0,0.0
13888,47.0,0.0,90.0,12.0,0.0
13889,76.0,96.0,60.0,4.0,0.0
13890,68.0,30.0,150.0,7.0,0.0
13891,80.0,0.0,90.0,8.0,0.0
13892,59.0,0.0,90.0,1.0,0.0
13893,71.0,0.0,150.0,6.0,0.0
13894,71.0,48.0,90.0,10.0,0.0
13895,52.0,0.0,150.0,5.0,0.0
13896,76.0,0.0,150.0,4.0,0.0
13897,52.0,0.0,90.0,12.0,0.0
13898,64.0,0.0,90.0,11.0,0.0
13899,80.0,0.0,60.0,2.0,0.0
13900,80.0,18.0,60.0,2.0,0.0
13901,52.0,0.0,90.0,3.0,0.0
13902,83.0,48.0,90.0,0.0,0.0
13903,64.0,0.0,90.0,1.0,0.0
13904,78.0,0.0,60.0,2.0,0.0
13905,68.0,0.0,90.0,1.0,0.0
13906,71.0,48.0,90.0,0.0,0.0
13907,50.0,0.0,90.0,3.0,0.0
13908,78.0,48.0,60.0,2.0,0.0
13909,77.0,0.0,60.0,2.0,0.0
13910,49.0,48.0,90.0,3.0,0.0
13911,77.0,48.0,60.0,2.0,0.0
13912,61.0,0.0,90.0,5.0,0.0
13913,56.0,0.0,150.0,1.0,0.0
13914,71.0,30.0,150.0,0.0,0.0
13915,71.0,0.0,60.0,2.0,0.0
13916,77.0,0.0,90.0,8.0,0.0
13917,49.0,0.0,90.0,12.0,0.0
13918,80.0,48.0,90.0,4.0,0.0
13919,68.0,0.0,90.0,11.0,0.0
13920,65.0,0.0,90.0,5.0,0.0
13921,71.0,18.0,60.0,2.0,0.0
13922,49.0,0.0,90.0,3.0,0.0
13923,73.0,0.0,90.0,10.0,0.0
13924,77.0,0.0,60.0,2.0,0.0
13925,68.0,0.0,90.0,5.0,0.0
13926,68.0,96.0,90.0,11.0,0.0
13927,49.0,0.0,90.0,3.0,0.0
13928,77.0,48.0,60.0,2.0,0.0
13929,77.0,0.0,90.0,4.0,0.0
13930,77.0,0.0,90.0,8.0,0.0
13931,49.0,0.0,90.0,12.0,0.0
13932,73.0,0.0,90.0,10.0,0.0
13933,78.0,0.0,60.0,2.0,0.0
13934,78.0,0.0,90.0,8.0,0.0
13935,54.0,0.0,90.0,12.0,0.0
13936,78.0,30.0,150.0,2.0,0.0
13937,54.0,0.0,150.0,3.0,0.0
13938,69.0,48.0,90.0,11.0,0.0
13939,61.0,0.0,90.0,1.0,0.0
13940,69.0,0.0,150.0,5.0,0.0
13941,73.0,0.0,90.0,10.0,0.0
13942,73.0,0.0,150.0,4.0,0.0
13943,81.0,0.0,60.0,6.0,0.0
13944,85.0,0.0,90.0,0.0,0.0
13945,81.0,18.0,60.0,6.0,0.0
13946,54.0,0.0,90.0,7.0,0.0
13947,66.0,0.0,90.0,1.0,0.0
13948,85.0,48.0,60.0,6.0,0.0
13949,73.0,0.0,90.0,0.0,0.0
13950,70.0,0.0,90.0,1.0,0.0
13951,52.0,0.0,90.0,7.0,0.0
13952,85.0,48.0,60.0,6.0,0.0
13953,79.0,48.0,60.0,6.0,0.0
13954,58.0,0.0,150.0,1.0,0.0
13955,79.0,48.0,60.0,6.0,0.0
13956,63.0,0.0,90.0,3.0,0.0
13957,73.0,30.0,150.0,0.0,0.0
13958,51.0,0.0,90.0,7.0,0.0
13959,75.0,48.0,60.0,6.0,0.0
13960,82.0,0.0,90.0,2.0,0.0
13961,75.0,18.0,60.0,6.0,0.0
13962,70.0,0.0,90.0,11.0,0.0
13963,51.0,0.0,90.0,12.0,0.0
13964,67.0,0.0,90.0,3.0,0.0
13965,79.0,0.0,90.0,8.0,0.0
13966,75.0,0.0,90.0,10.0,0.0
13967,51.0,48.0,90.0,7.0,0.0
13968,76.0,0.0,60.0,6.0,0.0
13969,75.0,0.0,90.0,10.0,0.0
13970,79.0,96.0,90.0,2.0,0.0
13971,76.0,48.0,60.0,6.0,0.0
13972,79.0,0.0,90.0,8.0,0.0
13973,70.0,0.0,90.0,3.0,0.0
13974,51.0,0.0,90.0,12.0,0.0
13975,51.0,0.0,90.0,7.0,0.0
13976,70.0,0.0,90.0,11.0,0.0
13977,73.0,0.0,60.0,6.0,0.0
13978,56.0,0.0,90.0,12.0,0.0
13979,71.0,30.0,150.0,3.0,0.0
13980,75.0,0.0,150.0,2.0,0.0
13981,71.0,0.0,150.0,6.0,0.0
13982,71.0,0.0,90.0,11.0,0.0
13983,56.0,0.0,150.0,7.0,0.0
13984,80.0,0.0,90.0,8.0,0.0
13985,75.0,0.0,90.0,10.0,0.0
13986,44.0,0.0,90.0,1.0,0.0
13987,68.0,48.0,60.0,0.0,0.0
13988,68.0,18.0,60.0,0.0,0.0
13989,47.0,48.0,90.0,1.0,0.0
13990,71.0,0.0,60.0,0.0,0.0
13991,51.0,0.0,90.0,1.0,0.0
13992,71.0,48.0,60.0,0.0,0.0
13993,75.0,48.0,60.0,0.0,0.0
13994,75.0,48.0,60.0,0.0,0.0
13995,56.0,48.0,90.0,1.0,0.0
13996,80.0,0.0,60.0,0.0,0.0
13997,59.0,48.0,90.0,1.0,0.0
13998,80.0,48.0,60.0,0.0,0.0
13999,83.0,0.0,60.0,0.0,0.0
14000,62.0,48.0,90.0,1.0,0.0
14001,83.0,48.0,60.0,0.0,0.0
14002,77.0,0.0,60.0,0.0,0.0
14003,61.0,48.0,90.0,1.0,0.0
14004,77.0,48.0,60.0,0.0,0.0
14005,73.0,0.0,60.0,0.0,0.0
14006,73.0,48.0,60.0,0.0,0.0
14007,53.0,48.0,90.0,1.0,0.0
14008,83.0,0.0,60.0,0.0,0.0
14009,83.0,48.0,60.0,0.0,0.0
14010,49.0,50.0,90.0,1.0,0.0
14011,81.0,0.0,60.0,0.0,0.0
14012,81.0,46.0,60.0,0.0,0.0
14013,54.0,2.0,90.0,1.0,0.0
14014,83.0,48.0,60.0,0.0,0.0
14015,57.0,2.0,90.0,1.0,0.0
14016,85.0,46.0,60.0,0.0,0.0
14017,78.0,48.0,60.0,0.0,0.0
14018,80.0,46.0,60.0,0.0,0.0
14019,54.0,50.0,90.0,1.0,0.0
14020,76.0,0.0,60.0,0.0,0.0
14021,59.0,2.0,90.0,1.0,0.0
14022,75.0,46.0,60.0,0.0,0.0
14023,76.0,48.0,60.0,0.0,0.0
14024,63.0,2.0,90.0,1.0,0.0
14025,78.0,46.0,60.0,0.0,0.0
14026,71.0,48.0,60.0,0.0,0.0
14027,59.0,50.0,90.0,1.0,0.0
14028,73.0,46.0,60.0,0.0,0.0
14029,69.0,0.0,60.0,0.0,0.0
14030,68.0,46.0,60.0,0.0,0.0
14031,64.0,2.0,90.0,1.0,0.0
14032,71.0,48.0,60.0,0.0,0.0
14033,56.0,2.0,90.0,1.0,0.0
14034,76.0,46.0,60.0,0.0,0.0
14035,68.0,48.0,60.0,0.0,0.0
14036,57.0,96.0,90.0,1.0,0.0
14037,66.0,46.0,60.0,0.0,0.0
14038,64.0,0.0,60.0,0.0,0.0
14039,59.0,48.0,90.0,1.0,0.0
14040,66.0,0.0,60.0,0.0,0.0
14041,76.0,48.0,60.0,0.0,0.0
14042,54.0,48.0,90.0,1.0,0.0
14043,74.0,0.0,60.0,0.0,0.0
14044,56.0,0.0,90.0,1.0,0.0
14045,64.0,48.0,60.0,0.0,0.0
14046,74.0,48.0,60.0,0.0,0.0
14047,57.0,48.0,60.0,1.0,0.0
14048,74.0,46.0,90.0,0.0,0.0
14049,64.0,2.0,60.0,1.0,0.0
14050,73.0,48.0,60.0,0.0,0.0
14051,69.0,0.0,60.0,1.0,0.0
14052,71.0,48.0,60.0,1.0,0.0
14053,76.0,0.0,60.0,0.0,0.0
14054,69.0,0.0,60.0,1.0,0.0
14055,78.0,48.0,60.0,0.0,0.0
14056,68.0,0.0,60.0,1.0,0.0
14057,80.0,48.0,60.0,0.0,0.0
14058,66.0,48.0,60.0,1.0,0.0
14059,81.0,0.0,60.0,0.0,0.0
14060,64.0,48.0,60.0,1.0,0.0
14061,80.0,0.0,60.0,0.0,0.0
14062,78.0,0.0,60.0,0.0,0.0
14063,63.0,48.0,60.0,1.0,0.0
14064,76.0,0.0,60.0,0.0,0.0
14065,61.0,48.0,60.0,1.0,0.0
14066,60.0,48.0,60.0,1.0,0.0
14067,75.0,0.0,60.0,0.0,0.0
14068,73.0,0.0,60.0,0.0,0.0
14069,58.0,48.0,60.0,1.0,0.0
14070,56.0,48.0,60.0,1.0,0.0
14071,72.0,0.0,60.0,0.0,0.0
14072,75.0,0.0,60.0,0.0,0.0
14073,60.0,48.0,60.0,1.0,0.0
14074,63.0,0.0,60.0,1.0,0.0
14075,78.0,48.0,60.0,0.0,0.0
14076,66.0,0.0,60.0,1.0,0.0
14077,81.0,48.0,60.0,0.0,0.0
14078,80.0,48.0,60.0,0.0,0.0
14079,64.0,0.0,60.0,1.0,0.0
14080,78.0,0.0,60.0,0.0,0.0
14081,63.0,96.0,60.0,1.0,0.0
14082,76.0,0.0,330.0,0.0,0.0
14083,61.0,30.0,270.0,0.0,0.0
14084,72.0,48.0,60.0,1.0,0.0
14085,73.0,48.0,60.0,1.0,0.0
14086,68.0,48.0,60.0,1.0,0.0
14087,64.0,18.0,60.0,1.0,0.0
14088,60.0,48.0,60.0,1.0,0.0
14089,73.0,0.0,90.0,10.0,0.0
14090,49.0,0.0,90.0,12.0,0.0
14091,49.0,0.0,90.0,5.0,0.0
14092,68.0,0.0,90.0,11.0,0.0
14093,61.0,0.0,90.0,3.0,0.0
14094,61.0,48.0,90.0,1.0,0.0
14095,49.0,0.0,90.0,7.0,0.0
14096,76.0,0.0,60.0,4.0,0.0
14097,73.0,48.0,60.0,6.0,0.0
14098,76.0,0.0,90.0,8.0,0.0
14099,73.0,0.0,60.0,2.0,0.0
14100,76.0,0.0,60.0,2.0,0.0
14101,80.0,0.0,60.0,4.0,0.0
14102,73.0,0.0,60.0,0.0,0.0
14103,68.0,0.0,60.0,6.0,0.0
14104,56.0,0.0,90.0,3.0,0.0
14105,76.0,0.0,60.0,4.0,0.0
14106,61.0,0.0,90.0,7.0,0.0
14107,52.0,0.0,90.0,5.0,0.0
14108,73.0,0.0,90.0,10.0,0.0
14109,49.0,0.0,90.0,12.0,0.0
14110,76.0,0.0,90.0,8.0,0.0
14111,68.0,0.0,90.0,11.0,0.0
14112,68.0,48.0,60.0,0.0,0.0
14113,73.0,0.0,60.0,2.0,0.0
14114,73.0,0.0,60.0,6.0,0.0
14115,61.0,0.0,90.0,1.0,0.0
14116,49.0,0.0,90.0,1.0,0.0
14117,76.0,0.0,60.0,6.0,0.0
14118,68.0,0.0,60.0,2.0,0.0
14119,73.0,0.0,60.0,0.0,0.0
14120,73.0,48.0,60.0,4.0,0.0
14121,73.0,0.0,60.0,2.0,0.0
14122,49.0,0.0,90.0,7.0,0.0
14123,49.0,0.0,90.0,12.0,0.0
14124,68.0,48.0,90.0,11.0,0.0
14125,73.0,0.0,90.0,10.0,0.0
14126,76.0,0.0,90.0,8.0,0.0
14127,76.0,48.0,60.0,0.0,0.0
14128,73.0,0.0,60.0,6.0,0.0
14129,49.0,0.0,90.0,1.0,0.0
14130,56.0,0.0,90.0,5.0,0.0
14131,49.0,0.0,90.0,3.0,0.0
14132,61.0,0.0,90.0,1.0,0.0
14133,68.0,0.0,60.0,4.0,0.0
14134,73.0,0.0,60.0,4.0,0.0
14135,76.0,0.0,60.0,2.0,0.0
14136,68.0,0.0,60.0,6.0,0.0
14137,73.0,0.0,60.0,0.0,0.0
14138,73.0,0.0,90.0,10.0,0.0
14139,54.0,0.0,90.0,1.0,0.0
14140,75.0,0.0,60.0,4.0,0.0
14141,57.0,0.0,90.0,7.0,0.0
14142,42.0,0.0,90.0,1.0,0.0
14143,54.0,0.0,90.0,3.0,0.0
14144,54.0,0.0,90.0,5.0,0.0
14145,54.0,0.0,90.0,12.0,0.0
14146,75.0,0.0,60.0,0.0,0.0
14147,75.0,0.0,90.0,8.0,0.0
14148,69.0,0.0,90.0,11.0,0.0
14149,73.0,0.0,60.0,6.0,0.0
14150,73.0,48.0,60.0,2.0,0.0
14151,78.0,0.0,60.0,4.0,0.0
14152,69.0,0.0,60.0,6.0,0.0
14153,73.0,48.0,60.0,0.0,0.0
14154,75.0,0.0,60.0,2.0,0.0
14155,57.0,0.0,90.0,3.0,0.0
14156,42.0,0.0,90.0,5.0,0.0
14157,75.0,0.0,60.0,4.0,0.0
14158,75.0,0.0,90.0,8.0,0.0
14159,69.0,0.0,60.0,0.0,0.0
14160,69.0,0.0,90.0,11.0,0.0
14161,73.0,0.0,60.0,2.0,0.0
14162,54.0,0.0,90.0,7.0,0.0
14163,73.0,0.0,90.0,10.0,0.0
14164,73.0,48.0,60.0,6.0,0.0
14165,42.0,0.0,90.0,1.0,0.0
14166,54.0,0.0,90.0,1.0,0.0
14167,54.0,0.0,90.0,12.0,0.0
14168,73.0,0.0,60.0,4.0,0.0
14169,75.0,0.0,60.0,6.0,0.0
14170,69.0,48.0,60.0,2.0,0.0
14171,73.0,0.0,60.0,0.0,0.0
14172,42.0,0.0,90.0,1.0,0.0
14173,75.0,0.0,60.0,0.0,0.0
14174,69.0,48.0,60.0,4.0,0.0
14175,57.0,0.0,90.0,7.0,0.0
14176,54.0,0.0,90.0,1.0,0.0
14177,73.0,0.0,60.0,2.0,0.0
14178,75.0,0.0,90.0,8.0,0.0
14179,54.0,0.0,90.0,5.0,0.0
14180,73.0,0.0,90.0,10.0,0.0
14181,54.0,0.0,90.0,12.0,0.0
14182,51.0,0.0,90.0,3.0,0.0
14183,73.0,0.0,60.0,6.0,0.0
14184,69.0,48.0,90.0,11.0,0.0
14185,69.0,0.0,60.0,6.0,0.0
14186,73.0,0.0,60.0,0.0,0.0
14187,73.0,0.0,60.0,4.0,0.0
14188,75.0,0.0,60.0,2.0,0.0
14189,72.0,0.0,60.0,2.0,0.0
14190,75.0,0.0,60.0,0.0,0.0
14191,72.0,0.0,60.0,6.0,0.0
14192,56.0,0.0,90.0,3.0,0.0
14193,68.0,0.0,90.0,11.0,0.0
14194,56.0,0.0,90.0,5.0,0.0
14195,56.0,48.0,90.0,1.0,0.0
14196,75.0,48.0,60.0,4.0,0.0
14197,72.0,0.0,90.0,10.0,0.0
14198,51.0,0.0,90.0,7.0,0.0
14199,44.0,0.0,90.0,1.0,0.0
14200,75.0,0.0,90.0,8.0,0.0
14201,56.0,0.0,90.0,12.0,0.0
14202,75.0,0.0,60.0,2.0,0.0
14203,68.0,0.0,60.0,6.0,0.0
14204,72.0,0.0,60.0,0.0,0.0
14205,78.0,0.0,60.0,4.0,0.0
14206,68.0,48.0,60.0,0.0,0.0
14207,68.0,0.0,90.0,11.0,0.0
14208,56.0,0.0,90.0,12.0,0.0
14209,63.0,0.0,90.0,5.0,0.0
14210,72.0,0.0,90.0,10.0,0.0
14211,75.0,48.0,90.0,8.0,0.0
14212,56.0,0.0,90.0,7.0,0.0
14213,44.0,0.0,90.0,3.0,0.0
14214,75.0,0.0,60.0,4.0,0.0
14215,72.0,0.0,60.0,6.0,0.0
14216,44.0,0.0,90.0,1.0,0.0
14217,56.0,0.0,90.0,1.0,0.0
14218,72.0,0.0,60.0,2.0,0.0
14219,72.0,0.0,60.0,4.0,0.0
14220,68.0,0.0,60.0,2.0,0.0
14221,75.0,0.0,60.0,6.0,0.0
14222,72.0,0.0,60.0,0.0,0.0
14223,72.0,0.0,90.0,10.0,0.0
14224,44.0,0.0,90.0,1.0,0.0
14225,56.0,0.0,90.0,1.0,0.0
14226,72.0,48.0,60.0,6.0,0.0
14227,75.0,48.0,90.0,8.0,0.0
14228,72.0,0.0,60.0,2.0,0.0
14229,75.0,0.0,60.0,0.0,0.0
14230,44.0,0.0,90.0,7.0,0.0
14231,56.0,0.0,90.0,3.0,0.0
14232,66.0,0.0,90.0,11.0,0.0
14233,66.0,0.0,90.0,5.0,0.0
14234,68.0,0.0,60.0,4.0,0.0
14235,56.0,0.0,90.0,12.0,0.0
14236,72.0,0.0,60.0,0.0,0.0
14237,68.0,0.0,60.0,6.0,0.0
14238,72.0,0.0,60.0,4.0,0.0
14239,75.0,0.0,60.0,2.0,0.0
14240,73.0,0.0,150.0,6.0,0.0
14241,73.0,0.0,90.0,2.0,0.0
14242,73.0,0.0,90.0,8.0,0.0
14243,49.0,0.0,90.0,3.0,0.0
14244,73.0,0.0,150.0,4.0,0.0
14245,64.0,0.0,150.0,5.0,0.0
14246,68.0,0.0,150.0,6.0,0.0
14247,49.0,0.0,150.0,7.0,0.0
14248,61.0,0.0,150.0,5.0,0.0
14249,68.0,0.0,90.0,10.0,0.0
14250,64.0,30.0,150.0,6.0,0.0
14251,49.0,0.0,60.0,1.0,0.0
14252,73.0,48.0,60.0,0.0,0.0
14253,64.0,0.0,90.0,11.0,0.0
14254,49.0,48.0,90.0,12.0,0.0
14255,65.0,0.0,60.0,1.0,0.0
14256,80.0,0.0,60.0,0.0,0.0
14257,78.0,0.0,60.0,0.0,0.0
14258,63.0,18.0,60.0,1.0,0.0
14259,80.0,48.0,60.0,0.0,0.0
14260,65.0,0.0,60.0,1.0,0.0
14261,49.0,0.0,90.0,3.0,0.0
14262,61.0,48.0,60.0,1.0,0.0
14263,61.0,0.0,90.0,2.0,0.0
14264,65.0,0.0,90.0,2.0,0.0
14265,68.0,0.0,90.0,2.0,0.0
14266,77.0,0.0,60.0,0.0,0.0
14267,80.0,0.0,60.0,0.0,0.0
14268,65.0,48.0,60.0,1.0,0.0
14269,61.0,0.0,90.0,3.0,0.0
14270,73.0,48.0,60.0,0.0,0.0
14271,73.0,0.0,90.0,2.0,0.0
14272,68.0,0.0,90.0,2.0,0.0
14273,65.0,0.0,90.0,2.0,0.0
14274,49.0,0.0,60.0,1.0,0.0
14275,65.0,0.0,60.0,1.0,0.0
14276,80.0,48.0,60.0,0.0,0.0
14277,63.0,48.0,60.0,1.0,0.0
14278,78.0,0.0,60.0,0.0,0.0
14279,80.0,48.0,60.0,0.0,0.0
14280,65.0,0.0,60.0,1.0,0.0
14281,61.0,48.0,60.0,1.0,0.0
14282,68.0,0.0,90.0,2.0,0.0
14283,65.0,0.0,90.0,2.0,0.0
14284,73.0,0.0,90.0,2.0,0.0
14285,49.0,0.0,90.0,3.0,0.0
14286,77.0,0.0,60.0,0.0,0.0
14287,80.0,0.0,60.0,0.0,0.0
14288,65.0,48.0,60.0,1.0,0.0
14289,68.0,0.0,90.0,2.0,0.0
14290,77.0,48.0,90.0,2.0,0.0
14291,49.0,0.0,60.0,1.0,0.0
14292,61.0,0.0,90.0,3.0,0.0
14293,73.0,48.0,60.0,0.0,0.0
14294,73.0,0.0,90.0,2.0,0.0
14295,65.0,0.0,60.0,1.0,0.0
14296,80.0,0.0,60.0,0.0,0.0
14297,63.0,48.0,60.0,1.0,0.0
14298,78.0,0.0,60.0,0.0,0.0
14299,65.0,48.0,60.0,1.0,0.0
14300,80.0,0.0,60.0,0.0,0.0
14301,61.0,48.0,60.0,1.0,0.0
14302,68.0,0.0,90.0,2.0,0.0
14303,77.0,0.0,90.0,2.0,0.0
14304,49.0,0.0,90.0,3.0,0.0
14305,73.0,0.0,90.0,2.0,0.0
14306,77.0,0.0,60.0,0.0,0.0
14307,80.0,48.0,60.0,0.0,0.0
14308,65.0,0.0,60.0,1.0,0.0
14309,61.0,0.0,90.0,3.0,0.0
14310,73.0,0.0,90.0,2.0,0.0
14311,77.0,0.0,90.0,2.0,0.0
14312,49.0,0.0,60.0,1.0,0.0
14313,80.0,48.0,90.0,2.0,0.0
14314,71.0,48.0,60.0,0.0,0.0
14315,80.0,0.0,60.0,0.0,0.0
14316,65.0,0.0,60.0,1.0,0.0
14317,78.0,48.0,60.0,0.0,0.0
14318,63.0,0.0,60.0,1.0,0.0
14319,65.0,0.0,60.0,1.0,0.0
14320,80.0,48.0,60.0,0.0,0.0
14321,49.0,0.0,90.0,3.0,0.0
14322,61.0,48.0,60.0,1.0,0.0
14323,73.0,0.0,90.0,2.0,0.0
14324,77.0,0.0,90.0,2.0,0.0
14325,77.0,0.0,60.0,0.0,0.0
14326,80.0,48.0,90.0,2.0,0.0
14327,80.0,0.0,60.0,0.0,0.0
14328,65.0,0.0,60.0,1.0,0.0
14329,83.0,48.0,90.0,2.0,0.0
14330,80.0,0.0,90.0,2.0,0.0
14331,77.0,0.0,90.0,2.0,0.0
14332,73.0,0.0,90.0,2.0,0.0
14333,49.0,0.0,60.0,1.0,0.0
14334,71.0,48.0,60.0,0.0,0.0
14335,61.0,0.0,90.0,3.0,0.0
14336,65.0,0.0,60.0,1.0,0.0
14337,80.0,0.0,60.0,0.0,0.0
14338,83.0,0.0,90.0,8.0,0.0
14339,49.0,0.0,90.0,12.0,0.0
14340,78.0,48.0,60.0,0.0,0.0
14341,77.0,0.0,90.0,10.0,0.0
14342,68.0,0.0,90.0,11.0,0.0
14343,63.0,0.0,60.0,1.0,0.0
14344,65.0,48.0,60.0,1.0,0.0
14345,80.0,0.0,60.0,0.0,0.0
14346,73.0,0.0,90.0,2.0,0.0
14347,80.0,48.0,90.0,2.0,0.0
14348,77.0,0.0,90.0,2.0,0.0
14349,83.0,0.0,90.0,2.0,0.0
14350,49.0,0.0,90.0,3.0,0.0
14351,68.0,0.0,90.0,11.0,0.0
14352,61.0,0.0,60.0,1.0,0.0
14353,77.0,0.0,90.0,10.0,0.0
14354,77.0,48.0,60.0,0.0,0.0
14355,83.0,0.0,90.0,8.0,0.0
14356,49.0,0.0,90.0,12.0,0.0
14357,65.0,0.0,60.0,1.0,0.0
14358,80.0,0.0,60.0,0.0,0.0
14359,82.0,0.0,90.0,0.0,0.0
14360,66.0,0.0,90.0,11.0,0.0
14361,54.0,0.0,60.0,3.0,0.0
14362,54.0,0.0,90.0,12.0,0.0
14363,73.0,0.0,90.0,10.0,0.0
14364,54.0,0.0,90.0,1.0,0.0
14365,73.0,0.0,60.0,2.0,0.0
14366,78.0,0.0,60.0,2.0,0.0
14367,82.0,0.0,90.0,8.0,0.0
14368,82.0,48.0,60.0,2.0,0.0
14369,73.0,0.0,60.0,2.0,0.0
14370,58.0,48.0,60.0,3.0,0.0
14371,71.0,0.0,60.0,2.0,0.0
14372,56.0,48.0,60.0,3.0,0.0
14373,73.0,48.0,60.0,2.0,0.0
14374,58.0,0.0,60.0,3.0,0.0
14375,66.0,0.0,90.0,4.0,0.0
14376,42.0,0.0,90.0,5.0,0.0
14377,73.0,0.0,90.0,4.0,0.0
14378,70.0,0.0,90.0,4.0,0.0
14379,70.0,48.0,60.0,2.0,0.0
14380,54.0,0.0,60.0,3.0,0.0
14381,58.0,48.0,60.0,3.0,0.0
14382,73.0,0.0,60.0,2.0,0.0
14383,78.0,0.0,90.0,4.0,0.0
14384,73.0,0.0,90.0,4.0,0.0
14385,70.0,0.0,90.0,4.0,0.0
14386,42.0,48.0,60.0,3.0,0.0
14387,54.0,0.0,90.0,5.0,0.0
14388,66.0,0.0,60.0,2.0,0.0
14389,58.0,0.0,60.0,3.0,0.0
14390,73.0,48.0,60.0,2.0,0.0
14391,71.0,48.0,60.0,2.0,0.0
14392,56.0,0.0,60.0,3.0,0.0
14393,58.0,48.0,60.0,3.0,0.0
14394,73.0,0.0,60.0,2.0,0.0
14395,70.0,0.0,90.0,4.0,0.0
14396,70.0,0.0,60.0,2.0,0.0
14397,42.0,0.0,90.0,5.0,0.0
14398,73.0,0.0,90.0,4.0,0.0
14399,78.0,0.0,90.0,4.0,0.0
14400,54.0,48.0,60.0,3.0,0.0
14401,73.0,48.0,60.0,2.0,0.0
14402,58.0,0.0,60.0,3.0,0.0
14403,66.0,0.0,60.0,2.0,0.0
14404,78.0,0.0,90.0,4.0,0.0
14405,54.0,0.0,90.0,5.0,0.0
14406,82.0,48.0,90.0,4.0,0.0
14407,42.0,48.0,60.0,3.0,0.0
14408,73.0,0.0,90.0,4.0,0.0
14409,73.0,0.0,60.0,2.0,0.0
14410,58.0,0.0,60.0,3.0,0.0
14411,56.0,0.0,60.0,3.0,0.0
14412,71.0,48.0,60.0,2.0,0.0
14413,58.0,0.0,60.0,3.0,0.0
14414,73.0,48.0,60.0,2.0,0.0
14415,54.0,48.0,60.0,3.0,0.0
14416,70.0,0.0,60.0,2.0,0.0
14417,42.0,0.0,90.0,5.0,0.0
14418,73.0,0.0,90.0,4.0,0.0
14419,82.0,48.0,90.0,4.0,0.0
14420,78.0,0.0,90.0,4.0,0.0
14421,73.0,0.0,60.0,2.0,0.0
14422,58.0,0.0,60.0,3.0,0.0
14423,85.0,0.0,90.0,4.0,0.0
14424,78.0,48.0,90.0,4.0,0.0
14425,82.0,0.0,90.0,4.0,0.0
14426,42.0,48.0,60.0,3.0,0.0
14427,64.0,0.0,60.0,2.0,0.0
14428,54.0,0.0,90.0,5.0,0.0
14429,58.0,0.0,60.0,3.0,0.0
14430,73.0,0.0,60.0,2.0,0.0
14431,56.0,0.0,60.0,3.0,0.0
14432,71.0,48.0,60.0,2.0,0.0
14433,58.0,0.0,60.0,3.0,0.0
14434,73.0,48.0,60.0,2.0,0.0
14435,42.0,0.0,90.0,5.0,0.0
14436,70.0,0.0,60.0,2.0,0.0
14437,82.0,48.0,90.0,4.0,0.0
14438,85.0,0.0,90.0,4.0,0.0
14439,78.0,0.0,90.0,4.0,0.0
14440,54.0,48.0,60.0,3.0,0.0
14441,73.0,0.0,60.0,2.0,0.0
14442,58.0,0.0,60.0,3.0,0.0
14443,54.0,48.0,90.0,5.0,0.0
14444,42.0,48.0,60.0,3.0,0.0
14445,64.0,0.0,60.0,2.0,0.0
14446,88.0,0.0,90.0,4.0,0.0
14447,78.0,0.0,90.0,4.0,0.0
14448,82.0,0.0,90.0,4.0,0.0
14449,85.0,0.0,90.0,4.0,0.0
14450,73.0,0.0,60.0,2.0,0.0
14451,58.0,0.0,60.0,3.0,0.0
14452,56.0,48.0,60.0,3.0,0.0
14453,66.0,0.0,90.0,11.0,0.0
14454,76.0,48.0,90.0,10.0,0.0
14455,82.0,0.0,90.0,8.0,0.0
14456,71.0,0.0,60.0,2.0,0.0
14457,54.0,0.0,90.0,12.0,0.0
14458,73.0,0.0,60.0,2.0,0.0
14459,58.0,0.0,60.0,3.0,0.0
14460,78.0,0.0,90.0,4.0,0.0
14461,54.0,48.0,60.0,3.0,0.0
14462,82.0,0.0,90.0,4.0,0.0
14463,66.0,0.0,90.0,11.0,0.0
14464,85.0,0.0,90.0,4.0,0.0
14465,82.0,48.0,90.0,8.0,0.0
14466,88.0,0.0,90.0,4.0,0.0
14467,70.0,0.0,60.0,2.0,0.0
14468,54.0,0.0,90.0,12.0,0.0
14469,42.0,0.0,90.0,5.0,0.0
14470,76.0,0.0,90.0,10.0,0.0
14471,73.0,0.0,60.0,2.0,0.0
14472,58.0,0.0,60.0,3.0,0.0
14473,75.0,0.0,90.0,10.0,0.0
14474,78.0,0.0,60.0,4.0,0.0
14475,83.0,0.0,60.0,4.0,0.0
14476,87.0,48.0,60.0,4.0,0.0
14477,75.0,0.0,90.0,2.0,0.0
14478,47.0,0.0,90.0,3.0,0.0
14479,47.0,0.0,90.0,12.0,0.0
14480,66.0,48.0,90.0,11.0,0.0
14481,83.0,0.0,90.0,8.0,0.0
14482,47.0,0.0,60.0,5.0,0.0
14483,78.0,0.0,60.0,4.0,0.0
14484,63.0,0.0,60.0,5.0,0.0
14485,76.0,48.0,60.0,4.0,0.0
14486,61.0,0.0,60.0,5.0,0.0
14487,63.0,0.0,60.0,5.0,0.0
14488,78.0,48.0,60.0,4.0,0.0
14489,59.0,48.0,60.0,5.0,0.0
14490,75.0,0.0,60.0,4.0,0.0
14491,47.0,0.0,90.0,7.0,0.0
14492,66.0,48.0,90.0,6.0,0.0
14493,63.0,0.0,90.0,6.0,0.0
14494,59.0,0.0,90.0,6.0,0.0
14495,78.0,0.0,60.0,4.0,0.0
14496,63.0,0.0,60.0,5.0,0.0
14497,71.0,0.0,60.0,4.0,0.0
14498,71.0,0.0,90.0,6.0,0.0
14499,59.0,0.0,90.0,7.0,0.0
14500,66.0,48.0,90.0,6.0,0.0
14501,63.0,0.0,90.0,6.0,0.0
14502,47.0,48.0,60.0,5.0,0.0
14503,78.0,0.0,60.0,4.0,0.0
14504,63.0,0.0,60.0,5.0,0.0
14505,61.0,0.0,60.0,5.0,0.0
14506,76.0,48.0,60.0,4.0,0.0
14507,78.0,0.0,60.0,4.0,0.0
14508,63.0,48.0,60.0,5.0,0.0
14509,59.0,48.0,60.0,5.0,0.0
14510,75.0,0.0,60.0,4.0,0.0
14511,47.0,0.0,90.0,7.0,0.0
14512,71.0,0.0,90.0,6.0,0.0
14513,66.0,0.0,90.0,6.0,0.0
14514,63.0,0.0,90.0,6.0,0.0
14515,63.0,0.0,60.0,5.0,0.0
14516,78.0,48.0,60.0,4.0,0.0
14517,71.0,0.0,90.0,6.0,0.0
14518,59.0,0.0,90.0,7.0,0.0
14519,75.0,0.0,90.0,6.0,0.0
14520,66.0,0.0,90.0,6.0,0.0
14521,71.0,48.0,60.0,4.0,0.0
14522,47.0,0.0,60.0,5.0,0.0
14523,63.0,0.0,60.0,5.0,0.0
14524,78.0,48.0,60.0,4.0,0.0
14525,61.0,48.0,60.0,5.0,0.0
14526,76.0,0.0,60.0,4.0,0.0
14527,63.0,0.0,60.0,5.0,0.0
14528,78.0,48.0,60.0,4.0,0.0
14529,71.0,0.0,90.0,6.0,0.0
14530,59.0,0.0,60.0,5.0,0.0
14531,75.0,0.0,90.0,6.0,0.0
14532,47.0,0.0,90.0,7.0,0.0
14533,66.0,0.0,90.0,6.0,0.0
14534,75.0,48.0,60.0,4.0,0.0
14535,63.0,48.0,60.0,5.0,0.0
14536,78.0,0.0,60.0,4.0,0.0
14537,75.0,0.0,90.0,6.0,0.0
14538,69.0,48.0,60.0,4.0,0.0
14539,78.0,0.0,90.0,6.0,0.0
14540,71.0,0.0,90.0,6.0,0.0
14541,59.0,48.0,90.0,7.0,0.0
14542,47.0,0.0,60.0,5.0,0.0
14543,63.0,0.0,60.0,5.0,0.0
14544,78.0,0.0,60.0,4.0,0.0
14545,61.0,0.0,60.0,5.0,0.0
14546,76.0,48.0,60.0,4.0,0.0
14547,78.0,0.0,60.0,4.0,0.0
14548,63.0,48.0,60.0,5.0,0.0
14549,75.0,48.0,60.0,4.0,0.0
14550,47.0,0.0,90.0,7.0,0.0
14551,71.0,0.0,90.0,6.0,0.0
14552,59.0,0.0,60.0,5.0,0.0
14553,75.0,48.0,90.0,6.0,0.0
14554,78.0,0.0,90.0,6.0,0.0
14555,78.0,0.0,60.0,4.0,0.0
14556,63.0,0.0,60.0,5.0,0.0
14557,59.0,0.0,90.0,7.0,0.0
14558,47.0,48.0,60.0,5.0,0.0
14559,69.0,0.0,60.0,4.0,0.0
14560,81.0,0.0,90.0,6.0,0.0
14561,78.0,0.0,90.0,6.0,0.0
14562,75.0,0.0,90.0,6.0,0.0
14563,71.0,0.0,90.0,6.0,0.0
14564,78.0,48.0,60.0,4.0,0.0
14565,63.0,0.0,60.0,5.0,0.0
14566,47.0,0.0,90.0,12.0,0.0
14567,81.0,48.0,90.0,8.0,0.0
14568,76.0,0.0,60.0,4.0,0.0
14569,66.0,0.0,90.0,11.0,0.0
14570,75.0,0.0,90.0,10.0,0.0
14571,61.0,48.0,60.0,5.0,0.0
14572,78.0,0.0,60.0,4.0,0.0
14573,63.0,0.0,60.0,5.0,0.0
14574,66.0,0.0,90.0,11.0,0.0
14575,59.0,48.0,60.0,5.0,0.0
14576,47.0,48.0,90.0,7.0,0.0
14577,75.0,0.0,60.0,4.0,0.0
14578,81.0,0.0,90.0,6.0,0.0
14579,78.0,0.0,90.0,6.0,0.0
14580,75.0,0.0,90.0,6.0,0.0
14581,81.0,0.0,90.0,8.0,0.0
14582,71.0,0.0,90.0,6.0,0.0
14583,47.0,0.0,90.0,12.0,0.0
14584,75.0,0.0,90.0,10.0,0.0
14585,78.0,0.0,60.0,4.0,0.0
14586,63.0,0.0,60.0,5.0,0.0
14587,80.0,0.0,90.0,4.0,0.0
14588,52.0,0.0,90.0,5.0,0.0
14589,80.0,0.0,90.0,8.0,0.0
14590,64.0,0.0,90.0,11.0,0.0
14591,52.0,0.0,90.0,12.0,0.0
14592,52.0,48.0,60.0,7.0,0.0
14593,80.0,0.0,60.0,6.0,0.0
14594,76.0,0.0,60.0,6.0,0.0
14595,71.0,0.0,60.0,6.0,0.0
14596,71.0,48.0,90.0,10.0,0.0
14597,68.0,0.0,60.0,7.0,0.0
14598,83.0,0.0,60.0,6.0,0.0
14599,81.0,48.0,60.0,6.0,0.0
14600,66.0,0.0,60.0,7.0,0.0
14601,83.0,0.0,60.0,6.0,0.0
14602,68.0,48.0,60.0,7.0,0.0
14603,59.0,0.0,90.0,0.0,0.0
14604,56.0,0.0,90.0,0.0,0.0
14605,52.0,0.0,90.0,0.0,0.0
14606,64.0,0.0,60.0,7.0,0.0
14607,80.0,48.0,60.0,6.0,0.0
14608,40.0,48.0,90.0,1.0,0.0
14609,68.0,0.0,60.0,7.0,0.0
14610,83.0,0.0,60.0,6.0,0.0
14611,56.0,0.0,90.0,0.0,0.0
14612,52.0,0.0,60.0,7.0,0.0
14613,59.0,0.0,90.0,0.0,0.0
14614,76.0,48.0,60.0,6.0,0.0
14615,64.0,0.0,90.0,0.0,0.0
14616,52.0,0.0,90.0,1.0,0.0
14617,68.0,0.0,60.0,7.0,0.0
14618,83.0,48.0,60.0,6.0,0.0
14619,66.0,0.0,60.0,7.0,0.0
14620,81.0,48.0,60.0,6.0,0.0
14621,68.0,48.0,60.0,7.0,0.0
14622,83.0,0.0,60.0,6.0,0.0
14623,64.0,0.0,90.0,0.0,0.0
14624,64.0,0.0,60.0,7.0,0.0
14625,80.0,48.0,60.0,6.0,0.0
14626,59.0,0.0,90.0,0.0,0.0
14627,40.0,0.0,90.0,1.0,0.0
14628,56.0,0.0,90.0,0.0,0.0
14629,83.0,0.0,60.0,6.0,0.0
14630,68.0,48.0,60.0,7.0,0.0
14631,68.0,0.0,90.0,0.0,0.0
14632,59.0,48.0,90.0,0.0,0.0
14633,52.0,48.0,60.0,7.0,0.0
14634,76.0,0.0,60.0,6.0,0.0
14635,52.0,0.0,90.0,1.0,0.0
14636,64.0,0.0,90.0,0.0,0.0
14637,68.0,0.0,60.0,7.0,0.0
14638,83.0,0.0,60.0,6.0,0.0
14639,81.0,48.0,60.0,6.0,0.0
14640,66.0,0.0,60.0,7.0,0.0
14641,68.0,0.0,60.0,7.0,0.0
14642,83.0,48.0,60.0,6.0,0.0
14643,64.0,0.0,90.0,0.0,0.0
14644,59.0,0.0,90.0,0.0,0.0
14645,68.0,0.0,90.0,0.0,0.0
14646,80.0,0.0,60.0,6.0,0.0
14647,40.0,0.0,90.0,1.0,0.0
14648,64.0,48.0,60.0,7.0,0.0
14649,68.0,0.0,60.0,7.0,0.0
14650,83.0,48.0,60.0,6.0,0.0
14651,52.0,0.0,90.0,1.0,0.0
14652,71.0,0.0,90.0,0.0,0.0
14653,74.0,0.0,60.0,6.0,0.0
14654,64.0,0.0,90.0,0.0,0.0
14655,52.0,48.0,60.0,7.0,0.0
14656,68.0,0.0,90.0,0.0,0.0
14657,83.0,48.0,60.0,6.0,0.0
14658,68.0,0.0,60.0,7.0,0.0
14659,81.0,48.0,60.0,6.0,0.0
14660,66.0,0.0,60.0,7.0,0.0
14661,68.0,0.0,60.0,7.0,0.0
14662,83.0,48.0,60.0,6.0,0.0
14663,40.0,48.0,90.0,1.0,0.0
14664,80.0,0.0,60.0,6.0,0.0
14665,71.0,0.0,90.0,0.0,0.0
14666,68.0,0.0,90.0,0.0,0.0
14667,64.0,0.0,90.0,0.0,0.0
14668,64.0,48.0,60.0,7.0,0.0
14669,83.0,0.0,60.0,6.0,0.0
14670,68.0,0.0,60.0,7.0,0.0
14671,52.0,0.0,90.0,1.0,0.0
14672,74.0,0.0,90.0,0.0,0.0
14673,71.0,48.0,90.0,0.0,0.0
14674,68.0,0.0,90.0,0.0,0.0
14675,64.0,0.0,90.0,0.0,0.0
14676,52.0,0.0,60.0,7.0,0.0
14677,74.0,48.0,60.0,6.0,0.0
14678,68.0,0.0,60.0,7.0,0.0
14679,83.0,0.0,60.0,6.0,0.0
14680,64.0,0.0,90.0,11.0,0.0
14681,52.0,0.0,90.0,12.0,0.0
14682,81.0,0.0,60.0,6.0,0.0
14683,80.0,0.0,90.0,8.0,0.0
14684,74.0,48.0,90.0,10.0,0.0
14685,66.0,48.0,60.0,7.0,0.0
14686,83.0,0.0,60.0,6.0,0.0
14687,68.0,0.0,60.0,7.0,0.0
14688,52.0,0.0,90.0,12.0,0.0
14689,64.0,0.0,90.0,11.0,0.0
14690,64.0,0.0,90.0,0.0,0.0
14691,40.0,0.0,90.0,1.0,0.0
14692,80.0,0.0,90.0,8.0,0.0
14693,74.0,0.0,90.0,10.0,0.0
14694,74.0,0.0,90.0,0.0,0.0
14695,71.0,96.0,90.0,0.0,0.0
14696,68.0,0.0,90.0,0.0,0.0
14697,64.0,48.0,60.0,7.0,0.0
14698,80.0,0.0,60.0,6.0,0.0
14699,83.0,0.0,60.0,6.0,0.0
14700,68.0,0.0,60.0,7.0,0.0
14701,85.0,0.0,150.0,6.0,0.0
14702,81.0,0.0,90.0,8.0,0.0
14703,57.0,0.0,90.0,3.0,0.0
14704,64.0,0.0,90.0,0.0,0.0
14705,73.0,0.0,90.0,0.0,0.0
14706,73.0,0.0,90.0,10.0,0.0
14707,45.0,0.0,90.0,12.0,0.0
14708,57.0,30.0,150.0,7.0,0.0
14709,64.0,0.0,90.0,11.0,0.0
14710,69.0,0.0,90.0,0.0,0.0
14711,45.0,0.0,90.0,1.0,0.0
14712,85.0,48.0,60.0,2.0,0.0
14713,52.0,48.0,90.0,3.0,0.0
14714,85.0,18.0,60.0,2.0,0.0
14715,81.0,0.0,60.0,2.0,0.0
14716,81.0,48.0,60.0,2.0,0.0
14717,49.0,48.0,90.0,3.0,0.0
14718,78.0,0.0,60.0,2.0,0.0
14719,45.0,48.0,60.0,3.0,0.0
14720,78.0,0.0,60.0,2.0,0.0
14721,61.0,0.0,60.0,3.0,0.0
14722,81.0,48.0,60.0,2.0,0.0
14723,81.0,0.0,60.0,2.0,0.0
14724,61.0,48.0,60.0,3.0,0.0
14725,78.0,0.0,60.0,2.0,0.0
14726,57.0,48.0,60.0,3.0,0.0
14727,78.0,0.0,60.0,2.0,0.0
14728,57.0,48.0,60.0,3.0,0.0
14729,54.0,0.0,60.0,3.0,0.0
14730,74.0,48.0,60.0,2.0,0.0
14731,54.0,0.0,90.0,3.0,0.0
14732,74.0,48.0,60.0,2.0,0.0
14733,81.0,48.0,60.0,2.0,0.0
14734,50.0,0.0,90.0,3.0,0.0
14735,81.0,48.0,60.0,2.0,0.0
14736,78.0,48.0,60.0,2.0,0.0
14737,45.0,48.0,90.0,3.0,0.0
14738,78.0,48.0,60.0,2.0,0.0
14739,74.0,0.0,60.0,2.0,0.0
14740,74.0,0.0,60.0,2.0,0.0
14741,42.0,48.0,60.0,3.0,0.0
14742,78.0,0.0,60.0,2.0,0.0
14743,57.0,48.0,60.0,3.0,0.0
14744,78.0,48.0,60.0,2.0,0.0
14745,57.0,0.0,60.0,3.0,0.0
14746,74.0,0.0,60.0,2.0,0.0
14747,54.0,48.0,60.0,3.0,0.0
14748,74.0,48.0,60.0,2.0,0.0
14749,54.0,0.0,60.0,3.0,0.0
14750,73.0,0.0,60.0,2.0,0.0
14751,52.0,48.0,60.0,3.0,0.0
14752,44.0,0.0,90.0,3.0,0.0
14753,72.0,0.0,90.0,2.0,0.0
14754,68.0,48.0,90.0,7.0,0.0
14755,72.0,0.0,300.0,11.0,0.0
14756,75.0,46.0,300.0,10.0,0.0
14757,56.0,30.0,2280.0,12.0,0.0
14758,68.0,0.0,60.0,0.0,0.0
14759,78.0,0.0,300.0,8.0,0.0
14760,44.0,48.0,60.0,1.0,0.0
14761,75.0,0.0,60.0,0.0,0.0
14762,56.0,0.0,60.0,1.0,0.0
14763,75.0,0.0,90.0,2.0,0.0
14764,60.0,48.0,60.0,1.0,0.0
14765,68.0,0.0,60.0,0.0,0.0
14766,56.0,0.0,90.0,3.0,0.0
14767,68.0,0.0,90.0,7.0,0.0
14768,72.0,0.0,90.0,6.0,0.0
14769,75.0,0.0,60.0,0.0,0.0
14770,56.0,48.0,60.0,1.0,0.0
14771,66.0,0.0,90.0,7.0,0.0
14772,72.0,0.0,90.0,2.0,0.0
14773,51.0,0.0,60.0,1.0,0.0
14774,80.0,0.0,90.0,6.0,0.0
14775,68.0,2.0,90.0,3.0,0.0
14776,68.0,48.0,60.0,0.0,0.0
14777,75.0,0.0,60.0,0.0,0.0
14778,48.0,0.0,60.0,1.0,0.0
14779,44.0,0.0,60.0,1.0,0.0
14780,76.0,0.0,300.0,8.0,0.0
14781,68.0,0.0,300.0,11.0,0.0
14782,73.0,46.0,300.0,10.0,0.0
14783,64.0,48.0,90.0,7.0,0.0
14784,68.0,48.0,60.0,0.0,0.0
14785,73.0,0.0,90.0,2.0,0.0
14786,56.0,0.0,60.0,1.0,0.0
14787,76.0,0.0,60.0,0.0,0.0
14788,64.0,0.0,90.0,7.0,0.0
14789,76.0,0.0,90.0,2.0,0.0
14790,73.0,0.0,90.0,6.0,0.0
14791,61.0,48.0,60.0,1.0,0.0
14792,68.0,0.0,60.0,0.0,0.0
14793,56.0,0.0,90.0,3.0,0.0
14794,76.0,0.0,60.0,0.0,0.0
14795,56.0,48.0,60.0,1.0,0.0
14796,68.0,0.0,60.0,0.0,0.0
14797,64.0,0.0,90.0,7.0,0.0
14798,73.0,0.0,90.0,2.0,0.0
14799,80.0,0.0,90.0,6.0,0.0
14800,68.0,0.0,90.0,3.0,0.0
14801,52.0,48.0,60.0,1.0,0.0
14802,49.0,0.0,60.0,1.0,0.0
14803,76.0,2.0,60.0,0.0,0.0
14804,68.0,48.0,60.0,0.0,0.0
14805,75.0,0.0,90.0,2.0,0.0
14806,75.0,0.0,300.0,8.0,0.0
14807,66.0,0.0,300.0,11.0,0.0
14808,44.0,0.0,60.0,1.0,0.0
14809,72.0,46.0,300.0,10.0,0.0
14810,60.0,0.0,90.0,7.0,0.0
14811,56.0,48.0,60.0,1.0,0.0
14812,78.0,0.0,60.0,0.0,0.0
14813,75.0,0.0,90.0,6.0,0.0
14814,78.0,0.0,90.0,2.0,0.0
14815,68.0,48.0,60.0,0.0,0.0
14816,56.0,0.0,90.0,3.0,0.0
14817,60.0,0.0,60.0,1.0,0.0
14818,60.0,48.0,90.0,7.0,0.0
14819,56.0,0.0,60.0,1.0,0.0
14820,78.0,0.0,60.0,0.0,0.0
14821,51.0,48.0,60.0,1.0,0.0
14822,68.0,0.0,90.0,3.0,0.0
14823,60.0,0.0,90.0,7.0,0.0
14824,75.0,0.0,90.0,2.0,0.0
14825,68.0,0.0,60.0,0.0,0.0
14826,80.0,0.0,90.0,6.0,0.0
14827,78.0,2.0,60.0,0.0,0.0
14828,48.0,0.0,60.0,1.0,0.0
14829,68.0,46.0,870.0,10.0,0.0
14830,73.0,0.0,300.0,8.0,0.0
14831,73.0,0.0,90.0,2.0,0.0
14832,44.0,48.0,60.0,1.0,0.0
14833,64.0,46.0,300.0,11.0,0.0
14834,68.0,0.0,60.0,0.0,0.0
14835,61.0,0.0,90.0,7.0,0.0
14836,76.0,0.0,60.0,0.0,0.0
14837,56.0,48.0,60.0,1.0,0.0
14838,61.0,0.0,90.0,7.0,0.0
14839,68.0,0.0,60.0,0.0,0.0
14840,61.0,48.0,60.0,1.0,0.0
14841,56.0,48.0,90.0,3.0,0.0
14842,76.0,0.0,90.0,2.0,0.0
14843,73.0,0.0,90.0,6.0,0.0
14844,76.0,0.0,60.0,0.0,0.0
14845,56.0,0.0,60.0,1.0,0.0
14846,52.0,48.0,60.0,1.0,0.0
14847,61.0,0.0,90.0,7.0,0.0
14848,68.0,0.0,90.0,3.0,0.0
14849,68.0,0.0,60.0,0.0,0.0
14850,80.0,0.0,90.0,6.0,0.0
14851,73.0,0.0,90.0,2.0,0.0
14852,76.0,0.0,60.0,0.0,0.0
14853,49.0,2.0,60.0,1.0,0.0
14854,44.0,0.0,60.0,1.0,0.0
14855,63.0,46.0,300.0,11.0,0.0
14856,68.0,48.0,60.0,0.0,0.0
14857,72.0,0.0,300.0,8.0,0.0
14858,72.0,0.0,90.0,2.0,0.0
14859,63.0,0.0,90.0,7.0,0.0
14860,75.0,48.0,60.0,0.0,0.0
14861,56.0,0.0,60.0,1.0,0.0
14862,60.0,0.0,60.0,1.0,0.0
14863,75.0,0.0,90.0,2.0,0.0
14864,56.0,0.0,90.0,3.0,0.0
14865,68.0,48.0,90.0,7.0,0.0
14866,72.0,0.0,90.0,6.0,0.0
14867,68.0,48.0,60.0,0.0,0.0
14868,75.0,0.0,60.0,0.0,0.0
14869,56.0,0.0,60.0,1.0,0.0
14870,80.0,0.0,90.0,6.0,0.0
14871,68.0,0.0,90.0,3.0,0.0
14872,68.0,0.0,60.0,0.0,0.0
14873,66.0,0.0,90.0,7.0,0.0
14874,51.0,48.0,60.0,1.0,0.0
14875,72.0,0.0,90.0,2.0,0.0
14876,75.0,0.0,60.0,0.0,0.0
14877,48.0,2.0,60.0,1.0,0.0
14878,64.0,48.0,90.0,7.0,0.0
14879,64.0,0.0,300.0,11.0,0.0
14880,73.0,0.0,90.0,2.0,0.0
14881,68.0,48.0,60.0,0.0,0.0
14882,73.0,0.0,300.0,8.0,0.0
14883,44.0,0.0,60.0,1.0,0.0
14884,56.0,0.0,60.0,1.0,0.0
14885,76.0,0.0,60.0,0.0,0.0
14886,76.0,0.0,90.0,2.0,0.0
14887,61.0,48.0,60.0,1.0,0.0
14888,73.0,0.0,90.0,6.0,0.0
14889,68.0,0.0,60.0,0.0,0.0
14890,64.0,0.0,90.0,7.0,0.0
14891,56.0,0.0,90.0,3.0,0.0
14892,56.0,48.0,60.0,1.0,0.0
14893,76.0,0.0,60.0,0.0,0.0
14894,68.0,48.0,60.0,0.0,0.0
14895,64.0,2.0,90.0,7.0,0.0
14896,80.0,0.0,90.0,6.0,0.0
14897,68.0,0.0,90.0,3.0,0.0
14898,73.0,0.0,90.0,2.0,0.0
14899,52.0,0.0,60.0,1.0,0.0
14900,76.0,0.0,60.0,0.0,0.0
14901,49.0,0.0,60.0,1.0,0.0
14902,68.0,0.0,570.0,11.0,0.0
14903,60.0,0.0,90.0,7.0,0.0
14904,75.0,0.0,300.0,8.0,0.0
14905,72.0,46.0,300.0,10.0,0.0
14906,44.0,48.0,60.0,1.0,0.0
14907,75.0,0.0,90.0,2.0,0.0
14908,68.0,0.0,60.0,0.0,0.0
14909,78.0,48.0,60.0,0.0,0.0
14910,56.0,0.0,60.0,1.0,0.0
14911,75.0,0.0,90.0,6.0,0.0
14912,60.0,0.0,90.0,7.0,0.0
14913,56.0,48.0,90.0,3.0,0.0
14914,60.0,48.0,60.0,1.0,0.0
14915,78.0,0.0,90.0,2.0,0.0
14916,68.0,0.0,60.0,0.0,0.0
14917,78.0,0.0,60.0,0.0,0.0
14918,56.0,0.0,60.0,1.0,0.0
14919,80.0,0.0,90.0,6.0,0.0
14920,68.0,0.0,90.0,3.0,0.0
14921,75.0,0.0,90.0,2.0,0.0
14922,51.0,0.0,60.0,1.0,0.0
14923,60.0,0.0,90.0,7.0,0.0
14924,68.0,48.0,60.0,0.0,0.0
14925,48.0,0.0,60.0,1.0,0.0
14926,78.0,2.0,60.0,0.0,0.0
14927,73.0,0.0,90.0,2.0,0.0
14928,61.0,0.0,90.0,7.0,0.0
14929,76.0,0.0,300.0,8.0,0.0
14930,68.0,0.0,60.0,0.0,0.0
14931,73.0,46.0,300.0,10.0,0.0
14932,44.0,48.0,60.0,1.0,0.0
14933,76.0,48.0,60.0,0.0,0.0
14934,56.0,0.0,60.0,1.0,0.0
14935,73.0,0.0,90.0,6.0,0.0
14936,61.0,48.0,60.0,1.0,0.0
14937,56.0,48.0,90.0,3.0,0.0
14938,76.0,0.0,90.0,2.0,0.0
14939,61.0,0.0,90.0,7.0,0.0
14940,68.0,0.0,60.0,0.0,0.0
14941,76.0,0.0,60.0,0.0,0.0
14942,56.0,0.0,60.0,1.0,0.0
14943,73.0,0.0,90.0,2.0,0.0
14944,61.0,2.0,90.0,7.0,0.0
14945,68.0,0.0,90.0,3.0,0.0
14946,68.0,0.0,60.0,0.0,0.0
14947,80.0,0.0,90.0,6.0,0.0
14948,52.0,18.0,60.0,1.0,0.0
14949,76.0,0.0,60.0,0.0,0.0
14950,49.0,0.0,60.0,1.0,0.0
14951,78.0,0.0,300.0,8.0,0.0
14952,44.0,0.0,60.0,5.0,0.0
14953,44.0,0.0,2460.0,12.0,0.0
14954,72.0,0.0,300.0,11.0,0.0
14955,72.0,0.0,90.0,6.0,0.0
14956,63.0,48.0,90.0,7.0,0.0
14957,68.0,48.0,60.0,4.0,0.0
14958,44.0,30.0,150.0,1.0,0.0
14959,75.0,46.0,300.0,10.0,0.0
14960,75.0,0.0,150.0,0.0,0.0
14961,72.0,0.0,90.0,2.0,0.0
14962,75.0,0.0,60.0,4.0,0.0
14963,56.0,0.0,60.0,5.0,0.0
14964,75.0,0.0,90.0,6.0,0.0
14965,72.0,0.0,90.0,2.0,0.0
14966,68.0,0.0,90.0,3.0,0.0
14967,60.0,18.0,60.0,5.0,0.0
14968,56.0,48.0,90.0,7.0,0.0
14969,68.0,0.0,60.0,4.0,0.0
14970,75.0,0.0,60.0,4.0,0.0
14971,56.0,0.0,60.0,5.0,0.0
14972,80.0,0.0,90.0,2.0,0.0
14973,68.0,0.0,60.0,4.0,0.0
14974,68.0,0.0,90.0,7.0,0.0
14975,66.0,0.0,90.0,3.0,0.0
14976,72.0,0.0,90.0,6.0,0.0
14977,51.0,48.0,60.0,5.0,0.0
14978,48.0,2.0,60.0,5.0,0.0
14979,75.0,0.0,60.0,4.0,0.0
14980,73.0,0.0,300.0,10.0,0.0
14981,64.0,48.0,90.0,3.0,0.0
14982,44.0,48.0,60.0,5.0,0.0
14983,73.0,0.0,90.0,6.0,0.0
14984,68.0,0.0,60.0,4.0,0.0
14985,68.0,0.0,300.0,11.0,0.0
14986,76.0,46.0,300.0,8.0,0.0
14987,76.0,0.0,60.0,4.0,0.0
14988,56.0,0.0,60.0,5.0,0.0
14989,64.0,0.0,90.0,3.0,0.0
14990,56.0,48.0,90.0,7.0,0.0
14991,68.0,48.0,60.0,4.0,0.0
14992,61.0,0.0,60.0,5.0,0.0
14993,76.0,0.0,90.0,6.0,0.0
14994,73.0,0.0,90.0,2.0,0.0
14995,76.0,0.0,60.0,4.0,0.0
14996,56.0,0.0,60.0,5.0,0.0
14997,68.0,48.0,60.0,4.0,0.0
14998,52.0,0.0,60.0,5.0,0.0
14999,64.0,0.0,90.0,3.0,0.0
15000,73.0,0.0,90.0,6.0,0.0
15001,68.0,0.0,90.0,7.0,0.0
15002,80.0,0.0,90.0,2.0,0.0
15003,49.0,0.0,60.0,5.0,0.0
15004,76.0,2.0,60.0,4.0,0.0
15005,44.0,48.0,60.0,5.0,0.0
15006,75.0,0.0,90.0,6.0,0.0
15007,60.0,0.0,90.0,3.0,0.0
15008,66.0,0.0,300.0,11.0,0.0
15009,72.0,46.0,300.0,10.0,0.0
15010,75.0,0.0,300.0,8.0,0.0
15011,68.0,0.0,60.0,4.0,0.0
15012,78.0,0.0,60.0,4.0,0.0
15013,56.0,48.0,60.0,5.0,0.0
15014,60.0,0.0,90.0,3.0,0.0
15015,56.0,0.0,90.0,7.0,0.0
15016,78.0,48.0,90.0,6.0,0.0
15017,60.0,48.0,60.0,5.0,0.0
15018,75.0,0.0,90.0,2.0,0.0
15019,68.0,0.0,60.0,4.0,0.0
15020,78.0,0.0,60.0,4.0,0.0
15021,56.0,0.0,60.0,5.0,0.0
15022,68.0,0.0,90.0,7.0,0.0
15023,51.0,0.0,60.0,5.0,0.0
15024,80.0,0.0,90.0,2.0,0.0
15025,60.0,0.0,90.0,3.0,0.0
15026,68.0,48.0,60.0,4.0,0.0
15027,75.0,0.0,90.0,6.0,0.0
15028,48.0,0.0,60.0,5.0,0.0
15029,78.0,2.0,60.0,4.0,0.0
15030,68.0,0.0,60.0,4.0,0.0
15031,61.0,48.0,90.0,3.0,0.0
15032,73.0,0.0,300.0,8.0,0.0
15033,64.0,46.0,300.0,11.0,0.0
15034,68.0,0.0,870.0,10.0,0.0
15035,73.0,0.0,90.0,6.0,0.0
15036,44.0,48.0,60.0,5.0,0.0
15037,76.0,0.0,60.0,4.0,0.0
15038,56.0,0.0,60.0,5.0,0.0
15039,61.0,0.0,90.0,3.0,0.0
15040,76.0,0.0,90.0,6.0,0.0
15041,73.0,0.0,90.0,2.0,0.0
15042,56.0,48.0,90.0,7.0,0.0
15043,68.0,48.0,60.0,4.0,0.0
15044,61.0,0.0,60.0,5.0,0.0
15045,76.0,0.0,60.0,4.0,0.0
15046,56.0,0.0,60.0,5.0,0.0
15047,68.0,48.0,60.0,4.0,0.0
15048,52.0,0.0,60.0,5.0,0.0
15049,80.0,2.0,90.0,2.0,0.0
15050,73.0,0.0,90.0,6.0,0.0
15051,68.0,0.0,90.0,7.0,0.0
15052,61.0,0.0,90.0,3.0,0.0
15053,49.0,0.0,60.0,5.0,0.0
15054,76.0,0.0,60.0,4.0,0.0
15055,72.0,0.0,300.0,8.0,0.0
15056,63.0,0.0,90.0,3.0,0.0
15057,44.0,0.0,60.0,5.0,0.0
15058,72.0,0.0,90.0,6.0,0.0
15059,68.0,48.0,60.0,4.0,0.0
15060,63.0,46.0,300.0,11.0,0.0
15061,56.0,48.0,60.0,5.0,0.0
15062,75.0,0.0,60.0,4.0,0.0
15063,68.0,0.0,60.0,4.0,0.0
15064,60.0,48.0,60.0,5.0,0.0
15065,72.0,48.0,90.0,2.0,0.0
15066,75.0,0.0,90.0,6.0,0.0
15067,56.0,0.0,90.0,7.0,0.0
15068,68.0,0.0,90.0,3.0,0.0
15069,56.0,0.0,60.0,5.0,0.0
15070,75.0,0.0,60.0,4.0,0.0
15071,51.0,0.0,60.0,5.0,0.0
15072,66.0,0.0,90.0,3.0,0.0
15073,68.0,48.0,60.0,4.0,0.0
15074,80.0,0.0,90.0,2.0,0.0
15075,72.0,0.0,90.0,6.0,0.0
15076,68.0,0.0,90.0,7.0,0.0
15077,48.0,2.0,60.0,5.0,0.0
15078,75.0,0.0,60.0,4.0,0.0
15079,64.0,0.0,90.0,3.0,0.0
15080,73.0,0.0,90.0,6.0,0.0
15081,44.0,0.0,60.0,5.0,0.0
15082,68.0,48.0,60.0,4.0,0.0
15083,73.0,46.0,300.0,8.0,0.0
15084,64.0,0.0,300.0,11.0,0.0
15085,76.0,48.0,60.0,4.0,0.0
15086,56.0,0.0,60.0,5.0,0.0
15087,68.0,0.0,60.0,4.0,0.0
15088,76.0,0.0,90.0,6.0,0.0
15089,56.0,48.0,90.0,7.0,0.0
15090,73.0,0.0,90.0,2.0,0.0
15091,61.0,48.0,60.0,5.0,0.0
15092,64.0,0.0,90.0,3.0,0.0
15093,76.0,0.0,60.0,4.0,0.0
15094,56.0,0.0,60.0,5.0,0.0
15095,80.0,0.0,90.0,2.0,0.0
15096,52.0,48.0,60.0,5.0,0.0
15097,68.0,0.0,60.0,4.0,0.0
15098,73.0,0.0,90.0,6.0,0.0
15099,64.0,2.0,90.0,3.0,0.0
15100,68.0,0.0,90.0,7.0,0.0
15101,49.0,0.0,60.0,5.0,0.0
15102,76.0,0.0,60.0,4.0,0.0
15103,72.0,46.0,300.0,10.0,0.0
15104,75.0,0.0,300.0,8.0,0.0
15105,75.0,0.0,90.0,6.0,0.0
15106,68.0,0.0,750.0,11.0,0.0
15107,44.0,0.0,60.0,5.0,0.0
15108,60.0,48.0,90.0,3.0,0.0
15109,68.0,48.0,60.0,4.0,0.0
15110,56.0,0.0,60.0,5.0,0.0
15111,78.0,0.0,60.0,4.0,0.0
15112,68.0,48.0,60.0,4.0,0.0
15113,60.0,0.0,60.0,5.0,0.0
15114,78.0,0.0,90.0,6.0,0.0
15115,60.0,0.0,90.0,3.0,0.0
15116,75.0,48.0,90.0,2.0,0.0
15117,56.0,0.0,90.0,7.0,0.0
15118,56.0,0.0,60.0,5.0,0.0
15119,78.0,0.0,60.0,4.0,0.0
15120,68.0,0.0,90.0,7.0,0.0
15121,68.0,48.0,60.0,4.0,0.0
15122,60.0,0.0,90.0,3.0,0.0
15123,75.0,2.0,90.0,6.0,0.0
15124,51.0,0.0,60.0,5.0,0.0
15125,80.0,0.0,90.0,2.0,0.0
15126,48.0,0.0,60.0,5.0,0.0
15127,78.0,0.0,60.0,4.0,0.0
15128,73.0,48.0,90.0,6.0,0.0
15129,61.0,0.0,90.0,3.0,0.0
15130,73.0,0.0,300.0,10.0,0.0
15131,68.0,48.0,60.0,4.0,0.0
15132,76.0,94.0,300.0,8.0,0.0
15133,44.0,0.0,60.0,5.0,0.0
15134,56.0,0.0,60.0,5.0,0.0
15135,76.0,0.0,60.0,4.0,0.0
15136,76.0,48.0,90.0,6.0,0.0
15137,61.0,0.0,60.0,5.0,0.0
15138,73.0,0.0,90.0,2.0,0.0
15139,56.0,0.0,90.0,7.0,0.0
15140,68.0,48.0,60.0,4.0,0.0
15141,61.0,0.0,90.0,3.0,0.0
15142,56.0,0.0,60.0,5.0,0.0
15143,76.0,0.0,60.0,4.0,0.0
15144,68.0,0.0,90.0,7.0,0.0
15145,68.0,0.0,60.0,4.0,0.0
15146,52.0,48.0,60.0,5.0,0.0
15147,73.0,0.0,90.0,6.0,0.0
15148,80.0,2.0,90.0,2.0,0.0
15149,61.0,0.0,90.0,3.0,0.0
15150,49.0,0.0,60.0,5.0,0.0
15151,76.0,0.0,60.0,4.0,0.0
15152,56.0,30.0,150.0,7.0,0.0
15153,75.0,0.0,150.0,8.0,0.0
15154,72.0,0.0,150.0,10.0,0.0
15155,72.0,0.0,150.0,2.0,0.0
15156,63.0,0.0,150.0,3.0,0.0
15157,75.0,0.0,150.0,4.0,0.0
15158,72.0,0.0,150.0,6.0,0.0
15159,44.0,0.0,150.0,5.0,0.0
15160,64.0,48.0,60.0,1.0,0.0
15161,63.0,18.0,60.0,1.0,0.0
15162,61.0,48.0,60.0,1.0,0.0
15163,75.0,0.0,90.0,0.0,0.0
15164,60.0,48.0,60.0,1.0,0.0
15165,58.0,48.0,60.0,1.0,0.0
15166,56.0,0.0,90.0,1.0,0.0
15167,76.0,48.0,60.0,0.0,0.0
15168,75.0,48.0,60.0,0.0,0.0
15169,63.0,96.0,90.0,1.0,0.0
15170,73.0,48.0,60.0,0.0,0.0
15171,72.0,0.0,60.0,0.0,0.0
15172,78.0,0.0,90.0,0.0,0.0
15173,60.0,48.0,90.0,1.0,0.0
15174,80.0,48.0,60.0,0.0,0.0
15175,56.0,48.0,90.0,1.0,0.0
15176,78.0,0.0,60.0,0.0,0.0
15177,76.0,48.0,60.0,0.0,0.0
15178,66.0,96.0,90.0,1.0,0.0
15179,75.0,0.0,60.0,0.0,0.0
15180,81.0,0.0,90.0,0.0,0.0
15181,63.0,48.0,90.0,1.0,0.0
15182,56.0,48.0,90.0,1.0,0.0
15183,83.0,48.0,60.0,0.0,0.0
15184,81.0,0.0,60.0,0.0,0.0
15185,80.0,48.0,60.0,0.0,0.0
15186,66.0,0.0,90.0,1.0,0.0
15187,78.0,96.0,60.0,0.0,0.0
15188,84.0,0.0,90.0,0.0,0.0
15189,63.0,48.0,90.0,1.0,0.0
15190,85.0,0.0,60.0,0.0,0.0
15191,56.0,48.0,60.0,1.0,0.0
15192,84.0,0.0,60.0,0.0,0.0
15193,68.0,48.0,60.0,1.0,0.0
15194,66.0,0.0,60.0,1.0,0.0
15195,82.0,48.0,60.0,0.0,0.0
15196,64.0,0.0,60.0,1.0,0.0
15197,80.0,48.0,60.0,0.0,0.0
15198,85.0,0.0,90.0,0.0,0.0
15199,63.0,48.0,60.0,1.0,0.0
15200,61.0,48.0,60.0,1.0,0.0
15201,66.0,48.0,90.0,1.0,0.0
15202,86.0,48.0,60.0,0.0,0.0
15203,85.0,0.0,60.0,0.0,0.0
15204,54.0,48.0,90.0,1.0,0.0
15205,86.0,48.0,60.0,0.0,0.0
15206,88.0,0.0,60.0,0.0,0.0
15207,86.0,48.0,60.0,0.0,0.0
15208,66.0,0.0,90.0,1.0,0.0
15209,85.0,48.0,60.0,0.0,0.0
15210,66.0,48.0,90.0,1.0,0.0
15211,84.0,48.0,60.0,0.0,0.0
15212,85.0,0.0,60.0,0.0,0.0
15213,87.0,48.0,60.0,0.0,0.0
15214,54.0,48.0,90.0,1.0,0.0
15215,85.0,0.0,60.0,0.0,0.0
15216,87.0,48.0,60.0,0.0,0.0
15217,66.0,0.0,90.0,1.0,0.0
15218,84.0,48.0,60.0,0.0,0.0
15219,85.0,48.0,60.0,0.0,0.0
15220,64.0,0.0,60.0,1.0,0.0
15221,63.0,48.0,60.0,1.0,0.0
15222,87.0,0.0,60.0,0.0,0.0
15223,61.0,0.0,60.0,1.0,0.0
15224,88.0,48.0,60.0,0.0,0.0
15225,59.0,0.0,60.0,1.0,0.0
15226,87.0,48.0,60.0,0.0,0.0
15227,88.0,0.0,60.0,0.0,0.0
15228,57.0,48.0,60.0,1.0,0.0
15229,56.0,48.0,60.0,1.0,0.0
15230,85.0,0.0,60.0,0.0,0.0
15231,54.0,0.0,60.0,1.0,0.0
15232,86.0,48.0,60.0,0.0,0.0
15233,85.0,0.0,60.0,0.0,0.0
15234,52.0,48.0,60.0,1.0,0.0
15235,86.0,48.0,60.0,0.0,0.0
15236,54.0,0.0,60.0,1.0,0.0
15237,88.0,48.0,60.0,0.0,0.0
15238,56.0,0.0,60.0,1.0,0.0
15239,86.0,0.0,60.0,0.0,0.0
15240,54.0,48.0,60.0,1.0,0.0
15241,52.0,0.0,60.0,1.0,0.0
15242,85.0,48.0,60.0,0.0,0.0
15243,51.0,0.0,60.0,1.0,0.0
15244,84.0,48.0,60.0,0.0,0.0
15245,49.0,0.0,60.0,1.0,0.0
15246,85.0,48.0,60.0,0.0,0.0
15247,87.0,48.0,60.0,0.0,0.0
15248,48.0,0.0,60.0,1.0,0.0
15249,85.0,0.0,60.0,0.0,0.0
15250,46.0,48.0,60.0,1.0,0.0
15251,87.0,0.0,60.0,0.0,0.0
15252,44.0,48.0,60.0,1.0,0.0
15253,42.0,0.0,60.0,1.0,0.0
15254,84.0,48.0,60.0,0.0,0.0
15255,40.0,48.0,60.0,1.0,0.0
15256,85.0,0.0,60.0,0.0,0.0
15257,84.0,0.0,60.0,0.0,0.0
15258,39.0,48.0,60.0,1.0,0.0
15259,85.0,48.0,60.0,0.0,0.0
15260,40.0,0.0,60.0,1.0,0.0
15261,88.0,0.0,60.0,0.0,0.0
15262,44.0,48.0,60.0,1.0,0.0
15263,87.0,0.0,60.0,0.0,0.0
15264,42.0,48.0,60.0,1.0,0.0
15265,85.0,0.0,60.0,0.0,0.0
15266,45.0,48.0,60.0,1.0,0.0
15267,44.0,0.0,60.0,1.0,0.0
15268,84.0,48.0,60.0,0.0,0.0
15269,42.0,48.0,60.0,1.0,0.0
15270,82.0,0.0,60.0,0.0,0.0
15271,80.0,0.0,90.0,0.0,0.0
15272,40.0,48.0,60.0,1.0,0.0
15273,39.0,48.0,60.0,1.0,0.0
15274,37.0,48.0,60.0,1.0,0.0
15275,36.0,48.0,60.0,1.0,0.0
15276,37.0,30.0,150.0,1.0,0.0
15277,76.0,0.0,90.0,11.0,0.0
15278,80.0,0.0,90.0,10.0,0.0
15279,49.0,0.0,90.0,12.0,0.0
15280,76.0,48.0,60.0,0.0,0.0
15281,64.0,0.0,90.0,3.0,0.0
15282,85.0,48.0,90.0,8.0,0.0
15283,80.0,0.0,90.0,2.0,0.0
15284,85.0,0.0,60.0,0.0,0.0
15285,85.0,48.0,90.0,2.0,0.0
15286,64.0,0.0,90.0,5.0,0.0
15287,76.0,0.0,90.0,3.0,0.0
15288,76.0,18.0,60.0,0.0,0.0
15289,85.0,0.0,60.0,0.0,0.0
15290,76.0,0.0,60.0,6.0,0.0
15291,76.0,0.0,90.0,5.0,0.0
15292,85.0,0.0,90.0,4.0,0.0
15293,64.0,0.0,90.0,7.0,0.0
15294,80.0,48.0,60.0,6.0,0.0
15295,76.0,0.0,60.0,0.0,0.0
15296,85.0,0.0,60.0,0.0,0.0
15297,76.0,48.0,60.0,6.0,0.0
15298,78.0,0.0,90.0,10.0,0.0
15299,78.0,0.0,60.0,6.0,0.0
15300,85.0,0.0,90.0,2.0,0.0
15301,75.0,0.0,90.0,11.0,0.0
15302,75.0,48.0,60.0,0.0,0.0
15303,51.0,0.0,90.0,12.0,0.0
15304,75.0,0.0,90.0,3.0,0.0
15305,81.0,0.0,90.0,4.0,0.0
15306,85.0,0.0,90.0,8.0,0.0
15307,39.0,30.0,150.0,1.0,0.0
15308,63.0,48.0,90.0,7.0,0.0
15309,81.0,0.0,60.0,6.0,0.0
15310,85.0,0.0,60.0,0.0,0.0
15311,81.0,0.0,90.0,2.0,0.0
15312,85.0,0.0,90.0,6.0,0.0
15313,78.0,0.0,90.0,4.0,0.0
15314,63.0,48.0,90.0,3.0,0.0
15315,75.0,18.0,60.0,0.0,0.0
15316,75.0,0.0,90.0,5.0,0.0
15317,85.0,0.0,60.0,0.0,0.0
15318,75.0,0.0,90.0,4.0,0.0
15319,78.0,0.0,90.0,2.0,0.0
15320,63.0,48.0,90.0,5.0,0.0
15321,75.0,0.0,90.0,7.0,0.0
15322,75.0,48.0,60.0,0.0,0.0
15323,85.0,0.0,60.0,0.0,0.0
15324,75.0,0.0,90.0,11.0,0.0
15325,44.0,30.0,150.0,1.0,0.0
15326,75.0,48.0,60.0,4.0,0.0
15327,63.0,0.0,90.0,7.0,0.0
15328,75.0,0.0,60.0,0.0,0.0
15329,56.0,0.0,90.0,12.0,0.0
15330,63.0,0.0,90.0,3.0,0.0
15331,78.0,48.0,90.0,2.0,0.0
15332,83.0,0.0,90.0,8.0,0.0
15333,78.0,0.0,90.0,10.0,0.0
15334,83.0,0.0,60.0,0.0,0.0
15335,73.0,0.0,60.0,4.0,0.0
15336,75.0,0.0,90.0,3.0,0.0
15337,75.0,18.0,60.0,0.0,0.0
15338,83.0,0.0,90.0,2.0,0.0
15339,63.0,0.0,90.0,5.0,0.0
15340,75.0,0.0,90.0,4.0,0.0
15341,83.0,0.0,60.0,0.0,0.0
15342,75.0,48.0,60.0,6.0,0.0
15343,75.0,48.0,60.0,0.0,0.0
15344,78.0,0.0,60.0,6.0,0.0
15345,75.0,0.0,90.0,5.0,0.0
15346,63.0,48.0,90.0,7.0,0.0
15347,83.0,0.0,90.0,4.0,0.0
15348,83.0,0.0,60.0,0.0,0.0
15349,75.0,0.0,60.0,6.0,0.0
15350,83.0,0.0,90.0,2.0,0.0
15351,76.0,0.0,90.0,10.0,0.0
15352,73.0,0.0,90.0,3.0,0.0
15353,80.0,0.0,90.0,4.0,0.0
15354,73.0,0.0,90.0,11.0,0.0
15355,49.0,0.0,90.0,12.0,0.0
15356,61.0,48.0,90.0,7.0,0.0
15357,76.0,0.0,60.0,6.0,0.0
15358,73.0,48.0,60.0,0.0,0.0
15359,83.0,0.0,90.0,8.0,0.0
15360,49.0,30.0,150.0,1.0,0.0
15361,80.0,0.0,60.0,6.0,0.0
15362,83.0,0.0,60.0,0.0,0.0
15363,73.0,18.0,60.0,0.0,0.0
15364,73.0,0.0,90.0,5.0,0.0
15365,61.0,0.0,90.0,3.0,0.0
15366,80.0,0.0,90.0,2.0,0.0
15367,83.0,0.0,90.0,6.0,0.0
15368,76.0,48.0,90.0,4.0,0.0
15369,83.0,0.0,60.0,0.0,0.0
15370,76.0,48.0,90.0,2.0,0.0
15371,73.0,48.0,60.0,0.0,0.0
15372,73.0,0.0,90.0,4.0,0.0
15373,61.0,0.0,90.0,5.0,0.0
15374,73.0,0.0,90.0,7.0,0.0
15375,83.0,0.0,60.0,0.0,0.0
15376,61.0,0.0,90.0,3.0,0.0
15377,76.0,0.0,90.0,10.0,0.0
15378,81.0,0.0,90.0,8.0,0.0
15379,61.0,0.0,90.0,7.0,0.0
15380,76.0,0.0,90.0,2.0,0.0
15381,73.0,48.0,60.0,4.0,0.0
15382,54.0,48.0,90.0,12.0,0.0
15383,54.0,30.0,150.0,1.0,0.0
15384,73.0,0.0,90.0,11.0,0.0
15385,73.0,0.0,60.0,0.0,0.0
15386,81.0,0.0,60.0,0.0,0.0
15387,71.0,0.0,60.0,4.0,0.0
15388,73.0,0.0,90.0,4.0,0.0
15389,81.0,0.0,90.0,2.0,0.0
15390,73.0,18.0,60.0,0.0,0.0
15391,61.0,48.0,90.0,5.0,0.0
15392,73.0,0.0,90.0,3.0,0.0
15393,73.0,0.0,60.0,6.0,0.0
15394,81.0,0.0,60.0,0.0,0.0
15395,81.0,0.0,90.0,4.0,0.0
15396,61.0,0.0,90.0,7.0,0.0
15397,73.0,48.0,60.0,0.0,0.0
15398,73.0,48.0,90.0,5.0,0.0
15399,76.0,0.0,60.0,6.0,0.0
15400,73.0,0.0,60.0,6.0,0.0
15401,81.0,0.0,60.0,0.0,0.0
15402,47.0,0.0,90.0,12.0,0.0
15403,71.0,48.0,60.0,0.0,0.0
15404,71.0,48.0,90.0,3.0,0.0
15405,81.0,0.0,90.0,2.0,0.0
15406,59.0,0.0,90.0,7.0,0.0
15407,75.0,0.0,60.0,6.0,0.0
15408,71.0,0.0,90.0,11.0,0.0
15409,59.0,30.0,150.0,1.0,0.0
15410,75.0,0.0,90.0,10.0,0.0
15411,81.0,0.0,90.0,8.0,0.0
15412,78.0,0.0,90.0,4.0,0.0
15413,81.0,0.0,60.0,0.0,0.0
15414,78.0,0.0,60.0,6.0,0.0
15415,71.0,18.0,60.0,0.0,0.0
15416,78.0,48.0,90.0,2.0,0.0
15417,81.0,0.0,90.0,6.0,0.0
15418,59.0,0.0,90.0,3.0,0.0
15419,75.0,0.0,90.0,4.0,0.0
15420,71.0,0.0,90.0,5.0,0.0
15421,81.0,0.0,60.0,0.0,0.0
15422,71.0,48.0,60.0,0.0,0.0
15423,75.0,0.0,90.0,2.0,0.0
15424,71.0,0.0,90.0,7.0,0.0
15425,59.0,0.0,90.0,5.0,0.0
15426,71.0,0.0,90.0,4.0,0.0
15427,81.0,48.0,60.0,0.0,0.0
15428,52.0,30.0,150.0,1.0,0.0
15429,59.0,0.0,90.0,7.0,0.0
15430,75.0,0.0,90.0,10.0,0.0
15431,71.0,0.0,90.0,11.0,0.0
15432,71.0,0.0,60.0,4.0,0.0
15433,75.0,0.0,90.0,2.0,0.0
15434,52.0,0.0,90.0,12.0,0.0
15435,80.0,0.0,90.0,8.0,0.0
15436,59.0,48.0,90.0,3.0,0.0
15437,71.0,48.0,60.0,0.0,0.0
15438,80.0,0.0,60.0,0.0,0.0
15439,69.0,0.0,60.0,4.0,0.0
15440,59.0,0.0,90.0,5.0,0.0
15441,71.0,0.0,90.0,3.0,0.0
15442,80.0,0.0,90.0,2.0,0.0
15443,71.0,18.0,60.0,0.0,0.0
15444,71.0,0.0,90.0,4.0,0.0
15445,71.0,48.0,60.0,6.0,0.0
15446,80.0,0.0,60.0,0.0,0.0
15447,80.0,48.0,90.0,4.0,0.0
15448,75.0,48.0,60.0,6.0,0.0
15449,71.0,0.0,60.0,0.0,0.0
15450,71.0,0.0,90.0,5.0,0.0
15451,59.0,0.0,90.0,7.0,0.0
15452,80.0,0.0,60.0,0.0,0.0
15453,71.0,0.0,60.0,6.0,0.0
15454,76.0,0.0,90.0,4.0,0.0
15455,57.0,0.0,90.0,12.0,0.0
15456,57.0,30.0,150.0,1.0,0.0
15457,73.0,48.0,90.0,10.0,0.0
15458,69.0,0.0,90.0,3.0,0.0
15459,57.0,0.0,90.0,7.0,0.0
15460,80.0,0.0,90.0,8.0,0.0
15461,69.0,0.0,60.0,0.0,0.0
15462,69.0,0.0,90.0,11.0,0.0
15463,80.0,0.0,90.0,2.0,0.0
15464,73.0,48.0,60.0,6.0,0.0
15465,80.0,0.0,60.0,0.0,0.0
15466,76.0,0.0,60.0,6.0,0.0
15467,80.0,48.0,90.0,6.0,0.0
15468,69.0,18.0,60.0,0.0,0.0
15469,76.0,0.0,90.0,2.0,0.0
15470,57.0,0.0,90.0,3.0,0.0
15471,73.0,0.0,90.0,4.0,0.0
15472,69.0,0.0,90.0,5.0,0.0
15473,80.0,0.0,60.0,0.0,0.0
15474,73.0,48.0,90.0,2.0,0.0
15475,69.0,48.0,60.0,0.0,0.0
15476,57.0,0.0,90.0,5.0,0.0
15477,69.0,0.0,90.0,7.0,0.0
15478,69.0,0.0,90.0,4.0,0.0
15479,80.0,0.0,60.0,0.0,0.0
15480,73.0,0.0,90.0,10.0,0.0
15481,57.0,48.0,90.0,3.0,0.0
15482,78.0,0.0,90.0,8.0,0.0
15483,73.0,0.0,90.0,2.0,0.0
15484,51.0,0.0,90.0,12.0,0.0
15485,69.0,0.0,60.0,0.0,0.0
15486,69.0,0.0,90.0,11.0,0.0
15487,69.0,48.0,60.0,4.0,0.0
15488,57.0,0.0,90.0,7.0,0.0
15489,51.0,30.0,150.0,1.0,0.0
15490,68.0,0.0,60.0,4.0,0.0
15491,78.0,0.0,60.0,0.0,0.0
15492,69.0,0.0,90.0,4.0,0.0
15493,69.0,18.0,60.0,0.0,0.0
15494,78.0,48.0,90.0,2.0,0.0
15495,57.0,0.0,90.0,5.0,0.0
15496,69.0,0.0,90.0,3.0,0.0
15497,78.0,0.0,60.0,0.0,0.0
15498,69.0,0.0,60.0,6.0,0.0
15499,69.0,0.0,90.0,5.0,0.0
15500,73.0,48.0,60.0,6.0,0.0
15501,69.0,0.0,60.0,0.0,0.0
15502,57.0,0.0,90.0,7.0,0.0
15503,78.0,48.0,90.0,4.0,0.0
15504,69.0,0.0,60.0,6.0,0.0
15505,78.0,0.0,60.0,0.0,0.0
15506,56.0,30.0,150.0,1.0,0.0
15507,71.0,0.0,90.0,10.0,0.0
15508,56.0,48.0,90.0,7.0,0.0
15509,68.0,48.0,60.0,0.0,0.0
15510,68.0,0.0,90.0,3.0,0.0
15511,68.0,0.0,90.0,11.0,0.0
15512,78.0,0.0,90.0,8.0,0.0
15513,71.0,0.0,60.0,6.0,0.0
15514,78.0,0.0,90.0,2.0,0.0
15515,56.0,0.0,90.0,12.0,0.0
15516,75.0,0.0,90.0,4.0,0.0
15517,78.0,0.0,60.0,0.0,0.0
15518,75.0,0.0,60.0,6.0,0.0
15519,75.0,0.0,90.0,2.0,0.0
15520,68.0,0.0,90.0,5.0,0.0
15521,56.0,0.0,90.0,3.0,0.0
15522,78.0,0.0,90.0,6.0,0.0
15523,68.0,18.0,60.0,0.0,0.0
15524,71.0,0.0,90.0,4.0,0.0
15525,78.0,48.0,60.0,0.0,0.0
15526,68.0,48.0,90.0,7.0,0.0
15527,68.0,0.0,90.0,4.0,0.0
15528,56.0,0.0,90.0,5.0,0.0
15529,71.0,0.0,90.0,2.0,0.0
15530,68.0,48.0,60.0,0.0,0.0
15531,78.0,0.0,60.0,0.0,0.0
15532,71.0,0.0,90.0,2.0,0.0
15533,68.0,48.0,60.0,4.0,0.0
15534,71.0,0.0,90.0,10.0,0.0
15535,76.0,0.0,90.0,8.0,0.0
15536,56.0,0.0,90.0,7.0,0.0
15537,49.0,0.0,90.0,12.0,0.0
15538,49.0,30.0,150.0,1.0,0.0
15539,68.0,0.0,60.0,0.0,0.0
15540,56.0,48.0,90.0,3.0,0.0
15541,68.0,0.0,90.0,11.0,0.0
15542,76.0,0.0,60.0,0.0,0.0
15543,66.0,0.0,60.0,4.0,0.0
15544,68.0,0.0,90.0,4.0,0.0
15545,76.0,0.0,90.0,2.0,0.0
15546,68.0,0.0,90.0,3.0,0.0
15547,68.0,18.0,60.0,0.0,0.0
15548,56.0,0.0,90.0,5.0,0.0
15549,68.0,0.0,60.0,6.0,0.0
15550,76.0,48.0,60.0,0.0,0.0
15551,68.0,48.0,90.0,5.0,0.0
15552,56.0,0.0,90.0,7.0,0.0
15553,68.0,48.0,60.0,0.0,0.0
15554,76.0,0.0,90.0,4.0,0.0
15555,71.0,0.0,60.0,6.0,0.0
15556,76.0,0.0,60.0,0.0,0.0
15557,68.0,0.0,60.0,6.0,0.0
15558,66.0,0.0,90.0,3.0,0.0
15559,54.0,30.0,150.0,1.0,0.0
15560,54.0,0.0,90.0,7.0,0.0
15561,69.0,0.0,90.0,10.0,0.0
15562,76.0,0.0,90.0,8.0,0.0
15563,69.0,0.0,60.0,6.0,0.0
15564,76.0,0.0,90.0,2.0,0.0
15565,66.0,48.0,60.0,0.0,0.0
15566,66.0,0.0,90.0,11.0,0.0
15567,73.0,0.0,90.0,4.0,0.0
15568,54.0,48.0,90.0,12.0,0.0
15569,76.0,0.0,60.0,0.0,0.0
15570,73.0,0.0,60.0,6.0,0.0
15571,66.0,18.0,60.0,0.0,0.0
15572,73.0,0.0,90.0,2.0,0.0
15573,69.0,0.0,90.0,4.0,0.0
15574,66.0,0.0,90.0,5.0,0.0
15575,54.0,48.0,90.0,3.0,0.0
15576,76.0,0.0,90.0,6.0,0.0
15577,76.0,0.0,60.0,0.0,0.0
15578,66.0,48.0,90.0,7.0,0.0
15579,69.0,0.0,90.0,2.0,0.0
15580,66.0,0.0,90.0,4.0,0.0
15581,66.0,48.0,60.0,0.0,0.0
15582,54.0,0.0,90.0,5.0,0.0
15583,76.0,0.0,60.0,0.0,0.0
15584,54.0,0.0,90.0,3.0,0.0
15585,66.0,0.0,90.0,11.0,0.0
15586,69.0,48.0,90.0,10.0,0.0
15587,66.0,48.0,60.0,4.0,0.0
15588,75.0,0.0,90.0,8.0,0.0
15589,54.0,0.0,90.0,7.0,0.0
15590,47.0,30.0,150.0,1.0,0.0
15591,66.0,0.0,60.0,0.0,0.0
15592,47.0,0.0,90.0,12.0,0.0
15593,69.0,0.0,90.0,2.0,0.0
15594,64.0,0.0,60.0,4.0,0.0
15595,75.0,0.0,60.0,0.0,0.0
15596,66.0,18.0,60.0,0.0,0.0
15597,66.0,0.0,90.0,4.0,0.0
15598,66.0,0.0,90.0,3.0,0.0
15599,75.0,48.0,90.0,2.0,0.0
15600,54.0,0.0,90.0,5.0,0.0
15601,75.0,0.0,60.0,0.0,0.0
15602,66.0,0.0,60.0,6.0,0.0
15603,69.0,48.0,60.0,6.0,0.0
15604,66.0,0.0,90.0,5.0,0.0
15605,54.0,0.0,90.0,7.0,0.0
15606,66.0,0.0,60.0,0.0,0.0
15607,75.0,0.0,90.0,4.0,0.0
15608,66.0,0.0,60.0,6.0,0.0
15609,75.0,48.0,60.0,0.0,0.0
15610,52.0,0.0,90.0,12.0,0.0
15611,68.0,0.0,60.0,6.0,0.0
15612,75.0,0.0,90.0,2.0,0.0
15613,68.0,0.0,90.0,10.0,0.0
15614,71.0,0.0,90.0,4.0,0.0
15615,64.0,0.0,90.0,11.0,0.0
15616,52.0,30.0,150.0,1.0,0.0
15617,75.0,0.0,90.0,8.0,0.0
15618,64.0,48.0,60.0,0.0,0.0
15619,52.0,0.0,90.0,7.0,0.0
15620,64.0,0.0,90.0,3.0,0.0
15621,71.0,48.0,60.0,6.0,0.0
15622,75.0,0.0,60.0,0.0,0.0
15623,64.0,18.0,60.0,0.0,0.0
15624,71.0,0.0,90.0,2.0,0.0
15625,64.0,0.0,90.0,5.0,0.0
15626,75.0,48.0,90.0,6.0,0.0
15627,68.0,0.0,90.0,4.0,0.0
15628,52.0,0.0,90.0,3.0,0.0
15629,75.0,0.0,60.0,0.0,0.0
15630,52.0,48.0,90.0,5.0,0.0
15631,64.0,0.0,90.0,7.0,0.0
15632,64.0,48.0,60.0,0.0,0.0
15633,68.0,0.0,90.0,2.0,0.0
15634,64.0,0.0,90.0,4.0,0.0
15635,75.0,0.0,60.0,0.0,0.0
15636,52.0,0.0,90.0,3.0,0.0
15637,64.0,0.0,90.0,11.0,0.0
15638,45.0,30.0,150.0,1.0,0.0
15639,64.0,0.0,60.0,4.0,0.0
15640,68.0,0.0,90.0,10.0,0.0
15641,52.0,0.0,90.0,7.0,0.0
15642,73.0,0.0,90.0,8.0,0.0
15643,45.0,48.0,90.0,12.0,0.0
15644,64.0,48.0,60.0,0.0,0.0
15645,68.0,0.0,90.0,2.0,0.0
15646,63.0,0.0,60.0,4.0,0.0
15647,73.0,0.0,60.0,0.0,0.0
15648,64.0,0.0,90.0,4.0,0.0
15649,64.0,18.0,60.0,0.0,0.0
15650,73.0,48.0,90.0,2.0,0.0
15651,64.0,0.0,90.0,3.0,0.0
15652,52.0,0.0,90.0,5.0,0.0
15653,64.0,0.0,60.0,6.0,0.0
15654,73.0,0.0,60.0,0.0,0.0
15655,64.0,0.0,90.0,5.0,0.0
15656,52.0,48.0,90.0,7.0,0.0
15657,73.0,0.0,90.0,4.0,0.0
15658,64.0,0.0,60.0,0.0,0.0
15659,68.0,48.0,60.0,6.0,0.0
15660,64.0,0.0,60.0,6.0,0.0
15661,73.0,0.0,60.0,0.0,0.0
15662,51.0,0.0,90.0,7.0,0.0
15663,73.0,0.0,90.0,8.0,0.0
15664,66.0,0.0,90.0,10.0,0.0
15665,63.0,0.0,90.0,11.0,0.0
15666,63.0,0.0,90.0,3.0,0.0
15667,51.0,0.0,90.0,12.0,0.0
15668,73.0,48.0,90.0,2.0,0.0
15669,63.0,0.0,90.0,5.0,0.0
15670,69.0,0.0,90.0,4.0,0.0
15671,66.0,0.0,60.0,6.0,0.0
15672,66.0,48.0,60.0,0.0,0.0
15673,51.0,30.0,150.0,1.0,0.0
15674,73.0,0.0,60.0,0.0,0.0
15675,69.0,0.0,60.0,6.0,0.0
15676,69.0,0.0,90.0,2.0,0.0
15677,66.0,18.0,60.0,0.0,0.0
15678,51.0,0.0,90.0,3.0,0.0
15679,73.0,0.0,90.0,6.0,0.0
15680,66.0,0.0,90.0,4.0,0.0
15681,73.0,48.0,60.0,0.0,0.0
15682,66.0,48.0,90.0,2.0,0.0
15683,63.0,0.0,90.0,7.0,0.0
15684,63.0,0.0,90.0,4.0,0.0
15685,66.0,48.0,60.0,0.0,0.0
15686,51.0,0.0,90.0,5.0,0.0
15687,73.0,0.0,60.0,0.0,0.0
15688,51.0,0.0,90.0,3.0,0.0
15689,66.0,0.0,90.0,10.0,0.0
15690,68.0,0.0,60.0,0.0,0.0
15691,63.0,0.0,90.0,11.0,0.0
15692,51.0,0.0,90.0,5.0,0.0
15693,63.0,48.0,60.0,4.0,0.0
15694,66.0,0.0,90.0,2.0,0.0
15695,72.0,48.0,90.0,8.0,0.0
15696,44.0,30.0,150.0,1.0,0.0
15697,56.0,0.0,90.0,7.0,0.0
15698,44.0,0.0,90.0,12.0,0.0
15699,72.0,0.0,60.0,0.0,0.0
15700,61.0,0.0,60.0,4.0,0.0
15701,56.0,0.0,90.0,3.0,0.0
15702,68.0,18.0,60.0,0.0,0.0
15703,78.0,0.0,90.0,2.0,0.0
15704,63.0,0.0,90.0,4.0,0.0
15705,72.0,48.0,60.0,6.0,0.0
15706,72.0,0.0,60.0,0.0,0.0
15707,75.0,0.0,90.0,4.0,0.0
15708,68.0,0.0,90.0,7.0,0.0
15709,56.0,0.0,90.0,5.0,0.0
15710,68.0,0.0,60.0,0.0,0.0
15711,75.0,48.0,60.0,6.0,0.0
15712,72.0,48.0,60.0,0.0,0.0
15713,80.0,0.0,60.0,6.0,0.0
15714,61.0,0.0,90.0,11.0,0.0
15715,61.0,48.0,60.0,7.0,0.0
15716,64.0,0.0,60.0,5.0,0.0
15717,49.0,0.0,90.0,12.0,0.0
15718,73.0,0.0,90.0,0.0,0.0
15719,73.0,0.0,90.0,8.0,0.0
15720,61.0,0.0,90.0,3.0,0.0
15721,73.0,30.0,150.0,4.0,0.0
15722,76.0,0.0,150.0,6.0,0.0
15723,76.0,0.0,90.0,2.0,0.0
15724,49.0,0.0,90.0,1.0,0.0
15725,64.0,0.0,90.0,10.0,0.0
15726,66.0,48.0,60.0,5.0,0.0
15727,63.0,0.0,60.0,7.0,0.0
15728,61.0,0.0,90.0,3.0,0.0
15729,49.0,0.0,90.0,1.0,0.0
15730,64.0,18.0,60.0,5.0,0.0
15731,61.0,0.0,60.0,7.0,0.0
15732,80.0,0.0,90.0,2.0,0.0
15733,85.0,48.0,90.0,0.0,0.0
15734,66.0,0.0,60.0,5.0,0.0
15735,63.0,0.0,60.0,7.0,0.0
15736,76.0,0.0,90.0,2.0,0.0
15737,49.0,0.0,90.0,1.0,0.0
15738,64.0,48.0,60.0,5.0,0.0
15739,80.0,0.0,90.0,0.0,0.0
15740,61.0,0.0,60.0,7.0,0.0
15741,61.0,48.0,90.0,3.0,0.0
15742,66.0,0.0,60.0,5.0,0.0
15743,63.0,0.0,60.0,7.0,0.0
15744,60.0,0.0,90.0,3.0,0.0
15745,48.0,0.0,90.0,1.0,0.0
15746,81.0,0.0,60.0,0.0,0.0
15747,54.0,0.0,90.0,7.0,0.0
15748,78.0,48.0,60.0,2.0,0.0
15749,63.0,0.0,90.0,5.0,0.0
15750,80.0,0.0,60.0,2.0,0.0
15751,83.0,48.0,60.0,0.0,0.0
15752,75.0,0.0,90.0,10.0,0.0
15753,78.0,0.0,60.0,2.0,0.0
15754,48.0,0.0,90.0,12.0,0.0
15755,48.0,0.0,90.0,1.0,0.0
15756,60.0,0.0,90.0,3.0,0.0
15757,66.0,0.0,90.0,11.0,0.0
15758,66.0,0.0,90.0,5.0,0.0
15759,81.0,0.0,90.0,8.0,0.0
15760,81.0,48.0,60.0,0.0,0.0
15761,63.0,0.0,90.0,7.0,0.0
15762,80.0,48.0,60.0,2.0,0.0
15763,83.0,0.0,60.0,0.0,0.0
15764,78.0,0.0,60.0,2.0,0.0
15765,66.0,0.0,90.0,11.0,0.0
15766,60.0,0.0,90.0,3.0,0.0
15767,48.0,0.0,90.0,1.0,0.0
15768,81.0,0.0,90.0,8.0,0.0
15769,60.0,0.0,90.0,7.0,0.0
15770,81.0,48.0,60.0,0.0,0.0
15771,75.0,0.0,90.0,10.0,0.0
15772,48.0,0.0,90.0,12.0,0.0
15773,63.0,0.0,90.0,5.0,0.0
15774,80.0,48.0,60.0,2.0,0.0
15775,83.0,0.0,60.0,0.0,0.0
15776,64.0,0.0,60.0,1.0,0.0
15777,80.0,0.0,90.0,8.0,0.0
15778,49.0,48.0,90.0,12.0,0.0
15779,73.0,0.0,90.0,11.0,0.0
15780,61.0,48.0,60.0,3.0,0.0
15781,61.0,0.0,90.0,5.0,0.0
15782,76.0,0.0,90.0,10.0,0.0
15783,80.0,30.0,150.0,0.0,0.0
15784,49.0,0.0,90.0,7.0,0.0
15785,78.0,0.0,150.0,2.0,0.0
15786,66.0,0.0,60.0,1.0,0.0
15787,63.0,0.0,60.0,3.0,0.0
15788,61.0,0.0,90.0,7.0,0.0
15789,80.0,0.0,90.0,4.0,0.0
15790,64.0,18.0,60.0,1.0,0.0
15791,76.0,48.0,90.0,6.0,0.0
15792,61.0,0.0,60.0,3.0,0.0
15793,49.0,0.0,90.0,5.0,0.0
15794,63.0,0.0,60.0,3.0,0.0
15795,66.0,0.0,60.0,1.0,0.0
15796,61.0,48.0,60.0,3.0,0.0
15797,73.0,0.0,90.0,6.0,0.0
15798,64.0,0.0,60.0,1.0,0.0
15799,61.0,0.0,90.0,7.0,0.0
15800,76.0,0.0,90.0,4.0,0.0
15801,49.0,0.0,90.0,5.0,0.0
15802,63.0,0.0,60.0,1.0,0.0
15803,59.0,48.0,60.0,3.0,0.0
15804,61.0,0.0,90.0,1.0,0.0
15805,58.0,0.0,90.0,3.0,0.0
15806,55.0,0.0,90.0,7.0,0.0
15807,76.0,48.0,60.0,4.0,0.0
15808,73.0,0.0,60.0,6.0,0.0
15809,43.0,48.0,90.0,5.0,0.0
15810,75.0,0.0,60.0,6.0,0.0
15811,78.0,0.0,60.0,4.0,0.0
15812,73.0,48.0,90.0,10.0,0.0
15813,61.0,0.0,90.0,3.0,0.0
15814,43.0,0.0,90.0,12.0,0.0
15815,55.0,0.0,90.0,7.0,0.0
15816,43.0,0.0,90.0,5.0,0.0
15817,76.0,0.0,90.0,8.0,0.0
15818,73.0,0.0,60.0,6.0,0.0
15819,76.0,48.0,60.0,4.0,0.0
15820,67.0,0.0,90.0,1.0,0.0
15821,70.0,0.0,90.0,11.0,0.0
15822,78.0,0.0,60.0,4.0,0.0
15823,75.0,0.0,60.0,6.0,0.0
15824,73.0,0.0,90.0,10.0,0.0
15825,73.0,48.0,60.0,6.0,0.0
15826,43.0,0.0,90.0,12.0,0.0
15827,70.0,0.0,90.0,11.0,0.0
15828,55.0,0.0,90.0,3.0,0.0
15829,43.0,0.0,90.0,5.0,0.0
15830,70.0,0.0,90.0,1.0,0.0
15831,76.0,0.0,90.0,8.0,0.0
15832,55.0,24.0,90.0,7.0,0.0
15833,76.0,0.0,60.0,4.0,0.0
15834,75.0,0.0,60.0,6.0,0.0
15835,78.0,0.0,60.0,4.0,0.0
15836,44.0,0.0,90.0,12.0,0.0
15837,73.0,24.0,20.0,6.0,0.0
15838,44.0,0.0,60.0,5.0,0.0
15839,63.0,24.0,60.0,1.0,0.0
15840,75.0,6.0,270.0,8.0,0.0
15841,76.0,0.0,20.0,4.0,0.0
15842,60.0,0.0,60.0,3.0,0.0
15843,73.0,0.0,20.0,0.0,0.0
15844,63.0,0.0,90.0,11.0,0.0
15845,76.0,0.0,20.0,2.0,0.0
15846,72.0,0.0,270.0,10.0,0.0
15847,56.0,0.0,90.0,7.0,0.0
15848,75.0,0.0,20.0,2.0,0.0
15849,75.0,0.0,20.0,4.0,0.0
15850,72.0,0.0,20.0,6.0,0.0
15851,72.0,0.0,20.0,0.0,0.0
15852,73.0,0.0,20.0,0.0,0.0
15853,61.0,0.0,60.0,1.0,0.0
15854,76.0,24.0,20.0,2.0,0.0
15855,73.0,0.0,20.0,6.0,0.0
15856,57.0,24.0,60.0,5.0,0.0
15857,66.0,0.0,60.0,3.0,0.0
15858,76.0,0.0,20.0,4.0,0.0
15859,75.0,0.0,20.0,2.0,0.0
15860,75.0,0.0,20.0,4.0,0.0
15861,72.0,0.0,20.0,6.0,0.0
15862,72.0,0.0,20.0,0.0,0.0
15863,76.0,0.0,20.0,2.0,0.0
15864,73.0,0.0,20.0,0.0,0.0
15865,60.0,0.0,60.0,1.0,0.0
15866,68.0,0.0,90.0,11.0,0.0
15867,56.0,0.0,60.0,5.0,0.0
15868,56.0,0.0,90.0,7.0,0.0
15869,73.0,0.0,20.0,6.0,0.0
15870,64.0,0.0,60.0,3.0,0.0
15871,76.0,24.0,20.0,4.0,0.0
15872,56.0,0.0,90.0,12.0,0.0
15873,72.0,0.0,20.0,6.0,0.0
15874,75.0,0.0,20.0,2.0,0.0
15875,75.0,0.0,20.0,4.0,0.0
15876,72.0,24.0,20.0,0.0,0.0
15877,63.0,0.0,60.0,3.0,0.0
15878,76.0,0.0,20.0,2.0,0.0
15879,76.0,0.0,20.0,4.0,0.0
15880,73.0,24.0,20.0,6.0,0.0
15881,54.0,0.0,60.0,5.0,0.0
15882,58.0,0.0,60.0,1.0,0.0
15883,73.0,0.0,20.0,0.0,0.0
15884,72.0,0.0,20.0,0.0,0.0
15885,75.0,0.0,20.0,2.0,0.0
15886,72.0,24.0,20.0,6.0,0.0
15887,75.0,0.0,20.0,4.0,0.0
15888,73.0,0.0,20.0,6.0,0.0
15889,73.0,0.0,20.0,0.0,0.0
15890,76.0,24.0,20.0,2.0,0.0
15891,68.0,0.0,90.0,11.0,0.0
15892,52.0,0.0,60.0,5.0,0.0
15893,56.0,0.0,90.0,7.0,0.0
15894,76.0,0.0,20.0,4.0,0.0
15895,56.0,0.0,60.0,1.0,0.0
15896,56.0,0.0,90.0,12.0,0.0
15897,61.0,0.0,60.0,3.0,0.0
15898,75.0,18.0,20.0,4.0,0.0
15899,72.0,0.0,20.0,6.0,0.0
15900,75.0,0.0,20.0,2.0,0.0
15901,72.0,0.0,20.0,0.0,0.0
15902,73.0,0.0,20.0,0.0,0.0
15903,66.0,0.0,60.0,1.0,0.0
15904,60.0,0.0,60.0,3.0,0.0
15905,73.0,24.0,20.0,6.0,0.0
15906,51.0,0.0,60.0,5.0,0.0
15907,76.0,0.0,20.0,2.0,0.0
15908,76.0,0.0,20.0,4.0,0.0
15909,72.0,24.0,20.0,0.0,0.0
15910,72.0,0.0,20.0,6.0,0.0
15911,75.0,0.0,20.0,4.0,0.0
15912,75.0,0.0,20.0,2.0,0.0
15913,49.0,0.0,90.0,5.0,0.0
15914,61.0,0.0,90.0,12.0,0.0
15915,76.0,6.0,270.0,8.0,0.0
15916,73.0,24.0,90.0,6.0,0.0
15917,73.0,0.0,90.0,10.0,0.0
15918,78.0,24.0,20.0,4.0,0.0
15919,61.0,0.0,90.0,7.0,0.0
15920,68.0,0.0,90.0,11.0,0.0
15921,64.0,24.0,60.0,1.0,0.0
15922,68.0,0.0,60.0,3.0,0.0
15923,73.0,0.0,90.0,0.0,0.0
15924,78.0,0.0,20.0,2.0,0.0
15925,76.0,0.0,20.0,2.0,0.0
15926,76.0,0.0,20.0,4.0,0.0
15927,78.0,24.0,20.0,4.0,0.0
15928,69.0,0.0,60.0,3.0,0.0
15929,78.0,0.0,20.0,2.0,0.0
15930,60.0,0.0,60.0,1.0,0.0
15931,76.0,0.0,20.0,2.0,0.0
15932,76.0,0.0,20.0,4.0,0.0
15933,49.0,0.0,90.0,5.0,0.0
15934,78.0,0.0,20.0,4.0,0.0
15935,68.0,0.0,90.0,11.0,0.0
15936,85.0,0.0,90.0,0.0,0.0
15937,85.0,0.0,90.0,6.0,0.0
15938,78.0,24.0,20.0,2.0,0.0
15939,68.0,0.0,60.0,3.0,0.0
15940,61.0,0.0,90.0,12.0,0.0
15941,61.0,0.0,90.0,7.0,0.0
15942,85.0,0.0,90.0,10.0,0.0
15943,61.0,0.0,60.0,1.0,0.0
15944,76.0,0.0,20.0,4.0,0.0
15945,76.0,24.0,20.0,2.0,0.0
15946,78.0,0.0,20.0,4.0,0.0
15947,66.0,0.0,60.0,3.0,0.0
15948,78.0,24.0,20.0,2.0,0.0
15949,63.0,24.0,60.0,1.0,0.0
15950,76.0,0.0,20.0,2.0,0.0
15951,76.0,0.0,20.0,4.0,0.0
15952,61.0,0.0,90.0,12.0,0.0
15953,64.0,0.0,60.0,1.0,0.0
15954,73.0,0.0,90.0,10.0,0.0
15955,78.0,24.0,20.0,2.0,0.0
15956,49.0,0.0,90.0,5.0,0.0
15957,73.0,0.0,90.0,6.0,0.0
15958,61.0,0.0,90.0,7.0,0.0
15959,68.0,0.0,90.0,11.0,0.0
15960,73.0,0.0,90.0,0.0,0.0
15961,64.0,0.0,60.0,3.0,0.0
15962,78.0,0.0,20.0,4.0,0.0
15963,76.0,18.0,20.0,2.0,0.0
15964,76.0,0.0,20.0,4.0,0.0
15965,78.0,0.0,20.0,4.0,0.0
15966,78.0,24.0,20.0,2.0,0.0
15967,63.0,0.0,60.0,3.0,0.0
15968,66.0,0.0,60.0,1.0,0.0
15969,76.0,24.0,20.0,2.0,0.0
15970,76.0,0.0,20.0,4.0,0.0
15971,73.0,0.0,90.0,0.0,0.0
15972,61.0,0.0,60.0,3.0,0.0
15973,73.0,0.0,90.0,10.0,0.0
15974,68.0,24.0,90.0,11.0,0.0
15975,78.0,0.0,20.0,4.0,0.0
15976,68.0,0.0,60.0,1.0,0.0
15977,78.0,24.0,20.0,2.0,0.0
15978,47.0,0.0,90.0,5.0,0.0
15979,59.0,0.0,90.0,12.0,0.0
15980,73.0,0.0,90.0,6.0,0.0
15981,77.0,6.0,270.0,8.0,0.0
15982,59.0,0.0,90.0,7.0,0.0
15983,77.0,24.0,20.0,2.0,0.0
15984,77.0,0.0,20.0,4.0,0.0
15985,66.0,0.0,60.0,1.0,0.0
15986,62.0,0.0,60.0,3.0,0.0
15987,78.0,24.0,20.0,2.0,0.0
15988,78.0,0.0,20.0,4.0,0.0
15989,77.0,0.0,20.0,4.0,0.0
15990,77.0,0.0,20.0,2.0,0.0
15991,61.0,0.0,60.0,3.0,0.0
15992,85.0,24.0,90.0,6.0,0.0
15993,68.0,0.0,90.0,11.0,0.0
15994,59.0,0.0,90.0,7.0,0.0
15995,85.0,0.0,90.0,0.0,0.0
15996,78.0,0.0,20.0,4.0,0.0
15997,78.0,24.0,20.0,2.0,0.0
15998,85.0,0.0,90.0,10.0,0.0
15999,68.0,0.0,60.0,1.0,0.0
16000,59.0,0.0,90.0,12.0,0.0
16001,47.0,0.0,90.0,5.0,0.0
16002,77.0,24.0,20.0,4.0,0.0
16003,77.0,0.0,20.0,2.0,0.0
16004,78.0,0.0,20.0,4.0,0.0
16005,59.0,0.0,60.0,3.0,0.0
16006,78.0,24.0,20.0,2.0,0.0
16007,69.0,0.0,60.0,1.0,0.0
16008,77.0,0.0,20.0,4.0,0.0
16009,77.0,0.0,20.0,2.0,0.0
16010,66.0,0.0,60.0,1.0,0.0
16011,59.0,0.0,90.0,12.0,0.0
16012,73.0,0.0,90.0,10.0,0.0
16013,73.0,0.0,90.0,0.0,0.0
16014,78.0,24.0,20.0,2.0,0.0
16015,68.0,0.0,90.0,11.0,0.0
16016,78.0,0.0,20.0,4.0,0.0
16017,73.0,24.0,90.0,6.0,0.0
16018,59.0,0.0,90.0,7.0,0.0
16019,57.0,0.0,60.0,3.0,0.0
16020,47.0,0.0,90.0,5.0,0.0
16021,77.0,0.0,20.0,4.0,0.0
16022,77.0,18.0,20.0,2.0,0.0
16023,78.0,0.0,20.0,4.0,0.0
16024,56.0,0.0,60.0,3.0,0.0
16025,68.0,0.0,60.0,1.0,0.0
16026,78.0,24.0,20.0,2.0,0.0
16027,77.0,0.0,20.0,2.0,0.0
16028,77.0,0.0,20.0,4.0,0.0
16029,69.0,24.0,60.0,1.0,0.0
16030,78.0,6.0,270.0,8.0,0.0
16031,69.0,0.0,90.0,11.0,0.0
16032,80.0,0.0,20.0,4.0,0.0
16033,73.0,0.0,90.0,6.0,0.0
16034,57.0,0.0,90.0,12.0,0.0
16035,73.0,24.0,90.0,10.0,0.0
16036,57.0,0.0,90.0,7.0,0.0
16037,73.0,0.0,90.0,0.0,0.0
16038,54.0,0.0,60.0,3.0,0.0
16039,80.0,24.0,20.0,2.0,0.0
16040,45.0,0.0,90.0,5.0,0.0
16041,78.0,0.0,20.0,2.0,0.0
16042,78.0,0.0,20.0,4.0,0.0
16043,80.0,0.0,20.0,4.0,0.0
16044,61.0,0.0,60.0,3.0,0.0
16045,80.0,24.0,20.0,2.0,0.0
16046,68.0,0.0,60.0,1.0,0.0
16047,78.0,0.0,20.0,4.0,0.0
16048,78.0,0.0,20.0,2.0,0.0
16049,69.0,0.0,60.0,1.0,0.0
16050,57.0,0.0,90.0,7.0,0.0
16051,69.0,0.0,90.0,11.0,0.0
16052,85.0,0.0,90.0,6.0,0.0
16053,85.0,0.0,90.0,0.0,0.0
16054,66.0,24.0,60.0,3.0,0.0
16055,45.0,0.0,90.0,5.0,0.0
16056,80.0,24.0,20.0,4.0,0.0
16057,57.0,24.0,90.0,12.0,0.0
16058,85.0,0.0,90.0,10.0,0.0
16059,80.0,0.0,20.0,2.0,0.0
16060,78.0,0.0,20.0,2.0,0.0
16061,78.0,0.0,20.0,4.0,0.0
16062,80.0,24.0,20.0,4.0,0.0
16063,80.0,0.0,20.0,2.0,0.0
16064,71.0,0.0,60.0,1.0,0.0
16065,65.0,0.0,60.0,3.0,0.0
16066,78.0,0.0,20.0,4.0,0.0
16067,78.0,0.0,20.0,2.0,0.0
16068,45.0,0.0,90.0,5.0,0.0
16069,69.0,0.0,90.0,11.0,0.0
16070,57.0,0.0,90.0,7.0,0.0
16071,73.0,0.0,90.0,6.0,0.0
16072,80.0,24.0,20.0,2.0,0.0
16073,57.0,0.0,90.0,12.0,0.0
16074,73.0,0.0,90.0,0.0,0.0
16075,66.0,0.0,60.0,3.0,0.0
16076,73.0,24.0,90.0,10.0,0.0
16077,80.0,0.0,20.0,4.0,0.0
16078,69.0,0.0,60.0,1.0,0.0
16079,78.0,18.0,20.0,4.0,0.0
16080,78.0,0.0,20.0,2.0,0.0
16081,68.0,0.0,60.0,3.0,0.0
16082,68.0,0.0,60.0,1.0,0.0
16083,80.0,0.0,20.0,2.0,0.0
16084,80.0,24.0,20.0,4.0,0.0
16085,78.0,0.0,20.0,4.0,0.0
16086,78.0,0.0,20.0,2.0,0.0
16087,73.0,0.0,90.0,10.0,0.0
16088,80.0,0.0,20.0,4.0,0.0
16089,67.0,24.0,60.0,1.0,0.0
16090,51.0,0.0,90.0,12.0,0.0
16091,70.0,0.0,90.0,11.0,0.0
16092,73.0,0.0,90.0,6.0,0.0
16093,80.0,24.0,20.0,2.0,0.0
16094,39.0,0.0,90.0,5.0,0.0
16095,70.0,0.0,60.0,3.0,0.0
16096,73.0,24.0,90.0,0.0,0.0
16097,79.0,6.0,270.0,8.0,0.0
16098,51.0,0.0,90.0,7.0,0.0
16099,79.0,0.0,20.0,4.0,0.0
16100,79.0,0.0,20.0,2.0,0.0
16101,80.0,24.0,20.0,2.0,0.0
16102,68.0,0.0,60.0,1.0,0.0
16103,68.0,0.0,60.0,3.0,0.0
16104,80.0,0.0,20.0,4.0,0.0
16105,79.0,0.0,20.0,2.0,0.0
16106,79.0,0.0,20.0,4.0,0.0
16107,39.0,0.0,90.0,5.0,0.0
16108,51.0,0.0,90.0,7.0,0.0
16109,85.0,24.0,90.0,6.0,0.0
16110,70.0,0.0,90.0,11.0,0.0
16111,80.0,24.0,20.0,2.0,0.0
16112,67.0,24.0,60.0,3.0,0.0
16113,80.0,0.0,20.0,4.0,0.0
16114,70.0,0.0,60.0,1.0,0.0
16115,85.0,0.0,90.0,10.0,0.0
16116,85.0,0.0,90.0,0.0,0.0
16117,51.0,0.0,90.0,12.0,0.0
16118,79.0,0.0,20.0,4.0,0.0
16119,79.0,0.0,20.0,2.0,0.0
16120,80.0,0.0,20.0,2.0,0.0
16121,68.0,0.0,60.0,1.0,0.0
16122,80.0,24.0,20.0,4.0,0.0
16123,65.0,0.0,60.0,3.0,0.0
16124,79.0,0.0,20.0,2.0,0.0
16125,79.0,0.0,20.0,4.0,0.0
16126,73.0,0.0,90.0,0.0,0.0
16127,80.0,24.0,20.0,2.0,0.0
16128,67.0,18.0,60.0,3.0,0.0
16129,51.0,0.0,90.0,7.0,0.0
16130,73.0,0.0,90.0,6.0,0.0
16131,80.0,0.0,20.0,4.0,0.0
16132,39.0,0.0,90.0,5.0,0.0
16133,67.0,0.0,60.0,1.0,0.0
16134,51.0,0.0,90.0,12.0,0.0
16135,73.0,0.0,90.0,10.0,0.0
16136,70.0,48.0,90.0,11.0,0.0
16137,79.0,0.0,20.0,2.0,0.0
16138,79.0,0.0,20.0,4.0,0.0
16139,70.0,0.0,60.0,3.0,0.0
16140,65.0,0.0,60.0,1.0,0.0
16141,80.0,24.0,20.0,2.0,0.0
16142,80.0,0.0,20.0,4.0,0.0
16143,79.0,0.0,20.0,2.0,0.0
16144,79.0,0.0,20.0,4.0,0.0
16145,80.0,0.0,60.0,4.0,0.0
16146,44.0,0.0,90.0,12.0,0.0
16147,44.0,0.0,150.0,5.0,0.0
16148,80.0,48.0,60.0,2.0,0.0
16149,72.0,48.0,90.0,10.0,0.0
16150,68.0,0.0,90.0,11.0,0.0
16151,80.0,6.0,540.0,8.0,0.0
16152,72.0,30.0,150.0,0.0,0.0
16153,63.0,0.0,60.0,1.0,0.0
16154,72.0,0.0,90.0,3.0,0.0
16155,72.0,0.0,150.0,6.0,0.0
16156,56.0,0.0,150.0,7.0,0.0
16157,61.0,0.0,60.0,1.0,0.0
16158,81.0,0.0,60.0,4.0,0.0
16159,81.0,0.0,60.0,2.0,0.0
16160,80.0,18.0,60.0,2.0,0.0
16161,63.0,0.0,90.0,11.0,0.0
16162,80.0,0.0,60.0,4.0,0.0
16163,75.0,0.0,90.0,10.0,0.0
16164,48.0,0.0,90.0,12.0,0.0
16165,63.0,0.0,90.0,3.0,0.0
16166,60.0,0.0,60.0,1.0,0.0
16167,78.0,0.0,60.0,4.0,0.0
16168,58.0,48.0,60.0,1.0,0.0
16169,78.0,0.0,60.0,2.0,0.0
16170,80.0,0.0,90.0,10.0,0.0
16171,68.0,24.0,90.0,3.0,0.0
16172,60.0,0.0,90.0,5.0,0.0
16173,60.0,0.0,90.0,11.0,0.0
16174,76.0,48.0,60.0,2.0,0.0
16175,76.0,0.0,60.0,4.0,0.0
16176,44.0,0.0,90.0,12.0,0.0
16177,56.0,0.0,60.0,1.0,0.0
16178,54.0,0.0,60.0,1.0,0.0
16179,75.0,0.0,60.0,2.0,0.0
16180,75.0,0.0,60.0,4.0,0.0
16181,76.0,0.0,90.0,2.0,0.0
16182,61.0,0.0,90.0,11.0,0.0
16183,81.0,24.0,20.0,6.0,0.0
16184,81.0,0.0,20.0,0.0,0.0
16185,73.0,0.0,60.0,7.0,0.0
16186,61.0,6.0,150.0,5.0,0.0
16187,76.0,0.0,90.0,10.0,0.0
16188,49.0,0.0,90.0,12.0,0.0
16189,76.0,0.0,90.0,4.0,0.0
16190,61.0,24.0,90.0,3.0,0.0
16191,52.0,24.0,60.0,1.0,0.0
16192,80.0,0.0,20.0,0.0,0.0
16193,80.0,0.0,20.0,6.0,0.0
16194,81.0,24.0,20.0,6.0,0.0
16195,71.0,0.0,60.0,7.0,0.0
16196,51.0,0.0,60.0,1.0,0.0
16197,81.0,0.0,20.0,0.0,0.0
16198,80.0,0.0,20.0,0.0,0.0
16199,80.0,0.0,20.0,6.0,0.0
16200,81.0,24.0,20.0,6.0,0.0
16201,78.0,0.0,20.0,4.0,0.0
16202,78.0,0.0,20.0,2.0,0.0
16203,78.0,0.0,20.0,10.0,0.0
16204,49.0,0.0,60.0,1.0,0.0
16205,73.0,0.0,60.0,7.0,0.0
16206,49.0,0.0,90.0,12.0,0.0
16207,68.0,0.0,90.0,11.0,0.0
16208,81.0,0.0,20.0,0.0,0.0
16209,61.0,0.0,90.0,3.0,0.0
16210,77.0,0.0,20.0,2.0,0.0
16211,80.0,18.0,20.0,6.0,0.0
16212,80.0,0.0,20.0,0.0,0.0
16213,77.0,0.0,20.0,4.0,0.0
16214,77.0,0.0,20.0,10.0,0.0
16215,78.0,24.0,20.0,4.0,0.0
16216,78.0,0.0,20.0,2.0,0.0
16217,74.0,0.0,60.0,7.0,0.0
16218,81.0,0.0,20.0,0.0,0.0
16219,47.0,0.0,60.0,1.0,0.0
16220,78.0,0.0,20.0,10.0,0.0
16221,81.0,0.0,20.0,6.0,0.0
16222,80.0,0.0,20.0,0.0,0.0
16223,77.0,0.0,20.0,10.0,0.0
16224,77.0,24.0,20.0,2.0,0.0
16225,80.0,0.0,20.0,6.0,0.0
16226,77.0,0.0,20.0,4.0,0.0
16227,73.0,0.0,60.0,7.0,0.0
16228,78.0,0.0,20.0,10.0,0.0
16229,73.0,0.0,90.0,11.0,0.0
16230,45.0,0.0,60.0,1.0,0.0
16231,78.0,0.0,20.0,2.0,0.0
16232,61.0,0.0,90.0,3.0,0.0
16233,49.0,0.0,90.0,12.0,0.0
16234,78.0,24.0,20.0,4.0,0.0
16235,81.0,0.0,20.0,0.0,0.0
16236,81.0,0.0,20.0,6.0,0.0
16237,49.0,0.0,90.0,5.0,0.0
16238,77.0,18.0,20.0,2.0,0.0
16239,80.0,0.0,20.0,6.0,0.0
16240,77.0,0.0,20.0,4.0,0.0
16241,80.0,0.0,20.0,0.0,0.0
16242,77.0,0.0,20.0,10.0,0.0
16243,78.0,0.0,20.0,4.0,0.0
16244,81.0,0.0,20.0,0.0,0.0
16245,78.0,24.0,20.0,10.0,0.0
16246,44.0,0.0,60.0,1.0,0.0
16247,71.0,0.0,60.0,7.0,0.0
16248,81.0,0.0,20.0,6.0,0.0
16249,78.0,0.0,20.0,2.0,0.0
16250,77.0,0.0,20.0,10.0,0.0
16251,80.0,0.0,20.0,0.0,0.0
16252,77.0,24.0,20.0,2.0,0.0
16253,77.0,0.0,20.0,4.0,0.0
16254,80.0,0.0,20.0,6.0,0.0
16255,69.0,0.0,60.0,7.0,0.0
16256,78.0,24.0,90.0,2.0,0.0
16257,42.0,0.0,90.0,1.0,0.0
16258,78.0,0.0,90.0,10.0,0.0
16259,78.0,0.0,90.0,4.0,0.0
16260,54.0,0.0,90.0,12.0,0.0
16261,83.0,0.0,20.0,6.0,0.0
16262,73.0,0.0,90.0,11.0,0.0
16263,81.0,6.0,270.0,8.0,0.0
16264,83.0,24.0,20.0,0.0,0.0
16265,54.0,0.0,60.0,5.0,0.0
16266,54.0,0.0,90.0,3.0,0.0
16267,81.0,0.0,20.0,6.0,0.0
16268,81.0,24.0,20.0,0.0,0.0
16269,68.0,0.0,60.0,7.0,0.0
16270,53.0,0.0,60.0,5.0,0.0
16271,83.0,24.0,20.0,6.0,0.0
16272,83.0,0.0,20.0,0.0,0.0
16273,81.0,0.0,20.0,6.0,0.0
16274,81.0,0.0,20.0,0.0,0.0
16275,54.0,0.0,60.0,5.0,0.0
16276,83.0,0.0,20.0,0.0,0.0
16277,54.0,0.0,90.0,3.0,0.0
16278,42.0,0.0,90.0,1.0,0.0
16279,69.0,0.0,60.0,7.0,0.0
16280,83.0,24.0,20.0,6.0,0.0
16281,66.0,0.0,90.0,2.0,0.0
16282,54.0,0.0,90.0,12.0,0.0
16283,73.0,0.0,90.0,11.0,0.0
16284,66.0,0.0,90.0,10.0,0.0
16285,66.0,0.0,90.0,4.0,0.0
16286,81.0,0.0,20.0,0.0,0.0
16287,81.0,24.0,20.0,6.0,0.0
16288,83.0,0.0,20.0,0.0,0.0
16289,71.0,0.0,60.0,7.0,0.0
16290,83.0,24.0,20.0,6.0,0.0
16291,56.0,0.0,60.0,5.0,0.0
16292,81.0,24.0,20.0,0.0,0.0
16293,81.0,0.0,20.0,6.0,0.0
16294,83.0,0.0,20.0,6.0,0.0
16295,78.0,0.0,90.0,10.0,0.0
16296,78.0,0.0,90.0,4.0,0.0
16297,69.0,18.0,60.0,7.0,0.0
16298,42.0,24.0,90.0,1.0,0.0
16299,57.0,0.0,60.0,5.0,0.0
16300,73.0,0.0,90.0,11.0,0.0
16301,83.0,24.0,20.0,0.0,0.0
16302,54.0,0.0,90.0,12.0,0.0
16303,78.0,0.0,90.0,2.0,0.0
16304,54.0,0.0,90.0,3.0,0.0
16305,81.0,0.0,20.0,0.0,0.0
16306,81.0,0.0,20.0,6.0,0.0
16307,68.0,0.0,60.0,7.0,0.0
16308,59.0,0.0,60.0,5.0,0.0
16309,83.0,24.0,20.0,6.0,0.0
16310,83.0,0.0,20.0,0.0,0.0
16311,81.0,0.0,20.0,0.0,0.0
16312,81.0,0.0,20.0,6.0,0.0
16313,52.0,0.0,90.0,12.0,0.0
16314,61.0,24.0,60.0,5.0,0.0
16315,40.0,0.0,90.0,1.0,0.0
16316,83.0,24.0,20.0,6.0,0.0
16317,66.0,0.0,60.0,7.0,0.0
16318,52.0,0.0,90.0,3.0,0.0
16319,78.0,0.0,90.0,10.0,0.0
16320,82.0,6.0,270.0,8.0,0.0
16321,83.0,0.0,20.0,0.0,0.0
16322,73.0,0.0,90.0,11.0,0.0
16323,78.0,0.0,90.0,2.0,0.0
16324,78.0,0.0,90.0,4.0,0.0
16325,82.0,0.0,20.0,0.0,0.0
16326,82.0,0.0,20.0,6.0,0.0
16327,83.0,0.0,20.0,0.0,0.0
16328,68.0,24.0,60.0,7.0,0.0
16329,59.0,0.0,60.0,5.0,0.0
16330,83.0,24.0,20.0,6.0,0.0
16331,82.0,0.0,20.0,0.0,0.0
16332,82.0,0.0,20.0,6.0,0.0
16333,66.0,0.0,60.0,7.0,0.0
16334,66.0,0.0,90.0,2.0,0.0
16335,52.0,0.0,90.0,3.0,0.0
16336,83.0,24.0,20.0,0.0,0.0
16337,58.0,24.0,60.0,5.0,0.0
16338,83.0,0.0,20.0,6.0,0.0
16339,66.0,0.0,90.0,4.0,0.0
16340,66.0,0.0,90.0,10.0,0.0
16341,52.0,0.0,90.0,12.0,0.0
16342,40.0,0.0,90.0,1.0,0.0
16343,73.0,0.0,90.0,11.0,0.0
16344,82.0,0.0,20.0,0.0,0.0
16345,82.0,0.0,20.0,6.0,0.0
16346,64.0,0.0,60.0,7.0,0.0
16347,56.0,0.0,60.0,5.0,0.0
16348,83.0,0.0,20.0,0.0,0.0
16349,83.0,24.0,20.0,6.0,0.0
16350,82.0,24.0,20.0,6.0,0.0
16351,82.0,0.0,20.0,0.0,0.0
16352,78.0,0.0,90.0,4.0,0.0
16353,78.0,0.0,90.0,10.0,0.0
16354,40.0,0.0,90.0,1.0,0.0
16355,73.0,0.0,90.0,11.0,0.0
16356,78.0,0.0,90.0,2.0,0.0
16357,52.0,0.0,90.0,3.0,0.0
16358,63.0,0.0,60.0,7.0,0.0
16359,52.0,0.0,90.0,12.0,0.0
16360,83.0,24.0,20.0,0.0,0.0
16361,54.0,0.0,60.0,5.0,0.0
16362,83.0,0.0,20.0,6.0,0.0
16363,82.0,0.0,20.0,0.0,0.0
16364,82.0,18.0,20.0,6.0,0.0
16365,83.0,0.0,20.0,0.0,0.0
16366,61.0,0.0,60.0,7.0,0.0
16367,83.0,24.0,20.0,6.0,0.0
16368,61.0,24.0,60.0,5.0,0.0
16369,82.0,0.0,20.0,6.0,0.0
16370,82.0,0.0,20.0,0.0,0.0
16371,39.0,0.0,90.0,1.0,0.0
16372,75.0,0.0,90.0,11.0,0.0
16373,78.0,0.0,90.0,4.0,0.0
16374,85.0,0.0,20.0,6.0,0.0
16375,59.0,24.0,60.0,7.0,0.0
16376,78.0,24.0,90.0,2.0,0.0
16377,51.0,0.0,90.0,3.0,0.0
16378,51.0,0.0,90.0,12.0,0.0
16379,83.0,6.0,270.0,8.0,0.0
16380,85.0,24.0,20.0,0.0,0.0
16381,78.0,0.0,90.0,10.0,0.0
16382,63.0,0.0,60.0,5.0,0.0
16383,83.0,0.0,20.0,6.0,0.0
16384,83.0,0.0,20.0,0.0,0.0
16385,85.0,24.0,20.0,0.0,0.0
16386,61.0,0.0,60.0,5.0,0.0
16387,58.0,0.0,60.0,7.0,0.0
16388,85.0,0.0,20.0,6.0,0.0
16389,83.0,0.0,20.0,0.0,0.0
16390,83.0,0.0,20.0,6.0,0.0
16391,39.0,0.0,90.0,1.0,0.0
16392,85.0,24.0,20.0,0.0,0.0
16393,85.0,0.0,20.0,6.0,0.0
16394,51.0,0.0,90.0,12.0,0.0
16395,66.0,0.0,90.0,2.0,0.0
16396,75.0,0.0,90.0,11.0,0.0
16397,66.0,0.0,90.0,10.0,0.0
16398,51.0,0.0,90.0,3.0,0.0
16399,63.0,0.0,60.0,5.0,0.0
16400,59.0,0.0,60.0,7.0,0.0
16401,66.0,0.0,90.0,4.0,0.0
16402,83.0,0.0,20.0,6.0,0.0
16403,83.0,24.0,20.0,0.0,0.0
16404,85.0,24.0,20.0,6.0,0.0
16405,64.0,0.0,60.0,5.0,0.0
16406,85.0,0.0,20.0,0.0,0.0
16407,61.0,0.0,60.0,7.0,0.0
16408,83.0,24.0,20.0,0.0,0.0
16409,83.0,0.0,20.0,6.0,0.0
16410,51.0,0.0,90.0,12.0,0.0
16411,78.0,0.0,90.0,4.0,0.0
16412,59.0,0.0,60.0,7.0,0.0
16413,75.0,0.0,90.0,11.0,0.0
16414,78.0,0.0,90.0,10.0,0.0
16415,63.0,0.0,60.0,5.0,0.0
16416,51.0,0.0,90.0,3.0,0.0
16417,78.0,0.0,90.0,2.0,0.0
16418,39.0,0.0,90.0,1.0,0.0
16419,85.0,24.0,20.0,0.0,0.0
16420,85.0,0.0,20.0,6.0,0.0
16421,83.0,18.0,20.0,6.0,0.0
16422,83.0,0.0,20.0,0.0,0.0
16423,85.0,24.0,20.0,6.0,0.0
16424,57.0,0.0,60.0,7.0,0.0
16425,85.0,0.0,20.0,0.0,0.0
16426,61.0,0.0,60.0,5.0,0.0
16427,83.0,0.0,20.0,6.0,0.0
16428,83.0,24.0,20.0,0.0,0.0
16429,56.0,0.0,90.0,3.0,0.0
16430,84.0,6.0,270.0,8.0,0.0
16431,44.0,0.0,90.0,1.0,0.0
16432,56.0,24.0,90.0,12.0,0.0
16433,78.0,0.0,90.0,10.0,0.0
16434,78.0,0.0,90.0,4.0,0.0
16435,85.0,0.0,20.0,6.0,0.0
16436,56.0,0.0,60.0,7.0,0.0
16437,78.0,0.0,90.0,2.0,0.0
16438,75.0,0.0,90.0,11.0,0.0
16439,63.0,24.0,60.0,5.0,0.0
16440,85.0,24.0,20.0,0.0,0.0
16441,84.0,0.0,20.0,6.0,0.0
16442,84.0,0.0,20.0,0.0,0.0
16443,61.0,0.0,60.0,5.0,0.0
16444,85.0,0.0,20.0,0.0,0.0
16445,85.0,24.0,20.0,6.0,0.0
16446,57.0,0.0,60.0,7.0,0.0
16447,84.0,0.0,20.0,6.0,0.0
16448,84.0,0.0,20.0,0.0,0.0
16449,75.0,0.0,90.0,11.0,0.0
16450,56.0,0.0,90.0,12.0,0.0
16451,56.0,0.0,90.0,3.0,0.0
16452,66.0,0.0,90.0,10.0,0.0
16453,85.0,24.0,20.0,6.0,0.0
16454,66.0,0.0,90.0,4.0,0.0
16455,56.0,0.0,60.0,7.0,0.0
16456,66.0,0.0,90.0,2.0,0.0
16457,60.0,24.0,60.0,5.0,0.0
16458,44.0,0.0,90.0,1.0,0.0
16459,85.0,0.0,20.0,0.0,0.0
16460,84.0,0.0,20.0,0.0,0.0
16461,84.0,0.0,20.0,6.0,0.0
16462,85.0,0.0,20.0,6.0,0.0
16463,54.0,0.0,60.0,7.0,0.0
16464,85.0,24.0,20.0,0.0,0.0
16465,63.0,0.0,60.0,5.0,0.0
16466,84.0,24.0,20.0,0.0,0.0
16467,84.0,0.0,20.0,6.0,0.0
16468,78.0,0.0,90.0,10.0,0.0
16469,61.0,0.0,60.0,5.0,0.0
16470,78.0,0.0,90.0,2.0,0.0
16471,56.0,0.0,90.0,12.0,0.0
16472,52.0,0.0,60.0,7.0,0.0
16473,75.0,0.0,90.0,11.0,0.0
16474,85.0,24.0,20.0,6.0,0.0
16475,85.0,0.0,20.0,0.0,0.0
16476,78.0,0.0,90.0,4.0,0.0
16477,56.0,0.0,90.0,3.0,0.0
16478,44.0,0.0,90.0,1.0,0.0
16479,84.0,0.0,20.0,0.0,0.0
16480,84.0,18.0,20.0,6.0,0.0
16481,85.0,0.0,20.0,6.0,0.0
16482,85.0,24.0,20.0,0.0,0.0
16483,60.0,0.0,60.0,5.0,0.0
16484,51.0,48.0,60.0,7.0,0.0
16485,84.0,0.0,20.0,0.0,0.0
16486,84.0,0.0,20.0,6.0,0.0
16487,76.0,0.0,60.0,2.0,0.0
16488,80.0,0.0,60.0,6.0,0.0
16489,76.0,48.0,60.0,4.0,0.0
16490,49.0,0.0,90.0,1.0,0.0
16491,73.0,0.0,90.0,11.0,0.0
16492,76.0,0.0,90.0,10.0,0.0
16493,68.0,0.0,90.0,5.0,0.0
16494,85.0,0.0,60.0,0.0,0.0
16495,49.0,0.0,90.0,3.0,0.0
16496,49.0,48.0,90.0,12.0,0.0
16497,49.0,0.0,90.0,7.0,0.0
16498,85.0,0.0,90.0,8.0,0.0
16499,80.0,0.0,60.0,4.0,0.0
16500,85.0,0.0,60.0,6.0,0.0
16501,73.0,0.0,60.0,2.0,0.0
16502,80.0,0.0,60.0,0.0,0.0
16503,68.0,48.0,90.0,11.0,0.0
16504,85.0,0.0,90.0,8.0,0.0
16505,85.0,0.0,60.0,4.0,0.0
16506,68.0,0.0,60.0,2.0,0.0
16507,49.0,0.0,90.0,5.0,0.0
16508,49.0,0.0,90.0,12.0,0.0
16509,76.0,48.0,60.0,0.0,0.0
16510,49.0,0.0,90.0,3.0,0.0
16511,76.0,0.0,90.0,10.0,0.0
16512,49.0,0.0,90.0,1.0,0.0
16513,49.0,0.0,90.0,7.0,0.0
16514,88.0,0.0,60.0,6.0,0.0
16515,85.0,0.0,60.0,6.0,0.0
16516,80.0,0.0,60.0,0.0,0.0
16517,73.0,0.0,60.0,2.0,0.0
16518,80.0,0.0,60.0,4.0,0.0
16519,49.0,0.0,90.0,3.0,0.0
16520,76.0,0.0,90.0,10.0,0.0
16521,85.0,0.0,90.0,8.0,0.0
16522,85.0,0.0,60.0,0.0,0.0
16523,49.0,0.0,90.0,1.0,0.0
16524,76.0,0.0,60.0,4.0,0.0
16525,49.0,0.0,90.0,5.0,0.0
16526,49.0,0.0,90.0,12.0,0.0
16527,49.0,48.0,90.0,7.0,0.0
16528,76.0,0.0,60.0,2.0,0.0
16529,68.0,0.0,90.0,11.0,0.0
16530,80.0,48.0,60.0,6.0,0.0
16531,73.0,0.0,60.0,2.0,0.0
16532,80.0,0.0,60.0,0.0,0.0
16533,80.0,0.0,60.0,4.0,0.0
16534,85.0,0.0,60.0,6.0,0.0
16535,75.0,0.0,90.0,10.0,0.0
16536,54.0,0.0,90.0,5.0,0.0
16537,85.0,0.0,60.0,0.0,0.0
16538,75.0,48.0,60.0,4.0,0.0
16539,54.0,0.0,90.0,1.0,0.0
16540,85.0,0.0,90.0,8.0,0.0
16541,81.0,0.0,60.0,6.0,0.0
16542,54.0,0.0,90.0,12.0,0.0
16543,75.0,0.0,60.0,2.0,0.0
16544,69.0,0.0,90.0,11.0,0.0
16545,54.0,0.0,90.0,3.0,0.0
16546,54.0,0.0,90.0,7.0,0.0
16547,81.0,0.0,60.0,0.0,0.0
16548,73.0,0.0,60.0,2.0,0.0
16549,85.0,48.0,60.0,6.0,0.0
16550,81.0,0.0,60.0,4.0,0.0
16551,54.0,48.0,90.0,1.0,0.0
16552,85.0,48.0,60.0,4.0,0.0
16553,69.0,0.0,90.0,11.0,0.0
16554,54.0,0.0,90.0,12.0,0.0
16555,85.0,0.0,90.0,8.0,0.0
16556,75.0,0.0,60.0,0.0,0.0
16557,54.0,0.0,90.0,5.0,0.0
16558,69.0,0.0,60.0,2.0,0.0
16559,54.0,0.0,90.0,7.0,0.0
16560,75.0,0.0,90.0,10.0,0.0
16561,87.0,0.0,60.0,6.0,0.0
16562,54.0,0.0,90.0,3.0,0.0
16563,85.0,0.0,60.0,6.0,0.0
16564,81.0,0.0,60.0,0.0,0.0
16565,81.0,0.0,60.0,4.0,0.0
16566,73.0,0.0,60.0,2.0,0.0
16567,54.0,0.0,90.0,1.0,0.0
16568,75.0,48.0,60.0,2.0,0.0
16569,75.0,0.0,90.0,10.0,0.0
16570,54.0,0.0,90.0,5.0,0.0
16571,54.0,0.0,90.0,12.0,0.0
16572,75.0,0.0,60.0,4.0,0.0
16573,85.0,0.0,60.0,0.0,0.0
16574,54.0,0.0,90.0,7.0,0.0
16575,69.0,0.0,90.0,11.0,0.0
16576,85.0,0.0,90.0,8.0,0.0
16577,54.0,0.0,90.0,3.0,0.0
16578,81.0,0.0,60.0,6.0,0.0
16579,81.0,0.0,60.0,0.0,0.0
16580,85.0,0.0,60.0,6.0,0.0
16581,73.0,48.0,60.0,2.0,0.0
16582,81.0,0.0,60.0,4.0,0.0
16583,75.0,0.0,60.0,2.0,0.0
16584,68.0,0.0,90.0,11.0,0.0
16585,56.0,0.0,90.0,3.0,0.0
16586,75.0,48.0,60.0,4.0,0.0
16587,56.0,0.0,90.0,5.0,0.0
16588,80.0,0.0,60.0,6.0,0.0
16589,75.0,0.0,90.0,10.0,0.0
16590,56.0,48.0,90.0,7.0,0.0
16591,84.0,0.0,60.0,0.0,0.0
16592,56.0,0.0,90.0,12.0,0.0
16593,84.0,0.0,90.0,8.0,0.0
16594,56.0,0.0,90.0,1.0,0.0
16595,80.0,0.0,60.0,0.0,0.0
16596,84.0,0.0,60.0,6.0,0.0
16597,72.0,0.0,60.0,2.0,0.0
16598,80.0,0.0,60.0,4.0,0.0
16599,75.0,48.0,60.0,0.0,0.0
16600,84.0,0.0,60.0,4.0,0.0
16601,56.0,0.0,90.0,12.0,0.0
16602,68.0,0.0,60.0,2.0,0.0
16603,75.0,0.0,90.0,10.0,0.0
16604,87.0,0.0,60.0,6.0,0.0
16605,56.0,0.0,90.0,7.0,0.0
16606,84.0,0.0,90.0,8.0,0.0
16607,56.0,0.0,90.0,5.0,0.0
16608,56.0,0.0,90.0,3.0,0.0
16609,68.0,0.0,90.0,11.0,0.0
16610,56.0,0.0,90.0,1.0,0.0
16611,80.0,0.0,60.0,0.0,0.0
16612,80.0,48.0,60.0,4.0,0.0
16613,84.0,0.0,60.0,6.0,0.0
16614,72.0,0.0,60.0,2.0,0.0
16615,68.0,0.0,90.0,11.0,0.0
16616,75.0,0.0,90.0,10.0,0.0
16617,75.0,0.0,60.0,2.0,0.0
16618,56.0,0.0,90.0,7.0,0.0
16619,56.0,0.0,90.0,1.0,0.0
16620,56.0,0.0,90.0,3.0,0.0
16621,56.0,0.0,90.0,12.0,0.0
16622,80.0,0.0,60.0,6.0,0.0
16623,84.0,0.0,60.0,0.0,0.0
16624,56.0,0.0,90.0,5.0,0.0
16625,75.0,48.0,60.0,4.0,0.0
16626,84.0,0.0,90.0,8.0,0.0
16627,80.0,0.0,60.0,0.0,0.0
16628,80.0,0.0,60.0,4.0,0.0
16629,84.0,0.0,60.0,6.0,0.0
16630,72.0,48.0,60.0,2.0,0.0
16631,68.0,48.0,60.0,11.0,0.0
16632,49.0,0.0,150.0,1.0,0.0
16633,76.0,30.0,150.0,4.0,0.0
16634,85.0,0.0,60.0,8.0,0.0
16635,49.0,0.0,150.0,7.0,0.0
16636,85.0,0.0,150.0,0.0,0.0
16637,49.0,0.0,150.0,5.0,0.0
16638,76.0,0.0,60.0,10.0,0.0
16639,49.0,0.0,150.0,12.0,0.0
16640,76.0,0.0,150.0,2.0,0.0
16641,85.0,0.0,150.0,6.0,0.0
16642,49.0,0.0,150.0,3.0,0.0
16643,76.0,48.0,60.0,10.0,0.0
16644,80.0,0.0,60.0,8.0,0.0
16645,73.0,0.0,60.0,11.0,0.0
16646,80.0,0.0,60.0,8.0,0.0
16647,76.0,0.0,60.0,10.0,0.0
16648,73.0,18.0,60.0,11.0,0.0
16649,73.0,48.0,60.0,10.0,0.0
16650,76.0,0.0,60.0,8.0,0.0
16651,68.0,0.0,60.0,11.0,0.0
16652,68.0,0.0,60.0,11.0,0.0
16653,76.0,0.0,60.0,8.0,0.0
16654,73.0,48.0,60.0,10.0,0.0
16655,73.0,48.0,60.0,8.0,0.0
16656,68.0,0.0,60.0,10.0,0.0
16657,64.0,0.0,60.0,11.0,0.0
16658,68.0,0.0,90.0,10.0,0.0
16659,49.0,0.0,60.0,5.0,0.0
16660,73.0,0.0,60.0,6.0,0.0
16661,76.0,0.0,60.0,0.0,0.0
16662,61.0,0.0,60.0,3.0,0.0
16663,73.0,48.0,60.0,2.0,0.0
16664,61.0,0.0,60.0,7.0,0.0
16665,49.0,0.0,90.0,12.0,0.0
16666,49.0,0.0,60.0,1.0,0.0
16667,64.0,0.0,90.0,11.0,0.0
16668,76.0,0.0,60.0,4.0,0.0
16669,73.0,0.0,90.0,8.0,0.0
16670,68.0,48.0,60.0,6.0,0.0
16671,49.0,0.0,60.0,3.0,0.0
16672,80.0,0.0,60.0,4.0,0.0
16673,61.0,0.0,60.0,1.0,0.0
16674,76.0,0.0,60.0,2.0,0.0
16675,73.0,0.0,60.0,0.0,0.0
16676,61.0,0.0,60.0,5.0,0.0
16677,49.0,0.0,60.0,7.0,0.0
16678,61.0,0.0,60.0,7.0,0.0
16679,73.0,0.0,60.0,2.0,0.0
16680,49.0,0.0,60.0,5.0,0.0
16681,76.0,0.0,90.0,8.0,0.0
16682,68.0,0.0,90.0,11.0,0.0
16683,49.0,0.0,90.0,12.0,0.0
16684,68.0,48.0,60.0,0.0,0.0
16685,76.0,0.0,60.0,4.0,0.0
16686,61.0,0.0,60.0,3.0,0.0
16687,73.0,0.0,60.0,6.0,0.0
16688,73.0,0.0,90.0,10.0,0.0
16689,49.0,0.0,60.0,1.0,0.0
16690,61.0,0.0,60.0,5.0,0.0
16691,61.0,0.0,60.0,1.0,0.0
16692,68.0,48.0,60.0,2.0,0.0
16693,49.0,0.0,60.0,3.0,0.0
16694,73.0,0.0,60.0,4.0,0.0
16695,76.0,0.0,60.0,6.0,0.0
16696,49.0,0.0,60.0,7.0,0.0
16697,73.0,0.0,60.0,0.0,0.0
16698,49.0,0.0,60.0,1.0,0.0
16699,76.0,0.0,60.0,0.0,0.0
16700,73.0,0.0,90.0,10.0,0.0
16701,49.0,0.0,90.0,12.0,0.0
16702,61.0,0.0,60.0,3.0,0.0
16703,73.0,0.0,60.0,2.0,0.0
16704,68.0,0.0,90.0,11.0,0.0
16705,76.0,0.0,90.0,8.0,0.0
16706,49.0,48.0,60.0,5.0,0.0
16707,68.0,0.0,60.0,4.0,0.0
16708,73.0,0.0,60.0,6.0,0.0
16709,61.0,0.0,60.0,7.0,0.0
16710,49.0,0.0,60.0,3.0,0.0
16711,68.0,0.0,60.0,6.0,0.0
16712,61.0,0.0,60.0,5.0,0.0
16713,73.0,0.0,60.0,4.0,0.0
16714,61.0,0.0,60.0,1.0,0.0
16715,49.0,48.0,60.0,7.0,0.0
16716,73.0,0.0,60.0,0.0,0.0
16717,76.0,0.0,60.0,2.0,0.0
16718,75.0,48.0,60.0,4.0,0.0
16719,75.0,0.0,90.0,8.0,0.0
16720,69.0,0.0,90.0,11.0,0.0
16721,75.0,0.0,60.0,0.0,0.0
16722,73.0,0.0,90.0,10.0,0.0
16723,42.0,48.0,90.0,12.0,0.0
16724,42.0,0.0,60.0,5.0,0.0
16725,54.0,0.0,60.0,7.0,0.0
16726,73.0,0.0,60.0,2.0,0.0
16727,73.0,0.0,60.0,6.0,0.0
16728,54.0,0.0,60.0,3.0,0.0
16729,42.0,0.0,60.0,1.0,0.0
16730,78.0,0.0,60.0,4.0,0.0
16731,73.0,0.0,60.0,0.0,0.0
16732,75.0,0.0,60.0,2.0,0.0
16733,69.0,0.0,60.0,6.0,0.0
16734,42.0,0.0,60.0,7.0,0.0
16735,54.0,0.0,60.0,1.0,0.0
16736,54.0,0.0,60.0,5.0,0.0
16737,42.0,0.0,60.0,3.0,0.0
16738,54.0,0.0,60.0,7.0,0.0
16739,42.0,0.0,90.0,12.0,0.0
16740,73.0,0.0,90.0,10.0,0.0
16741,75.0,0.0,90.0,8.0,0.0
16742,54.0,0.0,60.0,3.0,0.0
16743,73.0,0.0,60.0,6.0,0.0
16744,42.0,0.0,60.0,1.0,0.0
16745,42.0,0.0,60.0,5.0,0.0
16746,69.0,0.0,90.0,11.0,0.0
16747,73.0,0.0,60.0,2.0,0.0
16748,69.0,0.0,60.0,0.0,0.0
16749,75.0,48.0,60.0,4.0,0.0
16750,73.0,0.0,60.0,0.0,0.0
16751,69.0,0.0,60.0,2.0,0.0
16752,54.0,0.0,60.0,5.0,0.0
16753,75.0,0.0,60.0,6.0,0.0
16754,73.0,0.0,60.0,4.0,0.0
16755,54.0,0.0,60.0,1.0,0.0
16756,42.0,48.0,60.0,7.0,0.0
16757,42.0,0.0,60.0,3.0,0.0
16758,54.0,0.0,60.0,3.0,0.0
16759,73.0,0.0,60.0,6.0,0.0
16760,42.0,0.0,60.0,1.0,0.0
16761,42.0,0.0,60.0,5.0,0.0
16762,73.0,0.0,60.0,2.0,0.0
16763,73.0,0.0,90.0,10.0,0.0
16764,69.0,0.0,90.0,11.0,0.0
16765,75.0,0.0,90.0,8.0,0.0
16766,54.0,48.0,60.0,7.0,0.0
16767,42.0,0.0,90.0,12.0,0.0
16768,75.0,0.0,60.0,0.0,0.0
16769,69.0,0.0,60.0,4.0,0.0
16770,54.0,0.0,60.0,5.0,0.0
16771,42.0,0.0,60.0,3.0,0.0
16772,75.0,48.0,60.0,2.0,0.0
16773,73.0,0.0,60.0,0.0,0.0
16774,73.0,0.0,60.0,4.0,0.0
16775,42.0,0.0,60.0,7.0,0.0
16776,69.0,0.0,60.0,6.0,0.0
16777,54.0,0.0,60.0,1.0,0.0
16778,56.0,0.0,60.0,7.0,0.0
16779,44.0,0.0,90.0,12.0,0.0
16780,75.0,0.0,60.0,4.0,0.0
16781,75.0,0.0,90.0,8.0,0.0
16782,72.0,0.0,60.0,2.0,0.0
16783,44.0,0.0,60.0,1.0,0.0
16784,75.0,0.0,60.0,0.0,0.0
16785,44.0,0.0,60.0,5.0,0.0
16786,68.0,48.0,90.0,11.0,0.0
16787,56.0,0.0,60.0,3.0,0.0
16788,72.0,0.0,90.0,10.0,0.0
16789,72.0,48.0,60.0,6.0,0.0
16790,68.0,0.0,60.0,6.0,0.0
16791,56.0,0.0,60.0,5.0,0.0
16792,44.0,0.0,60.0,7.0,0.0
16793,44.0,0.0,60.0,3.0,0.0
16794,56.0,0.0,60.0,1.0,0.0
16795,78.0,0.0,60.0,4.0,0.0
16796,75.0,0.0,60.0,2.0,0.0
16797,72.0,0.0,60.0,0.0,0.0
16798,72.0,0.0,60.0,2.0,0.0
16799,56.0,0.0,60.0,7.0,0.0
16800,72.0,0.0,90.0,10.0,0.0
16801,68.0,0.0,60.0,0.0,0.0
16802,44.0,0.0,60.0,1.0,0.0
16803,56.0,48.0,60.0,3.0,0.0
16804,72.0,0.0,60.0,6.0,0.0
16805,68.0,0.0,90.0,11.0,0.0
16806,75.0,0.0,60.0,4.0,0.0
16807,75.0,0.0,90.0,8.0,0.0
16808,44.0,0.0,90.0,12.0,0.0
16809,44.0,0.0,60.0,5.0,0.0
16810,72.0,0.0,60.0,0.0,0.0
16811,68.0,0.0,60.0,2.0,0.0
16812,72.0,0.0,60.0,4.0,0.0
16813,75.0,0.0,60.0,6.0,0.0
16814,44.0,48.0,60.0,3.0,0.0
16815,56.0,0.0,60.0,1.0,0.0
16816,44.0,0.0,60.0,7.0,0.0
16817,56.0,0.0,60.0,5.0,0.0
16818,72.0,0.0,60.0,6.0,0.0
16819,44.0,0.0,90.0,12.0,0.0
16820,68.0,0.0,60.0,4.0,0.0
16821,75.0,0.0,90.0,8.0,0.0
16822,56.0,48.0,60.0,3.0,0.0
16823,72.0,0.0,60.0,2.0,0.0
16824,44.0,0.0,60.0,5.0,0.0
16825,44.0,0.0,60.0,1.0,0.0
16826,56.0,0.0,60.0,7.0,0.0
16827,75.0,0.0,60.0,0.0,0.0
16828,66.0,0.0,90.0,11.0,0.0
16829,72.0,0.0,90.0,10.0,0.0
16830,68.0,0.0,60.0,6.0,0.0
16831,72.0,0.0,60.0,4.0,0.0
16832,72.0,0.0,60.0,0.0,0.0
16833,56.0,0.0,60.0,5.0,0.0
16834,75.0,0.0,60.0,2.0,0.0
16835,56.0,530.0,60.0,1.0,0.0
16836,44.0,0.0,60.0,3.0,0.0
16837,44.0,0.0,60.0,7.0,0.0
16838,68.0,0.0,540.0,11.0,0.0
16839,61.0,0.0,540.0,1.0,0.0
16840,73.0,0.0,540.0,4.0,0.0
16841,49.0,0.0,540.0,5.0,0.0
16842,68.0,0.0,540.0,10.0,0.0
16843,49.0,0.0,540.0,3.0,0.0
16844,49.0,0.0,540.0,12.0,0.0
16845,49.0,0.0,540.0,7.0,0.0
16846,73.0,0.0,540.0,8.0,0.0
16847,64.0,0.0,540.0,11.0,0.0
16848,49.0,0.0,540.0,1.0,0.0
16849,73.0,0.0,540.0,2.0,0.0
16850,73.0,0.0,540.0,10.0,0.0
16851,56.0,0.0,540.0,1.0,0.0
16852,73.0,0.0,540.0,6.0,0.0
16853,68.0,0.0,540.0,6.0,0.0
16854,64.0,0.0,540.0,0.0,0.0
16855,68.0,0.0,540.0,0.0,0.0
16856,73.0,0.0,540.0,0.0,0.0
16857,64.0,0.0,540.0,6.0,0.0
