,note,step,duration,channel,velocity
0,71.0,0.0,120.0,1.0,0.0
1,75.0,60.0,120.0,1.0,0.0
2,80.0,0.0,600.0,0.0,0.0
3,56.0,60.0,60.0,2.0,0.0
4,59.0,0.0,60.0,2.0,0.0
5,61.0,60.0,60.0,2.0,0.0
6,63.0,60.0,60.0,2.0,0.0
7,61.0,60.0,60.0,2.0,0.0
8,63.0,60.0,60.0,2.0,0.0
9,61.0,60.0,60.0,2.0,0.0
10,59.0,60.0,60.0,2.0,0.0
11,75.0,0.0,120.0,1.0,0.0
12,71.0,0.0,120.0,1.0,0.0
13,56.0,60.0,60.0,2.0,0.0
14,59.0,30.0,60.0,2.0,0.0
15,61.0,0.0,60.0,2.0,0.0
16,82.0,30.0,30.0,0.0,0.0
17,80.0,30.0,30.0,0.0,0.0
18,63.0,0.0,60.0,2.0,0.0
19,79.0,30.0,30.0,0.0,0.0
20,80.0,17.0,30.0,0.0,0.0
21,61.0,2.0,60.0,2.0,0.0
22,82.0,15.0,15.0,0.0,0.0
23,80.0,15.0,15.0,0.0,0.0
24,82.0,13.0,15.0,0.0,0.0
25,80.0,15.0,15.0,0.0,0.0
26,63.0,60.0,60.0,2.0,0.0
27,82.0,43.0,15.0,0.0,0.0
28,80.0,0.0,120.0,0.0,0.0
29,61.0,30.0,60.0,2.0,0.0
30,59.0,60.0,60.0,2.0,0.0
31,79.0,30.0,30.0,0.0,0.0
32,80.0,0.0,30.0,0.0,0.0
33,56.0,60.0,60.0,2.0,0.0
34,82.0,60.0,1020.0,0.0,0.0
35,73.0,60.0,120.0,1.0,0.0
36,76.0,0.0,120.0,1.0,0.0
37,61.0,0.0,60.0,2.0,0.0
38,63.0,60.0,60.0,2.0,0.0
39,64.0,60.0,60.0,2.0,0.0
40,63.0,60.0,60.0,2.0,0.0
41,64.0,60.0,60.0,2.0,0.0
42,63.0,60.0,60.0,2.0,0.0
43,61.0,60.0,60.0,2.0,0.0
44,76.0,0.0,120.0,1.0,0.0
45,73.0,60.0,120.0,1.0,0.0
46,56.0,60.0,60.0,2.0,0.0
47,61.0,0.0,60.0,2.0,0.0
48,63.0,60.0,60.0,2.0,0.0
49,64.0,60.0,60.0,2.0,0.0
50,63.0,60.0,60.0,2.0,0.0
51,64.0,60.0,60.0,2.0,0.0
52,63.0,60.0,60.0,2.0,0.0
53,61.0,60.0,60.0,2.0,0.0
54,73.0,0.0,120.0,1.0,0.0
55,55.0,0.0,60.0,2.0,0.0
56,76.0,0.0,120.0,1.0,0.0
57,61.0,60.0,60.0,2.0,0.0
58,80.0,0.0,60.0,0.0,0.0
59,79.0,40.0,60.0,0.0,0.0
60,63.0,0.0,60.0,2.0,0.0
61,64.0,60.0,60.0,2.0,0.0
62,80.0,20.0,40.0,0.0,0.0
63,63.0,0.0,60.0,2.0,0.0
64,82.0,40.0,60.0,0.0,0.0
65,64.0,60.0,60.0,2.0,0.0
66,80.0,20.0,40.0,0.0,0.0
67,63.0,0.0,60.0,2.0,0.0
68,83.0,40.0,60.0,0.0,0.0
69,82.0,20.0,40.0,0.0,0.0
70,61.0,60.0,60.0,2.0,0.0
71,85.0,30.0,270.0,0.0,0.0
72,55.0,60.0,60.0,2.0,0.0
73,75.0,60.0,120.0,1.0,0.0
74,82.0,0.0,120.0,1.0,0.0
75,61.0,0.0,60.0,2.0,0.0
76,63.0,60.0,60.0,2.0,0.0
77,64.0,30.0,60.0,2.0,0.0
78,63.0,30.0,60.0,2.0,0.0
79,88.0,0.0,30.0,0.0,0.0
80,87.0,30.0,30.0,0.0,0.0
81,64.0,0.0,60.0,2.0,0.0
82,85.0,60.0,30.0,0.0,0.0
83,63.0,0.0,60.0,2.0,0.0
84,83.0,30.0,60.0,0.0,0.0
85,61.0,60.0,60.0,2.0,0.0
86,85.0,30.0,30.0,0.0,0.0
87,82.0,0.0,30.0,0.0,0.0
88,83.0,0.0,600.0,0.0,0.0
89,80.0,0.0,120.0,1.0,0.0
90,56.0,60.0,60.0,2.0,0.0
91,75.0,0.0,120.0,1.0,0.0
92,59.0,60.0,60.0,2.0,0.0
93,61.0,60.0,60.0,2.0,0.0
94,63.0,60.0,60.0,2.0,0.0
95,61.0,60.0,60.0,2.0,0.0
96,63.0,60.0,60.0,2.0,0.0
97,61.0,60.0,60.0,2.0,0.0
98,59.0,60.0,60.0,2.0,0.0
99,80.0,0.0,120.0,1.0,0.0
100,75.0,0.0,120.0,1.0,0.0
101,56.0,60.0,60.0,2.0,0.0
102,59.0,60.0,60.0,2.0,0.0
103,88.0,0.0,60.0,0.0,0.0
104,61.0,60.0,60.0,2.0,0.0
105,63.0,0.0,60.0,2.0,0.0
106,87.0,60.0,60.0,0.0,0.0
107,88.0,0.0,120.0,0.0,0.0
108,61.0,60.0,60.0,2.0,0.0
109,63.0,60.0,60.0,2.0,0.0
110,80.0,60.0,120.0,0.0,0.0
111,61.0,60.0,60.0,2.0,0.0
112,59.0,0.0,60.0,2.0,0.0
113,56.0,60.0,60.0,2.0,0.0
114,82.0,0.0,600.0,0.0,0.0
115,73.0,0.0,120.0,1.0,0.0
116,76.0,0.0,120.0,1.0,0.0
117,58.0,60.0,60.0,2.0,0.0
118,59.0,60.0,60.0,2.0,0.0
119,61.0,60.0,60.0,2.0,0.0
120,59.0,60.0,60.0,2.0,0.0
121,61.0,60.0,60.0,2.0,0.0
122,59.0,60.0,60.0,2.0,0.0
123,58.0,60.0,60.0,2.0,0.0
124,75.0,0.0,120.0,1.0,0.0
125,78.0,60.0,120.0,1.0,0.0
126,54.0,60.0,60.0,2.0,0.0
127,58.0,0.0,60.0,2.0,0.0
128,87.0,30.0,150.0,0.0,0.0
129,59.0,60.0,60.0,2.0,0.0
130,61.0,30.0,60.0,2.0,0.0
131,59.0,0.0,60.0,2.0,0.0
132,88.0,30.0,30.0,0.0,0.0
133,61.0,30.0,60.0,2.0,0.0
134,87.0,30.0,30.0,0.0,0.0
135,85.0,0.0,30.0,0.0,0.0
136,87.0,30.0,30.0,0.0,0.0
137,59.0,0.0,60.0,2.0,0.0
138,83.0,30.0,30.0,0.0,0.0
139,85.0,30.0,30.0,0.0,0.0
140,58.0,60.0,60.0,2.0,0.0
141,87.0,0.0,30.0,0.0,0.0
142,54.0,60.0,60.0,2.0,0.0
143,80.0,60.0,540.0,0.0,0.0
144,75.0,0.0,120.0,1.0,0.0
145,71.0,0.0,120.0,1.0,0.0
146,56.0,60.0,60.0,2.0,0.0
147,58.0,60.0,60.0,2.0,0.0
148,59.0,60.0,60.0,2.0,0.0
149,58.0,60.0,60.0,2.0,0.0
150,59.0,60.0,60.0,2.0,0.0
151,58.0,60.0,60.0,2.0,0.0
152,56.0,60.0,60.0,2.0,0.0
153,76.0,0.0,120.0,1.0,0.0
154,73.0,0.0,120.0,1.0,0.0
155,52.0,0.0,60.0,2.0,0.0
156,56.0,0.0,60.0,2.0,0.0
157,76.0,60.0,60.0,0.0,0.0
158,58.0,60.0,60.0,2.0,0.0
159,73.0,0.0,60.0,0.0,0.0
160,75.0,0.0,60.0,0.0,0.0
161,59.0,60.0,60.0,2.0,0.0
162,76.0,0.0,60.0,0.0,0.0
163,58.0,60.0,60.0,2.0,0.0
164,59.0,0.0,60.0,2.0,0.0
165,80.0,60.0,60.0,0.0,0.0
166,58.0,0.0,60.0,2.0,0.0
167,78.0,30.0,60.0,0.0,0.0
168,56.0,60.0,60.0,2.0,0.0
169,80.0,30.0,30.0,0.0,0.0
170,76.0,0.0,30.0,0.0,0.0
171,73.0,0.0,120.0,1.0,0.0
172,78.0,0.0,600.0,0.0,0.0
173,52.0,60.0,60.0,2.0,0.0
174,70.0,60.0,120.0,1.0,0.0
175,58.0,0.0,60.0,2.0,0.0
176,59.0,60.0,60.0,2.0,0.0
177,61.0,60.0,60.0,2.0,0.0
178,59.0,60.0,60.0,2.0,0.0
179,61.0,60.0,60.0,2.0,0.0
180,59.0,60.0,60.0,2.0,0.0
181,58.0,60.0,60.0,2.0,0.0
182,51.0,60.0,60.0,2.0,0.0
183,71.0,0.0,120.0,1.0,0.0
184,75.0,60.0,120.0,1.0,0.0
185,59.0,0.0,60.0,2.0,0.0
186,83.0,30.0,150.0,0.0,0.0
187,61.0,60.0,60.0,2.0,0.0
188,63.0,30.0,60.0,2.0,0.0
189,61.0,30.0,60.0,2.0,0.0
190,81.0,0.0,30.0,0.0,0.0
191,63.0,0.0,60.0,2.0,0.0
192,80.0,30.0,30.0,0.0,0.0
193,78.0,60.0,30.0,0.0,0.0
194,61.0,30.0,60.0,2.0,0.0
195,76.0,0.0,60.0,0.0,0.0
196,59.0,60.0,60.0,2.0,0.0
197,78.0,30.0,30.0,0.0,0.0
198,75.0,0.0,30.0,0.0,0.0
199,68.0,0.0,120.0,1.0,0.0
200,71.0,0.0,120.0,1.0,0.0
201,76.0,0.0,540.0,0.0,0.0
202,51.0,60.0,60.0,2.0,0.0
203,56.0,60.0,60.0,2.0,0.0
204,58.0,60.0,60.0,2.0,0.0
205,59.0,60.0,60.0,2.0,0.0
206,58.0,60.0,60.0,2.0,0.0
207,59.0,60.0,60.0,2.0,0.0
208,58.0,60.0,60.0,2.0,0.0
209,56.0,60.0,60.0,2.0,0.0
210,70.0,0.0,120.0,1.0,0.0
211,73.0,0.0,120.0,1.0,0.0
212,49.0,60.0,60.0,2.0,0.0
213,78.0,0.0,60.0,0.0,0.0
214,58.0,60.0,60.0,2.0,0.0
215,80.0,60.0,60.0,0.0,0.0
216,59.0,0.0,60.0,2.0,0.0
217,61.0,60.0,60.0,2.0,0.0
218,81.0,0.0,60.0,0.0,0.0
219,59.0,60.0,60.0,2.0,0.0
220,83.0,0.0,60.0,0.0,0.0
221,81.0,60.0,60.0,0.0,0.0
222,61.0,0.0,60.0,2.0,0.0
223,85.0,0.0,60.0,0.0,0.0
224,59.0,50.0,60.0,2.0,0.0
225,76.0,10.0,60.0,0.0,0.0
226,58.0,15.0,60.0,2.0,0.0
227,76.0,45.0,15.0,0.0,0.0
228,66.0,0.0,120.0,1.0,0.0
229,71.0,0.0,120.0,1.0,0.0
230,47.0,60.0,60.0,2.0,0.0
231,75.0,10.0,570.0,0.0,0.0
232,61.0,60.0,60.0,2.0,0.0
233,63.0,60.0,60.0,2.0,0.0
234,64.0,60.0,60.0,2.0,0.0
235,63.0,60.0,60.0,2.0,0.0
236,64.0,60.0,60.0,2.0,0.0
237,63.0,60.0,60.0,2.0,0.0
238,61.0,60.0,60.0,2.0,0.0
239,71.0,0.0,120.0,1.0,0.0
240,66.0,60.0,120.0,1.0,0.0
241,59.0,50.0,60.0,2.0,0.0
242,63.0,0.0,60.0,2.0,0.0
243,64.0,60.0,60.0,2.0,0.0
244,75.0,0.0,120.0,0.0,0.0
245,66.0,30.0,60.0,2.0,0.0
246,64.0,60.0,60.0,2.0,0.0
247,73.0,30.0,30.0,0.0,0.0
248,71.0,0.0,30.0,0.0,0.0
249,70.0,30.0,60.0,0.0,0.0
250,66.0,0.0,60.0,2.0,0.0
251,71.0,30.0,30.0,0.0,0.0
252,64.0,60.0,60.0,2.0,0.0
253,70.0,0.0,30.0,0.0,0.0
254,68.0,0.0,60.0,0.0,0.0
255,63.0,60.0,60.0,2.0,0.0
256,73.0,30.0,120.0,1.0,0.0
257,77.0,0.0,120.0,1.0,0.0
258,80.0,30.0,150.0,0.0,0.0
259,59.0,60.0,60.0,2.0,0.0
260,65.0,0.0,60.0,2.0,0.0
261,66.0,30.0,60.0,2.0,0.0
262,82.0,0.0,30.0,0.0,0.0
263,80.0,30.0,30.0,0.0,0.0
264,68.0,60.0,60.0,2.0,0.0
265,79.0,0.0,30.0,0.0,0.0
266,80.0,50.0,180.0,0.0,0.0
267,66.0,60.0,60.0,2.0,0.0
268,68.0,60.0,60.0,2.0,0.0
269,66.0,0.0,60.0,2.0,0.0
270,65.0,17.0,60.0,2.0,0.0
271,82.0,10.0,60.0,0.0,0.0
272,73.0,0.0,120.0,1.0,0.0
273,79.0,2.0,120.0,1.0,0.0
274,83.0,15.0,15.0,0.0,0.0
275,58.0,2.0,60.0,2.0,0.0
276,82.0,15.0,15.0,0.0,0.0
277,83.0,13.0,15.0,0.0,0.0
278,82.0,15.0,15.0,0.0,0.0
279,83.0,15.0,15.0,0.0,0.0
280,67.0,0.0,60.0,2.0,0.0
281,82.0,15.0,15.0,0.0,0.0
282,83.0,13.0,15.0,0.0,0.0
283,82.0,15.0,15.0,0.0,0.0
284,68.0,2.0,60.0,2.0,0.0
285,83.0,15.0,15.0,0.0,0.0
286,82.0,15.0,15.0,0.0,0.0
287,83.0,13.0,15.0,0.0,0.0
288,82.0,15.0,15.0,0.0,0.0
289,83.0,15.0,15.0,0.0,0.0
290,70.0,2.0,60.0,2.0,0.0
291,82.0,15.0,15.0,0.0,0.0
292,83.0,13.0,15.0,0.0,0.0
293,82.0,15.0,15.0,0.0,0.0
294,83.0,15.0,15.0,0.0,0.0
295,68.0,2.0,60.0,2.0,0.0
296,82.0,15.0,15.0,0.0,0.0
297,83.0,13.0,15.0,0.0,0.0
298,82.0,15.0,15.0,0.0,0.0
299,83.0,15.0,15.0,0.0,0.0
300,70.0,15.0,60.0,2.0,0.0
301,82.0,15.0,15.0,0.0,0.0
302,83.0,13.0,15.0,0.0,0.0
303,82.0,45.0,30.0,0.0,0.0
304,68.0,30.0,60.0,2.0,0.0
305,80.0,30.0,30.0,0.0,0.0
306,67.0,0.0,60.0,2.0,0.0
307,82.0,60.0,30.0,0.0,0.0
308,80.0,0.0,120.0,1.0,0.0
309,56.0,60.0,60.0,2.0,0.0
310,75.0,0.0,120.0,1.0,0.0
311,83.0,60.0,540.0,0.0,0.0
312,58.0,60.0,60.0,2.0,0.0
313,59.0,60.0,60.0,2.0,0.0
314,61.0,60.0,60.0,2.0,0.0
315,59.0,60.0,60.0,2.0,0.0
316,61.0,60.0,60.0,2.0,0.0
317,59.0,60.0,60.0,2.0,0.0
318,58.0,60.0,60.0,2.0,0.0
319,71.0,0.0,120.0,1.0,0.0
320,56.0,0.0,60.0,2.0,0.0
321,75.0,60.0,120.0,1.0,0.0
322,59.0,0.0,60.0,2.0,0.0
323,75.0,0.0,60.0,0.0,0.0
324,73.0,0.0,60.0,0.0,0.0
325,61.0,60.0,60.0,2.0,0.0
326,71.0,30.0,120.0,0.0,0.0
327,63.0,60.0,60.0,2.0,0.0
328,61.0,0.0,60.0,2.0,0.0
329,70.0,30.0,30.0,0.0,0.0
330,63.0,60.0,60.0,2.0,0.0
331,68.0,0.0,30.0,0.0,0.0
332,67.0,60.0,60.0,0.0,0.0
333,61.0,0.0,60.0,2.0,0.0
334,68.0,60.0,60.0,0.0,0.0
335,59.0,0.0,60.0,2.0,0.0
336,56.0,60.0,60.0,2.0,0.0
337,73.0,0.0,120.0,1.0,0.0
338,69.0,0.0,120.0,1.0,0.0
339,76.0,30.0,150.0,0.0,0.0
340,61.0,30.0,60.0,2.0,0.0
341,63.0,30.0,60.0,2.0,0.0
342,75.0,0.0,30.0,0.0,0.0
343,64.0,30.0,60.0,2.0,0.0
344,73.0,30.0,30.0,0.0,0.0
345,75.0,0.0,30.0,0.0,0.0
346,76.0,30.0,30.0,0.0,0.0
347,63.0,30.0,60.0,2.0,0.0
348,78.0,0.0,30.0,0.0,0.0
349,76.0,30.0,30.0,0.0,0.0
350,64.0,60.0,60.0,2.0,0.0
351,75.0,0.0,30.0,0.0,0.0
352,63.0,60.0,60.0,2.0,0.0
353,76.0,0.0,60.0,0.0,0.0
354,61.0,0.0,60.0,2.0,0.0
355,78.0,17.0,60.0,0.0,0.0
356,54.0,2.0,60.0,2.0,0.0
357,80.0,15.0,15.0,0.0,0.0
358,69.0,0.0,120.0,1.0,0.0
359,75.0,0.0,120.0,1.0,0.0
360,78.0,15.0,15.0,0.0,0.0
361,80.0,13.0,15.0,0.0,0.0
362,78.0,15.0,15.0,0.0,0.0
363,80.0,15.0,15.0,0.0,0.0
364,63.0,2.0,60.0,2.0,0.0
365,78.0,15.0,15.0,0.0,0.0
366,80.0,13.0,15.0,0.0,0.0
367,78.0,15.0,15.0,0.0,0.0
368,64.0,2.0,60.0,2.0,0.0
369,80.0,15.0,15.0,0.0,0.0
370,78.0,15.0,15.0,0.0,0.0
371,80.0,13.0,15.0,0.0,0.0
372,78.0,15.0,15.0,0.0,0.0
373,80.0,15.0,15.0,0.0,0.0
374,66.0,2.0,60.0,2.0,0.0
375,78.0,15.0,15.0,0.0,0.0
376,80.0,13.0,15.0,0.0,0.0
377,78.0,15.0,15.0,0.0,0.0
378,80.0,15.0,15.0,0.0,0.0
379,64.0,2.0,60.0,2.0,0.0
380,78.0,15.0,15.0,0.0,0.0
381,80.0,13.0,15.0,0.0,0.0
382,78.0,15.0,15.0,0.0,0.0
383,80.0,15.0,15.0,0.0,0.0
384,66.0,15.0,60.0,2.0,0.0
385,78.0,15.0,15.0,0.0,0.0
386,80.0,13.0,15.0,0.0,0.0
387,78.0,45.0,30.0,0.0,0.0
388,64.0,30.0,60.0,2.0,0.0
389,76.0,30.0,30.0,0.0,0.0
390,63.0,60.0,60.0,2.0,0.0
391,78.0,0.0,30.0,0.0,0.0
392,52.0,60.0,60.0,2.0,0.0
393,71.0,60.0,120.0,1.0,0.0
394,80.0,0.0,600.0,0.0,0.0
395,76.0,0.0,120.0,1.0,0.0
396,54.0,0.0,60.0,2.0,0.0
397,56.0,60.0,60.0,2.0,0.0
398,57.0,60.0,60.0,2.0,0.0
399,56.0,60.0,60.0,2.0,0.0
400,57.0,60.0,60.0,2.0,0.0
401,56.0,60.0,60.0,2.0,0.0
402,54.0,60.0,60.0,2.0,0.0
403,68.0,0.0,120.0,1.0,0.0
404,52.0,60.0,60.0,2.0,0.0
405,71.0,0.0,120.0,1.0,0.0
406,54.0,60.0,60.0,2.0,0.0
407,78.0,60.0,60.0,0.0,0.0
408,56.0,0.0,60.0,2.0,0.0
409,76.0,60.0,60.0,0.0,0.0
410,57.0,0.0,60.0,2.0,0.0
411,56.0,60.0,60.0,2.0,0.0
412,78.0,0.0,60.0,0.0,0.0
413,75.0,60.0,60.0,0.0,0.0
414,57.0,0.0,60.0,2.0,0.0
415,56.0,0.0,60.0,2.0,0.0
416,72.0,60.0,60.0,0.0,0.0
417,54.0,60.0,60.0,2.0,0.0
418,73.0,0.0,60.0,0.0,0.0
419,70.0,0.0,120.0,1.0,0.0
420,78.0,0.0,540.0,0.0,0.0
421,73.0,0.0,120.0,1.0,0.0
422,52.0,60.0,60.0,2.0,0.0
423,58.0,60.0,60.0,2.0,0.0
424,59.0,60.0,60.0,2.0,0.0
425,61.0,60.0,60.0,2.0,0.0
426,59.0,60.0,60.0,2.0,0.0
427,61.0,60.0,60.0,2.0,0.0
428,59.0,60.0,60.0,2.0,0.0
429,58.0,60.0,60.0,2.0,0.0
430,72.0,0.0,120.0,1.0,0.0
431,75.0,0.0,120.0,1.0,0.0
432,51.0,60.0,60.0,2.0,0.0
433,81.0,0.0,60.0,0.0,0.0
434,60.0,60.0,60.0,2.0,0.0
435,80.0,50.0,60.0,0.0,0.0
436,61.0,0.0,60.0,2.0,0.0
437,63.0,15.0,60.0,2.0,0.0
438,78.0,10.0,60.0,0.0,0.0
439,78.0,17.0,15.0,0.0,0.0
440,61.0,2.0,60.0,2.0,0.0
441,76.0,15.0,15.0,0.0,0.0
442,78.0,13.0,15.0,0.0,0.0
443,76.0,15.0,15.0,0.0,0.0
444,78.0,15.0,15.0,0.0,0.0
445,63.0,2.0,60.0,2.0,0.0
446,76.0,15.0,15.0,0.0,0.0
447,78.0,13.0,15.0,0.0,0.0
448,76.0,15.0,15.0,0.0,0.0
449,78.0,15.0,15.0,0.0,0.0
450,61.0,2.0,60.0,2.0,0.0
451,76.0,15.0,15.0,0.0,0.0
452,78.0,13.0,15.0,0.0,0.0
453,76.0,28.0,15.0,0.0,0.0
454,78.0,30.0,30.0,0.0,0.0
455,60.0,0.0,60.0,2.0,0.0
456,75.0,60.0,30.0,0.0,0.0
457,73.0,60.0,120.0,1.0,0.0
458,61.0,60.0,60.0,2.0,0.0
459,68.0,0.0,120.0,1.0,0.0
460,76.0,60.0,1260.0,0.0,0.0
461,63.0,0.0,60.0,2.0,0.0
462,64.0,60.0,60.0,2.0,0.0
463,66.0,60.0,60.0,2.0,0.0
464,64.0,60.0,60.0,2.0,0.0
465,66.0,60.0,60.0,2.0,0.0
466,64.0,60.0,60.0,2.0,0.0
467,63.0,60.0,60.0,2.0,0.0
468,73.0,60.0,120.0,1.0,0.0
469,68.0,0.0,120.0,1.0,0.0
470,59.0,60.0,60.0,2.0,0.0
471,61.0,0.0,60.0,2.0,0.0
472,63.0,60.0,60.0,2.0,0.0
473,64.0,60.0,60.0,2.0,0.0
474,63.0,60.0,60.0,2.0,0.0
475,64.0,60.0,60.0,2.0,0.0
476,63.0,60.0,60.0,2.0,0.0
477,61.0,60.0,60.0,2.0,0.0
478,73.0,60.0,120.0,1.0,0.0
479,67.0,0.0,120.0,1.0,0.0
480,58.0,60.0,60.0,2.0,0.0
481,61.0,0.0,60.0,2.0,0.0
482,63.0,60.0,60.0,2.0,0.0
483,64.0,60.0,60.0,2.0,0.0
484,63.0,0.0,60.0,2.0,0.0
485,64.0,0.0,60.0,2.0,0.0
486,73.0,60.0,60.0,0.0,0.0
487,63.0,0.0,60.0,2.0,0.0
488,72.0,60.0,60.0,0.0,0.0
489,61.0,0.0,60.0,2.0,0.0
490,73.0,60.0,60.0,0.0,0.0
491,56.0,0.0,60.0,2.0,0.0
492,76.0,60.0,60.0,0.0,0.0
493,68.0,0.0,120.0,1.0,0.0
494,73.0,60.0,120.0,1.0,0.0
495,73.0,0.0,60.0,0.0,0.0
496,61.0,0.0,60.0,2.0,0.0
497,63.0,60.0,60.0,2.0,0.0
498,72.0,0.0,60.0,0.0,0.0
499,64.0,0.0,60.0,2.0,0.0
500,73.0,60.0,60.0,0.0,0.0
501,63.0,0.0,60.0,2.0,0.0
502,68.0,60.0,60.0,0.0,0.0
503,64.0,0.0,60.0,2.0,0.0
504,73.0,60.0,60.0,0.0,0.0
505,71.0,0.0,60.0,0.0,0.0
506,63.0,60.0,60.0,2.0,0.0
507,73.0,0.0,60.0,0.0,0.0
508,61.0,60.0,60.0,2.0,0.0
509,70.0,0.0,120.0,1.0,0.0
510,55.0,60.0,60.0,2.0,0.0
511,76.0,0.0,600.0,0.0,0.0
512,73.0,0.0,120.0,1.0,0.0
513,61.0,60.0,60.0,2.0,0.0
514,63.0,60.0,60.0,2.0,0.0
515,64.0,60.0,60.0,2.0,0.0
516,63.0,60.0,60.0,2.0,0.0
517,64.0,60.0,60.0,2.0,0.0
518,63.0,60.0,60.0,2.0,0.0
519,61.0,60.0,60.0,2.0,0.0
520,73.0,60.0,120.0,1.0,0.0
521,55.0,60.0,60.0,2.0,0.0
522,70.0,0.0,120.0,1.0,0.0
523,58.0,0.0,60.0,2.0,0.0
524,75.0,0.0,120.0,0.0,0.0
525,59.0,60.0,60.0,2.0,0.0
526,61.0,60.0,60.0,2.0,0.0
527,77.0,0.0,120.0,0.0,0.0
528,59.0,60.0,60.0,2.0,0.0
529,61.0,60.0,60.0,2.0,0.0
530,80.0,60.0,60.0,0.0,0.0
531,59.0,0.0,60.0,2.0,0.0
532,58.0,0.0,60.0,2.0,0.0
533,79.0,60.0,60.0,0.0,0.0
534,80.0,0.0,1080.0,0.0,0.0
535,72.0,0.0,120.0,1.0,0.0
536,75.0,0.0,120.0,1.0,0.0
537,54.0,60.0,60.0,2.0,0.0
538,60.0,60.0,60.0,2.0,0.0
539,61.0,60.0,60.0,2.0,0.0
540,63.0,60.0,60.0,2.0,0.0
541,61.0,60.0,60.0,2.0,0.0
542,63.0,60.0,60.0,2.0,0.0
543,61.0,60.0,60.0,2.0,0.0
544,60.0,60.0,60.0,2.0,0.0
545,77.0,60.0,120.0,1.0,0.0
546,74.0,0.0,120.0,1.0,0.0
547,53.0,60.0,60.0,2.0,0.0
548,56.0,0.0,60.0,2.0,0.0
549,58.0,60.0,60.0,2.0,0.0
550,59.0,60.0,60.0,2.0,0.0
551,58.0,60.0,60.0,2.0,0.0
552,59.0,60.0,60.0,2.0,0.0
553,58.0,60.0,60.0,2.0,0.0
554,56.0,60.0,60.0,2.0,0.0
555,70.0,0.0,120.0,1.0,0.0
556,73.0,60.0,120.0,1.0,0.0
557,52.0,60.0,60.0,2.0,0.0
558,58.0,0.0,60.0,2.0,0.0
559,79.0,60.0,60.0,0.0,0.0
560,59.0,0.0,60.0,2.0,0.0
561,61.0,60.0,60.0,2.0,0.0
562,82.0,0.0,60.0,0.0,0.0
563,85.0,60.0,60.0,0.0,0.0
564,59.0,0.0,60.0,2.0,0.0
565,61.0,60.0,60.0,2.0,0.0
566,88.0,0.0,60.0,0.0,0.0
567,87.0,60.0,60.0,0.0,0.0
568,59.0,0.0,60.0,2.0,0.0
569,79.0,0.0,60.0,0.0,0.0
570,58.0,60.0,60.0,2.0,0.0
571,80.0,30.0,750.0,0.0,0.0
572,71.0,0.0,120.0,1.0,0.0
573,75.0,0.0,120.0,1.0,0.0
574,51.0,60.0,60.0,2.0,0.0
575,56.0,60.0,60.0,2.0,0.0
576,58.0,60.0,60.0,2.0,0.0
577,59.0,60.0,60.0,2.0,0.0
578,58.0,60.0,60.0,2.0,0.0
579,59.0,60.0,60.0,2.0,0.0
580,58.0,60.0,60.0,2.0,0.0
581,56.0,60.0,60.0,2.0,0.0
582,71.0,0.0,120.0,1.0,0.0
583,77.0,60.0,120.0,1.0,0.0
584,50.0,60.0,60.0,2.0,0.0
585,56.0,0.0,60.0,2.0,0.0
586,58.0,60.0,60.0,2.0,0.0
587,59.0,30.0,60.0,2.0,0.0
588,58.0,0.0,60.0,2.0,0.0
589,82.0,30.0,30.0,0.0,0.0
590,80.0,30.0,30.0,0.0,0.0
591,59.0,30.0,60.0,2.0,0.0
592,79.0,0.0,30.0,0.0,0.0
593,58.0,50.0,60.0,2.0,0.0
594,80.0,30.0,30.0,0.0,0.0
595,77.0,0.0,30.0,0.0,0.0
596,56.0,17.0,60.0,2.0,0.0
597,79.0,10.0,60.0,0.0,0.0
598,70.0,2.0,120.0,1.0,0.0
599,75.0,0.0,120.0,1.0,0.0
600,80.0,15.0,15.0,0.0,0.0
601,51.0,2.0,60.0,2.0,0.0
602,79.0,15.0,15.0,0.0,0.0
603,80.0,13.0,15.0,0.0,0.0
604,79.0,15.0,15.0,0.0,0.0
605,80.0,15.0,15.0,0.0,0.0
606,58.0,0.0,60.0,2.0,0.0
607,79.0,15.0,15.0,0.0,0.0
608,80.0,13.0,15.0,0.0,0.0
609,79.0,15.0,15.0,0.0,0.0
610,59.0,2.0,60.0,2.0,0.0
611,80.0,15.0,15.0,0.0,0.0
612,79.0,15.0,15.0,0.0,0.0
613,80.0,13.0,15.0,0.0,0.0
614,79.0,15.0,15.0,0.0,0.0
615,61.0,2.0,60.0,2.0,0.0
616,80.0,15.0,15.0,0.0,0.0
617,79.0,15.0,15.0,0.0,0.0
618,80.0,13.0,15.0,0.0,0.0
619,79.0,15.0,15.0,0.0,0.0
620,59.0,2.0,60.0,2.0,0.0
621,80.0,15.0,15.0,0.0,0.0
622,79.0,15.0,15.0,0.0,0.0
623,80.0,13.0,15.0,0.0,0.0
624,79.0,15.0,15.0,0.0,0.0
625,80.0,38.0,15.0,0.0,0.0
626,61.0,60.0,60.0,2.0,0.0
627,79.0,5.0,40.0,0.0,0.0
628,80.0,10.0,120.0,0.0,0.0
629,59.0,50.0,60.0,2.0,0.0
630,58.0,60.0,60.0,2.0,0.0
631,71.0,0.0,120.0,1.0,0.0
632,75.0,0.0,120.0,1.0,0.0
633,56.0,60.0,60.0,2.0,0.0
634,80.0,60.0,1980.0,0.0,0.0
635,59.0,60.0,60.0,2.0,0.0
636,61.0,60.0,60.0,2.0,0.0
637,63.0,60.0,60.0,2.0,0.0
638,61.0,60.0,60.0,2.0,0.0
639,63.0,60.0,60.0,2.0,0.0
640,61.0,60.0,60.0,2.0,0.0
641,59.0,60.0,60.0,2.0,0.0
642,54.0,60.0,60.0,2.0,0.0
643,72.0,0.0,120.0,1.0,0.0
644,75.0,0.0,120.0,1.0,0.0
645,60.0,60.0,60.0,2.0,0.0
646,61.0,60.0,60.0,2.0,0.0
647,63.0,60.0,60.0,2.0,0.0
648,61.0,60.0,60.0,2.0,0.0
649,63.0,60.0,60.0,2.0,0.0
650,61.0,60.0,60.0,2.0,0.0
651,60.0,60.0,60.0,2.0,0.0
652,52.0,60.0,60.0,2.0,0.0
653,73.0,60.0,120.0,1.0,0.0
654,76.0,0.0,120.0,1.0,0.0
655,61.0,0.0,60.0,2.0,0.0
656,63.0,60.0,60.0,2.0,0.0
657,64.0,60.0,60.0,2.0,0.0
658,63.0,60.0,60.0,2.0,0.0
659,64.0,60.0,60.0,2.0,0.0
660,63.0,60.0,60.0,2.0,0.0
661,61.0,60.0,60.0,2.0,0.0
662,78.0,0.0,120.0,1.0,0.0
663,75.0,0.0,120.0,1.0,0.0
664,60.0,60.0,60.0,2.0,0.0
665,63.0,60.0,60.0,2.0,0.0
666,64.0,60.0,60.0,2.0,0.0
667,66.0,60.0,60.0,2.0,0.0
668,64.0,60.0,60.0,2.0,0.0
669,66.0,60.0,60.0,2.0,0.0
670,64.0,60.0,60.0,2.0,0.0
671,63.0,60.0,60.0,2.0,0.0
672,76.0,0.0,120.0,1.0,0.0
673,61.0,0.0,60.0,2.0,0.0
674,64.0,0.0,60.0,2.0,0.0
675,85.0,60.0,60.0,0.0,0.0
676,66.0,0.0,60.0,2.0,0.0
677,87.0,60.0,60.0,0.0,0.0
678,68.0,60.0,60.0,2.0,0.0
679,88.0,0.0,60.0,0.0,0.0
680,66.0,60.0,60.0,2.0,0.0
681,87.0,0.0,60.0,0.0,0.0
682,88.0,0.0,60.0,0.0,0.0
683,68.0,60.0,60.0,2.0,0.0
684,87.0,0.0,60.0,0.0,0.0
685,66.0,60.0,60.0,2.0,0.0
686,64.0,60.0,60.0,2.0,0.0
687,85.0,0.0,60.0,0.0,0.0
688,61.0,0.0,60.0,2.0,0.0
689,80.0,60.0,60.0,0.0,0.0
690,64.0,60.0,60.0,2.0,0.0
691,85.0,0.0,60.0,0.0,0.0
692,87.0,60.0,60.0,0.0,0.0
693,66.0,0.0,60.0,2.0,0.0
694,88.0,0.0,60.0,0.0,0.0
695,68.0,60.0,60.0,2.0,0.0
696,87.0,60.0,60.0,0.0,0.0
697,66.0,0.0,60.0,2.0,0.0
698,68.0,0.0,60.0,2.0,0.0
699,88.0,60.0,60.0,0.0,0.0
700,66.0,60.0,60.0,2.0,0.0
701,87.0,0.0,60.0,0.0,0.0
702,85.0,60.0,60.0,0.0,0.0
703,64.0,0.0,60.0,2.0,0.0
704,61.0,0.0,60.0,2.0,0.0
705,87.0,60.0,60.0,0.0,0.0
706,85.0,0.0,60.0,0.0,0.0
707,66.0,60.0,60.0,2.0,0.0
708,68.0,0.0,60.0,2.0,0.0
709,84.0,60.0,60.0,0.0,0.0
710,69.0,60.0,60.0,2.0,0.0
711,85.0,0.0,60.0,0.0,0.0
712,87.0,0.0,60.0,0.0,0.0
713,68.0,60.0,60.0,2.0,0.0
714,69.0,0.0,60.0,2.0,0.0
715,85.0,60.0,60.0,0.0,0.0
716,68.0,60.0,60.0,2.0,0.0
717,84.0,0.0,60.0,0.0,0.0
718,66.0,60.0,60.0,2.0,0.0
719,85.0,0.0,60.0,0.0,0.0
720,78.0,0.0,120.0,0.0,0.0
721,61.0,60.0,60.0,2.0,0.0
722,66.0,60.0,60.0,2.0,0.0
723,87.0,0.0,180.0,0.0,0.0
724,68.0,60.0,60.0,2.0,0.0
725,69.0,60.0,60.0,2.0,0.0
726,68.0,60.0,60.0,2.0,0.0
727,85.0,0.0,60.0,0.0,0.0
728,69.0,60.0,60.0,2.0,0.0
729,83.0,0.0,60.0,0.0,0.0
730,68.0,60.0,60.0,2.0,0.0
731,85.0,0.0,60.0,0.0,0.0
732,66.0,60.0,60.0,2.0,0.0
733,81.0,0.0,60.0,0.0,0.0
734,60.0,60.0,60.0,2.0,0.0
735,75.0,60.0,60.0,0.0,0.0
736,66.0,0.0,60.0,2.0,0.0
737,68.0,0.0,60.0,2.0,0.0
738,76.0,60.0,60.0,0.0,0.0
739,69.0,60.0,60.0,2.0,0.0
740,78.0,0.0,60.0,0.0,0.0
741,76.0,60.0,60.0,0.0,0.0
742,68.0,0.0,60.0,2.0,0.0
743,69.0,0.0,60.0,2.0,0.0
744,78.0,60.0,60.0,0.0,0.0
745,68.0,0.0,60.0,2.0,0.0
746,76.0,60.0,60.0,0.0,0.0
747,75.0,60.0,60.0,0.0,0.0
748,66.0,0.0,60.0,2.0,0.0
749,60.0,60.0,60.0,2.0,0.0
750,80.0,0.0,60.0,0.0,0.0
751,78.0,0.0,60.0,0.0,0.0
752,63.0,60.0,60.0,2.0,0.0
753,80.0,60.0,60.0,0.0,0.0
754,64.0,0.0,60.0,2.0,0.0
755,81.0,60.0,60.0,0.0,0.0
756,66.0,0.0,60.0,2.0,0.0
757,80.0,60.0,60.0,0.0,0.0
758,64.0,0.0,60.0,2.0,0.0
759,66.0,0.0,60.0,2.0,0.0
760,81.0,60.0,60.0,0.0,0.0
761,64.0,60.0,60.0,2.0,0.0
762,80.0,0.0,60.0,0.0,0.0
763,78.0,0.0,60.0,0.0,0.0
764,63.0,60.0,60.0,2.0,0.0
765,76.0,0.0,60.0,0.0,0.0
766,61.0,60.0,60.0,2.0,0.0
767,63.0,60.0,60.0,2.0,0.0
768,72.0,0.0,60.0,0.0,0.0
769,73.0,60.0,60.0,0.0,0.0
770,64.0,0.0,60.0,2.0,0.0
771,66.0,60.0,60.0,2.0,0.0
772,75.0,0.0,60.0,0.0,0.0
773,73.0,60.0,60.0,0.0,0.0
774,64.0,0.0,60.0,2.0,0.0
775,72.0,60.0,60.0,0.0,0.0
776,66.0,0.0,60.0,2.0,0.0
777,64.0,0.0,60.0,2.0,0.0
778,73.0,60.0,60.0,0.0,0.0
779,75.0,60.0,60.0,0.0,0.0
780,63.0,0.0,60.0,2.0,0.0
781,61.0,0.0,60.0,2.0,0.0
782,76.0,60.0,60.0,0.0,0.0
783,85.0,60.0,60.0,0.0,0.0
784,63.0,0.0,60.0,2.0,0.0
785,83.0,0.0,60.0,0.0,0.0
786,64.0,60.0,60.0,2.0,0.0
787,66.0,0.0,60.0,2.0,0.0
788,81.0,60.0,60.0,0.0,0.0
789,80.0,60.0,60.0,0.0,0.0
790,64.0,0.0,60.0,2.0,0.0
791,66.0,60.0,60.0,2.0,0.0
792,81.0,0.0,60.0,0.0,0.0
793,80.0,60.0,60.0,0.0,0.0
794,64.0,0.0,60.0,2.0,0.0
795,78.0,0.0,60.0,0.0,0.0
796,63.0,60.0,60.0,2.0,0.0
797,77.0,0.0,60.0,0.0,0.0
798,59.0,60.0,60.0,2.0,0.0
799,80.0,0.0,60.0,0.0,0.0
800,65.0,60.0,60.0,2.0,0.0
801,82.0,60.0,60.0,0.0,0.0
802,66.0,0.0,60.0,2.0,0.0
803,83.0,0.0,60.0,0.0,0.0
804,68.0,60.0,60.0,2.0,0.0
805,66.0,0.0,60.0,2.0,0.0
806,82.0,60.0,60.0,0.0,0.0
807,68.0,60.0,60.0,2.0,0.0
808,83.0,0.0,60.0,0.0,0.0
809,82.0,60.0,60.0,0.0,0.0
810,66.0,0.0,60.0,2.0,0.0
811,65.0,60.0,60.0,2.0,0.0
812,80.0,0.0,60.0,0.0,0.0
813,58.0,60.0,60.0,2.0,0.0
814,79.0,0.0,60.0,0.0,0.0
815,82.0,60.0,60.0,0.0,0.0
816,67.0,0.0,60.0,2.0,0.0
817,68.0,0.0,60.0,2.0,0.0
818,83.0,60.0,60.0,0.0,0.0
819,70.0,0.0,60.0,2.0,0.0
820,85.0,60.0,60.0,0.0,0.0
821,83.0,60.0,60.0,0.0,0.0
822,68.0,0.0,60.0,2.0,0.0
823,85.0,60.0,60.0,0.0,0.0
824,70.0,0.0,60.0,2.0,0.0
825,83.0,60.0,60.0,0.0,0.0
826,68.0,0.0,60.0,2.0,0.0
827,82.0,0.0,60.0,0.0,0.0
828,67.0,60.0,60.0,2.0,0.0
829,83.0,0.0,60.0,0.0,0.0
830,68.0,60.0,60.0,2.0,0.0
831,56.0,60.0,60.0,2.0,0.0
832,71.0,0.0,60.0,0.0,0.0
833,58.0,60.0,60.0,2.0,0.0
834,73.0,0.0,60.0,0.0,0.0
835,59.0,0.0,60.0,2.0,0.0
836,75.0,60.0,60.0,0.0,0.0
837,58.0,0.0,60.0,2.0,0.0
838,73.0,60.0,60.0,0.0,0.0
839,75.0,0.0,60.0,0.0,0.0
840,59.0,60.0,60.0,2.0,0.0
841,58.0,60.0,60.0,2.0,0.0
842,73.0,0.0,60.0,0.0,0.0
843,71.0,0.0,60.0,0.0,0.0
844,56.0,60.0,60.0,2.0,0.0
845,81.0,60.0,60.0,0.0,0.0
846,54.0,0.0,60.0,2.0,0.0
847,56.0,60.0,60.0,2.0,0.0
848,72.0,0.0,60.0,0.0,0.0
849,73.0,0.0,60.0,0.0,0.0
850,57.0,60.0,60.0,2.0,0.0
851,75.0,0.0,60.0,0.0,0.0
852,59.0,60.0,60.0,2.0,0.0
853,73.0,0.0,60.0,0.0,0.0
854,57.0,60.0,60.0,2.0,0.0
855,75.0,0.0,60.0,0.0,0.0
856,59.0,60.0,60.0,2.0,0.0
857,73.0,0.0,60.0,0.0,0.0
858,57.0,60.0,60.0,2.0,0.0
859,56.0,60.0,60.0,2.0,0.0
860,72.0,0.0,60.0,0.0,0.0
861,80.0,60.0,60.0,0.0,0.0
862,52.0,0.0,60.0,2.0,0.0
863,58.0,0.0,60.0,2.0,0.0
864,73.0,60.0,60.0,0.0,0.0
865,60.0,60.0,60.0,2.0,0.0
866,75.0,0.0,60.0,0.0,0.0
867,76.0,60.0,60.0,0.0,0.0
868,61.0,0.0,60.0,2.0,0.0
869,75.0,0.0,60.0,0.0,0.0
870,60.0,60.0,60.0,2.0,0.0
871,76.0,0.0,60.0,0.0,0.0
872,61.0,60.0,60.0,2.0,0.0
873,75.0,0.0,60.0,0.0,0.0
874,60.0,60.0,60.0,2.0,0.0
875,58.0,60.0,60.0,2.0,0.0
876,73.0,0.0,60.0,0.0,0.0
877,51.0,0.0,60.0,2.0,0.0
878,78.0,60.0,60.0,0.0,0.0
879,60.0,0.0,60.0,2.0,0.0
880,75.0,60.0,60.0,0.0,0.0
881,76.0,0.0,60.0,0.0,0.0
882,61.0,60.0,60.0,2.0,0.0
883,78.0,0.0,60.0,0.0,0.0
884,63.0,60.0,60.0,2.0,0.0
885,76.0,60.0,60.0,0.0,0.0
886,61.0,0.0,60.0,2.0,0.0
887,78.0,60.0,60.0,0.0,0.0
888,63.0,0.0,60.0,2.0,0.0
889,61.0,60.0,60.0,2.0,0.0
890,76.0,0.0,60.0,0.0,0.0
891,75.0,0.0,60.0,0.0,0.0
892,60.0,60.0,60.0,2.0,0.0
893,76.0,60.0,60.0,0.0,0.0
894,61.0,0.0,60.0,2.0,0.0
895,49.0,0.0,60.0,2.0,0.0
896,73.0,60.0,60.0,0.0,0.0
897,51.0,0.0,60.0,2.0,0.0
898,72.0,60.0,60.0,0.0,0.0
899,52.0,60.0,60.0,2.0,0.0
900,73.0,0.0,60.0,0.0,0.0
901,68.0,60.0,60.0,0.0,0.0
902,51.0,0.0,60.0,2.0,0.0
903,52.0,0.0,60.0,2.0,0.0
904,73.0,60.0,60.0,0.0,0.0
905,72.0,60.0,60.0,0.0,0.0
906,51.0,0.0,60.0,2.0,0.0
907,73.0,0.0,60.0,0.0,0.0
908,49.0,60.0,60.0,2.0,0.0
909,76.0,0.0,480.0,0.0,0.0
910,47.0,60.0,60.0,2.0,0.0
911,49.0,60.0,60.0,2.0,0.0
912,51.0,60.0,60.0,2.0,0.0
913,52.0,60.0,60.0,2.0,0.0
914,51.0,60.0,60.0,2.0,0.0
915,52.0,60.0,60.0,2.0,0.0
916,51.0,60.0,60.0,2.0,0.0
917,49.0,60.0,60.0,2.0,0.0
918,46.0,60.0,60.0,2.0,0.0
919,73.0,60.0,60.0,0.0,0.0
920,49.0,0.0,60.0,2.0,0.0
921,51.0,0.0,60.0,2.0,0.0
922,72.0,60.0,60.0,0.0,0.0
923,52.0,0.0,60.0,2.0,0.0
924,73.0,60.0,60.0,0.0,0.0
925,51.0,0.0,60.0,2.0,0.0
926,67.0,60.0,60.0,0.0,0.0
927,73.0,0.0,60.0,0.0,0.0
928,52.0,60.0,60.0,2.0,0.0
929,72.0,60.0,60.0,0.0,0.0
930,51.0,0.0,60.0,2.0,0.0
931,49.0,0.0,60.0,2.0,0.0
932,73.0,60.0,60.0,0.0,0.0
933,44.0,0.0,60.0,2.0,0.0
934,76.0,60.0,60.0,0.0,0.0
935,73.0,60.0,60.0,0.0,0.0
936,49.0,0.0,60.0,2.0,0.0
937,72.0,0.0,60.0,0.0,0.0
938,51.0,60.0,60.0,2.0,0.0
939,73.0,0.0,60.0,0.0,0.0
940,52.0,60.0,60.0,2.0,0.0
941,68.0,60.0,60.0,0.0,0.0
942,51.0,0.0,60.0,2.0,0.0
943,52.0,0.0,60.0,2.0,0.0
944,73.0,60.0,60.0,0.0,0.0
945,51.0,0.0,60.0,2.0,0.0
946,72.0,60.0,60.0,0.0,0.0
947,49.0,60.0,60.0,2.0,0.0
948,73.0,0.0,60.0,0.0,0.0
949,76.0,0.0,60.0,0.0,0.0
950,43.0,60.0,60.0,2.0,0.0
951,70.0,0.0,60.0,0.0,0.0
952,49.0,60.0,60.0,2.0,0.0
953,71.0,0.0,60.0,0.0,0.0
954,51.0,60.0,60.0,2.0,0.0
955,52.0,60.0,60.0,2.0,0.0
956,73.0,0.0,60.0,0.0,0.0
957,51.0,0.0,60.0,2.0,0.0
958,71.0,60.0,60.0,0.0,0.0
959,52.0,60.0,60.0,2.0,0.0
960,70.0,0.0,60.0,0.0,0.0
961,51.0,60.0,60.0,2.0,0.0
962,68.0,0.0,60.0,0.0,0.0
963,67.0,0.0,60.0,0.0,0.0
964,49.0,60.0,60.0,2.0,0.0
965,75.0,0.0,60.0,0.0,0.0
966,44.0,60.0,60.0,2.0,0.0
967,68.0,0.0,60.0,0.0,0.0
968,47.0,60.0,60.0,2.0,0.0
969,49.0,0.0,60.0,2.0,0.0
970,70.0,60.0,60.0,0.0,0.0
971,51.0,0.0,60.0,2.0,0.0
972,71.0,60.0,60.0,0.0,0.0
973,49.0,60.0,60.0,2.0,0.0
974,70.0,0.0,60.0,0.0,0.0
975,68.0,0.0,60.0,0.0,0.0
976,51.0,60.0,60.0,2.0,0.0
977,67.0,0.0,60.0,0.0,0.0
978,49.0,60.0,60.0,2.0,0.0
979,68.0,0.0,60.0,0.0,0.0
980,47.0,60.0,60.0,2.0,0.0
981,40.0,0.0,120.0,2.0,0.0
982,73.0,60.0,60.0,0.0,0.0
983,83.0,60.0,60.0,0.0,0.0
984,85.0,60.0,60.0,0.0,0.0
985,87.0,60.0,60.0,0.0,0.0
986,85.0,60.0,60.0,0.0,0.0
987,87.0,60.0,60.0,0.0,0.0
988,85.0,60.0,60.0,0.0,0.0
989,83.0,60.0,60.0,0.0,0.0
990,73.0,60.0,60.0,0.0,0.0
991,82.0,60.0,60.0,0.0,0.0
992,61.0,0.0,60.0,2.0,0.0
993,83.0,0.0,60.0,0.0,0.0
994,63.0,60.0,60.0,2.0,0.0
995,85.0,60.0,60.0,0.0,0.0
996,64.0,0.0,60.0,2.0,0.0
997,83.0,60.0,60.0,0.0,0.0
998,63.0,0.0,60.0,2.0,0.0
999,85.0,60.0,60.0,0.0,0.0
1000,64.0,0.0,60.0,2.0,0.0
1001,83.0,0.0,60.0,0.0,0.0
1002,63.0,60.0,60.0,2.0,0.0
1003,82.0,0.0,60.0,0.0,0.0
1004,61.0,60.0,60.0,2.0,0.0
1005,53.0,0.0,120.0,2.0,0.0
1006,74.0,60.0,60.0,0.0,0.0
1007,80.0,60.0,60.0,0.0,0.0
1008,82.0,60.0,60.0,0.0,0.0
1009,83.0,60.0,60.0,0.0,0.0
1010,82.0,60.0,60.0,0.0,0.0
1011,83.0,60.0,60.0,0.0,0.0
1012,82.0,60.0,60.0,0.0,0.0
1013,80.0,60.0,60.0,0.0,0.0
1014,79.0,60.0,480.0,0.0,0.0
1015,51.0,60.0,60.0,2.0,0.0
1016,73.0,60.0,60.0,0.0,0.0
1017,58.0,0.0,60.0,2.0,0.0
1018,59.0,0.0,60.0,2.0,0.0
1019,75.0,60.0,60.0,0.0,0.0
1020,61.0,60.0,60.0,2.0,0.0
1021,76.0,0.0,60.0,0.0,0.0
1022,75.0,0.0,60.0,0.0,0.0
1023,59.0,60.0,60.0,2.0,0.0
1024,61.0,0.0,60.0,2.0,0.0
1025,76.0,60.0,60.0,0.0,0.0
1026,59.0,60.0,60.0,2.0,0.0
1027,75.0,0.0,60.0,0.0,0.0
1028,58.0,0.0,60.0,2.0,0.0
1029,73.0,0.0,60.0,0.0,0.0
1030,51.0,60.0,60.0,2.0,0.0
1031,71.0,0.0,480.0,0.0,0.0
1032,59.0,0.0,60.0,2.0,0.0
1033,75.0,60.0,60.0,0.0,0.0
1034,61.0,60.0,60.0,2.0,0.0
1035,76.0,0.0,60.0,0.0,0.0
1036,63.0,60.0,60.0,2.0,0.0
1037,78.0,0.0,60.0,0.0,0.0
1038,76.0,0.0,60.0,0.0,0.0
1039,61.0,60.0,60.0,2.0,0.0
1040,78.0,60.0,60.0,0.0,0.0
1041,63.0,0.0,60.0,2.0,0.0
1042,61.0,60.0,60.0,2.0,0.0
1043,76.0,0.0,60.0,0.0,0.0
1044,59.0,0.0,60.0,2.0,0.0
1045,75.0,60.0,60.0,0.0,0.0
1046,51.0,60.0,60.0,2.0,0.0
1047,61.0,60.0,60.0,2.0,0.0
1048,70.0,0.0,60.0,0.0,0.0
1049,71.0,60.0,60.0,0.0,0.0
1050,63.0,0.0,60.0,2.0,0.0
1051,73.0,0.0,60.0,0.0,0.0
1052,64.0,60.0,60.0,2.0,0.0
1053,71.0,60.0,60.0,0.0,0.0
1054,63.0,0.0,60.0,2.0,0.0
1055,73.0,60.0,60.0,0.0,0.0
1056,64.0,0.0,60.0,2.0,0.0
1057,71.0,60.0,60.0,0.0,0.0
1058,63.0,0.0,60.0,2.0,0.0
1059,70.0,60.0,60.0,0.0,0.0
1060,61.0,0.0,60.0,2.0,0.0
1061,68.0,0.0,480.0,0.0,0.0
1062,51.0,60.0,60.0,2.0,0.0
1063,71.0,0.0,60.0,0.0,0.0
1064,63.0,60.0,60.0,2.0,0.0
1065,73.0,60.0,60.0,0.0,0.0
1066,64.0,0.0,60.0,2.0,0.0
1067,66.0,60.0,60.0,2.0,0.0
1068,75.0,0.0,60.0,0.0,0.0
1069,73.0,60.0,60.0,0.0,0.0
1070,64.0,0.0,60.0,2.0,0.0
1071,66.0,60.0,60.0,2.0,0.0
1072,75.0,0.0,60.0,0.0,0.0
1073,64.0,60.0,60.0,2.0,0.0
1074,73.0,0.0,60.0,0.0,0.0
1075,71.0,60.0,60.0,0.0,0.0
1076,63.0,0.0,60.0,2.0,0.0
1077,67.0,0.0,480.0,0.0,0.0
1078,51.0,60.0,60.0,2.0,0.0
1079,61.0,0.0,60.0,2.0,0.0
1080,70.0,60.0,60.0,0.0,0.0
1081,63.0,0.0,60.0,2.0,0.0
1082,71.0,60.0,60.0,0.0,0.0
1083,64.0,60.0,60.0,2.0,0.0
1084,73.0,0.0,60.0,0.0,0.0
1085,71.0,0.0,60.0,0.0,0.0
1086,63.0,60.0,60.0,2.0,0.0
1087,64.0,60.0,60.0,2.0,0.0
1088,73.0,0.0,60.0,0.0,0.0
1089,71.0,60.0,60.0,0.0,0.0
1090,63.0,0.0,60.0,2.0,0.0
1091,70.0,0.0,60.0,0.0,0.0
1092,61.0,60.0,60.0,2.0,0.0
1093,65.0,0.0,480.0,0.0,0.0
1094,51.0,60.0,60.0,2.0,0.0
1095,59.0,0.0,60.0,2.0,0.0
1096,68.0,60.0,60.0,0.0,0.0
1097,61.0,60.0,60.0,2.0,0.0
1098,70.0,0.0,60.0,0.0,0.0
1099,71.0,0.0,60.0,0.0,0.0
1100,63.0,60.0,60.0,2.0,0.0
1101,70.0,0.0,60.0,0.0,0.0
1102,61.0,60.0,60.0,2.0,0.0
1103,63.0,0.0,60.0,2.0,0.0
1104,71.0,60.0,60.0,0.0,0.0
1105,61.0,60.0,60.0,2.0,0.0
1106,70.0,0.0,60.0,0.0,0.0
1107,59.0,0.0,60.0,2.0,0.0
1108,68.0,60.0,60.0,0.0,0.0
1109,51.0,60.0,60.0,2.0,0.0
1110,67.0,0.0,480.0,0.0,0.0
1111,61.0,60.0,60.0,0.0,0.0
1112,58.0,0.0,60.0,2.0,0.0
1113,59.0,0.0,60.0,2.0,0.0
1114,63.0,60.0,60.0,0.0,0.0
1115,61.0,60.0,60.0,2.0,0.0
1116,64.0,0.0,60.0,0.0,0.0
1117,59.0,0.0,60.0,2.0,0.0
1118,63.0,60.0,60.0,0.0,0.0
1119,61.0,60.0,60.0,2.0,0.0
1120,64.0,0.0,60.0,0.0,0.0
1121,63.0,0.0,60.0,0.0,0.0
1122,59.0,60.0,60.0,2.0,0.0
1123,58.0,60.0,60.0,2.0,0.0
1124,61.0,0.0,60.0,0.0,0.0
1125,63.0,60.0,60.0,0.0,0.0
1126,59.0,0.0,60.0,2.0,0.0
1127,63.0,0.0,60.0,2.0,0.0
1128,65.0,60.0,60.0,0.0,0.0
1129,61.0,0.0,60.0,2.0,0.0
1130,67.0,60.0,60.0,0.0,0.0
1131,59.0,60.0,60.0,2.0,0.0
1132,68.0,0.0,60.0,0.0,0.0
1133,70.0,0.0,60.0,0.0,0.0
1134,58.0,60.0,60.0,2.0,0.0
1135,71.0,60.0,60.0,0.0,0.0
1136,56.0,0.0,60.0,2.0,0.0
1137,73.0,0.0,60.0,0.0,0.0
1138,55.0,60.0,60.0,2.0,0.0
1139,75.0,0.0,60.0,0.0,0.0
1140,58.0,120.0,60.0,2.0,0.0
1141,76.0,0.0,480.0,0.0,0.0
1142,51.0,0.0,480.0,2.0,0.0
1143,55.0,0.0,60.0,2.0,0.0
1144,70.0,60.0,60.0,0.0,0.0
1145,56.0,60.0,60.0,2.0,0.0
1146,71.0,0.0,60.0,0.0,0.0
1147,73.0,0.0,60.0,0.0,0.0
1148,58.0,60.0,60.0,2.0,0.0
1149,71.0,0.0,60.0,0.0,0.0
1150,56.0,60.0,60.0,2.0,0.0
1151,73.0,0.0,60.0,0.0,0.0
1152,58.0,60.0,60.0,2.0,0.0
1153,71.0,60.0,60.0,0.0,0.0
1154,56.0,0.0,60.0,2.0,0.0
1155,70.0,0.0,60.0,0.0,0.0
1156,55.0,120.0,60.0,2.0,0.0
1157,77.0,0.0,480.0,0.0,0.0
1158,71.0,60.0,60.0,0.0,0.0
1159,56.0,0.0,60.0,2.0,0.0
1160,73.0,0.0,60.0,0.0,0.0
1161,58.0,60.0,60.0,2.0,0.0
1162,75.0,0.0,60.0,0.0,0.0
1163,59.0,60.0,60.0,2.0,0.0
1164,58.0,0.0,60.0,2.0,0.0
1165,73.0,60.0,60.0,0.0,0.0
1166,59.0,60.0,60.0,2.0,0.0
1167,75.0,0.0,60.0,0.0,0.0
1168,73.0,60.0,60.0,0.0,0.0
1169,58.0,0.0,60.0,2.0,0.0
1170,56.0,0.0,60.0,2.0,0.0
1171,71.0,120.0,60.0,0.0,0.0
1172,51.0,0.0,15.0,2.0,0.0
1173,79.0,60.0,480.0,0.0,0.0
1174,73.0,0.0,60.0,0.0,0.0
1175,58.0,60.0,60.0,2.0,0.0
1176,59.0,0.0,60.0,2.0,0.0
1177,75.0,60.0,60.0,0.0,0.0
1178,61.0,0.0,60.0,2.0,0.0
1179,76.0,60.0,60.0,0.0,0.0
1180,59.0,0.0,60.0,2.0,0.0
1181,75.0,60.0,60.0,0.0,0.0
1182,61.0,0.0,60.0,2.0,0.0
1183,76.0,60.0,60.0,0.0,0.0
1184,59.0,60.0,60.0,2.0,0.0
1185,75.0,0.0,60.0,0.0,0.0
1186,73.0,0.0,60.0,0.0,0.0
1187,58.0,0.0,60.0,2.0,0.0
1188,52.0,0.0,120.0,2.0,0.0
1189,80.0,60.0,60.0,0.0,0.0
1190,71.0,0.0,120.0,0.0,0.0
1191,56.0,60.0,120.0,2.0,0.0
1192,78.0,0.0,60.0,0.0,0.0
1193,76.0,60.0,60.0,0.0,0.0
1194,75.0,60.0,60.0,0.0,0.0
1195,73.0,60.0,60.0,0.0,0.0
1196,71.0,60.0,60.0,0.0,0.0
1197,70.0,60.0,60.0,0.0,0.0
1198,68.0,60.0,60.0,0.0,0.0
1199,49.0,60.0,60.0,2.0,0.0
1200,76.0,0.0,60.0,0.0,0.0
1201,51.0,0.0,60.0,2.0,0.0
1202,75.0,60.0,60.0,0.0,0.0
1203,73.0,60.0,60.0,0.0,0.0
1204,52.0,0.0,60.0,2.0,0.0
1205,54.0,60.0,60.0,2.0,0.0
1206,71.0,0.0,60.0,0.0,0.0
1207,56.0,0.0,60.0,2.0,0.0
1208,70.0,60.0,60.0,0.0,0.0
1209,58.0,60.0,60.0,2.0,0.0
1210,68.0,0.0,60.0,0.0,0.0
1211,67.0,0.0,60.0,0.0,0.0
1212,59.0,60.0,60.0,2.0,0.0
1213,65.0,60.0,60.0,0.0,0.0
1214,61.0,60.0,240.0,2.0,0.0
1215,51.0,0.0,480.0,2.0,0.0
1216,67.0,120.0,60.0,0.0,0.0
1217,63.0,60.0,300.0,0.0,0.0
1218,70.0,120.0,120.0,0.0,0.0
1219,61.0,0.0,60.0,2.0,0.0
1220,59.0,0.0,120.0,2.0,0.0
1221,68.0,60.0,120.0,0.0,0.0
1222,58.0,480.0,120.0,2.0,0.0
1223,61.0,0.0,120.0,0.0,0.0
1224,67.0,0.0,60.0,0.0,0.0
1225,63.0,0.0,480.0,0.0,0.0
1226,60.0,0.0,480.0,0.0,0.0
1227,68.0,0.0,480.0,0.0,0.0
1228,44.0,0.0,480.0,2.0,0.0
1229,56.0,0.0,480.0,2.0,0.0
