,note,step,duration,channel,velocity
0,68.0,0.0,15.0,0.0,0.0
1,68.0,12.0,15.0,1.0,0.0
2,72.0,0.0,40.0,2.0,0.0
3,63.0,0.0,40.0,3.0,0.0
4,56.0,0.0,40.0,4.0,0.0
5,44.0,4.0,40.0,5.0,0.0
6,70.0,0.0,15.0,0.0,0.0
7,70.0,12.0,15.0,1.0,0.0
8,72.0,0.0,15.0,0.0,0.0
9,72.0,6.0,15.0,1.0,0.0
10,75.0,0.0,15.0,0.0,0.0
11,75.0,14.0,15.0,1.0,0.0
12,80.0,0.0,15.0,0.0,0.0
13,80.0,24.0,15.0,1.0,0.0
14,80.0,0.0,15.0,0.0,0.0
15,80.0,9.0,15.0,1.0,0.0
16,75.0,0.0,20.0,2.0,0.0
17,63.0,0.0,20.0,3.0,0.0
18,60.0,0.0,20.0,4.0,0.0
19,48.0,1.0,20.0,5.0,0.0
20,79.0,0.0,15.0,0.0,0.0
21,79.0,14.0,15.0,1.0,0.0
22,82.0,0.0,15.0,0.0,0.0
23,82.0,9.0,15.0,1.0,0.0
24,73.0,0.0,20.0,2.0,0.0
25,67.0,0.0,20.0,3.0,0.0
26,58.0,0.0,20.0,4.0,0.0
27,46.0,1.0,20.0,5.0,0.0
28,80.0,0.0,15.0,0.0,0.0
29,80.0,14.0,15.0,1.0,0.0
30,79.0,0.0,15.0,0.0,0.0
31,79.0,9.0,15.0,1.0,0.0
32,75.0,0.0,20.0,2.0,0.0
33,72.0,0.0,20.0,3.0,0.0
34,56.0,0.0,20.0,4.0,0.0
35,44.0,1.0,20.0,5.0,0.0
36,77.0,0.0,15.0,0.0,0.0
37,77.0,14.0,15.0,1.0,0.0
38,75.0,0.0,15.0,0.0,0.0
39,75.0,12.0,15.0,1.0,0.0
40,75.0,0.0,40.0,2.0,0.0
41,70.0,0.0,40.0,3.0,0.0
42,55.0,0.0,40.0,4.0,0.0
43,43.0,4.0,40.0,5.0,0.0
44,77.0,0.0,15.0,0.0,0.0
45,77.0,12.0,15.0,1.0,0.0
46,79.0,0.0,15.0,0.0,0.0
47,79.0,6.0,15.0,1.0,0.0
48,82.0,0.0,15.0,0.0,0.0
49,82.0,14.0,15.0,1.0,0.0
50,85.0,0.0,15.0,0.0,0.0
51,85.0,33.0,15.0,1.0,0.0
52,85.0,0.0,60.0,0.0,0.0
53,85.0,6.0,60.0,1.0,0.0
54,75.0,0.0,20.0,2.0,0.0
55,70.0,0.0,20.0,3.0,0.0
56,55.0,0.0,20.0,4.0,0.0
57,43.0,24.0,20.0,5.0,0.0
58,77.0,0.0,20.0,2.0,0.0
59,68.0,0.0,20.0,3.0,0.0
60,53.0,0.0,20.0,4.0,0.0
61,41.0,18.0,20.0,5.0,0.0
62,79.0,0.0,20.0,2.0,0.0
63,70.0,0.0,20.0,3.0,0.0
64,51.0,0.0,20.0,4.0,0.0
65,39.0,15.0,20.0,5.0,0.0
66,84.0,0.0,15.0,0.0,0.0
67,84.0,9.0,15.0,1.0,0.0
68,80.0,0.0,20.0,2.0,0.0
69,63.0,3.0,40.0,3.0,0.0
70,56.0,0.0,20.0,4.0,0.0
71,44.0,1.0,20.0,5.0,0.0
72,82.0,0.0,15.0,0.0,0.0
73,82.0,14.0,15.0,1.0,0.0
74,85.0,0.0,15.0,0.0,0.0
75,85.0,6.0,15.0,1.0,0.0
76,75.0,0.0,20.0,2.0,0.0
77,55.0,0.0,20.0,4.0,0.0
78,43.0,1.0,20.0,5.0,0.0
79,84.0,0.0,15.0,0.0,0.0
80,84.0,14.0,15.0,1.0,0.0
81,82.0,0.0,15.0,0.0,0.0
82,82.0,9.0,15.0,1.0,0.0
83,74.0,0.0,20.0,2.0,0.0
84,67.0,0.0,20.0,3.0,0.0
85,53.0,0.0,20.0,4.0,0.0
86,41.0,1.0,20.0,5.0,0.0
87,80.0,0.0,15.0,0.0,0.0
88,80.0,14.0,15.0,1.0,0.0
89,79.0,0.0,15.0,0.0,0.0
90,79.0,9.0,15.0,1.0,0.0
91,75.0,0.0,20.0,2.0,0.0
92,70.0,3.0,40.0,3.0,0.0
93,51.0,0.0,20.0,4.0,0.0
94,39.0,1.0,20.0,5.0,0.0
95,77.0,0.0,15.0,0.0,0.0
96,77.0,14.0,15.0,1.0,0.0
97,80.0,0.0,15.0,0.0,0.0
98,80.0,6.0,15.0,1.0,0.0
99,70.0,0.0,20.0,2.0,0.0
100,49.0,0.0,20.0,4.0,0.0
101,37.0,1.0,20.0,5.0,0.0
102,79.0,0.0,15.0,0.0,0.0
103,79.0,14.0,15.0,1.0,0.0
104,77.0,0.0,15.0,0.0,0.0
105,77.0,9.0,15.0,1.0,0.0
106,72.0,0.0,20.0,2.0,0.0
107,68.0,0.0,20.0,3.0,0.0
108,48.0,0.0,20.0,4.0,0.0
109,36.0,1.0,20.0,5.0,0.0
110,75.0,0.0,15.0,0.0,0.0
111,75.0,14.0,15.0,1.0,0.0
112,73.0,0.0,15.0,0.0,0.0
113,73.0,9.0,15.0,1.0,0.0
114,73.0,0.0,20.0,2.0,0.0
115,67.0,0.0,20.0,3.0,0.0
116,46.0,0.0,20.0,4.0,0.0
117,34.0,1.0,20.0,5.0,0.0
118,72.0,0.0,15.0,0.0,0.0
119,72.0,14.0,15.0,1.0,0.0
120,75.0,0.0,15.0,0.0,0.0
121,75.0,9.0,15.0,1.0,0.0
122,70.0,0.0,20.0,2.0,0.0
123,70.0,0.0,20.0,3.0,0.0
124,55.0,0.0,20.0,4.0,0.0
125,43.0,1.0,20.0,5.0,0.0
126,73.0,0.0,15.0,0.0,0.0
127,73.0,14.0,15.0,1.0,0.0
128,72.0,0.0,15.0,0.0,0.0
129,72.0,9.0,15.0,1.0,0.0
130,68.0,0.0,20.0,2.0,0.0
131,63.0,0.0,20.0,3.0,0.0
132,56.0,0.0,20.0,4.0,0.0
133,44.0,1.0,20.0,5.0,0.0
134,73.0,0.0,15.0,0.0,0.0
135,73.0,14.0,15.0,1.0,0.0
136,70.0,0.0,15.0,0.0,0.0
137,70.0,9.0,15.0,1.0,0.0
138,67.0,0.0,20.0,2.0,0.0
139,63.0,3.0,30.0,3.0,0.0
140,51.0,0.0,20.0,4.0,0.0
141,39.0,3.0,20.0,5.0,0.0
142,68.0,0.0,15.0,0.0,0.0
143,68.0,7.0,15.0,1.0,0.0
144,70.0,0.0,15.0,0.0,0.0
145,70.0,11.0,15.0,1.0,0.0
146,70.0,0.0,20.0,2.0,0.0
147,55.0,0.0,20.0,4.0,0.0
148,43.0,1.0,20.0,5.0,0.0
149,73.0,0.0,15.0,0.0,0.0
150,73.0,0.0,15.0,1.0,0.0
151,65.0,12.0,15.0,3.0,0.0
152,72.0,0.0,15.0,0.0,0.0
153,72.0,0.0,15.0,1.0,0.0
154,67.0,0.0,20.0,2.0,0.0
155,63.0,11.0,15.0,3.0,0.0
156,51.0,0.0,20.0,4.0,0.0
157,39.0,1.0,20.0,5.0,0.0
158,70.0,0.0,15.0,0.0,0.0
159,70.0,0.0,15.0,1.0,0.0
160,61.0,14.0,15.0,3.0,0.0
161,68.0,0.0,15.0,0.0,0.0
162,68.0,9.0,15.0,1.0,0.0
163,63.0,0.0,20.0,2.0,0.0
164,60.0,0.0,20.0,3.0,0.0
165,44.0,0.0,20.0,4.0,0.0
166,32.0,3.0,20.0,5.0,0.0
167,70.0,0.0,15.0,0.0,0.0
168,70.0,12.0,15.0,1.0,0.0
169,72.0,0.0,15.0,0.0,0.0
170,72.0,9.0,15.0,1.0,0.0
171,75.0,0.0,20.0,2.0,0.0
172,68.0,0.0,20.0,3.0,0.0
173,56.0,0.0,20.0,4.0,0.0
174,44.0,1.0,20.0,5.0,0.0
175,75.0,0.0,15.0,0.0,0.0
176,75.0,14.0,15.0,1.0,0.0
177,80.0,0.0,15.0,0.0,0.0
178,80.0,9.0,15.0,1.0,0.0
179,75.0,0.0,20.0,2.0,0.0
180,72.0,0.0,20.0,3.0,0.0
181,55.0,0.0,20.0,4.0,0.0
182,43.0,15.0,20.0,5.0,0.0
183,80.0,0.0,15.0,0.0,0.0
184,80.0,9.0,15.0,1.0,0.0
185,77.0,0.0,20.0,2.0,0.0
186,72.0,3.0,40.0,3.0,0.0
187,53.0,0.0,20.0,4.0,0.0
188,41.0,1.0,20.0,5.0,0.0
189,79.0,0.0,15.0,0.0,0.0
190,79.0,14.0,15.0,1.0,0.0
191,82.0,0.0,15.0,0.0,0.0
192,82.0,6.0,15.0,1.0,0.0
193,72.0,0.0,20.0,2.0,0.0
194,51.0,0.0,20.0,4.0,0.0
195,39.0,1.0,20.0,5.0,0.0
196,80.0,0.0,15.0,0.0,0.0
197,80.0,14.0,15.0,1.0,0.0
198,79.0,0.0,15.0,0.0,0.0
199,79.0,9.0,15.0,1.0,0.0
200,73.0,0.0,20.0,2.0,0.0
201,70.0,0.0,20.0,3.0,0.0
202,49.0,0.0,20.0,4.0,0.0
203,37.0,1.0,20.0,5.0,0.0
204,77.0,0.0,15.0,0.0,0.0
205,77.0,14.0,15.0,1.0,0.0
206,68.0,0.0,15.0,0.0,0.0
207,68.0,9.0,15.0,1.0,0.0
208,75.0,0.0,20.0,2.0,0.0
209,68.0,0.0,20.0,3.0,0.0
210,48.0,0.0,20.0,4.0,0.0
211,36.0,3.0,20.0,5.0,0.0
212,70.0,0.0,15.0,0.0,0.0
213,70.0,12.0,15.0,1.0,0.0
214,72.0,0.0,15.0,0.0,0.0
215,72.0,9.0,15.0,1.0,0.0
216,78.0,0.0,20.0,2.0,0.0
217,63.0,0.0,20.0,3.0,0.0
218,46.0,0.0,20.0,4.0,0.0
219,34.0,1.0,20.0,5.0,0.0
220,75.0,0.0,15.0,0.0,0.0
221,75.0,14.0,15.0,1.0,0.0
222,78.0,0.0,15.0,0.0,0.0
223,78.0,9.0,15.0,1.0,0.0
224,75.0,0.0,20.0,2.0,0.0
225,60.0,0.0,20.0,3.0,0.0
226,44.0,0.0,20.0,4.0,0.0
227,32.0,24.0,20.0,5.0,0.0
228,78.0,0.0,60.0,0.0,0.0
229,78.0,0.0,60.0,1.0,0.0
230,72.0,0.0,20.0,2.0,0.0
231,56.0,6.0,60.0,3.0,0.0
232,56.0,0.0,20.0,4.0,0.0
233,44.0,24.0,20.0,5.0,0.0
234,73.0,0.0,20.0,2.0,0.0
235,58.0,0.0,20.0,4.0,0.0
236,46.0,18.0,20.0,5.0,0.0
237,75.0,0.0,20.0,2.0,0.0
238,60.0,0.0,20.0,4.0,0.0
239,48.0,15.0,20.0,5.0,0.0
240,77.0,0.0,15.0,0.0,0.0
241,77.0,9.0,15.0,1.0,0.0
242,73.0,0.0,20.0,2.0,0.0
243,68.0,0.0,20.0,3.0,0.0
244,61.0,0.0,20.0,4.0,0.0
245,49.0,3.0,20.0,5.0,0.0
246,80.0,0.0,15.0,0.0,0.0
247,80.0,12.0,15.0,1.0,0.0
248,85.0,0.0,15.0,0.0,0.0
249,85.0,9.0,15.0,1.0,0.0
250,77.0,0.0,20.0,2.0,0.0
251,70.0,0.0,20.0,3.0,0.0
252,58.0,0.0,20.0,4.0,0.0
253,46.0,3.0,20.0,5.0,0.0
254,84.0,0.0,15.0,0.0,0.0
255,84.0,12.0,15.0,1.0,0.0
256,82.0,0.0,15.0,0.0,0.0
257,82.0,9.0,15.0,1.0,0.0
258,77.0,0.0,20.0,2.0,0.0
259,70.0,0.0,20.0,3.0,0.0
260,61.0,0.0,20.0,4.0,0.0
261,49.0,1.0,20.0,5.0,0.0
262,80.0,0.0,15.0,0.0,0.0
263,80.0,14.0,15.0,1.0,0.0
264,79.0,0.0,15.0,0.0,0.0
265,79.0,9.0,15.0,1.0,0.0
266,75.0,0.0,20.0,2.0,0.0
267,70.0,0.0,20.0,3.0,0.0
268,63.0,0.0,20.0,4.0,0.0
269,51.0,1.0,20.0,5.0,0.0
270,77.0,0.0,15.0,0.0,0.0
271,77.0,14.0,15.0,1.0,0.0
272,80.0,0.0,15.0,0.0,0.0
273,80.0,9.0,15.0,1.0,0.0
274,75.0,0.0,20.0,2.0,0.0
275,70.0,0.0,20.0,3.0,0.0
276,65.0,0.0,20.0,4.0,0.0
277,53.0,1.0,20.0,5.0,0.0
278,79.0,0.0,15.0,0.0,0.0
279,79.0,14.0,15.0,1.0,0.0
280,77.0,0.0,15.0,0.0,0.0
281,77.0,9.0,15.0,1.0,0.0
282,75.0,0.0,20.0,2.0,0.0
283,70.0,0.0,20.0,3.0,0.0
284,67.0,0.0,20.0,4.0,0.0
285,55.0,1.0,20.0,5.0,0.0
286,75.0,0.0,15.0,0.0,0.0
287,75.0,14.0,15.0,1.0,0.0
288,84.0,0.0,15.0,0.0,0.0
289,84.0,9.0,15.0,1.0,0.0
290,75.0,0.0,20.0,2.0,0.0
291,68.0,0.0,20.0,3.0,0.0
292,68.0,0.0,20.0,4.0,0.0
293,56.0,15.0,20.0,5.0,0.0
294,85.0,0.0,15.0,0.0,0.0
295,85.0,9.0,15.0,1.0,0.0
296,77.0,0.0,20.0,2.0,0.0
297,68.0,0.0,20.0,3.0,0.0
298,61.0,0.0,20.0,4.0,0.0
299,49.0,9.0,20.0,5.0,0.0
300,84.0,0.0,15.0,0.0,0.0
301,84.0,6.0,15.0,1.0,0.0
302,75.0,0.0,20.0,2.0,0.0
303,67.0,0.0,20.0,3.0,0.0
304,63.0,0.0,20.0,4.0,0.0
305,51.0,2.0,20.0,5.0,0.0
306,82.0,0.0,15.0,0.0,0.0
307,82.0,6.0,15.0,1.0,0.0
308,84.0,0.0,15.0,0.0,0.0
309,84.0,3.0,15.0,1.0,0.0
310,82.0,0.0,15.0,0.0,0.0
311,82.0,22.0,15.0,1.0,0.0
312,80.0,0.0,60.0,0.0,0.0
313,80.0,0.0,60.0,1.0,0.0
314,75.0,0.0,60.0,2.0,0.0
315,72.0,6.0,60.0,3.0,0.0
316,56.0,0.0,20.0,4.0,0.0
317,44.0,24.0,20.0,5.0,0.0
318,48.0,0.0,20.0,4.0,0.0
319,36.0,18.0,20.0,5.0,0.0
320,51.0,0.0,20.0,4.0,0.0
321,39.0,15.0,20.0,5.0,0.0
322,75.0,12.0,15.0,0.0,0.0
323,44.0,0.0,40.0,4.0,0.0
324,32.0,6.0,40.0,5.0,0.0
325,73.0,12.0,15.0,0.0,0.0
326,72.0,6.0,15.0,0.0,0.0
327,80.0,12.0,15.0,0.0,0.0
328,75.0,10.0,15.0,0.0,0.0
329,73.0,14.0,15.0,0.0,0.0
330,72.0,9.0,15.0,0.0,0.0
331,56.0,0.0,20.0,4.0,0.0
332,44.0,3.0,20.0,5.0,0.0
333,70.0,12.0,15.0,0.0,0.0
334,68.0,9.0,15.0,0.0,0.0
335,60.0,0.0,20.0,4.0,0.0
336,48.0,3.0,20.0,5.0,0.0
337,75.0,12.0,15.0,0.0,0.0
338,72.0,9.0,15.0,0.0,0.0
339,56.0,0.0,20.0,4.0,0.0
340,44.0,1.0,20.0,5.0,0.0
341,70.0,14.0,15.0,0.0,0.0
342,68.0,9.0,15.0,0.0,0.0
343,53.0,0.0,20.0,4.0,0.0
344,41.0,3.0,20.0,5.0,0.0
345,70.0,12.0,15.0,0.0,0.0
346,72.0,9.0,15.0,0.0,0.0
347,56.0,0.0,20.0,4.0,0.0
348,44.0,3.0,20.0,5.0,0.0
349,75.0,12.0,15.0,0.0,0.0
350,79.0,9.0,15.0,0.0,0.0
351,53.0,0.0,20.0,4.0,0.0
352,41.0,1.0,20.0,5.0,0.0
353,80.0,14.0,15.0,0.0,0.0
354,62.0,9.0,15.0,0.0,0.0
355,58.0,0.0,20.0,4.0,0.0
356,46.0,3.0,20.0,5.0,0.0
357,70.0,12.0,15.0,0.0,0.0
358,80.0,9.0,15.0,0.0,0.0
359,62.0,0.0,20.0,4.0,0.0
360,50.0,3.0,20.0,5.0,0.0
361,84.0,12.0,15.0,0.0,0.0
362,82.0,9.0,15.0,0.0,0.0
363,58.0,0.0,20.0,4.0,0.0
364,46.0,1.0,20.0,5.0,0.0
365,80.0,14.0,15.0,0.0,0.0
366,79.0,12.0,15.0,0.0,0.0
367,51.0,0.0,40.0,4.0,0.0
368,39.0,4.0,40.0,5.0,0.0
369,77.0,10.0,15.0,0.0,0.0
370,75.0,8.0,15.0,0.0,0.0
371,87.0,12.0,15.0,0.0,0.0
372,82.0,12.0,15.0,0.0,0.0
373,80.0,12.0,15.0,0.0,0.0
374,79.0,11.0,15.0,0.0,0.0
375,63.0,0.0,20.0,4.0,0.0
376,51.0,1.0,20.0,5.0,0.0
377,77.0,12.0,15.0,0.0,0.0
378,75.0,11.0,15.0,0.0,0.0
379,67.0,0.0,20.0,4.0,0.0
380,55.0,1.0,20.0,5.0,0.0
381,82.0,12.0,15.0,0.0,0.0
382,79.0,11.0,15.0,0.0,0.0
383,63.0,0.0,20.0,4.0,0.0
384,51.0,1.0,20.0,5.0,0.0
385,77.0,14.0,15.0,0.0,0.0
386,75.0,9.0,15.0,0.0,0.0
387,60.0,0.0,20.0,4.0,0.0
388,48.0,3.0,20.0,5.0,0.0
389,77.0,12.0,15.0,0.0,0.0
390,79.0,9.0,15.0,0.0,0.0
391,63.0,0.0,20.0,4.0,0.0
392,51.0,3.0,20.0,5.0,0.0
393,82.0,12.0,15.0,0.0,0.0
394,86.0,9.0,15.0,0.0,0.0
395,60.0,0.0,20.0,4.0,0.0
396,48.0,1.0,20.0,5.0,0.0
397,87.0,14.0,15.0,0.0,0.0
398,69.0,9.0,15.0,0.0,0.0
399,53.0,0.0,20.0,4.0,0.0
400,41.0,3.0,20.0,5.0,0.0
401,77.0,12.0,15.0,0.0,0.0
402,84.0,9.0,15.0,0.0,0.0
403,57.0,0.0,20.0,4.0,0.0
404,45.0,3.0,20.0,5.0,0.0
405,87.0,12.0,15.0,0.0,0.0
406,86.0,9.0,15.0,0.0,0.0
407,53.0,0.0,20.0,4.0,0.0
408,41.0,1.0,20.0,5.0,0.0
409,84.0,14.0,15.0,0.0,0.0
410,86.0,12.0,15.0,0.0,0.0
411,58.0,0.0,40.0,4.0,0.0
412,46.0,4.0,40.0,5.0,0.0
413,87.0,10.0,15.0,0.0,0.0
414,89.0,8.0,15.0,0.0,0.0
415,86.0,12.0,15.0,0.0,0.0
416,82.0,12.0,15.0,0.0,0.0
417,80.0,12.0,15.0,0.0,0.0
418,79.0,11.0,15.0,0.0,0.0
419,51.0,0.0,20.0,4.0,0.0
420,39.0,1.0,20.0,5.0,0.0
421,75.0,12.0,15.0,0.0,0.0
422,79.0,11.0,15.0,0.0,0.0
423,53.0,0.0,20.0,4.0,0.0
424,41.0,1.0,20.0,5.0,0.0
425,82.0,12.0,15.0,0.0,0.0
426,87.0,11.0,15.0,0.0,0.0
427,55.0,0.0,20.0,4.0,0.0
428,43.0,1.0,20.0,5.0,0.0
429,82.0,14.0,15.0,0.0,0.0
430,84.0,12.0,15.0,0.0,0.0
431,56.0,0.0,40.0,4.0,0.0
432,44.0,6.0,40.0,5.0,0.0
433,85.0,12.0,15.0,0.0,0.0
434,87.0,6.0,15.0,0.0,0.0
435,84.0,12.0,15.0,0.0,0.0
436,80.0,10.0,15.0,0.0,0.0
437,79.0,12.0,15.0,0.0,0.0
438,77.0,11.0,15.0,0.0,0.0
439,56.0,0.0,20.0,4.0,0.0
440,44.0,1.0,20.0,5.0,0.0
441,79.0,12.0,15.0,0.0,0.0
442,80.0,11.0,15.0,0.0,0.0
443,53.0,0.0,20.0,4.0,0.0
444,41.0,1.0,20.0,5.0,0.0
445,77.0,12.0,15.0,0.0,0.0
446,74.0,11.0,15.0,0.0,0.0
447,56.0,0.0,20.0,4.0,0.0
448,44.0,1.0,20.0,5.0,0.0
449,72.0,14.0,15.0,0.0,0.0
450,70.0,9.0,15.0,0.0,0.0
451,50.0,0.0,20.0,4.0,0.0
452,38.0,3.0,20.0,5.0,0.0
453,72.0,12.0,15.0,0.0,0.0
454,74.0,9.0,15.0,0.0,0.0
455,65.0,0.0,20.0,4.0,0.0
456,53.0,3.0,20.0,5.0,0.0
457,75.0,12.0,15.0,0.0,0.0
458,77.0,9.0,15.0,0.0,0.0
459,63.0,0.0,20.0,4.0,0.0
460,51.0,3.0,20.0,5.0,0.0
461,79.0,12.0,15.0,0.0,0.0
462,80.0,9.0,15.0,0.0,0.0
463,62.0,0.0,20.0,4.0,0.0
464,50.0,3.0,20.0,5.0,0.0
465,82.0,10.0,15.0,0.0,0.0
466,84.0,11.0,15.0,0.0,0.0
467,58.0,0.0,20.0,4.0,0.0
468,46.0,3.0,20.0,5.0,0.0
469,86.0,12.0,15.0,0.0,0.0
470,87.0,9.0,15.0,0.0,0.0
471,56.0,0.0,20.0,4.0,0.0
472,44.0,1.0,20.0,5.0,0.0
473,86.0,12.0,15.0,0.0,0.0
474,87.0,11.0,15.0,0.0,0.0
475,55.0,0.0,20.0,4.0,0.0
476,43.0,3.0,20.0,5.0,0.0
477,82.0,12.0,15.0,0.0,0.0
478,79.0,9.0,15.0,0.0,0.0
479,56.0,0.0,20.0,4.0,0.0
480,44.0,3.0,20.0,5.0,0.0
481,75.0,12.0,15.0,0.0,0.0
482,70.0,9.0,15.0,0.0,0.0
483,58.0,0.0,20.0,4.0,0.0
484,46.0,1.0,20.0,5.0,0.0
485,74.0,12.0,15.0,0.0,0.0
486,75.0,11.0,15.0,0.0,0.0
487,51.0,0.0,20.0,4.0,0.0
488,39.0,1.0,20.0,5.0,0.0
489,70.0,12.0,15.0,0.0,0.0
490,67.0,0.0,15.0,0.0,0.0
491,63.0,0.0,15.0,4.0,0.0
492,51.0,12.0,15.0,5.0,0.0
493,70.0,0.0,15.0,0.0,0.0
494,61.0,0.0,15.0,4.0,0.0
495,49.0,12.0,15.0,5.0,0.0
496,63.0,1.0,20.0,0.0,0.0
497,60.0,0.0,15.0,4.0,0.0
498,48.0,11.0,15.0,5.0,0.0
499,58.0,0.0,15.0,4.0,0.0
500,46.0,14.0,15.0,5.0,0.0
501,68.0,0.0,15.0,0.0,0.0
502,68.0,12.0,15.0,1.0,0.0
503,72.0,0.0,40.0,2.0,0.0
504,63.0,0.0,40.0,3.0,0.0
505,56.0,0.0,40.0,4.0,0.0
506,44.0,4.0,40.0,5.0,0.0
507,70.0,0.0,15.0,0.0,0.0
508,70.0,12.0,15.0,1.0,0.0
509,72.0,0.0,15.0,0.0,0.0
510,72.0,6.0,15.0,1.0,0.0
511,75.0,0.0,15.0,0.0,0.0
512,75.0,14.0,15.0,1.0,0.0
513,80.0,0.0,15.0,0.0,0.0
514,80.0,24.0,15.0,1.0,0.0
515,80.0,0.0,15.0,0.0,0.0
516,80.0,9.0,15.0,1.0,0.0
517,75.0,0.0,20.0,2.0,0.0
518,63.0,0.0,20.0,3.0,0.0
519,60.0,0.0,20.0,4.0,0.0
520,48.0,1.0,20.0,5.0,0.0
521,79.0,0.0,15.0,0.0,0.0
522,79.0,14.0,15.0,1.0,0.0
523,82.0,0.0,15.0,0.0,0.0
524,82.0,9.0,15.0,1.0,0.0
525,73.0,0.0,20.0,2.0,0.0
526,67.0,0.0,20.0,3.0,0.0
527,58.0,0.0,20.0,4.0,0.0
528,46.0,1.0,20.0,5.0,0.0
529,80.0,0.0,15.0,0.0,0.0
530,80.0,14.0,15.0,1.0,0.0
531,79.0,0.0,15.0,0.0,0.0
532,79.0,9.0,15.0,1.0,0.0
533,75.0,0.0,20.0,2.0,0.0
534,72.0,0.0,20.0,3.0,0.0
535,56.0,0.0,20.0,4.0,0.0
536,44.0,1.0,20.0,5.0,0.0
537,77.0,0.0,15.0,0.0,0.0
538,77.0,14.0,15.0,1.0,0.0
539,75.0,0.0,15.0,0.0,0.0
540,75.0,12.0,15.0,1.0,0.0
541,75.0,0.0,40.0,2.0,0.0
542,70.0,0.0,40.0,3.0,0.0
543,55.0,0.0,40.0,4.0,0.0
544,43.0,4.0,40.0,5.0,0.0
545,77.0,0.0,15.0,0.0,0.0
546,77.0,12.0,15.0,1.0,0.0
547,79.0,0.0,15.0,0.0,0.0
548,79.0,6.0,15.0,1.0,0.0
549,82.0,0.0,15.0,0.0,0.0
550,82.0,14.0,15.0,1.0,0.0
551,85.0,0.0,15.0,0.0,0.0
552,85.0,33.0,15.0,1.0,0.0
553,85.0,0.0,60.0,0.0,0.0
554,85.0,6.0,60.0,1.0,0.0
555,75.0,0.0,20.0,2.0,0.0
556,70.0,0.0,20.0,3.0,0.0
557,55.0,0.0,20.0,4.0,0.0
558,43.0,24.0,20.0,5.0,0.0
559,77.0,0.0,20.0,2.0,0.0
560,68.0,0.0,20.0,3.0,0.0
561,53.0,0.0,20.0,4.0,0.0
562,41.0,18.0,20.0,5.0,0.0
563,79.0,0.0,20.0,2.0,0.0
564,70.0,0.0,20.0,3.0,0.0
565,51.0,0.0,20.0,4.0,0.0
566,39.0,15.0,20.0,5.0,0.0
567,84.0,0.0,15.0,0.0,0.0
568,84.0,9.0,15.0,1.0,0.0
569,80.0,0.0,20.0,2.0,0.0
570,63.0,3.0,40.0,3.0,0.0
571,56.0,0.0,20.0,4.0,0.0
572,44.0,1.0,20.0,5.0,0.0
573,82.0,0.0,15.0,0.0,0.0
574,82.0,14.0,15.0,1.0,0.0
575,85.0,0.0,15.0,0.0,0.0
576,85.0,6.0,15.0,1.0,0.0
577,75.0,0.0,20.0,2.0,0.0
578,55.0,0.0,20.0,4.0,0.0
579,43.0,1.0,20.0,5.0,0.0
580,84.0,0.0,15.0,0.0,0.0
581,84.0,14.0,15.0,1.0,0.0
582,82.0,0.0,15.0,0.0,0.0
583,82.0,9.0,15.0,1.0,0.0
584,74.0,0.0,20.0,2.0,0.0
585,67.0,0.0,20.0,3.0,0.0
586,53.0,0.0,20.0,4.0,0.0
587,41.0,1.0,20.0,5.0,0.0
588,80.0,0.0,15.0,0.0,0.0
589,80.0,14.0,15.0,1.0,0.0
590,79.0,0.0,15.0,0.0,0.0
591,79.0,9.0,15.0,1.0,0.0
592,75.0,0.0,20.0,2.0,0.0
593,70.0,3.0,40.0,3.0,0.0
594,51.0,0.0,20.0,4.0,0.0
595,39.0,1.0,20.0,5.0,0.0
596,77.0,0.0,15.0,0.0,0.0
597,77.0,14.0,15.0,1.0,0.0
598,80.0,0.0,15.0,0.0,0.0
599,80.0,6.0,15.0,1.0,0.0
600,70.0,0.0,20.0,2.0,0.0
601,49.0,0.0,20.0,4.0,0.0
602,37.0,1.0,20.0,5.0,0.0
603,79.0,0.0,15.0,0.0,0.0
604,79.0,14.0,15.0,1.0,0.0
605,77.0,0.0,15.0,0.0,0.0
606,77.0,9.0,15.0,1.0,0.0
607,72.0,0.0,20.0,2.0,0.0
608,68.0,0.0,20.0,3.0,0.0
609,48.0,0.0,20.0,4.0,0.0
610,36.0,1.0,20.0,5.0,0.0
611,75.0,0.0,15.0,0.0,0.0
612,75.0,14.0,15.0,1.0,0.0
613,73.0,0.0,15.0,0.0,0.0
614,73.0,9.0,15.0,1.0,0.0
615,73.0,0.0,20.0,2.0,0.0
616,67.0,0.0,20.0,3.0,0.0
617,46.0,0.0,20.0,4.0,0.0
618,34.0,1.0,20.0,5.0,0.0
619,72.0,0.0,15.0,0.0,0.0
620,72.0,14.0,15.0,1.0,0.0
621,75.0,0.0,15.0,0.0,0.0
622,75.0,9.0,15.0,1.0,0.0
623,70.0,0.0,20.0,2.0,0.0
624,70.0,0.0,20.0,3.0,0.0
625,55.0,0.0,20.0,4.0,0.0
626,43.0,1.0,20.0,5.0,0.0
627,73.0,0.0,15.0,0.0,0.0
628,73.0,14.0,15.0,1.0,0.0
629,72.0,0.0,15.0,0.0,0.0
630,72.0,9.0,15.0,1.0,0.0
631,68.0,0.0,20.0,2.0,0.0
632,63.0,0.0,20.0,3.0,0.0
633,56.0,0.0,20.0,4.0,0.0
634,44.0,1.0,20.0,5.0,0.0
635,73.0,0.0,15.0,0.0,0.0
636,73.0,14.0,15.0,1.0,0.0
637,70.0,0.0,15.0,0.0,0.0
638,70.0,9.0,15.0,1.0,0.0
639,67.0,0.0,20.0,2.0,0.0
640,63.0,3.0,30.0,3.0,0.0
641,51.0,0.0,20.0,4.0,0.0
642,39.0,3.0,20.0,5.0,0.0
643,68.0,0.0,15.0,0.0,0.0
644,68.0,7.0,15.0,1.0,0.0
645,70.0,0.0,15.0,0.0,0.0
646,70.0,11.0,15.0,1.0,0.0
647,70.0,0.0,20.0,2.0,0.0
648,55.0,0.0,20.0,4.0,0.0
649,43.0,1.0,20.0,5.0,0.0
650,73.0,0.0,15.0,0.0,0.0
651,73.0,0.0,15.0,1.0,0.0
652,65.0,12.0,15.0,3.0,0.0
653,72.0,0.0,15.0,0.0,0.0
654,72.0,0.0,15.0,1.0,0.0
655,67.0,0.0,20.0,2.0,0.0
656,63.0,11.0,15.0,3.0,0.0
657,51.0,0.0,20.0,4.0,0.0
658,39.0,1.0,20.0,5.0,0.0
659,70.0,0.0,15.0,0.0,0.0
660,70.0,0.0,15.0,1.0,0.0
661,61.0,14.0,15.0,3.0,0.0
662,68.0,0.0,15.0,0.0,0.0
663,68.0,9.0,15.0,1.0,0.0
664,63.0,0.0,20.0,2.0,0.0
665,60.0,0.0,20.0,3.0,0.0
666,44.0,0.0,20.0,4.0,0.0
667,32.0,3.0,20.0,5.0,0.0
668,70.0,0.0,15.0,0.0,0.0
669,70.0,12.0,15.0,1.0,0.0
670,72.0,0.0,15.0,0.0,0.0
671,72.0,9.0,15.0,1.0,0.0
672,75.0,0.0,20.0,2.0,0.0
673,68.0,0.0,20.0,3.0,0.0
674,56.0,0.0,20.0,4.0,0.0
675,44.0,1.0,20.0,5.0,0.0
676,75.0,0.0,15.0,0.0,0.0
677,75.0,14.0,15.0,1.0,0.0
678,80.0,0.0,15.0,0.0,0.0
679,80.0,9.0,15.0,1.0,0.0
680,75.0,0.0,20.0,2.0,0.0
681,72.0,0.0,20.0,3.0,0.0
682,55.0,0.0,20.0,4.0,0.0
683,43.0,15.0,20.0,5.0,0.0
684,80.0,0.0,15.0,0.0,0.0
685,80.0,9.0,15.0,1.0,0.0
686,77.0,0.0,20.0,2.0,0.0
687,72.0,3.0,40.0,3.0,0.0
688,53.0,0.0,20.0,4.0,0.0
689,41.0,1.0,20.0,5.0,0.0
690,79.0,0.0,15.0,0.0,0.0
691,79.0,14.0,15.0,1.0,0.0
692,82.0,0.0,15.0,0.0,0.0
693,82.0,6.0,15.0,1.0,0.0
694,72.0,0.0,20.0,2.0,0.0
695,51.0,0.0,20.0,4.0,0.0
696,39.0,1.0,20.0,5.0,0.0
697,80.0,0.0,15.0,0.0,0.0
698,80.0,14.0,15.0,1.0,0.0
699,79.0,0.0,15.0,0.0,0.0
700,79.0,9.0,15.0,1.0,0.0
701,73.0,0.0,20.0,2.0,0.0
702,70.0,0.0,20.0,3.0,0.0
703,49.0,0.0,20.0,4.0,0.0
704,37.0,1.0,20.0,5.0,0.0
705,77.0,0.0,15.0,0.0,0.0
706,77.0,14.0,15.0,1.0,0.0
707,68.0,0.0,15.0,0.0,0.0
708,68.0,9.0,15.0,1.0,0.0
709,75.0,0.0,20.0,2.0,0.0
710,68.0,0.0,20.0,3.0,0.0
711,48.0,0.0,20.0,4.0,0.0
712,36.0,3.0,20.0,5.0,0.0
713,70.0,0.0,15.0,0.0,0.0
714,70.0,12.0,15.0,1.0,0.0
715,72.0,0.0,15.0,0.0,0.0
716,72.0,9.0,15.0,1.0,0.0
717,78.0,0.0,20.0,2.0,0.0
718,63.0,0.0,20.0,3.0,0.0
719,46.0,0.0,20.0,4.0,0.0
720,34.0,1.0,20.0,5.0,0.0
721,75.0,0.0,15.0,0.0,0.0
722,75.0,14.0,15.0,1.0,0.0
723,78.0,0.0,15.0,0.0,0.0
724,78.0,9.0,15.0,1.0,0.0
725,75.0,0.0,20.0,2.0,0.0
726,60.0,0.0,20.0,3.0,0.0
727,44.0,0.0,20.0,4.0,0.0
728,32.0,24.0,20.0,5.0,0.0
729,78.0,0.0,60.0,0.0,0.0
730,78.0,0.0,60.0,1.0,0.0
731,72.0,0.0,20.0,2.0,0.0
732,56.0,6.0,60.0,3.0,0.0
733,56.0,0.0,20.0,4.0,0.0
734,44.0,24.0,20.0,5.0,0.0
735,73.0,0.0,20.0,2.0,0.0
736,58.0,0.0,20.0,4.0,0.0
737,46.0,18.0,20.0,5.0,0.0
738,75.0,0.0,20.0,2.0,0.0
739,60.0,0.0,20.0,4.0,0.0
740,48.0,15.0,20.0,5.0,0.0
741,77.0,0.0,15.0,0.0,0.0
742,77.0,9.0,15.0,1.0,0.0
743,73.0,0.0,20.0,2.0,0.0
744,68.0,0.0,20.0,3.0,0.0
745,61.0,0.0,20.0,4.0,0.0
746,49.0,3.0,20.0,5.0,0.0
747,80.0,0.0,15.0,0.0,0.0
748,80.0,12.0,15.0,1.0,0.0
749,85.0,0.0,15.0,0.0,0.0
750,85.0,9.0,15.0,1.0,0.0
751,77.0,0.0,20.0,2.0,0.0
752,70.0,0.0,20.0,3.0,0.0
753,58.0,0.0,20.0,4.0,0.0
754,46.0,3.0,20.0,5.0,0.0
755,84.0,0.0,15.0,0.0,0.0
756,84.0,12.0,15.0,1.0,0.0
757,82.0,0.0,15.0,0.0,0.0
758,82.0,9.0,15.0,1.0,0.0
759,77.0,0.0,20.0,2.0,0.0
760,70.0,0.0,20.0,3.0,0.0
761,61.0,0.0,20.0,4.0,0.0
762,49.0,1.0,20.0,5.0,0.0
763,80.0,0.0,15.0,0.0,0.0
764,80.0,14.0,15.0,1.0,0.0
765,79.0,0.0,15.0,0.0,0.0
766,79.0,9.0,15.0,1.0,0.0
767,75.0,0.0,20.0,2.0,0.0
768,70.0,0.0,20.0,3.0,0.0
769,63.0,0.0,20.0,4.0,0.0
770,51.0,1.0,20.0,5.0,0.0
771,77.0,0.0,15.0,0.0,0.0
772,77.0,14.0,15.0,1.0,0.0
773,80.0,0.0,15.0,0.0,0.0
774,80.0,9.0,15.0,1.0,0.0
775,75.0,0.0,20.0,2.0,0.0
776,70.0,0.0,20.0,3.0,0.0
777,65.0,0.0,20.0,4.0,0.0
778,53.0,1.0,20.0,5.0,0.0
779,79.0,0.0,15.0,0.0,0.0
780,79.0,14.0,15.0,1.0,0.0
781,77.0,0.0,15.0,0.0,0.0
782,77.0,9.0,15.0,1.0,0.0
783,75.0,0.0,20.0,2.0,0.0
784,70.0,0.0,20.0,3.0,0.0
785,67.0,0.0,20.0,4.0,0.0
786,55.0,1.0,20.0,5.0,0.0
787,75.0,0.0,15.0,0.0,0.0
788,75.0,14.0,15.0,1.0,0.0
789,84.0,0.0,15.0,0.0,0.0
790,84.0,9.0,15.0,1.0,0.0
791,75.0,0.0,20.0,2.0,0.0
792,68.0,0.0,20.0,3.0,0.0
793,68.0,0.0,20.0,4.0,0.0
794,56.0,15.0,20.0,5.0,0.0
795,85.0,0.0,15.0,0.0,0.0
796,85.0,9.0,15.0,1.0,0.0
797,77.0,0.0,20.0,2.0,0.0
798,68.0,0.0,20.0,3.0,0.0
799,61.0,0.0,20.0,4.0,0.0
800,49.0,9.0,20.0,5.0,0.0
801,84.0,0.0,15.0,0.0,0.0
802,84.0,6.0,15.0,1.0,0.0
803,75.0,0.0,20.0,2.0,0.0
804,67.0,0.0,20.0,3.0,0.0
805,63.0,0.0,20.0,4.0,0.0
806,51.0,2.0,20.0,5.0,0.0
807,82.0,0.0,15.0,0.0,0.0
808,82.0,6.0,15.0,1.0,0.0
809,84.0,0.0,15.0,0.0,0.0
810,84.0,3.0,15.0,1.0,0.0
811,82.0,0.0,15.0,0.0,0.0
812,82.0,22.0,15.0,1.0,0.0
813,80.0,0.0,60.0,0.0,0.0
814,80.0,0.0,60.0,1.0,0.0
815,72.0,0.0,60.0,2.0,0.0
816,63.0,6.0,60.0,3.0,0.0
817,56.0,0.0,20.0,4.0,0.0
818,44.0,24.0,20.0,5.0,0.0
819,58.0,0.0,20.0,4.0,0.0
820,46.0,18.0,20.0,5.0,0.0
821,60.0,0.0,20.0,4.0,0.0
822,48.0,15.0,20.0,5.0,0.0
823,84.0,12.0,15.0,0.0,0.0
824,77.0,0.0,20.0,1.0,0.0
825,68.0,0.0,20.0,2.0,0.0
826,65.0,12.0,20.0,3.0,0.0
827,53.0,0.0,40.0,4.0,0.0
828,41.0,4.0,40.0,5.0,0.0
829,82.0,0.0,15.0,0.0,0.0
830,80.0,6.0,15.0,0.0,0.0
831,77.0,0.0,20.0,1.0,0.0
832,68.0,0.0,20.0,2.0,0.0
833,65.0,10.0,20.0,3.0,0.0
834,85.0,2.0,15.0,0.0,0.0
835,84.0,11.0,15.0,0.0,0.0
836,77.0,0.0,20.0,1.0,0.0
837,68.0,0.0,20.0,2.0,0.0
838,65.0,1.0,20.0,3.0,0.0
839,82.0,14.0,15.0,0.0,0.0
840,80.0,12.0,15.0,0.0,0.0
841,77.0,0.0,20.0,1.0,0.0
842,72.0,0.0,20.0,2.0,0.0
843,68.0,12.0,20.0,3.0,0.0
844,79.0,0.0,15.0,0.0,0.0
845,77.0,10.0,15.0,0.0,0.0
846,77.0,0.0,20.0,1.0,0.0
847,72.0,0.0,20.0,2.0,0.0
848,68.0,10.0,20.0,3.0,0.0
849,76.0,2.0,15.0,0.0,0.0
850,77.0,11.0,15.0,0.0,0.0
851,77.0,0.0,20.0,1.0,0.0
852,72.0,0.0,20.0,2.0,0.0
853,68.0,1.0,20.0,3.0,0.0
854,80.0,14.0,15.0,0.0,0.0
855,79.0,9.0,15.0,0.0,0.0
856,77.0,0.0,20.0,1.0,0.0
857,73.0,12.0,20.0,2.0,0.0
858,70.0,3.0,20.0,3.0,0.0
859,80.0,0.0,15.0,0.0,0.0
860,82.0,9.0,15.0,0.0,0.0
861,77.0,0.0,20.0,1.0,0.0
862,73.0,10.0,20.0,2.0,0.0
863,70.0,1.0,20.0,3.0,0.0
864,85.0,2.0,15.0,0.0,0.0
865,82.0,11.0,15.0,0.0,0.0
866,82.0,0.0,20.0,1.0,0.0
867,73.0,0.0,20.0,2.0,0.0
868,70.0,1.0,20.0,3.0,0.0
869,79.0,14.0,15.0,0.0,0.0
870,76.0,12.0,15.0,0.0,0.0
871,79.0,0.0,20.0,1.0,0.0
872,72.0,0.0,20.0,2.0,0.0
873,72.0,12.0,20.0,3.0,0.0
874,77.0,0.0,15.0,0.0,0.0
875,79.0,10.0,15.0,0.0,0.0
876,79.0,0.0,20.0,1.0,0.0
877,76.0,0.0,20.0,2.0,0.0
878,72.0,10.0,20.0,3.0,0.0
879,76.0,2.0,15.0,0.0,0.0
880,72.0,11.0,15.0,0.0,0.0
881,79.0,0.0,20.0,1.0,0.0
882,76.0,0.0,20.0,2.0,0.0
883,72.0,1.0,20.0,3.0,0.0
884,70.0,14.0,15.0,0.0,0.0
885,68.0,9.0,15.0,0.0,0.0
886,80.0,0.0,120.0,1.0,0.0
887,77.0,4.0,120.0,2.0,0.0
888,65.0,3.0,20.0,3.0,0.0
889,72.0,12.0,15.0,0.0,0.0
890,77.0,9.0,15.0,0.0,0.0
891,68.0,1.0,20.0,3.0,0.0
892,79.0,12.0,15.0,0.0,0.0
893,80.0,11.0,15.0,0.0,0.0
894,72.0,1.0,20.0,3.0,0.0
895,77.0,14.0,15.0,0.0,0.0
896,73.0,9.0,15.0,0.0,0.0
897,70.0,3.0,20.0,3.0,0.0
898,75.0,12.0,15.0,0.0,0.0
899,77.0,9.0,15.0,0.0,0.0
900,73.0,1.0,20.0,3.0,0.0
901,73.0,8.0,15.0,0.0,0.0
902,70.0,11.0,15.0,0.0,0.0
903,77.0,1.0,20.0,3.0,0.0
904,68.0,14.0,15.0,0.0,0.0
905,67.0,9.0,15.0,0.0,0.0
906,79.0,6.0,60.0,1.0,0.0
907,75.0,3.0,120.0,2.0,0.0
908,63.0,3.0,20.0,3.0,0.0
909,70.0,12.0,15.0,0.0,0.0
910,75.0,9.0,15.0,0.0,0.0
911,67.0,1.0,20.0,3.0,0.0
912,77.0,12.0,15.0,0.0,0.0
913,79.0,5.0,15.0,0.0,0.0
914,70.0,1.0,20.0,3.0,0.0
915,75.0,14.0,15.0,0.0,0.0
916,72.0,9.0,15.0,0.0,0.0
917,80.0,6.0,60.0,1.0,0.0
918,68.0,3.0,20.0,3.0,0.0
919,73.0,9.0,15.0,0.0,0.0
920,75.0,9.0,15.0,0.0,0.0
921,72.0,1.0,20.0,3.0,0.0
922,72.0,12.0,15.0,0.0,0.0
923,68.0,5.0,15.0,0.0,0.0
924,72.0,0.0,20.0,2.0,0.0
925,75.0,1.0,20.0,3.0,0.0
926,67.0,12.0,15.0,0.0,0.0
927,65.0,14.0,15.0,0.0,0.0
928,80.0,0.0,20.0,1.0,0.0
929,72.0,0.0,20.0,2.0,0.0
930,65.0,12.0,20.0,3.0,0.0
931,68.0,0.0,15.0,0.0,0.0
932,72.0,12.0,15.0,0.0,0.0
933,80.0,0.0,20.0,1.0,0.0
934,72.0,0.0,20.0,2.0,0.0
935,65.0,12.0,20.0,3.0,0.0
936,77.0,0.0,15.0,0.0,0.0
937,79.0,9.0,15.0,0.0,0.0
938,80.0,0.0,20.0,1.0,0.0
939,72.0,0.0,20.0,2.0,0.0
940,65.0,1.0,20.0,3.0,0.0
941,80.0,12.0,15.0,0.0,0.0
942,64.0,14.0,15.0,0.0,0.0
943,79.0,0.0,20.0,1.0,0.0
944,72.0,0.0,20.0,2.0,0.0
945,64.0,12.0,20.0,3.0,0.0
946,67.0,0.0,15.0,0.0,0.0
947,72.0,12.0,15.0,0.0,0.0
948,79.0,0.0,20.0,1.0,0.0
949,72.0,0.0,20.0,2.0,0.0
950,64.0,12.0,20.0,3.0,0.0
951,79.0,0.0,15.0,0.0,0.0
952,80.0,9.0,15.0,0.0,0.0
953,79.0,0.0,20.0,1.0,0.0
954,72.0,0.0,20.0,2.0,0.0
955,64.0,1.0,20.0,3.0,0.0
956,82.0,12.0,15.0,0.0,0.0
957,65.0,14.0,15.0,0.0,0.0
958,80.0,0.0,20.0,1.0,0.0
959,72.0,0.0,20.0,2.0,0.0
960,65.0,12.0,20.0,3.0,0.0
961,72.0,0.0,15.0,0.0,0.0
962,77.0,12.0,15.0,0.0,0.0
963,80.0,0.0,20.0,1.0,0.0
964,72.0,0.0,20.0,2.0,0.0
965,65.0,12.0,20.0,3.0,0.0
966,80.0,0.0,15.0,0.0,0.0
967,82.0,9.0,15.0,0.0,0.0
968,80.0,0.0,20.0,1.0,0.0
969,72.0,0.0,20.0,2.0,0.0
970,65.0,1.0,20.0,3.0,0.0
971,84.0,12.0,15.0,0.0,0.0
972,67.0,14.0,15.0,0.0,0.0
973,82.0,0.0,20.0,1.0,0.0
974,76.0,0.0,20.0,2.0,0.0
975,67.0,12.0,20.0,3.0,0.0
976,70.0,0.0,15.0,0.0,0.0
977,76.0,12.0,15.0,0.0,0.0
978,82.0,0.0,20.0,1.0,0.0
979,76.0,0.0,20.0,2.0,0.0
980,67.0,12.0,20.0,3.0,0.0
981,79.0,0.0,15.0,0.0,0.0
982,82.0,9.0,15.0,0.0,0.0
983,82.0,0.0,20.0,1.0,0.0
984,76.0,0.0,20.0,2.0,0.0
985,67.0,1.0,20.0,3.0,0.0
986,85.0,12.0,15.0,0.0,0.0
987,84.0,12.0,15.0,0.0,0.0
988,84.0,0.0,20.0,1.0,0.0
989,77.0,0.0,20.0,2.0,0.0
990,68.0,10.0,20.0,3.0,0.0
991,82.0,2.0,15.0,0.0,0.0
992,80.0,12.0,15.0,0.0,0.0
993,84.0,0.0,20.0,1.0,0.0
994,77.0,0.0,20.0,2.0,0.0
995,68.0,10.0,20.0,3.0,0.0
996,79.0,2.0,15.0,0.0,0.0
997,77.0,11.0,15.0,0.0,0.0
998,84.0,0.0,40.0,1.0,0.0
999,77.0,6.0,40.0,2.0,0.0
1000,68.0,1.0,20.0,3.0,0.0
1001,75.0,12.0,15.0,0.0,0.0
1002,73.0,8.0,15.0,0.0,0.0
1003,70.0,12.0,20.0,3.0,0.0
1004,84.0,0.0,15.0,0.0,0.0
1005,82.0,0.0,15.0,0.0,0.0
1006,85.0,0.0,15.0,1.0,0.0
1007,77.0,10.0,15.0,2.0,0.0
1008,70.0,12.0,20.0,3.0,0.0
1009,80.0,0.0,15.0,0.0,0.0
1010,84.0,0.0,15.0,1.0,0.0
1011,75.0,2.0,15.0,2.0,0.0
1012,79.0,9.0,15.0,0.0,0.0
1013,82.0,3.0,30.0,1.0,0.0
1014,73.0,0.0,20.0,2.0,0.0
1015,70.0,1.0,20.0,3.0,0.0
1016,77.0,9.0,15.0,0.0,0.0
1017,76.0,11.0,15.0,0.0,0.0
1018,72.0,1.0,20.0,2.0,0.0
1019,72.0,10.0,20.0,3.0,0.0
1020,82.0,0.0,15.0,0.0,0.0
1021,85.0,2.0,15.0,1.0,0.0
1022,80.0,11.0,15.0,0.0,0.0
1023,84.0,0.0,20.0,1.0,0.0
1024,72.0,1.0,20.0,2.0,0.0
1025,72.0,6.0,20.0,3.0,0.0
1026,79.0,2.0,15.0,0.0,0.0
1027,77.0,2.0,15.0,0.0,0.0
1028,79.0,4.0,15.0,1.0,0.0
1029,70.0,0.0,20.0,2.0,0.0
1030,72.0,1.0,20.0,3.0,0.0
1031,80.0,4.0,15.0,1.0,0.0
1032,76.0,1.0,15.0,0.0,0.0
1033,79.0,4.0,15.0,1.0,0.0
1034,80.0,1.0,15.0,1.0,0.0
1035,79.0,11.0,15.0,1.0,0.0
1036,77.0,14.0,15.0,0.0,0.0
1037,77.0,0.0,60.0,1.0,0.0
1038,68.0,0.0,60.0,2.0,0.0
1039,65.0,6.0,60.0,3.0,0.0
1040,72.0,12.0,15.0,0.0,0.0
1041,70.0,9.0,15.0,0.0,0.0
1042,53.0,0.0,20.0,4.0,0.0
1043,41.0,3.0,20.0,5.0,0.0
1044,68.0,12.0,15.0,0.0,0.0
1045,67.0,3.0,15.0,0.0,0.0
1046,55.0,0.0,20.0,4.0,0.0
1047,43.0,1.0,20.0,5.0,0.0
1048,65.0,14.0,15.0,0.0,0.0
1049,68.0,0.0,15.0,0.0,0.0
1050,68.0,12.0,15.0,1.0,0.0
1051,72.0,0.0,40.0,2.0,0.0
1052,63.0,0.0,40.0,3.0,0.0
1053,56.0,0.0,40.0,4.0,0.0
1054,44.0,4.0,40.0,5.0,0.0
1055,70.0,0.0,15.0,0.0,0.0
1056,70.0,12.0,15.0,1.0,0.0
1057,72.0,0.0,15.0,0.0,0.0
1058,72.0,6.0,15.0,1.0,0.0
1059,75.0,0.0,15.0,0.0,0.0
1060,75.0,14.0,15.0,1.0,0.0
1061,80.0,0.0,15.0,0.0,0.0
1062,80.0,24.0,15.0,1.0,0.0
1063,80.0,0.0,15.0,0.0,0.0
1064,80.0,9.0,15.0,1.0,0.0
1065,75.0,0.0,20.0,2.0,0.0
1066,63.0,0.0,20.0,3.0,0.0
1067,60.0,0.0,20.0,4.0,0.0
1068,48.0,1.0,20.0,5.0,0.0
1069,79.0,0.0,15.0,0.0,0.0
1070,79.0,14.0,15.0,1.0,0.0
1071,82.0,0.0,15.0,0.0,0.0
1072,82.0,9.0,15.0,1.0,0.0
1073,73.0,0.0,20.0,2.0,0.0
1074,67.0,0.0,20.0,3.0,0.0
1075,58.0,0.0,20.0,4.0,0.0
1076,46.0,1.0,20.0,5.0,0.0
1077,80.0,0.0,15.0,0.0,0.0
1078,80.0,14.0,15.0,1.0,0.0
1079,79.0,0.0,15.0,0.0,0.0
1080,79.0,9.0,15.0,1.0,0.0
1081,75.0,0.0,20.0,2.0,0.0
1082,72.0,0.0,20.0,3.0,0.0
1083,56.0,0.0,20.0,4.0,0.0
1084,44.0,1.0,20.0,5.0,0.0
1085,77.0,0.0,15.0,0.0,0.0
1086,77.0,14.0,15.0,1.0,0.0
1087,75.0,0.0,15.0,0.0,0.0
1088,75.0,12.0,15.0,1.0,0.0
1089,75.0,0.0,40.0,2.0,0.0
1090,70.0,0.0,40.0,3.0,0.0
1091,55.0,0.0,40.0,4.0,0.0
1092,43.0,4.0,40.0,5.0,0.0
1093,77.0,0.0,15.0,0.0,0.0
1094,77.0,12.0,15.0,1.0,0.0
1095,79.0,0.0,15.0,0.0,0.0
1096,79.0,6.0,15.0,1.0,0.0
1097,82.0,0.0,15.0,0.0,0.0
1098,82.0,14.0,15.0,1.0,0.0
1099,85.0,0.0,15.0,0.0,0.0
1100,85.0,33.0,15.0,1.0,0.0
1101,85.0,0.0,60.0,0.0,0.0
1102,85.0,6.0,60.0,1.0,0.0
1103,75.0,0.0,20.0,2.0,0.0
1104,70.0,0.0,20.0,3.0,0.0
1105,55.0,0.0,20.0,4.0,0.0
1106,43.0,24.0,20.0,5.0,0.0
1107,77.0,0.0,20.0,2.0,0.0
1108,68.0,0.0,20.0,3.0,0.0
1109,53.0,0.0,20.0,4.0,0.0
1110,41.0,18.0,20.0,5.0,0.0
1111,79.0,0.0,20.0,2.0,0.0
1112,70.0,0.0,20.0,3.0,0.0
1113,51.0,0.0,20.0,4.0,0.0
1114,39.0,15.0,20.0,5.0,0.0
1115,84.0,0.0,15.0,0.0,0.0
1116,84.0,9.0,15.0,1.0,0.0
1117,80.0,0.0,20.0,2.0,0.0
1118,63.0,3.0,40.0,3.0,0.0
1119,56.0,0.0,20.0,4.0,0.0
1120,44.0,1.0,20.0,5.0,0.0
1121,82.0,0.0,15.0,0.0,0.0
1122,82.0,14.0,15.0,1.0,0.0
1123,85.0,0.0,15.0,0.0,0.0
1124,85.0,6.0,15.0,1.0,0.0
1125,75.0,0.0,20.0,2.0,0.0
1126,55.0,0.0,20.0,4.0,0.0
1127,43.0,1.0,20.0,5.0,0.0
1128,84.0,0.0,15.0,0.0,0.0
1129,84.0,14.0,15.0,1.0,0.0
1130,82.0,0.0,15.0,0.0,0.0
1131,82.0,9.0,15.0,1.0,0.0
1132,74.0,0.0,20.0,2.0,0.0
1133,67.0,0.0,20.0,3.0,0.0
1134,53.0,0.0,20.0,4.0,0.0
1135,41.0,1.0,20.0,5.0,0.0
1136,80.0,0.0,15.0,0.0,0.0
1137,80.0,14.0,15.0,1.0,0.0
1138,79.0,0.0,15.0,0.0,0.0
1139,79.0,9.0,15.0,1.0,0.0
1140,75.0,0.0,20.0,2.0,0.0
1141,70.0,3.0,40.0,3.0,0.0
1142,51.0,0.0,20.0,4.0,0.0
1143,39.0,1.0,20.0,5.0,0.0
1144,77.0,0.0,15.0,0.0,0.0
1145,77.0,14.0,15.0,1.0,0.0
1146,80.0,0.0,15.0,0.0,0.0
1147,80.0,6.0,15.0,1.0,0.0
1148,70.0,0.0,20.0,2.0,0.0
1149,49.0,0.0,20.0,4.0,0.0
1150,37.0,1.0,20.0,5.0,0.0
1151,79.0,0.0,15.0,0.0,0.0
1152,79.0,14.0,15.0,1.0,0.0
1153,77.0,0.0,15.0,0.0,0.0
1154,77.0,9.0,15.0,1.0,0.0
1155,72.0,0.0,20.0,2.0,0.0
1156,68.0,0.0,20.0,3.0,0.0
1157,48.0,0.0,20.0,4.0,0.0
1158,36.0,1.0,20.0,5.0,0.0
1159,75.0,0.0,15.0,0.0,0.0
1160,75.0,14.0,15.0,1.0,0.0
1161,73.0,0.0,15.0,0.0,0.0
1162,73.0,9.0,15.0,1.0,0.0
1163,73.0,0.0,20.0,2.0,0.0
1164,67.0,0.0,20.0,3.0,0.0
1165,46.0,0.0,20.0,4.0,0.0
1166,34.0,1.0,20.0,5.0,0.0
1167,72.0,0.0,15.0,0.0,0.0
1168,72.0,14.0,15.0,1.0,0.0
1169,75.0,0.0,15.0,0.0,0.0
1170,75.0,9.0,15.0,1.0,0.0
1171,70.0,0.0,20.0,2.0,0.0
1172,70.0,0.0,20.0,3.0,0.0
1173,55.0,0.0,20.0,4.0,0.0
1174,43.0,1.0,20.0,5.0,0.0
1175,73.0,0.0,15.0,0.0,0.0
1176,73.0,14.0,15.0,1.0,0.0
1177,72.0,0.0,15.0,0.0,0.0
1178,72.0,9.0,15.0,1.0,0.0
1179,68.0,0.0,20.0,2.0,0.0
1180,63.0,0.0,20.0,3.0,0.0
1181,56.0,0.0,20.0,4.0,0.0
1182,44.0,1.0,20.0,5.0,0.0
1183,73.0,0.0,15.0,0.0,0.0
1184,73.0,14.0,15.0,1.0,0.0
1185,70.0,0.0,15.0,0.0,0.0
1186,70.0,9.0,15.0,1.0,0.0
1187,67.0,0.0,20.0,2.0,0.0
1188,63.0,3.0,30.0,3.0,0.0
1189,51.0,0.0,20.0,4.0,0.0
1190,39.0,3.0,20.0,5.0,0.0
1191,68.0,0.0,15.0,0.0,0.0
1192,68.0,7.0,15.0,1.0,0.0
1193,70.0,0.0,15.0,0.0,0.0
1194,70.0,11.0,15.0,1.0,0.0
1195,70.0,0.0,20.0,2.0,0.0
1196,55.0,0.0,20.0,4.0,0.0
1197,43.0,1.0,20.0,5.0,0.0
1198,73.0,0.0,15.0,0.0,0.0
1199,73.0,0.0,15.0,1.0,0.0
1200,65.0,12.0,15.0,3.0,0.0
1201,72.0,0.0,15.0,0.0,0.0
1202,72.0,0.0,15.0,1.0,0.0
1203,67.0,0.0,20.0,2.0,0.0
1204,63.0,11.0,15.0,3.0,0.0
1205,51.0,0.0,20.0,4.0,0.0
1206,39.0,1.0,20.0,5.0,0.0
1207,70.0,0.0,15.0,0.0,0.0
1208,70.0,0.0,15.0,1.0,0.0
1209,61.0,14.0,15.0,3.0,0.0
1210,68.0,0.0,15.0,0.0,0.0
1211,68.0,9.0,15.0,1.0,0.0
1212,63.0,0.0,20.0,2.0,0.0
1213,60.0,0.0,20.0,3.0,0.0
1214,44.0,0.0,20.0,4.0,0.0
1215,32.0,3.0,20.0,5.0,0.0
1216,70.0,0.0,15.0,0.0,0.0
1217,70.0,12.0,15.0,1.0,0.0
1218,72.0,0.0,15.0,0.0,0.0
1219,72.0,9.0,15.0,1.0,0.0
1220,75.0,0.0,20.0,2.0,0.0
1221,68.0,0.0,20.0,3.0,0.0
1222,56.0,0.0,20.0,4.0,0.0
1223,44.0,1.0,20.0,5.0,0.0
1224,75.0,0.0,15.0,0.0,0.0
1225,75.0,14.0,15.0,1.0,0.0
1226,80.0,0.0,15.0,0.0,0.0
1227,80.0,9.0,15.0,1.0,0.0
1228,75.0,0.0,20.0,2.0,0.0
1229,72.0,0.0,20.0,3.0,0.0
1230,55.0,0.0,20.0,4.0,0.0
1231,43.0,15.0,20.0,5.0,0.0
1232,80.0,0.0,15.0,0.0,0.0
1233,80.0,9.0,15.0,1.0,0.0
1234,77.0,0.0,20.0,2.0,0.0
1235,72.0,3.0,40.0,3.0,0.0
1236,53.0,0.0,20.0,4.0,0.0
1237,41.0,1.0,20.0,5.0,0.0
1238,79.0,0.0,15.0,0.0,0.0
1239,79.0,14.0,15.0,1.0,0.0
1240,82.0,0.0,15.0,0.0,0.0
1241,82.0,6.0,15.0,1.0,0.0
1242,72.0,0.0,20.0,2.0,0.0
1243,51.0,0.0,20.0,4.0,0.0
1244,39.0,1.0,20.0,5.0,0.0
1245,80.0,0.0,15.0,0.0,0.0
1246,80.0,14.0,15.0,1.0,0.0
1247,79.0,0.0,15.0,0.0,0.0
1248,79.0,9.0,15.0,1.0,0.0
1249,73.0,0.0,20.0,2.0,0.0
1250,70.0,0.0,20.0,3.0,0.0
1251,49.0,0.0,20.0,4.0,0.0
1252,37.0,1.0,20.0,5.0,0.0
1253,77.0,0.0,15.0,0.0,0.0
1254,77.0,14.0,15.0,1.0,0.0
1255,68.0,0.0,15.0,0.0,0.0
1256,68.0,9.0,15.0,1.0,0.0
1257,75.0,0.0,20.0,2.0,0.0
1258,68.0,0.0,20.0,3.0,0.0
1259,48.0,0.0,20.0,4.0,0.0
1260,36.0,3.0,20.0,5.0,0.0
1261,70.0,0.0,15.0,0.0,0.0
1262,70.0,12.0,15.0,1.0,0.0
1263,72.0,0.0,15.0,0.0,0.0
1264,72.0,9.0,15.0,1.0,0.0
1265,78.0,0.0,20.0,2.0,0.0
1266,63.0,0.0,20.0,3.0,0.0
1267,46.0,0.0,20.0,4.0,0.0
1268,34.0,1.0,20.0,5.0,0.0
1269,75.0,0.0,15.0,0.0,0.0
1270,75.0,14.0,15.0,1.0,0.0
1271,78.0,0.0,15.0,0.0,0.0
1272,78.0,9.0,15.0,1.0,0.0
1273,75.0,0.0,20.0,2.0,0.0
1274,60.0,0.0,20.0,3.0,0.0
1275,44.0,0.0,20.0,4.0,0.0
1276,32.0,24.0,20.0,5.0,0.0
1277,78.0,0.0,60.0,0.0,0.0
1278,78.0,0.0,60.0,1.0,0.0
1279,72.0,0.0,20.0,2.0,0.0
1280,56.0,6.0,60.0,3.0,0.0
1281,56.0,0.0,20.0,4.0,0.0
1282,44.0,24.0,20.0,5.0,0.0
1283,73.0,0.0,20.0,2.0,0.0
1284,58.0,0.0,20.0,4.0,0.0
1285,46.0,18.0,20.0,5.0,0.0
1286,75.0,0.0,20.0,2.0,0.0
1287,60.0,0.0,20.0,4.0,0.0
1288,48.0,15.0,20.0,5.0,0.0
1289,77.0,0.0,15.0,0.0,0.0
1290,77.0,9.0,15.0,1.0,0.0
1291,73.0,0.0,20.0,2.0,0.0
1292,68.0,0.0,20.0,3.0,0.0
1293,61.0,0.0,20.0,4.0,0.0
1294,49.0,3.0,20.0,5.0,0.0
1295,80.0,0.0,15.0,0.0,0.0
1296,80.0,12.0,15.0,1.0,0.0
1297,85.0,0.0,15.0,0.0,0.0
1298,85.0,9.0,15.0,1.0,0.0
1299,77.0,0.0,20.0,2.0,0.0
1300,70.0,0.0,20.0,3.0,0.0
1301,58.0,0.0,20.0,4.0,0.0
1302,46.0,3.0,20.0,5.0,0.0
1303,84.0,0.0,15.0,0.0,0.0
1304,84.0,12.0,15.0,1.0,0.0
1305,82.0,0.0,15.0,0.0,0.0
1306,82.0,9.0,15.0,1.0,0.0
1307,77.0,0.0,20.0,2.0,0.0
1308,70.0,0.0,20.0,3.0,0.0
1309,61.0,0.0,20.0,4.0,0.0
1310,49.0,1.0,20.0,5.0,0.0
1311,80.0,0.0,15.0,0.0,0.0
1312,80.0,14.0,15.0,1.0,0.0
1313,79.0,0.0,15.0,0.0,0.0
1314,79.0,9.0,15.0,1.0,0.0
1315,75.0,0.0,20.0,2.0,0.0
1316,70.0,0.0,20.0,3.0,0.0
1317,63.0,0.0,20.0,4.0,0.0
1318,51.0,1.0,20.0,5.0,0.0
1319,77.0,0.0,15.0,0.0,0.0
1320,77.0,14.0,15.0,1.0,0.0
1321,80.0,0.0,15.0,0.0,0.0
1322,80.0,9.0,15.0,1.0,0.0
1323,75.0,0.0,20.0,2.0,0.0
1324,70.0,0.0,20.0,3.0,0.0
1325,65.0,0.0,20.0,4.0,0.0
1326,53.0,1.0,20.0,5.0,0.0
1327,79.0,0.0,15.0,0.0,0.0
1328,79.0,14.0,15.0,1.0,0.0
1329,77.0,0.0,15.0,0.0,0.0
1330,77.0,9.0,15.0,1.0,0.0
1331,75.0,0.0,20.0,2.0,0.0
1332,70.0,0.0,20.0,3.0,0.0
1333,67.0,0.0,20.0,4.0,0.0
1334,55.0,1.0,20.0,5.0,0.0
1335,75.0,0.0,15.0,0.0,0.0
1336,75.0,14.0,15.0,1.0,0.0
1337,84.0,0.0,15.0,0.0,0.0
1338,84.0,9.0,15.0,1.0,0.0
1339,75.0,0.0,20.0,2.0,0.0
1340,68.0,0.0,20.0,3.0,0.0
1341,68.0,0.0,20.0,4.0,0.0
1342,56.0,15.0,20.0,5.0,0.0
1343,85.0,0.0,15.0,0.0,0.0
1344,85.0,9.0,15.0,1.0,0.0
1345,77.0,0.0,20.0,2.0,0.0
1346,68.0,0.0,20.0,3.0,0.0
1347,61.0,0.0,20.0,4.0,0.0
1348,49.0,9.0,20.0,5.0,0.0
1349,84.0,0.0,15.0,0.0,0.0
1350,84.0,6.0,15.0,1.0,0.0
1351,75.0,0.0,20.0,2.0,0.0
1352,67.0,0.0,20.0,3.0,0.0
1353,63.0,0.0,20.0,4.0,0.0
1354,51.0,2.0,20.0,5.0,0.0
1355,82.0,0.0,15.0,0.0,0.0
1356,82.0,6.0,15.0,1.0,0.0
1357,84.0,0.0,15.0,0.0,0.0
1358,84.0,3.0,15.0,1.0,0.0
1359,82.0,0.0,15.0,0.0,0.0
1360,82.0,22.0,15.0,1.0,0.0
1361,80.0,0.0,60.0,0.0,0.0
1362,80.0,0.0,60.0,1.0,0.0
1363,75.0,0.0,60.0,2.0,0.0
1364,72.0,6.0,60.0,3.0,0.0
1365,56.0,0.0,20.0,4.0,0.0
1366,44.0,24.0,20.0,5.0,0.0
1367,48.0,0.0,20.0,4.0,0.0
1368,36.0,18.0,20.0,5.0,0.0
1369,51.0,0.0,20.0,4.0,0.0
1370,39.0,13.0,20.0,5.0,0.0
1371,72.0,11.0,15.0,0.0,0.0
1372,80.0,9.0,150.0,1.0,0.0
1373,75.0,6.0,60.0,2.0,0.0
1374,72.0,6.0,120.0,3.0,0.0
1375,56.0,0.0,20.0,4.0,0.0
1376,44.0,3.0,20.0,5.0,0.0
1377,75.0,12.0,15.0,0.0,0.0
1378,80.0,9.0,15.0,0.0,0.0
1379,60.0,0.0,20.0,4.0,0.0
1380,48.0,3.0,20.0,5.0,0.0
1381,79.0,12.0,15.0,0.0,0.0
1382,80.0,3.0,15.0,0.0,0.0
1383,58.0,0.0,20.0,4.0,0.0
1384,46.0,1.0,20.0,5.0,0.0
1385,75.0,14.0,15.0,0.0,0.0
1386,75.0,10.0,15.0,0.0,0.0
1387,72.0,12.0,20.0,0.0,0.0
1388,78.0,7.0,60.0,2.0,0.0
1389,56.0,0.0,40.0,4.0,0.0
1390,44.0,4.0,40.0,5.0,0.0
1391,80.0,2.0,15.0,0.0,0.0
1392,73.0,6.0,15.0,0.0,0.0
1393,70.0,6.0,20.0,0.0,0.0
1394,80.0,2.0,15.0,0.0,0.0
1395,75.0,3.0,15.0,0.0,0.0
1396,72.0,3.0,20.0,0.0,0.0
1397,80.0,2.0,15.0,0.0,0.0
1398,77.0,9.0,15.0,0.0,0.0
1399,73.0,12.0,20.0,0.0,0.0
1400,77.0,0.0,20.0,2.0,0.0
1401,73.0,0.0,20.0,3.0,0.0
1402,61.0,0.0,20.0,4.0,0.0
1403,49.0,1.0,20.0,5.0,0.0
1404,80.0,2.0,15.0,0.0,0.0
1405,78.0,9.0,15.0,0.0,0.0
1406,70.0,12.0,20.0,0.0,0.0
1407,82.0,0.0,20.0,1.0,0.0
1408,75.0,0.0,20.0,2.0,0.0
1409,73.0,0.0,20.0,3.0,0.0
1410,54.0,0.0,20.0,4.0,0.0
1411,42.0,1.0,20.0,5.0,0.0
1412,80.0,2.0,15.0,0.0,0.0
1413,75.0,9.0,15.0,0.0,0.0
1414,72.0,12.0,20.0,0.0,0.0
1415,80.0,0.0,20.0,1.0,0.0
1416,75.0,0.0,20.0,2.0,0.0
1417,72.0,0.0,20.0,3.0,0.0
1418,56.0,0.0,20.0,4.0,0.0
1419,44.0,1.0,20.0,5.0,0.0
1420,80.0,2.0,15.0,0.0,0.0
1421,77.0,10.0,15.0,0.0,0.0
1422,73.0,12.0,20.0,0.0,0.0
1423,80.0,0.0,40.0,1.0,0.0
1424,77.0,0.0,40.0,2.0,0.0
1425,73.0,0.0,40.0,3.0,0.0
1426,49.0,0.0,40.0,4.0,0.0
1427,37.0,4.0,40.0,5.0,0.0
1428,80.0,2.0,15.0,0.0,0.0
1429,75.0,6.0,15.0,0.0,0.0
1430,72.0,12.0,20.0,0.0,0.0
1431,80.0,2.0,15.0,0.0,0.0
1432,77.0,10.0,15.0,0.0,0.0
1433,73.0,12.0,20.0,0.0,0.0
1434,80.0,2.0,15.0,0.0,0.0
1435,80.0,9.0,15.0,0.0,0.0
1436,70.0,12.0,20.0,0.0,0.0
1437,82.0,0.0,90.0,1.0,0.0
1438,75.0,9.0,90.0,2.0,0.0
1439,73.0,6.0,60.0,3.0,0.0
1440,58.0,0.0,20.0,4.0,0.0
1441,46.0,3.0,20.0,5.0,0.0
1442,82.0,0.0,15.0,0.0,0.0
1443,85.0,9.0,15.0,0.0,0.0
1444,55.0,0.0,20.0,4.0,0.0
1445,43.0,3.0,20.0,5.0,0.0
1446,84.0,12.0,15.0,0.0,0.0
1447,85.0,3.0,15.0,0.0,0.0
1448,51.0,0.0,20.0,4.0,0.0
1449,39.0,1.0,20.0,5.0,0.0
1450,82.0,14.0,15.0,0.0,0.0
1451,75.0,0.0,15.0,0.0,0.0
1452,68.0,12.0,20.0,0.0,0.0
1453,72.0,1.0,20.0,3.0,0.0
1454,56.0,0.0,40.0,4.0,0.0
1455,44.0,3.0,40.0,5.0,0.0
1456,84.0,2.0,15.0,0.0,0.0
1457,77.0,6.0,15.0,0.0,0.0
1458,68.0,12.0,20.0,0.0,0.0
1459,80.0,0.0,20.0,1.0,0.0
1460,77.0,0.0,20.0,2.0,0.0
1461,73.0,1.0,20.0,3.0,0.0
1462,84.0,2.0,15.0,0.0,0.0
1463,78.0,9.0,15.0,0.0,0.0
1464,68.0,12.0,20.0,0.0,0.0
1465,78.0,0.0,20.0,1.0,0.0
1466,72.0,0.0,20.0,2.0,0.0
1467,75.0,1.0,20.0,3.0,0.0
1468,84.0,2.0,15.0,0.0,0.0
1469,77.0,9.0,15.0,0.0,0.0
1470,73.0,12.0,20.0,0.0,0.0
1471,77.0,0.0,20.0,1.0,0.0
1472,68.0,0.0,20.0,2.0,0.0
1473,77.0,0.0,20.0,3.0,0.0
1474,49.0,0.0,20.0,4.0,0.0
1475,37.0,1.0,20.0,5.0,0.0
1476,84.0,2.0,15.0,0.0,0.0
1477,77.0,9.0,15.0,0.0,0.0
1478,73.0,12.0,20.0,0.0,0.0
1479,82.0,0.0,20.0,1.0,0.0
1480,73.0,0.0,20.0,2.0,0.0
1481,65.0,0.0,20.0,3.0,0.0
1482,61.0,0.0,20.0,4.0,0.0
1483,49.0,1.0,20.0,5.0,0.0
1484,82.0,2.0,15.0,0.0,0.0
1485,77.0,9.0,15.0,0.0,0.0
1486,74.0,10.0,20.0,0.0,0.0
1487,80.0,0.0,20.0,1.0,0.0
1488,74.0,0.0,20.0,2.0,0.0
1489,70.0,0.0,20.0,3.0,0.0
1490,58.0,0.0,20.0,4.0,0.0
1491,46.0,1.0,20.0,5.0,0.0
1492,80.0,2.0,15.0,0.0,0.0
1493,79.0,14.0,15.0,0.0,0.0
1494,79.0,0.0,40.0,1.0,0.0
1495,75.0,0.0,40.0,2.0,0.0
1496,70.0,0.0,40.0,3.0,0.0
1497,63.0,0.0,40.0,4.0,0.0
1498,51.0,6.0,40.0,5.0,0.0
1499,77.0,12.0,15.0,0.0,0.0
1500,75.0,6.0,15.0,0.0,0.0
1501,77.0,12.0,15.0,0.0,0.0
1502,79.0,10.0,15.0,0.0,0.0
1503,80.0,12.0,15.0,0.0,0.0
1504,82.0,11.0,15.0,0.0,0.0
1505,82.0,0.0,90.0,1.0,0.0
1506,73.0,10.0,90.0,2.0,0.0
1507,67.0,0.0,20.0,3.0,0.0
1508,51.0,0.0,20.0,4.0,0.0
1509,39.0,1.0,20.0,5.0,0.0
1510,79.0,12.0,15.0,0.0,0.0
1511,75.0,11.0,15.0,0.0,0.0
1512,68.0,0.0,20.0,3.0,0.0
1513,53.0,0.0,20.0,4.0,0.0
1514,41.0,1.0,20.0,5.0,0.0
1515,72.0,23.0,15.0,0.0,0.0
1516,73.0,5.0,30.0,0.0,0.0
1517,70.0,0.0,20.0,3.0,0.0
1518,55.0,0.0,20.0,4.0,0.0
1519,43.0,10.0,20.0,5.0,0.0
1520,63.0,0.0,40.0,3.0,0.0
1521,56.0,0.0,40.0,4.0,0.0
1522,44.0,3.0,40.0,5.0,0.0
1523,70.0,12.0,15.0,0.0,0.0
1524,72.0,8.0,15.0,0.0,0.0
1525,80.0,0.0,20.0,1.0,0.0
1526,72.0,1.0,20.0,2.0,0.0
1527,75.0,12.0,15.0,0.0,0.0
1528,80.0,0.0,15.0,0.0,0.0
1529,84.0,10.0,15.0,1.0,0.0
1530,75.0,2.0,15.0,2.0,0.0
1531,82.0,0.0,15.0,0.0,0.0
1532,82.0,0.0,15.0,1.0,0.0
1533,73.0,12.0,15.0,2.0,0.0
1534,84.0,11.0,15.0,0.0,0.0
1535,84.0,0.0,90.0,1.0,0.0
1536,75.0,10.0,90.0,2.0,0.0
1537,69.0,0.0,20.0,3.0,0.0
1538,53.0,0.0,20.0,4.0,0.0
1539,41.0,1.0,20.0,5.0,0.0
1540,81.0,12.0,15.0,0.0,0.0
1541,77.0,11.0,15.0,0.0,0.0
1542,70.0,0.0,20.0,3.0,0.0
1543,55.0,0.0,20.0,4.0,0.0
1544,43.0,1.0,20.0,5.0,0.0
1545,73.0,23.0,15.0,0.0,0.0
1546,75.0,5.0,30.0,0.0,0.0
1547,72.0,0.0,20.0,3.0,0.0
1548,57.0,0.0,20.0,4.0,0.0
1549,45.0,10.0,20.0,5.0,0.0
1550,65.0,0.0,40.0,3.0,0.0
1551,58.0,0.0,40.0,4.0,0.0
1552,46.0,3.0,40.0,5.0,0.0
1553,72.0,12.0,15.0,0.0,0.0
1554,73.0,8.0,15.0,0.0,0.0
1555,82.0,0.0,20.0,1.0,0.0
1556,73.0,1.0,20.0,2.0,0.0
1557,77.0,12.0,15.0,0.0,0.0
1558,82.0,2.0,15.0,0.0,0.0
1559,85.0,0.0,15.0,1.0,0.0
1560,77.0,10.0,15.0,2.0,0.0
1561,84.0,0.0,15.0,0.0,0.0
1562,84.0,0.0,15.0,1.0,0.0
1563,75.0,12.0,15.0,2.0,0.0
1564,85.0,11.0,15.0,0.0,0.0
1565,85.0,0.0,40.0,1.0,0.0
1566,77.0,0.0,20.0,2.0,0.0
1567,70.0,3.0,20.0,3.0,0.0
1568,58.0,0.0,40.0,4.0,0.0
1569,46.0,3.0,40.0,5.0,0.0
1570,82.0,12.0,15.0,0.0,0.0
1571,80.0,6.0,15.0,0.0,0.0
1572,82.0,0.0,20.0,2.0,0.0
1573,73.0,3.0,20.0,3.0,0.0
1574,77.0,10.0,15.0,0.0,0.0
1575,78.0,12.0,15.0,0.0,0.0
1576,82.0,12.0,15.0,0.0,0.0
1577,87.0,11.0,15.0,0.0,0.0
1578,87.0,0.0,40.0,1.0,0.0
1579,80.0,0.0,20.0,2.0,0.0
1580,68.0,1.0,20.0,3.0,0.0
1581,60.0,0.0,40.0,4.0,0.0
1582,48.0,3.0,40.0,5.0,0.0
1583,84.0,14.0,15.0,0.0,0.0
1584,80.0,6.0,15.0,0.0,0.0
1585,72.0,0.0,20.0,2.0,0.0
1586,75.0,3.0,20.0,3.0,0.0
1587,77.0,10.0,15.0,0.0,0.0
1588,78.0,12.0,15.0,0.0,0.0
1589,75.0,12.0,15.0,0.0,0.0
1590,77.0,11.0,15.0,0.0,0.0
1591,80.0,0.0,20.0,1.0,0.0
1592,77.0,0.0,20.0,2.0,0.0
1593,73.0,0.0,20.0,3.0,0.0
1594,61.0,0.0,20.0,4.0,0.0
1595,49.0,1.0,20.0,5.0,0.0
1596,80.0,12.0,15.0,0.0,0.0
1597,82.0,11.0,15.0,0.0,0.0
1598,82.0,0.0,20.0,1.0,0.0
1599,78.0,0.0,20.0,2.0,0.0
1600,73.0,0.0,20.0,3.0,0.0
1601,54.0,0.0,20.0,4.0,0.0
1602,42.0,1.0,20.0,5.0,0.0
1603,78.0,12.0,15.0,0.0,0.0
1604,75.0,11.0,15.0,0.0,0.0
1605,84.0,0.0,20.0,1.0,0.0
1606,75.0,0.0,20.0,2.0,0.0
1607,68.0,0.0,20.0,3.0,0.0
1608,56.0,0.0,20.0,4.0,0.0
1609,44.0,1.0,20.0,5.0,0.0
1610,84.0,12.0,15.0,0.0,0.0
1611,85.0,12.0,15.0,0.0,0.0
1612,85.0,0.0,40.0,1.0,0.0
1613,77.0,0.0,40.0,2.0,0.0
1614,68.0,0.0,40.0,3.0,0.0
1615,49.0,0.0,40.0,4.0,0.0
1616,37.0,4.0,40.0,5.0,0.0
1617,80.0,12.0,15.0,0.0,0.0
1618,77.0,8.0,15.0,0.0,0.0
1619,73.0,12.0,15.0,0.0,0.0
1620,72.0,12.0,15.0,0.0,0.0
1621,70.0,14.0,15.0,0.0,0.0
1622,68.0,0.0,15.0,0.0,0.0
1623,68.0,12.0,15.0,1.0,0.0
1624,72.0,0.0,40.0,2.0,0.0
1625,63.0,0.0,40.0,3.0,0.0
1626,56.0,0.0,40.0,4.0,0.0
1627,44.0,4.0,40.0,5.0,0.0
1628,70.0,0.0,15.0,0.0,0.0
1629,70.0,12.0,15.0,1.0,0.0
1630,72.0,0.0,15.0,0.0,0.0
1631,72.0,6.0,15.0,1.0,0.0
1632,75.0,0.0,15.0,0.0,0.0
1633,75.0,14.0,15.0,1.0,0.0
1634,80.0,0.0,15.0,0.0,0.0
1635,80.0,24.0,15.0,1.0,0.0
1636,80.0,0.0,15.0,0.0,0.0
1637,80.0,9.0,15.0,1.0,0.0
1638,75.0,0.0,20.0,2.0,0.0
1639,63.0,0.0,20.0,3.0,0.0
1640,60.0,0.0,20.0,4.0,0.0
1641,48.0,1.0,20.0,5.0,0.0
1642,79.0,0.0,15.0,0.0,0.0
1643,79.0,14.0,15.0,1.0,0.0
1644,82.0,0.0,15.0,0.0,0.0
1645,82.0,9.0,15.0,1.0,0.0
1646,73.0,0.0,20.0,2.0,0.0
1647,67.0,0.0,20.0,3.0,0.0
1648,58.0,0.0,20.0,4.0,0.0
1649,46.0,1.0,20.0,5.0,0.0
1650,80.0,0.0,15.0,0.0,0.0
1651,80.0,14.0,15.0,1.0,0.0
1652,79.0,0.0,15.0,0.0,0.0
1653,79.0,9.0,15.0,1.0,0.0
1654,75.0,0.0,20.0,2.0,0.0
1655,72.0,0.0,20.0,3.0,0.0
1656,56.0,0.0,20.0,4.0,0.0
1657,44.0,1.0,20.0,5.0,0.0
1658,77.0,0.0,15.0,0.0,0.0
1659,77.0,14.0,15.0,1.0,0.0
1660,75.0,0.0,15.0,0.0,0.0
1661,75.0,12.0,15.0,1.0,0.0
1662,75.0,0.0,40.0,2.0,0.0
1663,70.0,0.0,40.0,3.0,0.0
1664,55.0,0.0,40.0,4.0,0.0
1665,43.0,4.0,40.0,5.0,0.0
1666,77.0,0.0,15.0,0.0,0.0
1667,77.0,12.0,15.0,1.0,0.0
1668,79.0,0.0,15.0,0.0,0.0
1669,79.0,6.0,15.0,1.0,0.0
1670,82.0,0.0,15.0,0.0,0.0
1671,82.0,14.0,15.0,1.0,0.0
1672,85.0,0.0,15.0,0.0,0.0
1673,85.0,33.0,15.0,1.0,0.0
1674,85.0,0.0,60.0,0.0,0.0
1675,85.0,6.0,60.0,1.0,0.0
1676,75.0,0.0,20.0,2.0,0.0
1677,70.0,0.0,20.0,3.0,0.0
1678,55.0,0.0,20.0,4.0,0.0
1679,43.0,24.0,20.0,5.0,0.0
1680,77.0,0.0,20.0,2.0,0.0
1681,68.0,0.0,20.0,3.0,0.0
1682,53.0,0.0,20.0,4.0,0.0
1683,41.0,18.0,20.0,5.0,0.0
1684,79.0,0.0,20.0,2.0,0.0
1685,70.0,0.0,20.0,3.0,0.0
1686,51.0,0.0,20.0,4.0,0.0
1687,39.0,15.0,20.0,5.0,0.0
1688,84.0,0.0,15.0,0.0,0.0
1689,84.0,9.0,15.0,1.0,0.0
1690,80.0,0.0,20.0,2.0,0.0
1691,63.0,3.0,40.0,3.0,0.0
1692,56.0,0.0,20.0,4.0,0.0
1693,44.0,1.0,20.0,5.0,0.0
1694,82.0,0.0,15.0,0.0,0.0
1695,82.0,14.0,15.0,1.0,0.0
1696,85.0,0.0,15.0,0.0,0.0
1697,85.0,6.0,15.0,1.0,0.0
1698,75.0,0.0,20.0,2.0,0.0
1699,55.0,0.0,20.0,4.0,0.0
1700,43.0,1.0,20.0,5.0,0.0
1701,84.0,0.0,15.0,0.0,0.0
1702,84.0,14.0,15.0,1.0,0.0
1703,82.0,0.0,15.0,0.0,0.0
1704,82.0,9.0,15.0,1.0,0.0
1705,74.0,0.0,20.0,2.0,0.0
1706,67.0,0.0,20.0,3.0,0.0
1707,53.0,0.0,20.0,4.0,0.0
1708,41.0,1.0,20.0,5.0,0.0
1709,80.0,0.0,15.0,0.0,0.0
1710,80.0,14.0,15.0,1.0,0.0
1711,79.0,0.0,15.0,0.0,0.0
1712,79.0,9.0,15.0,1.0,0.0
1713,75.0,0.0,20.0,2.0,0.0
1714,70.0,3.0,40.0,3.0,0.0
1715,51.0,0.0,20.0,4.0,0.0
1716,39.0,1.0,20.0,5.0,0.0
1717,77.0,0.0,15.0,0.0,0.0
1718,77.0,14.0,15.0,1.0,0.0
1719,80.0,0.0,15.0,0.0,0.0
1720,80.0,6.0,15.0,1.0,0.0
1721,70.0,0.0,20.0,2.0,0.0
1722,49.0,0.0,20.0,4.0,0.0
1723,37.0,1.0,20.0,5.0,0.0
1724,79.0,0.0,15.0,0.0,0.0
1725,79.0,14.0,15.0,1.0,0.0
1726,77.0,0.0,15.0,0.0,0.0
1727,77.0,9.0,15.0,1.0,0.0
1728,72.0,0.0,20.0,2.0,0.0
1729,68.0,0.0,20.0,3.0,0.0
1730,48.0,0.0,20.0,4.0,0.0
1731,36.0,1.0,20.0,5.0,0.0
1732,75.0,0.0,15.0,0.0,0.0
1733,75.0,14.0,15.0,1.0,0.0
1734,73.0,0.0,15.0,0.0,0.0
1735,73.0,9.0,15.0,1.0,0.0
1736,73.0,0.0,20.0,2.0,0.0
1737,67.0,0.0,20.0,3.0,0.0
1738,46.0,0.0,20.0,4.0,0.0
1739,34.0,1.0,20.0,5.0,0.0
1740,72.0,0.0,15.0,0.0,0.0
1741,72.0,14.0,15.0,1.0,0.0
1742,75.0,0.0,15.0,0.0,0.0
1743,75.0,9.0,15.0,1.0,0.0
1744,70.0,0.0,20.0,2.0,0.0
1745,70.0,0.0,20.0,3.0,0.0
1746,55.0,0.0,20.0,4.0,0.0
1747,43.0,1.0,20.0,5.0,0.0
1748,73.0,0.0,15.0,0.0,0.0
1749,73.0,14.0,15.0,1.0,0.0
1750,72.0,0.0,15.0,0.0,0.0
1751,72.0,9.0,15.0,1.0,0.0
1752,68.0,0.0,20.0,2.0,0.0
1753,63.0,0.0,20.0,3.0,0.0
1754,56.0,0.0,20.0,4.0,0.0
1755,44.0,1.0,20.0,5.0,0.0
1756,73.0,0.0,15.0,0.0,0.0
1757,73.0,14.0,15.0,1.0,0.0
1758,70.0,0.0,15.0,0.0,0.0
1759,70.0,9.0,15.0,1.0,0.0
1760,67.0,0.0,20.0,2.0,0.0
1761,63.0,3.0,30.0,3.0,0.0
1762,51.0,0.0,20.0,4.0,0.0
1763,39.0,3.0,20.0,5.0,0.0
1764,68.0,0.0,15.0,0.0,0.0
1765,68.0,7.0,15.0,1.0,0.0
1766,70.0,0.0,15.0,0.0,0.0
1767,70.0,11.0,15.0,1.0,0.0
1768,70.0,0.0,20.0,2.0,0.0
1769,55.0,0.0,20.0,4.0,0.0
1770,43.0,1.0,20.0,5.0,0.0
1771,73.0,0.0,15.0,0.0,0.0
1772,73.0,0.0,15.0,1.0,0.0
1773,65.0,12.0,15.0,3.0,0.0
1774,72.0,0.0,15.0,0.0,0.0
1775,72.0,0.0,15.0,1.0,0.0
1776,67.0,0.0,20.0,2.0,0.0
1777,63.0,11.0,15.0,3.0,0.0
1778,51.0,0.0,20.0,4.0,0.0
1779,39.0,1.0,20.0,5.0,0.0
1780,70.0,0.0,15.0,0.0,0.0
1781,70.0,0.0,15.0,1.0,0.0
1782,61.0,14.0,15.0,3.0,0.0
1783,68.0,0.0,15.0,0.0,0.0
1784,68.0,9.0,15.0,1.0,0.0
1785,63.0,0.0,20.0,2.0,0.0
1786,60.0,0.0,20.0,3.0,0.0
1787,44.0,0.0,20.0,4.0,0.0
1788,32.0,3.0,20.0,5.0,0.0
1789,70.0,0.0,15.0,0.0,0.0
1790,70.0,12.0,15.0,1.0,0.0
1791,72.0,0.0,15.0,0.0,0.0
1792,72.0,9.0,15.0,1.0,0.0
1793,75.0,0.0,20.0,2.0,0.0
1794,68.0,0.0,20.0,3.0,0.0
1795,56.0,0.0,20.0,4.0,0.0
1796,44.0,1.0,20.0,5.0,0.0
1797,75.0,0.0,15.0,0.0,0.0
1798,75.0,14.0,15.0,1.0,0.0
1799,80.0,0.0,15.0,0.0,0.0
1800,80.0,9.0,15.0,1.0,0.0
1801,75.0,0.0,20.0,2.0,0.0
1802,72.0,0.0,20.0,3.0,0.0
1803,55.0,0.0,20.0,4.0,0.0
1804,43.0,15.0,20.0,5.0,0.0
1805,80.0,0.0,15.0,0.0,0.0
1806,80.0,9.0,15.0,1.0,0.0
1807,77.0,0.0,20.0,2.0,0.0
1808,72.0,3.0,40.0,3.0,0.0
1809,53.0,0.0,20.0,4.0,0.0
1810,41.0,1.0,20.0,5.0,0.0
1811,79.0,0.0,15.0,0.0,0.0
1812,79.0,14.0,15.0,1.0,0.0
1813,82.0,0.0,15.0,0.0,0.0
1814,82.0,6.0,15.0,1.0,0.0
1815,72.0,0.0,20.0,2.0,0.0
1816,51.0,0.0,20.0,4.0,0.0
1817,39.0,1.0,20.0,5.0,0.0
1818,80.0,0.0,15.0,0.0,0.0
1819,80.0,14.0,15.0,1.0,0.0
1820,79.0,0.0,15.0,0.0,0.0
1821,79.0,9.0,15.0,1.0,0.0
1822,73.0,0.0,20.0,2.0,0.0
1823,70.0,0.0,20.0,3.0,0.0
1824,49.0,0.0,20.0,4.0,0.0
1825,37.0,1.0,20.0,5.0,0.0
1826,77.0,0.0,15.0,0.0,0.0
1827,77.0,14.0,15.0,1.0,0.0
1828,68.0,0.0,15.0,0.0,0.0
1829,68.0,9.0,15.0,1.0,0.0
1830,75.0,0.0,20.0,2.0,0.0
1831,68.0,0.0,20.0,3.0,0.0
1832,48.0,0.0,20.0,4.0,0.0
1833,36.0,3.0,20.0,5.0,0.0
1834,70.0,0.0,15.0,0.0,0.0
1835,70.0,12.0,15.0,1.0,0.0
1836,72.0,0.0,15.0,0.0,0.0
1837,72.0,9.0,15.0,1.0,0.0
1838,78.0,0.0,20.0,2.0,0.0
1839,63.0,0.0,20.0,3.0,0.0
1840,46.0,0.0,20.0,4.0,0.0
1841,34.0,1.0,20.0,5.0,0.0
1842,75.0,0.0,15.0,0.0,0.0
1843,75.0,14.0,15.0,1.0,0.0
1844,78.0,0.0,15.0,0.0,0.0
1845,78.0,9.0,15.0,1.0,0.0
1846,75.0,0.0,20.0,2.0,0.0
1847,60.0,0.0,20.0,3.0,0.0
1848,44.0,0.0,20.0,4.0,0.0
1849,32.0,24.0,20.0,5.0,0.0
1850,78.0,0.0,60.0,0.0,0.0
1851,78.0,0.0,60.0,1.0,0.0
1852,72.0,0.0,20.0,2.0,0.0
1853,56.0,6.0,60.0,3.0,0.0
1854,56.0,0.0,20.0,4.0,0.0
1855,44.0,24.0,20.0,5.0,0.0
1856,73.0,0.0,20.0,2.0,0.0
1857,58.0,0.0,20.0,4.0,0.0
1858,46.0,18.0,20.0,5.0,0.0
1859,75.0,0.0,20.0,2.0,0.0
1860,60.0,0.0,20.0,4.0,0.0
1861,48.0,15.0,20.0,5.0,0.0
1862,77.0,0.0,15.0,0.0,0.0
1863,77.0,9.0,15.0,1.0,0.0
1864,73.0,0.0,20.0,2.0,0.0
1865,68.0,0.0,20.0,3.0,0.0
1866,61.0,0.0,20.0,4.0,0.0
1867,49.0,3.0,20.0,5.0,0.0
1868,80.0,0.0,15.0,0.0,0.0
1869,80.0,12.0,15.0,1.0,0.0
1870,85.0,0.0,15.0,0.0,0.0
1871,85.0,9.0,15.0,1.0,0.0
1872,77.0,0.0,20.0,2.0,0.0
1873,70.0,0.0,20.0,3.0,0.0
1874,58.0,0.0,20.0,4.0,0.0
1875,46.0,3.0,20.0,5.0,0.0
1876,84.0,0.0,15.0,0.0,0.0
1877,84.0,12.0,15.0,1.0,0.0
1878,82.0,0.0,15.0,0.0,0.0
1879,82.0,9.0,15.0,1.0,0.0
1880,77.0,0.0,20.0,2.0,0.0
1881,70.0,0.0,20.0,3.0,0.0
1882,61.0,0.0,20.0,4.0,0.0
1883,49.0,1.0,20.0,5.0,0.0
1884,80.0,0.0,15.0,0.0,0.0
1885,80.0,14.0,15.0,1.0,0.0
1886,79.0,0.0,15.0,0.0,0.0
1887,79.0,9.0,15.0,1.0,0.0
1888,75.0,0.0,20.0,2.0,0.0
1889,70.0,0.0,20.0,3.0,0.0
1890,63.0,0.0,20.0,4.0,0.0
1891,51.0,1.0,20.0,5.0,0.0
1892,77.0,0.0,15.0,0.0,0.0
1893,77.0,14.0,15.0,1.0,0.0
1894,80.0,0.0,15.0,0.0,0.0
1895,80.0,9.0,15.0,1.0,0.0
1896,75.0,0.0,20.0,2.0,0.0
1897,70.0,0.0,20.0,3.0,0.0
1898,65.0,0.0,20.0,4.0,0.0
1899,53.0,1.0,20.0,5.0,0.0
1900,79.0,0.0,15.0,0.0,0.0
1901,79.0,14.0,15.0,1.0,0.0
1902,77.0,0.0,15.0,0.0,0.0
1903,77.0,9.0,15.0,1.0,0.0
1904,75.0,0.0,20.0,2.0,0.0
1905,70.0,0.0,20.0,3.0,0.0
1906,67.0,0.0,20.0,4.0,0.0
1907,55.0,1.0,20.0,5.0,0.0
1908,75.0,0.0,15.0,0.0,0.0
1909,75.0,14.0,15.0,1.0,0.0
1910,84.0,0.0,15.0,0.0,0.0
1911,84.0,9.0,15.0,1.0,0.0
1912,75.0,0.0,20.0,2.0,0.0
1913,68.0,0.0,20.0,3.0,0.0
1914,68.0,0.0,20.0,4.0,0.0
1915,56.0,15.0,20.0,5.0,0.0
1916,85.0,0.0,15.0,0.0,0.0
1917,85.0,9.0,15.0,1.0,0.0
1918,77.0,0.0,20.0,2.0,0.0
1919,68.0,0.0,20.0,3.0,0.0
1920,61.0,0.0,20.0,4.0,0.0
1921,49.0,9.0,20.0,5.0,0.0
1922,84.0,0.0,15.0,0.0,0.0
1923,84.0,6.0,15.0,1.0,0.0
1924,75.0,0.0,20.0,2.0,0.0
1925,67.0,0.0,20.0,3.0,0.0
1926,63.0,0.0,20.0,4.0,0.0
1927,51.0,2.0,20.0,5.0,0.0
1928,82.0,0.0,15.0,0.0,0.0
1929,82.0,6.0,15.0,1.0,0.0
1930,84.0,0.0,15.0,0.0,0.0
1931,84.0,3.0,15.0,1.0,0.0
1932,82.0,0.0,15.0,0.0,0.0
1933,82.0,22.0,15.0,1.0,0.0
1934,80.0,0.0,60.0,0.0,0.0
1935,80.0,0.0,60.0,1.0,0.0
1936,75.0,0.0,60.0,2.0,0.0
1937,72.0,6.0,60.0,3.0,0.0
1938,56.0,0.0,20.0,4.0,0.0
1939,44.0,24.0,20.0,5.0,0.0
1940,51.0,0.0,20.0,4.0,0.0
1941,39.0,18.0,20.0,5.0,0.0
1942,44.0,0.0,20.0,4.0,0.0
1943,32.0,13.0,20.0,5.0,0.0
1944,72.0,11.0,15.0,0.0,0.0
1945,75.0,0.0,20.0,1.0,0.0
1946,72.0,0.0,20.0,2.0,0.0
1947,68.0,1.0,20.0,3.0,0.0
1948,70.0,12.0,15.0,0.0,0.0
1949,68.0,11.0,15.0,0.0,0.0
1950,78.0,0.0,20.0,1.0,0.0
1951,75.0,0.0,20.0,2.0,0.0
1952,56.0,1.0,20.0,3.0,0.0
1953,70.0,12.0,15.0,0.0,0.0
1954,72.0,11.0,15.0,0.0,0.0
1955,77.0,0.0,20.0,1.0,0.0
1956,73.0,0.0,20.0,2.0,0.0
1957,68.0,1.0,20.0,3.0,0.0
1958,73.0,12.0,15.0,0.0,0.0
1959,75.0,8.0,15.0,0.0,0.0
1960,75.0,0.0,20.0,1.0,0.0
1961,72.0,0.0,20.0,2.0,0.0
1962,68.0,3.0,20.0,3.0,0.0
1963,72.0,3.0,15.0,0.0,0.0
1964,73.0,10.0,15.0,0.0,0.0
1965,75.0,8.0,15.0,0.0,0.0
1966,78.0,0.0,60.0,1.0,0.0
1967,72.0,3.0,60.0,2.0,0.0
1968,56.0,3.0,20.0,3.0,0.0
1969,75.0,3.0,15.0,0.0,0.0
1970,77.0,10.0,15.0,0.0,0.0
1971,78.0,8.0,15.0,0.0,0.0
1972,68.0,3.0,20.0,3.0,0.0
1973,75.0,3.0,15.0,0.0,0.0
1974,77.0,10.0,15.0,0.0,0.0
1975,78.0,5.0,15.0,0.0,0.0
1976,68.0,3.0,20.0,3.0,0.0
1977,78.0,3.0,15.0,0.0,0.0
1978,80.0,10.0,15.0,0.0,0.0
1979,82.0,8.0,15.0,0.0,0.0
1980,77.0,0.0,20.0,1.0,0.0
1981,73.0,0.0,20.0,2.0,0.0
1982,56.0,3.0,20.0,3.0,0.0
1983,78.0,3.0,15.0,0.0,0.0
1984,80.0,12.0,15.0,0.0,0.0
1985,82.0,6.0,15.0,0.0,0.0
1986,75.0,0.0,20.0,1.0,0.0
1987,75.0,0.0,20.0,2.0,0.0
1988,68.0,3.0,20.0,3.0,0.0
1989,82.0,3.0,15.0,0.0,0.0
1990,84.0,10.0,15.0,0.0,0.0
1991,85.0,8.0,15.0,0.0,0.0
1992,77.0,0.0,40.0,1.0,0.0
1993,73.0,0.0,40.0,2.0,0.0
1994,61.0,3.0,40.0,3.0,0.0
1995,61.0,0.0,20.0,4.0,0.0
1996,49.0,3.0,20.0,5.0,0.0
1997,85.0,3.0,15.0,0.0,0.0
1998,84.0,10.0,15.0,0.0,0.0
1999,85.0,8.0,15.0,0.0,0.0
2000,56.0,0.0,20.0,4.0,0.0
2001,44.0,1.0,20.0,5.0,0.0
2002,80.0,8.0,15.0,0.0,0.0
2003,80.0,6.0,15.0,0.0,0.0
2004,49.0,0.0,20.0,4.0,0.0
2005,37.0,2.0,20.0,5.0,0.0
2006,78.0,6.0,15.0,0.0,0.0
2007,77.0,3.0,15.0,0.0,0.0
2008,75.0,13.0,15.0,0.0,0.0
2009,74.0,9.0,15.0,0.0,0.0
2010,77.0,0.0,20.0,1.0,0.0
2011,74.0,0.0,20.0,2.0,0.0
2012,70.0,3.0,20.0,3.0,0.0
2013,72.0,12.0,15.0,0.0,0.0
2014,70.0,9.0,15.0,0.0,0.0
2015,80.0,0.0,20.0,1.0,0.0
2016,77.0,0.0,20.0,2.0,0.0
2017,58.0,3.0,20.0,3.0,0.0
2018,72.0,12.0,15.0,0.0,0.0
2019,74.0,9.0,15.0,0.0,0.0
2020,79.0,0.0,20.0,1.0,0.0
2021,75.0,0.0,20.0,2.0,0.0
2022,70.0,1.0,20.0,3.0,0.0
2023,75.0,12.0,15.0,0.0,0.0
2024,77.0,8.0,15.0,0.0,0.0
2025,77.0,0.0,20.0,1.0,0.0
2026,74.0,0.0,20.0,2.0,0.0
2027,70.0,3.0,20.0,3.0,0.0
2028,74.0,3.0,15.0,0.0,0.0
2029,75.0,10.0,15.0,0.0,0.0
2030,77.0,8.0,15.0,0.0,0.0
2031,80.0,0.0,60.0,1.0,0.0
2032,74.0,3.0,60.0,2.0,0.0
2033,58.0,3.0,20.0,3.0,0.0
2034,77.0,3.0,15.0,0.0,0.0
2035,79.0,10.0,15.0,0.0,0.0
2036,80.0,8.0,15.0,0.0,0.0
2037,70.0,3.0,20.0,3.0,0.0
2038,77.0,3.0,15.0,0.0,0.0
2039,79.0,10.0,15.0,0.0,0.0
2040,80.0,5.0,15.0,0.0,0.0
2041,70.0,3.0,20.0,3.0,0.0
2042,80.0,3.0,15.0,0.0,0.0
2043,82.0,10.0,15.0,0.0,0.0
2044,84.0,8.0,15.0,0.0,0.0
2045,79.0,0.0,20.0,1.0,0.0
2046,75.0,0.0,20.0,2.0,0.0
2047,58.0,3.0,20.0,3.0,0.0
2048,80.0,3.0,15.0,0.0,0.0
2049,82.0,10.0,15.0,0.0,0.0
2050,84.0,8.0,15.0,0.0,0.0
2051,77.0,0.0,20.0,1.0,0.0
2052,77.0,0.0,20.0,2.0,0.0
2053,70.0,3.0,20.0,3.0,0.0
2054,84.0,3.0,15.0,0.0,0.0
2055,86.0,10.0,15.0,0.0,0.0
2056,87.0,8.0,15.0,0.0,0.0
2057,79.0,0.0,40.0,1.0,0.0
2058,75.0,0.0,40.0,2.0,0.0
2059,63.0,3.0,40.0,3.0,0.0
2060,63.0,0.0,20.0,4.0,0.0
2061,51.0,3.0,20.0,5.0,0.0
2062,87.0,3.0,15.0,0.0,0.0
2063,86.0,10.0,15.0,0.0,0.0
2064,87.0,8.0,15.0,0.0,0.0
2065,58.0,0.0,20.0,4.0,0.0
2066,46.0,1.0,20.0,5.0,0.0
2067,82.0,8.0,15.0,0.0,0.0
2068,82.0,6.0,15.0,0.0,0.0
2069,51.0,0.0,20.0,4.0,0.0
2070,39.0,2.0,20.0,5.0,0.0
2071,80.0,6.0,15.0,0.0,0.0
2072,79.0,3.0,15.0,0.0,0.0
2073,77.0,11.0,15.0,0.0,0.0
2074,76.0,8.0,15.0,0.0,0.0
2075,55.0,0.0,40.0,4.0,0.0
2076,43.0,4.0,40.0,5.0,0.0
2077,82.0,6.0,15.0,0.0,0.0
2078,84.0,10.0,15.0,0.0,0.0
2079,85.0,0.0,15.0,0.0,0.0
2080,76.0,0.0,15.0,1.0,0.0
2081,70.0,0.0,15.0,2.0,0.0
2082,67.0,8.0,15.0,3.0,0.0
2083,82.0,0.0,15.0,0.0,0.0
2084,77.0,0.0,15.0,1.0,0.0
2085,68.0,0.0,15.0,2.0,0.0
2086,65.0,2.0,15.0,3.0,0.0
2087,84.0,10.0,15.0,0.0,0.0
2088,85.0,11.0,15.0,0.0,0.0
2089,76.0,0.0,20.0,1.0,0.0
2090,70.0,0.0,20.0,2.0,0.0
2091,67.0,1.0,20.0,3.0,0.0
2092,82.0,12.0,15.0,0.0,0.0
2093,77.0,8.0,15.0,0.0,0.0
2094,53.0,0.0,40.0,4.0,0.0
2095,41.0,4.0,40.0,5.0,0.0
2096,82.0,6.0,15.0,0.0,0.0
2097,84.0,10.0,15.0,0.0,0.0
2098,85.0,0.0,15.0,0.0,0.0
2099,77.0,0.0,15.0,1.0,0.0
2100,68.0,0.0,15.0,2.0,0.0
2101,65.0,8.0,15.0,3.0,0.0
2102,82.0,0.0,15.0,0.0,0.0
2103,79.0,0.0,15.0,1.0,0.0
2104,67.0,0.0,15.0,2.0,0.0
2105,64.0,2.0,15.0,3.0,0.0
2106,84.0,10.0,15.0,0.0,0.0
2107,85.0,11.0,15.0,0.0,0.0
2108,77.0,0.0,20.0,1.0,0.0
2109,68.0,0.0,20.0,2.0,0.0
2110,65.0,1.0,20.0,3.0,0.0
2111,82.0,12.0,15.0,0.0,0.0
2112,79.0,8.0,15.0,0.0,0.0
2113,52.0,0.0,20.0,4.0,0.0
2114,40.0,3.0,20.0,5.0,0.0
2115,82.0,3.0,15.0,0.0,0.0
2116,84.0,10.0,15.0,0.0,0.0
2117,85.0,0.0,15.0,0.0,0.0
2118,79.0,11.0,15.0,1.0,0.0
2119,70.0,0.0,20.0,2.0,0.0
2120,64.0,1.0,20.0,3.0,0.0
2121,82.0,0.0,15.0,0.0,0.0
2122,80.0,12.0,15.0,1.0,0.0
2123,88.0,0.0,15.0,0.0,0.0
2124,82.0,11.0,15.0,1.0,0.0
2125,72.0,0.0,20.0,2.0,0.0
2126,67.0,0.0,20.0,3.0,0.0
2127,48.0,0.0,20.0,4.0,0.0
2128,36.0,1.0,20.0,5.0,0.0
2129,82.0,0.0,15.0,0.0,0.0
2130,79.0,14.0,15.0,1.0,0.0
2131,80.0,9.0,15.0,0.0,0.0
2132,80.0,0.0,20.0,1.0,0.0
2133,72.0,0.0,20.0,2.0,0.0
2134,65.0,0.0,20.0,3.0,0.0
2135,53.0,0.0,20.0,4.0,0.0
2136,41.0,3.0,20.0,5.0,0.0
2137,79.0,12.0,15.0,0.0,0.0
2138,77.0,9.0,15.0,0.0,0.0
2139,77.0,0.0,20.0,1.0,0.0
2140,68.0,0.0,20.0,2.0,0.0
2141,72.0,0.0,20.0,3.0,0.0
2142,56.0,0.0,20.0,4.0,0.0
2143,44.0,3.0,20.0,5.0,0.0
2144,79.0,12.0,15.0,0.0,0.0
2145,80.0,9.0,15.0,0.0,0.0
2146,53.0,0.0,20.0,4.0,0.0
2147,41.0,1.0,20.0,5.0,0.0
2148,77.0,12.0,15.0,0.0,0.0
2149,83.0,8.0,15.0,0.0,0.0
2150,50.0,0.0,40.0,4.0,0.0
2151,38.0,4.0,40.0,5.0,0.0
2152,77.0,6.0,15.0,0.0,0.0
2153,79.0,10.0,15.0,0.0,0.0
2154,80.0,0.0,15.0,0.0,0.0
2155,77.0,0.0,15.0,1.0,0.0
2156,71.0,0.0,15.0,2.0,0.0
2157,74.0,8.0,15.0,3.0,0.0
2158,77.0,0.0,15.0,0.0,0.0
2159,75.0,0.0,15.0,1.0,0.0
2160,72.0,0.0,15.0,2.0,0.0
2161,72.0,2.0,15.0,3.0,0.0
2162,79.0,10.0,15.0,0.0,0.0
2163,80.0,11.0,15.0,0.0,0.0
2164,77.0,0.0,20.0,1.0,0.0
2165,71.0,0.0,20.0,2.0,0.0
2166,74.0,1.0,20.0,3.0,0.0
2167,77.0,12.0,15.0,0.0,0.0
2168,84.0,8.0,15.0,0.0,0.0
2169,48.0,0.0,40.0,4.0,0.0
2170,36.0,4.0,40.0,5.0,0.0
2171,77.0,6.0,15.0,0.0,0.0
2172,79.0,10.0,15.0,0.0,0.0
2173,80.0,0.0,15.0,0.0,0.0
2174,75.0,0.0,15.0,1.0,0.0
2175,72.0,0.0,15.0,2.0,0.0
2176,72.0,8.0,15.0,3.0,0.0
2177,77.0,0.0,15.0,0.0,0.0
2178,74.0,0.0,15.0,1.0,0.0
2179,74.0,0.0,15.0,2.0,0.0
2180,71.0,2.0,15.0,3.0,0.0
2181,79.0,10.0,15.0,0.0,0.0
2182,80.0,11.0,15.0,0.0,0.0
2183,75.0,0.0,20.0,1.0,0.0
2184,72.0,0.0,20.0,2.0,0.0
2185,72.0,1.0,20.0,3.0,0.0
2186,77.0,12.0,15.0,0.0,0.0
2187,86.0,8.0,15.0,0.0,0.0
2188,47.0,0.0,20.0,4.0,0.0
2189,35.0,3.0,20.0,5.0,0.0
2190,77.0,3.0,15.0,0.0,0.0
2191,79.0,10.0,15.0,0.0,0.0
2192,80.0,0.0,15.0,0.0,0.0
2193,74.0,0.0,15.0,1.0,0.0
2194,65.0,1.0,20.0,2.0,0.0
2195,71.0,11.0,15.0,3.0,0.0
2196,77.0,0.0,15.0,0.0,0.0
2197,75.0,0.0,15.0,1.0,0.0
2198,69.0,12.0,15.0,3.0,0.0
2199,74.0,0.0,15.0,0.0,0.0
2200,77.0,11.0,15.0,1.0,0.0
2201,67.0,0.0,20.0,2.0,0.0
2202,71.0,0.0,20.0,3.0,0.0
2203,43.0,0.0,20.0,4.0,0.0
2204,31.0,1.0,20.0,5.0,0.0
2205,79.0,0.0,15.0,0.0,0.0
2206,74.0,14.0,15.0,1.0,0.0
2207,75.0,9.0,15.0,0.0,0.0
2208,75.0,0.0,20.0,1.0,0.0
2209,67.0,0.0,20.0,2.0,0.0
2210,72.0,0.0,20.0,3.0,0.0
2211,48.0,0.0,20.0,4.0,0.0
2212,36.0,3.0,20.0,5.0,0.0
2213,74.0,12.0,15.0,0.0,0.0
2214,72.0,9.0,15.0,0.0,0.0
2215,72.0,0.0,20.0,1.0,0.0
2216,67.0,0.0,20.0,2.0,0.0
2217,63.0,0.0,20.0,3.0,0.0
2218,51.0,0.0,20.0,4.0,0.0
2219,39.0,3.0,20.0,5.0,0.0
2220,74.0,12.0,15.0,0.0,0.0
2221,75.0,9.0,15.0,0.0,0.0
2222,55.0,0.0,20.0,4.0,0.0
2223,43.0,1.0,20.0,5.0,0.0
2224,77.0,12.0,15.0,0.0,0.0
2225,79.0,8.0,15.0,0.0,0.0
2226,84.0,0.0,90.0,1.0,0.0
2227,75.0,12.0,90.0,2.0,0.0
2228,60.0,0.0,20.0,4.0,0.0
2229,48.0,3.0,20.0,5.0,0.0
2230,84.0,3.0,15.0,0.0,0.0
2231,86.0,10.0,15.0,0.0,0.0
2232,87.0,8.0,15.0,0.0,0.0
2233,57.0,0.0,20.0,4.0,0.0
2234,45.0,3.0,20.0,5.0,0.0
2235,84.0,3.0,15.0,0.0,0.0
2236,82.0,10.0,15.0,0.0,0.0
2237,81.0,11.0,15.0,0.0,0.0
2238,53.0,0.0,20.0,4.0,0.0
2239,41.0,1.0,20.0,5.0,0.0
2240,77.0,14.0,15.0,0.0,0.0
2241,70.0,0.0,15.0,0.0,0.0
2242,58.0,0.0,90.0,4.0,0.0
2243,46.0,6.0,90.0,5.0,0.0
2244,77.0,10.0,15.0,0.0,0.0
2245,81.0,11.0,15.0,0.0,0.0
2246,81.0,0.0,20.0,1.0,0.0
2247,72.0,1.0,20.0,2.0,0.0
2248,87.0,12.0,15.0,0.0,0.0
2249,85.0,11.0,15.0,0.0,0.0
2250,77.0,0.0,20.0,1.0,0.0
2251,69.0,1.0,20.0,2.0,0.0
2252,84.0,12.0,15.0,0.0,0.0
2253,77.0,2.0,15.0,0.0,0.0
2254,82.0,0.0,90.0,1.0,0.0
2255,73.0,12.0,90.0,2.0,0.0
2256,82.0,6.0,15.0,0.0,0.0
2257,84.0,10.0,15.0,0.0,0.0
2258,85.0,8.0,15.0,0.0,0.0
2259,55.0,0.0,20.0,4.0,0.0
2260,43.0,3.0,20.0,5.0,0.0
2261,82.0,3.0,15.0,0.0,0.0
2262,80.0,10.0,15.0,0.0,0.0
2263,79.0,11.0,15.0,0.0,0.0
2264,51.0,0.0,20.0,4.0,0.0
2265,39.0,1.0,20.0,5.0,0.0
2266,75.0,14.0,15.0,0.0,0.0
2267,68.0,0.0,15.0,0.0,0.0
2268,56.0,0.0,90.0,4.0,0.0
2269,44.0,6.0,90.0,5.0,0.0
2270,75.0,10.0,15.0,0.0,0.0
2271,79.0,11.0,15.0,0.0,0.0
2272,79.0,0.0,20.0,1.0,0.0
2273,70.0,1.0,20.0,2.0,0.0
2274,85.0,12.0,15.0,0.0,0.0
2275,84.0,11.0,15.0,0.0,0.0
2276,75.0,0.0,20.0,1.0,0.0
2277,67.0,1.0,20.0,2.0,0.0
2278,82.0,12.0,15.0,0.0,0.0
2279,75.0,2.0,15.0,0.0,0.0
2280,80.0,10.0,210.0,1.0,0.0
2281,72.0,4.0,120.0,2.0,0.0
2282,80.0,6.0,15.0,0.0,0.0
2283,82.0,10.0,15.0,0.0,0.0
2284,84.0,8.0,15.0,0.0,0.0
2285,63.0,0.0,20.0,4.0,0.0
2286,51.0,3.0,20.0,5.0,0.0
2287,84.0,3.0,15.0,0.0,0.0
2288,82.0,10.0,15.0,0.0,0.0
2289,80.0,8.0,15.0,0.0,0.0
2290,60.0,0.0,20.0,4.0,0.0
2291,48.0,3.0,20.0,5.0,0.0
2292,80.0,3.0,15.0,0.0,0.0
2293,79.0,10.0,15.0,0.0,0.0
2294,77.0,8.0,15.0,0.0,0.0
2295,56.0,0.0,20.0,4.0,0.0
2296,44.0,3.0,20.0,5.0,0.0
2297,77.0,3.0,15.0,0.0,0.0
2298,79.0,10.0,15.0,0.0,0.0
2299,80.0,8.0,15.0,0.0,0.0
2300,60.0,0.0,20.0,4.0,0.0
2301,48.0,3.0,20.0,5.0,0.0
2302,80.0,3.0,15.0,0.0,0.0
2303,79.0,6.0,15.0,0.0,0.0
2304,77.0,8.0,15.0,0.0,0.0
2305,56.0,0.0,20.0,4.0,0.0
2306,44.0,3.0,20.0,5.0,0.0
2307,77.0,3.0,15.0,0.0,0.0
2308,75.0,10.0,15.0,0.0,0.0
2309,73.0,8.0,15.0,0.0,0.0
2310,77.0,3.0,60.0,2.0,0.0
2311,53.0,0.0,20.0,4.0,0.0
2312,41.0,3.0,20.0,5.0,0.0
2313,72.0,3.0,15.0,0.0,0.0
2314,75.0,10.0,15.0,0.0,0.0
2315,77.0,8.0,15.0,0.0,0.0
2316,56.0,0.0,20.0,4.0,0.0
2317,44.0,3.0,20.0,5.0,0.0
2318,77.0,3.0,15.0,0.0,0.0
2319,75.0,10.0,15.0,0.0,0.0
2320,73.0,5.0,15.0,0.0,0.0
2321,53.0,0.0,20.0,4.0,0.0
2322,41.0,3.0,20.0,5.0,0.0
2323,73.0,3.0,15.0,0.0,0.0
2324,72.0,0.0,15.0,0.0,0.0
2325,71.0,12.0,15.0,0.0,0.0
2326,74.0,1.0,60.0,2.0,0.0
2327,65.0,0.0,30.0,4.0,0.0
2328,53.0,5.0,30.0,5.0,0.0
2329,80.0,8.0,15.0,0.0,0.0
2330,79.0,14.0,60.0,0.0,0.0
2331,71.0,1.0,15.0,1.0,0.0
2332,72.0,6.0,15.0,1.0,0.0
2333,71.0,4.0,15.0,1.0,0.0
2334,68.0,0.0,15.0,4.0,0.0
2335,56.0,2.0,15.0,5.0,0.0
2336,72.0,6.0,15.0,1.0,0.0
2337,71.0,4.0,15.0,1.0,0.0
2338,67.0,0.0,15.0,4.0,0.0
2339,55.0,2.0,15.0,5.0,0.0
2340,72.0,3.0,15.0,1.0,0.0
2341,71.0,4.0,15.0,1.0,0.0
2342,65.0,0.0,15.0,4.0,0.0
2343,53.0,1.0,15.0,5.0,0.0
2344,72.0,2.0,15.0,1.0,0.0
2345,71.0,5.0,15.0,1.0,0.0
2346,63.0,0.0,20.0,4.0,0.0
2347,51.0,3.0,20.0,5.0,0.0
2348,75.0,3.0,15.0,0.0,0.0
2349,77.0,10.0,15.0,0.0,0.0
2350,79.0,11.0,15.0,0.0,0.0
2351,79.0,0.0,20.0,1.0,0.0
2352,75.0,0.0,20.0,2.0,0.0
2353,72.0,0.0,20.0,3.0,0.0
2354,60.0,0.0,20.0,4.0,0.0
2355,48.0,1.0,20.0,5.0,0.0
2356,84.0,12.0,15.0,0.0,0.0
2357,79.0,11.0,15.0,0.0,0.0
2358,84.0,0.0,20.0,1.0,0.0
2359,79.0,0.0,20.0,2.0,0.0
2360,75.0,1.0,20.0,3.0,0.0
2361,75.0,12.0,15.0,0.0,0.0
2362,74.0,8.0,15.0,0.0,0.0
2363,59.0,0.0,20.0,4.0,0.0
2364,47.0,3.0,20.0,5.0,0.0
2365,71.0,3.0,15.0,0.0,0.0
2366,72.0,10.0,15.0,0.0,0.0
2367,74.0,11.0,15.0,0.0,0.0
2368,79.0,0.0,20.0,1.0,0.0
2369,74.0,0.0,20.0,2.0,0.0
2370,71.0,0.0,20.0,3.0,0.0
2371,55.0,0.0,20.0,4.0,0.0
2372,43.0,1.0,20.0,5.0,0.0
2373,77.0,12.0,15.0,0.0,0.0
2374,74.0,11.0,15.0,0.0,0.0
2375,86.0,0.0,20.0,1.0,0.0
2376,77.0,0.0,20.0,2.0,0.0
2377,67.0,1.0,20.0,3.0,0.0
2378,71.0,12.0,15.0,0.0,0.0
2379,67.0,8.0,15.0,0.0,0.0
2380,51.0,0.0,20.0,4.0,0.0
2381,39.0,3.0,20.0,5.0,0.0
2382,63.0,3.0,15.0,0.0,0.0
2383,65.0,10.0,15.0,0.0,0.0
2384,67.0,11.0,15.0,0.0,0.0
2385,79.0,0.0,20.0,1.0,0.0
2386,75.0,0.0,20.0,2.0,0.0
2387,72.0,0.0,20.0,3.0,0.0
2388,48.0,0.0,20.0,4.0,0.0
2389,36.0,1.0,20.0,5.0,0.0
2390,72.0,12.0,15.0,0.0,0.0
2391,67.0,11.0,15.0,0.0,0.0
2392,87.0,0.0,20.0,1.0,0.0
2393,79.0,0.0,20.0,2.0,0.0
2394,60.0,1.0,20.0,3.0,0.0
2395,63.0,12.0,15.0,0.0,0.0
2396,62.0,2.0,15.0,0.0,0.0
2397,86.0,6.0,15.0,1.0,0.0
2398,79.0,3.0,40.0,2.0,0.0
2399,58.0,0.0,20.0,4.0,0.0
2400,46.0,1.0,20.0,5.0,0.0
2401,62.0,3.0,15.0,0.0,0.0
2402,84.0,2.0,15.0,1.0,0.0
2403,63.0,12.0,15.0,0.0,0.0
2404,65.0,14.0,60.0,0.0,0.0
2405,83.0,6.0,15.0,1.0,0.0
2406,59.0,0.0,20.0,3.0,0.0
2407,43.0,0.0,20.0,4.0,0.0
2408,31.0,1.0,20.0,5.0,0.0
2409,81.0,14.0,15.0,1.0,0.0
2410,79.0,9.0,15.0,1.0,0.0
2411,62.0,0.0,20.0,3.0,0.0
2412,45.0,0.0,20.0,4.0,0.0
2413,33.0,1.0,20.0,5.0,0.0
2414,77.0,6.0,15.0,1.0,0.0
2415,80.0,0.0,20.0,1.0,0.0
2416,71.0,0.0,40.0,2.0,0.0
2417,62.0,3.0,40.0,3.0,0.0
2418,47.0,0.0,20.0,4.0,0.0
2419,35.0,3.0,20.0,5.0,0.0
2420,71.0,3.0,15.0,0.0,0.0
2421,69.0,10.0,15.0,0.0,0.0
2422,71.0,8.0,15.0,0.0,0.0
2423,77.0,0.0,20.0,1.0,0.0
2424,50.0,0.0,20.0,4.0,0.0
2425,38.0,3.0,20.0,5.0,0.0
2426,65.0,0.0,15.0,0.0,0.0
2427,63.0,10.0,15.0,0.0,0.0
2428,65.0,8.0,15.0,0.0,0.0
2429,74.0,0.0,20.0,1.0,0.0
2430,53.0,0.0,20.0,4.0,0.0
2431,41.0,3.0,20.0,5.0,0.0
2432,72.0,3.0,15.0,0.0,0.0
2433,71.0,10.0,15.0,0.0,0.0
2434,72.0,8.0,15.0,0.0,0.0
2435,77.0,0.0,20.0,1.0,0.0
2436,72.0,0.0,40.0,2.0,0.0
2437,62.0,3.0,40.0,3.0,0.0
2438,56.0,0.0,20.0,4.0,0.0
2439,44.0,3.0,20.0,5.0,0.0
2440,65.0,3.0,15.0,0.0,0.0
2441,64.0,10.0,15.0,0.0,0.0
2442,65.0,0.0,15.0,0.0,0.0
2443,74.0,1.0,20.0,1.0,0.0
2444,59.0,0.0,15.0,4.0,0.0
2445,47.0,8.0,15.0,5.0,0.0
2446,74.0,0.0,15.0,0.0,0.0
2447,62.0,0.0,15.0,4.0,0.0
2448,50.0,2.0,15.0,5.0,0.0
2449,72.0,10.0,15.0,0.0,0.0
2450,74.0,8.0,15.0,0.0,0.0
2451,71.0,0.0,20.0,1.0,0.0
2452,65.0,0.0,20.0,4.0,0.0
2453,53.0,3.0,20.0,5.0,0.0
2454,63.0,3.0,15.0,0.0,0.0
2455,62.0,10.0,15.0,0.0,0.0
2456,63.0,11.0,15.0,0.0,0.0
2457,63.0,0.0,20.0,1.0,0.0
2458,63.0,0.0,20.0,2.0,0.0
2459,63.0,0.0,20.0,3.0,0.0
2460,51.0,0.0,20.0,4.0,0.0
2461,39.0,1.0,20.0,5.0,0.0
2462,72.0,12.0,15.0,0.0,0.0
2463,68.0,11.0,15.0,0.0,0.0
2464,65.0,0.0,20.0,1.0,0.0
2465,65.0,0.0,20.0,2.0,0.0
2466,65.0,0.0,20.0,3.0,0.0
2467,53.0,0.0,20.0,4.0,0.0
2468,41.0,1.0,20.0,5.0,0.0
2469,65.0,12.0,15.0,0.0,0.0
2470,62.0,8.0,15.0,0.0,0.0
2471,67.0,0.0,20.0,1.0,0.0
2472,67.0,0.0,20.0,2.0,0.0
2473,67.0,0.0,20.0,3.0,0.0
2474,55.0,0.0,20.0,4.0,0.0
2475,43.0,3.0,20.0,5.0,0.0
2476,72.0,3.0,15.0,0.0,0.0
2477,71.0,31.0,15.0,0.0,0.0
2478,72.0,11.0,30.0,0.0,0.0
2479,60.0,0.0,40.0,1.0,0.0
2480,60.0,0.0,40.0,2.0,0.0
2481,60.0,0.0,40.0,3.0,0.0
2482,48.0,0.0,40.0,4.0,0.0
2483,36.0,6.0,40.0,5.0,0.0
2484,75.0,0.0,15.0,0.0,0.0
2485,73.0,6.0,15.0,0.0,0.0
2486,72.0,6.0,15.0,0.0,0.0
2487,70.0,6.0,15.0,0.0,0.0
2488,68.0,5.0,15.0,0.0,0.0
2489,67.0,13.0,15.0,0.0,0.0
2490,68.0,0.0,15.0,0.0,0.0
2491,68.0,12.0,15.0,1.0,0.0
2492,72.0,0.0,40.0,2.0,0.0
2493,63.0,0.0,40.0,3.0,0.0
2494,56.0,0.0,40.0,4.0,0.0
2495,44.0,4.0,40.0,5.0,0.0
2496,70.0,0.0,15.0,0.0,0.0
2497,70.0,12.0,15.0,1.0,0.0
2498,72.0,0.0,15.0,0.0,0.0
2499,72.0,6.0,15.0,1.0,0.0
2500,75.0,0.0,15.0,0.0,0.0
2501,75.0,14.0,15.0,1.0,0.0
2502,80.0,0.0,15.0,0.0,0.0
2503,80.0,24.0,15.0,1.0,0.0
2504,80.0,0.0,15.0,0.0,0.0
2505,80.0,9.0,15.0,1.0,0.0
2506,75.0,0.0,20.0,2.0,0.0
2507,63.0,0.0,20.0,3.0,0.0
2508,60.0,0.0,20.0,4.0,0.0
2509,48.0,1.0,20.0,5.0,0.0
2510,79.0,0.0,15.0,0.0,0.0
2511,79.0,14.0,15.0,1.0,0.0
2512,82.0,0.0,15.0,0.0,0.0
2513,82.0,9.0,15.0,1.0,0.0
2514,73.0,0.0,20.0,2.0,0.0
2515,67.0,0.0,20.0,3.0,0.0
2516,58.0,0.0,20.0,4.0,0.0
2517,46.0,1.0,20.0,5.0,0.0
2518,80.0,0.0,15.0,0.0,0.0
2519,80.0,14.0,15.0,1.0,0.0
2520,79.0,0.0,15.0,0.0,0.0
2521,79.0,9.0,15.0,1.0,0.0
2522,75.0,0.0,20.0,2.0,0.0
2523,72.0,0.0,20.0,3.0,0.0
2524,56.0,0.0,20.0,4.0,0.0
2525,44.0,1.0,20.0,5.0,0.0
2526,77.0,0.0,15.0,0.0,0.0
2527,77.0,14.0,15.0,1.0,0.0
2528,75.0,0.0,15.0,0.0,0.0
2529,75.0,12.0,15.0,1.0,0.0
2530,75.0,0.0,40.0,2.0,0.0
2531,70.0,0.0,40.0,3.0,0.0
2532,55.0,0.0,40.0,4.0,0.0
2533,43.0,4.0,40.0,5.0,0.0
2534,77.0,0.0,15.0,0.0,0.0
2535,77.0,12.0,15.0,1.0,0.0
2536,79.0,0.0,15.0,0.0,0.0
2537,79.0,6.0,15.0,1.0,0.0
2538,82.0,0.0,15.0,0.0,0.0
2539,82.0,14.0,15.0,1.0,0.0
2540,85.0,0.0,15.0,0.0,0.0
2541,85.0,33.0,15.0,1.0,0.0
2542,85.0,0.0,60.0,0.0,0.0
2543,85.0,6.0,60.0,1.0,0.0
2544,75.0,0.0,20.0,2.0,0.0
2545,70.0,0.0,20.0,3.0,0.0
2546,55.0,0.0,20.0,4.0,0.0
2547,43.0,24.0,20.0,5.0,0.0
2548,77.0,0.0,20.0,2.0,0.0
2549,68.0,0.0,20.0,3.0,0.0
2550,53.0,0.0,20.0,4.0,0.0
2551,41.0,18.0,20.0,5.0,0.0
2552,79.0,0.0,20.0,2.0,0.0
2553,70.0,0.0,20.0,3.0,0.0
2554,51.0,0.0,20.0,4.0,0.0
2555,39.0,15.0,20.0,5.0,0.0
2556,84.0,0.0,15.0,0.0,0.0
2557,84.0,9.0,15.0,1.0,0.0
2558,80.0,0.0,20.0,2.0,0.0
2559,63.0,3.0,40.0,3.0,0.0
2560,56.0,0.0,20.0,4.0,0.0
2561,44.0,1.0,20.0,5.0,0.0
2562,82.0,0.0,15.0,0.0,0.0
2563,82.0,14.0,15.0,1.0,0.0
2564,85.0,0.0,15.0,0.0,0.0
2565,85.0,6.0,15.0,1.0,0.0
2566,75.0,0.0,20.0,2.0,0.0
2567,55.0,0.0,20.0,4.0,0.0
2568,43.0,1.0,20.0,5.0,0.0
2569,84.0,0.0,15.0,0.0,0.0
2570,84.0,14.0,15.0,1.0,0.0
2571,82.0,0.0,15.0,0.0,0.0
2572,82.0,9.0,15.0,1.0,0.0
2573,74.0,0.0,20.0,2.0,0.0
2574,67.0,0.0,20.0,3.0,0.0
2575,53.0,0.0,20.0,4.0,0.0
2576,41.0,1.0,20.0,5.0,0.0
2577,80.0,0.0,15.0,0.0,0.0
2578,80.0,14.0,15.0,1.0,0.0
2579,79.0,0.0,15.0,0.0,0.0
2580,79.0,9.0,15.0,1.0,0.0
2581,75.0,0.0,20.0,2.0,0.0
2582,70.0,3.0,40.0,3.0,0.0
2583,51.0,0.0,20.0,4.0,0.0
2584,39.0,1.0,20.0,5.0,0.0
2585,77.0,0.0,15.0,0.0,0.0
2586,77.0,14.0,15.0,1.0,0.0
2587,80.0,0.0,15.0,0.0,0.0
2588,80.0,6.0,15.0,1.0,0.0
2589,70.0,0.0,20.0,2.0,0.0
2590,49.0,0.0,20.0,4.0,0.0
2591,37.0,1.0,20.0,5.0,0.0
2592,79.0,0.0,15.0,0.0,0.0
2593,79.0,14.0,15.0,1.0,0.0
2594,77.0,0.0,15.0,0.0,0.0
2595,77.0,9.0,15.0,1.0,0.0
2596,72.0,0.0,20.0,2.0,0.0
2597,68.0,0.0,20.0,3.0,0.0
2598,48.0,0.0,20.0,4.0,0.0
2599,36.0,1.0,20.0,5.0,0.0
2600,75.0,0.0,15.0,0.0,0.0
2601,75.0,14.0,15.0,1.0,0.0
2602,73.0,0.0,15.0,0.0,0.0
2603,73.0,9.0,15.0,1.0,0.0
2604,73.0,0.0,20.0,2.0,0.0
2605,67.0,0.0,20.0,3.0,0.0
2606,46.0,0.0,20.0,4.0,0.0
2607,34.0,1.0,20.0,5.0,0.0
2608,72.0,0.0,15.0,0.0,0.0
2609,72.0,14.0,15.0,1.0,0.0
2610,75.0,0.0,15.0,0.0,0.0
2611,75.0,9.0,15.0,1.0,0.0
2612,70.0,0.0,20.0,2.0,0.0
2613,70.0,0.0,20.0,3.0,0.0
2614,55.0,0.0,20.0,4.0,0.0
2615,43.0,1.0,20.0,5.0,0.0
2616,73.0,0.0,15.0,0.0,0.0
2617,73.0,14.0,15.0,1.0,0.0
2618,72.0,0.0,15.0,0.0,0.0
2619,72.0,9.0,15.0,1.0,0.0
2620,68.0,0.0,20.0,2.0,0.0
2621,63.0,0.0,20.0,3.0,0.0
2622,56.0,0.0,20.0,4.0,0.0
2623,44.0,1.0,20.0,5.0,0.0
2624,73.0,0.0,15.0,0.0,0.0
2625,73.0,14.0,15.0,1.0,0.0
2626,70.0,0.0,15.0,0.0,0.0
2627,70.0,9.0,15.0,1.0,0.0
2628,67.0,0.0,20.0,2.0,0.0
2629,63.0,3.0,30.0,3.0,0.0
2630,51.0,0.0,20.0,4.0,0.0
2631,39.0,3.0,20.0,5.0,0.0
2632,68.0,0.0,15.0,0.0,0.0
2633,68.0,7.0,15.0,1.0,0.0
2634,70.0,0.0,15.0,0.0,0.0
2635,70.0,11.0,15.0,1.0,0.0
2636,70.0,0.0,20.0,2.0,0.0
2637,55.0,0.0,20.0,4.0,0.0
2638,43.0,1.0,20.0,5.0,0.0
2639,73.0,0.0,15.0,0.0,0.0
2640,73.0,0.0,15.0,1.0,0.0
2641,65.0,12.0,15.0,3.0,0.0
2642,72.0,0.0,15.0,0.0,0.0
2643,72.0,0.0,15.0,1.0,0.0
2644,67.0,0.0,20.0,2.0,0.0
2645,63.0,11.0,15.0,3.0,0.0
2646,51.0,0.0,20.0,4.0,0.0
2647,39.0,1.0,20.0,5.0,0.0
2648,70.0,0.0,15.0,0.0,0.0
2649,70.0,0.0,15.0,1.0,0.0
2650,61.0,14.0,15.0,3.0,0.0
2651,68.0,0.0,15.0,0.0,0.0
2652,68.0,9.0,15.0,1.0,0.0
2653,63.0,0.0,20.0,2.0,0.0
2654,60.0,0.0,20.0,3.0,0.0
2655,44.0,0.0,20.0,4.0,0.0
2656,32.0,3.0,20.0,5.0,0.0
2657,70.0,0.0,15.0,0.0,0.0
2658,70.0,12.0,15.0,1.0,0.0
2659,72.0,0.0,15.0,0.0,0.0
2660,72.0,9.0,15.0,1.0,0.0
2661,75.0,0.0,20.0,2.0,0.0
2662,68.0,0.0,20.0,3.0,0.0
2663,56.0,0.0,20.0,4.0,0.0
2664,44.0,1.0,20.0,5.0,0.0
2665,75.0,0.0,15.0,0.0,0.0
2666,75.0,14.0,15.0,1.0,0.0
2667,80.0,0.0,15.0,0.0,0.0
2668,80.0,9.0,15.0,1.0,0.0
2669,75.0,0.0,20.0,2.0,0.0
2670,72.0,0.0,20.0,3.0,0.0
2671,55.0,0.0,20.0,4.0,0.0
2672,43.0,15.0,20.0,5.0,0.0
2673,80.0,0.0,15.0,0.0,0.0
2674,80.0,9.0,15.0,1.0,0.0
2675,77.0,0.0,20.0,2.0,0.0
2676,72.0,3.0,40.0,3.0,0.0
2677,53.0,0.0,20.0,4.0,0.0
2678,41.0,1.0,20.0,5.0,0.0
2679,79.0,0.0,15.0,0.0,0.0
2680,79.0,14.0,15.0,1.0,0.0
2681,82.0,0.0,15.0,0.0,0.0
2682,82.0,6.0,15.0,1.0,0.0
2683,72.0,0.0,20.0,2.0,0.0
2684,51.0,0.0,20.0,4.0,0.0
2685,39.0,1.0,20.0,5.0,0.0
2686,80.0,0.0,15.0,0.0,0.0
2687,80.0,14.0,15.0,1.0,0.0
2688,79.0,0.0,15.0,0.0,0.0
2689,79.0,9.0,15.0,1.0,0.0
2690,73.0,0.0,20.0,2.0,0.0
2691,70.0,0.0,20.0,3.0,0.0
2692,49.0,0.0,20.0,4.0,0.0
2693,37.0,1.0,20.0,5.0,0.0
2694,77.0,0.0,15.0,0.0,0.0
2695,77.0,14.0,15.0,1.0,0.0
2696,68.0,0.0,15.0,0.0,0.0
2697,68.0,9.0,15.0,1.0,0.0
2698,75.0,0.0,20.0,2.0,0.0
2699,68.0,0.0,20.0,3.0,0.0
2700,48.0,0.0,20.0,4.0,0.0
2701,36.0,3.0,20.0,5.0,0.0
2702,70.0,0.0,15.0,0.0,0.0
2703,70.0,12.0,15.0,1.0,0.0
2704,72.0,0.0,15.0,0.0,0.0
2705,72.0,9.0,15.0,1.0,0.0
2706,78.0,0.0,20.0,2.0,0.0
2707,63.0,0.0,20.0,3.0,0.0
2708,46.0,0.0,20.0,4.0,0.0
2709,34.0,1.0,20.0,5.0,0.0
2710,75.0,0.0,15.0,0.0,0.0
2711,75.0,14.0,15.0,1.0,0.0
2712,78.0,0.0,15.0,0.0,0.0
2713,78.0,9.0,15.0,1.0,0.0
2714,75.0,0.0,20.0,2.0,0.0
2715,60.0,0.0,20.0,3.0,0.0
2716,44.0,0.0,20.0,4.0,0.0
2717,32.0,24.0,20.0,5.0,0.0
2718,78.0,0.0,60.0,0.0,0.0
2719,78.0,0.0,60.0,1.0,0.0
2720,72.0,0.0,20.0,2.0,0.0
2721,56.0,6.0,60.0,3.0,0.0
2722,56.0,0.0,20.0,4.0,0.0
2723,44.0,24.0,20.0,5.0,0.0
2724,73.0,0.0,20.0,2.0,0.0
2725,58.0,0.0,20.0,4.0,0.0
2726,46.0,18.0,20.0,5.0,0.0
2727,75.0,0.0,20.0,2.0,0.0
2728,60.0,0.0,20.0,4.0,0.0
2729,48.0,15.0,20.0,5.0,0.0
2730,77.0,0.0,15.0,0.0,0.0
2731,77.0,9.0,15.0,1.0,0.0
2732,73.0,0.0,20.0,2.0,0.0
2733,68.0,0.0,20.0,3.0,0.0
2734,61.0,0.0,20.0,4.0,0.0
2735,49.0,3.0,20.0,5.0,0.0
2736,80.0,0.0,15.0,0.0,0.0
2737,80.0,12.0,15.0,1.0,0.0
2738,85.0,0.0,15.0,0.0,0.0
2739,85.0,9.0,15.0,1.0,0.0
2740,77.0,0.0,20.0,2.0,0.0
2741,70.0,0.0,20.0,3.0,0.0
2742,58.0,0.0,20.0,4.0,0.0
2743,46.0,3.0,20.0,5.0,0.0
2744,84.0,0.0,15.0,0.0,0.0
2745,84.0,12.0,15.0,1.0,0.0
2746,82.0,0.0,15.0,0.0,0.0
2747,82.0,9.0,15.0,1.0,0.0
2748,77.0,0.0,20.0,2.0,0.0
2749,70.0,0.0,20.0,3.0,0.0
2750,61.0,0.0,20.0,4.0,0.0
2751,49.0,1.0,20.0,5.0,0.0
2752,80.0,0.0,15.0,0.0,0.0
2753,80.0,14.0,15.0,1.0,0.0
2754,79.0,0.0,15.0,0.0,0.0
2755,79.0,9.0,15.0,1.0,0.0
2756,75.0,0.0,20.0,2.0,0.0
2757,70.0,0.0,20.0,3.0,0.0
2758,63.0,0.0,20.0,4.0,0.0
2759,51.0,1.0,20.0,5.0,0.0
2760,77.0,0.0,15.0,0.0,0.0
2761,77.0,14.0,15.0,1.0,0.0
2762,80.0,0.0,15.0,0.0,0.0
2763,80.0,9.0,15.0,1.0,0.0
2764,75.0,0.0,20.0,2.0,0.0
2765,70.0,0.0,20.0,3.0,0.0
2766,65.0,0.0,20.0,4.0,0.0
2767,53.0,1.0,20.0,5.0,0.0
2768,79.0,0.0,15.0,0.0,0.0
2769,79.0,14.0,15.0,1.0,0.0
2770,77.0,0.0,15.0,0.0,0.0
2771,77.0,9.0,15.0,1.0,0.0
2772,75.0,0.0,20.0,2.0,0.0
2773,70.0,0.0,20.0,3.0,0.0
2774,67.0,0.0,20.0,4.0,0.0
2775,55.0,1.0,20.0,5.0,0.0
2776,75.0,0.0,15.0,0.0,0.0
2777,75.0,14.0,15.0,1.0,0.0
2778,84.0,0.0,15.0,0.0,0.0
2779,84.0,9.0,15.0,1.0,0.0
2780,75.0,0.0,20.0,2.0,0.0
2781,68.0,0.0,20.0,3.0,0.0
2782,68.0,0.0,20.0,4.0,0.0
2783,56.0,15.0,20.0,5.0,0.0
2784,85.0,0.0,15.0,0.0,0.0
2785,85.0,9.0,15.0,1.0,0.0
2786,77.0,0.0,20.0,2.0,0.0
2787,68.0,0.0,20.0,3.0,0.0
2788,61.0,0.0,20.0,4.0,0.0
2789,49.0,9.0,20.0,5.0,0.0
2790,84.0,0.0,15.0,0.0,0.0
2791,84.0,6.0,15.0,1.0,0.0
2792,75.0,0.0,20.0,2.0,0.0
2793,67.0,0.0,20.0,3.0,0.0
2794,63.0,0.0,20.0,4.0,0.0
2795,51.0,2.0,20.0,5.0,0.0
2796,82.0,0.0,15.0,0.0,0.0
2797,82.0,6.0,15.0,1.0,0.0
2798,84.0,0.0,15.0,0.0,0.0
2799,84.0,3.0,15.0,1.0,0.0
2800,82.0,0.0,15.0,0.0,0.0
2801,82.0,64.0,15.0,1.0,0.0
2802,80.0,0.0,60.0,0.0,0.0
2803,80.0,0.0,60.0,1.0,0.0
2804,75.0,0.0,60.0,2.0,0.0
2805,72.0,0.0,60.0,3.0,0.0
2806,56.0,0.0,60.0,4.0,0.0
2807,44.0,297.0,60.0,5.0,0.0
