,note,step,duration,channel,velocity
0,65.0,256.0,510.0,5.0,0.0
1,70.0,256.0,270.0,5.0,0.0
2,46.0,256.0,510.0,4.0,0.0
3,72.0,0.0,270.0,5.0,0.0
4,74.0,256.0,270.0,5.0,0.0
5,34.0,0.0,510.0,4.0,0.0
6,72.0,512.0,270.0,5.0,0.0
7,70.0,0.0,510.0,5.0,0.0
8,65.0,256.0,270.0,6.0,0.0
9,67.0,256.0,270.0,6.0,0.0
10,65.0,0.0,510.0,5.0,0.0
11,69.0,256.0,270.0,6.0,0.0
12,65.0,256.0,510.0,5.0,0.0
13,70.0,256.0,270.0,6.0,0.0
14,65.0,0.0,270.0,6.0,0.0
15,67.0,256.0,270.0,6.0,0.0
16,70.0,0.0,270.0,6.0,0.0
17,72.0,0.0,270.0,6.0,0.0
18,69.0,256.0,270.0,6.0,0.0
19,62.0,0.0,15.0,5.0,0.0
20,74.0,0.0,270.0,6.0,0.0
21,70.0,256.0,15.0,6.0,0.0
22,65.0,0.0,270.0,6.0,0.0
23,74.0,0.0,270.0,6.0,0.0
24,70.0,256.0,270.0,6.0,0.0
25,72.0,0.0,270.0,6.0,0.0
26,75.0,0.0,270.0,6.0,0.0
27,58.0,512.0,15.0,5.0,0.0
28,77.0,0.0,510.0,5.0,0.0
29,77.0,0.0,510.0,7.0,0.0
30,74.0,256.0,15.0,6.0,0.0
31,58.0,0.0,510.0,7.0,0.0
32,74.0,256.0,510.0,5.0,0.0
33,77.0,0.0,15.0,6.0,0.0
34,74.0,0.0,510.0,7.0,0.0
35,46.0,256.0,270.0,4.0,0.0
36,45.0,0.0,270.0,4.0,0.0
37,72.0,0.0,510.0,6.0,0.0
38,75.0,0.0,510.0,6.0,0.0
39,53.0,256.0,510.0,7.0,0.0
40,72.0,0.0,510.0,7.0,0.0
41,46.0,0.0,15.0,4.0,0.0
42,75.0,0.0,510.0,7.0,0.0
43,65.0,0.0,15.0,5.0,0.0
44,72.0,0.0,510.0,5.0,0.0
45,75.0,0.0,510.0,5.0,0.0
46,41.0,0.0,510.0,4.0,0.0
47,48.0,0.0,270.0,4.0,0.0
48,65.0,0.0,15.0,5.0,0.0
49,46.0,256.0,510.0,4.0,0.0
50,50.0,256.0,270.0,4.0,0.0
51,74.0,0.0,510.0,6.0,0.0
52,70.0,0.0,510.0,5.0,0.0
53,74.0,0.0,510.0,7.0,0.0
54,74.0,0.0,510.0,5.0,0.0
55,65.0,0.0,510.0,7.0,0.0
56,70.0,0.0,510.0,7.0,0.0
57,51.0,0.0,270.0,4.0,0.0
58,70.0,0.0,510.0,7.0,0.0
59,65.0,0.0,510.0,7.0,0.0
60,70.0,0.0,15.0,6.0,0.0
61,74.0,0.0,510.0,6.0,0.0
62,74.0,0.0,510.0,7.0,0.0
63,41.0,0.0,510.0,4.0,0.0
64,53.0,256.0,270.0,4.0,0.0
65,74.0,0.0,510.0,5.0,0.0
66,70.0,0.0,510.0,5.0,0.0
67,65.0,0.0,510.0,5.0,0.0
68,51.0,256.0,270.0,4.0,0.0
69,69.0,256.0,510.0,6.0,0.0
70,65.0,0.0,510.0,5.0,0.0
71,72.0,0.0,510.0,5.0,0.0
72,72.0,0.0,510.0,6.0,0.0
73,53.0,0.0,510.0,7.0,0.0
74,72.0,0.0,510.0,7.0,0.0
75,69.0,0.0,510.0,7.0,0.0
76,53.0,256.0,270.0,4.0,0.0
77,41.0,0.0,510.0,4.0,0.0
78,55.0,0.0,270.0,4.0,0.0
79,53.0,256.0,270.0,4.0,0.0
80,51.0,256.0,270.0,4.0,0.0
81,50.0,256.0,270.0,4.0,0.0
82,65.0,256.0,510.0,5.0,0.0
83,48.0,0.0,270.0,4.0,0.0
84,46.0,512.0,510.0,4.0,0.0
85,70.0,256.0,270.0,5.0,0.0
86,72.0,0.0,270.0,5.0,0.0
87,74.0,256.0,780.0,5.0,0.0
88,34.0,0.0,510.0,4.0,0.0
89,70.0,256.0,510.0,6.0,0.0
90,70.0,256.0,510.0,6.0,0.0
91,75.0,0.0,270.0,5.0,0.0
92,74.0,256.0,270.0,5.0,0.0
93,72.0,0.0,270.0,5.0,0.0
94,65.0,256.0,15.0,6.0,0.0
95,70.0,0.0,15.0,6.0,0.0
96,74.0,256.0,270.0,5.0,0.0
97,72.0,512.0,270.0,5.0,0.0
98,70.0,256.0,780.0,5.0,0.0
99,65.0,0.0,15.0,6.0,0.0
100,62.0,0.0,15.0,6.0,0.0
101,65.0,256.0,15.0,6.0,0.0
102,65.0,0.0,270.0,5.0,0.0
103,70.0,256.0,270.0,5.0,0.0
104,62.0,256.0,15.0,6.0,0.0
105,72.0,256.0,270.0,5.0,0.0
106,62.0,0.0,15.0,6.0,0.0
107,58.0,0.0,15.0,6.0,0.0
108,74.0,256.0,270.0,5.0,0.0
109,70.0,0.0,270.0,5.0,0.0
110,74.0,0.0,510.0,6.0,0.0
111,77.0,0.0,510.0,5.0,0.0
112,74.0,0.0,510.0,5.0,0.0
113,65.0,0.0,510.0,5.0,0.0
114,77.0,0.0,510.0,7.0,0.0
115,74.0,256.0,510.0,7.0,0.0
116,77.0,0.0,510.0,6.0,0.0
117,46.0,256.0,270.0,4.0,0.0
118,58.0,0.0,510.0,7.0,0.0
119,45.0,0.0,270.0,4.0,0.0
120,75.0,0.0,510.0,7.0,0.0
121,75.0,256.0,510.0,5.0,0.0
122,72.0,0.0,510.0,5.0,0.0
123,46.0,0.0,15.0,4.0,0.0
124,41.0,0.0,510.0,4.0,0.0
125,75.0,0.0,510.0,6.0,0.0
126,72.0,0.0,510.0,6.0,0.0
127,53.0,0.0,510.0,7.0,0.0
128,72.0,0.0,510.0,7.0,0.0
129,48.0,0.0,270.0,4.0,0.0
130,74.0,0.0,510.0,6.0,0.0
131,70.0,0.0,510.0,7.0,0.0
132,65.0,0.0,510.0,7.0,0.0
133,65.0,0.0,15.0,5.0,0.0
134,70.0,0.0,510.0,6.0,0.0
135,74.0,0.0,510.0,7.0,0.0
136,46.0,256.0,510.0,4.0,0.0
137,70.0,0.0,510.0,5.0,0.0
138,50.0,256.0,270.0,4.0,0.0
139,74.0,0.0,510.0,5.0,0.0
140,51.0,0.0,270.0,4.0,0.0
141,70.0,0.0,510.0,6.0,0.0
142,74.0,0.0,510.0,7.0,0.0
143,70.0,0.0,510.0,7.0,0.0
144,74.0,256.0,510.0,5.0,0.0
145,74.0,0.0,510.0,6.0,0.0
146,70.0,0.0,510.0,5.0,0.0
147,65.0,0.0,15.0,5.0,0.0
148,65.0,0.0,510.0,7.0,0.0
149,53.0,256.0,270.0,4.0,0.0
150,51.0,0.0,270.0,4.0,0.0
151,53.0,256.0,270.0,4.0,0.0
152,41.0,0.0,15.0,4.0,0.0
153,53.0,0.0,510.0,7.0,0.0
154,72.0,0.0,510.0,6.0,0.0
155,69.0,0.0,510.0,6.0,0.0
156,69.0,0.0,510.0,7.0,0.0
157,72.0,0.0,510.0,7.0,0.0
158,65.0,0.0,510.0,5.0,0.0
159,72.0,0.0,510.0,5.0,0.0
160,55.0,0.0,270.0,4.0,0.0
161,53.0,256.0,270.0,4.0,0.0
162,51.0,256.0,270.0,4.0,0.0
163,50.0,256.0,270.0,4.0,0.0
164,77.0,256.0,510.0,5.0,0.0
165,48.0,0.0,270.0,4.0,0.0
166,46.0,256.0,510.0,4.0,0.0
167,74.0,256.0,15.0,5.0,0.0
168,75.0,256.0,270.0,5.0,0.0
169,72.0,0.0,510.0,6.0,0.0
170,65.0,0.0,510.0,6.0,0.0
171,45.0,256.0,510.0,4.0,0.0
172,77.0,0.0,270.0,5.0,0.0
173,74.0,0.0,510.0,6.0,0.0
174,65.0,0.0,510.0,6.0,0.0
175,74.0,256.0,270.0,5.0,0.0
176,46.0,0.0,510.0,4.0,0.0
177,74.0,256.0,270.0,5.0,0.0
178,45.0,512.0,510.0,4.0,0.0
179,75.0,256.0,270.0,5.0,0.0
180,72.0,0.0,510.0,7.0,0.0
181,65.0,0.0,510.0,7.0,0.0
182,77.0,0.0,270.0,5.0,0.0
183,74.0,0.0,510.0,5.0,0.0
184,65.0,0.0,510.0,7.0,0.0
185,74.0,0.0,510.0,7.0,0.0
186,46.0,0.0,15.0,4.0,0.0
187,58.0,0.0,270.0,4.0,0.0
188,70.0,256.0,15.0,7.0,0.0
189,74.0,0.0,270.0,5.0,0.0
190,70.0,0.0,270.0,5.0,0.0
191,79.0,0.0,510.0,5.0,0.0
192,74.0,0.0,270.0,7.0,0.0
193,79.0,0.0,270.0,6.0,0.0
194,79.0,0.0,270.0,7.0,0.0
195,74.0,0.0,270.0,6.0,0.0
196,72.0,0.0,270.0,7.0,0.0
197,77.0,0.0,270.0,7.0,0.0
198,72.0,0.0,270.0,6.0,0.0
199,57.0,512.0,270.0,4.0,0.0
200,46.0,0.0,15.0,4.0,0.0
201,65.0,0.0,270.0,7.0,0.0
202,72.0,0.0,270.0,5.0,0.0
203,65.0,0.0,270.0,5.0,0.0
204,77.0,0.0,270.0,6.0,0.0
205,79.0,0.0,510.0,6.0,0.0
206,74.0,0.0,510.0,6.0,0.0
207,79.0,0.0,510.0,7.0,0.0
208,58.0,0.0,510.0,4.0,0.0
209,46.0,0.0,15.0,4.0,0.0
210,74.0,0.0,510.0,5.0,0.0
211,62.0,0.0,510.0,5.0,0.0
212,62.0,0.0,510.0,7.0,0.0
213,74.0,0.0,510.0,7.0,0.0
214,77.0,0.0,270.0,5.0,0.0
215,75.0,256.0,270.0,5.0,0.0
216,55.0,0.0,510.0,4.0,0.0
217,74.0,256.0,270.0,5.0,0.0
218,45.0,0.0,510.0,4.0,0.0
219,72.0,256.0,270.0,5.0,0.0
220,72.0,256.0,270.0,5.0,0.0
221,43.0,0.0,510.0,4.0,0.0
222,70.0,256.0,510.0,6.0,0.0
223,74.0,256.0,270.0,5.0,0.0
224,75.0,0.0,270.0,5.0,0.0
225,72.0,256.0,270.0,5.0,0.0
226,65.0,0.0,15.0,6.0,0.0
227,72.0,256.0,510.0,6.0,0.0
228,45.0,0.0,510.0,4.0,0.0
229,72.0,0.0,270.0,5.0,0.0
230,70.0,0.0,510.0,7.0,0.0
231,74.0,256.0,270.0,5.0,0.0
232,67.0,0.0,510.0,7.0,0.0
233,65.0,0.0,510.0,7.0,0.0
234,43.0,0.0,510.0,4.0,0.0
235,75.0,512.0,270.0,5.0,0.0
236,45.0,256.0,510.0,4.0,0.0
237,60.0,0.0,510.0,7.0,0.0
238,65.0,0.0,510.0,7.0,0.0
239,72.0,0.0,15.0,5.0,0.0
240,77.0,512.0,510.0,5.0,0.0
241,65.0,0.0,270.0,5.0,0.0
242,72.0,256.0,270.0,6.0,0.0
243,57.0,0.0,270.0,4.0,0.0
244,41.0,0.0,270.0,4.0,0.0
245,53.0,0.0,270.0,7.0,0.0
246,72.0,0.0,15.0,7.0,0.0
247,77.0,0.0,270.0,7.0,0.0
248,77.0,0.0,270.0,6.0,0.0
249,55.0,0.0,270.0,4.0,0.0
250,55.0,0.0,270.0,7.0,0.0
251,70.0,0.0,270.0,7.0,0.0
252,75.0,0.0,270.0,7.0,0.0
253,70.0,0.0,270.0,5.0,0.0
254,65.0,0.0,270.0,5.0,0.0
255,70.0,0.0,270.0,6.0,0.0
256,75.0,0.0,270.0,6.0,0.0
257,57.0,0.0,510.0,4.0,0.0
258,41.0,0.0,15.0,4.0,0.0
259,53.0,0.0,510.0,7.0,0.0
260,72.0,0.0,510.0,7.0,0.0
261,77.0,256.0,510.0,7.0,0.0
262,77.0,0.0,510.0,6.0,0.0
263,72.0,0.0,510.0,6.0,0.0
264,72.0,0.0,510.0,5.0,0.0
265,65.0,0.0,510.0,5.0,0.0
266,75.0,0.0,270.0,5.0,0.0
267,53.0,256.0,510.0,4.0,0.0
268,74.0,256.0,270.0,5.0,0.0
269,72.0,0.0,270.0,5.0,0.0
270,70.0,256.0,270.0,5.0,0.0
271,62.0,0.0,2040.0,7.0,0.0
272,43.0,0.0,510.0,4.0,0.0
273,70.0,0.0,4620.0,7.0,0.0
274,67.0,256.0,4620.0,7.0,0.0
275,82.0,256.0,270.0,5.0,0.0
276,81.0,256.0,270.0,5.0,0.0
277,55.0,256.0,510.0,4.0,0.0
278,79.0,0.0,270.0,5.0,0.0
279,70.0,256.0,270.0,5.0,0.0
280,70.0,0.0,15.0,6.0,0.0
281,74.0,0.0,15.0,6.0,0.0
282,53.0,0.0,510.0,4.0,0.0
283,81.0,0.0,270.0,5.0,0.0
284,79.0,256.0,270.0,5.0,0.0
285,70.0,0.0,15.0,6.0,0.0
286,74.0,256.0,15.0,6.0,0.0
287,41.0,0.0,510.0,4.0,0.0
288,77.0,0.0,270.0,5.0,0.0
289,39.0,256.0,510.0,4.0,0.0
290,70.0,256.0,270.0,5.0,0.0
291,55.0,0.0,1020.0,7.0,0.0
292,79.0,0.0,270.0,5.0,0.0
293,77.0,256.0,270.0,5.0,0.0
294,51.0,256.0,510.0,4.0,0.0
295,75.0,0.0,510.0,6.0,0.0
296,70.0,0.0,510.0,6.0,0.0
297,75.0,0.0,270.0,5.0,0.0
298,58.0,256.0,1020.0,7.0,0.0
299,70.0,256.0,270.0,5.0,0.0
300,50.0,256.0,510.0,4.0,0.0
301,77.0,0.0,270.0,5.0,0.0
302,77.0,0.0,15.0,6.0,0.0
303,75.0,256.0,270.0,5.0,0.0
304,74.0,0.0,15.0,6.0,0.0
305,38.0,0.0,510.0,4.0,0.0
306,74.0,0.0,270.0,5.0,0.0
307,36.0,256.0,270.0,4.0,0.0
308,75.0,0.0,510.0,5.0,0.0
309,38.0,0.0,270.0,4.0,0.0
310,39.0,0.0,270.0,4.0,0.0
311,55.0,0.0,510.0,7.0,0.0
312,60.0,0.0,15.0,7.0,0.0
313,75.0,0.0,270.0,6.0,0.0
314,79.0,256.0,270.0,6.0,0.0
315,79.0,0.0,510.0,7.0,0.0
316,41.0,256.0,270.0,4.0,0.0
317,77.0,0.0,270.0,6.0,0.0
318,74.0,0.0,270.0,6.0,0.0
319,62.0,0.0,270.0,7.0,0.0
320,75.0,0.0,510.0,7.0,0.0
321,63.0,0.0,270.0,7.0,0.0
322,75.0,0.0,510.0,6.0,0.0
323,72.0,0.0,510.0,6.0,0.0
324,72.0,0.0,15.0,5.0,0.0
325,43.0,256.0,270.0,4.0,0.0
326,60.0,0.0,270.0,7.0,0.0
327,45.0,256.0,270.0,4.0,0.0
328,46.0,256.0,270.0,4.0,0.0
329,62.0,0.0,270.0,7.0,0.0
330,70.0,0.0,510.0,7.0,0.0
331,63.0,0.0,270.0,7.0,0.0
332,43.0,0.0,270.0,4.0,0.0
333,65.0,0.0,15.0,5.0,0.0
334,65.0,256.0,15.0,7.0,0.0
335,45.0,0.0,270.0,4.0,0.0
336,60.0,256.0,270.0,7.0,0.0
337,65.0,0.0,15.0,5.0,0.0
338,41.0,0.0,15.0,4.0,0.0
339,72.0,0.0,270.0,5.0,0.0
340,45.0,256.0,270.0,4.0,0.0
341,75.0,256.0,510.0,5.0,0.0
342,65.0,0.0,270.0,7.0,0.0
343,65.0,0.0,510.0,6.0,0.0
344,75.0,0.0,270.0,6.0,0.0
345,72.0,0.0,270.0,5.0,0.0
346,65.0,0.0,270.0,5.0,0.0
347,74.0,0.0,270.0,6.0,0.0
348,41.0,0.0,270.0,4.0,0.0
349,48.0,0.0,270.0,4.0,0.0
350,69.0,0.0,270.0,7.0,0.0
351,69.0,256.0,510.0,6.0,0.0
352,75.0,0.0,510.0,6.0,0.0
353,53.0,0.0,510.0,4.0,0.0
354,72.0,0.0,510.0,5.0,0.0
355,65.0,0.0,510.0,5.0,0.0
356,72.0,0.0,15.0,7.0,0.0
357,69.0,0.0,270.0,7.0,0.0
358,41.0,0.0,15.0,4.0,0.0
359,60.0,0.0,15.0,7.0,0.0
360,72.0,0.0,510.0,7.0,0.0
361,65.0,256.0,270.0,7.0,0.0
362,77.0,0.0,510.0,5.0,0.0
363,72.0,0.0,510.0,5.0,0.0
364,72.0,0.0,510.0,6.0,0.0
365,77.0,0.0,510.0,6.0,0.0
366,45.0,0.0,510.0,4.0,0.0
367,77.0,0.0,270.0,7.0,0.0
368,75.0,0.0,270.0,5.0,0.0
369,62.0,0.0,510.0,7.0,0.0
370,65.0,0.0,510.0,7.0,0.0
371,70.0,0.0,510.0,5.0,0.0
372,75.0,0.0,270.0,7.0,0.0
373,75.0,256.0,270.0,6.0,0.0
374,65.0,256.0,15.0,5.0,0.0
375,46.0,0.0,510.0,4.0,0.0
376,74.0,0.0,270.0,5.0,0.0
377,74.0,0.0,270.0,6.0,0.0
378,74.0,0.0,270.0,7.0,0.0
379,70.0,0.0,15.0,6.0,0.0
380,72.0,0.0,270.0,6.0,0.0
381,58.0,0.0,270.0,5.0,0.0
382,72.0,0.0,270.0,5.0,0.0
383,62.0,0.0,510.0,7.0,0.0
384,46.0,0.0,15.0,4.0,0.0
385,43.0,0.0,510.0,4.0,0.0
386,72.0,0.0,270.0,7.0,0.0
387,74.0,0.0,510.0,5.0,0.0
388,70.0,0.0,270.0,5.0,0.0
389,70.0,0.0,270.0,7.0,0.0
390,46.0,0.0,270.0,4.0,0.0
391,79.0,0.0,510.0,5.0,0.0
392,70.0,0.0,15.0,6.0,0.0
393,58.0,0.0,15.0,5.0,0.0
394,74.0,0.0,510.0,6.0,0.0
395,55.0,0.0,510.0,7.0,0.0
396,46.0,0.0,510.0,4.0,0.0
397,74.0,0.0,510.0,7.0,0.0
398,39.0,0.0,510.0,4.0,0.0
399,74.0,0.0,510.0,5.0,0.0
400,67.0,512.0,15.0,7.0,0.0
401,72.0,0.0,510.0,7.0,0.0
402,69.0,0.0,510.0,6.0,0.0
403,72.0,0.0,510.0,6.0,0.0
404,65.0,0.0,510.0,5.0,0.0
405,41.0,0.0,510.0,4.0,0.0
406,69.0,0.0,510.0,7.0,0.0
407,72.0,0.0,510.0,5.0,0.0
408,60.0,0.0,510.0,7.0,0.0
409,77.0,256.0,270.0,5.0,0.0
410,75.0,512.0,270.0,5.0,0.0
411,70.0,0.0,510.0,7.0,0.0
412,62.0,0.0,510.0,7.0,0.0
413,67.0,0.0,510.0,7.0,0.0
414,58.0,0.0,510.0,5.0,0.0
415,46.0,256.0,510.0,4.0,0.0
416,70.0,0.0,510.0,6.0,0.0
417,43.0,0.0,510.0,4.0,0.0
418,70.0,128.0,1290.0,5.0,0.0
419,74.0,0.0,510.0,5.0,0.0
420,82.0,0.0,270.0,7.0,0.0
421,82.0,256.0,270.0,6.0,0.0
422,55.0,0.0,270.0,4.0,0.0
423,53.0,256.0,270.0,4.0,0.0
424,81.0,0.0,270.0,7.0,0.0
425,81.0,0.0,270.0,6.0,0.0
426,82.0,0.0,510.0,7.0,0.0
427,82.0,256.0,510.0,6.0,0.0
428,55.0,0.0,510.0,4.0,0.0
429,72.0,128.0,120.0,5.0,0.0
430,74.0,0.0,120.0,5.0,0.0
431,75.0,128.0,270.0,5.0,0.0
432,43.0,0.0,510.0,4.0,0.0
433,75.0,0.0,510.0,7.0,0.0
434,70.0,0.0,510.0,6.0,0.0
435,67.0,0.0,510.0,7.0,0.0
436,74.0,128.0,120.0,5.0,0.0
437,72.0,512.0,120.0,5.0,0.0
438,65.0,0.0,510.0,7.0,0.0
439,77.0,0.0,510.0,7.0,0.0
440,70.0,0.0,15.0,7.0,0.0
441,70.0,0.0,510.0,6.0,0.0
442,46.0,0.0,510.0,4.0,0.0
443,38.0,0.0,510.0,4.0,0.0
444,77.0,0.0,510.0,5.0,0.0
445,70.0,128.0,1290.0,5.0,0.0
446,65.0,0.0,510.0,6.0,0.0
447,62.0,0.0,510.0,5.0,0.0
448,50.0,0.0,270.0,4.0,0.0
449,77.0,256.0,270.0,6.0,0.0
450,77.0,0.0,270.0,7.0,0.0
451,75.0,256.0,270.0,7.0,0.0
452,48.0,0.0,270.0,4.0,0.0
453,75.0,0.0,270.0,6.0,0.0
454,50.0,0.0,510.0,4.0,0.0
455,77.0,256.0,510.0,7.0,0.0
456,72.0,128.0,120.0,5.0,0.0
457,74.0,0.0,120.0,5.0,0.0
458,65.0,0.0,510.0,7.0,0.0
459,77.0,0.0,15.0,6.0,0.0
460,70.0,0.0,510.0,6.0,0.0
461,68.0,0.0,510.0,7.0,0.0
462,70.0,0.0,510.0,7.0,0.0
463,46.0,256.0,510.0,4.0,0.0
464,75.0,128.0,270.0,5.0,0.0
465,74.0,128.0,120.0,5.0,0.0
466,72.0,0.0,120.0,5.0,0.0
467,67.0,0.0,510.0,7.0,0.0
468,63.0,0.0,510.0,7.0,0.0
469,75.0,256.0,510.0,6.0,0.0
470,79.0,0.0,510.0,6.0,0.0
471,79.0,0.0,510.0,7.0,0.0
472,51.0,0.0,510.0,4.0,0.0
473,70.0,128.0,270.0,5.0,0.0
474,72.0,128.0,120.0,5.0,0.0
475,74.0,0.0,120.0,5.0,0.0
476,75.0,128.0,270.0,5.0,0.0
477,39.0,0.0,510.0,4.0,0.0
478,74.0,128.0,120.0,5.0,0.0
479,72.0,256.0,120.0,5.0,0.0
480,70.0,128.0,270.0,5.0,0.0
481,70.0,0.0,510.0,6.0,0.0
482,38.0,0.0,510.0,4.0,0.0
483,77.0,0.0,510.0,6.0,0.0
484,70.0,256.0,510.0,7.0,0.0
485,77.0,0.0,510.0,7.0,0.0
486,65.0,0.0,510.0,7.0,0.0
487,72.0,128.0,120.0,5.0,0.0
488,74.0,0.0,120.0,5.0,0.0
489,50.0,0.0,510.0,4.0,0.0
490,75.0,128.0,270.0,5.0,0.0
491,74.0,128.0,120.0,5.0,0.0
492,72.0,512.0,120.0,5.0,0.0
493,67.0,0.0,510.0,7.0,0.0
494,72.0,0.0,510.0,7.0,0.0
495,76.0,0.0,510.0,6.0,0.0
496,76.0,0.0,510.0,7.0,0.0
497,70.0,256.0,510.0,5.0,0.0
498,48.0,0.0,510.0,4.0,0.0
499,70.0,0.0,15.0,6.0,0.0
500,36.0,0.0,510.0,4.0,0.0
501,70.0,256.0,270.0,7.0,0.0
502,76.0,512.0,510.0,5.0,0.0
503,69.0,0.0,270.0,7.0,0.0
504,69.0,0.0,270.0,6.0,0.0
505,67.0,0.0,510.0,6.0,0.0
506,64.0,256.0,510.0,6.0,0.0
507,34.0,0.0,510.0,4.0,0.0
508,72.0,0.0,510.0,7.0,0.0
509,67.0,0.0,510.0,7.0,0.0
510,79.0,0.0,270.0,5.0,0.0
511,79.0,0.0,510.0,6.0,0.0
512,79.0,256.0,510.0,7.0,0.0
513,77.0,256.0,270.0,5.0,0.0
514,46.0,0.0,510.0,4.0,0.0
515,76.0,0.0,270.0,5.0,0.0
516,77.0,0.0,510.0,5.0,0.0
517,60.0,0.0,510.0,6.0,0.0
518,77.0,0.0,510.0,6.0,0.0
519,77.0,0.0,510.0,7.0,0.0
520,72.0,0.0,510.0,7.0,0.0
521,60.0,256.0,510.0,7.0,0.0
522,45.0,256.0,270.0,4.0,0.0
523,58.0,0.0,270.0,4.0,0.0
524,65.0,0.0,270.0,7.0,0.0
525,65.0,0.0,510.0,5.0,0.0
526,57.0,256.0,270.0,4.0,0.0
527,65.0,0.0,270.0,6.0,0.0
528,67.0,0.0,270.0,6.0,0.0
529,67.0,256.0,270.0,7.0,0.0
530,55.0,0.0,270.0,4.0,0.0
531,72.0,0.0,510.0,7.0,0.0
532,53.0,256.0,270.0,4.0,0.0
533,69.0,0.0,510.0,6.0,0.0
534,72.0,0.0,510.0,6.0,0.0
535,65.0,256.0,510.0,7.0,0.0
536,69.0,0.0,510.0,7.0,0.0
537,51.0,0.0,270.0,4.0,0.0
538,75.0,256.0,510.0,6.0,0.0
539,75.0,0.0,510.0,7.0,0.0
540,75.0,0.0,510.0,5.0,0.0
541,50.0,256.0,270.0,4.0,0.0
542,48.0,0.0,270.0,4.0,0.0
543,74.0,0.0,510.0,7.0,0.0
544,65.0,0.0,510.0,7.0,0.0
545,65.0,0.0,510.0,6.0,0.0
546,46.0,256.0,270.0,4.0,0.0
547,74.0,0.0,510.0,5.0,0.0
548,45.0,0.0,270.0,4.0,0.0
549,43.0,0.0,270.0,4.0,0.0
550,82.0,0.0,510.0,7.0,0.0
551,74.0,0.0,510.0,7.0,0.0
552,82.0,0.0,510.0,5.0,0.0
553,74.0,0.0,510.0,5.0,0.0
554,70.0,0.0,510.0,5.0,0.0
555,74.0,256.0,15.0,6.0,0.0
556,67.0,0.0,510.0,7.0,0.0
557,82.0,0.0,510.0,6.0,0.0
558,41.0,512.0,270.0,4.0,0.0
559,46.0,256.0,15.0,4.0,0.0
560,79.0,0.0,510.0,5.0,0.0
561,75.0,0.0,510.0,5.0,0.0
562,72.0,0.0,510.0,5.0,0.0
563,39.0,0.0,510.0,4.0,0.0
564,46.0,0.0,15.0,4.0,0.0
565,75.0,0.0,510.0,6.0,0.0
566,60.0,512.0,510.0,7.0,0.0
567,75.0,0.0,510.0,7.0,0.0
568,41.0,0.0,510.0,4.0,0.0
569,72.0,0.0,15.0,6.0,0.0
570,81.0,0.0,510.0,6.0,0.0
571,72.0,0.0,15.0,7.0,0.0
572,81.0,512.0,510.0,7.0,0.0
573,81.0,0.0,510.0,5.0,0.0
574,72.0,0.0,510.0,5.0,0.0
575,65.0,0.0,510.0,7.0,0.0
576,82.0,0.0,1020.0,5.0,0.0
577,74.0,0.0,1020.0,7.0,0.0
578,34.0,256.0,510.0,4.0,0.0
579,70.0,0.0,1020.0,7.0,0.0
580,65.0,0.0,1020.0,7.0,0.0
581,74.0,0.0,1020.0,5.0,0.0
582,77.0,0.0,15.0,5.0,0.0
583,70.0,0.0,1020.0,6.0,0.0
584,46.0,256.0,270.0,4.0,0.0
585,48.0,256.0,270.0,4.0,0.0
586,62.0,0.0,1020.0,6.0,0.0
587,53.0,0.0,1020.0,2.0,0.0
588,46.0,0.0,1020.0,3.0,0.0
589,58.0,0.0,1020.0,1.0,0.0
590,62.0,0.0,1020.0,0.0,0.0
591,46.0,256.0,270.0,4.0,0.0
592,62.0,0.0,270.0,7.0,0.0
593,44.0,0.0,270.0,4.0,0.0
594,43.0,0.0,270.0,4.0,0.0
595,63.0,0.0,270.0,7.0,0.0
596,65.0,0.0,270.0,7.0,0.0
597,41.0,0.0,270.0,4.0,0.0
598,55.0,0.0,510.0,2.0,0.0
599,39.0,0.0,510.0,4.0,0.0
600,58.0,256.0,510.0,1.0,0.0
601,67.0,0.0,1020.0,0.0,0.0
602,58.0,0.0,270.0,7.0,0.0
603,67.0,0.0,1020.0,6.0,0.0
604,51.0,0.0,1020.0,3.0,0.0
605,67.0,0.0,270.0,7.0,0.0
606,57.0,0.0,510.0,2.0,0.0
607,65.0,0.0,270.0,7.0,0.0
608,51.0,0.0,510.0,4.0,0.0
609,60.0,0.0,510.0,1.0,0.0
610,63.0,0.0,270.0,7.0,0.0
611,58.0,0.0,1020.0,2.0,0.0
612,65.0,0.0,1020.0,6.0,0.0
613,65.0,0.0,1020.0,0.0,0.0
614,62.0,0.0,1020.0,1.0,0.0
615,50.0,256.0,1020.0,3.0,0.0
616,58.0,0.0,270.0,7.0,0.0
617,50.0,0.0,510.0,4.0,0.0
618,65.0,0.0,270.0,7.0,0.0
619,38.0,0.0,510.0,4.0,0.0
620,63.0,0.0,270.0,7.0,0.0
621,62.0,0.0,270.0,7.0,0.0
622,58.0,0.0,270.0,7.0,0.0
623,51.0,0.0,1020.0,2.0,0.0
624,55.0,0.0,510.0,1.0,0.0
625,63.0,0.0,1020.0,6.0,0.0
626,43.0,0.0,510.0,4.0,0.0
627,63.0,0.0,1020.0,0.0,0.0
628,55.0,0.0,1020.0,3.0,0.0
629,63.0,0.0,270.0,7.0,0.0
630,62.0,0.0,270.0,7.0,0.0
631,55.0,0.0,510.0,4.0,0.0
632,57.0,0.0,510.0,1.0,0.0
633,60.0,0.0,270.0,7.0,0.0
634,62.0,0.0,1020.0,0.0,0.0
635,53.0,0.0,510.0,4.0,0.0
636,62.0,0.0,1020.0,6.0,0.0
637,53.0,256.0,1020.0,3.0,0.0
638,53.0,0.0,1020.0,2.0,0.0
639,58.0,0.0,270.0,7.0,0.0
640,62.0,0.0,270.0,7.0,0.0
641,41.0,0.0,510.0,4.0,0.0
642,60.0,0.0,270.0,7.0,0.0
643,58.0,0.0,270.0,7.0,0.0
644,58.0,0.0,15.0,1.0,0.0
645,39.0,0.0,510.0,4.0,0.0
646,55.0,0.0,510.0,2.0,0.0
647,60.0,0.0,2040.0,0.0,0.0
648,60.0,0.0,2040.0,6.0,0.0
649,51.0,0.0,1020.0,3.0,0.0
650,60.0,0.0,270.0,7.0,0.0
651,70.0,0.0,270.0,7.0,0.0
652,51.0,0.0,510.0,4.0,0.0
653,51.0,256.0,510.0,2.0,0.0
654,69.0,0.0,270.0,7.0,0.0
655,67.0,0.0,270.0,7.0,0.0
656,65.0,0.0,270.0,7.0,0.0
657,53.0,0.0,510.0,4.0,0.0
658,53.0,0.0,1020.0,3.0,0.0
659,57.0,0.0,1020.0,1.0,0.0
660,48.0,0.0,510.0,2.0,0.0
661,63.0,0.0,270.0,7.0,0.0
662,77.0,256.0,270.0,5.0,0.0
663,41.0,0.0,510.0,4.0,0.0
664,53.0,256.0,510.0,2.0,0.0
665,62.0,0.0,270.0,7.0,0.0
666,75.0,0.0,270.0,5.0,0.0
667,60.0,0.0,270.0,7.0,0.0
668,62.0,0.0,1020.0,0.0,0.0
669,58.0,0.0,1020.0,1.0,0.0
670,46.0,0.0,510.0,4.0,0.0
671,58.0,0.0,1020.0,7.0,0.0
672,46.0,0.0,1020.0,3.0,0.0
673,74.0,256.0,270.0,5.0,0.0
674,62.0,0.0,1020.0,6.0,0.0
675,53.0,0.0,1020.0,2.0,0.0
676,72.0,256.0,270.0,5.0,0.0
677,70.0,0.0,270.0,5.0,0.0
678,50.0,256.0,270.0,4.0,0.0
679,48.0,0.0,270.0,4.0,0.0
680,72.0,0.0,270.0,5.0,0.0
681,74.0,256.0,270.0,5.0,0.0
682,46.0,0.0,510.0,4.0,0.0
683,75.0,256.0,270.0,5.0,0.0
684,74.0,256.0,270.0,5.0,0.0
685,45.0,0.0,510.0,4.0,0.0
686,62.0,0.0,510.0,7.0,0.0
687,75.0,0.0,270.0,5.0,0.0
688,74.0,256.0,7170.0,5.0,0.0
689,43.0,256.0,510.0,4.0,0.0
690,67.0,0.0,270.0,7.0,0.0
691,69.0,0.0,270.0,7.0,0.0
692,55.0,512.0,510.0,4.0,0.0
693,70.0,0.0,270.0,7.0,0.0
694,69.0,0.0,270.0,7.0,0.0
695,67.0,0.0,510.0,7.0,0.0
696,62.0,0.0,270.0,6.0,0.0
697,64.0,256.0,270.0,6.0,0.0
698,62.0,0.0,510.0,7.0,0.0
699,66.0,0.0,270.0,6.0,0.0
700,67.0,256.0,270.0,6.0,0.0
701,62.0,0.0,15.0,7.0,0.0
702,62.0,0.0,510.0,7.0,0.0
703,62.0,0.0,270.0,6.0,0.0
704,64.0,0.0,270.0,6.0,0.0
705,67.0,256.0,270.0,6.0,0.0
706,66.0,0.0,270.0,6.0,0.0
707,69.0,0.0,270.0,6.0,0.0
708,58.0,0.0,15.0,7.0,0.0
709,67.0,256.0,270.0,6.0,0.0
710,70.0,0.0,270.0,6.0,0.0
711,62.0,256.0,270.0,6.0,0.0
712,67.0,0.0,270.0,6.0,0.0
713,55.0,0.0,510.0,7.0,0.0
714,70.0,256.0,270.0,6.0,0.0
715,67.0,0.0,270.0,6.0,0.0
716,69.0,0.0,270.0,6.0,0.0
717,72.0,0.0,270.0,6.0,0.0
718,70.0,0.0,510.0,6.0,0.0
719,55.0,512.0,15.0,7.0,0.0
720,74.0,0.0,15.0,6.0,0.0
721,70.0,0.0,510.0,6.0,0.0
722,43.0,256.0,270.0,4.0,0.0
723,74.0,0.0,510.0,7.0,0.0
724,70.0,0.0,510.0,7.0,0.0
725,55.0,256.0,510.0,7.0,0.0
726,42.0,0.0,270.0,4.0,0.0
727,72.0,0.0,510.0,6.0,0.0
728,72.0,0.0,510.0,7.0,0.0
729,69.0,0.0,510.0,7.0,0.0
730,50.0,0.0,510.0,7.0,0.0
731,43.0,256.0,270.0,4.0,0.0
732,69.0,0.0,510.0,6.0,0.0
733,45.0,256.0,270.0,4.0,0.0
734,62.0,0.0,510.0,7.0,0.0
735,46.0,256.0,270.0,4.0,0.0
736,48.0,0.0,270.0,4.0,0.0
737,70.0,0.0,15.0,7.0,0.0
738,50.0,256.0,270.0,4.0,0.0
739,67.0,256.0,15.0,7.0,0.0
740,62.0,0.0,510.0,7.0,0.0
741,67.0,0.0,15.0,6.0,0.0
742,70.0,0.0,15.0,6.0,0.0
743,48.0,0.0,270.0,4.0,0.0
744,50.0,256.0,270.0,4.0,0.0
745,69.0,0.0,510.0,7.0,0.0
746,66.0,0.0,510.0,7.0,0.0
747,66.0,0.0,510.0,6.0,0.0
748,50.0,0.0,510.0,7.0,0.0
749,51.0,0.0,270.0,4.0,0.0
750,69.0,0.0,1020.0,0.0,0.0
751,50.0,0.0,1020.0,3.0,0.0
752,69.0,0.0,15.0,6.0,0.0
753,50.0,256.0,270.0,4.0,0.0
754,66.0,256.0,1020.0,1.0,0.0
755,48.0,0.0,270.0,4.0,0.0
756,69.0,0.0,270.0,7.0,0.0
757,46.0,0.0,270.0,4.0,0.0
758,67.0,0.0,270.0,7.0,0.0
759,45.0,0.0,270.0,4.0,0.0
760,66.0,0.0,270.0,7.0,0.0
761,43.0,0.0,510.0,4.0,0.0
762,70.0,0.0,1020.0,0.0,0.0
763,55.0,0.0,510.0,3.0,0.0
764,62.0,0.0,15.0,2.0,0.0
765,70.0,0.0,1020.0,6.0,0.0
766,67.0,0.0,15.0,7.0,0.0
767,67.0,0.0,270.0,7.0,0.0
768,50.0,0.0,510.0,3.0,0.0
769,69.0,0.0,270.0,7.0,0.0
770,55.0,0.0,510.0,4.0,0.0
771,70.0,0.0,270.0,7.0,0.0
772,51.0,0.0,510.0,3.0,0.0
773,51.0,0.0,510.0,4.0,0.0
774,70.0,256.0,15.0,6.0,0.0
775,67.0,0.0,15.0,1.0,0.0
776,70.0,0.0,1020.0,0.0,0.0
777,67.0,0.0,270.0,7.0,0.0
778,58.0,0.0,510.0,2.0,0.0
779,67.0,256.0,15.0,7.0,0.0
780,67.0,0.0,270.0,7.0,0.0
781,46.0,0.0,510.0,3.0,0.0
782,69.0,0.0,270.0,7.0,0.0
783,46.0,0.0,510.0,4.0,0.0
784,62.0,0.0,510.0,2.0,0.0
785,70.0,0.0,270.0,7.0,0.0
786,48.0,0.0,510.0,4.0,0.0
787,69.0,128.0,780.0,0.0,0.0
788,48.0,0.0,510.0,3.0,0.0
789,63.0,256.0,510.0,2.0,0.0
790,67.0,0.0,1020.0,1.0,0.0
791,69.0,0.0,780.0,6.0,0.0
792,69.0,0.0,510.0,7.0,0.0
793,60.0,512.0,510.0,2.0,0.0
794,67.0,0.0,510.0,7.0,0.0
795,45.0,0.0,510.0,3.0,0.0
796,75.0,0.0,510.0,7.0,0.0
797,45.0,0.0,510.0,4.0,0.0
798,70.0,0.0,120.0,0.0,0.0
799,70.0,0.0,120.0,6.0,0.0
800,72.0,0.0,120.0,6.0,0.0
801,72.0,0.0,120.0,0.0,0.0
802,69.0,0.0,1020.0,0.0,0.0
803,50.0,0.0,510.0,4.0,0.0
804,50.0,0.0,1020.0,3.0,0.0
805,66.0,0.0,1020.0,1.0,0.0
806,69.0,0.0,1020.0,6.0,0.0
807,66.0,0.0,1020.0,7.0,0.0
808,62.0,256.0,510.0,2.0,0.0
809,75.0,0.0,270.0,7.0,0.0
810,57.0,0.0,510.0,2.0,0.0
811,74.0,0.0,270.0,7.0,0.0
812,38.0,0.0,510.0,4.0,0.0
813,72.0,0.0,270.0,7.0,0.0
814,67.0,0.0,1020.0,7.0,0.0
815,67.0,0.0,2040.0,0.0,0.0
816,43.0,0.0,2040.0,3.0,0.0
817,43.0,256.0,510.0,4.0,0.0
818,58.0,0.0,2040.0,2.0,0.0
819,67.0,0.0,3060.0,6.0,0.0
820,62.0,0.0,2040.0,1.0,0.0
821,70.0,0.0,15.0,7.0,0.0
822,70.0,256.0,15.0,7.0,0.0
823,72.0,0.0,270.0,7.0,0.0
824,50.0,0.0,510.0,4.0,0.0
825,74.0,0.0,270.0,7.0,0.0
826,70.0,0.0,270.0,7.0,0.0
827,55.0,0.0,510.0,4.0,0.0
828,70.0,256.0,15.0,7.0,0.0
829,50.0,512.0,510.0,4.0,0.0
830,58.0,0.0,510.0,7.0,0.0
831,72.0,0.0,270.0,7.0,0.0
832,74.0,0.0,270.0,7.0,0.0
833,51.0,0.0,510.0,4.0,0.0
834,72.0,0.0,510.0,7.0,0.0
835,58.0,0.0,510.0,7.0,0.0
836,48.0,256.0,510.0,4.0,0.0
837,57.0,256.0,270.0,7.0,0.0
838,79.0,0.0,510.0,7.0,0.0
839,55.0,0.0,270.0,7.0,0.0
840,57.0,0.0,780.0,7.0,0.0
841,53.0,256.0,270.0,4.0,0.0
842,79.0,0.0,270.0,7.0,0.0
843,51.0,0.0,270.0,4.0,0.0
844,65.0,0.0,510.0,5.0,0.0
845,50.0,256.0,270.0,4.0,0.0
846,77.0,0.0,270.0,7.0,0.0
847,58.0,0.0,270.0,7.0,0.0
848,48.0,0.0,270.0,4.0,0.0
849,75.0,0.0,270.0,7.0,0.0
850,70.0,256.0,270.0,5.0,0.0
851,58.0,256.0,510.0,7.0,0.0
852,74.0,0.0,510.0,7.0,0.0
853,46.0,0.0,510.0,4.0,0.0
854,72.0,0.0,270.0,5.0,0.0
855,74.0,256.0,270.0,5.0,0.0
856,34.0,0.0,510.0,4.0,0.0
857,72.0,512.0,270.0,5.0,0.0
858,70.0,256.0,510.0,5.0,0.0
859,65.0,0.0,270.0,6.0,0.0
860,67.0,256.0,270.0,6.0,0.0
861,69.0,256.0,270.0,6.0,0.0
862,65.0,0.0,15.0,5.0,0.0
863,70.0,256.0,270.0,6.0,0.0
864,65.0,0.0,270.0,6.0,0.0
865,67.0,256.0,270.0,6.0,0.0
866,70.0,0.0,270.0,6.0,0.0
867,72.0,0.0,270.0,6.0,0.0
868,69.0,256.0,270.0,6.0,0.0
869,62.0,0.0,15.0,5.0,0.0
870,74.0,0.0,270.0,6.0,0.0
871,70.0,256.0,15.0,6.0,0.0
872,65.0,256.0,270.0,6.0,0.0
873,58.0,0.0,510.0,5.0,0.0
874,74.0,256.0,270.0,6.0,0.0
875,70.0,0.0,270.0,6.0,0.0
876,72.0,0.0,270.0,6.0,0.0
877,75.0,512.0,270.0,6.0,0.0
878,74.0,0.0,510.0,6.0,0.0
879,58.0,256.0,510.0,5.0,0.0
880,77.0,0.0,510.0,6.0,0.0
881,74.0,0.0,510.0,5.0,0.0
882,77.0,256.0,510.0,6.0,0.0
883,74.0,0.0,510.0,6.0,0.0
884,77.0,0.0,510.0,5.0,0.0
885,65.0,0.0,510.0,5.0,0.0
886,77.0,0.0,510.0,7.0,0.0
887,74.0,0.0,510.0,7.0,0.0
888,58.0,0.0,510.0,7.0,0.0
889,46.0,256.0,270.0,4.0,0.0
890,45.0,0.0,270.0,4.0,0.0
891,41.0,0.0,510.0,4.0,0.0
892,72.0,0.0,510.0,5.0,0.0
893,75.0,0.0,510.0,5.0,0.0
894,72.0,0.0,510.0,7.0,0.0
895,53.0,0.0,510.0,7.0,0.0
896,65.0,0.0,510.0,5.0,0.0
897,75.0,0.0,510.0,7.0,0.0
898,46.0,256.0,270.0,4.0,0.0
899,72.0,0.0,510.0,6.0,0.0
900,75.0,256.0,510.0,6.0,0.0
901,48.0,0.0,270.0,4.0,0.0
902,65.0,0.0,510.0,7.0,0.0
903,50.0,256.0,270.0,4.0,0.0
904,46.0,0.0,510.0,4.0,0.0
905,70.0,0.0,510.0,6.0,0.0
906,74.0,0.0,510.0,6.0,0.0
907,51.0,0.0,270.0,4.0,0.0
908,74.0,0.0,15.0,5.0,0.0
909,70.0,0.0,15.0,7.0,0.0
910,74.0,0.0,15.0,7.0,0.0
911,53.0,256.0,270.0,4.0,0.0
912,41.0,0.0,510.0,4.0,0.0
913,74.0,0.0,510.0,6.0,0.0
914,70.0,0.0,510.0,6.0,0.0
915,65.0,0.0,15.0,5.0,0.0
916,70.0,256.0,15.0,5.0,0.0
917,65.0,0.0,510.0,7.0,0.0
918,51.0,0.0,270.0,4.0,0.0
919,72.0,0.0,510.0,6.0,0.0
920,72.0,0.0,510.0,5.0,0.0
921,65.0,0.0,15.0,5.0,0.0
922,72.0,0.0,510.0,7.0,0.0
923,69.0,256.0,510.0,6.0,0.0
924,69.0,0.0,510.0,7.0,0.0
925,41.0,0.0,510.0,4.0,0.0
926,53.0,256.0,270.0,4.0,0.0
927,53.0,0.0,510.0,7.0,0.0
928,55.0,0.0,270.0,4.0,0.0
929,53.0,256.0,270.0,4.0,0.0
930,51.0,256.0,270.0,4.0,0.0
931,50.0,256.0,270.0,4.0,0.0
932,65.0,256.0,510.0,5.0,0.0
933,48.0,0.0,270.0,4.0,0.0
934,46.0,0.0,510.0,4.0,0.0
935,70.0,256.0,270.0,5.0,0.0
936,72.0,512.0,270.0,5.0,0.0
937,34.0,0.0,510.0,4.0,0.0
938,74.0,256.0,780.0,5.0,0.0
939,70.0,256.0,15.0,6.0,0.0
940,75.0,0.0,270.0,5.0,0.0
941,65.0,0.0,510.0,6.0,0.0
942,74.0,256.0,270.0,5.0,0.0
943,70.0,0.0,510.0,6.0,0.0
944,72.0,256.0,270.0,5.0,0.0
945,74.0,256.0,270.0,5.0,0.0
946,70.0,512.0,510.0,6.0,0.0
947,72.0,0.0,270.0,5.0,0.0
948,65.0,0.0,15.0,6.0,0.0
949,62.0,256.0,510.0,6.0,0.0
950,70.0,256.0,780.0,5.0,0.0
951,65.0,256.0,510.0,6.0,0.0
952,62.0,0.0,510.0,6.0,0.0
953,65.0,0.0,270.0,5.0,0.0
954,70.0,256.0,270.0,5.0,0.0
955,72.0,0.0,270.0,5.0,0.0
956,74.0,256.0,270.0,5.0,0.0
957,58.0,0.0,15.0,6.0,0.0
958,62.0,256.0,15.0,6.0,0.0
959,70.0,256.0,270.0,5.0,0.0
960,74.0,0.0,510.0,5.0,0.0
961,74.0,0.0,510.0,7.0,0.0
962,77.0,0.0,510.0,7.0,0.0
963,74.0,0.0,510.0,6.0,0.0
964,77.0,0.0,510.0,6.0,0.0
965,58.0,0.0,510.0,7.0,0.0
966,65.0,0.0,510.0,5.0,0.0
967,46.0,256.0,270.0,4.0,0.0
968,77.0,256.0,510.0,5.0,0.0
969,45.0,0.0,270.0,4.0,0.0
970,72.0,0.0,510.0,7.0,0.0
971,41.0,0.0,510.0,4.0,0.0
972,46.0,256.0,270.0,4.0,0.0
973,75.0,0.0,510.0,7.0,0.0
974,75.0,0.0,510.0,6.0,0.0
975,72.0,0.0,510.0,6.0,0.0
976,72.0,0.0,510.0,5.0,0.0
977,75.0,0.0,510.0,5.0,0.0
978,53.0,0.0,510.0,7.0,0.0
979,48.0,256.0,270.0,4.0,0.0
980,74.0,0.0,510.0,6.0,0.0
981,65.0,0.0,510.0,7.0,0.0
982,65.0,0.0,15.0,5.0,0.0
983,74.0,0.0,510.0,5.0,0.0
984,50.0,256.0,270.0,4.0,0.0
985,46.0,0.0,510.0,4.0,0.0
986,70.0,0.0,510.0,6.0,0.0
987,51.0,0.0,270.0,4.0,0.0
988,70.0,0.0,15.0,7.0,0.0
989,74.0,0.0,15.0,7.0,0.0
990,65.0,0.0,510.0,7.0,0.0
991,41.0,0.0,510.0,4.0,0.0
992,53.0,256.0,270.0,4.0,0.0
993,74.0,0.0,510.0,5.0,0.0
994,74.0,0.0,510.0,6.0,0.0
995,70.0,256.0,15.0,5.0,0.0
996,65.0,0.0,510.0,5.0,0.0
997,70.0,256.0,510.0,6.0,0.0
998,51.0,0.0,270.0,4.0,0.0
999,72.0,0.0,510.0,6.0,0.0
1000,41.0,0.0,510.0,4.0,0.0
1001,53.0,256.0,270.0,4.0,0.0
1002,69.0,0.0,510.0,7.0,0.0
1003,53.0,0.0,510.0,7.0,0.0
1004,69.0,0.0,510.0,6.0,0.0
1005,65.0,0.0,510.0,5.0,0.0
1006,72.0,0.0,510.0,5.0,0.0
1007,72.0,256.0,510.0,7.0,0.0
1008,55.0,0.0,270.0,4.0,0.0
1009,53.0,256.0,270.0,4.0,0.0
1010,51.0,256.0,270.0,4.0,0.0
1011,50.0,256.0,270.0,4.0,0.0
1012,77.0,0.0,510.0,5.0,0.0
1013,48.0,256.0,270.0,4.0,0.0
1014,46.0,0.0,510.0,4.0,0.0
1015,74.0,256.0,15.0,5.0,0.0
1016,75.0,256.0,270.0,5.0,0.0
1017,45.0,0.0,510.0,4.0,0.0
1018,72.0,256.0,510.0,6.0,0.0
1019,77.0,0.0,270.0,5.0,0.0
1020,46.0,0.0,510.0,4.0,0.0
1021,74.0,256.0,270.0,5.0,0.0
1022,65.0,0.0,15.0,6.0,0.0
1023,74.0,0.0,510.0,6.0,0.0
1024,74.0,0.0,270.0,5.0,0.0
1025,72.0,0.0,510.0,7.0,0.0
1026,45.0,0.0,510.0,4.0,0.0
1027,75.0,256.0,270.0,5.0,0.0
1028,65.0,512.0,510.0,7.0,0.0
1029,77.0,0.0,270.0,5.0,0.0
1030,74.0,0.0,510.0,5.0,0.0
1031,46.0,0.0,510.0,4.0,0.0
1032,65.0,0.0,510.0,7.0,0.0
1033,70.0,256.0,15.0,7.0,0.0
1034,74.0,0.0,270.0,6.0,0.0
1035,79.0,0.0,270.0,6.0,0.0
1036,58.0,0.0,270.0,4.0,0.0
1037,74.0,0.0,15.0,7.0,0.0
1038,79.0,0.0,270.0,7.0,0.0
1039,70.0,0.0,270.0,5.0,0.0
1040,79.0,0.0,510.0,5.0,0.0
1041,74.0,0.0,270.0,5.0,0.0
1042,72.0,0.0,270.0,6.0,0.0
1043,77.0,0.0,270.0,6.0,0.0
1044,57.0,0.0,270.0,4.0,0.0
1045,46.0,0.0,15.0,4.0,0.0
1046,72.0,0.0,270.0,5.0,0.0
1047,65.0,0.0,270.0,7.0,0.0
1048,65.0,512.0,270.0,5.0,0.0
1049,77.0,0.0,270.0,7.0,0.0
1050,72.0,0.0,270.0,7.0,0.0
1051,58.0,0.0,510.0,4.0,0.0
1052,46.0,0.0,15.0,4.0,0.0
1053,74.0,0.0,510.0,6.0,0.0
1054,74.0,0.0,510.0,7.0,0.0
1055,62.0,0.0,510.0,7.0,0.0
1056,79.0,0.0,510.0,7.0,0.0
1057,79.0,0.0,510.0,6.0,0.0
1058,74.0,0.0,510.0,5.0,0.0
1059,62.0,256.0,510.0,5.0,0.0
1060,77.0,0.0,270.0,5.0,0.0
1061,75.0,256.0,270.0,5.0,0.0
1062,55.0,0.0,510.0,4.0,0.0
1063,74.0,256.0,270.0,5.0,0.0
1064,45.0,256.0,510.0,4.0,0.0
1065,72.0,256.0,270.0,5.0,0.0
1066,72.0,0.0,270.0,5.0,0.0
1067,70.0,0.0,510.0,6.0,0.0
1068,74.0,256.0,270.0,5.0,0.0
1069,65.0,0.0,510.0,6.0,0.0
1070,43.0,256.0,510.0,4.0,0.0
1071,75.0,0.0,270.0,5.0,0.0
1072,72.0,0.0,510.0,6.0,0.0
1073,65.0,0.0,510.0,6.0,0.0
1074,45.0,256.0,510.0,4.0,0.0
1075,72.0,256.0,15.0,5.0,0.0
1076,74.0,256.0,270.0,5.0,0.0
1077,70.0,0.0,510.0,7.0,0.0
1078,67.0,0.0,510.0,7.0,0.0
1079,43.0,0.0,510.0,4.0,0.0
1080,75.0,512.0,270.0,5.0,0.0
1081,65.0,0.0,15.0,7.0,0.0
1082,60.0,0.0,510.0,7.0,0.0
1083,45.0,0.0,510.0,4.0,0.0
1084,57.0,0.0,270.0,4.0,0.0
1085,53.0,0.0,270.0,7.0,0.0
1086,72.0,0.0,15.0,7.0,0.0
1087,77.0,0.0,270.0,7.0,0.0
1088,65.0,256.0,270.0,5.0,0.0
1089,72.0,256.0,15.0,5.0,0.0
1090,77.0,0.0,510.0,5.0,0.0
1091,41.0,0.0,270.0,4.0,0.0
1092,77.0,0.0,270.0,6.0,0.0
1093,72.0,0.0,270.0,6.0,0.0
1094,70.0,0.0,270.0,7.0,0.0
1095,41.0,0.0,270.0,4.0,0.0
1096,55.0,0.0,270.0,4.0,0.0
1097,55.0,512.0,270.0,7.0,0.0
1098,75.0,0.0,270.0,7.0,0.0
1099,70.0,0.0,270.0,6.0,0.0
1100,70.0,0.0,270.0,5.0,0.0
1101,75.0,0.0,270.0,6.0,0.0
1102,77.0,0.0,510.0,6.0,0.0
1103,41.0,0.0,510.0,4.0,0.0
1104,57.0,0.0,510.0,4.0,0.0
1105,77.0,0.0,510.0,7.0,0.0
1106,72.0,0.0,510.0,7.0,0.0
1107,53.0,256.0,510.0,7.0,0.0
1108,65.0,0.0,15.0,5.0,0.0
1109,72.0,0.0,510.0,5.0,0.0
1110,72.0,0.0,510.0,6.0,0.0
1111,75.0,0.0,270.0,5.0,0.0
1112,53.0,256.0,510.0,4.0,0.0
1113,74.0,256.0,270.0,5.0,0.0
1114,72.0,0.0,270.0,5.0,0.0
1115,70.0,0.0,4620.0,7.0,0.0
1116,67.0,0.0,4620.0,7.0,0.0
1117,43.0,0.0,510.0,4.0,0.0
1118,70.0,256.0,270.0,5.0,0.0
1119,62.0,0.0,2040.0,7.0,0.0
1120,82.0,256.0,270.0,5.0,0.0
1121,74.0,0.0,510.0,6.0,0.0
1122,70.0,0.0,510.0,6.0,0.0
1123,81.0,256.0,270.0,5.0,0.0
1124,55.0,0.0,510.0,4.0,0.0
1125,79.0,256.0,270.0,5.0,0.0
1126,70.0,0.0,510.0,6.0,0.0
1127,70.0,256.0,270.0,5.0,0.0
1128,53.0,0.0,510.0,4.0,0.0
1129,81.0,256.0,270.0,5.0,0.0
1130,74.0,0.0,15.0,6.0,0.0
1131,70.0,0.0,510.0,6.0,0.0
1132,41.0,256.0,510.0,4.0,0.0
1133,79.0,256.0,270.0,5.0,0.0
1134,77.0,0.0,270.0,5.0,0.0
1135,55.0,0.0,1020.0,7.0,0.0
1136,39.0,256.0,510.0,4.0,0.0
1137,70.0,256.0,270.0,5.0,0.0
1138,79.0,0.0,270.0,5.0,0.0
1139,77.0,256.0,270.0,5.0,0.0
1140,75.0,256.0,510.0,6.0,0.0
1141,70.0,0.0,510.0,6.0,0.0
1142,51.0,0.0,510.0,4.0,0.0
1143,75.0,0.0,270.0,5.0,0.0
1144,50.0,0.0,510.0,4.0,0.0
1145,58.0,256.0,1020.0,7.0,0.0
1146,70.0,256.0,270.0,5.0,0.0
1147,77.0,0.0,270.0,5.0,0.0
1148,77.0,256.0,15.0,6.0,0.0
1149,75.0,256.0,270.0,5.0,0.0
1150,38.0,0.0,510.0,4.0,0.0
1151,74.0,0.0,15.0,6.0,0.0
1152,74.0,0.0,270.0,5.0,0.0
1153,75.0,0.0,510.0,5.0,0.0
1154,36.0,256.0,270.0,4.0,0.0
1155,38.0,0.0,270.0,4.0,0.0
1156,39.0,0.0,270.0,4.0,0.0
1157,60.0,256.0,15.0,7.0,0.0
1158,79.0,0.0,510.0,7.0,0.0
1159,75.0,0.0,270.0,6.0,0.0
1160,55.0,256.0,510.0,7.0,0.0
1161,79.0,256.0,270.0,6.0,0.0
1162,41.0,0.0,270.0,4.0,0.0
1163,62.0,0.0,270.0,7.0,0.0
1164,77.0,0.0,270.0,6.0,0.0
1165,74.0,0.0,270.0,6.0,0.0
1166,72.0,0.0,510.0,6.0,0.0
1167,75.0,0.0,510.0,6.0,0.0
1168,72.0,0.0,15.0,5.0,0.0
1169,43.0,0.0,270.0,4.0,0.0
1170,63.0,256.0,270.0,7.0,0.0
1171,75.0,0.0,510.0,7.0,0.0
1172,60.0,0.0,270.0,7.0,0.0
1173,45.0,0.0,270.0,4.0,0.0
1174,46.0,256.0,270.0,4.0,0.0
1175,62.0,0.0,270.0,7.0,0.0
1176,65.0,0.0,510.0,5.0,0.0
1177,70.0,0.0,510.0,7.0,0.0
1178,63.0,0.0,270.0,7.0,0.0
1179,43.0,0.0,270.0,4.0,0.0
1180,45.0,0.0,270.0,4.0,0.0
1181,65.0,256.0,15.0,7.0,0.0
1182,65.0,0.0,510.0,5.0,0.0
1183,41.0,0.0,270.0,4.0,0.0
1184,60.0,256.0,270.0,7.0,0.0
1185,75.0,0.0,510.0,5.0,0.0
1186,65.0,0.0,510.0,6.0,0.0
1187,45.0,0.0,270.0,4.0,0.0
1188,72.0,0.0,510.0,7.0,0.0
1189,65.0,0.0,270.0,7.0,0.0
1190,75.0,0.0,270.0,6.0,0.0
1191,41.0,0.0,270.0,4.0,0.0
1192,48.0,0.0,270.0,4.0,0.0
1193,74.0,0.0,270.0,6.0,0.0
1194,72.0,0.0,15.0,5.0,0.0
1195,65.0,256.0,15.0,5.0,0.0
1196,69.0,256.0,15.0,7.0,0.0
1197,53.0,0.0,510.0,4.0,0.0
1198,72.0,0.0,15.0,5.0,0.0
1199,41.0,0.0,15.0,4.0,0.0
1200,65.0,0.0,15.0,5.0,0.0
1201,72.0,256.0,270.0,7.0,0.0
1202,69.0,0.0,510.0,6.0,0.0
1203,75.0,0.0,510.0,6.0,0.0
1204,69.0,0.0,270.0,7.0,0.0
1205,41.0,0.0,15.0,4.0,0.0
1206,77.0,0.0,510.0,6.0,0.0
1207,65.0,0.0,15.0,5.0,0.0
1208,72.0,0.0,15.0,5.0,0.0
1209,45.0,0.0,510.0,4.0,0.0
1210,60.0,0.0,15.0,7.0,0.0
1211,72.0,0.0,510.0,7.0,0.0
1212,65.0,256.0,270.0,7.0,0.0
1213,77.0,0.0,510.0,5.0,0.0
1214,72.0,0.0,510.0,6.0,0.0
1215,77.0,0.0,270.0,7.0,0.0
1216,70.0,0.0,510.0,5.0,0.0
1217,75.0,0.0,270.0,5.0,0.0
1218,65.0,0.0,510.0,7.0,0.0
1219,65.0,256.0,510.0,5.0,0.0
1220,75.0,256.0,270.0,7.0,0.0
1221,46.0,0.0,510.0,4.0,0.0
1222,75.0,0.0,270.0,6.0,0.0
1223,74.0,0.0,270.0,5.0,0.0
1224,74.0,0.0,270.0,6.0,0.0
1225,74.0,0.0,270.0,7.0,0.0
1226,62.0,0.0,15.0,7.0,0.0
1227,70.0,0.0,15.0,6.0,0.0
1228,67.0,0.0,510.0,7.0,0.0
1229,72.0,256.0,270.0,7.0,0.0
1230,72.0,0.0,270.0,6.0,0.0
1231,72.0,0.0,270.0,5.0,0.0
1232,74.0,0.0,510.0,5.0,0.0
1233,58.0,0.0,270.0,5.0,0.0
1234,43.0,0.0,510.0,4.0,0.0
1235,46.0,0.0,270.0,4.0,0.0
1236,70.0,0.0,270.0,6.0,0.0
1237,70.0,512.0,270.0,5.0,0.0
1238,58.0,0.0,270.0,5.0,0.0
1239,70.0,0.0,270.0,7.0,0.0
1240,46.0,0.0,270.0,4.0,0.0
1241,46.0,0.0,510.0,4.0,0.0
1242,39.0,0.0,510.0,4.0,0.0
1243,79.0,0.0,510.0,5.0,0.0
1244,74.0,0.0,510.0,6.0,0.0
1245,70.0,0.0,15.0,6.0,0.0
1246,74.0,0.0,510.0,7.0,0.0
1247,67.0,0.0,510.0,7.0,0.0
1248,55.0,0.0,510.0,7.0,0.0
1249,58.0,0.0,510.0,5.0,0.0
1250,74.0,0.0,510.0,5.0,0.0
1251,65.0,0.0,510.0,5.0,0.0
1252,72.0,0.0,510.0,5.0,0.0
1253,60.0,0.0,510.0,7.0,0.0
1254,41.0,0.0,510.0,4.0,0.0
1255,69.0,512.0,510.0,7.0,0.0
1256,72.0,0.0,510.0,7.0,0.0
1257,77.0,256.0,270.0,5.0,0.0
1258,72.0,0.0,510.0,6.0,0.0
1259,69.0,0.0,510.0,6.0,0.0
1260,75.0,0.0,270.0,5.0,0.0
1261,70.0,0.0,510.0,7.0,0.0
1262,74.0,0.0,510.0,5.0,0.0
1263,58.0,0.0,510.0,5.0,0.0
1264,46.0,0.0,510.0,4.0,0.0
1265,67.0,0.0,510.0,7.0,0.0
1266,62.0,0.0,510.0,7.0,0.0
1267,70.0,128.0,1290.0,5.0,0.0
1268,43.0,0.0,510.0,4.0,0.0
1269,70.0,0.0,510.0,6.0,0.0
1270,55.0,256.0,270.0,4.0,0.0
1271,82.0,0.0,270.0,7.0,0.0
1272,82.0,0.0,270.0,6.0,0.0
1273,81.0,0.0,270.0,6.0,0.0
1274,53.0,256.0,270.0,4.0,0.0
1275,81.0,0.0,270.0,7.0,0.0
1276,82.0,0.0,510.0,6.0,0.0
1277,55.0,0.0,510.0,4.0,0.0
1278,82.0,256.0,510.0,7.0,0.0
1279,72.0,128.0,120.0,5.0,0.0
1280,74.0,0.0,120.0,5.0,0.0
1281,75.0,128.0,270.0,5.0,0.0
1282,75.0,512.0,510.0,7.0,0.0
1283,67.0,0.0,510.0,7.0,0.0
1284,70.0,0.0,510.0,6.0,0.0
1285,43.0,0.0,510.0,4.0,0.0
1286,74.0,128.0,120.0,5.0,0.0
1287,72.0,0.0,120.0,5.0,0.0
1288,70.0,128.0,1290.0,5.0,0.0
1289,77.0,256.0,510.0,5.0,0.0
1290,65.0,0.0,510.0,7.0,0.0
1291,77.0,0.0,510.0,7.0,0.0
1292,62.0,0.0,510.0,5.0,0.0
1293,38.0,0.0,510.0,4.0,0.0
1294,46.0,0.0,510.0,4.0,0.0
1295,70.0,0.0,510.0,6.0,0.0
1296,70.0,0.0,15.0,7.0,0.0
1297,65.0,0.0,510.0,6.0,0.0
1298,77.0,0.0,270.0,6.0,0.0
1299,77.0,256.0,270.0,7.0,0.0
1300,50.0,0.0,270.0,4.0,0.0
1301,48.0,0.0,270.0,4.0,0.0
1302,75.0,0.0,270.0,7.0,0.0
1303,75.0,256.0,270.0,6.0,0.0
1304,50.0,0.0,510.0,4.0,0.0
1305,77.0,0.0,510.0,7.0,0.0
1306,72.0,128.0,120.0,5.0,0.0
1307,74.0,0.0,120.0,5.0,0.0
1308,65.0,256.0,510.0,7.0,0.0
1309,75.0,128.0,270.0,5.0,0.0
1310,68.0,0.0,510.0,7.0,0.0
1311,70.0,0.0,510.0,7.0,0.0
1312,46.0,0.0,510.0,4.0,0.0
1313,77.0,256.0,15.0,6.0,0.0
1314,70.0,0.0,510.0,6.0,0.0
1315,74.0,128.0,120.0,5.0,0.0
1316,72.0,0.0,120.0,5.0,0.0
1317,67.0,0.0,510.0,7.0,0.0
1318,79.0,0.0,510.0,6.0,0.0
1319,75.0,0.0,510.0,6.0,0.0
1320,79.0,0.0,510.0,7.0,0.0
1321,51.0,0.0,510.0,4.0,0.0
1322,63.0,0.0,510.0,7.0,0.0
1323,70.0,128.0,270.0,5.0,0.0
1324,72.0,128.0,120.0,5.0,0.0
1325,74.0,256.0,120.0,5.0,0.0
1326,39.0,256.0,510.0,4.0,0.0
1327,75.0,128.0,270.0,5.0,0.0
1328,74.0,128.0,120.0,5.0,0.0
1329,72.0,0.0,120.0,5.0,0.0
1330,70.0,256.0,510.0,7.0,0.0
1331,77.0,0.0,510.0,7.0,0.0
1332,65.0,0.0,510.0,7.0,0.0
1333,70.0,128.0,270.0,5.0,0.0
1334,70.0,0.0,510.0,6.0,0.0
1335,77.0,0.0,510.0,6.0,0.0
1336,38.0,0.0,510.0,4.0,0.0
1337,72.0,128.0,120.0,5.0,0.0
1338,74.0,0.0,120.0,5.0,0.0
1339,50.0,0.0,510.0,4.0,0.0
1340,75.0,128.0,270.0,5.0,0.0
1341,74.0,128.0,120.0,5.0,0.0
1342,72.0,512.0,120.0,5.0,0.0
1343,70.0,0.0,510.0,6.0,0.0
1344,48.0,0.0,510.0,4.0,0.0
1345,70.0,0.0,510.0,5.0,0.0
1346,67.0,256.0,510.0,7.0,0.0
1347,76.0,0.0,510.0,7.0,0.0
1348,76.0,0.0,510.0,6.0,0.0
1349,72.0,0.0,510.0,7.0,0.0
1350,70.0,256.0,270.0,7.0,0.0
1351,76.0,0.0,510.0,5.0,0.0
1352,36.0,512.0,510.0,4.0,0.0
1353,70.0,0.0,270.0,6.0,0.0
1354,69.0,0.0,270.0,6.0,0.0
1355,69.0,0.0,270.0,7.0,0.0
1356,67.0,0.0,510.0,6.0,0.0
1357,72.0,0.0,510.0,7.0,0.0
1358,67.0,0.0,510.0,7.0,0.0
1359,64.0,256.0,510.0,6.0,0.0
1360,34.0,0.0,510.0,4.0,0.0
1361,79.0,0.0,270.0,5.0,0.0
1362,77.0,256.0,270.0,5.0,0.0
1363,46.0,0.0,510.0,4.0,0.0
1364,79.0,0.0,510.0,6.0,0.0
1365,79.0,0.0,510.0,7.0,0.0
1366,76.0,256.0,270.0,5.0,0.0
1367,77.0,0.0,510.0,6.0,0.0
1368,60.0,0.0,510.0,6.0,0.0
1369,72.0,0.0,510.0,7.0,0.0
1370,45.0,256.0,270.0,4.0,0.0
1371,60.0,0.0,510.0,7.0,0.0
1372,77.0,0.0,510.0,7.0,0.0
1373,77.0,0.0,510.0,5.0,0.0
1374,58.0,256.0,270.0,4.0,0.0
1375,57.0,256.0,270.0,4.0,0.0
1376,65.0,0.0,270.0,6.0,0.0
1377,65.0,256.0,510.0,5.0,0.0
1378,65.0,0.0,270.0,7.0,0.0
1379,67.0,0.0,270.0,6.0,0.0
1380,67.0,0.0,270.0,7.0,0.0
1381,55.0,0.0,270.0,4.0,0.0
1382,65.0,0.0,510.0,7.0,0.0
1383,72.0,0.0,510.0,7.0,0.0
1384,69.0,0.0,510.0,7.0,0.0
1385,53.0,256.0,270.0,4.0,0.0
1386,72.0,256.0,510.0,6.0,0.0
1387,69.0,0.0,510.0,6.0,0.0
1388,51.0,0.0,270.0,4.0,0.0
1389,50.0,256.0,270.0,4.0,0.0
1390,75.0,0.0,510.0,5.0,0.0
1391,75.0,256.0,510.0,7.0,0.0
1392,75.0,0.0,510.0,6.0,0.0
1393,48.0,0.0,270.0,4.0,0.0
1394,65.0,0.0,510.0,6.0,0.0
1395,46.0,256.0,270.0,4.0,0.0
1396,74.0,0.0,510.0,7.0,0.0
1397,65.0,0.0,510.0,7.0,0.0
1398,45.0,0.0,270.0,4.0,0.0
1399,74.0,0.0,15.0,5.0,0.0
1400,82.0,0.0,510.0,5.0,0.0
1401,74.0,0.0,15.0,6.0,0.0
1402,43.0,0.0,270.0,4.0,0.0
1403,70.0,512.0,510.0,5.0,0.0
1404,74.0,0.0,510.0,7.0,0.0
1405,82.0,0.0,510.0,7.0,0.0
1406,67.0,0.0,510.0,7.0,0.0
1407,82.0,0.0,510.0,6.0,0.0
1408,41.0,0.0,270.0,4.0,0.0
1409,46.0,256.0,15.0,4.0,0.0
1410,75.0,0.0,510.0,6.0,0.0
1411,72.0,0.0,510.0,6.0,0.0
1412,60.0,0.0,510.0,7.0,0.0
1413,75.0,0.0,510.0,7.0,0.0
1414,79.0,0.0,510.0,5.0,0.0
1415,46.0,0.0,510.0,4.0,0.0
1416,39.0,0.0,510.0,4.0,0.0
1417,75.0,0.0,510.0,5.0,0.0
1418,72.0,0.0,15.0,7.0,0.0
1419,81.0,0.0,510.0,6.0,0.0
1420,65.0,0.0,510.0,7.0,0.0
1421,81.0,512.0,510.0,5.0,0.0
1422,81.0,0.0,510.0,7.0,0.0
1423,77.0,0.0,510.0,5.0,0.0
1424,72.0,0.0,510.0,6.0,0.0
1425,72.0,512.0,15.0,5.0,0.0
1426,41.0,0.0,510.0,4.0,0.0
1427,74.0,0.0,1020.0,7.0,0.0
1428,70.0,0.0,1020.0,7.0,0.0
1429,65.0,0.0,1020.0,7.0,0.0
1430,82.0,0.0,1020.0,5.0,0.0
1431,77.0,0.0,1020.0,5.0,0.0
1432,74.0,0.0,1020.0,5.0,0.0
1433,70.0,0.0,1020.0,6.0,0.0
1434,34.0,256.0,510.0,4.0,0.0
1435,46.0,256.0,270.0,4.0,0.0
1436,48.0,0.0,270.0,4.0,0.0
1437,53.0,0.0,1020.0,2.0,0.0
1438,58.0,0.0,1020.0,1.0,0.0
1439,62.0,0.0,1020.0,0.0,0.0
1440,46.0,0.0,15.0,4.0,0.0
1441,62.0,0.0,1020.0,6.0,0.0
1442,46.0,0.0,1020.0,3.0,0.0
1443,44.0,0.0,270.0,4.0,0.0
1444,62.0,0.0,270.0,7.0,0.0
1445,43.0,0.0,270.0,4.0,0.0
1446,63.0,0.0,270.0,7.0,0.0
1447,41.0,0.0,270.0,4.0,0.0
1448,65.0,0.0,270.0,7.0,0.0
1449,58.0,0.0,510.0,1.0,0.0
1450,39.0,0.0,510.0,4.0,0.0
1451,55.0,0.0,510.0,2.0,0.0
1452,67.0,0.0,1020.0,0.0,0.0
1453,67.0,0.0,1020.0,6.0,0.0
1454,51.0,0.0,1020.0,3.0,0.0
1455,58.0,0.0,270.0,7.0,0.0
1456,67.0,0.0,270.0,7.0,0.0
1457,60.0,0.0,510.0,1.0,0.0
1458,51.0,0.0,510.0,4.0,0.0
1459,57.0,0.0,510.0,2.0,0.0
1460,65.0,0.0,270.0,7.0,0.0
1461,63.0,0.0,270.0,7.0,0.0
1462,58.0,0.0,1020.0,2.0,0.0
1463,58.0,0.0,270.0,7.0,0.0
1464,65.0,0.0,1020.0,6.0,0.0
1465,50.0,0.0,1020.0,3.0,0.0
1466,62.0,0.0,1020.0,1.0,0.0
1467,65.0,0.0,1020.0,0.0,0.0
1468,50.0,0.0,510.0,4.0,0.0
1469,65.0,0.0,270.0,7.0,0.0
1470,38.0,0.0,510.0,4.0,0.0
1471,63.0,0.0,270.0,7.0,0.0
1472,62.0,0.0,270.0,7.0,0.0
1473,55.0,256.0,1020.0,3.0,0.0
1474,55.0,0.0,510.0,1.0,0.0
1475,43.0,256.0,510.0,4.0,0.0
1476,63.0,0.0,1020.0,6.0,0.0
1477,51.0,0.0,1020.0,2.0,0.0
1478,63.0,0.0,1020.0,0.0,0.0
1479,58.0,0.0,270.0,7.0,0.0
1480,63.0,0.0,270.0,7.0,0.0
1481,55.0,0.0,510.0,4.0,0.0
1482,62.0,0.0,270.0,7.0,0.0
1483,57.0,0.0,510.0,1.0,0.0
1484,60.0,0.0,270.0,7.0,0.0
1485,53.0,256.0,510.0,4.0,0.0
1486,62.0,0.0,1020.0,6.0,0.0
1487,53.0,0.0,1020.0,2.0,0.0
1488,62.0,0.0,1020.0,0.0,0.0
1489,58.0,0.0,1020.0,1.0,0.0
1490,58.0,0.0,270.0,7.0,0.0
1491,53.0,0.0,1020.0,3.0,0.0
1492,62.0,0.0,270.0,7.0,0.0
1493,60.0,0.0,270.0,7.0,0.0
1494,41.0,256.0,510.0,4.0,0.0
1495,58.0,0.0,270.0,7.0,0.0
1496,60.0,0.0,270.0,7.0,0.0
1497,51.0,0.0,1020.0,3.0,0.0
1498,60.0,0.0,2040.0,0.0,0.0
1499,55.0,0.0,510.0,2.0,0.0
1500,60.0,0.0,2040.0,6.0,0.0
1501,39.0,256.0,510.0,4.0,0.0
1502,58.0,0.0,1020.0,1.0,0.0
1503,70.0,0.0,270.0,7.0,0.0
1504,69.0,0.0,270.0,7.0,0.0
1505,51.0,0.0,510.0,4.0,0.0
1506,51.0,256.0,510.0,2.0,0.0
1507,67.0,0.0,270.0,7.0,0.0
1508,65.0,0.0,270.0,7.0,0.0
1509,57.0,0.0,1020.0,1.0,0.0
1510,53.0,0.0,510.0,4.0,0.0
1511,53.0,0.0,1020.0,3.0,0.0
1512,48.0,256.0,510.0,2.0,0.0
1513,63.0,0.0,270.0,7.0,0.0
1514,41.0,256.0,510.0,4.0,0.0
1515,62.0,0.0,270.0,7.0,0.0
1516,77.0,0.0,270.0,5.0,0.0
1517,75.0,0.0,270.0,5.0,0.0
1518,60.0,0.0,270.0,7.0,0.0
1519,58.0,0.0,1020.0,1.0,0.0
1520,62.0,0.0,1020.0,0.0,0.0
1521,46.0,0.0,510.0,4.0,0.0
1522,46.0,256.0,1020.0,3.0,0.0
1523,62.0,0.0,1020.0,6.0,0.0
1524,58.0,0.0,1020.0,7.0,0.0
1525,74.0,256.0,270.0,5.0,0.0
1526,53.0,0.0,15.0,2.0,0.0
1527,72.0,256.0,270.0,5.0,0.0
1528,50.0,0.0,270.0,4.0,0.0
1529,70.0,256.0,270.0,5.0,0.0
1530,48.0,0.0,270.0,4.0,0.0
1531,72.0,0.0,270.0,5.0,0.0
1532,74.0,256.0,270.0,5.0,0.0
1533,46.0,0.0,510.0,4.0,0.0
1534,75.0,256.0,270.0,5.0,0.0
1535,45.0,256.0,510.0,4.0,0.0
1536,74.0,256.0,270.0,5.0,0.0
1537,62.0,0.0,510.0,7.0,0.0
1538,75.0,0.0,270.0,5.0,0.0
1539,67.0,0.0,270.0,7.0,0.0
1540,74.0,0.0,7170.0,5.0,0.0
1541,43.0,0.0,510.0,4.0,0.0
1542,69.0,0.0,270.0,7.0,0.0
1543,70.0,0.0,270.0,7.0,0.0
1544,55.0,0.0,510.0,4.0,0.0
1545,69.0,0.0,270.0,7.0,0.0
1546,67.0,0.0,510.0,7.0,0.0
1547,62.0,256.0,270.0,6.0,0.0
1548,64.0,256.0,270.0,6.0,0.0
1549,66.0,0.0,270.0,6.0,0.0
1550,67.0,256.0,270.0,6.0,0.0
1551,62.0,0.0,15.0,7.0,0.0
1552,62.0,0.0,15.0,7.0,0.0
1553,62.0,0.0,270.0,6.0,0.0
1554,67.0,0.0,270.0,6.0,0.0
1555,64.0,256.0,270.0,6.0,0.0
1556,66.0,256.0,270.0,6.0,0.0
1557,69.0,0.0,270.0,6.0,0.0
1558,58.0,0.0,15.0,7.0,0.0
1559,58.0,0.0,15.0,7.0,0.0
1560,67.0,256.0,270.0,6.0,0.0
1561,70.0,0.0,270.0,6.0,0.0
1562,58.0,0.0,510.0,7.0,0.0
1563,62.0,0.0,270.0,6.0,0.0
1564,67.0,0.0,270.0,6.0,0.0
1565,70.0,256.0,270.0,6.0,0.0
1566,55.0,0.0,510.0,7.0,0.0
1567,67.0,0.0,270.0,6.0,0.0
1568,72.0,0.0,270.0,6.0,0.0
1569,69.0,0.0,270.0,6.0,0.0
1570,55.0,0.0,15.0,7.0,0.0
1571,43.0,256.0,270.0,4.0,0.0
1572,70.0,256.0,15.0,6.0,0.0
1573,74.0,0.0,15.0,6.0,0.0
1574,74.0,256.0,510.0,7.0,0.0
1575,70.0,0.0,510.0,7.0,0.0
1576,42.0,0.0,270.0,4.0,0.0
1577,43.0,256.0,270.0,4.0,0.0
1578,69.0,0.0,510.0,7.0,0.0
1579,72.0,0.0,510.0,7.0,0.0
1580,50.0,256.0,510.0,7.0,0.0
1581,69.0,0.0,510.0,6.0,0.0
1582,72.0,0.0,510.0,6.0,0.0
1583,45.0,0.0,270.0,4.0,0.0
1584,46.0,256.0,270.0,4.0,0.0
1585,67.0,0.0,510.0,7.0,0.0
1586,48.0,0.0,270.0,4.0,0.0
1587,62.0,0.0,15.0,7.0,0.0
1588,50.0,256.0,270.0,4.0,0.0
1589,70.0,0.0,15.0,7.0,0.0
1590,70.0,0.0,15.0,6.0,0.0
1591,67.0,0.0,510.0,7.0,0.0
1592,67.0,256.0,15.0,6.0,0.0
1593,48.0,256.0,270.0,4.0,0.0
1594,66.0,0.0,510.0,6.0,0.0
1595,50.0,256.0,270.0,4.0,0.0
1596,66.0,0.0,510.0,7.0,0.0
1597,69.0,0.0,510.0,7.0,0.0
1598,50.0,0.0,510.0,7.0,0.0
1599,51.0,256.0,270.0,4.0,0.0
1600,69.0,0.0,1020.0,0.0,0.0
1601,66.0,0.0,1020.0,1.0,0.0
1602,50.0,0.0,1020.0,3.0,0.0
1603,69.0,0.0,15.0,6.0,0.0
1604,62.0,0.0,1020.0,2.0,0.0
1605,50.0,256.0,270.0,4.0,0.0
1606,48.0,256.0,270.0,4.0,0.0
1607,69.0,0.0,270.0,7.0,0.0
1608,67.0,0.0,270.0,7.0,0.0
1609,46.0,0.0,270.0,4.0,0.0
1610,45.0,0.0,270.0,4.0,0.0
1611,66.0,0.0,270.0,7.0,0.0
1612,43.0,0.0,510.0,4.0,0.0
1613,67.0,0.0,270.0,7.0,0.0
1614,55.0,256.0,510.0,3.0,0.0
1615,62.0,0.0,1020.0,2.0,0.0
1616,67.0,256.0,15.0,7.0,0.0
1617,69.0,0.0,270.0,7.0,0.0
1618,50.0,0.0,510.0,3.0,0.0
1619,55.0,0.0,510.0,4.0,0.0
1620,70.0,0.0,270.0,7.0,0.0
1621,58.0,0.0,510.0,2.0,0.0
1622,51.0,0.0,510.0,3.0,0.0
1623,51.0,256.0,510.0,4.0,0.0
1624,67.0,0.0,15.0,1.0,0.0
1625,70.0,0.0,15.0,6.0,0.0
1626,70.0,0.0,15.0,0.0,0.0
1627,67.0,0.0,15.0,7.0,0.0
1628,62.0,0.0,510.0,2.0,0.0
1629,46.0,512.0,510.0,4.0,0.0
1630,69.0,0.0,270.0,7.0,0.0
1631,46.0,0.0,510.0,3.0,0.0
1632,70.0,0.0,270.0,7.0,0.0
1633,63.0,256.0,510.0,2.0,0.0
1634,67.0,512.0,1020.0,1.0,0.0
1635,48.0,0.0,510.0,3.0,0.0
1636,69.0,0.0,510.0,7.0,0.0
1637,48.0,0.0,510.0,4.0,0.0
1638,69.0,128.0,780.0,0.0,0.0
1639,69.0,0.0,780.0,6.0,0.0
1640,45.0,0.0,510.0,3.0,0.0
1641,45.0,0.0,510.0,4.0,0.0
1642,60.0,0.0,510.0,2.0,0.0
1643,75.0,0.0,510.0,7.0,0.0
1644,67.0,0.0,510.0,7.0,0.0
1645,70.0,0.0,120.0,0.0,0.0
1646,70.0,0.0,120.0,6.0,0.0
1647,72.0,0.0,120.0,6.0,0.0
1648,72.0,0.0,120.0,0.0,0.0
1649,69.0,0.0,1020.0,6.0,0.0
1650,62.0,256.0,510.0,2.0,0.0
1651,66.0,0.0,1020.0,1.0,0.0
1652,50.0,0.0,510.0,4.0,0.0
1653,66.0,0.0,1020.0,7.0,0.0
1654,69.0,0.0,1020.0,0.0,0.0
1655,50.0,0.0,1020.0,3.0,0.0
1656,75.0,0.0,270.0,7.0,0.0
1657,74.0,0.0,270.0,7.0,0.0
1658,57.0,0.0,510.0,2.0,0.0
1659,38.0,0.0,510.0,4.0,0.0
1660,72.0,0.0,270.0,7.0,0.0
1661,43.0,0.0,2040.0,3.0,0.0
1662,67.0,0.0,2040.0,0.0,0.0
1663,58.0,0.0,2040.0,2.0,0.0
1664,67.0,0.0,3060.0,6.0,0.0
1665,43.0,256.0,510.0,4.0,0.0
1666,62.0,0.0,2040.0,1.0,0.0
1667,70.0,0.0,270.0,7.0,0.0
1668,67.0,256.0,1020.0,7.0,0.0
1669,70.0,0.0,270.0,7.0,0.0
1670,50.0,0.0,510.0,4.0,0.0
1671,72.0,0.0,270.0,7.0,0.0
1672,74.0,0.0,270.0,7.0,0.0
1673,55.0,256.0,510.0,4.0,0.0
1674,70.0,0.0,270.0,7.0,0.0
1675,70.0,256.0,15.0,7.0,0.0
1676,58.0,512.0,510.0,7.0,0.0
1677,72.0,0.0,270.0,7.0,0.0
1678,50.0,0.0,510.0,4.0,0.0
1679,74.0,0.0,270.0,7.0,0.0
1680,51.0,256.0,510.0,4.0,0.0
1681,72.0,0.0,510.0,7.0,0.0
1682,58.0,0.0,510.0,7.0,0.0
1683,79.0,0.0,510.0,7.0,0.0
1684,57.0,256.0,270.0,7.0,0.0
1685,48.0,0.0,510.0,4.0,0.0
1686,55.0,0.0,270.0,7.0,0.0
1687,53.0,256.0,270.0,4.0,0.0
1688,57.0,0.0,780.0,7.0,0.0
1689,51.0,0.0,270.0,4.0,0.0
1690,79.0,0.0,270.0,7.0,0.0
1691,50.0,256.0,270.0,4.0,0.0
1692,65.0,0.0,510.0,5.0,0.0
1693,77.0,0.0,270.0,7.0,0.0
1694,58.0,0.0,270.0,7.0,0.0
1695,48.0,256.0,270.0,4.0,0.0
1696,75.0,0.0,270.0,7.0,0.0
1697,74.0,0.0,510.0,7.0,0.0
1698,58.0,0.0,510.0,7.0,0.0
1699,46.0,256.0,510.0,4.0,0.0
1700,70.0,256.0,270.0,5.0,0.0
1701,72.0,0.0,270.0,5.0,0.0
1702,74.0,256.0,270.0,5.0,0.0
1703,34.0,512.0,510.0,4.0,0.0
1704,72.0,0.0,270.0,5.0,0.0
1705,70.0,0.0,510.0,5.0,0.0
1706,65.0,256.0,270.0,6.0,0.0
1707,65.0,0.0,510.0,5.0,0.0
1708,67.0,256.0,270.0,6.0,0.0
1709,69.0,256.0,270.0,6.0,0.0
1710,65.0,256.0,510.0,5.0,0.0
1711,70.0,256.0,270.0,6.0,0.0
1712,65.0,0.0,270.0,6.0,0.0
1713,67.0,256.0,270.0,6.0,0.0
1714,70.0,0.0,270.0,6.0,0.0
1715,72.0,0.0,270.0,6.0,0.0
1716,69.0,256.0,270.0,6.0,0.0
1717,62.0,0.0,15.0,5.0,0.0
1718,70.0,0.0,270.0,6.0,0.0
1719,74.0,256.0,270.0,6.0,0.0
1720,65.0,0.0,270.0,6.0,0.0
1721,70.0,0.0,270.0,6.0,0.0
1722,74.0,256.0,270.0,6.0,0.0
1723,70.0,0.0,270.0,6.0,0.0
1724,75.0,512.0,270.0,6.0,0.0
1725,72.0,0.0,270.0,6.0,0.0
1726,77.0,0.0,510.0,6.0,0.0
1727,74.0,256.0,510.0,6.0,0.0
1728,58.0,0.0,15.0,5.0,0.0
1729,77.0,256.0,510.0,5.0,0.0
1730,74.0,0.0,510.0,5.0,0.0
1731,77.0,0.0,510.0,7.0,0.0
1732,77.0,0.0,510.0,6.0,0.0
1733,74.0,0.0,510.0,6.0,0.0
1734,74.0,0.0,510.0,7.0,0.0
1735,58.0,0.0,510.0,7.0,0.0
1736,46.0,256.0,270.0,4.0,0.0
1737,45.0,0.0,270.0,4.0,0.0
1738,65.0,0.0,15.0,5.0,0.0
1739,72.0,0.0,510.0,5.0,0.0
1740,46.0,0.0,15.0,4.0,0.0
1741,75.0,256.0,510.0,6.0,0.0
1742,75.0,0.0,510.0,7.0,0.0
1743,75.0,0.0,510.0,5.0,0.0
1744,72.0,0.0,510.0,7.0,0.0
1745,53.0,0.0,510.0,7.0,0.0
1746,41.0,0.0,510.0,4.0,0.0
1747,72.0,0.0,510.0,6.0,0.0
1748,48.0,0.0,270.0,4.0,0.0
1749,46.0,0.0,510.0,4.0,0.0
1750,50.0,256.0,270.0,4.0,0.0
1751,70.0,256.0,510.0,6.0,0.0
1752,74.0,0.0,510.0,7.0,0.0
1753,70.0,0.0,510.0,7.0,0.0
1754,65.0,0.0,510.0,7.0,0.0
1755,51.0,0.0,270.0,4.0,0.0
1756,74.0,0.0,15.0,6.0,0.0
1757,65.0,0.0,15.0,5.0,0.0
1758,70.0,0.0,15.0,5.0,0.0
1759,74.0,0.0,15.0,5.0,0.0
1760,41.0,0.0,510.0,4.0,0.0
1761,53.0,256.0,270.0,4.0,0.0
1762,74.0,0.0,510.0,7.0,0.0
1763,70.0,0.0,510.0,7.0,0.0
1764,65.0,0.0,510.0,7.0,0.0
1765,70.0,0.0,510.0,6.0,0.0
1766,51.0,0.0,270.0,4.0,0.0
1767,72.0,0.0,510.0,5.0,0.0
1768,65.0,0.0,15.0,5.0,0.0
1769,72.0,0.0,510.0,6.0,0.0
1770,41.0,0.0,510.0,4.0,0.0
1771,53.0,256.0,270.0,4.0,0.0
1772,69.0,0.0,510.0,6.0,0.0
1773,69.0,0.0,510.0,7.0,0.0
1774,72.0,0.0,510.0,7.0,0.0
1775,53.0,0.0,510.0,7.0,0.0
1776,55.0,0.0,270.0,4.0,0.0
1777,53.0,256.0,270.0,4.0,0.0
1778,51.0,256.0,270.0,4.0,0.0
1779,50.0,256.0,270.0,4.0,0.0
1780,65.0,0.0,510.0,5.0,0.0
1781,48.0,256.0,270.0,4.0,0.0
1782,46.0,0.0,510.0,4.0,0.0
1783,70.0,256.0,270.0,5.0,0.0
1784,72.0,512.0,270.0,5.0,0.0
1785,34.0,0.0,510.0,4.0,0.0
1786,70.0,256.0,510.0,6.0,0.0
1787,74.0,256.0,780.0,5.0,0.0
1788,75.0,256.0,270.0,5.0,0.0
1789,70.0,0.0,15.0,6.0,0.0
1790,74.0,256.0,270.0,5.0,0.0
1791,72.0,0.0,270.0,5.0,0.0
1792,70.0,256.0,15.0,6.0,0.0
1793,65.0,0.0,15.0,6.0,0.0
1794,74.0,256.0,270.0,5.0,0.0
1795,72.0,0.0,270.0,5.0,0.0
1796,70.0,256.0,780.0,5.0,0.0
1797,65.0,512.0,15.0,6.0,0.0
1798,62.0,0.0,15.0,6.0,0.0
1799,65.0,256.0,15.0,6.0,0.0
1800,65.0,256.0,270.0,5.0,0.0
1801,62.0,0.0,510.0,6.0,0.0
1802,70.0,256.0,270.0,5.0,0.0
1803,58.0,0.0,510.0,6.0,0.0
1804,72.0,256.0,270.0,5.0,0.0
1805,58.0,0.0,510.0,6.0,0.0
1806,62.0,256.0,510.0,6.0,0.0
1807,74.0,256.0,270.0,5.0,0.0
1808,70.0,0.0,270.0,5.0,0.0
1809,77.0,0.0,510.0,6.0,0.0
1810,46.0,256.0,270.0,4.0,0.0
1811,74.0,0.0,510.0,6.0,0.0
1812,58.0,0.0,510.0,7.0,0.0
1813,74.0,0.0,510.0,7.0,0.0
1814,74.0,256.0,510.0,5.0,0.0
1815,77.0,0.0,510.0,7.0,0.0
1816,77.0,0.0,510.0,5.0,0.0
1817,45.0,0.0,270.0,4.0,0.0
1818,46.0,0.0,15.0,4.0,0.0
1819,41.0,0.0,510.0,4.0,0.0
1820,75.0,256.0,510.0,6.0,0.0
1821,72.0,0.0,510.0,6.0,0.0
1822,65.0,0.0,15.0,5.0,0.0
1823,75.0,0.0,510.0,7.0,0.0
1824,72.0,0.0,510.0,7.0,0.0
1825,53.0,0.0,510.0,7.0,0.0
1826,72.0,0.0,510.0,5.0,0.0
1827,75.0,0.0,510.0,5.0,0.0
1828,48.0,0.0,270.0,4.0,0.0
1829,46.0,256.0,510.0,4.0,0.0
1830,50.0,256.0,270.0,4.0,0.0
1831,65.0,0.0,15.0,5.0,0.0
1832,70.0,0.0,510.0,7.0,0.0
1833,70.0,0.0,510.0,6.0,0.0
1834,74.0,0.0,510.0,6.0,0.0
1835,51.0,0.0,270.0,4.0,0.0
1836,74.0,0.0,15.0,5.0,0.0
1837,70.0,0.0,15.0,5.0,0.0
1838,70.0,256.0,510.0,7.0,0.0
1839,74.0,0.0,15.0,7.0,0.0
1840,70.0,0.0,510.0,6.0,0.0
1841,65.0,0.0,15.0,7.0,0.0
1842,53.0,256.0,270.0,4.0,0.0
1843,41.0,0.0,510.0,4.0,0.0
1844,52.0,0.0,270.0,4.0,0.0
1845,53.0,256.0,270.0,4.0,0.0
1846,72.0,0.0,15.0,6.0,0.0
1847,65.0,0.0,15.0,5.0,0.0
1848,41.0,0.0,510.0,4.0,0.0
1849,69.0,0.0,510.0,6.0,0.0
1850,72.0,0.0,510.0,7.0,0.0
1851,72.0,0.0,510.0,5.0,0.0
1852,65.0,0.0,510.0,5.0,0.0
1853,69.0,0.0,510.0,7.0,0.0
1854,53.0,0.0,510.0,7.0,0.0
1855,55.0,256.0,270.0,4.0,0.0
1856,67.0,0.0,1020.0,1.0,0.0
1857,53.0,256.0,270.0,4.0,0.0
1858,70.0,0.0,1020.0,6.0,0.0
1859,55.0,0.0,510.0,7.0,0.0
1860,53.0,0.0,510.0,3.0,0.0
1861,70.0,0.0,1020.0,0.0,0.0
1862,52.0,256.0,270.0,4.0,0.0
1863,64.0,0.0,270.0,7.0,0.0
1864,50.0,256.0,270.0,4.0,0.0
1865,52.0,0.0,510.0,3.0,0.0
1866,65.0,0.0,270.0,7.0,0.0
1867,67.0,0.0,270.0,7.0,0.0
1868,48.0,256.0,270.0,4.0,0.0
1869,60.0,0.0,15.0,2.0,0.0
1870,53.0,0.0,510.0,3.0,0.0
1871,60.0,0.0,15.0,7.0,0.0
1872,69.0,0.0,270.0,7.0,0.0
1873,69.0,256.0,1020.0,0.0,0.0
1874,69.0,0.0,1020.0,6.0,0.0
1875,53.0,0.0,510.0,4.0,0.0
1876,65.0,0.0,1020.0,1.0,0.0
1877,65.0,0.0,270.0,7.0,0.0
1878,51.0,0.0,510.0,3.0,0.0
1879,69.0,0.0,270.0,7.0,0.0
1880,65.0,0.0,510.0,7.0,0.0
1881,51.0,0.0,510.0,4.0,0.0
1882,72.0,0.0,270.0,7.0,0.0
1883,58.0,0.0,1020.0,2.0,0.0
1884,50.0,0.0,510.0,4.0,0.0
1885,65.0,0.0,510.0,1.0,0.0
1886,65.0,0.0,1020.0,6.0,0.0
1887,50.0,0.0,510.0,3.0,0.0
1888,77.0,0.0,270.0,7.0,0.0
1889,65.0,0.0,1020.0,0.0,0.0
1890,62.0,0.0,270.0,7.0,0.0
1891,63.0,0.0,270.0,1.0,0.0
1892,58.0,0.0,15.0,7.0,0.0
1893,63.0,0.0,270.0,7.0,0.0
1894,46.0,0.0,510.0,3.0,0.0
1895,46.0,0.0,510.0,4.0,0.0
1896,62.0,0.0,270.0,1.0,0.0
1897,65.0,0.0,270.0,7.0,0.0
1898,67.0,0.0,1020.0,0.0,0.0
1899,67.0,0.0,270.0,7.0,0.0
1900,51.0,256.0,510.0,3.0,0.0
1901,63.0,512.0,1020.0,1.0,0.0
1902,58.0,0.0,1020.0,2.0,0.0
1903,58.0,0.0,510.0,7.0,0.0
1904,67.0,0.0,1020.0,6.0,0.0
1905,51.0,0.0,510.0,4.0,0.0
1906,63.0,0.0,270.0,7.0,0.0
1907,50.0,0.0,510.0,4.0,0.0
1908,67.0,0.0,270.0,7.0,0.0
1909,50.0,0.0,510.0,3.0,0.0
1910,70.0,0.0,270.0,7.0,0.0
1911,60.0,0.0,510.0,2.0,0.0
1912,48.0,0.0,510.0,3.0,0.0
1913,69.0,0.0,1020.0,6.0,0.0
1914,63.0,0.0,15.0,7.0,0.0
1915,48.0,0.0,510.0,4.0,0.0
1916,69.0,0.0,1020.0,0.0,0.0
1917,63.0,0.0,510.0,1.0,0.0
1918,75.0,0.0,510.0,7.0,0.0
1919,60.0,0.0,510.0,7.0,0.0
1920,57.0,0.0,510.0,2.0,0.0
1921,53.0,0.0,510.0,3.0,0.0
1922,60.0,0.0,510.0,1.0,0.0
1923,77.0,0.0,510.0,5.0,0.0
1924,53.0,0.0,510.0,4.0,0.0
1925,55.0,256.0,510.0,4.0,0.0
1926,55.0,0.0,510.0,3.0,0.0
1927,74.0,256.0,270.0,5.0,0.0
1928,62.0,0.0,1530.0,2.0,0.0
1929,58.0,256.0,1530.0,1.0,0.0
1930,70.0,0.0,2040.0,6.0,0.0
1931,55.0,0.0,510.0,7.0,0.0
1932,74.0,0.0,270.0,5.0,0.0
1933,53.0,0.0,510.0,4.0,0.0
1934,53.0,0.0,510.0,3.0,0.0
1935,75.0,256.0,270.0,5.0,0.0
1936,77.0,256.0,270.0,5.0,0.0
1937,55.0,0.0,510.0,4.0,0.0
1938,55.0,0.0,510.0,3.0,0.0
1939,74.0,256.0,270.0,5.0,0.0
1940,74.0,0.0,270.0,5.0,0.0
1941,75.0,256.0,270.0,5.0,0.0
1942,51.0,0.0,510.0,4.0,0.0
1943,55.0,512.0,510.0,2.0,0.0
1944,51.0,0.0,510.0,3.0,0.0
1945,67.0,0.0,510.0,1.0,0.0
1946,77.0,0.0,270.0,5.0,0.0
1947,70.0,0.0,15.0,6.0,0.0
1948,46.0,0.0,1020.0,3.0,0.0
1949,70.0,0.0,15.0,0.0,0.0
1950,65.0,0.0,1020.0,1.0,0.0
1951,62.0,0.0,1020.0,2.0,0.0
1952,46.0,0.0,510.0,4.0,0.0
1953,70.0,0.0,270.0,7.0,0.0
1954,74.0,0.0,15.0,5.0,0.0
1955,58.0,0.0,270.0,4.0,0.0
1956,79.0,0.0,270.0,7.0,0.0
1957,79.0,512.0,510.0,5.0,0.0
1958,79.0,0.0,270.0,6.0,0.0
1959,70.0,0.0,270.0,5.0,0.0
1960,74.0,0.0,270.0,7.0,0.0
1961,65.0,0.0,270.0,7.0,0.0
1962,72.0,0.0,270.0,7.0,0.0
1963,77.0,0.0,270.0,7.0,0.0
1964,57.0,0.0,270.0,4.0,0.0
1965,46.0,0.0,15.0,4.0,0.0
1966,65.0,0.0,270.0,5.0,0.0
1967,72.0,0.0,270.0,5.0,0.0
1968,77.0,0.0,270.0,6.0,0.0
1969,62.0,256.0,510.0,5.0,0.0
1970,74.0,0.0,510.0,5.0,0.0
1971,79.0,0.0,510.0,7.0,0.0
1972,58.0,0.0,510.0,4.0,0.0
1973,74.0,0.0,510.0,7.0,0.0
1974,79.0,0.0,510.0,6.0,0.0
1975,62.0,0.0,510.0,7.0,0.0
1976,46.0,0.0,510.0,4.0,0.0
1977,77.0,0.0,270.0,5.0,0.0
1978,55.0,256.0,510.0,4.0,0.0
1979,75.0,256.0,270.0,5.0,0.0
1980,74.0,0.0,270.0,5.0,0.0
1981,72.0,256.0,270.0,5.0,0.0
1982,45.0,256.0,510.0,4.0,0.0
1983,72.0,0.0,270.0,5.0,0.0
1984,74.0,256.0,270.0,5.0,0.0
1985,43.0,0.0,510.0,4.0,0.0
1986,70.0,0.0,510.0,6.0,0.0
1987,75.0,256.0,270.0,5.0,0.0
1988,45.0,256.0,510.0,4.0,0.0
1989,72.0,0.0,510.0,6.0,0.0
1990,72.0,256.0,270.0,5.0,0.0
1991,72.0,0.0,270.0,5.0,0.0
1992,67.0,512.0,510.0,7.0,0.0
1993,43.0,0.0,510.0,4.0,0.0
1994,70.0,0.0,510.0,7.0,0.0
1995,74.0,256.0,270.0,5.0,0.0
1996,65.0,0.0,510.0,7.0,0.0
1997,75.0,0.0,270.0,5.0,0.0
1998,45.0,256.0,510.0,4.0,0.0
1999,60.0,0.0,510.0,7.0,0.0
2000,65.0,0.0,510.0,7.0,0.0
2001,65.0,0.0,270.0,5.0,0.0
2002,72.0,0.0,15.0,5.0,0.0
2003,77.0,0.0,510.0,5.0,0.0
2004,72.0,0.0,15.0,7.0,0.0
2005,53.0,0.0,270.0,7.0,0.0
2006,57.0,256.0,270.0,4.0,0.0
2007,77.0,0.0,270.0,6.0,0.0
2008,77.0,0.0,270.0,7.0,0.0
2009,70.0,0.0,270.0,7.0,0.0
2010,55.0,0.0,270.0,7.0,0.0
2011,75.0,0.0,270.0,7.0,0.0
2012,70.0,0.0,270.0,5.0,0.0
2013,41.0,0.0,15.0,4.0,0.0
2014,75.0,0.0,270.0,6.0,0.0
2015,65.0,512.0,270.0,5.0,0.0
2016,55.0,0.0,270.0,4.0,0.0
2017,77.0,0.0,510.0,7.0,0.0
2018,72.0,0.0,510.0,7.0,0.0
2019,53.0,0.0,510.0,7.0,0.0
2020,41.0,0.0,510.0,4.0,0.0
2021,57.0,0.0,510.0,4.0,0.0
2022,77.0,0.0,510.0,6.0,0.0
2023,72.0,0.0,510.0,5.0,0.0
2024,65.0,256.0,510.0,5.0,0.0
2025,75.0,0.0,270.0,5.0,0.0
2026,53.0,256.0,510.0,4.0,0.0
2027,74.0,256.0,270.0,5.0,0.0
2028,72.0,0.0,270.0,5.0,0.0
2029,70.0,256.0,270.0,5.0,0.0
2030,43.0,0.0,510.0,4.0,0.0
2031,82.0,256.0,270.0,5.0,0.0
2032,67.0,0.0,510.0,7.0,0.0
2033,81.0,256.0,270.0,5.0,0.0
2034,55.0,256.0,510.0,4.0,0.0
2035,70.0,0.0,510.0,7.0,0.0
2036,62.0,0.0,510.0,7.0,0.0
2037,79.0,0.0,270.0,5.0,0.0
2038,70.0,0.0,510.0,7.0,0.0
2039,65.0,0.0,510.0,7.0,0.0
2040,62.0,0.0,510.0,7.0,0.0
2041,50.0,256.0,510.0,4.0,0.0
2042,65.0,0.0,510.0,1.0,0.0
2043,65.0,0.0,1020.0,6.0,0.0
2044,65.0,0.0,1020.0,0.0,0.0
2045,70.0,256.0,270.0,5.0,0.0
2046,58.0,0.0,1020.0,2.0,0.0
2047,50.0,0.0,510.0,3.0,0.0
2048,81.0,0.0,270.0,5.0,0.0
2049,62.0,0.0,510.0,1.0,0.0
2050,70.0,0.0,510.0,7.0,0.0
2051,46.0,0.0,510.0,4.0,0.0
2052,65.0,0.0,510.0,7.0,0.0
2053,62.0,0.0,510.0,7.0,0.0
2054,79.0,256.0,270.0,5.0,0.0
2055,46.0,0.0,510.0,3.0,0.0
2056,77.0,256.0,270.0,5.0,0.0
2057,67.0,0.0,1020.0,0.0,0.0
2058,67.0,0.0,1020.0,6.0,0.0
2059,63.0,256.0,1020.0,1.0,0.0
2060,51.0,0.0,1020.0,3.0,0.0
2061,70.0,256.0,270.0,5.0,0.0
2062,39.0,0.0,510.0,4.0,0.0
2063,58.0,0.0,1020.0,2.0,0.0
2064,79.0,256.0,270.0,5.0,0.0
2065,51.0,0.0,510.0,4.0,0.0
2066,63.0,0.0,510.0,7.0,0.0
2067,55.0,0.0,510.0,7.0,0.0
2068,77.0,256.0,270.0,5.0,0.0
2069,75.0,0.0,270.0,5.0,0.0
2070,65.0,0.0,1020.0,6.0,0.0
2071,58.0,0.0,1020.0,2.0,0.0
2072,62.0,0.0,1020.0,1.0,0.0
2073,70.0,256.0,270.0,5.0,0.0
2074,46.0,0.0,510.0,4.0,0.0
2075,65.0,0.0,510.0,7.0,0.0
2076,70.0,0.0,15.0,7.0,0.0
2077,46.0,0.0,510.0,3.0,0.0
2078,65.0,0.0,1020.0,0.0,0.0
2079,77.0,256.0,270.0,5.0,0.0
2080,43.0,0.0,510.0,3.0,0.0
2081,70.0,0.0,15.0,7.0,0.0
2082,62.0,0.0,15.0,7.0,0.0
2083,67.0,0.0,510.0,7.0,0.0
2084,75.0,256.0,270.0,5.0,0.0
2085,43.0,0.0,510.0,4.0,0.0
2086,74.0,256.0,270.0,5.0,0.0
2087,62.0,0.0,510.0,1.0,0.0
2088,55.0,256.0,1020.0,2.0,0.0
2089,75.0,256.0,510.0,5.0,0.0
2090,36.0,256.0,270.0,4.0,0.0
2091,38.0,0.0,270.0,4.0,0.0
2092,39.0,256.0,270.0,4.0,0.0
2093,72.0,0.0,510.0,5.0,0.0
2094,41.0,0.0,270.0,4.0,0.0
2095,43.0,256.0,270.0,4.0,0.0
2096,48.0,0.0,15.0,3.0,0.0
2097,63.0,0.0,15.0,6.0,0.0
2098,63.0,0.0,15.0,0.0,0.0
2099,60.0,0.0,15.0,7.0,0.0
2100,67.0,0.0,15.0,7.0,0.0
2101,72.0,0.0,15.0,7.0,0.0
2102,72.0,0.0,510.0,5.0,0.0
2103,60.0,0.0,15.0,1.0,0.0
2104,55.0,0.0,510.0,2.0,0.0
2105,46.0,0.0,270.0,4.0,0.0
2106,54.0,256.0,510.0,2.0,0.0
2107,45.0,256.0,270.0,4.0,0.0
2108,72.0,0.0,15.0,7.0,0.0
2109,62.0,0.0,510.0,0.0,0.0
2110,54.0,0.0,510.0,7.0,0.0
2111,69.0,0.0,510.0,7.0,0.0
2112,43.0,0.0,270.0,4.0,0.0
2113,42.0,256.0,270.0,4.0,0.0
2114,62.0,0.0,15.0,5.0,0.0
2115,57.0,0.0,1020.0,1.0,0.0
2116,62.0,0.0,15.0,6.0,0.0
2117,50.0,0.0,1020.0,3.0,0.0
2118,62.0,0.0,1020.0,0.0,0.0
2119,54.0,256.0,1020.0,2.0,0.0
2120,38.0,256.0,270.0,4.0,0.0
2121,42.0,256.0,270.0,4.0,0.0
2122,62.0,0.0,15.0,5.0,0.0
2123,69.0,0.0,510.0,7.0,0.0
2124,62.0,0.0,510.0,7.0,0.0
2125,45.0,0.0,270.0,4.0,0.0
2126,66.0,0.0,510.0,7.0,0.0
2127,62.0,0.0,510.0,5.0,0.0
2128,72.0,0.0,15.0,7.0,0.0
2129,50.0,256.0,270.0,4.0,0.0
2130,57.0,0.0,510.0,7.0,0.0
2131,48.0,256.0,270.0,4.0,0.0
2132,74.0,0.0,510.0,6.0,0.0
2133,62.0,0.0,510.0,5.0,0.0
2134,46.0,256.0,270.0,4.0,0.0
2135,72.0,0.0,15.0,7.0,0.0
2136,66.0,0.0,510.0,7.0,0.0
2137,45.0,256.0,270.0,4.0,0.0
2138,79.0,256.0,270.0,6.0,0.0
2139,62.0,0.0,15.0,7.0,0.0
2140,62.0,0.0,510.0,5.0,0.0
2141,67.0,0.0,1020.0,7.0,0.0
2142,70.0,0.0,1020.0,7.0,0.0
2143,43.0,256.0,510.0,4.0,0.0
2144,81.0,0.0,270.0,6.0,0.0
2145,82.0,256.0,270.0,6.0,0.0
2146,55.0,0.0,510.0,4.0,0.0
2147,81.0,0.0,270.0,6.0,0.0
2148,79.0,0.0,510.0,6.0,0.0
2149,62.0,512.0,15.0,5.0,0.0
2150,62.0,0.0,270.0,7.0,0.0
2151,62.0,256.0,15.0,5.0,0.0
2152,64.0,256.0,270.0,7.0,0.0
2153,74.0,0.0,510.0,6.0,0.0
2154,66.0,0.0,270.0,7.0,0.0
2155,62.0,256.0,15.0,5.0,0.0
2156,67.0,256.0,270.0,7.0,0.0
2157,74.0,256.0,510.0,6.0,0.0
2158,62.0,0.0,270.0,7.0,0.0
2159,67.0,256.0,270.0,7.0,0.0
2160,64.0,0.0,270.0,7.0,0.0
2161,70.0,0.0,510.0,6.0,0.0
2162,62.0,0.0,510.0,5.0,0.0
2163,66.0,0.0,270.0,7.0,0.0
2164,69.0,256.0,270.0,7.0,0.0
2165,70.0,256.0,510.0,6.0,0.0
2166,67.0,0.0,270.0,7.0,0.0
2167,70.0,256.0,270.0,7.0,0.0
2168,67.0,0.0,270.0,7.0,0.0
2169,62.0,0.0,270.0,7.0,0.0
2170,70.0,0.0,270.0,7.0,0.0
2171,62.0,0.0,15.0,5.0,0.0
2172,67.0,256.0,270.0,7.0,0.0
2173,67.0,0.0,510.0,6.0,0.0
2174,72.0,512.0,270.0,7.0,0.0
2175,69.0,0.0,270.0,7.0,0.0
2176,74.0,0.0,510.0,7.0,0.0
2177,62.0,0.0,15.0,5.0,0.0
2178,67.0,0.0,510.0,6.0,0.0
2179,70.0,256.0,510.0,7.0,0.0
2180,74.0,0.0,510.0,6.0,0.0
2181,43.0,0.0,270.0,4.0,0.0
2182,62.0,0.0,15.0,5.0,0.0
2183,74.0,0.0,510.0,7.0,0.0
2184,70.0,0.0,510.0,7.0,0.0
2185,55.0,256.0,510.0,7.0,0.0
2186,42.0,0.0,270.0,4.0,0.0
2187,62.0,0.0,270.0,5.0,0.0
2188,72.0,0.0,510.0,6.0,0.0
2189,43.0,256.0,270.0,4.0,0.0
2190,69.0,256.0,510.0,7.0,0.0
2191,72.0,0.0,510.0,7.0,0.0
2192,50.0,0.0,510.0,7.0,0.0
2193,45.0,0.0,270.0,4.0,0.0
2194,62.0,0.0,15.0,5.0,0.0
2195,46.0,256.0,270.0,4.0,0.0
2196,62.0,0.0,510.0,7.0,0.0
2197,48.0,256.0,270.0,4.0,0.0
2198,62.0,0.0,15.0,5.0,0.0
2199,50.0,256.0,270.0,4.0,0.0
2200,67.0,0.0,15.0,7.0,0.0
2201,70.0,0.0,15.0,7.0,0.0
2202,70.0,0.0,15.0,6.0,0.0
2203,62.0,0.0,510.0,7.0,0.0
2204,48.0,0.0,270.0,4.0,0.0
2205,50.0,256.0,270.0,4.0,0.0
2206,50.0,0.0,510.0,7.0,0.0
2207,69.0,0.0,510.0,6.0,0.0
2208,66.0,256.0,510.0,7.0,0.0
2209,69.0,0.0,510.0,7.0,0.0
2210,51.0,0.0,270.0,4.0,0.0
2211,50.0,256.0,270.0,4.0,0.0
2212,75.0,0.0,270.0,7.0,0.0
2213,48.0,256.0,270.0,4.0,0.0
2214,74.0,0.0,270.0,7.0,0.0
2215,46.0,0.0,270.0,4.0,0.0
2216,45.0,256.0,270.0,4.0,0.0
2217,72.0,0.0,270.0,7.0,0.0
2218,70.0,0.0,270.0,7.0,0.0
2219,43.0,256.0,510.0,4.0,0.0
2220,70.0,256.0,15.0,7.0,0.0
2221,42.0,0.0,510.0,4.0,0.0
2222,63.0,0.0,510.0,6.0,0.0
2223,69.0,0.0,510.0,6.0,0.0
2224,72.0,0.0,270.0,7.0,0.0
2225,74.0,0.0,270.0,7.0,0.0
2226,62.0,0.0,510.0,6.0,0.0
2227,70.0,0.0,510.0,6.0,0.0
2228,43.0,0.0,510.0,4.0,0.0
2229,70.0,0.0,270.0,7.0,0.0
2230,70.0,256.0,15.0,7.0,0.0
2231,72.0,0.0,270.0,7.0,0.0
2232,41.0,0.0,510.0,4.0,0.0
2233,79.0,512.0,510.0,5.0,0.0
2234,74.0,0.0,270.0,7.0,0.0
2235,72.0,256.0,510.0,5.0,0.0
2236,72.0,0.0,510.0,7.0,0.0
2237,40.0,0.0,510.0,4.0,0.0
2238,52.0,0.0,270.0,4.0,0.0
2239,79.0,0.0,510.0,7.0,0.0
2240,72.0,256.0,270.0,6.0,0.0
2241,79.0,0.0,270.0,6.0,0.0
2242,55.0,0.0,270.0,7.0,0.0
2243,57.0,512.0,270.0,7.0,0.0
2244,74.0,0.0,270.0,6.0,0.0
2245,50.0,0.0,270.0,4.0,0.0
2246,77.0,0.0,270.0,6.0,0.0
2247,79.0,0.0,510.0,6.0,0.0
2248,72.0,0.0,510.0,6.0,0.0
2249,60.0,0.0,1020.0,2.0,0.0
2250,67.0,256.0,1020.0,1.0,0.0
2251,52.0,256.0,510.0,4.0,0.0
2252,70.0,0.0,1020.0,0.0,0.0
2253,55.0,0.0,510.0,7.0,0.0
2254,52.0,0.0,510.0,3.0,0.0
2255,74.0,0.0,270.0,7.0,0.0
2256,48.0,0.0,510.0,3.0,0.0
2257,70.0,0.0,510.0,6.0,0.0
2258,48.0,0.0,510.0,4.0,0.0
2259,64.0,0.0,510.0,7.0,0.0
2260,72.0,0.0,270.0,7.0,0.0
2261,70.0,0.0,270.0,7.0,0.0
2262,65.0,0.0,1530.0,1.0,0.0
2263,69.0,0.0,1020.0,0.0,0.0
2264,53.0,0.0,1530.0,3.0,0.0
2265,41.0,0.0,510.0,4.0,0.0
2266,60.0,0.0,1530.0,2.0,0.0
2267,69.0,0.0,270.0,7.0,0.0
2268,69.0,0.0,1020.0,6.0,0.0
2269,69.0,0.0,270.0,7.0,0.0
2270,60.0,0.0,15.0,7.0,0.0
2271,40.0,0.0,510.0,4.0,0.0
2272,70.0,0.0,270.0,7.0,0.0
2273,72.0,0.0,270.0,7.0,0.0
2274,53.0,256.0,510.0,7.0,0.0
2275,72.0,0.0,1020.0,0.0,0.0
2276,72.0,0.0,1020.0,6.0,0.0
2277,41.0,0.0,510.0,4.0,0.0
2278,69.0,0.0,15.0,7.0,0.0
2279,55.0,0.0,510.0,2.0,0.0
2280,60.0,0.0,510.0,1.0,0.0
2281,70.0,0.0,270.0,7.0,0.0
2282,52.0,0.0,510.0,3.0,0.0
2283,40.0,0.0,510.0,4.0,0.0
2284,55.0,0.0,510.0,7.0,0.0
2285,72.0,0.0,270.0,7.0,0.0
2286,62.0,0.0,1530.0,1.0,0.0
2287,53.0,0.0,1530.0,2.0,0.0
2288,70.0,0.0,1020.0,0.0,0.0
2289,62.0,0.0,510.0,7.0,0.0
2290,50.0,0.0,1530.0,3.0,0.0
2291,70.0,0.0,1020.0,6.0,0.0
2292,70.0,0.0,510.0,7.0,0.0
2293,38.0,0.0,510.0,4.0,0.0
2294,58.0,0.0,510.0,7.0,0.0
2295,50.0,256.0,270.0,4.0,0.0
2296,77.0,0.0,510.0,7.0,0.0
2297,48.0,512.0,270.0,4.0,0.0
2298,69.0,0.0,1020.0,0.0,0.0
2299,69.0,0.0,1020.0,6.0,0.0
2300,50.0,256.0,510.0,4.0,0.0
2301,65.0,0.0,510.0,7.0,0.0
2302,69.0,0.0,270.0,7.0,0.0
2303,45.0,256.0,510.0,4.0,0.0
2304,60.0,0.0,510.0,7.0,0.0
2305,45.0,0.0,510.0,3.0,0.0
2306,67.0,0.0,270.0,7.0,0.0
2307,53.0,0.0,510.0,2.0,0.0
2308,60.0,0.0,510.0,1.0,0.0
2309,65.0,0.0,270.0,7.0,0.0
2310,67.0,0.0,2040.0,0.0,0.0
2311,67.0,0.0,270.0,7.0,0.0
2312,62.0,0.0,510.0,7.0,0.0
2313,62.0,0.0,510.0,1.0,0.0
2314,53.0,0.0,510.0,2.0,0.0
2315,67.0,0.0,2040.0,6.0,0.0
2316,46.0,0.0,510.0,3.0,0.0
2317,46.0,256.0,510.0,4.0,0.0
2318,77.0,0.0,270.0,7.0,0.0
2319,43.0,256.0,510.0,3.0,0.0
2320,43.0,0.0,510.0,4.0,0.0
2321,55.0,0.0,510.0,2.0,0.0
2322,58.0,0.0,510.0,1.0,0.0
2323,76.0,0.0,270.0,7.0,0.0
2324,74.0,0.0,270.0,7.0,0.0
2325,48.0,256.0,510.0,4.0,0.0
2326,52.0,0.0,1020.0,2.0,0.0
2327,67.0,0.0,15.0,7.0,0.0
2328,72.0,0.0,270.0,7.0,0.0
2329,48.0,0.0,1020.0,3.0,0.0
2330,70.0,0.0,270.0,7.0,0.0
2331,64.0,0.0,510.0,7.0,0.0
2332,76.0,0.0,510.0,5.0,0.0
2333,69.0,0.0,270.0,7.0,0.0
2334,36.0,0.0,510.0,4.0,0.0
2335,67.0,0.0,270.0,7.0,0.0
2336,41.0,0.0,1020.0,3.0,0.0
2337,60.0,0.0,15.0,1.0,0.0
2338,65.0,0.0,1020.0,7.0,0.0
2339,77.0,256.0,270.0,5.0,0.0
2340,41.0,0.0,510.0,4.0,0.0
2341,53.0,0.0,1020.0,2.0,0.0
2342,60.0,0.0,1020.0,7.0,0.0
2343,69.0,512.0,1020.0,0.0,0.0
2344,69.0,0.0,1020.0,6.0,0.0
2345,79.0,256.0,270.0,5.0,0.0
2346,53.0,0.0,510.0,4.0,0.0
2347,81.0,256.0,270.0,5.0,0.0
2348,79.0,0.0,270.0,5.0,0.0
2349,77.0,512.0,510.0,5.0,0.0
2350,72.0,512.0,15.0,5.0,0.0
2351,77.0,512.0,15.0,5.0,0.0
2352,65.0,512.0,510.0,5.0,0.0
2353,65.0,256.0,510.0,5.0,0.0
2354,41.0,0.0,270.0,4.0,0.0
2355,72.0,0.0,510.0,7.0,0.0
2356,53.0,0.0,510.0,7.0,0.0
2357,72.0,256.0,270.0,5.0,0.0
2358,81.0,256.0,510.0,7.0,0.0
2359,40.0,0.0,270.0,4.0,0.0
2360,72.0,0.0,270.0,5.0,0.0
2361,72.0,0.0,510.0,5.0,0.0
2362,70.0,0.0,510.0,7.0,0.0
2363,79.0,0.0,510.0,7.0,0.0
2364,41.0,256.0,270.0,4.0,0.0
2365,48.0,0.0,510.0,7.0,0.0
2366,43.0,256.0,270.0,4.0,0.0
2367,77.0,0.0,510.0,7.0,0.0
2368,69.0,0.0,510.0,7.0,0.0
2369,60.0,256.0,510.0,7.0,0.0
2370,72.0,0.0,510.0,5.0,0.0
2371,45.0,256.0,270.0,4.0,0.0
2372,46.0,0.0,270.0,4.0,0.0
2373,72.0,0.0,270.0,5.0,0.0
2374,48.0,256.0,270.0,4.0,0.0
2375,77.0,256.0,510.0,7.0,0.0
2376,69.0,0.0,510.0,7.0,0.0
2377,60.0,0.0,510.0,7.0,0.0
2378,74.0,0.0,270.0,5.0,0.0
2379,50.0,0.0,270.0,4.0,0.0
2380,76.0,0.0,510.0,7.0,0.0
2381,67.0,0.0,510.0,7.0,0.0
2382,76.0,256.0,270.0,5.0,0.0
2383,48.0,256.0,510.0,7.0,0.0
2384,52.0,0.0,270.0,4.0,0.0
2385,77.0,0.0,270.0,5.0,0.0
2386,50.0,0.0,270.0,4.0,0.0
2387,79.0,256.0,510.0,5.0,0.0
2388,49.0,256.0,270.0,4.0,0.0
2389,47.0,0.0,270.0,4.0,0.0
2390,76.0,0.0,510.0,7.0,0.0
2391,57.0,0.0,510.0,7.0,0.0
2392,79.0,0.0,510.0,7.0,0.0
2393,49.0,256.0,270.0,4.0,0.0
2394,45.0,512.0,270.0,4.0,0.0
2395,79.0,0.0,510.0,7.0,0.0
2396,74.0,0.0,510.0,7.0,0.0
2397,57.0,0.0,510.0,7.0,0.0
2398,50.0,256.0,510.0,4.0,0.0
2399,69.0,0.0,510.0,7.0,0.0
2400,62.0,0.0,510.0,7.0,0.0
2401,77.0,512.0,510.0,7.0,0.0
2402,38.0,0.0,510.0,4.0,0.0
2403,77.0,256.0,270.0,5.0,0.0
2404,79.0,0.0,270.0,5.0,0.0
2405,81.0,0.0,510.0,5.0,0.0
2406,69.0,256.0,270.0,7.0,0.0
2407,71.0,256.0,270.0,7.0,0.0
2408,73.0,256.0,270.0,7.0,0.0
2409,74.0,256.0,270.0,7.0,0.0
2410,69.0,0.0,270.0,7.0,0.0
2411,74.0,256.0,270.0,7.0,0.0
2412,71.0,0.0,270.0,7.0,0.0
2413,73.0,0.0,270.0,7.0,0.0
2414,76.0,256.0,270.0,7.0,0.0
2415,77.0,0.0,270.0,7.0,0.0
2416,69.0,0.0,270.0,7.0,0.0
2417,74.0,256.0,15.0,7.0,0.0
2418,74.0,256.0,15.0,7.0,0.0
2419,77.0,256.0,270.0,7.0,0.0
2420,79.0,512.0,270.0,7.0,0.0
2421,76.0,0.0,270.0,7.0,0.0
2422,78.0,256.0,510.0,7.0,0.0
2423,81.0,0.0,510.0,7.0,0.0
2424,75.0,0.0,510.0,7.0,0.0
2425,38.0,0.0,270.0,4.0,0.0
2426,72.0,0.0,510.0,7.0,0.0
2427,66.0,256.0,270.0,7.0,0.0
2428,64.0,0.0,270.0,7.0,0.0
2429,36.0,256.0,270.0,4.0,0.0
2430,38.0,0.0,270.0,4.0,0.0
2431,74.0,0.0,510.0,7.0,0.0
2432,66.0,256.0,270.0,7.0,0.0
2433,70.0,0.0,510.0,7.0,0.0
2434,40.0,0.0,270.0,4.0,0.0
2435,67.0,256.0,270.0,7.0,0.0
2436,69.0,256.0,270.0,7.0,0.0
2437,42.0,0.0,270.0,4.0,0.0
2438,72.0,0.0,510.0,7.0,0.0
2439,38.0,256.0,270.0,4.0,0.0
2440,66.0,0.0,270.0,7.0,0.0
2441,43.0,0.0,510.0,4.0,0.0
2442,70.0,0.0,270.0,7.0,0.0
2443,62.0,0.0,270.0,7.0,0.0
2444,67.0,256.0,15.0,7.0,0.0
2445,70.0,256.0,270.0,7.0,0.0
2446,55.0,0.0,510.0,4.0,0.0
2447,67.0,0.0,270.0,7.0,0.0
2448,50.0,256.0,510.0,7.0,0.0
2449,72.0,0.0,270.0,7.0,0.0
2450,69.0,0.0,270.0,7.0,0.0
2451,74.0,256.0,270.0,7.0,0.0
2452,70.0,0.0,270.0,7.0,0.0
2453,67.0,0.0,270.0,7.0,0.0
2454,62.0,256.0,270.0,7.0,0.0
2455,70.0,0.0,270.0,7.0,0.0
2456,67.0,256.0,270.0,7.0,0.0
2457,74.0,0.0,270.0,7.0,0.0
2458,69.0,512.0,270.0,7.0,0.0
2459,79.0,256.0,510.0,7.0,0.0
2460,70.0,0.0,510.0,7.0,0.0
2461,36.0,256.0,270.0,4.0,0.0
2462,74.0,0.0,510.0,7.0,0.0
2463,64.0,0.0,270.0,7.0,0.0
2464,70.0,0.0,510.0,7.0,0.0
2465,62.0,0.0,270.0,7.0,0.0
2466,34.0,256.0,270.0,4.0,0.0
2467,72.0,0.0,510.0,7.0,0.0
2468,69.0,0.0,510.0,7.0,0.0
2469,64.0,0.0,270.0,7.0,0.0
2470,36.0,256.0,270.0,4.0,0.0
2471,38.0,0.0,270.0,4.0,0.0
2472,65.0,256.0,270.0,7.0,0.0
2473,70.0,0.0,510.0,7.0,0.0
2474,40.0,0.0,270.0,4.0,0.0
2475,67.0,256.0,270.0,7.0,0.0
2476,36.0,256.0,270.0,4.0,0.0
2477,64.0,0.0,270.0,7.0,0.0
2478,69.0,0.0,270.0,7.0,0.0
2479,41.0,256.0,510.0,4.0,0.0
2480,60.0,0.0,270.0,7.0,0.0
2481,65.0,256.0,15.0,7.0,0.0
2482,69.0,0.0,270.0,7.0,0.0
2483,65.0,256.0,270.0,7.0,0.0
2484,48.0,0.0,510.0,7.0,0.0
2485,53.0,0.0,510.0,4.0,0.0
2486,70.0,0.0,270.0,7.0,0.0
2487,67.0,256.0,270.0,7.0,0.0
2488,72.0,0.0,270.0,7.0,0.0
2489,69.0,256.0,270.0,7.0,0.0
2490,65.0,0.0,270.0,7.0,0.0
2491,60.0,256.0,270.0,7.0,0.0
2492,69.0,256.0,270.0,7.0,0.0
2493,65.0,0.0,270.0,7.0,0.0
2494,72.0,0.0,270.0,7.0,0.0
2495,67.0,512.0,270.0,7.0,0.0
2496,77.0,256.0,510.0,7.0,0.0
2497,68.0,0.0,510.0,7.0,0.0
2498,72.0,0.0,510.0,7.0,0.0
2499,68.0,0.0,510.0,7.0,0.0
2500,62.0,0.0,270.0,7.0,0.0
2501,34.0,256.0,270.0,4.0,0.0
2502,60.0,0.0,270.0,7.0,0.0
2503,32.0,256.0,270.0,4.0,0.0
2504,62.0,0.0,270.0,7.0,0.0
2505,70.0,256.0,510.0,7.0,0.0
2506,67.0,0.0,510.0,7.0,0.0
2507,46.0,256.0,1020.0,3.0,0.0
2508,58.0,0.0,1020.0,2.0,0.0
2509,62.0,0.0,1020.0,0.0,0.0
2510,62.0,0.0,1020.0,1.0,0.0
2511,34.0,256.0,270.0,4.0,0.0
2512,63.0,0.0,270.0,7.0,0.0
2513,36.0,0.0,270.0,4.0,0.0
2514,38.0,256.0,270.0,4.0,0.0
2515,65.0,0.0,270.0,7.0,0.0
2516,68.0,0.0,510.0,7.0,0.0
2517,34.0,0.0,270.0,4.0,0.0
2518,62.0,0.0,270.0,7.0,0.0
2519,67.0,256.0,270.0,7.0,0.0
2520,48.0,0.0,1020.0,3.0,0.0
2521,63.0,0.0,1020.0,0.0,0.0
2522,36.0,0.0,510.0,4.0,0.0
2523,55.0,0.0,510.0,1.0,0.0
2524,58.0,256.0,510.0,2.0,0.0
2525,63.0,0.0,15.0,7.0,0.0
2526,60.0,0.0,270.0,7.0,0.0
2527,48.0,256.0,510.0,4.0,0.0
2528,67.0,0.0,270.0,7.0,0.0
2529,51.0,0.0,510.0,7.0,0.0
2530,57.0,0.0,270.0,2.0,0.0
2531,60.0,0.0,510.0,1.0,0.0
2532,55.0,0.0,270.0,2.0,0.0
2533,69.0,0.0,270.0,7.0,0.0
2534,58.0,0.0,1020.0,1.0,0.0
2535,50.0,0.0,510.0,3.0,0.0
2536,62.0,0.0,1020.0,0.0,0.0
2537,70.0,0.0,270.0,7.0,0.0
2538,53.0,0.0,510.0,7.0,0.0
2539,50.0,256.0,510.0,4.0,0.0
2540,75.0,0.0,270.0,7.0,0.0
2541,74.0,0.0,270.0,7.0,0.0
2542,46.0,0.0,510.0,7.0,0.0
2543,51.0,0.0,510.0,3.0,0.0
2544,51.0,0.0,510.0,4.0,0.0
2545,72.0,0.0,270.0,7.0,0.0
2546,53.0,0.0,510.0,7.0,0.0
2547,70.0,0.0,270.0,7.0,0.0
2548,53.0,0.0,510.0,4.0,0.0
2549,53.0,0.0,510.0,3.0,0.0
2550,60.0,256.0,1020.0,0.0,0.0
2551,58.0,0.0,510.0,1.0,0.0
2552,53.0,256.0,15.0,2.0,0.0
2553,74.0,0.0,270.0,7.0,0.0
2554,57.0,0.0,270.0,1.0,0.0
2555,72.0,0.0,270.0,7.0,0.0
2556,51.0,0.0,510.0,4.0,0.0
2557,55.0,0.0,510.0,7.0,0.0
2558,51.0,0.0,510.0,3.0,0.0
2559,55.0,0.0,270.0,1.0,0.0
2560,70.0,0.0,270.0,7.0,0.0
2561,53.0,0.0,510.0,3.0,0.0
2562,65.0,0.0,1020.0,0.0,0.0
2563,53.0,0.0,510.0,4.0,0.0
2564,57.0,0.0,1020.0,1.0,0.0
2565,57.0,0.0,510.0,7.0,0.0
2566,65.0,0.0,270.0,7.0,0.0
2567,75.0,0.0,270.0,5.0,0.0
2568,72.0,0.0,270.0,7.0,0.0
2569,41.0,0.0,510.0,3.0,0.0
2570,60.0,0.0,510.0,7.0,0.0
2571,70.0,0.0,270.0,7.0,0.0
2572,41.0,0.0,510.0,4.0,0.0
2573,74.0,0.0,270.0,5.0,0.0
2574,69.0,0.0,270.0,7.0,0.0
2575,72.0,0.0,270.0,5.0,0.0
2576,58.0,0.0,4110.0,1.0,0.0
2577,58.0,0.0,510.0,7.0,0.0
2578,67.0,0.0,510.0,7.0,0.0
2579,62.0,0.0,510.0,7.0,0.0
2580,62.0,0.0,4110.0,0.0,0.0
2581,46.0,0.0,510.0,4.0,0.0
2582,53.0,256.0,15.0,2.0,0.0
2583,46.0,0.0,4110.0,3.0,0.0
2584,70.0,256.0,270.0,5.0,0.0
2585,72.0,256.0,270.0,5.0,0.0
2586,34.0,512.0,510.0,4.0,0.0
2587,65.0,0.0,510.0,7.0,0.0
2588,58.0,0.0,510.0,7.0,0.0
2589,63.0,0.0,510.0,7.0,0.0
2590,74.0,256.0,270.0,5.0,0.0
2591,72.0,0.0,270.0,5.0,0.0
2592,70.0,512.0,510.0,5.0,0.0
2593,65.0,0.0,510.0,7.0,0.0
2594,63.0,0.0,510.0,7.0,0.0
2595,58.0,0.0,510.0,7.0,0.0
2596,62.0,0.0,510.0,7.0,0.0
2597,60.0,512.0,510.0,7.0,0.0
2598,65.0,0.0,510.0,7.0,0.0
2599,65.0,0.0,15.0,5.0,0.0
2600,65.0,0.0,510.0,7.0,0.0
2601,62.0,0.0,510.0,7.0,0.0
2602,60.0,512.0,510.0,7.0,0.0
2603,62.0,0.0,510.0,5.0,0.0
2604,62.0,0.0,510.0,7.0,0.0
2605,53.0,0.0,510.0,7.0,0.0
2606,58.0,512.0,15.0,7.0,0.0
2607,53.0,0.0,510.0,7.0,0.0
2608,62.0,0.0,510.0,5.0,0.0
2609,62.0,512.0,510.0,7.0,0.0
2610,58.0,512.0,510.0,5.0,0.0
2611,58.0,0.0,15.0,7.0,0.0
2612,53.0,0.0,15.0,7.0,0.0
2613,58.0,256.0,510.0,5.0,0.0
2614,46.0,256.0,270.0,4.0,0.0
2615,74.0,0.0,510.0,7.0,0.0
2616,77.0,0.0,510.0,7.0,0.0
2617,58.0,0.0,510.0,7.0,0.0
2618,77.0,0.0,510.0,5.0,0.0
2619,45.0,0.0,270.0,4.0,0.0
2620,46.0,256.0,15.0,4.0,0.0
2621,41.0,0.0,510.0,4.0,0.0
2622,75.0,256.0,510.0,5.0,0.0
2623,75.0,0.0,510.0,7.0,0.0
2624,72.0,0.0,510.0,7.0,0.0
2625,53.0,0.0,510.0,7.0,0.0
2626,48.0,0.0,270.0,4.0,0.0
2627,74.0,0.0,510.0,7.0,0.0
2628,46.0,0.0,510.0,4.0,0.0
2629,50.0,256.0,270.0,4.0,0.0
2630,51.0,0.0,270.0,4.0,0.0
2631,65.0,0.0,15.0,7.0,0.0
2632,70.0,256.0,15.0,7.0,0.0
2633,74.0,0.0,510.0,7.0,0.0
2634,74.0,0.0,15.0,5.0,0.0
2635,41.0,0.0,510.0,4.0,0.0
2636,53.0,256.0,270.0,4.0,0.0
2637,51.0,0.0,270.0,4.0,0.0
2638,53.0,0.0,510.0,7.0,0.0
2639,72.0,0.0,510.0,7.0,0.0
2640,69.0,0.0,510.0,7.0,0.0
2641,53.0,256.0,270.0,4.0,0.0
2642,41.0,256.0,510.0,4.0,0.0
2643,72.0,0.0,510.0,5.0,0.0
2644,55.0,0.0,270.0,4.0,0.0
2645,53.0,256.0,270.0,4.0,0.0
2646,51.0,256.0,270.0,4.0,0.0
2647,50.0,256.0,270.0,4.0,0.0
2648,65.0,256.0,510.0,5.0,0.0
2649,48.0,0.0,270.0,4.0,0.0
2650,46.0,0.0,510.0,4.0,0.0
2651,70.0,256.0,270.0,5.0,0.0
2652,72.0,512.0,270.0,5.0,0.0
2653,34.0,256.0,510.0,4.0,0.0
2654,74.0,256.0,780.0,5.0,0.0
2655,75.0,256.0,270.0,5.0,0.0
2656,74.0,256.0,270.0,5.0,0.0
2657,72.0,256.0,270.0,5.0,0.0
2658,74.0,256.0,270.0,5.0,0.0
2659,72.0,768.0,270.0,5.0,0.0
2660,70.0,256.0,780.0,5.0,0.0
2661,65.0,256.0,270.0,5.0,0.0
2662,70.0,256.0,270.0,5.0,0.0
2663,72.0,256.0,270.0,5.0,0.0
2664,74.0,256.0,270.0,5.0,0.0
2665,70.0,256.0,270.0,5.0,0.0
2666,77.0,256.0,510.0,5.0,0.0
2667,74.0,0.0,510.0,7.0,0.0
2668,77.0,0.0,510.0,7.0,0.0
2669,46.0,256.0,270.0,4.0,0.0
2670,58.0,0.0,510.0,7.0,0.0
2671,45.0,0.0,270.0,4.0,0.0
2672,41.0,0.0,510.0,4.0,0.0
2673,53.0,0.0,510.0,7.0,0.0
2674,72.0,0.0,510.0,7.0,0.0
2675,75.0,0.0,510.0,7.0,0.0
2676,75.0,0.0,510.0,5.0,0.0
2677,46.0,256.0,270.0,4.0,0.0
2678,48.0,256.0,270.0,4.0,0.0
2679,74.0,0.0,510.0,5.0,0.0
2680,46.0,0.0,510.0,4.0,0.0
2681,50.0,256.0,270.0,4.0,0.0
2682,51.0,0.0,270.0,4.0,0.0
2683,74.0,0.0,15.0,7.0,0.0
2684,65.0,0.0,15.0,7.0,0.0
2685,74.0,0.0,510.0,5.0,0.0
2686,53.0,256.0,270.0,4.0,0.0
2687,41.0,0.0,510.0,4.0,0.0
2688,70.0,256.0,15.0,7.0,0.0
2689,51.0,0.0,270.0,4.0,0.0
2690,41.0,0.0,510.0,4.0,0.0
2691,72.0,0.0,510.0,5.0,0.0
2692,53.0,0.0,510.0,7.0,0.0
2693,53.0,256.0,270.0,4.0,0.0
2694,69.0,0.0,510.0,7.0,0.0
2695,72.0,0.0,510.0,7.0,0.0
2696,55.0,256.0,270.0,4.0,0.0
2697,53.0,256.0,270.0,4.0,0.0
2698,51.0,256.0,270.0,4.0,0.0
2699,77.0,0.0,510.0,5.0,0.0
2700,50.0,256.0,270.0,4.0,0.0
2701,48.0,256.0,270.0,4.0,0.0
2702,74.0,256.0,270.0,5.0,0.0
2703,46.0,0.0,510.0,4.0,0.0
2704,74.0,256.0,270.0,5.0,0.0
2705,75.0,256.0,270.0,5.0,0.0
2706,45.0,256.0,510.0,4.0,0.0
2707,77.0,0.0,270.0,5.0,0.0
2708,74.0,256.0,270.0,5.0,0.0
2709,46.0,256.0,510.0,4.0,0.0
2710,74.0,0.0,270.0,5.0,0.0
2711,72.0,0.0,510.0,7.0,0.0
2712,45.0,0.0,510.0,4.0,0.0
2713,75.0,256.0,270.0,5.0,0.0
2714,77.0,0.0,270.0,5.0,0.0
2715,70.0,0.0,510.0,7.0,0.0
2716,65.0,512.0,15.0,7.0,0.0
2717,74.0,0.0,510.0,5.0,0.0
2718,74.0,0.0,15.0,7.0,0.0
2719,79.0,256.0,270.0,7.0,0.0
2720,79.0,0.0,510.0,5.0,0.0
2721,46.0,0.0,15.0,4.0,0.0
2722,70.0,0.0,270.0,7.0,0.0
2723,58.0,0.0,270.0,4.0,0.0
2724,77.0,0.0,270.0,7.0,0.0
2725,72.0,0.0,270.0,7.0,0.0
2726,65.0,0.0,270.0,7.0,0.0
2727,46.0,0.0,270.0,4.0,0.0
2728,57.0,512.0,270.0,4.0,0.0
2729,46.0,256.0,510.0,4.0,0.0
2730,58.0,0.0,510.0,4.0,0.0
2731,62.0,0.0,510.0,7.0,0.0
2732,74.0,0.0,510.0,7.0,0.0
2733,79.0,0.0,510.0,7.0,0.0
2734,77.0,0.0,270.0,5.0,0.0
2735,55.0,256.0,510.0,4.0,0.0
2736,75.0,256.0,270.0,5.0,0.0
2737,74.0,0.0,270.0,5.0,0.0
2738,45.0,256.0,510.0,4.0,0.0
2739,72.0,256.0,15.0,5.0,0.0
2740,74.0,256.0,270.0,5.0,0.0
2741,43.0,0.0,510.0,4.0,0.0
2742,75.0,256.0,270.0,5.0,0.0
2743,45.0,0.0,510.0,4.0,0.0
2744,72.0,256.0,15.0,5.0,0.0
2745,74.0,256.0,270.0,5.0,0.0
2746,70.0,512.0,510.0,7.0,0.0
2747,43.0,0.0,510.0,4.0,0.0
2748,67.0,0.0,510.0,7.0,0.0
2749,75.0,0.0,270.0,5.0,0.0
2750,72.0,0.0,510.0,7.0,0.0
2751,60.0,0.0,510.0,7.0,0.0
2752,65.0,0.0,15.0,7.0,0.0
2753,72.0,0.0,510.0,5.0,0.0
2754,45.0,256.0,510.0,4.0,0.0
2755,77.0,0.0,510.0,5.0,0.0
2756,77.0,0.0,270.0,7.0,0.0
2757,53.0,256.0,270.0,7.0,0.0
2758,57.0,0.0,270.0,4.0,0.0
2759,41.0,0.0,270.0,4.0,0.0
2760,72.0,0.0,270.0,7.0,0.0
2761,55.0,512.0,270.0,4.0,0.0
2762,75.0,0.0,270.0,7.0,0.0
2763,70.0,0.0,270.0,7.0,0.0
2764,55.0,0.0,270.0,7.0,0.0
2765,53.0,0.0,510.0,7.0,0.0
2766,57.0,0.0,510.0,4.0,0.0
2767,41.0,0.0,15.0,4.0,0.0
2768,72.0,0.0,510.0,7.0,0.0
2769,77.0,0.0,510.0,7.0,0.0
2770,75.0,256.0,270.0,5.0,0.0
2771,53.0,0.0,510.0,4.0,0.0
2772,74.0,256.0,270.0,5.0,0.0
2773,72.0,256.0,270.0,5.0,0.0
2774,43.0,256.0,510.0,4.0,0.0
2775,62.0,0.0,2040.0,7.0,0.0
2776,67.0,0.0,4620.0,7.0,0.0
2777,70.0,0.0,4620.0,7.0,0.0
2778,70.0,256.0,270.0,5.0,0.0
2779,82.0,0.0,270.0,5.0,0.0
2780,55.0,256.0,510.0,4.0,0.0
2781,81.0,256.0,270.0,5.0,0.0
2782,79.0,0.0,270.0,5.0,0.0
2783,53.0,0.0,510.0,4.0,0.0
2784,70.0,256.0,270.0,5.0,0.0
2785,81.0,256.0,270.0,5.0,0.0
2786,79.0,256.0,270.0,5.0,0.0
2787,41.0,256.0,510.0,4.0,0.0
2788,77.0,0.0,270.0,5.0,0.0
2789,55.0,0.0,1020.0,7.0,0.0
2790,70.0,256.0,270.0,5.0,0.0
2791,39.0,0.0,510.0,4.0,0.0
2792,79.0,256.0,270.0,5.0,0.0
2793,77.0,256.0,270.0,5.0,0.0
2794,51.0,0.0,510.0,4.0,0.0
2795,75.0,256.0,270.0,5.0,0.0
2796,58.0,0.0,1020.0,7.0,0.0
2797,70.0,256.0,270.0,5.0,0.0
2798,50.0,0.0,510.0,4.0,0.0
2799,77.0,256.0,270.0,5.0,0.0
2800,38.0,256.0,510.0,4.0,0.0
2801,75.0,256.0,270.0,5.0,0.0
2802,74.0,0.0,270.0,5.0,0.0
2803,36.0,256.0,270.0,4.0,0.0
2804,75.0,0.0,510.0,5.0,0.0
2805,60.0,0.0,510.0,7.0,0.0
2806,38.0,256.0,270.0,4.0,0.0
2807,79.0,0.0,510.0,7.0,0.0
2808,60.0,0.0,270.0,7.0,0.0
2809,39.0,256.0,270.0,4.0,0.0
2810,55.0,0.0,510.0,7.0,0.0
2811,72.0,256.0,510.0,5.0,0.0
2812,62.0,0.0,270.0,7.0,0.0
2813,41.0,0.0,270.0,4.0,0.0
2814,75.0,0.0,510.0,7.0,0.0
2815,43.0,0.0,270.0,4.0,0.0
2816,63.0,256.0,270.0,7.0,0.0
2817,72.0,0.0,510.0,5.0,0.0
2818,45.0,0.0,270.0,4.0,0.0
2819,60.0,0.0,270.0,7.0,0.0
2820,46.0,0.0,270.0,4.0,0.0
2821,62.0,256.0,270.0,7.0,0.0
2822,70.0,0.0,510.0,7.0,0.0
2823,43.0,0.0,270.0,4.0,0.0
2824,63.0,0.0,270.0,7.0,0.0
2825,65.0,0.0,15.0,7.0,0.0
2826,45.0,0.0,270.0,4.0,0.0
2827,65.0,256.0,15.0,5.0,0.0
2828,41.0,256.0,270.0,4.0,0.0
2829,60.0,0.0,270.0,7.0,0.0
2830,65.0,0.0,270.0,7.0,0.0
2831,45.0,0.0,270.0,4.0,0.0
2832,75.0,0.0,510.0,5.0,0.0
2833,48.0,0.0,270.0,4.0,0.0
2834,41.0,256.0,15.0,4.0,0.0
2835,60.0,0.0,510.0,7.0,0.0
2836,72.0,0.0,15.0,7.0,0.0
2837,69.0,256.0,15.0,7.0,0.0
2838,53.0,0.0,510.0,4.0,0.0
2839,69.0,0.0,270.0,7.0,0.0
2840,45.0,0.0,510.0,4.0,0.0
2841,65.0,256.0,270.0,7.0,0.0
2842,72.0,0.0,510.0,7.0,0.0
2843,77.0,0.0,510.0,5.0,0.0
2844,41.0,256.0,15.0,4.0,0.0
2845,60.0,0.0,510.0,7.0,0.0
2846,77.0,256.0,270.0,7.0,0.0
2847,62.0,0.0,510.0,7.0,0.0
2848,75.0,256.0,270.0,5.0,0.0
2849,65.0,0.0,510.0,7.0,0.0
2850,75.0,0.0,270.0,7.0,0.0
2851,74.0,0.0,270.0,7.0,0.0
2852,74.0,0.0,270.0,5.0,0.0
2853,72.0,0.0,270.0,5.0,0.0
2854,46.0,0.0,15.0,4.0,0.0
2855,43.0,0.0,510.0,4.0,0.0
2856,67.0,0.0,510.0,7.0,0.0
2857,72.0,0.0,270.0,7.0,0.0
2858,62.0,512.0,510.0,7.0,0.0
2859,70.0,0.0,270.0,7.0,0.0
2860,70.0,0.0,270.0,5.0,0.0
2861,46.0,256.0,15.0,4.0,0.0
2862,39.0,0.0,510.0,4.0,0.0
2863,46.0,0.0,15.0,4.0,0.0
2864,74.0,512.0,510.0,5.0,0.0
2865,55.0,0.0,510.0,7.0,0.0
2866,74.0,0.0,510.0,7.0,0.0
2867,67.0,0.0,510.0,7.0,0.0
2868,72.0,0.0,510.0,7.0,0.0
2869,41.0,0.0,510.0,4.0,0.0
2870,60.0,512.0,510.0,7.0,0.0
2871,69.0,0.0,510.0,7.0,0.0
2872,72.0,0.0,510.0,5.0,0.0
2873,46.0,0.0,510.0,4.0,0.0
2874,43.0,0.0,510.0,4.0,0.0
2875,62.0,0.0,510.0,7.0,0.0
2876,67.0,0.0,510.0,7.0,0.0
2877,70.0,256.0,510.0,7.0,0.0
2878,70.0,128.0,1290.0,5.0,0.0
2879,55.0,0.0,270.0,4.0,0.0
2880,82.0,256.0,270.0,7.0,0.0
2881,53.0,256.0,270.0,4.0,0.0
2882,81.0,0.0,270.0,7.0,0.0
2883,55.0,0.0,510.0,4.0,0.0
2884,82.0,0.0,510.0,7.0,0.0
2885,72.0,128.0,120.0,5.0,0.0
2886,74.0,256.0,120.0,5.0,0.0
2887,67.0,0.0,510.0,7.0,0.0
2888,43.0,0.0,510.0,4.0,0.0
2889,70.0,0.0,510.0,7.0,0.0
2890,75.0,0.0,510.0,7.0,0.0
2891,75.0,128.0,270.0,5.0,0.0
2892,74.0,128.0,120.0,5.0,0.0
2893,72.0,512.0,120.0,5.0,0.0
2894,38.0,0.0,510.0,4.0,0.0
2895,46.0,0.0,510.0,4.0,0.0
2896,70.0,128.0,1290.0,5.0,0.0
2897,70.0,0.0,510.0,7.0,0.0
2898,77.0,0.0,510.0,7.0,0.0
2899,65.0,256.0,510.0,7.0,0.0
2900,50.0,256.0,270.0,4.0,0.0
2901,77.0,0.0,270.0,7.0,0.0
2902,75.0,0.0,270.0,7.0,0.0
2903,48.0,256.0,270.0,4.0,0.0
2904,77.0,0.0,510.0,7.0,0.0
2905,50.0,0.0,510.0,4.0,0.0
2906,72.0,128.0,120.0,5.0,0.0
2907,74.0,256.0,120.0,5.0,0.0
2908,46.0,0.0,510.0,4.0,0.0
2909,70.0,256.0,510.0,7.0,0.0
2910,68.0,0.0,510.0,7.0,0.0
2911,65.0,0.0,510.0,7.0,0.0
2912,75.0,128.0,270.0,5.0,0.0
2913,74.0,128.0,120.0,5.0,0.0
2914,72.0,0.0,120.0,5.0,0.0
2915,67.0,0.0,510.0,7.0,0.0
2916,70.0,128.0,270.0,5.0,0.0
2917,63.0,0.0,510.0,7.0,0.0
2918,79.0,0.0,510.0,7.0,0.0
2919,51.0,256.0,510.0,4.0,0.0
2920,72.0,128.0,120.0,5.0,0.0
2921,74.0,0.0,120.0,5.0,0.0
2922,39.0,256.0,510.0,4.0,0.0
2923,75.0,128.0,270.0,5.0,0.0
2924,74.0,128.0,120.0,5.0,0.0
2925,72.0,0.0,120.0,5.0,0.0
2926,65.0,0.0,510.0,7.0,0.0
2927,70.0,0.0,510.0,7.0,0.0
2928,38.0,256.0,510.0,4.0,0.0
2929,70.0,128.0,270.0,5.0,0.0
2930,77.0,0.0,510.0,7.0,0.0
2931,72.0,128.0,120.0,5.0,0.0
2932,74.0,0.0,120.0,5.0,0.0
2933,50.0,512.0,510.0,4.0,0.0
2934,75.0,128.0,270.0,5.0,0.0
2935,74.0,128.0,120.0,5.0,0.0
2936,72.0,0.0,120.0,5.0,0.0
2937,76.0,256.0,510.0,7.0,0.0
2938,72.0,0.0,510.0,7.0,0.0
2939,67.0,0.0,510.0,7.0,0.0
2940,70.0,0.0,510.0,5.0,0.0
2941,48.0,0.0,510.0,4.0,0.0
2942,76.0,512.0,510.0,5.0,0.0
2943,70.0,256.0,270.0,7.0,0.0
2944,36.0,0.0,510.0,4.0,0.0
2945,69.0,0.0,270.0,7.0,0.0
2946,72.0,0.0,510.0,7.0,0.0
2947,67.0,0.0,510.0,7.0,0.0
2948,34.0,0.0,510.0,4.0,0.0
2949,79.0,0.0,270.0,5.0,0.0
2950,77.0,256.0,270.0,5.0,0.0
2951,79.0,0.0,510.0,7.0,0.0
2952,46.0,256.0,510.0,4.0,0.0
2953,76.0,0.0,270.0,5.0,0.0
2954,77.0,0.0,510.0,5.0,0.0
2955,77.0,0.0,510.0,7.0,0.0
2956,72.0,0.0,510.0,7.0,0.0
2957,60.0,256.0,510.0,7.0,0.0
2958,45.0,256.0,270.0,4.0,0.0
2959,58.0,0.0,270.0,4.0,0.0
2960,65.0,0.0,270.0,7.0,0.0
2961,65.0,256.0,510.0,5.0,0.0
2962,57.0,256.0,270.0,4.0,0.0
2963,67.0,0.0,270.0,7.0,0.0
2964,55.0,0.0,270.0,4.0,0.0
2965,72.0,0.0,510.0,7.0,0.0
2966,65.0,0.0,510.0,7.0,0.0
2967,69.0,256.0,510.0,7.0,0.0
2968,53.0,256.0,270.0,4.0,0.0
2969,51.0,0.0,270.0,4.0,0.0
2970,75.0,0.0,510.0,7.0,0.0
2971,50.0,256.0,270.0,4.0,0.0
2972,75.0,256.0,510.0,5.0,0.0
2973,48.0,0.0,270.0,4.0,0.0
2974,65.0,0.0,510.0,7.0,0.0
2975,46.0,256.0,270.0,4.0,0.0
2976,74.0,256.0,510.0,5.0,0.0
2977,45.0,0.0,270.0,4.0,0.0
2978,74.0,0.0,15.0,7.0,0.0
2979,82.0,0.0,510.0,7.0,0.0
2980,67.0,0.0,510.0,7.0,0.0
2981,46.0,0.0,270.0,4.0,0.0
2982,43.0,256.0,270.0,4.0,0.0
2983,82.0,0.0,510.0,5.0,0.0
2984,46.0,0.0,270.0,4.0,0.0
2985,41.0,512.0,270.0,4.0,0.0
2986,46.0,0.0,510.0,4.0,0.0
2987,75.0,0.0,510.0,7.0,0.0
2988,60.0,512.0,510.0,7.0,0.0
2989,39.0,0.0,510.0,4.0,0.0
2990,72.0,0.0,510.0,7.0,0.0
2991,72.0,0.0,510.0,5.0,0.0
2992,81.0,2048.0,510.0,5.0,0.0
2993,41.0,0.0,510.0,4.0,0.0
2994,81.0,0.0,510.0,7.0,0.0
2995,72.0,0.0,510.0,7.0,0.0
2996,65.0,0.0,510.0,7.0,0.0
2997,46.0,0.0,2040.0,4.0,0.0
2998,34.0,0.0,2040.0,4.0,0.0
2999,70.0,0.0,2040.0,7.0,0.0
3000,74.0,0.0,2040.0,7.0,0.0
3001,65.0,0.0,2040.0,7.0,0.0
3002,82.0,0.0,2040.0,5.0,0.0
