,note,step,duration,channel,velocity
0,76.0,256.0,270.0,0.0,0.0
1,75.0,256.0,270.0,0.0,0.0
2,73.0,256.0,270.0,0.0,0.0
3,71.0,256.0,270.0,0.0,0.0
4,69.0,256.0,270.0,0.0,0.0
5,68.0,256.0,270.0,0.0,0.0
6,73.0,256.0,270.0,0.0,0.0
7,64.0,0.0,270.0,1.0,0.0
8,63.0,0.0,270.0,1.0,0.0
9,71.0,256.0,270.0,0.0,0.0
10,61.0,0.0,270.0,1.0,0.0
11,69.0,256.0,270.0,0.0,0.0
12,68.0,0.0,270.0,0.0,0.0
13,59.0,256.0,270.0,1.0,0.0
14,57.0,0.0,270.0,1.0,0.0
15,66.0,256.0,270.0,0.0,0.0
16,56.0,256.0,270.0,1.0,0.0
17,64.0,256.0,510.0,0.0,0.0
18,61.0,0.0,270.0,1.0,0.0
19,59.0,256.0,270.0,1.0,0.0
20,68.0,0.0,510.0,0.0,0.0
21,57.0,256.0,270.0,1.0,0.0
22,71.0,0.0,510.0,0.0,0.0
23,56.0,256.0,270.0,1.0,0.0
24,54.0,256.0,270.0,1.0,0.0
25,76.0,256.0,270.0,0.0,0.0
26,52.0,256.0,510.0,1.0,0.0
27,80.0,0.0,270.0,0.0,0.0
28,56.0,256.0,510.0,1.0,0.0
29,83.0,256.0,270.0,0.0,0.0
30,76.0,0.0,270.0,0.0,0.0
31,59.0,0.0,510.0,1.0,0.0
32,75.0,256.0,270.0,0.0,0.0
33,81.0,256.0,270.0,0.0,0.0
34,64.0,256.0,270.0,1.0,0.0
35,80.0,256.0,1020.0,0.0,0.0
36,64.0,0.0,2040.0,2.0,0.0
37,68.0,256.0,270.0,1.0,0.0
38,71.0,256.0,270.0,1.0,0.0
39,64.0,0.0,270.0,1.0,0.0
40,78.0,0.0,510.0,0.0,0.0
41,63.0,256.0,270.0,1.0,0.0
42,69.0,512.0,270.0,1.0,0.0
43,68.0,0.0,1020.0,1.0,0.0
44,76.0,256.0,270.0,0.0,0.0
45,75.0,256.0,270.0,0.0,0.0
46,63.0,0.0,1020.0,2.0,0.0
47,73.0,256.0,270.0,0.0,0.0
48,71.0,256.0,270.0,0.0,0.0
49,66.0,0.0,510.0,1.0,0.0
50,69.0,512.0,270.0,0.0,0.0
51,61.0,0.0,1020.0,2.0,0.0
52,68.0,256.0,510.0,0.0,0.0
53,64.0,0.0,270.0,1.0,0.0
54,63.0,256.0,270.0,1.0,0.0
55,64.0,256.0,510.0,0.0,0.0
56,61.0,0.0,270.0,1.0,0.0
57,63.0,0.0,1020.0,2.0,0.0
58,59.0,256.0,270.0,1.0,0.0
59,68.0,256.0,510.0,0.0,0.0
60,57.0,0.0,270.0,1.0,0.0
61,71.0,256.0,270.0,0.0,0.0
62,56.0,0.0,510.0,1.0,0.0
63,83.0,256.0,270.0,0.0,0.0
64,59.0,0.0,1020.0,2.0,0.0
65,81.0,256.0,270.0,0.0,0.0
66,52.0,0.0,510.0,1.0,0.0
67,80.0,256.0,270.0,0.0,0.0
68,78.0,256.0,270.0,0.0,0.0
69,56.0,0.0,510.0,1.0,0.0
70,76.0,256.0,270.0,0.0,0.0
71,59.0,0.0,270.0,1.0,0.0
72,61.0,0.0,1020.0,2.0,0.0
73,78.0,256.0,270.0,0.0,0.0
74,75.0,0.0,270.0,0.0,0.0
75,71.0,256.0,270.0,1.0,0.0
76,76.0,0.0,270.0,0.0,0.0
77,70.0,256.0,270.0,1.0,0.0
78,68.0,0.0,270.0,1.0,0.0
79,80.0,256.0,270.0,0.0,0.0
80,66.0,256.0,270.0,1.0,0.0
81,63.0,0.0,1020.0,2.0,0.0
82,82.0,0.0,780.0,0.0,0.0
83,64.0,256.0,270.0,1.0,0.0
84,66.0,256.0,270.0,1.0,0.0
85,63.0,256.0,270.0,1.0,0.0
86,83.0,0.0,270.0,0.0,0.0
87,85.0,256.0,270.0,0.0,0.0
88,64.0,0.0,270.0,1.0,0.0
89,64.0,0.0,2040.0,2.0,0.0
90,68.0,0.0,270.0,1.0,0.0
91,76.0,256.0,270.0,0.0,0.0
92,75.0,256.0,270.0,0.0,0.0
93,70.0,256.0,780.0,1.0,0.0
94,73.0,256.0,270.0,0.0,0.0
95,78.0,0.0,510.0,0.0,0.0
96,71.0,256.0,270.0,1.0,0.0
97,82.0,0.0,510.0,0.0,0.0
98,73.0,256.0,270.0,1.0,0.0
99,64.0,256.0,270.0,1.0,0.0
100,83.0,0.0,510.0,0.0,0.0
101,63.0,256.0,270.0,1.0,0.0
102,61.0,512.0,270.0,1.0,0.0
103,66.0,256.0,510.0,1.0,0.0
104,76.0,0.0,270.0,0.0,0.0
105,75.0,256.0,270.0,0.0,0.0
106,70.0,256.0,510.0,1.0,0.0
107,73.0,0.0,270.0,0.0,0.0
108,71.0,256.0,270.0,0.0,0.0
109,71.0,512.0,510.0,1.0,0.0
110,69.0,0.0,270.0,0.0,0.0
111,68.0,256.0,510.0,0.0,0.0
112,64.0,0.0,270.0,1.0,0.0
113,66.0,0.0,270.0,0.0,0.0
114,63.0,256.0,270.0,1.0,0.0
115,68.0,256.0,270.0,0.0,0.0
116,61.0,0.0,270.0,1.0,0.0
117,59.0,256.0,270.0,1.0,0.0
118,69.0,256.0,780.0,0.0,0.0
119,57.0,256.0,270.0,1.0,0.0
120,56.0,0.0,510.0,1.0,0.0
121,71.0,256.0,270.0,0.0,0.0
122,69.0,256.0,270.0,0.0,0.0
123,54.0,0.0,270.0,1.0,0.0
124,56.0,256.0,270.0,1.0,0.0
125,68.0,0.0,270.0,0.0,0.0
126,66.0,256.0,270.0,0.0,0.0
127,57.0,256.0,780.0,1.0,0.0
128,68.0,256.0,270.0,0.0,0.0
129,64.0,0.0,510.0,0.0,0.0
130,59.0,256.0,270.0,1.0,0.0
131,66.0,0.0,270.0,0.0,0.0
132,57.0,256.0,270.0,1.0,0.0
133,56.0,256.0,270.0,1.0,0.0
134,68.0,0.0,270.0,0.0,0.0
135,69.0,256.0,270.0,0.0,0.0
136,54.0,0.0,270.0,1.0,0.0
137,56.0,0.0,270.0,1.0,0.0
138,71.0,256.0,270.0,0.0,0.0
139,73.0,256.0,270.0,0.0,0.0
140,52.0,0.0,510.0,1.0,0.0
141,71.0,256.0,270.0,0.0,0.0
142,54.0,0.0,270.0,1.0,0.0
143,69.0,256.0,270.0,0.0,0.0
144,56.0,0.0,270.0,1.0,0.0
145,71.0,256.0,270.0,0.0,0.0
146,57.0,0.0,270.0,1.0,0.0
147,73.0,256.0,270.0,0.0,0.0
148,75.0,256.0,270.0,0.0,0.0
149,59.0,0.0,270.0,1.0,0.0
150,64.0,0.0,15.0,2.0,0.0
151,76.0,0.0,510.0,0.0,0.0
152,61.0,256.0,270.0,1.0,0.0
153,59.0,256.0,270.0,1.0,0.0
154,73.0,0.0,510.0,0.0,0.0
155,57.0,256.0,270.0,1.0,0.0
156,59.0,256.0,270.0,1.0,0.0
157,69.0,256.0,780.0,0.0,0.0
158,59.0,256.0,1020.0,2.0,0.0
159,61.0,256.0,270.0,1.0,0.0
160,63.0,256.0,270.0,1.0,0.0
161,64.0,0.0,510.0,1.0,0.0
162,68.0,0.0,270.0,0.0,0.0
163,69.0,256.0,270.0,0.0,0.0
164,59.0,256.0,1020.0,2.0,0.0
165,61.0,0.0,510.0,1.0,0.0
166,71.0,256.0,270.0,0.0,0.0
167,57.0,0.0,780.0,1.0,0.0
168,73.0,256.0,270.0,0.0,0.0
169,69.0,0.0,270.0,0.0,0.0
170,66.0,256.0,270.0,0.0,0.0
171,56.0,256.0,1020.0,2.0,0.0
172,56.0,0.0,270.0,1.0,0.0
173,64.0,256.0,270.0,0.0,0.0
174,57.0,0.0,270.0,1.0,0.0
175,66.0,256.0,270.0,0.0,0.0
176,59.0,0.0,270.0,1.0,0.0
177,68.0,0.0,270.0,0.0,0.0
178,64.0,0.0,270.0,0.0,0.0
179,59.0,256.0,1020.0,2.0,0.0
180,61.0,256.0,270.0,1.0,0.0
181,57.0,0.0,270.0,1.0,0.0
182,66.0,256.0,270.0,0.0,0.0
183,54.0,256.0,270.0,1.0,0.0
184,63.0,0.0,510.0,0.0,0.0
185,52.0,0.0,270.0,1.0,0.0
186,66.0,256.0,510.0,0.0,0.0
187,54.0,256.0,270.0,1.0,0.0
188,57.0,256.0,1020.0,2.0,0.0
189,56.0,0.0,270.0,1.0,0.0
190,52.0,256.0,270.0,1.0,0.0
191,71.0,256.0,780.0,0.0,0.0
192,54.0,0.0,270.0,1.0,0.0
193,56.0,256.0,2040.0,2.0,0.0
194,51.0,256.0,510.0,1.0,0.0
195,73.0,0.0,270.0,0.0,0.0
196,71.0,256.0,270.0,0.0,0.0
197,54.0,256.0,510.0,1.0,0.0
198,69.0,0.0,270.0,0.0,0.0
199,68.0,256.0,270.0,0.0,0.0
200,59.0,256.0,780.0,1.0,0.0
201,66.0,256.0,270.0,0.0,0.0
202,68.0,0.0,270.0,0.0,0.0
203,69.0,0.0,270.0,0.0,0.0
204,61.0,0.0,270.0,1.0,0.0
205,68.0,0.0,270.0,0.0,0.0
206,59.0,256.0,270.0,1.0,0.0
207,66.0,256.0,270.0,0.0,0.0
208,57.0,0.0,270.0,1.0,0.0
209,56.0,256.0,270.0,1.0,0.0
210,64.0,0.0,270.0,0.0,0.0
211,63.0,256.0,270.0,0.0,0.0
212,54.0,0.0,270.0,1.0,0.0
213,64.0,256.0,270.0,0.0,0.0
214,56.0,0.0,270.0,1.0,0.0
215,57.0,0.0,270.0,1.0,0.0
216,59.0,256.0,270.0,0.0,0.0
217,56.0,0.0,270.0,1.0,0.0
218,61.0,256.0,270.0,0.0,0.0
219,54.0,256.0,270.0,1.0,0.0
220,63.0,0.0,270.0,0.0,0.0
221,64.0,0.0,270.0,0.0,0.0
222,52.0,256.0,270.0,1.0,0.0
223,66.0,0.0,270.0,0.0,0.0
224,51.0,256.0,270.0,1.0,0.0
225,68.0,256.0,270.0,0.0,0.0
226,52.0,0.0,270.0,1.0,0.0
227,47.0,0.0,270.0,1.0,0.0
228,66.0,256.0,270.0,0.0,0.0
229,49.0,256.0,270.0,1.0,0.0
230,64.0,0.0,270.0,0.0,0.0
231,66.0,0.0,270.0,0.0,0.0
232,51.0,256.0,270.0,1.0,0.0
233,68.0,256.0,270.0,0.0,0.0
234,52.0,0.0,270.0,1.0,0.0
235,69.0,0.0,270.0,0.0,0.0
236,54.0,256.0,270.0,1.0,0.0
237,71.0,0.0,270.0,0.0,0.0
238,56.0,256.0,270.0,1.0,0.0
239,69.0,256.0,270.0,0.0,0.0
240,54.0,0.0,270.0,1.0,0.0
241,68.0,256.0,270.0,0.0,0.0
242,52.0,0.0,270.0,1.0,0.0
243,54.0,256.0,270.0,1.0,0.0
244,71.0,0.0,270.0,0.0,0.0
245,56.0,0.0,270.0,1.0,0.0
246,76.0,256.0,270.0,0.0,0.0
247,57.0,0.0,270.0,1.0,0.0
248,73.0,256.0,270.0,0.0,0.0
249,59.0,0.0,270.0,1.0,0.0
250,75.0,256.0,270.0,0.0,0.0
251,57.0,256.0,270.0,1.0,0.0
252,71.0,0.0,270.0,0.0,0.0
253,76.0,256.0,270.0,0.0,0.0
254,56.0,0.0,270.0,1.0,0.0
255,56.0,0.0,2040.0,2.0,0.0
256,59.0,256.0,270.0,1.0,0.0
257,78.0,0.0,270.0,0.0,0.0
258,64.0,0.0,270.0,1.0,0.0
259,80.0,256.0,270.0,0.0,0.0
260,61.0,256.0,270.0,1.0,0.0
261,81.0,0.0,270.0,0.0,0.0
262,83.0,0.0,510.0,0.0,0.0
263,63.0,256.0,270.0,1.0,0.0
264,59.0,256.0,270.0,1.0,0.0
265,80.0,0.0,510.0,0.0,0.0
266,64.0,256.0,270.0,1.0,0.0
267,66.0,256.0,270.0,1.0,0.0
268,61.0,0.0,1020.0,2.0,0.0
269,75.0,256.0,780.0,0.0,0.0
270,68.0,256.0,270.0,1.0,0.0
271,69.0,256.0,270.0,1.0,0.0
272,71.0,0.0,510.0,1.0,0.0
273,73.0,256.0,270.0,0.0,0.0
274,61.0,256.0,1020.0,2.0,0.0
275,71.0,256.0,270.0,0.0,0.0
276,68.0,256.0,510.0,1.0,0.0
277,75.0,0.0,270.0,0.0,0.0
278,79.0,256.0,270.0,0.0,0.0
279,63.0,256.0,780.0,1.0,0.0
280,80.0,0.0,270.0,0.0,0.0
281,59.0,0.0,1020.0,2.0,0.0
282,80.0,0.0,270.0,0.0,0.0
283,77.0,0.0,270.0,0.0,0.0
284,61.0,256.0,270.0,1.0,0.0
285,78.0,0.0,510.0,0.0,0.0
286,59.0,256.0,270.0,1.0,0.0
287,63.0,256.0,270.0,1.0,0.0
288,67.0,256.0,270.0,1.0,0.0
289,63.0,0.0,1020.0,2.0,0.0
290,68.0,256.0,270.0,1.0,0.0
291,68.0,256.0,270.0,1.0,0.0
292,73.0,0.0,270.0,0.0,0.0
293,65.0,256.0,270.0,1.0,0.0
294,64.0,256.0,1020.0,2.0,0.0
295,66.0,0.0,510.0,1.0,0.0
296,72.0,256.0,270.0,0.0,0.0
297,73.0,256.0,270.0,0.0,0.0
298,80.0,256.0,270.0,0.0,0.0
299,79.0,0.0,270.0,0.0,0.0
300,61.0,256.0,1020.0,2.0,0.0
301,80.0,256.0,270.0,0.0,0.0
302,81.0,256.0,270.0,0.0,0.0
303,61.0,0.0,270.0,1.0,0.0
304,80.0,256.0,270.0,0.0,0.0
305,60.0,0.0,270.0,1.0,0.0
306,61.0,0.0,270.0,1.0,0.0
307,78.0,0.0,270.0,0.0,0.0
308,76.0,256.0,270.0,0.0,0.0
309,68.0,0.0,270.0,1.0,0.0
310,59.0,256.0,2040.0,2.0,0.0
311,75.0,0.0,270.0,0.0,0.0
312,67.0,256.0,270.0,1.0,0.0
313,76.0,0.0,270.0,0.0,0.0
314,68.0,256.0,270.0,1.0,0.0
315,78.0,0.0,270.0,0.0,0.0
316,69.0,256.0,270.0,1.0,0.0
317,76.0,0.0,270.0,0.0,0.0
318,68.0,256.0,270.0,1.0,0.0
319,66.0,256.0,270.0,1.0,0.0
320,75.0,0.0,270.0,0.0,0.0
321,73.0,0.0,270.0,0.0,0.0
322,64.0,256.0,270.0,1.0,0.0
323,71.0,0.0,270.0,0.0,0.0
324,63.0,0.0,270.0,1.0,0.0
325,73.0,256.0,510.0,0.0,0.0
326,64.0,256.0,270.0,1.0,0.0
327,66.0,0.0,270.0,1.0,0.0
328,64.0,256.0,270.0,1.0,0.0
329,68.0,0.0,510.0,0.0,0.0
330,63.0,256.0,270.0,1.0,0.0
331,66.0,256.0,510.0,0.0,0.0
332,61.0,256.0,270.0,1.0,0.0
333,60.0,0.0,270.0,1.0,0.0
334,61.0,256.0,510.0,1.0,0.0
335,64.0,256.0,270.0,0.0,0.0
336,63.0,0.0,270.0,0.0,0.0
337,64.0,256.0,270.0,0.0,0.0
338,56.0,256.0,510.0,1.0,0.0
339,66.0,0.0,270.0,0.0,0.0
340,63.0,256.0,270.0,0.0,0.0
341,54.0,0.0,510.0,1.0,0.0
342,64.0,256.0,270.0,0.0,0.0
343,61.0,256.0,510.0,0.0,0.0
344,52.0,256.0,270.0,1.0,0.0
345,51.0,0.0,270.0,1.0,0.0
346,73.0,256.0,270.0,0.0,0.0
347,52.0,0.0,270.0,1.0,0.0
348,69.0,0.0,270.0,0.0,0.0
349,54.0,256.0,270.0,1.0,0.0
350,71.0,0.0,270.0,0.0,0.0
351,51.0,256.0,270.0,1.0,0.0
352,68.0,256.0,270.0,0.0,0.0
353,52.0,0.0,270.0,1.0,0.0
354,69.0,256.0,270.0,0.0,0.0
355,49.0,256.0,510.0,1.0,0.0
356,71.0,0.0,270.0,0.0,0.0
357,69.0,256.0,270.0,0.0,0.0
358,61.0,0.0,270.0,1.0,0.0
359,57.0,0.0,270.0,1.0,0.0
360,66.0,256.0,270.0,0.0,0.0
361,68.0,0.0,270.0,0.0,0.0
362,59.0,256.0,270.0,1.0,0.0
363,56.0,256.0,270.0,1.0,0.0
364,65.0,0.0,270.0,0.0,0.0
365,64.0,0.0,2040.0,2.0,0.0
366,66.0,0.0,510.0,0.0,0.0
367,57.0,256.0,270.0,1.0,0.0
368,59.0,256.0,270.0,1.0,0.0
369,57.0,256.0,270.0,1.0,0.0
370,78.0,256.0,510.0,0.0,0.0
371,54.0,0.0,270.0,1.0,0.0
372,56.0,256.0,270.0,1.0,0.0
373,76.0,256.0,510.0,0.0,0.0
374,52.0,0.0,270.0,1.0,0.0
375,54.0,256.0,510.0,1.0,0.0
376,75.0,256.0,270.0,0.0,0.0
377,73.0,0.0,270.0,0.0,0.0
378,75.0,256.0,270.0,0.0,0.0
379,63.0,256.0,1020.0,2.0,0.0
380,66.0,0.0,510.0,1.0,0.0
381,78.0,256.0,270.0,0.0,0.0
382,73.0,256.0,270.0,0.0,0.0
383,64.0,0.0,510.0,1.0,0.0
384,78.0,0.0,270.0,0.0,0.0
385,72.0,0.0,510.0,0.0,0.0
386,63.0,256.0,270.0,1.0,0.0
387,61.0,0.0,1020.0,2.0,0.0
388,61.0,256.0,270.0,1.0,0.0
389,68.0,256.0,510.0,0.0,0.0
390,63.0,256.0,270.0,1.0,0.0
391,66.0,0.0,270.0,1.0,0.0
392,59.0,0.0,1020.0,2.0,0.0
393,61.0,256.0,270.0,1.0,0.0
394,66.0,512.0,270.0,1.0,0.0
395,60.0,256.0,510.0,1.0,0.0
396,56.0,0.0,270.0,0.0,0.0
397,56.0,0.0,510.0,1.0,0.0
398,61.0,0.0,780.0,2.0,0.0
399,58.0,256.0,270.0,0.0,0.0
400,60.0,256.0,270.0,0.0,0.0
401,61.0,256.0,270.0,0.0,0.0
402,63.0,0.0,270.0,0.0,0.0
403,59.0,256.0,270.0,2.0,0.0
404,57.0,0.0,780.0,2.0,0.0
405,64.0,256.0,270.0,0.0,0.0
406,63.0,256.0,270.0,0.0,0.0
407,44.0,0.0,270.0,1.0,0.0
408,61.0,256.0,270.0,0.0,0.0
409,46.0,0.0,270.0,1.0,0.0
410,48.0,0.0,270.0,1.0,0.0
411,56.0,256.0,270.0,2.0,0.0
412,63.0,0.0,270.0,0.0,0.0
413,54.0,0.0,1020.0,2.0,0.0
414,64.0,0.0,270.0,0.0,0.0
415,49.0,256.0,270.0,1.0,0.0
416,51.0,256.0,270.0,1.0,0.0
417,66.0,0.0,270.0,0.0,0.0
418,68.0,0.0,270.0,0.0,0.0
419,52.0,256.0,270.0,1.0,0.0
420,51.0,0.0,270.0,1.0,0.0
421,66.0,256.0,270.0,0.0,0.0
422,64.0,0.0,270.0,0.0,0.0
423,49.0,256.0,270.0,1.0,0.0
424,52.0,0.0,10230.0,2.0,0.0
425,66.0,256.0,270.0,0.0,0.0
426,51.0,0.0,270.0,1.0,0.0
427,68.0,0.0,270.0,0.0,0.0
428,52.0,256.0,270.0,1.0,0.0
429,69.0,256.0,270.0,0.0,0.0
430,54.0,0.0,270.0,1.0,0.0
431,56.0,256.0,270.0,1.0,0.0
432,71.0,0.0,510.0,0.0,0.0
433,54.0,256.0,270.0,1.0,0.0
434,83.0,256.0,510.0,0.0,0.0
435,52.0,256.0,270.0,1.0,0.0
436,54.0,0.0,270.0,1.0,0.0
437,56.0,256.0,270.0,1.0,0.0
438,71.0,0.0,510.0,0.0,0.0
439,57.0,512.0,270.0,1.0,0.0
440,59.0,256.0,510.0,1.0,0.0
441,73.0,0.0,270.0,0.0,0.0
442,71.0,256.0,510.0,1.0,0.0
443,71.0,256.0,270.0,0.0,0.0
444,69.0,0.0,270.0,0.0,0.0
445,59.0,256.0,510.0,1.0,0.0
446,68.0,256.0,270.0,0.0,0.0
447,66.0,0.0,270.0,0.0,0.0
448,68.0,256.0,270.0,0.0,0.0
449,69.0,0.0,270.0,0.0,0.0
450,61.0,256.0,270.0,1.0,0.0
451,68.0,0.0,270.0,0.0,0.0
452,59.0,256.0,270.0,1.0,0.0
453,66.0,0.0,270.0,0.0,0.0
454,57.0,256.0,270.0,1.0,0.0
455,64.0,0.0,780.0,0.0,0.0
456,56.0,256.0,270.0,1.0,0.0
457,54.0,256.0,270.0,1.0,0.0
458,56.0,256.0,270.0,1.0,0.0
459,57.0,0.0,270.0,1.0,0.0
460,63.0,256.0,270.0,0.0,0.0
461,64.0,0.0,270.0,0.0,0.0
462,56.0,256.0,270.0,1.0,0.0
463,54.0,0.0,270.0,1.0,0.0
464,66.0,256.0,270.0,0.0,0.0
465,68.0,256.0,270.0,0.0,0.0
466,52.0,256.0,780.0,1.0,0.0
467,70.0,256.0,270.0,0.0,0.0
468,71.0,0.0,780.0,0.0,0.0
469,51.0,256.0,270.0,1.0,0.0
470,52.0,256.0,270.0,1.0,0.0
471,69.0,256.0,270.0,0.0,0.0
472,54.0,0.0,270.0,1.0,0.0
473,71.0,256.0,270.0,0.0,0.0
474,56.0,0.0,270.0,1.0,0.0
475,73.0,0.0,270.0,0.0,0.0
476,58.0,256.0,270.0,1.0,0.0
477,75.0,256.0,270.0,0.0,0.0
478,59.0,256.0,780.0,1.0,0.0
479,76.0,256.0,270.0,0.0,0.0
480,78.0,256.0,510.0,0.0,0.0
481,58.0,0.0,270.0,1.0,0.0
482,71.0,0.0,510.0,0.0,0.0
483,59.0,256.0,270.0,1.0,0.0
484,61.0,256.0,270.0,1.0,0.0
485,63.0,256.0,270.0,1.0,0.0
486,64.0,0.0,270.0,1.0,0.0
487,76.0,256.0,270.0,0.0,0.0
488,75.0,256.0,270.0,0.0,0.0
489,66.0,256.0,510.0,1.0,0.0
490,73.0,0.0,270.0,0.0,0.0
491,71.0,256.0,270.0,0.0,0.0
492,59.0,256.0,510.0,1.0,0.0
493,69.0,0.0,270.0,0.0,0.0
494,68.0,256.0,270.0,0.0,0.0
495,64.0,256.0,270.0,1.0,0.0
496,73.0,0.0,270.0,0.0,0.0
497,63.0,256.0,270.0,1.0,0.0
498,71.0,0.0,270.0,0.0,0.0
499,69.0,0.0,270.0,0.0,0.0
500,61.0,256.0,270.0,1.0,0.0
501,68.0,256.0,270.0,0.0,0.0
502,59.0,0.0,270.0,1.0,0.0
503,66.0,256.0,270.0,0.0,0.0
504,57.0,0.0,270.0,1.0,0.0
505,56.0,256.0,270.0,1.0,0.0
506,64.0,0.0,510.0,0.0,0.0
507,61.0,256.0,270.0,1.0,0.0
508,68.0,0.0,510.0,0.0,0.0
509,59.0,256.0,270.0,1.0,0.0
510,57.0,256.0,270.0,1.0,0.0
511,56.0,256.0,270.0,1.0,0.0
512,71.0,0.0,510.0,0.0,0.0
513,54.0,256.0,270.0,1.0,0.0
514,76.0,256.0,270.0,0.0,0.0
515,52.0,256.0,510.0,1.0,0.0
516,80.0,0.0,270.0,0.0,0.0
517,83.0,256.0,270.0,0.0,0.0
518,56.0,0.0,510.0,1.0,0.0
519,76.0,256.0,270.0,0.0,0.0
520,59.0,0.0,510.0,1.0,0.0
521,75.0,256.0,270.0,0.0,0.0
522,81.0,256.0,270.0,0.0,0.0
523,64.0,256.0,270.0,1.0,0.0
524,80.0,0.0,1020.0,0.0,0.0
525,68.0,256.0,270.0,1.0,0.0
526,71.0,256.0,270.0,1.0,0.0
527,64.0,256.0,270.0,1.0,0.0
528,63.0,256.0,270.0,1.0,0.0
529,78.0,0.0,510.0,0.0,0.0
530,69.0,512.0,270.0,1.0,0.0
531,68.0,0.0,1020.0,1.0,0.0
532,64.0,256.0,270.0,0.0,0.0
533,66.0,256.0,270.0,0.0,0.0
534,68.0,256.0,270.0,0.0,0.0
535,69.0,256.0,270.0,0.0,0.0
536,66.0,0.0,510.0,1.0,0.0
537,66.0,256.0,270.0,0.0,0.0
538,68.0,256.0,270.0,0.0,0.0
539,52.0,256.0,270.0,1.0,0.0
540,71.0,0.0,270.0,0.0,0.0
541,54.0,256.0,270.0,1.0,0.0
542,69.0,0.0,270.0,0.0,0.0
543,71.0,256.0,270.0,0.0,0.0
544,56.0,0.0,270.0,1.0,0.0
545,57.0,256.0,270.0,1.0,0.0
546,73.0,0.0,270.0,0.0,0.0
547,69.0,0.0,270.0,0.0,0.0
548,54.0,256.0,270.0,1.0,0.0
549,71.0,256.0,510.0,0.0,0.0
550,56.0,256.0,270.0,1.0,0.0
551,59.0,0.0,270.0,1.0,0.0
552,78.0,256.0,510.0,0.0,0.0
553,58.0,256.0,270.0,1.0,0.0
554,59.0,0.0,270.0,1.0,0.0
555,61.0,256.0,270.0,1.0,0.0
556,66.0,512.0,510.0,0.0,0.0
557,58.0,0.0,270.0,1.0,0.0
558,59.0,256.0,510.0,1.0,0.0
559,78.0,0.0,270.0,0.0,0.0
560,66.0,0.0,510.0,1.0,0.0
561,76.0,256.0,270.0,0.0,0.0
562,75.0,256.0,270.0,0.0,0.0
563,73.0,256.0,270.0,0.0,0.0
564,54.0,256.0,510.0,1.0,0.0
565,75.0,0.0,270.0,0.0,0.0
566,76.0,256.0,270.0,0.0,0.0
567,78.0,256.0,270.0,0.0,0.0
568,66.0,0.0,270.0,1.0,0.0
569,80.0,0.0,1290.0,0.0,0.0
570,64.0,256.0,270.0,1.0,0.0
571,63.0,256.0,270.0,1.0,0.0
572,61.0,256.0,270.0,1.0,0.0
573,63.0,256.0,270.0,1.0,0.0
574,64.0,256.0,270.0,1.0,0.0
575,81.0,256.0,270.0,0.0,0.0
576,66.0,0.0,270.0,1.0,0.0
577,68.0,0.0,1290.0,1.0,0.0
578,83.0,256.0,270.0,0.0,0.0
579,78.0,256.0,270.0,0.0,0.0
580,80.0,256.0,270.0,0.0,0.0
581,75.0,256.0,270.0,0.0,0.0
582,76.0,256.0,270.0,0.0,0.0
583,69.0,0.0,270.0,1.0,0.0
584,78.0,256.0,270.0,0.0,0.0
585,71.0,0.0,270.0,1.0,0.0
586,80.0,256.0,270.0,0.0,0.0
587,66.0,256.0,270.0,1.0,0.0
588,81.0,0.0,270.0,0.0,0.0
589,83.0,0.0,270.0,0.0,0.0
590,68.0,256.0,270.0,1.0,0.0
591,63.0,0.0,270.0,1.0,0.0
592,80.0,256.0,270.0,0.0,0.0
593,64.0,256.0,270.0,1.0,0.0
594,85.0,256.0,510.0,0.0,0.0
595,66.0,0.0,270.0,1.0,0.0
596,68.0,256.0,270.0,1.0,0.0
597,73.0,0.0,510.0,0.0,0.0
598,69.0,256.0,270.0,1.0,0.0
599,71.0,256.0,270.0,1.0,0.0
600,68.0,512.0,270.0,1.0,0.0
601,73.0,0.0,510.0,1.0,0.0
602,68.0,256.0,270.0,0.0,0.0
603,61.0,256.0,510.0,1.0,0.0
604,69.0,256.0,270.0,0.0,0.0
605,73.0,0.0,270.0,0.0,0.0
606,76.0,256.0,270.0,0.0,0.0
607,75.0,256.0,270.0,0.0,0.0
608,76.0,256.0,270.0,0.0,0.0
609,56.0,0.0,270.0,1.0,0.0
610,80.0,256.0,270.0,0.0,0.0
611,78.0,256.0,270.0,0.0,0.0
612,57.0,0.0,270.0,1.0,0.0
613,61.0,0.0,270.0,1.0,0.0
614,81.0,256.0,270.0,0.0,0.0
615,80.0,0.0,270.0,0.0,0.0
616,64.0,256.0,270.0,1.0,0.0
617,78.0,256.0,270.0,0.0,0.0
618,63.0,0.0,270.0,1.0,0.0
619,80.0,256.0,270.0,0.0,0.0
620,64.0,0.0,270.0,1.0,0.0
621,68.0,0.0,270.0,1.0,0.0
622,83.0,256.0,270.0,0.0,0.0
623,66.0,0.0,270.0,1.0,0.0
624,81.0,256.0,270.0,0.0,0.0
625,85.0,0.0,270.0,0.0,0.0
626,69.0,256.0,270.0,1.0,0.0
627,83.0,0.0,270.0,0.0,0.0
628,68.0,256.0,270.0,1.0,0.0
629,81.0,256.0,270.0,0.0,0.0
630,66.0,0.0,270.0,1.0,0.0
631,83.0,0.0,270.0,0.0,0.0
632,68.0,256.0,270.0,1.0,0.0
633,80.0,0.0,270.0,0.0,0.0
634,71.0,256.0,270.0,1.0,0.0
635,78.0,0.0,270.0,0.0,0.0
636,69.0,256.0,270.0,1.0,0.0
637,73.0,0.0,270.0,1.0,0.0
638,81.0,256.0,270.0,0.0,0.0
639,71.0,0.0,270.0,1.0,0.0
640,80.0,256.0,270.0,0.0,0.0
641,78.0,256.0,270.0,0.0,0.0
642,69.0,0.0,270.0,1.0,0.0
643,71.0,0.0,270.0,1.0,0.0
644,80.0,256.0,270.0,0.0,0.0
645,76.0,256.0,270.0,0.0,0.0
646,68.0,0.0,270.0,1.0,0.0
647,66.0,0.0,270.0,1.0,0.0
648,75.0,256.0,270.0,0.0,0.0
649,69.0,256.0,270.0,1.0,0.0
650,78.0,0.0,270.0,0.0,0.0
651,68.0,256.0,270.0,1.0,0.0
652,76.0,0.0,270.0,0.0,0.0
653,75.0,0.0,270.0,0.0,0.0
654,66.0,256.0,270.0,1.0,0.0
655,76.0,0.0,270.0,0.0,0.0
656,68.0,256.0,270.0,1.0,0.0
657,73.0,256.0,270.0,0.0,0.0
658,64.0,0.0,270.0,1.0,0.0
659,63.0,256.0,270.0,1.0,0.0
660,71.0,0.0,270.0,0.0,0.0
661,66.0,256.0,270.0,1.0,0.0
662,69.0,0.0,270.0,0.0,0.0
663,64.0,0.0,270.0,1.0,0.0
664,68.0,256.0,270.0,0.0,0.0
665,66.0,0.0,270.0,0.0,0.0
666,63.0,256.0,270.0,1.0,0.0
667,64.0,256.0,270.0,1.0,0.0
668,68.0,0.0,270.0,0.0,0.0
669,69.0,256.0,270.0,0.0,0.0
670,61.0,0.0,270.0,1.0,0.0
671,68.0,0.0,270.0,0.0,0.0
672,59.0,256.0,270.0,1.0,0.0
673,66.0,0.0,270.0,0.0,0.0
674,57.0,256.0,270.0,1.0,0.0
675,56.0,256.0,270.0,1.0,0.0
676,64.0,0.0,270.0,0.0,0.0
677,63.0,256.0,270.0,0.0,0.0
678,54.0,0.0,270.0,1.0,0.0
679,56.0,256.0,270.0,1.0,0.0
680,64.0,0.0,510.0,0.0,0.0
681,57.0,256.0,270.0,1.0,0.0
682,76.0,256.0,1290.0,0.0,0.0
683,56.0,256.0,270.0,1.0,0.0
684,54.0,256.0,270.0,1.0,0.0
685,52.0,256.0,270.0,1.0,0.0
686,51.0,256.0,270.0,1.0,0.0
687,52.0,0.0,510.0,1.0,0.0
688,71.0,256.0,270.0,0.0,0.0
689,64.0,256.0,1290.0,1.0,0.0
690,68.0,256.0,270.0,0.0,0.0
691,64.0,256.0,270.0,0.0,0.0
692,59.0,256.0,270.0,0.0,0.0
693,56.0,256.0,270.0,0.0,0.0
694,52.0,0.0,3060.0,0.0,0.0
695,59.0,256.0,270.0,1.0,0.0
696,56.0,256.0,270.0,1.0,0.0
697,52.0,256.0,270.0,1.0,0.0
698,47.0,256.0,270.0,1.0,0.0
699,44.0,1536.0,270.0,1.0,0.0
700,40.0,0.0,1530.0,1.0,0.0
