,note,step,duration,channel,velocity
0,69.0,0.0,40.0,1.0,0.0
1,64.0,0.0,40.0,2.0,0.0
2,60.0,0.0,40.0,3.0,0.0
3,45.0,26.0,40.0,4.0,0.0
4,69.0,0.0,40.0,5.0,0.0
5,45.0,0.0,40.0,6.0,0.0
6,69.0,22.0,60.0,1.0,0.0
7,72.0,0.0,20.0,2.0,0.0
8,64.0,0.0,20.0,3.0,0.0
9,57.0,24.0,20.0,4.0,0.0
10,69.0,0.0,60.0,5.0,0.0
11,57.0,0.0,20.0,6.0,0.0
12,71.0,0.0,20.0,2.0,0.0
13,62.0,0.0,20.0,3.0,0.0
14,59.0,24.0,20.0,4.0,0.0
15,59.0,0.0,20.0,6.0,0.0
16,69.0,0.0,40.0,2.0,0.0
17,64.0,0.0,40.0,3.0,0.0
18,60.0,0.0,40.0,4.0,0.0
19,60.0,2.0,40.0,6.0,0.0
20,76.0,24.0,20.0,1.0,0.0
21,76.0,0.0,20.0,5.0,0.0
22,72.0,22.0,20.0,1.0,0.0
23,57.0,0.0,40.0,4.0,0.0
24,72.0,0.0,20.0,5.0,0.0
25,57.0,2.0,40.0,6.0,0.0
26,68.0,0.0,20.0,1.0,0.0
27,68.0,24.0,20.0,5.0,0.0
28,69.0,22.0,20.0,1.0,0.0
29,62.0,0.0,40.0,2.0,0.0
30,57.0,0.0,40.0,3.0,0.0
31,41.0,0.0,40.0,4.0,0.0
32,69.0,0.0,20.0,5.0,0.0
33,41.0,2.0,40.0,6.0,0.0
34,68.0,24.0,20.0,1.0,0.0
35,68.0,0.0,20.0,5.0,0.0
36,69.0,22.0,60.0,1.0,0.0
37,72.0,0.0,20.0,2.0,0.0
38,69.0,0.0,20.0,3.0,0.0
39,57.0,24.0,20.0,4.0,0.0
40,69.0,0.0,60.0,5.0,0.0
41,57.0,0.0,20.0,6.0,0.0
42,71.0,0.0,20.0,2.0,0.0
43,68.0,0.0,20.0,3.0,0.0
44,59.0,24.0,20.0,4.0,0.0
45,59.0,0.0,20.0,6.0,0.0
46,69.0,0.0,40.0,2.0,0.0
47,69.0,0.0,40.0,3.0,0.0
48,60.0,0.0,40.0,4.0,0.0
49,60.0,2.0,40.0,6.0,0.0
50,76.0,24.0,20.0,1.0,0.0
51,76.0,0.0,20.0,5.0,0.0
52,72.0,22.0,20.0,1.0,0.0
53,57.0,0.0,40.0,4.0,0.0
54,72.0,0.0,20.0,5.0,0.0
55,57.0,2.0,40.0,6.0,0.0
56,68.0,0.0,20.0,1.0,0.0
57,68.0,17.0,20.0,5.0,0.0
58,69.0,16.0,15.0,1.0,0.0
59,64.0,0.0,40.0,2.0,0.0
60,57.0,0.0,40.0,3.0,0.0
61,48.0,0.0,40.0,4.0,0.0
62,69.0,0.0,15.0,5.0,0.0
63,48.0,3.0,40.0,6.0,0.0
64,70.0,13.0,15.0,1.0,0.0
65,70.0,0.0,15.0,5.0,0.0
66,68.0,23.0,15.0,1.0,0.0
67,68.0,0.0,15.0,5.0,0.0
68,69.0,22.0,60.0,1.0,0.0
69,72.0,0.0,20.0,2.0,0.0
70,64.0,0.0,20.0,3.0,0.0
71,57.0,24.0,20.0,4.0,0.0
72,69.0,0.0,60.0,5.0,0.0
73,57.0,0.0,20.0,6.0,0.0
74,71.0,0.0,20.0,2.0,0.0
75,62.0,0.0,20.0,3.0,0.0
76,59.0,24.0,20.0,4.0,0.0
77,59.0,0.0,20.0,6.0,0.0
78,69.0,0.0,40.0,2.0,0.0
79,64.0,0.0,40.0,3.0,0.0
80,60.0,0.0,40.0,4.0,0.0
81,60.0,2.0,40.0,6.0,0.0
82,76.0,24.0,20.0,1.0,0.0
83,76.0,0.0,20.0,5.0,0.0
84,72.0,22.0,20.0,1.0,0.0
85,57.0,0.0,40.0,4.0,0.0
86,72.0,0.0,20.0,5.0,0.0
87,57.0,2.0,40.0,6.0,0.0
88,69.0,0.0,20.0,1.0,0.0
89,69.0,17.0,20.0,5.0,0.0
90,77.0,16.0,15.0,1.0,0.0
91,69.0,0.0,40.0,2.0,0.0
92,62.0,3.0,40.0,3.0,0.0
93,62.0,0.0,40.0,4.0,0.0
94,77.0,0.0,40.0,5.0,0.0
95,62.0,0.0,40.0,6.0,0.0
96,74.0,13.0,15.0,1.0,0.0
97,73.0,45.0,15.0,1.0,0.0
98,74.0,0.0,40.0,1.0,0.0
99,65.0,0.0,40.0,2.0,0.0
100,57.0,0.0,40.0,3.0,0.0
101,50.0,19.0,40.0,4.0,0.0
102,74.0,0.0,40.0,5.0,0.0
103,50.0,0.0,40.0,6.0,0.0
104,77.0,16.0,15.0,5.0,0.0
105,74.0,16.0,15.0,5.0,0.0
106,73.0,45.0,15.0,5.0,0.0
107,74.0,48.0,40.0,5.0,0.0
108,74.0,0.0,40.0,1.0,0.0
109,69.0,0.0,40.0,2.0,0.0
110,65.0,0.0,40.0,3.0,0.0
111,50.0,26.0,40.0,4.0,0.0
112,74.0,0.0,40.0,5.0,0.0
113,50.0,0.0,40.0,6.0,0.0
114,74.0,22.0,60.0,1.0,0.0
115,77.0,0.0,20.0,2.0,0.0
116,69.0,0.0,20.0,3.0,0.0
117,62.0,24.0,20.0,4.0,0.0
118,74.0,0.0,60.0,5.0,0.0
119,62.0,0.0,20.0,6.0,0.0
120,76.0,0.0,20.0,2.0,0.0
121,67.0,0.0,20.0,3.0,0.0
122,64.0,24.0,20.0,4.0,0.0
123,64.0,0.0,20.0,6.0,0.0
124,74.0,0.0,40.0,2.0,0.0
125,69.0,0.0,40.0,3.0,0.0
126,65.0,0.0,40.0,4.0,0.0
127,65.0,2.0,40.0,6.0,0.0
128,81.0,24.0,20.0,1.0,0.0
129,81.0,0.0,20.0,5.0,0.0
130,77.0,22.0,20.0,1.0,0.0
131,62.0,0.0,40.0,4.0,0.0
132,77.0,0.0,20.0,5.0,0.0
133,62.0,2.0,40.0,6.0,0.0
134,73.0,0.0,20.0,1.0,0.0
135,73.0,24.0,20.0,5.0,0.0
136,74.0,22.0,20.0,1.0,0.0
137,69.0,0.0,40.0,2.0,0.0
138,62.0,0.0,40.0,3.0,0.0
139,53.0,0.0,40.0,4.0,0.0
140,74.0,0.0,20.0,5.0,0.0
141,53.0,2.0,40.0,6.0,0.0
142,73.0,24.0,20.0,1.0,0.0
143,73.0,0.0,20.0,5.0,0.0
144,74.0,22.0,60.0,1.0,0.0
145,77.0,0.0,20.0,2.0,0.0
146,69.0,0.0,20.0,3.0,0.0
147,62.0,24.0,20.0,4.0,0.0
148,74.0,0.0,60.0,5.0,0.0
149,62.0,0.0,20.0,6.0,0.0
150,76.0,0.0,20.0,2.0,0.0
151,67.0,0.0,20.0,3.0,0.0
152,64.0,24.0,20.0,4.0,0.0
153,64.0,0.0,20.0,6.0,0.0
154,74.0,0.0,40.0,2.0,0.0
155,69.0,0.0,40.0,3.0,0.0
156,65.0,0.0,40.0,4.0,0.0
157,65.0,2.0,40.0,6.0,0.0
158,81.0,24.0,20.0,1.0,0.0
159,81.0,0.0,20.0,5.0,0.0
160,77.0,22.0,20.0,1.0,0.0
161,62.0,0.0,40.0,4.0,0.0
162,77.0,0.0,20.0,5.0,0.0
163,62.0,2.0,40.0,6.0,0.0
164,73.0,0.0,20.0,1.0,0.0
165,73.0,17.0,20.0,5.0,0.0
166,74.0,16.0,15.0,1.0,0.0
167,69.0,0.0,40.0,2.0,0.0
168,65.0,0.0,40.0,3.0,0.0
169,47.0,0.0,40.0,4.0,0.0
170,74.0,0.0,15.0,5.0,0.0
171,47.0,3.0,40.0,6.0,0.0
172,75.0,13.0,15.0,1.0,0.0
173,75.0,0.0,15.0,5.0,0.0
174,73.0,23.0,15.0,1.0,0.0
175,73.0,0.0,15.0,5.0,0.0
176,74.0,22.0,60.0,1.0,0.0
177,77.0,0.0,20.0,2.0,0.0
178,59.0,0.0,20.0,3.0,0.0
179,62.0,24.0,20.0,4.0,0.0
180,74.0,0.0,60.0,5.0,0.0
181,62.0,0.0,20.0,6.0,0.0
182,76.0,0.0,20.0,2.0,0.0
183,60.0,0.0,20.0,3.0,0.0
184,64.0,24.0,20.0,4.0,0.0
185,64.0,0.0,20.0,6.0,0.0
186,74.0,0.0,40.0,2.0,0.0
187,62.0,0.0,40.0,3.0,0.0
188,65.0,0.0,40.0,4.0,0.0
189,65.0,2.0,40.0,6.0,0.0
190,81.0,24.0,20.0,1.0,0.0
191,81.0,0.0,20.0,5.0,0.0
192,77.0,22.0,20.0,1.0,0.0
193,62.0,0.0,40.0,4.0,0.0
194,77.0,0.0,20.0,5.0,0.0
195,62.0,2.0,40.0,6.0,0.0
196,74.0,0.0,20.0,1.0,0.0
197,74.0,9.0,20.0,5.0,0.0
198,80.0,0.0,15.0,1.0,0.0
199,74.0,6.0,15.0,2.0,0.0
200,71.0,0.0,15.0,3.0,0.0
201,64.0,0.0,40.0,4.0,0.0
202,80.0,0.0,40.0,5.0,0.0
203,64.0,2.0,40.0,6.0,0.0
204,81.0,0.0,15.0,1.0,0.0
205,76.0,11.0,15.0,2.0,0.0
206,72.0,0.0,15.0,3.0,0.0
207,80.0,0.0,15.0,1.0,0.0
208,74.0,20.0,15.0,2.0,0.0
209,71.0,0.0,15.0,3.0,0.0
210,78.0,0.0,20.0,1.0,0.0
211,73.0,0.0,20.0,2.0,0.0
212,69.0,46.0,20.0,3.0,0.0
213,80.0,0.0,40.0,1.0,0.0
214,74.0,0.0,40.0,2.0,0.0
215,71.0,0.0,40.0,3.0,0.0
216,52.0,11.0,40.0,4.0,0.0
217,76.0,0.0,40.0,5.0,0.0
218,52.0,0.0,40.0,6.0,0.0
219,80.0,6.0,15.0,5.0,0.0
220,81.0,11.0,15.0,5.0,0.0
221,80.0,22.0,15.0,5.0,0.0
222,78.0,46.0,20.0,5.0,0.0
223,80.0,26.0,40.0,5.0,0.0
224,83.0,22.0,20.0,1.0,0.0
225,74.0,0.0,20.0,2.0,0.0
226,68.0,0.0,40.0,3.0,0.0
227,40.0,0.0,40.0,4.0,0.0
228,83.0,0.0,20.0,5.0,0.0
229,40.0,2.0,40.0,6.0,0.0
230,81.0,0.0,20.0,1.0,0.0
231,72.0,0.0,20.0,2.0,0.0
232,81.0,24.0,20.0,5.0,0.0
233,80.0,0.0,20.0,1.0,0.0
234,71.0,0.0,20.0,2.0,0.0
235,71.0,2.0,40.0,3.0,0.0
236,52.0,0.0,20.0,4.0,0.0
237,80.0,22.0,20.0,5.0,0.0
238,52.0,0.0,20.0,6.0,0.0
239,78.0,0.0,20.0,1.0,0.0
240,69.0,0.0,20.0,2.0,0.0
241,54.0,0.0,20.0,4.0,0.0
242,78.0,46.0,20.0,5.0,0.0
243,54.0,0.0,20.0,6.0,0.0
244,76.0,0.0,40.0,1.0,0.0
245,71.0,0.0,40.0,2.0,0.0
246,76.0,0.0,40.0,3.0,0.0
247,56.0,48.0,40.0,4.0,0.0
248,76.0,0.0,40.0,5.0,0.0
249,56.0,0.0,40.0,6.0,0.0
250,74.0,0.0,40.0,1.0,0.0
251,71.0,0.0,40.0,2.0,0.0
252,68.0,0.0,40.0,3.0,0.0
253,52.0,11.0,40.0,4.0,0.0
254,74.0,0.0,40.0,5.0,0.0
255,52.0,0.0,40.0,6.0,0.0
256,72.0,6.0,15.0,1.0,0.0
257,69.0,0.0,40.0,2.0,0.0
258,64.0,0.0,40.0,3.0,0.0
259,45.0,0.0,40.0,4.0,0.0
260,72.0,0.0,15.0,5.0,0.0
261,45.0,2.0,40.0,6.0,0.0
262,74.0,11.0,15.0,1.0,0.0
263,74.0,0.0,15.0,5.0,0.0
264,72.0,20.0,15.0,1.0,0.0
265,72.0,0.0,15.0,5.0,0.0
266,71.0,24.0,20.0,1.0,0.0
267,71.0,0.0,20.0,5.0,0.0
268,72.0,0.0,60.0,1.0,0.0
269,64.0,2.0,40.0,2.0,0.0
270,69.0,0.0,20.0,3.0,0.0
271,57.0,22.0,20.0,4.0,0.0
272,72.0,22.0,60.0,5.0,0.0
273,57.0,0.0,20.0,6.0,0.0
274,71.0,0.0,20.0,3.0,0.0
275,56.0,0.0,20.0,4.0,0.0
276,56.0,24.0,20.0,6.0,0.0
277,69.0,0.0,120.0,2.0,0.0
278,72.0,0.0,40.0,3.0,0.0
279,57.0,0.0,40.0,4.0,0.0
280,57.0,2.0,40.0,6.0,0.0
281,69.0,24.0,20.0,1.0,0.0
282,69.0,0.0,20.0,5.0,0.0
283,68.0,22.0,20.0,1.0,0.0
284,64.0,0.0,40.0,3.0,0.0
285,60.0,0.0,40.0,4.0,0.0
286,68.0,0.0,20.0,5.0,0.0
287,60.0,2.0,40.0,6.0,0.0
288,69.0,24.0,20.0,1.0,0.0
289,69.0,0.0,20.0,5.0,0.0
290,75.0,22.0,20.0,1.0,0.0
291,66.0,0.0,20.0,3.0,0.0
292,47.0,0.0,40.0,4.0,0.0
293,75.0,0.0,20.0,5.0,0.0
294,47.0,2.0,40.0,6.0,0.0
295,76.0,24.0,20.0,1.0,0.0
296,67.0,0.0,20.0,2.0,0.0
297,64.0,0.0,20.0,3.0,0.0
298,76.0,0.0,20.0,5.0,0.0
299,78.0,0.0,20.0,1.0,0.0
300,66.0,0.0,20.0,2.0,0.0
301,63.0,0.0,20.0,3.0,0.0
302,63.0,24.0,20.0,4.0,0.0
303,78.0,0.0,20.0,5.0,0.0
304,63.0,0.0,20.0,6.0,0.0
305,76.0,0.0,20.0,1.0,0.0
306,67.0,0.0,20.0,2.0,0.0
307,61.0,0.0,20.0,3.0,0.0
308,64.0,24.0,20.0,4.0,0.0
309,76.0,0.0,20.0,5.0,0.0
310,64.0,0.0,20.0,6.0,0.0
311,75.0,22.0,20.0,1.0,0.0
312,69.0,0.0,40.0,2.0,0.0
313,59.0,0.0,40.0,3.0,0.0
314,66.0,0.0,40.0,4.0,0.0
315,75.0,0.0,20.0,5.0,0.0
316,66.0,2.0,40.0,6.0,0.0
317,73.0,24.0,20.0,1.0,0.0
318,73.0,0.0,20.0,5.0,0.0
319,71.0,22.0,20.0,1.0,0.0
320,66.0,0.0,40.0,2.0,0.0
321,59.0,0.0,40.0,3.0,0.0
322,63.0,0.0,40.0,4.0,0.0
323,71.0,0.0,20.0,5.0,0.0
324,63.0,2.0,40.0,6.0,0.0
325,69.0,9.0,20.0,1.0,0.0
326,69.0,0.0,20.0,5.0,0.0
327,69.0,6.0,15.0,1.0,0.0
328,66.0,0.0,15.0,2.0,0.0
329,59.0,0.0,40.0,3.0,0.0
330,52.0,0.0,40.0,4.0,0.0
331,69.0,0.0,15.0,5.0,0.0
332,52.0,2.0,40.0,6.0,0.0
333,71.0,0.0,15.0,1.0,0.0
334,68.0,6.0,15.0,2.0,0.0
335,71.0,0.0,15.0,5.0,0.0
336,69.0,0.0,15.0,1.0,0.0
337,66.0,6.0,15.0,2.0,0.0
338,69.0,0.0,15.0,5.0,0.0
339,71.0,0.0,15.0,1.0,0.0
340,68.0,19.0,15.0,2.0,0.0
341,71.0,0.0,15.0,5.0,0.0
342,69.0,0.0,20.0,1.0,0.0
343,66.0,0.0,20.0,2.0,0.0
344,69.0,24.0,20.0,5.0,0.0
345,68.0,0.0,60.0,1.0,0.0
346,64.0,2.0,40.0,2.0,0.0
347,59.0,0.0,40.0,3.0,0.0
348,64.0,22.0,20.0,4.0,0.0
349,68.0,22.0,60.0,5.0,0.0
350,64.0,0.0,20.0,6.0,0.0
351,65.0,0.0,20.0,4.0,0.0
352,65.0,24.0,20.0,6.0,0.0
353,64.0,0.0,40.0,4.0,0.0
354,64.0,2.0,40.0,6.0,0.0
355,64.0,0.0,20.0,1.0,0.0
356,64.0,24.0,20.0,5.0,0.0
357,66.0,22.0,20.0,1.0,0.0
358,62.0,0.0,40.0,4.0,0.0
359,66.0,0.0,20.0,5.0,0.0
360,62.0,2.0,40.0,6.0,0.0
361,68.0,0.0,20.0,1.0,0.0
362,68.0,46.0,20.0,5.0,0.0
363,69.0,0.0,40.0,1.0,0.0
364,64.0,0.0,40.0,2.0,0.0
365,57.0,0.0,40.0,3.0,0.0
366,60.0,26.0,40.0,4.0,0.0
367,69.0,0.0,40.0,5.0,0.0
368,60.0,0.0,40.0,6.0,0.0
369,69.0,22.0,60.0,1.0,0.0
370,72.0,0.0,20.0,2.0,0.0
371,64.0,0.0,20.0,3.0,0.0
372,57.0,24.0,20.0,4.0,0.0
373,69.0,0.0,60.0,5.0,0.0
374,57.0,0.0,20.0,6.0,0.0
375,71.0,0.0,20.0,2.0,0.0
376,62.0,0.0,20.0,3.0,0.0
377,59.0,24.0,20.0,4.0,0.0
378,59.0,0.0,20.0,6.0,0.0
379,69.0,0.0,40.0,2.0,0.0
380,64.0,0.0,40.0,3.0,0.0
381,60.0,0.0,40.0,4.0,0.0
382,60.0,2.0,40.0,6.0,0.0
383,76.0,24.0,20.0,1.0,0.0
384,76.0,0.0,20.0,5.0,0.0
385,72.0,22.0,20.0,1.0,0.0
386,57.0,0.0,40.0,4.0,0.0
387,72.0,0.0,20.0,5.0,0.0
388,57.0,2.0,40.0,6.0,0.0
389,68.0,0.0,20.0,1.0,0.0
390,68.0,24.0,20.0,5.0,0.0
391,69.0,22.0,20.0,1.0,0.0
392,62.0,0.0,40.0,2.0,0.0
393,57.0,0.0,40.0,3.0,0.0
394,53.0,0.0,40.0,4.0,0.0
395,69.0,0.0,20.0,5.0,0.0
396,53.0,2.0,40.0,6.0,0.0
397,68.0,24.0,20.0,1.0,0.0
398,68.0,0.0,20.0,5.0,0.0
399,69.0,22.0,60.0,1.0,0.0
400,72.0,0.0,20.0,2.0,0.0
401,69.0,0.0,20.0,3.0,0.0
402,57.0,24.0,20.0,4.0,0.0
403,69.0,0.0,60.0,5.0,0.0
404,57.0,0.0,20.0,6.0,0.0
405,71.0,0.0,20.0,2.0,0.0
406,68.0,0.0,20.0,3.0,0.0
407,59.0,24.0,20.0,4.0,0.0
408,59.0,0.0,20.0,6.0,0.0
409,69.0,0.0,40.0,2.0,0.0
410,69.0,0.0,40.0,3.0,0.0
411,60.0,0.0,40.0,4.0,0.0
412,60.0,2.0,40.0,6.0,0.0
413,76.0,24.0,20.0,1.0,0.0
414,76.0,0.0,20.0,5.0,0.0
415,72.0,22.0,20.0,1.0,0.0
416,57.0,0.0,40.0,4.0,0.0
417,72.0,0.0,20.0,5.0,0.0
418,57.0,2.0,40.0,6.0,0.0
419,69.0,0.0,20.0,1.0,0.0
420,69.0,17.0,20.0,5.0,0.0
421,77.0,0.0,40.0,1.0,0.0
422,74.0,3.0,40.0,2.0,0.0
423,69.0,0.0,40.0,3.0,0.0
424,50.0,0.0,40.0,4.0,0.0
425,77.0,16.0,15.0,5.0,0.0
426,50.0,0.0,40.0,6.0,0.0
427,76.0,13.0,15.0,5.0,0.0
428,74.0,16.0,15.0,5.0,0.0
429,72.0,16.0,15.0,5.0,0.0
430,74.0,16.0,15.0,5.0,0.0
431,71.0,16.0,15.0,5.0,0.0
432,80.0,0.0,40.0,1.0,0.0
433,74.0,3.0,40.0,2.0,0.0
434,64.0,0.0,40.0,3.0,0.0
435,52.0,0.0,40.0,4.0,0.0
436,80.0,16.0,15.0,5.0,0.0
437,52.0,0.0,40.0,6.0,0.0
438,77.0,13.0,15.0,5.0,0.0
439,76.0,16.0,15.0,5.0,0.0
440,74.0,16.0,15.0,5.0,0.0
441,76.0,16.0,15.0,5.0,0.0
442,72.0,16.0,15.0,5.0,0.0
443,81.0,0.0,40.0,1.0,0.0
444,74.0,3.0,40.0,2.0,0.0
445,69.0,0.0,40.0,3.0,0.0
446,53.0,0.0,40.0,4.0,0.0
447,81.0,16.0,15.0,5.0,0.0
448,53.0,0.0,40.0,6.0,0.0
449,79.0,13.0,15.0,5.0,0.0
450,77.0,16.0,15.0,5.0,0.0
451,76.0,16.0,15.0,5.0,0.0
452,77.0,16.0,15.0,5.0,0.0
453,74.0,16.0,15.0,5.0,0.0
454,83.0,0.0,40.0,1.0,0.0
455,74.0,3.0,40.0,2.0,0.0
456,64.0,0.0,40.0,3.0,0.0
457,44.0,0.0,40.0,4.0,0.0
458,83.0,16.0,15.0,5.0,0.0
459,44.0,0.0,40.0,6.0,0.0
460,81.0,13.0,15.0,5.0,0.0
461,80.0,16.0,15.0,5.0,0.0
462,77.0,16.0,15.0,5.0,0.0
463,76.0,16.0,15.0,5.0,0.0
464,74.0,16.0,15.0,5.0,0.0
465,72.0,0.0,40.0,1.0,0.0
466,69.0,3.0,40.0,2.0,0.0
467,64.0,0.0,40.0,3.0,0.0
468,45.0,0.0,40.0,4.0,0.0
469,72.0,16.0,15.0,5.0,0.0
470,45.0,0.0,40.0,6.0,0.0
471,71.0,13.0,15.0,5.0,0.0
472,69.0,16.0,15.0,5.0,0.0
473,74.0,0.0,40.0,1.0,0.0
474,68.0,3.0,40.0,2.0,0.0
475,64.0,0.0,40.0,3.0,0.0
476,47.0,0.0,40.0,4.0,0.0
477,74.0,16.0,15.0,5.0,0.0
478,47.0,0.0,40.0,6.0,0.0
479,72.0,13.0,15.0,5.0,0.0
480,71.0,16.0,15.0,5.0,0.0
481,76.0,0.0,40.0,1.0,0.0
482,69.0,3.0,40.0,2.0,0.0
483,64.0,0.0,40.0,3.0,0.0
484,48.0,0.0,40.0,4.0,0.0
485,76.0,16.0,15.0,5.0,0.0
486,48.0,0.0,40.0,6.0,0.0
487,74.0,13.0,15.0,5.0,0.0
488,72.0,16.0,15.0,5.0,0.0
489,77.0,0.0,40.0,1.0,0.0
490,62.0,3.0,40.0,2.0,0.0
491,69.0,0.0,40.0,3.0,0.0
492,50.0,0.0,40.0,4.0,0.0
493,77.0,16.0,15.0,5.0,0.0
494,50.0,0.0,40.0,6.0,0.0
495,74.0,13.0,15.0,5.0,0.0
496,71.0,16.0,15.0,5.0,0.0
497,68.0,0.0,40.0,1.0,0.0
498,59.0,3.0,40.0,2.0,0.0
499,64.0,0.0,40.0,3.0,0.0
500,40.0,0.0,40.0,4.0,0.0
501,68.0,16.0,15.0,5.0,0.0
502,40.0,0.0,40.0,6.0,0.0
503,71.0,13.0,15.0,5.0,0.0
504,74.0,23.0,15.0,5.0,0.0
505,74.0,0.0,60.0,1.0,0.0
506,68.0,0.0,20.0,2.0,0.0
507,59.0,2.0,40.0,3.0,0.0
508,52.0,22.0,20.0,4.0,0.0
509,74.0,16.0,60.0,5.0,0.0
510,52.0,0.0,20.0,6.0,0.0
511,69.0,0.0,20.0,2.0,0.0
512,54.0,0.0,20.0,4.0,0.0
513,54.0,17.0,20.0,6.0,0.0
514,71.0,0.0,40.0,2.0,0.0
515,64.0,0.0,40.0,3.0,0.0
516,56.0,0.0,40.0,4.0,0.0
517,56.0,3.0,40.0,6.0,0.0
518,71.0,13.0,15.0,1.0,0.0
519,71.0,0.0,15.0,5.0,0.0
520,72.0,16.0,15.0,1.0,0.0
521,72.0,0.0,15.0,5.0,0.0
522,74.0,16.0,15.0,1.0,0.0
523,68.0,0.0,40.0,2.0,0.0
524,64.0,0.0,40.0,3.0,0.0
525,52.0,0.0,40.0,4.0,0.0
526,74.0,0.0,15.0,5.0,0.0
527,52.0,3.0,40.0,6.0,0.0
528,72.0,13.0,15.0,1.0,0.0
529,72.0,0.0,15.0,5.0,0.0
530,71.0,16.0,15.0,1.0,0.0
531,71.0,0.0,15.0,5.0,0.0
532,72.0,0.0,40.0,1.0,0.0
533,69.0,3.0,40.0,2.0,0.0
534,64.0,0.0,40.0,3.0,0.0
535,57.0,0.0,40.0,4.0,0.0
536,72.0,16.0,15.0,5.0,0.0
537,57.0,0.0,40.0,6.0,0.0
538,77.0,13.0,15.0,5.0,0.0
539,75.0,16.0,15.0,5.0,0.0
540,76.0,0.0,40.0,1.0,0.0
541,69.0,0.0,40.0,2.0,0.0
542,64.0,2.0,40.0,3.0,0.0
543,48.0,0.0,20.0,4.0,0.0
544,76.0,7.0,15.0,5.0,0.0
545,48.0,9.0,20.0,6.0,0.0
546,68.0,13.0,15.0,5.0,0.0
547,50.0,1.0,20.0,4.0,0.0
548,50.0,0.0,20.0,6.0,0.0
549,69.0,16.0,15.0,5.0,0.0
550,64.0,0.0,40.0,1.0,0.0
551,69.0,3.0,40.0,2.0,0.0
552,64.0,0.0,40.0,3.0,0.0
553,52.0,0.0,40.0,4.0,0.0
554,74.0,16.0,15.0,5.0,0.0
555,52.0,0.0,40.0,6.0,0.0
556,72.0,13.0,15.0,5.0,0.0
557,71.0,16.0,15.0,5.0,0.0
558,68.0,0.0,40.0,1.0,0.0
559,64.0,3.0,40.0,2.0,0.0
560,62.0,0.0,40.0,3.0,0.0
561,40.0,0.0,40.0,4.0,0.0
562,72.0,16.0,15.0,5.0,0.0
563,40.0,0.0,40.0,6.0,0.0
564,71.0,13.0,15.0,5.0,0.0
565,69.0,16.0,15.0,5.0,0.0
566,69.0,0.0,90.0,1.0,0.0
567,64.0,6.0,90.0,2.0,0.0
568,60.0,0.0,90.0,3.0,0.0
569,45.0,0.0,90.0,4.0,0.0
570,69.0,16.0,15.0,5.0,0.0
571,45.0,16.0,120.0,6.0,0.0
572,64.0,16.0,15.0,5.0,0.0
573,62.0,16.0,15.0,5.0,0.0
574,60.0,16.0,15.0,5.0,0.0
575,62.0,10.0,15.0,5.0,0.0
576,64.0,16.0,15.0,5.0,0.0
577,57.0,3.0,40.0,5.0,0.0
578,48.0,13.0,15.0,6.0,0.0
579,50.0,16.0,15.0,6.0,0.0
580,52.0,16.0,15.0,6.0,0.0
581,54.0,16.0,15.0,6.0,0.0
582,56.0,16.0,15.0,6.0,0.0
583,57.0,3.0,40.0,4.0,0.0
584,76.0,16.0,15.0,5.0,0.0
585,57.0,0.0,40.0,6.0,0.0
586,81.0,13.0,15.0,5.0,0.0
587,83.0,23.0,15.0,5.0,0.0
588,81.0,0.0,20.0,1.0,0.0
589,76.0,24.0,20.0,2.0,0.0
590,72.0,0.0,20.0,3.0,0.0
591,84.0,16.0,60.0,5.0,0.0
592,80.0,17.0,20.0,1.0,0.0
593,74.0,0.0,20.0,2.0,0.0
594,71.0,0.0,20.0,3.0,0.0
595,81.0,0.0,40.0,1.0,0.0
596,76.0,3.0,40.0,2.0,0.0
597,72.0,0.0,40.0,3.0,0.0
598,45.0,0.0,40.0,4.0,0.0
599,45.0,0.0,40.0,6.0,0.0
600,81.0,13.0,15.0,5.0,0.0
601,83.0,16.0,15.0,5.0,0.0
602,84.0,16.0,15.0,5.0,0.0
603,83.0,16.0,15.0,5.0,0.0
604,81.0,16.0,15.0,5.0,0.0
605,47.0,3.0,40.0,4.0,0.0
606,80.0,16.0,15.0,5.0,0.0
607,47.0,0.0,40.0,6.0,0.0
608,81.0,13.0,15.0,5.0,0.0
609,83.0,23.0,15.0,5.0,0.0
610,80.0,0.0,20.0,1.0,0.0
611,74.0,24.0,20.0,2.0,0.0
612,71.0,0.0,20.0,3.0,0.0
613,74.0,16.0,60.0,5.0,0.0
614,78.0,17.0,20.0,1.0,0.0
615,72.0,0.0,20.0,2.0,0.0
616,69.0,0.0,20.0,3.0,0.0
617,80.0,0.0,40.0,1.0,0.0
618,74.0,3.0,40.0,2.0,0.0
619,71.0,0.0,40.0,3.0,0.0
620,59.0,0.0,40.0,4.0,0.0
621,59.0,0.0,40.0,6.0,0.0
622,76.0,13.0,15.0,5.0,0.0
623,77.0,16.0,15.0,5.0,0.0
624,71.0,16.0,15.0,5.0,0.0
625,72.0,16.0,15.0,5.0,0.0
626,74.0,16.0,15.0,5.0,0.0
627,64.0,3.0,40.0,4.0,0.0
628,68.0,16.0,15.0,5.0,0.0
629,64.0,0.0,40.0,6.0,0.0
630,69.0,13.0,15.0,5.0,0.0
631,71.0,16.0,15.0,5.0,0.0
632,83.0,0.0,20.0,1.0,0.0
633,80.0,9.0,20.0,2.0,0.0
634,74.0,0.0,20.0,3.0,0.0
635,64.0,7.0,15.0,5.0,0.0
636,68.0,15.0,15.0,5.0,0.0
637,81.0,0.0,20.0,1.0,0.0
638,78.0,1.0,20.0,2.0,0.0
639,72.0,0.0,20.0,3.0,0.0
640,71.0,16.0,15.0,5.0,0.0
641,83.0,0.0,40.0,1.0,0.0
642,80.0,3.0,40.0,2.0,0.0
643,71.0,0.0,40.0,3.0,0.0
644,52.0,0.0,40.0,4.0,0.0
645,74.0,16.0,15.0,5.0,0.0
646,52.0,0.0,40.0,6.0,0.0
647,72.0,13.0,15.0,5.0,0.0
648,71.0,16.0,15.0,5.0,0.0
649,77.0,16.0,15.0,5.0,0.0
650,76.0,16.0,15.0,5.0,0.0
651,74.0,16.0,15.0,5.0,0.0
652,57.0,3.0,40.0,4.0,0.0
653,72.0,16.0,15.0,5.0,0.0
654,57.0,0.0,40.0,6.0,0.0
655,74.0,13.0,15.0,5.0,0.0
656,76.0,23.0,15.0,5.0,0.0
657,81.0,0.0,20.0,1.0,0.0
658,76.0,24.0,20.0,2.0,0.0
659,72.0,0.0,20.0,3.0,0.0
660,69.0,16.0,60.0,5.0,0.0
661,80.0,17.0,20.0,1.0,0.0
662,74.0,0.0,20.0,2.0,0.0
663,71.0,0.0,20.0,3.0,0.0
664,81.0,0.0,40.0,1.0,0.0
665,76.0,3.0,40.0,2.0,0.0
666,72.0,0.0,40.0,3.0,0.0
667,45.0,0.0,40.0,4.0,0.0
668,45.0,0.0,40.0,6.0,0.0
669,69.0,13.0,15.0,5.0,0.0
670,71.0,16.0,15.0,5.0,0.0
671,73.0,16.0,15.0,5.0,0.0
672,71.0,16.0,15.0,5.0,0.0
673,69.0,16.0,15.0,5.0,0.0
674,49.0,3.0,40.0,4.0,0.0
675,76.0,16.0,15.0,5.0,0.0
676,49.0,0.0,40.0,6.0,0.0
677,74.0,13.0,15.0,5.0,0.0
678,73.0,16.0,15.0,5.0,0.0
679,76.0,0.0,40.0,1.0,0.0
680,76.0,3.0,40.0,2.0,0.0
681,76.0,0.0,40.0,3.0,0.0
682,79.0,16.0,15.0,5.0,0.0
683,77.0,13.0,15.0,5.0,0.0
684,76.0,16.0,15.0,5.0,0.0
685,73.0,0.0,40.0,1.0,0.0
686,73.0,3.0,40.0,2.0,0.0
687,73.0,0.0,40.0,3.0,0.0
688,45.0,0.0,40.0,4.0,0.0
689,82.0,16.0,15.0,5.0,0.0
690,45.0,0.0,40.0,6.0,0.0
691,81.0,13.0,15.0,5.0,0.0
692,79.0,16.0,15.0,5.0,0.0
693,69.0,0.0,40.0,1.0,0.0
694,69.0,3.0,40.0,2.0,0.0
695,69.0,0.0,40.0,3.0,0.0
696,85.0,16.0,15.0,5.0,0.0
697,88.0,13.0,15.0,5.0,0.0
698,79.0,16.0,15.0,5.0,0.0
699,50.0,3.0,40.0,4.0,0.0
700,77.0,16.0,15.0,5.0,0.0
701,50.0,0.0,40.0,6.0,0.0
702,76.0,13.0,15.0,5.0,0.0
703,74.0,23.0,15.0,5.0,0.0
704,77.0,0.0,20.0,1.0,0.0
705,74.0,24.0,20.0,2.0,0.0
706,69.0,0.0,20.0,3.0,0.0
707,86.0,16.0,60.0,5.0,0.0
708,76.0,17.0,20.0,1.0,0.0
709,73.0,0.0,20.0,2.0,0.0
710,67.0,0.0,20.0,3.0,0.0
711,77.0,0.0,40.0,1.0,0.0
712,74.0,3.0,40.0,2.0,0.0
713,69.0,0.0,40.0,3.0,0.0
714,48.0,0.0,40.0,4.0,0.0
715,48.0,0.0,40.0,6.0,0.0
716,83.0,13.0,15.0,5.0,0.0
717,84.0,16.0,15.0,5.0,0.0
718,86.0,16.0,15.0,5.0,0.0
719,84.0,16.0,15.0,5.0,0.0
720,83.0,16.0,15.0,5.0,0.0
721,47.0,3.0,40.0,4.0,0.0
722,81.0,16.0,15.0,5.0,0.0
723,47.0,0.0,40.0,6.0,0.0
724,79.0,13.0,15.0,5.0,0.0
725,76.0,16.0,15.0,5.0,0.0
726,74.0,0.0,40.0,1.0,0.0
727,74.0,3.0,40.0,2.0,0.0
728,74.0,0.0,40.0,3.0,0.0
729,77.0,16.0,15.0,5.0,0.0
730,76.0,13.0,15.0,5.0,0.0
731,77.0,16.0,15.0,5.0,0.0
732,71.0,0.0,40.0,1.0,0.0
733,71.0,3.0,40.0,2.0,0.0
734,71.0,0.0,40.0,3.0,0.0
735,43.0,0.0,40.0,4.0,0.0
736,86.0,16.0,15.0,5.0,0.0
737,43.0,0.0,40.0,6.0,0.0
738,84.0,13.0,15.0,5.0,0.0
739,83.0,16.0,15.0,5.0,0.0
740,67.0,0.0,40.0,1.0,0.0
741,67.0,3.0,40.0,2.0,0.0
742,67.0,0.0,40.0,3.0,0.0
743,81.0,16.0,15.0,5.0,0.0
744,83.0,13.0,15.0,5.0,0.0
745,79.0,16.0,15.0,5.0,0.0
746,48.0,3.0,40.0,4.0,0.0
747,77.0,16.0,15.0,5.0,0.0
748,48.0,0.0,40.0,6.0,0.0
749,74.0,13.0,15.0,5.0,0.0
750,77.0,23.0,15.0,5.0,0.0
751,76.0,0.0,20.0,1.0,0.0
752,72.0,24.0,20.0,2.0,0.0
753,67.0,0.0,20.0,3.0,0.0
754,76.0,16.0,60.0,5.0,0.0
755,74.0,17.0,20.0,1.0,0.0
756,71.0,0.0,20.0,2.0,0.0
757,65.0,0.0,20.0,3.0,0.0
758,76.0,0.0,40.0,1.0,0.0
759,72.0,3.0,40.0,2.0,0.0
760,67.0,0.0,40.0,3.0,0.0
761,60.0,0.0,40.0,6.0,0.0
762,72.0,13.0,15.0,5.0,0.0
763,74.0,16.0,15.0,5.0,0.0
764,76.0,16.0,15.0,5.0,0.0
765,48.0,3.0,40.0,6.0,0.0
766,74.0,13.0,15.0,5.0,0.0
767,72.0,16.0,15.0,5.0,0.0
768,70.0,16.0,15.0,5.0,0.0
769,53.0,3.0,40.0,6.0,0.0
770,69.0,13.0,15.0,5.0,0.0
771,77.0,16.0,15.0,5.0,0.0
772,69.0,16.0,15.0,5.0,0.0
773,55.0,3.0,40.0,6.0,0.0
774,67.0,13.0,15.0,5.0,0.0
775,76.0,16.0,15.0,5.0,0.0
776,67.0,16.0,15.0,5.0,0.0
777,57.0,3.0,40.0,6.0,0.0
778,65.0,13.0,15.0,5.0,0.0
779,74.0,16.0,15.0,5.0,0.0
780,65.0,16.0,15.0,5.0,0.0
781,53.0,3.0,40.0,6.0,0.0
782,64.0,13.0,15.0,5.0,0.0
783,72.0,16.0,15.0,5.0,0.0
784,71.0,16.0,15.0,5.0,0.0
785,55.0,3.0,40.0,6.0,0.0
786,72.0,13.0,15.0,5.0,0.0
787,74.0,16.0,15.0,5.0,0.0
788,72.0,16.0,15.0,5.0,0.0
789,50.0,3.0,40.0,6.0,0.0
790,71.0,13.0,15.0,5.0,0.0
791,69.0,16.0,15.0,5.0,0.0
792,71.0,16.0,15.0,5.0,0.0
793,43.0,3.0,40.0,6.0,0.0
794,69.0,13.0,15.0,5.0,0.0
795,67.0,16.0,15.0,5.0,0.0
796,77.0,16.0,15.0,5.0,0.0
797,47.0,3.0,40.0,6.0,0.0
798,76.0,13.0,15.0,5.0,0.0
799,74.0,16.0,15.0,5.0,0.0
800,76.0,16.0,15.0,5.0,0.0
801,48.0,3.0,40.0,6.0,0.0
802,81.0,13.0,15.0,5.0,0.0
803,79.0,16.0,15.0,5.0,0.0
804,77.0,16.0,15.0,5.0,0.0
805,52.0,3.0,40.0,6.0,0.0
806,76.0,13.0,15.0,5.0,0.0
807,74.0,8.0,15.0,5.0,0.0
808,72.0,6.0,15.0,5.0,0.0
809,53.0,2.0,40.0,6.0,0.0
810,74.0,6.0,15.0,5.0,0.0
811,72.0,6.0,15.0,5.0,0.0
812,74.0,19.0,15.0,5.0,0.0
813,72.0,24.0,20.0,5.0,0.0
814,71.0,22.0,20.0,5.0,0.0
815,55.0,2.0,40.0,6.0,0.0
816,72.0,46.0,20.0,5.0,0.0
817,78.0,26.0,40.0,5.0,0.0
818,57.0,0.0,40.0,6.0,0.0
819,79.0,0.0,20.0,1.0,0.0
820,74.0,0.0,20.0,2.0,0.0
821,67.0,0.0,20.0,3.0,0.0
822,59.0,24.0,20.0,4.0,0.0
823,79.0,16.0,60.0,5.0,0.0
824,59.0,0.0,20.0,6.0,0.0
825,78.0,0.0,20.0,1.0,0.0
826,72.0,0.0,20.0,2.0,0.0
827,69.0,0.0,20.0,3.0,0.0
828,57.0,17.0,20.0,4.0,0.0
829,57.0,0.0,20.0,6.0,0.0
830,79.0,0.0,40.0,1.0,0.0
831,74.0,3.0,40.0,2.0,0.0
832,71.0,0.0,40.0,3.0,0.0
833,55.0,0.0,40.0,4.0,0.0
834,55.0,0.0,40.0,6.0,0.0
835,81.0,13.0,15.0,5.0,0.0
836,83.0,16.0,15.0,5.0,0.0
837,84.0,16.0,15.0,5.0,0.0
838,53.0,3.0,40.0,6.0,0.0
839,83.0,13.0,15.0,5.0,0.0
840,81.0,16.0,15.0,5.0,0.0
841,79.0,16.0,15.0,5.0,0.0
842,52.0,3.0,40.0,6.0,0.0
843,77.0,13.0,15.0,5.0,0.0
844,76.0,16.0,15.0,5.0,0.0
845,81.0,16.0,15.0,5.0,0.0
846,53.0,3.0,40.0,6.0,0.0
847,79.0,13.0,15.0,5.0,0.0
848,77.0,8.0,15.0,5.0,0.0
849,76.0,6.0,15.0,5.0,0.0
850,55.0,2.0,40.0,6.0,0.0
851,77.0,6.0,15.0,5.0,0.0
852,76.0,6.0,15.0,5.0,0.0
853,77.0,19.0,15.0,5.0,0.0
854,76.0,24.0,20.0,5.0,0.0
855,74.0,22.0,20.0,5.0,0.0
856,43.0,2.0,40.0,6.0,0.0
857,72.0,17.0,20.0,5.0,0.0
858,72.0,16.0,15.0,5.0,0.0
859,48.0,5.0,90.0,6.0,0.0
860,67.0,16.0,15.0,5.0,0.0
861,72.0,16.0,15.0,5.0,0.0
862,76.0,9.0,20.0,1.0,0.0
863,72.0,0.0,20.0,2.0,0.0
864,67.0,0.0,20.0,3.0,0.0
865,76.0,7.0,15.0,5.0,0.0
866,79.0,10.0,15.0,5.0,0.0
867,74.0,1.0,20.0,1.0,0.0
868,74.0,0.0,20.0,2.0,0.0
869,65.0,0.0,20.0,3.0,0.0
870,83.0,16.0,15.0,5.0,0.0
871,76.0,0.0,40.0,1.0,0.0
872,72.0,3.0,40.0,2.0,0.0
873,67.0,0.0,40.0,3.0,0.0
874,84.0,16.0,15.0,5.0,0.0
875,79.0,13.0,15.0,5.0,0.0
876,76.0,16.0,15.0,5.0,0.0
877,72.0,9.0,20.0,1.0,0.0
878,67.0,0.0,40.0,2.0,0.0
879,64.0,2.0,40.0,3.0,0.0
880,72.0,7.0,15.0,5.0,0.0
881,67.0,13.0,15.0,5.0,0.0
882,71.0,1.0,20.0,1.0,0.0
883,64.0,23.0,15.0,5.0,0.0
884,72.0,0.0,40.0,1.0,0.0
885,67.0,0.0,40.0,2.0,0.0
886,64.0,0.0,40.0,3.0,0.0
887,48.0,0.0,40.0,4.0,0.0
888,79.0,2.0,40.0,5.0,0.0
889,60.0,22.0,20.0,6.0,0.0
890,59.0,24.0,20.0,6.0,0.0
891,72.0,22.0,60.0,1.0,0.0
892,76.0,0.0,20.0,2.0,0.0
893,67.0,0.0,20.0,3.0,0.0
894,60.0,24.0,20.0,4.0,0.0
895,72.0,0.0,60.0,5.0,0.0
896,60.0,0.0,20.0,6.0,0.0
897,74.0,0.0,20.0,2.0,0.0
898,65.0,0.0,20.0,3.0,0.0
899,62.0,24.0,20.0,4.0,0.0
900,62.0,0.0,20.0,6.0,0.0
901,72.0,0.0,40.0,2.0,0.0
902,67.0,0.0,40.0,3.0,0.0
903,64.0,0.0,40.0,4.0,0.0
904,64.0,2.0,40.0,6.0,0.0
905,79.0,24.0,20.0,1.0,0.0
906,79.0,0.0,20.0,5.0,0.0
907,76.0,22.0,20.0,1.0,0.0
908,60.0,0.0,40.0,4.0,0.0
909,76.0,0.0,20.0,5.0,0.0
910,60.0,2.0,40.0,6.0,0.0
911,71.0,0.0,20.0,1.0,0.0
912,71.0,24.0,20.0,5.0,0.0
913,72.0,22.0,20.0,1.0,0.0
914,67.0,0.0,40.0,2.0,0.0
915,64.0,0.0,40.0,3.0,0.0
916,52.0,0.0,40.0,4.0,0.0
917,72.0,0.0,20.0,5.0,0.0
918,52.0,2.0,40.0,6.0,0.0
919,71.0,24.0,20.0,1.0,0.0
920,71.0,0.0,20.0,5.0,0.0
921,72.0,22.0,60.0,1.0,0.0
922,76.0,0.0,20.0,2.0,0.0
923,67.0,0.0,20.0,3.0,0.0
924,60.0,24.0,20.0,4.0,0.0
925,72.0,0.0,60.0,5.0,0.0
926,60.0,0.0,20.0,6.0,0.0
927,74.0,0.0,20.0,2.0,0.0
928,65.0,0.0,20.0,3.0,0.0
929,62.0,24.0,20.0,4.0,0.0
930,62.0,0.0,20.0,6.0,0.0
931,72.0,0.0,40.0,2.0,0.0
932,67.0,0.0,40.0,3.0,0.0
933,64.0,0.0,40.0,4.0,0.0
934,64.0,2.0,40.0,6.0,0.0
935,79.0,24.0,20.0,1.0,0.0
936,79.0,0.0,20.0,5.0,0.0
937,76.0,22.0,20.0,1.0,0.0
938,60.0,0.0,40.0,4.0,0.0
939,76.0,0.0,20.0,5.0,0.0
940,60.0,2.0,40.0,6.0,0.0
941,71.0,0.0,20.0,1.0,0.0
942,71.0,17.0,20.0,5.0,0.0
943,72.0,16.0,15.0,1.0,0.0
944,69.0,0.0,40.0,2.0,0.0
945,64.0,0.0,40.0,3.0,0.0
946,45.0,0.0,40.0,4.0,0.0
947,72.0,0.0,15.0,5.0,0.0
948,45.0,3.0,40.0,6.0,0.0
949,74.0,13.0,15.0,1.0,0.0
950,74.0,0.0,15.0,5.0,0.0
951,71.0,23.0,15.0,1.0,0.0
952,71.0,0.0,15.0,5.0,0.0
953,72.0,22.0,60.0,1.0,0.0
954,76.0,0.0,20.0,2.0,0.0
955,69.0,0.0,20.0,3.0,0.0
956,60.0,24.0,20.0,4.0,0.0
957,72.0,0.0,60.0,5.0,0.0
958,60.0,0.0,20.0,6.0,0.0
959,74.0,0.0,20.0,2.0,0.0
960,71.0,0.0,20.0,3.0,0.0
961,62.0,24.0,20.0,4.0,0.0
962,62.0,0.0,20.0,6.0,0.0
963,72.0,0.0,40.0,2.0,0.0
964,72.0,0.0,40.0,3.0,0.0
965,64.0,0.0,40.0,4.0,0.0
966,64.0,2.0,40.0,6.0,0.0
967,79.0,24.0,20.0,1.0,0.0
968,79.0,0.0,20.0,5.0,0.0
969,76.0,22.0,20.0,1.0,0.0
970,60.0,0.0,40.0,4.0,0.0
971,76.0,0.0,20.0,5.0,0.0
972,60.0,2.0,40.0,6.0,0.0
973,71.0,0.0,20.0,1.0,0.0
974,71.0,24.0,20.0,5.0,0.0
975,72.0,0.0,20.0,1.0,0.0
976,67.0,22.0,20.0,2.0,0.0
977,60.0,0.0,20.0,3.0,0.0
978,40.0,0.0,40.0,4.0,0.0
979,72.0,2.0,40.0,5.0,0.0
980,52.0,0.0,40.0,6.0,0.0
981,71.0,0.0,20.0,1.0,0.0
982,65.0,0.0,20.0,2.0,0.0
983,62.0,46.0,20.0,3.0,0.0
984,72.0,0.0,40.0,1.0,0.0
985,67.0,0.0,40.0,2.0,0.0
986,64.0,0.0,40.0,3.0,0.0
987,52.0,16.0,40.0,4.0,0.0
988,60.0,0.0,40.0,5.0,0.0
989,40.0,0.0,40.0,6.0,0.0
990,72.0,12.0,15.0,5.0,0.0
991,64.0,24.0,40.0,6.0,0.0
992,71.0,20.0,15.0,5.0,0.0
993,72.0,16.0,40.0,5.0,0.0
994,52.0,4.0,40.0,6.0,0.0
995,76.0,8.0,15.0,5.0,0.0
996,79.0,44.0,15.0,5.0,0.0
997,67.0,0.0,40.0,2.0,0.0
998,52.0,26.0,40.0,4.0,0.0
999,84.0,0.0,60.0,5.0,0.0
1000,64.0,0.0,40.0,6.0,0.0
1001,64.0,14.0,20.0,1.0,0.0
1002,60.0,2.0,40.0,3.0,0.0
1003,67.0,0.0,20.0,6.0,0.0
1004,65.0,2.0,20.0,1.0,0.0
1005,79.0,8.0,15.0,5.0,0.0
1006,69.0,0.0,20.0,6.0,0.0
1007,77.0,15.0,15.0,5.0,0.0
1008,67.0,3.0,40.0,1.0,0.0
1009,76.0,16.0,15.0,5.0,0.0
1010,70.0,0.0,40.0,6.0,0.0
1011,77.0,13.0,15.0,5.0,0.0
1012,79.0,16.0,15.0,5.0,0.0
1013,70.0,0.0,40.0,1.0,0.0
1014,67.0,3.0,40.0,2.0,0.0
1015,55.0,0.0,40.0,4.0,0.0
1016,77.0,16.0,15.0,5.0,0.0
1017,55.0,0.0,40.0,6.0,0.0
1018,76.0,13.0,15.0,5.0,0.0
1019,74.0,45.0,15.0,5.0,0.0
1020,64.0,0.0,40.0,2.0,0.0
1021,62.0,0.0,40.0,3.0,0.0
1022,57.0,0.0,40.0,4.0,0.0
1023,74.0,26.0,40.0,5.0,0.0
1024,57.0,0.0,40.0,6.0,0.0
1025,61.0,24.0,20.0,1.0,0.0
1026,69.0,0.0,90.0,3.0,0.0
1027,73.0,16.0,60.0,5.0,0.0
1028,64.0,0.0,20.0,6.0,0.0
1029,62.0,17.0,20.0,1.0,0.0
1030,65.0,0.0,20.0,6.0,0.0
1031,64.0,3.0,40.0,1.0,0.0
1032,67.0,0.0,40.0,6.0,0.0
1033,72.0,13.0,15.0,5.0,0.0
1034,74.0,16.0,15.0,5.0,0.0
1035,67.0,0.0,40.0,1.0,0.0
1036,62.0,3.0,40.0,2.0,0.0
1037,59.0,0.0,40.0,4.0,0.0
1038,74.0,16.0,15.0,5.0,0.0
1039,59.0,0.0,40.0,6.0,0.0
1040,72.0,13.0,15.0,5.0,0.0
1041,71.0,16.0,15.0,5.0,0.0
1042,69.0,0.0,40.0,2.0,0.0
1043,64.0,3.0,40.0,3.0,0.0
1044,61.0,0.0,40.0,4.0,0.0
1045,69.0,16.0,15.0,5.0,0.0
1046,61.0,0.0,40.0,6.0,0.0
1047,76.0,13.0,15.0,5.0,0.0
1048,79.0,16.0,15.0,5.0,0.0
1049,79.0,19.0,40.0,1.0,0.0
1050,73.0,16.0,15.0,5.0,0.0
1051,64.0,0.0,40.0,6.0,0.0
1052,79.0,13.0,15.0,5.0,0.0
1053,82.0,16.0,30.0,5.0,0.0
1054,73.0,3.0,40.0,1.0,0.0
1055,69.0,0.0,40.0,6.0,0.0
1056,81.0,13.0,15.0,5.0,0.0
1057,79.0,16.0,15.0,5.0,0.0
1058,76.0,0.0,40.0,1.0,0.0
1059,73.0,19.0,40.0,2.0,0.0
1060,69.0,0.0,40.0,3.0,0.0
1061,57.0,0.0,40.0,4.0,0.0
1062,81.0,16.0,15.0,5.0,0.0
1063,57.0,0.0,40.0,6.0,0.0
1064,76.0,13.0,15.0,5.0,0.0
1065,79.0,16.0,30.0,5.0,0.0
1066,74.0,0.0,40.0,2.0,0.0
1067,69.0,3.0,40.0,3.0,0.0
1068,62.0,0.0,40.0,4.0,0.0
1069,62.0,0.0,40.0,6.0,0.0
1070,77.0,13.0,15.0,5.0,0.0
1071,76.0,16.0,15.0,5.0,0.0
1072,74.0,0.0,20.0,1.0,0.0
1073,69.0,9.0,20.0,2.0,0.0
1074,62.0,0.0,20.0,3.0,0.0
1075,77.0,7.0,15.0,5.0,0.0
1076,74.0,15.0,15.0,5.0,0.0
1077,73.0,0.0,20.0,1.0,0.0
1078,67.0,1.0,20.0,2.0,0.0
1079,64.0,0.0,20.0,3.0,0.0
1080,73.0,16.0,15.0,5.0,0.0
1081,74.0,0.0,40.0,1.0,0.0
1082,69.0,3.0,40.0,2.0,0.0
1083,65.0,0.0,40.0,3.0,0.0
1084,74.0,16.0,15.0,5.0,0.0
1085,69.0,13.0,15.0,5.0,0.0
1086,65.0,23.0,15.0,5.0,0.0
1087,62.0,22.0,20.0,5.0,0.0
1088,50.0,19.0,40.0,6.0,0.0
1089,74.0,16.0,40.0,5.0,0.0
1090,55.0,3.0,40.0,6.0,0.0
1091,76.0,13.0,15.0,5.0,0.0
1092,77.0,16.0,15.0,5.0,0.0
1093,79.0,16.0,15.0,5.0,0.0
1094,53.0,3.0,40.0,6.0,0.0
1095,81.0,13.0,15.0,5.0,0.0
1096,82.0,37.0,15.0,5.0,0.0
1097,72.0,8.0,30.0,5.0,0.0
1098,52.0,4.0,40.0,6.0,0.0
1099,82.0,15.0,15.0,5.0,0.0
1100,81.0,3.0,40.0,5.0,0.0
1101,53.0,16.0,15.0,6.0,0.0
1102,57.0,13.0,15.0,6.0,0.0
1103,53.0,16.0,15.0,6.0,0.0
1104,70.0,16.0,15.0,5.0,0.0
1105,50.0,3.0,40.0,6.0,0.0
1106,72.0,13.0,15.0,5.0,0.0
1107,74.0,16.0,15.0,5.0,0.0
1108,76.0,16.0,15.0,5.0,0.0
1109,55.0,3.0,40.0,6.0,0.0
1110,77.0,13.0,15.0,5.0,0.0
1111,79.0,37.0,15.0,5.0,0.0
1112,69.0,8.0,30.0,5.0,0.0
1113,49.0,4.0,40.0,6.0,0.0
1114,79.0,15.0,15.0,5.0,0.0
1115,77.0,3.0,40.0,5.0,0.0
1116,50.0,16.0,15.0,6.0,0.0
1117,53.0,13.0,15.0,6.0,0.0
1118,50.0,16.0,15.0,6.0,0.0
1119,67.0,16.0,15.0,5.0,0.0
1120,58.0,3.0,40.0,6.0,0.0
1121,77.0,13.0,15.0,5.0,0.0
1122,76.0,16.0,15.0,5.0,0.0
1123,65.0,16.0,15.0,5.0,0.0
1124,57.0,3.0,40.0,6.0,0.0
1125,76.0,13.0,15.0,5.0,0.0
1126,74.0,16.0,15.0,5.0,0.0
1127,64.0,16.0,15.0,5.0,0.0
1128,55.0,11.0,30.0,6.0,0.0
1129,74.0,5.0,15.0,5.0,0.0
1130,73.0,1.0,15.0,5.0,0.0
1131,58.0,15.0,15.0,6.0,0.0
1132,70.0,16.0,15.0,5.0,0.0
1133,64.0,11.0,30.0,6.0,0.0
1134,69.0,5.0,15.0,5.0,0.0
1135,68.0,1.0,15.0,5.0,0.0
1136,62.0,15.0,15.0,6.0,0.0
1137,69.0,16.0,15.0,5.0,0.0
1138,61.0,3.0,40.0,6.0,0.0
1139,70.0,13.0,15.0,5.0,0.0
1140,68.0,23.0,15.0,5.0,0.0
1141,79.0,0.0,20.0,1.0,0.0
1142,73.0,22.0,20.0,2.0,0.0
1143,69.0,0.0,20.0,3.0,0.0
1144,45.0,0.0,40.0,4.0,0.0
1145,69.0,16.0,60.0,5.0,0.0
1146,57.0,2.0,40.0,6.0,0.0
1147,77.0,0.0,20.0,1.0,0.0
1148,74.0,0.0,20.0,2.0,0.0
1149,71.0,17.0,20.0,3.0,0.0
1150,79.0,0.0,40.0,1.0,0.0
1151,76.0,3.0,40.0,2.0,0.0
1152,73.0,0.0,40.0,3.0,0.0
1153,57.0,0.0,40.0,4.0,0.0
1154,57.0,0.0,40.0,6.0,0.0
1155,64.0,13.0,15.0,5.0,0.0
1156,62.0,16.0,15.0,5.0,0.0
1157,76.0,0.0,40.0,1.0,0.0
1158,69.0,3.0,40.0,2.0,0.0
1159,61.0,0.0,40.0,3.0,0.0
1160,45.0,0.0,40.0,4.0,0.0
1161,61.0,16.0,15.0,5.0,0.0
1162,45.0,0.0,40.0,6.0,0.0
1163,62.0,13.0,15.0,5.0,0.0
1164,64.0,32.0,15.0,5.0,0.0
1165,73.0,0.0,180.0,1.0,0.0
1166,69.0,0.0,360.0,2.0,0.0
1167,64.0,7.0,180.0,3.0,0.0
1168,45.0,0.0,1530.0,4.0,0.0
1169,55.0,0.0,40.0,6.0,0.0
1170,57.0,3.0,40.0,6.0,0.0
1171,73.0,13.0,15.0,5.0,0.0
1172,74.0,16.0,15.0,5.0,0.0
1173,76.0,16.0,15.0,5.0,0.0
1174,45.0,3.0,40.0,6.0,0.0
1175,73.0,13.0,15.0,5.0,0.0
1176,67.0,32.0,15.0,5.0,0.0
1177,55.0,0.0,40.0,6.0,0.0
1178,57.0,3.0,40.0,6.0,0.0
1179,73.0,13.0,15.0,5.0,0.0
1180,74.0,16.0,15.0,5.0,0.0
1181,76.0,16.0,15.0,5.0,0.0
1182,45.0,3.0,40.0,6.0,0.0
1183,73.0,6.0,15.0,5.0,0.0
1184,67.0,32.0,15.0,5.0,0.0
1185,74.0,7.0,180.0,1.0,0.0
1186,65.0,0.0,180.0,3.0,0.0
1187,53.0,0.0,40.0,6.0,0.0
1188,57.0,3.0,40.0,6.0,0.0
1189,74.0,13.0,15.0,5.0,0.0
1190,76.0,16.0,15.0,5.0,0.0
1191,77.0,16.0,15.0,5.0,0.0
1192,45.0,3.0,40.0,6.0,0.0
1193,74.0,13.0,15.0,5.0,0.0
1194,69.0,32.0,15.0,5.0,0.0
1195,53.0,0.0,40.0,6.0,0.0
1196,57.0,3.0,40.0,6.0,0.0
1197,74.0,13.0,15.0,5.0,0.0
1198,76.0,16.0,15.0,5.0,0.0
1199,77.0,16.0,15.0,5.0,0.0
1200,45.0,3.0,40.0,6.0,0.0
1201,74.0,6.0,15.0,5.0,0.0
1202,69.0,32.0,15.0,5.0,0.0
1203,76.0,0.0,180.0,1.0,0.0
1204,73.0,7.0,180.0,2.0,0.0
1205,67.0,0.0,180.0,3.0,0.0
1206,52.0,3.0,40.0,6.0,0.0
1207,57.0,0.0,40.0,6.0,0.0
1208,55.0,0.0,40.0,6.0,0.0
1209,76.0,13.0,15.0,5.0,0.0
1210,77.0,16.0,15.0,5.0,0.0
1211,79.0,16.0,15.0,5.0,0.0
1212,45.0,3.0,40.0,6.0,0.0
1213,76.0,13.0,15.0,5.0,0.0
1214,73.0,32.0,15.0,5.0,0.0
1215,55.0,3.0,40.0,6.0,0.0
1216,52.0,0.0,40.0,6.0,0.0
1217,57.0,0.0,40.0,6.0,0.0
1218,76.0,13.0,15.0,5.0,0.0
1219,77.0,16.0,15.0,5.0,0.0
1220,79.0,16.0,15.0,5.0,0.0
1221,45.0,3.0,40.0,6.0,0.0
1222,76.0,6.0,15.0,5.0,0.0
1223,73.0,32.0,15.0,5.0,0.0
1224,77.0,0.0,180.0,1.0,0.0
1225,69.0,7.0,180.0,2.0,0.0
1226,65.0,0.0,180.0,3.0,0.0
1227,57.0,0.0,40.0,6.0,0.0
1228,50.0,3.0,40.0,6.0,0.0
1229,77.0,13.0,15.0,5.0,0.0
1230,79.0,16.0,15.0,5.0,0.0
1231,81.0,16.0,15.0,5.0,0.0
1232,45.0,3.0,40.0,6.0,0.0
1233,77.0,13.0,15.0,5.0,0.0
1234,74.0,32.0,15.0,5.0,0.0
1235,50.0,0.0,40.0,6.0,0.0
1236,57.0,3.0,40.0,6.0,0.0
1237,77.0,13.0,15.0,5.0,0.0
1238,79.0,16.0,15.0,5.0,0.0
1239,81.0,16.0,15.0,5.0,0.0
1240,45.0,3.0,40.0,6.0,0.0
1241,77.0,6.0,15.0,5.0,0.0
1242,74.0,32.0,15.0,5.0,0.0
1243,73.0,0.0,180.0,1.0,0.0
1244,64.0,7.0,180.0,2.0,0.0
1245,70.0,0.0,180.0,3.0,0.0
1246,52.0,3.0,40.0,6.0,0.0
1247,57.0,0.0,40.0,6.0,0.0
1248,55.0,0.0,40.0,6.0,0.0
1249,79.0,13.0,15.0,5.0,0.0
1250,81.0,16.0,15.0,5.0,0.0
1251,82.0,16.0,15.0,5.0,0.0
1252,45.0,3.0,40.0,6.0,0.0
1253,79.0,13.0,15.0,5.0,0.0
1254,76.0,32.0,15.0,5.0,0.0
1255,55.0,3.0,40.0,6.0,0.0
1256,52.0,0.0,40.0,6.0,0.0
1257,57.0,0.0,40.0,6.0,0.0
1258,79.0,13.0,15.0,5.0,0.0
1259,81.0,16.0,15.0,5.0,0.0
1260,82.0,16.0,15.0,5.0,0.0
1261,45.0,3.0,40.0,6.0,0.0
1262,79.0,6.0,15.0,5.0,0.0
1263,76.0,32.0,15.0,5.0,0.0
1264,74.0,7.0,360.0,1.0,0.0
1265,69.0,0.0,630.0,2.0,0.0
1266,65.0,7.0,180.0,3.0,0.0
1267,50.0,0.0,40.0,6.0,0.0
1268,57.0,3.0,40.0,6.0,0.0
1269,77.0,13.0,15.0,5.0,0.0
1270,79.0,16.0,15.0,5.0,0.0
1271,81.0,16.0,15.0,5.0,0.0
1272,45.0,3.0,40.0,6.0,0.0
1273,77.0,13.0,15.0,5.0,0.0
1274,74.0,32.0,15.0,5.0,0.0
1275,53.0,3.0,40.0,6.0,0.0
1276,57.0,0.0,40.0,6.0,0.0
1277,50.0,0.0,40.0,6.0,0.0
1278,77.0,13.0,15.0,5.0,0.0
1279,79.0,16.0,15.0,5.0,0.0
1280,81.0,16.0,15.0,5.0,0.0
1281,45.0,3.0,40.0,6.0,0.0
1282,77.0,6.0,15.0,5.0,0.0
1283,74.0,32.0,15.0,5.0,0.0
1284,67.0,0.0,180.0,3.0,0.0
1285,55.0,0.0,40.0,6.0,0.0
1286,57.0,3.0,40.0,6.0,0.0
1287,76.0,13.0,15.0,5.0,0.0
1288,77.0,16.0,15.0,5.0,0.0
1289,79.0,16.0,15.0,5.0,0.0
1290,45.0,3.0,40.0,6.0,0.0
1291,76.0,13.0,15.0,5.0,0.0
1292,74.0,32.0,15.0,5.0,0.0
1293,57.0,3.0,40.0,6.0,0.0
1294,55.0,0.0,40.0,6.0,0.0
1295,52.0,0.0,40.0,6.0,0.0
1296,76.0,13.0,15.0,5.0,0.0
1297,77.0,16.0,15.0,5.0,0.0
1298,79.0,16.0,15.0,5.0,0.0
1299,45.0,3.0,40.0,6.0,0.0
1300,76.0,6.0,15.0,5.0,0.0
1301,74.0,32.0,15.0,5.0,0.0
1302,73.0,7.0,180.0,1.0,0.0
1303,64.0,0.0,180.0,3.0,0.0
1304,52.0,3.0,40.0,6.0,0.0
1305,55.0,0.0,40.0,6.0,0.0
1306,57.0,0.0,40.0,6.0,0.0
1307,76.0,13.0,15.0,5.0,0.0
1308,77.0,16.0,15.0,5.0,0.0
1309,79.0,16.0,15.0,5.0,0.0
1310,45.0,3.0,40.0,6.0,0.0
1311,76.0,13.0,15.0,5.0,0.0
1312,73.0,32.0,15.0,5.0,0.0
1313,52.0,3.0,40.0,6.0,0.0
1314,55.0,0.0,40.0,6.0,0.0
1315,57.0,0.0,40.0,6.0,0.0
1316,76.0,13.0,15.0,5.0,0.0
1317,77.0,16.0,15.0,5.0,0.0
1318,79.0,16.0,15.0,5.0,0.0
1319,45.0,3.0,40.0,6.0,0.0
1320,76.0,6.0,15.0,5.0,0.0
1321,73.0,13.0,15.0,5.0,0.0
1322,74.0,0.0,40.0,1.0,0.0
1323,62.0,0.0,40.0,3.0,0.0
1324,50.0,0.0,40.0,4.0,0.0
1325,79.0,12.0,15.0,5.0,0.0
1326,50.0,4.0,40.0,6.0,0.0
1327,77.0,12.0,15.0,5.0,0.0
1328,79.0,8.0,15.0,5.0,0.0
1329,77.0,12.0,15.0,5.0,0.0
1330,74.0,2.0,60.0,1.0,0.0
1331,77.0,0.0,20.0,2.0,0.0
1332,69.0,0.0,20.0,3.0,0.0
1333,62.0,0.0,20.0,4.0,0.0
1334,79.0,10.0,15.0,5.0,0.0
1335,62.0,2.0,20.0,6.0,0.0
1336,77.0,12.0,15.0,5.0,0.0
1337,76.0,0.0,20.0,2.0,0.0
1338,67.0,0.0,20.0,3.0,0.0
1339,64.0,0.0,20.0,4.0,0.0
1340,79.0,10.0,15.0,5.0,0.0
1341,64.0,2.0,20.0,6.0,0.0
1342,77.0,12.0,15.0,5.0,0.0
1343,74.0,0.0,40.0,2.0,0.0
1344,69.0,0.0,40.0,3.0,0.0
1345,65.0,2.0,40.0,4.0,0.0
1346,79.0,10.0,15.0,5.0,0.0
1347,65.0,0.0,40.0,6.0,0.0
1348,77.0,12.0,15.0,5.0,0.0
1349,81.0,2.0,20.0,1.0,0.0
1350,79.0,8.0,15.0,5.0,0.0
1351,77.0,12.0,15.0,5.0,0.0
1352,77.0,2.0,20.0,1.0,0.0
1353,69.0,0.0,40.0,2.0,0.0
1354,74.0,0.0,40.0,3.0,0.0
1355,62.0,2.0,40.0,4.0,0.0
1356,79.0,10.0,15.0,5.0,0.0
1357,62.0,0.0,40.0,6.0,0.0
1358,77.0,12.0,15.0,5.0,0.0
1359,73.0,17.0,20.0,1.0,0.0
1360,79.0,8.0,15.0,5.0,0.0
1361,77.0,7.0,20.0,5.0,0.0
1362,74.0,9.0,20.0,1.0,0.0
1363,69.0,0.0,40.0,2.0,0.0
1364,65.0,0.0,40.0,3.0,0.0
1365,46.0,0.0,40.0,4.0,0.0
1366,46.0,2.0,40.0,6.0,0.0
1367,79.0,13.0,15.0,5.0,0.0
1368,73.0,1.0,20.0,1.0,0.0
1369,77.0,16.0,15.0,5.0,0.0
1370,74.0,3.0,40.0,1.0,0.0
1371,76.0,16.0,15.0,5.0,0.0
1372,77.0,13.0,15.0,5.0,0.0
1373,74.0,16.0,15.0,5.0,0.0
1374,79.0,16.0,15.0,5.0,0.0
1375,81.0,16.0,15.0,5.0,0.0
1376,79.0,16.0,15.0,5.0,0.0
1377,77.0,16.0,15.0,5.0,0.0
1378,79.0,16.0,15.0,5.0,0.0
1379,76.0,13.0,15.0,5.0,0.0
1380,74.0,9.0,15.0,1.0,0.0
1381,69.0,0.0,40.0,2.0,0.0
1382,62.0,0.0,40.0,3.0,0.0
1383,53.0,0.0,40.0,4.0,0.0
1384,82.0,3.0,15.0,5.0,0.0
1385,53.0,3.0,40.0,6.0,0.0
1386,81.0,7.0,15.0,5.0,0.0
1387,75.0,5.0,15.0,1.0,0.0
1388,82.0,8.0,15.0,5.0,0.0
1389,73.0,1.0,15.0,1.0,0.0
1390,81.0,12.0,15.0,5.0,0.0
1391,74.0,2.0,60.0,1.0,0.0
1392,77.0,0.0,20.0,2.0,0.0
1393,69.0,0.0,20.0,3.0,0.0
1394,62.0,0.0,20.0,4.0,0.0
1395,82.0,10.0,15.0,5.0,0.0
1396,62.0,2.0,20.0,6.0,0.0
1397,81.0,12.0,15.0,5.0,0.0
1398,76.0,0.0,20.0,2.0,0.0
1399,67.0,0.0,20.0,3.0,0.0
1400,64.0,0.0,20.0,4.0,0.0
1401,82.0,10.0,15.0,5.0,0.0
1402,64.0,2.0,20.0,6.0,0.0
1403,81.0,12.0,15.0,5.0,0.0
1404,74.0,0.0,40.0,2.0,0.0
1405,69.0,0.0,40.0,3.0,0.0
1406,65.0,2.0,40.0,4.0,0.0
1407,82.0,10.0,15.0,5.0,0.0
1408,65.0,0.0,40.0,6.0,0.0
1409,81.0,12.0,15.0,5.0,0.0
1410,81.0,2.0,20.0,1.0,0.0
1411,82.0,8.0,15.0,5.0,0.0
1412,81.0,12.0,15.0,5.0,0.0
1413,77.0,2.0,20.0,1.0,0.0
1414,69.0,0.0,40.0,2.0,0.0
1415,62.0,0.0,40.0,3.0,0.0
1416,62.0,2.0,40.0,4.0,0.0
1417,82.0,10.0,15.0,5.0,0.0
1418,62.0,0.0,40.0,6.0,0.0
1419,81.0,12.0,15.0,5.0,0.0
1420,74.0,17.0,20.0,1.0,0.0
1421,82.0,8.0,15.0,5.0,0.0
1422,81.0,16.0,20.0,5.0,0.0
1423,82.0,0.0,40.0,1.0,0.0
1424,67.0,3.0,40.0,2.0,0.0
1425,74.0,0.0,40.0,3.0,0.0
1426,55.0,0.0,40.0,4.0,0.0
1427,55.0,0.0,40.0,6.0,0.0
1428,82.0,13.0,15.0,5.0,0.0
1429,81.0,16.0,15.0,5.0,0.0
1430,79.0,16.0,15.0,5.0,0.0
1431,81.0,16.0,15.0,5.0,0.0
1432,78.0,16.0,15.0,5.0,0.0
1433,82.0,16.0,15.0,5.0,0.0
1434,84.0,16.0,15.0,5.0,0.0
1435,82.0,16.0,15.0,5.0,0.0
1436,81.0,16.0,15.0,5.0,0.0
1437,82.0,16.0,15.0,5.0,0.0
1438,79.0,16.0,15.0,5.0,0.0
1439,85.0,16.0,15.0,5.0,0.0
1440,45.0,3.0,40.0,6.0,0.0
1441,88.0,13.0,15.0,5.0,0.0
1442,86.0,16.0,15.0,5.0,0.0
1443,85.0,7.0,15.0,5.0,0.0
1444,57.0,9.0,20.0,6.0,0.0
1445,83.0,15.0,15.0,5.0,0.0
1446,59.0,1.0,20.0,6.0,0.0
1447,81.0,16.0,15.0,5.0,0.0
1448,79.0,16.0,15.0,5.0,0.0
1449,61.0,3.0,40.0,6.0,0.0
1450,82.0,13.0,15.0,5.0,0.0
1451,81.0,16.0,15.0,5.0,0.0
1452,79.0,16.0,15.0,5.0,0.0
1453,57.0,3.0,40.0,6.0,0.0
1454,77.0,13.0,15.0,5.0,0.0
1455,76.0,16.0,15.0,5.0,0.0
1456,62.0,0.0,40.0,1.0,0.0
1457,62.0,3.0,40.0,2.0,0.0
1458,62.0,0.0,40.0,3.0,0.0
1459,77.0,16.0,15.0,5.0,0.0
1460,50.0,0.0,40.0,6.0,0.0
1461,73.0,13.0,15.0,5.0,0.0
1462,74.0,16.0,15.0,5.0,0.0
1463,64.0,0.0,40.0,1.0,0.0
1464,64.0,3.0,40.0,2.0,0.0
1465,64.0,0.0,40.0,3.0,0.0
1466,79.0,16.0,15.0,5.0,0.0
1467,52.0,0.0,40.0,6.0,0.0
1468,73.0,13.0,15.0,5.0,0.0
1469,74.0,16.0,15.0,5.0,0.0
1470,65.0,0.0,40.0,1.0,0.0
1471,65.0,3.0,40.0,2.0,0.0
1472,65.0,0.0,40.0,3.0,0.0
1473,81.0,16.0,15.0,5.0,0.0
1474,53.0,0.0,40.0,6.0,0.0
1475,73.0,13.0,15.0,5.0,0.0
1476,74.0,16.0,15.0,5.0,0.0
1477,67.0,0.0,40.0,1.0,0.0
1478,67.0,3.0,40.0,2.0,0.0
1479,67.0,0.0,40.0,3.0,0.0
1480,82.0,16.0,15.0,5.0,0.0
1481,55.0,0.0,40.0,6.0,0.0
1482,73.0,13.0,15.0,5.0,0.0
1483,74.0,16.0,15.0,5.0,0.0
1484,69.0,0.0,40.0,1.0,0.0
1485,69.0,3.0,40.0,2.0,0.0
1486,69.0,0.0,40.0,3.0,0.0
1487,50.0,0.0,40.0,4.0,0.0
1488,65.0,16.0,15.0,5.0,0.0
1489,62.0,0.0,40.0,6.0,0.0
1490,73.0,13.0,15.0,5.0,0.0
1491,74.0,16.0,15.0,5.0,0.0
1492,52.0,3.0,40.0,4.0,0.0
1493,67.0,16.0,15.0,5.0,0.0
1494,64.0,0.0,40.0,6.0,0.0
1495,73.0,13.0,15.0,5.0,0.0
1496,74.0,16.0,15.0,5.0,0.0
1497,53.0,3.0,40.0,4.0,0.0
1498,69.0,16.0,15.0,5.0,0.0
1499,65.0,0.0,40.0,6.0,0.0
1500,73.0,13.0,15.0,5.0,0.0
1501,74.0,16.0,15.0,5.0,0.0
1502,55.0,3.0,40.0,4.0,0.0
1503,70.0,16.0,15.0,5.0,0.0
1504,67.0,0.0,40.0,6.0,0.0
1505,73.0,13.0,15.0,5.0,0.0
1506,74.0,32.0,15.0,5.0,0.0
1507,52.0,3.0,40.0,4.0,0.0
1508,74.0,0.0,120.0,5.0,0.0
1509,70.0,16.0,120.0,5.0,0.0
1510,79.0,0.0,120.0,5.0,0.0
1511,64.0,13.0,15.0,6.0,0.0
1512,65.0,16.0,15.0,6.0,0.0
1513,70.0,0.0,40.0,1.0,0.0
1514,67.0,3.0,40.0,2.0,0.0
1515,64.0,0.0,40.0,3.0,0.0
1516,67.0,16.0,15.0,6.0,0.0
1517,69.0,13.0,15.0,6.0,0.0
1518,70.0,16.0,15.0,6.0,0.0
1519,70.0,0.0,40.0,1.0,0.0
1520,67.0,0.0,40.0,2.0,0.0
1521,64.0,3.0,40.0,3.0,0.0
1522,62.0,0.0,40.0,6.0,0.0
1523,74.0,13.0,15.0,5.0,0.0
1524,72.0,16.0,15.0,5.0,0.0
1525,74.0,0.0,40.0,1.0,0.0
1526,67.0,3.0,40.0,2.0,0.0
1527,64.0,0.0,40.0,3.0,0.0
1528,70.0,16.0,15.0,5.0,0.0
1529,69.0,13.0,15.0,5.0,0.0
1530,67.0,32.0,15.0,5.0,0.0
1531,45.0,3.0,40.0,4.0,0.0
1532,79.0,0.0,120.0,5.0,0.0
1533,69.0,16.0,120.0,5.0,0.0
1534,76.0,0.0,120.0,5.0,0.0
1535,61.0,13.0,15.0,6.0,0.0
1536,62.0,16.0,15.0,6.0,0.0
1537,73.0,0.0,40.0,1.0,0.0
1538,64.0,3.0,40.0,2.0,0.0
1539,57.0,0.0,40.0,3.0,0.0
1540,64.0,16.0,15.0,6.0,0.0
1541,65.0,13.0,15.0,6.0,0.0
1542,67.0,16.0,15.0,6.0,0.0
1543,73.0,0.0,40.0,1.0,0.0
1544,64.0,0.0,40.0,2.0,0.0
1545,57.0,3.0,40.0,3.0,0.0
1546,57.0,0.0,40.0,6.0,0.0
1547,76.0,13.0,15.0,5.0,0.0
1548,74.0,16.0,15.0,5.0,0.0
1549,76.0,0.0,40.0,1.0,0.0
1550,73.0,3.0,40.0,2.0,0.0
1551,57.0,0.0,40.0,3.0,0.0
1552,73.0,16.0,15.0,5.0,0.0
1553,71.0,13.0,15.0,5.0,0.0
1554,69.0,16.0,15.0,5.0,0.0
1555,74.0,0.0,40.0,2.0,0.0
1556,69.0,3.0,40.0,3.0,0.0
1557,50.0,0.0,40.0,4.0,0.0
1558,77.0,16.0,15.0,5.0,0.0
1559,50.0,0.0,40.0,6.0,0.0
1560,74.0,13.0,15.0,5.0,0.0
1561,72.0,16.0,15.0,5.0,0.0
1562,70.0,0.0,90.0,1.0,0.0
1563,55.0,3.0,40.0,4.0,0.0
1564,70.0,16.0,15.0,5.0,0.0
1565,55.0,0.0,40.0,6.0,0.0
1566,69.0,13.0,15.0,5.0,0.0
1567,67.0,16.0,15.0,5.0,0.0
1568,76.0,3.0,40.0,2.0,0.0
1569,72.0,0.0,40.0,3.0,0.0
1570,48.0,0.0,40.0,4.0,0.0
1571,76.0,16.0,15.0,5.0,0.0
1572,48.0,0.0,40.0,6.0,0.0
1573,72.0,13.0,15.0,5.0,0.0
1574,70.0,16.0,15.0,5.0,0.0
1575,69.0,0.0,90.0,1.0,0.0
1576,53.0,3.0,40.0,4.0,0.0
1577,69.0,16.0,15.0,5.0,0.0
1578,53.0,0.0,40.0,6.0,0.0
1579,67.0,13.0,15.0,5.0,0.0
1580,65.0,16.0,15.0,5.0,0.0
1581,77.0,3.0,40.0,2.0,0.0
1582,74.0,0.0,40.0,3.0,0.0
1583,46.0,0.0,40.0,4.0,0.0
1584,74.0,16.0,15.0,5.0,0.0
1585,46.0,0.0,40.0,6.0,0.0
1586,70.0,13.0,15.0,5.0,0.0
1587,69.0,16.0,15.0,5.0,0.0
1588,67.0,0.0,90.0,1.0,0.0
1589,79.0,3.0,40.0,2.0,0.0
1590,62.0,0.0,40.0,3.0,0.0
1591,58.0,0.0,40.0,4.0,0.0
1592,67.0,16.0,15.0,5.0,0.0
1593,58.0,0.0,40.0,6.0,0.0
1594,65.0,13.0,15.0,5.0,0.0
1595,64.0,16.0,15.0,5.0,0.0
1596,81.0,3.0,40.0,2.0,0.0
1597,64.0,0.0,40.0,3.0,0.0
1598,57.0,0.0,40.0,4.0,0.0
1599,73.0,16.0,15.0,5.0,0.0
1600,57.0,0.0,40.0,6.0,0.0
1601,69.0,13.0,15.0,5.0,0.0
1602,71.0,16.0,15.0,5.0,0.0
1603,67.0,16.0,60.0,1.0,0.0
1604,73.0,16.0,15.0,5.0,0.0
1605,64.0,3.0,40.0,6.0,0.0
1606,74.0,13.0,15.0,5.0,0.0
1607,76.0,16.0,15.0,5.0,0.0
1608,69.0,0.0,40.0,2.0,0.0
1609,64.0,0.0,40.0,3.0,0.0
1610,57.0,0.0,40.0,4.0,0.0
1611,76.0,0.0,15.0,5.0,0.0
1612,61.0,3.0,40.0,6.0,0.0
1613,69.0,13.0,15.0,1.0,0.0
1614,73.0,0.0,15.0,5.0,0.0
1615,71.0,16.0,15.0,1.0,0.0
1616,74.0,0.0,15.0,5.0,0.0
1617,73.0,16.0,15.0,1.0,0.0
1618,76.0,0.0,15.0,5.0,0.0
1619,57.0,3.0,40.0,6.0,0.0
1620,74.0,13.0,15.0,1.0,0.0
1621,77.0,0.0,15.0,5.0,0.0
1622,76.0,16.0,15.0,1.0,0.0
1623,79.0,0.0,15.0,5.0,0.0
1624,76.0,0.0,40.0,1.0,0.0
1625,73.0,3.0,40.0,2.0,0.0
1626,64.0,0.0,40.0,3.0,0.0
1627,45.0,0.0,40.0,4.0,0.0
1628,79.0,16.0,15.0,5.0,0.0
1629,52.0,0.0,40.0,6.0,0.0
1630,82.0,13.0,15.0,5.0,0.0
1631,81.0,16.0,15.0,5.0,0.0
1632,79.0,16.0,15.0,5.0,0.0
1633,49.0,3.0,40.0,6.0,0.0
1634,77.0,13.0,15.0,5.0,0.0
1635,76.0,16.0,15.0,5.0,0.0
1636,77.0,16.0,15.0,5.0,0.0
1637,50.0,3.0,40.0,6.0,0.0
1638,81.0,13.0,15.0,5.0,0.0
1639,79.0,16.0,15.0,5.0,0.0
1640,77.0,16.0,15.0,5.0,0.0
1641,55.0,3.0,40.0,6.0,0.0
1642,76.0,13.0,15.0,5.0,0.0
1643,74.0,45.0,15.0,5.0,0.0
1644,74.0,40.0,40.0,5.0,0.0
1645,57.0,0.0,40.0,6.0,0.0
1646,73.0,8.0,30.0,5.0,0.0
1647,45.0,4.0,40.0,6.0,0.0
1648,74.0,44.0,15.0,5.0,0.0
1649,80.0,0.0,40.0,1.0,0.0
1650,77.0,0.0,40.0,2.0,0.0
1651,71.0,0.0,40.0,3.0,0.0
1652,50.0,26.0,40.0,4.0,0.0
1653,80.0,0.0,40.0,5.0,0.0
1654,50.0,0.0,40.0,6.0,0.0
1655,81.0,0.0,40.0,1.0,0.0
1656,76.0,0.0,40.0,2.0,0.0
1657,64.0,0.0,40.0,3.0,0.0
1658,49.0,2.0,40.0,4.0,0.0
1659,81.0,16.0,60.0,5.0,0.0
1660,49.0,22.0,20.0,6.0,0.0
1661,47.0,17.0,20.0,6.0,0.0
1662,49.0,3.0,40.0,6.0,0.0
1663,83.0,13.0,15.0,5.0,0.0
1664,85.0,16.0,15.0,5.0,0.0
1665,86.0,16.0,15.0,5.0,0.0
1666,53.0,16.0,60.0,6.0,0.0
1667,84.0,16.0,15.0,5.0,0.0
1668,82.0,16.0,15.0,5.0,0.0
1669,81.0,0.0,15.0,5.0,0.0
1670,79.0,16.0,15.0,5.0,0.0
1671,52.0,0.0,15.0,6.0,0.0
1672,77.0,16.0,15.0,5.0,0.0
1673,50.0,0.0,15.0,6.0,0.0
1674,82.0,16.0,15.0,5.0,0.0
1675,55.0,0.0,15.0,6.0,0.0
1676,81.0,16.0,15.0,5.0,0.0
1677,57.0,0.0,15.0,6.0,0.0
1678,79.0,45.0,15.0,5.0,0.0
1679,58.0,0.0,15.0,6.0,0.0
1680,77.0,11.0,40.0,5.0,0.0
1681,57.0,0.0,40.0,6.0,0.0
1682,76.0,6.0,15.0,5.0,0.0
1683,45.0,4.0,40.0,6.0,0.0
1684,77.0,21.0,15.0,5.0,0.0
1685,76.0,10.0,20.0,5.0,0.0
1686,74.0,15.0,15.0,5.0,0.0
1687,74.0,16.0,15.0,5.0,0.0
1688,50.0,3.0,40.0,6.0,0.0
1689,77.0,13.0,15.0,5.0,0.0
1690,74.0,16.0,15.0,5.0,0.0
1691,62.0,3.0,40.0,1.0,0.0
1692,69.0,16.0,15.0,5.0,0.0
1693,74.0,13.0,15.0,5.0,0.0
1694,69.0,16.0,15.0,5.0,0.0
1695,65.0,3.0,40.0,1.0,0.0
1696,62.0,0.0,40.0,2.0,0.0
1697,65.0,16.0,15.0,5.0,0.0
1698,74.0,13.0,15.0,5.0,0.0
1699,69.0,16.0,15.0,5.0,0.0
1700,69.0,0.0,40.0,1.0,0.0
1701,65.0,3.0,40.0,2.0,0.0
1702,62.0,0.0,40.0,3.0,0.0
1703,65.0,16.0,15.0,5.0,0.0
1704,69.0,13.0,15.0,5.0,0.0
1705,65.0,23.0,15.0,5.0,0.0
1706,74.0,0.0,40.0,1.0,0.0
1707,69.0,2.0,40.0,2.0,0.0
1708,65.0,0.0,40.0,3.0,0.0
1709,50.0,0.0,40.0,4.0,0.0
1710,62.0,22.0,20.0,6.0,0.0
1711,61.0,24.0,20.0,6.0,0.0
1712,74.0,22.0,60.0,1.0,0.0
1713,77.0,0.0,20.0,2.0,0.0
1714,69.0,0.0,20.0,3.0,0.0
1715,62.0,24.0,20.0,4.0,0.0
1716,74.0,0.0,60.0,5.0,0.0
1717,62.0,0.0,20.0,6.0,0.0
1718,76.0,0.0,20.0,2.0,0.0
1719,67.0,0.0,20.0,3.0,0.0
1720,64.0,24.0,20.0,4.0,0.0
1721,64.0,0.0,20.0,6.0,0.0
1722,74.0,0.0,40.0,2.0,0.0
1723,69.0,0.0,40.0,3.0,0.0
1724,65.0,0.0,40.0,4.0,0.0
1725,65.0,2.0,40.0,6.0,0.0
1726,81.0,24.0,20.0,1.0,0.0
1727,81.0,0.0,20.0,5.0,0.0
1728,77.0,22.0,20.0,1.0,0.0
1729,62.0,0.0,40.0,4.0,0.0
1730,77.0,0.0,20.0,5.0,0.0
1731,62.0,2.0,40.0,6.0,0.0
1732,73.0,0.0,20.0,1.0,0.0
1733,73.0,24.0,20.0,5.0,0.0
1734,74.0,22.0,20.0,1.0,0.0
1735,67.0,0.0,40.0,2.0,0.0
1736,62.0,0.0,40.0,3.0,0.0
1737,46.0,0.0,40.0,4.0,0.0
1738,74.0,0.0,20.0,5.0,0.0
1739,46.0,2.0,40.0,6.0,0.0
1740,73.0,24.0,20.0,1.0,0.0
1741,73.0,0.0,20.0,5.0,0.0
1742,74.0,22.0,60.0,1.0,0.0
1743,77.0,0.0,20.0,2.0,0.0
1744,74.0,0.0,20.0,3.0,0.0
1745,62.0,24.0,20.0,4.0,0.0
1746,74.0,0.0,60.0,5.0,0.0
1747,62.0,0.0,20.0,6.0,0.0
1748,76.0,0.0,20.0,2.0,0.0
1749,73.0,0.0,20.0,3.0,0.0
1750,64.0,24.0,20.0,4.0,0.0
1751,64.0,0.0,20.0,6.0,0.0
1752,74.0,0.0,40.0,2.0,0.0
1753,74.0,0.0,40.0,3.0,0.0
1754,65.0,0.0,40.0,4.0,0.0
1755,65.0,2.0,40.0,6.0,0.0
1756,81.0,24.0,20.0,1.0,0.0
1757,81.0,0.0,20.0,5.0,0.0
1758,77.0,22.0,20.0,1.0,0.0
1759,62.0,0.0,40.0,4.0,0.0
1760,77.0,0.0,20.0,5.0,0.0
1761,62.0,2.0,40.0,6.0,0.0
1762,73.0,0.0,20.0,1.0,0.0
1763,73.0,17.0,20.0,5.0,0.0
1764,74.0,16.0,15.0,1.0,0.0
1765,69.0,0.0,40.0,2.0,0.0
1766,62.0,0.0,40.0,3.0,0.0
1767,53.0,0.0,40.0,4.0,0.0
1768,74.0,0.0,15.0,5.0,0.0
1769,53.0,3.0,40.0,6.0,0.0
1770,75.0,13.0,15.0,1.0,0.0
1771,75.0,0.0,15.0,5.0,0.0
1772,73.0,23.0,15.0,1.0,0.0
1773,73.0,0.0,15.0,5.0,0.0
1774,74.0,22.0,60.0,1.0,0.0
1775,77.0,0.0,20.0,2.0,0.0
1776,69.0,0.0,20.0,3.0,0.0
1777,62.0,24.0,20.0,4.0,0.0
1778,74.0,0.0,60.0,5.0,0.0
1779,62.0,0.0,20.0,6.0,0.0
1780,76.0,0.0,20.0,2.0,0.0
1781,67.0,0.0,20.0,3.0,0.0
1782,64.0,24.0,20.0,4.0,0.0
1783,64.0,0.0,20.0,6.0,0.0
1784,74.0,0.0,40.0,2.0,0.0
1785,69.0,0.0,40.0,3.0,0.0
1786,65.0,0.0,40.0,4.0,0.0
1787,65.0,2.0,40.0,6.0,0.0
1788,81.0,24.0,20.0,1.0,0.0
1789,81.0,0.0,20.0,5.0,0.0
1790,77.0,22.0,20.0,1.0,0.0
1791,62.0,0.0,40.0,4.0,0.0
1792,77.0,0.0,20.0,5.0,0.0
1793,62.0,2.0,40.0,6.0,0.0
1794,74.0,0.0,20.0,1.0,0.0
1795,74.0,17.0,20.0,5.0,0.0
1796,82.0,16.0,15.0,1.0,0.0
1797,74.0,0.0,40.0,2.0,0.0
1798,67.0,3.0,40.0,3.0,0.0
1799,55.0,0.0,40.0,4.0,0.0
1800,82.0,0.0,40.0,5.0,0.0
1801,55.0,0.0,40.0,6.0,0.0
1802,79.0,13.0,15.0,1.0,0.0
1803,78.0,45.0,15.0,1.0,0.0
1804,79.0,0.0,40.0,1.0,0.0
1805,70.0,0.0,40.0,2.0,0.0
1806,62.0,0.0,40.0,3.0,0.0
1807,43.0,19.0,40.0,4.0,0.0
1808,79.0,0.0,40.0,5.0,0.0
1809,43.0,0.0,40.0,6.0,0.0
1810,82.0,16.0,15.0,5.0,0.0
1811,79.0,16.0,15.0,5.0,0.0
1812,78.0,45.0,15.0,5.0,0.0
1813,79.0,48.0,40.0,5.0,0.0
1814,72.0,0.0,40.0,1.0,0.0
1815,67.0,0.0,40.0,2.0,0.0
1816,64.0,0.0,40.0,3.0,0.0
1817,48.0,26.0,40.0,4.0,0.0
1818,72.0,0.0,40.0,5.0,0.0
1819,48.0,0.0,40.0,6.0,0.0
1820,72.0,22.0,60.0,1.0,0.0
1821,76.0,0.0,20.0,2.0,0.0
1822,67.0,0.0,20.0,3.0,0.0
1823,60.0,24.0,20.0,4.0,0.0
1824,72.0,0.0,60.0,5.0,0.0
1825,60.0,0.0,20.0,6.0,0.0
1826,74.0,0.0,20.0,2.0,0.0
1827,65.0,0.0,20.0,3.0,0.0
1828,62.0,24.0,20.0,4.0,0.0
1829,62.0,0.0,20.0,6.0,0.0
1830,72.0,0.0,40.0,2.0,0.0
1831,67.0,0.0,40.0,3.0,0.0
1832,64.0,0.0,40.0,4.0,0.0
1833,64.0,2.0,40.0,6.0,0.0
1834,79.0,24.0,20.0,1.0,0.0
1835,79.0,0.0,20.0,5.0,0.0
1836,76.0,22.0,20.0,1.0,0.0
1837,60.0,0.0,40.0,4.0,0.0
1838,76.0,0.0,20.0,5.0,0.0
1839,60.0,2.0,40.0,6.0,0.0
1840,71.0,0.0,20.0,1.0,0.0
1841,71.0,24.0,20.0,5.0,0.0
1842,72.0,22.0,20.0,1.0,0.0
1843,65.0,0.0,40.0,2.0,0.0
1844,60.0,0.0,40.0,3.0,0.0
1845,45.0,0.0,40.0,4.0,0.0
1846,72.0,0.0,20.0,5.0,0.0
1847,45.0,2.0,40.0,6.0,0.0
1848,71.0,24.0,20.0,1.0,0.0
1849,71.0,0.0,20.0,5.0,0.0
1850,72.0,22.0,60.0,1.0,0.0
1851,76.0,0.0,20.0,2.0,0.0
1852,72.0,0.0,20.0,3.0,0.0
1853,60.0,24.0,20.0,4.0,0.0
1854,72.0,0.0,60.0,5.0,0.0
1855,60.0,0.0,20.0,6.0,0.0
1856,74.0,0.0,20.0,2.0,0.0
1857,71.0,0.0,20.0,3.0,0.0
1858,62.0,24.0,20.0,4.0,0.0
1859,62.0,0.0,20.0,6.0,0.0
1860,72.0,0.0,40.0,2.0,0.0
1861,72.0,0.0,40.0,3.0,0.0
1862,64.0,0.0,40.0,4.0,0.0
1863,64.0,2.0,40.0,6.0,0.0
1864,79.0,24.0,20.0,1.0,0.0
1865,79.0,0.0,20.0,5.0,0.0
1866,76.0,22.0,20.0,1.0,0.0
1867,60.0,0.0,40.0,4.0,0.0
1868,76.0,0.0,20.0,5.0,0.0
1869,60.0,2.0,40.0,6.0,0.0
1870,71.0,0.0,20.0,1.0,0.0
1871,71.0,17.0,20.0,5.0,0.0
1872,72.0,16.0,15.0,1.0,0.0
1873,67.0,0.0,40.0,2.0,0.0
1874,60.0,0.0,40.0,3.0,0.0
1875,52.0,0.0,40.0,4.0,0.0
1876,72.0,0.0,15.0,5.0,0.0
1877,52.0,3.0,40.0,6.0,0.0
1878,74.0,13.0,15.0,1.0,0.0
1879,74.0,0.0,15.0,5.0,0.0
1880,71.0,23.0,15.0,1.0,0.0
1881,71.0,0.0,15.0,5.0,0.0
1882,72.0,22.0,60.0,1.0,0.0
1883,76.0,0.0,20.0,2.0,0.0
1884,67.0,0.0,20.0,3.0,0.0
1885,60.0,24.0,20.0,4.0,0.0
1886,72.0,0.0,60.0,5.0,0.0
1887,60.0,0.0,20.0,6.0,0.0
1888,74.0,0.0,20.0,2.0,0.0
1889,65.0,0.0,20.0,3.0,0.0
1890,62.0,24.0,20.0,4.0,0.0
1891,62.0,0.0,20.0,6.0,0.0
1892,72.0,0.0,40.0,2.0,0.0
1893,67.0,0.0,40.0,3.0,0.0
1894,64.0,0.0,40.0,4.0,0.0
1895,64.0,2.0,40.0,6.0,0.0
1896,79.0,24.0,20.0,1.0,0.0
1897,79.0,0.0,20.0,5.0,0.0
1898,76.0,22.0,20.0,1.0,0.0
1899,60.0,0.0,40.0,4.0,0.0
1900,76.0,0.0,20.0,5.0,0.0
1901,60.0,2.0,40.0,6.0,0.0
1902,72.0,0.0,20.0,1.0,0.0
1903,72.0,17.0,20.0,5.0,0.0
1904,81.0,16.0,15.0,1.0,0.0
1905,72.0,0.0,40.0,2.0,0.0
1906,65.0,3.0,40.0,3.0,0.0
1907,53.0,0.0,40.0,4.0,0.0
1908,81.0,0.0,40.0,5.0,0.0
1909,53.0,0.0,40.0,6.0,0.0
1910,77.0,13.0,15.0,1.0,0.0
1911,76.0,45.0,15.0,1.0,0.0
1912,77.0,0.0,40.0,1.0,0.0
1913,69.0,0.0,40.0,2.0,0.0
1914,60.0,0.0,40.0,3.0,0.0
1915,41.0,19.0,40.0,4.0,0.0
1916,77.0,0.0,40.0,5.0,0.0
1917,41.0,0.0,40.0,6.0,0.0
1918,81.0,16.0,15.0,5.0,0.0
1919,77.0,16.0,15.0,5.0,0.0
1920,76.0,64.0,15.0,5.0,0.0
1921,77.0,16.0,60.0,5.0,0.0
1922,77.0,10.0,360.0,1.0,0.0
1923,69.0,3.0,40.0,2.0,0.0
1924,65.0,0.0,40.0,3.0,0.0
1925,53.0,0.0,40.0,4.0,0.0
1926,53.0,0.0,40.0,6.0,0.0
1927,65.0,13.0,15.0,5.0,0.0
1928,64.0,16.0,15.0,5.0,0.0
1929,65.0,16.0,15.0,5.0,0.0
1930,67.0,16.0,15.0,5.0,0.0
1931,69.0,16.0,15.0,5.0,0.0
1932,70.0,3.0,40.0,2.0,0.0
1933,62.0,0.0,40.0,3.0,0.0
1934,55.0,0.0,40.0,4.0,0.0
1935,70.0,16.0,15.0,5.0,0.0
1936,55.0,0.0,40.0,6.0,0.0
1937,65.0,13.0,15.0,5.0,0.0
1938,64.0,16.0,15.0,5.0,0.0
1939,65.0,16.0,15.0,5.0,0.0
1940,69.0,16.0,15.0,5.0,0.0
1941,70.0,16.0,15.0,5.0,0.0
1942,72.0,3.0,40.0,2.0,0.0
1943,60.0,0.0,40.0,3.0,0.0
1944,57.0,0.0,40.0,4.0,0.0
1945,72.0,16.0,15.0,5.0,0.0
1946,57.0,0.0,40.0,6.0,0.0
1947,65.0,13.0,15.0,5.0,0.0
1948,64.0,16.0,15.0,5.0,0.0
1949,65.0,16.0,15.0,5.0,0.0
1950,70.0,16.0,15.0,5.0,0.0
1951,72.0,16.0,15.0,5.0,0.0
1952,74.0,3.0,40.0,2.0,0.0
1953,65.0,0.0,40.0,3.0,0.0
1954,58.0,0.0,40.0,4.0,0.0
1955,74.0,16.0,15.0,5.0,0.0
1956,58.0,0.0,40.0,6.0,0.0
1957,65.0,13.0,15.0,5.0,0.0
1958,64.0,16.0,15.0,5.0,0.0
1959,65.0,16.0,15.0,5.0,0.0
1960,72.0,6.0,15.0,5.0,0.0
1961,74.0,16.0,15.0,5.0,0.0
1962,76.0,3.0,40.0,1.0,0.0
1963,72.0,10.0,180.0,2.0,0.0
1964,67.0,0.0,40.0,3.0,0.0
1965,46.0,0.0,40.0,4.0,0.0
1966,76.0,16.0,15.0,5.0,0.0
1967,46.0,0.0,40.0,6.0,0.0
1968,72.0,13.0,15.0,5.0,0.0
1969,71.0,16.0,15.0,5.0,0.0
1970,72.0,16.0,15.0,5.0,0.0
1971,74.0,16.0,15.0,5.0,0.0
1972,76.0,16.0,15.0,5.0,0.0
1973,77.0,3.0,40.0,1.0,0.0
1974,69.0,0.0,40.0,3.0,0.0
1975,45.0,0.0,40.0,4.0,0.0
1976,77.0,16.0,15.0,5.0,0.0
1977,45.0,0.0,40.0,6.0,0.0
1978,72.0,13.0,15.0,5.0,0.0
1979,71.0,16.0,15.0,5.0,0.0
1980,72.0,16.0,15.0,5.0,0.0
1981,76.0,6.0,15.0,5.0,0.0
1982,77.0,16.0,15.0,5.0,0.0
1983,76.0,3.0,40.0,1.0,0.0
1984,73.0,6.0,90.0,2.0,0.0
1985,70.0,0.0,40.0,3.0,0.0
1986,43.0,0.0,40.0,4.0,0.0
1987,79.0,16.0,15.0,5.0,0.0
1988,43.0,0.0,40.0,6.0,0.0
1989,76.0,13.0,15.0,5.0,0.0
1990,74.0,16.0,15.0,5.0,0.0
1991,76.0,16.0,15.0,5.0,0.0
1992,77.0,10.0,15.0,5.0,0.0
1993,79.0,16.0,15.0,5.0,0.0
1994,81.0,3.0,40.0,1.0,0.0
1995,74.0,22.0,120.0,2.0,0.0
1996,69.0,0.0,40.0,3.0,0.0
1997,41.0,0.0,40.0,4.0,0.0
1998,81.0,16.0,15.0,5.0,0.0
1999,41.0,0.0,40.0,6.0,0.0
2000,74.0,13.0,15.0,5.0,0.0
2001,73.0,16.0,15.0,5.0,0.0
2002,74.0,16.0,15.0,5.0,0.0
2003,80.0,16.0,15.0,5.0,0.0
2004,81.0,23.0,15.0,5.0,0.0
2005,83.0,0.0,20.0,1.0,0.0
2006,68.0,0.0,40.0,3.0,0.0
2007,40.0,0.0,40.0,4.0,0.0
2008,83.0,0.0,20.0,5.0,0.0
2009,40.0,2.0,40.0,6.0,0.0
2010,81.0,0.0,20.0,1.0,0.0
2011,72.0,0.0,20.0,2.0,0.0
2012,81.0,24.0,20.0,5.0,0.0
2013,80.0,0.0,20.0,1.0,0.0
2014,71.0,0.0,20.0,2.0,0.0
2015,71.0,2.0,40.0,3.0,0.0
2016,52.0,0.0,20.0,4.0,0.0
2017,80.0,22.0,20.0,5.0,0.0
2018,52.0,0.0,20.0,6.0,0.0
2019,78.0,0.0,20.0,1.0,0.0
2020,69.0,0.0,20.0,2.0,0.0
2021,54.0,0.0,20.0,4.0,0.0
2022,78.0,46.0,20.0,5.0,0.0
2023,54.0,0.0,20.0,6.0,0.0
2024,76.0,0.0,40.0,1.0,0.0
2025,71.0,0.0,40.0,2.0,0.0
2026,76.0,0.0,40.0,3.0,0.0
2027,56.0,48.0,40.0,4.0,0.0
2028,76.0,0.0,40.0,5.0,0.0
2029,56.0,0.0,40.0,6.0,0.0
2030,74.0,0.0,40.0,1.0,0.0
2031,71.0,0.0,40.0,2.0,0.0
2032,68.0,0.0,40.0,3.0,0.0
2033,52.0,11.0,40.0,4.0,0.0
2034,74.0,0.0,40.0,5.0,0.0
2035,52.0,0.0,40.0,6.0,0.0
2036,72.0,2.0,20.0,1.0,0.0
2037,69.0,0.0,40.0,2.0,0.0
2038,64.0,0.0,40.0,3.0,0.0
2039,45.0,0.0,40.0,4.0,0.0
2040,72.0,6.0,15.0,5.0,0.0
2041,45.0,2.0,40.0,6.0,0.0
2042,74.0,9.0,15.0,5.0,0.0
2043,72.0,20.0,15.0,5.0,0.0
2044,71.0,24.0,20.0,1.0,0.0
2045,71.0,0.0,20.0,5.0,0.0
2046,72.0,0.0,60.0,1.0,0.0
2047,64.0,2.0,40.0,2.0,0.0
2048,69.0,0.0,20.0,3.0,0.0
2049,57.0,22.0,20.0,4.0,0.0
2050,72.0,22.0,60.0,5.0,0.0
2051,57.0,0.0,20.0,6.0,0.0
2052,71.0,0.0,20.0,3.0,0.0
2053,56.0,0.0,20.0,4.0,0.0
2054,56.0,24.0,20.0,6.0,0.0
2055,69.0,0.0,120.0,2.0,0.0
2056,72.0,0.0,40.0,3.0,0.0
2057,57.0,0.0,40.0,4.0,0.0
2058,57.0,2.0,40.0,6.0,0.0
2059,69.0,24.0,20.0,1.0,0.0
2060,69.0,0.0,20.0,5.0,0.0
2061,68.0,22.0,20.0,1.0,0.0
2062,64.0,0.0,40.0,3.0,0.0
2063,60.0,0.0,40.0,4.0,0.0
2064,68.0,0.0,20.0,5.0,0.0
2065,60.0,2.0,40.0,6.0,0.0
2066,69.0,24.0,20.0,1.0,0.0
2067,69.0,0.0,20.0,5.0,0.0
2068,75.0,22.0,20.0,1.0,0.0
2069,66.0,0.0,20.0,3.0,0.0
2070,47.0,0.0,40.0,4.0,0.0
2071,75.0,0.0,20.0,5.0,0.0
2072,47.0,2.0,40.0,6.0,0.0
2073,76.0,24.0,20.0,1.0,0.0
2074,67.0,0.0,20.0,2.0,0.0
2075,64.0,0.0,20.0,3.0,0.0
2076,76.0,0.0,20.0,5.0,0.0
2077,78.0,0.0,20.0,1.0,0.0
2078,66.0,0.0,20.0,2.0,0.0
2079,63.0,0.0,20.0,3.0,0.0
2080,63.0,24.0,20.0,4.0,0.0
2081,78.0,0.0,20.0,5.0,0.0
2082,63.0,0.0,20.0,6.0,0.0
2083,76.0,0.0,20.0,1.0,0.0
2084,67.0,0.0,20.0,2.0,0.0
2085,61.0,0.0,20.0,3.0,0.0
2086,64.0,24.0,20.0,4.0,0.0
2087,76.0,0.0,20.0,5.0,0.0
2088,64.0,0.0,20.0,6.0,0.0
2089,75.0,22.0,20.0,1.0,0.0
2090,69.0,0.0,40.0,2.0,0.0
2091,59.0,0.0,40.0,3.0,0.0
2092,66.0,0.0,40.0,4.0,0.0
2093,75.0,0.0,20.0,5.0,0.0
2094,66.0,2.0,40.0,6.0,0.0
2095,72.0,24.0,20.0,1.0,0.0
2096,72.0,0.0,20.0,5.0,0.0
2097,71.0,22.0,20.0,1.0,0.0
2098,66.0,0.0,40.0,2.0,0.0
2099,59.0,0.0,40.0,3.0,0.0
2100,63.0,0.0,40.0,4.0,0.0
2101,71.0,0.0,20.0,5.0,0.0
2102,63.0,2.0,40.0,6.0,0.0
2103,69.0,9.0,20.0,1.0,0.0
2104,69.0,0.0,20.0,5.0,0.0
2105,69.0,5.0,15.0,1.0,0.0
2106,66.0,0.0,15.0,2.0,0.0
2107,59.0,0.0,40.0,3.0,0.0
2108,64.0,0.0,40.0,4.0,0.0
2109,71.0,1.0,15.0,5.0,0.0
2110,64.0,2.0,40.0,6.0,0.0
2111,71.0,0.0,15.0,1.0,0.0
2112,67.0,6.0,15.0,2.0,0.0
2113,69.0,5.0,15.0,1.0,0.0
2114,66.0,0.0,15.0,2.0,0.0
2115,69.0,1.0,15.0,5.0,0.0
2116,71.0,0.0,15.0,1.0,0.0
2117,67.0,11.0,15.0,2.0,0.0
2118,69.0,0.0,20.0,1.0,0.0
2119,66.0,2.0,20.0,2.0,0.0
2120,71.0,8.0,15.0,5.0,0.0
2121,69.0,22.0,15.0,5.0,0.0
2122,68.0,0.0,40.0,1.0,0.0
2123,64.0,2.0,40.0,2.0,0.0
2124,59.0,0.0,40.0,3.0,0.0
2125,52.0,22.0,20.0,4.0,0.0
2126,68.0,22.0,60.0,5.0,0.0
2127,52.0,0.0,20.0,6.0,0.0
2128,53.0,24.0,20.0,4.0,0.0
2129,53.0,0.0,20.0,6.0,0.0
2130,52.0,2.0,40.0,4.0,0.0
2131,52.0,0.0,40.0,6.0,0.0
2132,76.0,24.0,20.0,5.0,0.0
2133,50.0,2.0,40.0,4.0,0.0
2134,78.0,22.0,20.0,5.0,0.0
2135,50.0,0.0,40.0,6.0,0.0
2136,80.0,46.0,20.0,5.0,0.0
2137,48.0,26.0,40.0,4.0,0.0
2138,81.0,0.0,40.0,5.0,0.0
2139,48.0,0.0,40.0,6.0,0.0
2140,81.0,0.0,20.0,1.0,0.0
2141,72.0,22.0,20.0,2.0,0.0
2142,69.0,0.0,20.0,3.0,0.0
2143,60.0,0.0,40.0,4.0,0.0
2144,81.0,22.0,60.0,5.0,0.0
2145,60.0,2.0,40.0,6.0,0.0
2146,80.0,0.0,20.0,1.0,0.0
2147,74.0,0.0,20.0,2.0,0.0
2148,71.0,24.0,20.0,3.0,0.0
2149,81.0,0.0,40.0,1.0,0.0
2150,76.0,2.0,40.0,2.0,0.0
2151,72.0,0.0,40.0,3.0,0.0
2152,60.0,0.0,40.0,6.0,0.0
2153,88.0,24.0,20.0,5.0,0.0
2154,76.0,0.0,40.0,1.0,0.0
2155,72.0,0.0,40.0,2.0,0.0
2156,69.0,0.0,40.0,3.0,0.0
2157,48.0,0.0,40.0,4.0,0.0
2158,84.0,22.0,20.0,5.0,0.0
2159,48.0,2.0,40.0,6.0,0.0
2160,80.0,24.0,20.0,5.0,0.0
2161,50.0,2.0,40.0,4.0,0.0
2162,81.0,22.0,20.0,5.0,0.0
2163,50.0,0.0,40.0,6.0,0.0
2164,80.0,24.0,20.0,5.0,0.0
2165,81.0,0.0,20.0,1.0,0.0
2166,72.0,22.0,20.0,2.0,0.0
2167,69.0,0.0,20.0,3.0,0.0
2168,62.0,0.0,40.0,4.0,0.0
2169,81.0,22.0,60.0,5.0,0.0
2170,62.0,2.0,40.0,6.0,0.0
2171,80.0,0.0,20.0,1.0,0.0
2172,74.0,0.0,20.0,2.0,0.0
2173,71.0,24.0,20.0,3.0,0.0
2174,81.0,0.0,40.0,1.0,0.0
2175,76.0,2.0,40.0,2.0,0.0
2176,72.0,0.0,40.0,3.0,0.0
2177,62.0,0.0,40.0,6.0,0.0
2178,88.0,24.0,20.0,5.0,0.0
2179,76.0,0.0,40.0,1.0,0.0
2180,81.0,0.0,40.0,2.0,0.0
2181,69.0,0.0,40.0,3.0,0.0
2182,50.0,0.0,40.0,4.0,0.0
2183,84.0,22.0,20.0,5.0,0.0
2184,50.0,2.0,40.0,6.0,0.0
2185,80.0,17.0,20.0,5.0,0.0
2186,52.0,3.0,40.0,4.0,0.0
2187,81.0,16.0,15.0,5.0,0.0
2188,52.0,0.0,40.0,6.0,0.0
2189,83.0,13.0,15.0,5.0,0.0
2190,80.0,23.0,15.0,5.0,0.0
2191,81.0,0.0,20.0,1.0,0.0
2192,72.0,22.0,20.0,2.0,0.0
2193,69.0,0.0,20.0,3.0,0.0
2194,64.0,0.0,40.0,4.0,0.0
2195,81.0,22.0,60.0,5.0,0.0
2196,64.0,2.0,40.0,6.0,0.0
2197,80.0,0.0,20.0,1.0,0.0
2198,74.0,0.0,20.0,2.0,0.0
2199,71.0,24.0,20.0,3.0,0.0
2200,81.0,0.0,40.0,1.0,0.0
2201,76.0,2.0,40.0,2.0,0.0
2202,72.0,0.0,40.0,3.0,0.0
2203,64.0,0.0,40.0,6.0,0.0
2204,88.0,24.0,20.0,5.0,0.0
2205,76.0,0.0,40.0,1.0,0.0
2206,81.0,0.0,40.0,2.0,0.0
2207,69.0,0.0,40.0,3.0,0.0
2208,52.0,0.0,40.0,4.0,0.0
2209,84.0,22.0,20.0,5.0,0.0
2210,52.0,2.0,40.0,6.0,0.0
2211,81.0,17.0,20.0,5.0,0.0
2212,53.0,3.0,40.0,4.0,0.0
2213,86.0,16.0,15.0,5.0,0.0
2214,53.0,0.0,40.0,6.0,0.0
2215,84.0,13.0,15.0,5.0,0.0
2216,82.0,16.0,15.0,5.0,0.0
2217,81.0,16.0,15.0,5.0,0.0
2218,57.0,3.0,40.0,6.0,0.0
2219,79.0,13.0,15.0,5.0,0.0
2220,77.0,16.0,15.0,5.0,0.0
2221,79.0,16.0,15.0,5.0,0.0
2222,62.0,3.0,40.0,6.0,0.0
2223,77.0,13.0,15.0,5.0,0.0
2224,76.0,16.0,15.0,5.0,0.0
2225,77.0,16.0,15.0,5.0,0.0
2226,59.0,3.0,40.0,6.0,0.0
2227,76.0,13.0,15.0,5.0,0.0
2228,74.0,16.0,15.0,5.0,0.0
2229,83.0,16.0,15.0,5.0,0.0
2230,56.0,3.0,40.0,6.0,0.0
2231,81.0,13.0,15.0,5.0,0.0
2232,80.0,16.0,15.0,5.0,0.0
2233,77.0,16.0,15.0,5.0,0.0
2234,59.0,3.0,40.0,6.0,0.0
2235,76.0,13.0,15.0,5.0,0.0
2236,74.0,16.0,15.0,5.0,0.0
2237,76.0,16.0,15.0,5.0,0.0
2238,56.0,3.0,40.0,6.0,0.0
2239,74.0,13.0,15.0,5.0,0.0
2240,72.0,16.0,15.0,5.0,0.0
2241,74.0,16.0,15.0,5.0,0.0
2242,52.0,3.0,40.0,6.0,0.0
2243,72.0,13.0,15.0,5.0,0.0
2244,71.0,16.0,15.0,5.0,0.0
2245,69.0,0.0,270.0,1.0,0.0
2246,69.0,0.0,270.0,2.0,0.0
2247,69.0,3.0,270.0,3.0,0.0
2248,45.0,3.0,40.0,4.0,0.0
2249,72.0,16.0,15.0,5.0,0.0
2250,45.0,0.0,40.0,6.0,0.0
2251,81.0,13.0,15.0,5.0,0.0
2252,83.0,16.0,15.0,5.0,0.0
2253,84.0,16.0,15.0,5.0,0.0
2254,45.0,3.0,40.0,6.0,0.0
2255,83.0,13.0,15.0,5.0,0.0
2256,81.0,16.0,15.0,5.0,0.0
2257,47.0,3.0,40.0,4.0,0.0
2258,74.0,16.0,15.0,5.0,0.0
2259,47.0,0.0,40.0,6.0,0.0
2260,81.0,13.0,15.0,5.0,0.0
2261,83.0,16.0,15.0,5.0,0.0
2262,84.0,16.0,15.0,5.0,0.0
2263,47.0,3.0,40.0,6.0,0.0
2264,83.0,13.0,15.0,5.0,0.0
2265,81.0,16.0,15.0,5.0,0.0
2266,48.0,3.0,40.0,4.0,0.0
2267,76.0,16.0,15.0,5.0,0.0
2268,48.0,0.0,40.0,6.0,0.0
2269,81.0,13.0,15.0,5.0,0.0
2270,83.0,16.0,15.0,5.0,0.0
2271,84.0,16.0,15.0,5.0,0.0
2272,48.0,3.0,40.0,6.0,0.0
2273,83.0,10.0,15.0,5.0,0.0
2274,81.0,16.0,15.0,5.0,0.0
2275,77.0,0.0,180.0,1.0,0.0
2276,74.0,3.0,180.0,2.0,0.0
2277,50.0,3.0,40.0,4.0,0.0
2278,77.0,16.0,15.0,5.0,0.0
2279,50.0,0.0,40.0,6.0,0.0
2280,81.0,13.0,15.0,5.0,0.0
2281,83.0,16.0,15.0,5.0,0.0
2282,84.0,16.0,15.0,5.0,0.0
2283,50.0,3.0,40.0,6.0,0.0
2284,83.0,13.0,15.0,5.0,0.0
2285,81.0,16.0,15.0,5.0,0.0
2286,71.0,7.0,180.0,3.0,0.0
2287,43.0,3.0,40.0,4.0,0.0
2288,83.0,16.0,15.0,5.0,0.0
2289,43.0,0.0,40.0,6.0,0.0
2290,77.0,13.0,15.0,5.0,0.0
2291,76.0,16.0,15.0,5.0,0.0
2292,74.0,16.0,15.0,5.0,0.0
2293,43.0,3.0,40.0,6.0,0.0
2294,76.0,10.0,15.0,5.0,0.0
2295,77.0,16.0,15.0,5.0,0.0
2296,76.0,0.0,180.0,1.0,0.0
2297,72.0,0.0,180.0,2.0,0.0
2298,48.0,3.0,40.0,4.0,0.0
2299,76.0,16.0,15.0,5.0,0.0
2300,48.0,0.0,40.0,6.0,0.0
2301,80.0,13.0,15.0,5.0,0.0
2302,81.0,16.0,15.0,5.0,0.0
2303,83.0,16.0,15.0,5.0,0.0
2304,48.0,3.0,40.0,6.0,0.0
2305,81.0,6.0,15.0,5.0,0.0
2306,80.0,16.0,15.0,5.0,0.0
2307,69.0,3.0,90.0,3.0,0.0
2308,42.0,3.0,40.0,4.0,0.0
2309,81.0,16.0,15.0,5.0,0.0
2310,42.0,0.0,40.0,6.0,0.0
2311,76.0,13.0,15.0,5.0,0.0
2312,74.0,16.0,15.0,5.0,0.0
2313,72.0,16.0,15.0,5.0,0.0
2314,42.0,3.0,40.0,6.0,0.0
2315,74.0,10.0,15.0,5.0,0.0
2316,76.0,16.0,15.0,5.0,0.0
2317,75.0,0.0,90.0,1.0,0.0
2318,71.0,0.0,40.0,2.0,0.0
2319,57.0,3.0,90.0,3.0,0.0
2320,41.0,3.0,40.0,4.0,0.0
2321,75.0,16.0,15.0,5.0,0.0
2322,41.0,0.0,40.0,6.0,0.0
2323,81.0,13.0,15.0,5.0,0.0
2324,83.0,16.0,15.0,5.0,0.0
2325,69.0,3.0,40.0,2.0,0.0
2326,84.0,16.0,15.0,5.0,0.0
2327,41.0,0.0,40.0,6.0,0.0
2328,83.0,10.0,15.0,5.0,0.0
2329,81.0,16.0,15.0,5.0,0.0
2330,76.0,0.0,360.0,1.0,0.0
2331,71.0,4.0,180.0,2.0,0.0
2332,64.0,5.0,90.0,3.0,0.0
2333,40.0,0.0,1140.0,4.0,0.0
2334,80.0,16.0,15.0,5.0,0.0
2335,40.0,3.0,40.0,6.0,0.0
2336,76.0,13.0,15.0,5.0,0.0
2337,80.0,16.0,15.0,5.0,0.0
2338,83.0,7.0,15.0,5.0,0.0
2339,56.0,9.0,20.0,6.0,0.0
2340,80.0,10.0,15.0,5.0,0.0
2341,57.0,1.0,20.0,6.0,0.0
2342,83.0,16.0,15.0,5.0,0.0
2343,68.0,3.0,90.0,3.0,0.0
2344,86.0,16.0,15.0,5.0,0.0
2345,59.0,3.0,40.0,6.0,0.0
2346,83.0,13.0,15.0,5.0,0.0
2347,86.0,16.0,15.0,5.0,0.0
2348,89.0,16.0,15.0,5.0,0.0
2349,56.0,3.0,40.0,6.0,0.0
2350,88.0,6.0,15.0,5.0,0.0
2351,86.0,16.0,15.0,5.0,0.0
2352,72.0,7.0,180.0,2.0,0.0
2353,69.0,0.0,180.0,3.0,0.0
2354,88.0,16.0,15.0,5.0,0.0
2355,40.0,3.0,40.0,6.0,0.0
2356,84.0,13.0,15.0,5.0,0.0
2357,81.0,16.0,15.0,5.0,0.0
2358,76.0,7.0,15.0,5.0,0.0
2359,57.0,9.0,20.0,6.0,0.0
2360,72.0,15.0,15.0,5.0,0.0
2361,59.0,1.0,20.0,6.0,0.0
2362,76.0,16.0,15.0,5.0,0.0
2363,81.0,16.0,15.0,5.0,0.0
2364,60.0,3.0,40.0,6.0,0.0
2365,76.0,13.0,15.0,5.0,0.0
2366,81.0,16.0,15.0,5.0,0.0
2367,84.0,16.0,15.0,5.0,0.0
2368,57.0,3.0,40.0,6.0,0.0
2369,81.0,6.0,15.0,5.0,0.0
2370,84.0,16.0,15.0,5.0,0.0
2371,77.0,0.0,180.0,1.0,0.0
2372,71.0,7.0,180.0,2.0,0.0
2373,68.0,0.0,180.0,3.0,0.0
2374,86.0,16.0,15.0,5.0,0.0
2375,40.0,3.0,40.0,6.0,0.0
2376,83.0,13.0,15.0,5.0,0.0
2377,80.0,16.0,15.0,5.0,0.0
2378,74.0,7.0,15.0,5.0,0.0
2379,59.0,9.0,20.0,6.0,0.0
2380,71.0,15.0,15.0,5.0,0.0
2381,60.0,1.0,20.0,6.0,0.0
2382,74.0,16.0,15.0,5.0,0.0
2383,80.0,16.0,15.0,5.0,0.0
2384,62.0,3.0,40.0,6.0,0.0
2385,74.0,13.0,15.0,5.0,0.0
2386,80.0,16.0,15.0,5.0,0.0
2387,83.0,16.0,15.0,5.0,0.0
2388,59.0,3.0,40.0,6.0,0.0
2389,81.0,6.0,15.0,5.0,0.0
2390,80.0,16.0,15.0,5.0,0.0
2391,76.0,7.0,180.0,1.0,0.0
2392,72.0,0.0,360.0,2.0,0.0
2393,69.0,0.0,180.0,3.0,0.0
2394,84.0,16.0,15.0,5.0,0.0
2395,40.0,3.0,40.0,6.0,0.0
2396,81.0,13.0,15.0,5.0,0.0
2397,76.0,16.0,15.0,5.0,0.0
2398,72.0,7.0,15.0,5.0,0.0
2399,57.0,9.0,20.0,6.0,0.0
2400,69.0,15.0,15.0,5.0,0.0
2401,59.0,1.0,20.0,6.0,0.0
2402,72.0,16.0,15.0,5.0,0.0
2403,76.0,16.0,15.0,5.0,0.0
2404,60.0,3.0,40.0,6.0,0.0
2405,72.0,13.0,15.0,5.0,0.0
2406,76.0,16.0,15.0,5.0,0.0
2407,81.0,16.0,15.0,5.0,0.0
2408,57.0,3.0,40.0,6.0,0.0
2409,83.0,6.0,15.0,5.0,0.0
2410,84.0,16.0,15.0,5.0,0.0
2411,81.0,7.0,180.0,1.0,0.0
2412,57.0,0.0,180.0,3.0,0.0
2413,75.0,16.0,15.0,5.0,0.0
2414,40.0,3.0,40.0,6.0,0.0
2415,81.0,13.0,15.0,5.0,0.0
2416,84.0,16.0,15.0,5.0,0.0
2417,84.0,7.0,15.0,5.0,0.0
2418,63.0,9.0,20.0,6.0,0.0
2419,81.0,15.0,15.0,5.0,0.0
2420,64.0,1.0,20.0,6.0,0.0
2421,75.0,16.0,15.0,5.0,0.0
2422,75.0,16.0,15.0,5.0,0.0
2423,66.0,3.0,40.0,6.0,0.0
2424,81.0,13.0,15.0,5.0,0.0
2425,84.0,16.0,15.0,5.0,0.0
2426,84.0,16.0,15.0,5.0,0.0
2427,63.0,3.0,40.0,6.0,0.0
2428,81.0,6.0,15.0,5.0,0.0
2429,75.0,16.0,15.0,5.0,0.0
2430,80.0,0.0,180.0,1.0,0.0
2431,71.0,7.0,180.0,2.0,0.0
2432,64.0,0.0,180.0,3.0,0.0
2433,74.0,16.0,15.0,5.0,0.0
2434,40.0,3.0,40.0,6.0,0.0
2435,80.0,13.0,15.0,5.0,0.0
2436,81.0,16.0,15.0,5.0,0.0
2437,83.0,7.0,15.0,5.0,0.0
2438,64.0,9.0,20.0,6.0,0.0
2439,80.0,15.0,15.0,5.0,0.0
2440,66.0,1.0,20.0,6.0,0.0
2441,74.0,16.0,15.0,5.0,0.0
2442,74.0,16.0,15.0,5.0,0.0
2443,68.0,3.0,40.0,6.0,0.0
2444,80.0,13.0,15.0,5.0,0.0
2445,81.0,16.0,15.0,5.0,0.0
2446,83.0,16.0,15.0,5.0,0.0
2447,64.0,3.0,40.0,6.0,0.0
2448,80.0,6.0,15.0,5.0,0.0
2449,74.0,16.0,15.0,5.0,0.0
2450,76.0,16.0,15.0,5.0,0.0
2451,60.0,3.0,40.0,6.0,0.0
2452,72.0,13.0,15.0,5.0,0.0
2453,71.0,16.0,15.0,5.0,0.0
2454,69.0,16.0,15.0,5.0,0.0
2455,48.0,3.0,40.0,6.0,0.0
2456,68.0,13.0,15.0,5.0,0.0
2457,69.0,16.0,15.0,5.0,0.0
2458,78.0,16.0,15.0,5.0,0.0
2459,50.0,3.0,40.0,6.0,0.0
2460,72.0,13.0,15.0,5.0,0.0
2461,71.0,16.0,15.0,5.0,0.0
2462,69.0,16.0,15.0,5.0,0.0
2463,62.0,3.0,40.0,6.0,0.0
2464,68.0,13.0,15.0,5.0,0.0
2465,69.0,16.0,15.0,5.0,0.0
2466,80.0,16.0,15.0,5.0,0.0
2467,64.0,3.0,40.0,6.0,0.0
2468,72.0,13.0,15.0,5.0,0.0
2469,71.0,16.0,15.0,5.0,0.0
2470,69.0,16.0,15.0,5.0,0.0
2471,52.0,3.0,40.0,6.0,0.0
2472,68.0,13.0,15.0,5.0,0.0
2473,69.0,16.0,15.0,5.0,0.0
2474,81.0,16.0,15.0,5.0,0.0
2475,53.0,3.0,40.0,6.0,0.0
2476,77.0,13.0,15.0,5.0,0.0
2477,76.0,16.0,15.0,5.0,0.0
2478,74.0,16.0,15.0,5.0,0.0
2479,65.0,3.0,40.0,6.0,0.0
2480,73.0,13.0,15.0,5.0,0.0
2481,74.0,13.0,15.0,5.0,0.0
2482,74.0,0.0,40.0,1.0,0.0
2483,68.0,0.0,40.0,2.0,0.0
2484,71.0,0.0,40.0,3.0,0.0
2485,47.0,0.0,40.0,4.0,0.0
2486,88.0,12.0,15.0,5.0,0.0
2487,47.0,4.0,40.0,6.0,0.0
2488,86.0,12.0,15.0,5.0,0.0
2489,88.0,8.0,15.0,5.0,0.0
2490,86.0,12.0,15.0,5.0,0.0
2491,74.0,2.0,60.0,1.0,0.0
2492,77.0,0.0,20.0,2.0,0.0
2493,68.0,0.0,20.0,3.0,0.0
2494,62.0,0.0,20.0,4.0,0.0
2495,88.0,10.0,15.0,5.0,0.0
2496,62.0,2.0,20.0,6.0,0.0
2497,86.0,12.0,15.0,5.0,0.0
2498,76.0,0.0,20.0,2.0,0.0
2499,69.0,0.0,20.0,3.0,0.0
2500,64.0,0.0,20.0,4.0,0.0
2501,88.0,10.0,15.0,5.0,0.0
2502,64.0,2.0,20.0,6.0,0.0
2503,86.0,12.0,15.0,5.0,0.0
2504,74.0,0.0,40.0,2.0,0.0
2505,71.0,0.0,40.0,3.0,0.0
2506,65.0,2.0,40.0,4.0,0.0
2507,88.0,10.0,15.0,5.0,0.0
2508,65.0,0.0,40.0,6.0,0.0
2509,86.0,12.0,15.0,5.0,0.0
2510,81.0,2.0,20.0,1.0,0.0
2511,88.0,8.0,15.0,5.0,0.0
2512,86.0,12.0,15.0,5.0,0.0
2513,77.0,2.0,20.0,1.0,0.0
2514,62.0,2.0,40.0,4.0,0.0
2515,88.0,10.0,15.0,5.0,0.0
2516,62.0,0.0,40.0,6.0,0.0
2517,86.0,12.0,15.0,5.0,0.0
2518,74.0,17.0,20.0,1.0,0.0
2519,88.0,8.0,15.0,5.0,0.0
2520,86.0,7.0,20.0,5.0,0.0
2521,80.0,9.0,20.0,1.0,0.0
2522,71.0,0.0,40.0,2.0,0.0
2523,64.0,0.0,40.0,3.0,0.0
2524,52.0,0.0,40.0,4.0,0.0
2525,52.0,2.0,40.0,6.0,0.0
2526,83.0,13.0,15.0,5.0,0.0
2527,78.0,1.0,20.0,1.0,0.0
2528,81.0,16.0,15.0,5.0,0.0
2529,80.0,0.0,40.0,1.0,0.0
2530,76.0,3.0,40.0,2.0,0.0
2531,71.0,0.0,40.0,3.0,0.0
2532,64.0,0.0,40.0,4.0,0.0
2533,80.0,16.0,15.0,5.0,0.0
2534,64.0,0.0,40.0,6.0,0.0
2535,78.0,13.0,15.0,5.0,0.0
2536,76.0,16.0,15.0,5.0,0.0
2537,75.0,16.0,15.0,5.0,0.0
2538,76.0,16.0,15.0,5.0,0.0
2539,80.0,16.0,15.0,5.0,0.0
2540,83.0,16.0,15.0,5.0,0.0
2541,84.0,16.0,15.0,5.0,0.0
2542,86.0,13.0,15.0,5.0,0.0
2543,69.0,0.0,40.0,1.0,0.0
2544,64.0,0.0,40.0,2.0,0.0
2545,57.0,0.0,40.0,3.0,0.0
2546,45.0,0.0,40.0,4.0,0.0
2547,86.0,12.0,15.0,5.0,0.0
2548,45.0,4.0,40.0,6.0,0.0
2549,84.0,12.0,15.0,5.0,0.0
2550,86.0,8.0,15.0,5.0,0.0
2551,84.0,12.0,15.0,5.0,0.0
2552,69.0,2.0,60.0,1.0,0.0
2553,72.0,0.0,20.0,2.0,0.0
2554,64.0,0.0,20.0,3.0,0.0
2555,57.0,0.0,20.0,4.0,0.0
2556,86.0,10.0,15.0,5.0,0.0
2557,57.0,2.0,20.0,6.0,0.0
2558,84.0,12.0,15.0,5.0,0.0
2559,71.0,0.0,20.0,2.0,0.0
2560,62.0,0.0,20.0,3.0,0.0
2561,59.0,0.0,20.0,4.0,0.0
2562,86.0,10.0,15.0,5.0,0.0
2563,59.0,2.0,20.0,6.0,0.0
2564,84.0,12.0,15.0,5.0,0.0
2565,69.0,0.0,40.0,2.0,0.0
2566,64.0,0.0,40.0,3.0,0.0
2567,60.0,2.0,40.0,4.0,0.0
2568,86.0,10.0,15.0,5.0,0.0
2569,60.0,0.0,40.0,6.0,0.0
2570,84.0,12.0,15.0,5.0,0.0
2571,76.0,2.0,20.0,1.0,0.0
2572,86.0,8.0,15.0,5.0,0.0
2573,84.0,12.0,15.0,5.0,0.0
2574,72.0,2.0,20.0,1.0,0.0
2575,57.0,2.0,40.0,4.0,0.0
2576,86.0,10.0,15.0,5.0,0.0
2577,57.0,0.0,40.0,6.0,0.0
2578,84.0,12.0,15.0,5.0,0.0
2579,69.0,17.0,20.0,1.0,0.0
2580,86.0,8.0,15.0,5.0,0.0
2581,84.0,7.0,20.0,5.0,0.0
2582,77.0,9.0,20.0,1.0,0.0
2583,69.0,0.0,40.0,2.0,0.0
2584,62.0,0.0,40.0,3.0,0.0
2585,50.0,0.0,40.0,4.0,0.0
2586,50.0,2.0,40.0,6.0,0.0
2587,86.0,13.0,15.0,5.0,0.0
2588,76.0,1.0,20.0,1.0,0.0
2589,84.0,16.0,15.0,5.0,0.0
2590,77.0,0.0,40.0,1.0,0.0
2591,62.0,3.0,40.0,2.0,0.0
2592,65.0,0.0,40.0,3.0,0.0
2593,62.0,0.0,40.0,4.0,0.0
2594,82.0,16.0,15.0,5.0,0.0
2595,62.0,0.0,40.0,6.0,0.0
2596,84.0,13.0,15.0,5.0,0.0
2597,81.0,16.0,15.0,5.0,0.0
2598,82.0,16.0,15.0,5.0,0.0
2599,86.0,16.0,15.0,5.0,0.0
2600,88.0,16.0,15.0,5.0,0.0
2601,89.0,16.0,15.0,5.0,0.0
2602,86.0,16.0,15.0,5.0,0.0
2603,82.0,16.0,15.0,5.0,0.0
2604,80.0,16.0,15.0,5.0,0.0
2605,50.0,3.0,40.0,6.0,0.0
2606,83.0,13.0,15.0,5.0,0.0
2607,84.0,16.0,15.0,5.0,0.0
2608,86.0,16.0,15.0,5.0,0.0
2609,59.0,3.0,40.0,6.0,0.0
2610,83.0,13.0,15.0,5.0,0.0
2611,80.0,16.0,15.0,5.0,0.0
2612,76.0,16.0,15.0,5.0,0.0
2613,77.0,16.0,15.0,5.0,0.0
2614,76.0,16.0,15.0,5.0,0.0
2615,74.0,16.0,15.0,5.0,0.0
2616,72.0,16.0,15.0,5.0,0.0
2617,71.0,45.0,15.0,5.0,0.0
2618,69.0,0.0,40.0,1.0,0.0
2619,64.0,0.0,40.0,2.0,0.0
2620,57.0,0.0,40.0,3.0,0.0
2621,48.0,26.0,40.0,4.0,0.0
2622,69.0,0.0,40.0,5.0,0.0
2623,48.0,0.0,40.0,6.0,0.0
2624,69.0,22.0,60.0,1.0,0.0
2625,72.0,0.0,20.0,2.0,0.0
2626,64.0,0.0,20.0,3.0,0.0
2627,57.0,24.0,20.0,4.0,0.0
2628,69.0,0.0,60.0,5.0,0.0
2629,57.0,0.0,20.0,6.0,0.0
2630,71.0,0.0,20.0,2.0,0.0
2631,62.0,0.0,20.0,3.0,0.0
2632,59.0,24.0,20.0,4.0,0.0
2633,59.0,0.0,20.0,6.0,0.0
2634,69.0,0.0,40.0,2.0,0.0
2635,64.0,0.0,40.0,3.0,0.0
2636,60.0,0.0,40.0,4.0,0.0
2637,60.0,2.0,40.0,6.0,0.0
2638,76.0,24.0,20.0,1.0,0.0
2639,76.0,0.0,20.0,5.0,0.0
2640,72.0,22.0,20.0,1.0,0.0
2641,57.0,0.0,40.0,4.0,0.0
2642,72.0,0.0,20.0,5.0,0.0
2643,57.0,2.0,40.0,6.0,0.0
2644,68.0,0.0,20.0,1.0,0.0
2645,68.0,24.0,20.0,5.0,0.0
2646,69.0,22.0,20.0,1.0,0.0
2647,62.0,0.0,40.0,2.0,0.0
2648,57.0,0.0,40.0,3.0,0.0
2649,53.0,0.0,40.0,4.0,0.0
2650,69.0,0.0,20.0,5.0,0.0
2651,53.0,2.0,40.0,6.0,0.0
2652,68.0,24.0,20.0,1.0,0.0
2653,68.0,0.0,20.0,5.0,0.0
2654,69.0,22.0,60.0,1.0,0.0
2655,72.0,0.0,20.0,2.0,0.0
2656,69.0,0.0,20.0,3.0,0.0
2657,57.0,24.0,20.0,4.0,0.0
2658,69.0,0.0,60.0,5.0,0.0
2659,57.0,0.0,20.0,6.0,0.0
2660,71.0,0.0,20.0,2.0,0.0
2661,68.0,0.0,20.0,3.0,0.0
2662,59.0,24.0,20.0,4.0,0.0
2663,59.0,0.0,20.0,6.0,0.0
2664,69.0,0.0,40.0,2.0,0.0
2665,69.0,0.0,40.0,3.0,0.0
2666,60.0,0.0,40.0,4.0,0.0
2667,60.0,2.0,40.0,6.0,0.0
2668,76.0,24.0,20.0,1.0,0.0
2669,76.0,0.0,20.0,5.0,0.0
2670,72.0,22.0,20.0,1.0,0.0
2671,57.0,0.0,40.0,4.0,0.0
2672,72.0,0.0,20.0,5.0,0.0
2673,57.0,2.0,40.0,6.0,0.0
2674,69.0,0.0,20.0,1.0,0.0
2675,69.0,17.0,20.0,5.0,0.0
2676,77.0,0.0,40.0,1.0,0.0
2677,74.0,3.0,40.0,2.0,0.0
2678,69.0,0.0,40.0,3.0,0.0
2679,50.0,0.0,40.0,4.0,0.0
2680,77.0,16.0,15.0,5.0,0.0
2681,50.0,0.0,40.0,6.0,0.0
2682,76.0,13.0,15.0,5.0,0.0
2683,74.0,16.0,15.0,5.0,0.0
2684,72.0,16.0,15.0,5.0,0.0
2685,74.0,16.0,15.0,5.0,0.0
2686,71.0,16.0,15.0,5.0,0.0
2687,80.0,0.0,40.0,1.0,0.0
2688,74.0,3.0,40.0,2.0,0.0
2689,64.0,0.0,40.0,3.0,0.0
2690,52.0,0.0,40.0,4.0,0.0
2691,80.0,16.0,15.0,5.0,0.0
2692,52.0,0.0,40.0,6.0,0.0
2693,77.0,13.0,15.0,5.0,0.0
2694,76.0,16.0,15.0,5.0,0.0
2695,74.0,16.0,15.0,5.0,0.0
2696,76.0,16.0,15.0,5.0,0.0
2697,72.0,16.0,15.0,5.0,0.0
2698,81.0,0.0,40.0,1.0,0.0
2699,74.0,3.0,40.0,2.0,0.0
2700,69.0,0.0,40.0,3.0,0.0
2701,53.0,0.0,40.0,4.0,0.0
2702,81.0,16.0,15.0,5.0,0.0
2703,53.0,0.0,40.0,6.0,0.0
2704,79.0,13.0,15.0,5.0,0.0
2705,77.0,16.0,15.0,5.0,0.0
2706,76.0,16.0,15.0,5.0,0.0
2707,77.0,16.0,15.0,5.0,0.0
2708,74.0,16.0,15.0,5.0,0.0
2709,83.0,0.0,40.0,1.0,0.0
2710,74.0,3.0,40.0,2.0,0.0
2711,64.0,0.0,40.0,3.0,0.0
2712,44.0,0.0,40.0,4.0,0.0
2713,83.0,16.0,15.0,5.0,0.0
2714,44.0,0.0,40.0,6.0,0.0
2715,81.0,13.0,15.0,5.0,0.0
2716,80.0,16.0,15.0,5.0,0.0
2717,77.0,16.0,15.0,5.0,0.0
2718,76.0,16.0,15.0,5.0,0.0
2719,74.0,16.0,15.0,5.0,0.0
2720,72.0,0.0,40.0,1.0,0.0
2721,69.0,3.0,40.0,2.0,0.0
2722,64.0,0.0,40.0,3.0,0.0
2723,45.0,0.0,40.0,4.0,0.0
2724,72.0,16.0,15.0,5.0,0.0
2725,45.0,0.0,40.0,6.0,0.0
2726,71.0,13.0,15.0,5.0,0.0
2727,69.0,16.0,15.0,5.0,0.0
2728,74.0,0.0,40.0,1.0,0.0
2729,68.0,3.0,40.0,2.0,0.0
2730,64.0,0.0,40.0,3.0,0.0
2731,47.0,0.0,40.0,4.0,0.0
2732,74.0,16.0,15.0,5.0,0.0
2733,47.0,0.0,40.0,6.0,0.0
2734,72.0,13.0,15.0,5.0,0.0
2735,71.0,16.0,15.0,5.0,0.0
2736,76.0,0.0,40.0,1.0,0.0
2737,69.0,3.0,40.0,2.0,0.0
2738,64.0,0.0,40.0,3.0,0.0
2739,48.0,0.0,40.0,4.0,0.0
2740,76.0,16.0,15.0,5.0,0.0
2741,48.0,0.0,40.0,6.0,0.0
2742,74.0,13.0,15.0,5.0,0.0
2743,72.0,16.0,15.0,5.0,0.0
2744,77.0,0.0,40.0,1.0,0.0
2745,62.0,3.0,40.0,2.0,0.0
2746,57.0,0.0,40.0,3.0,0.0
2747,50.0,0.0,40.0,4.0,0.0
2748,77.0,16.0,15.0,5.0,0.0
2749,50.0,0.0,40.0,6.0,0.0
2750,74.0,13.0,15.0,5.0,0.0
2751,71.0,16.0,15.0,5.0,0.0
2752,68.0,0.0,40.0,1.0,0.0
2753,59.0,3.0,40.0,2.0,0.0
2754,64.0,0.0,40.0,3.0,0.0
2755,40.0,0.0,40.0,4.0,0.0
2756,68.0,16.0,15.0,5.0,0.0
2757,40.0,0.0,40.0,6.0,0.0
2758,71.0,13.0,15.0,5.0,0.0
2759,74.0,23.0,15.0,5.0,0.0
2760,74.0,0.0,60.0,1.0,0.0
2761,68.0,0.0,20.0,2.0,0.0
2762,59.0,2.0,40.0,3.0,0.0
2763,52.0,22.0,20.0,4.0,0.0
2764,74.0,16.0,60.0,5.0,0.0
2765,52.0,0.0,20.0,6.0,0.0
2766,69.0,0.0,20.0,2.0,0.0
2767,54.0,0.0,20.0,4.0,0.0
2768,54.0,17.0,20.0,6.0,0.0
2769,71.0,0.0,40.0,2.0,0.0
2770,64.0,0.0,40.0,3.0,0.0
2771,56.0,0.0,40.0,4.0,0.0
2772,56.0,3.0,40.0,6.0,0.0
2773,71.0,13.0,15.0,1.0,0.0
2774,71.0,0.0,15.0,5.0,0.0
2775,72.0,16.0,15.0,1.0,0.0
2776,72.0,0.0,15.0,5.0,0.0
2777,74.0,16.0,15.0,1.0,0.0
2778,68.0,0.0,40.0,2.0,0.0
2779,64.0,0.0,40.0,3.0,0.0
2780,52.0,0.0,40.0,4.0,0.0
2781,74.0,0.0,15.0,5.0,0.0
2782,52.0,3.0,40.0,6.0,0.0
2783,72.0,13.0,15.0,1.0,0.0
2784,72.0,0.0,15.0,5.0,0.0
2785,71.0,16.0,15.0,1.0,0.0
2786,71.0,0.0,15.0,5.0,0.0
2787,72.0,0.0,40.0,1.0,0.0
2788,69.0,0.0,40.0,2.0,0.0
2789,64.0,2.0,40.0,3.0,0.0
2790,57.0,0.0,20.0,4.0,0.0
2791,72.0,7.0,15.0,5.0,0.0
2792,57.0,9.0,20.0,6.0,0.0
2793,77.0,13.0,15.0,5.0,0.0
2794,59.0,1.0,20.0,4.0,0.0
2795,59.0,0.0,20.0,6.0,0.0
2796,75.0,16.0,15.0,5.0,0.0
2797,88.0,0.0,40.0,1.0,0.0
2798,69.0,0.0,40.0,2.0,0.0
2799,64.0,2.0,40.0,3.0,0.0
2800,60.0,0.0,20.0,4.0,0.0
2801,76.0,7.0,15.0,5.0,0.0
2802,60.0,9.0,20.0,6.0,0.0
2803,68.0,13.0,15.0,5.0,0.0
2804,62.0,1.0,20.0,4.0,0.0
2805,62.0,0.0,20.0,6.0,0.0
2806,69.0,16.0,15.0,5.0,0.0
2807,76.0,0.0,40.0,1.0,0.0
2808,68.0,3.0,40.0,2.0,0.0
2809,64.0,0.0,40.0,3.0,0.0
2810,64.0,0.0,40.0,4.0,0.0
2811,74.0,16.0,15.0,5.0,0.0
2812,64.0,0.0,40.0,6.0,0.0
2813,72.0,13.0,15.0,5.0,0.0
2814,71.0,16.0,15.0,5.0,0.0
2815,80.0,3.0,40.0,1.0,0.0
2816,76.0,0.0,60.0,2.0,0.0
2817,62.0,0.0,40.0,3.0,0.0
2818,52.0,0.0,40.0,4.0,0.0
2819,72.0,16.0,15.0,5.0,0.0
2820,52.0,0.0,40.0,6.0,0.0
2821,71.0,13.0,15.0,5.0,0.0
2822,69.0,16.0,15.0,5.0,0.0
2823,81.0,0.0,15.0,1.0,0.0
2824,60.0,0.0,15.0,3.0,0.0
2825,57.0,16.0,15.0,4.0,0.0
2826,69.0,0.0,15.0,5.0,0.0
2827,57.0,0.0,15.0,6.0,0.0
2828,76.0,0.0,15.0,1.0,0.0
2829,76.0,0.0,15.0,2.0,0.0
2830,64.0,0.0,15.0,3.0,0.0
2831,52.0,16.0,15.0,4.0,0.0
2832,64.0,0.0,15.0,5.0,0.0
2833,52.0,0.0,15.0,6.0,0.0
2834,74.0,0.0,15.0,1.0,0.0
2835,74.0,0.0,15.0,2.0,0.0
2836,62.0,0.0,15.0,3.0,0.0
2837,50.0,16.0,15.0,4.0,0.0
2838,62.0,0.0,15.0,5.0,0.0
2839,50.0,0.0,15.0,6.0,0.0
2840,72.0,0.0,15.0,1.0,0.0
2841,72.0,0.0,15.0,2.0,0.0
2842,60.0,0.0,15.0,3.0,0.0
2843,48.0,16.0,15.0,4.0,0.0
2844,60.0,0.0,15.0,5.0,0.0
2845,48.0,0.0,15.0,6.0,0.0
2846,74.0,0.0,15.0,1.0,0.0
2847,74.0,0.0,15.0,2.0,0.0
2848,62.0,0.0,15.0,3.0,0.0
2849,50.0,16.0,15.0,4.0,0.0
2850,62.0,0.0,15.0,5.0,0.0
2851,50.0,0.0,15.0,6.0,0.0
2852,76.0,0.0,15.0,1.0,0.0
2853,76.0,0.0,15.0,2.0,0.0
2854,64.0,0.0,15.0,3.0,0.0
2855,52.0,186.0,15.0,4.0,0.0
2856,64.0,0.0,15.0,5.0,0.0
2857,52.0,0.0,15.0,6.0,0.0
2858,69.0,0.0,180.0,1.0,0.0
2859,69.0,0.0,180.0,2.0,0.0
2860,57.0,0.0,180.0,3.0,0.0
2861,45.0,307.0,180.0,4.0,0.0
2862,57.0,0.0,180.0,5.0,0.0
2863,45.0,0.0,180.0,6.0,0.0
2864,60.0,3.0,90.0,4.0,0.0
2865,76.0,12.0,15.0,5.0,0.0
2866,74.0,65.0,15.0,5.0,0.0
2867,76.0,22.0,90.0,5.0,0.0
2868,76.0,0.0,40.0,1.0,0.0
2869,72.0,0.0,40.0,2.0,0.0
2870,67.0,0.0,40.0,3.0,0.0
2871,60.0,26.0,40.0,6.0,0.0
2872,79.0,0.0,40.0,1.0,0.0
2873,76.0,2.0,40.0,2.0,0.0
2874,72.0,0.0,40.0,3.0,0.0
2875,48.0,0.0,40.0,6.0,0.0
2876,77.0,24.0,20.0,5.0,0.0
2877,60.0,2.0,40.0,4.0,0.0
2878,79.0,22.0,20.0,5.0,0.0
2879,60.0,0.0,40.0,6.0,0.0
2880,81.0,46.0,20.0,5.0,0.0
2881,59.0,3.0,90.0,4.0,0.0
2882,76.0,45.0,40.0,5.0,0.0
2883,74.0,0.0,40.0,1.0,0.0
2884,71.0,0.0,40.0,2.0,0.0
2885,67.0,0.0,40.0,3.0,0.0
2886,74.0,22.0,60.0,5.0,0.0
2887,59.0,26.0,40.0,6.0,0.0
2888,79.0,0.0,40.0,1.0,0.0
2889,74.0,2.0,40.0,2.0,0.0
2890,71.0,0.0,40.0,3.0,0.0
2891,47.0,0.0,40.0,6.0,0.0
2892,76.0,24.0,20.0,5.0,0.0
2893,59.0,2.0,40.0,4.0,0.0
2894,77.0,22.0,20.0,5.0,0.0
2895,59.0,0.0,40.0,6.0,0.0
2896,79.0,46.0,20.0,5.0,0.0
2897,57.0,3.0,90.0,4.0,0.0
2898,72.0,26.0,40.0,5.0,0.0
2899,72.0,0.0,40.0,1.0,0.0
2900,69.0,0.0,40.0,2.0,0.0
2901,64.0,0.0,40.0,3.0,0.0
2902,84.0,19.0,20.0,5.0,0.0
2903,57.0,2.0,40.0,6.0,0.0
2904,81.0,46.0,20.0,5.0,0.0
2905,77.0,0.0,40.0,1.0,0.0
2906,72.0,16.0,40.0,2.0,0.0
2907,69.0,0.0,40.0,3.0,0.0
2908,77.0,12.0,60.0,5.0,0.0
2909,45.0,0.0,40.0,6.0,0.0
2910,57.0,4.0,40.0,4.0,0.0
2911,57.0,0.0,40.0,6.0,0.0
2912,79.0,12.0,15.0,5.0,0.0
2913,77.0,8.0,15.0,5.0,0.0
2914,76.0,22.0,15.0,5.0,0.0
2915,55.0,3.0,90.0,4.0,0.0
2916,77.0,24.0,20.0,5.0,0.0
2917,86.0,24.0,20.0,5.0,0.0
2918,77.0,0.0,40.0,1.0,0.0
2919,74.0,0.0,40.0,2.0,0.0
2920,71.0,0.0,40.0,3.0,0.0
2921,83.0,19.0,20.0,5.0,0.0
2922,55.0,2.0,40.0,6.0,0.0
2923,79.0,9.0,20.0,5.0,0.0
2924,86.0,0.0,40.0,1.0,0.0
2925,83.0,0.0,40.0,2.0,0.0
2926,77.0,0.0,40.0,3.0,0.0
2927,79.0,6.0,15.0,5.0,0.0
2928,43.0,5.0,40.0,6.0,0.0
2929,77.0,6.0,15.0,5.0,0.0
2930,79.0,6.0,15.0,5.0,0.0
2931,77.0,6.0,15.0,5.0,0.0
2932,79.0,6.0,15.0,5.0,0.0
2933,77.0,6.0,15.0,5.0,0.0
2934,79.0,1.0,15.0,5.0,0.0
2935,77.0,21.0,15.0,5.0,0.0
2936,55.0,2.0,40.0,4.0,0.0
2937,76.0,22.0,20.0,5.0,0.0
2938,55.0,0.0,40.0,6.0,0.0
2939,77.0,24.0,20.0,5.0,0.0
2940,60.0,3.0,90.0,4.0,0.0
2941,77.0,24.0,20.0,5.0,0.0
2942,76.0,24.0,20.0,5.0,0.0
2943,79.0,0.0,40.0,1.0,0.0
2944,76.0,0.0,40.0,2.0,0.0
2945,72.0,0.0,40.0,3.0,0.0
2946,74.0,19.0,20.0,5.0,0.0
2947,60.0,2.0,40.0,6.0,0.0
2948,72.0,46.0,20.0,5.0,0.0
2949,84.0,0.0,40.0,1.0,0.0
2950,79.0,0.0,40.0,2.0,0.0
2951,76.0,48.0,40.0,3.0,0.0
2952,48.0,0.0,40.0,6.0,0.0
2953,59.0,93.0,40.0,4.0,0.0
2954,59.0,0.0,40.0,6.0,0.0
2955,57.0,3.0,90.0,4.0,0.0
2956,84.0,14.0,120.0,5.0,0.0
2957,84.0,0.0,40.0,1.0,0.0
2958,81.0,0.0,40.0,2.0,0.0
2959,64.0,0.0,40.0,3.0,0.0
2960,57.0,26.0,40.0,6.0,0.0
2961,88.0,0.0,40.0,1.0,0.0
2962,84.0,4.0,40.0,2.0,0.0
2963,69.0,0.0,40.0,3.0,0.0
2964,45.0,0.0,40.0,6.0,0.0
2965,83.0,8.0,15.0,5.0,0.0
2966,81.0,22.0,15.0,5.0,0.0
2967,55.0,2.0,40.0,4.0,0.0
2968,83.0,22.0,20.0,5.0,0.0
2969,55.0,0.0,40.0,6.0,0.0
2970,84.0,91.0,20.0,5.0,0.0
2971,54.0,3.0,90.0,4.0,0.0
2972,74.0,22.0,120.0,5.0,0.0
2973,81.0,0.0,40.0,1.0,0.0
2974,78.0,0.0,40.0,2.0,0.0
2975,74.0,0.0,40.0,3.0,0.0
2976,54.0,26.0,40.0,6.0,0.0
2977,86.0,0.0,40.0,1.0,0.0
2978,81.0,2.0,40.0,2.0,0.0
2979,78.0,0.0,40.0,3.0,0.0
2980,42.0,0.0,40.0,6.0,0.0
2981,78.0,24.0,20.0,5.0,0.0
2982,54.0,2.0,40.0,4.0,0.0
2983,81.0,22.0,20.0,5.0,0.0
2984,54.0,0.0,40.0,6.0,0.0
2985,84.0,91.0,20.0,5.0,0.0
2986,55.0,3.0,90.0,4.0,0.0
2987,83.0,12.0,120.0,5.0,0.0
2988,83.0,0.0,40.0,1.0,0.0
2989,79.0,0.0,40.0,2.0,0.0
2990,62.0,0.0,40.0,3.0,0.0
2991,55.0,16.0,40.0,6.0,0.0
2992,86.0,0.0,40.0,1.0,0.0
2993,83.0,4.0,40.0,2.0,0.0
2994,67.0,0.0,40.0,3.0,0.0
2995,43.0,0.0,40.0,6.0,0.0
2996,81.0,12.0,15.0,5.0,0.0
2997,79.0,8.0,15.0,5.0,0.0
2998,78.0,22.0,15.0,5.0,0.0
2999,54.0,2.0,40.0,4.0,0.0
3000,76.0,22.0,20.0,5.0,0.0
3001,54.0,0.0,40.0,6.0,0.0
3002,74.0,62.0,20.0,5.0,0.0
3003,52.0,3.0,90.0,4.0,0.0
3004,72.0,12.0,60.0,5.0,0.0
3005,79.0,0.0,40.0,1.0,0.0
3006,76.0,0.0,40.0,2.0,0.0
3007,72.0,0.0,40.0,3.0,0.0
3008,52.0,4.0,40.0,6.0,0.0
3009,74.0,12.0,15.0,5.0,0.0
3010,72.0,5.0,15.0,5.0,0.0
3011,71.0,22.0,15.0,5.0,0.0
3012,84.0,0.0,40.0,1.0,0.0
3013,79.0,2.0,40.0,2.0,0.0
3014,76.0,0.0,40.0,3.0,0.0
3015,72.0,22.0,20.0,5.0,0.0
3016,40.0,0.0,40.0,6.0,0.0
3017,76.0,24.0,20.0,5.0,0.0
3018,52.0,2.0,40.0,4.0,0.0
3019,79.0,22.0,20.0,5.0,0.0
3020,52.0,0.0,40.0,6.0,0.0
3021,83.0,91.0,20.0,5.0,0.0
3022,54.0,3.0,90.0,4.0,0.0
3023,81.0,12.0,120.0,5.0,0.0
3024,81.0,0.0,40.0,1.0,0.0
3025,78.0,0.0,40.0,2.0,0.0
3026,74.0,0.0,40.0,3.0,0.0
3027,54.0,16.0,40.0,6.0,0.0
3028,84.0,0.0,40.0,1.0,0.0
3029,81.0,4.0,40.0,2.0,0.0
3030,62.0,0.0,40.0,3.0,0.0
3031,42.0,0.0,40.0,6.0,0.0
3032,79.0,12.0,15.0,5.0,0.0
3033,78.0,8.0,15.0,5.0,0.0
3034,79.0,12.0,15.0,5.0,0.0
3035,54.0,4.0,40.0,4.0,0.0
3036,81.0,12.0,15.0,5.0,0.0
3037,54.0,0.0,40.0,6.0,0.0
3038,78.0,12.0,15.0,5.0,0.0
3039,74.0,8.0,15.0,5.0,0.0
3040,72.0,22.0,15.0,5.0,0.0
3041,55.0,3.0,90.0,4.0,0.0
3042,71.0,24.0,20.0,5.0,0.0
3043,74.0,24.0,20.0,5.0,0.0
3044,84.0,0.0,40.0,1.0,0.0
3045,81.0,0.0,40.0,2.0,0.0
3046,74.0,0.0,40.0,3.0,0.0
3047,78.0,19.0,20.0,5.0,0.0
3048,55.0,2.0,40.0,6.0,0.0
3049,81.0,46.0,20.0,5.0,0.0
3050,83.0,0.0,40.0,1.0,0.0
3051,74.0,48.0,40.0,2.0,0.0
3052,79.0,0.0,40.0,3.0,0.0
3053,79.0,14.0,120.0,5.0,0.0
3054,43.0,0.0,40.0,6.0,0.0
3055,59.0,26.0,40.0,4.0,0.0
3056,59.0,0.0,40.0,6.0,0.0
3057,60.0,4.0,40.0,4.0,0.0
3058,60.0,0.0,40.0,6.0,0.0
3059,81.0,8.0,15.0,5.0,0.0
3060,83.0,12.0,15.0,5.0,0.0
3061,81.0,0.0,40.0,1.0,0.0
3062,76.0,0.0,40.0,2.0,0.0
3063,79.0,0.0,40.0,3.0,0.0
3064,57.0,0.0,40.0,4.0,0.0
3065,84.0,12.0,15.0,5.0,0.0
3066,57.0,4.0,40.0,6.0,0.0
3067,83.0,12.0,15.0,5.0,0.0
3068,84.0,8.0,15.0,5.0,0.0
3069,88.0,12.0,15.0,5.0,0.0
3070,84.0,0.0,40.0,1.0,0.0
3071,74.0,24.0,40.0,2.0,0.0
3072,78.0,0.0,40.0,3.0,0.0
3073,62.0,0.0,40.0,4.0,0.0
3074,78.0,12.0,15.0,5.0,0.0
3075,62.0,0.0,40.0,6.0,0.0
3076,76.0,20.0,15.0,5.0,0.0
3077,78.0,24.0,40.0,5.0,0.0
3078,50.0,2.0,40.0,4.0,0.0
3079,50.0,0.0,40.0,6.0,0.0
3080,79.0,91.0,20.0,5.0,0.0
3081,55.0,3.0,90.0,4.0,0.0
3082,79.0,0.0,90.0,5.0,0.0
3083,83.0,48.0,40.0,1.0,0.0
3084,74.0,0.0,40.0,2.0,0.0
3085,67.0,0.0,40.0,3.0,0.0
3086,55.0,0.0,40.0,6.0,0.0
3087,86.0,0.0,40.0,1.0,0.0
3088,79.0,0.0,40.0,2.0,0.0
3089,71.0,48.0,40.0,3.0,0.0
3090,43.0,0.0,40.0,6.0,0.0
3091,53.0,93.0,40.0,4.0,0.0
3092,53.0,0.0,40.0,6.0,0.0
3093,52.0,3.0,90.0,4.0,0.0
3094,82.0,14.0,120.0,5.0,0.0
3095,79.0,0.0,40.0,1.0,0.0
3096,82.0,0.0,40.0,2.0,0.0
3097,64.0,0.0,40.0,3.0,0.0
3098,52.0,26.0,40.0,6.0,0.0
3099,73.0,0.0,40.0,1.0,0.0
3100,76.0,4.0,40.0,2.0,0.0
3101,67.0,0.0,40.0,3.0,0.0
3102,40.0,0.0,40.0,6.0,0.0
3103,81.0,8.0,15.0,5.0,0.0
3104,79.0,12.0,15.0,5.0,0.0
3105,55.0,2.0,40.0,4.0,0.0
3106,77.0,12.0,15.0,5.0,0.0
3107,55.0,0.0,40.0,6.0,0.0
3108,76.0,20.0,15.0,5.0,0.0
3109,74.0,91.0,20.0,5.0,0.0
3110,57.0,3.0,90.0,4.0,0.0
3111,73.0,22.0,120.0,5.0,0.0
3112,76.0,0.0,40.0,1.0,0.0
3113,73.0,0.0,40.0,2.0,0.0
3114,67.0,0.0,40.0,3.0,0.0
3115,57.0,26.0,40.0,6.0,0.0
3116,69.0,0.0,40.0,1.0,0.0
3117,76.0,2.0,40.0,2.0,0.0
3118,61.0,0.0,40.0,3.0,0.0
3119,45.0,0.0,40.0,6.0,0.0
3120,74.0,24.0,20.0,5.0,0.0
3121,58.0,2.0,40.0,4.0,0.0
3122,76.0,22.0,20.0,5.0,0.0
3123,58.0,0.0,40.0,6.0,0.0
3124,77.0,24.0,20.0,5.0,0.0
3125,49.0,3.0,90.0,4.0,0.0
3126,79.0,24.0,20.0,5.0,0.0
3127,81.0,24.0,20.0,5.0,0.0
3128,67.0,0.0,40.0,1.0,0.0
3129,76.0,0.0,40.0,2.0,0.0
3130,64.0,0.0,40.0,3.0,0.0
3131,82.0,19.0,20.0,5.0,0.0
3132,49.0,2.0,40.0,6.0,0.0
3133,85.0,24.0,20.0,5.0,0.0
3134,73.0,0.0,40.0,1.0,0.0
3135,69.0,16.0,40.0,2.0,0.0
3136,67.0,0.0,40.0,3.0,0.0
3137,88.0,22.0,20.0,5.0,0.0
3138,37.0,0.0,40.0,6.0,0.0
3139,79.0,12.0,30.0,5.0,0.0
3140,45.0,4.0,40.0,4.0,0.0
3141,45.0,0.0,40.0,6.0,0.0
3142,81.0,12.0,15.0,5.0,0.0
3143,82.0,8.0,15.0,5.0,0.0
3144,81.0,22.0,15.0,5.0,0.0
3145,50.0,3.0,90.0,4.0,0.0
3146,79.0,24.0,20.0,5.0,0.0
3147,77.0,9.0,20.0,5.0,0.0
3148,74.0,0.0,40.0,1.0,0.0
3149,69.0,0.0,40.0,2.0,0.0
3150,65.0,0.0,40.0,3.0,0.0
3151,76.0,6.0,15.0,5.0,0.0
3152,50.0,2.0,40.0,6.0,0.0
3153,77.0,11.0,15.0,5.0,0.0
3154,76.0,17.0,15.0,5.0,0.0
3155,74.0,46.0,20.0,5.0,0.0
3156,77.0,0.0,40.0,1.0,0.0
3157,74.0,26.0,40.0,2.0,0.0
3158,69.0,0.0,40.0,3.0,0.0
3159,89.0,22.0,60.0,5.0,0.0
3160,62.0,0.0,40.0,6.0,0.0
3161,62.0,2.0,40.0,4.0,0.0
3162,38.0,0.0,40.0,6.0,0.0
3163,81.0,9.0,20.0,5.0,0.0
3164,60.0,2.0,90.0,4.0,0.0
3165,82.0,6.0,15.0,5.0,0.0
3166,81.0,11.0,15.0,5.0,0.0
3167,79.0,22.0,15.0,5.0,0.0
3168,81.0,33.0,20.0,5.0,0.0
3169,77.0,0.0,40.0,1.0,0.0
3170,74.0,5.0,40.0,2.0,0.0
3171,69.0,0.0,40.0,3.0,0.0
3172,89.0,6.0,30.0,5.0,0.0
3173,60.0,0.0,40.0,6.0,0.0
3174,88.0,4.0,15.0,5.0,0.0
3175,86.0,1.0,15.0,5.0,0.0
3176,85.0,21.0,15.0,5.0,0.0
3177,81.0,0.0,40.0,1.0,0.0
3178,77.0,26.0,40.0,2.0,0.0
3179,74.0,0.0,40.0,3.0,0.0
3180,85.0,22.0,20.0,5.0,0.0
3181,48.0,0.0,40.0,6.0,0.0
3182,86.0,22.0,40.0,5.0,0.0
3183,60.0,2.0,40.0,4.0,0.0
3184,60.0,0.0,40.0,6.0,0.0
3185,81.0,14.0,20.0,5.0,0.0
3186,58.0,3.0,90.0,4.0,0.0
3187,81.0,12.0,15.0,5.0,0.0
3188,78.0,36.0,15.0,5.0,0.0
3189,79.0,12.0,30.0,5.0,0.0
3190,79.0,0.0,40.0,1.0,0.0
3191,79.0,0.0,40.0,2.0,0.0
3192,62.0,0.0,40.0,3.0,0.0
3193,58.0,4.0,40.0,6.0,0.0
3194,81.0,7.0,15.0,5.0,0.0
3195,82.0,6.0,15.0,5.0,0.0
3196,81.0,4.0,15.0,5.0,0.0
3197,79.0,44.0,15.0,5.0,0.0
3198,85.0,0.0,40.0,1.0,0.0
3199,76.0,16.0,40.0,2.0,0.0
3200,67.0,0.0,40.0,3.0,0.0
3201,88.0,12.0,60.0,5.0,0.0
3202,46.0,0.0,40.0,6.0,0.0
3203,58.0,4.0,40.0,4.0,0.0
3204,58.0,0.0,40.0,6.0,0.0
3205,79.0,12.0,15.0,5.0,0.0
3206,77.0,8.0,15.0,5.0,0.0
3207,76.0,22.0,15.0,5.0,0.0
3208,57.0,2.0,40.0,4.0,0.0
3209,77.0,22.0,20.0,5.0,0.0
3210,57.0,0.0,40.0,6.0,0.0
3211,81.0,24.0,20.0,5.0,0.0
3212,86.0,0.0,40.0,1.0,0.0
3213,82.0,0.0,40.0,2.0,0.0
3214,65.0,0.0,40.0,3.0,0.0
3215,55.0,0.0,40.0,4.0,0.0
3216,86.0,22.0,20.0,5.0,0.0
3217,55.0,2.0,40.0,6.0,0.0
3218,88.0,46.0,20.0,5.0,0.0
3219,85.0,0.0,40.0,1.0,0.0
3220,81.0,0.0,40.0,2.0,0.0
3221,64.0,0.0,40.0,3.0,0.0
3222,57.0,26.0,40.0,4.0,0.0
3223,88.0,22.0,60.0,5.0,0.0
3224,57.0,0.0,40.0,6.0,0.0
3225,45.0,2.0,40.0,4.0,0.0
3226,45.0,0.0,40.0,6.0,0.0
3227,86.0,91.0,20.0,5.0,0.0
3228,50.0,3.0,90.0,4.0,0.0
3229,86.0,0.0,90.0,5.0,0.0
3230,81.0,48.0,40.0,1.0,0.0
3231,77.0,0.0,40.0,2.0,0.0
3232,62.0,0.0,40.0,3.0,0.0
3233,50.0,0.0,40.0,6.0,0.0
3234,86.0,0.0,40.0,1.0,0.0
3235,81.0,0.0,40.0,2.0,0.0
3236,65.0,48.0,40.0,3.0,0.0
3237,38.0,0.0,40.0,6.0,0.0
3238,60.0,93.0,40.0,4.0,0.0
3239,60.0,0.0,40.0,6.0,0.0
3240,59.0,3.0,90.0,4.0,0.0
3241,77.0,12.0,120.0,5.0,0.0
3242,74.0,0.0,40.0,1.0,0.0
3243,79.0,0.0,40.0,2.0,0.0
3244,71.0,0.0,40.0,3.0,0.0
3245,59.0,16.0,40.0,6.0,0.0
3246,79.0,0.0,40.0,1.0,0.0
3247,83.0,4.0,40.0,2.0,0.0
3248,74.0,0.0,40.0,3.0,0.0
3249,47.0,0.0,40.0,6.0,0.0
3250,79.0,12.0,15.0,5.0,0.0
3251,77.0,8.0,15.0,5.0,0.0
3252,76.0,22.0,15.0,5.0,0.0
3253,55.0,2.0,40.0,4.0,0.0
3254,77.0,22.0,20.0,5.0,0.0
3255,55.0,0.0,40.0,6.0,0.0
3256,86.0,46.0,20.0,5.0,0.0
3257,60.0,3.0,90.0,4.0,0.0
3258,79.0,45.0,40.0,5.0,0.0
3259,79.0,0.0,40.0,1.0,0.0
3260,76.0,0.0,40.0,2.0,0.0
3261,72.0,0.0,40.0,3.0,0.0
3262,77.0,22.0,60.0,5.0,0.0
3263,60.0,26.0,40.0,6.0,0.0
3264,85.0,0.0,40.0,1.0,0.0
3265,79.0,2.0,40.0,2.0,0.0
3266,76.0,0.0,40.0,3.0,0.0
3267,48.0,0.0,40.0,6.0,0.0
3268,72.0,24.0,20.0,5.0,0.0
3269,58.0,2.0,40.0,4.0,0.0
3270,74.0,22.0,20.0,5.0,0.0
3271,58.0,0.0,40.0,6.0,0.0
3272,76.0,14.0,20.0,5.0,0.0
3273,57.0,3.0,90.0,4.0,0.0
3274,77.0,12.0,15.0,5.0,0.0
3275,79.0,12.0,15.0,5.0,0.0
3276,77.0,12.0,15.0,5.0,0.0
3277,76.0,12.0,15.0,5.0,0.0
3278,85.0,0.0,40.0,1.0,0.0
3279,77.0,0.0,40.0,2.0,0.0
3280,72.0,0.0,40.0,3.0,0.0
3281,77.0,12.0,15.0,5.0,0.0
3282,57.0,4.0,40.0,6.0,0.0
3283,79.0,12.0,15.0,5.0,0.0
3284,81.0,5.0,15.0,5.0,0.0
3285,82.0,22.0,15.0,5.0,0.0
3286,88.0,0.0,40.0,1.0,0.0
3287,79.0,4.0,40.0,2.0,0.0
3288,70.0,0.0,40.0,3.0,0.0
3289,84.0,14.0,20.0,5.0,0.0
3290,45.0,0.0,40.0,6.0,0.0
3291,82.0,8.0,15.0,5.0,0.0
3292,81.0,12.0,15.0,5.0,0.0
3293,60.0,48.0,40.0,4.0,0.0
3294,82.0,12.0,15.0,5.0,0.0
3295,60.0,0.0,40.0,6.0,0.0
3296,76.0,20.0,15.0,5.0,0.0
3297,82.0,45.0,60.0,5.0,0.0
3298,53.0,3.0,90.0,4.0,0.0
3299,72.0,0.0,40.0,1.0,0.0
3300,81.0,0.0,40.0,2.0,0.0
3301,65.0,0.0,40.0,3.0,0.0
3302,81.0,48.0,40.0,5.0,0.0
3303,53.0,0.0,40.0,6.0,0.0
3304,77.0,0.0,40.0,1.0,0.0
3305,84.0,2.0,40.0,2.0,0.0
3306,69.0,0.0,40.0,3.0,0.0
3307,41.0,0.0,40.0,6.0,0.0
3308,74.0,9.0,20.0,5.0,0.0
3309,52.0,2.0,40.0,4.0,0.0
3310,74.0,6.0,15.0,5.0,0.0
3311,52.0,0.0,40.0,6.0,0.0
3312,76.0,6.0,15.0,5.0,0.0
3313,77.0,6.0,15.0,5.0,0.0
3314,76.0,19.0,15.0,5.0,0.0
3315,77.0,17.0,20.0,5.0,0.0
3316,50.0,3.0,90.0,4.0,0.0
3317,71.0,16.0,15.0,5.0,0.0
3318,69.0,16.0,15.0,5.0,0.0
3319,71.0,16.0,15.0,5.0,0.0
3320,89.0,0.0,40.0,1.0,0.0
3321,86.0,0.0,40.0,2.0,0.0
3322,69.0,0.0,40.0,3.0,0.0
3323,72.0,16.0,15.0,5.0,0.0
3324,50.0,3.0,40.0,6.0,0.0
3325,71.0,10.0,15.0,5.0,0.0
3326,72.0,16.0,15.0,5.0,0.0
3327,83.0,0.0,40.0,1.0,0.0
3328,77.0,3.0,40.0,2.0,0.0
3329,74.0,0.0,40.0,3.0,0.0
3330,74.0,16.0,15.0,5.0,0.0
3331,38.0,0.0,40.0,6.0,0.0
3332,76.0,13.0,15.0,5.0,0.0
3333,74.0,16.0,15.0,5.0,0.0
3334,48.0,3.0,40.0,4.0,0.0
3335,72.0,16.0,15.0,5.0,0.0
3336,48.0,0.0,40.0,6.0,0.0
3337,74.0,13.0,15.0,5.0,0.0
3338,76.0,16.0,15.0,5.0,0.0
3339,47.0,3.0,90.0,4.0,0.0
3340,77.0,16.0,15.0,5.0,0.0
3341,76.0,16.0,15.0,5.0,0.0
3342,77.0,42.0,15.0,5.0,0.0
3343,86.0,0.0,40.0,1.0,0.0
3344,77.0,0.0,40.0,2.0,0.0
3345,67.0,0.0,40.0,3.0,0.0
3346,86.0,12.0,60.0,5.0,0.0
3347,47.0,16.0,40.0,6.0,0.0
3348,77.0,0.0,40.0,1.0,0.0
3349,74.0,4.0,40.0,2.0,0.0
3350,71.0,0.0,40.0,3.0,0.0
3351,35.0,0.0,40.0,6.0,0.0
3352,76.0,12.0,15.0,5.0,0.0
3353,77.0,8.0,15.0,5.0,0.0
3354,79.0,12.0,15.0,5.0,0.0
3355,43.0,2.0,40.0,4.0,0.0
3356,77.0,12.0,15.0,5.0,0.0
3357,43.0,0.0,40.0,6.0,0.0
3358,76.0,20.0,15.0,5.0,0.0
3359,74.0,24.0,20.0,5.0,0.0
3360,48.0,2.0,40.0,4.0,0.0
3361,76.0,22.0,20.0,5.0,0.0
3362,48.0,0.0,40.0,6.0,0.0
3363,79.0,24.0,20.0,5.0,0.0
3364,79.0,0.0,40.0,1.0,0.0
3365,76.0,0.0,40.0,2.0,0.0
3366,72.0,0.0,40.0,3.0,0.0
3367,52.0,0.0,40.0,4.0,0.0
3368,84.0,22.0,20.0,5.0,0.0
3369,52.0,2.0,40.0,6.0,0.0
3370,81.0,24.0,20.0,5.0,0.0
3371,84.0,0.0,40.0,1.0,0.0
3372,76.0,0.0,40.0,2.0,0.0
3373,69.0,0.0,40.0,3.0,0.0
3374,57.0,0.0,40.0,4.0,0.0
3375,79.0,22.0,20.0,5.0,0.0
3376,57.0,2.0,40.0,6.0,0.0
3377,77.0,24.0,20.0,5.0,0.0
3378,53.0,2.0,40.0,4.0,0.0
3379,83.0,22.0,20.0,5.0,0.0
3380,53.0,0.0,40.0,6.0,0.0
3381,84.0,14.0,20.0,5.0,0.0
3382,55.0,3.0,90.0,4.0,0.0
3383,76.0,12.0,15.0,5.0,0.0
3384,77.0,22.0,15.0,5.0,0.0
3385,76.0,43.0,20.0,5.0,0.0
3386,78.0,0.0,40.0,1.0,0.0
3387,72.0,0.0,40.0,2.0,0.0
3388,69.0,0.0,40.0,3.0,0.0
3389,74.0,48.0,40.0,5.0,0.0
3390,55.0,0.0,40.0,6.0,0.0
3391,79.0,0.0,40.0,1.0,0.0
3392,71.0,0.0,40.0,2.0,0.0
3393,62.0,48.0,40.0,3.0,0.0
3394,43.0,0.0,40.0,6.0,0.0
3395,59.0,93.0,40.0,4.0,0.0
3396,59.0,0.0,40.0,6.0,0.0
3397,60.0,3.0,90.0,4.0,0.0
3398,76.0,12.0,120.0,5.0,0.0
3399,76.0,0.0,40.0,1.0,0.0
3400,72.0,0.0,40.0,2.0,0.0
3401,67.0,0.0,40.0,3.0,0.0
3402,60.0,16.0,40.0,6.0,0.0
3403,79.0,0.0,40.0,1.0,0.0
3404,76.0,4.0,40.0,2.0,0.0
3405,72.0,0.0,40.0,3.0,0.0
3406,48.0,0.0,40.0,6.0,0.0
3407,74.0,12.0,15.0,5.0,0.0
3408,77.0,8.0,15.0,5.0,0.0
3409,76.0,12.0,15.0,5.0,0.0
3410,60.0,2.0,40.0,4.0,0.0
3411,79.0,12.0,15.0,5.0,0.0
3412,60.0,0.0,40.0,6.0,0.0
3413,77.0,20.0,15.0,5.0,0.0
3414,81.0,24.0,20.0,5.0,0.0
3415,59.0,3.0,90.0,4.0,0.0
3416,81.0,67.0,20.0,5.0,0.0
3417,74.0,12.0,90.0,5.0,0.0
3418,74.0,0.0,40.0,1.0,0.0
3419,71.0,0.0,40.0,2.0,0.0
3420,67.0,0.0,40.0,3.0,0.0
3421,59.0,16.0,40.0,6.0,0.0
3422,79.0,0.0,40.0,1.0,0.0
3423,74.0,4.0,40.0,2.0,0.0
3424,71.0,0.0,40.0,3.0,0.0
3425,47.0,0.0,40.0,6.0,0.0
3426,72.0,12.0,15.0,5.0,0.0
3427,76.0,8.0,15.0,5.0,0.0
3428,74.0,12.0,15.0,5.0,0.0
3429,59.0,2.0,40.0,4.0,0.0
3430,77.0,12.0,15.0,5.0,0.0
3431,59.0,0.0,40.0,6.0,0.0
3432,76.0,20.0,15.0,5.0,0.0
3433,79.0,24.0,20.0,5.0,0.0
3434,57.0,3.0,90.0,4.0,0.0
3435,79.0,24.0,20.0,5.0,0.0
3436,72.0,24.0,20.0,5.0,0.0
3437,72.0,0.0,40.0,1.0,0.0
3438,69.0,0.0,40.0,2.0,0.0
3439,64.0,0.0,40.0,3.0,0.0
3440,84.0,19.0,20.0,5.0,0.0
3441,57.0,2.0,40.0,6.0,0.0
3442,81.0,46.0,20.0,5.0,0.0
3443,77.0,0.0,40.0,1.0,0.0
3444,72.0,0.0,40.0,2.0,0.0
3445,69.0,0.0,40.0,3.0,0.0
3446,79.0,48.0,40.0,5.0,0.0
3447,45.0,0.0,40.0,6.0,0.0
3448,57.0,26.0,40.0,4.0,0.0
3449,77.0,24.0,60.0,5.0,0.0
3450,57.0,0.0,40.0,6.0,0.0
3451,55.0,3.0,90.0,4.0,0.0
3452,86.0,24.0,20.0,5.0,0.0
3453,77.0,0.0,40.0,1.0,0.0
3454,74.0,0.0,40.0,2.0,0.0
3455,67.0,0.0,40.0,3.0,0.0
3456,83.0,19.0,20.0,5.0,0.0
3457,55.0,2.0,40.0,6.0,0.0
3458,79.0,24.0,20.0,5.0,0.0
3459,86.0,0.0,40.0,1.0,0.0
3460,83.0,0.0,40.0,2.0,0.0
3461,65.0,5.0,40.0,3.0,0.0
3462,79.0,9.0,20.0,5.0,0.0
3463,43.0,0.0,40.0,6.0,0.0
3464,79.0,6.0,15.0,5.0,0.0
3465,77.0,6.0,15.0,5.0,0.0
3466,79.0,1.0,15.0,5.0,0.0
3467,77.0,21.0,15.0,5.0,0.0
3468,55.0,2.0,40.0,4.0,0.0
3469,76.0,22.0,20.0,5.0,0.0
3470,55.0,0.0,40.0,6.0,0.0
3471,77.0,14.0,20.0,5.0,0.0
3472,60.0,3.0,90.0,4.0,0.0
3473,77.0,12.0,15.0,5.0,0.0
3474,76.0,12.0,15.0,5.0,0.0
3475,77.0,12.0,15.0,5.0,0.0
3476,79.0,12.0,15.0,5.0,0.0
3477,79.0,0.0,40.0,1.0,0.0
3478,76.0,0.0,40.0,2.0,0.0
3479,72.0,0.0,40.0,3.0,0.0
3480,77.0,12.0,15.0,5.0,0.0
3481,60.0,4.0,40.0,6.0,0.0
3482,76.0,12.0,15.0,5.0,0.0
3483,74.0,5.0,15.0,5.0,0.0
3484,72.0,44.0,15.0,5.0,0.0
3485,88.0,0.0,40.0,1.0,0.0
3486,84.0,0.0,40.0,2.0,0.0
3487,67.0,0.0,40.0,3.0,0.0
3488,72.0,11.0,40.0,5.0,0.0
3489,48.0,0.0,40.0,6.0,0.0
3490,48.0,2.0,40.0,4.0,0.0
3491,70.0,6.0,15.0,5.0,0.0
3492,60.0,0.0,40.0,6.0,0.0
3493,72.0,6.0,15.0,5.0,0.0
3494,70.0,6.0,15.0,5.0,0.0
3495,69.0,19.0,15.0,5.0,0.0
3496,70.0,24.0,20.0,5.0,0.0
3497,53.0,3.0,90.0,4.0,0.0
3498,69.0,24.0,20.0,5.0,0.0
3499,71.0,14.0,20.0,5.0,0.0
3500,86.0,0.0,40.0,1.0,0.0
3501,74.0,0.0,40.0,2.0,0.0
3502,67.0,0.0,40.0,3.0,0.0
3503,72.0,12.0,15.0,5.0,0.0
3504,53.0,2.0,40.0,6.0,0.0
3505,71.0,17.0,15.0,5.0,0.0
3506,72.0,46.0,20.0,5.0,0.0
3507,81.0,0.0,40.0,1.0,0.0
3508,75.0,48.0,40.0,2.0,0.0
3509,72.0,0.0,40.0,3.0,0.0
3510,72.0,12.0,120.0,5.0,0.0
3511,42.0,0.0,40.0,6.0,0.0
3512,54.0,16.0,40.0,4.0,0.0
3513,54.0,0.0,40.0,6.0,0.0
3514,55.0,4.0,40.0,4.0,0.0
3515,55.0,0.0,40.0,6.0,0.0
3516,74.0,12.0,15.0,5.0,0.0
3517,72.0,8.0,15.0,5.0,0.0
3518,71.0,12.0,15.0,5.0,0.0
3519,81.0,0.0,40.0,1.0,0.0
3520,74.0,2.0,40.0,2.0,0.0
3521,69.0,0.0,40.0,3.0,0.0
3522,53.0,0.0,40.0,4.0,0.0
3523,72.0,12.0,15.0,5.0,0.0
3524,53.0,0.0,40.0,6.0,0.0
3525,77.0,20.0,15.0,5.0,0.0
3526,74.0,9.0,20.0,5.0,0.0
3527,74.0,0.0,40.0,1.0,0.0
3528,71.0,0.0,40.0,2.0,0.0
3529,67.0,0.0,40.0,3.0,0.0
3530,55.0,5.0,40.0,4.0,0.0
3531,72.0,6.0,15.0,5.0,0.0
3532,55.0,0.0,40.0,6.0,0.0
3533,71.0,6.0,15.0,5.0,0.0
3534,72.0,6.0,15.0,5.0,0.0
3535,71.0,6.0,15.0,5.0,0.0
3536,72.0,6.0,15.0,5.0,0.0
3537,71.0,6.0,15.0,5.0,0.0
3538,72.0,1.0,15.0,5.0,0.0
3539,71.0,6.0,15.0,5.0,0.0
3540,43.0,2.0,40.0,4.0,0.0
3541,72.0,6.0,15.0,5.0,0.0
3542,43.0,0.0,40.0,6.0,0.0
3543,71.0,6.0,15.0,5.0,0.0
3544,72.0,6.0,15.0,5.0,0.0
3545,71.0,19.0,15.0,5.0,0.0
3546,72.0,24.0,20.0,5.0,0.0
3547,48.0,3.0,90.0,4.0,0.0
3548,72.0,24.0,20.0,5.0,0.0
3549,76.0,14.0,20.0,5.0,0.0
3550,75.0,0.0,40.0,1.0,0.0
3551,72.0,0.0,40.0,2.0,0.0
3552,69.0,0.0,40.0,3.0,0.0
3553,81.0,12.0,15.0,5.0,0.0
3554,48.0,2.0,40.0,6.0,0.0
3555,78.0,17.0,15.0,5.0,0.0
3556,79.0,46.0,20.0,5.0,0.0
3557,74.0,0.0,40.0,1.0,0.0
3558,67.0,26.0,40.0,2.0,0.0
3559,71.0,0.0,40.0,3.0,0.0
3560,79.0,22.0,60.0,5.0,0.0
3561,47.0,0.0,40.0,6.0,0.0
3562,47.0,26.0,40.0,4.0,0.0
3563,59.0,0.0,40.0,6.0,0.0
3564,79.0,14.0,40.0,5.0,0.0
3565,45.0,3.0,90.0,4.0,0.0
3566,81.0,12.0,15.0,5.0,0.0
3567,83.0,12.0,15.0,5.0,0.0
3568,76.0,0.0,40.0,1.0,0.0
3569,72.0,0.0,40.0,2.0,0.0
3570,64.0,0.0,40.0,3.0,0.0
3571,84.0,12.0,15.0,5.0,0.0
3572,57.0,2.0,40.0,6.0,0.0
3573,81.0,17.0,15.0,5.0,0.0
3574,76.0,38.0,20.0,5.0,0.0
3575,84.0,0.0,40.0,1.0,0.0
3576,65.0,4.0,40.0,2.0,0.0
3577,69.0,0.0,40.0,3.0,0.0
3578,77.0,8.0,30.0,5.0,0.0
3579,45.0,0.0,40.0,6.0,0.0
3580,76.0,12.0,15.0,5.0,0.0
3581,57.0,2.0,40.0,4.0,0.0
3582,74.0,12.0,15.0,5.0,0.0
3583,57.0,0.0,40.0,6.0,0.0
3584,76.0,20.0,15.0,5.0,0.0
3585,77.0,14.0,20.0,5.0,0.0
3586,55.0,3.0,90.0,4.0,0.0
3587,72.0,24.0,15.0,5.0,0.0
3588,71.0,7.0,20.0,5.0,0.0
3589,72.0,6.0,15.0,5.0,0.0
3590,74.0,6.0,15.0,5.0,0.0
3591,83.0,0.0,40.0,1.0,0.0
3592,71.0,0.0,40.0,2.0,0.0
3593,62.0,0.0,40.0,3.0,0.0
3594,74.0,6.0,15.0,5.0,0.0
3595,55.0,2.0,40.0,6.0,0.0
3596,76.0,6.0,15.0,5.0,0.0
3597,74.0,6.0,15.0,5.0,0.0
3598,72.0,16.0,15.0,5.0,0.0
3599,74.0,46.0,20.0,5.0,0.0
3600,76.0,0.0,40.0,1.0,0.0
3601,67.0,11.0,40.0,2.0,0.0
3602,59.0,0.0,40.0,3.0,0.0
3603,76.0,6.0,60.0,5.0,0.0
3604,43.0,0.0,40.0,6.0,0.0
3605,43.0,4.0,40.0,4.0,0.0
3606,55.0,0.0,40.0,6.0,0.0
3607,74.0,6.0,15.0,5.0,0.0
3608,72.0,6.0,15.0,5.0,0.0
3609,71.0,6.0,15.0,5.0,0.0
3610,72.0,6.0,15.0,5.0,0.0
3611,76.0,7.0,15.0,5.0,0.0
3612,68.0,22.0,15.0,5.0,0.0
3613,41.0,7.0,180.0,4.0,0.0
3614,69.0,38.0,20.0,5.0,0.0
3615,81.0,7.0,30.0,5.0,0.0
3616,72.0,4.0,40.0,1.0,0.0
3617,69.0,0.0,40.0,2.0,0.0
3618,65.0,0.0,40.0,3.0,0.0
3619,53.0,0.0,40.0,6.0,0.0
3620,83.0,6.0,15.0,5.0,0.0
3621,81.0,11.0,15.0,5.0,0.0
3622,80.0,8.0,15.0,5.0,0.0
3623,81.0,44.0,15.0,5.0,0.0
3624,69.0,0.0,40.0,1.0,0.0
3625,81.0,0.0,40.0,2.0,0.0
3626,60.0,0.0,40.0,3.0,0.0
3627,76.0,40.0,40.0,5.0,0.0
3628,41.0,0.0,40.0,6.0,0.0
3629,81.0,26.0,90.0,1.0,0.0
3630,74.0,0.0,40.0,2.0,0.0
3631,57.0,0.0,40.0,3.0,0.0
3632,74.0,1.0,30.0,5.0,0.0
3633,53.0,4.0,40.0,6.0,0.0
3634,76.0,44.0,15.0,5.0,0.0
3635,72.0,0.0,40.0,2.0,0.0
3636,64.0,0.0,360.0,3.0,0.0
3637,40.0,0.0,360.0,4.0,0.0
3638,76.0,417.0,360.0,5.0,0.0
3639,52.0,0.0,360.0,6.0,0.0
3640,83.0,24.0,20.0,1.0,0.0
3641,74.0,0.0,20.0,2.0,0.0
3642,81.0,24.0,20.0,1.0,0.0
3643,72.0,0.0,20.0,2.0,0.0
3644,81.0,24.0,20.0,1.0,0.0
3645,72.0,0.0,20.0,2.0,0.0
3646,80.0,24.0,20.0,1.0,0.0
3647,71.0,0.0,20.0,2.0,0.0
3648,80.0,24.0,20.0,1.0,0.0
3649,71.0,0.0,20.0,2.0,0.0
3650,78.0,183.0,20.0,1.0,0.0
3651,69.0,0.0,20.0,2.0,0.0
3652,80.0,0.0,180.0,1.0,0.0
3653,71.0,0.0,180.0,2.0,0.0
3654,69.0,22.0,20.0,1.0,0.0
3655,64.0,0.0,40.0,2.0,0.0
3656,60.0,0.0,40.0,3.0,0.0
3657,57.0,0.0,40.0,4.0,0.0
3658,69.0,0.0,20.0,5.0,0.0
3659,57.0,2.0,40.0,6.0,0.0
3660,71.0,24.0,20.0,1.0,0.0
3661,71.0,0.0,20.0,5.0,0.0
3662,72.0,22.0,20.0,1.0,0.0
3663,69.0,0.0,40.0,2.0,0.0
3664,64.0,0.0,40.0,3.0,0.0
3665,45.0,0.0,40.0,4.0,0.0
3666,72.0,0.0,20.0,5.0,0.0
3667,45.0,2.0,40.0,6.0,0.0
3668,74.0,46.0,20.0,1.0,0.0
3669,74.0,0.0,20.0,5.0,0.0
3670,76.0,0.0,40.0,1.0,0.0
3671,72.0,26.0,40.0,2.0,0.0
3672,69.0,0.0,40.0,3.0,0.0
3673,57.0,0.0,60.0,4.0,0.0
3674,76.0,0.0,40.0,5.0,0.0
3675,57.0,22.0,60.0,6.0,0.0
3676,72.0,0.0,40.0,1.0,0.0
3677,69.0,0.0,40.0,2.0,0.0
3678,64.0,0.0,40.0,3.0,0.0
3679,72.0,2.0,40.0,5.0,0.0
3680,59.0,24.0,20.0,4.0,0.0
3681,59.0,0.0,20.0,6.0,0.0
3682,76.0,0.0,40.0,1.0,0.0
3683,69.0,2.0,40.0,2.0,0.0
3684,64.0,0.0,40.0,3.0,0.0
3685,60.0,22.0,20.0,4.0,0.0
3686,76.0,0.0,40.0,5.0,0.0
3687,60.0,0.0,20.0,6.0,0.0
3688,62.0,24.0,20.0,4.0,0.0
3689,62.0,0.0,20.0,6.0,0.0
3690,80.0,4.0,90.0,1.0,0.0
3691,74.0,0.0,90.0,2.0,0.0
3692,64.0,2.0,40.0,3.0,0.0
3693,59.0,22.0,20.0,4.0,0.0
3694,80.0,0.0,90.0,5.0,0.0
3695,59.0,0.0,20.0,6.0,0.0
3696,60.0,0.0,20.0,4.0,0.0
3697,60.0,14.0,20.0,6.0,0.0
3698,64.0,0.0,90.0,3.0,0.0
3699,57.0,3.0,90.0,4.0,0.0
3700,59.0,12.0,15.0,6.0,0.0
3701,57.0,12.0,15.0,6.0,0.0
3702,59.0,8.0,15.0,6.0,0.0
3703,57.0,12.0,15.0,6.0,0.0
3704,81.0,4.0,40.0,1.0,0.0
3705,72.0,0.0,40.0,2.0,0.0
3706,81.0,0.0,40.0,5.0,0.0
3707,59.0,12.0,15.0,6.0,0.0
3708,57.0,12.0,15.0,6.0,0.0
3709,59.0,5.0,15.0,6.0,0.0
3710,57.0,44.0,15.0,6.0,0.0
3711,76.0,0.0,40.0,1.0,0.0
3712,71.0,0.0,40.0,2.0,0.0
3713,64.0,0.0,40.0,3.0,0.0
3714,56.0,16.0,40.0,4.0,0.0
3715,76.0,0.0,40.0,5.0,0.0
3716,56.0,0.0,40.0,6.0,0.0
3717,74.0,10.0,15.0,1.0,0.0
3718,71.0,0.0,15.0,2.0,0.0
3719,64.0,5.0,90.0,3.0,0.0
3720,57.0,0.0,20.0,4.0,0.0
3721,74.0,0.0,15.0,5.0,0.0
3722,57.0,2.0,20.0,6.0,0.0
3723,72.0,0.0,15.0,1.0,0.0
3724,69.0,0.0,15.0,2.0,0.0
3725,72.0,12.0,15.0,5.0,0.0
3726,74.0,10.0,15.0,1.0,0.0
3727,71.0,0.0,15.0,2.0,0.0
3728,59.0,2.0,20.0,4.0,0.0
3729,74.0,0.0,15.0,5.0,0.0
3730,59.0,0.0,20.0,6.0,0.0
3731,72.0,0.0,15.0,1.0,0.0
3732,69.0,0.0,15.0,2.0,0.0
3733,72.0,12.0,15.0,5.0,0.0
3734,74.0,10.0,15.0,1.0,0.0
3735,71.0,0.0,15.0,2.0,0.0
3736,60.0,2.0,20.0,4.0,0.0
3737,74.0,0.0,15.0,5.0,0.0
3738,60.0,0.0,20.0,6.0,0.0
3739,72.0,0.0,15.0,1.0,0.0
3740,69.0,0.0,15.0,2.0,0.0
3741,72.0,12.0,15.0,5.0,0.0
3742,74.0,5.0,15.0,1.0,0.0
3743,71.0,0.0,15.0,2.0,0.0
3744,62.0,0.0,20.0,4.0,0.0
3745,74.0,0.0,15.0,5.0,0.0
3746,62.0,2.0,20.0,6.0,0.0
3747,72.0,0.0,15.0,1.0,0.0
3748,69.0,0.0,15.0,2.0,0.0
3749,72.0,22.0,15.0,5.0,0.0
3750,71.0,0.0,40.0,1.0,0.0
3751,68.0,2.0,40.0,2.0,0.0
3752,64.0,0.0,40.0,3.0,0.0
3753,64.0,22.0,20.0,4.0,0.0
3754,71.0,0.0,40.0,5.0,0.0
3755,64.0,0.0,20.0,6.0,0.0
3756,62.0,24.0,20.0,4.0,0.0
3757,62.0,0.0,20.0,6.0,0.0
3758,69.0,22.0,20.0,1.0,0.0
3759,64.0,0.0,40.0,2.0,0.0
3760,64.0,0.0,40.0,3.0,0.0
3761,60.0,0.0,40.0,4.0,0.0
3762,69.0,0.0,20.0,5.0,0.0
3763,60.0,2.0,40.0,6.0,0.0
3764,71.0,24.0,20.0,1.0,0.0
3765,71.0,0.0,20.0,5.0,0.0
3766,72.0,22.0,20.0,1.0,0.0
3767,69.0,0.0,40.0,2.0,0.0
3768,64.0,0.0,40.0,3.0,0.0
3769,57.0,0.0,40.0,4.0,0.0
3770,72.0,0.0,20.0,5.0,0.0
3771,57.0,2.0,40.0,6.0,0.0
3772,74.0,46.0,20.0,1.0,0.0
3773,74.0,0.0,20.0,5.0,0.0
3774,76.0,0.0,40.0,1.0,0.0
3775,71.0,0.0,40.0,2.0,0.0
3776,64.0,0.0,40.0,3.0,0.0
3777,56.0,26.0,40.0,4.0,0.0
3778,76.0,0.0,40.0,5.0,0.0
3779,56.0,0.0,40.0,6.0,0.0
3780,72.0,0.0,40.0,1.0,0.0
3781,69.0,2.0,40.0,2.0,0.0
3782,64.0,0.0,40.0,3.0,0.0
3783,57.0,22.0,20.0,4.0,0.0
3784,72.0,0.0,40.0,5.0,0.0
3785,57.0,0.0,20.0,6.0,0.0
3786,59.0,24.0,20.0,4.0,0.0
3787,59.0,0.0,20.0,6.0,0.0
3788,76.0,0.0,40.0,1.0,0.0
3789,69.0,2.0,40.0,2.0,0.0
3790,64.0,0.0,40.0,3.0,0.0
3791,60.0,22.0,20.0,4.0,0.0
3792,76.0,0.0,40.0,5.0,0.0
3793,60.0,0.0,20.0,6.0,0.0
3794,59.0,24.0,20.0,4.0,0.0
3795,59.0,0.0,20.0,6.0,0.0
3796,81.0,0.0,40.0,1.0,0.0
3797,76.0,2.0,40.0,2.0,0.0
3798,72.0,0.0,40.0,3.0,0.0
3799,60.0,22.0,20.0,4.0,0.0
3800,81.0,0.0,40.0,5.0,0.0
3801,60.0,0.0,20.0,6.0,0.0
3802,57.0,46.0,20.0,4.0,0.0
3803,57.0,0.0,20.0,6.0,0.0
3804,83.0,0.0,40.0,1.0,0.0
3805,76.0,0.0,40.0,2.0,0.0
3806,68.0,0.0,40.0,3.0,0.0
3807,64.0,48.0,40.0,4.0,0.0
3808,83.0,0.0,40.0,5.0,0.0
3809,64.0,0.0,40.0,6.0,0.0
3810,76.0,0.0,40.0,1.0,0.0
3811,68.0,0.0,40.0,2.0,0.0
3812,71.0,0.0,40.0,3.0,0.0
3813,52.0,96.0,40.0,4.0,0.0
3814,76.0,0.0,40.0,5.0,0.0
3815,52.0,0.0,40.0,6.0,0.0
3816,71.0,48.0,40.0,1.0,0.0
3817,68.0,0.0,40.0,2.0,0.0
3818,64.0,0.0,40.0,3.0,0.0
3819,64.0,74.0,40.0,1.0,0.0
3820,59.0,0.0,40.0,2.0,0.0
3821,56.0,0.0,40.0,3.0,0.0
3822,84.0,22.0,20.0,1.0,0.0
3823,69.0,0.0,40.0,2.0,0.0
3824,64.0,0.0,40.0,3.0,0.0
3825,57.0,0.0,40.0,4.0,0.0
3826,84.0,0.0,20.0,5.0,0.0
3827,57.0,2.0,40.0,6.0,0.0
3828,83.0,24.0,20.0,1.0,0.0
3829,83.0,0.0,20.0,5.0,0.0
3830,81.0,0.0,20.0,1.0,0.0
3831,76.0,22.0,20.0,2.0,0.0
3832,72.0,0.0,20.0,3.0,0.0
3833,45.0,0.0,40.0,4.0,0.0
3834,81.0,0.0,20.0,5.0,0.0
3835,45.0,2.0,40.0,6.0,0.0
3836,79.0,24.0,20.0,1.0,0.0
3837,74.0,0.0,20.0,2.0,0.0
3838,71.0,0.0,20.0,3.0,0.0
3839,79.0,0.0,20.0,5.0,0.0
3840,77.0,2.0,90.0,1.0,0.0
3841,72.0,22.0,20.0,2.0,0.0
3842,69.0,0.0,20.0,3.0,0.0
3843,57.0,0.0,40.0,4.0,0.0
3844,77.0,0.0,90.0,5.0,0.0
3845,57.0,2.0,40.0,6.0,0.0
3846,71.0,0.0,20.0,2.0,0.0
3847,67.0,24.0,20.0,3.0,0.0
3848,69.0,0.0,150.0,2.0,0.0
3849,65.0,0.0,20.0,3.0,0.0
3850,50.0,22.0,20.0,4.0,0.0
3851,50.0,0.0,20.0,6.0,0.0
3852,64.0,0.0,20.0,3.0,0.0
3853,48.0,0.0,20.0,4.0,0.0
3854,48.0,24.0,20.0,6.0,0.0
3855,76.0,0.0,40.0,1.0,0.0
3856,65.0,0.0,20.0,3.0,0.0
3857,50.0,22.0,20.0,4.0,0.0
3858,76.0,2.0,40.0,5.0,0.0
3859,50.0,0.0,20.0,6.0,0.0
3860,67.0,0.0,20.0,3.0,0.0
3861,52.0,0.0,20.0,4.0,0.0
3862,52.0,24.0,20.0,6.0,0.0
3863,74.0,0.0,40.0,1.0,0.0
3864,69.0,0.0,20.0,3.0,0.0
3865,53.0,22.0,20.0,4.0,0.0
3866,74.0,2.0,40.0,5.0,0.0
3867,53.0,0.0,20.0,6.0,0.0
3868,65.0,0.0,20.0,3.0,0.0
3869,50.0,0.0,20.0,4.0,0.0
3870,50.0,24.0,20.0,6.0,0.0
3871,83.0,22.0,20.0,1.0,0.0
3872,67.0,0.0,40.0,2.0,0.0
3873,62.0,0.0,40.0,3.0,0.0
3874,55.0,0.0,40.0,4.0,0.0
3875,83.0,0.0,20.0,5.0,0.0
3876,55.0,2.0,40.0,6.0,0.0
3877,81.0,24.0,20.0,1.0,0.0
3878,81.0,0.0,20.0,5.0,0.0
3879,79.0,0.0,20.0,1.0,0.0
3880,74.0,22.0,20.0,2.0,0.0
3881,71.0,0.0,20.0,3.0,0.0
3882,43.0,0.0,40.0,4.0,0.0
3883,79.0,0.0,20.0,5.0,0.0
3884,43.0,2.0,40.0,6.0,0.0
3885,77.0,24.0,20.0,1.0,0.0
3886,72.0,0.0,20.0,2.0,0.0
3887,69.0,0.0,20.0,3.0,0.0
3888,77.0,0.0,20.0,5.0,0.0
3889,76.0,0.0,90.0,1.0,0.0
3890,71.0,24.0,20.0,2.0,0.0
3891,67.0,0.0,20.0,3.0,0.0
3892,55.0,0.0,90.0,4.0,0.0
3893,76.0,2.0,90.0,5.0,0.0
3894,55.0,0.0,90.0,6.0,0.0
3895,69.0,24.0,20.0,2.0,0.0
3896,65.0,0.0,20.0,3.0,0.0
3897,67.0,0.0,150.0,2.0,0.0
3898,64.0,22.0,20.0,3.0,0.0
3899,48.0,0.0,20.0,4.0,0.0
3900,48.0,0.0,20.0,6.0,0.0
3901,62.0,24.0,20.0,3.0,0.0
3902,47.0,0.0,20.0,4.0,0.0
3903,47.0,0.0,20.0,6.0,0.0
3904,74.0,0.0,40.0,1.0,0.0
3905,64.0,0.0,20.0,3.0,0.0
3906,48.0,22.0,20.0,4.0,0.0
3907,74.0,2.0,40.0,5.0,0.0
3908,48.0,0.0,20.0,6.0,0.0
3909,65.0,0.0,20.0,3.0,0.0
3910,50.0,0.0,20.0,4.0,0.0
3911,50.0,24.0,20.0,6.0,0.0
3912,72.0,0.0,40.0,1.0,0.0
3913,67.0,0.0,20.0,3.0,0.0
3914,52.0,22.0,20.0,4.0,0.0
3915,72.0,2.0,40.0,5.0,0.0
3916,52.0,0.0,20.0,6.0,0.0
3917,64.0,0.0,20.0,3.0,0.0
3918,48.0,0.0,20.0,4.0,0.0
3919,48.0,24.0,20.0,6.0,0.0
3920,74.0,22.0,20.0,1.0,0.0
3921,69.0,0.0,40.0,2.0,0.0
3922,65.0,0.0,40.0,3.0,0.0
3923,53.0,0.0,40.0,4.0,0.0
3924,74.0,0.0,20.0,5.0,0.0
3925,53.0,2.0,40.0,6.0,0.0
3926,76.0,24.0,20.0,1.0,0.0
3927,76.0,0.0,20.0,5.0,0.0
3928,77.0,22.0,20.0,1.0,0.0
3929,74.0,0.0,40.0,2.0,0.0
3930,69.0,0.0,40.0,3.0,0.0
3931,50.0,0.0,40.0,4.0,0.0
3932,77.0,0.0,20.0,5.0,0.0
3933,50.0,2.0,40.0,6.0,0.0
3934,79.0,46.0,20.0,1.0,0.0
3935,79.0,0.0,20.0,5.0,0.0
3936,81.0,0.0,40.0,1.0,0.0
3937,69.0,0.0,40.0,2.0,0.0
3938,62.0,0.0,40.0,3.0,0.0
3939,53.0,26.0,40.0,4.0,0.0
3940,81.0,0.0,40.0,5.0,0.0
3941,53.0,0.0,40.0,6.0,0.0
3942,72.0,0.0,40.0,1.0,0.0
3943,67.0,2.0,40.0,2.0,0.0
3944,62.0,0.0,40.0,3.0,0.0
3945,55.0,22.0,20.0,4.0,0.0
3946,72.0,0.0,40.0,5.0,0.0
3947,55.0,0.0,20.0,6.0,0.0
3948,57.0,24.0,20.0,4.0,0.0
3949,57.0,0.0,20.0,6.0,0.0
3950,71.0,0.0,40.0,1.0,0.0
3951,62.0,2.0,40.0,2.0,0.0
3952,67.0,0.0,40.0,3.0,0.0
3953,55.0,22.0,20.0,4.0,0.0
3954,71.0,0.0,40.0,5.0,0.0
3955,55.0,0.0,20.0,6.0,0.0
3956,53.0,24.0,20.0,4.0,0.0
3957,53.0,0.0,20.0,6.0,0.0
3958,77.0,0.0,90.0,1.0,0.0
3959,71.0,0.0,90.0,2.0,0.0
3960,67.0,2.0,40.0,3.0,0.0
3961,52.0,22.0,20.0,4.0,0.0
3962,77.0,0.0,90.0,5.0,0.0
3963,52.0,0.0,20.0,6.0,0.0
3964,50.0,0.0,20.0,4.0,0.0
3965,50.0,46.0,20.0,6.0,0.0
3966,67.0,48.0,40.0,3.0,0.0
3967,48.0,0.0,40.0,4.0,0.0
3968,48.0,0.0,40.0,6.0,0.0
3969,76.0,0.0,40.0,1.0,0.0
3970,72.0,0.0,40.0,2.0,0.0
3971,67.0,0.0,40.0,3.0,0.0
3972,60.0,96.0,40.0,4.0,0.0
3973,76.0,0.0,40.0,5.0,0.0
3974,60.0,0.0,40.0,6.0,0.0
3975,65.0,48.0,40.0,1.0,0.0
3976,62.0,0.0,40.0,2.0,0.0
3977,59.0,0.0,40.0,3.0,0.0
3978,64.0,74.0,40.0,1.0,0.0
3979,60.0,0.0,40.0,2.0,0.0
3980,60.0,0.0,40.0,3.0,0.0
3981,81.0,22.0,20.0,1.0,0.0
3982,62.0,0.0,40.0,2.0,0.0
3983,57.0,2.0,40.0,3.0,0.0
3984,53.0,0.0,150.0,4.0,0.0
3985,81.0,0.0,20.0,5.0,0.0
3986,53.0,0.0,150.0,6.0,0.0
3987,79.0,0.0,20.0,1.0,0.0
3988,79.0,24.0,20.0,5.0,0.0
3989,77.0,22.0,20.0,1.0,0.0
3990,65.0,0.0,40.0,2.0,0.0
3991,62.0,2.0,40.0,3.0,0.0
3992,77.0,0.0,20.0,5.0,0.0
3993,76.0,0.0,20.0,1.0,0.0
3994,76.0,24.0,20.0,5.0,0.0
3995,74.0,22.0,20.0,1.0,0.0
3996,67.0,0.0,40.0,2.0,0.0
3997,64.0,2.0,40.0,3.0,0.0
3998,74.0,0.0,20.0,5.0,0.0
3999,73.0,0.0,20.0,1.0,0.0
4000,73.0,24.0,20.0,5.0,0.0
4001,74.0,24.0,20.0,1.0,0.0
4002,69.0,0.0,60.0,2.0,0.0
4003,65.0,0.0,60.0,3.0,0.0
4004,74.0,0.0,20.0,5.0,0.0
4005,69.0,0.0,20.0,1.0,0.0
4006,55.0,0.0,20.0,4.0,0.0
4007,69.0,24.0,20.0,5.0,0.0
4008,55.0,0.0,20.0,6.0,0.0
4009,74.0,0.0,20.0,1.0,0.0
4010,53.0,24.0,20.0,4.0,0.0
4011,74.0,0.0,20.0,5.0,0.0
4012,53.0,0.0,20.0,6.0,0.0
4013,76.0,0.0,20.0,1.0,0.0
4014,67.0,0.0,20.0,2.0,0.0
4015,67.0,0.0,20.0,3.0,0.0
4016,52.0,24.0,20.0,4.0,0.0
4017,76.0,0.0,20.0,5.0,0.0
4018,52.0,0.0,20.0,6.0,0.0
4019,77.0,22.0,60.0,1.0,0.0
4020,65.0,0.0,20.0,2.0,0.0
4021,69.0,0.0,60.0,3.0,0.0
4022,50.0,24.0,20.0,4.0,0.0
4023,77.0,0.0,60.0,5.0,0.0
4024,50.0,0.0,20.0,6.0,0.0
4025,64.0,0.0,20.0,2.0,0.0
4026,49.0,24.0,20.0,4.0,0.0
4027,49.0,0.0,20.0,6.0,0.0
4028,62.0,2.0,40.0,2.0,0.0
4029,50.0,0.0,150.0,4.0,0.0
4030,50.0,0.0,150.0,6.0,0.0
4031,76.0,0.0,20.0,1.0,0.0
4032,67.0,0.0,20.0,3.0,0.0
4033,76.0,24.0,20.0,5.0,0.0
4034,74.0,0.0,20.0,1.0,0.0
4035,69.0,2.0,40.0,2.0,0.0
4036,65.0,22.0,20.0,3.0,0.0
4037,74.0,0.0,20.0,5.0,0.0
4038,72.0,0.0,20.0,1.0,0.0
4039,64.0,0.0,20.0,3.0,0.0
4040,72.0,24.0,20.0,5.0,0.0
4041,70.0,0.0,20.0,1.0,0.0
4042,65.0,2.0,40.0,2.0,0.0
4043,62.0,22.0,20.0,3.0,0.0
4044,70.0,0.0,20.0,5.0,0.0
4045,69.0,0.0,20.0,1.0,0.0
4046,60.0,0.0,20.0,3.0,0.0
4047,69.0,24.0,20.0,5.0,0.0
4048,68.0,0.0,20.0,1.0,0.0
4049,64.0,24.0,20.0,2.0,0.0
4050,59.0,0.0,20.0,3.0,0.0
4051,68.0,0.0,20.0,5.0,0.0
4052,69.0,0.0,20.0,1.0,0.0
4053,66.0,0.0,20.0,2.0,0.0
4054,60.0,0.0,20.0,3.0,0.0
4055,48.0,24.0,20.0,4.0,0.0
4056,69.0,0.0,20.0,5.0,0.0
4057,48.0,0.0,20.0,6.0,0.0
4058,71.0,0.0,20.0,1.0,0.0
4059,68.0,0.0,20.0,2.0,0.0
4060,62.0,0.0,20.0,3.0,0.0
4061,47.0,24.0,20.0,4.0,0.0
4062,71.0,0.0,20.0,5.0,0.0
4063,47.0,0.0,20.0,6.0,0.0
4064,72.0,0.0,20.0,1.0,0.0
4065,69.0,0.0,20.0,2.0,0.0
4066,60.0,0.0,20.0,3.0,0.0
4067,45.0,24.0,20.0,4.0,0.0
4068,72.0,0.0,20.0,5.0,0.0
4069,45.0,0.0,20.0,6.0,0.0
4070,74.0,22.0,60.0,1.0,0.0
4071,71.0,0.0,60.0,2.0,0.0
4072,59.0,0.0,20.0,3.0,0.0
4073,44.0,24.0,20.0,4.0,0.0
4074,74.0,0.0,60.0,5.0,0.0
4075,44.0,0.0,20.0,6.0,0.0
4076,57.0,0.0,20.0,3.0,0.0
4077,42.0,24.0,20.0,4.0,0.0
4078,42.0,0.0,20.0,6.0,0.0
4079,56.0,0.0,40.0,3.0,0.0
4080,40.0,2.0,40.0,4.0,0.0
4081,40.0,0.0,40.0,6.0,0.0
4082,76.0,0.0,20.0,1.0,0.0
4083,72.0,0.0,20.0,2.0,0.0
4084,76.0,24.0,20.0,5.0,0.0
4085,78.0,22.0,20.0,1.0,0.0
4086,74.0,2.0,40.0,2.0,0.0
4087,78.0,0.0,20.0,5.0,0.0
4088,80.0,0.0,20.0,1.0,0.0
4089,52.0,0.0,20.0,4.0,0.0
4090,80.0,0.0,20.0,5.0,0.0
4091,52.0,24.0,20.0,6.0,0.0
4092,81.0,0.0,20.0,1.0,0.0
4093,64.0,0.0,40.0,2.0,0.0
4094,74.0,2.0,40.0,3.0,0.0
4095,54.0,0.0,20.0,4.0,0.0
4096,81.0,22.0,20.0,5.0,0.0
4097,54.0,0.0,20.0,6.0,0.0
4098,83.0,46.0,20.0,1.0,0.0
4099,56.0,0.0,20.0,4.0,0.0
4100,83.0,0.0,20.0,5.0,0.0
4101,56.0,0.0,20.0,6.0,0.0
4102,84.0,0.0,40.0,1.0,0.0
4103,76.0,0.0,40.0,2.0,0.0
4104,72.0,0.0,40.0,3.0,0.0
4105,57.0,48.0,40.0,4.0,0.0
4106,84.0,0.0,40.0,5.0,0.0
4107,57.0,0.0,40.0,6.0,0.0
4108,80.0,0.0,40.0,1.0,0.0
4109,74.0,0.0,40.0,2.0,0.0
4110,71.0,0.0,40.0,3.0,0.0
4111,59.0,48.0,40.0,4.0,0.0
4112,80.0,0.0,40.0,5.0,0.0
4113,59.0,0.0,40.0,6.0,0.0
4114,81.0,0.0,40.0,1.0,0.0
4115,76.0,0.0,40.0,2.0,0.0
4116,69.0,0.0,90.0,3.0,0.0
4117,60.0,0.0,40.0,4.0,0.0
4118,81.0,48.0,40.0,5.0,0.0
4119,60.0,0.0,40.0,6.0,0.0
4120,72.0,0.0,40.0,1.0,0.0
4121,69.0,0.0,40.0,2.0,0.0
4122,53.0,48.0,40.0,4.0,0.0
4123,72.0,0.0,40.0,5.0,0.0
4124,69.0,0.0,40.0,5.0,0.0
4125,53.0,0.0,40.0,6.0,0.0
4126,74.0,0.0,40.0,1.0,0.0
4127,71.0,0.0,40.0,2.0,0.0
4128,65.0,0.0,40.0,3.0,0.0
4129,50.0,16.0,40.0,4.0,0.0
4130,71.0,0.0,40.0,5.0,0.0
4131,74.0,0.0,40.0,5.0,0.0
4132,50.0,0.0,40.0,6.0,0.0
4133,72.0,12.0,15.0,1.0,0.0
4134,68.0,0.0,40.0,2.0,0.0
4135,64.0,0.0,40.0,3.0,0.0
4136,52.0,0.0,40.0,4.0,0.0
4137,68.0,0.0,40.0,5.0,0.0
4138,71.0,0.0,40.0,5.0,0.0
4139,52.0,4.0,40.0,6.0,0.0
4140,71.0,12.0,15.0,1.0,0.0
4141,72.0,8.0,15.0,1.0,0.0
4142,71.0,89.0,15.0,1.0,0.0
4143,69.0,3.0,90.0,1.0,0.0
4144,64.0,0.0,90.0,2.0,0.0
4145,60.0,0.0,90.0,3.0,0.0
4146,45.0,0.0,90.0,4.0,0.0
4147,60.0,0.0,90.0,5.0,0.0
4148,69.0,0.0,90.0,5.0,0.0
4149,64.0,0.0,90.0,5.0,0.0
4150,45.0,74.0,90.0,6.0,0.0
4151,69.0,2.0,40.0,2.0,0.0
4152,69.0,22.0,20.0,5.0,0.0
4153,64.0,24.0,20.0,5.0,0.0
4154,72.0,2.0,40.0,2.0,0.0
4155,69.0,22.0,20.0,5.0,0.0
4156,71.0,24.0,20.0,5.0,0.0
4157,76.0,2.0,40.0,2.0,0.0
4158,72.0,22.0,20.0,5.0,0.0
4159,71.0,24.0,20.0,5.0,0.0
4160,69.0,22.0,20.0,1.0,0.0
4161,72.0,0.0,40.0,2.0,0.0
4162,69.0,2.0,40.0,5.0,0.0
4163,57.0,0.0,40.0,6.0,0.0
4164,64.0,14.0,20.0,1.0,0.0
4165,69.0,2.0,20.0,1.0,0.0
4166,76.0,0.0,40.0,2.0,0.0
4167,76.0,10.0,15.0,5.0,0.0
4168,60.0,2.0,40.0,6.0,0.0
4169,74.0,20.0,15.0,5.0,0.0
4170,71.0,24.0,20.0,1.0,0.0
4171,76.0,22.0,90.0,5.0,0.0
4172,72.0,22.0,20.0,1.0,0.0
4173,81.0,2.0,40.0,2.0,0.0
4174,64.0,0.0,40.0,6.0,0.0
4175,71.0,24.0,20.0,1.0,0.0
4176,69.0,0.0,40.0,1.0,0.0
4177,76.0,0.0,40.0,2.0,0.0
4178,55.0,0.0,40.0,3.0,0.0
4179,45.0,0.0,40.0,4.0,0.0
4180,45.0,2.0,40.0,6.0,0.0
4181,74.0,24.0,20.0,5.0,0.0
4182,76.0,22.0,120.0,1.0,0.0
4183,69.0,0.0,40.0,2.0,0.0
4184,59.0,0.0,40.0,3.0,0.0
4185,48.0,0.0,40.0,4.0,0.0
4186,72.0,22.0,20.0,5.0,0.0
4187,48.0,2.0,40.0,6.0,0.0
4188,71.0,24.0,20.0,5.0,0.0
4189,71.0,0.0,40.0,2.0,0.0
4190,62.0,0.0,40.0,3.0,0.0
4191,52.0,0.0,40.0,4.0,0.0
4192,69.0,22.0,20.0,5.0,0.0
4193,52.0,2.0,40.0,6.0,0.0
4194,68.0,24.0,20.0,5.0,0.0
4195,72.0,0.0,40.0,2.0,0.0
4196,59.0,0.0,40.0,3.0,0.0
4197,48.0,0.0,40.0,4.0,0.0
4198,69.0,0.0,40.0,5.0,0.0
4199,48.0,2.0,40.0,6.0,0.0
4200,74.0,24.0,20.0,1.0,0.0
4201,72.0,22.0,20.0,1.0,0.0
4202,76.0,0.0,40.0,2.0,0.0
4203,55.0,0.0,40.0,3.0,0.0
4204,45.0,0.0,40.0,4.0,0.0
4205,76.0,22.0,120.0,5.0,0.0
4206,45.0,2.0,40.0,6.0,0.0
4207,71.0,24.0,20.0,1.0,0.0
4208,69.0,22.0,20.0,1.0,0.0
4209,71.0,0.0,40.0,2.0,0.0
4210,57.0,0.0,40.0,3.0,0.0
4211,47.0,0.0,40.0,4.0,0.0
4212,47.0,2.0,40.0,6.0,0.0
4213,68.0,24.0,20.0,1.0,0.0
4214,69.0,0.0,40.0,1.0,0.0
4215,69.0,0.0,40.0,2.0,0.0
4216,59.0,0.0,40.0,3.0,0.0
4217,48.0,0.0,40.0,4.0,0.0
4218,48.0,2.0,40.0,6.0,0.0
4219,81.0,24.0,20.0,5.0,0.0
4220,74.0,2.0,150.0,1.0,0.0
4221,83.0,22.0,20.0,5.0,0.0
4222,53.0,2.0,40.0,6.0,0.0
4223,84.0,24.0,20.0,5.0,0.0
4224,83.0,22.0,20.0,5.0,0.0
4225,50.0,2.0,40.0,6.0,0.0
4226,81.0,24.0,20.0,5.0,0.0
4227,80.0,22.0,20.0,5.0,0.0
4228,52.0,0.0,20.0,6.0,0.0
4229,81.0,14.0,20.0,5.0,0.0
4230,53.0,0.0,20.0,6.0,0.0
4231,81.0,10.0,15.0,1.0,0.0
4232,83.0,2.0,20.0,5.0,0.0
4233,52.0,0.0,20.0,6.0,0.0
4234,80.0,12.0,15.0,1.0,0.0
4235,81.0,10.0,15.0,1.0,0.0
4236,77.0,2.0,20.0,5.0,0.0
4237,50.0,0.0,20.0,6.0,0.0
4238,80.0,12.0,15.0,1.0,0.0
4239,81.0,10.0,15.0,1.0,0.0
4240,76.0,2.0,20.0,5.0,0.0
4241,48.0,0.0,20.0,6.0,0.0
4242,80.0,12.0,15.0,1.0,0.0
4243,81.0,10.0,15.0,1.0,0.0
4244,74.0,2.0,20.0,5.0,0.0
4245,47.0,0.0,20.0,6.0,0.0
4246,80.0,22.0,15.0,1.0,0.0
4247,81.0,2.0,40.0,1.0,0.0
4248,72.0,22.0,20.0,5.0,0.0
4249,45.0,0.0,20.0,6.0,0.0
4250,76.0,24.0,20.0,5.0,0.0
4251,43.0,0.0,20.0,6.0,0.0
4252,69.0,2.0,40.0,1.0,0.0
4253,74.0,22.0,20.0,5.0,0.0
4254,41.0,0.0,40.0,6.0,0.0
4255,72.0,24.0,20.0,5.0,0.0
4256,74.0,2.0,40.0,1.0,0.0
4257,71.0,22.0,20.0,5.0,0.0
4258,53.0,0.0,40.0,6.0,0.0
4259,69.0,24.0,20.0,5.0,0.0
4260,76.0,3.0,120.0,1.0,0.0
4261,68.0,22.0,20.0,5.0,0.0
4262,52.0,2.0,40.0,6.0,0.0
4263,69.0,24.0,20.0,5.0,0.0
4264,71.0,24.0,20.0,5.0,0.0
4265,64.0,0.0,20.0,6.0,0.0
4266,68.0,24.0,20.0,5.0,0.0
4267,62.0,0.0,20.0,6.0,0.0
4268,64.0,2.0,40.0,5.0,0.0
4269,60.0,19.0,20.0,6.0,0.0
4270,59.0,14.0,20.0,6.0,0.0
4271,69.0,2.0,20.0,1.0,0.0
4272,64.0,0.0,40.0,2.0,0.0
4273,60.0,2.0,40.0,3.0,0.0
4274,77.0,10.0,15.0,5.0,0.0
4275,60.0,0.0,40.0,6.0,0.0
4276,76.0,12.0,15.0,5.0,0.0
4277,71.0,2.0,20.0,1.0,0.0
4278,77.0,8.0,15.0,5.0,0.0
4279,76.0,12.0,15.0,5.0,0.0
4280,72.0,2.0,20.0,1.0,0.0
4281,69.0,0.0,40.0,2.0,0.0
4282,64.0,2.0,40.0,3.0,0.0
4283,77.0,10.0,15.0,5.0,0.0
4284,57.0,0.0,40.0,6.0,0.0
4285,76.0,12.0,15.0,5.0,0.0
4286,74.0,2.0,20.0,1.0,0.0
4287,77.0,8.0,15.0,5.0,0.0
4288,76.0,12.0,15.0,5.0,0.0
4289,76.0,0.0,40.0,1.0,0.0
4290,71.0,4.0,40.0,2.0,0.0
4291,59.0,0.0,40.0,3.0,0.0
4292,77.0,12.0,15.0,5.0,0.0
4293,56.0,0.0,40.0,6.0,0.0
4294,76.0,12.0,15.0,5.0,0.0
4295,77.0,8.0,15.0,5.0,0.0
4296,76.0,12.0,15.0,5.0,0.0
4297,72.0,0.0,40.0,1.0,0.0
4298,69.0,0.0,40.0,2.0,0.0
4299,60.0,2.0,40.0,3.0,0.0
4300,45.0,0.0,20.0,4.0,0.0
4301,77.0,10.0,15.0,5.0,0.0
4302,57.0,2.0,20.0,6.0,0.0
4303,76.0,12.0,15.0,5.0,0.0
4304,47.0,0.0,20.0,4.0,0.0
4305,77.0,8.0,15.0,5.0,0.0
4306,59.0,2.0,20.0,6.0,0.0
4307,76.0,12.0,15.0,5.0,0.0
4308,76.0,0.0,40.0,1.0,0.0
4309,64.0,0.0,40.0,2.0,0.0
4310,57.0,2.0,40.0,3.0,0.0
4311,48.0,0.0,20.0,4.0,0.0
4312,77.0,10.0,15.0,5.0,0.0
4313,60.0,2.0,20.0,6.0,0.0
4314,76.0,12.0,15.0,5.0,0.0
4315,50.0,0.0,20.0,4.0,0.0
4316,77.0,8.0,15.0,5.0,0.0
4317,62.0,2.0,20.0,6.0,0.0
4318,76.0,12.0,15.0,5.0,0.0
4319,80.0,0.0,90.0,1.0,0.0
4320,71.0,4.0,90.0,2.0,0.0
4321,52.0,2.0,40.0,3.0,0.0
4322,52.0,0.0,20.0,4.0,0.0
4323,77.0,10.0,15.0,5.0,0.0
4324,64.0,2.0,20.0,6.0,0.0
4325,76.0,12.0,15.0,5.0,0.0
4326,50.0,0.0,20.0,4.0,0.0
4327,77.0,8.0,15.0,5.0,0.0
4328,62.0,2.0,20.0,6.0,0.0
4329,76.0,12.0,15.0,5.0,0.0
4330,64.0,0.0,40.0,3.0,0.0
4331,48.0,0.0,90.0,4.0,0.0
4332,77.0,12.0,15.0,5.0,0.0
4333,60.0,3.0,90.0,6.0,0.0
4334,76.0,12.0,15.0,5.0,0.0
4335,77.0,8.0,15.0,5.0,0.0
4336,76.0,12.0,15.0,5.0,0.0
4337,81.0,4.0,40.0,1.0,0.0
4338,72.0,0.0,40.0,2.0,0.0
4339,57.0,0.0,40.0,3.0,0.0
4340,77.0,12.0,15.0,5.0,0.0
4341,76.0,12.0,15.0,5.0,0.0
4342,77.0,5.0,15.0,5.0,0.0
4343,76.0,12.0,15.0,5.0,0.0
4344,76.0,0.0,40.0,1.0,0.0
4345,71.0,0.0,40.0,2.0,0.0
4346,59.0,0.0,40.0,3.0,0.0
4347,44.0,0.0,40.0,4.0,0.0
4348,77.0,12.0,15.0,5.0,0.0
4349,56.0,16.0,40.0,6.0,0.0
4350,76.0,12.0,15.0,5.0,0.0
4351,77.0,8.0,15.0,5.0,0.0
4352,76.0,2.0,30.0,5.0,0.0
4353,74.0,10.0,15.0,1.0,0.0
4354,69.0,3.0,90.0,2.0,0.0
4355,60.0,0.0,20.0,3.0,0.0
4356,45.0,2.0,40.0,4.0,0.0
4357,57.0,0.0,40.0,6.0,0.0
4358,72.0,12.0,15.0,1.0,0.0
4359,74.0,8.0,15.0,1.0,0.0
4360,62.0,0.0,20.0,3.0,0.0
4361,81.0,2.0,20.0,5.0,0.0
4362,72.0,12.0,15.0,1.0,0.0
4363,74.0,10.0,15.0,1.0,0.0
4364,64.0,3.0,90.0,3.0,0.0
4365,52.0,0.0,40.0,4.0,0.0
4366,80.0,2.0,20.0,5.0,0.0
4367,64.0,2.0,40.0,6.0,0.0
4368,72.0,12.0,15.0,1.0,0.0
4369,74.0,5.0,15.0,1.0,0.0
4370,77.0,2.0,20.0,5.0,0.0
4371,72.0,22.0,15.0,1.0,0.0
4372,71.0,0.0,40.0,1.0,0.0
4373,68.0,0.0,40.0,2.0,0.0
4374,40.0,0.0,40.0,4.0,0.0
4375,76.0,19.0,20.0,5.0,0.0
4376,52.0,2.0,40.0,6.0,0.0
4377,74.0,24.0,20.0,5.0,0.0
4378,72.0,22.0,20.0,5.0,0.0
4379,57.0,2.0,40.0,6.0,0.0
4380,76.0,24.0,20.0,5.0,0.0
4381,74.0,22.0,20.0,5.0,0.0
4382,59.0,2.0,40.0,6.0,0.0
4383,72.0,24.0,20.0,5.0,0.0
4384,71.0,24.0,20.0,5.0,0.0
4385,60.0,22.0,60.0,6.0,0.0
4386,69.0,24.0,20.0,5.0,0.0
4387,78.0,2.0,40.0,5.0,0.0
4388,57.0,24.0,20.0,6.0,0.0
4389,74.0,0.0,40.0,1.0,0.0
4390,71.0,2.0,40.0,2.0,0.0
4391,67.0,0.0,40.0,3.0,0.0
4392,78.0,0.0,40.0,5.0,0.0
4393,59.0,22.0,20.0,6.0,0.0
4394,60.0,24.0,20.0,6.0,0.0
4395,71.0,0.0,40.0,1.0,0.0
4396,67.0,2.0,40.0,2.0,0.0
4397,62.0,0.0,40.0,3.0,0.0
4398,79.0,0.0,40.0,5.0,0.0
4399,62.0,22.0,20.0,6.0,0.0
4400,59.0,24.0,20.0,6.0,0.0
4401,71.0,22.0,20.0,5.0,0.0
4402,55.0,2.0,40.0,6.0,0.0
4403,74.0,24.0,20.0,5.0,0.0
4404,72.0,22.0,20.0,5.0,0.0
4405,57.0,2.0,40.0,6.0,0.0
4406,71.0,24.0,20.0,5.0,0.0
4407,69.0,24.0,20.0,5.0,0.0
4408,58.0,22.0,60.0,6.0,0.0
4409,67.0,24.0,20.0,5.0,0.0
4410,76.0,2.0,40.0,5.0,0.0
4411,55.0,24.0,20.0,6.0,0.0
4412,72.0,0.0,40.0,1.0,0.0
4413,69.0,2.0,40.0,2.0,0.0
4414,65.0,0.0,40.0,3.0,0.0
4415,76.0,0.0,40.0,5.0,0.0
4416,57.0,22.0,20.0,6.0,0.0
4417,58.0,24.0,20.0,6.0,0.0
4418,69.0,0.0,40.0,1.0,0.0
4419,65.0,2.0,40.0,2.0,0.0
4420,60.0,0.0,40.0,3.0,0.0
4421,77.0,0.0,40.0,5.0,0.0
4422,60.0,22.0,20.0,6.0,0.0
4423,57.0,24.0,20.0,6.0,0.0
4424,69.0,22.0,20.0,5.0,0.0
4425,53.0,2.0,40.0,6.0,0.0
4426,72.0,24.0,20.0,5.0,0.0
4427,74.0,22.0,20.0,5.0,0.0
4428,57.0,2.0,40.0,6.0,0.0
4429,72.0,24.0,20.0,5.0,0.0
4430,71.0,22.0,20.0,5.0,0.0
4431,60.0,2.0,40.0,6.0,0.0
4432,72.0,24.0,20.0,5.0,0.0
4433,67.0,22.0,20.0,5.0,0.0
4434,52.0,2.0,40.0,6.0,0.0
4435,72.0,24.0,20.0,5.0,0.0
4436,74.0,22.0,20.0,5.0,0.0
4437,55.0,2.0,40.0,6.0,0.0
4438,72.0,24.0,20.0,5.0,0.0
4439,71.0,22.0,20.0,5.0,0.0
4440,60.0,2.0,40.0,6.0,0.0
4441,72.0,24.0,20.0,5.0,0.0
4442,65.0,22.0,20.0,5.0,0.0
4443,50.0,2.0,40.0,6.0,0.0
4444,72.0,24.0,20.0,5.0,0.0
4445,74.0,22.0,20.0,5.0,0.0
4446,53.0,2.0,40.0,6.0,0.0
4447,72.0,24.0,20.0,5.0,0.0
4448,71.0,22.0,20.0,5.0,0.0
4449,55.0,2.0,40.0,6.0,0.0
4450,72.0,24.0,20.0,5.0,0.0
4451,64.0,22.0,20.0,5.0,0.0
4452,48.0,2.0,40.0,6.0,0.0
4453,72.0,24.0,20.0,5.0,0.0
4454,74.0,22.0,20.0,5.0,0.0
4455,52.0,2.0,40.0,6.0,0.0
4456,72.0,24.0,20.0,5.0,0.0
4457,71.0,22.0,20.0,5.0,0.0
4458,55.0,2.0,40.0,6.0,0.0
4459,72.0,24.0,20.0,5.0,0.0
4460,62.0,2.0,40.0,5.0,0.0
4461,54.0,22.0,20.0,6.0,0.0
4462,55.0,24.0,20.0,6.0,0.0
4463,69.0,2.0,40.0,5.0,0.0
4464,54.0,22.0,20.0,6.0,0.0
4465,52.0,24.0,20.0,6.0,0.0
4466,72.0,2.0,40.0,5.0,0.0
4467,50.0,22.0,20.0,6.0,0.0
4468,48.0,24.0,20.0,6.0,0.0
4469,78.0,2.0,40.0,5.0,0.0
4470,47.0,22.0,20.0,6.0,0.0
4471,45.0,24.0,20.0,6.0,0.0
4472,79.0,2.0,40.0,5.0,0.0
4473,43.0,22.0,20.0,6.0,0.0
4474,41.0,46.0,20.0,6.0,0.0
4475,72.0,48.0,40.0,5.0,0.0
4476,40.0,0.0,40.0,6.0,0.0
4477,77.0,26.0,40.0,5.0,0.0
4478,45.0,0.0,40.0,6.0,0.0
4479,76.0,22.0,20.0,5.0,0.0
4480,41.0,26.0,40.0,6.0,0.0
4481,74.0,14.0,40.0,5.0,0.0
4482,43.0,4.0,40.0,6.0,0.0
4483,72.0,8.0,15.0,5.0,0.0
4484,74.0,22.0,15.0,5.0,0.0
4485,72.0,2.0,150.0,5.0,0.0
4486,48.0,24.0,20.0,6.0,0.0
4487,50.0,24.0,20.0,6.0,0.0
4488,52.0,24.0,20.0,6.0,0.0
4489,53.0,24.0,20.0,6.0,0.0
4490,55.0,22.0,20.0,6.0,0.0
4491,53.0,24.0,20.0,6.0,0.0
4492,72.0,22.0,20.0,1.0,0.0
4493,67.0,0.0,40.0,2.0,0.0
4494,64.0,2.0,40.0,3.0,0.0
4495,72.0,0.0,20.0,5.0,0.0
4496,52.0,0.0,40.0,6.0,0.0
4497,74.0,0.0,20.0,1.0,0.0
4498,74.0,24.0,20.0,5.0,0.0
4499,76.0,22.0,20.0,1.0,0.0
4500,72.0,0.0,40.0,2.0,0.0
4501,67.0,2.0,40.0,3.0,0.0
4502,76.0,0.0,20.0,5.0,0.0
4503,48.0,0.0,40.0,6.0,0.0
4504,77.0,0.0,20.0,1.0,0.0
4505,77.0,46.0,20.0,5.0,0.0
4506,79.0,0.0,40.0,1.0,0.0
4507,74.0,0.0,40.0,2.0,0.0
4508,67.0,0.0,40.0,3.0,0.0
4509,79.0,26.0,40.0,5.0,0.0
4510,47.0,0.0,40.0,6.0,0.0
4511,76.0,0.0,40.0,1.0,0.0
4512,72.0,2.0,40.0,2.0,0.0
4513,67.0,0.0,40.0,3.0,0.0
4514,48.0,22.0,20.0,4.0,0.0
4515,76.0,0.0,40.0,5.0,0.0
4516,48.0,0.0,20.0,6.0,0.0
4517,50.0,24.0,20.0,4.0,0.0
4518,50.0,0.0,20.0,6.0,0.0
4519,79.0,0.0,40.0,1.0,0.0
4520,72.0,2.0,40.0,2.0,0.0
4521,67.0,0.0,40.0,3.0,0.0
4522,52.0,22.0,20.0,4.0,0.0
4523,79.0,0.0,40.0,5.0,0.0
4524,52.0,0.0,20.0,6.0,0.0
4525,53.0,24.0,20.0,4.0,0.0
4526,53.0,0.0,20.0,6.0,0.0
4527,83.0,0.0,90.0,1.0,0.0
4528,77.0,0.0,90.0,2.0,0.0
4529,67.0,2.0,40.0,3.0,0.0
4530,50.0,22.0,20.0,4.0,0.0
4531,83.0,4.0,90.0,5.0,0.0
4532,50.0,0.0,20.0,6.0,0.0
4533,52.0,0.0,20.0,4.0,0.0
4534,52.0,14.0,20.0,6.0,0.0
4535,67.0,3.0,90.0,3.0,0.0
4536,50.0,12.0,15.0,4.0,0.0
4537,48.0,0.0,90.0,6.0,0.0
4538,48.0,12.0,15.0,4.0,0.0
4539,50.0,8.0,15.0,4.0,0.0
4540,48.0,12.0,15.0,4.0,0.0
4541,84.0,0.0,40.0,1.0,0.0
4542,76.0,0.0,40.0,2.0,0.0
4543,50.0,12.0,15.0,4.0,0.0
4544,84.0,4.0,40.0,5.0,0.0
4545,48.0,12.0,15.0,4.0,0.0
4546,50.0,5.0,15.0,4.0,0.0
4547,48.0,44.0,15.0,4.0,0.0
4548,79.0,0.0,40.0,1.0,0.0
4549,74.0,0.0,40.0,2.0,0.0
4550,67.0,0.0,40.0,3.0,0.0
4551,47.0,16.0,40.0,4.0,0.0
4552,79.0,0.0,40.0,5.0,0.0
4553,47.0,0.0,40.0,6.0,0.0
4554,77.0,2.0,40.0,1.0,0.0
4555,72.0,0.0,90.0,2.0,0.0
4556,67.0,3.0,90.0,3.0,0.0
4557,48.0,0.0,20.0,4.0,0.0
4558,77.0,10.0,15.0,5.0,0.0
4559,48.0,2.0,20.0,6.0,0.0
4560,76.0,12.0,15.0,5.0,0.0
4561,50.0,0.0,20.0,4.0,0.0
4562,77.0,8.0,15.0,5.0,0.0
4563,50.0,2.0,20.0,6.0,0.0
4564,76.0,12.0,15.0,5.0,0.0
4565,76.0,2.0,40.0,1.0,0.0
4566,52.0,0.0,20.0,4.0,0.0
4567,77.0,10.0,15.0,5.0,0.0
4568,52.0,2.0,20.0,6.0,0.0
4569,76.0,12.0,15.0,5.0,0.0
4570,53.0,0.0,20.0,4.0,0.0
4571,77.0,5.0,15.0,5.0,0.0
4572,53.0,2.0,20.0,6.0,0.0
4573,76.0,22.0,15.0,5.0,0.0
4574,74.0,0.0,40.0,1.0,0.0
4575,71.0,2.0,40.0,2.0,0.0
4576,67.0,0.0,40.0,3.0,0.0
4577,55.0,22.0,20.0,4.0,0.0
4578,74.0,0.0,40.0,5.0,0.0
4579,55.0,0.0,20.0,6.0,0.0
4580,53.0,24.0,20.0,4.0,0.0
4581,53.0,0.0,20.0,6.0,0.0
4582,72.0,22.0,20.0,1.0,0.0
4583,67.0,0.0,40.0,2.0,0.0
4584,67.0,0.0,40.0,3.0,0.0
4585,52.0,0.0,40.0,4.0,0.0
4586,72.0,0.0,20.0,5.0,0.0
4587,52.0,2.0,40.0,6.0,0.0
4588,74.0,24.0,20.0,1.0,0.0
4589,74.0,0.0,20.0,5.0,0.0
4590,76.0,22.0,20.0,1.0,0.0
4591,72.0,0.0,40.0,2.0,0.0
4592,67.0,0.0,40.0,3.0,0.0
4593,48.0,0.0,40.0,4.0,0.0
4594,76.0,0.0,20.0,5.0,0.0
4595,48.0,2.0,40.0,6.0,0.0
4596,77.0,46.0,20.0,1.0,0.0
4597,77.0,0.0,20.0,5.0,0.0
4598,79.0,0.0,40.0,1.0,0.0
4599,74.0,0.0,40.0,2.0,0.0
4600,67.0,0.0,40.0,3.0,0.0
4601,47.0,26.0,40.0,4.0,0.0
4602,79.0,0.0,40.0,5.0,0.0
4603,47.0,0.0,40.0,6.0,0.0
4604,76.0,0.0,40.0,1.0,0.0
4605,72.0,2.0,40.0,2.0,0.0
4606,67.0,0.0,40.0,3.0,0.0
4607,48.0,22.0,20.0,4.0,0.0
4608,76.0,0.0,40.0,5.0,0.0
4609,48.0,0.0,20.0,6.0,0.0
4610,50.0,24.0,20.0,4.0,0.0
4611,50.0,0.0,20.0,6.0,0.0
4612,79.0,0.0,40.0,1.0,0.0
4613,72.0,2.0,40.0,2.0,0.0
4614,72.0,0.0,40.0,3.0,0.0
4615,52.0,22.0,20.0,4.0,0.0
4616,79.0,0.0,40.0,5.0,0.0
4617,52.0,0.0,20.0,6.0,0.0
4618,50.0,24.0,20.0,4.0,0.0
4619,50.0,0.0,20.0,6.0,0.0
4620,84.0,0.0,40.0,1.0,0.0
4621,79.0,2.0,40.0,2.0,0.0
4622,76.0,0.0,40.0,3.0,0.0
4623,52.0,22.0,20.0,4.0,0.0
4624,84.0,0.0,40.0,5.0,0.0
4625,52.0,0.0,20.0,6.0,0.0
4626,48.0,24.0,20.0,4.0,0.0
4627,48.0,0.0,20.0,6.0,0.0
4628,86.0,0.0,40.0,1.0,0.0
4629,79.0,0.0,40.0,2.0,0.0
4630,71.0,0.0,40.0,3.0,0.0
4631,55.0,0.0,40.0,4.0,0.0
4632,67.0,22.0,20.0,5.0,0.0
4633,55.0,2.0,40.0,6.0,0.0
4634,69.0,24.0,20.0,5.0,0.0
4635,79.0,0.0,40.0,1.0,0.0
4636,71.0,0.0,40.0,2.0,0.0
4637,74.0,0.0,40.0,3.0,0.0
4638,43.0,0.0,40.0,4.0,0.0
4639,71.0,22.0,20.0,5.0,0.0
4640,43.0,2.0,40.0,6.0,0.0
4641,72.0,24.0,20.0,5.0,0.0
4642,74.0,24.0,20.0,5.0,0.0
4643,72.0,24.0,20.0,5.0,0.0
4644,74.0,0.0,40.0,1.0,0.0
4645,71.0,2.0,40.0,2.0,0.0
4646,67.0,0.0,40.0,3.0,0.0
4647,71.0,22.0,20.0,5.0,0.0
4648,55.0,0.0,40.0,6.0,0.0
4649,72.0,24.0,20.0,5.0,0.0
4650,67.0,0.0,40.0,1.0,0.0
4651,62.0,2.0,40.0,2.0,0.0
4652,59.0,0.0,40.0,3.0,0.0
4653,74.0,22.0,20.0,5.0,0.0
4654,43.0,0.0,40.0,6.0,0.0
4655,76.0,24.0,20.0,5.0,0.0
4656,77.0,24.0,20.0,5.0,0.0
4657,74.0,24.0,20.0,5.0,0.0
4658,83.0,0.0,40.0,1.0,0.0
4659,76.0,0.0,40.0,2.0,0.0
4660,59.0,0.0,40.0,3.0,0.0
4661,56.0,0.0,40.0,4.0,0.0
4662,76.0,22.0,20.0,5.0,0.0
4663,56.0,2.0,40.0,6.0,0.0
4664,78.0,24.0,20.0,5.0,0.0
4665,76.0,0.0,40.0,1.0,0.0
4666,71.0,0.0,40.0,2.0,0.0
4667,71.0,0.0,40.0,3.0,0.0
4668,44.0,0.0,40.0,4.0,0.0
4669,80.0,22.0,20.0,5.0,0.0
4670,44.0,2.0,40.0,6.0,0.0
4671,81.0,24.0,20.0,5.0,0.0
4672,83.0,24.0,20.0,5.0,0.0
4673,81.0,24.0,20.0,5.0,0.0
4674,71.0,0.0,40.0,1.0,0.0
4675,64.0,2.0,40.0,2.0,0.0
4676,59.0,0.0,40.0,3.0,0.0
4677,80.0,22.0,20.0,5.0,0.0
4678,52.0,0.0,40.0,6.0,0.0
4679,81.0,24.0,20.0,5.0,0.0
4680,64.0,0.0,40.0,1.0,0.0
4681,59.0,2.0,40.0,2.0,0.0
4682,68.0,0.0,40.0,3.0,0.0
4683,83.0,22.0,20.0,5.0,0.0
4684,40.0,0.0,40.0,6.0,0.0
4685,84.0,24.0,20.0,5.0,0.0
4686,86.0,24.0,20.0,5.0,0.0
4687,83.0,24.0,20.0,5.0,0.0
4688,88.0,0.0,40.0,1.0,0.0
4689,81.0,0.0,40.0,2.0,0.0
4690,57.0,0.0,40.0,3.0,0.0
4691,45.0,0.0,40.0,4.0,0.0
4692,84.0,22.0,20.0,5.0,0.0
4693,45.0,2.0,40.0,6.0,0.0
4694,86.0,24.0,20.0,5.0,0.0
4695,81.0,0.0,40.0,1.0,0.0
4696,76.0,0.0,40.0,2.0,0.0
4697,69.0,0.0,40.0,3.0,0.0
4698,57.0,0.0,40.0,4.0,0.0
4699,84.0,22.0,20.0,5.0,0.0
4700,48.0,2.0,40.0,6.0,0.0
4701,83.0,24.0,20.0,5.0,0.0
4702,81.0,22.0,20.0,5.0,0.0
4703,52.0,2.0,40.0,6.0,0.0
4704,80.0,24.0,20.0,5.0,0.0
4705,76.0,0.0,40.0,1.0,0.0
4706,69.0,2.0,40.0,2.0,0.0
4707,57.0,0.0,40.0,3.0,0.0
4708,81.0,22.0,20.0,5.0,0.0
4709,48.0,0.0,40.0,6.0,0.0
4710,83.0,24.0,20.0,5.0,0.0
4711,69.0,0.0,40.0,1.0,0.0
4712,64.0,2.0,40.0,2.0,0.0
4713,60.0,0.0,40.0,3.0,0.0
4714,81.0,22.0,20.0,5.0,0.0
4715,45.0,0.0,40.0,6.0,0.0
4716,79.0,24.0,20.0,5.0,0.0
4717,77.0,22.0,20.0,5.0,0.0
4718,49.0,2.0,40.0,6.0,0.0
4719,76.0,24.0,20.0,5.0,0.0
4720,81.0,0.0,40.0,1.0,0.0
4721,74.0,0.0,40.0,2.0,0.0
4722,65.0,0.0,40.0,3.0,0.0
4723,50.0,0.0,40.0,4.0,0.0
4724,77.0,22.0,20.0,5.0,0.0
4725,50.0,2.0,40.0,6.0,0.0
4726,79.0,24.0,20.0,5.0,0.0
4727,74.0,0.0,40.0,1.0,0.0
4728,69.0,0.0,40.0,2.0,0.0
4729,69.0,0.0,40.0,3.0,0.0
4730,62.0,0.0,40.0,4.0,0.0
4731,77.0,22.0,20.0,5.0,0.0
4732,53.0,2.0,40.0,6.0,0.0
4733,76.0,24.0,20.0,5.0,0.0
4734,74.0,22.0,20.0,5.0,0.0
4735,57.0,2.0,40.0,6.0,0.0
4736,73.0,24.0,20.0,5.0,0.0
4737,69.0,0.0,40.0,1.0,0.0
4738,62.0,2.0,40.0,2.0,0.0
4739,57.0,0.0,40.0,3.0,0.0
4740,74.0,22.0,20.0,5.0,0.0
4741,53.0,0.0,40.0,6.0,0.0
4742,76.0,24.0,20.0,5.0,0.0
4743,62.0,0.0,40.0,1.0,0.0
4744,69.0,2.0,40.0,2.0,0.0
4745,65.0,0.0,40.0,3.0,0.0
4746,74.0,22.0,20.0,5.0,0.0
4747,50.0,0.0,40.0,6.0,0.0
4748,72.0,24.0,20.0,5.0,0.0
4749,71.0,22.0,20.0,5.0,0.0
4750,54.0,2.0,40.0,6.0,0.0
4751,69.0,24.0,20.0,5.0,0.0
4752,71.0,24.0,20.0,5.0,0.0
4753,55.0,24.0,60.0,6.0,0.0
4754,67.0,24.0,20.0,5.0,0.0
4755,69.0,0.0,20.0,5.0,0.0
4756,71.0,24.0,20.0,5.0,0.0
4757,53.0,0.0,20.0,6.0,0.0
4758,72.0,24.0,20.0,5.0,0.0
4759,52.0,0.0,20.0,6.0,0.0
4760,74.0,24.0,20.0,5.0,0.0
4761,50.0,0.0,20.0,6.0,0.0
4762,76.0,22.0,20.0,5.0,0.0
4763,48.0,2.0,40.0,6.0,0.0
4764,77.0,24.0,20.0,5.0,0.0
4765,79.0,22.0,20.0,5.0,0.0
4766,60.0,2.0,40.0,6.0,0.0
4767,81.0,24.0,20.0,5.0,0.0
4768,83.0,22.0,20.0,5.0,0.0
4769,59.0,2.0,40.0,6.0,0.0
4770,79.0,24.0,20.0,5.0,0.0
4771,84.0,22.0,20.0,1.0,0.0
4772,69.0,0.0,40.0,2.0,0.0
4773,64.0,0.0,40.0,3.0,0.0
4774,57.0,0.0,40.0,4.0,0.0
4775,84.0,0.0,20.0,5.0,0.0
4776,57.0,2.0,40.0,6.0,0.0
4777,83.0,24.0,20.0,1.0,0.0
4778,83.0,0.0,20.0,5.0,0.0
4779,81.0,0.0,20.0,1.0,0.0
4780,76.0,22.0,20.0,2.0,0.0
4781,72.0,0.0,20.0,3.0,0.0
4782,45.0,0.0,40.0,4.0,0.0
4783,81.0,0.0,20.0,5.0,0.0
4784,45.0,2.0,40.0,6.0,0.0
4785,79.0,24.0,20.0,1.0,0.0
4786,74.0,0.0,20.0,2.0,0.0
4787,71.0,0.0,20.0,3.0,0.0
4788,79.0,0.0,20.0,5.0,0.0
4789,77.0,2.0,90.0,1.0,0.0
4790,72.0,22.0,20.0,2.0,0.0
4791,69.0,0.0,20.0,3.0,0.0
4792,57.0,0.0,40.0,4.0,0.0
4793,77.0,0.0,90.0,5.0,0.0
4794,57.0,2.0,40.0,6.0,0.0
4795,71.0,0.0,20.0,2.0,0.0
4796,67.0,24.0,20.0,3.0,0.0
4797,69.0,0.0,150.0,2.0,0.0
4798,65.0,0.0,20.0,3.0,0.0
4799,50.0,22.0,20.0,4.0,0.0
4800,50.0,0.0,20.0,6.0,0.0
4801,64.0,0.0,20.0,3.0,0.0
4802,48.0,0.0,20.0,4.0,0.0
4803,48.0,24.0,20.0,6.0,0.0
4804,76.0,0.0,40.0,1.0,0.0
4805,65.0,0.0,20.0,3.0,0.0
4806,50.0,22.0,20.0,4.0,0.0
4807,76.0,2.0,40.0,5.0,0.0
4808,50.0,0.0,20.0,6.0,0.0
4809,67.0,0.0,20.0,3.0,0.0
4810,52.0,0.0,20.0,4.0,0.0
4811,52.0,24.0,20.0,6.0,0.0
4812,74.0,0.0,40.0,1.0,0.0
4813,69.0,0.0,20.0,3.0,0.0
4814,53.0,22.0,20.0,4.0,0.0
4815,74.0,2.0,40.0,5.0,0.0
4816,53.0,0.0,20.0,6.0,0.0
4817,65.0,0.0,20.0,3.0,0.0
4818,50.0,0.0,20.0,4.0,0.0
4819,50.0,24.0,20.0,6.0,0.0
4820,83.0,22.0,20.0,1.0,0.0
4821,62.0,0.0,40.0,2.0,0.0
4822,62.0,0.0,40.0,3.0,0.0
4823,55.0,0.0,40.0,4.0,0.0
4824,83.0,0.0,20.0,5.0,0.0
4825,55.0,2.0,40.0,6.0,0.0
4826,81.0,24.0,20.0,1.0,0.0
4827,81.0,0.0,20.0,5.0,0.0
4828,79.0,0.0,20.0,1.0,0.0
4829,74.0,22.0,20.0,2.0,0.0
4830,71.0,0.0,20.0,3.0,0.0
4831,43.0,0.0,40.0,4.0,0.0
4832,79.0,0.0,20.0,5.0,0.0
4833,43.0,2.0,40.0,6.0,0.0
4834,77.0,24.0,20.0,1.0,0.0
4835,72.0,0.0,20.0,2.0,0.0
4836,69.0,0.0,20.0,3.0,0.0
4837,77.0,0.0,20.0,5.0,0.0
4838,76.0,2.0,90.0,1.0,0.0
4839,71.0,22.0,20.0,2.0,0.0
4840,67.0,0.0,20.0,3.0,0.0
4841,55.0,0.0,40.0,4.0,0.0
4842,76.0,0.0,90.0,5.0,0.0
4843,55.0,2.0,40.0,6.0,0.0
4844,69.0,0.0,20.0,2.0,0.0
4845,65.0,24.0,20.0,3.0,0.0
4846,67.0,0.0,150.0,2.0,0.0
4847,64.0,0.0,20.0,3.0,0.0
4848,48.0,22.0,20.0,4.0,0.0
4849,48.0,0.0,20.0,6.0,0.0
4850,62.0,0.0,20.0,3.0,0.0
4851,47.0,0.0,20.0,4.0,0.0
4852,47.0,24.0,20.0,6.0,0.0
4853,74.0,0.0,40.0,1.0,0.0
4854,64.0,0.0,20.0,3.0,0.0
4855,48.0,22.0,20.0,4.0,0.0
4856,74.0,2.0,40.0,5.0,0.0
4857,48.0,0.0,20.0,6.0,0.0
4858,65.0,0.0,20.0,3.0,0.0
4859,50.0,0.0,20.0,4.0,0.0
4860,50.0,24.0,20.0,6.0,0.0
4861,72.0,0.0,40.0,1.0,0.0
4862,67.0,0.0,20.0,3.0,0.0
4863,52.0,22.0,20.0,4.0,0.0
4864,72.0,2.0,40.0,5.0,0.0
4865,52.0,0.0,20.0,6.0,0.0
4866,64.0,0.0,20.0,3.0,0.0
4867,48.0,0.0,20.0,4.0,0.0
4868,48.0,24.0,20.0,6.0,0.0
4869,74.0,22.0,20.0,1.0,0.0
4870,69.0,0.0,40.0,2.0,0.0
4871,65.0,0.0,40.0,3.0,0.0
4872,53.0,0.0,40.0,4.0,0.0
4873,74.0,0.0,20.0,5.0,0.0
4874,53.0,2.0,40.0,6.0,0.0
4875,76.0,24.0,20.0,1.0,0.0
4876,76.0,0.0,20.0,5.0,0.0
4877,77.0,22.0,20.0,1.0,0.0
4878,74.0,0.0,40.0,2.0,0.0
4879,69.0,0.0,40.0,3.0,0.0
4880,50.0,0.0,40.0,4.0,0.0
4881,77.0,0.0,20.0,5.0,0.0
4882,50.0,2.0,40.0,6.0,0.0
4883,79.0,46.0,20.0,1.0,0.0
4884,79.0,0.0,20.0,5.0,0.0
4885,81.0,0.0,40.0,1.0,0.0
4886,69.0,0.0,40.0,2.0,0.0
4887,62.0,0.0,40.0,3.0,0.0
4888,53.0,16.0,40.0,4.0,0.0
4889,81.0,0.0,40.0,5.0,0.0
4890,53.0,0.0,40.0,6.0,0.0
4891,74.0,10.0,15.0,1.0,0.0
4892,67.0,2.0,40.0,2.0,0.0
4893,62.0,0.0,40.0,3.0,0.0
4894,55.0,0.0,20.0,4.0,0.0
4895,74.0,0.0,15.0,5.0,0.0
4896,55.0,2.0,20.0,6.0,0.0
4897,72.0,0.0,15.0,1.0,0.0
4898,72.0,12.0,15.0,5.0,0.0
4899,74.0,8.0,15.0,1.0,0.0
4900,57.0,2.0,20.0,4.0,0.0
4901,74.0,0.0,15.0,5.0,0.0
4902,57.0,0.0,20.0,6.0,0.0
4903,72.0,22.0,15.0,1.0,0.0
4904,72.0,0.0,15.0,5.0,0.0
4905,71.0,0.0,40.0,1.0,0.0
4906,62.0,2.0,40.0,2.0,0.0
4907,67.0,0.0,40.0,3.0,0.0
4908,55.0,22.0,20.0,4.0,0.0
4909,71.0,0.0,40.0,5.0,0.0
4910,55.0,0.0,20.0,6.0,0.0
4911,53.0,24.0,20.0,4.0,0.0
4912,53.0,0.0,20.0,6.0,0.0
4913,77.0,0.0,90.0,1.0,0.0
4914,71.0,0.0,90.0,2.0,0.0
4915,67.0,2.0,40.0,3.0,0.0
4916,52.0,22.0,20.0,4.0,0.0
4917,77.0,0.0,90.0,5.0,0.0
4918,52.0,0.0,20.0,6.0,0.0
4919,50.0,0.0,20.0,4.0,0.0
4920,50.0,46.0,20.0,6.0,0.0
4921,67.0,48.0,40.0,3.0,0.0
4922,48.0,0.0,40.0,4.0,0.0
4923,48.0,0.0,40.0,6.0,0.0
4924,76.0,0.0,40.0,1.0,0.0
4925,72.0,0.0,40.0,2.0,0.0
4926,67.0,0.0,40.0,3.0,0.0
4927,60.0,96.0,40.0,4.0,0.0
4928,76.0,0.0,40.0,5.0,0.0
4929,60.0,0.0,40.0,6.0,0.0
4930,65.0,48.0,40.0,1.0,0.0
4931,62.0,0.0,40.0,2.0,0.0
4932,59.0,0.0,40.0,3.0,0.0
4933,64.0,64.0,40.0,1.0,0.0
4934,60.0,0.0,40.0,2.0,0.0
4935,60.0,0.0,40.0,3.0,0.0
4936,61.0,48.0,40.0,1.0,0.0
4937,82.0,12.0,15.0,5.0,0.0
4938,61.0,0.0,40.0,6.0,0.0
4939,81.0,20.0,15.0,5.0,0.0
4940,82.0,16.0,120.0,5.0,0.0
4941,64.0,48.0,40.0,1.0,0.0
4942,64.0,0.0,40.0,6.0,0.0
4943,67.0,0.0,40.0,1.0,0.0
4944,67.0,0.0,40.0,6.0,0.0
4945,64.0,0.0,40.0,1.0,0.0
4946,61.0,4.0,40.0,2.0,0.0
4947,83.0,12.0,15.0,5.0,0.0
4948,61.0,0.0,40.0,6.0,0.0
4949,81.0,12.0,15.0,5.0,0.0
4950,83.0,8.0,15.0,5.0,0.0
4951,81.0,12.0,15.0,5.0,0.0
4952,69.0,0.0,40.0,1.0,0.0
4953,64.0,4.0,40.0,2.0,0.0
4954,83.0,12.0,15.0,5.0,0.0
4955,64.0,0.0,40.0,6.0,0.0
4956,81.0,12.0,15.0,5.0,0.0
4957,83.0,8.0,15.0,5.0,0.0
4958,81.0,12.0,15.0,5.0,0.0
4959,73.0,0.0,40.0,1.0,0.0
4960,69.0,4.0,40.0,2.0,0.0
4961,83.0,12.0,15.0,5.0,0.0
4962,69.0,0.0,40.0,6.0,0.0
4963,81.0,12.0,15.0,5.0,0.0
4964,83.0,8.0,15.0,5.0,0.0
4965,81.0,12.0,15.0,5.0,0.0
4966,69.0,0.0,40.0,1.0,0.0
4967,64.0,4.0,40.0,2.0,0.0
4968,61.0,0.0,40.0,3.0,0.0
4969,81.0,12.0,15.0,5.0,0.0
4970,61.0,0.0,40.0,6.0,0.0
4971,79.0,12.0,15.0,5.0,0.0
4972,81.0,8.0,15.0,5.0,0.0
4973,79.0,12.0,15.0,5.0,0.0
4974,73.0,0.0,40.0,1.0,0.0
4975,69.0,4.0,40.0,2.0,0.0
4976,64.0,0.0,40.0,3.0,0.0
4977,81.0,12.0,15.0,5.0,0.0
4978,64.0,0.0,40.0,6.0,0.0
4979,79.0,12.0,15.0,5.0,0.0
4980,81.0,8.0,15.0,5.0,0.0
4981,79.0,12.0,15.0,5.0,0.0
4982,76.0,0.0,40.0,1.0,0.0
4983,73.0,26.0,40.0,2.0,0.0
4984,70.0,0.0,40.0,3.0,0.0
4985,81.0,12.0,15.0,5.0,0.0
4986,70.0,0.0,40.0,6.0,0.0
4987,79.0,12.0,15.0,5.0,0.0
4988,81.0,8.0,15.0,5.0,0.0
4989,79.0,22.0,30.0,5.0,0.0
4990,74.0,0.0,40.0,1.0,0.0
4991,62.0,0.0,40.0,2.0,0.0
4992,69.0,0.0,40.0,3.0,0.0
4993,50.0,0.0,40.0,4.0,0.0
4994,50.0,2.0,40.0,6.0,0.0
4995,82.0,24.0,20.0,5.0,0.0
4996,69.0,0.0,40.0,1.0,0.0
4997,71.0,0.0,40.0,2.0,0.0
4998,62.0,0.0,40.0,3.0,0.0
4999,53.0,0.0,40.0,4.0,0.0
5000,81.0,22.0,20.0,5.0,0.0
5001,53.0,2.0,40.0,6.0,0.0
5002,79.0,24.0,20.0,5.0,0.0
5003,73.0,0.0,40.0,1.0,0.0
5004,69.0,0.0,40.0,2.0,0.0
5005,64.0,0.0,40.0,3.0,0.0
5006,57.0,0.0,40.0,4.0,0.0
5007,77.0,22.0,20.0,5.0,0.0
5008,57.0,2.0,40.0,6.0,0.0
5009,76.0,24.0,20.0,5.0,0.0
5010,74.0,0.0,40.0,1.0,0.0
5011,69.0,0.0,40.0,2.0,0.0
5012,62.0,0.0,40.0,3.0,0.0
5013,62.0,0.0,40.0,4.0,0.0
5014,77.0,22.0,20.0,5.0,0.0
5015,62.0,2.0,40.0,6.0,0.0
5016,74.0,24.0,20.0,5.0,0.0
5017,76.0,22.0,20.0,5.0,0.0
5018,50.0,2.0,40.0,6.0,0.0
5019,74.0,24.0,20.0,5.0,0.0
5020,73.0,24.0,20.0,5.0,0.0
5021,62.0,2.0,90.0,6.0,0.0
5022,74.0,24.0,20.0,5.0,0.0
5023,80.0,22.0,20.0,5.0,0.0
5024,74.0,24.0,20.0,5.0,0.0
5025,76.0,22.0,20.0,5.0,0.0
5026,52.0,2.0,40.0,6.0,0.0
5027,74.0,24.0,20.0,5.0,0.0
5028,73.0,24.0,20.0,5.0,0.0
5029,62.0,2.0,90.0,6.0,0.0
5030,74.0,24.0,20.0,5.0,0.0
5031,81.0,22.0,20.0,5.0,0.0
5032,74.0,24.0,20.0,5.0,0.0
5033,76.0,22.0,20.0,5.0,0.0
5034,53.0,2.0,40.0,6.0,0.0
5035,74.0,24.0,20.0,5.0,0.0
5036,73.0,24.0,20.0,5.0,0.0
5037,62.0,2.0,90.0,6.0,0.0
5038,74.0,24.0,20.0,5.0,0.0
5039,83.0,22.0,20.0,5.0,0.0
5040,76.0,24.0,20.0,5.0,0.0
5041,78.0,22.0,20.0,5.0,0.0
5042,56.0,2.0,40.0,6.0,0.0
5043,80.0,24.0,20.0,5.0,0.0
5044,81.0,22.0,20.0,5.0,0.0
5045,52.0,2.0,40.0,6.0,0.0
5046,83.0,14.0,20.0,5.0,0.0
5047,63.0,0.0,40.0,1.0,0.0
5048,84.0,12.0,15.0,5.0,0.0
5049,63.0,48.0,40.0,6.0,0.0
5050,57.0,0.0,40.0,6.0,0.0
5051,83.0,20.0,15.0,5.0,0.0
5052,84.0,16.0,120.0,5.0,0.0
5053,66.0,48.0,40.0,1.0,0.0
5054,66.0,0.0,40.0,6.0,0.0
5055,69.0,0.0,40.0,1.0,0.0
5056,69.0,0.0,40.0,6.0,0.0
5057,66.0,0.0,40.0,1.0,0.0
5058,63.0,4.0,40.0,2.0,0.0
5059,84.0,12.0,15.0,5.0,0.0
5060,63.0,0.0,40.0,6.0,0.0
5061,83.0,12.0,15.0,5.0,0.0
5062,84.0,8.0,15.0,5.0,0.0
5063,83.0,12.0,15.0,5.0,0.0
5064,71.0,0.0,40.0,1.0,0.0
5065,66.0,4.0,40.0,2.0,0.0
5066,84.0,12.0,15.0,5.0,0.0
5067,66.0,0.0,40.0,6.0,0.0
5068,83.0,12.0,15.0,5.0,0.0
5069,84.0,8.0,15.0,5.0,0.0
5070,83.0,12.0,15.0,5.0,0.0
5071,75.0,0.0,40.0,1.0,0.0
5072,71.0,4.0,40.0,2.0,0.0
5073,84.0,12.0,15.0,5.0,0.0
5074,71.0,0.0,40.0,6.0,0.0
5075,83.0,12.0,15.0,5.0,0.0
5076,84.0,8.0,15.0,5.0,0.0
5077,83.0,12.0,15.0,5.0,0.0
5078,71.0,0.0,40.0,1.0,0.0
5079,66.0,4.0,40.0,2.0,0.0
5080,63.0,0.0,40.0,3.0,0.0
5081,83.0,12.0,15.0,5.0,0.0
5082,63.0,0.0,40.0,6.0,0.0
5083,81.0,12.0,15.0,5.0,0.0
5084,83.0,8.0,15.0,5.0,0.0
5085,81.0,12.0,15.0,5.0,0.0
5086,75.0,0.0,40.0,1.0,0.0
5087,71.0,4.0,40.0,2.0,0.0
5088,66.0,0.0,40.0,3.0,0.0
5089,83.0,12.0,15.0,5.0,0.0
5090,66.0,0.0,40.0,6.0,0.0
5091,81.0,12.0,15.0,5.0,0.0
5092,83.0,8.0,15.0,5.0,0.0
5093,81.0,12.0,15.0,5.0,0.0
5094,78.0,0.0,40.0,1.0,0.0
5095,75.0,26.0,40.0,2.0,0.0
5096,72.0,0.0,40.0,3.0,0.0
5097,83.0,12.0,15.0,5.0,0.0
5098,72.0,0.0,40.0,6.0,0.0
5099,81.0,12.0,15.0,5.0,0.0
5100,83.0,8.0,15.0,5.0,0.0
5101,81.0,22.0,30.0,5.0,0.0
5102,76.0,0.0,40.0,1.0,0.0
5103,64.0,2.0,40.0,2.0,0.0
5104,71.0,0.0,40.0,3.0,0.0
5105,52.0,0.0,40.0,4.0,0.0
5106,71.0,0.0,20.0,6.0,0.0
5107,84.0,24.0,20.0,5.0,0.0
5108,52.0,0.0,20.0,6.0,0.0
5109,71.0,0.0,40.0,1.0,0.0
5110,76.0,0.0,40.0,2.0,0.0
5111,64.0,0.0,40.0,3.0,0.0
5112,55.0,0.0,40.0,4.0,0.0
5113,83.0,22.0,20.0,5.0,0.0
5114,55.0,2.0,40.0,6.0,0.0
5115,81.0,24.0,20.0,5.0,0.0
5116,75.0,0.0,40.0,1.0,0.0
5117,71.0,0.0,40.0,2.0,0.0
5118,66.0,0.0,40.0,3.0,0.0
5119,59.0,0.0,40.0,4.0,0.0
5120,79.0,22.0,20.0,5.0,0.0
5121,59.0,2.0,40.0,6.0,0.0
5122,78.0,24.0,20.0,5.0,0.0
5123,76.0,0.0,40.0,1.0,0.0
5124,71.0,0.0,40.0,2.0,0.0
5125,64.0,0.0,40.0,3.0,0.0
5126,64.0,0.0,40.0,4.0,0.0
5127,79.0,22.0,20.0,5.0,0.0
5128,64.0,2.0,40.0,6.0,0.0
5129,76.0,24.0,20.0,5.0,0.0
5130,78.0,22.0,20.0,5.0,0.0
5131,52.0,2.0,40.0,6.0,0.0
5132,76.0,24.0,20.0,5.0,0.0
5133,75.0,22.0,20.0,5.0,0.0
5134,55.0,2.0,40.0,6.0,0.0
5135,76.0,24.0,20.0,5.0,0.0
5136,76.0,0.0,40.0,1.0,0.0
5137,69.0,0.0,40.0,2.0,0.0
5138,64.0,0.0,40.0,3.0,0.0
5139,57.0,0.0,40.0,4.0,0.0
5140,84.0,22.0,20.0,5.0,0.0
5141,57.0,2.0,40.0,6.0,0.0
5142,83.0,24.0,20.0,5.0,0.0
5143,81.0,22.0,20.0,5.0,0.0
5144,59.0,2.0,40.0,6.0,0.0
5145,79.0,24.0,20.0,5.0,0.0
5146,78.0,22.0,20.0,5.0,0.0
5147,60.0,2.0,40.0,6.0,0.0
5148,76.0,24.0,20.0,5.0,0.0
5149,74.0,0.0,40.0,1.0,0.0
5150,69.0,0.0,40.0,2.0,0.0
5151,57.0,0.0,40.0,3.0,0.0
5152,62.0,0.0,40.0,4.0,0.0
5153,78.0,22.0,20.0,5.0,0.0
5154,62.0,2.0,40.0,6.0,0.0
5155,74.0,24.0,20.0,5.0,0.0
5156,76.0,22.0,20.0,5.0,0.0
5157,50.0,2.0,40.0,6.0,0.0
5158,74.0,24.0,20.0,5.0,0.0
5159,73.0,22.0,20.0,5.0,0.0
5160,54.0,2.0,40.0,6.0,0.0
5161,74.0,24.0,20.0,5.0,0.0
5162,74.0,0.0,40.0,1.0,0.0
5163,67.0,0.0,40.0,2.0,0.0
5164,59.0,0.0,40.0,3.0,0.0
5165,55.0,0.0,40.0,4.0,0.0
5166,83.0,22.0,20.0,5.0,0.0
5167,55.0,2.0,40.0,6.0,0.0
5168,81.0,24.0,20.0,5.0,0.0
5169,79.0,22.0,20.0,5.0,0.0
5170,57.0,2.0,40.0,6.0,0.0
5171,78.0,24.0,20.0,5.0,0.0
5172,76.0,22.0,20.0,5.0,0.0
5173,59.0,2.0,40.0,6.0,0.0
5174,75.0,24.0,20.0,5.0,0.0
5175,72.0,0.0,40.0,1.0,0.0
5176,67.0,0.0,40.0,2.0,0.0
5177,64.0,0.0,40.0,3.0,0.0
5178,60.0,0.0,40.0,4.0,0.0
5179,76.0,22.0,20.0,5.0,0.0
5180,60.0,2.0,40.0,6.0,0.0
5181,72.0,24.0,20.0,5.0,0.0
5182,74.0,22.0,20.0,5.0,0.0
5183,57.0,2.0,40.0,6.0,0.0
5184,72.0,24.0,20.0,5.0,0.0
5185,71.0,22.0,20.0,5.0,0.0
5186,55.0,2.0,40.0,6.0,0.0
5187,72.0,24.0,20.0,5.0,0.0
5188,72.0,22.0,20.0,1.0,0.0
5189,69.0,0.0,20.0,2.0,0.0
5190,72.0,0.0,150.0,3.0,0.0
5191,54.0,0.0,40.0,4.0,0.0
5192,81.0,22.0,150.0,5.0,0.0
5193,54.0,2.0,40.0,6.0,0.0
5194,71.0,0.0,20.0,1.0,0.0
5195,67.0,24.0,20.0,2.0,0.0
5196,69.0,22.0,20.0,1.0,0.0
5197,66.0,0.0,20.0,2.0,0.0
5198,55.0,2.0,40.0,6.0,0.0
5199,67.0,0.0,20.0,1.0,0.0
5200,64.0,24.0,20.0,2.0,0.0
5201,66.0,22.0,20.0,1.0,0.0
5202,63.0,0.0,20.0,2.0,0.0
5203,57.0,2.0,40.0,6.0,0.0
5204,64.0,0.0,20.0,1.0,0.0
5205,61.0,24.0,20.0,2.0,0.0
5206,63.0,2.0,40.0,1.0,0.0
5207,59.0,0.0,40.0,2.0,0.0
5208,59.0,0.0,150.0,4.0,0.0
5209,59.0,22.0,150.0,6.0,0.0
5210,71.0,0.0,20.0,3.0,0.0
5211,79.0,24.0,20.0,5.0,0.0
5212,69.0,24.0,20.0,3.0,0.0
5213,78.0,0.0,20.0,5.0,0.0
5214,67.0,24.0,20.0,3.0,0.0
5215,76.0,0.0,20.0,5.0,0.0
5216,66.0,24.0,20.0,3.0,0.0
5217,75.0,0.0,20.0,5.0,0.0
5218,64.0,24.0,20.0,3.0,0.0
5219,73.0,0.0,20.0,5.0,0.0
5220,63.0,2.0,40.0,3.0,0.0
5221,71.0,0.0,20.0,5.0,0.0
5222,57.0,0.0,20.0,4.0,0.0
5223,72.0,0.0,20.0,5.0,0.0
5224,57.0,24.0,20.0,6.0,0.0
5225,55.0,24.0,20.0,4.0,0.0
5226,71.0,0.0,20.0,5.0,0.0
5227,55.0,0.0,20.0,6.0,0.0
5228,54.0,24.0,20.0,4.0,0.0
5229,69.0,0.0,20.0,5.0,0.0
5230,54.0,0.0,20.0,6.0,0.0
5231,52.0,24.0,20.0,4.0,0.0
5232,67.0,0.0,20.0,5.0,0.0
5233,52.0,0.0,20.0,6.0,0.0
5234,51.0,24.0,20.0,4.0,0.0
5235,66.0,0.0,20.0,5.0,0.0
5236,51.0,0.0,20.0,6.0,0.0
5237,64.0,22.0,20.0,1.0,0.0
5238,59.0,0.0,40.0,2.0,0.0
5239,55.0,0.0,40.0,3.0,0.0
5240,52.0,0.0,40.0,4.0,0.0
5241,67.0,0.0,20.0,5.0,0.0
5242,52.0,2.0,40.0,6.0,0.0
5243,66.0,24.0,20.0,1.0,0.0
5244,66.0,0.0,20.0,5.0,0.0
5245,67.0,22.0,20.0,1.0,0.0
5246,64.0,0.0,40.0,2.0,0.0
5247,59.0,0.0,40.0,3.0,0.0
5248,40.0,0.0,40.0,4.0,0.0
5249,67.0,0.0,20.0,5.0,0.0
5250,40.0,2.0,40.0,6.0,0.0
5251,69.0,46.0,20.0,1.0,0.0
5252,69.0,0.0,20.0,5.0,0.0
5253,71.0,0.0,40.0,1.0,0.0
5254,67.0,26.0,40.0,2.0,0.0
5255,64.0,0.0,40.0,3.0,0.0
5256,52.0,0.0,60.0,4.0,0.0
5257,71.0,0.0,40.0,5.0,0.0
5258,52.0,22.0,60.0,6.0,0.0
5259,67.0,0.0,40.0,1.0,0.0
5260,64.0,0.0,40.0,2.0,0.0
5261,59.0,0.0,40.0,3.0,0.0
5262,67.0,2.0,40.0,5.0,0.0
5263,54.0,24.0,20.0,4.0,0.0
5264,54.0,0.0,20.0,6.0,0.0
5265,71.0,0.0,40.0,1.0,0.0
5266,64.0,2.0,40.0,2.0,0.0
5267,59.0,0.0,40.0,3.0,0.0
5268,55.0,22.0,20.0,4.0,0.0
5269,71.0,0.0,40.0,5.0,0.0
5270,55.0,0.0,20.0,6.0,0.0
5271,57.0,24.0,20.0,4.0,0.0
5272,57.0,0.0,20.0,6.0,0.0
5273,75.0,0.0,90.0,1.0,0.0
5274,69.0,0.0,90.0,2.0,0.0
5275,59.0,2.0,40.0,3.0,0.0
5276,54.0,22.0,20.0,4.0,0.0
5277,75.0,4.0,90.0,5.0,0.0
5278,54.0,0.0,20.0,6.0,0.0
5279,55.0,0.0,20.0,4.0,0.0
5280,55.0,14.0,20.0,6.0,0.0
5281,59.0,3.0,90.0,3.0,0.0
5282,54.0,12.0,15.0,4.0,0.0
5283,53.0,0.0,15.0,6.0,0.0
5284,52.0,12.0,15.0,4.0,0.0
5285,52.0,0.0,15.0,6.0,0.0
5286,54.0,8.0,15.0,4.0,0.0
5287,53.0,0.0,15.0,6.0,0.0
5288,52.0,12.0,15.0,4.0,0.0
5289,52.0,0.0,15.0,6.0,0.0
5290,76.0,0.0,40.0,1.0,0.0
5291,67.0,4.0,40.0,2.0,0.0
5292,54.0,12.0,15.0,4.0,0.0
5293,76.0,0.0,40.0,5.0,0.0
5294,53.0,0.0,15.0,6.0,0.0
5295,52.0,12.0,15.0,4.0,0.0
5296,52.0,0.0,15.0,6.0,0.0
5297,54.0,5.0,15.0,4.0,0.0
5298,53.0,0.0,15.0,6.0,0.0
5299,52.0,44.0,15.0,4.0,0.0
5300,52.0,0.0,15.0,6.0,0.0
5301,71.0,0.0,40.0,1.0,0.0
5302,66.0,0.0,40.0,2.0,0.0
5303,59.0,0.0,40.0,3.0,0.0
5304,51.0,16.0,40.0,4.0,0.0
5305,71.0,0.0,40.0,5.0,0.0
5306,51.0,0.0,40.0,6.0,0.0
5307,69.0,10.0,15.0,1.0,0.0
5308,66.0,0.0,15.0,2.0,0.0
5309,59.0,5.0,90.0,3.0,0.0
5310,52.0,0.0,20.0,4.0,0.0
5311,69.0,0.0,15.0,5.0,0.0
5312,52.0,2.0,20.0,6.0,0.0
5313,67.0,0.0,15.0,1.0,0.0
5314,64.0,0.0,15.0,2.0,0.0
5315,67.0,12.0,15.0,5.0,0.0
5316,69.0,10.0,15.0,1.0,0.0
5317,66.0,0.0,15.0,2.0,0.0
5318,54.0,2.0,20.0,4.0,0.0
5319,69.0,0.0,15.0,5.0,0.0
5320,54.0,0.0,20.0,6.0,0.0
5321,67.0,0.0,15.0,1.0,0.0
5322,64.0,0.0,15.0,2.0,0.0
5323,67.0,12.0,15.0,5.0,0.0
5324,69.0,10.0,15.0,1.0,0.0
5325,66.0,0.0,15.0,2.0,0.0
5326,55.0,2.0,20.0,4.0,0.0
5327,69.0,0.0,15.0,5.0,0.0
5328,55.0,0.0,20.0,6.0,0.0
5329,67.0,0.0,15.0,1.0,0.0
5330,64.0,0.0,15.0,2.0,0.0
5331,67.0,12.0,15.0,5.0,0.0
5332,69.0,5.0,15.0,1.0,0.0
5333,66.0,0.0,15.0,2.0,0.0
5334,57.0,0.0,20.0,4.0,0.0
5335,69.0,0.0,15.0,5.0,0.0
5336,57.0,2.0,20.0,6.0,0.0
5337,67.0,0.0,15.0,1.0,0.0
5338,64.0,0.0,15.0,2.0,0.0
5339,67.0,22.0,15.0,5.0,0.0
5340,66.0,0.0,40.0,1.0,0.0
5341,63.0,2.0,40.0,2.0,0.0
5342,59.0,0.0,40.0,3.0,0.0
5343,59.0,22.0,20.0,4.0,0.0
5344,66.0,0.0,40.0,5.0,0.0
5345,59.0,0.0,20.0,6.0,0.0
5346,57.0,24.0,20.0,4.0,0.0
5347,57.0,0.0,20.0,6.0,0.0
5348,64.0,22.0,20.0,1.0,0.0
5349,59.0,0.0,40.0,2.0,0.0
5350,59.0,0.0,40.0,3.0,0.0
5351,55.0,0.0,40.0,4.0,0.0
5352,64.0,0.0,20.0,5.0,0.0
5353,55.0,2.0,40.0,6.0,0.0
5354,66.0,24.0,20.0,1.0,0.0
5355,66.0,0.0,20.0,5.0,0.0
5356,67.0,22.0,20.0,1.0,0.0
5357,64.0,0.0,40.0,2.0,0.0
5358,59.0,0.0,40.0,3.0,0.0
5359,52.0,0.0,40.0,4.0,0.0
5360,67.0,0.0,20.0,5.0,0.0
5361,52.0,2.0,40.0,6.0,0.0
5362,69.0,46.0,20.0,1.0,0.0
5363,69.0,0.0,20.0,5.0,0.0
5364,71.0,0.0,40.0,1.0,0.0
5365,66.0,0.0,40.0,2.0,0.0
5366,59.0,0.0,40.0,3.0,0.0
5367,51.0,26.0,40.0,4.0,0.0
5368,71.0,0.0,40.0,5.0,0.0
5369,51.0,0.0,40.0,6.0,0.0
5370,67.0,0.0,40.0,1.0,0.0
5371,64.0,2.0,40.0,2.0,0.0
5372,59.0,0.0,40.0,3.0,0.0
5373,52.0,22.0,20.0,4.0,0.0
5374,67.0,0.0,40.0,5.0,0.0
5375,52.0,0.0,20.0,6.0,0.0
5376,54.0,24.0,20.0,4.0,0.0
5377,54.0,0.0,20.0,6.0,0.0
5378,71.0,0.0,40.0,1.0,0.0
5379,64.0,2.0,40.0,2.0,0.0
5380,64.0,0.0,40.0,3.0,0.0
5381,55.0,22.0,20.0,4.0,0.0
5382,71.0,0.0,40.0,5.0,0.0
5383,55.0,0.0,20.0,6.0,0.0
5384,54.0,24.0,20.0,4.0,0.0
5385,54.0,0.0,20.0,6.0,0.0
5386,76.0,0.0,40.0,1.0,0.0
5387,71.0,2.0,40.0,2.0,0.0
5388,67.0,0.0,40.0,3.0,0.0
5389,55.0,22.0,20.0,4.0,0.0
5390,76.0,0.0,40.0,5.0,0.0
5391,55.0,0.0,20.0,6.0,0.0
5392,52.0,46.0,20.0,4.0,0.0
5393,52.0,0.0,20.0,6.0,0.0
5394,78.0,0.0,40.0,1.0,0.0
5395,75.0,0.0,40.0,2.0,0.0
5396,71.0,0.0,40.0,3.0,0.0
5397,47.0,0.0,40.0,4.0,0.0
5398,75.0,0.0,40.0,5.0,0.0
5399,71.0,0.0,40.0,5.0,0.0
5400,78.0,48.0,40.0,5.0,0.0
5401,47.0,0.0,40.0,6.0,0.0
5402,71.0,0.0,40.0,1.0,0.0
5403,66.0,0.0,40.0,2.0,0.0
5404,63.0,0.0,40.0,3.0,0.0
5405,59.0,0.0,40.0,4.0,0.0
5406,66.0,0.0,40.0,5.0,0.0
5407,63.0,0.0,40.0,5.0,0.0
5408,71.0,96.0,40.0,5.0,0.0
5409,59.0,0.0,40.0,6.0,0.0
5410,75.0,0.0,40.0,5.0,0.0
5411,71.0,0.0,40.0,5.0,0.0
5412,78.0,48.0,40.0,5.0,0.0
5413,47.0,0.0,40.0,6.0,0.0
5414,63.0,0.0,40.0,5.0,0.0
5415,66.0,0.0,40.0,5.0,0.0
5416,71.0,96.0,40.0,5.0,0.0
5417,59.0,0.0,40.0,6.0,0.0
5418,79.0,0.0,40.0,1.0,0.0
5419,76.0,0.0,40.0,2.0,0.0
5420,71.0,0.0,40.0,3.0,0.0
5421,47.0,0.0,40.0,4.0,0.0
5422,71.0,0.0,40.0,5.0,0.0
5423,76.0,0.0,40.0,5.0,0.0
5424,79.0,48.0,40.0,5.0,0.0
5425,47.0,0.0,40.0,6.0,0.0
5426,71.0,0.0,40.0,1.0,0.0
5427,67.0,0.0,40.0,2.0,0.0
5428,64.0,0.0,40.0,3.0,0.0
5429,59.0,0.0,40.0,4.0,0.0
5430,67.0,0.0,40.0,5.0,0.0
5431,71.0,0.0,40.0,5.0,0.0
5432,64.0,96.0,40.0,5.0,0.0
5433,59.0,0.0,40.0,6.0,0.0
5434,76.0,0.0,40.0,5.0,0.0
5435,79.0,0.0,40.0,5.0,0.0
5436,71.0,48.0,40.0,5.0,0.0
5437,47.0,0.0,40.0,6.0,0.0
5438,67.0,0.0,40.0,5.0,0.0
5439,64.0,0.0,40.0,5.0,0.0
5440,71.0,96.0,40.0,5.0,0.0
5441,59.0,0.0,40.0,6.0,0.0
5442,81.0,0.0,40.0,1.0,0.0
5443,75.0,0.0,40.0,2.0,0.0
5444,66.0,0.0,40.0,3.0,0.0
5445,47.0,0.0,40.0,4.0,0.0
5446,75.0,0.0,40.0,5.0,0.0
5447,81.0,0.0,40.0,5.0,0.0
5448,71.0,48.0,40.0,5.0,0.0
5449,47.0,0.0,40.0,6.0,0.0
5450,71.0,0.0,40.0,1.0,0.0
5451,66.0,0.0,40.0,2.0,0.0
5452,63.0,0.0,40.0,3.0,0.0
5453,59.0,0.0,40.0,4.0,0.0
5454,63.0,0.0,40.0,5.0,0.0
5455,66.0,0.0,40.0,5.0,0.0
5456,71.0,96.0,40.0,5.0,0.0
5457,59.0,0.0,40.0,6.0,0.0
5458,78.0,0.0,40.0,5.0,0.0
5459,75.0,0.0,40.0,5.0,0.0
5460,81.0,48.0,40.0,5.0,0.0
5461,47.0,0.0,40.0,6.0,0.0
5462,63.0,0.0,40.0,5.0,0.0
5463,66.0,0.0,40.0,5.0,0.0
5464,71.0,74.0,40.0,5.0,0.0
5465,59.0,0.0,40.0,6.0,0.0
5466,76.0,22.0,20.0,1.0,0.0
5467,79.0,2.0,180.0,5.0,0.0
5468,52.0,2.0,40.0,6.0,0.0
5469,74.0,24.0,20.0,1.0,0.0
5470,72.0,22.0,20.0,1.0,0.0
5471,55.0,2.0,40.0,6.0,0.0
5472,71.0,24.0,20.0,1.0,0.0
5473,69.0,22.0,20.0,1.0,0.0
5474,59.0,2.0,40.0,6.0,0.0
5475,67.0,24.0,20.0,1.0,0.0
5476,69.0,22.0,20.0,1.0,0.0
5477,48.0,0.0,40.0,6.0,0.0
5478,64.0,14.0,20.0,1.0,0.0
5479,69.0,2.0,20.0,1.0,0.0
5480,78.0,10.0,15.0,5.0,0.0
5481,60.0,2.0,40.0,6.0,0.0
5482,79.0,20.0,15.0,5.0,0.0
5483,71.0,46.0,20.0,1.0,0.0
5484,78.0,0.0,20.0,5.0,0.0
5485,72.0,22.0,60.0,1.0,0.0
5486,76.0,26.0,40.0,5.0,0.0
5487,75.0,0.0,20.0,5.0,0.0
5488,54.0,2.0,40.0,6.0,0.0
5489,71.0,24.0,20.0,1.0,0.0
5490,76.0,0.0,20.0,5.0,0.0
5491,69.0,22.0,20.0,1.0,0.0
5492,78.0,0.0,20.0,5.0,0.0
5493,57.0,2.0,40.0,6.0,0.0
5494,67.0,24.0,20.0,1.0,0.0
5495,79.0,0.0,20.0,5.0,0.0
5496,66.0,22.0,20.0,1.0,0.0
5497,81.0,22.0,60.0,5.0,0.0
5498,60.0,2.0,40.0,6.0,0.0
5499,64.0,24.0,20.0,1.0,0.0
5500,63.0,0.0,20.0,1.0,0.0
5501,47.0,2.0,40.0,6.0,0.0
5502,64.0,24.0,20.0,1.0,0.0
5503,79.0,0.0,20.0,5.0,0.0
5504,66.0,22.0,20.0,1.0,0.0
5505,78.0,0.0,20.0,5.0,0.0
5506,59.0,2.0,40.0,6.0,0.0
5507,67.0,24.0,20.0,1.0,0.0
5508,76.0,0.0,20.0,5.0,0.0
5509,69.0,22.0,60.0,1.0,0.0
5510,75.0,24.0,20.0,5.0,0.0
5511,73.0,24.0,20.0,5.0,0.0
5512,66.0,0.0,40.0,2.0,0.0
5513,59.0,0.0,40.0,3.0,0.0
5514,51.0,0.0,40.0,4.0,0.0
5515,71.0,0.0,40.0,5.0,0.0
5516,51.0,2.0,40.0,6.0,0.0
5517,71.0,24.0,20.0,1.0,0.0
5518,73.0,22.0,20.0,1.0,0.0
5519,66.0,0.0,40.0,2.0,0.0
5520,59.0,0.0,40.0,3.0,0.0
5521,51.0,0.0,40.0,4.0,0.0
5522,73.0,0.0,20.0,5.0,0.0
5523,51.0,2.0,40.0,6.0,0.0
5524,75.0,24.0,20.0,1.0,0.0
5525,75.0,0.0,20.0,5.0,0.0
5526,76.0,22.0,20.0,1.0,0.0
5527,66.0,0.0,40.0,2.0,0.0
5528,59.0,0.0,40.0,3.0,0.0
5529,51.0,0.0,40.0,4.0,0.0
5530,76.0,0.0,20.0,5.0,0.0
5531,51.0,2.0,40.0,6.0,0.0
5532,78.0,24.0,20.0,1.0,0.0
5533,78.0,0.0,20.0,5.0,0.0
5534,79.0,0.0,40.0,1.0,0.0
5535,64.0,0.0,20.0,2.0,0.0
5536,59.0,0.0,40.0,3.0,0.0
5537,52.0,22.0,20.0,4.0,0.0
5538,79.0,2.0,40.0,5.0,0.0
5539,52.0,0.0,20.0,6.0,0.0
5540,66.0,0.0,20.0,2.0,0.0
5541,51.0,0.0,20.0,4.0,0.0
5542,51.0,24.0,20.0,6.0,0.0
5543,75.0,0.0,40.0,1.0,0.0
5544,67.0,0.0,20.0,2.0,0.0
5545,71.0,0.0,40.0,3.0,0.0
5546,52.0,22.0,20.0,4.0,0.0
5547,75.0,2.0,40.0,5.0,0.0
5548,52.0,0.0,20.0,6.0,0.0
5549,69.0,0.0,20.0,2.0,0.0
5550,54.0,0.0,20.0,4.0,0.0
5551,54.0,24.0,20.0,6.0,0.0
5552,76.0,0.0,40.0,1.0,0.0
5553,71.0,0.0,20.0,2.0,0.0
5554,64.0,0.0,90.0,3.0,0.0
5555,55.0,22.0,20.0,4.0,0.0
5556,76.0,2.0,40.0,5.0,0.0
5557,55.0,0.0,20.0,6.0,0.0
5558,72.0,0.0,20.0,2.0,0.0
5559,57.0,0.0,20.0,4.0,0.0
5560,57.0,46.0,20.0,6.0,0.0
5561,67.0,0.0,40.0,1.0,0.0
5562,59.0,0.0,40.0,2.0,0.0
5563,59.0,48.0,40.0,4.0,0.0
5564,67.0,0.0,40.0,5.0,0.0
5565,59.0,0.0,40.0,6.0,0.0
5566,69.0,0.0,40.0,1.0,0.0
5567,66.0,0.0,40.0,2.0,0.0
5568,60.0,0.0,40.0,3.0,0.0
5569,57.0,48.0,40.0,4.0,0.0
5570,69.0,0.0,40.0,5.0,0.0
5571,57.0,0.0,40.0,6.0,0.0
5572,66.0,0.0,40.0,1.0,0.0
5573,63.0,0.0,40.0,2.0,0.0
5574,59.0,0.0,40.0,3.0,0.0
5575,59.0,48.0,40.0,4.0,0.0
5576,66.0,0.0,40.0,5.0,0.0
5577,59.0,0.0,40.0,6.0,0.0
5578,64.0,0.0,150.0,1.0,0.0
5579,59.0,0.0,150.0,2.0,0.0
5580,55.0,2.0,150.0,3.0,0.0
5581,52.0,26.0,40.0,4.0,0.0
5582,64.0,2.0,90.0,5.0,0.0
5583,52.0,0.0,40.0,6.0,0.0
5584,47.0,22.0,20.0,4.0,0.0
5585,47.0,0.0,20.0,6.0,0.0
5586,45.0,0.0,20.0,4.0,0.0
5587,45.0,24.0,20.0,6.0,0.0
5588,43.0,22.0,20.0,4.0,0.0
5589,43.0,0.0,20.0,6.0,0.0
5590,42.0,0.0,20.0,4.0,0.0
5591,42.0,24.0,20.0,6.0,0.0
5592,64.0,2.0,40.0,2.0,0.0
5593,40.0,0.0,90.0,4.0,0.0
5594,76.0,22.0,20.0,5.0,0.0
5595,40.0,3.0,90.0,6.0,0.0
5596,71.0,24.0,20.0,5.0,0.0
5597,67.0,2.0,40.0,2.0,0.0
5598,76.0,19.0,20.0,5.0,0.0
5599,78.0,24.0,20.0,5.0,0.0
5600,71.0,2.0,40.0,2.0,0.0
5601,79.0,22.0,20.0,5.0,0.0
5602,78.0,24.0,20.0,5.0,0.0
5603,64.0,22.0,20.0,1.0,0.0
5604,67.0,0.0,40.0,2.0,0.0
5605,52.0,2.0,40.0,3.0,0.0
5606,76.0,0.0,40.0,5.0,0.0
5607,64.0,0.0,40.0,6.0,0.0
5608,59.0,24.0,20.0,1.0,0.0
5609,64.0,22.0,20.0,1.0,0.0
5610,71.0,0.0,40.0,2.0,0.0
5611,55.0,2.0,40.0,3.0,0.0
5612,83.0,22.0,120.0,5.0,0.0
5613,67.0,0.0,40.0,6.0,0.0
5614,66.0,24.0,20.0,1.0,0.0
5615,67.0,22.0,20.0,1.0,0.0
5616,76.0,2.0,40.0,2.0,0.0
5617,59.0,0.0,40.0,3.0,0.0
5618,71.0,0.0,40.0,6.0,0.0
5619,66.0,24.0,20.0,1.0,0.0
5620,64.0,0.0,40.0,1.0,0.0
5621,71.0,0.0,40.0,2.0,0.0
5622,55.0,0.0,40.0,3.0,0.0
5623,40.0,0.0,40.0,4.0,0.0
5624,52.0,2.0,40.0,6.0,0.0
5625,81.0,24.0,20.0,5.0,0.0
5626,71.0,22.0,120.0,1.0,0.0
5627,64.0,0.0,40.0,2.0,0.0
5628,59.0,0.0,40.0,3.0,0.0
5629,43.0,0.0,40.0,4.0,0.0
5630,79.0,22.0,20.0,5.0,0.0
5631,55.0,2.0,40.0,6.0,0.0
5632,78.0,24.0,20.0,5.0,0.0
5633,66.0,0.0,40.0,2.0,0.0
5634,59.0,0.0,40.0,3.0,0.0
5635,47.0,0.0,40.0,4.0,0.0
5636,76.0,22.0,20.0,5.0,0.0
5637,59.0,2.0,40.0,6.0,0.0
5638,75.0,24.0,20.0,5.0,0.0
5639,67.0,0.0,40.0,2.0,0.0
5640,59.0,0.0,40.0,3.0,0.0
5641,43.0,0.0,40.0,4.0,0.0
5642,76.0,0.0,40.0,5.0,0.0
5643,55.0,2.0,40.0,6.0,0.0
5644,69.0,24.0,20.0,1.0,0.0
5645,67.0,22.0,20.0,1.0,0.0
5646,71.0,0.0,40.0,2.0,0.0
5647,64.0,0.0,40.0,3.0,0.0
5648,40.0,0.0,40.0,4.0,0.0
5649,83.0,0.0,150.0,5.0,0.0
5650,52.0,2.0,40.0,6.0,0.0
5651,66.0,14.0,20.0,1.0,0.0
5652,64.0,2.0,20.0,1.0,0.0
5653,66.0,0.0,40.0,2.0,0.0
5654,57.0,2.0,40.0,3.0,0.0
5655,42.0,0.0,40.0,4.0,0.0
5656,55.0,10.0,15.0,6.0,0.0
5657,54.0,12.0,15.0,6.0,0.0
5658,63.0,2.0,20.0,1.0,0.0
5659,52.0,8.0,15.0,6.0,0.0
5660,54.0,44.0,15.0,6.0,0.0
5661,64.0,0.0,40.0,1.0,0.0
5662,64.0,0.0,40.0,2.0,0.0
5663,55.0,26.0,40.0,3.0,0.0
5664,43.0,0.0,40.0,4.0,0.0
5665,55.0,0.0,40.0,6.0,0.0
5666,69.0,2.0,150.0,1.0,0.0
5667,81.0,22.0,20.0,5.0,0.0
5668,60.0,2.0,40.0,6.0,0.0
5669,79.0,24.0,20.0,5.0,0.0
5670,78.0,22.0,20.0,5.0,0.0
5671,57.0,2.0,40.0,6.0,0.0
5672,76.0,24.0,20.0,5.0,0.0
5673,75.0,22.0,20.0,5.0,0.0
5674,59.0,0.0,20.0,6.0,0.0
5675,76.0,24.0,20.0,5.0,0.0
5676,60.0,0.0,20.0,6.0,0.0
5677,75.0,5.0,90.0,1.0,0.0
5678,78.0,24.0,20.0,5.0,0.0
5679,59.0,0.0,20.0,6.0,0.0
5680,72.0,24.0,20.0,5.0,0.0
5681,57.0,0.0,20.0,6.0,0.0
5682,71.0,19.0,20.0,5.0,0.0
5683,55.0,0.0,20.0,6.0,0.0
5684,69.0,24.0,20.0,5.0,0.0
5685,54.0,0.0,20.0,6.0,0.0
5686,76.0,2.0,40.0,1.0,0.0
5687,67.0,22.0,20.0,5.0,0.0
5688,52.0,0.0,20.0,6.0,0.0
5689,71.0,24.0,20.0,5.0,0.0
5690,50.0,0.0,20.0,6.0,0.0
5691,64.0,2.0,40.0,1.0,0.0
5692,69.0,22.0,20.0,5.0,0.0
5693,48.0,0.0,20.0,6.0,0.0
5694,67.0,24.0,20.0,5.0,0.0
5695,47.0,0.0,20.0,6.0,0.0
5696,76.0,2.0,90.0,1.0,0.0
5697,66.0,24.0,20.0,5.0,0.0
5698,45.0,0.0,20.0,6.0,0.0
5699,64.0,14.0,20.0,5.0,0.0
5700,48.0,0.0,20.0,6.0,0.0
5701,72.0,10.0,15.0,5.0,0.0
5702,47.0,2.0,20.0,6.0,0.0
5703,71.0,12.0,15.0,5.0,0.0
5704,72.0,8.0,15.0,5.0,0.0
5705,48.0,2.0,20.0,6.0,0.0
5706,71.0,12.0,15.0,5.0,0.0
5707,75.0,2.0,20.0,1.0,0.0
5708,72.0,10.0,15.0,5.0,0.0
5709,47.0,0.0,20.0,6.0,0.0
5710,71.0,12.0,15.0,5.0,0.0
5711,73.0,2.0,20.0,1.0,0.0
5712,72.0,10.0,15.0,5.0,0.0
5713,45.0,0.0,20.0,6.0,0.0
5714,71.0,12.0,15.0,5.0,0.0
5715,71.0,2.0,20.0,1.0,0.0
5716,72.0,10.0,15.0,5.0,0.0
5717,43.0,0.0,20.0,6.0,0.0
5718,71.0,12.0,15.0,5.0,0.0
5719,69.0,2.0,20.0,1.0,0.0
5720,72.0,10.0,15.0,5.0,0.0
5721,42.0,0.0,20.0,6.0,0.0
5722,71.0,12.0,15.0,5.0,0.0
5723,67.0,2.0,20.0,1.0,0.0
5724,59.0,0.0,40.0,2.0,0.0
5725,64.0,2.0,40.0,3.0,0.0
5726,72.0,10.0,15.0,5.0,0.0
5727,40.0,0.0,40.0,6.0,0.0
5728,71.0,12.0,15.0,5.0,0.0
5729,66.0,2.0,20.0,1.0,0.0
5730,72.0,8.0,15.0,5.0,0.0
5731,71.0,12.0,15.0,5.0,0.0
5732,67.0,2.0,20.0,1.0,0.0
5733,64.0,0.0,40.0,2.0,0.0
5734,59.0,2.0,40.0,3.0,0.0
5735,72.0,10.0,15.0,5.0,0.0
5736,52.0,0.0,40.0,6.0,0.0
5737,71.0,12.0,15.0,5.0,0.0
5738,69.0,2.0,20.0,1.0,0.0
5739,72.0,8.0,15.0,5.0,0.0
5740,71.0,12.0,15.0,5.0,0.0
5741,71.0,0.0,40.0,1.0,0.0
5742,66.0,4.0,40.0,2.0,0.0
5743,59.0,0.0,40.0,3.0,0.0
5744,72.0,12.0,15.0,5.0,0.0
5745,51.0,0.0,40.0,6.0,0.0
5746,71.0,12.0,15.0,5.0,0.0
5747,72.0,8.0,15.0,5.0,0.0
5748,71.0,12.0,15.0,5.0,0.0
5749,67.0,0.0,40.0,1.0,0.0
5750,64.0,0.0,40.0,2.0,0.0
5751,59.0,2.0,40.0,3.0,0.0
5752,52.0,0.0,20.0,4.0,0.0
5753,72.0,10.0,15.0,5.0,0.0
5754,52.0,2.0,20.0,6.0,0.0
5755,71.0,12.0,15.0,5.0,0.0
5756,54.0,0.0,20.0,4.0,0.0
5757,72.0,8.0,15.0,5.0,0.0
5758,54.0,2.0,20.0,6.0,0.0
5759,71.0,12.0,15.0,5.0,0.0
5760,71.0,0.0,40.0,1.0,0.0
5761,59.0,0.0,40.0,2.0,0.0
5762,64.0,2.0,40.0,3.0,0.0
5763,55.0,0.0,20.0,4.0,0.0
5764,72.0,10.0,15.0,5.0,0.0
5765,55.0,2.0,20.0,6.0,0.0
5766,71.0,12.0,15.0,5.0,0.0
5767,57.0,0.0,20.0,4.0,0.0
5768,72.0,8.0,15.0,5.0,0.0
5769,57.0,2.0,20.0,6.0,0.0
5770,71.0,12.0,15.0,5.0,0.0
5771,75.0,0.0,90.0,1.0,0.0
5772,66.0,4.0,90.0,2.0,0.0
5773,59.0,2.0,40.0,3.0,0.0
5774,59.0,0.0,20.0,4.0,0.0
5775,72.0,10.0,15.0,5.0,0.0
5776,59.0,2.0,20.0,6.0,0.0
5777,71.0,12.0,15.0,5.0,0.0
5778,57.0,0.0,20.0,4.0,0.0
5779,72.0,8.0,15.0,5.0,0.0
5780,57.0,2.0,20.0,6.0,0.0
5781,71.0,12.0,15.0,5.0,0.0
5782,59.0,0.0,40.0,3.0,0.0
5783,55.0,3.0,90.0,4.0,0.0
5784,72.0,12.0,15.0,5.0,0.0
5785,57.0,0.0,15.0,6.0,0.0
5786,71.0,12.0,15.0,5.0,0.0
5787,55.0,0.0,15.0,6.0,0.0
5788,72.0,8.0,15.0,5.0,0.0
5789,57.0,0.0,15.0,6.0,0.0
5790,71.0,12.0,15.0,5.0,0.0
5791,55.0,0.0,15.0,6.0,0.0
5792,76.0,0.0,40.0,1.0,0.0
5793,67.0,4.0,40.0,2.0,0.0
5794,59.0,0.0,40.0,3.0,0.0
5795,72.0,12.0,15.0,5.0,0.0
5796,57.0,0.0,15.0,6.0,0.0
5797,71.0,12.0,15.0,5.0,0.0
5798,55.0,0.0,15.0,6.0,0.0
5799,72.0,5.0,15.0,5.0,0.0
5800,57.0,0.0,15.0,6.0,0.0
5801,71.0,12.0,15.0,5.0,0.0
5802,55.0,0.0,15.0,6.0,0.0
5803,71.0,0.0,40.0,1.0,0.0
5804,66.0,0.0,40.0,2.0,0.0
5805,59.0,0.0,40.0,3.0,0.0
5806,51.0,0.0,40.0,4.0,0.0
5807,72.0,12.0,15.0,5.0,0.0
5808,51.0,16.0,40.0,6.0,0.0
5809,71.0,12.0,15.0,5.0,0.0
5810,72.0,8.0,15.0,5.0,0.0
5811,71.0,2.0,30.0,5.0,0.0
5812,69.0,10.0,15.0,1.0,0.0
5813,64.0,0.0,90.0,2.0,0.0
5814,59.0,0.0,90.0,3.0,0.0
5815,52.0,0.0,40.0,4.0,0.0
5816,52.0,2.0,40.0,6.0,0.0
5817,67.0,12.0,15.0,1.0,0.0
5818,69.0,8.0,15.0,1.0,0.0
5819,73.0,2.0,20.0,5.0,0.0
5820,67.0,12.0,15.0,1.0,0.0
5821,69.0,10.0,15.0,1.0,0.0
5822,59.0,0.0,40.0,4.0,0.0
5823,75.0,2.0,20.0,5.0,0.0
5824,59.0,2.0,40.0,6.0,0.0
5825,67.0,12.0,15.0,1.0,0.0
5826,69.0,8.0,15.0,1.0,0.0
5827,76.0,2.0,20.0,5.0,0.0
5828,67.0,22.0,15.0,1.0,0.0
5829,66.0,0.0,40.0,1.0,0.0
5830,63.0,4.0,40.0,2.0,0.0
5831,59.0,0.0,40.0,3.0,0.0
5832,47.0,0.0,40.0,4.0,0.0
5833,78.0,14.0,20.0,5.0,0.0
5834,47.0,0.0,40.0,6.0,0.0
5835,79.0,8.0,15.0,5.0,0.0
5836,81.0,22.0,15.0,5.0,0.0
5837,79.0,14.0,20.0,5.0,0.0
5838,52.0,4.0,40.0,6.0,0.0
5839,81.0,8.0,15.0,5.0,0.0
5840,83.0,22.0,15.0,5.0,0.0
5841,81.0,22.0,20.0,5.0,0.0
5842,54.0,2.0,40.0,6.0,0.0
5843,79.0,24.0,20.0,5.0,0.0
5844,78.0,24.0,20.0,5.0,0.0
5845,55.0,22.0,60.0,6.0,0.0
5846,76.0,24.0,20.0,5.0,0.0
5847,85.0,2.0,40.0,5.0,0.0
5848,52.0,24.0,20.0,6.0,0.0
5849,81.0,0.0,40.0,1.0,0.0
5850,78.0,2.0,40.0,2.0,0.0
5851,74.0,0.0,40.0,3.0,0.0
5852,85.0,0.0,40.0,5.0,0.0
5853,54.0,22.0,20.0,6.0,0.0
5854,55.0,24.0,20.0,6.0,0.0
5855,78.0,0.0,40.0,1.0,0.0
5856,74.0,2.0,40.0,2.0,0.0
5857,69.0,0.0,40.0,3.0,0.0
5858,86.0,0.0,40.0,5.0,0.0
5859,57.0,22.0,20.0,6.0,0.0
5860,54.0,24.0,20.0,6.0,0.0
5861,78.0,14.0,20.0,5.0,0.0
5862,50.0,4.0,40.0,6.0,0.0
5863,79.0,8.0,15.0,5.0,0.0
5864,81.0,22.0,15.0,5.0,0.0
5865,79.0,22.0,20.0,5.0,0.0
5866,52.0,2.0,40.0,6.0,0.0
5867,78.0,24.0,20.0,5.0,0.0
5868,76.0,24.0,20.0,5.0,0.0
5869,53.0,22.0,60.0,6.0,0.0
5870,74.0,24.0,20.0,5.0,0.0
5871,83.0,2.0,40.0,5.0,0.0
5872,50.0,24.0,20.0,6.0,0.0
5873,79.0,0.0,40.0,1.0,0.0
5874,76.0,2.0,40.0,2.0,0.0
5875,72.0,0.0,40.0,3.0,0.0
5876,83.0,0.0,40.0,5.0,0.0
5877,52.0,22.0,20.0,6.0,0.0
5878,53.0,24.0,20.0,6.0,0.0
5879,76.0,0.0,40.0,1.0,0.0
5880,72.0,2.0,40.0,2.0,0.0
5881,67.0,0.0,40.0,3.0,0.0
5882,84.0,0.0,40.0,5.0,0.0
5883,55.0,22.0,20.0,6.0,0.0
5884,52.0,24.0,20.0,6.0,0.0
5885,76.0,22.0,20.0,5.0,0.0
5886,48.0,2.0,40.0,6.0,0.0
5887,79.0,24.0,20.0,5.0,0.0
5888,81.0,22.0,20.0,5.0,0.0
5889,52.0,2.0,40.0,6.0,0.0
5890,79.0,24.0,20.0,5.0,0.0
5891,78.0,22.0,20.0,5.0,0.0
5892,55.0,2.0,40.0,6.0,0.0
5893,79.0,24.0,20.0,5.0,0.0
5894,74.0,22.0,20.0,5.0,0.0
5895,47.0,2.0,40.0,6.0,0.0
5896,79.0,24.0,20.0,5.0,0.0
5897,81.0,22.0,20.0,5.0,0.0
5898,50.0,2.0,40.0,6.0,0.0
5899,79.0,24.0,20.0,5.0,0.0
5900,78.0,22.0,20.0,5.0,0.0
5901,55.0,2.0,40.0,6.0,0.0
5902,79.0,24.0,20.0,5.0,0.0
5903,72.0,22.0,20.0,5.0,0.0
5904,45.0,2.0,40.0,6.0,0.0
5905,79.0,24.0,20.0,5.0,0.0
5906,81.0,22.0,20.0,5.0,0.0
5907,48.0,2.0,40.0,6.0,0.0
5908,79.0,24.0,20.0,5.0,0.0
5909,78.0,22.0,20.0,5.0,0.0
5910,50.0,2.0,40.0,6.0,0.0
5911,79.0,24.0,20.0,5.0,0.0
5912,71.0,22.0,20.0,5.0,0.0
5913,43.0,2.0,40.0,6.0,0.0
5914,79.0,24.0,20.0,5.0,0.0
5915,81.0,22.0,20.0,5.0,0.0
5916,47.0,2.0,40.0,6.0,0.0
5917,79.0,24.0,20.0,5.0,0.0
5918,78.0,22.0,20.0,5.0,0.0
5919,50.0,2.0,40.0,6.0,0.0
5920,79.0,24.0,20.0,5.0,0.0
5921,69.0,2.0,40.0,5.0,0.0
5922,49.0,22.0,20.0,6.0,0.0
5923,62.0,24.0,20.0,6.0,0.0
5924,76.0,2.0,40.0,5.0,0.0
5925,61.0,22.0,20.0,6.0,0.0
5926,59.0,24.0,20.0,6.0,0.0
5927,79.0,2.0,40.0,5.0,0.0
5928,57.0,22.0,20.0,6.0,0.0
5929,55.0,24.0,20.0,6.0,0.0
5930,85.0,2.0,40.0,5.0,0.0
5931,54.0,22.0,20.0,6.0,0.0
5932,52.0,24.0,20.0,6.0,0.0
5933,86.0,2.0,40.0,5.0,0.0
5934,50.0,22.0,20.0,6.0,0.0
5935,48.0,46.0,20.0,6.0,0.0
5936,79.0,48.0,40.0,5.0,0.0
5937,47.0,0.0,40.0,6.0,0.0
5938,84.0,26.0,40.0,5.0,0.0
5939,52.0,0.0,40.0,6.0,0.0
5940,83.0,22.0,20.0,5.0,0.0
5941,48.0,26.0,40.0,6.0,0.0
5942,81.0,14.0,40.0,5.0,0.0
5943,50.0,4.0,40.0,6.0,0.0
5944,79.0,8.0,15.0,5.0,0.0
5945,81.0,12.0,15.0,5.0,0.0
5946,43.0,2.0,20.0,4.0,0.0
5947,81.0,10.0,15.0,5.0,0.0
5948,43.0,0.0,20.0,6.0,0.0
5949,79.0,12.0,15.0,5.0,0.0
5950,45.0,2.0,20.0,4.0,0.0
5951,81.0,10.0,15.0,5.0,0.0
5952,45.0,0.0,20.0,6.0,0.0
5953,79.0,12.0,15.0,5.0,0.0
5954,47.0,2.0,20.0,4.0,0.0
5955,81.0,10.0,15.0,5.0,0.0
5956,47.0,0.0,20.0,6.0,0.0
5957,79.0,12.0,15.0,5.0,0.0
5958,48.0,2.0,20.0,4.0,0.0
5959,81.0,10.0,15.0,5.0,0.0
5960,48.0,0.0,20.0,6.0,0.0
5961,79.0,12.0,15.0,5.0,0.0
5962,50.0,2.0,20.0,4.0,0.0
5963,81.0,10.0,15.0,5.0,0.0
5964,50.0,0.0,20.0,6.0,0.0
5965,79.0,12.0,15.0,5.0,0.0
5966,48.0,2.0,20.0,4.0,0.0
5967,81.0,10.0,15.0,5.0,0.0
5968,48.0,0.0,20.0,6.0,0.0
5969,79.0,12.0,15.0,5.0,0.0
5970,67.0,2.0,20.0,1.0,0.0
5971,47.0,2.0,40.0,4.0,0.0
5972,81.0,10.0,15.0,5.0,0.0
5973,47.0,0.0,20.0,6.0,0.0
5974,79.0,12.0,15.0,5.0,0.0
5975,69.0,2.0,20.0,1.0,0.0
5976,81.0,8.0,15.0,5.0,0.0
5977,50.0,0.0,20.0,6.0,0.0
5978,79.0,12.0,15.0,5.0,0.0
5979,71.0,2.0,20.0,1.0,0.0
5980,47.0,2.0,40.0,4.0,0.0
5981,81.0,10.0,15.0,5.0,0.0
5982,55.0,0.0,20.0,6.0,0.0
5983,79.0,12.0,15.0,5.0,0.0
5984,72.0,2.0,20.0,1.0,0.0
5985,81.0,8.0,15.0,5.0,0.0
5986,57.0,0.0,20.0,6.0,0.0
5987,79.0,12.0,15.0,5.0,0.0
5988,74.0,2.0,20.0,1.0,0.0
5989,47.0,2.0,40.0,4.0,0.0
5990,81.0,10.0,15.0,5.0,0.0
5991,59.0,0.0,20.0,6.0,0.0
5992,79.0,12.0,15.0,5.0,0.0
5993,72.0,2.0,20.0,1.0,0.0
5994,81.0,8.0,15.0,5.0,0.0
5995,60.0,0.0,20.0,6.0,0.0
5996,79.0,12.0,15.0,5.0,0.0
5997,71.0,2.0,20.0,1.0,0.0
5998,67.0,0.0,20.0,2.0,0.0
5999,47.0,2.0,40.0,4.0,0.0
6000,81.0,10.0,15.0,5.0,0.0
6001,62.0,0.0,20.0,6.0,0.0
6002,79.0,12.0,15.0,5.0,0.0
6003,72.0,0.0,20.0,1.0,0.0
6004,69.0,2.0,20.0,2.0,0.0
6005,81.0,8.0,15.0,5.0,0.0
6006,64.0,0.0,20.0,6.0,0.0
6007,79.0,12.0,15.0,5.0,0.0
6008,74.0,2.0,20.0,1.0,0.0
6009,71.0,0.0,20.0,2.0,0.0
6010,47.0,2.0,40.0,4.0,0.0
6011,81.0,10.0,15.0,5.0,0.0
6012,62.0,0.0,20.0,6.0,0.0
6013,79.0,12.0,15.0,5.0,0.0
6014,76.0,0.0,20.0,1.0,0.0
6015,72.0,2.0,20.0,2.0,0.0
6016,81.0,8.0,15.0,5.0,0.0
6017,60.0,0.0,20.0,6.0,0.0
6018,79.0,22.0,15.0,5.0,0.0
6019,78.0,0.0,90.0,1.0,0.0
6020,74.0,22.0,20.0,2.0,0.0
6021,47.0,2.0,40.0,4.0,0.0
6022,59.0,0.0,20.0,6.0,0.0
6023,72.0,24.0,20.0,2.0,0.0
6024,57.0,0.0,20.0,6.0,0.0
6025,71.0,2.0,40.0,2.0,0.0
6026,55.0,22.0,20.0,3.0,0.0
6027,47.0,0.0,40.0,4.0,0.0
6028,59.0,0.0,20.0,6.0,0.0
6029,57.0,0.0,20.0,3.0,0.0
6030,60.0,24.0,20.0,6.0,0.0
6031,79.0,0.0,40.0,1.0,0.0
6032,67.0,2.0,40.0,2.0,0.0
6033,59.0,22.0,20.0,3.0,0.0
6034,47.0,0.0,40.0,4.0,0.0
6035,59.0,0.0,20.0,6.0,0.0
6036,60.0,0.0,20.0,3.0,0.0
6037,57.0,24.0,20.0,6.0,0.0
6038,65.0,0.0,90.0,1.0,0.0
6039,62.0,2.0,40.0,2.0,0.0
6040,62.0,22.0,20.0,3.0,0.0
6041,47.0,0.0,40.0,4.0,0.0
6042,59.0,0.0,20.0,6.0,0.0
6043,59.0,24.0,20.0,3.0,0.0
6044,55.0,0.0,20.0,6.0,0.0
6045,60.0,0.0,40.0,2.0,0.0
6046,55.0,0.0,40.0,3.0,0.0
6047,48.0,0.0,40.0,4.0,0.0
6048,72.0,22.0,20.0,5.0,0.0
6049,60.0,2.0,40.0,6.0,0.0
6050,74.0,24.0,20.0,5.0,0.0
6051,64.0,0.0,40.0,1.0,0.0
6052,67.0,0.0,40.0,2.0,0.0
6053,60.0,0.0,40.0,3.0,0.0
6054,60.0,0.0,40.0,4.0,0.0
6055,76.0,22.0,20.0,5.0,0.0
6056,55.0,2.0,40.0,6.0,0.0
6057,77.0,24.0,20.0,5.0,0.0
6058,79.0,22.0,20.0,5.0,0.0
6059,52.0,2.0,40.0,6.0,0.0
6060,77.0,24.0,20.0,5.0,0.0
6061,76.0,2.0,40.0,5.0,0.0
6062,48.0,22.0,20.0,6.0,0.0
6063,50.0,24.0,20.0,6.0,0.0
6064,79.0,2.0,40.0,5.0,0.0
6065,52.0,22.0,20.0,6.0,0.0
6066,53.0,24.0,20.0,6.0,0.0
6067,83.0,2.0,90.0,5.0,0.0
6068,55.0,24.0,20.0,6.0,0.0
6069,53.0,24.0,20.0,6.0,0.0
6070,48.0,22.0,20.0,4.0,0.0
6071,52.0,0.0,40.0,6.0,0.0
6072,50.0,24.0,20.0,4.0,0.0
6073,52.0,22.0,20.0,4.0,0.0
6074,84.0,2.0,40.0,5.0,0.0
6075,48.0,0.0,40.0,6.0,0.0
6076,53.0,24.0,20.0,4.0,0.0
6077,55.0,22.0,20.0,4.0,0.0
6078,70.0,2.0,40.0,5.0,0.0
6079,52.0,0.0,40.0,6.0,0.0
6080,52.0,14.0,20.0,4.0,0.0
6081,65.0,2.0,20.0,1.0,0.0
6082,53.0,2.0,40.0,4.0,0.0
6083,72.0,10.0,15.0,5.0,0.0
6084,53.0,0.0,20.0,6.0,0.0
6085,70.0,12.0,15.0,5.0,0.0
6086,67.0,2.0,20.0,1.0,0.0
6087,72.0,8.0,15.0,5.0,0.0
6088,48.0,0.0,20.0,6.0,0.0
6089,70.0,22.0,15.0,5.0,0.0
6090,69.0,22.0,20.0,1.0,0.0
6091,53.0,2.0,40.0,4.0,0.0
6092,69.0,0.0,40.0,5.0,0.0
6093,53.0,0.0,20.0,6.0,0.0
6094,70.0,0.0,20.0,1.0,0.0
6095,55.0,24.0,20.0,6.0,0.0
6096,72.0,22.0,20.0,1.0,0.0
6097,53.0,2.0,40.0,4.0,0.0
6098,57.0,0.0,20.0,6.0,0.0
6099,70.0,24.0,20.0,1.0,0.0
6100,58.0,0.0,20.0,6.0,0.0
6101,69.0,0.0,20.0,1.0,0.0
6102,65.0,22.0,20.0,2.0,0.0
6103,53.0,2.0,40.0,4.0,0.0
6104,60.0,0.0,20.0,6.0,0.0
6105,70.0,0.0,20.0,1.0,0.0
6106,67.0,0.0,20.0,2.0,0.0
6107,62.0,24.0,20.0,6.0,0.0
6108,72.0,0.0,20.0,1.0,0.0
6109,69.0,22.0,20.0,2.0,0.0
6110,53.0,2.0,40.0,4.0,0.0
6111,60.0,0.0,20.0,6.0,0.0
6112,74.0,0.0,20.0,1.0,0.0
6113,70.0,0.0,20.0,2.0,0.0
6114,58.0,24.0,20.0,6.0,0.0
6115,76.0,0.0,90.0,1.0,0.0
6116,72.0,22.0,20.0,2.0,0.0
6117,53.0,2.0,40.0,4.0,0.0
6118,57.0,0.0,20.0,6.0,0.0
6119,70.0,24.0,20.0,2.0,0.0
6120,55.0,0.0,20.0,6.0,0.0
6121,69.0,2.0,40.0,2.0,0.0
6122,65.0,22.0,20.0,3.0,0.0
6123,53.0,0.0,40.0,4.0,0.0
6124,57.0,0.0,20.0,6.0,0.0
6125,67.0,0.0,20.0,3.0,0.0
6126,55.0,24.0,20.0,6.0,0.0
6127,77.0,0.0,40.0,1.0,0.0
6128,62.0,2.0,40.0,2.0,0.0
6129,69.0,22.0,20.0,3.0,0.0
6130,53.0,0.0,40.0,4.0,0.0
6131,53.0,0.0,40.0,6.0,0.0
6132,67.0,24.0,20.0,3.0,0.0
6133,74.0,0.0,90.0,1.0,0.0
6134,70.0,2.0,40.0,2.0,0.0
6135,65.0,22.0,20.0,3.0,0.0
6136,55.0,0.0,40.0,4.0,0.0
6137,55.0,0.0,40.0,6.0,0.0
6138,64.0,24.0,20.0,3.0,0.0
6139,69.0,0.0,40.0,2.0,0.0
6140,65.0,0.0,40.0,3.0,0.0
6141,57.0,0.0,40.0,4.0,0.0
6142,69.0,22.0,20.0,5.0,0.0
6143,57.0,2.0,40.0,6.0,0.0
6144,71.0,24.0,20.0,5.0,0.0
6145,73.0,0.0,40.0,1.0,0.0
6146,69.0,0.0,40.0,2.0,0.0
6147,64.0,0.0,40.0,3.0,0.0
6148,45.0,0.0,40.0,4.0,0.0
6149,73.0,22.0,20.0,5.0,0.0
6150,52.0,2.0,40.0,6.0,0.0
6151,74.0,24.0,20.0,5.0,0.0
6152,76.0,22.0,20.0,5.0,0.0
6153,49.0,2.0,40.0,6.0,0.0
6154,74.0,24.0,20.0,5.0,0.0
6155,73.0,24.0,20.0,5.0,0.0
6156,45.0,0.0,20.0,6.0,0.0
6157,74.0,24.0,20.0,5.0,0.0
6158,47.0,0.0,20.0,6.0,0.0
6159,76.0,24.0,20.0,5.0,0.0
6160,49.0,0.0,20.0,6.0,0.0
6161,78.0,24.0,20.0,5.0,0.0
6162,50.0,0.0,20.0,6.0,0.0
6163,80.0,2.0,90.0,5.0,0.0
6164,52.0,24.0,20.0,6.0,0.0
6165,50.0,24.0,20.0,6.0,0.0
6166,57.0,22.0,20.0,4.0,0.0
6167,49.0,0.0,40.0,6.0,0.0
6168,59.0,24.0,20.0,4.0,0.0
6169,61.0,22.0,20.0,4.0,0.0
6170,81.0,2.0,40.0,5.0,0.0
6171,45.0,0.0,40.0,6.0,0.0
6172,62.0,24.0,20.0,4.0,0.0
6173,64.0,22.0,20.0,4.0,0.0
6174,67.0,2.0,40.0,5.0,0.0
6175,49.0,0.0,40.0,6.0,0.0
6176,61.0,14.0,20.0,4.0,0.0
6177,74.0,2.0,20.0,1.0,0.0
6178,69.0,0.0,40.0,2.0,0.0
6179,62.0,0.0,40.0,3.0,0.0
6180,62.0,2.0,40.0,4.0,0.0
6181,69.0,10.0,15.0,5.0,0.0
6182,50.0,0.0,40.0,6.0,0.0
6183,67.0,12.0,15.0,5.0,0.0
6184,76.0,2.0,20.0,1.0,0.0
6185,69.0,8.0,15.0,5.0,0.0
6186,67.0,22.0,15.0,5.0,0.0
6187,77.0,22.0,20.0,1.0,0.0
6188,74.0,0.0,40.0,2.0,0.0
6189,69.0,0.0,40.0,3.0,0.0
6190,50.0,0.0,40.0,4.0,0.0
6191,65.0,0.0,40.0,5.0,0.0
6192,62.0,2.0,40.0,6.0,0.0
6193,79.0,46.0,20.0,1.0,0.0
6194,81.0,0.0,40.0,1.0,0.0
6195,76.0,0.0,40.0,2.0,0.0
6196,69.0,26.0,40.0,3.0,0.0
6197,61.0,0.0,40.0,6.0,0.0
6198,77.0,0.0,40.0,1.0,0.0
6199,74.0,2.0,40.0,2.0,0.0
6200,69.0,0.0,40.0,3.0,0.0
6201,50.0,22.0,20.0,4.0,0.0
6202,62.0,0.0,20.0,6.0,0.0
6203,52.0,0.0,20.0,4.0,0.0
6204,64.0,24.0,20.0,6.0,0.0
6205,81.0,0.0,40.0,1.0,0.0
6206,74.0,2.0,40.0,2.0,0.0
6207,69.0,0.0,40.0,3.0,0.0
6208,53.0,22.0,20.0,4.0,0.0
6209,65.0,0.0,20.0,6.0,0.0
6210,55.0,0.0,20.0,4.0,0.0
6211,67.0,24.0,20.0,6.0,0.0
6212,85.0,0.0,90.0,1.0,0.0
6213,79.0,45.0,90.0,2.0,0.0
6214,69.0,2.0,40.0,3.0,0.0
6215,52.0,22.0,20.0,4.0,0.0
6216,64.0,0.0,20.0,6.0,0.0
6217,53.0,0.0,20.0,4.0,0.0
6218,65.0,46.0,20.0,6.0,0.0
6219,69.0,0.0,90.0,3.0,0.0
6220,50.0,3.0,90.0,4.0,0.0
6221,62.0,0.0,40.0,6.0,0.0
6222,86.0,0.0,40.0,1.0,0.0
6223,77.0,0.0,40.0,2.0,0.0
6224,50.0,48.0,40.0,6.0,0.0
6225,81.0,0.0,40.0,1.0,0.0
6226,76.0,0.0,40.0,2.0,0.0
6227,69.0,0.0,40.0,3.0,0.0
6228,49.0,16.0,40.0,4.0,0.0
6229,49.0,0.0,40.0,6.0,0.0
6230,79.0,10.0,15.0,1.0,0.0
6231,76.0,0.0,15.0,2.0,0.0
6232,69.0,5.0,90.0,3.0,0.0
6233,50.0,0.0,20.0,4.0,0.0
6234,50.0,2.0,20.0,6.0,0.0
6235,77.0,0.0,15.0,1.0,0.0
6236,74.0,12.0,15.0,2.0,0.0
6237,79.0,10.0,15.0,1.0,0.0
6238,76.0,0.0,15.0,2.0,0.0
6239,52.0,2.0,20.0,4.0,0.0
6240,52.0,0.0,20.0,6.0,0.0
6241,77.0,12.0,15.0,1.0,0.0
6242,74.0,0.0,15.0,2.0,0.0
6243,79.0,10.0,15.0,1.0,0.0
6244,76.0,0.0,15.0,2.0,0.0
6245,53.0,2.0,20.0,4.0,0.0
6246,53.0,0.0,20.0,6.0,0.0
6247,77.0,12.0,15.0,1.0,0.0
6248,74.0,0.0,15.0,2.0,0.0
6249,79.0,5.0,15.0,1.0,0.0
6250,76.0,0.0,15.0,2.0,0.0
6251,55.0,0.0,20.0,4.0,0.0
6252,55.0,2.0,20.0,6.0,0.0
6253,77.0,0.0,15.0,1.0,0.0
6254,74.0,22.0,15.0,2.0,0.0
6255,76.0,0.0,40.0,1.0,0.0
6256,73.0,2.0,40.0,2.0,0.0
6257,69.0,0.0,40.0,3.0,0.0
6258,57.0,22.0,20.0,4.0,0.0
6259,57.0,0.0,20.0,6.0,0.0
6260,55.0,0.0,20.0,4.0,0.0
6261,55.0,24.0,20.0,6.0,0.0
6262,74.0,22.0,20.0,1.0,0.0
6263,69.0,0.0,40.0,2.0,0.0
6264,69.0,2.0,40.0,3.0,0.0
6265,53.0,0.0,40.0,4.0,0.0
6266,53.0,0.0,40.0,6.0,0.0
6267,76.0,24.0,20.0,1.0,0.0
6268,77.0,22.0,20.0,1.0,0.0
6269,74.0,0.0,40.0,2.0,0.0
6270,69.0,2.0,40.0,3.0,0.0
6271,50.0,0.0,40.0,4.0,0.0
6272,50.0,0.0,40.0,6.0,0.0
6273,79.0,46.0,20.0,1.0,0.0
6274,81.0,0.0,40.0,1.0,0.0
6275,76.0,0.0,40.0,2.0,0.0
6276,69.0,0.0,40.0,3.0,0.0
6277,49.0,26.0,40.0,4.0,0.0
6278,49.0,0.0,40.0,6.0,0.0
6279,77.0,0.0,40.0,1.0,0.0
6280,74.0,2.0,40.0,2.0,0.0
6281,69.0,0.0,40.0,3.0,0.0
6282,50.0,22.0,20.0,4.0,0.0
6283,50.0,0.0,20.0,6.0,0.0
6284,52.0,0.0,20.0,4.0,0.0
6285,52.0,24.0,20.0,6.0,0.0
6286,81.0,0.0,40.0,1.0,0.0
6287,74.0,2.0,40.0,2.0,0.0
6288,74.0,0.0,40.0,3.0,0.0
6289,53.0,22.0,20.0,4.0,0.0
6290,53.0,0.0,20.0,6.0,0.0
6291,52.0,0.0,20.0,4.0,0.0
6292,52.0,24.0,20.0,6.0,0.0
6293,86.0,0.0,40.0,1.0,0.0
6294,81.0,2.0,40.0,2.0,0.0
6295,77.0,0.0,40.0,3.0,0.0
6296,53.0,22.0,20.0,4.0,0.0
6297,53.0,0.0,20.0,6.0,0.0
6298,50.0,0.0,20.0,4.0,0.0
6299,50.0,24.0,20.0,6.0,0.0
6300,88.0,0.0,40.0,1.0,0.0
6301,81.0,0.0,40.0,2.0,0.0
6302,73.0,0.0,40.0,3.0,0.0
6303,45.0,0.0,40.0,4.0,0.0
6304,69.0,22.0,20.0,5.0,0.0
6305,57.0,2.0,40.0,6.0,0.0
6306,71.0,24.0,20.0,5.0,0.0
6307,81.0,0.0,40.0,1.0,0.0
6308,73.0,0.0,40.0,2.0,0.0
6309,64.0,0.0,40.0,3.0,0.0
6310,57.0,0.0,40.0,4.0,0.0
6311,73.0,22.0,20.0,5.0,0.0
6312,45.0,2.0,40.0,6.0,0.0
6313,74.0,24.0,20.0,5.0,0.0
6314,76.0,24.0,20.0,5.0,0.0
6315,74.0,24.0,20.0,5.0,0.0
6316,76.0,0.0,40.0,1.0,0.0
6317,69.0,2.0,40.0,2.0,0.0
6318,73.0,0.0,40.0,3.0,0.0
6319,73.0,22.0,20.0,5.0,0.0
6320,45.0,0.0,40.0,6.0,0.0
6321,74.0,24.0,20.0,5.0,0.0
6322,69.0,0.0,40.0,1.0,0.0
6323,64.0,2.0,40.0,2.0,0.0
6324,61.0,0.0,40.0,3.0,0.0
6325,76.0,22.0,20.0,5.0,0.0
6326,57.0,0.0,40.0,6.0,0.0
6327,77.0,24.0,20.0,5.0,0.0
6328,79.0,24.0,20.0,5.0,0.0
6329,76.0,24.0,20.0,5.0,0.0
6330,77.0,22.0,20.0,1.0,0.0
6331,74.0,0.0,40.0,2.0,0.0
6332,57.0,2.0,40.0,3.0,0.0
6333,50.0,0.0,40.0,4.0,0.0
6334,77.0,22.0,150.0,5.0,0.0
6335,50.0,0.0,20.0,6.0,0.0
6336,76.0,24.0,20.0,1.0,0.0
6337,52.0,0.0,20.0,6.0,0.0
6338,74.0,0.0,20.0,1.0,0.0
6339,69.0,22.0,20.0,2.0,0.0
6340,62.0,2.0,40.0,3.0,0.0
6341,53.0,0.0,40.0,4.0,0.0
6342,53.0,0.0,20.0,6.0,0.0
6343,72.0,0.0,20.0,1.0,0.0
6344,67.0,0.0,20.0,2.0,0.0
6345,52.0,24.0,20.0,6.0,0.0
6346,70.0,2.0,90.0,1.0,0.0
6347,65.0,22.0,20.0,2.0,0.0
6348,65.0,0.0,40.0,3.0,0.0
6349,50.0,2.0,40.0,4.0,0.0
6350,50.0,0.0,20.0,6.0,0.0
6351,64.0,0.0,20.0,2.0,0.0
6352,53.0,24.0,20.0,6.0,0.0
6353,62.0,0.0,20.0,2.0,0.0
6354,67.0,0.0,90.0,3.0,0.0
6355,55.0,0.0,90.0,4.0,0.0
6356,43.0,3.0,90.0,6.0,0.0
6357,76.0,24.0,20.0,5.0,0.0
6358,69.0,2.0,40.0,1.0,0.0
6359,72.0,19.0,20.0,2.0,0.0
6360,77.0,0.0,20.0,5.0,0.0
6361,79.0,24.0,20.0,5.0,0.0
6362,67.0,0.0,40.0,1.0,0.0
6363,70.0,3.0,90.0,2.0,0.0
6364,67.0,0.0,40.0,3.0,0.0
6365,43.0,0.0,40.0,4.0,0.0
6366,81.0,22.0,20.0,5.0,0.0
6367,55.0,2.0,40.0,6.0,0.0
6368,82.0,24.0,20.0,5.0,0.0
6369,76.0,19.0,20.0,1.0,0.0
6370,55.0,2.0,40.0,3.0,0.0
6371,48.0,0.0,40.0,4.0,0.0
6372,76.0,22.0,150.0,5.0,0.0
6373,48.0,0.0,20.0,6.0,0.0
6374,74.0,24.0,20.0,1.0,0.0
6375,50.0,0.0,20.0,6.0,0.0
6376,72.0,0.0,20.0,1.0,0.0
6377,67.0,22.0,20.0,2.0,0.0
6378,60.0,2.0,40.0,3.0,0.0
6379,52.0,0.0,40.0,4.0,0.0
6380,52.0,0.0,20.0,6.0,0.0
6381,70.0,0.0,20.0,1.0,0.0
6382,65.0,0.0,20.0,2.0,0.0
6383,50.0,24.0,20.0,6.0,0.0
6384,69.0,0.0,90.0,1.0,0.0
6385,64.0,22.0,20.0,2.0,0.0
6386,64.0,0.0,40.0,3.0,0.0
6387,48.0,2.0,40.0,4.0,0.0
6388,48.0,0.0,20.0,6.0,0.0
6389,62.0,0.0,20.0,2.0,0.0
6390,52.0,24.0,20.0,6.0,0.0
6391,60.0,2.0,40.0,2.0,0.0
6392,65.0,3.0,90.0,3.0,0.0
6393,53.0,0.0,90.0,4.0,0.0
6394,41.0,0.0,90.0,6.0,0.0
6395,74.0,24.0,20.0,5.0,0.0
6396,67.0,0.0,40.0,1.0,0.0
6397,70.0,2.0,40.0,2.0,0.0
6398,76.0,19.0,20.0,5.0,0.0
6399,77.0,24.0,20.0,5.0,0.0
6400,65.0,0.0,40.0,1.0,0.0
6401,69.0,0.0,40.0,2.0,0.0
6402,60.0,0.0,40.0,3.0,0.0
6403,41.0,0.0,40.0,4.0,0.0
6404,79.0,22.0,20.0,5.0,0.0
6405,53.0,2.0,40.0,6.0,0.0
6406,81.0,24.0,20.0,5.0,0.0
6407,67.0,22.0,20.0,1.0,0.0
6408,67.0,0.0,40.0,2.0,0.0
6409,62.0,0.0,40.0,3.0,0.0
6410,46.0,0.0,40.0,4.0,0.0
6411,74.0,0.0,20.0,5.0,0.0
6412,58.0,2.0,40.0,6.0,0.0
6413,69.0,24.0,20.0,1.0,0.0
6414,72.0,0.0,20.0,5.0,0.0
6415,70.0,22.0,20.0,1.0,0.0
6416,65.0,0.0,40.0,2.0,0.0
6417,60.0,0.0,40.0,3.0,0.0
6418,45.0,0.0,40.0,4.0,0.0
6419,74.0,0.0,20.0,5.0,0.0
6420,57.0,2.0,40.0,6.0,0.0
6421,72.0,24.0,20.0,1.0,0.0
6422,76.0,0.0,20.0,5.0,0.0
6423,74.0,0.0,40.0,1.0,0.0
6424,70.0,0.0,40.0,2.0,0.0
6425,58.0,0.0,40.0,3.0,0.0
6426,43.0,0.0,40.0,4.0,0.0
6427,77.0,22.0,20.0,5.0,0.0
6428,55.0,2.0,40.0,6.0,0.0
6429,79.0,14.0,20.0,5.0,0.0
6430,65.0,0.0,40.0,1.0,0.0
6431,72.0,0.0,40.0,2.0,0.0
6432,57.0,2.0,40.0,3.0,0.0
6433,48.0,0.0,20.0,4.0,0.0
6434,81.0,10.0,15.0,5.0,0.0
6435,60.0,2.0,20.0,6.0,0.0
6436,79.0,20.0,15.0,5.0,0.0
6437,50.0,0.0,20.0,4.0,0.0
6438,77.0,0.0,20.0,5.0,0.0
6439,62.0,24.0,20.0,6.0,0.0
6440,64.0,0.0,40.0,1.0,0.0
6441,60.0,2.0,40.0,2.0,0.0
6442,58.0,0.0,40.0,3.0,0.0
6443,48.0,22.0,20.0,4.0,0.0
6444,79.0,0.0,40.0,5.0,0.0
6445,60.0,0.0,20.0,6.0,0.0
6446,46.0,24.0,20.0,4.0,0.0
6447,58.0,0.0,20.0,6.0,0.0
6448,70.0,0.0,90.0,1.0,0.0
6449,64.0,3.0,90.0,2.0,0.0
6450,60.0,0.0,90.0,3.0,0.0
6451,45.0,24.0,20.0,4.0,0.0
6452,70.0,0.0,90.0,5.0,0.0
6453,57.0,0.0,20.0,6.0,0.0
6454,43.0,43.0,20.0,4.0,0.0
6455,55.0,0.0,20.0,6.0,0.0
6456,41.0,48.0,40.0,4.0,0.0
6457,53.0,0.0,40.0,6.0,0.0
6458,69.0,0.0,40.0,1.0,0.0
6459,65.0,0.0,40.0,2.0,0.0
6460,60.0,0.0,40.0,3.0,0.0
6461,53.0,96.0,40.0,4.0,0.0
6462,69.0,0.0,40.0,5.0,0.0
6463,65.0,0.0,40.0,6.0,0.0
6464,64.0,48.0,40.0,1.0,0.0
6465,60.0,0.0,40.0,2.0,0.0
6466,58.0,0.0,40.0,3.0,0.0
6467,65.0,64.0,40.0,1.0,0.0
6468,60.0,0.0,40.0,2.0,0.0
6469,57.0,0.0,40.0,3.0,0.0
6470,66.0,48.0,40.0,1.0,0.0
6471,87.0,12.0,15.0,5.0,0.0
6472,66.0,0.0,40.0,6.0,0.0
6473,86.0,20.0,15.0,5.0,0.0
6474,87.0,16.0,120.0,5.0,0.0
6475,69.0,48.0,40.0,1.0,0.0
6476,69.0,0.0,40.0,6.0,0.0
6477,72.0,0.0,40.0,1.0,0.0
6478,72.0,0.0,40.0,6.0,0.0
6479,69.0,0.0,40.0,1.0,0.0
6480,66.0,4.0,40.0,2.0,0.0
6481,88.0,12.0,15.0,5.0,0.0
6482,66.0,0.0,40.0,6.0,0.0
6483,86.0,12.0,15.0,5.0,0.0
6484,88.0,8.0,15.0,5.0,0.0
6485,86.0,12.0,15.0,5.0,0.0
6486,74.0,0.0,40.0,1.0,0.0
6487,69.0,4.0,40.0,2.0,0.0
6488,88.0,12.0,15.0,5.0,0.0
6489,69.0,0.0,40.0,6.0,0.0
6490,86.0,12.0,15.0,5.0,0.0
6491,88.0,8.0,15.0,5.0,0.0
6492,86.0,12.0,15.0,5.0,0.0
6493,78.0,0.0,40.0,1.0,0.0
6494,74.0,4.0,40.0,2.0,0.0
6495,88.0,12.0,15.0,5.0,0.0
6496,74.0,0.0,40.0,6.0,0.0
6497,86.0,12.0,15.0,5.0,0.0
6498,88.0,8.0,15.0,5.0,0.0
6499,86.0,12.0,15.0,5.0,0.0
6500,74.0,0.0,40.0,1.0,0.0
6501,69.0,4.0,40.0,2.0,0.0
6502,66.0,0.0,40.0,3.0,0.0
6503,86.0,12.0,15.0,5.0,0.0
6504,66.0,0.0,40.0,6.0,0.0
6505,84.0,12.0,15.0,5.0,0.0
6506,86.0,8.0,15.0,5.0,0.0
6507,84.0,12.0,15.0,5.0,0.0
6508,78.0,0.0,40.0,1.0,0.0
6509,74.0,4.0,40.0,2.0,0.0
6510,69.0,0.0,40.0,3.0,0.0
6511,86.0,12.0,15.0,5.0,0.0
6512,69.0,0.0,40.0,6.0,0.0
6513,84.0,12.0,15.0,5.0,0.0
6514,86.0,8.0,15.0,5.0,0.0
6515,84.0,12.0,15.0,5.0,0.0
6516,81.0,0.0,40.0,1.0,0.0
6517,78.0,26.0,40.0,2.0,0.0
6518,75.0,0.0,40.0,3.0,0.0
6519,86.0,12.0,15.0,5.0,0.0
6520,75.0,0.0,40.0,6.0,0.0
6521,84.0,12.0,15.0,5.0,0.0
6522,86.0,8.0,15.0,5.0,0.0
6523,84.0,22.0,30.0,5.0,0.0
6524,79.0,0.0,40.0,1.0,0.0
6525,67.0,2.0,40.0,2.0,0.0
6526,74.0,0.0,40.0,3.0,0.0
6527,43.0,0.0,40.0,4.0,0.0
6528,74.0,0.0,20.0,6.0,0.0
6529,87.0,24.0,20.0,5.0,0.0
6530,55.0,0.0,20.0,6.0,0.0
6531,74.0,0.0,40.0,1.0,0.0
6532,79.0,0.0,40.0,2.0,0.0
6533,67.0,0.0,40.0,3.0,0.0
6534,46.0,0.0,40.0,4.0,0.0
6535,86.0,22.0,20.0,5.0,0.0
6536,58.0,2.0,40.0,6.0,0.0
6537,84.0,24.0,20.0,5.0,0.0
6538,78.0,0.0,40.0,1.0,0.0
6539,74.0,0.0,40.0,2.0,0.0
6540,69.0,0.0,40.0,3.0,0.0
6541,50.0,0.0,40.0,4.0,0.0
6542,82.0,22.0,20.0,5.0,0.0
6543,62.0,2.0,40.0,6.0,0.0
6544,81.0,24.0,20.0,5.0,0.0
6545,79.0,0.0,40.0,1.0,0.0
6546,74.0,0.0,40.0,2.0,0.0
6547,67.0,0.0,40.0,3.0,0.0
6548,55.0,0.0,40.0,4.0,0.0
6549,82.0,22.0,20.0,5.0,0.0
6550,67.0,2.0,40.0,6.0,0.0
6551,79.0,24.0,20.0,5.0,0.0
6552,81.0,22.0,20.0,5.0,0.0
6553,55.0,2.0,40.0,6.0,0.0
6554,79.0,24.0,20.0,5.0,0.0
6555,78.0,24.0,20.0,5.0,0.0
6556,67.0,2.0,90.0,6.0,0.0
6557,79.0,24.0,20.0,5.0,0.0
6558,85.0,22.0,20.0,5.0,0.0
6559,79.0,24.0,20.0,5.0,0.0
6560,81.0,22.0,20.0,5.0,0.0
6561,57.0,2.0,40.0,6.0,0.0
6562,79.0,24.0,20.0,5.0,0.0
6563,78.0,24.0,20.0,5.0,0.0
6564,67.0,2.0,90.0,6.0,0.0
6565,79.0,24.0,20.0,5.0,0.0
6566,86.0,22.0,20.0,5.0,0.0
6567,79.0,24.0,20.0,5.0,0.0
6568,81.0,22.0,20.0,5.0,0.0
6569,58.0,2.0,40.0,6.0,0.0
6570,79.0,24.0,20.0,5.0,0.0
6571,78.0,24.0,20.0,5.0,0.0
6572,67.0,2.0,90.0,6.0,0.0
6573,79.0,24.0,20.0,5.0,0.0
6574,88.0,22.0,20.0,5.0,0.0
6575,81.0,24.0,20.0,5.0,0.0
6576,83.0,22.0,20.0,5.0,0.0
6577,61.0,2.0,40.0,6.0,0.0
6578,85.0,24.0,20.0,5.0,0.0
6579,86.0,22.0,20.0,5.0,0.0
6580,57.0,2.0,40.0,6.0,0.0
6581,88.0,14.0,20.0,5.0,0.0
6582,68.0,0.0,40.0,1.0,0.0
6583,89.0,12.0,15.0,5.0,0.0
6584,62.0,48.0,40.0,6.0,0.0
6585,68.0,0.0,40.0,6.0,0.0
6586,88.0,20.0,15.0,5.0,0.0
6587,89.0,16.0,120.0,5.0,0.0
6588,71.0,48.0,40.0,1.0,0.0
6589,71.0,0.0,40.0,6.0,0.0
6590,74.0,0.0,40.0,1.0,0.0
6591,74.0,0.0,40.0,6.0,0.0
6592,71.0,0.0,40.0,1.0,0.0
6593,68.0,4.0,40.0,2.0,0.0
6594,89.0,12.0,15.0,5.0,0.0
6595,68.0,0.0,40.0,6.0,0.0
6596,88.0,12.0,15.0,5.0,0.0
6597,89.0,8.0,15.0,5.0,0.0
6598,88.0,12.0,15.0,5.0,0.0
6599,76.0,0.0,40.0,1.0,0.0
6600,71.0,4.0,40.0,2.0,0.0
6601,89.0,12.0,15.0,5.0,0.0
6602,71.0,0.0,40.0,6.0,0.0
6603,88.0,12.0,15.0,5.0,0.0
6604,89.0,8.0,15.0,5.0,0.0
6605,88.0,12.0,15.0,5.0,0.0
6606,80.0,0.0,40.0,1.0,0.0
6607,76.0,4.0,40.0,2.0,0.0
6608,89.0,12.0,15.0,5.0,0.0
6609,76.0,0.0,40.0,6.0,0.0
6610,88.0,12.0,15.0,5.0,0.0
6611,89.0,8.0,15.0,5.0,0.0
6612,88.0,12.0,15.0,5.0,0.0
6613,76.0,0.0,40.0,1.0,0.0
6614,71.0,4.0,40.0,2.0,0.0
6615,68.0,0.0,40.0,3.0,0.0
6616,88.0,12.0,15.0,5.0,0.0
6617,68.0,0.0,40.0,6.0,0.0
6618,86.0,12.0,15.0,5.0,0.0
6619,88.0,8.0,15.0,5.0,0.0
6620,86.0,12.0,15.0,5.0,0.0
6621,80.0,0.0,40.0,1.0,0.0
6622,76.0,4.0,40.0,2.0,0.0
6623,71.0,0.0,40.0,3.0,0.0
6624,88.0,12.0,15.0,5.0,0.0
6625,71.0,0.0,40.0,6.0,0.0
6626,86.0,12.0,15.0,5.0,0.0
6627,88.0,8.0,15.0,5.0,0.0
6628,86.0,12.0,15.0,5.0,0.0
6629,83.0,0.0,40.0,1.0,0.0
6630,80.0,26.0,40.0,2.0,0.0
6631,77.0,0.0,40.0,3.0,0.0
6632,88.0,12.0,15.0,5.0,0.0
6633,77.0,0.0,40.0,6.0,0.0
6634,86.0,12.0,15.0,5.0,0.0
6635,88.0,8.0,15.0,5.0,0.0
6636,86.0,22.0,30.0,5.0,0.0
6637,81.0,0.0,40.0,1.0,0.0
6638,69.0,2.0,40.0,2.0,0.0
6639,76.0,0.0,40.0,3.0,0.0
6640,45.0,0.0,40.0,4.0,0.0
6641,76.0,0.0,20.0,6.0,0.0
6642,89.0,24.0,20.0,5.0,0.0
6643,57.0,0.0,20.0,6.0,0.0
6644,76.0,0.0,40.0,1.0,0.0
6645,81.0,0.0,40.0,2.0,0.0
6646,69.0,0.0,40.0,3.0,0.0
6647,48.0,0.0,40.0,4.0,0.0
6648,88.0,22.0,20.0,5.0,0.0
6649,60.0,2.0,40.0,6.0,0.0
6650,86.0,24.0,20.0,5.0,0.0
6651,80.0,0.0,40.0,1.0,0.0
6652,76.0,0.0,40.0,2.0,0.0
6653,71.0,0.0,40.0,3.0,0.0
6654,52.0,0.0,40.0,4.0,0.0
6655,84.0,22.0,20.0,5.0,0.0
6656,64.0,2.0,40.0,6.0,0.0
6657,83.0,24.0,20.0,5.0,0.0
6658,81.0,0.0,40.0,1.0,0.0
6659,76.0,0.0,40.0,2.0,0.0
6660,69.0,0.0,40.0,3.0,0.0
6661,57.0,0.0,40.0,4.0,0.0
6662,84.0,22.0,20.0,5.0,0.0
6663,69.0,2.0,40.0,6.0,0.0
6664,81.0,24.0,20.0,5.0,0.0
6665,83.0,22.0,20.0,5.0,0.0
6666,57.0,2.0,40.0,6.0,0.0
6667,81.0,24.0,20.0,5.0,0.0
6668,80.0,22.0,20.0,5.0,0.0
6669,60.0,2.0,40.0,6.0,0.0
6670,81.0,24.0,20.0,5.0,0.0
6671,77.0,0.0,40.0,1.0,0.0
6672,74.0,0.0,40.0,2.0,0.0
6673,69.0,0.0,40.0,3.0,0.0
6674,50.0,0.0,40.0,4.0,0.0
6675,89.0,22.0,20.0,5.0,0.0
6676,62.0,2.0,40.0,6.0,0.0
6677,88.0,24.0,20.0,5.0,0.0
6678,86.0,22.0,20.0,5.0,0.0
6679,64.0,2.0,40.0,6.0,0.0
6680,84.0,24.0,20.0,5.0,0.0
6681,83.0,22.0,20.0,5.0,0.0
6682,65.0,2.0,40.0,6.0,0.0
6683,81.0,24.0,20.0,5.0,0.0
6684,77.0,0.0,40.0,1.0,0.0
6685,74.0,0.0,40.0,2.0,0.0
6686,67.0,0.0,40.0,3.0,0.0
6687,55.0,0.0,40.0,4.0,0.0
6688,83.0,22.0,20.0,5.0,0.0
6689,67.0,2.0,40.0,6.0,0.0
6690,79.0,24.0,20.0,5.0,0.0
6691,81.0,22.0,20.0,5.0,0.0
6692,55.0,2.0,40.0,6.0,0.0
6693,79.0,24.0,20.0,5.0,0.0
6694,78.0,22.0,20.0,5.0,0.0
6695,59.0,2.0,40.0,6.0,0.0
6696,79.0,24.0,20.0,5.0,0.0
6697,76.0,0.0,40.0,1.0,0.0
6698,72.0,0.0,40.0,2.0,0.0
6699,67.0,0.0,40.0,3.0,0.0
6700,48.0,0.0,40.0,4.0,0.0
6701,88.0,22.0,20.0,5.0,0.0
6702,60.0,2.0,40.0,6.0,0.0
6703,86.0,24.0,20.0,5.0,0.0
6704,84.0,22.0,20.0,5.0,0.0
6705,62.0,2.0,40.0,6.0,0.0
6706,83.0,24.0,20.0,5.0,0.0
6707,81.0,22.0,20.0,5.0,0.0
6708,64.0,2.0,40.0,6.0,0.0
6709,80.0,24.0,20.0,5.0,0.0
6710,76.0,0.0,40.0,1.0,0.0
6711,72.0,0.0,40.0,2.0,0.0
6712,65.0,0.0,40.0,3.0,0.0
6713,53.0,0.0,40.0,4.0,0.0
6714,81.0,22.0,20.0,5.0,0.0
6715,65.0,2.0,40.0,6.0,0.0
6716,77.0,24.0,20.0,5.0,0.0
6717,79.0,22.0,20.0,5.0,0.0
6718,62.0,2.0,40.0,6.0,0.0
6719,77.0,24.0,20.0,5.0,0.0
6720,76.0,22.0,20.0,5.0,0.0
6721,60.0,2.0,40.0,6.0,0.0
6722,77.0,24.0,20.0,5.0,0.0
6723,74.0,22.0,20.0,1.0,0.0
6724,71.0,0.0,20.0,2.0,0.0
6725,65.0,0.0,40.0,3.0,0.0
6726,47.0,0.0,40.0,4.0,0.0
6727,86.0,22.0,150.0,5.0,0.0
6728,59.0,2.0,40.0,6.0,0.0
6729,76.0,24.0,20.0,1.0,0.0
6730,72.0,0.0,20.0,2.0,0.0
6731,74.0,22.0,20.0,1.0,0.0
6732,71.0,0.0,20.0,2.0,0.0
6733,60.0,2.0,40.0,6.0,0.0
6734,72.0,24.0,20.0,1.0,0.0
6735,69.0,0.0,20.0,2.0,0.0
6736,71.0,22.0,20.0,1.0,0.0
6737,68.0,0.0,20.0,2.0,0.0
6738,62.0,2.0,40.0,6.0,0.0
6739,69.0,24.0,20.0,1.0,0.0
6740,66.0,0.0,20.0,2.0,0.0
6741,68.0,0.0,40.0,1.0,0.0
6742,64.0,3.0,120.0,2.0,0.0
6743,59.0,2.0,150.0,3.0,0.0
6744,52.0,0.0,1950.0,4.0,0.0
6745,52.0,2.0,40.0,6.0,0.0
6746,74.0,24.0,20.0,5.0,0.0
6747,64.0,0.0,40.0,1.0,0.0
6748,76.0,22.0,20.0,5.0,0.0
6749,56.0,2.0,40.0,6.0,0.0
6750,74.0,24.0,20.0,5.0,0.0
6751,73.0,19.0,20.0,5.0,0.0
6752,59.0,0.0,40.0,6.0,0.0
6753,74.0,24.0,20.0,5.0,0.0
6754,74.0,0.0,40.0,1.0,0.0
6755,68.0,2.0,150.0,2.0,0.0
6756,64.0,4.0,1800.0,3.0,0.0
6757,83.0,22.0,20.0,5.0,0.0
6758,64.0,2.0,40.0,6.0,0.0
6759,81.0,24.0,20.0,5.0,0.0
6760,71.0,2.0,40.0,1.0,0.0
6761,80.0,22.0,20.0,5.0,0.0
6762,78.0,24.0,20.0,5.0,0.0
6763,76.0,22.0,20.0,5.0,0.0
6764,74.0,24.0,20.0,5.0,0.0
6765,72.0,0.0,40.0,1.0,0.0
6766,69.0,5.0,270.0,2.0,0.0
6767,72.0,22.0,20.0,5.0,0.0
6768,64.0,2.0,40.0,6.0,0.0
6769,76.0,24.0,20.0,5.0,0.0
6770,69.0,0.0,40.0,1.0,0.0
6771,77.0,22.0,20.0,5.0,0.0
6772,60.0,2.0,40.0,6.0,0.0
6773,76.0,24.0,20.0,5.0,0.0
6774,75.0,22.0,20.0,5.0,0.0
6775,57.0,2.0,40.0,6.0,0.0
6776,76.0,24.0,20.0,5.0,0.0
6777,76.0,0.0,40.0,1.0,0.0
6778,84.0,22.0,20.0,5.0,0.0
6779,52.0,2.0,40.0,6.0,0.0
6780,83.0,24.0,20.0,5.0,0.0
6781,72.0,2.0,40.0,1.0,0.0
6782,81.0,22.0,20.0,5.0,0.0
6783,79.0,24.0,20.0,5.0,0.0
6784,77.0,19.0,20.0,5.0,0.0
6785,76.0,24.0,20.0,5.0,0.0
6786,74.0,0.0,40.0,1.0,0.0
6787,71.0,0.0,420.0,2.0,0.0
6788,74.0,22.0,20.0,5.0,0.0
6789,56.0,2.0,40.0,6.0,0.0
6790,77.0,24.0,20.0,5.0,0.0
6791,71.0,0.0,40.0,1.0,0.0
6792,79.0,22.0,20.0,5.0,0.0
6793,59.0,2.0,40.0,6.0,0.0
6794,77.0,24.0,20.0,5.0,0.0
6795,76.0,22.0,20.0,5.0,0.0
6796,62.0,2.0,40.0,6.0,0.0
6797,77.0,24.0,20.0,5.0,0.0
6798,77.0,0.0,40.0,1.0,0.0
6799,86.0,22.0,20.0,5.0,0.0
6800,68.0,2.0,40.0,6.0,0.0
6801,84.0,24.0,20.0,5.0,0.0
6802,74.0,2.0,40.0,1.0,0.0
6803,83.0,22.0,20.0,5.0,0.0
6804,81.0,24.0,20.0,5.0,0.0
6805,80.0,24.0,20.0,5.0,0.0
6806,78.0,24.0,20.0,5.0,0.0
6807,80.0,0.0,40.0,1.0,0.0
6808,76.0,22.0,20.0,5.0,0.0
6809,59.0,2.0,40.0,6.0,0.0
6810,80.0,24.0,20.0,5.0,0.0
6811,76.0,0.0,40.0,1.0,0.0
6812,83.0,22.0,20.0,5.0,0.0
6813,62.0,2.0,40.0,6.0,0.0
6814,80.0,24.0,20.0,5.0,0.0
6815,77.0,22.0,20.0,5.0,0.0
6816,68.0,2.0,40.0,6.0,0.0
6817,76.0,24.0,20.0,5.0,0.0
6818,83.0,0.0,40.0,1.0,0.0
6819,74.0,0.0,40.0,2.0,0.0
6820,74.0,22.0,20.0,5.0,0.0
6821,71.0,2.0,40.0,6.0,0.0
6822,80.0,24.0,20.0,5.0,0.0
6823,80.0,2.0,40.0,1.0,0.0
6824,83.0,22.0,20.0,5.0,0.0
6825,80.0,24.0,20.0,5.0,0.0
6826,83.0,2.0,40.0,2.0,0.0
6827,76.0,22.0,20.0,5.0,0.0
6828,74.0,24.0,20.0,5.0,0.0
6829,81.0,0.0,40.0,1.0,0.0
6830,72.0,0.0,40.0,2.0,0.0
6831,72.0,22.0,20.0,5.0,0.0
6832,64.0,2.0,40.0,6.0,0.0
6833,76.0,24.0,20.0,5.0,0.0
6834,77.0,0.0,40.0,1.0,0.0
6835,81.0,22.0,20.0,5.0,0.0
6836,60.0,2.0,40.0,6.0,0.0
6837,77.0,24.0,20.0,5.0,0.0
6838,81.0,0.0,40.0,2.0,0.0
6839,74.0,22.0,20.0,5.0,0.0
6840,65.0,2.0,40.0,6.0,0.0
6841,72.0,24.0,20.0,5.0,0.0
6842,79.0,0.0,40.0,1.0,0.0
6843,71.0,0.0,40.0,2.0,0.0
6844,71.0,22.0,20.0,5.0,0.0
6845,62.0,2.0,40.0,6.0,0.0
6846,74.0,24.0,20.0,5.0,0.0
6847,76.0,0.0,40.0,1.0,0.0
6848,79.0,22.0,20.0,5.0,0.0
6849,59.0,2.0,40.0,6.0,0.0
6850,76.0,24.0,20.0,5.0,0.0
6851,79.0,0.0,40.0,2.0,0.0
6852,72.0,22.0,20.0,5.0,0.0
6853,64.0,2.0,40.0,6.0,0.0
6854,70.0,24.0,20.0,5.0,0.0
6855,77.0,0.0,40.0,1.0,0.0
6856,69.0,0.0,40.0,2.0,0.0
6857,69.0,22.0,20.0,5.0,0.0
6858,60.0,2.0,40.0,6.0,0.0
6859,72.0,24.0,20.0,5.0,0.0
6860,74.0,0.0,40.0,1.0,0.0
6861,77.0,22.0,20.0,5.0,0.0
6862,57.0,2.0,40.0,6.0,0.0
6863,74.0,24.0,20.0,5.0,0.0
6864,77.0,0.0,40.0,2.0,0.0
6865,72.0,22.0,20.0,5.0,0.0
6866,62.0,2.0,40.0,6.0,0.0
6867,70.0,24.0,20.0,5.0,0.0
6868,74.0,0.0,360.0,1.0,0.0
6869,68.0,0.0,360.0,2.0,0.0
6870,69.0,24.0,20.0,5.0,0.0
6871,59.0,0.0,20.0,6.0,0.0
6872,72.0,24.0,20.0,5.0,0.0
6873,60.0,0.0,20.0,6.0,0.0
6874,77.0,24.0,20.0,5.0,0.0
6875,62.0,0.0,20.0,6.0,0.0
6876,74.0,24.0,20.0,5.0,0.0
6877,60.0,0.0,20.0,6.0,0.0
6878,70.0,24.0,20.0,5.0,0.0
6879,59.0,0.0,20.0,6.0,0.0
6880,69.0,24.0,20.0,5.0,0.0
6881,57.0,0.0,20.0,6.0,0.0
6882,68.0,24.0,20.0,5.0,0.0
6883,56.0,0.0,20.0,6.0,0.0
6884,69.0,24.0,20.0,5.0,0.0
6885,57.0,0.0,20.0,6.0,0.0
6886,71.0,24.0,20.0,5.0,0.0
6887,59.0,0.0,20.0,6.0,0.0
6888,72.0,24.0,20.0,5.0,0.0
6889,57.0,0.0,20.0,6.0,0.0
6890,74.0,24.0,20.0,5.0,0.0
6891,56.0,0.0,20.0,6.0,0.0
6892,76.0,24.0,20.0,5.0,0.0
6893,59.0,0.0,20.0,6.0,0.0
6894,77.0,24.0,20.0,5.0,0.0
6895,52.0,5.0,90.0,6.0,0.0
6896,76.0,24.0,20.0,5.0,0.0
6897,74.0,15.0,20.0,5.0,0.0
6898,73.0,24.0,20.0,5.0,0.0
6899,74.0,24.0,20.0,5.0,0.0
6900,80.0,24.0,20.0,5.0,0.0
6901,69.0,22.0,20.0,1.0,0.0
6902,64.0,0.0,40.0,2.0,0.0
6903,60.0,0.0,40.0,3.0,0.0
6904,57.0,0.0,40.0,4.0,0.0
6905,83.0,3.0,90.0,5.0,0.0
6906,57.0,2.0,40.0,6.0,0.0
6907,71.0,24.0,20.0,1.0,0.0
6908,72.0,19.0,20.0,1.0,0.0
6909,69.0,0.0,40.0,2.0,0.0
6910,64.0,0.0,40.0,3.0,0.0
6911,45.0,0.0,40.0,4.0,0.0
6912,45.0,2.0,40.0,6.0,0.0
6913,74.0,46.0,20.0,1.0,0.0
6914,76.0,0.0,40.0,1.0,0.0
6915,72.0,26.0,40.0,2.0,0.0
6916,69.0,0.0,40.0,3.0,0.0
6917,57.0,22.0,60.0,4.0,0.0
6918,57.0,0.0,60.0,6.0,0.0
6919,72.0,0.0,40.0,1.0,0.0
6920,69.0,0.0,40.0,2.0,0.0
6921,64.0,2.0,40.0,3.0,0.0
6922,69.0,0.0,20.0,5.0,0.0
6923,59.0,0.0,20.0,4.0,0.0
6924,71.0,0.0,20.0,5.0,0.0
6925,59.0,24.0,20.0,6.0,0.0
6926,76.0,0.0,40.0,1.0,0.0
6927,69.0,0.0,40.0,2.0,0.0
6928,64.0,2.0,40.0,3.0,0.0
6929,60.0,0.0,20.0,4.0,0.0
6930,72.0,22.0,20.0,5.0,0.0
6931,60.0,0.0,20.0,6.0,0.0
6932,62.0,0.0,20.0,4.0,0.0
6933,74.0,0.0,20.0,5.0,0.0
6934,62.0,24.0,20.0,6.0,0.0
6935,80.0,4.0,90.0,1.0,0.0
6936,74.0,3.0,90.0,2.0,0.0
6937,64.0,0.0,40.0,3.0,0.0
6938,59.0,22.0,20.0,4.0,0.0
6939,76.0,2.0,40.0,5.0,0.0
6940,59.0,0.0,20.0,6.0,0.0
6941,60.0,0.0,20.0,4.0,0.0
6942,60.0,14.0,20.0,6.0,0.0
6943,64.0,3.0,90.0,3.0,0.0
6944,59.0,12.0,15.0,4.0,0.0
6945,72.0,0.0,40.0,5.0,0.0
6946,59.0,0.0,15.0,6.0,0.0
6947,57.0,12.0,15.0,4.0,0.0
6948,57.0,0.0,15.0,6.0,0.0
6949,59.0,5.0,15.0,4.0,0.0
6950,59.0,0.0,15.0,6.0,0.0
6951,57.0,0.0,15.0,4.0,0.0
6952,57.0,12.0,15.0,6.0,0.0
6953,81.0,0.0,40.0,1.0,0.0
6954,72.0,4.0,40.0,2.0,0.0
6955,59.0,12.0,15.0,4.0,0.0
6956,76.0,0.0,40.0,5.0,0.0
6957,59.0,0.0,15.0,6.0,0.0
6958,57.0,12.0,15.0,4.0,0.0
6959,57.0,0.0,15.0,6.0,0.0
6960,59.0,5.0,15.0,4.0,0.0
6961,59.0,0.0,15.0,6.0,0.0
6962,57.0,44.0,15.0,4.0,0.0
6963,57.0,0.0,15.0,6.0,0.0
6964,76.0,0.0,40.0,1.0,0.0
6965,71.0,0.0,40.0,2.0,0.0
6966,64.0,0.0,40.0,3.0,0.0
6967,56.0,16.0,40.0,4.0,0.0
6968,80.0,2.0,90.0,5.0,0.0
6969,56.0,0.0,40.0,6.0,0.0
6970,74.0,10.0,15.0,1.0,0.0
6971,71.0,0.0,15.0,2.0,0.0
6972,64.0,3.0,90.0,3.0,0.0
6973,57.0,0.0,20.0,4.0,0.0
6974,57.0,2.0,20.0,6.0,0.0
6975,72.0,0.0,15.0,1.0,0.0
6976,69.0,12.0,15.0,2.0,0.0
6977,74.0,8.0,15.0,1.0,0.0
6978,71.0,0.0,15.0,2.0,0.0
6979,59.0,2.0,20.0,4.0,0.0
6980,59.0,0.0,20.0,6.0,0.0
6981,72.0,12.0,15.0,1.0,0.0
6982,69.0,0.0,15.0,2.0,0.0
6983,74.0,10.0,15.0,1.0,0.0
6984,71.0,0.0,15.0,2.0,0.0
6985,60.0,0.0,20.0,4.0,0.0
6986,81.0,2.0,40.0,5.0,0.0
6987,60.0,2.0,20.0,6.0,0.0
6988,72.0,0.0,15.0,1.0,0.0
6989,69.0,12.0,15.0,2.0,0.0
6990,74.0,5.0,15.0,1.0,0.0
6991,71.0,0.0,15.0,2.0,0.0
6992,62.0,2.0,20.0,4.0,0.0
6993,62.0,0.0,20.0,6.0,0.0
6994,72.0,22.0,15.0,1.0,0.0
6995,69.0,0.0,15.0,2.0,0.0
6996,71.0,0.0,40.0,1.0,0.0
6997,68.0,2.0,40.0,2.0,0.0
6998,64.0,0.0,40.0,3.0,0.0
6999,64.0,22.0,20.0,4.0,0.0
7000,76.0,0.0,40.0,5.0,0.0
7001,64.0,0.0,20.0,6.0,0.0
7002,62.0,14.0,20.0,4.0,0.0
7003,62.0,0.0,20.0,6.0,0.0
7004,69.0,2.0,20.0,1.0,0.0
7005,64.0,0.0,40.0,2.0,0.0
7006,64.0,0.0,40.0,3.0,0.0
7007,60.0,2.0,40.0,4.0,0.0
7008,74.0,10.0,15.0,5.0,0.0
7009,60.0,0.0,40.0,6.0,0.0
7010,72.0,12.0,15.0,5.0,0.0
7011,71.0,2.0,20.0,1.0,0.0
7012,74.0,8.0,15.0,5.0,0.0
7013,72.0,12.0,15.0,5.0,0.0
7014,72.0,2.0,20.0,1.0,0.0
7015,69.0,0.0,40.0,2.0,0.0
7016,64.0,0.0,40.0,3.0,0.0
7017,57.0,2.0,40.0,4.0,0.0
7018,74.0,10.0,15.0,5.0,0.0
7019,57.0,0.0,40.0,6.0,0.0
7020,72.0,12.0,15.0,5.0,0.0
7021,74.0,2.0,20.0,1.0,0.0
7022,74.0,8.0,15.0,5.0,0.0
7023,72.0,44.0,15.0,5.0,0.0
7024,76.0,0.0,40.0,1.0,0.0
7025,71.0,0.0,40.0,2.0,0.0
7026,64.0,0.0,40.0,3.0,0.0
7027,56.0,26.0,40.0,4.0,0.0
7028,71.0,0.0,40.0,5.0,0.0
7029,56.0,0.0,40.0,6.0,0.0
7030,72.0,0.0,40.0,1.0,0.0
7031,69.0,0.0,40.0,2.0,0.0
7032,64.0,2.0,40.0,3.0,0.0
7033,57.0,0.0,20.0,4.0,0.0
7034,69.0,22.0,20.0,5.0,0.0
7035,57.0,0.0,20.0,6.0,0.0
7036,59.0,0.0,20.0,4.0,0.0
7037,71.0,0.0,20.0,5.0,0.0
7038,59.0,24.0,20.0,6.0,0.0
7039,76.0,0.0,40.0,1.0,0.0
7040,69.0,0.0,40.0,2.0,0.0
7041,69.0,2.0,40.0,3.0,0.0
7042,60.0,0.0,20.0,4.0,0.0
7043,72.0,22.0,20.0,5.0,0.0
7044,60.0,0.0,20.0,6.0,0.0
7045,59.0,0.0,20.0,4.0,0.0
7046,74.0,0.0,20.0,5.0,0.0
7047,59.0,24.0,20.0,6.0,0.0
7048,81.0,0.0,40.0,1.0,0.0
7049,76.0,2.0,40.0,2.0,0.0
7050,72.0,0.0,40.0,3.0,0.0
7051,60.0,22.0,20.0,4.0,0.0
7052,76.0,0.0,40.0,5.0,0.0
7053,60.0,0.0,20.0,6.0,0.0
7054,57.0,46.0,20.0,4.0,0.0
7055,57.0,0.0,20.0,6.0,0.0
7056,83.0,0.0,40.0,1.0,0.0
7057,80.0,0.0,40.0,2.0,0.0
7058,71.0,0.0,40.0,3.0,0.0
7059,52.0,0.0,40.0,4.0,0.0
7060,80.0,0.0,40.0,5.0,0.0
7061,76.0,0.0,40.0,5.0,0.0
7062,83.0,48.0,40.0,5.0,0.0
7063,52.0,0.0,40.0,6.0,0.0
7064,76.0,0.0,40.0,1.0,0.0
7065,71.0,0.0,40.0,2.0,0.0
7066,68.0,0.0,40.0,3.0,0.0
7067,64.0,0.0,40.0,4.0,0.0
7068,68.0,0.0,40.0,5.0,0.0
7069,76.0,0.0,40.0,5.0,0.0
7070,71.0,96.0,40.0,5.0,0.0
7071,64.0,0.0,40.0,6.0,0.0
7072,80.0,0.0,40.0,5.0,0.0
7073,76.0,0.0,40.0,5.0,0.0
7074,83.0,48.0,40.0,5.0,0.0
7075,52.0,0.0,40.0,6.0,0.0
7076,76.0,0.0,40.0,5.0,0.0
7077,71.0,0.0,40.0,5.0,0.0
7078,68.0,96.0,40.0,5.0,0.0
7079,64.0,0.0,40.0,6.0,0.0
7080,84.0,0.0,40.0,1.0,0.0
7081,81.0,0.0,40.0,2.0,0.0
7082,76.0,0.0,40.0,3.0,0.0
7083,52.0,0.0,40.0,4.0,0.0
7084,81.0,0.0,40.0,5.0,0.0
7085,84.0,0.0,40.0,5.0,0.0
7086,76.0,48.0,40.0,5.0,0.0
7087,52.0,0.0,40.0,6.0,0.0
7088,76.0,0.0,40.0,1.0,0.0
7089,72.0,0.0,40.0,2.0,0.0
7090,69.0,0.0,40.0,3.0,0.0
7091,64.0,0.0,40.0,4.0,0.0
7092,72.0,0.0,40.0,5.0,0.0
7093,69.0,0.0,40.0,5.0,0.0
7094,76.0,96.0,40.0,5.0,0.0
7095,64.0,0.0,40.0,6.0,0.0
7096,81.0,0.0,40.0,5.0,0.0
7097,76.0,0.0,40.0,5.0,0.0
7098,84.0,48.0,40.0,5.0,0.0
7099,52.0,0.0,40.0,6.0,0.0
7100,72.0,0.0,40.0,5.0,0.0
7101,69.0,0.0,40.0,5.0,0.0
7102,76.0,96.0,40.0,5.0,0.0
7103,64.0,0.0,40.0,6.0,0.0
7104,86.0,0.0,40.0,1.0,0.0
7105,80.0,0.0,40.0,2.0,0.0
7106,71.0,0.0,40.0,3.0,0.0
7107,52.0,0.0,40.0,4.0,0.0
7108,86.0,0.0,40.0,5.0,0.0
7109,76.0,0.0,40.0,5.0,0.0
7110,80.0,48.0,40.0,5.0,0.0
7111,52.0,0.0,40.0,6.0,0.0
7112,76.0,0.0,40.0,1.0,0.0
7113,71.0,0.0,40.0,2.0,0.0
7114,68.0,0.0,40.0,3.0,0.0
7115,64.0,0.0,40.0,4.0,0.0
7116,71.0,0.0,40.0,5.0,0.0
7117,76.0,0.0,40.0,5.0,0.0
7118,68.0,96.0,40.0,5.0,0.0
7119,64.0,0.0,40.0,6.0,0.0
7120,86.0,0.0,40.0,5.0,0.0
7121,76.0,0.0,40.0,5.0,0.0
7122,80.0,48.0,40.0,5.0,0.0
7123,52.0,0.0,40.0,6.0,0.0
7124,76.0,0.0,40.0,5.0,0.0
7125,71.0,0.0,40.0,5.0,0.0
7126,68.0,74.0,40.0,5.0,0.0
7127,64.0,0.0,40.0,6.0,0.0
7128,84.0,22.0,20.0,1.0,0.0
7129,81.0,0.0,40.0,2.0,0.0
7130,64.0,2.0,40.0,3.0,0.0
7131,57.0,0.0,40.0,4.0,0.0
7132,72.0,22.0,150.0,5.0,0.0
7133,57.0,0.0,20.0,6.0,0.0
7134,83.0,24.0,20.0,1.0,0.0
7135,59.0,0.0,20.0,6.0,0.0
7136,81.0,22.0,20.0,1.0,0.0
7137,76.0,2.0,40.0,2.0,0.0
7138,69.0,0.0,40.0,3.0,0.0
7139,60.0,0.0,40.0,4.0,0.0
7140,60.0,0.0,20.0,6.0,0.0
7141,79.0,24.0,20.0,1.0,0.0
7142,59.0,0.0,20.0,6.0,0.0
7143,77.0,0.0,90.0,1.0,0.0
7144,72.0,0.0,40.0,2.0,0.0
7145,72.0,0.0,40.0,3.0,0.0
7146,57.0,2.0,40.0,4.0,0.0
7147,57.0,22.0,20.0,6.0,0.0
7148,60.0,24.0,20.0,6.0,0.0
7149,69.0,2.0,40.0,2.0,0.0
7150,74.0,3.0,90.0,3.0,0.0
7151,62.0,0.0,90.0,4.0,0.0
7152,50.0,0.0,90.0,6.0,0.0
7153,71.0,24.0,20.0,5.0,0.0
7154,76.0,0.0,40.0,1.0,0.0
7155,79.0,2.0,40.0,2.0,0.0
7156,72.0,19.0,20.0,5.0,0.0
7157,74.0,24.0,20.0,5.0,0.0
7158,74.0,0.0,40.0,1.0,0.0
7159,77.0,3.0,90.0,2.0,0.0
7160,74.0,0.0,40.0,3.0,0.0
7161,50.0,0.0,40.0,4.0,0.0
7162,76.0,22.0,20.0,5.0,0.0
7163,62.0,2.0,40.0,6.0,0.0
7164,77.0,24.0,20.0,5.0,0.0
7165,83.0,19.0,20.0,1.0,0.0
7166,62.0,2.0,40.0,3.0,0.0
7167,55.0,0.0,40.0,4.0,0.0
7168,71.0,22.0,150.0,5.0,0.0
7169,55.0,0.0,20.0,6.0,0.0
7170,81.0,24.0,20.0,1.0,0.0
7171,57.0,0.0,20.0,6.0,0.0
7172,79.0,22.0,20.0,1.0,0.0
7173,74.0,2.0,40.0,2.0,0.0
7174,67.0,0.0,40.0,3.0,0.0
7175,59.0,0.0,40.0,4.0,0.0
7176,59.0,0.0,20.0,6.0,0.0
7177,77.0,24.0,20.0,1.0,0.0
7178,57.0,0.0,20.0,6.0,0.0
7179,76.0,0.0,90.0,1.0,0.0
7180,71.0,0.0,40.0,2.0,0.0
7181,71.0,0.0,40.0,3.0,0.0
7182,55.0,2.0,40.0,4.0,0.0
7183,55.0,22.0,20.0,6.0,0.0
7184,59.0,24.0,20.0,6.0,0.0
7185,67.0,2.0,40.0,2.0,0.0
7186,72.0,3.0,90.0,3.0,0.0
7187,60.0,0.0,90.0,4.0,0.0
7188,48.0,0.0,90.0,6.0,0.0
7189,69.0,24.0,20.0,5.0,0.0
7190,74.0,0.0,40.0,1.0,0.0
7191,77.0,2.0,40.0,2.0,0.0
7192,71.0,19.0,20.0,5.0,0.0
7193,72.0,24.0,20.0,5.0,0.0
7194,72.0,0.0,40.0,1.0,0.0
7195,76.0,0.0,40.0,2.0,0.0
7196,67.0,0.0,40.0,3.0,0.0
7197,48.0,0.0,40.0,4.0,0.0
7198,74.0,22.0,20.0,5.0,0.0
7199,60.0,2.0,40.0,6.0,0.0
7200,76.0,24.0,20.0,5.0,0.0
7201,74.0,22.0,20.0,1.0,0.0
7202,74.0,0.0,40.0,2.0,0.0
7203,69.0,0.0,40.0,3.0,0.0
7204,53.0,0.0,40.0,4.0,0.0
7205,69.0,0.0,20.0,5.0,0.0
7206,53.0,2.0,40.0,6.0,0.0
7207,76.0,24.0,20.0,1.0,0.0
7208,67.0,0.0,20.0,5.0,0.0
7209,77.0,22.0,20.0,1.0,0.0
7210,72.0,0.0,40.0,2.0,0.0
7211,67.0,0.0,40.0,3.0,0.0
7212,52.0,0.0,40.0,4.0,0.0
7213,69.0,0.0,20.0,5.0,0.0
7214,52.0,2.0,40.0,6.0,0.0
7215,79.0,24.0,20.0,1.0,0.0
7216,71.0,0.0,20.0,5.0,0.0
7217,81.0,0.0,40.0,1.0,0.0
7218,77.0,0.0,40.0,2.0,0.0
7219,65.0,0.0,40.0,3.0,0.0
7220,50.0,0.0,40.0,4.0,0.0
7221,72.0,22.0,20.0,5.0,0.0
7222,50.0,2.0,40.0,6.0,0.0
7223,74.0,24.0,20.0,5.0,0.0
7224,72.0,0.0,40.0,1.0,0.0
7225,76.0,0.0,20.0,2.0,0.0
7226,67.0,2.0,40.0,3.0,0.0
7227,55.0,0.0,20.0,4.0,0.0
7228,76.0,22.0,20.0,5.0,0.0
7229,55.0,0.0,20.0,6.0,0.0
7230,77.0,24.0,20.0,2.0,0.0
7231,57.0,0.0,20.0,4.0,0.0
7232,72.0,0.0,20.0,5.0,0.0
7233,57.0,0.0,20.0,6.0,0.0
7234,71.0,0.0,40.0,1.0,0.0
7235,79.0,2.0,40.0,2.0,0.0
7236,62.0,0.0,40.0,3.0,0.0
7237,55.0,22.0,20.0,4.0,0.0
7238,74.0,0.0,40.0,5.0,0.0
7239,55.0,0.0,20.0,6.0,0.0
7240,53.0,24.0,20.0,4.0,0.0
7241,53.0,0.0,20.0,6.0,0.0
7242,77.0,0.0,90.0,1.0,0.0
7243,67.0,3.0,90.0,2.0,0.0
7244,74.0,0.0,90.0,3.0,0.0
7245,52.0,24.0,20.0,4.0,0.0
7246,83.0,0.0,90.0,5.0,0.0
7247,52.0,0.0,20.0,6.0,0.0
7248,50.0,43.0,20.0,4.0,0.0
7249,50.0,0.0,20.0,6.0,0.0
7250,48.0,48.0,40.0,4.0,0.0
7251,48.0,0.0,40.0,6.0,0.0
7252,76.0,0.0,40.0,1.0,0.0
7253,72.0,0.0,40.0,2.0,0.0
7254,67.0,0.0,40.0,3.0,0.0
7255,60.0,96.0,40.0,4.0,0.0
7256,84.0,0.0,40.0,5.0,0.0
7257,60.0,0.0,40.0,6.0,0.0
7258,65.0,26.0,40.0,1.0,0.0
7259,62.0,0.0,40.0,2.0,0.0
7260,59.0,0.0,40.0,3.0,0.0
7261,64.0,0.0,40.0,1.0,0.0
7262,60.0,2.0,40.0,2.0,0.0
7263,60.0,0.0,40.0,3.0,0.0
7264,84.0,22.0,20.0,5.0,0.0
7265,82.0,24.0,20.0,5.0,0.0
7266,81.0,24.0,20.0,5.0,0.0
7267,53.0,9.0,180.0,4.0,0.0
7268,82.0,24.0,20.0,5.0,0.0
7269,81.0,22.0,20.0,1.0,0.0
7270,62.0,0.0,40.0,2.0,0.0
7271,57.0,0.0,40.0,3.0,0.0
7272,81.0,0.0,150.0,5.0,0.0
7273,65.0,2.0,40.0,6.0,0.0
7274,79.0,24.0,20.0,1.0,0.0
7275,77.0,22.0,20.0,1.0,0.0
7276,65.0,0.0,40.0,2.0,0.0
7277,62.0,0.0,40.0,3.0,0.0
7278,62.0,2.0,40.0,6.0,0.0
7279,76.0,24.0,20.0,1.0,0.0
7280,74.0,22.0,20.0,1.0,0.0
7281,67.0,0.0,40.0,2.0,0.0
7282,64.0,0.0,40.0,3.0,0.0
7283,57.0,2.0,40.0,6.0,0.0
7284,73.0,15.0,20.0,1.0,0.0
7285,74.0,0.0,20.0,1.0,0.0
7286,69.0,0.0,180.0,2.0,0.0
7287,65.0,7.0,180.0,3.0,0.0
7288,53.0,24.0,20.0,6.0,0.0
7289,69.0,0.0,20.0,1.0,0.0
7290,52.0,0.0,20.0,4.0,0.0
7291,79.0,24.0,20.0,5.0,0.0
7292,52.0,0.0,20.0,6.0,0.0
7293,74.0,0.0,20.0,1.0,0.0
7294,53.0,0.0,20.0,4.0,0.0
7295,77.0,24.0,20.0,5.0,0.0
7296,53.0,0.0,20.0,6.0,0.0
7297,76.0,0.0,20.0,1.0,0.0
7298,55.0,0.0,20.0,4.0,0.0
7299,76.0,24.0,20.0,5.0,0.0
7300,55.0,0.0,20.0,6.0,0.0
7301,77.0,15.0,60.0,1.0,0.0
7302,53.0,0.0,20.0,4.0,0.0
7303,74.0,24.0,20.0,5.0,0.0
7304,53.0,0.0,20.0,6.0,0.0
7305,52.0,0.0,20.0,4.0,0.0
7306,73.0,24.0,20.0,5.0,0.0
7307,52.0,0.0,20.0,6.0,0.0
7308,50.0,9.0,180.0,4.0,0.0
7309,74.0,0.0,20.0,5.0,0.0
7310,50.0,2.0,40.0,6.0,0.0
7311,76.0,0.0,20.0,1.0,0.0
7312,69.0,24.0,20.0,5.0,0.0
7313,74.0,22.0,20.0,1.0,0.0
7314,65.0,0.0,40.0,2.0,0.0
7315,69.0,0.0,40.0,3.0,0.0
7316,74.0,0.0,20.0,5.0,0.0
7317,53.0,2.0,40.0,6.0,0.0
7318,72.0,24.0,20.0,1.0,0.0
7319,76.0,0.0,20.0,5.0,0.0
7320,71.0,22.0,20.0,1.0,0.0
7321,62.0,0.0,40.0,2.0,0.0
7322,65.0,0.0,40.0,3.0,0.0
7323,77.0,0.0,60.0,5.0,0.0
7324,57.0,2.0,40.0,6.0,0.0
7325,69.0,24.0,20.0,1.0,0.0
7326,68.0,0.0,20.0,1.0,0.0
7327,71.0,22.0,150.0,2.0,0.0
7328,59.0,15.0,20.0,3.0,0.0
7329,62.0,0.0,20.0,6.0,0.0
7330,69.0,0.0,20.0,1.0,0.0
7331,60.0,0.0,20.0,3.0,0.0
7332,76.0,0.0,20.0,5.0,0.0
7333,60.0,24.0,20.0,6.0,0.0
7334,71.0,0.0,20.0,1.0,0.0
7335,62.0,0.0,20.0,3.0,0.0
7336,48.0,0.0,20.0,4.0,0.0
7337,74.0,24.0,20.0,5.0,0.0
7338,59.0,0.0,20.0,6.0,0.0
7339,72.0,0.0,20.0,1.0,0.0
7340,64.0,0.0,20.0,3.0,0.0
7341,47.0,0.0,20.0,4.0,0.0
7342,72.0,24.0,20.0,5.0,0.0
7343,57.0,0.0,20.0,6.0,0.0
7344,74.0,0.0,60.0,1.0,0.0
7345,65.0,0.0,20.0,3.0,0.0
7346,45.0,0.0,20.0,4.0,0.0
7347,71.0,24.0,20.0,5.0,0.0
7348,56.0,0.0,20.0,6.0,0.0
7349,62.0,0.0,20.0,3.0,0.0
7350,44.0,0.0,20.0,4.0,0.0
7351,69.0,24.0,20.0,5.0,0.0
7352,54.0,0.0,20.0,6.0,0.0
7353,68.0,2.0,40.0,3.0,0.0
7354,42.0,0.0,20.0,4.0,0.0
7355,68.0,0.0,20.0,5.0,0.0
7356,52.0,0.0,40.0,6.0,0.0
7357,76.0,0.0,20.0,1.0,0.0
7358,72.0,0.0,20.0,2.0,0.0
7359,40.0,2.0,40.0,4.0,0.0
7360,76.0,22.0,20.0,5.0,0.0
7361,78.0,0.0,20.0,1.0,0.0
7362,74.0,2.0,40.0,2.0,0.0
7363,78.0,22.0,20.0,5.0,0.0
7364,80.0,0.0,20.0,1.0,0.0
7365,80.0,0.0,20.0,5.0,0.0
7366,52.0,24.0,20.0,6.0,0.0
7367,81.0,0.0,20.0,1.0,0.0
7368,64.0,0.0,40.0,2.0,0.0
7369,74.0,2.0,40.0,3.0,0.0
7370,52.0,0.0,20.0,4.0,0.0
7371,81.0,22.0,20.0,5.0,0.0
7372,54.0,0.0,20.0,6.0,0.0
7373,83.0,46.0,20.0,1.0,0.0
7374,54.0,0.0,20.0,4.0,0.0
7375,83.0,0.0,20.0,5.0,0.0
7376,56.0,0.0,20.0,6.0,0.0
7377,84.0,0.0,40.0,1.0,0.0
7378,76.0,0.0,40.0,2.0,0.0
7379,72.0,0.0,40.0,3.0,0.0
7380,57.0,48.0,40.0,4.0,0.0
7381,84.0,0.0,40.0,5.0,0.0
7382,57.0,0.0,40.0,6.0,0.0
7383,80.0,0.0,40.0,1.0,0.0
7384,74.0,0.0,40.0,2.0,0.0
7385,71.0,0.0,40.0,3.0,0.0
7386,59.0,48.0,40.0,4.0,0.0
7387,80.0,0.0,40.0,5.0,0.0
7388,59.0,0.0,40.0,6.0,0.0
7389,81.0,0.0,40.0,1.0,0.0
7390,76.0,0.0,40.0,2.0,0.0
7391,69.0,3.0,90.0,3.0,0.0
7392,60.0,0.0,40.0,4.0,0.0
7393,81.0,45.0,40.0,5.0,0.0
7394,60.0,0.0,40.0,6.0,0.0
7395,72.0,0.0,40.0,1.0,0.0
7396,69.0,0.0,40.0,2.0,0.0
7397,53.0,0.0,40.0,4.0,0.0
7398,72.0,48.0,40.0,5.0,0.0
7399,69.0,0.0,40.0,5.0,0.0
7400,53.0,0.0,40.0,6.0,0.0
7401,74.0,0.0,40.0,1.0,0.0
7402,71.0,0.0,40.0,2.0,0.0
7403,65.0,0.0,40.0,3.0,0.0
7404,50.0,48.0,40.0,4.0,0.0
7405,74.0,0.0,40.0,5.0,0.0
7406,71.0,0.0,40.0,5.0,0.0
7407,50.0,0.0,40.0,6.0,0.0
7408,71.0,0.0,40.0,1.0,0.0
7409,68.0,0.0,40.0,2.0,0.0
7410,64.0,0.0,40.0,3.0,0.0
7411,52.0,281.0,40.0,4.0,0.0
7412,68.0,0.0,40.0,5.0,0.0
7413,71.0,0.0,40.0,5.0,0.0
7414,52.0,0.0,40.0,6.0,0.0
7415,69.0,0.0,270.0,1.0,0.0
7416,64.0,0.0,270.0,2.0,0.0
7417,60.0,0.0,270.0,3.0,0.0
7418,45.0,4.0,270.0,4.0,0.0
7419,69.0,0.0,270.0,5.0,0.0
7420,60.0,0.0,270.0,5.0,0.0
7421,64.0,3.0,270.0,5.0,0.0
7422,45.0,0.0,270.0,6.0,0.0
