,note,step,duration,channel,velocity
0,63.0,60.0,120.0,3.0,0.0
1,71.0,0.0,60.0,1.0,0.0
2,66.0,0.0,120.0,2.0,0.0
3,47.0,0.0,120.0,5.0,0.0
4,71.0,60.0,60.0,0.0,0.0
5,66.0,0.0,120.0,0.0,0.0
6,66.0,60.0,120.0,1.0,0.0
7,66.0,0.0,120.0,2.0,0.0
8,46.0,0.0,120.0,5.0,0.0
9,61.0,0.0,120.0,3.0,0.0
10,64.0,60.0,60.0,0.0,0.0
11,64.0,0.0,60.0,1.0,0.0
12,66.0,0.0,120.0,2.0,0.0
13,63.0,30.0,60.0,0.0,0.0
14,59.0,0.0,120.0,3.0,0.0
15,47.0,0.0,60.0,5.0,0.0
16,63.0,0.0,60.0,1.0,0.0
17,49.0,0.0,30.0,5.0,0.0
18,64.0,0.0,30.0,1.0,0.0
19,64.0,30.0,30.0,0.0,0.0
20,66.0,0.0,30.0,1.0,0.0
21,66.0,0.0,30.0,0.0,0.0
22,51.0,60.0,30.0,5.0,0.0
23,68.0,0.0,60.0,0.0,0.0
24,64.0,60.0,60.0,2.0,0.0
25,59.0,0.0,60.0,3.0,0.0
26,52.0,0.0,60.0,5.0,0.0
27,68.0,0.0,60.0,1.0,0.0
28,68.0,0.0,60.0,2.0,0.0
29,64.0,0.0,60.0,3.0,0.0
30,73.0,0.0,60.0,0.0,0.0
31,64.0,0.0,120.0,5.0,0.0
32,73.0,60.0,60.0,1.0,0.0
33,70.0,0.0,60.0,0.0,0.0
34,66.0,60.0,120.0,2.0,0.0
35,61.0,60.0,60.0,3.0,0.0
36,70.0,0.0,60.0,1.0,0.0
37,71.0,0.0,60.0,0.0,0.0
38,63.0,0.0,60.0,5.0,0.0
39,66.0,60.0,120.0,3.0,0.0
40,71.0,0.0,60.0,1.0,0.0
41,73.0,0.0,60.0,2.0,0.0
42,76.0,0.0,60.0,0.0,0.0
43,58.0,0.0,60.0,5.0,0.0
44,76.0,0.0,60.0,1.0,0.0
45,75.0,0.0,60.0,0.0,0.0
46,75.0,0.0,60.0,1.0,0.0
47,59.0,0.0,60.0,5.0,0.0
48,71.0,0.0,60.0,2.0,0.0
49,66.0,20.0,60.0,3.0,0.0
50,75.0,0.0,20.0,0.0,0.0
51,75.0,0.0,20.0,1.0,0.0
52,66.0,0.0,60.0,3.0,0.0
53,71.0,20.0,20.0,2.0,0.0
54,66.0,0.0,60.0,5.0,0.0
55,76.0,20.0,20.0,1.0,0.0
56,73.0,0.0,20.0,2.0,0.0
57,76.0,0.0,20.0,0.0,0.0
58,75.0,0.0,20.0,1.0,0.0
59,71.0,0.0,20.0,2.0,0.0
60,75.0,60.0,20.0,0.0,0.0
61,66.0,0.0,60.0,3.0,0.0
62,73.0,180.0,60.0,1.0,0.0
63,70.0,0.0,60.0,2.0,0.0
64,54.0,0.0,60.0,5.0,0.0
65,73.0,0.0,60.0,0.0,0.0
66,52.0,0.0,120.0,5.0,0.0
67,73.0,0.0,60.0,0.0,0.0
68,68.0,0.0,120.0,2.0,0.0
69,61.0,60.0,120.0,3.0,0.0
70,73.0,60.0,60.0,1.0,0.0
71,68.0,0.0,120.0,0.0,0.0
72,68.0,60.0,120.0,1.0,0.0
73,68.0,60.0,120.0,2.0,0.0
74,48.0,0.0,120.0,5.0,0.0
75,63.0,0.0,120.0,3.0,0.0
76,66.0,0.0,60.0,0.0,0.0
77,66.0,0.0,60.0,1.0,0.0
78,61.0,0.0,120.0,3.0,0.0
79,68.0,0.0,120.0,2.0,0.0
80,64.0,0.0,60.0,1.0,0.0
81,64.0,0.0,60.0,0.0,0.0
82,49.0,30.0,60.0,5.0,0.0
83,51.0,0.0,30.0,5.0,0.0
84,66.0,0.0,30.0,1.0,0.0
85,66.0,30.0,30.0,0.0,0.0
86,68.0,0.0,30.0,1.0,0.0
87,68.0,15.0,30.0,0.0,0.0
88,52.0,0.0,30.0,5.0,0.0
89,69.0,15.0,15.0,0.0,0.0
90,66.0,60.0,60.0,2.0,0.0
91,61.0,0.0,60.0,3.0,0.0
92,69.0,0.0,15.0,1.0,0.0
93,54.0,0.0,60.0,5.0,0.0
94,68.0,0.0,15.0,0.0,0.0
95,68.0,30.0,15.0,1.0,0.0
96,66.0,0.0,30.0,0.0,0.0
97,66.0,0.0,30.0,1.0,0.0
98,66.0,0.0,120.0,5.0,0.0
99,66.0,0.0,60.0,3.0,0.0
100,75.0,60.0,60.0,0.0,0.0
101,69.0,0.0,60.0,2.0,0.0
102,75.0,0.0,60.0,1.0,0.0
103,68.0,0.0,120.0,2.0,0.0
104,63.0,0.0,60.0,3.0,0.0
105,72.0,0.0,60.0,1.0,0.0
106,72.0,60.0,60.0,0.0,0.0
107,73.0,60.0,60.0,1.0,0.0
108,68.0,60.0,120.0,3.0,0.0
109,73.0,0.0,60.0,0.0,0.0
110,64.0,0.0,60.0,5.0,0.0
111,78.0,0.0,60.0,0.0,0.0
112,78.0,0.0,60.0,1.0,0.0
113,60.0,0.0,60.0,5.0,0.0
114,75.0,0.0,60.0,2.0,0.0
115,76.0,0.0,60.0,1.0,0.0
116,73.0,0.0,60.0,2.0,0.0
117,76.0,0.0,60.0,0.0,0.0
118,61.0,0.0,60.0,5.0,0.0
119,68.0,20.0,60.0,3.0,0.0
120,76.0,0.0,20.0,0.0,0.0
121,68.0,0.0,60.0,3.0,0.0
122,73.0,20.0,20.0,2.0,0.0
123,76.0,0.0,20.0,1.0,0.0
124,68.0,0.0,60.0,5.0,0.0
125,78.0,20.0,20.0,1.0,0.0
126,78.0,0.0,20.0,0.0,0.0
127,75.0,0.0,20.0,2.0,0.0
128,76.0,0.0,20.0,0.0,0.0
129,73.0,0.0,20.0,2.0,0.0
130,76.0,60.0,20.0,1.0,0.0
131,72.0,0.0,60.0,2.0,0.0
132,68.0,0.0,60.0,3.0,0.0
133,56.0,60.0,60.0,5.0,0.0
134,75.0,0.0,60.0,0.0,0.0
135,75.0,0.0,60.0,1.0,0.0
136,75.0,30.0,30.0,0.0,0.0
137,73.0,30.0,30.0,0.0,0.0
138,75.0,30.0,30.0,0.0,0.0
139,61.0,0.0,60.0,5.0,0.0
140,76.0,30.0,30.0,0.0,0.0
141,68.0,30.0,30.0,0.0,0.0
142,49.0,15.0,60.0,5.0,0.0
143,61.0,30.0,30.0,0.0,0.0
144,68.0,0.0,30.0,0.0,0.0
145,76.0,15.0,15.0,0.0,0.0
146,76.0,15.0,60.0,1.0,0.0
147,73.0,0.0,60.0,3.0,0.0
148,76.0,0.0,60.0,2.0,0.0
149,73.0,15.0,15.0,0.0,0.0
150,75.0,15.0,15.0,0.0,0.0
151,76.0,0.0,15.0,0.0,0.0
152,78.0,15.0,15.0,0.0,0.0
153,61.0,0.0,60.0,3.0,0.0
154,68.0,0.0,60.0,2.0,0.0
155,68.0,30.0,60.0,1.0,0.0
156,80.0,15.0,15.0,0.0,0.0
157,82.0,15.0,15.0,0.0,0.0
158,83.0,0.0,15.0,0.0,0.0
159,52.0,0.0,60.0,5.0,0.0
160,85.0,30.0,30.0,0.0,0.0
161,76.0,30.0,30.0,0.0,0.0
162,68.0,30.0,30.0,0.0,0.0
163,49.0,30.0,60.0,5.0,0.0
164,76.0,0.0,30.0,0.0,0.0
165,80.0,0.0,60.0,2.0,0.0
166,64.0,30.0,60.0,3.0,0.0
167,85.0,30.0,30.0,0.0,0.0
168,80.0,0.0,60.0,1.0,0.0
169,76.0,0.0,30.0,0.0,0.0
170,76.0,0.0,60.0,2.0,0.0
171,83.0,30.0,30.0,0.0,0.0
172,76.0,0.0,60.0,1.0,0.0
173,61.0,30.0,60.0,3.0,0.0
174,76.0,0.0,30.0,0.0,0.0
175,82.0,30.0,30.0,0.0,0.0
176,54.0,0.0,60.0,5.0,0.0
177,76.0,30.0,30.0,0.0,0.0
178,66.0,30.0,30.0,0.0,0.0
179,42.0,15.0,60.0,5.0,0.0
180,76.0,0.0,30.0,0.0,0.0
181,66.0,15.0,60.0,3.0,0.0
182,82.0,15.0,15.0,0.0,0.0
183,73.0,0.0,60.0,1.0,0.0
184,73.0,0.0,60.0,2.0,0.0
185,78.0,15.0,15.0,0.0,0.0
186,80.0,15.0,15.0,0.0,0.0
187,82.0,0.0,15.0,0.0,0.0
188,54.0,30.0,60.0,3.0,0.0
189,70.0,0.0,60.0,1.0,0.0
190,83.0,15.0,15.0,0.0,0.0
191,70.0,0.0,60.0,2.0,0.0
192,85.0,15.0,15.0,0.0,0.0
193,87.0,15.0,15.0,0.0,0.0
194,88.0,0.0,15.0,0.0,0.0
195,58.0,30.0,60.0,5.0,0.0
196,90.0,30.0,30.0,0.0,0.0
197,78.0,0.0,30.0,0.0,0.0
198,54.0,0.0,60.0,5.0,0.0
199,66.0,30.0,30.0,0.0,0.0
200,78.0,30.0,30.0,0.0,0.0
201,78.0,0.0,60.0,2.0,0.0
202,70.0,0.0,60.0,3.0,0.0
203,78.0,0.0,60.0,1.0,0.0
204,90.0,30.0,30.0,0.0,0.0
205,78.0,30.0,30.0,0.0,0.0
206,73.0,0.0,60.0,1.0,0.0
207,66.0,0.0,60.0,3.0,0.0
208,88.0,30.0,30.0,0.0,0.0
209,73.0,30.0,60.0,2.0,0.0
210,78.0,0.0,30.0,0.0,0.0
211,87.0,30.0,30.0,0.0,0.0
212,59.0,0.0,60.0,5.0,0.0
213,78.0,30.0,30.0,0.0,0.0
214,71.0,30.0,30.0,0.0,0.0
215,75.0,0.0,60.0,2.0,0.0
216,47.0,0.0,60.0,5.0,0.0
217,78.0,0.0,60.0,1.0,0.0
218,71.0,30.0,60.0,3.0,0.0
219,78.0,0.0,30.0,0.0,0.0
220,83.0,0.0,60.0,1.0,0.0
221,78.0,0.0,60.0,2.0,0.0
222,87.0,30.0,30.0,0.0,0.0
223,75.0,30.0,60.0,3.0,0.0
224,78.0,0.0,30.0,0.0,0.0
225,87.0,30.0,30.0,0.0,0.0
226,71.0,30.0,60.0,3.0,0.0
227,75.0,0.0,60.0,2.0,0.0
228,87.0,0.0,60.0,1.0,0.0
229,78.0,0.0,30.0,0.0,0.0
230,87.0,30.0,30.0,0.0,0.0
231,80.0,0.0,60.0,1.0,0.0
232,71.0,0.0,60.0,2.0,0.0
233,64.0,0.0,60.0,3.0,0.0
234,80.0,30.0,30.0,0.0,0.0
235,71.0,0.0,30.0,0.0,0.0
236,64.0,30.0,30.0,5.0,0.0
237,80.0,30.0,30.0,0.0,0.0
238,63.0,0.0,30.0,5.0,0.0
239,88.0,30.0,30.0,0.0,0.0
240,61.0,0.0,60.0,5.0,0.0
241,80.0,30.0,30.0,0.0,0.0
242,59.0,0.0,60.0,5.0,0.0
243,87.0,30.0,30.0,0.0,0.0
244,80.0,30.0,30.0,0.0,0.0
245,58.0,30.0,60.0,5.0,0.0
246,85.0,30.0,30.0,0.0,0.0
247,80.0,0.0,30.0,0.0,0.0
248,46.0,0.0,60.0,5.0,0.0
249,70.0,0.0,60.0,3.0,0.0
250,73.0,0.0,60.0,2.0,0.0
251,70.0,30.0,30.0,0.0,0.0
252,80.0,0.0,60.0,1.0,0.0
253,80.0,30.0,30.0,0.0,0.0
254,73.0,0.0,60.0,3.0,0.0
255,76.0,0.0,60.0,2.0,0.0
256,82.0,0.0,60.0,1.0,0.0
257,85.0,30.0,30.0,0.0,0.0
258,80.0,30.0,30.0,0.0,0.0
259,70.0,0.0,60.0,3.0,0.0
260,85.0,0.0,60.0,1.0,0.0
261,73.0,0.0,60.0,2.0,0.0
262,85.0,30.0,30.0,0.0,0.0
263,80.0,30.0,30.0,0.0,0.0
264,70.0,30.0,60.0,2.0,0.0
265,63.0,0.0,60.0,3.0,0.0
266,78.0,0.0,60.0,1.0,0.0
267,85.0,30.0,30.0,0.0,0.0
268,78.0,0.0,30.0,0.0,0.0
269,63.0,0.0,30.0,5.0,0.0
270,70.0,30.0,30.0,0.0,0.0
271,61.0,0.0,30.0,5.0,0.0
272,78.0,30.0,30.0,0.0,0.0
273,59.0,0.0,60.0,5.0,0.0
274,87.0,30.0,30.0,0.0,0.0
275,78.0,30.0,30.0,0.0,0.0
276,58.0,0.0,60.0,5.0,0.0
277,85.0,30.0,30.0,0.0,0.0
278,78.0,30.0,30.0,0.0,0.0
279,56.0,30.0,60.0,5.0,0.0
280,83.0,30.0,30.0,0.0,0.0
281,78.0,0.0,30.0,0.0,0.0
282,68.0,30.0,30.0,0.0,0.0
283,68.0,0.0,60.0,3.0,0.0
284,78.0,0.0,60.0,1.0,0.0
285,44.0,30.0,60.0,5.0,0.0
286,71.0,0.0,60.0,2.0,0.0
287,78.0,0.0,30.0,0.0,0.0
288,75.0,0.0,60.0,2.0,0.0
289,80.0,30.0,60.0,1.0,0.0
290,83.0,30.0,30.0,0.0,0.0
291,73.0,0.0,60.0,3.0,0.0
292,78.0,0.0,30.0,0.0,0.0
293,83.0,0.0,60.0,1.0,0.0
294,71.0,0.0,60.0,2.0,0.0
295,83.0,30.0,30.0,0.0,0.0
296,68.0,30.0,60.0,3.0,0.0
297,78.0,0.0,30.0,0.0,0.0
298,68.0,30.0,240.0,2.0,0.0
299,83.0,30.0,30.0,0.0,0.0
300,61.0,0.0,360.0,3.0,0.0
301,76.0,0.0,360.0,1.0,0.0
302,76.0,30.0,30.0,0.0,0.0
303,61.0,30.0,30.0,5.0,0.0
304,68.0,0.0,30.0,0.0,0.0
305,76.0,30.0,30.0,0.0,0.0
306,59.0,0.0,30.0,5.0,0.0
307,58.0,30.0,60.0,5.0,0.0
308,85.0,30.0,30.0,0.0,0.0
309,76.0,0.0,30.0,0.0,0.0
310,83.0,30.0,30.0,0.0,0.0
311,56.0,0.0,60.0,5.0,0.0
312,76.0,0.0,30.0,0.0,0.0
313,54.0,0.0,60.0,5.0,0.0
314,82.0,30.0,30.0,0.0,0.0
315,73.0,30.0,120.0,2.0,0.0
316,76.0,30.0,30.0,0.0,0.0
317,66.0,30.0,30.0,0.0,0.0
318,42.0,0.0,60.0,5.0,0.0
319,76.0,0.0,30.0,0.0,0.0
320,66.0,30.0,60.0,1.0,0.0
321,82.0,30.0,30.0,0.0,0.0
322,76.0,0.0,30.0,0.0,0.0
323,83.0,30.0,30.0,0.0,0.0
324,68.0,30.0,60.0,1.0,0.0
325,76.0,0.0,30.0,0.0,0.0
326,70.0,30.0,60.0,1.0,0.0
327,85.0,30.0,30.0,0.0,0.0
328,76.0,0.0,30.0,0.0,0.0
329,87.0,30.0,30.0,0.0,0.0
330,71.0,30.0,60.0,1.0,0.0
331,76.0,0.0,30.0,0.0,0.0
332,70.0,30.0,60.0,1.0,0.0
333,85.0,30.0,30.0,0.0,0.0
334,76.0,0.0,30.0,0.0,0.0
335,83.0,30.0,30.0,0.0,0.0
336,68.0,30.0,60.0,1.0,0.0
337,76.0,0.0,30.0,0.0,0.0
338,54.0,30.0,60.0,5.0,0.0
339,82.0,30.0,30.0,0.0,0.0
340,66.0,0.0,120.0,1.0,0.0
341,76.0,0.0,30.0,0.0,0.0
342,42.0,0.0,60.0,5.0,0.0
343,66.0,30.0,30.0,0.0,0.0
344,76.0,30.0,30.0,0.0,0.0
345,73.0,0.0,60.0,2.0,0.0
346,54.0,0.0,60.0,3.0,0.0
347,76.0,30.0,60.0,1.0,0.0
348,82.0,30.0,30.0,0.0,0.0
349,76.0,0.0,30.0,0.0,0.0
350,71.0,30.0,60.0,2.0,0.0
351,56.0,0.0,60.0,3.0,0.0
352,75.0,0.0,60.0,1.0,0.0
353,83.0,30.0,30.0,0.0,0.0
354,76.0,0.0,30.0,0.0,0.0
355,85.0,30.0,30.0,0.0,0.0
356,58.0,30.0,60.0,3.0,0.0
357,73.0,0.0,60.0,1.0,0.0
358,70.0,0.0,60.0,2.0,0.0
359,76.0,0.0,30.0,0.0,0.0
360,71.0,0.0,60.0,1.0,0.0
361,68.0,30.0,60.0,2.0,0.0
362,87.0,30.0,30.0,0.0,0.0
363,59.0,0.0,60.0,3.0,0.0
364,76.0,0.0,30.0,0.0,0.0
365,85.0,30.0,30.0,0.0,0.0
366,58.0,0.0,60.0,3.0,0.0
367,70.0,0.0,60.0,2.0,0.0
368,73.0,30.0,60.0,1.0,0.0
369,76.0,0.0,30.0,0.0,0.0
370,56.0,0.0,60.0,3.0,0.0
371,83.0,30.0,30.0,0.0,0.0
372,75.0,0.0,60.0,1.0,0.0
373,71.0,30.0,60.0,2.0,0.0
374,76.0,0.0,30.0,0.0,0.0
375,82.0,30.0,30.0,0.0,0.0
376,76.0,30.0,60.0,1.0,0.0
377,54.0,0.0,60.0,3.0,0.0
378,73.0,0.0,60.0,2.0,0.0
379,76.0,0.0,30.0,0.0,0.0
380,71.0,0.0,30.0,2.0,0.0
381,66.0,30.0,60.0,3.0,0.0
382,54.0,0.0,60.0,5.0,0.0
383,75.0,0.0,30.0,1.0,0.0
384,75.0,30.0,30.0,0.0,0.0
385,70.0,0.0,30.0,2.0,0.0
386,73.0,0.0,30.0,1.0,0.0
387,73.0,0.0,30.0,0.0,0.0
388,75.0,30.0,60.0,1.0,0.0
389,59.0,0.0,60.0,5.0,0.0
390,75.0,30.0,30.0,0.0,0.0
391,66.0,0.0,60.0,3.0,0.0
392,71.0,0.0,60.0,2.0,0.0
393,83.0,0.0,30.0,0.0,0.0
394,52.0,0.0,60.0,5.0,0.0
395,68.0,0.0,60.0,3.0,0.0
396,83.0,0.0,60.0,1.0,0.0
397,71.0,0.0,60.0,2.0,0.0
398,73.0,30.0,30.0,0.0,0.0
399,71.0,30.0,30.0,0.0,0.0
400,66.0,0.0,240.0,3.0,0.0
401,54.0,0.0,120.0,5.0,0.0
402,75.0,0.0,120.0,1.0,0.0
403,66.0,30.0,30.0,0.0,0.0
404,71.0,0.0,60.0,2.0,0.0
405,73.0,30.0,30.0,0.0,0.0
406,66.0,0.0,120.0,2.0,0.0
407,83.0,30.0,30.0,0.0,0.0
408,80.0,30.0,30.0,0.0,0.0
409,73.0,20.0,30.0,1.0,0.0
410,82.0,10.0,30.0,0.0,0.0
411,42.0,0.0,120.0,5.0,0.0
412,85.0,20.0,30.0,0.0,0.0
413,75.0,10.0,30.0,1.0,0.0
414,78.0,30.0,30.0,0.0,0.0
415,64.0,0.0,60.0,2.0,0.0
416,73.0,0.0,30.0,1.0,0.0
417,82.0,60.0,30.0,0.0,0.0
418,63.0,0.0,60.0,2.0,0.0
419,59.0,0.0,60.0,4.0,0.0
420,66.0,0.0,60.0,3.0,0.0
421,83.0,0.0,60.0,0.0,0.0
422,71.0,60.0,60.0,1.0,0.0
423,47.0,0.0,120.0,5.0,0.0
424,54.0,0.0,120.0,4.0,0.0
425,71.0,60.0,60.0,0.0,0.0
426,46.0,0.0,120.0,5.0,0.0
427,73.0,60.0,60.0,1.0,0.0
428,66.0,0.0,60.0,2.0,0.0
429,66.0,0.0,60.0,3.0,0.0
430,52.0,60.0,60.0,4.0,0.0
431,75.0,0.0,60.0,1.0,0.0
432,66.0,0.0,60.0,3.0,0.0
433,47.0,30.0,60.0,5.0,0.0
434,51.0,0.0,60.0,4.0,0.0
435,71.0,0.0,60.0,2.0,0.0
436,52.0,0.0,30.0,4.0,0.0
437,49.0,30.0,30.0,5.0,0.0
438,51.0,60.0,30.0,5.0,0.0
439,54.0,0.0,30.0,4.0,0.0
440,73.0,0.0,60.0,1.0,0.0
441,68.0,0.0,60.0,2.0,0.0
442,52.0,0.0,60.0,5.0,0.0
443,56.0,60.0,60.0,4.0,0.0
444,64.0,0.0,60.0,3.0,0.0
445,64.0,0.0,120.0,5.0,0.0
446,61.0,60.0,60.0,4.0,0.0
447,58.0,0.0,60.0,4.0,0.0
448,78.0,0.0,60.0,1.0,0.0
449,58.0,0.0,60.0,3.0,0.0
450,66.0,60.0,60.0,2.0,0.0
451,78.0,0.0,60.0,2.0,0.0
452,59.0,0.0,60.0,4.0,0.0
453,71.0,0.0,60.0,0.0,0.0
454,71.0,60.0,60.0,1.0,0.0
455,63.0,0.0,60.0,5.0,0.0
456,66.0,0.0,120.0,3.0,0.0
457,73.0,0.0,60.0,2.0,0.0
458,58.0,0.0,60.0,5.0,0.0
459,76.0,0.0,60.0,0.0,0.0
460,76.0,0.0,60.0,1.0,0.0
461,64.0,60.0,60.0,4.0,0.0
462,66.0,0.0,60.0,3.0,0.0
463,75.0,0.0,60.0,1.0,0.0
464,71.0,0.0,60.0,2.0,0.0
465,59.0,0.0,60.0,5.0,0.0
466,75.0,20.0,60.0,0.0,0.0
467,63.0,0.0,60.0,4.0,0.0
468,75.0,0.0,20.0,1.0,0.0
469,63.0,0.0,60.0,4.0,0.0
470,71.0,0.0,20.0,2.0,0.0
471,66.0,0.0,60.0,5.0,0.0
472,75.0,20.0,20.0,0.0,0.0
473,66.0,0.0,60.0,3.0,0.0
474,76.0,0.0,20.0,0.0,0.0
475,76.0,20.0,20.0,1.0,0.0
476,73.0,0.0,20.0,2.0,0.0
477,71.0,30.0,20.0,2.0,0.0
478,75.0,0.0,20.0,0.0,0.0
479,75.0,0.0,20.0,1.0,0.0
480,58.0,30.0,60.0,5.0,0.0
481,66.0,0.0,120.0,3.0,0.0
482,73.0,15.0,90.0,0.0,0.0
483,70.0,30.0,30.0,2.0,0.0
484,61.0,0.0,60.0,4.0,0.0
485,73.0,0.0,30.0,1.0,0.0
486,71.0,0.0,30.0,1.0,0.0
487,68.0,0.0,30.0,2.0,0.0
488,52.0,0.0,60.0,5.0,0.0
489,73.0,0.0,60.0,1.0,0.0
490,70.0,0.0,60.0,2.0,0.0
491,75.0,15.0,15.0,0.0,0.0
492,76.0,15.0,15.0,0.0,0.0
493,72.0,60.0,60.0,2.0,0.0
494,75.0,0.0,60.0,1.0,0.0
495,66.0,0.0,60.0,3.0,0.0
496,51.0,0.0,60.0,5.0,0.0
497,78.0,15.0,15.0,0.0,0.0
498,80.0,15.0,15.0,0.0,0.0
499,82.0,15.0,15.0,0.0,0.0
500,84.0,0.0,15.0,0.0,0.0
501,49.0,0.0,120.0,5.0,0.0
502,61.0,0.0,60.0,4.0,0.0
503,76.0,60.0,60.0,1.0,0.0
504,68.0,0.0,60.0,3.0,0.0
505,68.0,0.0,60.0,2.0,0.0
506,85.0,0.0,60.0,0.0,0.0
507,73.0,60.0,60.0,0.0,0.0
508,56.0,60.0,120.0,4.0,0.0
509,68.0,0.0,60.0,3.0,0.0
510,75.0,0.0,60.0,2.0,0.0
511,48.0,0.0,120.0,5.0,0.0
512,80.0,0.0,60.0,1.0,0.0
513,54.0,60.0,60.0,4.0,0.0
514,76.0,0.0,60.0,2.0,0.0
515,49.0,0.0,60.0,5.0,0.0
516,52.0,0.0,60.0,4.0,0.0
517,68.0,0.0,60.0,3.0,0.0
518,85.0,30.0,60.0,1.0,0.0
519,51.0,30.0,30.0,5.0,0.0
520,54.0,0.0,30.0,4.0,0.0
521,52.0,15.0,30.0,5.0,0.0
522,56.0,0.0,30.0,4.0,0.0
523,57.0,15.0,15.0,4.0,0.0
524,75.0,0.0,60.0,2.0,0.0
525,73.0,60.0,60.0,1.0,0.0
526,66.0,0.0,60.0,3.0,0.0
527,54.0,0.0,60.0,5.0,0.0
528,56.0,30.0,15.0,4.0,0.0
529,54.0,0.0,30.0,4.0,0.0
530,63.0,60.0,60.0,4.0,0.0
531,66.0,0.0,120.0,5.0,0.0
532,68.0,0.0,60.0,3.0,0.0
533,75.0,0.0,60.0,2.0,0.0
534,60.0,60.0,60.0,4.0,0.0
535,80.0,0.0,60.0,1.0,0.0
536,61.0,0.0,60.0,4.0,0.0
537,68.0,60.0,120.0,3.0,0.0
538,73.0,0.0,60.0,1.0,0.0
539,80.0,60.0,60.0,2.0,0.0
540,64.0,0.0,60.0,5.0,0.0
541,73.0,0.0,60.0,0.0,0.0
542,60.0,0.0,60.0,5.0,0.0
543,78.0,0.0,60.0,0.0,0.0
544,75.0,0.0,60.0,2.0,0.0
545,78.0,0.0,60.0,1.0,0.0
546,66.0,0.0,60.0,4.0,0.0
547,76.0,0.0,60.0,1.0,0.0
548,76.0,20.0,60.0,0.0,0.0
549,73.0,0.0,60.0,2.0,0.0
550,61.0,0.0,60.0,5.0,0.0
551,68.0,0.0,60.0,3.0,0.0
552,64.0,0.0,60.0,4.0,0.0
553,76.0,0.0,20.0,0.0,0.0
554,76.0,0.0,20.0,1.0,0.0
555,64.0,30.0,60.0,4.0,0.0
556,56.0,0.0,60.0,5.0,0.0
557,68.0,0.0,60.0,3.0,0.0
558,73.0,20.0,20.0,2.0,0.0
559,78.0,20.0,20.0,1.0,0.0
560,78.0,0.0,20.0,0.0,0.0
561,75.0,0.0,20.0,2.0,0.0
562,73.0,0.0,20.0,2.0,0.0
563,76.0,0.0,20.0,1.0,0.0
564,76.0,0.0,20.0,0.0,0.0
565,68.0,0.0,120.0,3.0,0.0
566,75.0,0.0,60.0,0.0,0.0
567,63.0,0.0,60.0,4.0,0.0
568,54.0,0.0,60.0,5.0,0.0
569,75.0,0.0,60.0,1.0,0.0
570,72.0,30.0,30.0,2.0,0.0
571,70.0,15.0,30.0,2.0,0.0
572,80.0,0.0,60.0,1.0,0.0
573,75.0,15.0,15.0,0.0,0.0
574,71.0,15.0,60.0,2.0,0.0
575,52.0,0.0,60.0,5.0,0.0
576,54.0,0.0,60.0,5.0,0.0
577,73.0,15.0,15.0,0.0,0.0
578,75.0,15.0,15.0,0.0,0.0
579,76.0,0.0,15.0,0.0,0.0
580,78.0,15.0,15.0,0.0,0.0
581,68.0,0.0,60.0,3.0,0.0
582,51.0,0.0,60.0,5.0,0.0
583,75.0,0.0,60.0,2.0,0.0
584,78.0,0.0,60.0,1.0,0.0
585,80.0,15.0,15.0,0.0,0.0
586,82.0,15.0,15.0,0.0,0.0
587,84.0,30.0,15.0,0.0,0.0
588,64.0,0.0,30.0,4.0,0.0
589,85.0,30.0,30.0,0.0,0.0
590,68.0,0.0,60.0,3.0,0.0
591,68.0,0.0,60.0,2.0,0.0
592,49.0,0.0,60.0,5.0,0.0
593,76.0,0.0,60.0,1.0,0.0
594,63.0,30.0,30.0,4.0,0.0
595,76.0,0.0,30.0,0.0,0.0
596,61.0,0.0,120.0,4.0,0.0
597,68.0,30.0,30.0,0.0,0.0
598,76.0,29.0,30.0,0.0,0.0
599,85.0,30.0,30.0,0.0,0.0
600,80.0,0.0,60.0,1.0,0.0
601,68.0,0.0,60.0,3.0,0.0
602,73.0,0.0,60.0,2.0,0.0
603,52.0,29.0,60.0,5.0,0.0
604,76.0,1.0,30.0,0.0,0.0
605,85.0,30.0,30.0,0.0,0.0
606,59.0,29.0,60.0,4.0,0.0
607,76.0,1.0,30.0,0.0,0.0
608,85.0,30.0,30.0,0.0,0.0
609,66.0,0.0,60.0,3.0,0.0
610,58.0,0.0,60.0,4.0,0.0
611,54.0,29.0,60.0,5.0,0.0
612,73.0,0.0,60.0,2.0,0.0
613,82.0,0.0,60.0,1.0,0.0
614,76.0,1.0,30.0,0.0,0.0
615,66.0,1.0,30.0,0.0,0.0
616,56.0,29.0,30.0,4.0,0.0
617,76.0,1.0,30.0,0.0,0.0
618,54.0,29.0,30.0,4.0,0.0
619,85.0,30.0,30.0,0.0,0.0
620,42.0,0.0,60.0,5.0,0.0
621,66.0,0.0,60.0,3.0,0.0
622,73.0,29.0,60.0,2.0,0.0
623,82.0,0.0,60.0,1.0,0.0
624,64.0,0.0,60.0,4.0,0.0
625,76.0,1.0,30.0,0.0,0.0
626,85.0,30.0,30.0,0.0,0.0
627,64.0,28.0,60.0,4.0,0.0
628,76.0,1.0,30.0,0.0,0.0
629,83.0,30.0,30.0,0.0,0.0
630,83.0,0.0,60.0,1.0,0.0
631,66.0,0.0,60.0,3.0,0.0
632,47.0,0.0,60.0,5.0,0.0
633,71.0,28.0,60.0,2.0,0.0
634,64.0,0.0,60.0,4.0,0.0
635,75.0,2.0,30.0,0.0,0.0
636,66.0,30.0,30.0,0.0,0.0
637,59.0,0.0,60.0,5.0,0.0
638,75.0,28.0,60.0,1.0,0.0
639,75.0,0.0,120.0,3.0,0.0
640,63.0,0.0,60.0,4.0,0.0
641,71.0,0.0,120.0,2.0,0.0
642,75.0,2.0,30.0,0.0,0.0
643,83.0,30.0,30.0,0.0,0.0
644,61.0,28.0,60.0,5.0,0.0
645,77.0,0.0,60.0,1.0,0.0
646,75.0,2.0,30.0,0.0,0.0
647,83.0,30.0,30.0,0.0,0.0
648,63.0,28.0,60.0,5.0,0.0
649,79.0,0.0,60.0,1.0,0.0
650,70.0,0.0,60.0,2.0,0.0
651,63.0,0.0,60.0,3.0,0.0
652,75.0,2.0,30.0,0.0,0.0
653,83.0,2.0,30.0,0.0,0.0
654,61.0,28.0,30.0,4.0,0.0
655,68.0,0.0,60.0,3.0,0.0
656,68.0,0.0,60.0,2.0,0.0
657,80.0,28.0,60.0,1.0,0.0
658,64.0,0.0,60.0,5.0,0.0
659,73.0,2.0,30.0,0.0,0.0
660,59.0,0.0,30.0,4.0,0.0
661,68.0,30.0,30.0,0.0,0.0
662,58.0,0.0,120.0,4.0,0.0
663,73.0,30.0,30.0,0.0,0.0
664,82.0,30.0,30.0,0.0,0.0
665,70.0,0.0,60.0,3.0,0.0
666,76.0,28.0,60.0,1.0,0.0
667,61.0,0.0,60.0,5.0,0.0
668,73.0,0.0,60.0,2.0,0.0
669,73.0,2.0,30.0,0.0,0.0
670,82.0,30.0,30.0,0.0,0.0
671,56.0,27.0,60.0,4.0,0.0
672,73.0,2.0,30.0,0.0,0.0
673,82.0,30.0,30.0,0.0,0.0
674,75.0,0.0,60.0,1.0,0.0
675,63.0,0.0,60.0,3.0,0.0
676,63.0,0.0,60.0,5.0,0.0
677,70.0,0.0,60.0,2.0,0.0
678,55.0,27.0,60.0,4.0,0.0
679,75.0,3.0,30.0,0.0,0.0
680,73.0,3.0,30.0,0.0,0.0
681,53.0,27.0,30.0,4.0,0.0
682,75.0,3.0,30.0,0.0,0.0
683,51.0,27.0,30.0,4.0,0.0
684,82.0,30.0,30.0,0.0,0.0
685,61.0,0.0,60.0,4.0,0.0
686,79.0,0.0,60.0,1.0,0.0
687,51.0,0.0,60.0,5.0,0.0
688,75.0,0.0,60.0,2.0,0.0
689,63.0,27.0,60.0,3.0,0.0
690,75.0,3.0,30.0,0.0,0.0
691,82.0,30.0,30.0,0.0,0.0
692,61.0,27.0,60.0,4.0,0.0
693,75.0,3.0,30.0,0.0,0.0
694,80.0,30.0,30.0,0.0,0.0
695,80.0,0.0,60.0,1.0,0.0
696,75.0,0.0,60.0,2.0,0.0
697,44.0,0.0,60.0,5.0,0.0
698,61.0,27.0,60.0,4.0,0.0
699,63.0,0.0,60.0,3.0,0.0
700,75.0,3.0,30.0,0.0,0.0
701,71.0,3.0,30.0,0.0,0.0
702,59.0,30.0,120.0,4.0,0.0
703,63.0,27.0,30.0,5.0,0.0
704,75.0,3.0,30.0,0.0,0.0
705,61.0,57.0,30.0,5.0,0.0
706,80.0,3.0,60.0,0.0,0.0
707,59.0,0.0,60.0,5.0,0.0
708,58.0,0.0,60.0,5.0,0.0
709,63.0,30.0,30.0,4.0,0.0
710,61.0,60.0,30.0,4.0,0.0
711,56.0,60.0,60.0,5.0,0.0
712,59.0,0.0,60.0,4.0,0.0
713,58.0,30.0,60.0,4.0,0.0
714,54.0,0.0,60.0,5.0,0.0
715,53.0,0.0,60.0,5.0,0.0
716,56.0,30.0,30.0,4.0,0.0
717,58.0,60.0,30.0,4.0,0.0
718,59.0,57.0,60.0,4.0,0.0
719,51.0,0.0,60.0,5.0,0.0
720,53.0,27.0,60.0,4.0,0.0
721,49.0,0.0,60.0,5.0,0.0
722,85.0,3.0,30.0,0.0,0.0
723,87.0,30.0,30.0,0.0,0.0
724,49.0,0.0,60.0,4.0,0.0
725,52.0,27.0,60.0,5.0,0.0
726,85.0,3.0,30.0,0.0,0.0
727,83.0,30.0,30.0,0.0,0.0
728,61.0,27.0,60.0,4.0,0.0
729,54.0,0.0,60.0,5.0,0.0
730,82.0,3.0,30.0,0.0,0.0
731,80.0,30.0,30.0,0.0,0.0
732,61.0,27.0,60.0,4.0,0.0
733,58.0,0.0,60.0,5.0,0.0
734,78.0,3.0,30.0,0.0,0.0
735,77.0,30.0,30.0,0.0,0.0
736,61.0,0.0,120.0,4.0,0.0
737,61.0,27.0,60.0,5.0,0.0
738,71.0,3.0,30.0,0.0,0.0
739,61.0,30.0,30.0,0.0,0.0
740,49.0,27.0,60.0,5.0,0.0
741,71.0,3.0,30.0,0.0,0.0
742,77.0,30.0,30.0,0.0,0.0
743,61.0,27.0,60.0,1.0,0.0
744,71.0,3.0,30.0,0.0,0.0
745,78.0,30.0,30.0,0.0,0.0
746,63.0,27.0,60.0,1.0,0.0
747,71.0,3.0,30.0,0.0,0.0
748,80.0,30.0,30.0,0.0,0.0
749,65.0,27.0,60.0,1.0,0.0
750,71.0,3.0,30.0,0.0,0.0
751,82.0,30.0,30.0,0.0,0.0
752,66.0,27.0,60.0,1.0,0.0
753,49.0,0.0,60.0,4.0,0.0
754,71.0,3.0,30.0,0.0,0.0
755,80.0,30.0,30.0,0.0,0.0
756,65.0,27.0,60.0,1.0,0.0
757,61.0,0.0,60.0,4.0,0.0
758,71.0,3.0,30.0,0.0,0.0
759,78.0,30.0,30.0,0.0,0.0
760,63.0,27.0,60.0,1.0,0.0
761,61.0,0.0,60.0,4.0,0.0
762,71.0,3.0,30.0,0.0,0.0
763,77.0,30.0,30.0,0.0,0.0
764,61.0,27.0,60.0,5.0,0.0
765,61.0,27.0,120.0,1.0,0.0
766,61.0,0.0,120.0,4.0,0.0
767,71.0,3.0,30.0,0.0,0.0
768,61.0,30.0,30.0,0.0,0.0
769,49.0,0.0,60.0,5.0,0.0
770,71.0,3.0,30.0,0.0,0.0
771,77.0,30.0,30.0,0.0,0.0
772,68.0,27.0,60.0,2.0,0.0
773,71.0,0.0,60.0,1.0,0.0
774,61.0,0.0,60.0,3.0,0.0
775,71.0,3.0,30.0,0.0,0.0
776,78.0,30.0,30.0,0.0,0.0
777,66.0,0.0,60.0,2.0,0.0
778,70.0,0.0,60.0,1.0,0.0
779,63.0,27.0,60.0,3.0,0.0
780,71.0,3.0,30.0,0.0,0.0
781,80.0,30.0,30.0,0.0,0.0
782,65.0,0.0,60.0,3.0,0.0
783,65.0,27.0,60.0,2.0,0.0
784,68.0,0.0,60.0,1.0,0.0
785,71.0,3.0,30.0,0.0,0.0
786,82.0,30.0,30.0,0.0,0.0
787,66.0,0.0,60.0,3.0,0.0
788,63.0,0.0,60.0,2.0,0.0
789,66.0,27.0,60.0,1.0,0.0
790,71.0,3.0,30.0,0.0,0.0
791,80.0,30.0,30.0,0.0,0.0
792,68.0,0.0,60.0,1.0,0.0
793,65.0,27.0,60.0,2.0,0.0
794,65.0,0.0,60.0,3.0,0.0
795,71.0,3.0,30.0,0.0,0.0
796,78.0,30.0,30.0,0.0,0.0
797,63.0,0.0,60.0,3.0,0.0
798,66.0,30.0,60.0,2.0,0.0
799,70.0,0.0,60.0,1.0,0.0
800,71.0,3.0,30.0,0.0,0.0
801,61.0,29.0,120.0,3.0,0.0
802,68.0,0.0,30.0,4.0,0.0
803,68.0,0.0,120.0,2.0,0.0
804,71.0,1.0,120.0,1.0,0.0
805,77.0,30.0,30.0,0.0,0.0
806,71.0,30.0,30.0,0.0,0.0
807,66.0,0.0,30.0,4.0,0.0
808,61.0,30.0,30.0,0.0,0.0
809,65.0,0.0,120.0,4.0,0.0
810,71.0,0.0,30.0,0.0,0.0
811,49.0,30.0,60.0,5.0,0.0
812,77.0,30.0,30.0,0.0,0.0
813,71.0,0.0,30.0,0.0,0.0
814,51.0,0.0,60.0,5.0,0.0
815,78.0,30.0,30.0,0.0,0.0
816,63.0,0.0,60.0,4.0,0.0
817,71.0,30.0,30.0,0.0,0.0
818,61.0,30.0,60.0,4.0,0.0
819,53.0,0.0,60.0,5.0,0.0
820,80.0,30.0,30.0,0.0,0.0
821,71.0,0.0,30.0,0.0,0.0
822,77.0,0.0,30.0,0.0,0.0
823,56.0,0.0,60.0,5.0,0.0
824,59.0,30.0,30.0,4.0,0.0
825,71.0,0.0,30.0,0.0,0.0
826,58.0,30.0,30.0,4.0,0.0
827,53.0,0.0,60.0,5.0,0.0
828,80.0,30.0,30.0,0.0,0.0
829,59.0,30.0,60.0,4.0,0.0
830,71.0,0.0,30.0,0.0,0.0
831,49.0,0.0,60.0,5.0,0.0
832,77.0,30.0,30.0,0.0,0.0
833,68.0,0.0,60.0,4.0,0.0
834,71.0,30.0,30.0,0.0,0.0
835,54.0,30.0,60.0,5.0,0.0
836,59.0,0.0,30.0,4.0,0.0
837,78.0,30.0,30.0,0.0,0.0
838,70.0,0.0,30.0,0.0,0.0
839,58.0,0.0,90.0,4.0,0.0
840,61.0,0.0,30.0,0.0,0.0
841,56.0,30.0,60.0,5.0,0.0
842,70.0,0.0,30.0,3.0,0.0
843,73.0,0.0,30.0,2.0,0.0
844,78.0,30.0,30.0,1.0,0.0
845,77.0,0.0,30.0,1.0,0.0
846,68.0,0.0,30.0,3.0,0.0
847,71.0,0.0,30.0,2.0,0.0
848,70.0,0.0,30.0,0.0,0.0
849,78.0,30.0,60.0,1.0,0.0
850,66.0,0.0,60.0,3.0,0.0
851,78.0,30.0,30.0,0.0,0.0
852,70.0,0.0,60.0,2.0,0.0
853,58.0,0.0,60.0,5.0,0.0
854,70.0,0.0,30.0,0.0,0.0
855,59.0,0.0,60.0,5.0,0.0
856,78.0,30.0,30.0,0.0,0.0
857,70.0,0.0,60.0,1.0,0.0
858,63.0,0.0,60.0,3.0,0.0
859,66.0,30.0,60.0,2.0,0.0
860,70.0,0.0,30.0,0.0,0.0
861,68.0,0.0,120.0,3.0,0.0
862,73.0,30.0,120.0,2.0,0.0
863,68.0,0.0,120.0,1.0,0.0
864,77.0,0.0,30.0,0.0,0.0
865,61.0,0.0,120.0,5.0,0.0
866,68.0,30.0,30.0,4.0,0.0
867,71.0,0.0,30.0,0.0,0.0
868,66.0,30.0,30.0,4.0,0.0
869,61.0,30.0,30.0,0.0,0.0
870,65.0,0.0,120.0,4.0,0.0
871,71.0,0.0,30.0,0.0,0.0
872,77.0,30.0,30.0,0.0,0.0
873,49.0,0.0,60.0,5.0,0.0
874,71.0,30.0,30.0,0.0,0.0
875,63.0,0.0,60.0,4.0,0.0
876,78.0,30.0,30.0,0.0,0.0
877,51.0,0.0,60.0,5.0,0.0
878,71.0,30.0,30.0,0.0,0.0
879,80.0,30.0,30.0,0.0,0.0
880,53.0,0.0,60.0,5.0,0.0
881,61.0,0.0,60.0,4.0,0.0
882,71.0,30.0,30.0,0.0,0.0
883,77.0,30.0,30.0,0.0,0.0
884,59.0,0.0,30.0,4.0,0.0
885,56.0,30.0,60.0,5.0,0.0
886,58.0,0.0,30.0,4.0,0.0
887,71.0,0.0,30.0,0.0,0.0
888,59.0,0.0,60.0,4.0,0.0
889,53.0,30.0,60.0,5.0,0.0
890,80.0,30.0,30.0,0.0,0.0
891,71.0,0.0,30.0,0.0,0.0
892,68.0,0.0,60.0,4.0,0.0
893,77.0,30.0,30.0,0.0,0.0
894,49.0,60.0,60.0,5.0,0.0
895,71.0,0.0,30.0,0.0,0.0
896,58.0,30.0,60.0,4.0,0.0
897,78.0,0.0,60.0,0.0,0.0
898,54.0,0.0,60.0,5.0,0.0
899,42.0,0.0,60.0,5.0,0.0
900,75.0,30.0,30.0,1.0,0.0
901,63.0,0.0,120.0,4.0,0.0
902,73.0,60.0,30.0,1.0,0.0
903,54.0,60.0,180.0,5.0,0.0
904,71.0,60.0,60.0,1.0,0.0
905,61.0,60.0,60.0,4.0,0.0
906,70.0,0.0,60.0,1.0,0.0
907,60.0,0.0,60.0,4.0,0.0
908,68.0,0.0,60.0,1.0,0.0
909,53.0,60.0,60.0,5.0,0.0
910,61.0,60.0,120.0,4.0,0.0
911,58.0,0.0,60.0,5.0,0.0
912,54.0,60.0,60.0,4.0,0.0
913,59.0,0.0,60.0,5.0,0.0
914,61.0,60.0,60.0,5.0,0.0
915,58.0,60.0,120.0,4.0,0.0
916,59.0,0.0,60.0,5.0,0.0
917,56.0,0.0,120.0,4.0,0.0
918,61.0,60.0,60.0,5.0,0.0
919,49.0,60.0,60.0,5.0,0.0
920,61.0,0.0,120.0,3.0,0.0
921,78.0,60.0,60.0,0.0,0.0
922,54.0,60.0,120.0,4.0,0.0
923,78.0,0.0,60.0,1.0,0.0
924,54.0,0.0,120.0,5.0,0.0
925,70.0,0.0,120.0,2.0,0.0
926,73.0,60.0,120.0,1.0,0.0
927,73.0,0.0,120.0,0.0,0.0
928,53.0,0.0,120.0,5.0,0.0
929,68.0,0.0,120.0,2.0,0.0
930,61.0,60.0,120.0,3.0,0.0
931,71.0,0.0,60.0,1.0,0.0
932,71.0,0.0,60.0,0.0,0.0
933,66.0,0.0,120.0,2.0,0.0
934,61.0,0.0,120.0,3.0,0.0
935,70.0,30.0,60.0,0.0,0.0
936,70.0,0.0,60.0,1.0,0.0
937,54.0,0.0,60.0,5.0,0.0
938,71.0,0.0,30.0,0.0,0.0
939,56.0,0.0,30.0,5.0,0.0
940,71.0,30.0,30.0,1.0,0.0
941,73.0,0.0,30.0,1.0,0.0
942,58.0,0.0,30.0,5.0,0.0
943,73.0,60.0,30.0,0.0,0.0
944,59.0,0.0,60.0,3.0,0.0
945,66.0,0.0,60.0,2.0,0.0
946,59.0,0.0,60.0,5.0,0.0
947,75.0,60.0,60.0,0.0,0.0
948,75.0,0.0,60.0,1.0,0.0
949,80.0,60.0,60.0,1.0,0.0
950,63.0,0.0,60.0,3.0,0.0
951,71.0,0.0,60.0,2.0,0.0
952,47.0,0.0,120.0,5.0,0.0
953,80.0,0.0,60.0,0.0,0.0
954,77.0,0.0,60.0,0.0,0.0
955,68.0,0.0,60.0,2.0,0.0
956,61.0,60.0,120.0,3.0,0.0
957,77.0,60.0,60.0,1.0,0.0
958,78.0,0.0,60.0,1.0,0.0
959,78.0,0.0,60.0,0.0,0.0
960,73.0,0.0,120.0,2.0,0.0
961,46.0,0.0,60.0,5.0,0.0
962,83.0,0.0,60.0,1.0,0.0
963,83.0,0.0,60.0,0.0,0.0
964,53.0,0.0,60.0,5.0,0.0
965,73.0,60.0,60.0,3.0,0.0
966,78.0,0.0,60.0,2.0,0.0
967,82.0,20.0,60.0,0.0,0.0
968,54.0,0.0,60.0,5.0,0.0
969,82.0,0.0,60.0,1.0,0.0
970,73.0,0.0,60.0,3.0,0.0
971,78.0,0.0,20.0,2.0,0.0
972,82.0,20.0,20.0,1.0,0.0
973,61.0,0.0,60.0,5.0,0.0
974,73.0,60.0,60.0,3.0,0.0
975,82.0,0.0,20.0,0.0,0.0
976,80.0,0.0,20.0,2.0,0.0
977,83.0,0.0,20.0,1.0,0.0
978,83.0,20.0,20.0,0.0,0.0
979,82.0,0.0,20.0,1.0,0.0
980,82.0,0.0,20.0,0.0,0.0
981,78.0,0.0,20.0,2.0,0.0
982,77.0,180.0,60.0,2.0,0.0
983,80.0,0.0,60.0,0.0,0.0
984,80.0,0.0,60.0,1.0,0.0
985,49.0,0.0,60.0,5.0,0.0
986,73.0,0.0,60.0,3.0,0.0
987,75.0,0.0,120.0,2.0,0.0
988,80.0,60.0,60.0,1.0,0.0
989,68.0,60.0,120.0,3.0,0.0
990,80.0,0.0,60.0,0.0,0.0
991,59.0,0.0,120.0,5.0,0.0
992,75.0,60.0,120.0,1.0,0.0
993,75.0,0.0,120.0,0.0,0.0
994,70.0,60.0,120.0,3.0,0.0
995,75.0,0.0,120.0,2.0,0.0
996,55.0,0.0,120.0,5.0,0.0
997,73.0,0.0,60.0,1.0,0.0
998,73.0,0.0,60.0,0.0,0.0
999,71.0,0.0,60.0,1.0,0.0
1000,71.0,30.0,60.0,0.0,0.0
1001,75.0,0.0,120.0,2.0,0.0
1002,68.0,0.0,120.0,3.0,0.0
1003,56.0,0.0,60.0,5.0,0.0
1004,73.0,0.0,30.0,1.0,0.0
1005,73.0,30.0,30.0,0.0,0.0
1006,58.0,0.0,30.0,5.0,0.0
1007,59.0,0.0,30.0,5.0,0.0
1008,75.0,0.0,30.0,1.0,0.0
1009,75.0,15.0,30.0,0.0,0.0
1010,73.0,0.0,60.0,2.0,0.0
1011,68.0,0.0,60.0,3.0,0.0
1012,61.0,0.0,60.0,5.0,0.0
1013,76.0,15.0,15.0,1.0,0.0
1014,76.0,0.0,15.0,0.0,0.0
1015,75.0,0.0,15.0,1.0,0.0
1016,75.0,30.0,15.0,0.0,0.0
1017,73.0,60.0,30.0,1.0,0.0
1018,73.0,0.0,30.0,0.0,0.0
1019,49.0,0.0,120.0,5.0,0.0
1020,82.0,0.0,60.0,0.0,0.0
1021,82.0,0.0,60.0,1.0,0.0
1022,76.0,60.0,60.0,2.0,0.0
1023,73.0,0.0,60.0,3.0,0.0
1024,75.0,60.0,120.0,2.0,0.0
1025,79.0,60.0,60.0,0.0,0.0
1026,70.0,0.0,60.0,3.0,0.0
1027,79.0,0.0,60.0,1.0,0.0
1028,47.0,0.0,60.0,5.0,0.0
1029,80.0,0.0,60.0,0.0,0.0
1030,75.0,0.0,120.0,3.0,0.0
1031,80.0,0.0,60.0,1.0,0.0
1032,85.0,0.0,60.0,0.0,0.0
1033,55.0,0.0,60.0,5.0,0.0
1034,82.0,0.0,60.0,2.0,0.0
1035,85.0,60.0,60.0,1.0,0.0
1036,75.0,0.0,60.0,3.0,0.0
1037,83.0,0.0,60.0,0.0,0.0
1038,80.0,20.0,60.0,2.0,0.0
1039,56.0,0.0,60.0,5.0,0.0
1040,83.0,0.0,60.0,1.0,0.0
1041,75.0,60.0,60.0,3.0,0.0
1042,83.0,0.0,20.0,1.0,0.0
1043,83.0,20.0,20.0,0.0,0.0
1044,63.0,0.0,60.0,5.0,0.0
1045,80.0,0.0,20.0,2.0,0.0
1046,82.0,0.0,20.0,2.0,0.0
1047,85.0,20.0,20.0,0.0,0.0
1048,85.0,0.0,20.0,1.0,0.0
1049,80.0,0.0,20.0,2.0,0.0
1050,83.0,0.0,20.0,1.0,0.0
1051,83.0,0.0,20.0,0.0,0.0
1052,75.0,0.0,60.0,3.0,0.0
1053,79.0,0.0,60.0,2.0,0.0
1054,82.0,0.0,60.0,1.0,0.0
1055,51.0,60.0,60.0,5.0,0.0
1056,82.0,0.0,60.0,0.0,0.0
1057,82.0,30.0,30.0,0.0,0.0
1058,80.0,30.0,30.0,0.0,0.0
1059,82.0,30.0,30.0,0.0,0.0
1060,83.0,30.0,30.0,0.0,0.0
1061,56.0,30.0,60.0,5.0,0.0
1062,75.0,0.0,30.0,0.0,0.0
1063,44.0,15.0,60.0,5.0,0.0
1064,68.0,30.0,30.0,0.0,0.0
1065,75.0,0.0,30.0,0.0,0.0
1066,80.0,15.0,60.0,1.0,0.0
1067,83.0,15.0,15.0,0.0,0.0
1068,75.0,0.0,60.0,2.0,0.0
1069,68.0,0.0,60.0,3.0,0.0
1070,85.0,15.0,15.0,0.0,0.0
1071,83.0,15.0,15.0,0.0,0.0
1072,82.0,0.0,15.0,0.0,0.0
1073,80.0,15.0,15.0,0.0,0.0
1074,71.0,30.0,60.0,2.0,0.0
1075,56.0,0.0,60.0,3.0,0.0
1076,75.0,0.0,60.0,1.0,0.0
1077,78.0,15.0,15.0,0.0,0.0
1078,76.0,15.0,15.0,0.0,0.0
1079,75.0,0.0,15.0,0.0,0.0
1080,76.0,30.0,30.0,0.0,0.0
1081,61.0,30.0,60.0,5.0,0.0
1082,68.0,0.0,30.0,0.0,0.0
1083,61.0,30.0,30.0,0.0,0.0
1084,49.0,15.0,60.0,5.0,0.0
1085,68.0,0.0,30.0,0.0,0.0
1086,76.0,0.0,60.0,1.0,0.0
1087,76.0,15.0,15.0,0.0,0.0
1088,73.0,0.0,60.0,3.0,0.0
1089,68.0,0.0,60.0,2.0,0.0
1090,73.0,15.0,15.0,0.0,0.0
1091,75.0,15.0,15.0,0.0,0.0
1092,76.0,15.0,15.0,0.0,0.0
1093,61.0,30.0,60.0,3.0,0.0
1094,64.0,0.0,60.0,2.0,0.0
1095,73.0,0.0,60.0,1.0,0.0
1096,78.0,15.0,15.0,0.0,0.0
1097,80.0,15.0,15.0,0.0,0.0
1098,82.0,15.0,15.0,0.0,0.0
1099,83.0,0.0,15.0,0.0,0.0
1100,54.0,30.0,60.0,5.0,0.0
1101,82.0,30.0,30.0,0.0,0.0
1102,73.0,0.0,30.0,0.0,0.0
1103,66.0,30.0,30.0,0.0,0.0
1104,42.0,0.0,60.0,5.0,0.0
1105,73.0,15.0,30.0,0.0,0.0
1106,82.0,15.0,15.0,0.0,0.0
1107,66.0,0.0,60.0,3.0,0.0
1108,78.0,0.0,60.0,1.0,0.0
1109,73.0,0.0,60.0,2.0,0.0
1110,83.0,15.0,15.0,0.0,0.0
1111,82.0,15.0,15.0,0.0,0.0
1112,80.0,15.0,15.0,0.0,0.0
1113,78.0,15.0,15.0,0.0,0.0
1114,70.0,0.0,60.0,2.0,0.0
1115,73.0,0.0,60.0,1.0,0.0
1116,54.0,30.0,60.0,3.0,0.0
1117,76.0,15.0,15.0,0.0,0.0
1118,75.0,15.0,15.0,0.0,0.0
1119,73.0,0.0,15.0,0.0,0.0
1120,75.0,30.0,30.0,0.0,0.0
1121,59.0,0.0,60.0,5.0,0.0
1122,66.0,30.0,30.0,0.0,0.0
1123,59.0,30.0,30.0,0.0,0.0
1124,47.0,15.0,60.0,5.0,0.0
1125,66.0,0.0,30.0,0.0,0.0
1126,75.0,15.0,15.0,0.0,0.0
1127,75.0,15.0,60.0,1.0,0.0
1128,71.0,0.0,60.0,3.0,0.0
1129,66.0,0.0,60.0,2.0,0.0
1130,71.0,15.0,15.0,0.0,0.0
1131,73.0,15.0,15.0,0.0,0.0
1132,75.0,0.0,15.0,0.0,0.0
1133,71.0,30.0,60.0,1.0,0.0
1134,76.0,15.0,15.0,0.0,0.0
1135,59.0,0.0,60.0,3.0,0.0
1136,63.0,0.0,60.0,2.0,0.0
1137,78.0,15.0,15.0,0.0,0.0
1138,80.0,15.0,15.0,0.0,0.0
1139,81.0,0.0,15.0,0.0,0.0
1140,80.0,0.0,30.0,0.0,0.0
1141,66.0,30.0,30.0,4.0,0.0
1142,75.0,0.0,60.0,1.0,0.0
1143,68.0,0.0,60.0,2.0,0.0
1144,60.0,29.0,60.0,3.0,0.0
1145,48.0,0.0,60.0,5.0,0.0
1146,78.0,0.0,30.0,0.0,0.0
1147,64.0,1.0,30.0,4.0,0.0
1148,72.0,30.0,30.0,0.0,0.0
1149,63.0,0.0,120.0,4.0,0.0
1150,78.0,30.0,30.0,0.0,0.0
1151,51.0,0.0,60.0,5.0,0.0
1152,80.0,30.0,30.0,0.0,0.0
1153,66.0,29.0,60.0,3.0,0.0
1154,78.0,0.0,60.0,1.0,0.0
1155,72.0,1.0,60.0,2.0,0.0
1156,78.0,0.0,30.0,0.0,0.0
1157,61.0,30.0,60.0,4.0,0.0
1158,80.0,30.0,30.0,0.0,0.0
1159,78.0,0.0,30.0,0.0,0.0
1160,60.0,0.0,60.0,4.0,0.0
1161,87.0,30.0,30.0,0.0,0.0
1162,80.0,1.0,60.0,1.0,0.0
1163,72.0,0.0,60.0,2.0,0.0
1164,44.0,0.0,60.0,5.0,0.0
1165,63.0,29.0,60.0,3.0,0.0
1166,78.0,0.0,30.0,0.0,0.0
1167,68.0,30.0,30.0,0.0,0.0
1168,58.0,0.0,30.0,4.0,0.0
1169,56.0,0.0,30.0,4.0,0.0
1170,78.0,30.0,30.0,0.0,0.0
1171,66.0,0.0,60.0,4.0,0.0
1172,87.0,30.0,30.0,0.0,0.0
1173,56.0,0.0,60.0,5.0,0.0
1174,68.0,29.0,60.0,3.0,0.0
1175,80.0,0.0,60.0,1.0,0.0
1176,72.0,1.0,60.0,2.0,0.0
1177,78.0,0.0,30.0,0.0,0.0
1178,66.0,0.0,60.0,4.0,0.0
1179,87.0,30.0,30.0,0.0,0.0
1180,78.0,30.0,30.0,0.0,0.0
1181,73.0,0.0,60.0,2.0,0.0
1182,61.0,1.0,60.0,5.0,0.0
1183,66.0,0.0,60.0,4.0,0.0
1184,80.0,0.0,60.0,1.0,0.0
1185,68.0,29.0,60.0,3.0,0.0
1186,87.0,30.0,30.0,0.0,0.0
1187,76.0,0.0,30.0,0.0,0.0
1188,68.0,30.0,30.0,0.0,0.0
1189,80.0,0.0,60.0,2.0,0.0
1190,85.0,0.0,60.0,1.0,0.0
1191,49.0,1.0,60.0,5.0,0.0
1192,64.0,0.0,60.0,4.0,0.0
1193,64.0,29.0,60.0,3.0,0.0
1194,76.0,0.0,30.0,0.0,0.0
1195,68.0,29.0,60.0,3.0,0.0
1196,87.0,30.0,30.0,0.0,0.0
1197,52.0,0.0,60.0,5.0,0.0
1198,80.0,0.0,60.0,1.0,0.0
1199,76.0,0.0,60.0,2.0,0.0
1200,76.0,1.0,30.0,0.0,0.0
1201,75.0,0.0,60.0,2.0,0.0
1202,56.0,0.0,60.0,5.0,0.0
1203,87.0,30.0,30.0,0.0,0.0
1204,72.0,29.0,60.0,3.0,0.0
1205,78.0,0.0,60.0,1.0,0.0
1206,76.0,1.0,30.0,0.0,0.0
1207,61.0,0.0,60.0,5.0,0.0
1208,64.0,30.0,30.0,4.0,0.0
1209,73.0,29.0,60.0,3.0,0.0
1210,76.0,0.0,60.0,1.0,0.0
1211,85.0,0.0,30.0,0.0,0.0
1212,68.0,0.0,60.0,2.0,0.0
1213,63.0,1.0,30.0,4.0,0.0
1214,76.0,0.0,30.0,0.0,0.0
1215,68.0,30.0,30.0,0.0,0.0
1216,61.0,0.0,120.0,4.0,0.0
1217,76.0,30.0,30.0,0.0,0.0
1218,61.0,29.0,60.0,3.0,0.0
1219,76.0,0.0,60.0,1.0,0.0
1220,68.0,0.0,60.0,2.0,0.0
1221,85.0,30.0,30.0,0.0,0.0
1222,52.0,0.0,60.0,5.0,0.0
1223,76.0,1.0,30.0,0.0,0.0
1224,59.0,0.0,60.0,4.0,0.0
1225,85.0,30.0,30.0,0.0,0.0
1226,76.0,30.0,30.0,0.0,0.0
1227,66.0,0.0,60.0,3.0,0.0
1228,54.0,1.0,60.0,5.0,0.0
1229,57.0,29.0,60.0,4.0,0.0
1230,76.0,0.0,60.0,1.0,0.0
1231,69.0,0.0,60.0,2.0,0.0
1232,85.0,30.0,30.0,0.0,0.0
1233,76.0,0.0,30.0,0.0,0.0
1234,63.0,29.0,30.0,4.0,0.0
1235,66.0,1.0,30.0,0.0,0.0
1236,64.0,29.0,30.0,4.0,0.0
1237,76.0,1.0,30.0,0.0,0.0
1238,66.0,29.0,60.0,4.0,0.0
1239,75.0,1.0,60.0,1.0,0.0
1240,47.0,0.0,60.0,5.0,0.0
1241,71.0,0.0,60.0,2.0,0.0
1242,66.0,0.0,60.0,3.0,0.0
1243,83.0,30.0,30.0,0.0,0.0
1244,75.0,0.0,30.0,0.0,0.0
1245,57.0,29.0,60.0,4.0,0.0
1246,83.0,30.0,30.0,0.0,0.0
1247,75.0,1.0,30.0,0.0,0.0
1248,71.0,1.0,60.0,2.0,0.0
1249,56.0,0.0,60.0,4.0,0.0
1250,52.0,0.0,60.0,5.0,0.0
1251,76.0,0.0,60.0,1.0,0.0
1252,83.0,30.0,30.0,0.0,0.0
1253,68.0,29.0,60.0,3.0,0.0
1254,76.0,0.0,30.0,0.0,0.0
1255,62.0,29.0,90.0,4.0,0.0
1256,68.0,30.0,30.0,0.0,0.0
1257,59.0,0.0,30.0,5.0,0.0
1258,76.0,31.0,30.0,0.0,0.0
1259,57.0,0.0,30.0,5.0,0.0
1260,83.0,0.0,60.0,0.0,0.0
1261,56.0,1.0,60.0,5.0,0.0
1262,59.0,59.0,30.0,4.0,0.0
1263,52.0,1.0,60.0,5.0,0.0
1264,61.0,29.0,60.0,4.0,0.0
1265,61.0,30.0,30.0,4.0,0.0
1266,57.0,30.0,60.0,5.0,0.0
1267,59.0,0.0,30.0,4.0,0.0
1268,58.0,0.0,120.0,4.0,0.0
1269,55.0,30.0,30.0,5.0,0.0
1270,54.0,60.0,30.0,5.0,0.0
1271,52.0,60.0,60.0,5.0,0.0
1272,59.0,0.0,60.0,4.0,0.0
1273,49.0,60.0,60.0,5.0,0.0
1274,59.0,30.0,120.0,4.0,0.0
1275,51.0,0.0,60.0,5.0,0.0
1276,83.0,30.0,30.0,0.0,0.0
1277,47.0,0.0,60.0,5.0,0.0
1278,85.0,30.0,30.0,0.0,0.0
1279,83.0,0.0,30.0,0.0,0.0
1280,51.0,30.0,60.0,5.0,0.0
1281,47.0,30.0,120.0,4.0,0.0
1282,81.0,30.0,30.0,0.0,0.0
1283,80.0,0.0,30.0,0.0,0.0
1284,78.0,30.0,30.0,0.0,0.0
1285,54.0,0.0,60.0,5.0,0.0
1286,76.0,0.0,30.0,0.0,0.0
1287,59.0,30.0,60.0,5.0,0.0
1288,75.0,30.0,30.0,0.0,0.0
1289,69.0,0.0,30.0,0.0,0.0
1290,47.0,30.0,60.0,5.0,0.0
1291,59.0,30.0,30.0,0.0,0.0
1292,69.0,0.0,30.0,0.0,0.0
1293,75.0,30.0,30.0,0.0,0.0
1294,59.0,25.0,60.0,4.0,0.0
1295,69.0,5.0,30.0,0.0,0.0
1296,76.0,30.0,30.0,0.0,0.0
1297,61.0,25.0,60.0,4.0,0.0
1298,69.0,5.0,30.0,0.0,0.0
1299,78.0,30.0,30.0,0.0,0.0
1300,63.0,25.0,60.0,4.0,0.0
1301,69.0,5.0,30.0,0.0,0.0
1302,80.0,30.0,30.0,0.0,0.0
1303,64.0,25.0,60.0,4.0,0.0
1304,69.0,5.0,30.0,0.0,0.0
1305,78.0,30.0,30.0,0.0,0.0
1306,63.0,25.0,60.0,4.0,0.0
1307,69.0,5.0,30.0,0.0,0.0
1308,76.0,30.0,30.0,0.0,0.0
1309,61.0,25.0,60.0,4.0,0.0
1310,69.0,5.0,30.0,0.0,0.0
1311,75.0,30.0,30.0,0.0,0.0
1312,59.0,5.0,60.0,5.0,0.0
1313,59.0,25.0,60.0,4.0,0.0
1314,69.0,0.0,30.0,0.0,0.0
1315,47.0,0.0,60.0,5.0,0.0
1316,59.0,5.0,30.0,0.0,0.0
1317,57.0,25.0,30.0,4.0,0.0
1318,69.0,5.0,30.0,0.0,0.0
1319,56.0,25.0,30.0,4.0,0.0
1320,59.0,5.0,60.0,2.0,0.0
1321,59.0,0.0,60.0,3.0,0.0
1322,59.0,0.0,60.0,1.0,0.0
1323,75.0,30.0,30.0,0.0,0.0
1324,54.0,25.0,60.0,4.0,0.0
1325,69.0,0.0,30.0,0.0,0.0
1326,61.0,0.0,60.0,3.0,0.0
1327,61.0,0.0,60.0,2.0,0.0
1328,76.0,30.0,30.0,0.0,0.0
1329,61.0,5.0,60.0,1.0,0.0
1330,56.0,25.0,60.0,4.0,0.0
1331,69.0,0.0,30.0,0.0,0.0
1332,78.0,30.0,30.0,0.0,0.0
1333,63.0,0.0,60.0,3.0,0.0
1334,63.0,5.0,60.0,2.0,0.0
1335,63.0,0.0,60.0,1.0,0.0
1336,57.0,25.0,60.0,4.0,0.0
1337,69.0,0.0,30.0,0.0,0.0
1338,64.0,0.0,60.0,3.0,0.0
1339,64.0,0.0,60.0,2.0,0.0
1340,80.0,30.0,30.0,0.0,0.0
1341,64.0,5.0,60.0,1.0,0.0
1342,56.0,25.0,60.0,4.0,0.0
1343,69.0,0.0,30.0,0.0,0.0
1344,63.0,5.0,60.0,3.0,0.0
1345,63.0,0.0,60.0,2.0,0.0
1346,63.0,0.0,60.0,1.0,0.0
1347,78.0,30.0,30.0,0.0,0.0
1348,57.0,25.0,60.0,4.0,0.0
1349,69.0,0.0,30.0,0.0,0.0
1350,61.0,0.0,60.0,1.0,0.0
1351,76.0,30.0,30.0,0.0,0.0
1352,61.0,0.0,60.0,3.0,0.0
1353,61.0,5.0,60.0,2.0,0.0
1354,54.0,25.0,60.0,4.0,0.0
1355,69.0,0.0,30.0,0.0,0.0
1356,59.0,0.0,120.0,2.0,0.0
1357,75.0,30.0,30.0,0.0,0.0
1358,59.0,0.0,120.0,3.0,0.0
1359,59.0,5.0,120.0,1.0,0.0
1360,66.0,30.0,60.0,4.0,0.0
1361,69.0,5.0,30.0,0.0,0.0
1362,59.0,0.0,60.0,0.0,0.0
1363,64.0,25.0,30.0,4.0,0.0
1364,63.0,60.0,30.0,4.0,0.0
1365,61.0,25.0,60.0,4.0,0.0
1366,59.0,30.0,30.0,5.0,0.0
1367,63.0,55.0,60.0,4.0,0.0
1368,57.0,5.0,30.0,5.0,0.0
1369,56.0,5.0,60.0,5.0,0.0
1370,64.0,25.0,60.0,4.0,0.0
1371,54.0,30.0,30.0,5.0,0.0
1372,58.0,55.0,60.0,4.0,0.0
1373,52.0,5.0,30.0,5.0,0.0
1374,51.0,5.0,60.0,5.0,0.0
1375,59.0,25.0,60.0,4.0,0.0
1376,56.0,30.0,30.0,5.0,0.0
1377,52.0,55.0,60.0,4.0,0.0
1378,52.0,5.0,30.0,5.0,0.0
1379,59.0,60.0,60.0,5.0,0.0
1380,56.0,55.0,120.0,4.0,0.0
1381,57.0,5.0,60.0,5.0,0.0
1382,59.0,60.0,60.0,5.0,0.0
1383,54.0,115.0,120.0,4.0,0.0
1384,47.0,5.0,60.0,5.0,0.0
1385,52.0,5.0,120.0,5.0,0.0
1386,52.0,175.0,120.0,4.0,0.0
1387,71.0,0.0,60.0,0.0,0.0
1388,71.0,60.0,60.0,1.0,0.0
1389,66.0,60.0,120.0,2.0,0.0
1390,47.0,0.0,120.0,5.0,0.0
1391,63.0,0.0,120.0,3.0,0.0
1392,66.0,0.0,120.0,1.0,0.0
1393,66.0,60.0,120.0,0.0,0.0
1394,66.0,0.0,120.0,2.0,0.0
1395,46.0,0.0,120.0,5.0,0.0
1396,61.0,60.0,120.0,3.0,0.0
1397,64.0,0.0,60.0,1.0,0.0
1398,64.0,0.0,60.0,0.0,0.0
1399,47.0,0.0,60.0,5.0,0.0
1400,63.0,0.0,60.0,0.0,0.0
1401,66.0,0.0,120.0,2.0,0.0
1402,63.0,30.0,60.0,1.0,0.0
1403,59.0,0.0,120.0,3.0,0.0
1404,64.0,0.0,30.0,0.0,0.0
1405,64.0,30.0,30.0,1.0,0.0
1406,49.0,0.0,30.0,5.0,0.0
1407,66.0,60.0,30.0,1.0,0.0
1408,51.0,0.0,30.0,5.0,0.0
1409,66.0,0.0,30.0,0.0,0.0
1410,59.0,0.0,60.0,3.0,0.0
1411,64.0,0.0,60.0,2.0,0.0
1412,68.0,60.0,60.0,0.0,0.0
1413,68.0,0.0,60.0,1.0,0.0
1414,52.0,0.0,60.0,5.0,0.0
1415,64.0,0.0,120.0,5.0,0.0
1416,68.0,0.0,60.0,2.0,0.0
1417,64.0,0.0,60.0,3.0,0.0
1418,73.0,0.0,60.0,1.0,0.0
1419,73.0,60.0,60.0,0.0,0.0
1420,70.0,0.0,60.0,0.0,0.0
1421,66.0,0.0,120.0,2.0,0.0
1422,70.0,60.0,60.0,1.0,0.0
1423,61.0,0.0,60.0,3.0,0.0
1424,71.0,0.0,60.0,1.0,0.0
1425,63.0,0.0,60.0,5.0,0.0
1426,71.0,60.0,60.0,0.0,0.0
1427,66.0,0.0,120.0,3.0,0.0
1428,76.0,0.0,60.0,0.0,0.0
1429,76.0,0.0,60.0,1.0,0.0
1430,73.0,60.0,60.0,2.0,0.0
1431,58.0,0.0,60.0,5.0,0.0
1432,59.0,0.0,60.0,5.0,0.0
1433,75.0,0.0,60.0,1.0,0.0
1434,75.0,0.0,60.0,0.0,0.0
1435,71.0,20.0,60.0,2.0,0.0
1436,66.0,0.0,60.0,3.0,0.0
1437,71.0,0.0,20.0,2.0,0.0
1438,75.0,0.0,20.0,1.0,0.0
1439,66.0,0.0,60.0,3.0,0.0
1440,75.0,20.0,20.0,0.0,0.0
1441,54.0,0.0,60.0,5.0,0.0
1442,76.0,20.0,20.0,1.0,0.0
1443,73.0,0.0,20.0,2.0,0.0
1444,76.0,0.0,20.0,0.0,0.0
1445,49.0,30.0,30.0,4.0,0.0
1446,75.0,0.0,20.0,0.0,0.0
1447,71.0,0.0,20.0,2.0,0.0
1448,75.0,5.0,20.0,1.0,0.0
1449,66.0,5.0,60.0,3.0,0.0
1450,73.0,0.0,60.0,0.0,0.0
1451,73.0,0.0,60.0,1.0,0.0
1452,42.0,0.0,60.0,5.0,0.0
1453,70.0,0.0,60.0,2.0,0.0
1454,51.0,25.0,30.0,4.0,0.0
1455,52.0,30.0,30.0,4.0,0.0
1456,54.0,30.0,30.0,4.0,0.0
1457,56.0,30.0,30.0,4.0,0.0
1458,58.0,30.0,30.0,4.0,0.0
1459,59.0,55.0,30.0,4.0,0.0
1460,61.0,25.0,60.0,4.0,0.0
1461,76.0,5.0,30.0,0.0,0.0
1462,42.0,0.0,60.0,5.0,0.0
1463,66.0,30.0,30.0,0.0,0.0
1464,54.0,25.0,60.0,4.0,0.0
1465,76.0,5.0,30.0,0.0,0.0
1466,44.0,0.0,60.0,5.0,0.0
1467,85.0,30.0,30.0,0.0,0.0
1468,54.0,25.0,60.0,4.0,0.0
1469,76.0,5.0,30.0,0.0,0.0
1470,46.0,0.0,60.0,5.0,0.0
1471,85.0,30.0,30.0,0.0,0.0
1472,52.0,25.0,60.0,4.0,0.0
1473,76.0,5.0,30.0,0.0,0.0
1474,47.0,0.0,120.0,5.0,0.0
1475,85.0,30.0,30.0,0.0,0.0
1476,51.0,25.0,60.0,4.0,0.0
1477,75.0,5.0,30.0,0.0,0.0
1478,66.0,5.0,30.0,0.0,0.0
1479,52.0,25.0,30.0,4.0,0.0
1480,75.0,5.0,30.0,0.0,0.0
1481,54.0,25.0,30.0,4.0,0.0
1482,85.0,5.0,30.0,0.0,0.0
1483,56.0,25.0,30.0,4.0,0.0
1484,75.0,5.0,30.0,0.0,0.0
1485,58.0,25.0,30.0,4.0,0.0
1486,85.0,5.0,30.0,0.0,0.0
1487,59.0,25.0,30.0,4.0,0.0
1488,75.0,5.0,30.0,0.0,0.0
1489,61.0,25.0,30.0,4.0,0.0
1490,83.0,30.0,30.0,0.0,0.0
1491,63.0,25.0,60.0,4.0,0.0
1492,75.0,5.0,30.0,0.0,0.0
1493,44.0,5.0,60.0,5.0,0.0
1494,68.0,30.0,30.0,0.0,0.0
1495,56.0,25.0,60.0,4.0,0.0
1496,75.0,0.0,30.0,0.0,0.0
1497,83.0,30.0,30.0,0.0,0.0
1498,46.0,5.0,60.0,5.0,0.0
1499,56.0,25.0,60.0,4.0,0.0
1500,75.0,0.0,30.0,0.0,0.0
1501,47.0,0.0,60.0,5.0,0.0
1502,83.0,30.0,30.0,0.0,0.0
1503,54.0,25.0,60.0,4.0,0.0
1504,75.0,5.0,30.0,0.0,0.0
1505,83.0,30.0,30.0,0.0,0.0
1506,49.0,5.0,60.0,5.0,0.0
1507,54.0,25.0,60.0,4.0,0.0
1508,76.0,0.0,30.0,0.0,0.0
1509,73.0,30.0,30.0,0.0,0.0
1510,47.0,0.0,60.0,5.0,0.0
1511,52.0,25.0,60.0,4.0,0.0
1512,76.0,5.0,30.0,0.0,0.0
1513,49.0,30.0,60.0,5.0,0.0
1514,81.0,30.0,30.0,0.0,0.0
1515,76.0,0.0,30.0,0.0,0.0
1516,81.0,30.0,30.0,0.0,0.0
1517,54.0,0.0,60.0,5.0,0.0
1518,76.0,30.0,30.0,0.0,0.0
1519,51.0,0.0,60.0,5.0,0.0
1520,81.0,30.0,30.0,0.0,0.0
1521,66.0,30.0,60.0,4.0,0.0
1522,78.0,0.0,30.0,0.0,0.0
1523,71.0,30.0,30.0,0.0,0.0
1524,59.0,0.0,120.0,4.0,0.0
1525,47.0,30.0,60.0,5.0,0.0
1526,78.0,0.0,30.0,0.0,0.0
1527,81.0,30.0,30.0,0.0,0.0
1528,49.0,0.0,60.0,5.0,0.0
1529,78.0,15.0,30.0,0.0,0.0
1530,54.0,15.0,15.0,4.0,0.0
1531,81.0,0.0,30.0,0.0,0.0
1532,51.0,0.0,60.0,5.0,0.0
1533,56.0,30.0,15.0,4.0,0.0
1534,57.0,0.0,30.0,4.0,0.0
1535,78.0,30.0,30.0,0.0,0.0
1536,52.0,30.0,120.0,5.0,0.0
1537,56.0,30.0,60.0,4.0,0.0
1538,80.0,30.0,30.0,0.0,0.0
1539,78.0,0.0,30.0,0.0,0.0
1540,71.0,30.0,30.0,0.0,0.0
1541,58.0,0.0,30.0,4.0,0.0
1542,60.0,0.0,30.0,4.0,0.0
1543,78.0,0.0,30.0,0.0,0.0
1544,80.0,30.0,30.0,0.0,0.0
1545,61.0,0.0,30.0,4.0,0.0
1546,63.0,0.0,30.0,4.0,0.0
1547,78.0,30.0,30.0,0.0,0.0
1548,80.0,0.0,30.0,0.0,0.0
1549,64.0,30.0,30.0,4.0,0.0
1550,78.0,30.0,30.0,0.0,0.0
1551,66.0,0.0,30.0,4.0,0.0
1552,68.0,0.0,60.0,4.0,0.0
1553,85.0,30.0,30.0,0.0,0.0
1554,76.0,30.0,30.0,0.0,0.0
1555,49.0,0.0,60.0,5.0,0.0
1556,61.0,0.0,60.0,4.0,0.0
1557,68.0,30.0,30.0,0.0,0.0
1558,76.0,30.0,30.0,0.0,0.0
1559,85.0,30.0,30.0,0.0,0.0
1560,61.0,30.0,60.0,4.0,0.0
1561,51.0,0.0,60.0,5.0,0.0
1562,76.0,0.0,30.0,0.0,0.0
1563,85.0,30.0,30.0,0.0,0.0
1564,52.0,0.0,60.0,5.0,0.0
1565,59.0,30.0,60.0,4.0,0.0
1566,76.0,0.0,30.0,0.0,0.0
1567,85.0,30.0,30.0,0.0,0.0
1568,54.0,30.0,60.0,5.0,0.0
1569,59.0,0.0,60.0,4.0,0.0
1570,76.0,0.0,30.0,0.0,0.0
1571,56.0,0.0,60.0,5.0,0.0
1572,58.0,0.0,60.0,4.0,0.0
1573,66.0,30.0,30.0,0.0,0.0
1574,76.0,60.0,30.0,0.0,0.0
1575,61.0,30.0,60.0,4.0,0.0
1576,85.0,0.0,60.0,0.0,0.0
1577,54.0,0.0,60.0,5.0,0.0
1578,52.0,0.0,60.0,5.0,0.0
1579,63.0,30.0,30.0,4.0,0.0
1580,64.0,30.0,30.0,4.0,0.0
1581,51.0,30.0,60.0,5.0,0.0
1582,66.0,30.0,30.0,4.0,0.0
1583,68.0,0.0,30.0,4.0,0.0
1584,49.0,30.0,60.0,5.0,0.0
1585,66.0,30.0,30.0,4.0,0.0
1586,64.0,0.0,30.0,4.0,0.0
1587,47.0,0.0,60.0,5.0,0.0
1588,63.0,30.0,30.0,4.0,0.0
1589,61.0,30.0,30.0,4.0,0.0
1590,49.0,0.0,30.0,5.0,0.0
1591,59.0,30.0,30.0,4.0,0.0
1592,58.0,0.0,30.0,4.0,0.0
1593,51.0,30.0,30.0,5.0,0.0
1594,52.0,30.0,30.0,5.0,0.0
1595,56.0,30.0,60.0,4.0,0.0
1596,54.0,0.0,30.0,5.0,0.0
1597,52.0,30.0,30.0,5.0,0.0
1598,59.0,30.0,60.0,4.0,0.0
1599,51.0,0.0,30.0,5.0,0.0
1600,49.0,30.0,30.0,5.0,0.0
1601,64.0,0.0,180.0,4.0,0.0
1602,47.0,30.0,30.0,5.0,0.0
1603,46.0,30.0,30.0,5.0,0.0
1604,44.0,60.0,30.0,5.0,0.0
1605,42.0,30.0,60.0,5.0,0.0
1606,63.0,0.0,30.0,4.0,0.0
1607,44.0,30.0,30.0,5.0,0.0
1608,46.0,30.0,30.0,5.0,0.0
1609,61.0,0.0,30.0,4.0,0.0
1610,47.0,30.0,30.0,5.0,0.0
1611,63.0,0.0,60.0,4.0,0.0
1612,49.0,30.0,30.0,5.0,0.0
1613,51.0,30.0,30.0,5.0,0.0
1614,54.0,0.0,60.0,4.0,0.0
1615,47.0,30.0,30.0,5.0,0.0
1616,54.0,0.0,60.0,4.0,0.0
1617,49.0,30.0,30.0,5.0,0.0
1618,47.0,30.0,30.0,5.0,0.0
1619,49.0,0.0,30.0,5.0,0.0
1620,52.0,0.0,60.0,4.0,0.0
1621,76.0,30.0,30.0,0.0,0.0
1622,51.0,30.0,30.0,5.0,0.0
1623,78.0,0.0,30.0,0.0,0.0
1624,52.0,30.0,30.0,5.0,0.0
1625,80.0,0.0,30.0,0.0,0.0
1626,54.0,0.0,30.0,5.0,0.0
1627,82.0,30.0,30.0,0.0,0.0
1628,56.0,0.0,30.0,5.0,0.0
1629,83.0,30.0,30.0,0.0,0.0
1630,80.0,0.0,30.0,0.0,0.0
1631,52.0,30.0,30.0,5.0,0.0
1632,54.0,0.0,60.0,5.0,0.0
1633,82.0,30.0,30.0,0.0,0.0
1634,76.0,30.0,30.0,0.0,0.0
1635,68.0,30.0,30.0,0.0,0.0
1636,42.0,30.0,60.0,5.0,0.0
1637,76.0,0.0,30.0,0.0,0.0
1638,82.0,30.0,30.0,0.0,0.0
1639,54.0,30.0,60.0,4.0,0.0
1640,76.0,0.0,30.0,0.0,0.0
1641,83.0,30.0,30.0,0.0,0.0
1642,56.0,0.0,60.0,4.0,0.0
1643,76.0,30.0,30.0,0.0,0.0
1644,85.0,30.0,30.0,0.0,0.0
1645,58.0,0.0,60.0,4.0,0.0
1646,54.0,30.0,60.0,5.0,0.0
1647,76.0,0.0,30.0,0.0,0.0
1648,59.0,0.0,60.0,4.0,0.0
1649,87.0,30.0,30.0,0.0,0.0
1650,42.0,0.0,60.0,5.0,0.0
1651,76.0,30.0,30.0,0.0,0.0
1652,85.0,30.0,30.0,0.0,0.0
1653,58.0,30.0,60.0,4.0,0.0
1654,76.0,0.0,30.0,0.0,0.0
1655,83.0,30.0,30.0,0.0,0.0
1656,56.0,0.0,60.0,4.0,0.0
1657,76.0,30.0,30.0,0.0,0.0
1658,54.0,0.0,60.0,5.0,0.0
1659,82.0,30.0,30.0,0.0,0.0
1660,54.0,0.0,30.0,4.0,0.0
1661,76.0,0.0,30.0,0.0,0.0
1662,56.0,30.0,30.0,4.0,0.0
1663,42.0,0.0,60.0,5.0,0.0
1664,66.0,30.0,30.0,0.0,0.0
1665,58.0,0.0,30.0,4.0,0.0
1666,76.0,0.0,30.0,0.0,0.0
1667,59.0,30.0,30.0,4.0,0.0
1668,66.0,0.0,60.0,2.0,0.0
1669,61.0,0.0,60.0,4.0,0.0
1670,66.0,0.0,60.0,3.0,0.0
1671,66.0,0.0,60.0,1.0,0.0
1672,82.0,30.0,30.0,0.0,0.0
1673,76.0,30.0,30.0,0.0,0.0
1674,68.0,0.0,60.0,2.0,0.0
1675,68.0,0.0,60.0,1.0,0.0
1676,83.0,30.0,30.0,0.0,0.0
1677,63.0,0.0,60.0,4.0,0.0
1678,68.0,30.0,60.0,3.0,0.0
1679,76.0,0.0,30.0,0.0,0.0
1680,85.0,30.0,30.0,0.0,0.0
1681,70.0,0.0,60.0,1.0,0.0
1682,70.0,0.0,60.0,3.0,0.0
1683,70.0,0.0,60.0,2.0,0.0
1684,64.0,30.0,60.0,4.0,0.0
1685,54.0,0.0,60.0,5.0,0.0
1686,76.0,0.0,30.0,0.0,0.0
1687,87.0,0.0,30.0,0.0,0.0
1688,42.0,0.0,60.0,5.0,0.0
1689,71.0,30.0,60.0,3.0,0.0
1690,71.0,0.0,60.0,2.0,0.0
1691,71.0,0.0,60.0,1.0,0.0
1692,66.0,30.0,30.0,4.0,0.0
1693,76.0,0.0,30.0,0.0,0.0
1694,63.0,0.0,30.0,4.0,0.0
1695,64.0,0.0,60.0,4.0,0.0
1696,70.0,0.0,60.0,1.0,0.0
1697,70.0,0.0,60.0,3.0,0.0
1698,85.0,30.0,30.0,0.0,0.0
1699,70.0,30.0,60.0,2.0,0.0
1700,76.0,0.0,30.0,0.0,0.0
1701,68.0,0.0,60.0,1.0,0.0
1702,68.0,0.0,60.0,2.0,0.0
1703,68.0,0.0,60.0,3.0,0.0
1704,66.0,0.0,30.0,4.0,0.0
1705,83.0,30.0,30.0,0.0,0.0
1706,63.0,30.0,30.0,4.0,0.0
1707,76.0,0.0,30.0,0.0,0.0
1708,66.0,0.0,120.0,1.0,0.0
1709,66.0,30.0,120.0,2.0,0.0
1710,66.0,0.0,120.0,3.0,0.0
1711,82.0,30.0,30.0,0.0,0.0
1712,64.0,26.0,180.0,4.0,0.0
1713,76.0,30.0,30.0,0.0,0.0
1714,54.0,0.0,30.0,5.0,0.0
1715,66.0,30.0,30.0,0.0,0.0
1716,56.0,0.0,30.0,5.0,0.0
1717,76.0,0.0,30.0,0.0,0.0
1718,54.0,30.0,30.0,5.0,0.0
1719,82.0,2.0,60.0,0.0,0.0
1720,52.0,0.0,30.0,5.0,0.0
1721,66.0,2.0,30.0,4.0,0.0
1722,51.0,30.0,30.0,5.0,0.0
1723,49.0,2.0,30.0,5.0,0.0
1724,64.0,26.0,30.0,4.0,0.0
1725,63.0,32.0,30.0,4.0,0.0
1726,47.0,0.0,60.0,5.0,0.0
1727,61.0,30.0,30.0,4.0,0.0
1728,49.0,4.0,30.0,5.0,0.0
1729,59.0,26.0,30.0,4.0,0.0
1730,51.0,5.0,30.0,5.0,0.0
1731,58.0,55.0,30.0,4.0,0.0
1732,52.0,4.0,60.0,5.0,0.0
1733,56.0,52.0,60.0,4.0,0.0
1734,61.0,4.0,60.0,4.0,0.0
1735,49.0,60.0,60.0,5.0,0.0
1736,54.0,0.0,60.0,5.0,0.0
1737,58.0,30.0,60.0,4.0,0.0
1738,54.0,0.0,60.0,4.0,0.0
1739,56.0,30.0,30.0,5.0,0.0
1740,58.0,30.0,30.0,5.0,0.0
1741,59.0,0.0,60.0,5.0,0.0
1742,63.0,30.0,30.0,4.0,0.0
1743,61.0,30.0,30.0,4.0,0.0
1744,56.0,0.0,60.0,5.0,0.0
1745,64.0,30.0,30.0,4.0,0.0
1746,63.0,30.0,30.0,4.0,0.0
1747,52.0,30.0,60.0,5.0,0.0
1748,61.0,30.0,30.0,4.0,0.0
1749,58.0,0.0,30.0,4.0,0.0
1750,49.0,0.0,60.0,5.0,0.0
1751,59.0,30.0,30.0,4.0,0.0
1752,56.0,60.0,30.0,4.0,0.0
1753,58.0,30.0,90.0,4.0,0.0
1754,54.0,30.0,60.0,5.0,0.0
1755,42.0,0.0,60.0,5.0,0.0
1756,59.0,60.0,30.0,4.0,0.0
1757,71.0,60.0,60.0,0.0,0.0
1758,71.0,0.0,60.0,1.0,0.0
1759,59.0,60.0,120.0,4.0,0.0
1760,47.0,0.0,120.0,5.0,0.0
1761,66.0,0.0,120.0,2.0,0.0
1762,63.0,0.0,120.0,3.0,0.0
1763,66.0,60.0,120.0,0.0,0.0
1764,66.0,0.0,120.0,1.0,0.0
1765,66.0,0.0,120.0,2.0,0.0
1766,46.0,0.0,120.0,5.0,0.0
1767,61.0,0.0,120.0,3.0,0.0
1768,64.0,0.0,60.0,0.0,0.0
1769,64.0,60.0,60.0,1.0,0.0
1770,59.0,60.0,120.0,3.0,0.0
1771,47.0,0.0,60.0,5.0,0.0
1772,66.0,0.0,120.0,2.0,0.0
1773,63.0,0.0,60.0,0.0,0.0
1774,63.0,30.0,60.0,1.0,0.0
1775,64.0,0.0,30.0,1.0,0.0
1776,64.0,30.0,30.0,0.0,0.0
1777,49.0,0.0,30.0,5.0,0.0
1778,51.0,0.0,30.0,5.0,0.0
1779,66.0,0.0,30.0,1.0,0.0
1780,66.0,0.0,30.0,0.0,0.0
1781,52.0,60.0,60.0,5.0,0.0
1782,64.0,0.0,60.0,2.0,0.0
1783,68.0,0.0,60.0,1.0,0.0
1784,68.0,0.0,60.0,0.0,0.0
1785,59.0,0.0,60.0,3.0,0.0
1786,73.0,0.0,60.0,0.0,0.0
1787,64.0,0.0,60.0,3.0,0.0
1788,68.0,60.0,60.0,2.0,0.0
1789,73.0,0.0,60.0,1.0,0.0
1790,64.0,60.0,120.0,5.0,0.0
1791,70.0,0.0,60.0,0.0,0.0
1792,66.0,0.0,120.0,2.0,0.0
1793,61.0,0.0,60.0,3.0,0.0
1794,70.0,0.0,60.0,1.0,0.0
1795,71.0,60.0,60.0,1.0,0.0
1796,71.0,0.0,60.0,0.0,0.0
1797,66.0,0.0,120.0,3.0,0.0
1798,63.0,0.0,60.0,5.0,0.0
1799,76.0,0.0,60.0,0.0,0.0
1800,58.0,0.0,60.0,5.0,0.0
1801,73.0,60.0,60.0,2.0,0.0
1802,76.0,0.0,60.0,1.0,0.0
1803,59.0,0.0,60.0,5.0,0.0
1804,66.0,0.0,60.0,3.0,0.0
1805,71.0,0.0,60.0,2.0,0.0
1806,75.0,20.0,60.0,1.0,0.0
1807,75.0,0.0,60.0,0.0,0.0
1808,71.0,0.0,20.0,2.0,0.0
1809,66.0,0.0,60.0,5.0,0.0
1810,66.0,0.0,60.0,3.0,0.0
1811,75.0,0.0,20.0,1.0,0.0
1812,75.0,20.0,20.0,0.0,0.0
1813,76.0,0.0,20.0,0.0,0.0
1814,76.0,0.0,20.0,1.0,0.0
1815,73.0,20.0,20.0,2.0,0.0
1816,75.0,0.0,20.0,1.0,0.0
1817,75.0,0.0,20.0,0.0,0.0
1818,71.0,60.0,20.0,2.0,0.0
1819,73.0,0.0,60.0,0.0,0.0
1820,66.0,0.0,60.0,3.0,0.0
1821,54.0,0.0,60.0,5.0,0.0
1822,73.0,180.0,60.0,1.0,0.0
1823,70.0,0.0,60.0,2.0,0.0
1824,73.0,0.0,60.0,1.0,0.0
1825,52.0,0.0,120.0,5.0,0.0
1826,73.0,60.0,60.0,0.0,0.0
1827,68.0,0.0,120.0,2.0,0.0
1828,61.0,60.0,120.0,3.0,0.0
1829,68.0,60.0,120.0,1.0,0.0
1830,68.0,0.0,120.0,0.0,0.0
1831,63.0,0.0,120.0,3.0,0.0
1832,48.0,0.0,120.0,5.0,0.0
1833,68.0,0.0,120.0,2.0,0.0
1834,66.0,60.0,60.0,0.0,0.0
1835,66.0,0.0,60.0,1.0,0.0
1836,64.0,0.0,60.0,1.0,0.0
1837,68.0,0.0,120.0,2.0,0.0
1838,61.0,0.0,120.0,3.0,0.0
1839,49.0,0.0,60.0,5.0,0.0
1840,64.0,30.0,60.0,0.0,0.0
1841,51.0,0.0,30.0,5.0,0.0
1842,66.0,0.0,30.0,1.0,0.0
1843,66.0,30.0,30.0,0.0,0.0
1844,52.0,0.0,30.0,5.0,0.0
1845,68.0,15.0,30.0,0.0,0.0
1846,68.0,0.0,30.0,1.0,0.0
1847,61.0,0.0,60.0,3.0,0.0
1848,69.0,0.0,15.0,0.0,0.0
1849,69.0,15.0,15.0,1.0,0.0
1850,66.0,0.0,60.0,2.0,0.0
1851,54.0,0.0,60.0,5.0,0.0
1852,68.0,0.0,15.0,0.0,0.0
1853,68.0,30.0,15.0,1.0,0.0
1854,66.0,0.0,30.0,0.0,0.0
1855,66.0,60.0,30.0,1.0,0.0
1856,69.0,0.0,60.0,2.0,0.0
1857,75.0,60.0,60.0,1.0,0.0
1858,75.0,0.0,60.0,0.0,0.0
1859,66.0,0.0,60.0,3.0,0.0
1860,63.0,60.0,60.0,3.0,0.0
1861,72.0,0.0,60.0,0.0,0.0
1862,68.0,3.0,120.0,2.0,0.0
1863,72.0,0.0,60.0,1.0,0.0
1864,66.0,0.0,60.0,5.0,0.0
1865,68.0,0.0,120.0,3.0,0.0
1866,73.0,0.0,60.0,0.0,0.0
1867,73.0,0.0,60.0,1.0,0.0
1868,64.0,57.0,60.0,5.0,0.0
1869,78.0,60.0,60.0,0.0,0.0
1870,60.0,0.0,60.0,5.0,0.0
1871,75.0,0.0,60.0,2.0,0.0
1872,78.0,0.0,60.0,1.0,0.0
1873,73.0,0.0,60.0,2.0,0.0
1874,68.0,20.0,60.0,3.0,0.0
1875,76.0,0.0,60.0,1.0,0.0
1876,61.0,0.0,60.0,5.0,0.0
1877,76.0,0.0,60.0,0.0,0.0
1878,73.0,20.0,20.0,2.0,0.0
1879,68.0,0.0,60.0,3.0,0.0
1880,76.0,0.0,20.0,0.0,0.0
1881,76.0,0.0,20.0,1.0,0.0
1882,68.0,0.0,60.0,5.0,0.0
1883,78.0,0.0,20.0,0.0,0.0
1884,75.0,0.0,20.0,2.0,0.0
1885,78.0,20.0,20.0,1.0,0.0
1886,73.0,0.0,20.0,2.0,0.0
1887,76.0,0.0,20.0,1.0,0.0
1888,76.0,60.0,20.0,0.0,0.0
1889,56.0,60.0,60.0,5.0,0.0
1890,68.0,0.0,60.0,3.0,0.0
1891,75.0,0.0,60.0,1.0,0.0
1892,75.0,0.0,60.0,0.0,0.0
1893,72.0,0.0,60.0,2.0,0.0
1894,75.0,30.0,30.0,0.0,0.0
1895,73.0,30.0,30.0,0.0,0.0
1896,75.0,30.0,30.0,0.0,0.0
1897,61.0,0.0,60.0,5.0,0.0
1898,76.0,30.0,30.0,0.0,0.0
1899,68.0,30.0,30.0,0.0,0.0
1900,61.0,30.0,30.0,0.0,0.0
1901,49.0,0.0,60.0,5.0,0.0
1902,68.0,15.0,30.0,0.0,0.0
1903,76.0,15.0,15.0,0.0,0.0
1904,76.0,15.0,60.0,2.0,0.0
1905,80.0,0.0,60.0,1.0,0.0
1906,73.0,0.0,60.0,3.0,0.0
1907,73.0,15.0,15.0,0.0,0.0
1908,75.0,15.0,15.0,0.0,0.0
1909,76.0,0.0,15.0,0.0,0.0
1910,61.0,0.0,60.0,3.0,0.0
1911,68.0,30.0,60.0,2.0,0.0
1912,76.0,0.0,60.0,1.0,0.0
1913,78.0,15.0,15.0,0.0,0.0
1914,80.0,15.0,15.0,0.0,0.0
1915,82.0,15.0,15.0,0.0,0.0
1916,83.0,0.0,15.0,0.0,0.0
1917,52.0,0.0,60.0,5.0,0.0
1918,85.0,30.0,30.0,0.0,0.0
1919,76.0,30.0,30.0,0.0,0.0
1920,68.0,30.0,30.0,0.0,0.0
1921,49.0,30.0,60.0,5.0,0.0
1922,76.0,0.0,30.0,0.0,0.0
1923,64.0,0.0,60.0,3.0,0.0
1924,80.0,0.0,60.0,2.0,0.0
1925,85.0,30.0,60.0,1.0,0.0
1926,85.0,30.0,30.0,0.0,0.0
1927,76.0,0.0,30.0,0.0,0.0
1928,83.0,30.0,30.0,0.0,0.0
1929,76.0,0.0,60.0,2.0,0.0
1930,61.0,0.0,60.0,3.0,0.0
1931,80.0,30.0,60.0,1.0,0.0
1932,76.0,0.0,30.0,0.0,0.0
1933,54.0,30.0,60.0,5.0,0.0
1934,82.0,30.0,30.0,0.0,0.0
1935,76.0,0.0,30.0,0.0,0.0
1936,66.0,30.0,30.0,0.0,0.0
1937,42.0,15.0,60.0,5.0,0.0
1938,76.0,0.0,30.0,0.0,0.0
1939,82.0,0.0,60.0,1.0,0.0
1940,66.0,15.0,60.0,3.0,0.0
1941,73.0,0.0,60.0,2.0,0.0
1942,82.0,15.0,15.0,0.0,0.0
1943,78.0,15.0,15.0,0.0,0.0
1944,80.0,15.0,15.0,0.0,0.0
1945,82.0,0.0,15.0,0.0,0.0
1946,54.0,0.0,60.0,3.0,0.0
1947,78.0,30.0,60.0,1.0,0.0
1948,70.0,0.0,60.0,2.0,0.0
1949,83.0,15.0,15.0,0.0,0.0
1950,85.0,15.0,15.0,0.0,0.0
1951,87.0,15.0,15.0,0.0,0.0
1952,88.0,0.0,15.0,0.0,0.0
1953,90.0,30.0,30.0,0.0,0.0
1954,58.0,0.0,60.0,5.0,0.0
1955,78.0,30.0,30.0,0.0,0.0
1956,66.0,30.0,30.0,0.0,0.0
1957,54.0,30.0,60.0,5.0,0.0
1958,78.0,0.0,30.0,0.0,0.0
1959,90.0,30.0,30.0,0.0,0.0
1960,85.0,0.0,60.0,1.0,0.0
1961,78.0,0.0,60.0,2.0,0.0
1962,70.0,30.0,60.0,3.0,0.0
1963,78.0,0.0,30.0,0.0,0.0
1964,73.0,0.0,60.0,2.0,0.0
1965,66.0,0.0,60.0,3.0,0.0
1966,82.0,30.0,60.0,1.0,0.0
1967,88.0,30.0,30.0,0.0,0.0
1968,78.0,0.0,30.0,0.0,0.0
1969,87.0,30.0,30.0,0.0,0.0
1970,59.0,30.0,60.0,5.0,0.0
1971,78.0,0.0,30.0,0.0,0.0
1972,47.0,0.0,60.0,5.0,0.0
1973,71.0,0.0,60.0,3.0,0.0
1974,75.0,0.0,60.0,2.0,0.0
1975,78.0,30.0,60.0,1.0,0.0
1976,71.0,30.0,30.0,0.0,0.0
1977,78.0,0.0,30.0,0.0,0.0
1978,87.0,30.0,30.0,0.0,0.0
1979,78.0,0.0,60.0,2.0,0.0
1980,75.0,30.0,60.0,3.0,0.0
1981,83.0,0.0,60.0,1.0,0.0
1982,78.0,0.0,30.0,0.0,0.0
1983,75.0,0.0,60.0,2.0,0.0
1984,87.0,30.0,30.0,0.0,0.0
1985,71.0,0.0,60.0,3.0,0.0
1986,87.0,30.0,60.0,1.0,0.0
1987,78.0,0.0,30.0,0.0,0.0
1988,71.0,0.0,60.0,2.0,0.0
1989,80.0,0.0,60.0,1.0,0.0
1990,87.0,30.0,30.0,0.0,0.0
1991,64.0,0.0,60.0,3.0,0.0
1992,80.0,30.0,30.0,0.0,0.0
1993,64.0,30.0,30.0,5.0,0.0
1994,71.0,0.0,30.0,0.0,0.0
1995,63.0,0.0,30.0,5.0,0.0
1996,80.0,30.0,30.0,0.0,0.0
1997,61.0,30.0,60.0,5.0,0.0
1998,85.0,30.0,30.0,0.0,0.0
1999,80.0,0.0,30.0,0.0,0.0
2000,87.0,30.0,30.0,0.0,0.0
2001,59.0,0.0,60.0,5.0,0.0
2002,80.0,30.0,30.0,0.0,0.0
2003,58.0,0.0,60.0,5.0,0.0
2004,85.0,30.0,30.0,0.0,0.0
2005,80.0,30.0,30.0,0.0,0.0
2006,70.0,0.0,60.0,3.0,0.0
2007,46.0,0.0,60.0,5.0,0.0
2008,80.0,0.0,60.0,1.0,0.0
2009,73.0,0.0,60.0,2.0,0.0
2010,70.0,30.0,30.0,0.0,0.0
2011,80.0,30.0,30.0,0.0,0.0
2012,76.0,0.0,60.0,2.0,0.0
2013,73.0,0.0,60.0,3.0,0.0
2014,85.0,30.0,30.0,0.0,0.0
2015,82.0,0.0,60.0,1.0,0.0
2016,80.0,30.0,30.0,0.0,0.0
2017,73.0,0.0,60.0,2.0,0.0
2018,85.0,30.0,60.0,1.0,0.0
2019,85.0,30.0,30.0,0.0,0.0
2020,70.0,0.0,60.0,3.0,0.0
2021,80.0,0.0,30.0,0.0,0.0
2022,85.0,30.0,30.0,0.0,0.0
2023,70.0,0.0,60.0,2.0,0.0
2024,63.0,30.0,60.0,3.0,0.0
2025,78.0,0.0,60.0,1.0,0.0
2026,78.0,0.0,30.0,0.0,0.0
2027,70.0,0.0,30.0,0.0,0.0
2028,63.0,30.0,30.0,5.0,0.0
2029,78.0,0.0,30.0,0.0,0.0
2030,61.0,30.0,30.0,5.0,0.0
2031,59.0,30.0,60.0,5.0,0.0
2032,87.0,30.0,30.0,0.0,0.0
2033,78.0,0.0,30.0,0.0,0.0
2034,58.0,30.0,60.0,5.0,0.0
2035,85.0,30.0,30.0,0.0,0.0
2036,78.0,0.0,30.0,0.0,0.0
2037,56.0,0.0,60.0,5.0,0.0
2038,83.0,30.0,30.0,0.0,0.0
2039,78.0,30.0,30.0,0.0,0.0
2040,68.0,0.0,60.0,3.0,0.0
2041,68.0,30.0,30.0,0.0,0.0
2042,44.0,0.0,60.0,5.0,0.0
2043,78.0,0.0,60.0,1.0,0.0
2044,71.0,30.0,60.0,2.0,0.0
2045,78.0,0.0,30.0,0.0,0.0
2046,80.0,0.0,60.0,1.0,0.0
2047,83.0,30.0,30.0,0.0,0.0
2048,71.0,0.0,60.0,3.0,0.0
2049,75.0,30.0,60.0,2.0,0.0
2050,78.0,0.0,30.0,0.0,0.0
2051,71.0,0.0,60.0,2.0,0.0
2052,83.0,30.0,30.0,0.0,0.0
2053,68.0,30.0,60.0,3.0,0.0
2054,83.0,0.0,60.0,1.0,0.0
2055,78.0,0.0,30.0,0.0,0.0
2056,61.0,30.0,360.0,3.0,0.0
2057,68.0,0.0,240.0,2.0,0.0
2058,76.0,0.0,360.0,1.0,0.0
2059,83.0,30.0,30.0,0.0,0.0
2060,76.0,30.0,30.0,0.0,0.0
2061,61.0,0.0,30.0,5.0,0.0
2062,68.0,30.0,30.0,0.0,0.0
2063,59.0,30.0,30.0,5.0,0.0
2064,76.0,0.0,30.0,0.0,0.0
2065,85.0,30.0,30.0,0.0,0.0
2066,58.0,30.0,60.0,5.0,0.0
2067,76.0,0.0,30.0,0.0,0.0
2068,56.0,0.0,60.0,5.0,0.0
2069,83.0,30.0,30.0,0.0,0.0
2070,76.0,30.0,30.0,0.0,0.0
2071,82.0,30.0,30.0,0.0,0.0
2072,73.0,0.0,120.0,2.0,0.0
2073,54.0,30.0,60.0,5.0,0.0
2074,76.0,0.0,30.0,0.0,0.0
2075,42.0,0.0,60.0,5.0,0.0
2076,66.0,30.0,30.0,0.0,0.0
2077,76.0,0.0,30.0,0.0,0.0
2078,82.0,30.0,30.0,0.0,0.0
2079,66.0,30.0,60.0,1.0,0.0
2080,76.0,0.0,30.0,0.0,0.0
2081,83.0,30.0,30.0,0.0,0.0
2082,68.0,0.0,60.0,1.0,0.0
2083,76.0,30.0,30.0,0.0,0.0
2084,85.0,30.0,30.0,0.0,0.0
2085,70.0,0.0,60.0,1.0,0.0
2086,76.0,30.0,30.0,0.0,0.0
2087,71.0,30.0,60.0,1.0,0.0
2088,87.0,30.0,30.0,0.0,0.0
2089,76.0,0.0,30.0,0.0,0.0
2090,85.0,30.0,30.0,0.0,0.0
2091,70.0,30.0,60.0,1.0,0.0
2092,76.0,0.0,30.0,0.0,0.0
2093,68.0,0.0,60.0,1.0,0.0
2094,83.0,30.0,30.0,0.0,0.0
2095,76.0,30.0,30.0,0.0,0.0
2096,66.0,0.0,120.0,1.0,0.0
2097,82.0,30.0,30.0,0.0,0.0
2098,54.0,30.0,60.0,5.0,0.0
2099,76.0,0.0,30.0,0.0,0.0
2100,42.0,0.0,60.0,5.0,0.0
2101,66.0,30.0,30.0,0.0,0.0
2102,76.0,30.0,30.0,0.0,0.0
2103,82.0,30.0,30.0,0.0,0.0
2104,76.0,0.0,60.0,1.0,0.0
2105,54.0,0.0,60.0,3.0,0.0
2106,73.0,0.0,60.0,2.0,0.0
2107,76.0,30.0,30.0,0.0,0.0
2108,56.0,0.0,60.0,3.0,0.0
2109,75.0,0.0,60.0,1.0,0.0
2110,83.0,30.0,30.0,0.0,0.0
2111,71.0,30.0,60.0,2.0,0.0
2112,76.0,0.0,30.0,0.0,0.0
2113,73.0,0.0,60.0,1.0,0.0
2114,85.0,30.0,30.0,0.0,0.0
2115,70.0,30.0,60.0,2.0,0.0
2116,58.0,0.0,60.0,3.0,0.0
2117,76.0,0.0,30.0,0.0,0.0
2118,68.0,0.0,60.0,2.0,0.0
2119,71.0,0.0,60.0,1.0,0.0
2120,59.0,0.0,60.0,3.0,0.0
2121,87.0,30.0,30.0,0.0,0.0
2122,76.0,30.0,30.0,0.0,0.0
2123,70.0,30.0,60.0,2.0,0.0
2124,58.0,0.0,60.0,3.0,0.0
2125,73.0,0.0,60.0,1.0,0.0
2126,85.0,30.0,30.0,0.0,0.0
2127,76.0,0.0,30.0,0.0,0.0
2128,56.0,0.0,60.0,3.0,0.0
2129,83.0,30.0,30.0,0.0,0.0
2130,75.0,0.0,60.0,1.0,0.0
2131,71.0,0.0,60.0,2.0,0.0
2132,76.0,30.0,30.0,0.0,0.0
2133,54.0,0.0,60.0,3.0,0.0
2134,82.0,30.0,30.0,0.0,0.0
2135,73.0,30.0,60.0,2.0,0.0
2136,76.0,0.0,60.0,1.0,0.0
2137,76.0,0.0,30.0,0.0,0.0
2138,71.0,30.0,30.0,2.0,0.0
2139,75.0,0.0,30.0,0.0,0.0
2140,54.0,0.0,60.0,5.0,0.0
2141,66.0,0.0,60.0,3.0,0.0
2142,75.0,0.0,30.0,1.0,0.0
2143,73.0,0.0,30.0,0.0,0.0
2144,70.0,0.0,30.0,2.0,0.0
2145,73.0,30.0,30.0,1.0,0.0
2146,71.0,0.0,60.0,2.0,0.0
2147,59.0,0.0,60.0,5.0,0.0
2148,75.0,30.0,30.0,0.0,0.0
2149,75.0,30.0,60.0,1.0,0.0
2150,66.0,0.0,60.0,3.0,0.0
2151,83.0,0.0,30.0,0.0,0.0
2152,68.0,0.0,60.0,3.0,0.0
2153,83.0,0.0,60.0,1.0,0.0
2154,52.0,0.0,60.0,5.0,0.0
2155,73.0,30.0,30.0,0.0,0.0
2156,71.0,30.0,60.0,2.0,0.0
2157,71.0,0.0,30.0,0.0,0.0
2158,66.0,30.0,30.0,0.0,0.0
2159,71.0,30.0,60.0,2.0,0.0
2160,66.0,0.0,240.0,3.0,0.0
2161,75.0,30.0,120.0,1.0,0.0
2162,54.0,0.0,120.0,5.0,0.0
2163,73.0,0.0,30.0,0.0,0.0
2164,66.0,20.0,120.0,2.0,0.0
2165,83.0,30.0,30.0,0.0,0.0
2166,80.0,0.0,30.0,0.0,0.0
2167,82.0,10.0,30.0,0.0,0.0
2168,42.0,0.0,120.0,5.0,0.0
2169,73.0,20.0,30.0,1.0,0.0
2170,85.0,0.0,30.0,0.0,0.0
2171,75.0,10.0,30.0,1.0,0.0
2172,64.0,60.0,60.0,2.0,0.0
2173,78.0,30.0,30.0,0.0,0.0
2174,73.0,0.0,30.0,1.0,0.0
2175,82.0,0.0,30.0,0.0,0.0
2176,71.0,0.0,480.0,1.0,0.0
2177,47.0,0.0,480.0,5.0,0.0
2178,83.0,360.0,60.0,0.0,0.0
2179,66.0,0.0,480.0,3.0,0.0
2180,63.0,0.0,480.0,2.0,0.0
2181,71.0,60.0,360.0,0.0,0.0
