,note,step,duration,channel,velocity
0,74.0,0.0,390.0,0.0,64.0
1,71.0,0.0,390.0,0.0,64.0
2,83.0,24.0,20.0,0.0,64.0
3,66.0,0.0,390.0,0.0,64.0
4,47.0,48.0,390.0,0.0,64.0
5,81.0,192.0,20.0,0.0,64.0
6,83.0,48.0,180.0,0.0,64.0
7,86.0,48.0,40.0,0.0,64.0
8,85.0,48.0,40.0,0.0,64.0
9,83.0,0.0,40.0,0.0,64.0
10,82.0,48.0,40.0,0.0,64.0
11,83.0,48.0,40.0,0.0,64.0
12,82.0,48.0,40.0,0.0,64.0
13,83.0,24.0,40.0,0.0,64.0
14,85.0,24.0,20.0,0.0,64.0
15,83.0,24.0,20.0,0.0,64.0
16,85.0,24.0,20.0,0.0,64.0
17,83.0,24.0,20.0,0.0,64.0
18,85.0,24.0,20.0,0.0,64.0
19,82.0,24.0,20.0,0.0,64.0
20,83.0,24.0,20.0,0.0,64.0
21,85.0,240.0,20.0,0.0,64.0
22,73.0,0.0,390.0,0.0,64.0
23,70.0,0.0,390.0,0.0,64.0
24,64.0,0.0,390.0,0.0,64.0
25,79.0,48.0,240.0,0.0,64.0
26,47.0,48.0,390.0,0.0,64.0
27,81.0,48.0,40.0,0.0,64.0
28,79.0,48.0,40.0,0.0,64.0
29,78.0,0.0,40.0,0.0,64.0
30,76.0,48.0,40.0,0.0,64.0
31,78.0,48.0,40.0,0.0,64.0
32,76.0,48.0,40.0,0.0,64.0
33,78.0,24.0,40.0,0.0,64.0
34,79.0,24.0,20.0,0.0,64.0
35,78.0,24.0,20.0,0.0,64.0
36,79.0,24.0,20.0,0.0,64.0
37,78.0,24.0,20.0,0.0,64.0
38,79.0,24.0,20.0,0.0,64.0
39,76.0,24.0,20.0,0.0,64.0
40,78.0,24.0,20.0,0.0,64.0
41,79.0,192.0,20.0,0.0,64.0
42,47.0,48.0,390.0,0.0,64.0
43,66.0,0.0,390.0,0.0,64.0
44,69.0,0.0,390.0,0.0,64.0
45,72.0,0.0,390.0,0.0,64.0
46,75.0,48.0,180.0,0.0,64.0
47,71.0,48.0,40.0,0.0,64.0
48,75.0,48.0,40.0,0.0,64.0
49,73.0,48.0,40.0,0.0,64.0
50,71.0,0.0,40.0,0.0,64.0
51,78.0,48.0,40.0,0.0,64.0
52,76.0,48.0,40.0,0.0,64.0
53,75.0,48.0,40.0,0.0,64.0
54,81.0,48.0,40.0,0.0,64.0
55,79.0,48.0,40.0,0.0,64.0
56,78.0,48.0,40.0,0.0,64.0
57,84.0,48.0,40.0,0.0,64.0
58,83.0,192.0,40.0,0.0,64.0
59,47.0,48.0,390.0,0.0,64.0
60,81.0,48.0,180.0,0.0,64.0
61,64.0,0.0,390.0,0.0,64.0
62,71.0,0.0,390.0,0.0,64.0
63,79.0,48.0,40.0,0.0,64.0
64,78.0,48.0,40.0,0.0,64.0
65,76.0,48.0,40.0,0.0,64.0
66,75.0,0.0,40.0,0.0,64.0
67,76.0,48.0,40.0,0.0,64.0
68,71.0,48.0,40.0,0.0,64.0
69,76.0,48.0,40.0,0.0,64.0
70,78.0,48.0,40.0,0.0,64.0
71,79.0,48.0,40.0,0.0,64.0
72,76.0,48.0,40.0,0.0,64.0
73,78.0,48.0,40.0,0.0,64.0
74,79.0,192.0,40.0,0.0,64.0
75,67.0,0.0,390.0,0.0,64.0
76,47.0,0.0,390.0,0.0,64.0
77,61.0,0.0,390.0,0.0,64.0
78,64.0,0.0,390.0,0.0,64.0
79,71.0,48.0,180.0,0.0,64.0
80,70.0,48.0,40.0,0.0,64.0
81,73.0,48.0,40.0,0.0,64.0
82,76.0,48.0,40.0,0.0,64.0
83,79.0,48.0,40.0,0.0,64.0
84,78.0,48.0,40.0,0.0,64.0
85,76.0,144.0,40.0,0.0,64.0
86,88.0,48.0,150.0,0.0,64.0
87,86.0,48.0,40.0,0.0,64.0
88,85.0,48.0,40.0,0.0,64.0
89,83.0,48.0,40.0,0.0,64.0
90,47.0,0.0,390.0,0.0,64.0
91,82.0,48.0,40.0,0.0,64.0
92,67.0,0.0,390.0,0.0,64.0
93,64.0,0.0,390.0,0.0,64.0
94,61.0,0.0,390.0,0.0,64.0
95,83.0,48.0,40.0,0.0,64.0
96,85.0,48.0,40.0,0.0,64.0
97,76.0,48.0,40.0,0.0,64.0
98,78.0,48.0,40.0,0.0,64.0
99,79.0,48.0,40.0,0.0,64.0
100,73.0,48.0,40.0,0.0,64.0
101,74.0,48.0,40.0,0.0,64.0
102,76.0,48.0,40.0,0.0,64.0
103,70.0,48.0,40.0,0.0,64.0
104,71.0,48.0,40.0,0.0,64.0
105,73.0,48.0,40.0,0.0,64.0
106,64.0,48.0,40.0,0.0,64.0
107,67.0,48.0,40.0,0.0,64.0
108,66.0,48.0,40.0,0.0,64.0
109,64.0,48.0,40.0,0.0,64.0
110,62.0,48.0,40.0,0.0,64.0
111,59.0,48.0,40.0,0.0,64.0
112,58.0,48.0,40.0,0.0,64.0
113,59.0,48.0,40.0,0.0,64.0
114,61.0,48.0,40.0,0.0,64.0
115,62.0,48.0,40.0,0.0,64.0
116,64.0,48.0,40.0,0.0,64.0
117,66.0,48.0,40.0,0.0,64.0
118,67.0,48.0,40.0,0.0,64.0
119,64.0,48.0,40.0,0.0,64.0
120,59.0,48.0,40.0,0.0,64.0
121,61.0,48.0,40.0,0.0,64.0
122,63.0,48.0,40.0,0.0,64.0
123,64.0,48.0,40.0,0.0,64.0
124,66.0,48.0,40.0,0.0,64.0
125,67.0,48.0,40.0,0.0,64.0
126,69.0,48.0,40.0,0.0,64.0
127,66.0,48.0,40.0,0.0,64.0
128,59.0,48.0,40.0,0.0,64.0
129,63.0,48.0,40.0,0.0,64.0
130,64.0,48.0,40.0,0.0,64.0
131,66.0,48.0,40.0,0.0,64.0
132,67.0,48.0,40.0,0.0,64.0
133,69.0,48.0,40.0,0.0,64.0
134,71.0,48.0,40.0,0.0,64.0
135,67.0,48.0,40.0,0.0,64.0
136,64.0,48.0,40.0,0.0,64.0
137,63.0,48.0,40.0,0.0,64.0
138,64.0,48.0,40.0,0.0,64.0
139,67.0,48.0,40.0,0.0,64.0
140,69.0,48.0,40.0,0.0,64.0
141,71.0,48.0,40.0,0.0,64.0
142,72.0,48.0,40.0,0.0,64.0
143,69.0,48.0,40.0,0.0,64.0
144,66.0,48.0,40.0,0.0,64.0
145,64.0,48.0,40.0,0.0,64.0
146,63.0,48.0,40.0,0.0,64.0
147,78.0,48.0,40.0,0.0,64.0
148,72.0,48.0,40.0,0.0,64.0
149,71.0,48.0,40.0,0.0,64.0
150,69.0,48.0,40.0,0.0,64.0
151,78.0,48.0,40.0,0.0,64.0
152,71.0,48.0,40.0,0.0,64.0
153,69.0,48.0,40.0,0.0,64.0
154,67.0,48.0,40.0,0.0,64.0
155,66.0,48.0,40.0,0.0,64.0
156,64.0,48.0,40.0,0.0,64.0
157,63.0,48.0,40.0,0.0,64.0
158,64.0,48.0,40.0,0.0,64.0
159,70.0,48.0,40.0,0.0,64.0
160,64.0,48.0,40.0,0.0,64.0
161,62.0,48.0,40.0,0.0,64.0
162,61.0,48.0,40.0,0.0,64.0
163,59.0,48.0,40.0,0.0,64.0
164,58.0,48.0,40.0,0.0,64.0
165,56.0,48.0,40.0,0.0,64.0
166,58.0,48.0,40.0,0.0,64.0
167,61.0,48.0,40.0,0.0,64.0
168,54.0,48.0,40.0,0.0,64.0
169,52.0,48.0,40.0,0.0,64.0
170,50.0,48.0,40.0,0.0,64.0
171,49.0,48.0,40.0,0.0,64.0
172,47.0,48.0,40.0,0.0,64.0
173,46.0,48.0,40.0,0.0,64.0
174,47.0,48.0,40.0,0.0,64.0
175,42.0,48.0,40.0,0.0,64.0
176,44.0,48.0,40.0,0.0,64.0
177,46.0,48.0,40.0,0.0,64.0
178,47.0,48.0,40.0,0.0,64.0
179,49.0,48.0,40.0,0.0,64.0
180,50.0,48.0,40.0,0.0,64.0
181,52.0,48.0,40.0,0.0,64.0
182,50.0,48.0,40.0,0.0,64.0
183,47.0,48.0,40.0,0.0,64.0
184,50.0,48.0,40.0,0.0,64.0
185,54.0,48.0,40.0,0.0,64.0
186,59.0,48.0,40.0,0.0,64.0
187,62.0,48.0,40.0,0.0,64.0
188,61.0,48.0,40.0,0.0,64.0
189,59.0,48.0,40.0,0.0,64.0
190,67.0,48.0,40.0,0.0,64.0
191,59.0,48.0,40.0,0.0,64.0
192,61.0,48.0,40.0,0.0,64.0
193,63.0,48.0,40.0,0.0,64.0
194,64.0,48.0,40.0,0.0,64.0
195,66.0,48.0,40.0,0.0,64.0
196,67.0,48.0,40.0,0.0,64.0
197,69.0,48.0,40.0,0.0,64.0
198,67.0,48.0,40.0,0.0,64.0
199,64.0,48.0,40.0,0.0,64.0
200,67.0,48.0,40.0,0.0,64.0
201,71.0,48.0,40.0,0.0,64.0
202,76.0,48.0,40.0,0.0,64.0
203,79.0,48.0,40.0,0.0,64.0
204,78.0,48.0,40.0,0.0,64.0
205,76.0,48.0,40.0,0.0,64.0
206,85.0,48.0,40.0,0.0,64.0
207,64.0,48.0,40.0,0.0,64.0
208,66.0,48.0,40.0,0.0,64.0
209,68.0,48.0,40.0,0.0,64.0
210,70.0,48.0,40.0,0.0,64.0
211,71.0,48.0,40.0,0.0,64.0
212,73.0,48.0,40.0,0.0,64.0
213,74.0,48.0,40.0,0.0,64.0
214,73.0,48.0,40.0,0.0,64.0
215,70.0,48.0,40.0,0.0,64.0
216,73.0,48.0,40.0,0.0,64.0
217,76.0,48.0,40.0,0.0,64.0
218,79.0,48.0,40.0,0.0,64.0
219,82.0,48.0,40.0,0.0,64.0
220,83.0,48.0,40.0,0.0,64.0
221,85.0,48.0,40.0,0.0,64.0
222,86.0,48.0,40.0,0.0,64.0
223,85.0,48.0,40.0,0.0,64.0
224,83.0,48.0,40.0,0.0,64.0
225,81.0,48.0,40.0,0.0,64.0
226,79.0,48.0,40.0,0.0,64.0
227,78.0,48.0,40.0,0.0,64.0
228,77.0,48.0,40.0,0.0,64.0
229,78.0,48.0,40.0,0.0,64.0
230,77.0,48.0,40.0,0.0,64.0
231,80.0,48.0,40.0,0.0,64.0
232,83.0,48.0,40.0,0.0,64.0
233,86.0,48.0,40.0,0.0,64.0
234,85.0,48.0,40.0,0.0,64.0
235,83.0,48.0,40.0,0.0,64.0
236,82.0,48.0,40.0,0.0,64.0
237,80.0,0.0,40.0,0.0,64.0
238,54.0,0.0,1920.0,0.0,64.0
239,82.0,48.0,40.0,0.0,64.0
240,79.0,48.0,40.0,0.0,64.0
241,78.0,48.0,40.0,0.0,64.0
242,76.0,96.0,40.0,0.0,64.0
243,85.0,96.0,390.0,0.0,64.0
244,76.0,48.0,40.0,0.0,64.0
245,74.0,48.0,40.0,0.0,64.0
246,73.0,48.0,40.0,0.0,64.0
247,74.0,96.0,40.0,0.0,64.0
248,78.0,48.0,330.0,0.0,64.0
249,76.0,48.0,40.0,0.0,64.0
250,74.0,192.0,1200.0,0.0,64.0
251,83.0,0.0,1140.0,0.0,64.0
252,69.0,48.0,40.0,0.0,64.0
253,67.0,48.0,40.0,0.0,64.0
254,66.0,0.0,40.0,0.0,64.0
255,65.0,48.0,40.0,0.0,64.0
256,80.0,0.0,960.0,0.0,64.0
257,62.0,48.0,40.0,0.0,64.0
258,61.0,48.0,40.0,0.0,64.0
259,59.0,48.0,40.0,0.0,64.0
260,68.0,48.0,40.0,0.0,64.0
261,65.0,48.0,40.0,0.0,64.0
262,62.0,48.0,40.0,0.0,64.0
263,61.0,48.0,40.0,0.0,64.0
264,59.0,48.0,40.0,0.0,64.0
265,62.0,48.0,40.0,0.0,64.0
266,61.0,48.0,40.0,0.0,64.0
267,59.0,48.0,40.0,0.0,64.0
268,65.0,48.0,40.0,0.0,64.0
269,68.0,48.0,40.0,0.0,64.0
270,66.0,48.0,40.0,0.0,64.0
271,65.0,192.0,40.0,0.0,64.0
272,73.0,0.0,180.0,0.0,64.0
273,82.0,288.0,180.0,0.0,64.0
274,78.0,0.0,180.0,0.0,64.0
275,66.0,0.0,15.0,0.0,64.0
276,81.0,96.0,90.0,0.0,64.0
277,78.0,96.0,90.0,0.0,64.0
278,75.0,96.0,90.0,0.0,64.0
279,76.0,96.0,90.0,0.0,64.0
280,78.0,0.0,780.0,0.0,64.0
281,72.0,0.0,390.0,0.0,64.0
282,69.0,96.0,90.0,0.0,64.0
283,66.0,0.0,90.0,0.0,64.0
284,63.0,96.0,15.0,0.0,64.0
285,59.0,0.0,180.0,0.0,64.0
286,64.0,96.0,90.0,0.0,64.0
287,63.0,96.0,180.0,0.0,64.0
288,71.0,96.0,90.0,0.0,64.0
289,66.0,0.0,180.0,0.0,64.0
290,69.0,0.0,300.0,0.0,64.0
291,59.0,96.0,90.0,0.0,64.0
292,55.0,0.0,180.0,0.0,64.0
293,63.0,96.0,90.0,0.0,64.0
294,76.0,0.0,90.0,0.0,64.0
295,67.0,96.0,90.0,0.0,64.0
296,59.0,96.0,180.0,0.0,64.0
297,66.0,0.0,90.0,0.0,64.0
298,75.0,0.0,90.0,0.0,64.0
299,67.0,0.0,180.0,0.0,64.0
300,55.0,0.0,180.0,0.0,64.0
301,76.0,96.0,90.0,0.0,64.0
302,78.0,96.0,90.0,0.0,64.0
303,52.0,96.0,180.0,0.0,64.0
304,64.0,0.0,15.0,0.0,64.0
305,79.0,96.0,780.0,0.0,64.0
306,61.0,0.0,90.0,0.0,64.0
307,58.0,96.0,90.0,0.0,64.0
308,49.0,0.0,180.0,0.0,64.0
309,59.0,96.0,90.0,0.0,64.0
310,61.0,0.0,780.0,0.0,64.0
311,58.0,0.0,180.0,0.0,64.0
312,76.0,96.0,90.0,0.0,64.0
313,73.0,96.0,90.0,0.0,64.0
314,70.0,96.0,90.0,0.0,64.0
315,54.0,0.0,180.0,0.0,64.0
316,71.0,0.0,90.0,0.0,64.0
317,58.0,0.0,180.0,0.0,64.0
318,73.0,96.0,180.0,0.0,64.0
319,78.0,96.0,90.0,0.0,64.0
320,76.0,0.0,300.0,0.0,64.0
321,50.0,96.0,180.0,0.0,64.0
322,66.0,96.0,90.0,0.0,64.0
323,70.0,0.0,90.0,0.0,64.0
324,71.0,0.0,390.0,0.0,64.0
325,74.0,96.0,90.0,0.0,64.0
326,59.0,0.0,90.0,0.0,64.0
327,54.0,96.0,180.0,0.0,64.0
328,73.0,0.0,90.0,0.0,64.0
329,58.0,0.0,90.0,0.0,64.0
330,74.0,0.0,180.0,0.0,64.0
331,59.0,96.0,90.0,0.0,64.0
332,50.0,96.0,180.0,0.0,64.0
333,61.0,0.0,90.0,0.0,64.0
334,83.0,96.0,90.0,0.0,64.0
335,62.0,0.0,780.0,0.0,64.0
336,47.0,0.0,180.0,0.0,64.0
337,79.0,96.0,90.0,0.0,64.0
338,44.0,0.0,180.0,0.0,64.0
339,77.0,96.0,90.0,0.0,64.0
340,78.0,96.0,90.0,0.0,64.0
341,53.0,0.0,180.0,0.0,64.0
342,80.0,0.0,780.0,0.0,64.0
343,71.0,96.0,90.0,0.0,64.0
344,68.0,96.0,90.0,0.0,64.0
345,49.0,96.0,180.0,0.0,64.0
346,65.0,96.0,90.0,0.0,64.0
347,66.0,0.0,90.0,0.0,64.0
348,53.0,96.0,180.0,0.0,64.0
349,61.0,96.0,90.0,0.0,64.0
350,68.0,0.0,180.0,0.0,64.0
351,59.0,0.0,300.0,0.0,64.0
352,45.0,0.0,180.0,0.0,64.0
353,61.0,96.0,90.0,0.0,64.0
354,65.0,96.0,90.0,0.0,64.0
355,66.0,0.0,180.0,0.0,64.0
356,78.0,0.0,90.0,0.0,64.0
357,49.0,0.0,180.0,0.0,64.0
358,57.0,96.0,90.0,0.0,64.0
359,56.0,96.0,90.0,0.0,64.0
360,77.0,0.0,90.0,0.0,64.0
361,45.0,0.0,180.0,0.0,64.0
362,57.0,0.0,90.0,0.0,64.0
363,78.0,96.0,90.0,0.0,64.0
364,80.0,0.0,90.0,0.0,64.0
365,59.0,96.0,90.0,0.0,64.0
366,73.0,0.0,390.0,0.0,64.0
367,42.0,96.0,180.0,0.0,64.0
368,61.0,96.0,90.0,0.0,64.0
369,81.0,0.0,390.0,0.0,64.0
370,57.0,0.0,90.0,0.0,64.0
371,50.0,0.0,780.0,0.0,64.0
372,54.0,96.0,90.0,0.0,64.0
373,57.0,96.0,90.0,0.0,64.0
374,59.0,96.0,300.0,0.0,64.0
375,80.0,96.0,90.0,0.0,64.0
376,78.0,96.0,90.0,0.0,64.0
377,80.0,0.0,90.0,0.0,64.0
378,61.0,0.0,90.0,0.0,64.0
379,77.0,96.0,90.0,0.0,64.0
380,62.0,96.0,90.0,0.0,64.0
381,78.0,96.0,300.0,0.0,64.0
382,59.0,96.0,90.0,0.0,64.0
383,56.0,0.0,180.0,0.0,64.0
384,49.0,0.0,1920.0,0.0,64.0
385,75.0,96.0,90.0,0.0,64.0
386,61.0,96.0,90.0,0.0,64.0
387,77.0,0.0,90.0,0.0,64.0
388,59.0,0.0,90.0,0.0,64.0
389,80.0,96.0,90.0,0.0,64.0
390,73.0,0.0,780.0,0.0,64.0
391,57.0,96.0,90.0,0.0,64.0
392,71.0,0.0,15.0,0.0,64.0
393,56.0,0.0,90.0,0.0,64.0
394,54.0,0.0,90.0,0.0,64.0
395,69.0,96.0,90.0,0.0,64.0
396,68.0,0.0,90.0,0.0,64.0
397,53.0,96.0,90.0,0.0,64.0
398,54.0,96.0,90.0,0.0,64.0
399,69.0,0.0,90.0,0.0,64.0
400,65.0,96.0,90.0,0.0,64.0
401,56.0,0.0,90.0,0.0,64.0
402,57.0,0.0,90.0,0.0,64.0
403,66.0,96.0,90.0,0.0,64.0
404,69.0,192.0,90.0,0.0,64.0
405,54.0,0.0,480.0,0.0,64.0
406,60.0,192.0,390.0,0.0,64.0
407,63.0,0.0,390.0,0.0,64.0
408,69.0,96.0,90.0,0.0,64.0
409,68.0,96.0,90.0,0.0,64.0
410,66.0,0.0,90.0,0.0,64.0
411,66.0,192.0,180.0,0.0,64.0
412,61.0,0.0,390.0,0.0,64.0
413,56.0,0.0,390.0,0.0,64.0
414,65.0,288.0,180.0,0.0,64.0
415,61.0,48.0,40.0,0.0,64.0
416,63.0,48.0,40.0,0.0,64.0
417,65.0,48.0,40.0,0.0,64.0
418,66.0,48.0,40.0,0.0,64.0
419,68.0,48.0,40.0,0.0,64.0
420,69.0,48.0,40.0,0.0,64.0
421,71.0,48.0,40.0,0.0,64.0
422,73.0,48.0,40.0,0.0,64.0
423,74.0,48.0,40.0,0.0,64.0
424,73.0,48.0,40.0,0.0,64.0
425,71.0,384.0,40.0,0.0,64.0
426,80.0,0.0,570.0,0.0,64.0
427,59.0,0.0,180.0,0.0,64.0
428,77.0,0.0,390.0,0.0,64.0
429,71.0,0.0,390.0,0.0,64.0
430,50.0,192.0,180.0,0.0,64.0
431,62.0,192.0,390.0,0.0,64.0
432,56.0,0.0,15.0,0.0,64.0
433,42.0,0.0,390.0,0.0,64.0
434,75.0,0.0,180.0,0.0,64.0
435,70.0,96.0,180.0,0.0,64.0
436,78.0,0.0,180.0,0.0,64.0
437,58.0,0.0,180.0,0.0,64.0
438,63.0,0.0,180.0,0.0,64.0
439,75.0,48.0,40.0,0.0,64.0
440,74.0,48.0,40.0,0.0,64.0
441,75.0,48.0,40.0,0.0,64.0
442,77.0,24.0,40.0,0.0,64.0
443,75.0,24.0,20.0,0.0,64.0
444,77.0,48.0,20.0,0.0,64.0
445,75.0,24.0,40.0,0.0,64.0
446,74.0,24.0,20.0,0.0,64.0
447,75.0,48.0,20.0,0.0,64.0
448,78.0,48.0,40.0,0.0,64.0
449,75.0,48.0,40.0,0.0,64.0
450,74.0,48.0,40.0,0.0,64.0
451,75.0,48.0,40.0,0.0,64.0
452,77.0,24.0,40.0,0.0,64.0
453,75.0,24.0,20.0,0.0,64.0
454,77.0,48.0,20.0,0.0,64.0
455,75.0,24.0,40.0,0.0,64.0
456,74.0,24.0,20.0,0.0,64.0
457,75.0,384.0,20.0,0.0,64.0
458,84.0,192.0,570.0,0.0,64.0
459,66.0,0.0,390.0,0.0,64.0
460,57.0,192.0,180.0,0.0,64.0
461,54.0,0.0,180.0,0.0,64.0
462,81.0,0.0,390.0,0.0,64.0
463,75.0,0.0,390.0,0.0,64.0
464,59.0,48.0,390.0,0.0,64.0
465,55.0,0.0,390.0,0.0,64.0
466,64.0,0.0,180.0,0.0,64.0
467,76.0,0.0,180.0,0.0,64.0
468,79.0,0.0,180.0,0.0,64.0
469,83.0,48.0,240.0,0.0,64.0
470,81.0,48.0,40.0,0.0,64.0
471,79.0,48.0,40.0,0.0,64.0
472,78.0,48.0,40.0,0.0,64.0
473,79.0,48.0,40.0,0.0,64.0
474,83.0,96.0,40.0,0.0,64.0
475,75.0,48.0,90.0,0.0,64.0
476,76.0,48.0,40.0,0.0,64.0
477,78.0,48.0,40.0,0.0,64.0
478,76.0,48.0,40.0,0.0,64.0
479,75.0,48.0,40.0,0.0,64.0
480,76.0,48.0,40.0,0.0,64.0
481,79.0,96.0,40.0,0.0,64.0
482,71.0,48.0,90.0,0.0,64.0
483,72.0,48.0,40.0,0.0,64.0
484,74.0,48.0,40.0,0.0,64.0
485,72.0,48.0,40.0,0.0,64.0
486,71.0,48.0,40.0,0.0,64.0
487,72.0,48.0,40.0,0.0,64.0
488,76.0,96.0,40.0,0.0,64.0
489,79.0,96.0,90.0,0.0,64.0
490,71.0,288.0,90.0,0.0,64.0
491,70.0,0.0,300.0,0.0,64.0
492,79.0,0.0,180.0,0.0,64.0
493,76.0,0.0,180.0,0.0,64.0
494,64.0,0.0,180.0,0.0,64.0
495,61.0,192.0,180.0,0.0,64.0
496,71.0,192.0,180.0,0.0,64.0
497,78.0,0.0,960.0,0.0,64.0
498,74.0,0.0,180.0,0.0,64.0
499,66.0,0.0,180.0,0.0,64.0
500,62.0,0.0,180.0,0.0,64.0
501,73.0,0.0,180.0,0.0,64.0
502,61.0,0.0,180.0,0.0,64.0
503,58.0,0.0,180.0,0.0,64.0
504,76.0,192.0,180.0,0.0,64.0
505,74.0,0.0,570.0,0.0,64.0
506,59.0,0.0,180.0,0.0,64.0
507,62.0,0.0,180.0,0.0,64.0
508,71.0,96.0,180.0,0.0,64.0
509,54.0,0.0,180.0,0.0,64.0
510,70.0,96.0,180.0,0.0,64.0
511,66.0,96.0,90.0,0.0,64.0
512,64.0,0.0,90.0,0.0,64.0
513,55.0,384.0,390.0,0.0,64.0
514,71.0,0.0,390.0,0.0,64.0
515,62.0,96.0,90.0,0.0,64.0
516,59.0,96.0,90.0,0.0,64.0
517,73.0,96.0,570.0,0.0,64.0
518,76.0,96.0,660.0,0.0,64.0
519,64.0,48.0,90.0,0.0,64.0
520,66.0,48.0,40.0,0.0,64.0
521,67.0,0.0,40.0,0.0,64.0
522,70.0,0.0,390.0,0.0,64.0
523,61.0,0.0,390.0,0.0,64.0
524,88.0,48.0,90.0,0.0,64.0
525,86.0,48.0,40.0,0.0,64.0
526,85.0,48.0,40.0,0.0,64.0
527,86.0,48.0,40.0,0.0,64.0
528,88.0,96.0,40.0,0.0,64.0
529,82.0,192.0,90.0,0.0,64.0
530,79.0,96.0,180.0,0.0,64.0
531,54.0,0.0,180.0,0.0,64.0
532,58.0,0.0,180.0,0.0,64.0
533,78.0,96.0,90.0,0.0,64.0
534,56.0,0.0,180.0,0.0,64.0
535,59.0,0.0,180.0,0.0,64.0
536,77.0,96.0,90.0,0.0,64.0
537,86.0,48.0,90.0,0.0,64.0
538,85.0,48.0,40.0,0.0,64.0
539,83.0,48.0,40.0,0.0,64.0
540,85.0,48.0,40.0,0.0,64.0
541,86.0,96.0,40.0,0.0,64.0
542,79.0,192.0,90.0,0.0,64.0
543,78.0,96.0,180.0,0.0,64.0
544,61.0,96.0,180.0,0.0,64.0
545,58.0,0.0,180.0,0.0,64.0
546,76.0,0.0,90.0,0.0,64.0
547,74.0,0.0,180.0,0.0,64.0
548,62.0,0.0,180.0,0.0,64.0
549,59.0,0.0,180.0,0.0,64.0
550,73.0,48.0,40.0,0.0,64.0
551,71.0,48.0,40.0,0.0,64.0
552,70.0,96.0,40.0,0.0,64.0
553,71.0,48.0,150.0,0.0,64.0
554,74.0,48.0,40.0,0.0,64.0
555,73.0,0.0,40.0,0.0,64.0
556,71.0,96.0,40.0,0.0,64.0
557,77.0,96.0,180.0,0.0,64.0
558,74.0,48.0,40.0,0.0,64.0
559,73.0,48.0,40.0,0.0,64.0
560,71.0,0.0,40.0,0.0,64.0
561,78.0,192.0,180.0,0.0,64.0
562,74.0,48.0,40.0,0.0,64.0
563,73.0,48.0,40.0,0.0,64.0
564,71.0,0.0,40.0,0.0,64.0
565,80.0,384.0,180.0,0.0,64.0
566,65.0,0.0,390.0,0.0,64.0
567,67.0,0.0,390.0,0.0,64.0
568,71.0,192.0,390.0,0.0,64.0
569,59.0,0.0,390.0,0.0,64.0
570,62.0,0.0,390.0,0.0,64.0
571,61.0,0.0,180.0,0.0,64.0
572,70.0,144.0,180.0,0.0,64.0
573,66.0,0.0,180.0,0.0,64.0
574,66.0,48.0,40.0,0.0,64.0
575,68.0,96.0,40.0,0.0,64.0
576,70.0,48.0,15.0,0.0,64.0
577,71.0,96.0,40.0,0.0,64.0
578,73.0,48.0,15.0,0.0,64.0
579,74.0,96.0,40.0,0.0,64.0
580,76.0,48.0,15.0,0.0,64.0
581,78.0,96.0,40.0,0.0,64.0
582,79.0,96.0,90.0,0.0,64.0
583,78.0,96.0,90.0,0.0,64.0
584,82.0,192.0,780.0,0.0,64.0
585,49.0,0.0,180.0,0.0,64.0
586,79.0,96.0,90.0,0.0,64.0
587,76.0,144.0,180.0,0.0,64.0
588,78.0,0.0,90.0,0.0,64.0
589,74.0,192.0,390.0,0.0,64.0
590,79.0,0.0,570.0,0.0,64.0
591,50.0,0.0,2310.0,0.0,64.0
592,67.0,48.0,40.0,0.0,64.0
593,69.0,48.0,40.0,0.0,64.0
594,70.0,48.0,40.0,0.0,64.0
595,69.0,96.0,40.0,0.0,64.0
596,67.0,0.0,90.0,0.0,64.0
597,75.0,192.0,390.0,0.0,64.0
598,72.0,0.0,390.0,0.0,64.0
599,78.0,0.0,390.0,0.0,64.0
600,81.0,192.0,390.0,0.0,64.0
601,70.0,0.0,390.0,0.0,64.0
602,74.0,192.0,390.0,0.0,64.0
603,79.0,192.0,390.0,0.0,64.0
604,72.0,0.0,390.0,0.0,64.0
605,69.0,192.0,570.0,0.0,64.0
606,84.0,192.0,390.0,0.0,64.0
607,78.0,0.0,180.0,0.0,64.0
608,70.0,0.0,390.0,0.0,64.0
609,79.0,192.0,390.0,0.0,64.0
610,86.0,0.0,390.0,0.0,64.0
611,67.0,96.0,390.0,0.0,64.0
612,84.0,0.0,570.0,0.0,64.0
613,69.0,0.0,570.0,0.0,64.0
614,81.0,0.0,570.0,0.0,64.0
615,66.0,48.0,90.0,0.0,64.0
616,67.0,48.0,40.0,0.0,64.0
617,64.0,192.0,40.0,0.0,64.0
618,51.0,384.0,390.0,0.0,64.0
619,66.0,96.0,180.0,0.0,64.0
620,70.0,0.0,180.0,0.0,64.0
621,67.0,0.0,180.0,0.0,64.0
622,79.0,96.0,90.0,0.0,64.0
623,82.0,0.0,90.0,0.0,64.0
624,78.0,0.0,90.0,0.0,64.0
625,81.0,0.0,90.0,0.0,64.0
626,79.0,96.0,570.0,0.0,64.0
627,82.0,0.0,570.0,0.0,64.0
628,52.0,192.0,390.0,0.0,64.0
629,73.0,0.0,180.0,0.0,64.0
630,67.0,0.0,180.0,0.0,64.0
631,53.0,0.0,390.0,0.0,64.0
632,74.0,0.0,390.0,0.0,64.0
633,81.0,96.0,870.0,0.0,64.0
634,77.0,96.0,90.0,0.0,64.0
635,76.0,192.0,90.0,0.0,64.0
636,75.0,96.0,480.0,0.0,64.0
637,54.0,96.0,390.0,0.0,64.0
638,72.0,96.0,90.0,0.0,64.0
639,71.0,0.0,90.0,0.0,64.0
640,69.0,96.0,15.0,0.0,64.0
641,55.0,0.0,390.0,0.0,64.0
642,71.0,0.0,390.0,0.0,64.0
643,75.0,96.0,90.0,0.0,64.0
644,76.0,192.0,390.0,0.0,64.0
645,59.0,96.0,300.0,0.0,64.0
646,79.0,96.0,90.0,0.0,64.0
647,56.0,192.0,390.0,0.0,64.0
648,83.0,0.0,570.0,0.0,64.0
649,60.0,0.0,90.0,0.0,64.0
650,62.0,192.0,390.0,0.0,64.0
651,77.0,0.0,390.0,0.0,64.0
652,68.0,0.0,390.0,0.0,64.0
653,48.0,0.0,390.0,0.0,64.0
654,76.0,0.0,180.0,0.0,64.0
655,60.0,144.0,180.0,0.0,64.0
656,69.0,0.0,180.0,0.0,64.0
657,81.0,0.0,180.0,0.0,64.0
658,69.0,48.0,40.0,0.0,64.0
659,71.0,48.0,40.0,0.0,64.0
660,72.0,48.0,40.0,0.0,64.0
661,74.0,48.0,40.0,0.0,64.0
662,76.0,48.0,40.0,0.0,64.0
663,78.0,48.0,40.0,0.0,64.0
664,79.0,48.0,40.0,0.0,64.0
665,78.0,48.0,40.0,0.0,64.0
666,76.0,48.0,40.0,0.0,64.0
667,75.0,48.0,40.0,0.0,64.0
668,76.0,48.0,40.0,0.0,64.0
669,82.0,48.0,40.0,0.0,64.0
670,83.0,48.0,40.0,0.0,64.0
671,85.0,48.0,40.0,0.0,64.0
672,83.0,48.0,40.0,0.0,64.0
673,82.0,48.0,40.0,0.0,64.0
674,80.0,48.0,40.0,0.0,64.0
675,78.0,96.0,40.0,0.0,64.0
676,61.0,0.0,180.0,0.0,64.0
677,66.0,0.0,180.0,0.0,64.0
678,90.0,96.0,90.0,0.0,64.0
679,42.0,0.0,180.0,0.0,64.0
680,82.0,192.0,15.0,0.0,64.0
681,76.0,0.0,15.0,0.0,64.0
682,47.0,0.0,390.0,0.0,64.0
683,66.0,0.0,390.0,0.0,64.0
684,83.0,0.0,180.0,0.0,64.0
685,75.0,0.0,180.0,0.0,64.0
686,59.0,288.0,15.0,0.0,64.0
687,74.0,96.0,90.0,0.0,64.0
688,71.0,96.0,90.0,0.0,64.0
689,68.0,96.0,90.0,0.0,64.0
690,69.0,0.0,90.0,0.0,64.0
691,71.0,0.0,780.0,0.0,64.0
692,56.0,96.0,180.0,0.0,64.0
693,77.0,0.0,390.0,0.0,64.0
694,86.0,96.0,90.0,0.0,64.0
695,83.0,0.0,90.0,0.0,64.0
696,80.0,96.0,90.0,0.0,64.0
697,52.0,96.0,180.0,0.0,64.0
698,81.0,0.0,90.0,0.0,64.0
699,76.0,96.0,90.0,0.0,64.0
700,83.0,0.0,180.0,0.0,64.0
701,56.0,96.0,180.0,0.0,64.0
702,48.0,0.0,180.0,0.0,64.0
703,76.0,96.0,90.0,0.0,64.0
704,74.0,0.0,15.0,0.0,64.0
705,80.0,0.0,90.0,0.0,64.0
706,52.0,0.0,180.0,0.0,64.0
707,72.0,96.0,90.0,0.0,64.0
708,81.0,96.0,300.0,0.0,64.0
709,69.0,0.0,90.0,0.0,64.0
710,68.0,0.0,90.0,0.0,64.0
711,71.0,96.0,90.0,0.0,64.0
712,69.0,0.0,180.0,0.0,64.0
713,48.0,96.0,180.0,0.0,64.0
714,72.0,0.0,180.0,0.0,64.0
715,83.0,0.0,90.0,0.0,64.0
716,81.0,96.0,90.0,0.0,64.0
717,84.0,96.0,780.0,0.0,64.0
718,45.0,0.0,180.0,0.0,64.0
719,78.0,96.0,90.0,0.0,64.0
720,54.0,0.0,180.0,0.0,64.0
721,75.0,96.0,90.0,0.0,64.0
722,76.0,96.0,90.0,0.0,64.0
723,78.0,0.0,780.0,0.0,64.0
724,51.0,0.0,180.0,0.0,64.0
725,69.0,96.0,90.0,0.0,64.0
726,66.0,96.0,90.0,0.0,64.0
727,47.0,0.0,180.0,0.0,64.0
728,63.0,96.0,90.0,0.0,64.0
729,64.0,0.0,90.0,0.0,64.0
730,51.0,0.0,180.0,0.0,64.0
731,66.0,0.0,180.0,0.0,64.0
732,83.0,96.0,90.0,0.0,64.0
733,81.0,96.0,90.0,0.0,64.0
734,59.0,96.0,90.0,0.0,64.0
735,43.0,96.0,180.0,0.0,64.0
736,81.0,0.0,180.0,0.0,64.0
737,63.0,0.0,90.0,0.0,64.0
738,64.0,0.0,390.0,0.0,64.0
739,76.0,96.0,90.0,0.0,64.0
740,79.0,0.0,90.0,0.0,64.0
741,47.0,96.0,180.0,0.0,64.0
742,75.0,0.0,90.0,0.0,64.0
743,78.0,0.0,90.0,0.0,64.0
744,76.0,96.0,90.0,0.0,64.0
745,43.0,0.0,180.0,0.0,64.0
746,78.0,0.0,90.0,0.0,64.0
747,59.0,0.0,180.0,0.0,64.0
748,79.0,96.0,15.0,0.0,64.0
749,40.0,96.0,180.0,0.0,64.0
750,76.0,0.0,90.0,0.0,64.0
751,64.0,0.0,180.0,0.0,64.0
752,49.0,96.0,180.0,0.0,64.0
753,70.0,96.0,90.0,0.0,64.0
754,71.0,0.0,90.0,0.0,64.0
755,67.0,0.0,390.0,0.0,64.0
756,73.0,96.0,780.0,0.0,64.0
757,88.0,96.0,90.0,0.0,64.0
758,46.0,0.0,180.0,0.0,64.0
759,85.0,96.0,90.0,0.0,64.0
760,82.0,96.0,90.0,0.0,64.0
761,42.0,96.0,180.0,0.0,64.0
762,83.0,0.0,90.0,0.0,64.0
763,66.0,96.0,90.0,0.0,64.0
764,46.0,192.0,180.0,0.0,64.0
765,85.0,0.0,180.0,0.0,64.0
766,64.0,0.0,90.0,0.0,64.0
767,66.0,96.0,960.0,0.0,64.0
768,50.0,0.0,180.0,0.0,64.0
769,78.0,0.0,180.0,0.0,64.0
770,86.0,96.0,300.0,0.0,64.0
771,47.0,96.0,180.0,0.0,64.0
772,78.0,96.0,90.0,0.0,64.0
773,74.0,0.0,90.0,0.0,64.0
774,44.0,0.0,180.0,0.0,64.0
775,71.0,0.0,90.0,0.0,64.0
776,85.0,96.0,90.0,0.0,64.0
777,73.0,0.0,90.0,0.0,64.0
778,47.0,0.0,180.0,0.0,64.0
779,74.0,96.0,300.0,0.0,64.0
780,83.0,96.0,90.0,0.0,64.0
781,81.0,96.0,90.0,0.0,64.0
782,79.0,0.0,960.0,0.0,64.0
783,52.0,0.0,180.0,0.0,64.0
784,71.0,0.0,90.0,0.0,64.0
785,76.0,96.0,300.0,0.0,64.0
786,49.0,96.0,180.0,0.0,64.0
787,67.0,96.0,90.0,0.0,64.0
788,64.0,0.0,90.0,0.0,64.0
789,61.0,0.0,90.0,0.0,64.0
790,46.0,96.0,180.0,0.0,64.0
791,62.0,0.0,90.0,0.0,64.0
792,74.0,0.0,90.0,0.0,64.0
793,64.0,96.0,300.0,0.0,64.0
794,73.0,96.0,90.0,0.0,64.0
795,49.0,0.0,180.0,0.0,64.0
796,71.0,96.0,90.0,0.0,64.0
797,54.0,96.0,180.0,0.0,64.0
798,70.0,0.0,180.0,0.0,64.0
799,61.0,0.0,90.0,0.0,64.0
800,78.0,96.0,90.0,0.0,64.0
801,66.0,96.0,300.0,0.0,64.0
802,50.0,0.0,180.0,0.0,64.0
803,71.0,0.0,90.0,0.0,64.0
804,76.0,96.0,90.0,0.0,64.0
805,73.0,0.0,90.0,0.0,64.0
806,74.0,0.0,570.0,0.0,64.0
807,47.0,0.0,180.0,0.0,64.0
808,76.0,0.0,90.0,0.0,64.0
809,64.0,96.0,90.0,0.0,64.0
810,78.0,96.0,390.0,0.0,64.0
811,50.0,96.0,180.0,0.0,64.0
812,62.0,96.0,90.0,0.0,64.0
813,61.0,0.0,90.0,0.0,64.0
814,59.0,96.0,90.0,0.0,64.0
815,43.0,0.0,780.0,0.0,64.0
816,62.0,0.0,90.0,0.0,64.0
817,73.0,96.0,90.0,0.0,64.0
818,76.0,0.0,1050.0,0.0,64.0
819,64.0,96.0,300.0,0.0,64.0
820,71.0,96.0,90.0,0.0,64.0
821,73.0,0.0,90.0,0.0,64.0
822,70.0,0.0,90.0,0.0,64.0
823,66.0,96.0,90.0,0.0,64.0
824,67.0,96.0,90.0,0.0,64.0
825,71.0,96.0,300.0,0.0,64.0
826,64.0,96.0,90.0,0.0,64.0
827,42.0,0.0,1920.0,0.0,64.0
828,61.0,0.0,180.0,0.0,64.0
829,68.0,96.0,90.0,0.0,64.0
830,70.0,96.0,90.0,0.0,64.0
831,66.0,0.0,90.0,0.0,64.0
832,64.0,0.0,90.0,0.0,64.0
833,73.0,96.0,90.0,0.0,64.0
834,66.0,96.0,780.0,0.0,64.0
835,62.0,96.0,90.0,0.0,64.0
836,61.0,0.0,90.0,0.0,64.0
837,76.0,96.0,90.0,0.0,64.0
838,59.0,96.0,90.0,0.0,64.0
839,74.0,0.0,90.0,0.0,64.0
840,73.0,96.0,90.0,0.0,64.0
841,58.0,0.0,90.0,0.0,64.0
842,74.0,96.0,90.0,0.0,64.0
843,70.0,0.0,90.0,0.0,64.0
844,61.0,96.0,90.0,0.0,64.0
845,71.0,96.0,90.0,0.0,64.0
846,62.0,0.0,90.0,0.0,64.0
847,59.0,0.0,15.0,0.0,64.0
848,74.0,0.0,90.0,0.0,64.0
849,68.0,0.0,390.0,0.0,64.0
850,77.0,96.0,390.0,0.0,64.0
851,59.0,96.0,15.0,0.0,64.0
852,74.0,0.0,90.0,0.0,64.0
853,73.0,96.0,90.0,0.0,64.0
854,58.0,0.0,90.0,0.0,64.0
855,71.0,96.0,180.0,0.0,64.0
856,59.0,0.0,90.0,0.0,64.0
857,61.0,0.0,390.0,0.0,64.0
858,78.0,0.0,390.0,0.0,64.0
859,68.0,192.0,90.0,0.0,64.0
860,70.0,0.0,180.0,0.0,64.0
861,66.0,192.0,15.0,0.0,64.0
862,73.0,0.0,390.0,0.0,64.0
863,70.0,0.0,390.0,0.0,64.0
864,64.0,192.0,180.0,0.0,64.0
865,62.0,192.0,180.0,0.0,64.0
866,74.0,0.0,390.0,0.0,64.0
867,61.0,192.0,180.0,0.0,64.0
868,66.0,192.0,390.0,0.0,64.0
869,75.0,0.0,390.0,0.0,64.0
870,59.0,192.0,180.0,0.0,64.0
871,57.0,0.0,180.0,0.0,64.0
872,67.0,192.0,390.0,0.0,64.0
873,55.0,192.0,180.0,0.0,64.0
874,54.0,0.0,180.0,0.0,64.0
875,68.0,192.0,390.0,0.0,64.0
876,64.0,192.0,180.0,0.0,64.0
877,71.0,0.0,15.0,0.0,64.0
878,62.0,0.0,180.0,0.0,64.0
879,72.0,0.0,390.0,0.0,64.0
880,69.0,0.0,1140.0,0.0,64.0
881,60.0,192.0,180.0,0.0,64.0
882,59.0,192.0,180.0,0.0,64.0
883,76.0,0.0,15.0,0.0,64.0
884,73.0,0.0,390.0,0.0,64.0
885,57.0,192.0,180.0,0.0,64.0
886,55.0,0.0,180.0,0.0,64.0
887,77.0,0.0,390.0,0.0,64.0
888,53.0,192.0,180.0,0.0,64.0
889,74.0,0.0,1530.0,0.0,64.0
890,52.0,192.0,180.0,0.0,64.0
891,57.0,192.0,390.0,0.0,64.0
892,78.0,0.0,390.0,0.0,64.0
893,69.0,0.0,390.0,0.0,64.0
894,62.0,192.0,180.0,0.0,64.0
895,60.0,0.0,180.0,0.0,64.0
896,58.0,192.0,180.0,0.0,64.0
897,79.0,0.0,1530.0,0.0,64.0
898,67.0,192.0,390.0,0.0,64.0
899,57.0,0.0,180.0,0.0,64.0
900,62.0,0.0,390.0,0.0,64.0
901,59.0,0.0,390.0,0.0,64.0
902,55.0,192.0,180.0,0.0,64.0
903,53.0,192.0,180.0,0.0,64.0
904,63.0,0.0,390.0,0.0,64.0
905,72.0,0.0,1530.0,0.0,64.0
906,51.0,192.0,180.0,0.0,64.0
907,50.0,192.0,180.0,0.0,64.0
908,64.0,192.0,390.0,0.0,64.0
909,60.0,192.0,180.0,0.0,64.0
910,67.0,0.0,390.0,0.0,64.0
911,58.0,0.0,180.0,0.0,64.0
912,68.0,0.0,390.0,0.0,64.0
913,56.0,192.0,180.0,0.0,64.0
914,65.0,0.0,1140.0,0.0,64.0
915,55.0,192.0,180.0,0.0,64.0
916,53.0,192.0,180.0,0.0,64.0
917,69.0,384.0,390.0,0.0,64.0
918,51.0,0.0,180.0,0.0,64.0
919,77.0,0.0,15.0,0.0,64.0
920,62.0,384.0,390.0,0.0,64.0
921,80.0,0.0,390.0,0.0,64.0
922,71.0,0.0,390.0,0.0,64.0
923,50.0,0.0,390.0,0.0,64.0
924,50.0,0.0,180.0,0.0,64.0
925,71.0,384.0,180.0,0.0,64.0
926,77.0,0.0,180.0,0.0,64.0
927,80.0,0.0,180.0,0.0,64.0
928,52.0,192.0,390.0,0.0,64.0
929,70.0,0.0,390.0,0.0,64.0
930,79.0,0.0,390.0,0.0,64.0
931,73.0,0.0,390.0,0.0,64.0
932,74.0,144.0,390.0,0.0,64.0
933,68.0,192.0,180.0,0.0,64.0
934,80.0,192.0,960.0,0.0,64.0
935,53.0,0.0,390.0,0.0,64.0
936,70.0,0.0,180.0,0.0,64.0
937,71.0,0.0,570.0,0.0,64.0
938,75.0,192.0,390.0,0.0,64.0
939,51.0,192.0,2310.0,0.0,64.0
940,56.0,48.0,40.0,0.0,64.0
941,58.0,48.0,40.0,0.0,64.0
942,59.0,48.0,40.0,0.0,64.0
943,58.0,96.0,40.0,0.0,64.0
944,56.0,0.0,90.0,0.0,64.0
945,73.0,192.0,390.0,0.0,64.0
946,64.0,0.0,390.0,0.0,64.0
947,79.0,192.0,390.0,0.0,64.0
948,70.0,0.0,180.0,0.0,64.0
949,68.0,0.0,390.0,0.0,64.0
950,71.0,0.0,390.0,0.0,64.0
951,63.0,192.0,390.0,0.0,64.0
952,80.0,192.0,390.0,0.0,64.0
953,76.0,0.0,390.0,0.0,64.0
954,70.0,192.0,390.0,0.0,64.0
955,61.0,0.0,570.0,0.0,64.0
956,79.0,0.0,180.0,0.0,64.0
957,75.0,0.0,390.0,0.0,64.0
958,80.0,0.0,390.0,0.0,64.0
959,71.0,0.0,390.0,0.0,64.0
960,68.0,192.0,180.0,0.0,64.0
961,59.0,0.0,180.0,0.0,64.0
962,73.0,96.0,570.0,0.0,64.0
963,76.0,0.0,570.0,0.0,64.0
964,82.0,0.0,570.0,0.0,64.0
965,67.0,192.0,180.0,0.0,64.0
966,70.0,0.0,390.0,0.0,64.0
967,58.0,0.0,570.0,0.0,64.0
968,61.0,0.0,390.0,0.0,64.0
969,64.0,0.0,90.0,0.0,64.0
970,67.0,0.0,180.0,0.0,64.0
971,52.0,384.0,390.0,0.0,64.0
972,75.0,0.0,180.0,0.0,64.0
973,80.0,0.0,90.0,0.0,64.0
974,71.0,96.0,90.0,0.0,64.0
975,70.0,0.0,90.0,0.0,64.0
976,79.0,0.0,90.0,0.0,64.0
977,71.0,0.0,570.0,0.0,64.0
978,80.0,0.0,570.0,0.0,64.0
979,68.0,0.0,15.0,0.0,64.0
980,74.0,0.0,570.0,0.0,64.0
981,53.0,0.0,390.0,0.0,64.0
982,56.0,192.0,180.0,0.0,64.0
983,65.0,192.0,390.0,0.0,64.0
984,54.0,0.0,390.0,0.0,64.0
985,58.0,0.0,390.0,0.0,64.0
986,63.0,0.0,180.0,0.0,64.0
987,78.0,0.0,180.0,0.0,64.0
988,75.0,0.0,180.0,0.0,64.0
989,70.0,384.0,180.0,0.0,64.0
990,55.0,0.0,390.0,0.0,64.0
991,82.0,0.0,570.0,0.0,64.0
992,70.0,0.0,180.0,0.0,64.0
993,58.0,192.0,180.0,0.0,64.0
994,76.0,0.0,180.0,0.0,64.0
995,73.0,0.0,180.0,0.0,64.0
996,72.0,0.0,390.0,0.0,64.0
997,75.0,0.0,570.0,0.0,64.0
998,60.0,96.0,480.0,0.0,64.0
999,56.0,96.0,390.0,0.0,64.0
1000,63.0,96.0,180.0,0.0,64.0
1001,80.0,96.0,90.0,0.0,64.0
1002,68.0,0.0,180.0,0.0,64.0
1003,82.0,0.0,90.0,0.0,64.0
1004,84.0,96.0,480.0,0.0,64.0
1005,66.0,0.0,780.0,0.0,64.0
1006,59.0,0.0,90.0,0.0,64.0
1007,78.0,96.0,870.0,0.0,64.0
1008,57.0,96.0,15.0,0.0,64.0
1009,55.0,0.0,90.0,0.0,64.0
1010,51.0,96.0,180.0,0.0,64.0
1011,83.0,0.0,90.0,0.0,64.0
1012,81.0,96.0,90.0,0.0,64.0
1013,54.0,0.0,180.0,0.0,64.0
1014,84.0,0.0,90.0,0.0,64.0
1015,51.0,0.0,180.0,0.0,64.0
1016,83.0,96.0,90.0,0.0,64.0
1017,81.0,96.0,90.0,0.0,64.0
1018,47.0,96.0,180.0,0.0,64.0
1019,79.0,0.0,90.0,0.0,64.0
1020,78.0,96.0,180.0,0.0,64.0
1021,79.0,96.0,1140.0,0.0,64.0
1022,52.0,96.0,180.0,0.0,64.0
1023,76.0,0.0,90.0,0.0,64.0
1024,75.0,96.0,90.0,0.0,64.0
1025,54.0,96.0,180.0,0.0,64.0
1026,78.0,0.0,90.0,0.0,64.0
1027,64.0,96.0,480.0,0.0,64.0
1028,76.0,96.0,90.0,0.0,64.0
1029,55.0,96.0,180.0,0.0,64.0
1030,74.0,0.0,90.0,0.0,64.0
1031,73.0,96.0,90.0,0.0,64.0
1032,52.0,0.0,180.0,0.0,64.0
1033,71.0,96.0,90.0,0.0,64.0
1034,54.0,0.0,180.0,0.0,64.0
1035,70.0,0.0,180.0,0.0,64.0
1036,62.0,96.0,90.0,0.0,64.0
1037,73.0,96.0,300.0,0.0,64.0
1038,58.0,0.0,180.0,0.0,64.0
1039,61.0,96.0,90.0,0.0,64.0
1040,64.0,0.0,90.0,0.0,64.0
1041,62.0,0.0,90.0,0.0,64.0
1042,59.0,0.0,180.0,0.0,64.0
1043,78.0,96.0,480.0,0.0,64.0
1044,76.0,0.0,90.0,0.0,64.0
1045,61.0,96.0,90.0,0.0,64.0
1046,50.0,96.0,180.0,0.0,64.0
1047,74.0,96.0,90.0,0.0,64.0
1048,59.0,0.0,90.0,0.0,64.0
1049,58.0,0.0,90.0,0.0,64.0
1050,73.0,0.0,90.0,0.0,64.0
1051,71.0,96.0,180.0,0.0,64.0
1052,55.0,96.0,570.0,0.0,64.0
1053,59.0,0.0,570.0,0.0,64.0
1054,76.0,0.0,90.0,0.0,64.0
1055,70.0,96.0,180.0,0.0,64.0
1056,74.0,96.0,90.0,0.0,64.0
1057,78.0,0.0,90.0,0.0,64.0
1058,71.0,0.0,180.0,0.0,64.0
1059,76.0,96.0,90.0,0.0,64.0
1060,74.0,0.0,90.0,0.0,64.0
1061,52.0,0.0,180.0,0.0,64.0
1062,73.0,96.0,90.0,0.0,64.0
1063,64.0,96.0,300.0,0.0,64.0
1064,67.0,96.0,180.0,0.0,64.0
1065,71.0,0.0,90.0,0.0,64.0
1066,70.0,96.0,180.0,0.0,64.0
1067,66.0,0.0,780.0,0.0,64.0
1068,54.0,0.0,390.0,0.0,64.0
1069,62.0,0.0,90.0,0.0,64.0
1070,61.0,96.0,90.0,0.0,64.0
1071,73.0,0.0,180.0,0.0,64.0
1072,64.0,96.0,90.0,0.0,64.0
1073,71.0,0.0,180.0,0.0,64.0
1074,62.0,96.0,90.0,0.0,64.0
1075,61.0,96.0,90.0,0.0,64.0
1076,59.0,96.0,90.0,0.0,64.0
1077,74.0,144.0,300.0,0.0,64.0
1078,47.0,0.0,180.0,0.0,64.0
1079,58.0,96.0,90.0,0.0,64.0
1080,67.0,48.0,390.0,0.0,64.0
1081,52.0,0.0,1140.0,0.0,64.0
1082,59.0,0.0,390.0,0.0,64.0
1083,79.0,48.0,150.0,0.0,64.0
1084,78.0,48.0,40.0,0.0,64.0
1085,76.0,48.0,40.0,0.0,64.0
1086,75.0,0.0,40.0,0.0,64.0
1087,76.0,48.0,40.0,0.0,64.0
1088,74.0,48.0,40.0,0.0,64.0
1089,72.0,48.0,40.0,0.0,64.0
1090,71.0,48.0,40.0,0.0,64.0
1091,67.0,0.0,180.0,0.0,64.0
1092,64.0,0.0,180.0,0.0,64.0
1093,72.0,48.0,40.0,0.0,64.0
1094,76.0,48.0,40.0,0.0,64.0
1095,74.0,48.0,40.0,0.0,64.0
1096,72.0,48.0,40.0,0.0,64.0
1097,71.0,48.0,40.0,0.0,64.0
1098,66.0,96.0,180.0,0.0,64.0
1099,61.0,0.0,180.0,0.0,64.0
1100,70.0,96.0,40.0,0.0,64.0
1101,79.0,48.0,180.0,0.0,64.0
1102,61.0,0.0,180.0,0.0,64.0
1103,58.0,0.0,180.0,0.0,64.0
1104,78.0,48.0,40.0,0.0,64.0
1105,77.0,48.0,40.0,0.0,64.0
1106,86.0,48.0,40.0,0.0,64.0
1107,85.0,48.0,40.0,0.0,64.0
1108,83.0,48.0,40.0,0.0,64.0
1109,82.0,48.0,40.0,0.0,64.0
1110,62.0,48.0,180.0,0.0,64.0
1111,83.0,48.0,40.0,0.0,64.0
1112,66.0,0.0,180.0,0.0,64.0
1113,50.0,0.0,180.0,0.0,64.0
1114,85.0,48.0,40.0,0.0,64.0
1115,82.0,48.0,40.0,0.0,64.0
1116,83.0,48.0,90.0,0.0,64.0
1117,65.0,0.0,180.0,0.0,64.0
1118,56.0,0.0,180.0,0.0,64.0
1119,49.0,48.0,180.0,0.0,64.0
1120,85.0,96.0,40.0,0.0,64.0
1121,86.0,48.0,150.0,0.0,64.0
1122,41.0,48.0,180.0,0.0,64.0
1123,59.0,0.0,180.0,0.0,64.0
1124,68.0,0.0,180.0,0.0,64.0
1125,85.0,48.0,40.0,0.0,64.0
1126,83.0,48.0,40.0,0.0,64.0
1127,82.0,0.0,40.0,0.0,64.0
1128,83.0,48.0,40.0,0.0,64.0
1129,44.0,0.0,180.0,0.0,64.0
1130,81.0,48.0,40.0,0.0,64.0
1131,80.0,48.0,40.0,0.0,64.0
1132,81.0,48.0,40.0,0.0,64.0
1133,47.0,0.0,180.0,0.0,64.0
1134,62.0,96.0,180.0,0.0,64.0
1135,71.0,0.0,180.0,0.0,64.0
1136,79.0,48.0,40.0,0.0,64.0
1137,78.0,48.0,40.0,0.0,64.0
1138,77.0,48.0,40.0,0.0,64.0
1139,78.0,48.0,150.0,0.0,64.0
1140,46.0,0.0,180.0,0.0,64.0
1141,61.0,0.0,570.0,0.0,64.0
1142,73.0,0.0,180.0,0.0,64.0
1143,76.0,48.0,40.0,0.0,64.0
1144,75.0,192.0,40.0,0.0,64.0
1145,76.0,48.0,240.0,0.0,64.0
1146,42.0,48.0,180.0,0.0,64.0
1147,70.0,0.0,180.0,0.0,64.0
1148,47.0,0.0,180.0,0.0,64.0
1149,66.0,0.0,180.0,0.0,64.0
1150,74.0,96.0,40.0,0.0,64.0
1151,73.0,48.0,90.0,0.0,64.0
1152,59.0,96.0,90.0,0.0,64.0
1153,74.0,48.0,40.0,0.0,64.0
1154,68.0,0.0,180.0,0.0,64.0
1155,41.0,0.0,180.0,0.0,64.0
1156,73.0,0.0,40.0,0.0,64.0
1157,61.0,48.0,90.0,0.0,64.0
1158,71.0,48.0,150.0,0.0,64.0
1159,42.0,192.0,780.0,0.0,64.0
1160,66.0,48.0,660.0,0.0,64.0
1161,62.0,48.0,180.0,0.0,64.0
1162,70.0,48.0,40.0,0.0,64.0
1163,68.0,48.0,40.0,0.0,64.0
1164,70.0,0.0,40.0,0.0,64.0
1165,71.0,48.0,40.0,0.0,64.0
1166,61.0,0.0,90.0,0.0,64.0
1167,76.0,96.0,40.0,0.0,64.0
1168,73.0,96.0,90.0,0.0,64.0
1169,59.0,0.0,90.0,0.0,64.0
1170,61.0,96.0,90.0,0.0,64.0
1171,71.0,96.0,180.0,0.0,64.0
1172,62.0,0.0,90.0,0.0,64.0
1173,64.0,0.0,180.0,0.0,64.0
1174,70.0,48.0,150.0,0.0,64.0
1175,67.0,0.0,90.0,0.0,64.0
1176,71.0,0.0,40.0,0.0,64.0
1177,63.0,0.0,180.0,0.0,64.0
1178,47.0,96.0,390.0,0.0,64.0
1179,66.0,192.0,180.0,0.0,64.0
1180,69.0,0.0,180.0,0.0,64.0
1181,71.0,0.0,390.0,0.0,64.0
1182,65.0,0.0,180.0,0.0,64.0
1183,68.0,0.0,180.0,0.0,64.0
1184,62.0,0.0,180.0,0.0,64.0
1185,68.0,48.0,40.0,0.0,64.0
1186,67.0,48.0,40.0,0.0,64.0
1187,68.0,24.0,40.0,0.0,64.0
1188,69.0,24.0,20.0,0.0,64.0
1189,68.0,24.0,20.0,0.0,64.0
1190,69.0,24.0,20.0,0.0,64.0
1191,68.0,24.0,20.0,0.0,64.0
1192,69.0,24.0,20.0,0.0,64.0
1193,68.0,24.0,20.0,0.0,64.0
1194,67.0,24.0,20.0,0.0,64.0
1195,68.0,48.0,20.0,0.0,64.0
1196,74.0,48.0,40.0,0.0,64.0
1197,68.0,48.0,40.0,0.0,64.0
1198,67.0,48.0,40.0,0.0,64.0
1199,68.0,24.0,40.0,0.0,64.0
1200,69.0,24.0,20.0,0.0,64.0
1201,68.0,24.0,20.0,0.0,64.0
1202,69.0,24.0,20.0,0.0,64.0
1203,68.0,24.0,20.0,0.0,64.0
1204,69.0,24.0,20.0,0.0,64.0
1205,68.0,24.0,20.0,0.0,64.0
1206,67.0,24.0,20.0,0.0,64.0
1207,68.0,384.0,20.0,0.0,64.0
1208,77.0,192.0,570.0,0.0,64.0
1209,62.0,192.0,180.0,0.0,64.0
1210,59.0,0.0,390.0,0.0,64.0
1211,74.0,0.0,390.0,0.0,64.0
1212,68.0,0.0,390.0,0.0,64.0
1213,47.0,0.0,180.0,0.0,64.0
1214,64.0,0.0,390.0,0.0,64.0
1215,40.0,0.0,390.0,0.0,64.0
1216,69.0,0.0,180.0,0.0,64.0
1217,72.0,0.0,180.0,0.0,64.0
1218,76.0,48.0,240.0,0.0,64.0
1219,60.0,48.0,180.0,0.0,64.0
1220,74.0,48.0,40.0,0.0,64.0
1221,72.0,48.0,40.0,0.0,64.0
1222,71.0,48.0,40.0,0.0,64.0
1223,72.0,48.0,40.0,0.0,64.0
1224,76.0,96.0,40.0,0.0,64.0
1225,68.0,48.0,90.0,0.0,64.0
1226,69.0,48.0,40.0,0.0,64.0
1227,71.0,48.0,40.0,0.0,64.0
1228,69.0,48.0,40.0,0.0,64.0
1229,68.0,48.0,40.0,0.0,64.0
1230,69.0,48.0,40.0,0.0,64.0
1231,72.0,96.0,40.0,0.0,64.0
1232,64.0,48.0,90.0,0.0,64.0
1233,65.0,48.0,40.0,0.0,64.0
1234,67.0,48.0,40.0,0.0,64.0
1235,65.0,48.0,40.0,0.0,64.0
1236,64.0,48.0,40.0,0.0,64.0
1237,65.0,48.0,40.0,0.0,64.0
1238,69.0,96.0,40.0,0.0,64.0
1239,72.0,96.0,90.0,0.0,64.0
1240,64.0,288.0,90.0,0.0,64.0
1241,63.0,0.0,300.0,0.0,64.0
1242,57.0,0.0,180.0,0.0,64.0
1243,54.0,0.0,180.0,0.0,64.0
1244,72.0,0.0,180.0,0.0,64.0
1245,69.0,192.0,180.0,0.0,64.0
1246,71.0,48.0,420.0,0.0,64.0
1247,67.0,192.0,180.0,0.0,64.0
1248,59.0,0.0,180.0,0.0,64.0
1249,64.0,0.0,180.0,0.0,64.0
1250,55.0,0.0,180.0,0.0,64.0
1251,66.0,0.0,180.0,0.0,64.0
1252,54.0,0.0,180.0,0.0,64.0
1253,51.0,48.0,180.0,0.0,64.0
1254,69.0,0.0,180.0,0.0,64.0
1255,55.0,48.0,180.0,0.0,64.0
1256,64.0,0.0,180.0,0.0,64.0
1257,67.0,0.0,180.0,0.0,64.0
1258,52.0,0.0,180.0,0.0,64.0
1259,81.0,48.0,40.0,0.0,64.0
1260,79.0,48.0,40.0,0.0,64.0
1261,78.0,0.0,40.0,0.0,64.0
1262,47.0,96.0,180.0,0.0,64.0
1263,79.0,48.0,40.0,0.0,64.0
1264,83.0,96.0,40.0,0.0,64.0
1265,75.0,0.0,90.0,0.0,64.0
1266,76.0,48.0,420.0,0.0,64.0
1267,48.0,48.0,180.0,0.0,64.0
1268,69.0,48.0,40.0,0.0,64.0
1269,67.0,48.0,40.0,0.0,64.0
1270,66.0,0.0,40.0,0.0,64.0
1271,52.0,48.0,180.0,0.0,64.0
1272,67.0,48.0,40.0,0.0,64.0
1273,71.0,96.0,40.0,0.0,64.0
1274,64.0,0.0,90.0,0.0,64.0
1275,66.0,48.0,570.0,0.0,64.0
1276,46.0,48.0,180.0,0.0,64.0
1277,74.0,48.0,40.0,0.0,64.0
1278,76.0,48.0,40.0,0.0,64.0
1279,78.0,0.0,40.0,0.0,64.0
1280,76.0,48.0,40.0,0.0,64.0
1281,61.0,48.0,180.0,0.0,64.0
1282,79.0,96.0,40.0,0.0,64.0
1283,70.0,0.0,90.0,0.0,64.0
1284,71.0,48.0,40.0,0.0,64.0
1285,62.0,0.0,180.0,0.0,64.0
1286,74.0,48.0,40.0,0.0,64.0
1287,73.0,48.0,40.0,0.0,64.0
1288,71.0,0.0,40.0,0.0,64.0
1289,58.0,0.0,180.0,0.0,64.0
1290,61.0,0.0,180.0,0.0,64.0
1291,73.0,48.0,40.0,0.0,64.0
1292,66.0,0.0,390.0,0.0,64.0
1293,76.0,48.0,40.0,0.0,64.0
1294,74.0,48.0,40.0,0.0,64.0
1295,73.0,48.0,40.0,0.0,64.0
1296,74.0,48.0,40.0,0.0,64.0
1297,59.0,0.0,180.0,0.0,64.0
1298,71.0,48.0,40.0,0.0,64.0
1299,73.0,48.0,40.0,0.0,64.0
1300,74.0,0.0,40.0,0.0,64.0
1301,61.0,0.0,180.0,0.0,64.0
1302,76.0,48.0,40.0,0.0,64.0
1303,70.0,192.0,180.0,0.0,64.0
1304,54.0,0.0,180.0,0.0,64.0
1305,78.0,48.0,40.0,0.0,64.0
1306,80.0,48.0,40.0,0.0,64.0
1307,82.0,0.0,40.0,0.0,64.0
1308,83.0,0.0,960.0,0.0,64.0
1309,55.0,96.0,180.0,0.0,64.0
1310,59.0,0.0,180.0,0.0,64.0
1311,71.0,0.0,90.0,0.0,64.0
1312,74.0,0.0,300.0,0.0,64.0
1313,79.0,96.0,90.0,0.0,64.0
1314,69.0,0.0,90.0,0.0,64.0
1315,78.0,96.0,90.0,0.0,64.0
1316,53.0,96.0,480.0,0.0,64.0
1317,68.0,0.0,570.0,0.0,64.0
1318,80.0,0.0,570.0,0.0,64.0
1319,73.0,96.0,90.0,0.0,64.0
1320,58.0,0.0,90.0,0.0,64.0
1321,59.0,0.0,90.0,0.0,64.0
1322,74.0,96.0,90.0,0.0,64.0
1323,58.0,0.0,90.0,0.0,64.0
1324,73.0,96.0,90.0,0.0,64.0
1325,59.0,0.0,180.0,0.0,64.0
1326,74.0,0.0,180.0,0.0,64.0
1327,54.0,96.0,90.0,0.0,64.0
1328,55.0,96.0,90.0,0.0,64.0
1329,56.0,96.0,90.0,0.0,64.0
1330,57.0,96.0,90.0,0.0,64.0
1331,58.0,96.0,90.0,0.0,64.0
1332,59.0,96.0,90.0,0.0,64.0
1333,53.0,192.0,90.0,0.0,64.0
1334,42.0,1536.0,180.0,0.0,64.0
1335,61.0,0.0,180.0,0.0,64.0
1336,82.0,0.0,180.0,0.0,64.0
1337,76.0,0.0,180.0,0.0,64.0
1338,73.0,0.0,180.0,0.0,64.0
1339,54.0,192.0,15.0,0.0,64.0
1340,66.0,0.0,15.0,0.0,64.0
1341,59.0,0.0,1530.0,0.0,64.0
1342,54.0,0.0,1530.0,0.0,64.0
1343,47.0,0.0,1530.0,0.0,64.0
1344,83.0,2304.0,1530.0,0.0,64.0
1345,78.0,0.0,15.0,0.0,64.0
1346,75.0,0.0,1530.0,0.0,64.0
1347,78.0,96.0,180.0,0.0,64.0
1348,74.0,96.0,90.0,0.0,64.0
1349,76.0,96.0,90.0,0.0,64.0
1350,73.0,96.0,90.0,0.0,64.0
1351,74.0,192.0,90.0,0.0,64.0
1352,71.0,192.0,180.0,0.0,64.0
1353,83.0,96.0,180.0,0.0,64.0
1354,82.0,96.0,90.0,0.0,64.0
1355,83.0,96.0,90.0,0.0,64.0
1356,80.0,96.0,90.0,0.0,64.0
1357,82.0,192.0,90.0,0.0,64.0
1358,78.0,96.0,180.0,0.0,64.0
1359,83.0,96.0,90.0,0.0,64.0
1360,78.0,192.0,90.0,0.0,64.0
1361,79.0,192.0,180.0,0.0,64.0
1362,76.0,192.0,180.0,0.0,64.0
1363,69.0,192.0,180.0,0.0,64.0
1364,81.0,96.0,180.0,0.0,64.0
1365,78.0,96.0,90.0,0.0,64.0
1366,79.0,96.0,90.0,0.0,64.0
1367,76.0,96.0,90.0,0.0,64.0
1368,78.0,192.0,90.0,0.0,64.0
1369,74.0,96.0,180.0,0.0,64.0
1370,79.0,96.0,90.0,0.0,64.0
1371,74.0,192.0,90.0,0.0,64.0
1372,76.0,192.0,180.0,0.0,64.0
1373,73.0,192.0,180.0,0.0,64.0
1374,66.0,192.0,180.0,0.0,64.0
1375,78.0,96.0,180.0,0.0,64.0
1376,74.0,96.0,90.0,0.0,64.0
1377,76.0,96.0,90.0,0.0,64.0
1378,73.0,96.0,90.0,0.0,64.0
1379,74.0,96.0,90.0,0.0,64.0
1380,71.0,96.0,90.0,0.0,64.0
1381,73.0,96.0,90.0,0.0,64.0
1382,71.0,96.0,180.0,0.0,64.0
1383,74.0,96.0,90.0,0.0,64.0
1384,76.0,0.0,90.0,0.0,64.0
1385,78.0,96.0,180.0,0.0,64.0
1386,69.0,96.0,90.0,0.0,64.0
1387,71.0,0.0,90.0,0.0,64.0
1388,80.0,96.0,180.0,0.0,64.0
1389,68.0,96.0,90.0,0.0,64.0
1390,69.0,0.0,90.0,0.0,64.0
1391,66.0,0.0,180.0,0.0,64.0
1392,81.0,96.0,90.0,0.0,64.0
1393,83.0,96.0,90.0,0.0,64.0
1394,81.0,96.0,90.0,0.0,64.0
1395,78.0,96.0,180.0,0.0,64.0
1396,83.0,0.0,90.0,0.0,64.0
1397,85.0,0.0,180.0,0.0,64.0
1398,77.0,96.0,90.0,0.0,64.0
1399,78.0,96.0,90.0,0.0,64.0
1400,80.0,192.0,180.0,0.0,64.0
1401,75.0,96.0,90.0,0.0,64.0
1402,77.0,0.0,90.0,0.0,64.0
1403,81.0,192.0,780.0,0.0,64.0
1404,73.0,96.0,180.0,0.0,64.0
1405,78.0,96.0,90.0,0.0,64.0
1406,73.0,192.0,90.0,0.0,64.0
1407,74.0,192.0,180.0,0.0,64.0
1408,71.0,0.0,180.0,0.0,64.0
1409,80.0,0.0,780.0,0.0,64.0
1410,64.0,192.0,180.0,0.0,64.0
1411,76.0,96.0,180.0,0.0,64.0
1412,73.0,96.0,90.0,0.0,64.0
1413,74.0,96.0,90.0,0.0,64.0
1414,71.0,96.0,90.0,0.0,64.0
1415,73.0,192.0,90.0,0.0,64.0
1416,69.0,96.0,180.0,0.0,64.0
1417,78.0,192.0,780.0,0.0,64.0
1418,74.0,96.0,90.0,0.0,64.0
1419,69.0,192.0,90.0,0.0,64.0
1420,71.0,192.0,180.0,0.0,64.0
1421,68.0,0.0,180.0,0.0,64.0
1422,77.0,96.0,390.0,0.0,64.0
1423,61.0,192.0,180.0,0.0,64.0
1424,73.0,0.0,180.0,0.0,64.0
1425,69.0,96.0,90.0,0.0,64.0
1426,78.0,96.0,390.0,0.0,64.0
1427,71.0,96.0,90.0,0.0,64.0
1428,68.0,96.0,90.0,0.0,64.0
1429,69.0,0.0,90.0,0.0,64.0
1430,66.0,96.0,90.0,0.0,64.0
1431,68.0,96.0,90.0,0.0,64.0
1432,78.0,96.0,180.0,0.0,64.0
1433,69.0,96.0,90.0,0.0,64.0
1434,71.0,0.0,90.0,0.0,64.0
1435,73.0,0.0,180.0,0.0,64.0
1436,76.0,96.0,90.0,0.0,64.0
1437,78.0,96.0,90.0,0.0,64.0
1438,71.0,96.0,180.0,0.0,64.0
1439,74.0,96.0,90.0,0.0,64.0
1440,76.0,0.0,90.0,0.0,64.0
1441,70.0,0.0,180.0,0.0,64.0
1442,73.0,96.0,90.0,0.0,64.0
1443,74.0,96.0,90.0,0.0,64.0
1444,76.0,96.0,90.0,0.0,64.0
1445,66.0,0.0,180.0,0.0,64.0
1446,78.0,96.0,90.0,0.0,64.0
1447,71.0,0.0,180.0,0.0,64.0
1448,74.0,96.0,90.0,0.0,64.0
1449,76.0,96.0,90.0,0.0,64.0
1450,69.0,0.0,180.0,0.0,64.0
1451,73.0,96.0,90.0,0.0,64.0
1452,74.0,96.0,90.0,0.0,64.0
1453,71.0,96.0,90.0,0.0,64.0
1454,67.0,0.0,180.0,0.0,64.0
1455,73.0,96.0,90.0,0.0,64.0
1456,66.0,96.0,180.0,0.0,64.0
1457,74.0,96.0,90.0,0.0,64.0
1458,76.0,0.0,90.0,0.0,64.0
1459,64.0,96.0,180.0,0.0,64.0
1460,73.0,96.0,90.0,0.0,64.0
1461,74.0,0.0,90.0,0.0,64.0
1462,67.0,96.0,180.0,0.0,64.0
1463,71.0,96.0,90.0,0.0,64.0
1464,73.0,0.0,90.0,0.0,64.0
1465,70.0,96.0,90.0,0.0,64.0
1466,66.0,96.0,180.0,0.0,64.0
1467,73.0,0.0,90.0,0.0,64.0
1468,68.0,0.0,180.0,0.0,64.0
1469,71.0,96.0,90.0,0.0,64.0
1470,74.0,96.0,90.0,0.0,64.0
1471,70.0,96.0,180.0,0.0,64.0
1472,73.0,96.0,90.0,0.0,64.0
1473,76.0,0.0,90.0,0.0,64.0
1474,74.0,96.0,90.0,0.0,64.0
1475,71.0,0.0,180.0,0.0,64.0
1476,78.0,96.0,90.0,0.0,64.0
1477,76.0,96.0,90.0,0.0,64.0
1478,73.0,0.0,180.0,0.0,64.0
1479,79.0,96.0,90.0,0.0,64.0
1480,78.0,96.0,90.0,0.0,64.0
1481,74.0,0.0,180.0,0.0,64.0
1482,81.0,96.0,90.0,0.0,64.0
1483,76.0,96.0,300.0,0.0,64.0
1484,80.0,96.0,90.0,0.0,64.0
1485,82.0,96.0,90.0,0.0,64.0
1486,83.0,96.0,300.0,0.0,64.0
1487,74.0,96.0,90.0,0.0,64.0
1488,83.0,96.0,90.0,0.0,64.0
1489,66.0,0.0,180.0,0.0,64.0
1490,82.0,0.0,180.0,0.0,64.0
1491,73.0,96.0,15.0,0.0,64.0
1492,71.0,0.0,180.0,0.0,64.0
1493,62.0,96.0,90.0,0.0,64.0
1494,83.0,0.0,390.0,0.0,64.0
1495,64.0,96.0,90.0,0.0,64.0
1496,61.0,96.0,90.0,0.0,64.0
1497,73.0,0.0,180.0,0.0,64.0
1498,62.0,96.0,90.0,0.0,64.0
1499,74.0,96.0,90.0,0.0,64.0
1500,59.0,0.0,180.0,0.0,64.0
1501,76.0,96.0,90.0,0.0,64.0
1502,71.0,0.0,180.0,0.0,64.0
1503,74.0,96.0,90.0,0.0,64.0
1504,86.0,0.0,180.0,0.0,64.0
1505,76.0,96.0,90.0,0.0,64.0
1506,78.0,0.0,180.0,0.0,64.0
1507,70.0,96.0,90.0,0.0,64.0
1508,85.0,0.0,180.0,0.0,64.0
1509,71.0,96.0,90.0,0.0,64.0
1510,83.0,0.0,180.0,0.0,64.0
1511,73.0,0.0,180.0,0.0,64.0
1512,68.0,96.0,90.0,0.0,64.0
1513,70.0,192.0,90.0,0.0,64.0
1514,74.0,96.0,780.0,0.0,64.0
1515,82.0,96.0,180.0,0.0,64.0
1516,66.0,0.0,180.0,0.0,64.0
1517,71.0,96.0,90.0,0.0,64.0
1518,83.0,0.0,180.0,0.0,64.0
1519,66.0,96.0,90.0,0.0,64.0
1520,76.0,96.0,90.0,0.0,64.0
1521,67.0,192.0,180.0,0.0,64.0
1522,78.0,0.0,90.0,0.0,64.0
1523,64.0,0.0,180.0,0.0,64.0
1524,79.0,96.0,300.0,0.0,64.0
1525,73.0,0.0,780.0,0.0,64.0
1526,57.0,96.0,180.0,0.0,64.0
1527,79.0,0.0,90.0,0.0,64.0
1528,69.0,0.0,180.0,0.0,64.0
1529,78.0,96.0,90.0,0.0,64.0
1530,76.0,96.0,90.0,0.0,64.0
1531,66.0,96.0,90.0,0.0,64.0
1532,74.0,0.0,90.0,0.0,64.0
1533,76.0,96.0,90.0,0.0,64.0
1534,67.0,0.0,90.0,0.0,64.0
1535,64.0,96.0,90.0,0.0,64.0
1536,66.0,96.0,90.0,0.0,64.0
1537,71.0,96.0,780.0,0.0,64.0
1538,62.0,96.0,180.0,0.0,64.0
1539,78.0,96.0,15.0,0.0,64.0
1540,76.0,0.0,90.0,0.0,64.0
1541,67.0,96.0,90.0,0.0,64.0
1542,74.0,96.0,90.0,0.0,64.0
1543,62.0,0.0,90.0,0.0,64.0
1544,64.0,0.0,180.0,0.0,64.0
1545,73.0,96.0,90.0,0.0,64.0
1546,74.0,192.0,90.0,0.0,64.0
1547,76.0,96.0,300.0,0.0,64.0
1548,61.0,0.0,180.0,0.0,64.0
1549,70.0,0.0,390.0,0.0,64.0
1550,54.0,0.0,180.0,0.0,64.0
1551,76.0,96.0,90.0,0.0,64.0
1552,74.0,96.0,90.0,0.0,64.0
1553,66.0,96.0,180.0,0.0,64.0
1554,73.0,0.0,90.0,0.0,64.0
1555,62.0,96.0,90.0,0.0,64.0
1556,71.0,0.0,390.0,0.0,64.0
1557,64.0,96.0,90.0,0.0,64.0
1558,61.0,96.0,90.0,0.0,64.0
1559,78.0,0.0,180.0,0.0,64.0
1560,62.0,96.0,90.0,0.0,64.0
1561,83.0,0.0,570.0,0.0,64.0
1562,59.0,96.0,90.0,0.0,64.0
1563,61.0,96.0,90.0,0.0,64.0
1564,78.0,0.0,180.0,0.0,64.0
1565,62.0,96.0,90.0,0.0,64.0
1566,64.0,96.0,90.0,0.0,64.0
1567,73.0,96.0,390.0,0.0,64.0
1568,66.0,96.0,90.0,0.0,64.0
1569,67.0,96.0,90.0,0.0,64.0
1570,81.0,0.0,180.0,0.0,64.0
1571,64.0,96.0,90.0,0.0,64.0
1572,66.0,0.0,90.0,0.0,64.0
1573,62.0,96.0,90.0,0.0,64.0
1574,86.0,0.0,570.0,0.0,64.0
1575,64.0,96.0,90.0,0.0,64.0
1576,66.0,96.0,90.0,0.0,64.0
1577,81.0,96.0,180.0,0.0,64.0
1578,67.0,0.0,90.0,0.0,64.0
1579,69.0,96.0,90.0,0.0,64.0
1580,76.0,0.0,390.0,0.0,64.0
1581,71.0,96.0,90.0,0.0,64.0
1582,85.0,0.0,390.0,0.0,64.0
1583,67.0,96.0,90.0,0.0,64.0
1584,69.0,96.0,90.0,0.0,64.0
1585,74.0,0.0,390.0,0.0,64.0
1586,66.0,96.0,90.0,0.0,64.0
1587,69.0,96.0,90.0,0.0,64.0
1588,67.0,96.0,90.0,0.0,64.0
1589,66.0,96.0,90.0,0.0,64.0
1590,73.0,96.0,570.0,0.0,64.0
1591,64.0,96.0,90.0,0.0,64.0
1592,66.0,96.0,90.0,0.0,64.0
1593,83.0,0.0,15.0,0.0,64.0
1594,62.0,96.0,90.0,0.0,64.0
1595,64.0,0.0,90.0,0.0,64.0
1596,61.0,96.0,90.0,0.0,64.0
1597,82.0,0.0,390.0,0.0,64.0
1598,62.0,0.0,90.0,0.0,64.0
1599,73.0,0.0,180.0,0.0,64.0
1600,64.0,96.0,90.0,0.0,64.0
1601,66.0,96.0,90.0,0.0,64.0
1602,71.0,96.0,180.0,0.0,64.0
1603,83.0,96.0,390.0,0.0,64.0
1604,62.0,96.0,90.0,0.0,64.0
1605,64.0,0.0,90.0,0.0,64.0
1606,73.0,0.0,180.0,0.0,64.0
1607,61.0,96.0,90.0,0.0,64.0
1608,62.0,0.0,90.0,0.0,64.0
1609,74.0,96.0,390.0,0.0,64.0
1610,59.0,96.0,90.0,0.0,64.0
1611,61.0,96.0,90.0,0.0,64.0
1612,59.0,0.0,180.0,0.0,64.0
1613,78.0,96.0,90.0,0.0,64.0
1614,62.0,0.0,90.0,0.0,64.0
1615,64.0,0.0,90.0,0.0,64.0
1616,80.0,0.0,90.0,0.0,64.0
1617,66.0,0.0,180.0,0.0,64.0
1618,57.0,96.0,90.0,0.0,64.0
1619,73.0,96.0,180.0,0.0,64.0
1620,81.0,0.0,180.0,0.0,64.0
1621,59.0,0.0,90.0,0.0,64.0
1622,68.0,96.0,180.0,0.0,64.0
1623,83.0,0.0,180.0,0.0,64.0
1624,77.0,0.0,180.0,0.0,64.0
1625,56.0,96.0,90.0,0.0,64.0
1626,57.0,0.0,90.0,0.0,64.0
1627,78.0,0.0,180.0,0.0,64.0
1628,85.0,96.0,180.0,0.0,64.0
1629,54.0,0.0,180.0,0.0,64.0
1630,69.0,96.0,90.0,0.0,64.0
1631,71.0,0.0,90.0,0.0,64.0
1632,66.0,0.0,180.0,0.0,64.0
1633,86.0,0.0,180.0,0.0,64.0
1634,81.0,0.0,180.0,0.0,64.0
1635,69.0,96.0,90.0,0.0,64.0
1636,71.0,96.0,90.0,0.0,64.0
1637,85.0,96.0,480.0,0.0,64.0
1638,65.0,96.0,90.0,0.0,64.0
1639,80.0,0.0,180.0,0.0,64.0
1640,73.0,0.0,180.0,0.0,64.0
1641,66.0,96.0,90.0,0.0,64.0
1642,78.0,0.0,180.0,0.0,64.0
1643,68.0,0.0,180.0,0.0,64.0
1644,63.0,96.0,90.0,0.0,64.0
1645,65.0,96.0,90.0,0.0,64.0
1646,69.0,0.0,780.0,0.0,64.0
1647,61.0,96.0,180.0,0.0,64.0
1648,77.0,0.0,180.0,0.0,64.0
1649,83.0,0.0,90.0,0.0,64.0
1650,81.0,96.0,90.0,0.0,64.0
1651,78.0,96.0,180.0,0.0,64.0
1652,66.0,0.0,90.0,0.0,64.0
1653,61.0,0.0,90.0,0.0,64.0
1654,80.0,0.0,90.0,0.0,64.0
1655,62.0,192.0,180.0,0.0,64.0
1656,78.0,0.0,390.0,0.0,64.0
1657,71.0,96.0,90.0,0.0,64.0
1658,73.0,0.0,90.0,0.0,64.0
1659,59.0,96.0,180.0,0.0,64.0
1660,68.0,0.0,780.0,0.0,64.0
1661,52.0,96.0,180.0,0.0,64.0
1662,74.0,96.0,15.0,0.0,64.0
1663,73.0,96.0,90.0,0.0,64.0
1664,80.0,96.0,180.0,0.0,64.0
1665,64.0,0.0,180.0,0.0,64.0
1666,71.0,0.0,90.0,0.0,64.0
1667,61.0,0.0,90.0,0.0,64.0
1668,81.0,0.0,480.0,0.0,64.0
1669,69.0,96.0,90.0,0.0,64.0
1670,62.0,0.0,90.0,0.0,64.0
1671,71.0,96.0,90.0,0.0,64.0
1672,59.0,96.0,90.0,0.0,64.0
1673,73.0,96.0,300.0,0.0,64.0
1674,61.0,96.0,90.0,0.0,64.0
1675,66.0,96.0,780.0,0.0,64.0
1676,57.0,96.0,180.0,0.0,64.0
1677,81.0,0.0,90.0,0.0,64.0
1678,73.0,0.0,90.0,0.0,64.0
1679,83.0,96.0,90.0,0.0,64.0
1680,71.0,0.0,90.0,0.0,64.0
1681,62.0,0.0,90.0,0.0,64.0
1682,57.0,0.0,90.0,0.0,64.0
1683,85.0,96.0,90.0,0.0,64.0
1684,69.0,0.0,90.0,0.0,64.0
1685,59.0,96.0,180.0,0.0,64.0
1686,68.0,0.0,90.0,0.0,64.0
1687,86.0,96.0,90.0,0.0,64.0
1688,85.0,0.0,90.0,0.0,64.0
1689,69.0,0.0,90.0,0.0,64.0
1690,56.0,0.0,180.0,0.0,64.0
1691,83.0,96.0,90.0,0.0,64.0
1692,81.0,0.0,90.0,0.0,64.0
1693,49.0,96.0,180.0,0.0,64.0
1694,65.0,0.0,390.0,0.0,64.0
1695,80.0,0.0,300.0,0.0,64.0
1696,71.0,96.0,15.0,0.0,64.0
1697,69.0,96.0,90.0,0.0,64.0
1698,61.0,0.0,180.0,0.0,64.0
1699,68.0,0.0,90.0,0.0,64.0
1700,73.0,0.0,390.0,0.0,64.0
1701,66.0,192.0,390.0,0.0,64.0
1702,78.0,96.0,15.0,0.0,64.0
1703,57.0,96.0,90.0,0.0,64.0
1704,59.0,96.0,90.0,0.0,64.0
1705,56.0,96.0,90.0,0.0,64.0
1706,57.0,0.0,90.0,0.0,64.0
1707,54.0,0.0,180.0,0.0,64.0
1708,69.0,0.0,90.0,0.0,64.0
1709,78.0,96.0,90.0,0.0,64.0
1710,57.0,0.0,180.0,0.0,64.0
1711,67.0,0.0,90.0,0.0,64.0
1712,76.0,96.0,90.0,0.0,64.0
1713,78.0,96.0,90.0,0.0,64.0
1714,69.0,0.0,90.0,0.0,64.0
1715,59.0,0.0,390.0,0.0,64.0
1716,66.0,96.0,90.0,0.0,64.0
1717,74.0,0.0,90.0,0.0,64.0
1718,76.0,96.0,90.0,0.0,64.0
1719,67.0,0.0,90.0,0.0,64.0
1720,73.0,96.0,90.0,0.0,64.0
1721,64.0,0.0,90.0,0.0,64.0
1722,66.0,0.0,90.0,0.0,64.0
1723,74.0,192.0,90.0,0.0,64.0
1724,62.0,0.0,180.0,0.0,64.0
1725,71.0,0.0,180.0,0.0,64.0
1726,59.0,96.0,90.0,0.0,64.0
1727,66.0,0.0,180.0,0.0,64.0
1728,57.0,96.0,90.0,0.0,64.0
1729,74.0,96.0,180.0,0.0,64.0
1730,59.0,0.0,90.0,0.0,64.0
1731,55.0,96.0,90.0,0.0,64.0
1732,59.0,0.0,390.0,0.0,64.0
1733,76.0,0.0,390.0,0.0,64.0
1734,57.0,96.0,90.0,0.0,64.0
1735,54.0,96.0,90.0,0.0,64.0
1736,55.0,192.0,90.0,0.0,64.0
1737,52.0,0.0,180.0,0.0,64.0
1738,76.0,0.0,90.0,0.0,64.0
1739,67.0,96.0,90.0,0.0,64.0
1740,55.0,96.0,180.0,0.0,64.0
1741,74.0,0.0,90.0,0.0,64.0
1742,66.0,96.0,90.0,0.0,64.0
1743,76.0,0.0,90.0,0.0,64.0
1744,67.0,0.0,90.0,0.0,64.0
1745,64.0,96.0,90.0,0.0,64.0
1746,73.0,0.0,90.0,0.0,64.0
1747,57.0,0.0,390.0,0.0,64.0
1748,74.0,0.0,90.0,0.0,64.0
1749,66.0,96.0,90.0,0.0,64.0
1750,62.0,0.0,90.0,0.0,64.0
1751,71.0,96.0,90.0,0.0,64.0
1752,73.0,0.0,90.0,0.0,64.0
1753,64.0,192.0,90.0,0.0,64.0
1754,69.0,0.0,180.0,0.0,64.0
1755,61.0,0.0,180.0,0.0,64.0
1756,57.0,96.0,90.0,0.0,64.0
1757,73.0,0.0,180.0,0.0,64.0
1758,55.0,96.0,90.0,0.0,64.0
1759,64.0,0.0,180.0,0.0,64.0
1760,57.0,96.0,90.0,0.0,64.0
1761,54.0,96.0,90.0,0.0,64.0
1762,74.0,0.0,390.0,0.0,64.0
1763,57.0,0.0,390.0,0.0,64.0
1764,55.0,96.0,90.0,0.0,64.0
1765,52.0,96.0,90.0,0.0,64.0
1766,54.0,192.0,90.0,0.0,64.0
1767,50.0,0.0,180.0,0.0,64.0
1768,74.0,96.0,90.0,0.0,64.0
1769,66.0,0.0,90.0,0.0,64.0
1770,64.0,0.0,90.0,0.0,64.0
1771,54.0,0.0,180.0,0.0,64.0
1772,73.0,96.0,90.0,0.0,64.0
1773,74.0,96.0,90.0,0.0,64.0
1774,66.0,0.0,90.0,0.0,64.0
1775,62.0,96.0,90.0,0.0,64.0
1776,71.0,96.0,480.0,0.0,64.0
1777,55.0,96.0,180.0,0.0,64.0
1778,66.0,0.0,90.0,0.0,64.0
1779,54.0,96.0,180.0,0.0,64.0
1780,64.0,96.0,90.0,0.0,64.0
1781,66.0,0.0,90.0,0.0,64.0
1782,67.0,96.0,480.0,0.0,64.0
1783,52.0,0.0,180.0,0.0,64.0
1784,74.0,96.0,90.0,0.0,64.0
1785,50.0,96.0,180.0,0.0,64.0
1786,73.0,96.0,90.0,0.0,64.0
1787,74.0,0.0,90.0,0.0,64.0
1788,49.0,96.0,180.0,0.0,64.0
1789,76.0,96.0,480.0,0.0,64.0
1790,71.0,0.0,90.0,0.0,64.0
1791,70.0,96.0,90.0,0.0,64.0
1792,47.0,0.0,180.0,0.0,64.0
1793,71.0,96.0,90.0,0.0,64.0
1794,46.0,0.0,180.0,0.0,64.0
1795,73.0,0.0,90.0,0.0,64.0
1796,74.0,96.0,90.0,0.0,64.0
1797,71.0,0.0,90.0,0.0,64.0
1798,42.0,96.0,180.0,0.0,64.0
1799,73.0,0.0,90.0,0.0,64.0
1800,76.0,96.0,90.0,0.0,64.0
1801,70.0,0.0,90.0,0.0,64.0
1802,73.0,0.0,90.0,0.0,64.0
1803,71.0,0.0,180.0,0.0,64.0
1804,74.0,96.0,90.0,0.0,64.0
1805,47.0,0.0,180.0,0.0,64.0
1806,78.0,96.0,90.0,0.0,64.0
1807,50.0,0.0,180.0,0.0,64.0
1808,71.0,96.0,90.0,0.0,64.0
1809,66.0,0.0,180.0,0.0,64.0
1810,74.0,96.0,90.0,0.0,64.0
1811,64.0,0.0,90.0,0.0,64.0
1812,52.0,96.0,180.0,0.0,64.0
1813,73.0,96.0,90.0,0.0,64.0
1814,67.0,0.0,90.0,0.0,64.0
1815,76.0,0.0,90.0,0.0,64.0
1816,61.0,0.0,90.0,0.0,64.0
1817,70.0,96.0,90.0,0.0,64.0
1818,54.0,96.0,180.0,0.0,64.0
1819,73.0,0.0,90.0,0.0,64.0
1820,64.0,0.0,90.0,0.0,64.0
1821,47.0,96.0,390.0,0.0,64.0
1822,62.0,96.0,90.0,0.0,64.0
1823,71.0,96.0,180.0,0.0,64.0
1824,66.0,0.0,90.0,0.0,64.0
1825,59.0,96.0,90.0,0.0,64.0
1826,74.0,0.0,180.0,0.0,64.0
1827,62.0,0.0,90.0,0.0,64.0
1828,61.0,96.0,90.0,0.0,64.0
1829,64.0,0.0,90.0,0.0,64.0
1830,73.0,0.0,180.0,0.0,64.0
1831,78.0,96.0,180.0,0.0,64.0
1832,58.0,96.0,90.0,0.0,64.0
1833,42.0,0.0,180.0,0.0,64.0
1834,61.0,0.0,90.0,0.0,64.0
1835,59.0,0.0,570.0,0.0,64.0
1836,62.0,0.0,180.0,0.0,64.0
1837,74.0,96.0,90.0,0.0,64.0
1838,47.0,96.0,180.0,0.0,64.0
1839,76.0,0.0,90.0,0.0,64.0
1840,73.0,96.0,90.0,0.0,64.0
1841,64.0,0.0,180.0,0.0,64.0
1842,49.0,96.0,180.0,0.0,64.0
1843,74.0,0.0,90.0,0.0,64.0
1844,50.0,0.0,180.0,0.0,64.0
1845,66.0,96.0,90.0,0.0,64.0
1846,71.0,0.0,180.0,0.0,64.0
1847,78.0,96.0,90.0,0.0,64.0
1848,83.0,96.0,180.0,0.0,64.0
1849,52.0,0.0,180.0,0.0,64.0
1850,76.0,96.0,90.0,0.0,64.0
1851,67.0,0.0,180.0,0.0,64.0
1852,79.0,0.0,90.0,0.0,64.0
1853,54.0,0.0,180.0,0.0,64.0
1854,66.0,96.0,180.0,0.0,64.0
1855,82.0,96.0,90.0,0.0,64.0
1856,73.0,0.0,180.0,0.0,64.0
1857,83.0,0.0,90.0,0.0,64.0
1858,49.0,0.0,180.0,0.0,64.0
1859,70.0,192.0,180.0,0.0,64.0
1860,80.0,96.0,90.0,0.0,64.0
1861,64.0,0.0,180.0,0.0,64.0
1862,82.0,0.0,90.0,0.0,64.0
1863,62.0,0.0,180.0,0.0,64.0
1864,50.0,0.0,780.0,0.0,64.0
1865,78.0,96.0,180.0,0.0,64.0
1866,71.0,0.0,780.0,0.0,64.0
1867,59.0,96.0,180.0,0.0,64.0
1868,83.0,96.0,90.0,0.0,64.0
1869,78.0,0.0,90.0,0.0,64.0
1870,79.0,192.0,180.0,0.0,64.0
1871,64.0,96.0,90.0,0.0,64.0
1872,66.0,0.0,90.0,0.0,64.0
1873,76.0,96.0,180.0,0.0,64.0
1874,69.0,0.0,180.0,0.0,64.0
1875,49.0,0.0,780.0,0.0,64.0
1876,67.0,96.0,15.0,0.0,64.0
1877,66.0,96.0,90.0,0.0,64.0
1878,81.0,0.0,180.0,0.0,64.0
1879,73.0,0.0,180.0,0.0,64.0
1880,64.0,96.0,90.0,0.0,64.0
1881,78.0,96.0,90.0,0.0,64.0
1882,74.0,0.0,390.0,0.0,64.0
1883,62.0,0.0,90.0,0.0,64.0
1884,79.0,0.0,90.0,0.0,64.0
1885,64.0,96.0,90.0,0.0,64.0
1886,76.0,96.0,90.0,0.0,64.0
1887,78.0,96.0,90.0,0.0,64.0
1888,47.0,96.0,780.0,0.0,64.0
1889,74.0,0.0,180.0,0.0,64.0
1890,66.0,96.0,15.0,0.0,64.0
1891,79.0,96.0,90.0,0.0,64.0
1892,64.0,0.0,90.0,0.0,64.0
1893,74.0,0.0,90.0,0.0,64.0
1894,62.0,96.0,90.0,0.0,64.0
1895,76.0,192.0,180.0,0.0,64.0
1896,61.0,96.0,90.0,0.0,64.0
1897,62.0,0.0,90.0,0.0,64.0
1898,73.0,0.0,180.0,0.0,64.0
1899,46.0,96.0,390.0,0.0,64.0
1900,66.0,96.0,180.0,0.0,64.0
1901,64.0,96.0,15.0,0.0,64.0
1902,62.0,96.0,90.0,0.0,64.0
1903,78.0,0.0,180.0,0.0,64.0
1904,61.0,0.0,90.0,0.0,64.0
1905,59.0,0.0,180.0,0.0,64.0
1906,74.0,96.0,90.0,0.0,64.0
1907,47.0,0.0,180.0,0.0,64.0
1908,76.0,96.0,90.0,0.0,64.0
1909,73.0,96.0,90.0,0.0,64.0
1910,45.0,96.0,180.0,0.0,64.0
1911,61.0,0.0,180.0,0.0,64.0
1912,74.0,0.0,90.0,0.0,64.0
1913,71.0,96.0,90.0,0.0,64.0
1914,62.0,0.0,180.0,0.0,64.0
1915,44.0,0.0,180.0,0.0,64.0
1916,73.0,96.0,90.0,0.0,64.0
1917,56.0,0.0,180.0,0.0,64.0
1918,61.0,0.0,90.0,0.0,64.0
1919,71.0,0.0,180.0,0.0,64.0
1920,75.0,96.0,90.0,0.0,64.0
1921,77.0,0.0,90.0,0.0,64.0
1922,59.0,96.0,90.0,0.0,64.0
1923,54.0,96.0,180.0,0.0,64.0
1924,78.0,0.0,180.0,0.0,64.0
1925,61.0,96.0,570.0,0.0,64.0
1926,69.0,96.0,90.0,0.0,64.0
1927,71.0,0.0,90.0,0.0,64.0
1928,80.0,0.0,180.0,0.0,64.0
1929,68.0,96.0,90.0,0.0,64.0
1930,52.0,0.0,180.0,0.0,64.0
1931,69.0,96.0,90.0,0.0,64.0
1932,81.0,96.0,90.0,0.0,64.0
1933,66.0,0.0,180.0,0.0,64.0
1934,50.0,96.0,390.0,0.0,64.0
1935,83.0,0.0,90.0,0.0,64.0
1936,81.0,96.0,90.0,0.0,64.0
1937,78.0,0.0,180.0,0.0,64.0
1938,54.0,0.0,180.0,0.0,64.0
1939,83.0,0.0,90.0,0.0,64.0
1940,77.0,96.0,90.0,0.0,64.0
1941,85.0,0.0,180.0,0.0,64.0
1942,49.0,192.0,390.0,0.0,64.0
1943,56.0,96.0,180.0,0.0,64.0
1944,78.0,0.0,90.0,0.0,64.0
1945,80.0,0.0,180.0,0.0,64.0
1946,75.0,96.0,90.0,0.0,64.0
1947,61.0,0.0,180.0,0.0,64.0
1948,77.0,0.0,90.0,0.0,64.0
1949,81.0,96.0,780.0,0.0,64.0
1950,54.0,0.0,180.0,0.0,64.0
1951,73.0,96.0,180.0,0.0,64.0
1952,57.0,0.0,180.0,0.0,64.0
1953,78.0,96.0,90.0,0.0,64.0
1954,73.0,96.0,90.0,0.0,64.0
1955,74.0,0.0,180.0,0.0,64.0
1956,59.0,96.0,90.0,0.0,64.0
1957,61.0,192.0,90.0,0.0,64.0
1958,71.0,0.0,180.0,0.0,64.0
1959,80.0,96.0,780.0,0.0,64.0
1960,64.0,96.0,180.0,0.0,64.0
1961,62.0,96.0,15.0,0.0,64.0
1962,61.0,96.0,90.0,0.0,64.0
1963,76.0,0.0,180.0,0.0,64.0
1964,59.0,96.0,90.0,0.0,64.0
1965,73.0,0.0,90.0,0.0,64.0
1966,57.0,96.0,90.0,0.0,64.0
1967,74.0,0.0,90.0,0.0,64.0
1968,59.0,96.0,90.0,0.0,64.0
1969,71.0,96.0,90.0,0.0,64.0
1970,73.0,0.0,90.0,0.0,64.0
1971,78.0,96.0,780.0,0.0,64.0
1972,69.0,96.0,180.0,0.0,64.0
1973,61.0,96.0,15.0,0.0,64.0
1974,59.0,0.0,90.0,0.0,64.0
1975,74.0,96.0,90.0,0.0,64.0
1976,57.0,96.0,90.0,0.0,64.0
1977,69.0,0.0,90.0,0.0,64.0
1978,71.0,0.0,180.0,0.0,64.0
1979,56.0,96.0,90.0,0.0,64.0
1980,57.0,192.0,90.0,0.0,64.0
1981,68.0,0.0,180.0,0.0,64.0
1982,77.0,0.0,390.0,0.0,64.0
1983,61.0,0.0,180.0,0.0,64.0
1984,59.0,96.0,15.0,0.0,64.0
1985,57.0,96.0,90.0,0.0,64.0
1986,73.0,0.0,180.0,0.0,64.0
1987,56.0,96.0,90.0,0.0,64.0
1988,78.0,0.0,390.0,0.0,64.0
1989,69.0,96.0,90.0,0.0,64.0
1990,54.0,96.0,180.0,0.0,64.0
1991,71.0,0.0,90.0,0.0,64.0
1992,57.0,96.0,180.0,0.0,64.0
1993,68.0,96.0,90.0,0.0,64.0
1994,69.0,0.0,90.0,0.0,64.0
1995,66.0,96.0,90.0,0.0,64.0
1996,62.0,96.0,780.0,0.0,64.0
1997,68.0,96.0,90.0,0.0,64.0
1998,78.0,96.0,180.0,0.0,64.0
1999,69.0,96.0,90.0,0.0,64.0
2000,71.0,0.0,90.0,0.0,64.0
2001,76.0,0.0,390.0,0.0,64.0
2002,67.0,96.0,90.0,0.0,64.0
2003,69.0,96.0,90.0,0.0,64.0
2004,66.0,96.0,90.0,0.0,64.0
2005,67.0,0.0,90.0,0.0,64.0
2006,61.0,0.0,780.0,0.0,64.0
2007,81.0,96.0,390.0,0.0,64.0
2008,64.0,96.0,90.0,0.0,64.0
2009,66.0,96.0,90.0,0.0,64.0
2010,67.0,96.0,90.0,0.0,64.0
2011,69.0,0.0,90.0,0.0,64.0
2012,74.0,96.0,390.0,0.0,64.0
2013,66.0,96.0,90.0,0.0,64.0
2014,67.0,96.0,90.0,0.0,64.0
2015,64.0,96.0,90.0,0.0,64.0
2016,66.0,0.0,90.0,0.0,64.0
2017,59.0,96.0,780.0,0.0,64.0
2018,62.0,96.0,90.0,0.0,64.0
2019,83.0,96.0,90.0,0.0,64.0
2020,64.0,0.0,90.0,0.0,64.0
2021,82.0,0.0,90.0,0.0,64.0
2022,66.0,96.0,90.0,0.0,64.0
2023,67.0,96.0,90.0,0.0,64.0
2024,83.0,0.0,90.0,0.0,64.0
2025,73.0,0.0,180.0,0.0,64.0
2026,64.0,96.0,90.0,0.0,64.0
2027,66.0,96.0,90.0,0.0,64.0
2028,79.0,0.0,180.0,0.0,64.0
2029,62.0,96.0,90.0,0.0,64.0
2030,64.0,0.0,90.0,0.0,64.0
2031,61.0,0.0,180.0,0.0,64.0
2032,78.0,96.0,90.0,0.0,64.0
2033,58.0,0.0,390.0,0.0,64.0
2034,76.0,96.0,90.0,0.0,64.0
2035,54.0,96.0,180.0,0.0,64.0
2036,66.0,96.0,300.0,0.0,64.0
2037,74.0,96.0,90.0,0.0,64.0
2038,73.0,0.0,90.0,0.0,64.0
2039,59.0,96.0,390.0,0.0,64.0
2040,50.0,0.0,90.0,0.0,64.0
2041,71.0,96.0,180.0,0.0,64.0
2042,52.0,0.0,90.0,0.0,64.0
2043,67.0,0.0,90.0,0.0,64.0
2044,49.0,0.0,90.0,0.0,64.0
2045,73.0,0.0,180.0,0.0,64.0
2046,64.0,96.0,90.0,0.0,64.0
2047,66.0,0.0,90.0,0.0,64.0
2048,50.0,0.0,90.0,0.0,64.0
2049,74.0,96.0,90.0,0.0,64.0
2050,62.0,0.0,90.0,0.0,64.0
2051,47.0,96.0,180.0,0.0,64.0
2052,76.0,0.0,90.0,0.0,64.0
2053,67.0,0.0,90.0,0.0,64.0
2054,74.0,96.0,90.0,0.0,64.0
2055,59.0,0.0,180.0,0.0,64.0
2056,66.0,0.0,90.0,0.0,64.0
2057,76.0,0.0,90.0,0.0,64.0
2058,67.0,96.0,90.0,0.0,64.0
2059,78.0,0.0,390.0,0.0,64.0
2060,58.0,0.0,90.0,0.0,64.0
2061,61.0,96.0,90.0,0.0,64.0
2062,62.0,0.0,90.0,0.0,64.0
2063,59.0,96.0,15.0,0.0,64.0
2064,56.0,96.0,90.0,0.0,64.0
2065,58.0,192.0,90.0,0.0,64.0
2066,61.0,0.0,90.0,0.0,64.0
2067,62.0,0.0,780.0,0.0,64.0
2068,54.0,0.0,180.0,0.0,64.0
2069,78.0,96.0,90.0,0.0,64.0
2070,79.0,0.0,90.0,0.0,64.0
2071,59.0,96.0,90.0,0.0,64.0
2072,78.0,0.0,90.0,0.0,64.0
2073,54.0,96.0,90.0,0.0,64.0
2074,55.0,0.0,180.0,0.0,64.0
2075,76.0,96.0,90.0,0.0,64.0
2076,78.0,192.0,90.0,0.0,64.0
2077,52.0,96.0,180.0,0.0,64.0
2078,79.0,96.0,300.0,0.0,64.0
2079,61.0,0.0,780.0,0.0,64.0
2080,45.0,96.0,180.0,0.0,64.0
2081,79.0,0.0,90.0,0.0,64.0
2082,78.0,96.0,90.0,0.0,64.0
2083,57.0,0.0,180.0,0.0,64.0
2084,76.0,96.0,90.0,0.0,64.0
2085,54.0,96.0,90.0,0.0,64.0
2086,74.0,0.0,90.0,0.0,64.0
2087,55.0,96.0,90.0,0.0,64.0
2088,76.0,0.0,90.0,0.0,64.0
2089,52.0,96.0,90.0,0.0,64.0
2090,78.0,96.0,300.0,0.0,64.0
2091,54.0,96.0,90.0,0.0,64.0
2092,59.0,96.0,780.0,0.0,64.0
2093,50.0,0.0,180.0,0.0,64.0
2094,78.0,96.0,90.0,0.0,64.0
2095,55.0,0.0,90.0,0.0,64.0
2096,76.0,96.0,90.0,0.0,64.0
2097,50.0,0.0,90.0,0.0,64.0
2098,74.0,96.0,90.0,0.0,64.0
2099,52.0,192.0,180.0,0.0,64.0
2100,73.0,96.0,90.0,0.0,64.0
2101,74.0,0.0,90.0,0.0,64.0
2102,49.0,0.0,180.0,0.0,64.0
2103,58.0,0.0,390.0,0.0,64.0
2104,42.0,0.0,180.0,0.0,64.0
2105,76.0,96.0,15.0,0.0,64.0
2106,54.0,0.0,180.0,0.0,64.0
2107,74.0,96.0,90.0,0.0,64.0
2108,73.0,96.0,90.0,0.0,64.0
2109,50.0,96.0,90.0,0.0,64.0
2110,74.0,0.0,180.0,0.0,64.0
2111,59.0,0.0,180.0,0.0,64.0
2112,52.0,96.0,90.0,0.0,64.0
2113,61.0,0.0,180.0,0.0,64.0
2114,76.0,96.0,180.0,0.0,64.0
2115,49.0,96.0,90.0,0.0,64.0
2116,50.0,0.0,90.0,0.0,64.0
2117,62.0,0.0,90.0,0.0,64.0
2118,47.0,0.0,180.0,0.0,64.0
2119,78.0,96.0,90.0,0.0,64.0
2120,64.0,0.0,90.0,0.0,64.0
2121,80.0,96.0,90.0,0.0,64.0
2122,59.0,96.0,180.0,0.0,64.0
2123,78.0,0.0,90.0,0.0,64.0
2124,62.0,96.0,90.0,0.0,64.0
2125,80.0,0.0,90.0,0.0,64.0
2126,64.0,0.0,90.0,0.0,64.0
2127,81.0,96.0,1620.0,0.0,64.0
2128,57.0,0.0,90.0,0.0,64.0
2129,61.0,96.0,90.0,0.0,64.0
2130,62.0,96.0,90.0,0.0,64.0
2131,59.0,0.0,15.0,0.0,64.0
2132,55.0,96.0,90.0,0.0,64.0
2133,61.0,0.0,90.0,0.0,64.0
2134,57.0,96.0,90.0,0.0,64.0
2135,62.0,96.0,90.0,0.0,64.0
2136,54.0,0.0,180.0,0.0,64.0
2137,64.0,96.0,90.0,0.0,64.0
2138,62.0,0.0,180.0,0.0,64.0
2139,66.0,96.0,90.0,0.0,64.0
2140,67.0,96.0,90.0,0.0,64.0
2141,61.0,96.0,90.0,0.0,64.0
2142,64.0,0.0,90.0,0.0,64.0
2143,66.0,0.0,90.0,0.0,64.0
2144,62.0,96.0,15.0,0.0,64.0
2145,59.0,96.0,90.0,0.0,64.0
2146,64.0,96.0,90.0,0.0,64.0
2147,61.0,0.0,15.0,0.0,64.0
2148,57.0,96.0,90.0,0.0,64.0
2149,59.0,96.0,90.0,0.0,64.0
2150,62.0,0.0,90.0,0.0,64.0
2151,64.0,0.0,90.0,0.0,64.0
2152,55.0,96.0,90.0,0.0,64.0
2153,66.0,96.0,90.0,0.0,64.0
2154,57.0,0.0,90.0,0.0,64.0
2155,54.0,0.0,90.0,0.0,64.0
2156,55.0,0.0,90.0,0.0,64.0
2157,83.0,96.0,90.0,0.0,64.0
2158,52.0,0.0,90.0,0.0,64.0
2159,79.0,96.0,90.0,0.0,64.0
2160,54.0,96.0,90.0,0.0,64.0
2161,81.0,0.0,90.0,0.0,64.0
2162,50.0,96.0,90.0,0.0,64.0
2163,78.0,0.0,90.0,0.0,64.0
2164,62.0,96.0,90.0,0.0,64.0
2165,79.0,0.0,90.0,0.0,64.0
2166,81.0,96.0,90.0,0.0,64.0
2167,61.0,0.0,90.0,0.0,64.0
2168,83.0,96.0,90.0,0.0,64.0
2169,62.0,0.0,90.0,0.0,64.0
2170,59.0,96.0,90.0,0.0,64.0
2171,79.0,0.0,870.0,0.0,64.0
2172,64.0,96.0,90.0,0.0,64.0
2173,61.0,0.0,15.0,0.0,64.0
2174,57.0,0.0,90.0,0.0,64.0
2175,62.0,0.0,90.0,0.0,64.0
2176,59.0,96.0,90.0,0.0,64.0
2177,55.0,96.0,90.0,0.0,64.0
2178,59.0,0.0,90.0,0.0,64.0
2179,61.0,0.0,90.0,0.0,64.0
2180,57.0,96.0,90.0,0.0,64.0
2181,54.0,96.0,90.0,0.0,64.0
2182,62.0,0.0,90.0,0.0,64.0
2183,64.0,0.0,90.0,0.0,64.0
2184,55.0,96.0,90.0,0.0,64.0
2185,52.0,96.0,90.0,0.0,64.0
2186,54.0,0.0,90.0,0.0,64.0
2187,81.0,96.0,90.0,0.0,64.0
2188,50.0,96.0,90.0,0.0,64.0
2189,78.0,0.0,90.0,0.0,64.0
2190,79.0,96.0,90.0,0.0,64.0
2191,52.0,0.0,90.0,0.0,64.0
2192,76.0,96.0,90.0,0.0,64.0
2193,49.0,0.0,90.0,0.0,64.0
2194,78.0,96.0,90.0,0.0,64.0
2195,61.0,0.0,90.0,0.0,64.0
2196,59.0,96.0,90.0,0.0,64.0
2197,79.0,0.0,90.0,0.0,64.0
2198,81.0,96.0,90.0,0.0,64.0
2199,61.0,0.0,90.0,0.0,64.0
2200,78.0,0.0,870.0,0.0,64.0
2201,57.0,96.0,90.0,0.0,64.0
2202,62.0,96.0,90.0,0.0,64.0
2203,59.0,0.0,90.0,0.0,64.0
2204,55.0,0.0,90.0,0.0,64.0
2205,59.0,96.0,90.0,0.0,64.0
2206,61.0,0.0,90.0,0.0,64.0
2207,54.0,0.0,90.0,0.0,64.0
2208,57.0,96.0,15.0,0.0,64.0
2209,59.0,96.0,90.0,0.0,64.0
2210,55.0,0.0,90.0,0.0,64.0
2211,52.0,96.0,90.0,0.0,64.0
2212,61.0,0.0,90.0,0.0,64.0
2213,54.0,0.0,90.0,0.0,64.0
2214,57.0,96.0,90.0,0.0,64.0
2215,50.0,96.0,90.0,0.0,64.0
2216,62.0,96.0,180.0,0.0,64.0
2217,79.0,0.0,90.0,0.0,64.0
2218,52.0,0.0,90.0,0.0,64.0
2219,76.0,0.0,90.0,0.0,64.0
2220,64.0,0.0,180.0,0.0,64.0
2221,49.0,96.0,90.0,0.0,64.0
2222,50.0,96.0,90.0,0.0,64.0
2223,78.0,0.0,90.0,0.0,64.0
2224,66.0,0.0,180.0,0.0,64.0
2225,74.0,0.0,90.0,0.0,64.0
2226,47.0,96.0,90.0,0.0,64.0
2227,73.0,96.0,90.0,0.0,64.0
2228,52.0,0.0,90.0,0.0,64.0
2229,50.0,0.0,90.0,0.0,64.0
2230,71.0,96.0,90.0,0.0,64.0
2231,68.0,96.0,180.0,0.0,64.0
2232,52.0,0.0,90.0,0.0,64.0
2233,74.0,0.0,90.0,0.0,64.0
2234,45.0,96.0,180.0,0.0,64.0
2235,73.0,96.0,90.0,0.0,64.0
2236,69.0,96.0,870.0,0.0,64.0
2237,74.0,0.0,90.0,0.0,64.0
2238,71.0,96.0,90.0,0.0,64.0
2239,57.0,96.0,180.0,0.0,64.0
2240,73.0,0.0,90.0,0.0,64.0
2241,74.0,96.0,90.0,0.0,64.0
2242,59.0,96.0,180.0,0.0,64.0
2243,78.0,0.0,90.0,0.0,64.0
2244,76.0,48.0,90.0,0.0,64.0
2245,61.0,96.0,180.0,0.0,64.0
2246,78.0,48.0,40.0,0.0,64.0
2247,79.0,0.0,40.0,0.0,64.0
2248,78.0,0.0,90.0,0.0,64.0
2249,62.0,0.0,180.0,0.0,64.0
2250,76.0,96.0,90.0,0.0,64.0
2251,67.0,0.0,90.0,0.0,64.0
2252,55.0,0.0,180.0,0.0,64.0
2253,74.0,96.0,90.0,0.0,64.0
2254,66.0,0.0,90.0,0.0,64.0
2255,76.0,96.0,90.0,0.0,64.0
2256,67.0,0.0,90.0,0.0,64.0
2257,64.0,0.0,300.0,0.0,64.0
2258,57.0,96.0,180.0,0.0,64.0
2259,73.0,96.0,90.0,0.0,64.0
2260,76.0,0.0,90.0,0.0,64.0
2261,74.0,96.0,90.0,0.0,64.0
2262,45.0,96.0,180.0,0.0,64.0
2263,57.0,0.0,180.0,0.0,64.0
2264,73.0,0.0,90.0,0.0,64.0
2265,66.0,0.0,90.0,0.0,64.0
2266,74.0,0.0,180.0,0.0,64.0
2267,66.0,96.0,180.0,0.0,64.0
2268,50.0,0.0,390.0,0.0,64.0
2269,54.0,96.0,90.0,0.0,64.0
2270,55.0,0.0,90.0,0.0,64.0
2271,52.0,96.0,90.0,0.0,64.0
2272,67.0,0.0,180.0,0.0,64.0
2273,76.0,0.0,180.0,0.0,64.0
2274,54.0,96.0,90.0,0.0,64.0
2275,69.0,0.0,780.0,0.0,64.0
2276,78.0,96.0,90.0,0.0,64.0
2277,50.0,96.0,180.0,0.0,64.0
2278,79.0,0.0,90.0,0.0,64.0
2279,62.0,96.0,180.0,0.0,64.0
2280,78.0,96.0,90.0,0.0,64.0
2281,79.0,0.0,90.0,0.0,64.0
2282,61.0,0.0,90.0,0.0,64.0
2283,76.0,96.0,90.0,0.0,64.0
2284,62.0,96.0,90.0,0.0,64.0
2285,78.0,0.0,90.0,0.0,64.0
2286,74.0,0.0,90.0,0.0,64.0
2287,59.0,96.0,90.0,0.0,64.0
2288,61.0,192.0,90.0,0.0,64.0
2289,76.0,0.0,90.0,0.0,64.0
2290,57.0,96.0,180.0,0.0,64.0
2291,73.0,0.0,180.0,0.0,64.0
2292,78.0,0.0,570.0,0.0,64.0
2293,69.0,0.0,180.0,0.0,64.0
2294,62.0,96.0,90.0,0.0,64.0
2295,57.0,96.0,90.0,0.0,64.0
2296,67.0,96.0,90.0,0.0,64.0
2297,59.0,192.0,180.0,0.0,64.0
2298,69.0,0.0,90.0,0.0,64.0
2299,55.0,96.0,180.0,0.0,64.0
2300,71.0,96.0,300.0,0.0,64.0
2301,49.0,0.0,180.0,0.0,64.0
2302,76.0,0.0,780.0,0.0,64.0
2303,71.0,96.0,90.0,0.0,64.0
2304,61.0,0.0,180.0,0.0,64.0
2305,69.0,96.0,90.0,0.0,64.0
2306,67.0,96.0,90.0,0.0,64.0
2307,57.0,0.0,90.0,0.0,64.0
2308,66.0,96.0,90.0,0.0,64.0
2309,59.0,0.0,90.0,0.0,64.0
2310,67.0,96.0,90.0,0.0,64.0
2311,55.0,96.0,90.0,0.0,64.0
2312,57.0,96.0,90.0,0.0,64.0
2313,74.0,96.0,780.0,0.0,64.0
2314,54.0,0.0,180.0,0.0,64.0
2315,69.0,96.0,15.0,0.0,64.0
2316,59.0,0.0,90.0,0.0,64.0
2317,67.0,96.0,90.0,0.0,64.0
2318,54.0,0.0,90.0,0.0,64.0
2319,66.0,96.0,90.0,0.0,64.0
2320,55.0,0.0,180.0,0.0,64.0
2321,64.0,96.0,90.0,0.0,64.0
2322,66.0,192.0,90.0,0.0,64.0
2323,67.0,96.0,300.0,0.0,64.0
2324,52.0,0.0,180.0,0.0,64.0
2325,45.0,0.0,180.0,0.0,64.0
2326,73.0,0.0,390.0,0.0,64.0
2327,67.0,96.0,90.0,0.0,64.0
2328,66.0,96.0,90.0,0.0,64.0
2329,57.0,0.0,180.0,0.0,64.0
2330,64.0,96.0,90.0,0.0,64.0
2331,54.0,96.0,90.0,0.0,64.0
2332,62.0,0.0,390.0,0.0,64.0
2333,55.0,96.0,90.0,0.0,64.0
2334,52.0,96.0,90.0,0.0,64.0
2335,69.0,96.0,180.0,0.0,64.0
2336,54.0,0.0,90.0,0.0,64.0
2337,50.0,96.0,90.0,0.0,64.0
2338,74.0,0.0,180.0,0.0,64.0
2339,52.0,96.0,90.0,0.0,64.0
2340,74.0,0.0,180.0,0.0,64.0
2341,54.0,96.0,90.0,0.0,64.0
2342,55.0,96.0,90.0,0.0,64.0
2343,57.0,96.0,90.0,0.0,64.0
2344,73.0,96.0,390.0,0.0,64.0
2345,59.0,96.0,90.0,0.0,64.0
2346,55.0,96.0,90.0,0.0,64.0
2347,64.0,0.0,180.0,0.0,64.0
2348,57.0,0.0,90.0,0.0,64.0
2349,54.0,96.0,90.0,0.0,64.0
2350,69.0,0.0,180.0,0.0,64.0
2351,74.0,96.0,180.0,0.0,64.0
2352,55.0,0.0,90.0,0.0,64.0
2353,69.0,0.0,180.0,0.0,64.0
2354,75.0,0.0,180.0,0.0,64.0
2355,57.0,96.0,90.0,0.0,64.0
2356,59.0,96.0,90.0,0.0,64.0
2357,52.0,96.0,90.0,0.0,64.0
2358,67.0,96.0,180.0,0.0,64.0
2359,76.0,0.0,180.0,0.0,64.0
2360,54.0,0.0,90.0,0.0,64.0
2361,71.0,0.0,180.0,0.0,64.0
2362,50.0,96.0,90.0,0.0,64.0
2363,68.0,0.0,180.0,0.0,64.0
2364,52.0,96.0,90.0,0.0,64.0
2365,76.0,0.0,180.0,0.0,64.0
2366,69.0,96.0,180.0,0.0,64.0
2367,49.0,96.0,90.0,0.0,64.0
2368,50.0,0.0,90.0,0.0,64.0
2369,70.0,0.0,180.0,0.0,64.0
2370,76.0,96.0,180.0,0.0,64.0
2371,52.0,96.0,90.0,0.0,64.0
2372,54.0,0.0,90.0,0.0,64.0
2373,47.0,96.0,90.0,0.0,64.0
2374,71.0,0.0,180.0,0.0,64.0
2375,74.0,0.0,180.0,0.0,64.0
2376,49.0,96.0,90.0,0.0,64.0
2377,45.0,96.0,90.0,0.0,64.0
2378,75.0,0.0,180.0,0.0,64.0
2379,66.0,96.0,180.0,0.0,64.0
2380,47.0,0.0,90.0,0.0,64.0
2381,71.0,0.0,180.0,0.0,64.0
2382,76.0,0.0,180.0,0.0,64.0
2383,44.0,96.0,90.0,0.0,64.0
2384,45.0,96.0,90.0,0.0,64.0
2385,71.0,0.0,180.0,0.0,64.0
2386,47.0,96.0,90.0,0.0,64.0
2387,77.0,0.0,180.0,0.0,64.0
2388,49.0,96.0,90.0,0.0,64.0
2389,69.0,0.0,180.0,0.0,64.0
2390,78.0,96.0,180.0,0.0,64.0
2391,42.0,96.0,90.0,0.0,64.0
2392,54.0,0.0,90.0,0.0,64.0
2393,52.0,96.0,90.0,0.0,64.0
2394,73.0,0.0,180.0,0.0,64.0
2395,70.0,0.0,180.0,0.0,64.0
2396,54.0,96.0,90.0,0.0,64.0
2397,51.0,96.0,90.0,0.0,64.0
2398,71.0,96.0,180.0,0.0,64.0
2399,78.0,0.0,180.0,0.0,64.0
2400,52.0,0.0,90.0,0.0,64.0
2401,54.0,96.0,90.0,0.0,64.0
2402,78.0,0.0,180.0,0.0,64.0
2403,72.0,96.0,180.0,0.0,64.0
2404,56.0,0.0,90.0,0.0,64.0
2405,77.0,0.0,390.0,0.0,64.0
2406,73.0,96.0,90.0,0.0,64.0
2407,49.0,0.0,180.0,0.0,64.0
2408,74.0,96.0,90.0,0.0,64.0
2409,61.0,96.0,180.0,0.0,64.0
2410,71.0,96.0,90.0,0.0,64.0
2411,73.0,0.0,90.0,0.0,64.0
2412,78.0,0.0,780.0,0.0,64.0
2413,69.0,96.0,90.0,0.0,64.0
2414,62.0,0.0,180.0,0.0,64.0
2415,71.0,96.0,90.0,0.0,64.0
2416,54.0,0.0,180.0,0.0,64.0
2417,73.0,96.0,90.0,0.0,64.0
2418,74.0,96.0,90.0,0.0,64.0
2419,56.0,96.0,180.0,0.0,64.0
2420,71.0,96.0,90.0,0.0,64.0
2421,73.0,0.0,90.0,0.0,64.0
2422,69.0,96.0,90.0,0.0,64.0
2423,59.0,96.0,180.0,0.0,64.0
2424,71.0,0.0,90.0,0.0,64.0
2425,77.0,0.0,390.0,0.0,64.0
2426,68.0,96.0,90.0,0.0,64.0
2427,61.0,0.0,180.0,0.0,64.0
2428,69.0,96.0,90.0,0.0,64.0
2429,49.0,96.0,180.0,0.0,64.0
2430,71.0,96.0,90.0,0.0,64.0
2431,73.0,0.0,90.0,0.0,64.0
2432,54.0,0.0,180.0,0.0,64.0
2433,78.0,96.0,180.0,0.0,64.0
2434,69.0,96.0,90.0,0.0,64.0
2435,73.0,0.0,90.0,0.0,64.0
2436,66.0,96.0,90.0,0.0,64.0
2437,81.0,0.0,180.0,0.0,64.0
2438,69.0,96.0,90.0,0.0,64.0
2439,68.0,0.0,90.0,0.0,64.0
2440,71.0,96.0,90.0,0.0,64.0
2441,71.0,96.0,90.0,0.0,64.0
2442,80.0,96.0,180.0,0.0,64.0
2443,65.0,96.0,90.0,0.0,64.0
2444,68.0,0.0,90.0,0.0,64.0
2445,69.0,96.0,90.0,0.0,64.0
2446,66.0,0.0,90.0,0.0,64.0
2447,73.0,0.0,90.0,0.0,64.0
2448,69.0,96.0,90.0,0.0,64.0
2449,61.0,96.0,90.0,0.0,64.0
2450,78.0,96.0,180.0,0.0,64.0
2451,66.0,0.0,90.0,0.0,64.0
2452,68.0,96.0,90.0,0.0,64.0
2453,77.0,0.0,90.0,0.0,64.0
2454,80.0,96.0,90.0,0.0,64.0
2455,71.0,0.0,90.0,0.0,64.0
2456,85.0,0.0,180.0,0.0,64.0
2457,61.0,96.0,90.0,0.0,64.0
2458,65.0,96.0,90.0,0.0,64.0
2459,66.0,96.0,90.0,0.0,64.0
2460,81.0,0.0,90.0,0.0,64.0
2461,83.0,96.0,90.0,0.0,64.0
2462,69.0,0.0,90.0,0.0,64.0
2463,61.0,0.0,90.0,0.0,64.0
2464,80.0,96.0,90.0,0.0,64.0
2465,81.0,96.0,90.0,0.0,64.0
2466,66.0,0.0,90.0,0.0,64.0
2467,57.0,0.0,90.0,0.0,64.0
2468,78.0,96.0,90.0,0.0,64.0
2469,61.0,0.0,90.0,0.0,64.0
2470,81.0,96.0,90.0,0.0,64.0
2471,80.0,0.0,90.0,0.0,64.0
2472,54.0,96.0,90.0,0.0,64.0
2473,57.0,96.0,90.0,0.0,64.0
2474,78.0,0.0,90.0,0.0,64.0
2475,77.0,0.0,90.0,0.0,64.0
2476,49.0,96.0,90.0,0.0,64.0
2477,78.0,0.0,90.0,0.0,64.0
2478,53.0,96.0,90.0,0.0,64.0
2479,56.0,0.0,90.0,0.0,64.0
2480,75.0,96.0,90.0,0.0,64.0
2481,59.0,0.0,90.0,0.0,64.0
2482,77.0,96.0,90.0,0.0,64.0
2483,57.0,96.0,90.0,0.0,64.0
2484,73.0,96.0,180.0,0.0,64.0
2485,61.0,0.0,90.0,0.0,64.0
2486,54.0,0.0,90.0,0.0,64.0
2487,78.0,96.0,90.0,0.0,64.0
2488,57.0,96.0,90.0,0.0,64.0
2489,73.0,0.0,90.0,0.0,64.0
2490,74.0,96.0,180.0,0.0,64.0
2491,47.0,96.0,90.0,0.0,64.0
2492,50.0,0.0,90.0,0.0,64.0
2493,71.0,0.0,180.0,0.0,64.0
2494,54.0,96.0,90.0,0.0,64.0
2495,57.0,96.0,90.0,0.0,64.0
2496,56.0,96.0,90.0,0.0,64.0
2497,64.0,96.0,180.0,0.0,64.0
2498,59.0,0.0,90.0,0.0,64.0
2499,76.0,0.0,180.0,0.0,64.0
2500,52.0,96.0,90.0,0.0,64.0
2501,56.0,96.0,90.0,0.0,64.0
2502,45.0,0.0,90.0,0.0,64.0
2503,73.0,96.0,90.0,0.0,64.0
2504,49.0,0.0,90.0,0.0,64.0
2505,74.0,96.0,90.0,0.0,64.0
2506,71.0,96.0,90.0,0.0,64.0
2507,52.0,0.0,90.0,0.0,64.0
2508,73.0,0.0,90.0,0.0,64.0
2509,56.0,96.0,90.0,0.0,64.0
2510,54.0,96.0,90.0,0.0,64.0
2511,69.0,96.0,180.0,0.0,64.0
2512,57.0,0.0,90.0,0.0,64.0
2513,50.0,0.0,90.0,0.0,64.0
2514,74.0,96.0,90.0,0.0,64.0
2515,54.0,0.0,90.0,0.0,64.0
2516,69.0,96.0,90.0,0.0,64.0
2517,44.0,96.0,90.0,0.0,64.0
2518,71.0,0.0,180.0,0.0,64.0
2519,47.0,96.0,90.0,0.0,64.0
2520,68.0,96.0,180.0,0.0,64.0
2521,50.0,96.0,90.0,0.0,64.0
2522,54.0,0.0,90.0,0.0,64.0
2523,61.0,96.0,180.0,0.0,64.0
2524,53.0,96.0,90.0,0.0,64.0
2525,56.0,0.0,90.0,0.0,64.0
2526,73.0,0.0,180.0,0.0,64.0
2527,49.0,96.0,90.0,0.0,64.0
2528,53.0,96.0,90.0,0.0,64.0
2529,69.0,96.0,90.0,0.0,64.0
2530,42.0,96.0,180.0,0.0,64.0
2531,71.0,0.0,90.0,0.0,64.0
2532,44.0,96.0,180.0,0.0,64.0
2533,68.0,96.0,90.0,0.0,64.0
2534,69.0,0.0,90.0,0.0,64.0
2535,66.0,96.0,90.0,0.0,64.0
2536,45.0,96.0,180.0,0.0,64.0
2537,69.0,0.0,90.0,0.0,64.0
2538,73.0,96.0,90.0,0.0,64.0
2539,42.0,0.0,180.0,0.0,64.0
2540,78.0,96.0,90.0,0.0,64.0
2541,49.0,0.0,180.0,0.0,64.0
2542,77.0,96.0,90.0,0.0,64.0
2543,78.0,96.0,90.0,0.0,64.0
2544,51.0,96.0,180.0,0.0,64.0
2545,75.0,96.0,90.0,0.0,64.0
2546,77.0,0.0,90.0,0.0,64.0
2547,53.0,96.0,180.0,0.0,64.0
2548,73.0,96.0,90.0,0.0,64.0
2549,77.0,0.0,90.0,0.0,64.0
2550,49.0,0.0,180.0,0.0,64.0
2551,80.0,96.0,90.0,0.0,64.0
2552,83.0,96.0,90.0,0.0,64.0
2553,54.0,96.0,180.0,0.0,64.0
2554,81.0,96.0,90.0,0.0,64.0
2555,83.0,0.0,90.0,0.0,64.0
2556,56.0,96.0,180.0,0.0,64.0
2557,80.0,96.0,90.0,0.0,64.0
2558,81.0,0.0,90.0,0.0,64.0
2559,78.0,96.0,90.0,0.0,64.0
2560,57.0,0.0,180.0,0.0,64.0
2561,81.0,96.0,90.0,0.0,64.0
2562,85.0,96.0,90.0,0.0,64.0
2563,54.0,96.0,180.0,0.0,64.0
2564,88.0,0.0,90.0,0.0,64.0
2565,86.0,96.0,90.0,0.0,64.0
2566,59.0,0.0,180.0,0.0,64.0
2567,88.0,96.0,90.0,0.0,64.0
2568,61.0,96.0,180.0,0.0,64.0
2569,85.0,96.0,90.0,0.0,64.0
2570,86.0,0.0,90.0,0.0,64.0
2571,83.0,96.0,90.0,0.0,64.0
2572,62.0,96.0,180.0,0.0,64.0
2573,85.0,0.0,90.0,0.0,64.0
2574,59.0,0.0,180.0,0.0,64.0
2575,81.0,96.0,90.0,0.0,64.0
2576,83.0,96.0,90.0,0.0,64.0
2577,64.0,0.0,180.0,0.0,64.0
2578,80.0,96.0,90.0,0.0,64.0
2579,81.0,96.0,90.0,0.0,64.0
2580,66.0,0.0,180.0,0.0,64.0
2581,78.0,96.0,90.0,0.0,64.0
2582,80.0,96.0,90.0,0.0,64.0
2583,68.0,96.0,180.0,0.0,64.0
2584,76.0,96.0,90.0,0.0,64.0
2585,80.0,0.0,90.0,0.0,64.0
2586,83.0,96.0,90.0,0.0,64.0
2587,64.0,96.0,180.0,0.0,64.0
2588,86.0,0.0,90.0,0.0,64.0
2589,85.0,96.0,90.0,0.0,64.0
2590,69.0,0.0,180.0,0.0,64.0
2591,86.0,96.0,90.0,0.0,64.0
2592,71.0,96.0,180.0,0.0,64.0
2593,83.0,96.0,90.0,0.0,64.0
2594,85.0,0.0,90.0,0.0,64.0
2595,73.0,0.0,180.0,0.0,64.0
2596,81.0,96.0,90.0,0.0,64.0
2597,83.0,96.0,90.0,0.0,64.0
2598,69.0,0.0,180.0,0.0,64.0
2599,80.0,96.0,90.0,0.0,64.0
2600,81.0,96.0,90.0,0.0,64.0
2601,78.0,0.0,90.0,0.0,64.0
2602,74.0,96.0,90.0,0.0,64.0
2603,76.0,0.0,90.0,0.0,64.0
2604,80.0,96.0,90.0,0.0,64.0
2605,73.0,96.0,90.0,0.0,64.0
2606,76.0,0.0,90.0,0.0,64.0
2607,78.0,96.0,90.0,0.0,64.0
2608,74.0,0.0,15.0,0.0,64.0
2609,71.0,96.0,90.0,0.0,64.0
2610,78.0,96.0,90.0,0.0,64.0
2611,73.0,0.0,90.0,0.0,64.0
2612,81.0,0.0,90.0,0.0,64.0
2613,69.0,96.0,90.0,0.0,64.0
2614,71.0,0.0,90.0,0.0,64.0
2615,85.0,96.0,90.0,0.0,64.0
2616,68.0,96.0,90.0,0.0,64.0
2617,83.0,0.0,90.0,0.0,64.0
2618,85.0,96.0,90.0,0.0,64.0
2619,69.0,0.0,90.0,0.0,64.0
2620,66.0,0.0,90.0,0.0,64.0
2621,81.0,96.0,90.0,0.0,64.0
2622,68.0,96.0,90.0,0.0,64.0
2623,83.0,0.0,90.0,0.0,64.0
2624,65.0,96.0,90.0,0.0,64.0
2625,80.0,0.0,90.0,0.0,64.0
2626,66.0,96.0,90.0,0.0,64.0
2627,81.0,0.0,90.0,0.0,64.0
2628,78.0,0.0,90.0,0.0,64.0
2629,63.0,96.0,90.0,0.0,64.0
2630,65.0,0.0,90.0,0.0,64.0
2631,80.0,96.0,90.0,0.0,64.0
2632,77.0,96.0,90.0,0.0,64.0
2633,61.0,0.0,90.0,0.0,64.0
2634,62.0,96.0,90.0,0.0,64.0
2635,78.0,0.0,90.0,0.0,64.0
2636,59.0,96.0,90.0,0.0,64.0
2637,75.0,0.0,90.0,0.0,64.0
2638,77.0,96.0,90.0,0.0,64.0
2639,61.0,0.0,90.0,0.0,64.0
2640,73.0,0.0,90.0,0.0,64.0
2641,57.0,96.0,90.0,0.0,64.0
2642,77.0,96.0,90.0,0.0,64.0
2643,59.0,0.0,90.0,0.0,64.0
2644,56.0,0.0,90.0,0.0,64.0
2645,80.0,96.0,90.0,0.0,64.0
2646,85.0,96.0,90.0,0.0,64.0
2647,59.0,0.0,90.0,0.0,64.0
2648,78.0,0.0,90.0,0.0,64.0
2649,57.0,96.0,90.0,0.0,64.0
2650,81.0,0.0,90.0,0.0,64.0
2651,59.0,96.0,90.0,0.0,64.0
2652,56.0,0.0,90.0,0.0,64.0
2653,73.0,96.0,90.0,0.0,64.0
2654,57.0,96.0,90.0,0.0,64.0
2655,78.0,0.0,90.0,0.0,64.0
2656,69.0,96.0,90.0,0.0,64.0
2657,54.0,96.0,180.0,0.0,64.0
2658,73.0,0.0,90.0,0.0,64.0
2659,66.0,96.0,90.0,0.0,64.0
2660,75.0,96.0,90.0,0.0,64.0
2661,73.0,96.0,90.0,0.0,64.0
2662,65.0,0.0,90.0,0.0,64.0
2663,77.0,0.0,90.0,0.0,64.0
2664,66.0,96.0,90.0,0.0,64.0
2665,63.0,96.0,90.0,0.0,64.0
2666,80.0,0.0,90.0,0.0,64.0
2667,83.0,0.0,90.0,0.0,64.0
2668,65.0,96.0,90.0,0.0,64.0
2669,81.0,96.0,90.0,0.0,64.0
2670,61.0,0.0,180.0,0.0,64.0
2671,85.0,96.0,90.0,0.0,64.0
2672,66.0,96.0,90.0,0.0,64.0
2673,78.0,0.0,90.0,0.0,64.0
2674,81.0,0.0,90.0,0.0,64.0
2675,61.0,96.0,90.0,0.0,64.0
2676,71.0,96.0,90.0,0.0,64.0
2677,62.0,96.0,180.0,0.0,64.0
2678,74.0,0.0,90.0,0.0,64.0
2679,78.0,96.0,90.0,0.0,64.0
2680,59.0,96.0,180.0,0.0,64.0
2681,81.0,0.0,90.0,0.0,64.0
2682,52.0,0.0,180.0,0.0,64.0
2683,80.0,96.0,90.0,0.0,64.0
2684,83.0,96.0,90.0,0.0,64.0
2685,76.0,96.0,90.0,0.0,64.0
2686,64.0,0.0,180.0,0.0,64.0
2687,80.0,96.0,90.0,0.0,64.0
2688,61.0,96.0,90.0,0.0,64.0
2689,69.0,0.0,90.0,0.0,64.0
2690,62.0,96.0,90.0,0.0,64.0
2691,73.0,0.0,90.0,0.0,64.0
2692,76.0,0.0,90.0,0.0,64.0
2693,59.0,96.0,90.0,0.0,64.0
2694,80.0,0.0,90.0,0.0,64.0
2695,61.0,96.0,90.0,0.0,64.0
2696,78.0,96.0,90.0,0.0,64.0
2697,57.0,96.0,180.0,0.0,64.0
2698,81.0,0.0,90.0,0.0,64.0
2699,62.0,0.0,90.0,0.0,64.0
2700,74.0,96.0,90.0,0.0,64.0
2701,57.0,0.0,90.0,0.0,64.0
2702,78.0,96.0,90.0,0.0,64.0
2703,59.0,0.0,180.0,0.0,64.0
2704,68.0,96.0,90.0,0.0,64.0
2705,71.0,96.0,90.0,0.0,64.0
2706,74.0,96.0,90.0,0.0,64.0
2707,56.0,96.0,180.0,0.0,64.0
2708,78.0,0.0,90.0,0.0,64.0
2709,77.0,96.0,90.0,0.0,64.0
2710,49.0,0.0,180.0,0.0,64.0
2711,80.0,96.0,90.0,0.0,64.0
2712,61.0,0.0,180.0,0.0,64.0
2713,73.0,96.0,90.0,0.0,64.0
2714,77.0,96.0,90.0,0.0,64.0
2715,57.0,96.0,90.0,0.0,64.0
2716,78.0,0.0,90.0,0.0,64.0
2717,59.0,0.0,90.0,0.0,64.0
2718,81.0,96.0,90.0,0.0,64.0
2719,56.0,96.0,90.0,0.0,64.0
2720,73.0,0.0,90.0,0.0,64.0
2721,78.0,0.0,90.0,0.0,64.0
2722,57.0,96.0,90.0,0.0,64.0
2723,69.0,96.0,90.0,0.0,64.0
2724,54.0,0.0,180.0,0.0,64.0
2725,73.0,96.0,90.0,0.0,64.0
2726,66.0,96.0,90.0,0.0,64.0
2727,57.0,96.0,180.0,0.0,64.0
2728,73.0,0.0,90.0,0.0,64.0
2729,59.0,96.0,90.0,0.0,64.0
2730,74.0,0.0,90.0,0.0,64.0
2731,76.0,96.0,90.0,0.0,64.0
2732,62.0,0.0,90.0,0.0,64.0
2733,54.0,0.0,90.0,0.0,64.0
2734,73.0,96.0,90.0,0.0,64.0
2735,74.0,96.0,90.0,0.0,64.0
2736,59.0,0.0,90.0,0.0,64.0
2737,50.0,96.0,90.0,0.0,64.0
2738,71.0,96.0,180.0,0.0,64.0
2739,54.0,0.0,90.0,0.0,64.0
2740,74.0,0.0,180.0,0.0,64.0
2741,47.0,96.0,90.0,0.0,64.0
2742,54.0,96.0,90.0,0.0,64.0
2743,76.0,0.0,90.0,0.0,64.0
2744,56.0,96.0,90.0,0.0,64.0
2745,57.0,0.0,90.0,0.0,64.0
2746,80.0,96.0,90.0,0.0,64.0
2747,71.0,0.0,90.0,0.0,64.0
2748,54.0,96.0,90.0,0.0,64.0
2749,76.0,96.0,90.0,0.0,64.0
2750,56.0,0.0,90.0,0.0,64.0
2751,68.0,96.0,90.0,0.0,64.0
2752,71.0,96.0,90.0,0.0,64.0
2753,64.0,96.0,90.0,0.0,64.0
2754,52.0,0.0,15.0,0.0,64.0
2755,56.0,0.0,180.0,0.0,64.0
2756,71.0,0.0,90.0,0.0,64.0
2757,57.0,0.0,180.0,0.0,64.0
2758,73.0,0.0,180.0,0.0,64.0
2759,49.0,96.0,90.0,0.0,64.0
2760,50.0,96.0,90.0,0.0,64.0
2761,59.0,0.0,180.0,0.0,64.0
2762,74.0,96.0,180.0,0.0,64.0
2763,47.0,96.0,90.0,0.0,64.0
2764,49.0,0.0,90.0,0.0,64.0
2765,76.0,0.0,180.0,0.0,64.0
2766,45.0,0.0,180.0,0.0,64.0
2767,61.0,96.0,90.0,0.0,64.0
2768,62.0,96.0,90.0,0.0,64.0
2769,61.0,96.0,90.0,0.0,64.0
2770,57.0,0.0,180.0,0.0,64.0
2771,78.0,96.0,180.0,0.0,64.0
2772,62.0,0.0,90.0,0.0,64.0
2773,64.0,0.0,90.0,0.0,64.0
2774,71.0,0.0,180.0,0.0,64.0
2775,56.0,96.0,90.0,0.0,64.0
2776,57.0,0.0,90.0,0.0,64.0
2777,66.0,96.0,90.0,0.0,64.0
2778,54.0,0.0,90.0,0.0,64.0
2779,83.0,96.0,300.0,0.0,64.0
2780,62.0,96.0,90.0,0.0,64.0
2781,56.0,0.0,90.0,0.0,64.0
2782,64.0,96.0,90.0,0.0,64.0
2783,61.0,0.0,180.0,0.0,64.0
2784,52.0,0.0,180.0,0.0,64.0
2785,80.0,96.0,90.0,0.0,64.0
2786,57.0,0.0,90.0,0.0,64.0
2787,73.0,0.0,570.0,0.0,64.0
2788,76.0,96.0,90.0,0.0,64.0
2789,85.0,96.0,90.0,0.0,64.0
2790,52.0,0.0,90.0,0.0,64.0
2791,54.0,192.0,180.0,0.0,64.0
2792,86.0,96.0,90.0,0.0,64.0
2793,76.0,0.0,90.0,0.0,64.0
2794,50.0,96.0,180.0,0.0,64.0
2795,71.0,0.0,780.0,0.0,64.0
2796,44.0,0.0,180.0,0.0,64.0
2797,78.0,96.0,15.0,0.0,64.0
2798,56.0,0.0,180.0,0.0,64.0
2799,76.0,96.0,90.0,0.0,64.0
2800,74.0,96.0,90.0,0.0,64.0
2801,52.0,96.0,90.0,0.0,64.0
2802,85.0,0.0,90.0,0.0,64.0
2803,74.0,96.0,90.0,0.0,64.0
2804,54.0,0.0,90.0,0.0,64.0
2805,50.0,96.0,90.0,0.0,64.0
2806,52.0,96.0,90.0,0.0,64.0
2807,69.0,0.0,780.0,0.0,64.0
2808,49.0,0.0,180.0,0.0,64.0
2809,76.0,96.0,15.0,0.0,64.0
2810,54.0,0.0,90.0,0.0,64.0
2811,74.0,96.0,90.0,0.0,64.0
2812,49.0,96.0,90.0,0.0,64.0
2813,73.0,0.0,90.0,0.0,64.0
2814,83.0,96.0,90.0,0.0,64.0
2815,50.0,192.0,180.0,0.0,64.0
2816,73.0,0.0,90.0,0.0,64.0
2817,47.0,96.0,180.0,0.0,64.0
2818,68.0,0.0,390.0,0.0,64.0
2819,40.0,0.0,180.0,0.0,64.0
2820,74.0,96.0,15.0,0.0,64.0
2821,73.0,96.0,90.0,0.0,64.0
2822,52.0,0.0,180.0,0.0,64.0
2823,71.0,96.0,90.0,0.0,64.0
2824,49.0,96.0,90.0,0.0,64.0
2825,50.0,96.0,90.0,0.0,64.0
2826,64.0,0.0,180.0,0.0,64.0
2827,47.0,96.0,90.0,0.0,64.0
2828,49.0,0.0,90.0,0.0,64.0
2829,69.0,96.0,15.0,0.0,64.0
2830,45.0,96.0,90.0,0.0,64.0
2831,49.0,0.0,90.0,0.0,64.0
2832,47.0,96.0,90.0,0.0,64.0
2833,68.0,96.0,180.0,0.0,64.0
2834,50.0,0.0,90.0,0.0,64.0
2835,69.0,0.0,390.0,0.0,64.0
2836,49.0,96.0,90.0,0.0,64.0
2837,50.0,96.0,90.0,0.0,64.0
2838,76.0,96.0,180.0,0.0,64.0
2839,47.0,96.0,90.0,0.0,64.0
2840,49.0,0.0,90.0,0.0,64.0
2841,81.0,0.0,180.0,0.0,64.0
2842,45.0,96.0,90.0,0.0,64.0
2843,49.0,96.0,90.0,0.0,64.0
2844,80.0,96.0,180.0,0.0,64.0
2845,62.0,0.0,180.0,0.0,64.0
2846,47.0,96.0,90.0,0.0,64.0
2847,50.0,0.0,90.0,0.0,64.0
2848,49.0,0.0,90.0,0.0,64.0
2849,64.0,0.0,90.0,0.0,64.0
2850,81.0,96.0,90.0,0.0,64.0
2851,52.0,96.0,90.0,0.0,64.0
2852,79.0,0.0,90.0,0.0,64.0
2853,71.0,0.0,90.0,0.0,64.0
2854,59.0,0.0,90.0,0.0,64.0
2855,78.0,96.0,90.0,0.0,64.0
2856,51.0,0.0,90.0,0.0,64.0
2857,54.0,0.0,90.0,0.0,64.0
2858,71.0,96.0,90.0,0.0,64.0
2859,81.0,0.0,90.0,0.0,64.0
2860,59.0,0.0,90.0,0.0,64.0
2861,52.0,96.0,90.0,0.0,64.0
2862,79.0,0.0,90.0,0.0,64.0
2863,76.0,0.0,90.0,0.0,64.0
2864,55.0,0.0,90.0,0.0,64.0
2865,71.0,96.0,90.0,0.0,64.0
2866,54.0,0.0,90.0,0.0,64.0
2867,75.0,0.0,90.0,0.0,64.0
2868,59.0,96.0,90.0,0.0,64.0
2869,57.0,96.0,90.0,0.0,64.0
2870,78.0,0.0,90.0,0.0,64.0
2871,71.0,0.0,90.0,0.0,64.0
2872,59.0,0.0,180.0,0.0,64.0
2873,76.0,96.0,180.0,0.0,64.0
2874,55.0,96.0,90.0,0.0,64.0
2875,57.0,0.0,90.0,0.0,64.0
2876,54.0,96.0,90.0,0.0,64.0
2877,71.0,0.0,180.0,0.0,64.0
2878,55.0,96.0,90.0,0.0,64.0
2879,76.0,96.0,180.0,0.0,64.0
2880,52.0,96.0,90.0,0.0,64.0
2881,55.0,0.0,90.0,0.0,64.0
2882,54.0,96.0,90.0,0.0,64.0
2883,75.0,96.0,180.0,0.0,64.0
2884,57.0,0.0,90.0,0.0,64.0
2885,76.0,0.0,390.0,0.0,64.0
2886,55.0,96.0,90.0,0.0,64.0
2887,57.0,96.0,90.0,0.0,64.0
2888,54.0,96.0,90.0,0.0,64.0
2889,83.0,0.0,180.0,0.0,64.0
2890,55.0,96.0,90.0,0.0,64.0
2891,88.0,96.0,180.0,0.0,64.0
2892,52.0,96.0,90.0,0.0,64.0
2893,55.0,0.0,90.0,0.0,64.0
2894,54.0,96.0,90.0,0.0,64.0
2895,69.0,0.0,180.0,0.0,64.0
2896,87.0,0.0,180.0,0.0,64.0
2897,57.0,96.0,90.0,0.0,64.0
2898,71.0,0.0,90.0,0.0,64.0
2899,88.0,96.0,90.0,0.0,64.0
2900,56.0,0.0,90.0,0.0,64.0
2901,86.0,96.0,90.0,0.0,64.0
2902,59.0,0.0,90.0,0.0,64.0
2903,78.0,0.0,90.0,0.0,64.0
2904,58.0,96.0,90.0,0.0,64.0
2905,85.0,0.0,90.0,0.0,64.0
2906,66.0,0.0,90.0,0.0,64.0
2907,88.0,96.0,90.0,0.0,64.0
2908,78.0,0.0,90.0,0.0,64.0
2909,61.0,0.0,90.0,0.0,64.0
2910,66.0,0.0,90.0,0.0,64.0
2911,59.0,0.0,90.0,0.0,64.0
2912,86.0,96.0,90.0,0.0,64.0
2913,78.0,96.0,90.0,0.0,64.0
2914,62.0,0.0,90.0,0.0,64.0
2915,83.0,0.0,90.0,0.0,64.0
2916,82.0,0.0,90.0,0.0,64.0
2917,61.0,0.0,90.0,0.0,64.0
2918,66.0,96.0,90.0,0.0,64.0
2919,85.0,0.0,90.0,0.0,64.0
2920,78.0,96.0,90.0,0.0,64.0
2921,64.0,0.0,90.0,0.0,64.0
2922,83.0,0.0,180.0,0.0,64.0
2923,62.0,96.0,90.0,0.0,64.0
2924,66.0,0.0,180.0,0.0,64.0
2925,64.0,96.0,15.0,0.0,64.0
2926,78.0,96.0,180.0,0.0,64.0
2927,61.0,96.0,90.0,0.0,64.0
2928,62.0,0.0,15.0,0.0,64.0
2929,59.0,96.0,90.0,0.0,64.0
2930,83.0,96.0,180.0,0.0,64.0
2931,62.0,0.0,90.0,0.0,64.0
2932,82.0,0.0,180.0,0.0,64.0
2933,61.0,96.0,90.0,0.0,64.0
2934,64.0,0.0,90.0,0.0,64.0
2935,62.0,0.0,90.0,0.0,64.0
2936,83.0,96.0,90.0,0.0,64.0
2937,66.0,0.0,90.0,0.0,64.0
2938,78.0,0.0,90.0,0.0,64.0
2939,64.0,96.0,90.0,0.0,64.0
2940,85.0,0.0,90.0,0.0,64.0
2941,76.0,96.0,90.0,0.0,64.0
2942,61.0,0.0,90.0,0.0,64.0
2943,82.0,0.0,90.0,0.0,64.0
2944,79.0,96.0,90.0,0.0,64.0
2945,64.0,0.0,90.0,0.0,64.0
2946,85.0,0.0,90.0,0.0,64.0
2947,78.0,96.0,90.0,0.0,64.0
2948,83.0,0.0,90.0,0.0,64.0
2949,62.0,0.0,90.0,0.0,64.0
2950,85.0,0.0,90.0,0.0,64.0
2951,64.0,96.0,90.0,0.0,64.0
2952,79.0,0.0,90.0,0.0,64.0
2953,81.0,96.0,90.0,0.0,64.0
2954,61.0,0.0,90.0,0.0,64.0
2955,76.0,0.0,90.0,0.0,64.0
2956,62.0,0.0,90.0,0.0,64.0
2957,78.0,96.0,90.0,0.0,64.0
2958,83.0,0.0,90.0,0.0,64.0
2959,79.0,0.0,90.0,0.0,64.0
2960,74.0,0.0,90.0,0.0,64.0
2961,59.0,96.0,90.0,0.0,64.0
2962,81.0,96.0,90.0,0.0,64.0
2963,61.0,0.0,90.0,0.0,64.0
2964,76.0,0.0,90.0,0.0,64.0
2965,58.0,96.0,90.0,0.0,64.0
2966,73.0,0.0,90.0,0.0,64.0
2967,78.0,0.0,90.0,0.0,64.0
2968,76.0,0.0,90.0,0.0,64.0
2969,81.0,0.0,90.0,0.0,64.0
2970,61.0,96.0,90.0,0.0,64.0
2971,74.0,0.0,90.0,0.0,64.0
2972,79.0,96.0,90.0,0.0,64.0
2973,59.0,0.0,90.0,0.0,64.0
2974,81.0,0.0,90.0,0.0,64.0
2975,76.0,0.0,90.0,0.0,64.0
2976,61.0,96.0,90.0,0.0,64.0
2977,78.0,0.0,90.0,0.0,64.0
2978,73.0,96.0,90.0,0.0,64.0
2979,57.0,0.0,90.0,0.0,64.0
2980,59.0,96.0,90.0,0.0,64.0
2981,79.0,0.0,90.0,0.0,64.0
2982,74.0,0.0,90.0,0.0,64.0
2983,76.0,0.0,90.0,0.0,64.0
2984,55.0,96.0,90.0,0.0,64.0
2985,71.0,0.0,90.0,0.0,64.0
2986,57.0,0.0,90.0,0.0,64.0
2987,73.0,0.0,90.0,0.0,64.0
2988,78.0,96.0,90.0,0.0,64.0
2989,74.0,0.0,90.0,0.0,64.0
2990,69.0,96.0,90.0,0.0,64.0
2991,54.0,0.0,90.0,0.0,64.0
2992,57.0,0.0,90.0,0.0,64.0
2993,73.0,0.0,90.0,0.0,64.0
2994,78.0,96.0,90.0,0.0,64.0
2995,55.0,96.0,90.0,0.0,64.0
2996,71.0,0.0,90.0,0.0,64.0
2997,76.0,0.0,90.0,0.0,64.0
2998,78.0,0.0,90.0,0.0,64.0
2999,73.0,96.0,90.0,0.0,64.0
3000,57.0,0.0,90.0,0.0,64.0
3001,74.0,96.0,90.0,0.0,64.0
3002,69.0,0.0,90.0,0.0,64.0
3003,54.0,0.0,90.0,0.0,64.0
3004,71.0,0.0,90.0,0.0,64.0
3005,55.0,0.0,90.0,0.0,64.0
3006,76.0,96.0,90.0,0.0,64.0
3007,52.0,0.0,90.0,0.0,64.0
3008,73.0,96.0,90.0,0.0,64.0
3009,67.0,0.0,90.0,0.0,64.0
3010,54.0,0.0,90.0,0.0,64.0
3011,74.0,96.0,90.0,0.0,64.0
3012,69.0,0.0,90.0,0.0,64.0
3013,50.0,96.0,90.0,0.0,64.0
3014,66.0,0.0,90.0,0.0,64.0
3015,71.0,0.0,90.0,0.0,64.0
3016,69.0,0.0,90.0,0.0,64.0
3017,74.0,0.0,90.0,0.0,64.0
3018,54.0,96.0,90.0,0.0,64.0
3019,67.0,0.0,90.0,0.0,64.0
3020,52.0,0.0,90.0,0.0,64.0
3021,73.0,96.0,90.0,0.0,64.0
3022,69.0,96.0,90.0,0.0,64.0
3023,74.0,0.0,90.0,0.0,64.0
3024,54.0,0.0,90.0,0.0,64.0
3025,66.0,96.0,90.0,0.0,64.0
3026,71.0,0.0,90.0,0.0,64.0
3027,50.0,0.0,90.0,0.0,64.0
3028,73.0,96.0,90.0,0.0,64.0
3029,52.0,0.0,90.0,0.0,64.0
3030,67.0,0.0,90.0,0.0,64.0
3031,64.0,0.0,90.0,0.0,64.0
3032,49.0,0.0,90.0,0.0,64.0
3033,70.0,96.0,90.0,0.0,64.0
3034,66.0,0.0,90.0,0.0,64.0
3035,71.0,96.0,90.0,0.0,64.0
3036,50.0,0.0,90.0,0.0,64.0
3037,62.0,0.0,90.0,0.0,64.0
3038,47.0,96.0,90.0,0.0,64.0
3039,68.0,0.0,90.0,0.0,64.0
3040,64.0,0.0,90.0,0.0,64.0
3041,70.0,0.0,90.0,0.0,64.0
3042,49.0,96.0,90.0,0.0,64.0
3043,46.0,0.0,180.0,0.0,64.0
3044,61.0,96.0,90.0,0.0,64.0
3045,66.0,96.0,180.0,0.0,64.0
3046,64.0,0.0,90.0,0.0,64.0
3047,42.0,0.0,180.0,0.0,64.0
3048,78.0,0.0,180.0,0.0,64.0
3049,58.0,96.0,90.0,0.0,64.0
3050,61.0,96.0,90.0,0.0,64.0
3051,74.0,0.0,90.0,0.0,64.0
3052,47.0,96.0,180.0,0.0,64.0
3053,59.0,96.0,90.0,0.0,64.0
3054,62.0,0.0,90.0,0.0,64.0
3055,76.0,0.0,90.0,0.0,64.0
3056,54.0,96.0,90.0,0.0,64.0
3057,73.0,0.0,90.0,0.0,64.0
3058,45.0,96.0,180.0,0.0,64.0
3059,59.0,0.0,90.0,0.0,64.0
3060,74.0,0.0,90.0,0.0,64.0
3061,50.0,96.0,90.0,0.0,64.0
3062,43.0,0.0,390.0,0.0,64.0
3063,71.0,96.0,180.0,0.0,64.0
3064,54.0,0.0,90.0,0.0,64.0
3065,47.0,96.0,90.0,0.0,64.0
3066,83.0,96.0,180.0,0.0,64.0
3067,52.0,0.0,90.0,0.0,64.0
3068,54.0,96.0,90.0,0.0,64.0
3069,82.0,0.0,90.0,0.0,64.0
3070,42.0,96.0,3270.0,0.0,64.0
3071,83.0,0.0,90.0,0.0,64.0
3072,49.0,96.0,90.0,0.0,64.0
3073,80.0,96.0,90.0,0.0,64.0
3074,56.0,0.0,90.0,0.0,64.0
3075,82.0,0.0,90.0,0.0,64.0
3076,49.0,96.0,90.0,0.0,64.0
3077,78.0,96.0,90.0,0.0,64.0
3078,58.0,0.0,90.0,0.0,64.0
3079,59.0,96.0,90.0,0.0,64.0
3080,85.0,0.0,90.0,0.0,64.0
3081,76.0,96.0,90.0,0.0,64.0
3082,56.0,0.0,90.0,0.0,64.0
3083,85.0,0.0,90.0,0.0,64.0
3084,58.0,96.0,90.0,0.0,64.0
3085,74.0,96.0,90.0,0.0,64.0
3086,59.0,0.0,90.0,0.0,64.0
3087,54.0,96.0,90.0,0.0,64.0
3088,76.0,0.0,90.0,0.0,64.0
3089,73.0,96.0,90.0,0.0,64.0
3090,61.0,0.0,90.0,0.0,64.0
3091,54.0,0.0,90.0,0.0,64.0
3092,74.0,96.0,90.0,0.0,64.0
3093,62.0,96.0,90.0,0.0,64.0
3094,71.0,0.0,90.0,0.0,64.0
3095,74.0,0.0,90.0,0.0,64.0
3096,54.0,96.0,90.0,0.0,64.0
3097,79.0,96.0,90.0,0.0,64.0
3098,64.0,0.0,90.0,0.0,64.0
3099,54.0,96.0,90.0,0.0,64.0
3100,71.0,0.0,90.0,0.0,64.0
3101,70.0,96.0,90.0,0.0,64.0
3102,66.0,96.0,300.0,0.0,64.0
3103,73.0,96.0,90.0,0.0,64.0
3104,78.0,96.0,300.0,0.0,64.0
3105,68.0,96.0,90.0,0.0,64.0
3106,70.0,96.0,390.0,0.0,64.0
3107,76.0,96.0,90.0,0.0,64.0
3108,74.0,96.0,90.0,0.0,64.0
3109,66.0,0.0,180.0,0.0,64.0
3110,73.0,0.0,90.0,0.0,64.0
3111,71.0,96.0,300.0,0.0,64.0
3112,74.0,96.0,90.0,0.0,64.0
3113,62.0,0.0,90.0,0.0,64.0
3114,64.0,0.0,90.0,0.0,64.0
3115,78.0,96.0,90.0,0.0,64.0
3116,61.0,0.0,90.0,0.0,64.0
3117,83.0,96.0,300.0,0.0,64.0
3118,62.0,96.0,90.0,0.0,64.0
3119,73.0,0.0,90.0,0.0,64.0
3120,59.0,0.0,180.0,0.0,64.0
3121,74.0,96.0,300.0,0.0,64.0
3122,77.0,96.0,90.0,0.0,64.0
3123,80.0,0.0,180.0,0.0,64.0
3124,71.0,96.0,180.0,0.0,64.0
3125,65.0,0.0,90.0,0.0,64.0
3126,73.0,0.0,390.0,0.0,64.0
3127,78.0,192.0,390.0,0.0,64.0
3128,70.0,96.0,90.0,0.0,64.0
3129,66.0,0.0,390.0,0.0,64.0
3130,71.0,0.0,90.0,0.0,64.0
3131,68.0,96.0,90.0,0.0,64.0
3132,46.0,0.0,180.0,0.0,64.0
3133,70.0,0.0,90.0,0.0,64.0
3134,47.0,96.0,180.0,0.0,64.0
3135,66.0,0.0,180.0,0.0,64.0
3136,86.0,0.0,780.0,0.0,64.0
3137,71.0,96.0,90.0,0.0,64.0
3138,78.0,96.0,180.0,0.0,64.0
3139,50.0,0.0,180.0,0.0,64.0
3140,66.0,0.0,90.0,0.0,64.0
3141,52.0,96.0,180.0,0.0,64.0
3142,67.0,0.0,180.0,0.0,64.0
3143,83.0,96.0,90.0,0.0,64.0
3144,81.0,0.0,90.0,0.0,64.0
3145,79.0,96.0,90.0,0.0,64.0
3146,64.0,96.0,180.0,0.0,64.0
3147,55.0,0.0,180.0,0.0,64.0
3148,78.0,0.0,90.0,0.0,64.0
3149,76.0,96.0,90.0,0.0,64.0
3150,57.0,0.0,180.0,0.0,64.0
3151,85.0,192.0,780.0,0.0,64.0
3152,79.0,0.0,90.0,0.0,64.0
3153,69.0,96.0,180.0,0.0,64.0
3154,49.0,0.0,180.0,0.0,64.0
3155,78.0,96.0,90.0,0.0,64.0
3156,76.0,0.0,90.0,0.0,64.0
3157,74.0,0.0,390.0,0.0,64.0
3158,66.0,96.0,90.0,0.0,64.0
3159,50.0,0.0,180.0,0.0,64.0
3160,67.0,96.0,90.0,0.0,64.0
3161,54.0,0.0,180.0,0.0,64.0
3162,64.0,96.0,90.0,0.0,64.0
3163,66.0,0.0,90.0,0.0,64.0
3164,55.0,0.0,180.0,0.0,64.0
3165,83.0,0.0,780.0,0.0,64.0
3166,62.0,96.0,180.0,0.0,64.0
3167,47.0,0.0,180.0,0.0,64.0
3168,74.0,0.0,180.0,0.0,64.0
3169,67.0,96.0,90.0,0.0,64.0
3170,62.0,96.0,90.0,0.0,64.0
3171,49.0,96.0,180.0,0.0,64.0
3172,79.0,96.0,90.0,0.0,64.0
3173,64.0,0.0,180.0,0.0,64.0
3174,78.0,0.0,90.0,0.0,64.0
3175,61.0,0.0,180.0,0.0,64.0
3176,76.0,96.0,90.0,0.0,64.0
3177,52.0,96.0,180.0,0.0,64.0
3178,74.0,0.0,90.0,0.0,64.0
3179,73.0,96.0,90.0,0.0,64.0
3180,82.0,0.0,390.0,0.0,64.0
3181,54.0,0.0,180.0,0.0,64.0
3182,76.0,0.0,90.0,0.0,64.0
3183,66.0,0.0,180.0,0.0,64.0
3184,74.0,96.0,90.0,0.0,64.0
3185,42.0,0.0,180.0,0.0,64.0
3186,73.0,96.0,90.0,0.0,64.0
3187,47.0,0.0,390.0,0.0,64.0
3188,83.0,96.0,180.0,0.0,64.0
3189,71.0,96.0,390.0,0.0,64.0
3190,62.0,96.0,90.0,0.0,64.0
3191,64.0,0.0,90.0,0.0,64.0
3192,61.0,96.0,90.0,0.0,64.0
3193,78.0,0.0,180.0,0.0,64.0
3194,62.0,0.0,90.0,0.0,64.0
3195,83.0,0.0,180.0,0.0,64.0
3196,59.0,96.0,90.0,0.0,64.0
3197,62.0,96.0,90.0,0.0,64.0
3198,61.0,96.0,90.0,0.0,64.0
3199,42.0,0.0,180.0,0.0,64.0
3200,82.0,0.0,180.0,0.0,64.0
3201,64.0,96.0,90.0,0.0,64.0
3202,83.0,96.0,180.0,0.0,64.0
3203,47.0,0.0,390.0,0.0,64.0
3204,62.0,96.0,90.0,0.0,64.0
3205,64.0,0.0,90.0,0.0,64.0
3206,66.0,0.0,180.0,0.0,64.0
3207,61.0,96.0,90.0,0.0,64.0
3208,78.0,96.0,180.0,0.0,64.0
3209,62.0,0.0,90.0,0.0,64.0
3210,71.0,0.0,180.0,0.0,64.0
3211,59.0,96.0,90.0,0.0,64.0
3212,74.0,0.0,180.0,0.0,64.0
3213,62.0,96.0,90.0,0.0,64.0
3214,70.0,96.0,180.0,0.0,64.0
3215,61.0,96.0,90.0,0.0,64.0
3216,42.0,0.0,180.0,0.0,64.0
3217,76.0,0.0,180.0,0.0,64.0
3218,64.0,0.0,90.0,0.0,64.0
3219,47.0,0.0,180.0,0.0,64.0
3220,71.0,0.0,180.0,0.0,64.0
3221,78.0,0.0,180.0,0.0,64.0
3222,62.0,96.0,90.0,0.0,64.0
3223,64.0,96.0,90.0,0.0,64.0
3224,70.0,0.0,180.0,0.0,64.0
3225,54.0,0.0,180.0,0.0,64.0
3226,61.0,96.0,90.0,0.0,64.0
3227,62.0,0.0,90.0,0.0,64.0
3228,78.0,96.0,15.0,0.0,64.0
3229,74.0,0.0,90.0,0.0,64.0
3230,59.0,96.0,90.0,0.0,64.0
3231,71.0,0.0,90.0,0.0,64.0
3232,62.0,96.0,90.0,0.0,64.0
3233,73.0,96.0,90.0,0.0,64.0
3234,61.0,0.0,90.0,0.0,64.0
3235,58.0,0.0,180.0,0.0,64.0
3236,66.0,96.0,90.0,0.0,64.0
3237,64.0,0.0,90.0,0.0,64.0
3238,62.0,96.0,90.0,0.0,64.0
3239,78.0,0.0,15.0,0.0,64.0
3240,59.0,0.0,180.0,0.0,64.0
3241,66.0,0.0,90.0,0.0,64.0
3242,64.0,96.0,90.0,0.0,64.0
3243,55.0,96.0,180.0,0.0,64.0
3244,79.0,0.0,180.0,0.0,64.0
3245,71.0,0.0,15.0,0.0,64.0
3246,67.0,0.0,90.0,0.0,64.0
3247,71.0,0.0,180.0,0.0,64.0
3248,81.0,0.0,180.0,0.0,64.0
3249,51.0,0.0,180.0,0.0,64.0
3250,66.0,96.0,90.0,0.0,64.0
3251,69.0,96.0,90.0,0.0,64.0
3252,67.0,96.0,90.0,0.0,64.0
3253,47.0,0.0,180.0,0.0,64.0
3254,75.0,0.0,180.0,0.0,64.0
3255,83.0,0.0,180.0,0.0,64.0
3256,66.0,96.0,90.0,0.0,64.0
3257,64.0,96.0,90.0,0.0,64.0
3258,71.0,0.0,390.0,0.0,64.0
3259,52.0,0.0,390.0,0.0,64.0
3260,79.0,0.0,180.0,0.0,64.0
3261,66.0,96.0,90.0,0.0,64.0
3262,63.0,96.0,90.0,0.0,64.0
3263,83.0,0.0,180.0,0.0,64.0
3264,66.0,96.0,90.0,0.0,64.0
3265,88.0,96.0,180.0,0.0,64.0
3266,64.0,96.0,90.0,0.0,64.0
3267,67.0,0.0,90.0,0.0,64.0
3268,59.0,0.0,180.0,0.0,64.0
3269,87.0,96.0,180.0,0.0,64.0
3270,66.0,96.0,90.0,0.0,64.0
3271,69.0,0.0,90.0,0.0,64.0
3272,67.0,96.0,90.0,0.0,64.0
3273,52.0,96.0,390.0,0.0,64.0
3274,88.0,96.0,180.0,0.0,64.0
3275,69.0,0.0,90.0,0.0,64.0
3276,71.0,0.0,180.0,0.0,64.0
3277,83.0,0.0,180.0,0.0,64.0
3278,66.0,96.0,90.0,0.0,64.0
3279,67.0,0.0,90.0,0.0,64.0
3280,64.0,96.0,90.0,0.0,64.0
3281,79.0,96.0,180.0,0.0,64.0
3282,76.0,0.0,180.0,0.0,64.0
3283,67.0,0.0,90.0,0.0,64.0
3284,75.0,0.0,180.0,0.0,64.0
3285,81.0,0.0,180.0,0.0,64.0
3286,66.0,96.0,90.0,0.0,64.0
3287,47.0,0.0,180.0,0.0,64.0
3288,69.0,96.0,90.0,0.0,64.0
3289,67.0,96.0,90.0,0.0,64.0
3290,52.0,0.0,180.0,0.0,64.0
3291,76.0,0.0,180.0,0.0,64.0
3292,69.0,0.0,90.0,0.0,64.0
3293,83.0,96.0,15.0,0.0,64.0
3294,66.0,96.0,90.0,0.0,64.0
3295,59.0,96.0,180.0,0.0,64.0
3296,75.0,0.0,180.0,0.0,64.0
3297,67.0,0.0,90.0,0.0,64.0
3298,83.0,0.0,15.0,0.0,64.0
3299,64.0,0.0,90.0,0.0,64.0
3300,79.0,96.0,90.0,0.0,64.0
3301,76.0,0.0,90.0,0.0,64.0
3302,67.0,96.0,90.0,0.0,64.0
3303,78.0,96.0,90.0,0.0,64.0
3304,83.0,0.0,180.0,0.0,64.0
3305,66.0,0.0,90.0,0.0,64.0
3306,63.0,96.0,180.0,0.0,64.0
3307,71.0,0.0,90.0,0.0,64.0
3308,69.0,0.0,90.0,0.0,64.0
3309,67.0,96.0,90.0,0.0,64.0
3310,64.0,0.0,180.0,0.0,64.0
3311,76.0,0.0,90.0,0.0,64.0
3312,83.0,0.0,390.0,0.0,64.0
3313,75.0,0.0,90.0,0.0,64.0
3314,66.0,96.0,90.0,0.0,64.0
3315,76.0,96.0,90.0,0.0,64.0
3316,60.0,0.0,180.0,0.0,64.0
3317,67.0,0.0,90.0,0.0,64.0
3318,71.0,0.0,90.0,0.0,64.0
3319,79.0,96.0,90.0,0.0,64.0
3320,78.0,96.0,90.0,0.0,64.0
3321,72.0,0.0,90.0,0.0,64.0
3322,57.0,96.0,180.0,0.0,64.0
3323,79.0,0.0,90.0,0.0,64.0
3324,71.0,0.0,90.0,0.0,64.0
3325,78.0,96.0,90.0,0.0,64.0
3326,69.0,0.0,90.0,0.0,64.0
3327,54.0,0.0,180.0,0.0,64.0
3328,76.0,96.0,90.0,0.0,64.0
3329,67.0,0.0,90.0,0.0,64.0
3330,75.0,0.0,90.0,0.0,64.0
3331,59.0,0.0,180.0,0.0,64.0
3332,66.0,96.0,90.0,0.0,64.0
3333,73.0,0.0,90.0,0.0,64.0
3334,64.0,96.0,90.0,0.0,64.0
3335,75.0,96.0,90.0,0.0,64.0
3336,66.0,0.0,90.0,0.0,64.0
3337,54.0,96.0,180.0,0.0,64.0
3338,67.0,0.0,90.0,0.0,64.0
3339,76.0,0.0,90.0,0.0,64.0
3340,51.0,96.0,180.0,0.0,64.0
3341,78.0,96.0,90.0,0.0,64.0
3342,69.0,0.0,90.0,0.0,64.0
3343,66.0,0.0,90.0,0.0,64.0
3344,76.0,0.0,90.0,0.0,64.0
3345,83.0,0.0,180.0,0.0,64.0
3346,47.0,0.0,180.0,0.0,64.0
3347,78.0,96.0,90.0,0.0,64.0
3348,75.0,96.0,90.0,0.0,64.0
3349,79.0,96.0,90.0,0.0,64.0
3350,52.0,96.0,180.0,0.0,64.0
3351,76.0,0.0,180.0,0.0,64.0
3352,81.0,0.0,90.0,0.0,64.0
3353,78.0,96.0,90.0,0.0,64.0
3354,75.0,0.0,180.0,0.0,64.0
3355,47.0,96.0,180.0,0.0,64.0
3356,79.0,0.0,90.0,0.0,64.0
3357,76.0,0.0,180.0,0.0,64.0
3358,43.0,96.0,180.0,0.0,64.0
3359,71.0,96.0,15.0,0.0,64.0
3360,83.0,0.0,180.0,0.0,64.0
3361,88.0,96.0,180.0,0.0,64.0
3362,69.0,96.0,90.0,0.0,64.0
3363,40.0,0.0,180.0,0.0,64.0
3364,67.0,0.0,90.0,0.0,64.0
3365,66.0,0.0,90.0,0.0,64.0
3366,47.0,96.0,180.0,0.0,64.0
3367,83.0,0.0,180.0,0.0,64.0
3368,87.0,96.0,90.0,0.0,64.0
3369,67.0,0.0,90.0,0.0,64.0
3370,88.0,0.0,90.0,0.0,64.0
3371,64.0,96.0,90.0,0.0,64.0
3372,85.0,0.0,90.0,0.0,64.0
3373,59.0,0.0,180.0,0.0,64.0
3374,87.0,192.0,90.0,0.0,64.0
3375,66.0,0.0,90.0,0.0,64.0
3376,52.0,96.0,180.0,0.0,64.0
3377,67.0,0.0,780.0,0.0,64.0
3378,83.0,0.0,180.0,0.0,64.0
3379,88.0,96.0,90.0,0.0,64.0
3380,55.0,96.0,180.0,0.0,64.0
3381,83.0,0.0,90.0,0.0,64.0
3382,84.0,192.0,180.0,0.0,64.0
3383,57.0,96.0,90.0,0.0,64.0
3384,52.0,0.0,90.0,0.0,64.0
3385,81.0,96.0,180.0,0.0,64.0
3386,60.0,96.0,300.0,0.0,64.0
3387,66.0,96.0,780.0,0.0,64.0
3388,74.0,0.0,180.0,0.0,64.0
3389,50.0,96.0,90.0,0.0,64.0
3390,86.0,0.0,180.0,0.0,64.0
3391,54.0,96.0,90.0,0.0,64.0
3392,50.0,96.0,90.0,0.0,64.0
3393,55.0,0.0,90.0,0.0,64.0
3394,83.0,96.0,90.0,0.0,64.0
3395,84.0,96.0,90.0,0.0,64.0
3396,50.0,0.0,90.0,0.0,64.0
3397,59.0,96.0,300.0,0.0,64.0
3398,81.0,96.0,90.0,0.0,64.0
3399,83.0,0.0,90.0,0.0,64.0
3400,64.0,96.0,780.0,0.0,64.0
3401,79.0,0.0,180.0,0.0,64.0
3402,48.0,96.0,90.0,0.0,64.0
3403,52.0,0.0,90.0,0.0,64.0
3404,84.0,96.0,90.0,0.0,64.0
3405,79.0,0.0,90.0,0.0,64.0
3406,48.0,96.0,90.0,0.0,64.0
3407,54.0,96.0,90.0,0.0,64.0
3408,81.0,192.0,180.0,0.0,64.0
3409,48.0,0.0,90.0,0.0,64.0
3410,57.0,96.0,300.0,0.0,64.0
3411,78.0,0.0,180.0,0.0,64.0
3412,63.0,0.0,390.0,0.0,64.0
3413,71.0,0.0,180.0,0.0,64.0
3414,47.0,96.0,90.0,0.0,64.0
3415,83.0,0.0,180.0,0.0,64.0
3416,51.0,96.0,90.0,0.0,64.0
3417,47.0,96.0,90.0,0.0,64.0
3418,79.0,0.0,90.0,0.0,64.0
3419,64.0,96.0,390.0,0.0,64.0
3420,52.0,96.0,90.0,0.0,64.0
3421,81.0,96.0,90.0,0.0,64.0
3422,47.0,0.0,90.0,0.0,64.0
3423,54.0,0.0,90.0,0.0,64.0
3424,78.0,96.0,90.0,0.0,64.0
3425,79.0,0.0,90.0,0.0,64.0
3426,47.0,0.0,90.0,0.0,64.0
3427,55.0,96.0,90.0,0.0,64.0
3428,76.0,0.0,90.0,0.0,64.0
3429,79.0,0.0,90.0,0.0,64.0
3430,71.0,96.0,90.0,0.0,64.0
3431,47.0,0.0,90.0,0.0,64.0
3432,69.0,96.0,90.0,0.0,64.0
3433,78.0,0.0,90.0,0.0,64.0
3434,57.0,0.0,90.0,0.0,64.0
3435,76.0,0.0,90.0,0.0,64.0
3436,47.0,0.0,90.0,0.0,64.0
3437,67.0,96.0,90.0,0.0,64.0
3438,59.0,0.0,90.0,0.0,64.0
3439,75.0,96.0,90.0,0.0,64.0
3440,66.0,96.0,480.0,0.0,64.0
3441,76.0,0.0,90.0,0.0,64.0
3442,47.0,96.0,90.0,0.0,64.0
3443,73.0,96.0,90.0,0.0,64.0
3444,61.0,0.0,90.0,0.0,64.0
3445,47.0,96.0,90.0,0.0,64.0
3446,75.0,0.0,90.0,0.0,64.0
3447,71.0,0.0,90.0,0.0,64.0
3448,63.0,0.0,90.0,0.0,64.0
3449,81.0,0.0,90.0,0.0,64.0
3450,47.0,96.0,90.0,0.0,64.0
3451,72.0,0.0,90.0,0.0,64.0
3452,79.0,0.0,90.0,0.0,64.0
3453,71.0,0.0,90.0,0.0,64.0
3454,59.0,96.0,90.0,0.0,64.0
3455,47.0,96.0,90.0,0.0,64.0
3456,78.0,0.0,90.0,0.0,64.0
3457,69.0,0.0,90.0,0.0,64.0
3458,76.0,96.0,90.0,0.0,64.0
3459,64.0,0.0,390.0,0.0,64.0
3460,67.0,0.0,90.0,0.0,64.0
3461,71.0,0.0,90.0,0.0,64.0
3462,69.0,96.0,90.0,0.0,64.0
3463,66.0,0.0,90.0,0.0,64.0
3464,78.0,96.0,90.0,0.0,64.0
3465,67.0,0.0,90.0,0.0,64.0
3466,71.0,96.0,90.0,0.0,64.0
3467,64.0,96.0,90.0,0.0,64.0
3468,79.0,0.0,90.0,0.0,64.0
3469,71.0,0.0,90.0,0.0,64.0
3470,67.0,96.0,90.0,0.0,64.0
3471,81.0,0.0,90.0,0.0,64.0
3472,66.0,96.0,90.0,0.0,64.0
3473,64.0,0.0,90.0,0.0,64.0
3474,71.0,96.0,90.0,0.0,64.0
3475,83.0,0.0,90.0,0.0,64.0
3476,63.0,96.0,90.0,0.0,64.0
3477,71.0,0.0,90.0,0.0,64.0
3478,64.0,96.0,90.0,0.0,64.0
3479,61.0,96.0,90.0,0.0,64.0
3480,85.0,0.0,90.0,0.0,64.0
3481,63.0,0.0,90.0,0.0,64.0
3482,71.0,96.0,90.0,0.0,64.0
3483,87.0,96.0,180.0,0.0,64.0
3484,59.0,96.0,90.0,0.0,64.0
3485,63.0,0.0,90.0,0.0,64.0
3486,59.0,0.0,90.0,0.0,64.0
3487,57.0,0.0,90.0,0.0,64.0
3488,83.0,0.0,180.0,0.0,64.0
3489,61.0,96.0,90.0,0.0,64.0
3490,59.0,48.0,90.0,0.0,64.0
3491,63.0,0.0,90.0,0.0,64.0
3492,64.0,48.0,90.0,0.0,64.0
3493,85.0,48.0,40.0,0.0,64.0
3494,55.0,0.0,90.0,0.0,64.0
3495,83.0,0.0,40.0,0.0,64.0
3496,59.0,0.0,90.0,0.0,64.0
3497,85.0,48.0,40.0,0.0,64.0
3498,57.0,0.0,90.0,0.0,64.0
3499,83.0,48.0,40.0,0.0,64.0
3500,66.0,48.0,90.0,0.0,64.0
3501,85.0,48.0,40.0,0.0,64.0
3502,54.0,0.0,90.0,0.0,64.0
3503,83.0,0.0,40.0,0.0,64.0
3504,85.0,48.0,40.0,0.0,64.0
3505,59.0,0.0,90.0,0.0,64.0
3506,55.0,0.0,90.0,0.0,64.0
3507,83.0,48.0,40.0,0.0,64.0
3508,85.0,48.0,40.0,0.0,64.0
3509,52.0,0.0,90.0,0.0,64.0
3510,67.0,48.0,90.0,0.0,64.0
3511,83.0,0.0,40.0,0.0,64.0
3512,54.0,48.0,90.0,0.0,64.0
3513,59.0,0.0,90.0,0.0,64.0
3514,85.0,48.0,40.0,0.0,64.0
3515,83.0,0.0,40.0,0.0,64.0
3516,85.0,48.0,40.0,0.0,64.0
3517,69.0,0.0,90.0,0.0,64.0
3518,52.0,48.0,90.0,0.0,64.0
3519,83.0,0.0,40.0,0.0,64.0
3520,59.0,0.0,90.0,0.0,64.0
3521,85.0,48.0,40.0,0.0,64.0
3522,54.0,48.0,90.0,0.0,64.0
3523,83.0,0.0,40.0,0.0,64.0
3524,71.0,0.0,90.0,0.0,64.0
3525,85.0,48.0,40.0,0.0,64.0
3526,51.0,0.0,90.0,0.0,64.0
3527,83.0,48.0,40.0,0.0,64.0
3528,85.0,48.0,40.0,0.0,64.0
3529,59.0,0.0,90.0,0.0,64.0
3530,52.0,48.0,90.0,0.0,64.0
3531,83.0,0.0,40.0,0.0,64.0
3532,49.0,48.0,90.0,0.0,64.0
3533,73.0,0.0,90.0,0.0,64.0
3534,85.0,48.0,40.0,0.0,64.0
3535,83.0,0.0,40.0,0.0,64.0
3536,51.0,0.0,90.0,0.0,64.0
3537,59.0,48.0,90.0,0.0,64.0
3538,85.0,48.0,40.0,0.0,64.0
3539,83.0,0.0,40.0,0.0,64.0
3540,85.0,48.0,40.0,0.0,64.0
3541,47.0,0.0,180.0,0.0,64.0
3542,75.0,48.0,90.0,0.0,64.0
3543,83.0,0.0,40.0,0.0,64.0
3544,85.0,48.0,40.0,0.0,64.0
3545,71.0,48.0,90.0,0.0,64.0
3546,83.0,0.0,40.0,0.0,64.0
3547,85.0,48.0,40.0,0.0,64.0
3548,59.0,0.0,180.0,0.0,64.0
3549,73.0,0.0,90.0,0.0,64.0
3550,83.0,48.0,40.0,0.0,64.0
3551,85.0,48.0,40.0,0.0,64.0
3552,75.0,48.0,90.0,0.0,64.0
3553,83.0,0.0,40.0,0.0,64.0
3554,85.0,48.0,40.0,0.0,64.0
3555,55.0,96.0,180.0,0.0,64.0
3556,76.0,96.0,480.0,0.0,64.0
3557,83.0,96.0,40.0,0.0,64.0
3558,79.0,0.0,90.0,0.0,64.0
3559,81.0,96.0,90.0,0.0,64.0
3560,52.0,96.0,180.0,0.0,64.0
3561,83.0,0.0,90.0,0.0,64.0
3562,57.0,0.0,180.0,0.0,64.0
3563,84.0,96.0,480.0,0.0,64.0
3564,69.0,96.0,90.0,0.0,64.0
3565,71.0,96.0,90.0,0.0,64.0
3566,55.0,0.0,180.0,0.0,64.0
3567,72.0,96.0,90.0,0.0,64.0
3568,74.0,96.0,480.0,0.0,64.0
3569,54.0,0.0,180.0,0.0,64.0
3570,78.0,96.0,90.0,0.0,64.0
3571,79.0,96.0,90.0,0.0,64.0
3572,50.0,0.0,180.0,0.0,64.0
3573,81.0,96.0,90.0,0.0,64.0
3574,55.0,0.0,180.0,0.0,64.0
3575,83.0,96.0,480.0,0.0,64.0
3576,67.0,96.0,90.0,0.0,64.0
3577,69.0,96.0,90.0,0.0,64.0
3578,54.0,0.0,180.0,0.0,64.0
3579,71.0,96.0,90.0,0.0,64.0
3580,72.0,96.0,870.0,0.0,64.0
3581,52.0,96.0,180.0,0.0,64.0
3582,86.0,0.0,90.0,0.0,64.0
3583,84.0,96.0,90.0,0.0,64.0
3584,50.0,96.0,180.0,0.0,64.0
3585,83.0,0.0,90.0,0.0,64.0
3586,81.0,96.0,90.0,0.0,64.0
3587,52.0,96.0,180.0,0.0,64.0
3588,79.0,0.0,90.0,0.0,64.0
3589,78.0,96.0,90.0,0.0,64.0
3590,48.0,96.0,180.0,0.0,64.0
3591,79.0,0.0,90.0,0.0,64.0
3592,50.0,96.0,390.0,0.0,64.0
3593,78.0,0.0,180.0,0.0,64.0
3594,76.0,96.0,90.0,0.0,64.0
3595,81.0,0.0,180.0,0.0,64.0
3596,74.0,96.0,90.0,0.0,64.0
3597,72.0,0.0,90.0,0.0,64.0
3598,71.0,96.0,90.0,0.0,64.0
3599,72.0,0.0,90.0,0.0,64.0
3600,74.0,96.0,15.0,0.0,64.0
3601,78.0,0.0,180.0,0.0,64.0
3602,50.0,96.0,180.0,0.0,64.0
3603,69.0,96.0,90.0,0.0,64.0
3604,71.0,0.0,90.0,0.0,64.0
3605,67.0,96.0,90.0,0.0,64.0
3606,79.0,96.0,480.0,0.0,64.0
3607,43.0,0.0,390.0,0.0,64.0
3608,71.0,0.0,90.0,0.0,64.0
3609,72.0,0.0,90.0,0.0,64.0
3610,69.0,96.0,15.0,0.0,64.0
3611,66.0,0.0,90.0,0.0,64.0
3612,71.0,0.0,90.0,0.0,64.0
3613,67.0,96.0,15.0,0.0,64.0
3614,64.0,96.0,180.0,0.0,64.0
3615,81.0,0.0,90.0,0.0,64.0
3616,79.0,0.0,180.0,0.0,64.0
3617,69.0,96.0,180.0,0.0,64.0
3618,83.0,96.0,90.0,0.0,64.0
3619,85.0,0.0,90.0,0.0,64.0
3620,62.0,96.0,90.0,0.0,64.0
3621,86.0,192.0,780.0,0.0,64.0
3622,78.0,0.0,90.0,0.0,64.0
3623,79.0,0.0,90.0,0.0,64.0
3624,64.0,96.0,90.0,0.0,64.0
3625,76.0,0.0,90.0,0.0,64.0
3626,60.0,96.0,90.0,0.0,64.0
3627,78.0,0.0,90.0,0.0,64.0
3628,62.0,192.0,90.0,0.0,64.0
3629,74.0,96.0,180.0,0.0,64.0
3630,59.0,0.0,780.0,0.0,64.0
3631,79.0,96.0,90.0,0.0,64.0
3632,74.0,0.0,90.0,0.0,64.0
3633,76.0,96.0,180.0,0.0,64.0
3634,79.0,0.0,90.0,0.0,64.0
3635,72.0,0.0,180.0,0.0,64.0
3636,81.0,96.0,90.0,0.0,64.0
3637,83.0,96.0,90.0,0.0,64.0
3638,57.0,0.0,780.0,0.0,64.0
3639,84.0,96.0,90.0,0.0,64.0
3640,66.0,96.0,180.0,0.0,64.0
3641,83.0,0.0,90.0,0.0,64.0
3642,81.0,96.0,90.0,0.0,64.0
3643,78.0,96.0,180.0,0.0,64.0
3644,84.0,0.0,90.0,0.0,64.0
3645,74.0,96.0,90.0,0.0,64.0
3646,83.0,192.0,780.0,0.0,64.0
3647,76.0,96.0,90.0,0.0,64.0
3648,72.0,96.0,90.0,0.0,64.0
3649,74.0,192.0,90.0,0.0,64.0
3650,71.0,96.0,180.0,0.0,64.0
3651,55.0,96.0,780.0,0.0,64.0
3652,76.0,96.0,90.0,0.0,64.0
3653,71.0,0.0,90.0,0.0,64.0
3654,72.0,96.0,180.0,0.0,64.0
3655,76.0,0.0,90.0,0.0,64.0
3656,69.0,0.0,180.0,0.0,64.0
3657,78.0,96.0,90.0,0.0,64.0
3658,79.0,0.0,90.0,0.0,64.0
3659,81.0,96.0,90.0,0.0,64.0
3660,62.0,96.0,180.0,0.0,64.0
3661,54.0,0.0,390.0,0.0,64.0
3662,79.0,0.0,90.0,0.0,64.0
3663,78.0,96.0,90.0,0.0,64.0
3664,72.0,0.0,180.0,0.0,64.0
3665,81.0,96.0,90.0,0.0,64.0
3666,55.0,96.0,180.0,0.0,64.0
3667,74.0,0.0,180.0,0.0,64.0
3668,71.0,96.0,90.0,0.0,64.0
3669,72.0,0.0,90.0,0.0,64.0
3670,78.0,0.0,180.0,0.0,64.0
3671,69.0,96.0,90.0,0.0,64.0
3672,57.0,0.0,180.0,0.0,64.0
3673,50.0,96.0,180.0,0.0,64.0
3674,71.0,0.0,90.0,0.0,64.0
3675,79.0,0.0,180.0,0.0,64.0
3676,67.0,96.0,90.0,0.0,64.0
3677,55.0,96.0,180.0,0.0,64.0
3678,59.0,0.0,180.0,0.0,64.0
3679,71.0,0.0,90.0,0.0,64.0
3680,69.0,96.0,90.0,0.0,64.0
3681,54.0,0.0,180.0,0.0,64.0
3682,72.0,96.0,90.0,0.0,64.0
3683,62.0,0.0,15.0,0.0,64.0
3684,55.0,96.0,390.0,0.0,64.0
3685,71.0,96.0,90.0,0.0,64.0
3686,72.0,96.0,90.0,0.0,64.0
3687,69.0,96.0,90.0,0.0,64.0
3688,74.0,0.0,180.0,0.0,64.0
3689,71.0,0.0,90.0,0.0,64.0
3690,79.0,96.0,180.0,0.0,64.0
3691,67.0,96.0,90.0,0.0,64.0
3692,71.0,0.0,90.0,0.0,64.0
3693,78.0,96.0,180.0,0.0,64.0
3694,69.0,96.0,90.0,0.0,64.0
3695,72.0,0.0,90.0,0.0,64.0
3696,71.0,96.0,90.0,0.0,64.0
3697,79.0,0.0,180.0,0.0,64.0
3698,72.0,96.0,90.0,0.0,64.0
3699,69.0,96.0,90.0,0.0,64.0
3700,81.0,0.0,180.0,0.0,64.0
3701,66.0,96.0,180.0,0.0,64.0
3702,50.0,0.0,180.0,0.0,64.0
3703,71.0,0.0,90.0,0.0,64.0
3704,55.0,0.0,180.0,0.0,64.0
3705,83.0,0.0,180.0,0.0,64.0
3706,67.0,96.0,90.0,0.0,64.0
3707,71.0,0.0,90.0,0.0,64.0
3708,69.0,96.0,90.0,0.0,64.0
3709,62.0,96.0,15.0,0.0,64.0
3710,54.0,96.0,180.0,0.0,64.0
3711,72.0,0.0,90.0,0.0,64.0
3712,55.0,0.0,180.0,0.0,64.0
3713,71.0,96.0,90.0,0.0,64.0
3714,62.0,0.0,180.0,0.0,64.0
3715,74.0,96.0,90.0,0.0,64.0
3716,67.0,96.0,180.0,0.0,64.0
3717,57.0,0.0,180.0,0.0,64.0
3718,73.0,96.0,90.0,0.0,64.0
3719,76.0,0.0,90.0,0.0,64.0
3720,59.0,96.0,180.0,0.0,64.0
3721,66.0,0.0,180.0,0.0,64.0
3722,74.0,96.0,90.0,0.0,64.0
3723,78.0,0.0,90.0,0.0,64.0
3724,76.0,96.0,90.0,0.0,64.0
3725,69.0,96.0,180.0,0.0,64.0
3726,61.0,0.0,180.0,0.0,64.0
3727,79.0,0.0,90.0,0.0,64.0
3728,78.0,96.0,90.0,0.0,64.0
3729,62.0,0.0,180.0,0.0,64.0
3730,69.0,96.0,180.0,0.0,64.0
3731,79.0,0.0,90.0,0.0,64.0
3732,76.0,96.0,90.0,0.0,64.0
3733,81.0,0.0,180.0,0.0,64.0
3734,78.0,96.0,90.0,0.0,64.0
3735,74.0,96.0,90.0,0.0,64.0
3736,86.0,0.0,180.0,0.0,64.0
3737,78.0,96.0,90.0,0.0,64.0
3738,76.0,96.0,90.0,0.0,64.0
3739,85.0,0.0,180.0,0.0,64.0
3740,79.0,96.0,90.0,0.0,64.0
3741,78.0,96.0,90.0,0.0,64.0
3742,86.0,96.0,180.0,0.0,64.0
3743,79.0,0.0,90.0,0.0,64.0
3744,57.0,0.0,180.0,0.0,64.0
3745,76.0,96.0,90.0,0.0,64.0
3746,78.0,96.0,90.0,0.0,64.0
3747,62.0,0.0,180.0,0.0,64.0
3748,74.0,96.0,90.0,0.0,64.0
3749,78.0,96.0,90.0,0.0,64.0
3750,76.0,96.0,90.0,0.0,64.0
3751,61.0,96.0,180.0,0.0,64.0
3752,79.0,0.0,90.0,0.0,64.0
3753,78.0,96.0,90.0,0.0,64.0
3754,62.0,96.0,180.0,0.0,64.0
3755,79.0,0.0,90.0,0.0,64.0
3756,45.0,0.0,180.0,0.0,64.0
3757,76.0,96.0,90.0,0.0,64.0
3758,61.0,0.0,180.0,0.0,64.0
3759,78.0,96.0,90.0,0.0,64.0
3760,66.0,96.0,180.0,0.0,64.0
3761,50.0,0.0,180.0,0.0,64.0
3762,74.0,96.0,90.0,0.0,64.0
3763,78.0,0.0,90.0,0.0,64.0
3764,49.0,96.0,180.0,0.0,64.0
3765,76.0,96.0,90.0,0.0,64.0
3766,69.0,0.0,180.0,0.0,64.0
3767,79.0,0.0,90.0,0.0,64.0
3768,78.0,96.0,90.0,0.0,64.0
3769,62.0,0.0,780.0,0.0,64.0
3770,50.0,96.0,180.0,0.0,64.0
3771,81.0,0.0,90.0,0.0,64.0
3772,80.0,96.0,90.0,0.0,64.0
3773,52.0,0.0,180.0,0.0,64.0
3774,83.0,96.0,90.0,0.0,64.0
3775,81.0,96.0,90.0,0.0,64.0
3776,54.0,96.0,180.0,0.0,64.0
3777,84.0,0.0,90.0,0.0,64.0
3778,56.0,0.0,180.0,0.0,64.0
3779,83.0,96.0,90.0,0.0,64.0
3780,86.0,96.0,90.0,0.0,64.0
3781,69.0,0.0,180.0,0.0,64.0
3782,84.0,96.0,90.0,0.0,64.0
3783,88.0,0.0,1140.0,0.0,64.0
3784,57.0,0.0,390.0,0.0,64.0
3785,86.0,96.0,90.0,0.0,64.0
3786,71.0,96.0,180.0,0.0,64.0
3787,83.0,96.0,90.0,0.0,64.0
3788,84.0,0.0,90.0,0.0,64.0
3789,81.0,96.0,90.0,0.0,64.0
3790,72.0,0.0,180.0,0.0,64.0
3791,83.0,96.0,90.0,0.0,64.0
3792,79.0,96.0,90.0,0.0,64.0
3793,69.0,96.0,180.0,0.0,64.0
3794,81.0,0.0,90.0,0.0,64.0
3795,77.0,0.0,780.0,0.0,64.0
3796,50.0,96.0,180.0,0.0,64.0
3797,74.0,96.0,90.0,0.0,64.0
3798,76.0,0.0,90.0,0.0,64.0
3799,72.0,96.0,90.0,0.0,64.0
3800,52.0,0.0,180.0,0.0,64.0
3801,74.0,96.0,90.0,0.0,64.0
3802,86.0,0.0,180.0,0.0,64.0
3803,53.0,0.0,180.0,0.0,64.0
3804,71.0,96.0,90.0,0.0,64.0
3805,72.0,96.0,90.0,0.0,64.0
3806,84.0,0.0,180.0,0.0,64.0
3807,69.0,96.0,90.0,0.0,64.0
3808,50.0,0.0,180.0,0.0,64.0
3809,71.0,96.0,90.0,0.0,64.0
3810,83.0,96.0,90.0,0.0,64.0
3811,86.0,96.0,1140.0,0.0,64.0
3812,55.0,96.0,390.0,0.0,64.0
3813,67.0,96.0,180.0,0.0,64.0
3814,84.0,0.0,90.0,0.0,64.0
3815,81.0,96.0,90.0,0.0,64.0
3816,69.0,0.0,180.0,0.0,64.0
3817,83.0,0.0,90.0,0.0,64.0
3818,79.0,96.0,90.0,0.0,64.0
3819,71.0,96.0,180.0,0.0,64.0
3820,81.0,0.0,90.0,0.0,64.0
3821,67.0,96.0,180.0,0.0,64.0
3822,77.0,96.0,90.0,0.0,64.0
3823,79.0,0.0,90.0,0.0,64.0
3824,76.0,96.0,780.0,0.0,64.0
3825,48.0,0.0,180.0,0.0,64.0
3826,72.0,96.0,90.0,0.0,64.0
3827,74.0,96.0,90.0,0.0,64.0
3828,71.0,96.0,90.0,0.0,64.0
3829,50.0,0.0,180.0,0.0,64.0
3830,72.0,0.0,90.0,0.0,64.0
3831,84.0,0.0,180.0,0.0,64.0
3832,52.0,96.0,180.0,0.0,64.0
3833,69.0,96.0,90.0,0.0,64.0
3834,71.0,0.0,90.0,0.0,64.0
3835,83.0,0.0,180.0,0.0,64.0
3836,67.0,96.0,90.0,0.0,64.0
3837,48.0,0.0,180.0,0.0,64.0
3838,69.0,0.0,90.0,0.0,64.0
3839,65.0,96.0,180.0,0.0,64.0
3840,84.0,0.0,1140.0,0.0,64.0
3841,81.0,96.0,90.0,0.0,64.0
3842,53.0,0.0,390.0,0.0,64.0
3843,83.0,0.0,90.0,0.0,64.0
3844,79.0,96.0,90.0,0.0,64.0
3845,67.0,96.0,180.0,0.0,64.0
3846,81.0,0.0,90.0,0.0,64.0
3847,77.0,96.0,90.0,0.0,64.0
3848,69.0,96.0,180.0,0.0,64.0
3849,79.0,0.0,90.0,0.0,64.0
3850,65.0,0.0,180.0,0.0,64.0
3851,76.0,96.0,90.0,0.0,64.0
3852,77.0,96.0,90.0,0.0,64.0
3853,71.0,0.0,180.0,0.0,64.0
3854,59.0,96.0,90.0,0.0,64.0
3855,75.0,0.0,390.0,0.0,64.0
3856,60.0,96.0,90.0,0.0,64.0
3857,66.0,96.0,180.0,0.0,64.0
3858,57.0,96.0,90.0,0.0,64.0
3859,59.0,0.0,90.0,0.0,64.0
3860,76.0,0.0,180.0,0.0,64.0
3861,55.0,96.0,90.0,0.0,64.0
3862,67.0,96.0,180.0,0.0,64.0
3863,83.0,0.0,180.0,0.0,64.0
3864,57.0,0.0,90.0,0.0,64.0
3865,81.0,0.0,180.0,0.0,64.0
3866,78.0,0.0,180.0,0.0,64.0
3867,63.0,96.0,180.0,0.0,64.0
3868,54.0,96.0,90.0,0.0,64.0
3869,55.0,0.0,90.0,0.0,64.0
3870,52.0,0.0,390.0,0.0,64.0
3871,64.0,0.0,180.0,0.0,64.0
3872,79.0,96.0,90.0,0.0,64.0
3873,71.0,0.0,390.0,0.0,64.0
3874,81.0,96.0,90.0,0.0,64.0
3875,59.0,96.0,180.0,0.0,64.0
3876,78.0,96.0,90.0,0.0,64.0
3877,79.0,0.0,90.0,0.0,64.0
3878,64.0,0.0,180.0,0.0,64.0
3879,76.0,96.0,90.0,0.0,64.0
3880,79.0,96.0,90.0,0.0,64.0
3881,47.0,0.0,180.0,0.0,64.0
3882,63.0,0.0,180.0,0.0,64.0
3883,78.0,96.0,90.0,0.0,64.0
3884,81.0,0.0,90.0,0.0,64.0
3885,52.0,0.0,390.0,0.0,64.0
3886,79.0,96.0,90.0,0.0,64.0
3887,71.0,96.0,15.0,0.0,64.0
3888,64.0,0.0,390.0,0.0,64.0
3889,81.0,96.0,90.0,0.0,64.0
3890,78.0,96.0,90.0,0.0,64.0
3891,71.0,0.0,15.0,0.0,64.0
3892,79.0,0.0,90.0,0.0,64.0
3893,76.0,96.0,180.0,0.0,64.0
3894,79.0,0.0,90.0,0.0,64.0
3895,47.0,96.0,180.0,0.0,64.0
3896,75.0,0.0,180.0,0.0,64.0
3897,78.0,96.0,90.0,0.0,64.0
3898,81.0,0.0,90.0,0.0,64.0
3899,71.0,0.0,15.0,0.0,64.0
3900,79.0,96.0,90.0,0.0,64.0
3901,76.0,0.0,180.0,0.0,64.0
3902,40.0,0.0,180.0,0.0,64.0
3903,81.0,0.0,90.0,0.0,64.0
3904,47.0,0.0,180.0,0.0,64.0
3905,78.0,96.0,90.0,0.0,64.0
3906,75.0,96.0,180.0,0.0,64.0
3907,69.0,0.0,180.0,0.0,64.0
3908,79.0,0.0,90.0,0.0,64.0
3909,52.0,0.0,180.0,0.0,64.0
3910,71.0,96.0,180.0,0.0,64.0
3911,76.0,96.0,90.0,0.0,64.0
3912,67.0,0.0,180.0,0.0,64.0
3913,79.0,0.0,90.0,0.0,64.0
3914,51.0,96.0,180.0,0.0,64.0
3915,78.0,96.0,90.0,0.0,64.0
3916,71.0,0.0,180.0,0.0,64.0
3917,59.0,0.0,180.0,0.0,64.0
3918,81.0,0.0,90.0,0.0,64.0
3919,71.0,0.0,390.0,0.0,64.0
3920,64.0,0.0,390.0,0.0,64.0
3921,52.0,96.0,180.0,0.0,64.0
3922,80.0,96.0,90.0,0.0,64.0
3923,83.0,0.0,90.0,0.0,64.0
3924,82.0,96.0,90.0,0.0,64.0
3925,54.0,96.0,180.0,0.0,64.0
3926,85.0,0.0,90.0,0.0,64.0
3927,56.0,0.0,180.0,0.0,64.0
3928,83.0,96.0,90.0,0.0,64.0
3929,86.0,96.0,90.0,0.0,64.0
3930,66.0,0.0,180.0,0.0,64.0
3931,61.0,96.0,180.0,0.0,64.0
3932,85.0,96.0,90.0,0.0,64.0
3933,58.0,0.0,180.0,0.0,64.0
3934,88.0,0.0,90.0,0.0,64.0
3935,86.0,96.0,90.0,0.0,64.0
3936,59.0,96.0,180.0,0.0,64.0
3937,66.0,0.0,180.0,0.0,64.0
3938,88.0,0.0,90.0,0.0,64.0
3939,85.0,96.0,90.0,0.0,64.0
3940,66.0,96.0,180.0,0.0,64.0
3941,86.0,0.0,90.0,0.0,64.0
3942,83.0,96.0,90.0,0.0,64.0
3943,71.0,0.0,180.0,0.0,64.0
3944,86.0,96.0,90.0,0.0,64.0
3945,54.0,0.0,180.0,0.0,64.0
3946,85.0,96.0,90.0,0.0,64.0
3947,70.0,96.0,180.0,0.0,64.0
3948,78.0,0.0,180.0,0.0,64.0
3949,88.0,0.0,90.0,0.0,64.0
3950,59.0,0.0,390.0,0.0,64.0
3951,71.0,0.0,390.0,0.0,64.0
3952,86.0,96.0,90.0,0.0,64.0
3953,88.0,0.0,90.0,0.0,64.0
3954,78.0,96.0,15.0,0.0,64.0
3955,85.0,96.0,90.0,0.0,64.0
3956,86.0,96.0,90.0,0.0,64.0
3957,83.0,96.0,90.0,0.0,64.0
3958,86.0,0.0,90.0,0.0,64.0
3959,82.0,0.0,180.0,0.0,64.0
3960,85.0,96.0,90.0,0.0,64.0
3961,54.0,96.0,180.0,0.0,64.0
3962,88.0,0.0,90.0,0.0,64.0
3963,47.0,0.0,180.0,0.0,64.0
3964,78.0,0.0,15.0,0.0,64.0
3965,86.0,96.0,90.0,0.0,64.0
3966,83.0,0.0,180.0,0.0,64.0
3967,88.0,0.0,90.0,0.0,64.0
3968,54.0,96.0,180.0,0.0,64.0
3969,82.0,0.0,180.0,0.0,64.0
3970,76.0,0.0,180.0,0.0,64.0
3971,85.0,96.0,90.0,0.0,64.0
3972,86.0,0.0,90.0,0.0,64.0
3973,59.0,0.0,180.0,0.0,64.0
3974,78.0,96.0,180.0,0.0,64.0
3975,74.0,0.0,180.0,0.0,64.0
3976,83.0,96.0,90.0,0.0,64.0
3977,86.0,0.0,90.0,0.0,64.0
3978,58.0,0.0,180.0,0.0,64.0
3979,85.0,96.0,90.0,0.0,64.0
3980,78.0,96.0,180.0,0.0,64.0
3981,66.0,0.0,180.0,0.0,64.0
3982,88.0,0.0,90.0,0.0,64.0
3983,86.0,96.0,90.0,0.0,64.0
3984,59.0,0.0,180.0,0.0,64.0
3985,78.0,0.0,390.0,0.0,64.0
3986,71.0,96.0,390.0,0.0,64.0
3987,88.0,96.0,90.0,0.0,64.0
3988,61.0,0.0,180.0,0.0,64.0
3989,86.0,96.0,90.0,0.0,64.0
3990,85.0,0.0,90.0,0.0,64.0
3991,83.0,96.0,90.0,0.0,64.0
3992,62.0,96.0,180.0,0.0,64.0
3993,86.0,0.0,90.0,0.0,64.0
3994,85.0,0.0,90.0,0.0,64.0
3995,64.0,0.0,180.0,0.0,64.0
3996,79.0,0.0,180.0,0.0,64.0
3997,76.0,96.0,90.0,0.0,64.0
3998,83.0,96.0,90.0,0.0,64.0
3999,74.0,0.0,90.0,0.0,64.0
4000,73.0,96.0,90.0,0.0,64.0
4001,82.0,0.0,180.0,0.0,64.0
4002,66.0,0.0,180.0,0.0,64.0
4003,71.0,0.0,90.0,0.0,64.0
4004,78.0,96.0,15.0,0.0,64.0
4005,54.0,0.0,180.0,0.0,64.0
4006,73.0,96.0,180.0,0.0,64.0
4007,70.0,96.0,90.0,0.0,64.0
4008,68.0,0.0,90.0,0.0,64.0
4009,66.0,96.0,90.0,0.0,64.0
4010,64.0,96.0,90.0,0.0,64.0
4011,78.0,0.0,180.0,0.0,64.0
4012,62.0,96.0,90.0,0.0,64.0
4013,61.0,96.0,90.0,0.0,64.0
4014,59.0,0.0,90.0,0.0,64.0
4015,74.0,96.0,90.0,0.0,64.0
4016,76.0,96.0,90.0,0.0,64.0
4017,57.0,0.0,90.0,0.0,64.0
4018,55.0,0.0,90.0,0.0,64.0
4019,73.0,96.0,90.0,0.0,64.0
4020,54.0,0.0,90.0,0.0,64.0
4021,74.0,96.0,90.0,0.0,64.0
4022,71.0,96.0,180.0,0.0,64.0
4023,52.0,96.0,90.0,0.0,64.0
4024,50.0,0.0,90.0,0.0,64.0
4025,49.0,96.0,90.0,0.0,64.0
4026,83.0,96.0,180.0,0.0,64.0
4027,47.0,0.0,90.0,0.0,64.0
4028,54.0,96.0,180.0,0.0,64.0
4029,82.0,96.0,90.0,0.0,64.0
4030,83.0,0.0,90.0,0.0,64.0
4031,80.0,96.0,90.0,0.0,64.0
4032,42.0,0.0,180.0,0.0,64.0
4033,82.0,192.0,90.0,0.0,64.0
4034,78.0,0.0,180.0,0.0,64.0
4035,59.0,96.0,90.0,0.0,64.0
4036,83.0,96.0,90.0,0.0,64.0
4037,61.0,0.0,90.0,0.0,64.0
4038,78.0,0.0,90.0,0.0,64.0
4039,62.0,96.0,90.0,0.0,64.0
4040,52.0,96.0,90.0,0.0,64.0
4041,79.0,96.0,180.0,0.0,64.0
4042,55.0,0.0,90.0,0.0,64.0
4043,76.0,96.0,180.0,0.0,64.0
4044,59.0,96.0,90.0,0.0,64.0
4045,62.0,0.0,90.0,0.0,64.0
4046,61.0,96.0,90.0,0.0,64.0
4047,69.0,96.0,180.0,0.0,64.0
4048,64.0,0.0,90.0,0.0,64.0
4049,81.0,96.0,180.0,0.0,64.0
4050,57.0,96.0,90.0,0.0,64.0
4051,61.0,0.0,90.0,0.0,64.0
4052,78.0,0.0,90.0,0.0,64.0
4053,50.0,96.0,90.0,0.0,64.0
4054,79.0,96.0,90.0,0.0,64.0
4055,54.0,0.0,90.0,0.0,64.0
4056,76.0,0.0,90.0,0.0,64.0
4057,57.0,96.0,90.0,0.0,64.0
4058,78.0,0.0,90.0,0.0,64.0
4059,61.0,96.0,90.0,0.0,64.0
4060,74.0,96.0,180.0,0.0,64.0
4061,59.0,96.0,90.0,0.0,64.0
4062,62.0,0.0,90.0,0.0,64.0
4063,55.0,96.0,90.0,0.0,64.0
4064,79.0,0.0,90.0,0.0,64.0
4065,74.0,96.0,90.0,0.0,64.0
4066,59.0,0.0,90.0,0.0,64.0
4067,76.0,0.0,180.0,0.0,64.0
4068,49.0,96.0,90.0,0.0,64.0
4069,52.0,96.0,90.0,0.0,64.0
4070,55.0,96.0,90.0,0.0,64.0
4071,73.0,96.0,180.0,0.0,64.0
4072,59.0,0.0,90.0,0.0,64.0
4073,58.0,96.0,90.0,0.0,64.0
4074,66.0,0.0,180.0,0.0,64.0
4075,61.0,96.0,90.0,0.0,64.0
4076,78.0,0.0,180.0,0.0,64.0
4077,54.0,96.0,90.0,0.0,64.0
4078,58.0,96.0,90.0,0.0,64.0
4079,74.0,96.0,90.0,0.0,64.0
4080,47.0,0.0,180.0,0.0,64.0
4081,76.0,96.0,90.0,0.0,64.0
4082,49.0,96.0,180.0,0.0,64.0
4083,73.0,96.0,90.0,0.0,64.0
4084,74.0,0.0,90.0,0.0,64.0
4085,71.0,96.0,90.0,0.0,64.0
4086,50.0,96.0,180.0,0.0,64.0
4087,74.0,0.0,90.0,0.0,64.0
4088,73.0,96.0,90.0,0.0,64.0
4089,47.0,0.0,180.0,0.0,64.0
4090,71.0,96.0,90.0,0.0,64.0
4091,54.0,0.0,180.0,0.0,64.0
4092,70.0,96.0,90.0,0.0,64.0
4093,71.0,96.0,90.0,0.0,64.0
4094,68.0,96.0,90.0,0.0,64.0
4095,56.0,0.0,180.0,0.0,64.0
4096,70.0,96.0,90.0,0.0,64.0
4097,58.0,0.0,180.0,0.0,64.0
4098,66.0,96.0,90.0,0.0,64.0
4099,70.0,96.0,90.0,0.0,64.0
4100,54.0,96.0,180.0,0.0,64.0
4101,73.0,96.0,90.0,0.0,64.0
4102,76.0,0.0,90.0,0.0,64.0
4103,59.0,96.0,180.0,0.0,64.0
4104,74.0,96.0,90.0,0.0,64.0
4105,76.0,0.0,90.0,0.0,64.0
4106,61.0,0.0,180.0,0.0,64.0
4107,73.0,96.0,90.0,0.0,64.0
4108,74.0,96.0,90.0,0.0,64.0
4109,62.0,96.0,180.0,0.0,64.0
4110,71.0,96.0,90.0,0.0,64.0
4111,74.0,0.0,90.0,0.0,64.0
4112,59.0,96.0,180.0,0.0,64.0
4113,78.0,96.0,90.0,0.0,64.0
4114,81.0,0.0,90.0,0.0,64.0
4115,64.0,96.0,180.0,0.0,64.0
4116,79.0,96.0,90.0,0.0,64.0
4117,81.0,0.0,90.0,0.0,64.0
4118,78.0,96.0,90.0,0.0,64.0
4119,66.0,0.0,180.0,0.0,64.0
4120,79.0,96.0,90.0,0.0,64.0
4121,67.0,96.0,180.0,0.0,64.0
4122,76.0,96.0,90.0,0.0,64.0
4123,78.0,0.0,90.0,0.0,64.0
4124,64.0,0.0,180.0,0.0,64.0
4125,74.0,96.0,90.0,0.0,64.0
4126,76.0,96.0,90.0,0.0,64.0
4127,57.0,0.0,180.0,0.0,64.0
4128,73.0,96.0,90.0,0.0,64.0
4129,74.0,96.0,90.0,0.0,64.0
4130,71.0,96.0,90.0,0.0,64.0
4131,59.0,96.0,180.0,0.0,64.0
4132,73.0,0.0,90.0,0.0,64.0
4133,69.0,96.0,90.0,0.0,64.0
4134,61.0,96.0,180.0,0.0,64.0
4135,73.0,0.0,90.0,0.0,64.0
4136,57.0,96.0,180.0,0.0,64.0
4137,76.0,96.0,90.0,0.0,64.0
4138,79.0,0.0,90.0,0.0,64.0
4139,62.0,96.0,180.0,0.0,64.0
4140,78.0,96.0,90.0,0.0,64.0
4141,79.0,0.0,90.0,0.0,64.0
4142,76.0,96.0,90.0,0.0,64.0
4143,64.0,96.0,180.0,0.0,64.0
4144,78.0,0.0,90.0,0.0,64.0
4145,74.0,96.0,90.0,0.0,64.0
4146,66.0,96.0,180.0,0.0,64.0
4147,76.0,0.0,90.0,0.0,64.0
4148,73.0,96.0,90.0,0.0,64.0
4149,62.0,0.0,180.0,0.0,64.0
4150,74.0,96.0,90.0,0.0,64.0
4151,67.0,0.0,90.0,0.0,64.0
4152,71.0,96.0,90.0,0.0,64.0
4153,73.0,0.0,90.0,0.0,64.0
4154,69.0,96.0,15.0,0.0,64.0
4155,66.0,0.0,90.0,0.0,64.0
4156,71.0,96.0,90.0,0.0,64.0
4157,67.0,0.0,90.0,0.0,64.0
4158,64.0,96.0,90.0,0.0,64.0
4159,67.0,0.0,90.0,0.0,64.0
4160,66.0,0.0,90.0,0.0,64.0
4161,71.0,96.0,90.0,0.0,64.0
4162,62.0,96.0,90.0,0.0,64.0
4163,74.0,0.0,90.0,0.0,64.0
4164,78.0,96.0,90.0,0.0,64.0
4165,64.0,0.0,90.0,0.0,64.0
4166,61.0,0.0,90.0,0.0,64.0
4167,76.0,96.0,90.0,0.0,64.0
4168,62.0,96.0,90.0,0.0,64.0
4169,78.0,0.0,90.0,0.0,64.0
4170,74.0,0.0,90.0,0.0,64.0
4171,59.0,96.0,90.0,0.0,64.0
4172,61.0,96.0,90.0,0.0,64.0
4173,76.0,0.0,90.0,0.0,64.0
4174,73.0,0.0,90.0,0.0,64.0
4175,58.0,96.0,90.0,0.0,64.0
4176,59.0,96.0,90.0,0.0,64.0
4177,74.0,0.0,90.0,0.0,64.0
4178,56.0,96.0,90.0,0.0,64.0
4179,71.0,0.0,90.0,0.0,64.0
4180,73.0,96.0,90.0,0.0,64.0
4181,58.0,0.0,90.0,0.0,64.0
4182,54.0,96.0,90.0,0.0,64.0
4183,70.0,0.0,90.0,0.0,64.0
4184,71.0,96.0,90.0,0.0,64.0
4185,55.0,0.0,90.0,0.0,64.0
4186,52.0,96.0,90.0,0.0,64.0
4187,68.0,0.0,90.0,0.0,64.0
4188,54.0,0.0,90.0,0.0,64.0
4189,70.0,96.0,90.0,0.0,64.0
4190,50.0,0.0,90.0,0.0,64.0
4191,66.0,96.0,90.0,0.0,64.0
4192,70.0,96.0,90.0,0.0,64.0
4193,52.0,0.0,90.0,0.0,64.0
4194,73.0,0.0,90.0,0.0,64.0
4195,49.0,96.0,90.0,0.0,64.0
4196,52.0,0.0,90.0,0.0,64.0
4197,78.0,96.0,90.0,0.0,64.0
4198,71.0,96.0,90.0,0.0,64.0
4199,50.0,0.0,90.0,0.0,64.0
4200,74.0,0.0,90.0,0.0,64.0
4201,52.0,96.0,90.0,0.0,64.0
4202,78.0,0.0,90.0,0.0,64.0
4203,49.0,96.0,90.0,0.0,64.0
4204,50.0,96.0,90.0,0.0,64.0
4205,83.0,0.0,90.0,0.0,64.0
4206,74.0,96.0,90.0,0.0,64.0
4207,47.0,96.0,180.0,0.0,64.0
4208,78.0,0.0,90.0,0.0,64.0
4209,71.0,96.0,90.0,0.0,64.0
4210,59.0,0.0,180.0,0.0,64.0
4211,74.0,96.0,90.0,0.0,64.0
4212,58.0,96.0,90.0,0.0,64.0
4213,66.0,0.0,90.0,0.0,64.0
4214,59.0,0.0,90.0,0.0,64.0
4215,70.0,96.0,90.0,0.0,64.0
4216,73.0,96.0,90.0,0.0,64.0
4217,56.0,0.0,90.0,0.0,64.0
4218,76.0,0.0,90.0,0.0,64.0
4219,58.0,96.0,90.0,0.0,64.0
4220,74.0,96.0,90.0,0.0,64.0
4221,54.0,0.0,180.0,0.0,64.0
4222,78.0,96.0,90.0,0.0,64.0
4223,59.0,0.0,90.0,0.0,64.0
4224,71.0,96.0,90.0,0.0,64.0
4225,54.0,0.0,90.0,0.0,64.0
4226,74.0,96.0,90.0,0.0,64.0
4227,55.0,96.0,180.0,0.0,64.0
4228,64.0,96.0,90.0,0.0,64.0
4229,67.0,0.0,90.0,0.0,64.0
4230,71.0,96.0,90.0,0.0,64.0
4231,52.0,0.0,180.0,0.0,64.0
4232,74.0,96.0,90.0,0.0,64.0
4233,45.0,96.0,180.0,0.0,64.0
4234,73.0,96.0,90.0,0.0,64.0
4235,76.0,0.0,90.0,0.0,64.0
4236,57.0,96.0,180.0,0.0,64.0
4237,69.0,96.0,90.0,0.0,64.0
4238,73.0,0.0,90.0,0.0,64.0
4239,62.0,0.0,90.0,0.0,64.0
4240,54.0,96.0,90.0,0.0,64.0
4241,66.0,0.0,90.0,0.0,64.0
4242,55.0,96.0,90.0,0.0,64.0
4243,69.0,96.0,90.0,0.0,64.0
4244,52.0,0.0,90.0,0.0,64.0
4245,54.0,96.0,90.0,0.0,64.0
4246,73.0,0.0,90.0,0.0,64.0
4247,50.0,0.0,180.0,0.0,64.0
4248,71.0,96.0,90.0,0.0,64.0
4249,74.0,96.0,90.0,0.0,64.0
4250,67.0,96.0,90.0,0.0,64.0
4251,55.0,0.0,90.0,0.0,64.0
4252,50.0,96.0,90.0,0.0,64.0
4253,71.0,0.0,90.0,0.0,64.0
4254,61.0,96.0,90.0,0.0,64.0
4255,52.0,96.0,180.0,0.0,64.0
4256,64.0,0.0,90.0,0.0,64.0
4257,68.0,96.0,90.0,0.0,64.0
4258,49.0,0.0,180.0,0.0,64.0
4259,71.0,96.0,90.0,0.0,64.0
4260,42.0,0.0,180.0,0.0,64.0
4261,70.0,96.0,90.0,0.0,64.0
4262,73.0,192.0,90.0,0.0,64.0
4263,54.0,0.0,180.0,0.0,64.0
4264,66.0,0.0,180.0,0.0,64.0
4265,70.0,96.0,90.0,0.0,64.0
4266,59.0,96.0,180.0,0.0,64.0
4267,62.0,96.0,90.0,0.0,64.0
4268,71.0,0.0,180.0,0.0,64.0
4269,64.0,0.0,90.0,0.0,64.0
4270,57.0,96.0,180.0,0.0,64.0
4271,61.0,96.0,90.0,0.0,64.0
4272,73.0,0.0,180.0,0.0,64.0
4273,62.0,0.0,90.0,0.0,64.0
4274,55.0,0.0,390.0,0.0,64.0
4275,74.0,96.0,90.0,0.0,64.0
4276,59.0,96.0,180.0,0.0,64.0
4277,76.0,0.0,90.0,0.0,64.0
4278,74.0,96.0,90.0,0.0,64.0
4279,71.0,96.0,180.0,0.0,64.0
4280,76.0,0.0,90.0,0.0,64.0
4281,70.0,96.0,90.0,0.0,64.0
4282,54.0,192.0,390.0,0.0,64.0
4283,78.0,0.0,390.0,0.0,64.0
4284,71.0,96.0,90.0,0.0,64.0
4285,68.0,96.0,90.0,0.0,64.0
4286,70.0,0.0,90.0,0.0,64.0
4287,66.0,96.0,180.0,0.0,64.0
4288,62.0,96.0,780.0,0.0,64.0
4289,74.0,0.0,180.0,0.0,64.0
4290,71.0,96.0,90.0,0.0,64.0
4291,66.0,96.0,90.0,0.0,64.0
4292,76.0,96.0,90.0,0.0,64.0
4293,67.0,0.0,180.0,0.0,64.0
4294,78.0,192.0,90.0,0.0,64.0
4295,64.0,0.0,180.0,0.0,64.0
4296,79.0,96.0,300.0,0.0,64.0
4297,61.0,96.0,780.0,0.0,64.0
4298,57.0,0.0,180.0,0.0,64.0
4299,79.0,96.0,90.0,0.0,64.0
4300,69.0,96.0,180.0,0.0,64.0
4301,78.0,96.0,90.0,0.0,64.0
4302,76.0,0.0,90.0,0.0,64.0
4303,74.0,96.0,90.0,0.0,64.0
4304,66.0,0.0,90.0,0.0,64.0
4305,76.0,0.0,90.0,0.0,64.0
4306,67.0,96.0,90.0,0.0,64.0
4307,64.0,96.0,90.0,0.0,64.0
4308,66.0,0.0,90.0,0.0,64.0
4309,59.0,0.0,780.0,0.0,64.0
4310,62.0,0.0,180.0,0.0,64.0
4311,78.0,96.0,15.0,0.0,64.0
4312,76.0,0.0,90.0,0.0,64.0
4313,67.0,96.0,90.0,0.0,64.0
4314,62.0,96.0,90.0,0.0,64.0
4315,74.0,0.0,90.0,0.0,64.0
4316,64.0,192.0,180.0,0.0,64.0
4317,73.0,96.0,90.0,0.0,64.0
4318,74.0,0.0,90.0,0.0,64.0
4319,61.0,96.0,180.0,0.0,64.0
4320,58.0,0.0,390.0,0.0,64.0
4321,54.0,0.0,180.0,0.0,64.0
4322,76.0,96.0,15.0,0.0,64.0
4323,66.0,96.0,90.0,0.0,64.0
4324,74.0,0.0,90.0,0.0,64.0
4325,64.0,96.0,90.0,0.0,64.0
4326,73.0,0.0,90.0,0.0,64.0
4327,71.0,96.0,180.0,0.0,64.0
4328,62.0,96.0,90.0,0.0,64.0
4329,64.0,0.0,90.0,0.0,64.0
4330,73.0,0.0,180.0,0.0,64.0
4331,62.0,96.0,90.0,0.0,64.0
4332,61.0,0.0,90.0,0.0,64.0
4333,74.0,96.0,180.0,0.0,64.0
4334,59.0,96.0,15.0,0.0,64.0
4335,62.0,0.0,90.0,0.0,64.0
4336,76.0,96.0,180.0,0.0,64.0
4337,61.0,96.0,90.0,0.0,64.0
4338,59.0,0.0,90.0,0.0,64.0
4339,58.0,96.0,90.0,0.0,64.0
4340,78.0,0.0,870.0,0.0,64.0
4341,59.0,96.0,90.0,0.0,64.0
4342,58.0,96.0,90.0,0.0,64.0
4343,56.0,96.0,90.0,0.0,64.0
4344,54.0,96.0,90.0,0.0,64.0
4345,66.0,96.0,90.0,0.0,64.0
4346,64.0,96.0,90.0,0.0,64.0
4347,66.0,96.0,90.0,0.0,64.0
4348,71.0,96.0,870.0,0.0,64.0
4349,62.0,96.0,90.0,0.0,64.0
4350,79.0,96.0,90.0,0.0,64.0
4351,64.0,0.0,90.0,0.0,64.0
4352,61.0,0.0,90.0,0.0,64.0
4353,76.0,96.0,90.0,0.0,64.0
4354,78.0,96.0,90.0,0.0,64.0
4355,62.0,0.0,90.0,0.0,64.0
4356,74.0,0.0,90.0,0.0,64.0
4357,59.0,96.0,90.0,0.0,64.0
4358,61.0,0.0,90.0,0.0,64.0
4359,76.0,96.0,90.0,0.0,64.0
4360,57.0,0.0,90.0,0.0,64.0
4361,78.0,96.0,90.0,0.0,64.0
4362,79.0,0.0,90.0,0.0,64.0
4363,59.0,96.0,90.0,0.0,64.0
4364,76.0,96.0,870.0,0.0,64.0
4365,55.0,0.0,90.0,0.0,64.0
4366,57.0,0.0,90.0,0.0,64.0
4367,73.0,96.0,90.0,0.0,64.0
4368,54.0,0.0,90.0,0.0,64.0
4369,69.0,96.0,90.0,0.0,64.0
4370,55.0,0.0,90.0,0.0,64.0
4371,71.0,96.0,90.0,0.0,64.0
4372,52.0,96.0,90.0,0.0,64.0
4373,67.0,0.0,90.0,0.0,64.0
4374,64.0,96.0,90.0,0.0,64.0
4375,69.0,0.0,90.0,0.0,64.0
4376,71.0,96.0,90.0,0.0,64.0
4377,62.0,0.0,90.0,0.0,64.0
4378,64.0,0.0,90.0,0.0,64.0
4379,73.0,96.0,90.0,0.0,64.0
4380,69.0,0.0,870.0,0.0,64.0
4381,61.0,0.0,90.0,0.0,64.0
4382,62.0,0.0,90.0,0.0,64.0
4383,78.0,96.0,90.0,0.0,64.0
4384,59.0,0.0,90.0,0.0,64.0
4385,74.0,96.0,90.0,0.0,64.0
4386,61.0,0.0,90.0,0.0,64.0
4387,76.0,96.0,90.0,0.0,64.0
4388,73.0,0.0,90.0,0.0,64.0
4389,57.0,96.0,90.0,0.0,64.0
4390,74.0,0.0,90.0,0.0,64.0
4391,59.0,96.0,90.0,0.0,64.0
4392,55.0,96.0,90.0,0.0,64.0
4393,76.0,0.0,90.0,0.0,64.0
4394,57.0,96.0,90.0,0.0,64.0
4395,78.0,0.0,90.0,0.0,64.0
4396,74.0,0.0,870.0,0.0,64.0
4397,54.0,96.0,90.0,0.0,64.0
4398,71.0,96.0,90.0,0.0,64.0
4399,55.0,0.0,90.0,0.0,64.0
4400,52.0,96.0,90.0,0.0,64.0
4401,67.0,0.0,90.0,0.0,64.0
4402,69.0,0.0,90.0,0.0,64.0
4403,54.0,96.0,90.0,0.0,64.0
4404,50.0,96.0,90.0,0.0,64.0
4405,66.0,0.0,90.0,0.0,64.0
4406,68.0,96.0,90.0,0.0,64.0
4407,62.0,0.0,90.0,0.0,64.0
4408,61.0,0.0,90.0,0.0,64.0
4409,70.0,96.0,90.0,0.0,64.0
4410,62.0,96.0,90.0,0.0,64.0
4411,71.0,0.0,90.0,0.0,64.0
4412,65.0,0.0,780.0,0.0,64.0
4413,59.0,96.0,90.0,0.0,64.0
4414,76.0,0.0,90.0,0.0,64.0
4415,61.0,96.0,90.0,0.0,64.0
4416,73.0,0.0,90.0,0.0,64.0
4417,58.0,96.0,90.0,0.0,64.0
4418,74.0,0.0,90.0,0.0,64.0
4419,59.0,96.0,90.0,0.0,64.0
4420,56.0,0.0,180.0,0.0,64.0
4421,71.0,96.0,90.0,0.0,64.0
4422,74.0,96.0,90.0,0.0,64.0
4423,73.0,96.0,90.0,0.0,64.0
4424,61.0,0.0,180.0,0.0,64.0
4425,71.0,96.0,90.0,0.0,64.0
4426,54.0,0.0,390.0,0.0,64.0
4427,66.0,96.0,180.0,0.0,64.0
4428,70.0,96.0,90.0,0.0,64.0
4429,71.0,0.0,90.0,0.0,64.0
4430,64.0,96.0,180.0,0.0,64.0
4431,68.0,96.0,90.0,0.0,64.0
4432,70.0,0.0,90.0,0.0,64.0
4433,71.0,96.0,90.0,0.0,64.0
4434,56.0,96.0,180.0,0.0,64.0
4435,62.0,0.0,180.0,0.0,64.0
4436,74.0,0.0,90.0,0.0,64.0
4437,73.0,96.0,90.0,0.0,64.0
4438,58.0,0.0,180.0,0.0,64.0
4439,66.0,96.0,300.0,0.0,64.0
4440,76.0,96.0,90.0,0.0,64.0
4441,74.0,0.0,90.0,0.0,64.0
4442,59.0,96.0,180.0,0.0,64.0
4443,73.0,0.0,90.0,0.0,64.0
4444,64.0,0.0,90.0,0.0,64.0
4445,62.0,0.0,90.0,0.0,64.0
4446,71.0,96.0,90.0,0.0,64.0
4447,52.0,0.0,180.0,0.0,64.0
4448,73.0,0.0,90.0,0.0,64.0
4449,64.0,48.0,90.0,0.0,64.0
4450,61.0,96.0,300.0,0.0,64.0
4451,70.0,48.0,40.0,0.0,64.0
4452,71.0,192.0,40.0,0.0,64.0
4453,70.0,0.0,180.0,0.0,64.0
4454,54.0,0.0,180.0,0.0,64.0
4455,71.0,0.0,90.0,0.0,64.0
4456,59.0,0.0,15.0,0.0,64.0
4457,71.0,0.0,180.0,0.0,64.0
4458,54.0,96.0,15.0,0.0,64.0
4459,50.0,96.0,90.0,0.0,64.0
4460,52.0,0.0,90.0,0.0,64.0
4461,49.0,96.0,90.0,0.0,64.0
4462,50.0,192.0,90.0,0.0,64.0
4463,47.0,192.0,180.0,0.0,64.0
4464,71.0,96.0,180.0,0.0,64.0
4465,59.0,0.0,180.0,0.0,64.0
4466,79.0,0.0,180.0,0.0,64.0
4467,74.0,0.0,180.0,0.0,64.0
4468,58.0,96.0,90.0,0.0,64.0
4469,66.0,0.0,390.0,0.0,64.0
4470,78.0,0.0,390.0,0.0,64.0
4471,73.0,192.0,390.0,0.0,64.0
4472,59.0,96.0,90.0,0.0,64.0
4473,56.0,96.0,90.0,0.0,64.0
4474,58.0,0.0,90.0,0.0,64.0
4475,54.0,96.0,180.0,0.0,64.0
4476,78.0,0.0,180.0,0.0,64.0
4477,59.0,96.0,90.0,0.0,64.0
4478,66.0,0.0,180.0,0.0,64.0
4479,54.0,96.0,90.0,0.0,64.0
4480,83.0,96.0,90.0,0.0,64.0
4481,74.0,0.0,15.0,0.0,64.0
4482,55.0,96.0,180.0,0.0,64.0
4483,64.0,0.0,780.0,0.0,64.0
4484,81.0,0.0,90.0,0.0,64.0
4485,79.0,96.0,90.0,0.0,64.0
4486,52.0,96.0,180.0,0.0,64.0
4487,78.0,0.0,90.0,0.0,64.0
4488,45.0,0.0,180.0,0.0,64.0
4489,76.0,96.0,180.0,0.0,64.0
4490,74.0,0.0,90.0,0.0,64.0
4491,57.0,0.0,180.0,0.0,64.0
4492,73.0,0.0,90.0,0.0,64.0
4493,78.0,96.0,90.0,0.0,64.0
4494,71.0,96.0,90.0,0.0,64.0
4495,79.0,0.0,90.0,0.0,64.0
4496,62.0,96.0,780.0,0.0,64.0
4497,54.0,0.0,90.0,0.0,64.0
4498,81.0,96.0,90.0,0.0,64.0
4499,83.0,0.0,90.0,0.0,64.0
4500,55.0,96.0,90.0,0.0,64.0
4501,52.0,0.0,90.0,0.0,64.0
4502,79.0,96.0,90.0,0.0,64.0
4503,81.0,96.0,90.0,0.0,64.0
4504,54.0,0.0,90.0,0.0,64.0
4505,50.0,0.0,180.0,0.0,64.0
4506,78.0,0.0,180.0,0.0,64.0
4507,73.0,96.0,15.0,0.0,64.0
4508,55.0,96.0,90.0,0.0,64.0
4509,74.0,0.0,180.0,0.0,64.0
4510,71.0,0.0,90.0,0.0,64.0
4511,70.0,0.0,90.0,0.0,64.0
4512,50.0,0.0,90.0,0.0,64.0
4513,79.0,96.0,90.0,0.0,64.0
4514,61.0,96.0,780.0,0.0,64.0
4515,52.0,96.0,180.0,0.0,64.0
4516,78.0,0.0,90.0,0.0,64.0
4517,76.0,96.0,90.0,0.0,64.0
4518,49.0,96.0,180.0,0.0,64.0
4519,74.0,0.0,90.0,0.0,64.0
4520,73.0,0.0,180.0,0.0,64.0
4521,42.0,0.0,180.0,0.0,64.0
4522,71.0,96.0,15.0,0.0,64.0
4523,54.0,0.0,180.0,0.0,64.0
4524,70.0,0.0,90.0,0.0,64.0
4525,74.0,96.0,90.0,0.0,64.0
4526,76.0,0.0,90.0,0.0,64.0
4527,68.0,0.0,90.0,0.0,64.0
4528,66.0,0.0,180.0,0.0,64.0
4529,50.0,0.0,90.0,0.0,64.0
4530,62.0,0.0,180.0,0.0,64.0
4531,78.0,96.0,90.0,0.0,64.0
4532,52.0,0.0,90.0,0.0,64.0
4533,79.0,96.0,90.0,0.0,64.0
4534,64.0,0.0,180.0,0.0,64.0
4535,49.0,96.0,90.0,0.0,64.0
4536,76.0,0.0,90.0,0.0,64.0
4537,70.0,0.0,180.0,0.0,64.0
4538,78.0,0.0,90.0,0.0,64.0
4539,50.0,96.0,90.0,0.0,64.0
4540,66.0,0.0,180.0,0.0,64.0
4541,47.0,96.0,90.0,0.0,64.0
4542,71.0,96.0,180.0,0.0,64.0
4543,74.0,0.0,180.0,0.0,64.0
4544,50.0,0.0,90.0,0.0,64.0
4545,67.0,0.0,180.0,0.0,64.0
4546,82.0,0.0,180.0,0.0,64.0
4547,49.0,96.0,90.0,0.0,64.0
4548,64.0,96.0,180.0,0.0,64.0
4549,52.0,0.0,90.0,0.0,64.0
4550,50.0,96.0,90.0,0.0,64.0
4551,66.0,96.0,180.0,0.0,64.0
4552,83.0,0.0,180.0,0.0,64.0
4553,59.0,0.0,180.0,0.0,64.0
4554,52.0,0.0,90.0,0.0,64.0
4555,49.0,96.0,90.0,0.0,64.0
4556,70.0,0.0,180.0,0.0,64.0
4557,61.0,96.0,180.0,0.0,64.0
4558,76.0,0.0,180.0,0.0,64.0
4559,50.0,0.0,90.0,0.0,64.0
4560,66.0,0.0,180.0,0.0,64.0
4561,74.0,96.0,180.0,0.0,64.0
4562,71.0,0.0,180.0,0.0,64.0
4563,47.0,96.0,90.0,0.0,64.0
4564,50.0,0.0,90.0,0.0,64.0
4565,82.0,0.0,180.0,0.0,64.0
4566,67.0,96.0,180.0,0.0,64.0
4567,49.0,96.0,90.0,0.0,64.0
4568,64.0,0.0,180.0,0.0,64.0
4569,52.0,0.0,90.0,0.0,64.0
4570,83.0,0.0,180.0,0.0,64.0
4571,66.0,0.0,180.0,0.0,64.0
4572,59.0,0.0,180.0,0.0,64.0
4573,50.0,96.0,90.0,0.0,64.0
4574,52.0,96.0,90.0,0.0,64.0
4575,61.0,96.0,180.0,0.0,64.0
4576,76.0,0.0,180.0,0.0,64.0
4577,70.0,0.0,180.0,0.0,64.0
4578,49.0,96.0,90.0,0.0,64.0
4579,50.0,0.0,90.0,0.0,64.0
4580,71.0,0.0,180.0,0.0,64.0
4581,74.0,0.0,180.0,0.0,64.0
4582,47.0,96.0,90.0,0.0,64.0
4583,66.0,96.0,180.0,0.0,64.0
4584,50.0,0.0,90.0,0.0,64.0
4585,49.0,96.0,90.0,0.0,64.0
4586,82.0,0.0,180.0,0.0,64.0
4587,64.0,0.0,180.0,0.0,64.0
4588,67.0,0.0,180.0,0.0,64.0
4589,52.0,96.0,90.0,0.0,64.0
4590,83.0,0.0,180.0,0.0,64.0
4591,66.0,0.0,180.0,0.0,64.0
4592,59.0,96.0,180.0,0.0,64.0
4593,50.0,96.0,90.0,0.0,64.0
4594,54.0,0.0,90.0,0.0,64.0
4595,85.0,0.0,180.0,0.0,64.0
4596,76.0,192.0,180.0,0.0,64.0
4597,52.0,96.0,90.0,0.0,64.0
4598,64.0,0.0,180.0,0.0,64.0
4599,67.0,0.0,180.0,0.0,64.0
4600,55.0,0.0,90.0,0.0,64.0
4601,54.0,192.0,180.0,0.0,64.0
4602,74.0,0.0,180.0,0.0,64.0
4603,78.0,0.0,180.0,0.0,64.0
4604,66.0,0.0,180.0,0.0,64.0
4605,62.0,0.0,180.0,0.0,64.0
4606,76.0,0.0,180.0,0.0,64.0
4607,78.0,0.0,180.0,0.0,64.0
4608,42.0,0.0,180.0,0.0,64.0
4609,73.0,0.0,180.0,0.0,64.0
4610,61.0,0.0,180.0,0.0,64.0
4611,82.0,576.0,180.0,0.0,64.0
4612,66.0,0.0,15.0,0.0,64.0
4613,71.0,0.0,570.0,0.0,64.0
4614,75.0,0.0,570.0,0.0,64.0
4615,78.0,0.0,570.0,0.0,64.0
4616,47.0,0.0,570.0,0.0,64.0
4617,59.0,0.0,570.0,0.0,64.0
4618,83.0,0.0,570.0,0.0,64.0
