,note,step,duration,channel,velocity
0,71.0,360.0,240.0,0.0,64.0
1,76.0,60.0,120.0,0.0,64.0
2,52.0,0.0,240.0,0.0,64.0
3,71.0,0.0,240.0,0.0,64.0
4,67.0,0.0,240.0,0.0,64.0
5,78.0,60.0,60.0,0.0,64.0
6,79.0,240.0,60.0,0.0,64.0
7,71.0,0.0,240.0,0.0,64.0
8,51.0,120.0,240.0,0.0,64.0
9,78.0,0.0,240.0,0.0,64.0
10,47.0,0.0,240.0,0.0,64.0
11,75.0,0.0,240.0,0.0,64.0
12,66.0,0.0,15.0,0.0,64.0
13,71.0,0.0,240.0,0.0,64.0
14,79.0,60.0,60.0,0.0,64.0
15,81.0,0.0,60.0,0.0,64.0
16,52.0,0.0,240.0,0.0,64.0
17,67.0,0.0,240.0,0.0,64.0
18,71.0,0.0,240.0,0.0,64.0
19,79.0,120.0,120.0,0.0,64.0
20,78.0,0.0,120.0,0.0,64.0
21,76.0,120.0,15.0,0.0,64.0
22,71.0,0.0,240.0,0.0,64.0
23,69.0,120.0,240.0,0.0,64.0
24,54.0,0.0,240.0,0.0,64.0
25,75.0,0.0,120.0,0.0,64.0
26,67.0,0.0,480.0,0.0,64.0
27,76.0,120.0,120.0,0.0,64.0
28,55.0,120.0,240.0,0.0,64.0
29,83.0,0.0,120.0,0.0,64.0
30,79.0,120.0,120.0,0.0,64.0
31,52.0,120.0,240.0,0.0,64.0
32,76.0,0.0,120.0,0.0,64.0
33,71.0,0.0,15.0,0.0,64.0
34,66.0,0.0,480.0,0.0,64.0
35,75.0,120.0,120.0,0.0,64.0
36,59.0,120.0,240.0,0.0,64.0
37,71.0,0.0,120.0,0.0,64.0
38,57.0,0.0,240.0,0.0,64.0
39,75.0,120.0,120.0,0.0,64.0
40,78.0,0.0,120.0,0.0,64.0
41,67.0,0.0,480.0,0.0,64.0
42,55.0,0.0,240.0,0.0,64.0
43,76.0,120.0,120.0,0.0,64.0
44,71.0,0.0,480.0,0.0,64.0
45,75.0,120.0,120.0,0.0,64.0
46,76.0,120.0,120.0,0.0,64.0
47,52.0,120.0,240.0,0.0,64.0
48,79.0,0.0,120.0,0.0,64.0
49,78.0,120.0,120.0,0.0,64.0
50,66.0,0.0,480.0,0.0,64.0
51,59.0,0.0,240.0,0.0,64.0
52,76.0,120.0,120.0,0.0,64.0
53,75.0,120.0,120.0,0.0,64.0
54,47.0,0.0,240.0,0.0,64.0
55,73.0,120.0,120.0,0.0,64.0
56,71.0,0.0,15.0,0.0,64.0
57,78.0,120.0,120.0,0.0,64.0
58,59.0,0.0,240.0,0.0,64.0
59,67.0,120.0,240.0,0.0,64.0
60,79.0,120.0,120.0,0.0,64.0
61,75.0,0.0,120.0,0.0,64.0
62,60.0,0.0,240.0,0.0,64.0
63,67.0,120.0,480.0,0.0,64.0
64,76.0,120.0,120.0,0.0,64.0
65,79.0,0.0,480.0,0.0,64.0
66,75.0,120.0,120.0,0.0,64.0
67,59.0,0.0,240.0,0.0,64.0
68,76.0,120.0,120.0,0.0,64.0
69,84.0,0.0,120.0,0.0,64.0
70,84.0,120.0,120.0,0.0,64.0
71,72.0,0.0,480.0,0.0,64.0
72,76.0,0.0,480.0,0.0,64.0
73,57.0,0.0,240.0,0.0,64.0
74,83.0,120.0,120.0,0.0,64.0
75,54.0,0.0,240.0,0.0,64.0
76,84.0,120.0,120.0,0.0,64.0
77,59.0,0.0,240.0,0.0,64.0
78,78.0,0.0,15.0,0.0,64.0
79,74.0,120.0,15.0,0.0,64.0
80,74.0,120.0,120.0,0.0,64.0
81,73.0,120.0,120.0,0.0,64.0
82,57.0,120.0,240.0,0.0,64.0
83,74.0,120.0,120.0,0.0,64.0
84,83.0,0.0,120.0,0.0,64.0
85,76.0,0.0,480.0,0.0,64.0
86,74.0,0.0,15.0,0.0,64.0
87,71.0,0.0,15.0,0.0,64.0
88,56.0,0.0,240.0,0.0,64.0
89,83.0,120.0,120.0,0.0,64.0
90,82.0,120.0,120.0,0.0,64.0
91,52.0,0.0,240.0,0.0,64.0
92,83.0,120.0,120.0,0.0,64.0
93,76.0,0.0,480.0,0.0,64.0
94,57.0,0.0,240.0,0.0,64.0
95,72.0,0.0,15.0,0.0,64.0
96,71.0,120.0,120.0,0.0,64.0
97,72.0,120.0,120.0,0.0,64.0
98,55.0,0.0,240.0,0.0,64.0
99,81.0,0.0,120.0,0.0,64.0
100,54.0,120.0,240.0,0.0,64.0
101,69.0,120.0,15.0,0.0,64.0
102,81.0,120.0,120.0,0.0,64.0
103,80.0,0.0,120.0,0.0,64.0
104,81.0,120.0,120.0,0.0,64.0
105,52.0,0.0,240.0,0.0,64.0
106,72.0,0.0,120.0,0.0,64.0
107,51.0,120.0,120.0,0.0,64.0
108,78.0,120.0,15.0,0.0,64.0
109,69.0,0.0,15.0,0.0,64.0
110,72.0,120.0,240.0,0.0,64.0
111,47.0,0.0,120.0,0.0,64.0
112,51.0,120.0,120.0,0.0,64.0
113,71.0,0.0,240.0,0.0,64.0
114,54.0,120.0,120.0,0.0,64.0
115,78.0,120.0,240.0,0.0,64.0
116,75.0,0.0,240.0,0.0,64.0
117,69.0,0.0,240.0,0.0,64.0
118,59.0,120.0,120.0,0.0,64.0
119,55.0,0.0,120.0,0.0,64.0
120,57.0,120.0,120.0,0.0,64.0
121,75.0,0.0,240.0,0.0,64.0
122,66.0,0.0,240.0,0.0,64.0
123,78.0,0.0,240.0,0.0,64.0
124,54.0,0.0,120.0,0.0,64.0
125,71.0,60.0,15.0,0.0,64.0
126,55.0,0.0,240.0,0.0,64.0
127,84.0,60.0,60.0,0.0,64.0
128,83.0,60.0,60.0,0.0,64.0
129,84.0,60.0,60.0,0.0,64.0
130,83.0,0.0,60.0,0.0,64.0
131,60.0,0.0,240.0,0.0,64.0
132,67.0,60.0,15.0,0.0,64.0
133,76.0,0.0,15.0,0.0,64.0
134,84.0,60.0,60.0,0.0,64.0
135,83.0,60.0,60.0,0.0,64.0
136,81.0,60.0,60.0,0.0,64.0
137,79.0,0.0,60.0,0.0,64.0
138,83.0,60.0,60.0,0.0,64.0
139,76.0,0.0,15.0,0.0,64.0
140,72.0,60.0,15.0,0.0,64.0
141,54.0,60.0,240.0,0.0,64.0
142,81.0,60.0,60.0,0.0,64.0
143,83.0,60.0,60.0,0.0,64.0
144,81.0,0.0,60.0,0.0,64.0
145,69.0,0.0,15.0,0.0,64.0
146,75.0,0.0,240.0,0.0,64.0
147,83.0,60.0,60.0,0.0,64.0
148,59.0,0.0,240.0,0.0,64.0
149,81.0,60.0,60.0,0.0,64.0
150,79.0,60.0,60.0,0.0,64.0
151,78.0,120.0,60.0,0.0,64.0
152,52.0,120.0,240.0,0.0,64.0
153,71.0,0.0,15.0,0.0,64.0
154,67.0,0.0,240.0,0.0,64.0
155,79.0,120.0,120.0,0.0,64.0
156,76.0,0.0,240.0,0.0,64.0
157,81.0,0.0,120.0,0.0,64.0
158,54.0,0.0,240.0,0.0,64.0
159,69.0,0.0,240.0,0.0,64.0
160,66.0,120.0,240.0,0.0,64.0
161,83.0,120.0,120.0,0.0,64.0
162,79.0,0.0,120.0,0.0,64.0
163,55.0,0.0,240.0,0.0,64.0
164,76.0,0.0,15.0,0.0,64.0
165,71.0,0.0,240.0,0.0,64.0
166,64.0,0.0,240.0,0.0,64.0
167,78.0,0.0,120.0,0.0,64.0
168,67.0,0.0,240.0,0.0,64.0
169,70.0,0.0,240.0,0.0,64.0
170,76.0,120.0,15.0,0.0,64.0
171,49.0,0.0,240.0,0.0,64.0
172,79.0,120.0,120.0,0.0,64.0
173,76.0,0.0,120.0,0.0,64.0
174,50.0,0.0,240.0,0.0,64.0
175,83.0,60.0,360.0,0.0,64.0
176,66.0,0.0,240.0,0.0,64.0
177,78.0,120.0,240.0,0.0,64.0
178,71.0,0.0,15.0,0.0,64.0
179,74.0,0.0,15.0,0.0,64.0
180,55.0,0.0,240.0,0.0,64.0
181,71.0,0.0,240.0,0.0,64.0
182,85.0,60.0,60.0,0.0,64.0
183,86.0,0.0,60.0,0.0,64.0
184,52.0,0.0,240.0,0.0,64.0
185,85.0,60.0,360.0,0.0,64.0
186,67.0,240.0,15.0,0.0,64.0
187,71.0,0.0,240.0,0.0,64.0
188,73.0,0.0,240.0,0.0,64.0
189,73.0,0.0,240.0,0.0,64.0
190,54.0,0.0,240.0,0.0,64.0
191,70.0,0.0,240.0,0.0,64.0
192,86.0,60.0,60.0,0.0,64.0
193,88.0,120.0,60.0,0.0,64.0
194,74.0,0.0,240.0,0.0,64.0
195,71.0,0.0,240.0,0.0,64.0
196,66.0,0.0,15.0,0.0,64.0
197,86.0,120.0,120.0,0.0,64.0
198,47.0,0.0,240.0,0.0,64.0
199,85.0,120.0,120.0,0.0,64.0
200,70.0,0.0,240.0,0.0,64.0
201,49.0,0.0,240.0,0.0,64.0
202,66.0,0.0,240.0,0.0,64.0
203,83.0,120.0,120.0,0.0,64.0
204,76.0,0.0,240.0,0.0,64.0
205,82.0,120.0,120.0,0.0,64.0
206,50.0,120.0,240.0,0.0,64.0
207,66.0,0.0,15.0,0.0,64.0
208,71.0,0.0,240.0,0.0,64.0
209,83.0,120.0,120.0,0.0,64.0
210,90.0,0.0,120.0,0.0,64.0
211,86.0,120.0,120.0,0.0,64.0
212,47.0,120.0,240.0,0.0,64.0
213,74.0,0.0,15.0,0.0,64.0
214,71.0,0.0,240.0,0.0,64.0
215,83.0,0.0,120.0,0.0,64.0
216,78.0,0.0,15.0,0.0,64.0
217,73.0,0.0,480.0,0.0,64.0
218,70.0,0.0,480.0,0.0,64.0
219,54.0,0.0,240.0,0.0,64.0
220,82.0,120.0,120.0,0.0,64.0
221,78.0,0.0,120.0,0.0,64.0
222,52.0,0.0,240.0,0.0,64.0
223,82.0,120.0,120.0,0.0,64.0
224,66.0,0.0,240.0,0.0,64.0
225,85.0,0.0,120.0,0.0,64.0
226,78.0,120.0,15.0,0.0,64.0
227,71.0,0.0,240.0,0.0,64.0
228,50.0,120.0,240.0,0.0,64.0
229,83.0,120.0,120.0,0.0,64.0
230,82.0,0.0,120.0,0.0,64.0
231,78.0,0.0,15.0,0.0,64.0
232,74.0,0.0,15.0,0.0,64.0
233,47.0,0.0,240.0,0.0,64.0
234,83.0,120.0,120.0,0.0,64.0
235,86.0,0.0,120.0,0.0,64.0
236,54.0,0.0,240.0,0.0,64.0
237,85.0,120.0,120.0,0.0,64.0
238,78.0,0.0,240.0,0.0,64.0
239,73.0,0.0,480.0,0.0,64.0
240,83.0,120.0,120.0,0.0,64.0
241,42.0,0.0,240.0,0.0,64.0
242,82.0,120.0,120.0,0.0,64.0
243,85.0,0.0,240.0,0.0,64.0
244,80.0,120.0,120.0,0.0,64.0
245,78.0,0.0,15.0,0.0,64.0
246,82.0,0.0,240.0,0.0,64.0
247,85.0,120.0,120.0,0.0,64.0
248,54.0,20.0,240.0,0.0,64.0
249,86.0,100.0,120.0,0.0,64.0
250,82.0,0.0,120.0,0.0,64.0
251,83.0,120.0,120.0,0.0,64.0
252,78.0,0.0,15.0,0.0,64.0
253,74.0,120.0,15.0,0.0,64.0
254,55.0,0.0,120.0,0.0,64.0
255,54.0,0.0,120.0,0.0,64.0
256,82.0,120.0,120.0,0.0,64.0
257,83.0,120.0,120.0,0.0,64.0
258,71.0,0.0,240.0,0.0,64.0
259,55.0,0.0,240.0,0.0,64.0
260,91.0,0.0,15.0,0.0,64.0
261,76.0,0.0,120.0,0.0,64.0
262,74.0,0.0,120.0,0.0,64.0
263,90.0,120.0,120.0,0.0,64.0
264,49.0,0.0,240.0,0.0,64.0
265,83.0,0.0,240.0,0.0,64.0
266,76.0,0.0,240.0,0.0,64.0
267,91.0,120.0,120.0,0.0,64.0
268,54.0,0.0,120.0,0.0,64.0
269,73.0,0.0,15.0,0.0,64.0
270,76.0,0.0,240.0,0.0,64.0
271,81.0,120.0,15.0,0.0,64.0
272,80.0,120.0,120.0,0.0,64.0
273,52.0,0.0,120.0,0.0,64.0
274,81.0,120.0,120.0,0.0,64.0
275,54.0,0.0,240.0,0.0,64.0
276,69.0,0.0,240.0,0.0,64.0
277,90.0,0.0,15.0,0.0,64.0
278,74.0,0.0,120.0,0.0,64.0
279,88.0,120.0,120.0,0.0,64.0
280,73.0,0.0,120.0,0.0,64.0
281,71.0,0.0,240.0,0.0,64.0
282,90.0,120.0,120.0,0.0,64.0
283,81.0,0.0,240.0,0.0,64.0
284,47.0,120.0,240.0,0.0,64.0
285,74.0,0.0,15.0,0.0,64.0
286,79.0,0.0,15.0,0.0,64.0
287,52.0,120.0,120.0,0.0,64.0
288,51.0,120.0,120.0,0.0,64.0
289,78.0,0.0,120.0,0.0,64.0
290,71.0,0.0,240.0,0.0,64.0
291,52.0,0.0,240.0,0.0,64.0
292,79.0,120.0,120.0,0.0,64.0
293,67.0,0.0,240.0,0.0,64.0
294,88.0,0.0,15.0,0.0,64.0
295,87.0,120.0,120.0,0.0,64.0
296,76.0,0.0,240.0,0.0,64.0
297,88.0,120.0,120.0,0.0,64.0
298,72.0,0.0,240.0,0.0,64.0
299,79.0,0.0,120.0,0.0,64.0
300,79.0,0.0,240.0,0.0,64.0
301,64.0,120.0,15.0,0.0,64.0
302,70.0,120.0,120.0,0.0,64.0
303,66.0,120.0,120.0,0.0,64.0
304,61.0,0.0,240.0,0.0,64.0
305,78.0,0.0,240.0,0.0,64.0
306,70.0,120.0,120.0,0.0,64.0
307,73.0,0.0,120.0,0.0,64.0
308,78.0,120.0,15.0,0.0,64.0
309,73.0,0.0,480.0,0.0,64.0
310,76.0,120.0,120.0,0.0,64.0
311,58.0,120.0,240.0,0.0,64.0
312,82.0,0.0,120.0,0.0,64.0
313,54.0,0.0,240.0,0.0,64.0
314,85.0,120.0,120.0,0.0,64.0
315,76.0,0.0,120.0,0.0,64.0
316,59.0,60.0,240.0,0.0,64.0
317,74.0,0.0,120.0,0.0,64.0
318,78.0,0.0,15.0,0.0,64.0
319,91.0,60.0,60.0,0.0,64.0
320,90.0,60.0,60.0,0.0,64.0
321,78.0,0.0,120.0,0.0,64.0
322,91.0,60.0,60.0,0.0,64.0
323,90.0,0.0,60.0,0.0,64.0
324,50.0,0.0,240.0,0.0,64.0
325,83.0,0.0,480.0,0.0,64.0
326,91.0,60.0,60.0,0.0,64.0
327,90.0,60.0,60.0,0.0,64.0
328,88.0,60.0,60.0,0.0,64.0
329,86.0,0.0,60.0,0.0,64.0
330,71.0,60.0,15.0,0.0,64.0
331,90.0,60.0,60.0,0.0,64.0
332,49.0,0.0,240.0,0.0,64.0
333,79.0,0.0,240.0,0.0,64.0
334,88.0,60.0,60.0,0.0,64.0
335,90.0,60.0,60.0,0.0,64.0
336,88.0,0.0,60.0,0.0,64.0
337,76.0,60.0,15.0,0.0,64.0
338,70.0,0.0,240.0,0.0,64.0
339,82.0,0.0,240.0,0.0,64.0
340,54.0,0.0,240.0,0.0,64.0
341,78.0,0.0,240.0,0.0,64.0
342,90.0,60.0,60.0,0.0,64.0
343,88.0,60.0,60.0,0.0,64.0
344,86.0,60.0,60.0,0.0,64.0
345,85.0,0.0,60.0,0.0,64.0
346,86.0,120.0,120.0,0.0,64.0
347,59.0,0.0,240.0,0.0,64.0
348,83.0,0.0,240.0,0.0,64.0
349,74.0,0.0,480.0,0.0,64.0
350,78.0,0.0,480.0,0.0,64.0
351,88.0,120.0,120.0,0.0,64.0
352,90.0,120.0,120.0,0.0,64.0
353,71.0,0.0,240.0,0.0,64.0
354,57.0,0.0,240.0,0.0,64.0
355,86.0,0.0,120.0,0.0,64.0
356,74.0,0.0,480.0,0.0,64.0
357,55.0,120.0,240.0,0.0,64.0
358,79.0,0.0,480.0,0.0,64.0
359,83.0,120.0,120.0,0.0,64.0
360,85.0,0.0,120.0,0.0,64.0
361,54.0,120.0,240.0,0.0,64.0
362,86.0,120.0,120.0,0.0,64.0
363,83.0,0.0,120.0,0.0,64.0
364,52.0,0.0,360.0,0.0,64.0
365,84.0,120.0,120.0,0.0,64.0
366,83.0,0.0,120.0,0.0,64.0
367,84.0,0.0,120.0,0.0,64.0
368,81.0,60.0,120.0,0.0,64.0
369,54.0,60.0,60.0,0.0,64.0
370,79.0,0.0,120.0,0.0,64.0
371,76.0,0.0,120.0,0.0,64.0
372,55.0,0.0,60.0,0.0,64.0
373,54.0,60.0,360.0,0.0,64.0
374,74.0,120.0,120.0,0.0,64.0
375,72.0,0.0,15.0,0.0,64.0
376,73.0,120.0,120.0,0.0,64.0
377,74.0,0.0,120.0,0.0,64.0
378,84.0,0.0,120.0,0.0,64.0
379,55.0,60.0,60.0,0.0,64.0
380,57.0,0.0,60.0,0.0,64.0
381,55.0,0.0,240.0,0.0,64.0
382,81.0,0.0,15.0,0.0,64.0
383,83.0,120.0,120.0,0.0,64.0
384,74.0,0.0,15.0,0.0,64.0
385,84.0,120.0,120.0,0.0,64.0
386,54.0,0.0,240.0,0.0,64.0
387,71.0,120.0,120.0,0.0,64.0
388,86.0,0.0,120.0,0.0,64.0
389,74.0,0.0,120.0,0.0,64.0
390,83.0,0.0,120.0,0.0,64.0
391,71.0,120.0,15.0,0.0,64.0
392,52.0,120.0,240.0,0.0,64.0
393,79.0,120.0,120.0,0.0,64.0
394,81.0,0.0,120.0,0.0,64.0
395,83.0,120.0,120.0,0.0,64.0
396,50.0,0.0,240.0,0.0,64.0
397,79.0,0.0,15.0,0.0,64.0
398,76.0,0.0,15.0,0.0,64.0
399,49.0,60.0,360.0,0.0,64.0
400,81.0,120.0,120.0,0.0,64.0
401,79.0,0.0,120.0,0.0,64.0
402,78.0,0.0,120.0,0.0,64.0
403,81.0,0.0,120.0,0.0,64.0
404,76.0,0.0,120.0,0.0,64.0
405,72.0,0.0,120.0,0.0,64.0
406,51.0,60.0,60.0,0.0,64.0
407,52.0,120.0,60.0,0.0,64.0
408,69.0,0.0,15.0,0.0,64.0
409,71.0,120.0,120.0,0.0,64.0
410,78.0,0.0,480.0,0.0,64.0
411,51.0,0.0,360.0,0.0,64.0
412,70.0,120.0,120.0,0.0,64.0
413,71.0,60.0,120.0,0.0,64.0
414,81.0,120.0,120.0,0.0,64.0
415,52.0,60.0,60.0,0.0,64.0
416,54.0,0.0,60.0,0.0,64.0
417,52.0,0.0,240.0,0.0,64.0
418,79.0,120.0,120.0,0.0,64.0
419,78.0,0.0,240.0,0.0,64.0
420,81.0,120.0,120.0,0.0,64.0
421,67.0,0.0,120.0,0.0,64.0
422,64.0,120.0,120.0,0.0,64.0
423,83.0,0.0,120.0,0.0,64.0
424,71.0,0.0,120.0,0.0,64.0
425,79.0,0.0,120.0,0.0,64.0
426,62.0,120.0,120.0,0.0,64.0
427,67.0,0.0,480.0,0.0,64.0
428,60.0,0.0,240.0,0.0,64.0
429,76.0,120.0,120.0,0.0,64.0
430,78.0,0.0,120.0,0.0,64.0
431,59.0,0.0,240.0,0.0,64.0
432,88.0,0.0,480.0,0.0,64.0
433,79.0,120.0,120.0,0.0,64.0
434,76.0,0.0,15.0,0.0,64.0
435,72.0,0.0,15.0,0.0,64.0
436,57.0,0.0,360.0,0.0,64.0
437,77.0,120.0,120.0,0.0,64.0
438,76.0,120.0,120.0,0.0,64.0
439,77.0,0.0,120.0,0.0,64.0
440,86.0,60.0,120.0,0.0,64.0
441,59.0,60.0,60.0,0.0,64.0
442,84.0,0.0,120.0,0.0,64.0
443,69.0,120.0,120.0,0.0,64.0
444,60.0,0.0,60.0,0.0,64.0
445,77.0,0.0,15.0,0.0,64.0
446,74.0,0.0,480.0,0.0,64.0
447,67.0,120.0,120.0,0.0,64.0
448,86.0,0.0,720.0,0.0,64.0
449,59.0,60.0,360.0,0.0,64.0
450,66.0,120.0,120.0,0.0,64.0
451,67.0,0.0,120.0,0.0,64.0
452,77.0,0.0,120.0,0.0,64.0
453,60.0,60.0,60.0,0.0,64.0
454,62.0,0.0,60.0,0.0,64.0
455,60.0,120.0,240.0,0.0,64.0
456,67.0,0.0,480.0,0.0,64.0
457,74.0,0.0,480.0,0.0,64.0
458,76.0,120.0,120.0,0.0,64.0
459,77.0,0.0,120.0,0.0,64.0
460,76.0,0.0,120.0,0.0,64.0
461,59.0,0.0,240.0,0.0,64.0
462,79.0,120.0,15.0,0.0,64.0
463,76.0,0.0,120.0,0.0,64.0
464,57.0,120.0,240.0,0.0,64.0
465,72.0,120.0,120.0,0.0,64.0
466,84.0,0.0,720.0,0.0,64.0
467,81.0,0.0,480.0,0.0,64.0
468,74.0,0.0,120.0,0.0,64.0
469,76.0,120.0,120.0,0.0,64.0
470,55.0,0.0,240.0,0.0,64.0
471,72.0,0.0,120.0,0.0,64.0
472,54.0,0.0,360.0,0.0,64.0
473,74.0,120.0,120.0,0.0,64.0
474,72.0,120.0,120.0,0.0,64.0
475,83.0,60.0,120.0,0.0,64.0
476,74.0,0.0,120.0,0.0,64.0
477,56.0,60.0,60.0,0.0,64.0
478,65.0,0.0,120.0,0.0,64.0
479,81.0,0.0,120.0,0.0,64.0
480,57.0,0.0,60.0,0.0,64.0
481,56.0,60.0,360.0,0.0,64.0
482,64.0,120.0,120.0,0.0,64.0
483,71.0,120.0,480.0,0.0,64.0
484,63.0,120.0,120.0,0.0,64.0
485,64.0,0.0,120.0,0.0,64.0
486,57.0,60.0,60.0,0.0,64.0
487,74.0,0.0,120.0,0.0,64.0
488,59.0,0.0,60.0,0.0,64.0
489,76.0,0.0,15.0,0.0,64.0
490,57.0,120.0,120.0,0.0,64.0
491,83.0,0.0,15.0,0.0,64.0
492,72.0,0.0,120.0,0.0,64.0
493,74.0,0.0,120.0,0.0,64.0
494,59.0,0.0,120.0,0.0,64.0
495,60.0,120.0,120.0,0.0,64.0
496,72.0,0.0,15.0,0.0,64.0
497,76.0,120.0,15.0,0.0,64.0
498,72.0,0.0,120.0,0.0,64.0
499,72.0,0.0,120.0,0.0,64.0
500,57.0,120.0,120.0,0.0,64.0
501,76.0,0.0,120.0,0.0,64.0
502,78.0,120.0,480.0,0.0,64.0
503,69.0,120.0,240.0,0.0,64.0
504,72.0,0.0,15.0,0.0,64.0
505,81.0,0.0,15.0,0.0,64.0
506,54.0,120.0,120.0,0.0,64.0
507,55.0,0.0,120.0,0.0,64.0
508,57.0,120.0,120.0,0.0,64.0
509,84.0,0.0,240.0,0.0,64.0
510,54.0,0.0,120.0,0.0,64.0
511,83.0,0.0,720.0,0.0,64.0
512,81.0,0.0,240.0,0.0,64.0
513,71.0,0.0,480.0,0.0,64.0
514,51.0,120.0,120.0,0.0,64.0
515,52.0,120.0,120.0,0.0,64.0
516,79.0,0.0,120.0,0.0,64.0
517,54.0,120.0,120.0,0.0,64.0
518,78.0,0.0,120.0,0.0,64.0
519,51.0,120.0,120.0,0.0,64.0
520,71.0,120.0,480.0,0.0,64.0
521,52.0,120.0,120.0,0.0,64.0
522,54.0,120.0,120.0,0.0,64.0
523,76.0,0.0,240.0,0.0,64.0
524,55.0,120.0,120.0,0.0,64.0
525,52.0,0.0,120.0,0.0,64.0
526,72.0,0.0,240.0,0.0,64.0
527,79.0,0.0,15.0,0.0,64.0
528,54.0,120.0,120.0,0.0,64.0
529,55.0,120.0,120.0,0.0,64.0
530,69.0,0.0,15.0,0.0,64.0
531,72.0,0.0,240.0,0.0,64.0
532,84.0,0.0,120.0,0.0,64.0
533,57.0,120.0,120.0,0.0,64.0
534,78.0,0.0,240.0,0.0,64.0
535,81.0,0.0,120.0,0.0,64.0
536,54.0,120.0,120.0,0.0,64.0
537,59.0,120.0,120.0,0.0,64.0
538,69.0,0.0,480.0,0.0,64.0
539,75.0,120.0,480.0,0.0,64.0
540,61.0,0.0,120.0,0.0,64.0
541,79.0,0.0,120.0,0.0,64.0
542,63.0,0.0,120.0,0.0,64.0
543,78.0,120.0,120.0,0.0,64.0
544,59.0,0.0,120.0,0.0,64.0
545,81.0,0.0,120.0,0.0,64.0
546,64.0,120.0,120.0,0.0,64.0
547,67.0,0.0,240.0,0.0,64.0
548,78.0,0.0,240.0,0.0,64.0
549,71.0,0.0,240.0,0.0,64.0
550,79.0,0.0,120.0,0.0,64.0
551,66.0,120.0,120.0,0.0,64.0
552,81.0,0.0,120.0,0.0,64.0
553,71.0,0.0,240.0,0.0,64.0
554,83.0,120.0,120.0,0.0,64.0
555,67.0,0.0,120.0,0.0,64.0
556,64.0,0.0,120.0,0.0,64.0
557,79.0,120.0,120.0,0.0,64.0
558,67.0,0.0,15.0,0.0,64.0
559,72.0,0.0,480.0,0.0,64.0
560,76.0,0.0,15.0,0.0,64.0
561,76.0,0.0,15.0,0.0,64.0
562,60.0,120.0,120.0,0.0,64.0
563,62.0,0.0,120.0,0.0,64.0
564,79.0,120.0,360.0,0.0,64.0
565,64.0,120.0,120.0,0.0,64.0
566,76.0,120.0,15.0,0.0,64.0
567,60.0,0.0,120.0,0.0,64.0
568,67.0,0.0,15.0,0.0,64.0
569,58.0,0.0,240.0,0.0,64.0
570,76.0,0.0,120.0,0.0,64.0
571,75.0,0.0,120.0,0.0,64.0
572,78.0,120.0,120.0,0.0,64.0
573,46.0,0.0,240.0,0.0,64.0
574,76.0,0.0,120.0,0.0,64.0
575,79.0,120.0,15.0,0.0,64.0
576,88.0,0.0,120.0,0.0,64.0
577,73.0,0.0,15.0,0.0,64.0
578,76.0,0.0,15.0,0.0,64.0
579,79.0,0.0,15.0,0.0,64.0
580,46.0,0.0,240.0,0.0,64.0
581,67.0,0.0,480.0,0.0,64.0
582,78.0,120.0,120.0,0.0,64.0
583,75.0,0.0,120.0,0.0,64.0
584,76.0,120.0,120.0,0.0,64.0
585,79.0,0.0,120.0,0.0,64.0
586,46.0,0.0,240.0,0.0,64.0
587,79.0,0.0,120.0,0.0,64.0
588,88.0,60.0,120.0,0.0,64.0
589,78.0,0.0,60.0,0.0,64.0
590,76.0,0.0,15.0,0.0,64.0
591,81.0,60.0,60.0,0.0,64.0
592,47.0,120.0,240.0,0.0,64.0
593,67.0,0.0,240.0,0.0,64.0
594,79.0,0.0,60.0,0.0,64.0
595,76.0,60.0,60.0,0.0,64.0
596,81.0,0.0,60.0,0.0,64.0
597,78.0,60.0,60.0,0.0,64.0
598,79.0,0.0,60.0,0.0,64.0
599,76.0,0.0,60.0,0.0,64.0
600,71.0,0.0,15.0,0.0,64.0
601,66.0,0.0,240.0,0.0,64.0
602,59.0,120.0,120.0,0.0,64.0
603,61.0,0.0,120.0,0.0,64.0
604,78.0,240.0,15.0,0.0,64.0
605,75.0,0.0,15.0,0.0,64.0
606,71.0,0.0,15.0,0.0,64.0
607,63.0,240.0,240.0,0.0,64.0
608,59.0,0.0,240.0,0.0,64.0
609,78.0,0.0,240.0,0.0,64.0
610,64.0,120.0,240.0,0.0,64.0
611,67.0,0.0,480.0,0.0,64.0
612,78.0,0.0,480.0,0.0,64.0
613,79.0,120.0,120.0,0.0,64.0
614,83.0,0.0,120.0,0.0,64.0
615,90.0,120.0,120.0,0.0,64.0
616,62.0,0.0,240.0,0.0,64.0
617,88.0,0.0,120.0,0.0,64.0
618,81.0,60.0,60.0,0.0,64.0
619,61.0,0.0,240.0,0.0,64.0
620,64.0,0.0,120.0,0.0,64.0
621,79.0,60.0,60.0,0.0,64.0
622,69.0,0.0,120.0,0.0,64.0
623,81.0,60.0,60.0,0.0,64.0
624,79.0,60.0,60.0,0.0,64.0
625,57.0,0.0,240.0,0.0,64.0
626,74.0,0.0,120.0,0.0,64.0
627,81.0,60.0,60.0,0.0,64.0
628,79.0,60.0,60.0,0.0,64.0
629,73.0,0.0,120.0,0.0,64.0
630,78.0,60.0,60.0,0.0,64.0
631,76.0,0.0,60.0,0.0,64.0
632,62.0,120.0,240.0,0.0,64.0
633,78.0,120.0,120.0,0.0,64.0
634,69.0,0.0,15.0,0.0,64.0
635,76.0,120.0,15.0,0.0,64.0
636,81.0,0.0,120.0,0.0,64.0
637,61.0,60.0,240.0,0.0,64.0
638,88.0,120.0,120.0,0.0,64.0
639,86.0,0.0,120.0,0.0,64.0
640,62.0,60.0,120.0,0.0,64.0
641,79.0,60.0,60.0,0.0,64.0
642,59.0,0.0,240.0,0.0,64.0
643,78.0,0.0,60.0,0.0,64.0
644,79.0,60.0,60.0,0.0,64.0
645,66.0,0.0,120.0,0.0,64.0
646,78.0,60.0,60.0,0.0,64.0
647,79.0,60.0,60.0,0.0,64.0
648,58.0,0.0,120.0,0.0,64.0
649,73.0,0.0,120.0,0.0,64.0
650,78.0,60.0,60.0,0.0,64.0
651,59.0,0.0,120.0,0.0,64.0
652,76.0,60.0,60.0,0.0,64.0
653,71.0,0.0,120.0,0.0,64.0
654,74.0,0.0,60.0,0.0,64.0
655,61.0,120.0,240.0,0.0,64.0
656,74.0,0.0,480.0,0.0,64.0
657,76.0,120.0,120.0,0.0,64.0
658,64.0,0.0,480.0,0.0,64.0
659,79.0,0.0,120.0,0.0,64.0
660,86.0,120.0,120.0,0.0,64.0
661,59.0,0.0,240.0,0.0,64.0
662,85.0,60.0,120.0,0.0,64.0
663,58.0,0.0,240.0,0.0,64.0
664,61.0,60.0,120.0,0.0,64.0
665,78.0,60.0,60.0,0.0,64.0
666,76.0,0.0,60.0,0.0,64.0
667,78.0,60.0,60.0,0.0,64.0
668,66.0,0.0,120.0,0.0,64.0
669,76.0,60.0,60.0,0.0,64.0
670,54.0,0.0,240.0,0.0,64.0
671,71.0,0.0,120.0,0.0,64.0
672,78.0,60.0,60.0,0.0,64.0
673,76.0,60.0,60.0,0.0,64.0
674,74.0,60.0,60.0,0.0,64.0
675,70.0,120.0,120.0,0.0,64.0
676,73.0,0.0,60.0,0.0,64.0
677,66.0,0.0,15.0,0.0,64.0
678,59.0,0.0,240.0,0.0,64.0
679,73.0,0.0,480.0,0.0,64.0
680,74.0,120.0,120.0,0.0,64.0
681,78.0,120.0,120.0,0.0,64.0
682,57.0,0.0,240.0,0.0,64.0
683,85.0,120.0,120.0,0.0,64.0
684,83.0,60.0,120.0,0.0,64.0
685,55.0,0.0,240.0,0.0,64.0
686,76.0,60.0,60.0,0.0,64.0
687,74.0,60.0,60.0,0.0,64.0
688,76.0,60.0,60.0,0.0,64.0
689,71.0,0.0,120.0,0.0,64.0
690,74.0,60.0,60.0,0.0,64.0
691,73.0,0.0,120.0,0.0,64.0
692,76.0,60.0,60.0,0.0,64.0
693,54.0,0.0,240.0,0.0,64.0
694,74.0,60.0,15.0,0.0,64.0
695,73.0,60.0,60.0,0.0,64.0
696,64.0,120.0,120.0,0.0,64.0
697,83.0,120.0,3000.0,0.0,64.0
698,55.0,0.0,240.0,0.0,64.0
699,76.0,0.0,480.0,0.0,64.0
700,71.0,0.0,15.0,0.0,64.0
701,67.0,0.0,15.0,0.0,64.0
702,67.0,120.0,120.0,0.0,64.0
703,52.0,0.0,240.0,0.0,64.0
704,74.0,120.0,120.0,0.0,64.0
705,73.0,0.0,120.0,0.0,64.0
706,71.0,0.0,480.0,0.0,64.0
707,57.0,120.0,240.0,0.0,64.0
708,66.0,120.0,120.0,0.0,64.0
709,69.0,0.0,120.0,0.0,64.0
710,76.0,120.0,120.0,0.0,64.0
711,54.0,0.0,240.0,0.0,64.0
712,75.0,0.0,120.0,0.0,64.0
713,55.0,120.0,240.0,0.0,64.0
714,64.0,0.0,720.0,0.0,64.0
715,76.0,120.0,120.0,0.0,64.0
716,78.0,0.0,120.0,0.0,64.0
717,79.0,120.0,120.0,0.0,64.0
718,59.0,0.0,240.0,0.0,64.0
719,76.0,120.0,120.0,0.0,64.0
720,55.0,120.0,240.0,0.0,64.0
721,71.0,120.0,120.0,0.0,64.0
722,73.0,0.0,120.0,0.0,64.0
723,71.0,0.0,15.0,0.0,64.0
724,54.0,0.0,240.0,0.0,64.0
725,66.0,0.0,240.0,0.0,64.0
726,74.0,120.0,120.0,0.0,64.0
727,53.0,120.0,240.0,0.0,64.0
728,74.0,0.0,15.0,0.0,64.0
729,71.0,0.0,15.0,0.0,64.0
730,68.0,120.0,120.0,0.0,64.0
731,71.0,0.0,120.0,0.0,64.0
732,74.0,120.0,120.0,0.0,64.0
733,54.0,0.0,240.0,0.0,64.0
734,73.0,120.0,15.0,0.0,64.0
735,71.0,0.0,15.0,0.0,64.0
736,65.0,0.0,480.0,0.0,64.0
737,56.0,0.0,240.0,0.0,64.0
738,74.0,120.0,120.0,0.0,64.0
739,49.0,0.0,240.0,0.0,64.0
740,78.0,120.0,120.0,0.0,64.0
741,77.0,0.0,120.0,0.0,64.0
742,54.0,0.0,240.0,0.0,64.0
743,78.0,0.0,240.0,0.0,64.0
744,71.0,120.0,15.0,0.0,64.0
745,82.0,0.0,120.0,0.0,64.0
746,42.0,0.0,240.0,0.0,64.0
747,88.0,120.0,480.0,0.0,64.0
748,85.0,120.0,120.0,0.0,64.0
749,70.0,0.0,240.0,0.0,64.0
750,73.0,0.0,15.0,0.0,64.0
751,66.0,120.0,15.0,0.0,64.0
752,83.0,120.0,120.0,0.0,64.0
753,82.0,120.0,120.0,0.0,64.0
754,79.0,0.0,120.0,0.0,64.0
755,73.0,0.0,240.0,0.0,64.0
756,58.0,0.0,240.0,0.0,64.0
757,78.0,120.0,120.0,0.0,64.0
758,76.0,0.0,120.0,0.0,64.0
759,78.0,0.0,15.0,0.0,64.0
760,71.0,0.0,240.0,0.0,64.0
761,59.0,0.0,240.0,0.0,64.0
762,74.0,0.0,120.0,0.0,64.0
763,78.0,120.0,15.0,0.0,64.0
764,86.0,120.0,120.0,0.0,64.0
765,71.0,0.0,240.0,0.0,64.0
766,74.0,0.0,240.0,0.0,64.0
767,55.0,0.0,240.0,0.0,64.0
768,82.0,120.0,120.0,0.0,64.0
769,83.0,120.0,120.0,0.0,64.0
770,76.0,0.0,15.0,0.0,64.0
771,57.0,0.0,240.0,0.0,64.0
772,73.0,120.0,120.0,0.0,64.0
773,85.0,120.0,120.0,0.0,64.0
774,76.0,0.0,120.0,0.0,64.0
775,80.0,120.0,120.0,0.0,64.0
776,73.0,0.0,15.0,0.0,64.0
777,69.0,0.0,15.0,0.0,64.0
778,54.0,0.0,240.0,0.0,64.0
779,81.0,0.0,120.0,0.0,64.0
780,74.0,0.0,15.0,0.0,64.0
781,71.0,120.0,120.0,0.0,64.0
782,55.0,120.0,240.0,0.0,64.0
783,83.0,0.0,120.0,0.0,64.0
784,74.0,0.0,120.0,0.0,64.0
785,73.0,0.0,240.0,0.0,64.0
786,71.0,0.0,15.0,0.0,64.0
787,67.0,0.0,15.0,0.0,64.0
788,78.0,120.0,120.0,0.0,64.0
789,52.0,0.0,240.0,0.0,64.0
790,79.0,0.0,120.0,0.0,64.0
791,66.0,0.0,480.0,0.0,64.0
792,70.0,120.0,120.0,0.0,64.0
793,49.0,120.0,240.0,0.0,64.0
794,79.0,0.0,120.0,0.0,64.0
795,82.0,0.0,240.0,0.0,64.0
796,78.0,120.0,120.0,0.0,64.0
797,42.0,0.0,240.0,0.0,64.0
798,76.0,0.0,120.0,0.0,64.0
799,71.0,0.0,240.0,0.0,64.0
800,43.0,0.0,240.0,0.0,64.0
801,74.0,120.0,120.0,0.0,64.0
802,83.0,0.0,120.0,0.0,64.0
803,79.0,120.0,120.0,0.0,64.0
804,52.0,0.0,240.0,0.0,64.0
805,73.0,0.0,240.0,0.0,64.0
806,67.0,0.0,240.0,0.0,64.0
807,74.0,40.0,240.0,0.0,64.0
808,85.0,0.0,120.0,0.0,64.0
809,76.0,0.0,120.0,0.0,64.0
810,83.0,20.0,30.0,0.0,64.0
811,54.0,0.0,240.0,0.0,64.0
812,76.0,20.0,60.0,0.0,64.0
813,70.0,0.0,480.0,0.0,64.0
814,66.0,0.0,480.0,0.0,64.0
815,82.0,40.0,30.0,0.0,64.0
816,74.0,0.0,60.0,0.0,64.0
817,83.0,60.0,30.0,0.0,64.0
818,76.0,60.0,60.0,0.0,64.0
819,82.0,120.0,240.0,0.0,64.0
820,74.0,120.0,60.0,0.0,64.0
821,73.0,0.0,120.0,0.0,64.0
822,42.0,0.0,240.0,0.0,64.0
823,83.0,0.0,120.0,0.0,64.0
824,62.0,0.0,480.0,0.0,64.0
825,83.0,0.0,480.0,0.0,64.0
826,71.0,120.0,15.0,0.0,64.0
827,47.0,0.0,480.0,0.0,64.0
828,71.0,120.0,120.0,0.0,64.0
829,66.0,120.0,120.0,0.0,64.0
830,71.0,120.0,120.0,0.0,64.0
831,73.0,0.0,120.0,0.0,64.0
832,74.0,120.0,120.0,0.0,64.0
833,71.0,120.0,120.0,0.0,64.0
834,74.0,120.0,120.0,0.0,64.0
835,66.0,360.0,240.0,0.0,64.0
836,76.0,0.0,120.0,0.0,64.0
837,66.0,0.0,240.0,0.0,64.0
838,59.0,0.0,240.0,0.0,64.0
839,71.0,60.0,120.0,0.0,64.0
840,73.0,60.0,60.0,0.0,64.0
841,74.0,0.0,60.0,0.0,64.0
842,58.0,120.0,240.0,0.0,64.0
843,66.0,0.0,240.0,0.0,64.0
844,73.0,0.0,240.0,0.0,64.0
845,78.0,0.0,240.0,0.0,64.0
846,54.0,0.0,240.0,0.0,64.0
847,70.0,120.0,240.0,0.0,64.0
848,78.0,0.0,240.0,0.0,64.0
849,73.0,60.0,120.0,0.0,64.0
850,74.0,60.0,60.0,0.0,64.0
851,76.0,0.0,60.0,0.0,64.0
852,47.0,0.0,480.0,0.0,64.0
853,74.0,120.0,120.0,0.0,64.0
854,78.0,0.0,120.0,0.0,64.0
855,76.0,120.0,120.0,0.0,64.0
856,73.0,0.0,120.0,0.0,64.0
857,74.0,120.0,120.0,0.0,64.0
858,71.0,0.0,120.0,0.0,64.0
859,70.0,0.0,120.0,0.0,64.0
860,73.0,120.0,120.0,0.0,64.0
861,50.0,0.0,480.0,0.0,64.0
862,71.0,120.0,120.0,0.0,64.0
863,78.0,0.0,120.0,0.0,64.0
864,74.0,120.0,120.0,0.0,64.0
865,71.0,0.0,120.0,0.0,64.0
866,54.0,0.0,480.0,0.0,64.0
867,78.0,0.0,480.0,0.0,64.0
868,70.0,120.0,120.0,0.0,64.0
869,66.0,120.0,120.0,0.0,64.0
870,70.0,120.0,120.0,0.0,64.0
871,90.0,120.0,480.0,0.0,64.0
872,73.0,0.0,120.0,0.0,64.0
873,55.0,0.0,480.0,0.0,64.0
874,71.0,120.0,120.0,0.0,64.0
875,78.0,0.0,240.0,0.0,64.0
876,70.0,0.0,120.0,0.0,64.0
877,77.0,0.0,240.0,0.0,64.0
878,71.0,120.0,120.0,0.0,64.0
879,89.0,120.0,240.0,0.0,64.0
880,74.0,0.0,120.0,0.0,64.0
881,46.0,0.0,480.0,0.0,64.0
882,90.0,120.0,240.0,0.0,64.0
883,78.0,0.0,480.0,0.0,64.0
884,73.0,120.0,120.0,0.0,64.0
885,66.0,0.0,480.0,0.0,64.0
886,71.0,0.0,120.0,0.0,64.0
887,70.0,120.0,120.0,0.0,64.0
888,85.0,120.0,240.0,0.0,64.0
889,68.0,0.0,120.0,0.0,64.0
890,66.0,120.0,120.0,0.0,64.0
891,86.0,0.0,720.0,0.0,64.0
892,73.0,120.0,120.0,0.0,64.0
893,54.0,0.0,240.0,0.0,64.0
894,74.0,120.0,120.0,0.0,64.0
895,66.0,120.0,240.0,0.0,64.0
896,70.0,0.0,120.0,0.0,64.0
897,74.0,0.0,15.0,0.0,64.0
898,71.0,120.0,120.0,0.0,64.0
899,68.0,0.0,240.0,0.0,64.0
900,53.0,0.0,480.0,0.0,64.0
901,70.0,0.0,120.0,0.0,64.0
902,85.0,120.0,240.0,0.0,64.0
903,73.0,0.0,240.0,0.0,64.0
904,71.0,120.0,15.0,0.0,64.0
905,68.0,0.0,240.0,0.0,64.0
906,72.0,0.0,480.0,0.0,64.0
907,67.0,0.0,480.0,0.0,64.0
908,52.0,120.0,480.0,0.0,64.0
909,79.0,0.0,15.0,0.0,64.0
910,76.0,0.0,480.0,0.0,64.0
911,78.0,120.0,120.0,0.0,64.0
912,79.0,120.0,120.0,0.0,64.0
913,84.0,0.0,480.0,0.0,64.0
914,69.0,0.0,120.0,0.0,64.0
915,69.0,120.0,120.0,0.0,64.0
916,72.0,0.0,240.0,0.0,64.0
917,78.0,0.0,240.0,0.0,64.0
918,51.0,0.0,480.0,0.0,64.0
919,68.0,0.0,120.0,0.0,64.0
920,83.0,0.0,240.0,0.0,64.0
921,66.0,120.0,15.0,0.0,64.0
922,71.0,0.0,240.0,0.0,64.0
923,69.0,120.0,120.0,0.0,64.0
924,78.0,0.0,120.0,0.0,64.0
925,66.0,0.0,15.0,0.0,64.0
926,50.0,0.0,720.0,0.0,64.0
927,78.0,120.0,15.0,0.0,64.0
928,77.0,120.0,120.0,0.0,64.0
929,83.0,0.0,480.0,0.0,64.0
930,78.0,120.0,120.0,0.0,64.0
931,71.0,0.0,15.0,0.0,64.0
932,67.0,120.0,15.0,0.0,64.0
933,67.0,120.0,120.0,0.0,64.0
934,66.0,0.0,120.0,0.0,64.0
935,49.0,0.0,240.0,0.0,64.0
936,76.0,120.0,15.0,0.0,64.0
937,70.0,0.0,240.0,0.0,64.0
938,82.0,0.0,240.0,0.0,64.0
939,67.0,120.0,120.0,0.0,64.0
940,76.0,0.0,120.0,0.0,64.0
941,71.0,120.0,480.0,0.0,64.0
942,76.0,120.0,15.0,0.0,64.0
943,48.0,120.0,240.0,0.0,64.0
944,78.0,0.0,120.0,0.0,64.0
945,75.0,0.0,120.0,0.0,64.0
946,79.0,120.0,120.0,0.0,64.0
947,47.0,0.0,240.0,0.0,64.0
948,76.0,0.0,120.0,0.0,64.0
949,67.0,0.0,120.0,0.0,64.0
950,83.0,0.0,120.0,0.0,64.0
951,67.0,0.0,15.0,0.0,64.0
952,76.0,0.0,15.0,0.0,64.0
953,73.0,0.0,480.0,0.0,64.0
954,88.0,120.0,120.0,0.0,64.0
955,46.0,120.0,240.0,0.0,64.0
956,85.0,0.0,120.0,0.0,64.0
957,82.0,0.0,120.0,0.0,64.0
958,44.0,120.0,120.0,0.0,64.0
959,88.0,0.0,120.0,0.0,64.0
960,42.0,0.0,120.0,0.0,64.0
961,74.0,0.0,240.0,0.0,64.0
962,71.0,0.0,240.0,0.0,64.0
963,66.0,0.0,15.0,0.0,64.0
964,86.0,120.0,120.0,0.0,64.0
965,47.0,120.0,240.0,0.0,64.0
966,83.0,0.0,120.0,0.0,64.0
967,66.0,0.0,15.0,0.0,64.0
968,70.0,0.0,240.0,0.0,64.0
969,73.0,0.0,240.0,0.0,64.0
970,52.0,0.0,240.0,0.0,64.0
971,85.0,120.0,120.0,0.0,64.0
972,82.0,0.0,120.0,0.0,64.0
973,71.0,0.0,480.0,0.0,64.0
974,79.0,60.0,60.0,0.0,64.0
975,66.0,0.0,15.0,0.0,64.0
976,83.0,60.0,120.0,0.0,64.0
977,50.0,60.0,240.0,0.0,64.0
978,78.0,0.0,60.0,0.0,64.0
979,79.0,60.0,60.0,0.0,64.0
980,78.0,0.0,60.0,0.0,64.0
981,55.0,60.0,240.0,0.0,64.0
982,79.0,60.0,60.0,0.0,64.0
983,83.0,60.0,480.0,0.0,64.0
984,78.0,60.0,60.0,0.0,64.0
985,76.0,60.0,60.0,0.0,64.0
986,74.0,0.0,60.0,0.0,64.0
987,78.0,60.0,60.0,0.0,64.0
988,71.0,0.0,240.0,0.0,64.0
989,49.0,0.0,240.0,0.0,64.0
990,67.0,0.0,240.0,0.0,64.0
991,76.0,60.0,60.0,0.0,64.0
992,78.0,60.0,60.0,0.0,64.0
993,76.0,0.0,60.0,0.0,64.0
994,82.0,0.0,240.0,0.0,64.0
995,54.0,0.0,240.0,0.0,64.0
996,78.0,60.0,60.0,0.0,64.0
997,66.0,0.0,240.0,0.0,64.0
998,70.0,120.0,240.0,0.0,64.0
999,76.0,60.0,60.0,0.0,64.0
1000,74.0,60.0,60.0,0.0,64.0
1001,73.0,0.0,60.0,0.0,64.0
1002,83.0,0.0,480.0,0.0,64.0
1003,74.0,120.0,120.0,0.0,64.0
1004,47.0,120.0,240.0,0.0,64.0
1005,66.0,0.0,480.0,0.0,64.0
1006,76.0,0.0,120.0,0.0,64.0
1007,49.0,120.0,240.0,0.0,64.0
1008,78.0,120.0,120.0,0.0,64.0
1009,74.0,0.0,120.0,0.0,64.0
1010,71.0,0.0,15.0,0.0,64.0
1011,74.0,0.0,15.0,0.0,64.0
1012,50.0,120.0,240.0,0.0,64.0
1013,78.0,0.0,480.0,0.0,64.0
1014,73.0,0.0,120.0,0.0,64.0
1015,74.0,120.0,120.0,0.0,64.0
1016,47.0,0.0,240.0,0.0,64.0
1017,71.0,0.0,120.0,0.0,64.0
1018,83.0,120.0,15.0,0.0,64.0
1019,79.0,0.0,480.0,0.0,64.0
1020,72.0,120.0,120.0,0.0,64.0
1021,52.0,120.0,240.0,0.0,64.0
1022,71.0,0.0,120.0,0.0,64.0
1023,72.0,120.0,120.0,0.0,64.0
1024,57.0,120.0,240.0,0.0,64.0
1025,69.0,0.0,240.0,0.0,64.0
1026,72.0,0.0,15.0,0.0,64.0
1027,81.0,0.0,15.0,0.0,64.0
1028,54.0,0.0,240.0,0.0,64.0
1029,79.0,120.0,120.0,0.0,64.0
1030,81.0,120.0,120.0,0.0,64.0
1031,50.0,0.0,240.0,0.0,64.0
1032,72.0,0.0,120.0,0.0,64.0
1033,74.0,120.0,15.0,0.0,64.0
1034,72.0,0.0,15.0,0.0,64.0
1035,81.0,0.0,480.0,0.0,64.0
1036,55.0,120.0,240.0,0.0,64.0
1037,72.0,0.0,120.0,0.0,64.0
1038,71.0,0.0,240.0,0.0,64.0
1039,74.0,120.0,120.0,0.0,64.0
1040,59.0,0.0,240.0,0.0,64.0
1041,71.0,120.0,15.0,0.0,64.0
1042,56.0,120.0,240.0,0.0,64.0
1043,83.0,0.0,15.0,0.0,64.0
1044,83.0,120.0,120.0,0.0,64.0
1045,81.0,0.0,120.0,0.0,64.0
1046,83.0,120.0,120.0,0.0,64.0
1047,52.0,0.0,240.0,0.0,64.0
1048,74.0,0.0,120.0,0.0,64.0
1049,74.0,0.0,240.0,0.0,64.0
1050,76.0,0.0,15.0,0.0,64.0
1051,57.0,120.0,240.0,0.0,64.0
1052,75.0,0.0,120.0,0.0,64.0
1053,76.0,120.0,120.0,0.0,64.0
1054,60.0,0.0,240.0,0.0,64.0
1055,76.0,0.0,15.0,0.0,64.0
1056,84.0,0.0,15.0,0.0,64.0
1057,72.0,0.0,15.0,0.0,64.0
1058,81.0,120.0,15.0,0.0,64.0
1059,57.0,0.0,240.0,0.0,64.0
1060,83.0,120.0,120.0,0.0,64.0
1061,84.0,120.0,120.0,0.0,64.0
1062,54.0,0.0,240.0,0.0,64.0
1063,59.0,0.0,240.0,0.0,64.0
1064,71.0,0.0,480.0,0.0,64.0
1065,76.0,0.0,15.0,0.0,64.0
1066,81.0,0.0,15.0,0.0,64.0
1067,78.0,0.0,15.0,0.0,64.0
1068,79.0,0.0,120.0,0.0,64.0
1069,81.0,120.0,120.0,0.0,64.0
1070,75.0,0.0,240.0,0.0,64.0
1071,61.0,0.0,240.0,0.0,64.0
1072,90.0,0.0,120.0,0.0,64.0
1073,71.0,120.0,480.0,0.0,64.0
1074,63.0,0.0,240.0,0.0,64.0
1075,90.0,120.0,120.0,0.0,64.0
1076,88.0,120.0,120.0,0.0,64.0
1077,78.0,0.0,240.0,0.0,64.0
1078,90.0,120.0,120.0,0.0,64.0
1079,59.0,0.0,240.0,0.0,64.0
1080,81.0,0.0,120.0,0.0,64.0
1081,79.0,120.0,120.0,0.0,64.0
1082,64.0,120.0,240.0,0.0,64.0
1083,71.0,0.0,480.0,0.0,64.0
1084,78.0,0.0,120.0,0.0,64.0
1085,76.0,0.0,240.0,0.0,64.0
1086,79.0,120.0,120.0,0.0,64.0
1087,62.0,0.0,240.0,0.0,64.0
1088,88.0,0.0,120.0,0.0,64.0
1089,60.0,0.0,240.0,0.0,64.0
1090,72.0,0.0,480.0,0.0,64.0
1091,88.0,120.0,120.0,0.0,64.0
1092,87.0,120.0,120.0,0.0,64.0
1093,59.0,0.0,240.0,0.0,64.0
1094,88.0,120.0,120.0,0.0,64.0
1095,79.0,0.0,120.0,0.0,64.0
1096,72.0,0.0,480.0,0.0,64.0
1097,76.0,0.0,15.0,0.0,64.0
1098,57.0,0.0,360.0,0.0,64.0
1099,77.0,120.0,120.0,0.0,64.0
1100,76.0,0.0,120.0,0.0,64.0
1101,77.0,60.0,120.0,0.0,64.0
1102,59.0,60.0,60.0,0.0,64.0
1103,86.0,120.0,120.0,0.0,64.0
1104,60.0,0.0,60.0,0.0,64.0
1105,74.0,0.0,15.0,0.0,64.0
1106,77.0,0.0,15.0,0.0,64.0
1107,59.0,0.0,360.0,0.0,64.0
1108,86.0,120.0,120.0,0.0,64.0
1109,84.0,120.0,120.0,0.0,64.0
1110,79.0,0.0,480.0,0.0,64.0
1111,86.0,60.0,120.0,0.0,64.0
1112,60.0,60.0,60.0,0.0,64.0
1113,77.0,0.0,120.0,0.0,64.0
1114,62.0,0.0,60.0,0.0,64.0
1115,60.0,120.0,240.0,0.0,64.0
1116,74.0,0.0,15.0,0.0,64.0
1117,67.0,0.0,15.0,0.0,64.0
1118,76.0,120.0,120.0,0.0,64.0
1119,74.0,0.0,120.0,0.0,64.0
1120,76.0,120.0,120.0,0.0,64.0
1121,59.0,120.0,240.0,0.0,64.0
1122,80.0,0.0,240.0,0.0,64.0
1123,84.0,0.0,120.0,0.0,64.0
1124,57.0,0.0,240.0,0.0,64.0
1125,81.0,0.0,240.0,0.0,64.0
1126,76.0,0.0,15.0,0.0,64.0
1127,84.0,120.0,120.0,0.0,64.0
1128,83.0,120.0,120.0,0.0,64.0
1129,84.0,120.0,120.0,0.0,64.0
1130,55.0,0.0,240.0,0.0,64.0
1131,76.0,0.0,120.0,0.0,64.0
1132,72.0,0.0,15.0,0.0,64.0
1133,54.0,0.0,360.0,0.0,64.0
1134,81.0,0.0,480.0,0.0,64.0
1135,74.0,120.0,120.0,0.0,64.0
1136,72.0,0.0,120.0,0.0,64.0
1137,74.0,60.0,120.0,0.0,64.0
1138,83.0,0.0,120.0,0.0,64.0
1139,56.0,60.0,60.0,0.0,64.0
1140,57.0,0.0,60.0,0.0,64.0
1141,71.0,0.0,15.0,0.0,64.0
1142,83.0,120.0,120.0,0.0,64.0
1143,56.0,0.0,360.0,0.0,64.0
1144,81.0,120.0,120.0,0.0,64.0
1145,83.0,60.0,120.0,0.0,64.0
1146,76.0,0.0,240.0,0.0,64.0
1147,57.0,60.0,60.0,0.0,64.0
1148,74.0,0.0,120.0,0.0,64.0
1149,59.0,0.0,60.0,0.0,64.0
1150,71.0,0.0,15.0,0.0,64.0
1151,76.0,120.0,120.0,0.0,64.0
1152,57.0,0.0,240.0,0.0,64.0
1153,74.0,120.0,15.0,0.0,64.0
1154,74.0,0.0,120.0,0.0,64.0
1155,72.0,0.0,240.0,0.0,64.0
1156,55.0,0.0,240.0,0.0,64.0
1157,76.0,120.0,120.0,0.0,64.0
1158,54.0,0.0,240.0,0.0,64.0
1159,69.0,0.0,480.0,0.0,64.0
1160,72.0,120.0,15.0,0.0,64.0
1161,81.0,0.0,15.0,0.0,64.0
1162,81.0,120.0,120.0,0.0,64.0
1163,80.0,120.0,120.0,0.0,64.0
1164,81.0,120.0,120.0,0.0,64.0
1165,52.0,0.0,240.0,0.0,64.0
1166,72.0,0.0,120.0,0.0,64.0
1167,51.0,60.0,360.0,0.0,64.0
1168,71.0,120.0,120.0,0.0,64.0
1169,78.0,0.0,480.0,0.0,64.0
1170,81.0,0.0,240.0,0.0,64.0
1171,69.0,120.0,120.0,0.0,64.0
1172,71.0,0.0,120.0,0.0,64.0
1173,52.0,60.0,60.0,0.0,64.0
1174,54.0,0.0,60.0,0.0,64.0
1175,79.0,0.0,15.0,0.0,64.0
1176,52.0,60.0,360.0,0.0,64.0
1177,71.0,0.0,15.0,0.0,64.0
1178,79.0,120.0,15.0,0.0,64.0
1179,78.0,120.0,120.0,0.0,64.0
1180,79.0,0.0,120.0,0.0,64.0
1181,71.0,0.0,120.0,0.0,64.0
1182,54.0,60.0,60.0,0.0,64.0
1183,55.0,120.0,60.0,0.0,64.0
1184,69.0,120.0,120.0,0.0,64.0
1185,76.0,0.0,480.0,0.0,64.0
1186,79.0,120.0,240.0,0.0,64.0
1187,49.0,0.0,360.0,0.0,64.0
1188,67.0,0.0,120.0,0.0,64.0
1189,69.0,60.0,120.0,0.0,64.0
1190,78.0,0.0,120.0,0.0,64.0
1191,51.0,60.0,60.0,0.0,64.0
1192,52.0,0.0,60.0,0.0,64.0
1193,78.0,0.0,15.0,0.0,64.0
1194,78.0,120.0,120.0,0.0,64.0
1195,51.0,60.0,360.0,0.0,64.0
1196,76.0,120.0,120.0,0.0,64.0
1197,78.0,0.0,120.0,0.0,64.0
1198,69.0,0.0,120.0,0.0,64.0
1199,52.0,60.0,60.0,0.0,64.0
1200,54.0,120.0,60.0,0.0,64.0
1201,71.0,0.0,15.0,0.0,64.0
1202,67.0,120.0,120.0,0.0,64.0
1203,52.0,0.0,240.0,0.0,64.0
1204,71.0,0.0,120.0,0.0,64.0
1205,48.0,0.0,240.0,0.0,64.0
1206,76.0,0.0,15.0,0.0,64.0
1207,67.0,0.0,15.0,0.0,64.0
1208,76.0,60.0,120.0,0.0,64.0
1209,78.0,60.0,60.0,0.0,64.0
1210,79.0,240.0,60.0,0.0,64.0
1211,72.0,0.0,15.0,0.0,64.0
1212,76.0,0.0,15.0,0.0,64.0
1213,45.0,0.0,240.0,0.0,64.0
1214,78.0,60.0,360.0,0.0,64.0
1215,75.0,0.0,240.0,0.0,64.0
1216,66.0,0.0,15.0,0.0,64.0
1217,47.0,120.0,240.0,0.0,64.0
1218,79.0,60.0,60.0,0.0,64.0
1219,81.0,0.0,60.0,0.0,64.0
1220,79.0,120.0,120.0,0.0,64.0
1221,71.0,0.0,15.0,0.0,64.0
1222,52.0,0.0,480.0,0.0,64.0
1223,67.0,0.0,480.0,0.0,64.0
1224,78.0,120.0,120.0,0.0,64.0
1225,76.0,120.0,120.0,0.0,64.0
1226,75.0,0.0,120.0,0.0,64.0
1227,76.0,0.0,15.0,0.0,64.0
1228,55.0,0.0,480.0,0.0,64.0
1229,83.0,120.0,120.0,0.0,64.0
1230,79.0,120.0,120.0,0.0,64.0
1231,76.0,0.0,120.0,0.0,64.0
1232,59.0,120.0,480.0,0.0,64.0
1233,75.0,120.0,120.0,0.0,64.0
1234,71.0,120.0,120.0,0.0,64.0
1235,75.0,120.0,120.0,0.0,64.0
1236,83.0,0.0,240.0,0.0,64.0
1237,78.0,0.0,120.0,0.0,64.0
1238,83.0,0.0,240.0,0.0,64.0
1239,60.0,0.0,480.0,0.0,64.0
1240,76.0,120.0,120.0,0.0,64.0
1241,78.0,0.0,240.0,0.0,64.0
1242,75.0,120.0,120.0,0.0,64.0
1243,82.0,0.0,240.0,0.0,64.0
1244,76.0,120.0,120.0,0.0,64.0
1245,79.0,0.0,120.0,0.0,64.0
1246,83.0,120.0,240.0,0.0,64.0
1247,78.0,120.0,120.0,0.0,64.0
1248,71.0,0.0,480.0,0.0,64.0
1249,51.0,0.0,480.0,0.0,64.0
1250,76.0,0.0,120.0,0.0,64.0
1251,75.0,120.0,120.0,0.0,64.0
1252,78.0,0.0,240.0,0.0,64.0
1253,73.0,120.0,120.0,0.0,64.0
1254,71.0,120.0,120.0,0.0,64.0
1255,78.0,120.0,120.0,0.0,64.0
1256,71.0,120.0,240.0,0.0,64.0
1257,79.0,120.0,120.0,0.0,64.0
1258,59.0,0.0,240.0,0.0,64.0
1259,75.0,0.0,120.0,0.0,64.0
1260,58.0,0.0,480.0,0.0,64.0
1261,76.0,120.0,120.0,0.0,64.0
1262,79.0,0.0,240.0,0.0,64.0
1263,75.0,0.0,120.0,0.0,64.0
1264,76.0,0.0,15.0,0.0,64.0
1265,73.0,120.0,15.0,0.0,64.0
1266,76.0,120.0,120.0,0.0,64.0
1267,78.0,0.0,240.0,0.0,64.0
1268,84.0,120.0,15.0,0.0,64.0
1269,57.0,0.0,480.0,0.0,64.0
1270,81.0,0.0,480.0,0.0,64.0
1271,72.0,0.0,480.0,0.0,64.0
1272,83.0,120.0,120.0,0.0,64.0
1273,77.0,120.0,240.0,0.0,64.0
1274,84.0,120.0,120.0,0.0,64.0
1275,74.0,0.0,120.0,0.0,64.0
1276,56.0,120.0,480.0,0.0,64.0
1277,74.0,120.0,120.0,0.0,64.0
1278,71.0,0.0,240.0,0.0,64.0
1279,83.0,0.0,240.0,0.0,64.0
1280,77.0,0.0,240.0,0.0,64.0
1281,73.0,120.0,120.0,0.0,64.0
1282,74.0,120.0,120.0,0.0,64.0
1283,76.0,0.0,240.0,0.0,64.0
1284,71.0,0.0,15.0,0.0,64.0
1285,83.0,0.0,15.0,0.0,64.0
1286,55.0,120.0,480.0,0.0,64.0
1287,83.0,120.0,120.0,0.0,64.0
1288,81.0,120.0,120.0,0.0,64.0
1289,83.0,120.0,120.0,0.0,64.0
1290,76.0,0.0,240.0,0.0,64.0
1291,72.0,0.0,15.0,0.0,64.0
1292,76.0,0.0,240.0,0.0,64.0
1293,72.0,120.0,120.0,0.0,64.0
1294,71.0,0.0,120.0,0.0,64.0
1295,54.0,120.0,240.0,0.0,64.0
1296,81.0,0.0,15.0,0.0,64.0
1297,72.0,0.0,15.0,0.0,64.0
1298,75.0,0.0,240.0,0.0,64.0
1299,81.0,0.0,120.0,0.0,64.0
1300,69.0,0.0,240.0,0.0,64.0
1301,74.0,0.0,240.0,0.0,64.0
1302,81.0,120.0,120.0,0.0,64.0
1303,53.0,0.0,240.0,0.0,64.0
1304,71.0,0.0,120.0,0.0,64.0
1305,80.0,120.0,120.0,0.0,64.0
1306,52.0,120.0,240.0,0.0,64.0
1307,72.0,0.0,120.0,0.0,64.0
1308,81.0,120.0,120.0,0.0,64.0
1309,76.0,0.0,120.0,0.0,64.0
1310,72.0,0.0,15.0,0.0,64.0
1311,69.0,0.0,15.0,0.0,64.0
1312,81.0,120.0,120.0,0.0,64.0
1313,51.0,0.0,240.0,0.0,64.0
1314,78.0,0.0,120.0,0.0,64.0
1315,75.0,0.0,120.0,0.0,64.0
1316,71.0,0.0,240.0,0.0,64.0
1317,49.0,120.0,120.0,0.0,64.0
1318,47.0,0.0,120.0,0.0,64.0
1319,81.0,0.0,120.0,0.0,64.0
1320,67.0,120.0,240.0,0.0,64.0
1321,71.0,0.0,240.0,0.0,64.0
1322,52.0,0.0,240.0,0.0,64.0
1323,79.0,120.0,120.0,0.0,64.0
1324,76.0,0.0,120.0,0.0,64.0
1325,78.0,120.0,120.0,0.0,64.0
1326,71.0,0.0,240.0,0.0,64.0
1327,66.0,0.0,240.0,0.0,64.0
1328,57.0,0.0,240.0,0.0,64.0
1329,75.0,0.0,120.0,0.0,64.0
1330,84.0,60.0,60.0,0.0,64.0
1331,67.0,0.0,480.0,0.0,64.0
1332,76.0,60.0,120.0,0.0,64.0
1333,55.0,0.0,240.0,0.0,64.0
1334,83.0,0.0,60.0,0.0,64.0
1335,84.0,60.0,60.0,0.0,64.0
1336,71.0,0.0,120.0,0.0,64.0
1337,83.0,60.0,60.0,0.0,64.0
1338,60.0,0.0,240.0,0.0,64.0
1339,84.0,60.0,60.0,0.0,64.0
1340,76.0,0.0,240.0,0.0,64.0
1341,83.0,60.0,60.0,0.0,64.0
1342,81.0,60.0,60.0,0.0,64.0
1343,79.0,0.0,60.0,0.0,64.0
1344,54.0,0.0,240.0,0.0,64.0
1345,83.0,60.0,60.0,0.0,64.0
1346,76.0,0.0,240.0,0.0,64.0
1347,81.0,60.0,60.0,0.0,64.0
1348,83.0,60.0,60.0,0.0,64.0
1349,81.0,0.0,60.0,0.0,64.0
1350,59.0,0.0,240.0,0.0,64.0
1351,69.0,0.0,15.0,0.0,64.0
1352,66.0,0.0,15.0,0.0,64.0
1353,83.0,60.0,60.0,0.0,64.0
1354,75.0,0.0,240.0,0.0,64.0
1355,81.0,60.0,60.0,0.0,64.0
1356,79.0,60.0,60.0,0.0,64.0
1357,78.0,0.0,60.0,0.0,64.0
1358,64.0,0.0,480.0,0.0,64.0
1359,52.0,0.0,240.0,0.0,64.0
1360,79.0,120.0,120.0,0.0,64.0
1361,76.0,0.0,480.0,0.0,64.0
1362,67.0,0.0,480.0,0.0,64.0
1363,81.0,120.0,120.0,0.0,64.0
1364,54.0,0.0,240.0,0.0,64.0
1365,83.0,120.0,120.0,0.0,64.0
1366,79.0,120.0,120.0,0.0,64.0
1367,55.0,120.0,240.0,0.0,64.0
1368,76.0,120.0,120.0,0.0,64.0
1369,74.0,0.0,120.0,0.0,64.0
1370,52.0,0.0,240.0,0.0,64.0
1371,72.0,120.0,120.0,0.0,64.0
1372,76.0,0.0,15.0,0.0,64.0
1373,57.0,0.0,240.0,0.0,64.0
1374,71.0,0.0,15.0,0.0,64.0
1375,72.0,120.0,120.0,0.0,64.0
1376,76.0,120.0,120.0,0.0,64.0
1377,55.0,0.0,240.0,0.0,64.0
1378,83.0,120.0,120.0,0.0,64.0
1379,81.0,0.0,120.0,0.0,64.0
1380,54.0,0.0,240.0,0.0,64.0
1381,74.0,60.0,60.0,0.0,64.0
1382,81.0,0.0,120.0,0.0,64.0
1383,72.0,60.0,60.0,0.0,64.0
1384,74.0,60.0,60.0,0.0,64.0
1385,86.0,0.0,120.0,0.0,64.0
1386,72.0,60.0,60.0,0.0,64.0
1387,91.0,0.0,120.0,0.0,64.0
1388,74.0,60.0,60.0,0.0,64.0
1389,50.0,120.0,240.0,0.0,64.0
1390,72.0,60.0,60.0,0.0,64.0
1391,71.0,60.0,60.0,0.0,64.0
1392,90.0,0.0,120.0,0.0,64.0
1393,69.0,0.0,60.0,0.0,64.0
1394,81.0,0.0,15.0,0.0,64.0
1395,74.0,0.0,15.0,0.0,64.0
1396,71.0,120.0,120.0,0.0,64.0
1397,55.0,0.0,240.0,0.0,64.0
1398,74.0,120.0,120.0,0.0,64.0
1399,54.0,0.0,240.0,0.0,64.0
1400,81.0,120.0,120.0,0.0,64.0
1401,79.0,0.0,15.0,0.0,64.0
1402,52.0,0.0,240.0,0.0,64.0
1403,72.0,60.0,60.0,0.0,64.0
1404,79.0,60.0,120.0,0.0,64.0
1405,76.0,0.0,480.0,0.0,64.0
1406,71.0,60.0,15.0,0.0,64.0
1407,71.0,0.0,60.0,0.0,64.0
1408,72.0,60.0,60.0,0.0,64.0
1409,83.0,0.0,120.0,0.0,64.0
1410,71.0,60.0,60.0,0.0,64.0
1411,51.0,60.0,120.0,0.0,64.0
1412,72.0,60.0,60.0,0.0,64.0
1413,90.0,0.0,120.0,0.0,64.0
1414,71.0,0.0,60.0,0.0,64.0
1415,69.0,60.0,60.0,0.0,64.0
1416,52.0,120.0,120.0,0.0,64.0
1417,88.0,0.0,120.0,0.0,64.0
1418,67.0,0.0,60.0,0.0,64.0
1419,69.0,120.0,120.0,0.0,64.0
1420,54.0,120.0,240.0,0.0,64.0
1421,72.0,0.0,120.0,0.0,64.0
1422,79.0,120.0,120.0,0.0,64.0
1423,52.0,0.0,240.0,0.0,64.0
1424,78.0,0.0,15.0,0.0,64.0
1425,78.0,60.0,120.0,0.0,64.0
1426,51.0,0.0,240.0,0.0,64.0
1427,81.0,0.0,15.0,0.0,64.0
1428,71.0,60.0,60.0,0.0,64.0
1429,69.0,0.0,60.0,0.0,64.0
1430,71.0,60.0,60.0,0.0,64.0
1431,81.0,0.0,120.0,0.0,64.0
1432,69.0,60.0,60.0,0.0,64.0
1433,71.0,60.0,60.0,0.0,64.0
1434,88.0,0.0,120.0,0.0,64.0
1435,47.0,0.0,240.0,0.0,64.0
1436,69.0,60.0,60.0,0.0,64.0
1437,67.0,60.0,60.0,0.0,64.0
1438,87.0,120.0,120.0,0.0,64.0
1439,66.0,0.0,60.0,0.0,64.0
1440,67.0,120.0,120.0,0.0,64.0
1441,52.0,120.0,240.0,0.0,64.0
1442,79.0,0.0,480.0,0.0,64.0
1443,71.0,0.0,120.0,0.0,64.0
1444,78.0,120.0,120.0,0.0,64.0
1445,50.0,60.0,240.0,0.0,64.0
1446,76.0,0.0,120.0,0.0,64.0
1447,69.0,60.0,60.0,0.0,64.0
1448,48.0,60.0,240.0,0.0,64.0
1449,67.0,60.0,60.0,0.0,64.0
1450,76.0,0.0,120.0,0.0,64.0
1451,69.0,60.0,60.0,0.0,64.0
1452,67.0,0.0,60.0,0.0,64.0
1453,69.0,60.0,60.0,0.0,64.0
1454,78.0,60.0,120.0,0.0,64.0
1455,47.0,0.0,240.0,0.0,64.0
1456,67.0,0.0,60.0,0.0,64.0
1457,66.0,60.0,60.0,0.0,64.0
1458,79.0,0.0,120.0,0.0,64.0
1459,64.0,0.0,60.0,0.0,64.0
1460,69.0,120.0,120.0,0.0,64.0
1461,72.0,0.0,15.0,0.0,64.0
1462,76.0,0.0,15.0,0.0,64.0
1463,76.0,0.0,480.0,0.0,64.0
1464,48.0,120.0,240.0,0.0,64.0
1465,81.0,0.0,480.0,0.0,64.0
1466,72.0,0.0,120.0,0.0,64.0
1467,79.0,120.0,120.0,0.0,64.0
1468,45.0,0.0,240.0,0.0,64.0
1469,78.0,120.0,120.0,0.0,64.0
1470,76.0,0.0,480.0,0.0,64.0
1471,50.0,120.0,240.0,0.0,64.0
1472,71.0,120.0,120.0,0.0,64.0
1473,74.0,0.0,120.0,0.0,64.0
1474,81.0,120.0,120.0,0.0,64.0
1475,47.0,0.0,240.0,0.0,64.0
1476,80.0,0.0,120.0,0.0,64.0
1477,69.0,120.0,720.0,0.0,64.0
1478,48.0,120.0,240.0,0.0,64.0
1479,81.0,120.0,120.0,0.0,64.0
1480,83.0,0.0,120.0,0.0,64.0
1481,84.0,120.0,120.0,0.0,64.0
1482,52.0,0.0,240.0,0.0,64.0
1483,81.0,120.0,120.0,0.0,64.0
1484,76.0,120.0,120.0,0.0,64.0
1485,48.0,0.0,240.0,0.0,64.0
1486,78.0,0.0,120.0,0.0,64.0
1487,47.0,120.0,240.0,0.0,64.0
1488,71.0,0.0,240.0,0.0,64.0
1489,79.0,120.0,120.0,0.0,64.0
1490,76.0,0.0,120.0,0.0,64.0
1491,79.0,0.0,15.0,0.0,64.0
1492,76.0,0.0,15.0,0.0,64.0
1493,73.0,120.0,120.0,0.0,64.0
1494,46.0,120.0,240.0,0.0,64.0
1495,76.0,0.0,120.0,0.0,64.0
1496,79.0,120.0,120.0,0.0,64.0
1497,47.0,0.0,240.0,0.0,64.0
1498,70.0,120.0,480.0,0.0,64.0
1499,78.0,120.0,15.0,0.0,64.0
1500,76.0,120.0,120.0,0.0,64.0
1501,49.0,120.0,240.0,0.0,64.0
1502,79.0,0.0,120.0,0.0,64.0
1503,42.0,0.0,240.0,0.0,64.0
1504,83.0,120.0,120.0,0.0,64.0
1505,82.0,0.0,120.0,0.0,64.0
1506,76.0,0.0,15.0,0.0,64.0
1507,71.0,0.0,240.0,0.0,64.0
1508,83.0,0.0,240.0,0.0,64.0
1509,78.0,0.0,15.0,0.0,64.0
1510,47.0,0.0,240.0,0.0,64.0
1511,75.0,0.0,120.0,0.0,64.0
1512,84.0,120.0,240.0,0.0,64.0
1513,57.0,0.0,240.0,0.0,64.0
1514,78.0,120.0,15.0,0.0,64.0
1515,75.0,0.0,240.0,0.0,64.0
1516,72.0,0.0,240.0,0.0,64.0
1517,76.0,0.0,120.0,0.0,64.0
1518,74.0,120.0,120.0,0.0,64.0
1519,72.0,120.0,120.0,0.0,64.0
1520,90.0,0.0,360.0,0.0,64.0
1521,71.0,120.0,120.0,0.0,64.0
1522,81.0,0.0,240.0,0.0,64.0
1523,63.0,0.0,240.0,0.0,64.0
1524,69.0,0.0,120.0,0.0,64.0
1525,78.0,120.0,15.0,0.0,64.0
1526,71.0,0.0,15.0,0.0,64.0
1527,64.0,0.0,240.0,0.0,64.0
1528,67.0,120.0,120.0,0.0,64.0
1529,91.0,0.0,120.0,0.0,64.0
1530,71.0,0.0,120.0,0.0,64.0
1531,81.0,0.0,360.0,0.0,64.0
1532,79.0,0.0,15.0,0.0,64.0
1533,60.0,0.0,240.0,0.0,64.0
1534,75.0,120.0,120.0,0.0,64.0
1535,72.0,0.0,240.0,0.0,64.0
1536,76.0,0.0,120.0,0.0,64.0
1537,76.0,120.0,15.0,0.0,64.0
1538,62.0,0.0,240.0,0.0,64.0
1539,78.0,0.0,240.0,0.0,64.0
1540,66.0,120.0,120.0,0.0,64.0
1541,90.0,0.0,120.0,0.0,64.0
1542,69.0,0.0,120.0,0.0,64.0
1543,79.0,0.0,240.0,0.0,64.0
1544,71.0,0.0,240.0,0.0,64.0
1545,73.0,120.0,120.0,0.0,64.0
1546,59.0,0.0,240.0,0.0,64.0
1547,74.0,0.0,15.0,0.0,64.0
1548,60.0,0.0,240.0,0.0,64.0
1549,64.0,0.0,120.0,0.0,64.0
1550,76.0,0.0,240.0,0.0,64.0
1551,67.0,0.0,120.0,0.0,64.0
1552,88.0,120.0,120.0,0.0,64.0
1553,71.0,120.0,120.0,0.0,64.0
1554,57.0,0.0,240.0,0.0,64.0
1555,76.0,0.0,240.0,0.0,64.0
1556,78.0,120.0,240.0,0.0,64.0
1557,72.0,0.0,120.0,0.0,64.0
1558,63.0,120.0,120.0,0.0,64.0
1559,54.0,0.0,240.0,0.0,64.0
1560,69.0,0.0,15.0,0.0,64.0
1561,72.0,0.0,15.0,0.0,64.0
1562,72.0,0.0,120.0,0.0,64.0
1563,47.0,0.0,240.0,0.0,64.0
1564,75.0,0.0,15.0,0.0,64.0
1565,71.0,120.0,120.0,0.0,64.0
1566,87.0,0.0,240.0,0.0,64.0
1567,69.0,0.0,120.0,0.0,64.0
1568,48.0,0.0,240.0,0.0,64.0
1569,67.0,120.0,120.0,0.0,64.0
1570,88.0,0.0,240.0,0.0,64.0
1571,76.0,0.0,120.0,0.0,64.0
1572,72.0,120.0,120.0,0.0,64.0
1573,76.0,0.0,15.0,0.0,64.0
1574,57.0,0.0,240.0,0.0,64.0
1575,69.0,0.0,120.0,0.0,64.0
1576,69.0,60.0,60.0,0.0,64.0
1577,71.0,120.0,240.0,0.0,64.0
1578,66.0,60.0,15.0,0.0,64.0
1579,59.0,0.0,240.0,0.0,64.0
1580,67.0,60.0,60.0,0.0,64.0
1581,69.0,60.0,60.0,0.0,64.0
1582,67.0,0.0,60.0,0.0,64.0
1583,47.0,0.0,240.0,0.0,64.0
1584,66.0,120.0,120.0,0.0,64.0
1585,75.0,0.0,240.0,0.0,64.0
1586,64.0,0.0,120.0,0.0,64.0
1587,64.0,0.0,480.0,0.0,64.0
1588,40.0,0.0,480.0,0.0,64.0
1589,71.0,0.0,15.0,0.0,64.0
1590,67.0,0.0,480.0,0.0,64.0
1591,76.0,0.0,480.0,0.0,64.0
1592,79.0,360.0,240.0,0.0,64.0
1593,67.0,60.0,360.0,0.0,64.0
1594,79.0,0.0,240.0,0.0,64.0
1595,76.0,0.0,240.0,0.0,64.0
1596,52.0,0.0,240.0,0.0,64.0
1597,69.0,60.0,60.0,0.0,64.0
1598,71.0,0.0,60.0,0.0,64.0
1599,54.0,120.0,240.0,0.0,64.0
1600,81.0,0.0,240.0,0.0,64.0
1601,69.0,0.0,240.0,0.0,64.0
1602,78.0,0.0,240.0,0.0,64.0
1603,69.0,60.0,120.0,0.0,64.0
1604,74.0,0.0,15.0,0.0,64.0
1605,50.0,0.0,240.0,0.0,64.0
1606,71.0,60.0,60.0,0.0,64.0
1607,72.0,0.0,60.0,0.0,64.0
1608,88.0,60.0,60.0,0.0,64.0
1609,55.0,0.0,240.0,0.0,64.0
1610,76.0,60.0,480.0,0.0,64.0
1611,71.0,0.0,240.0,0.0,64.0
1612,86.0,60.0,60.0,0.0,64.0
1613,88.0,60.0,60.0,0.0,64.0
1614,86.0,60.0,60.0,0.0,64.0
1615,88.0,60.0,60.0,0.0,64.0
1616,59.0,0.0,240.0,0.0,64.0
1617,86.0,60.0,60.0,0.0,64.0
1618,84.0,60.0,60.0,0.0,64.0
1619,83.0,0.0,60.0,0.0,64.0
1620,86.0,60.0,60.0,0.0,64.0
1621,79.0,0.0,15.0,0.0,64.0
1622,57.0,0.0,240.0,0.0,64.0
1623,76.0,0.0,240.0,0.0,64.0
1624,84.0,60.0,60.0,0.0,64.0
1625,86.0,60.0,60.0,0.0,64.0
1626,84.0,60.0,60.0,0.0,64.0
1627,72.0,0.0,15.0,0.0,64.0
1628,78.0,0.0,240.0,0.0,64.0
1629,86.0,60.0,60.0,0.0,64.0
1630,62.0,0.0,240.0,0.0,64.0
1631,84.0,60.0,60.0,0.0,64.0
1632,83.0,60.0,60.0,0.0,64.0
1633,81.0,120.0,60.0,0.0,64.0
1634,74.0,0.0,15.0,0.0,64.0
1635,71.0,120.0,720.0,0.0,64.0
1636,55.0,120.0,240.0,0.0,64.0
1637,79.0,120.0,120.0,0.0,64.0
1638,81.0,0.0,120.0,0.0,64.0
1639,83.0,0.0,15.0,0.0,64.0
1640,74.0,0.0,480.0,0.0,64.0
1641,67.0,120.0,120.0,0.0,64.0
1642,81.0,0.0,120.0,0.0,64.0
1643,66.0,120.0,120.0,0.0,64.0
1644,84.0,120.0,120.0,0.0,64.0
1645,67.0,0.0,240.0,0.0,64.0
1646,83.0,0.0,120.0,0.0,64.0
1647,69.0,0.0,240.0,0.0,64.0
1648,79.0,0.0,15.0,0.0,64.0
1649,76.0,0.0,240.0,0.0,64.0
1650,81.0,120.0,120.0,0.0,64.0
1651,60.0,120.0,360.0,0.0,64.0
1652,79.0,0.0,120.0,0.0,64.0
1653,69.0,0.0,240.0,0.0,64.0
1654,78.0,0.0,240.0,0.0,64.0
1655,74.0,0.0,120.0,0.0,64.0
1656,72.0,0.0,120.0,0.0,64.0
1657,57.0,0.0,120.0,0.0,64.0
1658,62.0,120.0,240.0,0.0,64.0
1659,74.0,120.0,15.0,0.0,64.0
1660,71.0,120.0,120.0,0.0,64.0
1661,72.0,0.0,120.0,0.0,64.0
1662,78.0,0.0,15.0,0.0,64.0
1663,74.0,0.0,15.0,0.0,64.0
1664,69.0,120.0,120.0,0.0,64.0
1665,50.0,0.0,240.0,0.0,64.0
1666,71.0,120.0,120.0,0.0,64.0
1667,72.0,0.0,120.0,0.0,64.0
1668,48.0,120.0,120.0,0.0,64.0
1669,69.0,0.0,15.0,0.0,64.0
1670,74.0,0.0,120.0,0.0,64.0
1671,47.0,0.0,120.0,0.0,64.0
1672,48.0,120.0,240.0,0.0,64.0
1673,81.0,0.0,15.0,0.0,64.0
1674,76.0,0.0,15.0,0.0,64.0
1675,69.0,240.0,15.0,0.0,64.0
1676,76.0,0.0,480.0,0.0,64.0
1677,60.0,0.0,240.0,0.0,64.0
1678,71.0,60.0,60.0,0.0,64.0
1679,72.0,0.0,60.0,0.0,64.0
1680,62.0,120.0,240.0,0.0,64.0
1681,81.0,240.0,15.0,0.0,64.0
1682,77.0,0.0,240.0,0.0,64.0
1683,71.0,0.0,15.0,0.0,64.0
1684,64.0,0.0,240.0,0.0,64.0
1685,80.0,0.0,240.0,0.0,64.0
1686,76.0,0.0,240.0,0.0,64.0
1687,72.0,60.0,60.0,0.0,64.0
1688,74.0,0.0,60.0,0.0,64.0
1689,89.0,60.0,60.0,0.0,64.0
1690,72.0,60.0,240.0,0.0,64.0
1691,57.0,0.0,240.0,0.0,64.0
1692,76.0,60.0,15.0,0.0,64.0
1693,88.0,60.0,60.0,0.0,64.0
1694,89.0,60.0,60.0,0.0,64.0
1695,88.0,0.0,60.0,0.0,64.0
1696,89.0,60.0,60.0,0.0,64.0
1697,48.0,0.0,240.0,0.0,64.0
1698,88.0,60.0,60.0,0.0,64.0
1699,86.0,60.0,60.0,0.0,64.0
1700,84.0,60.0,60.0,0.0,64.0
1701,77.0,0.0,240.0,0.0,64.0
1702,81.0,0.0,15.0,0.0,64.0
1703,47.0,0.0,240.0,0.0,64.0
1704,88.0,60.0,60.0,0.0,64.0
1705,86.0,60.0,60.0,0.0,64.0
1706,88.0,60.0,60.0,0.0,64.0
1707,86.0,60.0,60.0,0.0,64.0
1708,88.0,60.0,60.0,0.0,64.0
1709,76.0,120.0,240.0,0.0,64.0
1710,52.0,0.0,240.0,0.0,64.0
1711,74.0,0.0,15.0,0.0,64.0
1712,80.0,0.0,240.0,0.0,64.0
1713,86.0,60.0,60.0,0.0,64.0
1714,84.0,60.0,60.0,0.0,64.0
1715,83.0,0.0,60.0,0.0,64.0
1716,72.0,0.0,720.0,0.0,64.0
1717,81.0,120.0,120.0,0.0,64.0
1718,45.0,0.0,240.0,0.0,64.0
1719,83.0,0.0,120.0,0.0,64.0
1720,57.0,0.0,120.0,0.0,64.0
1721,76.0,0.0,480.0,0.0,64.0
1722,84.0,120.0,15.0,0.0,64.0
1723,55.0,0.0,120.0,0.0,64.0
1724,83.0,120.0,120.0,0.0,64.0
1725,57.0,120.0,240.0,0.0,64.0
1726,86.0,120.0,120.0,0.0,64.0
1727,84.0,0.0,120.0,0.0,64.0
1728,81.0,0.0,15.0,0.0,64.0
1729,83.0,120.0,120.0,0.0,64.0
1730,77.0,0.0,240.0,0.0,64.0
1731,62.0,0.0,360.0,0.0,64.0
1732,81.0,0.0,120.0,0.0,64.0
1733,80.0,120.0,480.0,0.0,64.0
1734,76.0,120.0,120.0,0.0,64.0
1735,71.0,0.0,15.0,0.0,64.0
1736,59.0,120.0,120.0,0.0,64.0
1737,74.0,0.0,120.0,0.0,64.0
1738,64.0,0.0,240.0,0.0,64.0
1739,72.0,120.0,120.0,0.0,64.0
1740,74.0,0.0,120.0,0.0,64.0
1741,71.0,120.0,120.0,0.0,64.0
1742,62.0,0.0,120.0,0.0,64.0
1743,72.0,120.0,120.0,0.0,64.0
1744,60.0,0.0,120.0,0.0,64.0
1745,59.0,0.0,120.0,0.0,64.0
1746,71.0,0.0,120.0,0.0,64.0
1747,74.0,120.0,120.0,0.0,64.0
1748,57.0,0.0,120.0,0.0,64.0
1749,72.0,0.0,120.0,0.0,64.0
1750,76.0,0.0,120.0,0.0,64.0
1751,71.0,120.0,15.0,0.0,64.0
1752,77.0,0.0,120.0,0.0,64.0
1753,74.0,120.0,120.0,0.0,64.0
1754,76.0,0.0,120.0,0.0,64.0
1755,72.0,120.0,120.0,0.0,64.0
1756,74.0,120.0,120.0,0.0,64.0
1757,77.0,0.0,120.0,0.0,64.0
1758,56.0,0.0,15.0,0.0,64.0
1759,86.0,0.0,120.0,0.0,64.0
1760,86.0,0.0,120.0,0.0,64.0
1761,56.0,0.0,15.0,0.0,64.0
1762,83.0,120.0,15.0,0.0,64.0
1763,81.0,120.0,120.0,0.0,64.0
1764,84.0,0.0,120.0,0.0,64.0
1765,56.0,0.0,15.0,0.0,64.0
1766,86.0,120.0,120.0,0.0,64.0
1767,83.0,0.0,120.0,0.0,64.0
1768,77.0,0.0,120.0,0.0,64.0
1769,74.0,0.0,120.0,0.0,64.0
1770,72.0,0.0,120.0,0.0,64.0
1771,76.0,120.0,120.0,0.0,64.0
1772,71.0,120.0,120.0,0.0,64.0
1773,74.0,0.0,120.0,0.0,64.0
1774,76.0,0.0,120.0,0.0,64.0
1775,57.0,0.0,15.0,0.0,64.0
1776,72.0,120.0,120.0,0.0,64.0
1777,57.0,0.0,15.0,0.0,64.0
1778,81.0,0.0,15.0,0.0,64.0
1779,84.0,120.0,15.0,0.0,64.0
1780,80.0,0.0,120.0,0.0,64.0
1781,83.0,0.0,120.0,0.0,64.0
1782,81.0,120.0,120.0,0.0,64.0
1783,57.0,120.0,15.0,0.0,64.0
1784,84.0,0.0,120.0,0.0,64.0
1785,72.0,0.0,120.0,0.0,64.0
1786,76.0,0.0,120.0,0.0,64.0
1787,71.0,120.0,120.0,0.0,64.0
1788,74.0,0.0,120.0,0.0,64.0
1789,69.0,120.0,120.0,0.0,64.0
1790,72.0,0.0,120.0,0.0,64.0
1791,52.0,0.0,15.0,0.0,64.0
1792,74.0,0.0,120.0,0.0,64.0
1793,71.0,120.0,120.0,0.0,64.0
1794,80.0,0.0,120.0,0.0,64.0
1795,80.0,120.0,120.0,0.0,64.0
1796,52.0,0.0,240.0,0.0,64.0
1797,83.0,120.0,15.0,0.0,64.0
1798,78.0,120.0,120.0,0.0,64.0
1799,81.0,0.0,120.0,0.0,64.0
1800,52.0,0.0,240.0,0.0,64.0
1801,80.0,0.0,120.0,0.0,64.0
1802,83.0,120.0,120.0,0.0,64.0
1803,74.0,0.0,120.0,0.0,64.0
1804,71.0,0.0,120.0,0.0,64.0
1805,69.0,0.0,120.0,0.0,64.0
1806,57.0,0.0,120.0,0.0,64.0
1807,76.0,0.0,15.0,0.0,64.0
1808,81.0,0.0,720.0,0.0,64.0
1809,72.0,120.0,120.0,0.0,64.0
1810,71.0,0.0,120.0,0.0,64.0
1811,59.0,0.0,120.0,0.0,64.0
1812,68.0,120.0,120.0,0.0,64.0
1813,60.0,0.0,120.0,0.0,64.0
1814,69.0,120.0,120.0,0.0,64.0
1815,62.0,0.0,120.0,0.0,64.0
1816,71.0,0.0,120.0,0.0,64.0
1817,64.0,0.0,120.0,0.0,64.0
1818,72.0,120.0,120.0,0.0,64.0
1819,74.0,120.0,120.0,0.0,64.0
1820,66.0,0.0,120.0,0.0,64.0
1821,73.0,0.0,120.0,0.0,64.0
1822,67.0,0.0,240.0,0.0,64.0
1823,76.0,120.0,120.0,0.0,64.0
1824,81.0,0.0,240.0,0.0,64.0
1825,78.0,0.0,120.0,0.0,64.0
1826,74.0,0.0,120.0,0.0,64.0
1827,58.0,120.0,240.0,0.0,64.0
1828,73.0,0.0,480.0,0.0,64.0
1829,79.0,0.0,120.0,0.0,64.0
1830,76.0,120.0,15.0,0.0,64.0
1831,78.0,0.0,120.0,0.0,64.0
1832,74.0,0.0,120.0,0.0,64.0
1833,79.0,120.0,120.0,0.0,64.0
1834,76.0,0.0,120.0,0.0,64.0
1835,88.0,0.0,120.0,0.0,64.0
1836,58.0,0.0,15.0,0.0,64.0
1837,67.0,0.0,480.0,0.0,64.0
1838,73.0,0.0,480.0,0.0,64.0
1839,88.0,0.0,120.0,0.0,64.0
1840,85.0,120.0,15.0,0.0,64.0
1841,86.0,120.0,120.0,0.0,64.0
1842,83.0,0.0,120.0,0.0,64.0
1843,85.0,120.0,120.0,0.0,64.0
1844,88.0,0.0,120.0,0.0,64.0
1845,58.0,120.0,240.0,0.0,64.0
1846,79.0,0.0,120.0,0.0,64.0
1847,76.0,0.0,120.0,0.0,64.0
1848,78.0,0.0,120.0,0.0,64.0
1849,66.0,0.0,480.0,0.0,64.0
1850,74.0,120.0,120.0,0.0,64.0
1851,76.0,120.0,120.0,0.0,64.0
1852,73.0,0.0,120.0,0.0,64.0
1853,74.0,0.0,120.0,0.0,64.0
1854,59.0,0.0,15.0,0.0,64.0
1855,78.0,120.0,120.0,0.0,64.0
1856,83.0,0.0,120.0,0.0,64.0
1857,86.0,0.0,120.0,0.0,64.0
1858,71.0,0.0,15.0,0.0,64.0
1859,59.0,120.0,15.0,0.0,64.0
1860,86.0,0.0,120.0,0.0,64.0
1861,83.0,120.0,120.0,0.0,64.0
1862,85.0,120.0,120.0,0.0,64.0
1863,82.0,0.0,120.0,0.0,64.0
1864,59.0,120.0,240.0,0.0,64.0
1865,83.0,0.0,120.0,0.0,64.0
1866,86.0,120.0,120.0,0.0,64.0
1867,74.0,0.0,120.0,0.0,64.0
1868,78.0,0.0,120.0,0.0,64.0
1869,76.0,120.0,120.0,0.0,64.0
1870,70.0,0.0,960.0,0.0,64.0
1871,73.0,0.0,120.0,0.0,64.0
1872,71.0,0.0,120.0,0.0,64.0
1873,74.0,0.0,120.0,0.0,64.0
1874,76.0,120.0,120.0,0.0,64.0
1875,73.0,0.0,120.0,0.0,64.0
1876,54.0,120.0,15.0,0.0,64.0
1877,85.0,0.0,15.0,0.0,64.0
1878,82.0,120.0,15.0,0.0,64.0
1879,80.0,0.0,120.0,0.0,64.0
1880,83.0,0.0,120.0,0.0,64.0
1881,82.0,120.0,120.0,0.0,64.0
1882,85.0,0.0,120.0,0.0,64.0
1883,54.0,120.0,15.0,0.0,64.0
1884,73.0,0.0,120.0,0.0,64.0
1885,76.0,0.0,120.0,0.0,64.0
1886,78.0,0.0,15.0,0.0,64.0
1887,59.0,120.0,120.0,0.0,64.0
1888,74.0,0.0,240.0,0.0,64.0
1889,71.0,0.0,480.0,0.0,64.0
1890,58.0,120.0,120.0,0.0,64.0
1891,86.0,0.0,240.0,0.0,64.0
1892,59.0,120.0,120.0,0.0,64.0
1893,67.0,0.0,120.0,0.0,64.0
1894,71.0,0.0,15.0,0.0,64.0
1895,76.0,0.0,240.0,0.0,64.0
1896,67.0,120.0,120.0,0.0,64.0
1897,88.0,0.0,240.0,0.0,64.0
1898,66.0,0.0,120.0,0.0,64.0
1899,74.0,0.0,240.0,0.0,64.0
1900,67.0,120.0,120.0,0.0,64.0
1901,71.0,120.0,15.0,0.0,64.0
1902,86.0,0.0,240.0,0.0,64.0
1903,59.0,0.0,120.0,0.0,64.0
1904,79.0,120.0,15.0,0.0,64.0
1905,57.0,120.0,120.0,0.0,64.0
1906,73.0,0.0,240.0,0.0,64.0
1907,55.0,0.0,120.0,0.0,64.0
1908,57.0,120.0,120.0,0.0,64.0
1909,85.0,0.0,240.0,0.0,64.0
1910,78.0,0.0,240.0,0.0,64.0
1911,69.0,0.0,240.0,0.0,64.0
1912,73.0,0.0,240.0,0.0,64.0
1913,66.0,0.0,15.0,0.0,64.0
1914,78.0,120.0,15.0,0.0,64.0
1915,69.0,0.0,240.0,0.0,64.0
1916,74.0,0.0,240.0,0.0,64.0
1917,86.0,120.0,240.0,0.0,64.0
1918,64.0,0.0,120.0,0.0,64.0
1919,78.0,0.0,15.0,0.0,64.0
1920,73.0,0.0,240.0,0.0,64.0
1921,69.0,120.0,240.0,0.0,64.0
1922,66.0,120.0,120.0,0.0,64.0
1923,85.0,0.0,240.0,0.0,64.0
1924,57.0,0.0,120.0,0.0,64.0
1925,78.0,0.0,15.0,0.0,64.0
1926,55.0,120.0,120.0,0.0,64.0
1927,54.0,0.0,120.0,0.0,64.0
1928,83.0,0.0,240.0,0.0,64.0
1929,71.0,0.0,15.0,0.0,64.0
1930,55.0,120.0,120.0,0.0,64.0
1931,64.0,0.0,120.0,0.0,64.0
1932,76.0,0.0,15.0,0.0,64.0
1933,67.0,0.0,15.0,0.0,64.0
1934,64.0,120.0,120.0,0.0,64.0
1935,85.0,0.0,240.0,0.0,64.0
1936,62.0,120.0,120.0,0.0,64.0
1937,71.0,0.0,240.0,0.0,64.0
1938,64.0,120.0,120.0,0.0,64.0
1939,73.0,0.0,15.0,0.0,64.0
1940,76.0,0.0,15.0,0.0,64.0
1941,76.0,0.0,240.0,0.0,64.0
1942,55.0,0.0,120.0,0.0,64.0
1943,73.0,0.0,15.0,0.0,64.0
1944,70.0,0.0,480.0,0.0,64.0
1945,76.0,60.0,120.0,0.0,64.0
1946,54.0,0.0,240.0,0.0,64.0
1947,83.0,60.0,15.0,0.0,64.0
1948,82.0,0.0,60.0,0.0,64.0
1949,83.0,60.0,60.0,0.0,64.0
1950,79.0,60.0,120.0,0.0,64.0
1951,82.0,0.0,60.0,0.0,64.0
1952,83.0,60.0,60.0,0.0,64.0
1953,42.0,0.0,240.0,0.0,64.0
1954,86.0,60.0,120.0,0.0,64.0
1955,82.0,0.0,60.0,0.0,64.0
1956,83.0,60.0,60.0,0.0,64.0
1957,85.0,0.0,120.0,0.0,64.0
1958,82.0,0.0,60.0,0.0,64.0
1959,73.0,0.0,15.0,0.0,64.0
1960,83.0,60.0,60.0,0.0,64.0
1961,82.0,0.0,60.0,0.0,64.0
1962,83.0,60.0,60.0,0.0,64.0
1963,82.0,60.0,60.0,0.0,64.0
1964,70.0,0.0,240.0,0.0,64.0
1965,83.0,60.0,60.0,0.0,64.0
1966,54.0,60.0,240.0,0.0,64.0
1967,79.0,60.0,120.0,0.0,64.0
1968,76.0,0.0,15.0,0.0,64.0
1969,82.0,0.0,60.0,0.0,64.0
1970,83.0,60.0,60.0,0.0,64.0
1971,78.0,0.0,120.0,0.0,64.0
1972,82.0,0.0,60.0,0.0,64.0
1973,66.0,0.0,15.0,0.0,64.0
1974,85.0,60.0,60.0,0.0,64.0
1975,55.0,0.0,240.0,0.0,64.0
1976,74.0,60.0,120.0,0.0,64.0
1977,83.0,0.0,60.0,0.0,64.0
1978,85.0,60.0,60.0,0.0,64.0
1979,78.0,0.0,120.0,0.0,64.0
1980,83.0,60.0,60.0,0.0,64.0
1981,43.0,0.0,240.0,0.0,64.0
1982,85.0,60.0,60.0,0.0,64.0
1983,83.0,60.0,15.0,0.0,64.0
1984,85.0,60.0,60.0,0.0,64.0
1985,83.0,0.0,60.0,0.0,64.0
1986,85.0,60.0,60.0,0.0,64.0
1987,71.0,0.0,15.0,0.0,64.0
1988,83.0,60.0,60.0,0.0,64.0
1989,85.0,60.0,60.0,0.0,64.0
1990,74.0,0.0,120.0,0.0,64.0
1991,83.0,60.0,60.0,0.0,64.0
1992,78.0,60.0,120.0,0.0,64.0
1993,66.0,0.0,240.0,0.0,64.0
1994,71.0,0.0,240.0,0.0,64.0
1995,55.0,0.0,240.0,0.0,64.0
1996,85.0,60.0,60.0,0.0,64.0
1997,74.0,0.0,240.0,0.0,64.0
1998,83.0,0.0,60.0,0.0,64.0
1999,85.0,60.0,60.0,0.0,64.0
2000,83.0,60.0,60.0,0.0,64.0
2001,76.0,0.0,15.0,0.0,64.0
2002,46.0,0.0,240.0,0.0,64.0
2003,81.0,60.0,60.0,0.0,64.0
2004,67.0,0.0,480.0,0.0,64.0
2005,73.0,60.0,120.0,0.0,64.0
2006,79.0,0.0,60.0,0.0,64.0
2007,76.0,0.0,120.0,0.0,64.0
2008,81.0,60.0,60.0,0.0,64.0
2009,79.0,60.0,60.0,0.0,64.0
2010,83.0,0.0,120.0,0.0,64.0
2011,81.0,60.0,60.0,0.0,64.0
2012,49.0,0.0,240.0,0.0,64.0
2013,79.0,60.0,60.0,0.0,64.0
2014,82.0,0.0,120.0,0.0,64.0
2015,81.0,60.0,60.0,0.0,64.0
2016,79.0,0.0,60.0,0.0,64.0
2017,52.0,60.0,240.0,0.0,64.0
2018,81.0,60.0,60.0,0.0,64.0
2019,70.0,60.0,120.0,0.0,64.0
2020,73.0,60.0,15.0,0.0,64.0
2021,66.0,0.0,240.0,0.0,64.0
2022,79.0,0.0,60.0,0.0,64.0
2023,81.0,60.0,60.0,0.0,64.0
2024,73.0,0.0,120.0,0.0,64.0
2025,79.0,0.0,60.0,0.0,64.0
2026,70.0,0.0,15.0,0.0,64.0
2027,66.0,0.0,240.0,0.0,64.0
2028,81.0,60.0,60.0,0.0,64.0
2029,76.0,0.0,120.0,0.0,64.0
2030,49.0,60.0,240.0,0.0,64.0
2031,79.0,60.0,60.0,0.0,64.0
2032,81.0,60.0,60.0,0.0,64.0
2033,66.0,0.0,480.0,0.0,64.0
2034,74.0,0.0,15.0,0.0,64.0
2035,71.0,60.0,120.0,0.0,64.0
2036,79.0,0.0,15.0,0.0,64.0
2037,50.0,0.0,240.0,0.0,64.0
2038,78.0,0.0,60.0,0.0,64.0
2039,74.0,0.0,120.0,0.0,64.0
2040,79.0,60.0,60.0,0.0,64.0
2041,47.0,0.0,240.0,0.0,64.0
2042,79.0,60.0,60.0,0.0,64.0
2043,78.0,60.0,15.0,0.0,64.0
2044,78.0,0.0,60.0,0.0,64.0
2045,79.0,60.0,60.0,0.0,64.0
2046,78.0,0.0,60.0,0.0,64.0
2047,52.0,0.0,240.0,0.0,64.0
2048,79.0,0.0,15.0,0.0,64.0
2049,66.0,0.0,480.0,0.0,64.0
2050,73.0,0.0,120.0,0.0,64.0
2051,70.0,0.0,480.0,0.0,64.0
2052,78.0,60.0,60.0,0.0,64.0
2053,76.0,0.0,120.0,0.0,64.0
2054,79.0,60.0,60.0,0.0,64.0
2055,78.0,60.0,60.0,0.0,64.0
2056,49.0,120.0,240.0,0.0,64.0
2057,83.0,60.0,120.0,0.0,64.0
2058,79.0,60.0,60.0,0.0,64.0
2059,78.0,0.0,60.0,0.0,64.0
2060,79.0,60.0,60.0,0.0,64.0
2061,82.0,0.0,120.0,0.0,64.0
2062,66.0,0.0,480.0,0.0,64.0
2063,71.0,0.0,480.0,0.0,64.0
2064,74.0,0.0,120.0,0.0,64.0
2065,54.0,0.0,240.0,0.0,64.0
2066,78.0,120.0,15.0,0.0,64.0
2067,83.0,0.0,120.0,0.0,64.0
2068,82.0,0.0,120.0,0.0,64.0
2069,50.0,120.0,240.0,0.0,64.0
2070,88.0,120.0,120.0,0.0,64.0
2071,86.0,0.0,120.0,0.0,64.0
2072,83.0,0.0,120.0,0.0,64.0
2073,64.0,0.0,240.0,0.0,64.0
2074,71.0,0.0,240.0,0.0,64.0
2075,76.0,120.0,120.0,0.0,64.0
2076,55.0,0.0,240.0,0.0,64.0
2077,79.0,120.0,120.0,0.0,64.0
2078,71.0,120.0,240.0,0.0,64.0
2079,76.0,0.0,240.0,0.0,64.0
2080,79.0,120.0,360.0,0.0,64.0
2081,86.0,120.0,120.0,0.0,64.0
2082,52.0,0.0,240.0,0.0,64.0
2083,85.0,0.0,120.0,0.0,64.0
2084,67.0,0.0,15.0,0.0,64.0
2085,73.0,0.0,480.0,0.0,64.0
2086,58.0,120.0,240.0,0.0,64.0
2087,85.0,60.0,1080.0,0.0,64.0
2088,76.0,0.0,120.0,0.0,64.0
2089,71.0,120.0,120.0,0.0,64.0
2090,61.0,0.0,240.0,0.0,64.0
2091,70.0,0.0,120.0,0.0,64.0
2092,76.0,0.0,15.0,0.0,64.0
2093,70.0,0.0,480.0,0.0,64.0
2094,54.0,120.0,240.0,0.0,64.0
2095,76.0,120.0,120.0,0.0,64.0
2096,73.0,0.0,120.0,0.0,64.0
2097,67.0,120.0,120.0,0.0,64.0
2098,58.0,0.0,240.0,0.0,64.0
2099,66.0,0.0,15.0,0.0,64.0
2100,74.0,0.0,240.0,0.0,64.0
2101,73.0,0.0,240.0,0.0,64.0
2102,79.0,60.0,60.0,0.0,64.0
2103,50.0,0.0,240.0,0.0,64.0
2104,78.0,0.0,60.0,0.0,64.0
2105,79.0,60.0,60.0,0.0,64.0
2106,82.0,0.0,120.0,0.0,64.0
2107,78.0,60.0,60.0,0.0,64.0
2108,55.0,0.0,240.0,0.0,64.0
2109,66.0,60.0,240.0,0.0,64.0
2110,71.0,0.0,240.0,0.0,64.0
2111,83.0,0.0,240.0,0.0,64.0
2112,79.0,60.0,60.0,0.0,64.0
2113,78.0,60.0,60.0,0.0,64.0
2114,76.0,60.0,60.0,0.0,64.0
2115,74.0,0.0,60.0,0.0,64.0
2116,49.0,60.0,240.0,0.0,64.0
2117,78.0,60.0,60.0,0.0,64.0
2118,76.0,60.0,60.0,0.0,64.0
2119,78.0,60.0,60.0,0.0,64.0
2120,76.0,0.0,60.0,0.0,64.0
2121,90.0,0.0,240.0,0.0,64.0
2122,78.0,60.0,60.0,0.0,64.0
2123,58.0,0.0,240.0,0.0,64.0
2124,76.0,60.0,60.0,0.0,64.0
2125,74.0,60.0,60.0,0.0,64.0
2126,73.0,0.0,60.0,0.0,64.0
2127,66.0,0.0,15.0,0.0,64.0
2128,74.0,120.0,120.0,0.0,64.0
2129,59.0,120.0,240.0,0.0,64.0
2130,78.0,0.0,120.0,0.0,64.0
2131,70.0,60.0,120.0,0.0,64.0
2132,47.0,0.0,240.0,0.0,64.0
2133,80.0,60.0,60.0,0.0,64.0
2134,71.0,0.0,120.0,0.0,64.0
2135,81.0,0.0,60.0,0.0,64.0
2136,80.0,60.0,360.0,0.0,64.0
2137,52.0,120.0,240.0,0.0,64.0
2138,74.0,0.0,240.0,0.0,64.0
2139,68.0,0.0,240.0,0.0,64.0
2140,71.0,0.0,240.0,0.0,64.0
2141,64.0,0.0,240.0,0.0,64.0
2142,71.0,60.0,240.0,0.0,64.0
2143,50.0,0.0,240.0,0.0,64.0
2144,68.0,0.0,240.0,0.0,64.0
2145,81.0,60.0,60.0,0.0,64.0
2146,83.0,0.0,60.0,0.0,64.0
2147,81.0,0.0,120.0,0.0,64.0
2148,48.0,60.0,240.0,0.0,64.0
2149,78.0,60.0,60.0,0.0,64.0
2150,76.0,0.0,15.0,0.0,64.0
2151,76.0,60.0,15.0,0.0,64.0
2152,78.0,60.0,60.0,0.0,64.0
2153,76.0,0.0,60.0,0.0,64.0
2154,71.0,0.0,120.0,0.0,64.0
2155,53.0,0.0,240.0,0.0,64.0
2156,78.0,60.0,60.0,0.0,64.0
2157,76.0,60.0,60.0,0.0,64.0
2158,74.0,60.0,60.0,0.0,64.0
2159,72.0,0.0,60.0,0.0,64.0
2160,69.0,60.0,15.0,0.0,64.0
2161,47.0,0.0,240.0,0.0,64.0
2162,76.0,60.0,60.0,0.0,64.0
2163,74.0,60.0,60.0,0.0,64.0
2164,76.0,60.0,60.0,0.0,64.0
2165,74.0,0.0,60.0,0.0,64.0
2166,76.0,60.0,60.0,0.0,64.0
2167,88.0,0.0,240.0,0.0,64.0
2168,64.0,120.0,240.0,0.0,64.0
2169,71.0,60.0,15.0,0.0,64.0
2170,74.0,0.0,15.0,0.0,64.0
2171,56.0,0.0,240.0,0.0,64.0
2172,74.0,60.0,60.0,0.0,64.0
2173,72.0,60.0,60.0,0.0,64.0
2174,71.0,0.0,60.0,0.0,64.0
2175,72.0,120.0,120.0,0.0,64.0
2176,71.0,0.0,15.0,0.0,64.0
2177,57.0,120.0,240.0,0.0,64.0
2178,64.0,0.0,240.0,0.0,64.0
2179,76.0,0.0,120.0,0.0,64.0
2180,83.0,60.0,120.0,0.0,64.0
2181,76.0,0.0,120.0,0.0,64.0
2182,72.0,0.0,15.0,0.0,64.0
2183,69.0,0.0,240.0,0.0,64.0
2184,60.0,0.0,240.0,0.0,64.0
2185,78.0,60.0,60.0,0.0,64.0
2186,81.0,240.0,120.0,0.0,64.0
2187,79.0,0.0,60.0,0.0,64.0
2188,51.0,120.0,240.0,0.0,64.0
2189,78.0,0.0,240.0,0.0,64.0
2190,71.0,0.0,240.0,0.0,64.0
2191,69.0,0.0,15.0,0.0,64.0
2192,75.0,0.0,240.0,0.0,64.0
2193,59.0,0.0,240.0,0.0,64.0
2194,79.0,60.0,60.0,0.0,64.0
2195,81.0,0.0,60.0,0.0,64.0
2196,67.0,0.0,480.0,0.0,64.0
2197,71.0,0.0,15.0,0.0,64.0
2198,52.0,60.0,360.0,0.0,64.0
2199,79.0,120.0,120.0,0.0,64.0
2200,76.0,0.0,120.0,0.0,64.0
2201,64.0,120.0,240.0,0.0,64.0
2202,79.0,0.0,120.0,0.0,64.0
2203,54.0,60.0,60.0,0.0,64.0
2204,83.0,0.0,120.0,0.0,64.0
2205,55.0,0.0,60.0,0.0,64.0
2206,81.0,120.0,120.0,0.0,64.0
2207,69.0,0.0,240.0,0.0,64.0
2208,78.0,120.0,240.0,0.0,64.0
2209,54.0,60.0,360.0,0.0,64.0
2210,76.0,0.0,120.0,0.0,64.0
2211,66.0,120.0,240.0,0.0,64.0
2212,69.0,0.0,240.0,0.0,64.0
2213,81.0,0.0,120.0,0.0,64.0
2214,75.0,0.0,240.0,0.0,64.0
2215,84.0,0.0,120.0,0.0,64.0
2216,55.0,60.0,60.0,0.0,64.0
2217,57.0,0.0,60.0,0.0,64.0
2218,71.0,0.0,240.0,0.0,64.0
2219,76.0,0.0,240.0,0.0,64.0
2220,64.0,0.0,240.0,0.0,64.0
2221,83.0,0.0,480.0,0.0,64.0
2222,55.0,120.0,120.0,0.0,64.0
2223,54.0,120.0,120.0,0.0,64.0
2224,76.0,0.0,240.0,0.0,64.0
2225,79.0,0.0,240.0,0.0,64.0
2226,52.0,120.0,120.0,0.0,64.0
2227,71.0,120.0,240.0,0.0,64.0
2228,51.0,0.0,120.0,0.0,64.0
2229,67.0,0.0,480.0,0.0,64.0
2230,52.0,120.0,120.0,0.0,64.0
2231,59.0,120.0,120.0,0.0,64.0
2232,76.0,0.0,240.0,0.0,64.0
2233,79.0,0.0,240.0,0.0,64.0
2234,55.0,120.0,120.0,0.0,64.0
2235,52.0,0.0,120.0,0.0,64.0
2236,71.0,120.0,15.0,0.0,64.0
2237,51.0,120.0,120.0,0.0,64.0
2238,71.0,0.0,480.0,0.0,64.0
2239,66.0,0.0,480.0,0.0,64.0
2240,47.0,120.0,120.0,0.0,64.0
2241,83.0,0.0,480.0,0.0,64.0
2242,51.0,120.0,120.0,0.0,64.0
2243,54.0,0.0,120.0,0.0,64.0
2244,71.0,120.0,15.0,0.0,64.0
2245,72.0,0.0,240.0,0.0,64.0
2246,52.0,120.0,120.0,0.0,64.0
2247,51.0,0.0,120.0,0.0,64.0
2248,67.0,120.0,15.0,0.0,64.0
2249,52.0,120.0,120.0,0.0,64.0
2250,69.0,0.0,240.0,0.0,64.0
2251,72.0,0.0,240.0,0.0,64.0
2252,81.0,120.0,360.0,0.0,64.0
2253,55.0,0.0,120.0,0.0,64.0
2254,63.0,0.0,480.0,0.0,64.0
2255,54.0,0.0,120.0,0.0,64.0
2256,69.0,120.0,240.0,0.0,64.0
2257,75.0,0.0,240.0,0.0,64.0
2258,79.0,0.0,120.0,0.0,64.0
2259,52.0,0.0,120.0,0.0,64.0
2260,71.0,0.0,15.0,0.0,64.0
2261,51.0,120.0,120.0,0.0,64.0
2262,78.0,0.0,120.0,0.0,64.0
2263,76.0,0.0,120.0,0.0,64.0
2264,49.0,0.0,120.0,0.0,64.0
2265,75.0,120.0,120.0,0.0,64.0
2266,47.0,0.0,120.0,0.0,64.0
2267,78.0,120.0,15.0,0.0,64.0
2268,71.0,0.0,15.0,0.0,64.0
2269,69.0,0.0,15.0,0.0,64.0
2270,73.0,0.0,120.0,0.0,64.0
2271,54.0,120.0,120.0,0.0,64.0
2272,71.0,0.0,15.0,0.0,64.0
2273,55.0,120.0,120.0,0.0,64.0
2274,71.0,0.0,240.0,0.0,64.0
2275,76.0,0.0,240.0,0.0,64.0
2276,51.0,0.0,120.0,0.0,64.0
2277,52.0,120.0,120.0,0.0,64.0
2278,73.0,120.0,480.0,0.0,64.0
2279,67.0,0.0,15.0,0.0,64.0
2280,70.0,0.0,480.0,0.0,64.0
2281,51.0,120.0,120.0,0.0,64.0
2282,52.0,120.0,120.0,0.0,64.0
2283,79.0,0.0,480.0,0.0,64.0
2284,60.0,0.0,15.0,0.0,64.0
2285,67.0,0.0,240.0,0.0,64.0
2286,76.0,0.0,240.0,0.0,64.0
2287,69.0,0.0,240.0,0.0,64.0
2288,59.0,120.0,120.0,0.0,64.0
2289,66.0,0.0,240.0,0.0,64.0
2290,69.0,0.0,240.0,0.0,64.0
2291,76.0,0.0,240.0,0.0,64.0
2292,60.0,120.0,120.0,0.0,64.0
2293,78.0,120.0,240.0,0.0,64.0
2294,71.0,0.0,480.0,0.0,64.0
2295,68.0,0.0,480.0,0.0,64.0
2296,50.0,0.0,15.0,0.0,64.0
2297,49.0,120.0,120.0,0.0,64.0
2298,77.0,120.0,480.0,0.0,64.0
2299,50.0,120.0,120.0,0.0,64.0
2300,74.0,0.0,240.0,0.0,64.0
2301,65.0,0.0,15.0,0.0,64.0
2302,67.0,0.0,240.0,0.0,64.0
2303,59.0,120.0,15.0,0.0,64.0
2304,57.0,0.0,120.0,0.0,64.0
2305,59.0,120.0,120.0,0.0,64.0
2306,64.0,0.0,240.0,0.0,64.0
2307,71.0,0.0,240.0,0.0,64.0
2308,74.0,0.0,240.0,0.0,64.0
2309,76.0,0.0,15.0,0.0,64.0
2310,48.0,120.0,15.0,0.0,64.0
2311,71.0,0.0,240.0,0.0,64.0
2312,47.0,0.0,120.0,0.0,64.0
2313,48.0,120.0,120.0,0.0,64.0
2314,76.0,120.0,15.0,0.0,64.0
2315,64.0,0.0,15.0,0.0,64.0
2316,66.0,120.0,240.0,0.0,64.0
2317,69.0,0.0,240.0,0.0,64.0
2318,57.0,0.0,120.0,0.0,64.0
2319,76.0,0.0,15.0,0.0,64.0
2320,57.0,120.0,120.0,0.0,64.0
2321,84.0,120.0,600.0,0.0,64.0
2322,65.0,0.0,240.0,0.0,64.0
2323,55.0,0.0,120.0,0.0,64.0
2324,76.0,0.0,15.0,0.0,64.0
2325,72.0,0.0,15.0,0.0,64.0
2326,69.0,0.0,240.0,0.0,64.0
2327,64.0,0.0,240.0,0.0,64.0
2328,57.0,120.0,120.0,0.0,64.0
2329,48.0,120.0,120.0,0.0,64.0
2330,63.0,0.0,240.0,0.0,64.0
2331,69.0,0.0,240.0,0.0,64.0
2332,47.0,0.0,240.0,0.0,64.0
2333,81.0,0.0,120.0,0.0,64.0
2334,88.0,0.0,120.0,0.0,64.0
2335,57.0,0.0,240.0,0.0,64.0
2336,66.0,120.0,15.0,0.0,64.0
2337,75.0,0.0,15.0,0.0,64.0
2338,61.0,120.0,120.0,0.0,64.0
2339,87.0,0.0,120.0,0.0,64.0
2340,59.0,0.0,120.0,0.0,64.0
2341,55.0,0.0,240.0,0.0,64.0
2342,76.0,0.0,240.0,0.0,64.0
2343,71.0,240.0,15.0,0.0,64.0
2344,67.0,0.0,240.0,0.0,64.0
2345,64.0,0.0,240.0,0.0,64.0
2346,83.0,0.0,120.0,0.0,64.0
2347,75.0,120.0,120.0,0.0,64.0
2348,71.0,120.0,15.0,0.0,64.0
2349,69.0,0.0,240.0,0.0,64.0
2350,54.0,0.0,240.0,0.0,64.0
2351,52.0,0.0,120.0,0.0,64.0
2352,69.0,0.0,15.0,0.0,64.0
2353,76.0,60.0,15.0,0.0,64.0
2354,71.0,0.0,15.0,0.0,64.0
2355,67.0,60.0,60.0,0.0,64.0
2356,69.0,60.0,60.0,0.0,64.0
2357,59.0,0.0,120.0,0.0,64.0
2358,67.0,0.0,60.0,0.0,64.0
2359,64.0,60.0,360.0,0.0,64.0
2360,71.0,0.0,240.0,0.0,64.0
2361,76.0,0.0,240.0,0.0,64.0
2362,69.0,60.0,60.0,0.0,64.0
2363,79.0,60.0,240.0,0.0,64.0
2364,67.0,60.0,60.0,0.0,64.0
2365,69.0,60.0,60.0,0.0,64.0
2366,67.0,0.0,15.0,0.0,64.0
2367,81.0,60.0,240.0,0.0,64.0
2368,72.0,0.0,240.0,0.0,64.0
2369,66.0,0.0,60.0,0.0,64.0
2370,67.0,60.0,60.0,0.0,64.0
2371,60.0,0.0,120.0,0.0,64.0
2372,66.0,0.0,60.0,0.0,64.0
2373,78.0,0.0,15.0,0.0,64.0
2374,62.0,60.0,360.0,0.0,64.0
2375,67.0,60.0,60.0,0.0,64.0
2376,83.0,0.0,240.0,0.0,64.0
2377,66.0,60.0,60.0,0.0,64.0
2378,67.0,60.0,60.0,0.0,64.0
2379,66.0,0.0,60.0,0.0,64.0
2380,79.0,0.0,240.0,0.0,64.0
2381,71.0,0.0,15.0,0.0,64.0
2382,64.0,0.0,480.0,0.0,64.0
2383,78.0,60.0,60.0,0.0,64.0
2384,76.0,0.0,60.0,0.0,64.0
2385,59.0,0.0,120.0,0.0,64.0
2386,78.0,60.0,60.0,0.0,64.0
2387,76.0,0.0,60.0,0.0,64.0
2388,81.0,0.0,240.0,0.0,64.0
2389,69.0,0.0,240.0,0.0,64.0
2390,76.0,60.0,15.0,0.0,64.0
2391,78.0,60.0,60.0,0.0,64.0
2392,60.0,60.0,360.0,0.0,64.0
2393,76.0,60.0,60.0,0.0,64.0
2394,74.0,60.0,60.0,0.0,64.0
2395,72.0,0.0,60.0,0.0,64.0
2396,76.0,60.0,60.0,0.0,64.0
2397,78.0,60.0,240.0,0.0,64.0
2398,81.0,0.0,240.0,0.0,64.0
2399,74.0,0.0,60.0,0.0,64.0
2400,76.0,60.0,60.0,0.0,64.0
2401,57.0,0.0,120.0,0.0,64.0
2402,74.0,0.0,60.0,0.0,64.0
2403,76.0,60.0,60.0,0.0,64.0
2404,80.0,0.0,240.0,0.0,64.0
2405,68.0,0.0,240.0,0.0,64.0
2406,59.0,60.0,120.0,0.0,64.0
2407,74.0,0.0,60.0,0.0,64.0
2408,72.0,60.0,60.0,0.0,64.0
2409,64.0,0.0,120.0,0.0,64.0
2410,71.0,0.0,60.0,0.0,64.0
2411,57.0,0.0,120.0,0.0,64.0
2412,69.0,60.0,360.0,0.0,64.0
2413,81.0,0.0,480.0,0.0,64.0
2414,72.0,60.0,60.0,0.0,64.0
2415,74.0,120.0,60.0,0.0,64.0
2416,56.0,120.0,120.0,0.0,64.0
2417,76.0,0.0,360.0,0.0,64.0
2418,57.0,120.0,360.0,0.0,64.0
2419,71.0,60.0,60.0,0.0,64.0
2420,72.0,0.0,60.0,0.0,64.0
2421,71.0,60.0,360.0,0.0,64.0
2422,74.0,0.0,240.0,0.0,64.0
2423,78.0,0.0,240.0,0.0,64.0
2424,83.0,0.0,240.0,0.0,64.0
2425,66.0,120.0,120.0,0.0,64.0
2426,55.0,0.0,360.0,0.0,64.0
2427,72.0,60.0,60.0,0.0,64.0
2428,74.0,0.0,60.0,0.0,64.0
2429,83.0,0.0,15.0,0.0,64.0
2430,76.0,0.0,15.0,0.0,64.0
2431,73.0,0.0,240.0,0.0,64.0
2432,72.0,60.0,60.0,0.0,64.0
2433,71.0,60.0,60.0,0.0,64.0
2434,81.0,0.0,60.0,0.0,64.0
2435,64.0,60.0,120.0,0.0,64.0
2436,83.0,60.0,60.0,0.0,64.0
2437,69.0,0.0,360.0,0.0,64.0
2438,81.0,0.0,15.0,0.0,64.0
2439,83.0,60.0,60.0,0.0,64.0
2440,54.0,60.0,360.0,0.0,64.0
2441,74.0,0.0,240.0,0.0,64.0
2442,81.0,60.0,60.0,0.0,64.0
2443,79.0,60.0,60.0,0.0,64.0
2444,78.0,0.0,60.0,0.0,64.0
2445,71.0,0.0,240.0,0.0,64.0
2446,74.0,0.0,240.0,0.0,64.0
2447,81.0,60.0,60.0,0.0,64.0
2448,79.0,0.0,60.0,0.0,64.0
2449,50.0,60.0,120.0,0.0,64.0
2450,81.0,60.0,60.0,0.0,64.0
2451,79.0,0.0,60.0,0.0,64.0
2452,52.0,60.0,120.0,0.0,64.0
2453,69.0,0.0,240.0,0.0,64.0
2454,73.0,0.0,240.0,0.0,64.0
2455,72.0,0.0,240.0,0.0,64.0
2456,81.0,60.0,60.0,0.0,64.0
2457,79.0,0.0,60.0,0.0,64.0
2458,78.0,60.0,60.0,0.0,64.0
2459,57.0,0.0,120.0,0.0,64.0
2460,76.0,0.0,60.0,0.0,64.0
2461,50.0,120.0,120.0,0.0,64.0
2462,78.0,60.0,60.0,0.0,64.0
2463,69.0,0.0,480.0,0.0,64.0
2464,74.0,60.0,360.0,0.0,64.0
2465,79.0,0.0,60.0,0.0,64.0
2466,81.0,120.0,360.0,0.0,64.0
2467,57.0,120.0,120.0,0.0,64.0
2468,62.0,120.0,360.0,0.0,64.0
2469,76.0,60.0,60.0,0.0,64.0
2470,78.0,0.0,60.0,0.0,64.0
2471,71.0,120.0,240.0,0.0,64.0
2472,59.0,0.0,120.0,0.0,64.0
2473,76.0,0.0,15.0,0.0,64.0
2474,79.0,0.0,15.0,0.0,64.0
2475,60.0,0.0,360.0,0.0,64.0
2476,69.0,0.0,240.0,0.0,64.0
2477,81.0,0.0,240.0,0.0,64.0
2478,78.0,60.0,60.0,0.0,64.0
2479,79.0,0.0,60.0,0.0,64.0
2480,88.0,60.0,60.0,0.0,64.0
2481,69.0,0.0,240.0,0.0,64.0
2482,78.0,0.0,60.0,0.0,64.0
2483,76.0,0.0,60.0,0.0,64.0
2484,86.0,60.0,60.0,0.0,64.0
2485,74.0,0.0,120.0,0.0,64.0
2486,57.0,0.0,120.0,0.0,64.0
2487,88.0,60.0,60.0,0.0,64.0
2488,86.0,60.0,60.0,0.0,64.0
2489,59.0,60.0,360.0,0.0,64.0
2490,74.0,0.0,240.0,0.0,64.0
2491,79.0,0.0,240.0,0.0,64.0
2492,88.0,60.0,60.0,0.0,64.0
2493,67.0,0.0,240.0,0.0,64.0
2494,86.0,60.0,60.0,0.0,64.0
2495,84.0,60.0,60.0,0.0,64.0
2496,83.0,0.0,60.0,0.0,64.0
2497,72.0,0.0,240.0,0.0,64.0
2498,76.0,0.0,240.0,0.0,64.0
2499,79.0,0.0,240.0,0.0,64.0
2500,86.0,60.0,60.0,0.0,64.0
2501,84.0,0.0,60.0,0.0,64.0
2502,86.0,60.0,60.0,0.0,64.0
2503,55.0,0.0,120.0,0.0,64.0
2504,84.0,60.0,60.0,0.0,64.0
2505,57.0,0.0,120.0,0.0,64.0
2506,72.0,0.0,240.0,0.0,64.0
2507,86.0,60.0,60.0,0.0,64.0
2508,78.0,0.0,240.0,0.0,64.0
2509,74.0,0.0,240.0,0.0,64.0
2510,84.0,60.0,60.0,0.0,64.0
2511,83.0,60.0,60.0,0.0,64.0
2512,62.0,60.0,120.0,0.0,64.0
2513,81.0,0.0,60.0,0.0,64.0
2514,71.0,0.0,480.0,0.0,64.0
2515,74.0,0.0,480.0,0.0,64.0
2516,83.0,60.0,60.0,0.0,64.0
2517,55.0,0.0,120.0,0.0,64.0
2518,79.0,60.0,360.0,0.0,64.0
2519,84.0,120.0,60.0,0.0,64.0
2520,54.0,120.0,120.0,0.0,64.0
2521,86.0,0.0,360.0,0.0,64.0
2522,55.0,120.0,360.0,0.0,64.0
2523,81.0,60.0,60.0,0.0,64.0
2524,83.0,120.0,60.0,0.0,64.0
2525,72.0,0.0,240.0,0.0,64.0
2526,76.0,0.0,240.0,0.0,64.0
2527,64.0,120.0,120.0,0.0,64.0
2528,81.0,0.0,15.0,0.0,64.0
2529,72.0,0.0,240.0,0.0,64.0
2530,53.0,0.0,360.0,0.0,64.0
2531,86.0,0.0,240.0,0.0,64.0
2532,83.0,60.0,60.0,0.0,64.0
2533,84.0,0.0,60.0,0.0,64.0
2534,93.0,60.0,60.0,0.0,64.0
2535,83.0,0.0,60.0,0.0,64.0
2536,74.0,60.0,15.0,0.0,64.0
2537,71.0,0.0,240.0,0.0,64.0
2538,81.0,60.0,60.0,0.0,64.0
2539,91.0,0.0,60.0,0.0,64.0
2540,62.0,60.0,120.0,0.0,64.0
2541,79.0,0.0,120.0,0.0,64.0
2542,93.0,60.0,60.0,0.0,64.0
2543,91.0,0.0,60.0,0.0,64.0
2544,93.0,60.0,60.0,0.0,64.0
2545,76.0,0.0,240.0,0.0,64.0
2546,79.0,0.0,240.0,0.0,64.0
2547,52.0,0.0,360.0,0.0,64.0
2548,91.0,60.0,60.0,0.0,64.0
2549,89.0,60.0,60.0,0.0,64.0
2550,88.0,0.0,60.0,0.0,64.0
2551,91.0,60.0,60.0,0.0,64.0
2552,72.0,60.0,15.0,0.0,64.0
2553,69.0,0.0,240.0,0.0,64.0
2554,89.0,60.0,60.0,0.0,64.0
2555,91.0,60.0,60.0,0.0,64.0
2556,48.0,0.0,120.0,0.0,64.0
2557,89.0,0.0,60.0,0.0,64.0
2558,50.0,60.0,120.0,0.0,64.0
2559,67.0,0.0,240.0,0.0,64.0
2560,71.0,0.0,240.0,0.0,64.0
2561,77.0,60.0,15.0,0.0,64.0
2562,91.0,60.0,60.0,0.0,64.0
2563,89.0,0.0,60.0,0.0,64.0
2564,88.0,60.0,60.0,0.0,64.0
2565,55.0,120.0,120.0,0.0,64.0
2566,86.0,0.0,60.0,0.0,64.0
2567,72.0,120.0,480.0,0.0,64.0
2568,76.0,0.0,480.0,0.0,64.0
2569,88.0,0.0,120.0,0.0,64.0
2570,67.0,0.0,480.0,0.0,64.0
2571,48.0,120.0,120.0,0.0,64.0
2572,84.0,0.0,120.0,0.0,64.0
2573,55.0,120.0,120.0,0.0,64.0
2574,78.0,120.0,120.0,0.0,64.0
2575,60.0,120.0,480.0,0.0,64.0
2576,79.0,0.0,120.0,0.0,64.0
2577,74.0,0.0,240.0,0.0,64.0
2578,69.0,0.0,240.0,0.0,64.0
2579,77.0,0.0,240.0,0.0,64.0
2580,86.0,120.0,120.0,0.0,64.0
2581,83.0,0.0,120.0,0.0,64.0
2582,74.0,0.0,240.0,0.0,64.0
2583,67.0,0.0,240.0,0.0,64.0
2584,59.0,60.0,240.0,0.0,64.0
2585,76.0,120.0,120.0,0.0,64.0
2586,77.0,0.0,120.0,0.0,64.0
2587,74.0,0.0,240.0,0.0,64.0
2588,81.0,60.0,60.0,0.0,64.0
2589,67.0,60.0,240.0,0.0,64.0
2590,76.0,0.0,120.0,0.0,64.0
2591,57.0,0.0,240.0,0.0,64.0
2592,79.0,60.0,60.0,0.0,64.0
2593,81.0,60.0,60.0,0.0,64.0
2594,84.0,0.0,480.0,0.0,64.0
2595,79.0,0.0,15.0,0.0,64.0
2596,72.0,0.0,240.0,0.0,64.0
2597,60.0,60.0,240.0,0.0,64.0
2598,81.0,60.0,60.0,0.0,64.0
2599,67.0,0.0,240.0,0.0,64.0
2600,79.0,60.0,60.0,0.0,64.0
2601,77.0,60.0,60.0,0.0,64.0
2602,76.0,0.0,60.0,0.0,64.0
2603,79.0,0.0,15.0,0.0,64.0
2604,62.0,60.0,240.0,0.0,64.0
2605,72.0,0.0,240.0,0.0,64.0
2606,69.0,0.0,240.0,0.0,64.0
2607,77.0,60.0,60.0,0.0,64.0
2608,79.0,60.0,60.0,0.0,64.0
2609,77.0,0.0,60.0,0.0,64.0
2610,71.0,0.0,240.0,0.0,64.0
2611,79.0,60.0,60.0,0.0,64.0
2612,77.0,0.0,15.0,0.0,64.0
2613,83.0,0.0,240.0,0.0,64.0
2614,55.0,60.0,240.0,0.0,64.0
2615,77.0,60.0,60.0,0.0,64.0
2616,76.0,60.0,60.0,0.0,64.0
2617,74.0,0.0,60.0,0.0,64.0
2618,67.0,0.0,15.0,0.0,64.0
2619,76.0,0.0,120.0,0.0,64.0
2620,86.0,60.0,60.0,0.0,64.0
2621,48.0,60.0,120.0,0.0,64.0
2622,84.0,0.0,60.0,0.0,64.0
2623,72.0,0.0,120.0,0.0,64.0
2624,52.0,60.0,120.0,0.0,64.0
2625,86.0,60.0,60.0,0.0,64.0
2626,84.0,0.0,60.0,0.0,64.0
2627,86.0,60.0,60.0,0.0,64.0
2628,66.0,0.0,120.0,0.0,64.0
2629,57.0,0.0,360.0,0.0,64.0
2630,84.0,60.0,60.0,0.0,64.0
2631,83.0,60.0,60.0,0.0,64.0
2632,67.0,0.0,120.0,0.0,64.0
2633,81.0,60.0,60.0,0.0,64.0
2634,84.0,60.0,60.0,0.0,64.0
2635,66.0,0.0,240.0,0.0,64.0
2636,74.0,0.0,120.0,0.0,64.0
2637,83.0,60.0,60.0,0.0,64.0
2638,56.0,0.0,120.0,0.0,64.0
2639,84.0,60.0,60.0,0.0,64.0
2640,83.0,0.0,60.0,0.0,64.0
2641,76.0,0.0,240.0,0.0,64.0
2642,71.0,0.0,15.0,0.0,64.0
2643,64.0,60.0,120.0,0.0,64.0
2644,68.0,0.0,240.0,0.0,64.0
2645,62.0,0.0,240.0,0.0,64.0
2646,84.0,60.0,60.0,0.0,64.0
2647,83.0,0.0,60.0,0.0,64.0
2648,81.0,60.0,60.0,0.0,64.0
2649,65.0,0.0,120.0,0.0,64.0
2650,80.0,120.0,60.0,0.0,64.0
2651,60.0,0.0,240.0,0.0,64.0
2652,64.0,120.0,600.0,0.0,64.0
2653,81.0,120.0,120.0,0.0,64.0
2654,76.0,120.0,120.0,0.0,64.0
2655,62.0,0.0,240.0,0.0,64.0
2656,71.0,120.0,120.0,0.0,64.0
2657,72.0,0.0,120.0,0.0,64.0
2658,69.0,120.0,15.0,0.0,64.0
2659,60.0,120.0,240.0,0.0,64.0
2660,76.0,0.0,480.0,0.0,64.0
2661,81.0,0.0,480.0,0.0,64.0
2662,69.0,0.0,120.0,0.0,64.0
2663,57.0,0.0,240.0,0.0,64.0
2664,74.0,120.0,120.0,0.0,64.0
2665,72.0,120.0,120.0,0.0,64.0
2666,69.0,0.0,15.0,0.0,64.0
2667,53.0,0.0,240.0,0.0,64.0
2668,81.0,120.0,120.0,0.0,64.0
2669,77.0,120.0,120.0,0.0,64.0
2670,62.0,0.0,240.0,0.0,64.0
2671,73.0,120.0,120.0,0.0,64.0
2672,74.0,0.0,120.0,0.0,64.0
2673,74.0,120.0,15.0,0.0,64.0
2674,58.0,0.0,240.0,0.0,64.0
2675,67.0,120.0,120.0,0.0,64.0
2676,55.0,0.0,240.0,0.0,64.0
2677,70.0,120.0,120.0,0.0,64.0
2678,69.0,0.0,120.0,0.0,64.0
2679,79.0,0.0,15.0,0.0,64.0
2680,76.0,0.0,960.0,0.0,64.0
2681,70.0,120.0,15.0,0.0,64.0
2682,70.0,0.0,120.0,0.0,64.0
2683,69.0,0.0,120.0,0.0,64.0
2684,78.0,120.0,120.0,0.0,64.0
2685,49.0,0.0,15.0,0.0,64.0
2686,70.0,0.0,120.0,0.0,64.0
2687,79.0,120.0,15.0,0.0,64.0
2688,88.0,0.0,15.0,0.0,64.0
2689,79.0,0.0,120.0,0.0,64.0
2690,77.0,120.0,120.0,0.0,64.0
2691,86.0,0.0,120.0,0.0,64.0
2692,49.0,0.0,15.0,0.0,64.0
2693,79.0,0.0,120.0,0.0,64.0
2694,88.0,120.0,120.0,0.0,64.0
2695,70.0,0.0,120.0,0.0,64.0
2696,79.0,0.0,120.0,0.0,64.0
2697,50.0,0.0,240.0,0.0,64.0
2698,74.0,0.0,960.0,0.0,64.0
2699,69.0,0.0,120.0,0.0,64.0
2700,77.0,120.0,120.0,0.0,64.0
2701,76.0,120.0,120.0,0.0,64.0
2702,67.0,0.0,120.0,0.0,64.0
2703,69.0,0.0,120.0,0.0,64.0
2704,77.0,120.0,15.0,0.0,64.0
2705,86.0,0.0,120.0,0.0,64.0
2706,50.0,0.0,15.0,0.0,64.0
2707,77.0,0.0,120.0,0.0,64.0
2708,86.0,120.0,120.0,0.0,64.0
2709,76.0,0.0,120.0,0.0,64.0
2710,85.0,0.0,120.0,0.0,64.0
2711,77.0,120.0,120.0,0.0,64.0
2712,86.0,0.0,120.0,0.0,64.0
2713,50.0,120.0,15.0,0.0,64.0
2714,69.0,0.0,120.0,0.0,64.0
2715,77.0,0.0,120.0,0.0,64.0
2716,76.0,120.0,120.0,0.0,64.0
2717,73.0,0.0,960.0,0.0,64.0
2718,45.0,120.0,240.0,0.0,64.0
2719,67.0,0.0,120.0,0.0,64.0
2720,69.0,120.0,15.0,0.0,64.0
2721,79.0,0.0,960.0,0.0,64.0
2722,74.0,0.0,120.0,0.0,64.0
2723,66.0,0.0,120.0,0.0,64.0
2724,76.0,0.0,120.0,0.0,64.0
2725,67.0,120.0,120.0,0.0,64.0
2726,45.0,120.0,240.0,0.0,64.0
2727,85.0,0.0,15.0,0.0,64.0
2728,76.0,0.0,15.0,0.0,64.0
2729,83.0,0.0,120.0,0.0,64.0
2730,74.0,120.0,120.0,0.0,64.0
2731,85.0,0.0,120.0,0.0,64.0
2732,45.0,0.0,15.0,0.0,64.0
2733,76.0,120.0,15.0,0.0,64.0
2734,67.0,120.0,120.0,0.0,64.0
2735,74.0,0.0,120.0,0.0,64.0
2736,50.0,120.0,120.0,0.0,64.0
2737,65.0,0.0,120.0,0.0,64.0
2738,73.0,0.0,120.0,0.0,64.0
2739,64.0,0.0,120.0,0.0,64.0
2740,52.0,120.0,120.0,0.0,64.0
2741,74.0,0.0,120.0,0.0,64.0
2742,53.0,120.0,120.0,0.0,64.0
2743,62.0,0.0,240.0,0.0,64.0
2744,55.0,0.0,120.0,0.0,64.0
2745,76.0,120.0,120.0,0.0,64.0
2746,57.0,120.0,120.0,0.0,64.0
2747,77.0,0.0,120.0,0.0,64.0
2748,79.0,0.0,120.0,0.0,64.0
2749,59.0,0.0,120.0,0.0,64.0
2750,69.0,0.0,15.0,0.0,64.0
2751,74.0,120.0,15.0,0.0,64.0
2752,81.0,120.0,120.0,0.0,64.0
2753,60.0,120.0,240.0,0.0,64.0
2754,78.0,0.0,120.0,0.0,64.0
2755,79.0,0.0,120.0,0.0,64.0
2756,83.0,0.0,120.0,0.0,64.0
2757,72.0,0.0,960.0,0.0,64.0
2758,81.0,120.0,120.0,0.0,64.0
2759,84.0,0.0,120.0,0.0,64.0
2760,83.0,120.0,120.0,0.0,64.0
2761,79.0,0.0,120.0,0.0,64.0
2762,51.0,0.0,15.0,0.0,64.0
2763,84.0,0.0,120.0,0.0,64.0
2764,81.0,120.0,15.0,0.0,64.0
2765,78.0,120.0,15.0,0.0,64.0
2766,51.0,0.0,240.0,0.0,64.0
2767,69.0,120.0,120.0,0.0,64.0
2768,76.0,0.0,120.0,0.0,64.0
2769,67.0,120.0,120.0,0.0,64.0
2770,78.0,0.0,120.0,0.0,64.0
2771,69.0,120.0,120.0,0.0,64.0
2772,51.0,120.0,240.0,0.0,64.0
2773,84.0,0.0,120.0,0.0,64.0
2774,81.0,0.0,120.0,0.0,64.0
2775,83.0,0.0,120.0,0.0,64.0
2776,71.0,0.0,960.0,0.0,64.0
2777,79.0,120.0,120.0,0.0,64.0
2778,78.0,0.0,120.0,0.0,64.0
2779,81.0,120.0,120.0,0.0,64.0
2780,52.0,0.0,15.0,0.0,64.0
2781,83.0,0.0,120.0,0.0,64.0
2782,79.0,120.0,120.0,0.0,64.0
2783,79.0,0.0,120.0,0.0,64.0
2784,76.0,0.0,15.0,0.0,64.0
2785,52.0,0.0,240.0,0.0,64.0
2786,67.0,120.0,120.0,0.0,64.0
2787,75.0,120.0,120.0,0.0,64.0
2788,66.0,0.0,120.0,0.0,64.0
2789,76.0,0.0,120.0,0.0,64.0
2790,67.0,120.0,120.0,0.0,64.0
2791,52.0,0.0,240.0,0.0,64.0
2792,83.0,0.0,120.0,0.0,64.0
2793,79.0,0.0,120.0,0.0,64.0
2794,78.0,0.0,120.0,0.0,64.0
2795,69.0,0.0,960.0,0.0,64.0
2796,71.0,0.0,960.0,0.0,64.0
2797,47.0,0.0,240.0,0.0,64.0
2798,81.0,120.0,120.0,0.0,64.0
2799,76.0,120.0,120.0,0.0,64.0
2800,79.0,0.0,120.0,0.0,64.0
2801,81.0,120.0,120.0,0.0,64.0
2802,47.0,120.0,240.0,0.0,64.0
2803,78.0,0.0,15.0,0.0,64.0
2804,75.0,0.0,15.0,0.0,64.0
2805,66.0,120.0,120.0,0.0,64.0
2806,47.0,0.0,240.0,0.0,64.0
2807,73.0,0.0,120.0,0.0,64.0
2808,64.0,120.0,120.0,0.0,64.0
2809,75.0,120.0,120.0,0.0,64.0
2810,66.0,0.0,120.0,0.0,64.0
2811,47.0,0.0,240.0,0.0,64.0
2812,78.0,0.0,120.0,0.0,64.0
2813,81.0,120.0,120.0,0.0,64.0
2814,67.0,0.0,240.0,0.0,64.0
2815,52.0,0.0,120.0,0.0,64.0
2816,71.0,0.0,240.0,0.0,64.0
2817,76.0,0.0,240.0,0.0,64.0
2818,79.0,120.0,120.0,0.0,64.0
2819,78.0,120.0,120.0,0.0,64.0
2820,51.0,0.0,120.0,0.0,64.0
2821,71.0,0.0,240.0,0.0,64.0
2822,52.0,120.0,120.0,0.0,64.0
2823,76.0,0.0,240.0,0.0,64.0
2824,79.0,0.0,240.0,0.0,64.0
2825,60.0,0.0,15.0,0.0,64.0
2826,76.0,120.0,15.0,0.0,64.0
2827,79.0,0.0,15.0,0.0,64.0
2828,59.0,0.0,120.0,0.0,64.0
2829,69.0,0.0,15.0,0.0,64.0
2830,91.0,0.0,240.0,0.0,64.0
2831,60.0,120.0,120.0,0.0,64.0
2832,79.0,0.0,240.0,0.0,64.0
2833,72.0,120.0,240.0,0.0,64.0
2834,52.0,0.0,120.0,0.0,64.0
2835,50.0,120.0,120.0,0.0,64.0
2836,90.0,0.0,120.0,0.0,64.0
2837,69.0,0.0,240.0,0.0,64.0
2838,72.0,0.0,240.0,0.0,64.0
2839,49.0,0.0,120.0,0.0,64.0
2840,88.0,0.0,120.0,0.0,64.0
2841,50.0,120.0,120.0,0.0,64.0
2842,78.0,0.0,15.0,0.0,64.0
2843,71.0,0.0,240.0,0.0,64.0
2844,90.0,0.0,240.0,0.0,64.0
2845,59.0,0.0,120.0,0.0,64.0
2846,67.0,0.0,240.0,0.0,64.0
2847,59.0,120.0,120.0,0.0,64.0
2848,74.0,0.0,240.0,0.0,64.0
2849,57.0,0.0,120.0,0.0,64.0
2850,67.0,0.0,15.0,0.0,64.0
2851,83.0,0.0,480.0,0.0,64.0
2852,78.0,120.0,15.0,0.0,64.0
2853,71.0,0.0,240.0,0.0,64.0
2854,59.0,120.0,120.0,0.0,64.0
2855,90.0,0.0,240.0,0.0,64.0
2856,50.0,0.0,120.0,0.0,64.0
2857,76.0,0.0,240.0,0.0,64.0
2858,67.0,120.0,15.0,0.0,64.0
2859,69.0,0.0,240.0,0.0,64.0
2860,88.0,0.0,120.0,0.0,64.0
2861,48.0,120.0,120.0,0.0,64.0
2862,47.0,0.0,120.0,0.0,64.0
2863,87.0,120.0,120.0,0.0,64.0
2864,88.0,0.0,240.0,0.0,64.0
2865,81.0,0.0,240.0,0.0,64.0
2866,69.0,120.0,240.0,0.0,64.0
2867,76.0,0.0,240.0,0.0,64.0
2868,48.0,120.0,120.0,0.0,64.0
2869,57.0,0.0,15.0,0.0,64.0
2870,72.0,0.0,240.0,0.0,64.0
2871,66.0,0.0,240.0,0.0,64.0
2872,55.0,0.0,120.0,0.0,64.0
2873,57.0,120.0,120.0,0.0,64.0
2874,76.0,0.0,15.0,0.0,64.0
2875,69.0,0.0,240.0,0.0,64.0
2876,48.0,0.0,120.0,0.0,64.0
2877,47.0,0.0,240.0,0.0,64.0
2878,88.0,0.0,15.0,0.0,64.0
2879,66.0,0.0,15.0,0.0,64.0
2880,69.0,60.0,120.0,0.0,64.0
2881,75.0,0.0,480.0,0.0,64.0
2882,87.0,0.0,60.0,0.0,64.0
2883,88.0,60.0,60.0,0.0,64.0
2884,72.0,0.0,120.0,0.0,64.0
2885,87.0,60.0,60.0,0.0,64.0
2886,79.0,60.0,120.0,0.0,64.0
2887,59.0,0.0,240.0,0.0,64.0
2888,88.0,60.0,60.0,0.0,64.0
2889,87.0,0.0,60.0,0.0,64.0
2890,88.0,60.0,60.0,0.0,64.0
2891,78.0,0.0,120.0,0.0,64.0
2892,87.0,0.0,60.0,0.0,64.0
2893,66.0,60.0,15.0,0.0,64.0
2894,88.0,60.0,60.0,0.0,64.0
2895,87.0,0.0,60.0,0.0,64.0
2896,88.0,60.0,60.0,0.0,64.0
2897,87.0,0.0,60.0,0.0,64.0
2898,69.0,60.0,15.0,0.0,64.0
2899,66.0,0.0,240.0,0.0,64.0
2900,59.0,0.0,240.0,0.0,64.0
2901,75.0,0.0,240.0,0.0,64.0
2902,88.0,60.0,60.0,0.0,64.0
2903,72.0,0.0,120.0,0.0,64.0
2904,87.0,60.0,60.0,0.0,64.0
2905,88.0,60.0,60.0,0.0,64.0
2906,71.0,0.0,120.0,0.0,64.0
2907,87.0,0.0,60.0,0.0,64.0
2908,48.0,0.0,240.0,0.0,64.0
2909,90.0,60.0,60.0,0.0,64.0
2910,71.0,60.0,15.0,0.0,64.0
2911,67.0,60.0,120.0,0.0,64.0
2912,88.0,0.0,60.0,0.0,64.0
2913,90.0,60.0,60.0,0.0,64.0
2914,71.0,0.0,120.0,0.0,64.0
2915,88.0,60.0,60.0,0.0,64.0
2916,78.0,0.0,120.0,0.0,64.0
2917,60.0,0.0,240.0,0.0,64.0
2918,90.0,60.0,60.0,0.0,64.0
2919,88.0,60.0,60.0,0.0,64.0
2920,76.0,0.0,120.0,0.0,64.0
2921,90.0,60.0,60.0,0.0,64.0
2922,88.0,0.0,60.0,0.0,64.0
2923,64.0,0.0,15.0,0.0,64.0
2924,90.0,60.0,60.0,0.0,64.0
2925,88.0,0.0,60.0,0.0,64.0
2926,90.0,60.0,60.0,0.0,64.0
2927,67.0,0.0,120.0,0.0,64.0
2928,88.0,60.0,60.0,0.0,64.0
2929,60.0,0.0,240.0,0.0,64.0
2930,76.0,0.0,240.0,0.0,64.0
2931,71.0,60.0,120.0,0.0,64.0
2932,90.0,60.0,60.0,0.0,64.0
2933,67.0,0.0,240.0,0.0,64.0
2934,72.0,0.0,240.0,0.0,64.0
2935,88.0,0.0,60.0,0.0,64.0
2936,90.0,60.0,60.0,0.0,64.0
2937,88.0,0.0,60.0,0.0,64.0
2938,69.0,60.0,15.0,0.0,64.0
2939,51.0,0.0,240.0,0.0,64.0
2940,78.0,0.0,480.0,0.0,64.0
2941,86.0,60.0,60.0,0.0,64.0
2942,66.0,0.0,120.0,0.0,64.0
2943,84.0,60.0,60.0,0.0,64.0
2944,69.0,60.0,120.0,0.0,64.0
2945,86.0,60.0,60.0,0.0,64.0
2946,84.0,0.0,60.0,0.0,64.0
2947,54.0,0.0,240.0,0.0,64.0
2948,76.0,60.0,120.0,0.0,64.0
2949,86.0,60.0,60.0,0.0,64.0
2950,84.0,0.0,60.0,0.0,64.0
2951,86.0,60.0,60.0,0.0,64.0
2952,75.0,0.0,120.0,0.0,64.0
2953,84.0,0.0,60.0,0.0,64.0
2954,86.0,60.0,60.0,0.0,64.0
2955,63.0,60.0,120.0,0.0,64.0
2956,57.0,60.0,240.0,0.0,64.0
2957,69.0,0.0,15.0,0.0,64.0
2958,72.0,60.0,15.0,0.0,64.0
2959,75.0,0.0,480.0,0.0,64.0
2960,84.0,0.0,60.0,0.0,64.0
2961,66.0,0.0,120.0,0.0,64.0
2962,86.0,60.0,60.0,0.0,64.0
2963,84.0,0.0,60.0,0.0,64.0
2964,69.0,0.0,120.0,0.0,64.0
2965,54.0,0.0,240.0,0.0,64.0
2966,86.0,60.0,60.0,0.0,64.0
2967,84.0,60.0,60.0,0.0,64.0
2968,86.0,60.0,60.0,0.0,64.0
2969,67.0,0.0,120.0,0.0,64.0
2970,64.0,0.0,120.0,0.0,64.0
2971,55.0,60.0,240.0,0.0,64.0
2972,84.0,60.0,15.0,0.0,64.0
2973,83.0,60.0,60.0,0.0,64.0
2974,67.0,0.0,120.0,0.0,64.0
2975,84.0,60.0,60.0,0.0,64.0
2976,83.0,0.0,60.0,0.0,64.0
2977,71.0,0.0,15.0,0.0,64.0
2978,76.0,0.0,15.0,0.0,64.0
2979,84.0,60.0,60.0,0.0,64.0
2980,67.0,0.0,240.0,0.0,64.0
2981,52.0,0.0,240.0,0.0,64.0
2982,83.0,60.0,60.0,0.0,64.0
2983,84.0,60.0,60.0,0.0,64.0
2984,72.0,0.0,120.0,0.0,64.0
2985,83.0,0.0,60.0,0.0,64.0
2986,57.0,60.0,240.0,0.0,64.0
2987,84.0,60.0,60.0,0.0,64.0
2988,71.0,60.0,15.0,0.0,64.0
2989,66.0,60.0,120.0,0.0,64.0
2990,83.0,0.0,60.0,0.0,64.0
2991,71.0,0.0,120.0,0.0,64.0
2992,84.0,60.0,60.0,0.0,64.0
2993,83.0,0.0,60.0,0.0,64.0
2994,84.0,60.0,60.0,0.0,64.0
2995,76.0,60.0,120.0,0.0,64.0
2996,54.0,0.0,240.0,0.0,64.0
2997,83.0,0.0,60.0,0.0,64.0
2998,84.0,60.0,60.0,0.0,64.0
2999,75.0,0.0,120.0,0.0,64.0
3000,83.0,120.0,180.0,0.0,64.0
3001,55.0,0.0,240.0,0.0,64.0
3002,71.0,0.0,15.0,0.0,64.0
3003,76.0,0.0,240.0,0.0,64.0
3004,79.0,0.0,120.0,0.0,64.0
3005,60.0,0.0,240.0,0.0,64.0
3006,64.0,0.0,15.0,0.0,64.0
3007,76.0,120.0,15.0,0.0,64.0
3008,67.0,0.0,240.0,0.0,64.0
3009,75.0,120.0,120.0,0.0,64.0
3010,76.0,0.0,120.0,0.0,64.0
3011,57.0,0.0,240.0,0.0,64.0
3012,78.0,120.0,120.0,0.0,64.0
3013,72.0,120.0,15.0,0.0,64.0
3014,66.0,0.0,240.0,0.0,64.0
3015,76.0,0.0,240.0,0.0,64.0
3016,81.0,0.0,120.0,0.0,64.0
3017,88.0,120.0,120.0,0.0,64.0
3018,59.0,0.0,240.0,0.0,64.0
3019,75.0,0.0,240.0,0.0,64.0
3020,66.0,0.0,240.0,0.0,64.0
3021,87.0,120.0,120.0,0.0,64.0
3022,71.0,0.0,15.0,0.0,64.0
3023,67.0,0.0,240.0,0.0,64.0
3024,52.0,0.0,240.0,0.0,64.0
3025,79.0,120.0,120.0,0.0,64.0
3026,76.0,0.0,120.0,0.0,64.0
3027,57.0,0.0,240.0,0.0,64.0
3028,64.0,0.0,240.0,0.0,64.0
3029,71.0,0.0,15.0,0.0,64.0
3030,76.0,120.0,15.0,0.0,64.0
3031,72.0,0.0,120.0,0.0,64.0
3032,53.0,0.0,240.0,0.0,64.0
3033,72.0,0.0,15.0,0.0,64.0
3034,69.0,120.0,15.0,0.0,64.0
3035,74.0,120.0,120.0,0.0,64.0
3036,77.0,0.0,120.0,0.0,64.0
3037,62.0,120.0,240.0,0.0,64.0
3038,84.0,120.0,120.0,0.0,64.0
3039,74.0,0.0,15.0,0.0,64.0
3040,55.0,0.0,240.0,0.0,64.0
3041,67.0,0.0,240.0,0.0,64.0
3042,71.0,0.0,240.0,0.0,64.0
3043,83.0,0.0,120.0,0.0,64.0
3044,48.0,0.0,240.0,0.0,64.0
3045,67.0,120.0,240.0,0.0,64.0
3046,76.0,120.0,120.0,0.0,64.0
3047,72.0,0.0,120.0,0.0,64.0
3048,68.0,120.0,120.0,0.0,64.0
3049,60.0,0.0,240.0,0.0,64.0
3050,77.0,0.0,240.0,0.0,64.0
3051,72.0,0.0,240.0,0.0,64.0
3052,53.0,120.0,240.0,0.0,64.0
3053,69.0,0.0,120.0,0.0,64.0
3054,65.0,0.0,240.0,0.0,64.0
3055,69.0,0.0,240.0,0.0,64.0
3056,71.0,120.0,120.0,0.0,64.0
3057,77.0,0.0,240.0,0.0,64.0
3058,50.0,0.0,240.0,0.0,64.0
3059,74.0,0.0,120.0,0.0,64.0
3060,52.0,60.0,240.0,0.0,64.0
3061,59.0,0.0,240.0,0.0,64.0
3062,81.0,120.0,120.0,0.0,64.0
3063,68.0,0.0,240.0,0.0,64.0
3064,71.0,0.0,240.0,0.0,64.0
3065,76.0,0.0,240.0,0.0,64.0
3066,80.0,0.0,120.0,0.0,64.0
3067,64.0,0.0,480.0,0.0,64.0
3068,69.0,0.0,480.0,0.0,64.0
3069,86.0,60.0,60.0,0.0,64.0
3070,45.0,0.0,480.0,0.0,64.0
3071,72.0,0.0,480.0,0.0,64.0
3072,84.0,60.0,60.0,0.0,64.0
3073,86.0,60.0,60.0,0.0,64.0
3074,81.0,60.0,120.0,0.0,64.0
3075,84.0,0.0,60.0,0.0,64.0
3076,75.0,0.0,120.0,0.0,64.0
3077,86.0,60.0,60.0,0.0,64.0
3078,84.0,60.0,60.0,0.0,64.0
3079,76.0,0.0,120.0,0.0,64.0
3080,83.0,60.0,60.0,0.0,64.0
3081,81.0,60.0,60.0,0.0,64.0
3082,83.0,60.0,60.0,0.0,64.0
3083,72.0,60.0,120.0,0.0,64.0
3084,81.0,0.0,60.0,0.0,64.0
3085,83.0,60.0,60.0,0.0,64.0
3086,77.0,0.0,120.0,0.0,64.0
3087,81.0,60.0,60.0,0.0,64.0
3088,71.0,0.0,120.0,0.0,64.0
3089,83.0,60.0,60.0,0.0,64.0
3090,81.0,60.0,60.0,0.0,64.0
3091,79.0,60.0,60.0,0.0,64.0
3092,72.0,60.0,15.0,0.0,64.0
3093,77.0,0.0,15.0,0.0,64.0
3094,45.0,0.0,480.0,0.0,64.0
3095,77.0,60.0,120.0,0.0,64.0
3096,74.0,60.0,60.0,0.0,64.0
3097,72.0,0.0,60.0,0.0,64.0
3098,74.0,60.0,60.0,0.0,64.0
3099,84.0,60.0,120.0,0.0,64.0
3100,72.0,0.0,60.0,0.0,64.0
3101,80.0,60.0,120.0,0.0,64.0
3102,74.0,60.0,60.0,0.0,64.0
3103,72.0,0.0,60.0,0.0,64.0
3104,71.0,60.0,60.0,0.0,64.0
3105,81.0,0.0,120.0,0.0,64.0
3106,69.0,0.0,60.0,0.0,64.0
3107,72.0,60.0,120.0,0.0,64.0
3108,71.0,60.0,60.0,0.0,64.0
3109,69.0,0.0,60.0,0.0,64.0
3110,81.0,60.0,120.0,0.0,64.0
3111,71.0,60.0,60.0,0.0,64.0
3112,69.0,0.0,60.0,0.0,64.0
3113,71.0,60.0,60.0,0.0,64.0
3114,76.0,60.0,120.0,0.0,64.0
3115,69.0,0.0,60.0,0.0,64.0
3116,67.0,60.0,60.0,0.0,64.0
3117,65.0,0.0,60.0,0.0,64.0
3118,65.0,120.0,120.0,0.0,64.0
3119,77.0,120.0,15.0,0.0,64.0
3120,69.0,0.0,600.0,0.0,64.0
3121,77.0,120.0,120.0,0.0,64.0
3122,71.0,120.0,120.0,0.0,64.0
3123,45.0,120.0,240.0,0.0,64.0
3124,72.0,0.0,120.0,0.0,64.0
3125,65.0,120.0,120.0,0.0,64.0
3126,72.0,0.0,120.0,0.0,64.0
3127,81.0,120.0,120.0,0.0,64.0
3128,45.0,0.0,15.0,0.0,64.0
3129,78.0,120.0,120.0,0.0,64.0
3130,63.0,0.0,120.0,0.0,64.0
3131,79.0,0.0,120.0,0.0,64.0
3132,64.0,0.0,120.0,0.0,64.0
3133,66.0,60.0,60.0,0.0,64.0
3134,69.0,60.0,15.0,0.0,64.0
3135,76.0,0.0,960.0,0.0,64.0
3136,73.0,240.0,960.0,0.0,64.0
3137,46.0,0.0,960.0,0.0,64.0
3138,67.0,0.0,60.0,0.0,64.0
3139,64.0,60.0,60.0,0.0,64.0
3140,69.0,0.0,60.0,0.0,64.0
3141,66.0,60.0,60.0,0.0,64.0
3142,67.0,60.0,60.0,0.0,64.0
3143,64.0,0.0,60.0,0.0,64.0
3144,66.0,60.0,60.0,0.0,64.0
3145,69.0,0.0,60.0,0.0,64.0
3146,67.0,0.0,60.0,0.0,64.0
3147,64.0,60.0,60.0,0.0,64.0
3148,69.0,0.0,60.0,0.0,64.0
3149,66.0,60.0,60.0,0.0,64.0
3150,67.0,0.0,60.0,0.0,64.0
3151,64.0,60.0,60.0,0.0,64.0
3152,66.0,0.0,60.0,0.0,64.0
3153,69.0,60.0,60.0,0.0,64.0
3154,64.0,60.0,60.0,0.0,64.0
3155,67.0,0.0,60.0,0.0,64.0
3156,69.0,60.0,60.0,0.0,64.0
3157,66.0,0.0,60.0,0.0,64.0
3158,67.0,0.0,60.0,0.0,64.0
3159,64.0,60.0,60.0,0.0,64.0
3160,66.0,0.0,60.0,0.0,64.0
3161,69.0,60.0,60.0,0.0,64.0
3162,64.0,0.0,60.0,0.0,64.0
3163,67.0,60.0,60.0,0.0,64.0
3164,66.0,0.0,60.0,0.0,64.0
3165,69.0,60.0,60.0,0.0,64.0
3166,64.0,0.0,60.0,0.0,64.0
3167,67.0,0.0,60.0,0.0,64.0
3168,63.0,0.0,480.0,0.0,64.0
3169,75.0,0.0,720.0,0.0,64.0
3170,66.0,120.0,480.0,0.0,64.0
3171,47.0,120.0,240.0,0.0,64.0
3172,59.0,120.0,120.0,0.0,64.0
3173,60.0,0.0,120.0,0.0,64.0
3174,59.0,120.0,120.0,0.0,64.0
3175,57.0,120.0,120.0,0.0,64.0
3176,71.0,0.0,15.0,0.0,64.0
3177,69.0,0.0,240.0,0.0,64.0
3178,75.0,0.0,240.0,0.0,64.0
3179,55.0,120.0,120.0,0.0,64.0
3180,54.0,0.0,120.0,0.0,64.0
3181,55.0,120.0,240.0,0.0,64.0
3182,67.0,0.0,480.0,0.0,64.0
3183,71.0,240.0,15.0,0.0,64.0
3184,76.0,60.0,360.0,0.0,64.0
3185,52.0,0.0,240.0,0.0,64.0
3186,78.0,60.0,60.0,0.0,64.0
3187,79.0,240.0,60.0,0.0,64.0
3188,51.0,120.0,240.0,0.0,64.0
3189,66.0,0.0,240.0,0.0,64.0
3190,78.0,0.0,240.0,0.0,64.0
3191,66.0,0.0,240.0,0.0,64.0
3192,71.0,0.0,15.0,0.0,64.0
3193,75.0,0.0,240.0,0.0,64.0
3194,47.0,120.0,240.0,0.0,64.0
3195,79.0,60.0,60.0,0.0,64.0
3196,81.0,0.0,60.0,0.0,64.0
3197,79.0,120.0,120.0,0.0,64.0
3198,71.0,0.0,15.0,0.0,64.0
3199,67.0,0.0,480.0,0.0,64.0
3200,52.0,0.0,240.0,0.0,64.0
3201,78.0,120.0,120.0,0.0,64.0
3202,40.0,0.0,240.0,0.0,64.0
3203,76.0,120.0,120.0,0.0,64.0
3204,75.0,0.0,120.0,0.0,64.0
3205,76.0,0.0,15.0,0.0,64.0
3206,83.0,120.0,120.0,0.0,64.0
3207,79.0,120.0,120.0,0.0,64.0
3208,76.0,0.0,120.0,0.0,64.0
3209,66.0,0.0,480.0,0.0,64.0
3210,83.0,0.0,480.0,0.0,64.0
3211,75.0,120.0,120.0,0.0,64.0
3212,71.0,120.0,120.0,0.0,64.0
3213,75.0,120.0,120.0,0.0,64.0
3214,59.0,120.0,480.0,0.0,64.0
3215,78.0,0.0,120.0,0.0,64.0
3216,72.0,0.0,480.0,0.0,64.0
3217,84.0,0.0,480.0,0.0,64.0
3218,67.0,0.0,480.0,0.0,64.0
3219,76.0,120.0,120.0,0.0,64.0
3220,75.0,0.0,120.0,0.0,64.0
3221,57.0,120.0,480.0,0.0,64.0
3222,76.0,120.0,120.0,0.0,64.0
3223,79.0,120.0,120.0,0.0,64.0
3224,66.0,120.0,480.0,0.0,64.0
3225,78.0,120.0,120.0,0.0,64.0
3226,76.0,0.0,120.0,0.0,64.0
3227,75.0,0.0,120.0,0.0,64.0
3228,59.0,120.0,120.0,0.0,64.0
3229,57.0,0.0,120.0,0.0,64.0
3230,73.0,0.0,120.0,0.0,64.0
3231,76.0,0.0,480.0,0.0,64.0
3232,71.0,0.0,15.0,0.0,64.0
3233,67.0,0.0,480.0,0.0,64.0
3234,55.0,0.0,240.0,0.0,64.0
3235,71.0,120.0,120.0,0.0,64.0
3236,78.0,120.0,120.0,0.0,64.0
3237,83.0,0.0,240.0,0.0,64.0
3238,52.0,0.0,240.0,0.0,64.0
3239,79.0,120.0,120.0,0.0,64.0
3240,75.0,0.0,120.0,0.0,64.0
3241,70.0,0.0,480.0,0.0,64.0
3242,49.0,0.0,240.0,0.0,64.0
3243,67.0,0.0,480.0,0.0,64.0
3244,82.0,120.0,480.0,0.0,64.0
3245,76.0,120.0,120.0,0.0,64.0
3246,75.0,120.0,120.0,0.0,64.0
3247,54.0,120.0,360.0,0.0,64.0
3248,76.0,120.0,120.0,0.0,64.0
3249,84.0,0.0,120.0,0.0,64.0
3250,81.0,0.0,480.0,0.0,64.0
3251,84.0,0.0,120.0,0.0,64.0
3252,76.0,0.0,480.0,0.0,64.0
3253,69.0,0.0,480.0,0.0,64.0
3254,72.0,0.0,480.0,0.0,64.0
3255,66.0,0.0,480.0,0.0,64.0
3256,83.0,120.0,120.0,0.0,64.0
3257,56.0,0.0,120.0,0.0,64.0
3258,84.0,0.0,120.0,0.0,64.0
3259,57.0,120.0,120.0,0.0,64.0
3260,54.0,0.0,120.0,0.0,64.0
3261,80.0,0.0,480.0,0.0,64.0
3262,65.0,0.0,480.0,0.0,64.0
3263,68.0,0.0,480.0,0.0,64.0
3264,74.0,120.0,15.0,0.0,64.0
3265,47.0,0.0,240.0,0.0,64.0
3266,73.0,120.0,120.0,0.0,64.0
3267,52.0,120.0,360.0,0.0,64.0
3268,74.0,120.0,120.0,0.0,64.0
3269,64.0,0.0,480.0,0.0,64.0
3270,67.0,0.0,480.0,0.0,64.0
3271,71.0,0.0,15.0,0.0,64.0
3272,74.0,0.0,480.0,0.0,64.0
3273,83.0,120.0,15.0,0.0,64.0
3274,79.0,0.0,720.0,0.0,64.0
3275,81.0,0.0,120.0,0.0,64.0
3276,54.0,120.0,120.0,0.0,64.0
3277,83.0,0.0,120.0,0.0,64.0
3278,55.0,120.0,120.0,0.0,64.0
3279,52.0,0.0,120.0,0.0,64.0
3280,64.0,0.0,240.0,0.0,64.0
3281,67.0,0.0,240.0,0.0,64.0
3282,69.0,0.0,240.0,0.0,64.0
3283,45.0,120.0,240.0,0.0,64.0
3284,72.0,120.0,15.0,0.0,64.0
3285,71.0,0.0,120.0,0.0,64.0
3286,66.0,0.0,240.0,0.0,64.0
3287,69.0,0.0,240.0,0.0,64.0
3288,72.0,0.0,15.0,0.0,64.0
3289,78.0,120.0,240.0,0.0,64.0
3290,72.0,120.0,120.0,0.0,64.0
3291,57.0,0.0,240.0,0.0,64.0
3292,81.0,0.0,15.0,0.0,64.0
3293,77.0,120.0,240.0,0.0,64.0
3294,80.0,0.0,120.0,0.0,64.0
3295,57.0,120.0,360.0,0.0,64.0
3296,69.0,0.0,240.0,0.0,64.0
3297,81.0,120.0,120.0,0.0,64.0
3298,64.0,0.0,240.0,0.0,64.0
3299,76.0,120.0,240.0,0.0,64.0
3300,72.0,0.0,15.0,0.0,64.0
3301,75.0,0.0,240.0,0.0,64.0
3302,63.0,0.0,480.0,0.0,64.0
3303,66.0,0.0,480.0,0.0,64.0
3304,54.0,120.0,120.0,0.0,64.0
3305,55.0,0.0,120.0,0.0,64.0
3306,73.0,120.0,120.0,0.0,64.0
3307,71.0,0.0,120.0,0.0,64.0
3308,57.0,0.0,120.0,0.0,64.0
3309,55.0,120.0,120.0,0.0,64.0
3310,76.0,0.0,240.0,0.0,64.0
3311,71.0,0.0,15.0,0.0,64.0
3312,67.0,0.0,240.0,0.0,64.0
3313,64.0,0.0,240.0,0.0,64.0
3314,54.0,120.0,120.0,0.0,64.0
3315,71.0,0.0,15.0,0.0,64.0
3316,81.0,60.0,240.0,0.0,64.0
3317,66.0,0.0,240.0,0.0,64.0
3318,71.0,0.0,240.0,0.0,64.0
3319,69.0,0.0,240.0,0.0,64.0
3320,52.0,120.0,120.0,0.0,64.0
3321,51.0,0.0,120.0,0.0,64.0
3322,67.0,0.0,480.0,0.0,64.0
3323,84.0,60.0,60.0,0.0,64.0
3324,71.0,0.0,480.0,0.0,64.0
3325,52.0,0.0,120.0,0.0,64.0
3326,81.0,0.0,60.0,0.0,64.0
3327,83.0,60.0,60.0,0.0,64.0
3328,79.0,0.0,60.0,0.0,64.0
3329,81.0,60.0,60.0,0.0,64.0
3330,84.0,0.0,60.0,0.0,64.0
3331,59.0,0.0,120.0,0.0,64.0
3332,79.0,60.0,60.0,0.0,64.0
3333,83.0,0.0,60.0,0.0,64.0
3334,84.0,0.0,60.0,0.0,64.0
3335,64.0,60.0,240.0,0.0,64.0
3336,81.0,60.0,60.0,0.0,64.0
3337,83.0,0.0,60.0,0.0,64.0
3338,79.0,60.0,60.0,0.0,64.0
3339,81.0,0.0,60.0,0.0,64.0
3340,69.0,0.0,240.0,0.0,64.0
3341,72.0,0.0,240.0,0.0,64.0
3342,66.0,0.0,240.0,0.0,64.0
3343,79.0,0.0,15.0,0.0,64.0
3344,83.0,0.0,60.0,0.0,64.0
3345,81.0,60.0,60.0,0.0,64.0
3346,78.0,0.0,60.0,0.0,64.0
3347,83.0,0.0,60.0,0.0,64.0
3348,79.0,60.0,60.0,0.0,64.0
3349,81.0,60.0,60.0,0.0,64.0
3350,66.0,0.0,240.0,0.0,64.0
3351,71.0,0.0,240.0,0.0,64.0
3352,78.0,0.0,15.0,0.0,64.0
3353,83.0,60.0,60.0,0.0,64.0
3354,63.0,120.0,240.0,0.0,64.0
3355,79.0,0.0,60.0,0.0,64.0
3356,81.0,60.0,60.0,0.0,64.0
3357,78.0,0.0,60.0,0.0,64.0
3358,79.0,0.0,60.0,0.0,64.0
3359,78.0,0.0,60.0,0.0,64.0
3360,76.0,0.0,480.0,0.0,64.0
3361,71.0,0.0,480.0,0.0,64.0
3362,79.0,120.0,120.0,0.0,64.0
3363,64.0,120.0,240.0,0.0,64.0
3364,81.0,0.0,120.0,0.0,64.0
3365,83.0,120.0,120.0,0.0,64.0
3366,62.0,0.0,240.0,0.0,64.0
3367,79.0,120.0,120.0,0.0,64.0
3368,76.0,0.0,15.0,0.0,64.0
3369,67.0,0.0,15.0,0.0,64.0
3370,76.0,120.0,120.0,0.0,64.0
3371,73.0,0.0,480.0,0.0,64.0
3372,60.0,120.0,240.0,0.0,64.0
3373,78.0,0.0,120.0,0.0,64.0
3374,59.0,0.0,240.0,0.0,64.0
3375,79.0,120.0,120.0,0.0,64.0
3376,76.0,0.0,120.0,0.0,64.0
3377,78.0,120.0,120.0,0.0,64.0
3378,66.0,0.0,480.0,0.0,64.0
3379,76.0,0.0,15.0,0.0,64.0
3380,58.0,60.0,360.0,0.0,64.0
3381,73.0,0.0,480.0,0.0,64.0
3382,76.0,120.0,120.0,0.0,64.0
3383,78.0,0.0,120.0,0.0,64.0
3384,88.0,120.0,120.0,0.0,64.0
3385,59.0,60.0,60.0,0.0,64.0
3386,61.0,0.0,60.0,0.0,64.0
3387,86.0,120.0,120.0,0.0,64.0
3388,66.0,0.0,480.0,0.0,64.0
3389,74.0,120.0,480.0,0.0,64.0
3390,59.0,0.0,360.0,0.0,64.0
3391,85.0,120.0,120.0,0.0,64.0
3392,86.0,60.0,120.0,0.0,64.0
3393,61.0,60.0,60.0,0.0,64.0
3394,78.0,0.0,120.0,0.0,64.0
3395,62.0,0.0,60.0,0.0,64.0
3396,56.0,0.0,360.0,0.0,64.0
3397,71.0,0.0,480.0,0.0,64.0
3398,76.0,120.0,120.0,0.0,64.0
3399,74.0,120.0,120.0,0.0,64.0
3400,76.0,60.0,120.0,0.0,64.0
3401,86.0,0.0,120.0,0.0,64.0
3402,58.0,60.0,60.0,0.0,64.0
3403,59.0,120.0,60.0,0.0,64.0
3404,58.0,0.0,360.0,0.0,64.0
3405,73.0,0.0,480.0,0.0,64.0
3406,85.0,120.0,120.0,0.0,64.0
3407,66.0,0.0,480.0,0.0,64.0
3408,83.0,120.0,120.0,0.0,64.0
3409,85.0,60.0,120.0,0.0,64.0
3410,78.0,120.0,240.0,0.0,64.0
3411,59.0,60.0,60.0,0.0,64.0
3412,76.0,0.0,120.0,0.0,64.0
3413,61.0,0.0,60.0,0.0,64.0
3414,59.0,0.0,240.0,0.0,64.0
3415,83.0,60.0,360.0,0.0,64.0
3416,74.0,120.0,120.0,0.0,64.0
3417,66.0,120.0,240.0,0.0,64.0
3418,73.0,0.0,120.0,0.0,64.0
3419,55.0,0.0,240.0,0.0,64.0
3420,74.0,0.0,15.0,0.0,64.0
3421,85.0,60.0,60.0,0.0,64.0
3422,86.0,240.0,60.0,0.0,64.0
3423,73.0,0.0,240.0,0.0,64.0
3424,71.0,0.0,15.0,0.0,64.0
3425,67.0,0.0,15.0,0.0,64.0
3426,52.0,0.0,240.0,0.0,64.0
3427,85.0,60.0,360.0,0.0,64.0
3428,54.0,0.0,240.0,0.0,64.0
3429,73.0,120.0,240.0,0.0,64.0
3430,70.0,0.0,240.0,0.0,64.0
3431,86.0,60.0,60.0,0.0,64.0
3432,88.0,0.0,60.0,0.0,64.0
3433,47.0,0.0,240.0,0.0,64.0
3434,71.0,0.0,240.0,0.0,64.0
3435,74.0,0.0,240.0,0.0,64.0
3436,66.0,0.0,15.0,0.0,64.0
3437,86.0,120.0,120.0,0.0,64.0
3438,85.0,0.0,120.0,0.0,64.0
3439,83.0,120.0,120.0,0.0,64.0
3440,49.0,0.0,240.0,0.0,64.0
3441,76.0,120.0,240.0,0.0,64.0
3442,70.0,0.0,240.0,0.0,64.0
3443,66.0,0.0,15.0,0.0,64.0
3444,82.0,0.0,120.0,0.0,64.0
3445,50.0,0.0,240.0,0.0,64.0
3446,83.0,120.0,120.0,0.0,64.0
3447,66.0,120.0,240.0,0.0,64.0
3448,71.0,0.0,240.0,0.0,64.0
3449,74.0,0.0,240.0,0.0,64.0
3450,90.0,0.0,120.0,0.0,64.0
3451,86.0,120.0,120.0,0.0,64.0
3452,71.0,120.0,240.0,0.0,64.0
3453,78.0,0.0,240.0,0.0,64.0
3454,47.0,0.0,240.0,0.0,64.0
3455,74.0,0.0,240.0,0.0,64.0
3456,83.0,0.0,120.0,0.0,64.0
3457,54.0,120.0,240.0,0.0,64.0
3458,82.0,120.0,120.0,0.0,64.0
3459,73.0,0.0,480.0,0.0,64.0
3460,70.0,0.0,480.0,0.0,64.0
3461,78.0,0.0,120.0,0.0,64.0
3462,66.0,0.0,240.0,0.0,64.0
3463,82.0,120.0,120.0,0.0,64.0
3464,52.0,120.0,240.0,0.0,64.0
3465,85.0,0.0,120.0,0.0,64.0
3466,78.0,0.0,15.0,0.0,64.0
3467,71.0,0.0,240.0,0.0,64.0
3468,50.0,120.0,240.0,0.0,64.0
3469,83.0,120.0,120.0,0.0,64.0
3470,82.0,0.0,120.0,0.0,64.0
3471,74.0,0.0,15.0,0.0,64.0
3472,78.0,0.0,15.0,0.0,64.0
3473,83.0,120.0,120.0,0.0,64.0
3474,47.0,0.0,240.0,0.0,64.0
3475,86.0,120.0,120.0,0.0,64.0
3476,78.0,0.0,240.0,0.0,64.0
3477,54.0,0.0,240.0,0.0,64.0
3478,73.0,120.0,480.0,0.0,64.0
3479,85.0,120.0,120.0,0.0,64.0
3480,83.0,120.0,120.0,0.0,64.0
3481,42.0,0.0,240.0,0.0,64.0
3482,85.0,0.0,240.0,0.0,64.0
3483,82.0,120.0,120.0,0.0,64.0
3484,80.0,0.0,120.0,0.0,64.0
3485,82.0,0.0,15.0,0.0,64.0
3486,78.0,0.0,15.0,0.0,64.0
3487,85.0,0.0,120.0,0.0,64.0
3488,54.0,20.0,240.0,0.0,64.0
3489,86.0,100.0,120.0,0.0,64.0
3490,82.0,0.0,120.0,0.0,64.0
3491,78.0,0.0,15.0,0.0,64.0
3492,74.0,0.0,15.0,0.0,64.0
3493,55.0,120.0,120.0,0.0,64.0
3494,83.0,0.0,120.0,0.0,64.0
3495,82.0,120.0,120.0,0.0,64.0
3496,54.0,0.0,120.0,0.0,64.0
3497,71.0,0.0,240.0,0.0,64.0
3498,83.0,120.0,120.0,0.0,64.0
3499,55.0,0.0,240.0,0.0,64.0
3500,76.0,120.0,120.0,0.0,64.0
3501,91.0,120.0,15.0,0.0,64.0
3502,74.0,0.0,120.0,0.0,64.0
3503,90.0,120.0,120.0,0.0,64.0
3504,83.0,0.0,240.0,0.0,64.0
3505,76.0,0.0,240.0,0.0,64.0
3506,91.0,120.0,120.0,0.0,64.0
3507,49.0,120.0,240.0,0.0,64.0
3508,73.0,0.0,240.0,0.0,64.0
3509,76.0,0.0,240.0,0.0,64.0
3510,81.0,0.0,15.0,0.0,64.0
3511,73.0,0.0,480.0,0.0,64.0
3512,54.0,0.0,120.0,0.0,64.0
3513,52.0,120.0,120.0,0.0,64.0
3514,80.0,0.0,120.0,0.0,64.0
3515,81.0,120.0,120.0,0.0,64.0
3516,69.0,120.0,240.0,0.0,64.0
3517,54.0,0.0,240.0,0.0,64.0
3518,90.0,0.0,120.0,0.0,64.0
3519,90.0,0.0,120.0,0.0,64.0
3520,74.0,120.0,120.0,0.0,64.0
3521,73.0,120.0,120.0,0.0,64.0
3522,88.0,0.0,120.0,0.0,64.0
3523,47.0,0.0,240.0,0.0,64.0
3524,81.0,0.0,240.0,0.0,64.0
3525,90.0,120.0,120.0,0.0,64.0
3526,74.0,0.0,15.0,0.0,64.0
3527,71.0,0.0,15.0,0.0,64.0
3528,79.0,120.0,15.0,0.0,64.0
3529,52.0,0.0,120.0,0.0,64.0
3530,78.0,0.0,120.0,0.0,64.0
3531,51.0,120.0,120.0,0.0,64.0
3532,52.0,0.0,240.0,0.0,64.0
3533,79.0,120.0,120.0,0.0,64.0
3534,71.0,0.0,240.0,0.0,64.0
3535,88.0,0.0,15.0,0.0,64.0
3536,67.0,120.0,240.0,0.0,64.0
3537,87.0,0.0,120.0,0.0,64.0
3538,88.0,120.0,120.0,0.0,64.0
3539,76.0,0.0,240.0,0.0,64.0
3540,72.0,0.0,240.0,0.0,64.0
3541,79.0,0.0,15.0,0.0,64.0
3542,64.0,0.0,15.0,0.0,64.0
3543,70.0,120.0,120.0,0.0,64.0
3544,66.0,0.0,120.0,0.0,64.0
3545,61.0,0.0,240.0,0.0,64.0
3546,70.0,120.0,120.0,0.0,64.0
3547,58.0,0.0,240.0,0.0,64.0
3548,73.0,0.0,15.0,0.0,64.0
3549,78.0,0.0,15.0,0.0,64.0
3550,76.0,120.0,120.0,0.0,64.0
3551,82.0,120.0,120.0,0.0,64.0
3552,54.0,0.0,240.0,0.0,64.0
3553,85.0,120.0,120.0,0.0,64.0
3554,76.0,0.0,120.0,0.0,64.0
3555,91.0,60.0,60.0,0.0,64.0
3556,78.0,0.0,15.0,0.0,64.0
3557,59.0,60.0,240.0,0.0,64.0
3558,71.0,0.0,480.0,0.0,64.0
3559,74.0,60.0,120.0,0.0,64.0
3560,90.0,0.0,60.0,0.0,64.0
3561,78.0,0.0,120.0,0.0,64.0
3562,91.0,60.0,60.0,0.0,64.0
3563,90.0,0.0,60.0,0.0,64.0
3564,83.0,0.0,480.0,0.0,64.0
3565,91.0,60.0,60.0,0.0,64.0
3566,50.0,0.0,240.0,0.0,64.0
3567,90.0,60.0,60.0,0.0,64.0
3568,88.0,60.0,60.0,0.0,64.0
3569,86.0,0.0,60.0,0.0,64.0
3570,90.0,60.0,60.0,0.0,64.0
3571,71.0,0.0,240.0,0.0,64.0
3572,76.0,0.0,240.0,0.0,64.0
3573,79.0,0.0,240.0,0.0,64.0
3574,49.0,60.0,240.0,0.0,64.0
3575,88.0,60.0,60.0,0.0,64.0
3576,90.0,60.0,60.0,0.0,64.0
3577,88.0,0.0,60.0,0.0,64.0
3578,90.0,60.0,60.0,0.0,64.0
3579,70.0,0.0,240.0,0.0,64.0
3580,82.0,0.0,240.0,0.0,64.0
3581,54.0,0.0,240.0,0.0,64.0
3582,76.0,0.0,240.0,0.0,64.0
3583,88.0,60.0,60.0,0.0,64.0
3584,86.0,60.0,60.0,0.0,64.0
3585,85.0,0.0,60.0,0.0,64.0
3586,86.0,120.0,120.0,0.0,64.0
3587,59.0,0.0,240.0,0.0,64.0
3588,74.0,0.0,480.0,0.0,64.0
3589,78.0,120.0,15.0,0.0,64.0
3590,83.0,0.0,240.0,0.0,64.0
3591,88.0,120.0,120.0,0.0,64.0
3592,71.0,0.0,240.0,0.0,64.0
3593,57.0,0.0,240.0,0.0,64.0
3594,90.0,120.0,120.0,0.0,64.0
3595,86.0,120.0,120.0,0.0,64.0
3596,55.0,120.0,240.0,0.0,64.0
3597,74.0,0.0,480.0,0.0,64.0
3598,79.0,0.0,480.0,0.0,64.0
3599,83.0,120.0,120.0,0.0,64.0
3600,85.0,0.0,120.0,0.0,64.0
3601,86.0,120.0,120.0,0.0,64.0
3602,54.0,120.0,240.0,0.0,64.0
3603,83.0,0.0,120.0,0.0,64.0
3604,84.0,120.0,120.0,0.0,64.0
3605,72.0,0.0,480.0,0.0,64.0
3606,52.0,60.0,360.0,0.0,64.0
3607,83.0,0.0,120.0,0.0,64.0
3608,81.0,0.0,120.0,0.0,64.0
3609,84.0,0.0,120.0,0.0,64.0
3610,54.0,60.0,60.0,0.0,64.0
3611,76.0,0.0,120.0,0.0,64.0
3612,79.0,0.0,120.0,0.0,64.0
3613,55.0,120.0,60.0,0.0,64.0
3614,72.0,120.0,480.0,0.0,64.0
3615,74.0,120.0,120.0,0.0,64.0
3616,54.0,60.0,360.0,0.0,64.0
3617,73.0,120.0,120.0,0.0,64.0
3618,74.0,0.0,120.0,0.0,64.0
3619,84.0,0.0,120.0,0.0,64.0
3620,55.0,60.0,60.0,0.0,64.0
3621,57.0,0.0,60.0,0.0,64.0
3622,83.0,120.0,120.0,0.0,64.0
3623,55.0,120.0,240.0,0.0,64.0
3624,81.0,0.0,15.0,0.0,64.0
3625,84.0,0.0,120.0,0.0,64.0
3626,86.0,0.0,120.0,0.0,64.0
3627,71.0,120.0,120.0,0.0,64.0
3628,54.0,0.0,240.0,0.0,64.0
3629,74.0,0.0,120.0,0.0,64.0
3630,83.0,0.0,120.0,0.0,64.0
3631,71.0,0.0,15.0,0.0,64.0
3632,52.0,0.0,240.0,0.0,64.0
3633,79.0,120.0,120.0,0.0,64.0
3634,81.0,120.0,120.0,0.0,64.0
3635,50.0,0.0,240.0,0.0,64.0
3636,83.0,120.0,120.0,0.0,64.0
3637,49.0,60.0,360.0,0.0,64.0
3638,81.0,120.0,120.0,0.0,64.0
3639,79.0,0.0,15.0,0.0,64.0
3640,76.0,0.0,15.0,0.0,64.0
3641,79.0,0.0,120.0,0.0,64.0
3642,81.0,0.0,120.0,0.0,64.0
3643,78.0,0.0,120.0,0.0,64.0
3644,51.0,60.0,60.0,0.0,64.0
3645,76.0,0.0,120.0,0.0,64.0
3646,72.0,0.0,120.0,0.0,64.0
3647,52.0,120.0,60.0,0.0,64.0
3648,71.0,120.0,120.0,0.0,64.0
3649,78.0,0.0,480.0,0.0,64.0
3650,69.0,0.0,15.0,0.0,64.0
3651,51.0,60.0,360.0,0.0,64.0
3652,70.0,120.0,120.0,0.0,64.0
3653,71.0,0.0,120.0,0.0,64.0
3654,81.0,0.0,120.0,0.0,64.0
3655,52.0,60.0,60.0,0.0,64.0
3656,54.0,0.0,60.0,0.0,64.0
3657,79.0,120.0,120.0,0.0,64.0
3658,52.0,0.0,240.0,0.0,64.0
3659,78.0,120.0,240.0,0.0,64.0
3660,71.0,120.0,15.0,0.0,64.0
3661,81.0,0.0,120.0,0.0,64.0
3662,64.0,0.0,120.0,0.0,64.0
3663,83.0,0.0,120.0,0.0,64.0
3664,67.0,120.0,120.0,0.0,64.0
3665,79.0,0.0,120.0,0.0,64.0
3666,62.0,0.0,120.0,0.0,64.0
3667,71.0,0.0,120.0,0.0,64.0
3668,60.0,120.0,240.0,0.0,64.0
3669,67.0,120.0,480.0,0.0,64.0
3670,76.0,120.0,120.0,0.0,64.0
3671,78.0,0.0,120.0,0.0,64.0
3672,88.0,120.0,480.0,0.0,64.0
3673,79.0,120.0,120.0,0.0,64.0
3674,59.0,0.0,240.0,0.0,64.0
3675,57.0,0.0,360.0,0.0,64.0
3676,76.0,0.0,15.0,0.0,64.0
3677,72.0,0.0,15.0,0.0,64.0
3678,77.0,120.0,120.0,0.0,64.0
3679,76.0,0.0,120.0,0.0,64.0
3680,86.0,0.0,120.0,0.0,64.0
3681,77.0,60.0,120.0,0.0,64.0
3682,84.0,0.0,120.0,0.0,64.0
3683,59.0,60.0,60.0,0.0,64.0
3684,69.0,0.0,120.0,0.0,64.0
3685,60.0,0.0,60.0,0.0,64.0
3686,86.0,120.0,720.0,0.0,64.0
3687,59.0,60.0,360.0,0.0,64.0
3688,74.0,0.0,480.0,0.0,64.0
3689,67.0,120.0,120.0,0.0,64.0
3690,66.0,120.0,120.0,0.0,64.0
3691,67.0,0.0,120.0,0.0,64.0
3692,77.0,0.0,120.0,0.0,64.0
3693,60.0,60.0,60.0,0.0,64.0
3694,62.0,0.0,60.0,0.0,64.0
3695,60.0,0.0,240.0,0.0,64.0
3696,67.0,0.0,480.0,0.0,64.0
3697,74.0,120.0,480.0,0.0,64.0
3698,76.0,120.0,120.0,0.0,64.0
3699,77.0,0.0,120.0,0.0,64.0
3700,79.0,0.0,120.0,0.0,64.0
3701,59.0,0.0,240.0,0.0,64.0
3702,76.0,120.0,15.0,0.0,64.0
3703,79.0,0.0,120.0,0.0,64.0
3704,57.0,0.0,240.0,0.0,64.0
3705,84.0,120.0,720.0,0.0,64.0
3706,72.0,120.0,120.0,0.0,64.0
3707,74.0,120.0,120.0,0.0,64.0
3708,76.0,120.0,120.0,0.0,64.0
3709,55.0,120.0,240.0,0.0,64.0
3710,72.0,0.0,120.0,0.0,64.0
3711,54.0,0.0,360.0,0.0,64.0
3712,81.0,0.0,15.0,0.0,64.0
3713,72.0,0.0,15.0,0.0,64.0
3714,74.0,120.0,120.0,0.0,64.0
3715,72.0,0.0,120.0,0.0,64.0
3716,74.0,0.0,120.0,0.0,64.0
3717,83.0,60.0,120.0,0.0,64.0
3718,56.0,60.0,60.0,0.0,64.0
3719,81.0,0.0,120.0,0.0,64.0
3720,65.0,0.0,120.0,0.0,64.0
3721,57.0,0.0,60.0,0.0,64.0
3722,76.0,0.0,480.0,0.0,64.0
3723,56.0,0.0,360.0,0.0,64.0
3724,64.0,120.0,120.0,0.0,64.0
3725,71.0,0.0,480.0,0.0,64.0
3726,83.0,0.0,480.0,0.0,64.0
3727,63.0,120.0,120.0,0.0,64.0
3728,64.0,60.0,120.0,0.0,64.0
3729,57.0,60.0,60.0,0.0,64.0
3730,74.0,120.0,120.0,0.0,64.0
3731,59.0,0.0,60.0,0.0,64.0
3732,76.0,0.0,240.0,0.0,64.0
3733,83.0,0.0,240.0,0.0,64.0
3734,72.0,0.0,120.0,0.0,64.0
3735,57.0,120.0,120.0,0.0,64.0
3736,59.0,0.0,120.0,0.0,64.0
3737,74.0,120.0,120.0,0.0,64.0
3738,72.0,0.0,15.0,0.0,64.0
3739,81.0,0.0,240.0,0.0,64.0
3740,60.0,120.0,120.0,0.0,64.0
3741,72.0,0.0,120.0,0.0,64.0
3742,76.0,0.0,120.0,0.0,64.0
3743,76.0,0.0,120.0,0.0,64.0
3744,57.0,0.0,120.0,0.0,64.0
3745,72.0,0.0,120.0,0.0,64.0
3746,78.0,120.0,480.0,0.0,64.0
3747,69.0,0.0,240.0,0.0,64.0
3748,72.0,0.0,480.0,0.0,64.0
3749,54.0,120.0,120.0,0.0,64.0
3750,55.0,120.0,120.0,0.0,64.0
3751,84.0,0.0,240.0,0.0,64.0
3752,57.0,120.0,120.0,0.0,64.0
3753,54.0,0.0,120.0,0.0,64.0
3754,81.0,0.0,15.0,0.0,64.0
3755,51.0,120.0,120.0,0.0,64.0
3756,83.0,120.0,720.0,0.0,64.0
3757,52.0,120.0,120.0,0.0,64.0
3758,79.0,0.0,120.0,0.0,64.0
3759,54.0,120.0,120.0,0.0,64.0
3760,78.0,0.0,120.0,0.0,64.0
3761,51.0,0.0,120.0,0.0,64.0
3762,71.0,0.0,15.0,0.0,64.0
3763,52.0,120.0,120.0,0.0,64.0
3764,54.0,0.0,120.0,0.0,64.0
3765,76.0,0.0,240.0,0.0,64.0
3766,55.0,120.0,120.0,0.0,64.0
3767,52.0,0.0,120.0,0.0,64.0
3768,54.0,120.0,120.0,0.0,64.0
3769,79.0,120.0,15.0,0.0,64.0
3770,72.0,0.0,240.0,0.0,64.0
3771,55.0,0.0,120.0,0.0,64.0
3772,69.0,0.0,15.0,0.0,64.0
3773,57.0,0.0,120.0,0.0,64.0
3774,84.0,120.0,120.0,0.0,64.0
3775,72.0,0.0,240.0,0.0,64.0
3776,54.0,0.0,120.0,0.0,64.0
3777,81.0,120.0,120.0,0.0,64.0
3778,59.0,120.0,120.0,0.0,64.0
3779,78.0,0.0,15.0,0.0,64.0
3780,75.0,0.0,480.0,0.0,64.0
3781,69.0,0.0,15.0,0.0,64.0
3782,61.0,0.0,120.0,0.0,64.0
3783,79.0,0.0,120.0,0.0,64.0
3784,63.0,120.0,120.0,0.0,64.0
3785,78.0,0.0,120.0,0.0,64.0
3786,59.0,120.0,120.0,0.0,64.0
3787,81.0,0.0,120.0,0.0,64.0
3788,79.0,0.0,120.0,0.0,64.0
3789,67.0,0.0,240.0,0.0,64.0
3790,78.0,0.0,240.0,0.0,64.0
3791,71.0,0.0,240.0,0.0,64.0
3792,64.0,120.0,120.0,0.0,64.0
3793,81.0,120.0,120.0,0.0,64.0
3794,66.0,0.0,120.0,0.0,64.0
3795,83.0,0.0,120.0,0.0,64.0
3796,71.0,120.0,240.0,0.0,64.0
3797,67.0,120.0,120.0,0.0,64.0
3798,64.0,0.0,120.0,0.0,64.0
3799,79.0,0.0,120.0,0.0,64.0
3800,76.0,0.0,15.0,0.0,64.0
3801,60.0,120.0,120.0,0.0,64.0
3802,76.0,0.0,240.0,0.0,64.0
3803,67.0,0.0,480.0,0.0,64.0
3804,72.0,120.0,480.0,0.0,64.0
3805,62.0,120.0,120.0,0.0,64.0
3806,79.0,0.0,360.0,0.0,64.0
3807,76.0,0.0,240.0,0.0,64.0
3808,64.0,120.0,120.0,0.0,64.0
3809,60.0,0.0,120.0,0.0,64.0
3810,58.0,120.0,240.0,0.0,64.0
3811,76.0,120.0,120.0,0.0,64.0
3812,78.0,0.0,120.0,0.0,64.0
3813,75.0,0.0,120.0,0.0,64.0
3814,46.0,0.0,240.0,0.0,64.0
3815,76.0,0.0,120.0,0.0,64.0
3816,79.0,120.0,120.0,0.0,64.0
3817,88.0,0.0,120.0,0.0,64.0
3818,79.0,0.0,120.0,0.0,64.0
3819,79.0,0.0,120.0,0.0,64.0
3820,46.0,0.0,240.0,0.0,64.0
3821,76.0,0.0,15.0,0.0,64.0
3822,73.0,0.0,15.0,0.0,64.0
3823,67.0,120.0,15.0,0.0,64.0
3824,78.0,120.0,120.0,0.0,64.0
3825,75.0,0.0,120.0,0.0,64.0
3826,46.0,0.0,240.0,0.0,64.0
3827,76.0,120.0,120.0,0.0,64.0
3828,79.0,0.0,15.0,0.0,64.0
3829,88.0,0.0,120.0,0.0,64.0
3830,76.0,60.0,15.0,0.0,64.0
3831,78.0,0.0,60.0,0.0,64.0
3832,67.0,0.0,240.0,0.0,64.0
3833,71.0,0.0,240.0,0.0,64.0
3834,47.0,0.0,240.0,0.0,64.0
3835,81.0,60.0,60.0,0.0,64.0
3836,76.0,60.0,60.0,0.0,64.0
3837,79.0,0.0,60.0,0.0,64.0
3838,78.0,60.0,60.0,0.0,64.0
3839,81.0,0.0,60.0,0.0,64.0
3840,76.0,0.0,60.0,0.0,64.0
3841,79.0,0.0,60.0,0.0,64.0
3842,78.0,0.0,240.0,0.0,64.0
3843,59.0,120.0,120.0,0.0,64.0
3844,75.0,0.0,240.0,0.0,64.0
3845,66.0,0.0,240.0,0.0,64.0
3846,61.0,0.0,120.0,0.0,64.0
3847,63.0,240.0,240.0,0.0,64.0
3848,71.0,240.0,15.0,0.0,64.0
3849,75.0,0.0,15.0,0.0,64.0
3850,59.0,0.0,240.0,0.0,64.0
3851,78.0,0.0,240.0,0.0,64.0
3852,64.0,0.0,240.0,0.0,64.0
3853,67.0,0.0,480.0,0.0,64.0
3854,79.0,120.0,120.0,0.0,64.0
3855,78.0,0.0,480.0,0.0,64.0
3856,83.0,120.0,120.0,0.0,64.0
3857,90.0,120.0,120.0,0.0,64.0
3858,62.0,0.0,240.0,0.0,64.0
3859,88.0,0.0,120.0,0.0,64.0
3860,81.0,60.0,60.0,0.0,64.0
3861,64.0,60.0,120.0,0.0,64.0
3862,61.0,0.0,240.0,0.0,64.0
3863,79.0,60.0,15.0,0.0,64.0
3864,79.0,0.0,60.0,0.0,64.0
3865,81.0,60.0,60.0,0.0,64.0
3866,69.0,60.0,120.0,0.0,64.0
3867,79.0,0.0,60.0,0.0,64.0
3868,57.0,120.0,240.0,0.0,64.0
3869,74.0,60.0,120.0,0.0,64.0
3870,81.0,60.0,60.0,0.0,64.0
3871,79.0,0.0,60.0,0.0,64.0
3872,78.0,60.0,60.0,0.0,64.0
3873,73.0,0.0,120.0,0.0,64.0
3874,76.0,0.0,60.0,0.0,64.0
3875,78.0,120.0,120.0,0.0,64.0
3876,76.0,0.0,15.0,0.0,64.0
3877,69.0,0.0,15.0,0.0,64.0
3878,62.0,0.0,240.0,0.0,64.0
3879,81.0,120.0,120.0,0.0,64.0
3880,88.0,120.0,120.0,0.0,64.0
3881,61.0,0.0,240.0,0.0,64.0
3882,86.0,0.0,120.0,0.0,64.0
3883,62.0,0.0,120.0,0.0,64.0
3884,79.0,60.0,60.0,0.0,64.0
3885,59.0,0.0,240.0,0.0,64.0
3886,78.0,60.0,60.0,0.0,64.0
3887,79.0,60.0,60.0,0.0,64.0
3888,66.0,60.0,120.0,0.0,64.0
3889,78.0,0.0,60.0,0.0,64.0
3890,79.0,60.0,60.0,0.0,64.0
3891,58.0,0.0,120.0,0.0,64.0
3892,73.0,60.0,120.0,0.0,64.0
3893,78.0,0.0,60.0,0.0,64.0
3894,76.0,60.0,60.0,0.0,64.0
3895,59.0,0.0,120.0,0.0,64.0
3896,71.0,0.0,120.0,0.0,64.0
3897,74.0,0.0,15.0,0.0,64.0
3898,64.0,0.0,480.0,0.0,64.0
3899,61.0,0.0,240.0,0.0,64.0
3900,76.0,120.0,120.0,0.0,64.0
3901,79.0,120.0,120.0,0.0,64.0
3902,86.0,120.0,120.0,0.0,64.0
3903,59.0,60.0,240.0,0.0,64.0
3904,85.0,0.0,120.0,0.0,64.0
3905,58.0,0.0,240.0,0.0,64.0
3906,78.0,60.0,60.0,0.0,64.0
3907,61.0,0.0,120.0,0.0,64.0
3908,76.0,60.0,60.0,0.0,64.0
3909,66.0,0.0,120.0,0.0,64.0
3910,78.0,60.0,60.0,0.0,64.0
3911,76.0,60.0,60.0,0.0,64.0
3912,54.0,0.0,240.0,0.0,64.0
3913,78.0,60.0,60.0,0.0,64.0
3914,71.0,60.0,120.0,0.0,64.0
3915,76.0,0.0,60.0,0.0,64.0
3916,74.0,60.0,60.0,0.0,64.0
3917,70.0,120.0,120.0,0.0,64.0
3918,73.0,0.0,15.0,0.0,64.0
3919,74.0,120.0,120.0,0.0,64.0
3920,66.0,0.0,480.0,0.0,64.0
3921,59.0,0.0,240.0,0.0,64.0
3922,78.0,120.0,120.0,0.0,64.0
3923,85.0,120.0,120.0,0.0,64.0
3924,57.0,0.0,240.0,0.0,64.0
3925,83.0,0.0,120.0,0.0,64.0
3926,55.0,0.0,240.0,0.0,64.0
3927,76.0,60.0,60.0,0.0,64.0
3928,67.0,0.0,480.0,0.0,64.0
3929,74.0,60.0,60.0,0.0,64.0
3930,71.0,60.0,120.0,0.0,64.0
3931,76.0,60.0,60.0,0.0,64.0
3932,74.0,0.0,60.0,0.0,64.0
3933,54.0,0.0,240.0,0.0,64.0
3934,73.0,60.0,120.0,0.0,64.0
3935,76.0,60.0,60.0,0.0,64.0
3936,74.0,0.0,60.0,0.0,64.0
3937,74.0,0.0,120.0,0.0,64.0
3938,73.0,60.0,60.0,0.0,64.0
3939,71.0,0.0,60.0,0.0,64.0
3940,83.0,120.0,3000.0,0.0,64.0
3941,71.0,120.0,15.0,0.0,64.0
3942,76.0,0.0,480.0,0.0,64.0
3943,55.0,120.0,240.0,0.0,64.0
3944,64.0,120.0,120.0,0.0,64.0
3945,67.0,0.0,120.0,0.0,64.0
3946,52.0,0.0,240.0,0.0,64.0
3947,74.0,120.0,120.0,0.0,64.0
3948,73.0,120.0,120.0,0.0,64.0
3949,57.0,0.0,240.0,0.0,64.0
3950,66.0,120.0,120.0,0.0,64.0
3951,69.0,120.0,120.0,0.0,64.0
3952,54.0,0.0,240.0,0.0,64.0
3953,76.0,120.0,120.0,0.0,64.0
3954,75.0,0.0,120.0,0.0,64.0
3955,71.0,120.0,15.0,0.0,64.0
3956,55.0,0.0,240.0,0.0,64.0
3957,76.0,120.0,120.0,0.0,64.0
3958,64.0,0.0,720.0,0.0,64.0
3959,78.0,120.0,120.0,0.0,64.0
3960,79.0,120.0,120.0,0.0,64.0
3961,59.0,120.0,240.0,0.0,64.0
3962,76.0,0.0,120.0,0.0,64.0
3963,55.0,0.0,240.0,0.0,64.0
3964,71.0,120.0,120.0,0.0,64.0
3965,73.0,0.0,120.0,0.0,64.0
3966,54.0,0.0,240.0,0.0,64.0
3967,74.0,120.0,120.0,0.0,64.0
3968,71.0,120.0,15.0,0.0,64.0
3969,66.0,0.0,240.0,0.0,64.0
3970,53.0,0.0,240.0,0.0,64.0
3971,74.0,0.0,15.0,0.0,64.0
3972,71.0,0.0,15.0,0.0,64.0
3973,68.0,120.0,120.0,0.0,64.0
3974,71.0,120.0,120.0,0.0,64.0
3975,54.0,0.0,240.0,0.0,64.0
3976,74.0,120.0,120.0,0.0,64.0
3977,73.0,120.0,15.0,0.0,64.0
3978,65.0,0.0,480.0,0.0,64.0
3979,56.0,0.0,240.0,0.0,64.0
3980,71.0,120.0,120.0,0.0,64.0
3981,74.0,120.0,120.0,0.0,64.0
3982,78.0,120.0,120.0,0.0,64.0
3983,49.0,0.0,240.0,0.0,64.0
3984,77.0,0.0,120.0,0.0,64.0
3985,54.0,0.0,240.0,0.0,64.0
3986,73.0,120.0,15.0,0.0,64.0
3987,71.0,0.0,15.0,0.0,64.0
3988,78.0,0.0,240.0,0.0,64.0
3989,66.0,120.0,240.0,0.0,64.0
3990,82.0,0.0,120.0,0.0,64.0
3991,85.0,120.0,120.0,0.0,64.0
3992,88.0,0.0,480.0,0.0,64.0
3993,42.0,0.0,240.0,0.0,64.0
3994,70.0,0.0,240.0,0.0,64.0
3995,73.0,0.0,15.0,0.0,64.0
3996,66.0,0.0,240.0,0.0,64.0
3997,83.0,120.0,120.0,0.0,64.0
3998,82.0,120.0,120.0,0.0,64.0
3999,79.0,120.0,120.0,0.0,64.0
4000,58.0,0.0,240.0,0.0,64.0
4001,78.0,120.0,120.0,0.0,64.0
4002,73.0,0.0,240.0,0.0,64.0
4003,76.0,0.0,120.0,0.0,64.0
4004,59.0,120.0,240.0,0.0,64.0
4005,78.0,120.0,120.0,0.0,64.0
4006,74.0,0.0,120.0,0.0,64.0
4007,71.0,0.0,240.0,0.0,64.0
4008,86.0,0.0,120.0,0.0,64.0
4009,78.0,0.0,120.0,0.0,64.0
4010,82.0,120.0,120.0,0.0,64.0
4011,55.0,0.0,240.0,0.0,64.0
4012,71.0,0.0,240.0,0.0,64.0
4013,74.0,120.0,240.0,0.0,64.0
4014,83.0,0.0,120.0,0.0,64.0
4015,57.0,0.0,240.0,0.0,64.0
4016,76.0,0.0,15.0,0.0,64.0
4017,73.0,0.0,120.0,0.0,64.0
4018,85.0,0.0,120.0,0.0,64.0
4019,76.0,120.0,15.0,0.0,64.0
4020,54.0,0.0,240.0,0.0,64.0
4021,69.0,0.0,15.0,0.0,64.0
4022,73.0,0.0,15.0,0.0,64.0
4023,80.0,120.0,120.0,0.0,64.0
4024,81.0,0.0,120.0,0.0,64.0
4025,55.0,0.0,240.0,0.0,64.0
4026,74.0,0.0,15.0,0.0,64.0
4027,71.0,120.0,120.0,0.0,64.0
4028,74.0,0.0,120.0,0.0,64.0
4029,83.0,0.0,120.0,0.0,64.0
4030,73.0,0.0,240.0,0.0,64.0
4031,67.0,0.0,15.0,0.0,64.0
4032,52.0,120.0,240.0,0.0,64.0
4033,71.0,120.0,15.0,0.0,64.0
4034,78.0,120.0,120.0,0.0,64.0
4035,79.0,0.0,120.0,0.0,64.0
4036,49.0,0.0,240.0,0.0,64.0
4037,70.0,120.0,120.0,0.0,64.0
4038,66.0,0.0,480.0,0.0,64.0
4039,79.0,0.0,120.0,0.0,64.0
4040,82.0,0.0,240.0,0.0,64.0
4041,42.0,0.0,240.0,0.0,64.0
4042,78.0,120.0,120.0,0.0,64.0
4043,76.0,0.0,120.0,0.0,64.0
4044,43.0,120.0,240.0,0.0,64.0
4045,71.0,0.0,240.0,0.0,64.0
4046,74.0,120.0,120.0,0.0,64.0
4047,83.0,0.0,120.0,0.0,64.0
4048,79.0,120.0,120.0,0.0,64.0
4049,67.0,0.0,240.0,0.0,64.0
4050,52.0,40.0,240.0,0.0,64.0
4051,74.0,0.0,240.0,0.0,64.0
4052,76.0,0.0,120.0,0.0,64.0
4053,85.0,0.0,120.0,0.0,64.0
4054,83.0,20.0,30.0,0.0,64.0
4055,54.0,120.0,240.0,0.0,64.0
4056,73.0,0.0,15.0,0.0,64.0
4057,70.0,0.0,480.0,0.0,64.0
4058,66.0,0.0,480.0,0.0,64.0
4059,76.0,20.0,60.0,0.0,64.0
4060,82.0,40.0,30.0,0.0,64.0
4061,74.0,60.0,60.0,0.0,64.0
4062,83.0,0.0,30.0,0.0,64.0
4063,82.0,120.0,240.0,0.0,64.0
4064,76.0,60.0,60.0,0.0,64.0
4065,74.0,0.0,60.0,0.0,64.0
4066,73.0,0.0,120.0,0.0,64.0
4067,42.0,0.0,240.0,0.0,64.0
4068,83.0,0.0,120.0,0.0,64.0
4069,71.0,120.0,15.0,0.0,64.0
4070,47.0,0.0,480.0,0.0,64.0
4071,83.0,0.0,480.0,0.0,64.0
4072,62.0,120.0,480.0,0.0,64.0
4073,71.0,120.0,120.0,0.0,64.0
4074,66.0,120.0,120.0,0.0,64.0
4075,71.0,120.0,120.0,0.0,64.0
4076,73.0,0.0,120.0,0.0,64.0
4077,74.0,120.0,120.0,0.0,64.0
4078,71.0,120.0,120.0,0.0,64.0
4079,66.0,0.0,240.0,0.0,64.0
4080,74.0,120.0,120.0,0.0,64.0
4081,76.0,360.0,120.0,0.0,64.0
4082,71.0,60.0,120.0,0.0,64.0
4083,66.0,0.0,240.0,0.0,64.0
4084,59.0,0.0,240.0,0.0,64.0
4085,73.0,60.0,60.0,0.0,64.0
4086,74.0,0.0,60.0,0.0,64.0
4087,66.0,0.0,240.0,0.0,64.0
4088,78.0,0.0,240.0,0.0,64.0
4089,73.0,120.0,240.0,0.0,64.0
4090,58.0,0.0,240.0,0.0,64.0
4091,70.0,120.0,240.0,0.0,64.0
4092,73.0,60.0,120.0,0.0,64.0
4093,78.0,0.0,240.0,0.0,64.0
4094,54.0,0.0,240.0,0.0,64.0
4095,74.0,60.0,60.0,0.0,64.0
4096,76.0,0.0,60.0,0.0,64.0
4097,78.0,120.0,120.0,0.0,64.0
4098,47.0,0.0,480.0,0.0,64.0
4099,74.0,0.0,120.0,0.0,64.0
4100,73.0,0.0,120.0,0.0,64.0
4101,76.0,120.0,120.0,0.0,64.0
4102,71.0,120.0,120.0,0.0,64.0
4103,74.0,0.0,120.0,0.0,64.0
4104,73.0,120.0,120.0,0.0,64.0
4105,70.0,0.0,120.0,0.0,64.0
4106,50.0,0.0,480.0,0.0,64.0
4107,71.0,120.0,120.0,0.0,64.0
4108,78.0,120.0,120.0,0.0,64.0
4109,74.0,120.0,120.0,0.0,64.0
4110,71.0,0.0,120.0,0.0,64.0
4111,54.0,0.0,480.0,0.0,64.0
4112,70.0,120.0,120.0,0.0,64.0
4113,66.0,120.0,120.0,0.0,64.0
4114,90.0,0.0,480.0,0.0,64.0
4115,70.0,120.0,120.0,0.0,64.0
4116,73.0,0.0,120.0,0.0,64.0
4117,78.0,0.0,15.0,0.0,64.0
4118,55.0,0.0,480.0,0.0,64.0
4119,71.0,120.0,120.0,0.0,64.0
4120,70.0,120.0,120.0,0.0,64.0
4121,71.0,0.0,15.0,0.0,64.0
4122,89.0,0.0,240.0,0.0,64.0
4123,77.0,0.0,240.0,0.0,64.0
4124,71.0,120.0,120.0,0.0,64.0
4125,74.0,0.0,120.0,0.0,64.0
4126,46.0,120.0,480.0,0.0,64.0
4127,90.0,120.0,240.0,0.0,64.0
4128,78.0,0.0,480.0,0.0,64.0
4129,73.0,120.0,120.0,0.0,64.0
4130,71.0,0.0,120.0,0.0,64.0
4131,70.0,120.0,120.0,0.0,64.0
4132,85.0,0.0,240.0,0.0,64.0
4133,68.0,0.0,120.0,0.0,64.0
4134,86.0,0.0,720.0,0.0,64.0
4135,66.0,0.0,15.0,0.0,64.0
4136,73.0,120.0,120.0,0.0,64.0
4137,54.0,0.0,240.0,0.0,64.0
4138,74.0,120.0,120.0,0.0,64.0
4139,66.0,0.0,240.0,0.0,64.0
4140,70.0,0.0,120.0,0.0,64.0
4141,74.0,0.0,15.0,0.0,64.0
4142,53.0,0.0,480.0,0.0,64.0
4143,71.0,120.0,120.0,0.0,64.0
4144,70.0,120.0,120.0,0.0,64.0
4145,71.0,0.0,15.0,0.0,64.0
4146,68.0,0.0,15.0,0.0,64.0
4147,73.0,0.0,240.0,0.0,64.0
4148,85.0,0.0,240.0,0.0,64.0
4149,71.0,120.0,120.0,0.0,64.0
4150,79.0,120.0,120.0,0.0,64.0
4151,67.0,0.0,480.0,0.0,64.0
4152,52.0,0.0,480.0,0.0,64.0
4153,76.0,0.0,480.0,0.0,64.0
4154,79.0,120.0,120.0,0.0,64.0
4155,78.0,120.0,120.0,0.0,64.0
4156,84.0,0.0,480.0,0.0,64.0
4157,79.0,120.0,120.0,0.0,64.0
4158,72.0,120.0,15.0,0.0,64.0
4159,51.0,0.0,480.0,0.0,64.0
4160,69.0,0.0,15.0,0.0,64.0
4161,68.0,120.0,120.0,0.0,64.0
4162,71.0,0.0,240.0,0.0,64.0
4163,66.0,0.0,15.0,0.0,64.0
4164,83.0,0.0,240.0,0.0,64.0
4165,69.0,120.0,120.0,0.0,64.0
4166,78.0,0.0,15.0,0.0,64.0
4167,78.0,0.0,15.0,0.0,64.0
4168,50.0,0.0,720.0,0.0,64.0
4169,66.0,0.0,480.0,0.0,64.0
4170,78.0,120.0,120.0,0.0,64.0
4171,77.0,120.0,120.0,0.0,64.0
4172,83.0,0.0,480.0,0.0,64.0
4173,78.0,120.0,120.0,0.0,64.0
4174,67.0,0.0,120.0,0.0,64.0
4175,71.0,0.0,15.0,0.0,64.0
4176,67.0,120.0,120.0,0.0,64.0
4177,66.0,0.0,120.0,0.0,64.0
4178,49.0,0.0,240.0,0.0,64.0
4179,67.0,0.0,15.0,0.0,64.0
4180,82.0,0.0,240.0,0.0,64.0
4181,76.0,0.0,15.0,0.0,64.0
4182,70.0,120.0,240.0,0.0,64.0
4183,67.0,120.0,120.0,0.0,64.0
4184,76.0,0.0,120.0,0.0,64.0
4185,76.0,0.0,15.0,0.0,64.0
4186,48.0,120.0,240.0,0.0,64.0
4187,76.0,120.0,120.0,0.0,64.0
4188,71.0,120.0,480.0,0.0,64.0
4189,75.0,0.0,120.0,0.0,64.0
4190,78.0,0.0,120.0,0.0,64.0
4191,79.0,0.0,120.0,0.0,64.0
4192,47.0,0.0,240.0,0.0,64.0
4193,76.0,120.0,120.0,0.0,64.0
4194,83.0,0.0,120.0,0.0,64.0
4195,67.0,0.0,120.0,0.0,64.0
4196,67.0,0.0,15.0,0.0,64.0
4197,46.0,0.0,240.0,0.0,64.0
4198,73.0,0.0,480.0,0.0,64.0
4199,76.0,0.0,480.0,0.0,64.0
4200,88.0,120.0,120.0,0.0,64.0
4201,85.0,120.0,120.0,0.0,64.0
4202,44.0,0.0,120.0,0.0,64.0
4203,66.0,0.0,240.0,0.0,64.0
4204,82.0,120.0,120.0,0.0,64.0
4205,88.0,0.0,120.0,0.0,64.0
4206,42.0,120.0,120.0,0.0,64.0
4207,74.0,0.0,240.0,0.0,64.0
4208,71.0,0.0,240.0,0.0,64.0
4209,66.0,0.0,15.0,0.0,64.0
4210,86.0,120.0,120.0,0.0,64.0
4211,47.0,0.0,240.0,0.0,64.0
4212,83.0,0.0,120.0,0.0,64.0
4213,73.0,60.0,240.0,0.0,64.0
4214,70.0,0.0,240.0,0.0,64.0
4215,66.0,120.0,15.0,0.0,64.0
4216,52.0,0.0,240.0,0.0,64.0
4217,85.0,120.0,120.0,0.0,64.0
4218,82.0,0.0,120.0,0.0,64.0
4219,79.0,60.0,60.0,0.0,64.0
4220,66.0,0.0,15.0,0.0,64.0
4221,50.0,60.0,240.0,0.0,64.0
4222,83.0,0.0,120.0,0.0,64.0
4223,78.0,60.0,60.0,0.0,64.0
4224,79.0,60.0,60.0,0.0,64.0
4225,78.0,0.0,60.0,0.0,64.0
4226,83.0,0.0,480.0,0.0,64.0
4227,79.0,60.0,60.0,0.0,64.0
4228,55.0,0.0,240.0,0.0,64.0
4229,78.0,60.0,60.0,0.0,64.0
4230,76.0,60.0,60.0,0.0,64.0
4231,74.0,60.0,60.0,0.0,64.0
4232,67.0,0.0,240.0,0.0,64.0
4233,71.0,0.0,15.0,0.0,64.0
4234,78.0,60.0,60.0,0.0,64.0
4235,49.0,0.0,240.0,0.0,64.0
4236,76.0,60.0,60.0,0.0,64.0
4237,78.0,60.0,60.0,0.0,64.0
4238,66.0,0.0,240.0,0.0,64.0
4239,82.0,0.0,240.0,0.0,64.0
4240,76.0,0.0,15.0,0.0,64.0
4241,70.0,120.0,240.0,0.0,64.0
4242,54.0,0.0,240.0,0.0,64.0
4243,78.0,60.0,60.0,0.0,64.0
4244,76.0,60.0,60.0,0.0,64.0
4245,74.0,60.0,60.0,0.0,64.0
4246,73.0,0.0,60.0,0.0,64.0
4247,83.0,120.0,480.0,0.0,64.0
4248,47.0,0.0,240.0,0.0,64.0
4249,71.0,0.0,480.0,0.0,64.0
4250,74.0,120.0,120.0,0.0,64.0
4251,66.0,0.0,480.0,0.0,64.0
4252,76.0,120.0,120.0,0.0,64.0
4253,49.0,0.0,240.0,0.0,64.0
4254,78.0,120.0,120.0,0.0,64.0
4255,78.0,0.0,480.0,0.0,64.0
4256,50.0,120.0,240.0,0.0,64.0
4257,74.0,0.0,15.0,0.0,64.0
4258,71.0,120.0,120.0,0.0,64.0
4259,73.0,0.0,120.0,0.0,64.0
4260,74.0,120.0,120.0,0.0,64.0
4261,47.0,0.0,240.0,0.0,64.0
4262,71.0,0.0,120.0,0.0,64.0
4263,52.0,120.0,240.0,0.0,64.0
4264,83.0,120.0,15.0,0.0,64.0
4265,79.0,0.0,480.0,0.0,64.0
4266,72.0,120.0,120.0,0.0,64.0
4267,71.0,0.0,120.0,0.0,64.0
4268,72.0,120.0,120.0,0.0,64.0
4269,69.0,0.0,240.0,0.0,64.0
4270,57.0,120.0,240.0,0.0,64.0
4271,81.0,0.0,15.0,0.0,64.0
4272,72.0,0.0,15.0,0.0,64.0
4273,54.0,120.0,240.0,0.0,64.0
4274,81.0,120.0,120.0,0.0,64.0
4275,79.0,0.0,120.0,0.0,64.0
4276,81.0,120.0,120.0,0.0,64.0
4277,50.0,120.0,240.0,0.0,64.0
4278,72.0,0.0,120.0,0.0,64.0
4279,72.0,0.0,15.0,0.0,64.0
4280,81.0,0.0,15.0,0.0,64.0
4281,74.0,0.0,15.0,0.0,64.0
4282,55.0,0.0,240.0,0.0,64.0
4283,72.0,0.0,120.0,0.0,64.0
4284,74.0,120.0,120.0,0.0,64.0
4285,71.0,0.0,240.0,0.0,64.0
4286,59.0,0.0,240.0,0.0,64.0
4287,83.0,120.0,15.0,0.0,64.0
4288,71.0,0.0,15.0,0.0,64.0
4289,56.0,120.0,240.0,0.0,64.0
4290,83.0,120.0,120.0,0.0,64.0
4291,81.0,0.0,120.0,0.0,64.0
4292,52.0,0.0,240.0,0.0,64.0
4293,83.0,120.0,120.0,0.0,64.0
4294,74.0,0.0,120.0,0.0,64.0
4295,76.0,120.0,15.0,0.0,64.0
4296,74.0,0.0,240.0,0.0,64.0
4297,57.0,0.0,240.0,0.0,64.0
4298,75.0,120.0,120.0,0.0,64.0
4299,72.0,0.0,240.0,0.0,64.0
4300,76.0,120.0,120.0,0.0,64.0
4301,60.0,0.0,240.0,0.0,64.0
4302,84.0,0.0,120.0,0.0,64.0
4303,57.0,0.0,240.0,0.0,64.0
4304,84.0,120.0,120.0,0.0,64.0
4305,81.0,0.0,15.0,0.0,64.0
4306,78.0,0.0,480.0,0.0,64.0
4307,76.0,0.0,15.0,0.0,64.0
4308,72.0,120.0,15.0,0.0,64.0
4309,83.0,120.0,120.0,0.0,64.0
4310,81.0,0.0,240.0,0.0,64.0
4311,54.0,120.0,240.0,0.0,64.0
4312,84.0,120.0,120.0,0.0,64.0
4313,76.0,0.0,120.0,0.0,64.0
4314,76.0,0.0,15.0,0.0,64.0
4315,59.0,0.0,240.0,0.0,64.0
4316,81.0,120.0,120.0,0.0,64.0
4317,71.0,0.0,480.0,0.0,64.0
4318,78.0,0.0,480.0,0.0,64.0
4319,79.0,120.0,120.0,0.0,64.0
4320,75.0,0.0,240.0,0.0,64.0
4321,61.0,0.0,240.0,0.0,64.0
4322,81.0,120.0,120.0,0.0,64.0
4323,90.0,0.0,15.0,0.0,64.0
4324,63.0,0.0,240.0,0.0,64.0
4325,88.0,120.0,120.0,0.0,64.0
4326,90.0,120.0,120.0,0.0,64.0
4327,59.0,0.0,240.0,0.0,64.0
4328,81.0,0.0,120.0,0.0,64.0
4329,71.0,120.0,15.0,0.0,64.0
4330,79.0,120.0,120.0,0.0,64.0
4331,78.0,0.0,15.0,0.0,64.0
4332,64.0,0.0,240.0,0.0,64.0
4333,78.0,0.0,120.0,0.0,64.0
4334,62.0,0.0,240.0,0.0,64.0
4335,79.0,120.0,120.0,0.0,64.0
4336,60.0,120.0,240.0,0.0,64.0
4337,72.0,0.0,480.0,0.0,64.0
4338,88.0,0.0,15.0,0.0,64.0
4339,76.0,120.0,15.0,0.0,64.0
4340,87.0,0.0,120.0,0.0,64.0
4341,88.0,120.0,120.0,0.0,64.0
4342,59.0,0.0,240.0,0.0,64.0
4343,79.0,0.0,120.0,0.0,64.0
4344,57.0,60.0,360.0,0.0,64.0
4345,72.0,0.0,480.0,0.0,64.0
4346,76.0,0.0,15.0,0.0,64.0
4347,77.0,120.0,120.0,0.0,64.0
4348,76.0,0.0,120.0,0.0,64.0
4349,74.0,0.0,240.0,0.0,64.0
4350,77.0,0.0,120.0,0.0,64.0
4351,59.0,60.0,60.0,0.0,64.0
4352,60.0,0.0,60.0,0.0,64.0
4353,86.0,120.0,15.0,0.0,64.0
4354,77.0,0.0,15.0,0.0,64.0
4355,59.0,60.0,360.0,0.0,64.0
4356,84.0,120.0,120.0,0.0,64.0
4357,79.0,0.0,480.0,0.0,64.0
4358,86.0,0.0,120.0,0.0,64.0
4359,60.0,60.0,60.0,0.0,64.0
4360,77.0,0.0,120.0,0.0,64.0
4361,62.0,120.0,60.0,0.0,64.0
4362,74.0,0.0,15.0,0.0,64.0
4363,76.0,120.0,120.0,0.0,64.0
4364,67.0,0.0,15.0,0.0,64.0
4365,60.0,0.0,240.0,0.0,64.0
4366,74.0,120.0,120.0,0.0,64.0
4367,80.0,120.0,240.0,0.0,64.0
4368,76.0,120.0,120.0,0.0,64.0
4369,59.0,0.0,240.0,0.0,64.0
4370,84.0,0.0,120.0,0.0,64.0
4371,57.0,120.0,240.0,0.0,64.0
4372,84.0,120.0,120.0,0.0,64.0
4373,81.0,0.0,240.0,0.0,64.0
4374,83.0,0.0,120.0,0.0,64.0
4375,55.0,0.0,240.0,0.0,64.0
4376,84.0,120.0,120.0,0.0,64.0
4377,72.0,0.0,240.0,0.0,64.0
4378,76.0,0.0,120.0,0.0,64.0
4379,54.0,60.0,360.0,0.0,64.0
4380,81.0,0.0,480.0,0.0,64.0
4381,74.0,120.0,120.0,0.0,64.0
4382,72.0,0.0,120.0,0.0,64.0
4383,71.0,0.0,240.0,0.0,64.0
4384,74.0,0.0,120.0,0.0,64.0
4385,83.0,0.0,120.0,0.0,64.0
4386,56.0,60.0,60.0,0.0,64.0
4387,57.0,120.0,60.0,0.0,64.0
4388,83.0,120.0,120.0,0.0,64.0
4389,71.0,0.0,480.0,0.0,64.0
4390,56.0,60.0,360.0,0.0,64.0
4391,81.0,120.0,120.0,0.0,64.0
4392,76.0,0.0,240.0,0.0,64.0
4393,83.0,0.0,120.0,0.0,64.0
4394,57.0,60.0,60.0,0.0,64.0
4395,59.0,0.0,60.0,0.0,64.0
4396,74.0,0.0,15.0,0.0,64.0
4397,57.0,120.0,240.0,0.0,64.0
4398,71.0,0.0,480.0,0.0,64.0
4399,76.0,120.0,120.0,0.0,64.0
4400,74.0,0.0,120.0,0.0,64.0
4401,76.0,120.0,120.0,0.0,64.0
4402,72.0,0.0,240.0,0.0,64.0
4403,55.0,120.0,240.0,0.0,64.0
4404,81.0,0.0,120.0,0.0,64.0
4405,81.0,120.0,120.0,0.0,64.0
4406,72.0,0.0,15.0,0.0,64.0
4407,69.0,0.0,480.0,0.0,64.0
4408,54.0,120.0,240.0,0.0,64.0
4409,80.0,0.0,120.0,0.0,64.0
4410,52.0,0.0,240.0,0.0,64.0
4411,81.0,120.0,120.0,0.0,64.0
4412,72.0,0.0,120.0,0.0,64.0
4413,51.0,60.0,360.0,0.0,64.0
4414,78.0,0.0,480.0,0.0,64.0
4415,81.0,0.0,15.0,0.0,64.0
4416,71.0,120.0,120.0,0.0,64.0
4417,69.0,0.0,120.0,0.0,64.0
4418,71.0,0.0,120.0,0.0,64.0
4419,52.0,60.0,60.0,0.0,64.0
4420,54.0,0.0,60.0,0.0,64.0
4421,52.0,0.0,360.0,0.0,64.0
4422,79.0,0.0,15.0,0.0,64.0
4423,78.0,120.0,120.0,0.0,64.0
4424,79.0,60.0,120.0,0.0,64.0
4425,71.0,0.0,120.0,0.0,64.0
4426,54.0,60.0,60.0,0.0,64.0
4427,55.0,0.0,60.0,0.0,64.0
4428,76.0,0.0,480.0,0.0,64.0
4429,69.0,120.0,120.0,0.0,64.0
4430,79.0,0.0,15.0,0.0,64.0
4431,49.0,0.0,360.0,0.0,64.0
4432,67.0,0.0,120.0,0.0,64.0
4433,69.0,60.0,120.0,0.0,64.0
4434,51.0,60.0,60.0,0.0,64.0
4435,52.0,0.0,60.0,0.0,64.0
4436,51.0,60.0,360.0,0.0,64.0
4437,78.0,0.0,15.0,0.0,64.0
4438,76.0,120.0,120.0,0.0,64.0
4439,78.0,0.0,120.0,0.0,64.0
4440,69.0,0.0,120.0,0.0,64.0
4441,52.0,60.0,60.0,0.0,64.0
4442,54.0,0.0,60.0,0.0,64.0
4443,71.0,0.0,15.0,0.0,64.0
4444,67.0,120.0,120.0,0.0,64.0
4445,52.0,0.0,240.0,0.0,64.0
4446,71.0,0.0,120.0,0.0,64.0
4447,76.0,0.0,15.0,0.0,64.0
4448,67.0,0.0,15.0,0.0,64.0
4449,48.0,240.0,240.0,0.0,64.0
4450,76.0,60.0,120.0,0.0,64.0
4451,78.0,60.0,60.0,0.0,64.0
4452,79.0,0.0,60.0,0.0,64.0
4453,76.0,0.0,15.0,0.0,64.0
4454,72.0,0.0,15.0,0.0,64.0
4455,66.0,0.0,240.0,0.0,64.0
4456,45.0,0.0,240.0,0.0,64.0
4457,78.0,60.0,360.0,0.0,64.0
4458,71.0,0.0,240.0,0.0,64.0
4459,47.0,0.0,240.0,0.0,64.0
4460,66.0,0.0,240.0,0.0,64.0
4461,75.0,0.0,240.0,0.0,64.0
4462,79.0,60.0,60.0,0.0,64.0
4463,81.0,0.0,60.0,0.0,64.0
4464,67.0,0.0,480.0,0.0,64.0
4465,71.0,0.0,480.0,0.0,64.0
4466,52.0,0.0,480.0,0.0,64.0
4467,79.0,120.0,120.0,0.0,64.0
4468,78.0,120.0,120.0,0.0,64.0
4469,76.0,120.0,120.0,0.0,64.0
4470,75.0,0.0,120.0,0.0,64.0
4471,76.0,0.0,15.0,0.0,64.0
4472,55.0,0.0,480.0,0.0,64.0
4473,83.0,120.0,120.0,0.0,64.0
4474,79.0,120.0,120.0,0.0,64.0
4475,76.0,0.0,120.0,0.0,64.0
4476,83.0,0.0,15.0,0.0,64.0
4477,59.0,120.0,480.0,0.0,64.0
4478,75.0,120.0,120.0,0.0,64.0
4479,71.0,120.0,120.0,0.0,64.0
4480,83.0,0.0,240.0,0.0,64.0
4481,75.0,120.0,120.0,0.0,64.0
4482,78.0,0.0,15.0,0.0,64.0
4483,83.0,0.0,240.0,0.0,64.0
4484,76.0,120.0,120.0,0.0,64.0
4485,60.0,0.0,480.0,0.0,64.0
4486,75.0,0.0,120.0,0.0,64.0
4487,76.0,0.0,15.0,0.0,64.0
4488,76.0,120.0,120.0,0.0,64.0
4489,82.0,0.0,240.0,0.0,64.0
4490,79.0,0.0,120.0,0.0,64.0
4491,51.0,120.0,480.0,0.0,64.0
4492,71.0,0.0,480.0,0.0,64.0
4493,78.0,120.0,120.0,0.0,64.0
4494,83.0,0.0,240.0,0.0,64.0
4495,76.0,120.0,120.0,0.0,64.0
4496,78.0,0.0,240.0,0.0,64.0
4497,75.0,120.0,120.0,0.0,64.0
4498,73.0,0.0,120.0,0.0,64.0
4499,71.0,120.0,120.0,0.0,64.0
4500,78.0,120.0,120.0,0.0,64.0
4501,59.0,0.0,240.0,0.0,64.0
4502,71.0,0.0,240.0,0.0,64.0
4503,79.0,120.0,120.0,0.0,64.0
4504,75.0,0.0,120.0,0.0,64.0
4505,58.0,0.0,480.0,0.0,64.0
4506,76.0,120.0,120.0,0.0,64.0
4507,79.0,0.0,240.0,0.0,64.0
4508,75.0,0.0,120.0,0.0,64.0
4509,76.0,0.0,15.0,0.0,64.0
4510,78.0,0.0,240.0,0.0,64.0
4511,73.0,0.0,15.0,0.0,64.0
4512,84.0,0.0,120.0,0.0,64.0
4513,81.0,0.0,480.0,0.0,64.0
4514,57.0,0.0,480.0,0.0,64.0
4515,84.0,120.0,120.0,0.0,64.0
4516,72.0,0.0,480.0,0.0,64.0
4517,83.0,120.0,120.0,0.0,64.0
4518,84.0,120.0,120.0,0.0,64.0
4519,74.0,0.0,120.0,0.0,64.0
4520,83.0,120.0,240.0,0.0,64.0
4521,56.0,0.0,480.0,0.0,64.0
4522,77.0,120.0,15.0,0.0,64.0
4523,74.0,120.0,120.0,0.0,64.0
4524,73.0,0.0,120.0,0.0,64.0
4525,74.0,120.0,120.0,0.0,64.0
4526,71.0,0.0,15.0,0.0,64.0
4527,76.0,0.0,240.0,0.0,64.0
4528,83.0,0.0,120.0,0.0,64.0
4529,55.0,0.0,480.0,0.0,64.0
4530,83.0,0.0,15.0,0.0,64.0
4531,76.0,120.0,15.0,0.0,64.0
4532,71.0,120.0,480.0,0.0,64.0
4533,81.0,120.0,120.0,0.0,64.0
4534,83.0,120.0,120.0,0.0,64.0
4535,76.0,0.0,240.0,0.0,64.0
4536,72.0,0.0,120.0,0.0,64.0
4537,72.0,120.0,120.0,0.0,64.0
4538,76.0,0.0,240.0,0.0,64.0
4539,71.0,0.0,120.0,0.0,64.0
4540,54.0,0.0,240.0,0.0,64.0
4541,81.0,0.0,15.0,0.0,64.0
4542,72.0,0.0,15.0,0.0,64.0
4543,75.0,0.0,240.0,0.0,64.0
4544,81.0,0.0,120.0,0.0,64.0
4545,81.0,0.0,15.0,0.0,64.0
4546,53.0,0.0,240.0,0.0,64.0
4547,81.0,120.0,120.0,0.0,64.0
4548,74.0,0.0,240.0,0.0,64.0
4549,71.0,120.0,120.0,0.0,64.0
4550,80.0,0.0,120.0,0.0,64.0
4551,81.0,0.0,15.0,0.0,64.0
4552,69.0,0.0,15.0,0.0,64.0
4553,52.0,0.0,240.0,0.0,64.0
4554,81.0,0.0,120.0,0.0,64.0
4555,72.0,120.0,15.0,0.0,64.0
4556,76.0,120.0,120.0,0.0,64.0
4557,72.0,0.0,15.0,0.0,64.0
4558,69.0,0.0,15.0,0.0,64.0
4559,51.0,120.0,240.0,0.0,64.0
4560,81.0,120.0,120.0,0.0,64.0
4561,78.0,0.0,120.0,0.0,64.0
4562,71.0,0.0,240.0,0.0,64.0
4563,75.0,0.0,120.0,0.0,64.0
4564,49.0,120.0,120.0,0.0,64.0
4565,81.0,0.0,120.0,0.0,64.0
4566,47.0,120.0,120.0,0.0,64.0
4567,67.0,0.0,240.0,0.0,64.0
4568,71.0,0.0,15.0,0.0,64.0
4569,79.0,120.0,120.0,0.0,64.0
4570,52.0,120.0,240.0,0.0,64.0
4571,76.0,0.0,120.0,0.0,64.0
4572,78.0,120.0,120.0,0.0,64.0
4573,71.0,0.0,240.0,0.0,64.0
4574,66.0,0.0,240.0,0.0,64.0
4575,57.0,0.0,240.0,0.0,64.0
4576,75.0,0.0,120.0,0.0,64.0
4577,84.0,60.0,60.0,0.0,64.0
4578,55.0,0.0,240.0,0.0,64.0
4579,76.0,60.0,120.0,0.0,64.0
4580,71.0,0.0,15.0,0.0,64.0
4581,67.0,0.0,480.0,0.0,64.0
4582,83.0,0.0,60.0,0.0,64.0
4583,71.0,60.0,120.0,0.0,64.0
4584,84.0,60.0,60.0,0.0,64.0
4585,83.0,0.0,60.0,0.0,64.0
4586,76.0,0.0,240.0,0.0,64.0
4587,60.0,60.0,240.0,0.0,64.0
4588,84.0,60.0,60.0,0.0,64.0
4589,83.0,60.0,60.0,0.0,64.0
4590,81.0,60.0,60.0,0.0,64.0
4591,79.0,0.0,60.0,0.0,64.0
4592,54.0,60.0,240.0,0.0,64.0
4593,76.0,0.0,240.0,0.0,64.0
4594,83.0,60.0,60.0,0.0,64.0
4595,81.0,60.0,60.0,0.0,64.0
4596,83.0,60.0,60.0,0.0,64.0
4597,81.0,0.0,60.0,0.0,64.0
4598,59.0,0.0,240.0,0.0,64.0
4599,69.0,0.0,15.0,0.0,64.0
4600,66.0,0.0,15.0,0.0,64.0
4601,83.0,60.0,60.0,0.0,64.0
4602,75.0,0.0,240.0,0.0,64.0
4603,81.0,60.0,60.0,0.0,64.0
4604,79.0,60.0,60.0,0.0,64.0
4605,78.0,0.0,60.0,0.0,64.0
4606,52.0,120.0,240.0,0.0,64.0
4607,79.0,120.0,120.0,0.0,64.0
4608,67.0,120.0,480.0,0.0,64.0
4609,64.0,0.0,480.0,0.0,64.0
4610,81.0,0.0,120.0,0.0,64.0
4611,54.0,0.0,240.0,0.0,64.0
4612,83.0,120.0,120.0,0.0,64.0
4613,79.0,0.0,120.0,0.0,64.0
4614,76.0,0.0,15.0,0.0,64.0
4615,76.0,120.0,120.0,0.0,64.0
4616,55.0,0.0,240.0,0.0,64.0
4617,74.0,120.0,120.0,0.0,64.0
4618,52.0,120.0,240.0,0.0,64.0
4619,72.0,120.0,120.0,0.0,64.0
4620,71.0,0.0,15.0,0.0,64.0
4621,57.0,0.0,240.0,0.0,64.0
4622,72.0,120.0,120.0,0.0,64.0
4623,76.0,120.0,120.0,0.0,64.0
4624,55.0,0.0,240.0,0.0,64.0
4625,83.0,120.0,120.0,0.0,64.0
4626,81.0,60.0,15.0,0.0,64.0
4627,54.0,0.0,240.0,0.0,64.0
4628,74.0,60.0,60.0,0.0,64.0
4629,72.0,0.0,60.0,0.0,64.0
4630,74.0,60.0,60.0,0.0,64.0
4631,86.0,0.0,120.0,0.0,64.0
4632,72.0,60.0,60.0,0.0,64.0
4633,50.0,0.0,240.0,0.0,64.0
4634,91.0,60.0,120.0,0.0,64.0
4635,74.0,60.0,60.0,0.0,64.0
4636,72.0,0.0,60.0,0.0,64.0
4637,71.0,60.0,60.0,0.0,64.0
4638,90.0,0.0,120.0,0.0,64.0
4639,69.0,0.0,60.0,0.0,64.0
4640,55.0,120.0,240.0,0.0,64.0
4641,71.0,120.0,120.0,0.0,64.0
4642,74.0,0.0,120.0,0.0,64.0
4643,81.0,120.0,120.0,0.0,64.0
4644,54.0,60.0,240.0,0.0,64.0
4645,71.0,0.0,15.0,0.0,64.0
4646,76.0,0.0,480.0,0.0,64.0
4647,79.0,0.0,15.0,0.0,64.0
4648,72.0,60.0,60.0,0.0,64.0
4649,52.0,0.0,240.0,0.0,64.0
4650,71.0,60.0,60.0,0.0,64.0
4651,72.0,60.0,60.0,0.0,64.0
4652,83.0,0.0,120.0,0.0,64.0
4653,71.0,60.0,60.0,0.0,64.0
4654,72.0,60.0,60.0,0.0,64.0
4655,90.0,0.0,120.0,0.0,64.0
4656,51.0,0.0,120.0,0.0,64.0
4657,71.0,60.0,60.0,0.0,64.0
4658,69.0,60.0,60.0,0.0,64.0
4659,52.0,0.0,120.0,0.0,64.0
4660,88.0,120.0,120.0,0.0,64.0
4661,67.0,0.0,60.0,0.0,64.0
4662,54.0,120.0,240.0,0.0,64.0
4663,81.0,0.0,480.0,0.0,64.0
4664,69.0,120.0,120.0,0.0,64.0
4665,72.0,0.0,120.0,0.0,64.0
4666,52.0,0.0,240.0,0.0,64.0
4667,79.0,120.0,120.0,0.0,64.0
4668,78.0,0.0,120.0,0.0,64.0
4669,71.0,60.0,60.0,0.0,64.0
4670,78.0,60.0,120.0,0.0,64.0
4671,51.0,0.0,240.0,0.0,64.0
4672,69.0,0.0,60.0,0.0,64.0
4673,71.0,60.0,60.0,0.0,64.0
4674,81.0,60.0,120.0,0.0,64.0
4675,69.0,0.0,60.0,0.0,64.0
4676,47.0,120.0,240.0,0.0,64.0
4677,71.0,60.0,60.0,0.0,64.0
4678,88.0,60.0,120.0,0.0,64.0
4679,69.0,0.0,60.0,0.0,64.0
4680,67.0,60.0,60.0,0.0,64.0
4681,87.0,0.0,120.0,0.0,64.0
4682,66.0,0.0,60.0,0.0,64.0
4683,52.0,120.0,240.0,0.0,64.0
4684,79.0,0.0,480.0,0.0,64.0
4685,67.0,120.0,120.0,0.0,64.0
4686,71.0,0.0,120.0,0.0,64.0
4687,78.0,120.0,120.0,0.0,64.0
4688,50.0,0.0,240.0,0.0,64.0
4689,76.0,60.0,120.0,0.0,64.0
4690,48.0,0.0,240.0,0.0,64.0
4691,69.0,60.0,60.0,0.0,64.0
4692,67.0,60.0,60.0,0.0,64.0
4693,76.0,60.0,120.0,0.0,64.0
4694,69.0,60.0,60.0,0.0,64.0
4695,67.0,0.0,60.0,0.0,64.0
4696,78.0,60.0,120.0,0.0,64.0
4697,47.0,0.0,240.0,0.0,64.0
4698,69.0,60.0,60.0,0.0,64.0
4699,67.0,0.0,60.0,0.0,64.0
4700,66.0,60.0,60.0,0.0,64.0
4701,79.0,0.0,120.0,0.0,64.0
4702,64.0,0.0,60.0,0.0,64.0
4703,69.0,120.0,120.0,0.0,64.0
4704,48.0,0.0,240.0,0.0,64.0
4705,72.0,0.0,15.0,0.0,64.0
4706,76.0,120.0,15.0,0.0,64.0
4707,81.0,120.0,480.0,0.0,64.0
4708,72.0,120.0,120.0,0.0,64.0
4709,45.0,0.0,240.0,0.0,64.0
4710,79.0,120.0,120.0,0.0,64.0
4711,78.0,0.0,120.0,0.0,64.0
4712,50.0,0.0,240.0,0.0,64.0
4713,76.0,0.0,15.0,0.0,64.0
4714,71.0,120.0,120.0,0.0,64.0
4715,74.0,120.0,120.0,0.0,64.0
4716,81.0,120.0,120.0,0.0,64.0
4717,47.0,0.0,240.0,0.0,64.0
4718,80.0,0.0,120.0,0.0,64.0
4719,48.0,0.0,240.0,0.0,64.0
4720,69.0,0.0,720.0,0.0,64.0
4721,81.0,120.0,120.0,0.0,64.0
4722,83.0,120.0,120.0,0.0,64.0
4723,52.0,120.0,240.0,0.0,64.0
4724,84.0,120.0,120.0,0.0,64.0
4725,81.0,0.0,120.0,0.0,64.0
4726,76.0,120.0,120.0,0.0,64.0
4727,48.0,120.0,240.0,0.0,64.0
4728,78.0,0.0,120.0,0.0,64.0
4729,47.0,0.0,240.0,0.0,64.0
4730,71.0,0.0,240.0,0.0,64.0
4731,79.0,120.0,120.0,0.0,64.0
4732,79.0,0.0,15.0,0.0,64.0
4733,76.0,0.0,15.0,0.0,64.0
4734,73.0,120.0,120.0,0.0,64.0
4735,46.0,120.0,240.0,0.0,64.0
4736,76.0,0.0,120.0,0.0,64.0
4737,47.0,0.0,240.0,0.0,64.0
4738,79.0,120.0,120.0,0.0,64.0
4739,70.0,120.0,480.0,0.0,64.0
4740,78.0,0.0,15.0,0.0,64.0
4741,76.0,120.0,15.0,0.0,64.0
4742,49.0,120.0,240.0,0.0,64.0
4743,79.0,0.0,120.0,0.0,64.0
4744,83.0,120.0,120.0,0.0,64.0
4745,42.0,0.0,240.0,0.0,64.0
4746,82.0,0.0,120.0,0.0,64.0
4747,83.0,0.0,240.0,0.0,64.0
4748,78.0,0.0,15.0,0.0,64.0
4749,76.0,0.0,15.0,0.0,64.0
4750,71.0,0.0,240.0,0.0,64.0
4751,47.0,0.0,240.0,0.0,64.0
4752,75.0,0.0,120.0,0.0,64.0
4753,84.0,0.0,240.0,0.0,64.0
4754,78.0,0.0,15.0,0.0,64.0
4755,57.0,0.0,240.0,0.0,64.0
4756,72.0,0.0,240.0,0.0,64.0
4757,75.0,0.0,240.0,0.0,64.0
4758,76.0,120.0,120.0,0.0,64.0
4759,74.0,120.0,120.0,0.0,64.0
4760,72.0,120.0,120.0,0.0,64.0
4761,78.0,0.0,240.0,0.0,64.0
4762,81.0,0.0,240.0,0.0,64.0
4763,63.0,0.0,240.0,0.0,64.0
4764,90.0,0.0,360.0,0.0,64.0
4765,71.0,120.0,120.0,0.0,64.0
4766,69.0,0.0,120.0,0.0,64.0
4767,67.0,120.0,120.0,0.0,64.0
4768,64.0,120.0,240.0,0.0,64.0
4769,71.0,120.0,15.0,0.0,64.0
4770,78.0,0.0,240.0,0.0,64.0
4771,79.0,0.0,240.0,0.0,64.0
4772,71.0,0.0,120.0,0.0,64.0
4773,91.0,0.0,120.0,0.0,64.0
4774,81.0,120.0,360.0,0.0,64.0
4775,75.0,120.0,120.0,0.0,64.0
4776,72.0,0.0,240.0,0.0,64.0
4777,60.0,0.0,240.0,0.0,64.0
4778,79.0,0.0,240.0,0.0,64.0
4779,76.0,0.0,120.0,0.0,64.0
4780,76.0,120.0,15.0,0.0,64.0
4781,78.0,0.0,240.0,0.0,64.0
4782,62.0,0.0,240.0,0.0,64.0
4783,66.0,0.0,120.0,0.0,64.0
4784,90.0,0.0,120.0,0.0,64.0
4785,69.0,0.0,120.0,0.0,64.0
4786,59.0,0.0,240.0,0.0,64.0
4787,73.0,120.0,120.0,0.0,64.0
4788,71.0,0.0,240.0,0.0,64.0
4789,79.0,0.0,240.0,0.0,64.0
4790,74.0,0.0,15.0,0.0,64.0
4791,64.0,0.0,120.0,0.0,64.0
4792,60.0,0.0,240.0,0.0,64.0
4793,67.0,0.0,120.0,0.0,64.0
4794,88.0,0.0,120.0,0.0,64.0
4795,76.0,120.0,15.0,0.0,64.0
4796,57.0,120.0,240.0,0.0,64.0
4797,78.0,0.0,240.0,0.0,64.0
4798,71.0,120.0,120.0,0.0,64.0
4799,72.0,0.0,15.0,0.0,64.0
4800,75.0,0.0,240.0,0.0,64.0
4801,69.0,0.0,15.0,0.0,64.0
4802,54.0,120.0,240.0,0.0,64.0
4803,63.0,120.0,120.0,0.0,64.0
4804,72.0,0.0,120.0,0.0,64.0
4805,71.0,120.0,120.0,0.0,64.0
4806,75.0,0.0,240.0,0.0,64.0
4807,47.0,0.0,240.0,0.0,64.0
4808,87.0,0.0,240.0,0.0,64.0
4809,69.0,0.0,120.0,0.0,64.0
4810,88.0,120.0,240.0,0.0,64.0
4811,67.0,120.0,120.0,0.0,64.0
4812,48.0,0.0,240.0,0.0,64.0
4813,76.0,0.0,120.0,0.0,64.0
4814,72.0,120.0,120.0,0.0,64.0
4815,57.0,60.0,240.0,0.0,64.0
4816,76.0,0.0,240.0,0.0,64.0
4817,69.0,0.0,15.0,0.0,64.0
4818,59.0,0.0,240.0,0.0,64.0
4819,66.0,0.0,15.0,0.0,64.0
4820,71.0,120.0,240.0,0.0,64.0
4821,67.0,60.0,60.0,0.0,64.0
4822,69.0,60.0,60.0,0.0,64.0
4823,67.0,0.0,60.0,0.0,64.0
4824,66.0,120.0,120.0,0.0,64.0
4825,47.0,480.0,240.0,0.0,64.0
4826,75.0,0.0,240.0,0.0,64.0
4827,64.0,0.0,120.0,0.0,64.0
4828,67.0,0.0,480.0,0.0,64.0
4829,71.0,0.0,480.0,0.0,64.0
4830,76.0,0.0,480.0,0.0,64.0
4831,40.0,0.0,480.0,0.0,64.0
4832,64.0,0.0,480.0,0.0,64.0
