,note,step,duration,channel,velocity
0,46.0,288.0,390.0,0.0,0.0
1,53.0,96.0,300.0,0.0,0.0
2,51.0,192.0,90.0,0.0,0.0
3,77.0,96.0,180.0,0.0,0.0
4,49.0,48.0,300.0,0.0,0.0
5,70.0,48.0,150.0,0.0,0.0
6,48.0,0.0,90.0,0.0,0.0
7,72.0,144.0,40.0,0.0,0.0
8,46.0,192.0,390.0,0.0,0.0
9,73.0,48.0,150.0,0.0,0.0
10,75.0,192.0,40.0,0.0,0.0
11,77.0,0.0,180.0,0.0,0.0
12,78.0,144.0,180.0,0.0,0.0
13,45.0,192.0,390.0,0.0,0.0
14,77.0,48.0,150.0,0.0,0.0
15,75.0,0.0,40.0,0.0,0.0
16,73.0,0.0,180.0,0.0,0.0
17,58.0,48.0,180.0,0.0,0.0
18,46.0,48.0,300.0,0.0,0.0
19,73.0,48.0,40.0,0.0,0.0
20,65.0,0.0,150.0,0.0,0.0
21,72.0,0.0,40.0,0.0,0.0
22,73.0,48.0,40.0,0.0,0.0
23,48.0,144.0,90.0,0.0,0.0
24,63.0,0.0,40.0,0.0,0.0
25,75.0,0.0,40.0,0.0,0.0
26,61.0,0.0,150.0,0.0,0.0
27,77.0,48.0,150.0,0.0,0.0
28,75.0,48.0,40.0,0.0,0.0
29,60.0,0.0,40.0,0.0,0.0
30,58.0,0.0,180.0,0.0,0.0
31,73.0,48.0,40.0,0.0,0.0
32,72.0,48.0,40.0,0.0,0.0
33,70.0,48.0,40.0,0.0,0.0
34,68.0,24.0,40.0,0.0,0.0
35,49.0,0.0,15.0,0.0,0.0
36,68.0,24.0,20.0,0.0,0.0
37,57.0,144.0,180.0,0.0,0.0
38,66.0,24.0,20.0,0.0,0.0
39,68.0,24.0,20.0,0.0,0.0
40,66.0,24.0,20.0,0.0,0.0
41,68.0,24.0,20.0,0.0,0.0
42,66.0,0.0,20.0,0.0,0.0
43,51.0,0.0,40.0,0.0,0.0
44,68.0,24.0,20.0,0.0,0.0
45,66.0,0.0,20.0,0.0,0.0
46,49.0,0.0,150.0,0.0,0.0
47,58.0,48.0,150.0,0.0,0.0
48,48.0,0.0,40.0,0.0,0.0
49,60.0,144.0,40.0,0.0,0.0
50,65.0,0.0,15.0,0.0,0.0
51,46.0,48.0,150.0,0.0,0.0
52,67.0,0.0,40.0,0.0,0.0
53,34.0,0.0,40.0,0.0,0.0
54,68.0,0.0,180.0,0.0,0.0
55,61.0,48.0,15.0,0.0,0.0
56,36.0,48.0,150.0,0.0,0.0
57,63.0,48.0,40.0,0.0,0.0
58,61.0,0.0,40.0,0.0,0.0
59,37.0,0.0,40.0,0.0,0.0
60,60.0,144.0,40.0,0.0,0.0
61,39.0,0.0,150.0,0.0,0.0
62,68.0,48.0,150.0,0.0,0.0
63,58.0,144.0,180.0,0.0,0.0
64,67.0,0.0,40.0,0.0,0.0
65,41.0,0.0,40.0,0.0,0.0
66,39.0,48.0,150.0,0.0,0.0
67,69.0,0.0,150.0,0.0,0.0
68,60.0,0.0,150.0,0.0,0.0
69,70.0,0.0,40.0,0.0,0.0
70,61.0,144.0,40.0,0.0,0.0
71,37.0,0.0,40.0,0.0,0.0
72,36.0,48.0,150.0,0.0,0.0
73,63.0,0.0,180.0,0.0,0.0
74,72.0,48.0,180.0,0.0,0.0
75,48.0,0.0,40.0,0.0,0.0
76,61.0,0.0,180.0,0.0,0.0
77,49.0,0.0,150.0,0.0,0.0
78,72.0,48.0,40.0,0.0,0.0
79,73.0,48.0,40.0,0.0,0.0
80,72.0,48.0,40.0,0.0,0.0
81,51.0,144.0,40.0,0.0,0.0
82,70.0,0.0,40.0,0.0,0.0
83,53.0,0.0,150.0,0.0,0.0
84,69.0,0.0,180.0,0.0,0.0
85,61.0,48.0,150.0,0.0,0.0
86,60.0,144.0,40.0,0.0,0.0
87,54.0,0.0,40.0,0.0,0.0
88,53.0,0.0,150.0,0.0,0.0
89,70.0,48.0,150.0,0.0,0.0
90,61.0,0.0,150.0,0.0,0.0
91,63.0,0.0,40.0,0.0,0.0
92,72.0,0.0,40.0,0.0,0.0
93,51.0,144.0,40.0,0.0,0.0
94,73.0,48.0,150.0,0.0,0.0
95,49.0,0.0,180.0,0.0,0.0
96,58.0,0.0,180.0,0.0,0.0
97,72.0,144.0,40.0,0.0,0.0
98,73.0,0.0,150.0,0.0,0.0
99,46.0,0.0,180.0,0.0,0.0
100,53.0,48.0,150.0,0.0,0.0
101,70.0,0.0,40.0,0.0,0.0
102,55.0,144.0,40.0,0.0,0.0
103,65.0,0.0,15.0,0.0,0.0
104,53.0,0.0,390.0,0.0,0.0
105,72.0,0.0,390.0,0.0,0.0
106,56.0,48.0,150.0,0.0,0.0
107,67.0,0.0,40.0,0.0,0.0
108,58.0,96.0,40.0,0.0,0.0
109,60.0,144.0,180.0,0.0,0.0
110,68.0,24.0,15.0,0.0,0.0
111,67.0,24.0,20.0,0.0,0.0
112,65.0,24.0,20.0,0.0,0.0
113,64.0,0.0,20.0,0.0,0.0
114,65.0,0.0,390.0,0.0,0.0
115,61.0,0.0,180.0,0.0,0.0
116,53.0,0.0,390.0,0.0,0.0
117,72.0,48.0,150.0,0.0,0.0
118,70.0,144.0,40.0,0.0,0.0
119,60.0,0.0,150.0,0.0,0.0
120,68.0,48.0,150.0,0.0,0.0
121,58.0,0.0,40.0,0.0,0.0
122,67.0,144.0,40.0,0.0,0.0
123,72.0,0.0,300.0,0.0,0.0
124,65.0,48.0,150.0,0.0,0.0
125,77.0,48.0,40.0,0.0,0.0
126,56.0,0.0,15.0,0.0,0.0
127,75.0,0.0,150.0,0.0,0.0
128,55.0,48.0,40.0,0.0,0.0
129,70.0,144.0,90.0,0.0,0.0
130,56.0,48.0,40.0,0.0,0.0
131,73.0,0.0,40.0,0.0,0.0
132,58.0,0.0,40.0,0.0,0.0
133,53.0,0.0,15.0,0.0,0.0
134,72.0,96.0,180.0,0.0,0.0
135,68.0,48.0,300.0,0.0,0.0
136,48.0,0.0,40.0,0.0,0.0
137,53.0,48.0,150.0,0.0,0.0
138,67.0,144.0,90.0,0.0,0.0
139,51.0,0.0,40.0,0.0,0.0
140,60.0,0.0,15.0,0.0,0.0
141,65.0,144.0,390.0,0.0,0.0
142,49.0,48.0,150.0,0.0,0.0
143,48.0,0.0,40.0,0.0,0.0
144,49.0,48.0,150.0,0.0,0.0
145,58.0,0.0,180.0,0.0,0.0
146,46.0,0.0,40.0,0.0,0.0
147,58.0,48.0,150.0,0.0,0.0
148,64.0,0.0,390.0,0.0,0.0
149,55.0,96.0,40.0,0.0,0.0
150,60.0,48.0,150.0,0.0,0.0
151,48.0,48.0,15.0,0.0,0.0
152,58.0,0.0,40.0,0.0,0.0
153,56.0,48.0,150.0,0.0,0.0
154,49.0,0.0,150.0,0.0,0.0
155,65.0,96.0,180.0,0.0,0.0
156,58.0,0.0,40.0,0.0,0.0
157,48.0,0.0,40.0,0.0,0.0
158,50.0,0.0,150.0,0.0,0.0
159,56.0,48.0,150.0,0.0,0.0
160,72.0,0.0,150.0,0.0,0.0
161,67.0,144.0,90.0,0.0,0.0
162,70.0,0.0,40.0,0.0,0.0
163,52.0,0.0,40.0,0.0,0.0
164,55.0,0.0,40.0,0.0,0.0
165,53.0,0.0,150.0,0.0,0.0
166,68.0,0.0,150.0,0.0,0.0
167,60.0,48.0,180.0,0.0,0.0
168,67.0,144.0,40.0,0.0,0.0
169,51.0,0.0,40.0,0.0,0.0
170,65.0,0.0,180.0,0.0,0.0
171,49.0,0.0,180.0,0.0,0.0
172,59.0,144.0,40.0,0.0,0.0
173,64.0,144.0,180.0,0.0,0.0
174,68.0,0.0,15.0,0.0,0.0
175,48.0,0.0,390.0,0.0,0.0
176,60.0,48.0,150.0,0.0,0.0
177,55.0,0.0,40.0,0.0,0.0
178,70.0,0.0,40.0,0.0,0.0
179,56.0,0.0,150.0,0.0,0.0
180,68.0,0.0,150.0,0.0,0.0
181,65.0,48.0,150.0,0.0,0.0
182,67.0,0.0,40.0,0.0,0.0
183,52.0,144.0,40.0,0.0,0.0
184,68.0,48.0,180.0,0.0,0.0
185,53.0,48.0,150.0,0.0,0.0
186,48.0,0.0,40.0,0.0,0.0
187,49.0,0.0,180.0,0.0,0.0
188,68.0,48.0,40.0,0.0,0.0
189,70.0,0.0,40.0,0.0,0.0
190,68.0,0.0,40.0,0.0,0.0
191,65.0,48.0,15.0,0.0,0.0
192,64.0,0.0,40.0,0.0,0.0
193,67.0,48.0,40.0,0.0,0.0
194,49.0,48.0,40.0,0.0,0.0
195,51.0,48.0,40.0,0.0,0.0
196,49.0,48.0,40.0,0.0,0.0
197,48.0,96.0,40.0,0.0,0.0
198,65.0,24.0,15.0,0.0,0.0
199,63.0,24.0,20.0,0.0,0.0
200,61.0,24.0,20.0,0.0,0.0
201,60.0,0.0,20.0,0.0,0.0
202,65.0,0.0,15.0,0.0,0.0
203,46.0,96.0,15.0,0.0,0.0
204,46.0,24.0,15.0,0.0,0.0
205,53.0,24.0,20.0,0.0,0.0
206,54.0,24.0,20.0,0.0,0.0
207,56.0,96.0,20.0,0.0,0.0
208,58.0,0.0,150.0,0.0,0.0
209,65.0,24.0,15.0,0.0,0.0
210,65.0,24.0,20.0,0.0,0.0
211,66.0,24.0,20.0,0.0,0.0
212,56.0,144.0,40.0,0.0,0.0
213,68.0,0.0,20.0,0.0,0.0
214,61.0,0.0,15.0,0.0,0.0
215,54.0,48.0,150.0,0.0,0.0
216,56.0,96.0,40.0,0.0,0.0
217,54.0,24.0,150.0,0.0,0.0
218,61.0,24.0,15.0,0.0,0.0
219,63.0,24.0,20.0,0.0,0.0
220,53.0,0.0,40.0,0.0,0.0
221,65.0,0.0,20.0,0.0,0.0
222,70.0,96.0,15.0,0.0,0.0
223,51.0,24.0,15.0,0.0,0.0
224,58.0,24.0,20.0,0.0,0.0
225,60.0,24.0,20.0,0.0,0.0
226,61.0,96.0,20.0,0.0,0.0
227,63.0,24.0,150.0,0.0,0.0
228,70.0,24.0,20.0,0.0,0.0
229,70.0,0.0,20.0,0.0,0.0
230,72.0,24.0,20.0,0.0,0.0
231,61.0,0.0,40.0,0.0,0.0
232,73.0,0.0,20.0,0.0,0.0
233,60.0,48.0,150.0,0.0,0.0
234,66.0,144.0,15.0,0.0,0.0
235,61.0,96.0,40.0,0.0,0.0
236,67.0,0.0,40.0,0.0,0.0
237,70.0,24.0,90.0,0.0,0.0
238,60.0,24.0,150.0,0.0,0.0
239,69.0,24.0,20.0,0.0,0.0
240,67.0,0.0,20.0,0.0,0.0
241,58.0,0.0,40.0,0.0,0.0
242,69.0,24.0,20.0,0.0,0.0
243,70.0,144.0,20.0,0.0,0.0
244,75.0,0.0,15.0,0.0,0.0
245,57.0,0.0,180.0,0.0,0.0
246,73.0,24.0,20.0,0.0,0.0
247,72.0,0.0,20.0,0.0,0.0
248,73.0,0.0,150.0,0.0,0.0
249,53.0,96.0,15.0,0.0,0.0
250,46.0,24.0,150.0,0.0,0.0
251,72.0,48.0,15.0,0.0,0.0
252,48.0,144.0,40.0,0.0,0.0
253,75.0,0.0,40.0,0.0,0.0
254,70.0,24.0,20.0,0.0,0.0
255,69.0,0.0,20.0,0.0,0.0
256,70.0,48.0,300.0,0.0,0.0
257,53.0,0.0,15.0,0.0,0.0
258,77.0,24.0,150.0,0.0,0.0
259,49.0,0.0,150.0,0.0,0.0
260,51.0,0.0,40.0,0.0,0.0
261,75.0,24.0,20.0,0.0,0.0
262,73.0,96.0,20.0,0.0,0.0
263,53.0,0.0,15.0,0.0,0.0
264,72.0,48.0,150.0,0.0,0.0
265,70.0,0.0,40.0,0.0,0.0
266,74.0,0.0,40.0,0.0,0.0
267,68.0,144.0,40.0,0.0,0.0
268,75.0,0.0,180.0,0.0,0.0
269,66.0,48.0,150.0,0.0,0.0
270,58.0,0.0,390.0,0.0,0.0
271,54.0,144.0,180.0,0.0,0.0
272,63.0,0.0,40.0,0.0,0.0
273,53.0,48.0,150.0,0.0,0.0
274,61.0,0.0,150.0,0.0,0.0
275,60.0,144.0,40.0,0.0,0.0
276,51.0,0.0,40.0,0.0,0.0
277,65.0,48.0,300.0,0.0,0.0
278,77.0,0.0,180.0,0.0,0.0
279,49.0,48.0,180.0,0.0,0.0
280,58.0,48.0,150.0,0.0,0.0
281,69.0,0.0,40.0,0.0,0.0
282,70.0,0.0,150.0,0.0,0.0
283,49.0,48.0,40.0,0.0,0.0
284,48.0,0.0,40.0,0.0,0.0
285,49.0,48.0,40.0,0.0,0.0
286,63.0,144.0,90.0,0.0,0.0
287,51.0,0.0,40.0,0.0,0.0
288,72.0,0.0,40.0,0.0,0.0
289,73.0,48.0,150.0,0.0,0.0
290,70.0,0.0,15.0,0.0,0.0
291,53.0,0.0,390.0,0.0,0.0
292,61.0,48.0,300.0,0.0,0.0
293,75.0,96.0,40.0,0.0,0.0
294,67.0,0.0,40.0,0.0,0.0
295,77.0,0.0,180.0,0.0,0.0
296,69.0,48.0,150.0,0.0,0.0
297,60.0,0.0,90.0,0.0,0.0
298,65.0,144.0,40.0,0.0,0.0
299,78.0,144.0,180.0,0.0,0.0
300,58.0,0.0,390.0,0.0,0.0
301,61.0,48.0,150.0,0.0,0.0
302,60.0,0.0,40.0,0.0,0.0
303,61.0,48.0,150.0,0.0,0.0
304,77.0,0.0,150.0,0.0,0.0
305,54.0,0.0,90.0,0.0,0.0
306,63.0,0.0,40.0,0.0,0.0
307,75.0,144.0,40.0,0.0,0.0
308,65.0,48.0,300.0,0.0,0.0
309,57.0,96.0,390.0,0.0,0.0
310,73.0,0.0,180.0,0.0,0.0
311,53.0,48.0,150.0,0.0,0.0
312,51.0,48.0,40.0,0.0,0.0
313,73.0,48.0,40.0,0.0,0.0
314,49.0,0.0,180.0,0.0,0.0
315,72.0,0.0,40.0,0.0,0.0
316,73.0,0.0,40.0,0.0,0.0
317,65.0,48.0,40.0,0.0,0.0
318,75.0,0.0,40.0,0.0,0.0
319,66.0,0.0,40.0,0.0,0.0
320,65.0,24.0,150.0,0.0,0.0
321,77.0,0.0,180.0,0.0,0.0
322,49.0,24.0,90.0,0.0,0.0
323,58.0,48.0,300.0,0.0,0.0
324,49.0,24.0,20.0,0.0,0.0
325,51.0,0.0,20.0,0.0,0.0
326,49.0,24.0,20.0,0.0,0.0
327,75.0,0.0,40.0,0.0,0.0
328,48.0,48.0,20.0,0.0,0.0
329,73.0,48.0,40.0,0.0,0.0
330,46.0,0.0,180.0,0.0,0.0
331,72.0,0.0,40.0,0.0,0.0
332,70.0,48.0,40.0,0.0,0.0
333,60.0,144.0,90.0,0.0,0.0
334,69.0,0.0,40.0,0.0,0.0
335,70.0,0.0,180.0,0.0,0.0
336,46.0,24.0,20.0,0.0,0.0
337,48.0,24.0,20.0,0.0,0.0
338,49.0,48.0,20.0,0.0,0.0
339,70.0,48.0,40.0,0.0,0.0
340,51.0,0.0,180.0,0.0,0.0
341,68.0,48.0,40.0,0.0,0.0
342,67.0,48.0,40.0,0.0,0.0
343,65.0,0.0,40.0,0.0,0.0
344,67.0,24.0,150.0,0.0,0.0
345,51.0,24.0,90.0,0.0,0.0
346,61.0,96.0,15.0,0.0,0.0
347,51.0,24.0,20.0,0.0,0.0
348,48.0,0.0,20.0,0.0,0.0
349,63.0,0.0,40.0,0.0,0.0
350,49.0,24.0,20.0,0.0,0.0
351,51.0,0.0,20.0,0.0,0.0
352,53.0,0.0,150.0,0.0,0.0
353,61.0,48.0,150.0,0.0,0.0
354,51.0,144.0,40.0,0.0,0.0
355,60.0,0.0,40.0,0.0,0.0
356,68.0,0.0,15.0,0.0,0.0
357,49.0,0.0,150.0,0.0,0.0
358,58.0,0.0,180.0,0.0,0.0
359,67.0,24.0,20.0,0.0,0.0
360,46.0,0.0,40.0,0.0,0.0
361,65.0,24.0,20.0,0.0,0.0
362,51.0,24.0,150.0,0.0,0.0
363,68.0,24.0,20.0,0.0,0.0
364,67.0,24.0,20.0,0.0,0.0
365,68.0,24.0,20.0,0.0,0.0
366,67.0,24.0,20.0,0.0,0.0
367,68.0,24.0,20.0,0.0,0.0
368,67.0,0.0,20.0,0.0,0.0
369,49.0,96.0,40.0,0.0,0.0
370,65.0,24.0,20.0,0.0,0.0
371,67.0,0.0,20.0,0.0,0.0
372,68.0,24.0,150.0,0.0,0.0
373,56.0,144.0,390.0,0.0,0.0
374,48.0,24.0,15.0,0.0,0.0
375,44.0,0.0,20.0,0.0,0.0
376,46.0,24.0,20.0,0.0,0.0
377,48.0,0.0,20.0,0.0,0.0
378,66.0,24.0,15.0,0.0,0.0
379,49.0,24.0,150.0,0.0,0.0
380,65.0,24.0,20.0,0.0,0.0
381,66.0,24.0,20.0,0.0,0.0
382,65.0,24.0,20.0,0.0,0.0
383,66.0,24.0,20.0,0.0,0.0
384,65.0,0.0,20.0,0.0,0.0
385,63.0,24.0,20.0,0.0,0.0
386,47.0,0.0,40.0,0.0,0.0
387,65.0,0.0,20.0,0.0,0.0
388,66.0,48.0,150.0,0.0,0.0
389,46.0,0.0,150.0,0.0,0.0
390,49.0,48.0,300.0,0.0,0.0
391,44.0,0.0,40.0,0.0,0.0
392,70.0,96.0,40.0,0.0,0.0
393,68.0,0.0,150.0,0.0,0.0
394,46.0,48.0,150.0,0.0,0.0
395,51.0,0.0,90.0,0.0,0.0
396,48.0,0.0,40.0,0.0,0.0
397,66.0,144.0,40.0,0.0,0.0
398,65.0,0.0,300.0,0.0,0.0
399,49.0,48.0,150.0,0.0,0.0
400,53.0,48.0,300.0,0.0,0.0
401,48.0,96.0,40.0,0.0,0.0
402,70.0,0.0,40.0,0.0,0.0
403,49.0,48.0,150.0,0.0,0.0
404,68.0,0.0,150.0,0.0,0.0
405,65.0,0.0,40.0,0.0,0.0
406,54.0,0.0,90.0,0.0,0.0
407,66.0,0.0,40.0,0.0,0.0
408,51.0,0.0,40.0,0.0,0.0
409,63.0,144.0,40.0,0.0,0.0
410,53.0,24.0,300.0,0.0,0.0
411,61.0,0.0,150.0,0.0,0.0
412,56.0,0.0,390.0,0.0,0.0
413,65.0,48.0,150.0,0.0,0.0
414,63.0,0.0,40.0,0.0,0.0
415,66.0,96.0,40.0,0.0,0.0
416,61.0,24.0,150.0,0.0,0.0
417,53.0,24.0,20.0,0.0,0.0
418,49.0,0.0,20.0,0.0,0.0
419,51.0,24.0,20.0,0.0,0.0
420,59.0,96.0,40.0,0.0,0.0
421,53.0,0.0,20.0,0.0,0.0
422,54.0,0.0,150.0,0.0,0.0
423,68.0,0.0,15.0,0.0,0.0
424,58.0,144.0,180.0,0.0,0.0
425,68.0,24.0,20.0,0.0,0.0
426,61.0,24.0,20.0,0.0,0.0
427,63.0,24.0,20.0,0.0,0.0
428,53.0,0.0,40.0,0.0,0.0
429,65.0,0.0,20.0,0.0,0.0
430,63.0,144.0,180.0,0.0,0.0
431,51.0,48.0,150.0,0.0,0.0
432,66.0,0.0,150.0,0.0,0.0
433,66.0,0.0,40.0,0.0,0.0
434,49.0,0.0,40.0,0.0,0.0
435,66.0,0.0,150.0,0.0,0.0
436,56.0,48.0,300.0,0.0,0.0
437,48.0,24.0,150.0,0.0,0.0
438,63.0,0.0,150.0,0.0,0.0
439,60.0,0.0,40.0,0.0,0.0
440,65.0,24.0,20.0,0.0,0.0
441,44.0,0.0,40.0,0.0,0.0
442,63.0,96.0,20.0,0.0,0.0
443,49.0,0.0,180.0,0.0,0.0
444,65.0,48.0,150.0,0.0,0.0
445,54.0,0.0,90.0,0.0,0.0
446,66.0,144.0,40.0,0.0,0.0
447,68.0,0.0,150.0,0.0,0.0
448,53.0,0.0,390.0,0.0,0.0
449,61.0,0.0,15.0,0.0,0.0
450,49.0,0.0,150.0,0.0,0.0
451,68.0,0.0,40.0,0.0,0.0
452,51.0,0.0,40.0,0.0,0.0
453,60.0,144.0,40.0,0.0,0.0
454,70.0,0.0,150.0,0.0,0.0
455,49.0,48.0,150.0,0.0,0.0
456,61.0,0.0,150.0,0.0,0.0
457,63.0,0.0,40.0,0.0,0.0
458,72.0,144.0,40.0,0.0,0.0
459,48.0,0.0,40.0,0.0,0.0
460,65.0,0.0,180.0,0.0,0.0
461,73.0,48.0,150.0,0.0,0.0
462,46.0,0.0,390.0,0.0,0.0
463,53.0,0.0,150.0,0.0,0.0
464,72.0,0.0,40.0,0.0,0.0
465,51.0,144.0,40.0,0.0,0.0
466,73.0,0.0,150.0,0.0,0.0
467,53.0,48.0,150.0,0.0,0.0
468,70.0,96.0,180.0,0.0,0.0
469,55.0,0.0,40.0,0.0,0.0
470,75.0,0.0,40.0,0.0,0.0
471,63.0,144.0,180.0,0.0,0.0
472,72.0,0.0,150.0,0.0,0.0
473,44.0,24.0,15.0,0.0,0.0
474,51.0,24.0,20.0,0.0,0.0
475,53.0,24.0,20.0,0.0,0.0
476,70.0,0.0,40.0,0.0,0.0
477,54.0,0.0,20.0,0.0,0.0
478,72.0,0.0,180.0,0.0,0.0
479,56.0,0.0,15.0,0.0,0.0
480,54.0,144.0,40.0,0.0,0.0
481,61.0,0.0,390.0,0.0,0.0
482,53.0,24.0,150.0,0.0,0.0
483,72.0,0.0,150.0,0.0,0.0
484,70.0,24.0,20.0,0.0,0.0
485,49.0,0.0,40.0,0.0,0.0
486,69.0,96.0,20.0,0.0,0.0
487,54.0,0.0,150.0,0.0,0.0
488,70.0,24.0,15.0,0.0,0.0
489,69.0,24.0,20.0,0.0,0.0
490,66.0,24.0,20.0,0.0,0.0
491,58.0,0.0,40.0,0.0,0.0
492,65.0,144.0,20.0,0.0,0.0
493,48.0,0.0,300.0,0.0,0.0
494,68.0,24.0,300.0,0.0,0.0
495,63.0,48.0,150.0,0.0,0.0
496,66.0,96.0,40.0,0.0,0.0
497,65.0,24.0,150.0,0.0,0.0
498,48.0,24.0,20.0,0.0,0.0
499,66.0,0.0,90.0,0.0,0.0
500,44.0,0.0,20.0,0.0,0.0
501,63.0,0.0,40.0,0.0,0.0
502,46.0,24.0,20.0,0.0,0.0
503,48.0,144.0,20.0,0.0,0.0
504,49.0,48.0,150.0,0.0,0.0
505,65.0,48.0,300.0,0.0,0.0
506,56.0,0.0,180.0,0.0,0.0
507,61.0,0.0,180.0,0.0,0.0
508,48.0,48.0,40.0,0.0,0.0
509,49.0,48.0,150.0,0.0,0.0
510,46.0,0.0,180.0,0.0,0.0
511,61.0,48.0,40.0,0.0,0.0
512,60.0,0.0,40.0,0.0,0.0
513,58.0,0.0,40.0,0.0,0.0
514,63.0,0.0,90.0,0.0,0.0
515,57.0,48.0,40.0,0.0,0.0
516,51.0,0.0,40.0,0.0,0.0
517,61.0,0.0,390.0,0.0,0.0
518,53.0,48.0,150.0,0.0,0.0
519,58.0,0.0,180.0,0.0,0.0
520,46.0,48.0,15.0,0.0,0.0
521,44.0,0.0,40.0,0.0,0.0
522,42.0,0.0,40.0,0.0,0.0
523,54.0,48.0,40.0,0.0,0.0
524,41.0,48.0,40.0,0.0,0.0
525,56.0,48.0,180.0,0.0,0.0
526,37.0,48.0,40.0,0.0,0.0
527,39.0,48.0,40.0,0.0,0.0
528,41.0,0.0,40.0,0.0,0.0
529,70.0,0.0,40.0,0.0,0.0
530,57.0,0.0,180.0,0.0,0.0
531,42.0,48.0,40.0,0.0,0.0
532,60.0,0.0,390.0,0.0,0.0
533,39.0,48.0,40.0,0.0,0.0
534,41.0,48.0,40.0,0.0,0.0
535,42.0,0.0,40.0,0.0,0.0
536,63.0,48.0,15.0,0.0,0.0
537,44.0,0.0,150.0,0.0,0.0
538,56.0,0.0,150.0,0.0,0.0
539,66.0,48.0,40.0,0.0,0.0
540,65.0,48.0,40.0,0.0,0.0
541,54.0,0.0,40.0,0.0,0.0
542,45.0,48.0,40.0,0.0,0.0
543,63.0,0.0,40.0,0.0,0.0
544,61.0,48.0,40.0,0.0,0.0
545,53.0,0.0,180.0,0.0,0.0
546,46.0,0.0,40.0,0.0,0.0
547,65.0,0.0,40.0,0.0,0.0
548,45.0,48.0,40.0,0.0,0.0
549,67.0,0.0,40.0,0.0,0.0
550,46.0,48.0,40.0,0.0,0.0
551,48.0,0.0,40.0,0.0,0.0
552,69.0,48.0,40.0,0.0,0.0
553,53.0,48.0,40.0,0.0,0.0
554,70.0,0.0,180.0,0.0,0.0
555,51.0,0.0,40.0,0.0,0.0
556,53.0,48.0,40.0,0.0,0.0
557,63.0,0.0,90.0,0.0,0.0
558,54.0,0.0,40.0,0.0,0.0
559,49.0,48.0,15.0,0.0,0.0
560,48.0,48.0,40.0,0.0,0.0
561,68.0,0.0,40.0,0.0,0.0
562,70.0,0.0,40.0,0.0,0.0
563,49.0,48.0,40.0,0.0,0.0
564,51.0,0.0,40.0,0.0,0.0
565,72.0,0.0,40.0,0.0,0.0
566,73.0,0.0,150.0,0.0,0.0
567,56.0,48.0,15.0,0.0,0.0
568,55.0,48.0,40.0,0.0,0.0
569,56.0,24.0,40.0,0.0,0.0
570,58.0,144.0,40.0,0.0,0.0
571,72.0,24.0,20.0,0.0,0.0
572,70.0,0.0,20.0,0.0,0.0
573,65.0,0.0,15.0,0.0,0.0
574,53.0,0.0,15.0,0.0,0.0
575,60.0,0.0,180.0,0.0,0.0
576,68.0,0.0,390.0,0.0,0.0
577,66.0,144.0,40.0,0.0,0.0
578,51.0,0.0,40.0,0.0,0.0
579,49.0,0.0,150.0,0.0,0.0
580,65.0,48.0,150.0,0.0,0.0
581,48.0,0.0,40.0,0.0,0.0
582,63.0,144.0,40.0,0.0,0.0
583,46.0,24.0,300.0,0.0,0.0
584,68.0,48.0,150.0,0.0,0.0
585,65.0,96.0,40.0,0.0,0.0
586,70.0,0.0,150.0,0.0,0.0
587,46.0,24.0,20.0,0.0,0.0
588,34.0,24.0,20.0,0.0,0.0
589,68.0,144.0,40.0,0.0,0.0
590,36.0,24.0,20.0,0.0,0.0
591,37.0,0.0,20.0,0.0,0.0
592,61.0,0.0,15.0,0.0,0.0
593,66.0,0.0,390.0,0.0,0.0
594,58.0,96.0,40.0,0.0,0.0
595,63.0,0.0,150.0,0.0,0.0
596,39.0,24.0,15.0,0.0,0.0
597,37.0,24.0,20.0,0.0,0.0
598,61.0,144.0,40.0,0.0,0.0
599,36.0,24.0,20.0,0.0,0.0
600,34.0,0.0,20.0,0.0,0.0
601,66.0,48.0,150.0,0.0,0.0
602,63.0,96.0,40.0,0.0,0.0
603,68.0,24.0,150.0,0.0,0.0
604,32.0,24.0,15.0,0.0,0.0
605,44.0,0.0,20.0,0.0,0.0
606,46.0,24.0,20.0,0.0,0.0
607,66.0,144.0,40.0,0.0,0.0
608,48.0,0.0,20.0,0.0,0.0
609,60.0,0.0,15.0,0.0,0.0
610,49.0,24.0,300.0,0.0,0.0
611,56.0,96.0,40.0,0.0,0.0
612,61.0,24.0,150.0,0.0,0.0
613,49.0,24.0,20.0,0.0,0.0
614,48.0,0.0,20.0,0.0,0.0
615,46.0,24.0,20.0,0.0,0.0
616,60.0,0.0,40.0,0.0,0.0
617,44.0,144.0,20.0,0.0,0.0
618,58.0,144.0,390.0,0.0,0.0
619,42.0,0.0,390.0,0.0,0.0
620,46.0,0.0,390.0,0.0,0.0
621,65.0,0.0,15.0,0.0,0.0
622,63.0,24.0,20.0,0.0,0.0
623,61.0,144.0,20.0,0.0,0.0
624,63.0,48.0,150.0,0.0,0.0
625,60.0,0.0,40.0,0.0,0.0
626,41.0,0.0,390.0,0.0,0.0
627,61.0,48.0,150.0,0.0,0.0
628,53.0,96.0,300.0,0.0,0.0
629,58.0,0.0,180.0,0.0,0.0
630,63.0,96.0,40.0,0.0,0.0
631,60.0,0.0,180.0,0.0,0.0
632,57.0,144.0,180.0,0.0,0.0
633,51.0,0.0,90.0,0.0,0.0
634,49.0,48.0,300.0,0.0,0.0
635,41.0,0.0,390.0,0.0,0.0
636,60.0,24.0,150.0,0.0,0.0
637,65.0,96.0,180.0,0.0,0.0
638,58.0,24.0,20.0,0.0,0.0
639,57.0,0.0,20.0,0.0,0.0
640,58.0,48.0,150.0,0.0,0.0
641,48.0,0.0,90.0,0.0,0.0
642,60.0,144.0,40.0,0.0,0.0
643,58.0,0.0,15.0,0.0,0.0
644,41.0,0.0,390.0,0.0,0.0
645,46.0,0.0,390.0,0.0,0.0
646,61.0,0.0,150.0,0.0,0.0
647,63.0,144.0,40.0,0.0,0.0
648,60.0,0.0,40.0,0.0,0.0
649,61.0,48.0,150.0,0.0,0.0
650,65.0,96.0,180.0,0.0,0.0
651,58.0,0.0,40.0,0.0,0.0
652,66.0,0.0,180.0,0.0,0.0
653,63.0,24.0,90.0,0.0,0.0
654,45.0,0.0,390.0,0.0,0.0
655,63.0,24.0,20.0,0.0,0.0
656,72.0,24.0,20.0,0.0,0.0
657,73.0,24.0,20.0,0.0,0.0
658,75.0,96.0,20.0,0.0,0.0
659,65.0,48.0,150.0,0.0,0.0
660,73.0,0.0,150.0,0.0,0.0
661,41.0,48.0,15.0,0.0,0.0
662,72.0,0.0,40.0,0.0,0.0
663,63.0,144.0,40.0,0.0,0.0
664,42.0,48.0,150.0,0.0,0.0
665,46.0,48.0,300.0,0.0,0.0
666,70.0,0.0,150.0,0.0,0.0
667,61.0,0.0,180.0,0.0,0.0
668,68.0,0.0,40.0,0.0,0.0
669,41.0,48.0,40.0,0.0,0.0
670,39.0,0.0,180.0,0.0,0.0
671,61.0,48.0,40.0,0.0,0.0
672,66.0,0.0,180.0,0.0,0.0
673,60.0,0.0,40.0,0.0,0.0
674,61.0,48.0,40.0,0.0,0.0
675,48.0,0.0,90.0,0.0,0.0
676,63.0,96.0,40.0,0.0,0.0
677,37.0,48.0,150.0,0.0,0.0
678,49.0,144.0,390.0,0.0,0.0
679,65.0,48.0,90.0,0.0,0.0
680,66.0,144.0,40.0,0.0,0.0
681,39.0,0.0,40.0,0.0,0.0
682,41.0,0.0,150.0,0.0,0.0
683,68.0,48.0,150.0,0.0,0.0
684,42.0,0.0,40.0,0.0,0.0
685,70.0,0.0,40.0,0.0,0.0
686,63.0,0.0,150.0,0.0,0.0
687,49.0,48.0,150.0,0.0,0.0
688,51.0,144.0,40.0,0.0,0.0
689,71.0,0.0,40.0,0.0,0.0
690,49.0,0.0,150.0,0.0,0.0
691,65.0,24.0,150.0,0.0,0.0
692,47.0,0.0,40.0,0.0,0.0
693,66.0,24.0,20.0,0.0,0.0
694,68.0,144.0,20.0,0.0,0.0
695,44.0,0.0,15.0,0.0,0.0
696,70.0,0.0,390.0,0.0,0.0
697,46.0,48.0,150.0,0.0,0.0
698,62.0,0.0,150.0,0.0,0.0
699,65.0,96.0,40.0,0.0,0.0
700,50.0,0.0,40.0,0.0,0.0
701,58.0,0.0,180.0,0.0,0.0
702,51.0,48.0,150.0,0.0,0.0
703,44.0,48.0,15.0,0.0,0.0
704,53.0,144.0,40.0,0.0,0.0
705,63.0,0.0,300.0,0.0,0.0
706,42.0,48.0,300.0,0.0,0.0
707,54.0,96.0,180.0,0.0,0.0
708,58.0,48.0,150.0,0.0,0.0
709,58.0,0.0,40.0,0.0,0.0
710,56.0,0.0,180.0,0.0,0.0
711,60.0,48.0,150.0,0.0,0.0
712,65.0,0.0,90.0,0.0,0.0
713,41.0,0.0,90.0,0.0,0.0
714,62.0,144.0,40.0,0.0,0.0
715,66.0,0.0,300.0,0.0,0.0
716,39.0,0.0,180.0,0.0,0.0
717,63.0,48.0,150.0,0.0,0.0
718,62.0,48.0,40.0,0.0,0.0
719,46.0,0.0,150.0,0.0,0.0
720,58.0,0.0,15.0,0.0,0.0
721,63.0,48.0,150.0,0.0,0.0
722,56.0,48.0,40.0,0.0,0.0
723,68.0,0.0,90.0,0.0,0.0
724,54.0,0.0,40.0,0.0,0.0
725,44.0,0.0,40.0,0.0,0.0
726,53.0,0.0,40.0,0.0,0.0
727,65.0,144.0,40.0,0.0,0.0
728,51.0,0.0,180.0,0.0,0.0
729,42.0,0.0,150.0,0.0,0.0
730,66.0,24.0,150.0,0.0,0.0
731,41.0,0.0,40.0,0.0,0.0
732,68.0,24.0,20.0,0.0,0.0
733,70.0,48.0,20.0,0.0,0.0
734,39.0,144.0,180.0,0.0,0.0
735,68.0,48.0,40.0,0.0,0.0
736,66.0,48.0,40.0,0.0,0.0
737,65.0,48.0,40.0,0.0,0.0
738,63.0,0.0,40.0,0.0,0.0
739,68.0,24.0,150.0,0.0,0.0
740,71.0,0.0,390.0,0.0,0.0
741,38.0,144.0,180.0,0.0,0.0
742,66.0,24.0,20.0,0.0,0.0
743,65.0,0.0,20.0,0.0,0.0
744,66.0,0.0,150.0,0.0,0.0
745,39.0,48.0,150.0,0.0,0.0
746,62.0,0.0,40.0,0.0,0.0
747,41.0,144.0,40.0,0.0,0.0
748,63.0,24.0,150.0,0.0,0.0
749,70.0,0.0,300.0,0.0,0.0
750,58.0,0.0,180.0,0.0,0.0
751,65.0,24.0,20.0,0.0,0.0
752,66.0,0.0,20.0,0.0,0.0
753,51.0,0.0,150.0,0.0,0.0
754,60.0,48.0,150.0,0.0,0.0
755,42.0,48.0,15.0,0.0,0.0
756,44.0,48.0,40.0,0.0,0.0
757,42.0,0.0,40.0,0.0,0.0
758,68.0,96.0,90.0,0.0,0.0
759,41.0,0.0,40.0,0.0,0.0
760,62.0,0.0,40.0,0.0,0.0
761,53.0,0.0,40.0,0.0,0.0
762,39.0,48.0,90.0,0.0,0.0
763,63.0,96.0,180.0,0.0,0.0
764,54.0,48.0,150.0,0.0,0.0
765,56.0,0.0,40.0,0.0,0.0
766,58.0,0.0,180.0,0.0,0.0
767,51.0,24.0,15.0,0.0,0.0
768,49.0,24.0,20.0,0.0,0.0
769,47.0,24.0,20.0,0.0,0.0
770,46.0,144.0,20.0,0.0,0.0
771,66.0,0.0,15.0,0.0,0.0
772,59.0,0.0,180.0,0.0,0.0
773,44.0,0.0,150.0,0.0,0.0
774,65.0,144.0,40.0,0.0,0.0
775,49.0,0.0,40.0,0.0,0.0
776,58.0,48.0,150.0,0.0,0.0
777,51.0,0.0,150.0,0.0,0.0
778,66.0,0.0,150.0,0.0,0.0
779,53.0,0.0,40.0,0.0,0.0
780,68.0,0.0,40.0,0.0,0.0
781,56.0,144.0,40.0,0.0,0.0
782,54.0,48.0,150.0,0.0,0.0
783,70.0,0.0,180.0,0.0,0.0
784,53.0,48.0,40.0,0.0,0.0
785,51.0,48.0,180.0,0.0,0.0
786,70.0,48.0,40.0,0.0,0.0
787,54.0,0.0,40.0,0.0,0.0
788,71.0,0.0,40.0,0.0,0.0
789,53.0,48.0,40.0,0.0,0.0
790,70.0,0.0,40.0,0.0,0.0
791,54.0,48.0,40.0,0.0,0.0
792,68.0,0.0,40.0,0.0,0.0
793,56.0,0.0,40.0,0.0,0.0
794,66.0,48.0,40.0,0.0,0.0
795,51.0,0.0,150.0,0.0,0.0
796,70.0,48.0,40.0,0.0,0.0
797,71.0,48.0,40.0,0.0,0.0
798,49.0,48.0,40.0,0.0,0.0
799,73.0,0.0,40.0,0.0,0.0
800,47.0,0.0,180.0,0.0,0.0
801,75.0,0.0,180.0,0.0,0.0
802,58.0,0.0,15.0,0.0,0.0
803,51.0,48.0,40.0,0.0,0.0
804,53.0,48.0,40.0,0.0,0.0
805,55.0,48.0,40.0,0.0,0.0
806,75.0,48.0,40.0,0.0,0.0
807,47.0,0.0,150.0,0.0,0.0
808,56.0,48.0,180.0,0.0,0.0
809,76.0,48.0,40.0,0.0,0.0
810,75.0,48.0,40.0,0.0,0.0
811,46.0,0.0,40.0,0.0,0.0
812,73.0,0.0,40.0,0.0,0.0
813,44.0,0.0,150.0,0.0,0.0
814,71.0,48.0,40.0,0.0,0.0
815,70.0,48.0,40.0,0.0,0.0
816,68.0,48.0,40.0,0.0,0.0
817,66.0,0.0,40.0,0.0,0.0
818,46.0,24.0,40.0,0.0,0.0
819,47.0,24.0,40.0,0.0,0.0
820,66.0,24.0,20.0,0.0,0.0
821,65.0,0.0,20.0,0.0,0.0
822,66.0,24.0,20.0,0.0,0.0
823,51.0,0.0,40.0,0.0,0.0
824,65.0,24.0,20.0,0.0,0.0
825,49.0,0.0,40.0,0.0,0.0
826,66.0,24.0,20.0,0.0,0.0
827,65.0,24.0,20.0,0.0,0.0
828,63.0,24.0,20.0,0.0,0.0
829,47.0,48.0,40.0,0.0,0.0
830,61.0,0.0,20.0,0.0,0.0
831,46.0,48.0,40.0,0.0,0.0
832,44.0,48.0,40.0,0.0,0.0
833,42.0,48.0,40.0,0.0,0.0
834,41.0,0.0,40.0,0.0,0.0
835,39.0,48.0,150.0,0.0,0.0
836,66.0,48.0,15.0,0.0,0.0
837,65.0,48.0,40.0,0.0,0.0
838,63.0,0.0,40.0,0.0,0.0
839,65.0,48.0,40.0,0.0,0.0
840,37.0,0.0,40.0,0.0,0.0
841,39.0,0.0,150.0,0.0,0.0
842,66.0,48.0,40.0,0.0,0.0
843,68.0,48.0,40.0,0.0,0.0
844,70.0,48.0,40.0,0.0,0.0
845,42.0,0.0,40.0,0.0,0.0
846,72.0,48.0,40.0,0.0,0.0
847,41.0,48.0,40.0,0.0,0.0
848,73.0,48.0,150.0,0.0,0.0
849,37.0,48.0,40.0,0.0,0.0
850,39.0,0.0,40.0,0.0,0.0
851,41.0,0.0,40.0,0.0,0.0
852,71.0,48.0,40.0,0.0,0.0
853,42.0,48.0,40.0,0.0,0.0
854,70.0,0.0,40.0,0.0,0.0
855,44.0,48.0,40.0,0.0,0.0
856,68.0,0.0,40.0,0.0,0.0
857,66.0,48.0,40.0,0.0,0.0
858,46.0,0.0,40.0,0.0,0.0
859,65.0,0.0,40.0,0.0,0.0
860,47.0,144.0,40.0,0.0,0.0
861,46.0,0.0,180.0,0.0,0.0
862,66.0,24.0,150.0,0.0,0.0
863,61.0,144.0,180.0,0.0,0.0
864,68.0,24.0,20.0,0.0,0.0
865,70.0,0.0,20.0,0.0,0.0
866,63.0,48.0,150.0,0.0,0.0
867,47.0,0.0,180.0,0.0,0.0
868,54.0,0.0,150.0,0.0,0.0
869,56.0,0.0,40.0,0.0,0.0
870,75.0,96.0,40.0,0.0,0.0
871,66.0,24.0,90.0,0.0,0.0
872,58.0,0.0,150.0,0.0,0.0
873,66.0,24.0,20.0,0.0,0.0
874,65.0,24.0,20.0,0.0,0.0
875,59.0,24.0,40.0,0.0,0.0
876,63.0,24.0,20.0,0.0,0.0
877,65.0,0.0,20.0,0.0,0.0
878,66.0,24.0,20.0,0.0,0.0
879,61.0,0.0,180.0,0.0,0.0
880,65.0,24.0,20.0,0.0,0.0
881,66.0,24.0,20.0,0.0,0.0
882,65.0,24.0,20.0,0.0,0.0
883,66.0,24.0,20.0,0.0,0.0
884,65.0,48.0,20.0,0.0,0.0
885,66.0,0.0,40.0,0.0,0.0
886,49.0,48.0,15.0,0.0,0.0
887,66.0,0.0,180.0,0.0,0.0
888,63.0,24.0,180.0,0.0,0.0
889,47.0,24.0,20.0,0.0,0.0
890,46.0,48.0,20.0,0.0,0.0
891,47.0,48.0,40.0,0.0,0.0
892,44.0,0.0,40.0,0.0,0.0
893,42.0,24.0,20.0,0.0,0.0
894,61.0,24.0,150.0,0.0,0.0
895,41.0,24.0,20.0,0.0,0.0
896,42.0,24.0,20.0,0.0,0.0
897,41.0,24.0,20.0,0.0,0.0
898,42.0,24.0,20.0,0.0,0.0
899,41.0,0.0,20.0,0.0,0.0
900,39.0,24.0,20.0,0.0,0.0
901,59.0,0.0,40.0,0.0,0.0
902,68.0,96.0,40.0,0.0,0.0
903,41.0,0.0,20.0,0.0,0.0
904,42.0,24.0,150.0,0.0,0.0
905,61.0,24.0,15.0,0.0,0.0
906,63.0,0.0,20.0,0.0,0.0
907,54.0,0.0,40.0,0.0,0.0
908,61.0,24.0,20.0,0.0,0.0
909,60.0,0.0,20.0,0.0,0.0
910,61.0,0.0,150.0,0.0,0.0
911,58.0,48.0,15.0,0.0,0.0
912,53.0,0.0,150.0,0.0,0.0
913,56.0,48.0,40.0,0.0,0.0
914,58.0,48.0,40.0,0.0,0.0
915,51.0,0.0,40.0,0.0,0.0
916,63.0,0.0,40.0,0.0,0.0
917,60.0,144.0,40.0,0.0,0.0
918,49.0,48.0,150.0,0.0,0.0
919,65.0,48.0,180.0,0.0,0.0
920,61.0,0.0,150.0,0.0,0.0
921,56.0,0.0,40.0,0.0,0.0
922,37.0,0.0,40.0,0.0,0.0
923,61.0,0.0,180.0,0.0,0.0
924,35.0,48.0,150.0,0.0,0.0
925,65.0,48.0,40.0,0.0,0.0
926,63.0,48.0,40.0,0.0,0.0
927,65.0,0.0,40.0,0.0,0.0
928,34.0,144.0,40.0,0.0,0.0
929,67.0,0.0,40.0,0.0,0.0
930,32.0,48.0,150.0,0.0,0.0
931,68.0,0.0,150.0,0.0,0.0
932,61.0,0.0,180.0,0.0,0.0
933,63.0,48.0,40.0,0.0,0.0
934,44.0,0.0,40.0,0.0,0.0
935,42.0,48.0,150.0,0.0,0.0
936,60.0,48.0,40.0,0.0,0.0
937,58.0,48.0,40.0,0.0,0.0
938,60.0,0.0,40.0,0.0,0.0
939,62.0,0.0,40.0,0.0,0.0
940,41.0,144.0,40.0,0.0,0.0
941,68.0,0.0,15.0,0.0,0.0
942,63.0,0.0,150.0,0.0,0.0
943,39.0,48.0,150.0,0.0,0.0
944,58.0,48.0,40.0,0.0,0.0
945,51.0,0.0,40.0,0.0,0.0
946,67.0,48.0,40.0,0.0,0.0
947,49.0,48.0,150.0,0.0,0.0
948,63.0,0.0,180.0,0.0,0.0
949,65.0,48.0,40.0,0.0,0.0
950,67.0,0.0,40.0,0.0,0.0
951,48.0,96.0,40.0,0.0,0.0
952,69.0,0.0,40.0,0.0,0.0
953,70.0,24.0,150.0,0.0,0.0
954,46.0,24.0,90.0,0.0,0.0
955,63.0,96.0,180.0,0.0,0.0
956,46.0,24.0,20.0,0.0,0.0
957,53.0,0.0,20.0,0.0,0.0
958,72.0,0.0,40.0,0.0,0.0
959,55.0,24.0,20.0,0.0,0.0
960,57.0,0.0,20.0,0.0,0.0
961,58.0,0.0,150.0,0.0,0.0
962,73.0,144.0,180.0,0.0,0.0
963,61.0,24.0,15.0,0.0,0.0
964,65.0,24.0,20.0,0.0,0.0
965,56.0,0.0,40.0,0.0,0.0
966,66.0,24.0,20.0,0.0,0.0
967,68.0,0.0,20.0,0.0,0.0
968,54.0,48.0,150.0,0.0,0.0
969,70.0,0.0,180.0,0.0,0.0
970,53.0,0.0,40.0,0.0,0.0
971,73.0,0.0,15.0,0.0,0.0
972,54.0,0.0,150.0,0.0,0.0
973,63.0,0.0,180.0,0.0,0.0
974,72.0,48.0,150.0,0.0,0.0
975,51.0,144.0,40.0,0.0,0.0
976,70.0,0.0,40.0,0.0,0.0
977,69.0,48.0,150.0,0.0,0.0
978,63.0,0.0,180.0,0.0,0.0
979,53.0,144.0,180.0,0.0,0.0
980,65.0,0.0,40.0,0.0,0.0
981,61.0,48.0,150.0,0.0,0.0
982,70.0,144.0,180.0,0.0,0.0
983,58.0,0.0,40.0,0.0,0.0
984,60.0,0.0,180.0,0.0,0.0
985,41.0,0.0,390.0,0.0,0.0
986,70.0,24.0,150.0,0.0,0.0
987,68.0,24.0,20.0,0.0,0.0
988,67.0,144.0,20.0,0.0,0.0
989,65.0,48.0,150.0,0.0,0.0
990,63.0,144.0,40.0,0.0,0.0
991,68.0,0.0,15.0,0.0,0.0
992,34.0,48.0,300.0,0.0,0.0
993,61.0,0.0,150.0,0.0,0.0
994,60.0,0.0,40.0,0.0,0.0
995,66.0,24.0,20.0,0.0,0.0
996,65.0,96.0,20.0,0.0,0.0
997,58.0,48.0,150.0,0.0,0.0
998,66.0,0.0,180.0,0.0,0.0
999,36.0,0.0,90.0,0.0,0.0
1000,57.0,48.0,40.0,0.0,0.0
1001,37.0,48.0,300.0,0.0,0.0
1002,66.0,48.0,40.0,0.0,0.0
1003,46.0,96.0,180.0,0.0,0.0
1004,66.0,48.0,40.0,0.0,0.0
1005,65.0,48.0,40.0,0.0,0.0
1006,63.0,0.0,40.0,0.0,0.0
1007,53.0,48.0,150.0,0.0,0.0
1008,39.0,0.0,90.0,0.0,0.0
1009,51.0,0.0,40.0,0.0,0.0
1010,58.0,0.0,15.0,0.0,0.0
1011,41.0,0.0,390.0,0.0,0.0
1012,61.0,144.0,15.0,0.0,0.0
1013,49.0,0.0,150.0,0.0,0.0
1014,63.0,144.0,40.0,0.0,0.0
1015,48.0,0.0,40.0,0.0,0.0
1016,60.0,0.0,40.0,0.0,0.0
1017,46.0,0.0,180.0,0.0,0.0
1018,65.0,48.0,150.0,0.0,0.0
1019,61.0,0.0,150.0,0.0,0.0
1020,66.0,0.0,40.0,0.0,0.0
1021,42.0,0.0,390.0,0.0,0.0
1022,45.0,0.0,180.0,0.0,0.0
1023,63.0,144.0,15.0,0.0,0.0
1024,60.0,144.0,180.0,0.0,0.0
1025,72.0,24.0,20.0,0.0,0.0
1026,73.0,0.0,20.0,0.0,0.0
1027,75.0,48.0,150.0,0.0,0.0
1028,46.0,0.0,150.0,0.0,0.0
1029,63.0,0.0,40.0,0.0,0.0
1030,69.0,144.0,40.0,0.0,0.0
1031,48.0,0.0,40.0,0.0,0.0
1032,70.0,48.0,150.0,0.0,0.0
1033,41.0,0.0,300.0,0.0,0.0
1034,61.0,0.0,150.0,0.0,0.0
1035,49.0,0.0,180.0,0.0,0.0
1036,72.0,0.0,40.0,0.0,0.0
1037,63.0,24.0,40.0,0.0,0.0
1038,70.0,24.0,20.0,0.0,0.0
1039,49.0,0.0,40.0,0.0,0.0
1040,68.0,24.0,20.0,0.0,0.0
1041,51.0,0.0,40.0,0.0,0.0
1042,70.0,24.0,20.0,0.0,0.0
1043,68.0,24.0,20.0,0.0,0.0
1044,39.0,0.0,90.0,0.0,0.0
1045,49.0,48.0,40.0,0.0,0.0
1046,70.0,24.0,20.0,0.0,0.0
1047,68.0,0.0,20.0,0.0,0.0
1048,48.0,0.0,40.0,0.0,0.0
1049,65.0,0.0,15.0,0.0,0.0
1050,70.0,144.0,15.0,0.0,0.0
1051,37.0,96.0,390.0,0.0,0.0
1052,46.0,48.0,150.0,0.0,0.0
1053,72.0,0.0,40.0,0.0,0.0
1054,45.0,0.0,40.0,0.0,0.0
1055,73.0,48.0,150.0,0.0,0.0
1056,46.0,0.0,150.0,0.0,0.0
1057,48.0,0.0,40.0,0.0,0.0
1058,75.0,0.0,40.0,0.0,0.0
1059,49.0,48.0,90.0,0.0,0.0
1060,37.0,0.0,150.0,0.0,0.0
1061,72.0,24.0,20.0,0.0,0.0
1062,36.0,96.0,40.0,0.0,0.0
1063,70.0,24.0,20.0,0.0,0.0
1064,69.0,0.0,20.0,0.0,0.0
1065,37.0,0.0,150.0,0.0,0.0
1066,77.0,24.0,15.0,0.0,0.0
1067,77.0,24.0,15.0,0.0,0.0
1068,39.0,144.0,40.0,0.0,0.0
1069,75.0,24.0,20.0,0.0,0.0
1070,73.0,0.0,20.0,0.0,0.0
1071,70.0,0.0,15.0,0.0,0.0
1072,41.0,0.0,390.0,0.0,0.0
1073,72.0,96.0,390.0,0.0,0.0
1074,48.0,24.0,20.0,0.0,0.0
1075,50.0,24.0,20.0,0.0,0.0
1076,52.0,96.0,20.0,0.0,0.0
1077,70.0,24.0,15.0,0.0,0.0
1078,70.0,24.0,20.0,0.0,0.0
1079,68.0,24.0,20.0,0.0,0.0
1080,67.0,0.0,20.0,0.0,0.0
1081,53.0,0.0,15.0,0.0,0.0
1082,72.0,24.0,150.0,0.0,0.0
1083,68.0,96.0,180.0,0.0,0.0
1084,41.0,0.0,15.0,0.0,0.0
1085,44.0,0.0,20.0,0.0,0.0
1086,70.0,0.0,40.0,0.0,0.0
1087,43.0,24.0,20.0,0.0,0.0
1088,41.0,0.0,20.0,0.0,0.0
1089,39.0,24.0,90.0,0.0,0.0
1090,72.0,0.0,150.0,0.0,0.0
1091,39.0,24.0,20.0,0.0,0.0
1092,41.0,24.0,20.0,0.0,0.0
1093,73.0,144.0,40.0,0.0,0.0
1094,39.0,24.0,20.0,0.0,0.0
1095,37.0,0.0,20.0,0.0,0.0
1096,36.0,0.0,150.0,0.0,0.0
1097,75.0,24.0,300.0,0.0,0.0
1098,70.0,24.0,20.0,0.0,0.0
1099,34.0,96.0,40.0,0.0,0.0
1100,68.0,24.0,20.0,0.0,0.0
1101,67.0,0.0,20.0,0.0,0.0
1102,36.0,24.0,150.0,0.0,0.0
1103,68.0,0.0,180.0,0.0,0.0
1104,75.0,24.0,20.0,0.0,0.0
1105,75.0,0.0,20.0,0.0,0.0
1106,37.0,144.0,40.0,0.0,0.0
1107,73.0,24.0,20.0,0.0,0.0
1108,72.0,0.0,20.0,0.0,0.0
1109,46.0,24.0,20.0,0.0,0.0
1110,48.0,24.0,20.0,0.0,0.0
1111,50.0,96.0,20.0,0.0,0.0
1112,68.0,24.0,15.0,0.0,0.0
1113,68.0,24.0,15.0,0.0,0.0
1114,66.0,24.0,20.0,0.0,0.0
1115,65.0,96.0,20.0,0.0,0.0
1116,39.0,0.0,15.0,0.0,0.0
1117,51.0,0.0,15.0,0.0,0.0
1118,70.0,0.0,15.0,0.0,0.0
1119,66.0,96.0,180.0,0.0,0.0
1120,39.0,24.0,15.0,0.0,0.0
1121,42.0,0.0,20.0,0.0,0.0
1122,41.0,24.0,20.0,0.0,0.0
1123,69.0,0.0,40.0,0.0,0.0
1124,39.0,0.0,20.0,0.0,0.0
1125,70.0,0.0,150.0,0.0,0.0
1126,37.0,24.0,15.0,0.0,0.0
1127,39.0,24.0,20.0,0.0,0.0
1128,37.0,24.0,20.0,0.0,0.0
1129,72.0,0.0,40.0,0.0,0.0
1130,36.0,144.0,20.0,0.0,0.0
1131,34.0,0.0,150.0,0.0,0.0
1132,68.0,24.0,20.0,0.0,0.0
1133,32.0,96.0,40.0,0.0,0.0
1134,66.0,24.0,20.0,0.0,0.0
1135,65.0,0.0,20.0,0.0,0.0
1136,66.0,0.0,180.0,0.0,0.0
1137,34.0,24.0,150.0,0.0,0.0
1138,73.0,24.0,15.0,0.0,0.0
1139,73.0,24.0,15.0,0.0,0.0
1140,36.0,0.0,40.0,0.0,0.0
1141,72.0,24.0,20.0,0.0,0.0
1142,70.0,144.0,20.0,0.0,0.0
1143,44.0,24.0,20.0,0.0,0.0
1144,46.0,24.0,20.0,0.0,0.0
1145,48.0,96.0,20.0,0.0,0.0
1146,66.0,24.0,15.0,0.0,0.0
1147,66.0,24.0,15.0,0.0,0.0
1148,65.0,24.0,20.0,0.0,0.0
1149,63.0,0.0,20.0,0.0,0.0
1150,68.0,0.0,15.0,0.0,0.0
1151,37.0,48.0,15.0,0.0,0.0
1152,49.0,0.0,15.0,0.0,0.0
1153,51.0,0.0,40.0,0.0,0.0
1154,49.0,48.0,40.0,0.0,0.0
1155,68.0,0.0,15.0,0.0,0.0
1156,48.0,48.0,40.0,0.0,0.0
1157,46.0,48.0,40.0,0.0,0.0
1158,73.0,0.0,150.0,0.0,0.0
1159,49.0,48.0,40.0,0.0,0.0
1160,51.0,48.0,40.0,0.0,0.0
1161,72.0,0.0,40.0,0.0,0.0
1162,53.0,0.0,40.0,0.0,0.0
1163,65.0,48.0,15.0,0.0,0.0
1164,54.0,48.0,40.0,0.0,0.0
1165,70.0,0.0,150.0,0.0,0.0
1166,56.0,48.0,40.0,0.0,0.0
1167,54.0,0.0,40.0,0.0,0.0
1168,53.0,48.0,40.0,0.0,0.0
1169,58.0,0.0,40.0,0.0,0.0
1170,68.0,0.0,40.0,0.0,0.0
1171,63.0,48.0,150.0,0.0,0.0
1172,51.0,48.0,40.0,0.0,0.0
1173,49.0,48.0,40.0,0.0,0.0
1174,48.0,0.0,40.0,0.0,0.0
1175,46.0,0.0,40.0,0.0,0.0
1176,61.0,0.0,40.0,0.0,0.0
1177,45.0,48.0,40.0,0.0,0.0
1178,66.0,48.0,15.0,0.0,0.0
1179,60.0,0.0,150.0,0.0,0.0
1180,51.0,48.0,40.0,0.0,0.0
1181,53.0,0.0,40.0,0.0,0.0
1182,60.0,0.0,40.0,0.0,0.0
1183,58.0,0.0,40.0,0.0,0.0
1184,54.0,48.0,40.0,0.0,0.0
1185,57.0,0.0,180.0,0.0,0.0
1186,65.0,0.0,150.0,0.0,0.0
1187,53.0,48.0,40.0,0.0,0.0
1188,51.0,48.0,40.0,0.0,0.0
1189,49.0,48.0,40.0,0.0,0.0
1190,63.0,48.0,40.0,0.0,0.0
1191,48.0,0.0,40.0,0.0,0.0
1192,46.0,48.0,40.0,0.0,0.0
1193,61.0,48.0,150.0,0.0,0.0
1194,53.0,48.0,40.0,0.0,0.0
1195,54.0,0.0,40.0,0.0,0.0
1196,62.0,0.0,40.0,0.0,0.0
1197,56.0,48.0,40.0,0.0,0.0
1198,54.0,48.0,40.0,0.0,0.0
1199,63.0,48.0,150.0,0.0,0.0
1200,53.0,48.0,40.0,0.0,0.0
1201,51.0,0.0,40.0,0.0,0.0
1202,65.0,48.0,40.0,0.0,0.0
1203,50.0,0.0,40.0,0.0,0.0
1204,66.0,48.0,150.0,0.0,0.0
1205,58.0,0.0,15.0,0.0,0.0
1206,58.0,48.0,15.0,0.0,0.0
1207,60.0,0.0,40.0,0.0,0.0
1208,61.0,0.0,40.0,0.0,0.0
1209,67.0,48.0,40.0,0.0,0.0
1210,69.0,0.0,150.0,0.0,0.0
1211,60.0,48.0,40.0,0.0,0.0
1212,58.0,48.0,40.0,0.0,0.0
1213,57.0,48.0,40.0,0.0,0.0
1214,55.0,0.0,40.0,0.0,0.0
1215,70.0,0.0,40.0,0.0,0.0
1216,72.0,0.0,180.0,0.0,0.0
1217,51.0,48.0,15.0,0.0,0.0
1218,54.0,48.0,40.0,0.0,0.0
1219,53.0,48.0,40.0,0.0,0.0
1220,51.0,0.0,40.0,0.0,0.0
1221,57.0,48.0,15.0,0.0,0.0
1222,49.0,0.0,180.0,0.0,0.0
1223,77.0,48.0,150.0,0.0,0.0
1224,53.0,48.0,40.0,0.0,0.0
1225,55.0,0.0,40.0,0.0,0.0
1226,75.0,144.0,40.0,0.0,0.0
1227,57.0,0.0,40.0,0.0,0.0
1228,49.0,0.0,180.0,0.0,0.0
1229,73.0,48.0,150.0,0.0,0.0
1230,58.0,0.0,150.0,0.0,0.0
1231,60.0,144.0,40.0,0.0,0.0
1232,72.0,0.0,40.0,0.0,0.0
1233,61.0,48.0,150.0,0.0,0.0
1234,54.0,0.0,180.0,0.0,0.0
1235,70.0,0.0,180.0,0.0,0.0
1236,63.0,192.0,40.0,0.0,0.0
1237,65.0,0.0,390.0,0.0,0.0
1238,53.0,0.0,180.0,0.0,0.0
1239,69.0,144.0,180.0,0.0,0.0
1240,41.0,0.0,40.0,0.0,0.0
1241,43.0,48.0,150.0,0.0,0.0
1242,70.0,0.0,150.0,0.0,0.0
1243,72.0,144.0,40.0,0.0,0.0
1244,45.0,0.0,40.0,0.0,0.0
1245,58.0,0.0,180.0,0.0,0.0
1246,46.0,48.0,150.0,0.0,0.0
1247,48.0,48.0,40.0,0.0,0.0
1248,73.0,0.0,15.0,0.0,0.0
1249,65.0,48.0,150.0,0.0,0.0
1250,75.0,48.0,40.0,0.0,0.0
1251,73.0,0.0,40.0,0.0,0.0
1252,60.0,0.0,90.0,0.0,0.0
1253,72.0,0.0,40.0,0.0,0.0
1254,63.0,96.0,40.0,0.0,0.0
1255,49.0,0.0,15.0,0.0,0.0
1256,70.0,96.0,180.0,0.0,0.0
1257,61.0,0.0,150.0,0.0,0.0
1258,49.0,24.0,15.0,0.0,0.0
1259,49.0,24.0,15.0,0.0,0.0
1260,60.0,0.0,40.0,0.0,0.0
1261,51.0,24.0,20.0,0.0,0.0
1262,53.0,0.0,20.0,0.0,0.0
1263,54.0,48.0,150.0,0.0,0.0
1264,58.0,0.0,180.0,0.0,0.0
1265,63.0,48.0,90.0,0.0,0.0
1266,42.0,0.0,40.0,0.0,0.0
1267,57.0,48.0,180.0,0.0,0.0
1268,65.0,48.0,390.0,0.0,0.0
1269,41.0,48.0,40.0,0.0,0.0
1270,54.0,48.0,40.0,0.0,0.0
1271,53.0,48.0,40.0,0.0,0.0
1272,51.0,0.0,40.0,0.0,0.0
1273,49.0,48.0,40.0,0.0,0.0
1274,58.0,48.0,150.0,0.0,0.0
1275,48.0,48.0,40.0,0.0,0.0
1276,46.0,0.0,40.0,0.0,0.0
1277,60.0,0.0,40.0,0.0,0.0
1278,45.0,0.0,40.0,0.0,0.0
1279,46.0,48.0,40.0,0.0,0.0
1280,66.0,48.0,390.0,0.0,0.0
1281,56.0,48.0,40.0,0.0,0.0
1282,54.0,48.0,40.0,0.0,0.0
1283,53.0,0.0,40.0,0.0,0.0
1284,61.0,48.0,15.0,0.0,0.0
1285,51.0,0.0,40.0,0.0,0.0
1286,49.0,48.0,40.0,0.0,0.0
1287,65.0,0.0,40.0,0.0,0.0
1288,63.0,0.0,40.0,0.0,0.0
1289,48.0,48.0,40.0,0.0,0.0
1290,61.0,0.0,40.0,0.0,0.0
1291,46.0,0.0,40.0,0.0,0.0
1292,60.0,0.0,40.0,0.0,0.0
1293,45.0,48.0,40.0,0.0,0.0
1294,65.0,0.0,300.0,0.0,0.0
1295,61.0,0.0,40.0,0.0,0.0
1296,58.0,48.0,40.0,0.0,0.0
1297,60.0,48.0,40.0,0.0,0.0
1298,57.0,0.0,40.0,0.0,0.0
1299,58.0,0.0,40.0,0.0,0.0
1300,55.0,48.0,40.0,0.0,0.0
1301,53.0,48.0,40.0,0.0,0.0
1302,57.0,0.0,180.0,0.0,0.0
1303,51.0,48.0,40.0,0.0,0.0
1304,63.0,48.0,90.0,0.0,0.0
1305,49.0,48.0,40.0,0.0,0.0
1306,48.0,0.0,40.0,0.0,0.0
1307,61.0,0.0,390.0,0.0,0.0
1308,46.0,48.0,40.0,0.0,0.0
1309,58.0,0.0,150.0,0.0,0.0
1310,48.0,48.0,40.0,0.0,0.0
1311,46.0,48.0,40.0,0.0,0.0
1312,53.0,0.0,40.0,0.0,0.0
1313,44.0,48.0,40.0,0.0,0.0
1314,42.0,48.0,40.0,0.0,0.0
1315,41.0,0.0,40.0,0.0,0.0
1316,58.0,24.0,15.0,0.0,0.0
1317,39.0,0.0,40.0,0.0,0.0
1318,56.0,24.0,20.0,0.0,0.0
1319,37.0,0.0,40.0,0.0,0.0
1320,54.0,24.0,20.0,0.0,0.0
1321,53.0,48.0,20.0,0.0,0.0
1322,39.0,48.0,40.0,0.0,0.0
1323,61.0,0.0,150.0,0.0,0.0
1324,54.0,0.0,150.0,0.0,0.0
1325,46.0,48.0,40.0,0.0,0.0
1326,44.0,48.0,40.0,0.0,0.0
1327,42.0,0.0,40.0,0.0,0.0
1328,60.0,48.0,40.0,0.0,0.0
1329,51.0,0.0,40.0,0.0,0.0
1330,41.0,48.0,40.0,0.0,0.0
1331,61.0,48.0,150.0,0.0,0.0
1332,56.0,48.0,180.0,0.0,0.0
1333,39.0,48.0,40.0,0.0,0.0
1334,37.0,0.0,40.0,0.0,0.0
1335,63.0,0.0,40.0,0.0,0.0
1336,36.0,0.0,40.0,0.0,0.0
1337,37.0,48.0,40.0,0.0,0.0
1338,65.0,0.0,180.0,0.0,0.0
1339,56.0,48.0,180.0,0.0,0.0
1340,44.0,48.0,40.0,0.0,0.0
1341,46.0,48.0,40.0,0.0,0.0
1342,48.0,0.0,40.0,0.0,0.0
1343,49.0,48.0,40.0,0.0,0.0
1344,65.0,0.0,40.0,0.0,0.0
1345,56.0,48.0,40.0,0.0,0.0
1346,51.0,0.0,40.0,0.0,0.0
1347,58.0,0.0,40.0,0.0,0.0
1348,49.0,48.0,40.0,0.0,0.0
1349,48.0,48.0,40.0,0.0,0.0
1350,60.0,0.0,40.0,0.0,0.0
1351,46.0,0.0,40.0,0.0,0.0
1352,61.0,48.0,40.0,0.0,0.0
1353,49.0,48.0,40.0,0.0,0.0
1354,63.0,0.0,40.0,0.0,0.0
1355,51.0,0.0,40.0,0.0,0.0
1356,61.0,48.0,40.0,0.0,0.0
1357,53.0,48.0,40.0,0.0,0.0
1358,60.0,0.0,40.0,0.0,0.0
1359,58.0,0.0,40.0,0.0,0.0
1360,54.0,48.0,40.0,0.0,0.0
1361,61.0,0.0,40.0,0.0,0.0
1362,56.0,48.0,40.0,0.0,0.0
1363,63.0,0.0,40.0,0.0,0.0
1364,54.0,48.0,40.0,0.0,0.0
1365,53.0,48.0,40.0,0.0,0.0
1366,65.0,0.0,40.0,0.0,0.0
1367,66.0,0.0,40.0,0.0,0.0
1368,51.0,48.0,40.0,0.0,0.0
1369,39.0,0.0,40.0,0.0,0.0
1370,68.0,48.0,40.0,0.0,0.0
1371,66.0,0.0,40.0,0.0,0.0
1372,41.0,48.0,40.0,0.0,0.0
1373,42.0,48.0,40.0,0.0,0.0
1374,65.0,0.0,40.0,0.0,0.0
1375,63.0,0.0,40.0,0.0,0.0
1376,44.0,48.0,40.0,0.0,0.0
1377,51.0,48.0,40.0,0.0,0.0
1378,46.0,0.0,40.0,0.0,0.0
1379,53.0,48.0,40.0,0.0,0.0
1380,44.0,0.0,40.0,0.0,0.0
1381,42.0,0.0,40.0,0.0,0.0
1382,54.0,48.0,40.0,0.0,0.0
1383,41.0,0.0,40.0,0.0,0.0
1384,56.0,48.0,40.0,0.0,0.0
1385,49.0,0.0,180.0,0.0,0.0
1386,42.0,48.0,40.0,0.0,0.0
1387,58.0,0.0,40.0,0.0,0.0
1388,41.0,48.0,40.0,0.0,0.0
1389,56.0,0.0,40.0,0.0,0.0
1390,39.0,0.0,40.0,0.0,0.0
1391,54.0,48.0,40.0,0.0,0.0
1392,56.0,48.0,150.0,0.0,0.0
1393,53.0,48.0,40.0,0.0,0.0
1394,54.0,48.0,40.0,0.0,0.0
1395,53.0,0.0,40.0,0.0,0.0
1396,54.0,0.0,40.0,0.0,0.0
1397,51.0,96.0,40.0,0.0,0.0
1398,49.0,24.0,90.0,0.0,0.0
1399,37.0,0.0,15.0,0.0,0.0
1400,49.0,24.0,20.0,0.0,0.0
1401,53.0,0.0,20.0,0.0,0.0
1402,55.0,24.0,20.0,0.0,0.0
1403,51.0,0.0,40.0,0.0,0.0
1404,57.0,96.0,20.0,0.0,0.0
1405,58.0,0.0,180.0,0.0,0.0
1406,49.0,48.0,180.0,0.0,0.0
1407,37.0,24.0,15.0,0.0,0.0
1408,36.0,24.0,20.0,0.0,0.0
1409,37.0,24.0,20.0,0.0,0.0
1410,39.0,0.0,20.0,0.0,0.0
1411,41.0,48.0,40.0,0.0,0.0
1412,65.0,0.0,390.0,0.0,0.0
1413,58.0,48.0,150.0,0.0,0.0
1414,48.0,0.0,180.0,0.0,0.0
1415,54.0,48.0,40.0,0.0,0.0
1416,53.0,0.0,40.0,0.0,0.0
1417,57.0,0.0,40.0,0.0,0.0
1418,51.0,48.0,40.0,0.0,0.0
1419,53.0,48.0,150.0,0.0,0.0
1420,58.0,0.0,150.0,0.0,0.0
1421,49.0,48.0,40.0,0.0,0.0
1422,48.0,48.0,40.0,0.0,0.0
1423,46.0,0.0,90.0,0.0,0.0
1424,51.0,0.0,40.0,0.0,0.0
1425,60.0,48.0,40.0,0.0,0.0
1426,53.0,0.0,180.0,0.0,0.0
1427,58.0,0.0,300.0,0.0,0.0
1428,46.0,48.0,40.0,0.0,0.0
1429,61.0,48.0,180.0,0.0,0.0
1430,44.0,48.0,40.0,0.0,0.0
1431,42.0,48.0,40.0,0.0,0.0
1432,41.0,0.0,40.0,0.0,0.0
1433,42.0,0.0,40.0,0.0,0.0
1434,53.0,48.0,40.0,0.0,0.0
1435,39.0,0.0,40.0,0.0,0.0
1436,54.0,48.0,40.0,0.0,0.0
1437,45.0,0.0,90.0,0.0,0.0
1438,53.0,48.0,40.0,0.0,0.0
1439,60.0,48.0,90.0,0.0,0.0
1440,51.0,0.0,40.0,0.0,0.0
1441,58.0,0.0,180.0,0.0,0.0
1442,46.0,0.0,40.0,0.0,0.0
1443,49.0,48.0,40.0,0.0,0.0
1444,61.0,48.0,300.0,0.0,0.0
1445,51.0,48.0,40.0,0.0,0.0
1446,42.0,0.0,40.0,0.0,0.0
1447,49.0,0.0,40.0,0.0,0.0
1448,41.0,48.0,40.0,0.0,0.0
1449,39.0,0.0,40.0,0.0,0.0
1450,48.0,48.0,40.0,0.0,0.0
1451,65.0,0.0,150.0,0.0,0.0
1452,37.0,48.0,40.0,0.0,0.0
1453,46.0,0.0,150.0,0.0,0.0
1454,39.0,0.0,40.0,0.0,0.0
1455,37.0,48.0,40.0,0.0,0.0
1456,63.0,0.0,40.0,0.0,0.0
1457,36.0,0.0,40.0,0.0,0.0
1458,53.0,48.0,40.0,0.0,0.0
1459,34.0,48.0,40.0,0.0,0.0
1460,65.0,96.0,390.0,0.0,0.0
1461,58.0,0.0,150.0,0.0,0.0
1462,61.0,48.0,150.0,0.0,0.0
1463,41.0,48.0,40.0,0.0,0.0
1464,42.0,0.0,40.0,0.0,0.0
1465,60.0,0.0,40.0,0.0,0.0
1466,44.0,48.0,40.0,0.0,0.0
1467,56.0,0.0,40.0,0.0,0.0
1468,58.0,0.0,180.0,0.0,0.0
1469,54.0,48.0,150.0,0.0,0.0
1470,46.0,48.0,40.0,0.0,0.0
1471,48.0,48.0,40.0,0.0,0.0
1472,49.0,0.0,90.0,0.0,0.0
1473,53.0,0.0,40.0,0.0,0.0
1474,51.0,48.0,90.0,0.0,0.0
1475,57.0,0.0,180.0,0.0,0.0
1476,66.0,96.0,390.0,0.0,0.0
1477,48.0,0.0,40.0,0.0,0.0
1478,49.0,48.0,40.0,0.0,0.0
1479,51.0,48.0,40.0,0.0,0.0
1480,49.0,48.0,40.0,0.0,0.0
1481,58.0,0.0,150.0,0.0,0.0
1482,48.0,48.0,40.0,0.0,0.0
1483,46.0,48.0,40.0,0.0,0.0
1484,60.0,0.0,40.0,0.0,0.0
1485,45.0,0.0,40.0,0.0,0.0
1486,65.0,0.0,300.0,0.0,0.0
1487,48.0,48.0,40.0,0.0,0.0
1488,49.0,48.0,40.0,0.0,0.0
1489,51.0,0.0,40.0,0.0,0.0
1490,61.0,48.0,15.0,0.0,0.0
1491,63.0,48.0,15.0,0.0,0.0
1492,61.0,48.0,40.0,0.0,0.0
1493,60.0,0.0,40.0,0.0,0.0
1494,46.0,0.0,15.0,0.0,0.0
1495,53.0,0.0,15.0,0.0,0.0
1496,61.0,0.0,390.0,0.0,0.0
1497,58.0,0.0,150.0,0.0,0.0
1498,54.0,48.0,40.0,0.0,0.0
1499,53.0,48.0,40.0,0.0,0.0
1500,51.0,48.0,40.0,0.0,0.0
1501,53.0,0.0,40.0,0.0,0.0
1502,49.0,0.0,180.0,0.0,0.0
1503,54.0,0.0,150.0,0.0,0.0
1504,46.0,0.0,15.0,0.0,0.0
1505,47.0,48.0,40.0,0.0,0.0
1506,46.0,48.0,40.0,0.0,0.0
1507,56.0,0.0,40.0,0.0,0.0
1508,44.0,48.0,40.0,0.0,0.0
1509,58.0,0.0,390.0,0.0,0.0
1510,42.0,0.0,180.0,0.0,0.0
1511,49.0,48.0,40.0,0.0,0.0
1512,61.0,48.0,150.0,0.0,0.0
1513,48.0,48.0,40.0,0.0,0.0
1514,46.0,0.0,40.0,0.0,0.0
1515,45.0,0.0,40.0,0.0,0.0
1516,60.0,48.0,40.0,0.0,0.0
1517,46.0,144.0,180.0,0.0,0.0
1518,61.0,0.0,150.0,0.0,0.0
1519,42.0,48.0,15.0,0.0,0.0
1520,41.0,48.0,40.0,0.0,0.0
1521,63.0,0.0,40.0,0.0,0.0
1522,39.0,0.0,40.0,0.0,0.0
1523,58.0,48.0,150.0,0.0,0.0
1524,38.0,0.0,180.0,0.0,0.0
1525,46.0,0.0,180.0,0.0,0.0
1526,53.0,144.0,40.0,0.0,0.0
1527,58.0,48.0,150.0,0.0,0.0
1528,46.0,96.0,40.0,0.0,0.0
1529,56.0,0.0,40.0,0.0,0.0
1530,65.0,0.0,15.0,0.0,0.0
1531,54.0,24.0,150.0,0.0,0.0
1532,51.0,0.0,150.0,0.0,0.0
1533,65.0,24.0,20.0,0.0,0.0
1534,58.0,0.0,20.0,0.0,0.0
1535,60.0,24.0,20.0,0.0,0.0
1536,53.0,0.0,40.0,0.0,0.0
1537,49.0,0.0,40.0,0.0,0.0
1538,61.0,144.0,20.0,0.0,0.0
1539,48.0,48.0,150.0,0.0,0.0
1540,54.0,0.0,180.0,0.0,0.0
1541,63.0,0.0,180.0,0.0,0.0
1542,46.0,96.0,40.0,0.0,0.0
1543,39.0,0.0,40.0,0.0,0.0
1544,54.0,24.0,150.0,0.0,0.0
1545,48.0,48.0,300.0,0.0,0.0
1546,44.0,24.0,90.0,0.0,0.0
1547,44.0,24.0,20.0,0.0,0.0
1548,46.0,0.0,20.0,0.0,0.0
1549,51.0,0.0,40.0,0.0,0.0
1550,44.0,24.0,20.0,0.0,0.0
1551,42.0,96.0,20.0,0.0,0.0
1552,56.0,0.0,150.0,0.0,0.0
1553,41.0,0.0,180.0,0.0,0.0
1554,48.0,48.0,40.0,0.0,0.0
1555,54.0,0.0,40.0,0.0,0.0
1556,44.0,96.0,40.0,0.0,0.0
1557,53.0,0.0,150.0,0.0,0.0
1558,63.0,0.0,15.0,0.0,0.0
1559,49.0,0.0,150.0,0.0,0.0
1560,63.0,24.0,20.0,0.0,0.0
1561,56.0,24.0,20.0,0.0,0.0
1562,51.0,144.0,40.0,0.0,0.0
1563,58.0,24.0,20.0,0.0,0.0
1564,48.0,0.0,40.0,0.0,0.0
1565,60.0,0.0,20.0,0.0,0.0
1566,46.0,48.0,150.0,0.0,0.0
1567,61.0,0.0,180.0,0.0,0.0
1568,45.0,0.0,40.0,0.0,0.0
1569,37.0,0.0,40.0,0.0,0.0
1570,42.0,24.0,90.0,0.0,0.0
1571,61.0,24.0,150.0,0.0,0.0
1572,53.0,96.0,15.0,0.0,0.0
1573,42.0,24.0,20.0,0.0,0.0
1574,44.0,0.0,20.0,0.0,0.0
1575,42.0,24.0,20.0,0.0,0.0
1576,58.0,96.0,40.0,0.0,0.0
1577,41.0,0.0,20.0,0.0,0.0
1578,42.0,0.0,150.0,0.0,0.0
1579,63.0,0.0,150.0,0.0,0.0
1580,46.0,48.0,15.0,0.0,0.0
1581,51.0,48.0,15.0,0.0,0.0
1582,43.0,0.0,40.0,0.0,0.0
1583,61.0,0.0,40.0,0.0,0.0
1584,58.0,144.0,40.0,0.0,0.0
1585,60.0,0.0,150.0,0.0,0.0
1586,51.0,0.0,15.0,0.0,0.0
1587,44.0,0.0,150.0,0.0,0.0
1588,56.0,48.0,150.0,0.0,0.0
1589,42.0,0.0,40.0,0.0,0.0
1590,60.0,0.0,40.0,0.0,0.0
1591,63.0,0.0,40.0,0.0,0.0
1592,61.0,0.0,150.0,0.0,0.0
1593,41.0,0.0,150.0,0.0,0.0
1594,68.0,48.0,150.0,0.0,0.0
1595,48.0,144.0,40.0,0.0,0.0
1596,44.0,0.0,40.0,0.0,0.0
1597,63.0,0.0,40.0,0.0,0.0
1598,66.0,0.0,40.0,0.0,0.0
1599,61.0,0.0,150.0,0.0,0.0
1600,49.0,48.0,150.0,0.0,0.0
1601,53.0,0.0,150.0,0.0,0.0
1602,65.0,0.0,150.0,0.0,0.0
1603,68.0,0.0,40.0,0.0,0.0
1604,51.0,0.0,40.0,0.0,0.0
1605,63.0,144.0,40.0,0.0,0.0
1606,48.0,0.0,40.0,0.0,0.0
1607,46.0,0.0,150.0,0.0,0.0
1608,73.0,0.0,150.0,0.0,0.0
1609,49.0,48.0,15.0,0.0,0.0
1610,56.0,0.0,40.0,0.0,0.0
1611,71.0,0.0,40.0,0.0,0.0
1612,58.0,0.0,150.0,0.0,0.0
1613,65.0,144.0,15.0,0.0,0.0
1614,70.0,48.0,300.0,0.0,0.0
1615,54.0,0.0,150.0,0.0,0.0
1616,56.0,0.0,40.0,0.0,0.0
1617,62.0,96.0,40.0,0.0,0.0
1618,53.0,0.0,40.0,0.0,0.0
1619,51.0,48.0,150.0,0.0,0.0
1620,63.0,0.0,150.0,0.0,0.0
1621,54.0,0.0,150.0,0.0,0.0
1622,53.0,0.0,40.0,0.0,0.0
1623,65.0,144.0,40.0,0.0,0.0
1624,49.0,0.0,40.0,0.0,0.0
1625,70.0,0.0,40.0,0.0,0.0
1626,51.0,0.0,300.0,0.0,0.0
1627,48.0,48.0,150.0,0.0,0.0
1628,69.0,0.0,300.0,0.0,0.0
1629,66.0,48.0,300.0,0.0,0.0
1630,49.0,96.0,40.0,0.0,0.0
1631,48.0,48.0,150.0,0.0,0.0
1632,66.0,0.0,40.0,0.0,0.0
1633,72.0,192.0,40.0,0.0,0.0
1634,46.0,0.0,40.0,0.0,0.0
1635,60.0,0.0,180.0,0.0,0.0
1636,45.0,0.0,180.0,0.0,0.0
1637,51.0,0.0,15.0,0.0,0.0
1638,65.0,0.0,180.0,0.0,0.0
1639,72.0,24.0,20.0,0.0,0.0
1640,69.0,48.0,90.0,0.0,0.0
1641,41.0,0.0,90.0,0.0,0.0
1642,73.0,48.0,20.0,0.0,0.0
1643,75.0,0.0,40.0,0.0,0.0
1644,73.0,48.0,40.0,0.0,0.0
1645,70.0,0.0,90.0,0.0,0.0
1646,53.0,0.0,15.0,0.0,0.0
1647,46.0,48.0,150.0,0.0,0.0
1648,72.0,0.0,40.0,0.0,0.0
1649,70.0,0.0,40.0,0.0,0.0
1650,69.0,0.0,40.0,0.0,0.0
1651,48.0,144.0,40.0,0.0,0.0
1652,49.0,48.0,150.0,0.0,0.0
1653,51.0,0.0,40.0,0.0,0.0
1654,60.0,0.0,40.0,0.0,0.0
1655,54.0,0.0,40.0,0.0,0.0
1656,53.0,0.0,150.0,0.0,0.0
1657,70.0,144.0,15.0,0.0,0.0
1658,61.0,0.0,150.0,0.0,0.0
1659,51.0,24.0,40.0,0.0,0.0
1660,63.0,0.0,40.0,0.0,0.0
1661,72.0,0.0,40.0,0.0,0.0
1662,54.0,0.0,40.0,0.0,0.0
1663,70.0,24.0,20.0,0.0,0.0
1664,60.0,0.0,40.0,0.0,0.0
1665,69.0,0.0,20.0,0.0,0.0
1666,70.0,24.0,20.0,0.0,0.0
1667,53.0,0.0,15.0,0.0,0.0
1668,53.0,24.0,15.0,0.0,0.0
1669,60.0,0.0,90.0,0.0,0.0
1670,69.0,24.0,20.0,0.0,0.0
1671,67.0,24.0,20.0,0.0,0.0
1672,69.0,0.0,20.0,0.0,0.0
1673,41.0,0.0,40.0,0.0,0.0
1674,63.0,0.0,40.0,0.0,0.0
1675,70.0,96.0,15.0,0.0,0.0
1676,53.0,144.0,180.0,0.0,0.0
1677,63.0,24.0,90.0,0.0,0.0
1678,63.0,24.0,20.0,0.0,0.0
1679,63.0,24.0,20.0,0.0,0.0
1680,62.0,24.0,20.0,0.0,0.0
1681,60.0,0.0,20.0,0.0,0.0
1682,58.0,48.0,150.0,0.0,0.0
1683,62.0,0.0,150.0,0.0,0.0
1684,65.0,144.0,40.0,0.0,0.0
1685,56.0,0.0,40.0,0.0,0.0
1686,46.0,0.0,15.0,0.0,0.0
1687,54.0,48.0,150.0,0.0,0.0
1688,58.0,0.0,150.0,0.0,0.0
1689,56.0,0.0,40.0,0.0,0.0
1690,53.0,144.0,40.0,0.0,0.0
1691,54.0,48.0,150.0,0.0,0.0
1692,51.0,0.0,180.0,0.0,0.0
1693,59.0,0.0,40.0,0.0,0.0
1694,46.0,0.0,390.0,0.0,0.0
1695,70.0,0.0,390.0,0.0,0.0
1696,50.0,0.0,180.0,0.0,0.0
1697,53.0,24.0,15.0,0.0,0.0
1698,65.0,24.0,20.0,0.0,0.0
1699,66.0,24.0,20.0,0.0,0.0
1700,68.0,48.0,20.0,0.0,0.0
1701,51.0,0.0,150.0,0.0,0.0
1702,66.0,48.0,40.0,0.0,0.0
1703,65.0,48.0,40.0,0.0,0.0
1704,63.0,48.0,40.0,0.0,0.0
1705,62.0,144.0,40.0,0.0,0.0
1706,53.0,0.0,40.0,0.0,0.0
1707,54.0,48.0,180.0,0.0,0.0
1708,63.0,48.0,150.0,0.0,0.0
1709,58.0,0.0,40.0,0.0,0.0
1710,60.0,0.0,150.0,0.0,0.0
1711,54.0,48.0,40.0,0.0,0.0
1712,56.0,48.0,40.0,0.0,0.0
1713,65.0,192.0,90.0,0.0,0.0
1714,54.0,48.0,40.0,0.0,0.0
1715,53.0,0.0,40.0,0.0,0.0
1716,62.0,0.0,40.0,0.0,0.0
1717,46.0,0.0,15.0,0.0,0.0
1718,51.0,0.0,300.0,0.0,0.0
1719,66.0,48.0,300.0,0.0,0.0
1720,63.0,96.0,180.0,0.0,0.0
1721,70.0,48.0,150.0,0.0,0.0
1722,53.0,144.0,90.0,0.0,0.0
1723,68.0,0.0,40.0,0.0,0.0
1724,70.0,0.0,390.0,0.0,0.0
1725,46.0,0.0,15.0,0.0,0.0
1726,54.0,48.0,150.0,0.0,0.0
1727,66.0,0.0,150.0,0.0,0.0
1728,65.0,0.0,40.0,0.0,0.0
1729,56.0,144.0,40.0,0.0,0.0
1730,63.0,144.0,180.0,0.0,0.0
1731,58.0,48.0,150.0,0.0,0.0
1732,54.0,0.0,40.0,0.0,0.0
1733,46.0,0.0,15.0,0.0,0.0
1734,56.0,48.0,150.0,0.0,0.0
1735,71.0,96.0,390.0,0.0,0.0
1736,62.0,0.0,180.0,0.0,0.0
1737,53.0,144.0,40.0,0.0,0.0
1738,63.0,0.0,150.0,0.0,0.0
1739,54.0,48.0,150.0,0.0,0.0
1740,56.0,0.0,40.0,0.0,0.0
1741,65.0,0.0,40.0,0.0,0.0
1742,46.0,0.0,15.0,0.0,0.0
1743,70.0,48.0,300.0,0.0,0.0
1744,58.0,24.0,90.0,0.0,0.0
1745,58.0,24.0,20.0,0.0,0.0
1746,46.0,24.0,20.0,0.0,0.0
1747,48.0,24.0,20.0,0.0,0.0
1748,50.0,0.0,20.0,0.0,0.0
1749,66.0,48.0,15.0,0.0,0.0
1750,51.0,0.0,90.0,0.0,0.0
1751,68.0,0.0,40.0,0.0,0.0
1752,66.0,0.0,40.0,0.0,0.0
1753,68.0,0.0,90.0,0.0,0.0
1754,51.0,48.0,40.0,0.0,0.0
1755,65.0,144.0,40.0,0.0,0.0
1756,53.0,0.0,40.0,0.0,0.0
1757,66.0,96.0,390.0,0.0,0.0
1758,54.0,48.0,150.0,0.0,0.0
1759,63.0,0.0,180.0,0.0,0.0
1760,56.0,48.0,40.0,0.0,0.0
1761,63.0,0.0,40.0,0.0,0.0
1762,58.0,48.0,40.0,0.0,0.0
1763,65.0,48.0,40.0,0.0,0.0
1764,56.0,0.0,40.0,0.0,0.0
1765,63.0,48.0,40.0,0.0,0.0
1766,54.0,0.0,40.0,0.0,0.0
1767,53.0,0.0,40.0,0.0,0.0
1768,62.0,0.0,40.0,0.0,0.0
1769,51.0,48.0,90.0,0.0,0.0
1770,46.0,0.0,15.0,0.0,0.0
1771,60.0,48.0,150.0,0.0,0.0
1772,66.0,0.0,150.0,0.0,0.0
1773,65.0,0.0,40.0,0.0,0.0
1774,74.0,96.0,40.0,0.0,0.0
1775,75.0,48.0,150.0,0.0,0.0
1776,66.0,0.0,150.0,0.0,0.0
1777,46.0,48.0,15.0,0.0,0.0
1778,51.0,0.0,40.0,0.0,0.0
1779,63.0,384.0,40.0,0.0,0.0
1780,69.0,0.0,40.0,0.0,0.0
1781,46.0,0.0,40.0,0.0,0.0
1782,34.0,0.0,390.0,0.0,0.0
1783,65.0,0.0,390.0,0.0,0.0
1784,50.0,0.0,390.0,0.0,0.0
1785,70.0,0.0,390.0,0.0,0.0
