,note,step,duration,channel,velocity
0,78.0,0.0,20.0,0.0,0.0
1,74.0,0.0,20.0,1.0,0.0
2,71.0,0.0,20.0,2.0,0.0
3,78.0,0.0,20.0,5.0,0.0
4,74.0,0.0,20.0,5.0,0.0
5,71.0,45.0,20.0,5.0,0.0
6,83.0,0.0,40.0,0.0,0.0
7,78.0,0.0,40.0,1.0,0.0
8,74.0,0.0,40.0,2.0,0.0
9,83.0,0.0,40.0,5.0,0.0
10,78.0,0.0,40.0,5.0,0.0
11,74.0,3.0,40.0,5.0,0.0
12,47.0,0.0,20.0,3.0,0.0
13,35.0,0.0,20.0,4.0,0.0
14,47.0,45.0,20.0,6.0,0.0
15,59.0,0.0,40.0,3.0,0.0
16,47.0,0.0,40.0,4.0,0.0
17,59.0,3.0,40.0,6.0,0.0
18,78.0,0.0,20.0,0.0,0.0
19,74.0,0.0,20.0,1.0,0.0
20,71.0,0.0,20.0,2.0,0.0
21,78.0,0.0,20.0,5.0,0.0
22,74.0,0.0,20.0,5.0,0.0
23,71.0,45.0,20.0,5.0,0.0
24,79.0,0.0,40.0,0.0,0.0
25,76.0,0.0,40.0,1.0,0.0
26,64.0,0.0,40.0,2.0,0.0
27,79.0,0.0,40.0,5.0,0.0
28,76.0,0.0,40.0,5.0,0.0
29,71.0,3.0,40.0,5.0,0.0
30,47.0,0.0,20.0,3.0,0.0
31,35.0,0.0,20.0,4.0,0.0
32,47.0,45.0,20.0,6.0,0.0
33,59.0,0.0,40.0,3.0,0.0
34,47.0,0.0,40.0,4.0,0.0
35,59.0,3.0,40.0,6.0,0.0
36,76.0,0.0,20.0,0.0,0.0
37,73.0,0.0,20.0,1.0,0.0
38,64.0,0.0,20.0,2.0,0.0
39,76.0,0.0,20.0,5.0,0.0
40,73.0,13.0,20.0,5.0,0.0
41,78.0,0.0,15.0,0.0,0.0
42,74.0,0.0,15.0,1.0,0.0
43,59.0,0.0,20.0,2.0,0.0
44,78.0,11.0,15.0,5.0,0.0
45,74.0,1.0,20.0,5.0,0.0
46,76.0,0.0,15.0,0.0,0.0
47,73.0,0.0,15.0,1.0,0.0
48,76.0,12.0,15.0,5.0,0.0
49,74.0,0.0,15.0,0.0,0.0
50,71.0,0.0,15.0,1.0,0.0
51,66.0,0.0,20.0,2.0,0.0
52,47.0,0.0,20.0,3.0,0.0
53,35.0,0.0,20.0,4.0,0.0
54,74.0,11.0,15.0,5.0,0.0
55,47.0,1.0,20.0,6.0,0.0
56,78.0,0.0,15.0,0.0,0.0
57,74.0,0.0,15.0,1.0,0.0
58,78.0,12.0,15.0,5.0,0.0
59,76.0,0.0,15.0,0.0,0.0
60,73.0,0.0,15.0,1.0,0.0
61,58.0,0.0,20.0,2.0,0.0
62,54.0,0.0,20.0,3.0,0.0
63,42.0,0.0,20.0,4.0,0.0
64,76.0,11.0,15.0,5.0,0.0
65,54.0,0.0,20.0,6.0,0.0
66,58.0,1.0,20.0,6.0,0.0
67,74.0,0.0,15.0,0.0,0.0
68,71.0,0.0,15.0,1.0,0.0
69,74.0,12.0,15.0,5.0,0.0
70,73.0,0.0,15.0,0.0,0.0
71,70.0,0.0,15.0,1.0,0.0
72,66.0,0.0,20.0,2.0,0.0
73,42.0,0.0,20.0,3.0,0.0
74,30.0,0.0,20.0,4.0,0.0
75,73.0,11.0,15.0,5.0,0.0
76,42.0,1.0,20.0,6.0,0.0
77,76.0,0.0,15.0,0.0,0.0
78,73.0,0.0,15.0,1.0,0.0
79,76.0,23.0,15.0,5.0,0.0
80,74.0,0.0,20.0,0.0,0.0
81,71.0,0.0,20.0,1.0,0.0
82,66.0,0.0,20.0,2.0,0.0
83,47.0,0.0,20.0,3.0,0.0
84,35.0,0.0,20.0,4.0,0.0
85,74.0,0.0,20.0,5.0,0.0
86,47.0,13.0,20.0,6.0,0.0
87,71.0,0.0,20.0,0.0,0.0
88,66.0,0.0,20.0,1.0,0.0
89,62.0,0.0,20.0,2.0,0.0
90,59.0,0.0,15.0,3.0,0.0
91,47.0,0.0,15.0,4.0,0.0
92,71.0,1.0,20.0,5.0,0.0
93,59.0,11.0,15.0,6.0,0.0
94,61.0,0.0,15.0,3.0,0.0
95,49.0,0.0,15.0,4.0,0.0
96,61.0,23.0,15.0,6.0,0.0
97,62.0,0.0,20.0,3.0,0.0
98,50.0,0.0,20.0,4.0,0.0
99,62.0,3.0,20.0,6.0,0.0
100,71.0,0.0,15.0,0.0,0.0
101,71.0,12.0,15.0,5.0,0.0
102,70.0,0.0,15.0,0.0,0.0
103,66.0,0.0,20.0,1.0,0.0
104,62.0,0.0,20.0,2.0,0.0
105,59.0,0.0,20.0,3.0,0.0
106,47.0,0.0,20.0,4.0,0.0
107,70.0,9.0,15.0,5.0,0.0
108,59.0,1.0,20.0,6.0,0.0
109,71.0,0.0,15.0,0.0,0.0
110,71.0,12.0,15.0,5.0,0.0
111,73.0,0.0,15.0,0.0,0.0
112,66.0,0.0,20.0,1.0,0.0
113,61.0,0.0,20.0,2.0,0.0
114,58.0,0.0,20.0,3.0,0.0
115,46.0,0.0,20.0,4.0,0.0
116,73.0,11.0,15.0,5.0,0.0
117,58.0,3.0,20.0,6.0,0.0
118,71.0,0.0,15.0,0.0,0.0
119,71.0,12.0,15.0,5.0,0.0
120,70.0,0.0,15.0,0.0,0.0
121,54.0,0.0,20.0,3.0,0.0
122,42.0,0.0,20.0,4.0,0.0
123,70.0,9.0,15.0,5.0,0.0
124,54.0,1.0,20.0,6.0,0.0
125,71.0,0.0,15.0,0.0,0.0
126,71.0,12.0,15.0,5.0,0.0
127,74.0,0.0,15.0,0.0,0.0
128,66.0,0.0,20.0,1.0,0.0
129,59.0,0.0,20.0,2.0,0.0
130,59.0,0.0,20.0,3.0,0.0
131,47.0,0.0,20.0,4.0,0.0
132,74.0,11.0,15.0,5.0,0.0
133,59.0,3.0,20.0,6.0,0.0
134,71.0,0.0,15.0,0.0,0.0
135,71.0,12.0,15.0,5.0,0.0
136,70.0,0.0,15.0,0.0,0.0
137,54.0,0.0,20.0,3.0,0.0
138,42.0,0.0,20.0,4.0,0.0
139,70.0,9.0,15.0,5.0,0.0
140,54.0,1.0,20.0,6.0,0.0
141,71.0,0.0,15.0,0.0,0.0
142,71.0,12.0,15.0,5.0,0.0
143,76.0,0.0,15.0,0.0,0.0
144,70.0,0.0,20.0,1.0,0.0
145,64.0,0.0,20.0,2.0,0.0
146,61.0,0.0,20.0,3.0,0.0
147,49.0,0.0,20.0,4.0,0.0
148,76.0,11.0,15.0,5.0,0.0
149,61.0,3.0,20.0,6.0,0.0
150,71.0,0.0,15.0,0.0,0.0
151,71.0,12.0,15.0,5.0,0.0
152,70.0,0.0,15.0,0.0,0.0
153,54.0,0.0,20.0,3.0,0.0
154,42.0,0.0,20.0,4.0,0.0
155,70.0,9.0,15.0,5.0,0.0
156,54.0,1.0,20.0,6.0,0.0
157,71.0,0.0,15.0,0.0,0.0
158,71.0,12.0,15.0,5.0,0.0
159,78.0,0.0,15.0,0.0,0.0
160,71.0,0.0,20.0,1.0,0.0
161,62.0,0.0,20.0,2.0,0.0
162,62.0,0.0,20.0,3.0,0.0
163,50.0,0.0,20.0,4.0,0.0
164,78.0,11.0,15.0,5.0,0.0
165,62.0,3.0,20.0,6.0,0.0
166,71.0,0.0,15.0,0.0,0.0
167,71.0,12.0,15.0,5.0,0.0
168,70.0,0.0,15.0,0.0,0.0
169,59.0,0.0,20.0,3.0,0.0
170,47.0,0.0,20.0,4.0,0.0
171,70.0,9.0,15.0,5.0,0.0
172,59.0,1.0,20.0,6.0,0.0
173,71.0,0.0,15.0,0.0,0.0
174,71.0,12.0,15.0,5.0,0.0
175,79.0,0.0,15.0,0.0,0.0
176,71.0,0.0,20.0,1.0,0.0
177,59.0,0.0,20.0,2.0,0.0
178,64.0,0.0,20.0,3.0,0.0
179,52.0,0.0,20.0,4.0,0.0
180,79.0,11.0,15.0,5.0,0.0
181,64.0,1.0,20.0,6.0,0.0
182,81.0,0.0,15.0,0.0,0.0
183,81.0,12.0,15.0,5.0,0.0
184,79.0,0.0,15.0,0.0,0.0
185,76.0,0.0,20.0,1.0,0.0
186,61.0,3.0,30.0,2.0,0.0
187,52.0,0.0,20.0,3.0,0.0
188,40.0,0.0,20.0,4.0,0.0
189,79.0,11.0,15.0,5.0,0.0
190,52.0,1.0,20.0,6.0,0.0
191,78.0,0.0,15.0,0.0,0.0
192,78.0,9.0,15.0,5.0,0.0
193,76.0,0.0,15.0,0.0,0.0
194,70.0,0.0,20.0,1.0,0.0
195,54.0,0.0,20.0,3.0,0.0
196,42.0,0.0,20.0,4.0,0.0
197,76.0,11.0,15.0,5.0,0.0
198,54.0,1.0,20.0,6.0,0.0
199,74.0,0.0,15.0,0.0,0.0
200,59.0,0.0,15.0,2.0,0.0
201,74.0,12.0,15.0,5.0,0.0
202,73.0,0.0,15.0,0.0,0.0
203,76.0,14.0,30.0,1.0,0.0
204,58.0,0.0,15.0,2.0,0.0
205,55.0,0.0,20.0,3.0,0.0
206,43.0,0.0,20.0,4.0,0.0
207,73.0,11.0,15.0,5.0,0.0
208,55.0,1.0,20.0,6.0,0.0
209,71.0,0.0,15.0,0.0,0.0
210,59.0,0.0,15.0,2.0,0.0
211,71.0,9.0,15.0,5.0,0.0
212,70.0,0.0,20.0,0.0,0.0
213,61.0,0.0,20.0,2.0,0.0
214,54.0,0.0,20.0,3.0,0.0
215,42.0,0.0,20.0,4.0,0.0
216,70.0,0.0,20.0,5.0,0.0
217,54.0,1.0,20.0,6.0,0.0
218,78.0,12.0,15.0,1.0,0.0
219,66.0,0.0,20.0,0.0,0.0
220,76.0,11.0,15.0,1.0,0.0
221,73.0,0.0,20.0,2.0,0.0
222,42.0,0.0,20.0,3.0,0.0
223,30.0,0.0,20.0,4.0,0.0
224,66.0,0.0,20.0,5.0,0.0
225,42.0,1.0,20.0,6.0,0.0
226,74.0,12.0,15.0,1.0,0.0
227,85.0,0.0,60.0,0.0,0.0
228,73.0,11.0,15.0,1.0,0.0
229,70.0,1.0,20.0,2.0,0.0
230,85.0,3.0,60.0,5.0,0.0
231,71.0,12.0,15.0,1.0,0.0
232,70.0,0.0,15.0,1.0,0.0
233,66.0,3.0,40.0,2.0,0.0
234,66.0,0.0,15.0,3.0,0.0
235,54.0,0.0,15.0,4.0,0.0
236,66.0,12.0,15.0,6.0,0.0
237,68.0,0.0,15.0,1.0,0.0
238,64.0,0.0,15.0,3.0,0.0
239,52.0,0.0,15.0,4.0,0.0
240,64.0,12.0,15.0,6.0,0.0
241,66.0,5.0,15.0,1.0,0.0
242,62.0,0.0,20.0,3.0,0.0
243,50.0,0.0,20.0,4.0,0.0
244,62.0,1.0,20.0,6.0,0.0
245,76.0,12.0,15.0,1.0,0.0
246,83.0,0.0,15.0,0.0,0.0
247,74.0,0.0,15.0,1.0,0.0
248,71.0,0.0,15.0,2.0,0.0
249,66.0,0.0,20.0,3.0,0.0
250,54.0,0.0,20.0,4.0,0.0
251,83.0,11.0,15.0,5.0,0.0
252,66.0,1.0,20.0,6.0,0.0
253,82.0,0.0,15.0,0.0,0.0
254,73.0,0.0,15.0,1.0,0.0
255,73.0,0.0,15.0,2.0,0.0
256,82.0,12.0,15.0,5.0,0.0
257,83.0,0.0,20.0,0.0,0.0
258,71.0,11.0,15.0,1.0,0.0
259,74.0,0.0,20.0,2.0,0.0
260,62.0,0.0,20.0,3.0,0.0
261,50.0,0.0,20.0,4.0,0.0
262,83.0,0.0,20.0,5.0,0.0
263,62.0,1.0,20.0,6.0,0.0
264,69.0,12.0,15.0,1.0,0.0
265,86.0,0.0,40.0,0.0,0.0
266,68.0,11.0,15.0,1.0,0.0
267,62.0,0.0,20.0,2.0,0.0
268,59.0,0.0,20.0,3.0,0.0
269,47.0,0.0,20.0,4.0,0.0
270,86.0,3.0,40.0,5.0,0.0
271,59.0,1.0,20.0,6.0,0.0
272,66.0,12.0,15.0,1.0,0.0
273,68.0,8.0,15.0,1.0,0.0
274,59.0,0.0,20.0,2.0,0.0
275,64.0,0.0,20.0,3.0,0.0
276,52.0,0.0,20.0,4.0,0.0
277,64.0,1.0,20.0,6.0,0.0
278,76.0,12.0,15.0,1.0,0.0
279,80.0,0.0,20.0,0.0,0.0
280,74.0,11.0,15.0,1.0,0.0
281,71.0,0.0,20.0,2.0,0.0
282,52.0,0.0,20.0,3.0,0.0
283,40.0,0.0,20.0,4.0,0.0
284,80.0,0.0,20.0,5.0,0.0
285,52.0,1.0,20.0,6.0,0.0
286,73.0,12.0,15.0,1.0,0.0
287,83.0,0.0,60.0,0.0,0.0
288,71.0,11.0,15.0,1.0,0.0
289,68.0,1.0,20.0,2.0,0.0
290,83.0,3.0,60.0,5.0,0.0
291,69.0,12.0,15.0,1.0,0.0
292,68.0,0.0,15.0,1.0,0.0
293,64.0,3.0,40.0,2.0,0.0
294,64.0,0.0,15.0,3.0,0.0
295,52.0,0.0,15.0,4.0,0.0
296,64.0,12.0,15.0,6.0,0.0
297,66.0,0.0,15.0,1.0,0.0
298,62.0,0.0,15.0,3.0,0.0
299,50.0,0.0,15.0,4.0,0.0
300,62.0,12.0,15.0,6.0,0.0
301,64.0,5.0,15.0,1.0,0.0
302,61.0,0.0,20.0,3.0,0.0
303,49.0,0.0,20.0,4.0,0.0
304,61.0,1.0,20.0,6.0,0.0
305,74.0,12.0,15.0,1.0,0.0
306,81.0,0.0,15.0,0.0,0.0
307,73.0,0.0,15.0,1.0,0.0
308,69.0,0.0,15.0,2.0,0.0
309,64.0,0.0,20.0,3.0,0.0
310,52.0,0.0,20.0,4.0,0.0
311,81.0,11.0,15.0,5.0,0.0
312,64.0,1.0,20.0,6.0,0.0
313,80.0,0.0,15.0,0.0,0.0
314,71.0,0.0,15.0,1.0,0.0
315,71.0,0.0,15.0,2.0,0.0
316,80.0,12.0,15.0,5.0,0.0
317,81.0,0.0,20.0,0.0,0.0
318,69.0,11.0,15.0,1.0,0.0
319,73.0,0.0,20.0,2.0,0.0
320,61.0,0.0,20.0,3.0,0.0
321,49.0,0.0,20.0,4.0,0.0
322,81.0,0.0,20.0,5.0,0.0
323,61.0,1.0,20.0,6.0,0.0
324,68.0,12.0,15.0,1.0,0.0
325,85.0,0.0,30.0,0.0,0.0
326,66.0,11.0,15.0,1.0,0.0
327,61.0,0.0,20.0,2.0,0.0
328,57.0,0.0,20.0,3.0,0.0
329,45.0,0.0,20.0,4.0,0.0
330,85.0,3.0,30.0,5.0,0.0
331,57.0,1.0,20.0,6.0,0.0
332,65.0,9.0,15.0,1.0,0.0
333,66.0,11.0,15.0,1.0,0.0
334,57.0,0.0,20.0,2.0,0.0
335,62.0,0.0,20.0,3.0,0.0
336,50.0,0.0,20.0,4.0,0.0
337,62.0,1.0,20.0,6.0,0.0
338,83.0,0.0,15.0,0.0,0.0
339,74.0,0.0,15.0,1.0,0.0
340,83.0,12.0,15.0,5.0,0.0
341,81.0,0.0,15.0,0.0,0.0
342,73.0,0.0,15.0,1.0,0.0
343,66.0,0.0,20.0,2.0,0.0
344,50.0,0.0,20.0,3.0,0.0
345,38.0,0.0,20.0,4.0,0.0
346,81.0,11.0,15.0,5.0,0.0
347,50.0,1.0,20.0,6.0,0.0
348,80.0,0.0,15.0,0.0,0.0
349,71.0,0.0,15.0,1.0,0.0
350,80.0,12.0,15.0,5.0,0.0
351,78.0,0.0,60.0,0.0,0.0
352,69.0,11.0,15.0,1.0,0.0
353,69.0,1.0,20.0,2.0,0.0
354,78.0,6.0,60.0,5.0,0.0
355,68.0,12.0,15.0,1.0,0.0
356,66.0,0.0,15.0,1.0,0.0
357,74.0,1.0,20.0,2.0,0.0
358,62.0,0.0,15.0,3.0,0.0
359,50.0,0.0,15.0,4.0,0.0
360,62.0,11.0,15.0,6.0,0.0
361,64.0,0.0,15.0,1.0,0.0
362,61.0,0.0,15.0,3.0,0.0
363,49.0,0.0,15.0,4.0,0.0
364,61.0,12.0,15.0,6.0,0.0
365,62.0,0.0,20.0,1.0,0.0
366,68.0,1.0,20.0,2.0,0.0
367,59.0,0.0,15.0,3.0,0.0
368,47.0,0.0,15.0,4.0,0.0
369,59.0,5.0,15.0,6.0,0.0
370,61.0,0.0,15.0,3.0,0.0
371,49.0,0.0,15.0,4.0,0.0
372,61.0,12.0,15.0,6.0,0.0
373,80.0,0.0,15.0,0.0,0.0
374,74.0,3.0,30.0,1.0,0.0
375,71.0,1.0,20.0,2.0,0.0
376,59.0,0.0,15.0,3.0,0.0
377,47.0,0.0,15.0,4.0,0.0
378,80.0,0.0,15.0,5.0,0.0
379,59.0,11.0,15.0,6.0,0.0
380,81.0,0.0,15.0,0.0,0.0
381,57.0,0.0,15.0,3.0,0.0
382,45.0,0.0,15.0,4.0,0.0
383,81.0,0.0,15.0,5.0,0.0
384,57.0,9.0,15.0,6.0,0.0
385,83.0,0.0,20.0,0.0,0.0
386,65.0,0.0,20.0,2.0,0.0
387,56.0,0.0,15.0,3.0,0.0
388,44.0,0.0,15.0,4.0,0.0
389,83.0,1.0,20.0,5.0,0.0
390,56.0,11.0,15.0,6.0,0.0
391,73.0,0.0,15.0,1.0,0.0
392,57.0,0.0,15.0,3.0,0.0
393,45.0,0.0,15.0,4.0,0.0
394,57.0,12.0,15.0,6.0,0.0
395,74.0,0.0,20.0,0.0,0.0
396,71.0,0.0,15.0,1.0,0.0
397,68.0,3.0,40.0,2.0,0.0
398,56.0,0.0,15.0,3.0,0.0
399,44.0,0.0,15.0,4.0,0.0
400,74.0,1.0,20.0,5.0,0.0
401,56.0,11.0,15.0,6.0,0.0
402,69.0,0.0,15.0,1.0,0.0
403,54.0,0.0,15.0,3.0,0.0
404,42.0,0.0,15.0,4.0,0.0
405,54.0,12.0,15.0,6.0,0.0
406,73.0,0.0,20.0,0.0,0.0
407,68.0,0.0,20.0,1.0,0.0
408,53.0,0.0,15.0,3.0,0.0
409,41.0,0.0,15.0,4.0,0.0
410,73.0,1.0,20.0,5.0,0.0
411,53.0,8.0,15.0,6.0,0.0
412,49.0,0.0,15.0,3.0,0.0
413,37.0,0.0,15.0,4.0,0.0
414,49.0,12.0,15.0,6.0,0.0
415,83.0,0.0,20.0,0.0,0.0
416,80.0,0.0,20.0,1.0,0.0
417,61.0,0.0,20.0,2.0,0.0
418,51.0,0.0,15.0,3.0,0.0
419,39.0,0.0,15.0,4.0,0.0
420,83.0,1.0,20.0,5.0,0.0
421,51.0,11.0,15.0,6.0,0.0
422,53.0,0.0,15.0,3.0,0.0
423,41.0,0.0,15.0,4.0,0.0
424,53.0,12.0,15.0,6.0,0.0
425,81.0,0.0,20.0,0.0,0.0
426,78.0,0.0,20.0,1.0,0.0
427,73.0,0.0,20.0,2.0,0.0
428,54.0,0.0,15.0,3.0,0.0
429,42.0,0.0,15.0,4.0,0.0
430,81.0,1.0,20.0,5.0,0.0
431,54.0,11.0,15.0,6.0,0.0
432,56.0,0.0,15.0,3.0,0.0
433,44.0,0.0,15.0,4.0,0.0
434,56.0,12.0,15.0,6.0,0.0
435,73.0,0.0,20.0,0.0,0.0
436,66.0,0.0,20.0,1.0,0.0
437,69.0,0.0,20.0,2.0,0.0
438,57.0,0.0,15.0,3.0,0.0
439,45.0,0.0,15.0,4.0,0.0
440,73.0,1.0,20.0,5.0,0.0
441,57.0,11.0,15.0,6.0,0.0
442,54.0,0.0,15.0,3.0,0.0
443,42.0,0.0,15.0,4.0,0.0
444,54.0,12.0,15.0,6.0,0.0
445,71.0,0.0,15.0,0.0,0.0
446,66.0,0.0,20.0,1.0,0.0
447,66.0,0.0,20.0,2.0,0.0
448,50.0,0.0,20.0,3.0,0.0
449,38.0,0.0,20.0,4.0,0.0
450,71.0,11.0,15.0,5.0,0.0
451,50.0,1.0,20.0,6.0,0.0
452,73.0,0.0,15.0,0.0,0.0
453,73.0,12.0,15.0,5.0,0.0
454,74.0,0.0,15.0,0.0,0.0
455,65.0,0.0,20.0,1.0,0.0
456,69.0,0.0,20.0,2.0,0.0
457,49.0,0.0,20.0,3.0,0.0
458,37.0,0.0,20.0,4.0,0.0
459,74.0,11.0,15.0,5.0,0.0
460,49.0,1.0,20.0,6.0,0.0
461,73.0,0.0,15.0,0.0,0.0
462,73.0,12.0,15.0,5.0,0.0
463,71.0,0.0,15.0,0.0,0.0
464,66.0,0.0,20.0,1.0,0.0
465,71.0,0.0,15.0,2.0,0.0
466,50.0,0.0,20.0,3.0,0.0
467,38.0,0.0,20.0,4.0,0.0
468,71.0,11.0,15.0,5.0,0.0
469,50.0,1.0,20.0,6.0,0.0
470,69.0,0.0,15.0,0.0,0.0
471,73.0,0.0,15.0,2.0,0.0
472,69.0,12.0,15.0,5.0,0.0
473,68.0,0.0,15.0,0.0,0.0
474,74.0,3.0,40.0,1.0,0.0
475,71.0,0.0,15.0,2.0,0.0
476,47.0,0.0,20.0,3.0,0.0
477,35.0,0.0,20.0,4.0,0.0
478,68.0,11.0,15.0,5.0,0.0
479,47.0,1.0,20.0,6.0,0.0
480,66.0,0.0,15.0,0.0,0.0
481,69.0,0.0,15.0,2.0,0.0
482,66.0,20.0,15.0,5.0,0.0
483,65.0,0.0,20.0,0.0,0.0
484,68.0,0.0,20.0,2.0,0.0
485,49.0,0.0,30.0,3.0,0.0
486,37.0,0.0,30.0,4.0,0.0
487,65.0,10.0,20.0,5.0,0.0
488,49.0,10.0,30.0,6.0,0.0
489,74.0,0.0,20.0,0.0,0.0
490,68.0,0.0,20.0,1.0,0.0
491,71.0,0.0,20.0,2.0,0.0
492,74.0,2.0,20.0,5.0,0.0
493,51.0,0.0,15.0,3.0,0.0
494,39.0,0.0,15.0,4.0,0.0
495,51.0,4.0,15.0,6.0,0.0
496,53.0,0.0,15.0,3.0,0.0
497,41.0,0.0,15.0,4.0,0.0
498,53.0,11.0,15.0,6.0,0.0
499,73.0,0.0,20.0,0.0,0.0
500,69.0,0.0,20.0,1.0,0.0
501,69.0,0.0,20.0,2.0,0.0
502,54.0,0.0,15.0,3.0,0.0
503,42.0,0.0,15.0,4.0,0.0
504,73.0,1.0,20.0,5.0,0.0
505,54.0,11.0,15.0,6.0,0.0
506,56.0,0.0,15.0,3.0,0.0
507,44.0,0.0,15.0,4.0,0.0
508,56.0,12.0,15.0,6.0,0.0
509,78.0,0.0,20.0,0.0,0.0
510,78.0,0.0,20.0,1.0,0.0
511,73.0,0.0,20.0,2.0,0.0
512,57.0,0.0,15.0,3.0,0.0
513,45.0,0.0,15.0,4.0,0.0
514,78.0,1.0,20.0,5.0,0.0
515,57.0,11.0,15.0,6.0,0.0
516,59.0,0.0,15.0,3.0,0.0
517,47.0,0.0,15.0,4.0,0.0
518,59.0,23.0,15.0,6.0,0.0
519,81.0,0.0,20.0,0.0,0.0
520,78.0,0.0,20.0,1.0,0.0
521,73.0,18.0,20.0,2.0,0.0
522,61.0,0.0,20.0,3.0,0.0
523,49.0,0.0,20.0,4.0,0.0
524,81.0,0.0,40.0,5.0,0.0
525,78.0,0.0,40.0,5.0,0.0
526,73.0,3.0,40.0,5.0,0.0
527,61.0,3.0,20.0,6.0,0.0
528,59.0,0.0,20.0,3.0,0.0
529,47.0,0.0,20.0,4.0,0.0
530,59.0,9.0,20.0,6.0,0.0
531,80.0,0.0,15.0,0.0,0.0
532,77.0,6.0,15.0,1.0,0.0
533,73.0,6.0,20.0,2.0,0.0
534,61.0,0.0,20.0,3.0,0.0
535,49.0,0.0,20.0,4.0,0.0
536,80.0,6.0,60.0,5.0,0.0
537,77.0,6.0,60.0,5.0,0.0
538,61.0,3.0,20.0,6.0,0.0
539,73.0,3.0,40.0,6.0,0.0
540,81.0,0.0,15.0,0.0,0.0
541,78.0,6.0,15.0,1.0,0.0
542,80.0,0.0,15.0,0.0,0.0
543,77.0,3.0,15.0,1.0,0.0
544,81.0,0.0,15.0,0.0,0.0
545,78.0,0.0,15.0,1.0,0.0
546,80.0,0.0,15.0,0.0,0.0
547,77.0,6.0,15.0,1.0,0.0
548,49.0,0.0,20.0,3.0,0.0
549,37.0,0.0,20.0,4.0,0.0
550,49.0,3.0,20.0,6.0,0.0
551,81.0,0.0,15.0,0.0,0.0
552,78.0,6.0,15.0,1.0,0.0
553,80.0,0.0,15.0,0.0,0.0
554,77.0,0.0,15.0,1.0,0.0
555,81.0,0.0,15.0,0.0,0.0
556,78.0,4.0,15.0,1.0,0.0
557,80.0,5.0,15.0,0.0,0.0
558,77.0,0.0,40.0,1.0,0.0
559,74.0,3.0,40.0,2.0,0.0
560,59.0,0.0,20.0,3.0,0.0
561,47.0,0.0,20.0,4.0,0.0
562,59.0,0.0,20.0,6.0,0.0
563,74.0,1.0,20.0,6.0,0.0
564,81.0,0.0,15.0,0.0,0.0
565,81.0,12.0,15.0,5.0,0.0
566,83.0,0.0,15.0,0.0,0.0
567,57.0,0.0,20.0,3.0,0.0
568,45.0,0.0,20.0,4.0,0.0
569,83.0,8.0,15.0,5.0,0.0
570,57.0,1.0,20.0,6.0,0.0
571,80.0,0.0,15.0,0.0,0.0
572,80.0,12.0,15.0,5.0,0.0
573,77.0,0.0,15.0,0.0,0.0
574,59.0,0.0,20.0,3.0,0.0
575,47.0,0.0,20.0,4.0,0.0
576,77.0,11.0,15.0,5.0,0.0
577,59.0,1.0,20.0,6.0,0.0
578,78.0,0.0,15.0,0.0,0.0
579,78.0,12.0,15.0,5.0,0.0
580,80.0,0.0,15.0,0.0,0.0
581,77.0,0.0,20.0,1.0,0.0
582,73.0,0.0,20.0,2.0,0.0
583,47.0,0.0,20.0,3.0,0.0
584,35.0,0.0,20.0,4.0,0.0
585,80.0,11.0,15.0,5.0,0.0
586,47.0,1.0,20.0,6.0,0.0
587,77.0,0.0,15.0,0.0,0.0
588,77.0,23.0,15.0,5.0,0.0
589,85.0,0.0,20.0,0.0,0.0
590,78.0,0.0,20.0,1.0,0.0
591,61.0,0.0,20.0,2.0,0.0
592,45.0,0.0,20.0,3.0,0.0
593,33.0,0.0,20.0,4.0,0.0
594,85.0,0.0,20.0,5.0,0.0
595,45.0,24.0,20.0,6.0,0.0
596,78.0,0.0,20.0,0.0,0.0
597,69.0,0.0,20.0,1.0,0.0
598,62.0,0.0,20.0,2.0,0.0
599,50.0,0.0,20.0,3.0,0.0
600,38.0,0.0,20.0,4.0,0.0
601,78.0,0.0,20.0,5.0,0.0
602,69.0,0.0,20.0,5.0,0.0
603,50.0,24.0,20.0,6.0,0.0
604,80.0,0.0,20.0,0.0,0.0
605,71.0,0.0,20.0,1.0,0.0
606,62.0,0.0,20.0,2.0,0.0
607,47.0,0.0,20.0,3.0,0.0
608,35.0,0.0,20.0,4.0,0.0
609,80.0,0.0,20.0,5.0,0.0
610,71.0,0.0,20.0,5.0,0.0
611,47.0,24.0,20.0,6.0,0.0
612,77.0,0.0,20.0,0.0,0.0
613,68.0,0.0,20.0,1.0,0.0
614,61.0,0.0,20.0,2.0,0.0
615,49.0,0.0,20.0,3.0,0.0
616,37.0,0.0,20.0,4.0,0.0
617,77.0,0.0,20.0,5.0,0.0
618,68.0,0.0,20.0,5.0,0.0
619,49.0,13.0,20.0,6.0,0.0
620,78.0,0.0,15.0,0.0,0.0
621,66.0,1.0,20.0,1.0,0.0
622,61.0,10.0,20.0,2.0,0.0
623,50.0,0.0,40.0,3.0,0.0
624,38.0,0.0,40.0,4.0,0.0
625,78.0,0.0,15.0,5.0,0.0
626,66.0,3.0,40.0,5.0,0.0
627,50.0,11.0,15.0,6.0,0.0
628,76.0,0.0,15.0,0.0,0.0
629,76.0,0.0,15.0,5.0,0.0
630,54.0,2.0,15.0,6.0,0.0
631,74.0,0.0,15.0,0.0,0.0
632,78.0,0.0,15.0,1.0,0.0
633,59.0,1.0,20.0,2.0,0.0
634,74.0,0.0,15.0,5.0,0.0
635,56.0,8.0,15.0,6.0,0.0
636,73.0,0.0,15.0,0.0,0.0
637,76.0,0.0,15.0,1.0,0.0
638,73.0,0.0,15.0,5.0,0.0
639,58.0,12.0,15.0,6.0,0.0
640,71.0,0.0,20.0,0.0,0.0
641,74.0,0.0,15.0,1.0,0.0
642,71.0,1.0,20.0,5.0,0.0
643,59.0,11.0,15.0,6.0,0.0
644,73.0,0.0,15.0,1.0,0.0
645,61.0,12.0,15.0,6.0,0.0
646,71.0,0.0,20.0,0.0,0.0
647,71.0,0.0,15.0,1.0,0.0
648,66.0,0.0,20.0,2.0,0.0
649,62.0,0.0,20.0,3.0,0.0
650,50.0,0.0,20.0,4.0,0.0
651,71.0,1.0,20.0,5.0,0.0
652,62.0,11.0,15.0,6.0,0.0
653,69.0,0.0,15.0,1.0,0.0
654,59.0,12.0,15.0,6.0,0.0
655,71.0,0.0,15.0,0.0,0.0
656,68.0,0.0,15.0,1.0,0.0
657,68.0,0.0,20.0,2.0,0.0
658,53.0,0.0,20.0,3.0,0.0
659,41.0,10.0,20.0,4.0,0.0
660,71.0,11.0,15.0,5.0,0.0
661,53.0,1.0,20.0,6.0,0.0
662,73.0,0.0,15.0,0.0,0.0
663,66.0,0.0,15.0,1.0,0.0
664,73.0,2.0,15.0,5.0,0.0
665,74.0,0.0,30.0,0.0,0.0
666,65.0,11.0,15.0,1.0,0.0
667,71.0,0.0,20.0,2.0,0.0
668,53.0,0.0,20.0,3.0,0.0
669,41.0,7.0,20.0,4.0,0.0
670,74.0,3.0,30.0,5.0,0.0
671,53.0,1.0,20.0,6.0,0.0
672,66.0,2.0,15.0,1.0,0.0
673,68.0,11.0,15.0,1.0,0.0
674,53.0,0.0,20.0,3.0,0.0
675,41.0,0.0,20.0,4.0,0.0
676,53.0,1.0,20.0,6.0,0.0
677,73.0,0.0,15.0,0.0,0.0
678,69.0,0.0,15.0,1.0,0.0
679,73.0,12.0,15.0,5.0,0.0
680,71.0,0.0,15.0,0.0,0.0
681,71.0,0.0,15.0,1.0,0.0
682,68.0,0.0,20.0,2.0,0.0
683,56.0,0.0,20.0,3.0,0.0
684,44.0,0.0,20.0,4.0,0.0
685,71.0,11.0,15.0,5.0,0.0
686,56.0,1.0,20.0,6.0,0.0
687,69.0,0.0,15.0,0.0,0.0
688,73.0,0.0,15.0,1.0,0.0
689,69.0,12.0,15.0,5.0,0.0
690,68.0,0.0,15.0,0.0,0.0
691,74.0,0.0,15.0,1.0,0.0
692,65.0,0.0,20.0,2.0,0.0
693,47.0,0.0,20.0,3.0,0.0
694,35.0,10.0,20.0,4.0,0.0
695,68.0,11.0,15.0,5.0,0.0
696,47.0,1.0,20.0,6.0,0.0
697,69.0,0.0,15.0,0.0,0.0
698,73.0,0.0,15.0,1.0,0.0
699,69.0,2.0,15.0,5.0,0.0
700,71.0,0.0,30.0,0.0,0.0
701,71.0,11.0,15.0,1.0,0.0
702,68.0,0.0,20.0,2.0,0.0
703,47.0,0.0,20.0,3.0,0.0
704,35.0,7.0,20.0,4.0,0.0
705,71.0,3.0,30.0,5.0,0.0
706,47.0,1.0,20.0,6.0,0.0
707,69.0,2.0,15.0,1.0,0.0
708,68.0,11.0,15.0,1.0,0.0
709,47.0,0.0,20.0,3.0,0.0
710,35.0,0.0,20.0,4.0,0.0
711,47.0,1.0,20.0,6.0,0.0
712,69.0,0.0,15.0,0.0,0.0
713,66.0,0.0,15.0,1.0,0.0
714,69.0,12.0,15.0,5.0,0.0
715,68.0,0.0,15.0,0.0,0.0
716,65.0,0.0,15.0,1.0,0.0
717,59.0,3.0,40.0,2.0,0.0
718,50.0,0.0,20.0,3.0,0.0
719,38.0,0.0,20.0,4.0,0.0
720,68.0,11.0,15.0,5.0,0.0
721,50.0,1.0,20.0,6.0,0.0
722,66.0,0.0,15.0,0.0,0.0
723,66.0,0.0,15.0,1.0,0.0
724,66.0,12.0,15.0,5.0,0.0
725,65.0,0.0,20.0,0.0,0.0
726,71.0,8.0,15.0,1.0,0.0
727,44.0,0.0,20.0,3.0,0.0
728,32.0,0.0,20.0,4.0,0.0
729,65.0,0.0,20.0,5.0,0.0
730,44.0,1.0,20.0,6.0,0.0
731,68.0,12.0,15.0,1.0,0.0
732,73.0,0.0,20.0,0.0,0.0
733,69.0,11.0,15.0,1.0,0.0
734,66.0,0.0,20.0,2.0,0.0
735,42.0,0.0,20.0,3.0,0.0
736,30.0,0.0,20.0,4.0,0.0
737,73.0,0.0,20.0,5.0,0.0
738,69.0,0.0,20.0,5.0,0.0
739,66.0,0.0,20.0,5.0,0.0
740,42.0,1.0,20.0,6.0,0.0
741,66.0,23.0,15.0,1.0,0.0
742,69.0,0.0,20.0,0.0,0.0
743,61.0,0.0,20.0,1.0,0.0
744,66.0,0.0,20.0,2.0,0.0
745,49.0,0.0,20.0,3.0,0.0
746,37.0,0.0,20.0,4.0,0.0
747,69.0,0.0,20.0,5.0,0.0
748,66.0,0.0,20.0,5.0,0.0
749,49.0,13.0,20.0,6.0,0.0
750,68.0,0.0,15.0,0.0,0.0
751,65.0,0.0,20.0,1.0,0.0
752,61.0,0.0,20.0,2.0,0.0
753,49.0,0.0,20.0,3.0,0.0
754,37.0,0.0,20.0,4.0,0.0
755,68.0,11.0,15.0,5.0,0.0
756,65.0,0.0,20.0,5.0,0.0
757,49.0,1.0,20.0,6.0,0.0
758,66.0,0.0,15.0,0.0,0.0
759,66.0,23.0,15.0,5.0,0.0
760,66.0,0.0,40.0,0.0,0.0
761,66.0,0.0,40.0,1.0,0.0
762,58.0,0.0,40.0,2.0,0.0
763,42.0,0.0,20.0,3.0,0.0
764,30.0,0.0,20.0,4.0,0.0
765,66.0,4.0,40.0,5.0,0.0
766,42.0,13.0,20.0,6.0,0.0
767,54.0,0.0,15.0,3.0,0.0
768,42.0,0.0,15.0,4.0,0.0
769,54.0,8.0,15.0,6.0,0.0
770,52.0,0.0,15.0,3.0,0.0
771,40.0,0.0,15.0,4.0,0.0
772,52.0,12.0,15.0,6.0,0.0
773,50.0,0.0,20.0,3.0,0.0
774,38.0,1.0,20.0,4.0,0.0
775,50.0,11.0,15.0,6.0,0.0
776,52.0,12.0,15.0,6.0,0.0
777,49.0,0.0,20.0,3.0,0.0
778,37.0,0.0,20.0,4.0,0.0
779,78.0,1.0,20.0,5.0,0.0
780,50.0,11.0,15.0,6.0,0.0
781,49.0,12.0,15.0,6.0,0.0
782,47.0,0.0,40.0,3.0,0.0
783,35.0,3.0,40.0,4.0,0.0
784,83.0,11.0,15.0,5.0,0.0
785,47.0,1.0,20.0,6.0,0.0
786,82.0,12.0,15.0,5.0,0.0
787,78.0,0.0,20.0,0.0,0.0
788,74.0,0.0,20.0,1.0,0.0
789,71.0,1.0,20.0,2.0,0.0
790,83.0,14.0,30.0,5.0,0.0
791,59.0,8.0,15.0,6.0,0.0
792,58.0,9.0,15.0,6.0,0.0
793,83.0,0.0,20.0,0.0,0.0
794,78.0,0.0,20.0,1.0,0.0
795,74.0,0.0,20.0,2.0,0.0
796,59.0,1.0,20.0,6.0,0.0
797,78.0,12.0,15.0,5.0,0.0
798,59.0,0.0,20.0,3.0,0.0
799,47.0,0.0,20.0,4.0,0.0
800,76.0,11.0,15.0,5.0,0.0
801,47.0,1.0,20.0,6.0,0.0
802,78.0,12.0,15.0,5.0,0.0
803,66.0,0.0,40.0,3.0,0.0
804,54.0,4.0,40.0,4.0,0.0
805,86.0,1.0,20.0,5.0,0.0
806,54.0,11.0,15.0,6.0,0.0
807,66.0,12.0,15.0,6.0,0.0
808,82.0,0.0,15.0,0.0,0.0
809,78.0,0.0,15.0,1.0,0.0
810,73.0,0.0,15.0,2.0,0.0
811,85.0,3.0,30.0,5.0,0.0
812,64.0,8.0,15.0,6.0,0.0
813,83.0,0.0,15.0,0.0,0.0
814,80.0,0.0,15.0,1.0,0.0
815,74.0,0.0,15.0,2.0,0.0
816,62.0,9.0,15.0,6.0,0.0
817,85.0,0.0,20.0,0.0,0.0
818,82.0,0.0,20.0,1.0,0.0
819,76.0,1.0,20.0,2.0,0.0
820,61.0,11.0,15.0,6.0,0.0
821,78.0,0.0,15.0,5.0,0.0
822,62.0,12.0,15.0,6.0,0.0
823,54.0,0.0,20.0,3.0,0.0
824,42.0,1.0,20.0,4.0,0.0
825,76.0,0.0,15.0,5.0,0.0
826,61.0,11.0,15.0,6.0,0.0
827,78.0,0.0,15.0,5.0,0.0
828,59.0,12.0,15.0,6.0,0.0
829,46.0,0.0,40.0,3.0,0.0
830,34.0,3.0,40.0,4.0,0.0
831,85.0,0.0,15.0,5.0,0.0
832,58.0,12.0,15.0,6.0,0.0
833,83.0,0.0,15.0,5.0,0.0
834,59.0,12.0,15.0,6.0,0.0
835,78.0,0.0,20.0,0.0,0.0
836,70.0,0.0,20.0,1.0,0.0
837,73.0,1.0,20.0,2.0,0.0
838,85.0,3.0,30.0,5.0,0.0
839,58.0,8.0,15.0,6.0,0.0
840,56.0,9.0,15.0,6.0,0.0
841,85.0,0.0,20.0,0.0,0.0
842,76.0,0.0,20.0,1.0,0.0
843,70.0,1.0,20.0,2.0,0.0
844,54.0,11.0,15.0,6.0,0.0
845,78.0,0.0,15.0,5.0,0.0
846,58.0,12.0,15.0,6.0,0.0
847,54.0,0.0,20.0,3.0,0.0
848,42.0,1.0,20.0,4.0,0.0
849,76.0,0.0,15.0,5.0,0.0
850,56.0,11.0,15.0,6.0,0.0
851,78.0,0.0,15.0,5.0,0.0
852,54.0,12.0,15.0,6.0,0.0
853,59.0,0.0,40.0,3.0,0.0
854,47.0,3.0,40.0,4.0,0.0
855,88.0,1.0,20.0,5.0,0.0
856,59.0,11.0,15.0,6.0,0.0
857,58.0,12.0,15.0,6.0,0.0
858,83.0,0.0,15.0,0.0,0.0
859,78.0,1.0,20.0,1.0,0.0
860,74.0,0.0,15.0,2.0,0.0
861,86.0,14.0,30.0,5.0,0.0
862,59.0,8.0,15.0,6.0,0.0
863,85.0,0.0,15.0,0.0,0.0
864,76.0,0.0,15.0,2.0,0.0
865,54.0,9.0,15.0,6.0,0.0
866,86.0,0.0,20.0,0.0,0.0
867,83.0,0.0,20.0,1.0,0.0
868,78.0,0.0,20.0,2.0,0.0
869,47.0,1.0,20.0,6.0,0.0
870,78.0,12.0,15.0,5.0,0.0
871,59.0,0.0,20.0,3.0,0.0
872,47.0,1.0,20.0,4.0,0.0
873,76.0,11.0,15.0,5.0,0.0
874,78.0,12.0,15.0,5.0,0.0
875,47.0,0.0,20.0,3.0,0.0
876,35.0,1.0,20.0,4.0,0.0
877,86.0,11.0,15.0,5.0,0.0
878,85.0,12.0,15.0,5.0,0.0
879,50.0,0.0,20.0,3.0,0.0
880,38.0,0.0,20.0,4.0,0.0
881,83.0,11.0,15.0,5.0,0.0
882,62.0,1.0,20.0,6.0,0.0
883,81.0,12.0,15.0,5.0,0.0
884,52.0,0.0,20.0,3.0,0.0
885,40.0,1.0,20.0,4.0,0.0
886,79.0,0.0,15.0,5.0,0.0
887,52.0,11.0,15.0,6.0,0.0
888,76.0,0.0,15.0,5.0,0.0
889,55.0,12.0,15.0,6.0,0.0
890,55.0,0.0,20.0,3.0,0.0
891,43.0,1.0,20.0,4.0,0.0
892,74.0,0.0,15.0,5.0,0.0
893,54.0,11.0,15.0,6.0,0.0
894,76.0,0.0,15.0,5.0,0.0
895,55.0,12.0,15.0,6.0,0.0
896,45.0,0.0,20.0,3.0,0.0
897,33.0,0.0,20.0,4.0,0.0
898,85.0,11.0,15.0,5.0,0.0
899,45.0,1.0,20.0,6.0,0.0
900,83.0,12.0,15.0,5.0,0.0
901,49.0,0.0,20.0,3.0,0.0
902,37.0,0.0,20.0,4.0,0.0
903,81.0,11.0,15.0,5.0,0.0
904,61.0,1.0,20.0,6.0,0.0
905,79.0,12.0,15.0,5.0,0.0
906,50.0,0.0,20.0,3.0,0.0
907,38.0,1.0,20.0,4.0,0.0
908,78.0,0.0,15.0,5.0,0.0
909,50.0,11.0,15.0,6.0,0.0
910,74.0,0.0,15.0,5.0,0.0
911,54.0,12.0,15.0,6.0,0.0
912,54.0,0.0,20.0,3.0,0.0
913,42.0,1.0,20.0,4.0,0.0
914,73.0,0.0,15.0,5.0,0.0
915,52.0,11.0,15.0,6.0,0.0
916,74.0,0.0,15.0,5.0,0.0
917,54.0,12.0,15.0,6.0,0.0
918,43.0,0.0,20.0,3.0,0.0
919,31.0,0.0,20.0,4.0,0.0
920,83.0,11.0,15.0,5.0,0.0
921,43.0,1.0,20.0,6.0,0.0
922,81.0,12.0,15.0,5.0,0.0
923,47.0,0.0,20.0,3.0,0.0
924,35.0,0.0,20.0,4.0,0.0
925,79.0,11.0,15.0,5.0,0.0
926,59.0,1.0,20.0,6.0,0.0
927,78.0,12.0,15.0,5.0,0.0
928,49.0,0.0,20.0,3.0,0.0
929,37.0,1.0,20.0,4.0,0.0
930,76.0,0.0,15.0,5.0,0.0
931,49.0,11.0,15.0,6.0,0.0
932,73.0,0.0,15.0,5.0,0.0
933,52.0,12.0,15.0,6.0,0.0
934,52.0,0.0,20.0,3.0,0.0
935,40.0,1.0,20.0,4.0,0.0
936,71.0,0.0,15.0,5.0,0.0
937,50.0,11.0,15.0,6.0,0.0
938,73.0,0.0,15.0,5.0,0.0
939,52.0,12.0,15.0,6.0,0.0
940,42.0,0.0,20.0,3.0,0.0
941,30.0,0.0,20.0,4.0,0.0
942,82.0,11.0,15.0,5.0,0.0
943,42.0,1.0,20.0,6.0,0.0
944,83.0,12.0,15.0,5.0,0.0
945,54.0,0.0,20.0,3.0,0.0
946,42.0,1.0,20.0,4.0,0.0
947,82.0,0.0,15.0,5.0,0.0
948,54.0,11.0,15.0,6.0,0.0
949,80.0,0.0,15.0,5.0,0.0
950,56.0,12.0,15.0,6.0,0.0
951,58.0,0.0,20.0,3.0,0.0
952,46.0,1.0,20.0,4.0,0.0
953,78.0,0.0,15.0,5.0,0.0
954,58.0,11.0,15.0,6.0,0.0
955,76.0,0.0,15.0,5.0,0.0
956,61.0,12.0,15.0,6.0,0.0
957,78.0,0.0,20.0,0.0,0.0
958,70.0,0.0,20.0,2.0,0.0
959,54.0,0.0,20.0,3.0,0.0
960,42.0,0.0,20.0,4.0,0.0
961,74.0,11.0,15.0,5.0,0.0
962,54.0,1.0,20.0,6.0,0.0
963,73.0,12.0,15.0,5.0,0.0
964,83.0,0.0,40.0,0.0,0.0
965,66.0,3.0,40.0,2.0,0.0
966,74.0,12.0,15.0,5.0,0.0
967,76.0,12.0,15.0,5.0,0.0
968,78.0,0.0,20.0,1.0,0.0
969,59.0,0.0,20.0,3.0,0.0
970,47.0,1.0,20.0,4.0,0.0
971,74.0,0.0,15.0,5.0,0.0
972,59.0,8.0,15.0,6.0,0.0
973,73.0,0.0,15.0,5.0,0.0
974,61.0,12.0,15.0,6.0,0.0
975,83.0,0.0,20.0,1.0,0.0
976,62.0,0.0,20.0,3.0,0.0
977,50.0,1.0,20.0,4.0,0.0
978,71.0,0.0,15.0,5.0,0.0
979,62.0,11.0,15.0,6.0,0.0
980,83.0,0.0,15.0,5.0,0.0
981,66.0,12.0,15.0,6.0,0.0
982,78.0,0.0,20.0,0.0,0.0
983,71.0,0.0,20.0,2.0,0.0
984,59.0,0.0,20.0,3.0,0.0
985,47.0,1.0,20.0,4.0,0.0
986,78.0,0.0,15.0,5.0,0.0
987,62.0,11.0,15.0,6.0,0.0
988,81.0,0.0,15.0,5.0,0.0
989,59.0,12.0,15.0,6.0,0.0
990,79.0,0.0,40.0,0.0,0.0
991,64.0,3.0,40.0,2.0,0.0
992,79.0,11.0,15.0,5.0,0.0
993,64.0,1.0,20.0,6.0,0.0
994,81.0,12.0,15.0,5.0,0.0
995,76.0,0.0,15.0,1.0,0.0
996,59.0,0.0,20.0,3.0,0.0
997,47.0,1.0,20.0,4.0,0.0
998,79.0,0.0,15.0,5.0,0.0
999,59.0,8.0,15.0,6.0,0.0
1000,78.0,0.0,15.0,1.0,0.0
1001,78.0,0.0,15.0,5.0,0.0
1002,57.0,12.0,15.0,6.0,0.0
1003,79.0,0.0,20.0,1.0,0.0
1004,55.0,0.0,20.0,3.0,0.0
1005,43.0,1.0,20.0,4.0,0.0
1006,76.0,0.0,15.0,5.0,0.0
1007,55.0,11.0,15.0,6.0,0.0
1008,74.0,0.0,15.0,5.0,0.0
1009,59.0,12.0,15.0,6.0,0.0
1010,76.0,0.0,20.0,0.0,0.0
1011,67.0,0.0,20.0,2.0,0.0
1012,52.0,0.0,20.0,3.0,0.0
1013,40.0,0.0,20.0,4.0,0.0
1014,73.0,11.0,15.0,5.0,0.0
1015,52.0,1.0,20.0,6.0,0.0
1016,71.0,12.0,15.0,5.0,0.0
1017,81.0,0.0,40.0,0.0,0.0
1018,64.0,3.0,40.0,2.0,0.0
1019,73.0,12.0,15.0,5.0,0.0
1020,74.0,12.0,15.0,5.0,0.0
1021,76.0,0.0,20.0,1.0,0.0
1022,57.0,0.0,20.0,3.0,0.0
1023,45.0,1.0,20.0,4.0,0.0
1024,73.0,0.0,15.0,5.0,0.0
1025,57.0,8.0,15.0,6.0,0.0
1026,71.0,0.0,15.0,5.0,0.0
1027,59.0,12.0,15.0,6.0,0.0
1028,81.0,0.0,20.0,1.0,0.0
1029,61.0,0.0,20.0,3.0,0.0
1030,49.0,1.0,20.0,4.0,0.0
1031,69.0,0.0,15.0,5.0,0.0
1032,61.0,11.0,15.0,6.0,0.0
1033,81.0,0.0,15.0,5.0,0.0
1034,64.0,12.0,15.0,6.0,0.0
1035,76.0,0.0,20.0,0.0,0.0
1036,69.0,0.0,20.0,2.0,0.0
1037,57.0,0.0,20.0,3.0,0.0
1038,45.0,1.0,20.0,4.0,0.0
1039,76.0,0.0,15.0,5.0,0.0
1040,61.0,11.0,15.0,6.0,0.0
1041,79.0,0.0,15.0,5.0,0.0
1042,57.0,12.0,15.0,6.0,0.0
1043,78.0,0.0,40.0,0.0,0.0
1044,62.0,3.0,40.0,2.0,0.0
1045,78.0,11.0,15.0,5.0,0.0
1046,62.0,1.0,20.0,6.0,0.0
1047,79.0,12.0,15.0,5.0,0.0
1048,74.0,0.0,15.0,1.0,0.0
1049,57.0,0.0,20.0,3.0,0.0
1050,45.0,1.0,20.0,4.0,0.0
1051,78.0,0.0,15.0,5.0,0.0
1052,57.0,8.0,15.0,6.0,0.0
1053,76.0,0.0,15.0,1.0,0.0
1054,76.0,0.0,15.0,5.0,0.0
1055,55.0,12.0,15.0,6.0,0.0
1056,78.0,0.0,20.0,1.0,0.0
1057,54.0,0.0,20.0,3.0,0.0
1058,42.0,1.0,20.0,4.0,0.0
1059,74.0,0.0,15.0,5.0,0.0
1060,54.0,11.0,15.0,6.0,0.0
1061,73.0,0.0,15.0,5.0,0.0
1062,57.0,12.0,15.0,6.0,0.0
1063,74.0,0.0,20.0,0.0,0.0
1064,66.0,0.0,20.0,2.0,0.0
1065,50.0,0.0,20.0,3.0,0.0
1066,38.0,0.0,20.0,4.0,0.0
1067,71.0,11.0,15.0,5.0,0.0
1068,50.0,1.0,20.0,6.0,0.0
1069,69.0,12.0,15.0,5.0,0.0
1070,79.0,0.0,40.0,0.0,0.0
1071,62.0,3.0,40.0,2.0,0.0
1072,71.0,12.0,15.0,5.0,0.0
1073,72.0,12.0,15.0,5.0,0.0
1074,74.0,0.0,20.0,1.0,0.0
1075,55.0,0.0,20.0,3.0,0.0
1076,43.0,1.0,20.0,4.0,0.0
1077,71.0,0.0,15.0,5.0,0.0
1078,55.0,8.0,15.0,6.0,0.0
1079,69.0,0.0,15.0,5.0,0.0
1080,57.0,12.0,15.0,6.0,0.0
1081,79.0,0.0,20.0,1.0,0.0
1082,59.0,0.0,20.0,3.0,0.0
1083,47.0,1.0,20.0,4.0,0.0
1084,67.0,0.0,15.0,5.0,0.0
1085,59.0,11.0,15.0,6.0,0.0
1086,79.0,0.0,15.0,5.0,0.0
1087,62.0,12.0,15.0,6.0,0.0
1088,74.0,0.0,20.0,0.0,0.0
1089,67.0,0.0,20.0,2.0,0.0
1090,55.0,0.0,20.0,3.0,0.0
1091,43.0,1.0,20.0,4.0,0.0
1092,74.0,0.0,15.0,5.0,0.0
1093,59.0,11.0,15.0,6.0,0.0
1094,78.0,0.0,15.0,5.0,0.0
1095,55.0,14.0,15.0,6.0,0.0
1096,76.0,0.0,40.0,0.0,0.0
1097,61.0,3.0,40.0,2.0,0.0
1098,76.0,9.0,15.0,5.0,0.0
1099,61.0,3.0,20.0,6.0,0.0
1100,78.0,10.0,15.0,5.0,0.0
1101,73.0,0.0,15.0,1.0,0.0
1102,55.0,0.0,20.0,3.0,0.0
1103,43.0,1.0,20.0,4.0,0.0
1104,76.0,6.0,15.0,5.0,0.0
1105,55.0,2.0,15.0,6.0,0.0
1106,74.0,0.0,15.0,1.0,0.0
1107,74.0,0.0,15.0,5.0,0.0
1108,54.0,12.0,15.0,6.0,0.0
1109,76.0,0.0,20.0,1.0,0.0
1110,52.0,0.0,20.0,3.0,0.0
1111,40.0,1.0,20.0,4.0,0.0
1112,73.0,0.0,15.0,5.0,0.0
1113,52.0,11.0,15.0,6.0,0.0
1114,71.0,0.0,15.0,5.0,0.0
1115,55.0,12.0,15.0,6.0,0.0
1116,73.0,0.0,20.0,0.0,0.0
1117,64.0,0.0,20.0,2.0,0.0
1118,49.0,0.0,20.0,3.0,0.0
1119,37.0,0.0,20.0,4.0,0.0
1120,70.0,11.0,15.0,5.0,0.0
1121,49.0,1.0,20.0,6.0,0.0
1122,68.0,12.0,15.0,5.0,0.0
1123,78.0,0.0,40.0,0.0,0.0
1124,61.0,3.0,40.0,2.0,0.0
1125,70.0,12.0,15.0,5.0,0.0
1126,71.0,12.0,15.0,5.0,0.0
1127,73.0,0.0,20.0,1.0,0.0
1128,54.0,0.0,20.0,3.0,0.0
1129,42.0,1.0,20.0,4.0,0.0
1130,70.0,0.0,15.0,5.0,0.0
1131,54.0,8.0,15.0,6.0,0.0
1132,68.0,0.0,15.0,5.0,0.0
1133,56.0,12.0,15.0,6.0,0.0
1134,78.0,0.0,20.0,1.0,0.0
1135,58.0,0.0,20.0,3.0,0.0
1136,46.0,1.0,20.0,4.0,0.0
1137,66.0,0.0,15.0,5.0,0.0
1138,58.0,11.0,15.0,6.0,0.0
1139,78.0,0.0,15.0,5.0,0.0
1140,61.0,12.0,15.0,6.0,0.0
1141,78.0,0.0,20.0,0.0,0.0
1142,70.0,0.0,20.0,2.0,0.0
1143,54.0,0.0,20.0,3.0,0.0
1144,42.0,1.0,20.0,4.0,0.0
1145,73.0,0.0,15.0,5.0,0.0
1146,58.0,11.0,15.0,6.0,0.0
1147,76.0,0.0,15.0,5.0,0.0
1148,54.0,12.0,15.0,6.0,0.0
1149,83.0,0.0,40.0,0.0,0.0
1150,66.0,3.0,40.0,2.0,0.0
1151,74.0,0.0,15.0,5.0,0.0
1152,66.0,12.0,15.0,6.0,0.0
1153,76.0,0.0,15.0,5.0,0.0
1154,67.0,12.0,15.0,6.0,0.0
1155,78.0,0.0,20.0,1.0,0.0
1156,54.0,0.0,20.0,3.0,0.0
1157,42.0,1.0,20.0,4.0,0.0
1158,74.0,0.0,15.0,5.0,0.0
1159,66.0,8.0,15.0,6.0,0.0
1160,73.0,0.0,15.0,5.0,0.0
1161,64.0,12.0,15.0,6.0,0.0
1162,83.0,3.0,40.0,1.0,0.0
1163,50.0,0.0,20.0,3.0,0.0
1164,38.0,1.0,20.0,4.0,0.0
1165,71.0,0.0,15.0,5.0,0.0
1166,62.0,11.0,15.0,6.0,0.0
1167,83.0,0.0,15.0,5.0,0.0
1168,66.0,12.0,15.0,6.0,0.0
1169,78.0,0.0,20.0,0.0,0.0
1170,74.0,0.0,20.0,2.0,0.0
1171,47.0,0.0,20.0,3.0,0.0
1172,35.0,1.0,20.0,4.0,0.0
1173,78.0,0.0,15.0,5.0,0.0
1174,62.0,8.0,15.0,6.0,0.0
1175,81.0,0.0,15.0,5.0,0.0
1176,59.0,12.0,15.0,6.0,0.0
1177,79.0,0.0,40.0,0.0,0.0
1178,76.0,0.0,40.0,2.0,0.0
1179,59.0,0.0,40.0,3.0,0.0
1180,47.0,4.0,40.0,4.0,0.0
1181,79.0,0.0,15.0,5.0,0.0
1182,64.0,12.0,15.0,6.0,0.0
1183,81.0,0.0,15.0,5.0,0.0
1184,66.0,12.0,15.0,6.0,0.0
1185,76.0,0.0,15.0,1.0,0.0
1186,79.0,0.0,15.0,5.0,0.0
1187,64.0,8.0,15.0,6.0,0.0
1188,78.0,0.0,15.0,1.0,0.0
1189,78.0,0.0,15.0,5.0,0.0
1190,62.0,12.0,15.0,6.0,0.0
1191,79.0,1.0,20.0,1.0,0.0
1192,76.0,0.0,15.0,5.0,0.0
1193,61.0,11.0,15.0,6.0,0.0
1194,79.0,0.0,15.0,5.0,0.0
1195,64.0,12.0,15.0,6.0,0.0
1196,76.0,0.0,20.0,0.0,0.0
1197,70.0,0.0,20.0,1.0,0.0
1198,73.0,0.0,20.0,2.0,0.0
1199,47.0,0.0,20.0,3.0,0.0
1200,35.0,1.0,20.0,4.0,0.0
1201,73.0,0.0,15.0,5.0,0.0
1202,67.0,11.0,15.0,6.0,0.0
1203,76.0,0.0,15.0,5.0,0.0
1204,61.0,12.0,15.0,6.0,0.0
1205,78.0,0.0,15.0,0.0,0.0
1206,74.0,0.0,15.0,1.0,0.0
1207,66.0,0.0,20.0,2.0,0.0
1208,59.0,0.0,20.0,3.0,0.0
1209,47.0,1.0,20.0,4.0,0.0
1210,78.0,0.0,15.0,5.0,0.0
1211,62.0,11.0,15.0,6.0,0.0
1212,76.0,0.0,15.0,0.0,0.0
1213,73.0,0.0,15.0,1.0,0.0
1214,76.0,0.0,15.0,5.0,0.0
1215,64.0,12.0,15.0,6.0,0.0
1216,74.0,0.0,15.0,0.0,0.0
1217,71.0,0.0,15.0,1.0,0.0
1218,66.0,0.0,20.0,2.0,0.0
1219,47.0,0.0,20.0,3.0,0.0
1220,35.0,1.0,20.0,4.0,0.0
1221,74.0,0.0,15.0,5.0,0.0
1222,66.0,11.0,15.0,6.0,0.0
1223,78.0,0.0,15.0,0.0,0.0
1224,74.0,0.0,15.0,1.0,0.0
1225,78.0,0.0,15.0,5.0,0.0
1226,59.0,12.0,15.0,6.0,0.0
1227,76.0,0.0,15.0,0.0,0.0
1228,73.0,0.0,15.0,1.0,0.0
1229,66.0,0.0,20.0,2.0,0.0
1230,54.0,0.0,20.0,3.0,0.0
1231,42.0,1.0,20.0,4.0,0.0
1232,76.0,0.0,15.0,5.0,0.0
1233,61.0,11.0,15.0,6.0,0.0
1234,74.0,0.0,15.0,0.0,0.0
1235,71.0,0.0,15.0,1.0,0.0
1236,74.0,0.0,15.0,5.0,0.0
1237,62.0,12.0,15.0,6.0,0.0
1238,73.0,0.0,15.0,0.0,0.0
1239,70.0,0.0,15.0,1.0,0.0
1240,66.0,0.0,20.0,2.0,0.0
1241,42.0,0.0,20.0,3.0,0.0
1242,30.0,1.0,20.0,4.0,0.0
1243,73.0,0.0,15.0,5.0,0.0
1244,64.0,11.0,15.0,6.0,0.0
1245,76.0,0.0,15.0,0.0,0.0
1246,73.0,0.0,15.0,1.0,0.0
1247,76.0,0.0,15.0,5.0,0.0
1248,58.0,12.0,15.0,6.0,0.0
1249,74.0,0.0,20.0,0.0,0.0
1250,71.0,0.0,20.0,1.0,0.0
1251,66.0,0.0,20.0,2.0,0.0
1252,47.0,0.0,20.0,3.0,0.0
1253,35.0,0.0,20.0,4.0,0.0
1254,74.0,1.0,20.0,5.0,0.0
1255,59.0,11.0,15.0,6.0,0.0
1256,61.0,12.0,15.0,6.0,0.0
1257,71.0,0.0,20.0,0.0,0.0
1258,66.0,0.0,20.0,1.0,0.0
1259,62.0,0.0,20.0,2.0,0.0
1260,59.0,0.0,15.0,3.0,0.0
1261,47.0,0.0,15.0,4.0,0.0
1262,71.0,1.0,20.0,5.0,0.0
1263,62.0,11.0,15.0,6.0,0.0
1264,61.0,0.0,15.0,3.0,0.0
1265,49.0,0.0,15.0,4.0,0.0
1266,61.0,12.0,15.0,6.0,0.0
1267,62.0,0.0,20.0,3.0,0.0
1268,50.0,1.0,20.0,4.0,0.0
1269,59.0,11.0,15.0,6.0,0.0
1270,66.0,0.0,15.0,5.0,0.0
1271,58.0,12.0,15.0,6.0,0.0
1272,74.0,0.0,20.0,0.0,0.0
1273,71.0,0.0,20.0,1.0,0.0
1274,66.0,0.0,20.0,2.0,0.0
1275,59.0,0.0,20.0,3.0,0.0
1276,47.0,1.0,20.0,4.0,0.0
1277,71.0,0.0,15.0,5.0,0.0
1278,59.0,11.0,15.0,6.0,0.0
1279,74.0,0.0,15.0,5.0,0.0
1280,54.0,7.0,15.0,6.0,0.0
1281,74.0,0.0,20.0,0.0,0.0
1282,71.0,0.0,20.0,1.0,0.0
1283,71.0,9.0,20.0,2.0,0.0
1284,47.0,0.0,20.0,3.0,0.0
1285,35.0,0.0,20.0,4.0,0.0
1286,79.0,6.0,15.0,5.0,0.0
1287,47.0,3.0,20.0,6.0,0.0
1288,81.0,10.0,15.0,5.0,0.0
1289,83.0,12.0,20.0,5.0,0.0
1290,74.0,0.0,20.0,0.0,0.0
1291,71.0,0.0,20.0,1.0,0.0
1292,71.0,5.0,20.0,2.0,0.0
1293,59.0,1.0,20.0,6.0,0.0
1294,79.0,2.0,15.0,5.0,0.0
1295,73.0,0.0,20.0,0.0,0.0
1296,71.0,0.0,20.0,1.0,0.0
1297,71.0,9.0,20.0,2.0,0.0
1298,77.0,6.0,15.0,5.0,0.0
1299,68.0,3.0,20.0,6.0,0.0
1300,78.0,10.0,15.0,5.0,0.0
1301,80.0,12.0,20.0,5.0,0.0
1302,73.0,0.0,20.0,0.0,0.0
1303,71.0,0.0,20.0,1.0,0.0
1304,71.0,0.0,20.0,2.0,0.0
1305,59.0,1.0,20.0,6.0,0.0
1306,77.0,12.0,15.0,5.0,0.0
1307,73.0,0.0,20.0,0.0,0.0
1308,69.0,0.0,20.0,1.0,0.0
1309,69.0,10.0,20.0,2.0,0.0
1310,78.0,12.0,15.0,5.0,0.0
1311,73.0,2.0,15.0,5.0,0.0
1312,73.0,0.0,20.0,0.0,0.0
1313,69.0,0.0,20.0,1.0,0.0
1314,69.0,10.0,20.0,2.0,0.0
1315,57.0,0.0,15.0,3.0,0.0
1316,45.0,0.0,15.0,4.0,0.0
1317,69.0,0.0,15.0,5.0,0.0
1318,57.0,12.0,15.0,6.0,0.0
1319,59.0,0.0,15.0,3.0,0.0
1320,47.0,0.0,15.0,4.0,0.0
1321,66.0,0.0,15.0,5.0,0.0
1322,59.0,2.0,15.0,6.0,0.0
1323,73.0,0.0,20.0,0.0,0.0
1324,69.0,0.0,20.0,1.0,0.0
1325,69.0,10.0,20.0,2.0,0.0
1326,61.0,0.0,20.0,3.0,0.0
1327,49.0,0.0,20.0,4.0,0.0
1328,65.0,11.0,15.0,5.0,0.0
1329,61.0,1.0,20.0,6.0,0.0
1330,66.0,2.0,15.0,5.0,0.0
1331,73.0,0.0,20.0,0.0,0.0
1332,69.0,0.0,20.0,1.0,0.0
1333,69.0,0.0,20.0,2.0,0.0
1334,57.0,0.0,20.0,3.0,0.0
1335,45.0,0.0,20.0,4.0,0.0
1336,69.0,11.0,15.0,5.0,0.0
1337,54.0,1.0,20.0,6.0,0.0
1338,73.0,7.0,15.0,5.0,0.0
1339,72.0,0.0,20.0,0.0,0.0
1340,69.0,0.0,20.0,1.0,0.0
1341,69.0,9.0,20.0,2.0,0.0
1342,45.0,0.0,20.0,3.0,0.0
1343,33.0,0.0,20.0,4.0,0.0
1344,78.0,6.0,15.0,5.0,0.0
1345,45.0,3.0,20.0,6.0,0.0
1346,79.0,10.0,15.0,5.0,0.0
1347,81.0,12.0,20.0,5.0,0.0
1348,72.0,0.0,20.0,0.0,0.0
1349,69.0,0.0,20.0,1.0,0.0
1350,69.0,5.0,20.0,2.0,0.0
1351,57.0,1.0,20.0,6.0,0.0
1352,78.0,2.0,15.0,5.0,0.0
1353,71.0,0.0,20.0,0.0,0.0
1354,69.0,0.0,20.0,1.0,0.0
1355,69.0,9.0,20.0,2.0,0.0
1356,75.0,6.0,15.0,5.0,0.0
1357,66.0,3.0,20.0,6.0,0.0
1358,76.0,10.0,15.0,5.0,0.0
1359,78.0,12.0,20.0,5.0,0.0
1360,71.0,0.0,20.0,0.0,0.0
1361,69.0,0.0,20.0,1.0,0.0
1362,69.0,0.0,20.0,2.0,0.0
1363,57.0,1.0,20.0,6.0,0.0
1364,75.0,12.0,15.0,5.0,0.0
1365,71.0,0.0,20.0,0.0,0.0
1366,67.0,0.0,20.0,1.0,0.0
1367,67.0,10.0,20.0,2.0,0.0
1368,76.0,12.0,15.0,5.0,0.0
1369,71.0,2.0,15.0,5.0,0.0
1370,71.0,0.0,20.0,0.0,0.0
1371,67.0,0.0,20.0,1.0,0.0
1372,67.0,10.0,20.0,2.0,0.0
1373,55.0,0.0,15.0,3.0,0.0
1374,43.0,0.0,15.0,4.0,0.0
1375,67.0,0.0,15.0,5.0,0.0
1376,55.0,12.0,15.0,6.0,0.0
1377,57.0,0.0,15.0,3.0,0.0
1378,45.0,0.0,15.0,4.0,0.0
1379,64.0,0.0,15.0,5.0,0.0
1380,57.0,2.0,15.0,6.0,0.0
1381,71.0,0.0,20.0,0.0,0.0
1382,67.0,0.0,20.0,1.0,0.0
1383,67.0,10.0,20.0,2.0,0.0
1384,59.0,0.0,20.0,3.0,0.0
1385,47.0,0.0,20.0,4.0,0.0
1386,63.0,11.0,15.0,5.0,0.0
1387,59.0,1.0,20.0,6.0,0.0
1388,64.0,2.0,15.0,5.0,0.0
1389,71.0,0.0,20.0,0.0,0.0
1390,67.0,0.0,20.0,1.0,0.0
1391,67.0,0.0,20.0,2.0,0.0
1392,55.0,0.0,20.0,3.0,0.0
1393,43.0,0.0,20.0,4.0,0.0
1394,67.0,11.0,15.0,5.0,0.0
1395,52.0,1.0,20.0,6.0,0.0
1396,71.0,7.0,15.0,5.0,0.0
1397,70.0,0.0,20.0,0.0,0.0
1398,67.0,0.0,20.0,1.0,0.0
1399,67.0,9.0,20.0,2.0,0.0
1400,43.0,0.0,20.0,3.0,0.0
1401,31.0,0.0,20.0,4.0,0.0
1402,76.0,6.0,15.0,5.0,0.0
1403,43.0,3.0,20.0,6.0,0.0
1404,78.0,10.0,15.0,5.0,0.0
1405,79.0,12.0,20.0,5.0,0.0
1406,70.0,0.0,20.0,0.0,0.0
1407,67.0,0.0,20.0,1.0,0.0
1408,67.0,5.0,20.0,2.0,0.0
1409,55.0,1.0,20.0,6.0,0.0
1410,76.0,2.0,15.0,5.0,0.0
1411,69.0,0.0,20.0,0.0,0.0
1412,67.0,0.0,20.0,1.0,0.0
1413,67.0,9.0,20.0,2.0,0.0
1414,73.0,6.0,15.0,5.0,0.0
1415,64.0,3.0,20.0,6.0,0.0
1416,74.0,10.0,15.0,5.0,0.0
1417,76.0,12.0,20.0,5.0,0.0
1418,69.0,0.0,20.0,0.0,0.0
1419,67.0,0.0,20.0,1.0,0.0
1420,67.0,0.0,20.0,2.0,0.0
1421,55.0,1.0,20.0,6.0,0.0
1422,73.0,12.0,15.0,5.0,0.0
1423,69.0,0.0,20.0,0.0,0.0
1424,66.0,0.0,20.0,1.0,0.0
1425,66.0,0.0,20.0,2.0,0.0
1426,74.0,11.0,15.0,5.0,0.0
1427,54.0,1.0,20.0,6.0,0.0
1428,69.0,12.0,15.0,5.0,0.0
1429,55.0,0.0,20.0,3.0,0.0
1430,43.0,0.0,20.0,4.0,0.0
1431,71.0,11.0,15.0,5.0,0.0
1432,55.0,0.0,20.0,6.0,0.0
1433,64.0,1.0,20.0,6.0,0.0
1434,73.0,12.0,15.0,5.0,0.0
1435,54.0,0.0,20.0,3.0,0.0
1436,42.0,0.0,20.0,4.0,0.0
1437,74.0,11.0,15.0,5.0,0.0
1438,54.0,0.0,20.0,6.0,0.0
1439,62.0,1.0,20.0,6.0,0.0
1440,69.0,12.0,15.0,5.0,0.0
1441,52.0,0.0,20.0,3.0,0.0
1442,40.0,0.0,20.0,4.0,0.0
1443,76.0,11.0,15.0,5.0,0.0
1444,52.0,0.0,20.0,6.0,0.0
1445,61.0,1.0,20.0,6.0,0.0
1446,69.0,12.0,15.0,5.0,0.0
1447,50.0,0.0,20.0,3.0,0.0
1448,38.0,0.0,20.0,4.0,0.0
1449,78.0,11.0,15.0,5.0,0.0
1450,50.0,0.0,20.0,6.0,0.0
1451,62.0,1.0,20.0,6.0,0.0
1452,73.0,12.0,15.0,5.0,0.0
1453,62.0,0.0,20.0,3.0,0.0
1454,50.0,0.0,20.0,4.0,0.0
1455,74.0,11.0,15.0,5.0,0.0
1456,50.0,0.0,20.0,6.0,0.0
1457,57.0,1.0,20.0,6.0,0.0
1458,76.0,12.0,15.0,5.0,0.0
1459,61.0,0.0,20.0,3.0,0.0
1460,49.0,0.0,20.0,4.0,0.0
1461,78.0,11.0,15.0,5.0,0.0
1462,49.0,0.0,20.0,6.0,0.0
1463,57.0,1.0,20.0,6.0,0.0
1464,74.0,12.0,15.0,5.0,0.0
1465,59.0,0.0,20.0,3.0,0.0
1466,47.0,0.0,20.0,4.0,0.0
1467,80.0,11.0,15.0,5.0,0.0
1468,47.0,0.0,20.0,6.0,0.0
1469,59.0,1.0,20.0,6.0,0.0
1470,74.0,12.0,15.0,5.0,0.0
1471,57.0,0.0,20.0,3.0,0.0
1472,45.0,0.0,20.0,4.0,0.0
1473,81.0,11.0,15.0,5.0,0.0
1474,45.0,1.0,20.0,6.0,0.0
1475,69.0,12.0,15.0,5.0,0.0
1476,59.0,0.0,20.0,3.0,0.0
1477,47.0,1.0,20.0,4.0,0.0
1478,73.0,11.0,15.0,5.0,0.0
1479,57.0,14.0,30.0,6.0,0.0
1480,76.0,9.0,15.0,5.0,0.0
1481,57.0,0.0,20.0,3.0,0.0
1482,45.0,1.0,20.0,4.0,0.0
1483,81.0,17.0,60.0,5.0,0.0
1484,55.0,12.0,15.0,6.0,0.0
1485,81.0,0.0,20.0,0.0,0.0
1486,76.0,0.0,20.0,1.0,0.0
1487,73.0,0.0,20.0,2.0,0.0
1488,55.0,0.0,20.0,3.0,0.0
1489,43.0,1.0,20.0,4.0,0.0
1490,54.0,11.0,15.0,6.0,0.0
1491,52.0,6.0,15.0,6.0,0.0
1492,86.0,0.0,40.0,0.0,0.0
1493,81.0,0.0,40.0,1.0,0.0
1494,74.0,3.0,40.0,2.0,0.0
1495,54.0,0.0,20.0,3.0,0.0
1496,42.0,0.0,20.0,4.0,0.0
1497,50.0,1.0,20.0,6.0,0.0
1498,74.0,12.0,15.0,5.0,0.0
1499,57.0,0.0,20.0,3.0,0.0
1500,45.0,1.0,20.0,4.0,0.0
1501,78.0,8.0,15.0,5.0,0.0
1502,62.0,14.0,30.0,6.0,0.0
1503,81.0,9.0,15.0,5.0,0.0
1504,54.0,0.0,20.0,3.0,0.0
1505,42.0,1.0,20.0,4.0,0.0
1506,86.0,6.0,60.0,5.0,0.0
1507,61.0,12.0,15.0,6.0,0.0
1508,81.0,0.0,20.0,0.0,0.0
1509,78.0,0.0,20.0,1.0,0.0
1510,74.0,0.0,20.0,2.0,0.0
1511,50.0,0.0,20.0,3.0,0.0
1512,38.0,1.0,20.0,4.0,0.0
1513,59.0,11.0,15.0,6.0,0.0
1514,57.0,6.0,15.0,6.0,0.0
1515,83.0,0.0,40.0,0.0,0.0
1516,79.0,0.0,40.0,1.0,0.0
1517,74.0,3.0,40.0,2.0,0.0
1518,55.0,0.0,20.0,3.0,0.0
1519,43.0,1.0,20.0,4.0,0.0
1520,55.0,11.0,15.0,6.0,0.0
1521,74.0,0.0,15.0,5.0,0.0
1522,57.0,12.0,15.0,6.0,0.0
1523,59.0,0.0,20.0,3.0,0.0
1524,47.0,1.0,20.0,4.0,0.0
1525,79.0,8.0,15.0,5.0,0.0
1526,59.0,14.0,30.0,6.0,0.0
1527,83.0,9.0,15.0,5.0,0.0
1528,55.0,0.0,20.0,3.0,0.0
1529,43.0,1.0,20.0,4.0,0.0
1530,86.0,6.0,60.0,5.0,0.0
1531,55.0,12.0,15.0,6.0,0.0
1532,79.0,0.0,20.0,0.0,0.0
1533,79.0,0.0,20.0,1.0,0.0
1534,76.0,0.0,20.0,2.0,0.0
1535,52.0,0.0,20.0,3.0,0.0
1536,40.0,1.0,20.0,4.0,0.0
1537,59.0,11.0,15.0,6.0,0.0
1538,62.0,12.0,15.0,6.0,0.0
1539,81.0,0.0,15.0,0.0,0.0
1540,78.0,3.0,15.0,1.0,0.0
1541,69.0,0.0,20.0,2.0,0.0
1542,54.0,0.0,20.0,3.0,0.0
1543,42.0,1.0,20.0,4.0,0.0
1544,66.0,2.0,15.0,6.0,0.0
1545,79.0,0.0,15.0,0.0,0.0
1546,79.0,10.0,15.0,1.0,0.0
1547,64.0,2.0,15.0,6.0,0.0
1548,78.0,0.0,15.0,0.0,0.0
1549,81.0,0.0,15.0,1.0,0.0
1550,69.0,0.0,20.0,2.0,0.0
1551,50.0,0.0,20.0,3.0,0.0
1552,38.0,0.0,20.0,4.0,0.0
1553,74.0,1.0,20.0,5.0,0.0
1554,66.0,11.0,15.0,6.0,0.0
1555,81.0,0.0,15.0,0.0,0.0
1556,78.0,0.0,15.0,1.0,0.0
1557,62.0,12.0,15.0,6.0,0.0
1558,79.0,2.0,15.0,0.0,0.0
1559,76.0,9.0,15.0,1.0,0.0
1560,69.0,0.0,20.0,2.0,0.0
1561,57.0,0.0,20.0,3.0,0.0
1562,45.0,0.0,20.0,4.0,0.0
1563,76.0,0.0,20.0,5.0,0.0
1564,69.0,1.0,20.0,6.0,0.0
1565,78.0,2.0,15.0,0.0,0.0
1566,78.0,10.0,15.0,1.0,0.0
1567,76.0,0.0,15.0,0.0,0.0
1568,79.0,11.0,15.0,1.0,0.0
1569,69.0,0.0,20.0,2.0,0.0
1570,45.0,0.0,20.0,3.0,0.0
1571,33.0,0.0,20.0,4.0,0.0
1572,85.0,0.0,20.0,5.0,0.0
1573,57.0,1.0,20.0,6.0,0.0
1574,79.0,0.0,15.0,0.0,0.0
1575,76.0,12.0,15.0,1.0,0.0
1576,78.0,0.0,20.0,0.0,0.0
1577,74.0,0.0,20.0,1.0,0.0
1578,69.0,0.0,20.0,2.0,0.0
1579,50.0,0.0,15.0,3.0,0.0
1580,38.0,0.0,15.0,4.0,0.0
1581,86.0,11.0,15.0,5.0,0.0
1582,62.0,1.0,20.0,6.0,0.0
1583,49.0,0.0,15.0,3.0,0.0
1584,37.0,0.0,15.0,4.0,0.0
1585,81.0,12.0,15.0,5.0,0.0
1586,74.0,0.0,20.0,0.0,0.0
1587,69.0,0.0,20.0,1.0,0.0
1588,66.0,0.0,20.0,2.0,0.0
1589,50.0,0.0,15.0,3.0,0.0
1590,38.0,0.0,15.0,4.0,0.0
1591,78.0,11.0,15.0,5.0,0.0
1592,50.0,1.0,20.0,6.0,0.0
1593,52.0,0.0,15.0,3.0,0.0
1594,40.0,0.0,15.0,4.0,0.0
1595,74.0,12.0,15.0,5.0,0.0
1596,54.0,0.0,20.0,3.0,0.0
1597,42.0,0.0,20.0,4.0,0.0
1598,62.0,11.0,15.0,5.0,0.0
1599,54.0,1.0,20.0,6.0,0.0
1600,74.0,10.0,15.0,0.0,0.0
1601,74.0,2.0,15.0,5.0,0.0
1602,73.0,9.0,15.0,0.0,0.0
1603,69.0,0.0,20.0,1.0,0.0
1604,66.0,0.0,20.0,2.0,0.0
1605,50.0,0.0,20.0,3.0,0.0
1606,38.0,0.0,20.0,4.0,0.0
1607,73.0,2.0,15.0,5.0,0.0
1608,50.0,1.0,20.0,6.0,0.0
1609,74.0,0.0,15.0,0.0,0.0
1610,74.0,12.0,15.0,5.0,0.0
1611,76.0,0.0,15.0,0.0,0.0
1612,69.0,0.0,20.0,1.0,0.0
1613,64.0,0.0,20.0,2.0,0.0
1614,49.0,0.0,20.0,3.0,0.0
1615,37.0,0.0,20.0,4.0,0.0
1616,76.0,11.0,15.0,5.0,0.0
1617,49.0,1.0,20.0,6.0,0.0
1618,74.0,10.0,15.0,0.0,0.0
1619,74.0,2.0,15.0,5.0,0.0
1620,73.0,9.0,15.0,0.0,0.0
1621,57.0,0.0,20.0,3.0,0.0
1622,45.0,0.0,20.0,4.0,0.0
1623,73.0,2.0,15.0,5.0,0.0
1624,57.0,1.0,20.0,6.0,0.0
1625,74.0,0.0,15.0,0.0,0.0
1626,74.0,12.0,15.0,5.0,0.0
1627,78.0,0.0,15.0,0.0,0.0
1628,69.0,0.0,20.0,1.0,0.0
1629,62.0,0.0,20.0,2.0,0.0
1630,50.0,0.0,20.0,3.0,0.0
1631,38.0,0.0,20.0,4.0,0.0
1632,78.0,11.0,15.0,5.0,0.0
1633,50.0,1.0,20.0,6.0,0.0
1634,74.0,10.0,15.0,0.0,0.0
1635,74.0,2.0,15.0,5.0,0.0
1636,73.0,9.0,15.0,0.0,0.0
1637,57.0,0.0,20.0,3.0,0.0
1638,45.0,0.0,20.0,4.0,0.0
1639,73.0,2.0,15.0,5.0,0.0
1640,57.0,1.0,20.0,6.0,0.0
1641,74.0,0.0,15.0,0.0,0.0
1642,74.0,12.0,15.0,5.0,0.0
1643,79.0,0.0,15.0,0.0,0.0
1644,73.0,0.0,20.0,1.0,0.0
1645,67.0,0.0,20.0,2.0,0.0
1646,52.0,0.0,20.0,3.0,0.0
1647,40.0,0.0,20.0,4.0,0.0
1648,79.0,11.0,15.0,5.0,0.0
1649,52.0,1.0,20.0,6.0,0.0
1650,74.0,10.0,15.0,0.0,0.0
1651,74.0,2.0,15.0,5.0,0.0
1652,73.0,9.0,15.0,0.0,0.0
1653,57.0,0.0,20.0,3.0,0.0
1654,45.0,0.0,20.0,4.0,0.0
1655,73.0,2.0,15.0,5.0,0.0
1656,57.0,1.0,20.0,6.0,0.0
1657,74.0,0.0,15.0,0.0,0.0
1658,74.0,12.0,15.0,5.0,0.0
1659,81.0,0.0,15.0,0.0,0.0
1660,74.0,0.0,20.0,1.0,0.0
1661,66.0,0.0,20.0,2.0,0.0
1662,54.0,0.0,20.0,3.0,0.0
1663,42.0,0.0,20.0,4.0,0.0
1664,81.0,11.0,15.0,5.0,0.0
1665,54.0,1.0,20.0,6.0,0.0
1666,74.0,10.0,15.0,0.0,0.0
1667,74.0,2.0,15.0,5.0,0.0
1668,73.0,9.0,15.0,0.0,0.0
1669,50.0,0.0,20.0,3.0,0.0
1670,38.0,0.0,20.0,4.0,0.0
1671,73.0,2.0,15.0,5.0,0.0
1672,50.0,1.0,20.0,6.0,0.0
1673,74.0,0.0,15.0,0.0,0.0
1674,74.0,12.0,15.0,5.0,0.0
1675,83.0,0.0,15.0,0.0,0.0
1676,74.0,0.0,20.0,1.0,0.0
1677,62.0,0.0,20.0,2.0,0.0
1678,55.0,0.0,20.0,3.0,0.0
1679,43.0,0.0,20.0,4.0,0.0
1680,83.0,11.0,15.0,5.0,0.0
1681,55.0,1.0,20.0,6.0,0.0
1682,84.0,0.0,15.0,0.0,0.0
1683,84.0,12.0,15.0,5.0,0.0
1684,83.0,0.0,15.0,0.0,0.0
1685,73.0,0.0,20.0,1.0,0.0
1686,69.0,0.0,20.0,2.0,0.0
1687,57.0,0.0,20.0,3.0,0.0
1688,45.0,0.0,20.0,4.0,0.0
1689,83.0,11.0,15.0,5.0,0.0
1690,57.0,1.0,20.0,6.0,0.0
1691,81.0,0.0,15.0,0.0,0.0
1692,81.0,12.0,15.0,5.0,0.0
1693,79.0,0.0,15.0,0.0,0.0
1694,74.0,0.0,20.0,1.0,0.0
1695,62.0,0.0,20.0,2.0,0.0
1696,59.0,0.0,20.0,3.0,0.0
1697,47.0,0.0,20.0,4.0,0.0
1698,79.0,11.0,15.0,5.0,0.0
1699,59.0,1.0,20.0,6.0,0.0
1700,78.0,0.0,15.0,0.0,0.0
1701,78.0,12.0,15.0,5.0,0.0
1702,76.0,0.0,15.0,0.0,0.0
1703,71.0,0.0,20.0,1.0,0.0
1704,67.0,0.0,20.0,2.0,0.0
1705,55.0,0.0,20.0,3.0,0.0
1706,43.0,0.0,20.0,4.0,0.0
1707,76.0,11.0,15.0,5.0,0.0
1708,55.0,1.0,20.0,6.0,0.0
1709,74.0,0.0,15.0,0.0,0.0
1710,74.0,12.0,15.0,5.0,0.0
1711,73.0,0.0,20.0,0.0,0.0
1712,73.0,0.0,15.0,1.0,0.0
1713,64.0,0.0,20.0,2.0,0.0
1714,57.0,0.0,15.0,3.0,0.0
1715,45.0,9.0,15.0,4.0,0.0
1716,73.0,1.0,20.0,5.0,0.0
1717,57.0,2.0,15.0,6.0,0.0
1718,74.0,0.0,15.0,1.0,0.0
1719,59.0,0.0,15.0,3.0,0.0
1720,47.0,10.0,15.0,4.0,0.0
1721,59.0,2.0,15.0,6.0,0.0
1722,69.0,0.0,20.0,0.0,0.0
1723,76.0,0.0,15.0,1.0,0.0
1724,61.0,0.0,20.0,2.0,0.0
1725,61.0,0.0,15.0,3.0,0.0
1726,49.0,0.0,15.0,4.0,0.0
1727,69.0,1.0,20.0,5.0,0.0
1728,61.0,11.0,15.0,6.0,0.0
1729,74.0,0.0,15.0,1.0,0.0
1730,59.0,0.0,15.0,3.0,0.0
1731,47.0,0.0,15.0,4.0,0.0
1732,59.0,12.0,15.0,6.0,0.0
1733,85.0,0.0,60.0,0.0,0.0
1734,73.0,0.0,15.0,1.0,0.0
1735,64.0,1.0,20.0,2.0,0.0
1736,57.0,0.0,15.0,3.0,0.0
1737,45.0,0.0,15.0,4.0,0.0
1738,85.0,3.0,60.0,5.0,0.0
1739,57.0,11.0,15.0,6.0,0.0
1740,71.0,0.0,15.0,1.0,0.0
1741,55.0,0.0,15.0,3.0,0.0
1742,43.0,0.0,15.0,4.0,0.0
1743,55.0,12.0,15.0,6.0,0.0
1744,69.0,0.0,15.0,1.0,0.0
1745,69.0,3.0,40.0,2.0,0.0
1746,54.0,0.0,15.0,3.0,0.0
1747,42.0,0.0,15.0,4.0,0.0
1748,54.0,12.0,15.0,6.0,0.0
1749,67.0,0.0,15.0,1.0,0.0
1750,52.0,0.0,15.0,3.0,0.0
1751,40.0,0.0,15.0,4.0,0.0
1752,52.0,12.0,15.0,6.0,0.0
1753,66.0,5.0,15.0,1.0,0.0
1754,50.0,0.0,20.0,3.0,0.0
1755,38.0,0.0,20.0,4.0,0.0
1756,50.0,1.0,20.0,6.0,0.0
1757,76.0,12.0,15.0,1.0,0.0
1758,83.0,0.0,15.0,0.0,0.0
1759,74.0,0.0,15.0,1.0,0.0
1760,71.0,0.0,15.0,2.0,0.0
1761,66.0,0.0,20.0,3.0,0.0
1762,54.0,0.0,20.0,4.0,0.0
1763,83.0,11.0,15.0,5.0,0.0
1764,66.0,1.0,20.0,6.0,0.0
1765,82.0,0.0,15.0,0.0,0.0
1766,73.0,0.0,15.0,1.0,0.0
1767,73.0,0.0,15.0,2.0,0.0
1768,82.0,12.0,15.0,5.0,0.0
1769,83.0,0.0,20.0,0.0,0.0
1770,71.0,11.0,15.0,1.0,0.0
1771,74.0,0.0,20.0,2.0,0.0
1772,62.0,0.0,20.0,3.0,0.0
1773,50.0,0.0,20.0,4.0,0.0
1774,83.0,0.0,20.0,5.0,0.0
1775,62.0,1.0,20.0,6.0,0.0
1776,69.0,12.0,15.0,1.0,0.0
1777,86.0,0.0,40.0,0.0,0.0
1778,68.0,11.0,15.0,1.0,0.0
1779,62.0,0.0,20.0,2.0,0.0
1780,59.0,0.0,20.0,3.0,0.0
1781,47.0,0.0,20.0,4.0,0.0
1782,86.0,3.0,40.0,5.0,0.0
1783,59.0,1.0,20.0,6.0,0.0
1784,66.0,20.0,15.0,1.0,0.0
1785,68.0,0.0,20.0,1.0,0.0
1786,59.0,0.0,20.0,2.0,0.0
1787,64.0,0.0,20.0,3.0,0.0
1788,52.0,0.0,20.0,4.0,0.0
1789,64.0,13.0,20.0,6.0,0.0
1790,80.0,0.0,20.0,0.0,0.0
1791,76.0,0.0,20.0,1.0,0.0
1792,71.0,0.0,20.0,2.0,0.0
1793,52.0,0.0,20.0,3.0,0.0
1794,40.0,0.0,20.0,4.0,0.0
1795,80.0,11.0,15.0,5.0,0.0
1796,52.0,1.0,20.0,6.0,0.0
1797,81.0,12.0,15.0,5.0,0.0
1798,83.0,12.0,15.0,5.0,0.0
1799,80.0,12.0,15.0,5.0,0.0
1800,81.0,12.0,15.0,5.0,0.0
1801,78.0,12.0,15.0,5.0,0.0
1802,80.0,12.0,15.0,5.0,0.0
1803,76.0,0.0,15.0,5.0,0.0
1804,68.0,12.0,15.0,6.0,0.0
1805,75.0,0.0,15.0,5.0,0.0
1806,66.0,12.0,15.0,6.0,0.0
1807,76.0,0.0,15.0,5.0,0.0
1808,68.0,12.0,15.0,6.0,0.0
1809,80.0,0.0,15.0,5.0,0.0
1810,64.0,12.0,15.0,6.0,0.0
1811,76.0,0.0,15.0,5.0,0.0
1812,68.0,12.0,15.0,6.0,0.0
1813,83.0,0.0,15.0,5.0,0.0
1814,59.0,12.0,15.0,6.0,0.0
1815,80.0,0.0,15.0,5.0,0.0
1816,64.0,12.0,15.0,6.0,0.0
1817,88.0,1.0,20.0,5.0,0.0
1818,56.0,11.0,15.0,6.0,0.0
1819,57.0,12.0,15.0,6.0,0.0
1820,76.0,0.0,20.0,0.0,0.0
1821,71.0,0.0,15.0,1.0,0.0
1822,59.0,0.0,20.0,2.0,0.0
1823,56.0,0.0,15.0,3.0,0.0
1824,44.0,0.0,15.0,4.0,0.0
1825,76.0,1.0,20.0,5.0,0.0
1826,56.0,11.0,15.0,6.0,0.0
1827,69.0,0.0,15.0,1.0,0.0
1828,54.0,0.0,15.0,3.0,0.0
1829,42.0,0.0,15.0,4.0,0.0
1830,54.0,12.0,15.0,6.0,0.0
1831,83.0,0.0,60.0,0.0,0.0
1832,68.0,0.0,15.0,1.0,0.0
1833,64.0,1.0,20.0,2.0,0.0
1834,52.0,0.0,15.0,3.0,0.0
1835,40.0,0.0,15.0,4.0,0.0
1836,83.0,3.0,60.0,5.0,0.0
1837,52.0,11.0,15.0,6.0,0.0
1838,66.0,0.0,15.0,1.0,0.0
1839,50.0,0.0,15.0,3.0,0.0
1840,38.0,0.0,15.0,4.0,0.0
1841,50.0,12.0,15.0,6.0,0.0
1842,64.0,0.0,15.0,1.0,0.0
1843,68.0,3.0,40.0,2.0,0.0
1844,49.0,0.0,15.0,3.0,0.0
1845,37.0,0.0,15.0,4.0,0.0
1846,49.0,12.0,15.0,6.0,0.0
1847,62.0,0.0,15.0,1.0,0.0
1848,47.0,0.0,15.0,3.0,0.0
1849,35.0,0.0,15.0,4.0,0.0
1850,47.0,12.0,15.0,6.0,0.0
1851,64.0,5.0,15.0,1.0,0.0
1852,49.0,0.0,20.0,3.0,0.0
1853,37.0,0.0,20.0,4.0,0.0
1854,49.0,1.0,20.0,6.0,0.0
1855,74.0,12.0,15.0,1.0,0.0
1856,81.0,0.0,15.0,0.0,0.0
1857,73.0,0.0,15.0,1.0,0.0
1858,69.0,0.0,15.0,2.0,0.0
1859,64.0,0.0,20.0,3.0,0.0
1860,52.0,0.0,20.0,4.0,0.0
1861,81.0,11.0,15.0,5.0,0.0
1862,64.0,1.0,20.0,6.0,0.0
1863,80.0,0.0,15.0,0.0,0.0
1864,71.0,0.0,15.0,1.0,0.0
1865,71.0,0.0,15.0,2.0,0.0
1866,80.0,12.0,15.0,5.0,0.0
1867,81.0,0.0,20.0,0.0,0.0
1868,69.0,11.0,15.0,1.0,0.0
1869,73.0,0.0,20.0,2.0,0.0
1870,61.0,0.0,20.0,3.0,0.0
1871,49.0,0.0,20.0,4.0,0.0
1872,81.0,0.0,20.0,5.0,0.0
1873,61.0,1.0,20.0,6.0,0.0
1874,68.0,12.0,15.0,1.0,0.0
1875,85.0,0.0,40.0,0.0,0.0
1876,66.0,11.0,15.0,1.0,0.0
1877,61.0,0.0,20.0,2.0,0.0
1878,57.0,0.0,20.0,3.0,0.0
1879,45.0,0.0,20.0,4.0,0.0
1880,85.0,3.0,40.0,5.0,0.0
1881,57.0,1.0,20.0,6.0,0.0
1882,65.0,20.0,15.0,1.0,0.0
1883,66.0,0.0,20.0,1.0,0.0
1884,57.0,0.0,20.0,2.0,0.0
1885,62.0,0.0,20.0,3.0,0.0
1886,50.0,0.0,20.0,4.0,0.0
1887,62.0,13.0,20.0,6.0,0.0
1888,78.0,0.0,20.0,0.0,0.0
1889,74.0,0.0,20.0,1.0,0.0
1890,69.0,0.0,20.0,2.0,0.0
1891,50.0,0.0,20.0,3.0,0.0
1892,38.0,0.0,20.0,4.0,0.0
1893,78.0,11.0,15.0,5.0,0.0
1894,50.0,1.0,20.0,6.0,0.0
1895,80.0,12.0,15.0,5.0,0.0
1896,81.0,12.0,15.0,5.0,0.0
1897,78.0,12.0,15.0,5.0,0.0
1898,80.0,12.0,15.0,5.0,0.0
1899,77.0,12.0,15.0,5.0,0.0
1900,78.0,12.0,15.0,5.0,0.0
1901,74.0,0.0,15.0,5.0,0.0
1902,66.0,12.0,15.0,6.0,0.0
1903,73.0,0.0,15.0,5.0,0.0
1904,64.0,12.0,15.0,6.0,0.0
1905,74.0,0.0,15.0,5.0,0.0
1906,66.0,12.0,15.0,6.0,0.0
1907,78.0,0.0,15.0,5.0,0.0
1908,62.0,12.0,15.0,6.0,0.0
1909,74.0,0.0,15.0,5.0,0.0
1910,66.0,12.0,15.0,6.0,0.0
1911,81.0,0.0,15.0,5.0,0.0
1912,57.0,12.0,15.0,6.0,0.0
1913,78.0,0.0,15.0,5.0,0.0
1914,62.0,12.0,15.0,6.0,0.0
1915,86.0,1.0,20.0,5.0,0.0
1916,54.0,11.0,15.0,6.0,0.0
1917,57.0,12.0,15.0,6.0,0.0
1918,78.0,0.0,15.0,0.0,0.0
1919,69.0,0.0,40.0,1.0,0.0
1920,66.0,4.0,40.0,2.0,0.0
1921,62.0,0.0,15.0,3.0,0.0
1922,50.0,0.0,15.0,4.0,0.0
1923,74.0,1.0,20.0,5.0,0.0
1924,59.0,11.0,15.0,6.0,0.0
1925,77.0,0.0,15.0,0.0,0.0
1926,61.0,0.0,15.0,3.0,0.0
1927,49.0,0.0,15.0,4.0,0.0
1928,61.0,12.0,15.0,6.0,0.0
1929,78.0,0.0,60.0,0.0,0.0
1930,62.0,0.0,15.0,3.0,0.0
1931,50.0,0.0,15.0,4.0,0.0
1932,81.0,6.0,60.0,5.0,0.0
1933,62.0,8.0,15.0,6.0,0.0
1934,64.0,0.0,15.0,3.0,0.0
1935,52.0,0.0,15.0,4.0,0.0
1936,64.0,12.0,15.0,6.0,0.0
1937,71.0,0.0,15.0,1.0,0.0
1938,68.0,0.0,15.0,2.0,0.0
1939,62.0,0.0,15.0,3.0,0.0
1940,50.0,0.0,15.0,4.0,0.0
1941,62.0,12.0,15.0,6.0,0.0
1942,73.0,0.0,15.0,1.0,0.0
1943,69.0,0.0,15.0,2.0,0.0
1944,61.0,0.0,15.0,3.0,0.0
1945,49.0,0.0,15.0,4.0,0.0
1946,61.0,12.0,15.0,6.0,0.0
1947,74.0,6.0,60.0,1.0,0.0
1948,71.0,1.0,20.0,2.0,0.0
1949,59.0,0.0,15.0,3.0,0.0
1950,47.0,0.0,15.0,4.0,0.0
1951,59.0,5.0,15.0,6.0,0.0
1952,61.0,0.0,15.0,3.0,0.0
1953,49.0,0.0,15.0,4.0,0.0
1954,61.0,12.0,15.0,6.0,0.0
1955,80.0,0.0,15.0,0.0,0.0
1956,74.0,1.0,20.0,2.0,0.0
1957,59.0,0.0,15.0,3.0,0.0
1958,47.0,0.0,15.0,4.0,0.0
1959,80.0,0.0,15.0,5.0,0.0
1960,59.0,11.0,15.0,6.0,0.0
1961,81.0,0.0,15.0,0.0,0.0
1962,57.0,0.0,15.0,3.0,0.0
1963,45.0,0.0,15.0,4.0,0.0
1964,81.0,0.0,15.0,5.0,0.0
1965,57.0,6.0,15.0,6.0,0.0
1966,83.0,0.0,20.0,0.0,0.0
1967,65.0,0.0,20.0,2.0,0.0
1968,56.0,0.0,15.0,3.0,0.0
1969,44.0,0.0,15.0,4.0,0.0
1970,83.0,1.0,20.0,5.0,0.0
1971,56.0,11.0,15.0,6.0,0.0
1972,73.0,0.0,15.0,1.0,0.0
1973,57.0,0.0,15.0,3.0,0.0
1974,45.0,0.0,15.0,4.0,0.0
1975,57.0,12.0,15.0,6.0,0.0
1976,74.0,0.0,20.0,0.0,0.0
1977,71.0,0.0,15.0,1.0,0.0
1978,68.0,3.0,40.0,2.0,0.0
1979,56.0,0.0,15.0,3.0,0.0
1980,44.0,0.0,15.0,4.0,0.0
1981,74.0,1.0,20.0,5.0,0.0
1982,56.0,11.0,15.0,6.0,0.0
1983,69.0,0.0,15.0,1.0,0.0
1984,54.0,0.0,15.0,3.0,0.0
1985,42.0,0.0,15.0,4.0,0.0
1986,54.0,12.0,15.0,6.0,0.0
1987,73.0,0.0,20.0,0.0,0.0
1988,68.0,0.0,20.0,1.0,0.0
1989,53.0,0.0,15.0,3.0,0.0
1990,41.0,0.0,15.0,4.0,0.0
1991,73.0,1.0,20.0,5.0,0.0
1992,53.0,8.0,15.0,6.0,0.0
1993,49.0,0.0,15.0,3.0,0.0
1994,37.0,0.0,15.0,4.0,0.0
1995,49.0,12.0,15.0,6.0,0.0
1996,83.0,0.0,20.0,0.0,0.0
1997,80.0,0.0,20.0,1.0,0.0
1998,61.0,0.0,20.0,2.0,0.0
1999,51.0,0.0,15.0,3.0,0.0
2000,39.0,0.0,15.0,4.0,0.0
2001,83.0,1.0,20.0,5.0,0.0
2002,51.0,11.0,15.0,6.0,0.0
2003,53.0,0.0,15.0,3.0,0.0
2004,41.0,0.0,15.0,4.0,0.0
2005,53.0,12.0,15.0,6.0,0.0
2006,81.0,0.0,20.0,0.0,0.0
2007,78.0,0.0,20.0,1.0,0.0
2008,73.0,0.0,20.0,2.0,0.0
2009,54.0,0.0,15.0,3.0,0.0
2010,42.0,0.0,15.0,4.0,0.0
2011,81.0,1.0,20.0,5.0,0.0
2012,54.0,11.0,15.0,6.0,0.0
2013,56.0,0.0,15.0,3.0,0.0
2014,44.0,0.0,15.0,4.0,0.0
2015,56.0,12.0,15.0,6.0,0.0
2016,73.0,0.0,20.0,0.0,0.0
2017,66.0,3.0,40.0,1.0,0.0
2018,69.0,0.0,20.0,2.0,0.0
2019,57.0,0.0,15.0,3.0,0.0
2020,45.0,0.0,15.0,4.0,0.0
2021,73.0,1.0,20.0,5.0,0.0
2022,57.0,11.0,15.0,6.0,0.0
2023,54.0,0.0,15.0,3.0,0.0
2024,42.0,0.0,15.0,4.0,0.0
2025,54.0,12.0,15.0,6.0,0.0
2026,71.0,6.0,15.0,0.0,0.0
2027,66.0,0.0,20.0,2.0,0.0
2028,50.0,0.0,20.0,3.0,0.0
2029,38.0,0.0,20.0,4.0,0.0
2030,71.0,2.0,15.0,5.0,0.0
2031,50.0,1.0,20.0,6.0,0.0
2032,73.0,10.0,15.0,0.0,0.0
2033,73.0,2.0,15.0,5.0,0.0
2034,74.0,0.0,15.0,0.0,0.0
2035,65.0,0.0,20.0,1.0,0.0
2036,69.0,0.0,20.0,2.0,0.0
2037,49.0,0.0,20.0,3.0,0.0
2038,37.0,0.0,20.0,4.0,0.0
2039,74.0,11.0,15.0,5.0,0.0
2040,49.0,1.0,20.0,6.0,0.0
2041,73.0,0.0,15.0,0.0,0.0
2042,73.0,12.0,15.0,5.0,0.0
2043,71.0,0.0,15.0,0.0,0.0
2044,66.0,0.0,20.0,1.0,0.0
2045,71.0,0.0,15.0,2.0,0.0
2046,50.0,0.0,20.0,3.0,0.0
2047,38.0,0.0,20.0,4.0,0.0
2048,71.0,11.0,15.0,5.0,0.0
2049,50.0,1.0,20.0,6.0,0.0
2050,69.0,0.0,15.0,0.0,0.0
2051,73.0,0.0,15.0,2.0,0.0
2052,69.0,12.0,15.0,5.0,0.0
2053,68.0,0.0,15.0,0.0,0.0
2054,74.0,3.0,40.0,1.0,0.0
2055,71.0,0.0,15.0,2.0,0.0
2056,47.0,0.0,20.0,3.0,0.0
2057,35.0,0.0,20.0,4.0,0.0
2058,68.0,11.0,15.0,5.0,0.0
2059,47.0,1.0,20.0,6.0,0.0
2060,66.0,0.0,15.0,0.0,0.0
2061,69.0,0.0,15.0,2.0,0.0
2062,66.0,20.0,15.0,5.0,0.0
2063,65.0,0.0,20.0,0.0,0.0
2064,68.0,0.0,20.0,2.0,0.0
2065,49.0,0.0,30.0,3.0,0.0
2066,37.0,0.0,30.0,4.0,0.0
2067,65.0,10.0,20.0,5.0,0.0
2068,49.0,10.0,30.0,6.0,0.0
2069,74.0,0.0,20.0,0.0,0.0
2070,68.0,0.0,20.0,1.0,0.0
2071,71.0,0.0,20.0,2.0,0.0
2072,74.0,2.0,20.0,5.0,0.0
2073,51.0,0.0,15.0,3.0,0.0
2074,39.0,0.0,15.0,4.0,0.0
2075,51.0,4.0,15.0,6.0,0.0
2076,53.0,0.0,15.0,3.0,0.0
2077,41.0,0.0,15.0,4.0,0.0
2078,53.0,11.0,15.0,6.0,0.0
2079,73.0,0.0,20.0,0.0,0.0
2080,69.0,0.0,20.0,1.0,0.0
2081,69.0,0.0,20.0,2.0,0.0
2082,54.0,0.0,15.0,3.0,0.0
2083,42.0,0.0,15.0,4.0,0.0
2084,73.0,1.0,20.0,5.0,0.0
2085,54.0,11.0,15.0,6.0,0.0
2086,56.0,0.0,15.0,3.0,0.0
2087,44.0,0.0,15.0,4.0,0.0
2088,56.0,12.0,15.0,6.0,0.0
2089,78.0,0.0,20.0,0.0,0.0
2090,78.0,0.0,20.0,1.0,0.0
2091,74.0,0.0,20.0,2.0,0.0
2092,57.0,0.0,15.0,3.0,0.0
2093,45.0,0.0,15.0,4.0,0.0
2094,78.0,1.0,20.0,5.0,0.0
2095,57.0,11.0,15.0,6.0,0.0
2096,59.0,0.0,15.0,3.0,0.0
2097,47.0,0.0,15.0,4.0,0.0
2098,59.0,23.0,15.0,6.0,0.0
2099,81.0,0.0,40.0,0.0,0.0
2100,78.0,0.0,40.0,1.0,0.0
2101,73.0,0.0,40.0,2.0,0.0
2102,61.0,0.0,20.0,3.0,0.0
2103,49.0,0.0,20.0,4.0,0.0
2104,81.0,0.0,40.0,5.0,0.0
2105,78.0,0.0,40.0,5.0,0.0
2106,73.0,3.0,40.0,5.0,0.0
2107,61.0,21.0,20.0,6.0,0.0
2108,59.0,0.0,20.0,3.0,0.0
2109,47.0,0.0,20.0,4.0,0.0
2110,59.0,9.0,20.0,6.0,0.0
2111,80.0,0.0,15.0,0.0,0.0
2112,77.0,0.0,15.0,1.0,0.0
2113,73.0,6.0,90.0,2.0,0.0
2114,61.0,0.0,20.0,3.0,0.0
2115,49.0,0.0,20.0,4.0,0.0
2116,80.0,6.0,15.0,5.0,0.0
2117,77.0,0.0,40.0,5.0,0.0
2118,73.0,3.0,40.0,5.0,0.0
2119,61.0,3.0,20.0,6.0,0.0
2120,81.0,0.0,15.0,0.0,0.0
2121,78.0,0.0,15.0,1.0,0.0
2122,81.0,6.0,15.0,5.0,0.0
2123,80.0,0.0,15.0,0.0,0.0
2124,77.0,0.0,15.0,1.0,0.0
2125,80.0,3.0,15.0,5.0,0.0
2126,81.0,0.0,15.0,0.0,0.0
2127,78.0,0.0,15.0,1.0,0.0
2128,81.0,6.0,15.0,5.0,0.0
2129,80.0,0.0,15.0,0.0,0.0
2130,77.0,0.0,15.0,1.0,0.0
2131,49.0,0.0,20.0,3.0,0.0
2132,37.0,0.0,20.0,4.0,0.0
2133,80.0,6.0,15.0,5.0,0.0
2134,49.0,3.0,20.0,6.0,0.0
2135,81.0,0.0,15.0,0.0,0.0
2136,78.0,0.0,15.0,1.0,0.0
2137,81.0,6.0,15.0,5.0,0.0
2138,80.0,0.0,15.0,0.0,0.0
2139,77.0,0.0,15.0,1.0,0.0
2140,80.0,0.0,15.0,5.0,0.0
2141,81.0,0.0,15.0,0.0,0.0
2142,78.0,0.0,15.0,1.0,0.0
2143,81.0,10.0,15.0,5.0,0.0
2144,80.0,0.0,40.0,0.0,0.0
2145,77.0,3.0,40.0,1.0,0.0
2146,59.0,0.0,20.0,3.0,0.0
2147,47.0,1.0,20.0,4.0,0.0
2148,80.0,0.0,15.0,5.0,0.0
2149,59.0,11.0,15.0,6.0,0.0
2150,81.0,0.0,15.0,5.0,0.0
2151,57.0,12.0,15.0,6.0,0.0
2152,61.0,0.0,20.0,3.0,0.0
2153,49.0,1.0,20.0,4.0,0.0
2154,83.0,0.0,15.0,5.0,0.0
2155,56.0,2.0,15.0,6.0,0.0
2156,81.0,0.0,15.0,5.0,0.0
2157,57.0,12.0,15.0,6.0,0.0
2158,59.0,0.0,20.0,3.0,0.0
2159,47.0,1.0,20.0,4.0,0.0
2160,80.0,0.0,15.0,5.0,0.0
2161,59.0,11.0,15.0,6.0,0.0
2162,83.0,0.0,15.0,5.0,0.0
2163,62.0,12.0,15.0,6.0,0.0
2164,57.0,0.0,20.0,3.0,0.0
2165,45.0,1.0,20.0,4.0,0.0
2166,78.0,0.0,15.0,5.0,0.0
2167,57.0,11.0,15.0,6.0,0.0
2168,83.0,0.0,15.0,5.0,0.0
2169,62.0,12.0,15.0,6.0,0.0
2170,83.0,0.0,20.0,0.0,0.0
2171,80.0,0.0,20.0,1.0,0.0
2172,74.0,10.0,20.0,2.0,0.0
2173,56.0,0.0,20.0,3.0,0.0
2174,44.0,1.0,20.0,4.0,0.0
2175,77.0,0.0,15.0,5.0,0.0
2176,56.0,11.0,15.0,6.0,0.0
2177,78.0,0.0,15.0,5.0,0.0
2178,54.0,2.0,15.0,6.0,0.0
2179,57.0,0.0,20.0,3.0,0.0
2180,45.0,1.0,20.0,4.0,0.0
2181,80.0,0.0,15.0,5.0,0.0
2182,53.0,11.0,15.0,6.0,0.0
2183,78.0,0.0,15.0,5.0,0.0
2184,54.0,12.0,15.0,6.0,0.0
2185,56.0,0.0,20.0,3.0,0.0
2186,44.0,1.0,20.0,4.0,0.0
2187,77.0,0.0,15.0,5.0,0.0
2188,56.0,11.0,15.0,6.0,0.0
2189,80.0,0.0,15.0,5.0,0.0
2190,57.0,12.0,15.0,6.0,0.0
2191,54.0,0.0,20.0,3.0,0.0
2192,42.0,1.0,20.0,4.0,0.0
2193,74.0,0.0,15.0,5.0,0.0
2194,59.0,11.0,15.0,6.0,0.0
2195,80.0,0.0,15.0,5.0,0.0
2196,61.0,12.0,15.0,6.0,0.0
2197,86.0,0.0,20.0,0.0,0.0
2198,83.0,0.0,20.0,1.0,0.0
2199,68.0,10.0,20.0,2.0,0.0
2200,53.0,0.0,20.0,3.0,0.0
2201,41.0,1.0,20.0,4.0,0.0
2202,71.0,0.0,15.0,5.0,0.0
2203,62.0,11.0,15.0,6.0,0.0
2204,73.0,0.0,15.0,5.0,0.0
2205,61.0,2.0,15.0,6.0,0.0
2206,54.0,0.0,20.0,3.0,0.0
2207,42.0,1.0,20.0,4.0,0.0
2208,74.0,0.0,15.0,5.0,0.0
2209,59.0,11.0,15.0,6.0,0.0
2210,73.0,0.0,15.0,5.0,0.0
2211,61.0,12.0,15.0,6.0,0.0
2212,56.0,0.0,20.0,3.0,0.0
2213,44.0,1.0,20.0,4.0,0.0
2214,71.0,0.0,15.0,5.0,0.0
2215,62.0,11.0,15.0,6.0,0.0
2216,74.0,0.0,15.0,5.0,0.0
2217,65.0,12.0,15.0,6.0,0.0
2218,57.0,0.0,20.0,3.0,0.0
2219,45.0,1.0,20.0,4.0,0.0
2220,69.0,0.0,15.0,5.0,0.0
2221,61.0,11.0,15.0,6.0,0.0
2222,74.0,0.0,15.0,5.0,0.0
2223,65.0,12.0,15.0,6.0,0.0
2224,71.0,0.0,20.0,0.0,0.0
2225,68.0,0.0,20.0,1.0,0.0
2226,74.0,10.0,20.0,2.0,0.0
2227,59.0,0.0,20.0,3.0,0.0
2228,47.0,1.0,20.0,4.0,0.0
2229,68.0,0.0,15.0,5.0,0.0
2230,59.0,11.0,15.0,6.0,0.0
2231,69.0,0.0,15.0,5.0,0.0
2232,57.0,2.0,15.0,6.0,0.0
2233,61.0,0.0,20.0,3.0,0.0
2234,49.0,1.0,20.0,4.0,0.0
2235,71.0,0.0,15.0,5.0,0.0
2236,56.0,11.0,15.0,6.0,0.0
2237,69.0,0.0,15.0,5.0,0.0
2238,57.0,12.0,15.0,6.0,0.0
2239,62.0,0.0,20.0,3.0,0.0
2240,50.0,1.0,20.0,4.0,0.0
2241,68.0,0.0,15.0,5.0,0.0
2242,59.0,11.0,15.0,6.0,0.0
2243,71.0,0.0,15.0,5.0,0.0
2244,62.0,12.0,15.0,6.0,0.0
2245,56.0,0.0,20.0,3.0,0.0
2246,44.0,1.0,20.0,4.0,0.0
2247,66.0,0.0,15.0,5.0,0.0
2248,59.0,11.0,15.0,6.0,0.0
2249,71.0,0.0,15.0,5.0,0.0
2250,56.0,12.0,15.0,6.0,0.0
2251,71.0,0.0,90.0,0.0,0.0
2252,68.0,10.0,90.0,1.0,0.0
2253,65.0,9.0,120.0,2.0,0.0
2254,61.0,0.0,20.0,3.0,0.0
2255,49.0,0.0,20.0,4.0,0.0
2256,65.0,11.0,15.0,5.0,0.0
2257,61.0,1.0,20.0,6.0,0.0
2258,71.0,12.0,15.0,5.0,0.0
2259,59.0,0.0,15.0,3.0,0.0
2260,47.0,0.0,15.0,4.0,0.0
2261,61.0,0.0,15.0,5.0,0.0
2262,59.0,12.0,15.0,6.0,0.0
2263,57.0,0.0,15.0,3.0,0.0
2264,45.0,0.0,15.0,4.0,0.0
2265,63.0,0.0,15.0,5.0,0.0
2266,57.0,12.0,15.0,6.0,0.0
2267,56.0,0.0,20.0,3.0,0.0
2268,44.0,1.0,20.0,4.0,0.0
2269,65.0,0.0,15.0,5.0,0.0
2270,56.0,11.0,15.0,6.0,0.0
2271,66.0,0.0,15.0,5.0,0.0
2272,57.0,12.0,15.0,6.0,0.0
2273,54.0,0.0,20.0,3.0,0.0
2274,42.0,1.0,20.0,4.0,0.0
2275,68.0,0.0,15.0,5.0,0.0
2276,59.0,11.0,15.0,6.0,0.0
2277,69.0,0.0,15.0,5.0,0.0
2278,57.0,2.0,15.0,6.0,0.0
2279,53.0,0.0,20.0,3.0,0.0
2280,41.0,1.0,20.0,4.0,0.0
2281,71.0,0.0,15.0,5.0,0.0
2282,56.0,2.0,15.0,6.0,0.0
2283,73.0,0.0,15.0,0.0,0.0
2284,69.0,0.0,15.0,1.0,0.0
2285,73.0,0.0,15.0,5.0,0.0
2286,54.0,12.0,15.0,6.0,0.0
2287,75.0,0.0,15.0,0.0,0.0
2288,71.0,0.0,15.0,1.0,0.0
2289,66.0,3.0,40.0,2.0,0.0
2290,51.0,0.0,20.0,3.0,0.0
2291,39.0,1.0,20.0,4.0,0.0
2292,75.0,0.0,15.0,5.0,0.0
2293,53.0,11.0,15.0,6.0,0.0
2294,77.0,0.0,15.0,0.0,0.0
2295,73.0,0.0,15.0,1.0,0.0
2296,77.0,0.0,15.0,5.0,0.0
2297,51.0,12.0,15.0,6.0,0.0
2298,78.0,0.0,15.0,0.0,0.0
2299,75.0,0.0,15.0,1.0,0.0
2300,49.0,0.0,20.0,3.0,0.0
2301,37.0,1.0,20.0,4.0,0.0
2302,78.0,0.0,15.0,5.0,0.0
2303,49.0,8.0,15.0,6.0,0.0
2304,80.0,0.0,15.0,0.0,0.0
2305,77.0,0.0,15.0,1.0,0.0
2306,80.0,0.0,15.0,5.0,0.0
2307,47.0,12.0,15.0,6.0,0.0
2308,81.0,0.0,15.0,0.0,0.0
2309,78.0,0.0,15.0,1.0,0.0
2310,74.0,0.0,20.0,2.0,0.0
2311,47.0,0.0,20.0,3.0,0.0
2312,35.0,1.0,20.0,4.0,0.0
2313,81.0,0.0,15.0,5.0,0.0
2314,45.0,11.0,15.0,6.0,0.0
2315,83.0,0.0,15.0,0.0,0.0
2316,80.0,0.0,15.0,1.0,0.0
2317,83.0,0.0,15.0,5.0,0.0
2318,44.0,23.0,15.0,6.0,0.0
2319,85.0,0.0,20.0,0.0,0.0
2320,81.0,0.0,20.0,1.0,0.0
2321,73.0,0.0,20.0,2.0,0.0
2322,45.0,0.0,20.0,3.0,0.0
2323,33.0,0.0,20.0,4.0,0.0
2324,85.0,0.0,20.0,5.0,0.0
2325,42.0,24.0,20.0,6.0,0.0
2326,78.0,0.0,20.0,0.0,0.0
2327,69.0,0.0,20.0,1.0,0.0
2328,74.0,0.0,20.0,2.0,0.0
2329,50.0,0.0,20.0,3.0,0.0
2330,38.0,0.0,20.0,4.0,0.0
2331,78.0,0.0,20.0,5.0,0.0
2332,50.0,24.0,20.0,6.0,0.0
2333,80.0,0.0,20.0,0.0,0.0
2334,71.0,0.0,20.0,1.0,0.0
2335,74.0,0.0,20.0,2.0,0.0
2336,47.0,0.0,20.0,3.0,0.0
2337,35.0,0.0,20.0,4.0,0.0
2338,80.0,0.0,20.0,5.0,0.0
2339,47.0,24.0,20.0,6.0,0.0
2340,77.0,0.0,20.0,0.0,0.0
2341,68.0,0.0,20.0,1.0,0.0
2342,73.0,0.0,20.0,2.0,0.0
2343,49.0,0.0,20.0,3.0,0.0
2344,37.0,0.0,20.0,4.0,0.0
2345,77.0,0.0,20.0,5.0,0.0
2346,49.0,13.0,20.0,6.0,0.0
2347,78.0,0.0,15.0,0.0,0.0
2348,66.0,1.0,20.0,1.0,0.0
2349,73.0,10.0,20.0,2.0,0.0
2350,50.0,0.0,40.0,3.0,0.0
2351,38.0,3.0,40.0,4.0,0.0
2352,78.0,0.0,15.0,5.0,0.0
2353,50.0,11.0,15.0,6.0,0.0
2354,76.0,0.0,15.0,0.0,0.0
2355,76.0,0.0,15.0,5.0,0.0
2356,54.0,2.0,15.0,6.0,0.0
2357,74.0,0.0,15.0,0.0,0.0
2358,78.0,0.0,15.0,1.0,0.0
2359,71.0,1.0,20.0,2.0,0.0
2360,74.0,0.0,15.0,5.0,0.0
2361,56.0,8.0,15.0,6.0,0.0
2362,73.0,0.0,15.0,0.0,0.0
2363,76.0,0.0,15.0,1.0,0.0
2364,73.0,0.0,15.0,5.0,0.0
2365,58.0,12.0,15.0,6.0,0.0
2366,71.0,0.0,20.0,0.0,0.0
2367,74.0,0.0,15.0,1.0,0.0
2368,71.0,1.0,20.0,5.0,0.0
2369,59.0,11.0,15.0,6.0,0.0
2370,73.0,0.0,15.0,1.0,0.0
2371,61.0,12.0,15.0,6.0,0.0
2372,71.0,0.0,20.0,0.0,0.0
2373,71.0,0.0,15.0,1.0,0.0
2374,66.0,0.0,20.0,2.0,0.0
2375,62.0,0.0,20.0,3.0,0.0
2376,50.0,0.0,20.0,4.0,0.0
2377,71.0,1.0,20.0,5.0,0.0
2378,62.0,11.0,15.0,6.0,0.0
2379,69.0,0.0,15.0,1.0,0.0
2380,59.0,12.0,15.0,6.0,0.0
2381,71.0,0.0,15.0,0.0,0.0
2382,68.0,0.0,15.0,1.0,0.0
2383,68.0,1.0,20.0,2.0,0.0
2384,53.0,0.0,20.0,3.0,0.0
2385,41.0,0.0,20.0,4.0,0.0
2386,71.0,11.0,15.0,5.0,0.0
2387,53.0,10.0,20.0,6.0,0.0
2388,73.0,0.0,15.0,0.0,0.0
2389,66.0,0.0,15.0,1.0,0.0
2390,73.0,2.0,15.0,5.0,0.0
2391,74.0,0.0,30.0,0.0,0.0
2392,65.0,11.0,15.0,1.0,0.0
2393,71.0,1.0,20.0,2.0,0.0
2394,53.0,0.0,20.0,3.0,0.0
2395,41.0,0.0,20.0,4.0,0.0
2396,74.0,3.0,30.0,5.0,0.0
2397,53.0,7.0,20.0,6.0,0.0
2398,66.0,2.0,15.0,1.0,0.0
2399,68.0,11.0,15.0,1.0,0.0
2400,53.0,0.0,20.0,3.0,0.0
2401,41.0,0.0,20.0,4.0,0.0
2402,53.0,1.0,20.0,6.0,0.0
2403,73.0,0.0,15.0,0.0,0.0
2404,69.0,0.0,15.0,1.0,0.0
2405,73.0,12.0,15.0,5.0,0.0
2406,71.0,0.0,15.0,0.0,0.0
2407,71.0,0.0,15.0,1.0,0.0
2408,68.0,0.0,20.0,2.0,0.0
2409,56.0,0.0,20.0,3.0,0.0
2410,44.0,0.0,20.0,4.0,0.0
2411,71.0,11.0,15.0,5.0,0.0
2412,56.0,1.0,20.0,6.0,0.0
2413,69.0,0.0,15.0,0.0,0.0
2414,73.0,0.0,15.0,1.0,0.0
2415,69.0,12.0,15.0,5.0,0.0
2416,68.0,0.0,15.0,0.0,0.0
2417,74.0,0.0,15.0,1.0,0.0
2418,65.0,1.0,20.0,2.0,0.0
2419,47.0,0.0,20.0,3.0,0.0
2420,35.0,0.0,20.0,4.0,0.0
2421,68.0,11.0,15.0,5.0,0.0
2422,47.0,10.0,20.0,6.0,0.0
2423,69.0,0.0,15.0,0.0,0.0
2424,73.0,0.0,15.0,1.0,0.0
2425,69.0,2.0,15.0,5.0,0.0
2426,71.0,0.0,30.0,0.0,0.0
2427,71.0,11.0,15.0,1.0,0.0
2428,68.0,1.0,20.0,2.0,0.0
2429,47.0,0.0,20.0,3.0,0.0
2430,35.0,0.0,20.0,4.0,0.0
2431,71.0,3.0,30.0,5.0,0.0
2432,47.0,7.0,20.0,6.0,0.0
2433,69.0,2.0,15.0,1.0,0.0
2434,68.0,11.0,15.0,1.0,0.0
2435,47.0,0.0,20.0,3.0,0.0
2436,35.0,0.0,20.0,4.0,0.0
2437,47.0,1.0,20.0,6.0,0.0
2438,69.0,0.0,15.0,0.0,0.0
2439,66.0,0.0,15.0,1.0,0.0
2440,69.0,12.0,15.0,5.0,0.0
2441,68.0,0.0,15.0,0.0,0.0
2442,65.0,0.0,15.0,1.0,0.0
2443,71.0,0.0,20.0,2.0,0.0
2444,50.0,0.0,20.0,3.0,0.0
2445,38.0,0.0,20.0,4.0,0.0
2446,68.0,11.0,15.0,5.0,0.0
2447,50.0,1.0,20.0,6.0,0.0
2448,66.0,0.0,15.0,0.0,0.0
2449,66.0,0.0,15.0,1.0,0.0
2450,66.0,23.0,15.0,5.0,0.0
2451,65.0,0.0,20.0,0.0,0.0
2452,71.0,0.0,20.0,1.0,0.0
2453,59.0,0.0,20.0,2.0,0.0
2454,44.0,0.0,20.0,3.0,0.0
2455,32.0,0.0,20.0,4.0,0.0
2456,65.0,0.0,20.0,5.0,0.0
2457,44.0,13.0,20.0,6.0,0.0
2458,73.0,0.0,20.0,0.0,0.0
2459,66.0,0.0,20.0,1.0,0.0
2460,61.0,0.0,20.0,2.0,0.0
2461,45.0,0.0,15.0,3.0,0.0
2462,33.0,0.0,15.0,4.0,0.0
2463,73.0,0.0,20.0,5.0,0.0
2464,69.0,0.0,20.0,5.0,0.0
2465,66.0,1.0,20.0,5.0,0.0
2466,45.0,11.0,15.0,6.0,0.0
2467,47.0,0.0,15.0,3.0,0.0
2468,35.0,0.0,15.0,4.0,0.0
2469,47.0,8.0,15.0,6.0,0.0
2470,69.0,0.0,20.0,0.0,0.0
2471,66.0,0.0,20.0,1.0,0.0
2472,61.0,0.0,20.0,2.0,0.0
2473,49.0,0.0,20.0,3.0,0.0
2474,37.0,0.0,20.0,4.0,0.0
2475,71.0,6.0,15.0,5.0,0.0
2476,66.0,0.0,20.0,5.0,0.0
2477,49.0,2.0,20.0,6.0,0.0
2478,69.0,6.0,15.0,5.0,0.0
2479,71.0,3.0,15.0,5.0,0.0
2480,69.0,11.0,15.0,5.0,0.0
2481,68.0,0.0,15.0,0.0,0.0
2482,65.0,0.0,20.0,1.0,0.0
2483,61.0,0.0,20.0,2.0,0.0
2484,49.0,0.0,20.0,3.0,0.0
2485,37.0,0.0,20.0,4.0,0.0
2486,68.0,11.0,15.0,5.0,0.0
2487,65.0,0.0,20.0,5.0,0.0
2488,49.0,1.0,20.0,6.0,0.0
2489,66.0,0.0,15.0,0.0,0.0
2490,66.0,23.0,15.0,5.0,0.0
2491,66.0,0.0,40.0,0.0,0.0
2492,61.0,0.0,40.0,1.0,0.0
2493,57.0,0.0,40.0,2.0,0.0
2494,42.0,0.0,20.0,3.0,0.0
2495,30.0,0.0,20.0,4.0,0.0
2496,66.0,4.0,40.0,5.0,0.0
2497,42.0,13.0,20.0,6.0,0.0
2498,54.0,0.0,15.0,3.0,0.0
2499,42.0,0.0,15.0,4.0,0.0
2500,54.0,8.0,15.0,6.0,0.0
2501,53.0,0.0,15.0,3.0,0.0
2502,41.0,0.0,15.0,4.0,0.0
2503,53.0,12.0,15.0,6.0,0.0
2504,54.0,0.0,20.0,3.0,0.0
2505,42.0,1.0,20.0,4.0,0.0
2506,54.0,11.0,15.0,6.0,0.0
2507,73.0,0.0,15.0,5.0,0.0
2508,57.0,12.0,15.0,6.0,0.0
2509,56.0,0.0,20.0,3.0,0.0
2510,44.0,1.0,20.0,4.0,0.0
2511,71.0,0.0,15.0,5.0,0.0
2512,56.0,11.0,15.0,6.0,0.0
2513,73.0,0.0,15.0,5.0,0.0
2514,59.0,12.0,15.0,6.0,0.0
2515,57.0,0.0,40.0,3.0,0.0
2516,45.0,3.0,40.0,4.0,0.0
2517,78.0,0.0,15.0,5.0,0.0
2518,57.0,12.0,15.0,6.0,0.0
2519,77.0,0.0,15.0,5.0,0.0
2520,56.0,12.0,15.0,6.0,0.0
2521,73.0,0.0,20.0,0.0,0.0
2522,69.0,0.0,20.0,1.0,0.0
2523,66.0,1.0,20.0,2.0,0.0
2524,78.0,14.0,30.0,5.0,0.0
2525,57.0,8.0,15.0,6.0,0.0
2526,56.0,9.0,15.0,6.0,0.0
2527,78.0,0.0,20.0,0.0,0.0
2528,73.0,0.0,20.0,1.0,0.0
2529,69.0,0.0,20.0,2.0,0.0
2530,57.0,1.0,20.0,6.0,0.0
2531,73.0,12.0,15.0,5.0,0.0
2532,54.0,0.0,20.0,3.0,0.0
2533,42.0,0.0,20.0,4.0,0.0
2534,71.0,11.0,15.0,5.0,0.0
2535,54.0,1.0,20.0,6.0,0.0
2536,73.0,12.0,15.0,5.0,0.0
2537,61.0,0.0,40.0,3.0,0.0
2538,49.0,4.0,40.0,4.0,0.0
2539,81.0,1.0,20.0,5.0,0.0
2540,49.0,11.0,15.0,6.0,0.0
2541,61.0,12.0,15.0,6.0,0.0
2542,77.0,0.0,15.0,0.0,0.0
2543,73.0,0.0,15.0,1.0,0.0
2544,68.0,0.0,15.0,2.0,0.0
2545,80.0,3.0,30.0,5.0,0.0
2546,59.0,8.0,15.0,6.0,0.0
2547,78.0,0.0,15.0,0.0,0.0
2548,75.0,0.0,15.0,1.0,0.0
2549,69.0,0.0,15.0,2.0,0.0
2550,57.0,9.0,15.0,6.0,0.0
2551,80.0,0.0,20.0,0.0,0.0
2552,77.0,0.0,20.0,1.0,0.0
2553,71.0,1.0,20.0,2.0,0.0
2554,56.0,11.0,15.0,6.0,0.0
2555,73.0,0.0,15.0,5.0,0.0
2556,57.0,12.0,15.0,6.0,0.0
2557,61.0,0.0,20.0,3.0,0.0
2558,49.0,1.0,20.0,4.0,0.0
2559,71.0,0.0,15.0,5.0,0.0
2560,56.0,11.0,15.0,6.0,0.0
2561,73.0,0.0,15.0,5.0,0.0
2562,54.0,12.0,15.0,6.0,0.0
2563,53.0,0.0,40.0,3.0,0.0
2564,41.0,3.0,40.0,4.0,0.0
2565,80.0,0.0,15.0,5.0,0.0
2566,53.0,12.0,15.0,6.0,0.0
2567,78.0,0.0,15.0,5.0,0.0
2568,54.0,12.0,15.0,6.0,0.0
2569,73.0,0.0,20.0,0.0,0.0
2570,65.0,0.0,20.0,1.0,0.0
2571,68.0,1.0,20.0,2.0,0.0
2572,80.0,3.0,30.0,5.0,0.0
2573,53.0,8.0,15.0,6.0,0.0
2574,51.0,9.0,15.0,6.0,0.0
2575,80.0,0.0,20.0,0.0,0.0
2576,71.0,0.0,20.0,1.0,0.0
2577,65.0,1.0,20.0,2.0,0.0
2578,49.0,11.0,15.0,6.0,0.0
2579,73.0,0.0,15.0,5.0,0.0
2580,53.0,12.0,15.0,6.0,0.0
2581,49.0,0.0,20.0,3.0,0.0
2582,37.0,1.0,20.0,4.0,0.0
2583,71.0,0.0,15.0,5.0,0.0
2584,51.0,11.0,15.0,6.0,0.0
2585,73.0,0.0,15.0,5.0,0.0
2586,49.0,12.0,15.0,6.0,0.0
2587,54.0,0.0,40.0,3.0,0.0
2588,42.0,3.0,40.0,4.0,0.0
2589,83.0,1.0,20.0,5.0,0.0
2590,54.0,11.0,15.0,6.0,0.0
2591,53.0,12.0,15.0,6.0,0.0
2592,78.0,0.0,15.0,0.0,0.0
2593,73.0,1.0,20.0,1.0,0.0
2594,69.0,0.0,15.0,2.0,0.0
2595,81.0,14.0,30.0,5.0,0.0
2596,54.0,8.0,15.0,6.0,0.0
2597,80.0,0.0,15.0,0.0,0.0
2598,71.0,0.0,15.0,2.0,0.0
2599,49.0,9.0,15.0,6.0,0.0
2600,81.0,0.0,20.0,0.0,0.0
2601,78.0,0.0,20.0,1.0,0.0
2602,73.0,0.0,20.0,2.0,0.0
2603,42.0,3.0,20.0,6.0,0.0
2604,78.0,12.0,15.0,5.0,0.0
2605,78.0,0.0,20.0,0.0,0.0
2606,69.0,0.0,20.0,1.0,0.0
2607,66.0,1.0,20.0,2.0,0.0
2608,77.0,9.0,15.0,5.0,0.0
2609,78.0,12.0,15.0,5.0,0.0
2610,80.0,0.0,40.0,0.0,0.0
2611,71.0,0.0,40.0,1.0,0.0
2612,66.0,10.0,40.0,2.0,0.0
2613,80.0,12.0,15.0,5.0,0.0
2614,78.0,10.0,15.0,5.0,0.0
2615,62.0,2.0,15.0,6.0,0.0
2616,77.0,10.0,15.0,5.0,0.0
2617,61.0,2.0,15.0,6.0,0.0
2618,78.0,0.0,15.0,5.0,0.0
2619,62.0,2.0,15.0,6.0,0.0
2620,82.0,0.0,40.0,0.0,0.0
2621,73.0,0.0,40.0,1.0,0.0
2622,64.0,10.0,40.0,2.0,0.0
2623,82.0,0.0,15.0,5.0,0.0
2624,64.0,12.0,15.0,6.0,0.0
2625,78.0,0.0,15.0,5.0,0.0
2626,62.0,12.0,15.0,6.0,0.0
2627,77.0,0.0,15.0,5.0,0.0
2628,61.0,12.0,15.0,6.0,0.0
2629,78.0,0.0,15.0,5.0,0.0
2630,62.0,2.0,15.0,6.0,0.0
2631,83.0,0.0,40.0,0.0,0.0
2632,74.0,0.0,40.0,1.0,0.0
2633,62.0,10.0,40.0,2.0,0.0
2634,83.0,0.0,15.0,5.0,0.0
2635,54.0,12.0,15.0,6.0,0.0
2636,78.0,10.0,15.0,5.0,0.0
2637,62.0,2.0,15.0,6.0,0.0
2638,54.0,0.0,20.0,3.0,0.0
2639,42.0,1.0,20.0,4.0,0.0
2640,77.0,9.0,15.0,5.0,0.0
2641,61.0,2.0,15.0,6.0,0.0
2642,78.0,0.0,15.0,5.0,0.0
2643,62.0,2.0,15.0,6.0,0.0
2644,85.0,0.0,40.0,0.0,0.0
2645,70.0,0.0,40.0,1.0,0.0
2646,61.0,10.0,40.0,2.0,0.0
2647,42.0,0.0,20.0,3.0,0.0
2648,30.0,1.0,20.0,4.0,0.0
2649,85.0,0.0,15.0,5.0,0.0
2650,64.0,11.0,15.0,6.0,0.0
2651,78.0,0.0,15.0,5.0,0.0
2652,62.0,12.0,15.0,6.0,0.0
2653,54.0,0.0,20.0,3.0,0.0
2654,42.0,1.0,20.0,4.0,0.0
2655,77.0,0.0,15.0,5.0,0.0
2656,61.0,11.0,15.0,6.0,0.0
2657,78.0,0.0,15.0,5.0,0.0
2658,62.0,2.0,15.0,6.0,0.0
2659,86.0,1.0,20.0,0.0,0.0
2660,71.0,0.0,40.0,1.0,0.0
2661,59.0,0.0,40.0,2.0,0.0
2662,47.0,0.0,40.0,3.0,0.0
2663,35.0,3.0,40.0,4.0,0.0
2664,86.0,0.0,15.0,5.0,0.0
2665,59.0,11.0,15.0,6.0,0.0
2666,83.0,0.0,15.0,5.0,0.0
2667,62.0,12.0,15.0,6.0,0.0
2668,78.0,1.0,20.0,0.0,0.0
2669,82.0,0.0,15.0,5.0,0.0
2670,67.0,8.0,15.0,6.0,0.0
2671,83.0,0.0,15.0,5.0,0.0
2672,71.0,12.0,15.0,6.0,0.0
2673,75.0,0.0,40.0,0.0,0.0
2674,69.0,0.0,40.0,1.0,0.0
2675,59.0,10.0,40.0,2.0,0.0
2676,75.0,0.0,15.0,5.0,0.0
2677,69.0,12.0,15.0,6.0,0.0
2678,83.0,0.0,15.0,5.0,0.0
2679,67.0,12.0,15.0,6.0,0.0
2680,82.0,0.0,15.0,5.0,0.0
2681,66.0,12.0,15.0,6.0,0.0
2682,83.0,0.0,15.0,5.0,0.0
2683,67.0,2.0,15.0,6.0,0.0
2684,76.0,0.0,40.0,0.0,0.0
2685,67.0,0.0,40.0,1.0,0.0
2686,61.0,10.0,40.0,2.0,0.0
2687,76.0,0.0,15.0,5.0,0.0
2688,59.0,12.0,15.0,6.0,0.0
2689,83.0,0.0,15.0,5.0,0.0
2690,67.0,12.0,15.0,6.0,0.0
2691,59.0,0.0,20.0,3.0,0.0
2692,47.0,1.0,20.0,4.0,0.0
2693,82.0,0.0,15.0,5.0,0.0
2694,66.0,11.0,15.0,6.0,0.0
2695,83.0,0.0,15.0,5.0,0.0
2696,67.0,2.0,15.0,6.0,0.0
2697,78.0,0.0,40.0,0.0,0.0
2698,66.0,0.0,40.0,1.0,0.0
2699,63.0,10.0,40.0,2.0,0.0
2700,47.0,0.0,20.0,3.0,0.0
2701,35.0,1.0,20.0,4.0,0.0
2702,78.0,0.0,15.0,5.0,0.0
2703,69.0,11.0,15.0,6.0,0.0
2704,83.0,0.0,15.0,5.0,0.0
2705,67.0,12.0,15.0,6.0,0.0
2706,59.0,0.0,20.0,3.0,0.0
2707,47.0,1.0,20.0,4.0,0.0
2708,82.0,0.0,15.0,5.0,0.0
2709,66.0,11.0,15.0,6.0,0.0
2710,83.0,0.0,15.0,5.0,0.0
2711,67.0,2.0,15.0,6.0,0.0
2712,79.0,1.0,20.0,0.0,0.0
2713,64.0,0.0,40.0,1.0,0.0
2714,64.0,0.0,40.0,2.0,0.0
2715,52.0,0.0,40.0,3.0,0.0
2716,40.0,3.0,40.0,4.0,0.0
2717,79.0,0.0,15.0,5.0,0.0
2718,64.0,11.0,15.0,6.0,0.0
2719,76.0,0.0,15.0,5.0,0.0
2720,67.0,12.0,15.0,6.0,0.0
2721,71.0,1.0,20.0,0.0,0.0
2722,75.0,0.0,15.0,5.0,0.0
2723,66.0,8.0,15.0,6.0,0.0
2724,76.0,0.0,15.0,5.0,0.0
2725,64.0,12.0,15.0,6.0,0.0
2726,68.0,0.0,40.0,0.0,0.0
2727,59.0,0.0,40.0,1.0,0.0
2728,62.0,10.0,40.0,2.0,0.0
2729,68.0,0.0,15.0,5.0,0.0
2730,62.0,12.0,15.0,6.0,0.0
2731,76.0,0.0,15.0,5.0,0.0
2732,61.0,12.0,15.0,6.0,0.0
2733,75.0,0.0,15.0,5.0,0.0
2734,59.0,12.0,15.0,6.0,0.0
2735,76.0,0.0,15.0,5.0,0.0
2736,61.0,2.0,15.0,6.0,0.0
2737,69.0,0.0,40.0,0.0,0.0
2738,64.0,0.0,40.0,1.0,0.0
2739,61.0,10.0,40.0,2.0,0.0
2740,69.0,0.0,15.0,5.0,0.0
2741,52.0,12.0,15.0,6.0,0.0
2742,76.0,0.0,15.0,5.0,0.0
2743,61.0,12.0,15.0,6.0,0.0
2744,52.0,0.0,20.0,3.0,0.0
2745,40.0,1.0,20.0,4.0,0.0
2746,75.0,0.0,15.0,5.0,0.0
2747,59.0,11.0,15.0,6.0,0.0
2748,76.0,0.0,15.0,5.0,0.0
2749,61.0,2.0,15.0,6.0,0.0
2750,71.0,0.0,40.0,0.0,0.0
2751,68.0,0.0,40.0,1.0,0.0
2752,59.0,10.0,40.0,2.0,0.0
2753,40.0,0.0,20.0,3.0,0.0
2754,28.0,1.0,20.0,4.0,0.0
2755,71.0,0.0,15.0,5.0,0.0
2756,62.0,11.0,15.0,6.0,0.0
2757,76.0,0.0,15.0,5.0,0.0
2758,61.0,12.0,15.0,6.0,0.0
2759,52.0,0.0,20.0,3.0,0.0
2760,40.0,1.0,20.0,4.0,0.0
2761,75.0,0.0,15.0,5.0,0.0
2762,59.0,11.0,15.0,6.0,0.0
2763,76.0,0.0,15.0,5.0,0.0
2764,61.0,2.0,15.0,6.0,0.0
2765,73.0,0.0,40.0,0.0,0.0
2766,69.0,0.0,40.0,1.0,0.0
2767,57.0,0.0,40.0,2.0,0.0
2768,45.0,0.0,40.0,3.0,0.0
2769,33.0,4.0,40.0,4.0,0.0
2770,73.0,0.0,15.0,5.0,0.0
2771,57.0,12.0,15.0,6.0,0.0
2772,69.0,0.0,15.0,5.0,0.0
2773,61.0,12.0,15.0,6.0,0.0
2774,68.0,0.0,15.0,5.0,0.0
2775,64.0,8.0,15.0,6.0,0.0
2776,69.0,0.0,15.0,5.0,0.0
2777,66.0,12.0,15.0,6.0,0.0
2778,73.0,0.0,40.0,0.0,0.0
2779,67.0,0.0,40.0,1.0,0.0
2780,57.0,10.0,40.0,2.0,0.0
2781,73.0,0.0,15.0,5.0,0.0
2782,67.0,12.0,15.0,6.0,0.0
2783,69.0,0.0,15.0,5.0,0.0
2784,66.0,12.0,15.0,6.0,0.0
2785,68.0,0.0,15.0,5.0,0.0
2786,64.0,12.0,15.0,6.0,0.0
2787,69.0,0.0,15.0,5.0,0.0
2788,66.0,2.0,15.0,6.0,0.0
2789,74.0,0.0,40.0,0.0,0.0
2790,66.0,0.0,40.0,1.0,0.0
2791,59.0,10.0,40.0,2.0,0.0
2792,74.0,0.0,15.0,5.0,0.0
2793,57.0,12.0,15.0,6.0,0.0
2794,69.0,0.0,15.0,5.0,0.0
2795,66.0,12.0,15.0,6.0,0.0
2796,57.0,0.0,20.0,3.0,0.0
2797,45.0,1.0,20.0,4.0,0.0
2798,68.0,0.0,15.0,5.0,0.0
2799,64.0,11.0,15.0,6.0,0.0
2800,69.0,0.0,15.0,5.0,0.0
2801,66.0,2.0,15.0,6.0,0.0
2802,76.0,0.0,40.0,0.0,0.0
2803,64.0,0.0,40.0,1.0,0.0
2804,61.0,10.0,40.0,2.0,0.0
2805,45.0,0.0,20.0,3.0,0.0
2806,33.0,1.0,20.0,4.0,0.0
2807,76.0,0.0,15.0,5.0,0.0
2808,67.0,11.0,15.0,6.0,0.0
2809,69.0,0.0,15.0,5.0,0.0
2810,66.0,12.0,15.0,6.0,0.0
2811,57.0,0.0,20.0,3.0,0.0
2812,45.0,1.0,20.0,4.0,0.0
2813,68.0,0.0,15.0,5.0,0.0
2814,64.0,11.0,15.0,6.0,0.0
2815,69.0,0.0,15.0,5.0,0.0
2816,66.0,2.0,15.0,6.0,0.0
2817,78.0,0.0,40.0,0.0,0.0
2818,62.0,0.0,40.0,1.0,0.0
2819,62.0,10.0,120.0,2.0,0.0
2820,50.0,0.0,40.0,3.0,0.0
2821,38.0,4.0,40.0,4.0,0.0
2822,78.0,0.0,15.0,5.0,0.0
2823,62.0,12.0,15.0,6.0,0.0
2824,74.0,0.0,15.0,5.0,0.0
2825,66.0,12.0,15.0,6.0,0.0
2826,73.0,0.0,15.0,5.0,0.0
2827,64.0,8.0,15.0,6.0,0.0
2828,74.0,0.0,15.0,5.0,0.0
2829,62.0,12.0,15.0,6.0,0.0
2830,78.0,0.0,40.0,0.0,0.0
2831,69.0,0.0,40.0,1.0,0.0
2832,60.0,0.0,40.0,3.0,0.0
2833,48.0,10.0,40.0,4.0,0.0
2834,78.0,0.0,15.0,5.0,0.0
2835,60.0,12.0,15.0,6.0,0.0
2836,74.0,0.0,15.0,5.0,0.0
2837,59.0,12.0,15.0,6.0,0.0
2838,73.0,0.0,15.0,5.0,0.0
2839,57.0,12.0,15.0,6.0,0.0
2840,74.0,0.0,15.0,5.0,0.0
2841,59.0,2.0,15.0,6.0,0.0
2842,79.0,0.0,40.0,0.0,0.0
2843,74.0,0.0,40.0,1.0,0.0
2844,59.0,0.0,40.0,3.0,0.0
2845,47.0,10.0,40.0,4.0,0.0
2846,79.0,0.0,15.0,5.0,0.0
2847,50.0,12.0,15.0,6.0,0.0
2848,74.0,0.0,15.0,5.0,0.0
2849,59.0,12.0,15.0,6.0,0.0
2850,73.0,0.0,15.0,5.0,0.0
2851,57.0,2.0,15.0,6.0,0.0
2852,74.0,0.0,15.0,5.0,0.0
2853,59.0,2.0,15.0,6.0,0.0
2854,81.0,0.0,40.0,0.0,0.0
2855,78.0,0.0,40.0,1.0,0.0
2856,60.0,4.0,40.0,2.0,0.0
2857,57.0,0.0,40.0,3.0,0.0
2858,45.0,10.0,40.0,4.0,0.0
2859,81.0,0.0,15.0,5.0,0.0
2860,60.0,12.0,15.0,6.0,0.0
2861,74.0,0.0,15.0,5.0,0.0
2862,59.0,12.0,15.0,6.0,0.0
2863,73.0,0.0,15.0,5.0,0.0
2864,57.0,8.0,15.0,6.0,0.0
2865,74.0,0.0,15.0,5.0,0.0
2866,59.0,2.0,15.0,6.0,0.0
2867,83.0,0.0,40.0,0.0,0.0
2868,79.0,0.0,40.0,1.0,0.0
2869,62.0,3.0,40.0,2.0,0.0
2870,55.0,0.0,20.0,3.0,0.0
2871,43.0,1.0,20.0,4.0,0.0
2872,83.0,0.0,15.0,5.0,0.0
2873,55.0,11.0,15.0,6.0,0.0
2874,84.0,0.0,15.0,5.0,0.0
2875,54.0,12.0,15.0,6.0,0.0
2876,54.0,0.0,20.0,3.0,0.0
2877,42.0,1.0,20.0,4.0,0.0
2878,83.0,0.0,15.0,5.0,0.0
2879,55.0,8.0,15.0,6.0,0.0
2880,81.0,0.0,15.0,5.0,0.0
2881,57.0,12.0,15.0,6.0,0.0
2882,52.0,0.0,20.0,3.0,0.0
2883,40.0,0.0,20.0,4.0,0.0
2884,79.0,11.0,15.0,5.0,0.0
2885,59.0,1.0,20.0,6.0,0.0
2886,78.0,12.0,15.0,5.0,0.0
2887,55.0,0.0,20.0,3.0,0.0
2888,43.0,0.0,20.0,4.0,0.0
2889,76.0,11.0,15.0,5.0,0.0
2890,55.0,1.0,20.0,6.0,0.0
2891,74.0,12.0,15.0,5.0,0.0
2892,57.0,0.0,20.0,3.0,0.0
2893,45.0,1.0,20.0,4.0,0.0
2894,72.0,0.0,15.0,5.0,0.0
2895,57.0,11.0,15.0,6.0,0.0
2896,71.0,0.0,15.0,5.0,0.0
2897,55.0,12.0,15.0,6.0,0.0
2898,55.0,0.0,20.0,3.0,0.0
2899,43.0,1.0,20.0,4.0,0.0
2900,72.0,0.0,15.0,5.0,0.0
2901,57.0,11.0,15.0,6.0,0.0
2902,83.0,0.0,15.0,5.0,0.0
2903,59.0,12.0,15.0,6.0,0.0
2904,54.0,0.0,20.0,3.0,0.0
2905,42.0,0.0,20.0,4.0,0.0
2906,81.0,11.0,15.0,5.0,0.0
2907,60.0,1.0,20.0,6.0,0.0
2908,79.0,12.0,15.0,5.0,0.0
2909,57.0,0.0,20.0,3.0,0.0
2910,45.0,0.0,20.0,4.0,0.0
2911,78.0,11.0,15.0,5.0,0.0
2912,57.0,1.0,20.0,6.0,0.0
2913,76.0,12.0,15.0,5.0,0.0
2914,59.0,0.0,20.0,3.0,0.0
2915,47.0,1.0,20.0,4.0,0.0
2916,75.0,0.0,15.0,5.0,0.0
2917,59.0,11.0,15.0,6.0,0.0
2918,76.0,0.0,15.0,5.0,0.0
2919,57.0,12.0,15.0,6.0,0.0
2920,61.0,0.0,20.0,3.0,0.0
2921,49.0,1.0,20.0,4.0,0.0
2922,75.0,0.0,15.0,5.0,0.0
2923,59.0,11.0,15.0,6.0,0.0
2924,73.0,0.0,15.0,5.0,0.0
2925,61.0,12.0,15.0,6.0,0.0
2926,63.0,0.0,20.0,3.0,0.0
2927,51.0,0.0,20.0,4.0,0.0
2928,71.0,11.0,15.0,5.0,0.0
2929,63.0,1.0,20.0,6.0,0.0
2930,69.0,12.0,15.0,5.0,0.0
2931,71.0,0.0,20.0,0.0,0.0
2932,59.0,0.0,20.0,3.0,0.0
2933,47.0,1.0,20.0,4.0,0.0
2934,67.0,11.0,15.0,5.0,0.0
2935,59.0,3.0,30.0,6.0,0.0
2936,66.0,9.0,15.0,5.0,0.0
2937,76.0,3.0,40.0,0.0,0.0
2938,55.0,0.0,20.0,3.0,0.0
2939,43.0,1.0,20.0,4.0,0.0
2940,67.0,11.0,15.0,5.0,0.0
2941,71.0,0.0,15.0,5.0,0.0
2942,64.0,12.0,15.0,6.0,0.0
2943,71.0,0.0,20.0,1.0,0.0
2944,67.0,0.0,20.0,2.0,0.0
2945,59.0,0.0,20.0,3.0,0.0
2946,47.0,1.0,20.0,4.0,0.0
2947,76.0,0.0,15.0,5.0,0.0
2948,59.0,8.0,15.0,6.0,0.0
2949,79.0,0.0,15.0,5.0,0.0
2950,55.0,12.0,15.0,6.0,0.0
2951,76.0,0.0,40.0,1.0,0.0
2952,64.0,3.0,40.0,2.0,0.0
2953,55.0,0.0,20.0,3.0,0.0
2954,43.0,1.0,20.0,4.0,0.0
2955,83.0,6.0,60.0,5.0,0.0
2956,52.0,11.0,15.0,6.0,0.0
2957,54.0,12.0,15.0,6.0,0.0
2958,71.0,0.0,20.0,0.0,0.0
2959,52.0,0.0,20.0,3.0,0.0
2960,40.0,1.0,20.0,4.0,0.0
2961,55.0,8.0,15.0,6.0,0.0
2962,52.0,6.0,15.0,6.0,0.0
2963,72.0,3.0,40.0,0.0,0.0
2964,57.0,0.0,20.0,3.0,0.0
2965,45.0,1.0,20.0,4.0,0.0
2966,57.0,11.0,15.0,6.0,0.0
2967,81.0,0.0,15.0,5.0,0.0
2968,59.0,12.0,15.0,6.0,0.0
2969,76.0,0.0,20.0,1.0,0.0
2970,64.0,0.0,20.0,2.0,0.0
2971,60.0,0.0,20.0,3.0,0.0
2972,48.0,1.0,20.0,4.0,0.0
2973,79.0,8.0,15.0,5.0,0.0
2974,60.0,3.0,30.0,6.0,0.0
2975,83.0,9.0,15.0,5.0,0.0
2976,84.0,0.0,20.0,1.0,0.0
2977,66.0,0.0,20.0,2.0,0.0
2978,57.0,0.0,20.0,3.0,0.0
2979,45.0,1.0,20.0,4.0,0.0
2980,81.0,11.0,15.0,5.0,0.0
2981,79.0,0.0,15.0,5.0,0.0
2982,59.0,12.0,15.0,6.0,0.0
2983,69.0,0.0,20.0,0.0,0.0
2984,75.0,0.0,20.0,1.0,0.0
2985,72.0,0.0,20.0,2.0,0.0
2986,52.0,0.0,20.0,3.0,0.0
2987,40.0,1.0,20.0,4.0,0.0
2988,78.0,0.0,15.0,5.0,0.0
2989,60.0,11.0,15.0,6.0,0.0
2990,81.0,0.0,15.0,5.0,0.0
2991,57.0,12.0,15.0,6.0,0.0
2992,71.0,0.0,15.0,0.0,0.0
2993,76.0,0.0,20.0,1.0,0.0
2994,71.0,0.0,20.0,2.0,0.0
2995,64.0,0.0,20.0,3.0,0.0
2996,52.0,0.0,20.0,4.0,0.0
2997,79.0,11.0,15.0,5.0,0.0
2998,64.0,1.0,20.0,6.0,0.0
2999,69.0,0.0,15.0,0.0,0.0
3000,78.0,12.0,15.0,5.0,0.0
3001,67.0,0.0,15.0,0.0,0.0
3002,71.0,0.0,20.0,1.0,0.0
3003,64.0,0.0,20.0,2.0,0.0
3004,52.0,0.0,20.0,3.0,0.0
3005,40.0,0.0,20.0,4.0,0.0
3006,76.0,11.0,15.0,5.0,0.0
3007,52.0,1.0,20.0,6.0,0.0
3008,71.0,0.0,15.0,0.0,0.0
3009,79.0,12.0,15.0,5.0,0.0
3010,69.0,0.0,15.0,0.0,0.0
3011,71.0,0.0,20.0,1.0,0.0
3012,66.0,0.0,20.0,2.0,0.0
3013,59.0,0.0,20.0,3.0,0.0
3014,47.0,0.0,20.0,4.0,0.0
3015,78.0,11.0,15.0,5.0,0.0
3016,59.0,1.0,20.0,6.0,0.0
3017,67.0,0.0,15.0,0.0,0.0
3018,76.0,12.0,15.0,5.0,0.0
3019,66.0,0.0,15.0,0.0,0.0
3020,71.0,0.0,20.0,1.0,0.0
3021,66.0,0.0,20.0,2.0,0.0
3022,47.0,0.0,20.0,3.0,0.0
3023,35.0,0.0,20.0,4.0,0.0
3024,75.0,11.0,15.0,5.0,0.0
3025,47.0,1.0,20.0,6.0,0.0
3026,69.0,0.0,15.0,0.0,0.0
3027,78.0,12.0,15.0,5.0,0.0
3028,67.0,0.0,20.0,0.0,0.0
3029,71.0,0.0,40.0,1.0,0.0
3030,67.0,0.0,40.0,2.0,0.0
3031,52.0,0.0,20.0,3.0,0.0
3032,40.0,1.0,20.0,4.0,0.0
3033,76.0,3.0,40.0,5.0,0.0
3034,52.0,11.0,15.0,6.0,0.0
3035,64.0,12.0,15.0,6.0,0.0
3036,64.0,0.0,20.0,0.0,0.0
3037,40.0,0.0,20.0,3.0,0.0
3038,28.0,1.0,20.0,4.0,0.0
3039,59.0,8.0,15.0,6.0,0.0
3040,55.0,24.0,15.0,6.0,0.0
3041,76.0,9.0,240.0,0.0,0.0
3042,52.0,3.0,40.0,6.0,0.0
3043,76.0,12.0,15.0,5.0,0.0
3044,67.0,0.0,20.0,1.0,0.0
3045,67.0,1.0,20.0,2.0,0.0
3046,75.0,8.0,15.0,5.0,0.0
3047,76.0,12.0,15.0,5.0,0.0
3048,69.0,0.0,20.0,1.0,0.0
3049,69.0,10.0,20.0,2.0,0.0
3050,78.0,12.0,15.0,5.0,0.0
3051,88.0,0.0,15.0,5.0,0.0
3052,69.0,2.0,15.0,6.0,0.0
3053,69.0,0.0,20.0,1.0,0.0
3054,69.0,10.0,20.0,2.0,0.0
3055,76.0,0.0,15.0,5.0,0.0
3056,68.0,12.0,15.0,6.0,0.0
3057,78.0,0.0,15.0,5.0,0.0
3058,69.0,2.0,15.0,6.0,0.0
3059,71.0,0.0,20.0,1.0,0.0
3060,71.0,10.0,20.0,2.0,0.0
3061,80.0,0.0,15.0,5.0,0.0
3062,71.0,12.0,15.0,6.0,0.0
3063,88.0,0.0,15.0,5.0,0.0
3064,72.0,2.0,15.0,6.0,0.0
3065,71.0,0.0,20.0,1.0,0.0
3066,71.0,1.0,20.0,2.0,0.0
3067,78.0,0.0,15.0,5.0,0.0
3068,69.0,11.0,15.0,6.0,0.0
3069,80.0,0.0,15.0,5.0,0.0
3070,71.0,12.0,15.0,6.0,0.0
3071,72.0,0.0,20.0,1.0,0.0
3072,72.0,1.0,20.0,2.0,0.0
3073,81.0,0.0,15.0,5.0,0.0
3074,72.0,11.0,15.0,6.0,0.0
3075,88.0,0.0,15.0,5.0,0.0
3076,74.0,12.0,15.0,6.0,0.0
3077,72.0,0.0,20.0,1.0,0.0
3078,72.0,1.0,20.0,2.0,0.0
3079,80.0,0.0,15.0,5.0,0.0
3080,71.0,11.0,15.0,6.0,0.0
3081,81.0,0.0,15.0,5.0,0.0
3082,72.0,12.0,15.0,6.0,0.0
3083,68.0,0.0,20.0,1.0,0.0
3084,68.0,1.0,20.0,2.0,0.0
3085,83.0,0.0,15.0,5.0,0.0
3086,74.0,11.0,15.0,6.0,0.0
3087,88.0,0.0,15.0,5.0,0.0
3088,71.0,12.0,15.0,6.0,0.0
3089,68.0,0.0,20.0,1.0,0.0
3090,68.0,0.0,20.0,2.0,0.0
3091,81.0,11.0,15.0,5.0,0.0
3092,76.0,1.0,20.0,6.0,0.0
3093,83.0,12.0,15.0,5.0,0.0
3094,69.0,0.0,20.0,1.0,0.0
3095,69.0,1.0,20.0,2.0,0.0
3096,84.0,21.0,90.0,5.0,0.0
3097,69.0,2.0,15.0,6.0,0.0
3098,71.0,12.0,15.0,6.0,0.0
3099,76.0,0.0,20.0,0.0,0.0
3100,72.0,0.0,20.0,1.0,0.0
3101,64.0,1.0,20.0,2.0,0.0
3102,57.0,0.0,15.0,3.0,0.0
3103,45.0,0.0,15.0,4.0,0.0
3104,72.0,11.0,15.0,6.0,0.0
3105,59.0,0.0,15.0,3.0,0.0
3106,47.0,0.0,15.0,4.0,0.0
3107,71.0,12.0,15.0,6.0,0.0
3108,72.0,0.0,20.0,0.0,0.0
3109,76.0,0.0,20.0,1.0,0.0
3110,69.0,1.0,20.0,2.0,0.0
3111,57.0,0.0,15.0,3.0,0.0
3112,45.0,0.0,15.0,4.0,0.0
3113,69.0,11.0,15.0,6.0,0.0
3114,55.0,0.0,15.0,3.0,0.0
3115,43.0,0.0,15.0,4.0,0.0
3116,67.0,12.0,15.0,6.0,0.0
3117,69.0,0.0,20.0,0.0,0.0
3118,81.0,0.0,20.0,1.0,0.0
3119,72.0,1.0,20.0,2.0,0.0
3120,54.0,0.0,15.0,3.0,0.0
3121,42.0,0.0,15.0,4.0,0.0
3122,66.0,11.0,15.0,6.0,0.0
3123,52.0,0.0,15.0,3.0,0.0
3124,40.0,0.0,15.0,4.0,0.0
3125,64.0,2.0,15.0,6.0,0.0
3126,74.0,9.0,210.0,0.0,0.0
3127,78.0,10.0,20.0,1.0,0.0
3128,74.0,0.0,20.0,2.0,0.0
3129,50.0,0.0,20.0,3.0,0.0
3130,38.0,0.0,20.0,4.0,0.0
3131,62.0,1.0,20.0,6.0,0.0
3132,86.0,2.0,15.0,5.0,0.0
3133,74.0,10.0,20.0,1.0,0.0
3134,69.0,0.0,20.0,2.0,0.0
3135,62.0,0.0,20.0,3.0,0.0
3136,50.0,0.0,20.0,4.0,0.0
3137,84.0,11.0,15.0,5.0,0.0
3138,66.0,1.0,20.0,6.0,0.0
3139,83.0,2.0,15.0,5.0,0.0
3140,69.0,0.0,20.0,1.0,0.0
3141,69.0,0.0,20.0,2.0,0.0
3142,84.0,11.0,15.0,5.0,0.0
3143,69.0,1.0,20.0,6.0,0.0
3144,81.0,12.0,15.0,5.0,0.0
3145,69.0,0.0,20.0,1.0,0.0
3146,69.0,0.0,20.0,2.0,0.0
3147,78.0,11.0,15.0,5.0,0.0
3148,72.0,1.0,20.0,6.0,0.0
3149,74.0,12.0,15.0,5.0,0.0
3150,71.0,0.0,20.0,1.0,0.0
3151,71.0,1.0,20.0,2.0,0.0
3152,79.0,0.0,15.0,5.0,0.0
3153,71.0,11.0,15.0,6.0,0.0
3154,86.0,0.0,15.0,5.0,0.0
3155,72.0,12.0,15.0,6.0,0.0
3156,71.0,0.0,20.0,1.0,0.0
3157,71.0,1.0,20.0,2.0,0.0
3158,78.0,0.0,15.0,5.0,0.0
3159,69.0,11.0,15.0,6.0,0.0
3160,79.0,0.0,15.0,5.0,0.0
3161,71.0,12.0,15.0,6.0,0.0
3162,66.0,0.0,20.0,1.0,0.0
3163,66.0,1.0,20.0,2.0,0.0
3164,81.0,0.0,15.0,5.0,0.0
3165,72.0,11.0,15.0,6.0,0.0
3166,86.0,0.0,15.0,5.0,0.0
3167,69.0,12.0,15.0,6.0,0.0
3168,66.0,0.0,20.0,1.0,0.0
3169,66.0,0.0,20.0,2.0,0.0
3170,79.0,11.0,15.0,5.0,0.0
3171,74.0,1.0,20.0,6.0,0.0
3172,81.0,12.0,15.0,5.0,0.0
3173,67.0,0.0,20.0,1.0,0.0
3174,67.0,1.0,20.0,2.0,0.0
3175,83.0,21.0,90.0,5.0,0.0
3176,67.0,2.0,15.0,6.0,0.0
3177,69.0,12.0,15.0,6.0,0.0
3178,74.0,0.0,20.0,0.0,0.0
3179,71.0,0.0,20.0,1.0,0.0
3180,62.0,1.0,20.0,2.0,0.0
3181,55.0,0.0,15.0,3.0,0.0
3182,43.0,0.0,15.0,4.0,0.0
3183,71.0,11.0,15.0,6.0,0.0
3184,57.0,0.0,15.0,3.0,0.0
3185,45.0,0.0,15.0,4.0,0.0
3186,69.0,12.0,15.0,6.0,0.0
3187,71.0,0.0,20.0,0.0,0.0
3188,74.0,0.0,20.0,1.0,0.0
3189,67.0,1.0,20.0,2.0,0.0
3190,55.0,0.0,15.0,3.0,0.0
3191,43.0,0.0,15.0,4.0,0.0
3192,67.0,11.0,15.0,6.0,0.0
3193,54.0,0.0,15.0,3.0,0.0
3194,42.0,0.0,15.0,4.0,0.0
3195,66.0,12.0,15.0,6.0,0.0
3196,67.0,0.0,20.0,0.0,0.0
3197,79.0,0.0,20.0,1.0,0.0
3198,71.0,1.0,20.0,2.0,0.0
3199,52.0,0.0,15.0,3.0,0.0
3200,40.0,0.0,15.0,4.0,0.0
3201,64.0,11.0,15.0,6.0,0.0
3202,50.0,0.0,15.0,3.0,0.0
3203,38.0,0.0,15.0,4.0,0.0
3204,62.0,2.0,15.0,6.0,0.0
3205,72.0,0.0,20.0,0.0,0.0
3206,76.0,0.0,20.0,1.0,0.0
3207,72.0,10.0,20.0,2.0,0.0
3208,48.0,0.0,20.0,3.0,0.0
3209,36.0,0.0,20.0,4.0,0.0
3210,60.0,1.0,20.0,6.0,0.0
3211,76.0,2.0,15.0,5.0,0.0
3212,76.0,0.0,20.0,0.0,0.0
3213,72.0,0.0,20.0,1.0,0.0
3214,72.0,10.0,20.0,2.0,0.0
3215,60.0,0.0,20.0,3.0,0.0
3216,48.0,0.0,20.0,4.0,0.0
3217,78.0,11.0,15.0,5.0,0.0
3218,72.0,1.0,20.0,6.0,0.0
3219,80.0,2.0,15.0,5.0,0.0
3220,76.0,0.0,20.0,0.0,0.0
3221,72.0,0.0,20.0,1.0,0.0
3222,72.0,10.0,20.0,2.0,0.0
3223,81.0,12.0,15.0,5.0,0.0
3224,83.0,2.0,15.0,5.0,0.0
3225,76.0,0.0,20.0,0.0,0.0
3226,72.0,0.0,20.0,1.0,0.0
3227,72.0,1.0,20.0,2.0,0.0
3228,84.0,11.0,15.0,5.0,0.0
3229,86.0,12.0,15.0,5.0,0.0
3230,76.0,0.0,20.0,0.0,0.0
3231,72.0,0.0,20.0,1.0,0.0
3232,72.0,10.0,20.0,2.0,0.0
3233,88.0,12.0,15.0,5.0,0.0
3234,86.0,0.0,15.0,5.0,0.0
3235,64.0,2.0,15.0,6.0,0.0
3236,76.0,0.0,20.0,0.0,0.0
3237,72.0,0.0,20.0,1.0,0.0
3238,72.0,10.0,20.0,2.0,0.0
3239,84.0,0.0,15.0,5.0,0.0
3240,66.0,12.0,15.0,6.0,0.0
3241,83.0,0.0,15.0,5.0,0.0
3242,68.0,2.0,15.0,6.0,0.0
3243,76.0,0.0,20.0,0.0,0.0
3244,72.0,0.0,20.0,1.0,0.0
3245,72.0,10.0,20.0,2.0,0.0
3246,81.0,0.0,15.0,5.0,0.0
3247,69.0,12.0,15.0,6.0,0.0
3248,80.0,0.0,15.0,5.0,0.0
3249,71.0,2.0,15.0,6.0,0.0
3250,76.0,0.0,20.0,0.0,0.0
3251,72.0,0.0,20.0,1.0,0.0
3252,72.0,1.0,20.0,2.0,0.0
3253,78.0,0.0,15.0,5.0,0.0
3254,72.0,11.0,15.0,6.0,0.0
3255,76.0,0.0,15.0,5.0,0.0
3256,74.0,12.0,15.0,6.0,0.0
3257,76.0,0.0,20.0,0.0,0.0
3258,72.0,0.0,20.0,1.0,0.0
3259,72.0,1.0,20.0,2.0,0.0
3260,81.0,21.0,90.0,5.0,0.0
3261,72.0,11.0,15.0,6.0,0.0
3262,71.0,12.0,15.0,6.0,0.0
3263,81.0,0.0,15.0,0.0,0.0
3264,72.0,0.0,20.0,1.0,0.0
3265,69.0,1.0,20.0,2.0,0.0
3266,54.0,0.0,15.0,3.0,0.0
3267,42.0,0.0,15.0,4.0,0.0
3268,69.0,11.0,15.0,6.0,0.0
3269,83.0,0.0,15.0,0.0,0.0
3270,55.0,0.0,15.0,3.0,0.0
3271,43.0,0.0,15.0,4.0,0.0
3272,67.0,12.0,15.0,6.0,0.0
3273,81.0,0.0,15.0,0.0,0.0
3274,66.0,0.0,20.0,1.0,0.0
3275,72.0,1.0,20.0,2.0,0.0
3276,54.0,0.0,15.0,3.0,0.0
3277,42.0,0.0,15.0,4.0,0.0
3278,66.0,11.0,15.0,6.0,0.0
3279,79.0,0.0,15.0,0.0,0.0
3280,52.0,0.0,15.0,3.0,0.0
3281,40.0,0.0,15.0,4.0,0.0
3282,64.0,12.0,15.0,6.0,0.0
3283,78.0,0.0,15.0,0.0,0.0
3284,69.0,0.0,20.0,1.0,0.0
3285,66.0,1.0,20.0,2.0,0.0
3286,51.0,0.0,15.0,3.0,0.0
3287,39.0,0.0,15.0,4.0,0.0
3288,63.0,11.0,15.0,6.0,0.0
3289,76.0,0.0,15.0,0.0,0.0
3290,49.0,0.0,15.0,3.0,0.0
3291,37.0,0.0,15.0,4.0,0.0
3292,61.0,2.0,15.0,6.0,0.0
3293,75.0,0.0,20.0,0.0,0.0
3294,71.0,0.0,20.0,1.0,0.0
3295,66.0,0.0,20.0,2.0,0.0
3296,47.0,0.0,20.0,3.0,0.0
3297,35.0,0.0,20.0,4.0,0.0
3298,59.0,1.0,20.0,6.0,0.0
3299,78.0,12.0,15.0,5.0,0.0
3300,75.0,0.0,20.0,0.0,0.0
3301,71.0,0.0,20.0,1.0,0.0
3302,71.0,10.0,20.0,2.0,0.0
3303,59.0,0.0,20.0,3.0,0.0
3304,47.0,0.0,20.0,4.0,0.0
3305,79.0,11.0,15.0,5.0,0.0
3306,71.0,1.0,20.0,6.0,0.0
3307,81.0,2.0,15.0,5.0,0.0
3308,75.0,0.0,20.0,0.0,0.0
3309,71.0,0.0,20.0,1.0,0.0
3310,71.0,10.0,20.0,2.0,0.0
3311,83.0,12.0,15.0,5.0,0.0
3312,85.0,2.0,15.0,5.0,0.0
3313,75.0,0.0,20.0,0.0,0.0
3314,71.0,0.0,20.0,1.0,0.0
3315,71.0,1.0,20.0,2.0,0.0
3316,87.0,11.0,15.0,5.0,0.0
3317,88.0,12.0,15.0,5.0,0.0
3318,75.0,0.0,20.0,0.0,0.0
3319,71.0,0.0,20.0,1.0,0.0
3320,71.0,10.0,20.0,2.0,0.0
3321,90.0,12.0,15.0,5.0,0.0
3322,88.0,0.0,15.0,5.0,0.0
3323,66.0,2.0,15.0,6.0,0.0
3324,75.0,0.0,20.0,0.0,0.0
3325,71.0,0.0,20.0,1.0,0.0
3326,71.0,10.0,20.0,2.0,0.0
3327,87.0,0.0,15.0,5.0,0.0
3328,67.0,12.0,15.0,6.0,0.0
3329,85.0,0.0,15.0,5.0,0.0
3330,69.0,2.0,15.0,6.0,0.0
3331,75.0,0.0,20.0,0.0,0.0
3332,71.0,0.0,20.0,1.0,0.0
3333,71.0,10.0,20.0,2.0,0.0
3334,83.0,0.0,15.0,5.0,0.0
3335,71.0,12.0,15.0,6.0,0.0
3336,81.0,0.0,15.0,5.0,0.0
3337,73.0,2.0,15.0,6.0,0.0
3338,75.0,0.0,20.0,0.0,0.0
3339,71.0,0.0,20.0,1.0,0.0
3340,71.0,1.0,20.0,2.0,0.0
3341,79.0,0.0,15.0,5.0,0.0
3342,75.0,11.0,15.0,6.0,0.0
3343,78.0,0.0,15.0,5.0,0.0
3344,71.0,12.0,15.0,6.0,0.0
3345,76.0,0.0,20.0,0.0,0.0
3346,71.0,0.0,40.0,1.0,0.0
3347,64.0,3.0,40.0,2.0,0.0
3348,79.0,11.0,15.0,5.0,0.0
3349,76.0,1.0,20.0,6.0,0.0
3350,88.0,12.0,15.0,5.0,0.0
3351,71.0,0.0,20.0,0.0,0.0
3352,52.0,0.0,20.0,3.0,0.0
3353,40.0,0.0,20.0,4.0,0.0
3354,79.0,8.0,15.0,5.0,0.0
3355,64.0,1.0,20.0,6.0,0.0
3356,78.0,12.0,15.0,5.0,0.0
3357,79.0,6.0,60.0,0.0,0.0
3358,64.0,0.0,20.0,3.0,0.0
3359,52.0,1.0,20.0,4.0,0.0
3360,79.0,11.0,15.0,5.0,0.0
3361,83.0,12.0,15.0,5.0,0.0
3362,76.0,0.0,20.0,1.0,0.0
3363,71.0,0.0,20.0,2.0,0.0
3364,55.0,0.0,20.0,3.0,0.0
3365,43.0,0.0,20.0,4.0,0.0
3366,88.0,11.0,15.0,5.0,0.0
3367,56.0,0.0,20.0,6.0,0.0
3368,64.0,0.0,20.0,6.0,0.0
3369,59.0,1.0,20.0,6.0,0.0
3370,86.0,12.0,15.0,5.0,0.0
3371,76.0,0.0,40.0,1.0,0.0
3372,69.0,0.0,40.0,2.0,0.0
3373,57.0,0.0,20.0,3.0,0.0
3374,45.0,1.0,20.0,4.0,0.0
3375,85.0,5.0,15.0,5.0,0.0
3376,57.0,0.0,40.0,6.0,0.0
3377,64.0,3.0,40.0,6.0,0.0
3378,79.0,12.0,15.0,5.0,0.0
3379,81.0,0.0,15.0,0.0,0.0
3380,59.0,0.0,20.0,3.0,0.0
3381,47.0,1.0,20.0,4.0,0.0
3382,86.0,8.0,15.0,5.0,0.0
3383,83.0,0.0,15.0,0.0,0.0
3384,79.0,12.0,15.0,5.0,0.0
3385,81.0,0.0,20.0,0.0,0.0
3386,61.0,0.0,20.0,3.0,0.0
3387,49.0,1.0,20.0,4.0,0.0
3388,88.0,11.0,15.0,5.0,0.0
3389,79.0,12.0,15.0,5.0,0.0
3390,79.0,0.0,20.0,0.0,0.0
3391,57.0,0.0,20.0,3.0,0.0
3392,45.0,0.0,20.0,4.0,0.0
3393,85.0,11.0,15.0,5.0,0.0
3394,57.0,0.0,20.0,6.0,0.0
3395,64.0,1.0,20.0,6.0,0.0
3396,79.0,12.0,15.0,5.0,0.0
3397,78.0,0.0,20.0,0.0,0.0
3398,62.0,0.0,20.0,3.0,0.0
3399,50.0,1.0,20.0,4.0,0.0
3400,78.0,11.0,15.0,5.0,0.0
3401,62.0,3.0,40.0,6.0,0.0
3402,86.0,12.0,15.0,5.0,0.0
3403,69.0,0.0,20.0,0.0,0.0
3404,50.0,0.0,20.0,3.0,0.0
3405,38.0,0.0,20.0,4.0,0.0
3406,78.0,8.0,15.0,5.0,0.0
3407,50.0,1.0,20.0,6.0,0.0
3408,76.0,12.0,15.0,5.0,0.0
3409,78.0,6.0,60.0,0.0,0.0
3410,62.0,0.0,20.0,3.0,0.0
3411,50.0,1.0,20.0,4.0,0.0
3412,78.0,11.0,15.0,5.0,0.0
3413,81.0,12.0,15.0,5.0,0.0
3414,74.0,0.0,20.0,1.0,0.0
3415,69.0,0.0,20.0,2.0,0.0
3416,54.0,0.0,20.0,3.0,0.0
3417,42.0,0.0,20.0,4.0,0.0
3418,86.0,11.0,15.0,5.0,0.0
3419,54.0,0.0,20.0,6.0,0.0
3420,62.0,0.0,20.0,6.0,0.0
3421,57.0,1.0,20.0,6.0,0.0
3422,85.0,12.0,15.0,5.0,0.0
3423,74.0,0.0,40.0,1.0,0.0
3424,67.0,0.0,40.0,2.0,0.0
3425,55.0,0.0,20.0,3.0,0.0
3426,43.0,1.0,20.0,4.0,0.0
3427,83.0,5.0,15.0,5.0,0.0
3428,55.0,0.0,40.0,6.0,0.0
3429,62.0,3.0,40.0,6.0,0.0
3430,78.0,12.0,15.0,5.0,0.0
3431,79.0,0.0,15.0,0.0,0.0
3432,57.0,0.0,20.0,3.0,0.0
3433,45.0,1.0,20.0,4.0,0.0
3434,85.0,8.0,15.0,5.0,0.0
3435,81.0,0.0,15.0,0.0,0.0
3436,78.0,12.0,15.0,5.0,0.0
3437,79.0,0.0,20.0,0.0,0.0
3438,59.0,0.0,20.0,3.0,0.0
3439,47.0,1.0,20.0,4.0,0.0
3440,86.0,11.0,15.0,5.0,0.0
3441,78.0,12.0,15.0,5.0,0.0
3442,78.0,0.0,20.0,0.0,0.0
3443,55.0,0.0,20.0,3.0,0.0
3444,43.0,0.0,20.0,4.0,0.0
3445,83.0,11.0,15.0,5.0,0.0
3446,55.0,0.0,20.0,6.0,0.0
3447,62.0,1.0,20.0,6.0,0.0
3448,78.0,12.0,15.0,5.0,0.0
3449,76.0,0.0,20.0,0.0,0.0
3450,61.0,0.0,20.0,3.0,0.0
3451,49.0,0.0,20.0,4.0,0.0
3452,76.0,11.0,15.0,5.0,0.0
3453,61.0,1.0,20.0,6.0,0.0
3454,85.0,12.0,15.0,5.0,0.0
3455,70.0,0.0,20.0,0.0,0.0
3456,49.0,0.0,20.0,3.0,0.0
3457,37.0,0.0,20.0,4.0,0.0
3458,76.0,11.0,15.0,5.0,0.0
3459,49.0,1.0,20.0,6.0,0.0
3460,74.0,12.0,15.0,5.0,0.0
3461,76.0,6.0,60.0,0.0,0.0
3462,61.0,0.0,20.0,3.0,0.0
3463,49.0,1.0,20.0,4.0,0.0
3464,76.0,11.0,15.0,5.0,0.0
3465,79.0,12.0,15.0,5.0,0.0
3466,73.0,0.0,20.0,1.0,0.0
3467,67.0,0.0,20.0,2.0,0.0
3468,58.0,0.0,20.0,3.0,0.0
3469,46.0,0.0,20.0,4.0,0.0
3470,85.0,11.0,15.0,5.0,0.0
3471,55.0,0.0,20.0,6.0,0.0
3472,52.0,0.0,20.0,6.0,0.0
3473,61.0,1.0,20.0,6.0,0.0
3474,83.0,12.0,15.0,5.0,0.0
3475,73.0,0.0,20.0,1.0,0.0
3476,66.0,0.0,20.0,2.0,0.0
3477,54.0,0.0,20.0,3.0,0.0
3478,42.0,1.0,20.0,4.0,0.0
3479,82.0,5.0,15.0,5.0,0.0
3480,54.0,0.0,40.0,6.0,0.0
3481,61.0,3.0,40.0,6.0,0.0
3482,76.0,12.0,15.0,5.0,0.0
3483,74.0,0.0,20.0,0.0,0.0
3484,71.0,0.0,20.0,1.0,0.0
3485,68.0,0.0,20.0,2.0,0.0
3486,42.0,0.0,20.0,3.0,0.0
3487,30.0,1.0,20.0,4.0,0.0
3488,83.0,8.0,15.0,5.0,0.0
3489,76.0,12.0,15.0,5.0,0.0
3490,73.0,0.0,20.0,0.0,0.0
3491,70.0,0.0,20.0,1.0,0.0
3492,70.0,1.0,20.0,2.0,0.0
3493,85.0,11.0,15.0,5.0,0.0
3494,76.0,0.0,15.0,5.0,0.0
3495,64.0,12.0,15.0,6.0,0.0
3496,78.0,0.0,20.0,0.0,0.0
3497,73.0,0.0,20.0,1.0,0.0
3498,66.0,1.0,20.0,2.0,0.0
3499,82.0,0.0,15.0,5.0,0.0
3500,62.0,11.0,15.0,6.0,0.0
3501,76.0,0.0,15.0,5.0,0.0
3502,61.0,12.0,15.0,6.0,0.0
3503,83.0,0.0,40.0,0.0,0.0
3504,78.0,0.0,40.0,1.0,0.0
3505,74.0,3.0,40.0,2.0,0.0
3506,74.0,0.0,15.0,5.0,0.0
3507,59.0,12.0,15.0,6.0,0.0
3508,83.0,0.0,15.0,5.0,0.0
3509,47.0,12.0,15.0,6.0,0.0
3510,47.0,0.0,20.0,3.0,0.0
3511,35.0,1.0,20.0,4.0,0.0
3512,74.0,0.0,15.0,5.0,0.0
3513,59.0,8.0,15.0,6.0,0.0
3514,73.0,0.0,15.0,5.0,0.0
3515,58.0,12.0,15.0,6.0,0.0
3516,59.0,0.0,40.0,3.0,0.0
3517,47.0,3.0,40.0,4.0,0.0
3518,74.0,0.0,15.0,5.0,0.0
3519,59.0,12.0,15.0,6.0,0.0
3520,78.0,0.0,15.0,5.0,0.0
3521,61.0,12.0,15.0,6.0,0.0
3522,78.0,0.0,20.0,0.0,0.0
3523,74.0,0.0,20.0,1.0,0.0
3524,71.0,1.0,20.0,2.0,0.0
3525,83.0,0.0,15.0,5.0,0.0
3526,62.0,8.0,15.0,6.0,0.0
3527,78.0,0.0,15.0,5.0,0.0
3528,59.0,12.0,15.0,6.0,0.0
3529,79.0,0.0,40.0,0.0,0.0
3530,76.0,0.0,40.0,1.0,0.0
3531,64.0,3.0,40.0,2.0,0.0
3532,79.0,0.0,15.0,5.0,0.0
3533,64.0,12.0,15.0,6.0,0.0
3534,83.0,0.0,15.0,5.0,0.0
3535,59.0,12.0,15.0,6.0,0.0
3536,47.0,0.0,20.0,3.0,0.0
3537,35.0,1.0,20.0,4.0,0.0
3538,76.0,0.0,15.0,5.0,0.0
3539,67.0,8.0,15.0,6.0,0.0
3540,74.0,0.0,15.0,5.0,0.0
3541,66.0,12.0,15.0,6.0,0.0
3542,59.0,0.0,40.0,3.0,0.0
3543,47.0,3.0,40.0,4.0,0.0
3544,76.0,0.0,15.0,5.0,0.0
3545,67.0,12.0,15.0,6.0,0.0
3546,79.0,0.0,15.0,5.0,0.0
3547,71.0,12.0,15.0,6.0,0.0
3548,76.0,0.0,20.0,0.0,0.0
3549,73.0,0.0,20.0,1.0,0.0
3550,64.0,1.0,20.0,2.0,0.0
3551,83.0,0.0,15.0,5.0,0.0
3552,67.0,8.0,15.0,6.0,0.0
3553,76.0,0.0,15.0,5.0,0.0
3554,79.0,0.0,15.0,5.0,0.0
3555,64.0,12.0,15.0,6.0,0.0
3556,78.0,2.0,15.0,0.0,0.0
3557,74.0,9.0,15.0,1.0,0.0
3558,59.0,0.0,20.0,2.0,0.0
3559,74.0,0.0,20.0,5.0,0.0
3560,78.0,0.0,20.0,5.0,0.0
3561,71.0,1.0,20.0,6.0,0.0
3562,76.0,2.0,15.0,0.0,0.0
3563,76.0,10.0,15.0,1.0,0.0
3564,74.0,0.0,15.0,0.0,0.0
3565,78.0,11.0,15.0,1.0,0.0
3566,66.0,0.0,20.0,2.0,0.0
3567,47.0,0.0,20.0,3.0,0.0
3568,35.0,0.0,20.0,4.0,0.0
3569,83.0,0.0,20.0,5.0,0.0
3570,59.0,1.0,20.0,6.0,0.0
3571,78.0,0.0,15.0,0.0,0.0
3572,74.0,12.0,15.0,1.0,0.0
3573,76.0,2.0,15.0,0.0,0.0
3574,73.0,9.0,15.0,1.0,0.0
3575,58.0,0.0,20.0,2.0,0.0
3576,54.0,0.0,20.0,3.0,0.0
3577,42.0,0.0,20.0,4.0,0.0
3578,73.0,0.0,20.0,5.0,0.0
3579,76.0,0.0,20.0,5.0,0.0
3580,66.0,1.0,20.0,6.0,0.0
3581,74.0,2.0,15.0,0.0,0.0
3582,74.0,10.0,15.0,1.0,0.0
3583,73.0,0.0,15.0,0.0,0.0
3584,76.0,11.0,15.0,1.0,0.0
3585,66.0,0.0,20.0,2.0,0.0
3586,42.0,0.0,20.0,3.0,0.0
3587,30.0,0.0,20.0,4.0,0.0
3588,82.0,0.0,20.0,5.0,0.0
3589,54.0,1.0,20.0,6.0,0.0
3590,76.0,0.0,15.0,0.0,0.0
3591,73.0,12.0,15.0,1.0,0.0
3592,74.0,0.0,20.0,0.0,0.0
3593,71.0,0.0,20.0,1.0,0.0
3594,66.0,0.0,20.0,2.0,0.0
3595,59.0,0.0,20.0,3.0,0.0
3596,47.0,1.0,20.0,4.0,0.0
3597,83.0,0.0,40.0,5.0,0.0
3598,78.0,0.0,40.0,5.0,0.0
3599,74.0,0.0,40.0,5.0,0.0
3600,71.0,3.0,40.0,5.0,0.0
3601,59.0,11.0,15.0,6.0,0.0
3602,58.0,12.0,15.0,6.0,0.0
3603,71.0,0.0,20.0,0.0,0.0
3604,66.0,0.0,20.0,1.0,0.0
3605,59.0,0.0,20.0,2.0,0.0
3606,47.0,0.0,20.0,3.0,0.0
3607,35.0,1.0,20.0,4.0,0.0
3608,59.0,8.0,15.0,6.0,0.0
3609,54.0,23.0,15.0,6.0,0.0
3610,50.0,0.0,20.0,3.0,0.0
3611,38.0,0.0,20.0,4.0,0.0
3612,50.0,1.0,20.0,6.0,0.0
3613,59.0,12.0,15.0,5.0,0.0
3614,54.0,0.0,20.0,3.0,0.0
3615,42.0,0.0,20.0,4.0,0.0
3616,58.0,11.0,15.0,5.0,0.0
3617,54.0,1.0,20.0,6.0,0.0
3618,59.0,12.0,15.0,5.0,0.0
3619,59.0,0.0,40.0,3.0,0.0
3620,47.0,10.0,40.0,4.0,0.0
3621,62.0,0.0,15.0,5.0,0.0
3622,47.0,12.0,15.0,6.0,0.0
3623,59.0,0.0,15.0,5.0,0.0
3624,50.0,12.0,15.0,6.0,0.0
3625,59.0,0.0,20.0,1.0,0.0
3626,59.0,0.0,20.0,2.0,0.0
3627,58.0,0.0,15.0,5.0,0.0
3628,54.0,12.0,15.0,6.0,0.0
3629,59.0,0.0,15.0,5.0,0.0
3630,50.0,2.0,15.0,6.0,0.0
3631,59.0,0.0,20.0,1.0,0.0
3632,59.0,10.0,20.0,2.0,0.0
3633,57.0,0.0,40.0,3.0,0.0
3634,45.0,3.0,40.0,4.0,0.0
3635,63.0,0.0,15.0,5.0,0.0
3636,45.0,12.0,15.0,6.0,0.0
3637,59.0,0.0,15.0,5.0,0.0
3638,51.0,2.0,15.0,6.0,0.0
3639,78.0,0.0,20.0,0.0,0.0
3640,59.0,0.0,20.0,1.0,0.0
3641,59.0,1.0,20.0,2.0,0.0
3642,58.0,0.0,15.0,5.0,0.0
3643,54.0,8.0,15.0,6.0,0.0
3644,59.0,0.0,15.0,5.0,0.0
3645,51.0,12.0,15.0,6.0,0.0
3646,71.0,1.0,20.0,0.0,0.0
3647,59.0,0.0,20.0,1.0,0.0
3648,59.0,10.0,20.0,2.0,0.0
3649,55.0,0.0,40.0,3.0,0.0
3650,43.0,10.0,40.0,4.0,0.0
3651,64.0,0.0,15.0,5.0,0.0
3652,43.0,11.0,15.0,6.0,0.0
3653,59.0,0.0,15.0,5.0,0.0
3654,52.0,2.0,15.0,6.0,0.0
3655,76.0,1.0,20.0,0.0,0.0
3656,59.0,0.0,20.0,1.0,0.0
3657,59.0,0.0,20.0,2.0,0.0
3658,58.0,0.0,15.0,5.0,0.0
3659,55.0,11.0,15.0,6.0,0.0
3660,59.0,0.0,15.0,5.0,0.0
3661,52.0,2.0,15.0,6.0,0.0
3662,69.0,0.0,20.0,0.0,0.0
3663,59.0,0.0,20.0,1.0,0.0
3664,59.0,10.0,20.0,2.0,0.0
3665,54.0,0.0,40.0,3.0,0.0
3666,42.0,3.0,40.0,4.0,0.0
3667,66.0,11.0,15.0,5.0,0.0
3668,51.0,1.0,20.0,6.0,0.0
3669,59.0,2.0,15.0,5.0,0.0
3670,75.0,0.0,20.0,0.0,0.0
3671,59.0,0.0,20.0,1.0,0.0
3672,59.0,0.0,20.0,2.0,0.0
3673,58.0,8.0,15.0,5.0,0.0
3674,47.0,1.0,20.0,6.0,0.0
3675,59.0,12.0,15.0,5.0,0.0
3676,76.0,0.0,15.0,0.0,0.0
3677,59.0,0.0,20.0,1.0,0.0
3678,59.0,10.0,20.0,2.0,0.0
3679,52.0,0.0,40.0,3.0,0.0
3680,40.0,10.0,40.0,4.0,0.0
3681,67.0,0.0,15.0,5.0,0.0
3682,52.0,12.0,15.0,6.0,0.0
3683,67.0,0.0,15.0,0.0,0.0
3684,64.0,0.0,15.0,5.0,0.0
3685,55.0,2.0,15.0,6.0,0.0
3686,66.0,10.0,15.0,0.0,0.0
3687,59.0,0.0,20.0,1.0,0.0
3688,59.0,0.0,20.0,2.0,0.0
3689,75.0,0.0,15.0,5.0,0.0
3690,59.0,2.0,15.0,6.0,0.0
3691,67.0,0.0,15.0,0.0,0.0
3692,76.0,0.0,15.0,5.0,0.0
3693,55.0,2.0,15.0,6.0,0.0
3694,64.0,7.0,60.0,0.0,0.0
3695,59.0,0.0,20.0,1.0,0.0
3696,59.0,10.0,20.0,2.0,0.0
3697,50.0,0.0,40.0,3.0,0.0
3698,38.0,3.0,40.0,4.0,0.0
3699,68.0,0.0,15.0,5.0,0.0
3700,50.0,12.0,15.0,6.0,0.0
3701,64.0,0.0,15.0,5.0,0.0
3702,56.0,2.0,15.0,6.0,0.0
3703,59.0,0.0,20.0,1.0,0.0
3704,59.0,1.0,20.0,2.0,0.0
3705,75.0,0.0,15.0,5.0,0.0
3706,59.0,8.0,15.0,6.0,0.0
3707,76.0,0.0,15.0,5.0,0.0
3708,56.0,12.0,15.0,6.0,0.0
3709,64.0,0.0,20.0,1.0,0.0
3710,64.0,10.0,20.0,2.0,0.0
3711,48.0,0.0,40.0,3.0,0.0
3712,36.0,10.0,40.0,4.0,0.0
3713,69.0,0.0,15.0,5.0,0.0
3714,48.0,5.0,15.0,6.0,0.0
3715,66.0,0.0,15.0,5.0,0.0
3716,57.0,2.0,15.0,6.0,0.0
3717,69.0,1.0,20.0,0.0,0.0
3718,64.0,0.0,20.0,1.0,0.0
3719,64.0,0.0,20.0,2.0,0.0
3720,75.0,0.0,15.0,5.0,0.0
3721,60.0,11.0,15.0,6.0,0.0
3722,76.0,0.0,15.0,5.0,0.0
3723,57.0,2.0,15.0,6.0,0.0
3724,62.0,0.0,20.0,0.0,0.0
3725,64.0,0.0,20.0,1.0,0.0
3726,64.0,10.0,20.0,2.0,0.0
3727,47.0,0.0,40.0,3.0,0.0
3728,35.0,3.0,40.0,4.0,0.0
3729,71.0,11.0,15.0,5.0,0.0
3730,56.0,1.0,20.0,6.0,0.0
3731,68.0,2.0,15.0,5.0,0.0
3732,68.0,0.0,20.0,0.0,0.0
3733,64.0,0.0,20.0,1.0,0.0
3734,64.0,0.0,20.0,2.0,0.0
3735,75.0,8.0,15.0,5.0,0.0
3736,52.0,1.0,20.0,6.0,0.0
3737,76.0,12.0,15.0,5.0,0.0
3738,69.0,0.0,15.0,0.0,0.0
3739,64.0,0.0,20.0,1.0,0.0
3740,64.0,10.0,20.0,2.0,0.0
3741,57.0,0.0,40.0,3.0,0.0
3742,45.0,10.0,40.0,4.0,0.0
3743,72.0,0.0,15.0,5.0,0.0
3744,57.0,12.0,15.0,6.0,0.0
3745,60.0,0.0,15.0,0.0,0.0
3746,81.0,0.0,15.0,5.0,0.0
3747,60.0,2.0,15.0,6.0,0.0
3748,59.0,10.0,15.0,0.0,0.0
3749,64.0,0.0,20.0,1.0,0.0
3750,64.0,0.0,20.0,2.0,0.0
3751,68.0,0.0,15.0,5.0,0.0
3752,64.0,2.0,15.0,6.0,0.0
3753,60.0,0.0,15.0,0.0,0.0
3754,69.0,0.0,15.0,5.0,0.0
3755,60.0,2.0,15.0,6.0,0.0
3756,69.0,7.0,60.0,0.0,0.0
3757,64.0,0.0,20.0,1.0,0.0
3758,64.0,10.0,20.0,2.0,0.0
3759,55.0,0.0,40.0,3.0,0.0
3760,43.0,3.0,40.0,4.0,0.0
3761,73.0,0.0,15.0,5.0,0.0
3762,55.0,12.0,15.0,6.0,0.0
3763,76.0,0.0,15.0,5.0,0.0
3764,61.0,2.0,15.0,6.0,0.0
3765,64.0,0.0,20.0,1.0,0.0
3766,64.0,1.0,20.0,2.0,0.0
3767,68.0,0.0,15.0,5.0,0.0
3768,64.0,8.0,15.0,6.0,0.0
3769,69.0,0.0,15.0,5.0,0.0
3770,61.0,12.0,15.0,6.0,0.0
3771,69.0,0.0,20.0,1.0,0.0
3772,69.0,10.0,20.0,2.0,0.0
3773,53.0,0.0,40.0,3.0,0.0
3774,41.0,10.0,40.0,4.0,0.0
3775,74.0,0.0,15.0,5.0,0.0
3776,53.0,5.0,15.0,6.0,0.0
3777,77.0,0.0,15.0,5.0,0.0
3778,62.0,2.0,15.0,6.0,0.0
3779,74.0,1.0,20.0,0.0,0.0
3780,69.0,0.0,20.0,1.0,0.0
3781,69.0,0.0,20.0,2.0,0.0
3782,68.0,0.0,15.0,5.0,0.0
3783,65.0,11.0,15.0,6.0,0.0
3784,69.0,0.0,15.0,5.0,0.0
3785,62.0,2.0,15.0,6.0,0.0
3786,67.0,0.0,20.0,0.0,0.0
3787,69.0,0.0,20.0,1.0,0.0
3788,69.0,10.0,20.0,2.0,0.0
3789,52.0,0.0,40.0,3.0,0.0
3790,40.0,3.0,40.0,4.0,0.0
3791,76.0,11.0,15.0,5.0,0.0
3792,61.0,1.0,20.0,6.0,0.0
3793,79.0,2.0,15.0,5.0,0.0
3794,73.0,0.0,20.0,0.0,0.0
3795,69.0,0.0,20.0,1.0,0.0
3796,69.0,0.0,20.0,2.0,0.0
3797,68.0,8.0,15.0,5.0,0.0
3798,57.0,1.0,20.0,6.0,0.0
3799,69.0,12.0,15.0,5.0,0.0
3800,74.0,0.0,40.0,0.0,0.0
3801,69.0,0.0,40.0,1.0,0.0
3802,69.0,4.0,40.0,2.0,0.0
3803,50.0,0.0,20.0,3.0,0.0
3804,38.0,10.0,20.0,4.0,0.0
3805,77.0,0.0,15.0,5.0,0.0
3806,62.0,12.0,15.0,6.0,0.0
3807,74.0,0.0,15.0,5.0,0.0
3808,65.0,2.0,15.0,6.0,0.0
3809,50.0,0.0,20.0,3.0,0.0
3810,38.0,10.0,20.0,4.0,0.0
3811,73.0,0.0,15.0,5.0,0.0
3812,69.0,8.0,15.0,6.0,0.0
3813,74.0,0.0,15.0,5.0,0.0
3814,65.0,2.0,15.0,6.0,0.0
3815,81.0,0.0,40.0,0.0,0.0
3816,75.0,0.0,40.0,1.0,0.0
3817,72.0,10.0,40.0,2.0,0.0
3818,50.0,0.0,20.0,3.0,0.0
3819,38.0,10.0,20.0,4.0,0.0
3820,78.0,0.0,15.0,5.0,0.0
3821,60.0,12.0,15.0,6.0,0.0
3822,86.0,0.0,15.0,5.0,0.0
3823,66.0,2.0,15.0,6.0,0.0
3824,50.0,0.0,20.0,3.0,0.0
3825,38.0,1.0,20.0,4.0,0.0
3826,87.0,0.0,15.0,5.0,0.0
3827,67.0,11.0,15.0,6.0,0.0
3828,78.0,0.0,15.0,5.0,0.0
3829,69.0,2.0,15.0,6.0,0.0
3830,79.0,0.0,40.0,0.0,0.0
3831,74.0,0.0,40.0,1.0,0.0
3832,70.0,0.0,40.0,2.0,0.0
3833,50.0,0.0,20.0,3.0,0.0
3834,38.0,10.0,20.0,4.0,0.0
3835,79.0,0.0,15.0,5.0,0.0
3836,58.0,12.0,15.0,6.0,0.0
3837,86.0,0.0,15.0,5.0,0.0
3838,70.0,2.0,15.0,6.0,0.0
3839,50.0,0.0,20.0,3.0,0.0
3840,38.0,10.0,20.0,4.0,0.0
3841,87.0,0.0,15.0,5.0,0.0
3842,69.0,12.0,15.0,6.0,0.0
3843,79.0,0.0,15.0,5.0,0.0
3844,67.0,2.0,15.0,6.0,0.0
3845,78.0,0.0,40.0,0.0,0.0
3846,72.0,0.0,40.0,1.0,0.0
3847,69.0,3.0,40.0,2.0,0.0
3848,50.0,0.0,20.0,3.0,0.0
3849,38.0,10.0,20.0,4.0,0.0
3850,81.0,0.0,15.0,5.0,0.0
3851,72.0,12.0,15.0,6.0,0.0
3852,86.0,0.0,15.0,5.0,0.0
3853,69.0,2.0,15.0,6.0,0.0
3854,50.0,0.0,20.0,3.0,0.0
3855,38.0,1.0,20.0,4.0,0.0
3856,87.0,0.0,15.0,5.0,0.0
3857,66.0,8.0,15.0,6.0,0.0
3858,81.0,0.0,15.0,5.0,0.0
3859,62.0,7.0,15.0,6.0,0.0
3860,79.0,0.0,20.0,0.0,0.0
3861,70.0,0.0,20.0,1.0,0.0
3862,67.0,0.0,20.0,2.0,0.0
3863,50.0,0.0,20.0,3.0,0.0
3864,38.0,9.0,20.0,4.0,0.0
3865,82.0,6.0,15.0,5.0,0.0
3866,67.0,3.0,20.0,6.0,0.0
3867,84.0,10.0,15.0,5.0,0.0
3868,86.0,12.0,20.0,5.0,0.0
3869,79.0,0.0,20.0,0.0,0.0
3870,70.0,0.0,20.0,1.0,0.0
3871,67.0,0.0,20.0,2.0,0.0
3872,50.0,0.0,20.0,3.0,0.0
3873,38.0,5.0,20.0,4.0,0.0
3874,70.0,1.0,20.0,6.0,0.0
3875,82.0,2.0,15.0,5.0,0.0
3876,77.0,0.0,20.0,0.0,0.0
3877,62.0,0.0,20.0,1.0,0.0
3878,71.0,0.0,20.0,2.0,0.0
3879,50.0,0.0,20.0,3.0,0.0
3880,38.0,9.0,20.0,4.0,0.0
3881,80.0,6.0,15.0,5.0,0.0
3882,74.0,3.0,20.0,6.0,0.0
3883,81.0,10.0,15.0,5.0,0.0
3884,83.0,12.0,20.0,5.0,0.0
3885,77.0,0.0,20.0,0.0,0.0
3886,62.0,0.0,20.0,1.0,0.0
3887,71.0,0.0,20.0,2.0,0.0
3888,50.0,0.0,20.0,3.0,0.0
3889,38.0,0.0,20.0,4.0,0.0
3890,62.0,1.0,20.0,6.0,0.0
3891,80.0,12.0,15.0,5.0,0.0
3892,76.0,0.0,40.0,0.0,0.0
3893,69.0,0.0,40.0,1.0,0.0
3894,72.0,3.0,40.0,2.0,0.0
3895,48.0,0.0,20.0,3.0,0.0
3896,36.0,1.0,20.0,4.0,0.0
3897,81.0,11.0,15.0,5.0,0.0
3898,76.0,12.0,15.0,5.0,0.0
3899,64.0,0.0,20.0,3.0,0.0
3900,52.0,1.0,20.0,4.0,0.0
3901,72.0,0.0,15.0,5.0,0.0
3902,60.0,8.0,15.0,6.0,0.0
3903,69.0,0.0,15.0,5.0,0.0
3904,62.0,12.0,15.0,6.0,0.0
3905,60.0,0.0,20.0,3.0,0.0
3906,48.0,0.0,20.0,4.0,0.0
3907,68.0,11.0,15.0,5.0,0.0
3908,64.0,1.0,20.0,6.0,0.0
3909,69.0,12.0,15.0,5.0,0.0
3910,57.0,0.0,20.0,3.0,0.0
3911,45.0,0.0,20.0,4.0,0.0
3912,72.0,11.0,15.0,5.0,0.0
3913,57.0,1.0,20.0,6.0,0.0
3914,76.0,7.0,15.0,5.0,0.0
3915,72.0,0.0,20.0,0.0,0.0
3916,69.0,0.0,20.0,1.0,0.0
3917,69.0,0.0,20.0,2.0,0.0
3918,45.0,0.0,20.0,3.0,0.0
3919,33.0,9.0,20.0,4.0,0.0
3920,77.0,6.0,15.0,5.0,0.0
3921,45.0,3.0,20.0,6.0,0.0
3922,79.0,10.0,15.0,5.0,0.0
3923,81.0,12.0,20.0,5.0,0.0
3924,72.0,0.0,20.0,0.0,0.0
3925,69.0,0.0,20.0,1.0,0.0
3926,69.0,0.0,20.0,2.0,0.0
3927,45.0,0.0,20.0,3.0,0.0
3928,33.0,5.0,20.0,4.0,0.0
3929,57.0,1.0,20.0,6.0,0.0
3930,77.0,2.0,15.0,5.0,0.0
3931,71.0,0.0,20.0,0.0,0.0
3932,66.0,0.0,20.0,1.0,0.0
3933,71.0,0.0,20.0,2.0,0.0
3934,45.0,0.0,20.0,3.0,0.0
3935,33.0,9.0,20.0,4.0,0.0
3936,75.0,6.0,15.0,5.0,0.0
3937,66.0,3.0,20.0,6.0,0.0
3938,76.0,10.0,15.0,5.0,0.0
3939,78.0,12.0,20.0,5.0,0.0
3940,71.0,0.0,20.0,0.0,0.0
3941,66.0,0.0,20.0,1.0,0.0
3942,71.0,0.0,20.0,2.0,0.0
3943,45.0,0.0,20.0,3.0,0.0
3944,33.0,0.0,20.0,4.0,0.0
3945,57.0,1.0,20.0,6.0,0.0
3946,75.0,12.0,15.0,5.0,0.0
3947,71.0,0.0,40.0,0.0,0.0
3948,64.0,0.0,40.0,1.0,0.0
3949,59.0,3.0,40.0,2.0,0.0
3950,43.0,0.0,20.0,3.0,0.0
3951,31.0,1.0,20.0,4.0,0.0
3952,76.0,11.0,15.0,5.0,0.0
3953,71.0,12.0,15.0,5.0,0.0
3954,59.0,0.0,20.0,3.0,0.0
3955,47.0,1.0,20.0,4.0,0.0
3956,67.0,0.0,15.0,5.0,0.0
3957,55.0,8.0,15.0,6.0,0.0
3958,64.0,0.0,15.0,5.0,0.0
3959,57.0,12.0,15.0,6.0,0.0
3960,55.0,0.0,20.0,3.0,0.0
3961,43.0,0.0,20.0,4.0,0.0
3962,63.0,11.0,15.0,5.0,0.0
3963,59.0,1.0,20.0,6.0,0.0
3964,64.0,12.0,15.0,5.0,0.0
3965,52.0,0.0,20.0,3.0,0.0
3966,40.0,0.0,20.0,4.0,0.0
3967,67.0,11.0,15.0,5.0,0.0
3968,52.0,1.0,20.0,6.0,0.0
3969,69.0,7.0,15.0,5.0,0.0
3970,67.0,0.0,20.0,0.0,0.0
3971,64.0,0.0,20.0,1.0,0.0
3972,64.0,0.0,20.0,2.0,0.0
3973,40.0,0.0,20.0,3.0,0.0
3974,28.0,9.0,20.0,4.0,0.0
3975,72.0,6.0,15.0,5.0,0.0
3976,40.0,3.0,20.0,6.0,0.0
3977,74.0,10.0,15.0,5.0,0.0
3978,76.0,12.0,20.0,5.0,0.0
3979,67.0,0.0,20.0,0.0,0.0
3980,64.0,0.0,20.0,1.0,0.0
3981,64.0,0.0,20.0,2.0,0.0
3982,40.0,0.0,20.0,3.0,0.0
3983,28.0,5.0,20.0,4.0,0.0
3984,52.0,1.0,20.0,6.0,0.0
3985,72.0,2.0,15.0,5.0,0.0
3986,66.0,0.0,20.0,0.0,0.0
3987,61.0,0.0,20.0,1.0,0.0
3988,66.0,0.0,20.0,2.0,0.0
3989,52.0,0.0,20.0,3.0,0.0
3990,40.0,9.0,20.0,4.0,0.0
3991,70.0,6.0,15.0,5.0,0.0
3992,61.0,3.0,20.0,6.0,0.0
3993,71.0,10.0,15.0,5.0,0.0
3994,73.0,12.0,20.0,5.0,0.0
3995,66.0,0.0,20.0,0.0,0.0
3996,61.0,0.0,20.0,1.0,0.0
3997,66.0,0.0,20.0,2.0,0.0
3998,52.0,0.0,20.0,3.0,0.0
3999,40.0,0.0,20.0,4.0,0.0
4000,52.0,1.0,20.0,6.0,0.0
4001,70.0,12.0,15.0,5.0,0.0
4002,66.0,0.0,40.0,0.0,0.0
4003,59.0,0.0,40.0,1.0,0.0
4004,54.0,3.0,40.0,2.0,0.0
4005,50.0,0.0,20.0,3.0,0.0
4006,38.0,0.0,20.0,4.0,0.0
4007,71.0,11.0,15.0,5.0,0.0
4008,50.0,1.0,20.0,6.0,0.0
4009,66.0,12.0,15.0,5.0,0.0
4010,52.0,0.0,20.0,3.0,0.0
4011,40.0,0.0,20.0,4.0,0.0
4012,68.0,8.0,15.0,5.0,0.0
4013,52.0,0.0,20.0,6.0,0.0
4014,61.0,1.0,20.0,6.0,0.0
4015,70.0,12.0,15.0,5.0,0.0
4016,50.0,0.0,20.0,3.0,0.0
4017,38.0,0.0,20.0,4.0,0.0
4018,71.0,11.0,15.0,5.0,0.0
4019,50.0,0.0,20.0,6.0,0.0
4020,59.0,1.0,20.0,6.0,0.0
4021,66.0,12.0,15.0,5.0,0.0
4022,49.0,0.0,20.0,3.0,0.0
4023,37.0,0.0,20.0,4.0,0.0
4024,73.0,11.0,15.0,5.0,0.0
4025,49.0,0.0,20.0,6.0,0.0
4026,58.0,1.0,20.0,6.0,0.0
4027,66.0,12.0,15.0,5.0,0.0
4028,47.0,0.0,20.0,3.0,0.0
4029,35.0,0.0,20.0,4.0,0.0
4030,74.0,11.0,15.0,5.0,0.0
4031,47.0,0.0,20.0,6.0,0.0
4032,59.0,1.0,20.0,6.0,0.0
4033,70.0,12.0,15.0,5.0,0.0
4034,59.0,0.0,20.0,3.0,0.0
4035,47.0,0.0,20.0,4.0,0.0
4036,71.0,11.0,15.0,5.0,0.0
4037,59.0,0.0,20.0,6.0,0.0
4038,66.0,1.0,20.0,6.0,0.0
4039,73.0,12.0,15.0,5.0,0.0
4040,57.0,0.0,20.0,3.0,0.0
4041,45.0,0.0,20.0,4.0,0.0
4042,74.0,11.0,15.0,5.0,0.0
4043,57.0,0.0,20.0,6.0,0.0
4044,66.0,1.0,20.0,6.0,0.0
4045,71.0,12.0,15.0,5.0,0.0
4046,55.0,0.0,20.0,3.0,0.0
4047,43.0,0.0,20.0,4.0,0.0
4048,76.0,11.0,15.0,5.0,0.0
4049,55.0,0.0,20.0,6.0,0.0
4050,59.0,1.0,20.0,6.0,0.0
4051,71.0,12.0,15.0,5.0,0.0
4052,54.0,0.0,20.0,3.0,0.0
4053,42.0,0.0,20.0,4.0,0.0
4054,70.0,11.0,15.0,5.0,0.0
4055,54.0,0.0,20.0,6.0,0.0
4056,61.0,1.0,20.0,6.0,0.0
4057,66.0,12.0,15.0,5.0,0.0
4058,55.0,0.0,20.0,3.0,0.0
4059,43.0,1.0,20.0,4.0,0.0
4060,70.0,11.0,15.0,5.0,0.0
4061,66.0,14.0,30.0,6.0,0.0
4062,73.0,9.0,15.0,5.0,0.0
4063,54.0,0.0,20.0,3.0,0.0
4064,42.0,1.0,20.0,4.0,0.0
4065,78.0,17.0,60.0,5.0,0.0
4066,64.0,12.0,15.0,6.0,0.0
4067,78.0,0.0,20.0,0.0,0.0
4068,73.0,0.0,20.0,1.0,0.0
4069,70.0,0.0,20.0,2.0,0.0
4070,52.0,0.0,20.0,3.0,0.0
4071,40.0,1.0,20.0,4.0,0.0
4072,62.0,11.0,15.0,6.0,0.0
4073,61.0,6.0,15.0,6.0,0.0
4074,83.0,0.0,40.0,0.0,0.0
4075,78.0,0.0,40.0,1.0,0.0
4076,71.0,3.0,40.0,2.0,0.0
4077,50.0,0.0,20.0,3.0,0.0
4078,38.0,0.0,20.0,4.0,0.0
4079,62.0,1.0,20.0,6.0,0.0
4080,71.0,12.0,15.0,5.0,0.0
4081,54.0,0.0,20.0,3.0,0.0
4082,42.0,1.0,20.0,4.0,0.0
4083,74.0,8.0,15.0,5.0,0.0
4084,59.0,14.0,30.0,6.0,0.0
4085,78.0,9.0,15.0,5.0,0.0
4086,50.0,0.0,20.0,3.0,0.0
4087,38.0,1.0,20.0,4.0,0.0
4088,83.0,6.0,60.0,5.0,0.0
4089,57.0,12.0,15.0,6.0,0.0
4090,78.0,0.0,20.0,0.0,0.0
4091,74.0,0.0,20.0,1.0,0.0
4092,71.0,0.0,20.0,2.0,0.0
4093,47.0,0.0,20.0,3.0,0.0
4094,35.0,1.0,20.0,4.0,0.0
4095,55.0,11.0,15.0,6.0,0.0
4096,54.0,6.0,15.0,6.0,0.0
4097,79.0,0.0,40.0,0.0,0.0
4098,76.0,0.0,40.0,1.0,0.0
4099,71.0,3.0,40.0,2.0,0.0
4100,52.0,0.0,20.0,3.0,0.0
4101,40.0,1.0,20.0,4.0,0.0
4102,52.0,11.0,15.0,6.0,0.0
4103,71.0,0.0,15.0,5.0,0.0
4104,54.0,12.0,15.0,6.0,0.0
4105,55.0,0.0,20.0,3.0,0.0
4106,43.0,1.0,20.0,4.0,0.0
4107,76.0,8.0,15.0,5.0,0.0
4108,55.0,14.0,30.0,6.0,0.0
4109,79.0,9.0,15.0,5.0,0.0
4110,52.0,0.0,20.0,3.0,0.0
4111,40.0,1.0,20.0,4.0,0.0
4112,83.0,6.0,60.0,5.0,0.0
4113,52.0,12.0,15.0,6.0,0.0
4114,76.0,0.0,20.0,0.0,0.0
4115,73.0,0.0,20.0,1.0,0.0
4116,73.0,0.0,20.0,2.0,0.0
4117,49.0,0.0,20.0,3.0,0.0
4118,37.0,1.0,20.0,4.0,0.0
4119,55.0,11.0,15.0,6.0,0.0
4120,59.0,12.0,15.0,6.0,0.0
4121,78.0,0.0,15.0,0.0,0.0
4122,74.0,3.0,15.0,1.0,0.0
4123,66.0,0.0,20.0,2.0,0.0
4124,50.0,0.0,20.0,3.0,0.0
4125,38.0,1.0,20.0,4.0,0.0
4126,62.0,2.0,15.0,6.0,0.0
4127,76.0,0.0,15.0,0.0,0.0
4128,76.0,10.0,15.0,1.0,0.0
4129,61.0,2.0,15.0,6.0,0.0
4130,74.0,0.0,15.0,0.0,0.0
4131,78.0,0.0,15.0,1.0,0.0
4132,66.0,0.0,20.0,2.0,0.0
4133,47.0,0.0,20.0,3.0,0.0
4134,35.0,0.0,20.0,4.0,0.0
4135,71.0,1.0,20.0,5.0,0.0
4136,62.0,11.0,15.0,6.0,0.0
4137,78.0,0.0,15.0,0.0,0.0
4138,74.0,0.0,15.0,1.0,0.0
4139,59.0,12.0,15.0,6.0,0.0
4140,76.0,2.0,15.0,0.0,0.0
4141,73.0,9.0,15.0,1.0,0.0
4142,66.0,0.0,20.0,2.0,0.0
4143,54.0,0.0,20.0,3.0,0.0
4144,42.0,0.0,20.0,4.0,0.0
4145,70.0,0.0,20.0,5.0,0.0
4146,66.0,1.0,20.0,6.0,0.0
4147,74.0,2.0,15.0,0.0,0.0
4148,74.0,10.0,15.0,1.0,0.0
4149,73.0,0.0,15.0,0.0,0.0
4150,76.0,11.0,15.0,1.0,0.0
4151,66.0,0.0,20.0,2.0,0.0
4152,42.0,0.0,20.0,3.0,0.0
4153,30.0,0.0,20.0,4.0,0.0
4154,76.0,0.0,20.0,5.0,0.0
4155,54.0,1.0,20.0,6.0,0.0
4156,76.0,0.0,15.0,0.0,0.0
4157,73.0,12.0,15.0,1.0,0.0
4158,74.0,0.0,20.0,0.0,0.0
4159,71.0,0.0,20.0,1.0,0.0
4160,66.0,0.0,20.0,2.0,0.0
4161,47.0,0.0,20.0,3.0,0.0
4162,35.0,0.0,20.0,4.0,0.0
4163,74.0,1.0,20.0,5.0,0.0
4164,59.0,11.0,15.0,6.0,0.0
4165,61.0,12.0,15.0,6.0,0.0
4166,71.0,0.0,20.0,0.0,0.0
4167,78.0,0.0,15.0,1.0,0.0
4168,66.0,0.0,20.0,2.0,0.0
4169,62.0,0.0,15.0,3.0,0.0
4170,50.0,0.0,15.0,4.0,0.0
4171,71.0,1.0,20.0,5.0,0.0
4172,62.0,11.0,15.0,6.0,0.0
4173,76.0,0.0,15.0,1.0,0.0
4174,61.0,0.0,15.0,3.0,0.0
4175,49.0,0.0,15.0,4.0,0.0
4176,61.0,12.0,15.0,6.0,0.0
4177,78.0,0.0,60.0,0.0,0.0
4178,74.0,0.0,15.0,1.0,0.0
4179,71.0,1.0,20.0,2.0,0.0
4180,59.0,0.0,15.0,3.0,0.0
4181,47.0,0.0,15.0,4.0,0.0
4182,78.0,3.0,60.0,5.0,0.0
4183,59.0,11.0,15.0,6.0,0.0
4184,73.0,0.0,15.0,1.0,0.0
4185,57.0,0.0,15.0,3.0,0.0
4186,45.0,0.0,15.0,4.0,0.0
4187,57.0,12.0,15.0,6.0,0.0
4188,71.0,0.0,15.0,1.0,0.0
4189,74.0,3.0,40.0,2.0,0.0
4190,55.0,0.0,15.0,3.0,0.0
4191,43.0,0.0,15.0,4.0,0.0
4192,55.0,12.0,15.0,6.0,0.0
4193,69.0,0.0,15.0,1.0,0.0
4194,54.0,0.0,15.0,3.0,0.0
4195,42.0,0.0,15.0,4.0,0.0
4196,54.0,12.0,15.0,6.0,0.0
4197,71.0,5.0,15.0,1.0,0.0
4198,55.0,0.0,20.0,3.0,0.0
4199,43.0,0.0,20.0,4.0,0.0
4200,55.0,1.0,20.0,6.0,0.0
4201,81.0,12.0,15.0,1.0,0.0
4202,76.0,0.0,15.0,0.0,0.0
4203,79.0,0.0,15.0,1.0,0.0
4204,64.0,0.0,15.0,2.0,0.0
4205,59.0,0.0,20.0,3.0,0.0
4206,47.0,0.0,20.0,4.0,0.0
4207,76.0,11.0,15.0,5.0,0.0
4208,59.0,1.0,20.0,6.0,0.0
4209,75.0,0.0,15.0,0.0,0.0
4210,78.0,0.0,15.0,1.0,0.0
4211,66.0,0.0,15.0,2.0,0.0
4212,75.0,12.0,15.0,5.0,0.0
4213,76.0,0.0,20.0,0.0,0.0
4214,76.0,11.0,15.0,1.0,0.0
4215,67.0,0.0,20.0,2.0,0.0
4216,55.0,0.0,20.0,3.0,0.0
4217,43.0,0.0,20.0,4.0,0.0
4218,76.0,0.0,20.0,5.0,0.0
4219,55.0,1.0,20.0,6.0,0.0
4220,74.0,12.0,15.0,1.0,0.0
4221,79.0,0.0,40.0,0.0,0.0
4222,73.0,11.0,15.0,1.0,0.0
4223,67.0,0.0,20.0,2.0,0.0
4224,52.0,0.0,20.0,3.0,0.0
4225,40.0,0.0,20.0,4.0,0.0
4226,79.0,3.0,40.0,5.0,0.0
4227,52.0,1.0,20.0,6.0,0.0
4228,71.0,20.0,15.0,1.0,0.0
4229,73.0,0.0,20.0,1.0,0.0
4230,64.0,0.0,20.0,2.0,0.0
4231,57.0,0.0,20.0,3.0,0.0
4232,45.0,0.0,20.0,4.0,0.0
4233,57.0,13.0,20.0,6.0,0.0
4234,73.0,0.0,20.0,0.0,0.0
4235,81.0,0.0,20.0,1.0,0.0
4236,76.0,0.0,20.0,2.0,0.0
4237,45.0,0.0,20.0,3.0,0.0
4238,33.0,0.0,20.0,4.0,0.0
4239,73.0,11.0,15.0,5.0,0.0
4240,45.0,1.0,20.0,6.0,0.0
4241,74.0,14.0,15.0,5.0,0.0
4242,76.0,10.0,15.0,5.0,0.0
4243,73.0,14.0,15.0,5.0,0.0
4244,74.0,10.0,15.0,5.0,0.0
4245,71.0,12.0,15.0,5.0,0.0
4246,73.0,12.0,15.0,5.0,0.0
4247,69.0,0.0,15.0,5.0,0.0
4248,61.0,12.0,15.0,6.0,0.0
4249,68.0,0.0,15.0,5.0,0.0
4250,59.0,12.0,15.0,6.0,0.0
4251,69.0,0.0,15.0,5.0,0.0
4252,61.0,12.0,15.0,6.0,0.0
4253,73.0,0.0,15.0,5.0,0.0
4254,57.0,12.0,15.0,6.0,0.0
4255,69.0,0.0,15.0,5.0,0.0
4256,61.0,12.0,15.0,6.0,0.0
4257,76.0,0.0,15.0,5.0,0.0
4258,52.0,12.0,15.0,6.0,0.0
4259,73.0,0.0,15.0,5.0,0.0
4260,57.0,12.0,15.0,6.0,0.0
4261,81.0,1.0,20.0,5.0,0.0
4262,49.0,11.0,15.0,6.0,0.0
4263,62.0,12.0,15.0,6.0,0.0
4264,69.0,0.0,20.0,0.0,0.0
4265,76.0,0.0,15.0,1.0,0.0
4266,64.0,0.0,20.0,2.0,0.0
4267,61.0,0.0,15.0,3.0,0.0
4268,49.0,0.0,15.0,4.0,0.0
4269,69.0,1.0,20.0,5.0,0.0
4270,61.0,11.0,15.0,6.0,0.0
4271,74.0,0.0,15.0,1.0,0.0
4272,59.0,0.0,15.0,3.0,0.0
4273,47.0,0.0,15.0,4.0,0.0
4274,59.0,12.0,15.0,6.0,0.0
4275,76.0,0.0,60.0,0.0,0.0
4276,73.0,0.0,15.0,1.0,0.0
4277,69.0,1.0,20.0,2.0,0.0
4278,57.0,0.0,15.0,3.0,0.0
4279,45.0,0.0,15.0,4.0,0.0
4280,76.0,3.0,60.0,5.0,0.0
4281,57.0,11.0,15.0,6.0,0.0
4282,71.0,0.0,15.0,1.0,0.0
4283,55.0,0.0,15.0,3.0,0.0
4284,43.0,0.0,15.0,4.0,0.0
4285,55.0,12.0,15.0,6.0,0.0
4286,69.0,0.0,15.0,1.0,0.0
4287,73.0,3.0,40.0,2.0,0.0
4288,54.0,0.0,15.0,3.0,0.0
4289,42.0,0.0,15.0,4.0,0.0
4290,54.0,12.0,15.0,6.0,0.0
4291,67.0,0.0,15.0,1.0,0.0
4292,52.0,0.0,15.0,3.0,0.0
4293,40.0,0.0,15.0,4.0,0.0
4294,52.0,12.0,15.0,6.0,0.0
4295,69.0,5.0,15.0,1.0,0.0
4296,54.0,0.0,20.0,3.0,0.0
4297,42.0,0.0,20.0,4.0,0.0
4298,54.0,1.0,20.0,6.0,0.0
4299,79.0,12.0,15.0,1.0,0.0
4300,74.0,0.0,15.0,0.0,0.0
4301,78.0,0.0,15.0,1.0,0.0
4302,62.0,0.0,15.0,2.0,0.0
4303,57.0,0.0,20.0,3.0,0.0
4304,45.0,0.0,20.0,4.0,0.0
4305,74.0,11.0,15.0,5.0,0.0
4306,57.0,1.0,20.0,6.0,0.0
4307,73.0,0.0,15.0,0.0,0.0
4308,76.0,0.0,15.0,1.0,0.0
4309,64.0,0.0,15.0,2.0,0.0
4310,73.0,12.0,15.0,5.0,0.0
4311,74.0,0.0,20.0,0.0,0.0
4312,74.0,11.0,15.0,1.0,0.0
4313,66.0,0.0,20.0,2.0,0.0
4314,54.0,0.0,20.0,3.0,0.0
4315,42.0,0.0,20.0,4.0,0.0
4316,74.0,0.0,20.0,5.0,0.0
4317,54.0,1.0,20.0,6.0,0.0
4318,73.0,12.0,15.0,1.0,0.0
4319,78.0,0.0,40.0,0.0,0.0
4320,71.0,11.0,15.0,1.0,0.0
4321,66.0,0.0,20.0,2.0,0.0
4322,50.0,0.0,20.0,3.0,0.0
4323,38.0,0.0,20.0,4.0,0.0
4324,78.0,3.0,40.0,5.0,0.0
4325,50.0,1.0,20.0,6.0,0.0
4326,70.0,20.0,15.0,1.0,0.0
4327,71.0,0.0,20.0,1.0,0.0
4328,62.0,0.0,20.0,2.0,0.0
4329,55.0,0.0,20.0,3.0,0.0
4330,43.0,0.0,20.0,4.0,0.0
4331,55.0,13.0,20.0,6.0,0.0
4332,71.0,0.0,20.0,0.0,0.0
4333,79.0,0.0,20.0,1.0,0.0
4334,74.0,0.0,20.0,2.0,0.0
4335,43.0,0.0,20.0,3.0,0.0
4336,31.0,0.0,20.0,4.0,0.0
4337,71.0,11.0,15.0,5.0,0.0
4338,43.0,1.0,20.0,6.0,0.0
4339,73.0,12.0,15.0,5.0,0.0
4340,74.0,12.0,15.0,5.0,0.0
4341,71.0,12.0,15.0,5.0,0.0
4342,73.0,12.0,15.0,5.0,0.0
4343,70.0,12.0,15.0,5.0,0.0
4344,71.0,12.0,15.0,5.0,0.0
4345,67.0,0.0,15.0,5.0,0.0
4346,59.0,12.0,15.0,6.0,0.0
4347,66.0,0.0,15.0,5.0,0.0
4348,57.0,12.0,15.0,6.0,0.0
4349,67.0,0.0,15.0,5.0,0.0
4350,59.0,12.0,15.0,6.0,0.0
4351,71.0,0.0,15.0,5.0,0.0
4352,55.0,12.0,15.0,6.0,0.0
4353,67.0,0.0,15.0,5.0,0.0
4354,59.0,12.0,15.0,6.0,0.0
4355,74.0,0.0,15.0,5.0,0.0
4356,50.0,12.0,15.0,6.0,0.0
4357,71.0,0.0,15.0,5.0,0.0
4358,55.0,12.0,15.0,6.0,0.0
4359,79.0,1.0,20.0,5.0,0.0
4360,47.0,11.0,15.0,6.0,0.0
4361,60.0,12.0,15.0,6.0,0.0
4362,67.0,0.0,20.0,0.0,0.0
4363,74.0,0.0,15.0,1.0,0.0
4364,62.0,0.0,20.0,2.0,0.0
4365,59.0,0.0,15.0,3.0,0.0
4366,47.0,0.0,15.0,4.0,0.0
4367,67.0,1.0,20.0,5.0,0.0
4368,59.0,11.0,15.0,6.0,0.0
4369,73.0,0.0,15.0,1.0,0.0
4370,57.0,0.0,15.0,3.0,0.0
4371,45.0,0.0,15.0,4.0,0.0
4372,57.0,12.0,15.0,6.0,0.0
4373,74.0,0.0,60.0,0.0,0.0
4374,71.0,0.0,15.0,1.0,0.0
4375,67.0,1.0,20.0,2.0,0.0
4376,55.0,0.0,15.0,3.0,0.0
4377,43.0,0.0,15.0,4.0,0.0
4378,74.0,3.0,60.0,5.0,0.0
4379,55.0,11.0,15.0,6.0,0.0
4380,69.0,0.0,15.0,1.0,0.0
4381,54.0,0.0,15.0,3.0,0.0
4382,42.0,0.0,15.0,4.0,0.0
4383,54.0,12.0,15.0,6.0,0.0
4384,67.0,0.0,15.0,1.0,0.0
4385,71.0,4.0,40.0,2.0,0.0
4386,52.0,0.0,15.0,3.0,0.0
4387,40.0,0.0,15.0,4.0,0.0
4388,52.0,12.0,15.0,6.0,0.0
4389,66.0,0.0,15.0,1.0,0.0
4390,50.0,0.0,15.0,3.0,0.0
4391,38.0,0.0,15.0,4.0,0.0
4392,50.0,12.0,15.0,6.0,0.0
4393,67.0,6.0,60.0,1.0,0.0
4394,52.0,0.0,15.0,3.0,0.0
4395,40.0,0.0,15.0,4.0,0.0
4396,52.0,5.0,15.0,6.0,0.0
4397,54.0,0.0,15.0,3.0,0.0
4398,42.0,0.0,15.0,4.0,0.0
4399,54.0,12.0,15.0,6.0,0.0
4400,73.0,0.0,15.0,0.0,0.0
4401,70.0,0.0,15.0,2.0,0.0
4402,52.0,0.0,15.0,3.0,0.0
4403,40.0,0.0,15.0,4.0,0.0
4404,73.0,0.0,15.0,5.0,0.0
4405,52.0,12.0,15.0,6.0,0.0
4406,74.0,0.0,15.0,0.0,0.0
4407,71.0,0.0,15.0,2.0,0.0
4408,50.0,0.0,15.0,3.0,0.0
4409,38.0,0.0,15.0,4.0,0.0
4410,74.0,0.0,15.0,5.0,0.0
4411,50.0,6.0,15.0,6.0,0.0
4412,76.0,0.0,20.0,0.0,0.0
4413,73.0,0.0,20.0,2.0,0.0
4414,49.0,0.0,15.0,3.0,0.0
4415,37.0,0.0,15.0,4.0,0.0
4416,76.0,1.0,20.0,5.0,0.0
4417,49.0,11.0,15.0,6.0,0.0
4418,66.0,0.0,15.0,1.0,0.0
4419,50.0,0.0,15.0,3.0,0.0
4420,38.0,0.0,15.0,4.0,0.0
4421,50.0,12.0,15.0,6.0,0.0
4422,67.0,0.0,20.0,0.0,0.0
4423,64.0,0.0,15.0,1.0,0.0
4424,61.0,3.0,40.0,2.0,0.0
4425,49.0,0.0,15.0,3.0,0.0
4426,37.0,0.0,15.0,4.0,0.0
4427,67.0,1.0,20.0,5.0,0.0
4428,49.0,11.0,15.0,6.0,0.0
4429,62.0,0.0,15.0,1.0,0.0
4430,47.0,0.0,15.0,3.0,0.0
4431,35.0,0.0,15.0,4.0,0.0
4432,47.0,12.0,15.0,6.0,0.0
4433,66.0,0.0,20.0,0.0,0.0
4434,61.0,0.0,20.0,1.0,0.0
4435,46.0,0.0,15.0,3.0,0.0
4436,34.0,0.0,15.0,4.0,0.0
4437,66.0,1.0,20.0,5.0,0.0
4438,46.0,8.0,15.0,6.0,0.0
4439,42.0,0.0,15.0,3.0,0.0
4440,30.0,0.0,15.0,4.0,0.0
4441,42.0,12.0,15.0,6.0,0.0
4442,76.0,0.0,20.0,0.0,0.0
4443,73.0,0.0,20.0,1.0,0.0
4444,54.0,0.0,20.0,2.0,0.0
4445,44.0,0.0,15.0,3.0,0.0
4446,32.0,0.0,15.0,4.0,0.0
4447,76.0,1.0,20.0,5.0,0.0
4448,44.0,11.0,15.0,6.0,0.0
4449,46.0,0.0,15.0,3.0,0.0
4450,34.0,0.0,15.0,4.0,0.0
4451,46.0,12.0,15.0,6.0,0.0
4452,74.0,0.0,20.0,0.0,0.0
4453,71.0,0.0,20.0,1.0,0.0
4454,66.0,0.0,20.0,2.0,0.0
4455,47.0,0.0,15.0,3.0,0.0
4456,35.0,0.0,15.0,4.0,0.0
4457,74.0,1.0,20.0,5.0,0.0
4458,47.0,11.0,15.0,6.0,0.0
4459,49.0,0.0,15.0,3.0,0.0
4460,37.0,0.0,15.0,4.0,0.0
4461,49.0,12.0,15.0,6.0,0.0
4462,66.0,0.0,20.0,0.0,0.0
4463,59.0,3.0,40.0,1.0,0.0
4464,62.0,0.0,20.0,2.0,0.0
4465,50.0,0.0,15.0,3.0,0.0
4466,38.0,0.0,15.0,4.0,0.0
4467,66.0,1.0,20.0,5.0,0.0
4468,50.0,11.0,15.0,6.0,0.0
4469,47.0,0.0,15.0,3.0,0.0
4470,35.0,0.0,15.0,4.0,0.0
4471,47.0,12.0,15.0,6.0,0.0
4472,64.0,0.0,15.0,0.0,0.0
4473,59.0,0.0,20.0,2.0,0.0
4474,43.0,0.0,20.0,3.0,0.0
4475,31.0,0.0,20.0,4.0,0.0
4476,64.0,8.0,15.0,5.0,0.0
4477,55.0,1.0,20.0,6.0,0.0
4478,74.0,0.0,15.0,0.0,0.0
4479,74.0,12.0,15.0,5.0,0.0
4480,73.0,0.0,15.0,0.0,0.0
4481,66.0,0.0,20.0,1.0,0.0
4482,62.0,0.0,20.0,2.0,0.0
4483,50.0,0.0,20.0,3.0,0.0
4484,38.0,0.0,20.0,4.0,0.0
4485,73.0,11.0,15.0,5.0,0.0
4486,50.0,1.0,20.0,6.0,0.0
4487,71.0,0.0,15.0,0.0,0.0
4488,71.0,12.0,15.0,5.0,0.0
4489,73.0,0.0,15.0,0.0,0.0
4490,64.0,0.0,20.0,1.0,0.0
4491,67.0,0.0,20.0,2.0,0.0
4492,52.0,0.0,20.0,3.0,0.0
4493,40.0,0.0,20.0,4.0,0.0
4494,73.0,11.0,15.0,5.0,0.0
4495,52.0,1.0,20.0,6.0,0.0
4496,71.0,0.0,15.0,0.0,0.0
4497,71.0,12.0,15.0,5.0,0.0
4498,70.0,0.0,15.0,0.0,0.0
4499,76.0,3.0,40.0,1.0,0.0
4500,64.0,0.0,20.0,2.0,0.0
4501,49.0,0.0,20.0,3.0,0.0
4502,37.0,0.0,20.0,4.0,0.0
4503,70.0,11.0,15.0,5.0,0.0
4504,49.0,1.0,20.0,6.0,0.0
4505,68.0,0.0,15.0,0.0,0.0
4506,68.0,20.0,15.0,5.0,0.0
4507,70.0,0.0,20.0,0.0,0.0
4508,61.0,0.0,20.0,2.0,0.0
4509,54.0,0.0,30.0,3.0,0.0
4510,42.0,0.0,30.0,4.0,0.0
4511,70.0,10.0,20.0,5.0,0.0
4512,54.0,10.0,30.0,6.0,0.0
4513,79.0,0.0,20.0,0.0,0.0
4514,73.0,0.0,20.0,1.0,0.0
4515,76.0,0.0,20.0,2.0,0.0
4516,79.0,2.0,20.0,5.0,0.0
4517,56.0,0.0,15.0,3.0,0.0
4518,44.0,0.0,15.0,4.0,0.0
4519,56.0,4.0,15.0,6.0,0.0
4520,58.0,0.0,15.0,3.0,0.0
4521,46.0,0.0,15.0,4.0,0.0
4522,58.0,11.0,15.0,6.0,0.0
4523,78.0,0.0,20.0,0.0,0.0
4524,74.0,0.0,20.0,1.0,0.0
4525,74.0,0.0,20.0,2.0,0.0
4526,59.0,0.0,15.0,3.0,0.0
4527,47.0,0.0,15.0,4.0,0.0
4528,78.0,1.0,20.0,5.0,0.0
4529,59.0,11.0,15.0,6.0,0.0
4530,61.0,0.0,15.0,3.0,0.0
4531,49.0,0.0,15.0,4.0,0.0
4532,61.0,12.0,15.0,6.0,0.0
4533,83.0,0.0,20.0,0.0,0.0
4534,78.0,0.0,20.0,1.0,0.0
4535,71.0,0.0,20.0,2.0,0.0
4536,62.0,0.0,15.0,3.0,0.0
4537,50.0,0.0,15.0,4.0,0.0
4538,83.0,1.0,20.0,5.0,0.0
4539,62.0,11.0,15.0,6.0,0.0
4540,64.0,0.0,15.0,3.0,0.0
4541,52.0,0.0,15.0,4.0,0.0
4542,64.0,14.0,15.0,6.0,0.0
4543,86.0,0.0,40.0,0.0,0.0
4544,78.0,0.0,40.0,1.0,0.0
4545,71.0,0.0,40.0,2.0,0.0
4546,66.0,0.0,20.0,3.0,0.0
4547,54.0,0.0,20.0,4.0,0.0
4548,83.0,0.0,40.0,5.0,0.0
4549,78.0,1.0,40.0,5.0,0.0
4550,66.0,21.0,20.0,6.0,0.0
4551,85.0,9.0,15.0,5.0,0.0
4552,86.0,2.0,30.0,5.0,0.0
4553,64.0,0.0,20.0,3.0,0.0
4554,52.0,0.0,20.0,4.0,0.0
4555,64.0,9.0,20.0,6.0,0.0
4556,85.0,0.0,15.0,0.0,0.0
4557,78.0,6.0,90.0,1.0,0.0
4558,70.0,6.0,15.0,2.0,0.0
4559,66.0,0.0,20.0,3.0,0.0
4560,54.0,0.0,20.0,4.0,0.0
4561,85.0,6.0,60.0,5.0,0.0
4562,82.0,0.0,40.0,5.0,0.0
4563,78.0,3.0,40.0,5.0,0.0
4564,66.0,3.0,20.0,6.0,0.0
4565,86.0,0.0,15.0,0.0,0.0
4566,71.0,6.0,15.0,2.0,0.0
4567,85.0,0.0,15.0,0.0,0.0
4568,70.0,3.0,15.0,2.0,0.0
4569,86.0,0.0,15.0,0.0,0.0
4570,71.0,6.0,15.0,2.0,0.0
4571,85.0,0.0,15.0,0.0,0.0
4572,70.0,6.0,15.0,2.0,0.0
4573,54.0,0.0,20.0,3.0,0.0
4574,42.0,0.0,20.0,4.0,0.0
4575,54.0,3.0,20.0,6.0,0.0
4576,86.0,0.0,15.0,0.0,0.0
4577,71.0,6.0,15.0,2.0,0.0
4578,85.0,0.0,15.0,0.0,0.0
4579,70.0,0.0,15.0,2.0,0.0
4580,86.0,0.0,15.0,0.0,0.0
4581,71.0,4.0,15.0,2.0,0.0
4582,85.0,0.0,40.0,0.0,0.0
4583,70.0,3.0,40.0,2.0,0.0
4584,52.0,0.0,20.0,3.0,0.0
4585,40.0,1.0,20.0,4.0,0.0
4586,64.0,11.0,15.0,6.0,0.0
4587,86.0,0.0,15.0,5.0,0.0
4588,62.0,12.0,15.0,6.0,0.0
4589,54.0,0.0,20.0,3.0,0.0
4590,42.0,1.0,20.0,4.0,0.0
4591,88.0,0.0,15.0,5.0,0.0
4592,61.0,2.0,15.0,6.0,0.0
4593,86.0,0.0,15.0,5.0,0.0
4594,62.0,12.0,15.0,6.0,0.0
4595,52.0,0.0,20.0,3.0,0.0
4596,40.0,1.0,20.0,4.0,0.0
4597,85.0,0.0,15.0,5.0,0.0
4598,64.0,11.0,15.0,6.0,0.0
4599,88.0,0.0,15.0,5.0,0.0
4600,67.0,12.0,15.0,6.0,0.0
4601,50.0,0.0,20.0,3.0,0.0
4602,38.0,1.0,20.0,4.0,0.0
4603,83.0,0.0,15.0,5.0,0.0
4604,62.0,11.0,15.0,6.0,0.0
4605,88.0,0.0,15.0,5.0,0.0
4606,67.0,12.0,15.0,6.0,0.0
4607,88.0,0.0,40.0,0.0,0.0
4608,73.0,0.0,40.0,1.0,0.0
4609,67.0,3.0,40.0,2.0,0.0
4610,49.0,0.0,20.0,3.0,0.0
4611,37.0,1.0,20.0,4.0,0.0
4612,82.0,0.0,15.0,5.0,0.0
4613,61.0,11.0,15.0,6.0,0.0
4614,83.0,0.0,15.0,5.0,0.0
4615,59.0,12.0,15.0,6.0,0.0
4616,50.0,0.0,20.0,3.0,0.0
4617,38.0,1.0,20.0,4.0,0.0
4618,85.0,0.0,15.0,5.0,0.0
4619,58.0,8.0,15.0,6.0,0.0
4620,83.0,0.0,15.0,5.0,0.0
4621,59.0,12.0,15.0,6.0,0.0
4622,49.0,0.0,20.0,3.0,0.0
4623,37.0,1.0,20.0,4.0,0.0
4624,82.0,0.0,15.0,5.0,0.0
4625,61.0,11.0,15.0,6.0,0.0
4626,85.0,0.0,15.0,5.0,0.0
4627,62.0,12.0,15.0,6.0,0.0
4628,47.0,0.0,20.0,3.0,0.0
4629,35.0,1.0,20.0,4.0,0.0
4630,79.0,0.0,15.0,5.0,0.0
4631,64.0,11.0,15.0,6.0,0.0
4632,85.0,0.0,15.0,5.0,0.0
4633,66.0,12.0,15.0,6.0,0.0
4634,79.0,0.0,40.0,0.0,0.0
4635,76.0,0.0,40.0,1.0,0.0
4636,61.0,3.0,40.0,2.0,0.0
4637,46.0,0.0,20.0,3.0,0.0
4638,34.0,1.0,20.0,4.0,0.0
4639,76.0,0.0,15.0,5.0,0.0
4640,67.0,11.0,15.0,6.0,0.0
4641,78.0,0.0,15.0,5.0,0.0
4642,66.0,12.0,15.0,6.0,0.0
4643,47.0,0.0,20.0,3.0,0.0
4644,35.0,1.0,20.0,4.0,0.0
4645,79.0,0.0,15.0,5.0,0.0
4646,64.0,8.0,15.0,6.0,0.0
4647,78.0,0.0,15.0,5.0,0.0
4648,66.0,12.0,15.0,6.0,0.0
4649,49.0,0.0,20.0,3.0,0.0
4650,37.0,1.0,20.0,4.0,0.0
4651,76.0,0.0,15.0,5.0,0.0
4652,67.0,11.0,15.0,6.0,0.0
4653,79.0,0.0,15.0,5.0,0.0
4654,70.0,12.0,15.0,6.0,0.0
4655,50.0,0.0,20.0,3.0,0.0
4656,38.0,1.0,20.0,4.0,0.0
4657,74.0,0.0,15.0,5.0,0.0
4658,66.0,11.0,15.0,6.0,0.0
4659,79.0,0.0,15.0,5.0,0.0
4660,70.0,12.0,15.0,6.0,0.0
4661,76.0,0.0,40.0,0.0,0.0
4662,73.0,0.0,40.0,1.0,0.0
4663,67.0,3.0,40.0,2.0,0.0
4664,52.0,0.0,20.0,3.0,0.0
4665,40.0,1.0,20.0,4.0,0.0
4666,73.0,0.0,15.0,5.0,0.0
4667,64.0,11.0,15.0,6.0,0.0
4668,74.0,0.0,15.0,5.0,0.0
4669,62.0,12.0,15.0,6.0,0.0
4670,54.0,0.0,20.0,3.0,0.0
4671,42.0,1.0,20.0,4.0,0.0
4672,76.0,0.0,15.0,5.0,0.0
4673,61.0,8.0,15.0,6.0,0.0
4674,74.0,0.0,15.0,5.0,0.0
4675,62.0,12.0,15.0,6.0,0.0
4676,55.0,0.0,20.0,3.0,0.0
4677,43.0,1.0,20.0,4.0,0.0
4678,73.0,0.0,15.0,5.0,0.0
4679,64.0,11.0,15.0,6.0,0.0
4680,76.0,0.0,15.0,5.0,0.0
4681,67.0,12.0,15.0,6.0,0.0
4682,49.0,0.0,20.0,3.0,0.0
4683,37.0,1.0,20.0,4.0,0.0
4684,71.0,0.0,15.0,5.0,0.0
4685,64.0,11.0,15.0,6.0,0.0
4686,76.0,0.0,15.0,5.0,0.0
4687,61.0,12.0,15.0,6.0,0.0
4688,76.0,0.0,90.0,0.0,0.0
4689,73.0,10.0,90.0,1.0,0.0
4690,70.0,9.0,120.0,2.0,0.0
4691,54.0,0.0,20.0,3.0,0.0
4692,42.0,0.0,20.0,4.0,0.0
4693,70.0,11.0,15.0,5.0,0.0
4694,66.0,1.0,20.0,6.0,0.0
4695,76.0,12.0,15.0,5.0,0.0
4696,52.0,0.0,15.0,3.0,0.0
4697,40.0,0.0,15.0,4.0,0.0
4698,66.0,0.0,15.0,5.0,0.0
4699,64.0,12.0,15.0,6.0,0.0
4700,50.0,0.0,15.0,3.0,0.0
4701,38.0,0.0,15.0,4.0,0.0
4702,68.0,0.0,15.0,5.0,0.0
4703,62.0,12.0,15.0,6.0,0.0
4704,49.0,0.0,20.0,3.0,0.0
4705,37.0,1.0,20.0,4.0,0.0
4706,70.0,0.0,15.0,5.0,0.0
4707,61.0,11.0,15.0,6.0,0.0
4708,71.0,0.0,15.0,5.0,0.0
4709,62.0,12.0,15.0,6.0,0.0
4710,47.0,0.0,20.0,3.0,0.0
4711,35.0,1.0,20.0,4.0,0.0
4712,73.0,0.0,15.0,5.0,0.0
4713,64.0,11.0,15.0,6.0,0.0
4714,74.0,0.0,15.0,5.0,0.0
4715,62.0,2.0,15.0,6.0,0.0
4716,46.0,0.0,20.0,3.0,0.0
4717,34.0,1.0,20.0,4.0,0.0
4718,76.0,0.0,15.0,5.0,0.0
4719,61.0,2.0,15.0,6.0,0.0
4720,78.0,0.0,15.0,0.0,0.0
4721,74.0,0.0,15.0,1.0,0.0
4722,78.0,0.0,15.0,5.0,0.0
4723,59.0,12.0,15.0,6.0,0.0
4724,80.0,0.0,15.0,0.0,0.0
4725,76.0,0.0,15.0,1.0,0.0
4726,71.0,3.0,40.0,2.0,0.0
4727,44.0,0.0,20.0,3.0,0.0
4728,32.0,1.0,20.0,4.0,0.0
4729,80.0,0.0,15.0,5.0,0.0
4730,58.0,11.0,15.0,6.0,0.0
4731,82.0,0.0,15.0,0.0,0.0
4732,78.0,0.0,15.0,1.0,0.0
4733,82.0,0.0,15.0,5.0,0.0
4734,56.0,12.0,15.0,6.0,0.0
4735,83.0,0.0,15.0,0.0,0.0
4736,80.0,0.0,15.0,1.0,0.0
4737,42.0,0.0,20.0,3.0,0.0
4738,30.0,1.0,20.0,4.0,0.0
4739,83.0,0.0,15.0,5.0,0.0
4740,54.0,8.0,15.0,6.0,0.0
4741,85.0,0.0,15.0,0.0,0.0
4742,82.0,0.0,15.0,1.0,0.0
4743,85.0,0.0,15.0,5.0,0.0
4744,52.0,12.0,15.0,6.0,0.0
4745,86.0,0.0,15.0,0.0,0.0
4746,83.0,0.0,15.0,1.0,0.0
4747,61.0,0.0,20.0,2.0,0.0
4748,52.0,0.0,20.0,3.0,0.0
4749,40.0,1.0,20.0,4.0,0.0
4750,86.0,0.0,15.0,5.0,0.0
4751,50.0,11.0,15.0,6.0,0.0
4752,88.0,0.0,15.0,0.0,0.0
4753,85.0,0.0,15.0,1.0,0.0
4754,88.0,0.0,15.0,5.0,0.0
4755,49.0,23.0,15.0,6.0,0.0
4756,90.0,0.0,20.0,0.0,0.0
4757,78.0,0.0,20.0,1.0,0.0
4758,59.0,0.0,20.0,2.0,0.0
4759,50.0,0.0,20.0,3.0,0.0
4760,38.0,0.0,20.0,4.0,0.0
4761,90.0,0.0,20.0,5.0,0.0
4762,47.0,24.0,20.0,6.0,0.0
4763,83.0,0.0,20.0,0.0,0.0
4764,74.0,0.0,20.0,1.0,0.0
4765,62.0,0.0,20.0,2.0,0.0
4766,55.0,0.0,20.0,3.0,0.0
4767,43.0,0.0,20.0,4.0,0.0
4768,83.0,0.0,20.0,5.0,0.0
4769,55.0,24.0,20.0,6.0,0.0
4770,85.0,0.0,20.0,0.0,0.0
4771,76.0,0.0,20.0,1.0,0.0
4772,67.0,0.0,20.0,2.0,0.0
4773,52.0,0.0,20.0,3.0,0.0
4774,40.0,0.0,20.0,4.0,0.0
4775,85.0,0.0,20.0,5.0,0.0
4776,52.0,24.0,20.0,6.0,0.0
4777,82.0,0.0,20.0,0.0,0.0
4778,73.0,0.0,20.0,1.0,0.0
4779,66.0,0.0,20.0,2.0,0.0
4780,54.0,0.0,20.0,3.0,0.0
4781,42.0,0.0,20.0,4.0,0.0
4782,82.0,0.0,20.0,5.0,0.0
4783,54.0,13.0,20.0,6.0,0.0
4784,83.0,0.0,15.0,0.0,0.0
4785,71.0,1.0,20.0,1.0,0.0
4786,66.0,10.0,20.0,2.0,0.0
4787,43.0,0.0,40.0,3.0,0.0
4788,31.0,3.0,40.0,4.0,0.0
4789,83.0,0.0,15.0,5.0,0.0
4790,43.0,11.0,15.0,6.0,0.0
4791,81.0,0.0,15.0,0.0,0.0
4792,81.0,0.0,15.0,5.0,0.0
4793,47.0,2.0,15.0,6.0,0.0
4794,79.0,0.0,15.0,0.0,0.0
4795,83.0,0.0,15.0,1.0,0.0
4796,64.0,1.0,20.0,2.0,0.0
4797,79.0,0.0,15.0,5.0,0.0
4798,49.0,8.0,15.0,6.0,0.0
4799,78.0,0.0,15.0,0.0,0.0
4800,81.0,0.0,15.0,1.0,0.0
4801,78.0,0.0,15.0,5.0,0.0
4802,51.0,12.0,15.0,6.0,0.0
4803,76.0,0.0,20.0,0.0,0.0
4804,79.0,0.0,15.0,1.0,0.0
4805,76.0,1.0,20.0,5.0,0.0
4806,52.0,11.0,15.0,6.0,0.0
4807,78.0,0.0,15.0,1.0,0.0
4808,54.0,12.0,15.0,6.0,0.0
4809,76.0,0.0,20.0,0.0,0.0
4810,76.0,0.0,15.0,1.0,0.0
4811,59.0,0.0,20.0,2.0,0.0
4812,55.0,0.0,20.0,3.0,0.0
4813,43.0,0.0,20.0,4.0,0.0
4814,76.0,1.0,20.0,5.0,0.0
4815,55.0,11.0,15.0,6.0,0.0
4816,74.0,0.0,15.0,1.0,0.0
4817,52.0,12.0,15.0,6.0,0.0
4818,76.0,0.0,15.0,0.0,0.0
4819,73.0,0.0,15.0,1.0,0.0
4820,61.0,1.0,20.0,2.0,0.0
4821,46.0,0.0,20.0,3.0,0.0
4822,34.0,0.0,20.0,4.0,0.0
4823,76.0,11.0,15.0,5.0,0.0
4824,58.0,10.0,20.0,6.0,0.0
4825,78.0,0.0,15.0,0.0,0.0
4826,71.0,0.0,15.0,1.0,0.0
4827,78.0,2.0,15.0,5.0,0.0
4828,79.0,0.0,30.0,0.0,0.0
4829,70.0,11.0,15.0,1.0,0.0
4830,64.0,1.0,20.0,2.0,0.0
4831,46.0,0.0,20.0,3.0,0.0
4832,34.0,0.0,20.0,4.0,0.0
4833,79.0,3.0,30.0,5.0,0.0
4834,58.0,7.0,20.0,6.0,0.0
4835,71.0,2.0,15.0,1.0,0.0
4836,73.0,11.0,15.0,1.0,0.0
4837,46.0,0.0,20.0,3.0,0.0
4838,34.0,0.0,20.0,4.0,0.0
4839,58.0,1.0,20.0,6.0,0.0
4840,78.0,0.0,15.0,0.0,0.0
4841,74.0,0.0,15.0,1.0,0.0
4842,78.0,12.0,15.0,5.0,0.0
4843,76.0,0.0,15.0,0.0,0.0
4844,76.0,0.0,15.0,1.0,0.0
4845,73.0,0.0,20.0,2.0,0.0
4846,61.0,0.0,20.0,3.0,0.0
4847,49.0,0.0,20.0,4.0,0.0
4848,76.0,11.0,15.0,5.0,0.0
4849,61.0,1.0,20.0,6.0,0.0
4850,74.0,0.0,15.0,0.0,0.0
4851,78.0,0.0,15.0,1.0,0.0
4852,74.0,12.0,15.0,5.0,0.0
4853,73.0,0.0,15.0,0.0,0.0
4854,79.0,0.0,15.0,1.0,0.0
4855,70.0,1.0,20.0,2.0,0.0
4856,52.0,0.0,20.0,3.0,0.0
4857,40.0,0.0,20.0,4.0,0.0
4858,73.0,11.0,15.0,5.0,0.0
4859,52.0,10.0,20.0,6.0,0.0
4860,74.0,0.0,15.0,0.0,0.0
4861,78.0,0.0,15.0,1.0,0.0
4862,74.0,2.0,15.0,5.0,0.0
4863,76.0,0.0,30.0,0.0,0.0
4864,76.0,11.0,15.0,1.0,0.0
4865,73.0,1.0,20.0,2.0,0.0
4866,52.0,0.0,20.0,3.0,0.0
4867,40.0,0.0,20.0,4.0,0.0
4868,76.0,3.0,30.0,5.0,0.0
4869,52.0,7.0,20.0,6.0,0.0
4870,74.0,2.0,15.0,1.0,0.0
4871,73.0,11.0,15.0,1.0,0.0
4872,52.0,0.0,20.0,3.0,0.0
4873,40.0,0.0,20.0,4.0,0.0
4874,52.0,1.0,20.0,6.0,0.0
4875,74.0,0.0,15.0,0.0,0.0
4876,71.0,0.0,15.0,1.0,0.0
4877,74.0,12.0,15.0,5.0,0.0
4878,73.0,0.0,15.0,0.0,0.0
4879,70.0,0.0,15.0,1.0,0.0
4880,76.0,0.0,20.0,2.0,0.0
4881,55.0,0.0,20.0,3.0,0.0
4882,43.0,0.0,20.0,4.0,0.0
4883,73.0,11.0,15.0,5.0,0.0
4884,55.0,1.0,20.0,6.0,0.0
4885,71.0,0.0,15.0,0.0,0.0
4886,71.0,0.0,15.0,1.0,0.0
4887,71.0,23.0,15.0,5.0,0.0
4888,70.0,0.0,20.0,0.0,0.0
4889,76.0,0.0,20.0,1.0,0.0
4890,64.0,0.0,20.0,2.0,0.0
4891,49.0,0.0,20.0,3.0,0.0
4892,37.0,0.0,20.0,4.0,0.0
4893,70.0,0.0,20.0,5.0,0.0
4894,49.0,13.0,20.0,6.0,0.0
4895,78.0,0.0,20.0,0.0,0.0
4896,71.0,0.0,20.0,1.0,0.0
4897,66.0,0.0,20.0,2.0,0.0
4898,50.0,0.0,15.0,3.0,0.0
4899,38.0,0.0,15.0,4.0,0.0
4900,78.0,0.0,20.0,5.0,0.0
4901,71.0,0.0,20.0,5.0,0.0
4902,66.0,1.0,20.0,5.0,0.0
4903,50.0,11.0,15.0,6.0,0.0
4904,52.0,0.0,15.0,3.0,0.0
4905,40.0,0.0,15.0,4.0,0.0
4906,52.0,23.0,15.0,6.0,0.0
4907,74.0,0.0,20.0,0.0,0.0
4908,71.0,0.0,20.0,1.0,0.0
4909,66.0,0.0,20.0,2.0,0.0
4910,54.0,0.0,20.0,3.0,0.0
4911,42.0,0.0,20.0,4.0,0.0
4912,74.0,0.0,20.0,5.0,0.0
4913,71.0,0.0,20.0,5.0,0.0
4914,66.0,0.0,20.0,5.0,0.0
4915,54.0,13.0,20.0,6.0,0.0
4916,73.0,0.0,15.0,0.0,0.0
4917,70.0,0.0,20.0,1.0,0.0
4918,66.0,0.0,20.0,2.0,0.0
4919,42.0,0.0,20.0,3.0,0.0
4920,30.0,0.0,20.0,4.0,0.0
4921,73.0,11.0,15.0,5.0,0.0
4922,70.0,0.0,20.0,5.0,0.0
4923,64.0,0.0,20.0,5.0,0.0
4924,42.0,1.0,20.0,6.0,0.0
4925,71.0,0.0,15.0,0.0,0.0
4926,71.0,74.0,15.0,5.0,0.0
4927,71.0,0.0,60.0,0.0,0.0
4928,66.0,0.0,60.0,1.0,0.0
4929,62.0,0.0,60.0,2.0,0.0
4930,47.0,0.0,60.0,3.0,0.0
4931,35.0,0.0,60.0,4.0,0.0
4932,71.0,0.0,60.0,5.0,0.0
4933,66.0,0.0,60.0,5.0,0.0
4934,62.0,0.0,60.0,5.0,0.0
4935,47.0,192.0,60.0,6.0,0.0
