,note,step,duration,channel,velocity
0,65.0,192.0,180.0,0.0,0.0
1,58.0,192.0,180.0,0.0,0.0
2,61.0,192.0,180.0,0.0,0.0
3,65.0,192.0,180.0,0.0,0.0
4,66.0,96.0,180.0,0.0,0.0
5,65.0,96.0,90.0,0.0,0.0
6,63.0,192.0,90.0,0.0,0.0
7,61.0,48.0,15.0,0.0,0.0
8,60.0,48.0,40.0,0.0,0.0
9,61.0,48.0,40.0,0.0,0.0
10,63.0,192.0,40.0,0.0,0.0
11,65.0,48.0,180.0,0.0,0.0
12,58.0,0.0,180.0,0.0,0.0
13,53.0,0.0,180.0,0.0,0.0
14,65.0,48.0,40.0,0.0,0.0
15,66.0,48.0,40.0,0.0,0.0
16,65.0,48.0,40.0,0.0,0.0
17,64.0,192.0,40.0,0.0,0.0
18,56.0,48.0,180.0,0.0,0.0
19,65.0,0.0,180.0,0.0,0.0
20,65.0,48.0,40.0,0.0,0.0
21,60.0,0.0,180.0,0.0,0.0
22,66.0,48.0,40.0,0.0,0.0
23,65.0,48.0,40.0,0.0,0.0
24,64.0,96.0,40.0,0.0,0.0
25,61.0,96.0,180.0,0.0,0.0
26,65.0,96.0,90.0,0.0,0.0
27,70.0,0.0,90.0,0.0,0.0
28,63.0,0.0,90.0,0.0,0.0
29,60.0,96.0,90.0,0.0,0.0
30,58.0,0.0,90.0,0.0,0.0
31,57.0,48.0,180.0,0.0,0.0
32,66.0,96.0,15.0,0.0,0.0
33,60.0,0.0,90.0,0.0,0.0
34,65.0,0.0,90.0,0.0,0.0
35,57.0,48.0,40.0,0.0,0.0
36,53.0,48.0,40.0,0.0,0.0
37,55.0,48.0,40.0,0.0,0.0
38,57.0,96.0,40.0,0.0,0.0
39,58.0,0.0,180.0,0.0,0.0
40,63.0,0.0,15.0,0.0,0.0
41,61.0,48.0,90.0,0.0,0.0
42,58.0,48.0,40.0,0.0,0.0
43,66.0,96.0,180.0,0.0,0.0
44,56.0,48.0,40.0,0.0,0.0
45,58.0,48.0,40.0,0.0,0.0
46,60.0,0.0,40.0,0.0,0.0
47,66.0,96.0,90.0,0.0,0.0
48,65.0,0.0,90.0,0.0,0.0
49,61.0,48.0,15.0,0.0,0.0
50,70.0,0.0,180.0,0.0,0.0
51,60.0,48.0,40.0,0.0,0.0
52,61.0,48.0,40.0,0.0,0.0
53,63.0,96.0,40.0,0.0,0.0
54,70.0,96.0,90.0,0.0,0.0
55,53.0,0.0,180.0,0.0,0.0
56,68.0,0.0,90.0,0.0,0.0
57,66.0,0.0,180.0,0.0,0.0
58,46.0,96.0,180.0,0.0,0.0
59,65.0,48.0,15.0,0.0,0.0
60,63.0,48.0,40.0,0.0,0.0
61,61.0,48.0,40.0,0.0,0.0
62,60.0,0.0,40.0,0.0,0.0
63,58.0,48.0,180.0,0.0,0.0
64,66.0,48.0,90.0,0.0,0.0
65,49.0,0.0,180.0,0.0,0.0
66,65.0,48.0,40.0,0.0,0.0
67,63.0,0.0,40.0,0.0,0.0
68,58.0,48.0,40.0,0.0,0.0
69,61.0,0.0,180.0,0.0,0.0
70,53.0,0.0,180.0,0.0,0.0
71,60.0,48.0,40.0,0.0,0.0
72,58.0,48.0,40.0,0.0,0.0
73,57.0,48.0,40.0,0.0,0.0
74,58.0,0.0,90.0,0.0,0.0
75,61.0,48.0,40.0,0.0,0.0
76,54.0,48.0,180.0,0.0,0.0
77,73.0,48.0,40.0,0.0,0.0
78,63.0,0.0,90.0,0.0,0.0
79,72.0,48.0,40.0,0.0,0.0
80,70.0,0.0,40.0,0.0,0.0
81,53.0,48.0,90.0,0.0,0.0
82,57.0,0.0,90.0,0.0,0.0
83,72.0,48.0,40.0,0.0,0.0
84,73.0,0.0,40.0,0.0,0.0
85,51.0,0.0,90.0,0.0,0.0
86,75.0,48.0,40.0,0.0,0.0
87,72.0,96.0,40.0,0.0,0.0
88,60.0,0.0,15.0,0.0,0.0
89,49.0,48.0,180.0,0.0,0.0
90,77.0,0.0,180.0,0.0,0.0
91,53.0,0.0,90.0,0.0,0.0
92,49.0,48.0,40.0,0.0,0.0
93,48.0,48.0,40.0,0.0,0.0
94,65.0,48.0,90.0,0.0,0.0
95,49.0,48.0,40.0,0.0,0.0
96,51.0,0.0,40.0,0.0,0.0
97,58.0,0.0,15.0,0.0,0.0
98,46.0,0.0,180.0,0.0,0.0
99,61.0,96.0,390.0,0.0,0.0
100,59.0,48.0,40.0,0.0,0.0
101,58.0,48.0,40.0,0.0,0.0
102,57.0,48.0,40.0,0.0,0.0
103,53.0,0.0,15.0,0.0,0.0
104,41.0,0.0,180.0,0.0,0.0
105,58.0,48.0,90.0,0.0,0.0
106,54.0,0.0,40.0,0.0,0.0
107,53.0,48.0,40.0,0.0,0.0
108,52.0,0.0,40.0,0.0,0.0
109,70.0,0.0,15.0,0.0,0.0
110,44.0,0.0,180.0,0.0,0.0
111,60.0,0.0,90.0,0.0,0.0
112,72.0,0.0,90.0,0.0,0.0
113,68.0,48.0,40.0,0.0,0.0
114,67.0,0.0,40.0,0.0,0.0
115,48.0,0.0,180.0,0.0,0.0
116,65.0,0.0,40.0,0.0,0.0
117,53.0,48.0,15.0,0.0,0.0
118,63.0,48.0,40.0,0.0,0.0
119,54.0,0.0,40.0,0.0,0.0
120,61.0,0.0,40.0,0.0,0.0
121,53.0,48.0,40.0,0.0,0.0
122,60.0,0.0,40.0,0.0,0.0
123,52.0,0.0,40.0,0.0,0.0
124,53.0,0.0,90.0,0.0,0.0
125,49.0,0.0,180.0,0.0,0.0
126,68.0,48.0,15.0,0.0,0.0
127,68.0,0.0,40.0,0.0,0.0
128,67.0,48.0,40.0,0.0,0.0
129,58.0,48.0,15.0,0.0,0.0
130,63.0,48.0,150.0,0.0,0.0
131,65.0,48.0,40.0,0.0,0.0
132,51.0,0.0,90.0,0.0,0.0
133,48.0,0.0,90.0,0.0,0.0
134,67.0,0.0,40.0,0.0,0.0
135,69.0,48.0,40.0,0.0,0.0
136,65.0,0.0,40.0,0.0,0.0
137,70.0,0.0,90.0,0.0,0.0
138,63.0,48.0,40.0,0.0,0.0
139,46.0,0.0,90.0,0.0,0.0
140,61.0,0.0,40.0,0.0,0.0
141,54.0,48.0,15.0,0.0,0.0
142,72.0,0.0,180.0,0.0,0.0
143,63.0,48.0,40.0,0.0,0.0
144,65.0,0.0,40.0,0.0,0.0
145,66.0,48.0,40.0,0.0,0.0
146,48.0,0.0,90.0,0.0,0.0
147,63.0,48.0,40.0,0.0,0.0
148,45.0,0.0,15.0,0.0,0.0
149,53.0,0.0,90.0,0.0,0.0
150,72.0,0.0,40.0,0.0,0.0
151,60.0,48.0,180.0,0.0,0.0
152,69.0,0.0,40.0,0.0,0.0
153,41.0,48.0,40.0,0.0,0.0
154,70.0,0.0,40.0,0.0,0.0
155,51.0,0.0,90.0,0.0,0.0
156,43.0,48.0,40.0,0.0,0.0
157,72.0,0.0,40.0,0.0,0.0
158,45.0,0.0,40.0,0.0,0.0
159,49.0,48.0,40.0,0.0,0.0
160,60.0,48.0,90.0,0.0,0.0
161,65.0,0.0,300.0,0.0,0.0
162,46.0,48.0,180.0,0.0,0.0
163,48.0,0.0,40.0,0.0,0.0
164,49.0,0.0,40.0,0.0,0.0
165,58.0,48.0,40.0,0.0,0.0
166,51.0,0.0,40.0,0.0,0.0
167,60.0,0.0,40.0,0.0,0.0
168,53.0,48.0,90.0,0.0,0.0
169,46.0,48.0,40.0,0.0,0.0
170,44.0,0.0,40.0,0.0,0.0
171,70.0,0.0,90.0,0.0,0.0
172,42.0,48.0,40.0,0.0,0.0
173,41.0,96.0,40.0,0.0,0.0
174,66.0,0.0,300.0,0.0,0.0
175,61.0,0.0,15.0,0.0,0.0
176,39.0,48.0,180.0,0.0,0.0
177,46.0,0.0,40.0,0.0,0.0
178,48.0,48.0,40.0,0.0,0.0
179,63.0,0.0,90.0,0.0,0.0
180,49.0,0.0,40.0,0.0,0.0
181,60.0,96.0,180.0,0.0,0.0
182,39.0,48.0,40.0,0.0,0.0
183,51.0,48.0,90.0,0.0,0.0
184,42.0,0.0,40.0,0.0,0.0
185,41.0,48.0,40.0,0.0,0.0
186,68.0,0.0,90.0,0.0,0.0
187,39.0,0.0,40.0,0.0,0.0
188,65.0,0.0,300.0,0.0,0.0
189,60.0,0.0,90.0,0.0,0.0
190,45.0,48.0,40.0,0.0,0.0
191,46.0,48.0,40.0,0.0,0.0
192,61.0,0.0,90.0,0.0,0.0
193,48.0,48.0,40.0,0.0,0.0
194,37.0,0.0,15.0,0.0,0.0
195,49.0,48.0,90.0,0.0,0.0
196,41.0,0.0,40.0,0.0,0.0
197,39.0,48.0,40.0,0.0,0.0
198,66.0,0.0,90.0,0.0,0.0
199,37.0,0.0,40.0,0.0,0.0
200,63.0,0.0,300.0,0.0,0.0
201,58.0,96.0,15.0,0.0,0.0
202,36.0,0.0,180.0,0.0,0.0
203,43.0,48.0,40.0,0.0,0.0
204,60.0,48.0,90.0,0.0,0.0
205,45.0,48.0,40.0,0.0,0.0
206,46.0,0.0,40.0,0.0,0.0
207,36.0,48.0,40.0,0.0,0.0
208,57.0,0.0,180.0,0.0,0.0
209,48.0,0.0,90.0,0.0,0.0
210,39.0,48.0,40.0,0.0,0.0
211,37.0,48.0,40.0,0.0,0.0
212,65.0,96.0,90.0,0.0,0.0
213,36.0,0.0,40.0,0.0,0.0
214,58.0,0.0,180.0,0.0,0.0
215,34.0,0.0,90.0,0.0,0.0
216,61.0,0.0,180.0,0.0,0.0
217,53.0,48.0,40.0,0.0,0.0
218,46.0,0.0,90.0,0.0,0.0
219,54.0,48.0,40.0,0.0,0.0
220,56.0,96.0,40.0,0.0,0.0
221,42.0,48.0,90.0,0.0,0.0
222,68.0,0.0,40.0,0.0,0.0
223,66.0,48.0,40.0,0.0,0.0
224,39.0,0.0,90.0,0.0,0.0
225,65.0,0.0,40.0,0.0,0.0
226,58.0,48.0,15.0,0.0,0.0
227,36.0,48.0,90.0,0.0,0.0
228,55.0,0.0,40.0,0.0,0.0
229,48.0,0.0,90.0,0.0,0.0
230,56.0,48.0,40.0,0.0,0.0
231,58.0,0.0,40.0,0.0,0.0
232,63.0,48.0,15.0,0.0,0.0
233,44.0,48.0,90.0,0.0,0.0
234,70.0,0.0,40.0,0.0,0.0
235,68.0,48.0,40.0,0.0,0.0
236,41.0,0.0,90.0,0.0,0.0
237,66.0,0.0,40.0,0.0,0.0
238,37.0,48.0,90.0,0.0,0.0
239,60.0,48.0,15.0,0.0,0.0
240,57.0,0.0,40.0,0.0,0.0
241,58.0,48.0,40.0,0.0,0.0
242,49.0,0.0,90.0,0.0,0.0
243,60.0,48.0,40.0,0.0,0.0
244,65.0,0.0,15.0,0.0,0.0
245,46.0,0.0,90.0,0.0,0.0
246,71.0,48.0,40.0,0.0,0.0
247,42.0,0.0,90.0,0.0,0.0
248,70.0,48.0,40.0,0.0,0.0
249,68.0,48.0,40.0,0.0,0.0
250,61.0,0.0,15.0,0.0,0.0
251,66.0,0.0,180.0,0.0,0.0
252,37.0,48.0,90.0,0.0,0.0
253,61.0,0.0,40.0,0.0,0.0
254,51.0,0.0,90.0,0.0,0.0
255,60.0,48.0,40.0,0.0,0.0
256,58.0,48.0,40.0,0.0,0.0
257,48.0,0.0,90.0,0.0,0.0
258,66.0,48.0,40.0,0.0,0.0
259,66.0,48.0,40.0,0.0,0.0
260,44.0,0.0,90.0,0.0,0.0
261,65.0,48.0,40.0,0.0,0.0
262,63.0,48.0,40.0,0.0,0.0
263,56.0,0.0,15.0,0.0,0.0
264,41.0,48.0,40.0,0.0,0.0
265,68.0,48.0,180.0,0.0,0.0
266,61.0,0.0,90.0,0.0,0.0
267,37.0,48.0,40.0,0.0,0.0
268,59.0,0.0,90.0,0.0,0.0
269,39.0,48.0,40.0,0.0,0.0
270,41.0,0.0,40.0,0.0,0.0
271,61.0,0.0,180.0,0.0,0.0
272,42.0,48.0,40.0,0.0,0.0
273,58.0,0.0,180.0,0.0,0.0
274,44.0,0.0,40.0,0.0,0.0
275,46.0,48.0,40.0,0.0,0.0
276,54.0,0.0,90.0,0.0,0.0
277,48.0,48.0,40.0,0.0,0.0
278,56.0,48.0,40.0,0.0,0.0
279,65.0,48.0,180.0,0.0,0.0
280,53.0,0.0,90.0,0.0,0.0
281,62.0,48.0,40.0,0.0,0.0
282,56.0,0.0,90.0,0.0,0.0
283,61.0,48.0,40.0,0.0,0.0
284,60.0,0.0,40.0,0.0,0.0
285,61.0,0.0,180.0,0.0,0.0
286,49.0,0.0,15.0,0.0,0.0
287,68.0,0.0,180.0,0.0,0.0
288,47.0,48.0,40.0,0.0,0.0
289,46.0,48.0,40.0,0.0,0.0
290,44.0,0.0,40.0,0.0,0.0
291,70.0,0.0,180.0,0.0,0.0
292,42.0,0.0,180.0,0.0,0.0
293,61.0,48.0,40.0,0.0,0.0
294,53.0,48.0,15.0,0.0,0.0
295,53.0,0.0,40.0,0.0,0.0
296,68.0,48.0,40.0,0.0,0.0
297,51.0,0.0,40.0,0.0,0.0
298,66.0,48.0,40.0,0.0,0.0
299,49.0,0.0,40.0,0.0,0.0
300,65.0,48.0,40.0,0.0,0.0
301,48.0,48.0,40.0,0.0,0.0
302,63.0,0.0,40.0,0.0,0.0
303,68.0,0.0,90.0,0.0,0.0
304,44.0,0.0,180.0,0.0,0.0
305,46.0,0.0,40.0,0.0,0.0
306,65.0,48.0,40.0,0.0,0.0
307,48.0,0.0,90.0,0.0,0.0
308,63.0,48.0,40.0,0.0,0.0
309,66.0,0.0,90.0,0.0,0.0
310,61.0,48.0,40.0,0.0,0.0
311,45.0,0.0,180.0,0.0,0.0
312,60.0,48.0,40.0,0.0,0.0
313,48.0,0.0,90.0,0.0,0.0
314,58.0,48.0,40.0,0.0,0.0
315,53.0,48.0,40.0,0.0,0.0
316,60.0,0.0,90.0,0.0,0.0
317,51.0,0.0,40.0,0.0,0.0
318,49.0,0.0,40.0,0.0,0.0
319,46.0,0.0,180.0,0.0,0.0
320,65.0,48.0,15.0,0.0,0.0
321,58.0,48.0,90.0,0.0,0.0
322,48.0,0.0,40.0,0.0,0.0
323,63.0,0.0,40.0,0.0,0.0
324,65.0,48.0,40.0,0.0,0.0
325,67.0,0.0,40.0,0.0,0.0
326,49.0,96.0,15.0,0.0,0.0
327,68.0,0.0,180.0,0.0,0.0
328,44.0,0.0,180.0,0.0,0.0
329,63.0,0.0,180.0,0.0,0.0
330,48.0,48.0,40.0,0.0,0.0
331,46.0,48.0,40.0,0.0,0.0
332,56.0,0.0,180.0,0.0,0.0
333,48.0,48.0,40.0,0.0,0.0
334,49.0,96.0,40.0,0.0,0.0
335,48.0,0.0,90.0,0.0,0.0
336,60.0,0.0,180.0,0.0,0.0
337,44.0,0.0,90.0,0.0,0.0
338,51.0,48.0,15.0,0.0,0.0
339,53.0,48.0,40.0,0.0,0.0
340,51.0,48.0,40.0,0.0,0.0
341,72.0,48.0,90.0,0.0,0.0
342,54.0,48.0,180.0,0.0,0.0
343,49.0,0.0,40.0,0.0,0.0
344,48.0,48.0,40.0,0.0,0.0
345,63.0,48.0,180.0,0.0,0.0
346,46.0,0.0,40.0,0.0,0.0
347,53.0,48.0,40.0,0.0,0.0
348,51.0,0.0,40.0,0.0,0.0
349,68.0,0.0,15.0,0.0,0.0
350,49.0,48.0,180.0,0.0,0.0
351,47.0,0.0,15.0,0.0,0.0
352,65.0,0.0,180.0,0.0,0.0
353,47.0,48.0,40.0,0.0,0.0
354,67.0,0.0,40.0,0.0,0.0
355,46.0,48.0,40.0,0.0,0.0
356,68.0,0.0,40.0,0.0,0.0
357,44.0,0.0,40.0,0.0,0.0
358,43.0,48.0,40.0,0.0,0.0
359,63.0,48.0,90.0,0.0,0.0
360,39.0,0.0,40.0,0.0,0.0
361,41.0,48.0,40.0,0.0,0.0
362,61.0,0.0,90.0,0.0,0.0
363,43.0,48.0,40.0,0.0,0.0
364,60.0,0.0,180.0,0.0,0.0
365,70.0,0.0,15.0,0.0,0.0
366,44.0,48.0,90.0,0.0,0.0
367,63.0,0.0,40.0,0.0,0.0
368,42.0,48.0,90.0,0.0,0.0
369,65.0,48.0,40.0,0.0,0.0
370,67.0,0.0,40.0,0.0,0.0
371,68.0,0.0,180.0,0.0,0.0
372,60.0,48.0,40.0,0.0,0.0
373,41.0,0.0,180.0,0.0,0.0
374,58.0,48.0,40.0,0.0,0.0
375,60.0,48.0,40.0,0.0,0.0
376,62.0,48.0,40.0,0.0,0.0
377,39.0,48.0,40.0,0.0,0.0
378,68.0,0.0,90.0,0.0,0.0
379,58.0,0.0,180.0,0.0,0.0
380,41.0,48.0,40.0,0.0,0.0
381,42.0,48.0,40.0,0.0,0.0
382,70.0,48.0,90.0,0.0,0.0
383,46.0,0.0,40.0,0.0,0.0
384,63.0,0.0,15.0,0.0,0.0
385,66.0,0.0,180.0,0.0,0.0
386,51.0,0.0,90.0,0.0,0.0
387,64.0,48.0,40.0,0.0,0.0
388,63.0,48.0,40.0,0.0,0.0
389,62.0,192.0,40.0,0.0,0.0
390,63.0,0.0,180.0,0.0,0.0
391,54.0,48.0,180.0,0.0,0.0
392,70.0,0.0,90.0,0.0,0.0
393,66.0,48.0,90.0,0.0,0.0
394,58.0,0.0,180.0,0.0,0.0
395,63.0,48.0,40.0,0.0,0.0
396,64.0,0.0,40.0,0.0,0.0
397,63.0,48.0,40.0,0.0,0.0
398,62.0,0.0,40.0,0.0,0.0
399,63.0,48.0,90.0,0.0,0.0
400,59.0,0.0,180.0,0.0,0.0
401,78.0,96.0,15.0,0.0,0.0
402,77.0,48.0,40.0,0.0,0.0
403,68.0,48.0,90.0,0.0,0.0
404,75.0,0.0,40.0,0.0,0.0
405,62.0,0.0,90.0,0.0,0.0
406,77.0,48.0,40.0,0.0,0.0
407,58.0,0.0,90.0,0.0,0.0
408,75.0,48.0,40.0,0.0,0.0
409,56.0,0.0,90.0,0.0,0.0
410,74.0,48.0,40.0,0.0,0.0
411,77.0,48.0,40.0,0.0,0.0
412,65.0,0.0,15.0,0.0,0.0
413,70.0,48.0,180.0,0.0,0.0
414,64.0,48.0,40.0,0.0,0.0
415,63.0,48.0,40.0,0.0,0.0
416,62.0,0.0,40.0,0.0,0.0
417,63.0,48.0,180.0,0.0,0.0
418,54.0,0.0,15.0,0.0,0.0
419,53.0,48.0,40.0,0.0,0.0
420,70.0,0.0,90.0,0.0,0.0
421,54.0,48.0,40.0,0.0,0.0
422,56.0,0.0,40.0,0.0,0.0
423,58.0,48.0,40.0,0.0,0.0
424,63.0,0.0,40.0,0.0,0.0
425,51.0,0.0,180.0,0.0,0.0
426,62.0,0.0,40.0,0.0,0.0
427,59.0,48.0,40.0,0.0,0.0
428,58.0,48.0,40.0,0.0,0.0
429,57.0,0.0,40.0,0.0,0.0
430,66.0,0.0,15.0,0.0,0.0
431,58.0,0.0,40.0,0.0,0.0
432,46.0,48.0,180.0,0.0,0.0
433,65.0,0.0,180.0,0.0,0.0
434,48.0,48.0,40.0,0.0,0.0
435,63.0,48.0,15.0,0.0,0.0
436,49.0,0.0,40.0,0.0,0.0
437,61.0,48.0,40.0,0.0,0.0
438,60.0,0.0,40.0,0.0,0.0
439,51.0,0.0,40.0,0.0,0.0
440,49.0,48.0,180.0,0.0,0.0
441,53.0,48.0,40.0,0.0,0.0
442,46.0,0.0,40.0,0.0,0.0
443,58.0,96.0,15.0,0.0,0.0
444,77.0,0.0,90.0,0.0,0.0
445,73.0,0.0,180.0,0.0,0.0
446,53.0,0.0,180.0,0.0,0.0
447,59.0,48.0,40.0,0.0,0.0
448,65.0,48.0,90.0,0.0,0.0
449,58.0,48.0,40.0,0.0,0.0
450,57.0,0.0,40.0,0.0,0.0
451,54.0,0.0,180.0,0.0,0.0
452,58.0,48.0,40.0,0.0,0.0
453,61.0,0.0,40.0,0.0,0.0
454,75.0,0.0,90.0,0.0,0.0
455,60.0,48.0,40.0,0.0,0.0
456,66.0,0.0,90.0,0.0,0.0
457,58.0,48.0,40.0,0.0,0.0
458,60.0,48.0,150.0,0.0,0.0
459,69.0,48.0,40.0,0.0,0.0
460,53.0,0.0,90.0,0.0,0.0
461,65.0,0.0,90.0,0.0,0.0
462,70.0,48.0,40.0,0.0,0.0
463,57.0,0.0,90.0,0.0,0.0
464,51.0,0.0,90.0,0.0,0.0
465,66.0,0.0,40.0,0.0,0.0
466,72.0,48.0,15.0,0.0,0.0
467,65.0,0.0,40.0,0.0,0.0
468,49.0,0.0,180.0,0.0,0.0
469,57.0,48.0,90.0,0.0,0.0
470,63.0,0.0,40.0,0.0,0.0
471,65.0,0.0,40.0,0.0,0.0
472,67.0,48.0,40.0,0.0,0.0
473,58.0,0.0,40.0,0.0,0.0
474,61.0,0.0,40.0,0.0,0.0
475,63.0,0.0,40.0,0.0,0.0
476,60.0,48.0,40.0,0.0,0.0
477,69.0,0.0,40.0,0.0,0.0
478,65.0,0.0,180.0,0.0,0.0
479,49.0,48.0,40.0,0.0,0.0
480,48.0,48.0,40.0,0.0,0.0
481,49.0,48.0,40.0,0.0,0.0
482,51.0,0.0,40.0,0.0,0.0
483,70.0,0.0,15.0,0.0,0.0
484,53.0,96.0,180.0,0.0,0.0
485,61.0,48.0,15.0,0.0,0.0
486,65.0,48.0,40.0,0.0,0.0
487,67.0,48.0,40.0,0.0,0.0
488,64.0,0.0,40.0,0.0,0.0
489,65.0,0.0,90.0,0.0,0.0
490,60.0,0.0,90.0,0.0,0.0
491,68.0,48.0,40.0,0.0,0.0
492,70.0,0.0,40.0,0.0,0.0
493,72.0,0.0,180.0,0.0,0.0
494,60.0,48.0,40.0,0.0,0.0
495,53.0,48.0,90.0,0.0,0.0
496,61.0,48.0,40.0,0.0,0.0
497,63.0,0.0,40.0,0.0,0.0
498,56.0,0.0,15.0,0.0,0.0
499,72.0,48.0,40.0,0.0,0.0
500,65.0,0.0,180.0,0.0,0.0
501,49.0,96.0,180.0,0.0,0.0
502,75.0,0.0,40.0,0.0,0.0
503,58.0,0.0,90.0,0.0,0.0
504,73.0,48.0,40.0,0.0,0.0
505,72.0,0.0,40.0,0.0,0.0
506,55.0,0.0,180.0,0.0,0.0
507,58.0,48.0,40.0,0.0,0.0
508,51.0,0.0,90.0,0.0,0.0
509,60.0,48.0,40.0,0.0,0.0
510,61.0,0.0,40.0,0.0,0.0
511,63.0,0.0,180.0,0.0,0.0
512,55.0,48.0,90.0,0.0,0.0
513,70.0,48.0,15.0,0.0,0.0
514,48.0,0.0,180.0,0.0,0.0
515,73.0,0.0,40.0,0.0,0.0
516,72.0,48.0,40.0,0.0,0.0
517,56.0,0.0,90.0,0.0,0.0
518,70.0,96.0,40.0,0.0,0.0
519,68.0,48.0,180.0,0.0,0.0
520,56.0,48.0,40.0,0.0,0.0
521,58.0,48.0,40.0,0.0,0.0
522,49.0,0.0,90.0,0.0,0.0
523,60.0,0.0,40.0,0.0,0.0
524,53.0,0.0,15.0,0.0,0.0
525,68.0,48.0,40.0,0.0,0.0
526,72.0,0.0,40.0,0.0,0.0
527,55.0,0.0,90.0,0.0,0.0
528,70.0,48.0,40.0,0.0,0.0
529,68.0,0.0,40.0,0.0,0.0
530,46.0,0.0,15.0,0.0,0.0
531,52.0,0.0,180.0,0.0,0.0
532,61.0,48.0,15.0,0.0,0.0
533,60.0,0.0,40.0,0.0,0.0
534,44.0,48.0,40.0,0.0,0.0
535,58.0,48.0,40.0,0.0,0.0
536,43.0,0.0,40.0,0.0,0.0
537,46.0,0.0,40.0,0.0,0.0
538,61.0,0.0,40.0,0.0,0.0
539,44.0,48.0,150.0,0.0,0.0
540,67.0,48.0,15.0,0.0,0.0
541,52.0,0.0,90.0,0.0,0.0
542,65.0,48.0,40.0,0.0,0.0
543,48.0,0.0,180.0,0.0,0.0
544,64.0,0.0,40.0,0.0,0.0
545,67.0,0.0,40.0,0.0,0.0
546,43.0,48.0,40.0,0.0,0.0
547,44.0,0.0,90.0,0.0,0.0
548,65.0,48.0,40.0,0.0,0.0
549,67.0,0.0,40.0,0.0,0.0
550,41.0,0.0,90.0,0.0,0.0
551,53.0,0.0,90.0,0.0,0.0
552,60.0,48.0,15.0,0.0,0.0
553,68.0,48.0,90.0,0.0,0.0
554,65.0,0.0,40.0,0.0,0.0
555,46.0,0.0,150.0,0.0,0.0
556,61.0,48.0,90.0,0.0,0.0
557,53.0,0.0,90.0,0.0,0.0
558,68.0,48.0,40.0,0.0,0.0
559,67.0,0.0,40.0,0.0,0.0
560,49.0,0.0,180.0,0.0,0.0
561,65.0,48.0,40.0,0.0,0.0
562,44.0,0.0,40.0,0.0,0.0
563,68.0,48.0,40.0,0.0,0.0
564,67.0,48.0,40.0,0.0,0.0
565,68.0,48.0,40.0,0.0,0.0
566,46.0,0.0,15.0,0.0,0.0
567,43.0,0.0,90.0,0.0,0.0
568,65.0,0.0,15.0,0.0,0.0
569,67.0,0.0,40.0,0.0,0.0
570,55.0,0.0,90.0,0.0,0.0
571,64.0,0.0,90.0,0.0,0.0
572,70.0,48.0,15.0,0.0,0.0
573,48.0,48.0,150.0,0.0,0.0
574,68.0,48.0,40.0,0.0,0.0
575,67.0,0.0,40.0,0.0,0.0
576,70.0,48.0,40.0,0.0,0.0
577,46.0,0.0,40.0,0.0,0.0
578,48.0,0.0,90.0,0.0,0.0
579,68.0,48.0,40.0,0.0,0.0
580,70.0,48.0,40.0,0.0,0.0
581,52.0,0.0,15.0,0.0,0.0
582,67.0,0.0,15.0,0.0,0.0
583,44.0,0.0,90.0,0.0,0.0
584,68.0,0.0,40.0,0.0,0.0
585,72.0,0.0,15.0,0.0,0.0
586,65.0,0.0,300.0,0.0,0.0
587,49.0,48.0,150.0,0.0,0.0
588,53.0,0.0,90.0,0.0,0.0
589,70.0,48.0,40.0,0.0,0.0
590,60.0,48.0,90.0,0.0,0.0
591,69.0,0.0,40.0,0.0,0.0
592,48.0,0.0,40.0,0.0,0.0
593,72.0,0.0,40.0,0.0,0.0
594,49.0,48.0,90.0,0.0,0.0
595,70.0,48.0,40.0,0.0,0.0
596,53.0,0.0,90.0,0.0,0.0
597,72.0,0.0,40.0,0.0,0.0
598,46.0,0.0,90.0,0.0,0.0
599,73.0,0.0,90.0,0.0,0.0
600,64.0,48.0,40.0,0.0,0.0
601,65.0,0.0,40.0,0.0,0.0
602,73.0,0.0,90.0,0.0,0.0
603,67.0,48.0,90.0,0.0,0.0
604,52.0,0.0,180.0,0.0,0.0
605,58.0,48.0,15.0,0.0,0.0
606,56.0,0.0,40.0,0.0,0.0
607,55.0,48.0,40.0,0.0,0.0
608,72.0,48.0,180.0,0.0,0.0
609,70.0,0.0,90.0,0.0,0.0
610,58.0,48.0,40.0,0.0,0.0
611,64.0,0.0,90.0,0.0,0.0
612,56.0,48.0,40.0,0.0,0.0
613,55.0,0.0,40.0,0.0,0.0
614,67.0,0.0,90.0,0.0,0.0
615,48.0,0.0,90.0,0.0,0.0
616,53.0,48.0,40.0,0.0,0.0
617,70.0,48.0,90.0,0.0,0.0
618,52.0,0.0,40.0,0.0,0.0
619,53.0,0.0,90.0,0.0,0.0
620,67.0,48.0,40.0,0.0,0.0
621,65.0,48.0,40.0,0.0,0.0
622,68.0,0.0,15.0,0.0,0.0
623,49.0,0.0,90.0,0.0,0.0
624,77.0,0.0,180.0,0.0,0.0
625,55.0,24.0,40.0,0.0,0.0
626,46.0,0.0,90.0,0.0,0.0
627,56.0,24.0,20.0,0.0,0.0
628,55.0,24.0,20.0,0.0,0.0
629,56.0,24.0,20.0,0.0,0.0
630,73.0,0.0,40.0,0.0,0.0
631,55.0,24.0,20.0,0.0,0.0
632,76.0,48.0,90.0,0.0,0.0
633,48.0,0.0,90.0,0.0,0.0
634,56.0,24.0,20.0,0.0,0.0
635,72.0,0.0,40.0,0.0,0.0
636,55.0,24.0,20.0,0.0,0.0
637,53.0,24.0,20.0,0.0,0.0
638,55.0,0.0,20.0,0.0,0.0
639,41.0,0.0,180.0,0.0,0.0
640,70.0,0.0,15.0,0.0,0.0
641,53.0,0.0,180.0,0.0,0.0
642,77.0,0.0,90.0,0.0,0.0
643,70.0,48.0,15.0,0.0,0.0
644,72.0,0.0,90.0,0.0,0.0
645,68.0,48.0,40.0,0.0,0.0
646,67.0,96.0,40.0,0.0,0.0
647,65.0,0.0,180.0,0.0,0.0
648,68.0,0.0,180.0,0.0,0.0
649,58.0,48.0,40.0,0.0,0.0
650,56.0,48.0,40.0,0.0,0.0
651,54.0,0.0,40.0,0.0,0.0
652,49.0,0.0,180.0,0.0,0.0
653,53.0,96.0,15.0,0.0,0.0
654,66.0,48.0,40.0,0.0,0.0
655,68.0,0.0,90.0,0.0,0.0
656,65.0,48.0,40.0,0.0,0.0
657,63.0,96.0,40.0,0.0,0.0
658,65.0,0.0,180.0,0.0,0.0
659,61.0,96.0,180.0,0.0,0.0
660,54.0,48.0,40.0,0.0,0.0
661,53.0,48.0,40.0,0.0,0.0
662,51.0,0.0,40.0,0.0,0.0
663,49.0,0.0,15.0,0.0,0.0
664,46.0,0.0,180.0,0.0,0.0
665,75.0,48.0,40.0,0.0,0.0
666,77.0,96.0,90.0,0.0,0.0
667,73.0,48.0,40.0,0.0,0.0
668,72.0,0.0,40.0,0.0,0.0
669,73.0,0.0,180.0,0.0,0.0
670,70.0,96.0,180.0,0.0,0.0
671,63.0,48.0,40.0,0.0,0.0
672,58.0,0.0,90.0,0.0,0.0
673,61.0,48.0,40.0,0.0,0.0
674,60.0,0.0,40.0,0.0,0.0
675,54.0,0.0,180.0,0.0,0.0
676,58.0,0.0,180.0,0.0,0.0
677,71.0,48.0,40.0,0.0,0.0
678,70.0,48.0,40.0,0.0,0.0
679,73.0,96.0,90.0,0.0,0.0
680,68.0,0.0,40.0,0.0,0.0
681,70.0,96.0,180.0,0.0,0.0
682,66.0,0.0,180.0,0.0,0.0
683,59.0,48.0,40.0,0.0,0.0
684,58.0,48.0,40.0,0.0,0.0
685,54.0,0.0,90.0,0.0,0.0
686,56.0,0.0,40.0,0.0,0.0
687,51.0,0.0,180.0,0.0,0.0
688,54.0,0.0,90.0,0.0,0.0
689,80.0,48.0,40.0,0.0,0.0
690,78.0,48.0,40.0,0.0,0.0
691,63.0,48.0,90.0,0.0,0.0
692,77.0,0.0,40.0,0.0,0.0
693,75.0,48.0,40.0,0.0,0.0
694,60.0,0.0,180.0,0.0,0.0
695,73.0,0.0,40.0,0.0,0.0
696,53.0,48.0,40.0,0.0,0.0
697,72.0,48.0,40.0,0.0,0.0
698,66.0,96.0,90.0,0.0,0.0
699,51.0,0.0,40.0,0.0,0.0
700,49.0,0.0,40.0,0.0,0.0
701,70.0,0.0,40.0,0.0,0.0
702,48.0,0.0,180.0,0.0,0.0
703,63.0,48.0,180.0,0.0,0.0
704,68.0,0.0,90.0,0.0,0.0
705,56.0,48.0,40.0,0.0,0.0
706,70.0,0.0,90.0,0.0,0.0
707,54.0,48.0,40.0,0.0,0.0
708,53.0,0.0,40.0,0.0,0.0
709,66.0,0.0,180.0,0.0,0.0
710,63.0,48.0,40.0,0.0,0.0
711,65.0,0.0,40.0,0.0,0.0
712,49.0,48.0,40.0,0.0,0.0
713,48.0,0.0,40.0,0.0,0.0
714,63.0,48.0,40.0,0.0,0.0
715,46.0,48.0,40.0,0.0,0.0
716,61.0,0.0,40.0,0.0,0.0
717,51.0,0.0,15.0,0.0,0.0
718,44.0,48.0,180.0,0.0,0.0
719,60.0,48.0,40.0,0.0,0.0
720,66.0,0.0,90.0,0.0,0.0
721,68.0,48.0,40.0,0.0,0.0
722,75.0,0.0,90.0,0.0,0.0
723,66.0,48.0,40.0,0.0,0.0
724,65.0,0.0,40.0,0.0,0.0
725,63.0,48.0,40.0,0.0,0.0
726,58.0,0.0,40.0,0.0,0.0
727,66.0,48.0,40.0,0.0,0.0
728,56.0,0.0,40.0,0.0,0.0
729,65.0,48.0,40.0,0.0,0.0
730,70.0,0.0,40.0,0.0,0.0
731,54.0,48.0,40.0,0.0,0.0
732,72.0,0.0,15.0,0.0,0.0
733,53.0,48.0,180.0,0.0,0.0
734,68.0,0.0,90.0,0.0,0.0
735,77.0,48.0,40.0,0.0,0.0
736,60.0,0.0,90.0,0.0,0.0
737,75.0,48.0,40.0,0.0,0.0
738,73.0,0.0,40.0,0.0,0.0
739,72.0,48.0,40.0,0.0,0.0
740,70.0,48.0,40.0,0.0,0.0
741,54.0,0.0,40.0,0.0,0.0
742,53.0,0.0,40.0,0.0,0.0
743,68.0,48.0,40.0,0.0,0.0
744,66.0,0.0,40.0,0.0,0.0
745,51.0,48.0,40.0,0.0,0.0
746,49.0,0.0,180.0,0.0,0.0
747,56.0,0.0,15.0,0.0,0.0
748,65.0,48.0,40.0,0.0,0.0
749,53.0,0.0,90.0,0.0,0.0
750,73.0,0.0,40.0,0.0,0.0
751,72.0,48.0,40.0,0.0,0.0
752,64.0,0.0,90.0,0.0,0.0
753,55.0,48.0,90.0,0.0,0.0
754,71.0,0.0,40.0,0.0,0.0
755,63.0,48.0,40.0,0.0,0.0
756,44.0,48.0,180.0,0.0,0.0
757,56.0,0.0,90.0,0.0,0.0
758,69.0,48.0,40.0,0.0,0.0
759,60.0,0.0,90.0,0.0,0.0
760,68.0,48.0,40.0,0.0,0.0
761,67.0,0.0,40.0,0.0,0.0
762,72.0,0.0,15.0,0.0,0.0
763,48.0,48.0,180.0,0.0,0.0
764,56.0,0.0,180.0,0.0,0.0
765,68.0,0.0,180.0,0.0,0.0
766,73.0,48.0,40.0,0.0,0.0
767,72.0,48.0,40.0,0.0,0.0
768,71.0,0.0,40.0,0.0,0.0
769,51.0,0.0,180.0,0.0,0.0
770,72.0,0.0,180.0,0.0,0.0
771,68.0,48.0,40.0,0.0,0.0
772,69.0,48.0,40.0,0.0,0.0
773,60.0,48.0,90.0,0.0,0.0
774,68.0,48.0,40.0,0.0,0.0
775,67.0,0.0,40.0,0.0,0.0
776,72.0,48.0,40.0,0.0,0.0
777,54.0,48.0,180.0,0.0,0.0
778,56.0,0.0,180.0,0.0,0.0
779,75.0,48.0,40.0,0.0,0.0
780,74.0,48.0,40.0,0.0,0.0
781,72.0,0.0,40.0,0.0,0.0
782,53.0,0.0,90.0,0.0,0.0
783,74.0,48.0,40.0,0.0,0.0
784,75.0,0.0,40.0,0.0,0.0
785,59.0,0.0,90.0,0.0,0.0
786,68.0,48.0,15.0,0.0,0.0
787,77.0,48.0,90.0,0.0,0.0
788,51.0,0.0,90.0,0.0,0.0
789,68.0,0.0,40.0,0.0,0.0
790,53.0,0.0,180.0,0.0,0.0
791,68.0,48.0,40.0,0.0,0.0
792,50.0,0.0,180.0,0.0,0.0
793,66.0,48.0,40.0,0.0,0.0
794,65.0,48.0,40.0,0.0,0.0
795,63.0,48.0,40.0,0.0,0.0
796,65.0,0.0,180.0,0.0,0.0
797,50.0,48.0,40.0,0.0,0.0
798,46.0,0.0,40.0,0.0,0.0
799,48.0,48.0,40.0,0.0,0.0
800,70.0,48.0,15.0,0.0,0.0
801,50.0,48.0,40.0,0.0,0.0
802,65.0,48.0,40.0,0.0,0.0
803,51.0,48.0,90.0,0.0,0.0
804,58.0,0.0,180.0,0.0,0.0
805,64.0,0.0,40.0,0.0,0.0
806,63.0,48.0,40.0,0.0,0.0
807,46.0,0.0,90.0,0.0,0.0
808,62.0,48.0,40.0,0.0,0.0
809,66.0,0.0,15.0,0.0,0.0
810,51.0,0.0,180.0,0.0,0.0
811,42.0,0.0,180.0,0.0,0.0
812,63.0,0.0,180.0,0.0,0.0
813,71.0,48.0,40.0,0.0,0.0
814,70.0,48.0,40.0,0.0,0.0
815,69.0,48.0,40.0,0.0,0.0
816,54.0,0.0,180.0,0.0,0.0
817,63.0,48.0,40.0,0.0,0.0
818,70.0,0.0,180.0,0.0,0.0
819,64.0,48.0,40.0,0.0,0.0
820,63.0,48.0,40.0,0.0,0.0
821,46.0,0.0,90.0,0.0,0.0
822,62.0,48.0,40.0,0.0,0.0
823,58.0,0.0,180.0,0.0,0.0
824,42.0,0.0,180.0,0.0,0.0
825,63.0,48.0,90.0,0.0,0.0
826,70.0,48.0,40.0,0.0,0.0
827,71.0,0.0,40.0,0.0,0.0
828,70.0,48.0,40.0,0.0,0.0
829,69.0,0.0,40.0,0.0,0.0
830,61.0,0.0,180.0,0.0,0.0
831,64.0,48.0,15.0,0.0,0.0
832,70.0,0.0,180.0,0.0,0.0
833,44.0,48.0,40.0,0.0,0.0
834,65.0,0.0,40.0,0.0,0.0
835,64.0,48.0,40.0,0.0,0.0
836,43.0,0.0,40.0,0.0,0.0
837,41.0,48.0,40.0,0.0,0.0
838,65.0,0.0,40.0,0.0,0.0
839,67.0,0.0,180.0,0.0,0.0
840,60.0,48.0,90.0,0.0,0.0
841,40.0,48.0,40.0,0.0,0.0
842,36.0,0.0,40.0,0.0,0.0
843,58.0,48.0,90.0,0.0,0.0
844,38.0,48.0,40.0,0.0,0.0
845,40.0,0.0,40.0,0.0,0.0
846,67.0,0.0,90.0,0.0,0.0
847,41.0,48.0,40.0,0.0,0.0
848,53.0,48.0,40.0,0.0,0.0
849,66.0,48.0,90.0,0.0,0.0
850,51.0,48.0,40.0,0.0,0.0
851,49.0,0.0,40.0,0.0,0.0
852,63.0,0.0,90.0,0.0,0.0
853,48.0,0.0,40.0,0.0,0.0
854,57.0,0.0,15.0,0.0,0.0
855,49.0,48.0,40.0,0.0,0.0
856,53.0,0.0,40.0,0.0,0.0
857,55.0,48.0,40.0,0.0,0.0
858,51.0,0.0,40.0,0.0,0.0
859,60.0,48.0,90.0,0.0,0.0
860,48.0,0.0,40.0,0.0,0.0
861,57.0,0.0,40.0,0.0,0.0
862,58.0,0.0,90.0,0.0,0.0
863,49.0,48.0,40.0,0.0,0.0
864,65.0,0.0,300.0,0.0,0.0
865,51.0,48.0,40.0,0.0,0.0
866,49.0,48.0,40.0,0.0,0.0
867,53.0,0.0,90.0,0.0,0.0
868,48.0,48.0,40.0,0.0,0.0
869,46.0,48.0,40.0,0.0,0.0
870,44.0,48.0,40.0,0.0,0.0
871,42.0,48.0,40.0,0.0,0.0
872,58.0,48.0,90.0,0.0,0.0
873,41.0,0.0,40.0,0.0,0.0
874,39.0,48.0,40.0,0.0,0.0
875,61.0,0.0,15.0,0.0,0.0
876,66.0,0.0,300.0,0.0,0.0
877,41.0,48.0,40.0,0.0,0.0
878,51.0,48.0,90.0,0.0,0.0
879,42.0,48.0,40.0,0.0,0.0
880,39.0,0.0,40.0,0.0,0.0
881,44.0,48.0,40.0,0.0,0.0
882,46.0,48.0,40.0,0.0,0.0
883,48.0,48.0,40.0,0.0,0.0
884,56.0,48.0,90.0,0.0,0.0
885,44.0,0.0,40.0,0.0,0.0
886,60.0,0.0,15.0,0.0,0.0
887,49.0,48.0,40.0,0.0,0.0
888,65.0,0.0,300.0,0.0,0.0
889,51.0,0.0,40.0,0.0,0.0
890,53.0,48.0,40.0,0.0,0.0
891,61.0,48.0,90.0,0.0,0.0
892,49.0,0.0,40.0,0.0,0.0
893,58.0,0.0,180.0,0.0,0.0
894,54.0,48.0,40.0,0.0,0.0
895,53.0,48.0,40.0,0.0,0.0
896,66.0,0.0,90.0,0.0,0.0
897,51.0,48.0,40.0,0.0,0.0
898,49.0,48.0,40.0,0.0,0.0
899,48.0,48.0,40.0,0.0,0.0
900,58.0,0.0,40.0,0.0,0.0
901,61.0,48.0,40.0,0.0,0.0
902,46.0,0.0,40.0,0.0,0.0
903,45.0,0.0,40.0,0.0,0.0
904,60.0,48.0,40.0,0.0,0.0
905,58.0,0.0,40.0,0.0,0.0
906,43.0,48.0,40.0,0.0,0.0
907,63.0,0.0,15.0,0.0,0.0
908,41.0,48.0,40.0,0.0,0.0
909,66.0,48.0,40.0,0.0,0.0
910,39.0,0.0,40.0,0.0,0.0
911,65.0,0.0,40.0,0.0,0.0
912,37.0,48.0,40.0,0.0,0.0
913,63.0,0.0,40.0,0.0,0.0
914,36.0,0.0,40.0,0.0,0.0
915,65.0,0.0,180.0,0.0,0.0
916,37.0,0.0,90.0,0.0,0.0
917,57.0,48.0,15.0,0.0,0.0
918,59.0,48.0,40.0,0.0,0.0
919,53.0,0.0,90.0,0.0,0.0
920,58.0,48.0,40.0,0.0,0.0
921,57.0,48.0,40.0,0.0,0.0
922,49.0,0.0,90.0,0.0,0.0
923,58.0,48.0,40.0,0.0,0.0
924,63.0,48.0,40.0,0.0,0.0
925,46.0,0.0,90.0,0.0,0.0
926,61.0,48.0,40.0,0.0,0.0
927,60.0,48.0,40.0,0.0,0.0
928,58.0,0.0,15.0,0.0,0.0
929,61.0,0.0,180.0,0.0,0.0
930,59.0,48.0,40.0,0.0,0.0
931,41.0,48.0,90.0,0.0,0.0
932,58.0,48.0,40.0,0.0,0.0
933,57.0,0.0,40.0,0.0,0.0
934,58.0,48.0,40.0,0.0,0.0
935,37.0,48.0,90.0,0.0,0.0
936,65.0,48.0,180.0,0.0,0.0
937,63.0,0.0,40.0,0.0,0.0
938,61.0,48.0,40.0,0.0,0.0
939,34.0,0.0,90.0,0.0,0.0
940,60.0,0.0,40.0,0.0,0.0
941,59.0,48.0,40.0,0.0,0.0
942,68.0,0.0,180.0,0.0,0.0
943,51.0,0.0,40.0,0.0,0.0
944,60.0,48.0,40.0,0.0,0.0
945,59.0,0.0,40.0,0.0,0.0
946,50.0,48.0,40.0,0.0,0.0
947,48.0,0.0,40.0,0.0,0.0
948,60.0,48.0,40.0,0.0,0.0
949,62.0,0.0,40.0,0.0,0.0
950,47.0,48.0,40.0,0.0,0.0
951,67.0,48.0,90.0,0.0,0.0
952,60.0,0.0,40.0,0.0,0.0
953,45.0,0.0,40.0,0.0,0.0
954,62.0,0.0,40.0,0.0,0.0
955,47.0,48.0,40.0,0.0,0.0
956,65.0,0.0,90.0,0.0,0.0
957,59.0,0.0,40.0,0.0,0.0
958,43.0,48.0,40.0,0.0,0.0
959,55.0,48.0,40.0,0.0,0.0
960,64.0,0.0,180.0,0.0,0.0
961,48.0,48.0,90.0,0.0,0.0
962,56.0,0.0,40.0,0.0,0.0
963,55.0,48.0,40.0,0.0,0.0
964,36.0,48.0,90.0,0.0,0.0
965,56.0,0.0,40.0,0.0,0.0
966,64.0,48.0,40.0,0.0,0.0
967,43.0,48.0,90.0,0.0,0.0
968,58.0,0.0,90.0,0.0,0.0
969,60.0,0.0,40.0,0.0,0.0
970,62.0,48.0,40.0,0.0,0.0
971,55.0,48.0,90.0,0.0,0.0
972,46.0,0.0,90.0,0.0,0.0
973,64.0,0.0,40.0,0.0,0.0
974,65.0,48.0,40.0,0.0,0.0
975,53.0,0.0,90.0,0.0,0.0
976,72.0,48.0,180.0,0.0,0.0
977,44.0,0.0,90.0,0.0,0.0
978,66.0,48.0,40.0,0.0,0.0
979,65.0,48.0,40.0,0.0,0.0
980,60.0,0.0,90.0,0.0,0.0
981,64.0,0.0,40.0,0.0,0.0
982,65.0,48.0,40.0,0.0,0.0
983,56.0,0.0,90.0,0.0,0.0
984,70.0,48.0,40.0,0.0,0.0
985,53.0,0.0,90.0,0.0,0.0
986,68.0,48.0,40.0,0.0,0.0
987,67.0,48.0,40.0,0.0,0.0
988,50.0,0.0,180.0,0.0,0.0
989,65.0,48.0,40.0,0.0,0.0
990,68.0,48.0,180.0,0.0,0.0
991,66.0,48.0,40.0,0.0,0.0
992,65.0,48.0,40.0,0.0,0.0
993,60.0,0.0,90.0,0.0,0.0
994,64.0,0.0,40.0,0.0,0.0
995,65.0,48.0,40.0,0.0,0.0
996,56.0,0.0,90.0,0.0,0.0
997,72.0,0.0,180.0,0.0,0.0
998,70.0,48.0,40.0,0.0,0.0
999,53.0,48.0,90.0,0.0,0.0
1000,68.0,48.0,40.0,0.0,0.0
1001,67.0,0.0,40.0,0.0,0.0
1002,75.0,0.0,180.0,0.0,0.0
1003,60.0,0.0,15.0,0.0,0.0
1004,50.0,48.0,90.0,0.0,0.0
1005,66.0,48.0,40.0,0.0,0.0
1006,74.0,0.0,40.0,0.0,0.0
1007,45.0,0.0,90.0,0.0,0.0
1008,72.0,48.0,40.0,0.0,0.0
1009,54.0,0.0,90.0,0.0,0.0
1010,70.0,48.0,40.0,0.0,0.0
1011,42.0,48.0,90.0,0.0,0.0
1012,74.0,0.0,90.0,0.0,0.0
1013,69.0,48.0,40.0,0.0,0.0
1014,67.0,0.0,40.0,0.0,0.0
1015,50.0,48.0,40.0,0.0,0.0
1016,66.0,0.0,40.0,0.0,0.0
1017,72.0,0.0,90.0,0.0,0.0
1018,38.0,0.0,90.0,0.0,0.0
1019,69.0,0.0,40.0,0.0,0.0
1020,51.0,48.0,40.0,0.0,0.0
1021,53.0,0.0,180.0,0.0,0.0
1022,62.0,48.0,40.0,0.0,0.0
1023,71.0,0.0,180.0,0.0,0.0
1024,63.0,48.0,40.0,0.0,0.0
1025,62.0,48.0,40.0,0.0,0.0
1026,43.0,48.0,90.0,0.0,0.0
1027,63.0,0.0,40.0,0.0,0.0
1028,50.0,48.0,90.0,0.0,0.0
1029,65.0,0.0,90.0,0.0,0.0
1030,71.0,48.0,40.0,0.0,0.0
1031,67.0,0.0,40.0,0.0,0.0
1032,55.0,48.0,90.0,0.0,0.0
1033,62.0,0.0,90.0,0.0,0.0
1034,69.0,48.0,40.0,0.0,0.0
1035,71.0,0.0,40.0,0.0,0.0
1036,53.0,0.0,15.0,0.0,0.0
1037,72.0,0.0,180.0,0.0,0.0
1038,60.0,0.0,90.0,0.0,0.0
1039,55.0,48.0,40.0,0.0,0.0
1040,56.0,0.0,40.0,0.0,0.0
1041,58.0,48.0,40.0,0.0,0.0
1042,67.0,0.0,90.0,0.0,0.0
1043,52.0,48.0,90.0,0.0,0.0
1044,55.0,0.0,40.0,0.0,0.0
1045,56.0,0.0,90.0,0.0,0.0
1046,72.0,48.0,40.0,0.0,0.0
1047,65.0,0.0,180.0,0.0,0.0
1048,73.0,48.0,40.0,0.0,0.0
1049,75.0,48.0,40.0,0.0,0.0
1050,57.0,0.0,90.0,0.0,0.0
1051,72.0,0.0,40.0,0.0,0.0
1052,53.0,48.0,15.0,0.0,0.0
1053,65.0,0.0,40.0,0.0,0.0
1054,58.0,0.0,300.0,0.0,0.0
1055,73.0,0.0,40.0,0.0,0.0
1056,72.0,0.0,40.0,0.0,0.0
1057,55.0,0.0,40.0,0.0,0.0
1058,64.0,48.0,40.0,0.0,0.0
1059,70.0,48.0,150.0,0.0,0.0
1060,56.0,48.0,40.0,0.0,0.0
1061,62.0,0.0,40.0,0.0,0.0
1062,65.0,0.0,40.0,0.0,0.0
1063,53.0,48.0,40.0,0.0,0.0
1064,55.0,0.0,90.0,0.0,0.0
1065,64.0,0.0,90.0,0.0,0.0
1066,72.0,48.0,40.0,0.0,0.0
1067,53.0,0.0,90.0,0.0,0.0
1068,65.0,0.0,90.0,0.0,0.0
1069,56.0,0.0,90.0,0.0,0.0
1070,73.0,48.0,40.0,0.0,0.0
1071,70.0,48.0,40.0,0.0,0.0
1072,67.0,0.0,90.0,0.0,0.0
1073,52.0,0.0,90.0,0.0,0.0
1074,55.0,48.0,90.0,0.0,0.0
1075,72.0,48.0,40.0,0.0,0.0
1076,70.0,0.0,40.0,0.0,0.0
1077,68.0,48.0,150.0,0.0,0.0
1078,60.0,0.0,90.0,0.0,0.0
1079,65.0,48.0,40.0,0.0,0.0
1080,48.0,48.0,90.0,0.0,0.0
1081,64.0,0.0,40.0,0.0,0.0
1082,56.0,0.0,40.0,0.0,0.0
1083,65.0,48.0,180.0,0.0,0.0
1084,49.0,0.0,90.0,0.0,0.0
1085,55.0,0.0,40.0,0.0,0.0
1086,70.0,48.0,40.0,0.0,0.0
1087,50.0,0.0,90.0,0.0,0.0
1088,71.0,48.0,40.0,0.0,0.0
1089,56.0,0.0,90.0,0.0,0.0
1090,68.0,0.0,40.0,0.0,0.0
1091,70.0,48.0,40.0,0.0,0.0
1092,53.0,48.0,90.0,0.0,0.0
1093,50.0,0.0,90.0,0.0,0.0
1094,65.0,0.0,90.0,0.0,0.0
1095,68.0,0.0,40.0,0.0,0.0
1096,51.0,0.0,180.0,0.0,0.0
1097,58.0,48.0,90.0,0.0,0.0
1098,63.0,48.0,40.0,0.0,0.0
1099,67.0,48.0,150.0,0.0,0.0
1100,62.0,0.0,40.0,0.0,0.0
1101,59.0,48.0,90.0,0.0,0.0
1102,63.0,0.0,90.0,0.0,0.0
1103,68.0,0.0,40.0,0.0,0.0
1104,52.0,0.0,90.0,0.0,0.0
1105,70.0,48.0,40.0,0.0,0.0
1106,67.0,0.0,40.0,0.0,0.0
1107,68.0,0.0,390.0,0.0,0.0
1108,52.0,48.0,90.0,0.0,0.0
1109,61.0,48.0,15.0,0.0,0.0
1110,55.0,0.0,40.0,0.0,0.0
1111,62.0,0.0,150.0,0.0,0.0
1112,56.0,48.0,40.0,0.0,0.0
1113,53.0,48.0,150.0,0.0,0.0
1114,58.0,48.0,40.0,0.0,0.0
1115,51.0,0.0,40.0,0.0,0.0
1116,63.0,48.0,40.0,0.0,0.0
1117,65.0,0.0,40.0,0.0,0.0
1118,50.0,48.0,40.0,0.0,0.0
1119,53.0,48.0,40.0,0.0,0.0
1120,62.0,0.0,40.0,0.0,0.0
1121,63.0,48.0,90.0,0.0,0.0
1122,51.0,48.0,180.0,0.0,0.0
1123,59.0,0.0,15.0,0.0,0.0
1124,68.0,0.0,180.0,0.0,0.0
1125,58.0,48.0,180.0,0.0,0.0
1126,61.0,48.0,40.0,0.0,0.0
1127,64.0,0.0,40.0,0.0,0.0
1128,63.0,0.0,40.0,0.0,0.0
1129,67.0,48.0,180.0,0.0,0.0
1130,39.0,0.0,180.0,0.0,0.0
1131,58.0,0.0,40.0,0.0,0.0
1132,61.0,48.0,40.0,0.0,0.0
1133,60.0,48.0,40.0,0.0,0.0
1134,58.0,0.0,40.0,0.0,0.0
1135,51.0,0.0,15.0,0.0,0.0
1136,60.0,0.0,90.0,0.0,0.0
1137,68.0,0.0,180.0,0.0,0.0
1138,44.0,0.0,180.0,0.0,0.0
1139,51.0,48.0,40.0,0.0,0.0
1140,53.0,48.0,40.0,0.0,0.0
1141,63.0,96.0,90.0,0.0,0.0
1142,55.0,0.0,40.0,0.0,0.0
1143,60.0,0.0,90.0,0.0,0.0
1144,56.0,0.0,90.0,0.0,0.0
1145,44.0,48.0,40.0,0.0,0.0
1146,46.0,48.0,40.0,0.0,0.0
1147,68.0,48.0,90.0,0.0,0.0
1148,48.0,0.0,40.0,0.0,0.0
1149,49.0,0.0,180.0,0.0,0.0
1150,63.0,0.0,15.0,0.0,0.0
1151,65.0,0.0,180.0,0.0,0.0
1152,63.0,48.0,15.0,0.0,0.0
1153,56.0,96.0,90.0,0.0,0.0
1154,61.0,48.0,40.0,0.0,0.0
1155,60.0,0.0,40.0,0.0,0.0
1156,61.0,48.0,90.0,0.0,0.0
1157,53.0,96.0,180.0,0.0,0.0
1158,51.0,0.0,40.0,0.0,0.0
1159,49.0,48.0,40.0,0.0,0.0
1160,77.0,0.0,90.0,0.0,0.0
1161,48.0,0.0,40.0,0.0,0.0
1162,46.0,0.0,180.0,0.0,0.0
1163,73.0,96.0,180.0,0.0,0.0
1164,53.0,48.0,40.0,0.0,0.0
1165,65.0,0.0,90.0,0.0,0.0
1166,55.0,48.0,40.0,0.0,0.0
1167,57.0,0.0,40.0,0.0,0.0
1168,58.0,0.0,90.0,0.0,0.0
1169,61.0,48.0,90.0,0.0,0.0
1170,46.0,0.0,40.0,0.0,0.0
1171,70.0,0.0,90.0,0.0,0.0
1172,48.0,48.0,40.0,0.0,0.0
1173,65.0,48.0,90.0,0.0,0.0
1174,49.0,0.0,40.0,0.0,0.0
1175,51.0,0.0,180.0,0.0,0.0
1176,65.0,48.0,40.0,0.0,0.0
1177,67.0,96.0,180.0,0.0,0.0
1178,65.0,48.0,40.0,0.0,0.0
1179,58.0,0.0,90.0,0.0,0.0
1180,63.0,48.0,40.0,0.0,0.0
1181,62.0,0.0,40.0,0.0,0.0
1182,55.0,0.0,180.0,0.0,0.0
1183,63.0,96.0,180.0,0.0,0.0
1184,53.0,48.0,40.0,0.0,0.0
1185,51.0,48.0,40.0,0.0,0.0
1186,70.0,0.0,90.0,0.0,0.0
1187,49.0,0.0,40.0,0.0,0.0
1188,48.0,96.0,180.0,0.0,0.0
1189,75.0,0.0,390.0,0.0,0.0
1190,55.0,48.0,40.0,0.0,0.0
1191,72.0,0.0,90.0,0.0,0.0
1192,57.0,48.0,40.0,0.0,0.0
1193,58.0,0.0,40.0,0.0,0.0
1194,60.0,0.0,90.0,0.0,0.0
1195,69.0,0.0,90.0,0.0,0.0
1196,48.0,48.0,40.0,0.0,0.0
1197,70.0,48.0,90.0,0.0,0.0
1198,49.0,48.0,40.0,0.0,0.0
1199,66.0,0.0,90.0,0.0,0.0
1200,51.0,0.0,40.0,0.0,0.0
1201,60.0,0.0,40.0,0.0,0.0
1202,70.0,48.0,40.0,0.0,0.0
1203,53.0,48.0,180.0,0.0,0.0
1204,67.0,0.0,40.0,0.0,0.0
1205,58.0,48.0,40.0,0.0,0.0
1206,60.0,0.0,90.0,0.0,0.0
1207,69.0,48.0,40.0,0.0,0.0
1208,70.0,0.0,40.0,0.0,0.0
1209,75.0,0.0,15.0,0.0,0.0
1210,57.0,0.0,180.0,0.0,0.0
1211,75.0,48.0,40.0,0.0,0.0
1212,73.0,48.0,40.0,0.0,0.0
1213,53.0,0.0,90.0,0.0,0.0
1214,72.0,0.0,40.0,0.0,0.0
1215,72.0,48.0,15.0,0.0,0.0
1216,73.0,0.0,180.0,0.0,0.0
1217,46.0,0.0,180.0,0.0,0.0
1218,72.0,48.0,40.0,0.0,0.0
1219,53.0,0.0,90.0,0.0,0.0
1220,70.0,48.0,40.0,0.0,0.0
1221,69.0,96.0,40.0,0.0,0.0
1222,70.0,48.0,180.0,0.0,0.0
1223,49.0,0.0,180.0,0.0,0.0
1224,46.0,48.0,40.0,0.0,0.0
1225,75.0,0.0,40.0,0.0,0.0
1226,44.0,48.0,40.0,0.0,0.0
1227,77.0,0.0,40.0,0.0,0.0
1228,78.0,0.0,40.0,0.0,0.0
1229,42.0,0.0,40.0,0.0,0.0
1230,41.0,0.0,90.0,0.0,0.0
1231,80.0,48.0,40.0,0.0,0.0
1232,73.0,48.0,40.0,0.0,0.0
1233,56.0,0.0,90.0,0.0,0.0
1234,71.0,48.0,40.0,0.0,0.0
1235,70.0,96.0,40.0,0.0,0.0
1236,53.0,48.0,90.0,0.0,0.0
1237,66.0,0.0,40.0,0.0,0.0
1238,65.0,48.0,40.0,0.0,0.0
1239,49.0,0.0,90.0,0.0,0.0
1240,56.0,0.0,90.0,0.0,0.0
1241,63.0,0.0,40.0,0.0,0.0
1242,71.0,48.0,15.0,0.0,0.0
1243,42.0,0.0,180.0,0.0,0.0
1244,61.0,48.0,40.0,0.0,0.0
1245,68.0,0.0,40.0,0.0,0.0
1246,70.0,0.0,90.0,0.0,0.0
1247,66.0,48.0,40.0,0.0,0.0
1248,49.0,0.0,90.0,0.0,0.0
1249,65.0,96.0,40.0,0.0,0.0
1250,46.0,0.0,180.0,0.0,0.0
1251,66.0,0.0,90.0,0.0,0.0
1252,42.0,48.0,40.0,0.0,0.0
1253,72.0,0.0,40.0,0.0,0.0
1254,74.0,48.0,40.0,0.0,0.0
1255,41.0,0.0,40.0,0.0,0.0
1256,39.0,48.0,40.0,0.0,0.0
1257,75.0,0.0,40.0,0.0,0.0
1258,77.0,48.0,40.0,0.0,0.0
1259,38.0,0.0,90.0,0.0,0.0
1260,70.0,48.0,40.0,0.0,0.0
1261,53.0,0.0,90.0,0.0,0.0
1262,68.0,48.0,40.0,0.0,0.0
1263,66.0,96.0,40.0,0.0,0.0
1264,50.0,48.0,90.0,0.0,0.0
1265,63.0,0.0,40.0,0.0,0.0
1266,53.0,0.0,90.0,0.0,0.0
1267,46.0,0.0,90.0,0.0,0.0
1268,62.0,48.0,40.0,0.0,0.0
1269,60.0,0.0,40.0,0.0,0.0
1270,68.0,48.0,15.0,0.0,0.0
1271,53.0,0.0,90.0,0.0,0.0
1272,58.0,0.0,90.0,0.0,0.0
1273,39.0,0.0,90.0,0.0,0.0
1274,66.0,48.0,40.0,0.0,0.0
1275,51.0,48.0,40.0,0.0,0.0
1276,41.0,0.0,90.0,0.0,0.0
1277,68.0,0.0,40.0,0.0,0.0
1278,71.0,0.0,40.0,0.0,0.0
1279,50.0,96.0,40.0,0.0,0.0
1280,42.0,48.0,90.0,0.0,0.0
1281,63.0,0.0,40.0,0.0,0.0
1282,39.0,0.0,90.0,0.0,0.0
1283,65.0,48.0,40.0,0.0,0.0
1284,66.0,0.0,40.0,0.0,0.0
1285,51.0,0.0,15.0,0.0,0.0
1286,59.0,48.0,90.0,0.0,0.0
1287,70.0,48.0,15.0,0.0,0.0
1288,44.0,0.0,90.0,0.0,0.0
1289,50.0,0.0,40.0,0.0,0.0
1290,68.0,0.0,40.0,0.0,0.0
1291,47.0,96.0,90.0,0.0,0.0
1292,51.0,48.0,40.0,0.0,0.0
1293,70.0,0.0,40.0,0.0,0.0
1294,54.0,0.0,40.0,0.0,0.0
1295,44.0,48.0,90.0,0.0,0.0
1296,71.0,0.0,180.0,0.0,0.0
1297,65.0,0.0,40.0,0.0,0.0
1298,66.0,48.0,40.0,0.0,0.0
1299,41.0,0.0,90.0,0.0,0.0
1300,68.0,0.0,40.0,0.0,0.0
1301,62.0,48.0,90.0,0.0,0.0
1302,71.0,0.0,90.0,0.0,0.0
1303,46.0,0.0,90.0,0.0,0.0
1304,53.0,48.0,15.0,0.0,0.0
1305,51.0,0.0,40.0,0.0,0.0
1306,50.0,0.0,90.0,0.0,0.0
1307,53.0,0.0,40.0,0.0,0.0
1308,70.0,48.0,40.0,0.0,0.0
1309,56.0,0.0,40.0,0.0,0.0
1310,71.0,96.0,40.0,0.0,0.0
1311,46.0,48.0,90.0,0.0,0.0
1312,66.0,0.0,40.0,0.0,0.0
1313,42.0,48.0,90.0,0.0,0.0
1314,70.0,48.0,40.0,0.0,0.0
1315,64.0,0.0,40.0,0.0,0.0
1316,54.0,0.0,15.0,0.0,0.0
1317,73.0,0.0,15.0,0.0,0.0
1318,63.0,0.0,90.0,0.0,0.0
1319,47.0,0.0,90.0,0.0,0.0
1320,53.0,48.0,40.0,0.0,0.0
1321,71.0,0.0,40.0,0.0,0.0
1322,54.0,48.0,40.0,0.0,0.0
1323,51.0,0.0,90.0,0.0,0.0
1324,73.0,96.0,40.0,0.0,0.0
1325,58.0,0.0,40.0,0.0,0.0
1326,75.0,0.0,180.0,0.0,0.0
1327,56.0,48.0,180.0,0.0,0.0
1328,48.0,48.0,90.0,0.0,0.0
1329,65.0,0.0,40.0,0.0,0.0
1330,44.0,0.0,90.0,0.0,0.0
1331,66.0,48.0,40.0,0.0,0.0
1332,63.0,0.0,40.0,0.0,0.0
1333,49.0,0.0,90.0,0.0,0.0
1334,65.0,0.0,90.0,0.0,0.0
1335,75.0,0.0,90.0,0.0,0.0
1336,56.0,48.0,40.0,0.0,0.0
1337,54.0,48.0,40.0,0.0,0.0
1338,73.0,0.0,40.0,0.0,0.0
1339,53.0,0.0,90.0,0.0,0.0
1340,56.0,48.0,40.0,0.0,0.0
1341,75.0,0.0,40.0,0.0,0.0
1342,59.0,48.0,40.0,0.0,0.0
1343,50.0,48.0,90.0,0.0,0.0
1344,58.0,48.0,40.0,0.0,0.0
1345,56.0,0.0,40.0,0.0,0.0
1346,54.0,48.0,40.0,0.0,0.0
1347,46.0,48.0,90.0,0.0,0.0
1348,53.0,0.0,40.0,0.0,0.0
1349,77.0,0.0,15.0,0.0,0.0
1350,51.0,48.0,90.0,0.0,0.0
1351,54.0,48.0,150.0,0.0,0.0
1352,70.0,0.0,40.0,0.0,0.0
1353,75.0,0.0,180.0,0.0,0.0
1354,47.0,24.0,90.0,0.0,0.0
1355,56.0,0.0,40.0,0.0,0.0
1356,54.0,24.0,20.0,0.0,0.0
1357,44.0,0.0,90.0,0.0,0.0
1358,53.0,24.0,20.0,0.0,0.0
1359,54.0,24.0,20.0,0.0,0.0
1360,71.0,24.0,40.0,0.0,0.0
1361,53.0,0.0,20.0,0.0,0.0
1362,54.0,24.0,20.0,0.0,0.0
1363,74.0,0.0,90.0,0.0,0.0
1364,70.0,0.0,40.0,0.0,0.0
1365,46.0,0.0,90.0,0.0,0.0
1366,53.0,24.0,20.0,0.0,0.0
1367,51.0,24.0,20.0,0.0,0.0
1368,68.0,0.0,40.0,0.0,0.0
1369,53.0,48.0,20.0,0.0,0.0
1370,66.0,0.0,90.0,0.0,0.0
1371,75.0,0.0,90.0,0.0,0.0
1372,51.0,48.0,40.0,0.0,0.0
1373,59.0,48.0,40.0,0.0,0.0
1374,58.0,48.0,40.0,0.0,0.0
1375,56.0,0.0,40.0,0.0,0.0
1376,54.0,96.0,15.0,0.0,0.0
1377,51.0,0.0,180.0,0.0,0.0
1378,68.0,48.0,40.0,0.0,0.0
1379,66.0,48.0,40.0,0.0,0.0
1380,75.0,96.0,90.0,0.0,0.0
1381,65.0,0.0,40.0,0.0,0.0
1382,63.0,0.0,180.0,0.0,0.0
1383,72.0,96.0,180.0,0.0,0.0
1384,56.0,48.0,40.0,0.0,0.0
1385,54.0,48.0,40.0,0.0,0.0
1386,51.0,0.0,90.0,0.0,0.0
1387,53.0,0.0,40.0,0.0,0.0
1388,48.0,0.0,180.0,0.0,0.0
1389,51.0,0.0,180.0,0.0,0.0
1390,73.0,48.0,40.0,0.0,0.0
1391,63.0,0.0,90.0,0.0,0.0
1392,72.0,48.0,40.0,0.0,0.0
1393,70.0,96.0,40.0,0.0,0.0
1394,68.0,0.0,180.0,0.0,0.0
1395,60.0,96.0,180.0,0.0,0.0
1396,58.0,48.0,40.0,0.0,0.0
1397,53.0,0.0,90.0,0.0,0.0
1398,56.0,48.0,40.0,0.0,0.0
1399,54.0,0.0,40.0,0.0,0.0
1400,49.0,0.0,180.0,0.0,0.0
1401,53.0,0.0,180.0,0.0,0.0
1402,66.0,48.0,40.0,0.0,0.0
1403,68.0,96.0,90.0,0.0,0.0
1404,65.0,48.0,40.0,0.0,0.0
1405,63.0,0.0,40.0,0.0,0.0
1406,61.0,0.0,180.0,0.0,0.0
1407,65.0,96.0,180.0,0.0,0.0
1408,54.0,48.0,40.0,0.0,0.0
1409,53.0,48.0,40.0,0.0,0.0
1410,51.0,0.0,40.0,0.0,0.0
1411,49.0,0.0,15.0,0.0,0.0
1412,75.0,48.0,40.0,0.0,0.0
1413,65.0,0.0,90.0,0.0,0.0
1414,73.0,48.0,40.0,0.0,0.0
1415,72.0,0.0,40.0,0.0,0.0
1416,46.0,48.0,15.0,0.0,0.0
1417,53.0,0.0,180.0,0.0,0.0
1418,70.0,48.0,40.0,0.0,0.0
1419,71.0,0.0,40.0,0.0,0.0
1420,70.0,48.0,40.0,0.0,0.0
1421,49.0,0.0,180.0,0.0,0.0
1422,69.0,0.0,40.0,0.0,0.0
1423,61.0,48.0,15.0,0.0,0.0
1424,70.0,0.0,180.0,0.0,0.0
1425,46.0,0.0,180.0,0.0,0.0
1426,63.0,48.0,40.0,0.0,0.0
1427,61.0,48.0,40.0,0.0,0.0
1428,60.0,48.0,40.0,0.0,0.0
1429,42.0,0.0,15.0,0.0,0.0
1430,49.0,0.0,180.0,0.0,0.0
1431,58.0,48.0,90.0,0.0,0.0
1432,70.0,48.0,40.0,0.0,0.0
1433,71.0,0.0,40.0,0.0,0.0
1434,70.0,48.0,40.0,0.0,0.0
1435,46.0,0.0,180.0,0.0,0.0
1436,61.0,48.0,150.0,0.0,0.0
1437,69.0,48.0,40.0,0.0,0.0
1438,53.0,0.0,180.0,0.0,0.0
1439,70.0,0.0,180.0,0.0,0.0
1440,63.0,48.0,40.0,0.0,0.0
1441,49.0,0.0,90.0,0.0,0.0
1442,61.0,48.0,40.0,0.0,0.0
1443,60.0,48.0,40.0,0.0,0.0
1444,58.0,48.0,90.0,0.0,0.0
1445,54.0,0.0,180.0,0.0,0.0
1446,49.0,0.0,90.0,0.0,0.0
1447,70.0,48.0,40.0,0.0,0.0
1448,71.0,0.0,40.0,0.0,0.0
1449,70.0,48.0,40.0,0.0,0.0
1450,60.0,48.0,90.0,0.0,0.0
1451,51.0,0.0,150.0,0.0,0.0
1452,69.0,0.0,40.0,0.0,0.0
1453,53.0,0.0,90.0,0.0,0.0
1454,70.0,48.0,150.0,0.0,0.0
1455,61.0,48.0,40.0,0.0,0.0
1456,49.0,0.0,90.0,0.0,0.0
1457,65.0,48.0,40.0,0.0,0.0
1458,51.0,96.0,90.0,0.0,0.0
1459,67.0,0.0,40.0,0.0,0.0
1460,69.0,0.0,40.0,0.0,0.0
1461,72.0,0.0,40.0,0.0,0.0
1462,48.0,0.0,40.0,0.0,0.0
1463,73.0,0.0,90.0,0.0,0.0
1464,70.0,96.0,90.0,0.0,0.0
1465,77.0,0.0,90.0,0.0,0.0
1466,70.0,0.0,90.0,0.0,0.0
1467,73.0,0.0,15.0,0.0,0.0
1468,46.0,48.0,15.0,0.0,0.0
1469,49.0,0.0,15.0,0.0,0.0
1470,48.0,0.0,40.0,0.0,0.0
1471,45.0,48.0,40.0,0.0,0.0
1472,65.0,0.0,90.0,0.0,0.0
1473,46.0,48.0,40.0,0.0,0.0
1474,49.0,0.0,40.0,0.0,0.0
1475,51.0,0.0,40.0,0.0,0.0
1476,48.0,48.0,40.0,0.0,0.0
1477,61.0,0.0,180.0,0.0,0.0
1478,70.0,48.0,90.0,0.0,0.0
1479,53.0,48.0,40.0,0.0,0.0
1480,54.0,0.0,40.0,0.0,0.0
1481,53.0,48.0,40.0,0.0,0.0
1482,65.0,48.0,180.0,0.0,0.0
1483,52.0,0.0,40.0,0.0,0.0
1484,56.0,0.0,180.0,0.0,0.0
1485,49.0,48.0,15.0,0.0,0.0
1486,49.0,0.0,40.0,0.0,0.0
1487,48.0,48.0,40.0,0.0,0.0
1488,46.0,48.0,40.0,0.0,0.0
1489,53.0,0.0,15.0,0.0,0.0
1490,68.0,0.0,15.0,0.0,0.0
1491,44.0,48.0,180.0,0.0,0.0
1492,60.0,0.0,180.0,0.0,0.0
1493,53.0,48.0,15.0,0.0,0.0
1494,51.0,48.0,40.0,0.0,0.0
1495,72.0,0.0,180.0,0.0,0.0
1496,49.0,0.0,40.0,0.0,0.0
1497,48.0,48.0,90.0,0.0,0.0
1498,64.0,0.0,180.0,0.0,0.0
1499,44.0,48.0,40.0,0.0,0.0
1500,43.0,48.0,90.0,0.0,0.0
1501,42.0,0.0,40.0,0.0,0.0
1502,46.0,0.0,15.0,0.0,0.0
1503,73.0,48.0,15.0,0.0,0.0
1504,65.0,48.0,180.0,0.0,0.0
1505,48.0,48.0,40.0,0.0,0.0
1506,46.0,48.0,40.0,0.0,0.0
1507,72.0,0.0,180.0,0.0,0.0
1508,45.0,0.0,40.0,0.0,0.0
1509,46.0,48.0,40.0,0.0,0.0
1510,63.0,48.0,90.0,0.0,0.0
1511,48.0,0.0,40.0,0.0,0.0
1512,70.0,0.0,90.0,0.0,0.0
1513,49.0,48.0,40.0,0.0,0.0
1514,61.0,48.0,90.0,0.0,0.0
1515,51.0,0.0,40.0,0.0,0.0
1516,53.0,48.0,40.0,0.0,0.0
1517,70.0,48.0,90.0,0.0,0.0
1518,41.0,0.0,15.0,0.0,0.0
1519,60.0,0.0,180.0,0.0,0.0
1520,51.0,0.0,40.0,0.0,0.0
1521,53.0,48.0,40.0,0.0,0.0
1522,69.0,0.0,150.0,0.0,0.0
1523,54.0,48.0,40.0,0.0,0.0
1524,53.0,0.0,40.0,0.0,0.0
1525,60.0,48.0,40.0,0.0,0.0
1526,65.0,48.0,40.0,0.0,0.0
1527,51.0,0.0,40.0,0.0,0.0
1528,57.0,0.0,40.0,0.0,0.0
1529,58.0,0.0,40.0,0.0,0.0
1530,49.0,0.0,40.0,0.0,0.0
1531,67.0,48.0,40.0,0.0,0.0
1532,48.0,96.0,40.0,0.0,0.0
1533,69.0,0.0,40.0,0.0,0.0
1534,60.0,0.0,40.0,0.0,0.0
1535,53.0,0.0,90.0,0.0,0.0
1536,50.0,0.0,180.0,0.0,0.0
1537,70.0,0.0,180.0,0.0,0.0
1538,56.0,48.0,40.0,0.0,0.0
1539,65.0,48.0,90.0,0.0,0.0
1540,58.0,48.0,40.0,0.0,0.0
1541,59.0,0.0,40.0,0.0,0.0
1542,62.0,96.0,180.0,0.0,0.0
1543,58.0,48.0,40.0,0.0,0.0
1544,56.0,48.0,40.0,0.0,0.0
1545,70.0,0.0,90.0,0.0,0.0
1546,46.0,0.0,90.0,0.0,0.0
1547,54.0,48.0,40.0,0.0,0.0
1548,53.0,0.0,40.0,0.0,0.0
1549,51.0,48.0,90.0,0.0,0.0
1550,66.0,48.0,180.0,0.0,0.0
1551,39.0,0.0,90.0,0.0,0.0
1552,62.0,0.0,40.0,0.0,0.0
1553,63.0,48.0,40.0,0.0,0.0
1554,58.0,0.0,90.0,0.0,0.0
1555,65.0,0.0,40.0,0.0,0.0
1556,63.0,48.0,40.0,0.0,0.0
1557,61.0,48.0,40.0,0.0,0.0
1558,60.0,48.0,40.0,0.0,0.0
1559,51.0,0.0,90.0,0.0,0.0
1560,58.0,0.0,40.0,0.0,0.0
1561,48.0,0.0,180.0,0.0,0.0
1562,54.0,48.0,15.0,0.0,0.0
1563,56.0,0.0,90.0,0.0,0.0
1564,66.0,48.0,40.0,0.0,0.0
1565,51.0,0.0,40.0,0.0,0.0
1566,53.0,48.0,40.0,0.0,0.0
1567,68.0,0.0,40.0,0.0,0.0
1568,70.0,0.0,40.0,0.0,0.0
1569,54.0,48.0,40.0,0.0,0.0
1570,53.0,0.0,40.0,0.0,0.0
1571,68.0,48.0,40.0,0.0,0.0
1572,51.0,48.0,40.0,0.0,0.0
1573,66.0,0.0,40.0,0.0,0.0
1574,44.0,96.0,90.0,0.0,0.0
1575,65.0,48.0,40.0,0.0,0.0
1576,49.0,0.0,40.0,0.0,0.0
1577,63.0,0.0,40.0,0.0,0.0
1578,48.0,0.0,40.0,0.0,0.0
1579,65.0,0.0,390.0,0.0,0.0
1580,49.0,0.0,90.0,0.0,0.0
1581,60.0,48.0,40.0,0.0,0.0
1582,44.0,48.0,90.0,0.0,0.0
1583,61.0,48.0,40.0,0.0,0.0
1584,63.0,0.0,40.0,0.0,0.0
1585,61.0,48.0,40.0,0.0,0.0
1586,41.0,0.0,90.0,0.0,0.0
1587,59.0,48.0,40.0,0.0,0.0
1588,58.0,48.0,40.0,0.0,0.0
1589,37.0,48.0,90.0,0.0,0.0
1590,57.0,0.0,40.0,0.0,0.0
1591,58.0,48.0,90.0,0.0,0.0
1592,49.0,0.0,15.0,0.0,0.0
1593,42.0,48.0,180.0,0.0,0.0
1594,65.0,0.0,90.0,0.0,0.0
1595,49.0,48.0,15.0,0.0,0.0
1596,48.0,48.0,40.0,0.0,0.0
1597,63.0,0.0,90.0,0.0,0.0
1598,46.0,0.0,40.0,0.0,0.0
1599,42.0,48.0,40.0,0.0,0.0
1600,48.0,48.0,90.0,0.0,0.0
1601,41.0,0.0,40.0,0.0,0.0
1602,60.0,0.0,90.0,0.0,0.0
1603,39.0,48.0,40.0,0.0,0.0
1604,42.0,48.0,40.0,0.0,0.0
1605,68.0,0.0,15.0,0.0,0.0
1606,41.0,48.0,40.0,0.0,0.0
1607,56.0,0.0,90.0,0.0,0.0
1608,51.0,0.0,15.0,0.0,0.0
1609,43.0,48.0,40.0,0.0,0.0
1610,65.0,0.0,90.0,0.0,0.0
1611,50.0,48.0,40.0,0.0,0.0
1612,44.0,48.0,150.0,0.0,0.0
1613,48.0,48.0,40.0,0.0,0.0
1614,50.0,48.0,90.0,0.0,0.0
1615,43.0,0.0,40.0,0.0,0.0
1616,41.0,48.0,40.0,0.0,0.0
1617,53.0,0.0,90.0,0.0,0.0
1618,62.0,0.0,90.0,0.0,0.0
1619,44.0,0.0,40.0,0.0,0.0
1620,70.0,48.0,15.0,0.0,0.0
1621,58.0,0.0,90.0,0.0,0.0
1622,43.0,48.0,40.0,0.0,0.0
1623,53.0,48.0,90.0,0.0,0.0
1624,45.0,0.0,40.0,0.0,0.0
1625,46.0,48.0,150.0,0.0,0.0
1626,67.0,48.0,90.0,0.0,0.0
1627,52.0,48.0,40.0,0.0,0.0
1628,50.0,0.0,40.0,0.0,0.0
1629,52.0,0.0,90.0,0.0,0.0
1630,45.0,48.0,40.0,0.0,0.0
1631,43.0,48.0,40.0,0.0,0.0
1632,64.0,0.0,90.0,0.0,0.0
1633,46.0,48.0,40.0,0.0,0.0
1634,72.0,0.0,15.0,0.0,0.0
1635,60.0,48.0,90.0,0.0,0.0
1636,55.0,0.0,15.0,0.0,0.0
1637,45.0,48.0,40.0,0.0,0.0
1638,46.0,0.0,40.0,0.0,0.0
1639,73.0,0.0,40.0,0.0,0.0
1640,54.0,48.0,90.0,0.0,0.0
1641,48.0,0.0,150.0,0.0,0.0
1642,75.0,48.0,40.0,0.0,0.0
1643,70.0,0.0,40.0,0.0,0.0
1644,53.0,0.0,180.0,0.0,0.0
1645,69.0,48.0,40.0,0.0,0.0
1646,46.0,48.0,40.0,0.0,0.0
1647,78.0,0.0,40.0,0.0,0.0
1648,45.0,48.0,40.0,0.0,0.0
1649,77.0,0.0,40.0,0.0,0.0
1650,75.0,96.0,40.0,0.0,0.0
1651,48.0,0.0,40.0,0.0,0.0
1652,73.0,0.0,390.0,0.0,0.0
1653,46.0,48.0,90.0,0.0,0.0
1654,53.0,0.0,90.0,0.0,0.0
1655,70.0,0.0,40.0,0.0,0.0
1656,51.0,48.0,90.0,0.0,0.0
1657,69.0,48.0,40.0,0.0,0.0
1658,48.0,0.0,90.0,0.0,0.0
1659,72.0,0.0,40.0,0.0,0.0
1660,53.0,48.0,90.0,0.0,0.0
1661,49.0,0.0,90.0,0.0,0.0
1662,70.0,48.0,40.0,0.0,0.0
1663,68.0,0.0,40.0,0.0,0.0
1664,46.0,0.0,90.0,0.0,0.0
1665,66.0,48.0,40.0,0.0,0.0
1666,58.0,48.0,90.0,0.0,0.0
1667,65.0,0.0,40.0,0.0,0.0
1668,51.0,0.0,180.0,0.0,0.0
1669,73.0,0.0,90.0,0.0,0.0
1670,66.0,48.0,40.0,0.0,0.0
1671,58.0,48.0,90.0,0.0,0.0
1672,65.0,0.0,40.0,0.0,0.0
1673,54.0,0.0,90.0,0.0,0.0
1674,72.0,48.0,40.0,0.0,0.0
1675,63.0,48.0,150.0,0.0,0.0
1676,70.0,48.0,40.0,0.0,0.0
1677,51.0,48.0,90.0,0.0,0.0
1678,65.0,0.0,40.0,0.0,0.0
1679,44.0,0.0,90.0,0.0,0.0
1680,48.0,0.0,90.0,0.0,0.0
1681,66.0,48.0,40.0,0.0,0.0
1682,63.0,0.0,40.0,0.0,0.0
1683,49.0,0.0,180.0,0.0,0.0
1684,72.0,48.0,15.0,0.0,0.0
1685,65.0,48.0,40.0,0.0,0.0
1686,63.0,0.0,40.0,0.0,0.0
1687,70.0,48.0,40.0,0.0,0.0
1688,61.0,48.0,150.0,0.0,0.0
1689,53.0,48.0,90.0,0.0,0.0
1690,69.0,0.0,40.0,0.0,0.0
1691,70.0,0.0,180.0,0.0,0.0
1692,49.0,0.0,90.0,0.0,0.0
1693,63.0,48.0,40.0,0.0,0.0
1694,37.0,0.0,90.0,0.0,0.0
1695,46.0,0.0,90.0,0.0,0.0
1696,65.0,48.0,40.0,0.0,0.0
1697,61.0,48.0,40.0,0.0,0.0
1698,70.0,0.0,90.0,0.0,0.0
1699,63.0,48.0,40.0,0.0,0.0
1700,61.0,48.0,40.0,0.0,0.0
1701,68.0,48.0,40.0,0.0,0.0
1702,59.0,0.0,150.0,0.0,0.0
1703,51.0,48.0,90.0,0.0,0.0
1704,66.0,0.0,40.0,0.0,0.0
1705,42.0,0.0,15.0,0.0,0.0
1706,47.0,0.0,90.0,0.0,0.0
1707,41.0,48.0,40.0,0.0,0.0
1708,62.0,0.0,40.0,0.0,0.0
1709,44.0,48.0,90.0,0.0,0.0
1710,63.0,48.0,40.0,0.0,0.0
1711,42.0,0.0,40.0,0.0,0.0
1712,39.0,0.0,40.0,0.0,0.0
1713,60.0,0.0,40.0,0.0,0.0
1714,62.0,48.0,40.0,0.0,0.0
1715,42.0,0.0,40.0,0.0,0.0
1716,68.0,0.0,15.0,0.0,0.0
1717,41.0,0.0,40.0,0.0,0.0
1718,63.0,48.0,40.0,0.0,0.0
1719,65.0,0.0,90.0,0.0,0.0
1720,39.0,48.0,40.0,0.0,0.0
1721,38.0,0.0,40.0,0.0,0.0
1722,58.0,0.0,90.0,0.0,0.0
1723,39.0,0.0,180.0,0.0,0.0
1724,68.0,0.0,15.0,0.0,0.0
1725,46.0,48.0,15.0,0.0,0.0
1726,46.0,0.0,40.0,0.0,0.0
1727,66.0,48.0,40.0,0.0,0.0
1728,48.0,48.0,40.0,0.0,0.0
1729,68.0,0.0,40.0,0.0,0.0
1730,50.0,0.0,40.0,0.0,0.0
1731,65.0,48.0,40.0,0.0,0.0
1732,51.0,0.0,90.0,0.0,0.0
1733,39.0,48.0,40.0,0.0,0.0
1734,66.0,0.0,40.0,0.0,0.0
1735,38.0,0.0,40.0,0.0,0.0
1736,70.0,48.0,40.0,0.0,0.0
1737,71.0,0.0,40.0,0.0,0.0
1738,39.0,48.0,40.0,0.0,0.0
1739,68.0,48.0,40.0,0.0,0.0
1740,41.0,0.0,40.0,0.0,0.0
1741,42.0,48.0,40.0,0.0,0.0
1742,70.0,0.0,40.0,0.0,0.0
1743,39.0,48.0,40.0,0.0,0.0
1744,75.0,0.0,40.0,0.0,0.0
1745,42.0,0.0,40.0,0.0,0.0
1746,70.0,48.0,40.0,0.0,0.0
1747,46.0,0.0,40.0,0.0,0.0
1748,68.0,48.0,40.0,0.0,0.0
1749,68.0,48.0,40.0,0.0,0.0
1750,58.0,0.0,180.0,0.0,0.0
1751,66.0,48.0,40.0,0.0,0.0
1752,68.0,48.0,40.0,0.0,0.0
1753,53.0,48.0,90.0,0.0,0.0
1754,71.0,0.0,40.0,0.0,0.0
1755,54.0,48.0,90.0,0.0,0.0
1756,70.0,48.0,40.0,0.0,0.0
1757,68.0,0.0,40.0,0.0,0.0
1758,66.0,48.0,40.0,0.0,0.0
1759,56.0,0.0,90.0,0.0,0.0
1760,65.0,48.0,40.0,0.0,0.0
1761,51.0,0.0,15.0,0.0,0.0
1762,54.0,0.0,180.0,0.0,0.0
1763,63.0,48.0,40.0,0.0,0.0
1764,46.0,48.0,40.0,0.0,0.0
1765,62.0,0.0,40.0,0.0,0.0
1766,44.0,48.0,40.0,0.0,0.0
1767,63.0,0.0,90.0,0.0,0.0
1768,41.0,0.0,40.0,0.0,0.0
1769,58.0,48.0,15.0,0.0,0.0
1770,42.0,48.0,40.0,0.0,0.0
1771,46.0,48.0,40.0,0.0,0.0
1772,39.0,48.0,40.0,0.0,0.0
1773,53.0,0.0,90.0,0.0,0.0
1774,65.0,0.0,90.0,0.0,0.0
1775,37.0,48.0,40.0,0.0,0.0
1776,61.0,0.0,180.0,0.0,0.0
1777,55.0,0.0,180.0,0.0,0.0
1778,36.0,48.0,40.0,0.0,0.0
1779,64.0,48.0,180.0,0.0,0.0
1780,48.0,48.0,40.0,0.0,0.0
1781,46.0,48.0,40.0,0.0,0.0
1782,43.0,0.0,40.0,0.0,0.0
1783,44.0,48.0,40.0,0.0,0.0
1784,60.0,0.0,90.0,0.0,0.0
1785,65.0,0.0,90.0,0.0,0.0
1786,48.0,48.0,40.0,0.0,0.0
1787,41.0,48.0,40.0,0.0,0.0
1788,58.0,0.0,90.0,0.0,0.0
1789,40.0,48.0,40.0,0.0,0.0
1790,61.0,0.0,15.0,0.0,0.0
1791,41.0,48.0,40.0,0.0,0.0
1792,53.0,0.0,40.0,0.0,0.0
1793,51.0,48.0,40.0,0.0,0.0
1794,60.0,0.0,90.0,0.0,0.0
1795,48.0,48.0,40.0,0.0,0.0
1796,57.0,0.0,15.0,0.0,0.0
1797,77.0,48.0,40.0,0.0,0.0
1798,53.0,0.0,40.0,0.0,0.0
1799,75.0,0.0,40.0,0.0,0.0
1800,55.0,48.0,40.0,0.0,0.0
1801,72.0,48.0,40.0,0.0,0.0
1802,57.0,0.0,40.0,0.0,0.0
1803,58.0,48.0,90.0,0.0,0.0
1804,65.0,48.0,180.0,0.0,0.0
1805,49.0,0.0,15.0,0.0,0.0
1806,73.0,48.0,40.0,0.0,0.0
1807,77.0,0.0,40.0,0.0,0.0
1808,53.0,48.0,150.0,0.0,0.0
1809,70.0,48.0,40.0,0.0,0.0
1810,69.0,0.0,40.0,0.0,0.0
1811,70.0,48.0,180.0,0.0,0.0
1812,58.0,0.0,180.0,0.0,0.0
1813,42.0,0.0,180.0,0.0,0.0
1814,54.0,48.0,40.0,0.0,0.0
1815,53.0,48.0,40.0,0.0,0.0
1816,52.0,0.0,40.0,0.0,0.0
1817,53.0,48.0,40.0,0.0,0.0
1818,70.0,0.0,40.0,0.0,0.0
1819,61.0,0.0,180.0,0.0,0.0
1820,41.0,0.0,390.0,0.0,0.0
1821,73.0,0.0,40.0,0.0,0.0
1822,43.0,48.0,40.0,0.0,0.0
1823,45.0,48.0,40.0,0.0,0.0
1824,72.0,0.0,40.0,0.0,0.0
1825,70.0,0.0,40.0,0.0,0.0
1826,46.0,48.0,40.0,0.0,0.0
1827,65.0,48.0,180.0,0.0,0.0
1828,69.0,0.0,40.0,0.0,0.0
1829,48.0,48.0,40.0,0.0,0.0
1830,70.0,0.0,40.0,0.0,0.0
1831,49.0,48.0,40.0,0.0,0.0
1832,67.0,48.0,40.0,0.0,0.0
1833,51.0,0.0,40.0,0.0,0.0
1834,48.0,0.0,40.0,0.0,0.0
1835,69.0,0.0,40.0,0.0,0.0
1836,70.0,48.0,150.0,0.0,0.0
1837,50.0,48.0,40.0,0.0,0.0
1838,34.0,0.0,390.0,0.0,0.0
1839,66.0,0.0,180.0,0.0,0.0
1840,53.0,48.0,40.0,0.0,0.0
1841,51.0,48.0,150.0,0.0,0.0
1842,69.0,48.0,40.0,0.0,0.0
1843,65.0,48.0,90.0,0.0,0.0
1844,70.0,48.0,150.0,0.0,0.0
1845,50.0,0.0,40.0,0.0,0.0
1846,63.0,0.0,90.0,0.0,0.0
1847,69.0,48.0,40.0,0.0,0.0
1848,54.0,0.0,15.0,0.0,0.0
1849,70.0,48.0,150.0,0.0,0.0
1850,34.0,0.0,390.0,0.0,0.0
1851,53.0,48.0,40.0,0.0,0.0
1852,56.0,48.0,180.0,0.0,0.0
1853,71.0,0.0,40.0,0.0,0.0
1854,62.0,48.0,15.0,0.0,0.0
1855,65.0,0.0,90.0,0.0,0.0
1856,58.0,0.0,40.0,0.0,0.0
1857,55.0,48.0,40.0,0.0,0.0
1858,60.0,0.0,40.0,0.0,0.0
1859,62.0,96.0,40.0,0.0,0.0
1860,53.0,0.0,40.0,0.0,0.0
1861,63.0,0.0,180.0,0.0,0.0
1862,55.0,48.0,90.0,0.0,0.0
1863,34.0,0.0,390.0,0.0,0.0
1864,70.0,0.0,40.0,0.0,0.0
1865,54.0,0.0,180.0,0.0,0.0
1866,72.0,48.0,40.0,0.0,0.0
1867,75.0,48.0,40.0,0.0,0.0
1868,69.0,0.0,40.0,0.0,0.0
1869,63.0,48.0,40.0,0.0,0.0
1870,69.0,384.0,150.0,0.0,0.0
1871,62.0,48.0,40.0,0.0,0.0
1872,53.0,48.0,40.0,0.0,0.0
1873,63.0,0.0,40.0,0.0,0.0
1874,60.0,0.0,40.0,0.0,0.0
1875,51.0,0.0,40.0,0.0,0.0
1876,34.0,0.0,390.0,0.0,0.0
1877,70.0,0.0,390.0,0.0,0.0
1878,53.0,0.0,390.0,0.0,0.0
1879,62.0,0.0,390.0,0.0,0.0
