,note,step,duration,channel,velocity
0,66.0,0.0,1020.0,2.0,0.0
1,69.0,0.0,1020.0,1.0,0.0
2,62.0,1024.0,1020.0,3.0,0.0
3,74.0,0.0,1020.0,0.0,0.0
4,61.0,0.0,1020.0,3.0,0.0
5,76.0,1024.0,1020.0,0.0,0.0
6,64.0,0.0,1020.0,2.0,0.0
7,62.0,0.0,1020.0,3.0,0.0
8,69.0,0.0,15.0,1.0,0.0
9,62.0,0.0,1020.0,2.0,0.0
10,78.0,0.0,1020.0,0.0,0.0
11,57.0,512.0,1020.0,3.0,0.0
12,76.0,0.0,1020.0,0.0,0.0
13,69.0,1024.0,15.0,1.0,0.0
14,61.0,0.0,1020.0,2.0,0.0
15,69.0,0.0,15.0,1.0,0.0
16,62.0,0.0,1020.0,2.0,0.0
17,74.0,0.0,1020.0,0.0,0.0
18,59.0,512.0,1020.0,3.0,0.0
19,68.0,0.0,510.0,1.0,0.0
20,73.0,512.0,1020.0,0.0,0.0
21,69.0,0.0,1020.0,1.0,0.0
22,64.0,0.0,1020.0,2.0,0.0
23,61.0,512.0,510.0,3.0,0.0
24,62.0,0.0,510.0,3.0,0.0
25,64.0,0.0,510.0,3.0,0.0
26,64.0,512.0,510.0,2.0,0.0
27,71.0,0.0,1020.0,0.0,0.0
28,68.0,0.0,1020.0,1.0,0.0
29,62.0,0.0,510.0,2.0,0.0
30,52.0,1024.0,510.0,3.0,0.0
31,64.0,0.0,1020.0,1.0,0.0
32,69.0,0.0,1020.0,0.0,0.0
33,61.0,0.0,1020.0,2.0,0.0
34,57.0,1024.0,1020.0,3.0,0.0
35,74.0,0.0,1020.0,0.0,0.0
36,59.0,0.0,1020.0,3.0,0.0
37,71.0,1024.0,1020.0,1.0,0.0
38,66.0,0.0,1020.0,2.0,0.0
39,61.0,0.0,1020.0,3.0,0.0
40,76.0,0.0,1020.0,0.0,0.0
41,64.0,512.0,1020.0,2.0,0.0
42,69.0,0.0,1020.0,1.0,0.0
43,62.0,0.0,1020.0,3.0,0.0
44,69.0,0.0,1020.0,1.0,0.0
45,62.0,512.0,510.0,2.0,0.0
46,78.0,0.0,1020.0,0.0,0.0
47,61.0,1024.0,510.0,2.0,0.0
48,79.0,0.0,1020.0,0.0,0.0
49,59.0,0.0,1020.0,3.0,0.0
50,67.0,512.0,1020.0,1.0,0.0
51,69.0,0.0,1020.0,1.0,0.0
52,78.0,512.0,1020.0,0.0,0.0
53,57.0,512.0,510.0,3.0,0.0
54,62.0,0.0,15.0,2.0,0.0
55,55.0,0.0,510.0,3.0,0.0
56,61.0,0.0,1020.0,2.0,0.0
57,69.0,512.0,510.0,1.0,0.0
58,57.0,0.0,1020.0,3.0,0.0
59,76.0,2048.0,1020.0,0.0,0.0
60,67.0,0.0,510.0,1.0,0.0
61,50.0,0.0,2040.0,3.0,0.0
62,66.0,0.0,2040.0,1.0,0.0
63,57.0,0.0,2040.0,2.0,0.0
64,62.0,0.0,1020.0,3.0,0.0
65,66.0,0.0,1020.0,2.0,0.0
66,74.0,1024.0,15.0,0.0,0.0
67,69.0,0.0,15.0,1.0,0.0
68,64.0,0.0,1020.0,2.0,0.0
69,61.0,0.0,1020.0,3.0,0.0
70,76.0,1024.0,1020.0,0.0,0.0
71,78.0,0.0,1020.0,0.0,0.0
72,62.0,0.0,1020.0,3.0,0.0
73,62.0,1024.0,1020.0,2.0,0.0
74,76.0,0.0,1020.0,0.0,0.0
75,57.0,0.0,1020.0,3.0,0.0
76,61.0,512.0,1020.0,2.0,0.0
77,69.0,0.0,15.0,1.0,0.0
78,59.0,512.0,1020.0,3.0,0.0
79,69.0,512.0,510.0,1.0,0.0
80,62.0,0.0,1020.0,2.0,0.0
81,74.0,0.0,1020.0,0.0,0.0
82,68.0,0.0,510.0,1.0,0.0
83,69.0,512.0,1020.0,1.0,0.0
84,64.0,0.0,1020.0,2.0,0.0
85,61.0,512.0,510.0,3.0,0.0
86,73.0,0.0,1020.0,0.0,0.0
87,62.0,0.0,510.0,3.0,0.0
88,64.0,512.0,510.0,3.0,0.0
89,64.0,0.0,510.0,2.0,0.0
90,71.0,0.0,1020.0,0.0,0.0
91,68.0,0.0,1020.0,1.0,0.0
92,62.0,0.0,510.0,2.0,0.0
93,52.0,1024.0,510.0,3.0,0.0
94,57.0,0.0,1020.0,3.0,0.0
95,61.0,0.0,1020.0,2.0,0.0
96,64.0,1024.0,1020.0,1.0,0.0
97,69.0,0.0,1020.0,0.0,0.0
98,66.0,0.0,1020.0,2.0,0.0
99,74.0,0.0,1020.0,0.0,0.0
100,59.0,0.0,1020.0,3.0,0.0
101,71.0,1024.0,1020.0,1.0,0.0
102,64.0,0.0,1020.0,2.0,0.0
103,76.0,0.0,1020.0,0.0,0.0
104,61.0,512.0,1020.0,3.0,0.0
105,69.0,0.0,1020.0,1.0,0.0
106,69.0,0.0,1020.0,1.0,0.0
107,62.0,512.0,510.0,2.0,0.0
108,78.0,0.0,1020.0,0.0,0.0
109,62.0,1024.0,1020.0,3.0,0.0
110,61.0,0.0,510.0,2.0,0.0
111,79.0,0.0,1020.0,0.0,0.0
112,59.0,0.0,1020.0,3.0,0.0
113,67.0,0.0,1020.0,1.0,0.0
114,62.0,512.0,1020.0,2.0,0.0
115,69.0,0.0,1020.0,1.0,0.0
116,78.0,0.0,1020.0,0.0,0.0
117,57.0,512.0,510.0,3.0,0.0
118,62.0,512.0,1020.0,2.0,0.0
119,55.0,0.0,510.0,3.0,0.0
120,57.0,0.0,1020.0,3.0,0.0
121,76.0,0.0,1020.0,0.0,0.0
122,69.0,512.0,510.0,1.0,0.0
123,61.0,2048.0,1020.0,2.0,0.0
124,67.0,0.0,510.0,1.0,0.0
125,66.0,0.0,2040.0,1.0,0.0
126,50.0,1024.0,2040.0,3.0,0.0
127,57.0,0.0,2040.0,2.0,0.0
128,74.0,0.0,2040.0,0.0,0.0
129,69.0,0.0,1020.0,2.0,0.0
130,78.0,0.0,1020.0,0.0,0.0
131,74.0,0.0,1020.0,1.0,0.0
132,50.0,512.0,1020.0,3.0,0.0
133,79.0,512.0,1020.0,0.0,0.0
134,67.0,0.0,1020.0,2.0,0.0
135,52.0,0.0,1020.0,3.0,0.0
136,73.0,512.0,510.0,1.0,0.0
137,71.0,0.0,510.0,1.0,0.0
138,54.0,0.0,1020.0,3.0,0.0
139,69.0,256.0,510.0,1.0,0.0
140,61.0,0.0,510.0,2.0,0.0
141,81.0,0.0,1020.0,0.0,0.0
142,71.0,256.0,270.0,1.0,0.0
143,63.0,0.0,510.0,2.0,0.0
144,72.0,512.0,270.0,1.0,0.0
145,64.0,0.0,1020.0,2.0,0.0
146,79.0,512.0,1020.0,0.0,0.0
147,71.0,0.0,1020.0,1.0,0.0
148,55.0,512.0,510.0,3.0,0.0
149,57.0,0.0,510.0,3.0,0.0
150,62.0,0.0,1020.0,2.0,0.0
151,59.0,512.0,510.0,3.0,0.0
152,71.0,0.0,1020.0,1.0,0.0
153,78.0,0.0,1020.0,0.0,0.0
154,57.0,1024.0,510.0,3.0,0.0
155,67.0,2048.0,1020.0,2.0,0.0
156,71.0,0.0,1020.0,1.0,0.0
157,76.0,0.0,1020.0,0.0,0.0
158,55.0,0.0,1020.0,3.0,0.0
159,54.0,0.0,2040.0,3.0,0.0
160,61.0,0.0,2040.0,2.0,0.0
161,78.0,0.0,2040.0,0.0,0.0
162,70.0,512.0,2040.0,1.0,0.0
163,62.0,512.0,510.0,2.0,0.0
164,54.0,1024.0,1020.0,3.0,0.0
165,69.0,0.0,1020.0,1.0,0.0
166,64.0,0.0,510.0,2.0,0.0
167,81.0,0.0,15.0,0.0,0.0
168,66.0,0.0,1020.0,2.0,0.0
169,50.0,0.0,1020.0,3.0,0.0
170,74.0,512.0,15.0,1.0,0.0
171,67.0,512.0,510.0,2.0,0.0
172,55.0,0.0,1020.0,3.0,0.0
173,83.0,1024.0,1020.0,0.0,0.0
174,66.0,0.0,510.0,2.0,0.0
175,57.0,0.0,1020.0,3.0,0.0
176,64.0,0.0,1020.0,2.0,0.0
177,81.0,512.0,1020.0,0.0,0.0
178,73.0,0.0,1020.0,1.0,0.0
179,62.0,0.0,510.0,2.0,0.0
180,59.0,512.0,510.0,3.0,0.0
181,71.0,0.0,1020.0,1.0,0.0
182,79.0,0.0,1020.0,0.0,0.0
183,64.0,0.0,510.0,2.0,0.0
184,61.0,512.0,510.0,3.0,0.0
185,62.0,0.0,1020.0,3.0,0.0
186,69.0,512.0,510.0,1.0,0.0
187,66.0,0.0,510.0,2.0,0.0
188,78.0,0.0,1020.0,0.0,0.0
189,71.0,0.0,510.0,1.0,0.0
190,68.0,2048.0,510.0,2.0,0.0
191,73.0,512.0,2040.0,1.0,0.0
192,76.0,0.0,2040.0,0.0,0.0
193,57.0,0.0,2040.0,3.0,0.0
194,69.0,0.0,2040.0,2.0,0.0
195,69.0,512.0,510.0,2.0,0.0
196,62.0,0.0,1020.0,3.0,0.0
197,78.0,0.0,510.0,0.0,0.0
198,79.0,0.0,510.0,0.0,0.0
199,67.0,0.0,510.0,2.0,0.0
200,50.0,0.0,1020.0,3.0,0.0
201,74.0,1024.0,15.0,1.0,0.0
202,66.0,0.0,1020.0,2.0,0.0
203,81.0,0.0,1020.0,0.0,0.0
204,52.0,0.0,1020.0,3.0,0.0
205,79.0,0.0,1020.0,0.0,0.0
206,74.0,512.0,15.0,1.0,0.0
207,64.0,0.0,1020.0,2.0,0.0
208,73.0,512.0,510.0,1.0,0.0
209,57.0,512.0,1020.0,2.0,0.0
210,54.0,0.0,1020.0,3.0,0.0
211,78.0,512.0,510.0,0.0,0.0
212,74.0,0.0,510.0,1.0,0.0
213,73.0,0.0,510.0,1.0,0.0
214,76.0,0.0,510.0,0.0,0.0
215,74.0,0.0,1020.0,0.0,0.0
216,71.0,512.0,510.0,1.0,0.0
217,55.0,0.0,510.0,3.0,0.0
218,59.0,0.0,1020.0,2.0,0.0
219,69.0,0.0,510.0,1.0,0.0
220,54.0,1024.0,510.0,3.0,0.0
221,61.0,0.0,1020.0,2.0,0.0
222,76.0,0.0,1020.0,0.0,0.0
223,52.0,512.0,1020.0,3.0,0.0
224,67.0,0.0,1020.0,1.0,0.0
225,66.0,512.0,510.0,1.0,0.0
226,78.0,0.0,2040.0,0.0,0.0
227,62.0,0.0,1020.0,2.0,0.0
228,50.0,0.0,510.0,3.0,0.0
229,68.0,1024.0,510.0,1.0,0.0
230,52.0,0.0,510.0,3.0,0.0
231,54.0,0.0,1020.0,3.0,0.0
232,61.0,0.0,1020.0,2.0,0.0
233,70.0,2048.0,1020.0,1.0,0.0
234,59.0,0.0,2040.0,2.0,0.0
235,74.0,512.0,2040.0,0.0,0.0
236,47.0,0.0,2040.0,3.0,0.0
237,62.0,0.0,1020.0,2.0,0.0
238,78.0,512.0,510.0,0.0,0.0
239,59.0,0.0,1020.0,3.0,0.0
240,71.0,0.0,15.0,1.0,0.0
241,79.0,0.0,510.0,0.0,0.0
242,54.0,0.0,1020.0,3.0,0.0
243,81.0,0.0,1020.0,0.0,0.0
244,63.0,512.0,1020.0,2.0,0.0
245,72.0,0.0,1020.0,1.0,0.0
246,64.0,1024.0,1020.0,2.0,0.0
247,71.0,512.0,510.0,1.0,0.0
248,55.0,0.0,1020.0,3.0,0.0
249,79.0,0.0,1020.0,0.0,0.0
250,73.0,0.0,510.0,1.0,0.0
251,59.0,512.0,1020.0,2.0,0.0
252,78.0,0.0,1020.0,0.0,0.0
253,74.0,0.0,1020.0,1.0,0.0
254,56.0,0.0,1020.0,3.0,0.0
255,57.0,0.0,510.0,3.0,0.0
256,76.0,0.0,1020.0,0.0,0.0
257,73.0,512.0,510.0,1.0,0.0
258,61.0,0.0,1020.0,2.0,0.0
259,71.0,512.0,510.0,1.0,0.0
260,55.0,0.0,510.0,3.0,0.0
261,62.0,0.0,1020.0,2.0,0.0
262,78.0,1024.0,1020.0,0.0,0.0
263,54.0,512.0,510.0,3.0,0.0
264,50.0,0.0,510.0,3.0,0.0
265,57.0,0.0,2040.0,3.0,0.0
266,69.0,0.0,15.0,1.0,0.0
267,62.0,512.0,1020.0,2.0,0.0
268,76.0,0.0,2040.0,0.0,0.0
269,61.0,0.0,1020.0,2.0,0.0
270,67.0,2048.0,510.0,1.0,0.0
271,57.0,0.0,2040.0,2.0,0.0
272,50.0,0.0,2040.0,3.0,0.0
273,66.0,0.0,2040.0,1.0,0.0
274,74.0,1.0,2040.0,0.0,0.0
