,note,step,duration,channel,velocity
0,64.0,0.0,120.0,5.0,0.0
1,55.0,0.0,120.0,5.0,0.0
2,59.0,0.0,120.0,5.0,0.0
3,52.0,0.0,120.0,5.0,0.0
4,67.0,0.0,120.0,6.0,0.0
5,71.0,0.0,60.0,6.0,0.0
6,64.0,0.0,120.0,7.0,0.0
7,55.0,0.0,120.0,7.0,0.0
8,71.0,60.0,60.0,4.0,0.0
9,64.0,0.0,60.0,1.0,0.0
10,71.0,0.0,120.0,2.0,0.0
11,52.0,0.0,120.0,3.0,0.0
12,67.0,0.0,120.0,4.0,0.0
13,59.0,60.0,120.0,7.0,0.0
14,52.0,0.0,120.0,7.0,0.0
15,71.0,0.0,60.0,0.0,0.0
16,76.0,0.0,60.0,6.0,0.0
17,76.0,0.0,60.0,0.0,0.0
18,67.0,0.0,60.0,1.0,0.0
19,76.0,0.0,60.0,4.0,0.0
20,71.0,0.0,60.0,6.0,0.0
21,79.0,0.0,60.0,4.0,0.0
22,79.0,0.0,60.0,0.0,0.0
23,71.0,60.0,60.0,4.0,0.0
24,79.0,0.0,60.0,6.0,0.0
25,71.0,0.0,60.0,1.0,0.0
26,69.0,0.0,60.0,1.0,0.0
27,78.0,0.0,60.0,4.0,0.0
28,69.0,0.0,60.0,6.0,0.0
29,78.0,0.0,60.0,6.0,0.0
30,69.0,30.0,60.0,4.0,0.0
31,78.0,0.0,60.0,0.0,0.0
32,64.0,0.0,120.0,7.0,0.0
33,52.0,0.0,120.0,3.0,0.0
34,64.0,0.0,120.0,2.0,0.0
35,71.0,0.0,60.0,0.0,0.0
36,64.0,30.0,120.0,5.0,0.0
37,67.0,0.0,60.0,1.0,0.0
38,67.0,0.0,30.0,6.0,0.0
39,71.0,0.0,60.0,6.0,0.0
40,67.0,30.0,30.0,4.0,0.0
41,71.0,0.0,60.0,4.0,0.0
42,66.0,30.0,30.0,6.0,0.0
43,66.0,0.0,30.0,4.0,0.0
44,67.0,0.0,30.0,1.0,0.0
45,76.0,0.0,30.0,0.0,0.0
46,76.0,30.0,30.0,4.0,0.0
47,76.0,0.0,30.0,6.0,0.0
48,67.0,0.0,30.0,6.0,0.0
49,67.0,0.0,30.0,4.0,0.0
50,78.0,0.0,30.0,6.0,0.0
51,69.0,0.0,30.0,6.0,0.0
52,78.0,0.0,30.0,0.0,0.0
53,69.0,0.0,30.0,1.0,0.0
54,78.0,0.0,30.0,4.0,0.0
55,69.0,0.0,30.0,4.0,0.0
56,71.0,30.0,30.0,1.0,0.0
57,79.0,0.0,30.0,6.0,0.0
58,71.0,0.0,30.0,6.0,0.0
59,79.0,0.0,30.0,0.0,0.0
60,71.0,0.0,30.0,4.0,0.0
61,79.0,0.0,30.0,4.0,0.0
62,78.0,0.0,30.0,4.0,0.0
63,69.0,0.0,30.0,4.0,0.0
64,78.0,0.0,30.0,6.0,0.0
65,69.0,30.0,30.0,1.0,0.0
66,69.0,0.0,30.0,6.0,0.0
67,78.0,0.0,30.0,0.0,0.0
68,79.0,0.0,30.0,0.0,0.0
69,79.0,0.0,30.0,6.0,0.0
70,71.0,0.0,30.0,4.0,0.0
71,79.0,0.0,30.0,4.0,0.0
72,71.0,0.0,30.0,1.0,0.0
73,71.0,30.0,30.0,6.0,0.0
74,69.0,0.0,30.0,1.0,0.0
75,78.0,60.0,30.0,6.0,0.0
76,69.0,0.0,30.0,6.0,0.0
77,69.0,0.0,30.0,4.0,0.0
78,78.0,0.0,30.0,4.0,0.0
79,78.0,0.0,30.0,0.0,0.0
80,52.0,0.0,60.0,5.0,0.0
81,59.0,0.0,60.0,5.0,0.0
82,55.0,30.0,60.0,7.0,0.0
83,59.0,0.0,60.0,7.0,0.0
84,52.0,0.0,60.0,7.0,0.0
85,76.0,0.0,60.0,4.0,0.0
86,67.0,0.0,60.0,4.0,0.0
87,52.0,0.0,60.0,3.0,0.0
88,55.0,0.0,60.0,5.0,0.0
89,67.0,0.0,60.0,6.0,0.0
90,59.0,0.0,60.0,2.0,0.0
91,76.0,0.0,60.0,6.0,0.0
92,76.0,0.0,60.0,0.0,0.0
93,67.0,0.0,60.0,1.0,0.0
94,78.0,0.0,30.0,6.0,0.0
95,78.0,0.0,30.0,0.0,0.0
96,64.0,0.0,60.0,3.0,0.0
97,64.0,0.0,60.0,2.0,0.0
98,78.0,0.0,30.0,4.0,0.0
99,64.0,0.0,60.0,5.0,0.0
100,69.0,30.0,30.0,1.0,0.0
101,64.0,0.0,60.0,7.0,0.0
102,79.0,0.0,30.0,6.0,0.0
103,79.0,0.0,30.0,4.0,0.0
104,71.0,30.0,30.0,1.0,0.0
105,79.0,0.0,30.0,0.0,0.0
106,64.0,0.0,60.0,2.0,0.0
107,81.0,0.0,30.0,4.0,0.0
108,60.0,0.0,60.0,3.0,0.0
109,60.0,0.0,60.0,7.0,0.0
110,81.0,0.0,30.0,6.0,0.0
111,60.0,0.0,60.0,5.0,0.0
112,81.0,30.0,30.0,0.0,0.0
113,64.0,0.0,60.0,1.0,0.0
114,83.0,0.0,30.0,4.0,0.0
115,83.0,60.0,30.0,6.0,0.0
116,83.0,0.0,30.0,0.0,0.0
117,57.0,0.0,60.0,7.0,0.0
118,57.0,0.0,60.0,5.0,0.0
119,57.0,0.0,60.0,3.0,0.0
120,76.0,60.0,60.0,1.0,0.0
121,84.0,0.0,60.0,6.0,0.0
122,50.0,0.0,60.0,7.0,0.0
123,84.0,0.0,15.0,4.0,0.0
124,84.0,0.0,60.0,6.0,0.0
125,50.0,0.0,60.0,5.0,0.0
126,72.0,0.0,15.0,2.0,0.0
127,50.0,60.0,60.0,3.0,0.0
128,84.0,0.0,15.0,0.0,0.0
129,78.0,0.0,60.0,1.0,0.0
130,62.0,0.0,60.0,2.0,0.0
131,69.0,0.0,60.0,1.0,0.0
132,78.0,0.0,60.0,0.0,0.0
133,62.0,0.0,60.0,7.0,0.0
134,62.0,60.0,60.0,5.0,0.0
135,78.0,0.0,60.0,6.0,0.0
136,62.0,0.0,60.0,3.0,0.0
137,78.0,0.0,60.0,4.0,0.0
138,84.0,60.0,60.0,4.0,0.0
139,84.0,0.0,60.0,6.0,0.0
140,78.0,0.0,60.0,4.0,0.0
141,78.0,60.0,60.0,6.0,0.0
142,50.0,0.0,120.0,7.0,0.0
143,54.0,0.0,120.0,7.0,0.0
144,62.0,0.0,120.0,7.0,0.0
145,62.0,0.0,60.0,1.0,0.0
146,66.0,0.0,120.0,4.0,0.0
147,57.0,0.0,120.0,5.0,0.0
148,50.0,0.0,120.0,5.0,0.0
149,54.0,0.0,120.0,5.0,0.0
150,62.0,60.0,120.0,5.0,0.0
151,57.0,0.0,120.0,7.0,0.0
152,69.0,60.0,60.0,4.0,0.0
153,50.0,0.0,120.0,3.0,0.0
154,66.0,0.0,120.0,2.0,0.0
155,66.0,0.0,120.0,6.0,0.0
156,69.0,0.0,60.0,6.0,0.0
157,69.0,0.0,60.0,0.0,0.0
158,66.0,0.0,60.0,1.0,0.0
159,74.0,0.0,60.0,4.0,0.0
160,74.0,0.0,60.0,6.0,0.0
161,74.0,0.0,60.0,0.0,0.0
162,78.0,0.0,60.0,6.0,0.0
163,69.0,60.0,60.0,4.0,0.0
164,69.0,0.0,60.0,6.0,0.0
165,69.0,0.0,60.0,1.0,0.0
166,78.0,0.0,60.0,0.0,0.0
167,78.0,0.0,60.0,4.0,0.0
168,76.0,0.0,60.0,0.0,0.0
169,67.0,0.0,60.0,4.0,0.0
170,76.0,0.0,60.0,4.0,0.0
171,67.0,0.0,60.0,6.0,0.0
172,76.0,0.0,60.0,6.0,0.0
173,67.0,30.0,60.0,1.0,0.0
174,66.0,0.0,30.0,6.0,0.0
175,62.0,0.0,120.0,2.0,0.0
176,50.0,30.0,120.0,3.0,0.0
177,62.0,0.0,120.0,5.0,0.0
178,66.0,0.0,60.0,1.0,0.0
179,69.0,0.0,60.0,6.0,0.0
180,66.0,30.0,30.0,4.0,0.0
181,62.0,0.0,120.0,7.0,0.0
182,69.0,0.0,60.0,0.0,0.0
183,69.0,0.0,60.0,4.0,0.0
184,64.0,0.0,30.0,6.0,0.0
185,64.0,30.0,30.0,4.0,0.0
186,74.0,0.0,30.0,0.0,0.0
187,74.0,0.0,30.0,4.0,0.0
188,66.0,0.0,30.0,4.0,0.0
189,74.0,0.0,30.0,6.0,0.0
190,66.0,0.0,30.0,6.0,0.0
191,66.0,30.0,30.0,1.0,0.0
192,76.0,0.0,30.0,0.0,0.0
193,76.0,0.0,30.0,4.0,0.0
194,67.0,0.0,30.0,1.0,0.0
195,76.0,0.0,30.0,6.0,0.0
196,67.0,0.0,30.0,4.0,0.0
197,67.0,0.0,30.0,6.0,0.0
198,78.0,0.0,30.0,6.0,0.0
199,69.0,0.0,30.0,6.0,0.0
200,78.0,30.0,30.0,0.0,0.0
201,69.0,0.0,30.0,1.0,0.0
202,69.0,0.0,30.0,4.0,0.0
203,78.0,0.0,30.0,4.0,0.0
204,76.0,0.0,30.0,0.0,0.0
205,76.0,0.0,30.0,4.0,0.0
206,67.0,0.0,30.0,1.0,0.0
207,76.0,0.0,30.0,6.0,0.0
208,67.0,0.0,30.0,6.0,0.0
209,67.0,30.0,30.0,4.0,0.0
210,69.0,0.0,30.0,1.0,0.0
211,69.0,0.0,30.0,4.0,0.0
212,78.0,0.0,30.0,4.0,0.0
213,78.0,0.0,30.0,6.0,0.0
214,69.0,0.0,30.0,6.0,0.0
215,78.0,30.0,30.0,0.0,0.0
216,76.0,0.0,30.0,4.0,0.0
217,67.0,60.0,30.0,4.0,0.0
218,67.0,0.0,30.0,1.0,0.0
219,67.0,0.0,30.0,6.0,0.0
220,76.0,0.0,30.0,6.0,0.0
221,76.0,0.0,30.0,0.0,0.0
222,66.0,0.0,60.0,4.0,0.0
223,50.0,0.0,60.0,3.0,0.0
224,74.0,0.0,60.0,6.0,0.0
225,62.0,0.0,60.0,6.0,0.0
226,74.0,0.0,60.0,0.0,0.0
227,66.0,0.0,60.0,6.0,0.0
228,62.0,0.0,60.0,4.0,0.0
229,66.0,0.0,60.0,1.0,0.0
230,57.0,0.0,60.0,2.0,0.0
231,57.0,0.0,60.0,5.0,0.0
232,50.0,0.0,60.0,5.0,0.0
233,54.0,0.0,60.0,5.0,0.0
234,74.0,0.0,60.0,4.0,0.0
235,54.0,30.0,60.0,7.0,0.0
236,50.0,0.0,60.0,7.0,0.0
237,57.0,0.0,60.0,7.0,0.0
238,62.0,0.0,60.0,5.0,0.0
239,62.0,0.0,60.0,7.0,0.0
240,62.0,30.0,60.0,3.0,0.0
241,76.0,30.0,30.0,4.0,0.0
242,76.0,0.0,30.0,6.0,0.0
243,67.0,0.0,30.0,1.0,0.0
244,76.0,0.0,30.0,0.0,0.0
245,78.0,0.0,30.0,4.0,0.0
246,78.0,0.0,30.0,6.0,0.0
247,69.0,0.0,30.0,1.0,0.0
248,78.0,0.0,30.0,0.0,0.0
249,79.0,0.0,30.0,6.0,0.0
250,59.0,0.0,60.0,3.0,0.0
251,79.0,30.0,30.0,4.0,0.0
252,59.0,0.0,60.0,7.0,0.0
253,62.0,0.0,60.0,1.0,0.0
254,62.0,0.0,15.0,2.0,0.0
255,79.0,0.0,30.0,0.0,0.0
256,59.0,0.0,60.0,5.0,0.0
257,81.0,60.0,30.0,0.0,0.0
258,81.0,0.0,30.0,4.0,0.0
259,81.0,0.0,30.0,6.0,0.0
260,83.0,0.0,60.0,4.0,0.0
261,55.0,0.0,60.0,7.0,0.0
262,74.0,0.0,60.0,1.0,0.0
263,55.0,0.0,60.0,5.0,0.0
264,83.0,0.0,60.0,0.0,0.0
265,55.0,0.0,60.0,3.0,0.0
266,83.0,60.0,60.0,6.0,0.0
267,48.0,0.0,60.0,3.0,0.0
268,67.0,0.0,15.0,2.0,0.0
269,83.0,0.0,60.0,4.0,0.0
270,48.0,0.0,60.0,7.0,0.0
271,83.0,0.0,60.0,0.0,0.0
272,48.0,60.0,60.0,5.0,0.0
273,83.0,0.0,60.0,6.0,0.0
274,76.0,0.0,60.0,1.0,0.0
275,60.0,0.0,60.0,7.0,0.0
276,76.0,0.0,60.0,4.0,0.0
277,67.0,0.0,60.0,1.0,0.0
278,76.0,0.0,60.0,0.0,0.0
279,60.0,0.0,60.0,2.0,0.0
280,60.0,60.0,60.0,5.0,0.0
281,60.0,0.0,60.0,3.0,0.0
282,76.0,0.0,60.0,6.0,0.0
283,83.0,60.0,60.0,6.0,0.0
284,83.0,0.0,60.0,4.0,0.0
285,76.0,0.0,60.0,6.0,0.0
286,76.0,30.0,60.0,4.0,0.0
287,60.0,0.0,60.0,5.0,0.0
288,69.0,0.0,120.0,2.0,0.0
289,88.0,0.0,30.0,4.0,0.0
290,48.0,30.0,60.0,7.0,0.0
291,88.0,30.0,30.0,0.0,0.0
292,60.0,0.0,60.0,3.0,0.0
293,86.0,0.0,30.0,4.0,0.0
294,86.0,0.0,30.0,0.0,0.0
295,64.0,0.0,30.0,3.0,0.0
296,84.0,30.0,30.0,4.0,0.0
297,64.0,0.0,30.0,5.0,0.0
298,84.0,0.0,30.0,0.0,0.0
299,52.0,0.0,30.0,7.0,0.0
300,62.0,0.0,30.0,5.0,0.0
301,62.0,0.0,30.0,3.0,0.0
302,83.0,0.0,30.0,0.0,0.0
303,50.0,0.0,30.0,7.0,0.0
304,83.0,30.0,30.0,4.0,0.0
305,81.0,0.0,60.0,0.0,0.0
306,76.0,0.0,30.0,1.0,0.0
307,48.0,0.0,60.0,7.0,0.0
308,60.0,0.0,60.0,3.0,0.0
309,76.0,30.0,30.0,6.0,0.0
310,60.0,0.0,60.0,5.0,0.0
311,74.0,0.0,30.0,1.0,0.0
312,74.0,0.0,30.0,6.0,0.0
313,64.0,0.0,30.0,3.0,0.0
314,81.0,0.0,60.0,0.0,0.0
315,81.0,30.0,15.0,4.0,0.0
316,72.0,30.0,30.0,1.0,0.0
317,64.0,0.0,30.0,5.0,0.0
318,52.0,0.0,30.0,7.0,0.0
319,72.0,0.0,30.0,6.0,0.0
320,71.0,0.0,30.0,6.0,0.0
321,62.0,0.0,30.0,5.0,0.0
322,71.0,0.0,30.0,1.0,0.0
323,50.0,15.0,30.0,7.0,0.0
324,62.0,0.0,30.0,3.0,0.0
325,69.0,0.0,60.0,1.0,0.0
326,60.0,0.0,60.0,3.0,0.0
327,83.0,15.0,15.0,4.0,0.0
328,81.0,0.0,150.0,0.0,0.0
329,69.0,0.0,60.0,6.0,0.0
330,60.0,0.0,60.0,5.0,0.0
331,64.0,15.0,30.0,7.0,0.0
332,48.0,15.0,60.0,7.0,0.0
333,64.0,0.0,30.0,2.0,0.0
334,81.0,0.0,15.0,4.0,0.0
335,62.0,0.0,30.0,2.0,0.0
336,62.0,0.0,30.0,7.0,0.0
337,83.0,15.0,15.0,4.0,0.0
338,81.0,0.0,15.0,4.0,0.0
339,83.0,15.0,15.0,4.0,0.0
340,64.0,15.0,30.0,5.0,0.0
341,64.0,0.0,60.0,6.0,0.0
342,64.0,0.0,60.0,1.0,0.0
343,60.0,0.0,30.0,2.0,0.0
344,64.0,0.0,30.0,3.0,0.0
345,60.0,0.0,30.0,7.0,0.0
346,52.0,0.0,30.0,7.0,0.0
347,81.0,0.0,15.0,4.0,0.0
348,62.0,0.0,30.0,3.0,0.0
349,62.0,0.0,30.0,5.0,0.0
350,83.0,15.0,15.0,4.0,0.0
351,59.0,0.0,30.0,7.0,0.0
352,59.0,0.0,30.0,2.0,0.0
353,50.0,0.0,30.0,7.0,0.0
354,81.0,15.0,15.0,4.0,0.0
355,57.0,0.0,60.0,2.0,0.0
356,60.0,0.0,60.0,5.0,0.0
357,60.0,0.0,60.0,3.0,0.0
358,48.0,30.0,60.0,7.0,0.0
359,57.0,0.0,60.0,7.0,0.0
360,83.0,15.0,15.0,4.0,0.0
361,81.0,30.0,15.0,4.0,0.0
362,76.0,0.0,30.0,0.0,0.0
363,76.0,0.0,30.0,4.0,0.0
364,59.0,0.0,30.0,3.0,0.0
365,81.0,0.0,30.0,0.0,0.0
366,47.0,0.0,60.0,7.0,0.0
367,59.0,0.0,60.0,5.0,0.0
368,81.0,30.0,30.0,4.0,0.0
369,83.0,30.0,30.0,0.0,0.0
370,83.0,0.0,30.0,4.0,0.0
371,45.0,0.0,60.0,7.0,0.0
372,84.0,0.0,30.0,4.0,0.0
373,65.0,0.0,120.0,2.0,0.0
374,57.0,30.0,60.0,5.0,0.0
375,57.0,30.0,30.0,3.0,0.0
376,84.0,0.0,30.0,0.0,0.0
377,83.0,0.0,30.0,0.0,0.0
378,83.0,0.0,30.0,4.0,0.0
379,60.0,0.0,30.0,3.0,0.0
380,48.0,0.0,30.0,7.0,0.0
381,81.0,0.0,30.0,0.0,0.0
382,81.0,30.0,30.0,4.0,0.0
383,60.0,0.0,30.0,5.0,0.0
384,59.0,0.0,30.0,5.0,0.0
385,79.0,0.0,30.0,0.0,0.0
386,47.0,30.0,30.0,7.0,0.0
387,59.0,0.0,30.0,3.0,0.0
388,79.0,0.0,30.0,4.0,0.0
389,57.0,30.0,60.0,3.0,0.0
390,72.0,0.0,30.0,6.0,0.0
391,57.0,0.0,60.0,5.0,0.0
392,77.0,0.0,60.0,0.0,0.0
393,72.0,30.0,30.0,1.0,0.0
394,77.0,0.0,60.0,4.0,0.0
395,45.0,0.0,60.0,7.0,0.0
396,71.0,0.0,30.0,6.0,0.0
397,71.0,0.0,30.0,1.0,0.0
398,60.0,30.0,30.0,5.0,0.0
399,48.0,0.0,30.0,7.0,0.0
400,77.0,0.0,60.0,4.0,0.0
401,69.0,0.0,30.0,6.0,0.0
402,69.0,0.0,30.0,1.0,0.0
403,60.0,0.0,30.0,3.0,0.0
404,59.0,0.0,30.0,3.0,0.0
405,67.0,0.0,30.0,1.0,0.0
406,67.0,0.0,30.0,6.0,0.0
407,59.0,0.0,30.0,5.0,0.0
408,47.0,0.0,30.0,7.0,0.0
409,57.0,0.0,60.0,5.0,0.0
410,79.0,15.0,15.0,4.0,0.0
411,60.0,15.0,30.0,7.0,0.0
412,77.0,15.0,15.0,0.0,0.0
413,45.0,0.0,60.0,7.0,0.0
414,65.0,0.0,60.0,6.0,0.0
415,57.0,15.0,60.0,3.0,0.0
416,60.0,0.0,30.0,2.0,0.0
417,65.0,0.0,60.0,1.0,0.0
418,77.0,0.0,15.0,4.0,0.0
419,59.0,0.0,30.0,2.0,0.0
420,59.0,0.0,30.0,7.0,0.0
421,79.0,15.0,15.0,4.0,0.0
422,77.0,0.0,15.0,4.0,0.0
423,60.0,0.0,30.0,5.0,0.0
424,57.0,0.0,30.0,7.0,0.0
425,48.0,0.0,30.0,7.0,0.0
426,57.0,0.0,30.0,2.0,0.0
427,60.0,0.0,60.0,1.0,0.0
428,79.0,15.0,15.0,4.0,0.0
429,60.0,0.0,60.0,6.0,0.0
430,60.0,0.0,30.0,3.0,0.0
431,77.0,15.0,15.0,4.0,0.0
432,55.0,0.0,30.0,2.0,0.0
433,59.0,0.0,30.0,3.0,0.0
434,47.0,0.0,30.0,7.0,0.0
435,55.0,0.0,30.0,7.0,0.0
436,59.0,15.0,30.0,5.0,0.0
437,79.0,15.0,15.0,4.0,0.0
438,77.0,0.0,15.0,4.0,0.0
439,57.0,30.0,60.0,3.0,0.0
440,57.0,0.0,60.0,5.0,0.0
441,53.0,0.0,60.0,2.0,0.0
442,53.0,0.0,60.0,7.0,0.0
443,45.0,0.0,60.0,7.0,0.0
444,79.0,15.0,15.0,4.0,0.0
445,77.0,30.0,15.0,4.0,0.0
446,72.0,0.0,30.0,0.0,0.0
447,72.0,0.0,30.0,4.0,0.0
448,77.0,30.0,30.0,4.0,0.0
449,77.0,0.0,30.0,0.0,0.0
450,77.0,0.0,30.0,6.0,0.0
451,55.0,30.0,60.0,5.0,0.0
452,55.0,0.0,30.0,3.0,0.0
453,79.0,0.0,30.0,4.0,0.0
454,79.0,0.0,30.0,6.0,0.0
455,79.0,0.0,30.0,0.0,0.0
456,53.0,0.0,30.0,3.0,0.0
457,45.0,0.0,120.0,7.0,0.0
458,81.0,0.0,30.0,0.0,0.0
459,81.0,0.0,30.0,4.0,0.0
460,53.0,30.0,30.0,5.0,0.0
461,81.0,0.0,30.0,6.0,0.0
462,52.0,0.0,30.0,3.0,0.0
463,52.0,0.0,30.0,5.0,0.0
464,83.0,30.0,30.0,4.0,0.0
465,83.0,0.0,30.0,0.0,0.0
466,83.0,0.0,30.0,6.0,0.0
467,84.0,0.0,30.0,6.0,0.0
468,84.0,0.0,30.0,4.0,0.0
469,69.0,0.0,30.0,7.0,0.0
470,51.0,0.0,30.0,5.0,0.0
471,66.0,30.0,30.0,1.0,0.0
472,84.0,0.0,30.0,0.0,0.0
473,51.0,0.0,30.0,3.0,0.0
474,83.0,0.0,30.0,6.0,0.0
475,52.0,0.0,30.0,3.0,0.0
476,67.0,0.0,30.0,7.0,0.0
477,83.0,30.0,30.0,0.0,0.0
478,52.0,0.0,30.0,5.0,0.0
479,67.0,0.0,30.0,1.0,0.0
480,83.0,0.0,30.0,4.0,0.0
481,66.0,0.0,30.0,7.0,0.0
482,69.0,30.0,30.0,1.0,0.0
483,54.0,0.0,30.0,5.0,0.0
484,81.0,0.0,30.0,6.0,0.0
485,54.0,0.0,30.0,3.0,0.0
486,81.0,0.0,30.0,0.0,0.0
487,81.0,0.0,30.0,4.0,0.0
488,55.0,0.0,30.0,3.0,0.0
489,79.0,0.0,30.0,0.0,0.0
490,64.0,0.0,30.0,7.0,0.0
491,79.0,0.0,30.0,6.0,0.0
492,55.0,30.0,30.0,5.0,0.0
493,79.0,0.0,30.0,4.0,0.0
494,71.0,0.0,30.0,1.0,0.0
495,78.0,0.0,30.0,0.0,0.0
496,78.0,0.0,30.0,4.0,0.0
497,72.0,0.0,60.0,1.0,0.0
498,63.0,30.0,30.0,7.0,0.0
499,78.0,0.0,30.0,6.0,0.0
500,57.0,0.0,120.0,3.0,0.0
501,57.0,0.0,120.0,5.0,0.0
502,76.0,60.0,30.0,6.0,0.0
503,76.0,0.0,30.0,4.0,0.0
504,64.0,0.0,30.0,7.0,0.0
505,76.0,0.0,30.0,0.0,0.0
506,75.0,0.0,60.0,6.0,0.0
507,71.0,0.0,60.0,1.0,0.0
508,66.0,0.0,60.0,7.0,0.0
509,75.0,0.0,60.0,0.0,0.0
510,54.0,0.0,60.0,7.0,0.0
511,75.0,30.0,60.0,4.0,0.0
512,83.0,0.0,60.0,0.0,0.0
513,71.0,60.0,60.0,1.0,0.0
514,64.0,0.0,30.0,5.0,0.0
515,55.0,0.0,60.0,3.0,0.0
516,55.0,0.0,60.0,5.0,0.0
517,83.0,0.0,60.0,4.0,0.0
518,52.0,0.0,60.0,7.0,0.0
519,83.0,0.0,60.0,6.0,0.0
520,64.0,30.0,30.0,7.0,0.0
521,63.0,0.0,30.0,5.0,0.0
522,63.0,0.0,30.0,7.0,0.0
523,76.0,0.0,60.0,4.0,0.0
524,64.0,0.0,60.0,5.0,0.0
525,60.0,0.0,60.0,3.0,0.0
526,76.0,0.0,60.0,0.0,0.0
527,64.0,0.0,60.0,7.0,0.0
528,60.0,60.0,60.0,7.0,0.0
529,76.0,0.0,60.0,1.0,0.0
530,81.0,0.0,60.0,4.0,0.0
531,60.0,0.0,15.0,5.0,0.0
532,57.0,0.0,60.0,3.0,0.0
533,57.0,0.0,60.0,5.0,0.0
534,81.0,0.0,60.0,6.0,0.0
535,76.0,0.0,15.0,6.0,0.0
536,81.0,0.0,60.0,0.0,0.0
537,57.0,0.0,60.0,7.0,0.0
538,60.0,0.0,60.0,7.0,0.0
539,79.0,0.0,90.0,4.0,0.0
540,76.0,0.0,15.0,4.0,0.0
541,59.0,30.0,60.0,7.0,0.0
542,59.0,0.0,60.0,3.0,0.0
543,76.0,0.0,15.0,1.0,0.0
544,79.0,0.0,90.0,0.0,0.0
545,59.0,0.0,60.0,5.0,0.0
546,76.0,60.0,15.0,6.0,0.0
547,79.0,0.0,90.0,6.0,0.0
548,57.0,15.0,60.0,3.0,0.0
549,57.0,0.0,60.0,5.0,0.0
550,57.0,0.0,60.0,7.0,0.0
551,69.0,30.0,30.0,2.0,0.0
552,78.0,0.0,30.0,6.0,0.0
553,78.0,0.0,30.0,1.0,0.0
554,78.0,0.0,30.0,4.0,0.0
555,67.0,0.0,30.0,2.0,0.0
556,59.0,0.0,60.0,3.0,0.0
557,75.0,0.0,30.0,1.0,0.0
558,59.0,0.0,60.0,5.0,0.0
559,75.0,0.0,120.0,4.0,0.0
560,59.0,0.0,60.0,7.0,0.0
561,66.0,0.0,30.0,2.0,0.0
562,78.0,0.0,15.0,0.0,0.0
563,79.0,0.0,15.0,4.0,0.0
564,75.0,0.0,120.0,6.0,0.0
565,79.0,15.0,15.0,6.0,0.0
566,78.0,0.0,15.0,4.0,0.0
567,78.0,15.0,15.0,6.0,0.0
568,64.0,0.0,30.0,2.0,0.0
569,73.0,0.0,30.0,1.0,0.0
570,76.0,0.0,30.0,0.0,0.0
571,79.0,15.0,15.0,6.0,0.0
572,79.0,0.0,15.0,4.0,0.0
573,78.0,15.0,15.0,4.0,0.0
574,78.0,0.0,15.0,6.0,0.0
575,47.0,0.0,60.0,3.0,0.0
576,47.0,0.0,60.0,7.0,0.0
577,47.0,0.0,60.0,5.0,0.0
578,79.0,15.0,15.0,6.0,0.0
579,78.0,0.0,30.0,0.0,0.0
580,75.0,30.0,30.0,1.0,0.0
581,63.0,0.0,30.0,2.0,0.0
582,79.0,0.0,15.0,4.0,0.0
583,78.0,0.0,15.0,4.0,0.0
584,78.0,0.0,15.0,6.0,0.0
585,64.0,0.0,30.0,2.0,0.0
586,76.0,0.0,30.0,6.0,0.0
587,73.0,0.0,30.0,1.0,0.0
588,66.0,30.0,60.0,2.0,0.0
589,71.0,0.0,120.0,1.0,0.0
590,52.0,0.0,120.0,7.0,0.0
591,40.0,0.0,120.0,7.0,0.0
592,76.0,0.0,15.0,4.0,0.0
593,71.0,0.0,120.0,4.0,0.0
594,67.0,0.0,120.0,4.0,0.0
595,52.0,0.0,60.0,3.0,0.0
596,52.0,0.0,30.0,5.0,0.0
597,76.0,30.0,30.0,6.0,0.0
598,76.0,30.0,15.0,0.0,0.0
599,55.0,0.0,30.0,5.0,0.0
600,71.0,0.0,30.0,6.0,0.0
601,47.0,0.0,60.0,3.0,0.0
602,64.0,30.0,60.0,2.0,0.0
603,57.0,0.0,30.0,5.0,0.0
604,73.0,30.0,30.0,6.0,0.0
605,75.0,0.0,30.0,6.0,0.0
606,59.0,0.0,30.0,5.0,0.0
607,43.0,0.0,60.0,3.0,0.0
608,52.0,30.0,60.0,5.0,0.0
609,76.0,30.0,30.0,6.0,0.0
610,67.0,0.0,60.0,2.0,0.0
611,72.0,0.0,30.0,4.0,0.0
612,78.0,0.0,30.0,6.0,0.0
613,63.0,0.0,30.0,7.0,0.0
614,71.0,30.0,30.0,4.0,0.0
615,64.0,0.0,30.0,7.0,0.0
616,72.0,0.0,60.0,2.0,0.0
617,79.0,0.0,30.0,6.0,0.0
618,47.0,0.0,60.0,3.0,0.0
619,69.0,0.0,30.0,4.0,0.0
620,66.0,30.0,30.0,7.0,0.0
621,81.0,0.0,30.0,6.0,0.0
622,83.0,0.0,60.0,6.0,0.0
623,40.0,0.0,120.0,3.0,0.0
624,71.0,0.0,60.0,2.0,0.0
625,67.0,30.0,30.0,4.0,0.0
626,67.0,30.0,60.0,7.0,0.0
627,64.0,0.0,30.0,5.0,0.0
628,76.0,0.0,30.0,4.0,0.0
629,63.0,0.0,30.0,5.0,0.0
630,69.0,30.0,30.0,4.0,0.0
631,84.0,0.0,60.0,6.0,0.0
632,72.0,0.0,60.0,2.0,0.0
633,64.0,0.0,30.0,5.0,0.0
634,76.0,30.0,30.0,4.0,0.0
635,67.0,30.0,30.0,4.0,0.0
636,83.0,0.0,60.0,6.0,0.0
637,52.0,0.0,60.0,5.0,0.0
638,64.0,0.0,120.0,0.0,0.0
639,71.0,30.0,60.0,2.0,0.0
640,64.0,30.0,120.0,1.0,0.0
641,76.0,0.0,30.0,4.0,0.0
642,64.0,0.0,30.0,7.0,0.0
643,81.0,0.0,60.0,6.0,0.0
644,66.0,0.0,30.0,4.0,0.0
645,63.0,30.0,30.0,7.0,0.0
646,69.0,0.0,60.0,2.0,0.0
647,76.0,0.0,30.0,4.0,0.0
648,64.0,0.0,30.0,7.0,0.0
649,52.0,0.0,60.0,7.0,0.0
650,67.0,0.0,120.0,2.0,0.0
651,40.0,0.0,120.0,3.0,0.0
652,83.0,30.0,60.0,6.0,0.0
653,67.0,30.0,30.0,4.0,0.0
654,76.0,0.0,30.0,4.0,0.0
655,64.0,0.0,30.0,5.0,0.0
656,63.0,30.0,30.0,5.0,0.0
657,72.0,0.0,30.0,4.0,0.0
658,81.0,30.0,60.0,6.0,0.0
659,64.0,0.0,30.0,5.0,0.0
660,76.0,0.0,30.0,4.0,0.0
661,52.0,0.0,60.0,5.0,0.0
662,64.0,0.0,120.0,1.0,0.0
663,79.0,30.0,60.0,6.0,0.0
664,64.0,0.0,120.0,0.0,0.0
665,71.0,30.0,30.0,4.0,0.0
666,64.0,0.0,30.0,7.0,0.0
667,76.0,0.0,30.0,4.0,0.0
668,63.0,30.0,30.0,7.0,0.0
669,78.0,0.0,60.0,6.0,0.0
670,69.0,0.0,30.0,4.0,0.0
671,76.0,30.0,30.0,4.0,0.0
672,64.0,0.0,30.0,7.0,0.0
673,52.0,30.0,60.0,7.0,0.0
674,71.0,30.0,30.0,4.0,0.0
675,40.0,0.0,120.0,3.0,0.0
676,79.0,0.0,60.0,6.0,0.0
677,64.0,0.0,30.0,5.0,0.0
678,76.0,0.0,30.0,4.0,0.0
679,63.0,0.0,30.0,5.0,0.0
680,84.0,0.0,60.0,6.0,0.0
681,69.0,30.0,30.0,4.0,0.0
682,76.0,0.0,30.0,4.0,0.0
683,64.0,30.0,30.0,5.0,0.0
684,52.0,30.0,60.0,5.0,0.0
685,67.0,30.0,30.0,4.0,0.0
686,83.0,0.0,60.0,6.0,0.0
687,64.0,0.0,120.0,0.0,0.0
688,64.0,0.0,120.0,1.0,0.0
689,76.0,0.0,30.0,4.0,0.0
690,64.0,0.0,30.0,7.0,0.0
691,81.0,0.0,60.0,6.0,0.0
692,63.0,30.0,30.0,7.0,0.0
693,66.0,0.0,30.0,4.0,0.0
694,76.0,30.0,30.0,4.0,0.0
695,64.0,0.0,30.0,7.0,0.0
696,52.0,0.0,60.0,7.0,0.0
697,83.0,0.0,30.0,6.0,0.0
698,67.0,30.0,30.0,4.0,0.0
699,40.0,30.0,60.0,3.0,0.0
700,81.0,0.0,30.0,6.0,0.0
701,66.0,0.0,30.0,4.0,0.0
702,79.0,0.0,30.0,6.0,0.0
703,67.0,0.0,30.0,2.0,0.0
704,64.0,0.0,30.0,4.0,0.0
705,83.0,0.0,30.0,0.0,0.0
706,71.0,0.0,30.0,1.0,0.0
707,52.0,0.0,30.0,5.0,0.0
708,52.0,30.0,30.0,3.0,0.0
709,78.0,0.0,30.0,6.0,0.0
710,66.0,30.0,30.0,4.0,0.0
711,51.0,0.0,30.0,3.0,0.0
712,51.0,0.0,30.0,5.0,0.0
713,76.0,0.0,30.0,1.0,0.0
714,67.0,0.0,30.0,4.0,0.0
715,79.0,0.0,30.0,0.0,0.0
716,76.0,30.0,60.0,6.0,0.0
717,52.0,0.0,30.0,5.0,0.0
718,71.0,30.0,30.0,2.0,0.0
719,52.0,0.0,30.0,3.0,0.0
720,54.0,0.0,30.0,5.0,0.0
721,52.0,0.0,30.0,7.0,0.0
722,54.0,0.0,30.0,3.0,0.0
723,69.0,0.0,30.0,4.0,0.0
724,51.0,0.0,30.0,7.0,0.0
725,55.0,0.0,30.0,3.0,0.0
726,55.0,0.0,30.0,5.0,0.0
727,71.0,30.0,30.0,4.0,0.0
728,57.0,0.0,30.0,5.0,0.0
729,73.0,0.0,30.0,4.0,0.0
730,49.0,0.0,30.0,7.0,0.0
731,57.0,30.0,30.0,3.0,0.0
732,47.0,30.0,30.0,7.0,0.0
733,75.0,0.0,30.0,4.0,0.0
734,59.0,0.0,60.0,5.0,0.0
735,59.0,0.0,120.0,3.0,0.0
736,78.0,0.0,60.0,6.0,0.0
737,71.0,0.0,30.0,4.0,0.0
738,59.0,30.0,30.0,7.0,0.0
739,76.0,0.0,30.0,4.0,0.0
740,79.0,0.0,60.0,6.0,0.0
741,58.0,30.0,30.0,7.0,0.0
742,71.0,0.0,30.0,4.0,0.0
743,59.0,30.0,30.0,7.0,0.0
744,78.0,30.0,30.0,4.0,0.0
745,71.0,0.0,120.0,2.0,0.0
746,71.0,0.0,120.0,1.0,0.0
747,81.0,30.0,60.0,6.0,0.0
748,63.0,0.0,60.0,7.0,0.0
749,71.0,0.0,120.0,0.0,0.0
750,71.0,0.0,30.0,4.0,0.0
751,59.0,0.0,30.0,5.0,0.0
752,58.0,0.0,30.0,5.0,0.0
753,79.0,30.0,60.0,6.0,0.0
754,76.0,30.0,30.0,4.0,0.0
755,71.0,0.0,30.0,4.0,0.0
756,59.0,0.0,30.0,5.0,0.0
757,75.0,30.0,30.0,4.0,0.0
758,47.0,0.0,60.0,5.0,0.0
759,78.0,0.0,60.0,6.0,0.0
760,59.0,0.0,120.0,3.0,0.0
761,71.0,0.0,30.0,4.0,0.0
762,63.0,30.0,30.0,7.0,0.0
763,84.0,30.0,60.0,6.0,0.0
764,66.0,0.0,30.0,7.0,0.0
765,69.0,30.0,30.0,4.0,0.0
766,69.0,0.0,30.0,7.0,0.0
767,66.0,0.0,30.0,4.0,0.0
768,71.0,0.0,120.0,2.0,0.0
769,83.0,0.0,60.0,6.0,0.0
770,71.0,30.0,120.0,0.0,0.0
771,71.0,0.0,120.0,1.0,0.0
772,67.0,30.0,60.0,7.0,0.0
773,67.0,30.0,30.0,4.0,0.0
774,71.0,0.0,30.0,4.0,0.0
775,59.0,0.0,30.0,5.0,0.0
776,58.0,0.0,30.0,5.0,0.0
777,79.0,0.0,60.0,6.0,0.0
778,76.0,30.0,30.0,4.0,0.0
779,59.0,0.0,30.0,5.0,0.0
780,79.0,0.0,30.0,4.0,0.0
781,84.0,30.0,30.0,4.0,0.0
782,66.0,0.0,60.0,5.0,0.0
783,75.0,0.0,60.0,6.0,0.0
784,59.0,0.0,120.0,3.0,0.0
785,81.0,0.0,30.0,4.0,0.0
786,66.0,30.0,30.0,7.0,0.0
787,78.0,30.0,30.0,4.0,0.0
788,81.0,30.0,60.0,6.0,0.0
789,63.0,0.0,30.0,7.0,0.0
790,59.0,0.0,30.0,7.0,0.0
791,75.0,0.0,30.0,4.0,0.0
792,71.0,30.0,120.0,0.0,0.0
793,71.0,30.0,90.0,2.0,0.0
794,71.0,0.0,120.0,1.0,0.0
795,79.0,30.0,60.0,6.0,0.0
796,64.0,0.0,30.0,7.0,0.0
797,76.0,30.0,30.0,4.0,0.0
798,59.0,0.0,30.0,7.0,0.0
799,79.0,0.0,30.0,4.0,0.0
800,64.0,0.0,30.0,5.0,0.0
801,82.0,0.0,30.0,4.0,0.0
802,55.0,0.0,30.0,7.0,0.0
803,67.0,0.0,30.0,5.0,0.0
804,76.0,0.0,60.0,6.0,0.0
805,70.0,0.0,30.0,5.0,0.0
806,85.0,0.0,30.0,4.0,0.0
807,52.0,0.0,30.0,7.0,0.0
808,59.0,0.0,30.0,7.0,0.0
809,88.0,30.0,30.0,4.0,0.0
810,47.0,0.0,60.0,3.0,0.0
811,79.0,0.0,60.0,6.0,0.0
812,71.0,0.0,60.0,5.0,0.0
813,85.0,0.0,30.0,4.0,0.0
814,47.0,30.0,30.0,7.0,0.0
815,59.0,0.0,60.0,5.0,0.0
816,75.0,0.0,30.0,0.0,0.0
817,71.0,0.0,30.0,1.0,0.0
818,78.0,30.0,60.0,6.0,0.0
819,59.0,30.0,30.0,7.0,0.0
820,87.0,0.0,30.0,4.0,0.0
821,59.0,0.0,30.0,3.0,0.0
822,66.0,0.0,30.0,2.0,0.0
823,90.0,0.0,30.0,4.0,0.0
824,57.0,0.0,30.0,3.0,0.0
825,57.0,0.0,30.0,7.0,0.0
826,55.0,0.0,30.0,3.0,0.0
827,76.0,0.0,30.0,0.0,0.0
828,83.0,0.0,30.0,4.0,0.0
829,67.0,30.0,30.0,2.0,0.0
830,76.0,0.0,30.0,1.0,0.0
831,55.0,0.0,30.0,7.0,0.0
832,54.0,30.0,30.0,3.0,0.0
833,47.0,0.0,30.0,5.0,0.0
834,54.0,0.0,30.0,7.0,0.0
835,81.0,0.0,30.0,4.0,0.0
836,66.0,0.0,30.0,0.0,0.0
837,71.0,0.0,30.0,1.0,0.0
838,52.0,30.0,30.0,7.0,0.0
839,71.0,0.0,30.0,2.0,0.0
840,49.0,0.0,30.0,5.0,0.0
841,79.0,0.0,30.0,4.0,0.0
842,52.0,0.0,30.0,3.0,0.0
843,51.0,0.0,30.0,5.0,0.0
844,78.0,0.0,30.0,4.0,0.0
845,51.0,60.0,30.0,3.0,0.0
846,51.0,0.0,30.0,7.0,0.0
847,52.0,0.0,120.0,7.0,0.0
848,59.0,0.0,120.0,7.0,0.0
849,59.0,0.0,120.0,5.0,0.0
850,67.0,0.0,120.0,2.0,0.0
851,52.0,60.0,120.0,5.0,0.0
852,55.0,0.0,120.0,7.0,0.0
853,67.0,0.0,120.0,4.0,0.0
854,64.0,0.0,60.0,1.0,0.0
855,55.0,0.0,120.0,5.0,0.0
856,52.0,0.0,120.0,3.0,0.0
857,67.0,0.0,120.0,6.0,0.0
858,71.0,0.0,60.0,4.0,0.0
859,71.0,0.0,60.0,0.0,0.0
860,71.0,60.0,60.0,6.0,0.0
861,64.0,0.0,120.0,7.0,0.0
862,64.0,0.0,120.0,5.0,0.0
863,67.0,0.0,60.0,1.0,0.0
864,76.0,0.0,60.0,0.0,0.0
865,76.0,0.0,60.0,6.0,0.0
866,76.0,0.0,60.0,4.0,0.0
867,79.0,0.0,60.0,4.0,0.0
868,71.0,0.0,60.0,1.0,0.0
869,79.0,0.0,60.0,6.0,0.0
870,71.0,60.0,60.0,6.0,0.0
871,71.0,0.0,60.0,4.0,0.0
872,79.0,0.0,60.0,0.0,0.0
873,78.0,0.0,60.0,0.0,0.0
874,69.0,30.0,60.0,1.0,0.0
875,69.0,0.0,60.0,6.0,0.0
876,69.0,0.0,60.0,4.0,0.0
877,78.0,0.0,60.0,4.0,0.0
878,78.0,0.0,60.0,6.0,0.0
879,71.0,30.0,60.0,6.0,0.0
880,67.0,30.0,30.0,6.0,0.0
881,64.0,0.0,120.0,7.0,0.0
882,64.0,0.0,120.0,2.0,0.0
883,67.0,0.0,30.0,4.0,0.0
884,52.0,0.0,120.0,3.0,0.0
885,71.0,0.0,60.0,0.0,0.0
886,67.0,0.0,60.0,1.0,0.0
887,64.0,0.0,120.0,5.0,0.0
888,71.0,0.0,60.0,4.0,0.0
889,66.0,0.0,30.0,4.0,0.0
890,66.0,0.0,30.0,6.0,0.0
891,76.0,0.0,30.0,0.0,0.0
892,67.0,0.0,30.0,1.0,0.0
893,67.0,0.0,30.0,4.0,0.0
894,76.0,0.0,30.0,4.0,0.0
895,76.0,0.0,30.0,6.0,0.0
896,67.0,30.0,30.0,6.0,0.0
897,78.0,30.0,30.0,0.0,0.0
898,78.0,0.0,30.0,4.0,0.0
899,69.0,0.0,30.0,1.0,0.0
900,69.0,0.0,30.0,4.0,0.0
901,69.0,0.0,30.0,6.0,0.0
902,78.0,0.0,30.0,6.0,0.0
903,71.0,0.0,30.0,6.0,0.0
904,79.0,0.0,30.0,4.0,0.0
905,71.0,0.0,30.0,4.0,0.0
906,79.0,0.0,30.0,6.0,0.0
907,71.0,30.0,30.0,1.0,0.0
908,79.0,0.0,30.0,0.0,0.0
909,69.0,30.0,30.0,4.0,0.0
910,78.0,0.0,30.0,4.0,0.0
911,69.0,0.0,30.0,1.0,0.0
912,69.0,0.0,30.0,6.0,0.0
913,78.0,0.0,30.0,6.0,0.0
914,78.0,0.0,30.0,0.0,0.0
915,71.0,0.0,30.0,6.0,0.0
916,79.0,0.0,30.0,6.0,0.0
917,79.0,0.0,30.0,0.0,0.0
918,71.0,30.0,30.0,4.0,0.0
919,79.0,0.0,30.0,4.0,0.0
920,71.0,0.0,30.0,1.0,0.0
921,78.0,0.0,30.0,0.0,0.0
922,78.0,0.0,30.0,6.0,0.0
923,69.0,0.0,30.0,1.0,0.0
924,69.0,60.0,30.0,6.0,0.0
925,78.0,0.0,30.0,4.0,0.0
926,69.0,0.0,30.0,4.0,0.0
927,64.0,0.0,60.0,4.0,0.0
928,52.0,0.0,60.0,3.0,0.0
929,76.0,0.0,60.0,0.0,0.0
930,59.0,0.0,60.0,2.0,0.0
931,76.0,0.0,60.0,6.0,0.0
932,67.0,0.0,60.0,6.0,0.0
933,67.0,0.0,60.0,4.0,0.0
934,59.0,0.0,60.0,7.0,0.0
935,52.0,0.0,60.0,7.0,0.0
936,64.0,0.0,60.0,6.0,0.0
937,55.0,0.0,60.0,7.0,0.0
938,67.0,0.0,60.0,1.0,0.0
939,76.0,0.0,60.0,4.0,0.0
940,55.0,0.0,60.0,5.0,0.0
941,59.0,0.0,60.0,5.0,0.0
942,52.0,30.0,60.0,5.0,0.0
943,78.0,0.0,30.0,6.0,0.0
944,69.0,0.0,30.0,1.0,0.0
945,64.0,0.0,60.0,3.0,0.0
946,78.0,30.0,30.0,4.0,0.0
947,64.0,0.0,60.0,7.0,0.0
948,64.0,0.0,60.0,2.0,0.0
949,64.0,0.0,60.0,5.0,0.0
950,78.0,0.0,30.0,0.0,0.0
951,79.0,0.0,30.0,0.0,0.0
952,71.0,0.0,30.0,1.0,0.0
953,79.0,0.0,30.0,6.0,0.0
954,79.0,30.0,30.0,4.0,0.0
955,60.0,60.0,60.0,7.0,0.0
956,64.0,0.0,60.0,1.0,0.0
957,64.0,0.0,60.0,2.0,0.0
958,81.0,0.0,30.0,6.0,0.0
959,60.0,0.0,60.0,3.0,0.0
960,81.0,30.0,30.0,0.0,0.0
961,81.0,0.0,30.0,4.0,0.0
962,60.0,0.0,60.0,5.0,0.0
963,83.0,0.0,30.0,4.0,0.0
964,83.0,0.0,30.0,0.0,0.0
965,83.0,0.0,30.0,6.0,0.0
966,76.0,0.0,60.0,1.0,0.0
967,57.0,0.0,60.0,5.0,0.0
968,57.0,15.0,60.0,3.0,0.0
969,72.0,0.0,60.0,2.0,0.0
970,57.0,0.0,60.0,7.0,0.0
971,84.0,0.0,15.0,6.0,0.0
972,84.0,0.0,15.0,4.0,0.0
973,72.0,0.0,60.0,2.0,0.0
974,62.0,15.0,60.0,5.0,0.0
975,78.0,0.0,60.0,1.0,0.0
976,50.0,0.0,60.0,3.0,0.0
977,50.0,0.0,30.0,7.0,0.0
978,84.0,0.0,15.0,0.0,0.0
979,86.0,15.0,15.0,6.0,0.0
980,57.0,0.0,30.0,7.0,0.0
981,84.0,15.0,15.0,6.0,0.0
982,86.0,0.0,15.0,6.0,0.0
983,62.0,0.0,60.0,3.0,0.0
984,62.0,0.0,60.0,2.0,0.0
985,62.0,15.0,30.0,7.0,0.0
986,78.0,0.0,60.0,0.0,0.0
987,84.0,15.0,15.0,6.0,0.0
988,50.0,0.0,60.0,5.0,0.0
989,78.0,0.0,60.0,4.0,0.0
990,69.0,0.0,60.0,1.0,0.0
991,86.0,0.0,15.0,6.0,0.0
992,84.0,15.0,15.0,6.0,0.0
993,64.0,15.0,30.0,7.0,0.0
994,86.0,0.0,15.0,6.0,0.0
995,62.0,15.0,30.0,4.0,0.0
996,84.0,15.0,15.0,6.0,0.0
997,81.0,0.0,60.0,0.0,0.0
998,66.0,0.0,30.0,7.0,0.0
999,86.0,0.0,15.0,6.0,0.0
1000,84.0,15.0,15.0,6.0,0.0
1001,67.0,0.0,30.0,7.0,0.0
1002,64.0,15.0,30.0,4.0,0.0
1003,86.0,0.0,15.0,6.0,0.0
1004,84.0,15.0,15.0,6.0,0.0
1005,69.0,0.0,30.0,7.0,0.0
1006,66.0,0.0,30.0,4.0,0.0
1007,74.0,0.0,60.0,0.0,0.0
1008,86.0,15.0,15.0,6.0,0.0
1009,84.0,15.0,15.0,6.0,0.0
1010,71.0,0.0,30.0,7.0,0.0
1011,67.0,30.0,30.0,4.0,0.0
1012,86.0,0.0,15.0,6.0,0.0
1013,84.0,30.0,60.0,6.0,0.0
1014,69.0,0.0,60.0,7.0,0.0
1015,50.0,0.0,60.0,5.0,0.0
1016,69.0,30.0,30.0,4.0,0.0
1017,78.0,0.0,60.0,0.0,0.0
1018,62.0,0.0,30.0,4.0,0.0
1019,83.0,0.0,60.0,6.0,0.0
1020,67.0,30.0,30.0,4.0,0.0
1021,52.0,0.0,60.0,5.0,0.0
1022,62.0,30.0,30.0,4.0,0.0
1023,50.0,0.0,60.0,7.0,0.0
1024,54.0,0.0,60.0,5.0,0.0
1025,72.0,30.0,30.0,4.0,0.0
1026,81.0,30.0,60.0,6.0,0.0
1027,62.0,0.0,30.0,4.0,0.0
1028,71.0,30.0,30.0,4.0,0.0
1029,55.0,0.0,60.0,5.0,0.0
1030,79.0,0.0,60.0,6.0,0.0
1031,52.0,0.0,60.0,7.0,0.0
1032,62.0,30.0,30.0,4.0,0.0
1033,57.0,30.0,60.0,5.0,0.0
1034,69.0,30.0,30.0,4.0,0.0
1035,54.0,0.0,60.0,7.0,0.0
1036,78.0,0.0,60.0,6.0,0.0
1037,62.0,0.0,30.0,4.0,0.0
1038,76.0,0.0,60.0,6.0,0.0
1039,55.0,0.0,60.0,7.0,0.0
1040,67.0,30.0,30.0,4.0,0.0
1041,59.0,30.0,60.0,5.0,0.0
1042,62.0,0.0,30.0,4.0,0.0
1043,66.0,30.0,30.0,4.0,0.0
1044,74.0,0.0,60.0,6.0,0.0
1045,57.0,0.0,60.0,5.0,0.0
1046,57.0,0.0,60.0,7.0,0.0
1047,62.0,30.0,30.0,4.0,0.0
1048,73.0,0.0,60.0,6.0,0.0
1049,55.0,0.0,60.0,5.0,0.0
1050,45.0,0.0,60.0,7.0,0.0
1051,64.0,30.0,30.0,4.0,0.0
1052,62.0,60.0,30.0,4.0,0.0
1053,54.0,0.0,120.0,5.0,0.0
1054,62.0,0.0,120.0,5.0,0.0
1055,50.0,0.0,120.0,5.0,0.0
1056,69.0,0.0,60.0,6.0,0.0
1057,66.0,0.0,120.0,2.0,0.0
1058,62.0,0.0,120.0,7.0,0.0
1059,54.0,0.0,120.0,7.0,0.0
1060,50.0,0.0,120.0,7.0,0.0
1061,57.0,0.0,120.0,7.0,0.0
1062,66.0,0.0,120.0,6.0,0.0
1063,57.0,0.0,120.0,5.0,0.0
1064,69.0,60.0,60.0,4.0,0.0
1065,50.0,60.0,120.0,3.0,0.0
1066,66.0,0.0,120.0,4.0,0.0
1067,62.0,0.0,60.0,1.0,0.0
1068,69.0,0.0,60.0,0.0,0.0
1069,66.0,0.0,60.0,1.0,0.0
1070,74.0,0.0,60.0,0.0,0.0
1071,74.0,0.0,60.0,4.0,0.0
1072,74.0,0.0,60.0,6.0,0.0
1073,69.0,0.0,60.0,4.0,0.0
1074,78.0,0.0,60.0,6.0,0.0
1075,69.0,0.0,60.0,6.0,0.0
1076,78.0,60.0,60.0,0.0,0.0
1077,69.0,0.0,60.0,1.0,0.0
1078,78.0,0.0,60.0,4.0,0.0
1079,76.0,0.0,60.0,4.0,0.0
1080,67.0,0.0,60.0,1.0,0.0
1081,67.0,30.0,60.0,4.0,0.0
1082,67.0,0.0,60.0,6.0,0.0
1083,76.0,0.0,60.0,0.0,0.0
1084,76.0,0.0,60.0,6.0,0.0
1085,66.0,0.0,30.0,6.0,0.0
1086,69.0,0.0,60.0,6.0,0.0
1087,62.0,0.0,120.0,7.0,0.0
1088,66.0,0.0,60.0,1.0,0.0
1089,62.0,30.0,120.0,2.0,0.0
1090,66.0,30.0,30.0,4.0,0.0
1091,69.0,0.0,60.0,4.0,0.0
1092,62.0,0.0,120.0,5.0,0.0
1093,50.0,0.0,120.0,3.0,0.0
1094,69.0,0.0,60.0,0.0,0.0
1095,64.0,30.0,30.0,6.0,0.0
1096,64.0,0.0,30.0,4.0,0.0
1097,74.0,0.0,30.0,4.0,0.0
1098,74.0,0.0,30.0,0.0,0.0
1099,66.0,0.0,30.0,6.0,0.0
1100,66.0,0.0,30.0,1.0,0.0
1101,66.0,0.0,30.0,4.0,0.0
1102,74.0,30.0,30.0,6.0,0.0
1103,67.0,0.0,30.0,6.0,0.0
1104,76.0,0.0,30.0,6.0,0.0
1105,76.0,0.0,30.0,0.0,0.0
1106,67.0,0.0,30.0,1.0,0.0
1107,67.0,0.0,30.0,4.0,0.0
1108,76.0,0.0,30.0,4.0,0.0
1109,78.0,0.0,30.0,6.0,0.0
1110,78.0,0.0,30.0,0.0,0.0
1111,69.0,0.0,30.0,4.0,0.0
1112,78.0,0.0,30.0,4.0,0.0
1113,69.0,0.0,30.0,6.0,0.0
1114,69.0,30.0,30.0,1.0,0.0
1115,67.0,0.0,30.0,6.0,0.0
1116,76.0,0.0,30.0,6.0,0.0
1117,76.0,0.0,30.0,0.0,0.0
1118,67.0,30.0,30.0,4.0,0.0
1119,76.0,0.0,30.0,4.0,0.0
1120,67.0,0.0,30.0,1.0,0.0
1121,69.0,0.0,30.0,1.0,0.0
1122,78.0,0.0,30.0,4.0,0.0
1123,69.0,0.0,30.0,6.0,0.0
1124,78.0,30.0,30.0,0.0,0.0
1125,69.0,0.0,30.0,4.0,0.0
1126,78.0,0.0,30.0,6.0,0.0
1127,67.0,0.0,30.0,1.0,0.0
1128,76.0,0.0,30.0,4.0,0.0
1129,67.0,60.0,30.0,4.0,0.0
1130,76.0,0.0,30.0,0.0,0.0
1131,67.0,0.0,30.0,6.0,0.0
1132,76.0,0.0,30.0,6.0,0.0
1133,54.0,0.0,60.0,7.0,0.0
1134,57.0,0.0,60.0,7.0,0.0
1135,50.0,0.0,60.0,3.0,0.0
1136,54.0,0.0,60.0,5.0,0.0
1137,57.0,0.0,60.0,2.0,0.0
1138,66.0,0.0,60.0,1.0,0.0
1139,50.0,0.0,60.0,7.0,0.0
1140,74.0,0.0,60.0,6.0,0.0
1141,62.0,0.0,60.0,6.0,0.0
1142,74.0,0.0,60.0,0.0,0.0
1143,62.0,0.0,60.0,4.0,0.0
1144,66.0,0.0,60.0,4.0,0.0
1145,66.0,30.0,60.0,6.0,0.0
1146,74.0,0.0,60.0,4.0,0.0
1147,62.0,0.0,60.0,3.0,0.0
1148,62.0,0.0,15.0,5.0,0.0
1149,76.0,0.0,30.0,4.0,0.0
1150,76.0,0.0,30.0,0.0,0.0
1151,67.0,0.0,30.0,1.0,0.0
1152,62.0,0.0,60.0,2.0,0.0
1153,62.0,30.0,60.0,7.0,0.0
1154,76.0,30.0,30.0,6.0,0.0
1155,69.0,0.0,30.0,1.0,0.0
1156,78.0,0.0,30.0,4.0,0.0
1157,78.0,0.0,30.0,0.0,0.0
1158,78.0,0.0,30.0,6.0,0.0
1159,79.0,30.0,30.0,4.0,0.0
1160,79.0,0.0,30.0,0.0,0.0
1161,79.0,0.0,30.0,6.0,0.0
1162,59.0,0.0,60.0,5.0,0.0
1163,62.0,0.0,60.0,2.0,0.0
1164,59.0,0.0,60.0,7.0,0.0
1165,59.0,60.0,60.0,3.0,0.0
1166,62.0,0.0,60.0,1.0,0.0
1167,81.0,0.0,30.0,6.0,0.0
1168,81.0,0.0,30.0,4.0,0.0
1169,81.0,0.0,30.0,0.0,0.0
1170,55.0,15.0,60.0,5.0,0.0
1171,74.0,0.0,60.0,1.0,0.0
1172,55.0,0.0,60.0,7.0,0.0
1173,55.0,0.0,60.0,3.0,0.0
1174,67.0,0.0,60.0,2.0,0.0
1175,76.0,0.0,60.0,1.0,0.0
1176,83.0,0.0,15.0,4.0,0.0
1177,83.0,0.0,15.0,0.0,0.0
1178,83.0,0.0,15.0,6.0,0.0
1179,48.0,15.0,60.0,3.0,0.0
1180,48.0,0.0,30.0,7.0,0.0
1181,67.0,0.0,60.0,2.0,0.0
1182,60.0,0.0,60.0,5.0,0.0
1183,84.0,15.0,15.0,6.0,0.0
1184,83.0,15.0,15.0,6.0,0.0
1185,55.0,0.0,30.0,7.0,0.0
1186,84.0,0.0,15.0,6.0,0.0
1187,67.0,0.0,60.0,1.0,0.0
1188,48.0,0.0,60.0,5.0,0.0
1189,76.0,0.0,60.0,0.0,0.0
1190,83.0,15.0,15.0,6.0,0.0
1191,60.0,15.0,60.0,2.0,0.0
1192,60.0,15.0,30.0,7.0,0.0
1193,60.0,0.0,60.0,3.0,0.0
1194,76.0,0.0,60.0,4.0,0.0
1195,84.0,0.0,15.0,6.0,0.0
1196,83.0,15.0,15.0,6.0,0.0
1197,62.0,0.0,30.0,7.0,0.0
1198,84.0,0.0,15.0,6.0,0.0
1199,79.0,0.0,60.0,0.0,0.0
1200,64.0,0.0,30.0,4.0,0.0
1201,64.0,0.0,30.0,7.0,0.0
1202,83.0,15.0,15.0,6.0,0.0
1203,84.0,15.0,15.0,6.0,0.0
1204,66.0,15.0,30.0,7.0,0.0
1205,63.0,0.0,30.0,4.0,0.0
1206,83.0,15.0,15.0,6.0,0.0
1207,84.0,0.0,15.0,6.0,0.0
1208,71.0,0.0,60.0,0.0,0.0
1209,64.0,0.0,30.0,4.0,0.0
1210,83.0,15.0,15.0,6.0,0.0
1211,67.0,15.0,30.0,7.0,0.0
1212,84.0,0.0,15.0,6.0,0.0
1213,69.0,30.0,30.0,7.0,0.0
1214,83.0,15.0,15.0,6.0,0.0
1215,66.0,0.0,30.0,4.0,0.0
1216,84.0,0.0,15.0,6.0,0.0
1217,83.0,0.0,60.0,6.0,0.0
1218,67.0,30.0,30.0,4.0,0.0
1219,52.0,0.0,60.0,5.0,0.0
1220,67.0,30.0,60.0,7.0,0.0
1221,76.0,0.0,60.0,0.0,0.0
1222,64.0,0.0,30.0,4.0,0.0
1223,54.0,30.0,60.0,5.0,0.0
1224,84.0,0.0,60.0,6.0,0.0
1225,69.0,30.0,30.0,4.0,0.0
1226,63.0,0.0,60.0,7.0,0.0
1227,64.0,0.0,30.0,4.0,0.0
1228,64.0,0.0,60.0,7.0,0.0
1229,55.0,0.0,60.0,5.0,0.0
1230,83.0,0.0,60.0,6.0,0.0
1231,67.0,30.0,30.0,4.0,0.0
1232,64.0,30.0,30.0,4.0,0.0
1233,57.0,0.0,60.0,5.0,0.0
1234,66.0,0.0,60.0,7.0,0.0
1235,81.0,0.0,60.0,6.0,0.0
1236,72.0,30.0,30.0,4.0,0.0
1237,64.0,30.0,30.0,4.0,0.0
1238,79.0,30.0,60.0,6.0,0.0
1239,59.0,0.0,60.0,5.0,0.0
1240,71.0,30.0,30.0,4.0,0.0
1241,67.0,0.0,60.0,7.0,0.0
1242,64.0,0.0,30.0,4.0,0.0
1243,60.0,0.0,60.0,5.0,0.0
1244,69.0,0.0,60.0,7.0,0.0
1245,78.0,30.0,60.0,6.0,0.0
1246,69.0,30.0,30.0,4.0,0.0
1247,64.0,0.0,30.0,4.0,0.0
1248,76.0,30.0,60.0,6.0,0.0
1249,71.0,0.0,30.0,7.0,0.0
1250,67.0,30.0,30.0,4.0,0.0
1251,59.0,0.0,60.0,5.0,0.0
1252,71.0,0.0,30.0,7.0,0.0
1253,64.0,0.0,30.0,4.0,0.0
1254,47.0,0.0,60.0,5.0,0.0
1255,66.0,0.0,30.0,4.0,0.0
1256,69.0,30.0,30.0,7.0,0.0
1257,75.0,30.0,60.0,6.0,0.0
1258,71.0,0.0,30.0,7.0,0.0
1259,64.0,0.0,30.0,4.0,0.0
1260,76.0,0.0,30.0,0.0,0.0
1261,67.0,0.0,30.0,7.0,0.0
1262,76.0,0.0,180.0,6.0,0.0
1263,60.0,0.0,60.0,3.0,0.0
1264,48.0,0.0,60.0,5.0,0.0
1265,76.0,30.0,30.0,4.0,0.0
1266,74.0,30.0,30.0,0.0,0.0
1267,74.0,0.0,30.0,4.0,0.0
1268,69.0,0.0,30.0,7.0,0.0
1269,67.0,0.0,30.0,7.0,0.0
1270,72.0,0.0,30.0,4.0,0.0
1271,64.0,30.0,30.0,3.0,0.0
1272,64.0,0.0,30.0,5.0,0.0
1273,72.0,0.0,30.0,0.0,0.0
1274,62.0,30.0,30.0,5.0,0.0
1275,71.0,0.0,30.0,0.0,0.0
1276,71.0,0.0,30.0,4.0,0.0
1277,66.0,0.0,30.0,7.0,0.0
1278,62.0,0.0,30.0,3.0,0.0
1279,60.0,30.0,30.0,3.0,0.0
1280,69.0,0.0,60.0,4.0,0.0
1281,64.0,0.0,30.0,7.0,0.0
1282,60.0,0.0,30.0,5.0,0.0
1283,62.0,0.0,30.0,7.0,0.0
1284,59.0,0.0,30.0,5.0,0.0
1285,59.0,30.0,30.0,3.0,0.0
1286,78.0,30.0,30.0,6.0,0.0
1287,60.0,0.0,30.0,7.0,0.0
1288,69.0,0.0,15.0,0.0,0.0
1289,57.0,0.0,30.0,3.0,0.0
1290,57.0,0.0,30.0,5.0,0.0
1291,55.0,0.0,30.0,5.0,0.0
1292,79.0,0.0,30.0,6.0,0.0
1293,55.0,0.0,30.0,3.0,0.0
1294,59.0,30.0,30.0,7.0,0.0
1295,81.0,30.0,30.0,6.0,0.0
1296,69.0,0.0,15.0,4.0,0.0
1297,66.0,0.0,60.0,1.0,0.0
1298,54.0,30.0,60.0,5.0,0.0
1299,66.0,0.0,60.0,2.0,0.0
1300,69.0,0.0,120.0,0.0,0.0
1301,54.0,0.0,60.0,3.0,0.0
1302,60.0,0.0,60.0,7.0,0.0
1303,79.0,0.0,30.0,6.0,0.0
1304,69.0,30.0,30.0,1.0,0.0
1305,50.0,0.0,60.0,3.0,0.0
1306,78.0,0.0,30.0,6.0,0.0
1307,50.0,0.0,60.0,7.0,0.0
1308,69.0,0.0,30.0,2.0,0.0
1309,66.0,0.0,60.0,5.0,0.0
1310,67.0,30.0,30.0,2.0,0.0
1311,67.0,0.0,30.0,1.0,0.0
1312,76.0,0.0,30.0,6.0,0.0
1313,66.0,0.0,30.0,1.0,0.0
1314,52.0,0.0,60.0,7.0,0.0
1315,67.0,0.0,60.0,5.0,0.0
1316,74.0,30.0,30.0,6.0,0.0
1317,66.0,0.0,30.0,2.0,0.0
1318,64.0,0.0,30.0,2.0,0.0
1319,64.0,30.0,30.0,1.0,0.0
1320,72.0,0.0,30.0,6.0,0.0
1321,62.0,0.0,30.0,2.0,0.0
1322,54.0,0.0,60.0,7.0,0.0
1323,69.0,0.0,60.0,5.0,0.0
1324,71.0,0.0,30.0,6.0,0.0
1325,62.0,30.0,30.0,1.0,0.0
1326,69.0,0.0,30.0,6.0,0.0
1327,60.0,0.0,30.0,1.0,0.0
1328,60.0,30.0,30.0,2.0,0.0
1329,74.0,0.0,30.0,0.0,0.0
1330,47.0,0.0,30.0,7.0,0.0
1331,67.0,0.0,60.0,6.0,0.0
1332,59.0,0.0,60.0,3.0,0.0
1333,74.0,0.0,30.0,4.0,0.0
1334,71.0,0.0,30.0,5.0,0.0
1335,59.0,0.0,30.0,2.0,0.0
1336,59.0,30.0,30.0,1.0,0.0
1337,72.0,0.0,30.0,4.0,0.0
1338,64.0,0.0,30.0,5.0,0.0
1339,72.0,0.0,30.0,0.0,0.0
1340,67.0,30.0,30.0,7.0,0.0
1341,66.0,0.0,30.0,2.0,0.0
1342,74.0,30.0,120.0,6.0,0.0
1343,62.0,0.0,30.0,5.0,0.0
1344,71.0,0.0,30.0,0.0,0.0
1345,66.0,0.0,30.0,1.0,0.0
1346,71.0,30.0,30.0,4.0,0.0
1347,62.0,0.0,30.0,3.0,0.0
1348,66.0,0.0,30.0,7.0,0.0
1349,60.0,0.0,30.0,5.0,0.0
1350,64.0,30.0,30.0,7.0,0.0
1351,60.0,0.0,30.0,3.0,0.0
1352,69.0,0.0,30.0,0.0,0.0
1353,69.0,0.0,30.0,4.0,0.0
1354,59.0,30.0,30.0,3.0,0.0
1355,62.0,0.0,30.0,7.0,0.0
1356,59.0,0.0,30.0,5.0,0.0
1357,67.0,0.0,60.0,0.0,0.0
1358,67.0,0.0,60.0,4.0,0.0
1359,60.0,0.0,30.0,7.0,0.0
1360,57.0,0.0,30.0,5.0,0.0
1361,57.0,0.0,30.0,3.0,0.0
1362,55.0,0.0,30.0,3.0,0.0
1363,76.0,30.0,30.0,6.0,0.0
1364,67.0,0.0,60.0,0.0,0.0
1365,55.0,0.0,30.0,5.0,0.0
1366,59.0,0.0,30.0,7.0,0.0
1367,67.0,0.0,60.0,4.0,0.0
1368,54.0,0.0,30.0,5.0,0.0
1369,54.0,0.0,30.0,3.0,0.0
1370,78.0,30.0,30.0,6.0,0.0
1371,57.0,0.0,30.0,7.0,0.0
1372,59.0,0.0,60.0,7.0,0.0
1373,64.0,0.0,60.0,1.0,0.0
1374,64.0,0.0,60.0,2.0,0.0
1375,52.0,30.0,60.0,5.0,0.0
1376,52.0,0.0,60.0,3.0,0.0
1377,79.0,30.0,30.0,6.0,0.0
1378,67.0,0.0,120.0,4.0,0.0
1379,67.0,0.0,120.0,0.0,0.0
1380,78.0,0.0,30.0,6.0,0.0
1381,76.0,0.0,30.0,6.0,0.0
1382,67.0,30.0,30.0,1.0,0.0
1383,67.0,0.0,30.0,2.0,0.0
1384,64.0,30.0,60.0,5.0,0.0
1385,48.0,0.0,60.0,3.0,0.0
1386,48.0,0.0,60.0,7.0,0.0
1387,74.0,0.0,30.0,6.0,0.0
1388,66.0,0.0,30.0,2.0,0.0
1389,66.0,0.0,30.0,1.0,0.0
1390,50.0,0.0,60.0,7.0,0.0
1391,64.0,0.0,30.0,1.0,0.0
1392,66.0,0.0,60.0,5.0,0.0
1393,64.0,30.0,30.0,2.0,0.0
1394,72.0,0.0,30.0,6.0,0.0
1395,71.0,30.0,30.0,6.0,0.0
1396,62.0,0.0,30.0,1.0,0.0
1397,62.0,0.0,30.0,2.0,0.0
1398,60.0,30.0,30.0,1.0,0.0
1399,67.0,0.0,60.0,5.0,0.0
1400,52.0,0.0,60.0,7.0,0.0
1401,69.0,0.0,30.0,6.0,0.0
1402,60.0,0.0,30.0,2.0,0.0
1403,59.0,0.0,30.0,1.0,0.0
1404,59.0,0.0,30.0,2.0,0.0
1405,67.0,30.0,30.0,6.0,0.0
1406,60.0,30.0,60.0,1.0,0.0
1407,69.0,0.0,60.0,5.0,0.0
1408,45.0,0.0,60.0,7.0,0.0
1409,60.0,0.0,60.0,2.0,0.0
1410,66.0,30.0,30.0,6.0,0.0
1411,57.0,0.0,60.0,3.0,0.0
1412,67.0,0.0,30.0,6.0,0.0
1413,54.0,0.0,30.0,7.0,0.0
1414,62.0,0.0,60.0,5.0,0.0
1415,69.0,0.0,30.0,6.0,0.0
1416,60.0,30.0,30.0,3.0,0.0
1417,55.0,0.0,30.0,7.0,0.0
1418,71.0,30.0,30.0,6.0,0.0
1419,59.0,0.0,30.0,3.0,0.0
1420,57.0,0.0,30.0,7.0,0.0
1421,57.0,0.0,60.0,3.0,0.0
1422,72.0,30.0,30.0,6.0,0.0
1423,55.0,0.0,30.0,7.0,0.0
1424,71.0,30.0,30.0,6.0,0.0
1425,55.0,0.0,30.0,3.0,0.0
1426,57.0,0.0,30.0,7.0,0.0
1427,72.0,30.0,30.0,6.0,0.0
1428,76.0,0.0,30.0,6.0,0.0
1429,60.0,30.0,30.0,7.0,0.0
1430,54.0,0.0,30.0,7.0,0.0
1431,54.0,30.0,30.0,3.0,0.0
1432,74.0,0.0,30.0,6.0,0.0
1433,57.0,30.0,30.0,7.0,0.0
1434,76.0,0.0,30.0,6.0,0.0
1435,78.0,0.0,30.0,6.0,0.0
1436,57.0,30.0,30.0,3.0,0.0
1437,62.0,0.0,30.0,7.0,0.0
1438,55.0,0.0,30.0,3.0,0.0
1439,79.0,0.0,30.0,6.0,0.0
1440,64.0,30.0,30.0,7.0,0.0
1441,81.0,0.0,30.0,6.0,0.0
1442,54.0,30.0,60.0,3.0,0.0
1443,66.0,30.0,30.0,7.0,0.0
1444,79.0,0.0,30.0,6.0,0.0
1445,64.0,0.0,30.0,7.0,0.0
1446,81.0,0.0,30.0,6.0,0.0
1447,50.0,30.0,30.0,3.0,0.0
1448,66.0,0.0,30.0,7.0,0.0
1449,84.0,30.0,30.0,6.0,0.0
1450,69.0,0.0,30.0,7.0,0.0
1451,83.0,30.0,30.0,6.0,0.0
1452,62.0,0.0,30.0,7.0,0.0
1453,55.0,0.0,60.0,3.0,0.0
1454,59.0,0.0,30.0,7.0,0.0
1455,86.0,30.0,30.0,6.0,0.0
1456,67.0,0.0,30.0,7.0,0.0
1457,88.0,30.0,30.0,6.0,0.0
1458,59.0,0.0,60.0,3.0,0.0
1459,86.0,0.0,30.0,6.0,0.0
1460,66.0,30.0,30.0,7.0,0.0
1461,84.0,30.0,30.0,6.0,0.0
1462,64.0,0.0,60.0,3.0,0.0
1463,64.0,0.0,30.0,7.0,0.0
1464,67.0,30.0,30.0,7.0,0.0
1465,83.0,0.0,30.0,6.0,0.0
1466,81.0,0.0,30.0,6.0,0.0
1467,66.0,30.0,30.0,7.0,0.0
1468,60.0,0.0,60.0,3.0,0.0
1469,79.0,0.0,30.0,6.0,0.0
1470,64.0,20.0,30.0,7.0,0.0
1471,86.0,20.0,20.0,6.0,0.0
1472,54.0,0.0,60.0,3.0,0.0
1473,66.0,0.0,60.0,7.0,0.0
1474,88.0,20.0,20.0,6.0,0.0
1475,81.0,0.0,30.0,0.0,0.0
1476,78.0,0.0,30.0,1.0,0.0
1477,81.0,0.0,30.0,4.0,0.0
1478,86.0,15.0,20.0,6.0,0.0
1479,81.0,0.0,30.0,1.0,0.0
1480,88.0,15.0,15.0,6.0,0.0
1481,50.0,0.0,60.0,7.0,0.0
1482,84.0,15.0,30.0,0.0,0.0
1483,50.0,0.0,60.0,3.0,0.0
1484,50.0,0.0,60.0,5.0,0.0
1485,54.0,15.0,60.0,7.0,0.0
1486,84.0,0.0,30.0,4.0,0.0
1487,86.0,0.0,15.0,6.0,0.0
1488,79.0,0.0,30.0,1.0,0.0
1489,83.0,0.0,30.0,0.0,0.0
1490,88.0,15.0,15.0,6.0,0.0
1491,83.0,0.0,30.0,4.0,0.0
1492,86.0,0.0,15.0,6.0,0.0
1493,78.0,0.0,30.0,1.0,0.0
1494,88.0,15.0,15.0,6.0,0.0
1495,52.0,0.0,60.0,5.0,0.0
1496,52.0,0.0,60.0,3.0,0.0
1497,81.0,0.0,30.0,4.0,0.0
1498,81.0,15.0,30.0,0.0,0.0
1499,55.0,15.0,60.0,7.0,0.0
1500,52.0,0.0,60.0,7.0,0.0
1501,86.0,0.0,15.0,6.0,0.0
1502,79.0,0.0,30.0,0.0,0.0
1503,88.0,15.0,15.0,6.0,0.0
1504,76.0,0.0,30.0,1.0,0.0
1505,79.0,0.0,30.0,4.0,0.0
1506,86.0,0.0,15.0,6.0,0.0
1507,88.0,15.0,15.0,6.0,0.0
1508,54.0,0.0,60.0,3.0,0.0
1509,57.0,0.0,60.0,7.0,0.0
1510,74.0,15.0,30.0,1.0,0.0
1511,54.0,0.0,60.0,5.0,0.0
1512,78.0,0.0,30.0,4.0,0.0
1513,78.0,0.0,30.0,0.0,0.0
1514,54.0,0.0,60.0,7.0,0.0
1515,86.0,0.0,15.0,6.0,0.0
1516,76.0,0.0,30.0,0.0,0.0
1517,76.0,0.0,30.0,4.0,0.0
1518,72.0,0.0,30.0,1.0,0.0
1519,88.0,15.0,15.0,6.0,0.0
1520,86.0,15.0,15.0,6.0,0.0
1521,74.0,15.0,60.0,0.0,0.0
1522,55.0,0.0,120.0,3.0,0.0
1523,67.0,0.0,60.0,2.0,0.0
1524,71.0,0.0,60.0,1.0,0.0
1525,55.0,0.0,120.0,5.0,0.0
1526,55.0,0.0,60.0,7.0,0.0
1527,62.0,0.0,120.0,5.0,0.0
1528,59.0,0.0,30.0,7.0,0.0
1529,74.0,0.0,60.0,4.0,0.0
1530,71.0,0.0,120.0,4.0,0.0
1531,67.0,0.0,120.0,4.0,0.0
1532,59.0,0.0,120.0,5.0,0.0
1533,88.0,15.0,15.0,6.0,0.0
1534,86.0,15.0,15.0,6.0,0.0
1535,88.0,15.0,15.0,6.0,0.0
1536,60.0,0.0,30.0,7.0,0.0
1537,86.0,0.0,15.0,6.0,0.0
1538,79.0,0.0,60.0,0.0,0.0
1539,88.0,15.0,15.0,6.0,0.0
1540,71.0,0.0,60.0,2.0,0.0
1541,79.0,0.0,60.0,4.0,0.0
1542,59.0,0.0,30.0,7.0,0.0
1543,74.0,0.0,60.0,1.0,0.0
1544,86.0,15.0,15.0,6.0,0.0
1545,57.0,0.0,30.0,7.0,0.0
1546,88.0,15.0,15.0,6.0,0.0
1547,86.0,15.0,15.0,6.0,0.0
1548,83.0,0.0,60.0,0.0,0.0
1549,74.0,0.0,60.0,4.0,0.0
1550,83.0,0.0,60.0,4.0,0.0
1551,55.0,0.0,30.0,7.0,0.0
1552,79.0,0.0,60.0,1.0,0.0
1553,74.0,15.0,60.0,2.0,0.0
1554,88.0,15.0,15.0,6.0,0.0
1555,86.0,15.0,15.0,6.0,0.0
1556,59.0,0.0,30.0,7.0,0.0
1557,88.0,15.0,15.0,6.0,0.0
1558,86.0,0.0,15.0,6.0,0.0
1559,72.0,15.0,60.0,4.0,0.0
1560,81.0,0.0,60.0,4.0,0.0
1561,88.0,15.0,15.0,6.0,0.0
1562,62.0,0.0,30.0,7.0,0.0
1563,81.0,0.0,60.0,0.0,0.0
1564,78.0,0.0,60.0,1.0,0.0
1565,72.0,0.0,60.0,2.0,0.0
1566,86.0,15.0,15.0,6.0,0.0
1567,88.0,15.0,15.0,6.0,0.0
1568,66.0,0.0,30.0,7.0,0.0
1569,86.0,0.0,15.0,6.0,0.0
1570,67.0,0.0,120.0,5.0,0.0
1571,43.0,0.0,120.0,3.0,0.0
1572,71.0,0.0,60.0,2.0,0.0
1573,88.0,15.0,15.0,6.0,0.0
1574,67.0,0.0,60.0,1.0,0.0
1575,74.0,15.0,60.0,0.0,0.0
1576,74.0,0.0,60.0,4.0,0.0
1577,67.0,15.0,30.0,7.0,0.0
1578,71.0,0.0,30.0,4.0,0.0
1579,86.0,0.0,15.0,6.0,0.0
1580,69.0,0.0,30.0,4.0,0.0
1581,88.0,15.0,15.0,6.0,0.0
1582,66.0,0.0,30.0,7.0,0.0
1583,86.0,0.0,15.0,6.0,0.0
1584,71.0,0.0,30.0,1.0,0.0
1585,67.0,0.0,30.0,7.0,0.0
1586,71.0,0.0,30.0,4.0,0.0
1587,79.0,15.0,30.0,4.0,0.0
1588,74.0,0.0,60.0,2.0,0.0
1589,79.0,0.0,30.0,0.0,0.0
1590,88.0,15.0,15.0,6.0,0.0
1591,86.0,0.0,15.0,6.0,0.0
1592,62.0,0.0,30.0,7.0,0.0
1593,72.0,15.0,30.0,1.0,0.0
1594,88.0,15.0,15.0,6.0,0.0
1595,81.0,0.0,30.0,0.0,0.0
1596,81.0,0.0,30.0,4.0,0.0
1597,72.0,0.0,30.0,4.0,0.0
1598,86.0,0.0,15.0,6.0,0.0
1599,83.0,0.0,30.0,0.0,0.0
1600,74.0,0.0,30.0,4.0,0.0
1601,83.0,0.0,30.0,4.0,0.0
1602,59.0,15.0,30.0,7.0,0.0
1603,88.0,15.0,15.0,6.0,0.0
1604,79.0,0.0,30.0,2.0,0.0
1605,74.0,0.0,30.0,1.0,0.0
1606,86.0,0.0,15.0,6.0,0.0
1607,72.0,0.0,30.0,4.0,0.0
1608,88.0,15.0,15.0,6.0,0.0
1609,81.0,0.0,30.0,0.0,0.0
1610,81.0,15.0,30.0,4.0,0.0
1611,62.0,0.0,30.0,7.0,0.0
1612,78.0,0.0,30.0,2.0,0.0
1613,72.0,0.0,30.0,1.0,0.0
1614,86.0,0.0,15.0,6.0,0.0
1615,88.0,15.0,15.0,6.0,0.0
1616,79.0,0.0,30.0,2.0,0.0
1617,74.0,0.0,30.0,1.0,0.0
1618,83.0,0.0,30.0,4.0,0.0
1619,74.0,15.0,30.0,4.0,0.0
1620,83.0,0.0,30.0,0.0,0.0
1621,67.0,0.0,30.0,7.0,0.0
1622,86.0,0.0,15.0,6.0,0.0
1623,69.0,0.0,30.0,7.0,0.0
1624,72.0,30.0,30.0,1.0,0.0
1625,88.0,15.0,15.0,6.0,0.0
1626,78.0,0.0,30.0,2.0,0.0
1627,72.0,0.0,30.0,4.0,0.0
1628,81.0,0.0,30.0,4.0,0.0
1629,81.0,0.0,30.0,0.0,0.0
1630,86.0,0.0,15.0,6.0,0.0
1631,79.0,0.0,60.0,0.0,0.0
1632,71.0,30.0,30.0,7.0,0.0
1633,88.0,0.0,30.0,6.0,0.0
1634,55.0,0.0,60.0,3.0,0.0
1635,62.0,0.0,60.0,5.0,0.0
1636,59.0,0.0,60.0,5.0,0.0
1637,55.0,0.0,60.0,5.0,0.0
1638,71.0,0.0,60.0,1.0,0.0
1639,67.0,30.0,60.0,4.0,0.0
1640,74.0,0.0,60.0,2.0,0.0
1641,79.0,0.0,60.0,4.0,0.0
1642,71.0,0.0,60.0,4.0,0.0
1643,67.0,0.0,30.0,7.0,0.0
1644,86.0,0.0,90.0,6.0,0.0
1645,67.0,0.0,60.0,3.0,0.0
1646,81.0,0.0,30.0,0.0,0.0
1647,81.0,30.0,30.0,4.0,0.0
1648,67.0,0.0,60.0,5.0,0.0
1649,62.0,0.0,30.0,7.0,0.0
1650,83.0,0.0,30.0,0.0,0.0
1651,67.0,30.0,30.0,7.0,0.0
1652,83.0,0.0,30.0,4.0,0.0
1653,64.0,0.0,60.0,3.0,0.0
1654,64.0,0.0,60.0,5.0,0.0
1655,55.0,60.0,60.0,7.0,0.0
1656,84.0,0.0,30.0,4.0,0.0
1657,84.0,30.0,30.0,0.0,0.0
1658,86.0,0.0,30.0,0.0,0.0
1659,86.0,0.0,30.0,4.0,0.0
1660,60.0,0.0,60.0,3.0,0.0
1661,79.0,0.0,60.0,6.0,0.0
1662,60.0,30.0,60.0,5.0,0.0
1663,57.0,30.0,60.0,5.0,0.0
1664,88.0,0.0,15.0,0.0,0.0
1665,57.0,0.0,60.0,3.0,0.0
1666,84.0,30.0,30.0,6.0,0.0
1667,88.0,0.0,15.0,4.0,0.0
1668,83.0,0.0,30.0,6.0,0.0
1669,81.0,0.0,30.0,6.0,0.0
1670,72.0,30.0,30.0,7.0,0.0
1671,76.0,0.0,60.0,1.0,0.0
1672,78.0,0.0,60.0,0.0,0.0
1673,60.0,0.0,30.0,3.0,0.0
1674,78.0,0.0,60.0,4.0,0.0
1675,69.0,0.0,60.0,5.0,0.0
1676,59.0,0.0,30.0,3.0,0.0
1677,74.0,0.0,30.0,7.0,0.0
1678,83.0,30.0,30.0,6.0,0.0
1679,76.0,30.0,60.0,7.0,0.0
1680,57.0,30.0,30.0,3.0,0.0
1681,69.0,0.0,15.0,2.0,0.0
1682,76.0,0.0,60.0,1.0,0.0
1683,84.0,0.0,30.0,6.0,0.0
1684,86.0,0.0,30.0,6.0,0.0
1685,71.0,0.0,30.0,5.0,0.0
1686,55.0,0.0,30.0,3.0,0.0
1687,54.0,30.0,30.0,3.0,0.0
1688,72.0,30.0,60.0,2.0,0.0
1689,64.0,0.0,60.0,7.0,0.0
1690,69.0,0.0,30.0,5.0,0.0
1691,81.0,0.0,60.0,1.0,0.0
1692,52.0,0.0,30.0,3.0,0.0
1693,67.0,0.0,30.0,5.0,0.0
1694,69.0,30.0,60.0,7.0,0.0
1695,69.0,0.0,60.0,5.0,0.0
1696,88.0,0.0,15.0,6.0,0.0
1697,78.0,0.0,60.0,0.0,0.0
1698,54.0,0.0,60.0,3.0,0.0
1699,81.0,30.0,30.0,1.0,0.0
1700,72.0,0.0,60.0,2.0,0.0
1701,78.0,0.0,60.0,4.0,0.0
1702,66.0,0.0,60.0,5.0,0.0
1703,79.0,30.0,30.0,4.0,0.0
1704,66.0,30.0,60.0,3.0,0.0
1705,71.0,0.0,30.0,7.0,0.0
1706,78.0,0.0,60.0,6.0,0.0
1707,79.0,0.0,30.0,0.0,0.0
1708,81.0,0.0,30.0,4.0,0.0
1709,81.0,0.0,30.0,0.0,0.0
1710,72.0,0.0,30.0,7.0,0.0
1711,66.0,0.0,60.0,7.0,0.0
1712,62.0,0.0,60.0,5.0,0.0
1713,83.0,0.0,30.0,0.0,0.0
1714,83.0,30.0,30.0,4.0,0.0
1715,62.0,0.0,60.0,3.0,0.0
1716,84.0,0.0,30.0,0.0,0.0
1717,84.0,60.0,30.0,4.0,0.0
1718,59.0,0.0,60.0,5.0,0.0
1719,59.0,0.0,60.0,3.0,0.0
1720,78.0,0.0,60.0,6.0,0.0
1721,55.0,30.0,60.0,3.0,0.0
1722,55.0,0.0,60.0,5.0,0.0
1723,83.0,30.0,30.0,6.0,0.0
1724,86.0,0.0,15.0,4.0,0.0
1725,86.0,30.0,15.0,0.0,0.0
1726,81.0,0.0,30.0,6.0,0.0
1727,76.0,0.0,60.0,0.0,0.0
1728,79.0,0.0,30.0,6.0,0.0
1729,74.0,0.0,30.0,1.0,0.0
1730,67.0,0.0,60.0,5.0,0.0
1731,71.0,0.0,30.0,7.0,0.0
1732,76.0,0.0,60.0,4.0,0.0
1733,59.0,0.0,30.0,3.0,0.0
1734,67.0,30.0,30.0,2.0,0.0
1735,72.0,30.0,30.0,7.0,0.0
1736,57.0,0.0,30.0,3.0,0.0
1737,81.0,0.0,30.0,6.0,0.0
1738,83.0,0.0,30.0,6.0,0.0
1739,74.0,0.0,30.0,1.0,0.0
1740,55.0,0.0,30.0,3.0,0.0
1741,74.0,30.0,60.0,7.0,0.0
1742,67.0,30.0,30.0,2.0,0.0
1743,84.0,0.0,30.0,6.0,0.0
1744,54.0,0.0,30.0,3.0,0.0
1745,69.0,0.0,30.0,5.0,0.0
1746,52.0,0.0,30.0,3.0,0.0
1747,62.0,30.0,60.0,7.0,0.0
1748,67.0,0.0,30.0,5.0,0.0
1749,71.0,0.0,30.0,2.0,0.0
1750,79.0,30.0,30.0,1.0,0.0
1751,50.0,0.0,30.0,3.0,0.0
1752,66.0,0.0,30.0,5.0,0.0
1753,52.0,0.0,60.0,3.0,0.0
1754,71.0,0.0,30.0,2.0,0.0
1755,86.0,0.0,15.0,6.0,0.0
1756,67.0,0.0,60.0,5.0,0.0
1757,67.0,30.0,60.0,7.0,0.0
1758,76.0,0.0,60.0,0.0,0.0
1759,79.0,30.0,30.0,1.0,0.0
1760,76.0,0.0,60.0,4.0,0.0
1761,76.0,0.0,60.0,6.0,0.0
1762,69.0,0.0,30.0,7.0,0.0
1763,64.0,0.0,60.0,5.0,0.0
1764,78.0,0.0,30.0,0.0,0.0
1765,78.0,30.0,30.0,4.0,0.0
1766,64.0,30.0,60.0,3.0,0.0
1767,79.0,0.0,30.0,0.0,0.0
1768,71.0,0.0,30.0,7.0,0.0
1769,79.0,0.0,30.0,4.0,0.0
1770,64.0,0.0,60.0,7.0,0.0
1771,81.0,30.0,30.0,4.0,0.0
1772,60.0,0.0,60.0,3.0,0.0
1773,81.0,0.0,30.0,0.0,0.0
1774,60.0,0.0,60.0,5.0,0.0
1775,83.0,60.0,30.0,0.0,0.0
1776,83.0,0.0,30.0,4.0,0.0
1777,57.0,30.0,60.0,5.0,0.0
1778,76.0,0.0,60.0,6.0,0.0
1779,57.0,0.0,60.0,3.0,0.0
1780,84.0,0.0,60.0,4.0,0.0
1781,84.0,0.0,60.0,0.0,0.0
1782,84.0,0.0,60.0,4.0,0.0
1783,81.0,30.0,30.0,6.0,0.0
1784,54.0,0.0,60.0,3.0,0.0
1785,54.0,30.0,60.0,5.0,0.0
1786,84.0,0.0,60.0,0.0,0.0
1787,79.0,0.0,30.0,6.0,0.0
1788,66.0,0.0,60.0,5.0,0.0
1789,74.0,0.0,60.0,0.0,0.0
1790,62.0,0.0,30.0,2.0,0.0
1791,72.0,0.0,30.0,1.0,0.0
1792,78.0,0.0,30.0,6.0,0.0
1793,57.0,30.0,30.0,3.0,0.0
1794,74.0,0.0,60.0,4.0,0.0
1795,62.0,0.0,30.0,7.0,0.0
1796,71.0,0.0,30.0,1.0,0.0
1797,64.0,0.0,30.0,7.0,0.0
1798,64.0,0.0,30.0,2.0,0.0
1799,79.0,0.0,30.0,6.0,0.0
1800,55.0,30.0,30.0,3.0,0.0
1801,66.0,0.0,30.0,7.0,0.0
1802,69.0,30.0,30.0,1.0,0.0
1803,81.0,0.0,30.0,6.0,0.0
1804,66.0,0.0,30.0,2.0,0.0
1805,54.0,0.0,30.0,3.0,0.0
1806,64.0,0.0,30.0,5.0,0.0
1807,67.0,0.0,30.0,7.0,0.0
1808,67.0,0.0,30.0,1.0,0.0
1809,52.0,0.0,30.0,3.0,0.0
1810,67.0,0.0,30.0,2.0,0.0
1811,83.0,30.0,30.0,6.0,0.0
1812,69.0,0.0,120.0,2.0,0.0
1813,69.0,0.0,60.0,7.0,0.0
1814,62.0,30.0,30.0,5.0,0.0
1815,66.0,0.0,30.0,1.0,0.0
1816,84.0,0.0,60.0,6.0,0.0
1817,50.0,0.0,30.0,3.0,0.0
1818,48.0,30.0,30.0,3.0,0.0
1819,64.0,0.0,30.0,1.0,0.0
1820,60.0,0.0,30.0,5.0,0.0
1821,62.0,0.0,30.0,1.0,0.0
1822,74.0,30.0,60.0,6.0,0.0
1823,59.0,30.0,30.0,7.0,0.0
1824,59.0,0.0,120.0,5.0,0.0
1825,47.0,0.0,120.0,3.0,0.0
1826,62.0,0.0,30.0,7.0,0.0
1827,67.0,0.0,30.0,2.0,0.0
1828,64.0,0.0,30.0,7.0,0.0
1829,74.0,30.0,30.0,1.0,0.0
1830,79.0,0.0,30.0,6.0,0.0
1831,66.0,30.0,30.0,7.0,0.0
1832,81.0,0.0,30.0,6.0,0.0
1833,71.0,0.0,60.0,4.0,0.0
1834,79.0,0.0,60.0,4.0,0.0
1835,83.0,0.0,30.0,6.0,0.0
1836,71.0,0.0,120.0,0.0,0.0
1837,67.0,30.0,30.0,7.0,0.0
1838,81.0,0.0,30.0,6.0,0.0
1839,66.0,0.0,30.0,7.0,0.0
1840,74.0,30.0,15.0,4.0,0.0
1841,83.0,30.0,30.0,6.0,0.0
1842,67.0,0.0,60.0,7.0,0.0
1843,67.0,30.0,60.0,4.0,0.0
1844,71.0,0.0,60.0,4.0,0.0
1845,81.0,0.0,30.0,6.0,0.0
1846,79.0,30.0,30.0,6.0,0.0
1847,64.0,0.0,30.0,1.0,0.0
1848,69.0,0.0,30.0,2.0,0.0
1849,48.0,0.0,120.0,3.0,0.0
1850,60.0,30.0,120.0,5.0,0.0
1851,60.0,0.0,30.0,7.0,0.0
1852,76.0,30.0,30.0,6.0,0.0
1853,64.0,0.0,30.0,7.0,0.0
1854,64.0,0.0,30.0,2.0,0.0
1855,72.0,0.0,30.0,1.0,0.0
1856,79.0,30.0,30.0,6.0,0.0
1857,66.0,0.0,30.0,7.0,0.0
1858,81.0,0.0,30.0,6.0,0.0
1859,74.0,0.0,60.0,4.0,0.0
1860,79.0,0.0,60.0,4.0,0.0
1861,72.0,0.0,120.0,0.0,0.0
1862,71.0,0.0,60.0,4.0,0.0
1863,83.0,0.0,30.0,6.0,0.0
1864,67.0,30.0,30.0,7.0,0.0
1865,81.0,0.0,30.0,6.0,0.0
1866,66.0,30.0,30.0,7.0,0.0
1867,83.0,30.0,30.0,6.0,0.0
1868,67.0,0.0,60.0,7.0,0.0
1869,67.0,0.0,60.0,4.0,0.0
1870,71.0,0.0,60.0,4.0,0.0
1871,74.0,0.0,60.0,4.0,0.0
1872,81.0,30.0,30.0,6.0,0.0
1873,62.0,0.0,120.0,5.0,0.0
1874,62.0,0.0,30.0,1.0,0.0
1875,71.0,0.0,30.0,2.0,0.0
1876,50.0,0.0,120.0,3.0,0.0
1877,79.0,30.0,30.0,6.0,0.0
1878,74.0,30.0,30.0,6.0,0.0
1879,62.0,0.0,30.0,7.0,0.0
1880,62.0,0.0,30.0,2.0,0.0
1881,64.0,30.0,30.0,7.0,0.0
1882,71.0,0.0,30.0,1.0,0.0
1883,79.0,0.0,30.0,6.0,0.0
1884,81.0,0.0,30.0,6.0,0.0
1885,66.0,30.0,30.0,7.0,0.0
1886,79.0,30.0,60.0,4.0,0.0
1887,74.0,0.0,120.0,0.0,0.0
1888,83.0,0.0,30.0,6.0,0.0
1889,67.0,30.0,30.0,7.0,0.0
1890,66.0,0.0,30.0,7.0,0.0
1891,81.0,0.0,30.0,6.0,0.0
1892,67.0,0.0,60.0,7.0,0.0
1893,83.0,30.0,30.0,6.0,0.0
1894,74.0,0.0,15.0,4.0,0.0
1895,71.0,0.0,15.0,4.0,0.0
1896,67.0,0.0,60.0,4.0,0.0
1897,81.0,30.0,30.0,6.0,0.0
1898,64.0,30.0,30.0,5.0,0.0
1899,52.0,30.0,60.0,3.0,0.0
1900,79.0,0.0,30.0,6.0,0.0
1901,72.0,0.0,30.0,2.0,0.0
1902,60.0,0.0,30.0,1.0,0.0
1903,66.0,0.0,30.0,5.0,0.0
1904,78.0,0.0,30.0,6.0,0.0
1905,67.0,0.0,30.0,1.0,0.0
1906,67.0,0.0,30.0,5.0,0.0
1907,55.0,0.0,30.0,3.0,0.0
1908,60.0,30.0,30.0,7.0,0.0
1909,76.0,0.0,30.0,6.0,0.0
1910,60.0,0.0,30.0,2.0,0.0
1911,74.0,0.0,30.0,6.0,0.0
1912,54.0,30.0,30.0,3.0,0.0
1913,66.0,0.0,30.0,5.0,0.0
1914,62.0,0.0,30.0,7.0,0.0
1915,79.0,30.0,30.0,0.0,0.0
1916,64.0,0.0,30.0,5.0,0.0
1917,64.0,0.0,30.0,7.0,0.0
1918,79.0,0.0,30.0,4.0,0.0
1919,52.0,0.0,60.0,3.0,0.0
1920,66.0,0.0,30.0,5.0,0.0
1921,62.0,0.0,30.0,7.0,0.0
1922,78.0,0.0,30.0,0.0,0.0
1923,78.0,0.0,30.0,4.0,0.0
1924,55.0,0.0,30.0,3.0,0.0
1925,72.0,30.0,15.0,6.0,0.0
1926,67.0,0.0,30.0,5.0,0.0
1927,60.0,30.0,30.0,7.0,0.0
1928,76.0,0.0,30.0,4.0,0.0
1929,76.0,0.0,30.0,0.0,0.0
1930,66.0,0.0,30.0,5.0,0.0
1931,74.0,0.0,30.0,4.0,0.0
1932,54.0,30.0,30.0,3.0,0.0
1933,74.0,0.0,30.0,0.0,0.0
1934,62.0,0.0,30.0,7.0,0.0
1935,67.0,0.0,30.0,1.0,0.0
1936,64.0,0.0,30.0,7.0,0.0
1937,72.0,0.0,150.0,6.0,0.0
1938,64.0,29.0,30.0,5.0,0.0
1939,52.0,1.0,60.0,3.0,0.0
1940,72.0,0.0,60.0,0.0,0.0
1941,67.0,0.0,30.0,2.0,0.0
1942,66.0,0.0,30.0,2.0,0.0
1943,62.0,0.0,30.0,7.0,0.0
1944,66.0,29.0,30.0,5.0,0.0
1945,66.0,0.0,30.0,1.0,0.0
1946,60.0,0.0,30.0,7.0,0.0
1947,64.0,0.0,30.0,1.0,0.0
1948,67.0,29.0,30.0,5.0,0.0
1949,72.0,0.0,15.0,4.0,0.0
1950,64.0,0.0,30.0,2.0,0.0
1951,72.0,0.0,60.0,0.0,0.0
1952,55.0,1.0,30.0,3.0,0.0
1953,62.0,0.0,30.0,2.0,0.0
1954,54.0,1.0,30.0,3.0,0.0
1955,62.0,0.0,30.0,1.0,0.0
1956,66.0,0.0,30.0,5.0,0.0
1957,62.0,30.0,30.0,7.0,0.0
1958,60.0,0.0,60.0,2.0,0.0
1959,60.0,29.0,60.0,1.0,0.0
1960,64.0,29.0,30.0,5.0,0.0
1961,64.0,0.0,60.0,7.0,0.0
1962,52.0,1.0,60.0,3.0,0.0
1963,72.0,0.0,180.0,0.0,0.0
1964,67.0,0.0,30.0,6.0,0.0
1965,67.0,0.0,30.0,5.0,0.0
1966,57.0,1.0,30.0,3.0,0.0
1967,60.0,30.0,60.0,7.0,0.0
1968,66.0,29.0,30.0,5.0,0.0
1969,72.0,0.0,30.0,6.0,0.0
1970,64.0,0.0,30.0,5.0,0.0
1971,76.0,0.0,30.0,6.0,0.0
1972,55.0,1.0,30.0,3.0,0.0
1973,62.0,29.0,30.0,2.0,0.0
1974,81.0,0.0,30.0,6.0,0.0
1975,54.0,1.0,60.0,3.0,0.0
1976,69.0,0.0,30.0,1.0,0.0
1977,62.0,0.0,30.0,5.0,0.0
1978,59.0,0.0,30.0,5.0,0.0
1979,79.0,0.0,30.0,6.0,0.0
1980,62.0,0.0,30.0,7.0,0.0
1981,62.0,0.0,30.0,1.0,0.0
1982,78.0,29.0,30.0,6.0,0.0
1983,72.0,0.0,30.0,0.0,0.0
1984,72.0,29.0,15.0,4.0,0.0
1985,57.0,0.0,30.0,5.0,0.0
1986,57.0,1.0,30.0,3.0,0.0
1987,69.0,0.0,30.0,2.0,0.0
1988,55.0,0.0,30.0,5.0,0.0
1989,71.0,30.0,30.0,0.0,0.0
1990,76.0,0.0,30.0,6.0,0.0
1991,71.0,0.0,30.0,4.0,0.0
1992,55.0,1.0,30.0,3.0,0.0
1993,64.0,0.0,30.0,7.0,0.0
1994,69.0,0.0,30.0,0.0,0.0
1995,54.0,1.0,60.0,3.0,0.0
1996,54.0,0.0,30.0,5.0,0.0
1997,69.0,29.0,30.0,4.0,0.0
1998,74.0,0.0,30.0,6.0,0.0
1999,66.0,0.0,30.0,7.0,0.0
2000,55.0,0.0,30.0,5.0,0.0
2001,64.0,29.0,30.0,7.0,0.0
2002,67.0,0.0,30.0,0.0,0.0
2003,67.0,0.0,30.0,4.0,0.0
2004,72.0,0.0,30.0,6.0,0.0
2005,57.0,1.0,30.0,3.0,0.0
2006,66.0,0.0,30.0,0.0,0.0
2007,66.0,29.0,30.0,4.0,0.0
2008,57.0,0.0,30.0,5.0,0.0
2009,62.0,0.0,30.0,7.0,0.0
2010,71.0,0.0,30.0,6.0,0.0
2011,55.0,1.0,30.0,3.0,0.0
2012,64.0,0.0,30.0,0.0,0.0
2013,64.0,0.0,30.0,7.0,0.0
2014,72.0,0.0,30.0,6.0,0.0
2015,64.0,30.0,30.0,4.0,0.0
2016,55.0,0.0,30.0,5.0,0.0
2017,62.0,0.0,30.0,0.0,0.0
2018,54.0,1.0,60.0,3.0,0.0
2019,66.0,0.0,30.0,7.0,0.0
2020,54.0,0.0,30.0,5.0,0.0
2021,72.0,0.0,150.0,6.0,0.0
2022,62.0,0.0,60.0,4.0,0.0
2023,69.0,29.0,30.0,1.0,0.0
2024,69.0,0.0,30.0,2.0,0.0
2025,64.0,29.0,30.0,7.0,0.0
2026,55.0,0.0,30.0,5.0,0.0
2027,67.0,0.0,30.0,2.0,0.0
2028,67.0,0.0,30.0,1.0,0.0
2029,57.0,1.0,30.0,3.0,0.0
2030,66.0,0.0,30.0,2.0,0.0
2031,57.0,0.0,30.0,5.0,0.0
2032,66.0,29.0,30.0,1.0,0.0
2033,62.0,0.0,30.0,7.0,0.0
2034,62.0,0.0,30.0,0.0,0.0
2035,64.0,0.0,30.0,1.0,0.0
2036,55.0,0.0,30.0,5.0,0.0
2037,64.0,0.0,30.0,7.0,0.0
2038,55.0,1.0,30.0,3.0,0.0
2039,64.0,0.0,30.0,2.0,0.0
2040,54.0,29.0,30.0,5.0,0.0
2041,62.0,0.0,60.0,1.0,0.0
2042,62.0,30.0,15.0,4.0,0.0
2043,54.0,1.0,60.0,3.0,0.0
2044,66.0,0.0,60.0,7.0,0.0
2045,62.0,0.0,30.0,0.0,0.0
2046,62.0,0.0,60.0,2.0,0.0
2047,57.0,0.0,30.0,5.0,0.0
2048,74.0,0.0,30.0,6.0,0.0
2049,50.0,1.0,60.0,3.0,0.0
2050,78.0,29.0,30.0,6.0,0.0
2051,62.0,30.0,60.0,7.0,0.0
2052,54.0,0.0,30.0,5.0,0.0
2053,81.0,0.0,30.0,6.0,0.0
2054,50.0,0.0,30.0,5.0,0.0
2055,55.0,1.0,60.0,3.0,0.0
2056,67.0,29.0,30.0,7.0,0.0
2057,83.0,0.0,30.0,6.0,0.0
2058,55.0,30.0,60.0,5.0,0.0
2059,66.0,0.0,30.0,7.0,0.0
2060,81.0,0.0,30.0,6.0,0.0
2061,52.0,1.0,60.0,3.0,0.0
2062,64.0,29.0,30.0,7.0,0.0
2063,84.0,0.0,30.0,6.0,0.0
2064,62.0,0.0,30.0,7.0,0.0
2065,83.0,30.0,30.0,6.0,0.0
2066,88.0,0.0,30.0,6.0,0.0
2067,60.0,29.0,30.0,7.0,0.0
2068,48.0,1.0,60.0,3.0,0.0
2069,59.0,0.0,30.0,7.0,0.0
2070,86.0,30.0,30.0,6.0,0.0
2071,57.0,0.0,30.0,7.0,0.0
2072,57.0,1.0,60.0,3.0,0.0
2073,84.0,29.0,30.0,6.0,0.0
2074,83.0,30.0,30.0,6.0,0.0
2075,55.0,0.0,30.0,7.0,0.0
2076,54.0,1.0,60.0,3.0,0.0
2077,81.0,0.0,30.0,6.0,0.0
2078,54.0,29.0,30.0,7.0,0.0
2079,79.0,0.0,30.0,6.0,0.0
2080,52.0,30.0,30.0,7.0,0.0
2081,50.0,1.0,60.0,3.0,0.0
2082,78.0,0.0,30.0,6.0,0.0
2083,50.0,29.0,30.0,7.0,0.0
2084,76.0,0.0,30.0,6.0,0.0
2085,48.0,30.0,30.0,7.0,0.0
2086,74.0,29.0,30.0,6.0,0.0
2087,47.0,0.0,30.0,7.0,0.0
2088,59.0,1.0,60.0,3.0,0.0
2089,50.0,0.0,30.0,7.0,0.0
2090,72.0,30.0,30.0,6.0,0.0
2091,55.0,1.0,60.0,3.0,0.0
2092,71.0,0.0,30.0,6.0,0.0
2093,52.0,29.0,30.0,7.0,0.0
2094,69.0,0.0,30.0,6.0,0.0
2095,54.0,30.0,30.0,7.0,0.0
2096,52.0,1.0,60.0,3.0,0.0
2097,55.0,29.0,30.0,7.0,0.0
2098,71.0,0.0,60.0,6.0,0.0
2099,57.0,29.0,30.0,7.0,0.0
2100,79.0,0.0,60.0,6.0,0.0
2101,59.0,29.0,30.0,7.0,0.0
2102,64.0,1.0,30.0,3.0,0.0
2103,62.0,1.0,30.0,3.0,0.0
2104,55.0,29.0,30.0,7.0,0.0
2105,69.0,29.0,60.0,6.0,0.0
2106,60.0,1.0,30.0,3.0,0.0
2107,60.0,29.0,30.0,7.0,0.0
2108,59.0,1.0,30.0,3.0,0.0
2109,62.0,0.0,30.0,7.0,0.0
2110,60.0,29.0,30.0,7.0,0.0
2111,78.0,0.0,60.0,6.0,0.0
2112,57.0,1.0,30.0,3.0,0.0
2113,57.0,29.0,30.0,7.0,0.0
2114,60.0,1.0,30.0,3.0,0.0
2115,79.0,0.0,30.0,6.0,0.0
2116,59.0,1.0,30.0,3.0,0.0
2117,59.0,29.0,30.0,7.0,0.0
2118,62.0,0.0,30.0,7.0,0.0
2119,78.0,29.0,30.0,6.0,0.0
2120,57.0,1.0,30.0,3.0,0.0
2121,55.0,1.0,30.0,3.0,0.0
2122,76.0,29.0,30.0,6.0,0.0
2123,64.0,0.0,30.0,7.0,0.0
2124,54.0,1.0,30.0,3.0,0.0
2125,66.0,29.0,30.0,7.0,0.0
2126,74.0,0.0,30.0,6.0,0.0
2127,52.0,1.0,30.0,3.0,0.0
2128,73.0,0.0,60.0,6.0,0.0
2129,67.0,29.0,30.0,7.0,0.0
2130,50.0,1.0,30.0,3.0,0.0
2131,66.0,29.0,30.0,7.0,0.0
2132,64.0,29.0,30.0,7.0,0.0
2133,67.0,0.0,120.0,7.0,0.0
2134,82.0,0.0,120.0,6.0,0.0
2135,49.0,1.0,30.0,3.0,0.0
2136,61.0,59.0,30.0,7.0,0.0
2137,52.0,1.0,30.0,3.0,0.0
2138,50.0,1.0,60.0,3.0,0.0
2139,62.0,30.0,60.0,7.0,0.0
2140,61.0,1.0,60.0,3.0,0.0
2141,64.0,0.0,60.0,7.0,0.0
2142,81.0,29.0,30.0,6.0,0.0
2143,60.0,0.0,60.0,7.0,0.0
2144,79.0,15.0,30.0,6.0,0.0
2145,62.0,1.0,60.0,3.0,0.0
2146,62.0,0.0,60.0,7.0,0.0
2147,78.0,15.0,15.0,6.0,0.0
2148,79.0,15.0,15.0,6.0,0.0
2149,78.0,14.0,15.0,6.0,0.0
2150,79.0,15.0,15.0,6.0,0.0
2151,60.0,60.0,60.0,7.0,0.0
2152,50.0,0.0,60.0,7.0,0.0
2153,78.0,44.0,15.0,6.0,0.0
2154,50.0,1.0,60.0,3.0,0.0
2155,79.0,0.0,30.0,6.0,0.0
2156,43.0,1.0,120.0,3.0,0.0
2157,59.0,0.0,120.0,7.0,0.0
2158,50.0,60.0,120.0,5.0,0.0
2159,55.0,0.0,120.0,5.0,0.0
2160,62.0,0.0,60.0,4.0,0.0
2161,55.0,0.0,60.0,2.0,0.0
2162,62.0,0.0,60.0,0.0,0.0
2163,79.0,0.0,120.0,6.0,0.0
2164,55.0,0.0,120.0,7.0,0.0
2165,59.0,59.0,60.0,1.0,0.0
2166,43.0,0.0,120.0,5.0,0.0
2167,59.0,0.0,120.0,4.0,0.0
2168,59.0,0.0,60.0,2.0,0.0
2169,67.0,0.0,60.0,0.0,0.0
2170,67.0,0.0,60.0,4.0,0.0
2171,62.0,0.0,60.0,1.0,0.0
2172,62.0,0.0,60.0,5.0,0.0
2173,71.0,60.0,60.0,0.0,0.0
2174,67.0,0.0,60.0,1.0,0.0
2175,62.0,0.0,60.0,2.0,0.0
2176,71.0,0.0,60.0,4.0,0.0
2177,66.0,0.0,60.0,1.0,0.0
2178,60.0,0.0,60.0,5.0,0.0
2179,60.0,0.0,60.0,2.0,0.0
2180,69.0,0.0,60.0,4.0,0.0
2181,69.0,30.0,60.0,0.0,0.0
2182,59.0,0.0,60.0,2.0,0.0
2183,62.0,30.0,60.0,4.0,0.0
2184,62.0,0.0,60.0,0.0,0.0
2185,43.0,1.0,120.0,3.0,0.0
2186,59.0,30.0,30.0,5.0,0.0
2187,55.0,0.0,120.0,5.0,0.0
2188,62.0,0.0,60.0,1.0,0.0
2189,57.0,0.0,30.0,5.0,0.0
2190,67.0,0.0,30.0,0.0,0.0
2191,59.0,29.0,30.0,1.0,0.0
2192,67.0,0.0,30.0,4.0,0.0
2193,62.0,0.0,60.0,2.0,0.0
2194,59.0,0.0,30.0,5.0,0.0
2195,60.0,0.0,30.0,1.0,0.0
2196,69.0,0.0,30.0,0.0,0.0
2197,60.0,30.0,30.0,5.0,0.0
2198,69.0,0.0,30.0,4.0,0.0
2199,62.0,30.0,30.0,1.0,0.0
2200,62.0,0.0,30.0,5.0,0.0
2201,71.0,0.0,30.0,4.0,0.0
2202,71.0,0.0,30.0,0.0,0.0
2203,67.0,0.0,30.0,2.0,0.0
2204,60.0,30.0,30.0,5.0,0.0
2205,60.0,0.0,30.0,1.0,0.0
2206,69.0,0.0,30.0,0.0,0.0
2207,69.0,0.0,30.0,4.0,0.0
2208,66.0,0.0,30.0,2.0,0.0
2209,62.0,30.0,30.0,1.0,0.0
2210,71.0,0.0,30.0,0.0,0.0
2211,67.0,0.0,30.0,2.0,0.0
2212,71.0,0.0,30.0,4.0,0.0
2213,62.0,0.0,30.0,5.0,0.0
2214,69.0,0.0,30.0,0.0,0.0
2215,69.0,59.0,30.0,4.0,0.0
2216,60.0,0.0,30.0,1.0,0.0
2217,60.0,0.0,30.0,5.0,0.0
2218,66.0,0.0,30.0,2.0,0.0
2219,67.0,0.0,60.0,2.0,0.0
2220,59.0,0.0,60.0,1.0,0.0
2221,67.0,0.0,60.0,0.0,0.0
2222,43.0,0.0,60.0,5.0,0.0
2223,43.0,1.0,60.0,3.0,0.0
2224,59.0,30.0,60.0,4.0,0.0
2225,50.0,0.0,60.0,5.0,0.0
2226,67.0,0.0,60.0,4.0,0.0
2227,55.0,0.0,15.0,5.0,0.0
2228,60.0,0.0,30.0,1.0,0.0
2229,69.0,0.0,30.0,0.0,0.0
2230,69.0,29.0,30.0,4.0,0.0
2231,64.0,0.0,60.0,2.0,0.0
2232,55.0,1.0,60.0,3.0,0.0
2233,71.0,0.0,30.0,0.0,0.0
2234,62.0,0.0,30.0,1.0,0.0
2235,71.0,0.0,30.0,4.0,0.0
2236,72.0,0.0,30.0,0.0,0.0
2237,72.0,29.0,30.0,4.0,0.0
2238,52.0,1.0,60.0,3.0,0.0
2239,52.0,59.0,60.0,5.0,0.0
2240,64.0,0.0,30.0,1.0,0.0
2241,55.0,0.0,60.0,2.0,0.0
2242,66.0,0.0,30.0,1.0,0.0
2243,74.0,0.0,30.0,4.0,0.0
2244,74.0,0.0,30.0,0.0,0.0
2245,76.0,0.0,60.0,4.0,0.0
2246,60.0,0.0,60.0,2.0,0.0
2247,76.0,59.0,60.0,0.0,0.0
2248,48.0,1.0,60.0,3.0,0.0
2249,48.0,0.0,60.0,5.0,0.0
2250,67.0,0.0,60.0,1.0,0.0
2251,76.0,0.0,60.0,4.0,0.0
2252,54.0,29.0,60.0,5.0,0.0
2253,60.0,0.0,60.0,2.0,0.0
2254,69.0,0.0,60.0,1.0,0.0
2255,42.0,1.0,60.0,3.0,0.0
2256,76.0,0.0,60.0,0.0,0.0
2257,69.0,29.0,60.0,4.0,0.0
2258,69.0,0.0,60.0,0.0,0.0
2259,54.0,30.0,30.0,3.0,0.0
2260,42.0,0.0,60.0,5.0,0.0
2261,72.0,0.0,60.0,1.0,0.0
2262,62.0,0.0,60.0,2.0,0.0
2263,55.0,1.0,30.0,3.0,0.0
2264,76.0,0.0,60.0,6.0,0.0
2265,54.0,59.0,60.0,7.0,0.0
2266,57.0,30.0,30.0,3.0,0.0
2267,59.0,1.0,30.0,3.0,0.0
2268,69.0,60.0,60.0,6.0,0.0
2269,42.0,0.0,60.0,7.0,0.0
2270,60.0,1.0,60.0,3.0,0.0
2271,50.0,60.0,120.0,5.0,0.0
2272,54.0,0.0,120.0,5.0,0.0
2273,57.0,0.0,120.0,5.0,0.0
2274,60.0,0.0,60.0,4.0,0.0
2275,69.0,59.0,60.0,2.0,0.0
2276,66.0,0.0,60.0,1.0,0.0
2277,60.0,0.0,60.0,0.0,0.0
2278,50.0,1.0,120.0,3.0,0.0
2279,66.0,0.0,60.0,4.0,0.0
2280,62.0,0.0,60.0,1.0,0.0
2281,66.0,0.0,60.0,0.0,0.0
2282,57.0,0.0,60.0,2.0,0.0
2283,69.0,0.0,60.0,4.0,0.0
2284,69.0,0.0,60.0,0.0,0.0
2285,60.0,0.0,60.0,5.0,0.0
2286,60.0,60.0,60.0,2.0,0.0
2287,66.0,0.0,60.0,1.0,0.0
2288,62.0,0.0,60.0,1.0,0.0
2289,59.0,0.0,60.0,5.0,0.0
2290,59.0,0.0,60.0,2.0,0.0
2291,67.0,30.0,60.0,4.0,0.0
2292,67.0,0.0,60.0,0.0,0.0
2293,60.0,0.0,60.0,4.0,0.0
2294,50.0,1.0,120.0,3.0,0.0
2295,66.0,0.0,60.0,1.0,0.0
2296,54.0,0.0,120.0,5.0,0.0
2297,60.0,30.0,60.0,0.0,0.0
2298,50.0,0.0,120.0,5.0,0.0
2299,69.0,0.0,60.0,2.0,0.0
2300,57.0,30.0,30.0,5.0,0.0
2301,55.0,0.0,30.0,5.0,0.0
2302,66.0,0.0,30.0,4.0,0.0
2303,57.0,0.0,30.0,5.0,0.0
2304,66.0,0.0,30.0,0.0,0.0
2305,57.0,29.0,30.0,2.0,0.0
2306,62.0,0.0,30.0,1.0,0.0
2307,59.0,0.0,30.0,5.0,0.0
2308,67.0,0.0,30.0,0.0,0.0
2309,67.0,30.0,30.0,4.0,0.0
2310,64.0,0.0,30.0,1.0,0.0
2311,59.0,0.0,30.0,2.0,0.0
2312,60.0,0.0,30.0,5.0,0.0
2313,66.0,30.0,30.0,1.0,0.0
2314,60.0,0.0,30.0,2.0,0.0
2315,69.0,0.0,30.0,4.0,0.0
2316,69.0,0.0,30.0,0.0,0.0
2317,59.0,0.0,30.0,2.0,0.0
2318,67.0,0.0,30.0,0.0,0.0
2319,67.0,0.0,30.0,4.0,0.0
2320,64.0,30.0,30.0,1.0,0.0
2321,59.0,0.0,30.0,5.0,0.0
2322,60.0,0.0,30.0,5.0,0.0
2323,69.0,0.0,30.0,4.0,0.0
2324,60.0,0.0,30.0,2.0,0.0
2325,66.0,0.0,30.0,1.0,0.0
2326,69.0,30.0,30.0,0.0,0.0
2327,59.0,0.0,30.0,5.0,0.0
2328,67.0,59.0,30.0,4.0,0.0
2329,64.0,0.0,30.0,1.0,0.0
2330,67.0,0.0,30.0,0.0,0.0
2331,59.0,0.0,30.0,2.0,0.0
2332,66.0,0.0,60.0,0.0,0.0
2333,62.0,0.0,60.0,1.0,0.0
2334,57.0,30.0,60.0,2.0,0.0
2335,66.0,0.0,60.0,4.0,0.0
2336,60.0,0.0,60.0,4.0,0.0
2337,57.0,0.0,60.0,5.0,0.0
2338,50.0,0.0,60.0,5.0,0.0
2339,50.0,1.0,60.0,3.0,0.0
2340,64.0,0.0,60.0,5.0,0.0
2341,67.0,29.0,30.0,0.0,0.0
2342,52.0,1.0,60.0,3.0,0.0
2343,72.0,30.0,60.0,1.0,0.0
2344,67.0,0.0,30.0,4.0,0.0
2345,67.0,0.0,60.0,2.0,0.0
2346,69.0,0.0,30.0,4.0,0.0
2347,69.0,0.0,30.0,0.0,0.0
2348,62.0,0.0,60.0,5.0,0.0
2349,50.0,1.0,60.0,3.0,0.0
2350,71.0,0.0,60.0,1.0,0.0
2351,71.0,0.0,30.0,4.0,0.0
2352,71.0,29.0,30.0,0.0,0.0
2353,67.0,0.0,60.0,2.0,0.0
2354,72.0,59.0,30.0,4.0,0.0
2355,72.0,0.0,30.0,0.0,0.0
2356,60.0,0.0,60.0,5.0,0.0
2357,48.0,1.0,60.0,3.0,0.0
2358,66.0,59.0,60.0,2.0,0.0
2359,69.0,0.0,60.0,1.0,0.0
2360,74.0,0.0,15.0,0.0,0.0
2361,74.0,0.0,15.0,4.0,0.0
2362,67.0,0.0,60.0,1.0,0.0
2363,59.0,0.0,60.0,5.0,0.0
2364,47.0,1.0,60.0,3.0,0.0
2365,67.0,0.0,60.0,2.0,0.0
2366,59.0,0.0,60.0,2.0,0.0
2367,67.0,0.0,60.0,4.0,0.0
2368,62.0,0.0,60.0,1.0,0.0
2369,67.0,0.0,60.0,0.0,0.0
2370,47.0,29.0,60.0,5.0,0.0
2371,59.0,30.0,30.0,3.0,0.0
2372,60.0,1.0,30.0,3.0,0.0
2373,74.0,0.0,60.0,6.0,0.0
2374,59.0,59.0,60.0,7.0,0.0
2375,62.0,30.0,30.0,3.0,0.0
2376,64.0,1.0,30.0,3.0,0.0
2377,65.0,1.0,60.0,3.0,0.0
2378,67.0,0.0,60.0,6.0,0.0
2379,47.0,30.0,60.0,7.0,0.0
2380,52.0,1.0,120.0,3.0,0.0
2381,79.0,30.0,30.0,4.0,0.0
2382,52.0,30.0,60.0,5.0,0.0
2383,76.0,0.0,30.0,4.0,0.0
2384,72.0,29.0,30.0,4.0,0.0
2385,64.0,0.0,60.0,5.0,0.0
2386,67.0,30.0,30.0,4.0,0.0
2387,79.0,30.0,60.0,6.0,0.0
2388,64.0,0.0,60.0,7.0,0.0
2389,64.0,0.0,120.0,1.0,0.0
2390,64.0,30.0,120.0,0.0,0.0
2391,72.0,30.0,30.0,4.0,0.0
2392,64.0,0.0,120.0,2.0,0.0
2393,76.0,0.0,30.0,4.0,0.0
2394,79.0,30.0,30.0,4.0,0.0
2395,76.0,0.0,60.0,6.0,0.0
2396,60.0,0.0,60.0,7.0,0.0
2397,78.0,0.0,30.0,4.0,0.0
2398,50.0,0.0,60.0,5.0,0.0
2399,79.0,30.0,30.0,4.0,0.0
2400,50.0,1.0,120.0,3.0,0.0
2401,74.0,30.0,30.0,4.0,0.0
2402,62.0,30.0,60.0,5.0,0.0
2403,71.0,29.0,30.0,4.0,0.0
2404,67.0,0.0,30.0,4.0,0.0
2405,62.0,0.0,120.0,2.0,0.0
2406,71.0,30.0,30.0,4.0,0.0
2407,62.0,0.0,120.0,1.0,0.0
2408,59.0,0.0,60.0,7.0,0.0
2409,62.0,0.0,120.0,0.0,0.0
2410,79.0,0.0,60.0,6.0,0.0
2411,74.0,30.0,30.0,4.0,0.0
2412,55.0,30.0,60.0,7.0,0.0
2413,74.0,0.0,60.0,6.0,0.0
2414,79.0,30.0,30.0,4.0,0.0
2415,78.0,0.0,30.0,4.0,0.0
2416,49.0,30.0,60.0,5.0,0.0
2417,49.0,1.0,60.0,3.0,0.0
2418,79.0,29.0,30.0,4.0,0.0
2419,76.0,0.0,30.0,4.0,0.0
2420,76.0,0.0,30.0,0.0,0.0
2421,73.0,0.0,60.0,1.0,0.0
2422,73.0,29.0,30.0,4.0,0.0
2423,67.0,0.0,30.0,2.0,0.0
2424,52.0,1.0,60.0,3.0,0.0
2425,52.0,30.0,60.0,5.0,0.0
2426,69.0,0.0,30.0,4.0,0.0
2427,76.0,0.0,60.0,1.0,0.0
2428,73.0,0.0,30.0,0.0,0.0
2429,57.0,1.0,60.0,3.0,0.0
2430,57.0,30.0,60.0,5.0,0.0
2431,64.0,0.0,60.0,7.0,0.0
2432,79.0,0.0,60.0,6.0,0.0
2433,73.0,0.0,30.0,4.0,0.0
2434,64.0,29.0,30.0,2.0,0.0
2435,76.0,0.0,30.0,4.0,0.0
2436,45.0,1.0,60.0,3.0,0.0
2437,79.0,0.0,30.0,4.0,0.0
2438,73.0,0.0,60.0,1.0,0.0
2439,76.0,0.0,30.0,0.0,0.0
2440,73.0,0.0,60.0,6.0,0.0
2441,57.0,0.0,60.0,7.0,0.0
2442,45.0,0.0,60.0,5.0,0.0
2443,69.0,29.0,30.0,2.0,0.0
2444,76.0,30.0,30.0,4.0,0.0
2445,50.0,0.0,60.0,5.0,0.0
2446,74.0,30.0,120.0,1.0,0.0
2447,50.0,1.0,120.0,3.0,0.0
2448,69.0,0.0,120.0,2.0,0.0
2449,78.0,0.0,120.0,0.0,0.0
2450,78.0,30.0,30.0,4.0,0.0
2451,74.0,30.0,30.0,4.0,0.0
2452,62.0,0.0,60.0,5.0,0.0
2453,69.0,29.0,30.0,4.0,0.0
2454,66.0,0.0,30.0,4.0,0.0
2455,62.0,0.0,60.0,7.0,0.0
2456,62.0,0.0,120.0,0.0,0.0
2457,69.0,30.0,30.0,4.0,0.0
2458,62.0,0.0,120.0,1.0,0.0
2459,62.0,30.0,120.0,2.0,0.0
2460,78.0,30.0,60.0,6.0,0.0
2461,74.0,0.0,30.0,4.0,0.0
2462,74.0,0.0,60.0,6.0,0.0
2463,78.0,30.0,30.0,4.0,0.0
2464,50.0,0.0,60.0,7.0,0.0
2465,74.0,0.0,30.0,4.0,0.0
2466,49.0,30.0,60.0,5.0,0.0
2467,76.0,30.0,30.0,4.0,0.0
2468,49.0,1.0,120.0,3.0,0.0
2469,73.0,0.0,30.0,4.0,0.0
2470,70.0,29.0,30.0,4.0,0.0
2471,61.0,30.0,60.0,5.0,0.0
2472,64.0,0.0,30.0,4.0,0.0
2473,61.0,0.0,120.0,0.0,0.0
2474,76.0,0.0,60.0,6.0,0.0
2475,61.0,0.0,120.0,1.0,0.0
2476,61.0,30.0,60.0,7.0,0.0
2477,61.0,0.0,120.0,2.0,0.0
2478,70.0,30.0,30.0,4.0,0.0
2479,73.0,0.0,30.0,4.0,0.0
2480,73.0,30.0,60.0,6.0,0.0
2481,58.0,0.0,60.0,7.0,0.0
2482,76.0,30.0,30.0,4.0,0.0
2483,74.0,0.0,30.0,4.0,0.0
2484,47.0,1.0,120.0,3.0,0.0
2485,76.0,30.0,30.0,4.0,0.0
2486,47.0,0.0,60.0,5.0,0.0
2487,71.0,30.0,30.0,4.0,0.0
2488,59.0,30.0,60.0,5.0,0.0
2489,67.0,29.0,30.0,4.0,0.0
2490,64.0,0.0,30.0,4.0,0.0
2491,59.0,0.0,120.0,0.0,0.0
2492,76.0,0.0,60.0,6.0,0.0
2493,55.0,0.0,60.0,7.0,0.0
2494,59.0,0.0,120.0,1.0,0.0
2495,59.0,0.0,120.0,2.0,0.0
2496,67.0,30.0,30.0,4.0,0.0
2497,71.0,30.0,30.0,4.0,0.0
2498,71.0,30.0,60.0,6.0,0.0
2499,76.0,30.0,30.0,4.0,0.0
2500,52.0,0.0,60.0,7.0,0.0
2501,74.0,0.0,30.0,4.0,0.0
2502,76.0,29.0,30.0,4.0,0.0
2503,46.0,1.0,60.0,3.0,0.0
2504,46.0,0.0,60.0,5.0,0.0
2505,73.0,30.0,30.0,4.0,0.0
2506,73.0,0.0,30.0,0.0,0.0
2507,76.0,0.0,30.0,1.0,0.0
2508,61.0,29.0,30.0,2.0,0.0
2509,49.0,30.0,60.0,5.0,0.0
2510,70.0,0.0,30.0,4.0,0.0
2511,49.0,1.0,60.0,3.0,0.0
2512,66.0,0.0,30.0,4.0,0.0
2513,70.0,0.0,30.0,4.0,0.0
2514,73.0,29.0,30.0,1.0,0.0
2515,54.0,1.0,60.0,3.0,0.0
2516,61.0,0.0,30.0,2.0,0.0
2517,70.0,0.0,30.0,0.0,0.0
2518,54.0,0.0,60.0,5.0,0.0
2519,61.0,30.0,60.0,7.0,0.0
2520,76.0,0.0,60.0,6.0,0.0
2521,73.0,0.0,30.0,4.0,0.0
2522,70.0,29.0,30.0,1.0,0.0
2523,54.0,30.0,60.0,7.0,0.0
2524,76.0,0.0,30.0,4.0,0.0
2525,42.0,0.0,60.0,5.0,0.0
2526,73.0,0.0,30.0,0.0,0.0
2527,66.0,0.0,30.0,2.0,0.0
2528,42.0,1.0,60.0,3.0,0.0
2529,70.0,0.0,60.0,6.0,0.0
2530,73.0,0.0,30.0,4.0,0.0
2531,66.0,0.0,120.0,2.0,0.0
2532,74.0,29.0,30.0,4.0,0.0
2533,47.0,30.0,60.0,5.0,0.0
2534,71.0,0.0,120.0,1.0,0.0
2535,47.0,1.0,60.0,3.0,0.0
2536,74.0,0.0,120.0,0.0,0.0
2537,71.0,0.0,30.0,4.0,0.0
2538,66.0,29.0,30.0,4.0,0.0
2539,50.0,1.0,60.0,3.0,0.0
2540,59.0,30.0,60.0,5.0,0.0
2541,71.0,0.0,30.0,4.0,0.0
2542,74.0,29.0,30.0,4.0,0.0
2543,71.0,0.0,60.0,6.0,0.0
2544,55.0,1.0,60.0,3.0,0.0
2545,55.0,0.0,60.0,7.0,0.0
2546,78.0,30.0,30.0,4.0,0.0
2547,43.0,0.0,60.0,7.0,0.0
2548,43.0,1.0,60.0,3.0,0.0
2549,79.0,29.0,30.0,4.0,0.0
2550,64.0,29.0,60.0,6.0,0.0
2551,78.0,0.0,30.0,4.0,0.0
2552,49.0,0.0,60.0,3.0,0.0
2553,49.0,29.0,60.0,5.0,0.0
2554,76.0,30.0,30.0,4.0,0.0
2555,73.0,1.0,30.0,4.0,0.0
2556,69.0,30.0,30.0,4.0,0.0
2557,61.0,29.0,60.0,5.0,0.0
2558,52.0,0.0,60.0,3.0,0.0
2559,73.0,1.0,30.0,4.0,0.0
2560,76.0,30.0,30.0,4.0,0.0
2561,57.0,29.0,60.0,7.0,0.0
2562,73.0,0.0,60.0,6.0,0.0
2563,57.0,0.0,60.0,3.0,0.0
2564,79.0,1.0,30.0,4.0,0.0
2565,45.0,0.0,60.0,3.0,0.0
2566,81.0,30.0,30.0,4.0,0.0
2567,64.0,29.0,60.0,6.0,0.0
2568,45.0,0.0,60.0,7.0,0.0
2569,79.0,1.0,30.0,4.0,0.0
2570,50.0,29.0,60.0,5.0,0.0
2571,50.0,1.0,60.0,3.0,0.0
2572,78.0,30.0,30.0,4.0,0.0
2573,74.0,0.0,30.0,4.0,0.0
2574,71.0,30.0,30.0,4.0,0.0
2575,54.0,0.0,60.0,3.0,0.0
2576,62.0,29.0,60.0,5.0,0.0
2577,74.0,1.0,30.0,4.0,0.0
2578,78.0,30.0,30.0,4.0,0.0
2579,59.0,0.0,60.0,7.0,0.0
2580,74.0,29.0,60.0,6.0,0.0
2581,59.0,0.0,60.0,3.0,0.0
2582,81.0,1.0,30.0,4.0,0.0
2583,47.0,1.0,60.0,3.0,0.0
2584,47.0,29.0,60.0,7.0,0.0
2585,67.0,0.0,60.0,6.0,0.0
2586,83.0,30.0,30.0,4.0,0.0
2587,81.0,0.0,30.0,4.0,0.0
2588,79.0,30.0,30.0,4.0,0.0
2589,52.0,1.0,60.0,3.0,0.0
2590,52.0,29.0,60.0,5.0,0.0
2591,76.0,0.0,30.0,4.0,0.0
2592,55.0,1.0,60.0,3.0,0.0
2593,64.0,29.0,60.0,5.0,0.0
2594,71.0,30.0,30.0,4.0,0.0
2595,76.0,0.0,30.0,4.0,0.0
2596,61.0,0.0,60.0,3.0,0.0
2597,79.0,30.0,30.0,4.0,0.0
2598,76.0,0.0,60.0,6.0,0.0
2599,61.0,29.0,60.0,7.0,0.0
2600,83.0,1.0,30.0,4.0,0.0
2601,67.0,0.0,60.0,6.0,0.0
2602,64.0,1.0,60.0,3.0,0.0
2603,85.0,30.0,30.0,4.0,0.0
2604,49.0,29.0,60.0,7.0,0.0
2605,83.0,0.0,30.0,4.0,0.0
2606,54.0,0.0,60.0,3.0,0.0
2607,54.0,29.0,60.0,5.0,0.0
2608,82.0,30.0,30.0,4.0,0.0
2609,76.0,1.0,30.0,4.0,0.0
2610,73.0,1.0,30.0,4.0,0.0
2611,55.0,0.0,60.0,3.0,0.0
2612,58.0,29.0,30.0,5.0,0.0
2613,61.0,29.0,30.0,5.0,0.0
2614,76.0,1.0,30.0,4.0,0.0
2615,82.0,1.0,30.0,4.0,0.0
2616,76.0,0.0,60.0,6.0,0.0
2617,54.0,0.0,60.0,3.0,0.0
2618,66.0,29.0,60.0,5.0,0.0
2619,54.0,29.0,30.0,7.0,0.0
2620,85.0,1.0,30.0,4.0,0.0
2621,55.0,0.0,30.0,7.0,0.0
2622,54.0,29.0,30.0,7.0,0.0
2623,86.0,1.0,30.0,4.0,0.0
2624,70.0,29.0,60.0,6.0,0.0
2625,52.0,0.0,60.0,3.0,0.0
2626,52.0,0.0,30.0,7.0,0.0
2627,85.0,1.0,30.0,4.0,0.0
2628,66.0,0.0,540.0,2.0,0.0
2629,66.0,0.0,60.0,0.0,0.0
2630,59.0,0.0,60.0,7.0,0.0
2631,54.0,0.0,60.0,7.0,0.0
2632,50.0,0.0,60.0,7.0,0.0
2633,66.0,29.0,60.0,6.0,0.0
2634,50.0,30.0,30.0,3.0,0.0
2635,83.0,0.0,30.0,4.0,0.0
2636,78.0,1.0,30.0,4.0,0.0
2637,74.0,0.0,30.0,4.0,0.0
2638,71.0,0.0,60.0,0.0,0.0
2639,47.0,30.0,30.0,3.0,0.0
2640,47.0,29.0,60.0,7.0,0.0
2641,76.0,1.0,30.0,4.0,0.0
2642,71.0,29.0,30.0,1.0,0.0
2643,78.0,1.0,30.0,4.0,0.0
2644,74.0,29.0,60.0,0.0,0.0
2645,74.0,0.0,60.0,6.0,0.0
2646,71.0,0.0,15.0,6.0,0.0
2647,59.0,0.0,60.0,5.0,0.0
2648,62.0,0.0,60.0,5.0,0.0
2649,83.0,1.0,30.0,4.0,0.0
2650,64.0,29.0,60.0,5.0,0.0
2651,76.0,1.0,30.0,4.0,0.0
2652,61.0,0.0,60.0,5.0,0.0
2653,70.0,0.0,60.0,6.0,0.0
2654,73.0,0.0,60.0,0.0,0.0
2655,73.0,0.0,60.0,6.0,0.0
2656,66.0,29.0,30.0,1.0,0.0
2657,83.0,1.0,30.0,4.0,0.0
2658,74.0,30.0,30.0,4.0,0.0
2659,59.0,0.0,30.0,3.0,0.0
2660,66.0,29.0,60.0,6.0,0.0
2661,59.0,0.0,60.0,7.0,0.0
2662,66.0,0.0,60.0,0.0,0.0
2663,62.0,0.0,120.0,7.0,0.0
2664,71.0,1.0,30.0,4.0,0.0
2665,71.0,0.0,30.0,0.0,0.0
2666,50.0,0.0,60.0,7.0,0.0
2667,66.0,0.0,30.0,4.0,0.0
2668,71.0,29.0,30.0,6.0,0.0
2669,50.0,1.0,30.0,3.0,0.0
2670,70.0,1.0,30.0,4.0,0.0
2671,73.0,29.0,30.0,6.0,0.0
2672,73.0,0.0,30.0,0.0,0.0
2673,62.0,29.0,60.0,5.0,0.0
2674,78.0,0.0,30.0,1.0,0.0
2675,71.0,1.0,30.0,4.0,0.0
2676,74.0,0.0,30.0,0.0,0.0
2677,71.0,29.0,30.0,6.0,0.0
2678,74.0,0.0,30.0,6.0,0.0
2679,73.0,0.0,30.0,6.0,0.0
2680,70.0,0.0,30.0,6.0,0.0
2681,66.0,1.0,30.0,4.0,0.0
2682,73.0,0.0,30.0,0.0,0.0
2683,74.0,0.0,30.0,1.0,0.0
2684,74.0,0.0,30.0,0.0,0.0
2685,74.0,0.0,30.0,6.0,0.0
2686,71.0,29.0,30.0,6.0,0.0
2687,59.0,0.0,60.0,5.0,0.0
2688,71.0,1.0,30.0,4.0,0.0
2689,66.0,1.0,30.0,4.0,0.0
2690,73.0,0.0,30.0,6.0,0.0
2691,73.0,0.0,30.0,0.0,0.0
2692,70.0,59.0,30.0,6.0,0.0
2693,62.0,0.0,60.0,4.0,0.0
2694,62.0,1.0,60.0,3.0,0.0
2695,71.0,0.0,60.0,1.0,0.0
2696,71.0,0.0,60.0,0.0,0.0
2697,62.0,30.0,60.0,7.0,0.0
2698,71.0,0.0,60.0,6.0,0.0
2699,73.0,0.0,30.0,0.0,0.0
2700,66.0,0.0,60.0,4.0,0.0
2701,59.0,0.0,60.0,7.0,0.0
2702,59.0,0.0,60.0,5.0,0.0
2703,59.0,1.0,60.0,3.0,0.0
2704,73.0,0.0,30.0,6.0,0.0
2705,73.0,29.0,30.0,1.0,0.0
2706,62.0,0.0,60.0,2.0,0.0
2707,74.0,0.0,30.0,0.0,0.0
2708,74.0,0.0,30.0,1.0,0.0
2709,74.0,30.0,30.0,6.0,0.0
2710,59.0,0.0,60.0,2.0,0.0
2711,55.0,0.0,60.0,5.0,0.0
2712,55.0,0.0,60.0,7.0,0.0
2713,76.0,29.0,30.0,6.0,0.0
2714,76.0,0.0,30.0,1.0,0.0
2715,55.0,1.0,60.0,3.0,0.0
2716,76.0,0.0,30.0,0.0,0.0
2717,71.0,0.0,60.0,4.0,0.0
2718,78.0,59.0,30.0,0.0,0.0
2719,78.0,0.0,30.0,6.0,0.0
2720,78.0,0.0,30.0,1.0,0.0
2721,79.0,0.0,60.0,1.0,0.0
2722,52.0,1.0,60.0,3.0,0.0
2723,76.0,0.0,90.0,4.0,0.0
2724,52.0,0.0,60.0,7.0,0.0
2725,71.0,0.0,60.0,2.0,0.0
2726,52.0,0.0,60.0,5.0,0.0
2727,45.0,0.0,60.0,7.0,0.0
2728,79.0,29.0,15.0,0.0,0.0
2729,79.0,0.0,60.0,1.0,0.0
2730,57.0,0.0,60.0,5.0,0.0
2731,79.0,0.0,15.0,6.0,0.0
2732,73.0,0.0,60.0,2.0,0.0
2733,45.0,30.0,30.0,3.0,0.0
2734,73.0,1.0,30.0,4.0,0.0
2735,76.0,29.0,60.0,2.0,0.0
2736,57.0,0.0,60.0,7.0,0.0
2737,73.0,0.0,60.0,1.0,0.0
2738,73.0,0.0,60.0,6.0,0.0
2739,57.0,0.0,30.0,3.0,0.0
2740,69.0,0.0,30.0,4.0,0.0
2741,61.0,30.0,30.0,5.0,0.0
2742,73.0,0.0,60.0,0.0,0.0
2743,73.0,0.0,30.0,4.0,0.0
2744,64.0,1.0,30.0,5.0,0.0
2745,69.0,0.0,60.0,5.0,0.0
2746,76.0,30.0,30.0,4.0,0.0
2747,73.0,29.0,60.0,2.0,0.0
2748,81.0,1.0,30.0,4.0,0.0
2749,83.0,30.0,30.0,4.0,0.0
2750,69.0,29.0,60.0,2.0,0.0
2751,81.0,1.0,30.0,4.0,0.0
2752,57.0,0.0,60.0,7.0,0.0
2753,64.0,0.0,540.0,2.0,0.0
2754,79.0,0.0,30.0,4.0,0.0
2755,49.0,0.0,60.0,7.0,0.0
2756,64.0,0.0,60.0,6.0,0.0
2757,64.0,29.0,60.0,0.0,0.0
2758,52.0,0.0,60.0,7.0,0.0
2759,49.0,30.0,30.0,3.0,0.0
2760,76.0,1.0,30.0,4.0,0.0
2761,69.0,29.0,60.0,6.0,0.0
2762,73.0,30.0,30.0,4.0,0.0
2763,45.0,0.0,60.0,7.0,0.0
2764,69.0,0.0,60.0,0.0,0.0
2765,45.0,0.0,30.0,3.0,0.0
2766,74.0,1.0,30.0,4.0,0.0
2767,69.0,29.0,30.0,1.0,0.0
2768,76.0,1.0,30.0,4.0,0.0
2769,73.0,29.0,60.0,6.0,0.0
2770,61.0,0.0,60.0,5.0,0.0
2771,57.0,0.0,60.0,5.0,0.0
2772,69.0,0.0,60.0,6.0,0.0
2773,73.0,0.0,60.0,0.0,0.0
2774,79.0,1.0,30.0,4.0,0.0
2775,62.0,0.0,60.0,5.0,0.0
2776,59.0,29.0,60.0,5.0,0.0
2777,64.0,29.0,30.0,1.0,0.0
2778,71.0,0.0,60.0,6.0,0.0
2779,71.0,0.0,60.0,0.0,0.0
2780,74.0,1.0,30.0,4.0,0.0
2781,79.0,1.0,30.0,4.0,0.0
2782,64.0,0.0,15.0,6.0,0.0
2783,57.0,30.0,30.0,3.0,0.0
2784,61.0,0.0,120.0,7.0,0.0
2785,57.0,0.0,60.0,7.0,0.0
2786,64.0,0.0,60.0,0.0,0.0
2787,73.0,0.0,30.0,4.0,0.0
2788,69.0,1.0,30.0,4.0,0.0
2789,69.0,0.0,30.0,0.0,0.0
2790,69.0,29.0,30.0,6.0,0.0
2791,49.0,0.0,30.0,3.0,0.0
2792,49.0,0.0,60.0,7.0,0.0
2793,64.0,1.0,30.0,4.0,0.0
2794,68.0,1.0,30.0,4.0,0.0
2795,71.0,29.0,30.0,0.0,0.0
2796,71.0,0.0,30.0,6.0,0.0
2797,69.0,1.0,30.0,4.0,0.0
2798,73.0,29.0,30.0,0.0,0.0
2799,69.0,0.0,30.0,6.0,0.0
2800,73.0,0.0,30.0,6.0,0.0
2801,76.0,0.0,30.0,1.0,0.0
2802,61.0,29.0,60.0,5.0,0.0
2803,71.0,0.0,30.0,6.0,0.0
2804,68.0,0.0,30.0,6.0,0.0
2805,64.0,1.0,30.0,4.0,0.0
2806,71.0,0.0,30.0,0.0,0.0
2807,73.0,0.0,30.0,0.0,0.0
2808,69.0,0.0,30.0,6.0,0.0
2809,73.0,0.0,30.0,1.0,0.0
2810,69.0,1.0,30.0,4.0,0.0
2811,73.0,29.0,30.0,6.0,0.0
2812,57.0,0.0,60.0,5.0,0.0
2813,71.0,0.0,30.0,0.0,0.0
2814,71.0,59.0,30.0,6.0,0.0
2815,68.0,0.0,30.0,6.0,0.0
2816,64.0,1.0,30.0,4.0,0.0
2817,69.0,30.0,60.0,0.0,0.0
2818,69.0,0.0,60.0,1.0,0.0
2819,61.0,0.0,60.0,3.0,0.0
2820,61.0,0.0,60.0,7.0,0.0
2821,69.0,0.0,60.0,6.0,0.0
2822,61.0,1.0,60.0,4.0,0.0
2823,71.0,0.0,30.0,0.0,0.0
2824,61.0,0.0,60.0,2.0,0.0
2825,71.0,0.0,30.0,1.0,0.0
2826,64.0,1.0,60.0,4.0,0.0
2827,57.0,0.0,60.0,7.0,0.0
2828,57.0,0.0,60.0,3.0,0.0
2829,71.0,29.0,30.0,6.0,0.0
2830,57.0,0.0,60.0,5.0,0.0
2831,73.0,0.0,30.0,1.0,0.0
2832,73.0,0.0,30.0,0.0,0.0
2833,73.0,30.0,30.0,6.0,0.0
2834,57.0,0.0,60.0,2.0,0.0
2835,74.0,0.0,30.0,1.0,0.0
2836,54.0,59.0,60.0,7.0,0.0
2837,74.0,0.0,30.0,6.0,0.0
2838,54.0,0.0,60.0,5.0,0.0
2839,74.0,29.0,30.0,0.0,0.0
2840,54.0,1.0,60.0,3.0,0.0
2841,69.0,0.0,60.0,4.0,0.0
2842,76.0,0.0,30.0,6.0,0.0
2843,76.0,0.0,30.0,0.0,0.0
2844,76.0,0.0,30.0,1.0,0.0
2845,78.0,0.0,60.0,6.0,0.0
2846,69.0,29.0,60.0,2.0,0.0
2847,50.0,0.0,60.0,5.0,0.0
2848,50.0,1.0,60.0,3.0,0.0
2849,78.0,0.0,60.0,0.0,0.0
2850,74.0,0.0,90.0,4.0,0.0
2851,50.0,0.0,60.0,7.0,0.0
2852,78.0,0.0,15.0,1.0,0.0
2853,43.0,0.0,60.0,7.0,0.0
2854,78.0,0.0,60.0,6.0,0.0
2855,55.0,29.0,60.0,5.0,0.0
2856,78.0,0.0,60.0,0.0,0.0
2857,43.0,30.0,30.0,3.0,0.0
2858,71.0,0.0,60.0,2.0,0.0
2859,71.0,1.0,30.0,4.0,0.0
2860,67.0,0.0,30.0,4.0,0.0
2861,71.0,29.0,60.0,0.0,0.0
2862,74.0,0.0,60.0,2.0,0.0
2863,71.0,0.0,60.0,1.0,0.0
2864,55.0,0.0,60.0,7.0,0.0
2865,71.0,0.0,60.0,6.0,0.0
2866,59.0,29.0,30.0,5.0,0.0
2867,55.0,1.0,30.0,3.0,0.0
2868,71.0,1.0,30.0,4.0,0.0
2869,62.0,0.0,30.0,5.0,0.0
2870,74.0,30.0,30.0,4.0,0.0
2871,71.0,0.0,60.0,2.0,0.0
2872,67.0,29.0,60.0,5.0,0.0
2873,78.0,1.0,30.0,4.0,0.0
2874,67.0,30.0,60.0,2.0,0.0
2875,79.0,30.0,30.0,4.0,0.0
2876,78.0,1.0,30.0,4.0,0.0
2877,76.0,1.0,60.0,4.0,0.0
2878,83.0,0.0,30.0,6.0,0.0
2879,83.0,29.0,30.0,0.0,0.0
2880,55.0,0.0,60.0,7.0,0.0
2881,81.0,29.0,30.0,6.0,0.0
2882,81.0,0.0,30.0,0.0,0.0
2883,64.0,0.0,60.0,7.0,0.0
2884,83.0,1.0,30.0,4.0,0.0
2885,79.0,29.0,30.0,0.0,0.0
2886,79.0,0.0,30.0,6.0,0.0
2887,52.0,0.0,60.0,5.0,0.0
2888,78.0,0.0,30.0,0.0,0.0
2889,81.0,1.0,30.0,4.0,0.0
2890,78.0,29.0,30.0,6.0,0.0
2891,55.0,29.0,60.0,5.0,0.0
2892,76.0,0.0,60.0,0.0,0.0
2893,79.0,1.0,30.0,4.0,0.0
2894,71.0,29.0,30.0,1.0,0.0
2895,76.0,0.0,60.0,6.0,0.0
2896,69.0,0.0,30.0,1.0,0.0
2897,78.0,1.0,30.0,4.0,0.0
2898,76.0,1.0,30.0,4.0,0.0
2899,67.0,29.0,30.0,1.0,0.0
2900,59.0,0.0,60.0,5.0,0.0
2901,66.0,29.0,30.0,1.0,0.0
2902,75.0,1.0,30.0,4.0,0.0
2903,76.0,0.0,30.0,4.0,0.0
2904,55.0,1.0,30.0,3.0,0.0
2905,76.0,0.0,15.0,6.0,0.0
2906,76.0,0.0,15.0,0.0,0.0
2907,64.0,0.0,60.0,1.0,0.0
2908,64.0,0.0,60.0,5.0,0.0
2909,71.0,29.0,30.0,2.0,0.0
2910,69.0,29.0,30.0,2.0,0.0
2911,72.0,1.0,30.0,4.0,0.0
2912,64.0,0.0,30.0,3.0,0.0
2913,71.0,1.0,30.0,4.0,0.0
2914,64.0,29.0,60.0,7.0,0.0
2915,52.0,0.0,60.0,5.0,0.0
2916,67.0,29.0,30.0,2.0,0.0
2917,66.0,0.0,30.0,2.0,0.0
2918,69.0,1.0,30.0,4.0,0.0
2919,67.0,1.0,30.0,4.0,0.0
2920,64.0,29.0,60.0,2.0,0.0
2921,59.0,0.0,60.0,7.0,0.0
2922,71.0,0.0,30.0,6.0,0.0
2923,71.0,0.0,30.0,0.0,0.0
2924,66.0,1.0,30.0,4.0,0.0
2925,55.0,0.0,60.0,7.0,0.0
2926,76.0,29.0,30.0,6.0,0.0
2927,64.0,1.0,30.0,4.0,0.0
2928,76.0,0.0,30.0,0.0,0.0
2929,78.0,30.0,30.0,6.0,0.0
2930,63.0,1.0,30.0,4.0,0.0
2931,78.0,0.0,30.0,0.0,0.0
2932,64.0,1.0,60.0,4.0,0.0
2933,52.0,0.0,60.0,7.0,0.0
2934,79.0,29.0,30.0,6.0,0.0
2935,79.0,0.0,30.0,0.0,0.0
2936,78.0,0.0,30.0,0.0,0.0
2937,78.0,29.0,30.0,6.0,0.0
2938,76.0,0.0,30.0,0.0,0.0
2939,52.0,29.0,60.0,5.0,0.0
2940,76.0,29.0,30.0,6.0,0.0
2941,79.0,1.0,30.0,4.0,0.0
2942,60.0,0.0,60.0,7.0,0.0
2943,74.0,0.0,30.0,0.0,0.0
2944,78.0,1.0,30.0,4.0,0.0
2945,74.0,0.0,30.0,6.0,0.0
2946,72.0,0.0,60.0,0.0,0.0
2947,67.0,29.0,30.0,1.0,0.0
2948,76.0,1.0,30.0,4.0,0.0
2949,55.0,0.0,60.0,5.0,0.0
2950,65.0,29.0,30.0,1.0,0.0
2951,74.0,1.0,30.0,4.0,0.0
2952,64.0,29.0,30.0,1.0,0.0
2953,60.0,0.0,60.0,5.0,0.0
2954,72.0,0.0,15.0,6.0,0.0
2955,72.0,1.0,30.0,4.0,0.0
2956,72.0,0.0,60.0,0.0,0.0
2957,62.0,29.0,30.0,1.0,0.0
2958,71.0,1.0,30.0,4.0,0.0
2959,60.0,29.0,60.0,1.0,0.0
2960,72.0,0.0,15.0,6.0,0.0
2961,67.0,29.0,30.0,2.0,0.0
2962,52.0,0.0,30.0,3.0,0.0
2963,72.0,1.0,30.0,4.0,0.0
2964,72.0,0.0,120.0,0.0,0.0
2965,64.0,0.0,60.0,5.0,0.0
2966,65.0,0.0,30.0,2.0,0.0
2967,69.0,1.0,30.0,4.0,0.0
2968,60.0,0.0,60.0,7.0,0.0
2969,64.0,29.0,30.0,2.0,0.0
2970,67.0,0.0,30.0,4.0,0.0
2971,52.0,0.0,60.0,5.0,0.0
2972,60.0,1.0,30.0,3.0,0.0
2973,65.0,1.0,30.0,4.0,0.0
2974,62.0,29.0,30.0,2.0,0.0
2975,60.0,29.0,60.0,2.0,0.0
2976,55.0,0.0,60.0,7.0,0.0
2977,64.0,1.0,30.0,4.0,0.0
2978,67.0,0.0,30.0,6.0,0.0
2979,62.0,1.0,30.0,4.0,0.0
2980,72.0,29.0,30.0,6.0,0.0
2981,60.0,1.0,30.0,4.0,0.0
2982,52.0,0.0,60.0,7.0,0.0
2983,59.0,1.0,30.0,4.0,0.0
2984,74.0,29.0,30.0,6.0,0.0
2985,60.0,1.0,30.0,4.0,0.0
2986,76.0,29.0,30.0,6.0,0.0
2987,48.0,0.0,60.0,7.0,0.0
2988,78.0,29.0,30.0,6.0,0.0
2989,62.0,1.0,30.0,4.0,0.0
2990,64.0,1.0,30.0,4.0,0.0
2991,47.0,0.0,60.0,7.0,0.0
2992,47.0,30.0,60.0,5.0,0.0
2993,79.0,29.0,30.0,6.0,0.0
2994,66.0,1.0,30.0,4.0,0.0
2995,78.0,0.0,30.0,6.0,0.0
2996,52.0,0.0,60.0,5.0,0.0
2997,67.0,30.0,30.0,1.0,0.0
2998,46.0,30.0,60.0,7.0,0.0
2999,76.0,0.0,30.0,6.0,0.0
3000,74.0,0.0,30.0,6.0,0.0
3001,66.0,0.0,30.0,1.0,0.0
3002,67.0,0.0,15.0,4.0,0.0
3003,64.0,30.0,30.0,1.0,0.0
3004,47.0,0.0,60.0,7.0,0.0
3005,55.0,0.0,60.0,5.0,0.0
3006,73.0,0.0,30.0,6.0,0.0
3007,71.0,0.0,30.0,6.0,0.0
3008,62.0,30.0,30.0,1.0,0.0
3009,49.0,1.0,60.0,3.0,0.0
3010,70.0,0.0,60.0,6.0,0.0
3011,49.0,29.0,60.0,5.0,0.0
3012,49.0,0.0,60.0,7.0,0.0
3013,64.0,0.0,60.0,1.0,0.0
3014,73.0,29.0,30.0,2.0,0.0
3015,79.0,0.0,30.0,4.0,0.0
3016,71.0,0.0,30.0,2.0,0.0
3017,73.0,0.0,60.0,1.0,0.0
3018,78.0,0.0,60.0,6.0,0.0
3019,70.0,30.0,30.0,2.0,0.0
3020,78.0,0.0,60.0,0.0,0.0
3021,58.0,0.0,60.0,7.0,0.0
3022,78.0,0.0,30.0,4.0,0.0
3023,58.0,0.0,60.0,5.0,0.0
3024,58.0,1.0,30.0,3.0,0.0
3025,76.0,29.0,30.0,4.0,0.0
3026,68.0,0.0,30.0,2.0,0.0
3027,71.0,29.0,60.0,6.0,0.0
3028,59.0,0.0,60.0,7.0,0.0
3029,74.0,0.0,60.0,1.0,0.0
3030,71.0,0.0,60.0,0.0,0.0
3031,59.0,0.0,60.0,5.0,0.0
3032,66.0,0.0,60.0,2.0,0.0
3033,74.0,30.0,30.0,4.0,0.0
3034,59.0,1.0,30.0,3.0,0.0
3035,73.0,0.0,30.0,4.0,0.0
3036,76.0,0.0,60.0,1.0,0.0
3037,67.0,0.0,60.0,2.0,0.0
3038,76.0,0.0,60.0,0.0,0.0
3039,76.0,0.0,60.0,6.0,0.0
3040,55.0,1.0,30.0,3.0,0.0
3041,55.0,59.0,60.0,5.0,0.0
3042,55.0,0.0,60.0,7.0,0.0
3043,71.0,30.0,30.0,4.0,0.0
3044,70.0,0.0,30.0,4.0,0.0
3045,54.0,0.0,60.0,5.0,0.0
3046,74.0,0.0,90.0,0.0,0.0
3047,74.0,0.0,90.0,6.0,0.0
3048,71.0,29.0,90.0,4.0,0.0
3049,78.0,0.0,60.0,1.0,0.0
3050,54.0,0.0,60.0,7.0,0.0
3051,54.0,1.0,60.0,3.0,0.0
3052,62.0,30.0,60.0,2.0,0.0
3053,52.0,0.0,60.0,5.0,0.0
3054,79.0,0.0,60.0,1.0,0.0
3055,52.0,0.0,60.0,7.0,0.0
3056,52.0,1.0,60.0,3.0,0.0
3057,59.0,0.0,60.0,2.0,0.0
3058,73.0,0.0,30.0,6.0,0.0
3059,73.0,15.0,30.0,0.0,0.0
3060,73.0,0.0,30.0,4.0,0.0
3061,54.0,0.0,60.0,7.0,0.0
3062,78.0,15.0,60.0,1.0,0.0
3063,70.0,15.0,15.0,4.0,0.0
3064,66.0,0.0,60.0,2.0,0.0
3065,54.0,0.0,60.0,5.0,0.0
3066,73.0,0.0,90.0,6.0,0.0
3067,54.0,1.0,60.0,3.0,0.0
3068,73.0,29.0,90.0,0.0,0.0
3069,71.0,15.0,15.0,4.0,0.0
3070,70.0,14.0,15.0,4.0,0.0
3071,71.0,0.0,15.0,4.0,0.0
3072,66.0,0.0,60.0,2.0,0.0
3073,70.0,15.0,15.0,4.0,0.0
3074,42.0,29.0,60.0,7.0,0.0
3075,42.0,1.0,60.0,3.0,0.0
3076,76.0,0.0,60.0,1.0,0.0
3077,42.0,0.0,60.0,5.0,0.0
3078,71.0,0.0,30.0,6.0,0.0
3079,71.0,0.0,15.0,0.0,0.0
3080,71.0,30.0,30.0,6.0,0.0
3081,71.0,0.0,15.0,4.0,0.0
3082,47.0,1.0,30.0,3.0,0.0
3083,47.0,0.0,120.0,5.0,0.0
3084,75.0,0.0,60.0,1.0,0.0
3085,66.0,30.0,120.0,2.0,0.0
3086,47.0,29.0,60.0,7.0,0.0
3087,73.0,0.0,30.0,6.0,0.0
3088,59.0,1.0,30.0,3.0,0.0
3089,59.0,30.0,30.0,1.0,0.0
3090,66.0,0.0,60.0,7.0,0.0
3091,75.0,0.0,30.0,6.0,0.0
3092,76.0,0.0,30.0,6.0,0.0
3093,61.0,0.0,30.0,1.0,0.0
3094,78.0,30.0,30.0,6.0,0.0
3095,63.0,0.0,30.0,1.0,0.0
3096,63.0,0.0,60.0,7.0,0.0
3097,64.0,0.0,30.0,1.0,0.0
3098,79.0,30.0,30.0,6.0,0.0
3099,59.0,0.0,60.0,7.0,0.0
3100,71.0,0.0,30.0,0.0,0.0
3101,71.0,30.0,30.0,4.0,0.0
3102,66.0,0.0,60.0,1.0,0.0
3103,73.0,0.0,30.0,0.0,0.0
3104,73.0,0.0,30.0,4.0,0.0
3105,59.0,0.0,30.0,2.0,0.0
3106,47.0,1.0,30.0,3.0,0.0
3107,54.0,0.0,60.0,7.0,0.0
3108,81.0,29.0,15.0,6.0,0.0
3109,75.0,0.0,30.0,4.0,0.0
3110,75.0,30.0,30.0,0.0,0.0
3111,76.0,0.0,30.0,0.0,0.0
3112,61.0,29.0,30.0,2.0,0.0
3113,76.0,0.0,30.0,4.0,0.0
3114,78.0,0.0,30.0,0.0,0.0
3115,59.0,1.0,30.0,3.0,0.0
3116,75.0,0.0,60.0,6.0,0.0
3117,66.0,0.0,60.0,5.0,0.0
3118,59.0,30.0,60.0,7.0,0.0
3119,78.0,0.0,30.0,4.0,0.0
3120,63.0,30.0,30.0,2.0,0.0
3121,79.0,0.0,30.0,0.0,0.0
3122,79.0,0.0,30.0,4.0,0.0
3123,64.0,0.0,30.0,2.0,0.0
3124,81.0,30.0,60.0,4.0,0.0
3125,66.0,0.0,60.0,2.0,0.0
3126,81.0,0.0,60.0,0.0,0.0
3127,63.0,30.0,30.0,1.0,0.0
3128,54.0,0.0,60.0,7.0,0.0
3129,63.0,0.0,60.0,5.0,0.0
3130,64.0,0.0,30.0,1.0,0.0
3131,75.0,29.0,60.0,4.0,0.0
3132,57.0,0.0,60.0,7.0,0.0
3133,59.0,0.0,60.0,5.0,0.0
3134,75.0,0.0,60.0,0.0,0.0
3135,66.0,30.0,30.0,1.0,0.0
3136,67.0,0.0,30.0,1.0,0.0
3137,47.0,30.0,90.0,7.0,0.0
3138,54.0,0.0,60.0,5.0,0.0
3139,47.0,1.0,30.0,3.0,0.0
3140,61.0,0.0,30.0,2.0,0.0
3141,69.0,29.0,60.0,1.0,0.0
3142,75.0,30.0,30.0,6.0,0.0
3143,63.0,0.0,30.0,2.0,0.0
3144,76.0,0.0,30.0,6.0,0.0
3145,64.0,0.0,30.0,2.0,0.0
3146,59.0,0.0,60.0,5.0,0.0
3147,78.0,0.0,30.0,6.0,0.0
3148,59.0,1.0,30.0,3.0,0.0
3149,66.0,30.0,30.0,2.0,0.0
3150,71.0,0.0,30.0,7.0,0.0
3151,79.0,0.0,30.0,6.0,0.0
3152,54.0,30.0,60.0,5.0,0.0
3153,63.0,0.0,30.0,1.0,0.0
3154,81.0,0.0,30.0,6.0,0.0
3155,69.0,30.0,30.0,7.0,0.0
3156,67.0,0.0,60.0,2.0,0.0
3157,64.0,0.0,30.0,1.0,0.0
3158,83.0,0.0,30.0,6.0,0.0
3159,67.0,0.0,30.0,7.0,0.0
3160,75.0,0.0,30.0,4.0,0.0
3161,84.0,0.0,60.0,6.0,0.0
3162,66.0,0.0,30.0,7.0,0.0
3163,75.0,30.0,30.0,0.0,0.0
3164,57.0,0.0,60.0,5.0,0.0
3165,66.0,0.0,30.0,1.0,0.0
3166,76.0,0.0,30.0,0.0,0.0
3167,67.0,0.0,30.0,1.0,0.0
3168,64.0,29.0,30.0,7.0,0.0
3169,76.0,0.0,30.0,4.0,0.0
3170,78.0,0.0,30.0,4.0,0.0
3171,47.0,0.0,60.0,5.0,0.0
3172,78.0,30.0,30.0,0.0,0.0
3173,63.0,0.0,60.0,7.0,0.0
3174,84.0,0.0,60.0,6.0,0.0
3175,69.0,29.0,60.0,1.0,0.0
3176,47.0,1.0,30.0,3.0,0.0
3177,79.0,0.0,30.0,4.0,0.0
3178,79.0,0.0,30.0,0.0,0.0
3179,78.0,0.0,60.0,6.0,0.0
3180,59.0,0.0,60.0,7.0,0.0
3181,81.0,30.0,30.0,0.0,0.0
3182,59.0,0.0,60.0,5.0,0.0
3183,81.0,0.0,30.0,4.0,0.0
3184,59.0,1.0,30.0,3.0,0.0
3185,83.0,30.0,30.0,4.0,0.0
3186,83.0,0.0,30.0,0.0,0.0
3187,81.0,0.0,60.0,6.0,0.0
3188,54.0,0.0,60.0,5.0,0.0
3189,84.0,0.0,60.0,0.0,0.0
3190,54.0,30.0,60.0,7.0,0.0
3191,84.0,29.0,30.0,4.0,0.0
3192,54.0,1.0,60.0,3.0,0.0
3193,81.0,0.0,30.0,4.0,0.0
3194,57.0,1.0,60.0,3.0,0.0
3195,78.0,0.0,60.0,0.0,0.0
3196,57.0,0.0,60.0,7.0,0.0
3197,75.0,0.0,60.0,6.0,0.0
3198,57.0,30.0,60.0,5.0,0.0
3199,78.0,29.0,30.0,4.0,0.0
3200,79.0,0.0,30.0,4.0,0.0
3201,51.0,0.0,60.0,5.0,0.0
3202,51.0,1.0,60.0,3.0,0.0
3203,81.0,29.0,30.0,4.0,0.0
3204,51.0,0.0,60.0,7.0,0.0
3205,78.0,0.0,60.0,6.0,0.0
3206,78.0,30.0,30.0,4.0,0.0
3207,54.0,1.0,60.0,3.0,0.0
3208,54.0,0.0,60.0,7.0,0.0
3209,75.0,0.0,30.0,4.0,0.0
3210,54.0,30.0,60.0,5.0,0.0
3211,69.0,0.0,30.0,2.0,0.0
3212,69.0,0.0,30.0,6.0,0.0
3213,66.0,29.0,30.0,1.0,0.0
3214,72.0,0.0,30.0,6.0,0.0
3215,76.0,0.0,30.0,4.0,0.0
3216,78.0,29.0,30.0,4.0,0.0
3217,71.0,0.0,30.0,6.0,0.0
3218,63.0,0.0,30.0,1.0,0.0
3219,47.0,0.0,60.0,5.0,0.0
3220,66.0,0.0,30.0,2.0,0.0
3221,47.0,0.0,60.0,7.0,0.0
3222,47.0,1.0,60.0,3.0,0.0
3223,69.0,30.0,30.0,6.0,0.0
3224,72.0,0.0,30.0,4.0,0.0
3225,71.0,29.0,30.0,1.0,0.0
3226,51.0,60.0,60.0,7.0,0.0
3227,51.0,1.0,60.0,3.0,0.0
3228,51.0,0.0,60.0,5.0,0.0
3229,67.0,0.0,30.0,6.0,0.0
3230,71.0,0.0,30.0,4.0,0.0
3231,59.0,0.0,30.0,2.0,0.0
3232,66.0,0.0,30.0,6.0,0.0
3233,69.0,0.0,30.0,4.0,0.0
3234,64.0,0.0,120.0,2.0,0.0
3235,52.0,0.0,60.0,5.0,0.0
3236,59.0,0.0,60.0,5.0,0.0
3237,71.0,0.0,60.0,0.0,0.0
3238,67.0,59.0,60.0,4.0,0.0
3239,55.0,0.0,60.0,7.0,0.0
3240,64.0,0.0,60.0,6.0,0.0
3241,52.0,0.0,60.0,7.0,0.0
3242,59.0,0.0,60.0,7.0,0.0
3243,71.0,0.0,60.0,1.0,0.0
3244,52.0,1.0,120.0,3.0,0.0
3245,76.0,60.0,60.0,0.0,0.0
3246,67.0,0.0,60.0,1.0,0.0
3247,76.0,0.0,60.0,4.0,0.0
3248,71.0,0.0,60.0,1.0,0.0
3249,79.0,60.0,60.0,0.0,0.0
3250,79.0,0.0,60.0,4.0,0.0
3251,71.0,0.0,60.0,4.0,0.0
3252,78.0,0.0,60.0,0.0,0.0
3253,78.0,0.0,60.0,4.0,0.0
3254,69.0,30.0,60.0,4.0,0.0
3255,69.0,0.0,60.0,1.0,0.0
3256,64.0,0.0,60.0,2.0,0.0
3257,71.0,0.0,60.0,0.0,0.0
3258,64.0,30.0,60.0,5.0,0.0
3259,52.0,1.0,120.0,3.0,0.0
3260,71.0,0.0,60.0,4.0,0.0
3261,67.0,0.0,60.0,1.0,0.0
3262,67.0,30.0,30.0,5.0,0.0
3263,66.0,0.0,30.0,5.0,0.0
3264,71.0,0.0,60.0,1.0,0.0
3265,67.0,29.0,30.0,2.0,0.0
3266,76.0,0.0,30.0,0.0,0.0
3267,76.0,0.0,30.0,4.0,0.0
3268,67.0,0.0,30.0,5.0,0.0
3269,69.0,0.0,30.0,2.0,0.0
3270,78.0,0.0,30.0,4.0,0.0
3271,69.0,0.0,30.0,5.0,0.0
3272,78.0,30.0,30.0,0.0,0.0
3273,71.0,0.0,30.0,5.0,0.0
3274,79.0,0.0,30.0,4.0,0.0
3275,76.0,0.0,30.0,1.0,0.0
3276,71.0,0.0,30.0,2.0,0.0
3277,79.0,30.0,30.0,0.0,0.0
3278,75.0,0.0,30.0,1.0,0.0
3279,69.0,0.0,30.0,5.0,0.0
3280,69.0,30.0,30.0,2.0,0.0
3281,78.0,0.0,30.0,4.0,0.0
3282,78.0,0.0,30.0,0.0,0.0
3283,79.0,0.0,30.0,4.0,0.0
3284,71.0,0.0,30.0,5.0,0.0
3285,76.0,0.0,30.0,1.0,0.0
3286,79.0,0.0,30.0,0.0,0.0
3287,71.0,30.0,30.0,2.0,0.0
3288,75.0,30.0,30.0,1.0,0.0
3289,69.0,0.0,30.0,2.0,0.0
3290,69.0,0.0,30.0,5.0,0.0
3291,78.0,0.0,30.0,0.0,0.0
3292,78.0,0.0,30.0,4.0,0.0
3293,52.0,0.0,60.0,5.0,0.0
3294,67.0,29.0,30.0,2.0,0.0
3295,67.0,0.0,60.0,4.0,0.0
3296,64.0,0.0,60.0,4.0,0.0
3297,76.0,0.0,30.0,0.0,0.0
3298,76.0,0.0,60.0,1.0,0.0
3299,55.0,0.0,60.0,5.0,0.0
3300,59.0,0.0,60.0,5.0,0.0
3301,52.0,1.0,60.0,3.0,0.0
3302,76.0,0.0,30.0,4.0,0.0
3303,78.0,0.0,30.0,0.0,0.0
3304,78.0,30.0,30.0,4.0,0.0
3305,69.0,0.0,30.0,2.0,0.0
3306,54.0,1.0,60.0,3.0,0.0
3307,67.0,0.0,30.0,2.0,0.0
3308,79.0,0.0,30.0,0.0,0.0
3309,79.0,29.0,30.0,4.0,0.0
3310,71.0,0.0,60.0,1.0,0.0
3311,54.0,0.0,60.0,5.0,0.0
3312,81.0,0.0,30.0,0.0,0.0
3313,66.0,0.0,30.0,2.0,0.0
3314,81.0,30.0,30.0,4.0,0.0
3315,55.0,0.0,60.0,5.0,0.0
3316,55.0,1.0,60.0,3.0,0.0
3317,83.0,29.0,30.0,4.0,0.0
3318,83.0,0.0,30.0,0.0,0.0
3319,64.0,0.0,60.0,2.0,0.0
3320,76.0,0.0,60.0,1.0,0.0
3321,85.0,0.0,30.0,4.0,0.0
3322,85.0,30.0,30.0,0.0,0.0
3323,59.0,0.0,60.0,2.0,0.0
3324,52.0,0.0,60.0,5.0,0.0
3325,86.0,29.0,30.0,4.0,0.0
3326,52.0,1.0,60.0,3.0,0.0
3327,78.0,0.0,30.0,1.0,0.0
3328,86.0,0.0,30.0,0.0,0.0
3329,88.0,30.0,30.0,4.0,0.0
3330,79.0,0.0,30.0,1.0,0.0
3331,88.0,0.0,30.0,0.0,0.0
3332,66.0,0.0,120.0,2.0,0.0
3333,54.0,0.0,30.0,3.0,0.0
3334,54.0,0.0,60.0,5.0,0.0
3335,82.0,0.0,60.0,4.0,0.0
3336,66.0,30.0,30.0,6.0,0.0
3337,82.0,0.0,60.0,0.0,0.0
3338,73.0,0.0,60.0,1.0,0.0
3339,68.0,30.0,30.0,6.0,0.0
3340,61.0,0.0,60.0,7.0,0.0
3341,78.0,30.0,60.0,0.0,0.0
3342,42.0,0.0,30.0,3.0,0.0
3343,70.0,0.0,30.0,6.0,0.0
3344,78.0,0.0,60.0,4.0,0.0
3345,66.0,30.0,30.0,1.0,0.0
3346,42.0,0.0,60.0,5.0,0.0
3347,71.0,0.0,30.0,6.0,0.0
3348,68.0,0.0,30.0,1.0,0.0
3349,73.0,30.0,30.0,6.0,0.0
3350,70.0,0.0,30.0,1.0,0.0
3351,58.0,0.0,60.0,7.0,0.0
3352,74.0,0.0,30.0,6.0,0.0
3353,71.0,30.0,30.0,1.0,0.0
3354,66.0,30.0,30.0,4.0,0.0
3355,54.0,30.0,60.0,7.0,0.0
3356,66.0,0.0,30.0,0.0,0.0
3357,73.0,0.0,60.0,1.0,0.0
3358,68.0,0.0,30.0,0.0,0.0
3359,68.0,0.0,30.0,4.0,0.0
3360,70.0,0.0,30.0,0.0,0.0
3361,76.0,0.0,15.0,6.0,0.0
3362,70.0,0.0,30.0,4.0,0.0
3363,49.0,0.0,60.0,7.0,0.0
3364,54.0,0.0,30.0,2.0,0.0
3365,54.0,30.0,30.0,3.0,0.0
3366,71.0,0.0,30.0,0.0,0.0
3367,56.0,30.0,30.0,2.0,0.0
3368,71.0,0.0,30.0,4.0,0.0
3369,54.0,0.0,60.0,7.0,0.0
3370,42.0,30.0,30.0,3.0,0.0
3371,73.0,0.0,30.0,4.0,0.0
3372,58.0,0.0,30.0,2.0,0.0
3373,70.0,0.0,60.0,6.0,0.0
3374,73.0,0.0,30.0,0.0,0.0
3375,61.0,0.0,60.0,5.0,0.0
3376,74.0,0.0,30.0,4.0,0.0
3377,59.0,0.0,30.0,2.0,0.0
3378,74.0,30.0,30.0,0.0,0.0
3379,70.0,30.0,30.0,1.0,0.0
3380,49.0,0.0,60.0,7.0,0.0
3381,61.0,0.0,60.0,2.0,0.0
3382,76.0,0.0,60.0,4.0,0.0
3383,76.0,0.0,60.0,0.0,0.0
3384,58.0,0.0,60.0,5.0,0.0
3385,71.0,30.0,30.0,1.0,0.0
3386,52.0,30.0,60.0,7.0,0.0
3387,70.0,0.0,60.0,4.0,0.0
3388,70.0,0.0,60.0,0.0,0.0
3389,54.0,0.0,60.0,5.0,0.0
3390,73.0,30.0,30.0,1.0,0.0
3391,74.0,0.0,30.0,1.0,0.0
3392,70.0,30.0,30.0,6.0,0.0
3393,76.0,30.0,60.0,1.0,0.0
3394,54.0,0.0,30.0,3.0,0.0
3395,49.0,0.0,60.0,5.0,0.0
3396,42.0,0.0,60.0,7.0,0.0
3397,54.0,0.0,30.0,2.0,0.0
3398,56.0,0.0,30.0,2.0,0.0
3399,71.0,0.0,30.0,6.0,0.0
3400,73.0,0.0,30.0,6.0,0.0
3401,58.0,30.0,30.0,2.0,0.0
3402,54.0,30.0,60.0,5.0,0.0
3403,42.0,0.0,30.0,3.0,0.0
3404,74.0,0.0,30.0,6.0,0.0
3405,66.0,0.0,30.0,7.0,0.0
3406,59.0,0.0,30.0,2.0,0.0
3407,64.0,0.0,30.0,7.0,0.0
3408,76.0,30.0,30.0,6.0,0.0
3409,61.0,0.0,60.0,2.0,0.0
3410,70.0,0.0,30.0,1.0,0.0
3411,49.0,30.0,60.0,5.0,0.0
3412,62.0,0.0,30.0,7.0,0.0
3413,71.0,0.0,30.0,1.0,0.0
3414,78.0,0.0,30.0,6.0,0.0
3415,52.0,0.0,60.0,5.0,0.0
3416,61.0,0.0,30.0,7.0,0.0
3417,79.0,0.0,60.0,6.0,0.0
3418,73.0,0.0,30.0,1.0,0.0
3419,70.0,30.0,30.0,4.0,0.0
3420,70.0,0.0,30.0,0.0,0.0
3421,71.0,30.0,30.0,4.0,0.0
3422,71.0,0.0,30.0,0.0,0.0
3423,74.0,0.0,30.0,1.0,0.0
3424,59.0,0.0,30.0,7.0,0.0
3425,73.0,0.0,30.0,0.0,0.0
3426,42.0,0.0,60.0,5.0,0.0
3427,76.0,0.0,60.0,1.0,0.0
3428,73.0,0.0,30.0,4.0,0.0
3429,58.0,0.0,60.0,7.0,0.0
3430,54.0,30.0,30.0,3.0,0.0
3431,79.0,0.0,60.0,6.0,0.0
3432,74.0,0.0,30.0,0.0,0.0
3433,74.0,30.0,30.0,4.0,0.0
3434,73.0,0.0,60.0,6.0,0.0
3435,66.0,0.0,30.0,3.0,0.0
3436,76.0,0.0,30.0,4.0,0.0
3437,54.0,30.0,60.0,7.0,0.0
3438,66.0,0.0,60.0,5.0,0.0
3439,76.0,30.0,30.0,0.0,0.0
3440,78.0,0.0,30.0,0.0,0.0
3441,78.0,0.0,30.0,4.0,0.0
3442,76.0,0.0,60.0,6.0,0.0
3443,49.0,0.0,60.0,7.0,0.0
3444,79.0,0.0,60.0,0.0,0.0
3445,61.0,30.0,60.0,5.0,0.0
3446,79.0,29.0,30.0,4.0,0.0
3447,61.0,1.0,60.0,3.0,0.0
3448,76.0,0.0,30.0,4.0,0.0
3449,52.0,0.0,60.0,7.0,0.0
3450,73.0,29.0,30.0,4.0,0.0
3451,64.0,1.0,60.0,3.0,0.0
3452,64.0,0.0,60.0,5.0,0.0
3453,73.0,0.0,60.0,0.0,0.0
3454,70.0,30.0,60.0,6.0,0.0
3455,74.0,0.0,30.0,4.0,0.0
3456,73.0,30.0,60.0,6.0,0.0
3457,58.0,1.0,60.0,3.0,0.0
3458,76.0,29.0,30.0,4.0,0.0
3459,46.0,0.0,60.0,7.0,0.0
3460,58.0,0.0,60.0,5.0,0.0
3461,73.0,0.0,30.0,4.0,0.0
3462,49.0,30.0,60.0,7.0,0.0
3463,70.0,0.0,30.0,4.0,0.0
3464,61.0,1.0,60.0,3.0,0.0
3465,73.0,29.0,30.0,1.0,0.0
3466,64.0,0.0,30.0,6.0,0.0
3467,61.0,0.0,60.0,5.0,0.0
3468,64.0,0.0,30.0,2.0,0.0
3469,71.0,0.0,30.0,4.0,0.0
3470,67.0,0.0,30.0,6.0,0.0
3471,54.0,1.0,60.0,3.0,0.0
3472,73.0,0.0,30.0,4.0,0.0
3473,66.0,0.0,30.0,6.0,0.0
3474,61.0,0.0,30.0,2.0,0.0
3475,70.0,29.0,30.0,1.0,0.0
3476,54.0,30.0,60.0,5.0,0.0
3477,42.0,0.0,60.0,7.0,0.0
3478,64.0,0.0,30.0,6.0,0.0
3479,67.0,0.0,30.0,4.0,0.0
3480,58.0,1.0,60.0,3.0,0.0
3481,54.0,29.0,30.0,2.0,0.0
3482,46.0,0.0,60.0,7.0,0.0
3483,66.0,0.0,30.0,4.0,0.0
3484,62.0,0.0,30.0,6.0,0.0
3485,58.0,0.0,60.0,5.0,0.0
3486,78.0,0.0,30.0,1.0,0.0
3487,61.0,30.0,30.0,6.0,0.0
3488,64.0,0.0,30.0,4.0,0.0
3489,59.0,0.0,30.0,2.0,0.0
3490,62.0,0.0,30.0,4.0,0.0
3491,50.0,1.0,60.0,3.0,0.0
3492,47.0,29.0,60.0,5.0,0.0
3493,47.0,0.0,60.0,7.0,0.0
3494,78.0,0.0,30.0,1.0,0.0
3495,78.0,29.0,30.0,6.0,0.0
3496,61.0,0.0,30.0,4.0,0.0
3497,76.0,0.0,30.0,6.0,0.0
3498,59.0,0.0,60.0,4.0,0.0
3499,83.0,0.0,30.0,1.0,0.0
3500,74.0,0.0,30.0,6.0,0.0
3501,54.0,0.0,30.0,5.0,0.0
3502,59.0,29.0,30.0,7.0,0.0
3503,66.0,1.0,30.0,3.0,0.0
3504,64.0,1.0,30.0,3.0,0.0
3505,61.0,30.0,30.0,7.0,0.0
3506,52.0,0.0,30.0,5.0,0.0
3507,73.0,0.0,30.0,6.0,0.0
3508,82.0,0.0,30.0,1.0,0.0
3509,50.0,0.0,30.0,5.0,0.0
3510,78.0,0.0,30.0,4.0,0.0
3511,83.0,0.0,60.0,1.0,0.0
3512,78.0,29.0,30.0,0.0,0.0
3513,62.0,0.0,30.0,7.0,0.0
3514,62.0,1.0,60.0,3.0,0.0
3515,61.0,0.0,30.0,7.0,0.0
3516,76.0,29.0,30.0,4.0,0.0
3517,76.0,0.0,30.0,0.0,0.0
3518,52.0,0.0,30.0,5.0,0.0
3519,59.0,0.0,30.0,7.0,0.0
3520,71.0,0.0,15.0,6.0,0.0
3521,74.0,0.0,30.0,0.0,0.0
3522,54.0,29.0,30.0,5.0,0.0
3523,66.0,1.0,30.0,3.0,0.0
3524,71.0,0.0,30.0,2.0,0.0
3525,74.0,0.0,30.0,4.0,0.0
3526,70.0,0.0,30.0,2.0,0.0
3527,73.0,0.0,30.0,0.0,0.0
3528,64.0,1.0,30.0,3.0,0.0
3529,73.0,0.0,30.0,4.0,0.0
3530,61.0,30.0,30.0,7.0,0.0
3531,52.0,0.0,30.0,5.0,0.0
3532,71.0,0.0,30.0,4.0,0.0
3533,50.0,29.0,30.0,5.0,0.0
3534,71.0,0.0,60.0,2.0,0.0
3535,71.0,0.0,30.0,0.0,0.0
3536,62.0,1.0,60.0,3.0,0.0
3537,66.0,0.0,30.0,1.0,0.0
3538,71.0,0.0,15.0,6.0,0.0
3539,62.0,0.0,30.0,7.0,0.0
3540,61.0,29.0,30.0,7.0,0.0
3541,64.0,0.0,30.0,1.0,0.0
3542,66.0,0.0,30.0,4.0,0.0
3543,66.0,0.0,30.0,0.0,0.0
3544,52.0,0.0,30.0,5.0,0.0
3545,71.0,0.0,30.0,4.0,0.0
3546,62.0,0.0,30.0,1.0,0.0
3547,54.0,0.0,30.0,5.0,0.0
3548,66.0,29.0,90.0,2.0,0.0
3549,59.0,0.0,30.0,7.0,0.0
3550,71.0,29.0,30.0,0.0,0.0
3551,66.0,1.0,30.0,3.0,0.0
3552,70.0,0.0,30.0,4.0,0.0
3553,61.0,30.0,30.0,1.0,0.0
3554,61.0,0.0,30.0,7.0,0.0
3555,52.0,0.0,30.0,5.0,0.0
3556,70.0,0.0,30.0,0.0,0.0
3557,64.0,1.0,30.0,3.0,0.0
3558,62.0,1.0,60.0,3.0,0.0
3559,50.0,0.0,30.0,5.0,0.0
3560,71.0,30.0,60.0,4.0,0.0
3561,62.0,0.0,60.0,7.0,0.0
3562,59.0,0.0,60.0,1.0,0.0
3563,71.0,0.0,60.0,0.0,0.0
3564,52.0,0.0,30.0,5.0,0.0
3565,66.0,0.0,30.0,6.0,0.0
3566,64.0,0.0,30.0,2.0,0.0
3567,71.0,30.0,30.0,6.0,0.0
3568,61.0,0.0,30.0,3.0,0.0
3569,54.0,0.0,30.0,5.0,0.0
3570,62.0,0.0,30.0,2.0,0.0
3571,73.0,0.0,30.0,6.0,0.0
3572,52.0,29.0,30.0,5.0,0.0
3573,64.0,0.0,30.0,2.0,0.0
3574,66.0,29.0,60.0,2.0,0.0
3575,50.0,1.0,30.0,5.0,0.0
3576,74.0,0.0,30.0,6.0,0.0
3577,59.0,29.0,30.0,3.0,0.0
3578,72.0,0.0,30.0,6.0,0.0
3579,52.0,1.0,30.0,5.0,0.0
3580,62.0,0.0,30.0,3.0,0.0
3581,71.0,1.0,30.0,6.0,0.0
3582,79.0,29.0,30.0,1.0,0.0
3583,55.0,0.0,30.0,7.0,0.0
3584,50.0,0.0,30.0,5.0,0.0
3585,69.0,0.0,30.0,6.0,0.0
3586,48.0,0.0,30.0,5.0,0.0
3587,78.0,29.0,30.0,1.0,0.0
3588,60.0,1.0,30.0,3.0,0.0
3589,57.0,0.0,30.0,7.0,0.0
3590,59.0,0.0,30.0,7.0,0.0
3591,47.0,0.0,30.0,5.0,0.0
3592,59.0,0.0,60.0,3.0,0.0
3593,74.0,29.0,30.0,0.0,0.0
3594,79.0,29.0,60.0,1.0,0.0
3595,67.0,1.0,60.0,6.0,0.0
3596,74.0,1.0,30.0,4.0,0.0
3597,72.0,0.0,30.0,0.0,0.0
3598,57.0,0.0,30.0,7.0,0.0
3599,72.0,0.0,30.0,4.0,0.0
3600,48.0,0.0,30.0,5.0,0.0
3601,55.0,0.0,30.0,7.0,0.0
3602,71.0,29.0,30.0,0.0,0.0
3603,71.0,1.0,30.0,4.0,0.0
3604,50.0,0.0,30.0,5.0,0.0
3605,62.0,0.0,30.0,3.0,0.0
3606,67.0,0.0,60.0,6.0,0.0
3607,67.0,0.0,30.0,2.0,0.0
3608,66.0,0.0,30.0,2.0,0.0
3609,57.0,0.0,30.0,7.0,0.0
3610,60.0,0.0,30.0,3.0,0.0
3611,48.0,0.0,30.0,5.0,0.0
3612,69.0,29.0,30.0,0.0,0.0
3613,69.0,1.0,30.0,4.0,0.0
3614,67.0,29.0,30.0,0.0,0.0
3615,59.0,0.0,30.0,7.0,0.0
3616,67.0,0.0,30.0,4.0,0.0
3617,47.0,1.0,30.0,5.0,0.0
3618,67.0,0.0,60.0,2.0,0.0
3619,59.0,0.0,60.0,3.0,0.0
3620,74.0,0.0,30.0,1.0,0.0
3621,67.0,0.0,120.0,6.0,0.0
3622,57.0,0.0,30.0,7.0,0.0
3623,48.0,1.0,30.0,5.0,0.0
3624,62.0,0.0,30.0,4.0,0.0
3625,72.0,0.0,30.0,1.0,0.0
3626,62.0,29.0,30.0,0.0,0.0
3627,62.0,29.0,90.0,2.0,0.0
3628,55.0,0.0,30.0,7.0,0.0
3629,50.0,0.0,30.0,5.0,0.0
3630,71.0,0.0,30.0,1.0,0.0
3631,67.0,29.0,30.0,0.0,0.0
3632,67.0,1.0,30.0,4.0,0.0
3633,62.0,0.0,30.0,3.0,0.0
3634,60.0,0.0,30.0,3.0,0.0
3635,57.0,0.0,30.0,7.0,0.0
3636,48.0,0.0,30.0,5.0,0.0
3637,66.0,29.0,30.0,0.0,0.0
3638,66.0,1.0,30.0,4.0,0.0
3639,69.0,0.0,30.0,1.0,0.0
3640,67.0,0.0,60.0,0.0,0.0
3641,67.0,29.0,60.0,1.0,0.0
3642,67.0,0.0,60.0,4.0,0.0
3643,47.0,1.0,30.0,5.0,0.0
3644,59.0,0.0,60.0,3.0,0.0
3645,59.0,0.0,60.0,7.0,0.0
3646,48.0,1.0,30.0,5.0,0.0
3647,60.0,0.0,30.0,2.0,0.0
3648,74.0,0.0,30.0,6.0,0.0
3649,79.0,0.0,30.0,6.0,0.0
3650,50.0,1.0,30.0,5.0,0.0
3651,57.0,0.0,30.0,3.0,0.0
3652,59.0,29.0,30.0,2.0,0.0
3653,48.0,0.0,30.0,5.0,0.0
3654,81.0,1.0,30.0,6.0,0.0
3655,60.0,29.0,30.0,2.0,0.0
3656,62.0,29.0,60.0,2.0,0.0
3657,55.0,29.0,30.0,3.0,0.0
3658,47.0,0.0,30.0,5.0,0.0
3659,83.0,1.0,30.0,6.0,0.0
3660,81.0,1.0,30.0,6.0,0.0
3661,48.0,0.0,30.0,5.0,0.0
3662,76.0,29.0,30.0,1.0,0.0
3663,47.0,0.0,30.0,5.0,0.0
3664,59.0,0.0,30.0,3.0,0.0
3665,79.0,0.0,30.0,6.0,0.0
3666,52.0,1.0,30.0,7.0,0.0
3667,57.0,0.0,30.0,3.0,0.0
3668,78.0,1.0,30.0,6.0,0.0
3669,54.0,0.0,30.0,7.0,0.0
3670,75.0,29.0,30.0,1.0,0.0
3671,45.0,0.0,30.0,5.0,0.0
3672,76.0,0.0,60.0,1.0,0.0
3673,43.0,0.0,30.0,5.0,0.0
3674,55.0,0.0,60.0,3.0,0.0
3675,76.0,0.0,60.0,6.0,0.0
3676,83.0,29.0,30.0,0.0,0.0
3677,83.0,0.0,30.0,4.0,0.0
3678,55.0,1.0,30.0,7.0,0.0
3679,81.0,29.0,30.0,0.0,0.0
3680,45.0,1.0,30.0,5.0,0.0
3681,54.0,0.0,30.0,7.0,0.0
3682,81.0,0.0,30.0,4.0,0.0
3683,59.0,0.0,30.0,3.0,0.0
3684,47.0,0.0,30.0,5.0,0.0
3685,76.0,29.0,30.0,2.0,0.0
3686,79.0,0.0,30.0,4.0,0.0
3687,52.0,1.0,30.0,7.0,0.0
3688,79.0,0.0,30.0,0.0,0.0
3689,76.0,1.0,60.0,6.0,0.0
3690,78.0,29.0,30.0,0.0,0.0
3691,45.0,0.0,30.0,5.0,0.0
3692,78.0,0.0,30.0,4.0,0.0
3693,75.0,0.0,30.0,2.0,0.0
3694,54.0,0.0,30.0,7.0,0.0
3695,57.0,0.0,30.0,3.0,0.0
3696,76.0,0.0,30.0,4.0,0.0
3697,55.0,0.0,60.0,3.0,0.0
3698,76.0,29.0,30.0,0.0,0.0
3699,76.0,29.0,60.0,2.0,0.0
3700,76.0,0.0,120.0,6.0,0.0
3701,71.0,0.0,30.0,1.0,0.0
3702,55.0,1.0,30.0,7.0,0.0
3703,43.0,0.0,30.0,5.0,0.0
3704,69.0,0.0,30.0,1.0,0.0
3705,71.0,0.0,30.0,0.0,0.0
3706,71.0,0.0,30.0,4.0,0.0
3707,45.0,1.0,30.0,5.0,0.0
3708,54.0,0.0,30.0,7.0,0.0
3709,52.0,0.0,30.0,7.0,0.0
3710,76.0,0.0,30.0,4.0,0.0
3711,76.0,0.0,30.0,0.0,0.0
3712,67.0,29.0,30.0,1.0,0.0
3713,59.0,0.0,30.0,3.0,0.0
3714,47.0,1.0,30.0,5.0,0.0
3715,71.0,29.0,90.0,2.0,0.0
3716,75.0,1.0,30.0,4.0,0.0
3717,75.0,0.0,30.0,0.0,0.0
3718,57.0,0.0,30.0,3.0,0.0
3719,54.0,0.0,30.0,7.0,0.0
3720,45.0,0.0,30.0,5.0,0.0
3721,66.0,30.0,30.0,1.0,0.0
3722,76.0,0.0,60.0,0.0,0.0
3723,43.0,0.0,60.0,5.0,0.0
3724,76.0,0.0,60.0,4.0,0.0
3725,64.0,0.0,60.0,1.0,0.0
3726,55.0,0.0,60.0,3.0,0.0
3727,55.0,1.0,60.0,7.0,0.0
3728,71.0,0.0,30.0,6.0,0.0
3729,69.0,29.0,30.0,2.0,0.0
3730,67.0,0.0,30.0,2.0,0.0
3731,54.0,29.0,30.0,3.0,0.0
3732,76.0,1.0,30.0,6.0,0.0
3733,78.0,1.0,30.0,6.0,0.0
3734,69.0,29.0,30.0,2.0,0.0
3735,71.0,0.0,30.0,2.0,0.0
3736,52.0,29.0,30.0,3.0,0.0
3737,79.0,1.0,30.0,6.0,0.0
3738,69.0,29.0,30.0,2.0,0.0
3739,81.0,1.0,30.0,6.0,0.0
3740,67.0,29.0,30.0,2.0,0.0
3741,55.0,0.0,30.0,3.0,0.0
3742,55.0,1.0,30.0,7.0,0.0
3743,83.0,0.0,30.0,6.0,0.0
3744,57.0,0.0,30.0,7.0,0.0
3745,66.0,29.0,30.0,2.0,0.0
3746,81.0,1.0,30.0,6.0,0.0
3747,59.0,1.0,30.0,7.0,0.0
3748,59.0,29.0,30.0,3.0,0.0
3749,79.0,0.0,30.0,6.0,0.0
3750,64.0,0.0,30.0,2.0,0.0
3751,62.0,0.0,30.0,7.0,0.0
3752,66.0,29.0,30.0,2.0,0.0
3753,78.0,1.0,30.0,6.0,0.0
3754,61.0,0.0,30.0,7.0,0.0
3755,67.0,0.0,120.0,2.0,0.0
3756,62.0,29.0,30.0,3.0,0.0
3757,76.0,1.0,30.0,6.0,0.0
3758,59.0,60.0,30.0,7.0,0.0
3759,74.0,0.0,30.0,6.0,0.0
3760,61.0,1.0,60.0,3.0,0.0
3761,61.0,0.0,60.0,7.0,0.0
3762,76.0,0.0,30.0,0.0,0.0
3763,76.0,0.0,30.0,4.0,0.0
3764,73.0,29.0,30.0,1.0,0.0
3765,57.0,0.0,60.0,3.0,0.0
3766,61.0,1.0,60.0,7.0,0.0
3767,57.0,0.0,60.0,5.0,0.0
3768,79.0,29.0,30.0,0.0,0.0
3769,61.0,0.0,60.0,5.0,0.0
3770,76.0,0.0,30.0,1.0,0.0
3771,57.0,0.0,60.0,7.0,0.0
3772,61.0,0.0,60.0,2.0,0.0
3773,79.0,1.0,30.0,4.0,0.0
3774,78.0,0.0,30.0,4.0,0.0
3775,78.0,29.0,30.0,0.0,0.0
3776,74.0,0.0,30.0,1.0,0.0
3777,73.0,29.0,30.0,1.0,0.0
3778,62.0,29.0,60.0,2.0,0.0
3779,76.0,1.0,30.0,4.0,0.0
3780,62.0,0.0,60.0,5.0,0.0
3781,59.0,0.0,60.0,5.0,0.0
3782,76.0,0.0,30.0,0.0,0.0
3783,59.0,1.0,60.0,7.0,0.0
3784,62.0,0.0,60.0,7.0,0.0
3785,59.0,0.0,60.0,3.0,0.0
3786,71.0,0.0,30.0,1.0,0.0
3787,74.0,0.0,30.0,0.0,0.0
3788,74.0,0.0,30.0,4.0,0.0
3789,69.0,0.0,30.0,1.0,0.0
3790,73.0,29.0,30.0,0.0,0.0
3791,73.0,1.0,30.0,4.0,0.0
3792,64.0,1.0,60.0,7.0,0.0
3793,61.0,0.0,60.0,3.0,0.0
3794,64.0,0.0,60.0,5.0,0.0
3795,61.0,0.0,60.0,5.0,0.0
3796,61.0,0.0,60.0,7.0,0.0
3797,64.0,0.0,60.0,2.0,0.0
3798,67.0,20.0,30.0,1.0,0.0
3799,71.0,0.0,30.0,4.0,0.0
3800,71.0,0.0,30.0,0.0,0.0
3801,54.0,0.0,120.0,5.0,0.0
3802,62.0,0.0,30.0,7.0,0.0
3803,66.0,11.0,30.0,7.0,0.0
3804,66.0,0.0,60.0,2.0,0.0
3805,69.0,14.0,60.0,0.0,0.0
3806,50.0,0.0,120.0,5.0,0.0
3807,66.0,0.0,120.0,4.0,0.0
3808,81.0,0.0,15.0,6.0,0.0
3809,62.0,0.0,120.0,3.0,0.0
3810,66.0,0.0,60.0,1.0,0.0
3811,62.0,1.0,120.0,5.0,0.0
3812,57.0,0.0,120.0,5.0,0.0
3813,69.0,0.0,60.0,4.0,0.0
3814,83.0,19.0,20.0,6.0,0.0
3815,67.0,1.0,30.0,7.0,0.0
3816,81.0,0.0,20.0,6.0,0.0
3817,83.0,15.0,15.0,6.0,0.0
3818,74.0,0.0,60.0,0.0,0.0
3819,66.0,0.0,30.0,7.0,0.0
3820,74.0,0.0,60.0,4.0,0.0
3821,69.0,0.0,60.0,1.0,0.0
3822,66.0,14.0,60.0,2.0,0.0
3823,81.0,15.0,15.0,6.0,0.0
3824,83.0,15.0,15.0,6.0,0.0
3825,64.0,0.0,30.0,7.0,0.0
3826,81.0,0.0,15.0,6.0,0.0
3827,78.0,14.0,60.0,0.0,0.0
3828,74.0,0.0,60.0,1.0,0.0
3829,78.0,0.0,60.0,4.0,0.0
3830,69.0,0.0,60.0,4.0,0.0
3831,62.0,15.0,30.0,7.0,0.0
3832,71.0,0.0,60.0,2.0,0.0
3833,83.0,15.0,15.0,6.0,0.0
3834,81.0,0.0,15.0,6.0,0.0
3835,83.0,15.0,15.0,6.0,0.0
3836,66.0,1.0,30.0,7.0,0.0
3837,81.0,0.0,15.0,6.0,0.0
3838,83.0,15.0,15.0,6.0,0.0
3839,69.0,14.0,60.0,2.0,0.0
3840,69.0,0.0,30.0,7.0,0.0
3841,73.0,0.0,60.0,1.0,0.0
3842,76.0,0.0,60.0,0.0,0.0
3843,67.0,0.0,60.0,4.0,0.0
3844,76.0,0.0,60.0,4.0,0.0
3845,81.0,15.0,15.0,6.0,0.0
3846,73.0,0.0,30.0,7.0,0.0
3847,83.0,15.0,15.0,6.0,0.0
3848,81.0,1.0,15.0,6.0,0.0
3849,66.0,14.0,60.0,2.0,0.0
3850,74.0,0.0,30.0,7.0,0.0
3851,69.0,0.0,60.0,0.0,0.0
3852,50.0,1.0,120.0,3.0,0.0
3853,62.0,0.0,120.0,5.0,0.0
3854,69.0,0.0,60.0,4.0,0.0
3855,83.0,15.0,15.0,6.0,0.0
3856,66.0,0.0,30.0,4.0,0.0
3857,62.0,0.0,60.0,1.0,0.0
3858,81.0,15.0,15.0,6.0,0.0
3859,83.0,15.0,15.0,6.0,0.0
3860,73.0,1.0,30.0,7.0,0.0
3861,64.0,0.0,30.0,4.0,0.0
3862,81.0,0.0,15.0,6.0,0.0
3863,66.0,14.0,30.0,1.0,0.0
3864,69.0,0.0,60.0,2.0,0.0
3865,66.0,0.0,30.0,4.0,0.0
3866,74.0,0.0,30.0,4.0,0.0
3867,74.0,0.0,30.0,0.0,0.0
3868,83.0,15.0,15.0,6.0,0.0
3869,74.0,0.0,30.0,7.0,0.0
3870,81.0,1.0,15.0,6.0,0.0
3871,83.0,15.0,15.0,6.0,0.0
3872,69.0,0.0,30.0,7.0,0.0
3873,76.0,0.0,30.0,4.0,0.0
3874,67.0,0.0,30.0,4.0,0.0
3875,67.0,14.0,30.0,1.0,0.0
3876,76.0,0.0,30.0,0.0,0.0
3877,81.0,0.0,15.0,6.0,0.0
3878,69.0,0.0,30.0,4.0,0.0
3879,83.0,15.0,15.0,6.0,0.0
3880,78.0,0.0,30.0,0.0,0.0
3881,74.0,14.0,30.0,2.0,0.0
3882,69.0,0.0,30.0,1.0,0.0
3883,78.0,0.0,30.0,4.0,0.0
3884,66.0,0.0,30.0,7.0,0.0
3885,81.0,1.0,15.0,6.0,0.0
3886,73.0,0.0,30.0,2.0,0.0
3887,76.0,0.0,30.0,4.0,0.0
3888,67.0,1.0,30.0,4.0,0.0
3889,83.0,15.0,15.0,6.0,0.0
3890,76.0,14.0,30.0,0.0,0.0
3891,67.0,0.0,30.0,1.0,0.0
3892,69.0,0.0,30.0,7.0,0.0
3893,81.0,0.0,15.0,6.0,0.0
3894,74.0,0.0,30.0,2.0,0.0
3895,69.0,14.0,30.0,1.0,0.0
3896,69.0,1.0,30.0,4.0,0.0
3897,78.0,0.0,30.0,4.0,0.0
3898,74.0,0.0,30.0,7.0,0.0
3899,83.0,15.0,15.0,6.0,0.0
3900,78.0,0.0,30.0,0.0,0.0
3901,81.0,0.0,15.0,6.0,0.0
3902,73.0,0.0,30.0,2.0,0.0
3903,76.0,1.0,30.0,7.0,0.0
3904,76.0,0.0,30.0,0.0,0.0
3905,67.0,14.0,30.0,1.0,0.0
3906,76.0,0.0,30.0,4.0,0.0
3907,67.0,0.0,30.0,4.0,0.0
3908,83.0,15.0,15.0,6.0,0.0
3909,81.0,0.0,15.0,6.0,0.0
3910,50.0,14.0,30.0,3.0,0.0
3911,66.0,29.0,60.0,1.0,0.0
3912,69.0,0.0,60.0,2.0,0.0
3913,83.0,15.0,15.0,6.0,0.0
3914,78.0,0.0,30.0,7.0,0.0
3915,74.0,0.0,60.0,0.0,0.0
3916,50.0,0.0,60.0,5.0,0.0
3917,74.0,1.0,60.0,4.0,0.0
3918,66.0,0.0,60.0,4.0,0.0
3919,62.0,0.0,60.0,4.0,0.0
3920,57.0,0.0,60.0,5.0,0.0
3921,81.0,1.0,15.0,6.0,0.0
3922,83.0,15.0,15.0,6.0,0.0
3923,74.0,0.0,30.0,7.0,0.0
3924,81.0,0.0,15.0,6.0,0.0
3925,76.0,1.0,30.0,4.0,0.0
3926,69.0,0.0,30.0,7.0,0.0
3927,83.0,29.0,30.0,6.0,0.0
3928,62.0,0.0,30.0,3.0,0.0
3929,76.0,0.0,30.0,0.0,0.0
3930,62.0,0.0,60.0,5.0,0.0
3931,78.0,1.0,30.0,4.0,0.0
3932,81.0,29.0,30.0,6.0,0.0
3933,74.0,0.0,30.0,7.0,0.0
3934,78.0,0.0,30.0,0.0,0.0
3935,62.0,1.0,60.0,7.0,0.0
3936,79.0,1.0,30.0,4.0,0.0
3937,79.0,29.0,30.0,0.0,0.0
3938,59.0,0.0,30.0,3.0,0.0
3939,59.0,0.0,60.0,5.0,0.0
3940,81.0,30.0,30.0,0.0,0.0
3941,81.0,0.0,30.0,4.0,0.0
3942,83.0,29.0,60.0,0.0,0.0
3943,83.0,0.0,60.0,4.0,0.0
3944,55.0,29.0,30.0,3.0,0.0
3945,55.0,1.0,60.0,5.0,0.0
3946,74.0,0.0,60.0,6.0,0.0
3947,83.0,29.0,60.0,0.0,0.0
3948,83.0,0.0,60.0,4.0,0.0
3949,52.0,0.0,60.0,5.0,0.0
3950,79.0,30.0,30.0,6.0,0.0
3951,52.0,0.0,60.0,3.0,0.0
3952,78.0,1.0,30.0,6.0,0.0
3953,73.0,0.0,60.0,4.0,0.0
3954,73.0,29.0,60.0,0.0,0.0
3955,73.0,29.0,30.0,1.0,0.0
3956,76.0,1.0,30.0,6.0,0.0
3957,67.0,0.0,30.0,7.0,0.0
3958,64.0,0.0,30.0,2.0,0.0
3959,64.0,0.0,60.0,5.0,0.0
3960,55.0,0.0,30.0,3.0,0.0
3961,78.0,1.0,30.0,6.0,0.0
3962,69.0,0.0,30.0,7.0,0.0
3963,54.0,0.0,30.0,3.0,0.0
3964,79.0,0.0,30.0,6.0,0.0
3965,52.0,1.0,30.0,3.0,0.0
3966,64.0,0.0,30.0,2.0,0.0
3967,73.0,29.0,30.0,1.0,0.0
3968,71.0,30.0,60.0,7.0,0.0
3969,66.0,0.0,30.0,5.0,0.0
3970,50.0,0.0,30.0,3.0,0.0
3971,81.0,0.0,30.0,6.0,0.0
3972,76.0,0.0,30.0,1.0,0.0
3973,83.0,0.0,60.0,6.0,0.0
3974,49.0,0.0,30.0,3.0,0.0
3975,59.0,0.0,60.0,7.0,0.0
3976,64.0,1.0,30.0,5.0,0.0
3977,67.0,29.0,30.0,2.0,0.0
3978,47.0,31.0,30.0,3.0,0.0
3979,62.0,0.0,30.0,5.0,0.0
3980,67.0,0.0,30.0,2.0,0.0
3981,73.0,29.0,60.0,0.0,0.0
3982,64.0,0.0,60.0,7.0,0.0
3983,49.0,0.0,30.0,3.0,0.0
3984,83.0,0.0,60.0,6.0,0.0
3985,64.0,0.0,60.0,5.0,0.0
3986,76.0,29.0,30.0,1.0,0.0
3987,73.0,1.0,60.0,4.0,0.0
3988,73.0,1.0,60.0,6.0,0.0
3989,61.0,0.0,30.0,3.0,0.0
3990,61.0,0.0,60.0,5.0,0.0
3991,66.0,0.0,30.0,7.0,0.0
3992,74.0,1.0,30.0,4.0,0.0
3993,74.0,29.0,30.0,0.0,0.0
3994,67.0,0.0,30.0,7.0,0.0
3995,76.0,0.0,30.0,4.0,0.0
3996,76.0,29.0,30.0,0.0,0.0
3997,57.0,0.0,60.0,5.0,0.0
3998,57.0,29.0,30.0,3.0,0.0
3999,78.0,0.0,30.0,0.0,0.0
4000,78.0,1.0,30.0,4.0,0.0
4001,61.0,0.0,60.0,7.0,0.0
4002,79.0,30.0,30.0,0.0,0.0
4003,79.0,1.0,30.0,4.0,0.0
4004,54.0,0.0,60.0,5.0,0.0
4005,54.0,29.0,30.0,3.0,0.0
4006,73.0,0.0,60.0,6.0,0.0
4007,81.0,29.0,60.0,0.0,0.0
4008,81.0,1.0,60.0,4.0,0.0
4009,50.0,0.0,60.0,5.0,0.0
4010,81.0,0.0,60.0,4.0,0.0
4011,78.0,30.0,30.0,6.0,0.0
4012,50.0,0.0,60.0,3.0,0.0
4013,81.0,29.0,60.0,0.0,0.0
4014,76.0,1.0,30.0,6.0,0.0
4015,66.0,0.0,30.0,7.0,0.0
4016,69.0,0.0,30.0,1.0,0.0
4017,71.0,29.0,60.0,0.0,0.0
4018,54.0,0.0,30.0,3.0,0.0
4019,74.0,1.0,30.0,6.0,0.0
4020,62.0,29.0,30.0,2.0,0.0
4021,62.0,0.0,60.0,5.0,0.0
4022,71.0,1.0,60.0,4.0,0.0
4023,52.0,0.0,30.0,3.0,0.0
4024,76.0,0.0,30.0,6.0,0.0
4025,67.0,0.0,30.0,7.0,0.0
4026,69.0,29.0,30.0,1.0,0.0
4027,69.0,0.0,60.0,7.0,0.0
4028,78.0,1.0,30.0,6.0,0.0
4029,62.0,0.0,30.0,2.0,0.0
4030,50.0,0.0,30.0,3.0,0.0
4031,49.0,0.0,30.0,3.0,0.0
4032,64.0,0.0,30.0,5.0,0.0
4033,79.0,30.0,30.0,6.0,0.0
4034,81.0,0.0,60.0,6.0,0.0
4035,57.0,0.0,60.0,7.0,0.0
4036,62.0,1.0,30.0,5.0,0.0
4037,47.0,0.0,30.0,3.0,0.0
4038,66.0,29.0,30.0,2.0,0.0
4039,74.0,0.0,30.0,1.0,0.0
4040,61.0,31.0,30.0,5.0,0.0
4041,45.0,0.0,30.0,3.0,0.0
4042,74.0,0.0,30.0,1.0,0.0
4043,81.0,0.0,60.0,6.0,0.0
4044,66.0,0.0,30.0,2.0,0.0
4045,62.0,0.0,60.0,5.0,0.0
4046,62.0,0.0,60.0,7.0,0.0
4047,71.0,1.0,60.0,4.0,0.0
4048,47.0,29.0,30.0,3.0,0.0
4049,71.0,29.0,60.0,0.0,0.0
4050,73.0,29.0,30.0,0.0,0.0
4051,59.0,0.0,60.0,5.0,0.0
4052,71.0,1.0,60.0,6.0,0.0
4053,73.0,0.0,30.0,4.0,0.0
4054,64.0,1.0,30.0,7.0,0.0
4055,59.0,0.0,30.0,3.0,0.0
4056,66.0,0.0,30.0,7.0,0.0
4057,74.0,29.0,30.0,0.0,0.0
4058,74.0,0.0,30.0,4.0,0.0
4059,76.0,1.0,30.0,4.0,0.0
4060,55.0,0.0,60.0,5.0,0.0
4061,59.0,1.0,60.0,7.0,0.0
4062,55.0,0.0,30.0,3.0,0.0
4063,76.0,29.0,30.0,0.0,0.0
4064,78.0,0.0,30.0,4.0,0.0
4065,78.0,30.0,30.0,0.0,0.0
4066,52.0,0.0,60.0,5.0,0.0
4067,71.0,0.0,60.0,6.0,0.0
4068,79.0,1.0,60.0,4.0,0.0
4069,52.0,29.0,30.0,3.0,0.0
4070,76.0,30.0,30.0,6.0,0.0
4071,49.0,0.0,60.0,3.0,0.0
4072,49.0,0.0,60.0,5.0,0.0
4073,79.0,29.0,15.0,0.0,0.0
4074,79.0,1.0,60.0,4.0,0.0
4075,74.0,0.0,30.0,6.0,0.0
4076,52.0,0.0,30.0,3.0,0.0
4077,69.0,0.0,60.0,0.0,0.0
4078,57.0,29.0,30.0,2.0,0.0
4079,57.0,0.0,30.0,7.0,0.0
4080,73.0,1.0,30.0,6.0,0.0
4081,79.0,0.0,30.0,1.0,0.0
4082,69.0,0.0,60.0,4.0,0.0
4083,61.0,1.0,60.0,5.0,0.0
4084,59.0,0.0,30.0,7.0,0.0
4085,50.0,0.0,30.0,3.0,0.0
4086,74.0,0.0,30.0,6.0,0.0
4087,78.0,29.0,30.0,1.0,0.0
4088,59.0,0.0,30.0,2.0,0.0
4089,76.0,0.0,30.0,6.0,0.0
4090,76.0,29.0,30.0,1.0,0.0
4091,61.0,0.0,30.0,7.0,0.0
4092,49.0,1.0,30.0,3.0,0.0
4093,61.0,0.0,30.0,2.0,0.0
4094,62.0,1.0,30.0,7.0,0.0
4095,59.0,0.0,30.0,5.0,0.0
4096,78.0,0.0,30.0,6.0,0.0
4097,47.0,0.0,30.0,3.0,0.0
4098,74.0,0.0,30.0,1.0,0.0
4099,62.0,29.0,30.0,2.0,0.0
4100,57.0,1.0,30.0,5.0,0.0
4101,79.0,0.0,60.0,6.0,0.0
4102,73.0,29.0,30.0,1.0,0.0
4103,45.0,0.0,30.0,3.0,0.0
4104,64.0,0.0,60.0,7.0,0.0
4105,64.0,29.0,120.0,2.0,0.0
4106,43.0,0.0,30.0,3.0,0.0
4107,55.0,1.0,30.0,5.0,0.0
4108,71.0,29.0,30.0,1.0,0.0
4109,54.0,1.0,30.0,7.0,0.0
4110,69.0,0.0,60.0,6.0,0.0
4111,69.0,29.0,30.0,1.0,0.0
4112,54.0,0.0,120.0,5.0,0.0
4113,42.0,0.0,120.0,3.0,0.0
4114,57.0,1.0,30.0,7.0,0.0
4115,59.0,1.0,30.0,7.0,0.0
4116,62.0,29.0,60.0,2.0,0.0
4117,81.0,29.0,30.0,1.0,0.0
4118,74.0,0.0,30.0,6.0,0.0
4119,61.0,0.0,30.0,7.0,0.0
4120,76.0,1.0,30.0,6.0,0.0
4121,62.0,1.0,30.0,7.0,0.0
4122,86.0,0.0,60.0,4.0,0.0
4123,66.0,29.0,30.0,0.0,0.0
4124,78.0,0.0,30.0,6.0,0.0
4125,78.0,30.0,60.0,4.0,0.0
4126,81.0,0.0,60.0,4.0,0.0
4127,61.0,0.0,30.0,7.0,0.0
4128,76.0,0.0,30.0,6.0,0.0
4129,62.0,0.0,60.0,7.0,0.0
4130,81.0,30.0,60.0,4.0,0.0
4131,78.0,0.0,60.0,4.0,0.0
4132,74.0,0.0,60.0,4.0,0.0
4133,78.0,30.0,30.0,6.0,0.0
4134,76.0,0.0,30.0,6.0,0.0
4135,74.0,1.0,30.0,6.0,0.0
4136,71.0,29.0,30.0,1.0,0.0
4137,43.0,0.0,120.0,3.0,0.0
4138,55.0,0.0,120.0,5.0,0.0
4139,74.0,0.0,30.0,2.0,0.0
4140,71.0,0.0,30.0,6.0,0.0
4141,55.0,30.0,30.0,7.0,0.0
4142,79.0,29.0,30.0,1.0,0.0
4143,59.0,1.0,30.0,7.0,0.0
4144,69.0,0.0,30.0,2.0,0.0
4145,74.0,0.0,30.0,6.0,0.0
4146,61.0,0.0,30.0,7.0,0.0
4147,76.0,30.0,30.0,6.0,0.0
4148,62.0,0.0,30.0,7.0,0.0
4149,67.0,29.0,120.0,0.0,0.0
4150,81.0,0.0,60.0,4.0,0.0
4151,86.0,0.0,60.0,4.0,0.0
4152,78.0,0.0,60.0,4.0,0.0
4153,78.0,30.0,30.0,6.0,0.0
4154,76.0,30.0,30.0,6.0,0.0
4155,61.0,0.0,30.0,7.0,0.0
4156,74.0,0.0,60.0,4.0,0.0
4157,62.0,1.0,60.0,7.0,0.0
4158,78.0,0.0,60.0,4.0,0.0
4159,81.0,0.0,60.0,4.0,0.0
4160,78.0,30.0,30.0,6.0,0.0
4161,76.0,0.0,30.0,6.0,0.0
4162,69.0,29.0,30.0,1.0,0.0
4163,76.0,0.0,30.0,2.0,0.0
4164,74.0,1.0,30.0,6.0,0.0
4165,57.0,0.0,120.0,5.0,0.0
4166,45.0,0.0,120.0,3.0,0.0
4167,57.0,0.0,30.0,7.0,0.0
4168,69.0,30.0,30.0,6.0,0.0
4169,59.0,0.0,30.0,7.0,0.0
4170,78.0,0.0,30.0,1.0,0.0
4171,67.0,29.0,30.0,2.0,0.0
4172,74.0,1.0,30.0,6.0,0.0
4173,76.0,30.0,30.0,6.0,0.0
4174,61.0,0.0,30.0,7.0,0.0
4175,62.0,0.0,30.0,7.0,0.0
4176,69.0,29.0,120.0,0.0,0.0
4177,78.0,30.0,60.0,4.0,0.0
4178,86.0,0.0,60.0,4.0,0.0
4179,81.0,0.0,60.0,4.0,0.0
4180,78.0,30.0,30.0,6.0,0.0
4181,61.0,0.0,30.0,7.0,0.0
4182,76.0,0.0,30.0,6.0,0.0
4183,74.0,0.0,60.0,4.0,0.0
4184,78.0,0.0,60.0,4.0,0.0
4185,81.0,0.0,60.0,4.0,0.0
4186,62.0,0.0,60.0,7.0,0.0
4187,78.0,30.0,30.0,6.0,0.0
4188,76.0,1.0,30.0,6.0,0.0
4189,67.0,29.0,30.0,1.0,0.0
4190,78.0,0.0,30.0,2.0,0.0
4191,47.0,0.0,60.0,3.0,0.0
4192,74.0,1.0,30.0,6.0,0.0
4193,72.0,30.0,30.0,6.0,0.0
4194,71.0,0.0,30.0,6.0,0.0
4195,66.0,0.0,30.0,2.0,0.0
4196,50.0,0.0,30.0,3.0,0.0
4197,55.0,1.0,30.0,7.0,0.0
4198,74.0,29.0,30.0,1.0,0.0
4199,69.0,30.0,30.0,6.0,0.0
4200,57.0,0.0,30.0,7.0,0.0
4201,48.0,0.0,30.0,3.0,0.0
4202,86.0,0.0,30.0,4.0,0.0
4203,59.0,0.0,30.0,7.0,0.0
4204,47.0,0.0,60.0,3.0,0.0
4205,67.0,0.0,60.0,6.0,0.0
4206,86.0,29.0,30.0,0.0,0.0
4207,59.0,1.0,30.0,5.0,0.0
4208,84.0,29.0,30.0,0.0,0.0
4209,84.0,0.0,30.0,4.0,0.0
4210,60.0,0.0,30.0,5.0,0.0
4211,57.0,1.0,30.0,7.0,0.0
4212,67.0,0.0,60.0,6.0,0.0
4213,62.0,0.0,30.0,5.0,0.0
4214,83.0,0.0,30.0,4.0,0.0
4215,83.0,29.0,30.0,0.0,0.0
4216,50.0,0.0,30.0,3.0,0.0
4217,55.0,1.0,30.0,7.0,0.0
4218,81.0,29.0,30.0,0.0,0.0
4219,60.0,0.0,30.0,5.0,0.0
4220,48.0,0.0,30.0,3.0,0.0
4221,57.0,1.0,30.0,7.0,0.0
4222,81.0,0.0,30.0,4.0,0.0
4223,59.0,1.0,30.0,5.0,0.0
4224,74.0,29.0,30.0,2.0,0.0
4225,67.0,1.0,120.0,6.0,0.0
4226,74.0,0.0,30.0,1.0,0.0
4227,59.0,0.0,30.0,7.0,0.0
4228,47.0,0.0,60.0,3.0,0.0
4229,79.0,1.0,60.0,4.0,0.0
4230,57.0,0.0,30.0,7.0,0.0
4231,72.0,0.0,30.0,1.0,0.0
4232,72.0,0.0,30.0,2.0,0.0
4233,60.0,0.0,30.0,5.0,0.0
4234,79.0,29.0,15.0,0.0,0.0
4235,71.0,0.0,30.0,2.0,0.0
4236,62.0,0.0,30.0,5.0,0.0
4237,79.0,0.0,60.0,4.0,0.0
4238,50.0,0.0,30.0,3.0,0.0
4239,71.0,29.0,30.0,1.0,0.0
4240,55.0,1.0,30.0,7.0,0.0
4241,69.0,0.0,30.0,2.0,0.0
4242,60.0,0.0,30.0,5.0,0.0
4243,69.0,29.0,30.0,1.0,0.0
4244,57.0,0.0,30.0,7.0,0.0
4245,48.0,0.0,30.0,3.0,0.0
4246,79.0,0.0,120.0,4.0,0.0
4247,47.0,0.0,60.0,3.0,0.0
4248,79.0,0.0,150.0,0.0,0.0
4249,67.0,0.0,60.0,2.0,0.0
4250,59.0,0.0,60.0,7.0,0.0
4251,59.0,30.0,30.0,5.0,0.0
4252,67.0,29.0,60.0,1.0,0.0
4253,62.0,0.0,30.0,5.0,0.0
4254,66.0,1.0,30.0,6.0,0.0
4255,67.0,0.0,30.0,6.0,0.0
4256,52.0,30.0,30.0,3.0,0.0
4257,61.0,0.0,30.0,5.0,0.0
4258,55.0,0.0,60.0,7.0,0.0
4259,59.0,30.0,30.0,5.0,0.0
4260,71.0,0.0,30.0,6.0,0.0
4261,50.0,0.0,30.0,3.0,0.0
4262,76.0,1.0,30.0,6.0,0.0
4263,69.0,0.0,30.0,2.0,0.0
4264,76.0,29.0,30.0,1.0,0.0
4265,57.0,0.0,30.0,5.0,0.0
4266,49.0,0.0,60.0,3.0,0.0
4267,54.0,0.0,30.0,5.0,0.0
4268,69.0,29.0,30.0,0.0,0.0
4269,69.0,0.0,30.0,4.0,0.0
4270,74.0,1.0,30.0,6.0,0.0
4271,76.0,29.0,30.0,2.0,0.0
4272,67.0,1.0,30.0,4.0,0.0
4273,73.0,0.0,30.0,6.0,0.0
4274,57.0,0.0,30.0,7.0,0.0
4275,67.0,0.0,30.0,0.0,0.0
4276,69.0,0.0,30.0,1.0,0.0
4277,52.0,0.0,30.0,5.0,0.0
4278,52.0,0.0,30.0,3.0,0.0
4279,50.0,0.0,30.0,5.0,0.0
4280,50.0,0.0,30.0,3.0,0.0
4281,66.0,29.0,30.0,0.0,0.0
4282,59.0,0.0,30.0,7.0,0.0
4283,66.0,1.0,30.0,4.0,0.0
4284,71.0,0.0,30.0,6.0,0.0
4285,61.0,0.0,30.0,7.0,0.0
4286,64.0,29.0,30.0,0.0,0.0
4287,69.0,0.0,30.0,6.0,0.0
4288,64.0,0.0,30.0,4.0,0.0
4289,49.0,0.0,60.0,3.0,0.0
4290,49.0,1.0,30.0,5.0,0.0
4291,59.0,0.0,30.0,7.0,0.0
4292,50.0,0.0,30.0,5.0,0.0
4293,67.0,0.0,30.0,4.0,0.0
4294,67.0,1.0,30.0,6.0,0.0
4295,67.0,29.0,30.0,0.0,0.0
4296,69.0,29.0,30.0,0.0,0.0
4297,69.0,0.0,30.0,4.0,0.0
4298,66.0,0.0,30.0,6.0,0.0
4299,49.0,0.0,30.0,5.0,0.0
4300,52.0,1.0,30.0,3.0,0.0
4301,57.0,0.0,30.0,7.0,0.0
4302,67.0,1.0,30.0,6.0,0.0
4303,50.0,0.0,30.0,3.0,0.0
4304,71.0,29.0,30.0,0.0,0.0
4305,59.0,0.0,30.0,7.0,0.0
4306,71.0,0.0,30.0,4.0,0.0
4307,47.0,0.0,30.0,5.0,0.0
4308,49.0,0.0,60.0,3.0,0.0
4309,49.0,0.0,30.0,5.0,0.0
4310,76.0,0.0,30.0,2.0,0.0
4311,69.0,0.0,30.0,4.0,0.0
4312,67.0,0.0,120.0,6.0,0.0
4313,61.0,1.0,30.0,7.0,0.0
4314,76.0,29.0,30.0,1.0,0.0
4315,69.0,0.0,30.0,0.0,0.0
4316,50.0,0.0,30.0,5.0,0.0
4317,71.0,0.0,30.0,4.0,0.0
4318,74.0,29.0,30.0,1.0,0.0
4319,71.0,0.0,30.0,0.0,0.0
4320,74.0,0.0,30.0,2.0,0.0
4321,59.0,1.0,30.0,7.0,0.0
4322,49.0,1.0,30.0,5.0,0.0
4323,73.0,0.0,30.0,1.0,0.0
4324,73.0,29.0,30.0,2.0,0.0
4325,52.0,0.0,30.0,3.0,0.0
4326,73.0,0.0,30.0,0.0,0.0
4327,73.0,0.0,30.0,4.0,0.0
4328,57.0,0.0,30.0,7.0,0.0
4329,59.0,1.0,30.0,7.0,0.0
4330,47.0,0.0,30.0,5.0,0.0
4331,50.0,0.0,30.0,3.0,0.0
4332,71.0,29.0,30.0,2.0,0.0
4333,74.0,0.0,30.0,0.0,0.0
4334,74.0,0.0,30.0,4.0,0.0
4335,71.0,0.0,30.0,1.0,0.0
4336,61.0,0.0,60.0,7.0,0.0
4337,76.0,0.0,60.0,0.0,0.0
4338,69.0,0.0,60.0,1.0,0.0
4339,76.0,0.0,60.0,4.0,0.0
4340,69.0,29.0,60.0,2.0,0.0
4341,49.0,0.0,60.0,3.0,0.0
4342,49.0,30.0,30.0,5.0,0.0
4343,52.0,0.0,30.0,5.0,0.0
4344,69.0,1.0,30.0,6.0,0.0
4345,67.0,0.0,60.0,4.0,0.0
4346,45.0,0.0,60.0,3.0,0.0
4347,57.0,1.0,60.0,7.0,0.0
4348,67.0,29.0,60.0,0.0,0.0
4349,49.0,0.0,30.0,5.0,0.0
4350,73.0,30.0,30.0,6.0,0.0
4351,45.0,0.0,30.0,5.0,0.0
4352,76.0,0.0,30.0,6.0,0.0
4353,50.0,30.0,60.0,5.0,0.0
4354,50.0,29.0,30.0,3.0,0.0
4355,78.0,0.0,30.0,6.0,0.0
4356,62.0,1.0,30.0,7.0,0.0
4357,61.0,0.0,30.0,7.0,0.0
4358,76.0,0.0,30.0,6.0,0.0
4359,79.0,1.0,30.0,6.0,0.0
4360,47.0,29.0,30.0,3.0,0.0
4361,59.0,0.0,30.0,7.0,0.0
4362,78.0,0.0,30.0,6.0,0.0
4363,57.0,30.0,30.0,7.0,0.0
4364,83.0,0.0,30.0,6.0,0.0
4365,43.0,29.0,30.0,3.0,0.0
4366,55.0,1.0,30.0,7.0,0.0
4367,81.0,0.0,30.0,6.0,0.0
4368,54.0,30.0,30.0,7.0,0.0
4369,52.0,29.0,30.0,3.0,0.0
4370,79.0,1.0,30.0,6.0,0.0
4371,52.0,0.0,30.0,7.0,0.0
4372,78.0,30.0,30.0,6.0,0.0
4373,50.0,0.0,30.0,7.0,0.0
4374,49.0,29.0,30.0,3.0,0.0
4375,49.0,0.0,30.0,7.0,0.0
4376,76.0,1.0,30.0,6.0,0.0
4377,74.0,30.0,30.0,6.0,0.0
4378,47.0,0.0,30.0,7.0,0.0
4379,73.0,0.0,30.0,6.0,0.0
4380,45.0,29.0,30.0,3.0,0.0
4381,45.0,1.0,30.0,7.0,0.0
4382,43.0,0.0,30.0,7.0,0.0
4383,71.0,30.0,30.0,6.0,0.0
4384,54.0,29.0,30.0,3.0,0.0
4385,42.0,0.0,30.0,7.0,0.0
4386,69.0,1.0,30.0,6.0,0.0
4387,45.0,0.0,30.0,7.0,0.0
4388,67.0,30.0,30.0,6.0,0.0
4389,66.0,1.0,30.0,6.0,0.0
4390,47.0,0.0,30.0,7.0,0.0
4391,50.0,29.0,30.0,3.0,0.0
4392,49.0,0.0,30.0,7.0,0.0
4393,64.0,30.0,30.0,6.0,0.0
4394,50.0,30.0,30.0,7.0,0.0
4395,47.0,0.0,60.0,3.0,0.0
4396,66.0,0.0,60.0,6.0,0.0
4397,52.0,30.0,30.0,7.0,0.0
4398,59.0,0.0,30.0,3.0,0.0
4399,54.0,30.0,30.0,7.0,0.0
4400,74.0,0.0,60.0,6.0,0.0
4401,50.0,0.0,30.0,7.0,0.0
4402,57.0,30.0,30.0,3.0,0.0
4403,64.0,0.0,60.0,6.0,0.0
4404,55.0,0.0,30.0,3.0,0.0
4405,55.0,30.0,30.0,7.0,0.0
4406,54.0,0.0,30.0,3.0,0.0
4407,57.0,30.0,30.0,7.0,0.0
4408,73.0,0.0,60.0,6.0,0.0
4409,52.0,30.0,30.0,3.0,0.0
4410,55.0,0.0,30.0,7.0,0.0
4411,52.0,0.0,30.0,7.0,0.0
4412,55.0,30.0,30.0,3.0,0.0
4413,54.0,0.0,30.0,7.0,0.0
4414,74.0,0.0,30.0,6.0,0.0
4415,54.0,30.0,30.0,3.0,0.0
4416,52.0,0.0,30.0,3.0,0.0
4417,57.0,0.0,30.0,7.0,0.0
4418,73.0,30.0,30.0,6.0,0.0
4419,71.0,30.0,30.0,6.0,0.0
4420,59.0,0.0,30.0,7.0,0.0
4421,50.0,0.0,30.0,3.0,0.0
4422,49.0,0.0,30.0,3.0,0.0
4423,61.0,30.0,30.0,7.0,0.0
4424,69.0,0.0,30.0,6.0,0.0
4425,47.0,0.0,30.0,3.0,0.0
4426,62.0,30.0,30.0,7.0,0.0
4427,68.0,0.0,60.0,6.0,0.0
4428,61.0,30.0,30.0,7.0,0.0
4429,45.0,0.0,30.0,3.0,0.0
4430,77.0,0.0,120.0,6.0,0.0
4431,44.0,30.0,30.0,3.0,0.0
4432,62.0,29.0,120.0,7.0,0.0
4433,47.0,0.0,30.0,3.0,0.0
4434,56.0,60.0,30.0,7.0,0.0
4435,57.0,1.0,60.0,7.0,0.0
4436,45.0,0.0,60.0,3.0,0.0
4437,56.0,0.0,60.0,3.0,0.0
4438,59.0,0.0,60.0,7.0,0.0
4439,55.0,16.0,60.0,7.0,0.0
4440,76.0,30.0,30.0,6.0,0.0
4441,74.0,0.0,30.0,6.0,0.0
4442,57.0,0.0,60.0,3.0,0.0
4443,73.0,15.0,15.0,6.0,0.0
4444,57.0,31.0,60.0,7.0,0.0
4445,74.0,29.0,15.0,6.0,0.0
4446,73.0,29.0,60.0,6.0,0.0
4447,45.0,0.0,60.0,3.0,0.0
4448,45.0,60.0,60.0,7.0,0.0
4449,55.0,0.0,60.0,7.0,0.0
4450,74.0,0.0,30.0,6.0,0.0
4451,74.0,0.0,120.0,6.0,0.0
4452,69.0,1.0,60.0,4.0,0.0
4453,50.0,1.0,120.0,3.0,0.0
4454,66.0,0.0,120.0,4.0,0.0
4455,50.0,0.0,120.0,7.0,0.0
4456,54.0,0.0,120.0,7.0,0.0
4457,62.0,0.0,60.0,2.0,0.0
4458,54.0,0.0,120.0,5.0,0.0
4459,69.0,0.0,60.0,0.0,0.0
4460,62.0,0.0,120.0,5.0,0.0
4461,57.0,0.0,120.0,5.0,0.0
4462,50.0,0.0,120.0,5.0,0.0
4463,66.0,59.0,60.0,1.0,0.0
4464,69.0,0.0,60.0,1.0,0.0
4465,74.0,0.0,60.0,0.0,0.0
4466,74.0,0.0,60.0,4.0,0.0
4467,66.0,59.0,60.0,2.0,0.0
4468,69.0,0.0,60.0,4.0,0.0
4469,78.0,1.0,60.0,4.0,0.0
4470,74.0,59.0,60.0,1.0,0.0
4471,69.0,0.0,60.0,2.0,0.0
4472,78.0,0.0,60.0,0.0,0.0
4473,76.0,0.0,60.0,0.0,0.0
4474,73.0,0.0,60.0,1.0,0.0
4475,67.0,29.0,60.0,2.0,0.0
4476,67.0,0.0,60.0,4.0,0.0
4477,76.0,1.0,60.0,4.0,0.0
4478,69.0,29.0,60.0,0.0,0.0
4479,69.0,0.0,60.0,4.0,0.0
4480,62.0,0.0,120.0,5.0,0.0
4481,50.0,0.0,120.0,3.0,0.0
4482,66.0,30.0,30.0,4.0,0.0
4483,66.0,0.0,60.0,2.0,0.0
4484,74.0,0.0,60.0,1.0,0.0
4485,64.0,1.0,30.0,4.0,0.0
4486,74.0,1.0,30.0,4.0,0.0
4487,66.0,0.0,30.0,4.0,0.0
4488,74.0,29.0,30.0,0.0,0.0
4489,69.0,0.0,60.0,2.0,0.0
4490,66.0,0.0,30.0,1.0,0.0
4491,67.0,29.0,30.0,1.0,0.0
4492,76.0,0.0,30.0,0.0,0.0
4493,76.0,0.0,30.0,4.0,0.0
4494,67.0,1.0,30.0,4.0,0.0
4495,69.0,29.0,30.0,1.0,0.0
4496,78.0,0.0,30.0,0.0,0.0
4497,69.0,1.0,30.0,4.0,0.0
4498,74.0,0.0,30.0,2.0,0.0
4499,78.0,0.0,30.0,4.0,0.0
4500,67.0,0.0,30.0,4.0,0.0
4501,73.0,29.0,30.0,2.0,0.0
4502,76.0,0.0,30.0,0.0,0.0
4503,67.0,0.0,30.0,1.0,0.0
4504,76.0,1.0,30.0,4.0,0.0
4505,69.0,1.0,30.0,4.0,0.0
4506,78.0,0.0,30.0,4.0,0.0
4507,78.0,0.0,30.0,0.0,0.0
4508,69.0,29.0,30.0,1.0,0.0
4509,74.0,0.0,30.0,2.0,0.0
4510,67.0,30.0,30.0,1.0,0.0
4511,73.0,0.0,30.0,2.0,0.0
4512,76.0,0.0,30.0,0.0,0.0
4513,76.0,1.0,30.0,4.0,0.0
4514,67.0,0.0,30.0,4.0,0.0
4515,74.0,29.0,60.0,2.0,0.0
4516,50.0,29.0,30.0,3.0,0.0
4517,57.0,1.0,60.0,5.0,0.0
4518,74.0,0.0,60.0,0.0,0.0
4519,66.0,0.0,60.0,4.0,0.0
4520,74.0,0.0,60.0,4.0,0.0
4521,62.0,0.0,60.0,4.0,0.0
4522,66.0,0.0,60.0,1.0,0.0
4523,50.0,0.0,60.0,5.0,0.0
4524,76.0,0.0,30.0,0.0,0.0
4525,67.0,0.0,30.0,1.0,0.0
4526,71.0,0.0,60.0,2.0,0.0
4527,76.0,1.0,30.0,4.0,0.0
4528,62.0,1.0,60.0,5.0,0.0
4529,62.0,29.0,30.0,3.0,0.0
4530,69.0,29.0,30.0,1.0,0.0
4531,78.0,0.0,30.0,4.0,0.0
4532,78.0,0.0,30.0,0.0,0.0
4533,71.0,0.0,30.0,1.0,0.0
4534,62.0,30.0,60.0,2.0,0.0
4535,79.0,1.0,30.0,4.0,0.0
4536,79.0,0.0,30.0,0.0,0.0
4537,59.0,1.0,60.0,5.0,0.0
4538,59.0,29.0,30.0,3.0,0.0
4539,81.0,0.0,30.0,4.0,0.0
4540,73.0,0.0,30.0,1.0,0.0
4541,81.0,0.0,30.0,0.0,0.0
4542,55.0,29.0,30.0,3.0,0.0
4543,67.0,0.0,60.0,2.0,0.0
4544,83.0,1.0,60.0,4.0,0.0
4545,55.0,0.0,60.0,5.0,0.0
4546,74.0,0.0,15.0,1.0,0.0
4547,61.0,1.0,60.0,5.0,0.0
4548,83.0,59.0,15.0,0.0,0.0
4549,83.0,0.0,60.0,4.0,0.0
4550,67.0,0.0,60.0,2.0,0.0
4551,49.0,0.0,60.0,3.0,0.0
4552,69.0,29.0,60.0,2.0,0.0
4553,61.0,30.0,30.0,3.0,0.0
4554,76.0,0.0,60.0,0.0,0.0
4555,67.0,0.0,60.0,1.0,0.0
4556,49.0,0.0,60.0,5.0,0.0
4557,76.0,1.0,60.0,4.0,0.0
4558,62.0,0.0,30.0,3.0,0.0
4559,83.0,0.0,60.0,6.0,0.0
4560,64.0,30.0,30.0,3.0,0.0
4561,61.0,60.0,60.0,7.0,0.0
4562,66.0,0.0,30.0,3.0,0.0
4563,76.0,0.0,60.0,6.0,0.0
4564,49.0,0.0,60.0,7.0,0.0
4565,67.0,60.0,60.0,3.0,0.0
4566,64.0,0.0,120.0,5.0,0.0
4567,76.0,0.0,60.0,2.0,0.0
4568,57.0,0.0,120.0,3.0,0.0
4569,61.0,1.0,120.0,5.0,0.0
4570,67.0,1.0,60.0,4.0,0.0
4571,57.0,0.0,120.0,5.0,0.0
4572,73.0,0.0,60.0,1.0,0.0
4573,67.0,59.0,60.0,0.0,0.0
4574,69.0,0.0,60.0,1.0,0.0
4575,64.0,59.0,60.0,2.0,0.0
4576,73.0,0.0,60.0,0.0,0.0
4577,73.0,0.0,60.0,4.0,0.0
4578,73.0,59.0,60.0,1.0,0.0
4579,67.0,1.0,60.0,4.0,0.0
4580,76.0,0.0,60.0,4.0,0.0
4581,76.0,0.0,60.0,0.0,0.0
4582,69.0,0.0,60.0,2.0,0.0
4583,69.0,29.0,60.0,2.0,0.0
4584,74.0,0.0,60.0,0.0,0.0
4585,69.0,0.0,60.0,1.0,0.0
4586,74.0,0.0,60.0,4.0,0.0
4587,66.0,1.0,60.0,4.0,0.0
4588,45.0,0.0,120.0,3.0,0.0
4589,67.0,0.0,60.0,0.0,0.0
4590,57.0,0.0,120.0,5.0,0.0
4591,64.0,30.0,30.0,4.0,0.0
4592,73.0,29.0,60.0,1.0,0.0
4593,76.0,0.0,60.0,2.0,0.0
4594,67.0,0.0,60.0,4.0,0.0
4595,62.0,1.0,30.0,4.0,0.0
4596,73.0,1.0,30.0,4.0,0.0
4597,73.0,29.0,30.0,0.0,0.0
4598,64.0,0.0,30.0,4.0,0.0
4599,64.0,0.0,30.0,2.0,0.0
4600,69.0,0.0,30.0,1.0,0.0
4601,74.0,0.0,30.0,0.0,0.0
4602,66.0,29.0,30.0,2.0,0.0
4603,71.0,0.0,30.0,1.0,0.0
4604,74.0,1.0,30.0,4.0,0.0
4605,66.0,0.0,30.0,4.0,0.0
4606,76.0,1.0,30.0,4.0,0.0
4607,67.0,0.0,30.0,4.0,0.0
4608,67.0,29.0,30.0,2.0,0.0
4609,76.0,0.0,30.0,0.0,0.0
4610,73.0,0.0,30.0,1.0,0.0
4611,74.0,0.0,30.0,0.0,0.0
4612,66.0,29.0,30.0,2.0,0.0
4613,71.0,0.0,30.0,1.0,0.0
4614,74.0,1.0,30.0,4.0,0.0
4615,66.0,0.0,30.0,4.0,0.0
4616,76.0,29.0,30.0,0.0,0.0
4617,73.0,0.0,30.0,1.0,0.0
4618,67.0,0.0,30.0,2.0,0.0
4619,76.0,1.0,30.0,4.0,0.0
4620,67.0,0.0,30.0,4.0,0.0
4621,66.0,1.0,30.0,4.0,0.0
4622,71.0,0.0,30.0,1.0,0.0
4623,74.0,0.0,30.0,4.0,0.0
4624,74.0,59.0,30.0,0.0,0.0
4625,66.0,0.0,30.0,2.0,0.0
4626,73.0,0.0,60.0,4.0,0.0
4627,67.0,0.0,60.0,4.0,0.0
4628,64.0,0.0,60.0,2.0,0.0
4629,69.0,0.0,60.0,1.0,0.0
4630,64.0,0.0,60.0,5.0,0.0
4631,57.0,0.0,60.0,5.0,0.0
4632,73.0,29.0,60.0,0.0,0.0
4633,57.0,1.0,60.0,3.0,0.0
4634,59.0,0.0,60.0,3.0,0.0
4635,79.0,0.0,60.0,1.0,0.0
4636,74.0,29.0,30.0,0.0,0.0
4637,74.0,1.0,30.0,4.0,0.0
4638,59.0,1.0,60.0,5.0,0.0
4639,76.0,29.0,30.0,0.0,0.0
4640,76.0,0.0,30.0,4.0,0.0
4641,78.0,1.0,30.0,4.0,0.0
4642,74.0,0.0,15.0,2.0,0.0
4643,78.0,29.0,30.0,0.0,0.0
4644,78.0,0.0,60.0,1.0,0.0
4645,57.0,0.0,60.0,5.0,0.0
4646,57.0,1.0,60.0,3.0,0.0
4647,79.0,59.0,30.0,0.0,0.0
4648,79.0,0.0,30.0,4.0,0.0
4649,55.0,0.0,60.0,5.0,0.0
4650,81.0,0.0,60.0,4.0,0.0
4651,73.0,0.0,60.0,2.0,0.0
4652,81.0,0.0,60.0,0.0,0.0
4653,55.0,1.0,60.0,3.0,0.0
4654,76.0,29.0,60.0,1.0,0.0
4655,74.0,0.0,60.0,1.0,0.0
4656,54.0,30.0,30.0,3.0,0.0
4657,74.0,0.0,60.0,2.0,0.0
4658,81.0,0.0,60.0,4.0,0.0
4659,54.0,0.0,60.0,5.0,0.0
4660,81.0,29.0,60.0,0.0,0.0
4661,52.0,1.0,30.0,3.0,0.0
4662,42.0,0.0,60.0,5.0,0.0
4663,69.0,0.0,60.0,1.0,0.0
4664,54.0,30.0,30.0,3.0,0.0
4665,66.0,0.0,60.0,2.0,0.0
4666,74.0,29.0,60.0,0.0,0.0
4667,74.0,0.0,60.0,4.0,0.0
4668,55.0,1.0,30.0,3.0,0.0
4669,57.0,30.0,30.0,3.0,0.0
4670,81.0,0.0,60.0,6.0,0.0
4671,66.0,60.0,60.0,7.0,0.0
4672,59.0,0.0,30.0,3.0,0.0
4673,60.0,0.0,60.0,3.0,0.0
4674,74.0,60.0,60.0,6.0,0.0
4675,54.0,0.0,60.0,7.0,0.0
4676,47.0,0.0,120.0,3.0,0.0
4677,59.0,0.0,60.0,7.0,0.0
4678,59.0,0.0,60.0,5.0,0.0
4679,80.0,30.0,60.0,6.0,0.0
4680,47.0,30.0,60.0,5.0,0.0
4681,74.0,0.0,30.0,6.0,0.0
4682,62.0,30.0,30.0,7.0,0.0
4683,83.0,0.0,30.0,4.0,0.0
4684,84.0,0.0,30.0,4.0,0.0
4685,60.0,0.0,30.0,7.0,0.0
4686,76.0,0.0,30.0,6.0,0.0
4687,86.0,30.0,30.0,4.0,0.0
4688,71.0,0.0,120.0,2.0,0.0
4689,59.0,0.0,60.0,7.0,0.0
4690,77.0,0.0,60.0,6.0,0.0
4691,59.0,0.0,120.0,0.0,0.0
4692,80.0,29.0,120.0,1.0,0.0
4693,84.0,30.0,30.0,4.0,0.0
4694,47.0,0.0,60.0,7.0,0.0
4695,80.0,0.0,60.0,6.0,0.0
4696,86.0,30.0,30.0,4.0,0.0
4697,83.0,1.0,30.0,4.0,0.0
4698,60.0,0.0,60.0,5.0,0.0
4699,48.0,30.0,60.0,7.0,0.0
4700,81.0,0.0,60.0,6.0,0.0
4701,48.0,30.0,120.0,3.0,0.0
4702,76.0,30.0,30.0,4.0,0.0
4703,80.0,0.0,30.0,4.0,0.0
4704,48.0,0.0,60.0,5.0,0.0
4705,64.0,30.0,30.0,7.0,0.0
4706,72.0,0.0,30.0,6.0,0.0
4707,81.0,0.0,30.0,4.0,0.0
4708,83.0,0.0,30.0,4.0,0.0
4709,62.0,0.0,30.0,7.0,0.0
4710,74.0,0.0,30.0,6.0,0.0
4711,60.0,0.0,60.0,7.0,0.0
4712,76.0,0.0,60.0,6.0,0.0
4713,69.0,29.0,120.0,2.0,0.0
4714,81.0,0.0,120.0,1.0,0.0
4715,60.0,0.0,120.0,0.0,0.0
4716,84.0,30.0,30.0,4.0,0.0
4717,83.0,30.0,30.0,4.0,0.0
4718,48.0,0.0,60.0,7.0,0.0
4719,81.0,1.0,60.0,6.0,0.0
4720,84.0,30.0,30.0,4.0,0.0
4721,81.0,0.0,30.0,4.0,0.0
4722,50.0,0.0,120.0,3.0,0.0
4723,50.0,30.0,60.0,7.0,0.0
4724,62.0,0.0,60.0,5.0,0.0
4725,76.0,30.0,30.0,4.0,0.0
4726,83.0,0.0,60.0,6.0,0.0
4727,78.0,0.0,30.0,4.0,0.0
4728,65.0,30.0,30.0,7.0,0.0
4729,80.0,0.0,30.0,4.0,0.0
4730,50.0,0.0,60.0,5.0,0.0
4731,71.0,0.0,30.0,6.0,0.0
4732,81.0,0.0,30.0,4.0,0.0
4733,64.0,30.0,30.0,7.0,0.0
4734,72.0,0.0,30.0,6.0,0.0
4735,83.0,30.0,30.0,4.0,0.0
4736,62.0,0.0,60.0,7.0,0.0
4737,77.0,20.0,120.0,1.0,0.0
4738,74.0,0.0,60.0,6.0,0.0
4739,62.0,0.0,120.0,0.0,0.0
4740,68.0,0.0,120.0,2.0,0.0
4741,81.0,30.0,30.0,4.0,0.0
4742,83.0,0.0,60.0,6.0,0.0
4743,50.0,1.0,60.0,7.0,0.0
4744,83.0,30.0,30.0,4.0,0.0
4745,80.0,0.0,30.0,4.0,0.0
4746,60.0,11.0,30.0,5.0,0.0
4747,52.0,1.0,120.0,3.0,0.0
4748,84.0,0.0,60.0,6.0,0.0
4749,52.0,0.0,60.0,7.0,0.0
4750,81.0,9.0,20.0,4.0,0.0
4751,83.0,19.0,20.0,4.0,0.0
4752,62.0,1.0,30.0,5.0,0.0
4753,81.0,15.0,20.0,4.0,0.0
4754,60.0,0.0,30.0,7.0,0.0
4755,69.0,1.0,30.0,6.0,0.0
4756,64.0,0.0,30.0,5.0,0.0
4757,83.0,14.0,15.0,4.0,0.0
4758,81.0,15.0,15.0,4.0,0.0
4759,62.0,0.0,30.0,5.0,0.0
4760,59.0,0.0,30.0,7.0,0.0
4761,83.0,14.0,15.0,4.0,0.0
4762,71.0,0.0,30.0,6.0,0.0
4763,81.0,15.0,15.0,4.0,0.0
4764,64.0,0.0,120.0,2.0,0.0
4765,57.0,0.0,30.0,7.0,0.0
4766,72.0,0.0,60.0,6.0,0.0
4767,76.0,0.0,120.0,1.0,0.0
4768,64.0,0.0,120.0,0.0,0.0
4769,60.0,1.0,30.0,5.0,0.0
4770,83.0,14.0,15.0,4.0,0.0
4771,81.0,15.0,15.0,4.0,0.0
4772,59.0,0.0,30.0,5.0,0.0
4773,55.0,1.0,30.0,7.0,0.0
4774,83.0,14.0,15.0,4.0,0.0
4775,81.0,15.0,15.0,4.0,0.0
4776,84.0,0.0,60.0,6.0,0.0
4777,57.0,1.0,30.0,5.0,0.0
4778,83.0,14.0,15.0,4.0,0.0
4779,54.0,0.0,30.0,7.0,0.0
4780,81.0,15.0,15.0,4.0,0.0
4781,52.0,1.0,30.0,7.0,0.0
4782,55.0,0.0,30.0,5.0,0.0
4783,83.0,14.0,15.0,4.0,0.0
4784,81.0,15.0,15.0,4.0,0.0
4785,54.0,0.0,60.0,5.0,0.0
4786,74.0,10.0,20.0,6.0,0.0
4787,54.0,1.0,30.0,7.0,0.0
4788,83.0,4.0,15.0,4.0,0.0
4789,54.0,0.0,120.0,3.0,0.0
4790,81.0,9.0,15.0,4.0,0.0
4791,76.0,20.0,20.0,6.0,0.0
4792,57.0,0.0,30.0,7.0,0.0
4793,74.0,0.0,30.0,4.0,0.0
4794,74.0,15.0,20.0,6.0,0.0
4795,81.0,0.0,30.0,4.0,0.0
4796,60.0,0.0,30.0,7.0,0.0
4797,66.0,15.0,30.0,5.0,0.0
4798,76.0,15.0,15.0,6.0,0.0
4799,74.0,0.0,15.0,6.0,0.0
4800,59.0,0.0,30.0,7.0,0.0
4801,76.0,15.0,15.0,6.0,0.0
4802,83.0,0.0,30.0,4.0,0.0
4803,68.0,0.0,30.0,5.0,0.0
4804,74.0,15.0,15.0,6.0,0.0
4805,74.0,0.0,120.0,1.0,0.0
4806,66.0,0.0,120.0,0.0,0.0
4807,57.0,0.0,30.0,7.0,0.0
4808,76.0,15.0,15.0,6.0,0.0
4809,84.0,15.0,30.0,4.0,0.0
4810,69.0,0.0,60.0,5.0,0.0
4811,69.0,14.0,120.0,2.0,0.0
4812,74.0,0.0,15.0,6.0,0.0
4813,76.0,15.0,15.0,6.0,0.0
4814,83.0,0.0,30.0,4.0,0.0
4815,55.0,0.0,30.0,7.0,0.0
4816,74.0,15.0,15.0,6.0,0.0
4817,84.0,15.0,30.0,4.0,0.0
4818,54.0,0.0,30.0,7.0,0.0
4819,57.0,0.0,60.0,5.0,0.0
4820,76.0,15.0,15.0,6.0,0.0
4821,74.0,0.0,15.0,6.0,0.0
4822,76.0,15.0,15.0,6.0,0.0
4823,57.0,1.0,30.0,7.0,0.0
4824,81.0,0.0,30.0,4.0,0.0
4825,74.0,0.0,15.0,6.0,0.0
4826,76.0,15.0,15.0,6.0,0.0
4827,64.0,0.0,60.0,5.0,0.0
4828,83.0,15.0,30.0,4.0,0.0
4829,56.0,0.0,30.0,7.0,0.0
4830,56.0,0.0,120.0,3.0,0.0
4831,74.0,0.0,15.0,6.0,0.0
4832,76.0,15.0,15.0,6.0,0.0
4833,54.0,0.0,30.0,7.0,0.0
4834,81.0,15.0,30.0,4.0,0.0
4835,74.0,0.0,15.0,6.0,0.0
4836,59.0,15.0,30.0,5.0,0.0
4837,76.0,15.0,15.0,6.0,0.0
4838,80.0,0.0,30.0,4.0,0.0
4839,52.0,0.0,30.0,7.0,0.0
4840,74.0,0.0,15.0,6.0,0.0
4841,54.0,0.0,30.0,7.0,0.0
4842,76.0,15.0,15.0,6.0,0.0
4843,57.0,0.0,30.0,5.0,0.0
4844,78.0,15.0,30.0,4.0,0.0
4845,74.0,0.0,15.0,6.0,0.0
4846,76.0,0.0,60.0,4.0,0.0
4847,56.0,0.0,60.0,5.0,0.0
4848,68.0,0.0,120.0,0.0,0.0
4849,76.0,15.0,15.0,6.0,0.0
4850,68.0,14.0,120.0,2.0,0.0
4851,83.0,0.0,120.0,1.0,0.0
4852,56.0,0.0,30.0,7.0,0.0
4853,74.0,15.0,15.0,6.0,0.0
4854,57.0,0.0,30.0,7.0,0.0
4855,76.0,15.0,15.0,6.0,0.0
4856,74.0,15.0,15.0,6.0,0.0
4857,76.0,15.0,15.0,6.0,0.0
4858,52.0,0.0,60.0,5.0,0.0
4859,59.0,0.0,30.0,7.0,0.0
4860,76.0,0.0,60.0,4.0,0.0
4861,74.0,15.0,15.0,6.0,0.0
4862,56.0,1.0,30.0,7.0,0.0
4863,76.0,15.0,15.0,6.0,0.0
4864,74.0,0.0,15.0,6.0,0.0
4865,57.0,0.0,60.0,7.0,0.0
4866,57.0,0.0,30.0,5.0,0.0
4867,76.0,0.0,60.0,4.0,0.0
4868,76.0,15.0,15.0,6.0,0.0
4869,57.0,30.0,60.0,3.0,0.0
4870,74.0,30.0,15.0,6.0,0.0
4871,56.0,0.0,30.0,5.0,0.0
4872,71.0,0.0,30.0,6.0,0.0
4873,57.0,30.0,30.0,5.0,0.0
4874,64.0,0.0,60.0,2.0,0.0
4875,72.0,0.0,30.0,6.0,0.0
4876,55.0,0.0,60.0,7.0,0.0
4877,55.0,0.0,60.0,3.0,0.0
4878,88.0,0.0,120.0,4.0,0.0
4879,88.0,0.0,120.0,0.0,0.0
4880,72.0,29.0,60.0,1.0,0.0
4881,60.0,0.0,30.0,5.0,0.0
4882,76.0,1.0,30.0,6.0,0.0
4883,74.0,0.0,60.0,1.0,0.0
4884,53.0,1.0,60.0,3.0,0.0
4885,65.0,0.0,30.0,5.0,0.0
4886,81.0,30.0,30.0,6.0,0.0
4887,53.0,0.0,60.0,7.0,0.0
4888,65.0,29.0,60.0,2.0,0.0
4889,64.0,0.0,30.0,5.0,0.0
4890,84.0,0.0,30.0,6.0,0.0
4891,65.0,0.0,30.0,5.0,0.0
4892,68.0,0.0,60.0,1.0,0.0
4893,83.0,1.0,30.0,6.0,0.0
4894,59.0,29.0,60.0,2.0,0.0
4895,86.0,29.0,30.0,0.0,0.0
4896,65.0,0.0,60.0,3.0,0.0
4897,65.0,0.0,60.0,7.0,0.0
4898,86.0,1.0,90.0,4.0,0.0
4899,62.0,0.0,30.0,5.0,0.0
4900,88.0,0.0,30.0,0.0,0.0
4901,81.0,1.0,30.0,6.0,0.0
4902,64.0,0.0,60.0,3.0,0.0
4903,74.0,0.0,120.0,1.0,0.0
4904,83.0,0.0,30.0,6.0,0.0
4905,59.0,0.0,60.0,5.0,0.0
4906,64.0,0.0,120.0,7.0,0.0
4907,86.0,29.0,30.0,0.0,0.0
4908,64.0,0.0,120.0,2.0,0.0
4909,81.0,0.0,30.0,6.0,0.0
4910,84.0,30.0,30.0,4.0,0.0
4911,88.0,29.0,90.0,0.0,0.0
4912,80.0,0.0,30.0,6.0,0.0
4913,64.0,0.0,30.0,5.0,0.0
4914,62.0,0.0,60.0,3.0,0.0
4915,83.0,30.0,30.0,4.0,0.0
4916,81.0,0.0,30.0,4.0,0.0
4917,78.0,1.0,30.0,6.0,0.0
4918,66.0,0.0,30.0,5.0,0.0
4919,76.0,0.0,180.0,6.0,0.0
4920,60.0,0.0,60.0,3.0,0.0
4921,83.0,30.0,30.0,4.0,0.0
4922,68.0,30.0,60.0,5.0,0.0
4923,77.0,0.0,30.0,4.0,0.0
4924,62.0,0.0,30.0,7.0,0.0
4925,59.0,0.0,60.0,3.0,0.0
4926,60.0,30.0,30.0,7.0,0.0
4927,56.0,30.0,60.0,5.0,0.0
4928,76.0,0.0,30.0,4.0,0.0
4929,74.0,0.0,30.0,4.0,0.0
4930,59.0,0.0,30.0,7.0,0.0
4931,60.0,0.0,60.0,7.0,0.0
4932,72.0,30.0,30.0,4.0,0.0
4933,57.0,30.0,120.0,3.0,0.0
4934,69.0,0.0,30.0,4.0,0.0
4935,57.0,30.0,30.0,5.0,0.0
4936,74.0,0.0,30.0,4.0,0.0
4937,56.0,30.0,30.0,5.0,0.0
4938,77.0,0.0,60.0,6.0,0.0
4939,69.0,0.0,30.0,4.0,0.0
4940,57.0,0.0,30.0,5.0,0.0
4941,69.0,0.0,120.0,0.0,0.0
4942,69.0,29.0,120.0,2.0,0.0
4943,45.0,30.0,60.0,5.0,0.0
4944,69.0,0.0,120.0,1.0,0.0
4945,76.0,0.0,60.0,6.0,0.0
4946,72.0,30.0,30.0,4.0,0.0
4947,69.0,0.0,30.0,4.0,0.0
4948,57.0,0.0,30.0,7.0,0.0
4949,71.0,0.0,30.0,4.0,0.0
4950,56.0,30.0,30.0,7.0,0.0
4951,74.0,0.0,60.0,6.0,0.0
4952,69.0,0.0,30.0,4.0,0.0
4953,57.0,1.0,30.0,7.0,0.0
4954,72.0,30.0,30.0,4.0,0.0
4955,57.0,30.0,120.0,3.0,0.0
4956,45.0,0.0,60.0,7.0,0.0
4957,76.0,0.0,60.0,6.0,0.0
4958,57.0,30.0,30.0,5.0,0.0
4959,69.0,0.0,30.0,4.0,0.0
4960,74.0,0.0,60.0,6.0,0.0
4961,77.0,0.0,30.0,4.0,0.0
4962,56.0,30.0,30.0,5.0,0.0
4963,69.0,0.0,30.0,4.0,0.0
4964,57.0,0.0,30.0,5.0,0.0
4965,69.0,0.0,120.0,2.0,0.0
4966,69.0,29.0,120.0,0.0,0.0
4967,76.0,30.0,30.0,4.0,0.0
4968,45.0,0.0,60.0,5.0,0.0
4969,72.0,0.0,60.0,6.0,0.0
4970,69.0,0.0,120.0,1.0,0.0
4971,69.0,30.0,30.0,4.0,0.0
4972,57.0,0.0,30.0,7.0,0.0
4973,56.0,0.0,30.0,7.0,0.0
4974,74.0,30.0,30.0,4.0,0.0
4975,71.0,0.0,60.0,6.0,0.0
4976,57.0,0.0,30.0,7.0,0.0
4977,69.0,1.0,30.0,4.0,0.0
4978,57.0,0.0,120.0,3.0,0.0
4979,72.0,30.0,60.0,6.0,0.0
4980,76.0,30.0,30.0,4.0,0.0
4981,45.0,0.0,60.0,7.0,0.0
4982,57.0,0.0,30.0,5.0,0.0
4983,69.0,0.0,30.0,4.0,0.0
4984,77.0,30.0,60.0,6.0,0.0
4985,74.0,0.0,30.0,4.0,0.0
4986,56.0,30.0,30.0,5.0,0.0
4987,69.0,0.0,30.0,4.0,0.0
4988,57.0,0.0,30.0,5.0,0.0
4989,72.0,30.0,30.0,4.0,0.0
4990,69.0,29.0,120.0,2.0,0.0
4991,69.0,0.0,120.0,1.0,0.0
4992,69.0,0.0,120.0,0.0,0.0
4993,45.0,0.0,60.0,5.0,0.0
4994,76.0,0.0,60.0,6.0,0.0
4995,69.0,0.0,30.0,4.0,0.0
4996,57.0,30.0,30.0,7.0,0.0
4997,71.0,30.0,30.0,4.0,0.0
4998,74.0,0.0,60.0,6.0,0.0
4999,56.0,0.0,30.0,7.0,0.0
5000,69.0,0.0,30.0,4.0,0.0
5001,57.0,1.0,30.0,7.0,0.0
5002,57.0,30.0,60.0,3.0,0.0
5003,72.0,30.0,30.0,4.0,0.0
5004,76.0,0.0,30.0,6.0,0.0
5005,45.0,0.0,60.0,7.0,0.0
5006,71.0,0.0,30.0,4.0,0.0
5007,74.0,0.0,30.0,6.0,0.0
5008,45.0,0.0,30.0,3.0,0.0
5009,76.0,29.0,30.0,0.0,0.0
5010,72.0,1.0,30.0,6.0,0.0
5011,72.0,0.0,30.0,2.0,0.0
5012,57.0,0.0,30.0,5.0,0.0
5013,76.0,0.0,30.0,1.0,0.0
5014,69.0,0.0,30.0,4.0,0.0
5015,71.0,0.0,30.0,6.0,0.0
5016,71.0,0.0,30.0,4.0,0.0
5017,44.0,0.0,30.0,3.0,0.0
5018,56.0,30.0,30.0,5.0,0.0
5019,76.0,29.0,30.0,2.0,0.0
5020,81.0,0.0,30.0,1.0,0.0
5021,72.0,0.0,30.0,4.0,0.0
5022,45.0,0.0,30.0,3.0,0.0
5023,72.0,0.0,30.0,0.0,0.0
5024,69.0,0.0,60.0,6.0,0.0
5025,57.0,1.0,30.0,5.0,0.0
5026,74.0,0.0,30.0,4.0,0.0
5027,47.0,0.0,30.0,3.0,0.0
5028,57.0,30.0,30.0,7.0,0.0
5029,59.0,0.0,30.0,5.0,0.0
5030,76.0,0.0,30.0,4.0,0.0
5031,60.0,30.0,30.0,5.0,0.0
5032,55.0,0.0,30.0,7.0,0.0
5033,48.0,0.0,30.0,3.0,0.0
5034,77.0,0.0,30.0,4.0,0.0
5035,62.0,0.0,30.0,5.0,0.0
5036,53.0,30.0,30.0,7.0,0.0
5037,50.0,0.0,30.0,3.0,0.0
5038,52.0,0.0,120.0,3.0,0.0
5039,52.0,30.0,30.0,7.0,0.0
5040,71.0,0.0,60.0,6.0,0.0
5041,68.0,0.0,30.0,4.0,0.0
5042,64.0,30.0,60.0,5.0,0.0
5043,76.0,0.0,30.0,4.0,0.0
5044,64.0,0.0,30.0,7.0,0.0
5045,69.0,30.0,30.0,4.0,0.0
5046,72.0,0.0,60.0,6.0,0.0
5047,63.0,0.0,30.0,7.0,0.0
5048,76.0,30.0,30.0,4.0,0.0
5049,64.0,0.0,30.0,7.0,0.0
5050,56.0,0.0,60.0,7.0,0.0
5051,64.0,0.0,120.0,0.0,0.0
5052,71.0,30.0,30.0,4.0,0.0
5053,64.0,29.0,120.0,2.0,0.0
5054,64.0,0.0,120.0,1.0,0.0
5055,74.0,0.0,60.0,6.0,0.0
5056,76.0,0.0,30.0,4.0,0.0
5057,64.0,30.0,30.0,5.0,0.0
5058,72.0,1.0,60.0,6.0,0.0
5059,63.0,0.0,30.0,5.0,0.0
5060,69.0,30.0,30.0,4.0,0.0
5061,64.0,0.0,30.0,5.0,0.0
5062,76.0,0.0,30.0,4.0,0.0
5063,68.0,30.0,30.0,4.0,0.0
5064,71.0,0.0,60.0,6.0,0.0
5065,52.0,0.0,120.0,3.0,0.0
5066,52.0,0.0,60.0,5.0,0.0
5067,64.0,0.0,30.0,4.0,0.0
5068,56.0,30.0,30.0,7.0,0.0
5069,59.0,0.0,30.0,7.0,0.0
5070,77.0,0.0,60.0,6.0,0.0
5071,62.0,30.0,30.0,4.0,0.0
5072,62.0,0.0,30.0,7.0,0.0
5073,59.0,30.0,30.0,4.0,0.0
5074,64.0,0.0,120.0,0.0,0.0
5075,60.0,0.0,60.0,7.0,0.0
5076,76.0,0.0,60.0,6.0,0.0
5077,64.0,0.0,120.0,1.0,0.0
5078,64.0,29.0,120.0,2.0,0.0
5079,60.0,30.0,30.0,4.0,0.0
5080,64.0,0.0,30.0,4.0,0.0
5081,52.0,30.0,30.0,5.0,0.0
5082,69.0,0.0,30.0,4.0,0.0
5083,72.0,0.0,60.0,6.0,0.0
5084,51.0,30.0,30.0,5.0,0.0
5085,72.0,1.0,30.0,4.0,0.0
5086,52.0,0.0,30.0,5.0,0.0
5087,68.0,0.0,60.0,6.0,0.0
5088,52.0,0.0,120.0,3.0,0.0
5089,59.0,0.0,60.0,5.0,0.0
5090,77.0,30.0,30.0,4.0,0.0
5091,74.0,30.0,30.0,4.0,0.0
5092,59.0,0.0,30.0,7.0,0.0
5093,56.0,0.0,30.0,7.0,0.0
5094,71.0,30.0,30.0,4.0,0.0
5095,74.0,0.0,60.0,6.0,0.0
5096,68.0,0.0,30.0,4.0,0.0
5097,52.0,30.0,30.0,7.0,0.0
5098,72.0,0.0,60.0,6.0,0.0
5099,69.0,0.0,30.0,4.0,0.0
5100,64.0,0.0,120.0,0.0,0.0
5101,57.0,30.0,30.0,7.0,0.0
5102,64.0,29.0,120.0,1.0,0.0
5103,64.0,0.0,120.0,2.0,0.0
5104,52.0,0.0,30.0,7.0,0.0
5105,57.0,0.0,30.0,5.0,0.0
5106,72.0,30.0,30.0,4.0,0.0
5107,75.0,0.0,30.0,4.0,0.0
5108,69.0,1.0,60.0,6.0,0.0
5109,48.0,0.0,30.0,7.0,0.0
5110,60.0,30.0,30.0,5.0,0.0
5111,78.0,0.0,30.0,4.0,0.0
5112,63.0,0.0,30.0,5.0,0.0
5113,45.0,0.0,30.0,7.0,0.0
5114,52.0,30.0,30.0,7.0,0.0
5115,72.0,30.0,60.0,6.0,0.0
5116,52.0,0.0,60.0,3.0,0.0
5117,64.0,0.0,60.0,5.0,0.0
5118,81.0,0.0,30.0,4.0,0.0
5119,78.0,0.0,30.0,4.0,0.0
5120,40.0,0.0,30.0,7.0,0.0
5121,52.0,0.0,60.0,5.0,0.0
5122,80.0,0.0,30.0,4.0,0.0
5123,59.0,29.0,30.0,2.0,0.0
5124,64.0,0.0,30.0,1.0,0.0
5125,64.0,0.0,30.0,3.0,0.0
5126,52.0,1.0,30.0,7.0,0.0
5127,80.0,0.0,30.0,0.0,0.0
5128,71.0,0.0,60.0,6.0,0.0
5129,50.0,30.0,30.0,7.0,0.0
5130,62.0,0.0,30.0,3.0,0.0
5131,83.0,0.0,30.0,4.0,0.0
5132,69.0,0.0,30.0,1.0,0.0
5133,76.0,0.0,30.0,4.0,0.0
5134,49.0,0.0,30.0,7.0,0.0
5135,60.0,0.0,30.0,2.0,0.0
5136,60.0,1.0,30.0,3.0,0.0
5137,81.0,29.0,30.0,0.0,0.0
5138,74.0,0.0,30.0,4.0,0.0
5139,59.0,0.0,30.0,3.0,0.0
5140,52.0,30.0,30.0,5.0,0.0
5141,47.0,0.0,30.0,7.0,0.0
5142,64.0,29.0,30.0,1.0,0.0
5143,45.0,0.0,30.0,7.0,0.0
5144,64.0,0.0,30.0,2.0,0.0
5145,57.0,0.0,30.0,3.0,0.0
5146,54.0,1.0,30.0,5.0,0.0
5147,83.0,0.0,30.0,0.0,0.0
5148,72.0,0.0,30.0,4.0,0.0
5149,56.0,0.0,30.0,3.0,0.0
5150,44.0,30.0,30.0,7.0,0.0
5151,71.0,0.0,30.0,4.0,0.0
5152,56.0,0.0,30.0,5.0,0.0
5153,72.0,30.0,30.0,4.0,0.0
5154,72.0,0.0,120.0,0.0,0.0
5155,64.0,0.0,120.0,2.0,0.0
5156,57.0,0.0,60.0,5.0,0.0
5157,57.0,1.0,120.0,3.0,0.0
5158,45.0,0.0,60.0,7.0,0.0
5159,69.0,30.0,30.0,4.0,0.0
5160,45.0,0.0,60.0,5.0,0.0
5161,64.0,30.0,30.0,4.0,0.0
5162,60.0,0.0,30.0,4.0,0.0
5163,64.0,30.0,30.0,4.0,0.0
5164,57.0,30.0,60.0,7.0,0.0
5165,69.0,0.0,120.0,2.0,0.0
5166,69.0,29.0,15.0,1.0,0.0
5167,69.0,0.0,120.0,0.0,0.0
5168,84.0,0.0,60.0,6.0,0.0
5169,69.0,0.0,30.0,4.0,0.0
5170,72.0,30.0,30.0,4.0,0.0
5171,81.0,1.0,60.0,6.0,0.0
5172,69.0,0.0,60.0,7.0,0.0
5173,71.0,0.0,30.0,4.0,0.0
5174,72.0,30.0,30.0,4.0,0.0
5175,55.0,0.0,120.0,3.0,0.0
5176,55.0,30.0,60.0,5.0,0.0
5177,69.0,0.0,30.0,4.0,0.0
5178,64.0,30.0,30.0,4.0,0.0
5179,43.0,30.0,60.0,5.0,0.0
5180,60.0,0.0,30.0,4.0,0.0
5181,67.0,0.0,120.0,0.0,0.0
5182,67.0,0.0,120.0,1.0,0.0
5183,64.0,30.0,30.0,4.0,0.0
5184,67.0,29.0,120.0,2.0,0.0
5185,64.0,30.0,60.0,7.0,0.0
5186,84.0,0.0,60.0,6.0,0.0
5187,69.0,0.0,30.0,4.0,0.0
5188,72.0,30.0,30.0,4.0,0.0
5189,79.0,0.0,60.0,6.0,0.0
5190,72.0,1.0,60.0,7.0,0.0
5191,71.0,0.0,30.0,4.0,0.0
5192,72.0,30.0,30.0,4.0,0.0
5193,54.0,0.0,60.0,5.0,0.0
5194,54.0,30.0,60.0,3.0,0.0
5195,69.0,0.0,30.0,4.0,0.0
5196,57.0,0.0,60.0,5.0,0.0
5197,72.0,0.0,30.0,2.0,0.0
5198,66.0,1.0,30.0,4.0,0.0
5199,69.0,0.0,30.0,0.0,0.0
5200,57.0,0.0,60.0,3.0,0.0
5201,78.0,29.0,30.0,1.0,0.0
5202,62.0,30.0,30.0,4.0,0.0
5203,57.0,0.0,60.0,7.0,0.0
5204,62.0,0.0,60.0,3.0,0.0
5205,66.0,1.0,30.0,4.0,0.0
5206,62.0,0.0,60.0,5.0,0.0
5207,81.0,0.0,30.0,1.0,0.0
5208,66.0,0.0,30.0,0.0,0.0
5209,84.0,0.0,60.0,6.0,0.0
5210,69.0,29.0,30.0,2.0,0.0
5211,69.0,30.0,30.0,4.0,0.0
5212,74.0,0.0,30.0,2.0,0.0
5213,62.0,0.0,60.0,7.0,0.0
5214,78.0,0.0,60.0,6.0,0.0
5215,72.0,1.0,30.0,4.0,0.0
5216,69.0,0.0,30.0,0.0,0.0
5217,78.0,29.0,30.0,1.0,0.0
5218,50.0,30.0,60.0,3.0,0.0
5219,50.0,0.0,60.0,5.0,0.0
5220,69.0,0.0,30.0,4.0,0.0
5221,71.0,30.0,30.0,4.0,0.0
5222,55.0,0.0,120.0,3.0,0.0
5223,74.0,0.0,120.0,2.0,0.0
5224,71.0,29.0,120.0,0.0,0.0
5225,55.0,30.0,60.0,5.0,0.0
5226,79.0,0.0,120.0,1.0,0.0
5227,67.0,0.0,30.0,4.0,0.0
5228,43.0,1.0,60.0,5.0,0.0
5229,62.0,30.0,30.0,4.0,0.0
5230,59.0,0.0,30.0,4.0,0.0
5231,83.0,0.0,60.0,6.0,0.0
5232,67.0,0.0,120.0,0.0,0.0
5233,62.0,30.0,30.0,4.0,0.0
5234,67.0,29.0,120.0,1.0,0.0
5235,67.0,0.0,120.0,2.0,0.0
5236,55.0,30.0,60.0,7.0,0.0
5237,67.0,0.0,30.0,4.0,0.0
5238,79.0,1.0,60.0,6.0,0.0
5239,67.0,0.0,60.0,7.0,0.0
5240,71.0,30.0,30.0,4.0,0.0
5241,67.0,0.0,30.0,4.0,0.0
5242,69.0,30.0,30.0,4.0,0.0
5243,54.0,0.0,60.0,5.0,0.0
5244,54.0,0.0,120.0,3.0,0.0
5245,66.0,30.0,30.0,4.0,0.0
5246,63.0,30.0,30.0,4.0,0.0
5247,42.0,0.0,60.0,5.0,0.0
5248,59.0,30.0,30.0,4.0,0.0
5249,54.0,0.0,60.0,7.0,0.0
5250,63.0,30.0,30.0,4.0,0.0
5251,66.0,0.0,120.0,0.0,0.0
5252,66.0,0.0,120.0,1.0,0.0
5253,66.0,29.0,120.0,2.0,0.0
5254,81.0,0.0,60.0,6.0,0.0
5255,66.0,30.0,30.0,4.0,0.0
5256,69.0,30.0,30.0,4.0,0.0
5257,78.0,0.0,60.0,6.0,0.0
5258,63.0,1.0,60.0,7.0,0.0
5259,67.0,0.0,30.0,4.0,0.0
5260,52.0,0.0,60.0,5.0,0.0
5261,52.0,0.0,120.0,3.0,0.0
5262,69.0,30.0,30.0,4.0,0.0
5263,64.0,30.0,30.0,4.0,0.0
5264,40.0,30.0,60.0,5.0,0.0
5265,60.0,30.0,30.0,4.0,0.0
5266,59.0,0.0,30.0,4.0,0.0
5267,81.0,0.0,60.0,6.0,0.0
5268,60.0,30.0,60.0,7.0,0.0
5269,60.0,30.0,30.0,4.0,0.0
5270,64.0,29.0,120.0,2.0,0.0
5271,64.0,0.0,120.0,0.0,0.0
5272,64.0,0.0,120.0,1.0,0.0
5273,64.0,0.0,30.0,4.0,0.0
5274,69.0,30.0,30.0,4.0,0.0
5275,76.0,1.0,60.0,6.0,0.0
5276,69.0,0.0,60.0,7.0,0.0
5277,67.0,0.0,30.0,4.0,0.0
5278,51.0,0.0,60.0,5.0,0.0
5279,51.0,0.0,60.0,3.0,0.0
5280,69.0,30.0,30.0,4.0,0.0
5281,66.0,30.0,30.0,4.0,0.0
5282,54.0,0.0,60.0,3.0,0.0
5283,66.0,29.0,30.0,2.0,0.0
5284,66.0,0.0,30.0,0.0,0.0
5285,63.0,1.0,30.0,4.0,0.0
5286,81.0,0.0,30.0,1.0,0.0
5287,54.0,0.0,60.0,5.0,0.0
5288,59.0,30.0,30.0,4.0,0.0
5289,63.0,0.0,60.0,7.0,0.0
5290,81.0,0.0,60.0,6.0,0.0
5291,59.0,0.0,60.0,5.0,0.0
5292,63.0,0.0,30.0,0.0,0.0
5293,59.0,30.0,60.0,3.0,0.0
5294,78.0,0.0,30.0,1.0,0.0
5295,66.0,29.0,30.0,2.0,0.0
5296,63.0,1.0,30.0,4.0,0.0
5297,66.0,0.0,30.0,4.0,0.0
5298,66.0,0.0,30.0,0.0,0.0
5299,47.0,30.0,60.0,5.0,0.0
5300,71.0,0.0,30.0,2.0,0.0
5301,71.0,0.0,60.0,7.0,0.0
5302,69.0,1.0,30.0,4.0,0.0
5303,75.0,0.0,60.0,6.0,0.0
5304,75.0,29.0,30.0,1.0,0.0
5305,47.0,0.0,60.0,3.0,0.0
5306,66.0,0.0,30.0,4.0,0.0
5307,52.0,30.0,60.0,3.0,0.0
5308,67.0,29.0,120.0,0.0,0.0
5309,76.0,0.0,120.0,1.0,0.0
5310,67.0,30.0,30.0,4.0,0.0
5311,71.0,0.0,120.0,2.0,0.0
5312,52.0,0.0,60.0,5.0,0.0
5313,64.0,0.0,30.0,4.0,0.0
5314,59.0,30.0,30.0,4.0,0.0
5315,55.0,1.0,60.0,3.0,0.0
5316,40.0,0.0,60.0,5.0,0.0
5317,64.0,0.0,30.0,4.0,0.0
5318,67.0,30.0,30.0,4.0,0.0
5319,60.0,0.0,60.0,3.0,0.0
5320,76.0,0.0,60.0,6.0,0.0
5321,48.0,30.0,60.0,7.0,0.0
5322,71.0,0.0,30.0,4.0,0.0
5323,72.0,30.0,30.0,4.0,0.0
5324,69.0,0.0,60.0,6.0,0.0
5325,48.0,0.0,60.0,3.0,0.0
5326,60.0,0.0,60.0,7.0,0.0
5327,71.0,30.0,30.0,4.0,0.0
5328,54.0,0.0,60.0,3.0,0.0
5329,69.0,30.0,30.0,4.0,0.0
5330,54.0,0.0,60.0,5.0,0.0
5331,66.0,30.0,30.0,4.0,0.0
5332,42.0,30.0,60.0,5.0,0.0
5333,57.0,0.0,60.0,3.0,0.0
5334,62.0,30.0,30.0,4.0,0.0
5335,66.0,0.0,30.0,4.0,0.0
5336,50.0,0.0,60.0,7.0,0.0
5337,62.0,0.0,60.0,3.0,0.0
5338,78.0,0.0,60.0,6.0,0.0
5339,69.0,30.0,30.0,4.0,0.0
5340,72.0,30.0,30.0,4.0,0.0
5341,62.0,0.0,60.0,7.0,0.0
5342,74.0,30.0,30.0,4.0,0.0
5343,69.0,0.0,60.0,6.0,0.0
5344,50.0,30.0,60.0,3.0,0.0
5345,72.0,0.0,30.0,4.0,0.0
5346,55.0,0.0,60.0,3.0,0.0
5347,71.0,30.0,30.0,4.0,0.0
5348,55.0,30.0,60.0,5.0,0.0
5349,67.0,0.0,30.0,4.0,0.0
5350,43.0,0.0,60.0,5.0,0.0
5351,64.0,30.0,30.0,4.0,0.0
5352,59.0,0.0,60.0,3.0,0.0
5353,67.0,30.0,30.0,4.0,0.0
5354,52.0,0.0,60.0,7.0,0.0
5355,79.0,0.0,60.0,6.0,0.0
5356,69.0,30.0,30.0,4.0,0.0
5357,64.0,0.0,60.0,3.0,0.0
5358,74.0,30.0,30.0,4.0,0.0
5359,76.0,30.0,30.0,4.0,0.0
5360,52.0,0.0,60.0,3.0,0.0
5361,64.0,0.0,60.0,7.0,0.0
5362,72.0,30.0,60.0,6.0,0.0
5363,74.0,0.0,30.0,4.0,0.0
5364,57.0,0.0,60.0,3.0,0.0
5365,57.0,0.0,60.0,5.0,0.0
5366,72.0,30.0,30.0,4.0,0.0
5367,69.0,30.0,30.0,4.0,0.0
5368,64.0,30.0,30.0,4.0,0.0
5369,60.0,0.0,60.0,3.0,0.0
5370,45.0,0.0,60.0,5.0,0.0
5371,69.0,30.0,30.0,4.0,0.0
5372,54.0,30.0,60.0,3.0,0.0
5373,72.0,30.0,30.0,4.0,0.0
5374,54.0,0.0,60.0,7.0,0.0
5375,81.0,0.0,60.0,6.0,0.0
5376,76.0,0.0,30.0,4.0,0.0
5377,66.0,30.0,60.0,7.0,0.0
5378,78.0,30.0,30.0,4.0,0.0
5379,72.0,0.0,60.0,6.0,0.0
5380,57.0,0.0,60.0,3.0,0.0
5381,76.0,0.0,30.0,4.0,0.0
5382,47.0,30.0,60.0,5.0,0.0
5383,75.0,30.0,30.0,4.0,0.0
5384,59.0,0.0,60.0,3.0,0.0
5385,69.0,0.0,30.0,4.0,0.0
5386,51.0,30.0,30.0,5.0,0.0
5387,60.0,30.0,60.0,3.0,0.0
5388,66.0,0.0,30.0,4.0,0.0
5389,54.0,0.0,30.0,5.0,0.0
5390,69.0,0.0,30.0,4.0,0.0
5391,81.0,30.0,60.0,6.0,0.0
5392,59.0,0.0,60.0,3.0,0.0
5393,59.0,0.0,30.0,7.0,0.0
5394,59.0,0.0,60.0,5.0,0.0
5395,75.0,30.0,30.0,4.0,0.0
5396,60.0,0.0,30.0,7.0,0.0
5397,78.0,0.0,30.0,4.0,0.0
5398,57.0,0.0,60.0,3.0,0.0
5399,75.0,0.0,60.0,6.0,0.0
5400,59.0,30.0,30.0,7.0,0.0
5401,79.0,0.0,30.0,4.0,0.0
5402,78.0,0.0,30.0,4.0,0.0
5403,57.0,30.0,30.0,7.0,0.0
5404,64.0,0.0,60.0,7.0,0.0
5405,55.0,0.0,60.0,7.0,0.0
5406,59.0,1.0,60.0,7.0,0.0
5407,55.0,29.0,30.0,3.0,0.0
5408,71.0,29.0,60.0,0.0,0.0
5409,83.0,29.0,510.0,1.0,0.0
5410,71.0,0.0,60.0,6.0,0.0
5411,76.0,1.0,30.0,4.0,0.0
5412,71.0,0.0,30.0,4.0,0.0
5413,52.0,29.0,30.0,3.0,0.0
5414,52.0,0.0,60.0,7.0,0.0
5415,67.0,1.0,30.0,4.0,0.0
5416,76.0,0.0,60.0,6.0,0.0
5417,76.0,29.0,60.0,0.0,0.0
5418,69.0,1.0,30.0,4.0,0.0
5419,79.0,29.0,60.0,0.0,0.0
5420,79.0,0.0,60.0,6.0,0.0
5421,76.0,0.0,60.0,6.0,0.0
5422,71.0,0.0,60.0,6.0,0.0
5423,71.0,1.0,30.0,4.0,0.0
5424,64.0,29.0,30.0,2.0,0.0
5425,52.0,1.0,60.0,5.0,0.0
5426,55.0,0.0,60.0,5.0,0.0
5427,76.0,0.0,30.0,4.0,0.0
5428,78.0,29.0,60.0,0.0,0.0
5429,78.0,0.0,60.0,6.0,0.0
5430,69.0,1.0,30.0,4.0,0.0
5431,69.0,1.0,60.0,6.0,0.0
5432,54.0,0.0,60.0,5.0,0.0
5433,57.0,0.0,60.0,5.0,0.0
5434,59.0,29.0,30.0,2.0,0.0
5435,75.0,0.0,60.0,6.0,0.0
5436,76.0,0.0,30.0,4.0,0.0
5437,71.0,0.0,60.0,6.0,0.0
5438,71.0,29.0,60.0,0.0,0.0
5439,64.0,0.0,60.0,7.0,0.0
5440,67.0,1.0,60.0,6.0,0.0
5441,64.0,29.0,30.0,3.0,0.0
5442,67.0,1.0,30.0,4.0,0.0
5443,64.0,0.0,30.0,4.0,0.0
5444,59.0,0.0,30.0,4.0,0.0
5445,55.0,0.0,60.0,7.0,0.0
5446,55.0,29.0,30.0,3.0,0.0
5447,76.0,0.0,30.0,0.0,0.0
5448,76.0,1.0,30.0,6.0,0.0
5449,78.0,29.0,30.0,0.0,0.0
5450,63.0,0.0,30.0,4.0,0.0
5451,78.0,1.0,30.0,6.0,0.0
5452,64.0,1.0,30.0,4.0,0.0
5453,55.0,0.0,60.0,5.0,0.0
5454,79.0,0.0,30.0,6.0,0.0
5455,79.0,0.0,30.0,0.0,0.0
5456,76.0,0.0,30.0,6.0,0.0
5457,71.0,29.0,30.0,2.0,0.0
5458,78.0,29.0,30.0,0.0,0.0
5459,59.0,0.0,30.0,4.0,0.0
5460,75.0,1.0,30.0,6.0,0.0
5461,78.0,0.0,30.0,6.0,0.0
5462,52.0,0.0,60.0,5.0,0.0
5463,64.0,0.0,30.0,4.0,0.0
5464,76.0,0.0,30.0,6.0,0.0
5465,79.0,1.0,30.0,6.0,0.0
5466,79.0,0.0,30.0,0.0,0.0
5467,67.0,29.0,30.0,2.0,0.0
5468,59.0,0.0,30.0,4.0,0.0
5469,78.0,30.0,30.0,0.0,0.0
5470,78.0,1.0,30.0,6.0,0.0
5471,75.0,0.0,30.0,6.0,0.0
5472,76.0,1.0,60.0,6.0,0.0
5473,67.0,0.0,60.0,4.0,0.0
5474,67.0,0.0,60.0,7.0,0.0
5475,67.0,0.0,60.0,3.0,0.0
5476,76.0,29.0,60.0,0.0,0.0
5477,76.0,0.0,30.0,1.0,0.0
5478,64.0,0.0,60.0,7.0,0.0
5479,78.0,1.0,30.0,6.0,0.0
5480,52.0,1.0,60.0,5.0,0.0
5481,64.0,0.0,60.0,3.0,0.0
5482,59.0,0.0,30.0,2.0,0.0
5483,71.0,0.0,60.0,4.0,0.0
5484,78.0,0.0,30.0,0.0,0.0
5485,78.0,29.0,30.0,1.0,0.0
5486,79.0,0.0,30.0,0.0,0.0
5487,79.0,29.0,30.0,1.0,0.0
5488,79.0,0.0,30.0,6.0,0.0
5489,81.0,29.0,30.0,0.0,0.0
5490,60.0,0.0,60.0,3.0,0.0
5491,81.0,0.0,30.0,1.0,0.0
5492,62.0,0.0,30.0,2.0,0.0
5493,76.0,0.0,60.0,4.0,0.0
5494,60.0,0.0,60.0,7.0,0.0
5495,48.0,0.0,60.0,5.0,0.0
5496,81.0,1.0,30.0,6.0,0.0
5497,83.0,30.0,30.0,1.0,0.0
5498,83.0,0.0,30.0,0.0,0.0
5499,83.0,1.0,30.0,6.0,0.0
5500,84.0,1.0,60.0,6.0,0.0
5501,84.0,29.0,60.0,0.0,0.0
5502,45.0,0.0,60.0,5.0,0.0
5503,81.0,1.0,90.0,4.0,0.0
5504,84.0,0.0,60.0,1.0,0.0
5505,57.0,0.0,60.0,3.0,0.0
5506,64.0,29.0,30.0,2.0,0.0
5507,57.0,0.0,60.0,7.0,0.0
5508,84.0,0.0,60.0,1.0,0.0
5509,66.0,29.0,60.0,2.0,0.0
5510,84.0,0.0,60.0,6.0,0.0
5511,50.0,29.0,30.0,3.0,0.0
5512,50.0,0.0,60.0,5.0,0.0
5513,84.0,0.0,60.0,0.0,0.0
5514,50.0,0.0,60.0,7.0,0.0
5515,78.0,1.0,30.0,4.0,0.0
5516,54.0,1.0,30.0,5.0,0.0
5517,78.0,0.0,60.0,0.0,0.0
5518,78.0,0.0,60.0,6.0,0.0
5519,62.0,0.0,60.0,7.0,0.0
5520,74.0,0.0,30.0,4.0,0.0
5521,69.0,29.0,60.0,2.0,0.0
5522,62.0,29.0,30.0,3.0,0.0
5523,78.0,0.0,60.0,1.0,0.0
5524,57.0,0.0,30.0,5.0,0.0
5525,78.0,1.0,30.0,4.0,0.0
5526,62.0,1.0,60.0,5.0,0.0
5527,69.0,30.0,30.0,4.0,0.0
5528,66.0,29.0,60.0,2.0,0.0
5529,74.0,0.0,30.0,4.0,0.0
5530,62.0,29.0,60.0,2.0,0.0
5531,76.0,30.0,30.0,4.0,0.0
5532,74.0,1.0,30.0,4.0,0.0
5533,72.0,1.0,30.0,4.0,0.0
5534,54.0,29.0,30.0,3.0,0.0
5535,57.0,1.0,60.0,7.0,0.0
5536,54.0,0.0,60.0,7.0,0.0
5537,62.0,0.0,60.0,7.0,0.0
5538,69.0,0.0,60.0,6.0,0.0
5539,69.0,29.0,60.0,0.0,0.0
5540,81.0,29.0,510.0,1.0,0.0
5541,69.0,0.0,30.0,4.0,0.0
5542,74.0,29.0,60.0,0.0,0.0
5543,50.0,0.0,60.0,7.0,0.0
5544,50.0,29.0,30.0,3.0,0.0
5545,74.0,0.0,60.0,6.0,0.0
5546,66.0,1.0,30.0,4.0,0.0
5547,67.0,1.0,30.0,4.0,0.0
5548,62.0,29.0,30.0,2.0,0.0
5549,78.0,29.0,60.0,0.0,0.0
5550,54.0,0.0,60.0,5.0,0.0
5551,50.0,0.0,60.0,5.0,0.0
5552,69.0,1.0,30.0,4.0,0.0
5553,74.0,1.0,60.0,6.0,0.0
5554,78.0,0.0,60.0,6.0,0.0
5555,72.0,0.0,30.0,4.0,0.0
5556,69.0,0.0,60.0,6.0,0.0
5557,76.0,0.0,60.0,6.0,0.0
5558,76.0,29.0,60.0,0.0,0.0
5559,52.0,0.0,60.0,5.0,0.0
5560,55.0,1.0,60.0,5.0,0.0
5561,67.0,1.0,30.0,4.0,0.0
5562,57.0,29.0,30.0,2.0,0.0
5563,72.0,0.0,30.0,4.0,0.0
5564,62.0,1.0,60.0,7.0,0.0
5565,69.0,0.0,60.0,6.0,0.0
5566,66.0,0.0,60.0,6.0,0.0
5567,69.0,29.0,60.0,0.0,0.0
5568,62.0,29.0,30.0,3.0,0.0
5569,66.0,1.0,30.0,4.0,0.0
5570,74.0,0.0,30.0,4.0,0.0
5571,54.0,0.0,60.0,7.0,0.0
5572,74.0,29.0,30.0,0.0,0.0
5573,54.0,0.0,30.0,3.0,0.0
5574,69.0,0.0,30.0,4.0,0.0
5575,74.0,1.0,30.0,6.0,0.0
5576,73.0,1.0,30.0,4.0,0.0
5577,76.0,29.0,30.0,0.0,0.0
5578,76.0,0.0,30.0,6.0,0.0
5579,69.0,0.0,30.0,2.0,0.0
5580,54.0,1.0,60.0,5.0,0.0
5581,78.0,29.0,30.0,0.0,0.0
5582,78.0,0.0,30.0,6.0,0.0
5583,74.0,1.0,30.0,4.0,0.0
5584,69.0,0.0,30.0,4.0,0.0
5585,76.0,29.0,30.0,0.0,0.0
5586,76.0,0.0,30.0,6.0,0.0
5587,78.0,29.0,30.0,0.0,0.0
5588,66.0,0.0,30.0,2.0,0.0
5589,50.0,1.0,60.0,5.0,0.0
5590,78.0,0.0,30.0,6.0,0.0
5591,74.0,1.0,30.0,4.0,0.0
5592,69.0,0.0,30.0,4.0,0.0
5593,76.0,0.0,30.0,6.0,0.0
5594,76.0,30.0,30.0,0.0,0.0
5595,74.0,0.0,60.0,6.0,0.0
5596,66.0,1.0,60.0,3.0,0.0
5597,74.0,29.0,60.0,0.0,0.0
5598,66.0,0.0,60.0,7.0,0.0
5599,66.0,0.0,60.0,4.0,0.0
5600,74.0,0.0,30.0,1.0,0.0
5601,62.0,0.0,60.0,7.0,0.0
5602,57.0,0.0,30.0,2.0,0.0
5603,76.0,0.0,30.0,1.0,0.0
5604,69.0,0.0,60.0,4.0,0.0
5605,76.0,29.0,30.0,0.0,0.0
5606,76.0,1.0,30.0,6.0,0.0
5607,50.0,1.0,60.0,5.0,0.0
5608,62.0,0.0,60.0,3.0,0.0
5609,78.0,0.0,30.0,6.0,0.0
5610,78.0,29.0,30.0,1.0,0.0
5611,78.0,0.0,30.0,0.0,0.0
5612,79.0,1.0,30.0,6.0,0.0
5613,59.0,0.0,60.0,7.0,0.0
5614,74.0,0.0,60.0,4.0,0.0
5615,47.0,0.0,60.0,5.0,0.0
5616,79.0,0.0,30.0,0.0,0.0
5617,59.0,0.0,30.0,2.0,0.0
5618,59.0,0.0,60.0,3.0,0.0
5619,79.0,29.0,30.0,1.0,0.0
5620,81.0,0.0,30.0,0.0,0.0
5621,81.0,1.0,30.0,6.0,0.0
5622,81.0,30.0,30.0,1.0,0.0
5623,79.0,1.0,90.0,4.0,0.0
5624,83.0,0.0,60.0,0.0,0.0
5625,43.0,1.0,60.0,5.0,0.0
5626,62.0,29.0,30.0,2.0,0.0
5627,83.0,0.0,60.0,6.0,0.0
5628,55.0,0.0,60.0,3.0,0.0
5629,55.0,0.0,60.0,7.0,0.0
5630,48.0,0.0,60.0,5.0,0.0
5631,83.0,29.0,15.0,1.0,0.0
5632,83.0,0.0,60.0,0.0,0.0
5633,83.0,0.0,60.0,6.0,0.0
5634,48.0,29.0,30.0,3.0,0.0
5635,48.0,0.0,60.0,7.0,0.0
5636,64.0,29.0,60.0,2.0,0.0
5637,76.0,1.0,30.0,4.0,0.0
5638,76.0,0.0,60.0,1.0,0.0
5639,52.0,0.0,30.0,5.0,0.0
5640,72.0,1.0,30.0,4.0,0.0
5641,76.0,29.0,60.0,0.0,0.0
5642,60.0,29.0,30.0,3.0,0.0
5643,67.0,0.0,60.0,2.0,0.0
5644,76.0,0.0,60.0,6.0,0.0
5645,60.0,1.0,60.0,7.0,0.0
5646,76.0,0.0,30.0,4.0,0.0
5647,55.0,0.0,30.0,5.0,0.0
5648,60.0,1.0,60.0,5.0,0.0
5649,79.0,30.0,30.0,4.0,0.0
5650,64.0,29.0,60.0,2.0,0.0
5651,83.0,0.0,30.0,4.0,0.0
5652,60.0,29.0,60.0,2.0,0.0
5653,84.0,30.0,30.0,4.0,0.0
5654,83.0,1.0,30.0,4.0,0.0
5655,81.0,0.0,60.0,4.0,0.0
5656,60.0,0.0,60.0,7.0,0.0
5657,88.0,1.0,30.0,6.0,0.0
5658,88.0,29.0,30.0,0.0,0.0
5659,86.0,1.0,30.0,6.0,0.0
5660,86.0,29.0,30.0,0.0,0.0
5661,69.0,0.0,60.0,7.0,0.0
5662,88.0,0.0,30.0,4.0,0.0
5663,84.0,29.0,30.0,0.0,0.0
5664,57.0,0.0,60.0,5.0,0.0
5665,84.0,1.0,30.0,6.0,0.0
5666,83.0,0.0,30.0,6.0,0.0
5667,83.0,29.0,30.0,0.0,0.0
5668,86.0,1.0,30.0,4.0,0.0
5669,76.0,29.0,30.0,1.0,0.0
5670,84.0,1.0,30.0,4.0,0.0
5671,81.0,0.0,60.0,6.0,0.0
5672,60.0,1.0,60.0,5.0,0.0
5673,83.0,0.0,30.0,4.0,0.0
5674,74.0,0.0,30.0,1.0,0.0
5675,81.0,1.0,30.0,4.0,0.0
5676,72.0,29.0,30.0,1.0,0.0
5677,81.0,0.0,60.0,6.0,0.0
5678,81.0,29.0,15.0,0.0,0.0
5679,64.0,1.0,60.0,5.0,0.0
5680,71.0,0.0,30.0,1.0,0.0
5681,80.0,0.0,30.0,4.0,0.0
5682,81.0,1.0,30.0,4.0,0.0
5683,81.0,1.0,120.0,6.0,0.0
5684,48.0,0.0,30.0,3.0,0.0
5685,69.0,0.0,60.0,1.0,0.0
5686,69.0,0.0,60.0,5.0,0.0
5687,81.0,29.0,15.0,0.0,0.0
5688,64.0,29.0,30.0,2.0,0.0
5689,77.0,1.0,30.0,4.0,0.0
5690,62.0,29.0,30.0,2.0,0.0
5691,76.0,1.0,30.0,4.0,0.0
5692,57.0,0.0,30.0,3.0,0.0
5693,57.0,0.0,60.0,5.0,0.0
5694,69.0,0.0,60.0,7.0,0.0
5695,60.0,29.0,30.0,2.0,0.0
5696,74.0,0.0,30.0,4.0,0.0
5697,59.0,29.0,30.0,2.0,0.0
5698,72.0,1.0,30.0,4.0,0.0
5699,57.0,0.0,60.0,2.0,0.0
5700,64.0,0.0,60.0,7.0,0.0
5701,71.0,0.0,30.0,4.0,0.0
5702,76.0,1.0,30.0,6.0,0.0
5703,76.0,29.0,30.0,0.0,0.0
5704,81.0,1.0,30.0,6.0,0.0
5705,81.0,29.0,30.0,0.0,0.0
5706,60.0,1.0,60.0,7.0,0.0
5707,69.0,0.0,30.0,4.0,0.0
5708,83.0,0.0,30.0,6.0,0.0
5709,68.0,0.0,30.0,4.0,0.0
5710,83.0,29.0,30.0,0.0,0.0
5711,84.0,1.0,30.0,6.0,0.0
5712,69.0,0.0,60.0,4.0,0.0
5713,84.0,29.0,30.0,0.0,0.0
5714,57.0,0.0,60.0,7.0,0.0
5715,83.0,29.0,30.0,0.0,0.0
5716,83.0,1.0,30.0,6.0,0.0
5717,57.0,1.0,60.0,5.0,0.0
5718,65.0,0.0,60.0,7.0,0.0
5719,81.0,29.0,30.0,0.0,0.0
5720,81.0,1.0,30.0,6.0,0.0
5721,84.0,0.0,30.0,4.0,0.0
5722,83.0,0.0,30.0,4.0,0.0
5723,79.0,0.0,30.0,6.0,0.0
5724,79.0,29.0,30.0,0.0,0.0
5725,72.0,29.0,30.0,1.0,0.0
5726,77.0,0.0,60.0,0.0,0.0
5727,60.0,0.0,60.0,5.0,0.0
5728,81.0,1.0,30.0,4.0,0.0
5729,77.0,1.0,60.0,6.0,0.0
5730,70.0,29.0,30.0,1.0,0.0
5731,79.0,0.0,30.0,4.0,0.0
5732,65.0,1.0,60.0,5.0,0.0
5733,77.0,1.0,30.0,4.0,0.0
5734,77.0,0.0,60.0,6.0,0.0
5735,69.0,29.0,30.0,1.0,0.0
5736,67.0,0.0,30.0,1.0,0.0
5737,76.0,0.0,30.0,4.0,0.0
5738,65.0,29.0,60.0,1.0,0.0
5739,77.0,29.0,15.0,0.0,0.0
5740,69.0,0.0,60.0,5.0,0.0
5741,77.0,0.0,120.0,6.0,0.0
5742,77.0,1.0,30.0,4.0,0.0
5743,60.0,0.0,30.0,2.0,0.0
5744,45.0,29.0,30.0,3.0,0.0
5745,74.0,1.0,30.0,4.0,0.0
5746,58.0,0.0,30.0,2.0,0.0
5747,65.0,0.0,60.0,7.0,0.0
5748,72.0,1.0,30.0,4.0,0.0
5749,57.0,29.0,30.0,2.0,0.0
5750,53.0,0.0,30.0,3.0,0.0
5751,57.0,0.0,60.0,5.0,0.0
5752,55.0,0.0,30.0,2.0,0.0
5753,71.0,1.0,30.0,4.0,0.0
5754,53.0,29.0,60.0,2.0,0.0
5755,69.0,30.0,30.0,4.0,0.0
5756,60.0,0.0,60.0,7.0,0.0
5757,67.0,1.0,30.0,4.0,0.0
5758,72.0,0.0,30.0,6.0,0.0
5759,77.0,0.0,30.0,6.0,0.0
5760,65.0,30.0,30.0,4.0,0.0
5761,57.0,0.0,60.0,7.0,0.0
5762,64.0,0.0,30.0,4.0,0.0
5763,79.0,30.0,30.0,6.0,0.0
5764,53.0,0.0,60.0,7.0,0.0
5765,81.0,0.0,30.0,6.0,0.0
5766,65.0,30.0,30.0,4.0,0.0
5767,67.0,30.0,30.0,4.0,0.0
5768,83.0,0.0,30.0,6.0,0.0
5769,52.0,30.0,60.0,5.0,0.0
5770,69.0,30.0,30.0,4.0,0.0
5771,52.0,0.0,60.0,7.0,0.0
5772,84.0,0.0,30.0,6.0,0.0
5773,83.0,0.0,30.0,6.0,0.0
5774,71.0,0.0,30.0,4.0,0.0
5775,51.0,0.0,60.0,7.0,0.0
5776,72.0,29.0,30.0,1.0,0.0
5777,72.0,0.0,60.0,4.0,0.0
5778,81.0,1.0,30.0,6.0,0.0
5779,57.0,0.0,60.0,5.0,0.0
5780,79.0,1.0,30.0,6.0,0.0
5781,71.0,29.0,30.0,1.0,0.0
5782,72.0,1.0,90.0,4.0,0.0
5783,69.0,29.0,30.0,1.0,0.0
5784,60.0,0.0,60.0,5.0,0.0
5785,52.0,0.0,60.0,7.0,0.0
5786,78.0,1.0,30.0,6.0,0.0
5787,67.0,29.0,30.0,1.0,0.0
5788,76.0,1.0,30.0,6.0,0.0
5789,69.0,29.0,60.0,1.0,0.0
5790,54.0,0.0,60.0,7.0,0.0
5791,54.0,0.0,60.0,5.0,0.0
5792,66.0,29.0,30.0,2.0,0.0
5793,42.0,0.0,60.0,3.0,0.0
5794,75.0,1.0,60.0,6.0,0.0
5795,84.0,0.0,30.0,4.0,0.0
5796,64.0,0.0,30.0,2.0,0.0
5797,83.0,0.0,60.0,0.0,0.0
5798,51.0,0.0,60.0,3.0,0.0
5799,63.0,0.0,60.0,7.0,0.0
5800,63.0,29.0,30.0,2.0,0.0
5801,83.0,0.0,60.0,6.0,0.0
5802,63.0,0.0,60.0,5.0,0.0
5803,66.0,0.0,60.0,1.0,0.0
5804,83.0,1.0,30.0,4.0,0.0
5805,81.0,1.0,30.0,4.0,0.0
5806,61.0,29.0,30.0,2.0,0.0
5807,59.0,29.0,60.0,2.0,0.0
5808,67.0,0.0,60.0,1.0,0.0
5809,79.0,30.0,30.0,4.0,0.0
5810,64.0,0.0,60.0,5.0,0.0
5811,52.0,0.0,60.0,3.0,0.0
5812,76.0,1.0,60.0,6.0,0.0
5813,76.0,0.0,60.0,0.0,0.0
5814,64.0,0.0,60.0,7.0,0.0
5815,78.0,0.0,30.0,4.0,0.0
5816,60.0,0.0,60.0,5.0,0.0
5817,76.0,30.0,30.0,4.0,0.0
5818,60.0,0.0,60.0,7.0,0.0
5819,69.0,0.0,60.0,1.0,0.0
5820,81.0,1.0,60.0,6.0,0.0
5821,81.0,59.0,60.0,0.0,0.0
5822,60.0,0.0,60.0,3.0,0.0
5823,52.0,0.0,60.0,2.0,0.0
5824,75.0,0.0,30.0,4.0,0.0
5825,79.0,29.0,90.0,0.0,0.0
5826,79.0,0.0,90.0,6.0,0.0
5827,59.0,0.0,60.0,5.0,0.0
5828,76.0,1.0,90.0,4.0,0.0
5829,55.0,0.0,60.0,2.0,0.0
5830,71.0,29.0,60.0,1.0,0.0
5831,59.0,0.0,60.0,3.0,0.0
5832,59.0,1.0,60.0,7.0,0.0
5833,57.0,0.0,60.0,3.0,0.0
5834,57.0,0.0,60.0,5.0,0.0
5835,52.0,15.0,60.0,2.0,0.0
5836,72.0,0.0,60.0,1.0,0.0
5837,57.0,0.0,60.0,7.0,0.0
5838,78.0,1.0,30.0,4.0,0.0
5839,78.0,0.0,30.0,6.0,0.0
5840,78.0,0.0,15.0,0.0,0.0
5841,59.0,0.0,60.0,5.0,0.0
5842,59.0,0.0,60.0,3.0,0.0
5843,78.0,0.0,15.0,6.0,0.0
5844,59.0,1.0,60.0,7.0,0.0
5845,75.0,15.0,15.0,4.0,0.0
5846,59.0,0.0,60.0,2.0,0.0
5847,71.0,30.0,60.0,1.0,0.0
5848,76.0,0.0,15.0,4.0,0.0
5849,79.0,29.0,15.0,6.0,0.0
5850,75.0,29.0,60.0,4.0,0.0
5851,78.0,0.0,60.0,6.0,0.0
5852,47.0,0.0,60.0,7.0,0.0
5853,71.0,0.0,60.0,2.0,0.0
5854,47.0,0.0,60.0,5.0,0.0
5855,47.0,1.0,60.0,3.0,0.0
5856,76.0,0.0,30.0,4.0,0.0
5857,76.0,30.0,30.0,0.0,0.0
5858,76.0,0.0,30.0,6.0,0.0
5859,70.0,0.0,120.0,2.0,0.0
5860,76.0,0.0,60.0,6.0,0.0
5861,54.0,1.0,60.0,5.0,0.0
5862,54.0,0.0,60.0,7.0,0.0
5863,42.0,29.0,30.0,3.0,0.0
5864,76.0,29.0,120.0,0.0,0.0
5865,76.0,1.0,120.0,4.0,0.0
5866,66.0,29.0,15.0,1.0,0.0
5867,54.0,0.0,30.0,3.0,0.0
5868,70.0,1.0,30.0,6.0,0.0
5869,42.0,0.0,60.0,5.0,0.0
5870,61.0,0.0,60.0,7.0,0.0
5871,68.0,0.0,30.0,1.0,0.0
5872,71.0,0.0,30.0,6.0,0.0
5873,73.0,1.0,30.0,6.0,0.0
5874,70.0,29.0,30.0,1.0,0.0
5875,58.0,1.0,60.0,7.0,0.0
5876,71.0,29.0,30.0,1.0,0.0
5877,74.0,0.0,30.0,6.0,0.0
5878,54.0,0.0,60.0,7.0,0.0
5879,66.0,1.0,30.0,4.0,0.0
5880,73.0,29.0,60.0,1.0,0.0
5881,66.0,29.0,30.0,0.0,0.0
5882,76.0,0.0,60.0,6.0,0.0
5883,68.0,0.0,30.0,0.0,0.0
5884,68.0,1.0,30.0,4.0,0.0
5885,42.0,29.0,30.0,3.0,0.0
5886,66.0,0.0,30.0,2.0,0.0
5887,49.0,0.0,60.0,7.0,0.0
5888,70.0,1.0,30.0,4.0,0.0
5889,70.0,0.0,30.0,0.0,0.0
5890,76.0,1.0,60.0,6.0,0.0
5891,71.0,0.0,30.0,4.0,0.0
5892,71.0,29.0,30.0,0.0,0.0
5893,68.0,0.0,30.0,2.0,0.0
5894,61.0,0.0,60.0,5.0,0.0
5895,73.0,1.0,30.0,4.0,0.0
5896,70.0,29.0,30.0,2.0,0.0
5897,54.0,0.0,30.0,3.0,0.0
5898,73.0,0.0,30.0,0.0,0.0
5899,70.0,0.0,60.0,6.0,0.0
5900,54.0,1.0,60.0,7.0,0.0
5901,74.0,0.0,30.0,0.0,0.0
5902,71.0,30.0,30.0,2.0,0.0
5903,74.0,0.0,30.0,4.0,0.0
5904,76.0,0.0,60.0,4.0,0.0
5905,49.0,1.0,60.0,7.0,0.0
5906,76.0,0.0,60.0,0.0,0.0
5907,58.0,0.0,60.0,5.0,0.0
5908,70.0,29.0,30.0,1.0,0.0
5909,73.0,0.0,60.0,2.0,0.0
5910,71.0,30.0,30.0,1.0,0.0
5911,54.0,0.0,60.0,5.0,0.0
5912,52.0,1.0,60.0,7.0,0.0
5913,70.0,29.0,60.0,0.0,0.0
5914,70.0,0.0,60.0,4.0,0.0
5915,73.0,29.0,30.0,1.0,0.0
5916,74.0,0.0,30.0,1.0,0.0
5917,76.0,29.0,60.0,1.0,0.0
5918,42.0,0.0,60.0,7.0,0.0
5919,70.0,1.0,30.0,6.0,0.0
5920,66.0,0.0,30.0,2.0,0.0
5921,42.0,29.0,30.0,3.0,0.0
5922,49.0,0.0,60.0,5.0,0.0
5923,68.0,0.0,30.0,2.0,0.0
5924,71.0,1.0,30.0,6.0,0.0
5925,70.0,0.0,30.0,2.0,0.0
5926,73.0,1.0,30.0,6.0,0.0
5927,54.0,0.0,60.0,5.0,0.0
5928,54.0,29.0,30.0,3.0,0.0
5929,71.0,29.0,30.0,2.0,0.0
5930,74.0,0.0,30.0,6.0,0.0
5931,66.0,1.0,30.0,7.0,0.0
5932,49.0,0.0,60.0,5.0,0.0
5933,76.0,0.0,30.0,6.0,0.0
5934,64.0,1.0,30.0,7.0,0.0
5935,70.0,29.0,30.0,1.0,0.0
5936,73.0,29.0,60.0,2.0,0.0
5937,62.0,0.0,30.0,7.0,0.0
5938,78.0,1.0,30.0,6.0,0.0
5939,71.0,0.0,30.0,1.0,0.0
5940,52.0,0.0,60.0,5.0,0.0
5941,73.0,29.0,30.0,1.0,0.0
5942,79.0,0.0,60.0,6.0,0.0
5943,70.0,0.0,30.0,0.0,0.0
5944,70.0,1.0,30.0,4.0,0.0
5945,61.0,0.0,30.0,7.0,0.0
5946,71.0,29.0,30.0,0.0,0.0
5947,59.0,1.0,30.0,7.0,0.0
5948,74.0,0.0,30.0,1.0,0.0
5949,71.0,0.0,30.0,4.0,0.0
5950,73.0,29.0,30.0,0.0,0.0
5951,54.0,0.0,30.0,3.0,0.0
5952,76.0,0.0,60.0,1.0,0.0
5953,79.0,0.0,60.0,6.0,0.0
5954,73.0,1.0,30.0,4.0,0.0
5955,42.0,1.0,60.0,5.0,0.0
5956,58.0,0.0,60.0,7.0,0.0
5957,74.0,0.0,30.0,4.0,0.0
5958,74.0,29.0,30.0,0.0,0.0
5959,76.0,0.0,30.0,0.0,0.0
5960,54.0,0.0,60.0,7.0,0.0
5961,66.0,1.0,60.0,5.0,0.0
5962,66.0,29.0,30.0,3.0,0.0
5963,73.0,0.0,60.0,6.0,0.0
5964,76.0,1.0,30.0,4.0,0.0
5965,78.0,29.0,30.0,0.0,0.0
5966,78.0,0.0,30.0,4.0,0.0
5967,79.0,30.0,30.0,4.0,0.0
5968,61.0,0.0,60.0,3.0,0.0
5969,76.0,0.0,60.0,6.0,0.0
5970,49.0,1.0,60.0,7.0,0.0
5971,79.0,29.0,60.0,0.0,0.0
5972,61.0,0.0,60.0,5.0,0.0
5973,76.0,0.0,30.0,4.0,0.0
5974,73.0,30.0,30.0,4.0,0.0
5975,70.0,0.0,60.0,6.0,0.0
5976,73.0,29.0,60.0,0.0,0.0
5977,52.0,0.0,60.0,7.0,0.0
5978,64.0,0.0,60.0,3.0,0.0
5979,64.0,0.0,60.0,5.0,0.0
5980,74.0,1.0,30.0,4.0,0.0
5981,73.0,0.0,60.0,6.0,0.0
5982,58.0,30.0,60.0,5.0,0.0
5983,76.0,30.0,30.0,4.0,0.0
5984,46.0,0.0,60.0,7.0,0.0
5985,58.0,0.0,60.0,3.0,0.0
5986,73.0,0.0,30.0,4.0,0.0
5987,61.0,0.0,60.0,3.0,0.0
5988,76.0,0.0,30.0,2.0,0.0
5989,70.0,0.0,30.0,4.0,0.0
5990,73.0,29.0,30.0,1.0,0.0
5991,76.0,1.0,30.0,6.0,0.0
5992,49.0,0.0,60.0,7.0,0.0
5993,61.0,0.0,60.0,5.0,0.0
5994,71.0,30.0,30.0,4.0,0.0
5995,79.0,0.0,30.0,6.0,0.0
5996,73.0,0.0,60.0,4.0,0.0
5997,42.0,30.0,60.0,7.0,0.0
5998,73.0,29.0,30.0,2.0,0.0
5999,54.0,0.0,60.0,3.0,0.0
6000,70.0,0.0,30.0,1.0,0.0
6001,54.0,0.0,60.0,5.0,0.0
6002,78.0,1.0,30.0,6.0,0.0
6003,76.0,0.0,30.0,6.0,0.0
6004,66.0,0.0,30.0,2.0,0.0
6005,46.0,0.0,60.0,7.0,0.0
6006,66.0,0.0,60.0,4.0,0.0
6007,58.0,0.0,60.0,3.0,0.0
6008,78.0,29.0,30.0,1.0,0.0
6009,74.0,1.0,30.0,6.0,0.0
6010,58.0,30.0,60.0,5.0,0.0
6011,73.0,0.0,30.0,6.0,0.0
6012,66.0,0.0,60.0,2.0,0.0
6013,71.0,0.0,60.0,4.0,0.0
6014,47.0,0.0,60.0,7.0,0.0
6015,75.0,29.0,60.0,1.0,0.0
6016,59.0,0.0,60.0,3.0,0.0
6017,47.0,30.0,30.0,5.0,0.0
6018,75.0,1.0,60.0,6.0,0.0
6019,71.0,0.0,60.0,0.0,0.0
6020,59.0,0.0,30.0,5.0,0.0
6021,69.0,0.0,60.0,2.0,0.0
6022,78.0,0.0,60.0,0.0,0.0
6023,54.0,0.0,60.0,3.0,0.0
6024,59.0,1.0,60.0,7.0,0.0
6025,78.0,0.0,60.0,4.0,0.0
6026,71.0,0.0,60.0,6.0,0.0
6027,57.0,30.0,30.0,5.0,0.0
6028,75.0,29.0,60.0,1.0,0.0
6029,55.0,0.0,30.0,5.0,0.0
6030,81.0,0.0,60.0,4.0,0.0
6031,81.0,0.0,60.0,0.0,0.0
6032,51.0,1.0,60.0,3.0,0.0
6033,72.0,0.0,60.0,4.0,0.0
6034,72.0,29.0,60.0,2.0,0.0
6035,54.0,30.0,30.0,5.0,0.0
6036,78.0,0.0,60.0,1.0,0.0
6037,63.0,0.0,30.0,5.0,0.0
6038,71.0,29.0,60.0,2.0,0.0
6039,79.0,0.0,60.0,0.0,0.0
6040,76.0,0.0,60.0,1.0,0.0
6041,52.0,1.0,60.0,3.0,0.0
6042,55.0,30.0,30.0,5.0,0.0
6043,79.0,0.0,60.0,4.0,0.0
6044,71.0,0.0,60.0,4.0,0.0
6045,64.0,0.0,30.0,5.0,0.0
6046,71.0,29.0,60.0,0.0,0.0
6047,57.0,30.0,30.0,5.0,0.0
6048,66.0,0.0,60.0,1.0,0.0
6049,57.0,0.0,30.0,3.0,0.0
6050,63.0,0.0,60.0,2.0,0.0
6051,71.0,0.0,60.0,4.0,0.0
6052,63.0,1.0,30.0,5.0,0.0
6053,55.0,0.0,30.0,3.0,0.0
6054,78.0,29.0,30.0,0.0,0.0
6055,69.0,0.0,30.0,2.0,0.0
6056,75.0,0.0,30.0,1.0,0.0
6057,57.0,1.0,30.0,5.0,0.0
6058,54.0,0.0,30.0,3.0,0.0
6059,78.0,0.0,30.0,4.0,0.0
6060,55.0,1.0,30.0,5.0,0.0
6061,76.0,29.0,30.0,1.0,0.0
6062,79.0,0.0,30.0,4.0,0.0
6063,71.0,0.0,30.0,2.0,0.0
6064,52.0,0.0,30.0,3.0,0.0
6065,79.0,0.0,30.0,0.0,0.0
6066,51.0,1.0,60.0,3.0,0.0
6067,72.0,0.0,30.0,2.0,0.0
6068,81.0,0.0,30.0,4.0,0.0
6069,81.0,29.0,30.0,0.0,0.0
6070,54.0,1.0,30.0,5.0,0.0
6071,78.0,0.0,30.0,1.0,0.0
6072,71.0,29.0,30.0,2.0,0.0
6073,79.0,0.0,30.0,4.0,0.0
6074,59.0,0.0,30.0,5.0,0.0
6075,76.0,0.0,30.0,1.0,0.0
6076,79.0,0.0,30.0,0.0,0.0
6077,52.0,0.0,60.0,3.0,0.0
6078,78.0,0.0,30.0,1.0,0.0
6079,72.0,29.0,30.0,2.0,0.0
6080,52.0,0.0,30.0,5.0,0.0
6081,81.0,0.0,30.0,0.0,0.0
6082,81.0,1.0,30.0,4.0,0.0
6083,64.0,1.0,30.0,5.0,0.0
6084,76.0,29.0,30.0,1.0,0.0
6085,79.0,0.0,30.0,4.0,0.0
6086,71.0,0.0,30.0,2.0,0.0
6087,79.0,0.0,30.0,0.0,0.0
6088,47.0,0.0,60.0,3.0,0.0
6089,59.0,0.0,30.0,5.0,0.0
6090,78.0,0.0,30.0,0.0,0.0
6091,75.0,0.0,30.0,1.0,0.0
6092,69.0,29.0,30.0,2.0,0.0
6093,78.0,1.0,30.0,4.0,0.0
6094,73.0,29.0,30.0,1.0,0.0
6095,76.0,1.0,30.0,4.0,0.0
6096,71.0,0.0,30.0,5.0,0.0
6097,67.0,0.0,30.0,2.0,0.0
6098,76.0,0.0,30.0,0.0,0.0
6099,66.0,29.0,30.0,2.0,0.0
6100,59.0,0.0,60.0,3.0,0.0
6101,78.0,0.0,30.0,4.0,0.0
6102,75.0,0.0,30.0,1.0,0.0
6103,78.0,0.0,30.0,0.0,0.0
6104,69.0,1.0,30.0,5.0,0.0
6105,76.0,0.0,30.0,1.0,0.0
6106,64.0,29.0,30.0,2.0,0.0
6107,79.0,0.0,30.0,0.0,0.0
6108,79.0,0.0,30.0,4.0,0.0
6109,67.0,1.0,30.0,5.0,0.0
6110,54.0,0.0,60.0,3.0,0.0
6111,63.0,0.0,60.0,2.0,0.0
6112,81.0,1.0,30.0,4.0,0.0
6113,66.0,0.0,30.0,5.0,0.0
6114,78.0,0.0,30.0,1.0,0.0
6115,81.0,29.0,30.0,0.0,0.0
6116,83.0,1.0,30.0,4.0,0.0
6117,83.0,29.0,30.0,0.0,0.0
6118,64.0,0.0,30.0,5.0,0.0
6119,79.0,0.0,30.0,1.0,0.0
6120,66.0,0.0,60.0,2.0,0.0
6121,84.0,1.0,60.0,4.0,0.0
6122,63.0,30.0,30.0,5.0,0.0
6123,51.0,0.0,60.0,3.0,0.0
6124,81.0,0.0,120.0,1.0,0.0
6125,84.0,29.0,60.0,0.0,0.0
6126,64.0,0.0,30.0,5.0,0.0
6127,66.0,1.0,30.0,5.0,0.0
6128,71.0,0.0,30.0,6.0,0.0
6129,75.0,0.0,60.0,4.0,0.0
6130,75.0,29.0,60.0,0.0,0.0
6131,66.0,29.0,120.0,2.0,0.0
6132,47.0,29.0,30.0,3.0,0.0
6133,64.0,1.0,30.0,5.0,0.0
6134,73.0,0.0,30.0,6.0,0.0
6135,66.0,0.0,60.0,7.0,0.0
6136,63.0,1.0,30.0,5.0,0.0
6137,59.0,29.0,30.0,3.0,0.0
6138,75.0,0.0,30.0,6.0,0.0
6139,71.0,0.0,30.0,1.0,0.0
6140,71.0,0.0,60.0,4.0,0.0
6141,66.0,0.0,60.0,0.0,0.0
6142,73.0,0.0,30.0,1.0,0.0
6143,76.0,0.0,30.0,6.0,0.0
6144,61.0,1.0,30.0,5.0,0.0
6145,78.0,1.0,30.0,6.0,0.0
6146,63.0,0.0,60.0,7.0,0.0
6147,59.0,0.0,60.0,5.0,0.0
6148,75.0,29.0,30.0,1.0,0.0
6149,76.0,29.0,30.0,1.0,0.0
6150,79.0,1.0,30.0,6.0,0.0
6151,71.0,29.0,30.0,0.0,0.0
6152,81.0,0.0,60.0,6.0,0.0
6153,59.0,0.0,60.0,7.0,0.0
6154,78.0,0.0,60.0,1.0,0.0
6155,71.0,1.0,30.0,4.0,0.0
6156,73.0,1.0,30.0,4.0,0.0
6157,73.0,29.0,30.0,0.0,0.0
6158,75.0,0.0,30.0,0.0,0.0
6159,47.0,29.0,30.0,3.0,0.0
6160,81.0,0.0,60.0,6.0,0.0
6161,75.0,1.0,30.0,4.0,0.0
6162,54.0,0.0,60.0,7.0,0.0
6163,59.0,0.0,30.0,2.0,0.0
6164,76.0,1.0,30.0,4.0,0.0
6165,61.0,29.0,30.0,2.0,0.0
6166,76.0,0.0,30.0,0.0,0.0
6167,66.0,0.0,60.0,5.0,0.0
6168,78.0,0.0,30.0,0.0,0.0
6169,78.0,1.0,30.0,4.0,0.0
6170,59.0,0.0,60.0,7.0,0.0
6171,59.0,29.0,30.0,3.0,0.0
6172,75.0,0.0,60.0,6.0,0.0
6173,63.0,0.0,30.0,2.0,0.0
6174,79.0,30.0,30.0,0.0,0.0
6175,64.0,0.0,30.0,2.0,0.0
6176,79.0,1.0,30.0,4.0,0.0
6177,63.0,1.0,60.0,5.0,0.0
6178,66.0,30.0,60.0,2.0,0.0
6179,81.0,0.0,60.0,0.0,0.0
6180,75.0,29.0,30.0,1.0,0.0
6181,54.0,0.0,60.0,7.0,0.0
6182,81.0,0.0,60.0,4.0,0.0
6183,76.0,0.0,30.0,1.0,0.0
6184,75.0,0.0,60.0,4.0,0.0
6185,78.0,29.0,30.0,1.0,0.0
6186,57.0,0.0,60.0,7.0,0.0
6187,75.0,29.0,60.0,0.0,0.0
6188,59.0,1.0,60.0,5.0,0.0
6189,79.0,0.0,30.0,1.0,0.0
6190,47.0,0.0,30.0,3.0,0.0
6191,54.0,1.0,60.0,5.0,0.0
6192,75.0,1.0,30.0,6.0,0.0
6193,81.0,29.0,60.0,1.0,0.0
6194,47.0,0.0,90.0,7.0,0.0
6195,59.0,29.0,30.0,2.0,0.0
6196,76.0,0.0,30.0,6.0,0.0
6197,61.0,0.0,30.0,2.0,0.0
6198,78.0,1.0,30.0,6.0,0.0
6199,63.0,29.0,30.0,2.0,0.0
6200,59.0,0.0,60.0,5.0,0.0
6201,59.0,0.0,30.0,3.0,0.0
6202,64.0,29.0,30.0,2.0,0.0
6203,79.0,1.0,30.0,6.0,0.0
6204,71.0,0.0,30.0,7.0,0.0
6205,54.0,1.0,60.0,5.0,0.0
6206,75.0,29.0,30.0,1.0,0.0
6207,69.0,1.0,30.0,7.0,0.0
6208,66.0,0.0,60.0,2.0,0.0
6209,81.0,0.0,30.0,6.0,0.0
6210,83.0,0.0,30.0,6.0,0.0
6211,76.0,29.0,30.0,1.0,0.0
6212,67.0,0.0,30.0,7.0,0.0
6213,57.0,0.0,60.0,5.0,0.0
6214,84.0,0.0,60.0,6.0,0.0
6215,75.0,29.0,30.0,0.0,0.0
6216,66.0,0.0,30.0,7.0,0.0
6217,78.0,0.0,30.0,1.0,0.0
6218,75.0,1.0,30.0,4.0,0.0
6219,64.0,1.0,30.0,7.0,0.0
6220,79.0,29.0,30.0,1.0,0.0
6221,76.0,0.0,30.0,4.0,0.0
6222,76.0,0.0,30.0,0.0,0.0
6223,63.0,0.0,60.0,7.0,0.0
6224,84.0,0.0,60.0,6.0,0.0
6225,78.0,29.0,30.0,0.0,0.0
6226,47.0,0.0,60.0,5.0,0.0
6227,81.0,29.0,60.0,1.0,0.0
6228,78.0,1.0,30.0,4.0,0.0
6229,47.0,0.0,30.0,3.0,0.0
6230,79.0,1.0,30.0,4.0,0.0
6231,79.0,0.0,30.0,0.0,0.0
6232,81.0,29.0,30.0,0.0,0.0
6233,59.0,0.0,60.0,7.0,0.0
6234,59.0,0.0,60.0,5.0,0.0
6235,78.0,1.0,60.0,6.0,0.0
6236,59.0,0.0,30.0,3.0,0.0
6237,81.0,1.0,30.0,4.0,0.0
6238,83.0,0.0,30.0,4.0,0.0
6239,83.0,29.0,30.0,0.0,0.0
6240,54.0,0.0,60.0,5.0,0.0
6241,54.0,0.0,60.0,7.0,0.0
6242,54.0,0.0,60.0,3.0,0.0
6243,81.0,1.0,60.0,6.0,0.0
6244,84.0,30.0,30.0,4.0,0.0
6245,84.0,29.0,60.0,0.0,0.0
6246,81.0,0.0,30.0,4.0,0.0
6247,78.0,29.0,60.0,0.0,0.0
6248,78.0,30.0,30.0,4.0,0.0
6249,75.0,1.0,60.0,6.0,0.0
6250,57.0,0.0,60.0,3.0,0.0
6251,57.0,0.0,60.0,5.0,0.0
6252,57.0,0.0,60.0,7.0,0.0
6253,79.0,0.0,30.0,4.0,0.0
6254,51.0,0.0,60.0,7.0,0.0
6255,51.0,0.0,60.0,3.0,0.0
6256,51.0,0.0,60.0,5.0,0.0
6257,81.0,30.0,30.0,4.0,0.0
6258,78.0,0.0,60.0,6.0,0.0
6259,78.0,30.0,30.0,4.0,0.0
6260,75.0,0.0,30.0,4.0,0.0
6261,54.0,30.0,60.0,5.0,0.0
6262,54.0,0.0,60.0,7.0,0.0
6263,54.0,0.0,60.0,3.0,0.0
6264,69.0,0.0,30.0,2.0,0.0
6265,69.0,1.0,30.0,6.0,0.0
6266,78.0,29.0,30.0,1.0,0.0
6267,72.0,0.0,30.0,6.0,0.0
6268,76.0,0.0,30.0,4.0,0.0
6269,75.0,29.0,30.0,1.0,0.0
6270,47.0,0.0,60.0,3.0,0.0
6271,47.0,0.0,60.0,5.0,0.0
6272,71.0,0.0,30.0,6.0,0.0
6273,47.0,30.0,60.0,7.0,0.0
6274,78.0,1.0,30.0,4.0,0.0
6275,66.0,0.0,30.0,2.0,0.0
6276,69.0,0.0,30.0,6.0,0.0
6277,72.0,0.0,30.0,4.0,0.0
6278,51.0,0.0,60.0,7.0,0.0
6279,59.0,29.0,30.0,2.0,0.0
6280,78.0,0.0,30.0,1.0,0.0
6281,51.0,0.0,60.0,5.0,0.0
6282,51.0,0.0,60.0,3.0,0.0
6283,67.0,1.0,30.0,6.0,0.0
6284,71.0,0.0,30.0,4.0,0.0
6285,66.0,60.0,30.0,6.0,0.0
6286,69.0,0.0,30.0,4.0,0.0
6287,52.0,0.0,120.0,5.0,0.0
6288,76.0,0.0,60.0,1.0,0.0
6289,67.0,0.0,60.0,4.0,0.0
6290,52.0,0.0,60.0,7.0,0.0
6291,59.0,59.0,60.0,2.0,0.0
6292,40.0,1.0,120.0,3.0,0.0
6293,67.0,1.0,60.0,6.0,0.0
6294,71.0,0.0,60.0,0.0,0.0
6295,55.0,0.0,120.0,5.0,0.0
6296,59.0,0.0,120.0,5.0,0.0
6297,67.0,59.0,60.0,1.0,0.0
6298,76.0,0.0,60.0,0.0,0.0
6299,76.0,0.0,60.0,4.0,0.0
6300,71.0,0.0,60.0,2.0,0.0
6301,64.0,0.0,60.0,6.0,0.0
6302,40.0,0.0,60.0,7.0,0.0
6303,71.0,0.0,60.0,1.0,0.0
6304,79.0,0.0,60.0,0.0,0.0
6305,71.0,1.0,60.0,4.0,0.0
6306,76.0,59.0,60.0,2.0,0.0
6307,79.0,0.0,60.0,4.0,0.0
6308,69.0,1.0,60.0,4.0,0.0
6309,78.0,0.0,60.0,4.0,0.0
6310,69.0,19.0,60.0,1.0,0.0
6311,78.0,0.0,60.0,0.0,0.0
6312,75.0,0.0,60.0,2.0,0.0
6313,76.0,0.0,60.0,2.0,0.0
6314,84.0,10.0,20.0,6.0,0.0
6315,71.0,14.0,60.0,0.0,0.0
6316,64.0,0.0,120.0,5.0,0.0
6317,67.0,0.0,60.0,1.0,0.0
6318,71.0,0.0,60.0,4.0,0.0
6319,67.0,10.0,30.0,4.0,0.0
6320,40.0,0.0,120.0,3.0,0.0
6321,83.0,20.0,20.0,6.0,0.0
6322,69.0,0.0,30.0,7.0,0.0
6323,66.0,1.0,30.0,4.0,0.0
6324,84.0,0.0,20.0,6.0,0.0
6325,76.0,0.0,30.0,4.0,0.0
6326,71.0,14.0,60.0,1.0,0.0
6327,67.0,1.0,30.0,7.0,0.0
6328,76.0,14.0,30.0,0.0,0.0
6329,67.0,0.0,30.0,2.0,0.0
6330,83.0,15.0,15.0,6.0,0.0
6331,67.0,0.0,30.0,4.0,0.0
6332,84.0,0.0,15.0,6.0,0.0
6333,69.0,0.0,30.0,2.0,0.0
6334,66.0,1.0,30.0,7.0,0.0
6335,78.0,0.0,30.0,4.0,0.0
6336,83.0,15.0,15.0,6.0,0.0
6337,78.0,0.0,30.0,0.0,0.0
6338,69.0,0.0,30.0,4.0,0.0
6339,84.0,0.0,15.0,6.0,0.0
6340,71.0,1.0,30.0,4.0,0.0
6341,64.0,0.0,60.0,7.0,0.0
6342,79.0,0.0,30.0,4.0,0.0
6343,79.0,14.0,30.0,0.0,0.0
6344,76.0,0.0,30.0,1.0,0.0
6345,71.0,0.0,30.0,2.0,0.0
6346,83.0,15.0,15.0,6.0,0.0
6347,84.0,0.0,15.0,6.0,0.0
6348,69.0,0.0,30.0,2.0,0.0
6349,83.0,15.0,15.0,6.0,0.0
6350,69.0,0.0,30.0,4.0,0.0
6351,78.0,0.0,30.0,4.0,0.0
6352,78.0,14.0,30.0,0.0,0.0
6353,75.0,0.0,30.0,1.0,0.0
6354,84.0,1.0,15.0,6.0,0.0
6355,71.0,0.0,30.0,4.0,0.0
6356,79.0,1.0,30.0,4.0,0.0
6357,83.0,15.0,15.0,6.0,0.0
6358,79.0,0.0,30.0,0.0,0.0
6359,71.0,14.0,30.0,2.0,0.0
6360,71.0,0.0,60.0,7.0,0.0
6361,76.0,0.0,30.0,1.0,0.0
6362,84.0,0.0,15.0,6.0,0.0
6363,75.0,0.0,30.0,1.0,0.0
6364,69.0,14.0,30.0,2.0,0.0
6365,78.0,1.0,30.0,4.0,0.0
6366,69.0,0.0,30.0,4.0,0.0
6367,78.0,0.0,30.0,0.0,0.0
6368,83.0,15.0,15.0,6.0,0.0
6369,84.0,0.0,15.0,6.0,0.0
6370,83.0,15.0,15.0,6.0,0.0
6371,59.0,0.0,60.0,5.0,0.0
6372,67.0,0.0,60.0,4.0,0.0
6373,55.0,0.0,60.0,5.0,0.0
6374,76.0,0.0,60.0,0.0,0.0
6375,76.0,0.0,60.0,4.0,0.0
6376,67.0,29.0,60.0,2.0,0.0
6377,52.0,0.0,60.0,3.0,0.0
6378,76.0,0.0,60.0,1.0,0.0
6379,52.0,0.0,60.0,5.0,0.0
6380,59.0,0.0,60.0,7.0,0.0
6381,84.0,30.0,15.0,6.0,0.0
6382,76.0,1.0,30.0,6.0,0.0
6383,76.0,0.0,60.0,1.0,0.0
6384,64.0,0.0,60.0,3.0,0.0
6385,69.0,0.0,30.0,2.0,0.0
6386,78.0,0.0,30.0,6.0,0.0
6387,64.0,0.0,60.0,5.0,0.0
6388,78.0,1.0,30.0,4.0,0.0
6389,78.0,29.0,30.0,0.0,0.0
6390,64.0,0.0,60.0,7.0,0.0
6391,71.0,0.0,30.0,2.0,0.0
6392,79.0,0.0,30.0,4.0,0.0
6393,79.0,29.0,30.0,0.0,0.0
6394,79.0,1.0,30.0,6.0,0.0
6395,72.0,0.0,30.0,2.0,0.0
6396,81.0,0.0,30.0,4.0,0.0
6397,60.0,0.0,60.0,5.0,0.0
6398,81.0,1.0,30.0,6.0,0.0
6399,76.0,29.0,60.0,1.0,0.0
6400,60.0,1.0,60.0,7.0,0.0
6401,60.0,0.0,60.0,3.0,0.0
6402,81.0,29.0,30.0,0.0,0.0
6403,83.0,0.0,30.0,6.0,0.0
6404,74.0,0.0,30.0,2.0,0.0
6405,83.0,0.0,30.0,4.0,0.0
6406,83.0,0.0,30.0,0.0,0.0
6407,57.0,0.0,60.0,3.0,0.0
6408,76.0,29.0,60.0,2.0,0.0
6409,84.0,0.0,60.0,4.0,0.0
6410,57.0,1.0,60.0,5.0,0.0
6411,84.0,30.0,30.0,6.0,0.0
6412,57.0,0.0,60.0,7.0,0.0
6413,81.0,0.0,30.0,6.0,0.0
6414,62.0,0.0,30.0,7.0,0.0
6415,81.0,0.0,15.0,1.0,0.0
6416,84.0,0.0,15.0,0.0,0.0
6417,84.0,0.0,60.0,4.0,0.0
6418,62.0,0.0,60.0,5.0,0.0
6419,74.0,0.0,60.0,2.0,0.0
6420,78.0,30.0,30.0,6.0,0.0
6421,50.0,0.0,60.0,3.0,0.0
6422,76.0,0.0,30.0,6.0,0.0
6423,60.0,1.0,30.0,7.0,0.0
6424,62.0,0.0,60.0,3.0,0.0
6425,74.0,29.0,60.0,1.0,0.0
6426,50.0,0.0,60.0,5.0,0.0
6427,62.0,0.0,30.0,7.0,0.0
6428,78.0,30.0,30.0,6.0,0.0
6429,69.0,0.0,60.0,2.0,0.0
6430,78.0,0.0,60.0,4.0,0.0
6431,78.0,0.0,60.0,0.0,0.0
6432,81.0,0.0,30.0,6.0,0.0
6433,66.0,1.0,30.0,7.0,0.0
6434,84.0,30.0,60.0,6.0,0.0
6435,69.0,30.0,30.0,7.0,0.0
6436,67.0,0.0,30.0,7.0,0.0
6437,69.0,30.0,30.0,7.0,0.0
6438,78.0,60.0,60.0,6.0,0.0
6439,66.0,0.0,30.0,7.0,0.0
6440,54.0,0.0,120.0,5.0,0.0
6441,62.0,0.0,60.0,1.0,0.0
6442,66.0,59.0,60.0,2.0,0.0
6443,50.0,0.0,120.0,5.0,0.0
6444,69.0,1.0,60.0,4.0,0.0
6445,74.0,0.0,60.0,7.0,0.0
6446,66.0,0.0,120.0,4.0,0.0
6447,50.0,0.0,120.0,3.0,0.0
6448,57.0,0.0,120.0,5.0,0.0
6449,69.0,0.0,60.0,0.0,0.0
6450,62.0,1.0,120.0,5.0,0.0
6451,74.0,59.0,60.0,0.0,0.0
6452,74.0,0.0,60.0,4.0,0.0
6453,66.0,0.0,60.0,1.0,0.0
6454,69.0,0.0,60.0,2.0,0.0
6455,62.0,0.0,60.0,7.0,0.0
6456,69.0,0.0,60.0,1.0,0.0
6457,74.0,59.0,60.0,2.0,0.0
6458,69.0,1.0,60.0,4.0,0.0
6459,78.0,0.0,60.0,4.0,0.0
6460,78.0,0.0,60.0,0.0,0.0
6461,67.0,0.0,60.0,1.0,0.0
6462,76.0,19.0,60.0,0.0,0.0
6463,67.0,0.0,60.0,4.0,0.0
6464,76.0,1.0,60.0,4.0,0.0
6465,73.0,0.0,60.0,2.0,0.0
6466,69.0,0.0,60.0,4.0,0.0
6467,66.0,10.0,30.0,4.0,0.0
6468,62.0,0.0,120.0,5.0,0.0
6469,69.0,0.0,60.0,0.0,0.0
6470,81.0,10.0,20.0,6.0,0.0
6471,50.0,0.0,120.0,3.0,0.0
6472,66.0,0.0,60.0,1.0,0.0
6473,74.0,14.0,60.0,2.0,0.0
6474,83.0,20.0,20.0,6.0,0.0
6475,64.0,0.0,30.0,4.0,0.0
6476,67.0,0.0,30.0,7.0,0.0
6477,81.0,1.0,20.0,6.0,0.0
6478,66.0,1.0,30.0,7.0,0.0
6479,74.0,14.0,30.0,0.0,0.0
6480,69.0,14.0,60.0,1.0,0.0
6481,74.0,0.0,30.0,4.0,0.0
6482,66.0,0.0,30.0,4.0,0.0
6483,66.0,0.0,30.0,2.0,0.0
6484,83.0,15.0,15.0,6.0,0.0
6485,81.0,0.0,15.0,6.0,0.0
6486,64.0,0.0,30.0,7.0,0.0
6487,67.0,0.0,30.0,2.0,0.0
6488,76.0,0.0,30.0,0.0,0.0
6489,83.0,15.0,15.0,6.0,0.0
6490,67.0,0.0,30.0,4.0,0.0
6491,76.0,1.0,30.0,4.0,0.0
6492,81.0,0.0,15.0,6.0,0.0
6493,69.0,0.0,30.0,4.0,0.0
6494,78.0,0.0,30.0,4.0,0.0
6495,62.0,1.0,60.0,7.0,0.0
6496,83.0,15.0,15.0,6.0,0.0
6497,69.0,0.0,30.0,2.0,0.0
6498,78.0,14.0,30.0,0.0,0.0
6499,74.0,0.0,30.0,1.0,0.0
6500,81.0,1.0,15.0,6.0,0.0
6501,76.0,0.0,30.0,4.0,0.0
6502,67.0,0.0,30.0,2.0,0.0
6503,73.0,14.0,30.0,1.0,0.0
6504,76.0,0.0,30.0,0.0,0.0
6505,67.0,0.0,30.0,4.0,0.0
6506,83.0,15.0,15.0,6.0,0.0
6507,81.0,0.0,15.0,6.0,0.0
6508,69.0,0.0,60.0,7.0,0.0
6509,69.0,0.0,30.0,2.0,0.0
6510,78.0,14.0,30.0,0.0,0.0
6511,83.0,15.0,15.0,6.0,0.0
6512,78.0,0.0,30.0,4.0,0.0
6513,69.0,0.0,30.0,4.0,0.0
6514,74.0,0.0,30.0,1.0,0.0
6515,81.0,1.0,15.0,6.0,0.0
6516,67.0,0.0,30.0,4.0,0.0
6517,73.0,14.0,30.0,1.0,0.0
6518,83.0,15.0,15.0,6.0,0.0
6519,76.0,1.0,30.0,4.0,0.0
6520,67.0,0.0,30.0,2.0,0.0
6521,76.0,0.0,30.0,0.0,0.0
6522,81.0,0.0,15.0,6.0,0.0
6523,74.0,29.0,60.0,0.0,0.0
6524,62.0,0.0,60.0,4.0,0.0
6525,66.0,1.0,60.0,4.0,0.0
6526,74.0,0.0,60.0,4.0,0.0
6527,74.0,0.0,60.0,1.0,0.0
6528,50.0,0.0,60.0,5.0,0.0
6529,54.0,0.0,60.0,5.0,0.0
6530,50.0,0.0,60.0,3.0,0.0
6531,57.0,0.0,60.0,7.0,0.0
6532,83.0,15.0,15.0,6.0,0.0
6533,66.0,0.0,60.0,2.0,0.0
6534,57.0,0.0,60.0,5.0,0.0
6535,81.0,30.0,15.0,6.0,0.0
6536,74.0,0.0,30.0,6.0,0.0
6537,76.0,1.0,30.0,4.0,0.0
6538,62.0,0.0,60.0,5.0,0.0
6539,62.0,1.0,60.0,7.0,0.0
6540,74.0,0.0,60.0,1.0,0.0
6541,76.0,29.0,30.0,0.0,0.0
6542,62.0,0.0,60.0,3.0,0.0
6543,76.0,0.0,30.0,6.0,0.0
6544,67.0,0.0,30.0,2.0,0.0
6545,78.0,0.0,30.0,6.0,0.0
6546,78.0,0.0,30.0,4.0,0.0
6547,78.0,29.0,30.0,0.0,0.0
6548,69.0,0.0,30.0,2.0,0.0
6549,59.0,0.0,60.0,7.0,0.0
6550,74.0,29.0,60.0,1.0,0.0
6551,79.0,1.0,30.0,6.0,0.0
6552,59.0,0.0,60.0,3.0,0.0
6553,71.0,0.0,30.0,2.0,0.0
6554,79.0,0.0,30.0,4.0,0.0
6555,79.0,29.0,30.0,0.0,0.0
6556,59.0,0.0,60.0,5.0,0.0
6557,81.0,1.0,30.0,4.0,0.0
6558,72.0,0.0,30.0,2.0,0.0
6559,81.0,0.0,30.0,0.0,0.0
6560,81.0,0.0,30.0,6.0,0.0
6561,55.0,0.0,60.0,3.0,0.0
6562,83.0,0.0,60.0,4.0,0.0
6563,83.0,0.0,60.0,0.0,0.0
6564,74.0,29.0,60.0,2.0,0.0
6565,79.0,0.0,60.0,1.0,0.0
6566,55.0,0.0,60.0,5.0,0.0
6567,55.0,1.0,60.0,7.0,0.0
6568,83.0,30.0,30.0,6.0,0.0
6569,79.0,0.0,30.0,6.0,0.0
6570,60.0,30.0,30.0,7.0,0.0
6571,76.0,0.0,30.0,6.0,0.0
6572,48.0,0.0,60.0,5.0,0.0
6573,83.0,0.0,60.0,4.0,0.0
6574,83.0,29.0,60.0,0.0,0.0
6575,48.0,0.0,60.0,3.0,0.0
6576,76.0,0.0,60.0,2.0,0.0
6577,79.0,0.0,60.0,1.0,0.0
6578,59.0,0.0,30.0,7.0,0.0
6579,75.0,1.0,30.0,6.0,0.0
6580,67.0,0.0,60.0,1.0,0.0
6581,76.0,1.0,60.0,4.0,0.0
6582,72.0,0.0,60.0,2.0,0.0
6583,76.0,29.0,60.0,0.0,0.0
6584,60.0,0.0,60.0,5.0,0.0
6585,60.0,0.0,60.0,3.0,0.0
6586,60.0,30.0,30.0,7.0,0.0
6587,76.0,0.0,30.0,6.0,0.0
6588,79.0,0.0,30.0,6.0,0.0
6589,64.0,0.0,30.0,7.0,0.0
6590,83.0,30.0,60.0,6.0,0.0
6591,67.0,30.0,30.0,7.0,0.0
6592,66.0,0.0,30.0,7.0,0.0
6593,76.0,30.0,60.0,6.0,0.0
6594,67.0,30.0,30.0,7.0,0.0
6595,64.0,0.0,30.0,7.0,0.0
6596,60.0,1.0,60.0,3.0,0.0
6597,60.0,0.0,30.0,7.0,0.0
6598,88.0,0.0,30.0,4.0,0.0
6599,60.0,0.0,60.0,5.0,0.0
6600,88.0,1.0,30.0,6.0,0.0
6601,69.0,29.0,120.0,2.0,0.0
6602,88.0,29.0,30.0,0.0,0.0
6603,86.0,0.0,30.0,4.0,0.0
6604,59.0,0.0,30.0,7.0,0.0
6605,86.0,0.0,30.0,6.0,0.0
6606,86.0,29.0,30.0,0.0,0.0
6607,84.0,0.0,30.0,6.0,0.0
6608,84.0,29.0,30.0,0.0,0.0
6609,64.0,0.0,30.0,3.0,0.0
6610,64.0,1.0,30.0,5.0,0.0
6611,84.0,0.0,30.0,4.0,0.0
6612,57.0,0.0,30.0,7.0,0.0
6613,83.0,0.0,30.0,6.0,0.0
6614,83.0,0.0,30.0,0.0,0.0
6615,59.0,1.0,30.0,7.0,0.0
6616,83.0,0.0,30.0,4.0,0.0
6617,62.0,0.0,30.0,3.0,0.0
6618,62.0,0.0,30.0,5.0,0.0
6619,76.0,29.0,30.0,1.0,0.0
6620,81.0,0.0,60.0,4.0,0.0
6621,81.0,1.0,60.0,6.0,0.0
6622,60.0,1.0,30.0,7.0,0.0
6623,60.0,0.0,60.0,3.0,0.0
6624,60.0,0.0,60.0,5.0,0.0
6625,74.0,29.0,30.0,1.0,0.0
6626,59.0,0.0,30.0,7.0,0.0
6627,81.0,1.0,60.0,6.0,0.0
6628,81.0,0.0,60.0,4.0,0.0
6629,81.0,0.0,15.0,0.0,0.0
6630,57.0,0.0,30.0,7.0,0.0
6631,64.0,0.0,30.0,5.0,0.0
6632,72.0,29.0,30.0,1.0,0.0
6633,64.0,1.0,30.0,3.0,0.0
6634,62.0,0.0,30.0,3.0,0.0
6635,59.0,0.0,30.0,7.0,0.0
6636,71.0,29.0,30.0,1.0,0.0
6637,62.0,0.0,30.0,5.0,0.0
6638,60.0,0.0,60.0,5.0,0.0
6639,81.0,0.0,150.0,4.0,0.0
6640,60.0,1.0,30.0,7.0,0.0
6641,64.0,29.0,30.0,2.0,0.0
6642,69.0,0.0,60.0,1.0,0.0
6643,81.0,0.0,150.0,0.0,0.0
6644,60.0,0.0,60.0,3.0,0.0
6645,81.0,29.0,150.0,6.0,0.0
6646,62.0,29.0,30.0,2.0,0.0
6647,59.0,1.0,30.0,7.0,0.0
6648,64.0,0.0,30.0,5.0,0.0
6649,60.0,29.0,30.0,2.0,0.0
6650,64.0,29.0,60.0,1.0,0.0
6651,64.0,1.0,30.0,3.0,0.0
6652,57.0,0.0,30.0,7.0,0.0
6653,59.0,0.0,30.0,2.0,0.0
6654,62.0,0.0,30.0,5.0,0.0
6655,59.0,0.0,30.0,7.0,0.0
6656,62.0,1.0,30.0,3.0,0.0
6657,60.0,0.0,60.0,3.0,0.0
6658,57.0,0.0,60.0,2.0,0.0
6659,60.0,1.0,30.0,7.0,0.0
6660,60.0,1.0,60.0,5.0,0.0
6661,76.0,0.0,30.0,6.0,0.0
6662,59.0,0.0,30.0,7.0,0.0
6663,76.0,0.0,30.0,4.0,0.0
6664,76.0,29.0,30.0,0.0,0.0
6665,81.0,1.0,30.0,6.0,0.0
6666,81.0,0.0,30.0,0.0,0.0
6667,59.0,29.0,30.0,3.0,0.0
6668,81.0,0.0,30.0,4.0,0.0
6669,57.0,0.0,30.0,7.0,0.0
6670,59.0,1.0,60.0,5.0,0.0
6671,83.0,29.0,30.0,0.0,0.0
6672,56.0,0.0,30.0,7.0,0.0
6673,83.0,0.0,30.0,4.0,0.0
6674,83.0,0.0,30.0,6.0,0.0
6675,57.0,0.0,30.0,7.0,0.0
6676,84.0,0.0,30.0,0.0,0.0
6677,84.0,0.0,30.0,4.0,0.0
6678,84.0,1.0,30.0,6.0,0.0
6679,57.0,0.0,60.0,5.0,0.0
6680,57.0,29.0,30.0,3.0,0.0
6681,65.0,29.0,120.0,2.0,0.0
6682,83.0,1.0,30.0,4.0,0.0
6683,83.0,29.0,30.0,0.0,0.0
6684,55.0,0.0,30.0,7.0,0.0
6685,83.0,0.0,30.0,6.0,0.0
6686,81.0,1.0,30.0,6.0,0.0
6687,81.0,29.0,30.0,0.0,0.0
6688,53.0,0.0,30.0,7.0,0.0
6689,60.0,0.0,30.0,3.0,0.0
6690,60.0,0.0,30.0,5.0,0.0
6691,81.0,0.0,30.0,4.0,0.0
6692,59.0,0.0,30.0,5.0,0.0
6693,59.0,0.0,30.0,3.0,0.0
6694,79.0,0.0,30.0,4.0,0.0
6695,79.0,0.0,30.0,6.0,0.0
6696,79.0,0.0,30.0,0.0,0.0
6697,55.0,1.0,30.0,7.0,0.0
6698,57.0,1.0,30.0,7.0,0.0
6699,77.0,0.0,60.0,6.0,0.0
6700,72.0,29.0,30.0,1.0,0.0
6701,57.0,0.0,60.0,3.0,0.0
6702,57.0,0.0,60.0,5.0,0.0
6703,77.0,1.0,60.0,4.0,0.0
6704,71.0,0.0,30.0,1.0,0.0
6705,55.0,0.0,30.0,7.0,0.0
6706,77.0,0.0,60.0,6.0,0.0
6707,69.0,29.0,30.0,1.0,0.0
6708,77.0,29.0,15.0,0.0,0.0
6709,60.0,0.0,30.0,5.0,0.0
6710,53.0,1.0,30.0,7.0,0.0
6711,77.0,0.0,60.0,4.0,0.0
6712,60.0,0.0,30.0,3.0,0.0
6713,59.0,0.0,30.0,5.0,0.0
6714,59.0,0.0,30.0,3.0,0.0
6715,55.0,1.0,30.0,7.0,0.0
6716,67.0,29.0,30.0,1.0,0.0
6717,60.0,29.0,30.0,2.0,0.0
6718,77.0,0.0,150.0,6.0,0.0
6719,77.0,0.0,150.0,0.0,0.0
6720,57.0,0.0,60.0,5.0,0.0
6721,57.0,1.0,60.0,3.0,0.0
6722,77.0,29.0,150.0,4.0,0.0
6723,65.0,29.0,60.0,1.0,0.0
6724,57.0,1.0,30.0,7.0,0.0
6725,59.0,0.0,30.0,2.0,0.0
6726,55.0,0.0,30.0,7.0,0.0
6727,57.0,29.0,30.0,2.0,0.0
6728,53.0,0.0,30.0,7.0,0.0
6729,60.0,1.0,30.0,5.0,0.0
6730,60.0,0.0,30.0,3.0,0.0
6731,60.0,0.0,60.0,1.0,0.0
6732,55.0,0.0,30.0,7.0,0.0
6733,59.0,0.0,30.0,3.0,0.0
6734,55.0,29.0,30.0,2.0,0.0
6735,59.0,1.0,30.0,5.0,0.0
6736,57.0,1.0,30.0,7.0,0.0
6737,57.0,0.0,60.0,3.0,0.0
6738,57.0,0.0,60.0,5.0,0.0
6739,53.0,29.0,60.0,2.0,0.0
6740,72.0,1.0,30.0,6.0,0.0
6741,72.0,0.0,30.0,4.0,0.0
6742,55.0,0.0,30.0,7.0,0.0
6743,72.0,0.0,30.0,0.0,0.0
6744,53.0,0.0,30.0,7.0,0.0
6745,77.0,0.0,30.0,4.0,0.0
6746,77.0,29.0,30.0,0.0,0.0
6747,55.0,0.0,60.0,5.0,0.0
6748,77.0,1.0,30.0,6.0,0.0
6749,55.0,0.0,30.0,3.0,0.0
6750,52.0,0.0,30.0,7.0,0.0
6751,79.0,29.0,30.0,0.0,0.0
6752,79.0,1.0,30.0,4.0,0.0
6753,79.0,0.0,30.0,6.0,0.0
6754,81.0,0.0,30.0,4.0,0.0
6755,81.0,29.0,30.0,0.0,0.0
6756,53.0,0.0,30.0,3.0,0.0
6757,81.0,1.0,30.0,6.0,0.0
6758,53.0,1.0,60.0,7.0,0.0
6759,53.0,0.0,30.0,5.0,0.0
6760,83.0,0.0,30.0,6.0,0.0
6761,83.0,0.0,30.0,4.0,0.0
6762,52.0,0.0,30.0,5.0,0.0
6763,83.0,29.0,30.0,0.0,0.0
6764,52.0,0.0,30.0,3.0,0.0
6765,84.0,0.0,30.0,6.0,0.0
6766,51.0,1.0,30.0,3.0,0.0
6767,66.0,29.0,30.0,1.0,0.0
6768,84.0,0.0,30.0,0.0,0.0
6769,57.0,0.0,60.0,7.0,0.0
6770,51.0,0.0,30.0,5.0,0.0
6771,69.0,0.0,30.0,2.0,0.0
6772,84.0,0.0,30.0,4.0,0.0
6773,83.0,1.0,30.0,4.0,0.0
6774,83.0,0.0,30.0,6.0,0.0
6775,52.0,0.0,30.0,3.0,0.0
6776,67.0,0.0,30.0,2.0,0.0
6777,67.0,0.0,30.0,1.0,0.0
6778,52.0,0.0,30.0,5.0,0.0
6779,83.0,29.0,30.0,0.0,0.0
6780,69.0,0.0,30.0,1.0,0.0
6781,54.0,1.0,30.0,5.0,0.0
6782,81.0,0.0,30.0,0.0,0.0
6783,81.0,0.0,30.0,6.0,0.0
6784,54.0,0.0,30.0,3.0,0.0
6785,81.0,0.0,30.0,4.0,0.0
6786,48.0,0.0,60.0,7.0,0.0
6787,66.0,29.0,30.0,2.0,0.0
6788,79.0,29.0,30.0,0.0,0.0
6789,79.0,1.0,30.0,4.0,0.0
6790,71.0,0.0,30.0,1.0,0.0
6791,79.0,0.0,30.0,6.0,0.0
6792,64.0,0.0,30.0,2.0,0.0
6793,55.0,0.0,30.0,5.0,0.0
6794,55.0,0.0,30.0,3.0,0.0
6795,78.0,0.0,30.0,4.0,0.0
6796,63.0,29.0,30.0,2.0,0.0
6797,72.0,0.0,60.0,1.0,0.0
6798,57.0,0.0,120.0,7.0,0.0
6799,78.0,1.0,30.0,6.0,0.0
6800,78.0,0.0,30.0,0.0,0.0
6801,57.0,0.0,120.0,5.0,0.0
6802,57.0,1.0,120.0,3.0,0.0
6803,76.0,1.0,30.0,4.0,0.0
6804,64.0,0.0,30.0,2.0,0.0
6805,76.0,59.0,30.0,0.0,0.0
6806,76.0,0.0,30.0,6.0,0.0
6807,75.0,0.0,60.0,0.0,0.0
6808,66.0,0.0,60.0,2.0,0.0
6809,75.0,0.0,60.0,4.0,0.0
6810,75.0,0.0,60.0,6.0,0.0
6811,55.0,0.0,60.0,5.0,0.0
6812,64.0,0.0,30.0,5.0,0.0
6813,64.0,0.0,60.0,2.0,0.0
6814,83.0,0.0,60.0,6.0,0.0
6815,71.0,29.0,15.0,1.0,0.0
6816,83.0,0.0,60.0,0.0,0.0
6817,83.0,0.0,60.0,4.0,0.0
6818,55.0,0.0,60.0,3.0,0.0
6819,64.0,30.0,30.0,7.0,0.0
6820,55.0,1.0,60.0,7.0,0.0
6821,63.0,0.0,30.0,5.0,0.0
6822,63.0,0.0,30.0,7.0,0.0
6823,60.0,0.0,60.0,7.0,0.0
6824,76.0,1.0,60.0,4.0,0.0
6825,76.0,0.0,60.0,6.0,0.0
6826,60.0,0.0,60.0,5.0,0.0
6827,64.0,0.0,60.0,5.0,0.0
6828,76.0,59.0,60.0,0.0,0.0
6829,64.0,0.0,60.0,7.0,0.0
6830,67.0,0.0,60.0,2.0,0.0
6831,60.0,0.0,60.0,3.0,0.0
6832,57.0,0.0,60.0,7.0,0.0
6833,60.0,0.0,60.0,7.0,0.0
6834,76.0,0.0,15.0,1.0,0.0
6835,72.0,59.0,60.0,2.0,0.0
6836,81.0,0.0,60.0,0.0,0.0
6837,57.0,0.0,60.0,3.0,0.0
6838,81.0,0.0,60.0,4.0,0.0
6839,76.0,0.0,60.0,6.0,0.0
6840,60.0,0.0,60.0,5.0,0.0
6841,76.0,0.0,60.0,4.0,0.0
6842,57.0,0.0,60.0,5.0,0.0
6843,81.0,1.0,60.0,6.0,0.0
6844,59.0,0.0,60.0,3.0,0.0
6845,76.0,0.0,120.0,6.0,0.0
6846,76.0,29.0,90.0,1.0,0.0
6847,79.0,0.0,90.0,0.0,0.0
6848,71.0,29.0,60.0,2.0,0.0
6849,59.0,0.0,60.0,7.0,0.0
6850,59.0,1.0,60.0,5.0,0.0
6851,79.0,0.0,90.0,4.0,0.0
6852,76.0,0.0,90.0,4.0,0.0
6853,79.0,1.0,90.0,6.0,0.0
6854,57.0,1.0,60.0,3.0,0.0
6855,57.0,0.0,60.0,7.0,0.0
6856,57.0,0.0,60.0,5.0,0.0
6857,72.0,0.0,60.0,2.0,0.0
6858,78.0,0.0,30.0,4.0,0.0
6859,78.0,0.0,30.0,0.0,0.0
6860,78.0,0.0,30.0,6.0,0.0
6861,78.0,15.0,30.0,1.0,0.0
6862,78.0,0.0,15.0,4.0,0.0
6863,59.0,0.0,60.0,5.0,0.0
6864,59.0,0.0,60.0,7.0,0.0
6865,75.0,0.0,120.0,4.0,0.0
6866,75.0,239.0,120.0,6.0,0.0
6867,59.0,1.0,60.0,3.0,0.0
6868,78.0,0.0,90.0,0.0,0.0
6869,78.0,15.0,15.0,6.0,0.0
6870,71.0,0.0,60.0,2.0,0.0
6871,75.0,29.0,90.0,1.0,0.0
6872,79.0,0.0,15.0,4.0,0.0
6873,79.0,15.0,15.0,6.0,0.0
6874,78.0,0.0,15.0,4.0,0.0
6875,78.0,14.0,15.0,6.0,0.0
6876,79.0,30.0,15.0,6.0,0.0
6877,79.0,0.0,15.0,4.0,0.0
6878,47.0,0.0,60.0,7.0,0.0
6879,47.0,0.0,60.0,5.0,0.0
6880,78.0,0.0,30.0,4.0,0.0
6881,69.0,0.0,60.0,2.0,0.0
6882,47.0,0.0,60.0,3.0,0.0
6883,78.0,0.0,30.0,6.0,0.0
6884,76.0,0.0,30.0,4.0,0.0
6885,76.0,1.0,30.0,6.0,0.0
6886,40.0,1.0,240.0,7.0,0.0
6887,71.0,0.0,15.0,1.0,0.0
6888,67.0,0.0,240.0,4.0,0.0
6889,76.0,0.0,240.0,4.0,0.0
6890,76.0,0.0,15.0,0.0,0.0
6891,52.0,0.0,240.0,5.0,0.0
6892,55.0,0.0,240.0,5.0,0.0
6893,59.0,0.0,240.0,5.0,0.0
6894,71.0,0.0,240.0,4.0,0.0
6895,52.0,0.0,240.0,7.0,0.0
6896,40.0,0.0,240.0,3.0,0.0
6897,67.0,0.0,240.0,2.0,0.0
6898,67.0,0.0,240.0,6.0,0.0
6899,76.0,0.0,240.0,6.0,0.0
6900,71.0,0.0,240.0,6.0,0.0
6901,31.0,0.0,120.0,14.0,0.0
6902,55.0,30.0,30.0,7.0,0.0
6903,43.0,30.0,120.0,13.0,0.0
6904,74.0,30.0,210.0,6.0,0.0
6905,54.0,30.0,30.0,7.0,0.0
6906,74.0,1.0,60.0,11.0,0.0
6907,79.0,0.0,60.0,10.0,0.0
6908,71.0,0.0,60.0,12.0,0.0
6909,55.0,29.0,30.0,7.0,0.0
6910,50.0,0.0,30.0,7.0,0.0
6911,78.0,0.0,60.0,10.0,0.0
6912,72.0,0.0,60.0,11.0,0.0
6913,33.0,0.0,60.0,14.0,0.0
6914,57.0,29.0,30.0,7.0,0.0
6915,45.0,0.0,60.0,13.0,0.0
6916,69.0,1.0,60.0,12.0,0.0
6917,50.0,30.0,30.0,7.0,0.0
6918,47.0,30.0,120.0,13.0,0.0
6919,59.0,0.0,60.0,7.0,0.0
6920,35.0,0.0,120.0,14.0,0.0
6921,76.0,30.0,30.0,6.0,0.0
6922,47.0,0.0,60.0,7.0,0.0
6923,67.0,0.0,60.0,12.0,0.0
6924,74.0,0.0,60.0,11.0,0.0
6925,79.0,1.0,60.0,10.0,0.0
6926,74.0,29.0,30.0,6.0,0.0
6927,72.0,0.0,30.0,6.0,0.0
6928,67.0,0.0,60.0,12.0,0.0
6929,48.0,0.0,60.0,13.0,0.0
6930,74.0,29.0,30.0,6.0,0.0
6931,72.0,1.0,60.0,11.0,0.0
6932,36.0,0.0,60.0,14.0,0.0
6933,48.0,0.0,60.0,7.0,0.0
6934,76.0,0.0,60.0,10.0,0.0
6935,76.0,30.0,30.0,6.0,0.0
6936,38.0,30.0,120.0,14.0,0.0
6937,50.0,0.0,120.0,13.0,0.0
6938,50.0,30.0,30.0,7.0,0.0
6939,66.0,30.0,210.0,6.0,0.0
6940,54.0,30.0,30.0,7.0,0.0
6941,62.0,0.0,60.0,11.0,0.0
6942,69.0,1.0,60.0,10.0,0.0
6943,66.0,0.0,60.0,12.0,0.0
6944,57.0,29.0,30.0,7.0,0.0
6945,62.0,0.0,30.0,7.0,0.0
6946,62.0,0.0,60.0,13.0,0.0
6947,69.0,1.0,60.0,12.0,0.0
6948,66.0,0.0,60.0,11.0,0.0
6949,74.0,0.0,60.0,10.0,0.0
6950,60.0,29.0,30.0,7.0,0.0
6951,50.0,0.0,60.0,14.0,0.0
6952,59.0,30.0,30.0,7.0,0.0
6953,48.0,30.0,120.0,14.0,0.0
6954,60.0,30.0,60.0,7.0,0.0
6955,60.0,0.0,120.0,13.0,0.0
6956,64.0,0.0,30.0,6.0,0.0
6957,74.0,0.0,60.0,10.0,0.0
6958,69.0,0.0,60.0,11.0,0.0
6959,48.0,0.0,60.0,7.0,0.0
6960,66.0,29.0,30.0,6.0,0.0
6961,66.0,1.0,60.0,12.0,0.0
6962,67.0,0.0,30.0,6.0,0.0
6963,74.0,0.0,60.0,11.0,0.0
6964,69.0,29.0,30.0,6.0,0.0
6965,47.0,0.0,60.0,7.0,0.0
6966,47.0,30.0,60.0,14.0,0.0
6967,59.0,0.0,60.0,13.0,0.0
6968,62.0,1.0,60.0,12.0,0.0
6969,79.0,0.0,60.0,10.0,0.0
6970,71.0,0.0,30.0,6.0,0.0
6971,45.0,0.0,120.0,14.0,0.0
6972,45.0,30.0,60.0,7.0,0.0
6973,72.0,30.0,30.0,6.0,0.0
6974,57.0,59.0,120.0,13.0,0.0
6975,76.0,0.0,30.0,6.0,0.0
6976,69.0,0.0,60.0,11.0,0.0
6977,78.0,1.0,60.0,10.0,0.0
6978,74.0,29.0,30.0,6.0,0.0
6979,60.0,0.0,60.0,12.0,0.0
6980,57.0,0.0,60.0,7.0,0.0
6981,72.0,0.0,30.0,6.0,0.0
6982,43.0,0.0,60.0,14.0,0.0
6983,72.0,0.0,60.0,11.0,0.0
6984,55.0,30.0,60.0,13.0,0.0
6985,64.0,0.0,60.0,12.0,0.0
6986,81.0,30.0,90.0,6.0,0.0
6987,55.0,0.0,60.0,7.0,0.0
6988,76.0,1.0,60.0,10.0,0.0
6989,54.0,30.0,60.0,7.0,0.0
6990,42.0,0.0,60.0,14.0,0.0
6991,54.0,0.0,60.0,13.0,0.0
6992,79.0,0.0,30.0,6.0,0.0
6993,38.0,0.0,60.0,14.0,0.0
6994,78.0,29.0,30.0,6.0,0.0
6995,50.0,0.0,60.0,7.0,0.0
6996,50.0,30.0,60.0,13.0,0.0
6997,66.0,0.0,60.0,12.0,0.0
6998,74.0,0.0,60.0,10.0,0.0
6999,74.0,1.0,60.0,11.0,0.0
7000,76.0,0.0,30.0,6.0,0.0
7001,69.0,1.0,60.0,12.0,0.0
7002,54.0,0.0,60.0,7.0,0.0
7003,69.0,0.0,60.0,11.0,0.0
7004,74.0,29.0,30.0,6.0,0.0
7005,54.0,0.0,60.0,13.0,0.0
7006,42.0,30.0,60.0,14.0,0.0
7007,72.0,0.0,60.0,10.0,0.0
7008,72.0,0.0,30.0,6.0,0.0
7009,55.0,0.0,60.0,7.0,0.0
7010,71.0,30.0,30.0,6.0,0.0
7011,55.0,30.0,60.0,13.0,0.0
7012,43.0,0.0,60.0,14.0,0.0
7013,74.0,0.0,30.0,6.0,0.0
7014,47.0,0.0,60.0,14.0,0.0
7015,62.0,1.0,60.0,12.0,0.0
7016,79.0,29.0,30.0,6.0,0.0
7017,59.0,0.0,60.0,7.0,0.0
7018,71.0,0.0,60.0,10.0,0.0
7019,67.0,0.0,60.0,11.0,0.0
7020,59.0,59.0,60.0,13.0,0.0
7021,81.0,0.0,30.0,6.0,0.0
7022,43.0,0.0,60.0,14.0,0.0
7023,55.0,0.0,60.0,13.0,0.0
7024,66.0,0.0,60.0,12.0,0.0
7025,83.0,30.0,90.0,6.0,0.0
7026,74.0,0.0,60.0,10.0,0.0
7027,62.0,1.0,60.0,11.0,0.0
7028,55.0,30.0,60.0,7.0,0.0
7029,52.0,0.0,60.0,7.0,0.0
7030,52.0,0.0,60.0,13.0,0.0
7031,40.0,0.0,60.0,14.0,0.0
7032,86.0,30.0,30.0,6.0,0.0
7033,57.0,30.0,60.0,13.0,0.0
7034,45.0,0.0,60.0,14.0,0.0
7035,66.0,0.0,60.0,12.0,0.0
7036,79.0,0.0,60.0,10.0,0.0
7037,85.0,29.0,30.0,6.0,0.0
7038,64.0,1.0,60.0,11.0,0.0
7039,57.0,0.0,60.0,7.0,0.0
7040,83.0,0.0,30.0,6.0,0.0
7041,45.0,0.0,60.0,7.0,0.0
7042,81.0,29.0,30.0,6.0,0.0
7043,73.0,1.0,60.0,11.0,0.0
7044,33.0,0.0,60.0,14.0,0.0
7045,76.0,0.0,60.0,10.0,0.0
7046,67.0,0.0,60.0,12.0,0.0
7047,45.0,0.0,60.0,13.0,0.0
7048,79.0,8.0,30.0,6.0,0.0
7049,62.0,0.0,30.0,5.0,0.0
7050,50.0,0.0,120.0,13.0,0.0
7051,50.0,0.0,120.0,7.0,0.0
7052,38.0,30.0,120.0,14.0,0.0
7053,81.0,7.0,15.0,4.0,0.0
7054,78.0,30.0,30.0,6.0,0.0
7055,83.0,15.0,15.0,4.0,0.0
7056,81.0,30.0,180.0,4.0,0.0
7057,61.0,30.0,30.0,5.0,0.0
7058,81.0,0.0,30.0,6.0,0.0
7059,79.0,0.0,30.0,6.0,0.0
7060,66.0,0.0,60.0,12.0,0.0
7061,74.0,0.0,60.0,10.0,0.0
7062,62.0,30.0,30.0,5.0,0.0
7063,69.0,0.0,60.0,11.0,0.0
7064,78.0,0.0,30.0,6.0,0.0
7065,57.0,0.0,30.0,5.0,0.0
7066,73.0,0.0,60.0,10.0,0.0
7067,64.0,0.0,30.0,5.0,0.0
7068,67.0,0.0,60.0,12.0,0.0
7069,76.0,30.0,30.0,6.0,0.0
7070,67.0,30.0,60.0,11.0,0.0
7071,52.0,0.0,60.0,13.0,0.0
7072,40.0,0.0,60.0,14.0,0.0
7073,74.0,0.0,30.0,6.0,0.0
7074,57.0,0.0,30.0,5.0,0.0
7075,86.0,0.0,60.0,6.0,0.0
7076,42.0,0.0,120.0,14.0,0.0
7077,54.0,0.0,120.0,13.0,0.0
7078,66.0,30.0,60.0,5.0,0.0
7079,83.0,0.0,30.0,4.0,0.0
7080,67.0,0.0,30.0,7.0,0.0
7081,69.0,0.0,60.0,12.0,0.0
7082,66.0,30.0,30.0,7.0,0.0
7083,66.0,0.0,60.0,11.0,0.0
7084,54.0,0.0,60.0,5.0,0.0
7085,81.0,0.0,30.0,4.0,0.0
7086,74.0,0.0,60.0,10.0,0.0
7087,79.0,30.0,30.0,4.0,0.0
7088,64.0,0.0,30.0,7.0,0.0
7089,55.0,0.0,60.0,5.0,0.0
7090,43.0,30.0,60.0,14.0,0.0
7091,62.0,0.0,60.0,11.0,0.0
7092,55.0,0.0,60.0,13.0,0.0
7093,67.0,0.0,60.0,12.0,0.0
7094,66.0,0.0,30.0,7.0,0.0
7095,81.0,30.0,30.0,4.0,0.0
7096,71.0,0.0,60.0,10.0,0.0
7097,83.0,0.0,30.0,4.0,0.0
7098,62.0,0.0,30.0,7.0,0.0
7099,45.0,0.0,120.0,13.0,0.0
7100,57.0,30.0,30.0,5.0,0.0
7101,69.0,0.0,60.0,7.0,0.0
7102,73.0,30.0,210.0,4.0,0.0
7103,33.0,0.0,120.0,14.0,0.0
7104,76.0,0.0,30.0,6.0,0.0
7105,61.0,30.0,30.0,5.0,0.0
7106,69.0,0.0,60.0,10.0,0.0
7107,74.0,30.0,30.0,6.0,0.0
7108,64.0,0.0,60.0,11.0,0.0
7109,61.0,0.0,60.0,12.0,0.0
7110,64.0,0.0,30.0,5.0,0.0
7111,69.0,0.0,30.0,5.0,0.0
7112,73.0,30.0,30.0,6.0,0.0
7113,71.0,0.0,30.0,6.0,0.0
7114,64.0,0.0,60.0,12.0,0.0
7115,67.0,0.0,60.0,11.0,0.0
7116,73.0,30.0,60.0,10.0,0.0
7117,67.0,30.0,30.0,5.0,0.0
7118,45.0,0.0,60.0,14.0,0.0
7119,57.0,0.0,60.0,13.0,0.0
7120,69.0,0.0,30.0,6.0,0.0
7121,66.0,0.0,30.0,5.0,0.0
7122,81.0,0.0,60.0,6.0,0.0
7123,67.0,30.0,60.0,5.0,0.0
7124,55.0,0.0,120.0,13.0,0.0
7125,43.0,0.0,120.0,14.0,0.0
7126,71.0,0.0,30.0,4.0,0.0
7127,64.0,0.0,30.0,7.0,0.0
7128,76.0,0.0,60.0,10.0,0.0
7129,57.0,0.0,30.0,7.0,0.0
7130,69.0,0.0,60.0,11.0,0.0
7131,73.0,30.0,30.0,4.0,0.0
7132,69.0,0.0,60.0,12.0,0.0
7133,55.0,30.0,60.0,5.0,0.0
7134,59.0,0.0,30.0,7.0,0.0
7135,74.0,0.0,30.0,4.0,0.0
7136,61.0,0.0,30.0,7.0,0.0
7137,42.0,0.0,60.0,14.0,0.0
7138,62.0,0.0,60.0,11.0,0.0
7139,81.0,0.0,60.0,10.0,0.0
7140,76.0,30.0,30.0,4.0,0.0
7141,57.0,0.0,60.0,12.0,0.0
7142,54.0,0.0,60.0,5.0,0.0
7143,54.0,0.0,60.0,13.0,0.0
7144,62.0,30.0,30.0,7.0,0.0
7145,78.0,0.0,30.0,4.0,0.0
7146,52.0,0.0,60.0,5.0,0.0
7147,40.0,0.0,120.0,14.0,0.0
7148,79.0,30.0,30.0,4.0,0.0
7149,52.0,0.0,120.0,13.0,0.0
7150,64.0,0.0,60.0,7.0,0.0
7151,83.0,30.0,30.0,4.0,0.0
7152,64.0,0.0,60.0,5.0,0.0
7153,59.0,0.0,60.0,12.0,0.0
7154,64.0,0.0,60.0,6.0,0.0
7155,52.0,0.0,60.0,7.0,0.0
7156,83.0,60.0,60.0,10.0,0.0
7157,81.0,30.0,30.0,4.0,0.0
7158,76.0,0.0,60.0,11.0,0.0
7159,79.0,0.0,30.0,4.0,0.0
7160,38.0,0.0,60.0,14.0,0.0
7161,71.0,0.0,60.0,11.0,0.0
7162,50.0,0.0,60.0,13.0,0.0
7163,62.0,0.0,60.0,5.0,0.0
7164,67.0,0.0,60.0,6.0,0.0
7165,88.0,30.0,90.0,4.0,0.0
7166,79.0,0.0,60.0,10.0,0.0
7167,64.0,30.0,60.0,12.0,0.0
7168,37.0,0.0,60.0,14.0,0.0
7169,61.0,0.0,60.0,5.0,0.0
7170,71.0,30.0,60.0,6.0,0.0
7171,49.0,0.0,60.0,13.0,0.0
7172,86.0,0.0,30.0,4.0,0.0
7173,85.0,30.0,30.0,4.0,0.0
7174,33.0,0.0,60.0,14.0,0.0
7175,76.0,0.0,180.0,6.0,0.0
7176,45.0,0.0,60.0,13.0,0.0
7177,69.0,0.0,60.0,11.0,0.0
7178,64.0,0.0,60.0,12.0,0.0
7179,57.0,0.0,30.0,7.0,0.0
7180,57.0,30.0,60.0,5.0,0.0
7181,76.0,0.0,60.0,10.0,0.0
7182,83.0,0.0,30.0,4.0,0.0
7183,59.0,0.0,30.0,7.0,0.0
7184,61.0,0.0,60.0,12.0,0.0
7185,37.0,0.0,60.0,14.0,0.0
7186,49.0,0.0,60.0,13.0,0.0
7187,81.0,30.0,30.0,4.0,0.0
7188,76.0,0.0,60.0,11.0,0.0
7189,61.0,0.0,60.0,5.0,0.0
7190,61.0,0.0,30.0,7.0,0.0
7191,81.0,30.0,60.0,10.0,0.0
7192,57.0,0.0,30.0,7.0,0.0
7193,79.0,0.0,30.0,4.0,0.0
7194,62.0,0.0,60.0,7.0,0.0
7195,62.0,0.0,60.0,5.0,0.0
7196,38.0,30.0,60.0,14.0,0.0
7197,78.0,30.0,30.0,4.0,0.0
7198,50.0,0.0,60.0,13.0,0.0
7199,81.0,0.0,30.0,4.0,0.0
7200,74.0,0.0,60.0,11.0,0.0
7201,50.0,0.0,60.0,7.0,0.0
7202,83.0,30.0,30.0,4.0,0.0
7203,62.0,0.0,60.0,13.0,0.0
7204,78.0,0.0,60.0,10.0,0.0
7205,50.0,30.0,60.0,5.0,0.0
7206,74.0,0.0,30.0,6.0,0.0
7207,69.0,0.0,60.0,12.0,0.0
7208,50.0,0.0,60.0,14.0,0.0
7209,72.0,0.0,30.0,6.0,0.0
7210,84.0,0.0,30.0,4.0,0.0
7211,60.0,0.0,60.0,13.0,0.0
7212,66.0,0.0,60.0,12.0,0.0
7213,86.0,30.0,90.0,4.0,0.0
7214,48.0,0.0,60.0,14.0,0.0
7215,74.0,30.0,60.0,10.0,0.0
7216,71.0,30.0,30.0,6.0,0.0
7217,78.0,0.0,60.0,11.0,0.0
7218,48.0,0.0,60.0,5.0,0.0
7219,69.0,0.0,30.0,6.0,0.0
7220,47.0,0.0,60.0,5.0,0.0
7221,47.0,0.0,60.0,14.0,0.0
7222,68.0,0.0,60.0,6.0,0.0
7223,59.0,0.0,60.0,13.0,0.0
7224,89.0,30.0,30.0,4.0,0.0
7225,71.0,0.0,60.0,11.0,0.0
7226,56.0,30.0,60.0,5.0,0.0
7227,56.0,0.0,60.0,13.0,0.0
7228,44.0,0.0,60.0,14.0,0.0
7229,68.0,0.0,60.0,12.0,0.0
7230,88.0,30.0,30.0,4.0,0.0
7231,76.0,0.0,60.0,10.0,0.0
7232,86.0,0.0,30.0,4.0,0.0
7233,80.0,0.0,60.0,10.0,0.0
7234,76.0,0.0,60.0,11.0,0.0
7235,71.0,0.0,60.0,12.0,0.0
7236,52.0,0.0,60.0,5.0,0.0
7237,40.0,60.0,60.0,14.0,0.0
7238,84.0,30.0,30.0,4.0,0.0
7239,52.0,0.0,60.0,13.0,0.0
7240,83.0,0.0,30.0,4.0,0.0
7241,45.0,0.0,120.0,14.0,0.0
7242,57.0,0.0,60.0,5.0,0.0
7243,84.0,0.0,60.0,4.0,0.0
7244,57.0,0.0,120.0,13.0,0.0
7245,76.0,30.0,30.0,6.0,0.0
7246,78.0,30.0,30.0,6.0,0.0
7247,72.0,0.0,60.0,11.0,0.0
7248,81.0,0.0,60.0,10.0,0.0
7249,69.0,60.0,60.0,12.0,0.0
7250,57.0,0.0,60.0,7.0,0.0
7251,79.0,0.0,30.0,6.0,0.0
7252,55.0,0.0,60.0,13.0,0.0
7253,81.0,30.0,90.0,6.0,0.0
7254,55.0,0.0,60.0,7.0,0.0
7255,64.0,30.0,60.0,12.0,0.0
7256,43.0,0.0,60.0,14.0,0.0
7257,84.0,0.0,60.0,10.0,0.0
7258,69.0,0.0,60.0,11.0,0.0
7259,54.0,0.0,60.0,13.0,0.0
7260,42.0,0.0,60.0,14.0,0.0
7261,54.0,30.0,60.0,7.0,0.0
7262,84.0,0.0,30.0,6.0,0.0
7263,63.0,0.0,60.0,12.0,0.0
7264,71.0,0.0,60.0,11.0,0.0
7265,39.0,0.0,60.0,14.0,0.0
7266,51.0,0.0,60.0,13.0,0.0
7267,63.0,30.0,60.0,7.0,0.0
7268,83.0,30.0,30.0,6.0,0.0
7269,78.0,0.0,60.0,10.0,0.0
7270,81.0,0.0,30.0,6.0,0.0
7271,75.0,0.0,60.0,11.0,0.0
7272,83.0,0.0,60.0,10.0,0.0
7273,47.0,0.0,60.0,13.0,0.0
7274,66.0,60.0,60.0,12.0,0.0
7275,35.0,0.0,60.0,14.0,0.0
7276,79.0,30.0,30.0,6.0,0.0
7277,59.0,0.0,60.0,7.0,0.0
7278,78.0,0.0,30.0,6.0,0.0
7279,40.0,0.0,120.0,14.0,0.0
7280,79.0,0.0,120.0,6.0,0.0
7281,64.0,0.0,60.0,7.0,0.0
7282,52.0,0.0,120.0,13.0,0.0
7283,71.0,30.0,30.0,4.0,0.0
7284,52.0,0.0,60.0,5.0,0.0
7285,76.0,0.0,60.0,11.0,0.0
7286,79.0,0.0,60.0,10.0,0.0
7287,59.0,0.0,60.0,12.0,0.0
7288,52.0,60.0,60.0,7.0,0.0
7289,76.0,30.0,30.0,4.0,0.0
7290,78.0,0.0,30.0,4.0,0.0
7291,79.0,30.0,90.0,4.0,0.0
7292,71.0,0.0,60.0,11.0,0.0
7293,64.0,0.0,60.0,12.0,0.0
7294,76.0,0.0,60.0,10.0,0.0
7295,50.0,0.0,60.0,13.0,0.0
7296,50.0,30.0,60.0,5.0,0.0
7297,38.0,0.0,60.0,14.0,0.0
7298,48.0,0.0,60.0,5.0,0.0
7299,36.0,0.0,60.0,14.0,0.0
7300,48.0,30.0,60.0,13.0,0.0
7301,83.0,0.0,30.0,4.0,0.0
7302,48.0,0.0,60.0,14.0,0.0
7303,60.0,0.0,60.0,5.0,0.0
7304,76.0,0.0,60.0,11.0,0.0
7305,81.0,30.0,30.0,4.0,0.0
7306,81.0,0.0,60.0,10.0,0.0
7307,60.0,0.0,60.0,13.0,0.0
7308,64.0,30.0,60.0,12.0,0.0
7309,79.0,0.0,30.0,4.0,0.0
7310,84.0,0.0,60.0,10.0,0.0
7311,57.0,0.0,60.0,5.0,0.0
7312,45.0,0.0,60.0,14.0,0.0
7313,57.0,0.0,60.0,13.0,0.0
7314,66.0,0.0,60.0,12.0,0.0
7315,78.0,30.0,30.0,4.0,0.0
7316,81.0,8.0,60.0,11.0,0.0
7317,76.0,0.0,30.0,4.0,0.0
7318,59.0,0.0,120.0,13.0,0.0
7319,75.0,30.0,30.0,4.0,0.0
7320,83.0,7.0,15.0,6.0,0.0
7321,47.0,0.0,120.0,14.0,0.0
7322,59.0,0.0,120.0,5.0,0.0
7323,47.0,0.0,30.0,7.0,0.0
7324,84.0,15.0,15.0,6.0,0.0
7325,83.0,30.0,180.0,6.0,0.0
7326,78.0,0.0,30.0,4.0,0.0
7327,51.0,30.0,30.0,7.0,0.0
7328,76.0,0.0,30.0,4.0,0.0
7329,66.0,0.0,60.0,12.0,0.0
7330,54.0,30.0,30.0,7.0,0.0
7331,78.0,30.0,60.0,11.0,0.0
7332,83.0,0.0,60.0,10.0,0.0
7333,75.0,0.0,30.0,4.0,0.0
7334,59.0,0.0,30.0,7.0,0.0
7335,71.0,0.0,60.0,12.0,0.0
7336,57.0,0.0,60.0,13.0,0.0
7337,45.0,0.0,60.0,14.0,0.0
7338,73.0,0.0,30.0,4.0,0.0
7339,78.0,30.0,60.0,10.0,0.0
7340,75.0,0.0,60.0,11.0,0.0
7341,57.0,30.0,30.0,7.0,0.0
7342,54.0,0.0,30.0,7.0,0.0
7343,71.0,0.0,30.0,4.0,0.0
7344,43.0,30.0,120.0,14.0,0.0
7345,55.0,30.0,60.0,7.0,0.0
7346,55.0,0.0,120.0,13.0,0.0
7347,83.0,0.0,60.0,4.0,0.0
7348,69.0,0.0,30.0,5.0,0.0
7349,84.0,0.0,30.0,6.0,0.0
7350,64.0,0.0,60.0,12.0,0.0
7351,71.0,0.0,60.0,11.0,0.0
7352,43.0,0.0,60.0,7.0,0.0
7353,67.0,0.0,30.0,5.0,0.0
7354,83.0,30.0,30.0,6.0,0.0
7355,76.0,0.0,60.0,10.0,0.0
7356,66.0,0.0,30.0,5.0,0.0
7357,81.0,0.0,30.0,6.0,0.0
7358,40.0,0.0,60.0,14.0,0.0
7359,40.0,30.0,60.0,7.0,0.0
7360,79.0,0.0,60.0,10.0,0.0
7361,83.0,0.0,30.0,6.0,0.0
7362,59.0,0.0,60.0,12.0,0.0
7363,67.0,30.0,30.0,5.0,0.0
7364,52.0,0.0,60.0,13.0,0.0
7365,76.0,0.0,60.0,11.0,0.0
7366,84.0,0.0,30.0,6.0,0.0
7367,64.0,0.0,30.0,5.0,0.0
7368,47.0,0.0,120.0,13.0,0.0
7369,35.0,0.0,120.0,14.0,0.0
7370,71.0,30.0,60.0,5.0,0.0
7371,75.0,30.0,210.0,6.0,0.0
7372,47.0,30.0,30.0,7.0,0.0
7373,84.0,0.0,30.0,4.0,0.0
7374,54.0,0.0,30.0,7.0,0.0
7375,83.0,30.0,30.0,4.0,0.0
7376,75.0,0.0,60.0,11.0,0.0
7377,78.0,0.0,60.0,10.0,0.0
7378,57.0,0.0,30.0,7.0,0.0
7379,71.0,30.0,60.0,12.0,0.0
7380,81.0,0.0,30.0,4.0,0.0
7381,60.0,0.0,30.0,7.0,0.0
7382,79.0,30.0,30.0,4.0,0.0
7383,59.0,0.0,60.0,12.0,0.0
7384,71.0,30.0,60.0,11.0,0.0
7385,59.0,0.0,60.0,13.0,0.0
7386,75.0,0.0,60.0,10.0,0.0
7387,59.0,0.0,30.0,7.0,0.0
7388,47.0,0.0,60.0,14.0,0.0
7389,78.0,0.0,30.0,4.0,0.0
7390,57.0,0.0,30.0,7.0,0.0
7391,45.0,0.0,120.0,14.0,0.0
7392,59.0,0.0,60.0,7.0,0.0
7393,90.0,0.0,60.0,4.0,0.0
7394,57.0,30.0,120.0,13.0,0.0
7395,73.0,30.0,30.0,6.0,0.0
7396,67.0,0.0,30.0,5.0,0.0
7397,57.0,0.0,60.0,7.0,0.0
7398,66.0,0.0,60.0,11.0,0.0
7399,71.0,0.0,60.0,10.0,0.0
7400,66.0,30.0,30.0,5.0,0.0
7401,75.0,0.0,30.0,6.0,0.0
7402,66.0,0.0,60.0,12.0,0.0
7403,76.0,0.0,30.0,6.0,0.0
7404,64.0,0.0,30.0,5.0,0.0
7405,55.0,0.0,60.0,7.0,0.0
7406,64.0,0.0,60.0,12.0,0.0
7407,78.0,30.0,30.0,6.0,0.0
7408,76.0,30.0,60.0,10.0,0.0
7409,43.0,0.0,60.0,14.0,0.0
7410,71.0,0.0,60.0,11.0,0.0
7411,63.0,0.0,30.0,5.0,0.0
7412,55.0,0.0,60.0,13.0,0.0
7413,64.0,0.0,30.0,5.0,0.0
7414,79.0,0.0,30.0,6.0,0.0
7415,42.0,0.0,120.0,14.0,0.0
7416,60.0,30.0,60.0,5.0,0.0
7417,54.0,60.0,120.0,13.0,0.0
7418,54.0,0.0,60.0,7.0,0.0
7419,81.0,30.0,30.0,6.0,0.0
7420,84.0,0.0,30.0,6.0,0.0
7421,83.0,30.0,30.0,6.0,0.0
7422,72.0,0.0,60.0,12.0,0.0
7423,66.0,0.0,60.0,7.0,0.0
7424,75.0,0.0,60.0,10.0,0.0
7425,69.0,0.0,60.0,11.0,0.0
7426,72.0,0.0,60.0,5.0,0.0
7427,81.0,0.0,30.0,6.0,0.0
7428,90.0,30.0,90.0,6.0,0.0
7429,40.0,0.0,60.0,14.0,0.0
7430,72.0,0.0,60.0,11.0,0.0
7431,81.0,0.0,60.0,10.0,0.0
7432,52.0,30.0,60.0,13.0,0.0
7433,64.0,0.0,60.0,7.0,0.0
7434,69.0,0.0,60.0,12.0,0.0
7435,51.0,0.0,60.0,13.0,0.0
7436,63.0,0.0,60.0,7.0,0.0
7437,39.0,0.0,60.0,14.0,0.0
7438,88.0,30.0,30.0,6.0,0.0
7439,87.0,30.0,30.0,6.0,0.0
7440,66.0,0.0,60.0,11.0,0.0
7441,66.0,0.0,60.0,12.0,0.0
7442,83.0,0.0,60.0,10.0,0.0
7443,66.0,0.0,60.0,7.0,0.0
7444,35.0,30.0,60.0,14.0,0.0
7445,47.0,0.0,60.0,13.0,0.0
7446,59.0,0.0,30.0,5.0,0.0
7447,85.0,0.0,30.0,6.0,0.0
7448,61.0,0.0,30.0,5.0,0.0
7449,63.0,30.0,30.0,5.0,0.0
7450,78.0,0.0,60.0,10.0,0.0
7451,51.0,0.0,60.0,13.0,0.0
7452,63.0,0.0,60.0,12.0,0.0
7453,83.0,0.0,30.0,6.0,0.0
7454,71.0,0.0,60.0,11.0,0.0
7455,59.0,0.0,60.0,7.0,0.0
7456,39.0,8.0,60.0,14.0,0.0
7457,81.0,0.0,30.0,6.0,0.0
7458,59.0,0.0,30.0,5.0,0.0
7459,79.0,0.0,30.0,6.0,0.0
7460,83.0,7.0,15.0,4.0,0.0
7461,52.0,0.0,120.0,13.0,0.0
7462,40.0,30.0,120.0,14.0,0.0
7463,64.0,30.0,30.0,5.0,0.0
7464,64.0,0.0,60.0,7.0,0.0
7465,84.0,15.0,15.0,4.0,0.0
7466,83.0,30.0,180.0,4.0,0.0
7467,63.0,0.0,30.0,5.0,0.0
7468,71.0,30.0,30.0,6.0,0.0
7469,79.0,0.0,60.0,10.0,0.0
7470,69.0,0.0,30.0,6.0,0.0
7471,71.0,0.0,60.0,11.0,0.0
7472,59.0,0.0,60.0,12.0,0.0
7473,64.0,30.0,30.0,5.0,0.0
7474,52.0,0.0,60.0,7.0,0.0
7475,59.0,0.0,30.0,5.0,0.0
7476,67.0,0.0,30.0,6.0,0.0
7477,66.0,30.0,30.0,5.0,0.0
7478,69.0,0.0,60.0,11.0,0.0
7479,66.0,0.0,30.0,6.0,0.0
7480,75.0,0.0,60.0,10.0,0.0
7481,66.0,0.0,60.0,12.0,0.0
7482,54.0,0.0,60.0,7.0,0.0
7483,42.0,0.0,60.0,14.0,0.0
7484,54.0,0.0,60.0,13.0,0.0
7485,64.0,30.0,30.0,6.0,0.0
7486,59.0,0.0,30.0,5.0,0.0
7487,67.0,0.0,60.0,5.0,0.0
7488,43.0,0.0,120.0,14.0,0.0
7489,55.0,0.0,60.0,7.0,0.0
7490,55.0,0.0,120.0,13.0,0.0
7491,76.0,30.0,60.0,6.0,0.0
7492,84.0,0.0,30.0,4.0,0.0
7493,55.0,0.0,60.0,5.0,0.0
7494,52.0,0.0,60.0,7.0,0.0
7495,71.0,0.0,60.0,11.0,0.0
7496,64.0,0.0,60.0,12.0,0.0
7497,83.0,30.0,30.0,4.0,0.0
7498,76.0,0.0,60.0,10.0,0.0
7499,81.0,30.0,30.0,4.0,0.0
7500,72.0,0.0,60.0,10.0,0.0
7501,60.0,0.0,60.0,7.0,0.0
7502,57.0,0.0,60.0,5.0,0.0
7503,83.0,30.0,30.0,4.0,0.0
7504,57.0,0.0,60.0,13.0,0.0
7505,69.0,0.0,60.0,11.0,0.0
7506,45.0,0.0,60.0,14.0,0.0
7507,64.0,29.0,60.0,12.0,0.0
7508,84.0,0.0,30.0,4.0,0.0
7509,35.0,0.0,120.0,14.0,0.0
7510,59.0,0.0,60.0,7.0,0.0
7511,47.0,0.0,120.0,13.0,0.0
7512,75.0,30.0,210.0,4.0,0.0
7513,59.0,30.0,30.0,5.0,0.0
7514,63.0,0.0,30.0,5.0,0.0
7515,78.0,30.0,30.0,6.0,0.0
7516,66.0,0.0,60.0,11.0,0.0
7517,71.0,30.0,60.0,10.0,0.0
7518,59.0,0.0,60.0,12.0,0.0
7519,66.0,0.0,30.0,5.0,0.0
7520,76.0,30.0,30.0,6.0,0.0
7521,75.0,0.0,30.0,6.0,0.0
7522,71.0,0.0,30.0,5.0,0.0
7523,73.0,0.0,30.0,6.0,0.0
7524,66.0,0.0,60.0,12.0,0.0
7525,59.0,0.0,60.0,13.0,0.0
7526,47.0,0.0,60.0,14.0,0.0
7527,69.0,0.0,60.0,11.0,0.0
7528,75.0,0.0,60.0,10.0,0.0
7529,69.0,30.0,30.0,5.0,0.0
7530,71.0,0.0,30.0,6.0,0.0
7531,67.0,30.0,30.0,5.0,0.0
7532,69.0,0.0,60.0,5.0,0.0
7533,57.0,0.0,120.0,13.0,0.0
7534,45.0,0.0,120.0,14.0,0.0
7535,83.0,30.0,60.0,6.0,0.0
7536,66.0,0.0,30.0,7.0,0.0
7537,73.0,0.0,30.0,4.0,0.0
7538,75.0,30.0,30.0,4.0,0.0
7539,71.0,0.0,60.0,11.0,0.0
7540,71.0,0.0,60.0,12.0,0.0
7541,78.0,0.0,60.0,10.0,0.0
7542,59.0,0.0,30.0,7.0,0.0
7543,57.0,0.0,60.0,5.0,0.0
7544,76.0,0.0,30.0,4.0,0.0
7545,61.0,30.0,30.0,7.0,0.0
7546,43.0,0.0,60.0,14.0,0.0
7547,59.0,30.0,60.0,12.0,0.0
7548,63.0,0.0,30.0,7.0,0.0
7549,83.0,0.0,60.0,10.0,0.0
7550,64.0,0.0,60.0,11.0,0.0
7551,55.0,0.0,60.0,13.0,0.0
7552,78.0,30.0,30.0,4.0,0.0
7553,55.0,0.0,60.0,5.0,0.0
7554,79.0,0.0,30.0,4.0,0.0
7555,64.0,0.0,30.0,7.0,0.0
7556,42.0,60.0,120.0,14.0,0.0
7557,81.0,30.0,30.0,4.0,0.0
7558,54.0,0.0,120.0,13.0,0.0
7559,66.0,30.0,60.0,7.0,0.0
7560,54.0,0.0,60.0,5.0,0.0
7561,84.0,0.0,30.0,4.0,0.0
7562,54.0,0.0,60.0,7.0,0.0
7563,69.0,0.0,60.0,12.0,0.0
7564,83.0,30.0,30.0,4.0,0.0
7565,84.0,0.0,60.0,10.0,0.0
7566,66.0,0.0,60.0,6.0,0.0
7567,66.0,0.0,60.0,11.0,0.0
7568,66.0,0.0,60.0,5.0,0.0
7569,81.0,0.0,30.0,4.0,0.0
7570,69.0,30.0,60.0,6.0,0.0
7571,81.0,0.0,60.0,10.0,0.0
7572,90.0,30.0,90.0,4.0,0.0
7573,40.0,0.0,60.0,14.0,0.0
7574,64.0,0.0,60.0,5.0,0.0
7575,52.0,0.0,60.0,13.0,0.0
7576,72.0,0.0,60.0,11.0,0.0
7577,66.0,0.0,60.0,12.0,0.0
7578,63.0,0.0,60.0,5.0,0.0
7579,72.0,0.0,60.0,6.0,0.0
7580,51.0,0.0,60.0,13.0,0.0
7581,39.0,0.0,60.0,14.0,0.0
7582,88.0,30.0,30.0,4.0,0.0
7583,47.0,0.0,60.0,13.0,0.0
7584,71.0,0.0,60.0,11.0,0.0
7585,47.0,0.0,30.0,7.0,0.0
7586,87.0,0.0,30.0,4.0,0.0
7587,79.0,30.0,30.0,6.0,0.0
7588,35.0,0.0,60.0,14.0,0.0
7589,66.0,0.0,60.0,12.0,0.0
7590,59.0,0.0,60.0,5.0,0.0
7591,78.0,0.0,60.0,10.0,0.0
7592,78.0,30.0,120.0,6.0,0.0
7593,85.0,0.0,30.0,4.0,0.0
7594,49.0,30.0,30.0,7.0,0.0
7595,78.0,0.0,60.0,11.0,0.0
7596,83.0,0.0,30.0,4.0,0.0
7597,39.0,0.0,60.0,14.0,0.0
7598,63.0,0.0,60.0,12.0,0.0
7599,51.0,30.0,30.0,7.0,0.0
7600,83.0,0.0,60.0,10.0,0.0
7601,63.0,0.0,60.0,5.0,0.0
7602,51.0,30.0,60.0,13.0,0.0
7603,47.0,0.0,30.0,7.0,0.0
7604,81.0,0.0,30.0,4.0,0.0
7605,52.0,0.0,60.0,7.0,0.0
7606,40.0,0.0,120.0,14.0,0.0
7607,79.0,30.0,210.0,4.0,0.0
7608,52.0,0.0,120.0,13.0,0.0
7609,64.0,30.0,60.0,5.0,0.0
7610,79.0,0.0,30.0,6.0,0.0
7611,83.0,30.0,60.0,10.0,0.0
7612,78.0,30.0,30.0,6.0,0.0
7613,79.0,0.0,60.0,11.0,0.0
7614,52.0,0.0,60.0,5.0,0.0
7615,64.0,0.0,60.0,7.0,0.0
7616,59.0,0.0,60.0,12.0,0.0
7617,76.0,0.0,30.0,6.0,0.0
7618,78.0,30.0,30.0,6.0,0.0
7619,62.0,0.0,60.0,7.0,0.0
7620,38.0,30.0,60.0,14.0,0.0
7621,50.0,0.0,60.0,5.0,0.0
7622,78.0,0.0,60.0,11.0,0.0
7623,62.0,0.0,60.0,12.0,0.0
7624,71.0,0.0,60.0,10.0,0.0
7625,50.0,0.0,60.0,13.0,0.0
7626,79.0,0.0,30.0,6.0,0.0
7627,36.0,0.0,120.0,14.0,0.0
7628,48.0,0.0,120.0,13.0,0.0
7629,48.0,30.0,60.0,5.0,0.0
7630,60.0,0.0,60.0,7.0,0.0
7631,76.0,30.0,210.0,6.0,0.0
7632,81.0,0.0,30.0,4.0,0.0
7633,76.0,0.0,60.0,10.0,0.0
7634,48.0,0.0,60.0,7.0,0.0
7635,76.0,0.0,60.0,11.0,0.0
7636,64.0,30.0,60.0,12.0,0.0
7637,79.0,30.0,30.0,4.0,0.0
7638,60.0,0.0,60.0,5.0,0.0
7639,78.0,0.0,30.0,4.0,0.0
7640,79.0,0.0,60.0,10.0,0.0
7641,59.0,0.0,60.0,5.0,0.0
7642,74.0,0.0,60.0,11.0,0.0
7643,47.0,30.0,60.0,7.0,0.0
7644,71.0,0.0,60.0,12.0,0.0
7645,47.0,0.0,60.0,13.0,0.0
7646,35.0,0.0,60.0,14.0,0.0
7647,79.0,30.0,30.0,4.0,0.0
7648,81.0,0.0,30.0,4.0,0.0
7649,57.0,30.0,60.0,5.0,0.0
7650,33.0,0.0,120.0,14.0,0.0
7651,78.0,30.0,210.0,4.0,0.0
7652,45.0,0.0,60.0,7.0,0.0
7653,45.0,0.0,120.0,13.0,0.0
7654,78.0,0.0,30.0,6.0,0.0
7655,57.0,0.0,60.0,7.0,0.0
7656,76.0,30.0,30.0,6.0,0.0
7657,45.0,0.0,60.0,5.0,0.0
7658,72.0,30.0,60.0,11.0,0.0
7659,66.0,0.0,60.0,12.0,0.0
7660,84.0,0.0,60.0,10.0,0.0
7661,75.0,0.0,30.0,6.0,0.0
7662,45.0,0.0,60.0,14.0,0.0
7663,78.0,0.0,60.0,10.0,0.0
7664,45.0,0.0,60.0,7.0,0.0
7665,72.0,0.0,60.0,12.0,0.0
7666,57.0,0.0,60.0,13.0,0.0
7667,69.0,0.0,60.0,11.0,0.0
7668,57.0,0.0,60.0,5.0,0.0
7669,76.0,30.0,30.0,6.0,0.0
7670,78.0,30.0,30.0,6.0,0.0
7671,59.0,30.0,60.0,5.0,0.0
7672,59.0,0.0,120.0,13.0,0.0
7673,47.0,0.0,120.0,14.0,0.0
7674,47.0,0.0,60.0,7.0,0.0
7675,79.0,30.0,210.0,6.0,0.0
7676,79.0,0.0,30.0,4.0,0.0
7677,67.0,0.0,60.0,12.0,0.0
7678,59.0,0.0,60.0,7.0,0.0
7679,75.0,0.0,60.0,10.0,0.0
7680,67.0,30.0,60.0,11.0,0.0
7681,78.0,30.0,30.0,4.0,0.0
7682,47.0,0.0,60.0,5.0,0.0
7683,76.0,0.0,30.0,4.0,0.0
7684,47.0,0.0,60.0,7.0,0.0
7685,71.0,0.0,60.0,10.0,0.0
7686,35.0,30.0,60.0,14.0,0.0
7687,59.0,0.0,60.0,5.0,0.0
7688,71.0,0.0,60.0,12.0,0.0
7689,47.0,0.0,60.0,13.0,0.0
7690,78.0,30.0,30.0,4.0,0.0
7691,76.0,0.0,60.0,11.0,0.0
7692,79.0,0.0,30.0,4.0,0.0
7693,60.0,0.0,60.0,5.0,0.0
7694,81.0,0.0,30.0,4.0,0.0
7695,36.0,0.0,120.0,14.0,0.0
7696,48.0,0.0,120.0,13.0,0.0
7697,48.0,0.0,60.0,7.0,0.0
7698,84.0,0.0,30.0,4.0,0.0
7699,81.0,30.0,30.0,6.0,0.0
7700,83.0,0.0,30.0,4.0,0.0
7701,79.0,30.0,30.0,6.0,0.0
7702,60.0,0.0,60.0,7.0,0.0
7703,76.0,0.0,60.0,11.0,0.0
7704,48.0,0.0,60.0,5.0,0.0
7705,72.0,30.0,60.0,12.0,0.0
7706,64.0,0.0,60.0,10.0,0.0
7707,78.0,0.0,30.0,6.0,0.0
7708,81.0,0.0,30.0,4.0,0.0
7709,48.0,0.0,60.0,7.0,0.0
7710,83.0,0.0,30.0,4.0,0.0
7711,48.0,0.0,60.0,14.0,0.0
7712,69.0,0.0,60.0,12.0,0.0
7713,79.0,30.0,30.0,6.0,0.0
7714,64.0,0.0,60.0,11.0,0.0
7715,60.0,0.0,60.0,5.0,0.0
7716,60.0,0.0,60.0,13.0,0.0
7717,76.0,0.0,60.0,10.0,0.0
7718,81.0,30.0,30.0,6.0,0.0
7719,84.0,0.0,30.0,4.0,0.0
7720,59.0,30.0,60.0,5.0,0.0
7721,47.0,30.0,120.0,14.0,0.0
7722,47.0,0.0,60.0,7.0,0.0
7723,83.0,30.0,30.0,6.0,0.0
7724,76.0,30.0,210.0,4.0,0.0
7725,59.0,0.0,120.0,13.0,0.0
7726,84.0,0.0,30.0,6.0,0.0
7727,79.0,0.0,60.0,10.0,0.0
7728,76.0,0.0,60.0,12.0,0.0
7729,83.0,30.0,30.0,6.0,0.0
7730,59.0,0.0,60.0,7.0,0.0
7731,71.0,0.0,60.0,11.0,0.0
7732,47.0,0.0,60.0,5.0,0.0
7733,81.0,0.0,30.0,6.0,0.0
7734,45.0,0.0,60.0,5.0,0.0
7735,57.0,30.0,60.0,13.0,0.0
7736,72.0,0.0,60.0,12.0,0.0
7737,45.0,0.0,60.0,14.0,0.0
7738,83.0,30.0,30.0,6.0,0.0
7739,78.0,0.0,60.0,10.0,0.0
7740,57.0,0.0,60.0,7.0,0.0
7741,66.0,0.0,60.0,11.0,0.0
7742,84.0,0.0,30.0,6.0,0.0
7743,47.0,0.0,60.0,5.0,0.0
7744,59.0,0.0,120.0,13.0,0.0
7745,47.0,0.0,120.0,14.0,0.0
7746,59.0,0.0,60.0,7.0,0.0
7747,79.0,0.0,180.0,6.0,0.0
7748,78.0,30.0,30.0,4.0,0.0
7749,59.0,0.0,60.0,5.0,0.0
7750,76.0,0.0,60.0,12.0,0.0
7751,47.0,0.0,60.0,7.0,0.0
7752,76.0,30.0,30.0,4.0,0.0
7753,79.0,0.0,60.0,10.0,0.0
7754,71.0,0.0,60.0,11.0,0.0
7755,75.0,30.0,30.0,4.0,0.0
7756,76.0,0.0,60.0,11.0,0.0
7757,57.0,0.0,60.0,13.0,0.0
7758,45.0,0.0,60.0,7.0,0.0
7759,84.0,0.0,60.0,10.0,0.0
7760,57.0,0.0,60.0,5.0,0.0
7761,76.0,30.0,30.0,4.0,0.0
7762,72.0,0.0,60.0,12.0,0.0
7763,45.0,0.0,60.0,14.0,0.0
7764,78.0,60.0,30.0,4.0,0.0
7765,47.0,0.0,60.0,7.0,0.0
7766,75.0,0.0,120.0,4.0,0.0
7767,59.0,60.0,60.0,5.0,0.0
7768,47.0,60.0,120.0,14.0,0.0
7769,78.0,0.0,120.0,6.0,0.0
7770,59.0,0.0,120.0,13.0,0.0
7771,66.0,0.0,60.0,12.0,0.0
7772,59.0,0.0,60.0,7.0,0.0
7773,75.0,0.0,60.0,11.0,0.0
7774,47.0,0.0,60.0,5.0,0.0
7775,83.0,0.0,60.0,10.0,0.0
7776,78.0,0.0,60.0,11.0,0.0
7777,47.0,0.0,60.0,13.0,0.0
7778,81.0,0.0,60.0,10.0,0.0
7779,76.0,0.0,60.0,4.0,0.0
7780,76.0,0.0,60.0,6.0,0.0
7781,35.0,30.0,60.0,14.0,0.0
7782,71.0,0.0,60.0,12.0,0.0
7783,47.0,0.0,60.0,7.0,0.0
7784,59.0,0.0,60.0,5.0,0.0
7785,52.0,30.0,60.0,5.0,0.0
7786,76.0,0.0,180.0,4.0,0.0
7787,76.0,30.0,30.0,6.0,0.0
7788,40.0,0.0,120.0,14.0,0.0
7789,52.0,0.0,120.0,13.0,0.0
7790,52.0,0.0,60.0,7.0,0.0
7791,71.0,0.0,30.0,6.0,0.0
7792,73.0,30.0,30.0,6.0,0.0
7793,71.0,0.0,60.0,12.0,0.0
7794,79.0,30.0,60.0,10.0,0.0
7795,64.0,0.0,60.0,5.0,0.0
7796,64.0,0.0,150.0,7.0,0.0
7797,76.0,0.0,60.0,11.0,0.0
7798,75.0,0.0,30.0,6.0,0.0
7799,38.0,0.0,60.0,14.0,0.0
7800,67.0,0.0,60.0,12.0,0.0
7801,62.0,0.0,60.0,5.0,0.0
7802,79.0,0.0,60.0,11.0,0.0
7803,50.0,0.0,60.0,13.0,0.0
7804,76.0,30.0,30.0,6.0,0.0
7805,83.0,30.0,60.0,10.0,0.0
7806,78.0,0.0,30.0,6.0,0.0
7807,79.0,30.0,30.0,6.0,0.0
7808,61.0,0.0,60.0,5.0,0.0
7809,49.0,30.0,120.0,13.0,0.0
7810,37.0,0.0,120.0,14.0,0.0
7811,66.0,30.0,30.0,7.0,0.0
7812,81.0,0.0,30.0,6.0,0.0
7813,64.0,0.0,30.0,7.0,0.0
7814,76.0,0.0,60.0,10.0,0.0
7815,49.0,0.0,60.0,5.0,0.0
7816,79.0,30.0,30.0,6.0,0.0
7817,67.0,0.0,60.0,12.0,0.0
7818,69.0,0.0,60.0,11.0,0.0
7819,62.0,0.0,30.0,7.0,0.0
7820,78.0,0.0,30.0,6.0,0.0
7821,79.0,0.0,30.0,6.0,0.0
7822,64.0,30.0,30.0,7.0,0.0
7823,79.0,0.0,60.0,10.0,0.0
7824,47.0,0.0,60.0,5.0,0.0
7825,62.0,0.0,60.0,12.0,0.0
7826,35.0,0.0,60.0,14.0,0.0
7827,71.0,0.0,60.0,11.0,0.0
7828,47.0,0.0,60.0,13.0,0.0
7829,79.0,30.0,90.0,4.0,0.0
7830,76.0,30.0,30.0,6.0,0.0
7831,67.0,0.0,30.0,7.0,0.0
7832,45.0,0.0,60.0,5.0,0.0
7833,73.0,0.0,60.0,6.0,0.0
7834,69.0,30.0,60.0,7.0,0.0
7835,45.0,0.0,120.0,13.0,0.0
7836,33.0,0.0,120.0,14.0,0.0
7837,76.0,0.0,30.0,4.0,0.0
7838,57.0,30.0,60.0,7.0,0.0
7839,76.0,0.0,60.0,11.0,0.0
7840,64.0,0.0,60.0,6.0,0.0
7841,61.0,0.0,150.0,5.0,0.0
7842,81.0,30.0,30.0,4.0,0.0
7843,73.0,0.0,60.0,10.0,0.0
7844,69.0,0.0,60.0,12.0,0.0
7845,83.0,0.0,30.0,4.0,0.0
7846,85.0,30.0,30.0,4.0,0.0
7847,73.0,0.0,60.0,11.0,0.0
7848,69.0,0.0,60.0,6.0,0.0
7849,76.0,0.0,60.0,10.0,0.0
7850,43.0,0.0,60.0,14.0,0.0
7851,55.0,0.0,60.0,13.0,0.0
7852,64.0,0.0,60.0,12.0,0.0
7853,55.0,0.0,60.0,7.0,0.0
7854,86.0,30.0,30.0,4.0,0.0
7855,54.0,0.0,120.0,13.0,0.0
7856,42.0,0.0,120.0,14.0,0.0
7857,73.0,0.0,60.0,6.0,0.0
7858,88.0,30.0,30.0,4.0,0.0
7859,54.0,0.0,60.0,7.0,0.0
7860,62.0,0.0,30.0,5.0,0.0
7861,90.0,30.0,30.0,4.0,0.0
7862,88.0,0.0,30.0,4.0,0.0
7863,61.0,30.0,30.0,5.0,0.0
7864,69.0,0.0,60.0,12.0,0.0
7865,79.0,30.0,150.0,6.0,0.0
7866,66.0,0.0,60.0,7.0,0.0
7867,61.0,0.0,60.0,11.0,0.0
7868,69.0,30.0,60.0,10.0,0.0
7869,59.0,0.0,30.0,5.0,0.0
7870,86.0,0.0,30.0,4.0,0.0
7871,40.0,0.0,60.0,14.0,0.0
7872,67.0,0.0,60.0,12.0,0.0
7873,52.0,0.0,60.0,13.0,0.0
7874,73.0,30.0,60.0,10.0,0.0
7875,64.0,0.0,60.0,11.0,0.0
7876,64.0,0.0,60.0,7.0,0.0
7877,88.0,0.0,30.0,4.0,0.0
7878,61.0,30.0,30.0,5.0,0.0
7879,57.0,0.0,30.0,5.0,0.0
7880,85.0,0.0,30.0,4.0,0.0
7881,50.0,0.0,120.0,13.0,0.0
7882,38.0,0.0,120.0,14.0,0.0
7883,81.0,0.0,60.0,4.0,0.0
7884,62.0,30.0,60.0,7.0,0.0
7885,50.0,0.0,60.0,5.0,0.0
7886,73.0,0.0,30.0,6.0,0.0
7887,66.0,30.0,150.0,7.0,0.0
7888,62.0,0.0,60.0,5.0,0.0
7889,78.0,0.0,60.0,10.0,0.0
7890,74.0,30.0,30.0,6.0,0.0
7891,69.0,0.0,60.0,4.0,0.0
7892,69.0,0.0,60.0,11.0,0.0
7893,74.0,0.0,60.0,12.0,0.0
7894,76.0,30.0,30.0,6.0,0.0
7895,69.0,0.0,60.0,12.0,0.0
7896,48.0,0.0,60.0,13.0,0.0
7897,36.0,0.0,60.0,14.0,0.0
7898,66.0,0.0,60.0,11.0,0.0
7899,74.0,0.0,60.0,4.0,0.0
7900,74.0,0.0,60.0,10.0,0.0
7901,78.0,30.0,30.0,6.0,0.0
7902,60.0,0.0,60.0,5.0,0.0
7903,79.0,30.0,30.0,6.0,0.0
7904,81.0,0.0,30.0,6.0,0.0
7905,78.0,0.0,60.0,4.0,0.0
7906,59.0,0.0,60.0,5.0,0.0
7907,47.0,0.0,120.0,13.0,0.0
7908,35.0,0.0,120.0,14.0,0.0
7909,67.0,30.0,30.0,7.0,0.0
7910,83.0,0.0,30.0,6.0,0.0
7911,62.0,0.0,60.0,12.0,0.0
7912,47.0,0.0,60.0,5.0,0.0
7913,71.0,0.0,60.0,11.0,0.0
7914,81.0,0.0,30.0,6.0,0.0
7915,66.0,30.0,30.0,7.0,0.0
7916,81.0,30.0,150.0,4.0,0.0
7917,86.0,0.0,60.0,10.0,0.0
7918,64.0,0.0,30.0,7.0,0.0
7919,79.0,30.0,30.0,6.0,0.0
7920,84.0,0.0,60.0,10.0,0.0
7921,33.0,0.0,60.0,14.0,0.0
7922,81.0,30.0,30.0,6.0,0.0
7923,66.0,30.0,60.0,12.0,0.0
7924,45.0,0.0,60.0,13.0,0.0
7925,45.0,0.0,60.0,5.0,0.0
7926,66.0,0.0,30.0,7.0,0.0
7927,72.0,0.0,60.0,11.0,0.0
7928,78.0,0.0,30.0,6.0,0.0
7929,62.0,0.0,30.0,7.0,0.0
7930,43.0,0.0,120.0,13.0,0.0
7931,31.0,0.0,120.0,14.0,0.0
7932,55.0,0.0,60.0,7.0,0.0
7933,74.0,30.0,60.0,6.0,0.0
7934,43.0,0.0,60.0,5.0,0.0
7935,74.0,0.0,30.0,4.0,0.0
7936,67.0,30.0,60.0,12.0,0.0
7937,79.0,30.0,30.0,4.0,0.0
7938,74.0,0.0,60.0,11.0,0.0
7939,67.0,0.0,60.0,7.0,0.0
7940,59.0,30.0,150.0,5.0,0.0
7941,83.0,0.0,60.0,10.0,0.0
7942,71.0,0.0,60.0,6.0,0.0
7943,81.0,0.0,30.0,4.0,0.0
7944,66.0,0.0,60.0,7.0,0.0
7945,42.0,0.0,60.0,14.0,0.0
7946,79.0,0.0,60.0,10.0,0.0
7947,83.0,30.0,30.0,4.0,0.0
7948,71.0,30.0,60.0,11.0,0.0
7949,74.0,0.0,60.0,6.0,0.0
7950,62.0,0.0,60.0,12.0,0.0
7951,54.0,0.0,60.0,13.0,0.0
7952,84.0,0.0,30.0,4.0,0.0
7953,86.0,0.0,30.0,4.0,0.0
7954,64.0,30.0,60.0,7.0,0.0
7955,40.0,0.0,120.0,14.0,0.0
7956,79.0,0.0,60.0,6.0,0.0
7957,52.0,30.0,120.0,13.0,0.0
7958,88.0,0.0,30.0,4.0,0.0
7959,60.0,0.0,30.0,5.0,0.0
7960,71.0,0.0,60.0,11.0,0.0
7961,67.0,0.0,60.0,12.0,0.0
7962,83.0,0.0,180.0,6.0,0.0
7963,59.0,0.0,30.0,5.0,0.0
7964,79.0,0.0,60.0,10.0,0.0
7965,86.0,30.0,30.0,4.0,0.0
7966,52.0,0.0,60.0,7.0,0.0
7967,84.0,0.0,30.0,4.0,0.0
7968,57.0,0.0,30.0,5.0,0.0
7969,71.0,0.0,60.0,12.0,0.0
7970,50.0,0.0,60.0,13.0,0.0
7971,76.0,0.0,60.0,10.0,0.0
7972,59.0,0.0,30.0,5.0,0.0
7973,86.0,30.0,30.0,4.0,0.0
7974,50.0,0.0,60.0,7.0,0.0
7975,67.0,0.0,60.0,11.0,0.0
7976,38.0,30.0,60.0,14.0,0.0
7977,62.0,0.0,30.0,5.0,0.0
7978,83.0,0.0,30.0,4.0,0.0
7979,64.0,0.0,60.0,5.0,0.0
7980,37.0,0.0,60.0,14.0,0.0
7981,79.0,0.0,30.0,4.0,0.0
7982,49.0,30.0,30.0,7.0,0.0
7983,49.0,30.0,60.0,13.0,0.0
7984,81.0,0.0,30.0,4.0,0.0
7985,66.0,0.0,30.0,7.0,0.0
7986,64.0,0.0,60.0,12.0,0.0
7987,69.0,0.0,60.0,10.0,0.0
7988,64.0,30.0,30.0,7.0,0.0
7989,69.0,30.0,60.0,11.0,0.0
7990,73.0,0.0,60.0,6.0,0.0
7991,52.0,0.0,60.0,5.0,0.0
7992,79.0,0.0,30.0,4.0,0.0
7993,40.0,0.0,60.0,14.0,0.0
7994,52.0,0.0,60.0,13.0,0.0
7995,78.0,0.0,30.0,4.0,0.0
7996,62.0,0.0,30.0,7.0,0.0
7997,76.0,0.0,60.0,6.0,0.0
7998,69.0,0.0,60.0,12.0,0.0
7999,37.0,0.0,60.0,14.0,0.0
8000,81.0,0.0,60.0,10.0,0.0
8001,49.0,30.0,60.0,5.0,0.0
8002,79.0,0.0,30.0,4.0,0.0
8003,49.0,0.0,60.0,13.0,0.0
8004,73.0,0.0,60.0,11.0,0.0
8005,64.0,30.0,30.0,7.0,0.0
8006,61.0,0.0,30.0,7.0,0.0
8007,76.0,0.0,30.0,4.0,0.0
8008,33.0,0.0,60.0,14.0,0.0
8009,73.0,30.0,30.0,4.0,0.0
8010,57.0,30.0,60.0,7.0,0.0
8011,81.0,0.0,60.0,6.0,0.0
8012,45.0,0.0,60.0,13.0,0.0
8013,45.0,0.0,60.0,5.0,0.0
8014,76.0,0.0,30.0,4.0,0.0
8015,35.0,0.0,60.0,14.0,0.0
8016,79.0,0.0,60.0,10.0,0.0
8017,74.0,0.0,60.0,11.0,0.0
8018,79.0,30.0,150.0,6.0,0.0
8019,59.0,0.0,60.0,7.0,0.0
8020,47.0,0.0,60.0,13.0,0.0
8021,47.0,0.0,60.0,5.0,0.0
8022,74.0,30.0,30.0,4.0,0.0
8023,62.0,30.0,60.0,12.0,0.0
8024,73.0,0.0,30.0,4.0,0.0
8025,76.0,0.0,60.0,11.0,0.0
8026,61.0,0.0,60.0,7.0,0.0
8027,69.0,0.0,60.0,12.0,0.0
8028,76.0,30.0,60.0,10.0,0.0
8029,71.0,30.0,30.0,4.0,0.0
8030,37.0,0.0,60.0,14.0,0.0
8031,49.0,0.0,60.0,5.0,0.0
8032,49.0,0.0,60.0,13.0,0.0
8033,69.0,0.0,30.0,4.0,0.0
8034,81.0,0.0,240.0,4.0,0.0
8035,50.0,0.0,60.0,5.0,0.0
8036,50.0,0.0,120.0,13.0,0.0
8037,38.0,0.0,120.0,14.0,0.0
8038,62.0,30.0,60.0,7.0,0.0
8039,69.0,0.0,30.0,6.0,0.0
8040,78.0,0.0,60.0,10.0,0.0
8041,62.0,0.0,60.0,5.0,0.0
8042,71.0,30.0,30.0,6.0,0.0
8043,50.0,30.0,60.0,7.0,0.0
8044,69.0,0.0,60.0,12.0,0.0
8045,74.0,0.0,60.0,11.0,0.0
8046,73.0,0.0,30.0,6.0,0.0
8047,49.0,0.0,60.0,7.0,0.0
8048,74.0,30.0,30.0,6.0,0.0
8049,66.0,0.0,60.0,12.0,0.0
8050,78.0,0.0,60.0,11.0,0.0
8051,49.0,0.0,60.0,13.0,0.0
8052,81.0,0.0,60.0,10.0,0.0
8053,37.0,0.0,60.0,14.0,0.0
8054,61.0,30.0,60.0,5.0,0.0
8055,76.0,0.0,30.0,6.0,0.0
8056,59.0,0.0,30.0,5.0,0.0
8057,78.0,30.0,30.0,6.0,0.0
8058,47.0,0.0,120.0,13.0,0.0
8059,47.0,0.0,60.0,7.0,0.0
8060,35.0,0.0,120.0,14.0,0.0
8061,57.0,30.0,30.0,5.0,0.0
8062,80.0,0.0,30.0,6.0,0.0
8063,74.0,30.0,30.0,4.0,0.0
8064,71.0,30.0,60.0,12.0,0.0
8065,74.0,0.0,60.0,11.0,0.0
8066,59.0,0.0,60.0,5.0,0.0
8067,80.0,0.0,90.0,6.0,0.0
8068,80.0,0.0,60.0,10.0,0.0
8069,59.0,0.0,60.0,7.0,0.0
8070,73.0,0.0,30.0,4.0,0.0
8071,52.0,30.0,60.0,7.0,0.0
8072,52.0,0.0,60.0,5.0,0.0
8073,71.0,0.0,60.0,11.0,0.0
8074,68.0,0.0,60.0,12.0,0.0
8075,40.0,0.0,60.0,14.0,0.0
8076,52.0,0.0,60.0,13.0,0.0
8077,74.0,15.0,30.0,4.0,0.0
8078,83.0,0.0,60.0,10.0,0.0
8079,83.0,0.0,30.0,4.0,0.0
8080,78.0,15.0,15.0,6.0,0.0
8081,80.0,0.0,15.0,6.0,0.0
8082,57.0,0.0,60.0,5.0,0.0
8083,81.0,30.0,210.0,6.0,0.0
8084,57.0,30.0,30.0,7.0,0.0
8085,33.0,0.0,120.0,14.0,0.0
8086,73.0,0.0,60.0,4.0,0.0
8087,45.0,30.0,120.0,13.0,0.0
8088,61.0,30.0,30.0,7.0,0.0
8089,73.0,0.0,60.0,12.0,0.0
8090,76.0,0.0,60.0,11.0,0.0
8091,81.0,0.0,60.0,10.0,0.0
8092,64.0,30.0,30.0,7.0,0.0
8093,69.0,0.0,30.0,7.0,0.0
8094,67.0,30.0,30.0,7.0,0.0
8095,64.0,30.0,60.0,11.0,0.0
8096,31.0,0.0,60.0,14.0,0.0
8097,43.0,0.0,60.0,13.0,0.0
8098,69.0,0.0,60.0,12.0,0.0
8099,73.0,0.0,60.0,10.0,0.0
8100,66.0,0.0,30.0,7.0,0.0
8101,67.0,0.0,60.0,7.0,0.0
8102,42.0,0.0,120.0,13.0,0.0
8103,30.0,0.0,120.0,14.0,0.0
8104,83.0,30.0,30.0,6.0,0.0
8105,74.0,0.0,60.0,10.0,0.0
8106,54.0,0.0,60.0,7.0,0.0
8107,62.0,0.0,60.0,12.0,0.0
8108,69.0,0.0,60.0,11.0,0.0
8109,81.0,30.0,30.0,6.0,0.0
8110,79.0,30.0,30.0,6.0,0.0
8111,31.0,0.0,60.0,14.0,0.0
8112,43.0,30.0,60.0,13.0,0.0
8113,62.0,0.0,60.0,12.0,0.0
8114,81.0,30.0,30.0,6.0,0.0
8115,55.0,0.0,60.0,7.0,0.0
8116,67.0,0.0,60.0,11.0,0.0
8117,71.0,0.0,60.0,10.0,0.0
8118,83.0,0.0,30.0,6.0,0.0
8119,45.0,0.0,120.0,13.0,0.0
8120,57.0,30.0,30.0,7.0,0.0
8121,33.0,0.0,120.0,14.0,0.0
8122,73.0,30.0,210.0,6.0,0.0
8123,61.0,30.0,30.0,7.0,0.0
8124,64.0,30.0,30.0,7.0,0.0
8125,64.0,0.0,60.0,10.0,0.0
8126,69.0,0.0,60.0,12.0,0.0
8127,67.0,0.0,60.0,11.0,0.0
8128,69.0,30.0,30.0,7.0,0.0
8129,69.0,0.0,60.0,10.0,0.0
8130,64.0,30.0,60.0,11.0,0.0
8131,57.0,0.0,60.0,13.0,0.0
8132,45.0,0.0,60.0,14.0,0.0
8133,67.0,30.0,30.0,7.0,0.0
8134,73.0,0.0,60.0,12.0,0.0
8135,66.0,0.0,30.0,7.0,0.0
8136,55.0,30.0,120.0,13.0,0.0
8137,67.0,0.0,60.0,7.0,0.0
8138,43.0,0.0,120.0,14.0,0.0
8139,71.0,30.0,30.0,6.0,0.0
8140,55.0,0.0,60.0,7.0,0.0
8141,73.0,30.0,30.0,6.0,0.0
8142,73.0,0.0,60.0,12.0,0.0
8143,64.0,0.0,60.0,11.0,0.0
8144,69.0,0.0,60.0,10.0,0.0
8145,74.0,0.0,30.0,6.0,0.0
8146,54.0,0.0,60.0,7.0,0.0
8147,42.0,0.0,60.0,14.0,0.0
8148,69.0,0.0,60.0,11.0,0.0
8149,76.0,30.0,30.0,6.0,0.0
8150,74.0,0.0,60.0,10.0,0.0
8151,69.0,0.0,60.0,12.0,0.0
8152,54.0,0.0,60.0,13.0,0.0
8153,78.0,30.0,30.0,6.0,0.0
8154,52.0,30.0,60.0,7.0,0.0
8155,79.0,30.0,30.0,6.0,0.0
8156,40.0,0.0,120.0,14.0,0.0
8157,52.0,0.0,120.0,13.0,0.0
8158,83.0,0.0,30.0,6.0,0.0
8159,64.0,0.0,60.0,11.0,0.0
8160,67.0,0.0,60.0,12.0,0.0
8161,64.0,0.0,60.0,7.0,0.0
8162,81.0,30.0,30.0,6.0,0.0
8163,73.0,60.0,60.0,10.0,0.0
8164,79.0,0.0,30.0,6.0,0.0
8165,88.0,30.0,90.0,6.0,0.0
8166,71.0,0.0,60.0,12.0,0.0
8167,38.0,0.0,60.0,14.0,0.0
8168,62.0,30.0,60.0,7.0,0.0
8169,67.0,0.0,60.0,11.0,0.0
8170,50.0,0.0,60.0,13.0,0.0
8171,71.0,0.0,60.0,10.0,0.0
8172,37.0,0.0,60.0,14.0,0.0
8173,49.0,0.0,60.0,13.0,0.0
8174,61.0,30.0,60.0,7.0,0.0
8175,86.0,0.0,30.0,6.0,0.0
8176,69.0,30.0,60.0,10.0,0.0
8177,57.0,0.0,60.0,7.0,0.0
8178,73.0,0.0,60.0,12.0,0.0
8179,45.0,0.0,60.0,13.0,0.0
8180,85.0,30.0,30.0,6.0,0.0
8181,69.0,0.0,60.0,11.0,0.0
8182,33.0,0.0,60.0,14.0,0.0
8183,83.0,0.0,30.0,6.0,0.0
8184,67.0,0.0,60.0,10.0,0.0
8185,61.0,0.0,60.0,7.0,0.0
8186,49.0,30.0,60.0,13.0,0.0
8187,64.0,0.0,60.0,11.0,0.0
8188,81.0,30.0,30.0,6.0,0.0
8189,76.0,0.0,60.0,12.0,0.0
8190,37.0,0.0,60.0,14.0,0.0
8191,79.0,0.0,30.0,6.0,0.0
8192,50.0,0.0,60.0,13.0,0.0
8193,62.0,0.0,30.0,7.0,0.0
8194,38.0,30.0,60.0,14.0,0.0
8195,78.0,30.0,30.0,6.0,0.0
8196,64.0,0.0,30.0,7.0,0.0
8197,76.0,0.0,30.0,6.0,0.0
8198,74.0,30.0,30.0,6.0,0.0
8199,74.0,0.0,60.0,12.0,0.0
8200,66.0,0.0,30.0,7.0,0.0
8201,66.0,0.0,60.0,10.0,0.0
8202,42.0,30.0,60.0,14.0,0.0
8203,54.0,0.0,60.0,13.0,0.0
8204,69.0,0.0,60.0,11.0,0.0
8205,68.0,0.0,30.0,7.0,0.0
8206,76.0,0.0,30.0,6.0,0.0
8207,74.0,0.0,60.0,11.0,0.0
8208,69.0,30.0,30.0,7.0,0.0
8209,69.0,0.0,60.0,12.0,0.0
8210,45.0,30.0,60.0,14.0,0.0
8211,77.0,30.0,90.0,6.0,0.0
8212,62.0,0.0,60.0,10.0,0.0
8213,57.0,0.0,60.0,13.0,0.0
8214,71.0,0.0,30.0,7.0,0.0
8215,44.0,0.0,60.0,14.0,0.0
8216,56.0,0.0,60.0,13.0,0.0
8217,68.0,30.0,60.0,7.0,0.0
8218,81.0,0.0,30.0,6.0,0.0
8219,52.0,0.0,60.0,13.0,0.0
8220,80.0,30.0,30.0,6.0,0.0
8221,40.0,30.0,60.0,14.0,0.0
8222,71.0,0.0,60.0,11.0,0.0
8223,64.0,0.0,60.0,7.0,0.0
8224,68.0,0.0,60.0,12.0,0.0
8225,74.0,0.0,60.0,10.0,0.0
8226,83.0,0.0,30.0,6.0,0.0
8227,56.0,30.0,60.0,13.0,0.0
8228,71.0,0.0,60.0,12.0,0.0
8229,76.0,30.0,30.0,6.0,0.0
8230,68.0,0.0,60.0,7.0,0.0
8231,68.0,0.0,60.0,11.0,0.0
8232,44.0,0.0,60.0,14.0,0.0
8233,71.0,0.0,60.0,10.0,0.0
8234,74.0,0.0,30.0,6.0,0.0
8235,76.0,30.0,210.0,4.0,0.0
8236,45.0,0.0,120.0,13.0,0.0
8237,72.0,0.0,30.0,6.0,0.0
8238,69.0,0.0,60.0,7.0,0.0
8239,33.0,0.0,120.0,14.0,0.0
8240,57.0,30.0,30.0,5.0,0.0
8241,76.0,30.0,30.0,6.0,0.0
8242,56.0,0.0,30.0,5.0,0.0
8243,64.0,30.0,60.0,11.0,0.0
8244,57.0,0.0,30.0,5.0,0.0
8245,69.0,0.0,60.0,10.0,0.0
8246,60.0,0.0,60.0,12.0,0.0
8247,74.0,30.0,30.0,6.0,0.0
8248,52.0,0.0,30.0,5.0,0.0
8249,72.0,0.0,30.0,6.0,0.0
8250,62.0,0.0,60.0,12.0,0.0
8251,59.0,30.0,30.0,5.0,0.0
8252,71.0,0.0,30.0,6.0,0.0
8253,47.0,0.0,60.0,13.0,0.0
8254,35.0,0.0,60.0,14.0,0.0
8255,68.0,0.0,60.0,10.0,0.0
8256,62.0,30.0,60.0,11.0,0.0
8257,69.0,0.0,30.0,6.0,0.0
8258,52.0,0.0,30.0,5.0,0.0
8259,60.0,0.0,60.0,5.0,0.0
8260,81.0,0.0,60.0,6.0,0.0
8261,48.0,30.0,120.0,13.0,0.0
8262,36.0,0.0,120.0,14.0,0.0
8263,62.0,0.0,30.0,7.0,0.0
8264,77.0,30.0,30.0,4.0,0.0
8265,76.0,0.0,30.0,4.0,0.0
8266,60.0,0.0,60.0,11.0,0.0
8267,69.0,0.0,60.0,10.0,0.0
8268,64.0,0.0,60.0,12.0,0.0
8269,48.0,0.0,60.0,5.0,0.0
8270,60.0,30.0,30.0,7.0,0.0
8271,74.0,0.0,30.0,4.0,0.0
8272,59.0,0.0,30.0,7.0,0.0
8273,76.0,30.0,30.0,4.0,0.0
8274,65.0,0.0,60.0,10.0,0.0
8275,38.0,0.0,60.0,14.0,0.0
8276,69.0,0.0,60.0,11.0,0.0
8277,50.0,0.0,60.0,13.0,0.0
8278,60.0,0.0,30.0,7.0,0.0
8279,50.0,0.0,60.0,5.0,0.0
8280,62.0,0.0,60.0,12.0,0.0
8281,77.0,0.0,30.0,4.0,0.0
8282,57.0,30.0,30.0,7.0,0.0
8283,68.0,30.0,210.0,4.0,0.0
8284,52.0,30.0,30.0,5.0,0.0
8285,40.0,0.0,120.0,14.0,0.0
8286,64.0,29.0,60.0,7.0,0.0
8287,52.0,0.0,120.0,13.0,0.0
8288,56.0,0.0,30.0,5.0,0.0
8289,83.0,1.0,30.0,6.0,0.0
8290,68.0,0.0,60.0,12.0,0.0
8291,59.0,30.0,60.0,11.0,0.0
8292,81.0,30.0,30.0,6.0,0.0
8293,59.0,0.0,30.0,5.0,0.0
8294,64.0,0.0,60.0,10.0,0.0
8295,64.0,0.0,30.0,5.0,0.0
8296,80.0,0.0,30.0,6.0,0.0
8297,64.0,0.0,60.0,11.0,0.0
8298,78.0,0.0,30.0,6.0,0.0
8299,68.0,0.0,60.0,10.0,0.0
8300,52.0,30.0,60.0,14.0,0.0
8301,62.0,30.0,30.0,5.0,0.0
8302,64.0,0.0,60.0,13.0,0.0
8303,71.0,0.0,60.0,12.0,0.0
8304,60.0,0.0,30.0,5.0,0.0
8305,76.0,0.0,30.0,6.0,0.0
8306,50.0,0.0,120.0,14.0,0.0
8307,62.0,0.0,120.0,13.0,0.0
8308,88.0,0.0,60.0,6.0,0.0
8309,62.0,1.0,60.0,5.0,0.0
8310,66.0,0.0,30.0,4.0,0.0
8311,59.0,29.0,30.0,7.0,0.0
8312,50.0,1.0,60.0,5.0,0.0
8313,68.0,1.0,30.0,4.0,0.0
8314,67.0,0.0,60.0,12.0,0.0
8315,76.0,0.0,60.0,11.0,0.0
8316,71.0,0.0,60.0,10.0,0.0
8317,64.0,29.0,30.0,7.0,0.0
8318,66.0,29.0,30.0,7.0,0.0
8319,69.0,0.0,30.0,4.0,0.0
8320,64.0,0.0,60.0,12.0,0.0
8321,69.0,1.0,60.0,11.0,0.0
8322,71.0,1.0,30.0,4.0,0.0
8323,68.0,29.0,30.0,7.0,0.0
8324,60.0,0.0,60.0,13.0,0.0
8325,48.0,0.0,60.0,14.0,0.0
8326,48.0,0.0,60.0,5.0,0.0
8327,76.0,0.0,60.0,10.0,0.0
8328,72.0,0.0,30.0,4.0,0.0
8329,69.0,29.0,30.0,7.0,0.0
8330,59.0,0.0,120.0,13.0,0.0
8331,71.0,30.0,60.0,7.0,0.0
8332,47.0,0.0,120.0,14.0,0.0
8333,47.0,0.0,60.0,5.0,0.0
8334,74.0,30.0,30.0,4.0,0.0
8335,77.0,0.0,30.0,4.0,0.0
8336,71.0,0.0,60.0,11.0,0.0
8337,59.0,0.0,60.0,7.0,0.0
8338,59.0,60.0,60.0,5.0,0.0
8339,77.0,0.0,60.0,10.0,0.0
8340,76.0,30.0,30.0,4.0,0.0
8341,68.0,0.0,60.0,12.0,0.0
8342,74.0,0.0,30.0,4.0,0.0
8343,57.0,0.0,60.0,13.0,0.0
8344,83.0,30.0,90.0,4.0,0.0
8345,71.0,0.0,60.0,12.0,0.0
8346,45.0,30.0,60.0,14.0,0.0
8347,77.0,0.0,60.0,11.0,0.0
8348,57.0,0.0,60.0,5.0,0.0
8349,74.0,0.0,60.0,10.0,0.0
8350,56.0,0.0,60.0,13.0,0.0
8351,44.0,0.0,60.0,14.0,0.0
8352,56.0,0.0,60.0,5.0,0.0
8353,81.0,30.0,30.0,4.0,0.0
8354,76.0,0.0,60.0,11.0,0.0
8355,71.0,0.0,60.0,12.0,0.0
8356,80.0,0.0,30.0,4.0,0.0
8357,71.0,0.0,60.0,10.0,0.0
8358,64.0,30.0,30.0,7.0,0.0
8359,40.0,30.0,60.0,14.0,0.0
8360,52.0,0.0,60.0,5.0,0.0
8361,52.0,0.0,60.0,13.0,0.0
8362,83.0,0.0,30.0,4.0,0.0
8363,66.0,0.0,30.0,7.0,0.0
8364,68.0,0.0,30.0,7.0,0.0
8365,76.0,0.0,60.0,10.0,0.0
8366,56.0,0.0,60.0,5.0,0.0
8367,56.0,0.0,60.0,13.0,0.0
8368,68.0,0.0,60.0,12.0,0.0
8369,71.0,60.0,60.0,11.0,0.0
8370,76.0,30.0,30.0,4.0,0.0
8371,44.0,0.0,60.0,14.0,0.0
8372,64.0,0.0,30.0,7.0,0.0
8373,74.0,0.0,30.0,4.0,0.0
8374,45.0,30.0,60.0,13.0,0.0
8375,72.0,60.0,120.0,4.0,0.0
8376,69.0,0.0,60.0,7.0,0.0
8377,57.0,0.0,120.0,5.0,0.0
8378,33.0,0.0,60.0,14.0,0.0
8379,76.0,0.0,30.0,6.0,0.0
8380,69.0,0.0,60.0,11.0,0.0
8381,45.0,0.0,60.0,14.0,0.0
8382,57.0,0.0,60.0,7.0,0.0
8383,72.0,0.0,60.0,10.0,0.0
8384,64.0,0.0,60.0,12.0,0.0
8385,57.0,0.0,60.0,13.0,0.0
8386,78.0,30.0,30.0,6.0,0.0
8387,79.0,0.0,30.0,6.0,0.0
8388,69.0,0.0,60.0,10.0,0.0
8389,81.0,30.0,90.0,6.0,0.0
8390,55.0,0.0,60.0,13.0,0.0
8391,60.0,30.0,60.0,12.0,0.0
8392,55.0,0.0,60.0,7.0,0.0
8393,43.0,0.0,60.0,14.0,0.0
8394,72.0,0.0,60.0,11.0,0.0
8395,54.0,0.0,60.0,7.0,0.0
8396,54.0,30.0,60.0,13.0,0.0
8397,42.0,0.0,60.0,14.0,0.0
8398,84.0,0.0,30.0,6.0,0.0
8399,83.0,30.0,30.0,6.0,0.0
8400,63.0,0.0,60.0,12.0,0.0
8401,63.0,30.0,60.0,7.0,0.0
8402,66.0,0.0,60.0,11.0,0.0
8403,71.0,0.0,60.0,10.0,0.0
8404,39.0,0.0,60.0,14.0,0.0
8405,51.0,0.0,60.0,13.0,0.0
8406,81.0,0.0,30.0,6.0,0.0
8407,79.0,30.0,30.0,6.0,0.0
8408,47.0,0.0,60.0,13.0,0.0
8409,35.0,0.0,60.0,14.0,0.0
8410,59.0,0.0,60.0,7.0,0.0
8411,71.0,0.0,60.0,11.0,0.0
8412,75.0,0.0,60.0,10.0,0.0
8413,66.0,60.0,60.0,12.0,0.0
8414,78.0,0.0,30.0,6.0,0.0
8415,52.0,0.0,60.0,13.0,0.0
8416,79.0,0.0,120.0,6.0,0.0
8417,40.0,0.0,60.0,14.0,0.0
8418,64.0,0.0,120.0,7.0,0.0
8419,71.0,30.0,30.0,4.0,0.0
8420,67.0,0.0,60.0,11.0,0.0
8421,76.0,0.0,60.0,10.0,0.0
8422,73.0,30.0,30.0,4.0,0.0
8423,52.0,0.0,60.0,14.0,0.0
8424,64.0,60.0,60.0,13.0,0.0
8425,64.0,0.0,60.0,12.0,0.0
8426,52.0,0.0,60.0,5.0,0.0
8427,74.0,0.0,30.0,4.0,0.0
8428,62.0,0.0,60.0,13.0,0.0
8429,50.0,30.0,60.0,14.0,0.0
8430,50.0,0.0,60.0,5.0,0.0
8431,59.0,0.0,60.0,12.0,0.0
8432,64.0,0.0,60.0,11.0,0.0
8433,79.0,0.0,60.0,10.0,0.0
8434,76.0,30.0,90.0,4.0,0.0
8435,61.0,0.0,60.0,13.0,0.0
8436,49.0,0.0,60.0,14.0,0.0
8437,49.0,0.0,60.0,5.0,0.0
8438,79.0,30.0,30.0,4.0,0.0
8439,46.0,0.0,60.0,14.0,0.0
8440,73.0,0.0,60.0,10.0,0.0
8441,58.0,0.0,60.0,13.0,0.0
8442,58.0,0.0,60.0,5.0,0.0
8443,66.0,0.0,60.0,11.0,0.0
8444,58.0,0.0,60.0,12.0,0.0
8445,78.0,30.0,30.0,4.0,0.0
8446,76.0,30.0,30.0,4.0,0.0
8447,54.0,0.0,60.0,13.0,0.0
8448,54.0,0.0,60.0,5.0,0.0
8449,42.0,0.0,60.0,14.0,0.0
8450,78.0,0.0,60.0,10.0,0.0
8451,70.0,0.0,60.0,11.0,0.0
8452,74.0,30.0,30.0,4.0,0.0
8453,61.0,60.0,60.0,12.0,0.0
8454,73.0,0.0,30.0,4.0,0.0
8455,35.0,0.0,120.0,14.0,0.0
8456,47.0,0.0,120.0,13.0,0.0
8457,74.0,0.0,120.0,4.0,0.0
8458,59.0,60.0,120.0,5.0,0.0
8459,66.0,30.0,30.0,6.0,0.0
8460,71.0,0.0,60.0,11.0,0.0
8461,54.0,0.0,60.0,12.0,0.0
8462,59.0,0.0,60.0,7.0,0.0
8463,74.0,0.0,60.0,10.0,0.0
8464,71.0,30.0,30.0,6.0,0.0
8465,73.0,0.0,30.0,6.0,0.0
8466,59.0,0.0,60.0,12.0,0.0
8467,71.0,0.0,60.0,10.0,0.0
8468,33.0,30.0,60.0,14.0,0.0
8469,45.0,0.0,60.0,13.0,0.0
8470,66.0,0.0,60.0,11.0,0.0
8471,57.0,0.0,60.0,7.0,0.0
8472,74.0,30.0,90.0,6.0,0.0
8473,55.0,30.0,60.0,7.0,0.0
8474,31.0,0.0,60.0,14.0,0.0
8475,43.0,0.0,60.0,13.0,0.0
8476,78.0,0.0,30.0,6.0,0.0
8477,59.0,0.0,60.0,12.0,0.0
8478,55.0,0.0,60.0,13.0,0.0
8479,67.0,0.0,60.0,7.0,0.0
8480,71.0,0.0,60.0,11.0,0.0
8481,76.0,0.0,60.0,10.0,0.0
8482,76.0,30.0,30.0,6.0,0.0
8483,43.0,30.0,60.0,14.0,0.0
8484,74.0,0.0,30.0,6.0,0.0
8485,40.0,0.0,60.0,14.0,0.0
8486,79.0,30.0,60.0,10.0,0.0
8487,73.0,30.0,30.0,6.0,0.0
8488,52.0,0.0,60.0,13.0,0.0
8489,63.0,0.0,60.0,12.0,0.0
8490,64.0,0.0,60.0,7.0,0.0
8491,76.0,0.0,60.0,11.0,0.0
8492,71.0,0.0,30.0,6.0,0.0
8493,78.0,30.0,210.0,4.0,0.0
8494,66.0,0.0,120.0,7.0,0.0
8495,54.0,0.0,120.0,13.0,0.0
8496,70.0,0.0,30.0,6.0,0.0
8497,42.0,0.0,120.0,14.0,0.0
8498,54.0,30.0,30.0,5.0,0.0
8499,58.0,0.0,30.0,5.0,0.0
8500,73.0,30.0,30.0,6.0,0.0
8501,78.0,30.0,60.0,10.0,0.0
8502,61.0,0.0,30.0,5.0,0.0
8503,73.0,0.0,60.0,11.0,0.0
8504,61.0,0.0,60.0,12.0,0.0
8505,71.0,30.0,30.0,6.0,0.0
8506,70.0,0.0,30.0,6.0,0.0
8507,66.0,0.0,30.0,5.0,0.0
8508,68.0,30.0,30.0,6.0,0.0
8509,40.0,0.0,60.0,14.0,0.0
8510,66.0,0.0,60.0,12.0,0.0
8511,64.0,0.0,30.0,5.0,0.0
8512,52.0,0.0,60.0,13.0,0.0
8513,70.0,0.0,60.0,11.0,0.0
8514,73.0,0.0,60.0,10.0,0.0
8515,66.0,30.0,30.0,6.0,0.0
8516,61.0,0.0,30.0,5.0,0.0
8517,78.0,30.0,60.0,6.0,0.0
8518,38.0,0.0,120.0,14.0,0.0
8519,62.0,0.0,60.0,5.0,0.0
8520,50.0,0.0,120.0,13.0,0.0
8521,79.0,0.0,30.0,4.0,0.0
8522,64.0,0.0,30.0,7.0,0.0
8523,50.0,0.0,60.0,5.0,0.0
8524,78.0,0.0,30.0,4.0,0.0
8525,71.0,0.0,60.0,10.0,0.0
8526,66.0,30.0,60.0,11.0,0.0
8527,62.0,30.0,30.0,7.0,0.0
8528,71.0,0.0,60.0,12.0,0.0
8529,76.0,0.0,30.0,4.0,0.0
8530,61.0,0.0,30.0,7.0,0.0
8531,47.0,0.0,60.0,5.0,0.0
8532,74.0,0.0,60.0,10.0,0.0
8533,35.0,0.0,60.0,14.0,0.0
8534,71.0,0.0,60.0,11.0,0.0
8535,78.0,0.0,30.0,4.0,0.0
8536,47.0,0.0,60.0,13.0,0.0
8537,66.0,0.0,60.0,12.0,0.0
8538,62.0,30.0,30.0,7.0,0.0
8539,59.0,0.0,30.0,7.0,0.0
8540,79.0,30.0,30.0,4.0,0.0
8541,42.0,0.0,120.0,13.0,0.0
8542,54.0,30.0,30.0,5.0,0.0
8543,66.0,0.0,60.0,7.0,0.0
8544,30.0,0.0,120.0,14.0,0.0
8545,70.0,30.0,210.0,4.0,0.0
8546,61.0,0.0,30.0,5.0,0.0
8547,79.0,30.0,30.0,6.0,0.0
8548,73.0,0.0,60.0,10.0,0.0
8549,78.0,0.0,30.0,6.0,0.0
8550,70.0,30.0,60.0,11.0,0.0
8551,64.0,30.0,30.0,5.0,0.0
8552,66.0,0.0,60.0,12.0,0.0
8553,76.0,0.0,30.0,6.0,0.0
8554,67.0,0.0,30.0,5.0,0.0
8555,70.0,0.0,60.0,10.0,0.0
8556,54.0,0.0,60.0,13.0,0.0
8557,54.0,0.0,60.0,12.0,0.0
8558,74.0,0.0,30.0,6.0,0.0
8559,66.0,30.0,30.0,5.0,0.0
8560,42.0,0.0,60.0,14.0,0.0
8561,66.0,30.0,60.0,11.0,0.0
8562,64.0,0.0,30.0,5.0,0.0
8563,73.0,0.0,30.0,6.0,0.0
8564,40.0,0.0,120.0,14.0,0.0
8565,85.0,0.0,60.0,6.0,0.0
8566,66.0,0.0,60.0,5.0,0.0
8567,52.0,0.0,120.0,13.0,0.0
8568,62.0,0.0,30.0,7.0,0.0
8569,68.0,30.0,30.0,4.0,0.0
8570,64.0,0.0,60.0,5.0,0.0
8571,60.0,0.0,60.0,12.0,0.0
8572,70.0,0.0,30.0,4.0,0.0
8573,66.0,0.0,60.0,10.0,0.0
8574,61.0,0.0,60.0,11.0,0.0
8575,61.0,30.0,30.0,7.0,0.0
8576,59.0,0.0,30.0,7.0,0.0
8577,71.0,30.0,30.0,4.0,0.0
8578,71.0,0.0,60.0,10.0,0.0
8579,59.0,30.0,60.0,12.0,0.0
8580,38.0,0.0,60.0,14.0,0.0
8581,58.0,30.0,30.0,7.0,0.0
8582,66.0,0.0,60.0,11.0,0.0
8583,50.0,0.0,60.0,13.0,0.0
8584,62.0,0.0,60.0,5.0,0.0
8585,73.0,0.0,30.0,4.0,0.0
8586,74.0,0.0,30.0,4.0,0.0
8587,59.0,0.0,30.0,7.0,0.0
8588,76.0,30.0,30.0,4.0,0.0
8589,49.0,0.0,120.0,13.0,0.0
8590,55.0,0.0,60.0,7.0,0.0
8591,61.0,0.0,60.0,5.0,0.0
8592,37.0,0.0,120.0,14.0,0.0
8593,79.0,30.0,30.0,4.0,0.0
8594,67.0,60.0,60.0,12.0,0.0
8595,78.0,30.0,30.0,4.0,0.0
8596,70.0,0.0,60.0,10.0,0.0
8597,49.0,0.0,60.0,5.0,0.0
8598,67.0,0.0,60.0,7.0,0.0
8599,64.0,0.0,60.0,11.0,0.0
8600,76.0,0.0,30.0,4.0,0.0
8601,47.0,0.0,60.0,13.0,0.0
8602,85.0,30.0,90.0,4.0,0.0
8603,47.0,0.0,60.0,5.0,0.0
8604,67.0,0.0,60.0,11.0,0.0
8605,64.0,0.0,60.0,12.0,0.0
8606,35.0,30.0,60.0,14.0,0.0
8607,76.0,0.0,60.0,10.0,0.0
8608,46.0,0.0,60.0,5.0,0.0
8609,34.0,30.0,60.0,14.0,0.0
8610,46.0,0.0,60.0,13.0,0.0
8611,83.0,0.0,30.0,4.0,0.0
8612,78.0,0.0,60.0,10.0,0.0
8613,42.0,0.0,60.0,13.0,0.0
8614,30.0,0.0,60.0,14.0,0.0
8615,54.0,30.0,30.0,7.0,0.0
8616,42.0,0.0,60.0,5.0,0.0
8617,61.0,30.0,60.0,11.0,0.0
8618,61.0,0.0,60.0,12.0,0.0
8619,82.0,0.0,30.0,4.0,0.0
8620,85.0,0.0,30.0,4.0,0.0
8621,56.0,0.0,30.0,7.0,0.0
8622,46.0,0.0,60.0,13.0,0.0
8623,58.0,0.0,60.0,12.0,0.0
8624,73.0,30.0,60.0,10.0,0.0
8625,66.0,0.0,60.0,11.0,0.0
8626,46.0,0.0,60.0,5.0,0.0
8627,78.0,30.0,30.0,4.0,0.0
8628,34.0,0.0,60.0,14.0,0.0
8629,58.0,0.0,30.0,7.0,0.0
8630,76.0,0.0,30.0,4.0,0.0
8631,54.0,0.0,30.0,7.0,0.0
8632,47.0,30.0,60.0,5.0,0.0
8633,74.0,30.0,30.0,4.0,0.0
8634,78.0,30.0,210.0,6.0,0.0
8635,35.0,0.0,120.0,14.0,0.0
8636,59.0,0.0,30.0,7.0,0.0
8637,47.0,30.0,120.0,13.0,0.0
8638,58.0,0.0,30.0,7.0,0.0
8639,79.0,0.0,30.0,4.0,0.0
8640,54.0,0.0,60.0,12.0,0.0
8641,78.0,0.0,30.0,4.0,0.0
8642,59.0,30.0,30.0,7.0,0.0
8643,59.0,0.0,60.0,5.0,0.0
8644,66.0,0.0,60.0,11.0,0.0
8645,74.0,0.0,60.0,10.0,0.0
8646,76.0,0.0,30.0,4.0,0.0
8647,54.0,0.0,30.0,7.0,0.0
8648,49.0,0.0,60.0,5.0,0.0
8649,37.0,0.0,60.0,14.0,0.0
8650,61.0,30.0,30.0,7.0,0.0
8651,49.0,0.0,60.0,13.0,0.0
8652,70.0,30.0,60.0,10.0,0.0
8653,74.0,0.0,30.0,4.0,0.0
8654,64.0,0.0,60.0,11.0,0.0
8655,61.0,0.0,60.0,12.0,0.0
8656,73.0,0.0,30.0,4.0,0.0
8657,54.0,0.0,30.0,7.0,0.0
8658,50.0,0.0,120.0,13.0,0.0
8659,62.0,0.0,60.0,7.0,0.0
8660,50.0,0.0,60.0,5.0,0.0
8661,83.0,30.0,60.0,4.0,0.0
8662,38.0,0.0,120.0,14.0,0.0
8663,79.0,0.0,30.0,6.0,0.0
8664,47.0,0.0,60.0,5.0,0.0
8665,50.0,0.0,60.0,7.0,0.0
8666,78.0,30.0,30.0,6.0,0.0
8667,66.0,0.0,60.0,11.0,0.0
8668,59.0,30.0,60.0,12.0,0.0
8669,71.0,0.0,60.0,10.0,0.0
8670,76.0,0.0,30.0,6.0,0.0
8671,64.0,0.0,60.0,11.0,0.0
8672,40.0,0.0,60.0,14.0,0.0
8673,67.0,0.0,60.0,10.0,0.0
8674,52.0,0.0,60.0,5.0,0.0
8675,52.0,0.0,60.0,7.0,0.0
8676,52.0,0.0,60.0,13.0,0.0
8677,78.0,30.0,30.0,6.0,0.0
8678,59.0,30.0,60.0,12.0,0.0
8679,79.0,0.0,30.0,6.0,0.0
8680,54.0,0.0,120.0,13.0,0.0
8681,42.0,30.0,120.0,14.0,0.0
8682,70.0,30.0,210.0,6.0,0.0
8683,54.0,0.0,60.0,5.0,0.0
8684,54.0,30.0,30.0,7.0,0.0
8685,85.0,30.0,30.0,4.0,0.0
8686,58.0,0.0,30.0,7.0,0.0
8687,66.0,0.0,60.0,10.0,0.0
8688,54.0,0.0,60.0,12.0,0.0
8689,61.0,30.0,30.0,7.0,0.0
8690,61.0,0.0,60.0,11.0,0.0
8691,83.0,0.0,30.0,4.0,0.0
8692,66.0,0.0,30.0,7.0,0.0
8693,82.0,0.0,30.0,4.0,0.0
8694,80.0,30.0,30.0,4.0,0.0
8695,54.0,0.0,60.0,14.0,0.0
8696,61.0,30.0,60.0,12.0,0.0
8697,66.0,0.0,60.0,13.0,0.0
8698,64.0,0.0,60.0,11.0,0.0
8699,70.0,0.0,60.0,10.0,0.0
8700,64.0,0.0,30.0,7.0,0.0
8701,62.0,0.0,30.0,7.0,0.0
8702,78.0,0.0,30.0,4.0,0.0
8703,90.0,30.0,60.0,4.0,0.0
8704,64.0,0.0,60.0,7.0,0.0
8705,64.0,0.0,120.0,13.0,0.0
8706,52.0,0.0,120.0,14.0,0.0
8707,61.0,0.0,30.0,5.0,0.0
8708,68.0,0.0,30.0,6.0,0.0
8709,73.0,30.0,60.0,10.0,0.0
8710,66.0,0.0,60.0,12.0,0.0
8711,66.0,0.0,60.0,11.0,0.0
8712,70.0,30.0,30.0,6.0,0.0
8713,66.0,0.0,30.0,5.0,0.0
8714,52.0,0.0,60.0,7.0,0.0
8715,68.0,0.0,30.0,5.0,0.0
8716,71.0,0.0,30.0,6.0,0.0
8717,62.0,0.0,60.0,13.0,0.0
8718,54.0,0.0,60.0,12.0,0.0
8719,50.0,0.0,60.0,14.0,0.0
8720,70.0,0.0,30.0,5.0,0.0
8721,73.0,30.0,30.0,6.0,0.0
8722,50.0,0.0,60.0,7.0,0.0
8723,78.0,0.0,60.0,10.0,0.0
8724,59.0,30.0,60.0,11.0,0.0
8725,71.0,0.0,30.0,5.0,0.0
8726,74.0,0.0,30.0,6.0,0.0
8727,49.0,30.0,60.0,7.0,0.0
8728,61.0,0.0,120.0,13.0,0.0
8729,73.0,0.0,60.0,5.0,0.0
8730,49.0,0.0,120.0,14.0,0.0
8731,76.0,30.0,30.0,6.0,0.0
8732,79.0,0.0,30.0,6.0,0.0
8733,61.0,0.0,60.0,5.0,0.0
8734,61.0,0.0,60.0,11.0,0.0
8735,78.0,30.0,30.0,6.0,0.0
8736,61.0,0.0,60.0,7.0,0.0
8737,64.0,0.0,60.0,12.0,0.0
8738,79.0,0.0,60.0,10.0,0.0
8739,73.0,60.0,60.0,4.0,0.0
8740,76.0,0.0,30.0,6.0,0.0
8741,47.0,0.0,60.0,14.0,0.0
8742,59.0,0.0,60.0,13.0,0.0
8743,59.0,0.0,60.0,7.0,0.0
8744,76.0,0.0,60.0,4.0,0.0
8745,61.0,30.0,60.0,12.0,0.0
8746,76.0,0.0,60.0,10.0,0.0
8747,67.0,0.0,60.0,11.0,0.0
8748,85.0,30.0,90.0,6.0,0.0
8749,79.0,0.0,60.0,4.0,0.0
8750,46.0,0.0,60.0,14.0,0.0
8751,58.0,0.0,60.0,7.0,0.0
8752,58.0,30.0,60.0,13.0,0.0
8753,83.0,0.0,30.0,6.0,0.0
8754,82.0,30.0,30.0,6.0,0.0
8755,66.0,0.0,60.0,11.0,0.0
8756,86.0,0.0,30.0,4.0,0.0
8757,61.0,0.0,60.0,12.0,0.0
8758,73.0,0.0,60.0,10.0,0.0
8759,54.0,0.0,30.0,5.0,0.0
8760,42.0,0.0,60.0,14.0,0.0
8761,54.0,0.0,60.0,7.0,0.0
8762,54.0,0.0,60.0,13.0,0.0
8763,56.0,30.0,30.0,5.0,0.0
8764,85.0,0.0,30.0,6.0,0.0
8765,85.0,30.0,120.0,4.0,0.0
8766,58.0,30.0,60.0,7.0,0.0
8767,73.0,0.0,60.0,11.0,0.0
8768,78.0,0.0,30.0,6.0,0.0
8769,58.0,0.0,60.0,12.0,0.0
8770,46.0,0.0,60.0,14.0,0.0
8771,78.0,0.0,60.0,10.0,0.0
8772,58.0,30.0,30.0,5.0,0.0
8773,58.0,0.0,60.0,13.0,0.0
8774,54.0,0.0,30.0,5.0,0.0
8775,76.0,0.0,30.0,6.0,0.0
8776,59.0,0.0,120.0,13.0,0.0
8777,74.0,30.0,210.0,6.0,0.0
8778,59.0,0.0,60.0,5.0,0.0
8779,59.0,30.0,60.0,7.0,0.0
8780,47.0,0.0,120.0,14.0,0.0
8781,86.0,0.0,30.0,4.0,0.0
8782,66.0,0.0,60.0,12.0,0.0
8783,47.0,30.0,60.0,7.0,0.0
8784,78.0,0.0,60.0,10.0,0.0
8785,85.0,30.0,30.0,4.0,0.0
8786,74.0,0.0,60.0,11.0,0.0
8787,71.0,0.0,60.0,5.0,0.0
8788,83.0,0.0,30.0,4.0,0.0
8789,57.0,30.0,60.0,13.0,0.0
8790,69.0,0.0,60.0,5.0,0.0
8791,45.0,0.0,60.0,7.0,0.0
8792,73.0,0.0,60.0,11.0,0.0
8793,69.0,0.0,60.0,12.0,0.0
8794,45.0,0.0,60.0,14.0,0.0
8795,85.0,30.0,30.0,4.0,0.0
8796,66.0,0.0,60.0,10.0,0.0
8797,86.0,0.0,30.0,4.0,0.0
8798,55.0,0.0,120.0,13.0,0.0
8799,43.0,0.0,60.0,7.0,0.0
8800,83.0,30.0,210.0,4.0,0.0
8801,43.0,0.0,120.0,14.0,0.0
8802,67.0,30.0,60.0,5.0,0.0
8803,76.0,0.0,30.0,6.0,0.0
8804,71.0,0.0,60.0,10.0,0.0
8805,55.0,0.0,60.0,5.0,0.0
8806,71.0,0.0,60.0,12.0,0.0
8807,74.0,30.0,30.0,6.0,0.0
8808,55.0,0.0,60.0,7.0,0.0
8809,71.0,30.0,60.0,11.0,0.0
8810,73.0,0.0,30.0,6.0,0.0
8811,42.0,0.0,60.0,14.0,0.0
8812,54.0,0.0,60.0,5.0,0.0
8813,54.0,0.0,60.0,13.0,0.0
8814,69.0,0.0,60.0,11.0,0.0
8815,74.0,30.0,30.0,6.0,0.0
8816,54.0,0.0,60.0,7.0,0.0
8817,74.0,0.0,60.0,10.0,0.0
8818,78.0,30.0,60.0,12.0,0.0
8819,76.0,0.0,30.0,6.0,0.0
8820,73.0,30.0,210.0,6.0,0.0
8821,52.0,0.0,60.0,7.0,0.0
8822,52.0,0.0,120.0,13.0,0.0
8823,40.0,0.0,120.0,14.0,0.0
8824,52.0,30.0,60.0,5.0,0.0
8825,85.0,0.0,30.0,4.0,0.0
8826,83.0,30.0,30.0,4.0,0.0
8827,79.0,0.0,60.0,10.0,0.0
8828,67.0,0.0,60.0,11.0,0.0
8829,61.0,0.0,60.0,12.0,0.0
8830,64.0,0.0,60.0,5.0,0.0
8831,40.0,30.0,60.0,7.0,0.0
8832,82.0,0.0,30.0,4.0,0.0
8833,28.0,0.0,60.0,14.0,0.0
8834,52.0,0.0,60.0,5.0,0.0
8835,73.0,0.0,60.0,10.0,0.0
8836,67.0,0.0,60.0,12.0,0.0
8837,52.0,0.0,60.0,7.0,0.0
8838,40.0,0.0,60.0,13.0,0.0
8839,83.0,30.0,30.0,4.0,0.0
8840,64.0,30.0,60.0,11.0,0.0
8841,85.0,0.0,30.0,4.0,0.0
8842,54.0,0.0,60.0,7.0,0.0
8843,54.0,0.0,60.0,5.0,0.0
8844,30.0,0.0,120.0,14.0,0.0
8845,42.0,0.0,120.0,13.0,0.0
8846,74.0,0.0,210.0,4.0,0.0
8847,74.0,30.0,30.0,6.0,0.0
8848,70.0,30.0,60.0,10.0,0.0
8849,54.0,0.0,60.0,12.0,0.0
8850,73.0,30.0,30.0,6.0,0.0
8851,62.0,0.0,60.0,11.0,0.0
8852,66.0,0.0,60.0,5.0,0.0
8853,42.0,0.0,60.0,7.0,0.0
8854,71.0,0.0,30.0,6.0,0.0
8855,66.0,0.0,60.0,10.0,0.0
8856,71.0,0.0,60.0,11.0,0.0
8857,54.0,0.0,60.0,7.0,0.0
8858,66.0,0.0,60.0,12.0,0.0
8859,73.0,30.0,30.0,6.0,0.0
8860,54.0,0.0,60.0,5.0,0.0
8861,42.0,0.0,60.0,14.0,0.0
8862,54.0,0.0,60.0,13.0,0.0
8863,74.0,30.0,30.0,6.0,0.0
8864,55.0,29.0,120.0,13.0,0.0
8865,55.0,0.0,60.0,5.0,0.0
8866,55.0,0.0,60.0,7.0,0.0
8867,76.0,30.0,30.0,6.0,0.0
8868,43.0,0.0,120.0,14.0,0.0
8869,76.0,30.0,30.0,4.0,0.0
8870,79.0,0.0,30.0,6.0,0.0
8871,67.0,0.0,60.0,12.0,0.0
8872,67.0,0.0,60.0,5.0,0.0
8873,43.0,0.0,60.0,7.0,0.0
8874,59.0,0.0,60.0,10.0,0.0
8875,78.0,0.0,30.0,6.0,0.0
8876,74.0,30.0,30.0,4.0,0.0
8877,71.0,1.0,60.0,11.0,0.0
8878,76.0,0.0,30.0,6.0,0.0
8879,73.0,0.0,30.0,4.0,0.0
8880,59.0,0.0,60.0,11.0,0.0
8881,43.0,0.0,60.0,13.0,0.0
8882,64.0,0.0,60.0,12.0,0.0
8883,55.0,0.0,60.0,5.0,0.0
8884,71.0,0.0,60.0,10.0,0.0
8885,74.0,0.0,30.0,4.0,0.0
8886,31.0,30.0,60.0,14.0,0.0
8887,55.0,0.0,60.0,7.0,0.0
8888,78.0,30.0,30.0,6.0,0.0
8889,76.0,0.0,30.0,4.0,0.0
8890,79.0,0.0,30.0,6.0,0.0
8891,42.0,29.0,120.0,13.0,0.0
8892,30.0,0.0,120.0,14.0,0.0
8893,71.0,30.0,210.0,6.0,0.0
8894,78.0,30.0,30.0,4.0,0.0
8895,54.0,0.0,60.0,7.0,0.0
8896,54.0,30.0,60.0,5.0,0.0
8897,79.0,0.0,30.0,4.0,0.0
8898,66.0,0.0,60.0,5.0,0.0
8899,78.0,30.0,30.0,4.0,0.0
8900,74.0,0.0,60.0,10.0,0.0
8901,71.0,0.0,60.0,12.0,0.0
8902,66.0,0.0,60.0,11.0,0.0
8903,42.0,0.0,60.0,7.0,0.0
8904,76.0,1.0,30.0,4.0,0.0
8905,64.0,0.0,60.0,5.0,0.0
8906,67.0,0.0,60.0,12.0,0.0
8907,61.0,0.0,60.0,11.0,0.0
8908,78.0,30.0,30.0,4.0,0.0
8909,40.0,0.0,60.0,13.0,0.0
8910,40.0,0.0,60.0,7.0,0.0
8911,28.0,0.0,60.0,14.0,0.0
8912,73.0,0.0,60.0,10.0,0.0
8913,79.0,30.0,30.0,4.0,0.0
8914,66.0,0.0,60.0,5.0,0.0
8915,74.0,0.0,180.0,4.0,0.0
8916,42.0,29.0,120.0,13.0,0.0
8917,42.0,0.0,60.0,7.0,0.0
8918,30.0,0.0,120.0,14.0,0.0
8919,73.0,30.0,30.0,6.0,0.0
8920,54.0,0.0,60.0,5.0,0.0
8921,54.0,1.0,60.0,7.0,0.0
8922,66.0,0.0,60.0,11.0,0.0
8923,71.0,0.0,60.0,12.0,0.0
8924,71.0,30.0,30.0,6.0,0.0
8925,74.0,0.0,60.0,10.0,0.0
8926,70.0,0.0,30.0,6.0,0.0
8927,52.0,0.0,60.0,13.0,0.0
8928,40.0,60.0,60.0,14.0,0.0
8929,67.0,0.0,60.0,12.0,0.0
8930,79.0,0.0,60.0,10.0,0.0
8931,52.0,0.0,60.0,7.0,0.0
8932,71.0,0.0,60.0,11.0,0.0
8933,71.0,30.0,30.0,6.0,0.0
8934,52.0,0.0,60.0,5.0,0.0
8935,73.0,0.0,30.0,6.0,0.0
8936,54.0,0.0,60.0,7.0,0.0
8937,42.0,0.0,120.0,14.0,0.0
8938,73.0,0.0,120.0,4.0,0.0
8939,54.0,59.0,120.0,13.0,0.0
8940,70.0,0.0,120.0,6.0,0.0
8941,54.0,60.0,60.0,5.0,0.0
8942,61.0,1.0,60.0,12.0,0.0
8943,66.0,0.0,60.0,5.0,0.0
8944,78.0,0.0,60.0,10.0,0.0
8945,70.0,0.0,60.0,11.0,0.0
8946,42.0,0.0,60.0,7.0,0.0
8947,42.0,0.0,60.0,13.0,0.0
8948,54.0,0.0,60.0,7.0,0.0
8949,66.0,0.0,60.0,12.0,0.0
8950,71.0,0.0,60.0,6.0,0.0
8951,76.0,0.0,60.0,10.0,0.0
8952,71.0,60.0,60.0,4.0,0.0
8953,73.0,0.0,60.0,11.0,0.0
8954,30.0,0.0,60.0,14.0,0.0
8955,54.0,0.0,60.0,5.0,0.0
8956,71.0,0.0,1080.0,11.0,0.0
8957,78.0,0.0,1080.0,10.0,0.0
8958,66.0,29.0,360.0,12.0,0.0
8959,47.0,60.0,60.0,7.0,0.0
8960,35.0,0.0,120.0,14.0,0.0
8961,71.0,0.0,180.0,6.0,0.0
8962,71.0,0.0,120.0,4.0,0.0
8963,59.0,0.0,120.0,5.0,0.0
8964,47.0,0.0,120.0,13.0,0.0
8965,59.0,60.0,60.0,7.0,0.0
8966,61.0,60.0,60.0,7.0,0.0
8967,49.0,0.0,60.0,13.0,0.0
8968,37.0,0.0,60.0,14.0,0.0
8969,50.0,0.0,60.0,13.0,0.0
8970,38.0,60.0,60.0,14.0,0.0
8971,62.0,0.0,60.0,7.0,0.0
8972,61.0,60.0,60.0,7.0,0.0
8973,37.0,0.0,60.0,14.0,0.0
8974,49.0,0.0,60.0,13.0,0.0
8975,47.0,0.0,60.0,13.0,0.0
8976,35.0,1.0,60.0,14.0,0.0
8977,69.0,0.0,60.0,6.0,0.0
8978,59.0,0.0,60.0,7.0,0.0
8979,68.0,30.0,30.0,6.0,0.0
8980,64.0,0.0,60.0,7.0,0.0
8981,40.0,30.0,120.0,14.0,0.0
8982,68.0,29.0,720.0,12.0,0.0
8983,52.0,0.0,120.0,13.0,0.0
8984,69.0,30.0,30.0,6.0,0.0
8985,52.0,0.0,60.0,7.0,0.0
8986,68.0,30.0,30.0,6.0,0.0
8987,66.0,0.0,30.0,6.0,0.0
8988,54.0,30.0,60.0,7.0,0.0
8989,68.0,30.0,30.0,6.0,0.0
8990,42.0,0.0,60.0,14.0,0.0
8991,54.0,0.0,60.0,13.0,0.0
8992,69.0,0.0,30.0,6.0,0.0
8993,56.0,30.0,30.0,7.0,0.0
8994,71.0,0.0,30.0,6.0,0.0
8995,44.0,30.0,120.0,14.0,0.0
8996,56.0,0.0,120.0,13.0,0.0
8997,72.0,0.0,30.0,6.0,0.0
8998,57.0,30.0,30.0,7.0,0.0
8999,56.0,0.0,30.0,7.0,0.0
9000,71.0,30.0,30.0,6.0,0.0
9001,69.0,0.0,30.0,6.0,0.0
9002,54.0,0.0,30.0,7.0,0.0
9003,57.0,30.0,60.0,13.0,0.0
9004,71.0,30.0,30.0,6.0,0.0
9005,56.0,0.0,30.0,7.0,0.0
9006,45.0,0.0,60.0,14.0,0.0
9007,57.0,0.0,30.0,7.0,0.0
9008,72.0,0.0,30.0,6.0,0.0
9009,47.0,0.0,120.0,14.0,0.0
9010,59.0,0.0,120.0,13.0,0.0
9011,59.0,0.0,30.0,7.0,0.0
9012,74.0,30.0,30.0,6.0,0.0
9013,60.0,0.0,30.0,7.0,0.0
9014,76.0,30.0,30.0,6.0,0.0
9015,59.0,30.0,30.0,7.0,0.0
9016,74.0,0.0,30.0,6.0,0.0
9017,65.0,0.0,60.0,5.0,0.0
9018,72.0,30.0,30.0,6.0,0.0
9019,57.0,0.0,30.0,7.0,0.0
9020,45.0,0.0,60.0,14.0,0.0
9021,74.0,30.0,30.0,6.0,0.0
9022,59.0,0.0,30.0,7.0,0.0
9023,57.0,0.0,60.0,13.0,0.0
9024,62.0,30.0,60.0,5.0,0.0
9025,60.0,0.0,30.0,7.0,0.0
9026,76.0,0.0,30.0,6.0,0.0
9027,56.0,30.0,120.0,13.0,0.0
9028,77.0,30.0,30.0,6.0,0.0
9029,59.0,30.0,60.0,5.0,0.0
9030,44.0,0.0,120.0,14.0,0.0
9031,62.0,0.0,30.0,7.0,0.0
9032,64.0,0.0,30.0,7.0,0.0
9033,76.0,0.0,30.0,6.0,0.0
9034,62.0,30.0,30.0,7.0,0.0
9035,56.0,0.0,60.0,5.0,0.0
9036,60.0,0.0,30.0,7.0,0.0
9037,52.0,1.0,60.0,13.0,0.0
9038,62.0,0.0,30.0,7.0,0.0
9039,74.0,30.0,30.0,6.0,0.0
9040,40.0,0.0,60.0,14.0,0.0
9041,71.0,30.0,90.0,4.0,0.0
9042,52.0,0.0,60.0,5.0,0.0
9043,64.0,0.0,30.0,7.0,0.0
9044,45.0,30.0,60.0,5.0,0.0
9045,45.0,0.0,120.0,13.0,0.0
9046,33.0,0.0,120.0,14.0,0.0
9047,67.0,29.0,480.0,12.0,0.0
9048,57.0,0.0,60.0,7.0,0.0
9049,73.0,29.0,720.0,10.0,0.0
9050,73.0,0.0,60.0,6.0,0.0
9051,69.0,29.0,1440.0,11.0,0.0
9052,74.0,0.0,30.0,4.0,0.0
9053,61.0,0.0,60.0,7.0,0.0
9054,76.0,0.0,60.0,6.0,0.0
9055,57.0,30.0,60.0,5.0,0.0
9056,73.0,30.0,30.0,4.0,0.0
9057,71.0,0.0,30.0,4.0,0.0
9058,73.0,30.0,30.0,4.0,0.0
9059,35.0,0.0,60.0,14.0,0.0
9060,64.0,0.0,60.0,7.0,0.0
9061,59.0,30.0,60.0,5.0,0.0
9062,47.0,0.0,60.0,13.0,0.0
9063,79.0,0.0,60.0,6.0,0.0
9064,74.0,0.0,30.0,4.0,0.0
9065,49.0,0.0,120.0,13.0,0.0
9066,61.0,30.0,30.0,5.0,0.0
9067,76.0,0.0,30.0,4.0,0.0
9068,69.0,0.0,120.0,6.0,0.0
9069,67.0,0.0,120.0,7.0,0.0
9070,37.0,0.0,120.0,14.0,0.0
9071,62.0,0.0,30.0,5.0,0.0
9072,78.0,30.0,30.0,4.0,0.0
9073,61.0,0.0,30.0,5.0,0.0
9074,76.0,30.0,30.0,4.0,0.0
9075,74.0,0.0,30.0,4.0,0.0
9076,59.0,30.0,30.0,5.0,0.0
9077,76.0,0.0,30.0,4.0,0.0
9078,50.0,0.0,60.0,13.0,0.0
9079,38.0,0.0,60.0,14.0,0.0
9080,61.0,30.0,30.0,5.0,0.0
9081,62.0,0.0,30.0,5.0,0.0
9082,78.0,30.0,30.0,4.0,0.0
9083,40.0,1.0,120.0,14.0,0.0
9084,64.0,0.0,30.0,5.0,0.0
9085,52.0,0.0,120.0,13.0,0.0
9086,79.0,30.0,30.0,4.0,0.0
9087,81.0,0.0,30.0,4.0,0.0
9088,66.0,30.0,30.0,5.0,0.0
9089,79.0,0.0,30.0,4.0,0.0
9090,64.0,30.0,30.0,5.0,0.0
9091,64.0,0.0,60.0,7.0,0.0
9092,78.0,0.0,30.0,4.0,0.0
9093,62.0,0.0,30.0,5.0,0.0
9094,38.0,1.0,60.0,14.0,0.0
9095,64.0,30.0,30.0,5.0,0.0
9096,62.0,0.0,60.0,7.0,0.0
9097,50.0,0.0,60.0,13.0,0.0
9098,66.0,29.0,60.0,12.0,0.0
9099,79.0,0.0,30.0,4.0,0.0
9100,81.0,0.0,30.0,4.0,0.0
9101,66.0,0.0,30.0,5.0,0.0
9102,49.0,0.0,120.0,13.0,0.0
9103,83.0,30.0,30.0,4.0,0.0
9104,61.0,0.0,60.0,7.0,0.0
9105,67.0,0.0,30.0,5.0,0.0
9106,64.0,29.0,120.0,12.0,0.0
9107,37.0,1.0,120.0,14.0,0.0
9108,69.0,30.0,30.0,5.0,0.0
9109,64.0,0.0,60.0,7.0,0.0
9110,67.0,30.0,30.0,5.0,0.0
9111,81.0,0.0,30.0,4.0,0.0
9112,66.0,0.0,30.0,5.0,0.0
9113,33.0,0.0,60.0,14.0,0.0
9114,67.0,30.0,30.0,5.0,0.0
9115,79.0,0.0,30.0,4.0,0.0
9116,45.0,0.0,60.0,13.0,0.0
9117,64.0,30.0,90.0,6.0,0.0
9118,57.0,0.0,60.0,7.0,0.0
9119,61.0,0.0,60.0,12.0,0.0
9120,69.0,1.0,30.0,5.0,0.0
9121,66.0,0.0,720.0,12.0,0.0
9122,78.0,0.0,60.0,4.0,0.0
9123,62.0,0.0,60.0,5.0,0.0
9124,50.0,0.0,120.0,13.0,0.0
9125,72.0,0.0,720.0,10.0,0.0
9126,62.0,0.0,60.0,7.0,0.0
9127,38.0,0.0,120.0,14.0,0.0
9128,67.0,30.0,30.0,6.0,0.0
9129,66.0,0.0,60.0,5.0,0.0
9130,81.0,0.0,60.0,4.0,0.0
9131,66.0,30.0,30.0,6.0,0.0
9132,50.0,0.0,60.0,7.0,0.0
9133,64.0,30.0,30.0,6.0,0.0
9134,52.0,0.0,60.0,13.0,0.0
9135,52.0,0.0,60.0,7.0,0.0
9136,69.0,30.0,60.0,5.0,0.0
9137,66.0,30.0,30.0,6.0,0.0
9138,84.0,0.0,60.0,4.0,0.0
9139,40.0,0.0,60.0,14.0,0.0
9140,67.0,0.0,30.0,6.0,0.0
9141,54.0,0.0,120.0,13.0,0.0
9142,74.0,0.0,120.0,4.0,0.0
9143,54.0,0.0,30.0,7.0,0.0
9144,69.0,30.0,30.0,6.0,0.0
9145,72.0,30.0,120.0,5.0,0.0
9146,42.0,0.0,120.0,14.0,0.0
9147,55.0,0.0,30.0,7.0,0.0
9148,71.0,30.0,30.0,6.0,0.0
9149,54.0,30.0,30.0,7.0,0.0
9150,69.0,0.0,30.0,6.0,0.0
9151,52.0,0.0,30.0,7.0,0.0
9152,67.0,0.0,30.0,6.0,0.0
9153,54.0,30.0,30.0,7.0,0.0
9154,69.0,0.0,30.0,6.0,0.0
9155,43.0,0.0,60.0,14.0,0.0
9156,55.0,0.0,60.0,13.0,0.0
9157,55.0,30.0,30.0,7.0,0.0
9158,71.0,0.0,30.0,6.0,0.0
9159,72.0,0.0,30.0,6.0,0.0
9160,57.0,30.0,120.0,13.0,0.0
9161,57.0,30.0,30.0,7.0,0.0
9162,45.0,0.0,120.0,14.0,0.0
9163,74.0,0.0,30.0,6.0,0.0
9164,59.0,30.0,30.0,7.0,0.0
9165,72.0,30.0,30.0,6.0,0.0
9166,69.0,0.0,60.0,5.0,0.0
9167,57.0,0.0,30.0,7.0,0.0
9168,71.0,0.0,30.0,6.0,0.0
9169,55.0,0.0,30.0,7.0,0.0
9170,72.0,30.0,30.0,6.0,0.0
9171,55.0,0.0,60.0,13.0,0.0
9172,57.0,0.0,30.0,7.0,0.0
9173,67.0,0.0,60.0,5.0,0.0
9174,43.0,0.0,60.0,14.0,0.0
9175,59.0,0.0,30.0,7.0,0.0
9176,74.0,30.0,30.0,6.0,0.0
9177,42.0,0.0,120.0,14.0,0.0
9178,66.0,0.0,60.0,5.0,0.0
9179,60.0,30.0,30.0,7.0,0.0
9180,54.0,0.0,120.0,13.0,0.0
9181,76.0,0.0,30.0,6.0,0.0
9182,62.0,30.0,30.0,7.0,0.0
9183,69.0,30.0,60.0,5.0,0.0
9184,60.0,0.0,30.0,7.0,0.0
9185,74.0,30.0,30.0,6.0,0.0
9186,59.0,0.0,30.0,7.0,0.0
9187,62.0,1.0,60.0,5.0,0.0
9188,72.0,30.0,30.0,6.0,0.0
9189,69.0,30.0,90.0,4.0,0.0
9190,60.0,0.0,30.0,7.0,0.0
9191,50.0,0.0,60.0,13.0,0.0
9192,38.0,0.0,60.0,14.0,0.0
9193,62.0,0.0,30.0,7.0,0.0
9194,67.0,0.0,60.0,5.0,0.0
9195,71.0,30.0,60.0,6.0,0.0
9196,43.0,30.0,120.0,13.0,0.0
9197,65.0,29.0,480.0,12.0,0.0
9198,71.0,0.0,780.0,10.0,0.0
9199,55.0,0.0,60.0,7.0,0.0
9200,31.0,0.0,120.0,14.0,0.0
9201,72.0,0.0,30.0,4.0,0.0
9202,59.0,0.0,60.0,7.0,0.0
9203,74.0,0.0,60.0,6.0,0.0
9204,55.0,0.0,60.0,5.0,0.0
9205,71.0,30.0,30.0,4.0,0.0
9206,69.0,0.0,30.0,4.0,0.0
9207,71.0,30.0,30.0,4.0,0.0
9208,33.0,0.0,60.0,14.0,0.0
9209,56.0,0.0,60.0,5.0,0.0
9210,62.0,0.0,60.0,7.0,0.0
9211,77.0,30.0,60.0,6.0,0.0
9212,45.0,0.0,60.0,13.0,0.0
9213,72.0,0.0,30.0,4.0,0.0
9214,47.0,0.0,120.0,13.0,0.0
9215,67.0,0.0,120.0,6.0,0.0
9216,35.0,0.0,120.0,14.0,0.0
9217,59.0,0.0,30.0,5.0,0.0
9218,65.0,0.0,120.0,7.0,0.0
9219,74.0,30.0,30.0,4.0,0.0
9220,60.0,0.0,30.0,5.0,0.0
9221,76.0,30.0,30.0,4.0,0.0
9222,59.0,0.0,30.0,5.0,0.0
9223,74.0,30.0,30.0,4.0,0.0
9224,57.0,30.0,30.0,5.0,0.0
9225,72.0,0.0,30.0,4.0,0.0
9226,36.0,0.0,60.0,14.0,0.0
9227,48.0,0.0,60.0,13.0,0.0
9228,74.0,30.0,30.0,4.0,0.0
9229,59.0,0.0,30.0,5.0,0.0
9230,76.0,0.0,30.0,4.0,0.0
9231,60.0,30.0,30.0,5.0,0.0
9232,62.0,0.0,30.0,5.0,0.0
9233,50.0,0.0,120.0,13.0,0.0
9234,38.0,0.0,120.0,14.0,0.0
9235,77.0,30.0,30.0,4.0,0.0
9236,64.0,0.0,30.0,5.0,0.0
9237,79.0,30.0,30.0,4.0,0.0
9238,62.0,1.0,60.0,7.0,0.0
9239,77.0,0.0,30.0,4.0,0.0
9240,62.0,30.0,30.0,5.0,0.0
9241,60.0,0.0,30.0,5.0,0.0
9242,76.0,0.0,30.0,4.0,0.0
9243,60.0,1.0,60.0,7.0,0.0
9244,64.0,29.0,60.0,12.0,0.0
9245,77.0,30.0,30.0,4.0,0.0
9246,48.0,0.0,60.0,13.0,0.0
9247,62.0,0.0,30.0,5.0,0.0
9248,36.0,0.0,60.0,14.0,0.0
9249,79.0,0.0,30.0,4.0,0.0
9250,64.0,0.0,30.0,5.0,0.0
9251,59.0,30.0,60.0,7.0,0.0
9252,35.0,0.0,120.0,14.0,0.0
9253,65.0,30.0,30.0,5.0,0.0
9254,62.0,29.0,120.0,12.0,0.0
9255,81.0,0.0,30.0,4.0,0.0
9256,47.0,1.0,120.0,13.0,0.0
9257,67.0,0.0,30.0,5.0,0.0
9258,79.0,0.0,30.0,4.0,0.0
9259,65.0,30.0,30.0,5.0,0.0
9260,62.0,0.0,60.0,7.0,0.0
9261,64.0,0.0,30.0,5.0,0.0
9262,77.0,0.0,30.0,4.0,0.0
9263,55.0,1.0,60.0,13.0,0.0
9264,43.0,0.0,60.0,14.0,0.0
9265,59.0,29.0,60.0,12.0,0.0
9266,55.0,0.0,60.0,7.0,0.0
9267,65.0,30.0,30.0,5.0,0.0
9268,86.0,30.0,90.0,6.0,0.0
9269,67.0,0.0,30.0,5.0,0.0
9270,48.0,0.0,120.0,14.0,0.0
9271,76.0,30.0,210.0,4.0,0.0
9272,60.0,0.0,120.0,13.0,0.0
9273,60.0,1.0,60.0,5.0,0.0
9274,64.0,0.0,60.0,12.0,0.0
9275,48.0,0.0,60.0,7.0,0.0
9276,88.0,0.0,30.0,6.0,0.0
9277,48.0,0.0,60.0,5.0,0.0
9278,76.0,0.0,60.0,10.0,0.0
9279,67.0,29.0,15.0,11.0,0.0
9280,86.0,30.0,30.0,6.0,0.0
9281,72.0,29.0,60.0,12.0,0.0
9282,60.0,1.0,60.0,7.0,0.0
9283,84.0,0.0,30.0,6.0,0.0
9284,86.0,30.0,30.0,6.0,0.0
9285,47.0,0.0,60.0,14.0,0.0
9286,47.0,1.0,60.0,5.0,0.0
9287,76.0,29.0,60.0,12.0,0.0
9288,59.0,0.0,60.0,13.0,0.0
9289,59.0,0.0,60.0,7.0,0.0
9290,71.0,0.0,60.0,11.0,0.0
9291,80.0,0.0,60.0,10.0,0.0
9292,83.0,0.0,30.0,6.0,0.0
9293,57.0,0.0,120.0,13.0,0.0
9294,45.0,0.0,120.0,14.0,0.0
9295,84.0,30.0,210.0,6.0,0.0
9296,57.0,30.0,60.0,7.0,0.0
9297,45.0,0.0,60.0,5.0,0.0
9298,77.0,0.0,30.0,4.0,0.0
9299,57.0,0.0,60.0,5.0,0.0
9300,76.0,30.0,30.0,4.0,0.0
9301,76.0,0.0,60.0,11.0,0.0
9302,45.0,0.0,60.0,7.0,0.0
9303,72.0,29.0,60.0,12.0,0.0
9304,81.0,0.0,60.0,10.0,0.0
9305,74.0,1.0,30.0,4.0,0.0
9306,84.0,1.0,60.0,10.0,0.0
9307,55.0,0.0,60.0,13.0,0.0
9308,43.0,0.0,60.0,14.0,0.0
9309,43.0,0.0,60.0,7.0,0.0
9310,55.0,0.0,60.0,5.0,0.0
9311,76.0,30.0,30.0,4.0,0.0
9312,81.0,0.0,60.0,11.0,0.0
9313,76.0,29.0,60.0,12.0,0.0
9314,72.0,0.0,30.0,4.0,0.0
9315,74.0,30.0,210.0,4.0,0.0
9316,54.0,0.0,60.0,5.0,0.0
9317,54.0,0.0,120.0,13.0,0.0
9318,42.0,0.0,60.0,7.0,0.0
9319,42.0,0.0,120.0,14.0,0.0
9320,86.0,30.0,30.0,6.0,0.0
9321,74.0,0.0,60.0,10.0,0.0
9322,69.0,1.0,60.0,11.0,0.0
9323,84.0,30.0,30.0,6.0,0.0
9324,50.0,0.0,60.0,5.0,0.0
9325,74.0,29.0,60.0,12.0,0.0
9326,54.0,0.0,60.0,7.0,0.0
9327,83.0,0.0,30.0,6.0,0.0
9328,69.0,29.0,60.0,12.0,0.0
9329,78.0,0.0,60.0,10.0,0.0
9330,50.0,0.0,60.0,13.0,0.0
9331,50.0,0.0,60.0,7.0,0.0
9332,38.0,0.0,60.0,14.0,0.0
9333,84.0,30.0,30.0,6.0,0.0
9334,74.0,0.0,60.0,11.0,0.0
9335,62.0,1.0,60.0,5.0,0.0
9336,81.0,0.0,30.0,6.0,0.0
9337,55.0,30.0,60.0,5.0,0.0
9338,43.0,0.0,120.0,14.0,0.0
9339,55.0,0.0,60.0,7.0,0.0
9340,55.0,0.0,120.0,13.0,0.0
9341,83.0,30.0,210.0,6.0,0.0
9342,76.0,0.0,30.0,4.0,0.0
9343,79.0,0.0,60.0,10.0,0.0
9344,74.0,30.0,30.0,4.0,0.0
9345,43.0,0.0,60.0,7.0,0.0
9346,59.0,0.0,60.0,5.0,0.0
9347,74.0,1.0,60.0,11.0,0.0
9348,71.0,29.0,60.0,12.0,0.0
9349,72.0,0.0,30.0,4.0,0.0
9350,55.0,1.0,60.0,7.0,0.0
9351,74.0,29.0,60.0,12.0,0.0
9352,55.0,0.0,60.0,5.0,0.0
9353,43.0,0.0,60.0,13.0,0.0
9354,31.0,0.0,60.0,14.0,0.0
9355,74.0,30.0,30.0,4.0,0.0
9356,79.0,0.0,60.0,11.0,0.0
9357,83.0,0.0,60.0,10.0,0.0
9358,71.0,0.0,30.0,4.0,0.0
9359,48.0,1.0,120.0,13.0,0.0
9360,36.0,0.0,120.0,14.0,0.0
9361,60.0,30.0,60.0,5.0,0.0
9362,76.0,0.0,210.0,4.0,0.0
9363,60.0,0.0,240.0,7.0,0.0
9364,84.0,0.0,30.0,6.0,0.0
9365,83.0,30.0,30.0,6.0,0.0
9366,79.0,0.0,60.0,10.0,0.0
9367,48.0,0.0,60.0,5.0,0.0
9368,76.0,0.0,60.0,11.0,0.0
9369,72.0,29.0,60.0,12.0,0.0
9370,81.0,0.0,30.0,6.0,0.0
9371,55.0,0.0,60.0,5.0,0.0
9372,83.0,30.0,30.0,6.0,0.0
9373,67.0,29.0,60.0,12.0,0.0
9374,72.0,0.0,60.0,11.0,0.0
9375,43.0,0.0,60.0,14.0,0.0
9376,76.0,0.0,60.0,10.0,0.0
9377,55.0,0.0,60.0,13.0,0.0
9378,79.0,1.0,30.0,6.0,0.0
9379,60.0,30.0,210.0,5.0,0.0
9380,48.0,0.0,300.0,14.0,0.0
9381,60.0,29.0,300.0,13.0,0.0
9382,81.0,30.0,30.0,6.0,0.0
9383,78.0,30.0,30.0,4.0,0.0
9384,84.0,0.0,30.0,6.0,0.0
9385,83.0,30.0,30.0,6.0,0.0
9386,64.0,29.0,60.0,12.0,0.0
9387,72.0,1.0,60.0,10.0,0.0
9388,48.0,0.0,60.0,7.0,0.0
9389,67.0,0.0,60.0,11.0,0.0
9390,79.0,0.0,30.0,4.0,0.0
9391,78.0,0.0,30.0,4.0,0.0
9392,81.0,0.0,30.0,6.0,0.0
9393,79.0,30.0,30.0,4.0,0.0
9394,60.0,29.0,60.0,12.0,0.0
9395,67.0,0.0,60.0,10.0,0.0
9396,64.0,1.0,60.0,11.0,0.0
9397,55.0,0.0,60.0,7.0,0.0
9398,83.0,0.0,30.0,6.0,0.0
9399,84.0,0.0,30.0,6.0,0.0
9400,81.0,0.0,30.0,4.0,0.0
9401,60.0,0.0,60.0,7.0,0.0
9402,78.0,0.0,30.0,6.0,0.0
9403,74.0,30.0,210.0,4.0,0.0
9404,74.0,30.0,30.0,6.0,0.0
9405,59.0,0.0,30.0,5.0,0.0
9406,72.0,0.0,30.0,6.0,0.0
9407,69.0,0.0,60.0,11.0,0.0
9408,74.0,0.0,60.0,10.0,0.0
9409,54.0,0.0,60.0,7.0,0.0
9410,66.0,0.0,60.0,12.0,0.0
9411,57.0,30.0,30.0,5.0,0.0
9412,59.0,1.0,30.0,5.0,0.0
9413,71.0,0.0,30.0,6.0,0.0
9414,60.0,30.0,30.0,5.0,0.0
9415,74.0,0.0,60.0,11.0,0.0
9416,69.0,29.0,60.0,12.0,0.0
9417,69.0,0.0,30.0,6.0,0.0
9418,36.0,0.0,60.0,14.0,0.0
9419,48.0,0.0,60.0,13.0,0.0
9420,78.0,1.0,60.0,10.0,0.0
9421,67.0,0.0,30.0,6.0,0.0
9422,57.0,0.0,30.0,5.0,0.0
9423,47.0,0.0,120.0,13.0,0.0
9424,79.0,0.0,60.0,6.0,0.0
9425,35.0,0.0,120.0,14.0,0.0
9426,59.0,0.0,60.0,5.0,0.0
9427,60.0,30.0,30.0,7.0,0.0
9428,76.0,0.0,30.0,4.0,0.0
9429,59.0,0.0,30.0,7.0,0.0
9430,47.0,0.0,60.0,5.0,0.0
9431,74.0,30.0,30.0,4.0,0.0
9432,74.0,0.0,60.0,11.0,0.0
9433,79.0,1.0,60.0,10.0,0.0
9434,71.0,29.0,60.0,12.0,0.0
9435,72.0,0.0,30.0,4.0,0.0
9436,57.0,0.0,30.0,7.0,0.0
9437,48.0,0.0,60.0,5.0,0.0
9438,72.0,0.0,60.0,11.0,0.0
9439,59.0,30.0,30.0,7.0,0.0
9440,67.0,29.0,60.0,12.0,0.0
9441,76.0,0.0,60.0,10.0,0.0
9442,74.0,0.0,30.0,4.0,0.0
9443,36.0,0.0,60.0,14.0,0.0
9444,48.0,1.0,60.0,13.0,0.0
9445,76.0,0.0,30.0,4.0,0.0
9446,55.0,0.0,30.0,7.0,0.0
9447,66.0,30.0,210.0,4.0,0.0
9448,62.0,30.0,60.0,7.0,0.0
9449,38.0,0.0,120.0,14.0,0.0
9450,50.0,30.0,30.0,5.0,0.0
9451,50.0,0.0,120.0,13.0,0.0
9452,81.0,0.0,30.0,6.0,0.0
9453,54.0,0.0,30.0,5.0,0.0
9454,62.0,0.0,60.0,11.0,0.0
9455,66.0,29.0,60.0,12.0,0.0
9456,57.0,30.0,30.0,5.0,0.0
9457,79.0,0.0,30.0,6.0,0.0
9458,69.0,0.0,60.0,10.0,0.0
9459,62.0,1.0,30.0,5.0,0.0
9460,78.0,0.0,30.0,6.0,0.0
9461,62.0,0.0,60.0,13.0,0.0
9462,69.0,29.0,60.0,12.0,0.0
9463,74.0,0.0,60.0,10.0,0.0
9464,76.0,0.0,30.0,6.0,0.0
9465,60.0,30.0,30.0,5.0,0.0
9466,66.0,0.0,60.0,11.0,0.0
9467,50.0,0.0,60.0,14.0,0.0
9468,74.0,0.0,30.0,6.0,0.0
9469,59.0,1.0,30.0,5.0,0.0
9470,86.0,0.0,60.0,6.0,0.0
9471,60.0,0.0,120.0,13.0,0.0
9472,48.0,0.0,120.0,14.0,0.0
9473,60.0,0.0,60.0,5.0,0.0
9474,64.0,30.0,30.0,4.0,0.0
9475,57.0,0.0,30.0,7.0,0.0
9476,48.0,0.0,60.0,5.0,0.0
9477,69.0,0.0,60.0,11.0,0.0
9478,74.0,0.0,60.0,10.0,0.0
9479,66.0,0.0,30.0,4.0,0.0
9480,62.0,30.0,30.0,7.0,0.0
9481,66.0,29.0,60.0,12.0,0.0
9482,64.0,1.0,30.0,7.0,0.0
9483,67.0,0.0,30.0,4.0,0.0
9484,47.0,0.0,60.0,5.0,0.0
9485,66.0,0.0,30.0,7.0,0.0
9486,62.0,29.0,60.0,12.0,0.0
9487,47.0,0.0,60.0,14.0,0.0
9488,59.0,0.0,60.0,13.0,0.0
9489,74.0,0.0,60.0,11.0,0.0
9490,69.0,30.0,30.0,4.0,0.0
9491,79.0,0.0,60.0,10.0,0.0
9492,71.0,0.0,30.0,4.0,0.0
9493,67.0,1.0,30.0,7.0,0.0
9494,69.0,30.0,60.0,7.0,0.0
9495,45.0,0.0,120.0,14.0,0.0
9496,57.0,0.0,120.0,13.0,0.0
9497,45.0,0.0,60.0,5.0,0.0
9498,72.0,30.0,30.0,4.0,0.0
9499,76.0,0.0,30.0,4.0,0.0
9500,78.0,1.0,60.0,10.0,0.0
9501,74.0,30.0,30.0,4.0,0.0
9502,69.0,0.0,60.0,11.0,0.0
9503,57.0,0.0,60.0,5.0,0.0
9504,57.0,0.0,60.0,7.0,0.0
9505,60.0,59.0,60.0,12.0,0.0
9506,72.0,0.0,30.0,4.0,0.0
9507,64.0,29.0,60.0,12.0,0.0
9508,55.0,0.0,60.0,5.0,0.0
9509,81.0,30.0,90.0,4.0,0.0
9510,43.0,1.0,60.0,14.0,0.0
9511,72.0,0.0,60.0,11.0,0.0
9512,55.0,0.0,60.0,13.0,0.0
9513,76.0,0.0,60.0,10.0,0.0
9514,42.0,0.0,60.0,14.0,0.0
9515,54.0,0.0,60.0,5.0,0.0
9516,54.0,30.0,60.0,13.0,0.0
9517,79.0,0.0,30.0,4.0,0.0
9518,78.0,30.0,30.0,4.0,0.0
9519,50.0,0.0,30.0,7.0,0.0
9520,69.0,29.0,60.0,12.0,0.0
9521,50.0,0.0,60.0,13.0,0.0
9522,50.0,0.0,60.0,5.0,0.0
9523,74.0,0.0,60.0,10.0,0.0
9524,38.0,0.0,60.0,14.0,0.0
9525,74.0,1.0,60.0,11.0,0.0
9526,52.0,0.0,30.0,7.0,0.0
9527,76.0,0.0,30.0,4.0,0.0
9528,66.0,29.0,60.0,12.0,0.0
9529,74.0,30.0,30.0,4.0,0.0
9530,54.0,0.0,60.0,13.0,0.0
9531,81.0,0.0,60.0,10.0,0.0
9532,42.0,0.0,60.0,14.0,0.0
9533,54.0,0.0,30.0,7.0,0.0
9534,54.0,0.0,60.0,5.0,0.0
9535,69.0,0.0,60.0,11.0,0.0
9536,50.0,0.0,30.0,7.0,0.0
9537,72.0,1.0,30.0,4.0,0.0
9538,71.0,0.0,30.0,4.0,0.0
9539,74.0,30.0,210.0,6.0,0.0
9540,43.0,0.0,120.0,14.0,0.0
9541,55.0,30.0,30.0,7.0,0.0
9542,55.0,0.0,120.0,13.0,0.0
9543,55.0,0.0,120.0,5.0,0.0
9544,54.0,30.0,30.0,7.0,0.0
9545,74.0,0.0,30.0,4.0,0.0
9546,74.0,0.0,60.0,11.0,0.0
9547,62.0,29.0,60.0,12.0,0.0
9548,79.0,0.0,60.0,10.0,0.0
9549,55.0,30.0,30.0,7.0,0.0
9550,72.0,0.0,30.0,4.0,0.0
9551,50.0,0.0,30.0,7.0,0.0
9552,71.0,1.0,30.0,4.0,0.0
9553,69.0,29.0,60.0,12.0,0.0
9554,78.0,0.0,60.0,10.0,0.0
9555,57.0,1.0,60.0,13.0,0.0
9556,57.0,0.0,30.0,7.0,0.0
9557,69.0,30.0,30.0,4.0,0.0
9558,45.0,0.0,60.0,14.0,0.0
9559,72.0,0.0,60.0,11.0,0.0
9560,67.0,0.0,30.0,4.0,0.0
9561,50.0,0.0,30.0,7.0,0.0
9562,47.0,0.0,120.0,14.0,0.0
9563,79.0,0.0,60.0,4.0,0.0
9564,59.0,0.0,60.0,7.0,0.0
9565,59.0,0.0,120.0,13.0,0.0
9566,60.0,0.0,30.0,5.0,0.0
9567,76.0,30.0,30.0,6.0,0.0
9568,74.0,0.0,60.0,11.0,0.0
9569,79.0,1.0,60.0,10.0,0.0
9570,67.0,29.0,60.0,12.0,0.0
9571,59.0,30.0,30.0,5.0,0.0
9572,47.0,0.0,60.0,7.0,0.0
9573,74.0,0.0,30.0,6.0,0.0
9574,72.0,0.0,30.0,6.0,0.0
9575,57.0,0.0,30.0,5.0,0.0
9576,59.0,30.0,30.0,5.0,0.0
9577,76.0,0.0,60.0,10.0,0.0
9578,67.0,29.0,60.0,12.0,0.0
9579,74.0,0.0,30.0,6.0,0.0
9580,48.0,1.0,60.0,14.0,0.0
9581,60.0,0.0,60.0,13.0,0.0
9582,72.0,0.0,60.0,11.0,0.0
9583,48.0,0.0,60.0,7.0,0.0
9584,55.0,0.0,30.0,5.0,0.0
9585,76.0,0.0,30.0,6.0,0.0
9586,38.0,1.0,120.0,14.0,0.0
9587,50.0,30.0,30.0,7.0,0.0
9588,66.0,30.0,210.0,6.0,0.0
9589,62.0,0.0,60.0,5.0,0.0
9590,50.0,0.0,120.0,13.0,0.0
9591,81.0,0.0,30.0,4.0,0.0
9592,54.0,30.0,30.0,7.0,0.0
9593,62.0,29.0,60.0,12.0,0.0
9594,69.0,0.0,60.0,11.0,0.0
9595,79.0,0.0,30.0,4.0,0.0
9596,57.0,30.0,30.0,7.0,0.0
9597,74.0,0.0,60.0,10.0,0.0
9598,78.0,0.0,30.0,4.0,0.0
9599,62.0,0.0,30.0,7.0,0.0
9600,62.0,0.0,60.0,13.0,0.0
9601,50.0,0.0,60.0,14.0,0.0
9602,78.0,0.0,60.0,10.0,0.0
9603,72.0,0.0,60.0,11.0,0.0
9604,69.0,29.0,60.0,12.0,0.0
9605,76.0,30.0,30.0,4.0,0.0
9606,60.0,0.0,30.0,7.0,0.0
9607,59.0,1.0,30.0,7.0,0.0
9608,74.0,0.0,30.0,4.0,0.0
9609,48.0,0.0,120.0,14.0,0.0
9610,60.0,30.0,60.0,7.0,0.0
9611,60.0,0.0,120.0,13.0,0.0
9612,86.0,0.0,60.0,4.0,0.0
9613,64.0,0.0,30.0,6.0,0.0
9614,57.0,0.0,30.0,5.0,0.0
9615,74.0,29.0,60.0,12.0,0.0
9616,74.0,1.0,60.0,11.0,0.0
9617,81.0,0.0,60.0,10.0,0.0
9618,62.0,0.0,30.0,5.0,0.0
9619,48.0,0.0,60.0,7.0,0.0
9620,66.0,30.0,30.0,6.0,0.0
9621,64.0,0.0,30.0,5.0,0.0
9622,67.0,0.0,30.0,6.0,0.0
9623,62.0,29.0,60.0,12.0,0.0
9624,69.0,30.0,30.0,6.0,0.0
9625,59.0,0.0,60.0,13.0,0.0
9626,67.0,0.0,60.0,11.0,0.0
9627,86.0,1.0,60.0,10.0,0.0
9628,66.0,0.0,30.0,5.0,0.0
9629,47.0,0.0,60.0,14.0,0.0
9630,47.0,0.0,60.0,7.0,0.0
9631,67.0,0.0,30.0,5.0,0.0
9632,71.0,0.0,30.0,6.0,0.0
9633,45.0,0.0,120.0,14.0,0.0
9634,72.0,30.0,30.0,6.0,0.0
9635,45.0,0.0,60.0,7.0,0.0
9636,57.0,0.0,120.0,13.0,0.0
9637,69.0,30.0,60.0,5.0,0.0
9638,76.0,0.0,30.0,6.0,0.0
9639,57.0,0.0,60.0,5.0,0.0
9640,74.0,30.0,30.0,6.0,0.0
9641,69.0,0.0,60.0,11.0,0.0
9642,72.0,59.0,60.0,12.0,0.0
9643,76.0,0.0,60.0,10.0,0.0
9644,57.0,1.0,60.0,7.0,0.0
9645,69.0,0.0,60.0,4.0,0.0
9646,72.0,0.0,30.0,6.0,0.0
9647,43.0,0.0,60.0,14.0,0.0
9648,76.0,0.0,60.0,11.0,0.0
9649,69.0,29.0,60.0,12.0,0.0
9650,72.0,0.0,60.0,4.0,0.0
9651,72.0,0.0,60.0,10.0,0.0
9652,55.0,0.0,60.0,13.0,0.0
9653,55.0,1.0,60.0,7.0,0.0
9654,81.0,30.0,90.0,6.0,0.0
9655,54.0,0.0,60.0,7.0,0.0
9656,42.0,0.0,60.0,14.0,0.0
9657,54.0,0.0,60.0,13.0,0.0
9658,76.0,30.0,60.0,4.0,0.0
9659,79.0,0.0,30.0,6.0,0.0
9660,69.0,0.0,60.0,10.0,0.0
9661,69.0,29.0,60.0,12.0,0.0
9662,50.0,0.0,60.0,7.0,0.0
9663,81.0,30.0,150.0,4.0,0.0
9664,38.0,0.0,60.0,14.0,0.0
9665,78.0,30.0,30.0,6.0,0.0
9666,74.0,0.0,60.0,11.0,0.0
9667,50.0,0.0,60.0,13.0,0.0
9668,50.0,0.0,30.0,5.0,0.0
9669,76.0,0.0,30.0,6.0,0.0
9670,52.0,1.0,30.0,5.0,0.0
9671,54.0,0.0,30.0,5.0,0.0
9672,54.0,1.0,60.0,7.0,0.0
9673,42.0,0.0,60.0,14.0,0.0
9674,66.0,29.0,60.0,12.0,0.0
9675,74.0,30.0,30.0,6.0,0.0
9676,81.0,0.0,60.0,11.0,0.0
9677,54.0,0.0,60.0,13.0,0.0
9678,74.0,0.0,60.0,10.0,0.0
9679,50.0,0.0,30.0,5.0,0.0
9680,72.0,0.0,30.0,6.0,0.0
9681,71.0,30.0,210.0,6.0,0.0
9682,55.0,0.0,120.0,13.0,0.0
9683,55.0,30.0,60.0,7.0,0.0
9684,55.0,0.0,60.0,5.0,0.0
9685,43.0,0.0,120.0,14.0,0.0
9686,83.0,0.0,30.0,4.0,0.0
9687,62.0,29.0,60.0,12.0,0.0
9688,74.0,0.0,60.0,10.0,0.0
9689,83.0,0.0,60.0,11.0,0.0
9690,43.0,0.0,60.0,7.0,0.0
9691,81.0,30.0,30.0,4.0,0.0
9692,67.0,1.0,60.0,5.0,0.0
9693,79.0,0.0,30.0,4.0,0.0
9694,42.0,1.0,60.0,7.0,0.0
9695,66.0,29.0,60.0,12.0,0.0
9696,42.0,0.0,60.0,14.0,0.0
9697,81.0,0.0,60.0,11.0,0.0
9698,62.0,0.0,60.0,10.0,0.0
9699,81.0,30.0,30.0,4.0,0.0
9700,66.0,0.0,60.0,5.0,0.0
9701,54.0,0.0,60.0,13.0,0.0
9702,83.0,0.0,30.0,4.0,0.0
9703,40.0,0.0,120.0,14.0,0.0
9704,79.0,30.0,210.0,4.0,0.0
9705,40.0,0.0,60.0,7.0,0.0
9706,52.0,0.0,120.0,13.0,0.0
9707,64.0,0.0,60.0,5.0,0.0
9708,72.0,30.0,30.0,6.0,0.0
9709,64.0,1.0,60.0,7.0,0.0
9710,67.0,29.0,60.0,12.0,0.0
9711,52.0,0.0,60.0,5.0,0.0
9712,79.0,0.0,60.0,11.0,0.0
9713,67.0,0.0,60.0,10.0,0.0
9714,71.0,30.0,30.0,6.0,0.0
9715,69.0,0.0,30.0,6.0,0.0
9716,71.0,30.0,30.0,6.0,0.0
9717,38.0,0.0,60.0,14.0,0.0
9718,71.0,0.0,60.0,10.0,0.0
9719,78.0,1.0,60.0,11.0,0.0
9720,74.0,29.0,60.0,12.0,0.0
9721,50.0,0.0,60.0,13.0,0.0
9722,62.0,0.0,60.0,7.0,0.0
9723,50.0,0.0,60.0,5.0,0.0
9724,72.0,0.0,30.0,6.0,0.0
9725,69.0,30.0,210.0,6.0,0.0
9726,36.0,0.0,120.0,14.0,0.0
9727,48.0,0.0,60.0,5.0,0.0
9728,48.0,0.0,120.0,13.0,0.0
9729,60.0,0.0,60.0,7.0,0.0
9730,81.0,30.0,30.0,4.0,0.0
9731,79.0,30.0,30.0,4.0,0.0
9732,69.0,29.0,60.0,12.0,0.0
9733,48.0,0.0,60.0,7.0,0.0
9734,60.0,0.0,60.0,5.0,0.0
9735,76.0,0.0,60.0,10.0,0.0
9736,76.0,0.0,60.0,11.0,0.0
9737,78.0,1.0,30.0,4.0,0.0
9738,60.0,0.0,60.0,7.0,0.0
9739,69.0,0.0,60.0,10.0,0.0
9740,72.0,0.0,60.0,11.0,0.0
9741,79.0,30.0,30.0,4.0,0.0
9742,48.0,1.0,60.0,5.0,0.0
9743,60.0,0.0,60.0,13.0,0.0
9744,76.0,29.0,60.0,12.0,0.0
9745,48.0,0.0,60.0,14.0,0.0
9746,81.0,0.0,30.0,4.0,0.0
9747,50.0,0.0,120.0,14.0,0.0
9748,62.0,0.0,60.0,7.0,0.0
9749,62.0,0.0,120.0,13.0,0.0
9750,71.0,30.0,210.0,4.0,0.0
9751,50.0,30.0,60.0,5.0,0.0
9752,71.0,0.0,30.0,6.0,0.0
9753,62.0,1.0,60.0,5.0,0.0
9754,71.0,0.0,60.0,11.0,0.0
9755,69.0,30.0,30.0,6.0,0.0
9756,50.0,0.0,60.0,7.0,0.0
9757,62.0,29.0,60.0,12.0,0.0
9758,78.0,0.0,60.0,10.0,0.0
9759,67.0,0.0,30.0,6.0,0.0
9760,50.0,0.0,60.0,5.0,0.0
9761,69.0,0.0,60.0,11.0,0.0
9762,74.0,0.0,60.0,10.0,0.0
9763,66.0,29.0,60.0,12.0,0.0
9764,62.0,0.0,60.0,7.0,0.0
9765,38.0,0.0,60.0,14.0,0.0
9766,50.0,1.0,60.0,13.0,0.0
9767,69.0,30.0,30.0,6.0,0.0
9768,71.0,0.0,30.0,6.0,0.0
9769,40.0,0.0,120.0,14.0,0.0
9770,64.0,0.0,60.0,7.0,0.0
9771,72.0,0.0,30.0,6.0,0.0
9772,52.0,0.0,120.0,13.0,0.0
9773,52.0,0.0,60.0,5.0,0.0
9774,72.0,30.0,30.0,4.0,0.0
9775,76.0,0.0,30.0,6.0,0.0
9776,71.0,30.0,30.0,4.0,0.0
9777,52.0,0.0,60.0,7.0,0.0
9778,67.0,1.0,60.0,11.0,0.0
9779,74.0,0.0,30.0,6.0,0.0
9780,64.0,0.0,60.0,5.0,0.0
9781,64.0,29.0,60.0,12.0,0.0
9782,79.0,0.0,60.0,10.0,0.0
9783,69.0,0.0,30.0,4.0,0.0
9784,72.0,0.0,30.0,6.0,0.0
9785,60.0,29.0,60.0,12.0,0.0
9786,79.0,0.0,60.0,11.0,0.0
9787,52.0,0.0,60.0,14.0,0.0
9788,64.0,1.0,60.0,7.0,0.0
9789,71.0,0.0,30.0,4.0,0.0
9790,67.0,0.0,60.0,10.0,0.0
9791,52.0,0.0,60.0,5.0,0.0
9792,64.0,0.0,60.0,13.0,0.0
9793,74.0,30.0,30.0,6.0,0.0
9794,72.0,0.0,30.0,4.0,0.0
9795,76.0,0.0,30.0,6.0,0.0
9796,50.0,0.0,60.0,5.0,0.0
9797,50.0,0.0,120.0,14.0,0.0
9798,67.0,30.0,210.0,6.0,0.0
9799,62.0,30.0,60.0,7.0,0.0
9800,74.0,30.0,30.0,4.0,0.0
9801,62.0,0.0,120.0,13.0,0.0
9802,76.0,0.0,30.0,4.0,0.0
9803,50.0,0.0,60.0,7.0,0.0
9804,62.0,0.0,60.0,11.0,0.0
9805,71.0,1.0,60.0,10.0,0.0
9806,67.0,29.0,60.0,12.0,0.0
9807,74.0,30.0,30.0,4.0,0.0
9808,62.0,0.0,60.0,5.0,0.0
9809,72.0,0.0,30.0,4.0,0.0
9810,48.0,0.0,60.0,7.0,0.0
9811,74.0,30.0,30.0,4.0,0.0
9812,60.0,0.0,60.0,13.0,0.0
9813,69.0,0.0,60.0,11.0,0.0
9814,69.0,0.0,60.0,10.0,0.0
9815,48.0,0.0,60.0,14.0,0.0
9816,60.0,1.0,60.0,5.0,0.0
9817,64.0,29.0,60.0,12.0,0.0
9818,76.0,0.0,30.0,4.0,0.0
9819,62.0,0.0,120.0,13.0,0.0
9820,50.0,0.0,120.0,14.0,0.0
9821,50.0,30.0,60.0,7.0,0.0
9822,62.0,0.0,60.0,5.0,0.0
9823,71.0,1.0,180.0,4.0,0.0
9824,69.0,0.0,30.0,6.0,0.0
9825,71.0,0.0,60.0,10.0,0.0
9826,67.0,29.0,60.0,12.0,0.0
9827,62.0,1.0,60.0,11.0,0.0
9828,62.0,0.0,60.0,7.0,0.0
9829,50.0,0.0,60.0,5.0,0.0
9830,67.0,30.0,30.0,6.0,0.0
9831,66.0,0.0,30.0,6.0,0.0
9832,48.0,0.0,60.0,5.0,0.0
9833,64.0,59.0,60.0,12.0,0.0
9834,67.0,0.0,60.0,11.0,0.0
9835,76.0,0.0,60.0,10.0,0.0
9836,60.0,0.0,60.0,7.0,0.0
9837,67.0,30.0,30.0,6.0,0.0
9838,48.0,0.0,60.0,14.0,0.0
9839,60.0,0.0,60.0,13.0,0.0
9840,69.0,0.0,30.0,6.0,0.0
9841,62.0,0.0,120.0,13.0,0.0
9842,66.0,0.0,120.0,6.0,0.0
9843,69.0,0.0,120.0,4.0,0.0
9844,62.0,0.0,60.0,7.0,0.0
9845,50.0,60.0,60.0,5.0,0.0
9846,50.0,0.0,120.0,14.0,0.0
9847,62.0,0.0,60.0,5.0,0.0
9848,50.0,0.0,60.0,7.0,0.0
9849,66.0,1.0,60.0,11.0,0.0
9850,74.0,0.0,60.0,10.0,0.0
9851,57.0,59.0,60.0,12.0,0.0
9852,62.0,29.0,60.0,12.0,0.0
9853,38.0,0.0,60.0,14.0,0.0
9854,67.0,0.0,60.0,6.0,0.0
9855,72.0,1.0,60.0,10.0,0.0
9856,62.0,0.0,60.0,7.0,0.0
9857,50.0,0.0,60.0,13.0,0.0
9858,67.0,0.0,60.0,4.0,0.0
9859,50.0,0.0,60.0,5.0,0.0
9860,69.0,0.0,60.0,11.0,0.0
9861,55.0,30.0,30.0,5.0,0.0
9862,55.0,30.0,60.0,7.0,0.0
9863,67.0,30.0,210.0,4.0,0.0
9864,43.0,1.0,120.0,14.0,0.0
9865,55.0,0.0,120.0,13.0,0.0
9866,67.0,29.0,1110.0,6.0,0.0
9867,57.0,0.0,30.0,5.0,0.0
9868,43.0,0.0,60.0,7.0,0.0
9869,67.0,0.0,60.0,11.0,0.0
9870,55.0,30.0,30.0,5.0,0.0
9871,71.0,0.0,60.0,10.0,0.0
9872,62.0,29.0,60.0,12.0,0.0
9873,54.0,0.0,30.0,5.0,0.0
9874,67.0,1.0,60.0,10.0,0.0
9875,62.0,0.0,60.0,11.0,0.0
9876,55.0,30.0,30.0,5.0,0.0
9877,31.0,0.0,60.0,14.0,0.0
9878,55.0,0.0,60.0,7.0,0.0
9879,43.0,0.0,60.0,13.0,0.0
9880,59.0,29.0,60.0,12.0,0.0
9881,59.0,0.0,30.0,5.0,0.0
9882,57.0,0.0,30.0,5.0,0.0
9883,45.0,0.0,120.0,13.0,0.0
9884,33.0,0.0,120.0,14.0,0.0
9885,57.0,30.0,60.0,7.0,0.0
9886,60.0,0.0,30.0,5.0,0.0
9887,81.0,0.0,30.0,4.0,0.0
9888,45.0,0.0,60.0,7.0,0.0
9889,64.0,29.0,60.0,12.0,0.0
9890,59.0,0.0,30.0,5.0,0.0
9891,79.0,30.0,30.0,4.0,0.0
9892,69.0,0.0,60.0,11.0,0.0
9893,72.0,0.0,60.0,10.0,0.0
9894,78.0,0.0,30.0,4.0,0.0
9895,57.0,1.0,30.0,5.0,0.0
9896,79.0,30.0,30.0,4.0,0.0
9897,47.0,0.0,60.0,13.0,0.0
9898,67.0,0.0,60.0,11.0,0.0
9899,59.0,0.0,30.0,5.0,0.0
9900,35.0,0.0,60.0,14.0,0.0
9901,47.0,0.0,60.0,7.0,0.0
9902,62.0,29.0,60.0,12.0,0.0
9903,74.0,1.0,60.0,10.0,0.0
9904,62.0,0.0,30.0,5.0,0.0
9905,83.0,0.0,30.0,4.0,0.0
9906,60.0,0.0,60.0,5.0,0.0
9907,36.0,0.0,120.0,14.0,0.0
9908,48.0,30.0,30.0,7.0,0.0
9909,76.0,30.0,210.0,4.0,0.0
9910,48.0,0.0,120.0,13.0,0.0
9911,62.0,30.0,30.0,7.0,0.0
9912,76.0,1.0,60.0,10.0,0.0
9913,48.0,0.0,60.0,5.0,0.0
9914,67.0,0.0,60.0,11.0,0.0
9915,60.0,30.0,30.0,7.0,0.0
9916,60.0,29.0,60.0,12.0,0.0
9917,59.0,0.0,30.0,7.0,0.0
9918,47.0,0.0,60.0,5.0,0.0
9919,47.0,0.0,60.0,13.0,0.0
9920,60.0,30.0,30.0,7.0,0.0
9921,35.0,0.0,60.0,14.0,0.0
9922,64.0,29.0,60.0,12.0,0.0
9923,79.0,0.0,60.0,10.0,0.0
9924,72.0,1.0,60.0,11.0,0.0
9925,64.0,0.0,30.0,7.0,0.0
9926,48.0,30.0,60.0,5.0,0.0
9927,48.0,0.0,120.0,13.0,0.0
9928,55.0,0.0,30.0,7.0,0.0
9929,36.0,0.0,120.0,14.0,0.0
9930,78.0,0.0,30.0,4.0,0.0
9931,57.0,0.0,30.0,7.0,0.0
9932,55.0,0.0,30.0,7.0,0.0
9933,67.0,29.0,60.0,12.0,0.0
9934,76.0,0.0,60.0,11.0,0.0
9935,84.0,1.0,60.0,10.0,0.0
9936,76.0,30.0,30.0,4.0,0.0
9937,60.0,0.0,60.0,5.0,0.0
9938,54.0,0.0,30.0,7.0,0.0
9939,75.0,0.0,30.0,4.0,0.0
9940,55.0,0.0,30.0,7.0,0.0
9941,38.0,0.0,60.0,14.0,0.0
9942,50.0,0.0,60.0,13.0,0.0
9943,79.0,0.0,60.0,11.0,0.0
9944,71.0,29.0,60.0,12.0,0.0
9945,83.0,0.0,60.0,10.0,0.0
9946,76.0,30.0,30.0,4.0,0.0
9947,55.0,0.0,60.0,5.0,0.0
9948,59.0,0.0,30.0,7.0,0.0
9949,79.0,1.0,30.0,4.0,0.0
9950,52.0,30.0,30.0,5.0,0.0
9951,52.0,0.0,120.0,13.0,0.0
9952,40.0,0.0,120.0,14.0,0.0
9953,72.0,0.0,210.0,4.0,0.0
9954,52.0,0.0,30.0,7.0,0.0
9955,62.0,30.0,30.0,5.0,0.0
9956,53.0,0.0,30.0,7.0,0.0
9957,60.0,30.0,30.0,5.0,0.0
9958,79.0,0.0,60.0,11.0,0.0
9959,84.0,0.0,60.0,10.0,0.0
9960,52.0,0.0,30.0,7.0,0.0
9961,60.0,29.0,60.0,12.0,0.0
9962,50.0,1.0,30.0,7.0,0.0
9963,59.0,0.0,30.0,5.0,0.0
9964,76.0,0.0,60.0,11.0,0.0
9965,48.0,1.0,60.0,13.0,0.0
9966,60.0,0.0,30.0,5.0,0.0
9967,72.0,29.0,60.0,12.0,0.0
9968,52.0,30.0,30.0,7.0,0.0
9969,36.0,0.0,60.0,14.0,0.0
9970,79.0,0.0,60.0,10.0,0.0
9971,48.0,0.0,30.0,7.0,0.0
9972,55.0,0.0,30.0,5.0,0.0
9973,55.0,30.0,30.0,7.0,0.0
9974,43.0,0.0,120.0,14.0,0.0
9975,55.0,0.0,120.0,13.0,0.0
9976,64.0,0.0,30.0,5.0,0.0
9977,74.0,0.0,30.0,4.0,0.0
9978,65.0,30.0,30.0,5.0,0.0
9979,53.0,0.0,30.0,7.0,0.0
9980,55.0,30.0,30.0,7.0,0.0
9981,72.0,0.0,60.0,11.0,0.0
9982,67.0,29.0,60.0,12.0,0.0
9983,76.0,0.0,60.0,10.0,0.0
9984,72.0,0.0,30.0,4.0,0.0
9985,64.0,0.0,30.0,5.0,0.0
9986,59.0,1.0,30.0,7.0,0.0
9987,71.0,0.0,30.0,4.0,0.0
9988,63.0,0.0,30.0,5.0,0.0
9989,64.0,0.0,30.0,5.0,0.0
9990,79.0,0.0,60.0,10.0,0.0
9991,52.0,0.0,30.0,7.0,0.0
9992,72.0,30.0,30.0,4.0,0.0
9993,72.0,30.0,60.0,12.0,0.0
9994,40.0,0.0,60.0,14.0,0.0
9995,52.0,0.0,60.0,13.0,0.0
9996,76.0,1.0,60.0,11.0,0.0
9997,52.0,0.0,30.0,5.0,0.0
9998,55.0,0.0,30.0,7.0,0.0
9999,76.0,0.0,30.0,4.0,0.0
10000,70.0,29.0,180.0,12.0,0.0
10001,76.0,1.0,180.0,11.0,0.0
10002,73.0,0.0,180.0,10.0,0.0
10003,54.0,0.0,120.0,7.0,0.0
10004,54.0,0.0,180.0,13.0,0.0
10005,54.0,0.0,180.0,5.0,0.0
10006,70.0,0.0,180.0,4.0,0.0
10007,42.0,0.0,180.0,14.0,0.0
10008,67.0,30.0,30.0,6.0,0.0
10009,66.0,30.0,30.0,6.0,0.0
10010,64.0,30.0,30.0,6.0,0.0
10011,66.0,30.0,30.0,6.0,0.0
10012,68.0,0.0,30.0,6.0,0.0
10013,70.0,30.0,30.0,6.0,0.0
10014,71.0,0.0,30.0,6.0,0.0
10015,59.0,30.0,30.0,7.0,0.0
10016,61.0,0.0,30.0,7.0,0.0
10017,70.0,30.0,30.0,6.0,0.0
10018,62.0,0.0,30.0,7.0,0.0
10019,68.0,30.0,30.0,6.0,0.0
10020,61.0,0.0,30.0,7.0,0.0
10021,70.0,30.0,30.0,6.0,0.0
10022,71.0,30.0,30.0,6.0,0.0
10023,59.0,0.0,30.0,7.0,0.0
10024,58.0,30.0,30.0,7.0,0.0
10025,73.0,0.0,30.0,6.0,0.0
10026,74.0,30.0,30.0,6.0,0.0
10027,56.0,0.0,30.0,7.0,0.0
10028,58.0,30.0,30.0,7.0,0.0
10029,73.0,0.0,30.0,6.0,0.0
10030,71.0,30.0,30.0,6.0,0.0
10031,59.0,0.0,30.0,7.0,0.0
10032,58.0,0.0,30.0,7.0,0.0
10033,73.0,30.0,30.0,6.0,0.0
10034,56.0,30.0,30.0,7.0,0.0
10035,75.0,0.0,30.0,6.0,0.0
10036,76.0,30.0,30.0,6.0,0.0
10037,42.0,0.0,180.0,13.0,0.0
10038,30.0,359.0,180.0,14.0,0.0
10039,82.0,1.0,180.0,10.0,0.0
10040,66.0,0.0,180.0,7.0,0.0
10041,54.0,0.0,180.0,7.0,0.0
10042,58.0,0.0,180.0,7.0,0.0
10043,73.0,0.0,180.0,5.0,0.0
10044,66.0,0.0,180.0,12.0,0.0
10045,73.0,0.0,180.0,11.0,0.0
10046,78.0,0.0,180.0,10.0,0.0
10047,66.0,0.0,180.0,5.0,0.0
10048,76.0,0.0,180.0,4.0,0.0
10049,82.0,0.0,180.0,4.0,0.0
10050,61.0,0.0,180.0,7.0,0.0
10051,76.0,0.0,180.0,11.0,0.0
10052,78.0,30.0,30.0,6.0,0.0
10053,76.0,30.0,30.0,6.0,0.0
10054,75.0,30.0,30.0,6.0,0.0
10055,76.0,30.0,30.0,6.0,0.0
10056,78.0,0.0,30.0,6.0,0.0
10057,75.0,0.0,360.0,6.0,0.0
10058,78.0,0.0,360.0,10.0,0.0
10059,83.0,0.0,360.0,10.0,0.0
10060,66.0,0.0,360.0,12.0,0.0
10061,47.0,0.0,360.0,13.0,0.0
10062,59.0,0.0,360.0,5.0,0.0
10063,66.0,0.0,360.0,5.0,0.0
10064,71.0,0.0,360.0,5.0,0.0
10065,66.0,0.0,360.0,7.0,0.0
10066,59.0,0.0,360.0,7.0,0.0
10067,75.0,1.0,360.0,11.0,0.0
10068,83.0,0.0,360.0,4.0,0.0
10069,75.0,0.0,360.0,4.0,0.0
10070,71.0,0.0,360.0,11.0,0.0
10071,35.0,959.0,360.0,14.0,0.0
10072,76.0,0.0,60.0,4.0,0.0
10073,76.0,0.0,60.0,6.0,0.0
10074,76.0,60.0,60.0,0.0,0.0
10075,71.0,60.0,60.0,6.0,0.0
10076,71.0,0.0,60.0,4.0,0.0
10077,71.0,0.0,60.0,0.0,0.0
10078,76.0,0.0,60.0,6.0,0.0
10079,76.0,0.0,60.0,4.0,0.0
10080,76.0,60.0,60.0,0.0,0.0
10081,69.0,0.0,60.0,0.0,0.0
10082,69.0,60.0,60.0,6.0,0.0
10083,69.0,0.0,60.0,4.0,0.0
10084,76.0,0.0,60.0,6.0,0.0
10085,76.0,0.0,60.0,0.0,0.0
10086,76.0,30.0,60.0,4.0,0.0
10087,67.0,0.0,30.0,4.0,0.0
10088,67.0,0.0,30.0,0.0,0.0
10089,67.0,30.0,30.0,6.0,0.0
10090,66.0,0.0,30.0,0.0,0.0
10091,66.0,0.0,30.0,4.0,0.0
10092,66.0,30.0,30.0,6.0,0.0
10093,67.0,0.0,30.0,6.0,0.0
10094,67.0,0.0,30.0,0.0,0.0
10095,67.0,30.0,30.0,4.0,0.0
10096,66.0,0.0,30.0,6.0,0.0
10097,66.0,60.0,30.0,0.0,0.0
10098,66.0,0.0,30.0,4.0,0.0
10099,64.0,0.0,60.0,0.0,0.0
10100,64.0,0.0,60.0,4.0,0.0
10101,64.0,60.0,60.0,6.0,0.0
10102,64.0,0.0,60.0,3.0,0.0
10103,64.0,0.0,60.0,5.0,0.0
10104,71.0,30.0,60.0,2.0,0.0
10105,76.0,0.0,60.0,1.0,0.0
10106,79.0,0.0,60.0,4.0,0.0
10107,79.0,0.0,60.0,0.0,0.0
10108,79.0,0.0,60.0,6.0,0.0
10109,64.0,0.0,60.0,7.0,0.0
10110,62.0,30.0,30.0,7.0,0.0
10111,78.0,0.0,60.0,1.0,0.0
10112,78.0,30.0,60.0,6.0,0.0
10113,62.0,0.0,30.0,3.0,0.0
10114,78.0,0.0,60.0,4.0,0.0
10115,62.0,0.0,30.0,5.0,0.0
10116,78.0,0.0,60.0,0.0,0.0
10117,59.0,0.0,60.0,2.0,0.0
10118,64.0,0.0,30.0,3.0,0.0
10119,64.0,0.0,30.0,5.0,0.0
10120,64.0,0.0,30.0,7.0,0.0
10121,62.0,0.0,30.0,3.0,0.0
10122,62.0,0.0,30.0,5.0,0.0
10123,83.0,0.0,120.0,4.0,0.0
10124,59.0,0.0,60.0,2.0,0.0
10125,62.0,30.0,30.0,7.0,0.0
10126,66.0,0.0,60.0,1.0,0.0
10127,83.0,0.0,120.0,0.0,0.0
10128,83.0,0.0,120.0,6.0,0.0
10129,64.0,30.0,30.0,7.0,0.0
10130,64.0,0.0,30.0,5.0,0.0
10131,64.0,0.0,30.0,3.0,0.0
10132,60.0,0.0,30.0,7.0,0.0
10133,60.0,30.0,30.0,5.0,0.0
10134,64.0,0.0,60.0,2.0,0.0
10135,60.0,0.0,30.0,3.0,0.0
10136,67.0,0.0,60.0,1.0,0.0
10137,62.0,30.0,30.0,5.0,0.0
10138,62.0,0.0,30.0,7.0,0.0
10139,62.0,0.0,30.0,3.0,0.0
10140,60.0,30.0,30.0,7.0,0.0
10141,76.0,30.0,60.0,6.0,0.0
10142,64.0,0.0,60.0,2.0,0.0
10143,76.0,0.0,60.0,4.0,0.0
10144,60.0,0.0,30.0,3.0,0.0
10145,76.0,0.0,60.0,0.0,0.0
10146,60.0,0.0,30.0,5.0,0.0
10147,69.0,0.0,60.0,1.0,0.0
10148,62.0,0.0,30.0,5.0,0.0
10149,62.0,0.0,30.0,7.0,0.0
10150,62.0,0.0,30.0,3.0,0.0
10151,66.0,0.0,60.0,2.0,0.0
10152,71.0,30.0,30.0,1.0,0.0
10153,75.0,0.0,30.0,4.0,0.0
10154,59.0,0.0,60.0,7.0,0.0
10155,59.0,0.0,60.0,3.0,0.0
10156,75.0,0.0,30.0,0.0,0.0
10157,59.0,30.0,60.0,5.0,0.0
10158,75.0,0.0,30.0,6.0,0.0
10159,73.0,0.0,30.0,6.0,0.0
10160,73.0,0.0,30.0,0.0,0.0
10161,73.0,0.0,30.0,1.0,0.0
10162,73.0,0.0,30.0,4.0,0.0
10163,54.0,0.0,60.0,7.0,0.0
10164,75.0,0.0,30.0,6.0,0.0
10165,54.0,0.0,60.0,5.0,0.0
10166,75.0,0.0,30.0,4.0,0.0
10167,66.0,0.0,60.0,2.0,0.0
10168,75.0,0.0,30.0,0.0,0.0
10169,71.0,30.0,30.0,1.0,0.0
10170,54.0,0.0,60.0,3.0,0.0
10171,73.0,30.0,30.0,0.0,0.0
10172,73.0,0.0,30.0,4.0,0.0
10173,73.0,0.0,30.0,1.0,0.0
10174,73.0,0.0,30.0,6.0,0.0
10175,71.0,0.0,30.0,0.0,0.0
10176,71.0,0.0,30.0,4.0,0.0
10177,47.0,0.0,60.0,7.0,0.0
10178,66.0,0.0,60.0,2.0,0.0
10179,47.0,0.0,60.0,3.0,0.0
10180,75.0,30.0,30.0,1.0,0.0
10181,71.0,0.0,30.0,6.0,0.0
10182,47.0,0.0,60.0,5.0,0.0
10183,73.0,0.0,30.0,6.0,0.0
10184,73.0,0.0,30.0,4.0,0.0
10185,73.0,0.0,30.0,0.0,0.0
10186,76.0,30.0,30.0,1.0,0.0
10187,78.0,0.0,30.0,1.0,0.0
10188,75.0,30.0,30.0,6.0,0.0
10189,57.0,0.0,60.0,3.0,0.0
10190,75.0,0.0,30.0,0.0,0.0
10191,57.0,30.0,60.0,5.0,0.0
10192,75.0,0.0,30.0,4.0,0.0
10193,57.0,0.0,60.0,7.0,0.0
10194,66.0,0.0,60.0,2.0,0.0
10195,75.0,0.0,30.0,1.0,0.0
10196,71.0,0.0,30.0,4.0,0.0
10197,71.0,0.0,30.0,6.0,0.0
10198,71.0,0.0,30.0,0.0,0.0
10199,67.0,0.0,60.0,2.0,0.0
10200,76.0,0.0,60.0,0.0,0.0
10201,55.0,0.0,30.0,7.0,0.0
10202,55.0,0.0,30.0,5.0,0.0
10203,55.0,30.0,30.0,3.0,0.0
10204,76.0,0.0,60.0,4.0,0.0
10205,76.0,0.0,60.0,6.0,0.0
10206,71.0,30.0,60.0,1.0,0.0
10207,57.0,0.0,30.0,5.0,0.0
10208,57.0,0.0,30.0,7.0,0.0
10209,57.0,0.0,30.0,3.0,0.0
10210,55.0,0.0,30.0,3.0,0.0
10211,71.0,0.0,60.0,4.0,0.0
10212,67.0,0.0,60.0,2.0,0.0
10213,76.0,30.0,120.0,1.0,0.0
10214,55.0,0.0,30.0,5.0,0.0
10215,71.0,0.0,60.0,0.0,0.0
10216,71.0,30.0,60.0,6.0,0.0
10217,55.0,30.0,30.0,7.0,0.0
10218,57.0,0.0,30.0,3.0,0.0
10219,57.0,0.0,30.0,7.0,0.0
10220,57.0,0.0,30.0,5.0,0.0
10221,54.0,30.0,30.0,7.0,0.0
10222,54.0,0.0,30.0,3.0,0.0
10223,69.0,0.0,60.0,2.0,0.0
10224,78.0,0.0,60.0,4.0,0.0
10225,78.0,0.0,60.0,6.0,0.0
10226,54.0,0.0,30.0,5.0,0.0
10227,78.0,0.0,60.0,0.0,0.0
10228,55.0,0.0,30.0,5.0,0.0
10229,55.0,0.0,30.0,3.0,0.0
10230,55.0,0.0,30.0,7.0,0.0
10231,54.0,30.0,30.0,7.0,0.0
10232,75.0,0.0,60.0,1.0,0.0
10233,71.0,0.0,60.0,6.0,0.0
10234,54.0,0.0,30.0,3.0,0.0
10235,54.0,0.0,30.0,5.0,0.0
10236,71.0,30.0,60.0,4.0,0.0
10237,71.0,0.0,60.0,0.0,0.0
10238,69.0,0.0,60.0,2.0,0.0
10239,55.0,0.0,30.0,7.0,0.0
10240,55.0,0.0,30.0,3.0,0.0
10241,55.0,0.0,30.0,5.0,0.0
10242,52.0,0.0,30.0,5.0,0.0
10243,52.0,30.0,30.0,7.0,0.0
10244,76.0,0.0,120.0,4.0,0.0
10245,81.0,30.0,60.0,6.0,0.0
10246,76.0,0.0,60.0,1.0,0.0
10247,81.0,0.0,60.0,0.0,0.0
10248,81.0,0.0,60.0,4.0,0.0
10249,71.0,30.0,180.0,2.0,0.0
10250,71.0,29.0,120.0,4.0,0.0
10251,52.0,0.0,30.0,3.0,0.0
10252,54.0,0.0,30.0,3.0,0.0
10253,54.0,0.0,30.0,7.0,0.0
10254,54.0,0.0,30.0,5.0,0.0
10255,79.0,0.0,90.0,4.0,0.0
10256,52.0,0.0,30.0,7.0,0.0
10257,52.0,0.0,30.0,3.0,0.0
10258,71.0,1.0,60.0,1.0,0.0
10259,52.0,30.0,30.0,5.0,0.0
10260,79.0,30.0,90.0,0.0,0.0
10261,79.0,0.0,90.0,6.0,0.0
10262,54.0,0.0,30.0,5.0,0.0
10263,54.0,0.0,30.0,7.0,0.0
10264,54.0,0.0,30.0,3.0,0.0
10265,50.0,0.0,30.0,5.0,0.0
10266,50.0,0.0,30.0,3.0,0.0
10267,50.0,0.0,30.0,7.0,0.0
10268,76.0,0.0,60.0,1.0,0.0
10269,76.0,0.0,30.0,0.0,0.0
10270,76.0,0.0,30.0,4.0,0.0
10271,52.0,0.0,30.0,7.0,0.0
10272,52.0,0.0,30.0,3.0,0.0
10273,52.0,0.0,30.0,5.0,0.0
10274,76.0,0.0,30.0,6.0,0.0
10275,78.0,0.0,30.0,6.0,0.0
10276,78.0,0.0,30.0,4.0,0.0
10277,50.0,0.0,30.0,5.0,0.0
10278,50.0,30.0,30.0,3.0,0.0
10279,71.0,30.0,60.0,2.0,0.0
10280,50.0,0.0,30.0,7.0,0.0
10281,78.0,0.0,30.0,0.0,0.0
10282,71.0,0.0,60.0,1.0,0.0
10283,80.0,0.0,30.0,0.0,0.0
10284,80.0,0.0,30.0,6.0,0.0
10285,80.0,0.0,30.0,4.0,0.0
10286,52.0,0.0,30.0,7.0,0.0
10287,52.0,0.0,30.0,5.0,0.0
10288,52.0,0.0,30.0,3.0,0.0
10289,72.0,0.0,60.0,2.0,0.0
10290,48.0,0.0,30.0,7.0,0.0
10291,48.0,30.0,30.0,3.0,0.0
10292,76.0,0.0,60.0,1.0,0.0
10293,48.0,0.0,30.0,5.0,0.0
10294,81.0,0.0,60.0,0.0,0.0
10295,81.0,0.0,60.0,6.0,0.0
10296,81.0,0.0,60.0,4.0,0.0
10297,50.0,0.0,30.0,5.0,0.0
10298,50.0,0.0,30.0,3.0,0.0
10299,50.0,30.0,30.0,7.0,0.0
10300,48.0,30.0,30.0,7.0,0.0
10301,72.0,0.0,60.0,2.0,0.0
10302,76.0,0.0,60.0,4.0,0.0
10303,81.0,0.0,120.0,1.0,0.0
10304,76.0,0.0,60.0,0.0,0.0
10305,48.0,0.0,30.0,3.0,0.0
10306,48.0,0.0,30.0,5.0,0.0
10307,76.0,30.0,60.0,6.0,0.0
10308,50.0,0.0,30.0,3.0,0.0
10309,50.0,0.0,30.0,5.0,0.0
10310,50.0,0.0,30.0,7.0,0.0
10311,74.0,0.0,60.0,2.0,0.0
10312,83.0,0.0,60.0,4.0,0.0
10313,83.0,0.0,60.0,6.0,0.0
10314,83.0,0.0,60.0,0.0,0.0
10315,47.0,0.0,30.0,5.0,0.0
10316,47.0,0.0,30.0,3.0,0.0
10317,47.0,30.0,30.0,7.0,0.0
10318,48.0,0.0,30.0,3.0,0.0
10319,48.0,30.0,30.0,5.0,0.0
10320,48.0,0.0,30.0,7.0,0.0
10321,76.0,0.0,60.0,4.0,0.0
10322,76.0,0.0,60.0,6.0,0.0
10323,76.0,0.0,60.0,0.0,0.0
10324,74.0,0.0,60.0,2.0,0.0
10325,47.0,30.0,30.0,7.0,0.0
10326,80.0,0.0,60.0,1.0,0.0
10327,47.0,0.0,30.0,5.0,0.0
10328,47.0,0.0,30.0,3.0,0.0
10329,48.0,0.0,30.0,7.0,0.0
10330,48.0,30.0,30.0,5.0,0.0
10331,48.0,0.0,30.0,3.0,0.0
10332,45.0,30.0,30.0,5.0,0.0
10333,45.0,0.0,30.0,3.0,0.0
10334,86.0,0.0,60.0,0.0,0.0
10335,76.0,0.0,180.0,2.0,0.0
10336,81.0,0.0,60.0,1.0,0.0
10337,76.0,29.0,120.0,4.0,0.0
10338,45.0,0.0,30.0,7.0,0.0
10339,81.0,0.0,120.0,4.0,0.0
10340,86.0,0.0,60.0,4.0,0.0
10341,86.0,0.0,60.0,6.0,0.0
10342,44.0,0.0,30.0,3.0,0.0
10343,44.0,30.0,30.0,7.0,0.0
10344,44.0,0.0,30.0,5.0,0.0
10345,45.0,0.0,30.0,3.0,0.0
10346,45.0,0.0,30.0,7.0,0.0
10347,45.0,30.0,30.0,5.0,0.0
10348,84.0,0.0,90.0,4.0,0.0
10349,84.0,0.0,90.0,0.0,0.0
10350,84.0,0.0,90.0,6.0,0.0
10351,76.0,0.0,60.0,1.0,0.0
10352,47.0,0.0,30.0,7.0,0.0
10353,47.0,1.0,30.0,3.0,0.0
10354,47.0,0.0,30.0,5.0,0.0
10355,48.0,0.0,30.0,5.0,0.0
10356,48.0,0.0,30.0,3.0,0.0
10357,81.0,0.0,60.0,1.0,0.0
10358,48.0,30.0,30.0,7.0,0.0
10359,83.0,0.0,30.0,6.0,0.0
10360,83.0,0.0,30.0,0.0,0.0
10361,83.0,30.0,30.0,4.0,0.0
10362,50.0,0.0,30.0,7.0,0.0
10363,50.0,0.0,30.0,3.0,0.0
10364,50.0,0.0,30.0,5.0,0.0
10365,84.0,0.0,30.0,4.0,0.0
10366,69.0,30.0,60.0,2.0,0.0
10367,52.0,0.0,30.0,5.0,0.0
10368,52.0,0.0,30.0,7.0,0.0
10369,84.0,0.0,30.0,0.0,0.0
10370,76.0,0.0,60.0,1.0,0.0
10371,84.0,0.0,30.0,6.0,0.0
10372,52.0,30.0,30.0,3.0,0.0
10373,54.0,0.0,30.0,3.0,0.0
10374,54.0,0.0,30.0,5.0,0.0
10375,54.0,0.0,30.0,7.0,0.0
10376,81.0,0.0,30.0,0.0,0.0
10377,81.0,0.0,30.0,6.0,0.0
10378,81.0,0.0,30.0,4.0,0.0
10379,76.0,0.0,30.0,0.0,0.0
10380,56.0,0.0,60.0,7.0,0.0
10381,56.0,0.0,60.0,3.0,0.0
10382,83.0,0.0,60.0,1.0,0.0
10383,71.0,0.0,60.0,2.0,0.0
10384,56.0,0.0,60.0,5.0,0.0
10385,76.0,0.0,30.0,4.0,0.0
10386,76.0,30.0,30.0,6.0,0.0
10387,75.0,30.0,30.0,6.0,0.0
10388,75.0,0.0,30.0,4.0,0.0
10389,75.0,0.0,30.0,0.0,0.0
10390,59.0,0.0,60.0,3.0,0.0
10391,76.0,30.0,30.0,0.0,0.0
10392,76.0,0.0,30.0,4.0,0.0
10393,71.0,0.0,60.0,2.0,0.0
10394,59.0,0.0,60.0,5.0,0.0
10395,76.0,0.0,30.0,6.0,0.0
10396,76.0,0.0,60.0,1.0,0.0
10397,59.0,30.0,60.0,7.0,0.0
10398,78.0,0.0,30.0,0.0,0.0
10399,78.0,0.0,30.0,4.0,0.0
10400,78.0,0.0,30.0,6.0,0.0
10401,83.0,30.0,60.0,1.0,0.0
10402,52.0,0.0,60.0,3.0,0.0
10403,52.0,0.0,60.0,5.0,0.0
10404,80.0,30.0,30.0,6.0,0.0
10405,52.0,0.0,60.0,7.0,0.0
10406,76.0,0.0,60.0,2.0,0.0
10407,80.0,0.0,30.0,4.0,0.0
10408,80.0,0.0,30.0,0.0,0.0
10409,81.0,0.0,30.0,0.0,0.0
10410,81.0,0.0,30.0,6.0,0.0
10411,81.0,0.0,30.0,4.0,0.0
10412,83.0,30.0,30.0,6.0,0.0
10413,56.0,0.0,60.0,7.0,0.0
10414,56.0,0.0,60.0,3.0,0.0
10415,76.0,0.0,60.0,1.0,0.0
10416,56.0,0.0,60.0,5.0,0.0
10417,83.0,0.0,30.0,4.0,0.0
10418,76.0,0.0,60.0,2.0,0.0
10419,83.0,0.0,30.0,0.0,0.0
10420,84.0,30.0,30.0,4.0,0.0
10421,84.0,0.0,30.0,0.0,0.0
10422,84.0,0.0,30.0,6.0,0.0
10423,86.0,0.0,30.0,6.0,0.0
10424,57.0,0.0,60.0,5.0,0.0
10425,86.0,0.0,30.0,0.0,0.0
10426,76.0,0.0,60.0,2.0,0.0
10427,57.0,0.0,60.0,3.0,0.0
10428,57.0,0.0,60.0,7.0,0.0
10429,86.0,30.0,30.0,4.0,0.0
10430,81.0,30.0,60.0,1.0,0.0
10431,83.0,0.0,30.0,4.0,0.0
10432,83.0,0.0,30.0,6.0,0.0
10433,83.0,0.0,30.0,0.0,0.0
10434,45.0,0.0,60.0,7.0,0.0
10435,45.0,0.0,60.0,3.0,0.0
10436,84.0,30.0,30.0,0.0,0.0
10437,72.0,0.0,60.0,2.0,0.0
10438,76.0,0.0,60.0,1.0,0.0
10439,84.0,0.0,30.0,6.0,0.0
10440,84.0,0.0,30.0,4.0,0.0
10441,45.0,30.0,60.0,5.0,0.0
10442,81.0,0.0,30.0,6.0,0.0
10443,81.0,0.0,30.0,0.0,0.0
10444,81.0,0.0,30.0,4.0,0.0
10445,76.0,30.0,30.0,4.0,0.0
10446,81.0,0.0,60.0,1.0,0.0
10447,48.0,30.0,60.0,7.0,0.0
10448,76.0,0.0,30.0,6.0,0.0
10449,76.0,0.0,30.0,0.0,0.0
10450,48.0,0.0,60.0,5.0,0.0
10451,48.0,0.0,60.0,3.0,0.0
10452,69.0,0.0,60.0,2.0,0.0
10453,81.0,0.0,30.0,6.0,0.0
10454,81.0,0.0,30.0,0.0,0.0
10455,81.0,0.0,30.0,4.0,0.0
10456,52.0,0.0,60.0,5.0,0.0
10457,52.0,0.0,60.0,7.0,0.0
10458,84.0,0.0,30.0,4.0,0.0
10459,84.0,30.0,30.0,0.0,0.0
10460,52.0,0.0,60.0,3.0,0.0
10461,84.0,0.0,30.0,6.0,0.0
10462,69.0,30.0,60.0,2.0,0.0
10463,76.0,0.0,60.0,1.0,0.0
10464,81.0,0.0,30.0,4.0,0.0
10465,81.0,0.0,30.0,0.0,0.0
10466,81.0,0.0,30.0,6.0,0.0
10467,56.0,0.0,60.0,5.0,0.0
10468,83.0,0.0,60.0,1.0,0.0
10469,71.0,0.0,60.0,2.0,0.0
10470,56.0,0.0,60.0,3.0,0.0
10471,76.0,0.0,30.0,4.0,0.0
10472,76.0,0.0,30.0,6.0,0.0
10473,56.0,0.0,60.0,7.0,0.0
10474,76.0,30.0,30.0,0.0,0.0
10475,75.0,30.0,30.0,4.0,0.0
10476,75.0,0.0,30.0,0.0,0.0
10477,75.0,0.0,30.0,6.0,0.0
10478,76.0,30.0,30.0,0.0,0.0
10479,59.0,0.0,60.0,5.0,0.0
10480,76.0,0.0,30.0,6.0,0.0
10481,59.0,0.0,60.0,7.0,0.0
10482,59.0,0.0,60.0,3.0,0.0
10483,76.0,0.0,60.0,1.0,0.0
10484,71.0,0.0,60.0,2.0,0.0
10485,76.0,0.0,30.0,4.0,0.0
10486,78.0,0.0,30.0,0.0,0.0
10487,78.0,0.0,30.0,6.0,0.0
10488,78.0,30.0,30.0,4.0,0.0
10489,52.0,0.0,60.0,5.0,0.0
10490,52.0,0.0,60.0,3.0,0.0
10491,80.0,0.0,30.0,6.0,0.0
10492,83.0,0.0,60.0,1.0,0.0
10493,76.0,0.0,60.0,2.0,0.0
10494,52.0,0.0,60.0,7.0,0.0
10495,80.0,0.0,30.0,4.0,0.0
10496,80.0,30.0,30.0,0.0,0.0
10497,81.0,30.0,30.0,0.0,0.0
10498,81.0,0.0,30.0,6.0,0.0
10499,81.0,0.0,30.0,4.0,0.0
10500,76.0,0.0,60.0,1.0,0.0
10501,56.0,0.0,60.0,5.0,0.0
10502,83.0,30.0,30.0,4.0,0.0
10503,56.0,0.0,60.0,3.0,0.0
10504,76.0,30.0,60.0,2.0,0.0
10505,83.0,0.0,30.0,6.0,0.0
10506,83.0,0.0,30.0,0.0,0.0
10507,56.0,0.0,60.0,7.0,0.0
10508,84.0,0.0,30.0,0.0,0.0
10509,84.0,0.0,30.0,4.0,0.0
10510,84.0,0.0,30.0,6.0,0.0
10511,57.0,0.0,60.0,5.0,0.0
10512,86.0,0.0,30.0,0.0,0.0
10513,86.0,30.0,30.0,6.0,0.0
10514,76.0,0.0,60.0,2.0,0.0
10515,81.0,0.0,60.0,1.0,0.0
10516,57.0,0.0,60.0,7.0,0.0
10517,86.0,0.0,30.0,4.0,0.0
10518,57.0,30.0,60.0,3.0,0.0
10519,83.0,0.0,30.0,6.0,0.0
10520,83.0,0.0,30.0,0.0,0.0
10521,83.0,0.0,30.0,4.0,0.0
10522,45.0,0.0,60.0,7.0,0.0
10523,45.0,0.0,60.0,3.0,0.0
10524,45.0,0.0,60.0,5.0,0.0
10525,84.0,30.0,30.0,0.0,0.0
10526,76.0,0.0,60.0,1.0,0.0
10527,84.0,0.0,30.0,4.0,0.0
10528,84.0,0.0,30.0,6.0,0.0
10529,72.0,30.0,60.0,2.0,0.0
10530,81.0,0.0,30.0,6.0,0.0
10531,81.0,0.0,30.0,0.0,0.0
10532,81.0,0.0,30.0,4.0,0.0
10533,76.0,30.0,30.0,0.0,0.0
10534,76.0,0.0,30.0,4.0,0.0
10535,81.0,0.0,60.0,1.0,0.0
10536,69.0,30.0,60.0,2.0,0.0
10537,48.0,0.0,60.0,7.0,0.0
10538,76.0,0.0,30.0,6.0,0.0
10539,48.0,0.0,60.0,5.0,0.0
10540,48.0,0.0,60.0,3.0,0.0
10541,81.0,0.0,30.0,6.0,0.0
10542,81.0,0.0,30.0,0.0,0.0
10543,81.0,0.0,30.0,4.0,0.0
10544,84.0,0.0,30.0,6.0,0.0
10545,52.0,0.0,60.0,3.0,0.0
10546,84.0,0.0,30.0,4.0,0.0
10547,84.0,30.0,30.0,0.0,0.0
10548,76.0,0.0,60.0,1.0,0.0
10549,69.0,0.0,60.0,2.0,0.0
10550,52.0,30.0,60.0,7.0,0.0
10551,52.0,0.0,60.0,5.0,0.0
10552,81.0,0.0,30.0,6.0,0.0
10553,81.0,0.0,30.0,4.0,0.0
10554,81.0,0.0,30.0,0.0,0.0
10555,69.0,0.0,60.0,2.0,0.0
10556,81.0,0.0,60.0,1.0,0.0
10557,54.0,30.0,60.0,7.0,0.0
10558,54.0,0.0,60.0,5.0,0.0
10559,54.0,0.0,60.0,3.0,0.0
10560,74.0,0.0,30.0,6.0,0.0
10561,74.0,0.0,30.0,4.0,0.0
10562,74.0,30.0,30.0,0.0,0.0
10563,73.0,0.0,30.0,6.0,0.0
10564,73.0,0.0,30.0,4.0,0.0
10565,73.0,0.0,30.0,0.0,0.0
10566,57.0,0.0,60.0,5.0,0.0
10567,74.0,0.0,30.0,6.0,0.0
10568,74.0,0.0,60.0,1.0,0.0
10569,69.0,30.0,60.0,2.0,0.0
10570,57.0,0.0,60.0,7.0,0.0
10571,57.0,0.0,60.0,3.0,0.0
10572,74.0,0.0,30.0,4.0,0.0
10573,74.0,30.0,30.0,0.0,0.0
10574,76.0,0.0,30.0,6.0,0.0
10575,76.0,0.0,30.0,4.0,0.0
10576,76.0,0.0,30.0,0.0,0.0
10577,78.0,0.0,30.0,4.0,0.0
10578,78.0,30.0,30.0,6.0,0.0
10579,74.0,0.0,60.0,2.0,0.0
10580,50.0,0.0,60.0,7.0,0.0
10581,50.0,0.0,60.0,3.0,0.0
10582,78.0,0.0,30.0,0.0,0.0
10583,81.0,30.0,60.0,1.0,0.0
10584,50.0,0.0,60.0,5.0,0.0
10585,79.0,0.0,30.0,4.0,0.0
10586,79.0,0.0,30.0,0.0,0.0
10587,79.0,0.0,30.0,6.0,0.0
10588,81.0,0.0,30.0,0.0,0.0
10589,54.0,30.0,60.0,3.0,0.0
10590,54.0,0.0,60.0,7.0,0.0
10591,54.0,0.0,60.0,5.0,0.0
10592,74.0,0.0,60.0,1.0,0.0
10593,81.0,30.0,30.0,6.0,0.0
10594,74.0,0.0,60.0,2.0,0.0
10595,81.0,0.0,30.0,4.0,0.0
10596,83.0,0.0,30.0,0.0,0.0
10597,83.0,0.0,30.0,4.0,0.0
10598,83.0,0.0,30.0,6.0,0.0
10599,55.0,0.0,60.0,7.0,0.0
10600,84.0,30.0,30.0,0.0,0.0
10601,55.0,0.0,60.0,3.0,0.0
10602,79.0,0.0,60.0,1.0,0.0
10603,84.0,0.0,30.0,6.0,0.0
10604,74.0,30.0,60.0,2.0,0.0
10605,55.0,0.0,60.0,5.0,0.0
10606,84.0,0.0,30.0,4.0,0.0
10607,81.0,0.0,30.0,0.0,0.0
10608,81.0,0.0,30.0,6.0,0.0
10609,81.0,0.0,30.0,4.0,0.0
10610,69.0,0.0,60.0,2.0,0.0
10611,74.0,0.0,60.0,1.0,0.0
10612,83.0,30.0,30.0,6.0,0.0
10613,43.0,0.0,60.0,7.0,0.0
10614,83.0,0.0,30.0,4.0,0.0
10615,43.0,0.0,60.0,5.0,0.0
10616,83.0,0.0,30.0,0.0,0.0
10617,43.0,0.0,60.0,3.0,0.0
10618,79.0,30.0,30.0,0.0,0.0
10619,79.0,0.0,30.0,6.0,0.0
10620,79.0,0.0,30.0,4.0,0.0
10621,47.0,0.0,60.0,5.0,0.0
10622,47.0,0.0,60.0,7.0,0.0
10623,47.0,0.0,60.0,3.0,0.0
10624,74.0,0.0,30.0,4.0,0.0
10625,74.0,30.0,30.0,6.0,0.0
10626,74.0,0.0,30.0,0.0,0.0
10627,67.0,0.0,60.0,2.0,0.0
10628,79.0,0.0,60.0,1.0,0.0
10629,79.0,0.0,30.0,6.0,0.0
10630,79.0,30.0,30.0,0.0,0.0
10631,79.0,0.0,30.0,4.0,0.0
10632,83.0,30.0,30.0,4.0,0.0
10633,50.0,30.0,60.0,3.0,0.0
10634,74.0,0.0,60.0,1.0,0.0
10635,50.0,0.0,60.0,7.0,0.0
10636,83.0,0.0,30.0,0.0,0.0
10637,50.0,0.0,60.0,5.0,0.0
10638,83.0,0.0,30.0,6.0,0.0
10639,67.0,0.0,60.0,2.0,0.0
10640,79.0,0.0,30.0,0.0,0.0
10641,79.0,0.0,30.0,6.0,0.0
10642,79.0,0.0,30.0,4.0,0.0
10643,74.0,0.0,30.0,4.0,0.0
10644,54.0,0.0,60.0,5.0,0.0
10645,81.0,0.0,60.0,1.0,0.0
10646,69.0,0.0,60.0,2.0,0.0
10647,74.0,0.0,30.0,0.0,0.0
10648,54.0,0.0,60.0,7.0,0.0
10649,54.0,0.0,60.0,3.0,0.0
10650,74.0,30.0,30.0,6.0,0.0
10651,73.0,30.0,30.0,4.0,0.0
10652,73.0,0.0,30.0,6.0,0.0
10653,73.0,0.0,30.0,0.0,0.0
10654,69.0,0.0,60.0,2.0,0.0
10655,74.0,30.0,30.0,6.0,0.0
10656,74.0,0.0,60.0,1.0,0.0
10657,74.0,0.0,30.0,4.0,0.0
10658,57.0,0.0,60.0,7.0,0.0
10659,57.0,30.0,60.0,5.0,0.0
10660,57.0,0.0,60.0,3.0,0.0
10661,74.0,0.0,30.0,0.0,0.0
10662,76.0,0.0,30.0,0.0,0.0
10663,76.0,0.0,30.0,4.0,0.0
10664,76.0,0.0,30.0,6.0,0.0
10665,78.0,0.0,30.0,0.0,0.0
10666,50.0,0.0,60.0,5.0,0.0
10667,78.0,30.0,30.0,6.0,0.0
10668,81.0,0.0,60.0,1.0,0.0
10669,50.0,0.0,60.0,7.0,0.0
10670,78.0,0.0,30.0,4.0,0.0
10671,74.0,0.0,60.0,2.0,0.0
10672,50.0,30.0,60.0,3.0,0.0
10673,79.0,0.0,30.0,4.0,0.0
10674,79.0,0.0,30.0,6.0,0.0
10675,79.0,0.0,30.0,0.0,0.0
10676,74.0,0.0,60.0,1.0,0.0
10677,81.0,0.0,30.0,0.0,0.0
10678,74.0,0.0,60.0,2.0,0.0
10679,81.0,0.0,30.0,4.0,0.0
10680,54.0,0.0,60.0,7.0,0.0
10681,81.0,30.0,30.0,6.0,0.0
10682,54.0,0.0,60.0,5.0,0.0
10683,54.0,0.0,60.0,3.0,0.0
10684,83.0,30.0,30.0,4.0,0.0
10685,83.0,0.0,30.0,0.0,0.0
10686,83.0,0.0,30.0,6.0,0.0
10687,84.0,0.0,30.0,0.0,0.0
10688,84.0,0.0,30.0,4.0,0.0
10689,79.0,0.0,60.0,1.0,0.0
10690,43.0,0.0,60.0,5.0,0.0
10691,43.0,0.0,60.0,7.0,0.0
10692,84.0,30.0,30.0,6.0,0.0
10693,74.0,30.0,60.0,2.0,0.0
10694,43.0,0.0,60.0,3.0,0.0
10695,81.0,0.0,30.0,4.0,0.0
10696,81.0,0.0,30.0,6.0,0.0
10697,81.0,0.0,30.0,0.0,0.0
10698,83.0,0.0,30.0,6.0,0.0
10699,83.0,0.0,30.0,0.0,0.0
10700,83.0,30.0,30.0,4.0,0.0
10701,74.0,0.0,60.0,1.0,0.0
10702,55.0,30.0,60.0,5.0,0.0
10703,55.0,0.0,60.0,3.0,0.0
10704,55.0,0.0,60.0,7.0,0.0
10705,71.0,0.0,60.0,2.0,0.0
10706,79.0,0.0,30.0,4.0,0.0
10707,79.0,0.0,30.0,6.0,0.0
10708,79.0,0.0,30.0,0.0,0.0
10709,74.0,0.0,30.0,0.0,0.0
10710,74.0,30.0,30.0,4.0,0.0
10711,74.0,0.0,30.0,6.0,0.0
10712,79.0,0.0,60.0,1.0,0.0
10713,59.0,0.0,60.0,7.0,0.0
10714,59.0,0.0,60.0,3.0,0.0
10715,67.0,0.0,60.0,2.0,0.0
10716,59.0,0.0,60.0,5.0,0.0
10717,79.0,0.0,30.0,0.0,0.0
10718,79.0,0.0,30.0,6.0,0.0
10719,79.0,30.0,30.0,4.0,0.0
10720,67.0,0.0,60.0,2.0,0.0
10721,83.0,30.0,30.0,0.0,0.0
10722,55.0,0.0,60.0,5.0,0.0
10723,55.0,30.0,60.0,7.0,0.0
10724,83.0,0.0,30.0,6.0,0.0
10725,55.0,0.0,60.0,3.0,0.0
10726,74.0,0.0,60.0,1.0,0.0
10727,83.0,0.0,30.0,4.0,0.0
10728,79.0,0.0,30.0,6.0,0.0
10729,79.0,0.0,30.0,0.0,0.0
10730,79.0,0.0,30.0,4.0,0.0
10731,81.0,0.0,60.0,4.0,0.0
10732,75.0,0.0,60.0,1.0,0.0
10733,54.0,0.0,60.0,3.0,0.0
10734,54.0,0.0,60.0,7.0,0.0
10735,81.0,0.0,60.0,0.0,0.0
10736,81.0,0.0,60.0,6.0,0.0
10737,72.0,30.0,30.0,2.0,0.0
10738,54.0,0.0,60.0,5.0,0.0
10739,74.0,30.0,30.0,2.0,0.0
10740,60.0,30.0,60.0,3.0,0.0
10741,60.0,0.0,60.0,5.0,0.0
10742,76.0,0.0,120.0,1.0,0.0
10743,60.0,0.0,60.0,7.0,0.0
10744,72.0,30.0,30.0,2.0,0.0
10745,74.0,0.0,30.0,2.0,0.0
10746,81.0,0.0,60.0,4.0,0.0
10747,52.0,0.0,60.0,3.0,0.0
10748,81.0,30.0,60.0,6.0,0.0
10749,52.0,0.0,60.0,5.0,0.0
10750,72.0,30.0,30.0,2.0,0.0
10751,52.0,0.0,60.0,7.0,0.0
10752,81.0,0.0,60.0,0.0,0.0
10753,74.0,0.0,30.0,2.0,0.0
10754,60.0,0.0,60.0,3.0,0.0
10755,72.0,30.0,30.0,2.0,0.0
10756,60.0,0.0,60.0,5.0,0.0
10757,60.0,0.0,60.0,7.0,0.0
10758,78.0,0.0,60.0,1.0,0.0
10759,74.0,30.0,30.0,2.0,0.0
10760,51.0,0.0,30.0,3.0,0.0
10761,81.0,30.0,120.0,6.0,0.0
10762,51.0,0.0,30.0,7.0,0.0
10763,81.0,0.0,120.0,0.0,0.0
10764,71.0,0.0,30.0,2.0,0.0
10765,81.0,0.0,120.0,4.0,0.0
10766,78.0,0.0,120.0,1.0,0.0
10767,51.0,30.0,30.0,5.0,0.0
10768,69.0,30.0,30.0,2.0,0.0
10769,49.0,0.0,30.0,3.0,0.0
10770,49.0,0.0,30.0,7.0,0.0
10771,49.0,0.0,30.0,5.0,0.0
10772,51.0,0.0,30.0,5.0,0.0
10773,51.0,0.0,30.0,7.0,0.0
10774,51.0,0.0,30.0,3.0,0.0
10775,71.0,30.0,30.0,2.0,0.0
10776,49.0,0.0,30.0,7.0,0.0
10777,49.0,0.0,30.0,5.0,0.0
10778,49.0,0.0,30.0,3.0,0.0
10779,69.0,0.0,30.0,2.0,0.0
10780,71.0,30.0,120.0,2.0,0.0
10781,47.0,0.0,30.0,5.0,0.0
10782,47.0,30.0,30.0,7.0,0.0
10783,47.0,0.0,30.0,3.0,0.0
10784,49.0,0.0,30.0,3.0,0.0
10785,76.0,0.0,30.0,1.0,0.0
10786,79.0,0.0,30.0,6.0,0.0
10787,79.0,0.0,30.0,0.0,0.0
10788,49.0,0.0,30.0,7.0,0.0
10789,49.0,0.0,30.0,5.0,0.0
10790,79.0,30.0,30.0,4.0,0.0
10791,78.0,0.0,30.0,0.0,0.0
10792,51.0,0.0,30.0,3.0,0.0
10793,78.0,0.0,30.0,4.0,0.0
10794,51.0,0.0,30.0,5.0,0.0
10795,78.0,0.0,30.0,6.0,0.0
10796,79.0,0.0,30.0,1.0,0.0
10797,51.0,30.0,30.0,7.0,0.0
10798,75.0,0.0,30.0,1.0,0.0
10799,81.0,0.0,30.0,0.0,0.0
10800,81.0,0.0,30.0,4.0,0.0
10801,47.0,0.0,30.0,3.0,0.0
10802,47.0,0.0,30.0,5.0,0.0
10803,81.0,0.0,30.0,6.0,0.0
10804,47.0,0.0,30.0,7.0,0.0
10805,52.0,0.0,60.0,7.0,0.0
10806,52.0,0.0,60.0,5.0,0.0
10807,76.0,30.0,60.0,1.0,0.0
10808,79.0,0.0,30.0,6.0,0.0
10809,79.0,0.0,30.0,0.0,0.0
10810,79.0,30.0,30.0,4.0,0.0
10811,52.0,0.0,60.0,3.0,0.0
10812,78.0,0.0,30.0,6.0,0.0
10813,78.0,0.0,30.0,0.0,0.0
10814,78.0,0.0,30.0,4.0,0.0
10815,72.0,0.0,30.0,2.0,0.0
10816,71.0,30.0,30.0,2.0,0.0
10817,59.0,0.0,60.0,5.0,0.0
10818,59.0,0.0,60.0,7.0,0.0
10819,59.0,30.0,60.0,3.0,0.0
10820,79.0,0.0,90.0,0.0,0.0
10821,79.0,30.0,90.0,4.0,0.0
10822,79.0,0.0,90.0,6.0,0.0
10823,72.0,0.0,30.0,2.0,0.0
10824,50.0,0.0,60.0,3.0,0.0
10825,50.0,0.0,60.0,5.0,0.0
10826,76.0,0.0,60.0,1.0,0.0
10827,50.0,30.0,60.0,7.0,0.0
10828,71.0,0.0,30.0,2.0,0.0
10829,78.0,0.0,30.0,6.0,0.0
10830,72.0,0.0,30.0,2.0,0.0
10831,78.0,0.0,30.0,0.0,0.0
10832,78.0,0.0,30.0,4.0,0.0
10833,79.0,0.0,90.0,0.0,0.0
10834,59.0,0.0,60.0,5.0,0.0
10835,59.0,0.0,60.0,3.0,0.0
10836,59.0,0.0,60.0,7.0,0.0
10837,79.0,0.0,90.0,6.0,0.0
10838,79.0,0.0,90.0,4.0,0.0
10839,71.0,30.0,30.0,2.0,0.0
10840,72.0,30.0,30.0,2.0,0.0
10841,76.0,0.0,180.0,1.0,0.0
10842,49.0,0.0,30.0,5.0,0.0
10843,49.0,30.0,30.0,3.0,0.0
10844,49.0,0.0,30.0,7.0,0.0
10845,70.0,0.0,30.0,2.0,0.0
10846,47.0,0.0,30.0,3.0,0.0
10847,47.0,0.0,30.0,5.0,0.0
10848,71.0,0.0,30.0,2.0,0.0
10849,76.0,0.0,30.0,6.0,0.0
10850,76.0,0.0,30.0,4.0,0.0
10851,76.0,30.0,30.0,0.0,0.0
10852,47.0,0.0,30.0,7.0,0.0
10853,79.0,0.0,120.0,6.0,0.0
10854,49.0,0.0,30.0,5.0,0.0
10855,70.0,0.0,30.0,2.0,0.0
10856,79.0,0.0,120.0,0.0,0.0
10857,49.0,30.0,30.0,7.0,0.0
10858,79.0,0.0,120.0,4.0,0.0
10859,49.0,0.0,30.0,3.0,0.0
10860,47.0,0.0,30.0,3.0,0.0
10861,47.0,0.0,30.0,7.0,0.0
10862,47.0,0.0,30.0,5.0,0.0
10863,71.0,30.0,30.0,2.0,0.0
10864,46.0,0.0,30.0,5.0,0.0
10865,46.0,0.0,30.0,7.0,0.0
10866,46.0,30.0,30.0,3.0,0.0
10867,73.0,0.0,60.0,2.0,0.0
10868,47.0,0.0,30.0,3.0,0.0
10869,47.0,0.0,30.0,7.0,0.0
10870,47.0,30.0,30.0,5.0,0.0
10871,49.0,0.0,30.0,7.0,0.0
10872,78.0,0.0,30.0,6.0,0.0
10873,49.0,0.0,30.0,3.0,0.0
10874,70.0,0.0,60.0,2.0,0.0
10875,78.0,0.0,30.0,4.0,0.0
10876,49.0,0.0,30.0,5.0,0.0
10877,78.0,30.0,30.0,0.0,0.0
10878,66.0,0.0,60.0,1.0,0.0
10879,76.0,0.0,30.0,4.0,0.0
10880,76.0,0.0,30.0,0.0,0.0
10881,46.0,0.0,30.0,7.0,0.0
10882,46.0,30.0,30.0,5.0,0.0
10883,46.0,0.0,30.0,3.0,0.0
10884,76.0,0.0,30.0,6.0,0.0
10885,71.0,0.0,60.0,1.0,0.0
10886,75.0,0.0,60.0,4.0,0.0
10887,47.0,0.0,30.0,3.0,0.0
10888,47.0,0.0,30.0,7.0,0.0
10889,75.0,0.0,60.0,6.0,0.0
10890,47.0,30.0,30.0,5.0,0.0
10891,75.0,0.0,60.0,0.0,0.0
10892,66.0,0.0,60.0,2.0,0.0
10893,48.0,30.0,30.0,3.0,0.0
10894,48.0,0.0,30.0,7.0,0.0
10895,48.0,0.0,30.0,5.0,0.0
10896,75.0,0.0,60.0,1.0,0.0
10897,78.0,0.0,60.0,0.0,0.0
10898,71.0,0.0,60.0,2.0,0.0
10899,47.0,0.0,30.0,3.0,0.0
10900,47.0,0.0,30.0,5.0,0.0
10901,47.0,30.0,30.0,7.0,0.0
10902,78.0,0.0,60.0,4.0,0.0
10903,78.0,0.0,60.0,6.0,0.0
10904,48.0,0.0,30.0,3.0,0.0
10905,48.0,30.0,30.0,7.0,0.0
10906,48.0,0.0,30.0,5.0,0.0
10907,69.0,30.0,60.0,0.0,0.0
10908,75.0,0.0,60.0,2.0,0.0
10909,69.0,0.0,60.0,4.0,0.0
10910,47.0,0.0,30.0,7.0,0.0
10911,78.0,0.0,180.0,1.0,0.0
10912,47.0,0.0,30.0,5.0,0.0
10913,69.0,0.0,60.0,6.0,0.0
10914,47.0,30.0,30.0,3.0,0.0
10915,48.0,0.0,30.0,3.0,0.0
10916,48.0,0.0,30.0,7.0,0.0
10917,48.0,0.0,30.0,5.0,0.0
10918,45.0,30.0,30.0,5.0,0.0
10919,78.0,30.0,60.0,0.0,0.0
10920,63.0,0.0,60.0,2.0,0.0
10921,45.0,0.0,30.0,7.0,0.0
10922,45.0,0.0,30.0,3.0,0.0
10923,78.0,0.0,60.0,6.0,0.0
10924,78.0,0.0,60.0,4.0,0.0
10925,47.0,0.0,30.0,3.0,0.0
10926,47.0,0.0,30.0,7.0,0.0
10927,47.0,0.0,30.0,5.0,0.0
10928,64.0,0.0,120.0,2.0,0.0
10929,67.0,0.0,30.0,4.0,0.0
10930,48.0,30.0,30.0,7.0,0.0
10931,48.0,0.0,30.0,3.0,0.0
10932,67.0,0.0,30.0,6.0,0.0
10933,48.0,0.0,30.0,5.0,0.0
10934,67.0,0.0,30.0,0.0,0.0
10935,60.0,0.0,30.0,3.0,0.0
10936,66.0,0.0,30.0,4.0,0.0
10937,60.0,0.0,30.0,7.0,0.0
10938,66.0,0.0,30.0,6.0,0.0
10939,60.0,30.0,30.0,5.0,0.0
10940,66.0,0.0,30.0,0.0,0.0
10941,67.0,0.0,30.0,6.0,0.0
10942,67.0,0.0,30.0,4.0,0.0
10943,59.0,0.0,30.0,5.0,0.0
10944,76.0,0.0,30.0,1.0,0.0
10945,67.0,0.0,30.0,0.0,0.0
10946,59.0,0.0,30.0,3.0,0.0
10947,59.0,30.0,30.0,7.0,0.0
10948,75.0,30.0,30.0,1.0,0.0
10949,57.0,0.0,30.0,7.0,0.0
10950,57.0,0.0,30.0,5.0,0.0
10951,66.0,0.0,30.0,6.0,0.0
10952,57.0,0.0,30.0,3.0,0.0
10953,66.0,0.0,30.0,0.0,0.0
10954,66.0,0.0,30.0,4.0,0.0
10955,55.0,30.0,30.0,3.0,0.0
10956,55.0,0.0,30.0,5.0,0.0
10957,64.0,0.0,60.0,6.0,0.0
10958,55.0,0.0,30.0,7.0,0.0
10959,64.0,0.0,60.0,4.0,0.0
10960,64.0,0.0,60.0,0.0,0.0
10961,76.0,30.0,60.0,1.0,0.0
10962,69.0,0.0,30.0,2.0,0.0
10963,60.0,0.0,30.0,5.0,0.0
10964,60.0,0.0,30.0,3.0,0.0
10965,60.0,0.0,30.0,7.0,0.0
10966,79.0,0.0,30.0,0.0,0.0
10967,79.0,0.0,30.0,4.0,0.0
10968,59.0,0.0,30.0,5.0,0.0
10969,79.0,0.0,30.0,6.0,0.0
10970,64.0,30.0,30.0,1.0,0.0
10971,59.0,0.0,30.0,7.0,0.0
10972,67.0,0.0,30.0,2.0,0.0
10973,59.0,0.0,30.0,3.0,0.0
10974,66.0,0.0,30.0,2.0,0.0
10975,66.0,30.0,30.0,1.0,0.0
10976,57.0,0.0,30.0,7.0,0.0
10977,57.0,0.0,30.0,5.0,0.0
10978,81.0,0.0,30.0,4.0,0.0
10979,81.0,0.0,30.0,6.0,0.0
10980,57.0,0.0,30.0,3.0,0.0
10981,81.0,0.0,30.0,0.0,0.0
10982,67.0,0.0,60.0,1.0,0.0
10983,83.0,0.0,60.0,4.0,0.0
10984,64.0,0.0,60.0,2.0,0.0
10985,55.0,0.0,30.0,5.0,0.0
10986,55.0,0.0,30.0,7.0,0.0
10987,55.0,30.0,30.0,3.0,0.0
10988,83.0,0.0,60.0,0.0,0.0
10989,83.0,0.0,60.0,6.0,0.0
10990,60.0,0.0,30.0,5.0,0.0
10991,60.0,30.0,30.0,7.0,0.0
10992,60.0,0.0,30.0,3.0,0.0
10993,72.0,60.0,60.0,1.0,0.0
10994,66.0,0.0,60.0,2.0,0.0
10995,59.0,0.0,30.0,7.0,0.0
10996,59.0,0.0,30.0,3.0,0.0
10997,76.0,0.0,60.0,0.0,0.0
10998,76.0,0.0,60.0,6.0,0.0
10999,59.0,30.0,30.0,5.0,0.0
11000,76.0,0.0,60.0,4.0,0.0
11001,57.0,0.0,30.0,7.0,0.0
11002,57.0,0.0,30.0,3.0,0.0
11003,57.0,0.0,30.0,5.0,0.0
11004,71.0,0.0,60.0,1.0,0.0
11005,71.0,0.0,60.0,0.0,0.0
11006,59.0,60.0,60.0,5.0,0.0
11007,71.0,0.0,60.0,6.0,0.0
11008,59.0,0.0,60.0,3.0,0.0
11009,59.0,0.0,60.0,7.0,0.0
11010,67.0,0.0,60.0,2.0,0.0
11011,71.0,0.0,60.0,4.0,0.0
11012,47.0,0.0,60.0,7.0,0.0
11013,66.0,60.0,60.0,2.0,0.0
11014,75.0,0.0,60.0,0.0,0.0
11015,75.0,0.0,60.0,6.0,0.0
11016,47.0,0.0,60.0,5.0,0.0
11017,71.0,0.0,60.0,1.0,0.0
11018,47.0,0.0,60.0,3.0,0.0
11019,75.0,0.0,60.0,4.0,0.0
11020,76.0,0.0,120.0,0.0,0.0
11021,76.0,0.0,120.0,6.0,0.0
11022,71.0,0.0,120.0,1.0,0.0
11023,52.0,60.0,60.0,3.0,0.0
11024,52.0,0.0,60.0,7.0,0.0
11025,76.0,0.0,120.0,4.0,0.0
11026,52.0,0.0,60.0,5.0,0.0
11027,67.0,0.0,120.0,2.0,0.0
11028,47.0,0.0,60.0,3.0,0.0
11029,47.0,60.0,60.0,7.0,0.0
11030,47.0,0.0,60.0,5.0,0.0
11031,40.0,0.0,60.0,5.0,0.0
11032,40.0,0.0,60.0,7.0,0.0
11033,40.0,30.0,60.0,3.0,0.0
11034,64.0,30.0,30.0,4.0,0.0
11035,76.0,0.0,60.0,6.0,0.0
11036,66.0,30.0,30.0,4.0,0.0
11037,67.0,30.0,30.0,4.0,0.0
11038,71.0,0.0,60.0,6.0,0.0
11039,69.0,30.0,30.0,4.0,0.0
11040,76.0,0.0,60.0,6.0,0.0
11041,67.0,30.0,30.0,4.0,0.0
11042,69.0,30.0,30.0,4.0,0.0
11043,66.0,30.0,30.0,4.0,0.0
11044,69.0,30.0,60.0,6.0,0.0
11045,67.0,0.0,30.0,4.0,0.0
11046,76.0,0.0,60.0,6.0,0.0
11047,66.0,30.0,30.0,4.0,0.0
11048,67.0,30.0,30.0,4.0,0.0
11049,64.0,0.0,60.0,4.0,0.0
11050,67.0,30.0,30.0,6.0,0.0
11051,66.0,30.0,30.0,6.0,0.0
11052,71.0,0.0,60.0,4.0,0.0
11053,67.0,30.0,30.0,6.0,0.0
11054,66.0,60.0,30.0,6.0,0.0
11055,79.0,30.0,60.0,4.0,0.0
11056,64.0,0.0,180.0,6.0,0.0
11057,67.0,0.0,30.0,2.0,0.0
11058,71.0,0.0,30.0,1.0,0.0
11059,52.0,0.0,30.0,5.0,0.0
11060,52.0,0.0,30.0,7.0,0.0
11061,52.0,30.0,30.0,3.0,0.0
11062,76.0,0.0,60.0,0.0,0.0
11063,76.0,0.0,60.0,4.0,0.0
11064,69.0,0.0,30.0,2.0,0.0
11065,54.0,0.0,30.0,3.0,0.0
11066,54.0,30.0,30.0,5.0,0.0
11067,54.0,0.0,30.0,7.0,0.0
11068,69.0,0.0,30.0,1.0,0.0
11069,55.0,0.0,30.0,7.0,0.0
11070,55.0,30.0,30.0,5.0,0.0
11071,71.0,0.0,30.0,1.0,0.0
11072,71.0,0.0,60.0,4.0,0.0
11073,55.0,0.0,60.0,3.0,0.0
11074,67.0,0.0,30.0,2.0,0.0
11075,71.0,0.0,30.0,0.0,0.0
11076,72.0,0.0,30.0,1.0,0.0
11077,54.0,0.0,30.0,5.0,0.0
11078,69.0,0.0,30.0,2.0,0.0
11079,54.0,30.0,30.0,7.0,0.0
11080,52.0,0.0,60.0,3.0,0.0
11081,55.0,0.0,30.0,5.0,0.0
11082,76.0,0.0,120.0,6.0,0.0
11083,76.0,0.0,30.0,0.0,0.0
11084,76.0,0.0,60.0,4.0,0.0
11085,55.0,0.0,30.0,7.0,0.0
11086,71.0,0.0,30.0,1.0,0.0
11087,67.0,30.0,30.0,2.0,0.0
11088,69.0,30.0,30.0,2.0,0.0
11089,52.0,0.0,30.0,7.0,0.0
11090,72.0,0.0,30.0,1.0,0.0
11091,52.0,0.0,30.0,5.0,0.0
11092,69.0,0.0,60.0,4.0,0.0
11093,69.0,0.0,30.0,1.0,0.0
11094,69.0,0.0,30.0,0.0,0.0
11095,59.0,0.0,30.0,5.0,0.0
11096,66.0,0.0,30.0,2.0,0.0
11097,59.0,30.0,30.0,7.0,0.0
11098,59.0,30.0,60.0,3.0,0.0
11099,71.0,0.0,30.0,1.0,0.0
11100,57.0,0.0,30.0,5.0,0.0
11101,57.0,0.0,30.0,7.0,0.0
11102,67.0,0.0,30.0,2.0,0.0
11103,59.0,30.0,30.0,7.0,0.0
11104,69.0,0.0,30.0,1.0,0.0
11105,78.0,0.0,30.0,0.0,0.0
11106,59.0,0.0,30.0,5.0,0.0
11107,78.0,0.0,60.0,4.0,0.0
11108,47.0,0.0,60.0,3.0,0.0
11109,75.0,0.0,60.0,6.0,0.0
11110,66.0,0.0,30.0,2.0,0.0
11111,71.0,30.0,30.0,1.0,0.0
11112,47.0,0.0,30.0,7.0,0.0
11113,67.0,0.0,30.0,2.0,0.0
11114,47.0,0.0,30.0,5.0,0.0
11115,76.0,0.0,30.0,6.0,0.0
11116,67.0,30.0,30.0,4.0,0.0
11117,52.0,0.0,60.0,5.0,0.0
11118,52.0,30.0,60.0,7.0,0.0
11119,67.0,0.0,30.0,0.0,0.0
11120,64.0,0.0,30.0,2.0,0.0
11121,67.0,0.0,30.0,1.0,0.0
11122,52.0,0.0,60.0,3.0,0.0
11123,69.0,0.0,30.0,1.0,0.0
11124,63.0,0.0,30.0,2.0,0.0
11125,78.0,0.0,30.0,6.0,0.0
11126,66.0,0.0,30.0,4.0,0.0
11127,66.0,0.0,30.0,0.0,0.0
11128,47.0,0.0,60.0,7.0,0.0
11129,67.0,30.0,30.0,1.0,0.0
11130,64.0,0.0,30.0,2.0,0.0
11131,67.0,0.0,30.0,0.0,0.0
11132,47.0,30.0,60.0,5.0,0.0
11133,76.0,0.0,30.0,6.0,0.0
11134,67.0,0.0,30.0,4.0,0.0
11135,47.0,0.0,60.0,3.0,0.0
11136,69.0,0.0,30.0,1.0,0.0
11137,66.0,0.0,30.0,0.0,0.0
11138,63.0,0.0,30.0,2.0,0.0
11139,78.0,0.0,30.0,6.0,0.0
11140,66.0,0.0,30.0,4.0,0.0
11141,40.0,0.0,60.0,5.0,0.0
11142,79.0,0.0,60.0,6.0,0.0
11143,40.0,0.0,60.0,7.0,0.0
11144,64.0,30.0,60.0,2.0,0.0
11145,71.0,0.0,60.0,1.0,0.0
11146,64.0,30.0,30.0,4.0,0.0
11147,64.0,0.0,60.0,0.0,0.0
11148,40.0,0.0,60.0,3.0,0.0
11149,66.0,0.0,30.0,4.0,0.0
11150,67.0,0.0,30.0,4.0,0.0
11151,78.0,30.0,30.0,6.0,0.0
11152,76.0,0.0,30.0,6.0,0.0
11153,69.0,30.0,30.0,4.0,0.0
11154,71.0,30.0,30.0,4.0,0.0
11155,74.0,30.0,60.0,6.0,0.0
11156,72.0,0.0,30.0,4.0,0.0
11157,71.0,30.0,30.0,4.0,0.0
11158,79.0,0.0,60.0,6.0,0.0
11159,72.0,30.0,30.0,4.0,0.0
11160,72.0,30.0,60.0,6.0,0.0
11161,69.0,30.0,30.0,4.0,0.0
11162,71.0,0.0,30.0,4.0,0.0
11163,79.0,30.0,60.0,6.0,0.0
11164,69.0,30.0,30.0,4.0,0.0
11165,71.0,0.0,30.0,4.0,0.0
11166,67.0,0.0,60.0,4.0,0.0
11167,71.0,30.0,30.0,6.0,0.0
11168,69.0,30.0,30.0,6.0,0.0
11169,74.0,60.0,60.0,4.0,0.0
11170,71.0,30.0,30.0,6.0,0.0
11171,69.0,0.0,30.0,6.0,0.0
11172,83.0,30.0,60.0,4.0,0.0
11173,67.0,0.0,180.0,6.0,0.0
11174,79.0,0.0,60.0,4.0,0.0
11175,55.0,0.0,30.0,7.0,0.0
11176,71.0,30.0,30.0,2.0,0.0
11177,74.0,0.0,30.0,1.0,0.0
11178,79.0,0.0,60.0,0.0,0.0
11179,55.0,0.0,30.0,5.0,0.0
11180,55.0,0.0,30.0,3.0,0.0
11181,72.0,30.0,30.0,1.0,0.0
11182,57.0,0.0,30.0,3.0,0.0
11183,57.0,0.0,30.0,7.0,0.0
11184,57.0,0.0,30.0,5.0,0.0
11185,72.0,0.0,30.0,2.0,0.0
11186,74.0,30.0,60.0,4.0,0.0
11187,59.0,30.0,30.0,5.0,0.0
11188,59.0,0.0,30.0,7.0,0.0
11189,74.0,0.0,30.0,1.0,0.0
11190,59.0,0.0,60.0,3.0,0.0
11191,71.0,0.0,30.0,2.0,0.0
11192,74.0,0.0,60.0,0.0,0.0
11193,57.0,0.0,30.0,7.0,0.0
11194,57.0,0.0,30.0,5.0,0.0
11195,76.0,0.0,30.0,1.0,0.0
11196,72.0,0.0,30.0,2.0,0.0
11197,79.0,0.0,60.0,4.0,0.0
11198,74.0,0.0,30.0,1.0,0.0
11199,71.0,0.0,30.0,2.0,0.0
11200,59.0,0.0,30.0,7.0,0.0
11201,79.0,0.0,60.0,0.0,0.0
11202,79.0,0.0,120.0,6.0,0.0
11203,59.0,30.0,30.0,5.0,0.0
11204,55.0,0.0,60.0,3.0,0.0
11205,72.0,0.0,30.0,2.0,0.0
11206,55.0,0.0,30.0,7.0,0.0
11207,55.0,0.0,30.0,5.0,0.0
11208,76.0,30.0,30.0,1.0,0.0
11209,72.0,30.0,60.0,4.0,0.0
11210,69.0,0.0,30.0,2.0,0.0
11211,62.0,0.0,30.0,7.0,0.0
11212,62.0,0.0,60.0,3.0,0.0
11213,72.0,0.0,60.0,0.0,0.0
11214,62.0,30.0,30.0,5.0,0.0
11215,72.0,0.0,30.0,1.0,0.0
11216,60.0,0.0,30.0,5.0,0.0
11217,71.0,0.0,30.0,2.0,0.0
11218,74.0,0.0,30.0,1.0,0.0
11219,60.0,0.0,30.0,7.0,0.0
11220,81.0,0.0,60.0,4.0,0.0
11221,62.0,0.0,30.0,5.0,0.0
11222,81.0,30.0,60.0,0.0,0.0
11223,50.0,0.0,60.0,3.0,0.0
11224,69.0,0.0,30.0,2.0,0.0
11225,78.0,0.0,60.0,6.0,0.0
11226,72.0,0.0,30.0,1.0,0.0
11227,62.0,30.0,30.0,7.0,0.0
11228,50.0,0.0,30.0,7.0,0.0
11229,71.0,0.0,30.0,2.0,0.0
11230,50.0,0.0,30.0,5.0,0.0
11231,74.0,0.0,30.0,1.0,0.0
11232,67.0,0.0,30.0,2.0,0.0
11233,55.0,30.0,60.0,3.0,0.0
11234,55.0,0.0,60.0,5.0,0.0
11235,71.0,0.0,30.0,0.0,0.0
11236,79.0,0.0,30.0,6.0,0.0
11237,55.0,0.0,60.0,7.0,0.0
11238,71.0,0.0,30.0,1.0,0.0
11239,71.0,30.0,30.0,4.0,0.0
11240,66.0,0.0,30.0,2.0,0.0
11241,69.0,0.0,30.0,0.0,0.0
11242,81.0,0.0,30.0,6.0,0.0
11243,69.0,0.0,30.0,4.0,0.0
11244,72.0,0.0,30.0,1.0,0.0
11245,50.0,0.0,60.0,3.0,0.0
11246,71.0,30.0,30.0,1.0,0.0
11247,50.0,0.0,60.0,7.0,0.0
11248,67.0,0.0,30.0,2.0,0.0
11249,50.0,30.0,60.0,5.0,0.0
11250,71.0,0.0,30.0,0.0,0.0
11251,71.0,0.0,30.0,4.0,0.0
11252,79.0,0.0,30.0,6.0,0.0
11253,69.0,0.0,30.0,0.0,0.0
11254,66.0,0.0,30.0,2.0,0.0
11255,72.0,0.0,30.0,1.0,0.0
11256,69.0,0.0,30.0,4.0,0.0
11257,81.0,0.0,30.0,6.0,0.0
11258,83.0,30.0,180.0,6.0,0.0
11259,67.0,0.0,60.0,2.0,0.0
11260,67.0,0.0,30.0,4.0,0.0
11261,43.0,0.0,60.0,5.0,0.0
11262,43.0,30.0,30.0,7.0,0.0
11263,74.0,0.0,60.0,1.0,0.0
11264,67.0,30.0,60.0,0.0,0.0
11265,43.0,0.0,60.0,3.0,0.0
11266,71.0,0.0,30.0,4.0,0.0
11267,55.0,0.0,30.0,7.0,0.0
11268,55.0,0.0,60.0,5.0,0.0
11269,74.0,30.0,30.0,4.0,0.0
11270,55.0,30.0,60.0,3.0,0.0
11271,59.0,0.0,30.0,7.0,0.0
11272,77.0,0.0,30.0,4.0,0.0
11273,55.0,0.0,30.0,7.0,0.0
11274,60.0,0.0,60.0,7.0,0.0
11275,76.0,0.0,30.0,4.0,0.0
11276,60.0,0.0,60.0,3.0,0.0
11277,72.0,0.0,240.0,2.0,0.0
11278,60.0,30.0,30.0,5.0,0.0
11279,79.0,0.0,30.0,4.0,0.0
11280,64.0,0.0,30.0,5.0,0.0
11281,57.0,0.0,60.0,7.0,0.0
11282,81.0,30.0,30.0,4.0,0.0
11283,60.0,0.0,30.0,5.0,0.0
11284,84.0,0.0,30.0,6.0,0.0
11285,57.0,0.0,60.0,3.0,0.0
11286,64.0,0.0,30.0,5.0,0.0
11287,83.0,30.0,30.0,6.0,0.0
11288,83.0,0.0,30.0,4.0,0.0
11289,54.0,30.0,60.0,3.0,0.0
11290,54.0,0.0,60.0,5.0,0.0
11291,81.0,0.0,60.0,6.0,0.0
11292,84.0,0.0,30.0,4.0,0.0
11293,54.0,30.0,30.0,7.0,0.0
11294,81.0,0.0,30.0,4.0,0.0
11295,62.0,0.0,30.0,7.0,0.0
11296,81.0,0.0,60.0,6.0,0.0
11297,78.0,0.0,30.0,4.0,0.0
11298,50.0,0.0,60.0,3.0,0.0
11299,62.0,0.0,60.0,5.0,0.0
11300,60.0,30.0,30.0,7.0,0.0
11301,76.0,15.0,30.0,4.0,0.0
11302,62.0,0.0,30.0,7.0,0.0
11303,74.0,30.0,30.0,4.0,0.0
11304,67.0,0.0,30.0,5.0,0.0
11305,71.0,30.0,240.0,2.0,0.0
11306,81.0,15.0,15.0,6.0,0.0
11307,55.0,0.0,60.0,7.0,0.0
11308,83.0,0.0,15.0,6.0,0.0
11309,78.0,0.0,30.0,4.0,0.0
11310,62.0,0.0,30.0,5.0,0.0
11311,81.0,30.0,30.0,6.0,0.0
11312,59.0,0.0,30.0,5.0,0.0
11313,79.0,0.0,60.0,6.0,0.0
11314,59.0,0.0,60.0,7.0,0.0
11315,55.0,30.0,30.0,3.0,0.0
11316,79.0,0.0,30.0,4.0,0.0
11317,62.0,0.0,30.0,5.0,0.0
11318,54.0,0.0,30.0,3.0,0.0
11319,81.0,30.0,30.0,4.0,0.0
11320,83.0,0.0,30.0,4.0,0.0
11321,52.0,30.0,30.0,7.0,0.0
11322,55.0,0.0,60.0,5.0,0.0
11323,52.0,0.0,60.0,3.0,0.0
11324,64.0,30.0,30.0,7.0,0.0
11325,79.0,0.0,30.0,4.0,0.0
11326,78.0,0.0,30.0,4.0,0.0
11327,48.0,29.0,30.0,3.0,0.0
11328,79.0,0.0,120.0,6.0,0.0
11329,60.0,0.0,60.0,5.0,0.0
11330,63.0,1.0,30.0,7.0,0.0
11331,64.0,0.0,30.0,7.0,0.0
11332,76.0,0.0,30.0,4.0,0.0
11333,69.0,0.0,240.0,2.0,0.0
11334,54.0,0.0,60.0,7.0,0.0
11335,75.0,0.0,30.0,4.0,0.0
11336,54.0,30.0,30.0,5.0,0.0
11337,54.0,30.0,60.0,3.0,0.0
11338,60.0,0.0,30.0,5.0,0.0
11339,76.0,0.0,30.0,4.0,0.0
11340,57.0,0.0,30.0,5.0,0.0
11341,78.0,0.0,30.0,4.0,0.0
11342,52.0,0.0,60.0,7.0,0.0
11343,52.0,30.0,60.0,3.0,0.0
11344,81.0,30.0,30.0,6.0,0.0
11345,60.0,0.0,30.0,5.0,0.0
11346,79.0,0.0,30.0,4.0,0.0
11347,79.0,0.0,30.0,6.0,0.0
11348,51.0,0.0,30.0,7.0,0.0
11349,78.0,0.0,60.0,6.0,0.0
11350,51.0,0.0,60.0,5.0,0.0
11351,51.0,0.0,60.0,3.0,0.0
11352,81.0,30.0,30.0,4.0,0.0
11353,78.0,30.0,30.0,4.0,0.0
11354,59.0,0.0,30.0,7.0,0.0
11355,78.0,0.0,60.0,6.0,0.0
11356,57.0,0.0,30.0,7.0,0.0
11357,47.0,0.0,60.0,3.0,0.0
11358,59.0,0.0,60.0,5.0,0.0
11359,75.0,30.0,30.0,4.0,0.0
11360,59.0,0.0,30.0,7.0,0.0
11361,73.0,15.0,30.0,4.0,0.0
11362,67.0,0.0,240.0,2.0,0.0
11363,71.0,0.0,30.0,4.0,0.0
11364,64.0,30.0,30.0,5.0,0.0
11365,78.0,15.0,15.0,6.0,0.0
11366,52.0,0.0,60.0,7.0,0.0
11367,79.0,0.0,15.0,6.0,0.0
11368,78.0,0.0,30.0,6.0,0.0
11369,59.0,30.0,30.0,5.0,0.0
11370,75.0,0.0,30.0,4.0,0.0
11371,55.0,30.0,30.0,5.0,0.0
11372,52.0,0.0,30.0,3.0,0.0
11373,76.0,0.0,30.0,4.0,0.0
11374,55.0,30.0,60.0,7.0,0.0
11375,76.0,0.0,60.0,6.0,0.0
11376,78.0,0.0,30.0,4.0,0.0
11377,50.0,0.0,30.0,3.0,0.0
11378,59.0,0.0,30.0,5.0,0.0
11379,49.0,0.0,60.0,3.0,0.0
11380,79.0,30.0,30.0,4.0,0.0
11381,52.0,0.0,60.0,5.0,0.0
11382,49.0,0.0,30.0,7.0,0.0
11383,52.0,30.0,30.0,7.0,0.0
11384,76.0,0.0,30.0,4.0,0.0
11385,76.0,0.0,30.0,6.0,0.0
11386,55.0,1.0,30.0,7.0,0.0
11387,64.0,0.0,60.0,5.0,0.0
11388,47.0,29.0,30.0,3.0,0.0
11389,73.0,0.0,30.0,4.0,0.0
11390,74.0,0.0,30.0,4.0,0.0
11391,47.0,0.0,30.0,7.0,0.0
11392,74.0,30.0,30.0,6.0,0.0
11393,73.0,0.0,60.0,6.0,0.0
11394,76.0,30.0,30.0,4.0,0.0
11395,58.0,30.0,60.0,5.0,0.0
11396,46.0,0.0,30.0,7.0,0.0
11397,46.0,0.0,60.0,3.0,0.0
11398,78.0,0.0,30.0,4.0,0.0
11399,58.0,0.0,30.0,7.0,0.0
11400,66.0,0.0,60.0,2.0,0.0
11401,61.0,0.0,30.0,7.0,0.0
11402,76.0,30.0,30.0,4.0,0.0
11403,78.0,30.0,60.0,6.0,0.0
11404,54.0,0.0,60.0,5.0,0.0
11405,58.0,0.0,60.0,3.0,0.0
11406,78.0,0.0,30.0,4.0,0.0
11407,58.0,0.0,30.0,7.0,0.0
11408,71.0,0.0,60.0,6.0,0.0
11409,66.0,0.0,60.0,2.0,0.0
11410,59.0,0.0,60.0,7.0,0.0
11411,74.0,30.0,30.0,4.0,0.0
11412,59.0,0.0,30.0,5.0,0.0
11413,59.0,0.0,60.0,3.0,0.0
11414,58.0,0.0,30.0,5.0,0.0
11415,76.0,30.0,30.0,4.0,0.0
11416,71.0,0.0,60.0,2.0,0.0
11417,74.0,30.0,30.0,4.0,0.0
11418,79.0,0.0,60.0,6.0,0.0
11419,52.0,0.0,60.0,7.0,0.0
11420,59.0,0.0,30.0,5.0,0.0
11421,55.0,30.0,60.0,3.0,0.0
11422,76.0,0.0,30.0,4.0,0.0
11423,52.0,0.0,30.0,5.0,0.0
11424,73.0,30.0,30.0,4.0,0.0
11425,70.0,0.0,30.0,6.0,0.0
11426,54.0,29.0,300.0,7.0,0.0
11427,66.0,30.0,120.0,2.0,0.0
11428,54.0,0.0,630.0,3.0,0.0
11429,54.0,0.0,60.0,5.0,0.0
11430,74.0,30.0,30.0,4.0,0.0
11431,68.0,0.0,30.0,6.0,0.0
11432,66.0,0.0,60.0,5.0,0.0
11433,70.0,0.0,30.0,6.0,0.0
11434,73.0,30.0,30.0,4.0,0.0
11435,68.0,0.0,30.0,6.0,0.0
11436,74.0,0.0,30.0,4.0,0.0
11437,66.0,0.0,60.0,6.0,0.0
11438,58.0,0.0,60.0,5.0,0.0
11439,76.0,30.0,30.0,4.0,0.0
11440,78.0,30.0,30.0,4.0,0.0
11441,66.0,0.0,60.0,2.0,0.0
11442,74.0,30.0,30.0,4.0,0.0
11443,66.0,0.0,60.0,0.0,0.0
11444,83.0,0.0,60.0,6.0,0.0
11445,59.0,0.0,60.0,5.0,0.0
11446,66.0,0.0,60.0,1.0,0.0
11447,76.0,30.0,30.0,4.0,0.0
11448,82.0,30.0,30.0,6.0,0.0
11449,73.0,0.0,30.0,4.0,0.0
11450,64.0,0.0,60.0,2.0,0.0
11451,54.0,29.0,390.0,5.0,0.0
11452,64.0,1.0,60.0,1.0,0.0
11453,64.0,0.0,60.0,0.0,0.0
11454,83.0,0.0,30.0,6.0,0.0
11455,74.0,0.0,30.0,4.0,0.0
11456,73.0,0.0,60.0,2.0,0.0
11457,82.0,30.0,30.0,6.0,0.0
11458,73.0,0.0,60.0,1.0,0.0
11459,64.0,30.0,60.0,7.0,0.0
11460,73.0,0.0,30.0,4.0,0.0
11461,73.0,0.0,60.0,0.0,0.0
11462,83.0,0.0,30.0,6.0,0.0
11463,74.0,0.0,30.0,4.0,0.0
11464,62.0,0.0,60.0,0.0,0.0
11465,71.0,30.0,30.0,4.0,0.0
11466,54.0,0.0,60.0,7.0,0.0
11467,62.0,0.0,60.0,2.0,0.0
11468,80.0,0.0,30.0,6.0,0.0
11469,62.0,30.0,60.0,1.0,0.0
11470,73.0,0.0,30.0,4.0,0.0
11471,82.0,0.0,30.0,6.0,0.0
11472,71.0,0.0,30.0,4.0,0.0
11473,62.0,0.0,60.0,7.0,0.0
11474,71.0,0.0,60.0,2.0,0.0
11475,71.0,0.0,60.0,1.0,0.0
11476,80.0,30.0,30.0,6.0,0.0
11477,71.0,30.0,60.0,0.0,0.0
11478,82.0,0.0,30.0,6.0,0.0
11479,73.0,0.0,30.0,4.0,0.0
11480,61.0,0.0,30.0,0.0,0.0
11481,70.0,30.0,30.0,4.0,0.0
11482,54.0,0.0,150.0,7.0,0.0
11483,70.0,0.0,30.0,2.0,0.0
11484,78.0,0.0,60.0,6.0,0.0
11485,61.0,0.0,30.0,1.0,0.0
11486,61.0,0.0,60.0,7.0,0.0
11487,59.0,30.0,30.0,1.0,0.0
11488,68.0,0.0,30.0,2.0,0.0
11489,68.0,0.0,30.0,4.0,0.0
11490,59.0,0.0,30.0,0.0,0.0
11491,61.0,30.0,30.0,0.0,0.0
11492,73.0,0.0,60.0,6.0,0.0
11493,61.0,0.0,30.0,1.0,0.0
11494,66.0,0.0,60.0,7.0,0.0
11495,70.0,0.0,30.0,2.0,0.0
11496,70.0,0.0,30.0,4.0,0.0
11497,59.0,0.0,30.0,1.0,0.0
11498,68.0,0.0,30.0,4.0,0.0
11499,68.0,31.0,30.0,2.0,0.0
11500,59.0,0.0,30.0,0.0,0.0
11501,61.0,30.0,60.0,1.0,0.0
11502,61.0,0.0,60.0,0.0,0.0
11503,66.0,0.0,60.0,4.0,0.0
11504,70.0,0.0,60.0,6.0,0.0
11505,66.0,0.0,60.0,2.0,0.0
11506,55.0,0.0,30.0,7.0,0.0
11507,55.0,0.0,30.0,3.0,0.0
11508,55.0,0.0,30.0,5.0,0.0
11509,52.0,0.0,30.0,5.0,0.0
11510,52.0,0.0,30.0,3.0,0.0
11511,83.0,0.0,60.0,6.0,0.0
11512,52.0,30.0,30.0,7.0,0.0
11513,83.0,0.0,60.0,0.0,0.0
11514,83.0,30.0,60.0,4.0,0.0
11515,54.0,0.0,30.0,5.0,0.0
11516,54.0,0.0,30.0,7.0,0.0
11517,54.0,0.0,30.0,3.0,0.0
11518,78.0,0.0,60.0,4.0,0.0
11519,78.0,0.0,60.0,0.0,0.0
11520,50.0,0.0,30.0,7.0,0.0
11521,50.0,30.0,30.0,3.0,0.0
11522,78.0,0.0,60.0,6.0,0.0
11523,50.0,0.0,30.0,5.0,0.0
11524,52.0,0.0,30.0,7.0,0.0
11525,52.0,30.0,30.0,3.0,0.0
11526,52.0,0.0,30.0,5.0,0.0
11527,83.0,0.0,60.0,6.0,0.0
11528,50.0,0.0,30.0,7.0,0.0
11529,83.0,0.0,60.0,4.0,0.0
11530,50.0,0.0,30.0,3.0,0.0
11531,50.0,30.0,30.0,5.0,0.0
11532,83.0,30.0,60.0,0.0,0.0
11533,52.0,0.0,30.0,3.0,0.0
11534,52.0,0.0,30.0,7.0,0.0
11535,52.0,0.0,30.0,5.0,0.0
11536,76.0,0.0,60.0,6.0,0.0
11537,49.0,30.0,30.0,5.0,0.0
11538,49.0,0.0,30.0,3.0,0.0
11539,76.0,30.0,60.0,4.0,0.0
11540,76.0,0.0,60.0,0.0,0.0
11541,49.0,0.0,30.0,7.0,0.0
11542,50.0,0.0,30.0,7.0,0.0
11543,50.0,0.0,30.0,5.0,0.0
11544,50.0,0.0,30.0,3.0,0.0
11545,49.0,30.0,30.0,3.0,0.0
11546,83.0,0.0,60.0,6.0,0.0
11547,49.0,0.0,30.0,7.0,0.0
11548,83.0,0.0,60.0,4.0,0.0
11549,49.0,0.0,30.0,5.0,0.0
11550,83.0,30.0,60.0,0.0,0.0
11551,50.0,0.0,30.0,5.0,0.0
11552,50.0,0.0,30.0,7.0,0.0
11553,50.0,0.0,30.0,3.0,0.0
11554,47.0,0.0,60.0,7.0,0.0
11555,74.0,30.0,30.0,0.0,0.0
11556,74.0,0.0,30.0,6.0,0.0
11557,47.0,0.0,60.0,5.0,0.0
11558,74.0,0.0,30.0,4.0,0.0
11559,47.0,0.0,60.0,3.0,0.0
11560,73.0,30.0,30.0,4.0,0.0
11561,73.0,0.0,30.0,6.0,0.0
11562,73.0,0.0,30.0,0.0,0.0
11563,66.0,0.0,30.0,5.0,0.0
11564,66.0,0.0,60.0,3.0,0.0
11565,74.0,0.0,30.0,6.0,0.0
11566,74.0,0.0,30.0,0.0,0.0
11567,74.0,30.0,30.0,4.0,0.0
11568,66.0,0.0,30.0,7.0,0.0
11569,73.0,0.0,30.0,4.0,0.0
11570,73.0,0.0,30.0,0.0,0.0
11571,64.0,0.0,30.0,7.0,0.0
11572,64.0,0.0,30.0,5.0,0.0
11573,73.0,30.0,30.0,6.0,0.0
11574,62.0,30.0,30.0,5.0,0.0
11575,71.0,0.0,60.0,4.0,0.0
11576,62.0,0.0,60.0,3.0,0.0
11577,62.0,0.0,30.0,7.0,0.0
11578,71.0,0.0,60.0,6.0,0.0
11579,71.0,30.0,60.0,0.0,0.0
11580,61.0,0.0,30.0,7.0,0.0
11581,61.0,0.0,30.0,5.0,0.0
11582,59.0,30.0,60.0,3.0,0.0
11583,59.0,30.0,30.0,7.0,0.0
11584,86.0,0.0,60.0,4.0,0.0
11585,86.0,0.0,60.0,0.0,0.0
11586,78.0,0.0,60.0,2.0,0.0
11587,59.0,0.0,30.0,5.0,0.0
11588,83.0,0.0,60.0,1.0,0.0
11589,86.0,0.0,60.0,6.0,0.0
11590,61.0,0.0,30.0,5.0,0.0
11591,61.0,0.0,30.0,7.0,0.0
11592,57.0,0.0,30.0,5.0,0.0
11593,66.0,0.0,60.0,2.0,0.0
11594,57.0,0.0,30.0,7.0,0.0
11595,57.0,30.0,30.0,3.0,0.0
11596,85.0,30.0,60.0,6.0,0.0
11597,85.0,0.0,60.0,4.0,0.0
11598,85.0,0.0,60.0,0.0,0.0
11599,85.0,0.0,60.0,1.0,0.0
11600,59.0,0.0,30.0,7.0,0.0
11601,59.0,0.0,30.0,5.0,0.0
11602,59.0,0.0,30.0,3.0,0.0
11603,90.0,0.0,120.0,4.0,0.0
11604,90.0,0.0,120.0,0.0,0.0
11605,66.0,0.0,60.0,2.0,0.0
11606,90.0,30.0,120.0,6.0,0.0
11607,57.0,0.0,30.0,3.0,0.0
11608,57.0,30.0,30.0,7.0,0.0
11609,57.0,0.0,30.0,5.0,0.0
11610,73.0,0.0,60.0,1.0,0.0
11611,59.0,0.0,30.0,7.0,0.0
11612,59.0,30.0,30.0,3.0,0.0
11613,59.0,0.0,30.0,5.0,0.0
11614,55.0,0.0,30.0,7.0,0.0
11615,55.0,0.0,30.0,5.0,0.0
11616,74.0,0.0,60.0,1.0,0.0
11617,71.0,0.0,60.0,2.0,0.0
11618,55.0,30.0,30.0,3.0,0.0
11619,57.0,0.0,30.0,5.0,0.0
11620,57.0,0.0,30.0,7.0,0.0
11621,57.0,0.0,30.0,3.0,0.0
11622,83.0,0.0,60.0,0.0,0.0
11623,83.0,0.0,60.0,4.0,0.0
11624,83.0,0.0,60.0,6.0,0.0
11625,71.0,0.0,60.0,2.0,0.0
11626,55.0,30.0,30.0,7.0,0.0
11627,55.0,0.0,30.0,5.0,0.0
11628,76.0,30.0,60.0,1.0,0.0
11629,55.0,0.0,30.0,3.0,0.0
11630,57.0,0.0,30.0,5.0,0.0
11631,57.0,0.0,30.0,3.0,0.0
11632,57.0,0.0,30.0,7.0,0.0
11633,54.0,0.0,60.0,5.0,0.0
11634,54.0,30.0,60.0,7.0,0.0
11635,54.0,0.0,60.0,3.0,0.0
11636,82.0,0.0,30.0,6.0,0.0
11637,73.0,0.0,30.0,2.0,0.0
11638,82.0,0.0,30.0,0.0,0.0
11639,82.0,30.0,30.0,4.0,0.0
11640,78.0,0.0,30.0,1.0,0.0
11641,80.0,0.0,30.0,4.0,0.0
11642,80.0,0.0,30.0,6.0,0.0
11643,71.0,0.0,30.0,2.0,0.0
11644,80.0,0.0,30.0,1.0,0.0
11645,80.0,0.0,30.0,0.0,0.0
11646,82.0,0.0,30.0,4.0,0.0
11647,78.0,0.0,30.0,1.0,0.0
11648,73.0,30.0,30.0,2.0,0.0
11649,82.0,0.0,30.0,6.0,0.0
11650,49.0,30.0,60.0,5.0,0.0
11651,82.0,0.0,30.0,0.0,0.0
11652,49.0,0.0,60.0,7.0,0.0
11653,49.0,0.0,60.0,3.0,0.0
11654,80.0,0.0,30.0,0.0,0.0
11655,80.0,0.0,30.0,1.0,0.0
11656,80.0,0.0,30.0,4.0,0.0
11657,71.0,0.0,30.0,2.0,0.0
11658,80.0,0.0,30.0,6.0,0.0
11659,82.0,0.0,60.0,1.0,0.0
11660,78.0,30.0,60.0,6.0,0.0
11661,42.0,0.0,60.0,5.0,0.0
11662,78.0,0.0,60.0,0.0,0.0
11663,73.0,0.0,60.0,2.0,0.0
11664,42.0,0.0,60.0,7.0,0.0
11665,42.0,0.0,60.0,3.0,0.0
11666,78.0,30.0,30.0,4.0,0.0
11667,76.0,0.0,30.0,4.0,0.0
11668,66.0,30.0,60.0,6.0,0.0
11669,74.0,30.0,30.0,4.0,0.0
11670,73.0,0.0,30.0,4.0,0.0
11671,71.0,0.0,60.0,6.0,0.0
11672,74.0,30.0,30.0,4.0,0.0
11673,78.0,30.0,30.0,4.0,0.0
11674,74.0,30.0,30.0,4.0,0.0
11675,66.0,0.0,60.0,6.0,0.0
11676,71.0,30.0,30.0,4.0,0.0
11677,73.0,30.0,60.0,6.0,0.0
11678,70.0,30.0,30.0,4.0,0.0
11679,73.0,0.0,30.0,4.0,0.0
11680,66.0,0.0,60.0,6.0,0.0
11681,70.0,30.0,30.0,4.0,0.0
11682,66.0,30.0,30.0,4.0,0.0
11683,71.0,30.0,30.0,4.0,0.0
11684,74.0,0.0,60.0,6.0,0.0
11685,74.0,30.0,30.0,4.0,0.0
11686,71.0,30.0,30.0,4.0,0.0
11687,66.0,30.0,60.0,6.0,0.0
11688,66.0,0.0,30.0,4.0,0.0
11689,76.0,0.0,60.0,6.0,0.0
11690,73.0,30.0,30.0,4.0,0.0
11691,76.0,30.0,30.0,4.0,0.0
11692,73.0,30.0,30.0,4.0,0.0
11693,54.0,0.0,60.0,7.0,0.0
11694,70.0,0.0,60.0,2.0,0.0
11695,70.0,0.0,60.0,1.0,0.0
11696,54.0,0.0,60.0,3.0,0.0
11697,70.0,0.0,60.0,0.0,0.0
11698,66.0,0.0,60.0,6.0,0.0
11699,54.0,0.0,60.0,5.0,0.0
11700,66.0,30.0,30.0,4.0,0.0
11701,59.0,0.0,60.0,3.0,0.0
11702,74.0,30.0,30.0,6.0,0.0
11703,71.0,0.0,60.0,2.0,0.0
11704,59.0,0.0,60.0,7.0,0.0
11705,71.0,0.0,60.0,1.0,0.0
11706,71.0,0.0,60.0,0.0,0.0
11707,66.0,30.0,60.0,4.0,0.0
11708,59.0,0.0,60.0,5.0,0.0
11709,73.0,0.0,30.0,6.0,0.0
11710,71.0,30.0,30.0,6.0,0.0
11711,66.0,0.0,60.0,1.0,0.0
11712,66.0,0.0,60.0,0.0,0.0
11713,50.0,0.0,60.0,7.0,0.0
11714,50.0,30.0,60.0,5.0,0.0
11715,50.0,0.0,60.0,3.0,0.0
11716,71.0,0.0,60.0,4.0,0.0
11717,66.0,0.0,60.0,2.0,0.0
11718,74.0,0.0,30.0,6.0,0.0
11719,52.0,0.0,60.0,5.0,0.0
11720,73.0,0.0,60.0,0.0,0.0
11721,73.0,0.0,30.0,6.0,0.0
11722,73.0,0.0,60.0,2.0,0.0
11723,52.0,0.0,60.0,3.0,0.0
11724,73.0,30.0,30.0,4.0,0.0
11725,52.0,30.0,60.0,7.0,0.0
11726,73.0,0.0,60.0,1.0,0.0
11727,71.0,0.0,30.0,6.0,0.0
11728,74.0,0.0,30.0,4.0,0.0
11729,54.0,0.0,60.0,5.0,0.0
11730,70.0,0.0,30.0,6.0,0.0
11731,66.0,0.0,60.0,0.0,0.0
11732,66.0,0.0,60.0,1.0,0.0
11733,76.0,30.0,30.0,4.0,0.0
11734,66.0,30.0,60.0,2.0,0.0
11735,54.0,0.0,60.0,3.0,0.0
11736,54.0,0.0,60.0,7.0,0.0
11737,73.0,0.0,30.0,6.0,0.0
11738,73.0,0.0,30.0,4.0,0.0
11739,71.0,0.0,30.0,6.0,0.0
11740,47.0,0.0,60.0,7.0,0.0
11741,74.0,0.0,30.0,4.0,0.0
11742,47.0,0.0,60.0,3.0,0.0
11743,74.0,0.0,30.0,1.0,0.0
11744,47.0,0.0,60.0,5.0,0.0
11745,74.0,0.0,30.0,0.0,0.0
11746,74.0,30.0,30.0,2.0,0.0
11747,73.0,0.0,30.0,4.0,0.0
11748,73.0,0.0,30.0,1.0,0.0
11749,70.0,0.0,30.0,6.0,0.0
11750,73.0,30.0,30.0,0.0,0.0
11751,73.0,0.0,30.0,2.0,0.0
11752,74.0,0.0,30.0,1.0,0.0
11753,54.0,0.0,60.0,5.0,0.0
11754,74.0,0.0,30.0,0.0,0.0
11755,54.0,30.0,60.0,3.0,0.0
11756,54.0,0.0,60.0,7.0,0.0
11757,71.0,0.0,30.0,6.0,0.0
11758,74.0,30.0,30.0,2.0,0.0
11759,74.0,0.0,30.0,4.0,0.0
11760,70.0,0.0,30.0,6.0,0.0
11761,73.0,0.0,30.0,1.0,0.0
11762,73.0,0.0,30.0,2.0,0.0
11763,73.0,0.0,30.0,4.0,0.0
11764,73.0,0.0,30.0,0.0,0.0
11765,71.0,0.0,60.0,1.0,0.0
11766,71.0,0.0,60.0,0.0,0.0
11767,59.0,0.0,60.0,3.0,0.0
11768,71.0,30.0,60.0,6.0,0.0
11769,71.0,30.0,30.0,4.0,0.0
11770,59.0,0.0,60.0,7.0,0.0
11771,59.0,0.0,60.0,5.0,0.0
11772,71.0,0.0,60.0,2.0,0.0
11773,69.0,0.0,30.0,4.0,0.0
11774,71.0,30.0,60.0,6.0,0.0
11775,67.0,30.0,30.0,4.0,0.0
11776,66.0,0.0,30.0,4.0,0.0
11777,76.0,30.0,60.0,6.0,0.0
11778,67.0,30.0,30.0,4.0,0.0
11779,71.0,0.0,30.0,4.0,0.0
11780,71.0,30.0,60.0,6.0,0.0
11781,67.0,30.0,30.0,4.0,0.0
11782,64.0,0.0,30.0,4.0,0.0
11783,78.0,30.0,60.0,6.0,0.0
11784,63.0,30.0,30.0,4.0,0.0
11785,66.0,0.0,30.0,4.0,0.0
11786,63.0,30.0,30.0,4.0,0.0
11787,71.0,30.0,60.0,6.0,0.0
11788,59.0,0.0,30.0,4.0,0.0
11789,64.0,30.0,30.0,4.0,0.0
11790,79.0,30.0,60.0,6.0,0.0
11791,67.0,0.0,30.0,4.0,0.0
11792,71.0,0.0,60.0,6.0,0.0
11793,64.0,30.0,30.0,4.0,0.0
11794,59.0,30.0,30.0,4.0,0.0
11795,81.0,0.0,60.0,6.0,0.0
11796,66.0,30.0,30.0,4.0,0.0
11797,69.0,30.0,30.0,4.0,0.0
11798,75.0,0.0,60.0,0.0,0.0
11799,71.0,0.0,60.0,6.0,0.0
11800,59.0,0.0,60.0,3.0,0.0
11801,75.0,0.0,60.0,2.0,0.0
11802,47.0,0.0,60.0,5.0,0.0
11803,59.0,0.0,60.0,7.0,0.0
11804,75.0,30.0,60.0,1.0,0.0
11805,66.0,30.0,30.0,4.0,0.0
11806,59.0,0.0,30.0,4.0,0.0
11807,76.0,30.0,60.0,0.0,0.0
11808,76.0,0.0,60.0,2.0,0.0
11809,71.0,0.0,60.0,4.0,0.0
11810,64.0,0.0,60.0,3.0,0.0
11811,52.0,0.0,60.0,5.0,0.0
11812,76.0,0.0,60.0,1.0,0.0
11813,79.0,30.0,30.0,6.0,0.0
11814,64.0,0.0,60.0,7.0,0.0
11815,78.0,0.0,30.0,6.0,0.0
11816,71.0,0.0,60.0,1.0,0.0
11817,55.0,0.0,60.0,3.0,0.0
11818,71.0,0.0,60.0,0.0,0.0
11819,76.0,30.0,30.0,6.0,0.0
11820,55.0,0.0,60.0,5.0,0.0
11821,55.0,0.0,60.0,7.0,0.0
11822,71.0,30.0,60.0,2.0,0.0
11823,76.0,0.0,60.0,4.0,0.0
11824,79.0,0.0,30.0,6.0,0.0
11825,78.0,30.0,60.0,0.0,0.0
11826,78.0,30.0,30.0,6.0,0.0
11827,57.0,0.0,60.0,5.0,0.0
11828,78.0,0.0,60.0,1.0,0.0
11829,57.0,0.0,60.0,3.0,0.0
11830,78.0,0.0,60.0,2.0,0.0
11831,78.0,0.0,30.0,4.0,0.0
11832,57.0,0.0,60.0,7.0,0.0
11833,76.0,0.0,30.0,6.0,0.0
11834,79.0,0.0,30.0,4.0,0.0
11835,71.0,0.0,60.0,2.0,0.0
11836,71.0,0.0,60.0,1.0,0.0
11837,81.0,30.0,30.0,4.0,0.0
11838,59.0,0.0,60.0,7.0,0.0
11839,59.0,0.0,60.0,5.0,0.0
11840,71.0,0.0,60.0,0.0,0.0
11841,75.0,0.0,30.0,6.0,0.0
11842,59.0,30.0,60.0,3.0,0.0
11843,78.0,0.0,30.0,6.0,0.0
11844,78.0,0.0,30.0,4.0,0.0
11845,52.0,0.0,60.0,3.0,0.0
11846,52.0,0.0,60.0,5.0,0.0
11847,79.0,0.0,30.0,0.0,0.0
11848,52.0,0.0,60.0,7.0,0.0
11849,76.0,0.0,30.0,6.0,0.0
11850,79.0,1.0,30.0,2.0,0.0
11851,79.0,29.0,30.0,1.0,0.0
11852,79.0,0.0,30.0,4.0,0.0
11853,78.0,0.0,30.0,4.0,0.0
11854,78.0,0.0,30.0,0.0,0.0
11855,78.0,1.0,30.0,2.0,0.0
11856,78.0,29.0,30.0,1.0,0.0
11857,75.0,0.0,30.0,6.0,0.0
11858,79.0,0.0,30.0,0.0,0.0
11859,79.0,29.0,30.0,1.0,0.0
11860,47.0,0.0,60.0,5.0,0.0
11861,79.0,1.0,30.0,4.0,0.0
11862,79.0,0.0,30.0,2.0,0.0
11863,47.0,0.0,60.0,3.0,0.0
11864,59.0,0.0,60.0,7.0,0.0
11865,76.0,0.0,30.0,6.0,0.0
11866,78.0,0.0,30.0,2.0,0.0
11867,78.0,0.0,30.0,4.0,0.0
11868,78.0,29.0,30.0,1.0,0.0
11869,78.0,0.0,30.0,0.0,0.0
11870,75.0,1.0,30.0,6.0,0.0
11871,76.0,0.0,60.0,0.0,0.0
11872,76.0,30.0,30.0,4.0,0.0
11873,40.0,0.0,60.0,3.0,0.0
11874,40.0,30.0,60.0,5.0,0.0
11875,76.0,0.0,60.0,1.0,0.0
11876,76.0,0.0,60.0,2.0,0.0
11877,64.0,0.0,60.0,7.0,0.0
11878,76.0,0.0,60.0,6.0,0.0
11879,78.0,0.0,30.0,4.0,0.0
11880,79.0,30.0,30.0,4.0,0.0
11881,64.0,0.0,60.0,3.0,0.0
11882,71.0,30.0,120.0,7.0,0.0
11883,79.0,30.0,60.0,6.0,0.0
11884,52.0,0.0,60.0,5.0,0.0
11885,76.0,0.0,30.0,4.0,0.0
11886,51.0,0.0,60.0,5.0,0.0
11887,63.0,0.0,60.0,3.0,0.0
11888,78.0,0.0,60.0,6.0,0.0
11889,71.0,30.0,30.0,4.0,0.0
11890,70.0,0.0,30.0,4.0,0.0
11891,69.0,0.0,30.0,7.0,0.0
11892,75.0,30.0,30.0,6.0,0.0
11893,71.0,0.0,30.0,4.0,0.0
11894,54.0,30.0,60.0,5.0,0.0
11895,66.0,0.0,60.0,3.0,0.0
11896,73.0,0.0,30.0,4.0,0.0
11897,76.0,0.0,30.0,6.0,0.0
11898,67.0,0.0,30.0,7.0,0.0
11899,78.0,0.0,60.0,6.0,0.0
11900,47.0,0.0,60.0,5.0,0.0
11901,59.0,0.0,60.0,3.0,0.0
11902,75.0,30.0,30.0,4.0,0.0
11903,66.0,0.0,30.0,7.0,0.0
11904,64.0,0.0,30.0,7.0,0.0
11905,76.0,30.0,30.0,4.0,0.0
11906,63.0,30.0,60.0,3.0,0.0
11907,78.0,0.0,30.0,4.0,0.0
11908,51.0,0.0,60.0,5.0,0.0
11909,63.0,30.0,30.0,7.0,0.0
11910,83.0,0.0,120.0,6.0,0.0
11911,61.0,0.0,30.0,7.0,0.0
11912,79.0,0.0,30.0,4.0,0.0
11913,64.0,0.0,60.0,3.0,0.0
11914,81.0,0.0,30.0,4.0,0.0
11915,52.0,0.0,60.0,5.0,0.0
11916,59.0,30.0,30.0,7.0,0.0
11917,78.0,0.0,30.0,4.0,0.0
11918,63.0,30.0,30.0,7.0,0.0
11919,64.0,0.0,30.0,7.0,0.0
11920,52.0,0.0,60.0,3.0,0.0
11921,76.0,0.0,60.0,6.0,0.0
11922,59.0,0.0,60.0,5.0,0.0
11923,79.0,30.0,30.0,4.0,0.0
11924,76.0,30.0,30.0,4.0,0.0
11925,59.0,0.0,30.0,7.0,0.0
11926,64.0,0.0,60.0,5.0,0.0
11927,55.0,0.0,30.0,7.0,0.0
11928,64.0,0.0,60.0,3.0,0.0
11929,79.0,0.0,60.0,6.0,0.0
11930,71.0,30.0,30.0,4.0,0.0
11931,59.0,30.0,30.0,7.0,0.0
11932,76.0,0.0,30.0,4.0,0.0
11933,79.0,30.0,30.0,4.0,0.0
11934,52.0,0.0,30.0,7.0,0.0
11935,83.0,0.0,60.0,6.0,0.0
11936,76.0,0.0,60.0,0.0,0.0
11937,76.0,0.0,60.0,1.0,0.0
11938,76.0,30.0,60.0,2.0,0.0
11939,71.0,0.0,120.0,5.0,0.0
11940,55.0,0.0,30.0,7.0,0.0
11941,76.0,0.0,30.0,4.0,0.0
11942,75.0,0.0,60.0,0.0,0.0
11943,75.0,0.0,60.0,1.0,0.0
11944,51.0,0.0,60.0,7.0,0.0
11945,78.0,30.0,60.0,4.0,0.0
11946,75.0,0.0,60.0,2.0,0.0
11947,71.0,30.0,30.0,6.0,0.0
11948,70.0,0.0,30.0,6.0,0.0
11949,78.0,0.0,60.0,1.0,0.0
11950,71.0,0.0,30.0,6.0,0.0
11951,78.0,30.0,60.0,2.0,0.0
11952,69.0,30.0,30.0,5.0,0.0
11953,78.0,0.0,60.0,0.0,0.0
11954,75.0,0.0,30.0,4.0,0.0
11955,54.0,0.0,60.0,7.0,0.0
11956,73.0,0.0,30.0,6.0,0.0
11957,67.0,0.0,30.0,5.0,0.0
11958,76.0,0.0,30.0,4.0,0.0
11959,71.0,0.0,60.0,2.0,0.0
11960,75.0,30.0,30.0,6.0,0.0
11961,71.0,0.0,60.0,1.0,0.0
11962,47.0,0.0,60.0,7.0,0.0
11963,78.0,0.0,60.0,4.0,0.0
11964,71.0,30.0,60.0,0.0,0.0
11965,66.0,0.0,30.0,5.0,0.0
11966,64.0,0.0,30.0,5.0,0.0
11967,76.0,0.0,30.0,6.0,0.0
11968,75.0,0.0,60.0,2.0,0.0
11969,51.0,30.0,60.0,7.0,0.0
11970,75.0,0.0,60.0,0.0,0.0
11971,78.0,0.0,30.0,6.0,0.0
11972,59.0,0.0,60.0,3.0,0.0
11973,83.0,0.0,120.0,4.0,0.0
11974,75.0,0.0,60.0,1.0,0.0
11975,63.0,30.0,30.0,5.0,0.0
11976,61.0,0.0,30.0,5.0,0.0
11977,79.0,0.0,30.0,6.0,0.0
11978,52.0,0.0,60.0,7.0,0.0
11979,76.0,0.0,60.0,1.0,0.0
11980,81.0,0.0,30.0,6.0,0.0
11981,64.0,0.0,60.0,3.0,0.0
11982,76.0,0.0,60.0,0.0,0.0
11983,76.0,30.0,60.0,2.0,0.0
11984,59.0,30.0,30.0,5.0,0.0
11985,63.0,0.0,30.0,5.0,0.0
11986,78.0,0.0,30.0,6.0,0.0
11987,64.0,0.0,30.0,5.0,0.0
11988,59.0,0.0,60.0,7.0,0.0
11989,71.0,0.0,60.0,1.0,0.0
11990,76.0,0.0,60.0,4.0,0.0
11991,52.0,0.0,60.0,3.0,0.0
11992,71.0,0.0,60.0,0.0,0.0
11993,79.0,30.0,30.0,6.0,0.0
11994,71.0,30.0,60.0,2.0,0.0
11995,76.0,0.0,30.0,6.0,0.0
11996,59.0,0.0,30.0,5.0,0.0
11997,71.0,0.0,30.0,6.0,0.0
11998,79.0,0.0,60.0,4.0,0.0
11999,64.0,0.0,60.0,7.0,0.0
12000,64.0,0.0,60.0,2.0,0.0
12001,64.0,0.0,60.0,3.0,0.0
12002,64.0,30.0,60.0,1.0,0.0
12003,55.0,30.0,30.0,5.0,0.0
12004,64.0,0.0,60.0,0.0,0.0
12005,76.0,0.0,30.0,6.0,0.0
12006,59.0,0.0,30.0,5.0,0.0
12007,62.0,30.0,60.0,3.0,0.0
12008,52.0,0.0,30.0,5.0,0.0
12009,79.0,30.0,30.0,6.0,0.0
12010,71.0,0.0,60.0,7.0,0.0
12011,83.0,0.0,60.0,4.0,0.0
12012,55.0,0.0,30.0,5.0,0.0
12013,78.0,0.0,30.0,6.0,0.0
12014,69.0,30.0,60.0,7.0,0.0
12015,49.0,0.0,60.0,5.0,0.0
12016,61.0,0.0,60.0,3.0,0.0
12017,69.0,30.0,30.0,4.0,0.0
12018,79.0,0.0,60.0,6.0,0.0
12019,68.0,0.0,30.0,4.0,0.0
12020,67.0,0.0,30.0,7.0,0.0
12021,73.0,0.0,30.0,6.0,0.0
12022,69.0,30.0,30.0,4.0,0.0
12023,64.0,0.0,60.0,3.0,0.0
12024,52.0,30.0,60.0,5.0,0.0
12025,71.0,0.0,30.0,4.0,0.0
12026,66.0,0.0,30.0,7.0,0.0
12027,74.0,0.0,30.0,6.0,0.0
12028,64.0,30.0,30.0,7.0,0.0
12029,57.0,0.0,60.0,3.0,0.0
12030,45.0,30.0,60.0,5.0,0.0
12031,76.0,0.0,60.0,6.0,0.0
12032,73.0,0.0,30.0,4.0,0.0
12033,74.0,0.0,30.0,4.0,0.0
12034,62.0,0.0,30.0,7.0,0.0
12035,76.0,30.0,30.0,4.0,0.0
12036,61.0,0.0,30.0,7.0,0.0
12037,49.0,0.0,60.0,5.0,0.0
12038,81.0,30.0,120.0,6.0,0.0
12039,61.0,0.0,60.0,3.0,0.0
12040,59.0,0.0,30.0,7.0,0.0
12041,78.0,30.0,30.0,4.0,0.0
12042,57.0,0.0,30.0,7.0,0.0
12043,62.0,0.0,60.0,3.0,0.0
12044,50.0,0.0,60.0,5.0,0.0
12045,79.0,30.0,30.0,4.0,0.0
12046,76.0,0.0,30.0,4.0,0.0
12047,61.0,0.0,30.0,7.0,0.0
12048,78.0,0.0,30.0,4.0,0.0
12049,50.0,0.0,60.0,3.0,0.0
12050,57.0,0.0,60.0,5.0,0.0
12051,62.0,30.0,30.0,7.0,0.0
12052,74.0,30.0,60.0,6.0,0.0
12053,57.0,0.0,30.0,7.0,0.0
12054,74.0,0.0,30.0,4.0,0.0
12055,62.0,0.0,60.0,3.0,0.0
12056,62.0,0.0,60.0,5.0,0.0
12057,78.0,0.0,60.0,6.0,0.0
12058,54.0,0.0,30.0,7.0,0.0
12059,69.0,30.0,30.0,4.0,0.0
12060,74.0,30.0,30.0,4.0,0.0
12061,57.0,0.0,30.0,7.0,0.0
12062,69.0,0.0,120.0,5.0,0.0
12063,81.0,0.0,60.0,6.0,0.0
12064,50.0,0.0,30.0,7.0,0.0
12065,74.0,30.0,60.0,1.0,0.0
12066,74.0,0.0,60.0,2.0,0.0
12067,78.0,30.0,30.0,4.0,0.0
12068,74.0,0.0,60.0,0.0,0.0
12069,54.0,0.0,30.0,7.0,0.0
12070,74.0,0.0,30.0,4.0,0.0
12071,73.0,0.0,60.0,2.0,0.0
12072,76.0,30.0,60.0,4.0,0.0
12073,49.0,0.0,60.0,7.0,0.0
12074,69.0,30.0,30.0,6.0,0.0
12075,73.0,0.0,60.0,1.0,0.0
12076,73.0,0.0,60.0,0.0,0.0
12077,68.0,0.0,30.0,6.0,0.0
12078,67.0,30.0,30.0,5.0,0.0
12079,52.0,0.0,60.0,7.0,0.0
12080,73.0,0.0,30.0,4.0,0.0
12081,76.0,0.0,60.0,2.0,0.0
12082,76.0,0.0,60.0,0.0,0.0
12083,69.0,0.0,30.0,6.0,0.0
12084,76.0,0.0,60.0,1.0,0.0
12085,74.0,30.0,30.0,4.0,0.0
12086,71.0,0.0,30.0,6.0,0.0
12087,66.0,0.0,30.0,5.0,0.0
12088,69.0,0.0,60.0,2.0,0.0
12089,64.0,0.0,30.0,5.0,0.0
12090,73.0,30.0,30.0,6.0,0.0
12091,76.0,0.0,60.0,4.0,0.0
12092,45.0,0.0,60.0,7.0,0.0
12093,69.0,0.0,60.0,0.0,0.0
12094,69.0,0.0,60.0,1.0,0.0
12095,62.0,0.0,30.0,5.0,0.0
12096,74.0,30.0,30.0,6.0,0.0
12097,61.0,30.0,30.0,5.0,0.0
12098,73.0,0.0,60.0,0.0,0.0
12099,49.0,0.0,60.0,7.0,0.0
12100,73.0,0.0,60.0,1.0,0.0
12101,73.0,0.0,60.0,2.0,0.0
12102,81.0,0.0,120.0,4.0,0.0
12103,76.0,0.0,30.0,6.0,0.0
12104,57.0,0.0,60.0,3.0,0.0
12105,78.0,30.0,30.0,6.0,0.0
12106,59.0,0.0,30.0,5.0,0.0
12107,74.0,0.0,60.0,1.0,0.0
12108,57.0,0.0,30.0,5.0,0.0
12109,74.0,30.0,60.0,2.0,0.0
12110,50.0,0.0,60.0,7.0,0.0
12111,74.0,0.0,60.0,0.0,0.0
12112,62.0,0.0,60.0,3.0,0.0
12113,79.0,30.0,30.0,6.0,0.0
12114,76.0,0.0,30.0,6.0,0.0
12115,61.0,0.0,30.0,5.0,0.0
12116,69.0,0.0,60.0,0.0,0.0
12117,69.0,0.0,60.0,2.0,0.0
12118,50.0,0.0,60.0,3.0,0.0
12119,69.0,0.0,60.0,1.0,0.0
12120,74.0,0.0,60.0,4.0,0.0
12121,57.0,30.0,60.0,7.0,0.0
12122,78.0,0.0,30.0,6.0,0.0
12123,62.0,30.0,30.0,5.0,0.0
12124,74.0,0.0,30.0,6.0,0.0
12125,57.0,0.0,30.0,5.0,0.0
12126,54.0,0.0,30.0,5.0,0.0
12127,62.0,0.0,60.0,2.0,0.0
12128,62.0,0.0,60.0,3.0,0.0
12129,62.0,0.0,60.0,7.0,0.0
12130,69.0,30.0,30.0,6.0,0.0
12131,78.0,0.0,60.0,4.0,0.0
12132,62.0,0.0,60.0,0.0,0.0
12133,62.0,0.0,60.0,1.0,0.0
12134,57.0,0.0,30.0,5.0,0.0
12135,74.0,30.0,30.0,6.0,0.0
12136,67.0,0.0,60.0,3.0,0.0
12137,55.0,30.0,30.0,5.0,0.0
12138,71.0,0.0,60.0,1.0,0.0
12139,62.0,0.0,60.0,2.0,0.0
12140,55.0,0.0,60.0,7.0,0.0
12141,71.0,30.0,60.0,4.0,0.0
12142,78.0,0.0,30.0,6.0,0.0
12143,71.0,0.0,60.0,0.0,0.0
12144,59.0,0.0,30.0,5.0,0.0
12145,74.0,0.0,30.0,6.0,0.0
12146,76.0,0.0,120.0,4.0,0.0
12147,49.0,0.0,60.0,5.0,0.0
12148,61.0,29.0,30.0,3.0,0.0
12149,49.0,30.0,60.0,7.0,0.0
12150,61.0,1.0,30.0,2.0,0.0
12151,76.0,0.0,60.0,0.0,0.0
12152,70.0,0.0,60.0,1.0,0.0
12153,76.0,0.0,120.0,6.0,0.0
12154,62.0,0.0,30.0,2.0,0.0
12155,67.0,30.0,60.0,7.0,0.0
12156,64.0,1.0,30.0,2.0,0.0
12157,67.0,0.0,60.0,5.0,0.0
12158,67.0,29.0,30.0,3.0,0.0
12159,71.0,0.0,120.0,1.0,0.0
12160,66.0,0.0,30.0,2.0,0.0
12161,76.0,0.0,60.0,0.0,0.0
12162,76.0,0.0,120.0,6.0,0.0
12163,59.0,29.0,30.0,3.0,0.0
12164,67.0,1.0,30.0,2.0,0.0
12165,59.0,30.0,60.0,5.0,0.0
12166,76.0,30.0,120.0,4.0,0.0
12167,59.0,0.0,60.0,7.0,0.0
12168,69.0,0.0,30.0,2.0,0.0
12169,67.0,0.0,60.0,5.0,0.0
12170,73.0,0.0,60.0,1.0,0.0
12171,67.0,29.0,30.0,3.0,0.0
12172,67.0,1.0,30.0,2.0,0.0
12173,67.0,0.0,60.0,7.0,0.0
12174,69.0,0.0,30.0,2.0,0.0
12175,58.0,30.0,30.0,3.0,0.0
12176,58.0,0.0,30.0,7.0,0.0
12177,66.0,0.0,30.0,2.0,0.0
12178,76.0,30.0,120.0,6.0,0.0
12179,76.0,0.0,120.0,4.0,0.0
12180,58.0,0.0,30.0,5.0,0.0
12181,73.0,0.0,120.0,1.0,0.0
12182,76.0,0.0,120.0,0.0,0.0
12183,56.0,0.0,30.0,5.0,0.0
12184,64.0,0.0,30.0,2.0,0.0
12185,56.0,30.0,30.0,7.0,0.0
12186,56.0,0.0,30.0,3.0,0.0
12187,58.0,0.0,30.0,5.0,0.0
12188,58.0,0.0,30.0,7.0,0.0
12189,66.0,30.0,30.0,2.0,0.0
12190,58.0,0.0,30.0,3.0,0.0
12191,56.0,0.0,30.0,5.0,0.0
12192,56.0,0.0,30.0,7.0,0.0
12193,56.0,0.0,30.0,3.0,0.0
12194,64.0,0.0,30.0,2.0,0.0
12195,66.0,0.0,120.0,2.0,0.0
12196,54.0,0.0,30.0,5.0,0.0
12197,54.0,0.0,30.0,7.0,0.0
12198,54.0,30.0,30.0,3.0,0.0
12199,74.0,0.0,30.0,6.0,0.0
12200,56.0,0.0,30.0,3.0,0.0
12201,56.0,0.0,30.0,5.0,0.0
12202,56.0,0.0,30.0,7.0,0.0
12203,74.0,0.0,30.0,4.0,0.0
12204,71.0,0.0,30.0,1.0,0.0
12205,74.0,30.0,30.0,0.0,0.0
12206,58.0,0.0,30.0,3.0,0.0
12207,58.0,0.0,30.0,5.0,0.0
12208,73.0,0.0,30.0,4.0,0.0
12209,58.0,0.0,30.0,7.0,0.0
12210,73.0,30.0,30.0,6.0,0.0
12211,73.0,0.0,30.0,0.0,0.0
12212,73.0,0.0,30.0,1.0,0.0
12213,54.0,0.0,30.0,5.0,0.0
12214,54.0,30.0,30.0,3.0,0.0
12215,70.0,0.0,30.0,1.0,0.0
12216,76.0,0.0,30.0,6.0,0.0
12217,76.0,0.0,30.0,4.0,0.0
12218,54.0,0.0,30.0,7.0,0.0
12219,76.0,0.0,30.0,0.0,0.0
12220,74.0,0.0,30.0,0.0,0.0
12221,47.0,30.0,60.0,7.0,0.0
12222,74.0,0.0,30.0,6.0,0.0
12223,59.0,29.0,30.0,3.0,0.0
12224,74.0,1.0,30.0,4.0,0.0
12225,71.0,0.0,60.0,1.0,0.0
12226,47.0,0.0,60.0,5.0,0.0
12227,73.0,0.0,30.0,6.0,0.0
12228,73.0,0.0,30.0,0.0,0.0
12229,67.0,0.0,30.0,2.0,0.0
12230,73.0,0.0,30.0,4.0,0.0
12231,66.0,0.0,60.0,5.0,0.0
12232,74.0,0.0,90.0,0.0,0.0
12233,74.0,0.0,90.0,4.0,0.0
12234,66.0,29.0,30.0,3.0,0.0
12235,66.0,1.0,30.0,2.0,0.0
12236,74.0,1.0,90.0,6.0,0.0
12237,66.0,30.0,60.0,7.0,0.0
12238,67.0,0.0,30.0,2.0,0.0
12239,66.0,0.0,30.0,2.0,0.0
12240,57.0,0.0,60.0,5.0,0.0
12241,57.0,29.0,30.0,3.0,0.0
12242,57.0,0.0,60.0,7.0,0.0
12243,71.0,30.0,60.0,1.0,0.0
12244,73.0,0.0,30.0,6.0,0.0
12245,67.0,0.0,30.0,2.0,0.0
12246,73.0,0.0,30.0,4.0,0.0
12247,73.0,0.0,30.0,0.0,0.0
12248,66.0,0.0,60.0,7.0,0.0
12249,66.0,29.0,30.0,3.0,0.0
12250,74.0,0.0,90.0,4.0,0.0
12251,66.0,1.0,30.0,2.0,0.0
12252,74.0,0.0,90.0,6.0,0.0
12253,66.0,0.0,60.0,5.0,0.0
12254,74.0,30.0,90.0,0.0,0.0
12255,67.0,30.0,30.0,2.0,0.0
12256,56.0,0.0,30.0,3.0,0.0
12257,56.0,0.0,30.0,7.0,0.0
12258,65.0,0.0,30.0,2.0,0.0
12259,71.0,0.0,180.0,1.0,0.0
12260,56.0,0.0,30.0,5.0,0.0
12261,71.0,0.0,30.0,6.0,0.0
12262,66.0,30.0,30.0,2.0,0.0
12263,71.0,0.0,30.0,0.0,0.0
12264,54.0,0.0,30.0,3.0,0.0
12265,54.0,0.0,30.0,5.0,0.0
12266,71.0,0.0,30.0,4.0,0.0
12267,54.0,0.0,30.0,7.0,0.0
12268,74.0,0.0,120.0,4.0,0.0
12269,74.0,0.0,120.0,0.0,0.0
12270,56.0,30.0,30.0,5.0,0.0
12271,74.0,0.0,120.0,6.0,0.0
12272,56.0,0.0,30.0,7.0,0.0
12273,56.0,0.0,30.0,3.0,0.0
12274,65.0,0.0,30.0,2.0,0.0
12275,66.0,0.0,30.0,2.0,0.0
12276,54.0,0.0,30.0,7.0,0.0
12277,54.0,0.0,30.0,3.0,0.0
12278,54.0,30.0,30.0,5.0,0.0
12279,53.0,0.0,30.0,5.0,0.0
12280,53.0,30.0,30.0,7.0,0.0
12281,68.0,0.0,60.0,2.0,0.0
12282,53.0,0.0,30.0,3.0,0.0
12283,54.0,30.0,30.0,5.0,0.0
12284,54.0,0.0,30.0,3.0,0.0
12285,54.0,0.0,30.0,7.0,0.0
12286,73.0,0.0,30.0,6.0,0.0
12287,61.0,0.0,60.0,1.0,0.0
12288,56.0,0.0,30.0,7.0,0.0
12289,73.0,0.0,30.0,4.0,0.0
12290,56.0,0.0,30.0,3.0,0.0
12291,73.0,30.0,30.0,0.0,0.0
12292,56.0,0.0,30.0,5.0,0.0
12293,65.0,0.0,60.0,2.0,0.0
12294,71.0,0.0,30.0,6.0,0.0
12295,53.0,0.0,30.0,5.0,0.0
12296,53.0,0.0,30.0,7.0,0.0
12297,71.0,0.0,30.0,4.0,0.0
12298,71.0,30.0,30.0,0.0,0.0
12299,53.0,0.0,30.0,3.0,0.0
12300,66.0,0.0,60.0,1.0,0.0
12301,70.0,0.0,60.0,0.0,0.0
12302,61.0,0.0,60.0,2.0,0.0
12303,54.0,30.0,30.0,5.0,0.0
12304,54.0,0.0,30.0,3.0,0.0
12305,70.0,0.0,60.0,6.0,0.0
12306,70.0,0.0,60.0,4.0,0.0
12307,54.0,0.0,30.0,7.0,0.0
12308,55.0,30.0,30.0,7.0,0.0
12309,55.0,0.0,30.0,5.0,0.0
12310,55.0,0.0,30.0,3.0,0.0
12311,54.0,0.0,30.0,7.0,0.0
12312,54.0,0.0,30.0,5.0,0.0
12313,73.0,0.0,60.0,6.0,0.0
12314,73.0,0.0,60.0,4.0,0.0
12315,73.0,0.0,60.0,0.0,0.0
12316,54.0,30.0,30.0,3.0,0.0
12317,66.0,0.0,60.0,2.0,0.0
12318,70.0,0.0,60.0,1.0,0.0
12319,55.0,0.0,30.0,3.0,0.0
12320,55.0,0.0,30.0,7.0,0.0
12321,55.0,30.0,30.0,5.0,0.0
12322,76.0,0.0,60.0,4.0,0.0
12323,54.0,30.0,30.0,3.0,0.0
12324,54.0,0.0,30.0,7.0,0.0
12325,54.0,0.0,30.0,5.0,0.0
12326,73.0,30.0,180.0,1.0,0.0
12327,76.0,30.0,60.0,0.0,0.0
12328,70.0,0.0,60.0,2.0,0.0
12329,76.0,0.0,60.0,6.0,0.0
12330,55.0,0.0,30.0,5.0,0.0
12331,55.0,0.0,30.0,3.0,0.0
12332,55.0,0.0,30.0,7.0,0.0
12333,85.0,0.0,60.0,6.0,0.0
12334,52.0,0.0,30.0,7.0,0.0
12335,58.0,0.0,60.0,2.0,0.0
12336,52.0,30.0,30.0,3.0,0.0
12337,52.0,0.0,30.0,5.0,0.0
12338,85.0,0.0,60.0,4.0,0.0
12339,85.0,0.0,60.0,0.0,0.0
12340,54.0,30.0,30.0,3.0,0.0
12341,54.0,0.0,30.0,5.0,0.0
12342,54.0,0.0,30.0,7.0,0.0
12343,55.0,0.0,60.0,7.0,0.0
12344,74.0,0.0,30.0,0.0,0.0
12345,74.0,0.0,30.0,4.0,0.0
12346,59.0,0.0,120.0,2.0,0.0
12347,55.0,0.0,60.0,3.0,0.0
12348,74.0,30.0,30.0,6.0,0.0
12349,55.0,0.0,60.0,5.0,0.0
12350,73.0,0.0,30.0,0.0,0.0
12351,73.0,0.0,30.0,6.0,0.0
12352,73.0,0.0,30.0,4.0,0.0
12353,74.0,30.0,30.0,4.0,0.0
12354,54.0,0.0,30.0,3.0,0.0
12355,74.0,0.0,30.0,6.0,0.0
12356,54.0,0.0,30.0,7.0,0.0
12357,74.0,0.0,30.0,0.0,0.0
12358,71.0,0.0,30.0,1.0,0.0
12359,54.0,0.0,30.0,5.0,0.0
12360,73.0,0.0,30.0,6.0,0.0
12361,52.0,0.0,30.0,5.0,0.0
12362,52.0,0.0,30.0,7.0,0.0
12363,70.0,0.0,30.0,1.0,0.0
12364,73.0,30.0,30.0,0.0,0.0
12365,73.0,0.0,30.0,4.0,0.0
12366,52.0,0.0,30.0,3.0,0.0
12367,71.0,30.0,30.0,0.0,0.0
12368,50.0,0.0,30.0,3.0,0.0
12369,50.0,0.0,30.0,7.0,0.0
12370,50.0,0.0,30.0,5.0,0.0
12371,71.0,0.0,30.0,6.0,0.0
12372,71.0,0.0,30.0,4.0,0.0
12373,71.0,0.0,60.0,1.0,0.0
12374,73.0,0.0,30.0,6.0,0.0
12375,55.0,0.0,30.0,7.0,0.0
12376,73.0,0.0,30.0,4.0,0.0
12377,73.0,0.0,30.0,0.0,0.0
12378,55.0,0.0,30.0,3.0,0.0
12379,64.0,30.0,30.0,2.0,0.0
12380,55.0,0.0,30.0,5.0,0.0
12381,54.0,0.0,30.0,5.0,0.0
12382,59.0,0.0,30.0,1.0,0.0
12383,74.0,0.0,30.0,4.0,0.0
12384,74.0,0.0,30.0,0.0,0.0
12385,62.0,0.0,30.0,2.0,0.0
12386,74.0,0.0,30.0,6.0,0.0
12387,54.0,0.0,30.0,3.0,0.0
12388,54.0,30.0,30.0,7.0,0.0
12389,52.0,30.0,30.0,7.0,0.0
12390,76.0,0.0,30.0,6.0,0.0
12391,61.0,0.0,30.0,2.0,0.0
12392,76.0,0.0,30.0,0.0,0.0
12393,76.0,0.0,30.0,4.0,0.0
12394,61.0,0.0,30.0,1.0,0.0
12395,52.0,0.0,30.0,5.0,0.0
12396,52.0,0.0,30.0,3.0,0.0
12397,78.0,0.0,60.0,4.0,0.0
12398,50.0,0.0,30.0,5.0,0.0
12399,78.0,0.0,60.0,0.0,0.0
12400,62.0,0.0,60.0,1.0,0.0
12401,59.0,0.0,60.0,2.0,0.0
12402,78.0,30.0,60.0,6.0,0.0
12403,50.0,30.0,30.0,3.0,0.0
12404,50.0,0.0,30.0,7.0,0.0
12405,55.0,0.0,30.0,7.0,0.0
12406,55.0,0.0,30.0,3.0,0.0
12407,55.0,0.0,30.0,5.0,0.0
12408,61.0,0.0,60.0,2.0,0.0
12409,54.0,0.0,30.0,3.0,0.0
12410,54.0,30.0,30.0,7.0,0.0
12411,54.0,0.0,30.0,5.0,0.0
12412,71.0,0.0,60.0,0.0,0.0
12413,71.0,0.0,60.0,6.0,0.0
12414,71.0,0.0,60.0,4.0,0.0
12415,67.0,0.0,60.0,1.0,0.0
12416,52.0,0.0,30.0,3.0,0.0
12417,52.0,60.0,30.0,5.0,0.0
12418,52.0,0.0,30.0,7.0,0.0
12419,62.0,0.0,60.0,2.0,0.0
12420,66.0,0.0,60.0,1.0,0.0
12421,54.0,0.0,60.0,5.0,0.0
12422,54.0,0.0,60.0,3.0,0.0
12423,54.0,0.0,60.0,7.0,0.0
12424,66.0,0.0,60.0,4.0,0.0
12425,66.0,60.0,60.0,6.0,0.0
12426,66.0,0.0,60.0,0.0,0.0
12427,70.0,0.0,60.0,0.0,0.0
12428,70.0,0.0,60.0,4.0,0.0
12429,42.0,0.0,60.0,7.0,0.0
12430,42.0,0.0,60.0,3.0,0.0
12431,70.0,0.0,60.0,6.0,0.0
12432,61.0,0.0,60.0,2.0,0.0
12433,66.0,0.0,60.0,1.0,0.0
12434,42.0,30.0,60.0,5.0,0.0
12435,62.0,0.0,120.0,2.0,0.0
12436,71.0,30.0,30.0,4.0,0.0
12437,71.0,0.0,120.0,0.0,0.0
12438,71.0,30.0,120.0,6.0,0.0
12439,47.0,30.0,90.0,5.0,0.0
12440,47.0,0.0,120.0,3.0,0.0
12441,66.0,0.0,120.0,1.0,0.0
12442,47.0,0.0,120.0,7.0,0.0
12443,66.0,30.0,30.0,4.0,0.0
12444,68.0,0.0,30.0,4.0,0.0
12445,70.0,0.0,30.0,4.0,0.0
12446,54.0,0.0,30.0,5.0,0.0
12447,71.0,0.0,30.0,4.0,0.0
12448,56.0,30.0,30.0,5.0,0.0
12449,73.0,0.0,30.0,4.0,0.0
12450,58.0,30.0,30.0,5.0,0.0
12451,78.0,21.0,60.0,6.0,0.0
12452,74.0,0.0,30.0,4.0,0.0
12453,59.0,30.0,30.0,5.0,0.0
12454,47.0,0.0,60.0,7.0,0.0
12455,61.0,0.0,30.0,5.0,0.0
12456,76.0,0.0,30.0,4.0,0.0
12457,78.0,20.0,20.0,4.0,0.0
12458,62.0,0.0,60.0,5.0,0.0
12459,78.0,20.0,1080.0,0.0,0.0
12460,59.0,0.0,120.0,3.0,0.0
12461,66.0,0.0,840.0,2.0,0.0
12462,71.0,0.0,240.0,1.0,0.0
12463,59.0,1.0,120.0,7.0,0.0
12464,74.0,1.0,60.0,6.0,0.0
12465,83.0,19.0,20.0,4.0,0.0
12466,85.0,20.0,20.0,4.0,0.0
12467,86.0,20.0,20.0,4.0,0.0
12468,78.0,0.0,60.0,6.0,0.0
12469,59.0,0.0,60.0,5.0,0.0
12470,85.0,19.0,20.0,4.0,0.0
12471,83.0,20.0,20.0,4.0,0.0
12472,62.0,0.0,120.0,7.0,0.0
12473,62.0,0.0,120.0,3.0,0.0
12474,71.0,1.0,60.0,6.0,0.0
12475,62.0,0.0,60.0,5.0,0.0
12476,78.0,20.0,20.0,4.0,0.0
12477,83.0,19.0,20.0,4.0,0.0
12478,85.0,20.0,20.0,4.0,0.0
12479,78.0,0.0,60.0,6.0,0.0
12480,59.0,1.0,60.0,5.0,0.0
12481,86.0,20.0,20.0,4.0,0.0
12482,85.0,19.0,20.0,4.0,0.0
12483,83.0,20.0,20.0,4.0,0.0
12484,66.0,0.0,120.0,3.0,0.0
12485,66.0,0.0,120.0,7.0,0.0
12486,78.0,9.0,20.0,4.0,0.0
12487,70.0,11.0,30.0,6.0,0.0
12488,73.0,0.0,240.0,1.0,0.0
12489,66.0,0.0,120.0,5.0,0.0
12490,82.0,19.0,20.0,4.0,0.0
12491,68.0,1.0,30.0,6.0,0.0
12492,83.0,20.0,20.0,4.0,0.0
12493,70.0,11.0,30.0,6.0,0.0
12494,85.0,9.0,20.0,4.0,0.0
12495,83.0,19.0,20.0,4.0,0.0
12496,68.0,1.0,30.0,6.0,0.0
12497,82.0,20.0,20.0,4.0,0.0
12498,66.0,1.0,60.0,6.0,0.0
12499,78.0,20.0,20.0,4.0,0.0
12500,82.0,19.0,20.0,4.0,0.0
12501,83.0,20.0,20.0,4.0,0.0
12502,64.0,0.0,60.0,3.0,0.0
12503,85.0,20.0,20.0,4.0,0.0
12504,64.0,1.0,60.0,5.0,0.0
12505,83.0,19.0,20.0,4.0,0.0
12506,82.0,20.0,20.0,4.0,0.0
12507,74.0,0.0,240.0,1.0,0.0
12508,78.0,10.0,20.0,4.0,0.0
12509,62.0,1.0,60.0,5.0,0.0
12510,62.0,10.0,30.0,3.0,0.0
12511,83.0,19.0,20.0,4.0,0.0
12512,85.0,20.0,20.0,4.0,0.0
12513,66.0,10.0,30.0,3.0,0.0
12514,66.0,1.0,60.0,5.0,0.0
12515,86.0,10.0,20.0,4.0,0.0
12516,85.0,19.0,20.0,4.0,0.0
12517,83.0,20.0,20.0,4.0,0.0
12518,59.0,1.0,60.0,5.0,0.0
12519,59.0,10.0,30.0,3.0,0.0
12520,78.0,10.0,20.0,4.0,0.0
12521,83.0,19.0,20.0,4.0,0.0
12522,85.0,20.0,20.0,4.0,0.0
12523,66.0,10.0,30.0,3.0,0.0
12524,86.0,10.0,20.0,4.0,0.0
12525,66.0,1.0,60.0,5.0,0.0
12526,85.0,19.0,20.0,4.0,0.0
12527,83.0,20.0,20.0,4.0,0.0
12528,78.0,9.0,20.0,4.0,0.0
12529,58.0,1.0,30.0,3.0,0.0
12530,58.0,10.0,30.0,5.0,0.0
12531,73.0,1.0,180.0,1.0,0.0
12532,82.0,19.0,20.0,4.0,0.0
12533,56.0,1.0,30.0,3.0,0.0
12534,56.0,0.0,30.0,5.0,0.0
12535,83.0,20.0,20.0,4.0,0.0
12536,85.0,9.0,20.0,4.0,0.0
12537,58.0,1.0,30.0,3.0,0.0
12538,58.0,10.0,30.0,5.0,0.0
12539,83.0,19.0,20.0,4.0,0.0
12540,56.0,1.0,30.0,3.0,0.0
12541,56.0,0.0,30.0,5.0,0.0
12542,82.0,20.0,20.0,4.0,0.0
12543,70.0,0.0,120.0,2.0,0.0
12544,54.0,0.0,60.0,5.0,0.0
12545,54.0,0.0,60.0,3.0,0.0
12546,78.0,20.0,20.0,4.0,0.0
12547,82.0,19.0,20.0,4.0,0.0
12548,83.0,20.0,20.0,4.0,0.0
12549,54.0,1.0,60.0,7.0,0.0
12550,73.0,0.0,60.0,6.0,0.0
12551,76.0,0.0,60.0,1.0,0.0
12552,85.0,20.0,20.0,4.0,0.0
12553,83.0,19.0,20.0,4.0,0.0
12554,82.0,20.0,20.0,4.0,0.0
12555,74.0,1.0,240.0,1.0,0.0
12556,78.0,20.0,20.0,4.0,0.0
12557,59.0,1.0,60.0,3.0,0.0
12558,71.0,0.0,240.0,2.0,0.0
12559,74.0,0.0,60.0,6.0,0.0
12560,59.0,1.0,120.0,7.0,0.0
12561,83.0,19.0,20.0,4.0,0.0
12562,85.0,20.0,20.0,4.0,0.0
12563,86.0,20.0,20.0,4.0,0.0
12564,47.0,0.0,60.0,5.0,0.0
12565,78.0,0.0,60.0,6.0,0.0
12566,85.0,19.0,20.0,4.0,0.0
12567,83.0,0.0,20.0,4.0,0.0
12568,79.0,20.0,20.0,4.0,0.0
12569,59.0,0.0,60.0,5.0,0.0
12570,47.0,0.0,60.0,3.0,0.0
12571,79.0,20.0,120.0,0.0,0.0
12572,71.0,1.0,60.0,6.0,0.0
12573,47.0,0.0,120.0,7.0,0.0
12574,83.0,19.0,20.0,4.0,0.0
12575,85.0,20.0,20.0,4.0,0.0
12576,86.0,20.0,20.0,4.0,0.0
12577,55.0,0.0,60.0,5.0,0.0
12578,79.0,11.0,90.0,6.0,0.0
12579,85.0,19.0,20.0,4.0,0.0
12580,83.0,0.0,20.0,4.0,0.0
12581,49.0,1.0,120.0,3.0,0.0
12582,49.0,0.0,120.0,7.0,0.0
12583,81.0,29.0,1200.0,0.0,0.0
12584,79.0,9.0,20.0,4.0,0.0
12585,69.0,1.0,240.0,2.0,0.0
12586,76.0,0.0,240.0,1.0,0.0
12587,61.0,0.0,120.0,5.0,0.0
12588,85.0,19.0,20.0,4.0,0.0
12589,78.0,1.0,30.0,6.0,0.0
12590,86.0,20.0,20.0,4.0,0.0
12591,88.0,9.0,20.0,4.0,0.0
12592,79.0,11.0,30.0,6.0,0.0
12593,86.0,19.0,20.0,4.0,0.0
12594,78.0,0.0,30.0,6.0,0.0
12595,85.0,20.0,20.0,4.0,0.0
12596,76.0,1.0,60.0,6.0,0.0
12597,81.0,20.0,20.0,4.0,0.0
12598,85.0,19.0,20.0,4.0,0.0
12599,86.0,20.0,20.0,4.0,0.0
12600,57.0,0.0,60.0,5.0,0.0
12601,57.0,0.0,60.0,3.0,0.0
12602,88.0,20.0,20.0,4.0,0.0
12603,86.0,19.0,20.0,4.0,0.0
12604,85.0,20.0,20.0,4.0,0.0
12605,78.0,0.0,240.0,1.0,0.0
12606,54.0,10.0,30.0,3.0,0.0
12607,74.0,0.0,240.0,2.0,0.0
12608,54.0,1.0,60.0,5.0,0.0
12609,81.0,10.0,20.0,4.0,0.0
12610,86.0,19.0,20.0,4.0,0.0
12611,88.0,20.0,20.0,4.0,0.0
12612,57.0,10.0,30.0,3.0,0.0
12613,57.0,1.0,60.0,5.0,0.0
12614,90.0,10.0,20.0,4.0,0.0
12615,88.0,19.0,20.0,4.0,0.0
12616,86.0,20.0,20.0,4.0,0.0
12617,50.0,10.0,30.0,3.0,0.0
12618,50.0,1.0,60.0,5.0,0.0
12619,81.0,10.0,20.0,4.0,0.0
12620,86.0,19.0,20.0,4.0,0.0
12621,88.0,20.0,20.0,4.0,0.0
12622,54.0,10.0,30.0,3.0,0.0
12623,54.0,1.0,60.0,5.0,0.0
12624,90.0,10.0,20.0,4.0,0.0
12625,88.0,19.0,20.0,4.0,0.0
12626,86.0,20.0,20.0,4.0,0.0
12627,49.0,11.0,30.0,5.0,0.0
12628,76.0,0.0,120.0,1.0,0.0
12629,81.0,9.0,20.0,4.0,0.0
12630,49.0,0.0,30.0,3.0,0.0
12631,69.0,0.0,180.0,2.0,0.0
12632,85.0,19.0,20.0,4.0,0.0
12633,47.0,0.0,30.0,3.0,0.0
12634,47.0,1.0,30.0,5.0,0.0
12635,86.0,20.0,20.0,4.0,0.0
12636,88.0,9.0,20.0,4.0,0.0
12637,49.0,11.0,30.0,5.0,0.0
12638,49.0,0.0,30.0,3.0,0.0
12639,86.0,19.0,20.0,4.0,0.0
12640,47.0,0.0,30.0,5.0,0.0
12641,47.0,1.0,30.0,3.0,0.0
12642,85.0,20.0,20.0,4.0,0.0
12643,45.0,1.0,60.0,3.0,0.0
12644,73.0,0.0,240.0,1.0,0.0
12645,81.0,20.0,20.0,4.0,0.0
12646,45.0,0.0,60.0,5.0,0.0
12647,85.0,19.0,20.0,4.0,0.0
12648,86.0,20.0,20.0,4.0,0.0
12649,67.0,1.0,60.0,2.0,0.0
12650,76.0,0.0,60.0,6.0,0.0
12651,88.0,20.0,20.0,4.0,0.0
12652,49.0,0.0,60.0,7.0,0.0
12653,86.0,19.0,20.0,4.0,0.0
12654,85.0,29.0,20.0,4.0,0.0
12655,81.0,30.0,60.0,6.0,0.0
12656,66.0,0.0,60.0,2.0,0.0
12657,42.0,0.0,120.0,7.0,0.0
12658,90.0,30.0,30.0,4.0,0.0
12659,81.0,0.0,30.0,4.0,0.0
12660,90.0,1.0,30.0,4.0,0.0
12661,78.0,30.0,60.0,6.0,0.0
12662,54.0,29.0,30.0,3.0,0.0
12663,81.0,0.0,30.0,4.0,0.0
12664,72.0,1.0,30.0,4.0,0.0
12665,54.0,0.0,120.0,7.0,0.0
12666,72.0,0.0,120.0,1.0,0.0
12667,42.0,29.0,30.0,3.0,0.0
12668,81.0,30.0,60.0,6.0,0.0
12669,81.0,0.0,30.0,4.0,0.0
12670,72.0,30.0,30.0,4.0,0.0
12671,66.0,0.0,60.0,2.0,0.0
12672,76.0,30.0,60.0,6.0,0.0
12673,81.0,0.0,30.0,4.0,0.0
12674,71.0,0.0,480.0,1.0,0.0
12675,75.0,0.0,30.0,6.0,0.0
12676,71.0,0.0,60.0,2.0,0.0
12677,90.0,30.0,30.0,4.0,0.0
12678,47.0,0.0,120.0,7.0,0.0
12679,81.0,30.0,30.0,4.0,0.0
12680,73.0,0.0,30.0,6.0,0.0
12681,59.0,29.0,30.0,3.0,0.0
12682,75.0,1.0,30.0,6.0,0.0
12683,90.0,0.0,30.0,4.0,0.0
12684,81.0,0.0,30.0,4.0,0.0
12685,73.0,30.0,30.0,6.0,0.0
12686,71.0,1.0,30.0,4.0,0.0
12687,47.0,29.0,30.0,3.0,0.0
12688,71.0,30.0,60.0,6.0,0.0
12689,81.0,0.0,30.0,4.0,0.0
12690,51.0,1.0,60.0,7.0,0.0
12691,78.0,0.0,60.0,6.0,0.0
12692,71.0,0.0,60.0,2.0,0.0
12693,71.0,30.0,30.0,4.0,0.0
12694,81.0,0.0,30.0,4.0,0.0
12695,40.0,30.0,120.0,7.0,0.0
12696,79.0,19.0,480.0,0.0,0.0
12697,79.0,0.0,60.0,6.0,0.0
12698,64.0,0.0,60.0,2.0,0.0
12699,88.0,30.0,30.0,4.0,0.0
12700,79.0,30.0,30.0,4.0,0.0
12701,76.0,0.0,60.0,6.0,0.0
12702,52.0,29.0,30.0,3.0,0.0
12703,88.0,1.0,30.0,4.0,0.0
12704,79.0,0.0,30.0,4.0,0.0
12705,79.0,30.0,60.0,6.0,0.0
12706,52.0,0.0,120.0,7.0,0.0
12707,71.0,1.0,30.0,4.0,0.0
12708,40.0,29.0,30.0,3.0,0.0
12709,79.0,0.0,30.0,4.0,0.0
12710,71.0,30.0,30.0,4.0,0.0
12711,74.0,0.0,60.0,6.0,0.0
12712,64.0,0.0,60.0,2.0,0.0
12713,79.0,30.0,30.0,4.0,0.0
12714,69.0,0.0,60.0,2.0,0.0
12715,88.0,30.0,30.0,4.0,0.0
12716,73.0,0.0,30.0,6.0,0.0
12717,45.0,0.0,120.0,7.0,0.0
12718,69.0,0.0,240.0,1.0,0.0
12719,79.0,30.0,30.0,4.0,0.0
12720,71.0,0.0,30.0,6.0,0.0
12721,57.0,29.0,30.0,3.0,0.0
12722,73.0,1.0,30.0,6.0,0.0
12723,88.0,0.0,30.0,4.0,0.0
12724,71.0,0.0,30.0,6.0,0.0
12725,79.0,30.0,30.0,4.0,0.0
12726,69.0,30.0,60.0,6.0,0.0
12727,73.0,1.0,30.0,4.0,0.0
12728,45.0,29.0,30.0,3.0,0.0
12729,79.0,0.0,30.0,4.0,0.0
12730,57.0,0.0,60.0,3.0,0.0
12731,73.0,30.0,30.0,4.0,0.0
12732,79.0,1.0,30.0,4.0,0.0
12733,78.0,20.0,20.0,4.0,0.0
12734,62.0,20.0,60.0,3.0,0.0
12735,86.0,20.0,20.0,4.0,0.0
12736,88.0,0.0,20.0,4.0,0.0
12737,90.0,20.0,20.0,4.0,0.0
12738,50.0,31.0,60.0,5.0,0.0
12739,59.0,0.0,60.0,3.0,0.0
12740,88.0,20.0,20.0,4.0,0.0
12741,86.0,0.0,20.0,4.0,0.0
12742,81.0,29.0,30.0,4.0,0.0
12743,54.0,0.0,60.0,5.0,0.0
12744,66.0,0.0,60.0,3.0,0.0
12745,86.0,30.0,30.0,4.0,0.0
12746,50.0,20.0,60.0,5.0,0.0
12747,57.0,0.0,60.0,3.0,0.0
12748,78.0,30.0,30.0,4.0,0.0
12749,86.0,0.0,30.0,4.0,0.0
12750,59.0,20.0,60.0,3.0,0.0
12751,80.0,20.0,20.0,4.0,0.0
12752,86.0,20.0,20.0,4.0,0.0
12753,88.0,0.0,20.0,4.0,0.0
12754,89.0,20.0,20.0,4.0,0.0
12755,47.0,30.0,60.0,5.0,0.0
12756,62.0,0.0,60.0,3.0,0.0
12757,88.0,20.0,20.0,4.0,0.0
12758,86.0,0.0,20.0,4.0,0.0
12759,80.0,30.0,30.0,4.0,0.0
12760,52.0,30.0,60.0,5.0,0.0
12761,59.0,0.0,60.0,3.0,0.0
12762,89.0,0.0,30.0,4.0,0.0
12763,88.0,30.0,30.0,4.0,0.0
12764,56.0,0.0,60.0,3.0,0.0
12765,40.0,0.0,60.0,5.0,0.0
12766,86.0,20.0,30.0,4.0,0.0
12767,57.0,0.0,60.0,3.0,0.0
12768,84.0,20.0,20.0,4.0,0.0
12769,81.0,20.0,20.0,4.0,0.0
12770,83.0,20.0,20.0,4.0,0.0
12771,45.0,0.0,60.0,5.0,0.0
12772,53.0,0.0,60.0,3.0,0.0
12773,84.0,20.0,20.0,4.0,0.0
12774,83.0,20.0,20.0,4.0,0.0
12775,81.0,30.0,20.0,4.0,0.0
12776,50.0,0.0,60.0,5.0,0.0
12777,89.0,30.0,30.0,4.0,0.0
12778,50.0,30.0,60.0,3.0,0.0
12779,80.0,0.0,30.0,4.0,0.0
12780,53.0,30.0,60.0,5.0,0.0
12781,83.0,30.0,30.0,4.0,0.0
12782,47.0,0.0,60.0,3.0,0.0
12783,75.0,0.0,30.0,4.0,0.0
12784,76.0,30.0,30.0,4.0,0.0
12785,52.0,30.0,60.0,3.0,0.0
12786,52.0,0.0,30.0,5.0,0.0
12787,80.0,0.0,30.0,4.0,0.0
12788,56.0,30.0,30.0,5.0,0.0
12789,47.0,0.0,60.0,3.0,0.0
12790,83.0,0.0,30.0,4.0,0.0
12791,59.0,30.0,30.0,5.0,0.0
12792,86.0,0.0,30.0,4.0,0.0
12793,84.0,0.0,90.0,4.0,0.0
12794,40.0,0.0,60.0,3.0,0.0
12795,64.0,30.0,30.0,5.0,0.0
12796,52.0,30.0,30.0,5.0,0.0
12797,54.0,30.0,30.0,5.0,0.0
12798,81.0,0.0,60.0,6.0,0.0
12799,81.0,0.0,60.0,0.0,0.0
12800,83.0,30.0,30.0,4.0,0.0
12801,56.0,0.0,30.0,5.0,0.0
12802,57.0,30.0,60.0,5.0,0.0
12803,76.0,0.0,60.0,6.0,0.0
12804,84.0,30.0,30.0,4.0,0.0
12805,76.0,0.0,60.0,0.0,0.0
12806,86.0,0.0,30.0,4.0,0.0
12807,81.0,0.0,60.0,0.0,0.0
12808,69.0,0.0,120.0,5.0,0.0
12809,81.0,30.0,60.0,6.0,0.0
12810,84.0,30.0,30.0,4.0,0.0
12811,86.0,0.0,30.0,4.0,0.0
12812,83.0,30.0,30.0,4.0,0.0
12813,74.0,30.0,60.0,0.0,0.0
12814,74.0,0.0,60.0,6.0,0.0
12815,84.0,0.0,30.0,4.0,0.0
12816,83.0,30.0,30.0,4.0,0.0
12817,68.0,30.0,60.0,5.0,0.0
12818,81.0,0.0,60.0,0.0,0.0
12819,83.0,0.0,60.0,6.0,0.0
12820,84.0,0.0,30.0,4.0,0.0
12821,72.0,0.0,30.0,6.0,0.0
12822,72.0,30.0,30.0,0.0,0.0
12823,81.0,0.0,60.0,4.0,0.0
12824,69.0,0.0,30.0,5.0,0.0
12825,71.0,30.0,30.0,6.0,0.0
12826,68.0,0.0,30.0,5.0,0.0
12827,71.0,0.0,30.0,0.0,0.0
12828,76.0,0.0,60.0,4.0,0.0
12829,69.0,30.0,30.0,5.0,0.0
12830,72.0,0.0,30.0,0.0,0.0
12831,72.0,0.0,30.0,6.0,0.0
12832,71.0,0.0,30.0,6.0,0.0
12833,64.0,0.0,30.0,5.0,0.0
12834,71.0,30.0,30.0,0.0,0.0
12835,69.0,0.0,60.0,4.0,0.0
12836,69.0,0.0,60.0,6.0,0.0
12837,57.0,30.0,30.0,5.0,0.0
12838,69.0,0.0,60.0,0.0,0.0
12839,59.0,30.0,30.0,5.0,0.0
12840,57.0,30.0,30.0,5.0,0.0
12841,57.0,0.0,60.0,7.0,0.0
12842,84.0,0.0,60.0,0.0,0.0
12843,76.0,0.0,60.0,2.0,0.0
12844,84.0,30.0,60.0,6.0,0.0
12845,57.0,0.0,60.0,3.0,0.0
12846,81.0,0.0,60.0,1.0,0.0
12847,84.0,0.0,60.0,4.0,0.0
12848,59.0,0.0,30.0,5.0,0.0
12849,83.0,0.0,60.0,0.0,0.0
12850,55.0,30.0,30.0,5.0,0.0
12851,83.0,0.0,60.0,4.0,0.0
12852,55.0,0.0,30.0,3.0,0.0
12853,83.0,0.0,60.0,1.0,0.0
12854,55.0,0.0,30.0,7.0,0.0
12855,64.0,0.0,60.0,2.0,0.0
12856,83.0,0.0,60.0,6.0,0.0
12857,57.0,0.0,30.0,3.0,0.0
12858,57.0,30.0,30.0,7.0,0.0
12859,57.0,0.0,30.0,5.0,0.0
12860,88.0,30.0,120.0,4.0,0.0
12861,71.0,30.0,60.0,1.0,0.0
12862,88.0,0.0,120.0,6.0,0.0
12863,88.0,0.0,120.0,0.0,0.0
12864,55.0,0.0,30.0,7.0,0.0
12865,55.0,30.0,30.0,3.0,0.0
12866,64.0,0.0,60.0,2.0,0.0
12867,55.0,0.0,30.0,5.0,0.0
12868,57.0,0.0,30.0,5.0,0.0
12869,57.0,0.0,30.0,7.0,0.0
12870,57.0,0.0,30.0,3.0,0.0
12871,53.0,30.0,30.0,3.0,0.0
12872,72.0,0.0,60.0,1.0,0.0
12873,69.0,0.0,60.0,2.0,0.0
12874,53.0,0.0,30.0,5.0,0.0
12875,53.0,0.0,30.0,7.0,0.0
12876,55.0,0.0,30.0,5.0,0.0
12877,55.0,0.0,30.0,7.0,0.0
12878,55.0,0.0,30.0,3.0,0.0
12879,81.0,0.0,60.0,0.0,0.0
12880,81.0,0.0,60.0,6.0,0.0
12881,53.0,30.0,30.0,5.0,0.0
12882,81.0,0.0,60.0,4.0,0.0
12883,53.0,0.0,30.0,7.0,0.0
12884,74.0,30.0,60.0,1.0,0.0
12885,69.0,0.0,60.0,2.0,0.0
12886,53.0,0.0,30.0,3.0,0.0
12887,55.0,0.0,30.0,7.0,0.0
12888,55.0,0.0,30.0,3.0,0.0
12889,55.0,0.0,30.0,5.0,0.0
12890,80.0,0.0,30.0,0.0,0.0
12891,52.0,0.0,60.0,5.0,0.0
12892,71.0,0.0,60.0,2.0,0.0
12893,76.0,30.0,30.0,1.0,0.0
12894,52.0,0.0,60.0,7.0,0.0
12895,80.0,0.0,30.0,6.0,0.0
12896,80.0,0.0,30.0,4.0,0.0
12897,52.0,0.0,60.0,3.0,0.0
12898,78.0,0.0,30.0,4.0,0.0
12899,78.0,0.0,30.0,0.0,0.0
12900,78.0,0.0,30.0,6.0,0.0
12901,78.0,30.0,30.0,1.0,0.0
12902,47.0,0.0,60.0,5.0,0.0
12903,80.0,30.0,30.0,4.0,0.0
12904,80.0,0.0,30.0,6.0,0.0
12905,76.0,0.0,30.0,1.0,0.0
12906,71.0,0.0,60.0,2.0,0.0
12907,47.0,0.0,60.0,3.0,0.0
12908,80.0,0.0,30.0,0.0,0.0
12909,47.0,30.0,60.0,7.0,0.0
12910,78.0,0.0,30.0,1.0,0.0
12911,78.0,0.0,30.0,6.0,0.0
12912,78.0,0.0,30.0,4.0,0.0
12913,78.0,0.0,30.0,0.0,0.0
12914,76.0,0.0,60.0,6.0,0.0
12915,71.0,0.0,60.0,2.0,0.0
12916,40.0,30.0,30.0,5.0,0.0
12917,76.0,0.0,60.0,0.0,0.0
12918,80.0,0.0,60.0,1.0,0.0
12919,40.0,0.0,60.0,3.0,0.0
12920,76.0,0.0,60.0,4.0,0.0
12921,40.0,0.0,30.0,7.0,0.0
12922,52.0,0.0,30.0,5.0,0.0
12923,52.0,30.0,30.0,7.0,0.0
12924,83.0,0.0,60.0,4.0,0.0
12925,56.0,0.0,60.0,3.0,0.0
12926,76.0,0.0,60.0,1.0,0.0
12927,56.0,30.0,30.0,5.0,0.0
12928,83.0,0.0,60.0,6.0,0.0
12929,71.0,0.0,60.0,2.0,0.0
12930,56.0,0.0,30.0,7.0,0.0
12931,83.0,30.0,60.0,0.0,0.0
12932,52.0,0.0,30.0,7.0,0.0
12933,52.0,0.0,30.0,5.0,0.0
12934,57.0,0.0,30.0,7.0,0.0
12935,57.0,0.0,30.0,5.0,0.0
12936,84.0,0.0,60.0,0.0,0.0
12937,84.0,30.0,30.0,4.0,0.0
12938,57.0,0.0,30.0,3.0,0.0
12939,76.0,0.0,60.0,1.0,0.0
12940,69.0,0.0,60.0,2.0,0.0
12941,84.0,29.0,960.0,6.0,0.0
12942,59.0,0.0,30.0,5.0,0.0
12943,59.0,0.0,30.0,7.0,0.0
12944,59.0,0.0,30.0,3.0,0.0
12945,86.0,30.0,30.0,4.0,0.0
12946,57.0,0.0,30.0,3.0,0.0
12947,81.0,0.0,60.0,0.0,0.0
12948,57.0,30.0,30.0,7.0,0.0
12949,57.0,0.0,30.0,5.0,0.0
12950,84.0,0.0,30.0,4.0,0.0
12951,59.0,0.0,30.0,7.0,0.0
12952,59.0,0.0,30.0,5.0,0.0
12953,59.0,0.0,30.0,3.0,0.0
12954,86.0,30.0,30.0,4.0,0.0
12955,79.0,0.0,60.0,1.0,0.0
12956,76.0,30.0,60.0,0.0,0.0
12957,55.0,0.0,30.0,7.0,0.0
12958,83.0,0.0,30.0,4.0,0.0
12959,55.0,30.0,30.0,3.0,0.0
12960,76.0,0.0,60.0,2.0,0.0
12961,55.0,0.0,30.0,5.0,0.0
12962,84.0,0.0,30.0,4.0,0.0
12963,57.0,0.0,30.0,3.0,0.0
12964,57.0,0.0,30.0,7.0,0.0
12965,57.0,0.0,30.0,5.0,0.0
12966,83.0,0.0,60.0,0.0,0.0
12967,55.0,0.0,30.0,3.0,0.0
12968,55.0,0.0,30.0,5.0,0.0
12969,55.0,30.0,30.0,7.0,0.0
12970,83.0,0.0,30.0,4.0,0.0
12971,57.0,30.0,30.0,3.0,0.0
12972,57.0,0.0,30.0,7.0,0.0
12973,57.0,0.0,30.0,5.0,0.0
12974,84.0,0.0,30.0,4.0,0.0
12975,84.0,0.0,60.0,0.0,0.0
12976,54.0,0.0,30.0,7.0,0.0
12977,54.0,30.0,30.0,5.0,0.0
12978,81.0,0.0,30.0,4.0,0.0
12979,81.0,0.0,60.0,1.0,0.0
12980,69.0,0.0,60.0,2.0,0.0
12981,54.0,0.0,30.0,3.0,0.0
12982,55.0,0.0,30.0,5.0,0.0
12983,83.0,30.0,30.0,4.0,0.0
12984,55.0,0.0,30.0,7.0,0.0
12985,55.0,0.0,30.0,3.0,0.0
12986,54.0,0.0,30.0,3.0,0.0
12987,81.0,0.0,60.0,0.0,0.0
12988,54.0,0.0,30.0,7.0,0.0
12989,81.0,30.0,30.0,4.0,0.0
12990,54.0,0.0,30.0,5.0,0.0
12991,55.0,0.0,30.0,5.0,0.0
12992,83.0,0.0,30.0,4.0,0.0
12993,55.0,30.0,30.0,7.0,0.0
12994,55.0,0.0,30.0,3.0,0.0
12995,52.0,30.0,30.0,3.0,0.0
12996,52.0,0.0,30.0,5.0,0.0
12997,72.0,0.0,60.0,0.0,0.0
12998,52.0,0.0,30.0,7.0,0.0
12999,79.0,0.0,30.0,4.0,0.0
13000,54.0,0.0,30.0,5.0,0.0
13001,81.0,0.0,30.0,4.0,0.0
13002,54.0,0.0,30.0,3.0,0.0
13003,54.0,30.0,30.0,7.0,0.0
13004,52.0,30.0,30.0,7.0,0.0
13005,52.0,0.0,30.0,3.0,0.0
13006,83.0,0.0,60.0,0.0,0.0
13007,67.0,0.0,60.0,1.0,0.0
13008,79.0,0.0,30.0,4.0,0.0
13009,52.0,0.0,30.0,5.0,0.0
13010,67.0,0.0,60.0,2.0,0.0
13011,54.0,0.0,30.0,3.0,0.0
13012,54.0,0.0,30.0,7.0,0.0
13013,54.0,0.0,30.0,5.0,0.0
13014,81.0,30.0,30.0,4.0,0.0
13015,62.0,30.0,30.0,3.0,0.0
13016,50.0,0.0,60.0,5.0,0.0
13017,50.0,30.0,60.0,7.0,0.0
13018,74.0,0.0,30.0,1.0,0.0
13019,84.0,0.0,60.0,0.0,0.0
13020,78.0,0.0,30.0,4.0,0.0
13021,74.0,0.0,30.0,2.0,0.0
13022,76.0,0.0,30.0,2.0,0.0
13023,79.0,0.0,30.0,4.0,0.0
13024,64.0,0.0,30.0,3.0,0.0
13025,76.0,0.0,30.0,1.0,0.0
13026,78.0,0.0,30.0,4.0,0.0
13027,62.0,30.0,30.0,3.0,0.0
13028,74.0,0.0,30.0,1.0,0.0
13029,74.0,0.0,30.0,2.0,0.0
13030,81.0,0.0,60.0,0.0,0.0
13031,76.0,0.0,30.0,1.0,0.0
13032,79.0,30.0,30.0,4.0,0.0
13033,64.0,0.0,30.0,3.0,0.0
13034,76.0,0.0,30.0,2.0,0.0
13035,60.0,30.0,30.0,3.0,0.0
13036,81.0,0.0,30.0,4.0,0.0
13037,74.0,0.0,60.0,0.0,0.0
13038,72.0,0.0,30.0,1.0,0.0
13039,72.0,0.0,30.0,2.0,0.0
13040,48.0,0.0,60.0,7.0,0.0
13041,48.0,0.0,60.0,5.0,0.0
13042,62.0,0.0,30.0,3.0,0.0
13043,74.0,0.0,30.0,2.0,0.0
13044,83.0,30.0,30.0,4.0,0.0
13045,74.0,0.0,30.0,1.0,0.0
13046,72.0,0.0,30.0,1.0,0.0
13047,72.0,0.0,30.0,2.0,0.0
13048,81.0,30.0,30.0,4.0,0.0
13049,81.0,0.0,60.0,0.0,0.0
13050,60.0,0.0,30.0,3.0,0.0
13051,74.0,0.0,30.0,2.0,0.0
13052,62.0,30.0,30.0,3.0,0.0
13053,83.0,0.0,30.0,4.0,0.0
13054,74.0,0.0,30.0,1.0,0.0
13055,71.0,30.0,30.0,1.0,0.0
13056,47.0,0.0,60.0,5.0,0.0
13057,84.0,0.0,60.0,0.0,0.0
13058,47.0,30.0,60.0,7.0,0.0
13059,74.0,0.0,30.0,4.0,0.0
13060,59.0,0.0,30.0,3.0,0.0
13061,71.0,0.0,30.0,2.0,0.0
13062,76.0,0.0,30.0,4.0,0.0
13063,72.0,0.0,30.0,2.0,0.0
13064,72.0,0.0,30.0,1.0,0.0
13065,60.0,0.0,30.0,3.0,0.0
13066,81.0,0.0,60.0,0.0,0.0
13067,74.0,30.0,30.0,4.0,0.0
13068,71.0,0.0,30.0,2.0,0.0
13069,71.0,0.0,30.0,1.0,0.0
13070,59.0,0.0,30.0,3.0,0.0
13071,72.0,0.0,30.0,1.0,0.0
13072,76.0,0.0,30.0,4.0,0.0
13073,72.0,30.0,30.0,2.0,0.0
13074,60.0,0.0,30.0,3.0,0.0
13075,69.0,30.0,30.0,1.0,0.0
13076,45.0,0.0,60.0,7.0,0.0
13077,45.0,0.0,60.0,5.0,0.0
13078,69.0,0.0,30.0,2.0,0.0
13079,57.0,0.0,30.0,3.0,0.0
13080,78.0,30.0,60.0,4.0,0.0
13081,78.0,0.0,60.0,0.0,0.0
13082,71.0,0.0,30.0,2.0,0.0
13083,59.0,0.0,30.0,3.0,0.0
13084,71.0,0.0,30.0,1.0,0.0
13085,69.0,0.0,30.0,2.0,0.0
13086,57.0,30.0,30.0,3.0,0.0
13087,74.0,1.0,60.0,4.0,0.0
13088,81.0,0.0,60.0,0.0,0.0
13089,69.0,0.0,30.0,1.0,0.0
13090,71.0,0.0,30.0,1.0,0.0
13091,71.0,0.0,30.0,2.0,0.0
13092,59.0,0.0,30.0,3.0,0.0
13093,83.0,0.0,30.0,6.0,0.0
13094,55.0,30.0,30.0,7.0,0.0
13095,67.0,0.0,60.0,2.0,0.0
13096,83.0,0.0,60.0,0.0,0.0
13097,83.0,29.0,960.0,4.0,0.0
13098,67.0,30.0,60.0,1.0,0.0
13099,55.0,0.0,30.0,3.0,0.0
13100,55.0,0.0,30.0,5.0,0.0
13101,57.0,0.0,30.0,7.0,0.0
13102,57.0,0.0,30.0,5.0,0.0
13103,84.0,0.0,30.0,6.0,0.0
13104,57.0,0.0,30.0,3.0,0.0
13105,55.0,0.0,30.0,3.0,0.0
13106,55.0,0.0,30.0,7.0,0.0
13107,83.0,0.0,30.0,6.0,0.0
13108,55.0,30.0,30.0,5.0,0.0
13109,79.0,0.0,60.0,0.0,0.0
13110,84.0,0.0,30.0,6.0,0.0
13111,57.0,0.0,30.0,5.0,0.0
13112,57.0,30.0,30.0,7.0,0.0
13113,57.0,0.0,30.0,3.0,0.0
13114,54.0,0.0,30.0,7.0,0.0
13115,54.0,0.0,30.0,3.0,0.0
13116,74.0,0.0,60.0,0.0,0.0
13117,74.0,0.0,60.0,1.0,0.0
13118,54.0,0.0,30.0,5.0,0.0
13119,62.0,0.0,60.0,2.0,0.0
13120,81.0,30.0,30.0,6.0,0.0
13121,55.0,0.0,30.0,5.0,0.0
13122,83.0,30.0,30.0,6.0,0.0
13123,55.0,0.0,30.0,3.0,0.0
13124,55.0,0.0,30.0,7.0,0.0
13125,54.0,0.0,30.0,3.0,0.0
13126,54.0,0.0,30.0,5.0,0.0
13127,81.0,0.0,60.0,0.0,0.0
13128,81.0,30.0,30.0,6.0,0.0
13129,54.0,0.0,30.0,7.0,0.0
13130,55.0,0.0,30.0,3.0,0.0
13131,55.0,30.0,30.0,5.0,0.0
13132,55.0,0.0,30.0,7.0,0.0
13133,83.0,0.0,30.0,6.0,0.0
13134,52.0,0.0,30.0,3.0,0.0
13135,52.0,30.0,30.0,5.0,0.0
13136,55.0,0.0,60.0,2.0,0.0
13137,83.0,0.0,60.0,0.0,0.0
13138,52.0,0.0,30.0,7.0,0.0
13139,79.0,0.0,30.0,6.0,0.0
13140,79.0,30.0,60.0,1.0,0.0
13141,54.0,0.0,30.0,5.0,0.0
13142,54.0,0.0,30.0,3.0,0.0
13143,81.0,0.0,30.0,6.0,0.0
13144,54.0,0.0,30.0,7.0,0.0
13145,52.0,0.0,30.0,5.0,0.0
13146,79.0,0.0,60.0,0.0,0.0
13147,52.0,30.0,30.0,7.0,0.0
13148,79.0,0.0,30.0,6.0,0.0
13149,52.0,0.0,30.0,3.0,0.0
13150,54.0,0.0,30.0,3.0,0.0
13151,54.0,0.0,30.0,7.0,0.0
13152,81.0,0.0,30.0,6.0,0.0
13153,54.0,30.0,30.0,5.0,0.0
13154,78.0,0.0,30.0,6.0,0.0
13155,50.0,30.0,30.0,7.0,0.0
13156,50.0,0.0,30.0,5.0,0.0
13157,50.0,0.0,30.0,3.0,0.0
13158,71.0,30.0,60.0,0.0,0.0
13159,52.0,0.0,30.0,5.0,0.0
13160,79.0,0.0,30.0,6.0,0.0
13161,52.0,0.0,30.0,3.0,0.0
13162,52.0,0.0,30.0,7.0,0.0
13163,50.0,0.0,30.0,7.0,0.0
13164,66.0,0.0,60.0,1.0,0.0
13165,50.0,0.0,30.0,3.0,0.0
13166,78.0,30.0,30.0,6.0,0.0
13167,50.0,0.0,30.0,5.0,0.0
13168,81.0,0.0,60.0,0.0,0.0
13169,66.0,0.0,60.0,2.0,0.0
13170,52.0,30.0,30.0,7.0,0.0
13171,52.0,0.0,30.0,5.0,0.0
13172,52.0,0.0,30.0,3.0,0.0
13173,79.0,0.0,30.0,6.0,0.0
13174,83.0,0.0,60.0,0.0,0.0
13175,72.0,0.0,30.0,1.0,0.0
13176,76.0,0.0,30.0,6.0,0.0
13177,72.0,0.0,30.0,2.0,0.0
13178,48.0,0.0,60.0,7.0,0.0
13179,48.0,0.0,60.0,5.0,0.0
13180,60.0,30.0,30.0,3.0,0.0
13181,74.0,30.0,30.0,2.0,0.0
13182,78.0,0.0,30.0,6.0,0.0
13183,62.0,0.0,30.0,3.0,0.0
13184,74.0,0.0,30.0,1.0,0.0
13185,79.0,0.0,60.0,0.0,0.0
13186,72.0,0.0,30.0,1.0,0.0
13187,60.0,0.0,30.0,3.0,0.0
13188,76.0,30.0,30.0,6.0,0.0
13189,72.0,0.0,30.0,2.0,0.0
13190,74.0,0.0,30.0,2.0,0.0
13191,78.0,0.0,30.0,6.0,0.0
13192,74.0,30.0,30.0,1.0,0.0
13193,62.0,0.0,30.0,3.0,0.0
13194,59.0,0.0,30.0,3.0,0.0
13195,79.0,30.0,30.0,6.0,0.0
13196,47.0,0.0,60.0,7.0,0.0
13197,72.0,0.0,60.0,0.0,0.0
13198,71.0,0.0,30.0,2.0,0.0
13199,71.0,0.0,30.0,1.0,0.0
13200,47.0,30.0,60.0,5.0,0.0
13201,72.0,0.0,30.0,2.0,0.0
13202,60.0,0.0,30.0,3.0,0.0
13203,72.0,0.0,30.0,1.0,0.0
13204,81.0,0.0,30.0,6.0,0.0
13205,71.0,0.0,30.0,2.0,0.0
13206,79.0,30.0,30.0,6.0,0.0
13207,59.0,0.0,30.0,3.0,0.0
13208,79.0,0.0,60.0,0.0,0.0
13209,71.0,0.0,30.0,1.0,0.0
13210,81.0,0.0,30.0,6.0,0.0
13211,72.0,0.0,30.0,1.0,0.0
13212,60.0,30.0,30.0,3.0,0.0
13213,72.0,0.0,30.0,2.0,0.0
13214,72.0,30.0,30.0,6.0,0.0
13215,69.0,0.0,30.0,2.0,0.0
13216,45.0,0.0,60.0,7.0,0.0
13217,57.0,0.0,30.0,3.0,0.0
13218,69.0,0.0,30.0,1.0,0.0
13219,83.0,0.0,60.0,0.0,0.0
13220,45.0,0.0,60.0,5.0,0.0
13221,71.0,0.0,30.0,1.0,0.0
13222,74.0,0.0,30.0,6.0,0.0
13223,71.0,30.0,30.0,2.0,0.0
13224,59.0,0.0,30.0,3.0,0.0
13225,69.0,0.0,30.0,2.0,0.0
13226,72.0,0.0,30.0,6.0,0.0
13227,57.0,30.0,30.0,3.0,0.0
13228,79.0,0.0,60.0,0.0,0.0
13229,69.0,0.0,30.0,1.0,0.0
13230,59.0,0.0,30.0,3.0,0.0
13231,74.0,0.0,30.0,6.0,0.0
13232,71.0,0.0,30.0,2.0,0.0
13233,71.0,30.0,30.0,1.0,0.0
13234,67.0,0.0,30.0,2.0,0.0
13235,76.0,0.0,60.0,6.0,0.0
13236,43.0,0.0,60.0,7.0,0.0
13237,76.0,0.0,60.0,0.0,0.0
13238,55.0,30.0,30.0,3.0,0.0
13239,43.0,0.0,60.0,5.0,0.0
13240,67.0,0.0,30.0,1.0,0.0
13241,69.0,0.0,30.0,2.0,0.0
13242,69.0,0.0,30.0,1.0,0.0
13243,57.0,30.0,30.0,3.0,0.0
13244,72.0,0.0,60.0,6.0,0.0
13245,55.0,30.0,30.0,3.0,0.0
13246,67.0,0.0,30.0,2.0,0.0
13247,67.0,0.0,30.0,1.0,0.0
13248,79.0,0.0,60.0,0.0,0.0
13249,57.0,0.0,30.0,3.0,0.0
13250,69.0,0.0,30.0,1.0,0.0
13251,69.0,1.0,30.0,2.0,0.0
13252,81.0,29.0,960.0,6.0,0.0
13253,81.0,0.0,30.0,4.0,0.0
13254,66.0,0.0,60.0,2.0,0.0
13255,54.0,0.0,30.0,3.0,0.0
13256,66.0,0.0,60.0,1.0,0.0
13257,54.0,0.0,30.0,5.0,0.0
13258,81.0,0.0,60.0,0.0,0.0
13259,54.0,30.0,30.0,7.0,0.0
13260,83.0,0.0,30.0,4.0,0.0
13261,55.0,30.0,30.0,5.0,0.0
13262,55.0,0.0,30.0,7.0,0.0
13263,55.0,0.0,30.0,3.0,0.0
13264,78.0,30.0,60.0,0.0,0.0
13265,81.0,0.0,30.0,4.0,0.0
13266,54.0,0.0,30.0,3.0,0.0
13267,54.0,0.0,30.0,5.0,0.0
13268,54.0,30.0,30.0,7.0,0.0
13269,55.0,0.0,30.0,7.0,0.0
13270,83.0,0.0,30.0,4.0,0.0
13271,55.0,0.0,30.0,5.0,0.0
13272,55.0,0.0,30.0,3.0,0.0
13273,52.0,0.0,30.0,5.0,0.0
13274,52.0,0.0,30.0,3.0,0.0
13275,79.0,30.0,30.0,4.0,0.0
13276,72.0,0.0,60.0,2.0,0.0
13277,52.0,0.0,30.0,7.0,0.0
13278,72.0,0.0,60.0,0.0,0.0
13279,69.0,0.0,60.0,1.0,0.0
13280,54.0,0.0,30.0,3.0,0.0
13281,54.0,0.0,30.0,5.0,0.0
13282,81.0,0.0,30.0,4.0,0.0
13283,54.0,30.0,30.0,7.0,0.0
13284,52.0,0.0,30.0,5.0,0.0
13285,79.0,0.0,60.0,0.0,0.0
13286,52.0,0.0,30.0,3.0,0.0
13287,52.0,0.0,30.0,7.0,0.0
13288,79.0,30.0,30.0,4.0,0.0
13289,54.0,0.0,30.0,3.0,0.0
13290,54.0,30.0,30.0,7.0,0.0
13291,81.0,0.0,30.0,4.0,0.0
13292,54.0,0.0,30.0,5.0,0.0
13293,51.0,30.0,30.0,3.0,0.0
13294,66.0,30.0,60.0,2.0,0.0
13295,51.0,0.0,30.0,7.0,0.0
13296,71.0,0.0,60.0,1.0,0.0
13297,78.0,0.0,30.0,4.0,0.0
13298,51.0,0.0,30.0,5.0,0.0
13299,81.0,0.0,60.0,0.0,0.0
13300,52.0,0.0,30.0,7.0,0.0
13301,52.0,0.0,30.0,3.0,0.0
13302,79.0,0.0,30.0,4.0,0.0
13303,52.0,0.0,30.0,5.0,0.0
13304,51.0,0.0,30.0,7.0,0.0
13305,78.0,0.0,60.0,0.0,0.0
13306,51.0,0.0,30.0,5.0,0.0
13307,51.0,30.0,30.0,3.0,0.0
13308,78.0,0.0,30.0,4.0,0.0
13309,79.0,0.0,30.0,4.0,0.0
13310,52.0,0.0,30.0,5.0,0.0
13311,52.0,0.0,30.0,7.0,0.0
13312,52.0,30.0,30.0,3.0,0.0
13313,69.0,0.0,60.0,0.0,0.0
13314,49.0,0.0,30.0,5.0,0.0
13315,49.0,30.0,30.0,7.0,0.0
13316,76.0,0.0,30.0,4.0,0.0
13317,49.0,0.0,30.0,3.0,0.0
13318,51.0,0.0,30.0,5.0,0.0
13319,51.0,0.0,30.0,3.0,0.0
13320,51.0,30.0,30.0,7.0,0.0
13321,78.0,0.0,30.0,4.0,0.0
13322,64.0,0.0,60.0,2.0,0.0
13323,49.0,0.0,30.0,3.0,0.0
13324,76.0,0.0,30.0,4.0,0.0
13325,49.0,30.0,30.0,7.0,0.0
13326,49.0,0.0,30.0,5.0,0.0
13327,79.0,0.0,60.0,0.0,0.0
13328,64.0,30.0,60.0,1.0,0.0
13329,51.0,0.0,30.0,5.0,0.0
13330,78.0,0.0,30.0,4.0,0.0
13331,51.0,0.0,30.0,3.0,0.0
13332,51.0,0.0,30.0,7.0,0.0
13333,59.0,0.0,30.0,3.0,0.0
13334,75.0,0.0,30.0,4.0,0.0
13335,71.0,30.0,30.0,1.0,0.0
13336,71.0,0.0,30.0,2.0,0.0
13337,47.0,0.0,60.0,7.0,0.0
13338,81.0,0.0,60.0,0.0,0.0
13339,47.0,0.0,60.0,5.0,0.0
13340,60.0,0.0,30.0,3.0,0.0
13341,76.0,30.0,30.0,4.0,0.0
13342,72.0,0.0,30.0,1.0,0.0
13343,72.0,0.0,30.0,2.0,0.0
13344,71.0,0.0,30.0,2.0,0.0
13345,75.0,0.0,30.0,4.0,0.0
13346,78.0,0.0,60.0,0.0,0.0
13347,71.0,0.0,30.0,1.0,0.0
13348,59.0,30.0,30.0,3.0,0.0
13349,72.0,0.0,30.0,1.0,0.0
13350,60.0,0.0,30.0,3.0,0.0
13351,76.0,0.0,30.0,4.0,0.0
13352,72.0,30.0,30.0,2.0,0.0
13353,57.0,0.0,30.0,3.0,0.0
13354,45.0,0.0,60.0,5.0,0.0
13355,45.0,0.0,60.0,7.0,0.0
13356,78.0,30.0,30.0,4.0,0.0
13357,71.0,30.0,60.0,0.0,0.0
13358,69.0,0.0,30.0,1.0,0.0
13359,69.0,0.0,30.0,2.0,0.0
13360,71.0,0.0,30.0,1.0,0.0
13361,71.0,0.0,30.0,2.0,0.0
13362,79.0,0.0,30.0,4.0,0.0
13363,59.0,0.0,30.0,3.0,0.0
13364,69.0,0.0,30.0,1.0,0.0
13365,69.0,0.0,30.0,2.0,0.0
13366,57.0,30.0,30.0,3.0,0.0
13367,78.0,0.0,30.0,4.0,0.0
13368,78.0,30.0,60.0,0.0,0.0
13369,71.0,0.0,30.0,2.0,0.0
13370,71.0,0.0,30.0,1.0,0.0
13371,59.0,0.0,30.0,3.0,0.0
13372,79.0,0.0,30.0,4.0,0.0
13373,81.0,0.0,60.0,0.0,0.0
13374,67.0,30.0,30.0,1.0,0.0
13375,43.0,0.0,60.0,7.0,0.0
13376,67.0,0.0,30.0,2.0,0.0
13377,55.0,0.0,30.0,3.0,0.0
13378,43.0,0.0,60.0,5.0,0.0
13379,71.0,0.0,30.0,4.0,0.0
13380,69.0,0.0,30.0,2.0,0.0
13381,69.0,0.0,30.0,1.0,0.0
13382,73.0,30.0,30.0,4.0,0.0
13383,57.0,0.0,30.0,3.0,0.0
13384,71.0,0.0,30.0,4.0,0.0
13385,55.0,0.0,30.0,3.0,0.0
13386,78.0,30.0,60.0,0.0,0.0
13387,67.0,0.0,30.0,1.0,0.0
13388,67.0,30.0,30.0,2.0,0.0
13389,57.0,0.0,30.0,3.0,0.0
13390,73.0,0.0,30.0,4.0,0.0
13391,69.0,0.0,30.0,1.0,0.0
13392,69.0,0.0,30.0,2.0,0.0
13393,66.0,30.0,30.0,2.0,0.0
13394,54.0,0.0,30.0,3.0,0.0
13395,42.0,30.0,60.0,7.0,0.0
13396,42.0,0.0,60.0,5.0,0.0
13397,75.0,0.0,60.0,4.0,0.0
13398,66.0,0.0,30.0,1.0,0.0
13399,75.0,0.0,60.0,0.0,0.0
13400,55.0,0.0,30.0,3.0,0.0
13401,67.0,0.0,30.0,1.0,0.0
13402,67.0,0.0,30.0,2.0,0.0
13403,54.0,0.0,30.0,3.0,0.0
13404,66.0,0.0,30.0,1.0,0.0
13405,78.0,0.0,60.0,4.0,0.0
13406,66.0,30.0,30.0,2.0,0.0
13407,78.0,0.0,60.0,0.0,0.0
13408,55.0,1.0,30.0,3.0,0.0
13409,67.0,0.0,30.0,2.0,0.0
13410,67.0,0.0,30.0,1.0,0.0
13411,52.0,0.0,60.0,3.0,0.0
13412,79.0,0.0,60.0,0.0,0.0
13413,64.0,0.0,60.0,1.0,0.0
13414,79.0,30.0,30.0,6.0,0.0
13415,71.0,0.0,60.0,4.0,0.0
13416,40.0,0.0,60.0,5.0,0.0
13417,40.0,30.0,60.0,7.0,0.0
13418,64.0,0.0,60.0,2.0,0.0
13419,81.0,0.0,30.0,6.0,0.0
13420,76.0,0.0,60.0,4.0,0.0
13421,79.0,30.0,30.0,6.0,0.0
13422,64.0,30.0,120.0,7.0,0.0
13423,81.0,30.0,30.0,6.0,0.0
13424,69.0,0.0,60.0,4.0,0.0
13425,78.0,30.0,30.0,6.0,0.0
13426,79.0,0.0,30.0,6.0,0.0
13427,63.0,0.0,60.0,7.0,0.0
13428,78.0,30.0,30.0,6.0,0.0
13429,78.0,30.0,60.0,4.0,0.0
13430,79.0,0.0,30.0,6.0,0.0
13431,64.0,30.0,30.0,7.0,0.0
13432,76.0,0.0,60.0,6.0,0.0
13433,67.0,0.0,30.0,4.0,0.0
13434,66.0,0.0,30.0,4.0,0.0
13435,59.0,30.0,30.0,7.0,0.0
13436,71.0,0.0,60.0,6.0,0.0
13437,67.0,0.0,30.0,4.0,0.0
13438,55.0,30.0,30.0,7.0,0.0
13439,52.0,0.0,30.0,5.0,0.0
13440,66.0,0.0,30.0,4.0,0.0
13441,51.0,0.0,30.0,5.0,0.0
13442,59.0,30.0,30.0,7.0,0.0
13443,52.0,0.0,30.0,5.0,0.0
13444,67.0,0.0,60.0,6.0,0.0
13445,52.0,30.0,30.0,7.0,0.0
13446,64.0,0.0,180.0,4.0,0.0
13447,54.0,30.0,30.0,7.0,0.0
13448,54.0,0.0,30.0,5.0,0.0
13449,76.0,0.0,60.0,0.0,0.0
13450,52.0,0.0,30.0,3.0,0.0
13451,67.0,0.0,30.0,2.0,0.0
13452,71.0,30.0,30.0,1.0,0.0
13453,76.0,30.0,60.0,6.0,0.0
13454,52.0,0.0,30.0,7.0,0.0
13455,52.0,0.0,30.0,5.0,0.0
13456,69.0,0.0,30.0,1.0,0.0
13457,54.0,0.0,30.0,3.0,0.0
13458,54.0,0.0,30.0,7.0,0.0
13459,69.0,0.0,30.0,2.0,0.0
13460,54.0,0.0,30.0,5.0,0.0
13461,55.0,0.0,60.0,3.0,0.0
13462,55.0,0.0,30.0,7.0,0.0
13463,71.0,0.0,30.0,1.0,0.0
13464,71.0,0.0,60.0,0.0,0.0
13465,67.0,30.0,30.0,2.0,0.0
13466,71.0,0.0,60.0,6.0,0.0
13467,55.0,0.0,30.0,5.0,0.0
13468,69.0,30.0,30.0,2.0,0.0
13469,54.0,0.0,30.0,7.0,0.0
13470,72.0,0.0,30.0,1.0,0.0
13471,54.0,0.0,30.0,5.0,0.0
13472,71.0,30.0,30.0,1.0,0.0
13473,76.0,0.0,60.0,0.0,0.0
13474,76.0,0.0,60.0,6.0,0.0
13475,67.0,0.0,30.0,2.0,0.0
13476,55.0,0.0,30.0,7.0,0.0
13477,55.0,0.0,30.0,5.0,0.0
13478,52.0,0.0,60.0,3.0,0.0
13479,76.0,0.0,120.0,4.0,0.0
13480,69.0,0.0,30.0,2.0,0.0
13481,52.0,0.0,30.0,7.0,0.0
13482,52.0,30.0,30.0,5.0,0.0
13483,72.0,0.0,30.0,1.0,0.0
13484,69.0,0.0,60.0,6.0,0.0
13485,59.0,30.0,60.0,3.0,0.0
13486,59.0,0.0,30.0,7.0,0.0
13487,59.0,0.0,30.0,5.0,0.0
13488,69.0,0.0,30.0,1.0,0.0
13489,69.0,0.0,60.0,0.0,0.0
13490,66.0,30.0,30.0,2.0,0.0
13491,57.0,0.0,30.0,7.0,0.0
13492,71.0,0.0,30.0,1.0,0.0
13493,57.0,0.0,30.0,5.0,0.0
13494,67.0,0.0,30.0,2.0,0.0
13495,59.0,0.0,30.0,7.0,0.0
13496,69.0,30.0,30.0,1.0,0.0
13497,78.0,0.0,60.0,0.0,0.0
13498,75.0,0.0,60.0,4.0,0.0
13499,59.0,0.0,30.0,5.0,0.0
13500,66.0,0.0,30.0,2.0,0.0
13501,78.0,0.0,60.0,6.0,0.0
13502,47.0,0.0,60.0,3.0,0.0
13503,47.0,0.0,30.0,5.0,0.0
13504,67.0,0.0,30.0,2.0,0.0
13505,47.0,30.0,30.0,7.0,0.0
13506,71.0,0.0,30.0,1.0,0.0
13507,67.0,0.0,30.0,1.0,0.0
13508,76.0,30.0,30.0,4.0,0.0
13509,67.0,0.0,30.0,6.0,0.0
13510,67.0,0.0,30.0,0.0,0.0
13511,52.0,0.0,60.0,7.0,0.0
13512,52.0,0.0,60.0,5.0,0.0
13513,64.0,0.0,30.0,2.0,0.0
13514,52.0,30.0,60.0,3.0,0.0
13515,66.0,0.0,30.0,6.0,0.0
13516,66.0,0.0,30.0,0.0,0.0
13517,69.0,0.0,30.0,1.0,0.0
13518,78.0,0.0,30.0,4.0,0.0
13519,63.0,0.0,30.0,2.0,0.0
13520,76.0,0.0,30.0,4.0,0.0
13521,67.0,0.0,30.0,1.0,0.0
13522,47.0,0.0,60.0,7.0,0.0
13523,47.0,0.0,60.0,5.0,0.0
13524,67.0,30.0,30.0,0.0,0.0
13525,67.0,0.0,30.0,6.0,0.0
13526,64.0,0.0,30.0,2.0,0.0
13527,47.0,0.0,60.0,3.0,0.0
13528,66.0,30.0,30.0,0.0,0.0
13529,63.0,0.0,30.0,2.0,0.0
13530,66.0,0.0,30.0,6.0,0.0
13531,69.0,0.0,30.0,1.0,0.0
13532,78.0,0.0,30.0,4.0,0.0
13533,79.0,0.0,60.0,4.0,0.0
13534,71.0,0.0,60.0,1.0,0.0
13535,64.0,0.0,60.0,0.0,0.0
13536,40.0,0.0,60.0,5.0,0.0
13537,40.0,0.0,60.0,7.0,0.0
13538,64.0,30.0,30.0,6.0,0.0
13539,64.0,0.0,60.0,2.0,0.0
13540,40.0,0.0,60.0,3.0,0.0
13541,66.0,30.0,30.0,6.0,0.0
13542,52.0,0.0,30.0,7.0,0.0
13543,78.0,0.0,30.0,4.0,0.0
13544,67.0,30.0,30.0,6.0,0.0
13545,76.0,30.0,30.0,4.0,0.0
13546,54.0,0.0,30.0,7.0,0.0
13547,69.0,0.0,30.0,6.0,0.0
13548,55.0,30.0,30.0,7.0,0.0
13549,74.0,0.0,60.0,4.0,0.0
13550,71.0,0.0,30.0,6.0,0.0
13551,72.0,0.0,30.0,6.0,0.0
13552,54.0,30.0,30.0,7.0,0.0
13553,79.0,0.0,60.0,4.0,0.0
13554,55.0,0.0,120.0,7.0,0.0
13555,71.0,30.0,30.0,6.0,0.0
13556,72.0,30.0,30.0,6.0,0.0
13557,72.0,30.0,60.0,4.0,0.0
13558,69.0,30.0,30.0,6.0,0.0
13559,71.0,0.0,30.0,6.0,0.0
13560,81.0,0.0,60.0,4.0,0.0
13561,69.0,30.0,30.0,6.0,0.0
13562,54.0,30.0,60.0,7.0,0.0
13563,71.0,0.0,30.0,6.0,0.0
13564,67.0,30.0,60.0,6.0,0.0
13565,71.0,30.0,30.0,4.0,0.0
13566,55.0,0.0,30.0,7.0,0.0
13567,69.0,0.0,30.0,4.0,0.0
13568,50.0,0.0,30.0,7.0,0.0
13569,71.0,0.0,30.0,4.0,0.0
13570,47.0,0.0,30.0,7.0,0.0
13571,74.0,30.0,60.0,6.0,0.0
13572,55.0,30.0,30.0,5.0,0.0
13573,69.0,0.0,30.0,4.0,0.0
13574,50.0,0.0,30.0,7.0,0.0
13575,54.0,0.0,30.0,5.0,0.0
13576,83.0,0.0,60.0,6.0,0.0
13577,55.0,30.0,30.0,5.0,0.0
13578,43.0,0.0,30.0,7.0,0.0
13579,67.0,0.0,180.0,4.0,0.0
13580,57.0,30.0,30.0,5.0,0.0
13581,50.0,0.0,30.0,7.0,0.0
13582,79.0,30.0,60.0,6.0,0.0
13583,79.0,0.0,60.0,0.0,0.0
13584,74.0,0.0,30.0,1.0,0.0
13585,71.0,30.0,30.0,2.0,0.0
13586,55.0,0.0,30.0,3.0,0.0
13587,55.0,0.0,30.0,5.0,0.0
13588,55.0,0.0,30.0,7.0,0.0
13589,57.0,0.0,30.0,5.0,0.0
13590,73.0,0.0,30.0,1.0,0.0
13591,57.0,0.0,30.0,3.0,0.0
13592,72.0,0.0,30.0,2.0,0.0
13593,57.0,0.0,30.0,7.0,0.0
13594,59.0,0.0,30.0,7.0,0.0
13595,71.0,0.0,30.0,2.0,0.0
13596,74.0,0.0,60.0,0.0,0.0
13597,59.0,0.0,30.0,5.0,0.0
13598,59.0,30.0,60.0,3.0,0.0
13599,74.0,30.0,30.0,1.0,0.0
13600,74.0,0.0,60.0,6.0,0.0
13601,76.0,0.0,30.0,1.0,0.0
13602,57.0,0.0,30.0,5.0,0.0
13603,57.0,0.0,30.0,7.0,0.0
13604,72.0,0.0,30.0,2.0,0.0
13605,74.0,0.0,30.0,1.0,0.0
13606,79.0,0.0,60.0,0.0,0.0
13607,59.0,0.0,30.0,5.0,0.0
13608,71.0,0.0,30.0,2.0,0.0
13609,79.0,30.0,120.0,4.0,0.0
13610,55.0,0.0,60.0,3.0,0.0
13611,79.0,0.0,60.0,6.0,0.0
13612,59.0,30.0,30.0,7.0,0.0
13613,76.0,30.0,30.0,1.0,0.0
13614,72.0,0.0,30.0,2.0,0.0
13615,55.0,0.0,30.0,5.0,0.0
13616,55.0,0.0,30.0,7.0,0.0
13617,72.0,0.0,60.0,6.0,0.0
13618,62.0,0.0,60.0,3.0,0.0
13619,72.0,0.0,30.0,1.0,0.0
13620,69.0,30.0,30.0,2.0,0.0
13621,72.0,0.0,60.0,0.0,0.0
13622,62.0,0.0,30.0,5.0,0.0
13623,62.0,0.0,30.0,7.0,0.0
13624,74.0,0.0,30.0,1.0,0.0
13625,60.0,0.0,30.0,7.0,0.0
13626,60.0,0.0,30.0,5.0,0.0
13627,71.0,0.0,30.0,2.0,0.0
13628,69.0,30.0,30.0,2.0,0.0
13629,72.0,0.0,30.0,1.0,0.0
13630,81.0,0.0,60.0,0.0,0.0
13631,78.0,0.0,60.0,4.0,0.0
13632,81.0,0.0,60.0,6.0,0.0
13633,62.0,0.0,30.0,5.0,0.0
13634,62.0,0.0,30.0,7.0,0.0
13635,50.0,0.0,60.0,3.0,0.0
13636,50.0,30.0,30.0,5.0,0.0
13637,50.0,0.0,30.0,7.0,0.0
13638,74.0,0.0,30.0,1.0,0.0
13639,71.0,0.0,30.0,2.0,0.0
13640,74.0,0.0,30.0,6.0,0.0
13641,71.0,30.0,30.0,1.0,0.0
13642,55.0,0.0,60.0,3.0,0.0
13643,79.0,0.0,120.0,4.0,0.0
13644,67.0,0.0,30.0,2.0,0.0
13645,55.0,30.0,60.0,5.0,0.0
13646,71.0,0.0,30.0,0.0,0.0
13647,55.0,0.0,60.0,7.0,0.0
13648,72.0,0.0,30.0,1.0,0.0
13649,72.0,0.0,30.0,6.0,0.0
13650,69.0,0.0,30.0,0.0,0.0
13651,66.0,0.0,30.0,2.0,0.0
13652,50.0,0.0,60.0,7.0,0.0
13653,67.0,0.0,30.0,2.0,0.0
13654,71.0,0.0,30.0,0.0,0.0
13655,71.0,30.0,30.0,1.0,0.0
13656,50.0,0.0,60.0,5.0,0.0
13657,50.0,0.0,60.0,3.0,0.0
13658,74.0,0.0,30.0,6.0,0.0
13659,72.0,30.0,30.0,6.0,0.0
13660,72.0,0.0,30.0,1.0,0.0
13661,66.0,0.0,30.0,2.0,0.0
13662,69.0,0.0,30.0,0.0,0.0
13663,67.0,0.0,60.0,6.0,0.0
13664,67.0,30.0,60.0,2.0,0.0
13665,74.0,0.0,60.0,1.0,0.0
13666,67.0,0.0,60.0,0.0,0.0
13667,43.0,0.0,60.0,3.0,0.0
13668,55.0,0.0,60.0,7.0,0.0
13669,43.0,30.0,30.0,5.0,0.0
13670,42.0,0.0,30.0,5.0,0.0
13671,43.0,0.0,30.0,5.0,0.0
13672,59.0,30.0,30.0,7.0,0.0
13673,79.0,0.0,60.0,4.0,0.0
13674,55.0,0.0,30.0,3.0,0.0
13675,74.0,30.0,120.0,6.0,0.0
13676,45.0,0.0,30.0,5.0,0.0
13677,62.0,0.0,30.0,7.0,0.0
13678,57.0,30.0,30.0,3.0,0.0
13679,47.0,0.0,60.0,5.0,0.0
13680,59.0,0.0,60.0,3.0,0.0
13681,67.0,0.0,60.0,7.0,0.0
13682,67.0,30.0,30.0,4.0,0.0
13683,66.0,0.0,30.0,4.0,0.0
13684,71.0,0.0,30.0,6.0,0.0
13685,62.0,0.0,60.0,3.0,0.0
13686,50.0,0.0,60.0,5.0,0.0
13687,65.0,30.0,30.0,7.0,0.0
13688,67.0,0.0,30.0,4.0,0.0
13689,64.0,30.0,30.0,7.0,0.0
13690,69.0,0.0,30.0,4.0,0.0
13691,72.0,0.0,30.0,6.0,0.0
13692,43.0,30.0,60.0,5.0,0.0
13693,55.0,0.0,60.0,3.0,0.0
13694,62.0,30.0,30.0,7.0,0.0
13695,71.0,0.0,30.0,4.0,0.0
13696,74.0,0.0,60.0,6.0,0.0
13697,60.0,0.0,30.0,7.0,0.0
13698,72.0,0.0,30.0,4.0,0.0
13699,74.0,30.0,30.0,4.0,0.0
13700,79.0,30.0,120.0,6.0,0.0
13701,59.0,0.0,30.0,7.0,0.0
13702,59.0,30.0,60.0,3.0,0.0
13703,47.0,0.0,60.0,5.0,0.0
13704,57.0,0.0,30.0,7.0,0.0
13705,76.0,0.0,30.0,4.0,0.0
13706,55.0,30.0,30.0,7.0,0.0
13707,60.0,0.0,60.0,3.0,0.0
13708,77.0,0.0,30.0,4.0,0.0
13709,48.0,0.0,60.0,5.0,0.0
13710,59.0,0.0,30.0,7.0,0.0
13711,74.0,0.0,30.0,4.0,0.0
13712,72.0,30.0,60.0,6.0,0.0
13713,60.0,0.0,30.0,7.0,0.0
13714,76.0,30.0,30.0,4.0,0.0
13715,48.0,0.0,60.0,3.0,0.0
13716,55.0,0.0,60.0,5.0,0.0
13717,72.0,0.0,30.0,4.0,0.0
13718,55.0,0.0,30.0,7.0,0.0
13719,52.0,30.0,30.0,7.0,0.0
13720,76.0,0.0,60.0,6.0,0.0
13721,60.0,0.0,60.0,3.0,0.0
13722,67.0,0.0,30.0,4.0,0.0
13723,60.0,0.0,60.0,5.0,0.0
13724,72.0,0.0,30.0,4.0,0.0
13725,55.0,30.0,30.0,7.0,0.0
13726,48.0,0.0,30.0,7.0,0.0
13727,72.0,0.0,60.0,0.0,0.0
13728,72.0,30.0,60.0,2.0,0.0
13729,79.0,0.0,60.0,6.0,0.0
13730,72.0,0.0,60.0,1.0,0.0
13731,67.0,0.0,120.0,5.0,0.0
13732,76.0,30.0,30.0,4.0,0.0
13733,72.0,0.0,30.0,4.0,0.0
13734,52.0,0.0,30.0,7.0,0.0
13735,71.0,0.0,60.0,2.0,0.0
13736,71.0,0.0,60.0,0.0,0.0
13737,71.0,0.0,60.0,1.0,0.0
13738,47.0,0.0,60.0,7.0,0.0
13739,74.0,30.0,60.0,4.0,0.0
13740,67.0,30.0,30.0,6.0,0.0
13741,66.0,0.0,30.0,6.0,0.0
13742,50.0,0.0,60.0,7.0,0.0
13743,71.0,30.0,30.0,4.0,0.0
13744,74.0,0.0,60.0,0.0,0.0
13745,67.0,0.0,30.0,6.0,0.0
13746,74.0,0.0,60.0,2.0,0.0
13747,74.0,0.0,60.0,1.0,0.0
13748,65.0,0.0,30.0,5.0,0.0
13749,69.0,0.0,30.0,6.0,0.0
13750,72.0,0.0,30.0,4.0,0.0
13751,64.0,30.0,30.0,5.0,0.0
13752,71.0,0.0,30.0,6.0,0.0
13753,74.0,0.0,60.0,4.0,0.0
13754,67.0,0.0,60.0,2.0,0.0
13755,62.0,30.0,30.0,5.0,0.0
13756,67.0,0.0,60.0,0.0,0.0
13757,43.0,0.0,60.0,7.0,0.0
13758,67.0,30.0,60.0,1.0,0.0
13759,60.0,0.0,30.0,5.0,0.0
13760,72.0,0.0,30.0,6.0,0.0
13761,71.0,30.0,60.0,1.0,0.0
13762,59.0,0.0,30.0,5.0,0.0
13763,71.0,0.0,60.0,2.0,0.0
13764,74.0,30.0,30.0,6.0,0.0
13765,79.0,0.0,120.0,4.0,0.0
13766,71.0,0.0,60.0,0.0,0.0
13767,47.0,0.0,60.0,7.0,0.0
13768,55.0,0.0,60.0,3.0,0.0
13769,76.0,0.0,30.0,6.0,0.0
13770,57.0,0.0,30.0,5.0,0.0
13771,72.0,0.0,60.0,1.0,0.0
13772,72.0,0.0,60.0,0.0,0.0
13773,55.0,0.0,30.0,5.0,0.0
13774,60.0,0.0,60.0,3.0,0.0
13775,48.0,0.0,60.0,7.0,0.0
13776,77.0,30.0,30.0,6.0,0.0
13777,72.0,0.0,60.0,2.0,0.0
13778,59.0,30.0,30.0,5.0,0.0
13779,74.0,0.0,30.0,6.0,0.0
13780,67.0,0.0,60.0,2.0,0.0
13781,76.0,30.0,30.0,6.0,0.0
13782,67.0,0.0,60.0,1.0,0.0
13783,48.0,0.0,60.0,3.0,0.0
13784,67.0,0.0,60.0,0.0,0.0
13785,72.0,0.0,60.0,4.0,0.0
13786,55.0,0.0,60.0,7.0,0.0
13787,60.0,0.0,30.0,5.0,0.0
13788,55.0,0.0,30.0,5.0,0.0
13789,72.0,30.0,30.0,6.0,0.0
13790,60.0,0.0,60.0,0.0,0.0
13791,60.0,0.0,60.0,3.0,0.0
13792,60.0,0.0,60.0,1.0,0.0
13793,67.0,0.0,30.0,6.0,0.0
13794,52.0,0.0,30.0,5.0,0.0
13795,60.0,30.0,30.0,7.0,0.0
13796,60.0,0.0,60.0,2.0,0.0
13797,76.0,0.0,60.0,4.0,0.0
13798,72.0,0.0,30.0,6.0,0.0
13799,55.0,30.0,30.0,5.0,0.0
13800,55.0,0.0,30.0,7.0,0.0
13801,60.0,30.0,30.0,7.0,0.0
13802,57.0,0.0,30.0,3.0,0.0
13803,79.0,30.0,60.0,4.0,0.0
13804,48.0,0.0,30.0,5.0,0.0
13805,76.0,30.0,120.0,6.0,0.0
13806,59.0,0.0,30.0,3.0,0.0
13807,47.0,0.0,30.0,5.0,0.0
13808,64.0,0.0,30.0,7.0,0.0
13809,69.0,30.0,30.0,4.0,0.0
13810,49.0,0.0,60.0,5.0,0.0
13811,61.0,0.0,60.0,3.0,0.0
13812,69.0,0.0,60.0,7.0,0.0
13813,68.0,0.0,30.0,4.0,0.0
13814,73.0,0.0,30.0,6.0,0.0
13815,52.0,0.0,60.0,5.0,0.0
13816,64.0,0.0,60.0,3.0,0.0
13817,67.0,30.0,30.0,7.0,0.0
13818,69.0,0.0,30.0,4.0,0.0
13819,71.0,0.0,30.0,4.0,0.0
13820,74.0,0.0,30.0,6.0,0.0
13821,66.0,30.0,30.0,7.0,0.0
13822,76.0,0.0,60.0,6.0,0.0
13823,64.0,0.0,30.0,7.0,0.0
13824,57.0,0.0,60.0,3.0,0.0
13825,45.0,30.0,60.0,5.0,0.0
13826,73.0,30.0,30.0,4.0,0.0
13827,62.0,0.0,30.0,7.0,0.0
13828,74.0,0.0,30.0,4.0,0.0
13829,76.0,30.0,30.0,4.0,0.0
13830,81.0,30.0,120.0,6.0,0.0
13831,61.0,0.0,30.0,7.0,0.0
13832,61.0,30.0,60.0,3.0,0.0
13833,49.0,0.0,60.0,5.0,0.0
13834,78.0,0.0,30.0,4.0,0.0
13835,59.0,0.0,30.0,7.0,0.0
13836,50.0,0.0,60.0,5.0,0.0
13837,79.0,0.0,30.0,4.0,0.0
13838,57.0,30.0,30.0,7.0,0.0
13839,62.0,0.0,60.0,3.0,0.0
13840,76.0,0.0,30.0,4.0,0.0
13841,61.0,0.0,30.0,7.0,0.0
13842,50.0,0.0,60.0,3.0,0.0
13843,74.0,0.0,60.0,6.0,0.0
13844,57.0,0.0,60.0,5.0,0.0
13845,62.0,30.0,30.0,7.0,0.0
13846,78.0,0.0,30.0,4.0,0.0
13847,74.0,0.0,30.0,4.0,0.0
13848,57.0,30.0,30.0,7.0,0.0
13849,62.0,0.0,60.0,5.0,0.0
13850,69.0,0.0,30.0,4.0,0.0
13851,78.0,0.0,60.0,6.0,0.0
13852,54.0,30.0,30.0,7.0,0.0
13853,62.0,0.0,60.0,3.0,0.0
13854,57.0,30.0,30.0,7.0,0.0
13855,74.0,0.0,30.0,4.0,0.0
13856,74.0,0.0,60.0,1.0,0.0
13857,69.0,0.0,120.0,5.0,0.0
13858,74.0,0.0,60.0,0.0,0.0
13859,78.0,30.0,30.0,4.0,0.0
13860,81.0,0.0,60.0,6.0,0.0
13861,50.0,0.0,30.0,7.0,0.0
13862,74.0,30.0,60.0,2.0,0.0
13863,54.0,0.0,30.0,7.0,0.0
13864,74.0,0.0,30.0,4.0,0.0
13865,73.0,0.0,60.0,2.0,0.0
13866,76.0,0.0,60.0,4.0,0.0
13867,73.0,0.0,60.0,1.0,0.0
13868,73.0,0.0,60.0,0.0,0.0
13869,69.0,30.0,30.0,6.0,0.0
13870,49.0,0.0,60.0,7.0,0.0
13871,68.0,30.0,30.0,6.0,0.0
13872,52.0,0.0,60.0,7.0,0.0
13873,69.0,30.0,30.0,6.0,0.0
13874,76.0,0.0,60.0,2.0,0.0
13875,67.0,0.0,30.0,5.0,0.0
13876,73.0,0.0,30.0,4.0,0.0
13877,76.0,0.0,60.0,0.0,0.0
13878,76.0,30.0,60.0,1.0,0.0
13879,66.0,0.0,30.0,5.0,0.0
13880,74.0,0.0,30.0,4.0,0.0
13881,71.0,0.0,30.0,6.0,0.0
13882,69.0,0.0,60.0,0.0,0.0
13883,45.0,30.0,60.0,7.0,0.0
13884,69.0,0.0,60.0,2.0,0.0
13885,69.0,0.0,60.0,1.0,0.0
13886,64.0,30.0,30.0,5.0,0.0
13887,73.0,0.0,30.0,6.0,0.0
13888,76.0,0.0,60.0,4.0,0.0
13889,74.0,0.0,30.0,6.0,0.0
13890,62.0,0.0,30.0,5.0,0.0
13891,73.0,0.0,60.0,1.0,0.0
13892,76.0,0.0,30.0,6.0,0.0
13893,61.0,30.0,30.0,5.0,0.0
13894,73.0,0.0,60.0,2.0,0.0
13895,73.0,0.0,60.0,0.0,0.0
13896,57.0,0.0,60.0,3.0,0.0
13897,81.0,0.0,120.0,4.0,0.0
13898,49.0,0.0,60.0,7.0,0.0
13899,78.0,0.0,30.0,6.0,0.0
13900,59.0,30.0,30.0,5.0,0.0
13901,57.0,0.0,30.0,5.0,0.0
13902,50.0,0.0,60.0,7.0,0.0
13903,74.0,30.0,60.0,1.0,0.0
13904,79.0,30.0,30.0,6.0,0.0
13905,74.0,0.0,60.0,2.0,0.0
13906,62.0,0.0,60.0,3.0,0.0
13907,74.0,0.0,60.0,0.0,0.0
13908,76.0,0.0,30.0,6.0,0.0
13909,61.0,0.0,30.0,5.0,0.0
13910,50.0,0.0,60.0,3.0,0.0
13911,69.0,0.0,60.0,2.0,0.0
13912,78.0,30.0,30.0,6.0,0.0
13913,69.0,0.0,60.0,1.0,0.0
13914,69.0,0.0,60.0,0.0,0.0
13915,74.0,0.0,60.0,4.0,0.0
13916,57.0,30.0,60.0,7.0,0.0
13917,62.0,0.0,30.0,5.0,0.0
13918,57.0,0.0,30.0,5.0,0.0
13919,74.0,0.0,30.0,6.0,0.0
13920,62.0,0.0,60.0,2.0,0.0
13921,78.0,0.0,60.0,4.0,0.0
13922,62.0,0.0,60.0,0.0,0.0
13923,69.0,0.0,30.0,6.0,0.0
13924,62.0,0.0,60.0,3.0,0.0
13925,62.0,30.0,30.0,7.0,0.0
13926,62.0,0.0,60.0,1.0,0.0
13927,54.0,0.0,30.0,5.0,0.0
13928,74.0,0.0,30.0,6.0,0.0
13929,57.0,30.0,30.0,5.0,0.0
13930,57.0,0.0,30.0,7.0,0.0
13931,81.0,0.0,60.0,4.0,0.0
13932,62.0,0.0,30.0,7.0,0.0
13933,59.0,30.0,30.0,3.0,0.0
13934,78.0,0.0,120.0,6.0,0.0
13935,50.0,0.0,30.0,5.0,0.0
13936,66.0,0.0,30.0,7.0,0.0
13937,49.0,0.0,30.0,5.0,0.0
13938,61.0,30.0,30.0,3.0,0.0
13939,71.0,0.0,60.0,7.0,0.0
13940,51.0,0.0,60.0,5.0,0.0
13941,62.0,30.0,60.0,3.0,0.0
13942,71.0,30.0,30.0,4.0,0.0
13943,70.0,0.0,30.0,4.0,0.0
13944,75.0,0.0,30.0,6.0,0.0
13945,66.0,0.0,60.0,3.0,0.0
13946,69.0,0.0,30.0,7.0,0.0
13947,54.0,30.0,60.0,5.0,0.0
13948,71.0,30.0,30.0,4.0,0.0
13949,67.0,0.0,30.0,7.0,0.0
13950,76.0,0.0,30.0,6.0,0.0
13951,73.0,0.0,30.0,4.0,0.0
13952,75.0,0.0,30.0,4.0,0.0
13953,78.0,0.0,60.0,6.0,0.0
13954,47.0,0.0,60.0,5.0,0.0
13955,59.0,0.0,60.0,3.0,0.0
13956,66.0,30.0,30.0,7.0,0.0
13957,64.0,30.0,30.0,7.0,0.0
13958,76.0,0.0,30.0,4.0,0.0
13959,63.0,0.0,30.0,7.0,0.0
13960,51.0,0.0,60.0,5.0,0.0
13961,78.0,30.0,30.0,4.0,0.0
13962,62.0,0.0,60.0,3.0,0.0
13963,83.0,0.0,120.0,6.0,0.0
13964,79.0,30.0,30.0,4.0,0.0
13965,61.0,0.0,30.0,7.0,0.0
13966,59.0,0.0,30.0,7.0,0.0
13967,81.0,30.0,30.0,4.0,0.0
13968,64.0,0.0,60.0,3.0,0.0
13969,52.0,30.0,60.0,5.0,0.0
13970,63.0,0.0,30.0,7.0,0.0
13971,78.0,0.0,30.0,4.0,0.0
13972,79.0,30.0,30.0,4.0,0.0
13973,76.0,0.0,60.0,6.0,0.0
13974,64.0,0.0,30.0,7.0,0.0
13975,52.0,30.0,60.0,3.0,0.0
13976,59.0,0.0,60.0,5.0,0.0
13977,76.0,0.0,30.0,4.0,0.0
13978,59.0,0.0,30.0,7.0,0.0
13979,55.0,0.0,30.0,7.0,0.0
13980,71.0,30.0,30.0,4.0,0.0
13981,79.0,0.0,60.0,6.0,0.0
13982,64.0,0.0,60.0,5.0,0.0
13983,64.0,0.0,60.0,3.0,0.0
13984,59.0,0.0,30.0,7.0,0.0
13985,76.0,30.0,30.0,4.0,0.0
13986,76.0,0.0,60.0,2.0,0.0
13987,76.0,0.0,60.0,1.0,0.0
13988,52.0,0.0,30.0,7.0,0.0
13989,83.0,30.0,60.0,6.0,0.0
13990,76.0,0.0,60.0,0.0,0.0
13991,71.0,0.0,120.0,5.0,0.0
13992,79.0,30.0,30.0,4.0,0.0
13993,76.0,0.0,30.0,4.0,0.0
13994,55.0,0.0,30.0,7.0,0.0
13995,51.0,0.0,60.0,7.0,0.0
13996,75.0,0.0,60.0,2.0,0.0
13997,75.0,0.0,60.0,1.0,0.0
13998,78.0,0.0,60.0,4.0,0.0
13999,75.0,30.0,60.0,0.0,0.0
14000,71.0,30.0,30.0,6.0,0.0
14001,70.0,0.0,30.0,6.0,0.0
14002,69.0,0.0,30.0,5.0,0.0
14003,54.0,0.0,60.0,7.0,0.0
14004,75.0,30.0,30.0,4.0,0.0
14005,78.0,0.0,60.0,2.0,0.0
14006,71.0,0.0,30.0,6.0,0.0
14007,78.0,0.0,60.0,1.0,0.0
14008,78.0,30.0,60.0,0.0,0.0
14009,73.0,0.0,30.0,6.0,0.0
14010,67.0,0.0,30.0,5.0,0.0
14011,76.0,0.0,30.0,4.0,0.0
14012,71.0,0.0,60.0,0.0,0.0
14013,75.0,30.0,30.0,6.0,0.0
14014,66.0,0.0,30.0,5.0,0.0
14015,71.0,0.0,60.0,1.0,0.0
14016,78.0,0.0,60.0,4.0,0.0
14017,71.0,0.0,60.0,2.0,0.0
14018,47.0,0.0,60.0,7.0,0.0
14019,64.0,30.0,30.0,5.0,0.0
14020,76.0,0.0,30.0,6.0,0.0
14021,83.0,30.0,120.0,4.0,0.0
14022,75.0,0.0,60.0,1.0,0.0
14023,75.0,30.0,60.0,0.0,0.0
14024,75.0,0.0,60.0,2.0,0.0
14025,78.0,0.0,30.0,6.0,0.0
14026,63.0,30.0,30.0,5.0,0.0
14027,59.0,0.0,60.0,3.0,0.0
14028,51.0,0.0,60.0,7.0,0.0
14029,79.0,0.0,30.0,6.0,0.0
14030,61.0,0.0,30.0,5.0,0.0
14031,64.0,0.0,60.0,3.0,0.0
14032,81.0,0.0,30.0,6.0,0.0
14033,59.0,30.0,30.0,5.0,0.0
14034,76.0,0.0,60.0,2.0,0.0
14035,76.0,0.0,60.0,1.0,0.0
14036,52.0,0.0,60.0,7.0,0.0
14037,76.0,0.0,60.0,0.0,0.0
14038,78.0,0.0,30.0,6.0,0.0
14039,63.0,0.0,30.0,5.0,0.0
14040,76.0,0.0,60.0,4.0,0.0
14041,59.0,0.0,60.0,7.0,0.0
14042,64.0,0.0,30.0,5.0,0.0
14043,71.0,0.0,60.0,1.0,0.0
14044,79.0,30.0,30.0,6.0,0.0
14045,71.0,0.0,60.0,2.0,0.0
14046,71.0,0.0,60.0,0.0,0.0
14047,52.0,0.0,60.0,3.0,0.0
14048,76.0,0.0,30.0,6.0,0.0
14049,59.0,30.0,30.0,5.0,0.0
14050,55.0,30.0,30.0,5.0,0.0
14051,79.0,0.0,60.0,4.0,0.0
14052,64.0,0.0,60.0,7.0,0.0
14053,71.0,0.0,30.0,6.0,0.0
14054,64.0,0.0,60.0,0.0,0.0
14055,64.0,0.0,60.0,3.0,0.0
14056,64.0,0.0,60.0,1.0,0.0
14057,64.0,30.0,60.0,2.0,0.0
14058,76.0,0.0,30.0,6.0,0.0
14059,59.0,0.0,30.0,5.0,0.0
14060,76.0,0.0,60.0,0.0,0.0
14061,71.0,30.0,60.0,2.0,0.0
14062,52.0,0.0,30.0,5.0,0.0
14063,55.0,0.0,60.0,7.0,0.0
14064,76.0,0.0,60.0,1.0,0.0
14065,83.0,0.0,60.0,4.0,0.0
14066,79.0,30.0,30.0,6.0,0.0
14067,55.0,0.0,60.0,3.0,0.0
14068,76.0,0.0,30.0,6.0,0.0
14069,55.0,0.0,30.0,5.0,0.0
14070,54.0,0.0,60.0,5.0,0.0
14071,81.0,0.0,120.0,6.0,0.0
14072,54.0,0.0,60.0,7.0,0.0
14073,54.0,0.0,60.0,3.0,0.0
14074,81.0,0.0,60.0,0.0,0.0
14075,75.0,0.0,60.0,1.0,0.0
14076,72.0,30.0,30.0,2.0,0.0
14077,81.0,0.0,120.0,4.0,0.0
14078,74.0,30.0,30.0,2.0,0.0
14079,60.0,0.0,60.0,3.0,0.0
14080,60.0,0.0,60.0,7.0,0.0
14081,72.0,30.0,30.0,2.0,0.0
14082,76.0,30.0,120.0,1.0,0.0
14083,60.0,30.0,60.0,5.0,0.0
14084,74.0,0.0,30.0,2.0,0.0
14085,72.0,30.0,30.0,2.0,0.0
14086,52.0,0.0,60.0,3.0,0.0
14087,81.0,0.0,60.0,0.0,0.0
14088,52.0,0.0,60.0,7.0,0.0
14089,81.0,0.0,120.0,6.0,0.0
14090,81.0,0.0,120.0,4.0,0.0
14091,52.0,0.0,60.0,5.0,0.0
14092,74.0,0.0,30.0,2.0,0.0
14093,60.0,0.0,60.0,7.0,0.0
14094,60.0,0.0,60.0,5.0,0.0
14095,60.0,0.0,60.0,3.0,0.0
14096,72.0,30.0,30.0,2.0,0.0
14097,78.0,30.0,60.0,1.0,0.0
14098,74.0,0.0,30.0,2.0,0.0
14099,81.0,0.0,120.0,4.0,0.0
14100,81.0,0.0,120.0,6.0,0.0
14101,51.0,30.0,30.0,3.0,0.0
14102,51.0,0.0,30.0,5.0,0.0
14103,78.0,0.0,120.0,1.0,0.0
14104,71.0,0.0,30.0,2.0,0.0
14105,51.0,0.0,30.0,7.0,0.0
14106,81.0,0.0,120.0,0.0,0.0
14107,49.0,30.0,30.0,5.0,0.0
14108,49.0,0.0,30.0,7.0,0.0
14109,69.0,0.0,30.0,2.0,0.0
14110,49.0,0.0,30.0,3.0,0.0
14111,71.0,0.0,30.0,2.0,0.0
14112,51.0,0.0,30.0,7.0,0.0
14113,51.0,30.0,30.0,5.0,0.0
14114,51.0,0.0,30.0,3.0,0.0
14115,49.0,0.0,30.0,5.0,0.0
14116,49.0,30.0,30.0,7.0,0.0
14117,49.0,0.0,30.0,3.0,0.0
14118,69.0,0.0,30.0,2.0,0.0
14119,71.0,0.0,120.0,2.0,0.0
14120,47.0,0.0,30.0,5.0,0.0
14121,47.0,0.0,30.0,3.0,0.0
14122,47.0,30.0,30.0,7.0,0.0
14123,79.0,0.0,30.0,0.0,0.0
14124,49.0,0.0,30.0,7.0,0.0
14125,79.0,0.0,30.0,6.0,0.0
14126,79.0,0.0,30.0,4.0,0.0
14127,49.0,0.0,30.0,5.0,0.0
14128,49.0,30.0,30.0,3.0,0.0
14129,76.0,0.0,30.0,1.0,0.0
14130,51.0,30.0,30.0,5.0,0.0
14131,78.0,0.0,30.0,4.0,0.0
14132,78.0,0.0,30.0,1.0,0.0
14133,78.0,0.0,30.0,0.0,0.0
14134,51.0,0.0,30.0,3.0,0.0
14135,78.0,0.0,30.0,6.0,0.0
14136,51.0,0.0,30.0,7.0,0.0
14137,81.0,0.0,30.0,4.0,0.0
14138,47.0,0.0,30.0,7.0,0.0
14139,81.0,0.0,30.0,6.0,0.0
14140,47.0,0.0,30.0,3.0,0.0
14141,75.0,0.0,30.0,1.0,0.0
14142,47.0,0.0,30.0,5.0,0.0
14143,81.0,30.0,30.0,0.0,0.0
14144,79.0,0.0,30.0,0.0,0.0
14145,76.0,0.0,60.0,1.0,0.0
14146,52.0,0.0,60.0,3.0,0.0
14147,52.0,30.0,60.0,7.0,0.0
14148,79.0,30.0,30.0,6.0,0.0
14149,79.0,0.0,30.0,4.0,0.0
14150,52.0,0.0,60.0,5.0,0.0
14151,78.0,0.0,30.0,4.0,0.0
14152,72.0,0.0,30.0,2.0,0.0
14153,78.0,0.0,30.0,0.0,0.0
14154,78.0,0.0,30.0,6.0,0.0
14155,79.0,30.0,90.0,6.0,0.0
14156,79.0,0.0,90.0,0.0,0.0
14157,59.0,0.0,60.0,5.0,0.0
14158,59.0,30.0,60.0,3.0,0.0
14159,79.0,0.0,90.0,4.0,0.0
14160,71.0,30.0,30.0,2.0,0.0
14161,59.0,0.0,60.0,7.0,0.0
14162,72.0,0.0,30.0,2.0,0.0
14163,76.0,0.0,60.0,1.0,0.0
14164,50.0,0.0,60.0,7.0,0.0
14165,50.0,0.0,60.0,5.0,0.0
14166,71.0,0.0,30.0,2.0,0.0
14167,50.0,0.0,60.0,3.0,0.0
14168,72.0,0.0,30.0,2.0,0.0
14169,78.0,0.0,30.0,0.0,0.0
14170,78.0,0.0,30.0,4.0,0.0
14171,78.0,30.0,30.0,6.0,0.0
14172,79.0,30.0,90.0,6.0,0.0
14173,79.0,0.0,90.0,4.0,0.0
14174,59.0,0.0,60.0,5.0,0.0
14175,59.0,0.0,60.0,7.0,0.0
14176,59.0,0.0,60.0,3.0,0.0
14177,71.0,30.0,30.0,2.0,0.0
14178,79.0,0.0,90.0,0.0,0.0
14179,72.0,30.0,30.0,2.0,0.0
14180,71.0,0.0,30.0,2.0,0.0
14181,49.0,0.0,30.0,7.0,0.0
14182,76.0,0.0,180.0,1.0,0.0
14183,49.0,0.0,30.0,5.0,0.0
14184,49.0,0.0,30.0,3.0,0.0
14185,47.0,0.0,30.0,3.0,0.0
14186,70.0,0.0,30.0,2.0,0.0
14187,76.0,30.0,30.0,4.0,0.0
14188,47.0,0.0,30.0,5.0,0.0
14189,76.0,0.0,30.0,0.0,0.0
14190,76.0,0.0,30.0,6.0,0.0
14191,47.0,0.0,30.0,7.0,0.0
14192,79.0,0.0,120.0,6.0,0.0
14193,79.0,30.0,120.0,0.0,0.0
14194,71.0,30.0,30.0,2.0,0.0
14195,49.0,0.0,30.0,3.0,0.0
14196,49.0,0.0,30.0,5.0,0.0
14197,79.0,0.0,120.0,4.0,0.0
14198,49.0,0.0,30.0,7.0,0.0
14199,47.0,30.0,30.0,5.0,0.0
14200,47.0,0.0,30.0,7.0,0.0
14201,47.0,0.0,30.0,3.0,0.0
14202,70.0,0.0,30.0,2.0,0.0
14203,46.0,30.0,30.0,5.0,0.0
14204,46.0,0.0,30.0,3.0,0.0
14205,73.0,0.0,60.0,2.0,0.0
14206,46.0,0.0,30.0,7.0,0.0
14207,47.0,0.0,30.0,5.0,0.0
14208,47.0,0.0,30.0,7.0,0.0
14209,47.0,0.0,30.0,3.0,0.0
14210,49.0,0.0,30.0,3.0,0.0
14211,78.0,0.0,30.0,6.0,0.0
14212,70.0,0.0,60.0,2.0,0.0
14213,78.0,30.0,30.0,4.0,0.0
14214,66.0,20.0,60.0,1.0,0.0
14215,49.0,0.0,30.0,7.0,0.0
14216,78.0,0.0,30.0,0.0,0.0
14217,49.0,0.0,30.0,5.0,0.0
14218,76.0,0.0,30.0,0.0,0.0
14219,46.0,0.0,30.0,5.0,0.0
14220,46.0,0.0,30.0,3.0,0.0
14221,76.0,0.0,30.0,6.0,0.0
14222,76.0,0.0,30.0,4.0,0.0
14223,46.0,0.0,30.0,7.0,0.0
14224,47.0,0.0,60.0,5.0,0.0
14225,66.0,0.0,480.0,2.0,0.0
14226,47.0,0.0,60.0,7.0,0.0
14227,47.0,29.0,2400.0,3.0,0.0
14228,75.0,0.0,60.0,6.0,0.0
14229,75.0,0.0,480.0,0.0,0.0
14230,71.0,19.0,960.0,1.0,0.0
14231,75.0,20.0,20.0,4.0,0.0
14232,66.0,20.0,20.0,4.0,0.0
14233,67.0,20.0,20.0,4.0,0.0
14234,69.0,20.0,20.0,4.0,0.0
14235,59.0,0.0,60.0,7.0,0.0
14236,78.0,0.0,60.0,6.0,0.0
14237,67.0,20.0,20.0,4.0,0.0
14238,66.0,20.0,20.0,4.0,0.0
14239,59.0,20.0,20.0,4.0,0.0
14240,69.0,0.0,60.0,6.0,0.0
14241,63.0,0.0,60.0,7.0,0.0
14242,59.0,0.0,60.0,5.0,0.0
14243,66.0,20.0,20.0,4.0,0.0
14244,67.0,20.0,20.0,4.0,0.0
14245,59.0,20.0,60.0,7.0,0.0
14246,78.0,0.0,60.0,6.0,0.0
14247,69.0,20.0,20.0,4.0,0.0
14248,67.0,20.0,20.0,4.0,0.0
14249,66.0,0.0,20.0,4.0,0.0
14250,47.0,20.0,60.0,5.0,0.0
14251,47.0,0.0,60.0,7.0,0.0
14252,75.0,20.0,20.0,4.0,0.0
14253,75.0,0.0,60.0,6.0,0.0
14254,66.0,20.0,20.0,4.0,0.0
14255,67.0,0.0,20.0,4.0,0.0
14256,78.0,0.0,60.0,6.0,0.0
14257,59.0,20.0,60.0,7.0,0.0
14258,69.0,20.0,20.0,4.0,0.0
14259,67.0,20.0,20.0,4.0,0.0
14260,66.0,0.0,20.0,4.0,0.0
14261,69.0,20.0,60.0,6.0,0.0
14262,59.0,20.0,20.0,4.0,0.0
14263,59.0,0.0,60.0,5.0,0.0
14264,63.0,0.0,60.0,7.0,0.0
14265,66.0,20.0,20.0,4.0,0.0
14266,67.0,0.0,20.0,4.0,0.0
14267,78.0,20.0,60.0,6.0,0.0
14268,69.0,20.0,20.0,4.0,0.0
14269,59.0,0.0,60.0,7.0,0.0
14270,67.0,20.0,20.0,4.0,0.0
14271,66.0,0.0,20.0,4.0,0.0
14272,76.0,20.0,20.0,4.0,0.0
14273,71.0,0.0,60.0,6.0,0.0
14274,67.0,0.0,480.0,2.0,0.0
14275,76.0,1.0,480.0,0.0,0.0
14276,47.0,20.0,60.0,5.0,0.0
14277,47.0,0.0,60.0,7.0,0.0
14278,67.0,20.0,20.0,4.0,0.0
14279,69.0,0.0,20.0,4.0,0.0
14280,71.0,20.0,20.0,4.0,0.0
14281,55.0,0.0,60.0,7.0,0.0
14282,76.0,0.0,60.0,6.0,0.0
14283,69.0,20.0,20.0,4.0,0.0
14284,67.0,20.0,20.0,4.0,0.0
14285,59.0,20.0,20.0,4.0,0.0
14286,64.0,0.0,60.0,7.0,0.0
14287,59.0,0.0,60.0,5.0,0.0
14288,67.0,20.0,60.0,6.0,0.0
14289,67.0,20.0,20.0,4.0,0.0
14290,69.0,0.0,20.0,4.0,0.0
14291,71.0,20.0,20.0,4.0,0.0
14292,76.0,0.0,60.0,6.0,0.0
14293,55.0,20.0,60.0,7.0,0.0
14294,69.0,20.0,20.0,4.0,0.0
14295,67.0,0.0,20.0,4.0,0.0
14296,47.0,0.0,60.0,5.0,0.0
14297,64.0,10.0,30.0,6.0,0.0
14298,47.0,0.0,60.0,7.0,0.0
14299,76.0,10.0,20.0,4.0,0.0
14300,67.0,20.0,20.0,4.0,0.0
14301,66.0,20.0,30.0,6.0,0.0
14302,69.0,0.0,20.0,4.0,0.0
14303,52.0,20.0,60.0,7.0,0.0
14304,67.0,10.0,30.0,6.0,0.0
14305,71.0,10.0,20.0,4.0,0.0
14306,69.0,20.0,20.0,4.0,0.0
14307,66.0,0.0,30.0,6.0,0.0
14308,67.0,0.0,20.0,4.0,0.0
14309,64.0,0.0,60.0,6.0,0.0
14310,55.0,20.0,60.0,7.0,0.0
14311,59.0,0.0,60.0,5.0,0.0
14312,59.0,20.0,20.0,4.0,0.0
14313,67.0,20.0,20.0,4.0,0.0
14314,69.0,0.0,20.0,4.0,0.0
14315,52.0,0.0,60.0,7.0,0.0
14316,71.0,20.0,20.0,4.0,0.0
14317,79.0,0.0,60.0,6.0,0.0
14318,69.0,20.0,20.0,4.0,0.0
14319,67.0,0.0,20.0,4.0,0.0
14320,78.0,0.0,720.0,0.0,0.0
14321,78.0,10.0,30.0,6.0,0.0
14322,75.0,19.0,720.0,1.0,0.0
14323,47.0,0.0,60.0,7.0,0.0
14324,47.0,20.0,60.0,5.0,0.0
14325,78.0,10.0,20.0,4.0,0.0
14326,69.0,0.0,480.0,2.0,0.0
14327,69.0,20.0,20.0,4.0,0.0
14328,79.0,0.0,30.0,6.0,0.0
14329,71.0,0.0,20.0,4.0,0.0
14330,72.0,20.0,20.0,4.0,0.0
14331,63.0,0.0,60.0,7.0,0.0
14332,81.0,10.0,90.0,6.0,0.0
14333,71.0,20.0,20.0,4.0,0.0
14334,69.0,20.0,20.0,4.0,0.0
14335,59.0,10.0,20.0,4.0,0.0
14336,66.0,0.0,60.0,7.0,0.0
14337,59.0,0.0,60.0,5.0,0.0
14338,69.0,20.0,20.0,4.0,0.0
14339,79.0,20.0,30.0,6.0,0.0
14340,71.0,0.0,20.0,4.0,0.0
14341,72.0,10.0,20.0,4.0,0.0
14342,63.0,20.0,60.0,7.0,0.0
14343,78.0,10.0,30.0,6.0,0.0
14344,69.0,20.0,20.0,4.0,0.0
14345,76.0,0.0,30.0,6.0,0.0
14346,69.0,0.0,20.0,4.0,0.0
14347,47.0,20.0,60.0,5.0,0.0
14348,47.0,0.0,60.0,7.0,0.0
14349,75.0,10.0,30.0,6.0,0.0
14350,78.0,10.0,20.0,4.0,0.0
14351,69.0,20.0,20.0,4.0,0.0
14352,76.0,0.0,30.0,6.0,0.0
14353,71.0,0.0,20.0,4.0,0.0
14354,63.0,20.0,60.0,7.0,0.0
14355,72.0,10.0,20.0,4.0,0.0
14356,78.0,10.0,30.0,6.0,0.0
14357,71.0,20.0,20.0,4.0,0.0
14358,75.0,0.0,30.0,6.0,0.0
14359,69.0,0.0,20.0,4.0,0.0
14360,59.0,0.0,60.0,5.0,0.0
14361,59.0,20.0,20.0,4.0,0.0
14362,71.0,0.0,60.0,6.0,0.0
14363,66.0,20.0,60.0,7.0,0.0
14364,69.0,20.0,20.0,4.0,0.0
14365,71.0,0.0,20.0,4.0,0.0
14366,78.0,20.0,60.0,6.0,0.0
14367,72.0,20.0,20.0,4.0,0.0
14368,63.0,0.0,60.0,7.0,0.0
14369,71.0,20.0,20.0,4.0,0.0
14370,69.0,0.0,20.0,4.0,0.0
14371,67.0,0.0,480.0,2.0,0.0
14372,71.0,0.0,60.0,6.0,0.0
14373,47.0,0.0,60.0,7.0,0.0
14374,78.0,20.0,20.0,4.0,0.0
14375,47.0,0.0,60.0,5.0,0.0
14376,67.0,20.0,20.0,4.0,0.0
14377,69.0,20.0,20.0,4.0,0.0
14378,59.0,0.0,60.0,7.0,0.0
14379,78.0,0.0,60.0,6.0,0.0
14380,71.0,20.0,20.0,4.0,0.0
14381,69.0,20.0,20.0,4.0,0.0
14382,67.0,20.0,20.0,4.0,0.0
14383,59.0,20.0,20.0,4.0,0.0
14384,67.0,0.0,60.0,6.0,0.0
14385,59.0,20.0,60.0,5.0,0.0
14386,63.0,0.0,60.0,7.0,0.0
14387,67.0,20.0,20.0,4.0,0.0
14388,69.0,0.0,20.0,4.0,0.0
14389,71.0,20.0,20.0,4.0,0.0
14390,78.0,0.0,60.0,6.0,0.0
14391,59.0,1.0,60.0,7.0,0.0
14392,69.0,20.0,20.0,4.0,0.0
14393,67.0,0.0,20.0,4.0,0.0
14394,71.0,9.0,630.0,1.0,0.0
14395,76.0,20.0,20.0,4.0,0.0
14396,47.0,20.0,60.0,5.0,0.0
14397,76.0,0.0,480.0,0.0,0.0
14398,71.0,0.0,60.0,6.0,0.0
14399,47.0,0.0,60.0,7.0,0.0
14400,67.0,20.0,20.0,4.0,0.0
14401,69.0,0.0,20.0,4.0,0.0
14402,59.0,20.0,60.0,7.0,0.0
14403,71.0,20.0,20.0,4.0,0.0
14404,76.0,0.0,60.0,6.0,0.0
14405,69.0,20.0,20.0,4.0,0.0
14406,67.0,0.0,20.0,4.0,0.0
14407,59.0,20.0,20.0,4.0,0.0
14408,64.0,0.0,60.0,7.0,0.0
14409,59.0,0.0,60.0,5.0,0.0
14410,67.0,20.0,60.0,6.0,0.0
14411,67.0,20.0,20.0,4.0,0.0
14412,69.0,0.0,20.0,4.0,0.0
14413,71.0,20.0,20.0,4.0,0.0
14414,76.0,0.0,60.0,6.0,0.0
14415,59.0,20.0,60.0,7.0,0.0
14416,69.0,20.0,20.0,4.0,0.0
14417,67.0,0.0,20.0,4.0,0.0
14418,47.0,0.0,60.0,5.0,0.0
14419,66.0,0.0,480.0,2.0,0.0
14420,76.0,20.0,20.0,4.0,0.0
14421,47.0,20.0,60.0,7.0,0.0
14422,69.0,0.0,60.0,6.0,0.0
14423,66.0,20.0,20.0,4.0,0.0
14424,67.0,0.0,20.0,4.0,0.0
14425,69.0,20.0,20.0,4.0,0.0
14426,54.0,0.0,60.0,7.0,0.0
14427,76.0,0.0,60.0,6.0,0.0
14428,67.0,20.0,20.0,4.0,0.0
14429,66.0,20.0,20.0,4.0,0.0
14430,59.0,0.0,60.0,5.0,0.0
14431,66.0,0.0,60.0,6.0,0.0
14432,59.0,20.0,60.0,7.0,0.0
14433,59.0,20.0,20.0,4.0,0.0
14434,66.0,20.0,20.0,4.0,0.0
14435,67.0,0.0,20.0,4.0,0.0
14436,69.0,20.0,20.0,4.0,0.0
14437,76.0,0.0,60.0,6.0,0.0
14438,54.0,0.0,60.0,7.0,0.0
14439,67.0,20.0,20.0,4.0,0.0
14440,66.0,20.0,20.0,4.0,0.0
14441,69.0,20.0,60.0,6.0,0.0
14442,47.0,0.0,60.0,7.0,0.0
14443,75.0,20.0,20.0,4.0,0.0
14444,75.0,0.0,240.0,0.0,0.0
14445,47.0,0.0,60.0,5.0,0.0
14446,66.0,20.0,20.0,4.0,0.0
14447,67.0,0.0,20.0,4.0,0.0
14448,69.0,20.0,20.0,4.0,0.0
14449,54.0,0.0,60.0,7.0,0.0
14450,75.0,20.0,60.0,6.0,0.0
14451,67.0,20.0,20.0,4.0,0.0
14452,66.0,0.0,20.0,4.0,0.0
14453,59.0,0.0,60.0,7.0,0.0
14454,59.0,0.0,60.0,5.0,0.0
14455,59.0,11.0,20.0,4.0,0.0
14456,66.0,0.0,60.0,6.0,0.0
14457,66.0,20.0,20.0,4.0,0.0
14458,72.0,0.0,30.0,1.0,0.0
14459,67.0,20.0,20.0,4.0,0.0
14460,47.0,1.0,60.0,7.0,0.0
14461,75.0,0.0,60.0,6.0,0.0
14462,69.0,10.0,30.0,1.0,0.0
14463,69.0,10.0,20.0,4.0,0.0
14464,67.0,20.0,20.0,4.0,0.0
14465,71.0,0.0,30.0,1.0,0.0
14466,66.0,0.0,20.0,4.0,0.0
14467,67.0,0.0,30.0,2.0,0.0
14468,67.0,0.0,60.0,4.0,0.0
14469,71.0,0.0,60.0,6.0,0.0
14470,52.0,0.0,120.0,7.0,0.0
14471,67.0,30.0,30.0,1.0,0.0
14472,76.0,30.0,60.0,0.0,0.0
14473,52.0,0.0,60.0,5.0,0.0
14474,40.0,0.0,120.0,3.0,0.0
14475,69.0,0.0,30.0,2.0,0.0
14476,69.0,0.0,30.0,1.0,0.0
14477,67.0,30.0,30.0,2.0,0.0
14478,67.0,0.0,30.0,1.0,0.0
14479,76.0,0.0,60.0,6.0,0.0
14480,76.0,0.0,60.0,4.0,0.0
14481,76.0,30.0,60.0,0.0,0.0
14482,69.0,0.0,30.0,1.0,0.0
14483,69.0,0.0,30.0,2.0,0.0
14484,69.0,0.0,60.0,4.0,0.0
14485,69.0,0.0,60.0,6.0,0.0
14486,66.0,30.0,30.0,2.0,0.0
14487,69.0,0.0,60.0,0.0,0.0
14488,66.0,0.0,30.0,1.0,0.0
14489,67.0,0.0,30.0,1.0,0.0
14490,67.0,30.0,30.0,2.0,0.0
14491,66.0,0.0,30.0,2.0,0.0
14492,76.0,0.0,60.0,4.0,0.0
14493,76.0,0.0,60.0,6.0,0.0
14494,66.0,30.0,30.0,1.0,0.0
14495,76.0,0.0,60.0,0.0,0.0
14496,67.0,0.0,30.0,2.0,0.0
14497,67.0,30.0,30.0,1.0,0.0
14498,64.0,0.0,60.0,2.0,0.0
14499,67.0,0.0,30.0,0.0,0.0
14500,67.0,0.0,30.0,6.0,0.0
14501,64.0,0.0,60.0,1.0,0.0
14502,67.0,30.0,30.0,4.0,0.0
14503,66.0,0.0,30.0,6.0,0.0
14504,66.0,0.0,30.0,0.0,0.0
14505,66.0,30.0,30.0,4.0,0.0
14506,67.0,0.0,30.0,4.0,0.0
14507,64.0,60.0,60.0,2.0,0.0
14508,67.0,0.0,60.0,1.0,0.0
14509,67.0,30.0,30.0,6.0,0.0
14510,67.0,0.0,30.0,0.0,0.0
14511,66.0,0.0,30.0,0.0,0.0
14512,66.0,0.0,30.0,6.0,0.0
14513,66.0,0.0,30.0,4.0,0.0
14514,71.0,0.0,60.0,1.0,0.0
14515,67.0,0.0,60.0,2.0,0.0
14516,64.0,0.0,60.0,0.0,0.0
14517,64.0,60.0,60.0,4.0,0.0
14518,64.0,0.0,60.0,6.0,0.0
14519,64.0,0.0,60.0,7.0,0.0
14520,79.0,0.0,60.0,0.0,0.0
14521,64.0,0.0,60.0,5.0,0.0
14522,64.0,0.0,60.0,3.0,0.0
14523,79.0,0.0,60.0,4.0,0.0
14524,79.0,30.0,60.0,6.0,0.0
14525,76.0,0.0,60.0,1.0,0.0
14526,71.0,0.0,60.0,2.0,0.0
14527,62.0,0.0,30.0,7.0,0.0
14528,78.0,0.0,60.0,1.0,0.0
14529,59.0,0.0,60.0,2.0,0.0
14530,62.0,0.0,30.0,3.0,0.0
14531,78.0,0.0,60.0,6.0,0.0
14532,78.0,0.0,60.0,0.0,0.0
14533,78.0,30.0,60.0,4.0,0.0
14534,62.0,30.0,30.0,5.0,0.0
14535,64.0,0.0,30.0,5.0,0.0
14536,64.0,0.0,30.0,7.0,0.0
14537,64.0,0.0,30.0,3.0,0.0
14538,83.0,0.0,120.0,0.0,0.0
14539,59.0,0.0,60.0,2.0,0.0
14540,83.0,0.0,120.0,6.0,0.0
14541,62.0,0.0,30.0,5.0,0.0
14542,83.0,0.0,120.0,4.0,0.0
14543,62.0,30.0,30.0,7.0,0.0
14544,62.0,0.0,30.0,3.0,0.0
14545,66.0,0.0,60.0,1.0,0.0
14546,64.0,0.0,30.0,5.0,0.0
14547,64.0,30.0,30.0,7.0,0.0
14548,64.0,0.0,30.0,3.0,0.0
14549,60.0,0.0,30.0,7.0,0.0
14550,64.0,0.0,60.0,2.0,0.0
14551,67.0,0.0,60.0,1.0,0.0
14552,60.0,0.0,30.0,3.0,0.0
14553,60.0,30.0,30.0,5.0,0.0
14554,62.0,0.0,30.0,5.0,0.0
14555,62.0,30.0,30.0,3.0,0.0
14556,62.0,0.0,30.0,7.0,0.0
14557,76.0,0.0,60.0,6.0,0.0
14558,76.0,0.0,60.0,4.0,0.0
14559,60.0,0.0,30.0,3.0,0.0
14560,69.0,0.0,60.0,1.0,0.0
14561,60.0,0.0,30.0,7.0,0.0
14562,64.0,0.0,60.0,2.0,0.0
14563,60.0,30.0,30.0,5.0,0.0
14564,76.0,0.0,60.0,0.0,0.0
14565,62.0,30.0,30.0,3.0,0.0
14566,62.0,0.0,30.0,7.0,0.0
14567,62.0,0.0,30.0,5.0,0.0
14568,59.0,0.0,60.0,3.0,0.0
14569,66.0,0.0,30.0,2.0,0.0
14570,59.0,0.0,60.0,5.0,0.0
14571,71.0,0.0,30.0,1.0,0.0
14572,59.0,0.0,60.0,7.0,0.0
14573,75.0,30.0,30.0,6.0,0.0
14574,75.0,0.0,30.0,4.0,0.0
14575,75.0,0.0,30.0,0.0,0.0
14576,64.0,30.0,30.0,2.0,0.0
14577,73.0,0.0,30.0,4.0,0.0
14578,73.0,0.0,30.0,1.0,0.0
14579,73.0,0.0,30.0,6.0,0.0
14580,73.0,0.0,30.0,0.0,0.0
14581,66.0,0.0,30.0,2.0,0.0
14582,75.0,0.0,30.0,0.0,0.0
14583,54.0,0.0,60.0,7.0,0.0
14584,54.0,0.0,60.0,5.0,0.0
14585,75.0,0.0,30.0,6.0,0.0
14586,71.0,0.0,30.0,1.0,0.0
14587,54.0,0.0,60.0,3.0,0.0
14588,75.0,30.0,30.0,4.0,0.0
14589,73.0,30.0,30.0,1.0,0.0
14590,73.0,0.0,30.0,0.0,0.0
14591,64.0,0.0,30.0,2.0,0.0
14592,73.0,0.0,30.0,6.0,0.0
14593,73.0,0.0,30.0,4.0,0.0
14594,75.0,0.0,60.0,1.0,0.0
14595,71.0,30.0,30.0,4.0,0.0
14596,47.0,30.0,60.0,7.0,0.0
14597,71.0,0.0,60.0,6.0,0.0
14598,47.0,0.0,60.0,3.0,0.0
14599,66.0,0.0,60.0,2.0,0.0
14600,47.0,0.0,60.0,5.0,0.0
14601,71.0,0.0,60.0,0.0,0.0
14602,69.0,0.0,30.0,4.0,0.0
14603,71.0,30.0,60.0,6.0,0.0
14604,67.0,30.0,30.0,4.0,0.0
14605,66.0,0.0,30.0,4.0,0.0
14606,67.0,30.0,30.0,4.0,0.0
14607,76.0,0.0,60.0,6.0,0.0
14608,71.0,30.0,30.0,4.0,0.0
14609,71.0,0.0,60.0,6.0,0.0
14610,67.0,30.0,30.0,4.0,0.0
14611,64.0,30.0,30.0,4.0,0.0
14612,78.0,0.0,60.0,6.0,0.0
14613,63.0,30.0,30.0,4.0,0.0
14614,66.0,30.0,30.0,4.0,0.0
14615,71.0,0.0,60.0,6.0,0.0
14616,63.0,30.0,30.0,4.0,0.0
14617,59.0,30.0,30.0,4.0,0.0
14618,64.0,30.0,30.0,4.0,0.0
14619,79.0,0.0,60.0,6.0,0.0
14620,67.0,30.0,30.0,4.0,0.0
14621,71.0,0.0,60.0,6.0,0.0
14622,64.0,30.0,30.0,4.0,0.0
14623,59.0,30.0,30.0,4.0,0.0
14624,81.0,0.0,60.0,6.0,0.0
14625,66.0,30.0,30.0,4.0,0.0
14626,69.0,30.0,30.0,4.0,0.0
14627,66.0,30.0,30.0,4.0,0.0
14628,63.0,30.0,60.0,1.0,0.0
14629,63.0,0.0,60.0,0.0,0.0
14630,47.0,0.0,60.0,3.0,0.0
14631,71.0,0.0,60.0,6.0,0.0
14632,47.0,0.0,60.0,5.0,0.0
14633,63.0,0.0,60.0,2.0,0.0
14634,47.0,0.0,60.0,7.0,0.0
14635,59.0,0.0,30.0,4.0,0.0
14636,52.0,0.0,60.0,3.0,0.0
14637,52.0,0.0,60.0,7.0,0.0
14638,64.0,0.0,60.0,0.0,0.0
14639,64.0,0.0,60.0,1.0,0.0
14640,79.0,30.0,30.0,6.0,0.0
14641,71.0,0.0,30.0,4.0,0.0
14642,52.0,0.0,60.0,5.0,0.0
14643,64.0,0.0,60.0,2.0,0.0
14644,78.0,30.0,30.0,6.0,0.0
14645,78.0,0.0,30.0,4.0,0.0
14646,43.0,0.0,60.0,3.0,0.0
14647,59.0,0.0,60.0,2.0,0.0
14648,59.0,0.0,60.0,0.0,0.0
14649,79.0,0.0,30.0,4.0,0.0
14650,43.0,30.0,60.0,5.0,0.0
14651,59.0,0.0,60.0,1.0,0.0
14652,43.0,0.0,60.0,7.0,0.0
14653,76.0,30.0,30.0,6.0,0.0
14654,76.0,0.0,30.0,4.0,0.0
14655,79.0,0.0,30.0,6.0,0.0
14656,78.0,30.0,30.0,6.0,0.0
14657,45.0,0.0,60.0,3.0,0.0
14658,66.0,0.0,60.0,1.0,0.0
14659,66.0,0.0,60.0,2.0,0.0
14660,45.0,30.0,60.0,7.0,0.0
14661,66.0,0.0,60.0,0.0,0.0
14662,45.0,0.0,60.0,5.0,0.0
14663,78.0,0.0,30.0,4.0,0.0
14664,79.0,0.0,30.0,4.0,0.0
14665,76.0,0.0,30.0,6.0,0.0
14666,59.0,0.0,60.0,0.0,0.0
14667,47.0,0.0,60.0,7.0,0.0
14668,47.0,0.0,60.0,5.0,0.0
14669,47.0,30.0,60.0,3.0,0.0
14670,75.0,30.0,30.0,6.0,0.0
14671,59.0,0.0,60.0,2.0,0.0
14672,81.0,0.0,30.0,4.0,0.0
14673,59.0,0.0,60.0,1.0,0.0
14674,75.0,0.0,30.0,4.0,0.0
14675,78.0,0.0,30.0,6.0,0.0
14676,40.0,0.0,60.0,5.0,0.0
14677,67.0,0.0,30.0,1.0,0.0
14678,76.0,0.0,120.0,4.0,0.0
14679,40.0,0.0,60.0,7.0,0.0
14680,40.0,0.0,60.0,3.0,0.0
14681,67.0,30.0,30.0,0.0,0.0
14682,67.0,0.0,30.0,2.0,0.0
14683,76.0,0.0,30.0,6.0,0.0
14684,75.0,0.0,30.0,6.0,0.0
14685,66.0,0.0,30.0,0.0,0.0
14686,66.0,0.0,30.0,1.0,0.0
14687,66.0,30.0,30.0,2.0,0.0
14688,47.0,0.0,60.0,3.0,0.0
14689,67.0,0.0,30.0,1.0,0.0
14690,76.0,0.0,30.0,6.0,0.0
14691,67.0,30.0,30.0,0.0,0.0
14692,47.0,0.0,60.0,7.0,0.0
14693,47.0,0.0,60.0,5.0,0.0
14694,67.0,0.0,30.0,2.0,0.0
14695,66.0,0.0,30.0,2.0,0.0
14696,75.0,0.0,30.0,6.0,0.0
14697,66.0,0.0,30.0,1.0,0.0
14698,66.0,30.0,30.0,0.0,0.0
14699,64.0,0.0,60.0,2.0,0.0
14700,52.0,0.0,60.0,5.0,0.0
14701,64.0,0.0,60.0,0.0,0.0
14702,76.0,30.0,30.0,6.0,0.0
14703,64.0,0.0,60.0,1.0,0.0
14704,52.0,30.0,60.0,3.0,0.0
14705,52.0,0.0,60.0,7.0,0.0
14706,78.0,0.0,30.0,6.0,0.0
14707,78.0,0.0,30.0,4.0,0.0
14708,74.0,30.0,30.0,4.0,0.0
14709,79.0,0.0,30.0,6.0,0.0
14710,76.0,0.0,30.0,4.0,0.0
14711,76.0,30.0,30.0,6.0,0.0
14712,72.0,30.0,30.0,4.0,0.0
14713,81.0,30.0,60.0,6.0,0.0
14714,76.0,0.0,30.0,4.0,0.0
14715,76.0,0.0,60.0,6.0,0.0
14716,72.0,30.0,30.0,4.0,0.0
14717,69.0,30.0,30.0,4.0,0.0
14718,83.0,0.0,60.0,6.0,0.0
14719,68.0,30.0,30.0,4.0,0.0
14720,71.0,30.0,30.0,4.0,0.0
14721,76.0,0.0,60.0,6.0,0.0
14722,68.0,30.0,30.0,4.0,0.0
14723,64.0,30.0,30.0,4.0,0.0
14724,84.0,30.0,60.0,6.0,0.0
14725,69.0,30.0,30.0,4.0,0.0
14726,72.0,0.0,30.0,4.0,0.0
14727,76.0,0.0,60.0,6.0,0.0
14728,69.0,30.0,30.0,4.0,0.0
14729,64.0,30.0,30.0,4.0,0.0
14730,71.0,30.0,30.0,4.0,0.0
14731,86.0,0.0,60.0,6.0,0.0
14732,74.0,30.0,30.0,4.0,0.0
14733,68.0,0.0,60.0,2.0,0.0
14734,52.0,0.0,60.0,5.0,0.0
14735,71.0,30.0,30.0,4.0,0.0
14736,52.0,0.0,60.0,3.0,0.0
14737,52.0,0.0,60.0,7.0,0.0
14738,68.0,30.0,60.0,1.0,0.0
14739,68.0,0.0,60.0,0.0,0.0
14740,76.0,0.0,60.0,6.0,0.0
14741,64.0,0.0,30.0,4.0,0.0
14742,57.0,0.0,60.0,3.0,0.0
14743,76.0,30.0,30.0,4.0,0.0
14744,84.0,0.0,30.0,6.0,0.0
14745,69.0,0.0,60.0,0.0,0.0
14746,57.0,30.0,60.0,7.0,0.0
14747,69.0,0.0,60.0,1.0,0.0
14748,69.0,0.0,60.0,2.0,0.0
14749,57.0,0.0,60.0,5.0,0.0
14750,83.0,0.0,30.0,4.0,0.0
14751,83.0,0.0,30.0,6.0,0.0
14752,84.0,0.0,30.0,4.0,0.0
14753,81.0,30.0,30.0,6.0,0.0
14754,64.0,0.0,60.0,2.0,0.0
14755,48.0,0.0,60.0,7.0,0.0
14756,48.0,0.0,60.0,3.0,0.0
14757,64.0,0.0,60.0,0.0,0.0
14758,48.0,30.0,60.0,5.0,0.0
14759,64.0,0.0,60.0,1.0,0.0
14760,84.0,0.0,30.0,6.0,0.0
14761,81.0,0.0,30.0,4.0,0.0
14762,83.0,0.0,30.0,6.0,0.0
14763,50.0,0.0,60.0,3.0,0.0
14764,71.0,0.0,60.0,0.0,0.0
14765,50.0,0.0,60.0,5.0,0.0
14766,71.0,0.0,60.0,2.0,0.0
14767,71.0,30.0,60.0,1.0,0.0
14768,50.0,0.0,60.0,7.0,0.0
14769,83.0,30.0,30.0,4.0,0.0
14770,84.0,0.0,30.0,4.0,0.0
14771,81.0,0.0,30.0,6.0,0.0
14772,86.0,0.0,30.0,4.0,0.0
14773,52.0,30.0,60.0,3.0,0.0
14774,64.0,0.0,60.0,2.0,0.0
14775,64.0,0.0,60.0,0.0,0.0
14776,64.0,0.0,60.0,1.0,0.0
14777,52.0,0.0,60.0,7.0,0.0
14778,52.0,0.0,60.0,5.0,0.0
14779,80.0,30.0,30.0,6.0,0.0
14780,80.0,0.0,30.0,4.0,0.0
14781,83.0,0.0,30.0,6.0,0.0
14782,81.0,0.0,60.0,6.0,0.0
14783,45.0,0.0,60.0,5.0,0.0
14784,72.0,0.0,30.0,1.0,0.0
14785,45.0,0.0,60.0,3.0,0.0
14786,72.0,0.0,30.0,0.0,0.0
14787,81.0,30.0,30.0,4.0,0.0
14788,45.0,30.0,60.0,7.0,0.0
14789,72.0,0.0,30.0,2.0,0.0
14790,71.0,0.0,30.0,1.0,0.0
14791,83.0,0.0,30.0,4.0,0.0
14792,71.0,0.0,30.0,0.0,0.0
14793,71.0,0.0,30.0,2.0,0.0
14794,72.0,30.0,30.0,2.0,0.0
14795,84.0,0.0,30.0,4.0,0.0
14796,52.0,0.0,60.0,7.0,0.0
14797,72.0,0.0,30.0,1.0,0.0
14798,72.0,0.0,30.0,0.0,0.0
14799,52.0,0.0,60.0,3.0,0.0
14800,52.0,0.0,60.0,5.0,0.0
14801,69.0,30.0,60.0,6.0,0.0
14802,86.0,0.0,30.0,4.0,0.0
14803,71.0,0.0,30.0,0.0,0.0
14804,71.0,0.0,30.0,2.0,0.0
14805,71.0,0.0,30.0,1.0,0.0
14806,69.0,30.0,60.0,1.0,0.0
14807,69.0,0.0,60.0,0.0,0.0
14808,76.0,0.0,180.0,6.0,0.0
14809,69.0,0.0,60.0,2.0,0.0
14810,57.0,0.0,60.0,3.0,0.0
14811,84.0,30.0,30.0,4.0,0.0
14812,57.0,0.0,30.0,7.0,0.0
14813,57.0,0.0,60.0,5.0,0.0
14814,83.0,0.0,30.0,4.0,0.0
14815,59.0,0.0,30.0,7.0,0.0
14816,60.0,0.0,30.0,7.0,0.0
14817,81.0,30.0,30.0,4.0,0.0
14818,60.0,30.0,60.0,3.0,0.0
14819,45.0,0.0,60.0,5.0,0.0
14820,79.0,0.0,30.0,4.0,0.0
14821,57.0,0.0,30.0,7.0,0.0
14822,77.0,0.0,240.0,2.0,0.0
14823,77.0,0.0,30.0,4.0,0.0
14824,62.0,0.0,60.0,3.0,0.0
14825,62.0,0.0,60.0,7.0,0.0
14826,50.0,30.0,30.0,5.0,0.0
14827,81.0,30.0,30.0,4.0,0.0
14828,53.0,0.0,30.0,5.0,0.0
14829,60.0,0.0,60.0,3.0,0.0
14830,57.0,0.0,30.0,5.0,0.0
14831,77.0,30.0,30.0,6.0,0.0
14832,60.0,0.0,60.0,7.0,0.0
14833,86.0,0.0,30.0,4.0,0.0
14834,60.0,0.0,30.0,5.0,0.0
14835,88.0,0.0,30.0,4.0,0.0
14836,76.0,30.0,30.0,6.0,0.0
14837,89.0,0.0,30.0,4.0,0.0
14838,59.0,30.0,60.0,5.0,0.0
14839,59.0,0.0,60.0,3.0,0.0
14840,59.0,30.0,30.0,7.0,0.0
14841,74.0,0.0,60.0,6.0,0.0
14842,86.0,0.0,30.0,4.0,0.0
14843,67.0,0.0,30.0,7.0,0.0
14844,74.0,0.0,60.0,6.0,0.0
14845,83.0,30.0,30.0,4.0,0.0
14846,65.0,0.0,30.0,7.0,0.0
14847,55.0,0.0,60.0,3.0,0.0
14848,67.0,0.0,60.0,5.0,0.0
14849,67.0,15.0,30.0,7.0,0.0
14850,81.0,0.0,30.0,4.0,0.0
14851,74.0,15.0,15.0,6.0,0.0
14852,79.0,0.0,30.0,4.0,0.0
14853,72.0,0.0,30.0,5.0,0.0
14854,76.0,0.0,240.0,2.0,0.0
14855,60.0,30.0,60.0,7.0,0.0
14856,76.0,30.0,15.0,6.0,0.0
14857,74.0,0.0,30.0,6.0,0.0
14858,67.0,0.0,30.0,5.0,0.0
14859,83.0,0.0,30.0,4.0,0.0
14860,60.0,0.0,30.0,3.0,0.0
14861,64.0,0.0,30.0,5.0,0.0
14862,72.0,0.0,60.0,6.0,0.0
14863,84.0,30.0,30.0,4.0,0.0
14864,64.0,0.0,60.0,7.0,0.0
14865,67.0,0.0,30.0,5.0,0.0
14866,86.0,30.0,30.0,4.0,0.0
14867,59.0,0.0,30.0,3.0,0.0
14868,57.0,0.0,60.0,3.0,0.0
14869,60.0,0.0,60.0,5.0,0.0
14870,57.0,0.0,30.0,7.0,0.0
14871,88.0,30.0,30.0,4.0,0.0
14872,69.0,0.0,30.0,7.0,0.0
14873,84.0,30.0,30.0,4.0,0.0
14874,83.0,0.0,30.0,4.0,0.0
14875,68.0,0.0,30.0,7.0,0.0
14876,53.0,30.0,30.0,3.0,0.0
14877,65.0,0.0,60.0,5.0,0.0
14878,72.0,0.0,120.0,6.0,0.0
14879,69.0,0.0,30.0,7.0,0.0
14880,81.0,30.0,30.0,4.0,0.0
14881,59.0,0.0,30.0,5.0,0.0
14882,59.0,0.0,60.0,7.0,0.0
14883,59.0,0.0,60.0,3.0,0.0
14884,74.0,0.0,240.0,2.0,0.0
14885,80.0,30.0,30.0,4.0,0.0
14886,65.0,0.0,30.0,5.0,0.0
14887,81.0,30.0,30.0,4.0,0.0
14888,74.0,0.0,30.0,6.0,0.0
14889,57.0,0.0,60.0,3.0,0.0
14890,83.0,0.0,30.0,4.0,0.0
14891,57.0,0.0,60.0,7.0,0.0
14892,62.0,30.0,30.0,5.0,0.0
14893,72.0,0.0,30.0,6.0,0.0
14894,84.0,30.0,30.0,4.0,0.0
14895,65.0,0.0,30.0,5.0,0.0
14896,56.0,0.0,30.0,7.0,0.0
14897,56.0,0.0,60.0,3.0,0.0
14898,86.0,30.0,30.0,4.0,0.0
14899,56.0,0.0,60.0,5.0,0.0
14900,71.0,0.0,60.0,6.0,0.0
14901,64.0,0.0,30.0,7.0,0.0
14902,83.0,30.0,30.0,4.0,0.0
14903,64.0,15.0,60.0,5.0,0.0
14904,52.0,0.0,60.0,3.0,0.0
14905,71.0,0.0,60.0,6.0,0.0
14906,62.0,0.0,30.0,7.0,0.0
14907,80.0,30.0,30.0,4.0,0.0
14908,64.0,0.0,30.0,7.0,0.0
14909,78.0,0.0,30.0,4.0,0.0
14910,57.0,0.0,60.0,7.0,0.0
14911,72.0,0.0,240.0,2.0,0.0
14912,76.0,0.0,30.0,4.0,0.0
14913,71.0,15.0,15.0,6.0,0.0
14914,69.0,0.0,30.0,5.0,0.0
14915,72.0,30.0,15.0,6.0,0.0
14916,64.0,0.0,30.0,5.0,0.0
14917,80.0,0.0,30.0,4.0,0.0
14918,71.0,30.0,30.0,6.0,0.0
14919,81.0,0.0,30.0,4.0,0.0
14920,60.0,0.0,60.0,7.0,0.0
14921,60.0,0.0,30.0,5.0,0.0
14922,57.0,30.0,30.0,3.0,0.0
14923,69.0,0.0,60.0,6.0,0.0
14924,83.0,0.0,30.0,4.0,0.0
14925,64.0,0.0,30.0,5.0,0.0
14926,55.0,30.0,30.0,3.0,0.0
14927,54.0,0.0,60.0,3.0,0.0
14928,57.0,0.0,60.0,5.0,0.0
14929,84.0,30.0,30.0,4.0,0.0
14930,54.0,0.0,30.0,7.0,0.0
14931,81.0,0.0,30.0,4.0,0.0
14932,57.0,30.0,30.0,7.0,0.0
14933,52.0,0.0,30.0,3.0,0.0
14934,81.0,0.0,30.0,6.0,0.0
14935,69.0,0.0,60.0,5.0,0.0
14936,78.0,30.0,30.0,4.0,0.0
14937,60.0,0.0,30.0,7.0,0.0
14938,79.0,0.0,30.0,4.0,0.0
14939,79.0,30.0,30.0,6.0,0.0
14940,52.0,0.0,30.0,7.0,0.0
14941,51.0,0.0,60.0,3.0,0.0
14942,63.0,30.0,60.0,5.0,0.0
14943,81.0,0.0,30.0,4.0,0.0
14944,51.0,30.0,30.0,7.0,0.0
14945,78.0,0.0,60.0,6.0,0.0
14946,63.0,0.0,30.0,7.0,0.0
14947,83.0,0.0,30.0,4.0,0.0
14948,66.0,0.0,30.0,7.0,0.0
14949,81.0,30.0,30.0,4.0,0.0
14950,83.0,0.0,60.0,6.0,0.0
14951,63.0,0.0,60.0,3.0,0.0
14952,59.0,0.0,60.0,5.0,0.0
14953,71.0,0.0,60.0,2.0,0.0
14954,83.0,0.0,30.0,4.0,0.0
14955,63.0,30.0,30.0,7.0,0.0
14956,76.0,30.0,60.0,6.0,0.0
14957,71.0,0.0,60.0,2.0,0.0
14958,79.0,0.0,30.0,4.0,0.0
14959,64.0,0.0,60.0,7.0,0.0
14960,64.0,30.0,30.0,5.0,0.0
14961,64.0,0.0,60.0,3.0,0.0
14962,63.0,0.0,30.0,5.0,0.0
14963,81.0,0.0,30.0,4.0,0.0
14964,84.0,0.0,60.0,6.0,0.0
14965,64.0,0.0,30.0,5.0,0.0
14966,57.0,0.0,60.0,7.0,0.0
14967,57.0,0.0,60.0,3.0,0.0
14968,76.0,0.0,60.0,2.0,0.0
14969,79.0,30.0,30.0,4.0,0.0
14970,57.0,30.0,30.0,5.0,0.0
14971,81.0,0.0,30.0,4.0,0.0
14972,59.0,0.0,60.0,5.0,0.0
14973,71.0,0.0,120.0,2.0,0.0
14974,78.0,0.0,30.0,4.0,0.0
14975,59.0,29.0,300.0,7.0,0.0
14976,75.0,30.0,30.0,6.0,0.0
14977,59.0,0.0,630.0,3.0,0.0
14978,79.0,0.0,30.0,4.0,0.0
14979,73.0,30.0,30.0,6.0,0.0
14980,75.0,0.0,30.0,6.0,0.0
14981,78.0,30.0,30.0,4.0,0.0
14982,71.0,30.0,60.0,5.0,0.0
14983,79.0,0.0,30.0,4.0,0.0
14984,73.0,0.0,30.0,6.0,0.0
14985,71.0,30.0,60.0,6.0,0.0
14986,81.0,30.0,30.0,4.0,0.0
14987,63.0,0.0,60.0,5.0,0.0
14988,83.0,0.0,30.0,4.0,0.0
14989,64.0,0.0,60.0,5.0,0.0
14990,71.0,30.0,60.0,1.0,0.0
14991,71.0,0.0,60.0,2.0,0.0
14992,88.0,0.0,60.0,6.0,0.0
14993,79.0,30.0,30.0,4.0,0.0
14994,71.0,0.0,60.0,0.0,0.0
14995,81.0,0.0,30.0,4.0,0.0
14996,78.0,30.0,30.0,4.0,0.0
14997,69.0,0.0,60.0,1.0,0.0
14998,87.0,0.0,30.0,6.0,0.0
14999,69.0,0.0,60.0,0.0,0.0
15000,69.0,0.0,60.0,2.0,0.0
15001,59.0,0.0,390.0,5.0,0.0
15002,79.0,0.0,30.0,4.0,0.0
15003,88.0,1.0,30.0,6.0,0.0
15004,78.0,0.0,60.0,0.0,0.0
15005,78.0,0.0,30.0,4.0,0.0
15006,78.0,0.0,60.0,2.0,0.0
15007,69.0,30.0,60.0,7.0,0.0
15008,78.0,0.0,60.0,1.0,0.0
15009,87.0,30.0,30.0,6.0,0.0
15010,79.0,0.0,30.0,4.0,0.0
15011,88.0,0.0,30.0,6.0,0.0
15012,76.0,0.0,30.0,4.0,0.0
15013,85.0,30.0,30.0,6.0,0.0
15014,59.0,30.0,60.0,7.0,0.0
15015,67.0,0.0,60.0,1.0,0.0
15016,67.0,0.0,60.0,0.0,0.0
15017,67.0,0.0,60.0,2.0,0.0
15018,87.0,0.0,30.0,6.0,0.0
15019,78.0,0.0,30.0,4.0,0.0
15020,64.0,0.0,60.0,7.0,0.0
15021,76.0,30.0,60.0,2.0,0.0
15022,76.0,0.0,30.0,4.0,0.0
15023,76.0,0.0,60.0,1.0,0.0
15024,76.0,0.0,60.0,0.0,0.0
15025,85.0,30.0,30.0,6.0,0.0
15026,87.0,0.0,30.0,6.0,0.0
15027,78.0,0.0,30.0,4.0,0.0
15028,59.0,29.0,150.0,7.0,0.0
15029,83.0,0.0,60.0,6.0,0.0
15030,75.0,0.0,30.0,4.0,0.0
15031,66.0,0.0,30.0,1.0,0.0
15032,66.0,30.0,30.0,2.0,0.0
15033,66.0,0.0,30.0,0.0,0.0
15034,66.0,0.0,60.0,7.0,0.0
15035,73.0,0.0,30.0,4.0,0.0
15036,64.0,30.0,30.0,0.0,0.0
15037,64.0,0.0,30.0,1.0,0.0
15038,64.0,0.0,30.0,2.0,0.0
15039,78.0,31.0,60.0,6.0,0.0
15040,75.0,0.0,30.0,4.0,0.0
15041,71.0,0.0,60.0,7.0,0.0
15042,66.0,0.0,30.0,0.0,0.0
15043,66.0,0.0,30.0,1.0,0.0
15044,66.0,30.0,30.0,2.0,0.0
15045,64.0,0.0,30.0,2.0,0.0
15046,64.0,0.0,30.0,0.0,0.0
15047,64.0,0.0,30.0,1.0,0.0
15048,73.0,0.0,30.0,4.0,0.0
15049,63.0,0.0,60.0,2.0,0.0
15050,71.0,0.0,60.0,6.0,0.0
15051,63.0,0.0,60.0,1.0,0.0
15052,63.0,30.0,60.0,0.0,0.0
15053,71.0,0.0,60.0,4.0,0.0
15054,60.0,0.0,30.0,5.0,0.0
15055,60.0,0.0,30.0,3.0,0.0
15056,60.0,0.0,30.0,7.0,0.0
15057,76.0,0.0,60.0,4.0,0.0
15058,57.0,0.0,30.0,3.0,0.0
15059,76.0,0.0,60.0,6.0,0.0
15060,76.0,30.0,60.0,0.0,0.0
15061,57.0,0.0,30.0,5.0,0.0
15062,57.0,30.0,30.0,7.0,0.0
15063,59.0,0.0,30.0,3.0,0.0
15064,59.0,0.0,30.0,5.0,0.0
15065,59.0,0.0,30.0,7.0,0.0
15066,71.0,0.0,60.0,0.0,0.0
15067,71.0,0.0,60.0,6.0,0.0
15068,55.0,0.0,30.0,7.0,0.0
15069,55.0,0.0,30.0,5.0,0.0
15070,55.0,30.0,30.0,3.0,0.0
15071,71.0,0.0,60.0,4.0,0.0
15072,57.0,0.0,30.0,3.0,0.0
15073,57.0,0.0,30.0,5.0,0.0
15074,57.0,30.0,30.0,7.0,0.0
15075,55.0,30.0,30.0,7.0,0.0
15076,76.0,0.0,60.0,4.0,0.0
15077,55.0,0.0,30.0,5.0,0.0
15078,76.0,0.0,60.0,0.0,0.0
15079,76.0,30.0,60.0,6.0,0.0
15080,55.0,0.0,30.0,3.0,0.0
15081,57.0,0.0,30.0,3.0,0.0
15082,57.0,0.0,30.0,5.0,0.0
15083,57.0,0.0,30.0,7.0,0.0
15084,69.0,0.0,60.0,4.0,0.0
15085,54.0,0.0,30.0,7.0,0.0
15086,69.0,0.0,60.0,6.0,0.0
15087,54.0,30.0,30.0,5.0,0.0
15088,69.0,30.0,60.0,0.0,0.0
15089,54.0,0.0,30.0,3.0,0.0
15090,55.0,0.0,30.0,7.0,0.0
15091,55.0,0.0,30.0,3.0,0.0
15092,55.0,0.0,30.0,5.0,0.0
15093,76.0,30.0,60.0,6.0,0.0
15094,76.0,0.0,60.0,4.0,0.0
15095,54.0,30.0,30.0,7.0,0.0
15096,54.0,0.0,30.0,3.0,0.0
15097,54.0,0.0,30.0,5.0,0.0
15098,76.0,0.0,60.0,0.0,0.0
15099,55.0,0.0,30.0,5.0,0.0
15100,55.0,0.0,30.0,7.0,0.0
15101,55.0,0.0,30.0,3.0,0.0
15102,67.0,0.0,30.0,0.0,0.0
15103,67.0,0.0,30.0,4.0,0.0
15104,52.0,0.0,60.0,7.0,0.0
15105,67.0,30.0,30.0,6.0,0.0
15106,52.0,0.0,60.0,3.0,0.0
15107,52.0,0.0,60.0,5.0,0.0
15108,66.0,0.0,30.0,6.0,0.0
15109,66.0,30.0,30.0,0.0,0.0
15110,59.0,0.0,30.0,4.0,0.0
15111,64.0,0.0,30.0,4.0,0.0
15112,59.0,0.0,60.0,3.0,0.0
15113,67.0,30.0,30.0,0.0,0.0
15114,59.0,30.0,60.0,5.0,0.0
15115,47.0,0.0,60.0,7.0,0.0
15116,67.0,0.0,30.0,6.0,0.0
15117,66.0,0.0,30.0,0.0,0.0
15118,66.0,0.0,30.0,6.0,0.0
15119,66.0,0.0,30.0,4.0,0.0
15120,64.0,0.0,60.0,0.0,0.0
15121,67.0,30.0,30.0,4.0,0.0
15122,40.0,0.0,60.0,7.0,0.0
15123,64.0,0.0,60.0,5.0,0.0
15124,55.0,0.0,60.0,3.0,0.0
15125,64.0,30.0,60.0,6.0,0.0
15126,71.0,0.0,30.0,4.0,0.0
15127,79.0,0.0,60.0,6.0,0.0
15128,76.0,30.0,60.0,1.0,0.0
15129,52.0,0.0,60.0,7.0,0.0
15130,52.0,0.0,60.0,3.0,0.0
15131,52.0,0.0,60.0,5.0,0.0
15132,79.0,0.0,60.0,0.0,0.0
15133,71.0,0.0,60.0,2.0,0.0
15134,76.0,30.0,30.0,4.0,0.0
15135,79.0,0.0,30.0,4.0,0.0
15136,50.0,30.0,30.0,3.0,0.0
15137,78.0,30.0,60.0,4.0,0.0
15138,59.0,0.0,60.0,2.0,0.0
15139,78.0,0.0,60.0,1.0,0.0
15140,50.0,0.0,30.0,5.0,0.0
15141,78.0,0.0,60.0,6.0,0.0
15142,78.0,0.0,60.0,0.0,0.0
15143,50.0,0.0,30.0,7.0,0.0
15144,52.0,0.0,30.0,5.0,0.0
15145,52.0,0.0,30.0,3.0,0.0
15146,52.0,0.0,30.0,7.0,0.0
15147,83.0,0.0,120.0,4.0,0.0
15148,83.0,0.0,120.0,6.0,0.0
15149,50.0,30.0,30.0,5.0,0.0
15150,66.0,0.0,60.0,1.0,0.0
15151,50.0,0.0,30.0,3.0,0.0
15152,59.0,0.0,60.0,2.0,0.0
15153,83.0,0.0,120.0,0.0,0.0
15154,50.0,0.0,30.0,7.0,0.0
15155,52.0,30.0,30.0,3.0,0.0
15156,52.0,0.0,30.0,5.0,0.0
15157,52.0,0.0,30.0,7.0,0.0
15158,48.0,0.0,30.0,7.0,0.0
15159,67.0,0.0,60.0,1.0,0.0
15160,64.0,0.0,60.0,2.0,0.0
15161,48.0,0.0,30.0,5.0,0.0
15162,48.0,30.0,30.0,3.0,0.0
15163,50.0,0.0,30.0,3.0,0.0
15164,50.0,0.0,30.0,7.0,0.0
15165,50.0,30.0,30.0,5.0,0.0
15166,48.0,0.0,30.0,3.0,0.0
15167,64.0,0.0,60.0,2.0,0.0
15168,76.0,30.0,60.0,4.0,0.0
15169,76.0,0.0,60.0,0.0,0.0
15170,48.0,30.0,30.0,5.0,0.0
15171,48.0,0.0,30.0,7.0,0.0
15172,69.0,0.0,60.0,1.0,0.0
15173,76.0,0.0,60.0,6.0,0.0
15174,50.0,0.0,30.0,7.0,0.0
15175,50.0,0.0,30.0,5.0,0.0
15176,50.0,0.0,30.0,3.0,0.0
15177,47.0,0.0,60.0,3.0,0.0
15178,75.0,0.0,30.0,4.0,0.0
15179,47.0,0.0,60.0,5.0,0.0
15180,75.0,30.0,30.0,6.0,0.0
15181,47.0,0.0,60.0,7.0,0.0
15182,66.0,0.0,60.0,2.0,0.0
15183,71.0,0.0,30.0,1.0,0.0
15184,75.0,0.0,30.0,0.0,0.0
15185,73.0,0.0,30.0,4.0,0.0
15186,73.0,30.0,30.0,0.0,0.0
15187,73.0,0.0,30.0,1.0,0.0
15188,73.0,0.0,30.0,6.0,0.0
15189,71.0,0.0,30.0,1.0,0.0
15190,75.0,0.0,30.0,0.0,0.0
15191,54.0,0.0,60.0,7.0,0.0
15192,54.0,0.0,60.0,3.0,0.0
15193,54.0,0.0,60.0,5.0,0.0
15194,66.0,0.0,60.0,2.0,0.0
15195,75.0,0.0,30.0,4.0,0.0
15196,75.0,30.0,30.0,6.0,0.0
15197,73.0,0.0,30.0,4.0,0.0
15198,73.0,0.0,30.0,1.0,0.0
15199,73.0,0.0,30.0,6.0,0.0
15200,73.0,30.0,30.0,0.0,0.0
15201,59.0,0.0,60.0,7.0,0.0
15202,66.0,0.0,60.0,2.0,0.0
15203,71.0,0.0,30.0,6.0,0.0
15204,59.0,0.0,60.0,3.0,0.0
15205,71.0,0.0,30.0,4.0,0.0
15206,59.0,30.0,60.0,5.0,0.0
15207,71.0,0.0,30.0,0.0,0.0
15208,75.0,30.0,30.0,1.0,0.0
15209,73.0,0.0,30.0,6.0,0.0
15210,76.0,0.0,30.0,1.0,0.0
15211,73.0,0.0,30.0,4.0,0.0
15212,73.0,0.0,30.0,0.0,0.0
15213,75.0,0.0,30.0,6.0,0.0
15214,75.0,30.0,30.0,4.0,0.0
15215,66.0,30.0,60.0,2.0,0.0
15216,57.0,0.0,60.0,5.0,0.0
15217,57.0,0.0,60.0,7.0,0.0
15218,78.0,0.0,30.0,1.0,0.0
15219,57.0,0.0,60.0,3.0,0.0
15220,75.0,0.0,30.0,0.0,0.0
15221,71.0,0.0,30.0,6.0,0.0
15222,75.0,0.0,30.0,1.0,0.0
15223,71.0,0.0,30.0,0.0,0.0
15224,71.0,0.0,30.0,4.0,0.0
15225,76.0,0.0,60.0,0.0,0.0
15226,71.0,0.0,60.0,1.0,0.0
15227,67.0,0.0,60.0,2.0,0.0
15228,76.0,0.0,60.0,4.0,0.0
15229,55.0,0.0,30.0,7.0,0.0
15230,76.0,0.0,60.0,6.0,0.0
15231,55.0,30.0,30.0,3.0,0.0
15232,55.0,0.0,30.0,5.0,0.0
15233,57.0,0.0,30.0,7.0,0.0
15234,57.0,30.0,30.0,3.0,0.0
15235,57.0,0.0,30.0,5.0,0.0
15236,71.0,0.0,60.0,0.0,0.0
15237,71.0,0.0,60.0,4.0,0.0
15238,55.0,30.0,30.0,3.0,0.0
15239,67.0,0.0,60.0,2.0,0.0
15240,71.0,0.0,60.0,6.0,0.0
15241,55.0,0.0,30.0,5.0,0.0
15242,76.0,0.0,120.0,1.0,0.0
15243,55.0,0.0,30.0,7.0,0.0
15244,57.0,0.0,30.0,3.0,0.0
15245,57.0,0.0,30.0,5.0,0.0
15246,57.0,30.0,30.0,7.0,0.0
15247,54.0,30.0,30.0,3.0,0.0
15248,78.0,0.0,60.0,6.0,0.0
15249,69.0,30.0,60.0,2.0,0.0
15250,78.0,0.0,60.0,0.0,0.0
15251,54.0,0.0,30.0,5.0,0.0
15252,54.0,0.0,30.0,7.0,0.0
15253,78.0,0.0,60.0,4.0,0.0
15254,55.0,0.0,30.0,5.0,0.0
15255,55.0,0.0,30.0,7.0,0.0
15256,55.0,0.0,30.0,3.0,0.0
15257,54.0,0.0,30.0,5.0,0.0
15258,71.0,0.0,60.0,4.0,0.0
15259,54.0,30.0,30.0,3.0,0.0
15260,75.0,0.0,60.0,1.0,0.0
15261,71.0,30.0,60.0,0.0,0.0
15262,54.0,0.0,30.0,7.0,0.0
15263,71.0,0.0,60.0,6.0,0.0
15264,69.0,0.0,60.0,2.0,0.0
15265,55.0,0.0,30.0,3.0,0.0
15266,55.0,0.0,30.0,7.0,0.0
15267,55.0,0.0,30.0,5.0,0.0
15268,76.0,0.0,120.0,4.0,0.0
15269,81.0,0.0,60.0,4.0,0.0
15270,52.0,0.0,30.0,3.0,0.0
15271,71.0,0.0,120.0,4.0,0.0
15272,81.0,0.0,60.0,0.0,0.0
15273,76.0,30.0,60.0,1.0,0.0
15274,52.0,30.0,30.0,7.0,0.0
15275,71.0,0.0,180.0,2.0,0.0
15276,81.0,0.0,60.0,6.0,0.0
15277,76.0,29.0,120.0,6.0,0.0
15278,71.0,0.0,120.0,6.0,0.0
15279,52.0,0.0,30.0,5.0,0.0
15280,54.0,0.0,30.0,7.0,0.0
15281,54.0,0.0,30.0,3.0,0.0
15282,54.0,0.0,30.0,5.0,0.0
15283,71.0,0.0,60.0,1.0,0.0
15284,52.0,0.0,30.0,5.0,0.0
15285,79.0,30.0,90.0,6.0,0.0
15286,52.0,30.0,30.0,3.0,0.0
15287,52.0,0.0,30.0,7.0,0.0
15288,79.0,0.0,90.0,4.0,0.0
15289,79.0,0.0,90.0,0.0,0.0
15290,54.0,0.0,30.0,7.0,0.0
15291,54.0,0.0,30.0,5.0,0.0
15292,54.0,1.0,30.0,3.0,0.0
15293,50.0,0.0,30.0,3.0,0.0
15294,50.0,0.0,30.0,7.0,0.0
15295,76.0,0.0,60.0,1.0,0.0
15296,50.0,0.0,30.0,5.0,0.0
15297,76.0,0.0,30.0,0.0,0.0
15298,52.0,30.0,30.0,3.0,0.0
15299,76.0,0.0,30.0,6.0,0.0
15300,76.0,0.0,30.0,4.0,0.0
15301,52.0,0.0,30.0,7.0,0.0
15302,52.0,0.0,30.0,5.0,0.0
15303,71.0,0.0,60.0,2.0,0.0
15304,50.0,0.0,30.0,5.0,0.0
15305,50.0,0.0,30.0,7.0,0.0
15306,50.0,30.0,30.0,3.0,0.0
15307,78.0,0.0,30.0,6.0,0.0
15308,78.0,0.0,30.0,0.0,0.0
15309,78.0,0.0,30.0,4.0,0.0
15310,71.0,0.0,60.0,1.0,0.0
15311,52.0,0.0,30.0,7.0,0.0
15312,52.0,0.0,30.0,3.0,0.0
15313,80.0,0.0,30.0,6.0,0.0
15314,80.0,0.0,30.0,4.0,0.0
15315,80.0,30.0,30.0,0.0,0.0
15316,52.0,0.0,30.0,5.0,0.0
15317,48.0,30.0,30.0,3.0,0.0
15318,48.0,0.0,30.0,5.0,0.0
15319,76.0,0.0,60.0,1.0,0.0
15320,81.0,0.0,60.0,4.0,0.0
15321,81.0,30.0,60.0,6.0,0.0
15322,48.0,0.0,30.0,7.0,0.0
15323,81.0,0.0,60.0,0.0,0.0
15324,72.0,0.0,60.0,2.0,0.0
15325,50.0,0.0,30.0,5.0,0.0
15326,50.0,0.0,30.0,3.0,0.0
15327,50.0,0.0,30.0,7.0,0.0
15328,81.0,0.0,120.0,1.0,0.0
15329,48.0,0.0,30.0,7.0,0.0
15330,48.0,30.0,30.0,3.0,0.0
15331,76.0,0.0,60.0,0.0,0.0
15332,72.0,0.0,60.0,2.0,0.0
15333,76.0,30.0,60.0,4.0,0.0
15334,76.0,0.0,60.0,6.0,0.0
15335,48.0,0.0,30.0,5.0,0.0
15336,50.0,0.0,30.0,5.0,0.0
15337,50.0,0.0,30.0,7.0,0.0
15338,50.0,0.0,30.0,3.0,0.0
15339,47.0,0.0,30.0,3.0,0.0
15340,83.0,0.0,60.0,6.0,0.0
15341,83.0,30.0,60.0,0.0,0.0
15342,74.0,0.0,60.0,2.0,0.0
15343,83.0,0.0,60.0,4.0,0.0
15344,47.0,30.0,30.0,5.0,0.0
15345,47.0,0.0,30.0,7.0,0.0
15346,48.0,0.0,30.0,5.0,0.0
15347,48.0,0.0,30.0,3.0,0.0
15348,48.0,0.0,30.0,7.0,0.0
15349,76.0,0.0,60.0,0.0,0.0
15350,47.0,0.0,30.0,5.0,0.0
15351,74.0,0.0,60.0,2.0,0.0
15352,80.0,0.0,60.0,1.0,0.0
15353,47.0,30.0,30.0,3.0,0.0
15354,76.0,0.0,60.0,4.0,0.0
15355,76.0,0.0,60.0,6.0,0.0
15356,47.0,0.0,30.0,7.0,0.0
15357,48.0,30.0,30.0,3.0,0.0
15358,48.0,0.0,30.0,7.0,0.0
15359,48.0,0.0,30.0,5.0,0.0
15360,81.0,0.0,60.0,1.0,0.0
15361,45.0,0.0,30.0,5.0,0.0
15362,86.0,0.0,60.0,4.0,0.0
15363,81.0,0.0,120.0,4.0,0.0
15364,76.0,0.0,120.0,4.0,0.0
15365,86.0,0.0,60.0,6.0,0.0
15366,45.0,0.0,30.0,7.0,0.0
15367,76.0,0.0,120.0,6.0,0.0
15368,45.0,30.0,30.0,3.0,0.0
15369,76.0,0.0,180.0,2.0,0.0
15370,86.0,0.0,60.0,0.0,0.0
15371,81.0,29.0,120.0,6.0,0.0
15372,44.0,0.0,30.0,3.0,0.0
15373,44.0,30.0,30.0,7.0,0.0
15374,44.0,0.0,30.0,5.0,0.0
15375,84.0,0.0,90.0,6.0,0.0
15376,76.0,0.0,60.0,1.0,0.0
15377,84.0,29.0,90.0,0.0,0.0
15378,84.0,0.0,90.0,4.0,0.0
15379,45.0,0.0,30.0,5.0,0.0
15380,45.0,30.0,30.0,7.0,0.0
15381,45.0,0.0,30.0,3.0,0.0
15382,47.0,0.0,30.0,7.0,0.0
15383,47.0,1.0,30.0,3.0,0.0
15384,47.0,0.0,30.0,5.0,0.0
15385,48.0,0.0,30.0,3.0,0.0
15386,81.0,0.0,60.0,1.0,0.0
15387,48.0,1.0,30.0,7.0,0.0
15388,48.0,0.0,30.0,5.0,0.0
15389,83.0,0.0,30.0,4.0,0.0
15390,83.0,0.0,30.0,0.0,0.0
15391,50.0,0.0,30.0,5.0,0.0
15392,50.0,0.0,30.0,3.0,0.0
15393,83.0,0.0,30.0,6.0,0.0
15394,50.0,30.0,30.0,7.0,0.0
15395,84.0,0.0,30.0,0.0,0.0
15396,84.0,30.0,30.0,4.0,0.0
15397,52.0,0.0,30.0,7.0,0.0
15398,69.0,30.0,60.0,2.0,0.0
15399,52.0,0.0,30.0,3.0,0.0
15400,52.0,0.0,30.0,5.0,0.0
15401,84.0,0.0,30.0,6.0,0.0
15402,76.0,0.0,60.0,1.0,0.0
15403,54.0,0.0,30.0,7.0,0.0
15404,81.0,0.0,30.0,6.0,0.0
15405,54.0,0.0,30.0,3.0,0.0
15406,81.0,0.0,30.0,0.0,0.0
15407,81.0,0.0,30.0,4.0,0.0
15408,54.0,0.0,30.0,5.0,0.0
15409,56.0,0.0,60.0,3.0,0.0
15410,76.0,0.0,30.0,4.0,0.0
15411,76.0,0.0,30.0,0.0,0.0
15412,56.0,0.0,60.0,7.0,0.0
15413,83.0,0.0,60.0,1.0,0.0
15414,56.0,30.0,60.0,5.0,0.0
15415,76.0,30.0,30.0,6.0,0.0
15416,71.0,0.0,60.0,2.0,0.0
15417,75.0,0.0,30.0,4.0,0.0
15418,75.0,0.0,30.0,0.0,0.0
15419,75.0,0.0,30.0,6.0,0.0
15420,59.0,0.0,60.0,5.0,0.0
15421,71.0,0.0,60.0,2.0,0.0
15422,76.0,0.0,30.0,6.0,0.0
15423,59.0,0.0,60.0,7.0,0.0
15424,76.0,0.0,60.0,1.0,0.0
15425,59.0,0.0,60.0,3.0,0.0
15426,76.0,30.0,30.0,0.0,0.0
15427,76.0,0.0,30.0,4.0,0.0
15428,78.0,0.0,30.0,6.0,0.0
15429,78.0,0.0,30.0,4.0,0.0
15430,78.0,30.0,30.0,0.0,0.0
15431,80.0,0.0,30.0,6.0,0.0
15432,52.0,0.0,60.0,3.0,0.0
15433,76.0,0.0,60.0,2.0,0.0
15434,80.0,30.0,30.0,4.0,0.0
15435,52.0,0.0,60.0,7.0,0.0
15436,83.0,0.0,60.0,1.0,0.0
15437,52.0,30.0,60.0,5.0,0.0
15438,80.0,0.0,30.0,0.0,0.0
15439,81.0,0.0,30.0,4.0,0.0
15440,81.0,0.0,30.0,6.0,0.0
15441,81.0,0.0,30.0,0.0,0.0
15442,83.0,0.0,30.0,6.0,0.0
15443,76.0,0.0,60.0,2.0,0.0
15444,56.0,0.0,60.0,5.0,0.0
15445,56.0,0.0,60.0,7.0,0.0
15446,83.0,30.0,30.0,4.0,0.0
15447,56.0,0.0,60.0,3.0,0.0
15448,83.0,0.0,30.0,0.0,0.0
15449,76.0,0.0,60.0,1.0,0.0
15450,84.0,0.0,30.0,6.0,0.0
15451,84.0,30.0,30.0,0.0,0.0
15452,84.0,0.0,30.0,4.0,0.0
15453,86.0,30.0,30.0,4.0,0.0
15454,81.0,30.0,60.0,1.0,0.0
15455,57.0,0.0,60.0,7.0,0.0
15456,57.0,0.0,60.0,5.0,0.0
15457,57.0,0.0,60.0,3.0,0.0
15458,86.0,0.0,30.0,0.0,0.0
15459,76.0,0.0,60.0,2.0,0.0
15460,86.0,0.0,30.0,6.0,0.0
15461,83.0,0.0,30.0,0.0,0.0
15462,83.0,0.0,30.0,4.0,0.0
15463,83.0,0.0,30.0,6.0,0.0
15464,84.0,0.0,30.0,6.0,0.0
15465,45.0,0.0,60.0,7.0,0.0
15466,76.0,30.0,60.0,1.0,0.0
15467,45.0,0.0,60.0,5.0,0.0
15468,45.0,0.0,60.0,3.0,0.0
15469,84.0,0.0,30.0,4.0,0.0
15470,72.0,0.0,60.0,2.0,0.0
15471,84.0,30.0,30.0,0.0,0.0
15472,81.0,0.0,30.0,6.0,0.0
15473,81.0,0.0,30.0,4.0,0.0
15474,81.0,0.0,30.0,0.0,0.0
15475,81.0,0.0,60.0,1.0,0.0
15476,69.0,0.0,60.0,2.0,0.0
15477,48.0,0.0,60.0,3.0,0.0
15478,76.0,30.0,30.0,4.0,0.0
15479,76.0,0.0,30.0,0.0,0.0
15480,48.0,30.0,60.0,5.0,0.0
15481,76.0,0.0,30.0,6.0,0.0
15482,48.0,0.0,60.0,7.0,0.0
15483,81.0,0.0,30.0,0.0,0.0
15484,81.0,0.0,30.0,4.0,0.0
15485,81.0,0.0,30.0,6.0,0.0
15486,69.0,0.0,60.0,2.0,0.0
15487,84.0,0.0,30.0,4.0,0.0
15488,76.0,0.0,60.0,1.0,0.0
15489,52.0,0.0,60.0,5.0,0.0
15490,84.0,30.0,30.0,6.0,0.0
15491,52.0,0.0,60.0,7.0,0.0
15492,52.0,0.0,60.0,3.0,0.0
15493,84.0,0.0,30.0,0.0,0.0
15494,81.0,0.0,30.0,0.0,0.0
15495,81.0,0.0,30.0,4.0,0.0
15496,81.0,30.0,30.0,6.0,0.0
15497,76.0,30.0,30.0,0.0,0.0
15498,56.0,0.0,60.0,5.0,0.0
15499,76.0,0.0,30.0,4.0,0.0
15500,71.0,0.0,60.0,2.0,0.0
15501,56.0,0.0,60.0,7.0,0.0
15502,83.0,30.0,60.0,1.0,0.0
15503,76.0,0.0,30.0,6.0,0.0
15504,56.0,0.0,60.0,3.0,0.0
15505,75.0,0.0,30.0,0.0,0.0
15506,75.0,0.0,30.0,4.0,0.0
15507,75.0,0.0,30.0,6.0,0.0
15508,59.0,0.0,60.0,7.0,0.0
15509,76.0,0.0,30.0,4.0,0.0
15510,76.0,30.0,30.0,0.0,0.0
15511,59.0,0.0,60.0,3.0,0.0
15512,71.0,0.0,60.0,2.0,0.0
15513,76.0,0.0,60.0,1.0,0.0
15514,59.0,0.0,60.0,5.0,0.0
15515,76.0,0.0,30.0,6.0,0.0
15516,78.0,0.0,30.0,6.0,0.0
15517,78.0,0.0,30.0,4.0,0.0
15518,78.0,30.0,30.0,0.0,0.0
15519,80.0,30.0,30.0,6.0,0.0
15520,80.0,0.0,30.0,4.0,0.0
15521,52.0,0.0,60.0,3.0,0.0
15522,52.0,0.0,60.0,7.0,0.0
15523,83.0,0.0,60.0,1.0,0.0
15524,76.0,0.0,60.0,2.0,0.0
15525,80.0,0.0,30.0,0.0,0.0
15526,52.0,0.0,60.0,5.0,0.0
15527,81.0,0.0,30.0,4.0,0.0
15528,81.0,0.0,30.0,0.0,0.0
15529,81.0,30.0,30.0,6.0,0.0
15530,83.0,0.0,30.0,6.0,0.0
15531,56.0,0.0,60.0,7.0,0.0
15532,83.0,0.0,30.0,4.0,0.0
15533,76.0,0.0,60.0,2.0,0.0
15534,83.0,30.0,30.0,0.0,0.0
15535,56.0,0.0,60.0,5.0,0.0
15536,76.0,30.0,60.0,1.0,0.0
15537,56.0,0.0,60.0,3.0,0.0
15538,84.0,0.0,30.0,0.0,0.0
15539,84.0,0.0,30.0,4.0,0.0
15540,84.0,0.0,30.0,6.0,0.0
15541,57.0,0.0,60.0,3.0,0.0
15542,57.0,0.0,60.0,7.0,0.0
15543,76.0,0.0,60.0,2.0,0.0
15544,57.0,0.0,60.0,5.0,0.0
15545,81.0,0.0,60.0,1.0,0.0
15546,86.0,30.0,30.0,0.0,0.0
15547,86.0,0.0,30.0,6.0,0.0
15548,86.0,0.0,30.0,4.0,0.0
15549,83.0,0.0,30.0,0.0,0.0
15550,83.0,0.0,30.0,4.0,0.0
15551,83.0,30.0,30.0,6.0,0.0
15552,45.0,0.0,60.0,3.0,0.0
15553,72.0,0.0,60.0,2.0,0.0
15554,84.0,30.0,30.0,6.0,0.0
15555,76.0,0.0,60.0,1.0,0.0
15556,45.0,0.0,60.0,7.0,0.0
15557,45.0,0.0,60.0,5.0,0.0
15558,84.0,0.0,30.0,0.0,0.0
15559,84.0,0.0,30.0,4.0,0.0
15560,81.0,30.0,30.0,6.0,0.0
15561,81.0,0.0,30.0,0.0,0.0
15562,81.0,0.0,30.0,4.0,0.0
15563,76.0,30.0,30.0,0.0,0.0
15564,48.0,0.0,60.0,7.0,0.0
15565,76.0,0.0,30.0,6.0,0.0
15566,76.0,0.0,30.0,4.0,0.0
15567,48.0,0.0,60.0,3.0,0.0
15568,81.0,0.0,60.0,1.0,0.0
15569,69.0,30.0,60.0,2.0,0.0
15570,48.0,0.0,60.0,5.0,0.0
15571,81.0,0.0,30.0,4.0,0.0
15572,81.0,0.0,30.0,6.0,0.0
15573,81.0,0.0,30.0,0.0,0.0
15574,84.0,0.0,30.0,4.0,0.0
15575,84.0,30.0,30.0,0.0,0.0
15576,52.0,30.0,60.0,3.0,0.0
15577,84.0,0.0,30.0,6.0,0.0
15578,76.0,0.0,60.0,1.0,0.0
15579,52.0,0.0,60.0,5.0,0.0
15580,69.0,0.0,60.0,2.0,0.0
15581,52.0,0.0,60.0,7.0,0.0
15582,81.0,0.0,30.0,0.0,0.0
15583,81.0,0.0,30.0,4.0,0.0
15584,81.0,0.0,30.0,6.0,0.0
15585,54.0,0.0,60.0,3.0,0.0
15586,69.0,0.0,60.0,2.0,0.0
15587,54.0,0.0,60.0,5.0,0.0
15588,54.0,0.0,60.0,7.0,0.0
15589,74.0,30.0,30.0,6.0,0.0
15590,81.0,0.0,60.0,1.0,0.0
15591,74.0,0.0,30.0,4.0,0.0
15592,74.0,0.0,30.0,0.0,0.0
15593,73.0,0.0,30.0,0.0,0.0
15594,73.0,0.0,30.0,6.0,0.0
15595,73.0,30.0,30.0,4.0,0.0
15596,74.0,0.0,60.0,1.0,0.0
15597,57.0,0.0,60.0,3.0,0.0
15598,57.0,0.0,60.0,7.0,0.0
15599,74.0,0.0,30.0,0.0,0.0
15600,57.0,0.0,60.0,5.0,0.0
15601,69.0,30.0,60.0,2.0,0.0
15602,74.0,0.0,30.0,6.0,0.0
15603,74.0,30.0,30.0,4.0,0.0
15604,76.0,0.0,30.0,6.0,0.0
15605,76.0,0.0,30.0,4.0,0.0
15606,76.0,0.0,30.0,0.0,0.0
15607,50.0,0.0,60.0,5.0,0.0
15608,50.0,0.0,60.0,3.0,0.0
15609,78.0,0.0,30.0,0.0,0.0
15610,74.0,0.0,60.0,2.0,0.0
15611,50.0,0.0,60.0,7.0,0.0
15612,81.0,0.0,60.0,1.0,0.0
15613,78.0,0.0,30.0,4.0,0.0
15614,78.0,30.0,30.0,6.0,0.0
15615,79.0,0.0,30.0,0.0,0.0
15616,79.0,30.0,30.0,4.0,0.0
15617,79.0,0.0,30.0,6.0,0.0
15618,54.0,0.0,60.0,3.0,0.0
15619,54.0,0.0,60.0,5.0,0.0
15620,74.0,0.0,60.0,2.0,0.0
15621,54.0,0.0,60.0,7.0,0.0
15622,81.0,0.0,30.0,6.0,0.0
15623,81.0,0.0,30.0,4.0,0.0
15624,81.0,30.0,30.0,0.0,0.0
15625,74.0,0.0,60.0,1.0,0.0
15626,83.0,0.0,30.0,6.0,0.0
15627,83.0,0.0,30.0,0.0,0.0
15628,83.0,30.0,30.0,4.0,0.0
15629,79.0,30.0,60.0,1.0,0.0
15630,55.0,0.0,60.0,3.0,0.0
15631,55.0,0.0,60.0,5.0,0.0
15632,55.0,0.0,60.0,7.0,0.0
15633,74.0,0.0,60.0,2.0,0.0
15634,84.0,30.0,30.0,0.0,0.0
15635,84.0,0.0,30.0,4.0,0.0
15636,84.0,0.0,30.0,6.0,0.0
15637,81.0,0.0,30.0,4.0,0.0
15638,81.0,0.0,30.0,6.0,0.0
15639,81.0,0.0,30.0,0.0,0.0
15640,83.0,0.0,30.0,4.0,0.0
15641,43.0,0.0,60.0,3.0,0.0
15642,71.0,30.0,60.0,2.0,0.0
15643,43.0,0.0,60.0,7.0,0.0
15644,43.0,0.0,60.0,5.0,0.0
15645,83.0,0.0,30.0,6.0,0.0
15646,83.0,30.0,30.0,0.0,0.0
15647,74.0,0.0,60.0,1.0,0.0
15648,79.0,0.0,30.0,0.0,0.0
15649,79.0,0.0,30.0,4.0,0.0
15650,79.0,0.0,30.0,6.0,0.0
15651,47.0,0.0,60.0,3.0,0.0
15652,79.0,0.0,60.0,1.0,0.0
15653,47.0,0.0,60.0,5.0,0.0
15654,47.0,0.0,60.0,7.0,0.0
15655,74.0,30.0,30.0,6.0,0.0
15656,74.0,0.0,30.0,4.0,0.0
15657,74.0,0.0,30.0,0.0,0.0
15658,67.0,0.0,60.0,2.0,0.0
15659,79.0,0.0,30.0,4.0,0.0
15660,79.0,30.0,30.0,6.0,0.0
15661,79.0,0.0,30.0,0.0,0.0
15662,83.0,30.0,30.0,4.0,0.0
15663,74.0,0.0,60.0,1.0,0.0
15664,83.0,0.0,30.0,0.0,0.0
15665,50.0,0.0,60.0,5.0,0.0
15666,83.0,0.0,30.0,6.0,0.0
15667,50.0,0.0,60.0,7.0,0.0
15668,67.0,30.0,60.0,2.0,0.0
15669,50.0,0.0,60.0,3.0,0.0
15670,79.0,0.0,30.0,6.0,0.0
15671,79.0,0.0,30.0,0.0,0.0
15672,79.0,0.0,30.0,4.0,0.0
15673,54.0,0.0,60.0,7.0,0.0
15674,54.0,0.0,60.0,5.0,0.0
15675,81.0,0.0,60.0,1.0,0.0
15676,74.0,30.0,30.0,4.0,0.0
15677,74.0,0.0,30.0,6.0,0.0
15678,54.0,0.0,60.0,3.0,0.0
15679,69.0,0.0,60.0,2.0,0.0
15680,74.0,0.0,30.0,0.0,0.0
15681,73.0,0.0,30.0,4.0,0.0
15682,73.0,30.0,30.0,0.0,0.0
15683,73.0,0.0,30.0,6.0,0.0
15684,57.0,0.0,60.0,3.0,0.0
15685,69.0,30.0,60.0,2.0,0.0
15686,74.0,30.0,30.0,4.0,0.0
15687,74.0,0.0,30.0,0.0,0.0
15688,74.0,0.0,60.0,1.0,0.0
15689,74.0,0.0,30.0,6.0,0.0
15690,57.0,0.0,60.0,7.0,0.0
15691,57.0,0.0,60.0,5.0,0.0
15692,76.0,0.0,30.0,0.0,0.0
15693,76.0,0.0,30.0,6.0,0.0
15694,76.0,0.0,30.0,4.0,0.0
15695,50.0,0.0,60.0,5.0,0.0
15696,78.0,30.0,30.0,6.0,0.0
15697,50.0,0.0,60.0,3.0,0.0
15698,78.0,0.0,30.0,0.0,0.0
15699,78.0,0.0,30.0,4.0,0.0
15700,81.0,0.0,60.0,1.0,0.0
15701,74.0,0.0,60.0,2.0,0.0
15702,50.0,0.0,60.0,7.0,0.0
15703,79.0,0.0,30.0,0.0,0.0
15704,79.0,0.0,30.0,6.0,0.0
15705,79.0,30.0,30.0,4.0,0.0
15706,81.0,0.0,30.0,4.0,0.0
15707,81.0,0.0,30.0,0.0,0.0
15708,54.0,0.0,60.0,7.0,0.0
15709,54.0,30.0,60.0,3.0,0.0
15710,74.0,0.0,60.0,1.0,0.0
15711,74.0,0.0,60.0,2.0,0.0
15712,54.0,0.0,60.0,5.0,0.0
15713,81.0,30.0,30.0,6.0,0.0
15714,83.0,0.0,30.0,0.0,0.0
15715,83.0,0.0,30.0,4.0,0.0
15716,83.0,0.0,30.0,6.0,0.0
15717,43.0,0.0,60.0,5.0,0.0
15718,43.0,30.0,60.0,7.0,0.0
15719,84.0,0.0,30.0,6.0,0.0
15720,74.0,0.0,60.0,2.0,0.0
15721,43.0,0.0,60.0,3.0,0.0
15722,84.0,30.0,30.0,0.0,0.0
15723,84.0,0.0,30.0,4.0,0.0
15724,79.0,0.0,60.0,1.0,0.0
15725,81.0,0.0,30.0,0.0,0.0
15726,81.0,0.0,30.0,4.0,0.0
15727,81.0,0.0,30.0,6.0,0.0
15728,83.0,0.0,30.0,0.0,0.0
15729,55.0,0.0,60.0,5.0,0.0
15730,55.0,0.0,60.0,7.0,0.0
15731,71.0,0.0,60.0,2.0,0.0
15732,55.0,0.0,60.0,3.0,0.0
15733,74.0,0.0,60.0,1.0,0.0
15734,83.0,0.0,30.0,6.0,0.0
15735,83.0,30.0,30.0,4.0,0.0
15736,79.0,30.0,30.0,6.0,0.0
15737,79.0,0.0,30.0,4.0,0.0
15738,79.0,0.0,30.0,0.0,0.0
15739,59.0,0.0,60.0,7.0,0.0
15740,74.0,0.0,30.0,4.0,0.0
15741,74.0,0.0,30.0,6.0,0.0
15742,59.0,0.0,60.0,3.0,0.0
15743,74.0,30.0,30.0,0.0,0.0
15744,79.0,0.0,60.0,1.0,0.0
15745,59.0,0.0,60.0,5.0,0.0
15746,67.0,0.0,60.0,2.0,0.0
15747,79.0,0.0,30.0,0.0,0.0
15748,79.0,30.0,30.0,6.0,0.0
15749,79.0,0.0,30.0,4.0,0.0
15750,83.0,0.0,30.0,4.0,0.0
15751,55.0,30.0,60.0,3.0,0.0
15752,83.0,0.0,30.0,6.0,0.0
15753,55.0,0.0,60.0,5.0,0.0
15754,83.0,30.0,30.0,0.0,0.0
15755,67.0,0.0,60.0,2.0,0.0
15756,55.0,0.0,60.0,7.0,0.0
15757,74.0,0.0,60.0,1.0,0.0
15758,79.0,0.0,30.0,6.0,0.0
15759,79.0,0.0,30.0,0.0,0.0
15760,79.0,0.0,30.0,4.0,0.0
15761,54.0,0.0,60.0,7.0,0.0
15762,54.0,0.0,60.0,3.0,0.0
15763,54.0,0.0,60.0,5.0,0.0
15764,81.0,30.0,60.0,0.0,0.0
15765,81.0,0.0,60.0,6.0,0.0
15766,81.0,0.0,60.0,4.0,0.0
15767,72.0,30.0,30.0,2.0,0.0
15768,75.0,0.0,60.0,1.0,0.0
15769,74.0,0.0,30.0,2.0,0.0
15770,72.0,30.0,30.0,2.0,0.0
15771,76.0,0.0,120.0,1.0,0.0
15772,60.0,0.0,60.0,5.0,0.0
15773,60.0,30.0,60.0,3.0,0.0
15774,60.0,0.0,60.0,7.0,0.0
15775,74.0,0.0,30.0,2.0,0.0
15776,52.0,0.0,60.0,5.0,0.0
15777,52.0,0.0,60.0,3.0,0.0
15778,52.0,0.0,60.0,7.0,0.0
15779,72.0,30.0,30.0,2.0,0.0
15780,81.0,0.0,60.0,0.0,0.0
15781,81.0,30.0,60.0,4.0,0.0
15782,81.0,0.0,60.0,6.0,0.0
15783,74.0,0.0,30.0,2.0,0.0
15784,60.0,0.0,60.0,5.0,0.0
15785,72.0,30.0,30.0,2.0,0.0
15786,60.0,0.0,60.0,7.0,0.0
15787,78.0,0.0,60.0,1.0,0.0
15788,60.0,0.0,60.0,3.0,0.0
15789,74.0,30.0,30.0,2.0,0.0
15790,51.0,0.0,30.0,5.0,0.0
15791,51.0,0.0,30.0,3.0,0.0
15792,51.0,30.0,30.0,7.0,0.0
15793,81.0,30.0,120.0,0.0,0.0
15794,71.0,0.0,30.0,2.0,0.0
15795,81.0,0.0,120.0,6.0,0.0
15796,78.0,0.0,120.0,1.0,0.0
15797,81.0,0.0,120.0,4.0,0.0
15798,49.0,0.0,30.0,5.0,0.0
15799,69.0,0.0,30.0,2.0,0.0
15800,49.0,30.0,30.0,3.0,0.0
15801,49.0,0.0,30.0,7.0,0.0
15802,51.0,30.0,30.0,5.0,0.0
15803,51.0,0.0,30.0,3.0,0.0
15804,51.0,0.0,30.0,7.0,0.0
15805,71.0,0.0,30.0,2.0,0.0
15806,49.0,0.0,30.0,3.0,0.0
15807,49.0,0.0,30.0,7.0,0.0
15808,49.0,0.0,30.0,5.0,0.0
15809,69.0,0.0,30.0,2.0,0.0
15810,71.0,30.0,120.0,2.0,0.0
15811,47.0,0.0,30.0,5.0,0.0
15812,47.0,0.0,30.0,3.0,0.0
15813,47.0,30.0,30.0,7.0,0.0
15814,49.0,30.0,30.0,7.0,0.0
15815,49.0,0.0,30.0,3.0,0.0
15816,79.0,0.0,30.0,0.0,0.0
15817,79.0,0.0,30.0,6.0,0.0
15818,79.0,0.0,30.0,4.0,0.0
15819,49.0,0.0,30.0,5.0,0.0
15820,76.0,0.0,30.0,1.0,0.0
15821,78.0,0.0,30.0,6.0,0.0
15822,51.0,0.0,30.0,5.0,0.0
15823,78.0,0.0,30.0,1.0,0.0
15824,51.0,0.0,30.0,3.0,0.0
15825,51.0,30.0,30.0,7.0,0.0
15826,78.0,0.0,30.0,4.0,0.0
15827,78.0,0.0,30.0,0.0,0.0
15828,47.0,0.0,30.0,3.0,0.0
15829,81.0,0.0,30.0,6.0,0.0
15830,81.0,0.0,30.0,4.0,0.0
15831,47.0,0.0,30.0,7.0,0.0
15832,47.0,0.0,30.0,5.0,0.0
15833,75.0,0.0,30.0,1.0,0.0
15834,81.0,0.0,30.0,0.0,0.0
15835,52.0,0.0,60.0,5.0,0.0
15836,76.0,0.0,60.0,1.0,0.0
15837,79.0,0.0,30.0,6.0,0.0
15838,52.0,0.0,60.0,3.0,0.0
15839,79.0,30.0,30.0,4.0,0.0
15840,52.0,0.0,60.0,7.0,0.0
15841,79.0,0.0,30.0,0.0,0.0
15842,72.0,30.0,30.0,2.0,0.0
15843,78.0,0.0,30.0,4.0,0.0
15844,78.0,0.0,30.0,6.0,0.0
15845,78.0,0.0,30.0,0.0,0.0
15846,71.0,30.0,30.0,2.0,0.0
15847,79.0,0.0,90.0,4.0,0.0
15848,59.0,30.0,60.0,3.0,0.0
15849,59.0,0.0,60.0,7.0,0.0
15850,59.0,0.0,60.0,5.0,0.0
15851,79.0,30.0,90.0,0.0,0.0
15852,79.0,0.0,90.0,6.0,0.0
15853,72.0,0.0,30.0,2.0,0.0
15854,50.0,0.0,60.0,7.0,0.0
15855,71.0,0.0,30.0,2.0,0.0
15856,76.0,0.0,60.0,1.0,0.0
15857,50.0,0.0,60.0,5.0,0.0
15858,50.0,30.0,60.0,3.0,0.0
15859,78.0,0.0,30.0,0.0,0.0
15860,72.0,0.0,30.0,2.0,0.0
15861,78.0,0.0,30.0,4.0,0.0
15862,78.0,0.0,30.0,6.0,0.0
15863,79.0,0.0,90.0,6.0,0.0
15864,59.0,0.0,60.0,3.0,0.0
15865,79.0,0.0,90.0,4.0,0.0
15866,71.0,30.0,30.0,2.0,0.0
15867,59.0,0.0,60.0,5.0,0.0
15868,79.0,0.0,90.0,0.0,0.0
15869,59.0,30.0,60.0,7.0,0.0
15870,72.0,0.0,30.0,2.0,0.0
15871,70.0,0.0,30.0,2.0,0.0
15872,49.0,0.0,30.0,7.0,0.0
15873,76.0,0.0,180.0,1.0,0.0
15874,49.0,30.0,30.0,3.0,0.0
15875,49.0,0.0,30.0,5.0,0.0
15876,47.0,0.0,30.0,7.0,0.0
15877,47.0,0.0,30.0,5.0,0.0
15878,71.0,0.0,30.0,2.0,0.0
15879,76.0,0.0,30.0,6.0,0.0
15880,76.0,0.0,30.0,0.0,0.0
15881,47.0,0.0,30.0,3.0,0.0
15882,76.0,30.0,30.0,4.0,0.0
15883,49.0,0.0,30.0,3.0,0.0
15884,79.0,30.0,120.0,0.0,0.0
15885,79.0,0.0,120.0,6.0,0.0
15886,79.0,0.0,120.0,4.0,0.0
15887,49.0,30.0,30.0,7.0,0.0
15888,49.0,0.0,30.0,5.0,0.0
15889,70.0,0.0,30.0,2.0,0.0
15890,47.0,0.0,30.0,5.0,0.0
15891,71.0,0.0,30.0,2.0,0.0
15892,47.0,30.0,30.0,3.0,0.0
15893,47.0,0.0,30.0,7.0,0.0
15894,46.0,0.0,30.0,3.0,0.0
15895,46.0,30.0,30.0,5.0,0.0
15896,73.0,0.0,60.0,2.0,0.0
15897,46.0,0.0,30.0,7.0,0.0
15898,47.0,0.0,30.0,3.0,0.0
15899,47.0,0.0,30.0,5.0,0.0
15900,47.0,0.0,30.0,7.0,0.0
15901,78.0,30.0,30.0,0.0,0.0
15902,49.0,0.0,30.0,7.0,0.0
15903,66.0,30.0,60.0,1.0,0.0
15904,78.0,0.0,30.0,6.0,0.0
15905,78.0,0.0,30.0,4.0,0.0
15906,49.0,0.0,30.0,3.0,0.0
15907,70.0,0.0,60.0,2.0,0.0
15908,49.0,0.0,30.0,5.0,0.0
15909,46.0,0.0,30.0,5.0,0.0
15910,76.0,0.0,30.0,4.0,0.0
15911,46.0,0.0,30.0,3.0,0.0
15912,76.0,0.0,30.0,0.0,0.0
15913,46.0,0.0,30.0,7.0,0.0
15914,76.0,0.0,30.0,6.0,0.0
15915,47.0,0.0,30.0,5.0,0.0
15916,47.0,30.0,30.0,3.0,0.0
15917,75.0,0.0,60.0,0.0,0.0
15918,66.0,0.0,60.0,2.0,0.0
15919,75.0,0.0,60.0,4.0,0.0
15920,47.0,0.0,30.0,7.0,0.0
15921,75.0,0.0,60.0,6.0,0.0
15922,71.0,0.0,60.0,1.0,0.0
15923,48.0,0.0,30.0,7.0,0.0
15924,48.0,0.0,30.0,5.0,0.0
15925,48.0,30.0,30.0,3.0,0.0
15926,47.0,30.0,30.0,3.0,0.0
15927,78.0,0.0,60.0,4.0,0.0
15928,71.0,0.0,60.0,2.0,0.0
15929,78.0,0.0,60.0,0.0,0.0
15930,47.0,0.0,30.0,7.0,0.0
15931,78.0,0.0,60.0,6.0,0.0
15932,47.0,0.0,30.0,5.0,0.0
15933,75.0,0.0,60.0,1.0,0.0
15934,48.0,0.0,30.0,7.0,0.0
15935,48.0,30.0,30.0,3.0,0.0
15936,48.0,0.0,30.0,5.0,0.0
15937,69.0,0.0,60.0,4.0,0.0
15938,69.0,0.0,60.0,6.0,0.0
15939,75.0,0.0,60.0,2.0,0.0
15940,47.0,0.0,30.0,3.0,0.0
15941,47.0,30.0,30.0,7.0,0.0
15942,47.0,0.0,30.0,5.0,0.0
15943,78.0,0.0,180.0,1.0,0.0
15944,69.0,0.0,60.0,0.0,0.0
15945,48.0,0.0,30.0,3.0,0.0
15946,48.0,30.0,30.0,5.0,0.0
15947,48.0,0.0,30.0,7.0,0.0
15948,45.0,0.0,30.0,7.0,0.0
15949,78.0,0.0,60.0,0.0,0.0
15950,45.0,30.0,30.0,5.0,0.0
15951,78.0,0.0,60.0,4.0,0.0
15952,63.0,0.0,60.0,2.0,0.0
15953,45.0,0.0,30.0,3.0,0.0
15954,78.0,0.0,60.0,6.0,0.0
15955,47.0,0.0,30.0,7.0,0.0
15956,47.0,30.0,30.0,3.0,0.0
15957,47.0,0.0,30.0,5.0,0.0
15958,67.0,30.0,30.0,6.0,0.0
15959,48.0,0.0,30.0,7.0,0.0
15960,67.0,0.0,30.0,0.0,0.0
15961,48.0,0.0,30.0,3.0,0.0
15962,67.0,0.0,30.0,4.0,0.0
15963,64.0,0.0,120.0,2.0,0.0
15964,48.0,0.0,30.0,5.0,0.0
15965,60.0,0.0,30.0,5.0,0.0
15966,66.0,30.0,30.0,0.0,0.0
15967,60.0,0.0,30.0,3.0,0.0
15968,66.0,0.0,30.0,6.0,0.0
15969,66.0,0.0,30.0,4.0,0.0
15970,60.0,0.0,30.0,7.0,0.0
15971,67.0,0.0,30.0,6.0,0.0
15972,59.0,30.0,30.0,7.0,0.0
15973,59.0,0.0,30.0,3.0,0.0
15974,67.0,0.0,30.0,4.0,0.0
15975,76.0,0.0,30.0,1.0,0.0
15976,59.0,0.0,30.0,5.0,0.0
15977,67.0,0.0,30.0,0.0,0.0
15978,66.0,0.0,30.0,0.0,0.0
15979,75.0,0.0,30.0,1.0,0.0
15980,66.0,30.0,30.0,6.0,0.0
15981,57.0,0.0,30.0,5.0,0.0
15982,66.0,0.0,30.0,4.0,0.0
15983,57.0,0.0,30.0,7.0,0.0
15984,57.0,0.0,30.0,3.0,0.0
15985,55.0,0.0,30.0,3.0,0.0
15986,76.0,0.0,60.0,1.0,0.0
15987,64.0,0.0,60.0,6.0,0.0
15988,55.0,30.0,30.0,7.0,0.0
15989,55.0,0.0,30.0,5.0,0.0
15990,64.0,30.0,60.0,4.0,0.0
15991,64.0,0.0,60.0,0.0,0.0
15992,69.0,0.0,30.0,2.0,0.0
15993,60.0,0.0,30.0,3.0,0.0
15994,60.0,0.0,30.0,7.0,0.0
15995,60.0,0.0,30.0,5.0,0.0
15996,59.0,0.0,30.0,5.0,0.0
15997,59.0,0.0,30.0,7.0,0.0
15998,79.0,0.0,30.0,0.0,0.0
15999,79.0,0.0,30.0,4.0,0.0
16000,67.0,0.0,30.0,2.0,0.0
16001,59.0,0.0,30.0,3.0,0.0
16002,79.0,0.0,30.0,6.0,0.0
16003,64.0,30.0,30.0,1.0,0.0
16004,57.0,0.0,30.0,5.0,0.0
16005,66.0,0.0,30.0,1.0,0.0
16006,81.0,0.0,30.0,6.0,0.0
16007,81.0,0.0,30.0,0.0,0.0
16008,66.0,0.0,30.0,2.0,0.0
16009,57.0,30.0,30.0,7.0,0.0
16010,81.0,0.0,30.0,4.0,0.0
16011,57.0,0.0,30.0,3.0,0.0
16012,83.0,0.0,60.0,0.0,0.0
16013,55.0,30.0,30.0,3.0,0.0
16014,67.0,0.0,60.0,1.0,0.0
16015,83.0,0.0,60.0,6.0,0.0
16016,64.0,0.0,60.0,2.0,0.0
16017,83.0,0.0,60.0,4.0,0.0
16018,55.0,0.0,30.0,7.0,0.0
16019,55.0,0.0,30.0,5.0,0.0
16020,60.0,30.0,30.0,3.0,0.0
16021,60.0,0.0,30.0,7.0,0.0
16022,60.0,0.0,30.0,5.0,0.0
16023,59.0,0.0,30.0,5.0,0.0
16024,59.0,0.0,30.0,7.0,0.0
16025,76.0,0.0,60.0,0.0,0.0
16026,66.0,0.0,60.0,2.0,0.0
16027,76.0,0.0,60.0,4.0,0.0
16028,72.0,0.0,60.0,1.0,0.0
16029,59.0,30.0,30.0,3.0,0.0
16030,76.0,0.0,60.0,6.0,0.0
16031,57.0,0.0,30.0,7.0,0.0
16032,57.0,60.0,30.0,5.0,0.0
16033,57.0,0.0,30.0,3.0,0.0
16034,59.0,0.0,60.0,5.0,0.0
16035,59.0,0.0,60.0,3.0,0.0
16036,71.0,60.0,60.0,4.0,0.0
16037,59.0,0.0,60.0,7.0,0.0
16038,71.0,0.0,60.0,0.0,0.0
16039,71.0,0.0,60.0,1.0,0.0
16040,67.0,0.0,60.0,2.0,0.0
16041,71.0,0.0,60.0,6.0,0.0
16042,69.0,0.0,60.0,4.0,0.0
16043,66.0,0.0,60.0,4.0,0.0
16044,66.0,0.0,60.0,2.0,0.0
16045,75.0,0.0,60.0,0.0,0.0
16046,75.0,0.0,60.0,4.0,0.0
16047,75.0,0.0,60.0,6.0,0.0
16048,47.0,0.0,60.0,7.0,0.0
16049,69.0,0.0,60.0,6.0,0.0
16050,66.0,0.0,60.0,6.0,0.0
16051,71.0,0.0,60.0,4.0,0.0
16052,47.0,0.0,60.0,5.0,0.0
16053,47.0,0.0,60.0,3.0,0.0
16054,71.0,120.0,60.0,6.0,0.0
16055,71.0,0.0,60.0,1.0,0.0
16056,64.0,0.0,120.0,6.0,0.0
16057,71.0,0.0,120.0,6.0,0.0
16058,67.0,0.0,120.0,6.0,0.0
16059,76.0,0.0,120.0,6.0,0.0
16060,40.0,0.0,120.0,5.0,0.0
16061,76.0,0.0,120.0,0.0,0.0
16062,67.0,0.0,120.0,4.0,0.0
16063,71.0,0.0,120.0,4.0,0.0
16064,76.0,1.0,120.0,4.0,0.0
16065,52.0,0.0,120.0,5.0,0.0
16066,40.0,0.0,120.0,7.0,0.0
16067,52.0,0.0,120.0,7.0,0.0
16068,40.0,0.0,120.0,3.0,0.0
16069,67.0,0.0,120.0,2.0,0.0
16070,64.0,0.0,120.0,4.0,0.0
16071,71.0,0.0,120.0,1.0,0.0
