,note,step,duration,channel,velocity
0,37.0,0.0,27150.0,5.0,0.0
1,25.0,256.0,27150.0,6.0,0.0
2,56.0,256.0,270.0,1.0,0.0
3,61.0,256.0,270.0,1.0,0.0
4,65.0,256.0,270.0,1.0,0.0
5,68.0,256.0,270.0,1.0,0.0
6,61.0,256.0,270.0,1.0,0.0
7,65.0,256.0,270.0,1.0,0.0
8,68.0,256.0,270.0,1.0,0.0
9,70.0,256.0,270.0,1.0,0.0
10,66.0,256.0,270.0,1.0,0.0
11,63.0,256.0,270.0,1.0,0.0
12,66.0,256.0,270.0,1.0,0.0
13,60.0,256.0,270.0,1.0,0.0
14,70.0,256.0,270.0,1.0,0.0
15,68.0,256.0,270.0,1.0,0.0
16,66.0,512.0,270.0,1.0,0.0
17,65.0,256.0,510.0,1.0,0.0
18,49.0,0.0,270.0,4.0,0.0
19,73.0,0.0,1020.0,1.0,0.0
20,53.0,256.0,270.0,4.0,0.0
21,56.0,256.0,270.0,4.0,0.0
22,61.0,256.0,270.0,4.0,0.0
23,53.0,256.0,270.0,4.0,0.0
24,72.0,0.0,270.0,1.0,0.0
25,56.0,256.0,270.0,4.0,0.0
26,70.0,256.0,270.0,1.0,0.0
27,61.0,0.0,270.0,4.0,0.0
28,65.0,0.0,270.0,4.0,0.0
29,68.0,256.0,270.0,1.0,0.0
30,61.0,0.0,270.0,4.0,0.0
31,70.0,256.0,270.0,1.0,0.0
32,66.0,0.0,270.0,1.0,0.0
33,58.0,256.0,270.0,4.0,0.0
34,68.0,0.0,270.0,1.0,0.0
35,61.0,256.0,270.0,4.0,0.0
36,70.0,256.0,270.0,1.0,0.0
37,54.0,0.0,270.0,4.0,0.0
38,68.0,256.0,270.0,1.0,0.0
39,65.0,0.0,270.0,4.0,0.0
40,66.0,256.0,270.0,1.0,0.0
41,63.0,0.0,270.0,4.0,0.0
42,61.0,256.0,270.0,4.0,0.0
43,65.0,0.0,270.0,1.0,0.0
44,63.0,0.0,270.0,1.0,0.0
45,60.0,256.0,270.0,4.0,0.0
46,61.0,256.0,270.0,4.0,0.0
47,65.0,0.0,270.0,1.0,0.0
48,66.0,256.0,1020.0,1.0,0.0
49,58.0,256.0,270.0,4.0,0.0
50,60.0,256.0,270.0,4.0,0.0
51,61.0,256.0,270.0,4.0,0.0
52,58.0,0.0,270.0,4.0,0.0
53,65.0,0.0,270.0,1.0,0.0
54,56.0,256.0,270.0,4.0,0.0
55,63.0,0.0,270.0,1.0,0.0
56,54.0,256.0,270.0,4.0,0.0
57,61.0,0.0,270.0,1.0,0.0
58,53.0,256.0,270.0,4.0,0.0
59,63.0,256.0,270.0,1.0,0.0
60,54.0,0.0,270.0,4.0,0.0
61,51.0,0.0,270.0,4.0,0.0
62,60.0,256.0,270.0,1.0,0.0
63,53.0,256.0,270.0,4.0,0.0
64,61.0,0.0,270.0,1.0,0.0
65,54.0,256.0,1530.0,4.0,0.0
66,63.0,256.0,270.0,1.0,0.0
67,61.0,256.0,270.0,1.0,0.0
68,60.0,256.0,270.0,1.0,0.0
69,58.0,512.0,270.0,1.0,0.0
70,56.0,0.0,1530.0,1.0,0.0
71,61.0,0.0,270.0,0.0,0.0
72,53.0,0.0,270.0,4.0,0.0
73,65.0,256.0,270.0,0.0,0.0
74,51.0,256.0,270.0,4.0,0.0
75,68.0,0.0,270.0,0.0,0.0
76,73.0,256.0,270.0,0.0,0.0
77,53.0,256.0,510.0,4.0,0.0
78,65.0,0.0,270.0,0.0,0.0
79,68.0,256.0,270.0,0.0,0.0
80,49.0,256.0,510.0,4.0,0.0
81,53.0,0.0,510.0,1.0,0.0
82,73.0,0.0,270.0,0.0,0.0
83,49.0,0.0,510.0,1.0,0.0
84,77.0,256.0,270.0,0.0,0.0
85,44.0,256.0,510.0,4.0,0.0
86,73.0,0.0,270.0,0.0,0.0
87,53.0,256.0,510.0,1.0,0.0
88,49.0,256.0,1530.0,4.0,0.0
89,70.0,256.0,270.0,0.0,0.0
90,73.0,0.0,270.0,0.0,0.0
91,66.0,0.0,270.0,0.0,0.0
92,58.0,256.0,270.0,1.0,0.0
93,77.0,0.0,270.0,0.0,0.0
94,56.0,256.0,270.0,1.0,0.0
95,54.0,0.0,270.0,1.0,0.0
96,75.0,256.0,270.0,0.0,0.0
97,73.0,0.0,270.0,0.0,0.0
98,53.0,0.0,270.0,1.0,0.0
99,72.0,0.0,510.0,0.0,0.0
100,51.0,256.0,780.0,4.0,0.0
101,54.0,256.0,270.0,1.0,0.0
102,56.0,256.0,270.0,1.0,0.0
103,78.0,0.0,1020.0,0.0,0.0
104,58.0,256.0,780.0,1.0,0.0
105,49.0,256.0,270.0,4.0,0.0
106,48.0,256.0,1020.0,4.0,0.0
107,58.0,256.0,270.0,1.0,0.0
108,56.0,256.0,270.0,1.0,0.0
109,77.0,0.0,270.0,0.0,0.0
110,75.0,0.0,270.0,0.0,0.0
111,54.0,0.0,270.0,1.0,0.0
112,73.0,256.0,270.0,0.0,0.0
113,49.0,0.0,510.0,4.0,0.0
114,53.0,256.0,510.0,1.0,0.0
115,75.0,0.0,270.0,0.0,0.0
116,72.0,256.0,270.0,0.0,0.0
117,53.0,0.0,510.0,4.0,0.0
118,56.0,256.0,510.0,1.0,0.0
119,73.0,0.0,270.0,0.0,0.0
120,58.0,0.0,510.0,1.0,0.0
121,54.0,0.0,510.0,4.0,0.0
122,75.0,256.0,270.0,0.0,0.0
123,73.0,256.0,270.0,0.0,0.0
124,51.0,0.0,510.0,4.0,0.0
125,72.0,256.0,270.0,0.0,0.0
126,54.0,256.0,510.0,1.0,0.0
127,70.0,0.0,270.0,0.0,0.0
128,53.0,0.0,270.0,4.0,0.0
129,68.0,256.0,270.0,0.0,0.0
130,56.0,512.0,510.0,1.0,0.0
131,70.0,0.0,270.0,0.0,0.0
132,54.0,0.0,270.0,4.0,0.0
133,71.0,0.0,1020.0,0.0,0.0
134,56.0,0.0,510.0,4.0,0.0
135,66.0,256.0,270.0,1.0,0.0
136,49.0,256.0,2550.0,4.0,0.0
137,65.0,256.0,270.0,1.0,0.0
138,63.0,256.0,270.0,1.0,0.0
139,70.0,0.0,270.0,0.0,0.0
140,61.0,256.0,270.0,1.0,0.0
141,68.0,256.0,270.0,0.0,0.0
142,59.0,0.0,270.0,1.0,0.0
143,66.0,0.0,270.0,0.0,0.0
144,58.0,256.0,270.0,1.0,0.0
145,68.0,256.0,270.0,0.0,0.0
146,59.0,0.0,270.0,1.0,0.0
147,65.0,256.0,270.0,0.0,0.0
148,56.0,0.0,270.0,1.0,0.0
149,58.0,0.0,270.0,1.0,0.0
150,66.0,256.0,270.0,0.0,0.0
151,68.0,256.0,270.0,0.0,0.0
152,59.0,256.0,1530.0,1.0,0.0
153,66.0,0.0,270.0,0.0,0.0
154,65.0,256.0,270.0,0.0,0.0
155,51.0,0.0,510.0,4.0,0.0
156,63.0,512.0,270.0,0.0,0.0
157,53.0,256.0,1290.0,4.0,0.0
158,61.0,256.0,3840.0,0.0,0.0
159,58.0,256.0,270.0,1.0,0.0
160,56.0,256.0,270.0,1.0,0.0
161,58.0,256.0,780.0,1.0,0.0
162,53.0,256.0,270.0,4.0,0.0
163,58.0,256.0,270.0,1.0,0.0
164,56.0,0.0,1530.0,1.0,0.0
165,54.0,256.0,15.0,4.0,0.0
166,53.0,256.0,270.0,4.0,0.0
167,27.0,0.0,510.0,6.0,0.0
168,39.0,0.0,510.0,5.0,0.0
169,51.0,256.0,270.0,4.0,0.0
170,29.0,0.0,510.0,6.0,0.0
171,49.0,256.0,270.0,4.0,0.0
172,41.0,256.0,510.0,5.0,0.0
173,51.0,0.0,270.0,4.0,0.0
174,53.0,0.0,510.0,4.0,0.0
175,58.0,0.0,510.0,1.0,0.0
176,30.0,0.0,510.0,6.0,0.0
177,42.0,256.0,510.0,5.0,0.0
178,51.0,0.0,270.0,4.0,0.0
179,60.0,0.0,510.0,1.0,0.0
180,32.0,0.0,4110.0,6.0,0.0
181,44.0,256.0,4110.0,5.0,0.0
182,44.0,256.0,270.0,4.0,0.0
183,66.0,256.0,15.0,0.0,0.0
184,63.0,0.0,1020.0,1.0,0.0
185,48.0,256.0,270.0,4.0,0.0
186,51.0,256.0,270.0,4.0,0.0
187,66.0,0.0,270.0,0.0,0.0
188,65.0,0.0,1530.0,0.0,0.0
189,56.0,256.0,270.0,4.0,0.0
190,49.0,256.0,270.0,4.0,0.0
191,53.0,0.0,270.0,4.0,0.0
192,61.0,256.0,270.0,1.0,0.0
193,60.0,0.0,270.0,1.0,0.0
194,56.0,256.0,270.0,4.0,0.0
195,58.0,256.0,270.0,4.0,0.0
196,61.0,0.0,1530.0,1.0,0.0
197,55.0,256.0,270.0,4.0,0.0
198,51.0,256.0,270.0,4.0,0.0
199,70.0,0.0,510.0,0.0,0.0
200,55.0,256.0,270.0,4.0,0.0
201,63.0,256.0,510.0,0.0,0.0
202,48.0,256.0,270.0,4.0,0.0
203,58.0,0.0,270.0,4.0,0.0
204,60.0,0.0,510.0,1.0,0.0
205,56.0,256.0,270.0,4.0,0.0
206,54.0,0.0,270.0,4.0,0.0
207,46.0,256.0,2040.0,5.0,0.0
208,34.0,0.0,2040.0,6.0,0.0
209,61.0,256.0,2550.0,1.0,0.0
210,53.0,0.0,510.0,4.0,0.0
211,68.0,256.0,15.0,0.0,0.0
212,67.0,256.0,270.0,0.0,0.0
213,51.0,0.0,510.0,4.0,0.0
214,65.0,256.0,270.0,0.0,0.0
215,67.0,256.0,270.0,0.0,0.0
216,49.0,0.0,1020.0,4.0,0.0
217,68.0,256.0,270.0,0.0,0.0
218,65.0,256.0,270.0,0.0,0.0
219,67.0,0.0,270.0,0.0,0.0
220,44.0,0.0,1020.0,5.0,0.0
221,68.0,256.0,270.0,0.0,0.0
222,51.0,0.0,1020.0,4.0,0.0
223,32.0,0.0,1020.0,6.0,0.0
224,63.0,0.0,270.0,0.0,0.0
225,60.0,0.0,270.0,1.0,0.0
226,68.0,256.0,270.0,0.0,0.0
227,72.0,256.0,270.0,0.0,0.0
228,58.0,0.0,270.0,1.0,0.0
229,60.0,0.0,1020.0,1.0,0.0
230,42.0,0.0,1020.0,5.0,0.0
231,30.0,256.0,1020.0,6.0,0.0
232,75.0,256.0,270.0,0.0,0.0
233,68.0,256.0,270.0,0.0,0.0
234,56.0,0.0,1020.0,4.0,0.0
235,72.0,256.0,270.0,0.0,0.0
236,75.0,0.0,270.0,0.0,0.0
237,41.0,256.0,1020.0,5.0,0.0
238,61.0,256.0,510.0,1.0,0.0
239,29.0,0.0,1020.0,6.0,0.0
240,77.0,256.0,270.0,0.0,0.0
241,73.0,0.0,270.0,0.0,0.0
242,68.0,256.0,270.0,0.0,0.0
243,59.0,0.0,510.0,1.0,0.0
244,49.0,0.0,1020.0,4.0,0.0
245,73.0,0.0,270.0,0.0,0.0
246,58.0,256.0,1020.0,1.0,0.0
247,42.0,0.0,1020.0,5.0,0.0
248,30.0,0.0,1020.0,6.0,0.0
249,66.0,256.0,270.0,0.0,0.0
250,77.0,256.0,270.0,0.0,0.0
251,54.0,256.0,780.0,4.0,0.0
252,75.0,256.0,270.0,0.0,0.0
253,73.0,0.0,270.0,0.0,0.0
254,32.0,0.0,2040.0,6.0,0.0
255,56.0,256.0,1290.0,1.0,0.0
256,44.0,0.0,2040.0,5.0,0.0
257,72.0,0.0,510.0,0.0,0.0
258,54.0,256.0,270.0,4.0,0.0
259,68.0,256.0,510.0,0.0,0.0
260,53.0,256.0,270.0,4.0,0.0
261,51.0,0.0,270.0,4.0,0.0
262,73.0,0.0,510.0,0.0,0.0
263,53.0,256.0,1020.0,4.0,0.0
264,56.0,256.0,270.0,1.0,0.0
265,63.0,256.0,270.0,1.0,0.0
266,71.0,0.0,780.0,0.0,0.0
267,62.0,0.0,270.0,1.0,0.0
268,27.0,256.0,4110.0,6.0,0.0
269,55.0,256.0,270.0,4.0,0.0
270,39.0,0.0,4110.0,5.0,0.0
271,71.0,256.0,270.0,0.0,0.0
272,51.0,0.0,270.0,4.0,0.0
273,70.0,256.0,270.0,0.0,0.0
274,55.0,0.0,270.0,4.0,0.0
275,58.0,256.0,270.0,4.0,0.0
276,68.0,0.0,270.0,0.0,0.0
277,61.0,256.0,270.0,4.0,0.0
278,70.0,256.0,1530.0,0.0,0.0
279,55.0,256.0,270.0,4.0,0.0
280,58.0,256.0,270.0,4.0,0.0
281,61.0,256.0,270.0,4.0,0.0
282,60.0,0.0,510.0,4.0,0.0
283,63.0,256.0,15.0,1.0,0.0
284,59.0,0.0,510.0,4.0,0.0
285,68.0,256.0,780.0,0.0,0.0
286,62.0,256.0,270.0,1.0,0.0
287,58.0,0.0,1020.0,4.0,0.0
288,63.0,256.0,780.0,1.0,0.0
289,68.0,256.0,270.0,0.0,0.0
290,67.0,0.0,510.0,0.0,0.0
291,61.0,0.0,270.0,1.0,0.0
292,56.0,256.0,270.0,4.0,0.0
293,41.0,0.0,2040.0,5.0,0.0
294,60.0,0.0,510.0,1.0,0.0
295,68.0,256.0,510.0,0.0,0.0
296,29.0,0.0,2040.0,6.0,0.0
297,44.0,0.0,270.0,4.0,0.0
298,63.0,0.0,510.0,1.0,0.0
299,48.0,256.0,270.0,4.0,0.0
300,66.0,0.0,510.0,0.0,0.0
301,51.0,256.0,270.0,4.0,0.0
302,65.0,0.0,1020.0,0.0,0.0
303,56.0,256.0,270.0,4.0,0.0
304,49.0,256.0,270.0,4.0,0.0
305,53.0,256.0,270.0,4.0,0.0
306,56.0,256.0,270.0,4.0,0.0
307,31.0,0.0,2040.0,6.0,0.0
308,43.0,0.0,2040.0,5.0,0.0
309,63.0,0.0,3060.0,0.0,0.0
310,58.0,256.0,270.0,4.0,0.0
311,55.0,256.0,270.0,4.0,0.0
312,51.0,256.0,270.0,4.0,0.0
313,55.0,256.0,270.0,4.0,0.0
314,46.0,0.0,270.0,4.0,0.0
315,53.0,256.0,270.0,4.0,0.0
316,61.0,256.0,15.0,1.0,0.0
317,60.0,256.0,270.0,1.0,0.0
318,51.0,0.0,270.0,4.0,0.0
319,49.0,256.0,270.0,4.0,0.0
320,58.0,0.0,270.0,1.0,0.0
321,32.0,256.0,6150.0,6.0,0.0
322,44.0,0.0,6150.0,5.0,0.0
323,48.0,256.0,1020.0,4.0,0.0
324,60.0,256.0,270.0,1.0,0.0
325,51.0,256.0,270.0,1.0,0.0
326,56.0,256.0,270.0,1.0,0.0
327,60.0,0.0,270.0,1.0,0.0
328,63.0,256.0,270.0,1.0,0.0
329,56.0,256.0,270.0,1.0,0.0
330,60.0,256.0,270.0,1.0,0.0
331,51.0,256.0,1020.0,4.0,0.0
332,63.0,256.0,270.0,1.0,0.0
333,65.0,256.0,270.0,1.0,0.0
334,61.0,0.0,270.0,1.0,0.0
335,49.0,256.0,270.0,4.0,0.0
336,58.0,0.0,270.0,1.0,0.0
337,61.0,0.0,270.0,1.0,0.0
338,48.0,256.0,270.0,4.0,0.0
339,55.0,256.0,270.0,1.0,0.0
340,46.0,256.0,510.0,4.0,0.0
341,65.0,0.0,270.0,1.0,0.0
342,63.0,256.0,270.0,1.0,0.0
343,55.0,0.0,510.0,4.0,0.0
344,61.0,256.0,270.0,1.0,0.0
345,56.0,256.0,270.0,4.0,0.0
346,60.0,256.0,510.0,1.0,0.0
347,44.0,0.0,270.0,4.0,0.0
348,68.0,256.0,1020.0,1.0,0.0
349,48.0,256.0,270.0,4.0,0.0
350,51.0,256.0,270.0,4.0,0.0
351,56.0,256.0,270.0,4.0,0.0
352,48.0,0.0,270.0,4.0,0.0
353,51.0,0.0,270.0,4.0,0.0
354,67.0,256.0,270.0,1.0,0.0
355,56.0,0.0,270.0,4.0,0.0
356,65.0,0.0,270.0,1.0,0.0
357,63.0,256.0,270.0,1.0,0.0
358,60.0,0.0,270.0,4.0,0.0
359,56.0,256.0,270.0,4.0,0.0
360,65.0,0.0,270.0,1.0,0.0
361,61.0,0.0,270.0,1.0,0.0
362,53.0,256.0,270.0,4.0,0.0
363,63.0,256.0,270.0,1.0,0.0
364,56.0,0.0,270.0,4.0,0.0
365,49.0,256.0,270.0,4.0,0.0
366,65.0,0.0,270.0,1.0,0.0
367,63.0,0.0,270.0,1.0,0.0
368,60.0,256.0,270.0,4.0,0.0
369,61.0,256.0,270.0,1.0,0.0
370,58.0,0.0,270.0,4.0,0.0
371,56.0,256.0,270.0,4.0,0.0
372,60.0,0.0,270.0,1.0,0.0
373,58.0,0.0,270.0,1.0,0.0
374,55.0,256.0,270.0,4.0,0.0
375,56.0,0.0,270.0,4.0,0.0
376,60.0,256.0,270.0,1.0,0.0
377,61.0,0.0,1020.0,1.0,0.0
378,53.0,256.0,270.0,4.0,0.0
379,55.0,256.0,270.0,4.0,0.0
380,56.0,256.0,270.0,4.0,0.0
381,53.0,256.0,270.0,4.0,0.0
382,51.0,256.0,270.0,4.0,0.0
383,60.0,0.0,270.0,1.0,0.0
384,58.0,0.0,270.0,1.0,0.0
385,49.0,512.0,270.0,4.0,0.0
386,56.0,0.0,510.0,1.0,0.0
387,48.0,256.0,1020.0,4.0,0.0
388,63.0,256.0,270.0,0.0,0.0
389,51.0,0.0,510.0,1.0,0.0
390,68.0,256.0,270.0,0.0,0.0
391,72.0,0.0,270.0,0.0,0.0
392,56.0,256.0,1530.0,1.0,0.0
393,75.0,256.0,270.0,0.0,0.0
394,68.0,256.0,270.0,0.0,0.0
395,48.0,0.0,510.0,4.0,0.0
396,72.0,256.0,270.0,0.0,0.0
397,75.0,256.0,270.0,0.0,0.0
398,44.0,0.0,4110.0,5.0,0.0
399,32.0,0.0,4110.0,6.0,0.0
400,49.0,256.0,1020.0,4.0,0.0
401,77.0,256.0,270.0,0.0,0.0
402,73.0,0.0,270.0,0.0,0.0
403,53.0,0.0,510.0,1.0,0.0
404,70.0,256.0,270.0,0.0,0.0
405,73.0,0.0,270.0,0.0,0.0
406,67.0,256.0,270.0,0.0,0.0
407,58.0,256.0,1290.0,1.0,0.0
408,77.0,256.0,270.0,0.0,0.0
409,75.0,256.0,270.0,0.0,0.0
410,49.0,256.0,510.0,4.0,0.0
411,73.0,0.0,270.0,0.0,0.0
412,72.0,0.0,510.0,0.0,0.0
413,51.0,256.0,510.0,4.0,0.0
414,56.0,0.0,270.0,1.0,0.0
415,68.0,0.0,270.0,0.0,0.0
416,60.0,256.0,270.0,1.0,0.0
417,63.0,256.0,270.0,1.0,0.0
418,72.0,0.0,270.0,0.0,0.0
419,77.0,256.0,1530.0,0.0,0.0
420,68.0,256.0,270.0,1.0,0.0
421,65.0,256.0,270.0,1.0,0.0
422,68.0,256.0,270.0,1.0,0.0
423,60.0,256.0,510.0,4.0,0.0
424,72.0,0.0,270.0,1.0,0.0
425,46.0,0.0,2040.0,5.0,0.0
426,34.0,0.0,2040.0,6.0,0.0
427,58.0,256.0,1020.0,4.0,0.0
428,73.0,256.0,270.0,1.0,0.0
429,70.0,0.0,270.0,1.0,0.0
430,75.0,0.0,270.0,0.0,0.0
431,67.0,256.0,270.0,1.0,0.0
432,73.0,0.0,270.0,0.0,0.0
433,70.0,0.0,270.0,1.0,0.0
434,79.0,256.0,1020.0,0.0,0.0
435,61.0,256.0,270.0,1.0,0.0
436,77.0,256.0,270.0,1.0,0.0
437,75.0,256.0,270.0,1.0,0.0
438,61.0,0.0,510.0,4.0,0.0
439,73.0,0.0,270.0,1.0,0.0
440,72.0,256.0,1020.0,1.0,0.0
441,32.0,0.0,2040.0,6.0,0.0
442,63.0,256.0,270.0,4.0,0.0
443,44.0,0.0,2040.0,5.0,0.0
444,80.0,256.0,510.0,0.0,0.0
445,51.0,0.0,270.0,4.0,0.0
446,56.0,256.0,270.0,4.0,0.0
447,75.0,0.0,510.0,0.0,0.0
448,60.0,0.0,270.0,4.0,0.0
449,63.0,256.0,270.0,4.0,0.0
450,78.0,0.0,510.0,0.0,0.0
451,56.0,256.0,270.0,4.0,0.0
452,77.0,256.0,1020.0,0.0,0.0
453,71.0,256.0,510.0,1.0,0.0
454,62.0,256.0,270.0,4.0,0.0
455,65.0,0.0,270.0,4.0,0.0
456,39.0,0.0,1020.0,5.0,0.0
457,27.0,0.0,1020.0,6.0,0.0
458,66.0,256.0,270.0,4.0,0.0
459,70.0,0.0,510.0,1.0,0.0
460,63.0,0.0,270.0,4.0,0.0
461,60.0,256.0,270.0,4.0,0.0
462,75.0,256.0,1020.0,0.0,0.0
463,72.0,256.0,780.0,1.0,0.0
464,63.0,256.0,270.0,4.0,0.0
465,29.0,0.0,1020.0,6.0,0.0
466,56.0,256.0,1530.0,4.0,0.0
467,41.0,256.0,1020.0,5.0,0.0
468,68.0,0.0,270.0,1.0,0.0
469,65.0,0.0,270.0,1.0,0.0
470,73.0,256.0,270.0,0.0,0.0
471,68.0,0.0,270.0,1.0,0.0
472,71.0,0.0,270.0,0.0,0.0
473,30.0,256.0,2040.0,6.0,0.0
474,42.0,0.0,2040.0,5.0,0.0
475,70.0,256.0,270.0,0.0,0.0
476,61.0,0.0,1020.0,1.0,0.0
477,65.0,0.0,270.0,0.0,0.0
478,58.0,256.0,270.0,4.0,0.0
479,66.0,0.0,270.0,0.0,0.0
480,70.0,512.0,270.0,0.0,0.0
481,56.0,0.0,270.0,4.0,0.0
482,75.0,256.0,1290.0,0.0,0.0
483,54.0,256.0,1530.0,4.0,0.0
484,58.0,256.0,270.0,1.0,0.0
485,63.0,256.0,270.0,1.0,0.0
486,66.0,0.0,270.0,1.0,0.0
487,41.0,0.0,2040.0,5.0,0.0
488,29.0,256.0,2040.0,6.0,0.0
489,68.0,0.0,2040.0,1.0,0.0
490,63.0,0.0,270.0,0.0,0.0
491,56.0,0.0,270.0,4.0,0.0
492,65.0,256.0,270.0,0.0,0.0
493,68.0,256.0,270.0,0.0,0.0
494,54.0,0.0,270.0,4.0,0.0
495,73.0,256.0,1530.0,0.0,0.0
496,53.0,256.0,270.0,4.0,0.0
497,44.0,256.0,270.0,4.0,0.0
498,49.0,256.0,270.0,4.0,0.0
499,53.0,0.0,270.0,4.0,0.0
500,54.0,256.0,270.0,4.0,0.0
501,66.0,0.0,2040.0,1.0,0.0
502,39.0,0.0,2040.0,5.0,0.0
503,27.0,0.0,2040.0,6.0,0.0
504,51.0,0.0,270.0,4.0,0.0
505,54.0,256.0,270.0,4.0,0.0
506,71.0,0.0,270.0,0.0,0.0
507,70.0,256.0,270.0,0.0,0.0
508,58.0,0.0,270.0,4.0,0.0
509,63.0,256.0,270.0,4.0,0.0
510,71.0,256.0,1530.0,0.0,0.0
511,59.0,256.0,270.0,4.0,0.0
512,58.0,256.0,270.0,4.0,0.0
513,59.0,256.0,270.0,4.0,0.0
514,53.0,256.0,270.0,4.0,0.0
515,68.0,0.0,1530.0,1.0,0.0
516,25.0,0.0,8190.0,6.0,0.0
517,37.0,256.0,8190.0,5.0,0.0
518,63.0,0.0,270.0,4.0,0.0
519,61.0,256.0,270.0,4.0,0.0
520,70.0,0.0,270.0,0.0,0.0
521,68.0,256.0,270.0,0.0,0.0
522,59.0,0.0,270.0,4.0,0.0
523,58.0,256.0,270.0,4.0,0.0
524,70.0,256.0,1020.0,0.0,0.0
525,56.0,256.0,270.0,4.0,0.0
526,66.0,256.0,780.0,1.0,0.0
527,58.0,256.0,270.0,4.0,0.0
528,60.0,0.0,270.0,4.0,0.0
529,61.0,256.0,780.0,4.0,0.0
530,68.0,256.0,1530.0,0.0,0.0
531,63.0,256.0,270.0,1.0,0.0
532,65.0,256.0,780.0,1.0,0.0
533,59.0,256.0,270.0,4.0,0.0
534,58.0,0.0,510.0,4.0,0.0
535,61.0,256.0,510.0,1.0,0.0
536,66.0,256.0,1020.0,0.0,0.0
537,57.0,0.0,510.0,4.0,0.0
538,60.0,256.0,270.0,1.0,0.0
539,61.0,0.0,2550.0,1.0,0.0
540,56.0,256.0,270.0,4.0,0.0
541,44.0,0.0,270.0,4.0,0.0
542,49.0,0.0,270.0,4.0,0.0
543,65.0,256.0,270.0,0.0,0.0
544,63.0,256.0,270.0,0.0,0.0
545,53.0,0.0,270.0,4.0,0.0
546,65.0,256.0,510.0,0.0,0.0
547,56.0,256.0,270.0,4.0,0.0
548,49.0,0.0,270.0,4.0,0.0
549,68.0,256.0,1020.0,0.0,0.0
550,53.0,256.0,270.0,4.0,0.0
551,56.0,256.0,270.0,4.0,0.0
552,58.0,256.0,270.0,4.0,0.0
553,54.0,0.0,270.0,4.0,0.0
554,51.0,256.0,270.0,4.0,0.0
555,66.0,0.0,270.0,0.0,0.0
556,54.0,256.0,270.0,4.0,0.0
557,65.0,0.0,270.0,0.0,0.0
558,63.0,0.0,270.0,0.0,0.0
559,44.0,256.0,270.0,4.0,0.0
560,58.0,0.0,270.0,4.0,0.0
561,65.0,256.0,270.0,0.0,0.0
562,66.0,0.0,1020.0,0.0,0.0
563,63.0,0.0,1020.0,1.0,0.0
564,56.0,256.0,270.0,4.0,0.0
565,54.0,0.0,270.0,4.0,0.0
566,53.0,256.0,270.0,4.0,0.0
567,51.0,256.0,270.0,4.0,0.0
568,61.0,0.0,1020.0,1.0,0.0
569,65.0,256.0,510.0,0.0,0.0
570,53.0,256.0,270.0,4.0,0.0
571,55.0,0.0,270.0,4.0,0.0
572,56.0,256.0,270.0,4.0,0.0
573,63.0,256.0,780.0,0.0,0.0
574,51.0,256.0,270.0,4.0,0.0
575,60.0,0.0,510.0,1.0,0.0
576,65.0,256.0,270.0,0.0,0.0
577,58.0,0.0,2040.0,1.0,0.0
578,61.0,256.0,1290.0,0.0,0.0
579,56.0,256.0,15.0,4.0,0.0
580,54.0,256.0,270.0,4.0,0.0
581,53.0,256.0,270.0,4.0,0.0
582,54.0,0.0,1020.0,4.0,0.0
583,65.0,256.0,270.0,0.0,0.0
584,63.0,256.0,270.0,0.0,0.0
585,61.0,256.0,270.0,0.0,0.0
586,56.0,0.0,1020.0,1.0,0.0
587,60.0,256.0,270.0,0.0,0.0
588,56.0,256.0,510.0,4.0,0.0
589,63.0,0.0,270.0,0.0,0.0
590,68.0,256.0,270.0,0.0,0.0
591,60.0,0.0,270.0,4.0,0.0
592,58.0,0.0,270.0,4.0,0.0
593,72.0,256.0,270.0,0.0,0.0
594,75.0,256.0,270.0,0.0,0.0
595,60.0,256.0,510.0,4.0,0.0
596,68.0,0.0,270.0,0.0,0.0
597,72.0,256.0,270.0,0.0,0.0
598,63.0,256.0,510.0,1.0,0.0
599,56.0,256.0,1020.0,4.0,0.0
600,75.0,0.0,270.0,0.0,0.0
601,61.0,0.0,1020.0,1.0,0.0
602,77.0,256.0,270.0,0.0,0.0
603,73.0,0.0,270.0,0.0,0.0
604,55.0,0.0,270.0,4.0,0.0
605,70.0,256.0,270.0,0.0,0.0
606,56.0,0.0,270.0,4.0,0.0
607,73.0,256.0,270.0,0.0,0.0
608,58.0,256.0,510.0,4.0,0.0
609,67.0,256.0,270.0,0.0,0.0
610,77.0,0.0,270.0,0.0,0.0
611,75.0,256.0,270.0,0.0,0.0
612,51.0,0.0,510.0,4.0,0.0
613,55.0,0.0,510.0,1.0,0.0
614,73.0,256.0,270.0,0.0,0.0
615,56.0,256.0,270.0,1.0,0.0
616,72.0,0.0,510.0,0.0,0.0
617,56.0,0.0,510.0,4.0,0.0
618,60.0,256.0,270.0,1.0,0.0
619,74.0,0.0,510.0,0.0,0.0
620,53.0,256.0,510.0,4.0,0.0
621,65.0,256.0,270.0,1.0,0.0
622,68.0,0.0,270.0,1.0,0.0
623,75.0,256.0,1530.0,0.0,0.0
624,70.0,256.0,270.0,1.0,0.0
625,54.0,256.0,510.0,4.0,0.0
626,63.0,0.0,270.0,1.0,0.0
627,66.0,256.0,270.0,1.0,0.0
628,51.0,0.0,510.0,4.0,0.0
629,70.0,256.0,270.0,1.0,0.0
630,56.0,0.0,510.0,4.0,0.0
631,71.0,256.0,270.0,1.0,0.0
632,68.0,0.0,270.0,1.0,0.0
633,65.0,256.0,270.0,1.0,0.0
634,59.0,0.0,510.0,4.0,0.0
635,74.0,0.0,270.0,0.0,0.0
636,75.0,0.0,270.0,0.0,0.0
637,68.0,256.0,270.0,1.0,0.0
638,62.0,256.0,270.0,1.0,0.0
639,77.0,256.0,1530.0,0.0,0.0
640,58.0,0.0,510.0,4.0,0.0
641,71.0,256.0,270.0,1.0,0.0
642,70.0,256.0,270.0,1.0,0.0
643,62.0,0.0,510.0,4.0,0.0
644,68.0,256.0,270.0,1.0,0.0
645,66.0,256.0,1020.0,1.0,0.0
646,63.0,256.0,270.0,4.0,0.0
647,51.0,0.0,270.0,4.0,0.0
648,54.0,256.0,270.0,4.0,0.0
649,75.0,256.0,1020.0,0.0,0.0
650,58.0,0.0,270.0,4.0,0.0
651,61.0,256.0,270.0,4.0,0.0
652,65.0,0.0,510.0,1.0,0.0
653,58.0,0.0,270.0,4.0,0.0
654,61.0,256.0,270.0,4.0,0.0
655,70.0,0.0,1020.0,1.0,0.0
656,73.0,0.0,510.0,0.0,0.0
657,65.0,256.0,270.0,4.0,0.0
658,72.0,0.0,270.0,0.0,0.0
659,66.0,256.0,270.0,4.0,0.0
660,73.0,256.0,270.0,0.0,0.0
661,63.0,0.0,270.0,4.0,0.0
662,60.0,0.0,270.0,4.0,0.0
663,69.0,256.0,270.0,1.0,0.0
664,75.0,0.0,2040.0,0.0,0.0
665,63.0,0.0,270.0,4.0,0.0
666,70.0,256.0,270.0,1.0,0.0
667,72.0,256.0,1530.0,1.0,0.0
668,57.0,256.0,270.0,4.0,0.0
669,66.0,256.0,270.0,4.0,0.0
670,65.0,256.0,270.0,4.0,0.0
671,63.0,256.0,270.0,4.0,0.0
672,61.0,256.0,270.0,4.0,0.0
673,58.0,0.0,270.0,4.0,0.0
674,61.0,256.0,270.0,4.0,0.0
675,73.0,0.0,510.0,0.0,0.0
676,70.0,256.0,510.0,1.0,0.0
677,65.0,0.0,270.0,4.0,0.0
678,55.0,256.0,270.0,4.0,0.0
679,65.0,256.0,270.0,4.0,0.0
680,70.0,0.0,510.0,1.0,0.0
681,63.0,256.0,270.0,4.0,0.0
682,61.0,256.0,270.0,4.0,0.0
683,73.0,0.0,15.0,0.0,0.0
684,60.0,256.0,270.0,4.0,0.0
685,70.0,256.0,510.0,1.0,0.0
686,56.0,0.0,270.0,4.0,0.0
687,72.0,0.0,510.0,0.0,0.0
688,60.0,256.0,270.0,4.0,0.0
689,68.0,0.0,510.0,1.0,0.0
690,63.0,256.0,270.0,4.0,0.0
691,53.0,256.0,270.0,4.0,0.0
692,63.0,256.0,270.0,4.0,0.0
693,61.0,256.0,270.0,4.0,0.0
694,60.0,256.0,270.0,4.0,0.0
695,72.0,0.0,15.0,0.0,0.0
696,68.0,0.0,15.0,1.0,0.0
697,58.0,256.0,270.0,4.0,0.0
698,55.0,256.0,270.0,4.0,0.0
699,58.0,256.0,270.0,4.0,0.0
700,67.0,0.0,510.0,1.0,0.0
701,70.0,0.0,510.0,0.0,0.0
702,61.0,256.0,270.0,4.0,0.0
703,52.0,256.0,270.0,4.0,0.0
704,61.0,256.0,270.0,4.0,0.0
705,60.0,256.0,270.0,4.0,0.0
706,58.0,0.0,270.0,4.0,0.0
707,70.0,256.0,15.0,0.0,0.0
708,56.0,256.0,270.0,4.0,0.0
709,67.0,0.0,15.0,1.0,0.0
710,53.0,256.0,270.0,4.0,0.0
711,68.0,256.0,780.0,0.0,0.0
712,65.0,256.0,510.0,1.0,0.0
713,56.0,256.0,270.0,4.0,0.0
714,60.0,0.0,270.0,4.0,0.0
715,49.0,0.0,510.0,4.0,0.0
716,70.0,256.0,270.0,0.0,0.0
717,73.0,256.0,270.0,0.0,0.0
718,61.0,0.0,1020.0,4.0,0.0
719,65.0,0.0,510.0,1.0,0.0
720,77.0,256.0,270.0,0.0,0.0
721,63.0,0.0,1020.0,1.0,0.0
722,67.0,256.0,270.0,0.0,0.0
723,70.0,256.0,270.0,0.0,0.0
724,60.0,256.0,270.0,4.0,0.0
725,75.0,256.0,780.0,0.0,0.0
726,58.0,256.0,270.0,4.0,0.0
727,60.0,256.0,1530.0,4.0,0.0
728,72.0,256.0,270.0,0.0,0.0
729,63.0,0.0,510.0,1.0,0.0
730,68.0,256.0,270.0,0.0,0.0
731,72.0,256.0,270.0,0.0,0.0
732,65.0,256.0,270.0,0.0,0.0
733,61.0,0.0,1020.0,1.0,0.0
734,75.0,0.0,270.0,0.0,0.0
735,58.0,0.0,270.0,4.0,0.0
736,73.0,256.0,270.0,0.0,0.0
737,56.0,256.0,270.0,4.0,0.0
738,72.0,0.0,270.0,0.0,0.0
739,73.0,256.0,270.0,0.0,0.0
740,58.0,0.0,510.0,4.0,0.0
741,68.0,256.0,270.0,0.0,0.0
742,51.0,256.0,510.0,4.0,0.0
743,67.0,256.0,270.0,0.0,0.0
744,73.0,0.0,270.0,0.0,0.0
745,72.0,256.0,270.0,0.0,0.0
746,56.0,0.0,510.0,4.0,0.0
747,75.0,256.0,270.0,0.0,0.0
748,44.0,256.0,510.0,4.0,0.0
749,72.0,256.0,270.0,0.0,0.0
750,68.0,0.0,270.0,0.0,0.0
751,56.0,0.0,1530.0,4.0,0.0
752,65.0,256.0,270.0,0.0,0.0
753,72.0,256.0,270.0,0.0,0.0
754,68.0,256.0,270.0,0.0,0.0
755,65.0,256.0,270.0,0.0,0.0
756,61.0,256.0,270.0,0.0,0.0
757,65.0,256.0,270.0,0.0,0.0
758,54.0,0.0,270.0,4.0,0.0
759,70.0,256.0,270.0,0.0,0.0
760,53.0,256.0,270.0,4.0,0.0
761,68.0,0.0,270.0,0.0,0.0
762,70.0,256.0,270.0,0.0,0.0
763,54.0,0.0,1530.0,4.0,0.0
764,66.0,256.0,270.0,0.0,0.0
765,63.0,256.0,270.0,0.0,0.0
766,66.0,512.0,270.0,0.0,0.0
767,60.0,256.0,510.0,0.0,0.0
768,56.0,0.0,270.0,1.0,0.0
769,60.0,256.0,270.0,1.0,0.0
770,53.0,0.0,270.0,4.0,0.0
771,51.0,0.0,270.0,4.0,0.0
772,63.0,256.0,270.0,1.0,0.0
773,53.0,0.0,510.0,4.0,0.0
774,68.0,256.0,270.0,1.0,0.0
775,61.0,256.0,270.0,1.0,0.0
776,73.0,0.0,510.0,0.0,0.0
777,49.0,0.0,510.0,4.0,0.0
778,65.0,256.0,270.0,1.0,0.0
779,68.0,256.0,270.0,1.0,0.0
780,70.0,256.0,510.0,0.0,0.0
781,70.0,256.0,270.0,1.0,0.0
782,54.0,256.0,1020.0,4.0,0.0
783,66.0,0.0,270.0,1.0,0.0
784,78.0,0.0,1020.0,0.0,0.0
785,63.0,256.0,270.0,1.0,0.0
786,66.0,0.0,270.0,1.0,0.0
787,60.0,256.0,270.0,1.0,0.0
788,56.0,0.0,1530.0,4.0,0.0
789,70.0,256.0,270.0,1.0,0.0
790,77.0,0.0,270.0,0.0,0.0
791,68.0,256.0,270.0,1.0,0.0
792,66.0,256.0,270.0,1.0,0.0
793,75.0,0.0,270.0,0.0,0.0
794,25.0,0.0,4110.0,6.0,0.0
795,73.0,256.0,270.0,0.0,0.0
796,37.0,0.0,4110.0,5.0,0.0
797,65.0,256.0,510.0,1.0,0.0
798,75.0,0.0,270.0,0.0,0.0
799,72.0,0.0,270.0,0.0,0.0
800,54.0,256.0,270.0,4.0,0.0
801,63.0,0.0,270.0,1.0,0.0
802,73.0,256.0,270.0,0.0,0.0
803,53.0,0.0,270.0,4.0,0.0
804,61.0,0.0,270.0,1.0,0.0
805,60.0,256.0,510.0,1.0,0.0
806,54.0,0.0,1530.0,4.0,0.0
807,75.0,256.0,270.0,0.0,0.0
808,73.0,0.0,270.0,0.0,0.0
809,56.0,0.0,510.0,1.0,0.0
810,72.0,256.0,270.0,0.0,0.0
811,70.0,256.0,270.0,0.0,0.0
812,68.0,256.0,270.0,0.0,0.0
813,61.0,256.0,1290.0,1.0,0.0
814,70.0,256.0,270.0,0.0,0.0
815,71.0,0.0,1020.0,0.0,0.0
816,53.0,256.0,270.0,4.0,0.0
817,51.0,256.0,270.0,4.0,0.0
818,53.0,0.0,1530.0,4.0,0.0
819,63.0,256.0,270.0,1.0,0.0
820,70.0,256.0,270.0,0.0,0.0
821,61.0,0.0,270.0,1.0,0.0
822,59.0,0.0,270.0,1.0,0.0
823,68.0,256.0,270.0,0.0,0.0
824,27.0,0.0,1020.0,6.0,0.0
825,39.0,0.0,1020.0,5.0,0.0
826,58.0,256.0,510.0,1.0,0.0
827,66.0,256.0,270.0,0.0,0.0
828,68.0,0.0,270.0,0.0,0.0
829,59.0,256.0,1020.0,1.0,0.0
830,51.0,0.0,1020.0,4.0,0.0
831,65.0,256.0,270.0,0.0,0.0
832,66.0,256.0,270.0,0.0,0.0
833,68.0,256.0,270.0,0.0,0.0
834,41.0,256.0,1020.0,5.0,0.0
835,29.0,0.0,1020.0,6.0,0.0
836,66.0,0.0,270.0,0.0,0.0
837,65.0,256.0,270.0,0.0,0.0
838,49.0,256.0,780.0,4.0,0.0
839,61.0,0.0,270.0,1.0,0.0
840,59.0,0.0,270.0,1.0,0.0
841,63.0,0.0,270.0,0.0,0.0
842,30.0,0.0,2040.0,6.0,0.0
843,42.0,0.0,2040.0,5.0,0.0
844,61.0,0.0,510.0,0.0,0.0
845,58.0,0.0,510.0,1.0,0.0
846,51.0,256.0,270.0,4.0,0.0
847,63.0,0.0,510.0,1.0,0.0
848,66.0,0.0,510.0,0.0,0.0
849,48.0,256.0,270.0,4.0,0.0
850,49.0,256.0,270.0,4.0,0.0
851,51.0,256.0,270.0,4.0,0.0
852,60.0,256.0,510.0,0.0,0.0
853,56.0,256.0,1290.0,1.0,0.0
854,49.0,0.0,270.0,4.0,0.0
855,63.0,0.0,510.0,0.0,0.0
856,48.0,256.0,270.0,4.0,0.0
857,46.0,256.0,270.0,4.0,0.0
858,41.0,0.0,1020.0,5.0,0.0
859,61.0,0.0,510.0,0.0,0.0
860,29.0,256.0,1020.0,6.0,0.0
861,44.0,256.0,510.0,4.0,0.0
862,58.0,0.0,270.0,1.0,0.0
863,65.0,256.0,1020.0,0.0,0.0
864,49.0,0.0,1020.0,4.0,0.0
865,54.0,256.0,270.0,1.0,0.0
866,56.0,0.0,270.0,1.0,0.0
867,58.0,256.0,270.0,1.0,0.0
868,30.0,0.0,1020.0,6.0,0.0
869,42.0,0.0,1020.0,5.0,0.0
870,56.0,0.0,270.0,1.0,0.0
871,46.0,256.0,510.0,4.0,0.0
872,54.0,0.0,270.0,1.0,0.0
873,63.0,256.0,270.0,0.0,0.0
874,61.0,0.0,270.0,0.0,0.0
875,53.0,0.0,270.0,1.0,0.0
876,32.0,0.0,4110.0,6.0,0.0
877,44.0,0.0,4110.0,5.0,0.0
878,48.0,256.0,1020.0,4.0,0.0
879,60.0,256.0,270.0,0.0,0.0
880,51.0,0.0,1020.0,1.0,0.0
881,56.0,256.0,270.0,0.0,0.0
882,60.0,256.0,270.0,0.0,0.0
883,63.0,0.0,270.0,0.0,0.0
884,68.0,256.0,270.0,0.0,0.0
885,44.0,256.0,270.0,4.0,0.0
886,63.0,0.0,270.0,0.0,0.0
887,48.0,0.0,270.0,4.0,0.0
888,68.0,256.0,270.0,0.0,0.0
889,70.0,0.0,270.0,0.0,0.0
890,51.0,256.0,270.0,4.0,0.0
891,71.0,256.0,270.0,0.0,0.0
892,56.0,0.0,1020.0,4.0,0.0
893,68.0,256.0,270.0,0.0,0.0
894,65.0,256.0,270.0,0.0,0.0
895,59.0,256.0,510.0,1.0,0.0
896,68.0,0.0,270.0,0.0,0.0
897,53.0,0.0,510.0,4.0,0.0
898,62.0,256.0,270.0,0.0,0.0
899,56.0,256.0,510.0,1.0,0.0
900,71.0,0.0,270.0,0.0,0.0
901,50.0,0.0,510.0,4.0,0.0
902,70.0,256.0,270.0,0.0,0.0
903,53.0,256.0,510.0,1.0,0.0
904,68.0,0.0,270.0,0.0,0.0
905,51.0,0.0,510.0,4.0,0.0
906,27.0,512.0,2040.0,6.0,0.0
907,58.0,0.0,510.0,1.0,0.0
908,67.0,256.0,270.0,0.0,0.0
909,39.0,0.0,2040.0,5.0,0.0
910,63.0,256.0,270.0,0.0,0.0
911,63.0,256.0,1020.0,1.0,0.0
912,67.0,256.0,270.0,0.0,0.0
913,58.0,256.0,780.0,4.0,0.0
914,70.0,256.0,270.0,0.0,0.0
915,72.0,256.0,1530.0,0.0,0.0
916,55.0,0.0,270.0,4.0,0.0
917,56.0,256.0,270.0,4.0,0.0
918,60.0,0.0,270.0,4.0,0.0
919,37.0,256.0,1020.0,5.0,0.0
920,25.0,0.0,1020.0,6.0,0.0
921,65.0,0.0,510.0,4.0,0.0
922,53.0,0.0,270.0,1.0,0.0
923,58.0,256.0,270.0,1.0,0.0
924,70.0,256.0,1020.0,0.0,0.0
925,61.0,0.0,270.0,1.0,0.0
926,24.0,256.0,1020.0,6.0,0.0
927,63.0,256.0,270.0,1.0,0.0
928,36.0,0.0,1020.0,5.0,0.0
929,56.0,0.0,270.0,1.0,0.0
930,60.0,256.0,270.0,1.0,0.0
931,68.0,256.0,780.0,0.0,0.0
932,63.0,0.0,270.0,1.0,0.0
933,65.0,0.0,270.0,1.0,0.0
934,34.0,0.0,2040.0,5.0,0.0
935,22.0,0.0,2040.0,6.0,0.0
936,61.0,256.0,270.0,1.0,0.0
937,65.0,0.0,270.0,0.0,0.0
938,58.0,256.0,270.0,1.0,0.0
939,67.0,0.0,270.0,0.0,0.0
940,61.0,256.0,270.0,1.0,0.0
941,70.0,0.0,270.0,0.0,0.0
942,73.0,0.0,510.0,0.0,0.0
943,55.0,256.0,270.0,1.0,0.0
944,65.0,256.0,270.0,1.0,0.0
945,63.0,256.0,270.0,1.0,0.0
946,67.0,256.0,510.0,0.0,0.0
947,61.0,0.0,270.0,1.0,0.0
948,20.0,256.0,8190.0,6.0,0.0
949,68.0,256.0,1020.0,0.0,0.0
950,60.0,256.0,270.0,1.0,0.0
951,32.0,0.0,8190.0,5.0,0.0
952,61.0,256.0,270.0,1.0,0.0
953,58.0,256.0,270.0,1.0,0.0
954,56.0,256.0,1020.0,4.0,0.0
955,60.0,0.0,270.0,1.0,0.0
956,70.0,256.0,1020.0,0.0,0.0
957,61.0,256.0,270.0,1.0,0.0
958,63.0,0.0,270.0,1.0,0.0
959,60.0,0.0,270.0,1.0,0.0
960,55.0,256.0,270.0,4.0,0.0
961,61.0,0.0,270.0,1.0,0.0
962,53.0,0.0,270.0,4.0,0.0
963,63.0,256.0,510.0,1.0,0.0
964,51.0,0.0,270.0,4.0,0.0
965,72.0,256.0,270.0,0.0,0.0
966,68.0,0.0,270.0,0.0,0.0
967,53.0,0.0,270.0,4.0,0.0
968,65.0,256.0,270.0,0.0,0.0
969,49.0,0.0,270.0,4.0,0.0
970,51.0,0.0,270.0,4.0,0.0
971,68.0,256.0,270.0,0.0,0.0
972,53.0,256.0,270.0,4.0,0.0
973,61.0,0.0,270.0,0.0,0.0
974,51.0,256.0,270.0,4.0,0.0
975,72.0,0.0,270.0,0.0,0.0
976,49.0,0.0,270.0,4.0,0.0
977,70.0,256.0,270.0,0.0,0.0
978,48.0,256.0,270.0,4.0,0.0
979,68.0,0.0,270.0,0.0,0.0
980,46.0,256.0,270.0,4.0,0.0
981,67.0,0.0,270.0,0.0,0.0
982,48.0,0.0,270.0,4.0,0.0
983,68.0,256.0,270.0,0.0,0.0
984,65.0,256.0,270.0,0.0,0.0
985,49.0,0.0,1020.0,4.0,0.0
986,67.0,256.0,270.0,0.0,0.0
987,68.0,256.0,270.0,0.0,0.0
988,65.0,256.0,270.0,0.0,0.0
989,63.0,0.0,270.0,0.0,0.0
990,48.0,256.0,270.0,4.0,0.0
991,61.0,0.0,270.0,0.0,0.0
992,46.0,512.0,270.0,4.0,0.0
993,60.0,256.0,510.0,0.0,0.0
994,44.0,0.0,510.0,4.0,0.0
995,63.0,0.0,270.0,1.0,0.0
996,48.0,0.0,510.0,4.0,0.0
997,60.0,256.0,270.0,1.0,0.0
998,68.0,0.0,1020.0,0.0,0.0
999,56.0,256.0,270.0,1.0,0.0
1000,49.0,256.0,510.0,4.0,0.0
1001,58.0,256.0,270.0,1.0,0.0
1002,60.0,0.0,270.0,1.0,0.0
1003,61.0,0.0,510.0,1.0,0.0
1004,51.0,0.0,510.0,4.0,0.0
1005,67.0,256.0,270.0,0.0,0.0
1006,65.0,0.0,270.0,0.0,0.0
1007,63.0,0.0,270.0,0.0,0.0
1008,44.0,0.0,510.0,4.0,0.0
1009,60.0,256.0,270.0,1.0,0.0
1010,65.0,0.0,270.0,0.0,0.0
1011,56.0,256.0,270.0,1.0,0.0
1012,53.0,0.0,270.0,1.0,0.0
1013,61.0,256.0,270.0,0.0,0.0
1014,56.0,256.0,270.0,1.0,0.0
1015,63.0,0.0,270.0,0.0,0.0
1016,65.0,0.0,270.0,0.0,0.0
1017,49.0,256.0,270.0,1.0,0.0
1018,63.0,256.0,270.0,0.0,0.0
1019,60.0,0.0,270.0,1.0,0.0
1020,58.0,0.0,270.0,1.0,0.0
1021,61.0,256.0,270.0,0.0,0.0
1022,60.0,0.0,270.0,0.0,0.0
1023,56.0,256.0,270.0,1.0,0.0
1024,55.0,256.0,270.0,1.0,0.0
1025,58.0,0.0,270.0,0.0,0.0
1026,60.0,0.0,270.0,0.0,0.0
1027,56.0,256.0,270.0,1.0,0.0
1028,53.0,256.0,270.0,1.0,0.0
1029,61.0,0.0,1020.0,0.0,0.0
1030,55.0,256.0,270.0,1.0,0.0
1031,56.0,256.0,270.0,1.0,0.0
1032,53.0,256.0,270.0,1.0,0.0
1033,60.0,256.0,270.0,0.0,0.0
1034,51.0,0.0,270.0,1.0,0.0
1035,49.0,0.0,270.0,1.0,0.0
1036,58.0,256.0,270.0,0.0,0.0
1037,20.0,0.0,4110.0,6.0,0.0
1038,32.0,0.0,4110.0,5.0,0.0
1039,51.0,0.0,1020.0,1.0,0.0
1040,60.0,256.0,270.0,0.0,0.0
1041,56.0,256.0,270.0,0.0,0.0
1042,54.0,256.0,510.0,4.0,0.0
1043,60.0,256.0,270.0,0.0,0.0
1044,63.0,0.0,270.0,0.0,0.0
1045,68.0,256.0,270.0,0.0,0.0
1046,53.0,0.0,1530.0,4.0,0.0
1047,61.0,256.0,270.0,0.0,0.0
1048,56.0,256.0,510.0,1.0,0.0
1049,65.0,256.0,270.0,0.0,0.0
1050,68.0,0.0,270.0,0.0,0.0
1051,70.0,256.0,270.0,0.0,0.0
1052,54.0,0.0,510.0,1.0,0.0
1053,66.0,256.0,270.0,0.0,0.0
1054,63.0,0.0,270.0,0.0,0.0
1055,58.0,256.0,510.0,1.0,0.0
1056,54.0,256.0,270.0,4.0,0.0
1057,66.0,0.0,270.0,0.0,0.0
1058,53.0,0.0,270.0,4.0,0.0
1059,60.0,512.0,1020.0,1.0,0.0
1060,51.0,0.0,1530.0,4.0,0.0
1061,60.0,256.0,270.0,0.0,0.0
1062,70.0,256.0,270.0,0.0,0.0
1063,68.0,256.0,270.0,0.0,0.0
1064,66.0,0.0,270.0,0.0,0.0
1065,37.0,0.0,2040.0,5.0,0.0
1066,25.0,0.0,2040.0,6.0,0.0
1067,65.0,256.0,510.0,0.0,0.0
1068,53.0,0.0,270.0,1.0,0.0
1069,56.0,0.0,270.0,1.0,0.0
1070,49.0,256.0,270.0,4.0,0.0
1071,61.0,256.0,270.0,1.0,0.0
1072,48.0,0.0,270.0,4.0,0.0
1073,65.0,256.0,270.0,1.0,0.0
1074,70.0,256.0,2040.0,0.0,0.0
1075,49.0,256.0,510.0,4.0,0.0
1076,58.0,0.0,270.0,1.0,0.0
1077,61.0,256.0,270.0,1.0,0.0
1078,53.0,256.0,1020.0,4.0,0.0
1079,65.0,256.0,270.0,1.0,0.0
1080,66.0,256.0,270.0,1.0,0.0
1081,27.0,0.0,2040.0,6.0,0.0
1082,39.0,0.0,2040.0,5.0,0.0
1083,63.0,0.0,270.0,1.0,0.0
1084,60.0,0.0,270.0,1.0,0.0
1085,51.0,256.0,270.0,4.0,0.0
1086,49.0,0.0,270.0,4.0,0.0
1087,63.0,0.0,270.0,1.0,0.0
1088,56.0,256.0,270.0,1.0,0.0
1089,72.0,256.0,1020.0,0.0,0.0
1090,51.0,0.0,510.0,4.0,0.0
1091,66.0,256.0,270.0,1.0,0.0
1092,54.0,0.0,1020.0,4.0,0.0
1093,65.0,256.0,270.0,1.0,0.0
1094,63.0,0.0,270.0,1.0,0.0
1095,73.0,0.0,510.0,0.0,0.0
1096,68.0,256.0,270.0,1.0,0.0
1097,41.0,256.0,1020.0,5.0,0.0
1098,29.0,0.0,1020.0,6.0,0.0
1099,65.0,256.0,270.0,1.0,0.0
1100,53.0,0.0,1020.0,4.0,0.0
1101,61.0,256.0,270.0,1.0,0.0
1102,65.0,0.0,270.0,1.0,0.0
1103,42.0,256.0,1020.0,5.0,0.0
1104,58.0,256.0,270.0,1.0,0.0
1105,30.0,0.0,1020.0,6.0,0.0
1106,68.0,256.0,270.0,1.0,0.0
1107,51.0,256.0,270.0,4.0,0.0
1108,66.0,0.0,270.0,1.0,0.0
1109,49.0,0.0,270.0,4.0,0.0
1110,65.0,0.0,270.0,1.0,0.0
1111,48.0,256.0,270.0,4.0,0.0
1112,32.0,0.0,4110.0,6.0,0.0
1113,63.0,0.0,1020.0,1.0,0.0
1114,44.0,512.0,4110.0,5.0,0.0
1115,49.0,256.0,270.0,4.0,0.0
1116,75.0,0.0,1020.0,0.0,0.0
1117,46.0,256.0,270.0,4.0,0.0
1118,48.0,256.0,270.0,4.0,0.0
1119,49.0,256.0,270.0,4.0,0.0
1120,65.0,0.0,510.0,1.0,0.0
1121,48.0,256.0,270.0,4.0,0.0
1122,46.0,256.0,270.0,4.0,0.0
1123,73.0,0.0,510.0,0.0,0.0
1124,67.0,256.0,510.0,1.0,0.0
1125,44.0,0.0,270.0,4.0,0.0
1126,72.0,256.0,270.0,0.0,0.0
1127,68.0,0.0,510.0,1.0,0.0
1128,51.0,256.0,510.0,4.0,0.0
1129,73.0,0.0,270.0,0.0,0.0
1130,70.0,256.0,270.0,0.0,0.0
1131,49.0,0.0,270.0,4.0,0.0
1132,72.0,256.0,270.0,0.0,0.0
1133,51.0,0.0,270.0,4.0,0.0
1134,53.0,0.0,1530.0,4.0,0.0
1135,73.0,256.0,270.0,0.0,0.0
1136,71.0,256.0,270.0,0.0,0.0
1137,70.0,256.0,270.0,0.0,0.0
1138,68.0,0.0,270.0,0.0,0.0
1139,70.0,256.0,1020.0,0.0,0.0
1140,30.0,0.0,2040.0,6.0,0.0
1141,42.0,0.0,2040.0,5.0,0.0
1142,58.0,256.0,270.0,1.0,0.0
1143,51.0,256.0,270.0,4.0,0.0
1144,63.0,0.0,270.0,1.0,0.0
1145,50.0,0.0,270.0,4.0,0.0
1146,66.0,0.0,270.0,1.0,0.0
1147,70.0,256.0,270.0,1.0,0.0
1148,51.0,256.0,1530.0,4.0,0.0
1149,63.0,256.0,270.0,1.0,0.0
1150,66.0,256.0,270.0,1.0,0.0
1151,70.0,256.0,270.0,1.0,0.0
1152,71.0,256.0,270.0,1.0,0.0
1153,29.0,256.0,2040.0,6.0,0.0
1154,41.0,0.0,2040.0,5.0,0.0
1155,68.0,0.0,270.0,1.0,0.0
1156,50.0,256.0,270.0,4.0,0.0
1157,65.0,0.0,270.0,1.0,0.0
1158,68.0,0.0,270.0,1.0,0.0
1159,51.0,256.0,270.0,4.0,0.0
1160,53.0,0.0,1020.0,4.0,0.0
1161,62.0,256.0,270.0,1.0,0.0
1162,71.0,256.0,270.0,1.0,0.0
1163,70.0,256.0,270.0,1.0,0.0
1164,74.0,0.0,510.0,0.0,0.0
1165,68.0,0.0,270.0,1.0,0.0
1166,75.0,256.0,270.0,0.0,0.0
1167,39.0,256.0,2040.0,5.0,0.0
1168,66.0,0.0,510.0,1.0,0.0
1169,46.0,256.0,1020.0,4.0,0.0
1170,27.0,0.0,2040.0,6.0,0.0
1171,77.0,256.0,270.0,0.0,0.0
1172,58.0,0.0,510.0,1.0,0.0
1173,78.0,256.0,270.0,0.0,0.0
1174,77.0,0.0,270.0,0.0,0.0
1175,60.0,0.0,510.0,1.0,0.0
1176,75.0,256.0,270.0,0.0,0.0
1177,74.0,256.0,270.0,0.0,0.0
1178,63.0,256.0,780.0,1.0,0.0
1179,54.0,0.0,510.0,4.0,0.0
1180,72.0,256.0,270.0,0.0,0.0
1181,70.0,0.0,270.0,0.0,0.0
1182,41.0,0.0,6150.0,5.0,0.0
1183,69.0,256.0,510.0,0.0,0.0
1184,29.0,0.0,6150.0,6.0,0.0
1185,53.0,256.0,1290.0,4.0,0.0
1186,61.0,0.0,270.0,1.0,0.0
1187,60.0,256.0,270.0,1.0,0.0
1188,70.0,0.0,510.0,0.0,0.0
1189,58.0,256.0,270.0,1.0,0.0
1190,72.0,256.0,1290.0,0.0,0.0
1191,57.0,256.0,1530.0,1.0,0.0
1192,54.0,256.0,270.0,4.0,0.0
1193,53.0,256.0,270.0,4.0,0.0
1194,51.0,256.0,270.0,4.0,0.0
1195,65.0,0.0,270.0,0.0,0.0
1196,53.0,256.0,510.0,1.0,0.0
1197,70.0,256.0,270.0,0.0,0.0
1198,73.0,0.0,270.0,0.0,0.0
1199,77.0,256.0,270.0,0.0,0.0
1200,58.0,0.0,1530.0,1.0,0.0
1201,70.0,0.0,270.0,0.0,0.0
1202,73.0,256.0,270.0,0.0,0.0
1203,49.0,256.0,15.0,4.0,0.0
1204,77.0,0.0,270.0,0.0,0.0
1205,78.0,256.0,270.0,0.0,0.0
1206,48.0,256.0,1530.0,4.0,0.0
1207,75.0,256.0,270.0,0.0,0.0
1208,57.0,0.0,270.0,1.0,0.0
1209,72.0,256.0,270.0,0.0,0.0
1210,58.0,0.0,270.0,1.0,0.0
1211,75.0,256.0,270.0,0.0,0.0
1212,60.0,0.0,510.0,1.0,0.0
1213,69.0,256.0,270.0,0.0,0.0
1214,78.0,0.0,270.0,0.0,0.0
1215,57.0,0.0,510.0,1.0,0.0
1216,53.0,0.0,510.0,4.0,0.0
1217,77.0,256.0,270.0,0.0,0.0
1218,75.0,256.0,270.0,0.0,0.0
1219,46.0,256.0,510.0,4.0,0.0
1220,58.0,0.0,510.0,1.0,0.0
1221,73.0,256.0,270.0,0.0,0.0
1222,70.0,0.0,270.0,0.0,0.0
1223,66.0,256.0,270.0,0.0,0.0
1224,58.0,0.0,510.0,4.0,0.0
1225,61.0,0.0,510.0,1.0,0.0
1226,70.0,256.0,270.0,0.0,0.0
1227,64.0,256.0,270.0,0.0,0.0
1228,58.0,0.0,510.0,1.0,0.0
1229,55.0,0.0,510.0,4.0,0.0
1230,73.0,256.0,270.0,0.0,0.0
1231,55.0,512.0,510.0,1.0,0.0
1232,52.0,0.0,510.0,4.0,0.0
1233,72.0,256.0,270.0,0.0,0.0
1234,70.0,0.0,270.0,0.0,0.0
1235,69.0,0.0,1020.0,0.0,0.0
1236,53.0,0.0,510.0,4.0,0.0
1237,65.0,256.0,270.0,1.0,0.0
1238,41.0,0.0,510.0,4.0,0.0
1239,60.0,256.0,270.0,1.0,0.0
1240,63.0,512.0,270.0,1.0,0.0
1241,62.0,0.0,1020.0,1.0,0.0
1242,71.0,256.0,270.0,0.0,0.0
1243,46.0,512.0,510.0,4.0,0.0
1244,70.0,256.0,270.0,0.0,0.0
1245,68.0,0.0,270.0,0.0,0.0
1246,51.0,0.0,510.0,4.0,0.0
1247,67.0,0.0,1020.0,0.0,0.0
1248,63.0,256.0,270.0,1.0,0.0
1249,58.0,256.0,270.0,1.0,0.0
1250,39.0,512.0,510.0,4.0,0.0
1251,61.0,0.0,270.0,1.0,0.0
1252,60.0,256.0,1290.0,1.0,0.0
1253,70.0,256.0,270.0,0.0,0.0
1254,68.0,256.0,270.0,0.0,0.0
1255,44.0,0.0,510.0,4.0,0.0
1256,66.0,256.0,270.0,0.0,0.0
1257,65.0,0.0,1020.0,0.0,0.0
1258,49.0,0.0,1020.0,4.0,0.0
1259,53.0,256.0,270.0,1.0,0.0
1260,58.0,256.0,270.0,1.0,0.0
1261,61.0,256.0,270.0,1.0,0.0
1262,65.0,256.0,270.0,1.0,0.0
1263,58.0,256.0,270.0,1.0,0.0
1264,61.0,256.0,270.0,1.0,0.0
1265,65.0,256.0,270.0,1.0,0.0
1266,71.0,256.0,1020.0,0.0,0.0
1267,50.0,0.0,1020.0,4.0,0.0
1268,68.0,256.0,270.0,1.0,0.0
1269,65.0,256.0,270.0,1.0,0.0
1270,62.0,256.0,270.0,1.0,0.0
1271,65.0,0.0,270.0,1.0,0.0
1272,59.0,256.0,270.0,1.0,0.0
1273,68.0,256.0,270.0,1.0,0.0
1274,67.0,256.0,270.0,1.0,0.0
1275,65.0,512.0,270.0,1.0,0.0
1276,72.0,256.0,510.0,0.0,0.0
1277,64.0,0.0,510.0,1.0,0.0
1278,48.0,0.0,270.0,4.0,0.0
1279,67.0,256.0,1020.0,1.0,0.0
1280,52.0,256.0,270.0,4.0,0.0
1281,70.0,256.0,510.0,0.0,0.0
1282,54.0,0.0,270.0,4.0,0.0
1283,68.0,256.0,1020.0,0.0,0.0
1284,60.0,256.0,270.0,4.0,0.0
1285,53.0,0.0,270.0,4.0,0.0
1286,65.0,0.0,1020.0,1.0,0.0
1287,56.0,256.0,270.0,4.0,0.0
1288,60.0,0.0,270.0,4.0,0.0
1289,61.0,0.0,270.0,4.0,0.0
1290,67.0,256.0,270.0,0.0,0.0
1291,58.0,256.0,270.0,4.0,0.0
1292,68.0,0.0,270.0,0.0,0.0
1293,63.0,0.0,270.0,1.0,0.0
1294,55.0,256.0,270.0,4.0,0.0
1295,65.0,0.0,270.0,1.0,0.0
1296,58.0,256.0,270.0,4.0,0.0
1297,66.0,0.0,1530.0,1.0,0.0
1298,52.0,256.0,270.0,4.0,0.0
1299,61.0,256.0,270.0,4.0,0.0
1300,60.0,256.0,270.0,4.0,0.0
1301,58.0,256.0,270.0,4.0,0.0
1302,70.0,0.0,15.0,0.0,0.0
1303,56.0,256.0,270.0,4.0,0.0
1304,53.0,256.0,270.0,4.0,0.0
1305,68.0,0.0,510.0,0.0,0.0
1306,65.0,0.0,510.0,1.0,0.0
1307,56.0,256.0,270.0,4.0,0.0
1308,60.0,256.0,270.0,4.0,0.0
1309,50.0,256.0,270.0,4.0,0.0
1310,59.0,256.0,270.0,4.0,0.0
1311,58.0,256.0,270.0,4.0,0.0
1312,65.0,0.0,510.0,1.0,0.0
1313,68.0,0.0,510.0,0.0,0.0
1314,56.0,256.0,270.0,4.0,0.0
1315,68.0,256.0,510.0,0.0,0.0
1316,65.0,0.0,510.0,1.0,0.0
1317,54.0,256.0,270.0,4.0,0.0
1318,51.0,0.0,270.0,4.0,0.0
1319,54.0,256.0,270.0,4.0,0.0
1320,66.0,256.0,510.0,0.0,0.0
1321,63.0,0.0,510.0,1.0,0.0
1322,58.0,0.0,270.0,4.0,0.0
1323,48.0,256.0,270.0,4.0,0.0
1324,58.0,256.0,270.0,4.0,0.0
1325,66.0,256.0,510.0,1.0,0.0
1326,56.0,256.0,270.0,4.0,0.0
1327,54.0,0.0,270.0,4.0,0.0
1328,75.0,0.0,15.0,0.0,0.0
1329,53.0,256.0,270.0,4.0,0.0
1330,66.0,256.0,510.0,1.0,0.0
1331,49.0,0.0,270.0,4.0,0.0
1332,73.0,0.0,510.0,0.0,0.0
1333,53.0,256.0,270.0,4.0,0.0
1334,65.0,256.0,510.0,1.0,0.0
1335,56.0,0.0,270.0,4.0,0.0
1336,46.0,256.0,270.0,4.0,0.0
1337,56.0,256.0,270.0,4.0,0.0
1338,54.0,256.0,270.0,4.0,0.0
1339,73.0,0.0,510.0,0.0,0.0
1340,70.0,0.0,510.0,1.0,0.0
1341,53.0,256.0,270.0,4.0,0.0
1342,73.0,0.0,510.0,0.0,0.0
1343,51.0,256.0,270.0,4.0,0.0
1344,70.0,0.0,510.0,1.0,0.0
1345,48.0,256.0,270.0,4.0,0.0
1346,72.0,0.0,510.0,0.0,0.0
1347,69.0,256.0,510.0,1.0,0.0
1348,51.0,256.0,270.0,4.0,0.0
1349,54.0,0.0,270.0,4.0,0.0
1350,45.0,256.0,270.0,4.0,0.0
1351,54.0,256.0,270.0,4.0,0.0
1352,63.0,0.0,510.0,0.0,0.0
1353,60.0,256.0,510.0,1.0,0.0
1354,53.0,256.0,270.0,4.0,0.0
1355,51.0,0.0,270.0,4.0,0.0
1356,49.0,256.0,270.0,4.0,0.0
1357,63.0,256.0,510.0,0.0,0.0
1358,60.0,0.0,510.0,1.0,0.0
1359,46.0,0.0,270.0,4.0,0.0
1360,49.0,256.0,270.0,4.0,0.0
1361,61.0,0.0,510.0,0.0,0.0
1362,58.0,0.0,510.0,1.0,0.0
1363,53.0,256.0,270.0,4.0,0.0
1364,43.0,256.0,270.0,4.0,0.0
1365,53.0,256.0,270.0,4.0,0.0
1366,52.0,256.0,270.0,4.0,0.0
1367,67.0,256.0,510.0,1.0,0.0
1368,70.0,0.0,510.0,0.0,0.0
1369,50.0,0.0,270.0,4.0,0.0
1370,70.0,0.0,510.0,0.0,0.0
1371,48.0,256.0,270.0,4.0,0.0
1372,67.0,0.0,1020.0,1.0,0.0
1373,44.0,256.0,270.0,4.0,0.0
1374,68.0,256.0,2040.0,0.0,0.0
1375,48.0,256.0,270.0,4.0,0.0
1376,52.0,256.0,270.0,4.0,0.0
1377,65.0,0.0,510.0,1.0,0.0
1378,56.0,256.0,270.0,4.0,0.0
1379,53.0,256.0,270.0,4.0,0.0
1380,56.0,256.0,270.0,4.0,0.0
1381,63.0,256.0,510.0,1.0,0.0
1382,59.0,0.0,270.0,4.0,0.0
1383,50.0,256.0,270.0,4.0,0.0
1384,65.0,256.0,1530.0,1.0,0.0
1385,46.0,0.0,270.0,4.0,0.0
1386,50.0,0.0,270.0,4.0,0.0
1387,70.0,256.0,270.0,0.0,0.0
1388,53.0,0.0,270.0,4.0,0.0
1389,68.0,256.0,270.0,0.0,0.0
1390,66.0,0.0,1530.0,0.0,0.0
1391,58.0,256.0,270.0,4.0,0.0
1392,54.0,0.0,270.0,4.0,0.0
1393,51.0,256.0,270.0,4.0,0.0
1394,63.0,0.0,270.0,1.0,0.0
1395,61.0,256.0,270.0,1.0,0.0
1396,54.0,0.0,270.0,4.0,0.0
1397,29.0,0.0,1530.0,6.0,0.0
1398,48.0,256.0,270.0,4.0,0.0
1399,41.0,256.0,1530.0,5.0,0.0
1400,63.0,256.0,1290.0,1.0,0.0
1401,44.0,256.0,270.0,4.0,0.0
1402,68.0,256.0,270.0,0.0,0.0
1403,48.0,0.0,270.0,4.0,0.0
1404,66.0,256.0,270.0,0.0,0.0
1405,51.0,0.0,270.0,4.0,0.0
1406,56.0,0.0,270.0,4.0,0.0
1407,65.0,0.0,510.0,0.0,0.0
1408,53.0,0.0,270.0,4.0,0.0
1409,61.0,256.0,510.0,1.0,0.0
1410,49.0,0.0,270.0,4.0,0.0
1411,70.0,256.0,1530.0,0.0,0.0
1412,42.0,256.0,510.0,5.0,0.0
1413,30.0,0.0,510.0,6.0,0.0
1414,53.0,0.0,270.0,4.0,0.0
1415,61.0,0.0,270.0,1.0,0.0
1416,51.0,0.0,510.0,4.0,0.0
1417,32.0,0.0,2040.0,6.0,0.0
1418,60.0,256.0,270.0,1.0,0.0
1419,44.0,0.0,2040.0,5.0,0.0
1420,61.0,256.0,270.0,1.0,0.0
1421,49.0,256.0,270.0,4.0,0.0
1422,58.0,0.0,270.0,1.0,0.0
1423,60.0,0.0,270.0,1.0,0.0
1424,51.0,0.0,270.0,4.0,0.0
1425,53.0,256.0,1530.0,4.0,0.0
1426,61.0,256.0,270.0,1.0,0.0
1427,68.0,0.0,1020.0,0.0,0.0
1428,60.0,256.0,270.0,1.0,0.0
1429,58.0,256.0,270.0,1.0,0.0
1430,56.0,512.0,270.0,1.0,0.0
1431,46.0,0.0,2040.0,5.0,0.0
1432,34.0,0.0,2040.0,6.0,0.0
1433,55.0,0.0,1530.0,1.0,0.0
1434,73.0,0.0,270.0,0.0,0.0
1435,72.0,256.0,270.0,0.0,0.0
1436,51.0,256.0,510.0,4.0,0.0
1437,73.0,0.0,270.0,0.0,0.0
1438,75.0,256.0,270.0,0.0,0.0
1439,49.0,256.0,1020.0,4.0,0.0
1440,73.0,256.0,270.0,0.0,0.0
1441,55.0,0.0,510.0,1.0,0.0
1442,72.0,256.0,270.0,0.0,0.0
1443,70.0,0.0,270.0,0.0,0.0
1444,72.0,0.0,510.0,0.0,0.0
1445,32.0,512.0,2040.0,6.0,0.0
1446,56.0,256.0,270.0,1.0,0.0
1447,44.0,0.0,2040.0,5.0,0.0
1448,51.0,0.0,1020.0,4.0,0.0
1449,63.0,256.0,270.0,1.0,0.0
1450,70.0,0.0,510.0,0.0,0.0
1451,61.0,256.0,270.0,1.0,0.0
1452,63.0,256.0,270.0,1.0,0.0
1453,65.0,256.0,270.0,1.0,0.0
1454,68.0,256.0,2040.0,0.0,0.0
1455,63.0,256.0,270.0,1.0,0.0
1456,61.0,256.0,270.0,1.0,0.0
1457,60.0,0.0,270.0,1.0,0.0
1458,39.0,256.0,2040.0,5.0,0.0
1459,58.0,256.0,1290.0,1.0,0.0
1460,27.0,0.0,2040.0,6.0,0.0
1461,49.0,256.0,270.0,4.0,0.0
1462,48.0,256.0,270.0,4.0,0.0
1463,49.0,0.0,270.0,4.0,0.0
1464,67.0,0.0,1020.0,0.0,0.0
1465,51.0,0.0,270.0,4.0,0.0
1466,49.0,256.0,270.0,4.0,0.0
1467,65.0,0.0,270.0,1.0,0.0
1468,48.0,0.0,270.0,4.0,0.0
1469,63.0,256.0,270.0,1.0,0.0
1470,46.0,0.0,270.0,4.0,0.0
1471,61.0,0.0,270.0,1.0,0.0
1472,53.0,256.0,270.0,4.0,0.0
1473,41.0,0.0,2040.0,5.0,0.0
1474,60.0,0.0,510.0,1.0,0.0
1475,68.0,0.0,510.0,0.0,0.0
1476,29.0,256.0,2040.0,6.0,0.0
1477,44.0,256.0,270.0,4.0,0.0
1478,48.0,256.0,270.0,4.0,0.0
1479,63.0,256.0,510.0,1.0,0.0
1480,66.0,0.0,510.0,0.0,0.0
1481,51.0,0.0,270.0,4.0,0.0
1482,65.0,0.0,1020.0,0.0,0.0
1483,56.0,256.0,270.0,4.0,0.0
1484,49.0,256.0,270.0,4.0,0.0
1485,53.0,256.0,270.0,4.0,0.0
1486,56.0,0.0,270.0,4.0,0.0
1487,31.0,256.0,2040.0,6.0,0.0
1488,63.0,256.0,3060.0,0.0,0.0
1489,58.0,256.0,270.0,4.0,0.0
1490,43.0,0.0,2040.0,5.0,0.0
1491,55.0,256.0,270.0,4.0,0.0
1492,51.0,256.0,270.0,4.0,0.0
1493,55.0,256.0,270.0,4.0,0.0
1494,46.0,0.0,270.0,4.0,0.0
1495,53.0,256.0,270.0,4.0,0.0
1496,61.0,256.0,15.0,1.0,0.0
1497,60.0,256.0,270.0,1.0,0.0
1498,51.0,0.0,270.0,4.0,0.0
1499,49.0,0.0,270.0,4.0,0.0
1500,58.0,0.0,270.0,1.0,0.0
1501,48.0,0.0,1020.0,4.0,0.0
1502,44.0,0.0,6150.0,5.0,0.0
1503,60.0,256.0,270.0,1.0,0.0
1504,32.0,0.0,6150.0,6.0,0.0
1505,51.0,256.0,270.0,1.0,0.0
1506,56.0,256.0,270.0,1.0,0.0
1507,60.0,0.0,270.0,1.0,0.0
1508,63.0,256.0,270.0,1.0,0.0
1509,56.0,256.0,270.0,1.0,0.0
1510,51.0,256.0,1020.0,4.0,0.0
1511,60.0,256.0,270.0,1.0,0.0
1512,63.0,256.0,270.0,1.0,0.0
1513,65.0,256.0,270.0,1.0,0.0
1514,61.0,0.0,270.0,1.0,0.0
1515,49.0,256.0,270.0,4.0,0.0
1516,58.0,0.0,270.0,1.0,0.0
1517,61.0,256.0,270.0,1.0,0.0
1518,48.0,0.0,270.0,4.0,0.0
1519,46.0,0.0,510.0,4.0,0.0
1520,55.0,256.0,270.0,1.0,0.0
1521,65.0,256.0,270.0,1.0,0.0
1522,63.0,256.0,270.0,1.0,0.0
1523,55.0,0.0,510.0,4.0,0.0
1524,61.0,256.0,270.0,1.0,0.0
1525,56.0,256.0,270.0,4.0,0.0
1526,60.0,256.0,510.0,1.0,0.0
1527,44.0,0.0,270.0,4.0,0.0
1528,48.0,256.0,270.0,4.0,0.0
1529,68.0,256.0,1020.0,1.0,0.0
1530,51.0,256.0,270.0,4.0,0.0
1531,56.0,256.0,270.0,4.0,0.0
1532,48.0,0.0,270.0,4.0,0.0
1533,51.0,0.0,270.0,4.0,0.0
1534,67.0,256.0,270.0,1.0,0.0
1535,56.0,256.0,270.0,4.0,0.0
1536,65.0,0.0,270.0,1.0,0.0
1537,63.0,256.0,270.0,1.0,0.0
1538,60.0,0.0,270.0,4.0,0.0
1539,56.0,256.0,270.0,4.0,0.0
1540,65.0,0.0,270.0,1.0,0.0
1541,61.0,256.0,270.0,1.0,0.0
1542,53.0,0.0,270.0,4.0,0.0
1543,63.0,256.0,270.0,1.0,0.0
1544,56.0,0.0,270.0,4.0,0.0
1545,49.0,0.0,270.0,4.0,0.0
1546,65.0,256.0,270.0,1.0,0.0
1547,60.0,256.0,270.0,4.0,0.0
1548,63.0,0.0,270.0,1.0,0.0
1549,58.0,256.0,270.0,4.0,0.0
1550,61.0,0.0,270.0,1.0,0.0
1551,56.0,0.0,270.0,4.0,0.0
1552,60.0,256.0,270.0,1.0,0.0
1553,55.0,256.0,270.0,4.0,0.0
1554,58.0,0.0,270.0,1.0,0.0
1555,56.0,0.0,270.0,4.0,0.0
1556,60.0,256.0,270.0,1.0,0.0
1557,53.0,256.0,270.0,4.0,0.0
1558,61.0,256.0,1020.0,1.0,0.0
1559,55.0,256.0,270.0,4.0,0.0
1560,56.0,256.0,270.0,4.0,0.0
1561,53.0,0.0,270.0,4.0,0.0
1562,51.0,0.0,270.0,4.0,0.0
1563,60.0,256.0,270.0,1.0,0.0
1564,49.0,512.0,270.0,4.0,0.0
1565,58.0,0.0,270.0,1.0,0.0
1566,48.0,0.0,1020.0,4.0,0.0
1567,56.0,0.0,510.0,1.0,0.0
1568,63.0,256.0,270.0,0.0,0.0
1569,51.0,0.0,510.0,1.0,0.0
1570,68.0,256.0,270.0,0.0,0.0
1571,72.0,256.0,270.0,0.0,0.0
1572,75.0,256.0,270.0,0.0,0.0
1573,56.0,256.0,1530.0,1.0,0.0
1574,68.0,256.0,270.0,0.0,0.0
1575,48.0,256.0,510.0,4.0,0.0
1576,72.0,256.0,270.0,0.0,0.0
1577,75.0,0.0,270.0,0.0,0.0
1578,77.0,256.0,270.0,0.0,0.0
1579,32.0,256.0,4110.0,6.0,0.0
1580,44.0,0.0,4110.0,5.0,0.0
1581,49.0,0.0,1020.0,4.0,0.0
1582,73.0,0.0,270.0,0.0,0.0
1583,70.0,256.0,270.0,0.0,0.0
1584,53.0,0.0,510.0,1.0,0.0
1585,73.0,256.0,270.0,0.0,0.0
1586,58.0,256.0,1290.0,1.0,0.0
1587,67.0,256.0,270.0,0.0,0.0
1588,77.0,256.0,270.0,0.0,0.0
1589,49.0,256.0,510.0,4.0,0.0
1590,75.0,256.0,270.0,0.0,0.0
1591,73.0,0.0,270.0,0.0,0.0
1592,72.0,256.0,510.0,0.0,0.0
1593,51.0,0.0,510.0,4.0,0.0
1594,56.0,0.0,270.0,1.0,0.0
1595,60.0,0.0,270.0,1.0,0.0
1596,68.0,256.0,270.0,0.0,0.0
1597,63.0,0.0,270.0,1.0,0.0
1598,72.0,256.0,270.0,0.0,0.0
1599,68.0,256.0,270.0,1.0,0.0
1600,77.0,0.0,1530.0,0.0,0.0
1601,65.0,256.0,270.0,1.0,0.0
1602,60.0,0.0,510.0,4.0,0.0
1603,68.0,256.0,270.0,1.0,0.0
1604,72.0,0.0,270.0,1.0,0.0
1605,34.0,0.0,2040.0,6.0,0.0
1606,46.0,0.0,2040.0,5.0,0.0
1607,73.0,256.0,270.0,1.0,0.0
1608,58.0,0.0,510.0,4.0,0.0
1609,70.0,256.0,270.0,1.0,0.0
1610,75.0,0.0,270.0,0.0,0.0
1611,67.0,256.0,270.0,1.0,0.0
1612,73.0,0.0,270.0,0.0,0.0
1613,70.0,256.0,270.0,1.0,0.0
1614,79.0,0.0,1020.0,0.0,0.0
1615,61.0,256.0,270.0,1.0,0.0
1616,77.0,256.0,270.0,1.0,0.0
1617,61.0,256.0,510.0,4.0,0.0
1618,75.0,256.0,270.0,1.0,0.0
1619,73.0,0.0,270.0,1.0,0.0
1620,63.0,256.0,270.0,4.0,0.0
1621,32.0,256.0,2040.0,6.0,0.0
1622,44.0,0.0,2040.0,5.0,0.0
1623,72.0,0.0,1020.0,1.0,0.0
1624,80.0,256.0,510.0,0.0,0.0
1625,51.0,0.0,270.0,4.0,0.0
1626,75.0,0.0,510.0,0.0,0.0
1627,56.0,256.0,270.0,4.0,0.0
1628,60.0,256.0,270.0,4.0,0.0
1629,78.0,256.0,510.0,0.0,0.0
1630,63.0,256.0,270.0,4.0,0.0
1631,56.0,0.0,270.0,4.0,0.0
1632,62.0,256.0,270.0,4.0,0.0
1633,77.0,0.0,1020.0,0.0,0.0
1634,71.0,0.0,510.0,1.0,0.0
1635,65.0,0.0,270.0,4.0,0.0
1636,70.0,0.0,510.0,1.0,0.0
1637,27.0,256.0,1020.0,6.0,0.0
1638,39.0,0.0,1020.0,5.0,0.0
1639,66.0,256.0,270.0,4.0,0.0
1640,63.0,256.0,270.0,4.0,0.0
1641,75.0,256.0,1020.0,0.0,0.0
1642,60.0,256.0,270.0,4.0,0.0
1643,72.0,256.0,780.0,1.0,0.0
1644,63.0,0.0,270.0,4.0,0.0
1645,41.0,256.0,1020.0,5.0,0.0
1646,56.0,256.0,1530.0,4.0,0.0
1647,29.0,0.0,1020.0,6.0,0.0
1648,68.0,0.0,270.0,1.0,0.0
1649,73.0,256.0,270.0,0.0,0.0
1650,65.0,0.0,270.0,1.0,0.0
1651,71.0,0.0,270.0,0.0,0.0
1652,68.0,0.0,270.0,1.0,0.0
1653,30.0,256.0,2040.0,6.0,0.0
1654,70.0,256.0,270.0,0.0,0.0
1655,42.0,0.0,2040.0,5.0,0.0
1656,61.0,512.0,1020.0,1.0,0.0
1657,65.0,0.0,270.0,0.0,0.0
1658,58.0,256.0,270.0,4.0,0.0
1659,66.0,0.0,270.0,0.0,0.0
1660,70.0,0.0,270.0,0.0,0.0
1661,56.0,0.0,270.0,4.0,0.0
1662,54.0,256.0,1290.0,4.0,0.0
1663,75.0,0.0,1290.0,0.0,0.0
1664,58.0,256.0,270.0,1.0,0.0
1665,63.0,256.0,270.0,1.0,0.0
1666,66.0,0.0,270.0,1.0,0.0
1667,41.0,0.0,2040.0,5.0,0.0
1668,68.0,0.0,2040.0,1.0,0.0
1669,29.0,0.0,2040.0,6.0,0.0
1670,48.0,256.0,270.0,4.0,0.0
1671,63.0,0.0,270.0,0.0,0.0
1672,65.0,0.0,270.0,0.0,0.0
1673,49.0,256.0,270.0,4.0,0.0
1674,53.0,0.0,270.0,4.0,0.0
1675,68.0,256.0,270.0,0.0,0.0
1676,56.0,256.0,270.0,4.0,0.0
1677,73.0,0.0,1530.0,0.0,0.0
1678,44.0,256.0,270.0,4.0,0.0
1679,49.0,256.0,270.0,4.0,0.0
1680,53.0,256.0,270.0,4.0,0.0
1681,39.0,0.0,2040.0,5.0,0.0
1682,66.0,0.0,2040.0,1.0,0.0
1683,27.0,0.0,2040.0,6.0,0.0
1684,54.0,256.0,270.0,4.0,0.0
1685,51.0,256.0,270.0,4.0,0.0
1686,71.0,0.0,270.0,0.0,0.0
1687,54.0,256.0,270.0,4.0,0.0
1688,70.0,256.0,270.0,0.0,0.0
1689,58.0,0.0,270.0,4.0,0.0
1690,63.0,256.0,270.0,4.0,0.0
1691,71.0,256.0,1530.0,0.0,0.0
1692,59.0,256.0,270.0,4.0,0.0
1693,54.0,256.0,270.0,4.0,0.0
1694,57.0,256.0,270.0,4.0,0.0
1695,25.0,256.0,8190.0,6.0,0.0
1696,37.0,0.0,8190.0,5.0,0.0
1697,68.0,256.0,1530.0,1.0,0.0
1698,53.0,256.0,270.0,4.0,0.0
1699,63.0,0.0,270.0,4.0,0.0
1700,61.0,256.0,270.0,4.0,0.0
1701,70.0,0.0,270.0,0.0,0.0
1702,68.0,256.0,270.0,0.0,0.0
1703,59.0,0.0,270.0,4.0,0.0
1704,58.0,256.0,270.0,4.0,0.0
1705,70.0,0.0,1020.0,0.0,0.0
1706,56.0,0.0,270.0,4.0,0.0
1707,58.0,256.0,270.0,4.0,0.0
1708,66.0,256.0,780.0,1.0,0.0
1709,60.0,256.0,270.0,4.0,0.0
1710,61.0,256.0,780.0,4.0,0.0
1711,68.0,256.0,1530.0,0.0,0.0
1712,63.0,256.0,270.0,1.0,0.0
1713,65.0,256.0,780.0,1.0,0.0
1714,59.0,256.0,270.0,4.0,0.0
1715,58.0,0.0,510.0,4.0,0.0
1716,61.0,256.0,510.0,1.0,0.0
1717,66.0,0.0,1020.0,0.0,0.0
1718,57.0,256.0,510.0,4.0,0.0
1719,60.0,0.0,270.0,1.0,0.0
1720,61.0,0.0,2550.0,1.0,0.0
1721,56.0,256.0,270.0,4.0,0.0
1722,44.0,256.0,270.0,4.0,0.0
1723,49.0,256.0,270.0,4.0,0.0
1724,65.0,0.0,270.0,0.0,0.0
1725,63.0,0.0,270.0,0.0,0.0
1726,53.0,256.0,270.0,4.0,0.0
1727,56.0,256.0,270.0,4.0,0.0
1728,65.0,0.0,510.0,0.0,0.0
1729,49.0,256.0,270.0,4.0,0.0
1730,53.0,256.0,270.0,4.0,0.0
1731,68.0,0.0,1020.0,0.0,0.0
1732,56.0,256.0,270.0,4.0,0.0
1733,58.0,256.0,270.0,4.0,0.0
1734,54.0,256.0,270.0,4.0,0.0
1735,66.0,0.0,270.0,0.0,0.0
1736,51.0,256.0,270.0,4.0,0.0
1737,65.0,0.0,270.0,0.0,0.0
1738,54.0,256.0,270.0,4.0,0.0
1739,48.0,0.0,270.0,4.0,0.0
1740,63.0,256.0,270.0,0.0,0.0
1741,65.0,0.0,270.0,0.0,0.0
1742,58.0,256.0,270.0,4.0,0.0
1743,56.0,256.0,270.0,4.0,0.0
1744,63.0,0.0,1020.0,1.0,0.0
1745,66.0,256.0,1020.0,0.0,0.0
1746,54.0,0.0,270.0,4.0,0.0
1747,53.0,256.0,270.0,4.0,0.0
1748,51.0,0.0,270.0,4.0,0.0
1749,61.0,256.0,1020.0,1.0,0.0
1750,53.0,256.0,270.0,4.0,0.0
1751,65.0,256.0,510.0,0.0,0.0
1752,55.0,0.0,270.0,4.0,0.0
1753,56.0,256.0,270.0,4.0,0.0
1754,63.0,256.0,780.0,0.0,0.0
1755,51.0,0.0,270.0,4.0,0.0
1756,60.0,256.0,510.0,1.0,0.0
1757,65.0,0.0,270.0,0.0,0.0
1758,61.0,256.0,1290.0,0.0,0.0
1759,58.0,0.0,2040.0,1.0,0.0
1760,56.0,256.0,15.0,4.0,0.0
1761,55.0,256.0,270.0,4.0,0.0
1762,53.0,256.0,270.0,4.0,0.0
1763,55.0,0.0,1020.0,4.0,0.0
1764,65.0,256.0,270.0,0.0,0.0
1765,63.0,256.0,270.0,0.0,0.0
1766,61.0,256.0,270.0,0.0,0.0
1767,56.0,0.0,510.0,4.0,0.0
1768,56.0,0.0,1020.0,1.0,0.0
1769,60.0,256.0,270.0,0.0,0.0
1770,63.0,256.0,270.0,0.0,0.0
1771,68.0,256.0,270.0,0.0,0.0
1772,60.0,0.0,270.0,4.0,0.0
1773,58.0,0.0,270.0,4.0,0.0
1774,72.0,256.0,270.0,0.0,0.0
1775,75.0,256.0,270.0,0.0,0.0
1776,60.0,256.0,510.0,4.0,0.0
1777,68.0,0.0,270.0,0.0,0.0
1778,72.0,256.0,270.0,0.0,0.0
1779,63.0,0.0,510.0,1.0,0.0
1780,56.0,256.0,1020.0,4.0,0.0
1781,75.0,256.0,270.0,0.0,0.0
1782,77.0,256.0,270.0,0.0,0.0
1783,61.0,0.0,1020.0,1.0,0.0
1784,73.0,0.0,270.0,0.0,0.0
1785,55.0,0.0,270.0,4.0,0.0
1786,70.0,256.0,270.0,0.0,0.0
1787,73.0,256.0,270.0,0.0,0.0
1788,56.0,0.0,270.0,4.0,0.0
1789,67.0,256.0,270.0,0.0,0.0
1790,58.0,256.0,510.0,4.0,0.0
1791,77.0,0.0,270.0,0.0,0.0
1792,75.0,256.0,270.0,0.0,0.0
1793,55.0,256.0,510.0,1.0,0.0
1794,51.0,0.0,510.0,4.0,0.0
1795,73.0,0.0,270.0,0.0,0.0
1796,72.0,0.0,510.0,0.0,0.0
1797,56.0,256.0,270.0,1.0,0.0
1798,56.0,256.0,510.0,4.0,0.0
1799,60.0,0.0,270.0,1.0,0.0
1800,74.0,256.0,510.0,0.0,0.0
1801,65.0,256.0,270.0,1.0,0.0
1802,53.0,0.0,510.0,4.0,0.0
1803,68.0,0.0,270.0,1.0,0.0
1804,54.0,256.0,510.0,4.0,0.0
1805,70.0,256.0,270.0,1.0,0.0
1806,75.0,0.0,1530.0,0.0,0.0
1807,63.0,0.0,270.0,1.0,0.0
1808,66.0,256.0,270.0,1.0,0.0
1809,51.0,0.0,510.0,4.0,0.0
1810,70.0,256.0,270.0,1.0,0.0
1811,56.0,256.0,510.0,4.0,0.0
1812,71.0,256.0,270.0,1.0,0.0
1813,68.0,0.0,270.0,1.0,0.0
1814,59.0,256.0,510.0,4.0,0.0
1815,74.0,0.0,270.0,0.0,0.0
1816,65.0,256.0,270.0,1.0,0.0
1817,75.0,0.0,270.0,0.0,0.0
1818,68.0,0.0,270.0,1.0,0.0
1819,77.0,0.0,1530.0,0.0,0.0
1820,62.0,256.0,270.0,1.0,0.0
1821,58.0,256.0,510.0,4.0,0.0
1822,71.0,0.0,270.0,1.0,0.0
1823,70.0,256.0,270.0,1.0,0.0
1824,62.0,256.0,510.0,4.0,0.0
1825,68.0,0.0,270.0,1.0,0.0
1826,66.0,0.0,1020.0,1.0,0.0
1827,63.0,256.0,270.0,4.0,0.0
1828,51.0,256.0,270.0,4.0,0.0
1829,75.0,0.0,1020.0,0.0,0.0
1830,54.0,256.0,270.0,4.0,0.0
1831,58.0,256.0,270.0,4.0,0.0
1832,61.0,256.0,270.0,4.0,0.0
1833,65.0,256.0,510.0,1.0,0.0
1834,58.0,0.0,270.0,4.0,0.0
1835,70.0,0.0,1020.0,1.0,0.0
1836,61.0,256.0,270.0,4.0,0.0
1837,73.0,256.0,510.0,0.0,0.0
1838,65.0,0.0,270.0,4.0,0.0
1839,66.0,256.0,270.0,4.0,0.0
1840,72.0,0.0,270.0,0.0,0.0
1841,73.0,256.0,270.0,0.0,0.0
1842,63.0,0.0,270.0,4.0,0.0
1843,69.0,256.0,270.0,1.0,0.0
1844,60.0,0.0,270.0,4.0,0.0
1845,75.0,0.0,2040.0,0.0,0.0
1846,70.0,0.0,270.0,1.0,0.0
1847,63.0,256.0,270.0,4.0,0.0
1848,72.0,256.0,1530.0,1.0,0.0
1849,57.0,256.0,270.0,4.0,0.0
1850,66.0,256.0,270.0,4.0,0.0
1851,65.0,256.0,270.0,4.0,0.0
1852,63.0,256.0,270.0,4.0,0.0
1853,61.0,256.0,270.0,4.0,0.0
1854,58.0,0.0,270.0,4.0,0.0
1855,61.0,256.0,270.0,4.0,0.0
1856,73.0,256.0,510.0,0.0,0.0
1857,70.0,0.0,510.0,1.0,0.0
1858,65.0,0.0,270.0,4.0,0.0
1859,55.0,256.0,270.0,4.0,0.0
1860,65.0,256.0,270.0,4.0,0.0
1861,63.0,256.0,270.0,4.0,0.0
1862,73.0,0.0,510.0,0.0,0.0
1863,61.0,0.0,270.0,4.0,0.0
1864,73.0,0.0,510.0,0.0,0.0
1865,70.0,256.0,15.0,1.0,0.0
1866,60.0,256.0,270.0,4.0,0.0
1867,56.0,256.0,270.0,4.0,0.0
1868,68.0,256.0,510.0,1.0,0.0
1869,60.0,256.0,270.0,4.0,0.0
1870,72.0,0.0,510.0,0.0,0.0
1871,63.0,0.0,270.0,4.0,0.0
1872,56.0,256.0,270.0,4.0,0.0
1873,66.0,256.0,270.0,4.0,0.0
1874,65.0,256.0,270.0,4.0,0.0
1875,68.0,0.0,510.0,1.0,0.0
1876,63.0,0.0,270.0,4.0,0.0
1877,72.0,256.0,15.0,0.0,0.0
1878,68.0,256.0,510.0,1.0,0.0
1879,61.0,256.0,270.0,4.0,0.0
1880,59.0,0.0,270.0,4.0,0.0
1881,67.0,256.0,510.0,1.0,0.0
1882,70.0,0.0,510.0,0.0,0.0
1883,61.0,256.0,270.0,4.0,0.0
1884,65.0,0.0,270.0,4.0,0.0
1885,52.0,256.0,270.0,4.0,0.0
1886,61.0,256.0,270.0,4.0,0.0
1887,67.0,0.0,510.0,1.0,0.0
1888,60.0,256.0,270.0,4.0,0.0
1889,58.0,0.0,270.0,4.0,0.0
1890,67.0,0.0,510.0,1.0,0.0
1891,56.0,256.0,270.0,4.0,0.0
1892,70.0,256.0,15.0,0.0,0.0
1893,53.0,256.0,270.0,4.0,0.0
1894,68.0,256.0,780.0,0.0,0.0
1895,65.0,256.0,510.0,1.0,0.0
1896,56.0,256.0,270.0,4.0,0.0
1897,60.0,0.0,270.0,4.0,0.0
1898,49.0,256.0,510.0,4.0,0.0
1899,70.0,0.0,270.0,0.0,0.0
1900,73.0,256.0,270.0,0.0,0.0
1901,65.0,0.0,510.0,1.0,0.0
1902,61.0,256.0,1020.0,4.0,0.0
1903,77.0,256.0,270.0,0.0,0.0
1904,67.0,256.0,270.0,0.0,0.0
1905,63.0,0.0,1020.0,1.0,0.0
1906,70.0,0.0,270.0,0.0,0.0
1907,75.0,256.0,780.0,0.0,0.0
1908,60.0,256.0,270.0,4.0,0.0
1909,58.0,256.0,270.0,4.0,0.0
1910,60.0,0.0,1530.0,4.0,0.0
1911,72.0,256.0,270.0,0.0,0.0
1912,63.0,0.0,510.0,1.0,0.0
1913,68.0,256.0,270.0,0.0,0.0
1914,72.0,256.0,270.0,0.0,0.0
1915,61.0,0.0,1020.0,1.0,0.0
1916,65.0,256.0,270.0,0.0,0.0
1917,75.0,256.0,270.0,0.0,0.0
1918,58.0,0.0,270.0,4.0,0.0
1919,73.0,256.0,270.0,0.0,0.0
1920,56.0,256.0,270.0,4.0,0.0
1921,72.0,0.0,270.0,0.0,0.0
1922,73.0,256.0,270.0,0.0,0.0
1923,58.0,0.0,510.0,4.0,0.0
1924,68.0,256.0,270.0,0.0,0.0
1925,51.0,0.0,510.0,4.0,0.0
1926,66.0,256.0,270.0,0.0,0.0
1927,73.0,256.0,270.0,0.0,0.0
1928,56.0,0.0,510.0,4.0,0.0
1929,72.0,256.0,270.0,0.0,0.0
1930,75.0,256.0,270.0,0.0,0.0
1931,72.0,256.0,270.0,0.0,0.0
1932,44.0,0.0,510.0,4.0,0.0
1933,68.0,256.0,270.0,0.0,0.0
1934,56.0,256.0,1530.0,4.0,0.0
1935,65.0,256.0,270.0,0.0,0.0
1936,72.0,256.0,270.0,0.0,0.0
1937,68.0,256.0,270.0,0.0,0.0
1938,65.0,256.0,270.0,0.0,0.0
1939,61.0,256.0,270.0,0.0,0.0
1940,65.0,0.0,270.0,0.0,0.0
1941,70.0,0.0,270.0,0.0,0.0
1942,54.0,256.0,270.0,4.0,0.0
1943,68.0,0.0,270.0,0.0,0.0
1944,53.0,256.0,270.0,4.0,0.0
1945,70.0,256.0,270.0,0.0,0.0
1946,54.0,0.0,1530.0,4.0,0.0
1947,66.0,256.0,270.0,0.0,0.0
1948,63.0,256.0,270.0,0.0,0.0
1949,66.0,512.0,270.0,0.0,0.0
1950,60.0,256.0,510.0,0.0,0.0
1951,56.0,0.0,270.0,1.0,0.0
1952,53.0,256.0,270.0,4.0,0.0
1953,60.0,0.0,270.0,1.0,0.0
1954,63.0,256.0,270.0,1.0,0.0
1955,51.0,0.0,270.0,4.0,0.0
1956,53.0,256.0,510.0,4.0,0.0
1957,68.0,256.0,270.0,1.0,0.0
1958,61.0,0.0,270.0,1.0,0.0
1959,49.0,0.0,510.0,4.0,0.0
1960,73.0,256.0,510.0,0.0,0.0
1961,65.0,256.0,270.0,1.0,0.0
1962,68.0,0.0,270.0,1.0,0.0
1963,54.0,256.0,1020.0,4.0,0.0
1964,70.0,256.0,270.0,1.0,0.0
1965,70.0,0.0,510.0,0.0,0.0
1966,66.0,256.0,270.0,1.0,0.0
1967,78.0,0.0,1020.0,0.0,0.0
1968,63.0,256.0,270.0,1.0,0.0
1969,66.0,0.0,270.0,1.0,0.0
1970,60.0,256.0,270.0,1.0,0.0
1971,56.0,0.0,1530.0,4.0,0.0
1972,70.0,256.0,270.0,1.0,0.0
1973,77.0,0.0,270.0,0.0,0.0
1974,68.0,256.0,270.0,1.0,0.0
1975,66.0,0.0,270.0,1.0,0.0
1976,75.0,256.0,270.0,0.0,0.0
1977,65.0,0.0,510.0,1.0,0.0
1978,37.0,256.0,4110.0,5.0,0.0
1979,73.0,256.0,270.0,0.0,0.0
1980,25.0,0.0,4110.0,6.0,0.0
1981,75.0,256.0,270.0,0.0,0.0
1982,63.0,0.0,270.0,1.0,0.0
1983,72.0,256.0,270.0,0.0,0.0
1984,54.0,0.0,270.0,4.0,0.0
1985,73.0,256.0,270.0,0.0,0.0
1986,53.0,0.0,270.0,4.0,0.0
1987,61.0,0.0,270.0,1.0,0.0
1988,75.0,256.0,270.0,0.0,0.0
1989,54.0,256.0,1530.0,4.0,0.0
1990,60.0,256.0,510.0,1.0,0.0
1991,73.0,0.0,270.0,0.0,0.0
1992,56.0,256.0,510.0,1.0,0.0
1993,72.0,256.0,270.0,0.0,0.0
1994,70.0,0.0,270.0,0.0,0.0
1995,68.0,256.0,270.0,0.0,0.0
1996,61.0,256.0,1290.0,1.0,0.0
1997,70.0,0.0,270.0,0.0,0.0
1998,71.0,256.0,1020.0,0.0,0.0
1999,53.0,256.0,270.0,4.0,0.0
2000,51.0,256.0,270.0,4.0,0.0
2001,53.0,0.0,1530.0,4.0,0.0
2002,63.0,0.0,270.0,1.0,0.0
2003,61.0,256.0,270.0,1.0,0.0
2004,70.0,0.0,270.0,0.0,0.0
2005,68.0,0.0,270.0,0.0,0.0
2006,59.0,0.0,270.0,1.0,0.0
2007,66.0,256.0,270.0,0.0,0.0
2008,27.0,256.0,1020.0,6.0,0.0
2009,58.0,0.0,510.0,1.0,0.0
2010,39.0,0.0,1020.0,5.0,0.0
2011,68.0,256.0,270.0,0.0,0.0
2012,59.0,0.0,1020.0,1.0,0.0
2013,51.0,0.0,1020.0,4.0,0.0
2014,65.0,256.0,270.0,0.0,0.0
2015,66.0,0.0,270.0,0.0,0.0
2016,41.0,0.0,1020.0,5.0,0.0
2017,29.0,0.0,1020.0,6.0,0.0
2018,68.0,256.0,270.0,0.0,0.0
2019,66.0,256.0,270.0,0.0,0.0
2020,65.0,256.0,270.0,0.0,0.0
2021,49.0,256.0,780.0,4.0,0.0
2022,61.0,0.0,270.0,1.0,0.0
2023,59.0,256.0,270.0,1.0,0.0
2024,63.0,0.0,270.0,0.0,0.0
2025,42.0,0.0,2040.0,5.0,0.0
2026,30.0,0.0,2040.0,6.0,0.0
2027,58.0,256.0,510.0,1.0,0.0
2028,61.0,0.0,510.0,0.0,0.0
2029,51.0,0.0,270.0,4.0,0.0
2030,63.0,0.0,510.0,1.0,0.0
2031,66.0,0.0,510.0,0.0,0.0
2032,48.0,256.0,270.0,4.0,0.0
2033,49.0,256.0,270.0,4.0,0.0
2034,51.0,256.0,270.0,4.0,0.0
2035,56.0,256.0,1290.0,1.0,0.0
2036,60.0,256.0,510.0,0.0,0.0
2037,49.0,0.0,270.0,4.0,0.0
2038,48.0,256.0,270.0,4.0,0.0
2039,63.0,256.0,510.0,0.0,0.0
2040,46.0,0.0,270.0,4.0,0.0
2041,41.0,0.0,1020.0,5.0,0.0
2042,29.0,256.0,1020.0,6.0,0.0
2043,44.0,0.0,510.0,4.0,0.0
2044,61.0,0.0,510.0,0.0,0.0
2045,58.0,256.0,270.0,1.0,0.0
2046,65.0,0.0,1020.0,0.0,0.0
2047,49.0,256.0,1020.0,4.0,0.0
2048,54.0,256.0,270.0,1.0,0.0
2049,56.0,0.0,270.0,1.0,0.0
2050,58.0,256.0,270.0,1.0,0.0
2051,30.0,0.0,1020.0,6.0,0.0
2052,42.0,0.0,1020.0,5.0,0.0
2053,56.0,0.0,270.0,1.0,0.0
2054,63.0,0.0,270.0,0.0,0.0
2055,54.0,256.0,270.0,1.0,0.0
2056,46.0,0.0,510.0,4.0,0.0
2057,61.0,0.0,270.0,0.0,0.0
2058,53.0,256.0,270.0,1.0,0.0
2059,32.0,0.0,4110.0,6.0,0.0
2060,51.0,0.0,1020.0,1.0,0.0
2061,44.0,0.0,4110.0,5.0,0.0
2062,48.0,256.0,1020.0,4.0,0.0
2063,60.0,256.0,270.0,0.0,0.0
2064,56.0,256.0,270.0,0.0,0.0
2065,60.0,256.0,270.0,0.0,0.0
2066,63.0,0.0,270.0,0.0,0.0
2067,68.0,256.0,270.0,0.0,0.0
2068,63.0,0.0,270.0,0.0,0.0
2069,44.0,256.0,270.0,4.0,0.0
2070,68.0,0.0,270.0,0.0,0.0
2071,48.0,256.0,270.0,4.0,0.0
2072,70.0,256.0,270.0,0.0,0.0
2073,51.0,0.0,270.0,4.0,0.0
2074,56.0,0.0,1020.0,4.0,0.0
2075,71.0,256.0,270.0,0.0,0.0
2076,68.0,256.0,270.0,0.0,0.0
2077,65.0,256.0,270.0,0.0,0.0
2078,59.0,0.0,510.0,1.0,0.0
2079,68.0,256.0,270.0,0.0,0.0
2080,56.0,0.0,510.0,1.0,0.0
2081,53.0,0.0,510.0,4.0,0.0
2082,62.0,256.0,270.0,0.0,0.0
2083,71.0,256.0,270.0,0.0,0.0
2084,70.0,256.0,270.0,0.0,0.0
2085,50.0,0.0,510.0,4.0,0.0
2086,53.0,0.0,510.0,1.0,0.0
2087,68.0,256.0,270.0,0.0,0.0
2088,39.0,0.0,2040.0,5.0,0.0
2089,27.0,0.0,2040.0,6.0,0.0
2090,58.0,0.0,510.0,1.0,0.0
2091,67.0,256.0,270.0,0.0,0.0
2092,51.0,256.0,510.0,4.0,0.0
2093,63.0,0.0,270.0,0.0,0.0
2094,63.0,256.0,1020.0,1.0,0.0
2095,67.0,256.0,270.0,0.0,0.0
2096,58.0,256.0,780.0,4.0,0.0
2097,70.0,256.0,270.0,0.0,0.0
2098,72.0,256.0,1530.0,0.0,0.0
2099,55.0,0.0,270.0,4.0,0.0
2100,56.0,256.0,270.0,4.0,0.0
2101,60.0,512.0,270.0,4.0,0.0
2102,65.0,0.0,510.0,4.0,0.0
2103,25.0,256.0,1020.0,6.0,0.0
2104,37.0,0.0,1020.0,5.0,0.0
2105,53.0,0.0,270.0,1.0,0.0
2106,58.0,256.0,270.0,1.0,0.0
2107,70.0,0.0,1020.0,0.0,0.0
2108,61.0,0.0,270.0,1.0,0.0
2109,63.0,256.0,270.0,1.0,0.0
2110,36.0,256.0,1020.0,5.0,0.0
2111,24.0,0.0,1020.0,6.0,0.0
2112,56.0,256.0,270.0,1.0,0.0
2113,68.0,0.0,780.0,0.0,0.0
2114,60.0,256.0,270.0,1.0,0.0
2115,63.0,0.0,270.0,1.0,0.0
2116,34.0,256.0,2040.0,5.0,0.0
2117,22.0,0.0,2040.0,6.0,0.0
2118,65.0,256.0,270.0,1.0,0.0
2119,61.0,0.0,270.0,1.0,0.0
2120,65.0,256.0,270.0,0.0,0.0
2121,58.0,0.0,270.0,1.0,0.0
2122,67.0,256.0,270.0,0.0,0.0
2123,61.0,0.0,270.0,1.0,0.0
2124,70.0,256.0,270.0,0.0,0.0
2125,73.0,256.0,510.0,0.0,0.0
2126,55.0,256.0,270.0,1.0,0.0
2127,65.0,0.0,270.0,1.0,0.0
2128,67.0,0.0,510.0,0.0,0.0
2129,63.0,256.0,270.0,1.0,0.0
2130,61.0,0.0,270.0,1.0,0.0
2131,60.0,256.0,270.0,1.0,0.0
2132,68.0,0.0,1020.0,0.0,0.0
2133,20.0,0.0,8190.0,6.0,0.0
2134,32.0,0.0,8190.0,5.0,0.0
2135,61.0,256.0,270.0,1.0,0.0
2136,58.0,256.0,270.0,1.0,0.0
2137,56.0,0.0,1020.0,4.0,0.0
2138,60.0,256.0,270.0,1.0,0.0
2139,70.0,256.0,1020.0,0.0,0.0
2140,61.0,256.0,270.0,1.0,0.0
2141,63.0,256.0,270.0,1.0,0.0
2142,60.0,0.0,270.0,1.0,0.0
2143,55.0,256.0,270.0,4.0,0.0
2144,61.0,0.0,270.0,1.0,0.0
2145,53.0,0.0,270.0,4.0,0.0
2146,51.0,256.0,270.0,4.0,0.0
2147,72.0,0.0,270.0,0.0,0.0
2148,63.0,256.0,510.0,1.0,0.0
2149,53.0,0.0,270.0,4.0,0.0
2150,68.0,0.0,270.0,0.0,0.0
2151,49.0,0.0,270.0,4.0,0.0
2152,65.0,256.0,270.0,0.0,0.0
2153,51.0,256.0,270.0,4.0,0.0
2154,68.0,0.0,270.0,0.0,0.0
2155,61.0,0.0,270.0,0.0,0.0
2156,53.0,256.0,270.0,4.0,0.0
2157,51.0,0.0,270.0,4.0,0.0
2158,72.0,256.0,270.0,0.0,0.0
2159,49.0,256.0,270.0,4.0,0.0
2160,70.0,0.0,270.0,0.0,0.0
2161,48.0,0.0,270.0,4.0,0.0
2162,68.0,256.0,270.0,0.0,0.0
2163,67.0,256.0,270.0,0.0,0.0
2164,46.0,0.0,270.0,4.0,0.0
2165,68.0,0.0,270.0,0.0,0.0
2166,48.0,256.0,270.0,4.0,0.0
2167,49.0,256.0,1020.0,4.0,0.0
2168,65.0,256.0,270.0,0.0,0.0
2169,67.0,256.0,270.0,0.0,0.0
2170,68.0,256.0,270.0,0.0,0.0
2171,65.0,0.0,270.0,0.0,0.0
2172,48.0,0.0,270.0,4.0,0.0
2173,63.0,256.0,270.0,0.0,0.0
2174,46.0,512.0,270.0,4.0,0.0
2175,61.0,0.0,270.0,0.0,0.0
2176,60.0,0.0,510.0,0.0,0.0
2177,44.0,256.0,510.0,4.0,0.0
2178,63.0,0.0,270.0,1.0,0.0
2179,68.0,256.0,1020.0,0.0,0.0
2180,60.0,256.0,270.0,1.0,0.0
2181,48.0,0.0,510.0,4.0,0.0
2182,56.0,256.0,270.0,1.0,0.0
2183,58.0,256.0,270.0,1.0,0.0
2184,49.0,0.0,510.0,4.0,0.0
2185,60.0,0.0,270.0,1.0,0.0
2186,51.0,256.0,510.0,4.0,0.0
2187,61.0,0.0,510.0,1.0,0.0
2188,67.0,256.0,270.0,0.0,0.0
2189,65.0,0.0,270.0,0.0,0.0
2190,63.0,0.0,270.0,0.0,0.0
2191,44.0,0.0,510.0,4.0,0.0
2192,60.0,256.0,270.0,1.0,0.0
2193,65.0,256.0,270.0,0.0,0.0
2194,56.0,0.0,270.0,1.0,0.0
2195,53.0,256.0,270.0,1.0,0.0
2196,61.0,0.0,270.0,0.0,0.0
2197,56.0,0.0,270.0,1.0,0.0
2198,63.0,256.0,270.0,0.0,0.0
2199,49.0,0.0,270.0,1.0,0.0
2200,65.0,256.0,270.0,0.0,0.0
2201,60.0,0.0,270.0,1.0,0.0
2202,63.0,256.0,270.0,0.0,0.0
2203,61.0,0.0,270.0,0.0,0.0
2204,58.0,256.0,270.0,1.0,0.0
2205,60.0,0.0,270.0,0.0,0.0
2206,56.0,256.0,270.0,1.0,0.0
2207,58.0,256.0,270.0,0.0,0.0
2208,55.0,0.0,270.0,1.0,0.0
2209,56.0,0.0,270.0,1.0,0.0
2210,60.0,256.0,270.0,0.0,0.0
2211,53.0,256.0,270.0,1.0,0.0
2212,61.0,0.0,1020.0,0.0,0.0
2213,55.0,256.0,270.0,1.0,0.0
2214,56.0,256.0,270.0,1.0,0.0
2215,53.0,256.0,270.0,1.0,0.0
2216,51.0,256.0,270.0,1.0,0.0
2217,60.0,0.0,270.0,0.0,0.0
2218,49.0,256.0,270.0,1.0,0.0
2219,58.0,0.0,270.0,0.0,0.0
2220,51.0,0.0,1020.0,1.0,0.0
2221,20.0,512.0,4110.0,6.0,0.0
2222,32.0,0.0,4110.0,5.0,0.0
2223,60.0,256.0,270.0,0.0,0.0
2224,56.0,256.0,270.0,0.0,0.0
2225,60.0,256.0,270.0,0.0,0.0
2226,54.0,0.0,510.0,4.0,0.0
2227,63.0,256.0,270.0,0.0,0.0
2228,53.0,0.0,1530.0,4.0,0.0
2229,68.0,256.0,270.0,0.0,0.0
2230,61.0,256.0,270.0,0.0,0.0
2231,56.0,0.0,510.0,1.0,0.0
2232,65.0,256.0,270.0,0.0,0.0
2233,68.0,256.0,270.0,0.0,0.0
2234,54.0,256.0,510.0,1.0,0.0
2235,70.0,256.0,270.0,0.0,0.0
2236,66.0,0.0,270.0,0.0,0.0
2237,54.0,0.0,270.0,4.0,0.0
2238,63.0,256.0,270.0,0.0,0.0
2239,58.0,0.0,510.0,1.0,0.0
2240,66.0,256.0,270.0,0.0,0.0
2241,53.0,0.0,270.0,4.0,0.0
2242,60.0,0.0,1020.0,1.0,0.0
2243,51.0,0.0,1530.0,4.0,0.0
2244,60.0,256.0,270.0,0.0,0.0
2245,70.0,256.0,270.0,0.0,0.0
2246,68.0,256.0,270.0,0.0,0.0
2247,66.0,0.0,270.0,0.0,0.0
2248,65.0,256.0,510.0,0.0,0.0
2249,37.0,0.0,2040.0,5.0,0.0
2250,25.0,0.0,2040.0,6.0,0.0
2251,53.0,0.0,270.0,1.0,0.0
2252,49.0,256.0,270.0,4.0,0.0
2253,56.0,0.0,270.0,1.0,0.0
2254,61.0,0.0,270.0,1.0,0.0
2255,48.0,256.0,270.0,4.0,0.0
2256,65.0,256.0,270.0,1.0,0.0
2257,49.0,0.0,510.0,4.0,0.0
2258,70.0,0.0,2040.0,0.0,0.0
2259,58.0,256.0,270.0,1.0,0.0
2260,53.0,256.0,1020.0,4.0,0.0
2261,61.0,256.0,270.0,1.0,0.0
2262,65.0,256.0,270.0,1.0,0.0
2263,39.0,0.0,2040.0,5.0,0.0
2264,27.0,0.0,2040.0,6.0,0.0
2265,66.0,256.0,270.0,1.0,0.0
2266,63.0,0.0,270.0,1.0,0.0
2267,60.0,0.0,270.0,1.0,0.0
2268,51.0,256.0,270.0,4.0,0.0
2269,63.0,256.0,270.0,1.0,0.0
2270,49.0,0.0,270.0,4.0,0.0
2271,51.0,0.0,510.0,4.0,0.0
2272,72.0,256.0,1020.0,0.0,0.0
2273,56.0,256.0,270.0,1.0,0.0
2274,66.0,256.0,270.0,1.0,0.0
2275,54.0,0.0,1020.0,4.0,0.0
2276,65.0,256.0,270.0,1.0,0.0
2277,63.0,0.0,270.0,1.0,0.0
2278,41.0,256.0,1020.0,5.0,0.0
2279,29.0,0.0,1020.0,6.0,0.0
2280,68.0,256.0,270.0,1.0,0.0
2281,73.0,256.0,510.0,0.0,0.0
2282,65.0,0.0,270.0,1.0,0.0
2283,53.0,256.0,1020.0,4.0,0.0
2284,61.0,256.0,270.0,1.0,0.0
2285,65.0,0.0,270.0,1.0,0.0
2286,42.0,0.0,1020.0,5.0,0.0
2287,30.0,0.0,1020.0,6.0,0.0
2288,58.0,256.0,270.0,1.0,0.0
2289,68.0,0.0,270.0,1.0,0.0
2290,66.0,0.0,270.0,1.0,0.0
2291,51.0,256.0,270.0,4.0,0.0
2292,49.0,256.0,270.0,4.0,0.0
2293,65.0,0.0,270.0,1.0,0.0
2294,63.0,256.0,1020.0,1.0,0.0
2295,32.0,512.0,4110.0,6.0,0.0
2296,44.0,0.0,4110.0,5.0,0.0
2297,48.0,256.0,270.0,4.0,0.0
2298,49.0,256.0,270.0,4.0,0.0
2299,75.0,256.0,1020.0,0.0,0.0
2300,46.0,256.0,270.0,4.0,0.0
2301,48.0,0.0,270.0,4.0,0.0
2302,65.0,0.0,510.0,1.0,0.0
2303,49.0,256.0,270.0,4.0,0.0
2304,48.0,0.0,270.0,4.0,0.0
2305,67.0,0.0,510.0,1.0,0.0
2306,46.0,256.0,270.0,4.0,0.0
2307,73.0,0.0,510.0,0.0,0.0
2308,44.0,256.0,270.0,4.0,0.0
2309,72.0,256.0,270.0,0.0,0.0
2310,68.0,256.0,510.0,1.0,0.0
2311,51.0,0.0,510.0,4.0,0.0
2312,73.0,0.0,270.0,0.0,0.0
2313,70.0,256.0,270.0,0.0,0.0
2314,49.0,0.0,270.0,4.0,0.0
2315,72.0,256.0,270.0,0.0,0.0
2316,51.0,0.0,270.0,4.0,0.0
2317,73.0,256.0,270.0,0.0,0.0
2318,53.0,0.0,1530.0,4.0,0.0
2319,71.0,256.0,270.0,0.0,0.0
2320,70.0,256.0,270.0,0.0,0.0
2321,68.0,0.0,270.0,0.0,0.0
2322,42.0,256.0,2040.0,5.0,0.0
2323,70.0,256.0,1020.0,0.0,0.0
2324,30.0,0.0,2040.0,6.0,0.0
2325,58.0,256.0,270.0,1.0,0.0
2326,51.0,0.0,270.0,4.0,0.0
2327,63.0,256.0,270.0,1.0,0.0
2328,50.0,0.0,270.0,4.0,0.0
2329,66.0,0.0,270.0,1.0,0.0
2330,70.0,256.0,270.0,1.0,0.0
2331,51.0,256.0,1530.0,4.0,0.0
2332,63.0,256.0,270.0,1.0,0.0
2333,66.0,256.0,270.0,1.0,0.0
2334,70.0,0.0,270.0,1.0,0.0
2335,71.0,256.0,270.0,1.0,0.0
2336,29.0,0.0,2040.0,6.0,0.0
2337,41.0,256.0,2040.0,5.0,0.0
2338,68.0,0.0,270.0,1.0,0.0
2339,50.0,256.0,270.0,4.0,0.0
2340,65.0,0.0,270.0,1.0,0.0
2341,51.0,256.0,270.0,4.0,0.0
2342,68.0,0.0,270.0,1.0,0.0
2343,53.0,0.0,1020.0,4.0,0.0
2344,62.0,256.0,270.0,1.0,0.0
2345,71.0,256.0,270.0,1.0,0.0
2346,70.0,256.0,270.0,1.0,0.0
2347,74.0,0.0,510.0,0.0,0.0
2348,68.0,0.0,270.0,1.0,0.0
2349,27.0,0.0,2040.0,6.0,0.0
2350,46.0,256.0,510.0,4.0,0.0
2351,75.0,0.0,510.0,0.0,0.0
2352,66.0,256.0,270.0,1.0,0.0
2353,39.0,0.0,2040.0,5.0,0.0
2354,65.0,0.0,270.0,1.0,0.0
2355,63.0,256.0,270.0,1.0,0.0
2356,78.0,256.0,1020.0,0.0,0.0
2357,61.0,256.0,270.0,1.0,0.0
2358,60.0,256.0,270.0,1.0,0.0
2359,58.0,0.0,270.0,1.0,0.0
2360,57.0,0.0,270.0,1.0,0.0
2361,77.0,256.0,270.0,0.0,0.0
2362,60.0,0.0,270.0,1.0,0.0
2363,75.0,256.0,270.0,0.0,0.0
2364,34.0,0.0,2040.0,5.0,0.0
2365,73.0,256.0,270.0,0.0,0.0
2366,22.0,256.0,2040.0,6.0,0.0
2367,58.0,256.0,1020.0,1.0,0.0
2368,75.0,256.0,270.0,0.0,0.0
2369,72.0,256.0,270.0,0.0,0.0
2370,49.0,0.0,510.0,4.0,0.0
2371,73.0,0.0,270.0,0.0,0.0
2372,75.0,256.0,270.0,0.0,0.0
2373,54.0,256.0,1290.0,4.0,0.0
2374,73.0,256.0,270.0,0.0,0.0
2375,61.0,0.0,510.0,1.0,0.0
2376,72.0,256.0,270.0,0.0,0.0
2377,70.0,0.0,270.0,0.0,0.0
2378,36.0,256.0,2040.0,5.0,0.0
2379,24.0,0.0,2040.0,6.0,0.0
2380,63.0,256.0,1020.0,1.0,0.0
2381,68.0,256.0,2310.0,0.0,0.0
2382,56.0,256.0,270.0,4.0,0.0
2383,53.0,256.0,270.0,4.0,0.0
2384,54.0,0.0,270.0,4.0,0.0
2385,56.0,256.0,270.0,4.0,0.0
2386,54.0,256.0,270.0,4.0,0.0
2387,53.0,256.0,270.0,4.0,0.0
2388,63.0,0.0,510.0,1.0,0.0
2389,51.0,0.0,270.0,4.0,0.0
2390,25.0,0.0,2040.0,6.0,0.0
2391,56.0,256.0,510.0,1.0,0.0
2392,37.0,256.0,2040.0,5.0,0.0
2393,53.0,0.0,510.0,4.0,0.0
2394,70.0,0.0,270.0,0.0,0.0
2395,66.0,256.0,270.0,0.0,0.0
2396,49.0,0.0,510.0,4.0,0.0
2397,65.0,256.0,1020.0,1.0,0.0
2398,68.0,256.0,270.0,0.0,0.0
2399,54.0,0.0,1530.0,4.0,0.0
2400,70.0,256.0,270.0,0.0,0.0
2401,68.0,0.0,270.0,0.0,0.0
2402,66.0,0.0,270.0,0.0,0.0
2403,63.0,256.0,270.0,1.0,0.0
2404,65.0,0.0,270.0,0.0,0.0
2405,61.0,0.0,270.0,1.0,0.0
2406,39.0,0.0,2040.0,5.0,0.0
2407,63.0,0.0,270.0,0.0,0.0
2408,27.0,0.0,2040.0,6.0,0.0
2409,59.0,256.0,270.0,1.0,0.0
2410,65.0,256.0,270.0,0.0,0.0
2411,61.0,0.0,270.0,1.0,0.0
2412,42.0,256.0,270.0,4.0,0.0
2413,66.0,0.0,1020.0,0.0,0.0
2414,58.0,0.0,270.0,1.0,0.0
2415,60.0,256.0,270.0,1.0,0.0
2416,44.0,0.0,270.0,4.0,0.0
2417,46.0,256.0,510.0,4.0,0.0
2418,61.0,128.0,270.0,1.0,0.0
2419,60.0,128.0,120.0,1.0,0.0
2420,58.0,0.0,120.0,1.0,0.0
2421,56.0,0.0,270.0,1.0,0.0
2422,65.0,256.0,270.0,0.0,0.0
2423,48.0,0.0,510.0,4.0,0.0
2424,63.0,256.0,270.0,0.0,0.0
2425,54.0,0.0,270.0,1.0,0.0
2426,37.0,0.0,2040.0,5.0,0.0
2427,25.0,256.0,2040.0,6.0,0.0
2428,49.0,0.0,1020.0,4.0,0.0
2429,53.0,256.0,270.0,1.0,0.0
2430,65.0,256.0,1020.0,0.0,0.0
2431,56.0,256.0,270.0,1.0,0.0
2432,54.0,256.0,270.0,1.0,0.0
2433,56.0,0.0,270.0,1.0,0.0
2434,58.0,256.0,270.0,1.0,0.0
2435,56.0,256.0,270.0,1.0,0.0
2436,54.0,256.0,270.0,1.0,0.0
2437,49.0,256.0,780.0,4.0,0.0
2438,53.0,0.0,270.0,1.0,0.0
2439,51.0,256.0,780.0,1.0,0.0
2440,47.0,256.0,270.0,4.0,0.0
2441,46.0,0.0,270.0,4.0,0.0
2442,47.0,64.0,270.0,4.0,0.0
2443,53.0,0.0,270.0,1.0,0.0
2444,49.0,0.0,270.0,4.0,0.0
2445,54.0,64.0,60.0,1.0,0.0
2446,53.0,64.0,60.0,1.0,0.0
2447,54.0,64.0,60.0,1.0,0.0
2448,53.0,64.0,60.0,1.0,0.0
2449,54.0,192.0,60.0,1.0,0.0
2450,47.0,256.0,270.0,4.0,0.0
2451,53.0,0.0,450.0,1.0,0.0
2452,46.0,128.0,270.0,4.0,0.0
2453,44.0,0.0,270.0,4.0,0.0
2454,51.0,128.0,120.0,1.0,0.0
2455,53.0,512.0,120.0,1.0,0.0
2456,46.0,0.0,780.0,4.0,0.0
2457,54.0,0.0,2310.0,1.0,0.0
2458,61.0,256.0,270.0,0.0,0.0
2459,60.0,256.0,270.0,0.0,0.0
2460,48.0,256.0,270.0,4.0,0.0
2461,61.0,0.0,270.0,0.0,0.0
2462,48.0,256.0,780.0,4.0,0.0
2463,63.0,256.0,270.0,0.0,0.0
2464,61.0,256.0,270.0,0.0,0.0
2465,60.0,0.0,270.0,0.0,0.0
2466,58.0,256.0,270.0,0.0,0.0
2467,49.0,0.0,270.0,4.0,0.0
2468,56.0,256.0,270.0,0.0,0.0
2469,49.0,256.0,2310.0,4.0,0.0
2470,68.0,256.0,270.0,0.0,0.0
2471,53.0,0.0,270.0,1.0,0.0
2472,51.0,256.0,270.0,1.0,0.0
2473,66.0,0.0,270.0,0.0,0.0
2474,53.0,0.0,270.0,1.0,0.0
2475,68.0,256.0,270.0,0.0,0.0
2476,54.0,0.0,270.0,1.0,0.0
2477,70.0,256.0,270.0,0.0,0.0
2478,53.0,256.0,270.0,1.0,0.0
2479,68.0,0.0,270.0,0.0,0.0
2480,66.0,0.0,270.0,0.0,0.0
2481,51.0,256.0,270.0,1.0,0.0
2482,65.0,0.0,270.0,0.0,0.0
2483,49.0,256.0,270.0,1.0,0.0
2484,63.0,0.0,270.0,0.0,0.0
2485,56.0,256.0,2310.0,1.0,0.0
2486,48.0,256.0,270.0,4.0,0.0
2487,75.0,0.0,270.0,0.0,0.0
2488,73.0,0.0,270.0,0.0,0.0
2489,46.0,256.0,270.0,4.0,0.0
2490,75.0,256.0,270.0,0.0,0.0
2491,48.0,0.0,270.0,4.0,0.0
2492,77.0,0.0,270.0,0.0,0.0
2493,49.0,256.0,270.0,4.0,0.0
2494,48.0,0.0,270.0,4.0,0.0
2495,75.0,256.0,270.0,0.0,0.0
2496,46.0,0.0,270.0,4.0,0.0
2497,73.0,256.0,270.0,0.0,0.0
2498,72.0,0.0,270.0,0.0,0.0
2499,44.0,256.0,270.0,4.0,0.0
2500,51.0,0.0,2040.0,4.0,0.0
2501,70.0,256.0,780.0,0.0,0.0
2502,54.0,256.0,270.0,1.0,0.0
2503,53.0,0.0,270.0,1.0,0.0
2504,72.0,0.0,270.0,0.0,0.0
2505,54.0,64.0,270.0,1.0,0.0
2506,56.0,0.0,270.0,1.0,0.0
2507,73.0,64.0,60.0,0.0,0.0
2508,72.0,64.0,60.0,0.0,0.0
2509,73.0,64.0,60.0,0.0,0.0
2510,72.0,64.0,60.0,0.0,0.0
2511,54.0,256.0,270.0,1.0,0.0
2512,73.0,192.0,60.0,0.0,0.0
2513,72.0,0.0,450.0,0.0,0.0
2514,53.0,256.0,270.0,1.0,0.0
2515,51.0,0.0,270.0,1.0,0.0
2516,53.0,256.0,270.0,1.0,0.0
2517,73.0,256.0,15.0,0.0,0.0
2518,46.0,256.0,1020.0,4.0,0.0
2519,65.0,256.0,270.0,1.0,0.0
2520,63.0,256.0,270.0,1.0,0.0
2521,65.0,0.0,270.0,1.0,0.0
2522,66.0,256.0,270.0,1.0,0.0
2523,58.0,256.0,1290.0,4.0,0.0
2524,65.0,256.0,270.0,1.0,0.0
2525,63.0,256.0,270.0,1.0,0.0
2526,61.0,256.0,270.0,1.0,0.0
2527,72.0,256.0,2310.0,0.0,0.0
2528,63.0,256.0,780.0,1.0,0.0
2529,57.0,256.0,270.0,4.0,0.0
2530,55.0,0.0,270.0,4.0,0.0
2531,57.0,64.0,270.0,4.0,0.0
2532,58.0,64.0,270.0,4.0,0.0
2533,66.0,0.0,15.0,1.0,0.0
2534,65.0,64.0,60.0,1.0,0.0
2535,66.0,64.0,60.0,1.0,0.0
2536,65.0,0.0,60.0,1.0,0.0
2537,57.0,256.0,270.0,4.0,0.0
2538,66.0,192.0,60.0,1.0,0.0
2539,65.0,256.0,450.0,1.0,0.0
2540,55.0,0.0,270.0,4.0,0.0
2541,63.0,0.0,270.0,1.0,0.0
2542,53.0,256.0,270.0,4.0,0.0
2543,58.0,0.0,780.0,4.0,0.0
2544,61.0,0.0,780.0,1.0,0.0
2545,70.0,256.0,270.0,0.0,0.0
2546,69.0,256.0,270.0,0.0,0.0
2547,70.0,0.0,270.0,0.0,0.0
2548,56.0,64.0,15.0,4.0,0.0
2549,72.0,0.0,270.0,0.0,0.0
2550,63.0,0.0,15.0,1.0,0.0
2551,54.0,64.0,60.0,4.0,0.0
2552,56.0,64.0,60.0,4.0,0.0
2553,54.0,64.0,60.0,4.0,0.0
2554,56.0,192.0,60.0,4.0,0.0
2555,70.0,256.0,270.0,0.0,0.0
2556,54.0,0.0,450.0,4.0,0.0
2557,69.0,128.0,270.0,0.0,0.0
2558,53.0,128.0,120.0,4.0,0.0
2559,70.0,256.0,270.0,0.0,0.0
2560,54.0,0.0,120.0,4.0,0.0
2561,53.0,256.0,270.0,4.0,0.0
2562,69.0,0.0,780.0,0.0,0.0
2563,54.0,256.0,270.0,4.0,0.0
2564,51.0,256.0,270.0,4.0,0.0
2565,53.0,256.0,270.0,4.0,0.0
2566,65.0,0.0,270.0,0.0,0.0
2567,61.0,256.0,780.0,1.0,0.0
2568,54.0,256.0,270.0,4.0,0.0
2569,70.0,0.0,1800.0,0.0,0.0
2570,53.0,256.0,270.0,4.0,0.0
2571,51.0,0.0,270.0,4.0,0.0
2572,58.0,256.0,270.0,1.0,0.0
2573,49.0,0.0,270.0,4.0,0.0
2574,51.0,256.0,270.0,4.0,0.0
2575,60.0,256.0,1800.0,1.0,0.0
2576,53.0,256.0,270.0,4.0,0.0
2577,49.0,256.0,270.0,4.0,0.0
2578,51.0,256.0,270.0,4.0,0.0
2579,72.0,0.0,270.0,0.0,0.0
2580,53.0,256.0,270.0,4.0,0.0
2581,68.0,0.0,2040.0,0.0,0.0
2582,51.0,256.0,270.0,4.0,0.0
2583,50.0,0.0,270.0,4.0,0.0
2584,48.0,0.0,270.0,4.0,0.0
2585,65.0,256.0,270.0,1.0,0.0
2586,50.0,0.0,780.0,4.0,0.0
2587,58.0,256.0,270.0,1.0,0.0
2588,59.0,256.0,270.0,1.0,0.0
2589,56.0,256.0,270.0,1.0,0.0
2590,58.0,0.0,270.0,1.0,0.0
2591,46.0,256.0,270.0,4.0,0.0
2592,51.0,0.0,2040.0,4.0,0.0
2593,59.0,256.0,270.0,1.0,0.0
2594,66.0,0.0,780.0,0.0,0.0
2595,58.0,256.0,270.0,1.0,0.0
2596,56.0,256.0,270.0,1.0,0.0
2597,71.0,256.0,270.0,0.0,0.0
2598,54.0,0.0,270.0,1.0,0.0
2599,56.0,0.0,270.0,1.0,0.0
2600,65.0,256.0,270.0,0.0,0.0
2601,59.0,0.0,270.0,1.0,0.0
2602,68.0,256.0,270.0,0.0,0.0
2603,66.0,0.0,270.0,0.0,0.0
2604,58.0,256.0,270.0,1.0,0.0
2605,68.0,0.0,270.0,0.0,0.0
2606,59.0,256.0,270.0,1.0,0.0
2607,50.0,256.0,1020.0,4.0,0.0
2608,53.0,0.0,510.0,1.0,0.0
2609,70.0,256.0,270.0,0.0,0.0
2610,68.0,256.0,270.0,0.0,0.0
2611,66.0,256.0,270.0,0.0,0.0
2612,58.0,256.0,780.0,1.0,0.0
2613,65.0,0.0,270.0,0.0,0.0
2614,66.0,0.0,270.0,0.0,0.0
2615,27.0,0.0,2040.0,6.0,0.0
2616,39.0,0.0,2040.0,5.0,0.0
2617,51.0,256.0,1020.0,4.0,0.0
2618,65.0,256.0,270.0,1.0,0.0
2619,73.0,0.0,270.0,0.0,0.0
2620,72.0,0.0,270.0,0.0,0.0
2621,63.0,256.0,270.0,1.0,0.0
2622,73.0,0.0,270.0,0.0,0.0
2623,65.0,0.0,270.0,1.0,0.0
2624,75.0,0.0,270.0,0.0,0.0
2625,66.0,256.0,270.0,1.0,0.0
2626,65.0,256.0,270.0,1.0,0.0
2627,73.0,0.0,270.0,0.0,0.0
2628,72.0,0.0,270.0,0.0,0.0
2629,63.0,256.0,270.0,1.0,0.0
2630,70.0,256.0,270.0,0.0,0.0
2631,61.0,0.0,270.0,1.0,0.0
2632,29.0,0.0,1530.0,6.0,0.0
2633,41.0,0.0,1530.0,5.0,0.0
2634,60.0,256.0,270.0,1.0,0.0
2635,69.0,0.0,510.0,0.0,0.0
2636,58.0,0.0,270.0,4.0,0.0
2637,61.0,256.0,270.0,1.0,0.0
2638,57.0,0.0,270.0,4.0,0.0
2639,60.0,256.0,270.0,1.0,0.0
2640,58.0,256.0,270.0,4.0,0.0
2641,61.0,0.0,270.0,1.0,0.0
2642,63.0,0.0,270.0,1.0,0.0
2643,60.0,256.0,270.0,4.0,0.0
2644,61.0,256.0,270.0,1.0,0.0
2645,58.0,0.0,270.0,4.0,0.0
2646,27.0,512.0,510.0,6.0,0.0
2647,57.0,256.0,270.0,4.0,0.0
2648,39.0,0.0,510.0,5.0,0.0
2649,60.0,0.0,1020.0,1.0,0.0
2650,55.0,0.0,270.0,4.0,0.0
2651,25.0,0.0,1530.0,6.0,0.0
2652,53.0,256.0,510.0,4.0,0.0
2653,37.0,256.0,1530.0,5.0,0.0
2654,65.0,0.0,270.0,0.0,0.0
2655,58.0,0.0,510.0,1.0,0.0
2656,49.0,0.0,510.0,4.0,0.0
2657,66.0,256.0,270.0,0.0,0.0
2658,65.0,256.0,270.0,0.0,0.0
2659,63.0,256.0,1290.0,1.0,0.0
2660,54.0,0.0,510.0,4.0,0.0
2661,63.0,256.0,270.0,0.0,0.0
2662,65.0,0.0,270.0,0.0,0.0
2663,53.0,0.0,270.0,4.0,0.0
2664,24.0,256.0,510.0,6.0,0.0
2665,67.0,256.0,270.0,0.0,0.0
2666,36.0,0.0,510.0,5.0,0.0
2667,51.0,0.0,270.0,4.0,0.0
2668,69.0,0.0,270.0,0.0,0.0
2669,53.0,0.0,270.0,4.0,0.0
2670,34.0,0.0,6150.0,5.0,0.0
2671,70.0,0.0,2550.0,0.0,0.0
2672,22.0,0.0,6150.0,6.0,0.0
2673,54.0,256.0,270.0,4.0,0.0
2674,63.0,0.0,270.0,1.0,0.0
2675,53.0,0.0,270.0,4.0,0.0
2676,65.0,256.0,270.0,1.0,0.0
2677,63.0,0.0,270.0,1.0,0.0
2678,54.0,256.0,270.0,4.0,0.0
2679,56.0,0.0,270.0,4.0,0.0
2680,62.0,256.0,270.0,1.0,0.0
2681,54.0,0.0,270.0,4.0,0.0
2682,63.0,256.0,270.0,1.0,0.0
2683,53.0,0.0,270.0,4.0,0.0
2684,65.0,256.0,270.0,1.0,0.0
2685,51.0,0.0,270.0,4.0,0.0
2686,66.0,512.0,270.0,1.0,0.0
2687,68.0,256.0,510.0,1.0,0.0
2688,50.0,0.0,510.0,4.0,0.0
2689,58.0,0.0,270.0,2.0,0.0
2690,75.0,0.0,510.0,0.0,0.0
2691,51.0,0.0,510.0,4.0,0.0
2692,59.0,256.0,270.0,2.0,0.0
2693,66.0,0.0,510.0,1.0,0.0
2694,58.0,256.0,270.0,2.0,0.0
2695,74.0,256.0,510.0,0.0,0.0
2696,53.0,0.0,1020.0,4.0,0.0
2697,65.0,0.0,510.0,1.0,0.0
2698,56.0,256.0,270.0,2.0,0.0
2699,58.0,0.0,270.0,2.0,0.0
2700,60.0,256.0,270.0,2.0,0.0
2701,77.0,0.0,510.0,0.0,0.0
2702,68.0,512.0,510.0,1.0,0.0
2703,62.0,0.0,270.0,2.0,0.0
2704,66.0,0.0,510.0,1.0,0.0
2705,70.0,256.0,510.0,0.0,0.0
2706,63.0,0.0,510.0,2.0,0.0
2707,51.0,0.0,270.0,4.0,0.0
2708,54.0,256.0,270.0,4.0,0.0
2709,63.0,0.0,510.0,1.0,0.0
2710,69.0,256.0,510.0,0.0,0.0
2711,60.0,0.0,510.0,2.0,0.0
2712,53.0,0.0,270.0,4.0,0.0
2713,51.0,256.0,270.0,4.0,0.0
2714,53.0,256.0,270.0,4.0,0.0
2715,55.0,256.0,270.0,4.0,0.0
2716,57.0,0.0,270.0,4.0,0.0
2717,63.0,256.0,15.0,2.0,0.0
2718,65.0,0.0,15.0,1.0,0.0
2719,72.0,0.0,15.0,0.0,0.0
2720,58.0,256.0,270.0,4.0,0.0
2721,41.0,256.0,270.0,4.0,0.0
2722,61.0,256.0,510.0,2.0,0.0
2723,70.0,0.0,510.0,0.0,0.0
2724,46.0,256.0,270.0,4.0,0.0
2725,49.0,0.0,270.0,4.0,0.0
2726,53.0,256.0,270.0,4.0,0.0
2727,46.0,256.0,270.0,4.0,0.0
2728,65.0,0.0,510.0,2.0,0.0
2729,70.0,256.0,510.0,1.0,0.0
2730,49.0,256.0,270.0,4.0,0.0
2731,53.0,0.0,270.0,4.0,0.0
2732,70.0,0.0,1020.0,2.0,0.0
2733,77.0,0.0,15.0,0.0,0.0
2734,73.0,0.0,510.0,1.0,0.0
2735,54.0,256.0,270.0,4.0,0.0
2736,51.0,256.0,270.0,4.0,0.0
2737,75.0,256.0,510.0,0.0,0.0
2738,72.0,0.0,510.0,1.0,0.0
2739,48.0,256.0,270.0,4.0,0.0
2740,51.0,0.0,270.0,4.0,0.0
2741,45.0,256.0,270.0,4.0,0.0
2742,54.0,256.0,270.0,4.0,0.0
2743,65.0,0.0,510.0,2.0,0.0
2744,53.0,256.0,270.0,4.0,0.0
2745,69.0,0.0,510.0,2.0,0.0
2746,72.0,0.0,510.0,1.0,0.0
2747,51.0,256.0,270.0,4.0,0.0
2748,75.0,0.0,15.0,0.0,0.0
2749,49.0,256.0,270.0,4.0,0.0
2750,65.0,512.0,1020.0,2.0,0.0
2751,69.0,0.0,510.0,2.0,0.0
2752,72.0,0.0,510.0,1.0,0.0
2753,46.0,0.0,270.0,4.0,0.0
2754,49.0,0.0,270.0,4.0,0.0
2755,73.0,256.0,270.0,0.0,0.0
2756,70.0,0.0,270.0,1.0,0.0
2757,70.0,0.0,510.0,2.0,0.0
2758,72.0,0.0,270.0,0.0,0.0
2759,69.0,0.0,270.0,1.0,0.0
2760,53.0,0.0,270.0,4.0,0.0
2761,70.0,0.0,780.0,1.0,0.0
2762,58.0,0.0,2040.0,4.0,0.0
2763,73.0,0.0,1020.0,0.0,0.0
2764,70.0,256.0,780.0,2.0,0.0
2765,65.0,256.0,270.0,3.0,0.0
2766,66.0,0.0,270.0,3.0,0.0
2767,68.0,256.0,270.0,2.0,0.0
2768,68.0,0.0,270.0,1.0,0.0
2769,65.0,0.0,270.0,3.0,0.0
2770,72.0,0.0,2040.0,0.0,0.0
2771,70.0,0.0,270.0,1.0,0.0
2772,63.0,256.0,270.0,3.0,0.0
2773,72.0,0.0,270.0,1.0,0.0
2774,65.0,256.0,270.0,3.0,0.0
2775,61.0,0.0,270.0,3.0,0.0
2776,68.0,256.0,270.0,1.0,0.0
2777,70.0,256.0,270.0,1.0,0.0
2778,63.0,0.0,270.0,3.0,0.0
2779,56.0,0.0,2040.0,4.0,0.0
2780,72.0,0.0,270.0,1.0,0.0
2781,65.0,256.0,270.0,3.0,0.0
2782,70.0,256.0,270.0,1.0,0.0
2783,63.0,0.0,270.0,3.0,0.0
2784,68.0,256.0,270.0,1.0,0.0
2785,62.0,0.0,270.0,3.0,0.0
2786,60.0,0.0,270.0,3.0,0.0
2787,66.0,256.0,270.0,1.0,0.0
2788,62.0,256.0,270.0,3.0,0.0
2789,70.0,0.0,2040.0,1.0,0.0
2790,77.0,0.0,270.0,0.0,0.0
2791,58.0,256.0,270.0,3.0,0.0
2792,60.0,256.0,270.0,3.0,0.0
2793,75.0,0.0,270.0,0.0,0.0
2794,62.0,256.0,270.0,3.0,0.0
2795,77.0,0.0,270.0,0.0,0.0
2796,54.0,256.0,1290.0,4.0,0.0
2797,63.0,256.0,270.0,3.0,0.0
2798,78.0,0.0,270.0,0.0,0.0
2799,77.0,256.0,270.0,0.0,0.0
2800,61.0,0.0,270.0,3.0,0.0
2801,75.0,0.0,270.0,0.0,0.0
2802,60.0,256.0,270.0,3.0,0.0
2803,73.0,256.0,270.0,0.0,0.0
2804,58.0,0.0,270.0,3.0,0.0
2805,63.0,0.0,1020.0,3.0,0.0
2806,72.0,256.0,1020.0,0.0,0.0
2807,68.0,0.0,2040.0,1.0,0.0
2808,44.0,256.0,270.0,4.0,0.0
2809,48.0,256.0,270.0,4.0,0.0
2810,51.0,0.0,270.0,4.0,0.0
2811,65.0,0.0,1020.0,3.0,0.0
2812,73.0,0.0,1530.0,0.0,0.0
2813,56.0,256.0,270.0,4.0,0.0
2814,49.0,256.0,270.0,4.0,0.0
2815,53.0,256.0,270.0,4.0,0.0
2816,56.0,256.0,270.0,4.0,0.0
2817,27.0,0.0,2040.0,6.0,0.0
2818,66.0,0.0,2040.0,1.0,0.0
2819,63.0,0.0,2040.0,3.0,0.0
2820,58.0,256.0,270.0,4.0,0.0
2821,39.0,0.0,2040.0,5.0,0.0
2822,54.0,256.0,270.0,4.0,0.0
2823,72.0,0.0,270.0,0.0,0.0
2824,51.0,256.0,270.0,4.0,0.0
2825,70.0,0.0,270.0,0.0,0.0
2826,54.0,256.0,270.0,4.0,0.0
2827,48.0,256.0,270.0,4.0,0.0
2828,72.0,0.0,1020.0,0.0,0.0
2829,58.0,256.0,270.0,4.0,0.0
2830,56.0,256.0,270.0,4.0,0.0
2831,54.0,512.0,270.0,4.0,0.0
2832,61.0,0.0,1020.0,3.0,0.0
2833,34.0,0.0,2040.0,5.0,0.0
2834,22.0,0.0,2040.0,6.0,0.0
2835,53.0,256.0,510.0,4.0,0.0
2836,73.0,0.0,1020.0,0.0,0.0
2837,70.0,0.0,270.0,1.0,0.0
2838,66.0,256.0,270.0,1.0,0.0
2839,49.0,0.0,510.0,4.0,0.0
2840,68.0,256.0,270.0,1.0,0.0
2841,54.0,256.0,1530.0,4.0,0.0
2842,70.0,256.0,270.0,1.0,0.0
2843,68.0,256.0,270.0,1.0,0.0
2844,61.0,0.0,510.0,3.0,0.0
2845,66.0,256.0,270.0,1.0,0.0
2846,65.0,256.0,270.0,1.0,0.0
2847,56.0,256.0,270.0,3.0,0.0
2848,36.0,256.0,2040.0,5.0,0.0
2849,24.0,0.0,2040.0,6.0,0.0
2850,63.0,0.0,2310.0,1.0,0.0
2851,75.0,0.0,270.0,0.0,0.0
2852,60.0,0.0,270.0,3.0,0.0
2853,51.0,0.0,510.0,4.0,0.0
2854,56.0,0.0,270.0,3.0,0.0
2855,72.0,256.0,270.0,0.0,0.0
2856,58.0,0.0,270.0,3.0,0.0
2857,73.0,256.0,270.0,0.0,0.0
2858,75.0,0.0,270.0,0.0,0.0
2859,60.0,256.0,270.0,3.0,0.0
2860,58.0,0.0,270.0,3.0,0.0
2861,73.0,256.0,270.0,0.0,0.0
2862,56.0,0.0,270.0,3.0,0.0
2863,72.0,256.0,270.0,0.0,0.0
2864,54.0,0.0,270.0,3.0,0.0
2865,70.0,0.0,270.0,0.0,0.0
2866,53.0,256.0,270.0,3.0,0.0
2867,68.0,256.0,2310.0,0.0,0.0
2868,37.0,256.0,5130.0,5.0,0.0
2869,25.0,0.0,5130.0,6.0,0.0
2870,56.0,0.0,270.0,3.0,0.0
2871,65.0,256.0,270.0,1.0,0.0
2872,53.0,0.0,270.0,3.0,0.0
2873,61.0,256.0,270.0,1.0,0.0
2874,54.0,0.0,270.0,3.0,0.0
2875,63.0,256.0,270.0,1.0,0.0
2876,56.0,0.0,270.0,3.0,0.0
2877,65.0,256.0,270.0,1.0,0.0
2878,54.0,0.0,270.0,3.0,0.0
2879,63.0,256.0,270.0,1.0,0.0
2880,53.0,256.0,270.0,3.0,0.0
2881,44.0,0.0,510.0,4.0,0.0
2882,61.0,0.0,270.0,1.0,0.0
2883,59.0,256.0,270.0,1.0,0.0
2884,51.0,0.0,270.0,3.0,0.0
2885,49.0,0.0,1020.0,3.0,0.0
2886,46.0,0.0,510.0,4.0,0.0
2887,58.0,0.0,780.0,1.0,0.0
2888,65.0,256.0,270.0,0.0,0.0
2889,42.0,256.0,510.0,4.0,0.0
2890,66.0,256.0,270.0,0.0,0.0
2891,70.0,0.0,270.0,0.0,0.0
2892,60.0,0.0,15.0,1.0,0.0
2893,68.0,256.0,270.0,0.0,0.0
2894,66.0,256.0,270.0,0.0,0.0
2895,65.0,0.0,270.0,0.0,0.0
2896,63.0,0.0,270.0,0.0,0.0
2897,58.0,128.0,120.0,1.0,0.0
2898,60.0,256.0,120.0,1.0,0.0
2899,65.0,256.0,270.0,0.0,0.0
2900,61.0,0.0,270.0,1.0,0.0
2901,53.0,0.0,270.0,3.0,0.0
2902,61.0,256.0,270.0,0.0,0.0
2903,56.0,256.0,270.0,3.0,0.0
2904,65.0,0.0,270.0,0.0,0.0
2905,68.0,0.0,270.0,0.0,0.0
2906,61.0,0.0,270.0,3.0,0.0
2907,65.0,256.0,270.0,3.0,0.0
2908,73.0,0.0,270.0,0.0,0.0
2909,68.0,0.0,270.0,0.0,0.0
2910,61.0,256.0,270.0,3.0,0.0
2911,56.0,0.0,1020.0,2.0,0.0
2912,29.0,256.0,510.0,6.0,0.0
2913,73.0,0.0,270.0,0.0,0.0
2914,41.0,0.0,510.0,5.0,0.0
2915,56.0,256.0,270.0,3.0,0.0
2916,75.0,0.0,270.0,0.0,0.0
2917,53.0,0.0,270.0,3.0,0.0
2918,22.0,0.0,1020.0,6.0,0.0
2919,49.0,0.0,1020.0,3.0,0.0
2920,34.0,0.0,1020.0,5.0,0.0
2921,76.0,256.0,270.0,0.0,0.0
2922,73.0,256.0,270.0,0.0,0.0
2923,70.0,256.0,270.0,0.0,0.0
2924,55.0,256.0,510.0,2.0,0.0
2925,73.0,0.0,270.0,0.0,0.0
2926,67.0,256.0,270.0,0.0,0.0
2927,76.0,256.0,270.0,0.0,0.0
2928,27.0,512.0,510.0,6.0,0.0
2929,46.0,0.0,510.0,4.0,0.0
2930,55.0,0.0,510.0,2.0,0.0
2931,75.0,256.0,270.0,0.0,0.0
2932,39.0,0.0,510.0,5.0,0.0
2933,73.0,0.0,270.0,0.0,0.0
2934,20.0,0.0,4110.0,6.0,0.0
2935,51.0,0.0,15.0,3.0,0.0
2936,32.0,0.0,4110.0,5.0,0.0
2937,56.0,256.0,1800.0,2.0,0.0
2938,72.0,256.0,1290.0,0.0,0.0
2939,44.0,0.0,8190.0,4.0,0.0
2940,70.0,256.0,270.0,1.0,0.0
2941,68.0,256.0,270.0,1.0,0.0
2942,66.0,256.0,270.0,1.0,0.0
2943,65.0,0.0,780.0,1.0,0.0
2944,68.0,0.0,270.0,0.0,0.0
2945,49.0,0.0,510.0,3.0,0.0
2946,55.0,256.0,270.0,2.0,0.0
2947,64.0,0.0,270.0,1.0,0.0
2948,51.0,0.0,2040.0,3.0,0.0
2949,56.0,0.0,6150.0,2.0,0.0
2950,63.0,256.0,1290.0,1.0,0.0
2951,73.0,256.0,15.0,0.0,0.0
2952,72.0,256.0,270.0,0.0,0.0
2953,70.0,256.0,270.0,0.0,0.0
2954,72.0,256.0,780.0,0.0,0.0
2955,65.0,256.0,270.0,1.0,0.0
2956,66.0,0.0,510.0,1.0,0.0
2957,72.0,4096.0,270.0,0.0,0.0
2958,25.0,0.0,4110.0,6.0,0.0
2959,37.0,0.0,4110.0,5.0,0.0
2960,65.0,0.0,4110.0,1.0,0.0
2961,49.0,0.0,4110.0,3.0,0.0
2962,73.0,0.0,4110.0,0.0,0.0
