,note,step,duration,channel,velocity
0,47.0,50.0,3360.0,2.0,0.0
1,63.0,60.0,60.0,0.0,0.0
2,64.0,60.0,60.0,0.0,0.0
3,66.0,60.0,60.0,0.0,0.0
4,64.0,60.0,60.0,0.0,0.0
5,63.0,60.0,60.0,0.0,0.0
6,61.0,180.0,60.0,0.0,0.0
7,59.0,60.0,660.0,0.0,0.0
8,69.0,60.0,540.0,0.0,0.0
9,51.0,60.0,60.0,1.0,0.0
10,52.0,60.0,60.0,1.0,0.0
11,54.0,60.0,60.0,1.0,0.0
12,52.0,60.0,60.0,1.0,0.0
13,51.0,60.0,60.0,1.0,0.0
14,49.0,60.0,60.0,1.0,0.0
15,47.0,60.0,60.0,1.0,0.0
16,52.0,70.0,540.0,1.0,0.0
17,68.0,0.0,60.0,0.0,0.0
18,69.0,60.0,60.0,0.0,0.0
19,71.0,60.0,60.0,0.0,0.0
20,69.0,60.0,60.0,0.0,0.0
21,68.0,60.0,60.0,0.0,0.0
22,66.0,110.0,60.0,0.0,0.0
23,64.0,60.0,660.0,0.0,0.0
24,73.0,60.0,540.0,0.0,0.0
25,52.0,60.0,60.0,1.0,0.0
26,54.0,60.0,60.0,1.0,0.0
27,56.0,60.0,60.0,1.0,0.0
28,54.0,60.0,60.0,1.0,0.0
29,52.0,60.0,60.0,1.0,0.0
30,51.0,60.0,60.0,1.0,0.0
31,49.0,60.0,60.0,1.0,0.0
32,58.0,70.0,540.0,1.0,0.0
33,70.0,0.0,60.0,0.0,0.0
34,71.0,60.0,60.0,0.0,0.0
35,73.0,60.0,60.0,0.0,0.0
36,71.0,60.0,60.0,0.0,0.0
37,70.0,60.0,60.0,0.0,0.0
38,68.0,110.0,60.0,0.0,0.0
39,66.0,0.0,660.0,0.0,0.0
40,76.0,60.0,540.0,0.0,0.0
41,58.0,60.0,60.0,1.0,0.0
42,59.0,60.0,60.0,1.0,0.0
43,61.0,60.0,60.0,1.0,0.0
44,59.0,60.0,60.0,1.0,0.0
45,58.0,60.0,60.0,1.0,0.0
46,56.0,60.0,60.0,1.0,0.0
47,54.0,60.0,60.0,1.0,0.0
48,59.0,70.0,540.0,1.0,0.0
49,73.0,60.0,60.0,0.0,0.0
50,75.0,60.0,60.0,0.0,0.0
51,76.0,60.0,60.0,0.0,0.0
52,75.0,60.0,60.0,0.0,0.0
53,73.0,60.0,60.0,0.0,0.0
54,71.0,60.0,60.0,0.0,0.0
55,70.0,0.0,60.0,0.0,0.0
56,71.0,0.0,540.0,0.0,0.0
57,75.0,10.0,540.0,0.0,0.0
58,59.0,60.0,60.0,1.0,0.0
59,61.0,60.0,60.0,1.0,0.0
60,63.0,60.0,60.0,1.0,0.0
61,61.0,60.0,60.0,1.0,0.0
62,59.0,60.0,60.0,1.0,0.0
63,58.0,60.0,60.0,1.0,0.0
64,56.0,50.0,60.0,1.0,0.0
65,54.0,60.0,60.0,1.0,0.0
66,56.0,0.0,60.0,1.0,0.0
67,71.0,60.0,60.0,0.0,0.0
68,58.0,60.0,60.0,1.0,0.0
69,73.0,0.0,60.0,0.0,0.0
70,75.0,60.0,60.0,0.0,0.0
71,59.0,0.0,60.0,1.0,0.0
72,73.0,0.0,60.0,0.0,0.0
73,58.0,60.0,60.0,1.0,0.0
74,71.0,0.0,60.0,0.0,0.0
75,56.0,60.0,60.0,1.0,0.0
76,54.0,60.0,60.0,1.0,0.0
77,70.0,0.0,60.0,0.0,0.0
78,68.0,60.0,540.0,0.0,0.0
79,52.0,60.0,60.0,1.0,0.0
80,80.0,0.0,540.0,0.0,0.0
81,51.0,60.0,60.0,1.0,0.0
82,47.0,60.0,60.0,1.0,0.0
83,49.0,60.0,60.0,1.0,0.0
84,51.0,60.0,60.0,1.0,0.0
85,49.0,60.0,60.0,1.0,0.0
86,47.0,60.0,60.0,1.0,0.0
87,46.0,60.0,60.0,1.0,0.0
88,44.0,0.0,60.0,1.0,0.0
89,49.0,60.0,60.0,1.0,0.0
90,70.0,0.0,120.0,0.0,0.0
91,77.0,0.0,60.0,0.0,0.0
92,44.0,60.0,60.0,1.0,0.0
93,46.0,0.0,60.0,1.0,0.0
94,78.0,60.0,60.0,0.0,0.0
95,47.0,0.0,60.0,1.0,0.0
96,80.0,60.0,60.0,0.0,0.0
97,46.0,0.0,60.0,1.0,0.0
98,78.0,60.0,60.0,0.0,0.0
99,77.0,60.0,60.0,0.0,0.0
100,44.0,0.0,60.0,1.0,0.0
101,75.0,60.0,60.0,0.0,0.0
102,42.0,0.0,60.0,1.0,0.0
103,73.0,60.0,60.0,0.0,0.0
104,41.0,0.0,60.0,1.0,0.0
105,78.0,0.0,60.0,0.0,0.0
106,46.0,60.0,60.0,1.0,0.0
107,77.0,0.0,60.0,0.0,0.0
108,42.0,60.0,60.0,1.0,0.0
109,75.0,60.0,60.0,0.0,0.0
110,44.0,0.0,60.0,1.0,0.0
111,46.0,0.0,60.0,1.0,0.0
112,73.0,60.0,60.0,0.0,0.0
113,71.0,60.0,60.0,0.0,0.0
114,44.0,0.0,60.0,1.0,0.0
115,42.0,0.0,60.0,1.0,0.0
116,70.0,60.0,60.0,0.0,0.0
117,41.0,60.0,60.0,1.0,0.0
118,68.0,0.0,60.0,0.0,0.0
119,66.0,120.0,60.0,0.0,0.0
120,39.0,0.0,60.0,1.0,0.0
121,71.0,0.0,480.0,0.0,0.0
122,47.0,60.0,60.0,1.0,0.0
123,49.0,60.0,60.0,1.0,0.0
124,51.0,60.0,60.0,1.0,0.0
125,49.0,60.0,60.0,1.0,0.0
126,47.0,60.0,60.0,1.0,0.0
127,46.0,60.0,60.0,1.0,0.0
128,44.0,120.0,60.0,1.0,0.0
129,53.0,0.0,480.0,1.0,0.0
130,71.0,60.0,60.0,0.0,0.0
131,73.0,60.0,60.0,0.0,0.0
132,75.0,60.0,60.0,0.0,0.0
133,73.0,60.0,60.0,0.0,0.0
134,71.0,60.0,60.0,0.0,0.0
135,70.0,60.0,60.0,0.0,0.0
136,68.0,0.0,60.0,0.0,0.0
137,70.0,30.0,30.0,0.0,0.0
138,54.0,0.0,960.0,1.0,0.0
139,42.0,0.0,1920.0,1.0,0.0
140,68.0,30.0,30.0,0.0,0.0
141,70.0,30.0,30.0,0.0,0.0
142,71.0,30.0,30.0,0.0,0.0
143,70.0,30.0,30.0,0.0,0.0
144,68.0,30.0,30.0,0.0,0.0
145,66.0,30.0,30.0,0.0,0.0
146,65.0,30.0,30.0,0.0,0.0
147,66.0,30.0,30.0,0.0,0.0
148,65.0,30.0,30.0,0.0,0.0
149,66.0,30.0,30.0,0.0,0.0
150,68.0,30.0,30.0,0.0,0.0
151,66.0,30.0,30.0,0.0,0.0
152,64.0,30.0,30.0,0.0,0.0
153,63.0,30.0,30.0,0.0,0.0
154,61.0,30.0,30.0,0.0,0.0
155,63.0,30.0,30.0,0.0,0.0
156,61.0,30.0,30.0,0.0,0.0
157,63.0,30.0,30.0,0.0,0.0
158,64.0,30.0,30.0,0.0,0.0
159,63.0,30.0,30.0,0.0,0.0
160,61.0,30.0,30.0,0.0,0.0
161,59.0,30.0,30.0,0.0,0.0
162,58.0,30.0,30.0,0.0,0.0
163,59.0,30.0,30.0,0.0,0.0
164,58.0,30.0,30.0,0.0,0.0
165,59.0,30.0,30.0,0.0,0.0
166,61.0,30.0,30.0,0.0,0.0
167,59.0,30.0,30.0,0.0,0.0
168,58.0,30.0,30.0,0.0,0.0
169,56.0,30.0,30.0,0.0,0.0
170,54.0,60.0,30.0,0.0,0.0
171,53.0,240.0,960.0,1.0,0.0
172,56.0,30.0,30.0,0.0,0.0
173,58.0,30.0,30.0,0.0,0.0
174,59.0,30.0,30.0,0.0,0.0
175,61.0,30.0,30.0,0.0,0.0
176,63.0,30.0,30.0,0.0,0.0
177,65.0,30.0,30.0,0.0,0.0
178,66.0,30.0,30.0,0.0,0.0
179,68.0,30.0,30.0,0.0,0.0
180,65.0,30.0,30.0,0.0,0.0
181,61.0,30.0,30.0,0.0,0.0
182,63.0,30.0,30.0,0.0,0.0
183,65.0,30.0,30.0,0.0,0.0
184,66.0,30.0,30.0,0.0,0.0
185,68.0,30.0,30.0,0.0,0.0
186,70.0,120.0,30.0,0.0,0.0
187,71.0,45.0,120.0,0.0,0.0
188,68.0,0.0,480.0,0.0,0.0
189,73.0,15.0,15.0,0.0,0.0
190,71.0,30.0,15.0,0.0,0.0
191,70.0,30.0,30.0,0.0,0.0
192,71.0,22.0,30.0,0.0,0.0
193,73.0,20.0,20.0,0.0,0.0
194,71.0,20.0,20.0,0.0,0.0
195,73.0,20.0,20.0,0.0,0.0
196,71.0,20.0,20.0,0.0,0.0
197,73.0,20.0,20.0,0.0,0.0
198,71.0,20.0,20.0,0.0,0.0
199,73.0,20.0,20.0,0.0,0.0
200,71.0,20.0,20.0,0.0,0.0
201,73.0,20.0,20.0,0.0,0.0
202,71.0,38.0,20.0,0.0,0.0
203,61.0,480.0,240.0,0.0,0.0
204,70.0,0.0,15.0,0.0,0.0
205,54.0,0.0,240.0,1.0,0.0
206,59.0,240.0,480.0,1.0,0.0
207,49.0,0.0,240.0,1.0,0.0
208,54.0,240.0,480.0,1.0,0.0
209,58.0,240.0,240.0,1.0,0.0
210,56.0,240.0,480.0,1.0,0.0
211,52.0,0.0,240.0,1.0,0.0
212,59.0,240.0,240.0,0.0,0.0
213,54.0,0.0,240.0,1.0,0.0
214,51.0,240.0,480.0,1.0,0.0
215,56.0,0.0,240.0,1.0,0.0
216,64.0,240.0,480.0,0.0,0.0
217,58.0,0.0,240.0,1.0,0.0
218,49.0,0.0,240.0,1.0,0.0
219,59.0,240.0,240.0,1.0,0.0
220,63.0,0.0,480.0,0.0,0.0
221,66.0,0.0,240.0,0.0,0.0
222,47.0,0.0,480.0,1.0,0.0
223,71.0,4.0,480.0,0.0,0.0
224,57.0,236.0,240.0,1.0,0.0
225,56.0,240.0,240.0,1.0,0.0
226,61.0,0.0,480.0,0.0,0.0
227,52.0,240.0,480.0,1.0,0.0
228,70.0,0.0,240.0,0.0,0.0
229,54.0,240.0,480.0,1.0,0.0
230,51.0,0.0,240.0,1.0,0.0
231,71.0,240.0,480.0,0.0,0.0
232,63.0,0.0,480.0,0.0,0.0
233,59.0,240.0,480.0,1.0,0.0
234,56.0,0.0,480.0,1.0,0.0
235,68.0,0.0,240.0,0.0,0.0
236,76.0,240.0,480.0,0.0,0.0
237,61.0,0.0,240.0,1.0,0.0
238,66.0,240.0,480.0,0.0,0.0
239,58.0,0.0,240.0,1.0,0.0
240,59.0,14.0,480.0,1.0,0.0
241,75.0,106.0,480.0,0.0,0.0
242,68.0,224.0,510.0,0.0,0.0
243,52.0,16.0,480.0,1.0,0.0
244,73.0,120.0,120.0,0.0,0.0
245,64.0,240.0,480.0,1.0,0.0
246,71.0,0.0,120.0,0.0,0.0
247,54.0,0.0,960.0,1.0,0.0
248,70.0,0.0,240.0,0.0,0.0
249,66.0,120.0,840.0,0.0,0.0
250,71.0,120.0,480.0,0.0,0.0
251,63.0,240.0,240.0,1.0,0.0
252,61.0,0.0,480.0,1.0,0.0
253,70.0,0.0,240.0,0.0,0.0
254,64.0,240.0,120.0,0.0,0.0
255,72.0,0.0,240.0,0.0,0.0
256,63.0,240.0,240.0,0.0,0.0
257,56.0,0.0,480.0,1.0,0.0
258,52.0,0.0,240.0,1.0,0.0
259,68.0,240.0,240.0,0.0,0.0
260,73.0,0.0,480.0,0.0,0.0
261,51.0,120.0,240.0,1.0,0.0
262,67.0,0.0,240.0,0.0,0.0
263,58.0,0.0,240.0,1.0,0.0
264,71.0,0.0,240.0,0.0,0.0
265,68.0,120.0,120.0,0.0,0.0
266,59.0,0.0,240.0,1.0,0.0
267,56.0,0.0,480.0,1.0,0.0
268,66.0,120.0,120.0,0.0,0.0
269,70.0,240.0,240.0,0.0,0.0
270,61.0,120.0,120.0,1.0,0.0
271,64.0,0.0,240.0,0.0,0.0
272,59.0,0.0,120.0,1.0,0.0
273,66.0,0.0,240.0,0.0,0.0
274,75.0,0.0,480.0,0.0,0.0
275,58.0,240.0,240.0,1.0,0.0
276,54.0,0.0,240.0,1.0,0.0
277,56.0,240.0,240.0,1.0,0.0
278,59.0,0.0,240.0,1.0,0.0
279,64.0,0.0,720.0,0.0,0.0
280,61.0,240.0,240.0,1.0,0.0
281,58.0,0.0,240.0,1.0,0.0
282,73.0,120.0,480.0,0.0,0.0
283,51.0,110.0,360.0,1.0,0.0
284,54.0,10.0,480.0,1.0,0.0
285,63.0,0.0,240.0,0.0,0.0
286,71.0,120.0,480.0,0.0,0.0
287,52.0,240.0,120.0,1.0,0.0
288,61.0,0.0,240.0,0.0,0.0
289,54.0,0.0,720.0,1.0,0.0
290,70.0,120.0,480.0,0.0,0.0
291,42.0,240.0,240.0,1.0,0.0
292,63.0,120.0,120.0,0.0,0.0
293,64.0,0.0,120.0,0.0,0.0
294,63.0,0.0,480.0,0.0,0.0
295,47.0,120.0,720.0,1.0,0.0
296,68.0,112.0,120.0,0.0,0.0
297,59.0,8.0,120.0,1.0,0.0
298,58.0,5.0,120.0,1.0,0.0
299,66.0,235.0,120.0,0.0,0.0
300,56.0,0.0,240.0,1.0,0.0
301,65.0,0.0,240.0,0.0,0.0
302,61.0,0.0,720.0,0.0,0.0
303,58.0,120.0,120.0,1.0,0.0
304,66.0,60.0,480.0,0.0,0.0
305,46.0,120.0,240.0,1.0,0.0
306,56.0,0.0,120.0,1.0,0.0
307,54.0,120.0,120.0,1.0,0.0
308,51.0,0.0,480.0,1.0,0.0
309,52.0,0.0,120.0,1.0,0.0
310,59.0,60.0,60.0,0.0,0.0
311,54.0,240.0,240.0,1.0,0.0
312,71.0,120.0,480.0,0.0,0.0
313,70.0,60.0,60.0,0.0,0.0
314,68.0,60.0,60.0,0.0,0.0
315,66.0,0.0,60.0,0.0,0.0
316,49.0,0.0,960.0,1.0,0.0
317,56.0,0.0,240.0,1.0,0.0
318,65.0,0.0,240.0,0.0,0.0
319,70.0,240.0,240.0,0.0,0.0
320,66.0,120.0,480.0,0.0,0.0
321,58.0,120.0,120.0,1.0,0.0
322,59.0,0.0,120.0,1.0,0.0
323,61.0,120.0,360.0,1.0,0.0
324,68.0,120.0,480.0,0.0,0.0
325,64.0,60.0,480.0,0.0,0.0
326,59.0,0.0,120.0,1.0,0.0
327,51.0,60.0,300.0,1.0,0.0
328,58.0,120.0,120.0,1.0,0.0
329,66.0,0.0,480.0,0.0,0.0
330,54.0,0.0,120.0,1.0,0.0
331,59.0,240.0,480.0,1.0,0.0
332,63.0,0.0,480.0,0.0,0.0
333,49.0,60.0,60.0,1.0,0.0
334,47.0,60.0,60.0,1.0,0.0
335,46.0,240.0,60.0,1.0,0.0
336,64.0,240.0,480.0,0.0,0.0
337,44.0,0.0,240.0,1.0,0.0
338,46.0,0.0,240.0,1.0,0.0
339,54.0,120.0,960.0,1.0,0.0
340,61.0,60.0,480.0,0.0,0.0
341,47.0,60.0,300.0,1.0,0.0
342,63.0,0.0,720.0,0.0,0.0
343,59.0,0.0,120.0,0.0,0.0
344,45.0,60.0,60.0,1.0,0.0
345,57.0,0.0,120.0,0.0,0.0
346,44.0,60.0,60.0,1.0,0.0
347,42.0,240.0,60.0,1.0,0.0
348,56.0,120.0,720.0,0.0,0.0
349,40.0,0.0,480.0,1.0,0.0
350,61.0,0.0,120.0,0.0,0.0
351,52.0,120.0,120.0,1.0,0.0
352,59.0,240.0,120.0,0.0,0.0
353,51.0,0.0,120.0,1.0,0.0
354,49.0,0.0,240.0,1.0,0.0
355,58.0,0.0,480.0,0.0,0.0
356,42.0,0.0,480.0,1.0,0.0
357,51.0,120.0,120.0,1.0,0.0
358,54.0,120.0,480.0,0.0,0.0
359,49.0,240.0,120.0,1.0,0.0
360,59.0,0.0,720.0,0.0,0.0
361,44.0,0.0,480.0,1.0,0.0
362,47.0,120.0,360.0,1.0,0.0
363,53.0,0.0,240.0,0.0,0.0
364,49.0,240.0,120.0,1.0,0.0
365,54.0,60.0,540.0,0.0,0.0
366,51.0,120.0,240.0,1.0,0.0
367,42.0,60.0,720.0,1.0,0.0
368,58.0,0.0,120.0,0.0,0.0
369,49.0,120.0,120.0,1.0,0.0
370,56.0,60.0,120.0,0.0,0.0
371,47.0,0.0,120.0,1.0,0.0
372,49.0,0.0,240.0,1.0,0.0
373,58.0,0.0,240.0,0.0,0.0
374,66.0,60.0,60.0,0.0,0.0
375,68.0,60.0,60.0,0.0,0.0
376,70.0,0.0,60.0,0.0,0.0
377,47.0,60.0,480.0,1.0,0.0
378,68.0,60.0,60.0,0.0,0.0
379,66.0,60.0,60.0,0.0,0.0
380,65.0,60.0,60.0,0.0,0.0
381,63.0,120.0,60.0,0.0,0.0
382,61.0,60.0,120.0,0.0,0.0
383,63.0,60.0,60.0,0.0,0.0
384,65.0,0.0,60.0,0.0,0.0
385,66.0,60.0,60.0,0.0,0.0
386,46.0,60.0,240.0,1.0,0.0
387,65.0,60.0,60.0,0.0,0.0
388,63.0,60.0,60.0,0.0,0.0
389,61.0,0.0,60.0,0.0,0.0
390,51.0,0.0,480.0,1.0,0.0
391,59.0,60.0,60.0,0.0,0.0
392,58.0,60.0,60.0,0.0,0.0
393,56.0,60.0,60.0,0.0,0.0
394,54.0,120.0,60.0,0.0,0.0
395,59.0,120.0,120.0,0.0,0.0
396,59.0,120.0,15.0,0.0,0.0
397,49.0,60.0,480.0,1.0,0.0
398,64.0,60.0,60.0,0.0,0.0
399,66.0,60.0,60.0,0.0,0.0
400,68.0,0.0,60.0,0.0,0.0
401,58.0,0.0,240.0,0.0,0.0
402,66.0,60.0,60.0,0.0,0.0
403,64.0,60.0,60.0,0.0,0.0
404,63.0,60.0,60.0,0.0,0.0
405,61.0,0.0,60.0,0.0,0.0
406,59.0,0.0,240.0,0.0,0.0
407,47.0,60.0,360.0,1.0,0.0
408,63.0,60.0,60.0,0.0,0.0
409,71.0,60.0,60.0,0.0,0.0
410,73.0,60.0,60.0,0.0,0.0
411,75.0,60.0,60.0,0.0,0.0
412,52.0,0.0,480.0,1.0,0.0
413,73.0,60.0,60.0,0.0,0.0
414,71.0,0.0,60.0,0.0,0.0
415,70.0,60.0,60.0,0.0,0.0
416,49.0,0.0,120.0,1.0,0.0
417,68.0,120.0,60.0,0.0,0.0
418,51.0,0.0,120.0,1.0,0.0
419,66.0,60.0,120.0,0.0,0.0
420,49.0,60.0,120.0,1.0,0.0
421,68.0,60.0,60.0,0.0,0.0
422,70.0,0.0,60.0,0.0,0.0
423,71.0,60.0,60.0,0.0,0.0
424,51.0,0.0,240.0,1.0,0.0
425,47.0,0.0,120.0,1.0,0.0
426,70.0,60.0,60.0,0.0,0.0
427,46.0,0.0,120.0,1.0,0.0
428,68.0,60.0,60.0,0.0,0.0
429,66.0,60.0,60.0,0.0,0.0
430,44.0,0.0,60.0,1.0,0.0
431,56.0,0.0,480.0,0.0,0.0
432,64.0,60.0,60.0,0.0,0.0
433,63.0,60.0,60.0,0.0,0.0
434,47.0,0.0,60.0,1.0,0.0
435,61.0,60.0,60.0,0.0,0.0
436,49.0,0.0,60.0,1.0,0.0
437,59.0,60.0,60.0,0.0,0.0
438,51.0,0.0,60.0,1.0,0.0
439,64.0,0.0,120.0,0.0,0.0
440,49.0,60.0,60.0,1.0,0.0
441,47.0,60.0,60.0,1.0,0.0
442,46.0,60.0,60.0,1.0,0.0
443,44.0,0.0,60.0,1.0,0.0
444,47.0,60.0,60.0,1.0,0.0
445,54.0,60.0,300.0,0.0,0.0
446,64.0,60.0,15.0,0.0,0.0
447,46.0,60.0,60.0,1.0,0.0
448,44.0,60.0,60.0,1.0,0.0
449,42.0,60.0,60.0,1.0,0.0
450,63.0,50.0,480.0,0.0,0.0
451,47.0,60.0,120.0,1.0,0.0
452,58.0,0.0,60.0,0.0,0.0
453,59.0,60.0,60.0,0.0,0.0
454,46.0,0.0,120.0,1.0,0.0
455,61.0,60.0,60.0,0.0,0.0
456,44.0,70.0,300.0,1.0,0.0
457,59.0,60.0,60.0,0.0,0.0
458,58.0,60.0,60.0,0.0,0.0
459,56.0,60.0,60.0,0.0,0.0
460,54.0,0.0,60.0,0.0,0.0
461,59.0,0.0,120.0,0.0,0.0
462,65.0,60.0,240.0,0.0,0.0
463,44.0,60.0,60.0,1.0,0.0
464,46.0,60.0,60.0,1.0,0.0
465,56.0,0.0,120.0,0.0,0.0
466,47.0,0.0,60.0,1.0,0.0
467,46.0,60.0,60.0,1.0,0.0
468,66.0,60.0,120.0,0.0,0.0
469,61.0,70.0,300.0,0.0,0.0
470,44.0,0.0,60.0,1.0,0.0
471,42.0,60.0,60.0,1.0,0.0
472,68.0,0.0,120.0,0.0,0.0
473,41.0,50.0,60.0,1.0,0.0
474,42.0,0.0,120.0,1.0,0.0
475,70.0,70.0,540.0,0.0,0.0
476,61.0,60.0,60.0,0.0,0.0
477,54.0,10.0,120.0,1.0,0.0
478,63.0,50.0,60.0,0.0,0.0
479,64.0,60.0,60.0,0.0,0.0
480,63.0,60.0,60.0,0.0,0.0
481,54.0,50.0,240.0,1.0,0.0
482,47.0,0.0,480.0,1.0,0.0
483,61.0,60.0,60.0,0.0,0.0
484,59.0,60.0,60.0,0.0,0.0
485,58.0,0.0,60.0,0.0,0.0
486,59.0,0.0,480.0,1.0,0.0
487,63.0,0.0,240.0,0.0,0.0
488,70.0,60.0,60.0,0.0,0.0
489,68.0,60.0,60.0,0.0,0.0
490,66.0,120.0,60.0,0.0,0.0
491,65.0,60.0,120.0,0.0,0.0
492,61.0,50.0,720.0,0.0,0.0
493,49.0,0.0,60.0,1.0,0.0
494,66.0,0.0,60.0,0.0,0.0
495,51.0,60.0,60.0,1.0,0.0
496,68.0,60.0,60.0,0.0,0.0
497,53.0,0.0,60.0,1.0,0.0
498,70.0,70.0,540.0,0.0,0.0
499,54.0,60.0,60.0,1.0,0.0
500,58.0,0.0,480.0,1.0,0.0
501,53.0,60.0,60.0,1.0,0.0
502,51.0,60.0,60.0,1.0,0.0
503,49.0,60.0,60.0,1.0,0.0
504,47.0,60.0,60.0,1.0,0.0
505,63.0,120.0,480.0,0.0,0.0
506,46.0,60.0,60.0,1.0,0.0
507,44.0,60.0,60.0,1.0,0.0
508,42.0,0.0,60.0,1.0,0.0
509,59.0,60.0,120.0,1.0,0.0
510,68.0,0.0,60.0,0.0,0.0
511,70.0,60.0,60.0,0.0,0.0
512,47.0,0.0,15.0,1.0,0.0
513,58.0,0.0,120.0,1.0,0.0
514,71.0,0.0,60.0,0.0,0.0
515,56.0,0.0,240.0,1.0,0.0
516,47.0,0.0,240.0,1.0,0.0
517,73.0,0.0,240.0,0.0,0.0
518,65.0,60.0,60.0,0.0,0.0
519,66.0,60.0,60.0,0.0,0.0
520,68.0,60.0,60.0,0.0,0.0
521,58.0,70.0,300.0,1.0,0.0
522,46.0,50.0,240.0,1.0,0.0
523,66.0,60.0,60.0,0.0,0.0
524,65.0,60.0,60.0,0.0,0.0
525,63.0,60.0,60.0,0.0,0.0
526,61.0,0.0,60.0,0.0,0.0
527,66.0,70.0,540.0,0.0,0.0
528,51.0,0.0,540.0,1.0,0.0
529,73.0,0.0,60.0,0.0,0.0
530,58.0,60.0,60.0,1.0,0.0
531,75.0,60.0,60.0,0.0,0.0
532,59.0,0.0,60.0,1.0,0.0
533,76.0,60.0,60.0,0.0,0.0
534,61.0,0.0,60.0,1.0,0.0
535,59.0,60.0,60.0,1.0,0.0
536,75.0,0.0,60.0,0.0,0.0
537,73.0,0.0,60.0,0.0,0.0
538,58.0,60.0,60.0,1.0,0.0
539,71.0,0.0,60.0,0.0,0.0
540,56.0,60.0,60.0,1.0,0.0
541,54.0,50.0,60.0,1.0,0.0
542,70.0,0.0,60.0,0.0,0.0
543,56.0,60.0,1200.0,1.0,0.0
544,71.0,70.0,540.0,0.0,0.0
545,51.0,60.0,60.0,1.0,0.0
546,66.0,0.0,60.0,0.0,0.0
547,68.0,0.0,60.0,0.0,0.0
548,53.0,60.0,60.0,1.0,0.0
549,70.0,0.0,60.0,0.0,0.0
550,54.0,60.0,60.0,1.0,0.0
551,68.0,0.0,60.0,0.0,0.0
552,53.0,60.0,60.0,1.0,0.0
553,66.0,60.0,60.0,0.0,0.0
554,51.0,0.0,60.0,1.0,0.0
555,65.0,0.0,60.0,0.0,0.0
556,49.0,60.0,60.0,1.0,0.0
557,47.0,0.0,60.0,1.0,0.0
558,63.0,50.0,60.0,0.0,0.0
559,49.0,120.0,480.0,1.0,0.0
560,65.0,0.0,600.0,0.0,0.0
561,71.0,60.0,60.0,0.0,0.0
562,73.0,60.0,60.0,0.0,0.0
563,75.0,60.0,60.0,0.0,0.0
564,73.0,60.0,60.0,0.0,0.0
565,71.0,60.0,60.0,0.0,0.0
566,70.0,60.0,60.0,0.0,0.0
567,68.0,0.0,60.0,0.0,0.0
568,70.0,60.0,720.0,0.0,0.0
569,50.0,60.0,60.0,1.0,0.0
570,58.0,0.0,120.0,0.0,0.0
571,51.0,60.0,60.0,1.0,0.0
572,53.0,0.0,60.0,1.0,0.0
573,51.0,60.0,60.0,1.0,0.0
574,54.0,120.0,240.0,1.0,0.0
575,63.0,0.0,120.0,0.0,0.0
576,49.0,60.0,60.0,1.0,0.0
577,61.0,0.0,120.0,0.0,0.0
578,47.0,60.0,60.0,1.0,0.0
579,46.0,0.0,60.0,1.0,0.0
580,44.0,0.0,480.0,1.0,0.0
581,59.0,120.0,480.0,0.0,0.0
582,51.0,60.0,60.0,1.0,0.0
583,53.0,60.0,60.0,1.0,0.0
584,54.0,0.0,60.0,1.0,0.0
585,53.0,60.0,60.0,1.0,0.0
586,68.0,0.0,360.0,0.0,0.0
587,51.0,60.0,60.0,1.0,0.0
588,50.0,60.0,60.0,1.0,0.0
589,48.0,0.0,60.0,1.0,0.0
590,58.0,120.0,240.0,0.0,0.0
591,50.0,120.0,120.0,1.0,0.0
592,46.0,0.0,480.0,1.0,0.0
593,66.0,0.0,120.0,0.0,0.0
594,51.0,120.0,240.0,1.0,0.0
595,65.0,0.0,240.0,0.0,0.0
596,56.0,0.0,240.0,0.0,0.0
597,50.0,120.0,120.0,1.0,0.0
598,63.0,60.0,240.0,0.0,0.0
599,54.0,0.0,240.0,0.0,0.0
600,39.0,0.0,240.0,1.0,0.0
601,51.0,60.0,60.0,1.0,0.0
602,52.0,60.0,60.0,1.0,0.0
603,54.0,0.0,60.0,1.0,0.0
604,59.0,0.0,480.0,0.0,0.0
605,52.0,60.0,60.0,1.0,0.0
606,51.0,60.0,60.0,1.0,0.0
607,49.0,60.0,60.0,1.0,0.0
608,47.0,120.0,60.0,1.0,0.0
609,54.0,60.0,240.0,1.0,0.0
610,61.0,0.0,240.0,0.0,0.0
611,46.0,60.0,60.0,1.0,0.0
612,47.0,60.0,60.0,1.0,0.0
613,49.0,0.0,60.0,1.0,0.0
614,47.0,60.0,60.0,1.0,0.0
615,58.0,120.0,240.0,0.0,0.0
616,66.0,0.0,480.0,0.0,0.0
617,46.0,60.0,60.0,1.0,0.0
618,44.0,60.0,60.0,1.0,0.0
619,42.0,0.0,60.0,1.0,0.0
620,48.0,0.0,240.0,1.0,0.0
621,63.0,0.0,240.0,0.0,0.0
622,54.0,60.0,60.0,1.0,0.0
623,56.0,60.0,60.0,1.0,0.0
624,57.0,60.0,60.0,1.0,0.0
625,56.0,60.0,60.0,1.0,0.0
626,49.0,0.0,480.0,1.0,0.0
627,61.0,70.0,300.0,0.0,0.0
628,64.0,0.0,240.0,0.0,0.0
629,54.0,60.0,60.0,1.0,0.0
630,52.0,60.0,60.0,1.0,0.0
631,51.0,50.0,60.0,1.0,0.0
632,69.0,60.0,540.0,0.0,0.0
633,52.0,0.0,120.0,1.0,0.0
634,61.0,60.0,60.0,0.0,0.0
635,63.0,0.0,60.0,0.0,0.0
636,54.0,60.0,60.0,1.0,0.0
637,64.0,60.0,60.0,0.0,0.0
638,56.0,0.0,60.0,1.0,0.0
639,42.0,0.0,240.0,1.0,0.0
640,54.0,0.0,120.0,1.0,0.0
641,63.0,60.0,60.0,0.0,0.0
642,61.0,60.0,60.0,0.0,0.0
643,52.0,60.0,120.0,1.0,0.0
644,60.0,60.0,60.0,0.0,0.0
645,61.0,0.0,60.0,0.0,0.0
646,60.0,0.0,480.0,0.0,0.0
647,44.0,0.0,480.0,1.0,0.0
648,51.0,0.0,240.0,1.0,0.0
649,66.0,60.0,60.0,0.0,0.0
650,68.0,60.0,60.0,0.0,0.0
651,69.0,60.0,60.0,0.0,0.0
652,68.0,60.0,60.0,0.0,0.0
653,52.0,70.0,540.0,1.0,0.0
654,66.0,60.0,60.0,0.0,0.0
655,64.0,60.0,60.0,0.0,0.0
656,63.0,120.0,60.0,0.0,0.0
657,45.0,50.0,480.0,1.0,0.0
658,61.0,0.0,720.0,0.0,0.0
659,59.0,60.0,60.0,0.0,0.0
660,57.0,60.0,60.0,0.0,0.0
661,56.0,50.0,60.0,0.0,0.0
662,54.0,70.0,300.0,0.0,0.0
663,52.0,60.0,60.0,1.0,0.0
664,51.0,60.0,60.0,1.0,0.0
665,49.0,0.0,60.0,1.0,0.0
666,44.0,0.0,480.0,1.0,0.0
667,51.0,0.0,480.0,1.0,0.0
668,54.0,60.0,60.0,0.0,0.0
669,56.0,60.0,60.0,0.0,0.0
670,57.0,60.0,60.0,0.0,0.0
671,60.0,0.0,240.0,0.0,0.0
672,56.0,60.0,60.0,0.0,0.0
673,54.0,60.0,60.0,0.0,0.0
674,52.0,60.0,60.0,0.0,0.0
675,51.0,120.0,60.0,0.0,0.0
676,49.0,60.0,240.0,1.0,0.0
677,61.0,0.0,240.0,0.0,0.0
678,52.0,0.0,240.0,0.0,0.0
679,37.0,60.0,60.0,1.0,0.0
680,39.0,60.0,60.0,1.0,0.0
681,40.0,0.0,60.0,1.0,0.0
682,39.0,60.0,60.0,1.0,0.0
683,68.0,0.0,480.0,0.0,0.0
684,37.0,60.0,60.0,1.0,0.0
685,35.0,60.0,60.0,1.0,0.0
686,34.0,120.0,60.0,1.0,0.0
687,39.0,0.0,480.0,1.0,0.0
688,46.0,0.0,240.0,1.0,0.0
689,61.0,60.0,60.0,0.0,0.0
690,63.0,60.0,60.0,0.0,0.0
691,64.0,60.0,60.0,0.0,0.0
692,51.0,60.0,480.0,1.0,0.0
693,67.0,60.0,240.0,0.0,0.0
694,63.0,60.0,60.0,0.0,0.0
695,61.0,60.0,60.0,0.0,0.0
696,59.0,60.0,60.0,0.0,0.0
697,58.0,0.0,60.0,0.0,0.0
698,56.0,60.0,60.0,0.0,0.0
699,44.0,0.0,480.0,1.0,0.0
700,71.0,70.0,540.0,0.0,0.0
701,63.0,60.0,60.0,0.0,0.0
702,64.0,60.0,60.0,0.0,0.0
703,66.0,0.0,60.0,0.0,0.0
704,64.0,60.0,60.0,0.0,0.0
705,47.0,50.0,240.0,1.0,0.0
706,63.0,60.0,60.0,0.0,0.0
707,61.0,60.0,60.0,0.0,0.0
708,59.0,0.0,60.0,0.0,0.0
709,52.0,60.0,480.0,1.0,0.0
710,61.0,0.0,480.0,0.0,0.0
711,49.0,0.0,720.0,1.0,0.0
712,71.0,60.0,60.0,0.0,0.0
713,73.0,60.0,60.0,0.0,0.0
714,75.0,60.0,60.0,0.0,0.0
715,73.0,60.0,60.0,0.0,0.0
716,71.0,60.0,60.0,0.0,0.0
717,70.0,60.0,60.0,0.0,0.0
718,68.0,0.0,60.0,0.0,0.0
719,58.0,0.0,240.0,0.0,0.0
720,67.0,60.0,60.0,0.0,0.0
721,51.0,0.0,240.0,1.0,0.0
722,73.0,60.0,60.0,0.0,0.0
723,75.0,60.0,60.0,0.0,0.0
724,76.0,60.0,60.0,0.0,0.0
725,59.0,0.0,360.0,0.0,0.0
726,75.0,60.0,60.0,0.0,0.0
727,56.0,60.0,600.0,1.0,0.0
728,47.0,60.0,240.0,1.0,0.0
729,73.0,60.0,60.0,0.0,0.0
730,71.0,60.0,60.0,0.0,0.0
731,70.0,0.0,60.0,0.0,0.0
732,68.0,60.0,60.0,0.0,0.0
733,52.0,60.0,120.0,1.0,0.0
734,67.0,0.0,60.0,0.0,0.0
735,49.0,120.0,120.0,1.0,0.0
736,68.0,60.0,60.0,0.0,0.0
737,64.0,0.0,120.0,0.0,0.0
738,70.0,0.0,15.0,0.0,0.0
739,63.0,0.0,120.0,0.0,0.0
740,51.0,0.0,240.0,1.0,0.0
741,61.0,0.0,120.0,0.0,0.0
742,55.0,120.0,120.0,1.0,0.0
743,68.0,0.0,15.0,0.0,0.0
744,59.0,60.0,240.0,0.0,0.0
745,56.0,0.0,240.0,1.0,0.0
746,44.0,60.0,60.0,1.0,0.0
747,45.0,60.0,60.0,1.0,0.0
748,47.0,0.0,60.0,1.0,0.0
749,45.0,60.0,60.0,1.0,0.0
750,64.0,0.0,480.0,0.0,0.0
751,44.0,60.0,60.0,1.0,0.0
752,42.0,60.0,60.0,1.0,0.0
753,40.0,120.0,60.0,1.0,0.0
754,47.0,120.0,480.0,1.0,0.0
755,54.0,60.0,240.0,1.0,0.0
756,66.0,60.0,60.0,0.0,0.0
757,68.0,60.0,60.0,0.0,0.0
758,69.0,0.0,60.0,0.0,0.0
759,68.0,60.0,60.0,0.0,0.0
760,59.0,0.0,480.0,1.0,0.0
761,66.0,60.0,60.0,0.0,0.0
762,64.0,60.0,60.0,0.0,0.0
763,63.0,0.0,60.0,0.0,0.0
764,52.0,0.0,480.0,1.0,0.0
765,68.0,0.0,240.0,0.0,0.0
766,61.0,60.0,120.0,0.0,0.0
767,63.0,60.0,60.0,0.0,0.0
768,64.0,120.0,60.0,0.0,0.0
769,66.0,60.0,1740.0,0.0,0.0
770,58.0,0.0,240.0,1.0,0.0
771,64.0,60.0,60.0,0.0,0.0
772,63.0,60.0,60.0,0.0,0.0
773,61.0,60.0,60.0,0.0,0.0
774,51.0,50.0,300.0,1.0,0.0
775,59.0,60.0,60.0,1.0,0.0
776,63.0,60.0,480.0,0.0,0.0
777,58.0,60.0,60.0,1.0,0.0
778,56.0,60.0,60.0,1.0,0.0
779,54.0,60.0,60.0,1.0,0.0
780,71.0,10.0,120.0,0.0,0.0
781,49.0,60.0,60.0,1.0,0.0
782,51.0,50.0,60.0,1.0,0.0
783,71.0,10.0,120.0,0.0,0.0
784,52.0,0.0,60.0,1.0,0.0
785,61.0,0.0,480.0,1.0,0.0
786,71.0,60.0,240.0,0.0,0.0
787,54.0,60.0,60.0,1.0,0.0
788,52.0,60.0,60.0,1.0,0.0
789,54.0,60.0,60.0,1.0,0.0
790,56.0,0.0,60.0,1.0,0.0
791,70.0,120.0,240.0,0.0,0.0
792,54.0,60.0,60.0,1.0,0.0
793,52.0,60.0,60.0,1.0,0.0
794,51.0,60.0,60.0,1.0,0.0
795,49.0,0.0,60.0,1.0,0.0
796,48.0,60.0,480.0,1.0,0.0
797,75.0,0.0,720.0,0.0,0.0
798,54.0,60.0,60.0,1.0,0.0
799,56.0,60.0,60.0,1.0,0.0
800,57.0,60.0,60.0,1.0,0.0
801,56.0,60.0,60.0,1.0,0.0
802,54.0,60.0,60.0,1.0,0.0
803,52.0,60.0,60.0,1.0,0.0
804,51.0,0.0,60.0,1.0,0.0
805,52.0,60.0,540.0,1.0,0.0
806,56.0,0.0,480.0,1.0,0.0
807,66.0,60.0,60.0,0.0,0.0
808,68.0,60.0,60.0,0.0,0.0
809,69.0,60.0,60.0,0.0,0.0
810,73.0,60.0,240.0,0.0,0.0
811,68.0,60.0,60.0,0.0,0.0
812,66.0,60.0,60.0,0.0,0.0
813,64.0,60.0,60.0,0.0,0.0
814,63.0,0.0,60.0,0.0,0.0
815,58.0,0.0,240.0,1.0,0.0
816,61.0,0.0,240.0,0.0,0.0
817,67.0,60.0,240.0,0.0,0.0
818,49.0,60.0,60.0,1.0,0.0
819,51.0,60.0,60.0,1.0,0.0
820,52.0,0.0,60.0,1.0,0.0
821,51.0,60.0,60.0,1.0,0.0
822,59.0,60.0,120.0,1.0,0.0
823,63.0,0.0,120.0,0.0,0.0
824,68.0,0.0,120.0,0.0,0.0
825,49.0,0.0,60.0,1.0,0.0
826,67.0,60.0,120.0,0.0,0.0
827,70.0,0.0,120.0,0.0,0.0
828,61.0,0.0,120.0,1.0,0.0
829,47.0,60.0,60.0,1.0,0.0
830,46.0,0.0,60.0,1.0,0.0
831,44.0,60.0,60.0,1.0,0.0
832,68.0,60.0,240.0,0.0,0.0
833,71.0,60.0,120.0,0.0,0.0
834,42.0,0.0,60.0,1.0,0.0
835,44.0,60.0,60.0,1.0,0.0
836,63.0,0.0,15.0,1.0,0.0
837,72.0,0.0,120.0,0.0,0.0
838,45.0,0.0,60.0,1.0,0.0
839,64.0,0.0,120.0,1.0,0.0
840,44.0,60.0,60.0,1.0,0.0
841,70.0,0.0,120.0,0.0,0.0
842,73.0,60.0,120.0,0.0,0.0
843,42.0,0.0,60.0,1.0,0.0
844,72.0,0.0,120.0,0.0,0.0
845,75.0,60.0,120.0,0.0,0.0
846,66.0,0.0,120.0,1.0,0.0
847,40.0,60.0,60.0,1.0,0.0
848,39.0,0.0,60.0,1.0,0.0
849,68.0,0.0,240.0,1.0,0.0
850,37.0,60.0,240.0,1.0,0.0
851,76.0,70.0,540.0,0.0,0.0
852,73.0,60.0,60.0,0.0,0.0
853,71.0,60.0,60.0,0.0,0.0
854,73.0,60.0,60.0,0.0,0.0
855,75.0,0.0,60.0,0.0,0.0
856,73.0,60.0,60.0,0.0,0.0
857,42.0,60.0,480.0,1.0,0.0
858,71.0,60.0,60.0,0.0,0.0
859,70.0,60.0,60.0,0.0,0.0
860,68.0,50.0,60.0,0.0,0.0
861,70.0,60.0,540.0,0.0,0.0
862,76.0,60.0,60.0,0.0,0.0
863,78.0,60.0,60.0,0.0,0.0
864,80.0,0.0,60.0,0.0,0.0
865,78.0,60.0,60.0,0.0,0.0
866,39.0,60.0,240.0,1.0,0.0
867,76.0,60.0,60.0,0.0,0.0
868,75.0,60.0,60.0,0.0,0.0
869,73.0,0.0,60.0,0.0,0.0
870,47.0,60.0,240.0,1.0,0.0
871,44.0,120.0,480.0,1.0,0.0
872,71.0,0.0,480.0,0.0,0.0
873,66.0,60.0,60.0,0.0,0.0
874,68.0,60.0,60.0,0.0,0.0
875,69.0,0.0,60.0,0.0,0.0
876,68.0,60.0,60.0,0.0,0.0
877,52.0,0.0,480.0,1.0,0.0
878,66.0,60.0,60.0,0.0,0.0
879,64.0,60.0,60.0,0.0,0.0
880,63.0,0.0,60.0,0.0,0.0
881,46.0,0.0,120.0,1.0,0.0
882,61.0,60.0,120.0,0.0,0.0
883,42.0,0.0,120.0,1.0,0.0
884,63.0,60.0,60.0,0.0,0.0
885,64.0,60.0,60.0,0.0,0.0
886,66.0,60.0,60.0,0.0,0.0
887,51.0,0.0,240.0,1.0,0.0
888,47.0,60.0,120.0,1.0,0.0
889,64.0,0.0,60.0,0.0,0.0
890,46.0,0.0,120.0,1.0,0.0
891,63.0,60.0,60.0,0.0,0.0
892,61.0,60.0,60.0,0.0,0.0
893,59.0,60.0,60.0,0.0,0.0
894,56.0,60.0,540.0,1.0,0.0
895,44.0,60.0,360.0,1.0,0.0
896,58.0,60.0,60.0,0.0,0.0
897,56.0,60.0,60.0,0.0,0.0
898,54.0,60.0,60.0,0.0,0.0
899,59.0,10.0,120.0,0.0,0.0
900,64.0,0.0,60.0,0.0,0.0
901,59.0,10.0,120.0,0.0,0.0
902,66.0,50.0,60.0,0.0,0.0
903,42.0,0.0,120.0,1.0,0.0
904,68.0,60.0,60.0,0.0,0.0
905,41.0,0.0,240.0,1.0,0.0
906,61.0,0.0,240.0,0.0,0.0
907,59.0,60.0,240.0,0.0,0.0
908,53.0,60.0,60.0,1.0,0.0
909,54.0,60.0,60.0,1.0,0.0
910,56.0,0.0,60.0,1.0,0.0
911,42.0,60.0,300.0,1.0,0.0
912,58.0,0.0,240.0,0.0,0.0
913,54.0,60.0,60.0,1.0,0.0
914,61.0,60.0,240.0,0.0,0.0
915,52.0,60.0,60.0,1.0,0.0
916,51.0,60.0,60.0,1.0,0.0
917,49.0,0.0,60.0,1.0,0.0
918,56.0,0.0,480.0,0.0,0.0
919,59.0,0.0,480.0,0.0,0.0
920,50.0,0.0,240.0,1.0,0.0
921,41.0,60.0,60.0,1.0,0.0
922,42.0,60.0,60.0,1.0,0.0
923,44.0,60.0,60.0,1.0,0.0
924,42.0,60.0,60.0,1.0,0.0
925,49.0,120.0,240.0,1.0,0.0
926,41.0,60.0,60.0,1.0,0.0
927,39.0,60.0,60.0,1.0,0.0
928,37.0,0.0,60.0,1.0,0.0
929,58.0,0.0,240.0,0.0,0.0
930,42.0,60.0,240.0,1.0,0.0
931,49.0,0.0,240.0,1.0,0.0
932,61.0,60.0,60.0,0.0,0.0
933,63.0,60.0,60.0,0.0,0.0
934,64.0,0.0,60.0,0.0,0.0
935,63.0,60.0,60.0,0.0,0.0
936,47.0,0.0,480.0,1.0,0.0
937,61.0,60.0,60.0,0.0,0.0
938,59.0,60.0,60.0,0.0,0.0
939,58.0,120.0,60.0,0.0,0.0
940,56.0,60.0,120.0,0.0,0.0
941,64.0,60.0,540.0,0.0,0.0
942,58.0,60.0,60.0,0.0,0.0
943,59.0,60.0,60.0,0.0,0.0
944,46.0,60.0,240.0,1.0,0.0
945,61.0,60.0,60.0,0.0,0.0
946,59.0,60.0,60.0,0.0,0.0
947,58.0,60.0,60.0,0.0,0.0
948,56.0,0.0,60.0,0.0,0.0
949,51.0,0.0,240.0,2.0,0.0
950,54.0,0.0,60.0,1.0,0.0
951,52.0,0.0,60.0,1.0,0.0
952,61.0,60.0,60.0,0.0,0.0
953,51.0,60.0,60.0,1.0,0.0
954,63.0,0.0,60.0,0.0,0.0
955,49.0,0.0,60.0,1.0,0.0
956,64.0,60.0,60.0,0.0,0.0
957,54.0,0.0,120.0,1.0,0.0
958,63.0,60.0,60.0,0.0,0.0
959,61.0,60.0,60.0,0.0,0.0
960,59.0,60.0,60.0,0.0,0.0
961,49.0,60.0,120.0,1.0,0.0
962,58.0,0.0,60.0,0.0,0.0
963,56.0,70.0,300.0,0.0,0.0
964,48.0,0.0,240.0,1.0,0.0
965,54.0,0.0,15.0,1.0,0.0
966,51.0,60.0,60.0,1.0,0.0
967,53.0,60.0,60.0,1.0,0.0
968,54.0,50.0,60.0,1.0,0.0
969,53.0,70.0,300.0,1.0,0.0
970,49.0,0.0,120.0,1.0,0.0
971,56.0,60.0,60.0,0.0,0.0
972,47.0,0.0,120.0,1.0,0.0
973,58.0,60.0,60.0,0.0,0.0
974,59.0,50.0,60.0,0.0,0.0
975,46.0,70.0,540.0,1.0,0.0
976,61.0,60.0,300.0,0.0,0.0
977,53.0,60.0,60.0,1.0,0.0
978,55.0,60.0,60.0,1.0,0.0
979,56.0,60.0,60.0,1.0,0.0
980,55.0,0.0,360.0,1.0,0.0
981,59.0,60.0,60.0,0.0,0.0
982,61.0,60.0,60.0,0.0,0.0
983,63.0,50.0,60.0,0.0,0.0
984,64.0,0.0,600.0,0.0,0.0
985,46.0,60.0,60.0,1.0,0.0
986,55.0,0.0,120.0,0.0,0.0
987,47.0,60.0,60.0,1.0,0.0
988,49.0,60.0,60.0,1.0,0.0
989,47.0,60.0,60.0,1.0,0.0
990,56.0,60.0,120.0,0.0,0.0
991,46.0,0.0,60.0,1.0,0.0
992,44.0,60.0,60.0,1.0,0.0
993,58.0,0.0,120.0,0.0,0.0
994,43.0,60.0,60.0,1.0,0.0
995,59.0,70.0,540.0,0.0,0.0
996,44.0,60.0,60.0,1.0,0.0
997,43.0,60.0,60.0,1.0,0.0
998,63.0,60.0,120.0,0.0,0.0
999,44.0,60.0,60.0,1.0,0.0
1000,46.0,0.0,60.0,1.0,0.0
1001,44.0,60.0,60.0,1.0,0.0
1002,64.0,60.0,120.0,0.0,0.0
1003,42.0,0.0,60.0,1.0,0.0
1004,40.0,60.0,60.0,1.0,0.0
1005,66.0,50.0,120.0,0.0,0.0
1006,39.0,0.0,60.0,1.0,0.0
1007,40.0,0.0,480.0,1.0,0.0
1008,44.0,0.0,240.0,1.0,0.0
1009,68.0,60.0,300.0,0.0,0.0
1010,59.0,60.0,60.0,0.0,0.0
1011,61.0,60.0,60.0,0.0,0.0
1012,63.0,60.0,60.0,0.0,0.0
1013,49.0,0.0,480.0,1.0,0.0
1014,61.0,0.0,240.0,0.0,0.0
1015,71.0,60.0,60.0,0.0,0.0
1016,70.0,60.0,60.0,0.0,0.0
1017,68.0,120.0,60.0,0.0,0.0
1018,67.0,60.0,120.0,0.0,0.0
1019,63.0,0.0,480.0,0.0,0.0
1020,39.0,0.0,60.0,1.0,0.0
1021,41.0,0.0,60.0,1.0,0.0
1022,68.0,60.0,60.0,0.0,0.0
1023,70.0,60.0,60.0,0.0,0.0
1024,43.0,0.0,60.0,1.0,0.0
1025,71.0,60.0,60.0,0.0,0.0
1026,47.0,50.0,240.0,1.0,0.0
1027,44.0,10.0,300.0,1.0,0.0
1028,70.0,60.0,60.0,0.0,0.0
1029,68.0,60.0,60.0,0.0,0.0
1030,66.0,0.0,60.0,0.0,0.0
1031,64.0,60.0,60.0,0.0,0.0
1032,52.0,0.0,480.0,1.0,0.0
1033,63.0,0.0,60.0,0.0,0.0
1034,44.0,60.0,60.0,1.0,0.0
1035,61.0,60.0,60.0,0.0,0.0
1036,46.0,0.0,60.0,1.0,0.0
1037,59.0,0.0,60.0,0.0,0.0
1038,47.0,60.0,60.0,1.0,0.0
1039,58.0,50.0,60.0,0.0,0.0
1040,49.0,10.0,120.0,1.0,0.0
1041,70.0,60.0,60.0,0.0,0.0
1042,71.0,50.0,60.0,0.0,0.0
1043,49.0,10.0,120.0,1.0,0.0
1044,73.0,120.0,60.0,0.0,0.0
1045,61.0,0.0,240.0,0.0,0.0
1046,51.0,0.0,480.0,1.0,0.0
1047,49.0,60.0,240.0,1.0,0.0
1048,67.0,60.0,120.0,0.0,0.0
1049,68.0,60.0,60.0,0.0,0.0
1050,70.0,0.0,60.0,0.0,0.0
1051,47.0,0.0,240.0,1.0,0.0
1052,68.0,60.0,60.0,0.0,0.0
1053,66.0,60.0,60.0,0.0,0.0
1054,64.0,60.0,60.0,0.0,0.0
1055,63.0,120.0,60.0,0.0,0.0
1056,68.0,0.0,480.0,0.0,0.0
1057,56.0,60.0,60.0,1.0,0.0
1058,57.0,60.0,60.0,1.0,0.0
1059,59.0,0.0,60.0,1.0,0.0
1060,57.0,60.0,60.0,1.0,0.0
1061,61.0,120.0,240.0,0.0,0.0
1062,56.0,60.0,60.0,1.0,0.0
1063,54.0,60.0,60.0,1.0,0.0
1064,52.0,0.0,60.0,1.0,0.0
1065,66.0,0.0,480.0,0.0,0.0
1066,48.0,60.0,60.0,1.0,0.0
1067,49.0,60.0,60.0,1.0,0.0
1068,70.0,0.0,120.0,0.0,0.0
1069,51.0,60.0,60.0,1.0,0.0
1070,72.0,0.0,240.0,0.0,0.0
1071,49.0,60.0,60.0,1.0,0.0
1072,48.0,60.0,60.0,1.0,0.0
1073,46.0,60.0,60.0,1.0,0.0
1074,44.0,0.0,60.0,1.0,0.0
1075,73.0,60.0,60.0,0.0,0.0
1076,68.0,60.0,60.0,0.0,0.0
1077,64.0,0.0,120.0,0.0,0.0
1078,69.0,60.0,60.0,0.0,0.0
1079,71.0,120.0,60.0,0.0,0.0
1080,69.0,60.0,480.0,0.0,0.0
1081,68.0,0.0,60.0,0.0,0.0
1082,52.0,60.0,60.0,1.0,0.0
1083,54.0,60.0,60.0,1.0,0.0
1084,66.0,0.0,60.0,0.0,0.0
1085,64.0,60.0,60.0,0.0,0.0
1086,56.0,0.0,60.0,1.0,0.0
1087,63.0,0.0,240.0,0.0,0.0
1088,54.0,60.0,60.0,1.0,0.0
1089,52.0,60.0,60.0,1.0,0.0
1090,51.0,60.0,60.0,1.0,0.0
1091,49.0,0.0,60.0,1.0,0.0
1092,51.0,0.0,120.0,1.0,0.0
1093,68.0,60.0,240.0,0.0,0.0
1094,47.0,60.0,60.0,1.0,0.0
1095,44.0,60.0,60.0,1.0,0.0
1096,45.0,60.0,60.0,1.0,0.0
1097,47.0,0.0,60.0,1.0,0.0
1098,45.0,60.0,60.0,1.0,0.0
1099,44.0,0.0,60.0,1.0,0.0
1100,76.0,60.0,60.0,0.0,0.0
1101,78.0,0.0,60.0,0.0,0.0
1102,42.0,60.0,60.0,1.0,0.0
1103,40.0,0.0,60.0,1.0,0.0
1104,80.0,60.0,60.0,0.0,0.0
1105,45.0,10.0,120.0,1.0,0.0
1106,78.0,50.0,60.0,0.0,0.0
1107,76.0,60.0,60.0,0.0,0.0
1108,45.0,10.0,120.0,1.0,0.0
1109,75.0,50.0,60.0,0.0,0.0
1110,73.0,0.0,60.0,0.0,0.0
1111,76.0,60.0,60.0,0.0,0.0
1112,45.0,0.0,240.0,1.0,0.0
1113,75.0,60.0,60.0,0.0,0.0
1114,73.0,60.0,60.0,0.0,0.0
1115,71.0,50.0,60.0,0.0,0.0
1116,44.0,60.0,240.0,1.0,0.0
1117,76.0,0.0,480.0,0.0,0.0
1118,71.0,60.0,60.0,0.0,0.0
1119,73.0,60.0,60.0,0.0,0.0
1120,74.0,0.0,60.0,0.0,0.0
1121,45.0,120.0,240.0,1.0,0.0
1122,73.0,60.0,60.0,0.0,0.0
1123,71.0,60.0,60.0,0.0,0.0
1124,69.0,60.0,60.0,0.0,0.0
1125,68.0,0.0,60.0,0.0,0.0
1126,47.0,0.0,240.0,1.0,0.0
1127,66.0,0.0,240.0,0.0,0.0
1128,75.0,0.0,240.0,0.0,0.0
1129,54.0,60.0,60.0,1.0,0.0
1130,56.0,60.0,60.0,1.0,0.0
1131,57.0,120.0,60.0,1.0,0.0
1132,76.0,60.0,120.0,0.0,0.0
1133,52.0,60.0,240.0,1.0,0.0
1134,56.0,0.0,240.0,1.0,0.0
1135,66.0,0.0,60.0,0.0,0.0
1136,71.0,0.0,120.0,0.0,0.0
1137,68.0,60.0,60.0,0.0,0.0
1138,69.0,0.0,60.0,0.0,0.0
1139,76.0,60.0,480.0,0.0,0.0
1140,68.0,60.0,60.0,0.0,0.0
1141,49.0,0.0,240.0,1.0,0.0
1142,66.0,60.0,60.0,0.0,0.0
1143,64.0,60.0,60.0,0.0,0.0
1144,63.0,120.0,60.0,0.0,0.0
1145,54.0,0.0,120.0,1.0,0.0
1146,61.0,60.0,120.0,0.0,0.0
1147,58.0,0.0,60.0,1.0,0.0
1148,59.0,0.0,60.0,1.0,0.0
1149,63.0,60.0,60.0,0.0,0.0
1150,61.0,0.0,60.0,1.0,0.0
1151,64.0,0.0,60.0,0.0,0.0
1152,75.0,0.0,240.0,0.0,0.0
1153,66.0,60.0,60.0,0.0,0.0
1154,59.0,0.0,240.0,1.0,0.0
1155,64.0,60.0,60.0,0.0,0.0
1156,63.0,60.0,60.0,0.0,0.0
1157,61.0,120.0,60.0,0.0,0.0
1158,80.0,60.0,480.0,0.0,0.0
1159,59.0,60.0,120.0,0.0,0.0
1160,56.0,0.0,60.0,1.0,0.0
1161,57.0,0.0,60.0,1.0,0.0
1162,61.0,60.0,60.0,0.0,0.0
1163,59.0,0.0,60.0,1.0,0.0
1164,63.0,60.0,60.0,0.0,0.0
1165,64.0,0.0,120.0,0.0,0.0
1166,57.0,60.0,60.0,1.0,0.0
1167,56.0,60.0,60.0,1.0,0.0
1168,64.0,60.0,180.0,0.0,0.0
1169,54.0,60.0,60.0,1.0,0.0
1170,52.0,0.0,60.0,1.0,0.0
1171,59.0,0.0,480.0,1.0,0.0
1172,78.0,70.0,300.0,0.0,0.0
1173,63.0,60.0,60.0,0.0,0.0
1174,64.0,60.0,60.0,0.0,0.0
1175,66.0,50.0,60.0,0.0,0.0
1176,68.0,0.0,480.0,0.0,0.0
1177,78.0,60.0,60.0,0.0,0.0
1178,76.0,60.0,60.0,0.0,0.0
1179,75.0,120.0,60.0,0.0,0.0
1180,73.0,60.0,120.0,0.0,0.0
1181,58.0,120.0,480.0,1.0,0.0
1182,75.0,60.0,60.0,0.0,0.0
1183,76.0,60.0,60.0,0.0,0.0
1184,75.0,60.0,60.0,0.0,0.0
1185,66.0,0.0,240.0,0.0,0.0
1186,73.0,60.0,60.0,0.0,0.0
1187,71.0,60.0,60.0,0.0,0.0
1188,70.0,0.0,60.0,0.0,0.0
1189,71.0,60.0,480.0,0.0,0.0
1190,56.0,60.0,60.0,1.0,0.0
1191,73.0,60.0,60.0,0.0,0.0
1192,57.0,0.0,60.0,1.0,0.0
1193,75.0,0.0,60.0,0.0,0.0
1194,59.0,60.0,60.0,1.0,0.0
1195,76.0,60.0,120.0,0.0,0.0
1196,57.0,60.0,60.0,1.0,0.0
1197,56.0,0.0,60.0,1.0,0.0
1198,54.0,60.0,60.0,1.0,0.0
1199,76.0,60.0,180.0,0.0,0.0
1200,52.0,0.0,60.0,1.0,0.0
1201,70.0,0.0,240.0,0.0,0.0
1202,42.0,0.0,240.0,1.0,0.0
1203,54.0,120.0,480.0,1.0,0.0
1204,75.0,60.0,60.0,0.0,0.0
1205,76.0,60.0,60.0,0.0,0.0
1206,78.0,60.0,60.0,0.0,0.0
1207,47.0,0.0,480.0,1.0,0.0
1208,76.0,60.0,60.0,0.0,0.0
1209,75.0,60.0,60.0,0.0,0.0
1210,73.0,60.0,60.0,0.0,0.0
1211,71.0,0.0,60.0,0.0,0.0
1212,73.0,60.0,120.0,0.0,0.0
1213,68.0,0.0,240.0,0.0,0.0
1214,52.0,60.0,240.0,1.0,0.0
1215,75.0,60.0,60.0,0.0,0.0
1216,76.0,0.0,60.0,0.0,0.0
1217,46.0,60.0,240.0,1.0,0.0
1218,78.0,60.0,60.0,0.0,0.0
1219,76.0,0.0,60.0,0.0,0.0
1220,49.0,60.0,60.0,1.0,0.0
1221,75.0,0.0,60.0,0.0,0.0
1222,51.0,60.0,60.0,1.0,0.0
1223,73.0,0.0,60.0,0.0,0.0
1224,52.0,0.0,60.0,1.0,0.0
1225,71.0,60.0,60.0,0.0,0.0
1226,54.0,110.0,240.0,1.0,0.0
1227,70.0,60.0,60.0,0.0,0.0
1228,68.0,60.0,60.0,0.0,0.0
1229,66.0,0.0,60.0,0.0,0.0
1230,71.0,10.0,120.0,0.0,0.0
1231,54.0,60.0,60.0,1.0,0.0
1232,63.0,0.0,60.0,0.0,0.0
1233,64.0,0.0,60.0,0.0,0.0
1234,56.0,50.0,60.0,1.0,0.0
1235,71.0,10.0,120.0,0.0,0.0
1236,66.0,0.0,60.0,0.0,0.0
1237,57.0,60.0,60.0,1.0,0.0
1238,64.0,0.0,60.0,0.0,0.0
1239,56.0,60.0,60.0,1.0,0.0
1240,71.0,0.0,240.0,0.0,0.0
1241,63.0,60.0,60.0,0.0,0.0
1242,54.0,0.0,60.0,1.0,0.0
1243,52.0,0.0,60.0,1.0,0.0
1244,61.0,60.0,60.0,0.0,0.0
1245,59.0,0.0,60.0,0.0,0.0
1246,51.0,0.0,60.0,1.0,0.0
1247,52.0,0.0,360.0,1.0,0.0
1248,61.0,70.0,300.0,0.0,0.0
1249,70.0,60.0,60.0,0.0,0.0
1250,51.0,0.0,60.0,1.0,0.0
1251,49.0,60.0,60.0,1.0,0.0
1252,71.0,0.0,60.0,0.0,0.0
1253,47.0,50.0,60.0,1.0,0.0
1254,73.0,0.0,60.0,0.0,0.0
1255,46.0,0.0,120.0,1.0,0.0
1256,66.0,60.0,720.0,0.0,0.0
1257,61.0,60.0,60.0,0.0,0.0
1258,47.0,0.0,60.0,1.0,0.0
1259,51.0,0.0,60.0,1.0,0.0
1260,63.0,60.0,60.0,0.0,0.0
1261,64.0,0.0,60.0,0.0,0.0
1262,49.0,60.0,60.0,1.0,0.0
1263,51.0,60.0,300.0,1.0,0.0
1264,63.0,60.0,60.0,0.0,0.0
1265,47.0,0.0,60.0,1.0,0.0
1266,46.0,60.0,60.0,1.0,0.0
1267,61.0,0.0,60.0,0.0,0.0
1268,44.0,60.0,60.0,1.0,0.0
1269,59.0,0.0,60.0,0.0,0.0
1270,57.0,0.0,60.0,0.0,0.0
1271,42.0,60.0,60.0,1.0,0.0
1272,56.0,0.0,240.0,0.0,0.0
1273,40.0,0.0,480.0,1.0,0.0
1274,47.0,60.0,60.0,1.0,0.0
1275,49.0,60.0,60.0,1.0,0.0
1276,51.0,0.0,60.0,1.0,0.0
1277,49.0,60.0,60.0,1.0,0.0
1278,61.0,60.0,480.0,0.0,0.0
1279,64.0,0.0,480.0,0.0,0.0
1280,47.0,60.0,60.0,1.0,0.0
1281,46.0,60.0,60.0,1.0,0.0
1282,44.0,60.0,60.0,1.0,0.0
1283,34.0,40.0,90.0,1.0,0.0
1284,42.0,20.0,60.0,1.0,0.0
1285,52.0,60.0,60.0,1.0,0.0
1286,54.0,60.0,60.0,1.0,0.0
1287,56.0,0.0,60.0,1.0,0.0
1288,47.0,10.0,240.0,1.0,0.0
1289,54.0,60.0,60.0,1.0,0.0
1290,63.0,0.0,240.0,0.0,0.0
1291,59.0,120.0,240.0,0.0,0.0
1292,52.0,60.0,60.0,1.0,0.0
1293,51.0,50.0,60.0,1.0,0.0
1294,49.0,0.0,60.0,1.0,0.0
1295,64.0,0.0,720.0,0.0,0.0
1296,68.0,60.0,480.0,0.0,0.0
1297,44.0,60.0,60.0,1.0,0.0
1298,45.0,60.0,60.0,1.0,0.0
1299,47.0,0.0,60.0,1.0,0.0
1300,45.0,60.0,60.0,1.0,0.0
1301,44.0,60.0,60.0,1.0,0.0
1302,42.0,60.0,60.0,1.0,0.0
1303,40.0,0.0,60.0,1.0,0.0
1304,47.0,60.0,60.0,1.0,0.0
1305,66.0,0.0,240.0,0.0,0.0
1306,46.0,60.0,60.0,1.0,0.0
1307,44.0,60.0,60.0,1.0,0.0
1308,42.0,60.0,60.0,1.0,0.0
1309,71.0,60.0,480.0,0.0,0.0
1310,63.0,0.0,240.0,0.0,0.0
1311,52.0,60.0,60.0,1.0,0.0
1312,51.0,60.0,60.0,1.0,0.0
1313,49.0,60.0,60.0,1.0,0.0
1314,47.0,120.0,60.0,1.0,0.0
1315,54.0,60.0,960.0,1.0,0.0
1316,61.0,0.0,240.0,0.0,0.0
1317,56.0,60.0,60.0,1.0,0.0
1318,58.0,60.0,60.0,1.0,0.0
1319,59.0,0.0,60.0,1.0,0.0
1320,70.0,60.0,240.0,0.0,0.0
1321,61.0,60.0,60.0,1.0,0.0
1322,66.0,60.0,480.0,0.0,0.0
1323,64.0,60.0,60.0,1.0,0.0
1324,63.0,60.0,60.0,1.0,0.0
1325,61.0,0.0,60.0,1.0,0.0
1326,59.0,60.0,60.0,1.0,0.0
1327,74.0,0.0,480.0,0.0,0.0
1328,61.0,60.0,60.0,1.0,0.0
1329,59.0,60.0,60.0,1.0,0.0
1330,58.0,0.0,60.0,1.0,0.0
1331,56.0,60.0,60.0,1.0,0.0
1332,65.0,0.0,240.0,0.0,0.0
1333,59.0,60.0,60.0,1.0,0.0
1334,58.0,60.0,60.0,1.0,0.0
1335,56.0,0.0,60.0,1.0,0.0
1336,73.0,60.0,240.0,0.0,0.0
1337,64.0,0.0,240.0,1.0,0.0
1338,54.0,60.0,60.0,1.0,0.0
1339,70.0,0.0,240.0,0.0,0.0
1340,49.0,60.0,60.0,1.0,0.0
1341,47.0,60.0,60.0,1.0,0.0
1342,46.0,0.0,60.0,1.0,0.0
1343,63.0,0.0,240.0,1.0,0.0
1344,47.0,60.0,60.0,1.0,0.0
1345,71.0,120.0,480.0,0.0,0.0
1346,49.0,60.0,60.0,1.0,0.0
1347,51.0,60.0,60.0,1.0,0.0
1348,52.0,240.0,60.0,1.0,0.0
1349,66.0,0.0,15.0,0.0,0.0
1350,61.0,60.0,480.0,1.0,0.0
1351,42.0,0.0,480.0,1.0,0.0
1352,70.0,0.0,240.0,0.0,0.0
1353,64.0,0.0,120.0,0.0,0.0
1354,63.0,60.0,60.0,0.0,0.0
1355,47.0,0.0,2880.0,1.0,0.0
1356,71.0,120.0,480.0,0.0,0.0
1357,66.0,60.0,60.0,0.0,0.0
1358,68.0,60.0,60.0,0.0,0.0
1359,69.0,60.0,60.0,0.0,0.0
1360,52.0,60.0,480.0,1.0,0.0
1361,68.0,60.0,60.0,0.0,0.0
1362,66.0,60.0,60.0,0.0,0.0
1363,64.0,60.0,60.0,0.0,0.0
1364,63.0,0.0,60.0,0.0,0.0
1365,61.0,60.0,120.0,0.0,0.0
1366,70.0,0.0,240.0,0.0,0.0
1367,63.0,60.0,60.0,0.0,0.0
1368,64.0,0.0,60.0,0.0,0.0
1369,69.0,60.0,300.0,0.0,0.0
1370,66.0,60.0,60.0,0.0,0.0
1371,51.0,0.0,240.0,1.0,0.0
1372,64.0,60.0,60.0,0.0,0.0
1373,63.0,60.0,60.0,0.0,0.0
1374,61.0,60.0,60.0,0.0,0.0
1375,56.0,0.0,480.0,1.0,0.0
1376,59.0,60.0,240.0,0.0,0.0
1377,66.0,60.0,60.0,0.0,0.0
1378,68.0,60.0,60.0,0.0,0.0
1379,69.0,0.0,60.0,0.0,0.0
1380,68.0,60.0,60.0,0.0,0.0
1381,66.0,60.0,60.0,0.0,0.0
1382,68.0,60.0,60.0,0.0,0.0
1383,64.0,50.0,60.0,0.0,0.0
1384,55.0,0.0,480.0,1.0,0.0
1385,70.0,0.0,480.0,0.0,0.0
1386,64.0,60.0,60.0,0.0,0.0
1387,66.0,60.0,60.0,0.0,0.0
1388,67.0,60.0,60.0,0.0,0.0
1389,66.0,60.0,60.0,0.0,0.0
1390,64.0,60.0,60.0,0.0,0.0
1391,63.0,30.0,60.0,0.0,0.0
1392,64.0,30.0,30.0,0.0,0.0
1393,61.0,960.0,30.0,0.0,0.0
1394,63.0,0.0,960.0,0.0,0.0
1395,54.0,0.0,960.0,1.0,0.0
1396,71.0,0.0,960.0,0.0,0.0
