,note,step,duration,channel,velocity
0,70.0,512.0,510.0,0.0,0.0
1,63.0,0.0,1020.0,3.0,0.0
2,63.0,512.0,1020.0,4.0,0.0
3,66.0,0.0,510.0,1.0,0.0
4,63.0,0.0,1020.0,2.0,0.0
5,68.0,0.0,510.0,1.0,0.0
6,71.0,0.0,510.0,0.0,0.0
7,61.0,512.0,510.0,2.0,0.0
8,70.0,0.0,1020.0,1.0,0.0
9,58.0,0.0,1020.0,3.0,0.0
10,73.0,0.0,1020.0,0.0,0.0
11,58.0,0.0,510.0,4.0,0.0
12,54.0,0.0,510.0,4.0,0.0
13,66.0,512.0,510.0,2.0,0.0
14,75.0,512.0,1020.0,0.0,0.0
15,70.0,0.0,510.0,1.0,0.0
16,59.0,512.0,510.0,4.0,0.0
17,59.0,0.0,1020.0,3.0,0.0
18,63.0,0.0,510.0,2.0,0.0
19,65.0,0.0,510.0,2.0,0.0
20,68.0,0.0,510.0,1.0,0.0
21,47.0,0.0,510.0,4.0,0.0
22,54.0,512.0,510.0,4.0,0.0
23,54.0,0.0,510.0,3.0,0.0
24,73.0,512.0,1020.0,0.0,0.0
25,53.0,0.0,510.0,3.0,0.0
26,53.0,0.0,510.0,4.0,0.0
27,66.0,0.0,15.0,2.0,0.0
28,51.0,512.0,510.0,3.0,0.0
29,70.0,0.0,15.0,1.0,0.0
30,51.0,0.0,510.0,4.0,0.0
31,78.0,0.0,1020.0,0.0,0.0
32,49.0,0.0,510.0,4.0,0.0
33,65.0,0.0,510.0,2.0,0.0
34,49.0,512.0,510.0,3.0,0.0
35,63.0,0.0,1020.0,2.0,0.0
36,48.0,0.0,1020.0,3.0,0.0
37,78.0,512.0,510.0,0.0,0.0
38,48.0,0.0,1020.0,4.0,0.0
39,75.0,0.0,510.0,0.0,0.0
40,49.0,512.0,1020.0,4.0,0.0
41,68.0,1024.0,15.0,1.0,0.0
42,77.0,0.0,1020.0,0.0,0.0
43,49.0,0.0,1020.0,3.0,0.0
44,78.0,0.0,1020.0,0.0,0.0
45,70.0,512.0,1020.0,1.0,0.0
46,54.0,0.0,1020.0,3.0,0.0
47,61.0,0.0,15.0,2.0,0.0
48,42.0,256.0,510.0,4.0,0.0
49,54.0,256.0,270.0,4.0,0.0
50,56.0,0.0,270.0,4.0,0.0
51,58.0,512.0,510.0,4.0,0.0
52,66.0,0.0,1020.0,3.0,0.0
53,60.0,512.0,510.0,4.0,0.0
54,65.0,512.0,1020.0,3.0,0.0
55,61.0,512.0,510.0,4.0,0.0
56,49.0,0.0,1020.0,4.0,0.0
57,78.0,0.0,1020.0,0.0,0.0
58,63.0,0.0,1020.0,2.0,0.0
59,70.0,512.0,510.0,1.0,0.0
60,48.0,0.0,510.0,4.0,0.0
61,63.0,0.0,15.0,3.0,0.0
62,65.0,0.0,510.0,2.0,0.0
63,68.0,512.0,15.0,1.0,0.0
64,49.0,0.0,510.0,4.0,0.0
65,77.0,0.0,1020.0,0.0,0.0
66,58.0,512.0,510.0,4.0,0.0
67,67.0,256.0,270.0,2.0,0.0
68,61.0,0.0,1020.0,3.0,0.0
69,68.0,0.0,270.0,2.0,0.0
70,75.0,0.0,1020.0,0.0,0.0
71,70.0,0.0,510.0,2.0,0.0
72,70.0,0.0,15.0,1.0,0.0
73,55.0,256.0,510.0,4.0,0.0
74,71.0,0.0,270.0,1.0,0.0
75,63.0,0.0,510.0,2.0,0.0
76,59.0,256.0,270.0,3.0,0.0
77,56.0,0.0,270.0,4.0,0.0
78,58.0,512.0,270.0,4.0,0.0
79,58.0,0.0,270.0,3.0,0.0
80,73.0,0.0,270.0,1.0,0.0
81,59.0,256.0,510.0,3.0,0.0
82,63.0,0.0,2550.0,2.0,0.0
83,71.0,512.0,1020.0,1.0,0.0
84,80.0,0.0,1530.0,0.0,0.0
85,59.0,0.0,510.0,4.0,0.0
86,58.0,256.0,270.0,3.0,0.0
87,58.0,0.0,270.0,4.0,0.0
88,56.0,0.0,270.0,3.0,0.0
89,56.0,0.0,270.0,4.0,0.0
90,70.0,0.0,1020.0,1.0,0.0
91,63.0,512.0,510.0,4.0,0.0
92,63.0,0.0,510.0,3.0,0.0
93,78.0,0.0,510.0,0.0,0.0
94,51.0,0.0,510.0,4.0,0.0
95,51.0,512.0,510.0,3.0,0.0
96,77.0,0.0,1020.0,0.0,0.0
97,70.0,256.0,1530.0,1.0,0.0
98,58.0,0.0,510.0,3.0,0.0
99,58.0,512.0,510.0,4.0,0.0
100,62.0,0.0,510.0,2.0,0.0
101,56.0,512.0,510.0,4.0,0.0
102,56.0,0.0,510.0,3.0,0.0
103,54.0,0.0,510.0,4.0,0.0
104,78.0,0.0,510.0,0.0,0.0
105,54.0,0.0,510.0,3.0,0.0
106,53.0,256.0,270.0,4.0,0.0
107,68.0,0.0,270.0,1.0,0.0
108,80.0,512.0,510.0,0.0,0.0
109,53.0,0.0,270.0,3.0,0.0
110,70.0,0.0,270.0,1.0,0.0
111,51.0,0.0,270.0,3.0,0.0
112,51.0,0.0,270.0,4.0,0.0
113,63.0,0.0,15.0,2.0,0.0
114,56.0,0.0,510.0,4.0,0.0
115,77.0,0.0,2040.0,0.0,0.0
116,56.0,0.0,510.0,3.0,0.0
117,71.0,512.0,510.0,1.0,0.0
118,53.0,0.0,510.0,4.0,0.0
119,53.0,0.0,510.0,3.0,0.0
120,68.0,512.0,510.0,1.0,0.0
121,58.0,1024.0,1020.0,3.0,0.0
122,70.0,0.0,510.0,1.0,0.0
123,58.0,512.0,510.0,4.0,0.0
124,62.0,0.0,1020.0,2.0,0.0
125,65.0,0.0,510.0,1.0,0.0
126,46.0,0.0,510.0,4.0,0.0
127,51.0,0.0,4110.0,4.0,0.0
128,58.0,0.0,1020.0,2.0,0.0
129,66.0,0.0,1020.0,1.0,0.0
130,75.0,512.0,1020.0,0.0,0.0
131,51.0,0.0,1020.0,3.0,0.0
132,58.0,256.0,270.0,3.0,0.0
133,63.0,256.0,270.0,3.0,0.0
134,65.0,512.0,270.0,3.0,0.0
135,66.0,512.0,510.0,3.0,0.0
136,63.0,256.0,510.0,3.0,0.0
137,59.0,256.0,270.0,3.0,0.0
138,58.0,512.0,270.0,3.0,0.0
139,59.0,1024.0,510.0,3.0,0.0
140,53.0,512.0,4110.0,4.0,0.0
141,68.0,512.0,1020.0,3.0,0.0
142,56.0,256.0,270.0,3.0,0.0
143,56.0,256.0,270.0,3.0,0.0
144,58.0,512.0,270.0,3.0,0.0
145,59.0,512.0,510.0,3.0,0.0
146,56.0,768.0,510.0,3.0,0.0
147,53.0,256.0,780.0,3.0,0.0
148,61.0,0.0,270.0,3.0,0.0
149,58.0,512.0,510.0,3.0,0.0
150,54.0,512.0,1020.0,4.0,0.0
151,54.0,0.0,270.0,3.0,0.0
152,64.0,512.0,510.0,3.0,0.0
153,58.0,0.0,1020.0,4.0,0.0
154,61.0,512.0,510.0,3.0,0.0
155,59.0,512.0,2040.0,4.0,0.0
156,63.0,512.0,510.0,3.0,0.0
157,59.0,512.0,510.0,3.0,0.0
158,56.0,256.0,510.0,3.0,0.0
159,65.0,256.0,270.0,3.0,0.0
160,66.0,0.0,270.0,3.0,0.0
161,66.0,512.0,510.0,3.0,0.0
162,61.0,1024.0,510.0,3.0,0.0
163,61.0,512.0,1020.0,4.0,0.0
164,54.0,512.0,510.0,4.0,0.0
165,53.0,512.0,510.0,4.0,0.0
166,54.0,0.0,510.0,4.0,0.0
167,66.0,0.0,510.0,1.0,0.0
168,70.0,512.0,510.0,0.0,0.0
169,54.0,0.0,510.0,3.0,0.0
170,61.0,0.0,1020.0,2.0,0.0
171,56.0,512.0,510.0,3.0,0.0
172,65.0,0.0,510.0,1.0,0.0
173,56.0,0.0,510.0,4.0,0.0
174,71.0,0.0,510.0,0.0,0.0
175,58.0,512.0,510.0,4.0,0.0
176,73.0,0.0,1020.0,0.0,0.0
177,58.0,0.0,1020.0,3.0,0.0
178,61.0,512.0,1020.0,2.0,0.0
179,54.0,0.0,510.0,4.0,0.0
180,59.0,512.0,510.0,4.0,0.0
181,59.0,0.0,1020.0,3.0,0.0
182,75.0,0.0,1020.0,0.0,0.0
183,66.0,0.0,15.0,1.0,0.0
184,59.0,0.0,1020.0,2.0,0.0
185,68.0,0.0,510.0,1.0,0.0
186,47.0,512.0,510.0,4.0,0.0
187,54.0,512.0,510.0,3.0,0.0
188,73.0,0.0,1020.0,0.0,0.0
189,54.0,0.0,510.0,4.0,0.0
190,61.0,0.0,1020.0,2.0,0.0
191,53.0,0.0,510.0,3.0,0.0
192,53.0,0.0,510.0,4.0,0.0
193,51.0,512.0,510.0,3.0,0.0
194,51.0,0.0,510.0,4.0,0.0
195,78.0,512.0,1020.0,0.0,0.0
196,70.0,512.0,15.0,1.0,0.0
197,49.0,0.0,510.0,4.0,0.0
198,49.0,0.0,510.0,3.0,0.0
199,63.0,0.0,15.0,2.0,0.0
200,48.0,0.0,1020.0,3.0,0.0
201,48.0,0.0,1020.0,4.0,0.0
202,78.0,512.0,510.0,0.0,0.0
203,75.0,0.0,510.0,0.0,0.0
204,49.0,512.0,1020.0,3.0,0.0
205,49.0,0.0,1020.0,4.0,0.0
206,77.0,0.0,1020.0,0.0,0.0
207,68.0,1024.0,15.0,1.0,0.0
208,70.0,0.0,2040.0,1.0,0.0
209,78.0,512.0,2040.0,0.0,0.0
210,61.0,0.0,15.0,2.0,0.0
211,42.0,256.0,510.0,4.0,0.0
212,54.0,512.0,1020.0,3.0,0.0
213,54.0,256.0,270.0,4.0,0.0
214,56.0,0.0,270.0,4.0,0.0
215,66.0,0.0,1020.0,3.0,0.0
216,58.0,512.0,510.0,4.0,0.0
217,60.0,0.0,510.0,4.0,0.0
218,61.0,512.0,510.0,4.0,0.0
219,65.0,512.0,1020.0,3.0,0.0
220,49.0,512.0,1020.0,4.0,0.0
221,70.0,0.0,510.0,1.0,0.0
222,63.0,0.0,1020.0,3.0,0.0
223,63.0,0.0,1020.0,2.0,0.0
224,78.0,0.0,1020.0,0.0,0.0
225,48.0,512.0,510.0,4.0,0.0
226,68.0,0.0,510.0,1.0,0.0
227,77.0,0.0,1020.0,0.0,0.0
228,68.0,0.0,510.0,1.0,0.0
229,63.0,0.0,510.0,3.0,0.0
230,65.0,256.0,510.0,2.0,0.0
231,49.0,0.0,510.0,4.0,0.0
232,58.0,512.0,510.0,4.0,0.0
233,70.0,0.0,510.0,1.0,0.0
234,61.0,0.0,1020.0,3.0,0.0
235,67.0,256.0,270.0,2.0,0.0
236,68.0,0.0,270.0,2.0,0.0
237,70.0,0.0,510.0,1.0,0.0
238,75.0,0.0,1020.0,0.0,0.0
239,70.0,256.0,510.0,2.0,0.0
240,55.0,0.0,510.0,4.0,0.0
241,63.0,0.0,510.0,2.0,0.0
242,59.0,0.0,270.0,3.0,0.0
243,71.0,256.0,270.0,1.0,0.0
244,56.0,0.0,270.0,4.0,0.0
245,73.0,0.0,270.0,1.0,0.0
246,58.0,512.0,270.0,4.0,0.0
247,58.0,0.0,270.0,3.0,0.0
248,80.0,0.0,1530.0,0.0,0.0
249,59.0,0.0,510.0,4.0,0.0
250,59.0,256.0,510.0,3.0,0.0
251,63.0,0.0,2550.0,2.0,0.0
252,71.0,0.0,1020.0,1.0,0.0
253,58.0,256.0,270.0,3.0,0.0
254,58.0,0.0,270.0,4.0,0.0
255,56.0,512.0,270.0,4.0,0.0
256,56.0,0.0,270.0,3.0,0.0
257,63.0,512.0,510.0,3.0,0.0
258,70.0,0.0,1020.0,1.0,0.0
259,63.0,0.0,510.0,4.0,0.0
260,51.0,512.0,510.0,4.0,0.0
261,78.0,0.0,510.0,0.0,0.0
262,51.0,0.0,510.0,3.0,0.0
263,58.0,512.0,510.0,4.0,0.0
264,70.0,0.0,1530.0,1.0,0.0
265,58.0,0.0,510.0,3.0,0.0
266,77.0,0.0,1020.0,0.0,0.0
267,56.0,0.0,510.0,3.0,0.0
268,56.0,0.0,510.0,4.0,0.0
269,62.0,512.0,510.0,2.0,0.0
270,63.0,0.0,1020.0,2.0,0.0
271,54.0,0.0,510.0,4.0,0.0
272,54.0,0.0,510.0,3.0,0.0
273,78.0,256.0,510.0,0.0,0.0
274,53.0,0.0,270.0,3.0,0.0
275,68.0,256.0,270.0,1.0,0.0
276,53.0,0.0,270.0,4.0,0.0
277,80.0,0.0,510.0,0.0,0.0
278,51.0,512.0,270.0,4.0,0.0
279,51.0,0.0,270.0,3.0,0.0
280,70.0,0.0,270.0,1.0,0.0
281,77.0,1024.0,2040.0,0.0,0.0
282,56.0,0.0,510.0,3.0,0.0
283,63.0,0.0,1020.0,2.0,0.0
284,71.0,512.0,510.0,1.0,0.0
285,56.0,0.0,510.0,4.0,0.0
286,53.0,0.0,510.0,3.0,0.0
287,68.0,512.0,510.0,1.0,0.0
288,53.0,0.0,510.0,4.0,0.0
289,58.0,0.0,1020.0,3.0,0.0
290,58.0,0.0,510.0,4.0,0.0
291,62.0,0.0,1020.0,2.0,0.0
292,70.0,512.0,510.0,1.0,0.0
293,46.0,0.0,510.0,4.0,0.0
294,65.0,0.0,510.0,1.0,0.0
295,51.0,512.0,1020.0,3.0,0.0
296,75.0,0.0,1020.0,0.0,0.0
297,58.0,0.0,1020.0,2.0,0.0
298,67.0,0.0,1020.0,1.0,0.0
299,51.0,1024.0,2040.0,4.0,0.0
300,70.0,256.0,15.0,2.0,0.0
301,67.0,0.0,270.0,2.0,0.0
302,63.0,512.0,1020.0,2.0,0.0
303,55.0,0.0,3060.0,4.0,0.0
304,63.0,256.0,270.0,2.0,0.0
305,70.0,256.0,270.0,2.0,0.0
306,71.0,512.0,270.0,2.0,0.0
307,73.0,512.0,510.0,2.0,0.0
308,70.0,768.0,510.0,2.0,0.0
309,61.0,0.0,1020.0,4.0,0.0
310,67.0,256.0,780.0,2.0,0.0
311,59.0,1024.0,2040.0,4.0,0.0
312,68.0,1024.0,15.0,2.0,0.0
313,68.0,256.0,15.0,2.0,0.0
314,65.0,0.0,270.0,2.0,0.0
315,62.0,512.0,1020.0,2.0,0.0
316,53.0,0.0,2040.0,4.0,0.0
317,62.0,256.0,15.0,2.0,0.0
318,63.0,256.0,270.0,2.0,0.0
319,50.0,0.0,2040.0,4.0,0.0
320,65.0,256.0,270.0,2.0,0.0
321,56.0,512.0,15.0,2.0,0.0
322,70.0,512.0,510.0,2.0,0.0
323,66.0,512.0,510.0,2.0,0.0
324,51.0,0.0,2040.0,4.0,0.0
325,63.0,512.0,510.0,2.0,0.0
326,69.0,512.0,510.0,2.0,0.0
327,70.0,512.0,510.0,2.0,0.0
328,54.0,0.0,1020.0,4.0,0.0
329,63.0,512.0,510.0,2.0,0.0
330,61.0,512.0,510.0,2.0,0.0
331,58.0,512.0,510.0,2.0,0.0
332,53.0,512.0,1020.0,4.0,0.0
333,58.0,0.0,510.0,2.0,0.0
334,58.0,512.0,510.0,4.0,0.0
335,56.0,512.0,510.0,4.0,0.0
336,70.0,0.0,510.0,1.0,0.0
337,75.0,0.0,2040.0,0.0,0.0
338,66.0,0.0,510.0,3.0,0.0
339,54.0,512.0,510.0,4.0,0.0
340,63.0,0.0,510.0,2.0,0.0
341,65.0,0.0,510.0,2.0,0.0
342,53.0,512.0,510.0,4.0,0.0
343,68.0,0.0,510.0,1.0,0.0
344,65.0,0.0,510.0,3.0,0.0
345,66.0,0.0,510.0,2.0,0.0
346,51.0,0.0,510.0,4.0,0.0
347,63.0,512.0,510.0,3.0,0.0
348,70.0,0.0,1020.0,1.0,0.0
349,65.0,512.0,510.0,2.0,0.0
350,49.0,0.0,510.0,4.0,0.0
351,61.0,0.0,510.0,3.0,0.0
352,60.0,512.0,510.0,3.0,0.0
353,63.0,0.0,510.0,2.0,0.0
354,75.0,0.0,1020.0,0.0,0.0
355,48.0,0.0,510.0,4.0,0.0
356,44.0,0.0,510.0,4.0,0.0
357,60.0,0.0,510.0,2.0,0.0
358,56.0,512.0,510.0,3.0,0.0
359,68.0,0.0,15.0,1.0,0.0
360,61.0,0.0,510.0,2.0,0.0
361,77.0,0.0,1530.0,0.0,0.0
362,49.0,512.0,510.0,4.0,0.0
363,61.0,512.0,1530.0,3.0,0.0
364,65.0,0.0,510.0,2.0,0.0
365,73.0,0.0,1020.0,1.0,0.0
366,56.0,512.0,510.0,4.0,0.0
367,58.0,0.0,510.0,4.0,0.0
368,67.0,0.0,510.0,2.0,0.0
369,60.0,0.0,510.0,4.0,0.0
370,69.0,0.0,510.0,2.0,0.0
371,63.0,0.0,510.0,3.0,0.0
372,75.0,512.0,510.0,0.0,0.0
373,72.0,0.0,510.0,1.0,0.0
374,61.0,512.0,510.0,4.0,0.0
375,61.0,0.0,510.0,3.0,0.0
376,77.0,0.0,1020.0,0.0,0.0
377,70.0,0.0,1020.0,2.0,0.0
378,60.0,512.0,510.0,3.0,0.0
379,60.0,0.0,510.0,4.0,0.0
380,70.0,0.0,15.0,1.0,0.0
381,58.0,0.0,510.0,4.0,0.0
382,73.0,0.0,1020.0,0.0,0.0
383,65.0,0.0,1020.0,2.0,0.0
384,58.0,512.0,510.0,3.0,0.0
385,56.0,512.0,510.0,4.0,0.0
386,56.0,0.0,510.0,3.0,0.0
387,73.0,512.0,510.0,0.0,0.0
388,54.0,0.0,510.0,3.0,0.0
389,63.0,0.0,1020.0,2.0,0.0
390,70.0,512.0,1020.0,1.0,0.0
391,54.0,0.0,510.0,4.0,0.0
392,51.0,0.0,510.0,3.0,0.0
393,51.0,0.0,510.0,4.0,0.0
394,75.0,0.0,510.0,0.0,0.0
395,72.0,0.0,1020.0,0.0,0.0
396,63.0,512.0,1020.0,2.0,0.0
397,56.0,512.0,510.0,4.0,0.0
398,68.0,0.0,1020.0,1.0,0.0
399,56.0,0.0,1020.0,3.0,0.0
400,44.0,0.0,510.0,4.0,0.0
401,68.0,512.0,1020.0,1.0,0.0
402,49.0,512.0,510.0,4.0,0.0
403,49.0,0.0,1020.0,3.0,0.0
404,65.0,0.0,1020.0,2.0,0.0
405,73.0,0.0,1020.0,0.0,0.0
406,53.0,0.0,510.0,4.0,0.0
407,58.0,512.0,510.0,4.0,0.0
408,61.0,0.0,1020.0,3.0,0.0
409,56.0,512.0,510.0,4.0,0.0
410,63.0,0.0,1020.0,3.0,0.0
411,54.0,512.0,510.0,4.0,0.0
412,56.0,512.0,510.0,4.0,0.0
413,70.0,512.0,510.0,2.0,0.0
414,65.0,0.0,1020.0,3.0,0.0
415,73.0,512.0,1020.0,0.0,0.0
416,54.0,0.0,510.0,4.0,0.0
417,70.0,0.0,1020.0,1.0,0.0
418,53.0,0.0,510.0,4.0,0.0
419,68.0,0.0,510.0,2.0,0.0
420,66.0,512.0,1020.0,2.0,0.0
421,70.0,512.0,510.0,1.0,0.0
422,66.0,0.0,1020.0,3.0,0.0
423,51.0,512.0,2550.0,4.0,0.0
424,75.0,0.0,1020.0,0.0,0.0
425,75.0,512.0,1020.0,1.0,0.0
426,65.0,0.0,1020.0,3.0,0.0
427,77.0,0.0,1020.0,0.0,0.0
428,68.0,0.0,1020.0,2.0,0.0
429,74.0,512.0,510.0,1.0,0.0
430,70.0,0.0,1530.0,2.0,0.0
431,78.0,0.0,1020.0,0.0,0.0
432,63.0,0.0,1530.0,3.0,0.0
433,75.0,0.0,1020.0,1.0,0.0
434,53.0,512.0,510.0,4.0,0.0
435,70.0,0.0,1020.0,1.0,0.0
436,77.0,512.0,1020.0,0.0,0.0
437,51.0,512.0,510.0,4.0,0.0
438,61.0,0.0,510.0,3.0,0.0
439,65.0,0.0,510.0,2.0,0.0
440,49.0,0.0,510.0,4.0,0.0
441,47.0,256.0,510.0,4.0,0.0
442,66.0,512.0,1020.0,2.0,0.0
443,70.0,0.0,510.0,1.0,0.0
444,75.0,0.0,2040.0,0.0,0.0
445,59.0,0.0,510.0,3.0,0.0
446,58.0,0.0,510.0,3.0,0.0
447,68.0,256.0,270.0,1.0,0.0
448,46.0,0.0,510.0,4.0,0.0
449,66.0,0.0,270.0,1.0,0.0
450,59.0,0.0,1020.0,3.0,0.0
451,68.0,0.0,510.0,1.0,0.0
452,65.0,512.0,510.0,2.0,0.0
453,47.0,0.0,1020.0,4.0,0.0
454,63.0,1024.0,510.0,2.0,0.0
455,75.0,0.0,510.0,1.0,0.0
456,58.0,0.0,1020.0,3.0,0.0
457,46.0,512.0,4110.0,4.0,0.0
458,77.0,0.0,1020.0,0.0,0.0
459,70.0,1024.0,1020.0,2.0,0.0
460,74.0,0.0,1020.0,1.0,0.0
461,77.0,512.0,15.0,1.0,0.0
462,70.0,512.0,510.0,1.0,0.0
463,70.0,512.0,510.0,1.0,0.0
464,71.0,0.0,510.0,1.0,0.0
465,73.0,512.0,510.0,1.0,0.0
466,51.0,0.0,4110.0,4.0,0.0
467,67.0,1024.0,510.0,1.0,0.0
468,63.0,512.0,510.0,1.0,0.0
469,73.0,512.0,510.0,1.0,0.0
470,73.0,512.0,510.0,1.0,0.0
471,73.0,512.0,510.0,1.0,0.0
472,75.0,1024.0,510.0,1.0,0.0
473,49.0,0.0,2040.0,4.0,0.0
474,76.0,1024.0,1020.0,1.0,0.0
475,75.0,512.0,510.0,1.0,0.0
476,80.0,512.0,510.0,1.0,0.0
477,47.0,512.0,2040.0,4.0,0.0
478,75.0,512.0,510.0,1.0,0.0
479,74.0,512.0,510.0,1.0,0.0
480,75.0,0.0,510.0,1.0,0.0
481,77.0,512.0,510.0,1.0,0.0
482,50.0,1024.0,2040.0,4.0,0.0
483,68.0,512.0,510.0,1.0,0.0
484,65.0,512.0,510.0,1.0,0.0
485,70.0,0.0,510.0,1.0,0.0
486,51.0,512.0,1020.0,4.0,0.0
487,66.0,0.0,1020.0,1.0,0.0
488,63.0,0.0,1020.0,4.0,0.0
489,63.0,512.0,1020.0,2.0,0.0
490,70.0,512.0,510.0,0.0,0.0
491,63.0,0.0,1020.0,3.0,0.0
492,66.0,0.0,510.0,1.0,0.0
493,68.0,0.0,510.0,1.0,0.0
494,71.0,0.0,510.0,0.0,0.0
495,61.0,512.0,510.0,2.0,0.0
496,58.0,0.0,1020.0,3.0,0.0
497,73.0,0.0,1020.0,0.0,0.0
498,58.0,0.0,1020.0,4.0,0.0
499,66.0,512.0,510.0,2.0,0.0
500,59.0,0.0,1020.0,4.0,0.0
501,63.0,0.0,510.0,2.0,0.0
502,70.0,0.0,15.0,1.0,0.0
503,59.0,0.0,1020.0,3.0,0.0
504,75.0,0.0,1020.0,0.0,0.0
505,68.0,0.0,510.0,1.0,0.0
506,65.0,512.0,510.0,2.0,0.0
507,66.0,0.0,1020.0,2.0,0.0
508,54.0,512.0,510.0,4.0,0.0
509,73.0,512.0,1020.0,0.0,0.0
510,54.0,0.0,510.0,3.0,0.0
511,58.0,0.0,510.0,3.0,0.0
512,53.0,0.0,510.0,4.0,0.0
513,63.0,512.0,510.0,3.0,0.0
514,70.0,0.0,15.0,1.0,0.0
515,66.0,0.0,510.0,2.0,0.0
516,51.0,0.0,510.0,4.0,0.0
517,65.0,0.0,510.0,2.0,0.0
518,49.0,0.0,510.0,4.0,0.0
519,61.0,0.0,510.0,3.0,0.0
520,60.0,1024.0,1020.0,3.0,0.0
521,63.0,0.0,1020.0,2.0,0.0
522,48.0,0.0,1020.0,4.0,0.0
523,78.0,512.0,15.0,0.0,0.0
524,75.0,0.0,510.0,0.0,0.0
525,49.0,0.0,1020.0,4.0,0.0
526,68.0,0.0,15.0,1.0,0.0
527,77.0,0.0,1020.0,0.0,0.0
528,61.0,0.0,1020.0,3.0,0.0
529,61.0,512.0,15.0,2.0,0.0
530,54.0,0.0,1020.0,3.0,0.0
531,70.0,0.0,1020.0,1.0,0.0
532,42.0,256.0,510.0,4.0,0.0
533,78.0,0.0,1020.0,0.0,0.0
534,54.0,256.0,270.0,4.0,0.0
535,56.0,0.0,270.0,4.0,0.0
536,66.0,512.0,1020.0,3.0,0.0
537,58.0,512.0,510.0,4.0,0.0
538,60.0,0.0,510.0,4.0,0.0
539,61.0,512.0,510.0,4.0,0.0
540,65.0,512.0,1020.0,3.0,0.0
541,49.0,0.0,1020.0,4.0,0.0
542,78.0,512.0,1020.0,0.0,0.0
543,70.0,512.0,510.0,1.0,0.0
544,63.0,0.0,1020.0,2.0,0.0
545,63.0,0.0,1020.0,3.0,0.0
546,68.0,0.0,510.0,1.0,0.0
547,48.0,0.0,510.0,4.0,0.0
548,49.0,0.0,510.0,4.0,0.0
549,68.0,0.0,510.0,1.0,0.0
550,63.0,256.0,510.0,3.0,0.0
551,77.0,0.0,1020.0,0.0,0.0
552,65.0,0.0,510.0,2.0,0.0
553,58.0,512.0,510.0,4.0,0.0
554,67.0,256.0,270.0,2.0,0.0
555,61.0,0.0,1020.0,3.0,0.0
556,70.0,0.0,510.0,1.0,0.0
557,68.0,0.0,270.0,2.0,0.0
558,70.0,0.0,510.0,1.0,0.0
559,75.0,0.0,1020.0,0.0,0.0
560,55.0,0.0,510.0,4.0,0.0
561,70.0,256.0,510.0,2.0,0.0
562,56.0,256.0,270.0,4.0,0.0
563,71.0,0.0,270.0,1.0,0.0
564,59.0,0.0,270.0,3.0,0.0
565,63.0,0.0,510.0,2.0,0.0
566,73.0,0.0,270.0,1.0,0.0
567,58.0,512.0,270.0,3.0,0.0
568,58.0,0.0,270.0,4.0,0.0
569,80.0,512.0,1530.0,0.0,0.0
570,59.0,256.0,510.0,3.0,0.0
571,59.0,0.0,510.0,4.0,0.0
572,63.0,512.0,2550.0,2.0,0.0
573,71.0,512.0,1020.0,1.0,0.0
574,58.0,0.0,270.0,3.0,0.0
575,58.0,256.0,270.0,4.0,0.0
576,56.0,0.0,270.0,4.0,0.0
577,56.0,0.0,270.0,3.0,0.0
578,63.0,0.0,510.0,3.0,0.0
579,63.0,0.0,510.0,4.0,0.0
580,70.0,0.0,1020.0,1.0,0.0
581,51.0,0.0,510.0,3.0,0.0
582,51.0,512.0,510.0,4.0,0.0
583,78.0,0.0,510.0,0.0,0.0
584,58.0,0.0,510.0,3.0,0.0
585,70.0,0.0,1530.0,1.0,0.0
586,77.0,0.0,1020.0,0.0,0.0
587,58.0,0.0,510.0,4.0,0.0
588,62.0,0.0,510.0,2.0,0.0
589,56.0,0.0,510.0,4.0,0.0
590,56.0,512.0,510.0,3.0,0.0
591,54.0,256.0,510.0,4.0,0.0
592,54.0,0.0,510.0,3.0,0.0
593,78.0,0.0,510.0,0.0,0.0
594,53.0,0.0,270.0,3.0,0.0
595,68.0,0.0,270.0,1.0,0.0
596,80.0,0.0,510.0,0.0,0.0
597,53.0,256.0,270.0,4.0,0.0
598,51.0,512.0,270.0,3.0,0.0
599,70.0,0.0,270.0,1.0,0.0
600,51.0,0.0,270.0,4.0,0.0
601,63.0,0.0,15.0,2.0,0.0
602,71.0,0.0,510.0,1.0,0.0
603,77.0,0.0,2040.0,0.0,0.0
604,56.0,512.0,510.0,4.0,0.0
605,56.0,0.0,510.0,3.0,0.0
606,68.0,512.0,510.0,1.0,0.0
607,53.0,0.0,510.0,3.0,0.0
608,53.0,0.0,510.0,4.0,0.0
609,58.0,0.0,1020.0,3.0,0.0
610,58.0,1024.0,1020.0,4.0,0.0
611,62.0,0.0,1020.0,2.0,0.0
612,70.0,512.0,510.0,1.0,0.0
613,65.0,0.0,510.0,1.0,0.0
614,51.0,0.0,1020.0,3.0,0.0
615,75.0,512.0,1020.0,0.0,0.0
616,51.0,0.0,2040.0,4.0,0.0
617,66.0,0.0,1020.0,1.0,0.0
618,58.0,0.0,1020.0,2.0,0.0
619,78.0,256.0,270.0,0.0,0.0
620,80.0,256.0,270.0,0.0,0.0
621,82.0,512.0,270.0,0.0,0.0
622,48.0,512.0,6150.0,4.0,0.0
623,75.0,512.0,15.0,0.0,0.0
624,75.0,512.0,15.0,0.0,0.0
625,77.0,512.0,510.0,0.0,0.0
626,78.0,512.0,15.0,0.0,0.0
627,78.0,256.0,270.0,0.0,0.0
628,78.0,256.0,270.0,0.0,0.0
629,80.0,512.0,270.0,0.0,0.0
630,82.0,512.0,510.0,0.0,0.0
631,78.0,512.0,510.0,0.0,0.0
632,75.0,512.0,510.0,0.0,0.0
633,80.0,0.0,510.0,0.0,0.0
634,49.0,512.0,4110.0,4.0,0.0
635,77.0,512.0,510.0,0.0,0.0
636,77.0,512.0,510.0,0.0,0.0
637,80.0,256.0,270.0,0.0,0.0
638,80.0,256.0,270.0,0.0,0.0
639,77.0,512.0,270.0,0.0,0.0
640,73.0,512.0,510.0,0.0,0.0
641,73.0,512.0,510.0,0.0,0.0
642,73.0,512.0,510.0,0.0,0.0
643,75.0,0.0,510.0,0.0,0.0
644,76.0,512.0,510.0,0.0,0.0
645,43.0,512.0,2040.0,4.0,0.0
646,76.0,1024.0,510.0,0.0,0.0
647,75.0,0.0,510.0,0.0,0.0
648,83.0,512.0,510.0,0.0,0.0
649,44.0,0.0,2040.0,4.0,0.0
650,82.0,512.0,510.0,0.0,0.0
651,80.0,512.0,510.0,0.0,0.0
652,78.0,512.0,510.0,0.0,0.0
653,77.0,512.0,510.0,0.0,0.0
654,49.0,0.0,510.0,4.0,0.0
655,78.0,512.0,510.0,0.0,0.0
656,46.0,0.0,510.0,4.0,0.0
657,71.0,512.0,510.0,0.0,0.0
658,51.0,0.0,1020.0,4.0,0.0
659,70.0,512.0,510.0,0.0,0.0
660,66.0,1536.0,15.0,0.0,0.0
661,49.0,512.0,1020.0,4.0,0.0
662,42.0,0.0,2040.0,4.0,0.0
