,note,step,duration,channel,velocity
0,43.0,48.0,180.0,5.0,61.0
1,31.0,0.0,180.0,6.0,61.0
2,62.0,0.0,180.0,1.0,65.0
3,31.0,0.0,180.0,12.0,53.0
4,43.0,0.0,180.0,12.0,53.0
5,31.0,0.0,180.0,8.0,64.0
6,43.0,0.0,180.0,8.0,64.0
7,62.0,0.0,180.0,10.0,57.0
8,67.0,0.0,1740.0,7.0,64.0
9,67.0,48.0,40.0,1.0,65.0
10,43.0,0.0,180.0,6.0,61.0
11,62.0,0.0,1140.0,3.0,59.0
12,62.0,0.0,1140.0,7.0,64.0
13,67.0,0.0,1740.0,2.0,61.0
14,55.0,0.0,180.0,8.0,64.0
15,43.0,0.0,180.0,8.0,64.0
16,43.0,0.0,180.0,12.0,53.0
17,55.0,0.0,180.0,12.0,53.0
18,58.0,2.0,1710.0,7.0,64.0
19,58.0,0.0,1710.0,4.0,61.0
20,67.0,0.0,40.0,10.0,57.0
21,62.0,192.0,1140.0,11.0,53.0
22,67.0,0.0,1740.0,11.0,53.0
23,58.0,0.0,1710.0,11.0,53.0
24,55.0,96.0,180.0,5.0,61.0
25,69.0,96.0,40.0,10.0,57.0
26,69.0,0.0,40.0,1.0,65.0
27,70.0,96.0,180.0,1.0,65.0
28,70.0,0.0,180.0,10.0,57.0
29,55.0,0.0,180.0,5.0,61.0
30,43.0,0.0,180.0,8.0,64.0
31,55.0,0.0,180.0,8.0,64.0
32,43.0,192.0,180.0,12.0,53.0
33,55.0,0.0,180.0,12.0,53.0
34,43.0,0.0,180.0,6.0,61.0
35,69.0,0.0,90.0,10.0,57.0
36,69.0,0.0,90.0,1.0,65.0
37,55.0,0.0,180.0,12.0,53.0
38,43.0,0.0,180.0,12.0,53.0
39,55.0,96.0,180.0,5.0,61.0
40,67.0,0.0,180.0,10.0,57.0
41,67.0,0.0,180.0,1.0,65.0
42,43.0,0.0,180.0,6.0,61.0
43,43.0,0.0,180.0,8.0,64.0
44,55.0,0.0,180.0,8.0,64.0
45,53.0,96.0,180.0,5.0,61.0
46,41.0,0.0,180.0,6.0,61.0
47,41.0,0.0,180.0,8.0,64.0
48,53.0,0.0,180.0,12.0,53.0
49,53.0,0.0,180.0,8.0,64.0
50,69.0,0.0,90.0,1.0,65.0
51,41.0,0.0,180.0,12.0,53.0
52,69.0,96.0,90.0,10.0,57.0
53,67.0,96.0,180.0,10.0,57.0
54,67.0,0.0,180.0,1.0,65.0
55,53.0,0.0,180.0,12.0,53.0
56,41.0,0.0,180.0,12.0,53.0
57,41.0,192.0,180.0,6.0,61.0
58,41.0,0.0,180.0,8.0,64.0
59,53.0,0.0,180.0,5.0,61.0
60,53.0,0.0,180.0,8.0,64.0
61,66.0,0.0,90.0,1.0,65.0
62,66.0,0.0,90.0,10.0,57.0
63,67.0,0.0,180.0,1.0,65.0
64,67.0,0.0,180.0,10.0,57.0
65,41.0,0.0,180.0,12.0,53.0
66,41.0,0.0,180.0,8.0,64.0
67,53.0,0.0,180.0,8.0,64.0
68,53.0,0.0,180.0,12.0,53.0
69,53.0,0.0,180.0,5.0,61.0
70,41.0,0.0,180.0,6.0,61.0
71,51.0,192.0,180.0,8.0,64.0
72,39.0,0.0,180.0,8.0,64.0
73,39.0,0.0,180.0,12.0,53.0
74,51.0,0.0,180.0,12.0,53.0
75,63.0,0.0,570.0,3.0,59.0
76,51.0,0.0,180.0,5.0,61.0
77,39.0,0.0,180.0,6.0,61.0
78,67.0,0.0,960.0,1.0,65.0
79,67.0,0.0,960.0,10.0,57.0
80,63.0,0.0,570.0,7.0,64.0
81,63.0,0.0,570.0,11.0,53.0
82,51.0,0.0,180.0,12.0,53.0
83,39.0,0.0,180.0,8.0,64.0
84,51.0,0.0,180.0,5.0,61.0
85,39.0,0.0,180.0,12.0,53.0
86,39.0,0.0,180.0,6.0,61.0
87,51.0,190.0,180.0,8.0,64.0
88,51.0,0.0,180.0,5.0,61.0
89,51.0,0.0,180.0,8.0,64.0
90,39.0,0.0,180.0,8.0,64.0
91,39.0,192.0,180.0,12.0,53.0
92,39.0,0.0,180.0,6.0,61.0
93,51.0,0.0,180.0,12.0,53.0
94,62.0,0.0,570.0,11.0,53.0
95,71.0,0.0,570.0,2.0,61.0
96,62.0,0.0,570.0,7.0,64.0
97,65.0,0.0,570.0,7.0,64.0
98,71.0,0.0,570.0,7.0,64.0
99,50.0,0.0,180.0,5.0,61.0
100,62.0,2.0,570.0,4.0,61.0
101,65.0,0.0,570.0,3.0,59.0
102,38.0,0.0,180.0,6.0,61.0
103,50.0,0.0,180.0,8.0,64.0
104,38.0,0.0,180.0,8.0,64.0
105,38.0,0.0,180.0,12.0,53.0
106,65.0,0.0,570.0,11.0,53.0
107,50.0,192.0,180.0,12.0,53.0
108,71.0,0.0,570.0,11.0,53.0
109,38.0,0.0,180.0,6.0,61.0
110,50.0,0.0,180.0,5.0,61.0
111,38.0,0.0,180.0,12.0,53.0
112,50.0,0.0,180.0,8.0,64.0
113,38.0,190.0,180.0,8.0,64.0
114,50.0,0.0,180.0,12.0,53.0
115,38.0,192.0,180.0,12.0,53.0
116,67.0,0.0,180.0,1.0,65.0
117,50.0,0.0,180.0,5.0,61.0
118,50.0,0.0,180.0,8.0,64.0
119,38.0,0.0,180.0,6.0,61.0
120,38.0,0.0,180.0,8.0,64.0
121,67.0,0.0,180.0,10.0,57.0
122,50.0,0.0,180.0,12.0,53.0
123,36.0,0.0,180.0,8.0,64.0
124,72.0,0.0,570.0,11.0,53.0
125,48.0,0.0,180.0,5.0,61.0
126,67.0,0.0,2310.0,11.0,53.0
127,72.0,192.0,570.0,7.0,64.0
128,55.0,0.0,570.0,11.0,53.0
129,48.0,0.0,180.0,8.0,64.0
130,75.0,48.0,300.0,10.0,57.0
131,75.0,0.0,300.0,1.0,65.0
132,67.0,0.0,2310.0,3.0,59.0
133,48.0,96.0,180.0,12.0,53.0
134,55.0,2.0,570.0,4.0,61.0
135,36.0,0.0,180.0,6.0,61.0
136,55.0,0.0,570.0,7.0,64.0
137,36.0,0.0,180.0,12.0,53.0
138,72.0,0.0,570.0,2.0,61.0
139,67.0,0.0,2310.0,7.0,64.0
140,36.0,0.0,180.0,6.0,61.0
141,48.0,0.0,180.0,5.0,61.0
142,36.0,0.0,180.0,12.0,53.0
143,48.0,0.0,180.0,8.0,64.0
144,36.0,190.0,180.0,8.0,64.0
145,48.0,0.0,180.0,12.0,53.0
146,74.0,48.0,40.0,10.0,57.0
147,74.0,0.0,40.0,1.0,65.0
148,75.0,0.0,40.0,10.0,57.0
149,75.0,0.0,40.0,1.0,65.0
150,48.0,0.0,180.0,5.0,61.0
151,48.0,0.0,180.0,12.0,53.0
152,36.0,0.0,180.0,12.0,53.0
153,36.0,0.0,180.0,8.0,64.0
154,36.0,0.0,180.0,6.0,61.0
155,77.0,96.0,480.0,10.0,57.0
156,48.0,0.0,180.0,8.0,64.0
157,77.0,0.0,480.0,1.0,65.0
158,38.0,96.0,180.0,6.0,61.0
159,38.0,0.0,180.0,12.0,53.0
160,50.0,0.0,180.0,12.0,53.0
161,50.0,0.0,180.0,5.0,61.0
162,53.0,0.0,570.0,4.0,61.0
163,71.0,0.0,570.0,2.0,61.0
164,53.0,2.0,570.0,11.0,53.0
165,38.0,0.0,180.0,8.0,64.0
166,71.0,0.0,570.0,11.0,53.0
167,71.0,96.0,570.0,7.0,64.0
168,50.0,0.0,180.0,8.0,64.0
169,53.0,0.0,570.0,7.0,64.0
170,50.0,0.0,180.0,12.0,53.0
171,38.0,0.0,180.0,12.0,53.0
172,38.0,0.0,180.0,6.0,61.0
173,50.0,0.0,180.0,5.0,61.0
174,38.0,0.0,180.0,8.0,64.0
175,50.0,0.0,180.0,8.0,64.0
176,75.0,0.0,90.0,10.0,57.0
177,75.0,190.0,90.0,1.0,65.0
178,38.0,0.0,180.0,12.0,53.0
179,50.0,0.0,180.0,12.0,53.0
180,38.0,0.0,180.0,8.0,64.0
181,38.0,0.0,180.0,6.0,61.0
182,74.0,0.0,180.0,1.0,65.0
183,74.0,0.0,180.0,10.0,57.0
184,50.0,0.0,180.0,5.0,61.0
185,50.0,0.0,180.0,8.0,64.0
186,51.0,0.0,570.0,4.0,61.0
187,74.0,96.0,90.0,1.0,65.0
188,51.0,0.0,180.0,8.0,64.0
189,39.0,0.0,180.0,8.0,64.0
190,74.0,0.0,90.0,10.0,57.0
191,51.0,192.0,180.0,12.0,53.0
192,39.0,0.0,180.0,12.0,53.0
193,51.0,0.0,570.0,7.0,64.0
194,72.0,0.0,1140.0,7.0,64.0
195,72.0,96.0,1140.0,2.0,61.0
196,51.0,2.0,570.0,11.0,53.0
197,72.0,0.0,1140.0,11.0,53.0
198,51.0,0.0,180.0,5.0,61.0
199,39.0,0.0,180.0,6.0,61.0
200,72.0,96.0,780.0,10.0,57.0
201,72.0,0.0,780.0,1.0,65.0
202,48.0,0.0,180.0,12.0,53.0
203,36.0,0.0,180.0,6.0,61.0
204,48.0,0.0,180.0,5.0,61.0
205,36.0,0.0,180.0,12.0,53.0
206,48.0,0.0,180.0,8.0,64.0
207,36.0,190.0,180.0,8.0,64.0
208,51.0,192.0,180.0,5.0,61.0
209,39.0,0.0,180.0,12.0,53.0
210,51.0,0.0,180.0,12.0,53.0
211,51.0,0.0,180.0,8.0,64.0
212,39.0,0.0,180.0,8.0,64.0
213,39.0,0.0,180.0,6.0,61.0
214,43.0,0.0,180.0,8.0,64.0
215,63.0,0.0,570.0,7.0,64.0
216,55.0,0.0,180.0,8.0,64.0
217,55.0,0.0,180.0,5.0,61.0
218,43.0,96.0,180.0,12.0,53.0
219,55.0,0.0,180.0,12.0,53.0
220,63.0,0.0,570.0,4.0,61.0
221,43.0,0.0,180.0,6.0,61.0
222,63.0,2.0,570.0,11.0,53.0
223,39.0,190.0,180.0,12.0,53.0
224,39.0,0.0,180.0,6.0,61.0
225,51.0,0.0,180.0,12.0,53.0
226,51.0,0.0,180.0,5.0,61.0
227,39.0,0.0,180.0,8.0,64.0
228,51.0,0.0,180.0,8.0,64.0
229,75.0,0.0,90.0,10.0,57.0
230,75.0,0.0,90.0,1.0,65.0
231,43.0,0.0,180.0,12.0,53.0
232,55.0,0.0,180.0,12.0,53.0
233,72.0,0.0,180.0,1.0,65.0
234,55.0,0.0,180.0,5.0,61.0
235,43.0,0.0,180.0,8.0,64.0
236,55.0,0.0,180.0,8.0,64.0
237,72.0,0.0,180.0,10.0,57.0
238,43.0,0.0,180.0,6.0,61.0
239,48.0,0.0,180.0,6.0,61.0
240,60.0,0.0,180.0,8.0,64.0
241,60.0,0.0,180.0,5.0,61.0
242,48.0,0.0,180.0,8.0,64.0
243,72.0,0.0,2310.0,11.0,53.0
244,70.0,96.0,90.0,1.0,65.0
245,48.0,0.0,180.0,12.0,53.0
246,70.0,0.0,90.0,10.0,57.0
247,68.0,2.0,570.0,11.0,53.0
248,72.0,0.0,2310.0,3.0,59.0
249,75.0,0.0,1740.0,7.0,64.0
250,60.0,96.0,180.0,12.0,53.0
251,68.0,0.0,570.0,4.0,61.0
252,72.0,0.0,2310.0,7.0,64.0
253,75.0,0.0,1740.0,11.0,53.0
254,75.0,0.0,1740.0,2.0,61.0
255,68.0,0.0,570.0,7.0,64.0
256,68.0,96.0,180.0,1.0,65.0
257,68.0,0.0,180.0,10.0,57.0
258,60.0,0.0,180.0,5.0,61.0
259,48.0,0.0,180.0,6.0,61.0
260,60.0,0.0,180.0,8.0,64.0
261,48.0,0.0,180.0,8.0,64.0
262,48.0,0.0,180.0,12.0,53.0
263,60.0,0.0,180.0,12.0,53.0
264,75.0,0.0,90.0,1.0,65.0
265,75.0,190.0,90.0,10.0,57.0
266,72.0,0.0,180.0,1.0,65.0
267,48.0,0.0,180.0,6.0,61.0
268,72.0,0.0,180.0,10.0,57.0
269,48.0,0.0,180.0,8.0,64.0
270,60.0,0.0,180.0,5.0,61.0
271,48.0,0.0,180.0,12.0,53.0
272,60.0,96.0,180.0,12.0,53.0
273,60.0,0.0,180.0,8.0,64.0
274,68.0,0.0,90.0,1.0,65.0
275,58.0,0.0,180.0,8.0,64.0
276,58.0,0.0,180.0,12.0,53.0
277,46.0,0.0,180.0,12.0,53.0
278,67.0,2.0,570.0,4.0,61.0
279,46.0,96.0,180.0,6.0,61.0
280,68.0,96.0,90.0,10.0,57.0
281,58.0,0.0,180.0,5.0,61.0
282,67.0,0.0,570.0,11.0,53.0
283,46.0,0.0,180.0,8.0,64.0
284,67.0,0.0,570.0,7.0,64.0
285,67.0,0.0,180.0,1.0,65.0
286,67.0,96.0,180.0,10.0,57.0
287,58.0,190.0,180.0,8.0,64.0
288,46.0,0.0,180.0,8.0,64.0
289,46.0,0.0,180.0,6.0,61.0
290,58.0,0.0,180.0,5.0,61.0
291,46.0,0.0,180.0,12.0,53.0
292,58.0,0.0,180.0,12.0,53.0
293,75.0,0.0,90.0,1.0,65.0
294,75.0,0.0,90.0,10.0,57.0
295,46.0,0.0,180.0,6.0,61.0
296,58.0,0.0,180.0,5.0,61.0
297,58.0,0.0,180.0,8.0,64.0
298,72.0,96.0,180.0,10.0,57.0
299,72.0,0.0,180.0,1.0,65.0
300,46.0,0.0,180.0,12.0,53.0
301,46.0,0.0,180.0,8.0,64.0
302,58.0,0.0,180.0,12.0,53.0
303,45.0,0.0,180.0,8.0,64.0
304,57.0,0.0,180.0,8.0,64.0
305,67.0,96.0,90.0,1.0,65.0
306,45.0,0.0,180.0,6.0,61.0
307,45.0,0.0,180.0,12.0,53.0
308,57.0,0.0,180.0,12.0,53.0
309,67.0,0.0,90.0,10.0,57.0
310,66.0,0.0,570.0,11.0,53.0
311,57.0,96.0,180.0,5.0,61.0
312,66.0,2.0,570.0,7.0,64.0
313,66.0,0.0,570.0,4.0,61.0
314,66.0,48.0,180.0,10.0,57.0
315,66.0,0.0,180.0,1.0,65.0
316,45.0,0.0,180.0,6.0,61.0
317,57.0,0.0,180.0,5.0,61.0
318,45.0,0.0,180.0,12.0,53.0
319,57.0,0.0,180.0,8.0,64.0
320,57.0,0.0,180.0,12.0,53.0
321,45.0,0.0,180.0,8.0,64.0
322,72.0,0.0,40.0,10.0,57.0
323,72.0,48.0,40.0,1.0,65.0
324,74.0,0.0,40.0,10.0,57.0
325,74.0,190.0,40.0,1.0,65.0
326,75.0,0.0,480.0,1.0,65.0
327,57.0,0.0,180.0,5.0,61.0
328,45.0,0.0,180.0,8.0,64.0
329,57.0,0.0,180.0,8.0,64.0
330,75.0,96.0,480.0,10.0,57.0
331,45.0,192.0,180.0,6.0,61.0
332,45.0,0.0,180.0,12.0,53.0
333,57.0,0.0,180.0,12.0,53.0
334,54.0,0.0,180.0,8.0,64.0
335,69.0,0.0,570.0,4.0,61.0
336,69.0,0.0,570.0,2.0,61.0
337,54.0,0.0,180.0,5.0,61.0
338,42.0,0.0,180.0,6.0,61.0
339,42.0,0.0,180.0,12.0,53.0
340,69.0,0.0,570.0,11.0,53.0
341,42.0,0.0,180.0,8.0,64.0
342,69.0,2.0,570.0,7.0,64.0
343,54.0,96.0,180.0,12.0,53.0
344,42.0,0.0,180.0,12.0,53.0
345,42.0,0.0,180.0,8.0,64.0
346,54.0,0.0,180.0,8.0,64.0
347,42.0,0.0,180.0,6.0,61.0
348,54.0,0.0,180.0,5.0,61.0
349,54.0,0.0,180.0,12.0,53.0
350,74.0,190.0,90.0,10.0,57.0
351,74.0,0.0,90.0,1.0,65.0
352,54.0,0.0,180.0,5.0,61.0
353,42.0,0.0,180.0,6.0,61.0
354,72.0,0.0,180.0,1.0,65.0
355,42.0,0.0,180.0,12.0,53.0
356,54.0,0.0,180.0,12.0,53.0
357,72.0,0.0,180.0,10.0,57.0
358,54.0,24.0,180.0,8.0,64.0
359,42.0,0.0,180.0,8.0,64.0
360,70.0,0.0,570.0,2.0,61.0
361,55.0,24.0,180.0,8.0,64.0
362,70.0,24.0,20.0,10.0,57.0
363,55.0,0.0,180.0,12.0,53.0
364,43.0,0.0,180.0,12.0,53.0
365,70.0,0.0,570.0,7.0,64.0
366,62.0,0.0,570.0,7.0,64.0
367,43.0,0.0,180.0,8.0,64.0
368,70.0,192.0,570.0,3.0,59.0
369,62.0,0.0,570.0,4.0,61.0
370,70.0,0.0,20.0,1.0,65.0
371,70.0,0.0,570.0,11.0,53.0
372,62.0,2.0,570.0,11.0,53.0
373,43.0,0.0,180.0,6.0,61.0
374,55.0,0.0,180.0,5.0,61.0
375,72.0,0.0,20.0,10.0,57.0
376,72.0,24.0,20.0,1.0,65.0
377,70.0,0.0,20.0,1.0,65.0
378,70.0,24.0,20.0,10.0,57.0
379,72.0,0.0,20.0,1.0,65.0
380,72.0,24.0,20.0,10.0,57.0
381,70.0,24.0,20.0,10.0,57.0
382,70.0,0.0,20.0,1.0,65.0
383,72.0,24.0,20.0,10.0,57.0
384,72.0,0.0,20.0,1.0,65.0
385,70.0,0.0,20.0,10.0,57.0
386,70.0,24.0,20.0,1.0,65.0
387,72.0,0.0,20.0,10.0,57.0
388,72.0,0.0,20.0,1.0,65.0
389,70.0,0.0,20.0,1.0,65.0
390,70.0,24.0,20.0,10.0,57.0
391,55.0,190.0,180.0,12.0,53.0
392,43.0,0.0,180.0,8.0,64.0
393,55.0,0.0,180.0,8.0,64.0
394,55.0,0.0,180.0,5.0,61.0
395,43.0,0.0,180.0,6.0,61.0
396,43.0,0.0,180.0,12.0,53.0
397,72.0,24.0,20.0,10.0,57.0
398,72.0,0.0,20.0,1.0,65.0
399,70.0,0.0,20.0,1.0,65.0
400,70.0,24.0,20.0,10.0,57.0
401,72.0,0.0,20.0,1.0,65.0
402,72.0,48.0,20.0,10.0,57.0
403,69.0,0.0,40.0,10.0,57.0
404,69.0,48.0,40.0,1.0,65.0
405,70.0,0.0,40.0,10.0,57.0
406,70.0,0.0,40.0,1.0,65.0
407,55.0,0.0,180.0,5.0,61.0
408,43.0,0.0,180.0,6.0,61.0
409,72.0,96.0,480.0,10.0,57.0
410,43.0,0.0,180.0,8.0,64.0
411,43.0,0.0,180.0,12.0,53.0
412,55.0,0.0,180.0,12.0,53.0
413,55.0,0.0,180.0,8.0,64.0
414,72.0,0.0,480.0,1.0,65.0
415,67.0,0.0,570.0,3.0,59.0
416,51.0,0.0,180.0,12.0,53.0
417,51.0,0.0,180.0,5.0,61.0
418,63.0,2.0,570.0,7.0,64.0
419,63.0,0.0,570.0,11.0,53.0
420,67.0,0.0,570.0,11.0,53.0
421,72.0,0.0,570.0,11.0,53.0
422,63.0,0.0,570.0,4.0,61.0
423,39.0,0.0,180.0,8.0,64.0
424,67.0,0.0,570.0,7.0,64.0
425,72.0,0.0,570.0,2.0,61.0
426,51.0,96.0,180.0,8.0,64.0
427,72.0,0.0,570.0,7.0,64.0
428,39.0,0.0,180.0,12.0,53.0
429,39.0,0.0,180.0,6.0,61.0
430,51.0,0.0,180.0,8.0,64.0
431,39.0,0.0,180.0,6.0,61.0
432,39.0,0.0,180.0,8.0,64.0
433,51.0,190.0,180.0,5.0,61.0
434,51.0,0.0,180.0,12.0,53.0
435,39.0,0.0,180.0,12.0,53.0
436,70.0,0.0,90.0,10.0,57.0
437,70.0,0.0,90.0,1.0,65.0
438,51.0,0.0,180.0,8.0,64.0
439,39.0,0.0,180.0,8.0,64.0
440,69.0,0.0,180.0,1.0,65.0
441,51.0,0.0,180.0,12.0,53.0
442,39.0,96.0,180.0,12.0,53.0
443,69.0,0.0,180.0,10.0,57.0
444,39.0,0.0,180.0,6.0,61.0
445,51.0,0.0,180.0,5.0,61.0
446,50.0,0.0,180.0,5.0,61.0
447,67.0,96.0,90.0,10.0,57.0
448,38.0,0.0,180.0,6.0,61.0
449,74.0,0.0,960.0,2.0,61.0
450,66.0,0.0,960.0,7.0,64.0
451,57.0,0.0,960.0,11.0,53.0
452,66.0,0.0,960.0,11.0,53.0
453,57.0,0.0,960.0,4.0,61.0
454,57.0,2.0,960.0,7.0,64.0
455,50.0,0.0,180.0,12.0,53.0
456,38.0,0.0,180.0,12.0,53.0
457,66.0,0.0,960.0,3.0,59.0
458,38.0,192.0,180.0,8.0,64.0
459,50.0,0.0,180.0,8.0,64.0
460,67.0,0.0,90.0,1.0,65.0
461,74.0,0.0,960.0,11.0,53.0
462,74.0,0.0,960.0,7.0,64.0
463,66.0,94.0,780.0,10.0,57.0
464,66.0,0.0,780.0,1.0,65.0
465,45.0,0.0,180.0,8.0,64.0
466,45.0,0.0,180.0,5.0,61.0
467,33.0,192.0,180.0,6.0,61.0
468,45.0,0.0,180.0,12.0,53.0
469,33.0,0.0,180.0,12.0,53.0
470,33.0,0.0,180.0,8.0,64.0
471,36.0,0.0,180.0,12.0,53.0
472,36.0,0.0,180.0,6.0,61.0
473,48.0,0.0,180.0,12.0,53.0
474,48.0,0.0,180.0,8.0,64.0
475,36.0,0.0,180.0,8.0,64.0
476,48.0,192.0,180.0,5.0,61.0
477,36.0,0.0,180.0,12.0,53.0
478,48.0,0.0,180.0,12.0,53.0
479,36.0,0.0,180.0,8.0,64.0
480,48.0,0.0,180.0,8.0,64.0
481,48.0,96.0,180.0,5.0,61.0
482,36.0,0.0,180.0,6.0,61.0
483,42.0,0.0,180.0,5.0,61.0
484,30.0,0.0,180.0,8.0,64.0
485,30.0,0.0,180.0,12.0,53.0
486,42.0,0.0,180.0,12.0,53.0
487,42.0,0.0,180.0,8.0,64.0
488,30.0,96.0,180.0,6.0,61.0
489,62.0,0.0,90.0,1.0,65.0
490,62.0,0.0,90.0,10.0,57.0
491,33.0,0.0,180.0,12.0,53.0
492,33.0,94.0,180.0,8.0,64.0
493,45.0,0.0,180.0,8.0,64.0
494,66.0,0.0,90.0,10.0,57.0
495,33.0,0.0,180.0,6.0,61.0
496,45.0,0.0,180.0,5.0,61.0
497,45.0,0.0,180.0,12.0,53.0
498,66.0,96.0,90.0,1.0,65.0
499,69.0,0.0,90.0,1.0,65.0
500,69.0,0.0,90.0,10.0,57.0
501,72.0,0.0,90.0,1.0,65.0
502,57.0,0.0,390.0,4.0,61.0
503,38.0,0.0,750.0,5.0,61.0
504,26.0,0.0,750.0,12.0,53.0
505,38.0,0.0,750.0,12.0,53.0
506,38.0,0.0,750.0,8.0,64.0
507,57.0,0.0,390.0,11.0,53.0
508,57.0,0.0,390.0,7.0,64.0
509,62.0,0.0,390.0,7.0,64.0
510,66.0,0.0,390.0,7.0,64.0
511,62.0,0.0,390.0,3.0,59.0
512,66.0,0.0,390.0,2.0,61.0
513,26.0,0.0,750.0,6.0,61.0
514,66.0,0.0,390.0,11.0,53.0
515,62.0,0.0,390.0,11.0,53.0
516,26.0,0.0,750.0,8.0,64.0
517,72.0,96.0,90.0,10.0,57.0
518,70.0,192.0,90.0,10.0,57.0
519,70.0,0.0,90.0,1.0,65.0
520,69.0,384.0,180.0,1.0,65.0
521,69.0,0.0,180.0,10.0,57.0
522,58.0,0.0,390.0,11.0,53.0
523,67.0,0.0,390.0,1.0,65.0
524,67.0,0.0,390.0,7.0,64.0
525,64.0,0.0,390.0,7.0,64.0
526,67.0,0.0,390.0,11.0,53.0
527,64.0,0.0,390.0,11.0,53.0
528,58.0,0.0,390.0,4.0,61.0
529,64.0,192.0,390.0,3.0,59.0
530,67.0,0.0,390.0,10.0,57.0
531,67.0,0.0,390.0,2.0,61.0
532,58.0,0.0,390.0,7.0,64.0
533,60.0,0.0,390.0,4.0,61.0
534,69.0,0.0,390.0,11.0,53.0
535,66.0,0.0,390.0,11.0,53.0
536,69.0,0.0,390.0,2.0,61.0
537,66.0,0.0,390.0,3.0,59.0
538,60.0,96.0,390.0,11.0,53.0
539,66.0,0.0,180.0,1.0,65.0
540,66.0,0.0,390.0,7.0,64.0
541,60.0,0.0,390.0,7.0,64.0
542,69.0,0.0,390.0,7.0,64.0
543,66.0,64.0,180.0,10.0,57.0
544,67.0,128.0,60.0,10.0,57.0
545,67.0,0.0,60.0,1.0,65.0
546,50.0,0.0,390.0,7.0,64.0
547,50.0,24.0,390.0,11.0,53.0
548,50.0,0.0,390.0,4.0,61.0
549,66.0,0.0,390.0,11.0,53.0
550,69.0,0.0,390.0,11.0,53.0
551,69.0,0.0,390.0,7.0,64.0
552,66.0,0.0,390.0,3.0,59.0
553,66.0,360.0,390.0,7.0,64.0
554,69.0,96.0,90.0,10.0,57.0
555,69.0,0.0,390.0,2.0,61.0
556,69.0,0.0,90.0,1.0,65.0
557,67.0,0.0,90.0,1.0,65.0
558,67.0,168.0,90.0,10.0,57.0
559,66.0,0.0,180.0,1.0,65.0
560,66.0,0.0,180.0,10.0,57.0
561,50.0,0.0,390.0,4.0,61.0
562,50.0,24.0,390.0,11.0,53.0
563,50.0,0.0,390.0,7.0,64.0
564,67.0,0.0,390.0,3.0,59.0
565,70.0,0.0,390.0,11.0,53.0
566,70.0,0.0,390.0,2.0,61.0
567,67.0,192.0,390.0,7.0,64.0
568,67.0,0.0,390.0,11.0,53.0
569,63.0,0.0,390.0,1.0,65.0
570,63.0,0.0,390.0,10.0,57.0
571,70.0,0.0,390.0,7.0,64.0
572,50.0,0.0,390.0,4.0,61.0
573,50.0,0.0,390.0,7.0,64.0
574,50.0,24.0,390.0,11.0,53.0
575,62.0,0.0,180.0,1.0,65.0
576,69.0,0.0,390.0,3.0,59.0
577,69.0,96.0,390.0,7.0,64.0
578,72.0,0.0,390.0,11.0,53.0
579,69.0,0.0,390.0,11.0,53.0
580,72.0,0.0,390.0,2.0,61.0
581,62.0,168.0,180.0,10.0,57.0
582,72.0,0.0,390.0,7.0,64.0
583,63.0,0.0,180.0,10.0,57.0
584,63.0,0.0,180.0,1.0,65.0
585,63.0,96.0,90.0,1.0,65.0
586,38.0,384.0,390.0,5.0,61.0
587,66.0,0.0,1920.0,11.0,53.0
588,69.0,0.0,1920.0,11.0,53.0
589,72.0,0.0,1920.0,11.0,53.0
590,63.0,0.0,90.0,10.0,57.0
591,38.0,0.0,390.0,8.0,64.0
592,26.0,0.0,390.0,6.0,61.0
593,69.0,0.0,1920.0,7.0,64.0
594,72.0,192.0,1920.0,2.0,61.0
595,26.0,0.0,390.0,8.0,64.0
596,69.0,0.0,1920.0,3.0,59.0
597,26.0,0.0,390.0,12.0,53.0
598,38.0,0.0,390.0,12.0,53.0
599,66.0,0.0,1920.0,7.0,64.0
600,66.0,0.0,1920.0,4.0,61.0
601,72.0,0.0,1920.0,7.0,64.0
602,62.0,192.0,90.0,1.0,65.0
603,62.0,0.0,90.0,10.0,57.0
604,60.0,0.0,180.0,1.0,65.0
605,60.0,0.0,180.0,10.0,57.0
606,38.0,0.0,390.0,5.0,61.0
607,26.0,0.0,390.0,6.0,61.0
608,66.0,96.0,570.0,1.0,65.0
609,26.0,0.0,390.0,8.0,64.0
610,66.0,0.0,570.0,10.0,57.0
611,38.0,192.0,390.0,8.0,64.0
612,38.0,0.0,390.0,12.0,53.0
613,26.0,0.0,390.0,12.0,53.0
614,38.0,96.0,390.0,5.0,61.0
615,26.0,0.0,390.0,6.0,61.0
616,26.0,0.0,390.0,12.0,53.0
617,38.0,0.0,390.0,12.0,53.0
618,38.0,0.0,390.0,8.0,64.0
619,26.0,0.0,390.0,8.0,64.0
620,63.0,96.0,90.0,1.0,65.0
621,63.0,0.0,90.0,10.0,57.0
622,62.0,0.0,90.0,1.0,65.0
623,62.0,0.0,90.0,10.0,57.0
624,63.0,0.0,90.0,1.0,65.0
625,26.0,0.0,390.0,6.0,61.0
626,38.0,0.0,390.0,8.0,64.0
627,26.0,0.0,390.0,8.0,64.0
628,26.0,0.0,390.0,12.0,53.0
629,38.0,0.0,390.0,5.0,61.0
630,38.0,384.0,390.0,12.0,53.0
631,63.0,96.0,90.0,10.0,57.0
632,62.0,192.0,90.0,1.0,65.0
633,62.0,0.0,90.0,10.0,57.0
634,60.0,0.0,180.0,10.0,57.0
635,60.0,0.0,180.0,1.0,65.0
636,38.0,0.0,390.0,5.0,61.0
637,26.0,0.0,390.0,6.0,61.0
638,26.0,0.0,390.0,8.0,64.0
639,38.0,0.0,390.0,8.0,64.0
640,69.0,96.0,570.0,10.0,57.0
641,69.0,0.0,570.0,1.0,65.0
642,38.0,0.0,390.0,12.0,53.0
643,26.0,0.0,390.0,12.0,53.0
644,38.0,0.0,390.0,5.0,61.0
645,26.0,0.0,390.0,6.0,61.0
646,26.0,50.0,390.0,12.0,53.0
647,38.0,0.0,390.0,12.0,53.0
648,38.0,0.0,390.0,8.0,64.0
649,26.0,0.0,390.0,8.0,64.0
650,62.0,96.0,90.0,1.0,65.0
651,62.0,0.0,90.0,10.0,57.0
652,60.0,0.0,90.0,1.0,65.0
653,60.0,0.0,90.0,10.0,57.0
654,62.0,0.0,180.0,2.0,61.0
655,31.0,0.0,390.0,8.0,64.0
656,43.0,0.0,390.0,8.0,64.0
657,53.0,0.0,180.0,7.0,64.0
658,59.0,0.0,180.0,7.0,64.0
659,62.0,0.0,180.0,7.0,64.0
660,62.0,0.0,40.0,10.0,57.0
661,59.0,0.0,180.0,3.0,59.0
662,53.0,2.0,180.0,4.0,61.0
663,59.0,190.0,180.0,11.0,53.0
664,62.0,0.0,180.0,11.0,53.0
665,43.0,0.0,390.0,12.0,53.0
666,31.0,0.0,390.0,12.0,53.0
667,31.0,0.0,390.0,6.0,61.0
668,43.0,0.0,390.0,5.0,61.0
669,62.0,48.0,40.0,1.0,65.0
670,53.0,0.0,180.0,11.0,53.0
671,60.0,94.0,40.0,10.0,57.0
672,60.0,0.0,40.0,1.0,65.0
673,59.0,0.0,90.0,10.0,57.0
674,59.0,0.0,90.0,1.0,65.0
675,60.0,0.0,180.0,11.0,53.0
676,51.0,0.0,180.0,11.0,53.0
677,56.0,0.0,180.0,10.0,57.0
678,60.0,96.0,180.0,3.0,59.0
679,51.0,0.0,180.0,4.0,61.0
680,63.0,0.0,180.0,11.0,53.0
681,56.0,0.0,180.0,1.0,65.0
682,63.0,0.0,180.0,2.0,61.0
683,63.0,0.0,180.0,7.0,64.0
684,60.0,0.0,180.0,7.0,64.0
685,51.0,2.0,180.0,7.0,64.0
686,65.0,0.0,180.0,7.0,64.0
687,62.0,0.0,180.0,7.0,64.0
688,50.0,2.0,180.0,7.0,64.0
689,55.0,48.0,90.0,10.0,57.0
690,65.0,0.0,180.0,11.0,53.0
691,62.0,0.0,180.0,11.0,53.0
692,50.0,0.0,180.0,11.0,53.0
693,55.0,0.0,90.0,1.0,65.0
694,50.0,0.0,180.0,4.0,61.0
695,62.0,0.0,180.0,3.0,59.0
696,65.0,48.0,180.0,2.0,61.0
697,65.0,46.0,40.0,1.0,65.0
698,65.0,0.0,40.0,10.0,57.0
699,63.0,0.0,40.0,10.0,57.0
700,63.0,0.0,40.0,1.0,65.0
701,62.0,190.0,180.0,7.0,64.0
702,59.0,0.0,180.0,7.0,64.0
703,55.0,0.0,180.0,7.0,64.0
704,59.0,0.0,180.0,3.0,59.0
705,55.0,0.0,180.0,4.0,61.0
706,62.0,0.0,180.0,2.0,61.0
707,65.0,48.0,40.0,1.0,65.0
708,55.0,2.0,180.0,11.0,53.0
709,59.0,0.0,180.0,11.0,53.0
710,62.0,0.0,180.0,11.0,53.0
711,65.0,0.0,40.0,10.0,57.0
712,63.0,0.0,40.0,1.0,65.0
713,63.0,94.0,40.0,10.0,57.0
714,62.0,0.0,90.0,1.0,65.0
715,62.0,0.0,90.0,10.0,57.0
716,55.0,0.0,180.0,4.0,61.0
717,63.0,0.0,180.0,7.0,64.0
718,60.0,0.0,180.0,7.0,64.0
719,55.0,2.0,180.0,7.0,64.0
720,60.0,0.0,180.0,3.0,59.0
721,63.0,0.0,180.0,2.0,61.0
722,60.0,0.0,180.0,10.0,57.0
723,63.0,96.0,180.0,11.0,53.0
724,55.0,0.0,180.0,11.0,53.0
725,60.0,0.0,180.0,1.0,65.0
726,60.0,0.0,180.0,11.0,53.0
727,55.0,0.0,180.0,4.0,61.0
728,55.0,2.0,180.0,11.0,53.0
729,62.0,0.0,180.0,7.0,64.0
730,62.0,0.0,180.0,11.0,53.0
731,65.0,48.0,180.0,11.0,53.0
732,65.0,0.0,180.0,7.0,64.0
733,55.0,0.0,180.0,7.0,64.0
734,59.0,48.0,90.0,1.0,65.0
735,65.0,0.0,180.0,2.0,61.0
736,62.0,0.0,180.0,3.0,59.0
737,59.0,0.0,90.0,10.0,57.0
738,68.0,0.0,40.0,10.0,57.0
739,68.0,46.0,40.0,1.0,65.0
740,67.0,0.0,40.0,10.0,57.0
741,67.0,0.0,40.0,1.0,65.0
742,59.0,2.0,960.0,11.0,53.0
743,31.0,0.0,180.0,6.0,61.0
744,43.0,192.0,180.0,12.0,53.0
745,31.0,0.0,180.0,12.0,53.0
746,68.0,48.0,40.0,10.0,57.0
747,31.0,0.0,180.0,8.0,64.0
748,59.0,0.0,960.0,4.0,61.0
749,43.0,0.0,180.0,5.0,61.0
750,62.0,96.0,960.0,11.0,53.0
751,43.0,0.0,180.0,8.0,64.0
752,65.0,0.0,960.0,11.0,53.0
753,62.0,0.0,960.0,3.0,59.0
754,68.0,0.0,40.0,1.0,65.0
755,65.0,0.0,960.0,7.0,64.0
756,65.0,0.0,960.0,2.0,61.0
757,59.0,0.0,960.0,7.0,64.0
758,62.0,0.0,960.0,7.0,64.0
759,67.0,96.0,40.0,10.0,57.0
760,67.0,0.0,40.0,1.0,65.0
761,65.0,0.0,90.0,1.0,65.0
762,65.0,0.0,90.0,10.0,57.0
763,43.0,0.0,180.0,12.0,53.0
764,63.0,0.0,180.0,1.0,65.0
765,31.0,0.0,180.0,6.0,61.0
766,31.0,0.0,180.0,8.0,64.0
767,43.0,96.0,180.0,8.0,64.0
768,63.0,0.0,180.0,10.0,57.0
769,43.0,0.0,180.0,5.0,61.0
770,31.0,0.0,180.0,12.0,53.0
771,62.0,48.0,90.0,10.0,57.0
772,31.0,0.0,180.0,12.0,53.0
773,43.0,0.0,180.0,8.0,64.0
774,31.0,0.0,180.0,8.0,64.0
775,62.0,0.0,90.0,1.0,65.0
776,43.0,0.0,180.0,5.0,61.0
777,43.0,48.0,180.0,12.0,53.0
778,31.0,0.0,180.0,6.0,61.0
779,74.0,0.0,40.0,1.0,65.0
780,74.0,48.0,40.0,10.0,57.0
781,72.0,0.0,40.0,10.0,57.0
782,72.0,0.0,40.0,1.0,65.0
783,43.0,0.0,180.0,5.0,61.0
784,74.0,0.0,40.0,10.0,57.0
785,43.0,0.0,180.0,8.0,64.0
786,43.0,190.0,180.0,12.0,53.0
787,31.0,0.0,180.0,8.0,64.0
788,74.0,48.0,40.0,1.0,65.0
789,31.0,0.0,180.0,6.0,61.0
790,31.0,0.0,180.0,12.0,53.0
791,72.0,0.0,40.0,10.0,57.0
792,72.0,96.0,40.0,1.0,65.0
793,71.0,0.0,90.0,10.0,57.0
794,71.0,0.0,90.0,1.0,65.0
795,68.0,0.0,180.0,1.0,65.0
796,43.0,0.0,180.0,12.0,53.0
797,43.0,0.0,180.0,5.0,61.0
798,31.0,0.0,180.0,12.0,53.0
799,31.0,0.0,180.0,6.0,61.0
800,31.0,0.0,180.0,8.0,64.0
801,43.0,0.0,180.0,8.0,64.0
802,68.0,0.0,180.0,10.0,57.0
803,31.0,48.0,180.0,6.0,61.0
804,43.0,0.0,180.0,12.0,53.0
805,31.0,0.0,180.0,12.0,53.0
806,43.0,0.0,180.0,5.0,61.0
807,43.0,0.0,180.0,8.0,64.0
808,31.0,0.0,180.0,8.0,64.0
809,67.0,96.0,90.0,1.0,65.0
810,67.0,0.0,90.0,10.0,57.0
811,74.0,0.0,90.0,10.0,57.0
812,74.0,0.0,90.0,1.0,65.0
813,55.0,0.0,570.0,11.0,53.0
814,63.0,0.0,570.0,7.0,64.0
815,63.0,0.0,570.0,11.0,53.0
816,60.0,0.0,570.0,11.0,53.0
817,36.0,0.0,180.0,5.0,61.0
818,63.0,0.0,570.0,2.0,61.0
819,60.0,0.0,570.0,7.0,64.0
820,24.0,96.0,180.0,6.0,61.0
821,75.0,48.0,40.0,1.0,65.0
822,55.0,0.0,570.0,4.0,61.0
823,55.0,2.0,570.0,7.0,64.0
824,60.0,0.0,570.0,3.0,59.0
825,75.0,0.0,40.0,10.0,57.0
826,24.0,0.0,180.0,12.0,53.0
827,24.0,0.0,180.0,8.0,64.0
828,36.0,0.0,180.0,8.0,64.0
829,36.0,0.0,180.0,12.0,53.0
830,77.0,96.0,40.0,1.0,65.0
831,77.0,0.0,40.0,10.0,57.0
832,79.0,48.0,180.0,10.0,57.0
833,79.0,0.0,180.0,1.0,65.0
834,36.0,0.0,180.0,8.0,64.0
835,24.0,0.0,180.0,6.0,61.0
836,24.0,0.0,180.0,12.0,53.0
837,36.0,0.0,180.0,12.0,53.0
838,36.0,48.0,180.0,5.0,61.0
839,24.0,0.0,180.0,8.0,64.0
840,77.0,0.0,40.0,1.0,65.0
841,77.0,48.0,40.0,10.0,57.0
842,75.0,0.0,40.0,1.0,65.0
843,75.0,0.0,40.0,10.0,57.0
844,24.0,0.0,180.0,8.0,64.0
845,24.0,0.0,180.0,12.0,53.0
846,36.0,0.0,180.0,12.0,53.0
847,36.0,0.0,180.0,5.0,61.0
848,77.0,48.0,40.0,1.0,65.0
849,24.0,0.0,180.0,6.0,61.0
850,77.0,0.0,40.0,10.0,57.0
851,36.0,0.0,180.0,8.0,64.0
852,75.0,94.0,40.0,10.0,57.0
853,75.0,0.0,40.0,1.0,65.0
854,74.0,48.0,90.0,1.0,65.0
855,74.0,0.0,90.0,10.0,57.0
856,24.0,96.0,180.0,6.0,61.0
857,67.0,0.0,570.0,7.0,64.0
858,63.0,0.0,570.0,7.0,64.0
859,67.0,0.0,570.0,11.0,53.0
860,60.0,0.0,570.0,7.0,64.0
861,60.0,0.0,570.0,4.0,61.0
862,63.0,0.0,570.0,3.0,59.0
863,36.0,0.0,180.0,5.0,61.0
864,72.0,0.0,40.0,1.0,65.0
865,63.0,48.0,570.0,11.0,53.0
866,67.0,0.0,570.0,2.0,61.0
867,72.0,48.0,40.0,10.0,57.0
868,60.0,2.0,570.0,11.0,53.0
869,24.0,0.0,180.0,12.0,53.0
870,36.0,0.0,180.0,12.0,53.0
871,24.0,0.0,180.0,8.0,64.0
872,36.0,0.0,180.0,8.0,64.0
873,74.0,96.0,40.0,1.0,65.0
874,74.0,0.0,40.0,10.0,57.0
875,75.0,0.0,180.0,10.0,57.0
876,75.0,48.0,180.0,1.0,65.0
877,24.0,0.0,180.0,8.0,64.0
878,24.0,48.0,180.0,6.0,61.0
879,36.0,0.0,180.0,5.0,61.0
880,36.0,0.0,180.0,12.0,53.0
881,24.0,0.0,180.0,12.0,53.0
882,36.0,0.0,180.0,8.0,64.0
883,74.0,48.0,40.0,10.0,57.0
884,74.0,0.0,40.0,1.0,65.0
885,72.0,0.0,40.0,10.0,57.0
886,72.0,0.0,40.0,1.0,65.0
887,36.0,0.0,180.0,8.0,64.0
888,36.0,0.0,180.0,5.0,61.0
889,74.0,0.0,40.0,10.0,57.0
890,24.0,0.0,180.0,6.0,61.0
891,36.0,0.0,180.0,12.0,53.0
892,24.0,0.0,180.0,12.0,53.0
893,24.0,0.0,180.0,8.0,64.0
894,74.0,48.0,40.0,1.0,65.0
895,72.0,94.0,40.0,10.0,57.0
896,72.0,0.0,40.0,1.0,65.0
897,70.0,0.0,90.0,1.0,65.0
898,70.0,0.0,90.0,10.0,57.0
899,68.0,0.0,570.0,11.0,53.0
900,63.0,0.0,570.0,11.0,53.0
901,72.0,0.0,570.0,11.0,53.0
902,68.0,48.0,40.0,1.0,65.0
903,24.0,0.0,180.0,12.0,53.0
904,36.0,0.0,180.0,8.0,64.0
905,63.0,2.0,570.0,4.0,61.0
906,72.0,0.0,570.0,2.0,61.0
907,36.0,0.0,180.0,5.0,61.0
908,72.0,0.0,570.0,7.0,64.0
909,68.0,0.0,570.0,7.0,64.0
910,63.0,0.0,570.0,7.0,64.0
911,68.0,0.0,570.0,3.0,59.0
912,68.0,0.0,40.0,10.0,57.0
913,24.0,0.0,180.0,6.0,61.0
914,24.0,96.0,180.0,8.0,64.0
915,36.0,0.0,180.0,12.0,53.0
916,70.0,96.0,40.0,10.0,57.0
917,70.0,0.0,40.0,1.0,65.0
918,72.0,0.0,180.0,10.0,57.0
919,72.0,48.0,180.0,1.0,65.0
920,36.0,0.0,180.0,5.0,61.0
921,36.0,48.0,180.0,8.0,64.0
922,24.0,0.0,180.0,8.0,64.0
923,24.0,0.0,180.0,6.0,61.0
924,36.0,0.0,180.0,12.0,53.0
925,24.0,0.0,180.0,12.0,53.0
926,70.0,48.0,40.0,10.0,57.0
927,70.0,0.0,40.0,1.0,65.0
928,68.0,0.0,40.0,1.0,65.0
929,68.0,0.0,40.0,10.0,57.0
930,24.0,48.0,180.0,12.0,53.0
931,24.0,0.0,180.0,6.0,61.0
932,70.0,48.0,40.0,1.0,65.0
933,36.0,0.0,180.0,5.0,61.0
934,24.0,0.0,180.0,8.0,64.0
935,36.0,0.0,180.0,12.0,53.0
936,36.0,0.0,180.0,8.0,64.0
937,70.0,0.0,40.0,10.0,57.0
938,68.0,0.0,40.0,1.0,65.0
939,68.0,94.0,40.0,10.0,57.0
940,67.0,0.0,90.0,1.0,65.0
941,67.0,0.0,90.0,10.0,57.0
942,24.0,0.0,180.0,12.0,53.0
943,36.0,0.0,180.0,12.0,53.0
944,66.0,48.0,40.0,10.0,57.0
945,57.0,0.0,180.0,11.0,53.0
946,57.0,2.0,180.0,7.0,64.0
947,75.0,96.0,180.0,7.0,64.0
948,24.0,0.0,180.0,6.0,61.0
949,36.0,0.0,180.0,5.0,61.0
950,57.0,0.0,180.0,4.0,61.0
951,36.0,0.0,180.0,8.0,64.0
952,24.0,0.0,180.0,8.0,64.0
953,66.0,0.0,40.0,1.0,65.0
954,72.0,0.0,180.0,11.0,53.0
955,72.0,0.0,180.0,7.0,64.0
956,75.0,0.0,180.0,2.0,61.0
957,75.0,0.0,180.0,11.0,53.0
958,72.0,0.0,180.0,3.0,59.0
959,67.0,0.0,40.0,1.0,65.0
960,67.0,94.0,40.0,10.0,57.0
961,69.0,48.0,180.0,1.0,65.0
962,69.0,0.0,180.0,10.0,57.0
963,66.0,2.0,390.0,7.0,64.0
964,69.0,0.0,390.0,7.0,64.0
965,74.0,96.0,570.0,7.0,64.0
966,74.0,0.0,570.0,2.0,61.0
967,66.0,0.0,390.0,4.0,61.0
968,24.0,0.0,180.0,6.0,61.0
969,24.0,0.0,180.0,8.0,64.0
970,36.0,0.0,180.0,8.0,64.0
971,69.0,0.0,390.0,3.0,59.0
972,74.0,0.0,570.0,11.0,53.0
973,36.0,0.0,180.0,5.0,61.0
974,66.0,0.0,390.0,11.0,53.0
975,36.0,0.0,180.0,12.0,53.0
976,24.0,0.0,180.0,12.0,53.0
977,69.0,0.0,390.0,11.0,53.0
978,67.0,48.0,40.0,10.0,57.0
979,67.0,0.0,40.0,1.0,65.0
980,66.0,48.0,40.0,10.0,57.0
981,66.0,0.0,40.0,1.0,65.0
982,36.0,0.0,180.0,8.0,64.0
983,48.0,0.0,180.0,8.0,64.0
984,67.0,0.0,40.0,1.0,65.0
985,36.0,0.0,180.0,12.0,53.0
986,48.0,0.0,180.0,12.0,53.0
987,36.0,0.0,180.0,6.0,61.0
988,48.0,190.0,180.0,5.0,61.0
989,67.0,48.0,40.0,10.0,57.0
990,66.0,94.0,40.0,1.0,65.0
991,66.0,0.0,40.0,10.0,57.0
992,64.0,0.0,90.0,1.0,65.0
993,64.0,0.0,90.0,10.0,57.0
994,62.0,48.0,300.0,10.0,57.0
995,70.0,0.0,180.0,3.0,59.0
996,34.0,0.0,180.0,6.0,61.0
997,62.0,0.0,300.0,1.0,65.0
998,67.0,2.0,180.0,7.0,64.0
999,67.0,0.0,180.0,11.0,53.0
1000,70.0,0.0,180.0,7.0,64.0
1001,34.0,0.0,180.0,8.0,64.0
1002,46.0,0.0,180.0,5.0,61.0
1003,34.0,0.0,180.0,12.0,53.0
1004,70.0,0.0,180.0,11.0,53.0
1005,46.0,0.0,180.0,12.0,53.0
1006,67.0,0.0,180.0,4.0,61.0
1007,46.0,0.0,180.0,8.0,64.0
1008,33.0,0.0,180.0,12.0,53.0
1009,65.0,0.0,180.0,7.0,64.0
1010,72.0,0.0,180.0,7.0,64.0
1011,72.0,0.0,180.0,11.0,53.0
1012,65.0,0.0,180.0,11.0,53.0
1013,60.0,0.0,180.0,11.0,53.0
1014,72.0,0.0,180.0,2.0,61.0
1015,45.0,48.0,180.0,12.0,53.0
1016,60.0,0.0,180.0,7.0,64.0
1017,33.0,0.0,180.0,8.0,64.0
1018,60.0,2.0,180.0,4.0,61.0
1019,33.0,0.0,180.0,6.0,61.0
1020,45.0,0.0,180.0,8.0,64.0
1021,45.0,0.0,180.0,5.0,61.0
1022,65.0,0.0,180.0,3.0,59.0
1023,64.0,46.0,40.0,10.0,57.0
1024,64.0,0.0,40.0,1.0,65.0
1025,66.0,0.0,40.0,10.0,57.0
1026,66.0,0.0,40.0,1.0,65.0
1027,31.0,0.0,180.0,8.0,64.0
1028,62.0,0.0,180.0,7.0,64.0
1029,67.0,0.0,390.0,7.0,64.0
1030,70.0,0.0,180.0,7.0,64.0
1031,62.0,2.0,180.0,11.0,53.0
1032,67.0,0.0,390.0,11.0,53.0
1033,70.0,0.0,180.0,11.0,53.0
1034,67.0,0.0,40.0,1.0,65.0
1035,31.0,0.0,180.0,12.0,53.0
1036,43.0,0.0,180.0,12.0,53.0
1037,70.0,0.0,180.0,2.0,61.0
1038,31.0,0.0,180.0,6.0,61.0
1039,62.0,0.0,180.0,4.0,61.0
1040,67.0,48.0,40.0,10.0,57.0
1041,67.0,0.0,390.0,3.0,59.0
1042,43.0,0.0,180.0,5.0,61.0
1043,43.0,130.0,180.0,8.0,64.0
1044,69.0,0.0,40.0,10.0,57.0
1045,69.0,48.0,40.0,1.0,65.0
1046,70.0,46.0,40.0,1.0,65.0
1047,70.0,0.0,40.0,10.0,57.0
1048,69.0,0.0,40.0,1.0,65.0
1049,69.0,0.0,40.0,10.0,57.0
1050,72.0,0.0,120.0,11.0,53.0
1051,57.0,0.0,120.0,7.0,64.0
1052,38.0,0.0,180.0,8.0,64.0
1053,50.0,0.0,180.0,5.0,61.0
1054,38.0,0.0,180.0,6.0,61.0
1055,50.0,0.0,180.0,8.0,64.0
1056,72.0,0.0,120.0,7.0,64.0
1057,57.0,62.0,120.0,11.0,53.0
1058,72.0,0.0,120.0,2.0,61.0
1059,38.0,0.0,180.0,12.0,53.0
1060,50.0,130.0,180.0,12.0,53.0
1061,72.0,0.0,120.0,1.0,65.0
1062,57.0,0.0,120.0,4.0,61.0
1063,72.0,0.0,120.0,10.0,57.0
1064,38.0,46.0,180.0,5.0,61.0
1065,38.0,0.0,180.0,12.0,53.0
1066,26.0,0.0,180.0,6.0,61.0
1067,67.0,0.0,120.0,3.0,59.0
1068,26.0,0.0,180.0,12.0,53.0
1069,67.0,0.0,120.0,11.0,53.0
1070,38.0,0.0,180.0,8.0,64.0
1071,58.0,0.0,120.0,11.0,53.0
1072,70.0,0.0,120.0,10.0,57.0
1073,58.0,0.0,120.0,4.0,61.0
1074,58.0,0.0,120.0,7.0,64.0
1075,67.0,0.0,120.0,7.0,64.0
1076,70.0,0.0,120.0,7.0,64.0
1077,70.0,0.0,120.0,1.0,65.0
1078,26.0,0.0,180.0,8.0,64.0
1079,70.0,0.0,120.0,2.0,61.0
1080,70.0,62.0,120.0,11.0,53.0
1081,60.0,0.0,120.0,4.0,61.0
1082,70.0,0.0,40.0,10.0,57.0
1083,26.0,0.0,180.0,6.0,61.0
1084,65.0,0.0,120.0,3.0,59.0
1085,38.0,190.0,180.0,5.0,61.0
1086,38.0,0.0,180.0,12.0,53.0
1087,70.0,24.0,40.0,1.0,65.0
1088,60.0,12.0,120.0,7.0,64.0
1089,69.0,0.0,120.0,11.0,53.0
1090,69.0,0.0,120.0,7.0,64.0
1091,60.0,0.0,120.0,11.0,53.0
1092,69.0,0.0,120.0,2.0,61.0
1093,65.0,0.0,120.0,7.0,64.0
1094,38.0,0.0,180.0,8.0,64.0
1095,65.0,0.0,120.0,11.0,53.0
1096,26.0,0.0,180.0,8.0,64.0
1097,26.0,0.0,180.0,12.0,53.0
1098,69.0,24.0,20.0,10.0,57.0
1099,69.0,0.0,20.0,1.0,65.0
1100,70.0,24.0,20.0,10.0,57.0
1101,70.0,0.0,20.0,1.0,65.0
1102,69.0,0.0,20.0,10.0,57.0
1103,69.0,12.0,20.0,1.0,65.0
1104,70.0,0.0,20.0,1.0,65.0
1105,70.0,48.0,20.0,10.0,57.0
1106,69.0,2.0,40.0,1.0,65.0
1107,69.0,0.0,40.0,10.0,57.0
1108,31.0,0.0,960.0,12.0,53.0
1109,43.0,0.0,960.0,12.0,53.0
1110,67.0,0.0,180.0,11.0,53.0
1111,43.0,190.0,960.0,8.0,64.0
1112,67.0,0.0,960.0,1.0,65.0
1113,67.0,0.0,180.0,2.0,61.0
1114,67.0,190.0,180.0,7.0,64.0
1115,62.0,0.0,180.0,7.0,64.0
1116,58.0,0.0,180.0,7.0,64.0
1117,31.0,0.0,960.0,8.0,64.0
1118,62.0,0.0,180.0,3.0,59.0
1119,62.0,0.0,180.0,11.0,53.0
1120,58.0,0.0,180.0,11.0,53.0
1121,31.0,0.0,960.0,6.0,61.0
1122,58.0,2.0,180.0,4.0,61.0
1123,43.0,0.0,960.0,5.0,61.0
1124,67.0,2.0,960.0,10.0,57.0
1125,69.0,0.0,180.0,2.0,61.0
1126,69.0,0.0,180.0,7.0,64.0
1127,60.0,2.0,180.0,7.0,64.0
1128,65.0,0.0,180.0,3.0,59.0
1129,69.0,0.0,180.0,11.0,53.0
1130,65.0,0.0,180.0,11.0,53.0
1131,60.0,0.0,180.0,11.0,53.0
1132,65.0,190.0,180.0,7.0,64.0
1133,60.0,0.0,180.0,4.0,61.0
1134,62.0,0.0,180.0,4.0,61.0
1135,62.0,2.0,180.0,7.0,64.0
1136,70.0,0.0,180.0,2.0,61.0
1137,67.0,0.0,180.0,7.0,64.0
1138,70.0,0.0,180.0,7.0,64.0
1139,62.0,0.0,180.0,11.0,53.0
1140,67.0,190.0,180.0,11.0,53.0
1141,70.0,0.0,180.0,11.0,53.0
1142,67.0,0.0,180.0,3.0,59.0
1143,65.0,0.0,180.0,11.0,53.0
1144,69.0,190.0,180.0,11.0,53.0
1145,69.0,0.0,180.0,7.0,64.0
1146,65.0,0.0,180.0,7.0,64.0
1147,60.0,0.0,180.0,7.0,64.0
1148,60.0,0.0,180.0,11.0,53.0
1149,60.0,2.0,180.0,4.0,61.0
1150,69.0,0.0,180.0,2.0,61.0
1151,65.0,0.0,180.0,3.0,59.0
1152,70.0,0.0,180.0,2.0,61.0
1153,62.0,0.0,180.0,4.0,61.0
1154,67.0,0.0,180.0,3.0,59.0
1155,70.0,0.0,180.0,11.0,53.0
1156,67.0,0.0,180.0,11.0,53.0
1157,70.0,0.0,180.0,7.0,64.0
1158,67.0,0.0,180.0,7.0,64.0
1159,62.0,0.0,180.0,11.0,53.0
1160,62.0,0.0,180.0,7.0,64.0
1161,72.0,0.0,180.0,11.0,53.0
1162,72.0,0.0,180.0,2.0,61.0
1163,54.0,0.0,180.0,11.0,53.0
1164,31.0,0.0,180.0,8.0,64.0
1165,43.0,0.0,180.0,8.0,64.0
1166,69.0,0.0,180.0,11.0,53.0
1167,31.0,0.0,180.0,12.0,53.0
1168,54.0,2.0,180.0,7.0,64.0
1169,69.0,190.0,180.0,7.0,64.0
1170,72.0,0.0,180.0,7.0,64.0
1171,69.0,0.0,180.0,3.0,59.0
1172,31.0,0.0,180.0,6.0,61.0
1173,54.0,0.0,180.0,4.0,61.0
1174,43.0,0.0,180.0,5.0,61.0
1175,43.0,0.0,180.0,12.0,53.0
1176,62.0,0.0,90.0,0.0,80.0
1177,43.0,0.0,180.0,12.0,53.0
1178,62.0,0.0,1140.0,4.0,61.0
1179,55.0,0.0,180.0,12.0,53.0
1180,55.0,0.0,180.0,5.0,61.0
1181,43.0,0.0,180.0,6.0,61.0
1182,67.0,0.0,1710.0,3.0,59.0
1183,70.0,0.0,1710.0,11.0,53.0
1184,55.0,0.0,180.0,8.0,64.0
1185,70.0,96.0,270.0,0.0,80.0
1186,67.0,0.0,1710.0,11.0,53.0
1187,62.0,0.0,1140.0,11.0,53.0
1188,70.0,0.0,1710.0,2.0,61.0
1189,70.0,0.0,1710.0,7.0,64.0
1190,67.0,0.0,1710.0,7.0,64.0
1191,62.0,192.0,1140.0,7.0,64.0
1192,43.0,96.0,180.0,8.0,64.0
1193,55.0,0.0,180.0,5.0,61.0
1194,43.0,0.0,180.0,8.0,64.0
1195,55.0,0.0,180.0,8.0,64.0
1196,43.0,192.0,180.0,6.0,61.0
1197,43.0,0.0,180.0,12.0,53.0
1198,55.0,0.0,180.0,12.0,53.0
1199,69.0,0.0,90.0,0.0,80.0
1200,55.0,0.0,180.0,12.0,53.0
1201,43.0,192.0,180.0,12.0,53.0
1202,43.0,0.0,180.0,6.0,61.0
1203,55.0,0.0,180.0,8.0,64.0
1204,43.0,0.0,180.0,8.0,64.0
1205,55.0,0.0,180.0,5.0,61.0
1206,67.0,96.0,480.0,0.0,80.0
1207,41.0,0.0,180.0,12.0,53.0
1208,53.0,0.0,180.0,12.0,53.0
1209,53.0,0.0,180.0,5.0,61.0
1210,41.0,0.0,180.0,6.0,61.0
1211,41.0,96.0,180.0,8.0,64.0
1212,53.0,0.0,180.0,8.0,64.0
1213,41.0,0.0,180.0,8.0,64.0
1214,53.0,0.0,180.0,8.0,64.0
1215,41.0,0.0,180.0,12.0,53.0
1216,53.0,0.0,180.0,12.0,53.0
1217,53.0,0.0,180.0,5.0,61.0
1218,41.0,192.0,180.0,6.0,61.0
1219,66.0,0.0,90.0,0.0,80.0
1220,41.0,0.0,180.0,6.0,61.0
1221,41.0,0.0,180.0,8.0,64.0
1222,53.0,0.0,180.0,8.0,64.0
1223,41.0,0.0,180.0,12.0,53.0
1224,67.0,0.0,180.0,0.0,80.0
1225,53.0,0.0,180.0,5.0,61.0
1226,53.0,0.0,180.0,12.0,53.0
1227,39.0,0.0,180.0,6.0,61.0
1228,63.0,0.0,570.0,4.0,61.0
1229,51.0,0.0,180.0,12.0,53.0
1230,63.0,0.0,570.0,11.0,53.0
1231,63.0,0.0,570.0,7.0,64.0
1232,51.0,192.0,180.0,5.0,61.0
1233,39.0,0.0,180.0,12.0,53.0
1234,51.0,0.0,180.0,8.0,64.0
1235,39.0,0.0,180.0,8.0,64.0
1236,67.0,192.0,1530.0,0.0,80.0
1237,39.0,192.0,180.0,6.0,61.0
1238,51.0,0.0,180.0,5.0,61.0
1239,51.0,0.0,180.0,12.0,53.0
1240,39.0,0.0,180.0,12.0,53.0
1241,39.0,0.0,180.0,8.0,64.0
1242,51.0,0.0,180.0,8.0,64.0
1243,39.0,0.0,180.0,8.0,64.0
1244,51.0,0.0,180.0,8.0,64.0
1245,51.0,192.0,180.0,5.0,61.0
1246,51.0,0.0,180.0,12.0,53.0
1247,39.0,0.0,180.0,12.0,53.0
1248,39.0,0.0,180.0,6.0,61.0
1249,50.0,0.0,180.0,5.0,61.0
1250,65.0,0.0,570.0,3.0,59.0
1251,38.0,0.0,180.0,6.0,61.0
1252,65.0,0.0,570.0,4.0,61.0
1253,38.0,0.0,180.0,12.0,53.0
1254,65.0,0.0,570.0,11.0,53.0
1255,38.0,0.0,180.0,8.0,64.0
1256,65.0,0.0,570.0,7.0,64.0
1257,50.0,192.0,180.0,8.0,64.0
1258,71.0,0.0,570.0,7.0,64.0
1259,71.0,0.0,570.0,2.0,61.0
1260,71.0,0.0,570.0,11.0,53.0
1261,50.0,0.0,180.0,12.0,53.0
1262,50.0,0.0,180.0,8.0,64.0
1263,38.0,0.0,180.0,12.0,53.0
1264,50.0,192.0,180.0,12.0,53.0
1265,38.0,0.0,180.0,8.0,64.0
1266,50.0,0.0,180.0,5.0,61.0
1267,38.0,0.0,180.0,6.0,61.0
1268,50.0,0.0,180.0,8.0,64.0
1269,38.0,0.0,180.0,6.0,61.0
1270,38.0,0.0,180.0,12.0,53.0
1271,50.0,0.0,180.0,5.0,61.0
1272,38.0,0.0,180.0,8.0,64.0
1273,50.0,0.0,180.0,12.0,53.0
1274,36.0,96.0,180.0,6.0,61.0
1275,67.0,0.0,570.0,7.0,64.0
1276,48.0,0.0,180.0,12.0,53.0
1277,67.0,0.0,570.0,3.0,59.0
1278,48.0,0.0,180.0,5.0,61.0
1279,72.0,0.0,570.0,2.0,61.0
1280,63.0,0.0,570.0,4.0,61.0
1281,72.0,0.0,40.0,1.0,65.0
1282,48.0,0.0,180.0,8.0,64.0
1283,36.0,0.0,180.0,8.0,64.0
1284,63.0,192.0,570.0,7.0,64.0
1285,72.0,0.0,570.0,11.0,53.0
1286,67.0,0.0,570.0,11.0,53.0
1287,63.0,0.0,570.0,11.0,53.0
1288,36.0,0.0,180.0,12.0,53.0
1289,72.0,0.0,570.0,7.0,64.0
1290,72.0,48.0,40.0,10.0,57.0
1291,74.0,0.0,40.0,10.0,57.0
1292,74.0,96.0,40.0,1.0,65.0
1293,75.0,48.0,180.0,10.0,57.0
1294,75.0,0.0,180.0,1.0,65.0
1295,48.0,0.0,180.0,8.0,64.0
1296,48.0,0.0,180.0,5.0,61.0
1297,36.0,0.0,180.0,12.0,53.0
1298,48.0,0.0,180.0,12.0,53.0
1299,36.0,0.0,180.0,8.0,64.0
1300,36.0,0.0,180.0,6.0,61.0
1301,74.0,0.0,40.0,1.0,65.0
1302,74.0,48.0,40.0,10.0,57.0
1303,75.0,0.0,40.0,1.0,65.0
1304,75.0,0.0,40.0,10.0,57.0
1305,48.0,0.0,180.0,8.0,64.0
1306,36.0,0.0,180.0,8.0,64.0
1307,77.0,96.0,480.0,1.0,65.0
1308,77.0,0.0,480.0,10.0,57.0
1309,60.0,0.0,180.0,0.0,80.0
1310,48.0,0.0,180.0,5.0,61.0
1311,36.0,0.0,180.0,6.0,61.0
1312,48.0,0.0,180.0,12.0,53.0
1313,36.0,0.0,180.0,12.0,53.0
1314,62.0,0.0,570.0,11.0,53.0
1315,65.0,0.0,570.0,11.0,53.0
1316,65.0,0.0,570.0,3.0,59.0
1317,68.0,0.0,570.0,11.0,53.0
1318,68.0,0.0,570.0,2.0,61.0
1319,68.0,0.0,570.0,7.0,64.0
1320,65.0,96.0,570.0,7.0,64.0
1321,62.0,0.0,570.0,7.0,64.0
1322,60.0,0.0,180.0,0.0,80.0
1323,62.0,0.0,570.0,4.0,61.0
1324,48.0,0.0,180.0,5.0,61.0
1325,48.0,0.0,180.0,8.0,64.0
1326,48.0,0.0,180.0,12.0,53.0
1327,36.0,0.0,180.0,8.0,64.0
1328,36.0,0.0,180.0,6.0,61.0
1329,36.0,96.0,180.0,12.0,53.0
1330,36.0,0.0,180.0,6.0,61.0
1331,48.0,0.0,180.0,12.0,53.0
1332,59.0,0.0,180.0,0.0,80.0
1333,48.0,0.0,180.0,5.0,61.0
1334,36.0,192.0,180.0,12.0,53.0
1335,36.0,0.0,180.0,8.0,64.0
1336,48.0,0.0,180.0,8.0,64.0
1337,75.0,0.0,90.0,1.0,65.0
1338,75.0,0.0,90.0,10.0,57.0
1339,74.0,0.0,180.0,10.0,57.0
1340,36.0,0.0,180.0,12.0,53.0
1341,48.0,0.0,180.0,12.0,53.0
1342,36.0,0.0,180.0,6.0,61.0
1343,65.0,0.0,180.0,0.0,80.0
1344,48.0,0.0,180.0,5.0,61.0
1345,74.0,0.0,180.0,1.0,65.0
1346,36.0,0.0,180.0,8.0,64.0
1347,48.0,0.0,180.0,8.0,64.0
1348,48.0,0.0,180.0,12.0,53.0
1349,63.0,0.0,390.0,0.0,80.0
1350,36.0,0.0,180.0,12.0,53.0
1351,74.0,96.0,90.0,1.0,65.0
1352,63.0,0.0,1140.0,7.0,64.0
1353,63.0,0.0,1140.0,4.0,61.0
1354,74.0,0.0,90.0,10.0,57.0
1355,48.0,192.0,180.0,8.0,64.0
1356,67.0,0.0,570.0,7.0,64.0
1357,63.0,0.0,1140.0,11.0,53.0
1358,36.0,0.0,180.0,8.0,64.0
1359,36.0,0.0,180.0,6.0,61.0
1360,67.0,0.0,570.0,11.0,53.0
1361,67.0,0.0,570.0,2.0,61.0
1362,67.0,0.0,1140.0,3.0,59.0
1363,48.0,0.0,180.0,5.0,61.0
1364,72.0,48.0,810.0,10.0,57.0
1365,72.0,0.0,810.0,1.0,65.0
1366,36.0,0.0,180.0,12.0,53.0
1367,48.0,0.0,180.0,12.0,53.0
1368,36.0,0.0,180.0,8.0,64.0
1369,36.0,0.0,180.0,6.0,61.0
1370,48.0,0.0,180.0,8.0,64.0
1371,48.0,192.0,180.0,5.0,61.0
1372,36.0,0.0,180.0,8.0,64.0
1373,48.0,0.0,180.0,5.0,61.0
1374,60.0,0.0,180.0,0.0,80.0
1375,48.0,192.0,180.0,8.0,64.0
1376,36.0,0.0,180.0,12.0,53.0
1377,48.0,0.0,180.0,12.0,53.0
1378,36.0,0.0,180.0,6.0,61.0
1379,48.0,0.0,180.0,12.0,53.0
1380,36.0,0.0,180.0,12.0,53.0
1381,63.0,0.0,390.0,0.0,80.0
1382,36.0,0.0,180.0,8.0,64.0
1383,72.0,0.0,570.0,2.0,61.0
1384,48.0,0.0,180.0,8.0,64.0
1385,72.0,0.0,570.0,7.0,64.0
1386,36.0,144.0,180.0,6.0,61.0
1387,72.0,96.0,570.0,11.0,53.0
1388,48.0,0.0,180.0,5.0,61.0
1389,36.0,0.0,180.0,8.0,64.0
1390,36.0,192.0,180.0,6.0,61.0
1391,48.0,0.0,180.0,12.0,53.0
1392,48.0,0.0,180.0,8.0,64.0
1393,48.0,0.0,180.0,5.0,61.0
1394,36.0,0.0,180.0,12.0,53.0
1395,75.0,0.0,90.0,1.0,65.0
1396,75.0,0.0,90.0,10.0,57.0
1397,36.0,0.0,180.0,6.0,61.0
1398,72.0,0.0,180.0,1.0,65.0
1399,67.0,0.0,180.0,0.0,80.0
1400,72.0,0.0,180.0,10.0,57.0
1401,48.0,0.0,180.0,8.0,64.0
1402,36.0,0.0,180.0,12.0,53.0
1403,48.0,0.0,180.0,12.0,53.0
1404,48.0,0.0,180.0,5.0,61.0
1405,36.0,0.0,180.0,8.0,64.0
1406,70.0,96.0,90.0,1.0,65.0
1407,68.0,0.0,390.0,0.0,80.0
1408,75.0,0.0,1710.0,2.0,61.0
1409,72.0,0.0,2310.0,3.0,59.0
1410,48.0,96.0,180.0,8.0,64.0
1411,60.0,0.0,1710.0,4.0,61.0
1412,36.0,0.0,180.0,8.0,64.0
1413,70.0,0.0,90.0,10.0,57.0
1414,36.0,0.0,180.0,6.0,61.0
1415,75.0,0.0,1710.0,11.0,53.0
1416,72.0,0.0,2310.0,11.0,53.0
1417,60.0,0.0,1710.0,11.0,53.0
1418,48.0,0.0,180.0,5.0,61.0
1419,60.0,0.0,1710.0,7.0,64.0
1420,72.0,0.0,2310.0,7.0,64.0
1421,75.0,0.0,1710.0,7.0,64.0
1422,36.0,0.0,180.0,12.0,53.0
1423,48.0,0.0,180.0,12.0,53.0
1424,68.0,96.0,180.0,1.0,65.0
1425,68.0,0.0,180.0,10.0,57.0
1426,36.0,0.0,180.0,6.0,61.0
1427,48.0,0.0,180.0,5.0,61.0
1428,36.0,0.0,180.0,8.0,64.0
1429,36.0,0.0,180.0,12.0,53.0
1430,48.0,0.0,180.0,8.0,64.0
1431,48.0,0.0,180.0,12.0,53.0
1432,75.0,192.0,90.0,1.0,65.0
1433,75.0,0.0,90.0,10.0,57.0
1434,36.0,0.0,180.0,8.0,64.0
1435,48.0,0.0,180.0,12.0,53.0
1436,36.0,0.0,180.0,6.0,61.0
1437,72.0,0.0,180.0,10.0,57.0
1438,48.0,96.0,180.0,5.0,61.0
1439,36.0,0.0,180.0,12.0,53.0
1440,48.0,0.0,180.0,8.0,64.0
1441,67.0,0.0,180.0,0.0,80.0
1442,72.0,0.0,180.0,1.0,65.0
1443,68.0,96.0,90.0,10.0,57.0
1444,46.0,0.0,180.0,5.0,61.0
1445,46.0,0.0,180.0,8.0,64.0
1446,67.0,0.0,390.0,0.0,80.0
1447,34.0,0.0,180.0,12.0,53.0
1448,34.0,0.0,180.0,8.0,64.0
1449,68.0,0.0,90.0,1.0,65.0
1450,34.0,96.0,180.0,6.0,61.0
1451,46.0,0.0,180.0,12.0,53.0
1452,67.0,96.0,180.0,1.0,65.0
1453,67.0,0.0,180.0,10.0,57.0
1454,34.0,0.0,180.0,12.0,53.0
1455,46.0,0.0,180.0,12.0,53.0
1456,46.0,0.0,180.0,5.0,61.0
1457,46.0,192.0,180.0,8.0,64.0
1458,34.0,0.0,180.0,8.0,64.0
1459,34.0,0.0,180.0,6.0,61.0
1460,75.0,0.0,90.0,1.0,65.0
1461,75.0,0.0,90.0,10.0,57.0
1462,46.0,0.0,180.0,5.0,61.0
1463,34.0,0.0,180.0,8.0,64.0
1464,46.0,0.0,180.0,12.0,53.0
1465,34.0,96.0,180.0,12.0,53.0
1466,66.0,0.0,180.0,0.0,80.0
1467,46.0,0.0,180.0,8.0,64.0
1468,72.0,0.0,180.0,10.0,57.0
1469,72.0,0.0,180.0,1.0,65.0
1470,34.0,0.0,180.0,6.0,61.0
1471,45.0,96.0,180.0,5.0,61.0
1472,66.0,0.0,390.0,0.0,80.0
1473,33.0,0.0,180.0,6.0,61.0
1474,33.0,0.0,180.0,12.0,53.0
1475,45.0,0.0,180.0,12.0,53.0
1476,67.0,96.0,90.0,10.0,57.0
1477,67.0,0.0,90.0,1.0,65.0
1478,33.0,0.0,180.0,8.0,64.0
1479,45.0,0.0,180.0,8.0,64.0
1480,66.0,48.0,180.0,10.0,57.0
1481,66.0,0.0,180.0,1.0,65.0
1482,45.0,0.0,180.0,12.0,53.0
1483,33.0,0.0,180.0,12.0,53.0
1484,45.0,192.0,180.0,5.0,61.0
1485,33.0,0.0,180.0,8.0,64.0
1486,45.0,0.0,180.0,8.0,64.0
1487,33.0,0.0,180.0,6.0,61.0
1488,72.0,0.0,40.0,10.0,57.0
1489,72.0,48.0,40.0,1.0,65.0
1490,74.0,0.0,40.0,1.0,65.0
1491,74.0,0.0,40.0,10.0,57.0
1492,45.0,192.0,180.0,12.0,53.0
1493,45.0,0.0,180.0,5.0,61.0
1494,75.0,0.0,480.0,10.0,57.0
1495,33.0,0.0,180.0,12.0,53.0
1496,33.0,0.0,180.0,6.0,61.0
1497,45.0,0.0,180.0,8.0,64.0
1498,33.0,0.0,180.0,8.0,64.0
1499,75.0,96.0,480.0,1.0,65.0
1500,67.0,0.0,180.0,0.0,80.0
1501,69.0,48.0,870.0,0.0,80.0
1502,30.0,0.0,180.0,8.0,64.0
1503,42.0,0.0,180.0,8.0,64.0
1504,30.0,96.0,180.0,12.0,53.0
1505,42.0,0.0,180.0,12.0,53.0
1506,30.0,0.0,180.0,6.0,61.0
1507,54.0,0.0,570.0,11.0,53.0
1508,69.0,0.0,570.0,2.0,61.0
1509,42.0,0.0,180.0,5.0,61.0
1510,69.0,0.0,570.0,7.0,64.0
1511,69.0,0.0,570.0,11.0,53.0
1512,54.0,0.0,570.0,4.0,61.0
1513,54.0,0.0,570.0,7.0,64.0
1514,30.0,0.0,180.0,12.0,53.0
1515,30.0,0.0,180.0,8.0,64.0
1516,42.0,0.0,180.0,8.0,64.0
1517,30.0,0.0,180.0,6.0,61.0
1518,42.0,0.0,180.0,12.0,53.0
1519,42.0,192.0,180.0,5.0,61.0
1520,74.0,0.0,90.0,1.0,65.0
1521,74.0,0.0,90.0,10.0,57.0
1522,30.0,0.0,180.0,8.0,64.0
1523,30.0,0.0,180.0,12.0,53.0
1524,42.0,96.0,180.0,12.0,53.0
1525,42.0,0.0,180.0,8.0,64.0
1526,42.0,0.0,180.0,5.0,61.0
1527,72.0,0.0,180.0,1.0,65.0
1528,30.0,0.0,180.0,6.0,61.0
1529,72.0,0.0,180.0,10.0,57.0
1530,43.0,0.0,180.0,8.0,64.0
1531,31.0,0.0,180.0,8.0,64.0
1532,70.0,0.0,570.0,3.0,59.0
1533,72.0,96.0,90.0,10.0,57.0
1534,62.0,0.0,570.0,4.0,61.0
1535,72.0,0.0,90.0,1.0,65.0
1536,31.0,96.0,180.0,12.0,53.0
1537,70.0,0.0,570.0,7.0,64.0
1538,62.0,0.0,570.0,7.0,64.0
1539,43.0,0.0,180.0,12.0,53.0
1540,31.0,0.0,180.0,6.0,61.0
1541,62.0,0.0,570.0,11.0,53.0
1542,70.0,0.0,570.0,11.0,53.0
1543,43.0,0.0,180.0,5.0,61.0
1544,70.0,0.0,570.0,2.0,61.0
1545,70.0,0.0,180.0,1.0,65.0
1546,70.0,0.0,180.0,10.0,57.0
1547,43.0,0.0,180.0,12.0,53.0
1548,31.0,0.0,180.0,12.0,53.0
1549,31.0,0.0,180.0,6.0,61.0
1550,31.0,0.0,180.0,8.0,64.0
1551,43.0,0.0,180.0,5.0,61.0
1552,43.0,192.0,180.0,8.0,64.0
1553,66.0,0.0,90.0,0.0,80.0
1554,69.0,48.0,40.0,10.0,57.0
1555,69.0,0.0,40.0,1.0,65.0
1556,70.0,0.0,40.0,10.0,57.0
1557,70.0,0.0,40.0,1.0,65.0
1558,72.0,96.0,480.0,1.0,65.0
1559,67.0,0.0,180.0,0.0,80.0
1560,31.0,0.0,180.0,8.0,64.0
1561,72.0,0.0,480.0,10.0,57.0
1562,43.0,0.0,180.0,8.0,64.0
1563,31.0,0.0,180.0,12.0,53.0
1564,43.0,0.0,180.0,5.0,61.0
1565,31.0,0.0,180.0,6.0,61.0
1566,43.0,0.0,180.0,12.0,53.0
1567,27.0,0.0,180.0,8.0,64.0
1568,39.0,0.0,180.0,8.0,64.0
1569,27.0,0.0,180.0,12.0,53.0
1570,39.0,96.0,180.0,12.0,53.0
1571,67.0,0.0,570.0,11.0,53.0
1572,72.0,96.0,570.0,2.0,61.0
1573,63.0,0.0,570.0,11.0,53.0
1574,72.0,0.0,570.0,11.0,53.0
1575,72.0,0.0,570.0,7.0,64.0
1576,39.0,0.0,180.0,5.0,61.0
1577,27.0,0.0,180.0,6.0,61.0
1578,63.0,0.0,570.0,7.0,64.0
1579,69.0,96.0,90.0,0.0,80.0
1580,63.0,0.0,570.0,4.0,61.0
1581,67.0,0.0,570.0,3.0,59.0
1582,67.0,0.0,570.0,7.0,64.0
1583,70.0,0.0,90.0,0.0,80.0
1584,39.0,0.0,180.0,5.0,61.0
1585,72.0,0.0,180.0,0.0,80.0
1586,27.0,0.0,180.0,12.0,53.0
1587,39.0,192.0,180.0,12.0,53.0
1588,27.0,0.0,180.0,8.0,64.0
1589,39.0,0.0,180.0,8.0,64.0
1590,27.0,0.0,180.0,6.0,61.0
1591,70.0,0.0,90.0,1.0,65.0
1592,70.0,0.0,90.0,10.0,57.0
1593,39.0,0.0,180.0,5.0,61.0
1594,27.0,0.0,180.0,8.0,64.0
1595,69.0,0.0,180.0,1.0,65.0
1596,39.0,0.0,180.0,12.0,53.0
1597,27.0,0.0,180.0,12.0,53.0
1598,27.0,0.0,180.0,6.0,61.0
1599,69.0,0.0,180.0,10.0,57.0
1600,39.0,0.0,180.0,8.0,64.0
1601,69.0,0.0,180.0,0.0,80.0
1602,38.0,0.0,390.0,5.0,61.0
1603,57.0,192.0,180.0,4.0,61.0
1604,66.0,0.0,390.0,0.0,80.0
1605,57.0,0.0,180.0,7.0,64.0
1606,66.0,0.0,180.0,7.0,64.0
1607,74.0,0.0,960.0,7.0,64.0
1608,74.0,0.0,960.0,2.0,61.0
1609,26.0,0.0,390.0,6.0,61.0
1610,38.0,0.0,390.0,12.0,53.0
1611,66.0,0.0,180.0,3.0,59.0
1612,74.0,0.0,960.0,11.0,53.0
1613,66.0,0.0,180.0,11.0,53.0
1614,57.0,0.0,180.0,11.0,53.0
1615,26.0,0.0,390.0,8.0,64.0
1616,38.0,0.0,390.0,8.0,64.0
1617,26.0,0.0,390.0,12.0,53.0
1618,67.0,96.0,90.0,10.0,57.0
1619,67.0,0.0,90.0,1.0,65.0
1620,66.0,0.0,870.0,1.0,65.0
1621,66.0,0.0,870.0,10.0,57.0
1622,58.0,0.0,180.0,7.0,64.0
1623,58.0,0.0,180.0,11.0,53.0
1624,67.0,192.0,180.0,3.0,59.0
1625,58.0,0.0,180.0,4.0,61.0
1626,67.0,0.0,180.0,11.0,53.0
1627,67.0,0.0,180.0,7.0,64.0
1628,69.0,0.0,180.0,11.0,53.0
1629,60.0,0.0,180.0,4.0,61.0
1630,64.0,0.0,180.0,0.0,80.0
1631,60.0,0.0,180.0,11.0,53.0
1632,60.0,192.0,180.0,7.0,64.0
1633,69.0,0.0,180.0,7.0,64.0
1634,69.0,0.0,180.0,3.0,59.0
1635,54.0,192.0,180.0,4.0,61.0
1636,57.0,0.0,180.0,11.0,53.0
1637,54.0,0.0,180.0,11.0,53.0
1638,54.0,0.0,180.0,7.0,64.0
1639,57.0,0.0,180.0,7.0,64.0
1640,62.0,0.0,390.0,0.0,80.0
1641,57.0,0.0,180.0,3.0,59.0
1642,58.0,192.0,180.0,3.0,59.0
1643,55.0,0.0,180.0,11.0,53.0
1644,58.0,0.0,180.0,11.0,53.0
1645,55.0,0.0,180.0,7.0,64.0
1646,55.0,0.0,180.0,4.0,61.0
1647,58.0,0.0,180.0,7.0,64.0
1648,66.0,0.0,180.0,2.0,61.0
1649,57.0,0.0,180.0,4.0,61.0
1650,60.0,0.0,180.0,3.0,59.0
1651,66.0,0.0,180.0,7.0,64.0
1652,60.0,0.0,180.0,7.0,64.0
1653,57.0,48.0,180.0,7.0,64.0
1654,57.0,0.0,180.0,11.0,53.0
1655,60.0,0.0,180.0,11.0,53.0
1656,60.0,0.0,180.0,0.0,80.0
1657,66.0,0.0,180.0,11.0,53.0
1658,55.0,0.0,180.0,7.0,64.0
1659,62.0,0.0,180.0,11.0,53.0
1660,62.0,0.0,180.0,7.0,64.0
1661,31.0,0.0,390.0,8.0,64.0
1662,43.0,0.0,390.0,8.0,64.0
1663,59.0,0.0,180.0,0.0,80.0
1664,55.0,0.0,180.0,4.0,61.0
1665,65.0,48.0,40.0,2.0,61.0
1666,55.0,0.0,180.0,11.0,53.0
1667,65.0,0.0,40.0,7.0,64.0
1668,62.0,96.0,180.0,3.0,59.0
1669,43.0,0.0,390.0,5.0,61.0
1670,43.0,192.0,390.0,12.0,53.0
1671,31.0,0.0,390.0,12.0,53.0
1672,65.0,0.0,40.0,11.0,53.0
1673,31.0,0.0,390.0,6.0,61.0
1674,67.0,96.0,40.0,7.0,64.0
1675,67.0,0.0,40.0,2.0,61.0
1676,67.0,0.0,40.0,11.0,53.0
1677,68.0,0.0,270.0,7.0,64.0
1678,68.0,0.0,270.0,11.0,53.0
1679,68.0,0.0,270.0,2.0,61.0
1680,62.0,0.0,180.0,11.0,53.0
1681,55.0,0.0,180.0,7.0,64.0
1682,55.0,0.0,180.0,11.0,53.0
1683,62.0,0.0,180.0,7.0,64.0
1684,62.0,96.0,90.0,0.0,80.0
1685,62.0,0.0,180.0,3.0,59.0
1686,55.0,0.0,180.0,4.0,61.0
1687,67.0,0.0,90.0,7.0,64.0
1688,65.0,0.0,90.0,0.0,80.0
1689,67.0,0.0,90.0,2.0,61.0
1690,67.0,0.0,90.0,11.0,53.0
1691,62.0,0.0,180.0,3.0,59.0
1692,55.0,0.0,180.0,7.0,64.0
1693,55.0,0.0,180.0,4.0,61.0
1694,65.0,192.0,180.0,7.0,64.0
1695,55.0,0.0,180.0,11.0,53.0
1696,68.0,96.0,480.0,0.0,80.0
1697,65.0,0.0,180.0,2.0,61.0
1698,62.0,0.0,180.0,7.0,64.0
1699,62.0,0.0,180.0,11.0,53.0
1700,65.0,0.0,180.0,11.0,53.0
1701,55.0,0.0,180.0,4.0,61.0
1702,55.0,0.0,180.0,7.0,64.0
1703,62.0,96.0,180.0,7.0,64.0
1704,55.0,0.0,180.0,11.0,53.0
1705,71.0,0.0,270.0,2.0,61.0
1706,71.0,0.0,270.0,7.0,64.0
1707,62.0,0.0,180.0,3.0,59.0
1708,62.0,0.0,180.0,11.0,53.0
1709,71.0,0.0,270.0,11.0,53.0
1710,55.0,192.0,180.0,11.0,53.0
1711,55.0,0.0,180.0,4.0,61.0
1712,62.0,0.0,180.0,11.0,53.0
1713,55.0,0.0,180.0,7.0,64.0
1714,62.0,0.0,180.0,3.0,59.0
1715,62.0,0.0,180.0,7.0,64.0
1716,67.0,0.0,90.0,0.0,80.0
1717,72.0,0.0,90.0,11.0,53.0
1718,72.0,0.0,90.0,2.0,61.0
1719,72.0,0.0,90.0,7.0,64.0
1720,62.0,0.0,180.0,3.0,59.0
1721,55.0,0.0,180.0,7.0,64.0
1722,62.0,0.0,180.0,7.0,64.0
1723,65.0,0.0,180.0,0.0,80.0
1724,55.0,0.0,180.0,4.0,61.0
1725,55.0,0.0,180.0,11.0,53.0
1726,62.0,0.0,180.0,11.0,53.0
1727,74.0,0.0,180.0,11.0,53.0
1728,74.0,0.0,180.0,2.0,61.0
1729,74.0,96.0,180.0,7.0,64.0
1730,36.0,0.0,390.0,8.0,64.0
1731,48.0,0.0,390.0,8.0,64.0
1732,55.0,0.0,120.0,11.0,53.0
1733,48.0,0.0,390.0,12.0,53.0
1734,74.0,0.0,180.0,2.0,61.0
1735,36.0,0.0,390.0,6.0,61.0
1736,36.0,0.0,390.0,12.0,53.0
1737,55.0,60.0,120.0,7.0,64.0
1738,48.0,192.0,390.0,5.0,61.0
1739,55.0,0.0,120.0,4.0,61.0
1740,63.0,0.0,120.0,7.0,64.0
1741,65.0,36.0,90.0,0.0,80.0
1742,74.0,192.0,180.0,7.0,64.0
1743,63.0,0.0,120.0,3.0,59.0
1744,74.0,0.0,180.0,11.0,53.0
1745,63.0,0.0,120.0,11.0,53.0
1746,63.0,0.0,870.0,0.0,80.0
1747,63.0,0.0,180.0,3.0,59.0
1748,72.0,0.0,750.0,2.0,61.0
1749,55.0,0.0,180.0,4.0,61.0
1750,72.0,96.0,750.0,11.0,53.0
1751,63.0,0.0,180.0,11.0,53.0
1752,55.0,0.0,180.0,11.0,53.0
1753,72.0,0.0,750.0,7.0,64.0
1754,55.0,0.0,180.0,7.0,64.0
1755,63.0,0.0,180.0,7.0,64.0
1756,72.0,0.0,90.0,10.0,57.0
1757,72.0,0.0,90.0,1.0,65.0
1758,62.0,0.0,180.0,11.0,53.0
1759,53.0,0.0,180.0,4.0,61.0
1760,53.0,96.0,180.0,11.0,53.0
1761,67.0,0.0,180.0,1.0,65.0
1762,67.0,0.0,180.0,10.0,57.0
1763,62.0,0.0,180.0,7.0,64.0
1764,62.0,0.0,180.0,3.0,59.0
1765,53.0,0.0,180.0,7.0,64.0
1766,63.0,0.0,180.0,3.0,59.0
1767,55.0,192.0,180.0,4.0,61.0
1768,63.0,0.0,180.0,11.0,53.0
1769,55.0,0.0,180.0,11.0,53.0
1770,55.0,0.0,180.0,7.0,64.0
1771,63.0,0.0,180.0,7.0,64.0
1772,65.0,0.0,90.0,10.0,57.0
1773,65.0,96.0,90.0,1.0,65.0
1774,63.0,0.0,390.0,1.0,65.0
1775,63.0,96.0,390.0,10.0,57.0
1776,57.0,0.0,180.0,4.0,61.0
1777,57.0,0.0,180.0,7.0,64.0
1778,66.0,0.0,180.0,7.0,64.0
1779,66.0,0.0,180.0,3.0,59.0
1780,57.0,0.0,180.0,11.0,53.0
1781,66.0,0.0,180.0,11.0,53.0
1782,58.0,48.0,180.0,7.0,64.0
1783,62.0,0.0,180.0,0.0,80.0
1784,58.0,0.0,180.0,11.0,53.0
1785,67.0,0.0,180.0,2.0,61.0
1786,67.0,0.0,180.0,11.0,53.0
1787,58.0,0.0,180.0,4.0,61.0
1788,67.0,0.0,180.0,3.0,59.0
1789,67.0,0.0,180.0,7.0,64.0
1790,64.0,0.0,180.0,7.0,64.0
1791,67.0,0.0,40.0,2.0,61.0
1792,64.0,0.0,180.0,3.0,59.0
1793,45.0,0.0,390.0,5.0,61.0
1794,67.0,48.0,40.0,11.0,53.0
1795,61.0,0.0,180.0,0.0,80.0
1796,67.0,0.0,40.0,7.0,64.0
1797,33.0,0.0,390.0,12.0,53.0
1798,64.0,0.0,180.0,11.0,53.0
1799,57.0,96.0,180.0,11.0,53.0
1800,33.0,0.0,390.0,6.0,61.0
1801,45.0,0.0,390.0,8.0,64.0
1802,33.0,0.0,390.0,8.0,64.0
1803,57.0,0.0,180.0,7.0,64.0
1804,45.0,0.0,390.0,12.0,53.0
1805,57.0,0.0,180.0,4.0,61.0
1806,69.0,0.0,40.0,2.0,61.0
1807,69.0,0.0,40.0,11.0,53.0
1808,69.0,96.0,40.0,7.0,64.0
1809,70.0,0.0,270.0,7.0,64.0
1810,70.0,192.0,270.0,2.0,61.0
1811,70.0,0.0,270.0,11.0,53.0
1812,64.0,0.0,180.0,11.0,53.0
1813,64.0,0.0,180.0,7.0,64.0
1814,64.0,96.0,90.0,0.0,80.0
1815,57.0,0.0,180.0,11.0,53.0
1816,57.0,0.0,180.0,7.0,64.0
1817,57.0,0.0,180.0,4.0,61.0
1818,64.0,0.0,180.0,3.0,59.0
1819,69.0,0.0,90.0,7.0,64.0
1820,69.0,0.0,90.0,11.0,53.0
1821,69.0,0.0,90.0,2.0,61.0
1822,67.0,0.0,90.0,0.0,80.0
1823,64.0,0.0,180.0,3.0,59.0
1824,70.0,0.0,480.0,0.0,80.0
1825,67.0,0.0,180.0,7.0,64.0
1826,64.0,0.0,180.0,7.0,64.0
1827,67.0,0.0,180.0,11.0,53.0
1828,57.0,0.0,180.0,7.0,64.0
1829,67.0,0.0,180.0,2.0,61.0
1830,57.0,192.0,180.0,11.0,53.0
1831,64.0,0.0,180.0,11.0,53.0
1832,57.0,0.0,180.0,4.0,61.0
1833,57.0,0.0,180.0,7.0,64.0
1834,64.0,0.0,180.0,7.0,64.0
1835,73.0,96.0,270.0,7.0,64.0
1836,73.0,0.0,270.0,11.0,53.0
1837,64.0,0.0,180.0,11.0,53.0
1838,57.0,0.0,180.0,11.0,53.0
1839,73.0,0.0,270.0,2.0,61.0
1840,57.0,0.0,180.0,4.0,61.0
1841,64.0,96.0,180.0,3.0,59.0
1842,57.0,0.0,180.0,11.0,53.0
1843,64.0,192.0,180.0,11.0,53.0
1844,57.0,0.0,180.0,7.0,64.0
1845,64.0,0.0,180.0,7.0,64.0
1846,64.0,0.0,180.0,3.0,59.0
1847,57.0,0.0,180.0,4.0,61.0
1848,74.0,0.0,90.0,11.0,53.0
1849,74.0,0.0,90.0,2.0,61.0
1850,69.0,0.0,90.0,0.0,80.0
1851,74.0,0.0,90.0,7.0,64.0
1852,67.0,0.0,180.0,0.0,80.0
1853,57.0,0.0,180.0,11.0,53.0
1854,64.0,192.0,180.0,11.0,53.0
1855,76.0,0.0,180.0,11.0,53.0
1856,57.0,0.0,180.0,4.0,61.0
1857,64.0,0.0,180.0,7.0,64.0
1858,64.0,0.0,180.0,3.0,59.0
1859,76.0,0.0,180.0,2.0,61.0
1860,76.0,0.0,180.0,7.0,64.0
1861,57.0,0.0,180.0,7.0,64.0
1862,76.0,0.0,180.0,7.0,64.0
1863,65.0,192.0,180.0,7.0,64.0
1864,65.0,0.0,390.0,0.0,80.0
1865,50.0,0.0,390.0,12.0,53.0
1866,38.0,0.0,390.0,12.0,53.0
1867,57.0,0.0,180.0,4.0,61.0
1868,65.0,0.0,180.0,3.0,59.0
1869,50.0,0.0,390.0,5.0,61.0
1870,57.0,0.0,180.0,7.0,64.0
1871,50.0,0.0,390.0,8.0,64.0
1872,76.0,0.0,180.0,2.0,61.0
1873,57.0,0.0,180.0,11.0,53.0
1874,65.0,0.0,180.0,11.0,53.0
1875,38.0,0.0,390.0,6.0,61.0
1876,38.0,0.0,390.0,8.0,64.0
1877,76.0,0.0,180.0,11.0,53.0
1878,62.0,0.0,180.0,11.0,53.0
1879,53.0,0.0,180.0,11.0,53.0
1880,53.0,0.0,180.0,4.0,61.0
1881,53.0,132.0,180.0,7.0,64.0
1882,62.0,0.0,180.0,7.0,64.0
1883,74.0,132.0,750.0,2.0,61.0
1884,62.0,0.0,180.0,3.0,59.0
1885,74.0,0.0,90.0,1.0,65.0
1886,74.0,0.0,90.0,10.0,57.0
1887,69.0,0.0,180.0,1.0,65.0
1888,55.0,60.0,120.0,4.0,61.0
1889,61.0,0.0,120.0,7.0,64.0
1890,55.0,0.0,120.0,11.0,53.0
1891,61.0,0.0,120.0,11.0,53.0
1892,61.0,0.0,120.0,3.0,59.0
1893,69.0,0.0,180.0,10.0,57.0
1894,55.0,0.0,120.0,7.0,64.0
1895,64.0,96.0,180.0,0.0,80.0
1896,62.0,96.0,180.0,3.0,59.0
1897,57.0,0.0,180.0,7.0,64.0
1898,62.0,0.0,180.0,7.0,64.0
1899,67.0,96.0,90.0,1.0,65.0
1900,65.0,96.0,270.0,0.0,80.0
1901,67.0,0.0,90.0,10.0,57.0
1902,57.0,0.0,180.0,4.0,61.0
1903,57.0,0.0,180.0,11.0,53.0
1904,62.0,0.0,180.0,11.0,53.0
1905,65.0,0.0,270.0,10.0,57.0
1906,65.0,0.0,270.0,1.0,65.0
1907,65.0,0.0,180.0,7.0,64.0
1908,74.0,0.0,180.0,11.0,53.0
1909,65.0,0.0,180.0,11.0,53.0
1910,74.0,0.0,180.0,3.0,59.0
1911,65.0,0.0,180.0,4.0,61.0
1912,74.0,0.0,180.0,7.0,64.0
1913,69.0,0.0,90.0,0.0,80.0
1914,67.0,0.0,180.0,0.0,80.0
1915,64.0,0.0,120.0,11.0,53.0
1916,69.0,0.0,180.0,10.0,57.0
1917,73.0,0.0,120.0,11.0,53.0
1918,64.0,0.0,120.0,4.0,61.0
1919,69.0,48.0,180.0,1.0,65.0
1920,73.0,60.0,120.0,3.0,59.0
1921,64.0,0.0,120.0,7.0,64.0
1922,73.0,0.0,120.0,7.0,64.0
1923,69.0,96.0,1440.0,0.0,80.0
1924,38.0,0.0,180.0,6.0,61.0
1925,50.0,96.0,180.0,12.0,53.0
1926,74.0,0.0,1710.0,11.0,53.0
1927,74.0,192.0,1710.0,3.0,59.0
1928,69.0,0.0,1140.0,2.0,61.0
1929,69.0,0.0,1140.0,11.0,53.0
1930,50.0,0.0,180.0,5.0,61.0
1931,69.0,0.0,1140.0,7.0,64.0
1932,74.0,48.0,40.0,1.0,65.0
1933,50.0,0.0,180.0,8.0,64.0
1934,38.0,0.0,180.0,8.0,64.0
1935,74.0,0.0,1710.0,7.0,64.0
1936,65.0,96.0,1350.0,7.0,64.0
1937,38.0,0.0,180.0,12.0,53.0
1938,65.0,0.0,1350.0,4.0,61.0
1939,74.0,0.0,40.0,10.0,57.0
1940,65.0,0.0,1350.0,11.0,53.0
1941,76.0,96.0,40.0,1.0,65.0
1942,76.0,0.0,40.0,10.0,57.0
1943,77.0,96.0,180.0,10.0,57.0
1944,77.0,0.0,180.0,1.0,65.0
1945,38.0,0.0,180.0,8.0,64.0
1946,38.0,0.0,180.0,12.0,53.0
1947,50.0,0.0,180.0,12.0,53.0
1948,50.0,0.0,180.0,8.0,64.0
1949,50.0,0.0,180.0,5.0,61.0
1950,38.0,192.0,180.0,6.0,61.0
1951,76.0,0.0,90.0,1.0,65.0
1952,76.0,0.0,90.0,10.0,57.0
1953,38.0,0.0,180.0,8.0,64.0
1954,74.0,0.0,180.0,10.0,57.0
1955,50.0,0.0,180.0,5.0,61.0
1956,74.0,0.0,180.0,1.0,65.0
1957,50.0,0.0,180.0,8.0,64.0
1958,38.0,96.0,180.0,12.0,53.0
1959,50.0,0.0,180.0,12.0,53.0
1960,38.0,0.0,180.0,6.0,61.0
1961,36.0,96.0,180.0,12.0,53.0
1962,36.0,0.0,180.0,8.0,64.0
1963,48.0,0.0,180.0,8.0,64.0
1964,36.0,0.0,180.0,6.0,61.0
1965,76.0,0.0,90.0,10.0,57.0
1966,48.0,0.0,180.0,5.0,61.0
1967,76.0,96.0,90.0,1.0,65.0
1968,48.0,0.0,180.0,12.0,53.0
1969,74.0,0.0,180.0,10.0,57.0
1970,74.0,96.0,180.0,1.0,65.0
1971,36.0,0.0,180.0,12.0,53.0
1972,36.0,192.0,180.0,6.0,61.0
1973,36.0,0.0,180.0,8.0,64.0
1974,48.0,0.0,180.0,8.0,64.0
1975,48.0,0.0,180.0,12.0,53.0
1976,48.0,0.0,180.0,5.0,61.0
1977,73.0,0.0,90.0,1.0,65.0
1978,73.0,0.0,90.0,10.0,57.0
1979,36.0,0.0,180.0,6.0,61.0
1980,48.0,0.0,180.0,5.0,61.0
1981,74.0,0.0,180.0,1.0,65.0
1982,36.0,0.0,180.0,8.0,64.0
1983,48.0,0.0,180.0,8.0,64.0
1984,48.0,0.0,180.0,12.0,53.0
1985,36.0,0.0,180.0,12.0,53.0
1986,74.0,192.0,180.0,10.0,57.0
1987,46.0,0.0,180.0,5.0,61.0
1988,46.0,0.0,180.0,12.0,53.0
1989,34.0,0.0,180.0,12.0,53.0
1990,74.0,192.0,1530.0,1.0,65.0
1991,70.0,0.0,570.0,2.0,61.0
1992,70.0,0.0,570.0,7.0,64.0
1993,70.0,0.0,570.0,11.0,53.0
1994,74.0,0.0,1530.0,10.0,57.0
1995,34.0,0.0,180.0,6.0,61.0
1996,34.0,0.0,180.0,8.0,64.0
1997,46.0,0.0,180.0,8.0,64.0
1998,64.0,0.0,180.0,4.0,61.0
1999,34.0,0.0,180.0,8.0,64.0
2000,46.0,0.0,180.0,8.0,64.0
2001,64.0,0.0,180.0,7.0,64.0
2002,46.0,0.0,180.0,5.0,61.0
2003,34.0,0.0,180.0,12.0,53.0
2004,46.0,0.0,180.0,12.0,53.0
2005,34.0,192.0,180.0,6.0,61.0
2006,64.0,0.0,180.0,11.0,53.0
2007,67.0,0.0,90.0,0.0,80.0
2008,34.0,0.0,180.0,8.0,64.0
2009,62.0,0.0,180.0,4.0,61.0
2010,46.0,0.0,180.0,8.0,64.0
2011,34.0,0.0,180.0,6.0,61.0
2012,62.0,0.0,180.0,11.0,53.0
2013,66.0,96.0,480.0,0.0,80.0
2014,46.0,0.0,180.0,12.0,53.0
2015,62.0,0.0,180.0,7.0,64.0
2016,46.0,0.0,180.0,5.0,61.0
2017,34.0,0.0,180.0,12.0,53.0
2018,33.0,0.0,180.0,8.0,64.0
2019,60.0,96.0,180.0,11.0,53.0
2020,33.0,0.0,180.0,12.0,53.0
2021,45.0,0.0,180.0,5.0,61.0
2022,45.0,0.0,180.0,12.0,53.0
2023,66.0,0.0,570.0,11.0,53.0
2024,72.0,0.0,570.0,11.0,53.0
2025,33.0,0.0,180.0,6.0,61.0
2026,66.0,192.0,570.0,3.0,59.0
2027,45.0,0.0,180.0,8.0,64.0
2028,72.0,0.0,570.0,7.0,64.0
2029,66.0,0.0,570.0,7.0,64.0
2030,60.0,0.0,180.0,7.0,64.0
2031,60.0,0.0,180.0,4.0,61.0
2032,72.0,0.0,570.0,2.0,61.0
2033,58.0,0.0,180.0,11.0,53.0
2034,45.0,0.0,180.0,12.0,53.0
2035,33.0,0.0,180.0,12.0,53.0
2036,58.0,0.0,180.0,4.0,61.0
2037,33.0,0.0,180.0,6.0,61.0
2038,45.0,0.0,180.0,8.0,64.0
2039,45.0,0.0,180.0,5.0,61.0
2040,58.0,0.0,180.0,7.0,64.0
2041,33.0,192.0,180.0,8.0,64.0
2042,67.0,0.0,90.0,0.0,80.0
2043,33.0,0.0,180.0,6.0,61.0
2044,45.0,0.0,180.0,5.0,61.0
2045,57.0,0.0,180.0,11.0,53.0
2046,45.0,0.0,180.0,12.0,53.0
2047,45.0,0.0,180.0,8.0,64.0
2048,57.0,0.0,180.0,4.0,61.0
2049,57.0,0.0,180.0,7.0,64.0
2050,69.0,0.0,180.0,0.0,80.0
2051,33.0,0.0,180.0,8.0,64.0
2052,33.0,0.0,180.0,12.0,53.0
2053,70.0,0.0,570.0,2.0,61.0
2054,70.0,48.0,270.0,0.0,80.0
2055,62.0,0.0,1710.0,4.0,61.0
2056,43.0,0.0,180.0,8.0,64.0
2057,31.0,0.0,180.0,8.0,64.0
2058,67.0,0.0,570.0,3.0,59.0
2059,70.0,0.0,570.0,7.0,64.0
2060,62.0,0.0,1710.0,11.0,53.0
2061,67.0,0.0,570.0,7.0,64.0
2062,62.0,0.0,1710.0,7.0,64.0
2063,70.0,192.0,570.0,11.0,53.0
2064,67.0,0.0,570.0,11.0,53.0
2065,31.0,0.0,180.0,6.0,61.0
2066,43.0,0.0,180.0,5.0,61.0
2067,31.0,96.0,180.0,12.0,53.0
2068,43.0,0.0,180.0,12.0,53.0
2069,31.0,0.0,180.0,6.0,61.0
2070,43.0,0.0,180.0,8.0,64.0
2071,31.0,0.0,180.0,12.0,53.0
2072,43.0,0.0,180.0,12.0,53.0
2073,31.0,0.0,180.0,8.0,64.0
2074,43.0,0.0,180.0,5.0,61.0
2075,69.0,48.0,40.0,0.0,80.0
2076,70.0,0.0,40.0,0.0,80.0
2077,43.0,0.0,180.0,12.0,53.0
2078,43.0,0.0,180.0,5.0,61.0
2079,43.0,0.0,180.0,8.0,64.0
2080,72.0,96.0,480.0,0.0,80.0
2081,67.0,0.0,180.0,1.0,65.0
2082,31.0,0.0,180.0,12.0,53.0
2083,31.0,0.0,180.0,6.0,61.0
2084,31.0,0.0,180.0,8.0,64.0
2085,67.0,0.0,180.0,10.0,57.0
2086,72.0,0.0,390.0,11.0,53.0
2087,67.0,0.0,180.0,10.0,57.0
2088,72.0,0.0,390.0,3.0,59.0
2089,72.0,0.0,390.0,7.0,64.0
2090,69.0,0.0,570.0,7.0,64.0
2091,69.0,0.0,570.0,2.0,61.0
2092,69.0,0.0,570.0,11.0,53.0
2093,67.0,0.0,180.0,1.0,65.0
2094,33.0,0.0,180.0,12.0,53.0
2095,33.0,0.0,180.0,8.0,64.0
2096,45.0,0.0,180.0,8.0,64.0
2097,45.0,0.0,180.0,5.0,61.0
2098,33.0,96.0,180.0,6.0,61.0
2099,45.0,0.0,180.0,12.0,53.0
2100,33.0,0.0,180.0,8.0,64.0
2101,66.0,0.0,180.0,10.0,57.0
2102,45.0,0.0,180.0,12.0,53.0
2103,33.0,0.0,180.0,12.0,53.0
2104,45.0,0.0,180.0,5.0,61.0
2105,66.0,0.0,180.0,1.0,65.0
2106,33.0,0.0,180.0,6.0,61.0
2107,45.0,48.0,180.0,8.0,64.0
2108,70.0,144.0,150.0,0.0,80.0
2109,45.0,0.0,180.0,5.0,61.0
2110,66.0,0.0,180.0,3.0,59.0
2111,69.0,0.0,180.0,0.0,80.0
2112,72.0,0.0,390.0,10.0,57.0
2113,33.0,0.0,180.0,6.0,61.0
2114,33.0,0.0,180.0,12.0,53.0
2115,45.0,96.0,180.0,12.0,53.0
2116,66.0,0.0,180.0,7.0,64.0
2117,72.0,0.0,390.0,1.0,65.0
2118,45.0,0.0,180.0,8.0,64.0
2119,33.0,0.0,180.0,8.0,64.0
2120,66.0,0.0,180.0,11.0,53.0
2121,34.0,0.0,180.0,8.0,64.0
2122,46.0,0.0,180.0,12.0,53.0
2123,67.0,0.0,570.0,3.0,59.0
2124,34.0,0.0,180.0,6.0,61.0
2125,67.0,0.0,3450.0,2.0,61.0
2126,69.0,96.0,90.0,0.0,80.0
2127,46.0,0.0,180.0,5.0,61.0
2128,67.0,0.0,570.0,11.0,53.0
2129,34.0,0.0,180.0,12.0,53.0
2130,67.0,0.0,570.0,7.0,64.0
2131,46.0,96.0,180.0,8.0,64.0
2132,67.0,0.0,870.0,0.0,80.0
2133,70.0,96.0,90.0,10.0,57.0
2134,43.0,192.0,180.0,8.0,64.0
2135,31.0,0.0,180.0,6.0,61.0
2136,31.0,0.0,180.0,12.0,53.0
2137,31.0,0.0,180.0,8.0,64.0
2138,43.0,0.0,180.0,12.0,53.0
2139,43.0,0.0,180.0,5.0,61.0
2140,70.0,0.0,90.0,1.0,65.0
2141,74.0,0.0,90.0,1.0,65.0
2142,74.0,0.0,90.0,10.0,57.0
2143,46.0,0.0,180.0,8.0,64.0
2144,46.0,0.0,180.0,5.0,61.0
2145,69.0,0.0,390.0,10.0,57.0
2146,34.0,192.0,180.0,6.0,61.0
2147,34.0,0.0,180.0,12.0,53.0
2148,46.0,0.0,180.0,12.0,53.0
2149,34.0,0.0,180.0,8.0,64.0
2150,69.0,0.0,390.0,1.0,65.0
2151,38.0,0.0,180.0,8.0,64.0
2152,62.0,0.0,570.0,3.0,59.0
2153,50.0,0.0,180.0,12.0,53.0
2154,38.0,0.0,180.0,12.0,53.0
2155,38.0,96.0,180.0,6.0,61.0
2156,50.0,0.0,180.0,5.0,61.0
2157,62.0,0.0,570.0,7.0,64.0
2158,58.0,0.0,570.0,7.0,64.0
2159,58.0,0.0,570.0,4.0,61.0
2160,62.0,0.0,570.0,11.0,53.0
2161,58.0,0.0,570.0,11.0,53.0
2162,50.0,0.0,180.0,8.0,64.0
2163,34.0,0.0,180.0,8.0,64.0
2164,67.0,96.0,90.0,1.0,65.0
2165,34.0,0.0,180.0,6.0,61.0
2166,46.0,0.0,180.0,12.0,53.0
2167,34.0,192.0,180.0,12.0,53.0
2168,46.0,0.0,180.0,5.0,61.0
2169,67.0,0.0,90.0,10.0,57.0
2170,46.0,0.0,180.0,8.0,64.0
2171,70.0,0.0,90.0,10.0,57.0
2172,70.0,0.0,90.0,1.0,65.0
2173,65.0,0.0,180.0,0.0,80.0
2174,65.0,0.0,180.0,10.0,57.0
2175,50.0,0.0,180.0,8.0,64.0
2176,38.0,96.0,180.0,6.0,61.0
2177,50.0,0.0,180.0,5.0,61.0
2178,38.0,0.0,180.0,8.0,64.0
2179,50.0,0.0,180.0,12.0,53.0
2180,38.0,0.0,180.0,12.0,53.0
2181,65.0,0.0,180.0,1.0,65.0
2182,63.0,0.0,390.0,0.0,80.0
2183,55.0,96.0,180.0,12.0,53.0
2184,43.0,0.0,180.0,12.0,53.0
2185,55.0,0.0,570.0,11.0,53.0
2186,55.0,0.0,180.0,5.0,61.0
2187,55.0,0.0,180.0,8.0,64.0
2188,55.0,0.0,570.0,7.0,64.0
2189,65.0,96.0,90.0,1.0,65.0
2190,43.0,0.0,180.0,8.0,64.0
2191,65.0,0.0,90.0,10.0,57.0
2192,70.0,192.0,1710.0,3.0,59.0
2193,55.0,0.0,570.0,4.0,61.0
2194,70.0,0.0,1710.0,11.0,53.0
2195,43.0,0.0,180.0,6.0,61.0
2196,70.0,0.0,1710.0,7.0,64.0
2197,63.0,0.0,180.0,10.0,57.0
2198,63.0,96.0,180.0,1.0,65.0
2199,55.0,0.0,180.0,12.0,53.0
2200,43.0,0.0,180.0,6.0,61.0
2201,43.0,0.0,180.0,8.0,64.0
2202,55.0,192.0,180.0,8.0,64.0
2203,55.0,0.0,180.0,5.0,61.0
2204,43.0,0.0,180.0,12.0,53.0
2205,70.0,0.0,90.0,1.0,65.0
2206,70.0,0.0,90.0,10.0,57.0
2207,43.0,0.0,180.0,6.0,61.0
2208,55.0,0.0,180.0,5.0,61.0
2209,67.0,0.0,180.0,10.0,57.0
2210,55.0,0.0,180.0,8.0,64.0
2211,62.0,96.0,180.0,0.0,80.0
2212,55.0,0.0,180.0,12.0,53.0
2213,43.0,0.0,180.0,12.0,53.0
2214,67.0,0.0,180.0,1.0,65.0
2215,43.0,0.0,180.0,8.0,64.0
2216,53.0,0.0,180.0,12.0,53.0
2217,63.0,0.0,90.0,10.0,57.0
2218,41.0,96.0,180.0,12.0,53.0
2219,41.0,0.0,180.0,6.0,61.0
2220,63.0,96.0,90.0,1.0,65.0
2221,62.0,0.0,570.0,11.0,53.0
2222,62.0,0.0,570.0,4.0,61.0
2223,62.0,0.0,570.0,7.0,64.0
2224,62.0,0.0,390.0,0.0,80.0
2225,53.0,0.0,180.0,5.0,61.0
2226,53.0,0.0,180.0,8.0,64.0
2227,41.0,0.0,180.0,8.0,64.0
2228,62.0,96.0,180.0,1.0,65.0
2229,62.0,0.0,180.0,10.0,57.0
2230,53.0,0.0,180.0,5.0,61.0
2231,41.0,0.0,180.0,8.0,64.0
2232,53.0,0.0,180.0,8.0,64.0
2233,53.0,0.0,180.0,12.0,53.0
2234,41.0,0.0,180.0,12.0,53.0
2235,41.0,0.0,180.0,6.0,61.0
2236,70.0,192.0,90.0,10.0,57.0
2237,70.0,0.0,90.0,1.0,65.0
2238,67.0,0.0,180.0,1.0,65.0
2239,41.0,96.0,180.0,6.0,61.0
2240,67.0,0.0,180.0,10.0,57.0
2241,53.0,0.0,180.0,12.0,53.0
2242,41.0,0.0,180.0,8.0,64.0
2243,53.0,0.0,180.0,8.0,64.0
2244,61.0,0.0,180.0,0.0,80.0
2245,53.0,0.0,180.0,5.0,61.0
2246,41.0,0.0,180.0,12.0,53.0
2247,52.0,96.0,180.0,5.0,61.0
2248,52.0,0.0,180.0,12.0,53.0
2249,40.0,0.0,180.0,12.0,53.0
2250,62.0,96.0,90.0,1.0,65.0
2251,61.0,0.0,270.0,0.0,80.0
2252,40.0,0.0,180.0,6.0,61.0
2253,62.0,0.0,90.0,10.0,57.0
2254,52.0,0.0,180.0,8.0,64.0
2255,64.0,0.0,1140.0,4.0,61.0
2256,40.0,0.0,180.0,8.0,64.0
2257,61.0,0.0,180.0,1.0,65.0
2258,61.0,48.0,180.0,10.0,57.0
2259,52.0,0.0,180.0,12.0,53.0
2260,40.0,0.0,180.0,12.0,53.0
2261,40.0,0.0,180.0,6.0,61.0
2262,52.0,0.0,180.0,8.0,64.0
2263,40.0,0.0,180.0,8.0,64.0
2264,52.0,0.0,180.0,5.0,61.0
2265,67.0,0.0,40.0,1.0,65.0
2266,67.0,48.0,40.0,0.0,80.0
2267,67.0,0.0,40.0,10.0,57.0
2268,69.0,0.0,40.0,0.0,80.0
2269,69.0,0.0,40.0,10.0,57.0
2270,69.0,192.0,40.0,1.0,65.0
2271,40.0,0.0,180.0,6.0,61.0
2272,52.0,0.0,180.0,8.0,64.0
2273,40.0,0.0,180.0,8.0,64.0
2274,70.0,0.0,480.0,10.0,57.0
2275,70.0,96.0,480.0,0.0,80.0
2276,40.0,0.0,180.0,12.0,53.0
2277,52.0,0.0,180.0,5.0,61.0
2278,70.0,0.0,480.0,1.0,65.0
2279,52.0,0.0,180.0,12.0,53.0
2280,64.0,0.0,570.0,3.0,59.0
2281,37.0,0.0,180.0,6.0,61.0
2282,49.0,0.0,180.0,5.0,61.0
2283,64.0,0.0,570.0,7.0,64.0
2284,49.0,0.0,180.0,12.0,53.0
2285,64.0,0.0,570.0,11.0,53.0
2286,49.0,96.0,180.0,8.0,64.0
2287,37.0,0.0,180.0,8.0,64.0
2288,37.0,0.0,180.0,12.0,53.0
2289,49.0,0.0,180.0,12.0,53.0
2290,49.0,0.0,180.0,8.0,64.0
2291,37.0,192.0,180.0,8.0,64.0
2292,49.0,0.0,180.0,5.0,61.0
2293,37.0,0.0,180.0,6.0,61.0
2294,37.0,0.0,180.0,12.0,53.0
2295,69.0,0.0,90.0,1.0,65.0
2296,69.0,0.0,90.0,10.0,57.0
2297,69.0,0.0,90.0,0.0,80.0
2298,49.0,0.0,180.0,8.0,64.0
2299,67.0,0.0,180.0,1.0,65.0
2300,37.0,0.0,180.0,6.0,61.0
2301,37.0,0.0,180.0,8.0,64.0
2302,67.0,0.0,180.0,0.0,80.0
2303,67.0,0.0,180.0,10.0,57.0
2304,37.0,0.0,180.0,12.0,53.0
2305,49.0,96.0,180.0,12.0,53.0
2306,49.0,0.0,180.0,5.0,61.0
2307,57.0,0.0,570.0,4.0,61.0
2308,50.0,96.0,180.0,5.0,61.0
2309,67.0,96.0,90.0,1.0,65.0
2310,50.0,0.0,180.0,8.0,64.0
2311,65.0,0.0,570.0,3.0,59.0
2312,38.0,0.0,180.0,8.0,64.0
2313,65.0,0.0,270.0,0.0,80.0
2314,65.0,0.0,570.0,2.0,61.0
2315,38.0,0.0,180.0,12.0,53.0
2316,67.0,0.0,90.0,10.0,57.0
2317,50.0,0.0,180.0,12.0,53.0
2318,65.0,0.0,570.0,7.0,64.0
2319,57.0,192.0,570.0,7.0,64.0
2320,38.0,0.0,180.0,6.0,61.0
2321,57.0,0.0,570.0,11.0,53.0
2322,65.0,0.0,570.0,11.0,53.0
2323,65.0,0.0,180.0,10.0,57.0
2324,65.0,48.0,180.0,1.0,65.0
2325,38.0,192.0,180.0,8.0,64.0
2326,50.0,0.0,180.0,5.0,61.0
2327,50.0,0.0,180.0,8.0,64.0
2328,38.0,0.0,180.0,6.0,61.0
2329,38.0,0.0,180.0,12.0,53.0
2330,50.0,0.0,180.0,12.0,53.0
2331,64.0,48.0,40.0,1.0,65.0
2332,64.0,0.0,90.0,0.0,80.0
2333,64.0,0.0,40.0,10.0,57.0
2334,65.0,0.0,40.0,1.0,65.0
2335,65.0,0.0,40.0,10.0,57.0
2336,67.0,0.0,480.0,0.0,80.0
2337,50.0,0.0,180.0,5.0,61.0
2338,38.0,0.0,180.0,12.0,53.0
2339,67.0,0.0,180.0,1.0,65.0
2340,38.0,0.0,180.0,8.0,64.0
2341,50.0,0.0,180.0,8.0,64.0
2342,38.0,0.0,180.0,6.0,61.0
2343,67.0,0.0,180.0,10.0,57.0
2344,50.0,0.0,180.0,12.0,53.0
2345,62.0,0.0,570.0,3.0,59.0
2346,67.0,96.0,270.0,10.0,57.0
2347,67.0,0.0,270.0,1.0,65.0
2348,62.0,0.0,570.0,7.0,64.0
2349,46.0,0.0,180.0,5.0,61.0
2350,34.0,0.0,180.0,6.0,61.0
2351,67.0,0.0,570.0,7.0,64.0
2352,67.0,0.0,570.0,11.0,53.0
2353,62.0,0.0,570.0,11.0,53.0
2354,58.0,0.0,570.0,11.0,53.0
2355,34.0,0.0,180.0,8.0,64.0
2356,67.0,0.0,570.0,2.0,61.0
2357,46.0,96.0,180.0,12.0,53.0
2358,34.0,0.0,180.0,12.0,53.0
2359,58.0,0.0,570.0,4.0,61.0
2360,58.0,0.0,570.0,7.0,64.0
2361,46.0,0.0,180.0,8.0,64.0
2362,34.0,0.0,180.0,6.0,61.0
2363,46.0,0.0,180.0,12.0,53.0
2364,46.0,192.0,180.0,5.0,61.0
2365,34.0,0.0,180.0,8.0,64.0
2366,46.0,0.0,180.0,8.0,64.0
2367,34.0,0.0,180.0,12.0,53.0
2368,65.0,0.0,90.0,1.0,65.0
2369,65.0,0.0,90.0,0.0,80.0
2370,65.0,0.0,90.0,10.0,57.0
2371,34.0,0.0,180.0,12.0,53.0
2372,64.0,0.0,180.0,0.0,80.0
2373,46.0,0.0,180.0,8.0,64.0
2374,46.0,0.0,180.0,5.0,61.0
2375,46.0,0.0,180.0,12.0,53.0
2376,64.0,0.0,180.0,10.0,57.0
2377,34.0,0.0,180.0,8.0,64.0
2378,64.0,0.0,180.0,1.0,65.0
2379,34.0,0.0,180.0,6.0,61.0
2380,62.0,192.0,90.0,10.0,57.0
2381,62.0,0.0,90.0,1.0,65.0
2382,52.0,0.0,960.0,11.0,53.0
2383,33.0,0.0,180.0,12.0,53.0
2384,64.0,0.0,990.0,11.0,53.0
2385,45.0,0.0,180.0,12.0,53.0
2386,45.0,0.0,180.0,5.0,61.0
2387,33.0,0.0,180.0,8.0,64.0
2388,64.0,0.0,990.0,3.0,59.0
2389,61.0,0.0,390.0,0.0,80.0
2390,64.0,0.0,960.0,7.0,64.0
2391,69.0,48.0,990.0,7.0,64.0
2392,45.0,0.0,180.0,8.0,64.0
2393,52.0,0.0,960.0,4.0,61.0
2394,61.0,0.0,660.0,10.0,57.0
2395,69.0,0.0,990.0,11.0,53.0
2396,33.0,192.0,180.0,6.0,61.0
2397,69.0,0.0,990.0,2.0,61.0
2398,61.0,96.0,660.0,1.0,65.0
2399,40.0,192.0,180.0,5.0,61.0
2400,28.0,0.0,180.0,8.0,64.0
2401,40.0,0.0,180.0,8.0,64.0
2402,28.0,0.0,180.0,12.0,53.0
2403,28.0,0.0,180.0,6.0,61.0
2404,40.0,0.0,180.0,12.0,53.0
2405,59.0,96.0,180.0,0.0,80.0
2406,31.0,0.0,180.0,12.0,53.0
2407,43.0,0.0,180.0,12.0,53.0
2408,43.0,0.0,180.0,8.0,64.0
2409,31.0,0.0,180.0,8.0,64.0
2410,31.0,0.0,180.0,6.0,61.0
2411,43.0,0.0,180.0,5.0,61.0
2412,43.0,0.0,180.0,8.0,64.0
2413,31.0,96.0,180.0,6.0,61.0
2414,43.0,0.0,180.0,12.0,53.0
2415,31.0,0.0,180.0,8.0,64.0
2416,43.0,0.0,180.0,5.0,61.0
2417,31.0,0.0,180.0,12.0,53.0
2418,57.0,0.0,390.0,0.0,80.0
2419,62.0,0.0,90.0,1.0,65.0
2420,62.0,0.0,90.0,10.0,57.0
2421,37.0,48.0,180.0,12.0,53.0
2422,64.0,96.0,90.0,10.0,57.0
2423,25.0,0.0,180.0,12.0,53.0
2424,37.0,0.0,180.0,5.0,61.0
2425,64.0,0.0,90.0,1.0,65.0
2426,25.0,0.0,180.0,6.0,61.0
2427,37.0,0.0,180.0,8.0,64.0
2428,25.0,0.0,180.0,8.0,64.0
2429,69.0,0.0,90.0,1.0,65.0
2430,69.0,0.0,90.0,10.0,57.0
2431,28.0,0.0,180.0,6.0,61.0
2432,40.0,0.0,180.0,12.0,53.0
2433,40.0,0.0,180.0,8.0,64.0
2434,28.0,0.0,180.0,8.0,64.0
2435,28.0,0.0,180.0,12.0,53.0
2436,73.0,96.0,90.0,1.0,65.0
2437,73.0,0.0,90.0,10.0,57.0
2438,40.0,0.0,180.0,5.0,61.0
2439,76.0,0.0,90.0,1.0,65.0
2440,76.0,48.0,90.0,10.0,57.0
2441,69.0,0.0,180.0,3.0,59.0
2442,79.0,48.0,40.0,10.0,57.0
2443,73.0,0.0,180.0,2.0,61.0
2444,64.0,0.0,180.0,7.0,64.0
2445,69.0,0.0,180.0,7.0,64.0
2446,69.0,0.0,180.0,11.0,53.0
2447,79.0,0.0,40.0,1.0,65.0
2448,64.0,0.0,180.0,11.0,53.0
2449,73.0,0.0,180.0,11.0,53.0
2450,64.0,0.0,180.0,4.0,61.0
2451,73.0,0.0,180.0,7.0,64.0
2452,77.0,96.0,40.0,1.0,65.0
2453,77.0,0.0,40.0,10.0,57.0
2454,76.0,192.0,90.0,1.0,65.0
2455,76.0,0.0,90.0,10.0,57.0
2456,74.0,0.0,180.0,11.0,53.0
2457,71.0,0.0,180.0,11.0,53.0
2458,65.0,0.0,180.0,11.0,53.0
2459,74.0,0.0,180.0,10.0,57.0
2460,65.0,0.0,180.0,4.0,61.0
2461,74.0,0.0,180.0,2.0,61.0
2462,74.0,0.0,180.0,7.0,64.0
2463,71.0,0.0,180.0,7.0,64.0
2464,65.0,0.0,180.0,7.0,64.0
2465,71.0,0.0,180.0,3.0,59.0
2466,74.0,144.0,180.0,1.0,65.0
2467,73.0,48.0,150.0,10.0,57.0
2468,76.0,0.0,180.0,7.0,64.0
2469,73.0,0.0,180.0,7.0,64.0
2470,76.0,0.0,180.0,2.0,61.0
2471,67.0,0.0,180.0,7.0,64.0
2472,73.0,0.0,150.0,1.0,65.0
2473,67.0,0.0,180.0,4.0,61.0
2474,76.0,0.0,180.0,11.0,53.0
2475,73.0,0.0,180.0,3.0,59.0
2476,73.0,48.0,180.0,11.0,53.0
2477,67.0,0.0,180.0,11.0,53.0
2478,74.0,0.0,40.0,1.0,65.0
2479,74.0,0.0,40.0,10.0,57.0
2480,76.0,0.0,180.0,11.0,53.0
2481,76.0,48.0,40.0,1.0,65.0
2482,76.0,0.0,180.0,2.0,61.0
2483,57.0,0.0,180.0,4.0,61.0
2484,73.0,0.0,180.0,11.0,53.0
2485,57.0,0.0,180.0,7.0,64.0
2486,73.0,0.0,180.0,7.0,64.0
2487,76.0,0.0,180.0,7.0,64.0
2488,76.0,0.0,40.0,10.0,57.0
2489,57.0,0.0,180.0,11.0,53.0
2490,73.0,0.0,180.0,3.0,59.0
2491,74.0,96.0,40.0,1.0,65.0
2492,74.0,0.0,40.0,10.0,57.0
2493,73.0,192.0,90.0,1.0,65.0
2494,73.0,0.0,90.0,10.0,57.0
2495,74.0,0.0,180.0,7.0,64.0
2496,77.0,0.0,180.0,2.0,61.0
2497,77.0,96.0,180.0,11.0,53.0
2498,74.0,0.0,180.0,11.0,53.0
2499,57.0,0.0,180.0,11.0,53.0
2500,57.0,0.0,180.0,7.0,64.0
2501,77.0,0.0,180.0,7.0,64.0
2502,70.0,0.0,180.0,1.0,65.0
2503,74.0,0.0,180.0,3.0,59.0
2504,70.0,0.0,180.0,10.0,57.0
2505,57.0,0.0,180.0,4.0,61.0
2506,57.0,0.0,90.0,0.0,80.0
2507,69.0,48.0,150.0,10.0,57.0
2508,76.0,0.0,180.0,11.0,53.0
2509,76.0,0.0,180.0,3.0,59.0
2510,79.0,0.0,180.0,11.0,53.0
2511,57.0,0.0,180.0,11.0,53.0
2512,76.0,0.0,180.0,7.0,64.0
2513,61.0,48.0,90.0,0.0,80.0
2514,69.0,0.0,150.0,1.0,65.0
2515,79.0,0.0,180.0,7.0,64.0
2516,79.0,96.0,180.0,2.0,61.0
2517,57.0,0.0,180.0,4.0,61.0
2518,57.0,0.0,180.0,7.0,64.0
2519,64.0,0.0,90.0,0.0,80.0
2520,70.0,0.0,40.0,10.0,57.0
2521,70.0,0.0,40.0,1.0,65.0
2522,74.0,0.0,90.0,10.0,57.0
2523,73.0,192.0,960.0,7.0,64.0
2524,64.0,0.0,960.0,7.0,64.0
2525,57.0,0.0,960.0,7.0,64.0
2526,45.0,0.0,180.0,8.0,64.0
2527,33.0,0.0,180.0,8.0,64.0
2528,33.0,0.0,180.0,12.0,53.0
2529,45.0,0.0,180.0,12.0,53.0
2530,33.0,0.0,180.0,6.0,61.0
2531,74.0,96.0,90.0,1.0,65.0
2532,45.0,96.0,180.0,5.0,61.0
2533,73.0,0.0,960.0,2.0,61.0
2534,57.0,0.0,960.0,4.0,61.0
2535,73.0,0.0,960.0,11.0,53.0
2536,64.0,0.0,960.0,11.0,53.0
2537,67.0,96.0,270.0,0.0,80.0
2538,57.0,0.0,960.0,11.0,53.0
2539,64.0,0.0,960.0,3.0,59.0
2540,73.0,96.0,570.0,1.0,65.0
2541,73.0,0.0,570.0,10.0,57.0
2542,33.0,0.0,180.0,12.0,53.0
2543,45.0,0.0,180.0,12.0,53.0
2544,33.0,0.0,180.0,6.0,61.0
2545,45.0,192.0,180.0,5.0,61.0
2546,45.0,0.0,180.0,8.0,64.0
2547,33.0,0.0,180.0,8.0,64.0
2548,69.0,0.0,90.0,0.0,80.0
2549,33.0,0.0,180.0,12.0,53.0
2550,70.0,96.0,480.0,0.0,80.0
2551,45.0,0.0,180.0,12.0,53.0
2552,45.0,0.0,180.0,5.0,61.0
2553,45.0,96.0,180.0,8.0,64.0
2554,33.0,0.0,180.0,8.0,64.0
2555,33.0,0.0,180.0,6.0,61.0
2556,45.0,0.0,180.0,5.0,61.0
2557,33.0,0.0,180.0,12.0,53.0
2558,45.0,0.0,180.0,12.0,53.0
2559,33.0,96.0,180.0,6.0,61.0
2560,45.0,0.0,180.0,8.0,64.0
2561,33.0,0.0,180.0,8.0,64.0
2562,33.0,0.0,180.0,6.0,61.0
2563,45.0,0.0,180.0,5.0,61.0
2564,45.0,0.0,180.0,12.0,53.0
2565,45.0,0.0,180.0,8.0,64.0
2566,33.0,0.0,180.0,8.0,64.0
2567,33.0,0.0,180.0,12.0,53.0
2568,69.0,0.0,90.0,0.0,80.0
2569,67.0,0.0,180.0,0.0,80.0
2570,45.0,48.0,180.0,5.0,61.0
2571,33.0,0.0,180.0,8.0,64.0
2572,45.0,0.0,180.0,8.0,64.0
2573,45.0,0.0,180.0,12.0,53.0
2574,33.0,0.0,180.0,12.0,53.0
2575,33.0,0.0,180.0,6.0,61.0
2576,57.0,0.0,180.0,7.0,64.0
2577,26.0,0.0,390.0,12.0,53.0
2578,38.0,0.0,390.0,12.0,53.0
2579,69.0,0.0,180.0,7.0,64.0
2580,38.0,144.0,390.0,5.0,61.0
2581,26.0,0.0,390.0,8.0,64.0
2582,38.0,0.0,390.0,8.0,64.0
2583,66.0,0.0,180.0,7.0,64.0
2584,57.0,0.0,180.0,11.0,53.0
2585,66.0,0.0,180.0,3.0,59.0
2586,69.0,192.0,180.0,11.0,53.0
2587,69.0,0.0,180.0,2.0,61.0
2588,72.0,0.0,40.0,10.0,57.0
2589,57.0,0.0,180.0,4.0,61.0
2590,72.0,48.0,40.0,1.0,65.0
2591,66.0,0.0,390.0,0.0,80.0
2592,26.0,0.0,390.0,6.0,61.0
2593,66.0,0.0,180.0,11.0,53.0
2594,70.0,0.0,40.0,1.0,65.0
2595,70.0,96.0,40.0,10.0,57.0
2596,69.0,0.0,90.0,10.0,57.0
2597,69.0,0.0,90.0,1.0,65.0
2598,67.0,0.0,180.0,11.0,53.0
2599,67.0,0.0,180.0,10.0,57.0
2600,62.0,0.0,180.0,11.0,53.0
2601,70.0,0.0,180.0,11.0,53.0
2602,62.0,0.0,180.0,7.0,64.0
2603,62.0,0.0,180.0,4.0,61.0
2604,70.0,0.0,180.0,7.0,64.0
2605,70.0,0.0,180.0,2.0,61.0
2606,67.0,0.0,180.0,1.0,65.0
2607,67.0,0.0,180.0,3.0,59.0
2608,67.0,0.0,180.0,7.0,64.0
2609,62.0,0.0,180.0,11.0,53.0
2610,69.0,0.0,180.0,11.0,53.0
2611,72.0,0.0,180.0,11.0,53.0
2612,72.0,0.0,180.0,2.0,61.0
2613,69.0,0.0,180.0,7.0,64.0
2614,62.0,0.0,180.0,7.0,64.0
2615,66.0,0.0,150.0,1.0,65.0
2616,72.0,0.0,180.0,7.0,64.0
2617,62.0,0.0,180.0,4.0,61.0
2618,69.0,0.0,180.0,3.0,59.0
2619,69.0,0.0,180.0,0.0,80.0
2620,66.0,48.0,150.0,10.0,57.0
2621,67.0,0.0,40.0,1.0,65.0
2622,67.0,48.0,40.0,10.0,57.0
2623,69.0,0.0,40.0,1.0,65.0
2624,69.0,0.0,180.0,11.0,53.0
2625,66.0,0.0,180.0,11.0,53.0
2626,62.0,0.0,180.0,11.0,53.0
2627,69.0,0.0,180.0,2.0,61.0
2628,69.0,48.0,40.0,10.0,57.0
2629,66.0,0.0,180.0,3.0,59.0
2630,69.0,0.0,180.0,7.0,64.0
2631,62.0,0.0,180.0,4.0,61.0
2632,62.0,0.0,180.0,7.0,64.0
2633,69.0,0.0,40.0,0.0,80.0
2634,66.0,96.0,180.0,7.0,64.0
2635,67.0,0.0,40.0,1.0,65.0
2636,70.0,0.0,40.0,0.0,80.0
2637,67.0,96.0,40.0,10.0,57.0
2638,66.0,0.0,90.0,10.0,57.0
2639,72.0,96.0,180.0,0.0,80.0
2640,66.0,0.0,90.0,1.0,65.0
2641,70.0,0.0,180.0,7.0,64.0
2642,62.0,0.0,180.0,11.0,53.0
2643,62.0,96.0,180.0,4.0,61.0
2644,63.0,0.0,180.0,10.0,57.0
2645,62.0,0.0,180.0,7.0,64.0
2646,67.0,0.0,180.0,11.0,53.0
2647,70.0,0.0,180.0,2.0,61.0
2648,67.0,0.0,180.0,7.0,64.0
2649,67.0,0.0,180.0,3.0,59.0
2650,63.0,0.0,180.0,1.0,65.0
2651,70.0,0.0,180.0,11.0,53.0
2652,69.0,0.0,90.0,0.0,80.0
2653,66.0,48.0,90.0,0.0,80.0
2654,62.0,0.0,150.0,1.0,65.0
2655,62.0,0.0,180.0,4.0,61.0
2656,69.0,0.0,180.0,3.0,59.0
2657,72.0,96.0,180.0,7.0,64.0
2658,62.0,0.0,180.0,7.0,64.0
2659,72.0,0.0,180.0,2.0,61.0
2660,62.0,48.0,150.0,10.0,57.0
2661,72.0,0.0,180.0,11.0,53.0
2662,69.0,0.0,180.0,7.0,64.0
2663,69.0,0.0,180.0,11.0,53.0
2664,62.0,0.0,180.0,11.0,53.0
2665,67.0,0.0,90.0,0.0,80.0
2666,63.0,0.0,40.0,10.0,57.0
2667,63.0,0.0,40.0,1.0,65.0
2668,62.0,0.0,960.0,7.0,64.0
2669,57.0,0.0,900.0,7.0,64.0
2670,66.0,0.0,960.0,7.0,64.0
2671,67.0,96.0,90.0,10.0,57.0
2672,26.0,96.0,180.0,6.0,61.0
2673,62.0,0.0,960.0,4.0,61.0
2674,38.0,0.0,180.0,8.0,64.0
2675,60.0,96.0,270.0,0.0,80.0
2676,38.0,0.0,180.0,12.0,53.0
2677,26.0,0.0,180.0,12.0,53.0
2678,66.0,0.0,960.0,2.0,61.0
2679,62.0,0.0,960.0,11.0,53.0
2680,26.0,0.0,180.0,8.0,64.0
2681,67.0,0.0,90.0,1.0,65.0
2682,57.0,0.0,900.0,11.0,53.0
2683,66.0,0.0,960.0,11.0,53.0
2684,57.0,48.0,900.0,3.0,59.0
2685,38.0,0.0,180.0,5.0,61.0
2686,66.0,0.0,990.0,1.0,65.0
2687,66.0,48.0,990.0,10.0,57.0
2688,26.0,0.0,180.0,12.0,53.0
2689,38.0,0.0,180.0,12.0,53.0
2690,38.0,192.0,180.0,5.0,61.0
2691,26.0,0.0,180.0,6.0,61.0
2692,26.0,0.0,180.0,8.0,64.0
2693,38.0,0.0,180.0,8.0,64.0
2694,62.0,0.0,90.0,0.0,80.0
2695,38.0,192.0,180.0,12.0,53.0
2696,26.0,0.0,180.0,6.0,61.0
2697,26.0,0.0,180.0,12.0,53.0
2698,63.0,48.0,480.0,0.0,80.0
2699,38.0,0.0,180.0,8.0,64.0
2700,26.0,0.0,180.0,8.0,64.0
2701,38.0,0.0,180.0,5.0,61.0
2702,26.0,0.0,180.0,12.0,53.0
2703,26.0,0.0,180.0,6.0,61.0
2704,38.0,0.0,180.0,5.0,61.0
2705,38.0,0.0,180.0,12.0,53.0
2706,26.0,96.0,180.0,8.0,64.0
2707,38.0,0.0,180.0,8.0,64.0
2708,38.0,0.0,180.0,5.0,61.0
2709,26.0,0.0,180.0,12.0,53.0
2710,26.0,0.0,180.0,6.0,61.0
2711,38.0,144.0,180.0,8.0,64.0
2712,38.0,0.0,180.0,12.0,53.0
2713,26.0,0.0,180.0,8.0,64.0
2714,62.0,0.0,90.0,0.0,80.0
2715,60.0,0.0,180.0,0.0,80.0
2716,26.0,48.0,180.0,8.0,64.0
2717,38.0,0.0,180.0,8.0,64.0
2718,26.0,0.0,180.0,12.0,53.0
2719,38.0,0.0,180.0,12.0,53.0
2720,26.0,0.0,180.0,6.0,61.0
2721,38.0,0.0,180.0,5.0,61.0
2722,70.0,0.0,40.0,10.0,57.0
2723,50.0,0.0,570.0,4.0,61.0
2724,58.0,0.0,570.0,2.0,61.0
2725,70.0,48.0,40.0,1.0,65.0
2726,55.0,0.0,570.0,3.0,59.0
2727,55.0,0.0,570.0,7.0,64.0
2728,50.0,0.0,570.0,11.0,53.0
2729,50.0,0.0,570.0,7.0,64.0
2730,43.0,0.0,180.0,8.0,64.0
2731,31.0,0.0,180.0,8.0,64.0
2732,55.0,0.0,570.0,11.0,53.0
2733,58.0,0.0,570.0,11.0,53.0
2734,58.0,0.0,180.0,0.0,80.0
2735,43.0,0.0,180.0,12.0,53.0
2736,31.0,96.0,180.0,12.0,53.0
2737,31.0,0.0,180.0,6.0,61.0
2738,43.0,0.0,180.0,5.0,61.0
2739,58.0,0.0,570.0,7.0,64.0
2740,72.0,0.0,40.0,10.0,57.0
2741,72.0,96.0,40.0,1.0,65.0
2742,74.0,48.0,180.0,10.0,57.0
2743,74.0,0.0,180.0,1.0,65.0
2744,43.0,0.0,180.0,5.0,61.0
2745,60.0,48.0,180.0,0.0,80.0
2746,43.0,0.0,180.0,12.0,53.0
2747,31.0,0.0,180.0,6.0,61.0
2748,31.0,0.0,180.0,8.0,64.0
2749,31.0,0.0,180.0,12.0,53.0
2750,43.0,0.0,180.0,8.0,64.0
2751,72.0,48.0,40.0,10.0,57.0
2752,72.0,0.0,40.0,1.0,65.0
2753,70.0,0.0,40.0,1.0,65.0
2754,70.0,0.0,40.0,10.0,57.0
2755,72.0,0.0,40.0,10.0,57.0
2756,43.0,0.0,180.0,12.0,53.0
2757,31.0,0.0,180.0,12.0,53.0
2758,62.0,0.0,390.0,0.0,80.0
2759,43.0,0.0,180.0,8.0,64.0
2760,31.0,0.0,180.0,8.0,64.0
2761,43.0,48.0,180.0,5.0,61.0
2762,31.0,0.0,180.0,6.0,61.0
2763,72.0,48.0,40.0,1.0,65.0
2764,70.0,0.0,40.0,10.0,57.0
2765,70.0,96.0,40.0,1.0,65.0
2766,69.0,0.0,90.0,1.0,65.0
2767,69.0,0.0,90.0,10.0,57.0
2768,62.0,0.0,570.0,2.0,61.0
2769,67.0,48.0,40.0,10.0,57.0
2770,43.0,0.0,180.0,12.0,53.0
2771,62.0,0.0,570.0,7.0,64.0
2772,58.0,0.0,570.0,7.0,64.0
2773,55.0,0.0,570.0,7.0,64.0
2774,43.0,0.0,180.0,8.0,64.0
2775,62.0,0.0,570.0,11.0,53.0
2776,43.0,0.0,180.0,5.0,61.0
2777,31.0,0.0,180.0,8.0,64.0
2778,55.0,48.0,570.0,4.0,61.0
2779,58.0,0.0,570.0,3.0,59.0
2780,31.0,96.0,180.0,6.0,61.0
2781,31.0,0.0,180.0,12.0,53.0
2782,55.0,0.0,570.0,11.0,53.0
2783,58.0,0.0,570.0,11.0,53.0
2784,67.0,0.0,40.0,1.0,65.0
2785,69.0,96.0,40.0,10.0,57.0
2786,69.0,0.0,40.0,1.0,65.0
2787,70.0,48.0,180.0,10.0,57.0
2788,70.0,0.0,180.0,1.0,65.0
2789,43.0,0.0,180.0,12.0,53.0
2790,31.0,0.0,180.0,6.0,61.0
2791,64.0,0.0,180.0,0.0,80.0
2792,43.0,0.0,180.0,8.0,64.0
2793,31.0,0.0,180.0,12.0,53.0
2794,43.0,0.0,180.0,5.0,61.0
2795,31.0,0.0,180.0,8.0,64.0
2796,69.0,48.0,40.0,10.0,57.0
2797,69.0,0.0,40.0,1.0,65.0
2798,67.0,0.0,40.0,10.0,57.0
2799,67.0,48.0,40.0,1.0,65.0
2800,31.0,0.0,180.0,6.0,61.0
2801,31.0,0.0,180.0,8.0,64.0
2802,69.0,48.0,40.0,10.0,57.0
2803,43.0,0.0,180.0,8.0,64.0
2804,31.0,0.0,180.0,12.0,53.0
2805,43.0,0.0,180.0,5.0,61.0
2806,66.0,0.0,180.0,0.0,80.0
2807,43.0,0.0,180.0,12.0,53.0
2808,69.0,0.0,40.0,1.0,65.0
2809,67.0,0.0,40.0,10.0,57.0
2810,67.0,96.0,40.0,1.0,65.0
2811,65.0,0.0,90.0,10.0,57.0
2812,65.0,0.0,90.0,1.0,65.0
2813,31.0,0.0,180.0,6.0,61.0
2814,63.0,48.0,40.0,10.0,57.0
2815,67.0,96.0,180.0,0.0,80.0
2816,67.0,0.0,570.0,2.0,61.0
2817,67.0,0.0,570.0,7.0,64.0
2818,63.0,0.0,570.0,7.0,64.0
2819,58.0,0.0,570.0,7.0,64.0
2820,67.0,0.0,570.0,11.0,53.0
2821,63.0,0.0,570.0,11.0,53.0
2822,58.0,48.0,570.0,11.0,53.0
2823,63.0,0.0,570.0,3.0,59.0
2824,31.0,0.0,180.0,12.0,53.0
2825,43.0,0.0,180.0,12.0,53.0
2826,63.0,0.0,40.0,1.0,65.0
2827,43.0,0.0,180.0,5.0,61.0
2828,31.0,0.0,180.0,8.0,64.0
2829,43.0,0.0,180.0,8.0,64.0
2830,58.0,0.0,570.0,4.0,61.0
2831,65.0,96.0,40.0,1.0,65.0
2832,65.0,0.0,40.0,10.0,57.0
2833,67.0,48.0,180.0,10.0,57.0
2834,67.0,0.0,180.0,1.0,65.0
2835,43.0,48.0,180.0,5.0,61.0
2836,69.0,0.0,180.0,0.0,80.0
2837,31.0,0.0,180.0,6.0,61.0
2838,31.0,0.0,180.0,12.0,53.0
2839,43.0,0.0,180.0,12.0,53.0
2840,43.0,0.0,180.0,8.0,64.0
2841,31.0,0.0,180.0,8.0,64.0
2842,65.0,0.0,40.0,1.0,65.0
2843,65.0,48.0,40.0,10.0,57.0
2844,63.0,0.0,40.0,1.0,65.0
2845,63.0,0.0,40.0,10.0,57.0
2846,43.0,0.0,180.0,12.0,53.0
2847,70.0,0.0,390.0,0.0,80.0
2848,65.0,48.0,40.0,10.0,57.0
2849,65.0,0.0,40.0,1.0,65.0
2850,31.0,0.0,180.0,6.0,61.0
2851,43.0,0.0,180.0,8.0,64.0
2852,43.0,0.0,180.0,5.0,61.0
2853,31.0,0.0,180.0,8.0,64.0
2854,31.0,0.0,180.0,12.0,53.0
2855,63.0,0.0,40.0,10.0,57.0
2856,63.0,96.0,40.0,1.0,65.0
2857,62.0,0.0,90.0,10.0,57.0
2858,62.0,0.0,90.0,1.0,65.0
2859,52.0,0.0,180.0,7.0,64.0
2860,43.0,0.0,180.0,12.0,53.0
2861,67.0,0.0,180.0,7.0,64.0
2862,43.0,0.0,180.0,5.0,61.0
2863,31.0,0.0,180.0,12.0,53.0
2864,61.0,48.0,40.0,10.0,57.0
2865,43.0,96.0,180.0,8.0,64.0
2866,70.0,0.0,180.0,7.0,64.0
2867,61.0,0.0,40.0,1.0,65.0
2868,31.0,0.0,180.0,8.0,64.0
2869,70.0,0.0,180.0,2.0,61.0
2870,70.0,0.0,180.0,11.0,53.0
2871,67.0,0.0,180.0,3.0,59.0
2872,67.0,0.0,180.0,11.0,53.0
2873,31.0,0.0,180.0,6.0,61.0
2874,52.0,0.0,180.0,11.0,53.0
2875,52.0,0.0,180.0,4.0,61.0
2876,62.0,0.0,40.0,1.0,65.0
2877,62.0,96.0,40.0,10.0,57.0
2878,64.0,0.0,180.0,1.0,65.0
2879,64.0,48.0,180.0,10.0,57.0
2880,61.0,0.0,390.0,4.0,61.0
2881,43.0,0.0,180.0,8.0,64.0
2882,69.0,0.0,90.0,0.0,80.0
2883,31.0,48.0,180.0,8.0,64.0
2884,69.0,0.0,750.0,2.0,61.0
2885,31.0,0.0,180.0,6.0,61.0
2886,43.0,0.0,180.0,12.0,53.0
2887,64.0,0.0,390.0,7.0,64.0
2888,69.0,0.0,750.0,7.0,64.0
2889,64.0,0.0,390.0,11.0,53.0
2890,64.0,0.0,390.0,3.0,59.0
2891,61.0,0.0,390.0,7.0,64.0
2892,31.0,0.0,180.0,12.0,53.0
2893,61.0,0.0,390.0,11.0,53.0
2894,69.0,0.0,750.0,11.0,53.0
2895,43.0,0.0,180.0,5.0,61.0
2896,67.0,0.0,90.0,0.0,80.0
2897,62.0,48.0,40.0,1.0,65.0
2898,62.0,0.0,40.0,10.0,57.0
2899,61.0,0.0,40.0,10.0,57.0
2900,61.0,0.0,40.0,1.0,65.0
2901,31.0,192.0,180.0,6.0,61.0
2902,43.0,0.0,180.0,12.0,53.0
2903,31.0,0.0,180.0,12.0,53.0
2904,43.0,0.0,180.0,5.0,61.0
2905,31.0,0.0,180.0,8.0,64.0
2906,43.0,0.0,180.0,8.0,64.0
2907,65.0,0.0,90.0,0.0,80.0
2908,62.0,48.0,40.0,10.0,57.0
2909,62.0,0.0,40.0,1.0,65.0
2910,61.0,0.0,40.0,1.0,65.0
2911,61.0,96.0,40.0,10.0,57.0
2912,59.0,0.0,90.0,1.0,65.0
2913,64.0,0.0,90.0,0.0,80.0
2914,59.0,0.0,90.0,10.0,57.0
2915,29.0,0.0,180.0,12.0,53.0
2916,57.0,0.0,180.0,1.0,65.0
2917,57.0,0.0,180.0,10.0,57.0
2918,41.0,0.0,180.0,5.0,61.0
2919,62.0,0.0,390.0,4.0,61.0
2920,69.0,0.0,180.0,0.0,80.0
2921,29.0,0.0,180.0,6.0,61.0
2922,65.0,192.0,390.0,3.0,59.0
2923,41.0,192.0,180.0,12.0,53.0
2924,65.0,0.0,390.0,11.0,53.0
2925,41.0,0.0,180.0,8.0,64.0
2926,62.0,0.0,390.0,11.0,53.0
2927,65.0,0.0,390.0,7.0,64.0
2928,29.0,0.0,180.0,8.0,64.0
2929,62.0,0.0,390.0,7.0,64.0
2930,67.0,0.0,180.0,0.0,80.0
2931,27.0,0.0,180.0,12.0,53.0
2932,39.0,0.0,180.0,12.0,53.0
2933,27.0,0.0,180.0,8.0,64.0
2934,39.0,0.0,180.0,8.0,64.0
2935,39.0,0.0,180.0,5.0,61.0
2936,27.0,0.0,180.0,6.0,61.0
2937,26.0,0.0,180.0,8.0,64.0
2938,38.0,0.0,180.0,12.0,53.0
2939,26.0,0.0,180.0,12.0,53.0
2940,38.0,0.0,180.0,5.0,61.0
2941,65.0,0.0,180.0,0.0,80.0
2942,38.0,0.0,180.0,8.0,64.0
2943,26.0,96.0,180.0,6.0,61.0
2944,45.0,0.0,180.0,12.0,53.0
2945,33.0,0.0,180.0,12.0,53.0
2946,33.0,192.0,180.0,8.0,64.0
2947,45.0,0.0,180.0,5.0,61.0
2948,45.0,0.0,180.0,8.0,64.0
2949,33.0,0.0,180.0,6.0,61.0
2950,69.0,96.0,90.0,0.0,80.0
2951,67.0,0.0,90.0,0.0,80.0
2952,33.0,0.0,180.0,6.0,61.0
2953,45.0,0.0,180.0,12.0,53.0
2954,33.0,0.0,180.0,12.0,53.0
2955,45.0,0.0,180.0,8.0,64.0
2956,65.0,192.0,180.0,0.0,80.0
2957,45.0,0.0,180.0,5.0,61.0
2958,33.0,0.0,180.0,8.0,64.0
2959,33.0,0.0,180.0,12.0,53.0
2960,45.0,192.0,180.0,8.0,64.0
2961,33.0,0.0,180.0,8.0,64.0
2962,45.0,0.0,180.0,5.0,61.0
2963,45.0,0.0,180.0,12.0,53.0
2964,64.0,0.0,180.0,0.0,80.0
2965,33.0,0.0,180.0,6.0,61.0
2966,38.0,0.0,180.0,8.0,64.0
2967,50.0,0.0,180.0,5.0,61.0
2968,38.0,0.0,180.0,6.0,61.0
2969,38.0,0.0,180.0,12.0,53.0
2970,50.0,0.0,180.0,12.0,53.0
2971,50.0,192.0,180.0,8.0,64.0
2972,62.0,0.0,570.0,0.0,80.0
2973,38.0,0.0,180.0,5.0,61.0
2974,26.0,0.0,180.0,8.0,64.0
2975,38.0,0.0,180.0,8.0,64.0
2976,26.0,192.0,180.0,6.0,61.0
2977,26.0,0.0,180.0,12.0,53.0
2978,38.0,0.0,180.0,12.0,53.0
2979,41.0,0.0,180.0,8.0,64.0
2980,29.0,192.0,180.0,12.0,53.0
2981,41.0,0.0,180.0,12.0,53.0
2982,29.0,0.0,180.0,6.0,61.0
2983,29.0,0.0,180.0,8.0,64.0
2984,41.0,0.0,180.0,5.0,61.0
2985,45.0,192.0,180.0,5.0,61.0
2986,33.0,0.0,180.0,6.0,61.0
2987,33.0,0.0,180.0,12.0,53.0
2988,45.0,0.0,180.0,8.0,64.0
2989,33.0,0.0,180.0,8.0,64.0
2990,62.0,192.0,390.0,0.0,80.0
2991,45.0,0.0,180.0,12.0,53.0
2992,29.0,0.0,180.0,6.0,61.0
2993,41.0,0.0,180.0,5.0,61.0
2994,29.0,0.0,180.0,12.0,53.0
2995,41.0,0.0,180.0,12.0,53.0
2996,41.0,0.0,180.0,8.0,64.0
2997,29.0,0.0,180.0,8.0,64.0
2998,45.0,0.0,180.0,5.0,61.0
2999,69.0,0.0,180.0,10.0,57.0
3000,45.0,0.0,180.0,8.0,64.0
3001,69.0,0.0,180.0,1.0,65.0
3002,33.0,0.0,180.0,6.0,61.0
3003,33.0,0.0,180.0,12.0,53.0
3004,45.0,0.0,180.0,12.0,53.0
3005,33.0,48.0,180.0,8.0,64.0
3006,65.0,0.0,1530.0,7.0,64.0
3007,62.0,0.0,1530.0,11.0,53.0
3008,62.0,192.0,1530.0,4.0,61.0
3009,50.0,0.0,180.0,8.0,64.0
3010,38.0,0.0,180.0,8.0,64.0
3011,62.0,0.0,1530.0,7.0,64.0
3012,38.0,0.0,180.0,12.0,53.0
3013,50.0,96.0,180.0,5.0,61.0
3014,74.0,0.0,40.0,10.0,57.0
3015,65.0,0.0,1530.0,11.0,53.0
3016,65.0,0.0,1530.0,3.0,59.0
3017,69.0,0.0,1530.0,2.0,61.0
3018,69.0,0.0,1530.0,7.0,64.0
3019,50.0,0.0,180.0,12.0,53.0
3020,38.0,0.0,180.0,6.0,61.0
3021,69.0,0.0,1530.0,11.0,53.0
3022,74.0,48.0,40.0,1.0,65.0
3023,76.0,0.0,40.0,1.0,65.0
3024,76.0,96.0,40.0,10.0,57.0
3025,77.0,0.0,180.0,10.0,57.0
3026,77.0,96.0,180.0,1.0,65.0
3027,50.0,0.0,180.0,12.0,53.0
3028,38.0,0.0,180.0,6.0,61.0
3029,50.0,0.0,180.0,5.0,61.0
3030,38.0,0.0,180.0,12.0,53.0
3031,50.0,0.0,180.0,8.0,64.0
3032,38.0,0.0,180.0,8.0,64.0
3033,76.0,192.0,90.0,10.0,57.0
3034,76.0,0.0,90.0,1.0,65.0
3035,74.0,0.0,180.0,10.0,57.0
3036,50.0,0.0,180.0,12.0,53.0
3037,50.0,0.0,180.0,5.0,61.0
3038,38.0,96.0,180.0,8.0,64.0
3039,50.0,0.0,180.0,8.0,64.0
3040,38.0,0.0,180.0,12.0,53.0
3041,74.0,0.0,180.0,1.0,65.0
3042,38.0,0.0,180.0,6.0,61.0
3043,48.0,96.0,180.0,5.0,61.0
3044,48.0,0.0,180.0,12.0,53.0
3045,36.0,0.0,180.0,6.0,61.0
3046,36.0,0.0,180.0,12.0,53.0
3047,36.0,0.0,180.0,8.0,64.0
3048,48.0,0.0,180.0,8.0,64.0
3049,76.0,96.0,90.0,1.0,65.0
3050,76.0,0.0,90.0,10.0,57.0
3051,74.0,96.0,180.0,10.0,57.0
3052,74.0,0.0,180.0,1.0,65.0
3053,48.0,0.0,180.0,5.0,61.0
3054,36.0,192.0,180.0,12.0,53.0
3055,36.0,0.0,180.0,6.0,61.0
3056,36.0,0.0,180.0,8.0,64.0
3057,48.0,0.0,180.0,12.0,53.0
3058,48.0,0.0,180.0,8.0,64.0
3059,73.0,0.0,90.0,1.0,65.0
3060,73.0,0.0,90.0,10.0,57.0
3061,74.0,0.0,180.0,10.0,57.0
3062,74.0,0.0,180.0,1.0,65.0
3063,36.0,0.0,180.0,6.0,61.0
3064,36.0,0.0,180.0,8.0,64.0
3065,36.0,192.0,180.0,12.0,53.0
3066,48.0,0.0,180.0,12.0,53.0
3067,48.0,0.0,180.0,8.0,64.0
3068,48.0,0.0,180.0,5.0,61.0
3069,34.0,0.0,180.0,6.0,61.0
3070,74.0,0.0,960.0,1.0,65.0
3071,46.0,0.0,180.0,12.0,53.0
3072,46.0,192.0,180.0,5.0,61.0
3073,34.0,0.0,180.0,12.0,53.0
3074,34.0,0.0,180.0,8.0,64.0
3075,46.0,0.0,180.0,8.0,64.0
3076,74.0,0.0,960.0,10.0,57.0
3077,34.0,0.0,180.0,12.0,53.0
3078,46.0,0.0,180.0,8.0,64.0
3079,46.0,0.0,180.0,12.0,53.0
3080,34.0,0.0,180.0,6.0,61.0
3081,34.0,0.0,180.0,8.0,64.0
3082,46.0,0.0,180.0,5.0,61.0
3083,46.0,0.0,180.0,8.0,64.0
3084,34.0,0.0,180.0,8.0,64.0
3085,67.0,0.0,180.0,2.0,61.0
3086,67.0,0.0,180.0,3.0,59.0
3087,55.0,0.0,180.0,4.0,61.0
3088,34.0,0.0,180.0,6.0,61.0
3089,55.0,0.0,180.0,7.0,64.0
3090,67.0,0.0,180.0,11.0,53.0
3091,55.0,0.0,180.0,11.0,53.0
3092,67.0,0.0,180.0,7.0,64.0
3093,46.0,0.0,180.0,5.0,61.0
3094,34.0,0.0,180.0,12.0,53.0
3095,46.0,0.0,180.0,12.0,53.0
3096,72.0,0.0,180.0,11.0,53.0
3097,57.0,0.0,570.0,11.0,53.0
3098,33.0,0.0,180.0,8.0,64.0
3099,57.0,0.0,570.0,4.0,61.0
3100,67.0,0.0,390.0,11.0,53.0
3101,45.0,0.0,180.0,12.0,53.0
3102,33.0,0.0,180.0,6.0,61.0
3103,33.0,0.0,180.0,12.0,53.0
3104,72.0,192.0,180.0,3.0,59.0
3105,45.0,0.0,180.0,5.0,61.0
3106,57.0,0.0,570.0,7.0,64.0
3107,72.0,0.0,180.0,7.0,64.0
3108,67.0,0.0,390.0,7.0,64.0
3109,67.0,0.0,390.0,2.0,61.0
3110,45.0,0.0,180.0,8.0,64.0
3111,45.0,0.0,180.0,12.0,53.0
3112,33.0,0.0,180.0,12.0,53.0
3113,45.0,0.0,180.0,5.0,61.0
3114,70.0,0.0,180.0,7.0,64.0
3115,70.0,0.0,180.0,3.0,59.0
3116,33.0,192.0,180.0,6.0,61.0
3117,33.0,0.0,180.0,8.0,64.0
3118,45.0,0.0,180.0,8.0,64.0
3119,70.0,0.0,180.0,11.0,53.0
3120,45.0,0.0,180.0,5.0,61.0
3121,74.0,0.0,180.0,1.0,65.0
3122,45.0,0.0,180.0,8.0,64.0
3123,33.0,0.0,180.0,6.0,61.0
3124,33.0,0.0,180.0,8.0,64.0
3125,33.0,0.0,180.0,12.0,53.0
3126,74.0,0.0,180.0,10.0,57.0
3127,66.0,0.0,180.0,11.0,53.0
3128,66.0,0.0,180.0,2.0,61.0
3129,45.0,0.0,180.0,12.0,53.0
3130,66.0,0.0,180.0,7.0,64.0
3131,69.0,192.0,180.0,7.0,64.0
3132,69.0,0.0,180.0,11.0,53.0
3133,69.0,0.0,180.0,3.0,59.0
3134,62.0,0.0,570.0,11.0,53.0
3135,43.0,96.0,180.0,8.0,64.0
3136,31.0,0.0,180.0,8.0,64.0
3137,82.0,48.0,270.0,1.0,65.0
3138,67.0,0.0,570.0,7.0,64.0
3139,70.0,0.0,570.0,7.0,64.0
3140,31.0,0.0,180.0,12.0,53.0
3141,62.0,0.0,570.0,7.0,64.0
3142,43.0,0.0,180.0,12.0,53.0
3143,70.0,0.0,570.0,3.0,59.0
3144,82.0,0.0,270.0,10.0,57.0
3145,70.0,0.0,570.0,11.0,53.0
3146,67.0,0.0,570.0,11.0,53.0
3147,67.0,192.0,570.0,2.0,61.0
3148,31.0,0.0,180.0,6.0,61.0
3149,43.0,0.0,180.0,5.0,61.0
3150,62.0,0.0,570.0,4.0,61.0
3151,43.0,0.0,180.0,5.0,61.0
3152,43.0,0.0,180.0,12.0,53.0
3153,31.0,192.0,180.0,6.0,61.0
3154,43.0,0.0,180.0,8.0,64.0
3155,31.0,0.0,180.0,12.0,53.0
3156,31.0,0.0,180.0,8.0,64.0
3157,81.0,48.0,40.0,1.0,65.0
3158,81.0,0.0,40.0,10.0,57.0
3159,82.0,0.0,40.0,10.0,57.0
3160,82.0,0.0,40.0,1.0,65.0
3161,43.0,0.0,180.0,8.0,64.0
3162,84.0,0.0,480.0,1.0,65.0
3163,43.0,0.0,180.0,5.0,61.0
3164,31.0,0.0,180.0,8.0,64.0
3165,43.0,0.0,180.0,12.0,53.0
3166,31.0,0.0,180.0,12.0,53.0
3167,31.0,0.0,180.0,6.0,61.0
3168,84.0,96.0,480.0,10.0,57.0
3169,45.0,0.0,180.0,12.0,53.0
3170,45.0,0.0,180.0,5.0,61.0
3171,60.0,0.0,570.0,4.0,61.0
3172,66.0,0.0,570.0,3.0,59.0
3173,63.0,0.0,960.0,11.0,53.0
3174,66.0,0.0,570.0,11.0,53.0
3175,60.0,0.0,570.0,11.0,53.0
3176,33.0,96.0,180.0,8.0,64.0
3177,33.0,0.0,180.0,12.0,53.0
3178,63.0,0.0,960.0,2.0,61.0
3179,33.0,0.0,180.0,6.0,61.0
3180,63.0,192.0,960.0,7.0,64.0
3181,66.0,0.0,570.0,7.0,64.0
3182,45.0,0.0,180.0,8.0,64.0
3183,60.0,0.0,570.0,7.0,64.0
3184,45.0,0.0,180.0,5.0,61.0
3185,33.0,0.0,180.0,8.0,64.0
3186,45.0,192.0,180.0,8.0,64.0
3187,33.0,0.0,180.0,6.0,61.0
3188,33.0,0.0,180.0,12.0,53.0
3189,45.0,0.0,180.0,12.0,53.0
3190,82.0,0.0,90.0,1.0,65.0
3191,82.0,0.0,90.0,10.0,57.0
3192,81.0,0.0,180.0,10.0,57.0
3193,81.0,0.0,180.0,1.0,65.0
3194,33.0,0.0,180.0,6.0,61.0
3195,45.0,0.0,180.0,5.0,61.0
3196,33.0,96.0,180.0,12.0,53.0
3197,45.0,0.0,180.0,12.0,53.0
3198,33.0,0.0,180.0,8.0,64.0
3199,45.0,0.0,180.0,8.0,64.0
3200,58.0,0.0,2880.0,7.0,64.0
3201,58.0,0.0,2880.0,4.0,61.0
3202,46.0,0.0,180.0,12.0,53.0
3203,34.0,0.0,180.0,12.0,53.0
3204,58.0,0.0,2880.0,11.0,53.0
3205,67.0,0.0,3450.0,3.0,59.0
3206,34.0,0.0,180.0,8.0,64.0
3207,46.0,192.0,180.0,8.0,64.0
3208,81.0,96.0,90.0,10.0,57.0
3209,81.0,0.0,90.0,1.0,65.0
3210,34.0,0.0,180.0,6.0,61.0
3211,46.0,0.0,180.0,5.0,61.0
3212,79.0,96.0,750.0,1.0,65.0
3213,79.0,0.0,750.0,10.0,57.0
3214,43.0,0.0,180.0,8.0,64.0
3215,31.0,0.0,180.0,6.0,61.0
3216,31.0,0.0,180.0,8.0,64.0
3217,43.0,0.0,180.0,5.0,61.0
3218,43.0,0.0,180.0,12.0,53.0
3219,31.0,0.0,180.0,12.0,53.0
3220,34.0,0.0,180.0,12.0,53.0
3221,62.0,0.0,180.0,2.0,61.0
3222,46.0,0.0,180.0,5.0,61.0
3223,34.0,0.0,180.0,8.0,64.0
3224,62.0,0.0,180.0,11.0,53.0
3225,46.0,192.0,180.0,8.0,64.0
3226,46.0,0.0,180.0,12.0,53.0
3227,34.0,0.0,180.0,6.0,61.0
3228,62.0,0.0,180.0,7.0,64.0
3229,38.0,0.0,180.0,8.0,64.0
3230,67.0,0.0,390.0,2.0,61.0
3231,67.0,0.0,390.0,7.0,64.0
3232,50.0,0.0,180.0,5.0,61.0
3233,38.0,0.0,180.0,6.0,61.0
3234,67.0,0.0,390.0,11.0,53.0
3235,50.0,0.0,180.0,12.0,53.0
3236,38.0,0.0,180.0,12.0,53.0
3237,50.0,96.0,180.0,8.0,64.0
3238,34.0,0.0,180.0,8.0,64.0
3239,46.0,0.0,180.0,8.0,64.0
3240,46.0,192.0,180.0,5.0,61.0
3241,34.0,0.0,180.0,12.0,53.0
3242,34.0,0.0,180.0,6.0,61.0
3243,46.0,0.0,180.0,12.0,53.0
3244,82.0,0.0,90.0,1.0,65.0
3245,82.0,0.0,90.0,10.0,57.0
3246,50.0,0.0,180.0,5.0,61.0
3247,50.0,0.0,180.0,12.0,53.0
3248,38.0,0.0,180.0,12.0,53.0
3249,38.0,0.0,180.0,6.0,61.0
3250,38.0,0.0,180.0,8.0,64.0
3251,50.0,0.0,180.0,8.0,64.0
3252,70.0,0.0,180.0,11.0,53.0
3253,79.0,0.0,180.0,10.0,57.0
3254,79.0,96.0,180.0,1.0,65.0
3255,70.0,0.0,180.0,7.0,64.0
3256,70.0,0.0,180.0,2.0,61.0
3257,75.0,0.0,570.0,2.0,61.0
3258,75.0,96.0,570.0,11.0,53.0
3259,75.0,0.0,570.0,7.0,64.0
3260,43.0,0.0,180.0,6.0,61.0
3261,55.0,0.0,180.0,5.0,61.0
3262,77.0,0.0,90.0,1.0,65.0
3263,77.0,96.0,90.0,10.0,57.0
3264,55.0,0.0,180.0,8.0,64.0
3265,55.0,96.0,180.0,12.0,53.0
3266,43.0,0.0,180.0,12.0,53.0
3267,43.0,0.0,180.0,8.0,64.0
3268,75.0,0.0,180.0,1.0,65.0
3269,75.0,96.0,180.0,10.0,57.0
3270,43.0,0.0,180.0,12.0,53.0
3271,43.0,0.0,180.0,8.0,64.0
3272,55.0,0.0,180.0,8.0,64.0
3273,55.0,0.0,180.0,12.0,53.0
3274,43.0,192.0,180.0,6.0,61.0
3275,55.0,0.0,180.0,5.0,61.0
3276,82.0,0.0,90.0,10.0,57.0
3277,82.0,0.0,90.0,1.0,65.0
3278,55.0,0.0,180.0,8.0,64.0
3279,43.0,0.0,180.0,8.0,64.0
3280,79.0,0.0,180.0,10.0,57.0
3281,43.0,0.0,180.0,6.0,61.0
3282,43.0,0.0,180.0,12.0,53.0
3283,55.0,0.0,180.0,12.0,53.0
3284,79.0,0.0,180.0,1.0,65.0
3285,55.0,0.0,180.0,5.0,61.0
3286,53.0,0.0,180.0,12.0,53.0
3287,41.0,0.0,180.0,8.0,64.0
3288,53.0,0.0,180.0,8.0,64.0
3289,53.0,0.0,180.0,5.0,61.0
3290,74.0,0.0,570.0,2.0,61.0
3291,74.0,0.0,570.0,11.0,53.0
3292,75.0,96.0,90.0,10.0,57.0
3293,74.0,0.0,570.0,7.0,64.0
3294,41.0,96.0,180.0,6.0,61.0
3295,75.0,0.0,90.0,1.0,65.0
3296,41.0,0.0,180.0,12.0,53.0
3297,74.0,0.0,180.0,1.0,65.0
3298,74.0,96.0,180.0,10.0,57.0
3299,53.0,0.0,180.0,12.0,53.0
3300,41.0,0.0,180.0,6.0,61.0
3301,53.0,0.0,180.0,5.0,61.0
3302,41.0,0.0,180.0,12.0,53.0
3303,53.0,0.0,180.0,8.0,64.0
3304,41.0,192.0,180.0,8.0,64.0
3305,82.0,0.0,90.0,1.0,65.0
3306,82.0,0.0,90.0,10.0,57.0
3307,79.0,0.0,180.0,10.0,57.0
3308,53.0,0.0,180.0,12.0,53.0
3309,41.0,0.0,180.0,8.0,64.0
3310,79.0,96.0,180.0,1.0,65.0
3311,53.0,0.0,180.0,8.0,64.0
3312,41.0,0.0,180.0,12.0,53.0
3313,41.0,0.0,180.0,6.0,61.0
3314,53.0,0.0,180.0,5.0,61.0
3315,40.0,0.0,180.0,6.0,61.0
3316,74.0,0.0,90.0,1.0,65.0
3317,52.0,0.0,180.0,5.0,61.0
3318,40.0,0.0,180.0,12.0,53.0
3319,52.0,0.0,180.0,12.0,53.0
3320,73.0,0.0,570.0,11.0,53.0
3321,74.0,96.0,90.0,10.0,57.0
3322,73.0,0.0,570.0,7.0,64.0
3323,73.0,0.0,570.0,2.0,61.0
3324,52.0,0.0,180.0,8.0,64.0
3325,40.0,96.0,180.0,8.0,64.0
3326,73.0,48.0,180.0,1.0,65.0
3327,73.0,0.0,180.0,10.0,57.0
3328,52.0,192.0,180.0,8.0,64.0
3329,52.0,0.0,180.0,12.0,53.0
3330,40.0,0.0,180.0,12.0,53.0
3331,52.0,0.0,180.0,5.0,61.0
3332,40.0,0.0,180.0,6.0,61.0
3333,40.0,0.0,180.0,8.0,64.0
3334,76.0,0.0,40.0,10.0,57.0
3335,76.0,48.0,40.0,1.0,65.0
3336,77.0,0.0,40.0,10.0,57.0
3337,77.0,0.0,40.0,1.0,65.0
3338,40.0,96.0,180.0,8.0,64.0
3339,52.0,0.0,180.0,5.0,61.0
3340,40.0,0.0,180.0,12.0,53.0
3341,79.0,0.0,180.0,10.0,57.0
3342,40.0,0.0,180.0,6.0,61.0
3343,52.0,0.0,180.0,8.0,64.0
3344,52.0,0.0,180.0,12.0,53.0
3345,79.0,0.0,180.0,1.0,65.0
3346,49.0,0.0,180.0,8.0,64.0
3347,52.0,0.0,570.0,4.0,61.0
3348,76.0,0.0,780.0,7.0,64.0
3349,52.0,0.0,570.0,7.0,64.0
3350,37.0,0.0,180.0,8.0,64.0
3351,52.0,192.0,570.0,11.0,53.0
3352,76.0,0.0,780.0,11.0,53.0
3353,69.0,0.0,90.0,10.0,57.0
3354,37.0,0.0,180.0,12.0,53.0
3355,49.0,96.0,180.0,12.0,53.0
3356,49.0,0.0,180.0,5.0,61.0
3357,69.0,96.0,90.0,1.0,65.0
3358,37.0,0.0,180.0,6.0,61.0
3359,76.0,96.0,780.0,2.0,61.0
3360,70.0,0.0,180.0,10.0,57.0
3361,70.0,96.0,180.0,1.0,65.0
3362,37.0,0.0,180.0,6.0,61.0
3363,37.0,0.0,180.0,8.0,64.0
3364,49.0,0.0,180.0,12.0,53.0
3365,49.0,0.0,180.0,8.0,64.0
3366,49.0,0.0,180.0,5.0,61.0
3367,37.0,0.0,180.0,12.0,53.0
3368,69.0,0.0,90.0,10.0,57.0
3369,69.0,192.0,90.0,1.0,65.0
3370,37.0,0.0,180.0,6.0,61.0
3371,67.0,0.0,180.0,1.0,65.0
3372,67.0,0.0,180.0,10.0,57.0
3373,37.0,0.0,180.0,12.0,53.0
3374,49.0,0.0,180.0,12.0,53.0
3375,49.0,0.0,180.0,8.0,64.0
3376,49.0,0.0,180.0,5.0,61.0
3377,37.0,0.0,180.0,8.0,64.0
3378,65.0,0.0,180.0,11.0,53.0
3379,57.0,0.0,180.0,11.0,53.0
3380,53.0,0.0,180.0,8.0,64.0
3381,41.0,0.0,180.0,8.0,64.0
3382,65.0,0.0,180.0,3.0,59.0
3383,69.0,0.0,300.0,10.0,57.0
3384,41.0,0.0,180.0,12.0,53.0
3385,57.0,0.0,180.0,7.0,64.0
3386,53.0,0.0,180.0,12.0,53.0
3387,53.0,0.0,180.0,5.0,61.0
3388,41.0,0.0,180.0,6.0,61.0
3389,65.0,0.0,180.0,7.0,64.0
3390,69.0,48.0,300.0,1.0,65.0
3391,57.0,2.0,180.0,4.0,61.0
3392,67.0,0.0,180.0,3.0,59.0
3393,40.0,0.0,180.0,8.0,64.0
3394,52.0,0.0,180.0,8.0,64.0
3395,40.0,0.0,180.0,6.0,61.0
3396,52.0,0.0,180.0,5.0,61.0
3397,40.0,0.0,180.0,12.0,53.0
3398,52.0,0.0,180.0,12.0,53.0
3399,73.0,0.0,180.0,2.0,61.0
3400,64.0,2.0,180.0,4.0,61.0
3401,67.0,0.0,180.0,11.0,53.0
3402,64.0,0.0,180.0,11.0,53.0
3403,64.0,0.0,180.0,7.0,64.0
3404,73.0,0.0,180.0,11.0,53.0
3405,67.0,0.0,180.0,7.0,64.0
3406,73.0,0.0,180.0,7.0,64.0
3407,71.0,46.0,40.0,1.0,65.0
3408,71.0,0.0,40.0,10.0,57.0
3409,73.0,0.0,40.0,1.0,65.0
3410,73.0,48.0,40.0,10.0,57.0
3411,74.0,0.0,180.0,2.0,61.0
3412,50.0,0.0,180.0,5.0,61.0
3413,74.0,0.0,40.0,1.0,65.0
3414,65.0,2.0,180.0,7.0,64.0
3415,69.0,0.0,390.0,7.0,64.0
3416,74.0,0.0,180.0,7.0,64.0
3417,74.0,0.0,180.0,11.0,53.0
3418,69.0,0.0,390.0,11.0,53.0
3419,65.0,0.0,180.0,11.0,53.0
3420,50.0,0.0,180.0,8.0,64.0
3421,38.0,48.0,180.0,8.0,64.0
3422,69.0,0.0,390.0,3.0,59.0
3423,65.0,0.0,180.0,4.0,61.0
3424,74.0,48.0,40.0,10.0,57.0
3425,50.0,0.0,180.0,12.0,53.0
3426,38.0,0.0,180.0,12.0,53.0
3427,38.0,0.0,180.0,6.0,61.0
3428,76.0,48.0,40.0,1.0,65.0
3429,76.0,0.0,40.0,10.0,57.0
3430,77.0,0.0,40.0,10.0,57.0
3431,77.0,46.0,40.0,1.0,65.0
3432,76.0,0.0,40.0,10.0,57.0
3433,76.0,0.0,40.0,1.0,65.0
3434,45.0,0.0,180.0,8.0,64.0
3435,64.0,0.0,120.0,7.0,64.0
3436,76.0,0.0,40.0,7.0,64.0
3437,64.0,0.0,120.0,11.0,53.0
3438,57.0,0.0,180.0,8.0,64.0
3439,76.0,48.0,40.0,11.0,53.0
3440,57.0,0.0,180.0,12.0,53.0
3441,57.0,0.0,180.0,5.0,61.0
3442,79.0,0.0,120.0,1.0,65.0
3443,45.0,0.0,180.0,6.0,61.0
3444,79.0,62.0,120.0,10.0,57.0
3445,76.0,0.0,40.0,2.0,61.0
3446,45.0,130.0,180.0,12.0,53.0
3447,64.0,0.0,120.0,4.0,61.0
3448,77.0,0.0,40.0,7.0,64.0
3449,77.0,0.0,40.0,2.0,61.0
3450,77.0,34.0,40.0,11.0,53.0
3451,79.0,0.0,90.0,7.0,64.0
3452,79.0,0.0,90.0,11.0,53.0
3453,79.0,0.0,90.0,2.0,61.0
3454,45.0,0.0,180.0,6.0,61.0
3455,57.0,0.0,180.0,5.0,61.0
3456,77.0,0.0,120.0,1.0,65.0
3457,65.0,0.0,120.0,7.0,64.0
3458,77.0,0.0,120.0,2.0,61.0
3459,74.0,0.0,120.0,7.0,64.0
3460,74.0,62.0,120.0,3.0,59.0
3461,77.0,0.0,120.0,7.0,64.0
3462,45.0,0.0,180.0,8.0,64.0
3463,57.0,46.0,180.0,8.0,64.0
3464,45.0,0.0,180.0,12.0,53.0
3465,65.0,0.0,120.0,11.0,53.0
3466,77.0,0.0,120.0,10.0,57.0
3467,77.0,0.0,120.0,11.0,53.0
3468,65.0,0.0,120.0,4.0,61.0
3469,57.0,0.0,180.0,12.0,53.0
3470,74.0,0.0,120.0,11.0,53.0
3471,77.0,0.0,40.0,1.0,65.0
3472,67.0,0.0,120.0,11.0,53.0
3473,73.0,0.0,120.0,11.0,53.0
3474,76.0,0.0,120.0,7.0,64.0
3475,33.0,192.0,180.0,12.0,53.0
3476,45.0,0.0,180.0,12.0,53.0
3477,73.0,12.0,120.0,7.0,64.0
3478,76.0,0.0,120.0,11.0,53.0
3479,33.0,0.0,180.0,6.0,61.0
3480,77.0,24.0,40.0,10.0,57.0
3481,76.0,0.0,120.0,2.0,61.0
3482,33.0,0.0,180.0,8.0,64.0
3483,45.0,0.0,180.0,8.0,64.0
3484,45.0,0.0,180.0,5.0,61.0
3485,67.0,0.0,120.0,4.0,61.0
3486,73.0,0.0,120.0,3.0,59.0
3487,67.0,0.0,120.0,7.0,64.0
3488,76.0,0.0,20.0,1.0,65.0
3489,76.0,24.0,20.0,10.0,57.0
3490,77.0,0.0,20.0,10.0,57.0
3491,77.0,24.0,20.0,1.0,65.0
3492,76.0,0.0,20.0,1.0,65.0
3493,76.0,12.0,20.0,10.0,57.0
3494,77.0,48.0,20.0,1.0,65.0
3495,77.0,0.0,20.0,10.0,57.0
3496,76.0,0.0,40.0,10.0,57.0
3497,76.0,2.0,40.0,1.0,65.0
3498,69.0,0.0,960.0,11.0,53.0
3499,50.0,0.0,180.0,5.0,61.0
3500,74.0,0.0,960.0,10.0,57.0
3501,38.0,0.0,180.0,6.0,61.0
3502,74.0,0.0,960.0,2.0,61.0
3503,69.0,0.0,960.0,3.0,59.0
3504,65.0,0.0,960.0,7.0,64.0
3505,69.0,0.0,960.0,7.0,64.0
3506,74.0,0.0,960.0,7.0,64.0
3507,38.0,0.0,180.0,8.0,64.0
3508,50.0,0.0,180.0,8.0,64.0
3509,65.0,0.0,960.0,4.0,61.0
3510,74.0,2.0,960.0,1.0,65.0
3511,74.0,0.0,960.0,11.0,53.0
3512,65.0,0.0,960.0,11.0,53.0
3513,38.0,0.0,180.0,12.0,53.0
3514,50.0,192.0,180.0,12.0,53.0
3515,53.0,0.0,180.0,12.0,53.0
3516,41.0,0.0,180.0,12.0,53.0
3517,53.0,192.0,180.0,8.0,64.0
3518,41.0,0.0,180.0,6.0,61.0
3519,53.0,0.0,180.0,5.0,61.0
3520,41.0,0.0,180.0,8.0,64.0
3521,33.0,0.0,180.0,8.0,64.0
3522,45.0,0.0,180.0,8.0,64.0
3523,33.0,192.0,180.0,6.0,61.0
3524,45.0,0.0,180.0,5.0,61.0
3525,33.0,0.0,180.0,12.0,53.0
3526,45.0,0.0,180.0,12.0,53.0
3527,50.0,0.0,180.0,8.0,64.0
3528,38.0,0.0,180.0,8.0,64.0
3529,50.0,96.0,180.0,5.0,61.0
3530,50.0,0.0,180.0,12.0,53.0
3531,38.0,0.0,180.0,12.0,53.0
3532,38.0,0.0,180.0,6.0,61.0
3533,69.0,94.0,300.0,0.0,80.0
3534,41.0,0.0,180.0,8.0,64.0
3535,29.0,0.0,180.0,8.0,64.0
3536,29.0,0.0,180.0,6.0,61.0
3537,41.0,0.0,180.0,5.0,61.0
3538,41.0,0.0,180.0,12.0,53.0
3539,29.0,0.0,180.0,12.0,53.0
3540,67.0,96.0,90.0,0.0,80.0
3541,33.0,0.0,180.0,6.0,61.0
3542,45.0,0.0,180.0,8.0,64.0
3543,45.0,0.0,180.0,12.0,53.0
3544,33.0,0.0,180.0,12.0,53.0
3545,45.0,190.0,180.0,5.0,61.0
3546,33.0,0.0,180.0,8.0,64.0
3547,65.0,96.0,90.0,0.0,80.0
3548,64.0,0.0,90.0,0.0,80.0
3549,38.0,0.0,390.0,12.0,53.0
3550,26.0,0.0,390.0,6.0,61.0
3551,62.0,0.0,180.0,4.0,61.0
3552,62.0,2.0,180.0,11.0,53.0
3553,65.0,190.0,180.0,3.0,59.0
3554,65.0,0.0,180.0,11.0,53.0
3555,26.0,0.0,390.0,12.0,53.0
3556,65.0,48.0,1440.0,0.0,80.0
3557,38.0,190.0,390.0,5.0,61.0
3558,65.0,0.0,180.0,7.0,64.0
3559,38.0,0.0,390.0,8.0,64.0
3560,62.0,0.0,180.0,7.0,64.0
3561,26.0,0.0,390.0,8.0,64.0
3562,67.0,0.0,180.0,11.0,53.0
3563,67.0,0.0,180.0,3.0,59.0
3564,64.0,0.0,180.0,4.0,61.0
3565,64.0,2.0,180.0,7.0,64.0
3566,67.0,0.0,180.0,7.0,64.0
3567,64.0,0.0,180.0,11.0,53.0
3568,80.0,0.0,90.0,10.0,57.0
3569,80.0,0.0,90.0,1.0,65.0
3570,68.0,0.0,180.0,11.0,53.0
3571,65.0,0.0,180.0,11.0,53.0
3572,77.0,0.0,180.0,10.0,57.0
3573,68.0,0.0,180.0,3.0,59.0
3574,65.0,0.0,180.0,7.0,64.0
3575,68.0,0.0,180.0,7.0,64.0
3576,65.0,2.0,180.0,4.0,61.0
3577,77.0,96.0,180.0,1.0,65.0
3578,74.0,94.0,90.0,10.0,57.0
3579,68.0,0.0,180.0,3.0,59.0
3580,68.0,0.0,180.0,7.0,64.0
3581,65.0,0.0,180.0,4.0,61.0
3582,74.0,0.0,90.0,1.0,65.0
3583,68.0,96.0,180.0,11.0,53.0
3584,65.0,2.0,180.0,11.0,53.0
3585,65.0,0.0,180.0,7.0,64.0
3586,72.0,94.0,180.0,1.0,65.0
3587,72.0,0.0,180.0,10.0,57.0
3588,67.0,190.0,180.0,11.0,53.0
3589,63.0,2.0,180.0,7.0,64.0
3590,67.0,0.0,180.0,7.0,64.0
3591,63.0,0.0,180.0,4.0,61.0
3592,63.0,0.0,180.0,11.0,53.0
3593,67.0,0.0,180.0,3.0,59.0
3594,80.0,0.0,90.0,10.0,57.0
3595,80.0,0.0,90.0,1.0,65.0
3596,65.0,0.0,180.0,7.0,64.0
3597,77.0,96.0,180.0,10.0,57.0
3598,68.0,0.0,180.0,7.0,64.0
3599,65.0,2.0,180.0,4.0,61.0
3600,77.0,0.0,180.0,1.0,65.0
3601,68.0,0.0,180.0,11.0,53.0
3602,68.0,0.0,180.0,3.0,59.0
3603,65.0,0.0,180.0,11.0,53.0
3604,67.0,96.0,180.0,7.0,64.0
3605,67.0,0.0,180.0,3.0,59.0
3606,62.0,2.0,180.0,4.0,61.0
3607,62.0,0.0,180.0,7.0,64.0
3608,31.0,0.0,180.0,8.0,64.0
3609,72.0,94.0,90.0,10.0,57.0
3610,31.0,0.0,180.0,6.0,61.0
3611,62.0,0.0,180.0,11.0,53.0
3612,67.0,0.0,180.0,11.0,53.0
3613,31.0,0.0,180.0,12.0,53.0
3614,43.0,0.0,180.0,12.0,53.0
3615,43.0,0.0,180.0,5.0,61.0
3616,43.0,0.0,180.0,8.0,64.0
3617,72.0,0.0,90.0,1.0,65.0
3618,71.0,0.0,90.0,10.0,57.0
3619,71.0,0.0,90.0,1.0,65.0
3620,31.0,0.0,180.0,6.0,61.0
3621,69.0,0.0,180.0,7.0,64.0
3622,69.0,0.0,180.0,11.0,53.0
3623,60.0,0.0,180.0,11.0,53.0
3624,31.0,0.0,180.0,8.0,64.0
3625,43.0,0.0,180.0,12.0,53.0
3626,31.0,0.0,180.0,12.0,53.0
3627,43.0,0.0,180.0,8.0,64.0
3628,43.0,190.0,180.0,5.0,61.0
3629,60.0,0.0,180.0,7.0,64.0
3630,69.0,0.0,180.0,3.0,59.0
3631,60.0,2.0,180.0,4.0,61.0
3632,74.0,0.0,40.0,2.0,61.0
3633,74.0,46.0,40.0,7.0,64.0
3634,65.0,0.0,40.0,0.0,80.0
3635,74.0,0.0,40.0,11.0,53.0
3636,67.0,0.0,40.0,0.0,80.0
3637,75.0,0.0,40.0,11.0,53.0
3638,75.0,0.0,40.0,2.0,61.0
3639,75.0,0.0,40.0,7.0,64.0
3640,77.0,0.0,480.0,11.0,53.0
3641,43.0,0.0,180.0,12.0,53.0
3642,62.0,0.0,180.0,7.0,64.0
3643,71.0,0.0,180.0,7.0,64.0
3644,77.0,94.0,480.0,7.0,64.0
3645,62.0,0.0,180.0,11.0,53.0
3646,71.0,0.0,180.0,11.0,53.0
3647,31.0,192.0,180.0,6.0,61.0
3648,43.0,0.0,180.0,5.0,61.0
3649,62.0,2.0,180.0,4.0,61.0
3650,68.0,0.0,480.0,0.0,80.0
3651,71.0,0.0,180.0,3.0,59.0
3652,43.0,0.0,180.0,8.0,64.0
3653,31.0,0.0,180.0,8.0,64.0
3654,77.0,0.0,480.0,2.0,61.0
3655,31.0,0.0,180.0,12.0,53.0
3656,62.0,0.0,390.0,11.0,53.0
3657,31.0,0.0,180.0,6.0,61.0
3658,31.0,0.0,180.0,12.0,53.0
3659,43.0,96.0,180.0,12.0,53.0
3660,71.0,0.0,390.0,7.0,64.0
3661,62.0,2.0,390.0,4.0,61.0
3662,43.0,0.0,180.0,8.0,64.0
3663,31.0,0.0,180.0,8.0,64.0
3664,43.0,0.0,180.0,5.0,61.0
3665,62.0,0.0,390.0,7.0,64.0
3666,71.0,0.0,390.0,11.0,53.0
3667,71.0,0.0,390.0,3.0,59.0
3668,43.0,0.0,180.0,5.0,61.0
3669,43.0,0.0,180.0,8.0,64.0
3670,31.0,0.0,180.0,6.0,61.0
3671,31.0,0.0,180.0,12.0,53.0
3672,43.0,0.0,180.0,12.0,53.0
3673,31.0,0.0,180.0,8.0,64.0
3674,75.0,0.0,90.0,11.0,53.0
3675,67.0,0.0,90.0,0.0,80.0
3676,75.0,0.0,90.0,7.0,64.0
3677,75.0,192.0,90.0,2.0,61.0
3678,74.0,0.0,180.0,2.0,61.0
3679,65.0,0.0,180.0,0.0,80.0
3680,74.0,0.0,180.0,7.0,64.0
3681,43.0,0.0,180.0,5.0,61.0
3682,31.0,190.0,180.0,6.0,61.0
3683,43.0,0.0,180.0,8.0,64.0
3684,74.0,0.0,180.0,11.0,53.0
3685,31.0,0.0,180.0,8.0,64.0
3686,43.0,0.0,180.0,12.0,53.0
3687,31.0,0.0,180.0,12.0,53.0
3688,24.0,0.0,390.0,8.0,64.0
3689,72.0,0.0,1350.0,11.0,53.0
3690,36.0,0.0,390.0,12.0,53.0
3691,60.0,0.0,180.0,11.0,53.0
3692,55.0,0.0,180.0,11.0,53.0
3693,60.0,0.0,180.0,3.0,59.0
3694,72.0,190.0,1350.0,2.0,61.0
3695,36.0,0.0,390.0,8.0,64.0
3696,24.0,0.0,390.0,12.0,53.0
3697,36.0,0.0,390.0,5.0,61.0
3698,24.0,0.0,390.0,6.0,61.0
3699,55.0,2.0,180.0,7.0,64.0
3700,60.0,190.0,180.0,7.0,64.0
3701,72.0,0.0,1350.0,7.0,64.0
3702,55.0,0.0,180.0,4.0,61.0
3703,63.0,0.0,1350.0,0.0,80.0
3704,62.0,0.0,180.0,3.0,59.0
3705,59.0,2.0,180.0,7.0,64.0
3706,59.0,0.0,180.0,4.0,61.0
3707,62.0,0.0,180.0,7.0,64.0
3708,59.0,0.0,180.0,11.0,53.0
3709,62.0,190.0,180.0,11.0,53.0
3710,75.0,0.0,90.0,10.0,57.0
3711,75.0,0.0,90.0,1.0,65.0
3712,63.0,96.0,180.0,7.0,64.0
3713,72.0,0.0,180.0,1.0,65.0
3714,63.0,0.0,180.0,3.0,59.0
3715,72.0,0.0,180.0,10.0,57.0
3716,60.0,0.0,180.0,11.0,53.0
3717,63.0,0.0,180.0,11.0,53.0
3718,60.0,2.0,180.0,7.0,64.0
3719,60.0,0.0,180.0,4.0,61.0
3720,63.0,96.0,180.0,7.0,64.0
3721,60.0,2.0,180.0,7.0,64.0
3722,70.0,0.0,90.0,10.0,57.0
3723,63.0,0.0,180.0,3.0,59.0
3724,60.0,0.0,180.0,11.0,53.0
3725,63.0,0.0,180.0,11.0,53.0
3726,60.0,0.0,180.0,4.0,61.0
3727,70.0,94.0,90.0,1.0,65.0
3728,68.0,94.0,180.0,10.0,57.0
3729,68.0,0.0,180.0,1.0,65.0
3730,62.0,0.0,180.0,3.0,59.0
3731,62.0,190.0,180.0,7.0,64.0
3732,59.0,0.0,180.0,7.0,64.0
3733,59.0,2.0,180.0,4.0,61.0
3734,59.0,0.0,180.0,11.0,53.0
3735,62.0,0.0,180.0,11.0,53.0
3736,75.0,0.0,90.0,1.0,65.0
3737,75.0,0.0,90.0,10.0,57.0
3738,63.0,96.0,180.0,3.0,59.0
3739,72.0,0.0,180.0,1.0,65.0
3740,60.0,0.0,180.0,11.0,53.0
3741,63.0,0.0,180.0,11.0,53.0
3742,72.0,0.0,180.0,10.0,57.0
3743,60.0,2.0,180.0,7.0,64.0
3744,60.0,0.0,180.0,4.0,61.0
3745,63.0,0.0,180.0,7.0,64.0
3746,57.0,0.0,390.0,11.0,53.0
3747,50.0,0.0,180.0,11.0,53.0
3748,26.0,0.0,180.0,6.0,61.0
3749,38.0,0.0,180.0,12.0,53.0
3750,50.0,2.0,180.0,4.0,61.0
3751,26.0,0.0,180.0,8.0,64.0
3752,67.0,0.0,90.0,1.0,65.0
3753,26.0,0.0,180.0,12.0,53.0
3754,57.0,190.0,390.0,3.0,59.0
3755,38.0,0.0,180.0,5.0,61.0
3756,38.0,0.0,180.0,8.0,64.0
3757,67.0,94.0,90.0,10.0,57.0
3758,50.0,0.0,180.0,7.0,64.0
3759,57.0,0.0,390.0,7.0,64.0
3760,66.0,0.0,90.0,1.0,65.0
3761,66.0,0.0,90.0,10.0,57.0
3762,62.0,0.0,180.0,0.0,80.0
3763,38.0,0.0,180.0,8.0,64.0
3764,38.0,0.0,180.0,5.0,61.0
3765,26.0,0.0,180.0,12.0,53.0
3766,60.0,0.0,180.0,4.0,61.0
3767,26.0,0.0,180.0,6.0,61.0
3768,60.0,2.0,180.0,11.0,53.0
3769,66.0,0.0,180.0,11.0,53.0
3770,38.0,0.0,180.0,12.0,53.0
3771,26.0,0.0,180.0,8.0,64.0
3772,66.0,0.0,180.0,7.0,64.0
3773,66.0,0.0,180.0,2.0,61.0
3774,60.0,0.0,180.0,7.0,64.0
3775,26.0,0.0,180.0,6.0,61.0
3776,58.0,96.0,180.0,3.0,59.0
3777,67.0,0.0,180.0,7.0,64.0
3778,38.0,0.0,180.0,5.0,61.0
3779,38.0,0.0,180.0,8.0,64.0
3780,58.0,0.0,180.0,11.0,53.0
3781,67.0,0.0,180.0,11.0,53.0
3782,67.0,0.0,180.0,2.0,61.0
3783,64.0,0.0,180.0,0.0,80.0
3784,26.0,0.0,180.0,12.0,53.0
3785,38.0,0.0,180.0,12.0,53.0
3786,58.0,2.0,180.0,7.0,64.0
3787,26.0,0.0,180.0,8.0,64.0
3788,58.0,0.0,180.0,4.0,61.0
3789,60.0,0.0,390.0,3.0,59.0
3790,69.0,0.0,90.0,7.0,64.0
3791,38.0,0.0,180.0,5.0,61.0
3792,26.0,0.0,180.0,12.0,53.0
3793,60.0,0.0,390.0,7.0,64.0
3794,57.0,0.0,390.0,7.0,64.0
3795,57.0,0.0,390.0,4.0,61.0
3796,69.0,0.0,90.0,2.0,61.0
3797,38.0,0.0,180.0,12.0,53.0
3798,66.0,0.0,180.0,0.0,80.0
3799,60.0,0.0,390.0,11.0,53.0
3800,26.0,0.0,180.0,8.0,64.0
3801,38.0,0.0,180.0,8.0,64.0
3802,26.0,0.0,180.0,6.0,61.0
3803,57.0,2.0,390.0,11.0,53.0
3804,69.0,96.0,90.0,11.0,53.0
3805,70.0,0.0,90.0,2.0,61.0
3806,70.0,0.0,90.0,11.0,53.0
3807,70.0,190.0,90.0,7.0,64.0
3808,26.0,0.0,180.0,8.0,64.0
3809,38.0,0.0,180.0,5.0,61.0
3810,26.0,0.0,180.0,6.0,61.0
3811,38.0,192.0,180.0,8.0,64.0
3812,72.0,0.0,180.0,2.0,61.0
3813,72.0,0.0,180.0,11.0,53.0
3814,67.0,0.0,180.0,0.0,80.0
3815,26.0,0.0,180.0,12.0,53.0
3816,38.0,0.0,180.0,12.0,53.0
3817,72.0,0.0,180.0,7.0,64.0
3818,38.0,0.0,180.0,8.0,64.0
3819,66.0,0.0,180.0,2.0,61.0
3820,38.0,0.0,180.0,5.0,61.0
3821,26.0,0.0,180.0,8.0,64.0
3822,69.0,0.0,180.0,0.0,80.0
3823,26.0,190.0,180.0,6.0,61.0
3824,66.0,0.0,180.0,7.0,64.0
3825,26.0,0.0,180.0,12.0,53.0
3826,66.0,0.0,180.0,11.0,53.0
3827,38.0,0.0,180.0,12.0,53.0
3828,70.0,0.0,1440.0,0.0,80.0
3829,43.0,0.0,390.0,8.0,64.0
3830,67.0,0.0,1440.0,2.0,61.0
3831,43.0,0.0,390.0,12.0,53.0
3832,58.0,0.0,180.0,4.0,61.0
3833,31.0,0.0,390.0,12.0,53.0
3834,62.0,0.0,180.0,11.0,53.0
3835,58.0,2.0,180.0,11.0,53.0
3836,62.0,190.0,180.0,7.0,64.0
3837,58.0,0.0,180.0,7.0,64.0
3838,43.0,0.0,390.0,5.0,61.0
3839,31.0,0.0,390.0,8.0,64.0
3840,62.0,0.0,180.0,3.0,59.0
3841,31.0,0.0,390.0,6.0,61.0
3842,66.0,0.0,180.0,11.0,53.0
3843,60.0,0.0,180.0,11.0,53.0
3844,66.0,0.0,180.0,3.0,59.0
3845,60.0,0.0,180.0,7.0,64.0
3846,60.0,2.0,180.0,4.0,61.0
3847,66.0,190.0,180.0,7.0,64.0
3848,82.0,0.0,90.0,1.0,65.0
3849,82.0,0.0,90.0,10.0,57.0
3850,79.0,96.0,180.0,1.0,65.0
3851,62.0,0.0,180.0,11.0,53.0
3852,79.0,0.0,180.0,10.0,57.0
3853,62.0,0.0,180.0,4.0,61.0
3854,67.0,0.0,180.0,11.0,53.0
3855,67.0,0.0,180.0,3.0,59.0
3856,67.0,0.0,180.0,7.0,64.0
3857,62.0,2.0,180.0,7.0,64.0
3858,67.0,96.0,180.0,7.0,64.0
3859,63.0,2.0,180.0,7.0,64.0
3860,77.0,0.0,90.0,10.0,57.0
3861,63.0,0.0,180.0,4.0,61.0
3862,77.0,94.0,90.0,1.0,65.0
3863,67.0,0.0,180.0,11.0,53.0
3864,63.0,0.0,180.0,11.0,53.0
3865,67.0,0.0,180.0,3.0,59.0
3866,75.0,0.0,180.0,10.0,57.0
3867,75.0,94.0,180.0,1.0,65.0
3868,66.0,0.0,180.0,11.0,53.0
3869,60.0,2.0,180.0,11.0,53.0
3870,60.0,0.0,180.0,4.0,61.0
3871,66.0,190.0,180.0,7.0,64.0
3872,60.0,0.0,180.0,7.0,64.0
3873,66.0,0.0,180.0,3.0,59.0
3874,82.0,0.0,90.0,10.0,57.0
3875,82.0,0.0,90.0,1.0,65.0
3876,62.0,0.0,180.0,4.0,61.0
3877,79.0,96.0,180.0,1.0,65.0
3878,79.0,0.0,180.0,10.0,57.0
3879,67.0,0.0,180.0,7.0,64.0
3880,62.0,0.0,180.0,11.0,53.0
3881,67.0,0.0,180.0,11.0,53.0
3882,62.0,2.0,180.0,7.0,64.0
3883,67.0,0.0,180.0,3.0,59.0
3884,57.0,96.0,180.0,11.0,53.0
3885,52.0,2.0,390.0,11.0,53.0
3886,33.0,0.0,180.0,8.0,64.0
3887,33.0,0.0,180.0,6.0,61.0
3888,74.0,96.0,90.0,1.0,65.0
3889,45.0,0.0,180.0,8.0,64.0
3890,33.0,0.0,180.0,12.0,53.0
3891,45.0,0.0,180.0,5.0,61.0
3892,52.0,0.0,390.0,4.0,61.0
3893,57.0,0.0,180.0,3.0,59.0
3894,52.0,0.0,390.0,7.0,64.0
3895,57.0,0.0,180.0,7.0,64.0
3896,74.0,0.0,90.0,10.0,57.0
3897,45.0,0.0,180.0,12.0,53.0
3898,73.0,0.0,90.0,1.0,65.0
3899,73.0,0.0,90.0,10.0,57.0
3900,33.0,0.0,180.0,6.0,61.0
3901,33.0,0.0,180.0,8.0,64.0
3902,59.0,190.0,180.0,7.0,64.0
3903,45.0,0.0,180.0,12.0,53.0
3904,59.0,0.0,180.0,11.0,53.0
3905,45.0,0.0,180.0,5.0,61.0
3906,45.0,0.0,180.0,8.0,64.0
3907,33.0,0.0,180.0,12.0,53.0
3908,59.0,0.0,180.0,3.0,59.0
3909,69.0,0.0,90.0,0.0,80.0
3910,65.0,0.0,90.0,11.0,53.0
3911,65.0,0.0,90.0,2.0,61.0
3912,65.0,0.0,90.0,7.0,64.0
3913,57.0,2.0,180.0,4.0,61.0
3914,61.0,0.0,180.0,3.0,59.0
3915,33.0,0.0,180.0,6.0,61.0
3916,61.0,0.0,180.0,7.0,64.0
3917,57.0,0.0,180.0,7.0,64.0
3918,45.0,0.0,180.0,5.0,61.0
3919,64.0,0.0,180.0,2.0,61.0
3920,67.0,48.0,180.0,0.0,80.0
3921,33.0,0.0,180.0,8.0,64.0
3922,45.0,0.0,180.0,8.0,64.0
3923,64.0,0.0,180.0,11.0,53.0
3924,61.0,0.0,180.0,11.0,53.0
3925,45.0,0.0,180.0,12.0,53.0
3926,33.0,0.0,180.0,12.0,53.0
3927,64.0,0.0,180.0,7.0,64.0
3928,57.0,0.0,180.0,11.0,53.0
3929,33.0,0.0,180.0,8.0,64.0
3930,45.0,0.0,180.0,8.0,64.0
3931,64.0,0.0,40.0,2.0,61.0
3932,33.0,0.0,180.0,12.0,53.0
3933,61.0,0.0,390.0,3.0,59.0
3934,64.0,48.0,40.0,7.0,64.0
3935,45.0,96.0,180.0,12.0,53.0
3936,64.0,2.0,390.0,4.0,61.0
3937,61.0,0.0,390.0,11.0,53.0
3938,64.0,0.0,40.0,11.0,53.0
3939,33.0,0.0,180.0,6.0,61.0
3940,45.0,0.0,180.0,5.0,61.0
3941,61.0,0.0,390.0,7.0,64.0
3942,67.0,0.0,40.0,0.0,80.0
3943,69.0,0.0,40.0,0.0,80.0
3944,65.0,0.0,40.0,11.0,53.0
3945,65.0,0.0,40.0,7.0,64.0
3946,65.0,96.0,40.0,2.0,61.0
3947,67.0,94.0,180.0,11.0,53.0
3948,70.0,0.0,180.0,0.0,80.0
3949,67.0,0.0,180.0,7.0,64.0
3950,67.0,0.0,180.0,2.0,61.0
3951,33.0,0.0,180.0,8.0,64.0
3952,33.0,0.0,180.0,6.0,61.0
3953,45.0,0.0,180.0,5.0,61.0
3954,45.0,0.0,180.0,8.0,64.0
3955,33.0,0.0,180.0,12.0,53.0
3956,45.0,0.0,180.0,12.0,53.0
3957,65.0,192.0,90.0,7.0,64.0
3958,65.0,0.0,90.0,2.0,61.0
3959,69.0,0.0,90.0,0.0,80.0
3960,65.0,0.0,90.0,11.0,53.0
3961,64.0,0.0,180.0,2.0,61.0
3962,33.0,0.0,180.0,6.0,61.0
3963,67.0,0.0,180.0,0.0,80.0
3964,45.0,0.0,180.0,5.0,61.0
3965,64.0,0.0,180.0,11.0,53.0
3966,33.0,0.0,180.0,12.0,53.0
3967,45.0,48.0,180.0,12.0,53.0
3968,45.0,0.0,180.0,8.0,64.0
3969,33.0,0.0,180.0,8.0,64.0
3970,64.0,0.0,180.0,7.0,64.0
3971,38.0,0.0,180.0,8.0,64.0
3972,26.0,0.0,180.0,8.0,64.0
3973,38.0,96.0,180.0,12.0,53.0
3974,62.0,0.0,570.0,11.0,53.0
3975,57.0,48.0,570.0,11.0,53.0
3976,53.0,0.0,570.0,11.0,53.0
3977,62.0,0.0,570.0,7.0,64.0
3978,57.0,0.0,570.0,7.0,64.0
3979,53.0,0.0,570.0,7.0,64.0
3980,62.0,0.0,570.0,2.0,61.0
3981,26.0,0.0,180.0,6.0,61.0
3982,65.0,0.0,180.0,0.0,80.0
3983,77.0,48.0,40.0,1.0,65.0
3984,53.0,2.0,570.0,4.0,61.0
3985,57.0,0.0,570.0,3.0,59.0
3986,26.0,0.0,180.0,12.0,53.0
3987,77.0,0.0,40.0,10.0,57.0
3988,38.0,0.0,180.0,5.0,61.0
3989,79.0,96.0,40.0,1.0,65.0
3990,79.0,0.0,40.0,10.0,57.0
3991,81.0,48.0,180.0,1.0,65.0
3992,81.0,0.0,180.0,10.0,57.0
3993,38.0,0.0,180.0,5.0,61.0
3994,38.0,0.0,180.0,8.0,64.0
3995,26.0,0.0,180.0,8.0,64.0
3996,62.0,48.0,180.0,0.0,80.0
3997,26.0,0.0,180.0,6.0,61.0
3998,26.0,0.0,180.0,12.0,53.0
3999,38.0,0.0,180.0,12.0,53.0
4000,79.0,0.0,40.0,10.0,57.0
4001,79.0,48.0,40.0,1.0,65.0
4002,77.0,0.0,40.0,10.0,57.0
4003,77.0,0.0,40.0,1.0,65.0
4004,38.0,0.0,180.0,12.0,53.0
4005,26.0,0.0,180.0,6.0,61.0
4006,26.0,0.0,180.0,8.0,64.0
4007,64.0,0.0,180.0,0.0,80.0
4008,26.0,0.0,180.0,12.0,53.0
4009,79.0,48.0,40.0,10.0,57.0
4010,38.0,0.0,180.0,5.0,61.0
4011,38.0,0.0,180.0,8.0,64.0
4012,79.0,0.0,40.0,1.0,65.0
4013,77.0,0.0,40.0,1.0,65.0
4014,77.0,94.0,40.0,10.0,57.0
4015,76.0,0.0,90.0,1.0,65.0
4016,76.0,0.0,90.0,10.0,57.0
4017,57.0,0.0,570.0,11.0,53.0
4018,57.0,2.0,570.0,7.0,64.0
4019,65.0,0.0,570.0,7.0,64.0
4020,62.0,0.0,570.0,11.0,53.0
4021,38.0,0.0,180.0,12.0,53.0
4022,26.0,0.0,180.0,12.0,53.0
4023,57.0,0.0,570.0,4.0,61.0
4024,74.0,48.0,40.0,1.0,65.0
4025,65.0,0.0,570.0,2.0,61.0
4026,62.0,0.0,570.0,3.0,59.0
4027,62.0,0.0,570.0,7.0,64.0
4028,65.0,0.0,570.0,11.0,53.0
4029,26.0,0.0,180.0,6.0,61.0
4030,26.0,0.0,180.0,8.0,64.0
4031,38.0,0.0,180.0,8.0,64.0
4032,74.0,0.0,40.0,10.0,57.0
4033,65.0,0.0,780.0,0.0,80.0
4034,38.0,96.0,180.0,5.0,61.0
4035,76.0,96.0,40.0,1.0,65.0
4036,76.0,0.0,40.0,10.0,57.0
4037,77.0,0.0,180.0,1.0,65.0
4038,77.0,48.0,180.0,10.0,57.0
4039,26.0,0.0,180.0,8.0,64.0
4040,38.0,0.0,180.0,12.0,53.0
4041,38.0,0.0,180.0,5.0,61.0
4042,26.0,0.0,180.0,12.0,53.0
4043,26.0,0.0,180.0,6.0,61.0
4044,38.0,0.0,180.0,8.0,64.0
4045,76.0,0.0,40.0,10.0,57.0
4046,76.0,48.0,40.0,1.0,65.0
4047,74.0,48.0,40.0,10.0,57.0
4048,74.0,0.0,40.0,1.0,65.0
4049,26.0,0.0,180.0,12.0,53.0
4050,38.0,0.0,180.0,12.0,53.0
4051,26.0,0.0,180.0,6.0,61.0
4052,76.0,0.0,40.0,1.0,65.0
4053,38.0,48.0,180.0,8.0,64.0
4054,26.0,0.0,180.0,8.0,64.0
4055,38.0,0.0,180.0,5.0,61.0
4056,76.0,48.0,40.0,10.0,57.0
4057,74.0,94.0,40.0,1.0,65.0
4058,74.0,0.0,40.0,10.0,57.0
4059,72.0,0.0,90.0,1.0,65.0
4060,72.0,0.0,90.0,10.0,57.0
4061,70.0,48.0,40.0,10.0,57.0
4062,70.0,0.0,40.0,1.0,65.0
4063,65.0,0.0,570.0,3.0,59.0
4064,62.0,0.0,570.0,4.0,61.0
4065,70.0,0.0,570.0,7.0,64.0
4066,26.0,0.0,180.0,8.0,64.0
4067,38.0,0.0,180.0,8.0,64.0
4068,70.0,0.0,570.0,11.0,53.0
4069,65.0,0.0,570.0,11.0,53.0
4070,62.0,2.0,570.0,11.0,53.0
4071,62.0,0.0,570.0,7.0,64.0
4072,65.0,0.0,570.0,7.0,64.0
4073,26.0,0.0,180.0,6.0,61.0
4074,38.0,96.0,180.0,12.0,53.0
4075,38.0,0.0,180.0,5.0,61.0
4076,70.0,190.0,570.0,2.0,61.0
4077,26.0,0.0,180.0,12.0,53.0
4078,72.0,0.0,40.0,1.0,65.0
4079,72.0,96.0,40.0,10.0,57.0
4080,74.0,0.0,180.0,10.0,57.0
4081,74.0,48.0,180.0,1.0,65.0
4082,26.0,0.0,180.0,6.0,61.0
4083,38.0,0.0,180.0,12.0,53.0
4084,26.0,0.0,180.0,12.0,53.0
4085,26.0,0.0,180.0,8.0,64.0
4086,38.0,0.0,180.0,8.0,64.0
4087,38.0,48.0,180.0,5.0,61.0
4088,68.0,0.0,180.0,0.0,80.0
4089,72.0,0.0,40.0,1.0,65.0
4090,72.0,48.0,40.0,10.0,57.0
4091,71.0,0.0,40.0,10.0,57.0
4092,71.0,0.0,40.0,1.0,65.0
4093,69.0,0.0,180.0,11.0,53.0
4094,38.0,0.0,180.0,8.0,64.0
4095,26.0,0.0,180.0,8.0,64.0
4096,26.0,0.0,180.0,6.0,61.0
4097,69.0,0.0,180.0,7.0,64.0
4098,38.0,0.0,180.0,5.0,61.0
4099,38.0,0.0,180.0,12.0,53.0
4100,26.0,0.0,180.0,12.0,53.0
4101,69.0,0.0,180.0,2.0,61.0
4102,72.0,48.0,40.0,1.0,65.0
4103,69.0,0.0,180.0,0.0,80.0
4104,72.0,0.0,40.0,10.0,57.0
4105,71.0,0.0,40.0,10.0,57.0
4106,71.0,94.0,40.0,1.0,65.0
4107,69.0,0.0,90.0,10.0,57.0
4108,69.0,0.0,90.0,1.0,65.0
4109,64.0,0.0,180.0,7.0,64.0
4110,56.0,0.0,180.0,7.0,64.0
4111,64.0,0.0,180.0,3.0,59.0
4112,50.0,0.0,180.0,8.0,64.0
4113,50.0,0.0,180.0,5.0,61.0
4114,56.0,2.0,180.0,4.0,61.0
4115,76.0,0.0,180.0,11.0,53.0
4116,76.0,0.0,180.0,7.0,64.0
4117,38.0,0.0,180.0,6.0,61.0
4118,38.0,0.0,180.0,12.0,53.0
4119,38.0,0.0,180.0,8.0,64.0
4120,71.0,0.0,180.0,0.0,80.0
4121,50.0,0.0,180.0,12.0,53.0
4122,68.0,0.0,180.0,1.0,65.0
4123,76.0,0.0,180.0,2.0,61.0
4124,68.0,0.0,180.0,10.0,57.0
4125,56.0,0.0,180.0,11.0,53.0
4126,64.0,192.0,180.0,11.0,53.0
4127,35.0,192.0,180.0,6.0,61.0
4128,47.0,0.0,180.0,5.0,61.0
4129,47.0,0.0,180.0,12.0,53.0
4130,62.0,0.0,180.0,0.0,80.0
4131,35.0,0.0,180.0,8.0,64.0
4132,47.0,0.0,180.0,8.0,64.0
4133,35.0,0.0,180.0,12.0,53.0
4134,32.0,0.0,180.0,6.0,61.0
4135,44.0,0.0,180.0,12.0,53.0
4136,32.0,0.0,180.0,12.0,53.0
4137,44.0,0.0,180.0,5.0,61.0
4138,32.0,0.0,180.0,8.0,64.0
4139,44.0,0.0,180.0,8.0,64.0
4140,65.0,192.0,180.0,0.0,80.0
4141,64.0,96.0,300.0,0.0,80.0
4142,36.0,0.0,180.0,8.0,64.0
4143,36.0,96.0,180.0,6.0,61.0
4144,48.0,0.0,180.0,5.0,61.0
4145,36.0,0.0,180.0,12.0,53.0
4146,48.0,0.0,180.0,8.0,64.0
4147,48.0,0.0,180.0,12.0,53.0
4148,48.0,0.0,180.0,8.0,64.0
4149,48.0,0.0,180.0,5.0,61.0
4150,48.0,0.0,180.0,12.0,53.0
4151,36.0,0.0,180.0,6.0,61.0
4152,36.0,0.0,180.0,8.0,64.0
4153,36.0,0.0,180.0,12.0,53.0
4154,69.0,192.0,90.0,0.0,80.0
4155,65.0,0.0,180.0,0.0,80.0
4156,48.0,0.0,180.0,5.0,61.0
4157,36.0,96.0,180.0,8.0,64.0
4158,48.0,0.0,180.0,8.0,64.0
4159,36.0,0.0,180.0,6.0,61.0
4160,48.0,0.0,180.0,12.0,53.0
4161,36.0,0.0,180.0,12.0,53.0
4162,62.0,0.0,2100.0,7.0,64.0
4163,53.0,192.0,180.0,5.0,61.0
4164,62.0,2.0,2100.0,11.0,53.0
4165,65.0,0.0,2100.0,11.0,53.0
4166,62.0,0.0,2100.0,4.0,61.0
4167,65.0,0.0,2100.0,7.0,64.0
4168,64.0,96.0,90.0,0.0,80.0
4169,65.0,0.0,2100.0,3.0,59.0
4170,69.0,0.0,570.0,11.0,53.0
4171,41.0,0.0,180.0,8.0,64.0
4172,69.0,0.0,570.0,2.0,61.0
4173,41.0,0.0,180.0,6.0,61.0
4174,53.0,0.0,180.0,12.0,53.0
4175,41.0,0.0,180.0,12.0,53.0
4176,69.0,0.0,570.0,7.0,64.0
4177,53.0,0.0,180.0,8.0,64.0
4178,62.0,0.0,660.0,0.0,80.0
4179,53.0,0.0,180.0,5.0,61.0
4180,41.0,0.0,180.0,12.0,53.0
4181,41.0,0.0,180.0,6.0,61.0
4182,53.0,0.0,180.0,12.0,53.0
4183,53.0,0.0,180.0,8.0,64.0
4184,41.0,0.0,180.0,8.0,64.0
4185,77.0,192.0,90.0,10.0,57.0
4186,77.0,0.0,90.0,1.0,65.0
4187,41.0,0.0,180.0,6.0,61.0
4188,41.0,0.0,180.0,8.0,64.0
4189,41.0,0.0,180.0,12.0,53.0
4190,74.0,0.0,180.0,10.0,57.0
4191,53.0,0.0,180.0,12.0,53.0
4192,53.0,0.0,180.0,5.0,61.0
4193,53.0,0.0,180.0,8.0,64.0
4194,74.0,96.0,180.0,1.0,65.0
4195,50.0,0.0,180.0,5.0,61.0
4196,50.0,0.0,180.0,8.0,64.0
4197,70.0,0.0,570.0,11.0,53.0
4198,50.0,96.0,180.0,12.0,53.0
4199,38.0,0.0,180.0,12.0,53.0
4200,70.0,0.0,570.0,2.0,61.0
4201,38.0,0.0,180.0,8.0,64.0
4202,72.0,0.0,90.0,10.0,57.0
4203,72.0,96.0,90.0,1.0,65.0
4204,70.0,0.0,570.0,7.0,64.0
4205,38.0,0.0,180.0,6.0,61.0
4206,70.0,96.0,180.0,10.0,57.0
4207,70.0,0.0,180.0,1.0,65.0
4208,50.0,0.0,180.0,8.0,64.0
4209,50.0,0.0,180.0,5.0,61.0
4210,61.0,0.0,180.0,0.0,80.0
4211,38.0,0.0,180.0,8.0,64.0
4212,38.0,0.0,180.0,6.0,61.0
4213,50.0,0.0,180.0,12.0,53.0
4214,38.0,0.0,180.0,12.0,53.0
4215,77.0,192.0,90.0,1.0,65.0
4216,77.0,0.0,90.0,10.0,57.0
4217,74.0,0.0,180.0,10.0,57.0
4218,74.0,0.0,180.0,1.0,65.0
4219,62.0,0.0,180.0,0.0,80.0
4220,38.0,0.0,180.0,12.0,53.0
4221,38.0,0.0,180.0,6.0,61.0
4222,50.0,0.0,180.0,12.0,53.0
4223,50.0,0.0,180.0,8.0,64.0
4224,38.0,96.0,180.0,8.0,64.0
4225,50.0,0.0,180.0,5.0,61.0
4226,48.0,0.0,180.0,12.0,53.0
4227,70.0,0.0,90.0,10.0,57.0
4228,36.0,0.0,180.0,6.0,61.0
4229,69.0,0.0,570.0,7.0,64.0
4230,36.0,96.0,180.0,12.0,53.0
4231,65.0,0.0,180.0,0.0,80.0
4232,70.0,96.0,90.0,1.0,65.0
4233,48.0,0.0,180.0,8.0,64.0
4234,69.0,0.0,570.0,11.0,53.0
4235,69.0,0.0,570.0,2.0,61.0
4236,36.0,0.0,180.0,8.0,64.0
4237,48.0,0.0,180.0,5.0,61.0
4238,69.0,96.0,180.0,10.0,57.0
4239,69.0,0.0,180.0,1.0,65.0
4240,36.0,0.0,180.0,8.0,64.0
4241,48.0,0.0,180.0,5.0,61.0
4242,36.0,0.0,180.0,6.0,61.0
4243,48.0,0.0,180.0,12.0,53.0
4244,36.0,0.0,180.0,12.0,53.0
4245,48.0,0.0,180.0,8.0,64.0
4246,70.0,0.0,90.0,0.0,80.0
4247,68.0,0.0,90.0,0.0,80.0
4248,77.0,0.0,90.0,1.0,65.0
4249,77.0,192.0,90.0,10.0,57.0
4250,48.0,0.0,180.0,8.0,64.0
4251,36.0,0.0,180.0,8.0,64.0
4252,48.0,0.0,180.0,5.0,61.0
4253,36.0,0.0,180.0,6.0,61.0
4254,74.0,96.0,180.0,10.0,57.0
4255,48.0,0.0,180.0,12.0,53.0
4256,74.0,0.0,180.0,1.0,65.0
4257,36.0,0.0,180.0,12.0,53.0
4258,69.0,0.0,180.0,0.0,80.0
4259,47.0,0.0,180.0,8.0,64.0
4260,35.0,0.0,180.0,8.0,64.0
4261,47.0,0.0,180.0,12.0,53.0
4262,35.0,0.0,180.0,12.0,53.0
4263,62.0,94.0,300.0,0.0,80.0
4264,69.0,0.0,90.0,10.0,57.0
4265,68.0,0.0,390.0,11.0,53.0
4266,69.0,96.0,90.0,1.0,65.0
4267,68.0,0.0,390.0,7.0,64.0
4268,35.0,0.0,180.0,6.0,61.0
4269,68.0,0.0,390.0,2.0,61.0
4270,47.0,96.0,180.0,5.0,61.0
4271,68.0,0.0,180.0,10.0,57.0
4272,68.0,0.0,180.0,1.0,65.0
4273,48.0,192.0,180.0,5.0,61.0
4274,36.0,0.0,180.0,6.0,61.0
4275,36.0,0.0,180.0,8.0,64.0
4276,36.0,0.0,180.0,12.0,53.0
4277,48.0,0.0,180.0,8.0,64.0
4278,48.0,0.0,180.0,12.0,53.0
4279,65.0,0.0,90.0,0.0,80.0
4280,38.0,0.0,180.0,12.0,53.0
4281,50.0,0.0,180.0,12.0,53.0
4282,38.0,0.0,180.0,8.0,64.0
4283,50.0,0.0,180.0,8.0,64.0
4284,38.0,0.0,180.0,6.0,61.0
4285,64.0,0.0,180.0,0.0,80.0
4286,50.0,192.0,180.0,5.0,61.0
4287,48.0,0.0,180.0,12.0,53.0
4288,48.0,96.0,180.0,8.0,64.0
4289,36.0,0.0,180.0,8.0,64.0
4290,36.0,0.0,180.0,6.0,61.0
4291,36.0,0.0,180.0,12.0,53.0
4292,48.0,0.0,180.0,5.0,61.0
4293,64.0,0.0,180.0,0.0,80.0
4294,38.0,0.0,180.0,12.0,53.0
4295,62.0,96.0,90.0,0.0,80.0
4296,50.0,0.0,180.0,12.0,53.0
4297,50.0,0.0,180.0,5.0,61.0
4298,38.0,0.0,180.0,8.0,64.0
4299,50.0,96.0,180.0,8.0,64.0
4300,38.0,0.0,180.0,6.0,61.0
4301,60.0,0.0,90.0,0.0,80.0
4302,40.0,0.0,180.0,12.0,53.0
4303,40.0,0.0,180.0,8.0,64.0
4304,52.0,0.0,180.0,12.0,53.0
4305,40.0,0.0,180.0,6.0,61.0
4306,52.0,0.0,180.0,8.0,64.0
4307,52.0,190.0,180.0,5.0,61.0
4308,59.0,96.0,90.0,0.0,80.0
4309,57.0,0.0,90.0,0.0,80.0
4310,45.0,0.0,180.0,5.0,61.0
4311,45.0,190.0,180.0,8.0,64.0
4312,33.0,0.0,180.0,8.0,64.0
4313,61.0,0.0,180.0,7.0,64.0
4314,61.0,2.0,180.0,11.0,53.0
4315,64.0,0.0,1140.0,3.0,59.0
4316,61.0,0.0,180.0,4.0,61.0
4317,57.0,0.0,780.0,0.0,80.0
4318,33.0,0.0,180.0,12.0,53.0
4319,33.0,0.0,180.0,6.0,61.0
4320,45.0,0.0,180.0,12.0,53.0
4321,64.0,0.0,570.0,2.0,61.0
4322,64.0,0.0,180.0,4.0,61.0
4323,45.0,0.0,180.0,12.0,53.0
4324,64.0,2.0,180.0,11.0,53.0
4325,45.0,0.0,180.0,5.0,61.0
4326,45.0,0.0,180.0,8.0,64.0
4327,33.0,0.0,180.0,12.0,53.0
4328,33.0,190.0,180.0,6.0,61.0
4329,33.0,0.0,180.0,8.0,64.0
4330,64.0,0.0,180.0,7.0,64.0
4331,67.0,0.0,390.0,4.0,61.0
4332,67.0,26.0,390.0,7.0,64.0
4333,67.0,0.0,390.0,11.0,53.0
4334,45.0,0.0,180.0,5.0,61.0
4335,33.0,0.0,180.0,6.0,61.0
4336,33.0,166.0,180.0,12.0,53.0
4337,33.0,0.0,180.0,8.0,64.0
4338,45.0,0.0,180.0,8.0,64.0
4339,45.0,0.0,180.0,12.0,53.0
4340,37.0,0.0,180.0,12.0,53.0
4341,69.0,0.0,1140.0,7.0,64.0
4342,69.0,0.0,1140.0,11.0,53.0
4343,49.0,0.0,180.0,5.0,61.0
4344,49.0,0.0,180.0,12.0,53.0
4345,37.0,0.0,180.0,6.0,61.0
4346,37.0,0.0,180.0,8.0,64.0
4347,49.0,166.0,180.0,8.0,64.0
4348,69.0,2.0,1140.0,2.0,61.0
4349,65.0,0.0,180.0,7.0,64.0
4350,65.0,0.0,180.0,11.0,53.0
4351,65.0,26.0,180.0,4.0,61.0
4352,49.0,166.0,180.0,12.0,53.0
4353,49.0,0.0,180.0,5.0,61.0
4354,37.0,0.0,180.0,8.0,64.0
4355,49.0,0.0,180.0,8.0,64.0
4356,37.0,0.0,180.0,12.0,53.0
4357,37.0,0.0,180.0,6.0,61.0
4358,64.0,0.0,180.0,11.0,53.0
4359,64.0,24.0,180.0,4.0,61.0
4360,64.0,0.0,180.0,7.0,64.0
4361,37.0,0.0,180.0,6.0,61.0
4362,49.0,0.0,180.0,5.0,61.0
4363,49.0,0.0,180.0,8.0,64.0
4364,37.0,0.0,180.0,12.0,53.0
4365,69.0,48.0,180.0,10.0,57.0
4366,49.0,0.0,180.0,12.0,53.0
4367,37.0,0.0,180.0,8.0,64.0
4368,69.0,0.0,180.0,1.0,65.0
4369,38.0,0.0,180.0,12.0,53.0
4370,50.0,0.0,180.0,12.0,53.0
4371,38.0,96.0,180.0,8.0,64.0
4372,74.0,0.0,40.0,1.0,65.0
4373,50.0,0.0,180.0,5.0,61.0
4374,50.0,0.0,180.0,8.0,64.0
4375,62.0,0.0,570.0,3.0,59.0
4376,38.0,0.0,180.0,6.0,61.0
4377,65.0,0.0,570.0,7.0,64.0
4378,65.0,0.0,570.0,11.0,53.0
4379,65.0,0.0,570.0,4.0,61.0
4380,62.0,0.0,570.0,11.0,53.0
4381,74.0,48.0,40.0,10.0,57.0
4382,62.0,0.0,570.0,7.0,64.0
4383,76.0,0.0,40.0,1.0,65.0
4384,76.0,96.0,40.0,10.0,57.0
4385,77.0,48.0,180.0,10.0,57.0
4386,77.0,0.0,180.0,1.0,65.0
4387,38.0,0.0,180.0,6.0,61.0
4388,50.0,0.0,180.0,5.0,61.0
4389,50.0,0.0,180.0,8.0,64.0
4390,38.0,0.0,180.0,12.0,53.0
4391,50.0,0.0,180.0,12.0,53.0
4392,38.0,0.0,180.0,8.0,64.0
4393,76.0,48.0,40.0,1.0,65.0
4394,76.0,0.0,40.0,10.0,57.0
4395,77.0,190.0,40.0,10.0,57.0
4396,77.0,0.0,40.0,1.0,65.0
4397,38.0,0.0,180.0,6.0,61.0
4398,38.0,192.0,180.0,12.0,53.0
4399,79.0,96.0,480.0,10.0,57.0
4400,79.0,0.0,480.0,1.0,65.0
4401,38.0,0.0,180.0,8.0,64.0
4402,50.0,0.0,180.0,5.0,61.0
4403,50.0,0.0,180.0,8.0,64.0
4404,50.0,0.0,180.0,12.0,53.0
4405,69.0,0.0,570.0,4.0,61.0
4406,69.0,2.0,570.0,7.0,64.0
4407,33.0,0.0,180.0,12.0,53.0
4408,45.0,0.0,180.0,12.0,53.0
4409,64.0,0.0,180.0,7.0,64.0
4410,64.0,0.0,180.0,3.0,59.0
4411,45.0,0.0,180.0,5.0,61.0
4412,73.0,0.0,570.0,2.0,61.0
4413,73.0,0.0,570.0,11.0,53.0
4414,64.0,0.0,180.0,11.0,53.0
4415,69.0,0.0,570.0,11.0,53.0
4416,45.0,96.0,180.0,8.0,64.0
4417,33.0,0.0,180.0,8.0,64.0
4418,33.0,0.0,180.0,6.0,61.0
4419,73.0,0.0,570.0,7.0,64.0
4420,33.0,0.0,180.0,8.0,64.0
4421,45.0,0.0,180.0,8.0,64.0
4422,65.0,0.0,180.0,7.0,64.0
4423,33.0,0.0,180.0,6.0,61.0
4424,65.0,0.0,180.0,3.0,59.0
4425,33.0,0.0,180.0,12.0,53.0
4426,45.0,0.0,180.0,12.0,53.0
4427,45.0,190.0,180.0,5.0,61.0
4428,65.0,0.0,180.0,11.0,53.0
4429,77.0,0.0,90.0,10.0,57.0
4430,77.0,0.0,90.0,1.0,65.0
4431,45.0,0.0,180.0,8.0,64.0
4432,76.0,0.0,180.0,10.0,57.0
4433,67.0,0.0,180.0,3.0,59.0
4434,33.0,0.0,180.0,8.0,64.0
4435,45.0,0.0,180.0,12.0,53.0
4436,33.0,0.0,180.0,12.0,53.0
4437,67.0,0.0,180.0,11.0,53.0
4438,33.0,190.0,180.0,6.0,61.0
4439,45.0,0.0,180.0,5.0,61.0
4440,67.0,0.0,180.0,7.0,64.0
4441,76.0,0.0,180.0,1.0,65.0
4442,46.0,0.0,180.0,5.0,61.0
4443,74.0,0.0,570.0,11.0,53.0
4444,74.0,0.0,570.0,2.0,61.0
4445,65.0,0.0,390.0,11.0,53.0
4446,57.0,0.0,180.0,11.0,53.0
4447,74.0,94.0,2580.0,1.0,65.0
4448,74.0,0.0,2580.0,10.0,57.0
4449,65.0,0.0,390.0,7.0,64.0
4450,57.0,2.0,180.0,4.0,61.0
4451,46.0,192.0,180.0,8.0,64.0
4452,74.0,0.0,570.0,7.0,64.0
4453,57.0,0.0,180.0,7.0,64.0
4454,34.0,0.0,180.0,12.0,53.0
4455,65.0,192.0,390.0,3.0,59.0
4456,46.0,0.0,180.0,12.0,53.0
4457,34.0,0.0,180.0,6.0,61.0
4458,34.0,0.0,180.0,8.0,64.0
4459,46.0,0.0,180.0,12.0,53.0
4460,34.0,0.0,180.0,6.0,61.0
4461,34.0,0.0,180.0,12.0,53.0
4462,46.0,0.0,180.0,5.0,61.0
4463,62.0,2.0,1920.0,7.0,64.0
4464,34.0,0.0,180.0,8.0,64.0
4465,46.0,0.0,180.0,8.0,64.0
4466,62.0,0.0,1920.0,11.0,53.0
4467,62.0,0.0,1920.0,4.0,61.0
4468,46.0,0.0,180.0,5.0,61.0
4469,46.0,0.0,180.0,12.0,53.0
4470,34.0,0.0,180.0,12.0,53.0
4471,67.0,192.0,180.0,11.0,53.0
4472,34.0,0.0,180.0,6.0,61.0
4473,67.0,0.0,180.0,7.0,64.0
4474,46.0,0.0,180.0,8.0,64.0
4475,34.0,0.0,180.0,8.0,64.0
4476,67.0,0.0,180.0,3.0,59.0
4477,72.0,0.0,570.0,2.0,61.0
4478,42.0,0.0,180.0,12.0,53.0
4479,72.0,0.0,570.0,7.0,64.0
4480,42.0,192.0,180.0,5.0,61.0
4481,30.0,0.0,180.0,8.0,64.0
4482,42.0,0.0,180.0,8.0,64.0
4483,30.0,0.0,180.0,12.0,53.0
4484,69.0,0.0,570.0,7.0,64.0
4485,69.0,0.0,570.0,3.0,59.0
4486,69.0,0.0,570.0,11.0,53.0
4487,72.0,0.0,570.0,11.0,53.0
4488,30.0,0.0,180.0,6.0,61.0
4489,42.0,192.0,180.0,5.0,61.0
4490,42.0,0.0,180.0,8.0,64.0
4491,30.0,0.0,180.0,8.0,64.0
4492,30.0,0.0,180.0,6.0,61.0
4493,30.0,0.0,180.0,12.0,53.0
4494,42.0,0.0,180.0,12.0,53.0
4495,42.0,0.0,180.0,5.0,61.0
4496,62.0,0.0,180.0,0.0,80.0
4497,30.0,0.0,180.0,8.0,64.0
4498,42.0,0.0,180.0,8.0,64.0
4499,30.0,0.0,180.0,12.0,53.0
4500,42.0,0.0,180.0,12.0,53.0
4501,30.0,192.0,180.0,6.0,61.0
4502,31.0,96.0,180.0,8.0,64.0
4503,43.0,0.0,180.0,8.0,64.0
4504,70.0,0.0,570.0,2.0,61.0
4505,31.0,0.0,180.0,12.0,53.0
4506,43.0,0.0,180.0,5.0,61.0
4507,43.0,0.0,180.0,12.0,53.0
4508,70.0,0.0,570.0,7.0,64.0
4509,70.0,48.0,300.0,0.0,80.0
4510,67.0,0.0,570.0,3.0,59.0
4511,67.0,0.0,570.0,11.0,53.0
4512,70.0,192.0,570.0,11.0,53.0
4513,31.0,0.0,180.0,6.0,61.0
4514,67.0,0.0,570.0,7.0,64.0
4515,31.0,0.0,180.0,8.0,64.0
4516,43.0,0.0,180.0,8.0,64.0
4517,43.0,0.0,180.0,12.0,53.0
4518,31.0,0.0,180.0,6.0,61.0
4519,43.0,192.0,180.0,5.0,61.0
4520,31.0,0.0,180.0,12.0,53.0
4521,69.0,48.0,40.0,0.0,80.0
4522,70.0,0.0,40.0,0.0,80.0
4523,43.0,0.0,180.0,12.0,53.0
4524,31.0,0.0,180.0,12.0,53.0
4525,43.0,0.0,180.0,5.0,61.0
4526,31.0,0.0,180.0,8.0,64.0
4527,43.0,0.0,180.0,8.0,64.0
4528,31.0,0.0,180.0,6.0,61.0
4529,72.0,94.0,480.0,0.0,80.0
4530,69.0,0.0,570.0,11.0,53.0
4531,66.0,0.0,570.0,3.0,59.0
4532,26.0,0.0,180.0,6.0,61.0
4533,38.0,0.0,180.0,5.0,61.0
4534,66.0,0.0,570.0,7.0,64.0
4535,26.0,0.0,180.0,8.0,64.0
4536,38.0,96.0,180.0,8.0,64.0
4537,38.0,0.0,180.0,12.0,53.0
4538,26.0,0.0,180.0,12.0,53.0
4539,69.0,0.0,570.0,2.0,61.0
4540,69.0,0.0,570.0,7.0,64.0
4541,66.0,0.0,570.0,11.0,53.0
4542,38.0,0.0,180.0,5.0,61.0
4543,26.0,190.0,180.0,8.0,64.0
4544,38.0,0.0,180.0,8.0,64.0
4545,26.0,0.0,180.0,12.0,53.0
4546,38.0,0.0,180.0,12.0,53.0
4547,26.0,0.0,180.0,6.0,61.0
4548,70.0,0.0,90.0,0.0,80.0
4549,60.0,2.0,180.0,11.0,53.0
4550,26.0,0.0,180.0,8.0,64.0
4551,38.0,0.0,180.0,8.0,64.0
4552,60.0,0.0,180.0,4.0,61.0
4553,38.0,0.0,180.0,5.0,61.0
4554,38.0,0.0,180.0,12.0,53.0
4555,69.0,0.0,180.0,0.0,80.0
4556,26.0,192.0,180.0,6.0,61.0
4557,60.0,0.0,180.0,7.0,64.0
4558,26.0,0.0,180.0,12.0,53.0
4559,27.0,0.0,180.0,6.0,61.0
4560,67.0,0.0,390.0,0.0,80.0
4561,58.0,2.0,390.0,11.0,53.0
4562,27.0,96.0,180.0,12.0,53.0
4563,39.0,0.0,180.0,12.0,53.0
4564,67.0,0.0,570.0,2.0,61.0
4565,58.0,0.0,390.0,4.0,61.0
4566,67.0,0.0,570.0,11.0,53.0
4567,27.0,0.0,180.0,8.0,64.0
4568,39.0,0.0,180.0,8.0,64.0
4569,39.0,0.0,180.0,5.0,61.0
4570,58.0,0.0,390.0,7.0,64.0
4571,67.0,0.0,960.0,3.0,59.0
4572,67.0,0.0,570.0,7.0,64.0
4573,27.0,0.0,180.0,6.0,61.0
4574,39.0,0.0,180.0,5.0,61.0
4575,27.0,190.0,180.0,12.0,53.0
4576,39.0,0.0,180.0,12.0,53.0
4577,39.0,0.0,180.0,8.0,64.0
4578,27.0,0.0,180.0,8.0,64.0
4579,79.0,0.0,90.0,1.0,65.0
4580,79.0,0.0,90.0,10.0,57.0
4581,60.0,0.0,180.0,7.0,64.0
4582,27.0,0.0,180.0,8.0,64.0
4583,39.0,0.0,180.0,8.0,64.0
4584,39.0,0.0,180.0,5.0,61.0
4585,60.0,2.0,180.0,4.0,61.0
4586,75.0,0.0,180.0,1.0,65.0
4587,60.0,0.0,180.0,11.0,53.0
4588,75.0,96.0,180.0,10.0,57.0
4589,27.0,0.0,180.0,12.0,53.0
4590,39.0,0.0,180.0,12.0,53.0
4591,60.0,0.0,180.0,0.0,80.0
4592,27.0,0.0,180.0,6.0,61.0
4593,68.0,96.0,90.0,10.0,57.0
4594,31.0,0.0,180.0,8.0,64.0
4595,59.0,190.0,390.0,0.0,80.0
4596,68.0,0.0,90.0,1.0,65.0
4597,62.0,0.0,570.0,4.0,61.0
4598,31.0,0.0,180.0,6.0,61.0
4599,43.0,0.0,180.0,8.0,64.0
4600,62.0,0.0,570.0,11.0,53.0
4601,74.0,0.0,570.0,11.0,53.0
4602,74.0,0.0,570.0,7.0,64.0
4603,62.0,2.0,570.0,7.0,64.0
4604,74.0,0.0,570.0,2.0,61.0
4605,31.0,0.0,180.0,12.0,53.0
4606,43.0,96.0,180.0,5.0,61.0
4607,43.0,0.0,180.0,12.0,53.0
4608,67.0,96.0,180.0,1.0,65.0
4609,67.0,0.0,180.0,10.0,57.0
4610,31.0,0.0,180.0,12.0,53.0
4611,43.0,0.0,180.0,12.0,53.0
4612,31.0,0.0,180.0,6.0,61.0
4613,43.0,0.0,180.0,8.0,64.0
4614,43.0,0.0,180.0,5.0,61.0
4615,31.0,0.0,180.0,8.0,64.0
4616,77.0,0.0,90.0,10.0,57.0
4617,77.0,0.0,90.0,1.0,65.0
4618,31.0,0.0,180.0,8.0,64.0
4619,71.0,0.0,180.0,11.0,53.0
4620,74.0,0.0,180.0,10.0,57.0
4621,43.0,96.0,180.0,8.0,64.0
4622,31.0,0.0,180.0,6.0,61.0
4623,31.0,0.0,180.0,12.0,53.0
4624,43.0,0.0,180.0,12.0,53.0
4625,71.0,0.0,180.0,3.0,59.0
4626,67.0,0.0,180.0,0.0,80.0
4627,43.0,0.0,180.0,5.0,61.0
4628,74.0,0.0,180.0,1.0,65.0
4629,71.0,0.0,180.0,7.0,64.0
4630,68.0,0.0,390.0,0.0,80.0
4631,48.0,0.0,180.0,8.0,64.0
4632,48.0,0.0,180.0,12.0,53.0
4633,36.0,0.0,180.0,8.0,64.0
4634,36.0,0.0,180.0,12.0,53.0
4635,65.0,96.0,90.0,10.0,57.0
4636,75.0,0.0,1740.0,11.0,53.0
4637,36.0,96.0,180.0,6.0,61.0
4638,72.0,0.0,2310.0,11.0,53.0
4639,60.0,0.0,1710.0,11.0,53.0
4640,65.0,0.0,90.0,1.0,65.0
4641,60.0,0.0,1710.0,4.0,61.0
4642,72.0,0.0,2310.0,3.0,59.0
4643,72.0,96.0,2310.0,7.0,64.0
4644,60.0,2.0,1710.0,7.0,64.0
4645,75.0,0.0,1740.0,7.0,64.0
4646,48.0,0.0,180.0,5.0,61.0
4647,75.0,192.0,1740.0,2.0,61.0
4648,63.0,0.0,180.0,1.0,65.0
4649,63.0,96.0,180.0,10.0,57.0
4650,48.0,0.0,180.0,12.0,53.0
4651,48.0,0.0,180.0,5.0,61.0
4652,36.0,0.0,180.0,8.0,64.0
4653,48.0,0.0,180.0,8.0,64.0
4654,36.0,0.0,180.0,6.0,61.0
4655,36.0,192.0,180.0,12.0,53.0
4656,75.0,0.0,90.0,1.0,65.0
4657,75.0,0.0,90.0,10.0,57.0
4658,72.0,0.0,180.0,10.0,57.0
4659,36.0,0.0,180.0,6.0,61.0
4660,48.0,96.0,180.0,12.0,53.0
4661,48.0,0.0,180.0,8.0,64.0
4662,72.0,0.0,180.0,1.0,65.0
4663,36.0,0.0,180.0,12.0,53.0
4664,48.0,0.0,180.0,5.0,61.0
4665,67.0,0.0,180.0,0.0,80.0
4666,36.0,0.0,180.0,8.0,64.0
4667,34.0,0.0,180.0,12.0,53.0
4668,68.0,96.0,90.0,1.0,65.0
4669,46.0,0.0,180.0,8.0,64.0
4670,46.0,0.0,180.0,12.0,53.0
4671,34.0,0.0,180.0,6.0,61.0
4672,46.0,96.0,180.0,5.0,61.0
4673,34.0,0.0,180.0,8.0,64.0
4674,67.0,0.0,390.0,0.0,80.0
4675,68.0,0.0,90.0,10.0,57.0
4676,67.0,96.0,180.0,10.0,57.0
4677,67.0,0.0,180.0,1.0,65.0
4678,34.0,192.0,180.0,12.0,53.0
4679,46.0,0.0,180.0,5.0,61.0
4680,34.0,0.0,180.0,8.0,64.0
4681,46.0,0.0,180.0,8.0,64.0
4682,46.0,0.0,180.0,12.0,53.0
4683,34.0,0.0,180.0,6.0,61.0
4684,75.0,0.0,90.0,1.0,65.0
4685,75.0,0.0,90.0,10.0,57.0
4686,34.0,0.0,180.0,12.0,53.0
4687,72.0,0.0,180.0,10.0,57.0
4688,34.0,0.0,180.0,6.0,61.0
4689,46.0,0.0,180.0,5.0,61.0
4690,34.0,0.0,180.0,8.0,64.0
4691,72.0,0.0,180.0,1.0,65.0
4692,66.0,96.0,180.0,0.0,80.0
4693,46.0,0.0,180.0,8.0,64.0
4694,46.0,0.0,180.0,12.0,53.0
4695,33.0,0.0,180.0,8.0,64.0
4696,67.0,96.0,90.0,1.0,65.0
4697,45.0,96.0,180.0,5.0,61.0
4698,33.0,0.0,180.0,6.0,61.0
4699,66.0,0.0,390.0,0.0,80.0
4700,45.0,0.0,180.0,12.0,53.0
4701,67.0,0.0,90.0,10.0,57.0
4702,33.0,0.0,180.0,12.0,53.0
4703,45.0,0.0,180.0,8.0,64.0
4704,66.0,48.0,180.0,10.0,57.0
4705,66.0,0.0,180.0,1.0,65.0
4706,45.0,0.0,180.0,5.0,61.0
4707,33.0,190.0,180.0,6.0,61.0
4708,33.0,0.0,180.0,8.0,64.0
4709,45.0,0.0,180.0,8.0,64.0
4710,33.0,0.0,180.0,12.0,53.0
4711,45.0,0.0,180.0,12.0,53.0
4712,72.0,0.0,40.0,1.0,65.0
4713,72.0,48.0,40.0,10.0,57.0
4714,74.0,0.0,40.0,1.0,65.0
4715,74.0,0.0,40.0,10.0,57.0
4716,75.0,96.0,480.0,10.0,57.0
4717,67.0,0.0,180.0,0.0,80.0
4718,33.0,0.0,180.0,6.0,61.0
4719,45.0,0.0,180.0,5.0,61.0
4720,75.0,0.0,480.0,1.0,65.0
4721,45.0,0.0,180.0,8.0,64.0
4722,33.0,0.0,180.0,8.0,64.0
4723,33.0,0.0,180.0,12.0,53.0
4724,45.0,0.0,180.0,12.0,53.0
4725,42.0,0.0,180.0,5.0,61.0
4726,42.0,0.0,180.0,8.0,64.0
4727,30.0,0.0,180.0,8.0,64.0
4728,30.0,0.0,180.0,12.0,53.0
4729,69.0,0.0,570.0,11.0,53.0
4730,30.0,96.0,180.0,6.0,61.0
4731,54.0,0.0,570.0,7.0,64.0
4732,69.0,0.0,570.0,7.0,64.0
4733,69.0,0.0,570.0,2.0,61.0
4734,42.0,0.0,180.0,12.0,53.0
4735,54.0,0.0,570.0,11.0,53.0
4736,54.0,2.0,570.0,4.0,61.0
4737,30.0,190.0,180.0,6.0,61.0
4738,42.0,0.0,180.0,8.0,64.0
4739,30.0,0.0,180.0,8.0,64.0
4740,42.0,0.0,180.0,5.0,61.0
4741,30.0,0.0,180.0,12.0,53.0
4742,42.0,0.0,180.0,12.0,53.0
4743,74.0,0.0,90.0,10.0,57.0
4744,74.0,0.0,90.0,1.0,65.0
4745,42.0,0.0,180.0,5.0,61.0
4746,42.0,0.0,180.0,8.0,64.0
4747,30.0,0.0,180.0,8.0,64.0
4748,72.0,0.0,180.0,10.0,57.0
4749,72.0,0.0,180.0,1.0,65.0
4750,42.0,0.0,180.0,12.0,53.0
4751,30.0,0.0,180.0,12.0,53.0
4752,30.0,0.0,180.0,6.0,61.0
4753,31.0,0.0,180.0,6.0,61.0
4754,70.0,0.0,570.0,2.0,61.0
4755,70.0,0.0,570.0,7.0,64.0
4756,62.0,0.0,570.0,7.0,64.0
4757,62.0,0.0,570.0,11.0,53.0
4758,72.0,96.0,90.0,1.0,65.0
4759,70.0,0.0,570.0,3.0,59.0
4760,72.0,0.0,90.0,10.0,57.0
4761,69.0,0.0,300.0,0.0,80.0
4762,31.0,0.0,180.0,12.0,53.0
4763,43.0,0.0,180.0,8.0,64.0
4764,31.0,0.0,180.0,8.0,64.0
4765,62.0,2.0,570.0,4.0,61.0
4766,43.0,0.0,180.0,5.0,61.0
4767,70.0,0.0,570.0,11.0,53.0
4768,43.0,96.0,180.0,12.0,53.0
4769,70.0,0.0,180.0,1.0,65.0
4770,70.0,0.0,180.0,10.0,57.0
4771,31.0,0.0,180.0,8.0,64.0
4772,43.0,0.0,180.0,8.0,64.0
4773,31.0,0.0,180.0,6.0,61.0
4774,43.0,0.0,180.0,12.0,53.0
4775,43.0,0.0,180.0,5.0,61.0
4776,31.0,0.0,180.0,12.0,53.0
4777,66.0,0.0,90.0,0.0,80.0
4778,69.0,48.0,40.0,1.0,65.0
4779,69.0,0.0,40.0,10.0,57.0
4780,70.0,190.0,40.0,1.0,65.0
4781,70.0,0.0,40.0,10.0,57.0
4782,31.0,0.0,180.0,8.0,64.0
4783,43.0,96.0,180.0,8.0,64.0
4784,67.0,0.0,180.0,0.0,80.0
4785,31.0,0.0,180.0,6.0,61.0
4786,43.0,0.0,180.0,5.0,61.0
4787,43.0,0.0,180.0,12.0,53.0
4788,31.0,0.0,180.0,12.0,53.0
4789,72.0,96.0,480.0,1.0,65.0
4790,72.0,0.0,480.0,10.0,57.0
4791,72.0,0.0,570.0,11.0,53.0
4792,27.0,0.0,180.0,12.0,53.0
4793,72.0,0.0,570.0,2.0,61.0
4794,27.0,96.0,180.0,8.0,64.0
4795,39.0,0.0,180.0,8.0,64.0
4796,27.0,0.0,180.0,6.0,61.0
4797,67.0,96.0,570.0,7.0,64.0
4798,63.0,0.0,570.0,7.0,64.0
4799,63.0,0.0,570.0,4.0,61.0
4800,69.0,96.0,90.0,0.0,80.0
4801,63.0,2.0,570.0,11.0,53.0
4802,39.0,0.0,180.0,12.0,53.0
4803,72.0,0.0,570.0,7.0,64.0
4804,67.0,0.0,570.0,11.0,53.0
4805,67.0,0.0,570.0,3.0,59.0
4806,39.0,0.0,180.0,5.0,61.0
4807,70.0,0.0,90.0,0.0,80.0
4808,39.0,0.0,180.0,8.0,64.0
4809,27.0,0.0,180.0,8.0,64.0
4810,27.0,190.0,180.0,12.0,53.0
4811,72.0,0.0,180.0,0.0,80.0
4812,39.0,0.0,180.0,5.0,61.0
4813,39.0,0.0,180.0,12.0,53.0
4814,27.0,0.0,180.0,6.0,61.0
4815,70.0,0.0,90.0,1.0,65.0
4816,70.0,0.0,90.0,10.0,57.0
4817,39.0,0.0,180.0,8.0,64.0
4818,69.0,0.0,180.0,10.0,57.0
4819,39.0,0.0,180.0,5.0,61.0
4820,69.0,0.0,180.0,1.0,65.0
4821,27.0,0.0,180.0,12.0,53.0
4822,27.0,0.0,180.0,6.0,61.0
4823,69.0,0.0,180.0,0.0,80.0
4824,27.0,0.0,180.0,8.0,64.0
4825,39.0,0.0,180.0,12.0,53.0
4826,38.0,0.0,390.0,8.0,64.0
4827,74.0,0.0,960.0,7.0,64.0
4828,57.0,0.0,180.0,4.0,61.0
4829,74.0,0.0,960.0,2.0,61.0
4830,66.0,0.0,180.0,3.0,59.0
4831,67.0,0.0,90.0,1.0,65.0
4832,38.0,0.0,390.0,5.0,61.0
4833,66.0,0.0,390.0,0.0,80.0
4834,66.0,190.0,180.0,7.0,64.0
4835,26.0,0.0,390.0,8.0,64.0
4836,57.0,0.0,180.0,7.0,64.0
4837,26.0,0.0,390.0,6.0,61.0
4838,74.0,0.0,960.0,11.0,53.0
4839,67.0,94.0,90.0,10.0,57.0
4840,38.0,0.0,390.0,12.0,53.0
4841,26.0,0.0,390.0,12.0,53.0
4842,57.0,2.0,180.0,11.0,53.0
4843,66.0,0.0,180.0,11.0,53.0
4844,66.0,0.0,870.0,10.0,57.0
4845,66.0,0.0,870.0,1.0,65.0
4846,67.0,0.0,180.0,3.0,59.0
4847,67.0,0.0,180.0,7.0,64.0
4848,58.0,0.0,180.0,7.0,64.0
4849,58.0,0.0,180.0,4.0,61.0
4850,58.0,2.0,180.0,11.0,53.0
4851,67.0,190.0,180.0,11.0,53.0
4852,60.0,2.0,180.0,4.0,61.0
4853,69.0,190.0,180.0,3.0,59.0
4854,64.0,0.0,180.0,0.0,80.0
4855,60.0,0.0,180.0,7.0,64.0
4856,69.0,0.0,180.0,7.0,64.0
4857,60.0,0.0,180.0,11.0,53.0
4858,69.0,0.0,180.0,11.0,53.0
4859,57.0,0.0,180.0,7.0,64.0
4860,54.0,0.0,180.0,7.0,64.0
4861,57.0,0.0,180.0,11.0,53.0
4862,62.0,0.0,390.0,0.0,80.0
4863,57.0,190.0,180.0,3.0,59.0
4864,54.0,2.0,180.0,11.0,53.0
4865,54.0,0.0,180.0,4.0,61.0
4866,55.0,2.0,180.0,4.0,61.0
4867,55.0,0.0,180.0,11.0,53.0
4868,58.0,0.0,180.0,3.0,59.0
4869,58.0,0.0,180.0,7.0,64.0
4870,55.0,0.0,180.0,7.0,64.0
4871,58.0,190.0,180.0,11.0,53.0
4872,60.0,0.0,180.0,3.0,59.0
4873,60.0,48.0,180.0,11.0,53.0
4874,60.0,0.0,180.0,0.0,80.0
4875,66.0,0.0,180.0,7.0,64.0
4876,60.0,0.0,180.0,7.0,64.0
4877,57.0,2.0,180.0,7.0,64.0
4878,57.0,0.0,180.0,4.0,61.0
4879,57.0,0.0,180.0,11.0,53.0
4880,66.0,0.0,180.0,2.0,61.0
4881,66.0,0.0,180.0,11.0,53.0
4882,55.0,0.0,180.0,4.0,61.0
4883,31.0,0.0,390.0,6.0,61.0
4884,43.0,0.0,390.0,12.0,53.0
4885,31.0,0.0,390.0,12.0,53.0
4886,31.0,0.0,390.0,8.0,64.0
4887,65.0,0.0,40.0,7.0,64.0
4888,62.0,0.0,180.0,3.0,59.0
4889,43.0,0.0,390.0,5.0,61.0
4890,65.0,0.0,40.0,11.0,53.0
4891,62.0,0.0,180.0,11.0,53.0
4892,55.0,0.0,180.0,11.0,53.0
4893,43.0,0.0,390.0,8.0,64.0
4894,62.0,96.0,180.0,7.0,64.0
4895,55.0,2.0,180.0,7.0,64.0
4896,65.0,48.0,40.0,2.0,61.0
4897,59.0,0.0,180.0,0.0,80.0
4898,67.0,0.0,40.0,11.0,53.0
4899,67.0,94.0,40.0,2.0,61.0
4900,67.0,0.0,40.0,7.0,64.0
4901,68.0,0.0,300.0,2.0,61.0
4902,68.0,0.0,300.0,11.0,53.0
4903,68.0,0.0,300.0,7.0,64.0
4904,62.0,0.0,180.0,3.0,59.0
4905,55.0,2.0,180.0,7.0,64.0
4906,62.0,0.0,180.0,11.0,53.0
4907,62.0,94.0,90.0,0.0,80.0
4908,55.0,0.0,180.0,11.0,53.0
4909,62.0,0.0,180.0,7.0,64.0
4910,55.0,0.0,180.0,4.0,61.0
4911,67.0,190.0,90.0,7.0,64.0
4912,67.0,0.0,90.0,11.0,53.0
4913,67.0,0.0,90.0,2.0,61.0
4914,65.0,0.0,90.0,0.0,80.0
4915,55.0,0.0,180.0,7.0,64.0
4916,62.0,0.0,180.0,11.0,53.0
4917,62.0,190.0,180.0,3.0,59.0
4918,55.0,2.0,180.0,11.0,53.0
4919,65.0,0.0,180.0,7.0,64.0
4920,68.0,94.0,480.0,0.0,80.0
4921,65.0,0.0,180.0,2.0,61.0
4922,55.0,0.0,180.0,4.0,61.0
4923,65.0,0.0,180.0,11.0,53.0
4924,62.0,0.0,180.0,7.0,64.0
4925,62.0,0.0,180.0,7.0,64.0
4926,71.0,0.0,300.0,7.0,64.0
4927,55.0,0.0,180.0,7.0,64.0
4928,71.0,0.0,300.0,11.0,53.0
4929,62.0,0.0,180.0,11.0,53.0
4930,55.0,2.0,180.0,11.0,53.0
4931,55.0,0.0,180.0,4.0,61.0
4932,71.0,0.0,300.0,2.0,61.0
4933,62.0,96.0,180.0,3.0,59.0
4934,55.0,0.0,180.0,7.0,64.0
4935,62.0,0.0,180.0,3.0,59.0
4936,55.0,2.0,180.0,11.0,53.0
4937,62.0,0.0,180.0,11.0,53.0
4938,55.0,0.0,180.0,4.0,61.0
4939,62.0,0.0,180.0,7.0,64.0
4940,72.0,190.0,90.0,2.0,61.0
4941,72.0,0.0,90.0,7.0,64.0
4942,72.0,0.0,90.0,11.0,53.0
4943,67.0,0.0,90.0,0.0,80.0
4944,62.0,96.0,180.0,7.0,64.0
4945,55.0,2.0,180.0,4.0,61.0
4946,62.0,0.0,180.0,3.0,59.0
4947,55.0,0.0,180.0,11.0,53.0
4948,62.0,0.0,180.0,11.0,53.0
4949,65.0,0.0,180.0,0.0,80.0
4950,74.0,0.0,180.0,7.0,64.0
4951,74.0,0.0,180.0,2.0,61.0
4952,55.0,0.0,180.0,7.0,64.0
4953,74.0,0.0,180.0,11.0,53.0
4954,36.0,0.0,390.0,8.0,64.0
4955,48.0,0.0,390.0,8.0,64.0
4956,65.0,94.0,90.0,0.0,80.0
4957,55.0,0.0,180.0,4.0,61.0
4958,74.0,0.0,180.0,2.0,61.0
4959,74.0,0.0,180.0,7.0,64.0
4960,36.0,190.0,390.0,12.0,53.0
4961,63.0,0.0,180.0,3.0,59.0
4962,48.0,0.0,390.0,5.0,61.0
4963,63.0,0.0,180.0,7.0,64.0
4964,55.0,2.0,180.0,11.0,53.0
4965,63.0,190.0,180.0,11.0,53.0
4966,74.0,0.0,180.0,11.0,53.0
4967,55.0,0.0,180.0,7.0,64.0
4968,48.0,0.0,390.0,12.0,53.0
4969,36.0,0.0,390.0,6.0,61.0
4970,63.0,0.0,870.0,0.0,80.0
4971,72.0,0.0,780.0,11.0,53.0
4972,60.0,0.0,180.0,3.0,59.0
4973,51.0,2.0,180.0,11.0,53.0
4974,72.0,0.0,780.0,2.0,61.0
4975,72.0,0.0,780.0,7.0,64.0
4976,60.0,0.0,180.0,7.0,64.0
4977,51.0,0.0,180.0,7.0,64.0
4978,60.0,0.0,180.0,11.0,53.0
4979,51.0,0.0,180.0,4.0,61.0
4980,72.0,0.0,90.0,1.0,65.0
4981,72.0,0.0,90.0,10.0,57.0
4982,62.0,0.0,180.0,11.0,53.0
4983,62.0,96.0,180.0,7.0,64.0
4984,53.0,2.0,180.0,7.0,64.0
4985,53.0,0.0,180.0,11.0,53.0
4986,62.0,0.0,180.0,3.0,59.0
4987,53.0,0.0,180.0,4.0,61.0
4988,67.0,0.0,180.0,1.0,65.0
4989,67.0,0.0,180.0,10.0,57.0
4990,55.0,0.0,180.0,11.0,53.0
4991,63.0,0.0,180.0,7.0,64.0
4992,63.0,0.0,180.0,3.0,59.0
4993,65.0,94.0,90.0,10.0,57.0
4994,55.0,0.0,180.0,7.0,64.0
4995,55.0,2.0,180.0,4.0,61.0
4996,63.0,190.0,180.0,11.0,53.0
4997,65.0,0.0,90.0,1.0,65.0
4998,63.0,0.0,390.0,1.0,65.0
4999,63.0,94.0,390.0,10.0,57.0
5000,60.0,0.0,180.0,3.0,59.0
5001,57.0,2.0,180.0,7.0,64.0
5002,57.0,0.0,180.0,4.0,61.0
5003,57.0,0.0,180.0,11.0,53.0
5004,60.0,0.0,180.0,11.0,53.0
5005,60.0,96.0,180.0,7.0,64.0
5006,58.0,0.0,180.0,7.0,64.0
5007,58.0,0.0,180.0,3.0,59.0
5008,63.0,0.0,480.0,11.0,53.0
5009,63.0,0.0,480.0,2.0,61.0
5010,55.0,2.0,180.0,7.0,64.0
5011,63.0,0.0,480.0,7.0,64.0
5012,55.0,0.0,180.0,4.0,61.0
5013,67.0,190.0,180.0,0.0,80.0
5014,55.0,0.0,180.0,11.0,53.0
5015,58.0,0.0,180.0,11.0,53.0
5016,50.0,0.0,390.0,5.0,61.0
5017,57.0,0.0,180.0,3.0,59.0
5018,50.0,0.0,390.0,8.0,64.0
5019,38.0,190.0,390.0,12.0,53.0
5020,53.0,2.0,180.0,11.0,53.0
5021,57.0,96.0,180.0,11.0,53.0
5022,60.0,94.0,300.0,0.0,80.0
5023,38.0,0.0,390.0,8.0,64.0
5024,38.0,0.0,390.0,6.0,61.0
5025,53.0,0.0,180.0,4.0,61.0
5026,57.0,0.0,180.0,7.0,64.0
5027,53.0,0.0,180.0,7.0,64.0
5028,50.0,0.0,390.0,12.0,53.0
5029,55.0,0.0,180.0,7.0,64.0
5030,58.0,0.0,180.0,3.0,59.0
5031,55.0,0.0,180.0,11.0,53.0
5032,58.0,0.0,180.0,11.0,53.0
5033,58.0,0.0,180.0,7.0,64.0
5034,55.0,2.0,180.0,4.0,61.0
5035,62.0,0.0,90.0,0.0,80.0
5036,62.0,0.0,90.0,2.0,61.0
5037,62.0,0.0,90.0,11.0,53.0
5038,62.0,0.0,90.0,7.0,64.0
5039,60.0,0.0,180.0,11.0,53.0
5040,57.0,0.0,180.0,7.0,64.0
5041,57.0,0.0,180.0,11.0,53.0
5042,60.0,0.0,180.0,2.0,61.0
5043,57.0,2.0,180.0,4.0,61.0
5044,60.0,96.0,390.0,3.0,59.0
5045,60.0,190.0,180.0,7.0,64.0
5046,63.0,94.0,480.0,0.0,80.0
5047,66.0,0.0,300.0,11.0,53.0
5048,50.0,2.0,180.0,11.0,53.0
5049,66.0,0.0,300.0,2.0,61.0
5050,50.0,0.0,180.0,4.0,61.0
5051,66.0,0.0,300.0,7.0,64.0
5052,50.0,0.0,180.0,7.0,64.0
5053,58.0,0.0,180.0,7.0,64.0
5054,50.0,0.0,180.0,7.0,64.0
5055,50.0,2.0,180.0,4.0,61.0
5056,58.0,0.0,180.0,11.0,53.0
5057,58.0,0.0,180.0,3.0,59.0
5058,50.0,0.0,180.0,11.0,53.0
5059,67.0,0.0,90.0,11.0,53.0
5060,62.0,0.0,90.0,0.0,80.0
5061,67.0,0.0,90.0,2.0,61.0
5062,67.0,190.0,90.0,7.0,64.0
5063,50.0,2.0,180.0,11.0,53.0
5064,57.0,0.0,180.0,11.0,53.0
5065,69.0,0.0,180.0,11.0,53.0
5066,57.0,190.0,180.0,3.0,59.0
5067,69.0,0.0,180.0,2.0,61.0
5068,57.0,0.0,180.0,7.0,64.0
5069,60.0,0.0,180.0,0.0,80.0
5070,69.0,0.0,180.0,7.0,64.0
5071,50.0,0.0,180.0,7.0,64.0
5072,50.0,0.0,180.0,4.0,61.0
5073,67.0,0.0,960.0,2.0,61.0
5074,50.0,0.0,180.0,7.0,64.0
5075,43.0,0.0,390.0,5.0,61.0
5076,43.0,0.0,390.0,8.0,64.0
5077,58.0,0.0,180.0,7.0,64.0
5078,50.0,2.0,180.0,4.0,61.0
5079,58.0,0.0,180.0,3.0,59.0
5080,58.0,0.0,390.0,0.0,80.0
5081,31.0,0.0,390.0,8.0,64.0
5082,43.0,0.0,390.0,12.0,53.0
5083,31.0,0.0,390.0,6.0,61.0
5084,31.0,0.0,390.0,12.0,53.0
5085,50.0,0.0,180.0,11.0,53.0
5086,58.0,190.0,180.0,11.0,53.0
5087,55.0,0.0,180.0,3.0,59.0
5088,46.0,0.0,180.0,11.0,53.0
5089,46.0,0.0,180.0,4.0,61.0
5090,55.0,130.0,180.0,7.0,64.0
5091,46.0,2.0,180.0,7.0,64.0
5092,55.0,0.0,180.0,11.0,53.0
5093,67.0,0.0,90.0,1.0,65.0
5094,67.0,0.0,90.0,10.0,57.0
5095,62.0,0.0,180.0,1.0,65.0
5096,48.0,0.0,120.0,4.0,61.0
5097,48.0,0.0,120.0,7.0,64.0
5098,54.0,0.0,120.0,3.0,59.0
5099,54.0,62.0,120.0,7.0,64.0
5100,57.0,96.0,180.0,0.0,80.0
5101,54.0,0.0,120.0,11.0,53.0
5102,48.0,0.0,120.0,11.0,53.0
5103,62.0,0.0,180.0,10.0,57.0
5104,55.0,96.0,180.0,7.0,64.0
5105,50.0,0.0,180.0,7.0,64.0
5106,62.0,0.0,90.0,1.0,65.0
5107,62.0,94.0,90.0,10.0,57.0
5108,55.0,0.0,180.0,3.0,59.0
5109,58.0,94.0,300.0,0.0,80.0
5110,50.0,2.0,180.0,4.0,61.0
5111,50.0,0.0,180.0,11.0,53.0
5112,55.0,0.0,180.0,11.0,53.0
5113,58.0,130.0,300.0,10.0,57.0
5114,58.0,0.0,300.0,1.0,65.0
5115,67.0,0.0,180.0,3.0,59.0
5116,67.0,0.0,180.0,11.0,53.0
5117,67.0,0.0,180.0,7.0,64.0
5118,58.0,0.0,180.0,4.0,61.0
5119,58.0,0.0,180.0,11.0,53.0
5120,58.0,2.0,180.0,7.0,64.0
5121,62.0,0.0,90.0,0.0,80.0
5122,62.0,0.0,180.0,1.0,65.0
5123,66.0,62.0,120.0,11.0,53.0
5124,57.0,0.0,120.0,11.0,53.0
5125,66.0,0.0,120.0,3.0,59.0
5126,69.0,0.0,180.0,2.0,61.0
5127,57.0,0.0,120.0,4.0,61.0
5128,69.0,0.0,180.0,11.0,53.0
5129,57.0,0.0,120.0,7.0,64.0
5130,66.0,0.0,120.0,7.0,64.0
5131,69.0,192.0,180.0,7.0,64.0
5132,62.0,0.0,180.0,10.0,57.0
5133,60.0,0.0,180.0,0.0,80.0
5134,70.0,0.0,300.0,1.0,65.0
5135,55.0,2.0,1710.0,4.0,61.0
5136,55.0,0.0,1710.0,11.0,53.0
5137,70.0,0.0,1350.0,11.0,53.0
5138,67.0,0.0,1740.0,3.0,59.0
5139,55.0,0.0,1710.0,7.0,64.0
5140,70.0,96.0,300.0,10.0,57.0
5141,70.0,0.0,1350.0,7.0,64.0
5142,62.0,96.0,1440.0,0.0,80.0
5143,70.0,0.0,1350.0,2.0,61.0
5144,43.0,0.0,180.0,12.0,53.0
5145,55.0,0.0,180.0,5.0,61.0
5146,43.0,96.0,180.0,6.0,61.0
5147,55.0,0.0,180.0,12.0,53.0
5148,43.0,0.0,180.0,8.0,64.0
5149,55.0,0.0,180.0,8.0,64.0
5150,55.0,192.0,180.0,8.0,64.0
5151,43.0,0.0,180.0,6.0,61.0
5152,55.0,0.0,180.0,5.0,61.0
5153,55.0,0.0,180.0,12.0,53.0
5154,43.0,0.0,180.0,12.0,53.0
5155,43.0,0.0,180.0,8.0,64.0
5156,69.0,0.0,90.0,10.0,57.0
5157,69.0,0.0,90.0,1.0,65.0
5158,43.0,0.0,180.0,12.0,53.0
5159,67.0,0.0,180.0,1.0,65.0
5160,43.0,96.0,180.0,8.0,64.0
5161,55.0,0.0,180.0,8.0,64.0
5162,55.0,0.0,180.0,5.0,61.0
5163,43.0,0.0,180.0,6.0,61.0
5164,67.0,0.0,180.0,10.0,57.0
5165,55.0,0.0,180.0,12.0,53.0
5166,41.0,0.0,180.0,6.0,61.0
5167,41.0,0.0,180.0,12.0,53.0
5168,53.0,0.0,180.0,8.0,64.0
5169,41.0,0.0,180.0,8.0,64.0
5170,53.0,96.0,180.0,5.0,61.0
5171,69.0,0.0,90.0,10.0,57.0
5172,69.0,96.0,90.0,1.0,65.0
5173,53.0,0.0,180.0,12.0,53.0
5174,67.0,0.0,180.0,1.0,65.0
5175,67.0,96.0,180.0,10.0,57.0
5176,53.0,0.0,180.0,12.0,53.0
5177,41.0,0.0,180.0,8.0,64.0
5178,53.0,0.0,180.0,8.0,64.0
5179,53.0,0.0,180.0,5.0,61.0
5180,41.0,0.0,180.0,6.0,61.0
5181,41.0,0.0,180.0,12.0,53.0
5182,66.0,192.0,90.0,1.0,65.0
5183,66.0,0.0,90.0,10.0,57.0
5184,67.0,0.0,180.0,1.0,65.0
5185,41.0,192.0,180.0,8.0,64.0
5186,53.0,0.0,180.0,12.0,53.0
5187,41.0,0.0,180.0,12.0,53.0
5188,53.0,0.0,180.0,5.0,61.0
5189,53.0,0.0,180.0,8.0,64.0
5190,67.0,0.0,180.0,10.0,57.0
5191,41.0,0.0,180.0,6.0,61.0
5192,67.0,0.0,1530.0,1.0,65.0
5193,67.0,0.0,1530.0,10.0,57.0
5194,51.0,0.0,180.0,5.0,61.0
5195,51.0,0.0,180.0,8.0,64.0
5196,39.0,0.0,180.0,8.0,64.0
5197,51.0,0.0,180.0,12.0,53.0
5198,39.0,0.0,180.0,12.0,53.0
5199,39.0,96.0,180.0,6.0,61.0
5200,69.0,0.0,180.0,11.0,53.0
5201,39.0,0.0,180.0,6.0,61.0
5202,69.0,0.0,180.0,2.0,61.0
5203,51.0,0.0,180.0,5.0,61.0
5204,39.0,0.0,180.0,12.0,53.0
5205,51.0,190.0,180.0,12.0,53.0
5206,69.0,0.0,180.0,7.0,64.0
5207,39.0,0.0,180.0,8.0,64.0
5208,51.0,0.0,180.0,8.0,64.0
5209,60.0,0.0,90.0,0.0,80.0
5210,67.0,0.0,180.0,2.0,61.0
5211,51.0,0.0,180.0,8.0,64.0
5212,39.0,0.0,180.0,8.0,64.0
5213,59.0,94.0,480.0,0.0,80.0
5214,39.0,0.0,180.0,6.0,61.0
5215,51.0,190.0,180.0,5.0,61.0
5216,67.0,0.0,180.0,11.0,53.0
5217,51.0,0.0,180.0,12.0,53.0
5218,67.0,0.0,180.0,7.0,64.0
5219,39.0,0.0,180.0,12.0,53.0
5220,38.0,0.0,180.0,8.0,64.0
5221,50.0,0.0,180.0,8.0,64.0
5222,38.0,0.0,180.0,12.0,53.0
5223,71.0,0.0,570.0,11.0,53.0
5224,62.0,2.0,180.0,4.0,61.0
5225,65.0,96.0,180.0,2.0,61.0
5226,71.0,0.0,570.0,3.0,59.0
5227,65.0,0.0,180.0,11.0,53.0
5228,50.0,0.0,180.0,12.0,53.0
5229,62.0,0.0,180.0,11.0,53.0
5230,65.0,0.0,180.0,7.0,64.0
5231,71.0,0.0,570.0,7.0,64.0
5232,62.0,0.0,180.0,7.0,64.0
5233,38.0,0.0,180.0,6.0,61.0
5234,50.0,0.0,180.0,5.0,61.0
5235,63.0,0.0,180.0,7.0,64.0
5236,63.0,0.0,180.0,2.0,61.0
5237,50.0,0.0,180.0,5.0,61.0
5238,38.0,0.0,180.0,8.0,64.0
5239,63.0,2.0,180.0,4.0,61.0
5240,50.0,190.0,180.0,8.0,64.0
5241,63.0,0.0,180.0,11.0,53.0
5242,38.0,0.0,180.0,6.0,61.0
5243,50.0,0.0,180.0,12.0,53.0
5244,38.0,0.0,180.0,12.0,53.0
5245,60.0,0.0,90.0,0.0,80.0
5246,62.0,0.0,180.0,2.0,61.0
5247,50.0,192.0,180.0,12.0,53.0
5248,62.0,0.0,180.0,7.0,64.0
5249,62.0,0.0,180.0,0.0,80.0
5250,38.0,0.0,180.0,8.0,64.0
5251,65.0,0.0,180.0,7.0,64.0
5252,38.0,0.0,180.0,6.0,61.0
5253,62.0,0.0,180.0,11.0,53.0
5254,50.0,0.0,180.0,8.0,64.0
5255,65.0,0.0,180.0,11.0,53.0
5256,65.0,2.0,180.0,4.0,61.0
5257,50.0,0.0,180.0,5.0,61.0
5258,38.0,0.0,180.0,12.0,53.0
5259,63.0,48.0,300.0,0.0,80.0
5260,67.0,0.0,2310.0,2.0,61.0
5261,72.0,0.0,570.0,11.0,53.0
5262,48.0,0.0,180.0,12.0,53.0
5263,36.0,0.0,180.0,12.0,53.0
5264,48.0,0.0,180.0,5.0,61.0
5265,63.0,0.0,570.0,11.0,53.0
5266,48.0,0.0,180.0,8.0,64.0
5267,36.0,0.0,180.0,8.0,64.0
5268,72.0,0.0,570.0,7.0,64.0
5269,36.0,96.0,180.0,6.0,61.0
5270,72.0,0.0,570.0,3.0,59.0
5271,63.0,2.0,570.0,7.0,64.0
5272,63.0,0.0,570.0,4.0,61.0
5273,36.0,0.0,180.0,6.0,61.0
5274,36.0,0.0,180.0,8.0,64.0
5275,48.0,0.0,180.0,12.0,53.0
5276,48.0,0.0,180.0,8.0,64.0
5277,48.0,190.0,180.0,5.0,61.0
5278,36.0,0.0,180.0,12.0,53.0
5279,62.0,48.0,40.0,0.0,80.0
5280,63.0,0.0,40.0,0.0,80.0
5281,36.0,0.0,180.0,6.0,61.0
5282,72.0,192.0,180.0,1.0,65.0
5283,36.0,0.0,180.0,12.0,53.0
5284,72.0,0.0,180.0,10.0,57.0
5285,48.0,0.0,180.0,5.0,61.0
5286,48.0,0.0,180.0,8.0,64.0
5287,36.0,0.0,180.0,8.0,64.0
5288,65.0,96.0,480.0,0.0,80.0
5289,48.0,0.0,180.0,12.0,53.0
5290,38.0,0.0,180.0,6.0,61.0
5291,77.0,0.0,390.0,11.0,53.0
5292,62.0,0.0,570.0,11.0,53.0
5293,62.0,2.0,570.0,7.0,64.0
5294,77.0,0.0,390.0,7.0,64.0
5295,77.0,0.0,390.0,3.0,59.0
5296,38.0,0.0,180.0,8.0,64.0
5297,50.0,0.0,180.0,8.0,64.0
5298,72.0,0.0,180.0,10.0,57.0
5299,72.0,0.0,180.0,1.0,65.0
5300,62.0,0.0,570.0,4.0,61.0
5301,38.0,96.0,180.0,12.0,53.0
5302,50.0,0.0,180.0,5.0,61.0
5303,50.0,0.0,180.0,12.0,53.0
5304,38.0,190.0,180.0,6.0,61.0
5305,50.0,0.0,180.0,12.0,53.0
5306,38.0,0.0,180.0,12.0,53.0
5307,71.0,0.0,180.0,1.0,65.0
5308,71.0,0.0,180.0,10.0,57.0
5309,38.0,0.0,180.0,8.0,64.0
5310,50.0,0.0,180.0,8.0,64.0
5311,50.0,0.0,180.0,5.0,61.0
5312,63.0,0.0,90.0,0.0,80.0
5313,38.0,0.0,180.0,12.0,53.0
5314,62.0,0.0,180.0,0.0,80.0
5315,50.0,0.0,180.0,12.0,53.0
5316,50.0,0.0,180.0,5.0,61.0
5317,50.0,0.0,180.0,8.0,64.0
5318,77.0,96.0,390.0,1.0,65.0
5319,38.0,0.0,180.0,6.0,61.0
5320,77.0,0.0,390.0,10.0,57.0
5321,71.0,0.0,180.0,3.0,59.0
5322,38.0,96.0,180.0,8.0,64.0
5323,71.0,0.0,180.0,7.0,64.0
5324,71.0,0.0,180.0,11.0,53.0
5325,72.0,0.0,570.0,3.0,59.0
5326,60.0,0.0,3270.0,4.0,61.0
5327,51.0,0.0,180.0,12.0,53.0
5328,72.0,0.0,570.0,7.0,64.0
5329,72.0,0.0,570.0,11.0,53.0
5330,60.0,2.0,3270.0,11.0,53.0
5331,39.0,0.0,180.0,12.0,53.0
5332,51.0,0.0,180.0,8.0,64.0
5333,39.0,0.0,180.0,6.0,61.0
5334,39.0,0.0,180.0,8.0,64.0
5335,51.0,0.0,180.0,5.0,61.0
5336,60.0,0.0,3270.0,7.0,64.0
5337,62.0,96.0,90.0,0.0,80.0
5338,60.0,0.0,870.0,0.0,80.0
5339,48.0,0.0,180.0,8.0,64.0
5340,48.0,192.0,180.0,5.0,61.0
5341,75.0,0.0,90.0,1.0,65.0
5342,36.0,0.0,180.0,12.0,53.0
5343,48.0,0.0,180.0,12.0,53.0
5344,36.0,0.0,180.0,8.0,64.0
5345,36.0,0.0,180.0,6.0,61.0
5346,75.0,96.0,90.0,10.0,57.0
5347,77.0,0.0,90.0,10.0,57.0
5348,77.0,0.0,90.0,1.0,65.0
5349,39.0,0.0,180.0,8.0,64.0
5350,74.0,96.0,390.0,1.0,65.0
5351,39.0,0.0,180.0,6.0,61.0
5352,74.0,0.0,390.0,10.0,57.0
5353,51.0,0.0,180.0,8.0,64.0
5354,51.0,192.0,180.0,12.0,53.0
5355,39.0,0.0,180.0,12.0,53.0
5356,51.0,0.0,180.0,5.0,61.0
5357,43.0,0.0,180.0,12.0,53.0
5358,55.0,0.0,180.0,12.0,53.0
5359,55.0,0.0,180.0,5.0,61.0
5360,43.0,0.0,180.0,6.0,61.0
5361,67.0,0.0,570.0,3.0,59.0
5362,67.0,0.0,570.0,11.0,53.0
5363,43.0,0.0,180.0,8.0,64.0
5364,55.0,0.0,180.0,8.0,64.0
5365,67.0,0.0,570.0,7.0,64.0
5366,39.0,0.0,180.0,6.0,61.0
5367,51.0,0.0,180.0,12.0,53.0
5368,39.0,0.0,180.0,8.0,64.0
5369,51.0,0.0,180.0,8.0,64.0
5370,51.0,0.0,180.0,5.0,61.0
5371,72.0,96.0,90.0,1.0,65.0
5372,39.0,0.0,180.0,12.0,53.0
5373,72.0,0.0,90.0,10.0,57.0
5374,75.0,192.0,90.0,10.0,57.0
5375,75.0,0.0,90.0,1.0,65.0
5376,43.0,0.0,180.0,12.0,53.0
5377,63.0,0.0,180.0,0.0,80.0
5378,43.0,0.0,180.0,6.0,61.0
5379,55.0,0.0,180.0,12.0,53.0
5380,55.0,0.0,180.0,8.0,64.0
5381,43.0,0.0,180.0,8.0,64.0
5382,55.0,96.0,180.0,5.0,61.0
5383,70.0,0.0,180.0,10.0,57.0
5384,70.0,0.0,180.0,1.0,65.0
5385,68.0,0.0,570.0,7.0,64.0
5386,68.0,0.0,570.0,11.0,53.0
5387,75.0,0.0,1740.0,2.0,61.0
5388,68.0,0.0,390.0,0.0,80.0
5389,70.0,96.0,90.0,1.0,65.0
5390,75.0,192.0,1740.0,11.0,53.0
5391,48.0,0.0,180.0,6.0,61.0
5392,60.0,0.0,180.0,8.0,64.0
5393,75.0,0.0,1740.0,7.0,64.0
5394,70.0,0.0,90.0,10.0,57.0
5395,68.0,0.0,570.0,3.0,59.0
5396,60.0,0.0,180.0,5.0,61.0
5397,48.0,0.0,180.0,8.0,64.0
5398,48.0,0.0,180.0,12.0,53.0
5399,60.0,96.0,180.0,12.0,53.0
5400,68.0,96.0,180.0,10.0,57.0
5401,68.0,0.0,180.0,1.0,65.0
5402,48.0,192.0,180.0,6.0,61.0
5403,60.0,0.0,180.0,12.0,53.0
5404,48.0,0.0,180.0,12.0,53.0
5405,48.0,0.0,180.0,8.0,64.0
5406,60.0,0.0,180.0,8.0,64.0
5407,60.0,0.0,180.0,5.0,61.0
5408,75.0,0.0,90.0,1.0,65.0
5409,75.0,0.0,90.0,10.0,57.0
5410,48.0,0.0,180.0,8.0,64.0
5411,67.0,96.0,180.0,0.0,80.0
5412,60.0,0.0,180.0,12.0,53.0
5413,48.0,0.0,180.0,12.0,53.0
5414,72.0,0.0,180.0,10.0,57.0
5415,60.0,0.0,180.0,5.0,61.0
5416,60.0,0.0,180.0,8.0,64.0
5417,48.0,0.0,180.0,6.0,61.0
5418,72.0,0.0,180.0,1.0,65.0
5419,67.0,0.0,390.0,0.0,80.0
5420,58.0,0.0,180.0,8.0,64.0
5421,46.0,0.0,180.0,8.0,64.0
5422,58.0,0.0,180.0,5.0,61.0
5423,46.0,96.0,180.0,6.0,61.0
5424,72.0,0.0,1350.0,11.0,53.0
5425,68.0,96.0,90.0,1.0,65.0
5426,68.0,0.0,90.0,10.0,57.0
5427,72.0,0.0,1350.0,7.0,64.0
5428,72.0,0.0,1350.0,3.0,59.0
5429,58.0,0.0,180.0,12.0,53.0
5430,46.0,0.0,180.0,12.0,53.0
5431,67.0,0.0,180.0,10.0,57.0
5432,67.0,96.0,180.0,1.0,65.0
5433,58.0,0.0,180.0,12.0,53.0
5434,58.0,0.0,180.0,8.0,64.0
5435,46.0,0.0,180.0,8.0,64.0
5436,46.0,0.0,180.0,12.0,53.0
5437,46.0,0.0,180.0,6.0,61.0
5438,58.0,192.0,180.0,5.0,61.0
5439,75.0,0.0,90.0,1.0,65.0
5440,75.0,0.0,90.0,10.0,57.0
5441,46.0,0.0,180.0,12.0,53.0
5442,72.0,0.0,180.0,10.0,57.0
5443,58.0,0.0,180.0,12.0,53.0
5444,72.0,0.0,180.0,1.0,65.0
5445,58.0,96.0,180.0,5.0,61.0
5446,46.0,0.0,180.0,6.0,61.0
5447,66.0,0.0,180.0,0.0,80.0
5448,46.0,0.0,180.0,8.0,64.0
5449,58.0,0.0,180.0,8.0,64.0
5450,45.0,0.0,180.0,6.0,61.0
5451,57.0,96.0,180.0,12.0,53.0
5452,66.0,0.0,300.0,0.0,80.0
5453,57.0,0.0,180.0,8.0,64.0
5454,67.0,0.0,90.0,1.0,65.0
5455,57.0,0.0,180.0,5.0,61.0
5456,45.0,0.0,180.0,8.0,64.0
5457,45.0,0.0,180.0,12.0,53.0
5458,67.0,96.0,90.0,10.0,57.0
5459,66.0,48.0,180.0,1.0,65.0
5460,66.0,0.0,180.0,10.0,57.0
5461,57.0,0.0,180.0,12.0,53.0
5462,45.0,0.0,180.0,12.0,53.0
5463,57.0,192.0,180.0,8.0,64.0
5464,45.0,0.0,180.0,6.0,61.0
5465,45.0,0.0,180.0,8.0,64.0
5466,57.0,0.0,180.0,5.0,61.0
5467,72.0,0.0,40.0,1.0,65.0
5468,72.0,48.0,40.0,10.0,57.0
5469,60.0,0.0,40.0,0.0,80.0
5470,74.0,0.0,40.0,10.0,57.0
5471,62.0,0.0,40.0,0.0,80.0
5472,74.0,0.0,40.0,1.0,65.0
5473,75.0,94.0,480.0,1.0,65.0
5474,57.0,0.0,180.0,5.0,61.0
5475,75.0,0.0,480.0,10.0,57.0
5476,45.0,0.0,180.0,12.0,53.0
5477,57.0,0.0,180.0,12.0,53.0
5478,63.0,0.0,480.0,0.0,80.0
5479,57.0,0.0,180.0,8.0,64.0
5480,45.0,0.0,180.0,8.0,64.0
5481,45.0,0.0,180.0,6.0,61.0
5482,42.0,0.0,180.0,12.0,53.0
5483,54.0,0.0,180.0,8.0,64.0
5484,54.0,96.0,180.0,12.0,53.0
5485,42.0,0.0,180.0,8.0,64.0
5486,69.0,0.0,570.0,2.0,61.0
5487,54.0,0.0,180.0,5.0,61.0
5488,42.0,0.0,180.0,6.0,61.0
5489,54.0,0.0,180.0,8.0,64.0
5490,54.0,0.0,180.0,12.0,53.0
5491,70.0,0.0,180.0,3.0,59.0
5492,54.0,0.0,180.0,5.0,61.0
5493,42.0,190.0,180.0,12.0,53.0
5494,70.0,0.0,180.0,7.0,64.0
5495,42.0,0.0,180.0,8.0,64.0
5496,42.0,0.0,180.0,6.0,61.0
5497,70.0,0.0,180.0,11.0,53.0
5498,74.0,0.0,90.0,1.0,65.0
5499,60.0,0.0,90.0,0.0,80.0
5500,74.0,0.0,90.0,10.0,57.0
5501,72.0,0.0,180.0,10.0,57.0
5502,42.0,0.0,180.0,12.0,53.0
5503,54.0,96.0,180.0,12.0,53.0
5504,72.0,0.0,180.0,1.0,65.0
5505,62.0,0.0,180.0,11.0,53.0
5506,69.0,0.0,180.0,11.0,53.0
5507,69.0,0.0,180.0,3.0,59.0
5508,42.0,0.0,180.0,8.0,64.0
5509,69.0,0.0,180.0,7.0,64.0
5510,54.0,0.0,180.0,8.0,64.0
5511,54.0,0.0,180.0,5.0,61.0
5512,62.0,0.0,180.0,0.0,80.0
5513,62.0,0.0,180.0,4.0,61.0
5514,62.0,2.0,180.0,7.0,64.0
5515,42.0,0.0,180.0,6.0,61.0
5516,74.0,0.0,570.0,7.0,64.0
5517,67.0,0.0,1140.0,7.0,64.0
5518,55.0,0.0,1140.0,7.0,64.0
5519,72.0,0.0,90.0,10.0,57.0
5520,43.0,0.0,180.0,6.0,61.0
5521,55.0,0.0,180.0,8.0,64.0
5522,74.0,0.0,570.0,11.0,53.0
5523,67.0,0.0,1140.0,11.0,53.0
5524,55.0,0.0,1140.0,11.0,53.0
5525,74.0,192.0,570.0,2.0,61.0
5526,43.0,96.0,180.0,12.0,53.0
5527,67.0,0.0,1140.0,3.0,59.0
5528,70.0,0.0,300.0,0.0,80.0
5529,55.0,0.0,180.0,12.0,53.0
5530,55.0,2.0,1140.0,4.0,61.0
5531,72.0,96.0,90.0,1.0,65.0
5532,55.0,0.0,180.0,5.0,61.0
5533,43.0,0.0,180.0,8.0,64.0
5534,70.0,0.0,180.0,1.0,65.0
5535,70.0,48.0,180.0,10.0,57.0
5536,43.0,48.0,180.0,6.0,61.0
5537,55.0,0.0,180.0,12.0,53.0
5538,43.0,0.0,180.0,8.0,64.0
5539,43.0,0.0,180.0,12.0,53.0
5540,55.0,0.0,180.0,8.0,64.0
5541,55.0,0.0,180.0,5.0,61.0
5542,69.0,0.0,90.0,0.0,80.0
5543,69.0,0.0,40.0,1.0,65.0
5544,69.0,48.0,40.0,10.0,57.0
5545,70.0,0.0,40.0,1.0,65.0
5546,70.0,0.0,40.0,10.0,57.0
5547,43.0,0.0,180.0,6.0,61.0
5548,72.0,0.0,480.0,1.0,65.0
5549,55.0,0.0,180.0,8.0,64.0
5550,43.0,0.0,180.0,8.0,64.0
5551,72.0,96.0,480.0,10.0,57.0
5552,43.0,0.0,180.0,12.0,53.0
5553,55.0,0.0,180.0,5.0,61.0
5554,55.0,0.0,180.0,12.0,53.0
5555,69.0,48.0,40.0,0.0,80.0
5556,70.0,96.0,40.0,0.0,80.0
5557,72.0,0.0,390.0,0.0,80.0
5558,39.0,0.0,180.0,12.0,53.0
5559,70.0,0.0,570.0,2.0,61.0
5560,51.0,0.0,180.0,5.0,61.0
5561,70.0,96.0,570.0,7.0,64.0
5562,51.0,0.0,180.0,8.0,64.0
5563,39.0,96.0,180.0,8.0,64.0
5564,70.0,0.0,570.0,11.0,53.0
5565,39.0,0.0,180.0,6.0,61.0
5566,51.0,0.0,180.0,12.0,53.0
5567,51.0,0.0,180.0,12.0,53.0
5568,39.0,0.0,180.0,12.0,53.0
5569,51.0,0.0,180.0,5.0,61.0
5570,39.0,0.0,180.0,8.0,64.0
5571,51.0,0.0,180.0,8.0,64.0
5572,39.0,0.0,180.0,6.0,61.0
5573,70.0,190.0,90.0,0.0,80.0
5574,70.0,0.0,90.0,10.0,57.0
5575,70.0,0.0,90.0,1.0,65.0
5576,69.0,0.0,180.0,1.0,65.0
5577,39.0,0.0,180.0,12.0,53.0
5578,51.0,0.0,180.0,12.0,53.0
5579,39.0,0.0,180.0,8.0,64.0
5580,51.0,0.0,180.0,8.0,64.0
5581,69.0,0.0,180.0,10.0,57.0
5582,69.0,0.0,180.0,0.0,80.0
5583,39.0,0.0,180.0,6.0,61.0
5584,51.0,0.0,180.0,5.0,61.0
5585,67.0,96.0,90.0,1.0,65.0
5586,62.0,0.0,960.0,7.0,64.0
5587,74.0,96.0,960.0,2.0,61.0
5588,72.0,0.0,960.0,7.0,64.0
5589,38.0,0.0,180.0,8.0,64.0
5590,67.0,0.0,90.0,10.0,57.0
5591,38.0,0.0,180.0,12.0,53.0
5592,50.0,0.0,180.0,12.0,53.0
5593,50.0,192.0,180.0,5.0,61.0
5594,50.0,0.0,180.0,8.0,64.0
5595,72.0,0.0,960.0,3.0,59.0
5596,62.0,2.0,960.0,11.0,53.0
5597,72.0,0.0,960.0,11.0,53.0
5598,74.0,0.0,960.0,11.0,53.0
5599,62.0,0.0,960.0,4.0,61.0
5600,66.0,0.0,390.0,0.0,80.0
5601,74.0,0.0,960.0,7.0,64.0
5602,38.0,0.0,180.0,6.0,61.0
5603,66.0,96.0,570.0,1.0,65.0
5604,66.0,0.0,570.0,10.0,57.0
5605,33.0,0.0,180.0,6.0,61.0
5606,45.0,192.0,180.0,8.0,64.0
5607,33.0,0.0,180.0,8.0,64.0
5608,45.0,0.0,180.0,5.0,61.0
5609,45.0,0.0,180.0,12.0,53.0
5610,33.0,0.0,180.0,12.0,53.0
5611,64.0,0.0,180.0,0.0,80.0
5612,48.0,96.0,180.0,8.0,64.0
5613,36.0,0.0,180.0,6.0,61.0
5614,36.0,0.0,180.0,12.0,53.0
5615,48.0,0.0,180.0,5.0,61.0
5616,36.0,0.0,180.0,8.0,64.0
5617,48.0,0.0,180.0,12.0,53.0
5618,62.0,0.0,390.0,0.0,80.0
5619,36.0,0.0,180.0,6.0,61.0
5620,48.0,0.0,180.0,12.0,53.0
5621,36.0,0.0,180.0,12.0,53.0
5622,48.0,0.0,180.0,8.0,64.0
5623,36.0,0.0,180.0,8.0,64.0
5624,48.0,0.0,180.0,5.0,61.0
5625,57.0,96.0,90.0,1.0,65.0
5626,57.0,0.0,90.0,10.0,57.0
5627,30.0,0.0,180.0,6.0,61.0
5628,62.0,0.0,90.0,10.0,57.0
5629,30.0,0.0,180.0,12.0,53.0
5630,42.0,0.0,180.0,12.0,53.0
5631,42.0,0.0,180.0,8.0,64.0
5632,30.0,0.0,180.0,8.0,64.0
5633,42.0,0.0,180.0,5.0,61.0
5634,62.0,94.0,90.0,1.0,65.0
5635,66.0,0.0,90.0,10.0,57.0
5636,66.0,0.0,90.0,1.0,65.0
5637,45.0,0.0,180.0,8.0,64.0
5638,45.0,0.0,180.0,5.0,61.0
5639,69.0,0.0,90.0,10.0,57.0
5640,33.0,48.0,180.0,6.0,61.0
5641,33.0,0.0,180.0,8.0,64.0
5642,69.0,96.0,90.0,1.0,65.0
5643,33.0,0.0,180.0,12.0,53.0
5644,45.0,0.0,180.0,12.0,53.0
5645,70.0,0.0,90.0,1.0,65.0
5646,70.0,0.0,90.0,10.0,57.0
5647,72.0,48.0,40.0,1.0,65.0
5648,57.0,2.0,180.0,7.0,64.0
5649,62.0,190.0,180.0,7.0,64.0
5650,66.0,0.0,180.0,7.0,64.0
5651,57.0,0.0,180.0,4.0,61.0
5652,66.0,0.0,180.0,11.0,53.0
5653,57.0,0.0,180.0,11.0,53.0
5654,62.0,0.0,180.0,11.0,53.0
5655,66.0,0.0,180.0,2.0,61.0
5656,72.0,0.0,40.0,10.0,57.0
5657,62.0,0.0,180.0,3.0,59.0
5658,70.0,94.0,40.0,10.0,57.0
5659,70.0,0.0,40.0,1.0,65.0
5660,69.0,0.0,90.0,1.0,65.0
5661,69.0,0.0,90.0,10.0,57.0
5662,67.0,0.0,180.0,10.0,57.0
5663,64.0,0.0,180.0,3.0,59.0
5664,58.0,2.0,180.0,4.0,61.0
5665,67.0,0.0,180.0,1.0,65.0
5666,64.0,0.0,180.0,7.0,64.0
5667,58.0,0.0,180.0,7.0,64.0
5668,58.0,0.0,180.0,11.0,53.0
5669,64.0,0.0,180.0,11.0,53.0
5670,67.0,0.0,180.0,11.0,53.0
5671,67.0,0.0,180.0,7.0,64.0
5672,67.0,144.0,180.0,2.0,61.0
5673,66.0,0.0,180.0,3.0,59.0
5674,69.0,0.0,180.0,7.0,64.0
5675,66.0,0.0,180.0,7.0,64.0
5676,60.0,0.0,180.0,7.0,64.0
5677,66.0,0.0,150.0,10.0,57.0
5678,60.0,0.0,180.0,11.0,53.0
5679,69.0,48.0,180.0,2.0,61.0
5680,66.0,16.0,150.0,1.0,65.0
5681,66.0,0.0,180.0,11.0,53.0
5682,69.0,0.0,180.0,11.0,53.0
5683,60.0,2.0,180.0,4.0,61.0
5684,67.0,0.0,15.0,10.0,57.0
5685,67.0,30.0,15.0,1.0,65.0
5686,50.0,2.0,180.0,4.0,61.0
5687,69.0,48.0,40.0,10.0,57.0
5688,69.0,0.0,40.0,1.0,65.0
5689,66.0,190.0,180.0,11.0,53.0
5690,69.0,0.0,180.0,2.0,61.0
5691,69.0,0.0,180.0,11.0,53.0
5692,66.0,0.0,180.0,7.0,64.0
5693,66.0,0.0,180.0,3.0,59.0
5694,69.0,0.0,180.0,7.0,64.0
5695,50.0,0.0,180.0,7.0,64.0
5696,50.0,0.0,180.0,11.0,53.0
5697,67.0,94.0,40.0,10.0,57.0
5698,67.0,0.0,40.0,1.0,65.0
5699,66.0,0.0,90.0,1.0,65.0
5700,66.0,0.0,90.0,10.0,57.0
5701,67.0,0.0,180.0,11.0,53.0
5702,50.0,2.0,180.0,11.0,53.0
5703,70.0,0.0,180.0,2.0,61.0
5704,50.0,0.0,180.0,7.0,64.0
5705,70.0,0.0,180.0,11.0,53.0
5706,63.0,0.0,180.0,10.0,57.0
5707,63.0,0.0,180.0,1.0,65.0
5708,67.0,0.0,180.0,7.0,64.0
5709,50.0,0.0,180.0,4.0,61.0
5710,70.0,0.0,180.0,7.0,64.0
5711,67.0,144.0,180.0,3.0,59.0
5712,50.0,0.0,180.0,11.0,53.0
5713,69.0,0.0,180.0,11.0,53.0
5714,72.0,0.0,180.0,11.0,53.0
5715,69.0,0.0,180.0,7.0,64.0
5716,72.0,96.0,180.0,7.0,64.0
5717,50.0,2.0,180.0,4.0,61.0
5718,62.0,46.0,150.0,1.0,65.0
5719,69.0,0.0,180.0,0.0,80.0
5720,50.0,0.0,180.0,7.0,64.0
5721,62.0,0.0,150.0,10.0,57.0
5722,69.0,0.0,180.0,3.0,59.0
5723,72.0,0.0,180.0,2.0,61.0
5724,63.0,0.0,40.0,1.0,65.0
5725,63.0,0.0,40.0,10.0,57.0
5726,50.0,2.0,960.0,4.0,61.0
5727,67.0,0.0,90.0,1.0,65.0
5728,60.0,0.0,300.0,0.0,80.0
5729,50.0,0.0,960.0,7.0,64.0
5730,57.0,0.0,900.0,7.0,64.0
5731,66.0,46.0,900.0,7.0,64.0
5732,26.0,0.0,180.0,12.0,53.0
5733,57.0,0.0,900.0,11.0,53.0
5734,66.0,0.0,900.0,11.0,53.0
5735,50.0,0.0,960.0,11.0,53.0
5736,57.0,0.0,900.0,3.0,59.0
5737,38.0,96.0,180.0,5.0,61.0
5738,38.0,0.0,180.0,12.0,53.0
5739,66.0,0.0,900.0,2.0,61.0
5740,26.0,0.0,180.0,8.0,64.0
5741,38.0,0.0,180.0,8.0,64.0
5742,26.0,0.0,180.0,6.0,61.0
5743,67.0,96.0,90.0,10.0,57.0
5744,66.0,96.0,180.0,10.0,57.0
5745,66.0,0.0,180.0,1.0,65.0
5746,38.0,0.0,180.0,8.0,64.0
5747,26.0,0.0,180.0,6.0,61.0
5748,38.0,0.0,180.0,12.0,53.0
5749,38.0,0.0,180.0,5.0,61.0
5750,26.0,0.0,180.0,8.0,64.0
5751,26.0,0.0,180.0,12.0,53.0
5752,62.0,192.0,90.0,0.0,80.0
5753,38.0,0.0,180.0,12.0,53.0
5754,26.0,192.0,180.0,12.0,53.0
5755,38.0,0.0,180.0,8.0,64.0
5756,38.0,0.0,180.0,5.0,61.0
5757,26.0,0.0,180.0,6.0,61.0
5758,26.0,0.0,180.0,8.0,64.0
5759,63.0,48.0,480.0,0.0,80.0
5760,38.0,96.0,180.0,5.0,61.0
5761,26.0,0.0,180.0,8.0,64.0
5762,38.0,0.0,180.0,12.0,53.0
5763,26.0,0.0,180.0,6.0,61.0
5764,38.0,0.0,180.0,8.0,64.0
5765,26.0,0.0,180.0,12.0,53.0
5766,38.0,0.0,180.0,5.0,61.0
5767,26.0,0.0,180.0,12.0,53.0
5768,38.0,0.0,180.0,12.0,53.0
5769,26.0,192.0,180.0,6.0,61.0
5770,38.0,0.0,180.0,8.0,64.0
5771,26.0,0.0,180.0,8.0,64.0
5772,62.0,0.0,90.0,0.0,80.0
5773,38.0,0.0,180.0,5.0,61.0
5774,60.0,48.0,180.0,0.0,80.0
5775,38.0,0.0,180.0,12.0,53.0
5776,26.0,0.0,180.0,12.0,53.0
5777,26.0,0.0,180.0,8.0,64.0
5778,26.0,0.0,180.0,6.0,61.0
5779,38.0,0.0,180.0,8.0,64.0
5780,50.0,2.0,180.0,4.0,61.0
5781,59.0,0.0,390.0,0.0,80.0
5782,43.0,0.0,390.0,8.0,64.0
5783,50.0,0.0,180.0,7.0,64.0
5784,59.0,0.0,180.0,7.0,64.0
5785,62.0,0.0,180.0,7.0,64.0
5786,31.0,0.0,390.0,8.0,64.0
5787,31.0,0.0,390.0,12.0,53.0
5788,43.0,0.0,390.0,12.0,53.0
5789,77.0,48.0,40.0,1.0,65.0
5790,62.0,0.0,180.0,11.0,53.0
5791,77.0,0.0,40.0,10.0,57.0
5792,59.0,0.0,180.0,11.0,53.0
5793,50.0,0.0,180.0,11.0,53.0
5794,31.0,0.0,390.0,6.0,61.0
5795,62.0,0.0,180.0,2.0,61.0
5796,43.0,0.0,390.0,5.0,61.0
5797,59.0,0.0,180.0,3.0,59.0
5798,75.0,0.0,40.0,1.0,65.0
5799,75.0,94.0,40.0,10.0,57.0
5800,74.0,0.0,90.0,1.0,65.0
5801,74.0,190.0,90.0,10.0,57.0
5802,72.0,144.0,180.0,10.0,57.0
5803,72.0,0.0,180.0,1.0,65.0
5804,55.0,0.0,180.0,4.0,61.0
5805,60.0,0.0,180.0,11.0,53.0
5806,63.0,0.0,180.0,11.0,53.0
5807,60.0,0.0,180.0,3.0,59.0
5808,55.0,0.0,180.0,11.0,53.0
5809,60.0,0.0,180.0,7.0,64.0
5810,55.0,2.0,180.0,7.0,64.0
5811,63.0,0.0,180.0,7.0,64.0
5812,63.0,0.0,180.0,2.0,61.0
5813,55.0,0.0,180.0,0.0,80.0
5814,62.0,0.0,180.0,3.0,59.0
5815,55.0,2.0,180.0,4.0,61.0
5816,65.0,0.0,180.0,7.0,64.0
5817,65.0,0.0,180.0,2.0,61.0
5818,71.0,0.0,150.0,1.0,65.0
5819,62.0,0.0,180.0,7.0,64.0
5820,62.0,48.0,180.0,11.0,53.0
5821,65.0,0.0,180.0,11.0,53.0
5822,55.0,0.0,180.0,7.0,64.0
5823,71.0,46.0,150.0,10.0,57.0
5824,55.0,0.0,180.0,11.0,53.0
5825,72.0,0.0,40.0,1.0,65.0
5826,72.0,0.0,40.0,10.0,57.0
5827,59.0,190.0,180.0,3.0,59.0
5828,62.0,0.0,180.0,2.0,61.0
5829,62.0,0.0,180.0,7.0,64.0
5830,59.0,0.0,180.0,7.0,64.0
5831,74.0,0.0,40.0,10.0,57.0
5832,55.0,0.0,180.0,4.0,61.0
5833,74.0,48.0,40.0,1.0,65.0
5834,55.0,0.0,180.0,11.0,53.0
5835,62.0,0.0,40.0,0.0,80.0
5836,62.0,0.0,180.0,11.0,53.0
5837,59.0,0.0,180.0,11.0,53.0
5838,55.0,2.0,180.0,7.0,64.0
5839,72.0,0.0,40.0,10.0,57.0
5840,63.0,0.0,40.0,0.0,80.0
5841,72.0,94.0,40.0,1.0,65.0
5842,71.0,0.0,90.0,10.0,57.0
5843,71.0,0.0,90.0,1.0,65.0
5844,65.0,48.0,330.0,0.0,80.0
5845,60.0,0.0,180.0,11.0,53.0
5846,55.0,0.0,180.0,11.0,53.0
5847,55.0,2.0,180.0,4.0,61.0
5848,60.0,0.0,180.0,3.0,59.0
5849,68.0,0.0,180.0,10.0,57.0
5850,63.0,48.0,180.0,11.0,53.0
5851,68.0,0.0,180.0,1.0,65.0
5852,60.0,0.0,180.0,7.0,64.0
5853,63.0,0.0,180.0,2.0,61.0
5854,63.0,0.0,180.0,7.0,64.0
5855,55.0,0.0,180.0,7.0,64.0
5856,67.0,46.0,150.0,1.0,65.0
5857,65.0,0.0,180.0,7.0,64.0
5858,62.0,0.0,180.0,3.0,59.0
5859,55.0,0.0,180.0,4.0,61.0
5860,55.0,2.0,180.0,11.0,53.0
5861,62.0,0.0,180.0,11.0,53.0
5862,65.0,0.0,180.0,11.0,53.0
5863,55.0,0.0,180.0,7.0,64.0
5864,67.0,0.0,150.0,10.0,57.0
5865,65.0,0.0,180.0,2.0,61.0
5866,62.0,0.0,180.0,7.0,64.0
5867,62.0,48.0,40.0,0.0,80.0
5868,59.0,0.0,40.0,0.0,80.0
5869,60.0,0.0,40.0,0.0,80.0
5870,68.0,96.0,40.0,10.0,57.0
5871,68.0,0.0,40.0,1.0,65.0
5872,65.0,0.0,960.0,2.0,61.0
5873,72.0,96.0,90.0,10.0,57.0
5874,72.0,0.0,90.0,1.0,65.0
5875,55.0,2.0,960.0,7.0,64.0
5876,31.0,0.0,180.0,12.0,53.0
5877,65.0,0.0,960.0,7.0,64.0
5878,65.0,96.0,300.0,0.0,80.0
5879,62.0,46.0,900.0,3.0,59.0
5880,55.0,0.0,960.0,4.0,61.0
5881,43.0,0.0,180.0,5.0,61.0
5882,55.0,0.0,960.0,11.0,53.0
5883,62.0,0.0,900.0,11.0,53.0
5884,65.0,0.0,960.0,11.0,53.0
5885,31.0,0.0,180.0,8.0,64.0
5886,31.0,0.0,180.0,6.0,61.0
5887,43.0,96.0,180.0,12.0,53.0
5888,62.0,0.0,900.0,7.0,64.0
5889,43.0,0.0,180.0,8.0,64.0
5890,71.0,48.0,1020.0,1.0,65.0
5891,71.0,0.0,1020.0,10.0,57.0
5892,31.0,0.0,180.0,8.0,64.0
5893,43.0,0.0,180.0,8.0,64.0
5894,43.0,0.0,180.0,5.0,61.0
5895,43.0,192.0,180.0,12.0,53.0
5896,31.0,0.0,180.0,6.0,61.0
5897,31.0,0.0,180.0,12.0,53.0
5898,67.0,0.0,90.0,0.0,80.0
5899,31.0,0.0,180.0,12.0,53.0
5900,43.0,0.0,180.0,12.0,53.0
5901,43.0,192.0,180.0,5.0,61.0
5902,31.0,0.0,180.0,6.0,61.0
5903,31.0,0.0,180.0,8.0,64.0
5904,43.0,0.0,180.0,8.0,64.0
5905,68.0,48.0,480.0,0.0,80.0
5906,43.0,0.0,180.0,12.0,53.0
5907,31.0,0.0,180.0,12.0,53.0
5908,31.0,0.0,180.0,6.0,61.0
5909,43.0,96.0,180.0,5.0,61.0
5910,43.0,0.0,180.0,8.0,64.0
5911,31.0,0.0,180.0,8.0,64.0
5912,31.0,0.0,180.0,12.0,53.0
5913,43.0,0.0,180.0,8.0,64.0
5914,31.0,0.0,180.0,8.0,64.0
5915,31.0,0.0,180.0,6.0,61.0
5916,43.0,0.0,180.0,5.0,61.0
5917,43.0,0.0,180.0,12.0,53.0
5918,67.0,144.0,90.0,0.0,80.0
5919,65.0,0.0,180.0,0.0,80.0
5920,43.0,0.0,180.0,8.0,64.0
5921,31.0,0.0,180.0,6.0,61.0
5922,43.0,0.0,180.0,5.0,61.0
5923,31.0,0.0,180.0,12.0,53.0
5924,43.0,0.0,180.0,12.0,53.0
5925,31.0,26.0,180.0,8.0,64.0
5926,63.0,0.0,570.0,11.0,53.0
5927,36.0,0.0,180.0,8.0,64.0
5928,24.0,0.0,180.0,6.0,61.0
5929,60.0,0.0,570.0,11.0,53.0
5930,55.0,2.0,570.0,11.0,53.0
5931,75.0,48.0,20.0,10.0,57.0
5932,63.0,0.0,180.0,0.0,80.0
5933,36.0,0.0,180.0,12.0,53.0
5934,55.0,0.0,570.0,7.0,64.0
5935,36.0,0.0,180.0,5.0,61.0
5936,55.0,0.0,570.0,4.0,61.0
5937,60.0,0.0,570.0,3.0,59.0
5938,63.0,0.0,570.0,2.0,61.0
5939,24.0,74.0,180.0,8.0,64.0
5940,63.0,0.0,570.0,7.0,64.0
5941,60.0,0.0,570.0,7.0,64.0
5942,75.0,0.0,20.0,1.0,65.0
5943,24.0,0.0,180.0,12.0,53.0
5944,77.0,118.0,20.0,1.0,65.0
5945,77.0,0.0,20.0,10.0,57.0
5946,79.0,0.0,180.0,10.0,57.0
5947,79.0,48.0,180.0,1.0,65.0
5948,36.0,0.0,180.0,12.0,53.0
5949,36.0,0.0,180.0,5.0,61.0
5950,65.0,26.0,180.0,0.0,80.0
5951,24.0,0.0,180.0,12.0,53.0
5952,24.0,0.0,180.0,6.0,61.0
5953,36.0,0.0,180.0,8.0,64.0
5954,24.0,0.0,180.0,8.0,64.0
5955,77.0,48.0,20.0,1.0,65.0
5956,77.0,0.0,20.0,10.0,57.0
5957,75.0,0.0,20.0,10.0,57.0
5958,75.0,22.0,20.0,1.0,65.0
5959,67.0,0.0,390.0,0.0,80.0
5960,77.0,0.0,20.0,1.0,65.0
5961,24.0,0.0,180.0,12.0,53.0
5962,36.0,0.0,180.0,5.0,61.0
5963,24.0,0.0,180.0,6.0,61.0
5964,24.0,26.0,180.0,8.0,64.0
5965,36.0,0.0,180.0,8.0,64.0
5966,36.0,0.0,180.0,12.0,53.0
5967,77.0,48.0,20.0,10.0,57.0
5968,75.0,0.0,20.0,10.0,57.0
5969,75.0,96.0,20.0,1.0,65.0
5970,74.0,0.0,60.0,10.0,57.0
5971,74.0,20.0,60.0,1.0,65.0
5972,72.0,0.0,20.0,10.0,57.0
5973,24.0,0.0,180.0,12.0,53.0
5974,36.0,0.0,180.0,12.0,53.0
5975,36.0,0.0,180.0,8.0,64.0
5976,24.0,0.0,180.0,6.0,61.0
5977,67.0,0.0,570.0,2.0,61.0
5978,24.0,74.0,180.0,8.0,64.0
5979,63.0,0.0,570.0,3.0,59.0
5980,36.0,0.0,180.0,5.0,61.0
5981,63.0,0.0,570.0,11.0,53.0
5982,67.0,0.0,570.0,11.0,53.0
5983,67.0,0.0,570.0,4.0,61.0
5984,63.0,0.0,570.0,7.0,64.0
5985,67.0,2.0,570.0,7.0,64.0
5986,72.0,48.0,20.0,1.0,65.0
5987,74.0,0.0,20.0,10.0,57.0
5988,74.0,118.0,20.0,1.0,65.0
5989,75.0,48.0,180.0,10.0,57.0
5990,75.0,0.0,180.0,1.0,65.0
5991,24.0,0.0,180.0,12.0,53.0
5992,36.0,0.0,180.0,5.0,61.0
5993,24.0,0.0,180.0,6.0,61.0
5994,69.0,0.0,180.0,0.0,80.0
5995,36.0,26.0,180.0,12.0,53.0
5996,36.0,0.0,180.0,8.0,64.0
5997,24.0,0.0,180.0,8.0,64.0
5998,74.0,0.0,20.0,1.0,65.0
5999,74.0,48.0,20.0,10.0,57.0
6000,72.0,0.0,20.0,10.0,57.0
6001,72.0,22.0,20.0,1.0,65.0
6002,24.0,0.0,180.0,6.0,61.0
6003,36.0,0.0,180.0,12.0,53.0
6004,24.0,0.0,180.0,12.0,53.0
6005,71.0,0.0,180.0,0.0,80.0
6006,36.0,0.0,180.0,5.0,61.0
6007,24.0,0.0,180.0,8.0,64.0
6008,74.0,0.0,20.0,10.0,57.0
6009,74.0,48.0,20.0,1.0,65.0
6010,36.0,0.0,180.0,8.0,64.0
6011,72.0,0.0,20.0,10.0,57.0
6012,72.0,96.0,20.0,1.0,65.0
6013,70.0,0.0,60.0,1.0,65.0
6014,70.0,20.0,60.0,10.0,57.0
6015,72.0,0.0,570.0,7.0,64.0
6016,72.0,26.0,300.0,0.0,80.0
6017,63.0,0.0,750.0,4.0,61.0
6018,72.0,0.0,570.0,11.0,53.0
6019,68.0,0.0,570.0,3.0,59.0
6020,63.0,2.0,750.0,11.0,53.0
6021,72.0,0.0,570.0,2.0,61.0
6022,68.0,48.0,20.0,1.0,65.0
6023,68.0,0.0,20.0,10.0,57.0
6024,63.0,0.0,750.0,7.0,64.0
6025,68.0,0.0,570.0,7.0,64.0
6026,68.0,0.0,570.0,11.0,53.0
6027,36.0,74.0,180.0,5.0,61.0
6028,24.0,0.0,180.0,12.0,53.0
6029,24.0,0.0,180.0,8.0,64.0
6030,36.0,0.0,180.0,12.0,53.0
6031,36.0,0.0,180.0,8.0,64.0
6032,24.0,0.0,180.0,6.0,61.0
6033,70.0,0.0,20.0,1.0,65.0
6034,70.0,118.0,20.0,10.0,57.0
6035,72.0,22.0,180.0,10.0,57.0
6036,72.0,0.0,180.0,1.0,65.0
6037,24.0,0.0,180.0,8.0,64.0
6038,36.0,26.0,180.0,5.0,61.0
6039,24.0,0.0,180.0,12.0,53.0
6040,36.0,0.0,180.0,12.0,53.0
6041,36.0,0.0,180.0,8.0,64.0
6042,24.0,0.0,180.0,6.0,61.0
6043,70.0,0.0,20.0,1.0,65.0
6044,70.0,22.0,20.0,10.0,57.0
6045,70.0,26.0,40.0,0.0,80.0
6046,68.0,0.0,40.0,0.0,80.0
6047,68.0,0.0,20.0,1.0,65.0
6048,68.0,22.0,20.0,10.0,57.0
6049,36.0,0.0,180.0,5.0,61.0
6050,70.0,0.0,20.0,10.0,57.0
6051,24.0,48.0,180.0,8.0,64.0
6052,24.0,0.0,180.0,12.0,53.0
6053,67.0,74.0,90.0,0.0,80.0
6054,70.0,48.0,20.0,1.0,65.0
6055,36.0,0.0,180.0,8.0,64.0
6056,24.0,0.0,180.0,6.0,61.0
6057,36.0,0.0,180.0,12.0,53.0
6058,68.0,0.0,20.0,10.0,57.0
6059,68.0,22.0,20.0,1.0,65.0
6060,67.0,22.0,60.0,1.0,65.0
6061,65.0,0.0,90.0,0.0,80.0
6062,67.0,0.0,60.0,10.0,57.0
6063,24.0,0.0,180.0,8.0,64.0
6064,66.0,0.0,40.0,1.0,65.0
6065,63.0,0.0,180.0,0.0,80.0
6066,24.0,0.0,180.0,12.0,53.0
6067,66.0,48.0,40.0,10.0,57.0
6068,72.0,0.0,90.0,3.0,59.0
6069,24.0,0.0,180.0,6.0,61.0
6070,36.0,0.0,180.0,5.0,61.0
6071,69.0,0.0,90.0,7.0,64.0
6072,36.0,0.0,180.0,12.0,53.0
6073,72.0,0.0,90.0,7.0,64.0
6074,69.0,0.0,90.0,2.0,61.0
6075,72.0,0.0,90.0,11.0,53.0
6076,69.0,0.0,90.0,11.0,53.0
6077,36.0,0.0,180.0,8.0,64.0
6078,67.0,24.0,40.0,10.0,57.0
6079,67.0,0.0,40.0,1.0,65.0
6080,66.0,24.0,20.0,7.0,64.0
6081,66.0,0.0,20.0,2.0,61.0
6082,69.0,0.0,180.0,1.0,65.0
6083,69.0,0.0,480.0,7.0,64.0
6084,69.0,0.0,480.0,11.0,53.0
6085,66.0,0.0,20.0,11.0,53.0
6086,69.0,0.0,180.0,10.0,57.0
6087,69.0,0.0,480.0,3.0,59.0
6088,67.0,0.0,20.0,2.0,61.0
6089,67.0,24.0,20.0,11.0,53.0
6090,67.0,0.0,20.0,7.0,64.0
6091,66.0,0.0,20.0,11.0,53.0
6092,66.0,0.0,20.0,2.0,61.0
6093,66.0,22.0,20.0,7.0,64.0
6094,67.0,24.0,20.0,7.0,64.0
6095,67.0,0.0,20.0,2.0,61.0
6096,67.0,0.0,20.0,11.0,53.0
6097,24.0,0.0,180.0,6.0,61.0
6098,62.0,24.0,90.0,0.0,80.0
6099,66.0,24.0,20.0,11.0,53.0
6100,62.0,2.0,570.0,11.0,53.0
6101,66.0,0.0,20.0,2.0,61.0
6102,66.0,0.0,20.0,7.0,64.0
6103,24.0,0.0,180.0,8.0,64.0
6104,36.0,0.0,180.0,8.0,64.0
6105,62.0,0.0,570.0,4.0,61.0
6106,62.0,0.0,570.0,7.0,64.0
6107,36.0,0.0,180.0,5.0,61.0
6108,36.0,0.0,180.0,12.0,53.0
6109,24.0,0.0,180.0,12.0,53.0
6110,67.0,24.0,20.0,2.0,61.0
6111,67.0,0.0,20.0,7.0,64.0
6112,67.0,0.0,20.0,11.0,53.0
6113,66.0,0.0,20.0,11.0,53.0
6114,66.0,0.0,20.0,2.0,61.0
6115,66.0,24.0,20.0,7.0,64.0
6116,67.0,0.0,20.0,7.0,64.0
6117,67.0,0.0,20.0,2.0,61.0
6118,67.0,0.0,20.0,11.0,53.0
6119,66.0,0.0,20.0,11.0,53.0
6120,60.0,0.0,90.0,0.0,80.0
6121,67.0,0.0,40.0,10.0,57.0
6122,66.0,24.0,20.0,2.0,61.0
6123,66.0,0.0,20.0,7.0,64.0
6124,67.0,24.0,40.0,1.0,65.0
6125,67.0,0.0,20.0,11.0,53.0
6126,67.0,0.0,20.0,7.0,64.0
6127,67.0,0.0,20.0,2.0,61.0
6128,66.0,0.0,40.0,10.0,57.0
6129,66.0,0.0,20.0,11.0,53.0
6130,66.0,0.0,20.0,2.0,61.0
6131,66.0,0.0,40.0,1.0,65.0
6132,66.0,24.0,20.0,7.0,64.0
6133,67.0,24.0,20.0,11.0,53.0
6134,67.0,0.0,20.0,7.0,64.0
6135,67.0,0.0,20.0,2.0,61.0
6136,67.0,0.0,40.0,10.0,57.0
6137,48.0,0.0,180.0,12.0,53.0
6138,67.0,0.0,40.0,1.0,65.0
6139,36.0,0.0,180.0,12.0,53.0
6140,66.0,24.0,20.0,2.0,61.0
6141,48.0,0.0,180.0,5.0,61.0
6142,66.0,0.0,20.0,11.0,53.0
6143,48.0,0.0,180.0,8.0,64.0
6144,36.0,0.0,180.0,6.0,61.0
6145,36.0,0.0,180.0,8.0,64.0
6146,66.0,0.0,20.0,7.0,64.0
6147,58.0,0.0,90.0,0.0,80.0
6148,67.0,0.0,20.0,7.0,64.0
6149,67.0,0.0,20.0,11.0,53.0
6150,67.0,24.0,20.0,2.0,61.0
6151,66.0,24.0,40.0,10.0,57.0
6152,66.0,0.0,40.0,1.0,65.0
6153,66.0,24.0,20.0,11.0,53.0
6154,66.0,0.0,20.0,2.0,61.0
6155,66.0,0.0,20.0,7.0,64.0
6156,67.0,0.0,20.0,7.0,64.0
6157,67.0,0.0,20.0,2.0,61.0
6158,67.0,0.0,20.0,11.0,53.0
6159,57.0,0.0,90.0,0.0,80.0
6160,66.0,0.0,20.0,7.0,64.0
6161,66.0,24.0,20.0,11.0,53.0
6162,64.0,0.0,90.0,1.0,65.0
6163,64.0,0.0,90.0,10.0,57.0
6164,66.0,0.0,20.0,2.0,61.0
6165,67.0,0.0,20.0,7.0,64.0
6166,67.0,24.0,20.0,2.0,61.0
6167,67.0,0.0,20.0,11.0,53.0
6168,66.0,0.0,20.0,7.0,64.0
6169,66.0,0.0,20.0,2.0,61.0
6170,66.0,24.0,20.0,11.0,53.0
6171,67.0,190.0,20.0,7.0,64.0
6172,67.0,0.0,20.0,2.0,61.0
6173,67.0,0.0,20.0,11.0,53.0
6174,67.0,0.0,180.0,2.0,61.0
6175,62.0,0.0,180.0,0.0,80.0
6176,67.0,0.0,180.0,3.0,59.0
6177,46.0,0.0,180.0,8.0,64.0
6178,34.0,0.0,180.0,8.0,64.0
6179,67.0,0.0,180.0,11.0,53.0
6180,62.0,0.0,180.0,10.0,57.0
6181,46.0,0.0,180.0,12.0,53.0
6182,34.0,0.0,180.0,12.0,53.0
6183,46.0,0.0,180.0,5.0,61.0
6184,67.0,0.0,180.0,7.0,64.0
6185,34.0,0.0,180.0,6.0,61.0
6186,62.0,0.0,180.0,1.0,65.0
6187,64.0,48.0,40.0,0.0,80.0
6188,33.0,0.0,180.0,8.0,64.0
6189,45.0,0.0,180.0,8.0,64.0
6190,33.0,0.0,180.0,12.0,53.0
6191,33.0,0.0,180.0,6.0,61.0
6192,45.0,96.0,180.0,5.0,61.0
6193,45.0,0.0,180.0,12.0,53.0
6194,66.0,48.0,40.0,0.0,80.0
6195,67.0,48.0,40.0,0.0,80.0
6196,69.0,0.0,40.0,0.0,80.0
6197,31.0,0.0,180.0,12.0,53.0
6198,43.0,0.0,180.0,5.0,61.0
6199,31.0,0.0,180.0,6.0,61.0
6200,70.0,96.0,90.0,0.0,80.0
6201,43.0,0.0,180.0,8.0,64.0
6202,31.0,192.0,180.0,8.0,64.0
6203,43.0,0.0,180.0,12.0,53.0
6204,69.0,0.0,90.0,0.0,80.0
6205,50.0,0.0,180.0,5.0,61.0
6206,72.0,0.0,180.0,0.0,80.0
6207,38.0,0.0,180.0,12.0,53.0
6208,50.0,192.0,180.0,8.0,64.0
6209,50.0,0.0,180.0,12.0,53.0
6210,38.0,0.0,180.0,6.0,61.0
6211,38.0,0.0,180.0,8.0,64.0
6212,38.0,0.0,180.0,8.0,64.0
6213,50.0,192.0,180.0,12.0,53.0
6214,50.0,0.0,180.0,8.0,64.0
6215,50.0,0.0,180.0,5.0,61.0
6216,38.0,0.0,180.0,6.0,61.0
6217,70.0,0.0,180.0,0.0,80.0
6218,38.0,0.0,180.0,12.0,53.0
6219,38.0,0.0,180.0,8.0,64.0
6220,69.0,0.0,180.0,0.0,80.0
6221,38.0,0.0,180.0,5.0,61.0
6222,26.0,0.0,180.0,6.0,61.0
6223,26.0,192.0,180.0,8.0,64.0
6224,26.0,0.0,180.0,12.0,53.0
6225,38.0,0.0,180.0,12.0,53.0
6226,43.0,0.0,180.0,5.0,61.0
6227,31.0,0.0,180.0,8.0,64.0
6228,67.0,192.0,570.0,0.0,80.0
6229,31.0,192.0,180.0,6.0,61.0
6230,43.0,0.0,180.0,12.0,53.0
6231,31.0,0.0,180.0,12.0,53.0
6232,43.0,0.0,180.0,8.0,64.0
6233,34.0,0.0,180.0,12.0,53.0
6234,22.0,0.0,180.0,8.0,64.0
6235,22.0,0.0,180.0,6.0,61.0
6236,22.0,192.0,180.0,12.0,53.0
6237,34.0,0.0,180.0,8.0,64.0
6238,34.0,0.0,180.0,5.0,61.0
6239,26.0,0.0,180.0,12.0,53.0
6240,26.0,0.0,180.0,8.0,64.0
6241,38.0,0.0,180.0,12.0,53.0
6242,38.0,0.0,180.0,8.0,64.0
6243,38.0,0.0,180.0,5.0,61.0
6244,26.0,0.0,180.0,6.0,61.0
6245,43.0,0.0,180.0,12.0,53.0
6246,31.0,0.0,180.0,8.0,64.0
6247,67.0,0.0,390.0,0.0,80.0
6248,43.0,192.0,180.0,5.0,61.0
6249,31.0,0.0,180.0,12.0,53.0
6250,43.0,0.0,180.0,8.0,64.0
6251,31.0,0.0,180.0,6.0,61.0
6252,34.0,192.0,180.0,6.0,61.0
6253,46.0,0.0,180.0,8.0,64.0
6254,46.0,0.0,180.0,5.0,61.0
6255,34.0,0.0,180.0,12.0,53.0
6256,34.0,0.0,180.0,8.0,64.0
6257,46.0,0.0,180.0,12.0,53.0
6258,38.0,0.0,180.0,6.0,61.0
6259,38.0,0.0,180.0,8.0,64.0
6260,50.0,0.0,180.0,8.0,64.0
6261,62.0,0.0,180.0,1.0,65.0
6262,50.0,48.0,180.0,12.0,53.0
6263,50.0,0.0,180.0,5.0,61.0
6264,38.0,0.0,180.0,12.0,53.0
6265,62.0,0.0,180.0,10.0,57.0
6266,43.0,0.0,180.0,12.0,53.0
6267,67.0,48.0,40.0,1.0,65.0
6268,67.0,0.0,40.0,10.0,57.0
6269,62.0,0.0,1140.0,3.0,59.0
6270,58.0,2.0,1710.0,4.0,61.0
6271,43.0,0.0,180.0,6.0,61.0
6272,55.0,0.0,180.0,8.0,64.0
6273,67.0,0.0,1740.0,2.0,61.0
6274,55.0,0.0,180.0,12.0,53.0
6275,55.0,96.0,180.0,5.0,61.0
6276,43.0,0.0,180.0,8.0,64.0
6277,67.0,0.0,1740.0,7.0,64.0
6278,62.0,192.0,1140.0,7.0,64.0
6279,67.0,192.0,1740.0,11.0,53.0
6280,62.0,0.0,1140.0,11.0,53.0
6281,58.0,0.0,1710.0,11.0,53.0
6282,58.0,0.0,1710.0,7.0,64.0
6283,69.0,0.0,40.0,10.0,57.0
6284,69.0,96.0,40.0,1.0,65.0
6285,70.0,96.0,180.0,1.0,65.0
6286,70.0,0.0,180.0,10.0,57.0
6287,43.0,0.0,180.0,8.0,64.0
6288,55.0,0.0,180.0,8.0,64.0
6289,55.0,0.0,180.0,5.0,61.0
6290,43.0,0.0,180.0,6.0,61.0
6291,55.0,192.0,180.0,12.0,53.0
6292,43.0,0.0,180.0,12.0,53.0
6293,69.0,0.0,90.0,10.0,57.0
6294,69.0,0.0,90.0,1.0,65.0
6295,55.0,0.0,180.0,8.0,64.0
6296,43.0,0.0,180.0,8.0,64.0
6297,67.0,0.0,180.0,1.0,65.0
6298,67.0,0.0,180.0,10.0,57.0
6299,43.0,96.0,180.0,12.0,53.0
6300,55.0,0.0,180.0,12.0,53.0
6301,43.0,0.0,180.0,6.0,61.0
6302,55.0,0.0,180.0,5.0,61.0
6303,53.0,0.0,180.0,5.0,61.0
6304,69.0,0.0,90.0,10.0,57.0
6305,69.0,96.0,90.0,1.0,65.0
6306,41.0,0.0,180.0,12.0,53.0
6307,53.0,0.0,180.0,8.0,64.0
6308,41.0,0.0,180.0,8.0,64.0
6309,53.0,0.0,180.0,12.0,53.0
6310,41.0,96.0,180.0,6.0,61.0
6311,67.0,96.0,180.0,1.0,65.0
6312,67.0,0.0,180.0,10.0,57.0
6313,53.0,0.0,180.0,8.0,64.0
6314,41.0,0.0,180.0,8.0,64.0
6315,41.0,192.0,180.0,12.0,53.0
6316,41.0,0.0,180.0,6.0,61.0
6317,53.0,0.0,180.0,12.0,53.0
6318,53.0,0.0,180.0,5.0,61.0
6319,66.0,0.0,90.0,10.0,57.0
6320,66.0,0.0,90.0,1.0,65.0
6321,53.0,0.0,180.0,5.0,61.0
6322,67.0,0.0,180.0,10.0,57.0
6323,53.0,0.0,180.0,8.0,64.0
6324,41.0,0.0,180.0,6.0,61.0
6325,67.0,0.0,180.0,1.0,65.0
6326,53.0,0.0,180.0,12.0,53.0
6327,41.0,0.0,180.0,12.0,53.0
6328,41.0,0.0,180.0,8.0,64.0
6329,63.0,0.0,570.0,11.0,53.0
6330,51.0,0.0,180.0,5.0,61.0
6331,67.0,0.0,960.0,1.0,65.0
6332,39.0,0.0,180.0,6.0,61.0
6333,51.0,0.0,180.0,8.0,64.0
6334,51.0,0.0,180.0,12.0,53.0
6335,39.0,192.0,180.0,12.0,53.0
6336,67.0,190.0,960.0,10.0,57.0
6337,63.0,0.0,570.0,3.0,59.0
6338,39.0,0.0,180.0,8.0,64.0
6339,63.0,0.0,570.0,7.0,64.0
6340,51.0,190.0,180.0,5.0,61.0
6341,51.0,0.0,180.0,8.0,64.0
6342,51.0,0.0,180.0,12.0,53.0
6343,39.0,0.0,180.0,8.0,64.0
6344,39.0,0.0,180.0,6.0,61.0
6345,39.0,0.0,180.0,12.0,53.0
6346,51.0,0.0,180.0,5.0,61.0
6347,39.0,0.0,180.0,8.0,64.0
6348,51.0,0.0,180.0,8.0,64.0
6349,39.0,0.0,180.0,12.0,53.0
6350,51.0,0.0,180.0,12.0,53.0
6351,39.0,0.0,180.0,6.0,61.0
6352,38.0,0.0,180.0,8.0,64.0
6353,65.0,0.0,570.0,7.0,64.0
6354,71.0,0.0,570.0,7.0,64.0
6355,65.0,0.0,570.0,11.0,53.0
6356,50.0,0.0,180.0,8.0,64.0
6357,50.0,0.0,180.0,5.0,61.0
6358,71.0,0.0,570.0,11.0,53.0
6359,62.0,2.0,570.0,7.0,64.0
6360,62.0,0.0,570.0,11.0,53.0
6361,38.0,0.0,180.0,6.0,61.0
6362,65.0,0.0,570.0,3.0,59.0
6363,62.0,0.0,570.0,4.0,61.0
6364,38.0,192.0,180.0,12.0,53.0
6365,50.0,0.0,180.0,12.0,53.0
6366,71.0,0.0,570.0,2.0,61.0
6367,50.0,0.0,180.0,5.0,61.0
6368,38.0,0.0,180.0,12.0,53.0
6369,50.0,0.0,180.0,12.0,53.0
6370,50.0,0.0,180.0,8.0,64.0
6371,38.0,0.0,180.0,6.0,61.0
6372,38.0,0.0,180.0,8.0,64.0
6373,50.0,0.0,180.0,8.0,64.0
6374,38.0,192.0,180.0,8.0,64.0
6375,67.0,0.0,180.0,1.0,65.0
6376,38.0,0.0,180.0,6.0,61.0
6377,50.0,0.0,180.0,12.0,53.0
6378,38.0,0.0,180.0,12.0,53.0
6379,50.0,0.0,180.0,5.0,61.0
6380,67.0,0.0,180.0,10.0,57.0
6381,75.0,48.0,300.0,1.0,65.0
6382,36.0,96.0,180.0,6.0,61.0
6383,48.0,0.0,180.0,12.0,53.0
6384,55.0,0.0,570.0,11.0,53.0
6385,67.0,0.0,2310.0,11.0,53.0
6386,36.0,0.0,180.0,12.0,53.0
6387,72.0,0.0,570.0,11.0,53.0
6388,36.0,0.0,180.0,8.0,64.0
6389,48.0,0.0,180.0,5.0,61.0
6390,75.0,0.0,300.0,10.0,57.0
6391,55.0,0.0,570.0,7.0,64.0
6392,72.0,0.0,570.0,2.0,61.0
6393,55.0,2.0,570.0,4.0,61.0
6394,67.0,0.0,2310.0,7.0,64.0
6395,72.0,0.0,570.0,7.0,64.0
6396,67.0,0.0,2310.0,3.0,59.0
6397,48.0,0.0,180.0,8.0,64.0
6398,36.0,0.0,180.0,6.0,61.0
6399,48.0,0.0,180.0,12.0,53.0
6400,48.0,0.0,180.0,5.0,61.0
6401,36.0,0.0,180.0,12.0,53.0
6402,48.0,0.0,180.0,8.0,64.0
6403,36.0,190.0,180.0,8.0,64.0
6404,74.0,0.0,40.0,1.0,65.0
6405,74.0,48.0,40.0,10.0,57.0
6406,75.0,0.0,40.0,10.0,57.0
6407,75.0,0.0,40.0,1.0,65.0
6408,48.0,192.0,180.0,8.0,64.0
6409,36.0,0.0,180.0,8.0,64.0
6410,77.0,96.0,480.0,10.0,57.0
6411,48.0,0.0,180.0,5.0,61.0
6412,36.0,0.0,180.0,6.0,61.0
6413,77.0,0.0,480.0,1.0,65.0
6414,36.0,0.0,180.0,12.0,53.0
6415,48.0,0.0,180.0,12.0,53.0
6416,71.0,0.0,570.0,2.0,61.0
6417,71.0,0.0,570.0,7.0,64.0
6418,53.0,2.0,570.0,7.0,64.0
6419,38.0,0.0,180.0,8.0,64.0
6420,50.0,96.0,180.0,8.0,64.0
6421,50.0,0.0,180.0,12.0,53.0
6422,50.0,0.0,180.0,5.0,61.0
6423,38.0,0.0,180.0,12.0,53.0
6424,38.0,0.0,180.0,6.0,61.0
6425,53.0,0.0,570.0,4.0,61.0
6426,53.0,0.0,570.0,11.0,53.0
6427,71.0,0.0,570.0,11.0,53.0
6428,38.0,0.0,180.0,12.0,53.0
6429,50.0,0.0,180.0,5.0,61.0
6430,50.0,0.0,180.0,8.0,64.0
6431,38.0,0.0,180.0,8.0,64.0
6432,50.0,190.0,180.0,12.0,53.0
6433,38.0,0.0,180.0,6.0,61.0
6434,75.0,0.0,90.0,1.0,65.0
6435,75.0,0.0,90.0,10.0,57.0
6436,74.0,0.0,180.0,1.0,65.0
6437,50.0,0.0,180.0,5.0,61.0
6438,50.0,0.0,180.0,12.0,53.0
6439,50.0,0.0,180.0,8.0,64.0
6440,38.0,0.0,180.0,8.0,64.0
6441,38.0,0.0,180.0,12.0,53.0
6442,74.0,96.0,180.0,10.0,57.0
6443,38.0,0.0,180.0,6.0,61.0
6444,39.0,0.0,180.0,8.0,64.0
6445,51.0,192.0,180.0,8.0,64.0
6446,51.0,0.0,180.0,5.0,61.0
6447,74.0,0.0,90.0,10.0,57.0
6448,72.0,0.0,1140.0,7.0,64.0
6449,39.0,0.0,180.0,6.0,61.0
6450,72.0,0.0,1140.0,2.0,61.0
6451,51.0,2.0,570.0,4.0,61.0
6452,74.0,96.0,90.0,1.0,65.0
6453,72.0,0.0,1140.0,11.0,53.0
6454,51.0,0.0,180.0,12.0,53.0
6455,39.0,0.0,180.0,12.0,53.0
6456,51.0,0.0,570.0,11.0,53.0
6457,51.0,0.0,570.0,7.0,64.0
6458,72.0,96.0,780.0,1.0,65.0
6459,72.0,0.0,780.0,10.0,57.0
6460,48.0,0.0,180.0,12.0,53.0
6461,36.0,0.0,180.0,12.0,53.0
6462,48.0,0.0,180.0,5.0,61.0
6463,36.0,190.0,180.0,6.0,61.0
6464,36.0,0.0,180.0,8.0,64.0
6465,48.0,0.0,180.0,8.0,64.0
6466,39.0,0.0,180.0,8.0,64.0
6467,51.0,0.0,180.0,8.0,64.0
6468,51.0,192.0,180.0,5.0,61.0
6469,39.0,0.0,180.0,12.0,53.0
6470,51.0,0.0,180.0,12.0,53.0
6471,39.0,0.0,180.0,6.0,61.0
6472,43.0,0.0,180.0,6.0,61.0
6473,63.0,0.0,570.0,4.0,61.0
6474,55.0,96.0,180.0,8.0,64.0
6475,43.0,0.0,180.0,12.0,53.0
6476,63.0,0.0,570.0,11.0,53.0
6477,63.0,2.0,570.0,7.0,64.0
6478,43.0,0.0,180.0,8.0,64.0
6479,55.0,0.0,180.0,5.0,61.0
6480,55.0,0.0,180.0,12.0,53.0
6481,39.0,0.0,180.0,8.0,64.0
6482,51.0,0.0,180.0,8.0,64.0
6483,51.0,0.0,180.0,12.0,53.0
6484,39.0,0.0,180.0,12.0,53.0
6485,51.0,0.0,180.0,5.0,61.0
6486,39.0,0.0,180.0,6.0,61.0
6487,75.0,190.0,90.0,10.0,57.0
6488,75.0,0.0,90.0,1.0,65.0
6489,43.0,0.0,180.0,6.0,61.0
6490,72.0,0.0,180.0,1.0,65.0
6491,43.0,0.0,180.0,12.0,53.0
6492,55.0,96.0,180.0,5.0,61.0
6493,55.0,0.0,180.0,12.0,53.0
6494,72.0,0.0,180.0,10.0,57.0
6495,55.0,0.0,180.0,8.0,64.0
6496,43.0,0.0,180.0,8.0,64.0
6497,72.0,0.0,2310.0,7.0,64.0
6498,75.0,0.0,1740.0,2.0,61.0
6499,70.0,0.0,90.0,1.0,65.0
6500,60.0,0.0,180.0,12.0,53.0
6501,48.0,96.0,180.0,12.0,53.0
6502,70.0,96.0,90.0,10.0,57.0
6503,68.0,0.0,570.0,4.0,61.0
6504,60.0,0.0,180.0,5.0,61.0
6505,72.0,0.0,2310.0,11.0,53.0
6506,75.0,0.0,1740.0,7.0,64.0
6507,68.0,2.0,570.0,11.0,53.0
6508,48.0,0.0,180.0,6.0,61.0
6509,72.0,0.0,2310.0,3.0,59.0
6510,48.0,0.0,180.0,8.0,64.0
6511,60.0,0.0,180.0,8.0,64.0
6512,68.0,0.0,570.0,7.0,64.0
6513,75.0,192.0,1740.0,11.0,53.0
6514,68.0,96.0,180.0,1.0,65.0
6515,68.0,0.0,180.0,10.0,57.0
6516,60.0,0.0,180.0,12.0,53.0
6517,48.0,0.0,180.0,12.0,53.0
6518,48.0,190.0,180.0,8.0,64.0
6519,48.0,0.0,180.0,6.0,61.0
6520,60.0,0.0,180.0,8.0,64.0
6521,60.0,0.0,180.0,5.0,61.0
6522,75.0,0.0,90.0,10.0,57.0
6523,75.0,0.0,90.0,1.0,65.0
6524,72.0,0.0,180.0,1.0,65.0
6525,60.0,0.0,180.0,8.0,64.0
6526,48.0,0.0,180.0,12.0,53.0
6527,60.0,0.0,180.0,12.0,53.0
6528,72.0,0.0,180.0,10.0,57.0
6529,60.0,0.0,180.0,5.0,61.0
6530,48.0,0.0,180.0,6.0,61.0
6531,48.0,96.0,180.0,8.0,64.0
6532,58.0,0.0,180.0,8.0,64.0
6533,46.0,0.0,180.0,8.0,64.0
6534,68.0,0.0,90.0,10.0,57.0
6535,58.0,96.0,180.0,5.0,61.0
6536,67.0,2.0,570.0,11.0,53.0
6537,67.0,0.0,570.0,7.0,64.0
6538,68.0,96.0,90.0,1.0,65.0
6539,67.0,0.0,570.0,4.0,61.0
6540,46.0,0.0,180.0,12.0,53.0
6541,58.0,0.0,180.0,12.0,53.0
6542,46.0,0.0,180.0,6.0,61.0
6543,67.0,0.0,180.0,1.0,65.0
6544,67.0,96.0,180.0,10.0,57.0
6545,46.0,0.0,180.0,6.0,61.0
6546,58.0,0.0,180.0,5.0,61.0
6547,58.0,0.0,180.0,8.0,64.0
6548,46.0,0.0,180.0,8.0,64.0
6549,46.0,0.0,180.0,12.0,53.0
6550,58.0,0.0,180.0,12.0,53.0
6551,75.0,190.0,90.0,10.0,57.0
6552,75.0,0.0,90.0,1.0,65.0
6553,46.0,96.0,180.0,12.0,53.0
6554,46.0,0.0,180.0,8.0,64.0
6555,58.0,0.0,180.0,8.0,64.0
6556,58.0,0.0,180.0,5.0,61.0
6557,58.0,0.0,180.0,12.0,53.0
6558,72.0,0.0,180.0,10.0,57.0
6559,46.0,0.0,180.0,6.0,61.0
6560,72.0,0.0,180.0,1.0,65.0
6561,66.0,0.0,570.0,11.0,53.0
6562,66.0,0.0,570.0,4.0,61.0
6563,67.0,0.0,90.0,1.0,65.0
6564,67.0,96.0,90.0,10.0,57.0
6565,45.0,0.0,180.0,6.0,61.0
6566,66.0,2.0,570.0,7.0,64.0
6567,57.0,0.0,180.0,12.0,53.0
6568,57.0,0.0,180.0,5.0,61.0
6569,45.0,96.0,180.0,8.0,64.0
6570,45.0,0.0,180.0,12.0,53.0
6571,57.0,0.0,180.0,8.0,64.0
6572,66.0,0.0,180.0,1.0,65.0
6573,66.0,48.0,180.0,10.0,57.0
6574,45.0,0.0,180.0,8.0,64.0
6575,57.0,190.0,180.0,5.0,61.0
6576,57.0,0.0,180.0,8.0,64.0
6577,57.0,0.0,180.0,12.0,53.0
6578,45.0,0.0,180.0,12.0,53.0
6579,45.0,0.0,180.0,6.0,61.0
6580,72.0,0.0,40.0,1.0,65.0
6581,72.0,48.0,40.0,10.0,57.0
6582,74.0,0.0,40.0,1.0,65.0
6583,74.0,0.0,40.0,10.0,57.0
6584,45.0,0.0,180.0,12.0,53.0
6585,57.0,0.0,180.0,12.0,53.0
6586,57.0,0.0,180.0,5.0,61.0
6587,75.0,96.0,480.0,1.0,65.0
6588,57.0,0.0,180.0,8.0,64.0
6589,75.0,0.0,480.0,10.0,57.0
6590,45.0,0.0,180.0,8.0,64.0
6591,45.0,0.0,180.0,6.0,61.0
6592,69.0,0.0,570.0,4.0,61.0
6593,69.0,2.0,570.0,11.0,53.0
6594,42.0,0.0,180.0,6.0,61.0
6595,42.0,0.0,180.0,8.0,64.0
6596,54.0,96.0,180.0,12.0,53.0
6597,42.0,0.0,180.0,12.0,53.0
6598,69.0,0.0,570.0,2.0,61.0
6599,54.0,0.0,180.0,5.0,61.0
6600,69.0,0.0,570.0,7.0,64.0
6601,54.0,0.0,180.0,8.0,64.0
6602,42.0,0.0,180.0,12.0,53.0
6603,54.0,0.0,180.0,12.0,53.0
6604,42.0,190.0,180.0,6.0,61.0
6605,42.0,0.0,180.0,8.0,64.0
6606,54.0,0.0,180.0,8.0,64.0
6607,54.0,0.0,180.0,5.0,61.0
6608,74.0,0.0,90.0,10.0,57.0
6609,74.0,0.0,90.0,1.0,65.0
6610,42.0,0.0,180.0,6.0,61.0
6611,54.0,0.0,180.0,5.0,61.0
6612,54.0,0.0,180.0,8.0,64.0
6613,42.0,0.0,180.0,12.0,53.0
6614,42.0,0.0,180.0,8.0,64.0
6615,54.0,0.0,180.0,12.0,53.0
6616,72.0,0.0,180.0,1.0,65.0
6617,72.0,24.0,180.0,10.0,57.0
6618,70.0,0.0,20.0,1.0,65.0
6619,62.0,0.0,570.0,11.0,53.0
6620,70.0,24.0,20.0,10.0,57.0
6621,70.0,0.0,570.0,11.0,53.0
6622,62.0,0.0,570.0,4.0,61.0
6623,43.0,0.0,180.0,6.0,61.0
6624,70.0,0.0,570.0,7.0,64.0
6625,70.0,0.0,570.0,2.0,61.0
6626,43.0,24.0,180.0,12.0,53.0
6627,55.0,0.0,180.0,12.0,53.0
6628,55.0,0.0,180.0,8.0,64.0
6629,43.0,0.0,180.0,8.0,64.0
6630,70.0,0.0,570.0,3.0,59.0
6631,62.0,2.0,570.0,7.0,64.0
6632,55.0,0.0,180.0,5.0,61.0
6633,72.0,0.0,20.0,10.0,57.0
6634,72.0,24.0,20.0,1.0,65.0
6635,70.0,24.0,20.0,1.0,65.0
6636,70.0,0.0,20.0,10.0,57.0
6637,72.0,0.0,20.0,10.0,57.0
6638,72.0,24.0,20.0,1.0,65.0
6639,70.0,0.0,20.0,1.0,65.0
6640,70.0,24.0,20.0,10.0,57.0
6641,72.0,24.0,20.0,1.0,65.0
6642,72.0,0.0,20.0,10.0,57.0
6643,70.0,24.0,20.0,10.0,57.0
6644,70.0,0.0,20.0,1.0,65.0
6645,72.0,0.0,20.0,1.0,65.0
6646,72.0,0.0,20.0,10.0,57.0
6647,43.0,0.0,180.0,8.0,64.0
6648,55.0,190.0,180.0,8.0,64.0
6649,43.0,0.0,180.0,12.0,53.0
6650,55.0,0.0,180.0,12.0,53.0
6651,70.0,24.0,20.0,1.0,65.0
6652,55.0,0.0,180.0,5.0,61.0
6653,70.0,0.0,20.0,10.0,57.0
6654,43.0,0.0,180.0,6.0,61.0
6655,72.0,0.0,20.0,10.0,57.0
6656,72.0,24.0,20.0,1.0,65.0
6657,70.0,24.0,20.0,1.0,65.0
6658,70.0,0.0,20.0,10.0,57.0
6659,72.0,48.0,20.0,10.0,57.0
6660,72.0,0.0,20.0,1.0,65.0
6661,69.0,48.0,40.0,1.0,65.0
6662,69.0,0.0,40.0,10.0,57.0
6663,70.0,0.0,40.0,1.0,65.0
6664,70.0,0.0,40.0,10.0,57.0
6665,55.0,0.0,180.0,12.0,53.0
6666,43.0,0.0,180.0,6.0,61.0
6667,55.0,0.0,180.0,5.0,61.0
6668,72.0,0.0,480.0,1.0,65.0
6669,55.0,0.0,180.0,8.0,64.0
6670,43.0,0.0,180.0,12.0,53.0
6671,43.0,0.0,180.0,8.0,64.0
6672,72.0,96.0,480.0,10.0,57.0
6673,51.0,0.0,180.0,12.0,53.0
6674,63.0,0.0,570.0,4.0,61.0
6675,72.0,0.0,570.0,2.0,61.0
6676,72.0,0.0,570.0,11.0,53.0
6677,72.0,0.0,570.0,7.0,64.0
6678,39.0,0.0,180.0,12.0,53.0
6679,67.0,0.0,570.0,3.0,59.0
6680,51.0,0.0,180.0,8.0,64.0
6681,67.0,0.0,570.0,7.0,64.0
6682,63.0,0.0,570.0,7.0,64.0
6683,63.0,2.0,570.0,11.0,53.0
6684,67.0,0.0,570.0,11.0,53.0
6685,39.0,0.0,180.0,6.0,61.0
6686,39.0,0.0,180.0,8.0,64.0
6687,51.0,96.0,180.0,5.0,61.0
6688,39.0,0.0,180.0,8.0,64.0
6689,51.0,0.0,180.0,8.0,64.0
6690,39.0,0.0,180.0,6.0,61.0
6691,51.0,0.0,180.0,12.0,53.0
6692,51.0,0.0,180.0,5.0,61.0
6693,39.0,0.0,180.0,12.0,53.0
6694,70.0,190.0,90.0,1.0,65.0
6695,70.0,0.0,90.0,10.0,57.0
6696,39.0,0.0,180.0,12.0,53.0
6697,51.0,0.0,180.0,12.0,53.0
6698,69.0,0.0,180.0,1.0,65.0
6699,39.0,0.0,180.0,8.0,64.0
6700,69.0,0.0,180.0,10.0,57.0
6701,39.0,0.0,180.0,6.0,61.0
6702,51.0,0.0,180.0,8.0,64.0
6703,51.0,96.0,180.0,5.0,61.0
6704,50.0,0.0,180.0,8.0,64.0
6705,38.0,0.0,180.0,6.0,61.0
6706,74.0,0.0,960.0,7.0,64.0
6707,66.0,0.0,960.0,7.0,64.0
6708,57.0,0.0,960.0,7.0,64.0
6709,50.0,0.0,180.0,12.0,53.0
6710,38.0,0.0,180.0,8.0,64.0
6711,67.0,0.0,90.0,1.0,65.0
6712,50.0,192.0,180.0,5.0,61.0
6713,38.0,0.0,180.0,12.0,53.0
6714,74.0,96.0,960.0,2.0,61.0
6715,66.0,0.0,960.0,3.0,59.0
6716,57.0,0.0,960.0,4.0,61.0
6717,74.0,0.0,960.0,11.0,53.0
6718,66.0,0.0,960.0,11.0,53.0
6719,57.0,2.0,960.0,11.0,53.0
6720,67.0,96.0,90.0,10.0,57.0
6721,66.0,94.0,780.0,1.0,65.0
6722,66.0,0.0,780.0,10.0,57.0
6723,33.0,0.0,180.0,12.0,53.0
6724,33.0,192.0,180.0,8.0,64.0
6725,45.0,0.0,180.0,8.0,64.0
6726,45.0,0.0,180.0,12.0,53.0
6727,33.0,0.0,180.0,6.0,61.0
6728,45.0,0.0,180.0,5.0,61.0
6729,36.0,0.0,180.0,6.0,61.0
6730,48.0,0.0,180.0,5.0,61.0
6731,36.0,0.0,180.0,8.0,64.0
6732,48.0,192.0,180.0,12.0,53.0
6733,48.0,0.0,180.0,8.0,64.0
6734,36.0,0.0,180.0,12.0,53.0
6735,36.0,0.0,180.0,6.0,61.0
6736,36.0,0.0,180.0,8.0,64.0
6737,48.0,96.0,180.0,12.0,53.0
6738,48.0,0.0,180.0,5.0,61.0
6739,36.0,0.0,180.0,12.0,53.0
6740,48.0,0.0,180.0,8.0,64.0
6741,30.0,0.0,180.0,8.0,64.0
6742,30.0,0.0,180.0,6.0,61.0
6743,30.0,0.0,180.0,12.0,53.0
6744,42.0,0.0,180.0,8.0,64.0
6745,42.0,0.0,180.0,5.0,61.0
6746,42.0,0.0,180.0,12.0,53.0
6747,62.0,0.0,90.0,1.0,65.0
6748,62.0,0.0,90.0,10.0,57.0
6749,33.0,0.0,180.0,8.0,64.0
6750,45.0,0.0,180.0,8.0,64.0
6751,45.0,0.0,180.0,5.0,61.0
6752,66.0,0.0,90.0,1.0,65.0
6753,66.0,96.0,90.0,10.0,57.0
6754,33.0,0.0,180.0,6.0,61.0
6755,45.0,0.0,180.0,12.0,53.0
6756,33.0,48.0,180.0,12.0,53.0
6757,69.0,0.0,90.0,10.0,57.0
6758,69.0,0.0,90.0,1.0,65.0
6759,62.0,0.0,180.0,3.0,59.0
6760,38.0,0.0,390.0,12.0,53.0
6761,26.0,0.0,390.0,8.0,64.0
6762,57.0,2.0,180.0,4.0,61.0
6763,57.0,0.0,180.0,11.0,53.0
6764,62.0,190.0,180.0,11.0,53.0
6765,66.0,0.0,180.0,11.0,53.0
6766,26.0,0.0,390.0,6.0,61.0
6767,72.0,0.0,40.0,1.0,65.0
6768,38.0,0.0,390.0,5.0,61.0
6769,26.0,0.0,390.0,12.0,53.0
6770,38.0,0.0,390.0,8.0,64.0
6771,72.0,48.0,40.0,10.0,57.0
6772,57.0,0.0,180.0,7.0,64.0
6773,66.0,0.0,180.0,2.0,61.0
6774,66.0,0.0,180.0,7.0,64.0
6775,62.0,0.0,180.0,7.0,64.0
6776,70.0,94.0,40.0,10.0,57.0
6777,70.0,0.0,40.0,1.0,65.0
6778,69.0,0.0,90.0,1.0,65.0
6779,69.0,0.0,90.0,10.0,57.0
6780,67.0,0.0,180.0,7.0,64.0
6781,64.0,0.0,180.0,7.0,64.0
6782,58.0,0.0,180.0,7.0,64.0
6783,67.0,0.0,180.0,11.0,53.0
6784,64.0,0.0,180.0,11.0,53.0
6785,58.0,0.0,180.0,11.0,53.0
6786,67.0,0.0,180.0,2.0,61.0
6787,67.0,96.0,180.0,1.0,65.0
6788,58.0,2.0,180.0,4.0,61.0
6789,64.0,0.0,180.0,3.0,59.0
6790,67.0,0.0,180.0,10.0,57.0
6791,69.0,0.0,180.0,11.0,53.0
6792,66.0,0.0,180.0,11.0,53.0
6793,60.0,2.0,180.0,11.0,53.0
6794,66.0,32.0,90.0,1.0,65.0
6795,69.0,48.0,180.0,2.0,61.0
6796,66.0,0.0,90.0,10.0,57.0
6797,66.0,0.0,180.0,3.0,59.0
6798,60.0,0.0,180.0,7.0,64.0
6799,69.0,0.0,180.0,7.0,64.0
6800,60.0,0.0,180.0,4.0,61.0
6801,66.0,0.0,180.0,7.0,64.0
6802,67.0,0.0,30.0,10.0,57.0
6803,67.0,62.0,30.0,1.0,65.0
6804,69.0,190.0,180.0,2.0,61.0
6805,66.0,0.0,180.0,3.0,59.0
6806,69.0,0.0,40.0,1.0,65.0
6807,50.0,0.0,180.0,4.0,61.0
6808,66.0,0.0,180.0,7.0,64.0
6809,50.0,2.0,180.0,7.0,64.0
6810,50.0,0.0,180.0,11.0,53.0
6811,69.0,0.0,180.0,11.0,53.0
6812,66.0,0.0,180.0,11.0,53.0
6813,69.0,48.0,40.0,10.0,57.0
6814,69.0,0.0,180.0,7.0,64.0
6815,67.0,0.0,40.0,10.0,57.0
6816,67.0,94.0,40.0,1.0,65.0
6817,66.0,0.0,90.0,1.0,65.0
6818,66.0,0.0,90.0,10.0,57.0
6819,70.0,0.0,180.0,7.0,64.0
6820,67.0,0.0,180.0,7.0,64.0
6821,50.0,0.0,180.0,7.0,64.0
6822,50.0,0.0,180.0,11.0,53.0
6823,67.0,96.0,180.0,11.0,53.0
6824,70.0,0.0,180.0,11.0,53.0
6825,63.0,0.0,180.0,10.0,57.0
6826,50.0,2.0,180.0,4.0,61.0
6827,63.0,0.0,180.0,1.0,65.0
6828,67.0,0.0,180.0,3.0,59.0
6829,70.0,0.0,180.0,2.0,61.0
6830,50.0,0.0,180.0,7.0,64.0
6831,72.0,0.0,180.0,2.0,61.0
6832,72.0,0.0,180.0,11.0,53.0
6833,50.0,2.0,180.0,4.0,61.0
6834,62.0,94.0,90.0,1.0,65.0
6835,69.0,0.0,180.0,11.0,53.0
6836,50.0,0.0,180.0,11.0,53.0
6837,62.0,0.0,90.0,10.0,57.0
6838,69.0,0.0,180.0,7.0,64.0
6839,72.0,0.0,180.0,7.0,64.0
6840,69.0,48.0,180.0,3.0,59.0
6841,63.0,0.0,90.0,1.0,65.0
6842,63.0,0.0,90.0,10.0,57.0
6843,66.0,0.0,960.0,11.0,53.0
6844,38.0,0.0,180.0,8.0,64.0
6845,26.0,0.0,180.0,12.0,53.0
6846,26.0,0.0,180.0,6.0,61.0
6847,72.0,0.0,960.0,11.0,53.0
6848,72.0,0.0,960.0,2.0,61.0
6849,63.0,0.0,40.0,1.0,65.0
6850,66.0,2.0,960.0,4.0,61.0
6851,38.0,0.0,180.0,12.0,53.0
6852,69.0,0.0,960.0,11.0,53.0
6853,69.0,0.0,960.0,7.0,64.0
6854,66.0,0.0,960.0,7.0,64.0
6855,38.0,0.0,180.0,5.0,61.0
6856,63.0,48.0,40.0,10.0,57.0
6857,69.0,0.0,960.0,3.0,59.0
6858,26.0,192.0,180.0,8.0,64.0
6859,72.0,0.0,960.0,7.0,64.0
6860,62.0,0.0,40.0,1.0,65.0
6861,62.0,96.0,40.0,10.0,57.0
6862,60.0,0.0,90.0,1.0,65.0
6863,60.0,0.0,90.0,10.0,57.0
6864,38.0,0.0,180.0,5.0,61.0
6865,26.0,0.0,180.0,12.0,53.0
6866,38.0,0.0,180.0,12.0,53.0
6867,66.0,0.0,300.0,10.0,57.0
6868,38.0,96.0,180.0,8.0,64.0
6869,26.0,0.0,180.0,8.0,64.0
6870,66.0,48.0,300.0,1.0,65.0
6871,26.0,0.0,180.0,6.0,61.0
6872,38.0,0.0,180.0,5.0,61.0
6873,38.0,0.0,180.0,12.0,53.0
6874,26.0,0.0,180.0,12.0,53.0
6875,38.0,0.0,180.0,8.0,64.0
6876,26.0,0.0,180.0,8.0,64.0
6877,26.0,48.0,180.0,6.0,61.0
6878,63.0,48.0,40.0,10.0,57.0
6879,63.0,0.0,40.0,1.0,65.0
6880,62.0,0.0,40.0,10.0,57.0
6881,62.0,0.0,40.0,1.0,65.0
6882,63.0,0.0,40.0,1.0,65.0
6883,38.0,0.0,180.0,5.0,61.0
6884,26.0,190.0,180.0,6.0,61.0
6885,26.0,0.0,180.0,8.0,64.0
6886,38.0,0.0,180.0,12.0,53.0
6887,38.0,0.0,180.0,8.0,64.0
6888,63.0,48.0,40.0,10.0,57.0
6889,26.0,0.0,180.0,12.0,53.0
6890,62.0,96.0,40.0,1.0,65.0
6891,62.0,0.0,40.0,10.0,57.0
6892,60.0,0.0,90.0,1.0,65.0
6893,60.0,0.0,90.0,10.0,57.0
6894,26.0,0.0,180.0,12.0,53.0
6895,38.0,0.0,180.0,8.0,64.0
6896,69.0,0.0,300.0,10.0,57.0
6897,26.0,96.0,180.0,8.0,64.0
6898,38.0,0.0,180.0,5.0,61.0
6899,26.0,0.0,180.0,6.0,61.0
6900,69.0,48.0,300.0,1.0,65.0
6901,38.0,0.0,180.0,12.0,53.0
6902,38.0,0.0,180.0,12.0,53.0
6903,38.0,0.0,180.0,5.0,61.0
6904,38.0,0.0,180.0,8.0,64.0
6905,26.0,0.0,180.0,8.0,64.0
6906,26.0,48.0,180.0,6.0,61.0
6907,26.0,0.0,180.0,12.0,53.0
6908,62.0,48.0,40.0,1.0,65.0
6909,62.0,0.0,40.0,10.0,57.0
6910,60.0,0.0,40.0,10.0,57.0
6911,60.0,0.0,40.0,1.0,65.0
6912,43.0,0.0,390.0,8.0,64.0
6913,59.0,0.0,180.0,3.0,59.0
6914,62.0,0.0,180.0,7.0,64.0
6915,31.0,0.0,390.0,6.0,61.0
6916,62.0,0.0,180.0,2.0,61.0
6917,31.0,0.0,390.0,8.0,64.0
6918,43.0,0.0,390.0,5.0,61.0
6919,62.0,0.0,180.0,11.0,53.0
6920,62.0,48.0,40.0,10.0,57.0
6921,31.0,0.0,390.0,12.0,53.0
6922,53.0,0.0,180.0,11.0,53.0
6923,43.0,0.0,390.0,12.0,53.0
6924,59.0,0.0,180.0,7.0,64.0
6925,59.0,190.0,180.0,11.0,53.0
6926,62.0,0.0,40.0,1.0,65.0
6927,53.0,0.0,180.0,7.0,64.0
6928,53.0,2.0,180.0,4.0,61.0
6929,60.0,94.0,40.0,1.0,65.0
6930,60.0,0.0,40.0,10.0,57.0
6931,59.0,0.0,90.0,10.0,57.0
6932,59.0,0.0,90.0,1.0,65.0
6933,63.0,0.0,180.0,2.0,61.0
6934,60.0,0.0,180.0,3.0,59.0
6935,56.0,0.0,180.0,1.0,65.0
6936,51.0,0.0,180.0,11.0,53.0
6937,60.0,96.0,180.0,11.0,53.0
6938,63.0,0.0,180.0,11.0,53.0
6939,60.0,0.0,180.0,7.0,64.0
6940,63.0,0.0,180.0,7.0,64.0
6941,51.0,0.0,180.0,4.0,61.0
6942,56.0,0.0,180.0,10.0,57.0
6943,51.0,2.0,180.0,7.0,64.0
6944,55.0,0.0,90.0,1.0,65.0
6945,62.0,48.0,180.0,11.0,53.0
6946,65.0,0.0,180.0,7.0,64.0
6947,55.0,48.0,90.0,10.0,57.0
6948,65.0,0.0,180.0,2.0,61.0
6949,50.0,0.0,180.0,4.0,61.0
6950,50.0,2.0,180.0,11.0,53.0
6951,65.0,0.0,180.0,11.0,53.0
6952,62.0,0.0,180.0,3.0,59.0
6953,50.0,0.0,180.0,7.0,64.0
6954,62.0,0.0,180.0,7.0,64.0
6955,65.0,0.0,40.0,10.0,57.0
6956,65.0,46.0,40.0,1.0,65.0
6957,63.0,0.0,40.0,1.0,65.0
6958,63.0,0.0,40.0,10.0,57.0
6959,62.0,0.0,180.0,7.0,64.0
6960,62.0,0.0,180.0,11.0,53.0
6961,65.0,48.0,40.0,10.0,57.0
6962,55.0,0.0,180.0,7.0,64.0
6963,55.0,0.0,180.0,11.0,53.0
6964,59.0,0.0,180.0,7.0,64.0
6965,62.0,190.0,180.0,2.0,61.0
6966,65.0,0.0,40.0,1.0,65.0
6967,55.0,2.0,180.0,4.0,61.0
6968,59.0,0.0,180.0,3.0,59.0
6969,59.0,0.0,180.0,11.0,53.0
6970,63.0,0.0,40.0,10.0,57.0
6971,63.0,94.0,40.0,1.0,65.0
6972,62.0,0.0,90.0,10.0,57.0
6973,62.0,0.0,90.0,1.0,65.0
6974,60.0,0.0,180.0,10.0,57.0
6975,60.0,0.0,180.0,3.0,59.0
6976,63.0,0.0,180.0,7.0,64.0
6977,60.0,0.0,180.0,7.0,64.0
6978,55.0,0.0,180.0,11.0,53.0
6979,60.0,0.0,180.0,11.0,53.0
6980,63.0,0.0,180.0,11.0,53.0
6981,55.0,2.0,180.0,7.0,64.0
6982,63.0,0.0,180.0,2.0,61.0
6983,55.0,0.0,180.0,4.0,61.0
6984,60.0,96.0,180.0,1.0,65.0
6985,59.0,48.0,90.0,10.0,57.0
6986,65.0,0.0,180.0,7.0,64.0
6987,62.0,0.0,180.0,7.0,64.0
6988,55.0,0.0,180.0,7.0,64.0
6989,55.0,0.0,180.0,4.0,61.0
6990,55.0,2.0,180.0,11.0,53.0
6991,62.0,0.0,180.0,11.0,53.0
6992,62.0,48.0,180.0,3.0,59.0
6993,65.0,0.0,180.0,2.0,61.0
6994,59.0,0.0,90.0,1.0,65.0
6995,65.0,0.0,180.0,11.0,53.0
6996,68.0,46.0,40.0,1.0,65.0
6997,68.0,0.0,40.0,10.0,57.0
6998,67.0,0.0,40.0,10.0,57.0
6999,67.0,0.0,40.0,1.0,65.0
7000,68.0,0.0,40.0,10.0,57.0
7001,65.0,0.0,960.0,7.0,64.0
7002,31.0,0.0,180.0,6.0,61.0
7003,65.0,0.0,960.0,11.0,53.0
7004,62.0,0.0,960.0,11.0,53.0
7005,43.0,0.0,180.0,5.0,61.0
7006,59.0,2.0,960.0,4.0,61.0
7007,62.0,0.0,960.0,3.0,59.0
7008,43.0,0.0,180.0,8.0,64.0
7009,59.0,0.0,960.0,11.0,53.0
7010,68.0,48.0,40.0,1.0,65.0
7011,59.0,0.0,960.0,7.0,64.0
7012,62.0,0.0,960.0,7.0,64.0
7013,31.0,0.0,180.0,12.0,53.0
7014,65.0,0.0,960.0,2.0,61.0
7015,31.0,0.0,180.0,8.0,64.0
7016,43.0,0.0,180.0,12.0,53.0
7017,67.0,96.0,40.0,10.0,57.0
7018,67.0,0.0,40.0,1.0,65.0
7019,65.0,192.0,90.0,1.0,65.0
7020,65.0,0.0,90.0,10.0,57.0
7021,31.0,0.0,180.0,6.0,61.0
7022,43.0,0.0,180.0,5.0,61.0
7023,63.0,96.0,180.0,1.0,65.0
7024,31.0,0.0,180.0,8.0,64.0
7025,43.0,0.0,180.0,8.0,64.0
7026,43.0,0.0,180.0,12.0,53.0
7027,31.0,0.0,180.0,12.0,53.0
7028,63.0,0.0,180.0,10.0,57.0
7029,43.0,48.0,180.0,5.0,61.0
7030,31.0,0.0,180.0,12.0,53.0
7031,43.0,0.0,180.0,12.0,53.0
7032,31.0,0.0,180.0,6.0,61.0
7033,62.0,0.0,90.0,10.0,57.0
7034,31.0,0.0,180.0,8.0,64.0
7035,43.0,0.0,180.0,8.0,64.0
7036,62.0,48.0,90.0,1.0,65.0
7037,74.0,0.0,40.0,10.0,57.0
7038,74.0,48.0,40.0,1.0,65.0
7039,72.0,0.0,40.0,10.0,57.0
7040,72.0,0.0,40.0,1.0,65.0
7041,31.0,0.0,180.0,6.0,61.0
7042,74.0,48.0,40.0,1.0,65.0
7043,74.0,0.0,40.0,10.0,57.0
7044,43.0,190.0,180.0,8.0,64.0
7045,43.0,0.0,180.0,5.0,61.0
7046,31.0,0.0,180.0,12.0,53.0
7047,43.0,0.0,180.0,12.0,53.0
7048,31.0,0.0,180.0,8.0,64.0
7049,72.0,96.0,40.0,10.0,57.0
7050,72.0,0.0,40.0,1.0,65.0
7051,71.0,0.0,90.0,1.0,65.0
7052,71.0,0.0,90.0,10.0,57.0
7053,43.0,0.0,180.0,5.0,61.0
7054,68.0,0.0,180.0,10.0,57.0
7055,31.0,0.0,180.0,12.0,53.0
7056,68.0,96.0,180.0,1.0,65.0
7057,31.0,0.0,180.0,8.0,64.0
7058,31.0,0.0,180.0,6.0,61.0
7059,43.0,0.0,180.0,8.0,64.0
7060,43.0,0.0,180.0,12.0,53.0
7061,31.0,0.0,180.0,12.0,53.0
7062,43.0,0.0,180.0,5.0,61.0
7063,67.0,96.0,90.0,10.0,57.0
7064,43.0,0.0,180.0,8.0,64.0
7065,67.0,0.0,90.0,1.0,65.0
7066,43.0,0.0,180.0,12.0,53.0
7067,31.0,0.0,180.0,6.0,61.0
7068,31.0,48.0,180.0,8.0,64.0
7069,74.0,0.0,90.0,1.0,65.0
7070,74.0,0.0,90.0,10.0,57.0
7071,24.0,0.0,180.0,8.0,64.0
7072,55.0,0.0,570.0,7.0,64.0
7073,60.0,0.0,570.0,7.0,64.0
7074,63.0,0.0,570.0,7.0,64.0
7075,24.0,96.0,180.0,12.0,53.0
7076,63.0,0.0,570.0,2.0,61.0
7077,36.0,0.0,180.0,8.0,64.0
7078,60.0,0.0,570.0,3.0,59.0
7079,36.0,0.0,180.0,12.0,53.0
7080,55.0,2.0,570.0,4.0,61.0
7081,36.0,0.0,180.0,5.0,61.0
7082,75.0,48.0,40.0,10.0,57.0
7083,55.0,0.0,570.0,11.0,53.0
7084,60.0,0.0,570.0,11.0,53.0
7085,63.0,0.0,570.0,11.0,53.0
7086,75.0,0.0,40.0,1.0,65.0
7087,24.0,0.0,180.0,6.0,61.0
7088,77.0,96.0,40.0,10.0,57.0
7089,77.0,0.0,40.0,1.0,65.0
7090,79.0,0.0,180.0,10.0,57.0
7091,79.0,48.0,180.0,1.0,65.0
7092,24.0,0.0,180.0,8.0,64.0
7093,36.0,0.0,180.0,8.0,64.0
7094,24.0,0.0,180.0,6.0,61.0
7095,24.0,0.0,180.0,12.0,53.0
7096,36.0,48.0,180.0,12.0,53.0
7097,36.0,0.0,180.0,5.0,61.0
7098,77.0,48.0,40.0,1.0,65.0
7099,77.0,0.0,40.0,10.0,57.0
7100,75.0,0.0,40.0,1.0,65.0
7101,75.0,0.0,40.0,10.0,57.0
7102,24.0,0.0,180.0,6.0,61.0
7103,36.0,0.0,180.0,12.0,53.0
7104,77.0,0.0,40.0,1.0,65.0
7105,36.0,0.0,180.0,5.0,61.0
7106,24.0,0.0,180.0,12.0,53.0
7107,24.0,0.0,180.0,8.0,64.0
7108,77.0,48.0,40.0,10.0,57.0
7109,36.0,48.0,180.0,8.0,64.0
7110,75.0,94.0,40.0,10.0,57.0
7111,75.0,0.0,40.0,1.0,65.0
7112,74.0,0.0,90.0,1.0,65.0
7113,74.0,0.0,90.0,10.0,57.0
7114,67.0,0.0,570.0,7.0,64.0
7115,63.0,0.0,570.0,7.0,64.0
7116,60.0,0.0,570.0,7.0,64.0
7117,72.0,0.0,40.0,10.0,57.0
7118,72.0,48.0,40.0,1.0,65.0
7119,63.0,0.0,570.0,3.0,59.0
7120,36.0,0.0,180.0,8.0,64.0
7121,24.0,0.0,180.0,12.0,53.0
7122,36.0,0.0,180.0,12.0,53.0
7123,67.0,0.0,570.0,2.0,61.0
7124,60.0,2.0,570.0,4.0,61.0
7125,24.0,0.0,180.0,6.0,61.0
7126,36.0,96.0,180.0,5.0,61.0
7127,67.0,0.0,570.0,11.0,53.0
7128,63.0,0.0,570.0,11.0,53.0
7129,60.0,0.0,570.0,11.0,53.0
7130,24.0,0.0,180.0,8.0,64.0
7131,74.0,96.0,40.0,1.0,65.0
7132,74.0,0.0,40.0,10.0,57.0
7133,75.0,48.0,180.0,10.0,57.0
7134,75.0,0.0,180.0,1.0,65.0
7135,36.0,0.0,180.0,12.0,53.0
7136,24.0,0.0,180.0,12.0,53.0
7137,36.0,0.0,180.0,8.0,64.0
7138,36.0,0.0,180.0,5.0,61.0
7139,24.0,0.0,180.0,8.0,64.0
7140,24.0,0.0,180.0,6.0,61.0
7141,74.0,48.0,40.0,1.0,65.0
7142,74.0,0.0,40.0,10.0,57.0
7143,72.0,48.0,40.0,1.0,65.0
7144,72.0,0.0,40.0,10.0,57.0
7145,74.0,0.0,40.0,1.0,65.0
7146,36.0,0.0,180.0,8.0,64.0
7147,36.0,0.0,180.0,12.0,53.0
7148,24.0,0.0,180.0,12.0,53.0
7149,24.0,0.0,180.0,8.0,64.0
7150,36.0,0.0,180.0,5.0,61.0
7151,74.0,48.0,40.0,10.0,57.0
7152,24.0,0.0,180.0,6.0,61.0
7153,72.0,94.0,40.0,1.0,65.0
7154,72.0,0.0,40.0,10.0,57.0
7155,70.0,0.0,90.0,10.0,57.0
7156,70.0,48.0,90.0,1.0,65.0
7157,24.0,0.0,180.0,8.0,64.0
7158,36.0,0.0,180.0,8.0,64.0
7159,72.0,0.0,570.0,7.0,64.0
7160,68.0,0.0,570.0,3.0,59.0
7161,68.0,0.0,40.0,1.0,65.0
7162,63.0,2.0,570.0,4.0,61.0
7163,68.0,0.0,570.0,7.0,64.0
7164,24.0,0.0,180.0,12.0,53.0
7165,72.0,0.0,570.0,2.0,61.0
7166,63.0,0.0,570.0,11.0,53.0
7167,68.0,48.0,40.0,10.0,57.0
7168,24.0,96.0,180.0,6.0,61.0
7169,36.0,0.0,180.0,12.0,53.0
7170,68.0,0.0,570.0,11.0,53.0
7171,72.0,0.0,570.0,11.0,53.0
7172,63.0,0.0,570.0,7.0,64.0
7173,36.0,0.0,180.0,5.0,61.0
7174,70.0,96.0,40.0,1.0,65.0
7175,70.0,0.0,40.0,10.0,57.0
7176,72.0,48.0,180.0,10.0,57.0
7177,72.0,0.0,180.0,1.0,65.0
7178,36.0,48.0,180.0,12.0,53.0
7179,24.0,0.0,180.0,12.0,53.0
7180,36.0,0.0,180.0,5.0,61.0
7181,36.0,0.0,180.0,8.0,64.0
7182,24.0,0.0,180.0,6.0,61.0
7183,24.0,0.0,180.0,8.0,64.0
7184,70.0,48.0,40.0,1.0,65.0
7185,70.0,0.0,40.0,10.0,57.0
7186,68.0,0.0,40.0,10.0,57.0
7187,68.0,0.0,40.0,1.0,65.0
7188,24.0,0.0,180.0,6.0,61.0
7189,24.0,0.0,180.0,12.0,53.0
7190,70.0,0.0,40.0,1.0,65.0
7191,36.0,0.0,180.0,5.0,61.0
7192,24.0,0.0,180.0,8.0,64.0
7193,36.0,0.0,180.0,12.0,53.0
7194,36.0,0.0,180.0,8.0,64.0
7195,70.0,48.0,40.0,10.0,57.0
7196,68.0,0.0,40.0,1.0,65.0
7197,68.0,94.0,40.0,10.0,57.0
7198,67.0,48.0,90.0,1.0,65.0
7199,67.0,0.0,90.0,10.0,57.0
7200,36.0,0.0,180.0,12.0,53.0
7201,24.0,0.0,180.0,12.0,53.0
7202,72.0,0.0,180.0,7.0,64.0
7203,72.0,0.0,180.0,11.0,53.0
7204,66.0,0.0,40.0,1.0,65.0
7205,72.0,0.0,180.0,3.0,59.0
7206,75.0,0.0,180.0,7.0,64.0
7207,57.0,0.0,180.0,7.0,64.0
7208,75.0,0.0,180.0,2.0,61.0
7209,24.0,0.0,180.0,8.0,64.0
7210,36.0,0.0,180.0,8.0,64.0
7211,24.0,0.0,180.0,6.0,61.0
7212,36.0,0.0,180.0,5.0,61.0
7213,57.0,2.0,180.0,4.0,61.0
7214,57.0,0.0,180.0,11.0,53.0
7215,75.0,96.0,180.0,11.0,53.0
7216,66.0,48.0,40.0,10.0,57.0
7217,67.0,94.0,40.0,10.0,57.0
7218,67.0,0.0,40.0,1.0,65.0
7219,69.0,48.0,180.0,10.0,57.0
7220,69.0,0.0,180.0,1.0,65.0
7221,66.0,0.0,390.0,11.0,53.0
7222,69.0,0.0,390.0,7.0,64.0
7223,69.0,0.0,390.0,3.0,59.0
7224,66.0,2.0,390.0,7.0,64.0
7225,74.0,0.0,570.0,11.0,53.0
7226,69.0,0.0,390.0,11.0,53.0
7227,74.0,0.0,570.0,7.0,64.0
7228,24.0,0.0,180.0,6.0,61.0
7229,74.0,0.0,570.0,2.0,61.0
7230,36.0,0.0,180.0,12.0,53.0
7231,36.0,0.0,180.0,8.0,64.0
7232,66.0,0.0,390.0,4.0,61.0
7233,24.0,0.0,180.0,8.0,64.0
7234,36.0,0.0,180.0,5.0,61.0
7235,24.0,0.0,180.0,12.0,53.0
7236,67.0,48.0,40.0,1.0,65.0
7237,67.0,0.0,40.0,10.0,57.0
7238,66.0,48.0,40.0,10.0,57.0
7239,66.0,0.0,40.0,1.0,65.0
7240,36.0,0.0,180.0,6.0,61.0
7241,36.0,190.0,180.0,8.0,64.0
7242,48.0,0.0,180.0,12.0,53.0
7243,36.0,0.0,180.0,12.0,53.0
7244,67.0,0.0,40.0,1.0,65.0
7245,48.0,0.0,180.0,5.0,61.0
7246,48.0,0.0,180.0,8.0,64.0
7247,67.0,48.0,40.0,10.0,57.0
7248,66.0,0.0,40.0,10.0,57.0
7249,66.0,94.0,40.0,1.0,65.0
7250,64.0,0.0,90.0,10.0,57.0
7251,64.0,0.0,90.0,1.0,65.0
7252,34.0,0.0,180.0,8.0,64.0
7253,46.0,0.0,180.0,8.0,64.0
7254,62.0,0.0,300.0,10.0,57.0
7255,70.0,96.0,180.0,11.0,53.0
7256,67.0,2.0,180.0,4.0,61.0
7257,62.0,48.0,300.0,1.0,65.0
7258,34.0,0.0,180.0,6.0,61.0
7259,46.0,0.0,180.0,12.0,53.0
7260,34.0,0.0,180.0,12.0,53.0
7261,70.0,0.0,180.0,3.0,59.0
7262,67.0,0.0,180.0,11.0,53.0
7263,70.0,0.0,180.0,7.0,64.0
7264,46.0,0.0,180.0,5.0,61.0
7265,67.0,0.0,180.0,7.0,64.0
7266,45.0,0.0,180.0,12.0,53.0
7267,60.0,0.0,180.0,4.0,61.0
7268,45.0,0.0,180.0,5.0,61.0
7269,33.0,0.0,180.0,6.0,61.0
7270,65.0,0.0,180.0,3.0,59.0
7271,72.0,0.0,180.0,11.0,53.0
7272,45.0,0.0,180.0,8.0,64.0
7273,65.0,0.0,180.0,11.0,53.0
7274,33.0,48.0,180.0,12.0,53.0
7275,72.0,0.0,180.0,2.0,61.0
7276,33.0,0.0,180.0,8.0,64.0
7277,72.0,0.0,180.0,7.0,64.0
7278,60.0,0.0,180.0,11.0,53.0
7279,65.0,0.0,180.0,7.0,64.0
7280,60.0,2.0,180.0,7.0,64.0
7281,64.0,0.0,40.0,10.0,57.0
7282,64.0,46.0,40.0,1.0,65.0
7283,66.0,0.0,40.0,1.0,65.0
7284,66.0,0.0,40.0,10.0,57.0
7285,62.0,2.0,180.0,7.0,64.0
7286,67.0,0.0,390.0,7.0,64.0
7287,43.0,0.0,180.0,5.0,61.0
7288,31.0,130.0,180.0,6.0,61.0
7289,62.0,0.0,180.0,4.0,61.0
7290,67.0,0.0,390.0,3.0,59.0
7291,70.0,0.0,180.0,2.0,61.0
7292,70.0,0.0,180.0,7.0,64.0
7293,43.0,0.0,180.0,8.0,64.0
7294,67.0,0.0,40.0,10.0,57.0
7295,67.0,48.0,40.0,1.0,65.0
7296,31.0,0.0,180.0,12.0,53.0
7297,70.0,0.0,180.0,11.0,53.0
7298,67.0,0.0,390.0,11.0,53.0
7299,62.0,0.0,180.0,11.0,53.0
7300,43.0,0.0,180.0,12.0,53.0
7301,31.0,0.0,180.0,8.0,64.0
7302,69.0,0.0,40.0,10.0,57.0
7303,69.0,48.0,40.0,1.0,65.0
7304,70.0,46.0,40.0,1.0,65.0
7305,70.0,0.0,40.0,10.0,57.0
7306,69.0,0.0,40.0,1.0,65.0
7307,69.0,0.0,40.0,10.0,57.0
7308,72.0,0.0,120.0,11.0,53.0
7309,57.0,0.0,120.0,11.0,53.0
7310,72.0,0.0,120.0,2.0,61.0
7311,57.0,0.0,120.0,7.0,64.0
7312,72.0,0.0,120.0,7.0,64.0
7313,57.0,0.0,120.0,4.0,61.0
7314,72.0,62.0,120.0,10.0,57.0
7315,38.0,0.0,180.0,6.0,61.0
7316,38.0,0.0,180.0,8.0,64.0
7317,50.0,130.0,180.0,8.0,64.0
7318,50.0,0.0,180.0,12.0,53.0
7319,38.0,0.0,180.0,12.0,53.0
7320,72.0,0.0,120.0,1.0,65.0
7321,50.0,0.0,180.0,5.0,61.0
7322,58.0,0.0,120.0,11.0,53.0
7323,38.0,0.0,180.0,12.0,53.0
7324,38.0,0.0,180.0,5.0,61.0
7325,26.0,0.0,180.0,6.0,61.0
7326,67.0,0.0,120.0,3.0,59.0
7327,70.0,0.0,120.0,11.0,53.0
7328,67.0,0.0,120.0,11.0,53.0
7329,70.0,0.0,120.0,10.0,57.0
7330,70.0,62.0,120.0,7.0,64.0
7331,26.0,46.0,180.0,12.0,53.0
7332,58.0,0.0,120.0,7.0,64.0
7333,58.0,0.0,120.0,4.0,61.0
7334,70.0,0.0,120.0,2.0,61.0
7335,26.0,0.0,180.0,8.0,64.0
7336,38.0,0.0,180.0,8.0,64.0
7337,70.0,0.0,120.0,1.0,65.0
7338,67.0,0.0,120.0,7.0,64.0
7339,26.0,0.0,180.0,6.0,61.0
7340,60.0,0.0,120.0,4.0,61.0
7341,60.0,0.0,120.0,11.0,53.0
7342,70.0,0.0,40.0,1.0,65.0
7343,65.0,0.0,120.0,3.0,59.0
7344,69.0,0.0,120.0,2.0,61.0
7345,65.0,0.0,120.0,11.0,53.0
7346,38.0,0.0,180.0,12.0,53.0
7347,26.0,0.0,180.0,12.0,53.0
7348,60.0,12.0,120.0,7.0,64.0
7349,65.0,0.0,120.0,7.0,64.0
7350,69.0,0.0,120.0,7.0,64.0
7351,38.0,190.0,180.0,5.0,61.0
7352,26.0,0.0,180.0,8.0,64.0
7353,70.0,24.0,40.0,10.0,57.0
7354,38.0,0.0,180.0,8.0,64.0
7355,69.0,0.0,120.0,11.0,53.0
7356,69.0,24.0,20.0,10.0,57.0
7357,69.0,0.0,20.0,1.0,65.0
7358,70.0,0.0,20.0,1.0,65.0
7359,70.0,24.0,20.0,10.0,57.0
7360,69.0,12.0,20.0,10.0,57.0
7361,69.0,0.0,20.0,1.0,65.0
7362,70.0,0.0,20.0,1.0,65.0
7363,70.0,48.0,20.0,10.0,57.0
7364,69.0,2.0,40.0,10.0,57.0
7365,69.0,0.0,40.0,1.0,65.0
7366,62.0,190.0,180.0,3.0,59.0
7367,31.0,0.0,960.0,12.0,53.0
7368,67.0,0.0,180.0,2.0,61.0
7369,43.0,0.0,960.0,12.0,53.0
7370,67.0,0.0,2310.0,1.0,65.0
7371,58.0,0.0,180.0,4.0,61.0
7372,58.0,2.0,180.0,7.0,64.0
7373,31.0,0.0,960.0,8.0,64.0
7374,31.0,0.0,960.0,6.0,61.0
7375,67.0,0.0,2310.0,10.0,57.0
7376,58.0,0.0,180.0,11.0,53.0
7377,62.0,0.0,180.0,11.0,53.0
7378,67.0,0.0,180.0,11.0,53.0
7379,67.0,0.0,180.0,7.0,64.0
7380,62.0,0.0,180.0,7.0,64.0
7381,43.0,190.0,960.0,5.0,61.0
7382,43.0,0.0,960.0,8.0,64.0
7383,69.0,190.0,180.0,11.0,53.0
7384,65.0,0.0,180.0,7.0,64.0
7385,69.0,0.0,180.0,2.0,61.0
7386,69.0,0.0,180.0,7.0,64.0
7387,60.0,0.0,180.0,7.0,64.0
7388,60.0,2.0,180.0,11.0,53.0
7389,60.0,0.0,180.0,4.0,61.0
7390,65.0,0.0,180.0,11.0,53.0
7391,65.0,0.0,180.0,3.0,59.0
7392,62.0,0.0,180.0,4.0,61.0
7393,62.0,2.0,180.0,7.0,64.0
7394,67.0,0.0,180.0,7.0,64.0
7395,70.0,0.0,180.0,7.0,64.0
7396,70.0,0.0,180.0,2.0,61.0
7397,62.0,0.0,180.0,11.0,53.0
7398,67.0,0.0,180.0,11.0,53.0
7399,67.0,0.0,180.0,3.0,59.0
7400,70.0,190.0,180.0,11.0,53.0
7401,69.0,0.0,180.0,11.0,53.0
7402,60.0,0.0,180.0,7.0,64.0
7403,65.0,0.0,180.0,7.0,64.0
7404,69.0,190.0,180.0,7.0,64.0
7405,60.0,2.0,180.0,4.0,61.0
7406,65.0,0.0,180.0,3.0,59.0
7407,69.0,0.0,180.0,2.0,61.0
7408,60.0,0.0,180.0,11.0,53.0
7409,65.0,0.0,180.0,11.0,53.0
7410,67.0,0.0,180.0,3.0,59.0
7411,62.0,0.0,180.0,4.0,61.0
7412,67.0,0.0,180.0,11.0,53.0
7413,62.0,2.0,180.0,11.0,53.0
7414,70.0,0.0,180.0,7.0,64.0
7415,70.0,0.0,180.0,11.0,53.0
7416,67.0,0.0,180.0,7.0,64.0
7417,70.0,0.0,180.0,2.0,61.0
7418,62.0,0.0,180.0,7.0,64.0
7419,43.0,0.0,180.0,12.0,53.0
7420,31.0,0.0,180.0,12.0,53.0
7421,72.0,0.0,180.0,11.0,53.0
7422,69.0,0.0,180.0,11.0,53.0
7423,54.0,2.0,180.0,11.0,53.0
7424,43.0,0.0,180.0,8.0,64.0
7425,31.0,1150.0,180.0,8.0,64.0
7426,54.0,0.0,180.0,7.0,64.0
7427,69.0,0.0,180.0,3.0,59.0
7428,43.0,0.0,180.0,5.0,61.0
7429,54.0,0.0,180.0,4.0,61.0
7430,31.0,0.0,180.0,6.0,61.0
7431,72.0,0.0,180.0,7.0,64.0
7432,69.0,0.0,180.0,7.0,64.0
7433,72.0,0.0,180.0,2.0,61.0
7434,31.0,0.0,1140.0,6.0,61.0
7435,55.0,0.0,1140.0,7.0,64.0
7436,19.0,0.0,1140.0,12.0,53.0
7437,19.0,0.0,1140.0,6.0,61.0
7438,67.0,0.0,1140.0,3.0,59.0
7439,31.0,0.0,1140.0,5.0,61.0
7440,43.0,0.0,1140.0,5.0,61.0
7441,43.0,0.0,1140.0,12.0,53.0
7442,31.0,0.0,1140.0,12.0,53.0
7443,55.0,0.0,1140.0,4.0,61.0
7444,67.0,0.0,1140.0,11.0,53.0
7445,19.0,0.0,1140.0,8.0,64.0
7446,62.0,948.0,1140.0,2.0,61.0
7447,67.0,0.0,1140.0,7.0,64.0
7448,62.0,0.0,1140.0,7.0,64.0
7449,55.0,0.0,1140.0,11.0,53.0
7450,43.0,0.0,1140.0,8.0,64.0
7451,62.0,0.0,1140.0,11.0,53.0
7452,31.0,0.0,1140.0,8.0,64.0
