,note,step,duration,channel,velocity
0,47.0,0.0,2310.0,0.0,64.0
1,59.0,768.0,2310.0,0.0,64.0
2,66.0,0.0,2310.0,0.0,64.0
3,62.0,0.0,2310.0,0.0,64.0
4,71.0,384.0,390.0,0.0,64.0
5,74.0,384.0,390.0,0.0,64.0
6,78.0,384.0,390.0,0.0,64.0
7,74.0,384.0,390.0,0.0,64.0
8,71.0,0.0,2700.0,0.0,64.0
9,79.0,768.0,2310.0,0.0,64.0
10,76.0,0.0,2310.0,0.0,64.0
11,52.0,384.0,390.0,0.0,64.0
12,55.0,384.0,390.0,0.0,64.0
13,59.0,384.0,390.0,0.0,64.0
14,64.0,384.0,390.0,0.0,64.0
15,52.0,0.0,390.0,0.0,64.0
16,57.0,0.0,2310.0,0.0,64.0
17,45.0,0.0,2310.0,0.0,64.0
18,64.0,768.0,2310.0,0.0,64.0
19,61.0,0.0,2310.0,0.0,64.0
20,71.0,384.0,390.0,0.0,64.0
21,73.0,384.0,390.0,0.0,64.0
22,76.0,384.0,390.0,0.0,64.0
23,73.0,384.0,390.0,0.0,64.0
24,69.0,0.0,2700.0,0.0,64.0
25,78.0,384.0,2700.0,0.0,64.0
26,74.0,0.0,2310.0,0.0,64.0
27,50.0,384.0,390.0,0.0,64.0
28,54.0,384.0,390.0,0.0,64.0
29,57.0,384.0,390.0,0.0,64.0
30,62.0,384.0,390.0,0.0,64.0
31,50.0,0.0,390.0,0.0,64.0
32,59.0,0.0,2310.0,0.0,64.0
33,55.0,0.0,2310.0,0.0,64.0
34,62.0,384.0,2310.0,0.0,64.0
35,78.0,384.0,390.0,0.0,64.0
36,76.0,384.0,390.0,0.0,64.0
37,74.0,192.0,390.0,0.0,64.0
38,73.0,192.0,180.0,0.0,64.0
39,64.0,384.0,1140.0,0.0,64.0
40,74.0,384.0,180.0,0.0,64.0
41,71.0,0.0,390.0,0.0,64.0
42,70.0,384.0,2310.0,0.0,64.0
43,54.0,0.0,2310.0,0.0,64.0
44,61.0,384.0,390.0,0.0,64.0
45,66.0,384.0,390.0,0.0,64.0
46,64.0,384.0,390.0,0.0,64.0
47,62.0,384.0,390.0,0.0,64.0
48,61.0,0.0,390.0,0.0,64.0
49,59.0,192.0,2310.0,0.0,64.0
50,47.0,0.0,2310.0,0.0,64.0
51,62.0,384.0,390.0,0.0,64.0
52,71.0,0.0,390.0,0.0,64.0
53,64.0,384.0,390.0,0.0,64.0
54,73.0,0.0,390.0,0.0,64.0
55,66.0,384.0,390.0,0.0,64.0
56,74.0,0.0,390.0,0.0,64.0
57,73.0,384.0,390.0,0.0,64.0
58,64.0,0.0,390.0,0.0,64.0
59,67.0,384.0,390.0,0.0,64.0
60,76.0,0.0,390.0,0.0,64.0
61,64.0,0.0,390.0,0.0,64.0
62,73.0,0.0,390.0,0.0,64.0
63,70.0,384.0,2310.0,0.0,64.0
64,61.0,192.0,180.0,0.0,64.0
65,54.0,0.0,2310.0,0.0,64.0
66,66.0,192.0,180.0,0.0,64.0
67,64.0,192.0,180.0,0.0,64.0
68,66.0,192.0,180.0,0.0,64.0
69,61.0,192.0,180.0,0.0,64.0
70,66.0,192.0,180.0,0.0,64.0
71,64.0,192.0,180.0,0.0,64.0
72,66.0,192.0,180.0,0.0,64.0
73,61.0,192.0,180.0,0.0,64.0
74,66.0,192.0,180.0,0.0,64.0
75,64.0,192.0,180.0,0.0,64.0
76,66.0,192.0,2490.0,0.0,64.0
77,51.0,0.0,2310.0,0.0,64.0
78,63.0,0.0,2310.0,0.0,64.0
79,83.0,192.0,180.0,0.0,64.0
80,81.0,192.0,180.0,0.0,64.0
81,83.0,192.0,180.0,0.0,64.0
82,78.0,192.0,180.0,0.0,64.0
83,83.0,192.0,180.0,0.0,64.0
84,81.0,192.0,180.0,0.0,64.0
85,83.0,192.0,180.0,0.0,64.0
86,78.0,192.0,180.0,0.0,64.0
87,83.0,192.0,180.0,0.0,64.0
88,81.0,192.0,180.0,0.0,64.0
89,83.0,0.0,180.0,0.0,64.0
90,52.0,0.0,2310.0,0.0,64.0
91,79.0,192.0,180.0,0.0,64.0
92,59.0,0.0,2310.0,0.0,64.0
93,64.0,0.0,2310.0,0.0,64.0
94,83.0,192.0,180.0,0.0,64.0
95,81.0,192.0,180.0,0.0,64.0
96,83.0,192.0,180.0,0.0,64.0
97,76.0,192.0,180.0,0.0,64.0
98,79.0,192.0,180.0,0.0,64.0
99,78.0,192.0,180.0,0.0,64.0
100,79.0,192.0,180.0,0.0,64.0
101,71.0,192.0,180.0,0.0,64.0
102,76.0,192.0,180.0,0.0,64.0
103,74.0,192.0,180.0,0.0,64.0
104,76.0,192.0,180.0,0.0,64.0
105,61.0,0.0,2310.0,0.0,64.0
106,57.0,192.0,2310.0,0.0,64.0
107,73.0,192.0,180.0,0.0,64.0
108,64.0,0.0,2310.0,0.0,64.0
109,81.0,192.0,180.0,0.0,64.0
110,79.0,192.0,180.0,0.0,64.0
111,81.0,192.0,180.0,0.0,64.0
112,76.0,192.0,180.0,0.0,64.0
113,81.0,192.0,180.0,0.0,64.0
114,79.0,192.0,180.0,0.0,64.0
115,81.0,192.0,180.0,0.0,64.0
116,73.0,192.0,180.0,0.0,64.0
117,81.0,192.0,180.0,0.0,64.0
118,79.0,192.0,180.0,0.0,64.0
119,81.0,0.0,180.0,0.0,64.0
120,50.0,0.0,2310.0,0.0,64.0
121,78.0,192.0,180.0,0.0,64.0
122,62.0,0.0,2310.0,0.0,64.0
123,57.0,0.0,2310.0,0.0,64.0
124,81.0,192.0,180.0,0.0,64.0
125,79.0,192.0,180.0,0.0,64.0
126,81.0,192.0,180.0,0.0,64.0
127,74.0,192.0,180.0,0.0,64.0
128,78.0,192.0,180.0,0.0,64.0
129,76.0,192.0,180.0,0.0,64.0
130,78.0,192.0,180.0,0.0,64.0
131,69.0,192.0,180.0,0.0,64.0
132,74.0,192.0,180.0,0.0,64.0
133,73.0,192.0,180.0,0.0,64.0
134,74.0,192.0,180.0,0.0,64.0
135,55.0,192.0,3060.0,0.0,64.0
136,71.0,192.0,180.0,0.0,64.0
137,62.0,0.0,2310.0,0.0,64.0
138,59.0,0.0,2310.0,0.0,64.0
139,79.0,192.0,180.0,0.0,64.0
140,78.0,192.0,180.0,0.0,64.0
141,79.0,192.0,180.0,0.0,64.0
142,74.0,192.0,180.0,0.0,64.0
143,79.0,192.0,180.0,0.0,64.0
144,78.0,192.0,180.0,0.0,64.0
145,79.0,192.0,180.0,0.0,64.0
146,71.0,192.0,180.0,0.0,64.0
147,79.0,192.0,180.0,0.0,64.0
148,78.0,192.0,180.0,0.0,64.0
149,79.0,192.0,180.0,0.0,64.0
150,57.0,0.0,780.0,0.0,64.0
151,64.0,0.0,780.0,0.0,64.0
152,73.0,192.0,180.0,0.0,64.0
153,69.0,192.0,180.0,0.0,64.0
154,76.0,192.0,180.0,0.0,64.0
155,69.0,0.0,180.0,0.0,64.0
156,81.0,192.0,180.0,0.0,64.0
157,69.0,192.0,180.0,0.0,64.0
158,73.0,192.0,180.0,0.0,64.0
159,69.0,192.0,180.0,0.0,64.0
160,76.0,192.0,180.0,0.0,64.0
161,69.0,192.0,180.0,0.0,64.0
162,81.0,192.0,180.0,0.0,64.0
163,69.0,192.0,180.0,0.0,64.0
164,62.0,0.0,780.0,0.0,64.0
165,74.0,192.0,180.0,0.0,64.0
166,57.0,192.0,780.0,0.0,64.0
167,54.0,0.0,780.0,0.0,64.0
168,69.0,192.0,180.0,0.0,64.0
169,78.0,192.0,180.0,0.0,64.0
170,69.0,0.0,180.0,0.0,64.0
171,81.0,192.0,180.0,0.0,64.0
172,69.0,192.0,180.0,0.0,64.0
173,74.0,192.0,180.0,0.0,64.0
174,69.0,192.0,180.0,0.0,64.0
175,78.0,192.0,180.0,0.0,64.0
176,69.0,192.0,180.0,0.0,64.0
177,81.0,192.0,180.0,0.0,64.0
178,69.0,384.0,180.0,0.0,64.0
179,62.0,0.0,1530.0,0.0,64.0
180,71.0,384.0,390.0,0.0,64.0
181,55.0,48.0,780.0,0.0,64.0
182,79.0,0.0,390.0,0.0,64.0
183,78.0,48.0,40.0,0.0,64.0
184,57.0,0.0,780.0,0.0,64.0
185,76.0,48.0,40.0,0.0,64.0
186,78.0,48.0,40.0,0.0,64.0
187,76.0,48.0,40.0,0.0,64.0
188,78.0,48.0,40.0,0.0,64.0
189,76.0,48.0,40.0,0.0,64.0
190,78.0,48.0,40.0,0.0,64.0
191,76.0,48.0,40.0,0.0,64.0
192,78.0,48.0,40.0,0.0,64.0
193,76.0,48.0,40.0,0.0,64.0
194,78.0,48.0,40.0,0.0,64.0
195,76.0,48.0,40.0,0.0,64.0
196,78.0,48.0,40.0,0.0,64.0
197,76.0,48.0,40.0,0.0,64.0
198,78.0,48.0,40.0,0.0,64.0
199,76.0,48.0,40.0,0.0,64.0
200,61.0,0.0,780.0,0.0,64.0
201,45.0,0.0,780.0,0.0,64.0
202,78.0,48.0,40.0,0.0,64.0
203,76.0,48.0,40.0,0.0,64.0
204,78.0,48.0,40.0,0.0,64.0
205,76.0,48.0,40.0,0.0,64.0
206,78.0,48.0,40.0,0.0,64.0
207,76.0,48.0,40.0,0.0,64.0
208,78.0,48.0,40.0,0.0,64.0
209,76.0,384.0,40.0,0.0,64.0
210,74.0,384.0,390.0,0.0,64.0
211,62.0,0.0,2310.0,0.0,64.0
212,57.0,0.0,2310.0,0.0,64.0
213,50.0,0.0,2310.0,0.0,64.0
214,74.0,0.0,1140.0,0.0,64.0
215,71.0,192.0,180.0,0.0,64.0
216,69.0,192.0,180.0,0.0,64.0
217,67.0,384.0,180.0,0.0,64.0
218,66.0,384.0,390.0,0.0,64.0
219,67.0,0.0,390.0,0.0,64.0
220,76.0,384.0,390.0,0.0,64.0
221,78.0,0.0,390.0,0.0,64.0
222,69.0,384.0,390.0,0.0,64.0
223,71.0,384.0,390.0,0.0,64.0
224,80.0,0.0,390.0,0.0,64.0
225,49.0,0.0,2310.0,0.0,64.0
226,73.0,384.0,2310.0,0.0,64.0
227,64.0,192.0,180.0,0.0,64.0
228,62.0,192.0,180.0,0.0,64.0
229,64.0,192.0,180.0,0.0,64.0
230,61.0,192.0,180.0,0.0,64.0
231,64.0,192.0,180.0,0.0,64.0
232,62.0,192.0,180.0,0.0,64.0
233,64.0,192.0,180.0,0.0,64.0
234,57.0,192.0,180.0,0.0,64.0
235,64.0,192.0,180.0,0.0,64.0
236,62.0,192.0,180.0,0.0,64.0
237,64.0,0.0,180.0,0.0,64.0
238,74.0,0.0,780.0,0.0,64.0
239,59.0,0.0,780.0,0.0,64.0
240,66.0,0.0,780.0,0.0,64.0
241,47.0,0.0,780.0,0.0,64.0
242,81.0,384.0,15.0,0.0,64.0
243,80.0,384.0,390.0,0.0,64.0
244,78.0,384.0,390.0,0.0,64.0
245,77.0,384.0,390.0,0.0,64.0
246,75.0,192.0,390.0,0.0,64.0
247,47.0,0.0,780.0,0.0,64.0
248,77.0,192.0,180.0,0.0,64.0
249,61.0,0.0,780.0,0.0,64.0
250,68.0,0.0,780.0,0.0,64.0
251,59.0,0.0,780.0,0.0,64.0
252,73.0,192.0,180.0,0.0,64.0
253,80.0,192.0,180.0,0.0,64.0
254,73.0,192.0,180.0,0.0,64.0
255,85.0,192.0,180.0,0.0,64.0
256,73.0,192.0,180.0,0.0,64.0
257,77.0,192.0,180.0,0.0,64.0
258,73.0,192.0,180.0,0.0,64.0
259,80.0,192.0,180.0,0.0,64.0
260,73.0,192.0,180.0,0.0,64.0
261,85.0,192.0,180.0,0.0,64.0
262,73.0,192.0,180.0,0.0,64.0
263,57.0,0.0,780.0,0.0,64.0
264,45.0,192.0,780.0,0.0,64.0
265,61.0,0.0,780.0,0.0,64.0
266,66.0,0.0,780.0,0.0,64.0
267,78.0,192.0,180.0,0.0,64.0
268,73.0,192.0,180.0,0.0,64.0
269,81.0,192.0,180.0,0.0,64.0
270,73.0,0.0,180.0,0.0,64.0
271,85.0,192.0,180.0,0.0,64.0
272,73.0,192.0,180.0,0.0,64.0
273,78.0,192.0,180.0,0.0,64.0
274,73.0,192.0,180.0,0.0,64.0
275,81.0,192.0,180.0,0.0,64.0
276,73.0,192.0,180.0,0.0,64.0
277,85.0,192.0,180.0,0.0,64.0
278,73.0,192.0,180.0,0.0,64.0
279,59.0,0.0,780.0,0.0,64.0
280,62.0,0.0,780.0,0.0,64.0
281,66.0,0.0,1530.0,0.0,64.0
282,83.0,192.0,180.0,0.0,64.0
283,47.0,48.0,780.0,0.0,64.0
284,85.0,384.0,180.0,0.0,64.0
285,81.0,0.0,390.0,0.0,64.0
286,81.0,48.0,40.0,0.0,64.0
287,49.0,0.0,1530.0,0.0,64.0
288,61.0,0.0,1530.0,0.0,64.0
289,80.0,48.0,40.0,0.0,64.0
290,81.0,48.0,40.0,0.0,64.0
291,80.0,48.0,40.0,0.0,64.0
292,81.0,48.0,40.0,0.0,64.0
293,80.0,48.0,40.0,0.0,64.0
294,81.0,48.0,40.0,0.0,64.0
295,80.0,48.0,40.0,0.0,64.0
296,81.0,48.0,40.0,0.0,64.0
297,80.0,48.0,40.0,0.0,64.0
298,81.0,48.0,40.0,0.0,64.0
299,80.0,48.0,40.0,0.0,64.0
300,81.0,48.0,40.0,0.0,64.0
301,80.0,48.0,40.0,0.0,64.0
302,81.0,48.0,40.0,0.0,64.0
303,80.0,48.0,40.0,0.0,64.0
304,81.0,48.0,40.0,0.0,64.0
305,65.0,0.0,780.0,0.0,64.0
306,80.0,48.0,40.0,0.0,64.0
307,81.0,48.0,40.0,0.0,64.0
308,80.0,48.0,40.0,0.0,64.0
309,81.0,48.0,40.0,0.0,64.0
310,80.0,48.0,40.0,0.0,64.0
311,81.0,48.0,40.0,0.0,64.0
312,80.0,384.0,40.0,0.0,64.0
313,78.0,768.0,15.0,0.0,64.0
314,69.0,0.0,2310.0,0.0,64.0
315,73.0,0.0,2310.0,0.0,64.0
316,54.0,384.0,390.0,0.0,64.0
317,57.0,384.0,390.0,0.0,64.0
318,61.0,384.0,390.0,0.0,64.0
319,57.0,384.0,390.0,0.0,64.0
320,54.0,768.0,390.0,0.0,64.0
321,50.0,768.0,2310.0,0.0,64.0
322,59.0,0.0,2310.0,0.0,64.0
323,71.0,384.0,390.0,0.0,64.0
324,74.0,384.0,390.0,0.0,64.0
325,78.0,384.0,390.0,0.0,64.0
326,74.0,384.0,390.0,0.0,64.0
327,71.0,768.0,2700.0,0.0,64.0
328,79.0,0.0,2310.0,0.0,64.0
329,76.0,0.0,2310.0,0.0,64.0
330,52.0,384.0,390.0,0.0,64.0
331,55.0,384.0,390.0,0.0,64.0
332,59.0,384.0,390.0,0.0,64.0
333,64.0,384.0,390.0,0.0,64.0
334,52.0,0.0,390.0,0.0,64.0
335,57.0,768.0,2310.0,0.0,64.0
336,45.0,0.0,2310.0,0.0,64.0
337,61.0,0.0,2310.0,0.0,64.0
338,64.0,0.0,2310.0,0.0,64.0
339,69.0,384.0,390.0,0.0,64.0
340,73.0,384.0,390.0,0.0,64.0
341,76.0,384.0,390.0,0.0,64.0
342,73.0,384.0,390.0,0.0,64.0
343,69.0,0.0,2700.0,0.0,64.0
344,74.0,0.0,2310.0,0.0,64.0
345,78.0,384.0,2700.0,0.0,64.0
346,50.0,384.0,390.0,0.0,64.0
347,54.0,384.0,390.0,0.0,64.0
348,57.0,384.0,390.0,0.0,64.0
349,62.0,384.0,390.0,0.0,64.0
350,50.0,0.0,390.0,0.0,64.0
351,55.0,0.0,2310.0,0.0,64.0
352,59.0,0.0,2310.0,0.0,64.0
353,62.0,384.0,780.0,0.0,64.0
354,78.0,0.0,390.0,0.0,64.0
355,76.0,384.0,390.0,0.0,64.0
356,74.0,192.0,390.0,0.0,64.0
357,64.0,0.0,1530.0,0.0,64.0
358,73.0,192.0,180.0,0.0,64.0
359,74.0,384.0,180.0,0.0,64.0
360,71.0,192.0,390.0,0.0,64.0
361,70.0,192.0,180.0,0.0,64.0
362,61.0,0.0,780.0,0.0,64.0
363,54.0,0.0,780.0,0.0,64.0
364,66.0,192.0,180.0,0.0,64.0
365,73.0,192.0,180.0,0.0,64.0
366,66.0,192.0,180.0,0.0,64.0
367,78.0,192.0,180.0,0.0,64.0
368,66.0,192.0,180.0,0.0,64.0
369,70.0,192.0,180.0,0.0,64.0
370,66.0,192.0,180.0,0.0,64.0
371,73.0,192.0,180.0,0.0,64.0
372,66.0,192.0,180.0,0.0,64.0
373,78.0,192.0,180.0,0.0,64.0
374,66.0,192.0,180.0,0.0,64.0
375,71.0,192.0,180.0,0.0,64.0
376,59.0,0.0,780.0,0.0,64.0
377,54.0,192.0,780.0,0.0,64.0
378,62.0,0.0,780.0,0.0,64.0
379,66.0,192.0,180.0,0.0,64.0
380,74.0,192.0,180.0,0.0,64.0
381,66.0,0.0,180.0,0.0,64.0
382,78.0,192.0,180.0,0.0,64.0
383,66.0,192.0,180.0,0.0,64.0
384,71.0,192.0,180.0,0.0,64.0
385,66.0,192.0,180.0,0.0,64.0
386,74.0,192.0,180.0,0.0,64.0
387,66.0,192.0,180.0,0.0,64.0
388,78.0,192.0,180.0,0.0,64.0
389,66.0,192.0,180.0,0.0,64.0
390,54.0,0.0,780.0,0.0,64.0
391,61.0,0.0,780.0,0.0,64.0
392,52.0,192.0,780.0,0.0,64.0
393,70.0,192.0,180.0,0.0,64.0
394,66.0,192.0,180.0,0.0,64.0
395,73.0,192.0,180.0,0.0,64.0
396,66.0,0.0,180.0,0.0,64.0
397,78.0,192.0,180.0,0.0,64.0
398,66.0,192.0,180.0,0.0,64.0
399,70.0,192.0,180.0,0.0,64.0
400,66.0,192.0,180.0,0.0,64.0
401,73.0,192.0,180.0,0.0,64.0
402,66.0,192.0,180.0,0.0,64.0
403,78.0,192.0,180.0,0.0,64.0
404,66.0,192.0,180.0,0.0,64.0
405,59.0,0.0,780.0,0.0,64.0
406,54.0,192.0,780.0,0.0,64.0
407,50.0,0.0,780.0,0.0,64.0
408,71.0,192.0,180.0,0.0,64.0
409,66.0,192.0,180.0,0.0,64.0
410,74.0,192.0,180.0,0.0,64.0
411,66.0,0.0,180.0,0.0,64.0
412,78.0,192.0,180.0,0.0,64.0
413,66.0,192.0,180.0,0.0,64.0
414,71.0,192.0,180.0,0.0,64.0
415,66.0,192.0,180.0,0.0,64.0
416,74.0,192.0,180.0,0.0,64.0
417,66.0,192.0,180.0,0.0,64.0
418,78.0,192.0,180.0,0.0,64.0
419,66.0,192.0,180.0,0.0,64.0
420,59.0,0.0,1530.0,0.0,64.0
421,76.0,192.0,180.0,0.0,64.0
422,52.0,48.0,780.0,0.0,64.0
423,78.0,384.0,180.0,0.0,64.0
424,54.0,48.0,780.0,0.0,64.0
425,74.0,0.0,15.0,0.0,64.0
426,73.0,48.0,40.0,0.0,64.0
427,74.0,48.0,40.0,0.0,64.0
428,73.0,48.0,40.0,0.0,64.0
429,74.0,48.0,40.0,0.0,64.0
430,73.0,48.0,40.0,0.0,64.0
431,74.0,48.0,40.0,0.0,64.0
432,73.0,48.0,40.0,0.0,64.0
433,74.0,48.0,40.0,0.0,64.0
434,73.0,48.0,40.0,0.0,64.0
435,74.0,48.0,40.0,0.0,64.0
436,73.0,48.0,40.0,0.0,64.0
437,74.0,48.0,40.0,0.0,64.0
438,73.0,48.0,40.0,0.0,64.0
439,74.0,48.0,40.0,0.0,64.0
440,73.0,0.0,40.0,0.0,64.0
441,42.0,0.0,780.0,0.0,64.0
442,74.0,48.0,40.0,0.0,64.0
443,58.0,0.0,780.0,0.0,64.0
444,73.0,48.0,40.0,0.0,64.0
445,74.0,48.0,40.0,0.0,64.0
446,73.0,48.0,40.0,0.0,64.0
447,74.0,48.0,40.0,0.0,64.0
448,73.0,48.0,40.0,0.0,64.0
449,74.0,48.0,40.0,0.0,64.0
450,73.0,384.0,40.0,0.0,64.0
451,71.0,384.0,390.0,0.0,64.0
452,62.0,0.0,2310.0,0.0,64.0
453,71.0,0.0,2310.0,0.0,64.0
454,59.0,192.0,180.0,0.0,64.0
455,58.0,192.0,180.0,0.0,64.0
456,59.0,192.0,180.0,0.0,64.0
457,54.0,192.0,180.0,0.0,64.0
458,59.0,192.0,180.0,0.0,64.0
459,58.0,192.0,180.0,0.0,64.0
460,59.0,192.0,180.0,0.0,64.0
461,50.0,192.0,180.0,0.0,64.0
462,54.0,192.0,180.0,0.0,64.0
463,52.0,192.0,180.0,0.0,64.0
464,54.0,0.0,180.0,0.0,64.0
465,47.0,768.0,15.0,0.0,64.0
466,59.0,0.0,1530.0,0.0,64.0
467,71.0,0.0,1920.0,0.0,64.0
468,65.0,0.0,1530.0,0.0,64.0
469,56.0,384.0,1530.0,0.0,64.0
470,62.0,384.0,390.0,0.0,64.0
471,66.0,0.0,1530.0,0.0,64.0
472,54.0,0.0,2310.0,0.0,64.0
473,73.0,0.0,390.0,0.0,64.0
474,64.0,48.0,390.0,0.0,64.0
475,71.0,48.0,40.0,0.0,64.0
476,61.0,0.0,1530.0,0.0,64.0
477,70.0,48.0,40.0,0.0,64.0
478,71.0,48.0,40.0,0.0,64.0
479,70.0,48.0,40.0,0.0,64.0
480,71.0,48.0,40.0,0.0,64.0
481,70.0,48.0,40.0,0.0,64.0
482,71.0,48.0,40.0,0.0,64.0
483,70.0,48.0,40.0,0.0,64.0
484,71.0,48.0,40.0,0.0,64.0
485,70.0,48.0,40.0,0.0,64.0
486,71.0,48.0,40.0,0.0,64.0
487,70.0,48.0,40.0,0.0,64.0
488,71.0,48.0,40.0,0.0,64.0
489,70.0,48.0,40.0,0.0,64.0
490,71.0,48.0,40.0,0.0,64.0
491,70.0,48.0,40.0,0.0,64.0
492,64.0,2304.0,780.0,0.0,64.0
493,71.0,48.0,40.0,0.0,64.0
494,70.0,48.0,40.0,0.0,64.0
495,71.0,48.0,40.0,0.0,64.0
496,70.0,48.0,40.0,0.0,64.0
497,71.0,48.0,40.0,0.0,64.0
498,70.0,48.0,40.0,0.0,64.0
499,71.0,48.0,40.0,0.0,64.0
500,70.0,384.0,40.0,0.0,64.0
501,66.0,0.0,2310.0,0.0,64.0
502,47.0,0.0,2310.0,0.0,64.0
503,71.0,0.0,15.0,0.0,64.0
504,62.0,3072.0,2310.0,0.0,64.0
505,78.0,192.0,780.0,0.0,64.0
506,79.0,192.0,180.0,0.0,64.0
507,78.0,192.0,180.0,0.0,64.0
508,79.0,192.0,180.0,0.0,64.0
509,76.0,384.0,180.0,0.0,64.0
510,78.0,384.0,390.0,0.0,64.0
511,71.0,192.0,180.0,0.0,64.0
512,73.0,192.0,15.0,0.0,64.0
513,78.0,192.0,180.0,0.0,64.0
514,76.0,192.0,180.0,0.0,64.0
515,74.0,192.0,180.0,0.0,64.0
516,71.0,192.0,180.0,0.0,64.0
517,78.0,192.0,180.0,0.0,64.0
518,78.0,192.0,180.0,0.0,64.0
519,74.0,192.0,180.0,0.0,64.0
520,71.0,768.0,180.0,0.0,64.0
521,79.0,768.0,780.0,0.0,64.0
522,78.0,576.0,780.0,0.0,64.0
523,76.0,96.0,570.0,0.0,64.0
524,71.0,192.0,780.0,0.0,64.0
525,74.0,96.0,90.0,0.0,64.0
526,73.0,192.0,90.0,0.0,64.0
527,74.0,192.0,180.0,0.0,64.0
528,76.0,0.0,180.0,0.0,64.0
529,74.0,192.0,180.0,0.0,64.0
530,78.0,192.0,390.0,0.0,64.0
531,73.0,0.0,180.0,0.0,64.0
532,83.0,192.0,570.0,0.0,64.0
533,74.0,192.0,180.0,0.0,64.0
534,71.0,192.0,180.0,0.0,64.0
535,73.0,384.0,390.0,0.0,64.0
536,77.0,0.0,180.0,0.0,64.0
537,78.0,192.0,780.0,0.0,64.0
538,66.0,192.0,180.0,0.0,64.0
539,68.0,192.0,15.0,0.0,64.0
540,77.0,0.0,390.0,0.0,64.0
541,73.0,192.0,180.0,0.0,64.0
542,71.0,192.0,180.0,0.0,64.0
543,78.0,192.0,390.0,0.0,64.0
544,69.0,192.0,180.0,0.0,64.0
545,66.0,0.0,180.0,0.0,64.0
546,77.0,192.0,180.0,0.0,64.0
547,73.0,192.0,15.0,0.0,64.0
548,78.0,384.0,390.0,0.0,64.0
549,69.0,192.0,180.0,0.0,64.0
550,66.0,0.0,180.0,0.0,64.0
551,74.0,192.0,780.0,0.0,64.0
552,78.0,192.0,180.0,0.0,64.0
553,76.0,192.0,180.0,0.0,64.0
554,76.0,0.0,180.0,0.0,64.0
555,73.0,192.0,780.0,0.0,64.0
556,76.0,96.0,180.0,0.0,64.0
557,78.0,96.0,90.0,0.0,64.0
558,76.0,192.0,90.0,0.0,64.0
559,74.0,192.0,180.0,0.0,64.0
560,74.0,0.0,180.0,0.0,64.0
561,71.0,192.0,780.0,0.0,64.0
562,74.0,96.0,180.0,0.0,64.0
563,76.0,96.0,90.0,0.0,64.0
564,74.0,384.0,90.0,0.0,64.0
565,73.0,192.0,570.0,0.0,64.0
566,66.0,192.0,780.0,0.0,64.0
567,70.0,0.0,390.0,0.0,64.0
568,78.0,0.0,570.0,0.0,64.0
569,71.0,0.0,780.0,0.0,64.0
570,67.0,192.0,180.0,0.0,64.0
571,66.0,192.0,180.0,0.0,64.0
572,76.0,192.0,570.0,0.0,64.0
573,67.0,192.0,180.0,0.0,64.0
574,64.0,192.0,180.0,0.0,64.0
575,66.0,384.0,390.0,0.0,64.0
576,70.0,0.0,390.0,0.0,64.0
577,73.0,0.0,180.0,0.0,64.0
578,74.0,0.0,390.0,0.0,64.0
579,71.0,192.0,780.0,0.0,64.0
580,59.0,192.0,180.0,0.0,64.0
581,73.0,192.0,780.0,0.0,64.0
582,61.0,192.0,15.0,0.0,64.0
583,66.0,192.0,180.0,0.0,64.0
584,70.0,0.0,390.0,0.0,64.0
585,64.0,0.0,180.0,0.0,64.0
586,62.0,192.0,180.0,0.0,64.0
587,71.0,192.0,390.0,0.0,64.0
588,74.0,0.0,390.0,0.0,64.0
589,59.0,0.0,180.0,0.0,64.0
590,66.0,192.0,180.0,0.0,64.0
591,70.0,0.0,180.0,0.0,64.0
592,73.0,0.0,180.0,0.0,64.0
593,66.0,192.0,180.0,0.0,64.0
594,71.0,384.0,390.0,0.0,64.0
595,74.0,0.0,390.0,0.0,64.0
596,62.0,192.0,180.0,0.0,64.0
597,59.0,0.0,180.0,0.0,64.0
598,67.0,192.0,780.0,0.0,64.0
599,71.0,192.0,180.0,0.0,64.0
600,76.0,0.0,180.0,0.0,64.0
601,69.0,192.0,180.0,0.0,64.0
602,73.0,0.0,15.0,0.0,64.0
603,69.0,0.0,180.0,0.0,64.0
604,66.0,0.0,780.0,0.0,64.0
605,78.0,0.0,390.0,0.0,64.0
606,69.0,96.0,180.0,0.0,64.0
607,71.0,96.0,90.0,0.0,64.0
608,69.0,192.0,90.0,0.0,64.0
609,67.0,192.0,180.0,0.0,64.0
610,71.0,0.0,180.0,0.0,64.0
611,67.0,0.0,180.0,0.0,64.0
612,71.0,192.0,180.0,0.0,64.0
613,64.0,192.0,780.0,0.0,64.0
614,76.0,0.0,390.0,0.0,64.0
615,67.0,96.0,180.0,0.0,64.0
616,69.0,96.0,90.0,0.0,64.0
617,67.0,192.0,90.0,0.0,64.0
618,66.0,0.0,180.0,0.0,64.0
619,70.0,192.0,15.0,0.0,64.0
620,71.0,96.0,570.0,0.0,64.0
621,66.0,0.0,15.0,0.0,64.0
622,62.0,96.0,180.0,0.0,64.0
623,61.0,96.0,90.0,0.0,64.0
624,59.0,192.0,90.0,0.0,64.0
625,61.0,0.0,780.0,0.0,64.0
626,64.0,192.0,780.0,0.0,64.0
627,73.0,96.0,90.0,0.0,64.0
628,71.0,288.0,90.0,0.0,64.0
629,70.0,96.0,300.0,0.0,64.0
630,66.0,192.0,390.0,0.0,64.0
631,62.0,192.0,180.0,0.0,64.0
632,71.0,0.0,15.0,0.0,64.0
633,59.0,0.0,780.0,0.0,64.0
634,64.0,0.0,180.0,0.0,64.0
635,73.0,0.0,180.0,0.0,64.0
636,71.0,0.0,780.0,0.0,64.0
637,74.0,192.0,180.0,0.0,64.0
638,66.0,0.0,780.0,0.0,64.0
639,76.0,192.0,180.0,0.0,64.0
640,78.0,0.0,390.0,0.0,64.0
641,62.0,192.0,180.0,0.0,64.0
642,61.0,192.0,180.0,0.0,64.0
643,62.0,192.0,180.0,0.0,64.0
644,74.0,0.0,180.0,0.0,64.0
645,59.0,192.0,180.0,0.0,64.0
646,78.0,0.0,180.0,0.0,64.0
647,71.0,96.0,390.0,0.0,64.0
648,77.0,0.0,390.0,0.0,64.0
649,61.0,0.0,390.0,0.0,64.0
650,69.0,96.0,90.0,0.0,64.0
651,68.0,0.0,90.0,0.0,64.0
652,73.0,384.0,15.0,0.0,64.0
653,69.0,0.0,390.0,0.0,64.0
654,78.0,0.0,780.0,0.0,64.0
655,54.0,192.0,180.0,0.0,64.0
656,71.0,0.0,390.0,0.0,64.0
657,56.0,192.0,15.0,0.0,64.0
658,77.0,0.0,390.0,0.0,64.0
659,73.0,0.0,390.0,0.0,64.0
660,68.0,0.0,15.0,0.0,64.0
661,61.0,192.0,180.0,0.0,64.0
662,59.0,192.0,180.0,0.0,64.0
663,78.0,0.0,390.0,0.0,64.0
664,73.0,0.0,390.0,0.0,64.0
665,69.0,0.0,390.0,0.0,64.0
666,57.0,192.0,180.0,0.0,64.0
667,54.0,192.0,180.0,0.0,64.0
668,61.0,192.0,180.0,0.0,64.0
669,61.0,0.0,180.0,0.0,64.0
670,73.0,0.0,180.0,0.0,64.0
671,77.0,192.0,180.0,0.0,64.0
672,68.0,0.0,180.0,0.0,64.0
673,78.0,0.0,390.0,0.0,64.0
674,57.0,192.0,180.0,0.0,64.0
675,69.0,0.0,390.0,0.0,64.0
676,73.0,0.0,390.0,0.0,64.0
677,54.0,384.0,180.0,0.0,64.0
678,66.0,0.0,390.0,0.0,64.0
679,71.0,192.0,390.0,0.0,64.0
680,62.0,0.0,780.0,0.0,64.0
681,78.0,0.0,180.0,0.0,64.0
682,68.0,0.0,390.0,0.0,64.0
683,71.0,0.0,390.0,0.0,64.0
684,76.0,192.0,180.0,0.0,64.0
685,61.0,0.0,780.0,0.0,64.0
686,76.0,192.0,15.0,0.0,64.0
687,73.0,0.0,390.0,0.0,64.0
688,78.0,96.0,90.0,0.0,64.0
689,76.0,192.0,90.0,0.0,64.0
690,69.0,0.0,15.0,0.0,64.0
691,66.0,192.0,390.0,0.0,64.0
692,74.0,192.0,15.0,0.0,64.0
693,59.0,192.0,780.0,0.0,64.0
694,74.0,96.0,180.0,0.0,64.0
695,71.0,192.0,390.0,0.0,64.0
696,76.0,96.0,90.0,0.0,64.0
697,74.0,0.0,90.0,0.0,64.0
698,68.0,0.0,15.0,0.0,64.0
699,65.0,0.0,390.0,0.0,64.0
700,73.0,192.0,180.0,0.0,64.0
701,73.0,0.0,180.0,0.0,64.0
702,57.0,0.0,390.0,0.0,64.0
703,69.0,0.0,390.0,0.0,64.0
704,73.0,96.0,180.0,0.0,64.0
705,74.0,96.0,90.0,0.0,64.0
706,73.0,0.0,90.0,0.0,64.0
707,71.0,192.0,180.0,0.0,64.0
708,56.0,192.0,780.0,0.0,64.0
709,66.0,192.0,15.0,0.0,64.0
710,63.0,0.0,390.0,0.0,64.0
711,71.0,192.0,15.0,0.0,64.0
712,59.0,0.0,390.0,0.0,64.0
713,65.0,0.0,390.0,0.0,64.0
714,73.0,96.0,90.0,0.0,64.0
715,71.0,0.0,90.0,0.0,64.0
716,66.0,0.0,390.0,0.0,64.0
717,69.0,192.0,180.0,0.0,64.0
718,61.0,384.0,390.0,0.0,64.0
719,54.0,0.0,390.0,0.0,64.0
720,73.0,0.0,180.0,0.0,64.0
721,78.0,0.0,780.0,0.0,64.0
722,54.0,0.0,180.0,0.0,64.0
723,69.0,0.0,180.0,0.0,64.0
724,61.0,192.0,180.0,0.0,64.0
725,62.0,192.0,390.0,0.0,64.0
726,59.0,192.0,180.0,0.0,64.0
727,68.0,0.0,780.0,0.0,64.0
728,56.0,0.0,180.0,0.0,64.0
729,77.0,0.0,390.0,0.0,64.0
730,61.0,192.0,180.0,0.0,64.0
731,49.0,384.0,180.0,0.0,64.0
732,78.0,0.0,390.0,0.0,64.0
733,69.0,0.0,390.0,0.0,64.0
734,61.0,0.0,15.0,0.0,64.0
735,54.0,0.0,390.0,0.0,64.0
736,81.0,0.0,390.0,0.0,64.0
737,74.0,192.0,780.0,0.0,64.0
738,66.0,192.0,180.0,0.0,64.0
739,79.0,192.0,780.0,0.0,64.0
740,64.0,192.0,15.0,0.0,64.0
741,73.0,0.0,780.0,0.0,64.0
742,64.0,96.0,180.0,0.0,64.0
743,66.0,96.0,90.0,0.0,64.0
744,64.0,0.0,90.0,0.0,64.0
745,78.0,0.0,780.0,0.0,64.0
746,62.0,192.0,15.0,0.0,64.0
747,71.0,0.0,780.0,0.0,64.0
748,62.0,192.0,15.0,0.0,64.0
749,64.0,96.0,90.0,0.0,64.0
750,62.0,192.0,90.0,0.0,64.0
751,76.0,0.0,780.0,0.0,64.0
752,61.0,192.0,15.0,0.0,64.0
753,69.0,0.0,780.0,0.0,64.0
754,61.0,96.0,180.0,0.0,64.0
755,62.0,96.0,90.0,0.0,64.0
756,61.0,192.0,90.0,0.0,64.0
757,74.0,192.0,780.0,0.0,64.0
758,59.0,192.0,180.0,0.0,64.0
759,59.0,192.0,180.0,0.0,64.0
760,67.0,96.0,570.0,0.0,64.0
761,59.0,96.0,180.0,0.0,64.0
762,61.0,96.0,90.0,0.0,64.0
763,59.0,0.0,90.0,0.0,64.0
764,73.0,0.0,390.0,0.0,64.0
765,57.0,0.0,390.0,0.0,64.0
766,69.0,96.0,90.0,0.0,64.0
767,67.0,192.0,90.0,0.0,64.0
768,66.0,192.0,390.0,0.0,64.0
769,74.0,0.0,960.0,0.0,64.0
770,50.0,192.0,180.0,0.0,64.0
771,54.0,0.0,180.0,0.0,64.0
772,64.0,96.0,180.0,0.0,64.0
773,55.0,0.0,180.0,0.0,64.0
774,66.0,96.0,90.0,0.0,64.0
775,52.0,0.0,180.0,0.0,64.0
776,67.0,192.0,90.0,0.0,64.0
777,57.0,0.0,180.0,0.0,64.0
778,66.0,192.0,180.0,0.0,64.0
779,45.0,0.0,180.0,0.0,64.0
780,73.0,384.0,180.0,0.0,64.0
781,64.0,0.0,180.0,0.0,64.0
782,50.0,0.0,390.0,0.0,64.0
783,74.0,0.0,390.0,0.0,64.0
784,62.0,192.0,780.0,0.0,64.0
785,66.0,384.0,15.0,0.0,64.0
786,78.0,192.0,180.0,0.0,64.0
787,79.0,192.0,180.0,0.0,64.0
788,64.0,192.0,780.0,0.0,64.0
789,79.0,0.0,180.0,0.0,64.0
790,61.0,192.0,780.0,0.0,64.0
791,79.0,96.0,180.0,0.0,64.0
792,81.0,96.0,90.0,0.0,64.0
793,79.0,0.0,90.0,0.0,64.0
794,78.0,192.0,180.0,0.0,64.0
795,62.0,192.0,780.0,0.0,64.0
796,78.0,0.0,180.0,0.0,64.0
797,78.0,96.0,180.0,0.0,64.0
798,59.0,192.0,780.0,0.0,64.0
799,79.0,96.0,90.0,0.0,64.0
800,78.0,0.0,90.0,0.0,64.0
801,76.0,192.0,180.0,0.0,64.0
802,61.0,0.0,780.0,0.0,64.0
803,76.0,0.0,180.0,0.0,64.0
804,76.0,96.0,180.0,0.0,64.0
805,58.0,192.0,390.0,0.0,64.0
806,78.0,96.0,90.0,0.0,64.0
807,76.0,0.0,90.0,0.0,64.0
808,74.0,192.0,180.0,0.0,64.0
809,59.0,0.0,390.0,0.0,64.0
810,76.0,192.0,180.0,0.0,64.0
811,61.0,0.0,180.0,0.0,64.0
812,62.0,192.0,180.0,0.0,64.0
813,78.0,0.0,180.0,0.0,64.0
814,71.0,192.0,780.0,0.0,64.0
815,79.0,384.0,180.0,0.0,64.0
816,64.0,0.0,180.0,0.0,64.0
817,54.0,0.0,780.0,0.0,64.0
818,73.0,192.0,570.0,0.0,64.0
819,66.0,0.0,390.0,0.0,64.0
820,70.0,192.0,390.0,0.0,64.0
821,61.0,0.0,390.0,0.0,64.0
822,78.0,0.0,570.0,0.0,64.0
823,71.0,192.0,780.0,0.0,64.0
824,59.0,0.0,390.0,0.0,64.0
825,55.0,192.0,180.0,0.0,64.0
826,54.0,192.0,180.0,0.0,64.0
827,76.0,96.0,570.0,0.0,64.0
828,61.0,0.0,780.0,0.0,64.0
829,55.0,192.0,180.0,0.0,64.0
830,52.0,0.0,180.0,0.0,64.0
831,54.0,384.0,390.0,0.0,64.0
832,70.0,0.0,390.0,0.0,64.0
833,74.0,96.0,90.0,0.0,64.0
834,73.0,0.0,90.0,0.0,64.0
835,71.0,192.0,780.0,0.0,64.0
836,74.0,192.0,390.0,0.0,64.0
837,47.0,0.0,180.0,0.0,64.0
838,66.0,0.0,180.0,0.0,64.0
839,64.0,0.0,390.0,0.0,64.0
840,73.0,0.0,780.0,0.0,64.0
841,49.0,192.0,15.0,0.0,64.0
842,66.0,0.0,780.0,0.0,64.0
843,54.0,192.0,180.0,0.0,64.0
844,70.0,0.0,390.0,0.0,64.0
845,52.0,192.0,180.0,0.0,64.0
846,50.0,192.0,180.0,0.0,64.0
847,74.0,0.0,390.0,0.0,64.0
848,71.0,192.0,390.0,0.0,64.0
849,47.0,0.0,180.0,0.0,64.0
850,73.0,192.0,180.0,0.0,64.0
851,66.0,0.0,180.0,0.0,64.0
852,54.0,192.0,15.0,0.0,64.0
853,70.0,0.0,180.0,0.0,64.0
854,50.0,192.0,180.0,0.0,64.0
855,74.0,0.0,390.0,0.0,64.0
856,71.0,0.0,390.0,0.0,64.0
857,66.0,0.0,390.0,0.0,64.0
858,47.0,384.0,180.0,0.0,64.0
859,55.0,0.0,780.0,0.0,64.0
860,59.0,0.0,390.0,0.0,64.0
861,76.0,0.0,180.0,0.0,64.0
862,71.0,192.0,180.0,0.0,64.0
863,64.0,0.0,390.0,0.0,64.0
864,73.0,192.0,15.0,0.0,64.0
865,69.0,0.0,15.0,0.0,64.0
866,54.0,0.0,780.0,0.0,64.0
867,74.0,0.0,390.0,0.0,64.0
868,69.0,192.0,15.0,0.0,64.0
869,57.0,192.0,390.0,0.0,64.0
870,71.0,96.0,90.0,0.0,64.0
871,69.0,0.0,90.0,0.0,64.0
872,62.0,0.0,390.0,0.0,64.0
873,67.0,192.0,180.0,0.0,64.0
874,71.0,0.0,15.0,0.0,64.0
875,73.0,0.0,390.0,0.0,64.0
876,67.0,192.0,15.0,0.0,64.0
877,52.0,0.0,780.0,0.0,64.0
878,55.0,192.0,390.0,0.0,64.0
879,69.0,96.0,90.0,0.0,64.0
880,67.0,0.0,90.0,0.0,64.0
881,61.0,0.0,390.0,0.0,64.0
882,70.0,0.0,180.0,0.0,64.0
883,66.0,192.0,15.0,0.0,64.0
884,70.0,192.0,180.0,0.0,64.0
885,50.0,0.0,390.0,0.0,64.0
886,66.0,0.0,15.0,0.0,64.0
887,59.0,0.0,390.0,0.0,64.0
888,71.0,0.0,780.0,0.0,64.0
889,67.0,96.0,90.0,0.0,64.0
890,66.0,192.0,90.0,0.0,64.0
891,49.0,192.0,780.0,0.0,64.0
892,64.0,192.0,180.0,0.0,64.0
893,61.0,192.0,390.0,0.0,64.0
894,64.0,0.0,180.0,0.0,64.0
895,70.0,0.0,390.0,0.0,64.0
896,64.0,96.0,180.0,0.0,64.0
897,52.0,0.0,390.0,0.0,64.0
898,66.0,96.0,90.0,0.0,64.0
899,64.0,0.0,90.0,0.0,64.0
900,71.0,192.0,780.0,0.0,64.0
901,62.0,192.0,180.0,0.0,64.0
902,54.0,0.0,180.0,0.0,64.0
903,47.0,0.0,390.0,0.0,64.0
904,63.0,192.0,180.0,0.0,64.0
905,57.0,0.0,180.0,0.0,64.0
906,55.0,192.0,180.0,0.0,64.0
907,64.0,0.0,780.0,0.0,64.0
908,56.0,0.0,180.0,0.0,64.0
909,72.0,192.0,180.0,0.0,64.0
910,57.0,0.0,390.0,0.0,64.0
911,71.0,192.0,180.0,0.0,64.0
912,72.0,192.0,180.0,0.0,64.0
913,69.0,0.0,180.0,0.0,64.0
914,62.0,192.0,180.0,0.0,64.0
915,66.0,0.0,180.0,0.0,64.0
916,67.0,0.0,390.0,0.0,64.0
917,71.0,192.0,390.0,0.0,64.0
918,55.0,192.0,180.0,0.0,64.0
919,57.0,0.0,180.0,0.0,64.0
920,59.0,192.0,180.0,0.0,64.0
921,64.0,192.0,180.0,0.0,64.0
922,60.0,192.0,390.0,0.0,64.0
923,66.0,0.0,180.0,0.0,64.0
924,51.0,0.0,780.0,0.0,64.0
925,66.0,192.0,180.0,0.0,64.0
926,71.0,192.0,180.0,0.0,64.0
927,59.0,0.0,780.0,0.0,64.0
928,69.0,192.0,180.0,0.0,64.0
929,52.0,0.0,390.0,0.0,64.0
930,67.0,192.0,180.0,0.0,64.0
931,64.0,192.0,180.0,0.0,64.0
932,71.0,192.0,180.0,0.0,64.0
933,51.0,192.0,180.0,0.0,64.0
934,59.0,0.0,180.0,0.0,64.0
935,71.0,0.0,180.0,0.0,64.0
936,67.0,192.0,180.0,0.0,64.0
937,52.0,0.0,390.0,0.0,64.0
938,59.0,384.0,390.0,0.0,64.0
939,64.0,0.0,180.0,0.0,64.0
940,72.0,192.0,780.0,0.0,64.0
941,64.0,192.0,180.0,0.0,64.0
942,67.0,0.0,180.0,0.0,64.0
943,66.0,192.0,180.0,0.0,64.0
944,62.0,0.0,15.0,0.0,64.0
945,66.0,0.0,180.0,0.0,64.0
946,62.0,0.0,15.0,0.0,64.0
947,66.0,0.0,180.0,0.0,64.0
948,71.0,192.0,780.0,0.0,64.0
949,64.0,0.0,90.0,0.0,64.0
950,67.0,96.0,90.0,0.0,64.0
951,66.0,0.0,90.0,0.0,64.0
952,62.0,192.0,90.0,0.0,64.0
953,64.0,192.0,180.0,0.0,64.0
954,60.0,0.0,180.0,0.0,64.0
955,64.0,0.0,180.0,0.0,64.0
956,60.0,0.0,180.0,0.0,64.0
957,60.0,0.0,180.0,0.0,64.0
958,69.0,192.0,570.0,0.0,64.0
959,64.0,96.0,180.0,0.0,64.0
960,62.0,0.0,90.0,0.0,64.0
961,66.0,96.0,90.0,0.0,64.0
962,64.0,0.0,90.0,0.0,64.0
963,60.0,192.0,90.0,0.0,64.0
964,59.0,0.0,390.0,0.0,64.0
965,63.0,0.0,390.0,0.0,64.0
966,66.0,384.0,180.0,0.0,64.0
967,64.0,0.0,780.0,0.0,64.0
968,67.0,192.0,390.0,0.0,64.0
969,52.0,0.0,180.0,0.0,64.0
970,57.0,192.0,180.0,0.0,64.0
971,66.0,192.0,780.0,0.0,64.0
972,54.0,48.0,180.0,0.0,64.0
973,64.0,48.0,40.0,0.0,64.0
974,59.0,48.0,180.0,0.0,64.0
975,63.0,48.0,40.0,0.0,64.0
976,64.0,48.0,40.0,0.0,64.0
977,63.0,0.0,40.0,0.0,64.0
978,64.0,48.0,40.0,0.0,64.0
979,47.0,0.0,180.0,0.0,64.0
980,63.0,48.0,40.0,0.0,64.0
981,64.0,48.0,40.0,0.0,64.0
982,63.0,0.0,40.0,0.0,64.0
983,64.0,192.0,180.0,0.0,64.0
984,67.0,0.0,180.0,0.0,64.0
985,52.0,384.0,390.0,0.0,64.0
986,66.0,0.0,180.0,0.0,64.0
987,69.0,0.0,180.0,0.0,64.0
988,67.0,192.0,390.0,0.0,64.0
989,71.0,0.0,390.0,0.0,64.0
990,64.0,192.0,390.0,0.0,64.0
991,70.0,192.0,780.0,0.0,64.0
992,66.0,0.0,390.0,0.0,64.0
993,64.0,192.0,180.0,0.0,64.0
994,73.0,192.0,780.0,0.0,64.0
995,64.0,96.0,180.0,0.0,64.0
996,66.0,96.0,90.0,0.0,64.0
997,64.0,0.0,90.0,0.0,64.0
998,78.0,192.0,780.0,0.0,64.0
999,62.0,192.0,180.0,0.0,64.0
1000,61.0,0.0,180.0,0.0,64.0
1001,71.0,0.0,180.0,0.0,64.0
1002,62.0,192.0,180.0,0.0,64.0
1003,59.0,0.0,180.0,0.0,64.0
1004,74.0,0.0,180.0,0.0,64.0
1005,79.0,0.0,180.0,0.0,64.0
1006,64.0,0.0,390.0,0.0,64.0
1007,76.0,192.0,180.0,0.0,64.0
1008,78.0,192.0,180.0,0.0,64.0
1009,74.0,0.0,180.0,0.0,64.0
1010,79.0,192.0,180.0,0.0,64.0
1011,76.0,0.0,390.0,0.0,64.0
1012,73.0,0.0,180.0,0.0,64.0
1013,57.0,192.0,180.0,0.0,64.0
1014,69.0,192.0,180.0,0.0,64.0
1015,62.0,0.0,180.0,0.0,64.0
1016,78.0,0.0,390.0,0.0,64.0
1017,70.0,0.0,180.0,0.0,64.0
1018,61.0,192.0,180.0,0.0,64.0
1019,71.0,192.0,180.0,0.0,64.0
1020,62.0,192.0,390.0,0.0,64.0
1021,59.0,0.0,780.0,0.0,64.0
1022,71.0,0.0,180.0,0.0,64.0
1023,67.0,0.0,390.0,0.0,64.0
1024,64.0,0.0,390.0,0.0,64.0
1025,73.0,192.0,180.0,0.0,64.0
1026,73.0,192.0,180.0,0.0,64.0
1027,58.0,0.0,390.0,0.0,64.0
1028,66.0,0.0,780.0,0.0,64.0
1029,78.0,192.0,180.0,0.0,64.0
1030,61.0,192.0,390.0,0.0,64.0
1031,76.0,0.0,180.0,0.0,64.0
1032,59.0,0.0,390.0,0.0,64.0
1033,74.0,192.0,180.0,0.0,64.0
1034,62.0,0.0,390.0,0.0,64.0
1035,71.0,192.0,180.0,0.0,64.0
1036,58.0,0.0,180.0,0.0,64.0
1037,61.0,0.0,180.0,0.0,64.0
1038,78.0,192.0,15.0,0.0,64.0
1039,66.0,192.0,180.0,0.0,64.0
1040,62.0,384.0,390.0,0.0,64.0
1041,59.0,0.0,390.0,0.0,64.0
1042,66.0,0.0,390.0,0.0,64.0
1043,74.0,192.0,180.0,0.0,64.0
1044,71.0,0.0,180.0,0.0,64.0
1045,79.0,0.0,780.0,0.0,64.0
1046,59.0,0.0,180.0,0.0,64.0
1047,74.0,0.0,180.0,0.0,64.0
1048,62.0,192.0,180.0,0.0,64.0
1049,64.0,0.0,180.0,0.0,64.0
1050,73.0,0.0,15.0,0.0,64.0
1051,57.0,192.0,15.0,0.0,64.0
1052,64.0,0.0,180.0,0.0,64.0
1053,57.0,0.0,15.0,0.0,64.0
1054,78.0,0.0,780.0,0.0,64.0
1055,73.0,96.0,180.0,0.0,64.0
1056,61.0,192.0,390.0,0.0,64.0
1057,59.0,0.0,90.0,0.0,64.0
1058,74.0,96.0,90.0,0.0,64.0
1059,57.0,0.0,90.0,0.0,64.0
1060,73.0,0.0,90.0,0.0,64.0
1061,62.0,0.0,180.0,0.0,64.0
1062,71.0,192.0,180.0,0.0,64.0
1063,55.0,0.0,15.0,0.0,64.0
1064,62.0,0.0,180.0,0.0,64.0
1065,71.0,0.0,180.0,0.0,64.0
1066,59.0,384.0,390.0,0.0,64.0
1067,76.0,0.0,780.0,0.0,64.0
1068,71.0,0.0,180.0,0.0,64.0
1069,55.0,96.0,180.0,0.0,64.0
1070,57.0,0.0,90.0,0.0,64.0
1071,73.0,96.0,90.0,0.0,64.0
1072,55.0,0.0,90.0,0.0,64.0
1073,71.0,0.0,90.0,0.0,64.0
1074,70.0,0.0,390.0,0.0,64.0
1075,54.0,384.0,390.0,0.0,64.0
1076,61.0,0.0,390.0,0.0,64.0
1077,71.0,192.0,780.0,0.0,64.0
1078,74.0,0.0,390.0,0.0,64.0
1079,66.0,192.0,180.0,0.0,64.0
1080,73.0,0.0,1140.0,0.0,64.0
1081,64.0,192.0,180.0,0.0,64.0
1082,64.0,0.0,15.0,0.0,64.0
1083,69.0,192.0,390.0,0.0,64.0
1084,66.0,96.0,90.0,0.0,64.0
1085,64.0,0.0,90.0,0.0,64.0
1086,66.0,0.0,570.0,0.0,64.0
1087,62.0,192.0,15.0,0.0,64.0
1088,71.0,0.0,780.0,0.0,64.0
1089,62.0,192.0,15.0,0.0,64.0
1090,64.0,96.0,90.0,0.0,64.0
1091,78.0,0.0,180.0,0.0,64.0
1092,62.0,192.0,90.0,0.0,64.0
1093,76.0,192.0,180.0,0.0,64.0
1094,61.0,192.0,390.0,0.0,64.0
1095,76.0,0.0,180.0,0.0,64.0
1096,76.0,192.0,180.0,0.0,64.0
1097,70.0,0.0,390.0,0.0,64.0
1098,74.0,0.0,180.0,0.0,64.0
1099,66.0,192.0,15.0,0.0,64.0
1100,59.0,192.0,180.0,0.0,64.0
1101,73.0,192.0,180.0,0.0,64.0
1102,61.0,0.0,180.0,0.0,64.0
1103,62.0,96.0,180.0,0.0,64.0
1104,71.0,192.0,780.0,0.0,64.0
1105,66.0,192.0,960.0,0.0,64.0
1106,61.0,96.0,90.0,0.0,64.0
1107,59.0,384.0,90.0,0.0,64.0
1108,61.0,0.0,390.0,0.0,64.0
1109,70.0,0.0,390.0,0.0,64.0
1110,54.0,0.0,390.0,0.0,64.0
1111,64.0,192.0,180.0,0.0,64.0
1112,71.0,0.0,1350.0,0.0,64.0
1113,47.0,0.0,3060.0,0.0,64.0
1114,63.0,0.0,390.0,0.0,64.0
1115,55.0,192.0,15.0,0.0,64.0
1116,64.0,96.0,570.0,0.0,64.0
1117,55.0,96.0,180.0,0.0,64.0
1118,57.0,96.0,90.0,0.0,64.0
1119,55.0,192.0,90.0,0.0,64.0
1120,54.0,0.0,2310.0,0.0,64.0
1121,66.0,96.0,90.0,0.0,64.0
1122,64.0,192.0,90.0,0.0,64.0
1123,63.0,192.0,180.0,0.0,64.0
1124,70.0,0.0,180.0,0.0,64.0
1125,64.0,0.0,180.0,0.0,64.0
1126,61.0,1536.0,180.0,0.0,64.0
1127,66.0,0.0,1530.0,0.0,64.0
1128,71.0,0.0,1530.0,0.0,64.0
1129,63.0,0.0,1530.0,0.0,64.0
