,note,step,duration,channel,velocity
0,60.0,512.0,1020.0,0.0,0.0
1,48.0,512.0,1530.0,3.0,0.0
2,51.0,0.0,1020.0,2.0,0.0
3,55.0,0.0,1020.0,1.0,0.0
4,55.0,512.0,1020.0,2.0,0.0
5,49.0,0.0,510.0,3.0,0.0
6,60.0,0.0,15.0,1.0,0.0
7,48.0,512.0,510.0,3.0,0.0
8,63.0,0.0,15.0,0.0,0.0
9,55.0,0.0,1020.0,2.0,0.0
10,46.0,512.0,510.0,3.0,0.0
11,56.0,0.0,1020.0,2.0,0.0
12,60.0,0.0,15.0,1.0,0.0
13,44.0,512.0,510.0,3.0,0.0
14,65.0,512.0,1020.0,0.0,0.0
15,53.0,0.0,1020.0,3.0,0.0
16,58.0,0.0,1020.0,2.0,0.0
17,61.0,512.0,510.0,1.0,0.0
18,67.0,0.0,1020.0,0.0,0.0
19,52.0,0.0,510.0,3.0,0.0
20,60.0,512.0,15.0,1.0,0.0
21,56.0,0.0,510.0,2.0,0.0
22,53.0,0.0,510.0,3.0,0.0
23,68.0,0.0,1020.0,0.0,0.0
24,60.0,0.0,510.0,2.0,0.0
25,65.0,0.0,1020.0,1.0,0.0
26,44.0,512.0,510.0,3.0,0.0
27,61.0,0.0,510.0,2.0,0.0
28,67.0,0.0,1020.0,0.0,0.0
29,46.0,256.0,510.0,3.0,0.0
30,60.0,256.0,270.0,2.0,0.0
31,64.0,1024.0,510.0,1.0,0.0
32,48.0,0.0,510.0,3.0,0.0
33,58.0,0.0,270.0,2.0,0.0
34,41.0,512.0,1020.0,3.0,0.0
35,65.0,0.0,1020.0,0.0,0.0
36,56.0,0.0,1020.0,2.0,0.0
37,60.0,0.0,15.0,1.0,0.0
38,63.0,0.0,1020.0,0.0,0.0
39,55.0,0.0,1020.0,2.0,0.0
40,48.0,512.0,510.0,3.0,0.0
41,61.0,0.0,510.0,1.0,0.0
42,46.0,512.0,510.0,3.0,0.0
43,60.0,0.0,1020.0,2.0,0.0
44,68.0,0.0,1020.0,0.0,0.0
45,63.0,512.0,510.0,1.0,0.0
46,44.0,512.0,1020.0,3.0,0.0
47,65.0,256.0,1020.0,1.0,0.0
48,67.0,0.0,1020.0,0.0,0.0
49,46.0,0.0,510.0,3.0,0.0
50,61.0,0.0,510.0,2.0,0.0
51,60.0,256.0,270.0,2.0,0.0
52,63.0,0.0,270.0,1.0,0.0
53,51.0,512.0,510.0,3.0,0.0
54,61.0,0.0,270.0,1.0,0.0
55,58.0,0.0,270.0,2.0,0.0
56,56.0,0.0,1020.0,2.0,0.0
57,68.0,512.0,1020.0,0.0,0.0
58,48.0,512.0,510.0,3.0,0.0
59,63.0,512.0,1530.0,1.0,0.0
60,44.0,0.0,510.0,3.0,0.0
61,49.0,512.0,1020.0,3.0,0.0
62,65.0,0.0,1020.0,0.0,0.0
63,61.0,256.0,1020.0,1.0,0.0
64,44.0,0.0,1020.0,3.0,0.0
65,63.0,512.0,1020.0,0.0,0.0
66,56.0,0.0,15.0,2.0,0.0
67,60.0,0.0,1020.0,1.0,0.0
68,54.0,0.0,270.0,2.0,0.0
69,46.0,0.0,1020.0,3.0,0.0
70,53.0,256.0,510.0,2.0,0.0
71,61.0,0.0,1020.0,0.0,0.0
72,58.0,0.0,270.0,1.0,0.0
73,55.0,256.0,270.0,2.0,0.0
74,56.0,0.0,270.0,1.0,0.0
75,53.0,1024.0,270.0,2.0,0.0
76,60.0,0.0,1020.0,0.0,0.0
77,48.0,0.0,1020.0,3.0,0.0
78,52.0,1024.0,1020.0,2.0,0.0
79,60.0,0.0,1020.0,0.0,0.0
80,55.0,0.0,15.0,1.0,0.0
81,48.0,512.0,1530.0,3.0,0.0
82,51.0,512.0,1020.0,2.0,0.0
83,63.0,0.0,1020.0,0.0,0.0
84,49.0,0.0,510.0,3.0,0.0
85,55.0,0.0,15.0,2.0,0.0
86,60.0,512.0,15.0,1.0,0.0
87,63.0,0.0,1020.0,0.0,0.0
88,48.0,512.0,510.0,3.0,0.0
89,46.0,0.0,510.0,3.0,0.0
90,60.0,0.0,1020.0,1.0,0.0
91,65.0,0.0,1020.0,0.0,0.0
92,56.0,512.0,1020.0,2.0,0.0
93,44.0,512.0,510.0,3.0,0.0
94,53.0,512.0,1020.0,3.0,0.0
95,61.0,0.0,510.0,1.0,0.0
96,67.0,0.0,1020.0,0.0,0.0
97,58.0,0.0,1020.0,2.0,0.0
98,52.0,0.0,510.0,3.0,0.0
99,60.0,512.0,510.0,1.0,0.0
100,53.0,0.0,510.0,3.0,0.0
101,68.0,512.0,1020.0,0.0,0.0
102,56.0,512.0,510.0,2.0,0.0
103,60.0,0.0,510.0,1.0,0.0
104,65.0,0.0,1020.0,1.0,0.0
105,44.0,0.0,510.0,3.0,0.0
106,60.0,0.0,510.0,2.0,0.0
107,67.0,1024.0,1020.0,0.0,0.0
108,61.0,0.0,510.0,2.0,0.0
109,46.0,256.0,510.0,3.0,0.0
110,60.0,256.0,270.0,2.0,0.0
111,64.0,0.0,510.0,1.0,0.0
112,48.0,0.0,510.0,3.0,0.0
113,58.0,0.0,270.0,2.0,0.0
114,60.0,0.0,1020.0,1.0,0.0
115,56.0,0.0,1020.0,2.0,0.0
116,65.0,512.0,1020.0,0.0,0.0
117,41.0,0.0,1020.0,3.0,0.0
118,48.0,0.0,510.0,3.0,0.0
119,60.0,512.0,510.0,1.0,0.0
120,55.0,0.0,1020.0,2.0,0.0
121,63.0,512.0,1020.0,0.0,0.0
122,46.0,0.0,510.0,3.0,0.0
123,61.0,0.0,510.0,1.0,0.0
124,44.0,0.0,1020.0,3.0,0.0
125,60.0,0.0,1020.0,2.0,0.0
126,63.0,512.0,510.0,1.0,0.0
127,68.0,512.0,1020.0,0.0,0.0
128,65.0,0.0,1020.0,1.0,0.0
129,46.0,0.0,510.0,3.0,0.0
130,67.0,0.0,1020.0,0.0,0.0
131,61.0,256.0,510.0,2.0,0.0
132,63.0,256.0,270.0,1.0,0.0
133,60.0,0.0,270.0,2.0,0.0
134,51.0,0.0,510.0,3.0,0.0
135,58.0,512.0,270.0,2.0,0.0
136,61.0,0.0,270.0,1.0,0.0
137,68.0,512.0,1020.0,0.0,0.0
138,63.0,512.0,1530.0,1.0,0.0
139,48.0,512.0,510.0,3.0,0.0
140,56.0,0.0,1020.0,2.0,0.0
141,44.0,0.0,510.0,3.0,0.0
142,49.0,512.0,1020.0,3.0,0.0
143,65.0,0.0,1020.0,0.0,0.0
144,56.0,0.0,1020.0,2.0,0.0
145,61.0,256.0,1020.0,1.0,0.0
146,63.0,512.0,1020.0,0.0,0.0
147,44.0,0.0,1020.0,3.0,0.0
148,56.0,256.0,780.0,2.0,0.0
149,60.0,256.0,1020.0,1.0,0.0
150,54.0,0.0,270.0,2.0,0.0
151,61.0,0.0,1020.0,0.0,0.0
152,46.0,1024.0,1020.0,3.0,0.0
153,53.0,0.0,510.0,2.0,0.0
154,55.0,256.0,270.0,2.0,0.0
155,58.0,0.0,270.0,1.0,0.0
156,56.0,0.0,270.0,1.0,0.0
157,53.0,0.0,270.0,2.0,0.0
158,55.0,0.0,1020.0,1.0,0.0
159,48.0,0.0,1020.0,3.0,0.0
160,52.0,512.0,1020.0,2.0,0.0
161,56.0,0.0,1020.0,1.0,0.0
162,60.0,0.0,15.0,0.0,0.0
163,53.0,0.0,1020.0,2.0,0.0
164,53.0,512.0,510.0,3.0,0.0
165,51.0,0.0,510.0,3.0,0.0
166,56.0,0.0,1020.0,2.0,0.0
167,49.0,512.0,510.0,3.0,0.0
168,65.0,0.0,1020.0,0.0,0.0
169,48.0,0.0,510.0,3.0,0.0
170,58.0,256.0,1530.0,2.0,0.0
171,46.0,512.0,510.0,3.0,0.0
172,61.0,512.0,15.0,1.0,0.0
173,65.0,0.0,1020.0,0.0,0.0
174,44.0,512.0,510.0,3.0,0.0
175,63.0,0.0,1020.0,0.0,0.0
176,43.0,0.0,510.0,3.0,0.0
177,60.0,256.0,270.0,1.0,0.0
178,56.0,0.0,510.0,2.0,0.0
179,44.0,512.0,510.0,3.0,0.0
180,58.0,0.0,270.0,1.0,0.0
181,51.0,512.0,510.0,2.0,0.0
182,68.0,0.0,1020.0,0.0,0.0
183,60.0,0.0,510.0,1.0,0.0
184,43.0,0.0,510.0,3.0,0.0
185,62.0,256.0,510.0,1.0,0.0
186,53.0,0.0,510.0,2.0,0.0
187,41.0,0.0,510.0,3.0,0.0
188,46.0,512.0,510.0,2.0,0.0
189,39.0,0.0,510.0,3.0,0.0
190,67.0,0.0,1020.0,0.0,0.0
191,63.0,256.0,270.0,1.0,0.0
192,58.0,0.0,270.0,1.0,0.0
193,63.0,0.0,1020.0,1.0,0.0
194,43.0,0.0,510.0,3.0,0.0
195,58.0,512.0,510.0,2.0,0.0
196,44.0,0.0,510.0,3.0,0.0
197,65.0,0.0,1020.0,0.0,0.0
198,60.0,256.0,510.0,2.0,0.0
199,58.0,256.0,270.0,2.0,0.0
200,62.0,1024.0,510.0,1.0,0.0
201,46.0,0.0,510.0,3.0,0.0
202,56.0,0.0,270.0,2.0,0.0
203,39.0,0.0,1020.0,3.0,0.0
204,55.0,0.0,1020.0,2.0,0.0
205,58.0,512.0,1020.0,1.0,0.0
206,63.0,0.0,15.0,0.0,0.0
207,44.0,512.0,510.0,3.0,0.0
208,43.0,0.0,510.0,3.0,0.0
209,41.0,512.0,510.0,3.0,0.0
210,68.0,0.0,1020.0,0.0,0.0
211,60.0,512.0,15.0,1.0,0.0
212,56.0,0.0,15.0,2.0,0.0
213,43.0,512.0,510.0,3.0,0.0
214,56.0,0.0,15.0,2.0,0.0
215,44.0,0.0,510.0,3.0,0.0
216,63.0,0.0,1020.0,0.0,0.0
217,36.0,0.0,510.0,3.0,0.0
218,58.0,0.0,510.0,1.0,0.0
219,54.0,512.0,510.0,2.0,0.0
220,65.0,512.0,1020.0,0.0,0.0
221,37.0,0.0,510.0,3.0,0.0
222,56.0,512.0,510.0,1.0,0.0
223,39.0,0.0,510.0,3.0,0.0
224,55.0,0.0,510.0,1.0,0.0
225,41.0,512.0,510.0,3.0,0.0
226,57.0,0.0,510.0,1.0,0.0
227,53.0,0.0,15.0,2.0,0.0
228,60.0,0.0,1020.0,0.0,0.0
229,58.0,0.0,510.0,1.0,0.0
230,43.0,0.0,510.0,3.0,0.0
231,45.0,512.0,510.0,3.0,0.0
232,65.0,0.0,510.0,0.0,0.0
233,60.0,0.0,1530.0,1.0,0.0
234,53.0,512.0,15.0,2.0,0.0
235,41.0,512.0,510.0,3.0,0.0
236,63.0,0.0,510.0,0.0,0.0
237,53.0,0.0,15.0,2.0,0.0
238,46.0,512.0,510.0,3.0,0.0
239,61.0,512.0,1020.0,0.0,0.0
240,58.0,512.0,1020.0,1.0,0.0
241,34.0,0.0,510.0,3.0,0.0
242,53.0,0.0,15.0,2.0,0.0
243,60.0,0.0,2040.0,0.0,0.0
244,41.0,0.0,1020.0,3.0,0.0
245,57.0,0.0,510.0,1.0,0.0
246,53.0,512.0,15.0,2.0,0.0
247,53.0,512.0,510.0,3.0,0.0
248,51.0,512.0,510.0,3.0,0.0
249,56.0,0.0,15.0,1.0,0.0
250,49.0,512.0,1020.0,3.0,0.0
251,53.0,512.0,510.0,2.0,0.0
252,59.0,0.0,1020.0,1.0,0.0
253,56.0,256.0,1020.0,2.0,0.0
254,65.0,0.0,15.0,0.0,0.0
255,50.0,0.0,1020.0,3.0,0.0
256,55.0,256.0,270.0,2.0,0.0
257,53.0,0.0,270.0,2.0,0.0
258,55.0,0.0,1020.0,2.0,0.0
259,58.0,512.0,15.0,1.0,0.0
260,63.0,512.0,510.0,0.0,0.0
261,51.0,0.0,1020.0,3.0,0.0
262,61.0,512.0,510.0,0.0,0.0
263,56.0,512.0,510.0,2.0,0.0
264,60.0,0.0,1020.0,0.0,0.0
265,53.0,0.0,510.0,3.0,0.0
266,56.0,0.0,1020.0,1.0,0.0
267,51.0,512.0,510.0,3.0,0.0
268,55.0,0.0,510.0,2.0,0.0
269,53.0,0.0,1020.0,2.0,0.0
270,49.0,512.0,510.0,3.0,0.0
271,56.0,256.0,1530.0,1.0,0.0
272,61.0,0.0,1020.0,0.0,0.0
273,46.0,512.0,510.0,3.0,0.0
274,58.0,0.0,1020.0,0.0,0.0
275,51.0,0.0,510.0,3.0,0.0
276,51.0,256.0,780.0,2.0,0.0
277,55.0,1024.0,510.0,1.0,0.0
278,39.0,0.0,510.0,3.0,0.0
279,49.0,0.0,270.0,2.0,0.0
280,44.0,0.0,1020.0,3.0,0.0
281,44.0,0.0,1020.0,3.0,0.0
282,48.0,0.0,15.0,2.0,0.0
283,51.0,1024.0,15.0,1.0,0.0
284,56.0,0.0,15.0,0.0,0.0
285,63.0,0.0,2040.0,0.0,0.0
286,51.0,512.0,1020.0,2.0,0.0
287,43.0,0.0,1020.0,3.0,0.0
288,58.0,0.0,1020.0,1.0,0.0
289,44.0,0.0,510.0,3.0,0.0
290,60.0,512.0,510.0,1.0,0.0
291,56.0,0.0,510.0,2.0,0.0
292,58.0,0.0,510.0,2.0,0.0
293,43.0,512.0,510.0,3.0,0.0
294,58.0,0.0,510.0,1.0,0.0
295,65.0,512.0,1020.0,0.0,0.0
296,41.0,0.0,1020.0,3.0,0.0
297,56.0,0.0,1020.0,1.0,0.0
298,60.0,512.0,510.0,2.0,0.0
299,61.0,0.0,510.0,2.0,0.0
300,39.0,512.0,510.0,3.0,0.0
301,58.0,512.0,1020.0,1.0,0.0
302,67.0,0.0,1020.0,0.0,0.0
303,63.0,0.0,1020.0,2.0,0.0
304,37.0,0.0,510.0,3.0,0.0
305,36.0,512.0,510.0,3.0,0.0
306,68.0,0.0,1020.0,0.0,0.0
307,51.0,0.0,1020.0,2.0,0.0
308,60.0,0.0,510.0,1.0,0.0
309,61.0,0.0,510.0,1.0,0.0
310,34.0,512.0,510.0,3.0,0.0
311,56.0,0.0,1020.0,2.0,0.0
312,63.0,512.0,510.0,1.0,0.0
313,63.0,0.0,1020.0,0.0,0.0
314,36.0,0.0,510.0,3.0,0.0
315,60.0,0.0,510.0,1.0,0.0
316,32.0,512.0,510.0,3.0,0.0
317,65.0,0.0,1020.0,0.0,0.0
318,37.0,512.0,510.0,3.0,0.0
319,61.0,256.0,1530.0,1.0,0.0
320,41.0,512.0,510.0,3.0,0.0
321,56.0,0.0,15.0,2.0,0.0
322,63.0,0.0,1020.0,0.0,0.0
323,44.0,512.0,1020.0,3.0,0.0
324,60.0,256.0,1020.0,1.0,0.0
325,54.0,0.0,270.0,2.0,0.0
326,46.0,0.0,2040.0,3.0,0.0
327,53.0,0.0,510.0,2.0,0.0
328,55.0,256.0,270.0,2.0,0.0
329,56.0,512.0,270.0,2.0,0.0
330,58.0,0.0,15.0,1.0,0.0
331,55.0,0.0,510.0,2.0,0.0
332,56.0,0.0,510.0,1.0,0.0
333,53.0,2048.0,510.0,2.0,0.0
334,61.0,512.0,15.0,0.0,0.0
335,48.0,0.0,2040.0,3.0,0.0
336,60.0,0.0,2040.0,0.0,0.0
337,52.0,0.0,2040.0,2.0,0.0
338,55.0,1.0,2040.0,1.0,0.0
