,note,step,duration,channel,velocity
0,82.0,0.0,180.0,1.0,0.0
1,82.0,50.0,180.0,0.0,0.0
2,80.0,350.0,30.0,0.0,0.0
3,80.0,0.0,30.0,1.0,0.0
4,78.0,120.0,360.0,0.0,0.0
5,78.0,0.0,360.0,1.0,0.0
6,80.0,0.0,120.0,1.0,0.0
7,80.0,235.0,120.0,0.0,0.0
8,78.0,0.0,240.0,5.0,0.0
9,63.0,0.0,240.0,5.0,0.0
10,75.0,0.0,240.0,5.0,0.0
11,75.0,0.0,360.0,2.0,0.0
12,63.0,5.0,210.0,4.0,0.0
13,82.0,0.0,240.0,0.0,0.0
14,82.0,110.0,240.0,5.0,0.0
15,82.0,10.0,240.0,1.0,0.0
16,66.0,82.0,360.0,3.0,0.0
17,82.0,0.0,240.0,5.0,0.0
18,75.0,0.0,240.0,5.0,0.0
19,59.0,0.0,360.0,5.0,0.0
20,59.0,15.0,330.0,4.0,0.0
21,75.0,10.0,240.0,1.0,0.0
22,78.0,0.0,240.0,5.0,0.0
23,71.0,0.0,240.0,5.0,0.0
24,75.0,0.0,240.0,0.0,0.0
25,73.0,38.0,60.0,2.0,0.0
26,65.0,0.0,120.0,3.0,0.0
27,73.0,105.0,30.0,2.0,0.0
28,80.0,10.0,240.0,0.0,0.0
29,75.0,0.0,120.0,5.0,0.0
30,80.0,105.0,120.0,5.0,0.0
31,80.0,0.0,240.0,1.0,0.0
32,71.0,0.0,120.0,5.0,0.0
33,63.0,0.0,720.0,3.0,0.0
34,71.0,0.0,240.0,2.0,0.0
35,80.0,110.0,120.0,5.0,0.0
36,73.0,0.0,120.0,5.0,0.0
37,61.0,0.0,120.0,5.0,0.0
38,77.0,0.0,120.0,5.0,0.0
39,61.0,5.0,90.0,4.0,0.0
40,63.0,110.0,240.0,5.0,0.0
41,75.0,0.0,240.0,5.0,0.0
42,78.0,0.0,240.0,5.0,0.0
43,82.0,0.0,240.0,5.0,0.0
44,70.0,115.0,120.0,2.0,0.0
45,78.0,0.0,480.0,0.0,0.0
46,63.0,5.0,210.0,4.0,0.0
47,78.0,10.0,480.0,1.0,0.0
48,73.0,10.0,120.0,2.0,0.0
49,56.0,0.0,240.0,5.0,0.0
50,56.0,5.0,210.0,4.0,0.0
51,71.0,0.0,240.0,5.0,0.0
52,68.0,0.0,240.0,5.0,0.0
53,75.0,110.0,240.0,5.0,0.0
54,71.0,82.0,120.0,2.0,0.0
55,78.0,0.0,240.0,5.0,0.0
56,70.0,33.0,60.0,2.0,0.0
57,70.0,0.0,30.0,2.0,0.0
58,73.0,110.0,240.0,5.0,0.0
59,61.0,0.0,240.0,5.0,0.0
60,77.0,0.0,240.0,5.0,0.0
61,80.0,0.0,240.0,5.0,0.0
62,77.0,105.0,120.0,0.0,0.0
63,77.0,0.0,120.0,1.0,0.0
64,68.0,10.0,360.0,2.0,0.0
65,65.0,10.0,120.0,3.0,0.0
66,61.0,5.0,210.0,4.0,0.0
67,66.0,0.0,120.0,3.0,0.0
68,75.0,0.0,120.0,0.0,0.0
69,75.0,10.0,120.0,1.0,0.0
70,74.0,0.0,120.0,1.0,0.0
71,68.0,10.0,480.0,3.0,0.0
72,71.0,0.0,240.0,5.0,0.0
73,75.0,0.0,240.0,5.0,0.0
74,80.0,15.0,240.0,5.0,0.0
75,59.0,0.0,480.0,5.0,0.0
76,59.0,5.0,450.0,4.0,0.0
77,74.0,110.0,120.0,0.0,0.0
78,75.0,0.0,120.0,0.0,0.0
79,75.0,0.0,120.0,1.0,0.0
80,66.0,10.0,120.0,2.0,0.0
81,77.0,0.0,240.0,5.0,0.0
82,71.0,0.0,240.0,5.0,0.0
83,74.0,0.0,240.0,5.0,0.0
84,80.0,0.0,240.0,5.0,0.0
85,74.0,0.0,120.0,1.0,0.0
86,74.0,15.0,15.0,0.0,0.0
87,65.0,0.0,240.0,2.0,0.0
88,75.0,15.0,15.0,0.0,0.0
89,74.0,15.0,15.0,0.0,0.0
90,75.0,15.0,15.0,0.0,0.0
91,74.0,15.0,15.0,0.0,0.0
92,75.0,15.0,15.0,0.0,0.0
93,71.0,15.0,15.0,0.0,0.0
94,74.0,72.0,15.0,0.0,0.0
95,75.0,33.0,60.0,0.0,0.0
96,75.0,0.0,120.0,1.0,0.0
97,75.0,105.0,30.0,0.0,0.0
98,77.0,10.0,360.0,1.0,0.0
99,58.0,15.0,90.0,4.0,0.0
100,62.0,0.0,240.0,3.0,0.0
101,77.0,0.0,120.0,5.0,0.0
102,74.0,0.0,120.0,5.0,0.0
103,70.0,0.0,120.0,5.0,0.0
104,58.0,105.0,120.0,5.0,0.0
105,70.0,10.0,240.0,2.0,0.0
106,77.0,0.0,360.0,0.0,0.0
107,56.0,5.0,90.0,4.0,0.0
108,68.0,0.0,120.0,5.0,0.0
109,74.0,105.0,120.0,5.0,0.0
110,77.0,0.0,120.0,5.0,0.0
111,56.0,0.0,120.0,5.0,0.0
112,70.0,0.0,240.0,3.0,0.0
113,54.0,0.0,120.0,5.0,0.0
114,66.0,105.0,120.0,5.0,0.0
115,77.0,0.0,120.0,5.0,0.0
116,74.0,0.0,120.0,5.0,0.0
117,74.0,10.0,240.0,2.0,0.0
118,54.0,5.0,90.0,4.0,0.0
119,56.0,0.0,120.0,5.0,0.0
120,70.0,0.0,120.0,0.0,0.0
121,74.0,0.0,120.0,5.0,0.0
122,68.0,105.0,120.0,5.0,0.0
123,70.0,0.0,120.0,1.0,0.0
124,56.0,5.0,90.0,4.0,0.0
125,77.0,0.0,120.0,5.0,0.0
126,54.0,105.0,120.0,5.0,0.0
127,54.0,5.0,90.0,4.0,0.0
128,82.0,120.0,360.0,1.0,0.0
129,66.0,0.0,120.0,5.0,0.0
130,63.0,10.0,240.0,3.0,0.0
131,70.0,0.0,120.0,5.0,0.0
132,82.0,0.0,360.0,0.0,0.0
133,75.0,10.0,120.0,2.0,0.0
134,75.0,0.0,120.0,5.0,0.0
135,75.0,0.0,120.0,5.0,0.0
136,77.0,0.0,120.0,2.0,0.0
137,56.0,0.0,120.0,5.0,0.0
138,56.0,5.0,90.0,4.0,0.0
139,71.0,0.0,120.0,5.0,0.0
140,68.0,110.0,120.0,5.0,0.0
141,70.0,0.0,240.0,5.0,0.0
142,62.0,10.0,240.0,3.0,0.0
143,78.0,105.0,240.0,5.0,0.0
144,58.0,0.0,360.0,5.0,0.0
145,75.0,0.0,240.0,5.0,0.0
146,58.0,15.0,330.0,4.0,0.0
147,78.0,0.0,240.0,2.0,0.0
148,83.0,0.0,120.0,0.0,0.0
149,83.0,0.0,120.0,1.0,0.0
150,70.0,10.0,360.0,3.0,0.0
151,80.0,105.0,120.0,5.0,0.0
152,74.0,10.0,240.0,2.0,0.0
153,74.0,0.0,120.0,5.0,0.0
154,80.0,0.0,240.0,0.0,0.0
155,77.0,0.0,120.0,5.0,0.0
156,70.0,0.0,120.0,5.0,0.0
157,80.0,0.0,240.0,1.0,0.0
158,63.0,0.0,120.0,5.0,0.0
159,51.0,15.0,120.0,5.0,0.0
160,70.0,0.0,120.0,5.0,0.0
161,51.0,5.0,90.0,4.0,0.0
162,66.0,0.0,120.0,5.0,0.0
163,75.0,105.0,240.0,5.0,0.0
164,79.0,0.0,120.0,1.0,0.0
165,79.0,0.0,240.0,5.0,0.0
166,82.0,0.0,240.0,5.0,0.0
167,63.0,0.0,360.0,5.0,0.0
168,63.0,15.0,330.0,4.0,0.0
169,75.0,0.0,120.0,2.0,0.0
170,79.0,15.0,15.0,0.0,0.0
171,80.0,15.0,15.0,0.0,0.0
172,79.0,15.0,15.0,0.0,0.0
173,80.0,15.0,15.0,0.0,0.0
174,79.0,15.0,15.0,0.0,0.0
175,80.0,15.0,15.0,0.0,0.0
176,77.0,5.0,15.0,0.0,0.0
177,79.0,72.0,15.0,0.0,0.0
178,80.0,10.0,120.0,1.0,0.0
179,71.0,0.0,120.0,3.0,0.0
180,80.0,38.0,60.0,0.0,0.0
181,77.0,0.0,120.0,2.0,0.0
182,80.0,0.0,30.0,0.0,0.0
183,82.0,0.0,240.0,0.0,0.0
184,82.0,0.0,240.0,1.0,0.0
185,79.0,105.0,120.0,2.0,0.0
186,75.0,0.0,120.0,5.0,0.0
187,73.0,10.0,240.0,3.0,0.0
188,82.0,0.0,120.0,5.0,0.0
189,79.0,0.0,120.0,5.0,0.0
190,64.0,5.0,90.0,4.0,0.0
191,77.0,0.0,120.0,5.0,0.0
192,64.0,0.0,120.0,5.0,0.0
193,80.0,0.0,120.0,2.0,0.0
194,82.0,0.0,120.0,5.0,0.0
195,79.0,110.0,120.0,5.0,0.0
196,82.0,115.0,120.0,2.0,0.0
197,61.0,5.0,210.0,4.0,0.0
198,61.0,0.0,240.0,5.0,0.0
199,67.0,0.0,240.0,3.0,0.0
200,75.0,0.0,240.0,5.0,0.0
201,73.0,0.0,240.0,5.0,0.0
202,82.0,105.0,240.0,5.0,0.0
203,79.0,0.0,240.0,5.0,0.0
204,75.0,10.0,120.0,2.0,0.0
205,80.0,0.0,480.0,2.0,0.0
206,80.0,0.0,120.0,5.0,0.0
207,71.0,0.0,120.0,5.0,0.0
208,59.0,15.0,90.0,4.0,0.0
209,75.0,105.0,120.0,5.0,0.0
210,71.0,0.0,240.0,3.0,0.0
211,59.0,0.0,120.0,5.0,0.0
212,61.0,0.0,120.0,5.0,0.0
213,87.0,0.0,120.0,1.0,0.0
214,80.0,120.0,120.0,5.0,0.0
215,87.0,10.0,120.0,0.0,0.0
216,61.0,5.0,90.0,4.0,0.0
217,77.0,0.0,120.0,5.0,0.0
218,73.0,0.0,120.0,5.0,0.0
219,85.0,0.0,120.0,0.0,0.0
220,85.0,110.0,120.0,1.0,0.0
221,70.0,10.0,240.0,3.0,0.0
222,63.0,0.0,240.0,5.0,0.0
223,63.0,0.0,240.0,4.0,0.0
224,82.0,0.0,240.0,5.0,0.0
225,85.0,0.0,240.0,5.0,0.0
226,75.0,120.0,240.0,5.0,0.0
227,80.0,0.0,240.0,5.0,0.0
228,83.0,0.0,120.0,1.0,0.0
229,83.0,0.0,120.0,0.0,0.0
230,82.0,110.0,240.0,5.0,0.0
231,85.0,110.0,120.0,0.0,0.0
232,75.0,0.0,240.0,3.0,0.0
233,85.0,0.0,240.0,5.0,0.0
234,85.0,0.0,120.0,1.0,0.0
235,79.0,0.0,240.0,5.0,0.0
236,79.0,0.0,240.0,2.0,0.0
237,82.0,0.0,120.0,0.0,0.0
238,82.0,10.0,120.0,1.0,0.0
239,83.0,72.0,120.0,1.0,0.0
240,80.0,0.0,240.0,2.0,0.0
241,83.0,10.0,120.0,0.0,0.0
242,68.0,10.0,240.0,3.0,0.0
243,68.0,5.0,90.0,4.0,0.0
244,80.0,0.0,120.0,5.0,0.0
245,80.0,0.0,120.0,1.0,0.0
246,83.0,0.0,120.0,5.0,0.0
247,68.0,0.0,120.0,5.0,0.0
248,87.0,15.0,120.0,5.0,0.0
249,80.0,33.0,60.0,0.0,0.0
250,85.0,0.0,30.0,0.0,0.0
251,84.0,15.0,15.0,0.0,0.0
252,68.0,0.0,480.0,3.0,0.0
253,66.0,0.0,90.0,4.0,0.0
254,75.0,2.0,480.0,2.0,0.0
255,66.0,0.0,120.0,5.0,0.0
256,84.0,0.0,120.0,5.0,0.0
257,87.0,0.0,120.0,5.0,0.0
258,84.0,0.0,15.0,1.0,0.0
259,78.0,0.0,120.0,5.0,0.0
260,80.0,0.0,120.0,5.0,0.0
261,85.0,0.0,15.0,1.0,0.0
262,85.0,15.0,15.0,0.0,0.0
263,84.0,15.0,15.0,1.0,0.0
264,84.0,0.0,15.0,0.0,0.0
265,85.0,15.0,15.0,1.0,0.0
266,85.0,0.0,15.0,0.0,0.0
267,84.0,0.0,15.0,0.0,0.0
268,84.0,15.0,15.0,1.0,0.0
269,85.0,0.0,15.0,0.0,0.0
270,85.0,15.0,15.0,1.0,0.0
271,84.0,15.0,15.0,0.0,0.0
272,84.0,0.0,15.0,1.0,0.0
273,85.0,15.0,15.0,0.0,0.0
274,85.0,0.0,15.0,1.0,0.0
275,65.0,0.0,120.0,5.0,0.0
276,84.0,15.0,15.0,0.0,0.0
277,84.0,0.0,15.0,1.0,0.0
278,77.0,0.0,120.0,5.0,0.0
279,84.0,0.0,120.0,5.0,0.0
280,80.0,15.0,120.0,5.0,0.0
281,65.0,15.0,90.0,4.0,0.0
282,85.0,15.0,15.0,0.0,0.0
283,85.0,0.0,15.0,1.0,0.0
284,84.0,0.0,15.0,1.0,0.0
285,84.0,15.0,15.0,0.0,0.0
286,85.0,0.0,15.0,1.0,0.0
287,85.0,15.0,15.0,0.0,0.0
288,84.0,0.0,15.0,1.0,0.0
289,84.0,15.0,15.0,0.0,0.0
290,85.0,15.0,15.0,1.0,0.0
291,85.0,0.0,15.0,0.0,0.0
292,84.0,0.0,15.0,0.0,0.0
293,84.0,0.0,15.0,1.0,0.0
294,85.0,0.0,15.0,0.0,0.0
295,85.0,0.0,15.0,1.0,0.0
296,84.0,15.0,15.0,1.0,0.0
297,80.0,0.0,120.0,5.0,0.0
298,84.0,0.0,120.0,5.0,0.0
299,66.0,0.0,90.0,4.0,0.0
300,78.0,52.0,120.0,5.0,0.0
301,84.0,0.0,15.0,0.0,0.0
302,66.0,0.0,120.0,5.0,0.0
303,85.0,0.0,15.0,1.0,0.0
304,85.0,15.0,15.0,0.0,0.0
305,84.0,0.0,15.0,1.0,0.0
306,84.0,15.0,15.0,0.0,0.0
307,85.0,0.0,15.0,1.0,0.0
308,85.0,15.0,15.0,0.0,0.0
309,84.0,0.0,15.0,1.0,0.0
310,84.0,15.0,15.0,0.0,0.0
311,85.0,15.0,15.0,1.0,0.0
312,85.0,0.0,15.0,0.0,0.0
313,84.0,15.0,15.0,1.0,0.0
314,84.0,0.0,15.0,0.0,0.0
315,85.0,0.0,15.0,1.0,0.0
316,85.0,0.0,15.0,0.0,0.0
317,82.0,0.0,60.0,1.0,0.0
318,82.0,53.0,60.0,0.0,0.0
319,78.0,0.0,120.0,5.0,0.0
320,75.0,0.0,120.0,5.0,0.0
321,82.0,0.0,120.0,5.0,0.0
322,63.0,105.0,120.0,5.0,0.0
323,63.0,5.0,90.0,4.0,0.0
324,84.0,0.0,60.0,1.0,0.0
325,84.0,8.0,60.0,0.0,0.0
326,77.0,0.0,120.0,5.0,0.0
327,65.0,105.0,120.0,5.0,0.0
328,85.0,0.0,120.0,5.0,0.0
329,85.0,10.0,120.0,1.0,0.0
330,85.0,0.0,120.0,0.0,0.0
331,80.0,0.0,240.0,2.0,0.0
332,65.0,5.0,90.0,4.0,0.0
333,80.0,0.0,120.0,5.0,0.0
334,68.0,10.0,240.0,3.0,0.0
335,89.0,0.0,120.0,0.0,0.0
336,89.0,0.0,120.0,1.0,0.0
337,73.0,0.0,120.0,5.0,0.0
338,77.0,0.0,120.0,5.0,0.0
339,80.0,15.0,120.0,5.0,0.0
340,61.0,0.0,120.0,5.0,0.0
341,61.0,5.0,90.0,4.0,0.0
342,80.0,0.0,360.0,5.0,0.0
343,65.0,0.0,15.0,4.0,0.0
344,65.0,15.0,15.0,5.0,0.0
345,77.0,2.0,480.0,2.0,0.0
346,87.0,0.0,120.0,0.0,0.0
347,87.0,0.0,120.0,1.0,0.0
348,77.0,0.0,360.0,5.0,0.0
349,68.0,0.0,15.0,3.0,0.0
350,86.0,0.0,360.0,5.0,0.0
351,70.0,0.0,15.0,3.0,0.0
352,66.0,15.0,15.0,5.0,0.0
353,66.0,0.0,15.0,4.0,0.0
354,68.0,0.0,15.0,3.0,0.0
355,65.0,0.0,15.0,4.0,0.0
356,65.0,15.0,15.0,5.0,0.0
357,70.0,0.0,15.0,3.0,0.0
358,66.0,15.0,15.0,5.0,0.0
359,66.0,0.0,15.0,4.0,0.0
360,65.0,15.0,15.0,4.0,0.0
361,65.0,0.0,15.0,5.0,0.0
362,68.0,0.0,15.0,3.0,0.0
363,66.0,0.0,15.0,4.0,0.0
364,66.0,15.0,15.0,5.0,0.0
365,70.0,0.0,15.0,3.0,0.0
366,65.0,15.0,15.0,5.0,0.0
367,65.0,0.0,15.0,4.0,0.0
368,68.0,0.0,15.0,3.0,0.0
369,66.0,0.0,15.0,4.0,0.0
370,70.0,0.0,15.0,3.0,0.0
371,66.0,15.0,15.0,5.0,0.0
372,65.0,0.0,15.0,4.0,0.0
373,68.0,0.0,15.0,3.0,0.0
374,86.0,0.0,120.0,0.0,0.0
375,65.0,15.0,15.0,5.0,0.0
376,86.0,10.0,120.0,1.0,0.0
377,66.0,0.0,15.0,5.0,0.0
378,70.0,15.0,15.0,3.0,0.0
379,66.0,0.0,15.0,4.0,0.0
380,65.0,0.0,15.0,5.0,0.0
381,65.0,15.0,15.0,4.0,0.0
382,68.0,0.0,15.0,3.0,0.0
383,66.0,0.0,15.0,5.0,0.0
384,66.0,0.0,15.0,4.0,0.0
385,70.0,15.0,15.0,3.0,0.0
386,68.0,0.0,15.0,3.0,0.0
387,65.0,0.0,15.0,5.0,0.0
388,65.0,15.0,15.0,4.0,0.0
389,66.0,0.0,15.0,5.0,0.0
390,66.0,15.0,15.0,4.0,0.0
391,70.0,0.0,15.0,3.0,0.0
392,65.0,0.0,15.0,4.0,0.0
393,68.0,0.0,15.0,3.0,0.0
394,65.0,5.0,15.0,5.0,0.0
395,66.0,0.0,15.0,5.0,0.0
396,66.0,0.0,15.0,4.0,0.0
397,70.0,15.0,15.0,3.0,0.0
398,65.0,0.0,15.0,4.0,0.0
399,84.0,52.0,120.0,0.0,0.0
400,65.0,15.0,15.0,5.0,0.0
401,68.0,0.0,15.0,3.0,0.0
402,84.0,0.0,120.0,1.0,0.0
403,70.0,0.0,15.0,3.0,0.0
404,66.0,15.0,15.0,4.0,0.0
405,66.0,0.0,15.0,5.0,0.0
406,65.0,15.0,15.0,4.0,0.0
407,68.0,0.0,15.0,3.0,0.0
408,65.0,0.0,15.0,5.0,0.0
409,70.0,15.0,15.0,3.0,0.0
410,66.0,0.0,15.0,5.0,0.0
411,66.0,0.0,15.0,4.0,0.0
412,65.0,0.0,15.0,4.0,0.0
413,68.0,15.0,15.0,3.0,0.0
414,65.0,0.0,15.0,5.0,0.0
415,70.0,15.0,15.0,3.0,0.0
416,66.0,0.0,15.0,4.0,0.0
417,66.0,0.0,15.0,5.0,0.0
418,68.0,0.0,15.0,3.0,0.0
419,65.0,15.0,15.0,5.0,0.0
420,65.0,0.0,15.0,4.0,0.0
421,66.0,0.0,15.0,4.0,0.0
422,70.0,0.0,15.0,3.0,0.0
423,66.0,0.0,15.0,5.0,0.0
424,63.0,50.0,60.0,5.0,0.0
425,78.0,0.0,60.0,5.0,0.0
426,75.0,0.0,60.0,5.0,0.0
427,86.0,0.0,120.0,0.0,0.0
428,86.0,0.0,120.0,1.0,0.0
429,63.0,0.0,60.0,4.0,0.0
430,66.0,8.0,60.0,3.0,0.0
431,82.0,0.0,60.0,5.0,0.0
432,77.0,120.0,60.0,5.0,0.0
433,80.0,0.0,60.0,5.0,0.0
434,83.0,0.0,60.0,5.0,0.0
435,65.0,0.0,60.0,5.0,0.0
436,68.0,0.0,60.0,3.0,0.0
437,65.0,8.0,60.0,4.0,0.0
438,66.0,0.0,120.0,5.0,0.0
439,66.0,0.0,120.0,4.0,0.0
440,82.0,105.0,120.0,5.0,0.0
441,78.0,0.0,120.0,5.0,0.0
442,87.0,0.0,120.0,1.0,0.0
443,70.0,0.0,240.0,3.0,0.0
444,87.0,0.0,120.0,0.0,0.0
445,75.0,0.0,960.0,2.0,0.0
446,87.0,0.0,120.0,5.0,0.0
447,85.0,10.0,120.0,1.0,0.0
448,85.0,0.0,120.0,0.0,0.0
449,85.0,0.0,120.0,5.0,0.0
450,82.0,105.0,120.0,5.0,0.0
451,89.0,0.0,120.0,5.0,0.0
452,70.0,0.0,120.0,5.0,0.0
453,70.0,5.0,90.0,4.0,0.0
454,87.0,0.0,120.0,5.0,0.0
455,83.0,0.0,120.0,0.0,0.0
456,83.0,0.0,120.0,1.0,0.0
457,68.0,0.0,120.0,5.0,0.0
458,63.0,0.0,240.0,3.0,0.0
459,68.0,15.0,90.0,4.0,0.0
460,83.0,0.0,120.0,5.0,0.0
461,80.0,105.0,120.0,5.0,0.0
462,82.0,10.0,120.0,1.0,0.0
463,82.0,0.0,120.0,0.0,0.0
464,66.0,5.0,90.0,4.0,0.0
465,85.0,0.0,120.0,5.0,0.0
466,82.0,105.0,120.0,5.0,0.0
467,66.0,0.0,120.0,5.0,0.0
468,78.0,0.0,120.0,5.0,0.0
469,80.0,0.0,120.0,1.0,0.0
470,77.0,0.0,120.0,5.0,0.0
471,65.0,105.0,120.0,5.0,0.0
472,83.0,0.0,120.0,5.0,0.0
473,80.0,0.0,120.0,5.0,0.0
474,87.0,0.0,120.0,5.0,0.0
475,68.0,10.0,120.0,3.0,0.0
476,65.0,5.0,90.0,4.0,0.0
477,80.0,0.0,120.0,0.0,0.0
478,66.0,5.0,90.0,4.0,0.0
479,78.0,0.0,120.0,0.0,0.0
480,78.0,10.0,120.0,1.0,0.0
481,66.0,15.0,120.0,5.0,0.0
482,70.0,0.0,120.0,3.0,0.0
483,78.0,0.0,120.0,5.0,0.0
484,85.0,0.0,120.0,5.0,0.0
485,82.0,0.0,120.0,5.0,0.0
486,71.0,0.0,480.0,3.0,0.0
487,68.0,0.0,90.0,4.0,0.0
488,87.0,0.0,120.0,5.0,0.0
489,83.0,0.0,120.0,5.0,0.0
490,77.0,0.0,120.0,1.0,0.0
491,77.0,15.0,15.0,0.0,0.0
492,89.0,0.0,120.0,5.0,0.0
493,80.0,72.0,120.0,5.0,0.0
494,68.0,0.0,120.0,5.0,0.0
495,78.0,15.0,15.0,0.0,0.0
496,77.0,15.0,15.0,0.0,0.0
497,78.0,15.0,15.0,0.0,0.0
498,77.0,15.0,15.0,0.0,0.0
499,78.0,15.0,15.0,0.0,0.0
500,75.0,15.0,15.0,0.0,0.0
501,77.0,0.0,15.0,0.0,0.0
502,85.0,0.0,120.0,5.0,0.0
503,82.0,0.0,120.0,5.0,0.0
504,66.0,105.0,120.0,5.0,0.0
505,78.0,0.0,120.0,5.0,0.0
506,78.0,33.0,60.0,0.0,0.0
507,78.0,10.0,120.0,1.0,0.0
508,66.0,5.0,90.0,4.0,0.0
509,78.0,0.0,30.0,0.0,0.0
510,65.0,5.0,90.0,4.0,0.0
511,80.0,0.0,720.0,1.0,0.0
512,74.0,10.0,120.0,2.0,0.0
513,80.0,0.0,720.0,0.0,0.0
514,80.0,0.0,120.0,5.0,0.0
515,65.0,105.0,120.0,5.0,0.0
516,77.0,0.0,120.0,5.0,0.0
517,86.0,0.0,120.0,5.0,0.0
518,78.0,0.0,120.0,5.0,0.0
519,82.0,105.0,120.0,5.0,0.0
520,63.0,0.0,120.0,5.0,0.0
521,63.0,5.0,90.0,4.0,0.0
522,75.0,0.0,120.0,5.0,0.0
523,75.0,10.0,120.0,2.0,0.0
524,82.0,105.0,120.0,5.0,0.0
525,62.0,5.0,90.0,4.0,0.0
526,70.0,10.0,120.0,3.0,0.0
527,77.0,10.0,480.0,2.0,0.0
528,80.0,0.0,120.0,5.0,0.0
529,74.0,0.0,120.0,5.0,0.0
530,77.0,0.0,120.0,5.0,0.0
531,62.0,0.0,120.0,5.0,0.0
532,75.0,105.0,120.0,5.0,0.0
533,72.0,10.0,120.0,3.0,0.0
534,60.0,0.0,120.0,5.0,0.0
535,60.0,5.0,90.0,4.0,0.0
536,72.0,0.0,120.0,5.0,0.0
537,78.0,0.0,120.0,5.0,0.0
538,74.0,0.0,240.0,3.0,0.0
539,80.0,0.0,120.0,5.0,0.0
540,58.0,15.0,90.0,4.0,0.0
541,74.0,0.0,120.0,5.0,0.0
542,58.0,0.0,120.0,5.0,0.0
543,77.0,105.0,120.0,5.0,0.0
544,70.0,0.0,120.0,5.0,0.0
545,60.0,0.0,120.0,5.0,0.0
546,60.0,5.0,90.0,4.0,0.0
547,72.0,110.0,120.0,5.0,0.0
548,78.0,0.0,120.0,5.0,0.0
549,75.0,0.0,120.0,5.0,0.0
550,75.0,110.0,480.0,5.0,0.0
551,79.0,0.0,120.0,0.0,0.0
552,79.0,110.0,120.0,1.0,0.0
553,73.0,0.0,480.0,5.0,0.0
554,75.0,115.0,600.0,2.0,0.0
555,61.0,0.0,720.0,5.0,0.0
556,82.0,0.0,480.0,5.0,0.0
557,79.0,0.0,480.0,5.0,0.0
558,70.0,10.0,120.0,3.0,0.0
559,61.0,5.0,690.0,4.0,0.0
560,80.0,120.0,120.0,0.0,0.0
561,80.0,0.0,120.0,1.0,0.0
562,68.0,0.0,120.0,3.0,0.0
563,67.0,10.0,120.0,3.0,0.0
564,82.0,110.0,120.0,1.0,0.0
565,82.0,0.0,120.0,0.0,0.0
566,79.0,0.0,120.0,0.0,0.0
567,79.0,10.0,120.0,1.0,0.0
568,65.0,0.0,120.0,3.0,0.0
569,75.0,0.0,240.0,5.0,0.0
570,79.0,105.0,240.0,5.0,0.0
571,73.0,0.0,240.0,5.0,0.0
572,87.0,0.0,840.0,0.0,0.0
573,67.0,10.0,240.0,3.0,0.0
574,87.0,120.0,840.0,1.0,0.0
575,77.0,0.0,120.0,2.0,0.0
576,60.0,15.0,90.0,4.0,0.0
577,69.0,10.0,240.0,3.0,0.0
578,75.0,0.0,120.0,5.0,0.0
579,60.0,0.0,120.0,5.0,0.0
580,81.0,0.0,120.0,5.0,0.0
581,72.0,0.0,120.0,5.0,0.0
582,75.0,105.0,120.0,2.0,0.0
583,73.0,0.0,120.0,2.0,0.0
584,77.0,105.0,120.0,5.0,0.0
585,61.0,5.0,90.0,4.0,0.0
586,61.0,0.0,120.0,5.0,0.0
587,73.0,0.0,120.0,5.0,0.0
588,81.0,0.0,120.0,5.0,0.0
589,78.0,0.0,120.0,5.0,0.0
590,75.0,0.0,120.0,5.0,0.0
591,63.0,15.0,90.0,4.0,0.0
592,72.0,0.0,120.0,2.0,0.0
593,84.0,0.0,120.0,5.0,0.0
594,63.0,105.0,120.0,5.0,0.0
595,78.0,0.0,240.0,3.0,0.0
596,75.0,0.0,120.0,5.0,0.0
597,70.0,10.0,120.0,2.0,0.0
598,60.0,5.0,90.0,4.0,0.0
599,60.0,0.0,120.0,5.0,0.0
600,78.0,110.0,120.0,5.0,0.0
601,72.0,0.0,120.0,5.0,0.0
602,69.0,5.0,330.0,4.0,0.0
603,83.0,0.0,360.0,5.0,0.0
604,72.0,0.0,360.0,2.0,0.0
605,77.0,10.0,240.0,3.0,0.0
606,69.0,0.0,360.0,5.0,0.0
607,81.0,0.0,360.0,5.0,0.0
608,89.0,72.0,360.0,5.0,0.0
609,87.0,0.0,360.0,5.0,0.0
610,78.0,0.0,120.0,0.0,0.0
611,78.0,105.0,120.0,1.0,0.0
612,65.0,10.0,360.0,3.0,0.0
613,77.0,0.0,120.0,0.0,0.0
614,77.0,10.0,120.0,1.0,0.0
615,81.0,0.0,120.0,5.0,0.0
616,60.0,0.0,120.0,5.0,0.0
617,72.0,105.0,120.0,5.0,0.0
618,75.0,0.0,120.0,5.0,0.0
619,87.0,0.0,120.0,1.0,0.0
620,81.0,10.0,120.0,2.0,0.0
621,60.0,5.0,90.0,4.0,0.0
622,87.0,33.0,60.0,0.0,0.0
623,87.0,0.0,30.0,0.0,0.0
624,73.0,0.0,120.0,5.0,0.0
625,85.0,0.0,360.0,1.0,0.0
626,82.0,0.0,360.0,2.0,0.0
627,85.0,0.0,360.0,0.0,0.0
628,77.0,105.0,120.0,5.0,0.0
629,58.0,5.0,90.0,4.0,0.0
630,70.0,0.0,120.0,5.0,0.0
631,58.0,0.0,120.0,5.0,0.0
632,68.0,0.0,120.0,5.0,0.0
633,87.0,0.0,120.0,5.0,0.0
634,68.0,5.0,90.0,4.0,0.0
635,83.0,105.0,120.0,5.0,0.0
636,77.0,10.0,120.0,3.0,0.0
637,80.0,0.0,120.0,5.0,0.0
638,78.0,0.0,120.0,5.0,0.0
639,85.0,72.0,120.0,5.0,0.0
640,66.0,0.0,120.0,5.0,0.0
641,66.0,5.0,90.0,4.0,0.0
642,82.0,0.0,120.0,5.0,0.0
643,70.0,10.0,120.0,3.0,0.0
644,78.0,10.0,120.0,2.0,0.0
645,63.0,5.0,90.0,4.0,0.0
646,78.0,15.0,120.0,5.0,0.0
647,84.0,33.0,60.0,0.0,0.0
648,63.0,0.0,120.0,5.0,0.0
649,75.0,0.0,120.0,5.0,0.0
650,84.0,0.0,120.0,5.0,0.0
651,75.0,0.0,120.0,3.0,0.0
652,84.0,0.0,120.0,1.0,0.0
653,82.0,0.0,30.0,0.0,0.0
654,81.0,15.0,15.0,1.0,0.0
655,72.0,0.0,15.0,3.0,0.0
656,65.0,0.0,210.0,4.0,0.0
657,65.0,0.0,240.0,5.0,0.0
658,77.0,10.0,240.0,2.0,0.0
659,77.0,0.0,240.0,5.0,0.0
660,81.0,0.0,240.0,5.0,0.0
661,84.0,0.0,240.0,5.0,0.0
662,81.0,0.0,15.0,0.0,0.0
663,82.0,0.0,15.0,0.0,0.0
664,73.0,0.0,15.0,3.0,0.0
665,82.0,15.0,15.0,1.0,0.0
666,81.0,15.0,15.0,1.0,0.0
667,81.0,0.0,15.0,0.0,0.0
668,72.0,0.0,15.0,3.0,0.0
669,82.0,0.0,15.0,1.0,0.0
670,82.0,0.0,15.0,0.0,0.0
671,73.0,15.0,15.0,3.0,0.0
672,81.0,0.0,15.0,1.0,0.0
673,81.0,0.0,15.0,0.0,0.0
674,72.0,15.0,15.0,3.0,0.0
675,73.0,0.0,15.0,3.0,0.0
676,82.0,15.0,15.0,1.0,0.0
677,82.0,0.0,15.0,0.0,0.0
678,72.0,0.0,15.0,3.0,0.0
679,81.0,15.0,15.0,1.0,0.0
680,81.0,0.0,15.0,0.0,0.0
681,73.0,0.0,15.0,3.0,0.0
682,82.0,0.0,15.0,0.0,0.0
683,82.0,15.0,15.0,1.0,0.0
684,81.0,0.0,15.0,0.0,0.0
685,72.0,15.0,15.0,3.0,0.0
686,81.0,0.0,15.0,1.0,0.0
687,82.0,15.0,15.0,1.0,0.0
688,82.0,0.0,15.0,0.0,0.0
689,73.0,0.0,15.0,3.0,0.0
690,81.0,15.0,15.0,1.0,0.0
691,81.0,0.0,15.0,0.0,0.0
692,72.0,0.0,15.0,3.0,0.0
693,82.0,0.0,15.0,1.0,0.0
694,82.0,15.0,15.0,0.0,0.0
695,73.0,0.0,15.0,3.0,0.0
696,72.0,0.0,15.0,3.0,0.0
697,81.0,15.0,15.0,0.0,0.0
698,81.0,0.0,15.0,1.0,0.0
699,82.0,0.0,15.0,0.0,0.0
700,82.0,15.0,15.0,1.0,0.0
701,73.0,0.0,15.0,3.0,0.0
702,81.0,5.0,15.0,0.0,0.0
703,81.0,0.0,15.0,1.0,0.0
704,72.0,0.0,15.0,3.0,0.0
705,82.0,0.0,15.0,1.0,0.0
706,82.0,0.0,15.0,0.0,0.0
707,73.0,15.0,15.0,3.0,0.0
708,81.0,0.0,15.0,0.0,0.0
709,81.0,15.0,15.0,1.0,0.0
710,77.0,0.0,240.0,2.0,0.0
711,65.0,0.0,240.0,5.0,0.0
712,72.0,0.0,240.0,5.0,0.0
713,53.0,0.0,240.0,5.0,0.0
714,53.0,5.0,210.0,4.0,0.0
715,69.0,465.0,240.0,5.0,0.0
716,72.0,0.0,15.0,3.0,0.0
717,82.0,0.0,15.0,1.0,0.0
718,82.0,15.0,15.0,0.0,0.0
719,73.0,0.0,15.0,3.0,0.0
720,72.0,0.0,15.0,3.0,0.0
721,81.0,15.0,15.0,1.0,0.0
722,81.0,0.0,15.0,0.0,0.0
723,73.0,0.0,15.0,3.0,0.0
724,82.0,15.0,15.0,1.0,0.0
725,82.0,0.0,15.0,0.0,0.0
726,72.0,0.0,15.0,3.0,0.0
727,81.0,15.0,15.0,1.0,0.0
728,81.0,0.0,15.0,0.0,0.0
729,82.0,0.0,15.0,1.0,0.0
730,82.0,0.0,15.0,0.0,0.0
731,73.0,15.0,15.0,3.0,0.0
732,78.0,0.0,15.0,1.0,0.0
733,78.0,15.0,15.0,0.0,0.0
734,70.0,0.0,15.0,3.0,0.0
735,81.0,0.0,15.0,1.0,0.0
736,81.0,105.0,15.0,0.0,0.0
737,72.0,0.0,15.0,3.0,0.0
738,82.0,10.0,120.0,0.0,0.0
739,74.0,0.0,120.0,3.0,0.0
740,82.0,0.0,120.0,1.0,0.0
741,65.0,190.0,480.0,5.0,0.0
742,77.0,0.0,480.0,2.0,0.0
743,74.0,10.0,480.0,3.0,0.0
744,58.0,0.0,480.0,5.0,0.0
745,46.0,0.0,480.0,5.0,0.0
746,46.0,5.0,450.0,4.0,0.0
747,82.0,0.0,480.0,0.0,0.0
748,82.0,0.0,480.0,1.0,0.0
749,61.0,0.0,480.0,5.0,0.0
750,82.0,0.0,180.0,1.0,0.0
751,82.0,50.0,180.0,0.0,0.0
752,80.0,350.0,30.0,1.0,0.0
753,80.0,0.0,30.0,0.0,0.0
754,78.0,0.0,360.0,0.0,0.0
755,78.0,120.0,360.0,1.0,0.0
756,80.0,0.0,120.0,1.0,0.0
757,80.0,235.0,120.0,0.0,0.0
758,75.0,0.0,360.0,2.0,0.0
759,63.0,0.0,240.0,5.0,0.0
760,82.0,10.0,240.0,0.0,0.0
761,75.0,0.0,240.0,5.0,0.0
762,82.0,110.0,240.0,5.0,0.0
763,78.0,0.0,240.0,5.0,0.0
764,63.0,5.0,210.0,4.0,0.0
765,66.0,82.0,360.0,3.0,0.0
766,82.0,0.0,240.0,1.0,0.0
767,82.0,0.0,240.0,5.0,0.0
768,59.0,15.0,330.0,4.0,0.0
769,78.0,0.0,240.0,5.0,0.0
770,59.0,0.0,360.0,5.0,0.0
771,75.0,0.0,240.0,5.0,0.0
772,75.0,0.0,240.0,1.0,0.0
773,71.0,105.0,240.0,5.0,0.0
774,75.0,10.0,240.0,0.0,0.0
775,65.0,0.0,120.0,3.0,0.0
776,73.0,38.0,60.0,2.0,0.0
777,73.0,0.0,30.0,2.0,0.0
778,63.0,0.0,720.0,3.0,0.0
779,75.0,0.0,120.0,5.0,0.0
780,80.0,0.0,240.0,1.0,0.0
781,80.0,0.0,120.0,5.0,0.0
782,80.0,0.0,240.0,0.0,0.0
783,71.0,105.0,120.0,5.0,0.0
784,71.0,10.0,240.0,2.0,0.0
785,61.0,5.0,90.0,4.0,0.0
786,61.0,0.0,120.0,5.0,0.0
787,73.0,0.0,120.0,5.0,0.0
788,77.0,0.0,120.0,5.0,0.0
789,80.0,110.0,120.0,5.0,0.0
790,63.0,0.0,240.0,5.0,0.0
791,78.0,0.0,240.0,5.0,0.0
792,70.0,115.0,120.0,2.0,0.0
793,75.0,110.0,240.0,5.0,0.0
794,78.0,10.0,480.0,0.0,0.0
795,63.0,5.0,210.0,4.0,0.0
796,82.0,0.0,240.0,5.0,0.0
797,78.0,0.0,480.0,1.0,0.0
798,73.0,10.0,120.0,2.0,0.0
799,78.0,0.0,240.0,5.0,0.0
800,68.0,0.0,240.0,5.0,0.0
801,75.0,110.0,240.0,5.0,0.0
802,71.0,0.0,240.0,5.0,0.0
803,56.0,0.0,240.0,5.0,0.0
804,56.0,5.0,210.0,4.0,0.0
805,71.0,82.0,120.0,2.0,0.0
806,70.0,33.0,60.0,2.0,0.0
807,70.0,0.0,30.0,2.0,0.0
808,61.0,5.0,210.0,4.0,0.0
809,65.0,10.0,120.0,3.0,0.0
810,77.0,0.0,120.0,0.0,0.0
811,80.0,0.0,240.0,5.0,0.0
812,77.0,0.0,240.0,5.0,0.0
813,68.0,10.0,360.0,2.0,0.0
814,61.0,0.0,240.0,5.0,0.0
815,73.0,0.0,240.0,5.0,0.0
816,77.0,105.0,120.0,1.0,0.0
817,75.0,10.0,120.0,1.0,0.0
818,66.0,0.0,120.0,3.0,0.0
819,75.0,110.0,120.0,0.0,0.0
820,68.0,0.0,480.0,3.0,0.0
821,74.0,0.0,120.0,1.0,0.0
822,74.0,110.0,120.0,0.0,0.0
823,59.0,5.0,450.0,4.0,0.0
824,80.0,15.0,240.0,5.0,0.0
825,59.0,0.0,480.0,5.0,0.0
826,71.0,0.0,240.0,5.0,0.0
827,75.0,0.0,240.0,5.0,0.0
828,75.0,10.0,120.0,1.0,0.0
829,75.0,0.0,120.0,0.0,0.0
830,66.0,0.0,120.0,2.0,0.0
831,74.0,0.0,240.0,5.0,0.0
832,77.0,0.0,240.0,5.0,0.0
833,71.0,105.0,240.0,5.0,0.0
834,74.0,72.0,120.0,1.0,0.0
835,80.0,0.0,240.0,5.0,0.0
836,65.0,0.0,240.0,2.0,0.0
837,74.0,15.0,15.0,0.0,0.0
838,75.0,15.0,15.0,0.0,0.0
839,74.0,15.0,15.0,0.0,0.0
840,75.0,15.0,15.0,0.0,0.0
841,74.0,15.0,15.0,0.0,0.0
842,75.0,15.0,15.0,0.0,0.0
843,71.0,15.0,15.0,0.0,0.0
844,74.0,0.0,15.0,0.0,0.0
845,75.0,10.0,120.0,1.0,0.0
846,75.0,33.0,60.0,0.0,0.0
847,75.0,0.0,30.0,0.0,0.0
848,58.0,15.0,90.0,4.0,0.0
849,70.0,0.0,120.0,5.0,0.0
850,74.0,0.0,120.0,5.0,0.0
851,77.0,0.0,120.0,5.0,0.0
852,70.0,10.0,240.0,2.0,0.0
853,58.0,105.0,120.0,5.0,0.0
854,77.0,10.0,360.0,0.0,0.0
855,62.0,0.0,240.0,3.0,0.0
856,77.0,0.0,360.0,1.0,0.0
857,56.0,0.0,120.0,5.0,0.0
858,56.0,5.0,90.0,4.0,0.0
859,68.0,0.0,120.0,5.0,0.0
860,77.0,0.0,120.0,5.0,0.0
861,74.0,105.0,120.0,5.0,0.0
862,77.0,0.0,120.0,5.0,0.0
863,74.0,0.0,120.0,5.0,0.0
864,66.0,0.0,120.0,5.0,0.0
865,54.0,105.0,120.0,5.0,0.0
866,74.0,10.0,240.0,2.0,0.0
867,70.0,0.0,240.0,3.0,0.0
868,54.0,5.0,90.0,4.0,0.0
869,70.0,0.0,120.0,0.0,0.0
870,70.0,0.0,120.0,1.0,0.0
871,77.0,0.0,120.0,5.0,0.0
872,74.0,0.0,120.0,5.0,0.0
873,56.0,105.0,120.0,5.0,0.0
874,68.0,0.0,120.0,5.0,0.0
875,56.0,5.0,90.0,4.0,0.0
876,66.0,0.0,120.0,5.0,0.0
877,63.0,0.0,240.0,3.0,0.0
878,82.0,120.0,360.0,0.0,0.0
879,82.0,0.0,360.0,1.0,0.0
880,54.0,5.0,90.0,4.0,0.0
881,75.0,10.0,120.0,2.0,0.0
882,54.0,0.0,120.0,5.0,0.0
883,75.0,105.0,120.0,5.0,0.0
884,70.0,0.0,120.0,5.0,0.0
885,56.0,5.0,90.0,4.0,0.0
886,56.0,0.0,120.0,5.0,0.0
887,68.0,110.0,120.0,5.0,0.0
888,75.0,0.0,120.0,5.0,0.0
889,77.0,10.0,120.0,2.0,0.0
890,71.0,0.0,120.0,5.0,0.0
891,62.0,0.0,240.0,3.0,0.0
892,58.0,15.0,330.0,4.0,0.0
893,75.0,0.0,240.0,5.0,0.0
894,78.0,10.0,240.0,2.0,0.0
895,58.0,105.0,360.0,5.0,0.0
896,78.0,0.0,240.0,5.0,0.0
897,70.0,105.0,240.0,5.0,0.0
898,83.0,0.0,120.0,0.0,0.0
899,83.0,0.0,120.0,1.0,0.0
900,77.0,0.0,120.0,5.0,0.0
901,74.0,0.0,120.0,5.0,0.0
902,70.0,0.0,120.0,5.0,0.0
903,70.0,10.0,360.0,3.0,0.0
904,80.0,0.0,120.0,5.0,0.0
905,74.0,0.0,240.0,2.0,0.0
906,80.0,10.0,240.0,0.0,0.0
907,80.0,0.0,240.0,1.0,0.0
908,66.0,0.0,120.0,5.0,0.0
909,51.0,5.0,90.0,4.0,0.0
910,63.0,0.0,120.0,5.0,0.0
911,51.0,15.0,120.0,5.0,0.0
912,70.0,0.0,120.0,5.0,0.0
913,63.0,15.0,330.0,4.0,0.0
914,79.0,72.0,120.0,1.0,0.0
915,75.0,0.0,120.0,2.0,0.0
916,82.0,0.0,240.0,5.0,0.0
917,63.0,0.0,360.0,5.0,0.0
918,75.0,105.0,240.0,5.0,0.0
919,79.0,15.0,15.0,0.0,0.0
920,79.0,0.0,240.0,5.0,0.0
921,80.0,15.0,15.0,0.0,0.0
922,79.0,15.0,15.0,0.0,0.0
923,80.0,15.0,15.0,0.0,0.0
924,79.0,15.0,15.0,0.0,0.0
925,80.0,15.0,15.0,0.0,0.0
926,77.0,5.0,15.0,0.0,0.0
927,79.0,0.0,15.0,0.0,0.0
928,80.0,38.0,60.0,0.0,0.0
929,77.0,10.0,120.0,2.0,0.0
930,71.0,0.0,120.0,3.0,0.0
931,80.0,0.0,120.0,1.0,0.0
932,80.0,0.0,30.0,0.0,0.0
933,82.0,105.0,120.0,5.0,0.0
934,79.0,0.0,120.0,2.0,0.0
935,79.0,0.0,120.0,5.0,0.0
936,75.0,0.0,120.0,5.0,0.0
937,73.0,10.0,240.0,3.0,0.0
938,82.0,0.0,240.0,0.0,0.0
939,82.0,0.0,240.0,1.0,0.0
940,79.0,0.0,120.0,5.0,0.0
941,80.0,0.0,120.0,2.0,0.0
942,77.0,0.0,120.0,5.0,0.0
943,64.0,5.0,90.0,4.0,0.0
944,64.0,110.0,120.0,5.0,0.0
945,82.0,0.0,120.0,5.0,0.0
946,82.0,115.0,120.0,2.0,0.0
947,61.0,5.0,210.0,4.0,0.0
948,67.0,0.0,240.0,3.0,0.0
949,61.0,0.0,240.0,5.0,0.0
950,79.0,0.0,240.0,5.0,0.0
951,75.0,105.0,240.0,5.0,0.0
952,82.0,0.0,240.0,5.0,0.0
953,73.0,0.0,240.0,5.0,0.0
954,75.0,10.0,120.0,2.0,0.0
955,80.0,0.0,120.0,5.0,0.0
956,59.0,0.0,120.0,5.0,0.0
957,75.0,105.0,120.0,5.0,0.0
958,80.0,0.0,480.0,2.0,0.0
959,71.0,10.0,240.0,3.0,0.0
960,71.0,0.0,120.0,5.0,0.0
961,59.0,15.0,90.0,4.0,0.0
962,61.0,5.0,90.0,4.0,0.0
963,80.0,0.0,120.0,5.0,0.0
964,61.0,0.0,120.0,5.0,0.0
965,77.0,120.0,120.0,5.0,0.0
966,87.0,0.0,120.0,0.0,0.0
967,87.0,0.0,120.0,1.0,0.0
968,73.0,0.0,120.0,5.0,0.0
969,85.0,0.0,240.0,5.0,0.0
970,63.0,120.0,240.0,4.0,0.0
971,85.0,0.0,120.0,0.0,0.0
972,70.0,10.0,240.0,3.0,0.0
973,85.0,110.0,120.0,1.0,0.0
974,75.0,0.0,240.0,5.0,0.0
975,80.0,0.0,240.0,5.0,0.0
976,82.0,0.0,240.0,5.0,0.0
977,63.0,0.0,240.0,5.0,0.0
978,83.0,0.0,120.0,0.0,0.0
979,83.0,0.0,120.0,1.0,0.0
980,79.0,0.0,240.0,2.0,0.0
981,85.0,0.0,120.0,0.0,0.0
982,75.0,0.0,240.0,3.0,0.0
983,85.0,110.0,120.0,1.0,0.0
984,85.0,110.0,240.0,5.0,0.0
985,79.0,0.0,240.0,5.0,0.0
986,82.0,0.0,240.0,5.0,0.0
987,82.0,10.0,120.0,1.0,0.0
988,82.0,0.0,120.0,0.0,0.0
989,80.0,0.0,240.0,2.0,0.0
990,83.0,72.0,120.0,1.0,0.0
991,68.0,0.0,240.0,3.0,0.0
992,83.0,10.0,120.0,0.0,0.0
993,80.0,10.0,120.0,1.0,0.0
994,68.0,0.0,120.0,5.0,0.0
995,87.0,15.0,120.0,5.0,0.0
996,83.0,0.0,120.0,5.0,0.0
997,68.0,5.0,90.0,4.0,0.0
998,80.0,33.0,60.0,0.0,0.0
999,80.0,0.0,120.0,5.0,0.0
1000,85.0,0.0,30.0,0.0,0.0
1001,80.0,0.0,120.0,5.0,0.0
1002,84.0,15.0,15.0,1.0,0.0
1003,87.0,0.0,120.0,5.0,0.0
1004,75.0,0.0,480.0,2.0,0.0
1005,84.0,0.0,15.0,0.0,0.0
1006,66.0,15.0,120.0,5.0,0.0
1007,78.0,0.0,120.0,5.0,0.0
1008,84.0,0.0,120.0,5.0,0.0
1009,68.0,2.0,480.0,3.0,0.0
1010,66.0,0.0,90.0,4.0,0.0
1011,85.0,15.0,15.0,0.0,0.0
1012,85.0,0.0,15.0,1.0,0.0
1013,84.0,0.0,15.0,0.0,0.0
1014,84.0,15.0,15.0,1.0,0.0
1015,85.0,0.0,15.0,0.0,0.0
1016,85.0,15.0,15.0,1.0,0.0
1017,84.0,0.0,15.0,0.0,0.0
1018,84.0,15.0,15.0,1.0,0.0
1019,85.0,0.0,15.0,1.0,0.0
1020,85.0,15.0,15.0,0.0,0.0
1021,84.0,0.0,15.0,1.0,0.0
1022,84.0,15.0,15.0,0.0,0.0
1023,85.0,0.0,15.0,1.0,0.0
1024,85.0,0.0,15.0,0.0,0.0
1025,80.0,0.0,120.0,5.0,0.0
1026,84.0,0.0,120.0,5.0,0.0
1027,77.0,15.0,120.0,5.0,0.0
1028,65.0,0.0,120.0,5.0,0.0
1029,84.0,15.0,15.0,0.0,0.0
1030,84.0,0.0,15.0,1.0,0.0
1031,65.0,0.0,90.0,4.0,0.0
1032,85.0,0.0,15.0,1.0,0.0
1033,85.0,15.0,15.0,0.0,0.0
1034,84.0,15.0,15.0,0.0,0.0
1035,84.0,0.0,15.0,1.0,0.0
1036,85.0,0.0,15.0,1.0,0.0
1037,85.0,15.0,15.0,0.0,0.0
1038,84.0,15.0,15.0,0.0,0.0
1039,84.0,0.0,15.0,1.0,0.0
1040,85.0,0.0,15.0,0.0,0.0
1041,85.0,15.0,15.0,1.0,0.0
1042,84.0,0.0,15.0,0.0,0.0
1043,84.0,15.0,15.0,1.0,0.0
1044,85.0,0.0,15.0,1.0,0.0
1045,85.0,0.0,15.0,0.0,0.0
1046,84.0,15.0,15.0,1.0,0.0
1047,66.0,0.0,90.0,4.0,0.0
1048,84.0,0.0,15.0,0.0,0.0
1049,78.0,0.0,120.0,5.0,0.0
1050,84.0,0.0,120.0,5.0,0.0
1051,80.0,52.0,120.0,5.0,0.0
1052,66.0,0.0,120.0,5.0,0.0
1053,85.0,0.0,15.0,1.0,0.0
1054,85.0,15.0,15.0,0.0,0.0
1055,84.0,0.0,15.0,1.0,0.0
1056,84.0,15.0,15.0,0.0,0.0
1057,85.0,0.0,15.0,1.0,0.0
1058,85.0,15.0,15.0,0.0,0.0
1059,84.0,15.0,15.0,1.0,0.0
1060,84.0,0.0,15.0,0.0,0.0
1061,85.0,0.0,15.0,1.0,0.0
1062,85.0,15.0,15.0,0.0,0.0
1063,84.0,0.0,15.0,1.0,0.0
1064,84.0,15.0,15.0,0.0,0.0
1065,85.0,0.0,15.0,1.0,0.0
1066,85.0,0.0,15.0,0.0,0.0
1067,75.0,0.0,120.0,5.0,0.0
1068,63.0,5.0,90.0,4.0,0.0
1069,82.0,0.0,60.0,0.0,0.0
1070,82.0,0.0,120.0,5.0,0.0
1071,82.0,53.0,60.0,1.0,0.0
1072,78.0,0.0,120.0,5.0,0.0
1073,63.0,105.0,120.0,5.0,0.0
1074,84.0,8.0,60.0,0.0,0.0
1075,84.0,0.0,60.0,1.0,0.0
1076,65.0,0.0,120.0,5.0,0.0
1077,85.0,0.0,120.0,1.0,0.0
1078,65.0,5.0,90.0,4.0,0.0
1079,85.0,0.0,120.0,5.0,0.0
1080,85.0,10.0,120.0,0.0,0.0
1081,80.0,0.0,240.0,2.0,0.0
1082,68.0,0.0,240.0,3.0,0.0
1083,80.0,105.0,120.0,5.0,0.0
1084,77.0,0.0,120.0,5.0,0.0
1085,61.0,5.0,90.0,4.0,0.0
1086,61.0,0.0,120.0,5.0,0.0
1087,80.0,15.0,120.0,5.0,0.0
1088,77.0,0.0,120.0,5.0,0.0
1089,73.0,0.0,120.0,5.0,0.0
1090,89.0,0.0,120.0,0.0,0.0
1091,89.0,10.0,120.0,1.0,0.0
1092,87.0,15.0,120.0,1.0,0.0
1093,65.0,0.0,15.0,4.0,0.0
1094,87.0,0.0,120.0,0.0,0.0
1095,68.0,15.0,15.0,3.0,0.0
1096,77.0,0.0,480.0,2.0,0.0
1097,86.0,0.0,360.0,5.0,0.0
1098,77.0,0.0,360.0,5.0,0.0
1099,65.0,0.0,15.0,5.0,0.0
1100,80.0,0.0,360.0,5.0,0.0
1101,70.0,0.0,15.0,3.0,0.0
1102,66.0,15.0,15.0,4.0,0.0
1103,66.0,0.0,15.0,5.0,0.0
1104,68.0,0.0,15.0,3.0,0.0
1105,65.0,15.0,15.0,4.0,0.0
1106,65.0,0.0,15.0,5.0,0.0
1107,66.0,0.0,15.0,4.0,0.0
1108,66.0,0.0,15.0,5.0,0.0
1109,70.0,15.0,15.0,3.0,0.0
1110,65.0,0.0,15.0,4.0,0.0
1111,65.0,0.0,15.0,5.0,0.0
1112,68.0,15.0,15.0,3.0,0.0
1113,66.0,15.0,15.0,4.0,0.0
1114,66.0,0.0,15.0,5.0,0.0
1115,70.0,0.0,15.0,3.0,0.0
1116,65.0,0.0,15.0,4.0,0.0
1117,65.0,15.0,15.0,5.0,0.0
1118,68.0,0.0,15.0,3.0,0.0
1119,66.0,0.0,15.0,4.0,0.0
1120,70.0,0.0,15.0,3.0,0.0
1121,66.0,0.0,15.0,5.0,0.0
1122,68.0,15.0,15.0,3.0,0.0
1123,65.0,0.0,15.0,5.0,0.0
1124,86.0,0.0,120.0,0.0,0.0
1125,65.0,0.0,15.0,4.0,0.0
1126,86.0,10.0,120.0,1.0,0.0
1127,66.0,0.0,15.0,5.0,0.0
1128,66.0,15.0,15.0,4.0,0.0
1129,70.0,0.0,15.0,3.0,0.0
1130,65.0,0.0,15.0,5.0,0.0
1131,68.0,15.0,15.0,3.0,0.0
1132,65.0,0.0,15.0,4.0,0.0
1133,66.0,0.0,15.0,5.0,0.0
1134,66.0,0.0,15.0,4.0,0.0
1135,70.0,15.0,15.0,3.0,0.0
1136,68.0,15.0,15.0,3.0,0.0
1137,65.0,0.0,15.0,4.0,0.0
1138,65.0,0.0,15.0,5.0,0.0
1139,66.0,15.0,15.0,5.0,0.0
1140,70.0,0.0,15.0,3.0,0.0
1141,66.0,0.0,15.0,4.0,0.0
1142,68.0,0.0,15.0,3.0,0.0
1143,65.0,0.0,15.0,5.0,0.0
1144,65.0,5.0,15.0,4.0,0.0
1145,66.0,0.0,15.0,5.0,0.0
1146,66.0,15.0,15.0,4.0,0.0
1147,70.0,0.0,15.0,3.0,0.0
1148,65.0,15.0,15.0,4.0,0.0
1149,84.0,0.0,120.0,0.0,0.0
1150,68.0,0.0,15.0,3.0,0.0
1151,65.0,0.0,15.0,5.0,0.0
1152,84.0,0.0,120.0,1.0,0.0
1153,66.0,0.0,15.0,5.0,0.0
1154,66.0,0.0,15.0,4.0,0.0
1155,70.0,15.0,15.0,3.0,0.0
1156,65.0,0.0,15.0,4.0,0.0
1157,68.0,15.0,15.0,3.0,0.0
1158,65.0,0.0,15.0,5.0,0.0
1159,66.0,0.0,15.0,4.0,0.0
1160,66.0,15.0,15.0,5.0,0.0
1161,70.0,0.0,15.0,3.0,0.0
1162,65.0,15.0,15.0,4.0,0.0
1163,68.0,0.0,15.0,3.0,0.0
1164,65.0,0.0,15.0,5.0,0.0
1165,66.0,0.0,15.0,4.0,0.0
1166,70.0,0.0,15.0,3.0,0.0
1167,66.0,15.0,15.0,5.0,0.0
1168,68.0,15.0,15.0,3.0,0.0
1169,65.0,0.0,15.0,4.0,0.0
1170,65.0,0.0,15.0,5.0,0.0
1171,70.0,0.0,15.0,3.0,0.0
1172,66.0,52.0,15.0,5.0,0.0
1173,66.0,0.0,15.0,4.0,0.0
1174,86.0,0.0,120.0,0.0,0.0
1175,66.0,0.0,60.0,3.0,0.0
1176,63.0,50.0,60.0,5.0,0.0
1177,82.0,0.0,60.0,5.0,0.0
1178,78.0,0.0,60.0,5.0,0.0
1179,75.0,0.0,60.0,5.0,0.0
1180,63.0,8.0,60.0,4.0,0.0
1181,86.0,2.0,120.0,1.0,0.0
1182,77.0,0.0,60.0,5.0,0.0
1183,65.0,8.0,60.0,4.0,0.0
1184,65.0,0.0,60.0,5.0,0.0
1185,68.0,0.0,60.0,3.0,0.0
1186,80.0,0.0,60.0,5.0,0.0
1187,83.0,120.0,60.0,5.0,0.0
1188,66.0,0.0,120.0,5.0,0.0
1189,82.0,0.0,120.0,5.0,0.0
1190,75.0,0.0,960.0,2.0,0.0
1191,78.0,0.0,120.0,5.0,0.0
1192,87.0,0.0,120.0,5.0,0.0
1193,70.0,0.0,240.0,3.0,0.0
1194,66.0,0.0,120.0,4.0,0.0
1195,87.0,0.0,120.0,1.0,0.0
1196,87.0,105.0,120.0,0.0,0.0
1197,85.0,0.0,120.0,0.0,0.0
1198,70.0,5.0,90.0,4.0,0.0
1199,82.0,0.0,120.0,5.0,0.0
1200,85.0,0.0,120.0,5.0,0.0
1201,89.0,105.0,120.0,5.0,0.0
1202,70.0,0.0,120.0,5.0,0.0
1203,85.0,10.0,120.0,1.0,0.0
1204,83.0,105.0,120.0,0.0,0.0
1205,83.0,0.0,120.0,5.0,0.0
1206,80.0,0.0,120.0,5.0,0.0
1207,87.0,0.0,120.0,5.0,0.0
1208,63.0,0.0,240.0,3.0,0.0
1209,68.0,0.0,120.0,5.0,0.0
1210,68.0,15.0,90.0,4.0,0.0
1211,83.0,0.0,120.0,1.0,0.0
1212,66.0,0.0,120.0,5.0,0.0
1213,78.0,0.0,120.0,5.0,0.0
1214,82.0,0.0,120.0,5.0,0.0
1215,82.0,0.0,120.0,1.0,0.0
1216,85.0,105.0,120.0,5.0,0.0
1217,66.0,5.0,90.0,4.0,0.0
1218,82.0,10.0,120.0,0.0,0.0
1219,80.0,0.0,120.0,1.0,0.0
1220,80.0,0.0,120.0,0.0,0.0
1221,83.0,0.0,120.0,5.0,0.0
1222,87.0,0.0,120.0,5.0,0.0
1223,65.0,5.0,90.0,4.0,0.0
1224,68.0,10.0,120.0,3.0,0.0
1225,77.0,105.0,120.0,5.0,0.0
1226,65.0,0.0,120.0,5.0,0.0
1227,80.0,0.0,120.0,5.0,0.0
1228,70.0,10.0,120.0,3.0,0.0
1229,78.0,0.0,120.0,1.0,0.0
1230,66.0,5.0,90.0,4.0,0.0
1231,85.0,0.0,120.0,5.0,0.0
1232,66.0,0.0,120.0,5.0,0.0
1233,78.0,0.0,120.0,5.0,0.0
1234,82.0,15.0,120.0,5.0,0.0
1235,78.0,0.0,120.0,0.0,0.0
1236,83.0,0.0,120.0,5.0,0.0
1237,87.0,0.0,120.0,5.0,0.0
1238,89.0,0.0,120.0,5.0,0.0
1239,80.0,0.0,120.0,5.0,0.0
1240,68.0,0.0,120.0,5.0,0.0
1241,77.0,72.0,120.0,1.0,0.0
1242,77.0,15.0,15.0,0.0,0.0
1243,68.0,15.0,90.0,4.0,0.0
1244,71.0,0.0,480.0,3.0,0.0
1245,78.0,15.0,15.0,0.0,0.0
1246,77.0,15.0,15.0,0.0,0.0
1247,78.0,15.0,15.0,0.0,0.0
1248,77.0,15.0,15.0,0.0,0.0
1249,78.0,15.0,15.0,0.0,0.0
1250,75.0,0.0,15.0,0.0,0.0
1251,77.0,0.0,15.0,0.0,0.0
1252,66.0,5.0,90.0,4.0,0.0
1253,78.0,33.0,60.0,0.0,0.0
1254,78.0,0.0,120.0,5.0,0.0
1255,66.0,0.0,120.0,5.0,0.0
1256,82.0,0.0,120.0,5.0,0.0
1257,85.0,0.0,120.0,5.0,0.0
1258,78.0,10.0,120.0,1.0,0.0
1259,78.0,105.0,30.0,0.0,0.0
1260,80.0,0.0,720.0,1.0,0.0
1261,86.0,0.0,120.0,5.0,0.0
1262,77.0,0.0,120.0,5.0,0.0
1263,74.0,10.0,120.0,2.0,0.0
1264,65.0,0.0,120.0,5.0,0.0
1265,80.0,105.0,120.0,5.0,0.0
1266,65.0,5.0,90.0,4.0,0.0
1267,80.0,0.0,720.0,0.0,0.0
1268,82.0,0.0,120.0,5.0,0.0
1269,75.0,0.0,120.0,5.0,0.0
1270,63.0,0.0,120.0,5.0,0.0
1271,75.0,10.0,120.0,2.0,0.0
1272,63.0,5.0,90.0,4.0,0.0
1273,78.0,105.0,120.0,5.0,0.0
1274,77.0,0.0,480.0,2.0,0.0
1275,62.0,5.0,90.0,4.0,0.0
1276,70.0,10.0,120.0,3.0,0.0
1277,74.0,0.0,120.0,5.0,0.0
1278,82.0,0.0,120.0,5.0,0.0
1279,77.0,0.0,120.0,5.0,0.0
1280,80.0,0.0,120.0,5.0,0.0
1281,62.0,105.0,120.0,5.0,0.0
1282,72.0,10.0,120.0,3.0,0.0
1283,60.0,0.0,120.0,5.0,0.0
1284,72.0,105.0,120.0,5.0,0.0
1285,60.0,5.0,90.0,4.0,0.0
1286,75.0,0.0,120.0,5.0,0.0
1287,78.0,0.0,120.0,5.0,0.0
1288,58.0,15.0,90.0,4.0,0.0
1289,77.0,0.0,120.0,5.0,0.0
1290,58.0,0.0,120.0,5.0,0.0
1291,80.0,0.0,120.0,5.0,0.0
1292,74.0,10.0,240.0,3.0,0.0
1293,70.0,105.0,120.0,5.0,0.0
1294,74.0,0.0,120.0,5.0,0.0
1295,78.0,0.0,120.0,5.0,0.0
1296,60.0,0.0,120.0,5.0,0.0
1297,72.0,0.0,120.0,5.0,0.0
1298,60.0,5.0,90.0,4.0,0.0
1299,75.0,110.0,120.0,5.0,0.0
1300,61.0,105.0,720.0,5.0,0.0
1301,75.0,115.0,600.0,2.0,0.0
1302,61.0,5.0,690.0,4.0,0.0
1303,79.0,10.0,120.0,0.0,0.0
1304,82.0,0.0,480.0,5.0,0.0
1305,73.0,0.0,480.0,5.0,0.0
1306,70.0,0.0,120.0,3.0,0.0
1307,75.0,0.0,480.0,5.0,0.0
1308,79.0,110.0,120.0,1.0,0.0
1309,79.0,110.0,480.0,5.0,0.0
1310,68.0,120.0,120.0,3.0,0.0
1311,80.0,0.0,120.0,0.0,0.0
1312,80.0,0.0,120.0,1.0,0.0
1313,82.0,10.0,120.0,0.0,0.0
1314,82.0,110.0,120.0,1.0,0.0
1315,67.0,0.0,120.0,3.0,0.0
1316,79.0,0.0,120.0,0.0,0.0
1317,79.0,10.0,120.0,1.0,0.0
1318,65.0,0.0,120.0,3.0,0.0
1319,73.0,0.0,240.0,5.0,0.0
1320,79.0,0.0,240.0,5.0,0.0
1321,87.0,0.0,840.0,1.0,0.0
1322,67.0,10.0,240.0,3.0,0.0
1323,87.0,120.0,840.0,0.0,0.0
1324,75.0,0.0,240.0,5.0,0.0
1325,77.0,0.0,120.0,2.0,0.0
1326,69.0,0.0,240.0,3.0,0.0
1327,75.0,0.0,120.0,5.0,0.0
1328,81.0,0.0,120.0,5.0,0.0
1329,72.0,0.0,120.0,5.0,0.0
1330,60.0,0.0,120.0,5.0,0.0
1331,75.0,105.0,120.0,2.0,0.0
1332,60.0,15.0,90.0,4.0,0.0
1333,81.0,0.0,120.0,5.0,0.0
1334,73.0,0.0,120.0,5.0,0.0
1335,61.0,105.0,120.0,5.0,0.0
1336,77.0,0.0,120.0,5.0,0.0
1337,73.0,10.0,120.0,2.0,0.0
1338,61.0,5.0,90.0,4.0,0.0
1339,63.0,15.0,90.0,4.0,0.0
1340,72.0,0.0,120.0,2.0,0.0
1341,78.0,0.0,240.0,3.0,0.0
1342,78.0,0.0,120.0,5.0,0.0
1343,84.0,105.0,120.0,5.0,0.0
1344,63.0,0.0,120.0,5.0,0.0
1345,75.0,0.0,120.0,5.0,0.0
1346,75.0,0.0,120.0,5.0,0.0
1347,60.0,0.0,120.0,5.0,0.0
1348,60.0,5.0,90.0,4.0,0.0
1349,78.0,0.0,120.0,5.0,0.0
1350,72.0,110.0,120.0,5.0,0.0
1351,70.0,10.0,120.0,2.0,0.0
1352,87.0,0.0,360.0,5.0,0.0
1353,77.0,10.0,240.0,3.0,0.0
1354,83.0,0.0,360.0,5.0,0.0
1355,72.0,0.0,360.0,2.0,0.0
1356,69.0,5.0,330.0,4.0,0.0
1357,81.0,72.0,360.0,5.0,0.0
1358,89.0,0.0,360.0,5.0,0.0
1359,69.0,0.0,360.0,5.0,0.0
1360,78.0,105.0,120.0,1.0,0.0
1361,78.0,0.0,120.0,0.0,0.0
1362,65.0,10.0,360.0,3.0,0.0
1363,77.0,0.0,120.0,1.0,0.0
1364,77.0,10.0,120.0,0.0,0.0
1365,60.0,5.0,90.0,4.0,0.0
1366,81.0,0.0,120.0,2.0,0.0
1367,87.0,10.0,120.0,1.0,0.0
1368,87.0,33.0,60.0,0.0,0.0
1369,60.0,0.0,120.0,5.0,0.0
1370,72.0,0.0,120.0,5.0,0.0
1371,75.0,0.0,120.0,5.0,0.0
1372,81.0,0.0,120.0,5.0,0.0
1373,87.0,105.0,30.0,0.0,0.0
1374,85.0,0.0,360.0,0.0,0.0
1375,58.0,5.0,90.0,4.0,0.0
1376,85.0,10.0,360.0,1.0,0.0
1377,82.0,0.0,360.0,2.0,0.0
1378,70.0,0.0,120.0,5.0,0.0
1379,73.0,105.0,120.0,5.0,0.0
1380,77.0,0.0,120.0,5.0,0.0
1381,58.0,0.0,120.0,5.0,0.0
1382,68.0,5.0,90.0,4.0,0.0
1383,68.0,0.0,120.0,5.0,0.0
1384,83.0,0.0,120.0,5.0,0.0
1385,87.0,0.0,120.0,5.0,0.0
1386,80.0,105.0,120.0,5.0,0.0
1387,77.0,10.0,120.0,3.0,0.0
1388,70.0,0.0,120.0,3.0,0.0
1389,66.0,5.0,90.0,4.0,0.0
1390,78.0,0.0,120.0,5.0,0.0
1391,66.0,72.0,120.0,5.0,0.0
1392,85.0,0.0,120.0,5.0,0.0
1393,82.0,0.0,120.0,5.0,0.0
1394,84.0,33.0,60.0,0.0,0.0
1395,78.0,10.0,120.0,2.0,0.0
1396,75.0,0.0,120.0,3.0,0.0
1397,63.0,5.0,90.0,4.0,0.0
1398,84.0,0.0,120.0,1.0,0.0
1399,63.0,0.0,120.0,5.0,0.0
1400,78.0,0.0,120.0,5.0,0.0
1401,75.0,0.0,120.0,5.0,0.0
1402,84.0,15.0,120.0,5.0,0.0
1403,82.0,0.0,30.0,0.0,0.0
1404,77.0,15.0,240.0,5.0,0.0
1405,81.0,15.0,15.0,0.0,0.0
1406,65.0,0.0,210.0,4.0,0.0
1407,81.0,0.0,240.0,5.0,0.0
1408,84.0,0.0,240.0,5.0,0.0
1409,81.0,0.0,15.0,1.0,0.0
1410,65.0,0.0,240.0,5.0,0.0
1411,77.0,10.0,240.0,2.0,0.0
1412,72.0,0.0,15.0,3.0,0.0
1413,82.0,15.0,15.0,1.0,0.0
1414,73.0,0.0,15.0,3.0,0.0
1415,82.0,0.0,15.0,0.0,0.0
1416,72.0,0.0,15.0,3.0,0.0
1417,81.0,15.0,15.0,0.0,0.0
1418,81.0,0.0,15.0,1.0,0.0
1419,73.0,15.0,15.0,3.0,0.0
1420,82.0,0.0,15.0,1.0,0.0
1421,82.0,0.0,15.0,0.0,0.0
1422,81.0,0.0,15.0,1.0,0.0
1423,81.0,0.0,15.0,0.0,0.0
1424,72.0,15.0,15.0,3.0,0.0
1425,82.0,0.0,15.0,1.0,0.0
1426,82.0,0.0,15.0,0.0,0.0
1427,73.0,15.0,15.0,3.0,0.0
1428,81.0,0.0,15.0,0.0,0.0
1429,72.0,15.0,15.0,3.0,0.0
1430,81.0,0.0,15.0,1.0,0.0
1431,73.0,0.0,15.0,3.0,0.0
1432,82.0,0.0,15.0,0.0,0.0
1433,82.0,15.0,15.0,1.0,0.0
1434,81.0,0.0,15.0,1.0,0.0
1435,72.0,0.0,15.0,3.0,0.0
1436,81.0,15.0,15.0,0.0,0.0
1437,73.0,0.0,15.0,3.0,0.0
1438,82.0,0.0,15.0,1.0,0.0
1439,82.0,15.0,15.0,0.0,0.0
1440,81.0,0.0,15.0,1.0,0.0
1441,72.0,0.0,15.0,3.0,0.0
1442,81.0,15.0,15.0,0.0,0.0
1443,82.0,0.0,15.0,1.0,0.0
1444,73.0,0.0,15.0,3.0,0.0
1445,82.0,15.0,15.0,0.0,0.0
1446,81.0,15.0,15.0,1.0,0.0
1447,72.0,0.0,15.0,3.0,0.0
1448,81.0,0.0,15.0,0.0,0.0
1449,73.0,0.0,15.0,3.0,0.0
1450,82.0,15.0,15.0,1.0,0.0
1451,82.0,0.0,15.0,0.0,0.0
1452,72.0,0.0,15.0,3.0,0.0
1453,81.0,0.0,15.0,0.0,0.0
1454,81.0,5.0,15.0,1.0,0.0
1455,82.0,0.0,15.0,1.0,0.0
1456,73.0,0.0,15.0,3.0,0.0
1457,82.0,0.0,15.0,0.0,0.0
1458,81.0,0.0,15.0,1.0,0.0
1459,77.0,0.0,240.0,2.0,0.0
1460,53.0,5.0,210.0,4.0,0.0
1461,72.0,0.0,15.0,3.0,0.0
1462,81.0,15.0,15.0,0.0,0.0
1463,65.0,0.0,240.0,5.0,0.0
1464,69.0,0.0,240.0,5.0,0.0
1465,72.0,0.0,240.0,5.0,0.0
1466,53.0,465.0,240.0,5.0,0.0
1467,82.0,0.0,15.0,1.0,0.0
1468,73.0,0.0,15.0,3.0,0.0
1469,82.0,15.0,15.0,0.0,0.0
1470,81.0,15.0,15.0,1.0,0.0
1471,72.0,0.0,15.0,3.0,0.0
1472,81.0,0.0,15.0,0.0,0.0
1473,82.0,0.0,15.0,0.0,0.0
1474,82.0,0.0,15.0,1.0,0.0
1475,73.0,15.0,15.0,3.0,0.0
1476,81.0,0.0,15.0,1.0,0.0
1477,81.0,0.0,15.0,0.0,0.0
1478,72.0,15.0,15.0,3.0,0.0
1479,82.0,15.0,15.0,1.0,0.0
1480,82.0,0.0,15.0,0.0,0.0
1481,73.0,0.0,15.0,3.0,0.0
1482,78.0,0.0,15.0,0.0,0.0
1483,78.0,0.0,15.0,1.0,0.0
1484,70.0,15.0,15.0,3.0,0.0
1485,81.0,0.0,15.0,0.0,0.0
1486,72.0,0.0,15.0,3.0,0.0
1487,81.0,105.0,15.0,1.0,0.0
1488,82.0,10.0,120.0,0.0,0.0
1489,82.0,0.0,120.0,1.0,0.0
1490,74.0,0.0,120.0,3.0,0.0
1491,82.0,10.0,480.0,0.0,0.0
1492,46.0,0.0,480.0,5.0,0.0
1493,61.0,0.0,480.0,5.0,0.0
1494,65.0,192.0,480.0,5.0,0.0
1495,77.0,0.0,480.0,2.0,0.0
1496,58.0,0.0,480.0,5.0,0.0
1497,74.0,0.0,480.0,3.0,0.0
1498,46.0,5.0,450.0,4.0,0.0
1499,82.0,0.0,480.0,1.0,0.0
1500,77.0,0.0,180.0,1.0,0.0
1501,77.0,48.0,180.0,0.0,0.0
1502,75.0,0.0,30.0,1.0,0.0
1503,75.0,15.0,30.0,0.0,0.0
1504,74.0,0.0,15.0,1.0,0.0
1505,74.0,15.0,15.0,0.0,0.0
1506,75.0,0.0,15.0,1.0,0.0
1507,75.0,15.0,15.0,0.0,0.0
1508,74.0,15.0,15.0,1.0,0.0
1509,74.0,0.0,15.0,0.0,0.0
1510,75.0,0.0,15.0,0.0,0.0
1511,75.0,15.0,15.0,1.0,0.0
1512,74.0,0.0,15.0,0.0,0.0
1513,74.0,15.0,15.0,1.0,0.0
1514,75.0,15.0,15.0,0.0,0.0
1515,75.0,0.0,15.0,1.0,0.0
1516,74.0,15.0,15.0,1.0,0.0
1517,74.0,0.0,15.0,0.0,0.0
1518,75.0,15.0,15.0,0.0,0.0
1519,75.0,0.0,15.0,1.0,0.0
1520,74.0,0.0,15.0,0.0,0.0
1521,74.0,15.0,15.0,1.0,0.0
1522,75.0,15.0,15.0,1.0,0.0
1523,75.0,0.0,15.0,0.0,0.0
1524,74.0,0.0,15.0,0.0,0.0
1525,74.0,15.0,15.0,1.0,0.0
1526,75.0,15.0,15.0,0.0,0.0
1527,75.0,0.0,15.0,1.0,0.0
1528,74.0,0.0,15.0,1.0,0.0
1529,74.0,15.0,15.0,0.0,0.0
1530,75.0,15.0,15.0,1.0,0.0
1531,75.0,0.0,15.0,0.0,0.0
1532,74.0,0.0,15.0,0.0,0.0
1533,74.0,15.0,15.0,1.0,0.0
1534,75.0,15.0,15.0,0.0,0.0
1535,75.0,0.0,15.0,1.0,0.0
1536,74.0,0.0,15.0,1.0,0.0
1537,74.0,15.0,15.0,0.0,0.0
1538,75.0,0.0,15.0,1.0,0.0
1539,75.0,15.0,15.0,0.0,0.0
1540,74.0,15.0,15.0,1.0,0.0
1541,74.0,0.0,15.0,0.0,0.0
1542,75.0,0.0,15.0,1.0,0.0
1543,75.0,15.0,15.0,0.0,0.0
1544,74.0,0.0,15.0,1.0,0.0
1545,74.0,15.0,15.0,0.0,0.0
1546,75.0,0.0,15.0,1.0,0.0
1547,75.0,15.0,15.0,0.0,0.0
1548,71.0,0.0,15.0,0.0,0.0
1549,71.0,15.0,15.0,1.0,0.0
1550,74.0,110.0,15.0,0.0,0.0
1551,74.0,0.0,15.0,1.0,0.0
1552,75.0,0.0,120.0,1.0,0.0
1553,75.0,240.0,120.0,0.0,0.0
1554,77.0,0.0,240.0,0.0,0.0
1555,58.0,10.0,240.0,4.0,0.0
1556,58.0,0.0,240.0,5.0,0.0
1557,74.0,0.0,360.0,2.0,0.0
1558,70.0,0.0,240.0,5.0,0.0
1559,74.0,0.0,240.0,5.0,0.0
1560,77.0,0.0,240.0,1.0,0.0
1561,70.0,120.0,360.0,3.0,0.0
1562,77.0,110.0,240.0,5.0,0.0
1563,70.0,0.0,240.0,5.0,0.0
1564,70.0,10.0,240.0,0.0,0.0
1565,54.0,0.0,360.0,5.0,0.0
1566,73.0,0.0,240.0,5.0,0.0
1567,66.0,110.0,240.0,5.0,0.0
1568,77.0,0.0,240.0,5.0,0.0
1569,70.0,0.0,240.0,1.0,0.0
1570,54.0,10.0,360.0,4.0,0.0
1571,80.0,0.0,120.0,2.0,0.0
1572,71.0,0.0,120.0,3.0,0.0
1573,78.0,0.0,120.0,2.0,0.0
1574,82.0,0.0,360.0,1.0,0.0
1575,75.0,0.0,120.0,5.0,0.0
1576,66.0,0.0,120.0,5.0,0.0
1577,70.0,110.0,120.0,5.0,0.0
1578,82.0,0.0,360.0,0.0,0.0
1579,70.0,0.0,120.0,3.0,0.0
1580,77.0,0.0,120.0,2.0,0.0
1581,71.0,0.0,120.0,5.0,0.0
1582,56.0,0.0,120.0,5.0,0.0
1583,75.0,110.0,120.0,5.0,0.0
1584,68.0,0.0,120.0,5.0,0.0
1585,56.0,10.0,120.0,4.0,0.0
1586,68.0,0.0,120.0,3.0,0.0
1587,75.0,0.0,120.0,2.0,0.0
1588,58.0,10.0,240.0,4.0,0.0
1589,58.0,0.0,240.0,5.0,0.0
1590,82.0,0.0,120.0,5.0,0.0
1591,70.0,110.0,120.0,5.0,0.0
1592,77.0,0.0,120.0,5.0,0.0
1593,74.0,0.0,120.0,5.0,0.0
1594,66.0,10.0,120.0,3.0,0.0
1595,77.0,120.0,120.0,5.0,0.0
1596,70.0,0.0,120.0,5.0,0.0
1597,74.0,0.0,120.0,5.0,0.0
1598,80.0,0.0,120.0,5.0,0.0
1599,65.0,0.0,120.0,3.0,0.0
1600,80.0,0.0,120.0,1.0,0.0
1601,74.0,0.0,120.0,2.0,0.0
1602,80.0,0.0,120.0,0.0,0.0
1603,70.0,120.0,240.0,5.0,0.0
1604,51.0,0.0,240.0,4.0,0.0
1605,75.0,0.0,840.0,2.0,0.0
1606,63.0,10.0,240.0,3.0,0.0
1607,66.0,0.0,240.0,5.0,0.0
1608,63.0,0.0,240.0,5.0,0.0
1609,51.0,0.0,240.0,5.0,0.0
1610,78.0,110.0,120.0,0.0,0.0
1611,78.0,0.0,120.0,1.0,0.0
1612,77.0,0.0,120.0,1.0,0.0
1613,77.0,0.0,120.0,0.0,0.0
1614,80.0,110.0,120.0,1.0,0.0
1615,78.0,0.0,360.0,5.0,0.0
1616,63.0,0.0,360.0,5.0,0.0
1617,80.0,0.0,120.0,0.0,0.0
1618,82.0,110.0,360.0,5.0,0.0
1619,63.0,10.0,360.0,4.0,0.0
1620,58.0,0.0,240.0,3.0,0.0
1621,75.0,0.0,360.0,5.0,0.0
1622,78.0,120.0,120.0,1.0,0.0
1623,78.0,0.0,120.0,0.0,0.0
1624,70.0,0.0,240.0,3.0,0.0
1625,77.0,0.0,120.0,0.0,0.0
1626,77.0,0.0,120.0,1.0,0.0
1627,82.0,0.0,120.0,5.0,0.0
1628,75.0,0.0,120.0,0.0,0.0
1629,75.0,0.0,120.0,1.0,0.0
1630,61.0,10.0,120.0,4.0,0.0
1631,78.0,110.0,120.0,5.0,0.0
1632,73.0,0.0,120.0,5.0,0.0
1633,61.0,0.0,120.0,5.0,0.0
1634,72.0,0.0,120.0,5.0,0.0
1635,60.0,10.0,120.0,4.0,0.0
1636,75.0,0.0,120.0,5.0,0.0
1637,68.0,120.0,840.0,3.0,0.0
1638,80.0,0.0,120.0,5.0,0.0
1639,80.0,0.0,480.0,1.0,0.0
1640,80.0,0.0,480.0,0.0,0.0
1641,60.0,110.0,120.0,5.0,0.0
1642,73.0,10.0,120.0,2.0,0.0
1643,58.0,0.0,120.0,4.0,0.0
1644,77.0,110.0,120.0,5.0,0.0
1645,73.0,0.0,120.0,5.0,0.0
1646,58.0,0.0,120.0,5.0,0.0
1647,70.0,0.0,120.0,5.0,0.0
1648,61.0,10.0,120.0,4.0,0.0
1649,61.0,110.0,120.0,5.0,0.0
1650,73.0,0.0,120.0,5.0,0.0
1651,80.0,0.0,120.0,5.0,0.0
1652,77.0,0.0,120.0,5.0,0.0
1653,75.0,10.0,240.0,2.0,0.0
1654,60.0,0.0,120.0,4.0,0.0
1655,60.0,0.0,120.0,5.0,0.0
1656,78.0,0.0,120.0,5.0,0.0
1657,72.0,110.0,120.0,5.0,0.0
1658,75.0,0.0,120.0,5.0,0.0
1659,78.0,10.0,480.0,1.0,0.0
1660,78.0,0.0,480.0,0.0,0.0
1661,58.0,0.0,120.0,5.0,0.0
1662,75.0,0.0,120.0,5.0,0.0
1663,72.0,10.0,240.0,2.0,0.0
1664,78.0,110.0,120.0,5.0,0.0
1665,70.0,0.0,120.0,5.0,0.0
1666,71.0,0.0,120.0,5.0,0.0
1667,58.0,10.0,120.0,4.0,0.0
1668,56.0,0.0,120.0,4.0,0.0
1669,56.0,0.0,120.0,5.0,0.0
1670,75.0,0.0,120.0,5.0,0.0
1671,71.0,110.0,120.0,5.0,0.0
1672,68.0,0.0,120.0,5.0,0.0
1673,61.0,0.0,480.0,4.0,0.0
1674,73.0,0.0,240.0,5.0,0.0
1675,73.0,120.0,840.0,2.0,0.0
1676,78.0,110.0,240.0,5.0,0.0
1677,61.0,0.0,480.0,5.0,0.0
1678,80.0,0.0,240.0,5.0,0.0
1679,70.0,0.0,120.0,3.0,0.0
1680,77.0,10.0,120.0,1.0,0.0
1681,77.0,0.0,240.0,5.0,0.0
1682,77.0,110.0,120.0,0.0,0.0
1683,73.0,110.0,240.0,5.0,0.0
1684,68.0,0.0,120.0,3.0,0.0
1685,80.0,0.0,240.0,5.0,0.0
1686,78.0,0.0,120.0,0.0,0.0
1687,66.0,0.0,120.0,3.0,0.0
1688,78.0,10.0,120.0,1.0,0.0
1689,73.0,0.0,240.0,5.0,0.0
1690,65.0,10.0,120.0,3.0,0.0
1691,80.0,110.0,120.0,0.0,0.0
1692,77.0,110.0,240.0,5.0,0.0
1693,59.0,10.0,480.0,4.0,0.0
1694,80.0,0.0,240.0,5.0,0.0
1695,80.0,0.0,120.0,1.0,0.0
1696,59.0,0.0,480.0,5.0,0.0
1697,71.0,0.0,240.0,5.0,0.0
1698,77.0,0.0,120.0,0.0,0.0
1699,77.0,0.0,120.0,1.0,0.0
1700,63.0,10.0,120.0,3.0,0.0
1701,65.0,0.0,240.0,3.0,0.0
1702,77.0,0.0,240.0,5.0,0.0
1703,80.0,0.0,240.0,5.0,0.0
1704,73.0,0.0,240.0,1.0,0.0
1705,73.0,0.0,240.0,0.0,0.0
1706,73.0,0.0,240.0,5.0,0.0
1707,71.0,110.0,240.0,5.0,0.0
1708,71.0,0.0,120.0,2.0,0.0
1709,85.0,0.0,240.0,1.0,0.0
1710,73.0,10.0,120.0,2.0,0.0
1711,70.0,0.0,120.0,5.0,0.0
1712,58.0,0.0,120.0,4.0,0.0
1713,85.0,110.0,240.0,0.0,0.0
1714,73.0,0.0,120.0,5.0,0.0
1715,78.0,110.0,120.0,5.0,0.0
1716,58.0,0.0,120.0,5.0,0.0
1717,66.0,10.0,360.0,3.0,0.0
1718,78.0,0.0,120.0,5.0,0.0
1719,75.0,0.0,120.0,5.0,0.0
1720,71.0,0.0,120.0,5.0,0.0
1721,59.0,0.0,120.0,5.0,0.0
1722,59.0,10.0,120.0,4.0,0.0
1723,75.0,0.0,120.0,2.0,0.0
1724,82.0,0.0,120.0,5.0,0.0
1725,73.0,110.0,120.0,5.0,0.0
1726,76.0,120.0,360.0,2.0,0.0
1727,61.0,0.0,120.0,4.0,0.0
1728,61.0,0.0,120.0,5.0,0.0
1729,78.0,0.0,120.0,5.0,0.0
1730,76.0,0.0,120.0,5.0,0.0
1731,76.0,0.0,120.0,5.0,0.0
1732,70.0,0.0,120.0,5.0,0.0
1733,58.0,0.0,120.0,5.0,0.0
1734,61.0,0.0,120.0,3.0,0.0
1735,73.0,110.0,120.0,5.0,0.0
1736,58.0,10.0,120.0,4.0,0.0
1737,54.0,0.0,240.0,4.0,0.0
1738,73.0,0.0,240.0,5.0,0.0
1739,76.0,0.0,240.0,5.0,0.0
1740,73.0,0.0,480.0,3.0,0.0
1741,70.0,110.0,240.0,5.0,0.0
1742,54.0,0.0,240.0,5.0,0.0
1743,66.0,0.0,240.0,5.0,0.0
1744,83.0,10.0,120.0,1.0,0.0
1745,73.0,0.0,120.0,2.0,0.0
1746,83.0,0.0,120.0,0.0,0.0
1747,78.0,60.0,120.0,2.0,0.0
1748,82.0,0.0,120.0,1.0,0.0
1749,82.0,10.0,120.0,0.0,0.0
1750,82.0,0.0,240.0,5.0,0.0
1751,78.0,0.0,240.0,5.0,0.0
1752,66.0,0.0,240.0,5.0,0.0
1753,85.0,110.0,240.0,5.0,0.0
1754,66.0,0.0,240.0,4.0,0.0
1755,76.0,2.0,120.0,2.0,0.0
1756,83.0,0.0,60.0,1.0,0.0
1757,83.0,50.0,60.0,0.0,0.0
1758,85.0,0.0,60.0,0.0,0.0
1759,85.0,8.0,60.0,1.0,0.0
1760,78.0,10.0,120.0,0.0,0.0
1761,78.0,0.0,120.0,1.0,0.0
1762,75.0,110.0,120.0,2.0,0.0
1763,70.0,0.0,240.0,3.0,0.0
1764,73.0,25.0,120.0,2.0,0.0
1765,76.0,0.0,120.0,1.0,0.0
1766,76.0,0.0,120.0,0.0,0.0
1767,75.0,0.0,120.0,1.0,0.0
1768,71.0,0.0,240.0,2.0,0.0
1769,75.0,15.0,15.0,0.0,0.0
1770,66.0,10.0,600.0,3.0,0.0
1771,77.0,15.0,15.0,0.0,0.0
1772,75.0,15.0,15.0,0.0,0.0
1773,77.0,15.0,15.0,0.0,0.0
1774,75.0,15.0,15.0,0.0,0.0
1775,77.0,15.0,15.0,0.0,0.0
1776,73.0,15.0,15.0,0.0,0.0
1777,75.0,110.0,15.0,0.0,0.0
1778,73.0,0.0,120.0,1.0,0.0
1779,64.0,0.0,120.0,5.0,0.0
1780,78.0,0.0,120.0,5.0,0.0
1781,64.0,0.0,120.0,4.0,0.0
1782,73.0,10.0,120.0,0.0,0.0
1783,83.0,0.0,120.0,5.0,0.0
1784,76.0,110.0,120.0,5.0,0.0
1785,78.0,0.0,120.0,5.0,0.0
1786,75.0,0.0,120.0,5.0,0.0
1787,83.0,0.0,120.0,5.0,0.0
1788,71.0,0.0,240.0,1.0,0.0
1789,63.0,52.0,120.0,5.0,0.0
1790,63.0,10.0,120.0,4.0,0.0
1791,66.0,0.0,240.0,2.0,0.0
1792,71.0,2.0,240.0,0.0,0.0
1793,76.0,0.0,60.0,5.0,0.0
1794,64.0,0.0,60.0,5.0,0.0
1795,83.0,0.0,60.0,5.0,0.0
1796,64.0,8.0,60.0,4.0,0.0
1797,78.0,50.0,60.0,5.0,0.0
1798,66.0,8.0,60.0,4.0,0.0
1799,82.0,0.0,60.0,5.0,0.0
1800,85.0,0.0,60.0,5.0,0.0
1801,78.0,110.0,60.0,5.0,0.0
1802,66.0,0.0,60.0,5.0,0.0
1803,78.0,0.0,120.0,5.0,0.0
1804,71.0,0.0,120.0,5.0,0.0
1805,59.0,110.0,120.0,5.0,0.0
1806,87.0,0.0,480.0,0.0,0.0
1807,75.0,0.0,120.0,5.0,0.0
1808,87.0,10.0,480.0,1.0,0.0
1809,71.0,0.0,240.0,2.0,0.0
1810,59.0,0.0,120.0,4.0,0.0
1811,70.0,0.0,120.0,5.0,0.0
1812,76.0,0.0,120.0,5.0,0.0
1813,63.0,0.0,120.0,3.0,0.0
1814,58.0,110.0,120.0,5.0,0.0
1815,58.0,10.0,120.0,4.0,0.0
1816,73.0,0.0,120.0,5.0,0.0
1817,71.0,0.0,120.0,5.0,0.0
1818,75.0,0.0,120.0,5.0,0.0
1819,68.0,0.0,120.0,5.0,0.0
1820,56.0,0.0,120.0,5.0,0.0
1821,56.0,0.0,120.0,4.0,0.0
1822,65.0,10.0,120.0,3.0,0.0
1823,77.0,0.0,120.0,5.0,0.0
1824,83.0,110.0,120.0,2.0,0.0
1825,66.0,0.0,120.0,3.0,0.0
1826,54.0,0.0,120.0,4.0,0.0
1827,66.0,0.0,120.0,5.0,0.0
1828,73.0,0.0,120.0,5.0,0.0
1829,70.0,0.0,120.0,5.0,0.0
1830,54.0,110.0,120.0,5.0,0.0
1831,82.0,0.0,120.0,2.0,0.0
1832,53.0,0.0,240.0,5.0,0.0
1833,86.0,0.0,120.0,0.0,0.0
1834,53.0,0.0,240.0,4.0,0.0
1835,86.0,0.0,120.0,1.0,0.0
1836,68.0,0.0,240.0,5.0,0.0
1837,65.0,120.0,240.0,5.0,0.0
1838,80.0,110.0,120.0,2.0,0.0
1839,68.0,10.0,120.0,3.0,0.0
1840,74.0,0.0,240.0,5.0,0.0
1841,78.0,0.0,120.0,2.0,0.0
1842,87.0,0.0,120.0,0.0,0.0
1843,87.0,0.0,120.0,1.0,0.0
1844,70.0,10.0,120.0,3.0,0.0
1845,89.0,110.0,120.0,1.0,0.0
1846,68.0,0.0,480.0,4.0,0.0
1847,71.0,0.0,240.0,3.0,0.0
1848,89.0,120.0,240.0,5.0,0.0
1849,83.0,0.0,240.0,5.0,0.0
1850,68.0,0.0,480.0,5.0,0.0
1851,80.0,0.0,120.0,2.0,0.0
1852,89.0,0.0,120.0,0.0,0.0
1853,80.0,0.0,240.0,5.0,0.0
1854,86.0,0.0,120.0,1.0,0.0
1855,86.0,0.0,120.0,0.0,0.0
1856,77.0,10.0,120.0,2.0,0.0
1857,74.0,110.0,120.0,2.0,0.0
1858,80.0,110.0,240.0,5.0,0.0
1859,82.0,0.0,240.0,1.0,0.0
1860,89.0,0.0,240.0,5.0,0.0
1861,82.0,0.0,240.0,5.0,0.0
1862,82.0,10.0,240.0,0.0,0.0
1863,86.0,0.0,240.0,5.0,0.0
1864,65.0,0.0,240.0,3.0,0.0
1865,77.0,0.0,120.0,2.0,0.0
1866,87.0,0.0,120.0,5.0,0.0
1867,67.0,10.0,120.0,4.0,0.0
1868,67.0,110.0,120.0,5.0,0.0
1869,70.0,62.0,600.0,3.0,0.0
1870,87.0,0.0,240.0,1.0,0.0
1871,75.0,0.0,120.0,2.0,0.0
1872,87.0,0.0,240.0,0.0,0.0
1873,79.0,0.0,120.0,5.0,0.0
1874,82.0,0.0,120.0,5.0,0.0
1875,87.0,0.0,120.0,5.0,0.0
1876,68.0,10.0,120.0,4.0,0.0
1877,68.0,110.0,120.0,5.0,0.0
1878,83.0,0.0,120.0,5.0,0.0
1879,77.0,0.0,120.0,2.0,0.0
1880,80.0,0.0,120.0,5.0,0.0
1881,70.0,10.0,120.0,4.0,0.0
1882,82.0,0.0,120.0,5.0,0.0
1883,79.0,0.0,360.0,2.0,0.0
1884,70.0,0.0,120.0,5.0,0.0
1885,91.0,0.0,120.0,5.0,0.0
1886,85.0,110.0,120.0,5.0,0.0
1887,85.0,0.0,360.0,0.0,0.0
1888,85.0,0.0,360.0,1.0,0.0
1889,67.0,10.0,120.0,4.0,0.0
1890,79.0,110.0,120.0,5.0,0.0
1891,67.0,0.0,120.0,5.0,0.0
1892,85.0,0.0,120.0,5.0,0.0
1893,82.0,0.0,120.0,5.0,0.0
1894,63.0,0.0,240.0,5.0,0.0
1895,85.0,0.0,240.0,5.0,0.0
1896,82.0,0.0,240.0,5.0,0.0
1897,75.0,120.0,240.0,5.0,0.0
1898,79.0,0.0,240.0,5.0,0.0
1899,63.0,2.0,240.0,4.0,0.0
1900,83.0,0.0,60.0,0.0,0.0
1901,80.0,0.0,60.0,2.0,0.0
1902,83.0,8.0,60.0,1.0,0.0
1903,68.0,50.0,60.0,3.0,0.0
1904,82.0,0.0,60.0,0.0,0.0
1905,82.0,8.0,60.0,1.0,0.0
1906,67.0,0.0,60.0,3.0,0.0
1907,82.0,0.0,60.0,2.0,0.0
1908,68.0,0.0,240.0,4.0,0.0
1909,83.0,0.0,120.0,0.0,0.0
1910,68.0,0.0,240.0,3.0,0.0
1911,83.0,0.0,240.0,5.0,0.0
1912,80.0,120.0,240.0,5.0,0.0
1913,68.0,0.0,240.0,5.0,0.0
1914,87.0,0.0,240.0,5.0,0.0
1915,83.0,110.0,120.0,1.0,0.0
1916,75.0,10.0,600.0,2.0,0.0
1917,87.0,10.0,120.0,0.0,0.0
1918,87.0,0.0,120.0,1.0,0.0
1919,82.0,0.0,120.0,0.0,0.0
1920,78.0,110.0,240.0,5.0,0.0
1921,82.0,0.0,240.0,5.0,0.0
1922,66.0,0.0,360.0,5.0,0.0
1923,87.0,0.0,240.0,5.0,0.0
1924,66.0,0.0,360.0,4.0,0.0
1925,70.0,0.0,240.0,3.0,0.0
1926,82.0,110.0,120.0,1.0,0.0
1927,87.0,10.0,120.0,0.0,0.0
1928,87.0,0.0,120.0,1.0,0.0
1929,80.0,0.0,600.0,0.0,0.0
1930,83.0,0.0,120.0,5.0,0.0
1931,80.0,52.0,120.0,5.0,0.0
1932,78.0,0.0,120.0,5.0,0.0
1933,87.0,0.0,120.0,5.0,0.0
1934,71.0,0.0,600.0,3.0,0.0
1935,80.0,10.0,600.0,1.0,0.0
1936,80.0,2.0,120.0,2.0,0.0
1937,83.0,50.0,60.0,5.0,0.0
1938,77.0,0.0,60.0,5.0,0.0
1939,65.0,0.0,60.0,5.0,0.0
1940,80.0,0.0,60.0,5.0,0.0
1941,65.0,8.0,60.0,4.0,0.0
1942,63.0,8.0,60.0,4.0,0.0
1943,78.0,0.0,60.0,5.0,0.0
1944,82.0,0.0,60.0,5.0,0.0
1945,63.0,110.0,60.0,5.0,0.0
1946,75.0,0.0,60.0,5.0,0.0
1947,77.0,110.0,120.0,5.0,0.0
1948,65.0,0.0,120.0,4.0,0.0
1949,80.0,0.0,120.0,5.0,0.0
1950,65.0,0.0,120.0,5.0,0.0
1951,86.0,0.0,120.0,5.0,0.0
1952,74.0,10.0,120.0,2.0,0.0
1953,83.0,0.0,120.0,5.0,0.0
1954,68.0,0.0,120.0,4.0,0.0
1955,68.0,110.0,120.0,5.0,0.0
1956,80.0,0.0,120.0,5.0,0.0
1957,87.0,0.0,120.0,5.0,0.0
1958,75.0,10.0,120.0,2.0,0.0
1959,63.0,0.0,120.0,4.0,0.0
1960,83.0,0.0,120.0,5.0,0.0
1961,75.0,0.0,120.0,5.0,0.0
1962,63.0,110.0,120.0,5.0,0.0
1963,77.0,0.0,360.0,2.0,0.0
1964,80.0,0.0,120.0,5.0,0.0
1965,87.0,110.0,120.0,5.0,0.0
1966,80.0,0.0,120.0,5.0,0.0
1967,68.0,0.0,120.0,5.0,0.0
1968,68.0,0.0,120.0,4.0,0.0
1969,68.0,0.0,120.0,3.0,0.0
1970,71.0,10.0,120.0,1.0,0.0
1971,83.0,0.0,120.0,5.0,0.0
1972,71.0,0.0,120.0,0.0,0.0
1973,70.0,110.0,120.0,1.0,0.0
1974,82.0,0.0,600.0,5.0,0.0
1975,80.0,0.0,600.0,5.0,0.0
1976,62.0,110.0,600.0,5.0,0.0
1977,74.0,0.0,600.0,5.0,0.0
1978,77.0,0.0,600.0,5.0,0.0
1979,62.0,10.0,600.0,4.0,0.0
1980,70.0,10.0,120.0,0.0,0.0
1981,65.0,0.0,240.0,3.0,0.0
1982,80.0,0.0,120.0,0.0,0.0
1983,80.0,10.0,120.0,1.0,0.0
1984,71.0,110.0,120.0,2.0,0.0
1985,78.0,110.0,120.0,1.0,0.0
1986,70.0,0.0,120.0,2.0,0.0
1987,78.0,0.0,120.0,0.0,0.0
1988,66.0,10.0,120.0,3.0,0.0
1989,77.0,0.0,120.0,0.0,0.0
1990,68.0,120.0,120.0,3.0,0.0
1991,68.0,0.0,120.0,2.0,0.0
1992,77.0,0.0,120.0,1.0,0.0
1993,62.0,0.0,240.0,3.0,0.0
1994,82.0,0.0,120.0,0.0,0.0
1995,82.0,0.0,120.0,1.0,0.0
1996,77.0,10.0,240.0,2.0,0.0
1997,80.0,0.0,120.0,1.0,0.0
1998,53.0,0.0,120.0,4.0,0.0
1999,68.0,0.0,120.0,5.0,0.0
2000,74.0,0.0,120.0,5.0,0.0
2001,53.0,0.0,120.0,5.0,0.0
2002,65.0,110.0,120.0,5.0,0.0
2003,80.0,0.0,120.0,0.0,0.0
2004,78.0,0.0,120.0,0.0,0.0
2005,70.0,0.0,240.0,2.0,0.0
2006,63.0,110.0,120.0,5.0,0.0
2007,63.0,0.0,120.0,3.0,0.0
2008,78.0,10.0,120.0,1.0,0.0
2009,51.0,0.0,120.0,4.0,0.0
2010,70.0,0.0,120.0,5.0,0.0
2011,51.0,0.0,120.0,5.0,0.0
2012,66.0,0.0,120.0,5.0,0.0
2013,77.0,110.0,120.0,5.0,0.0
2014,73.0,0.0,120.0,5.0,0.0
2015,65.0,10.0,120.0,3.0,0.0
2016,77.0,0.0,120.0,1.0,0.0
2017,77.0,0.0,120.0,0.0,0.0
2018,82.0,0.0,120.0,5.0,0.0
2019,61.0,0.0,120.0,4.0,0.0
2020,61.0,0.0,120.0,5.0,0.0
2021,75.0,0.0,120.0,0.0,0.0
2022,66.0,0.0,120.0,3.0,0.0
2023,78.0,0.0,120.0,5.0,0.0
2024,75.0,0.0,120.0,5.0,0.0
2025,59.0,0.0,120.0,5.0,0.0
2026,59.0,0.0,120.0,4.0,0.0
2027,63.0,110.0,120.0,2.0,0.0
2028,71.0,0.0,120.0,5.0,0.0
2029,75.0,10.0,120.0,1.0,0.0
2030,65.0,0.0,120.0,2.0,0.0
2031,77.0,110.0,120.0,5.0,0.0
2032,58.0,0.0,120.0,5.0,0.0
2033,74.0,0.0,120.0,5.0,0.0
2034,70.0,0.0,120.0,5.0,0.0
2035,80.0,0.0,120.0,5.0,0.0
2036,58.0,10.0,120.0,4.0,0.0
2037,74.0,0.0,120.0,0.0,0.0
2038,74.0,0.0,120.0,1.0,0.0
2039,68.0,0.0,120.0,3.0,0.0
2040,63.0,110.0,120.0,5.0,0.0
2041,75.0,0.0,120.0,5.0,0.0
2042,78.0,0.0,120.0,5.0,0.0
2043,66.0,0.0,360.0,3.0,0.0
2044,66.0,0.0,120.0,2.0,0.0
2045,75.0,0.0,240.0,1.0,0.0
2046,63.0,10.0,120.0,4.0,0.0
2047,82.0,0.0,120.0,5.0,0.0
2048,75.0,0.0,240.0,0.0,0.0
2049,73.0,110.0,120.0,5.0,0.0
2050,77.0,0.0,120.0,5.0,0.0
2051,80.0,0.0,120.0,5.0,0.0
2052,70.0,10.0,120.0,2.0,0.0
2053,61.0,0.0,120.0,4.0,0.0
2054,61.0,0.0,120.0,5.0,0.0
2055,59.0,0.0,120.0,4.0,0.0
2056,78.0,0.0,120.0,5.0,0.0
2057,75.0,0.0,120.0,5.0,0.0
2058,59.0,110.0,120.0,5.0,0.0
2059,68.0,10.0,120.0,2.0,0.0
2060,71.0,0.0,120.0,5.0,0.0
2061,77.0,10.0,120.0,1.0,0.0
2062,77.0,0.0,120.0,0.0,0.0
2063,71.0,0.0,120.0,2.0,0.0
2064,77.0,0.0,120.0,5.0,0.0
2065,71.0,0.0,120.0,5.0,0.0
2066,56.0,15.0,120.0,5.0,0.0
2067,56.0,0.0,120.0,4.0,0.0
2068,68.0,0.0,120.0,5.0,0.0
2069,68.0,0.0,120.0,3.0,0.0
2070,75.0,0.0,120.0,5.0,0.0
2071,70.0,0.0,240.0,2.0,0.0
2072,70.0,0.0,240.0,5.0,0.0
2073,58.0,0.0,240.0,5.0,0.0
2074,58.0,0.0,240.0,4.0,0.0
2075,74.0,0.0,240.0,5.0,0.0
2076,77.0,0.0,240.0,5.0,0.0
2077,62.0,10.0,240.0,3.0,0.0
2078,77.0,0.0,15.0,1.0,0.0
2079,77.0,15.0,15.0,0.0,0.0
2080,78.0,15.0,15.0,0.0,0.0
2081,78.0,0.0,15.0,1.0,0.0
2082,77.0,15.0,15.0,1.0,0.0
2083,77.0,0.0,15.0,0.0,0.0
2084,78.0,0.0,15.0,0.0,0.0
2085,78.0,15.0,15.0,1.0,0.0
2086,77.0,0.0,15.0,0.0,0.0
2087,77.0,15.0,15.0,1.0,0.0
2088,78.0,0.0,15.0,0.0,0.0
2089,78.0,15.0,15.0,1.0,0.0
2090,77.0,15.0,15.0,0.0,0.0
2091,77.0,0.0,15.0,1.0,0.0
2092,78.0,0.0,15.0,0.0,0.0
2093,78.0,15.0,15.0,1.0,0.0
2094,77.0,0.0,15.0,1.0,0.0
2095,77.0,15.0,15.0,0.0,0.0
2096,78.0,15.0,15.0,1.0,0.0
2097,78.0,0.0,15.0,0.0,0.0
2098,77.0,15.0,15.0,0.0,0.0
2099,77.0,0.0,15.0,1.0,0.0
2100,78.0,15.0,15.0,0.0,0.0
2101,78.0,0.0,15.0,1.0,0.0
2102,77.0,0.0,15.0,1.0,0.0
2103,77.0,15.0,15.0,0.0,0.0
2104,78.0,0.0,15.0,1.0,0.0
2105,78.0,15.0,15.0,0.0,0.0
2106,77.0,5.0,15.0,0.0,0.0
2107,77.0,0.0,15.0,1.0,0.0
2108,78.0,0.0,15.0,0.0,0.0
2109,78.0,15.0,15.0,1.0,0.0
2110,70.0,10.0,240.0,2.0,0.0
2111,77.0,15.0,15.0,1.0,0.0
2112,62.0,0.0,240.0,3.0,0.0
2113,46.0,0.0,240.0,5.0,0.0
2114,65.0,0.0,240.0,5.0,0.0
2115,77.0,0.0,15.0,0.0,0.0
2116,62.0,0.0,240.0,5.0,0.0
2117,58.0,470.0,240.0,5.0,0.0
2118,46.0,0.0,240.0,4.0,0.0
2119,78.0,15.0,15.0,0.0,0.0
2120,78.0,0.0,15.0,1.0,0.0
2121,77.0,15.0,15.0,0.0,0.0
2122,77.0,0.0,15.0,1.0,0.0
2123,78.0,15.0,15.0,1.0,0.0
2124,78.0,0.0,15.0,0.0,0.0
2125,77.0,0.0,15.0,1.0,0.0
2126,77.0,15.0,15.0,0.0,0.0
2127,78.0,15.0,15.0,1.0,0.0
2128,78.0,0.0,15.0,0.0,0.0
2129,75.0,0.0,15.0,0.0,0.0
2130,75.0,15.0,15.0,1.0,0.0
2131,77.0,0.0,15.0,1.0,0.0
2132,77.0,110.0,15.0,0.0,0.0
2133,75.0,0.0,120.0,1.0,0.0
2134,75.0,0.0,120.0,0.0,0.0
2135,66.0,0.0,480.0,5.0,0.0
2136,70.0,0.0,480.0,2.0,0.0
2137,63.0,0.0,480.0,5.0,0.0
2138,51.0,0.0,480.0,5.0,0.0
2139,70.0,192.0,480.0,5.0,0.0
2140,75.0,10.0,480.0,1.0,0.0
2141,66.0,0.0,480.0,3.0,0.0
2142,75.0,0.0,480.0,0.0,0.0
2143,51.0,0.0,480.0,4.0,0.0
2144,77.0,0.0,180.0,0.0,0.0
2145,77.0,48.0,180.0,1.0,0.0
2146,75.0,0.0,30.0,0.0,0.0
2147,75.0,15.0,30.0,1.0,0.0
2148,74.0,15.0,15.0,0.0,0.0
2149,74.0,0.0,15.0,1.0,0.0
2150,75.0,15.0,15.0,1.0,0.0
2151,75.0,0.0,15.0,0.0,0.0
2152,74.0,0.0,15.0,1.0,0.0
2153,74.0,15.0,15.0,0.0,0.0
2154,75.0,0.0,15.0,1.0,0.0
2155,75.0,15.0,15.0,0.0,0.0
2156,74.0,0.0,15.0,1.0,0.0
2157,74.0,15.0,15.0,0.0,0.0
2158,75.0,15.0,15.0,1.0,0.0
2159,75.0,0.0,15.0,0.0,0.0
2160,74.0,0.0,15.0,0.0,0.0
2161,74.0,15.0,15.0,1.0,0.0
2162,75.0,0.0,15.0,0.0,0.0
2163,75.0,15.0,15.0,1.0,0.0
2164,74.0,15.0,15.0,1.0,0.0
2165,74.0,0.0,15.0,0.0,0.0
2166,75.0,0.0,15.0,0.0,0.0
2167,75.0,15.0,15.0,1.0,0.0
2168,74.0,0.0,15.0,1.0,0.0
2169,74.0,15.0,15.0,0.0,0.0
2170,75.0,0.0,15.0,1.0,0.0
2171,75.0,15.0,15.0,0.0,0.0
2172,74.0,15.0,15.0,1.0,0.0
2173,74.0,0.0,15.0,0.0,0.0
2174,75.0,15.0,15.0,1.0,0.0
2175,75.0,0.0,15.0,0.0,0.0
2176,74.0,15.0,15.0,0.0,0.0
2177,74.0,0.0,15.0,1.0,0.0
2178,75.0,15.0,15.0,1.0,0.0
2179,75.0,0.0,15.0,0.0,0.0
2180,74.0,15.0,15.0,0.0,0.0
2181,74.0,0.0,15.0,1.0,0.0
2182,75.0,0.0,15.0,0.0,0.0
2183,75.0,15.0,15.0,1.0,0.0
2184,74.0,15.0,15.0,1.0,0.0
2185,74.0,0.0,15.0,0.0,0.0
2186,75.0,15.0,15.0,1.0,0.0
2187,75.0,0.0,15.0,0.0,0.0
2188,74.0,15.0,15.0,0.0,0.0
2189,74.0,0.0,15.0,1.0,0.0
2190,75.0,0.0,15.0,0.0,0.0
2191,75.0,15.0,15.0,1.0,0.0
2192,71.0,0.0,15.0,0.0,0.0
2193,71.0,15.0,15.0,1.0,0.0
2194,74.0,0.0,15.0,0.0,0.0
2195,74.0,110.0,15.0,1.0,0.0
2196,75.0,240.0,120.0,0.0,0.0
2197,75.0,0.0,120.0,1.0,0.0
2198,74.0,120.0,360.0,2.0,0.0
2199,58.0,0.0,240.0,4.0,0.0
2200,77.0,0.0,240.0,0.0,0.0
2201,74.0,0.0,240.0,5.0,0.0
2202,77.0,10.0,240.0,1.0,0.0
2203,70.0,0.0,360.0,3.0,0.0
2204,58.0,110.0,240.0,5.0,0.0
2205,70.0,0.0,240.0,5.0,0.0
2206,77.0,0.0,240.0,5.0,0.0
2207,70.0,0.0,240.0,1.0,0.0
2208,54.0,0.0,360.0,4.0,0.0
2209,70.0,0.0,240.0,0.0,0.0
2210,77.0,0.0,240.0,5.0,0.0
2211,66.0,0.0,240.0,5.0,0.0
2212,73.0,110.0,240.0,5.0,0.0
2213,70.0,0.0,240.0,5.0,0.0
2214,54.0,0.0,360.0,5.0,0.0
2215,71.0,0.0,120.0,3.0,0.0
2216,80.0,10.0,120.0,2.0,0.0
2217,70.0,10.0,120.0,3.0,0.0
2218,66.0,0.0,120.0,5.0,0.0
2219,82.0,0.0,360.0,1.0,0.0
2220,70.0,0.0,120.0,5.0,0.0
2221,82.0,0.0,360.0,0.0,0.0
2222,75.0,0.0,120.0,5.0,0.0
2223,78.0,110.0,120.0,2.0,0.0
2224,56.0,0.0,120.0,4.0,0.0
2225,77.0,0.0,120.0,2.0,0.0
2226,68.0,10.0,120.0,3.0,0.0
2227,71.0,0.0,120.0,5.0,0.0
2228,68.0,110.0,120.0,5.0,0.0
2229,75.0,0.0,120.0,5.0,0.0
2230,56.0,0.0,120.0,5.0,0.0
2231,70.0,0.0,120.0,5.0,0.0
2232,82.0,0.0,120.0,5.0,0.0
2233,77.0,110.0,120.0,5.0,0.0
2234,58.0,0.0,240.0,5.0,0.0
2235,74.0,0.0,120.0,5.0,0.0
2236,75.0,0.0,120.0,2.0,0.0
2237,58.0,0.0,240.0,4.0,0.0
2238,66.0,10.0,120.0,3.0,0.0
2239,70.0,0.0,120.0,5.0,0.0
2240,74.0,0.0,120.0,5.0,0.0
2241,80.0,0.0,120.0,5.0,0.0
2242,80.0,10.0,120.0,0.0,0.0
2243,77.0,120.0,120.0,5.0,0.0
2244,74.0,0.0,120.0,2.0,0.0
2245,65.0,0.0,120.0,3.0,0.0
2246,80.0,0.0,120.0,1.0,0.0
2247,78.0,0.0,120.0,0.0,0.0
2248,51.0,0.0,240.0,5.0,0.0
2249,63.0,10.0,240.0,3.0,0.0
2250,78.0,110.0,120.0,1.0,0.0
2251,66.0,120.0,240.0,5.0,0.0
2252,63.0,0.0,240.0,5.0,0.0
2253,70.0,0.0,240.0,5.0,0.0
2254,51.0,0.0,240.0,4.0,0.0
2255,75.0,10.0,840.0,2.0,0.0
2256,77.0,0.0,120.0,0.0,0.0
2257,77.0,0.0,120.0,1.0,0.0
2258,63.0,10.0,360.0,4.0,0.0
2259,63.0,0.0,360.0,5.0,0.0
2260,82.0,0.0,360.0,5.0,0.0
2261,58.0,120.0,240.0,3.0,0.0
2262,78.0,0.0,360.0,5.0,0.0
2263,80.0,0.0,120.0,1.0,0.0
2264,80.0,110.0,120.0,0.0,0.0
2265,75.0,0.0,360.0,5.0,0.0
2266,78.0,0.0,120.0,1.0,0.0
2267,78.0,0.0,120.0,0.0,0.0
2268,77.0,0.0,120.0,0.0,0.0
2269,70.0,0.0,240.0,3.0,0.0
2270,77.0,110.0,120.0,1.0,0.0
2271,82.0,0.0,120.0,5.0,0.0
2272,73.0,0.0,120.0,5.0,0.0
2273,61.0,0.0,120.0,5.0,0.0
2274,75.0,0.0,120.0,1.0,0.0
2275,78.0,110.0,120.0,5.0,0.0
2276,75.0,0.0,120.0,0.0,0.0
2277,61.0,10.0,120.0,4.0,0.0
2278,75.0,0.0,120.0,5.0,0.0
2279,80.0,0.0,120.0,5.0,0.0
2280,68.0,120.0,840.0,3.0,0.0
2281,72.0,110.0,120.0,5.0,0.0
2282,80.0,10.0,480.0,0.0,0.0
2283,60.0,0.0,120.0,5.0,0.0
2284,60.0,0.0,120.0,4.0,0.0
2285,80.0,0.0,480.0,1.0,0.0
2286,73.0,110.0,120.0,5.0,0.0
2287,70.0,0.0,120.0,5.0,0.0
2288,58.0,0.0,120.0,5.0,0.0
2289,77.0,0.0,120.0,5.0,0.0
2290,58.0,0.0,120.0,4.0,0.0
2291,73.0,10.0,120.0,2.0,0.0
2292,61.0,10.0,120.0,4.0,0.0
2293,80.0,110.0,120.0,5.0,0.0
2294,75.0,0.0,240.0,2.0,0.0
2295,73.0,0.0,120.0,5.0,0.0
2296,61.0,0.0,120.0,5.0,0.0
2297,77.0,0.0,120.0,5.0,0.0
2298,75.0,0.0,120.0,5.0,0.0
2299,78.0,0.0,120.0,5.0,0.0
2300,60.0,0.0,120.0,4.0,0.0
2301,60.0,0.0,120.0,5.0,0.0
2302,72.0,110.0,120.0,5.0,0.0
2303,78.0,0.0,480.0,1.0,0.0
2304,78.0,10.0,480.0,0.0,0.0
2305,72.0,0.0,240.0,2.0,0.0
2306,58.0,10.0,120.0,4.0,0.0
2307,71.0,0.0,120.0,5.0,0.0
2308,78.0,0.0,120.0,5.0,0.0
2309,70.0,0.0,120.0,5.0,0.0
2310,75.0,110.0,120.0,5.0,0.0
2311,58.0,0.0,120.0,5.0,0.0
2312,75.0,0.0,120.0,5.0,0.0
2313,71.0,0.0,120.0,5.0,0.0
2314,68.0,0.0,120.0,5.0,0.0
2315,56.0,110.0,120.0,5.0,0.0
2316,56.0,10.0,120.0,4.0,0.0
2317,61.0,0.0,480.0,4.0,0.0
2318,73.0,0.0,240.0,5.0,0.0
2319,61.0,0.0,480.0,5.0,0.0
2320,80.0,0.0,240.0,5.0,0.0
2321,78.0,110.0,240.0,5.0,0.0
2322,73.0,120.0,840.0,2.0,0.0
2323,70.0,0.0,120.0,3.0,0.0
2324,77.0,10.0,120.0,1.0,0.0
2325,73.0,0.0,240.0,5.0,0.0
2326,77.0,110.0,120.0,0.0,0.0
2327,68.0,0.0,120.0,3.0,0.0
2328,77.0,110.0,240.0,5.0,0.0
2329,80.0,0.0,240.0,5.0,0.0
2330,66.0,0.0,120.0,3.0,0.0
2331,78.0,0.0,120.0,0.0,0.0
2332,78.0,10.0,120.0,1.0,0.0
2333,80.0,10.0,120.0,1.0,0.0
2334,80.0,0.0,240.0,5.0,0.0
2335,65.0,0.0,120.0,3.0,0.0
2336,59.0,110.0,480.0,5.0,0.0
2337,71.0,0.0,240.0,5.0,0.0
2338,59.0,10.0,480.0,4.0,0.0
2339,73.0,110.0,240.0,5.0,0.0
2340,80.0,110.0,120.0,0.0,0.0
2341,77.0,0.0,240.0,5.0,0.0
2342,77.0,0.0,120.0,0.0,0.0
2343,77.0,10.0,120.0,1.0,0.0
2344,63.0,0.0,120.0,3.0,0.0
2345,77.0,0.0,240.0,5.0,0.0
2346,65.0,0.0,240.0,3.0,0.0
2347,73.0,0.0,240.0,1.0,0.0
2348,73.0,0.0,240.0,5.0,0.0
2349,80.0,0.0,240.0,5.0,0.0
2350,71.0,0.0,240.0,5.0,0.0
2351,73.0,0.0,240.0,0.0,0.0
2352,71.0,0.0,120.0,2.0,0.0
2353,85.0,0.0,240.0,1.0,0.0
2354,73.0,10.0,120.0,2.0,0.0
2355,66.0,10.0,360.0,3.0,0.0
2356,78.0,0.0,120.0,5.0,0.0
2357,70.0,0.0,120.0,5.0,0.0
2358,58.0,110.0,120.0,5.0,0.0
2359,73.0,0.0,120.0,5.0,0.0
2360,85.0,110.0,240.0,0.0,0.0
2361,58.0,0.0,120.0,4.0,0.0
2362,59.0,0.0,120.0,5.0,0.0
2363,75.0,0.0,120.0,5.0,0.0
2364,78.0,0.0,120.0,5.0,0.0
2365,59.0,0.0,120.0,4.0,0.0
2366,75.0,10.0,120.0,2.0,0.0
2367,71.0,0.0,120.0,5.0,0.0
2368,61.0,0.0,120.0,4.0,0.0
2369,78.0,110.0,120.0,5.0,0.0
2370,73.0,0.0,120.0,5.0,0.0
2371,61.0,0.0,120.0,5.0,0.0
2372,76.0,0.0,120.0,5.0,0.0
2373,76.0,120.0,360.0,2.0,0.0
2374,82.0,0.0,120.0,5.0,0.0
2375,61.0,0.0,120.0,3.0,0.0
2376,58.0,0.0,120.0,5.0,0.0
2377,70.0,110.0,120.0,5.0,0.0
2378,58.0,10.0,120.0,4.0,0.0
2379,76.0,0.0,120.0,5.0,0.0
2380,73.0,0.0,120.0,5.0,0.0
2381,54.0,0.0,240.0,4.0,0.0
2382,70.0,110.0,240.0,5.0,0.0
2383,73.0,2.0,480.0,3.0,0.0
2384,66.0,0.0,240.0,5.0,0.0
2385,73.0,0.0,240.0,5.0,0.0
2386,76.0,0.0,240.0,5.0,0.0
2387,54.0,0.0,240.0,5.0,0.0
2388,83.0,10.0,120.0,0.0,0.0
2389,73.0,0.0,120.0,2.0,0.0
2390,83.0,0.0,120.0,1.0,0.0
2391,82.0,0.0,120.0,0.0,0.0
2392,66.0,110.0,240.0,4.0,0.0
2393,78.0,0.0,240.0,5.0,0.0
2394,82.0,0.0,240.0,5.0,0.0
2395,85.0,0.0,240.0,5.0,0.0
2396,66.0,0.0,240.0,5.0,0.0
2397,82.0,10.0,120.0,1.0,0.0
2398,78.0,60.0,120.0,2.0,0.0
2399,83.0,0.0,60.0,0.0,0.0
2400,76.0,0.0,120.0,2.0,0.0
2401,83.0,50.0,60.0,1.0,0.0
2402,85.0,8.0,60.0,0.0,0.0
2403,85.0,0.0,60.0,1.0,0.0
2404,70.0,0.0,240.0,3.0,0.0
2405,78.0,0.0,120.0,0.0,0.0
2406,75.0,110.0,120.0,2.0,0.0
2407,78.0,10.0,120.0,1.0,0.0
2408,76.0,0.0,120.0,0.0,0.0
2409,76.0,0.0,120.0,1.0,0.0
2410,73.0,25.0,120.0,2.0,0.0
2411,71.0,0.0,240.0,2.0,0.0
2412,75.0,110.0,120.0,1.0,0.0
2413,75.0,15.0,15.0,0.0,0.0
2414,66.0,0.0,600.0,3.0,0.0
2415,77.0,15.0,15.0,0.0,0.0
2416,75.0,15.0,15.0,0.0,0.0
2417,77.0,15.0,15.0,0.0,0.0
2418,75.0,15.0,15.0,0.0,0.0
2419,77.0,15.0,15.0,0.0,0.0
2420,73.0,15.0,15.0,0.0,0.0
2421,75.0,0.0,15.0,0.0,0.0
2422,73.0,0.0,120.0,0.0,0.0
2423,64.0,0.0,120.0,4.0,0.0
2424,73.0,10.0,120.0,1.0,0.0
2425,64.0,0.0,120.0,5.0,0.0
2426,83.0,110.0,120.0,5.0,0.0
2427,76.0,0.0,120.0,5.0,0.0
2428,78.0,0.0,120.0,5.0,0.0
2429,63.0,10.0,120.0,4.0,0.0
2430,83.0,0.0,120.0,5.0,0.0
2431,71.0,0.0,240.0,0.0,0.0
2432,75.0,52.0,120.0,5.0,0.0
2433,63.0,0.0,120.0,5.0,0.0
2434,66.0,0.0,240.0,2.0,0.0
2435,78.0,0.0,120.0,5.0,0.0
2436,71.0,2.0,240.0,1.0,0.0
2437,76.0,0.0,60.0,5.0,0.0
2438,83.0,50.0,60.0,5.0,0.0
2439,64.0,8.0,60.0,4.0,0.0
2440,64.0,0.0,60.0,5.0,0.0
2441,78.0,0.0,60.0,5.0,0.0
2442,82.0,110.0,60.0,5.0,0.0
2443,66.0,0.0,60.0,5.0,0.0
2444,78.0,0.0,60.0,5.0,0.0
2445,85.0,0.0,60.0,5.0,0.0
2446,66.0,8.0,60.0,4.0,0.0
2447,87.0,0.0,480.0,0.0,0.0
2448,59.0,10.0,120.0,4.0,0.0
2449,71.0,10.0,240.0,2.0,0.0
2450,75.0,110.0,120.0,5.0,0.0
2451,71.0,0.0,120.0,5.0,0.0
2452,59.0,0.0,120.0,5.0,0.0
2453,87.0,10.0,480.0,1.0,0.0
2454,78.0,0.0,120.0,5.0,0.0
2455,73.0,110.0,120.0,5.0,0.0
2456,76.0,0.0,120.0,5.0,0.0
2457,70.0,0.0,120.0,5.0,0.0
2458,63.0,0.0,120.0,3.0,0.0
2459,58.0,0.0,120.0,4.0,0.0
2460,58.0,0.0,120.0,5.0,0.0
2461,56.0,0.0,120.0,5.0,0.0
2462,83.0,110.0,120.0,2.0,0.0
2463,68.0,0.0,120.0,5.0,0.0
2464,75.0,0.0,120.0,5.0,0.0
2465,56.0,10.0,120.0,4.0,0.0
2466,71.0,0.0,120.0,5.0,0.0
2467,65.0,0.0,120.0,3.0,0.0
2468,77.0,0.0,120.0,5.0,0.0
2469,66.0,0.0,120.0,3.0,0.0
2470,54.0,0.0,120.0,5.0,0.0
2471,73.0,0.0,120.0,5.0,0.0
2472,70.0,0.0,120.0,5.0,0.0
2473,66.0,110.0,120.0,5.0,0.0
2474,54.0,0.0,120.0,4.0,0.0
2475,82.0,0.0,120.0,2.0,0.0
2476,65.0,0.0,240.0,5.0,0.0
2477,74.0,0.0,240.0,5.0,0.0
2478,53.0,120.0,240.0,5.0,0.0
2479,68.0,0.0,240.0,5.0,0.0
2480,86.0,110.0,120.0,0.0,0.0
2481,68.0,10.0,120.0,3.0,0.0
2482,53.0,10.0,240.0,4.0,0.0
2483,86.0,0.0,120.0,1.0,0.0
2484,80.0,0.0,120.0,2.0,0.0
2485,78.0,0.0,120.0,2.0,0.0
2486,70.0,0.0,120.0,3.0,0.0
2487,87.0,0.0,120.0,1.0,0.0
2488,87.0,0.0,120.0,0.0,0.0
2489,80.0,0.0,240.0,5.0,0.0
2490,68.0,110.0,480.0,5.0,0.0
2491,83.0,0.0,240.0,5.0,0.0
2492,68.0,0.0,480.0,4.0,0.0
2493,89.0,0.0,120.0,1.0,0.0
2494,89.0,120.0,240.0,5.0,0.0
2495,71.0,0.0,240.0,3.0,0.0
2496,89.0,0.0,120.0,0.0,0.0
2497,80.0,110.0,120.0,2.0,0.0
2498,86.0,10.0,120.0,1.0,0.0
2499,86.0,0.0,120.0,0.0,0.0
2500,77.0,0.0,120.0,2.0,0.0
2501,74.0,110.0,120.0,2.0,0.0
2502,80.0,0.0,240.0,5.0,0.0
2503,82.0,0.0,240.0,5.0,0.0
2504,86.0,0.0,240.0,5.0,0.0
2505,89.0,0.0,240.0,5.0,0.0
2506,65.0,0.0,240.0,3.0,0.0
2507,82.0,0.0,240.0,1.0,0.0
2508,82.0,10.0,240.0,0.0,0.0
2509,77.0,0.0,120.0,2.0,0.0
2510,67.0,10.0,120.0,4.0,0.0
2511,87.0,0.0,240.0,0.0,0.0
2512,67.0,0.0,120.0,5.0,0.0
2513,79.0,0.0,120.0,5.0,0.0
2514,87.0,0.0,240.0,1.0,0.0
2515,70.0,0.0,600.0,3.0,0.0
2516,75.0,0.0,120.0,2.0,0.0
2517,87.0,110.0,120.0,5.0,0.0
2518,82.0,0.0,120.0,5.0,0.0
2519,68.0,0.0,120.0,5.0,0.0
2520,87.0,0.0,120.0,5.0,0.0
2521,80.0,0.0,120.0,5.0,0.0
2522,83.0,110.0,120.0,5.0,0.0
2523,77.0,0.0,120.0,2.0,0.0
2524,68.0,10.0,120.0,4.0,0.0
2525,85.0,0.0,360.0,1.0,0.0
2526,85.0,0.0,360.0,0.0,0.0
2527,79.0,62.0,360.0,2.0,0.0
2528,70.0,10.0,120.0,4.0,0.0
2529,85.0,0.0,120.0,5.0,0.0
2530,70.0,0.0,120.0,5.0,0.0
2531,82.0,110.0,120.0,5.0,0.0
2532,91.0,0.0,120.0,5.0,0.0
2533,67.0,110.0,120.0,5.0,0.0
2534,82.0,0.0,120.0,5.0,0.0
2535,67.0,10.0,120.0,4.0,0.0
2536,79.0,0.0,120.0,5.0,0.0
2537,85.0,0.0,120.0,5.0,0.0
2538,75.0,0.0,240.0,5.0,0.0
2539,79.0,0.0,240.0,5.0,0.0
2540,63.0,0.0,240.0,5.0,0.0
2541,82.0,120.0,240.0,5.0,0.0
2542,63.0,2.0,240.0,4.0,0.0
2543,85.0,0.0,240.0,5.0,0.0
2544,83.0,8.0,60.0,1.0,0.0
2545,80.0,50.0,60.0,2.0,0.0
2546,68.0,0.0,60.0,3.0,0.0
2547,83.0,0.0,60.0,0.0,0.0
2548,82.0,8.0,60.0,0.0,0.0
2549,82.0,0.0,60.0,1.0,0.0
2550,67.0,0.0,60.0,3.0,0.0
2551,82.0,0.0,60.0,2.0,0.0
2552,83.0,0.0,120.0,1.0,0.0
2553,87.0,0.0,240.0,5.0,0.0
2554,83.0,120.0,240.0,5.0,0.0
2555,80.0,0.0,240.0,5.0,0.0
2556,68.0,10.0,240.0,3.0,0.0
2557,83.0,110.0,120.0,0.0,0.0
2558,68.0,0.0,240.0,5.0,0.0
2559,68.0,0.0,240.0,4.0,0.0
2560,75.0,10.0,600.0,2.0,0.0
2561,87.0,0.0,120.0,0.0,0.0
2562,87.0,0.0,120.0,1.0,0.0
2563,82.0,110.0,120.0,1.0,0.0
2564,66.0,0.0,360.0,5.0,0.0
2565,87.0,0.0,240.0,5.0,0.0
2566,78.0,0.0,240.0,5.0,0.0
2567,70.0,10.0,240.0,3.0,0.0
2568,82.0,0.0,120.0,0.0,0.0
2569,82.0,110.0,240.0,5.0,0.0
2570,66.0,0.0,360.0,4.0,0.0
2571,87.0,0.0,120.0,1.0,0.0
2572,87.0,0.0,120.0,0.0,0.0
2573,80.0,0.0,120.0,5.0,0.0
2574,87.0,52.0,120.0,5.0,0.0
2575,78.0,0.0,120.0,5.0,0.0
2576,83.0,0.0,120.0,5.0,0.0
2577,80.0,0.0,600.0,0.0,0.0
2578,80.0,10.0,600.0,1.0,0.0
2579,71.0,0.0,600.0,3.0,0.0
2580,80.0,2.0,120.0,2.0,0.0
2581,80.0,0.0,60.0,5.0,0.0
2582,83.0,0.0,60.0,5.0,0.0
2583,65.0,50.0,60.0,5.0,0.0
2584,65.0,8.0,60.0,4.0,0.0
2585,77.0,0.0,60.0,5.0,0.0
2586,82.0,0.0,60.0,5.0,0.0
2587,63.0,110.0,60.0,5.0,0.0
2588,78.0,0.0,60.0,5.0,0.0
2589,63.0,8.0,60.0,4.0,0.0
2590,75.0,0.0,60.0,5.0,0.0
2591,74.0,0.0,120.0,2.0,0.0
2592,77.0,0.0,120.0,5.0,0.0
2593,80.0,0.0,120.0,5.0,0.0
2594,65.0,110.0,120.0,5.0,0.0
2595,86.0,0.0,120.0,5.0,0.0
2596,65.0,10.0,120.0,4.0,0.0
2597,75.0,0.0,120.0,2.0,0.0
2598,87.0,0.0,120.0,5.0,0.0
2599,68.0,110.0,120.0,5.0,0.0
2600,80.0,0.0,120.0,5.0,0.0
2601,83.0,0.0,120.0,5.0,0.0
2602,68.0,10.0,120.0,4.0,0.0
2603,63.0,0.0,120.0,4.0,0.0
2604,77.0,10.0,360.0,2.0,0.0
2605,83.0,110.0,120.0,5.0,0.0
2606,75.0,0.0,120.0,5.0,0.0
2607,80.0,0.0,120.0,5.0,0.0
2608,63.0,0.0,120.0,5.0,0.0
2609,71.0,10.0,120.0,1.0,0.0
2610,68.0,0.0,120.0,4.0,0.0
2611,68.0,0.0,120.0,3.0,0.0
2612,87.0,0.0,120.0,5.0,0.0
2613,83.0,110.0,120.0,5.0,0.0
2614,80.0,0.0,120.0,5.0,0.0
2615,68.0,0.0,120.0,5.0,0.0
2616,71.0,0.0,120.0,0.0,0.0
2617,82.0,0.0,600.0,5.0,0.0
2618,62.0,10.0,600.0,4.0,0.0
2619,77.0,0.0,600.0,5.0,0.0
2620,62.0,0.0,600.0,5.0,0.0
2621,74.0,0.0,600.0,5.0,0.0
2622,70.0,0.0,120.0,0.0,0.0
2623,80.0,110.0,600.0,5.0,0.0
2624,70.0,110.0,120.0,1.0,0.0
2625,65.0,0.0,240.0,3.0,0.0
2626,80.0,0.0,120.0,0.0,0.0
2627,71.0,110.0,120.0,2.0,0.0
2628,80.0,10.0,120.0,1.0,0.0
2629,66.0,10.0,120.0,3.0,0.0
2630,78.0,0.0,120.0,0.0,0.0
2631,78.0,110.0,120.0,1.0,0.0
2632,70.0,0.0,120.0,2.0,0.0
2633,77.0,120.0,120.0,1.0,0.0
2634,68.0,0.0,120.0,3.0,0.0
2635,68.0,0.0,120.0,2.0,0.0
2636,77.0,0.0,120.0,0.0,0.0
2637,62.0,0.0,240.0,3.0,0.0
2638,82.0,0.0,120.0,0.0,0.0
2639,82.0,0.0,120.0,1.0,0.0
2640,77.0,0.0,240.0,2.0,0.0
2641,65.0,0.0,120.0,5.0,0.0
2642,74.0,0.0,120.0,5.0,0.0
2643,68.0,0.0,120.0,5.0,0.0
2644,80.0,10.0,120.0,0.0,0.0
2645,80.0,0.0,120.0,1.0,0.0
2646,53.0,0.0,120.0,4.0,0.0
2647,53.0,110.0,120.0,5.0,0.0
2648,70.0,10.0,240.0,2.0,0.0
2649,78.0,0.0,120.0,1.0,0.0
2650,63.0,0.0,120.0,3.0,0.0
2651,51.0,10.0,120.0,4.0,0.0
2652,78.0,0.0,120.0,0.0,0.0
2653,66.0,0.0,120.0,5.0,0.0
2654,70.0,0.0,120.0,5.0,0.0
2655,51.0,110.0,120.0,5.0,0.0
2656,63.0,0.0,120.0,5.0,0.0
2657,61.0,110.0,120.0,5.0,0.0
2658,77.0,0.0,120.0,5.0,0.0
2659,73.0,0.0,120.0,5.0,0.0
2660,82.0,0.0,120.0,5.0,0.0
2661,77.0,0.0,120.0,1.0,0.0
2662,65.0,0.0,120.0,3.0,0.0
2663,61.0,0.0,120.0,4.0,0.0
2664,77.0,0.0,120.0,0.0,0.0
2665,66.0,10.0,120.0,3.0,0.0
2666,59.0,0.0,120.0,4.0,0.0
2667,78.0,0.0,120.0,5.0,0.0
2668,75.0,0.0,120.0,0.0,0.0
2669,75.0,110.0,120.0,5.0,0.0
2670,59.0,0.0,120.0,5.0,0.0
2671,71.0,0.0,120.0,5.0,0.0
2672,75.0,0.0,120.0,1.0,0.0
2673,63.0,0.0,120.0,2.0,0.0
2674,74.0,10.0,120.0,1.0,0.0
2675,58.0,0.0,120.0,4.0,0.0
2676,77.0,0.0,120.0,5.0,0.0
2677,58.0,0.0,120.0,5.0,0.0
2678,70.0,0.0,120.0,5.0,0.0
2679,74.0,0.0,120.0,5.0,0.0
2680,80.0,110.0,120.0,5.0,0.0
2681,74.0,0.0,120.0,0.0,0.0
2682,68.0,0.0,120.0,3.0,0.0
2683,65.0,0.0,120.0,2.0,0.0
2684,63.0,10.0,120.0,4.0,0.0
2685,75.0,0.0,120.0,5.0,0.0
2686,78.0,0.0,120.0,5.0,0.0
2687,66.0,0.0,360.0,3.0,0.0
2688,66.0,0.0,120.0,2.0,0.0
2689,75.0,0.0,240.0,1.0,0.0
2690,82.0,0.0,120.0,5.0,0.0
2691,75.0,0.0,240.0,0.0,0.0
2692,63.0,110.0,120.0,5.0,0.0
2693,70.0,0.0,120.0,2.0,0.0
2694,73.0,110.0,120.0,5.0,0.0
2695,80.0,0.0,120.0,5.0,0.0
2696,61.0,10.0,120.0,4.0,0.0
2697,61.0,0.0,120.0,5.0,0.0
2698,77.0,0.0,120.0,5.0,0.0
2699,59.0,0.0,120.0,4.0,0.0
2700,59.0,0.0,120.0,5.0,0.0
2701,71.0,0.0,120.0,5.0,0.0
2702,68.0,10.0,120.0,2.0,0.0
2703,75.0,110.0,120.0,5.0,0.0
2704,78.0,0.0,120.0,5.0,0.0
2705,56.0,15.0,120.0,5.0,0.0
2706,56.0,10.0,120.0,4.0,0.0
2707,71.0,0.0,120.0,5.0,0.0
2708,75.0,0.0,120.0,5.0,0.0
2709,68.0,0.0,120.0,5.0,0.0
2710,77.0,0.0,120.0,0.0,0.0
2711,71.0,0.0,120.0,2.0,0.0
2712,68.0,0.0,120.0,3.0,0.0
2713,77.0,0.0,120.0,5.0,0.0
2714,77.0,0.0,120.0,1.0,0.0
2715,62.0,0.0,240.0,3.0,0.0
2716,70.0,0.0,240.0,2.0,0.0
2717,77.0,15.0,15.0,1.0,0.0
2718,74.0,0.0,240.0,5.0,0.0
2719,58.0,10.0,240.0,4.0,0.0
2720,70.0,0.0,240.0,5.0,0.0
2721,77.0,0.0,15.0,0.0,0.0
2722,77.0,0.0,240.0,5.0,0.0
2723,58.0,15.0,240.0,5.0,0.0
2724,78.0,15.0,15.0,1.0,0.0
2725,78.0,0.0,15.0,0.0,0.0
2726,77.0,0.0,15.0,1.0,0.0
2727,77.0,15.0,15.0,0.0,0.0
2728,78.0,0.0,15.0,1.0,0.0
2729,78.0,15.0,15.0,0.0,0.0
2730,77.0,0.0,15.0,1.0,0.0
2731,77.0,15.0,15.0,0.0,0.0
2732,78.0,15.0,15.0,1.0,0.0
2733,78.0,0.0,15.0,0.0,0.0
2734,77.0,0.0,15.0,0.0,0.0
2735,77.0,15.0,15.0,1.0,0.0
2736,78.0,15.0,15.0,1.0,0.0
2737,78.0,0.0,15.0,0.0,0.0
2738,77.0,15.0,15.0,1.0,0.0
2739,77.0,0.0,15.0,0.0,0.0
2740,78.0,15.0,15.0,0.0,0.0
2741,78.0,0.0,15.0,1.0,0.0
2742,77.0,15.0,15.0,0.0,0.0
2743,77.0,0.0,15.0,1.0,0.0
2744,78.0,0.0,15.0,1.0,0.0
2745,78.0,15.0,15.0,0.0,0.0
2746,77.0,0.0,15.0,1.0,0.0
2747,77.0,15.0,15.0,0.0,0.0
2748,78.0,15.0,15.0,1.0,0.0
2749,78.0,0.0,15.0,0.0,0.0
2750,77.0,5.0,15.0,0.0,0.0
2751,77.0,0.0,15.0,1.0,0.0
2752,78.0,0.0,15.0,0.0,0.0
2753,78.0,0.0,15.0,1.0,0.0
2754,65.0,0.0,240.0,5.0,0.0
2755,77.0,15.0,15.0,1.0,0.0
2756,70.0,0.0,240.0,2.0,0.0
2757,62.0,10.0,240.0,3.0,0.0
2758,77.0,0.0,15.0,0.0,0.0
2759,46.0,0.0,240.0,4.0,0.0
2760,46.0,470.0,240.0,5.0,0.0
2761,58.0,0.0,240.0,5.0,0.0
2762,62.0,0.0,240.0,5.0,0.0
2763,78.0,15.0,15.0,1.0,0.0
2764,78.0,0.0,15.0,0.0,0.0
2765,77.0,15.0,15.0,1.0,0.0
2766,77.0,0.0,15.0,0.0,0.0
2767,78.0,15.0,15.0,0.0,0.0
2768,78.0,0.0,15.0,1.0,0.0
2769,77.0,0.0,15.0,0.0,0.0
2770,77.0,15.0,15.0,1.0,0.0
2771,78.0,0.0,15.0,1.0,0.0
2772,78.0,15.0,15.0,0.0,0.0
2773,75.0,15.0,15.0,1.0,0.0
2774,75.0,0.0,15.0,0.0,0.0
2775,77.0,110.0,15.0,1.0,0.0
2776,77.0,0.0,15.0,0.0,0.0
2777,75.0,0.0,120.0,1.0,0.0
2778,75.0,0.0,120.0,0.0,0.0
2779,51.0,0.0,480.0,5.0,0.0
2780,66.0,0.0,480.0,5.0,0.0
2781,70.0,961.0,480.0,5.0,0.0
2782,63.0,0.0,480.0,5.0,0.0
2783,51.0,0.0,480.0,4.0,0.0
2784,66.0,0.0,480.0,3.0,0.0
2785,75.0,0.0,480.0,0.0,0.0
2786,75.0,0.0,480.0,1.0,0.0
2787,70.0,10.0,480.0,2.0,0.0
