,note,step,duration,channel,velocity
0,69.0,512.0,510.0,0.0,0.0
1,65.0,0.0,510.0,1.0,0.0
2,60.0,0.0,1020.0,2.0,0.0
3,41.0,0.0,1020.0,3.0,0.0
4,64.0,0.0,510.0,1.0,0.0
5,67.0,512.0,510.0,0.0,0.0
6,62.0,0.0,1020.0,1.0,0.0
7,46.0,0.0,1020.0,3.0,0.0
8,60.0,512.0,510.0,2.0,0.0
9,65.0,512.0,1020.0,0.0,0.0
10,58.0,0.0,510.0,2.0,0.0
11,58.0,0.0,1020.0,2.0,0.0
12,43.0,512.0,1020.0,3.0,0.0
13,67.0,0.0,1020.0,0.0,0.0
14,62.0,512.0,510.0,1.0,0.0
15,64.0,0.0,510.0,1.0,0.0
16,69.0,512.0,510.0,0.0,0.0
17,50.0,0.0,1020.0,3.0,0.0
18,65.0,0.0,1020.0,1.0,0.0
19,70.0,0.0,510.0,0.0,0.0
20,72.0,512.0,1020.0,0.0,0.0
21,45.0,0.0,1020.0,3.0,0.0
22,57.0,1024.0,15.0,2.0,0.0
23,64.0,0.0,1020.0,1.0,0.0
24,65.0,0.0,1020.0,1.0,0.0
25,50.0,0.0,1020.0,3.0,0.0
26,55.0,512.0,510.0,2.0,0.0
27,53.0,1024.0,510.0,2.0,0.0
28,52.0,1024.0,1020.0,3.0,0.0
29,67.0,0.0,1020.0,1.0,0.0
30,70.0,0.0,15.0,0.0,0.0
31,60.0,0.0,15.0,2.0,0.0
32,65.0,0.0,1020.0,1.0,0.0
33,53.0,0.0,1020.0,3.0,0.0
34,69.0,0.0,1020.0,0.0,0.0
35,55.0,512.0,510.0,2.0,0.0
36,60.0,0.0,1020.0,1.0,0.0
37,72.0,0.0,1020.0,0.0,0.0
38,52.0,0.0,1020.0,3.0,0.0
39,57.0,512.0,510.0,2.0,0.0
40,70.0,1024.0,1020.0,0.0,0.0
41,58.0,0.0,1020.0,2.0,0.0
42,62.0,512.0,510.0,1.0,0.0
43,50.0,0.0,1020.0,3.0,0.0
44,64.0,0.0,510.0,1.0,0.0
45,60.0,1024.0,1020.0,2.0,0.0
46,48.0,0.0,1020.0,3.0,0.0
47,69.0,0.0,1020.0,0.0,0.0
48,65.0,0.0,15.0,1.0,0.0
49,46.0,1024.0,1020.0,3.0,0.0
50,62.0,0.0,1020.0,2.0,0.0
51,67.0,0.0,15.0,0.0,0.0
52,64.0,0.0,1020.0,1.0,0.0
53,60.0,3072.0,1020.0,2.0,0.0
54,48.0,0.0,1020.0,3.0,0.0
55,65.0,0.0,3060.0,1.0,0.0
56,60.0,0.0,3060.0,2.0,0.0
57,69.0,0.0,15.0,0.0,0.0
58,41.0,512.0,15.0,3.0,0.0
59,65.0,512.0,510.0,1.0,0.0
60,67.0,0.0,510.0,0.0,0.0
61,64.0,0.0,510.0,1.0,0.0
62,65.0,0.0,1020.0,0.0,0.0
63,46.0,0.0,1020.0,3.0,0.0
64,60.0,512.0,15.0,2.0,0.0
65,58.0,0.0,510.0,2.0,0.0
66,62.0,512.0,15.0,1.0,0.0
67,67.0,0.0,1020.0,0.0,0.0
68,43.0,0.0,1020.0,3.0,0.0
69,58.0,512.0,1020.0,2.0,0.0
70,64.0,0.0,510.0,1.0,0.0
71,50.0,1024.0,1020.0,3.0,0.0
72,65.0,0.0,1020.0,1.0,0.0
73,69.0,512.0,510.0,0.0,0.0
74,70.0,0.0,510.0,0.0,0.0
75,72.0,512.0,1020.0,0.0,0.0
76,57.0,0.0,15.0,2.0,0.0
77,64.0,0.0,1020.0,1.0,0.0
78,45.0,0.0,1020.0,3.0,0.0
79,55.0,512.0,510.0,2.0,0.0
80,70.0,0.0,1020.0,0.0,0.0
81,65.0,0.0,1020.0,1.0,0.0
82,50.0,1024.0,1020.0,3.0,0.0
83,53.0,0.0,510.0,2.0,0.0
84,67.0,0.0,1020.0,1.0,0.0
85,70.0,0.0,1020.0,0.0,0.0
86,52.0,1024.0,1020.0,3.0,0.0
87,60.0,0.0,15.0,2.0,0.0
88,65.0,0.0,1020.0,1.0,0.0
89,53.0,512.0,1020.0,3.0,0.0
90,69.0,0.0,1020.0,0.0,0.0
91,60.0,0.0,1020.0,1.0,0.0
92,52.0,0.0,1020.0,3.0,0.0
93,55.0,512.0,510.0,2.0,0.0
94,72.0,0.0,1020.0,0.0,0.0
95,57.0,512.0,510.0,2.0,0.0
96,70.0,0.0,1020.0,0.0,0.0
97,50.0,1024.0,1020.0,3.0,0.0
98,58.0,0.0,1020.0,2.0,0.0
99,62.0,512.0,510.0,1.0,0.0
100,64.0,0.0,510.0,1.0,0.0
101,60.0,0.0,1020.0,2.0,0.0
102,65.0,0.0,1020.0,1.0,0.0
103,69.0,0.0,1020.0,0.0,0.0
104,48.0,1024.0,1020.0,3.0,0.0
105,62.0,0.0,1020.0,2.0,0.0
106,46.0,0.0,1020.0,3.0,0.0
107,65.0,0.0,1020.0,1.0,0.0
108,67.0,1024.0,15.0,0.0,0.0
109,64.0,0.0,1020.0,1.0,0.0
110,48.0,0.0,1020.0,3.0,0.0
111,60.0,0.0,15.0,2.0,0.0
112,65.0,0.0,3060.0,1.0,0.0
113,41.0,0.0,3060.0,3.0,0.0
114,69.0,1024.0,3060.0,0.0,0.0
115,67.0,0.0,1020.0,0.0,0.0
116,65.0,0.0,1020.0,1.0,0.0
117,47.0,512.0,1020.0,3.0,0.0
118,62.0,0.0,1020.0,2.0,0.0
119,64.0,512.0,510.0,1.0,0.0
120,67.0,0.0,1020.0,0.0,0.0
121,48.0,0.0,510.0,3.0,0.0
122,50.0,0.0,510.0,3.0,0.0
123,65.0,512.0,510.0,1.0,0.0
124,67.0,0.0,1020.0,0.0,0.0
125,60.0,0.0,15.0,2.0,0.0
126,52.0,512.0,510.0,3.0,0.0
127,67.0,0.0,1020.0,1.0,0.0
128,48.0,512.0,510.0,3.0,0.0
129,53.0,512.0,510.0,3.0,0.0
130,67.0,0.0,510.0,1.0,0.0
131,60.0,0.0,15.0,2.0,0.0
132,69.0,0.0,1020.0,0.0,0.0
133,52.0,512.0,510.0,3.0,0.0
134,50.0,512.0,510.0,3.0,0.0
135,67.0,0.0,1020.0,0.0,0.0
136,65.0,0.0,15.0,1.0,0.0
137,58.0,512.0,1020.0,2.0,0.0
138,64.0,0.0,510.0,1.0,0.0
139,49.0,0.0,510.0,3.0,0.0
140,62.0,0.0,510.0,1.0,0.0
141,65.0,512.0,510.0,0.0,0.0
142,50.0,1024.0,1020.0,3.0,0.0
143,57.0,0.0,1020.0,2.0,0.0
144,61.0,0.0,510.0,1.0,0.0
145,64.0,0.0,510.0,0.0,0.0
146,59.0,0.0,1020.0,2.0,0.0
147,62.0,1024.0,1020.0,1.0,0.0
148,44.0,0.0,1020.0,3.0,0.0
149,65.0,0.0,1020.0,0.0,0.0
150,52.0,0.0,1020.0,2.0,0.0
151,64.0,0.0,1020.0,0.0,0.0
152,45.0,0.0,1020.0,3.0,0.0
153,64.0,0.0,1020.0,0.0,0.0
154,61.0,1024.0,15.0,1.0,0.0
155,45.0,1024.0,1020.0,3.0,0.0
156,65.0,0.0,1020.0,0.0,0.0
157,57.0,0.0,15.0,2.0,0.0
158,62.0,512.0,1020.0,1.0,0.0
159,50.0,0.0,1020.0,3.0,0.0
160,67.0,512.0,1020.0,0.0,0.0
161,52.0,0.0,1020.0,3.0,0.0
162,55.0,0.0,1020.0,2.0,0.0
163,60.0,512.0,510.0,1.0,0.0
164,58.0,0.0,510.0,1.0,0.0
165,53.0,0.0,1020.0,3.0,0.0
166,53.0,0.0,1020.0,2.0,0.0
167,57.0,512.0,510.0,1.0,0.0
168,69.0,512.0,1020.0,0.0,0.0
169,58.0,0.0,510.0,1.0,0.0
170,60.0,0.0,1020.0,1.0,0.0
171,55.0,0.0,1020.0,2.0,0.0
172,52.0,512.0,1020.0,3.0,0.0
173,67.0,512.0,510.0,0.0,0.0
174,69.0,0.0,510.0,0.0,0.0
175,53.0,0.0,510.0,2.0,0.0
176,62.0,512.0,510.0,1.0,0.0
177,70.0,512.0,1020.0,0.0,0.0
178,50.0,0.0,1020.0,3.0,0.0
179,55.0,0.0,510.0,2.0,0.0
180,64.0,0.0,510.0,1.0,0.0
181,48.0,512.0,510.0,3.0,0.0
182,65.0,0.0,1020.0,1.0,0.0
183,69.0,0.0,510.0,0.0,0.0
184,57.0,0.0,510.0,2.0,0.0
185,53.0,1024.0,510.0,2.0,0.0
186,67.0,0.0,510.0,0.0,0.0
187,46.0,0.0,510.0,3.0,0.0
188,60.0,512.0,1530.0,2.0,0.0
189,67.0,0.0,2040.0,0.0,0.0
190,48.0,0.0,2040.0,3.0,0.0
191,65.0,512.0,1020.0,1.0,0.0
192,64.0,0.0,1020.0,1.0,0.0
193,58.0,4096.0,510.0,2.0,0.0
194,57.0,0.0,4110.0,2.0,0.0
195,60.0,1.0,4110.0,1.0,0.0
196,65.0,0.0,4110.0,0.0,0.0
197,41.0,0.0,4110.0,3.0,0.0
