,note,step,duration,channel,velocity
0,47.0,13.0,480.0,0.0,0.0
1,71.0,41.0,15.0,0.0,0.0
2,66.0,19.0,30.0,0.0,0.0
3,69.0,60.0,15.0,0.0,0.0
4,67.0,19.0,150.0,0.0,0.0
5,62.0,41.0,15.0,0.0,0.0
6,61.0,19.0,30.0,0.0,0.0
7,64.0,41.0,15.0,0.0,0.0
8,58.0,0.0,240.0,0.0,0.0
9,67.0,41.0,15.0,0.0,0.0
10,66.0,19.0,30.0,0.0,0.0
11,64.0,41.0,15.0,0.0,0.0
12,73.0,19.0,30.0,0.0,0.0
13,64.0,41.0,15.0,0.0,0.0
14,62.0,6.0,30.0,0.0,0.0
15,61.0,54.0,15.0,0.0,0.0
16,59.0,0.0,480.0,0.0,0.0
17,62.0,6.0,60.0,0.0,0.0
18,78.0,41.0,15.0,0.0,0.0
19,64.0,6.0,60.0,0.0,0.0
20,73.0,13.0,30.0,0.0,0.0
21,76.0,41.0,15.0,0.0,0.0
22,74.0,19.0,150.0,0.0,0.0
23,66.0,19.0,30.0,0.0,0.0
24,69.0,41.0,15.0,0.0,0.0
25,68.0,19.0,30.0,0.0,0.0
26,71.0,41.0,15.0,0.0,0.0
27,65.0,13.0,240.0,0.0,0.0
28,74.0,41.0,15.0,0.0,0.0
29,73.0,19.0,30.0,0.0,0.0
30,71.0,41.0,15.0,0.0,0.0
31,80.0,19.0,30.0,0.0,0.0
32,71.0,41.0,15.0,0.0,0.0
33,70.0,6.0,30.0,0.0,0.0
34,68.0,41.0,15.0,0.0,0.0
35,66.0,27.0,90.0,0.0,0.0
36,54.0,8.0,450.0,0.0,0.0
37,70.0,19.0,30.0,0.0,0.0
38,71.0,33.0,15.0,0.0,0.0
39,73.0,19.0,90.0,0.0,0.0
40,64.0,41.0,15.0,0.0,0.0
41,62.0,13.0,120.0,0.0,0.0
42,66.0,41.0,15.0,0.0,0.0
43,71.0,6.0,30.0,0.0,0.0
44,74.0,41.0,15.0,0.0,0.0
45,76.0,6.0,150.0,0.0,0.0
46,61.0,13.0,180.0,0.0,0.0
47,71.0,41.0,15.0,0.0,0.0
48,70.0,19.0,30.0,0.0,0.0
49,68.0,41.0,15.0,0.0,0.0
50,70.0,13.0,120.0,0.0,0.0
51,78.0,33.0,15.0,0.0,0.0
52,73.0,6.0,30.0,0.0,0.0
53,66.0,14.0,150.0,0.0,0.0
54,76.0,0.0,15.0,0.0,0.0
55,55.0,41.0,15.0,0.0,0.0
56,71.0,0.0,120.0,0.0,0.0
57,75.0,19.0,30.0,0.0,0.0
58,57.0,13.0,120.0,0.0,0.0
59,76.0,33.0,15.0,0.0,0.0
60,78.0,13.0,90.0,0.0,0.0
61,63.0,41.0,15.0,0.0,0.0
62,55.0,7.0,120.0,0.0,0.0
63,59.0,6.0,60.0,0.0,0.0
64,71.0,41.0,15.0,0.0,0.0
65,67.0,6.0,60.0,0.0,0.0
66,76.0,6.0,30.0,0.0,0.0
67,79.0,41.0,15.0,0.0,0.0
68,81.0,13.0,150.0,0.0,0.0
69,54.0,7.0,120.0,0.0,0.0
70,60.0,6.0,60.0,0.0,0.0
71,76.0,41.0,15.0,0.0,0.0
72,57.0,6.0,60.0,0.0,0.0
73,75.0,6.0,30.0,0.0,0.0
74,73.0,41.0,15.0,0.0,0.0
75,75.0,7.0,120.0,0.0,0.0
76,59.0,6.0,60.0,0.0,0.0
77,83.0,41.0,15.0,0.0,0.0
78,47.0,6.0,60.0,0.0,0.0
79,78.0,6.0,30.0,0.0,0.0
80,81.0,60.0,15.0,0.0,0.0
81,52.0,13.0,480.0,0.0,0.0
82,79.0,0.0,120.0,0.0,0.0
83,76.0,41.0,15.0,0.0,0.0
84,71.0,6.0,30.0,0.0,0.0
85,74.0,60.0,15.0,0.0,0.0
86,72.0,19.0,150.0,0.0,0.0
87,67.0,41.0,15.0,0.0,0.0
88,66.0,19.0,30.0,0.0,0.0
89,69.0,41.0,15.0,0.0,0.0
90,63.0,0.0,240.0,0.0,0.0
91,72.0,41.0,15.0,0.0,0.0
92,71.0,19.0,30.0,0.0,0.0
93,69.0,60.0,15.0,0.0,0.0
94,78.0,52.0,120.0,0.0,0.0
95,69.0,41.0,15.0,0.0,0.0
96,67.0,6.0,30.0,0.0,0.0
97,66.0,2.0,15.0,0.0,0.0
98,67.0,6.0,60.0,0.0,0.0
99,64.0,13.0,150.0,0.0,0.0
100,83.0,2.0,15.0,0.0,0.0
101,75.0,0.0,60.0,0.0,0.0
102,78.0,13.0,30.0,0.0,0.0
103,69.0,6.0,60.0,0.0,0.0
104,81.0,41.0,15.0,0.0,0.0
105,71.0,6.0,60.0,0.0,0.0
106,79.0,13.0,150.0,0.0,0.0
107,62.0,41.0,15.0,0.0,0.0
108,61.0,19.0,30.0,0.0,0.0
109,70.0,0.0,30.0,0.0,0.0
110,64.0,41.0,15.0,0.0,0.0
111,71.0,0.0,15.0,0.0,0.0
112,73.0,6.0,60.0,0.0,0.0
113,58.0,13.0,240.0,0.0,0.0
114,79.0,41.0,15.0,0.0,0.0
115,78.0,19.0,30.0,0.0,0.0
116,61.0,13.0,120.0,0.0,0.0
117,76.0,41.0,15.0,0.0,0.0
118,85.0,13.0,150.0,0.0,0.0
119,76.0,41.0,15.0,0.0,0.0
120,66.0,6.0,120.0,0.0,0.0
121,74.0,6.0,30.0,0.0,0.0
122,73.0,41.0,15.0,0.0,0.0
123,74.0,7.0,240.0,0.0,0.0
124,59.0,19.0,270.0,0.0,0.0
125,83.0,41.0,15.0,0.0,0.0
126,71.0,13.0,90.0,0.0,0.0
127,78.0,19.0,30.0,0.0,0.0
128,81.0,41.0,15.0,0.0,0.0
129,79.0,6.0,60.0,0.0,0.0
130,71.0,41.0,15.0,0.0,0.0
131,83.0,6.0,60.0,0.0,0.0
132,66.0,6.0,30.0,0.0,0.0
133,69.0,41.0,15.0,0.0,0.0
134,73.0,13.0,270.0,0.0,0.0
135,68.0,0.0,120.0,0.0,0.0
136,77.0,13.0,120.0,0.0,0.0
137,61.0,41.0,15.0,0.0,0.0
138,56.0,6.0,30.0,0.0,0.0
139,59.0,41.0,15.0,0.0,0.0
140,69.0,6.0,180.0,0.0,0.0
141,57.0,19.0,30.0,0.0,0.0
142,78.0,13.0,390.0,0.0,0.0
143,54.0,41.0,15.0,0.0,0.0
144,49.0,19.0,30.0,0.0,0.0
145,52.0,41.0,15.0,0.0,0.0
146,50.0,13.0,120.0,0.0,0.0
147,68.0,41.0,15.0,0.0,0.0
148,69.0,6.0,30.0,0.0,0.0
149,66.0,60.0,15.0,0.0,0.0
150,72.0,8.0,90.0,0.0,0.0
151,51.0,13.0,120.0,0.0,0.0
152,53.0,33.0,15.0,0.0,0.0
153,54.0,6.0,30.0,0.0,0.0
154,72.0,0.0,15.0,0.0,0.0
155,56.0,41.0,15.0,0.0,0.0
156,73.0,0.0,60.0,0.0,0.0
157,57.0,6.0,60.0,0.0,0.0
158,49.0,7.0,240.0,0.0,0.0
159,78.0,41.0,15.0,0.0,0.0
160,80.0,13.0,30.0,0.0,0.0
161,74.0,0.0,90.0,0.0,0.0
162,59.0,6.0,60.0,0.0,0.0
163,83.0,41.0,15.0,0.0,0.0
164,61.0,6.0,60.0,0.0,0.0
165,77.0,13.0,30.0,0.0,0.0
166,78.0,0.0,15.0,0.0,0.0
167,73.0,41.0,15.0,0.0,0.0
168,80.0,13.0,90.0,0.0,0.0
169,68.0,6.0,30.0,0.0,0.0
170,53.0,6.0,60.0,0.0,0.0
171,71.0,41.0,15.0,0.0,0.0
172,69.0,13.0,120.0,0.0,0.0
173,54.0,6.0,60.0,0.0,0.0
174,78.0,41.0,15.0,0.0,0.0
175,73.0,6.0,30.0,0.0,0.0
176,57.0,19.0,90.0,0.0,0.0
177,76.0,41.0,15.0,0.0,0.0
178,74.0,13.0,150.0,0.0,0.0
179,61.0,0.0,15.0,0.0,0.0
180,69.0,41.0,15.0,0.0,0.0
181,68.0,19.0,30.0,0.0,0.0
182,59.0,0.0,30.0,0.0,0.0
183,57.0,0.0,15.0,0.0,0.0
184,71.0,41.0,15.0,0.0,0.0
185,65.0,0.0,240.0,0.0,0.0
186,56.0,6.0,60.0,0.0,0.0
187,74.0,41.0,15.0,0.0,0.0
188,57.0,6.0,60.0,0.0,0.0
189,73.0,13.0,30.0,0.0,0.0
190,71.0,41.0,15.0,0.0,0.0
191,59.0,6.0,60.0,0.0,0.0
192,80.0,13.0,30.0,0.0,0.0
193,71.0,41.0,15.0,0.0,0.0
194,62.0,6.0,60.0,0.0,0.0
195,70.0,6.0,30.0,0.0,0.0
196,68.0,41.0,15.0,0.0,0.0
197,66.0,13.0,120.0,0.0,0.0
198,70.0,19.0,30.0,0.0,0.0
199,52.0,0.0,120.0,0.0,0.0
200,61.0,14.0,90.0,0.0,0.0
201,71.0,33.0,15.0,0.0,0.0
202,73.0,13.0,90.0,0.0,0.0
203,58.0,41.0,15.0,0.0,0.0
204,50.0,7.0,120.0,0.0,0.0
205,54.0,6.0,60.0,0.0,0.0
206,66.0,41.0,15.0,0.0,0.0
207,62.0,6.0,60.0,0.0,0.0
208,71.0,6.0,30.0,0.0,0.0
209,74.0,41.0,15.0,0.0,0.0
210,76.0,13.0,150.0,0.0,0.0
211,49.0,7.0,120.0,0.0,0.0
212,55.0,6.0,60.0,0.0,0.0
213,71.0,41.0,15.0,0.0,0.0
214,70.0,6.0,30.0,0.0,0.0
215,52.0,6.0,60.0,0.0,0.0
216,68.0,41.0,15.0,0.0,0.0
217,70.0,7.0,120.0,0.0,0.0
218,54.0,6.0,60.0,0.0,0.0
219,78.0,41.0,15.0,0.0,0.0
220,73.0,6.0,30.0,0.0,0.0
221,42.0,6.0,60.0,0.0,0.0
222,76.0,54.0,15.0,0.0,0.0
223,47.0,6.0,60.0,0.0,0.0
224,74.0,13.0,150.0,0.0,0.0
225,71.0,41.0,15.0,0.0,0.0
226,66.0,19.0,30.0,0.0,0.0
227,50.0,0.0,30.0,0.0,0.0
228,54.0,41.0,15.0,0.0,0.0
229,69.0,0.0,15.0,0.0,0.0
230,59.0,19.0,150.0,0.0,0.0
231,67.0,6.0,60.0,0.0,0.0
232,74.0,41.0,15.0,0.0,0.0
233,62.0,6.0,60.0,0.0,0.0
234,79.0,13.0,30.0,0.0,0.0
235,83.0,41.0,15.0,0.0,0.0
236,64.0,0.0,30.0,0.0,0.0
237,72.0,19.0,270.0,0.0,0.0
238,57.0,41.0,15.0,0.0,0.0
239,66.0,0.0,15.0,0.0,0.0
240,67.0,19.0,30.0,0.0,0.0
241,52.0,0.0,30.0,0.0,0.0
242,55.0,0.0,15.0,0.0,0.0
243,64.0,41.0,15.0,0.0,0.0
244,54.0,19.0,30.0,0.0,0.0
245,69.0,8.0,90.0,0.0,0.0
246,50.0,33.0,15.0,0.0,0.0
247,45.0,19.0,30.0,0.0,0.0
248,69.0,0.0,15.0,0.0,0.0
249,48.0,41.0,15.0,0.0,0.0
250,62.0,13.0,150.0,0.0,0.0
251,47.0,7.0,240.0,0.0,0.0
252,66.0,41.0,15.0,0.0,0.0
253,69.0,13.0,30.0,0.0,0.0
254,50.0,6.0,60.0,0.0,0.0
255,72.0,41.0,15.0,0.0,0.0
256,71.0,14.0,90.0,0.0,0.0
257,55.0,6.0,60.0,0.0,0.0
258,62.0,33.0,15.0,0.0,0.0
259,67.0,19.0,90.0,0.0,0.0
260,59.0,6.0,60.0,0.0,0.0
261,71.0,41.0,15.0,0.0,0.0
262,49.0,13.0,120.0,0.0,0.0
263,69.0,19.0,150.0,0.0,0.0
264,52.0,0.0,120.0,0.0,0.0
265,67.0,41.0,15.0,0.0,0.0
266,66.0,6.0,30.0,0.0,0.0
267,64.0,41.0,15.0,0.0,0.0
268,51.0,13.0,120.0,0.0,0.0
269,59.0,39.0,120.0,0.0,0.0
270,69.0,41.0,15.0,0.0,0.0
271,71.0,6.0,30.0,0.0,0.0
272,66.0,2.0,15.0,0.0,0.0
273,52.0,13.0,180.0,0.0,0.0
274,67.0,6.0,150.0,0.0,0.0
275,63.0,41.0,15.0,0.0,0.0
276,64.0,19.0,30.0,0.0,0.0
277,59.0,41.0,15.0,0.0,0.0
278,55.0,0.0,30.0,0.0,0.0
279,79.0,41.0,15.0,0.0,0.0
280,59.0,0.0,15.0,0.0,0.0
281,73.0,0.0,30.0,0.0,0.0
282,52.0,19.0,30.0,0.0,0.0
283,76.0,0.0,15.0,0.0,0.0
284,55.0,41.0,15.0,0.0,0.0
285,70.0,19.0,30.0,0.0,0.0
286,54.0,0.0,30.0,0.0,0.0
287,66.0,0.0,15.0,0.0,0.0
288,58.0,33.0,15.0,0.0,0.0
289,61.0,19.0,90.0,0.0,0.0
290,70.0,19.0,30.0,0.0,0.0
291,52.0,0.0,15.0,0.0,0.0
292,73.0,41.0,15.0,0.0,0.0
293,78.0,19.0,270.0,0.0,0.0
294,50.0,19.0,150.0,0.0,0.0
295,58.0,0.0,15.0,0.0,0.0
296,73.0,41.0,15.0,0.0,0.0
297,74.0,0.0,30.0,0.0,0.0
298,59.0,19.0,30.0,0.0,0.0
299,61.0,41.0,15.0,0.0,0.0
300,70.0,0.0,15.0,0.0,0.0
301,71.0,13.0,240.0,0.0,0.0
302,62.0,0.0,150.0,0.0,0.0
303,50.0,41.0,15.0,0.0,0.0
304,52.0,19.0,30.0,0.0,0.0
305,54.0,41.0,15.0,0.0,0.0
306,55.0,13.0,240.0,0.0,0.0
307,83.0,41.0,15.0,0.0,0.0
308,62.0,0.0,15.0,0.0,0.0
309,61.0,0.0,30.0,0.0,0.0
310,76.0,6.0,30.0,0.0,0.0
311,62.0,28.0,15.0,0.0,0.0
312,79.0,0.0,15.0,0.0,0.0
313,73.0,0.0,30.0,0.0,0.0
314,64.0,19.0,30.0,0.0,0.0
315,69.0,13.0,30.0,0.0,0.0
316,61.0,0.0,15.0,0.0,0.0
317,69.0,41.0,15.0,0.0,0.0
318,57.0,6.0,30.0,0.0,0.0
319,73.0,0.0,30.0,0.0,0.0
320,61.0,0.0,15.0,0.0,0.0
321,76.0,60.0,15.0,0.0,0.0
322,81.0,58.0,120.0,0.0,0.0
323,66.0,19.0,270.0,0.0,0.0
324,54.0,41.0,15.0,0.0,0.0
325,69.0,0.0,15.0,0.0,0.0
326,55.0,19.0,30.0,0.0,0.0
327,71.0,0.0,30.0,0.0,0.0
328,73.0,0.0,15.0,0.0,0.0
329,57.0,2.0,15.0,0.0,0.0
330,74.0,19.0,270.0,0.0,0.0
331,59.0,13.0,240.0,0.0,0.0
332,86.0,41.0,15.0,0.0,0.0
333,83.0,19.0,30.0,0.0,0.0
334,78.0,41.0,15.0,0.0,0.0
335,80.0,8.0,90.0,0.0,0.0
336,65.0,33.0,15.0,0.0,0.0
337,64.0,6.0,30.0,0.0,0.0
338,62.0,41.0,15.0,0.0,0.0
339,80.0,0.0,15.0,0.0,0.0
340,81.0,19.0,150.0,0.0,0.0
341,57.0,19.0,270.0,0.0,0.0
342,64.0,0.0,150.0,0.0,0.0
343,74.0,41.0,15.0,0.0,0.0
344,72.0,19.0,30.0,0.0,0.0
345,71.0,41.0,15.0,0.0,0.0
346,72.0,13.0,120.0,0.0,0.0
347,64.0,0.0,15.0,0.0,0.0
348,79.0,41.0,15.0,0.0,0.0
349,69.0,0.0,30.0,0.0,0.0
350,78.0,6.0,30.0,0.0,0.0
351,67.0,41.0,15.0,0.0,0.0
352,81.0,0.0,15.0,0.0,0.0
353,75.0,13.0,120.0,0.0,0.0
354,66.0,0.0,120.0,0.0,0.0
355,71.0,6.0,300.0,0.0,0.0
356,59.0,41.0,15.0,0.0,0.0
357,54.0,6.0,30.0,0.0,0.0
358,57.0,41.0,15.0,0.0,0.0
359,55.0,19.0,30.0,0.0,0.0
360,76.0,13.0,150.0,0.0,0.0
361,67.0,0.0,180.0,0.0,0.0
362,52.0,41.0,15.0,0.0,0.0
363,47.0,19.0,30.0,0.0,0.0
364,50.0,41.0,15.0,0.0,0.0
365,49.0,13.0,240.0,0.0,0.0
366,78.0,41.0,15.0,0.0,0.0
367,59.0,6.0,60.0,0.0,0.0
368,79.0,13.0,30.0,0.0,0.0
369,74.0,54.0,15.0,0.0,0.0
370,58.0,6.0,60.0,0.0,0.0
371,76.0,52.0,120.0,0.0,0.0
372,71.0,41.0,15.0,0.0,0.0
373,61.0,6.0,120.0,0.0,0.0
374,70.0,6.0,30.0,0.0,0.0
375,73.0,2.0,15.0,0.0,0.0
376,50.0,13.0,240.0,0.0,0.0
377,66.0,19.0,150.0,0.0,0.0
378,76.0,41.0,15.0,0.0,0.0
379,59.0,19.0,30.0,0.0,0.0
380,78.0,0.0,30.0,0.0,0.0
381,73.0,0.0,15.0,0.0,0.0
382,58.0,41.0,15.0,0.0,0.0
383,59.0,6.0,180.0,0.0,0.0
384,74.0,13.0,150.0,0.0,0.0
385,70.0,41.0,15.0,0.0,0.0
386,71.0,6.0,30.0,0.0,0.0
387,66.0,41.0,15.0,0.0,0.0
388,67.0,7.0,240.0,0.0,0.0
389,52.0,19.0,270.0,0.0,0.0
390,79.0,41.0,15.0,0.0,0.0
391,64.0,13.0,90.0,0.0,0.0
392,71.0,19.0,30.0,0.0,0.0
393,74.0,41.0,15.0,0.0,0.0
394,72.0,6.0,60.0,0.0,0.0
395,64.0,41.0,15.0,0.0,0.0
396,76.0,6.0,60.0,0.0,0.0
397,59.0,6.0,30.0,0.0,0.0
398,62.0,41.0,15.0,0.0,0.0
399,61.0,13.0,120.0,0.0,0.0
400,66.0,13.0,360.0,0.0,0.0
401,70.0,0.0,120.0,0.0,0.0
402,54.0,41.0,15.0,0.0,0.0
403,49.0,6.0,30.0,0.0,0.0
404,52.0,41.0,15.0,0.0,0.0
405,50.0,19.0,30.0,0.0,0.0
406,62.0,13.0,120.0,0.0,0.0
407,71.0,13.0,150.0,0.0,0.0
408,47.0,41.0,15.0,0.0,0.0
409,42.0,6.0,30.0,0.0,0.0
410,45.0,41.0,15.0,0.0,0.0
411,43.0,6.0,60.0,0.0,0.0
412,70.0,41.0,15.0,0.0,0.0
413,71.0,6.0,30.0,0.0,0.0
414,55.0,0.0,30.0,0.0,0.0
415,74.0,13.0,60.0,0.0,0.0
416,54.0,41.0,15.0,0.0,0.0
417,55.0,6.0,60.0,0.0,0.0
418,65.0,7.0,120.0,0.0,0.0
419,58.0,41.0,15.0,0.0,0.0
420,74.0,0.0,15.0,0.0,0.0
421,56.0,6.0,60.0,0.0,0.0
422,73.0,0.0,30.0,0.0,0.0
423,59.0,6.0,30.0,0.0,0.0
424,71.0,41.0,15.0,0.0,0.0
425,61.0,0.0,15.0,0.0,0.0
426,62.0,0.0,150.0,0.0,0.0
427,54.0,0.0,480.0,0.0,0.0
428,66.0,19.0,30.0,0.0,0.0
429,70.0,27.0,90.0,0.0,0.0
430,65.0,33.0,15.0,0.0,0.0
431,66.0,19.0,90.0,0.0,0.0
432,70.0,41.0,15.0,0.0,0.0
433,71.0,13.0,150.0,0.0,0.0
434,62.0,41.0,15.0,0.0,0.0
435,65.0,0.0,15.0,0.0,0.0
436,61.0,19.0,30.0,0.0,0.0
437,66.0,6.0,120.0,0.0,0.0
438,59.0,41.0,15.0,0.0,0.0
439,61.0,54.0,240.0,0.0,0.0
440,74.0,41.0,15.0,0.0,0.0
441,64.0,19.0,90.0,0.0,0.0
442,73.0,19.0,30.0,0.0,0.0
443,76.0,41.0,15.0,0.0,0.0
444,70.0,0.0,120.0,0.0,0.0
445,67.0,41.0,15.0,0.0,0.0
446,66.0,6.0,30.0,0.0,0.0
447,64.0,19.0,60.0,0.0,0.0
448,59.0,0.0,210.0,0.0,0.0
449,71.0,27.0,90.0,0.0,0.0
450,61.0,33.0,15.0,0.0,0.0
451,63.0,19.0,90.0,0.0,0.0
452,69.0,41.0,15.0,0.0,0.0
453,67.0,27.0,90.0,0.0,0.0
454,63.0,33.0,15.0,0.0,0.0
455,64.0,13.0,90.0,0.0,0.0
456,58.0,0.0,15.0,0.0,0.0
457,67.0,41.0,15.0,0.0,0.0
458,59.0,20.0,90.0,0.0,0.0
459,66.0,6.0,60.0,0.0,0.0
460,64.0,33.0,15.0,0.0,0.0
461,63.0,6.0,60.0,0.0,0.0
462,71.0,1.0,15.0,0.0,0.0
463,57.0,1.0,15.0,0.0,0.0
464,55.0,40.0,15.0,0.0,0.0
465,81.0,27.0,90.0,0.0,0.0
466,54.0,19.0,30.0,0.0,0.0
467,76.0,33.0,15.0,0.0,0.0
468,47.0,0.0,15.0,0.0,0.0
469,59.0,0.0,90.0,0.0,0.0
470,75.0,19.0,90.0,0.0,0.0
471,78.0,41.0,15.0,0.0,0.0
472,79.0,8.0,90.0,0.0,0.0
473,57.0,0.0,15.0,0.0,0.0
474,71.0,33.0,15.0,0.0,0.0
475,55.0,19.0,30.0,0.0,0.0
476,76.0,12.0,90.0,0.0,0.0
477,59.0,0.0,15.0,0.0,0.0
478,78.0,41.0,15.0,0.0,0.0
479,52.0,0.0,30.0,0.0,0.0
480,79.0,0.0,30.0,0.0,0.0
481,76.0,1.0,15.0,0.0,0.0
482,55.0,7.0,15.0,0.0,0.0
483,55.0,0.0,15.0,0.0,0.0
484,54.0,40.0,15.0,0.0,0.0
485,55.0,6.0,60.0,0.0,0.0
486,83.0,13.0,30.0,0.0,0.0
487,82.0,41.0,15.0,0.0,0.0
488,83.0,0.0,240.0,0.0,0.0
489,54.0,0.0,240.0,0.0,0.0
490,76.0,41.0,15.0,0.0,0.0
491,78.0,19.0,30.0,0.0,0.0
492,73.0,107.0,15.0,0.0,0.0
493,75.0,0.0,120.0,0.0,0.0
