,note,step,duration,channel,velocity
0,71.0,240.0,240.0,0.0,64.0
1,73.0,240.0,240.0,0.0,64.0
2,74.0,240.0,240.0,0.0,64.0
3,76.0,240.0,240.0,0.0,64.0
4,78.0,240.0,240.0,0.0,64.0
5,79.0,480.0,240.0,0.0,64.0
6,70.0,1680.0,480.0,0.0,64.0
7,78.0,240.0,720.0,0.0,64.0
8,77.0,240.0,240.0,0.0,64.0
9,73.0,240.0,240.0,0.0,64.0
10,75.0,1200.0,240.0,0.0,64.0
11,76.0,240.0,1200.0,0.0,64.0
12,75.0,240.0,240.0,0.0,64.0
13,71.0,240.0,240.0,0.0,64.0
14,73.0,1200.0,240.0,0.0,64.0
15,74.0,240.0,1200.0,0.0,64.0
16,73.0,240.0,240.0,0.0,64.0
17,72.0,240.0,240.0,0.0,64.0
18,73.0,240.0,240.0,0.0,64.0
19,72.0,240.0,240.0,0.0,64.0
20,71.0,240.0,240.0,0.0,64.0
21,70.0,240.0,240.0,0.0,64.0
22,71.0,240.0,240.0,0.0,64.0
23,70.0,240.0,240.0,0.0,64.0
24,68.0,240.0,240.0,0.0,64.0
25,66.0,240.0,240.0,0.0,64.0
26,67.0,240.0,240.0,0.0,64.0
27,66.0,240.0,240.0,0.0,64.0
28,70.0,240.0,240.0,0.0,64.0
29,73.0,240.0,240.0,0.0,64.0
30,76.0,240.0,240.0,0.0,64.0
31,74.0,240.0,240.0,0.0,64.0
32,78.0,240.0,240.0,0.0,64.0
33,82.0,240.0,240.0,0.0,64.0
34,83.0,240.0,240.0,0.0,64.0
35,73.0,240.0,240.0,0.0,64.0
36,79.0,240.0,240.0,0.0,64.0
37,78.0,240.0,240.0,0.0,64.0
38,76.0,120.0,240.0,0.0,64.0
39,74.0,120.0,120.0,0.0,64.0
40,73.0,120.0,120.0,0.0,64.0
41,71.0,120.0,120.0,0.0,64.0
42,70.0,120.0,120.0,0.0,64.0
43,47.0,120.0,240.0,0.0,64.0
44,71.0,120.0,120.0,0.0,64.0
45,83.0,0.0,120.0,0.0,64.0
46,81.0,120.0,120.0,0.0,64.0
47,49.0,120.0,240.0,0.0,64.0
48,79.0,0.0,120.0,0.0,64.0
49,78.0,120.0,120.0,0.0,64.0
50,50.0,0.0,240.0,0.0,64.0
51,76.0,120.0,120.0,0.0,64.0
52,52.0,0.0,240.0,0.0,64.0
53,74.0,120.0,120.0,0.0,64.0
54,73.0,240.0,120.0,0.0,64.0
55,54.0,240.0,240.0,0.0,64.0
56,71.0,480.0,480.0,0.0,64.0
57,55.0,0.0,240.0,0.0,64.0
58,46.0,0.0,480.0,0.0,64.0
59,73.0,240.0,240.0,0.0,64.0
60,74.0,240.0,240.0,0.0,64.0
61,76.0,240.0,240.0,0.0,64.0
62,78.0,240.0,240.0,0.0,64.0
63,81.0,240.0,240.0,0.0,64.0
64,54.0,120.0,720.0,0.0,64.0
65,80.0,240.0,240.0,0.0,64.0
66,83.0,240.0,240.0,0.0,64.0
67,81.0,0.0,240.0,0.0,64.0
68,80.0,120.0,120.0,0.0,64.0
69,53.0,0.0,240.0,0.0,64.0
70,78.0,240.0,120.0,0.0,64.0
71,49.0,240.0,240.0,0.0,64.0
72,77.0,480.0,480.0,0.0,64.0
73,51.0,0.0,240.0,0.0,64.0
74,52.0,0.0,1200.0,0.0,64.0
75,79.0,240.0,240.0,0.0,64.0
76,78.0,240.0,240.0,0.0,64.0
77,81.0,240.0,240.0,0.0,64.0
78,79.0,120.0,240.0,0.0,64.0
79,51.0,240.0,240.0,0.0,64.0
80,78.0,120.0,120.0,0.0,64.0
81,76.0,0.0,120.0,0.0,64.0
82,75.0,0.0,480.0,0.0,64.0
83,47.0,240.0,240.0,0.0,64.0
84,49.0,480.0,240.0,0.0,64.0
85,50.0,240.0,1200.0,0.0,64.0
86,78.0,240.0,240.0,0.0,64.0
87,77.0,240.0,240.0,0.0,64.0
88,80.0,240.0,240.0,0.0,64.0
89,78.0,0.0,240.0,0.0,64.0
90,49.0,240.0,240.0,0.0,64.0
91,76.0,0.0,240.0,0.0,64.0
92,75.0,0.0,240.0,0.0,64.0
93,48.0,240.0,240.0,0.0,64.0
94,78.0,240.0,240.0,0.0,64.0
95,49.0,0.0,240.0,0.0,64.0
96,48.0,0.0,240.0,0.0,64.0
97,76.0,240.0,240.0,0.0,64.0
98,47.0,0.0,240.0,0.0,64.0
99,75.0,240.0,240.0,0.0,64.0
100,76.0,0.0,720.0,0.0,64.0
101,46.0,240.0,240.0,0.0,64.0
102,47.0,240.0,240.0,0.0,64.0
103,46.0,240.0,240.0,0.0,64.0
104,71.0,240.0,240.0,0.0,64.0
105,44.0,0.0,240.0,0.0,64.0
106,42.0,0.0,240.0,0.0,64.0
107,70.0,240.0,240.0,0.0,64.0
108,71.0,240.0,240.0,0.0,64.0
109,43.0,0.0,240.0,0.0,64.0
110,42.0,0.0,240.0,0.0,64.0
111,73.0,240.0,240.0,0.0,64.0
112,46.0,0.0,240.0,0.0,64.0
113,66.0,240.0,240.0,0.0,64.0
114,78.0,0.0,960.0,0.0,64.0
115,49.0,240.0,240.0,0.0,64.0
116,52.0,240.0,240.0,0.0,64.0
117,50.0,240.0,240.0,0.0,64.0
118,54.0,240.0,240.0,0.0,64.0
119,76.0,0.0,240.0,0.0,64.0
120,58.0,240.0,240.0,0.0,64.0
121,74.0,240.0,240.0,0.0,64.0
122,59.0,0.0,240.0,0.0,64.0
123,49.0,240.0,240.0,0.0,64.0
124,76.0,240.0,480.0,0.0,64.0
125,55.0,0.0,240.0,0.0,64.0
126,54.0,0.0,240.0,0.0,64.0
127,74.0,240.0,240.0,0.0,64.0
128,73.0,120.0,240.0,0.0,64.0
129,52.0,0.0,240.0,0.0,64.0
130,74.0,120.0,120.0,0.0,64.0
131,50.0,0.0,120.0,0.0,64.0
132,49.0,120.0,120.0,0.0,64.0
133,76.0,0.0,120.0,0.0,64.0
134,74.0,120.0,120.0,0.0,64.0
135,47.0,0.0,120.0,0.0,64.0
136,46.0,0.0,120.0,0.0,64.0
137,73.0,120.0,120.0,0.0,64.0
138,47.0,120.0,120.0,0.0,64.0
139,71.0,0.0,240.0,0.0,64.0
140,59.0,120.0,120.0,0.0,64.0
141,73.0,120.0,240.0,0.0,64.0
142,57.0,120.0,120.0,0.0,64.0
143,55.0,0.0,120.0,0.0,64.0
144,54.0,120.0,120.0,0.0,64.0
145,74.0,120.0,240.0,0.0,64.0
146,52.0,0.0,120.0,0.0,64.0
147,76.0,240.0,240.0,0.0,64.0
148,50.0,120.0,120.0,0.0,64.0
149,73.0,0.0,240.0,0.0,64.0
150,49.0,0.0,120.0,0.0,64.0
151,78.0,240.0,240.0,0.0,64.0
152,47.0,240.0,480.0,0.0,64.0
153,74.0,0.0,240.0,0.0,64.0
154,76.0,0.0,240.0,0.0,64.0
155,79.0,0.0,240.0,0.0,64.0
156,70.0,240.0,480.0,0.0,64.0
157,78.0,240.0,240.0,0.0,64.0
158,49.0,0.0,240.0,0.0,64.0
159,79.0,0.0,240.0,0.0,64.0
160,78.0,0.0,240.0,0.0,64.0
161,50.0,240.0,240.0,0.0,64.0
162,76.0,240.0,240.0,0.0,64.0
163,52.0,0.0,240.0,0.0,64.0
164,74.0,0.0,240.0,0.0,64.0
165,54.0,240.0,240.0,0.0,64.0
166,73.0,0.0,240.0,0.0,64.0
167,57.0,240.0,240.0,0.0,64.0
168,56.0,240.0,240.0,0.0,64.0
169,78.0,120.0,720.0,0.0,64.0
170,71.0,0.0,240.0,0.0,64.0
171,74.0,0.0,240.0,0.0,64.0
172,59.0,240.0,240.0,0.0,64.0
173,57.0,0.0,240.0,0.0,64.0
174,56.0,120.0,120.0,0.0,64.0
175,77.0,240.0,240.0,0.0,64.0
176,54.0,0.0,120.0,0.0,64.0
177,53.0,0.0,480.0,0.0,64.0
178,73.0,240.0,240.0,0.0,64.0
179,75.0,240.0,240.0,0.0,64.0
180,76.0,120.0,1200.0,0.0,64.0
181,55.0,240.0,240.0,0.0,64.0
182,71.0,0.0,240.0,0.0,64.0
183,70.0,240.0,240.0,0.0,64.0
184,54.0,0.0,240.0,0.0,64.0
185,73.0,0.0,240.0,0.0,64.0
186,57.0,240.0,240.0,0.0,64.0
187,55.0,0.0,240.0,0.0,64.0
188,54.0,120.0,120.0,0.0,64.0
189,75.0,240.0,240.0,0.0,64.0
190,52.0,0.0,120.0,0.0,64.0
191,51.0,240.0,480.0,0.0,64.0
192,71.0,240.0,240.0,0.0,64.0
193,73.0,0.0,240.0,0.0,64.0
194,74.0,240.0,1200.0,0.0,64.0
195,69.0,240.0,240.0,0.0,64.0
196,54.0,0.0,240.0,0.0,64.0
197,68.0,0.0,240.0,0.0,64.0
198,53.0,240.0,240.0,0.0,64.0
199,71.0,0.0,240.0,0.0,64.0
200,56.0,240.0,240.0,0.0,64.0
201,54.0,0.0,240.0,0.0,64.0
202,69.0,0.0,480.0,0.0,64.0
203,73.0,0.0,240.0,0.0,64.0
204,52.0,240.0,240.0,0.0,64.0
205,72.0,240.0,240.0,0.0,64.0
206,51.0,0.0,240.0,0.0,64.0
207,69.0,240.0,240.0,0.0,64.0
208,54.0,0.0,240.0,0.0,64.0
209,73.0,0.0,240.0,0.0,64.0
210,76.0,0.0,480.0,0.0,64.0
211,52.0,240.0,240.0,0.0,64.0
212,72.0,0.0,240.0,0.0,64.0
213,71.0,240.0,240.0,0.0,64.0
214,51.0,0.0,240.0,0.0,64.0
215,52.0,0.0,720.0,0.0,64.0
216,70.0,240.0,240.0,0.0,64.0
217,79.0,0.0,240.0,0.0,64.0
218,71.0,240.0,240.0,0.0,64.0
219,70.0,240.0,240.0,0.0,64.0
220,78.0,0.0,480.0,0.0,64.0
221,47.0,0.0,240.0,0.0,64.0
222,68.0,240.0,240.0,0.0,64.0
223,46.0,0.0,240.0,0.0,64.0
224,66.0,240.0,240.0,0.0,64.0
225,47.0,240.0,240.0,0.0,64.0
226,67.0,0.0,240.0,0.0,64.0
227,71.0,0.0,240.0,0.0,64.0
228,49.0,0.0,240.0,0.0,64.0
229,66.0,240.0,240.0,0.0,64.0
230,42.0,0.0,240.0,0.0,64.0
231,70.0,0.0,240.0,0.0,64.0
232,54.0,240.0,960.0,0.0,64.0
233,73.0,240.0,240.0,0.0,64.0
234,76.0,0.0,240.0,0.0,64.0
235,66.0,240.0,240.0,0.0,64.0
236,74.0,240.0,240.0,0.0,64.0
237,71.0,0.0,480.0,0.0,64.0
238,78.0,0.0,240.0,0.0,64.0
239,82.0,240.0,240.0,0.0,64.0
240,52.0,0.0,240.0,0.0,64.0
241,67.0,0.0,480.0,0.0,64.0
242,50.0,240.0,240.0,0.0,64.0
243,83.0,0.0,240.0,0.0,64.0
244,64.0,240.0,480.0,0.0,64.0
245,73.0,240.0,240.0,0.0,64.0
246,52.0,0.0,480.0,0.0,64.0
247,79.0,0.0,240.0,0.0,64.0
248,66.0,0.0,480.0,0.0,64.0
249,78.0,240.0,240.0,0.0,64.0
250,50.0,0.0,240.0,0.0,64.0
251,49.0,0.0,240.0,0.0,64.0
252,76.0,120.0,240.0,0.0,64.0
253,74.0,0.0,120.0,0.0,64.0
254,50.0,120.0,120.0,0.0,64.0
255,73.0,0.0,120.0,0.0,64.0
256,52.0,120.0,120.0,0.0,64.0
257,50.0,0.0,120.0,0.0,64.0
258,71.0,0.0,15.0,0.0,64.0
259,83.0,120.0,120.0,0.0,64.0
260,70.0,0.0,120.0,0.0,64.0
261,49.0,120.0,120.0,0.0,64.0
262,85.0,0.0,120.0,0.0,64.0
263,47.0,120.0,240.0,0.0,64.0
264,71.0,120.0,120.0,0.0,64.0
265,86.0,0.0,240.0,0.0,64.0
266,83.0,0.0,120.0,0.0,64.0
267,81.0,120.0,120.0,0.0,64.0
268,88.0,0.0,240.0,0.0,64.0
269,49.0,120.0,240.0,0.0,64.0
270,79.0,0.0,120.0,0.0,64.0
271,78.0,120.0,120.0,0.0,64.0
272,50.0,0.0,240.0,0.0,64.0
273,90.0,120.0,720.0,0.0,64.0
274,76.0,120.0,120.0,0.0,64.0
275,74.0,120.0,120.0,0.0,64.0
276,49.0,240.0,240.0,0.0,64.0
277,52.0,0.0,240.0,0.0,64.0
278,73.0,0.0,120.0,0.0,64.0
279,71.0,240.0,480.0,0.0,64.0
280,54.0,0.0,240.0,0.0,64.0
281,50.0,0.0,240.0,0.0,64.0
282,52.0,0.0,240.0,0.0,64.0
283,55.0,0.0,240.0,0.0,64.0
284,88.0,120.0,120.0,0.0,64.0
285,86.0,0.0,120.0,0.0,64.0
286,85.0,0.0,240.0,0.0,64.0
287,54.0,240.0,240.0,0.0,64.0
288,46.0,240.0,480.0,0.0,64.0
289,55.0,0.0,240.0,0.0,64.0
290,82.0,0.0,240.0,0.0,64.0
291,73.0,0.0,240.0,0.0,64.0
292,54.0,0.0,240.0,0.0,64.0
293,83.0,240.0,240.0,0.0,64.0
294,74.0,0.0,240.0,0.0,64.0
295,52.0,0.0,240.0,0.0,64.0
296,76.0,240.0,240.0,0.0,64.0
297,85.0,0.0,240.0,0.0,64.0
298,50.0,240.0,240.0,0.0,64.0
299,78.0,0.0,240.0,0.0,64.0
300,81.0,0.0,240.0,0.0,64.0
301,49.0,240.0,240.0,0.0,64.0
302,80.0,0.0,240.0,0.0,64.0
303,54.0,0.0,720.0,0.0,64.0
304,47.0,240.0,240.0,0.0,64.0
305,83.0,0.0,240.0,0.0,64.0
306,50.0,240.0,240.0,0.0,64.0
307,81.0,120.0,240.0,0.0,64.0
308,80.0,120.0,120.0,0.0,64.0
309,53.0,0.0,240.0,0.0,64.0
310,78.0,0.0,120.0,0.0,64.0
311,49.0,240.0,240.0,0.0,64.0
312,81.0,0.0,240.0,0.0,64.0
313,77.0,0.0,480.0,0.0,64.0
314,83.0,0.0,240.0,0.0,64.0
315,51.0,240.0,240.0,0.0,64.0
316,85.0,240.0,960.0,0.0,64.0
317,52.0,0.0,1200.0,0.0,64.0
318,79.0,240.0,240.0,0.0,64.0
319,47.0,0.0,240.0,0.0,64.0
320,46.0,0.0,240.0,0.0,64.0
321,78.0,240.0,240.0,0.0,64.0
322,49.0,0.0,240.0,0.0,64.0
323,81.0,0.0,240.0,0.0,64.0
324,79.0,120.0,240.0,0.0,64.0
325,51.0,0.0,240.0,0.0,64.0
326,78.0,120.0,120.0,0.0,64.0
327,76.0,0.0,120.0,0.0,64.0
328,47.0,240.0,240.0,0.0,64.0
329,75.0,0.0,480.0,0.0,64.0
330,80.0,0.0,240.0,0.0,64.0
331,49.0,240.0,240.0,0.0,64.0
332,82.0,0.0,240.0,0.0,64.0
333,50.0,240.0,1200.0,0.0,64.0
334,83.0,240.0,960.0,0.0,64.0
335,78.0,240.0,240.0,0.0,64.0
336,45.0,0.0,240.0,0.0,64.0
337,77.0,240.0,240.0,0.0,64.0
338,44.0,0.0,240.0,0.0,64.0
339,80.0,0.0,240.0,0.0,64.0
340,47.0,0.0,240.0,0.0,64.0
341,45.0,240.0,480.0,0.0,64.0
342,78.0,0.0,240.0,0.0,64.0
343,49.0,0.0,240.0,0.0,64.0
344,76.0,0.0,240.0,0.0,64.0
345,48.0,240.0,240.0,0.0,64.0
346,75.0,0.0,240.0,0.0,64.0
347,78.0,0.0,240.0,0.0,64.0
348,49.0,240.0,240.0,0.0,64.0
349,45.0,0.0,240.0,0.0,64.0
350,79.0,240.0,480.0,0.0,64.0
351,52.0,0.0,480.0,0.0,64.0
352,76.0,0.0,240.0,0.0,64.0
353,48.0,240.0,240.0,0.0,64.0
354,75.0,0.0,240.0,0.0,64.0
355,47.0,0.0,240.0,0.0,64.0
356,76.0,240.0,720.0,0.0,64.0
357,73.0,120.0,480.0,0.0,64.0
358,46.0,240.0,240.0,0.0,64.0
359,55.0,0.0,240.0,0.0,64.0
360,47.0,0.0,240.0,0.0,64.0
361,54.0,240.0,480.0,0.0,64.0
362,46.0,0.0,240.0,0.0,64.0
363,85.0,120.0,120.0,0.0,64.0
364,86.0,0.0,120.0,0.0,64.0
365,71.0,0.0,240.0,0.0,64.0
366,88.0,0.0,480.0,0.0,64.0
367,44.0,0.0,240.0,0.0,64.0
368,70.0,0.0,240.0,0.0,64.0
369,42.0,240.0,240.0,0.0,64.0
370,47.0,240.0,240.0,0.0,64.0
371,71.0,0.0,240.0,0.0,64.0
372,43.0,0.0,240.0,0.0,64.0
373,86.0,0.0,240.0,0.0,64.0
374,73.0,240.0,240.0,0.0,64.0
375,88.0,0.0,240.0,0.0,64.0
376,42.0,0.0,240.0,0.0,64.0
377,66.0,0.0,240.0,0.0,64.0
378,85.0,240.0,240.0,0.0,64.0
379,46.0,0.0,240.0,0.0,64.0
380,49.0,240.0,240.0,0.0,64.0
381,82.0,0.0,480.0,0.0,64.0
382,78.0,0.0,960.0,0.0,64.0
383,52.0,0.0,240.0,0.0,64.0
384,42.0,240.0,240.0,0.0,64.0
385,47.0,240.0,480.0,0.0,64.0
386,83.0,0.0,480.0,0.0,64.0
387,50.0,240.0,240.0,0.0,64.0
388,54.0,0.0,240.0,0.0,64.0
389,76.0,240.0,240.0,0.0,64.0
390,58.0,0.0,240.0,0.0,64.0
391,43.0,0.0,480.0,0.0,64.0
392,59.0,0.0,240.0,0.0,64.0
393,74.0,0.0,240.0,0.0,64.0
394,79.0,0.0,480.0,0.0,64.0
395,49.0,240.0,240.0,0.0,64.0
396,76.0,0.0,480.0,0.0,64.0
397,40.0,0.0,480.0,0.0,64.0
398,55.0,240.0,240.0,0.0,64.0
399,54.0,240.0,240.0,0.0,64.0
400,42.0,0.0,480.0,0.0,64.0
401,74.0,0.0,240.0,0.0,64.0
402,73.0,120.0,240.0,0.0,64.0
403,52.0,0.0,240.0,0.0,64.0
404,70.0,0.0,240.0,0.0,64.0
405,74.0,0.0,120.0,0.0,64.0
406,50.0,120.0,120.0,0.0,64.0
407,47.0,0.0,240.0,0.0,64.0
408,49.0,120.0,120.0,0.0,64.0
409,76.0,0.0,120.0,0.0,64.0
410,59.0,0.0,120.0,0.0,64.0
411,74.0,120.0,120.0,0.0,64.0
412,47.0,0.0,120.0,0.0,64.0
413,46.0,0.0,120.0,0.0,64.0
414,73.0,120.0,120.0,0.0,64.0
415,61.0,0.0,120.0,0.0,64.0
416,47.0,120.0,120.0,0.0,64.0
417,71.0,0.0,15.0,0.0,64.0
418,71.0,0.0,240.0,0.0,64.0
419,62.0,120.0,240.0,0.0,64.0
420,59.0,0.0,120.0,0.0,64.0
421,73.0,0.0,240.0,0.0,64.0
422,57.0,120.0,120.0,0.0,64.0
423,64.0,120.0,240.0,0.0,64.0
424,55.0,0.0,120.0,0.0,64.0
425,54.0,120.0,120.0,0.0,64.0
426,74.0,0.0,240.0,0.0,64.0
427,66.0,0.0,720.0,0.0,64.0
428,52.0,120.0,120.0,0.0,64.0
429,73.0,0.0,240.0,0.0,64.0
430,50.0,120.0,120.0,0.0,64.0
431,76.0,240.0,240.0,0.0,64.0
432,49.0,0.0,120.0,0.0,64.0
433,78.0,120.0,240.0,0.0,64.0
434,74.0,0.0,240.0,0.0,64.0
435,47.0,0.0,480.0,0.0,64.0
436,76.0,0.0,240.0,0.0,64.0
437,79.0,0.0,240.0,0.0,64.0
438,64.0,120.0,120.0,0.0,64.0
439,62.0,240.0,120.0,0.0,64.0
440,70.0,0.0,480.0,0.0,64.0
441,61.0,240.0,240.0,0.0,64.0
442,78.0,0.0,240.0,0.0,64.0
443,79.0,240.0,240.0,0.0,64.0
444,49.0,0.0,240.0,0.0,64.0
445,58.0,0.0,240.0,0.0,64.0
446,59.0,0.0,240.0,0.0,64.0
447,78.0,0.0,240.0,0.0,64.0
448,50.0,240.0,240.0,0.0,64.0
449,76.0,0.0,240.0,0.0,64.0
450,61.0,0.0,240.0,0.0,64.0
451,52.0,240.0,240.0,0.0,64.0
452,74.0,240.0,240.0,0.0,64.0
453,54.0,0.0,240.0,0.0,64.0
454,57.0,240.0,240.0,0.0,64.0
455,73.0,0.0,240.0,0.0,64.0
456,71.0,0.0,240.0,0.0,64.0
457,78.0,0.0,720.0,0.0,64.0
458,56.0,240.0,240.0,0.0,64.0
459,74.0,0.0,240.0,0.0,64.0
460,59.0,240.0,240.0,0.0,64.0
461,57.0,120.0,240.0,0.0,64.0
462,77.0,0.0,240.0,0.0,64.0
463,56.0,120.0,120.0,0.0,64.0
464,54.0,240.0,120.0,0.0,64.0
465,57.0,0.0,240.0,0.0,64.0
466,73.0,240.0,240.0,0.0,64.0
467,53.0,240.0,480.0,0.0,64.0
468,75.0,0.0,240.0,0.0,64.0
469,59.0,0.0,240.0,0.0,64.0
470,61.0,240.0,960.0,0.0,64.0
471,76.0,120.0,1200.0,0.0,64.0
472,55.0,240.0,240.0,0.0,64.0
473,71.0,0.0,240.0,0.0,64.0
474,70.0,240.0,240.0,0.0,64.0
475,54.0,0.0,240.0,0.0,64.0
476,57.0,0.0,240.0,0.0,64.0
477,73.0,0.0,240.0,0.0,64.0
478,55.0,0.0,240.0,0.0,64.0
479,54.0,120.0,120.0,0.0,64.0
480,75.0,240.0,240.0,0.0,64.0
481,52.0,0.0,120.0,0.0,64.0
482,71.0,0.0,240.0,0.0,64.0
483,51.0,0.0,480.0,0.0,64.0
484,56.0,240.0,240.0,0.0,64.0
485,58.0,0.0,240.0,0.0,64.0
486,73.0,240.0,240.0,0.0,64.0
487,59.0,0.0,960.0,0.0,64.0
488,74.0,240.0,1200.0,0.0,64.0
489,54.0,240.0,240.0,0.0,64.0
490,69.0,0.0,240.0,0.0,64.0
491,53.0,240.0,240.0,0.0,64.0
492,68.0,0.0,240.0,0.0,64.0
493,71.0,240.0,240.0,0.0,64.0
494,56.0,0.0,240.0,0.0,64.0
495,54.0,0.0,240.0,0.0,64.0
496,69.0,0.0,480.0,0.0,64.0
497,52.0,240.0,240.0,0.0,64.0
498,73.0,0.0,240.0,0.0,64.0
499,72.0,0.0,240.0,0.0,64.0
500,51.0,240.0,240.0,0.0,64.0
501,73.0,0.0,240.0,0.0,64.0
502,69.0,0.0,240.0,0.0,64.0
503,54.0,0.0,240.0,0.0,64.0
504,76.0,240.0,480.0,0.0,64.0
505,55.0,0.0,480.0,0.0,64.0
506,72.0,240.0,240.0,0.0,64.0
507,52.0,0.0,240.0,0.0,64.0
508,51.0,0.0,240.0,0.0,64.0
509,71.0,0.0,240.0,0.0,64.0
510,70.0,240.0,240.0,0.0,64.0
511,49.0,120.0,480.0,0.0,64.0
512,52.0,0.0,720.0,0.0,64.0
513,71.0,0.0,240.0,0.0,64.0
514,79.0,0.0,240.0,0.0,64.0
515,78.0,0.0,480.0,0.0,64.0
516,70.0,0.0,240.0,0.0,64.0
517,61.0,120.0,120.0,0.0,64.0
518,62.0,240.0,120.0,0.0,64.0
519,68.0,240.0,240.0,0.0,64.0
520,64.0,0.0,480.0,0.0,64.0
521,47.0,0.0,240.0,0.0,64.0
522,46.0,0.0,240.0,0.0,64.0
523,66.0,240.0,240.0,0.0,64.0
524,47.0,0.0,240.0,0.0,64.0
525,62.0,0.0,240.0,0.0,64.0
526,71.0,240.0,240.0,0.0,64.0
527,67.0,0.0,240.0,0.0,64.0
528,66.0,0.0,240.0,0.0,64.0
529,64.0,0.0,240.0,0.0,64.0
530,49.0,240.0,240.0,0.0,64.0
531,61.0,0.0,240.0,0.0,64.0
532,70.0,0.0,240.0,0.0,64.0
533,42.0,240.0,240.0,0.0,64.0
534,73.0,240.0,240.0,0.0,64.0
535,58.0,0.0,480.0,0.0,64.0
536,54.0,0.0,960.0,0.0,64.0
537,76.0,0.0,240.0,0.0,64.0
538,66.0,240.0,240.0,0.0,64.0
539,59.0,240.0,480.0,0.0,64.0
540,71.0,0.0,480.0,0.0,64.0
541,74.0,240.0,240.0,0.0,64.0
542,78.0,0.0,240.0,0.0,64.0
543,82.0,240.0,240.0,0.0,64.0
544,67.0,0.0,480.0,0.0,64.0
545,52.0,0.0,240.0,0.0,64.0
546,50.0,0.0,240.0,0.0,64.0
547,83.0,0.0,240.0,0.0,64.0
548,64.0,0.0,480.0,0.0,64.0
549,73.0,240.0,240.0,0.0,64.0
550,52.0,0.0,480.0,0.0,64.0
551,55.0,240.0,480.0,0.0,64.0
552,79.0,0.0,240.0,0.0,64.0
553,78.0,240.0,240.0,0.0,64.0
554,50.0,0.0,240.0,0.0,64.0
555,66.0,0.0,480.0,0.0,64.0
556,46.0,0.0,240.0,0.0,64.0
557,49.0,0.0,240.0,0.0,64.0
558,76.0,120.0,240.0,0.0,64.0
559,50.0,120.0,120.0,0.0,64.0
560,74.0,0.0,120.0,0.0,64.0
561,73.0,0.0,120.0,0.0,64.0
562,52.0,0.0,120.0,0.0,64.0
563,50.0,0.0,120.0,0.0,64.0
564,71.0,120.0,15.0,0.0,64.0
565,83.0,0.0,120.0,0.0,64.0
566,70.0,0.0,120.0,0.0,64.0
567,49.0,0.0,120.0,0.0,64.0
568,85.0,0.0,120.0,0.0,64.0
569,86.0,120.0,240.0,0.0,64.0
570,47.0,120.0,15.0,0.0,64.0
571,71.0,120.0,120.0,0.0,64.0
572,47.0,0.0,240.0,0.0,64.0
573,83.0,0.0,120.0,0.0,64.0
574,81.0,120.0,120.0,0.0,64.0
575,88.0,120.0,240.0,0.0,64.0
576,49.0,0.0,240.0,0.0,64.0
577,79.0,0.0,120.0,0.0,64.0
578,78.0,120.0,120.0,0.0,64.0
579,90.0,0.0,720.0,0.0,64.0
580,50.0,0.0,240.0,0.0,64.0
581,76.0,120.0,120.0,0.0,64.0
582,52.0,0.0,240.0,0.0,64.0
583,49.0,0.0,240.0,0.0,64.0
584,74.0,120.0,120.0,0.0,64.0
585,73.0,240.0,120.0,0.0,64.0
586,54.0,0.0,240.0,0.0,64.0
587,50.0,120.0,240.0,0.0,64.0
588,71.0,0.0,480.0,0.0,64.0
589,52.0,240.0,240.0,0.0,64.0
590,55.0,0.0,240.0,0.0,64.0
591,88.0,120.0,120.0,0.0,64.0
592,86.0,0.0,120.0,0.0,64.0
593,85.0,0.0,240.0,0.0,64.0
594,54.0,240.0,240.0,0.0,64.0
595,46.0,240.0,480.0,0.0,64.0
596,55.0,0.0,240.0,0.0,64.0
597,82.0,0.0,240.0,0.0,64.0
598,73.0,0.0,240.0,0.0,64.0
599,83.0,0.0,240.0,0.0,64.0
600,54.0,240.0,240.0,0.0,64.0
601,74.0,0.0,240.0,0.0,64.0
602,76.0,0.0,240.0,0.0,64.0
603,85.0,240.0,240.0,0.0,64.0
604,52.0,0.0,240.0,0.0,64.0
605,50.0,240.0,240.0,0.0,64.0
606,78.0,0.0,240.0,0.0,64.0
607,81.0,0.0,240.0,0.0,64.0
608,49.0,0.0,240.0,0.0,64.0
609,54.0,120.0,720.0,0.0,64.0
610,80.0,0.0,240.0,0.0,64.0
611,47.0,240.0,240.0,0.0,64.0
612,83.0,0.0,240.0,0.0,64.0
613,50.0,240.0,240.0,0.0,64.0
614,81.0,0.0,240.0,0.0,64.0
615,80.0,120.0,120.0,0.0,64.0
616,53.0,0.0,240.0,0.0,64.0
617,78.0,240.0,120.0,0.0,64.0
618,49.0,0.0,240.0,0.0,64.0
619,77.0,0.0,480.0,0.0,64.0
620,81.0,240.0,240.0,0.0,64.0
621,51.0,240.0,240.0,0.0,64.0
622,83.0,0.0,240.0,0.0,64.0
623,52.0,0.0,1200.0,0.0,64.0
624,85.0,0.0,960.0,0.0,64.0
625,79.0,0.0,240.0,0.0,64.0
626,47.0,240.0,240.0,0.0,64.0
627,46.0,0.0,240.0,0.0,64.0
628,78.0,240.0,240.0,0.0,64.0
629,81.0,0.0,240.0,0.0,64.0
630,49.0,240.0,240.0,0.0,64.0
631,79.0,120.0,240.0,0.0,64.0
632,51.0,0.0,240.0,0.0,64.0
633,78.0,120.0,120.0,0.0,64.0
634,76.0,240.0,120.0,0.0,64.0
635,75.0,0.0,480.0,0.0,64.0
636,47.0,0.0,240.0,0.0,64.0
637,80.0,240.0,240.0,0.0,64.0
638,49.0,0.0,240.0,0.0,64.0
639,82.0,240.0,240.0,0.0,64.0
640,83.0,0.0,960.0,0.0,64.0
641,50.0,240.0,1200.0,0.0,64.0
642,78.0,0.0,240.0,0.0,64.0
643,45.0,240.0,240.0,0.0,64.0
644,44.0,0.0,240.0,0.0,64.0
645,77.0,240.0,240.0,0.0,64.0
646,80.0,0.0,240.0,0.0,64.0
647,47.0,240.0,240.0,0.0,64.0
648,78.0,0.0,240.0,0.0,64.0
649,45.0,0.0,480.0,0.0,64.0
650,76.0,0.0,240.0,0.0,64.0
651,49.0,240.0,240.0,0.0,64.0
652,48.0,240.0,240.0,0.0,64.0
653,75.0,0.0,240.0,0.0,64.0
654,78.0,0.0,240.0,0.0,64.0
655,45.0,0.0,240.0,0.0,64.0
656,49.0,240.0,240.0,0.0,64.0
657,52.0,0.0,480.0,0.0,64.0
658,79.0,0.0,480.0,0.0,64.0
659,76.0,0.0,240.0,0.0,64.0
660,48.0,240.0,240.0,0.0,64.0
661,75.0,0.0,240.0,0.0,64.0
662,47.0,240.0,240.0,0.0,64.0
663,73.0,0.0,480.0,0.0,64.0
664,46.0,240.0,240.0,0.0,64.0
665,76.0,0.0,720.0,0.0,64.0
666,47.0,120.0,240.0,0.0,64.0
667,55.0,0.0,240.0,0.0,64.0
668,46.0,240.0,240.0,0.0,64.0
669,85.0,120.0,120.0,0.0,64.0
670,54.0,240.0,480.0,0.0,64.0
671,86.0,0.0,120.0,0.0,64.0
672,71.0,0.0,240.0,0.0,64.0
673,88.0,0.0,480.0,0.0,64.0
674,44.0,0.0,240.0,0.0,64.0
675,70.0,0.0,240.0,0.0,64.0
676,42.0,240.0,240.0,0.0,64.0
677,71.0,0.0,240.0,0.0,64.0
678,47.0,0.0,240.0,0.0,64.0
679,86.0,240.0,240.0,0.0,64.0
680,43.0,0.0,240.0,0.0,64.0
681,42.0,0.0,240.0,0.0,64.0
682,73.0,0.0,240.0,0.0,64.0
683,88.0,240.0,240.0,0.0,64.0
684,85.0,0.0,240.0,0.0,64.0
685,66.0,240.0,240.0,0.0,64.0
686,46.0,0.0,240.0,0.0,64.0
687,49.0,240.0,240.0,0.0,64.0
688,82.0,0.0,480.0,0.0,64.0
689,78.0,0.0,960.0,0.0,64.0
690,42.0,0.0,240.0,0.0,64.0
691,52.0,240.0,240.0,0.0,64.0
692,83.0,240.0,480.0,0.0,64.0
693,50.0,240.0,240.0,0.0,64.0
694,47.0,0.0,480.0,0.0,64.0
695,54.0,0.0,240.0,0.0,64.0
696,76.0,0.0,240.0,0.0,64.0
697,43.0,0.0,480.0,0.0,64.0
698,58.0,240.0,240.0,0.0,64.0
699,59.0,0.0,240.0,0.0,64.0
700,74.0,0.0,240.0,0.0,64.0
701,79.0,0.0,480.0,0.0,64.0
702,49.0,240.0,240.0,0.0,64.0
703,40.0,0.0,480.0,0.0,64.0
704,76.0,240.0,480.0,0.0,64.0
705,55.0,0.0,240.0,0.0,64.0
706,42.0,0.0,480.0,0.0,64.0
707,54.0,240.0,240.0,0.0,64.0
708,74.0,0.0,240.0,0.0,64.0
709,73.0,120.0,240.0,0.0,64.0
710,52.0,0.0,240.0,0.0,64.0
711,70.0,0.0,240.0,0.0,64.0
712,74.0,0.0,120.0,0.0,64.0
713,50.0,120.0,120.0,0.0,64.0
714,71.0,0.0,480.0,0.0,64.0
715,49.0,0.0,120.0,0.0,64.0
716,76.0,0.0,120.0,0.0,64.0
717,59.0,120.0,120.0,0.0,64.0
718,74.0,0.0,120.0,0.0,64.0
719,47.0,120.0,15.0,0.0,64.0
720,73.0,120.0,120.0,0.0,64.0
721,46.0,0.0,120.0,0.0,64.0
722,61.0,0.0,120.0,0.0,64.0
723,62.0,120.0,240.0,0.0,64.0
724,71.0,0.0,240.0,0.0,64.0
725,47.0,120.0,120.0,0.0,64.0
726,59.0,0.0,120.0,0.0,64.0
727,57.0,120.0,120.0,0.0,64.0
728,64.0,0.0,240.0,0.0,64.0
729,73.0,120.0,240.0,0.0,64.0
730,55.0,0.0,120.0,0.0,64.0
731,66.0,0.0,720.0,0.0,64.0
732,54.0,120.0,120.0,0.0,64.0
733,74.0,120.0,240.0,0.0,64.0
734,52.0,0.0,120.0,0.0,64.0
735,76.0,240.0,240.0,0.0,64.0
736,73.0,0.0,240.0,0.0,64.0
737,50.0,120.0,120.0,0.0,64.0
738,49.0,0.0,120.0,0.0,64.0
739,74.0,120.0,240.0,0.0,64.0
740,47.0,0.0,480.0,0.0,64.0
741,78.0,0.0,240.0,0.0,64.0
742,64.0,120.0,120.0,0.0,64.0
743,79.0,0.0,240.0,0.0,64.0
744,76.0,0.0,240.0,0.0,64.0
745,62.0,240.0,120.0,0.0,64.0
746,78.0,0.0,240.0,0.0,64.0
747,70.0,0.0,480.0,0.0,64.0
748,61.0,240.0,240.0,0.0,64.0
749,79.0,0.0,240.0,0.0,64.0
750,58.0,0.0,240.0,0.0,64.0
751,49.0,240.0,240.0,0.0,64.0
752,78.0,240.0,240.0,0.0,64.0
753,59.0,0.0,240.0,0.0,64.0
754,50.0,0.0,240.0,0.0,64.0
755,61.0,240.0,240.0,0.0,64.0
756,76.0,0.0,240.0,0.0,64.0
757,52.0,0.0,240.0,0.0,64.0
758,54.0,240.0,240.0,0.0,64.0
759,74.0,0.0,240.0,0.0,64.0
760,73.0,0.0,240.0,0.0,64.0
761,57.0,240.0,240.0,0.0,64.0
762,71.0,0.0,240.0,0.0,64.0
763,78.0,0.0,720.0,0.0,64.0
764,56.0,240.0,240.0,0.0,64.0
765,59.0,0.0,240.0,0.0,64.0
766,74.0,240.0,240.0,0.0,64.0
767,57.0,120.0,240.0,0.0,64.0
768,77.0,0.0,240.0,0.0,64.0
769,56.0,120.0,120.0,0.0,64.0
770,54.0,0.0,120.0,0.0,64.0
771,53.0,0.0,480.0,0.0,64.0
772,57.0,0.0,240.0,0.0,64.0
773,73.0,240.0,240.0,0.0,64.0
774,75.0,0.0,240.0,0.0,64.0
775,59.0,240.0,240.0,0.0,64.0
776,76.0,0.0,1200.0,0.0,64.0
777,61.0,0.0,960.0,0.0,64.0
778,71.0,0.0,240.0,0.0,64.0
779,55.0,240.0,240.0,0.0,64.0
780,70.0,0.0,240.0,0.0,64.0
781,54.0,240.0,240.0,0.0,64.0
782,73.0,240.0,240.0,0.0,64.0
783,57.0,0.0,240.0,0.0,64.0
784,55.0,120.0,240.0,0.0,64.0
785,75.0,240.0,240.0,0.0,64.0
786,54.0,120.0,120.0,0.0,64.0
787,52.0,0.0,120.0,0.0,64.0
788,51.0,0.0,480.0,0.0,64.0
789,71.0,0.0,240.0,0.0,64.0
790,56.0,240.0,240.0,0.0,64.0
791,73.0,240.0,240.0,0.0,64.0
792,58.0,0.0,240.0,0.0,64.0
793,59.0,0.0,960.0,0.0,64.0
794,74.0,0.0,1200.0,0.0,64.0
795,54.0,0.0,240.0,0.0,64.0
796,69.0,240.0,240.0,0.0,64.0
797,53.0,0.0,240.0,0.0,64.0
798,68.0,240.0,240.0,0.0,64.0
799,56.0,0.0,240.0,0.0,64.0
800,71.0,240.0,240.0,0.0,64.0
801,54.0,240.0,240.0,0.0,64.0
802,69.0,240.0,480.0,0.0,64.0
803,52.0,0.0,240.0,0.0,64.0
804,73.0,0.0,240.0,0.0,64.0
805,51.0,0.0,240.0,0.0,64.0
806,72.0,240.0,240.0,0.0,64.0
807,69.0,240.0,240.0,0.0,64.0
808,54.0,0.0,240.0,0.0,64.0
809,73.0,0.0,240.0,0.0,64.0
810,55.0,0.0,480.0,0.0,64.0
811,76.0,0.0,480.0,0.0,64.0
812,72.0,240.0,240.0,0.0,64.0
813,52.0,0.0,240.0,0.0,64.0
814,51.0,240.0,240.0,0.0,64.0
815,71.0,0.0,240.0,0.0,64.0
816,70.0,240.0,240.0,0.0,64.0
817,52.0,240.0,720.0,0.0,64.0
818,49.0,120.0,480.0,0.0,64.0
819,71.0,0.0,240.0,0.0,64.0
820,79.0,0.0,240.0,0.0,64.0
821,70.0,0.0,240.0,0.0,64.0
822,61.0,120.0,120.0,0.0,64.0
823,78.0,0.0,480.0,0.0,64.0
824,62.0,0.0,120.0,0.0,64.0
825,68.0,240.0,240.0,0.0,64.0
826,64.0,0.0,480.0,0.0,64.0
827,47.0,0.0,240.0,0.0,64.0
828,46.0,0.0,240.0,0.0,64.0
829,66.0,240.0,240.0,0.0,64.0
830,62.0,0.0,240.0,0.0,64.0
831,71.0,0.0,240.0,0.0,64.0
832,47.0,0.0,240.0,0.0,64.0
833,67.0,240.0,240.0,0.0,64.0
834,66.0,0.0,240.0,0.0,64.0
835,49.0,240.0,240.0,0.0,64.0
836,64.0,0.0,240.0,0.0,64.0
837,61.0,240.0,240.0,0.0,64.0
838,70.0,0.0,240.0,0.0,64.0
839,42.0,0.0,240.0,0.0,64.0
840,73.0,240.0,240.0,0.0,64.0
841,54.0,0.0,960.0,0.0,64.0
842,58.0,0.0,480.0,0.0,64.0
843,76.0,240.0,240.0,0.0,64.0
844,66.0,0.0,240.0,0.0,64.0
845,74.0,240.0,240.0,0.0,64.0
846,71.0,0.0,480.0,0.0,64.0
847,59.0,0.0,480.0,0.0,64.0
848,78.0,240.0,240.0,0.0,64.0
849,52.0,0.0,240.0,0.0,64.0
850,82.0,240.0,240.0,0.0,64.0
851,67.0,0.0,480.0,0.0,64.0
852,50.0,0.0,240.0,0.0,64.0
853,83.0,0.0,240.0,0.0,64.0
854,73.0,240.0,240.0,0.0,64.0
855,64.0,0.0,480.0,0.0,64.0
856,52.0,0.0,480.0,0.0,64.0
857,55.0,0.0,480.0,0.0,64.0
858,79.0,240.0,240.0,0.0,64.0
859,66.0,0.0,480.0,0.0,64.0
860,50.0,0.0,240.0,0.0,64.0
861,78.0,240.0,240.0,0.0,64.0
862,49.0,120.0,240.0,0.0,64.0
863,46.0,0.0,240.0,0.0,64.0
864,76.0,0.0,240.0,0.0,64.0
865,71.0,0.0,240.0,0.0,64.0
866,74.0,0.0,120.0,0.0,64.0
867,50.0,120.0,120.0,0.0,64.0
868,73.0,120.0,120.0,0.0,64.0
869,52.0,0.0,120.0,0.0,64.0
870,50.0,120.0,120.0,0.0,64.0
871,71.0,0.0,120.0,0.0,64.0
872,83.0,0.0,120.0,0.0,64.0
873,85.0,0.0,120.0,0.0,64.0
874,70.0,0.0,120.0,0.0,64.0
875,49.0,0.0,120.0,0.0,64.0
876,47.0,120.0,15.0,0.0,64.0
877,86.0,120.0,240.0,0.0,64.0
878,71.0,120.0,120.0,0.0,64.0
879,83.0,0.0,120.0,0.0,64.0
880,49.0,120.0,240.0,0.0,64.0
881,88.0,0.0,240.0,0.0,64.0
882,81.0,120.0,120.0,0.0,64.0
883,79.0,0.0,120.0,0.0,64.0
884,50.0,0.0,240.0,0.0,64.0
885,90.0,120.0,720.0,0.0,64.0
886,78.0,120.0,120.0,0.0,64.0
887,76.0,120.0,120.0,0.0,64.0
888,52.0,0.0,240.0,0.0,64.0
889,49.0,0.0,240.0,0.0,64.0
890,74.0,120.0,120.0,0.0,64.0
891,73.0,240.0,120.0,0.0,64.0
892,54.0,0.0,240.0,0.0,64.0
893,50.0,0.0,240.0,0.0,64.0
894,71.0,0.0,480.0,0.0,64.0
895,88.0,120.0,120.0,0.0,64.0
896,52.0,0.0,240.0,0.0,64.0
897,55.0,240.0,240.0,0.0,64.0
898,86.0,0.0,120.0,0.0,64.0
899,85.0,240.0,240.0,0.0,64.0
900,54.0,0.0,240.0,0.0,64.0
901,46.0,240.0,480.0,0.0,64.0
902,73.0,0.0,240.0,0.0,64.0
903,55.0,0.0,240.0,0.0,64.0
904,82.0,0.0,240.0,0.0,64.0
905,83.0,0.0,240.0,0.0,64.0
906,54.0,240.0,240.0,0.0,64.0
907,74.0,0.0,240.0,0.0,64.0
908,76.0,0.0,240.0,0.0,64.0
909,85.0,240.0,240.0,0.0,64.0
910,52.0,0.0,240.0,0.0,64.0
911,78.0,0.0,240.0,0.0,64.0
912,50.0,240.0,240.0,0.0,64.0
913,81.0,240.0,240.0,0.0,64.0
914,49.0,0.0,240.0,0.0,64.0
915,54.0,120.0,720.0,0.0,64.0
916,47.0,0.0,240.0,0.0,64.0
917,80.0,240.0,240.0,0.0,64.0
918,50.0,240.0,240.0,0.0,64.0
919,83.0,0.0,240.0,0.0,64.0
920,81.0,0.0,240.0,0.0,64.0
921,53.0,240.0,240.0,0.0,64.0
922,80.0,120.0,120.0,0.0,64.0
923,78.0,0.0,120.0,0.0,64.0
924,77.0,240.0,480.0,0.0,64.0
925,81.0,240.0,240.0,0.0,64.0
926,49.0,0.0,240.0,0.0,64.0
927,51.0,0.0,240.0,0.0,64.0
928,83.0,0.0,240.0,0.0,64.0
929,52.0,0.0,1200.0,0.0,64.0
930,85.0,0.0,960.0,0.0,64.0
931,79.0,0.0,240.0,0.0,64.0
932,47.0,240.0,240.0,0.0,64.0
933,78.0,0.0,240.0,0.0,64.0
934,46.0,240.0,240.0,0.0,64.0
935,81.0,0.0,240.0,0.0,64.0
936,49.0,240.0,240.0,0.0,64.0
937,79.0,120.0,240.0,0.0,64.0
938,51.0,240.0,240.0,0.0,64.0
939,78.0,120.0,120.0,0.0,64.0
940,76.0,0.0,120.0,0.0,64.0
941,80.0,0.0,240.0,0.0,64.0
942,75.0,0.0,480.0,0.0,64.0
943,47.0,240.0,240.0,0.0,64.0
944,82.0,240.0,240.0,0.0,64.0
945,49.0,0.0,240.0,0.0,64.0
946,83.0,240.0,960.0,0.0,64.0
947,50.0,240.0,1200.0,0.0,64.0
948,45.0,240.0,240.0,0.0,64.0
949,78.0,0.0,240.0,0.0,64.0
950,44.0,0.0,240.0,0.0,64.0
951,77.0,240.0,240.0,0.0,64.0
952,47.0,0.0,240.0,0.0,64.0
953,80.0,0.0,240.0,0.0,64.0
954,78.0,0.0,240.0,0.0,64.0
955,45.0,240.0,480.0,0.0,64.0
956,49.0,0.0,240.0,0.0,64.0
957,76.0,0.0,240.0,0.0,64.0
958,48.0,240.0,240.0,0.0,64.0
959,75.0,0.0,240.0,0.0,64.0
960,45.0,0.0,240.0,0.0,64.0
961,78.0,0.0,240.0,0.0,64.0
962,49.0,0.0,240.0,0.0,64.0
963,48.0,240.0,240.0,0.0,64.0
964,79.0,0.0,480.0,0.0,64.0
965,76.0,0.0,240.0,0.0,64.0
966,52.0,240.0,480.0,0.0,64.0
967,75.0,0.0,240.0,0.0,64.0
968,47.0,0.0,240.0,0.0,64.0
969,73.0,0.0,480.0,0.0,64.0
970,76.0,240.0,720.0,0.0,64.0
971,46.0,240.0,240.0,0.0,64.0
972,47.0,120.0,240.0,0.0,64.0
973,55.0,0.0,240.0,0.0,64.0
974,46.0,0.0,240.0,0.0,64.0
975,54.0,240.0,480.0,0.0,64.0
976,85.0,120.0,120.0,0.0,64.0
977,86.0,0.0,120.0,0.0,64.0
978,71.0,0.0,240.0,0.0,64.0
979,44.0,0.0,240.0,0.0,64.0
980,88.0,240.0,480.0,0.0,64.0
981,42.0,0.0,240.0,0.0,64.0
982,70.0,0.0,240.0,0.0,64.0
983,86.0,240.0,240.0,0.0,64.0
984,43.0,0.0,240.0,0.0,64.0
985,71.0,0.0,240.0,0.0,64.0
986,47.0,0.0,240.0,0.0,64.0
987,73.0,0.0,240.0,0.0,64.0
988,42.0,0.0,240.0,0.0,64.0
989,88.0,240.0,240.0,0.0,64.0
990,66.0,0.0,240.0,0.0,64.0
991,46.0,0.0,240.0,0.0,64.0
992,85.0,0.0,240.0,0.0,64.0
993,49.0,240.0,240.0,0.0,64.0
994,78.0,0.0,960.0,0.0,64.0
995,82.0,0.0,480.0,0.0,64.0
996,42.0,0.0,240.0,0.0,64.0
997,52.0,240.0,240.0,0.0,64.0
998,83.0,240.0,480.0,0.0,64.0
999,50.0,240.0,240.0,0.0,64.0
1000,47.0,0.0,480.0,0.0,64.0
1001,54.0,0.0,240.0,0.0,64.0
1002,58.0,0.0,240.0,0.0,64.0
1003,43.0,240.0,480.0,0.0,64.0
1004,76.0,240.0,240.0,0.0,64.0
1005,59.0,0.0,240.0,0.0,64.0
1006,74.0,0.0,240.0,0.0,64.0
1007,79.0,0.0,480.0,0.0,64.0
1008,76.0,0.0,480.0,0.0,64.0
1009,49.0,240.0,240.0,0.0,64.0
1010,40.0,0.0,480.0,0.0,64.0
1011,55.0,240.0,240.0,0.0,64.0
1012,74.0,240.0,240.0,0.0,64.0
1013,54.0,0.0,240.0,0.0,64.0
1014,42.0,120.0,480.0,0.0,64.0
1015,52.0,0.0,240.0,0.0,64.0
1016,73.0,0.0,240.0,0.0,64.0
1017,70.0,0.0,240.0,0.0,64.0
1018,74.0,0.0,120.0,0.0,64.0
1019,50.0,120.0,120.0,0.0,64.0
1020,76.0,0.0,120.0,0.0,64.0
1021,49.0,120.0,120.0,0.0,64.0
1022,47.0,0.0,15.0,0.0,64.0
1023,74.0,0.0,120.0,0.0,64.0
1024,59.0,0.0,120.0,0.0,64.0
1025,61.0,120.0,120.0,0.0,64.0
1026,73.0,0.0,120.0,0.0,64.0
1027,46.0,0.0,120.0,0.0,64.0
1028,47.0,120.0,120.0,0.0,64.0
1029,71.0,0.0,15.0,0.0,64.0
1030,62.0,0.0,240.0,0.0,64.0
1031,59.0,120.0,120.0,0.0,64.0
1032,64.0,120.0,240.0,0.0,64.0
1033,73.0,0.0,240.0,0.0,64.0
1034,57.0,120.0,120.0,0.0,64.0
1035,55.0,0.0,120.0,0.0,64.0
1036,54.0,120.0,120.0,0.0,64.0
1037,66.0,0.0,720.0,0.0,64.0
1038,74.0,120.0,240.0,0.0,64.0
1039,52.0,0.0,120.0,0.0,64.0
1040,50.0,120.0,120.0,0.0,64.0
1041,76.0,240.0,240.0,0.0,64.0
1042,73.0,0.0,240.0,0.0,64.0
1043,49.0,0.0,120.0,0.0,64.0
1044,74.0,0.0,240.0,0.0,64.0
1045,47.0,0.0,480.0,0.0,64.0
1046,78.0,120.0,240.0,0.0,64.0
1047,64.0,120.0,120.0,0.0,64.0
1048,79.0,0.0,240.0,0.0,64.0
1049,76.0,240.0,240.0,0.0,64.0
1050,62.0,0.0,120.0,0.0,64.0
1051,78.0,240.0,240.0,0.0,64.0
1052,61.0,0.0,240.0,0.0,64.0
1053,70.0,240.0,480.0,0.0,64.0
1054,79.0,0.0,240.0,0.0,64.0
1055,58.0,0.0,240.0,0.0,64.0
1056,49.0,0.0,240.0,0.0,64.0
1057,78.0,0.0,240.0,0.0,64.0
1058,59.0,240.0,240.0,0.0,64.0
1059,50.0,0.0,240.0,0.0,64.0
1060,52.0,0.0,240.0,0.0,64.0
1061,76.0,0.0,240.0,0.0,64.0
1062,61.0,240.0,240.0,0.0,64.0
1063,74.0,240.0,240.0,0.0,64.0
1064,54.0,0.0,240.0,0.0,64.0
1065,57.0,240.0,240.0,0.0,64.0
1066,73.0,0.0,240.0,0.0,64.0
1067,78.0,0.0,720.0,0.0,64.0
1068,71.0,240.0,240.0,0.0,64.0
1069,56.0,0.0,240.0,0.0,64.0
1070,59.0,240.0,240.0,0.0,64.0
1071,74.0,0.0,240.0,0.0,64.0
1072,57.0,120.0,240.0,0.0,64.0
1073,56.0,120.0,120.0,0.0,64.0
1074,77.0,0.0,240.0,0.0,64.0
1075,54.0,0.0,120.0,0.0,64.0
1076,53.0,0.0,480.0,0.0,64.0
1077,57.0,240.0,240.0,0.0,64.0
1078,73.0,0.0,240.0,0.0,64.0
1079,75.0,240.0,240.0,0.0,64.0
1080,59.0,0.0,240.0,0.0,64.0
1081,76.0,120.0,1200.0,0.0,64.0
1082,61.0,0.0,960.0,0.0,64.0
1083,55.0,240.0,240.0,0.0,64.0
1084,71.0,0.0,240.0,0.0,64.0
1085,70.0,240.0,240.0,0.0,64.0
1086,54.0,0.0,240.0,0.0,64.0
1087,73.0,0.0,240.0,0.0,64.0
1088,57.0,240.0,240.0,0.0,64.0
1089,55.0,0.0,240.0,0.0,64.0
1090,54.0,120.0,120.0,0.0,64.0
1091,75.0,0.0,240.0,0.0,64.0
1092,52.0,0.0,120.0,0.0,64.0
1093,51.0,240.0,480.0,0.0,64.0
1094,56.0,240.0,240.0,0.0,64.0
1095,71.0,0.0,240.0,0.0,64.0
1096,73.0,0.0,240.0,0.0,64.0
1097,58.0,0.0,240.0,0.0,64.0
1098,74.0,240.0,1200.0,0.0,64.0
1099,59.0,0.0,960.0,0.0,64.0
1100,69.0,0.0,240.0,0.0,64.0
1101,54.0,240.0,240.0,0.0,64.0
1102,68.0,0.0,240.0,0.0,64.0
1103,53.0,240.0,240.0,0.0,64.0
1104,71.0,240.0,240.0,0.0,64.0
1105,56.0,0.0,240.0,0.0,64.0
1106,54.0,0.0,240.0,0.0,64.0
1107,69.0,0.0,480.0,0.0,64.0
1108,73.0,0.0,240.0,0.0,64.0
1109,52.0,240.0,240.0,0.0,64.0
1110,72.0,0.0,240.0,0.0,64.0
1111,51.0,240.0,240.0,0.0,64.0
1112,73.0,240.0,240.0,0.0,64.0
1113,54.0,0.0,240.0,0.0,64.0
1114,69.0,0.0,240.0,0.0,64.0
1115,55.0,0.0,480.0,0.0,64.0
1116,76.0,240.0,480.0,0.0,64.0
1117,52.0,240.0,240.0,0.0,64.0
1118,72.0,0.0,240.0,0.0,64.0
1119,71.0,0.0,240.0,0.0,64.0
1120,51.0,0.0,240.0,0.0,64.0
1121,70.0,240.0,240.0,0.0,64.0
1122,49.0,120.0,480.0,0.0,64.0
1123,52.0,240.0,720.0,0.0,64.0
1124,71.0,0.0,240.0,0.0,64.0
1125,79.0,0.0,240.0,0.0,64.0
1126,70.0,0.0,240.0,0.0,64.0
1127,78.0,240.0,480.0,0.0,64.0
1128,61.0,120.0,120.0,0.0,64.0
1129,62.0,0.0,120.0,0.0,64.0
1130,68.0,0.0,240.0,0.0,64.0
1131,47.0,0.0,240.0,0.0,64.0
1132,64.0,0.0,480.0,0.0,64.0
1133,46.0,0.0,240.0,0.0,64.0
1134,66.0,240.0,240.0,0.0,64.0
1135,47.0,240.0,240.0,0.0,64.0
1136,62.0,0.0,240.0,0.0,64.0
1137,67.0,0.0,240.0,0.0,64.0
1138,71.0,0.0,240.0,0.0,64.0
1139,66.0,0.0,240.0,0.0,64.0
1140,49.0,240.0,240.0,0.0,64.0
1141,64.0,0.0,240.0,0.0,64.0
1142,70.0,0.0,240.0,0.0,64.0
1143,61.0,240.0,240.0,0.0,64.0
1144,42.0,0.0,240.0,0.0,64.0
1145,54.0,240.0,960.0,0.0,64.0
1146,73.0,240.0,240.0,0.0,64.0
1147,58.0,0.0,480.0,0.0,64.0
1148,76.0,0.0,240.0,0.0,64.0
1149,66.0,240.0,240.0,0.0,64.0
1150,59.0,0.0,480.0,0.0,64.0
1151,74.0,240.0,240.0,0.0,64.0
1152,71.0,0.0,480.0,0.0,64.0
1153,78.0,0.0,240.0,0.0,64.0
1154,67.0,0.0,480.0,0.0,64.0
1155,82.0,240.0,240.0,0.0,64.0
1156,52.0,0.0,240.0,0.0,64.0
1157,50.0,0.0,240.0,0.0,64.0
1158,83.0,240.0,240.0,0.0,64.0
1159,64.0,0.0,480.0,0.0,64.0
1160,52.0,0.0,480.0,0.0,64.0
1161,73.0,240.0,240.0,0.0,64.0
1162,55.0,240.0,480.0,0.0,64.0
1163,79.0,0.0,240.0,0.0,64.0
1164,50.0,0.0,240.0,0.0,64.0
1165,66.0,0.0,480.0,0.0,64.0
1166,78.0,240.0,240.0,0.0,64.0
1167,76.0,120.0,240.0,0.0,64.0
1168,46.0,0.0,240.0,0.0,64.0
1169,49.0,0.0,240.0,0.0,64.0
1170,47.0,0.0,480.0,0.0,64.0
1171,50.0,0.0,120.0,0.0,64.0
1172,74.0,120.0,120.0,0.0,64.0
1173,52.0,120.0,120.0,0.0,64.0
1174,73.0,0.0,120.0,0.0,64.0
1175,71.0,0.0,15.0,0.0,64.0
1176,83.0,0.0,120.0,0.0,64.0
1177,50.0,120.0,120.0,0.0,64.0
1178,70.0,120.0,120.0,0.0,64.0
1179,49.0,0.0,120.0,0.0,64.0
1180,85.0,0.0,120.0,0.0,64.0
1181,86.0,0.0,240.0,0.0,64.0
1182,47.0,0.0,240.0,0.0,64.0
1183,71.0,120.0,120.0,0.0,64.0
1184,83.0,120.0,120.0,0.0,64.0
1185,49.0,0.0,240.0,0.0,64.0
1186,88.0,120.0,240.0,0.0,64.0
1187,81.0,120.0,120.0,0.0,64.0
1188,79.0,0.0,120.0,0.0,64.0
1189,50.0,0.0,240.0,0.0,64.0
1190,78.0,120.0,120.0,0.0,64.0
1191,90.0,0.0,720.0,0.0,64.0
1192,76.0,120.0,120.0,0.0,64.0
1193,74.0,120.0,120.0,0.0,64.0
1194,49.0,0.0,240.0,0.0,64.0
1195,52.0,0.0,240.0,0.0,64.0
1196,73.0,240.0,120.0,0.0,64.0
1197,71.0,0.0,480.0,0.0,64.0
1198,50.0,120.0,240.0,0.0,64.0
1199,54.0,0.0,240.0,0.0,64.0
1200,55.0,0.0,240.0,0.0,64.0
1201,52.0,240.0,240.0,0.0,64.0
1202,88.0,120.0,120.0,0.0,64.0
1203,86.0,0.0,120.0,0.0,64.0
1204,85.0,240.0,240.0,0.0,64.0
1205,46.0,240.0,480.0,0.0,64.0
1206,54.0,0.0,240.0,0.0,64.0
1207,73.0,0.0,240.0,0.0,64.0
1208,82.0,0.0,240.0,0.0,64.0
1209,55.0,0.0,240.0,0.0,64.0
1210,54.0,0.0,240.0,0.0,64.0
1211,74.0,0.0,240.0,0.0,64.0
1212,83.0,240.0,240.0,0.0,64.0
1213,76.0,240.0,240.0,0.0,64.0
1214,52.0,0.0,240.0,0.0,64.0
1215,85.0,0.0,240.0,0.0,64.0
1216,50.0,0.0,240.0,0.0,64.0
1217,78.0,240.0,240.0,0.0,64.0
1218,81.0,0.0,240.0,0.0,64.0
1219,49.0,0.0,240.0,0.0,64.0
1220,80.0,0.0,240.0,0.0,64.0
1221,47.0,240.0,240.0,0.0,64.0
1222,54.0,120.0,720.0,0.0,64.0
1223,83.0,240.0,240.0,0.0,64.0
1224,50.0,0.0,240.0,0.0,64.0
1225,81.0,0.0,240.0,0.0,64.0
1226,53.0,240.0,240.0,0.0,64.0
1227,80.0,120.0,120.0,0.0,64.0
1228,78.0,0.0,120.0,0.0,64.0
1229,77.0,0.0,480.0,0.0,64.0
1230,49.0,240.0,240.0,0.0,64.0
1231,81.0,0.0,240.0,0.0,64.0
1232,83.0,240.0,240.0,0.0,64.0
1233,51.0,0.0,240.0,0.0,64.0
1234,52.0,120.0,1200.0,0.0,64.0
1235,85.0,240.0,960.0,0.0,64.0
1236,79.0,0.0,240.0,0.0,64.0
1237,47.0,240.0,240.0,0.0,64.0
1238,78.0,240.0,240.0,0.0,64.0
1239,46.0,0.0,240.0,0.0,64.0
1240,49.0,0.0,240.0,0.0,64.0
1241,81.0,0.0,240.0,0.0,64.0
1242,79.0,0.0,240.0,0.0,64.0
1243,78.0,120.0,120.0,0.0,64.0
1244,51.0,0.0,240.0,0.0,64.0
1245,76.0,240.0,120.0,0.0,64.0
1246,47.0,0.0,240.0,0.0,64.0
1247,75.0,240.0,480.0,0.0,64.0
1248,80.0,240.0,240.0,0.0,64.0
1249,49.0,0.0,240.0,0.0,64.0
1250,82.0,0.0,240.0,0.0,64.0
1251,50.0,0.0,1200.0,0.0,64.0
1252,83.0,0.0,960.0,0.0,64.0
1253,45.0,240.0,240.0,0.0,64.0
1254,78.0,0.0,240.0,0.0,64.0
1255,44.0,0.0,240.0,0.0,64.0
1256,77.0,240.0,240.0,0.0,64.0
1257,47.0,0.0,240.0,0.0,64.0
1258,80.0,240.0,240.0,0.0,64.0
1259,78.0,240.0,240.0,0.0,64.0
1260,45.0,0.0,480.0,0.0,64.0
1261,49.0,0.0,240.0,0.0,64.0
1262,76.0,240.0,240.0,0.0,64.0
1263,75.0,0.0,240.0,0.0,64.0
1264,48.0,240.0,240.0,0.0,64.0
1265,78.0,0.0,240.0,0.0,64.0
1266,49.0,0.0,240.0,0.0,64.0
1267,45.0,0.0,240.0,0.0,64.0
1268,52.0,0.0,480.0,0.0,64.0
1269,48.0,0.0,240.0,0.0,64.0
1270,76.0,240.0,240.0,0.0,64.0
1271,79.0,0.0,480.0,0.0,64.0
1272,47.0,240.0,240.0,0.0,64.0
1273,75.0,0.0,240.0,0.0,64.0
1274,76.0,0.0,720.0,0.0,64.0
1275,73.0,120.0,480.0,0.0,64.0
1276,46.0,240.0,240.0,0.0,64.0
1277,47.0,0.0,240.0,0.0,64.0
1278,55.0,0.0,240.0,0.0,64.0
1279,54.0,240.0,480.0,0.0,64.0
1280,85.0,120.0,120.0,0.0,64.0
1281,46.0,240.0,240.0,0.0,64.0
1282,86.0,0.0,120.0,0.0,64.0
1283,88.0,0.0,480.0,0.0,64.0
1284,44.0,0.0,240.0,0.0,64.0
1285,71.0,0.0,240.0,0.0,64.0
1286,70.0,240.0,240.0,0.0,64.0
1287,42.0,0.0,240.0,0.0,64.0
1288,86.0,0.0,240.0,0.0,64.0
1289,43.0,0.0,240.0,0.0,64.0
1290,71.0,240.0,240.0,0.0,64.0
1291,47.0,0.0,240.0,0.0,64.0
1292,88.0,0.0,240.0,0.0,64.0
1293,42.0,240.0,240.0,0.0,64.0
1294,73.0,0.0,240.0,0.0,64.0
1295,85.0,0.0,240.0,0.0,64.0
1296,46.0,0.0,240.0,0.0,64.0
1297,66.0,0.0,240.0,0.0,64.0
1298,49.0,240.0,240.0,0.0,64.0
1299,82.0,0.0,480.0,0.0,64.0
1300,78.0,0.0,960.0,0.0,64.0
1301,52.0,240.0,240.0,0.0,64.0
1302,42.0,0.0,240.0,0.0,64.0
1303,47.0,240.0,480.0,0.0,64.0
1304,50.0,240.0,240.0,0.0,64.0
1305,83.0,0.0,480.0,0.0,64.0
1306,54.0,0.0,240.0,0.0,64.0
1307,76.0,240.0,240.0,0.0,64.0
1308,43.0,0.0,480.0,0.0,64.0
1309,58.0,0.0,240.0,0.0,64.0
1310,59.0,0.0,240.0,0.0,64.0
1311,74.0,0.0,240.0,0.0,64.0
1312,79.0,0.0,480.0,0.0,64.0
1313,40.0,0.0,480.0,0.0,64.0
1314,49.0,240.0,240.0,0.0,64.0
1315,76.0,0.0,480.0,0.0,64.0
1316,55.0,240.0,240.0,0.0,64.0
1317,42.0,0.0,480.0,0.0,64.0
1318,54.0,0.0,240.0,0.0,64.0
1319,74.0,240.0,240.0,0.0,64.0
1320,70.0,0.0,240.0,0.0,64.0
1321,52.0,120.0,240.0,0.0,64.0
1322,73.0,0.0,240.0,0.0,64.0
1323,74.0,0.0,120.0,0.0,64.0
1324,47.0,0.0,240.0,0.0,64.0
1325,50.0,120.0,120.0,0.0,64.0
1326,71.0,0.0,480.0,0.0,64.0
1327,49.0,120.0,120.0,0.0,64.0
1328,76.0,0.0,120.0,0.0,64.0
1329,59.0,0.0,120.0,0.0,64.0
1330,74.0,0.0,120.0,0.0,64.0
1331,47.0,120.0,120.0,0.0,64.0
1332,46.0,120.0,120.0,0.0,64.0
1333,73.0,0.0,120.0,0.0,64.0
1334,61.0,0.0,120.0,0.0,64.0
1335,62.0,120.0,240.0,0.0,64.0
1336,47.0,120.0,120.0,0.0,64.0
1337,71.0,0.0,240.0,0.0,64.0
1338,59.0,0.0,120.0,0.0,64.0
1339,57.0,120.0,120.0,0.0,64.0
1340,73.0,0.0,240.0,0.0,64.0
1341,64.0,0.0,240.0,0.0,64.0
1342,55.0,120.0,120.0,0.0,64.0
1343,66.0,0.0,720.0,0.0,64.0
1344,74.0,120.0,240.0,0.0,64.0
1345,54.0,120.0,120.0,0.0,64.0
1346,52.0,0.0,120.0,0.0,64.0
1347,73.0,0.0,240.0,0.0,64.0
1348,76.0,0.0,240.0,0.0,64.0
1349,50.0,120.0,120.0,0.0,64.0
1350,49.0,240.0,120.0,0.0,64.0
1351,74.0,0.0,240.0,0.0,64.0
1352,47.0,0.0,480.0,0.0,64.0
1353,78.0,120.0,240.0,0.0,64.0
1354,64.0,120.0,120.0,0.0,64.0
1355,76.0,240.0,240.0,0.0,64.0
1356,79.0,0.0,240.0,0.0,64.0
1357,62.0,0.0,120.0,0.0,64.0
1358,70.0,0.0,480.0,0.0,64.0
1359,78.0,0.0,240.0,0.0,64.0
1360,61.0,240.0,240.0,0.0,64.0
1361,58.0,0.0,240.0,0.0,64.0
1362,49.0,0.0,240.0,0.0,64.0
1363,79.0,240.0,240.0,0.0,64.0
1364,59.0,0.0,240.0,0.0,64.0
1365,50.0,240.0,240.0,0.0,64.0
1366,78.0,0.0,240.0,0.0,64.0
1367,76.0,0.0,240.0,0.0,64.0
1368,52.0,0.0,240.0,0.0,64.0
1369,61.0,240.0,240.0,0.0,64.0
1370,74.0,0.0,240.0,0.0,64.0
1371,54.0,240.0,240.0,0.0,64.0
1372,73.0,0.0,240.0,0.0,64.0
1373,57.0,0.0,240.0,0.0,64.0
1374,56.0,240.0,240.0,0.0,64.0
1375,71.0,0.0,240.0,0.0,64.0
1376,78.0,120.0,720.0,0.0,64.0
1377,74.0,0.0,240.0,0.0,64.0
1378,59.0,240.0,240.0,0.0,64.0
1379,57.0,0.0,240.0,0.0,64.0
1380,77.0,0.0,240.0,0.0,64.0
1381,56.0,120.0,120.0,0.0,64.0
1382,54.0,0.0,120.0,0.0,64.0
1383,57.0,0.0,240.0,0.0,64.0
1384,73.0,240.0,240.0,0.0,64.0
1385,53.0,240.0,480.0,0.0,64.0
1386,75.0,0.0,240.0,0.0,64.0
1387,59.0,0.0,240.0,0.0,64.0
1388,61.0,0.0,960.0,0.0,64.0
1389,76.0,0.0,1200.0,0.0,64.0
1390,71.0,0.0,240.0,0.0,64.0
1391,55.0,240.0,240.0,0.0,64.0
1392,54.0,0.0,240.0,0.0,64.0
1393,70.0,240.0,240.0,0.0,64.0
1394,73.0,0.0,240.0,0.0,64.0
1395,57.0,240.0,240.0,0.0,64.0
1396,55.0,120.0,240.0,0.0,64.0
1397,75.0,0.0,240.0,0.0,64.0
1398,54.0,120.0,120.0,0.0,64.0
1399,52.0,240.0,120.0,0.0,64.0
1400,51.0,0.0,480.0,0.0,64.0
1401,56.0,0.0,240.0,0.0,64.0
1402,71.0,240.0,240.0,0.0,64.0
1403,58.0,0.0,240.0,0.0,64.0
1404,73.0,240.0,240.0,0.0,64.0
1405,59.0,0.0,960.0,0.0,64.0
1406,74.0,240.0,1200.0,0.0,64.0
1407,69.0,0.0,240.0,0.0,64.0
1408,54.0,240.0,240.0,0.0,64.0
1409,68.0,240.0,240.0,0.0,64.0
1410,53.0,0.0,240.0,0.0,64.0
1411,71.0,0.0,240.0,0.0,64.0
1412,56.0,240.0,240.0,0.0,64.0
1413,54.0,0.0,240.0,0.0,64.0
1414,69.0,0.0,480.0,0.0,64.0
1415,52.0,0.0,240.0,0.0,64.0
1416,73.0,240.0,240.0,0.0,64.0
1417,51.0,240.0,240.0,0.0,64.0
1418,72.0,0.0,240.0,0.0,64.0
1419,54.0,0.0,240.0,0.0,64.0
1420,69.0,0.0,240.0,0.0,64.0
1421,73.0,0.0,240.0,0.0,64.0
1422,76.0,240.0,480.0,0.0,64.0
1423,55.0,0.0,480.0,0.0,64.0
1424,72.0,0.0,240.0,0.0,64.0
1425,52.0,240.0,240.0,0.0,64.0
1426,71.0,0.0,240.0,0.0,64.0
1427,51.0,0.0,240.0,0.0,64.0
1428,52.0,0.0,720.0,0.0,64.0
1429,70.0,240.0,240.0,0.0,64.0
1430,49.0,120.0,480.0,0.0,64.0
1431,71.0,0.0,240.0,0.0,64.0
1432,79.0,0.0,240.0,0.0,64.0
1433,70.0,240.0,240.0,0.0,64.0
1434,78.0,0.0,480.0,0.0,64.0
1435,61.0,120.0,120.0,0.0,64.0
1436,62.0,0.0,120.0,0.0,64.0
1437,64.0,0.0,480.0,0.0,64.0
1438,47.0,0.0,240.0,0.0,64.0
1439,68.0,240.0,240.0,0.0,64.0
1440,46.0,0.0,240.0,0.0,64.0
1441,66.0,240.0,240.0,0.0,64.0
1442,67.0,0.0,240.0,0.0,64.0
1443,47.0,0.0,240.0,0.0,64.0
1444,71.0,0.0,240.0,0.0,64.0
1445,62.0,240.0,240.0,0.0,64.0
1446,49.0,0.0,240.0,0.0,64.0
1447,64.0,0.0,240.0,0.0,64.0
1448,66.0,240.0,240.0,0.0,64.0
1449,61.0,0.0,240.0,0.0,64.0
1450,70.0,0.0,240.0,0.0,64.0
1451,42.0,0.0,240.0,0.0,64.0
1452,54.0,240.0,960.0,0.0,64.0
1453,73.0,240.0,240.0,0.0,64.0
1454,58.0,240.0,480.0,0.0,64.0
1455,66.0,0.0,240.0,0.0,64.0
1456,76.0,0.0,240.0,0.0,64.0
1457,71.0,0.0,480.0,0.0,64.0
1458,59.0,0.0,480.0,0.0,64.0
1459,74.0,240.0,240.0,0.0,64.0
1460,78.0,0.0,240.0,0.0,64.0
1461,82.0,240.0,240.0,0.0,64.0
1462,67.0,0.0,480.0,0.0,64.0
1463,52.0,0.0,240.0,0.0,64.0
1464,50.0,0.0,240.0,0.0,64.0
1465,83.0,0.0,240.0,0.0,64.0
1466,52.0,0.0,480.0,0.0,64.0
1467,64.0,0.0,480.0,0.0,64.0
1468,73.0,240.0,240.0,0.0,64.0
1469,55.0,240.0,480.0,0.0,64.0
1470,79.0,0.0,240.0,0.0,64.0
1471,50.0,240.0,240.0,0.0,64.0
1472,66.0,0.0,480.0,0.0,64.0
1473,78.0,0.0,240.0,0.0,64.0
1474,76.0,0.0,240.0,0.0,64.0
1475,49.0,0.0,240.0,0.0,64.0
1476,46.0,120.0,240.0,0.0,64.0
1477,71.0,0.0,240.0,0.0,64.0
1478,50.0,120.0,120.0,0.0,64.0
1479,74.0,0.0,120.0,0.0,64.0
1480,47.0,0.0,480.0,0.0,64.0
1481,52.0,120.0,120.0,0.0,64.0
1482,73.0,0.0,120.0,0.0,64.0
1483,50.0,0.0,120.0,0.0,64.0
1484,83.0,0.0,120.0,0.0,64.0
1485,71.0,120.0,120.0,0.0,64.0
1486,85.0,0.0,120.0,0.0,64.0
1487,70.0,0.0,120.0,0.0,64.0
1488,49.0,120.0,120.0,0.0,64.0
1489,86.0,120.0,240.0,0.0,64.0
1490,71.0,120.0,120.0,0.0,64.0
1491,47.0,0.0,240.0,0.0,64.0
1492,83.0,0.0,120.0,0.0,64.0
1493,81.0,120.0,120.0,0.0,64.0
1494,88.0,0.0,240.0,0.0,64.0
1495,49.0,120.0,240.0,0.0,64.0
1496,79.0,0.0,120.0,0.0,64.0
1497,50.0,120.0,240.0,0.0,64.0
1498,90.0,0.0,720.0,0.0,64.0
1499,78.0,120.0,120.0,0.0,64.0
1500,76.0,0.0,120.0,0.0,64.0
1501,49.0,240.0,240.0,0.0,64.0
1502,52.0,0.0,240.0,0.0,64.0
1503,74.0,120.0,120.0,0.0,64.0
1504,73.0,0.0,120.0,0.0,64.0
1505,71.0,0.0,480.0,0.0,64.0
1506,54.0,0.0,240.0,0.0,64.0
1507,50.0,120.0,240.0,0.0,64.0
1508,88.0,120.0,120.0,0.0,64.0
1509,52.0,0.0,240.0,0.0,64.0
1510,55.0,240.0,240.0,0.0,64.0
1511,86.0,0.0,120.0,0.0,64.0
1512,54.0,240.0,240.0,0.0,64.0
1513,85.0,0.0,240.0,0.0,64.0
1514,46.0,240.0,480.0,0.0,64.0
1515,73.0,0.0,240.0,0.0,64.0
1516,82.0,0.0,240.0,0.0,64.0
1517,55.0,0.0,240.0,0.0,64.0
1518,54.0,0.0,240.0,0.0,64.0
1519,83.0,0.0,240.0,0.0,64.0
1520,74.0,240.0,240.0,0.0,64.0
1521,85.0,0.0,240.0,0.0,64.0
1522,76.0,240.0,240.0,0.0,64.0
1523,52.0,0.0,240.0,0.0,64.0
1524,50.0,0.0,240.0,0.0,64.0
1525,78.0,240.0,240.0,0.0,64.0
1526,81.0,0.0,240.0,0.0,64.0
1527,49.0,0.0,240.0,0.0,64.0
1528,47.0,240.0,240.0,0.0,64.0
1529,80.0,0.0,240.0,0.0,64.0
1530,54.0,120.0,720.0,0.0,64.0
1531,83.0,0.0,240.0,0.0,64.0
1532,50.0,240.0,240.0,0.0,64.0
1533,81.0,0.0,240.0,0.0,64.0
1534,53.0,0.0,240.0,0.0,64.0
1535,80.0,120.0,120.0,0.0,64.0
1536,78.0,240.0,120.0,0.0,64.0
1537,77.0,0.0,480.0,0.0,64.0
1538,49.0,240.0,240.0,0.0,64.0
1539,81.0,0.0,240.0,0.0,64.0
1540,83.0,0.0,240.0,0.0,64.0
1541,51.0,240.0,240.0,0.0,64.0
1542,85.0,0.0,960.0,0.0,64.0
1543,52.0,120.0,1200.0,0.0,64.0
1544,79.0,0.0,240.0,0.0,64.0
1545,47.0,240.0,240.0,0.0,64.0
1546,78.0,240.0,240.0,0.0,64.0
1547,46.0,0.0,240.0,0.0,64.0
1548,49.0,240.0,240.0,0.0,64.0
1549,81.0,0.0,240.0,0.0,64.0
1550,79.0,0.0,240.0,0.0,64.0
1551,78.0,120.0,120.0,0.0,64.0
1552,51.0,0.0,240.0,0.0,64.0
1553,76.0,240.0,120.0,0.0,64.0
1554,80.0,0.0,240.0,0.0,64.0
1555,47.0,240.0,240.0,0.0,64.0
1556,75.0,240.0,480.0,0.0,64.0
1557,49.0,0.0,240.0,0.0,64.0
1558,82.0,0.0,240.0,0.0,64.0
1559,50.0,240.0,1200.0,0.0,64.0
1560,83.0,240.0,960.0,0.0,64.0
1561,45.0,0.0,240.0,0.0,64.0
1562,78.0,240.0,240.0,0.0,64.0
1563,44.0,0.0,240.0,0.0,64.0
1564,77.0,240.0,240.0,0.0,64.0
1565,47.0,0.0,240.0,0.0,64.0
1566,80.0,0.0,240.0,0.0,64.0
1567,45.0,0.0,480.0,0.0,64.0
1568,78.0,0.0,240.0,0.0,64.0
1569,49.0,240.0,240.0,0.0,64.0
1570,76.0,0.0,240.0,0.0,64.0
1571,75.0,0.0,240.0,0.0,64.0
1572,48.0,240.0,240.0,0.0,64.0
1573,45.0,0.0,240.0,0.0,64.0
1574,49.0,240.0,240.0,0.0,64.0
1575,78.0,0.0,240.0,0.0,64.0
1576,79.0,240.0,480.0,0.0,64.0
1577,52.0,0.0,480.0,0.0,64.0
1578,48.0,0.0,240.0,0.0,64.0
1579,76.0,240.0,240.0,0.0,64.0
1580,47.0,0.0,240.0,0.0,64.0
1581,75.0,0.0,240.0,0.0,64.0
1582,46.0,240.0,240.0,0.0,64.0
1583,76.0,0.0,720.0,0.0,64.0
1584,73.0,120.0,480.0,0.0,64.0
1585,47.0,0.0,240.0,0.0,64.0
1586,55.0,0.0,240.0,0.0,64.0
1587,46.0,0.0,240.0,0.0,64.0
1588,54.0,0.0,480.0,0.0,64.0
1589,85.0,120.0,120.0,0.0,64.0
1590,86.0,240.0,120.0,0.0,64.0
1591,88.0,240.0,480.0,0.0,64.0
1592,44.0,240.0,240.0,0.0,64.0
1593,71.0,0.0,240.0,0.0,64.0
1594,70.0,0.0,240.0,0.0,64.0
1595,42.0,0.0,240.0,0.0,64.0
1596,71.0,0.0,240.0,0.0,64.0
1597,86.0,0.0,240.0,0.0,64.0
1598,43.0,0.0,240.0,0.0,64.0
1599,47.0,240.0,240.0,0.0,64.0
1600,42.0,240.0,240.0,0.0,64.0
1601,88.0,0.0,240.0,0.0,64.0
1602,73.0,0.0,240.0,0.0,64.0
1603,85.0,0.0,240.0,0.0,64.0
1604,46.0,0.0,240.0,0.0,64.0
1605,66.0,240.0,240.0,0.0,64.0
1606,49.0,240.0,240.0,0.0,64.0
1607,78.0,0.0,960.0,0.0,64.0
1608,82.0,0.0,480.0,0.0,64.0
1609,52.0,0.0,240.0,0.0,64.0
1610,42.0,240.0,240.0,0.0,64.0
1611,50.0,240.0,240.0,0.0,64.0
1612,83.0,0.0,480.0,0.0,64.0
1613,47.0,240.0,480.0,0.0,64.0
1614,54.0,0.0,240.0,0.0,64.0
1615,58.0,240.0,240.0,0.0,64.0
1616,76.0,0.0,240.0,0.0,64.0
1617,43.0,0.0,480.0,0.0,64.0
1618,59.0,0.0,240.0,0.0,64.0
1619,74.0,0.0,240.0,0.0,64.0
1620,79.0,0.0,480.0,0.0,64.0
1621,40.0,0.0,480.0,0.0,64.0
1622,49.0,240.0,240.0,0.0,64.0
1623,76.0,0.0,480.0,0.0,64.0
1624,55.0,240.0,240.0,0.0,64.0
1625,74.0,240.0,240.0,0.0,64.0
1626,42.0,960.0,480.0,0.0,64.0
1627,54.0,0.0,240.0,0.0,64.0
1628,52.0,0.0,240.0,0.0,64.0
1629,73.0,0.0,240.0,0.0,64.0
1630,70.0,0.0,240.0,0.0,64.0
1631,50.0,0.0,960.0,0.0,64.0
1632,47.0,0.0,960.0,0.0,64.0
1633,74.0,0.0,960.0,0.0,64.0
1634,71.0,0.0,960.0,0.0,64.0
