,note,step,duration,channel,velocity
0,51.0,0.0,1020.0,2.0,0.0
1,55.0,512.0,1020.0,1.0,0.0
2,48.0,512.0,1530.0,3.0,0.0
3,60.0,0.0,1020.0,0.0,0.0
4,50.0,0.0,1020.0,2.0,0.0
5,67.0,0.0,1020.0,0.0,0.0
6,55.0,0.0,1020.0,1.0,0.0
7,46.0,512.0,510.0,3.0,0.0
8,67.0,0.0,1020.0,0.0,0.0
9,60.0,512.0,510.0,1.0,0.0
10,44.0,512.0,2040.0,3.0,0.0
11,51.0,0.0,1020.0,2.0,0.0
12,59.0,512.0,510.0,1.0,0.0
13,60.0,0.0,1020.0,1.0,0.0
14,65.0,0.0,1020.0,0.0,0.0
15,50.0,512.0,510.0,2.0,0.0
16,48.0,0.0,510.0,2.0,0.0
17,59.0,512.0,1020.0,1.0,0.0
18,67.0,0.0,1020.0,0.0,0.0
19,43.0,512.0,510.0,3.0,0.0
20,50.0,0.0,1020.0,2.0,0.0
21,53.0,0.0,510.0,3.0,0.0
22,60.0,512.0,510.0,0.0,0.0
23,51.0,0.0,510.0,3.0,0.0
24,60.0,0.0,510.0,1.0,0.0
25,55.0,0.0,510.0,2.0,0.0
26,59.0,0.0,510.0,1.0,0.0
27,50.0,0.0,510.0,3.0,0.0
28,53.0,512.0,510.0,2.0,0.0
29,62.0,0.0,510.0,0.0,0.0
30,60.0,0.0,1020.0,1.0,0.0
31,55.0,512.0,1020.0,2.0,0.0
32,63.0,0.0,1020.0,0.0,0.0
33,48.0,512.0,510.0,3.0,0.0
34,46.0,0.0,510.0,3.0,0.0
35,60.0,512.0,510.0,2.0,0.0
36,60.0,0.0,1020.0,1.0,0.0
37,44.0,0.0,510.0,3.0,0.0
38,43.0,0.0,510.0,3.0,0.0
39,59.0,1024.0,510.0,2.0,0.0
40,63.0,0.0,15.0,0.0,0.0
41,60.0,256.0,1530.0,1.0,0.0
42,57.0,0.0,1020.0,2.0,0.0
43,42.0,512.0,1020.0,3.0,0.0
44,50.0,0.0,510.0,2.0,0.0
45,62.0,0.0,1020.0,0.0,0.0
46,43.0,0.0,1020.0,3.0,0.0
47,55.0,256.0,270.0,2.0,0.0
48,59.0,0.0,510.0,1.0,0.0
49,53.0,2048.0,270.0,2.0,0.0
50,55.0,0.0,2040.0,1.0,0.0
51,36.0,0.0,2040.0,3.0,0.0
52,60.0,512.0,2040.0,0.0,0.0
53,51.0,0.0,2040.0,2.0,0.0
54,48.0,512.0,510.0,3.0,0.0
55,55.0,0.0,1020.0,2.0,0.0
56,63.0,1024.0,1020.0,0.0,0.0
57,46.0,0.0,510.0,3.0,0.0
58,44.0,0.0,1020.0,3.0,0.0
59,56.0,0.0,1020.0,2.0,0.0
60,60.0,0.0,15.0,1.0,0.0
61,58.0,1024.0,1020.0,1.0,0.0
62,43.0,0.0,1020.0,3.0,0.0
63,63.0,1024.0,15.0,0.0,0.0
64,51.0,0.0,15.0,2.0,0.0
65,60.0,512.0,1020.0,0.0,0.0
66,44.0,0.0,1530.0,3.0,0.0
67,56.0,0.0,1020.0,1.0,0.0
68,58.0,512.0,1020.0,1.0,0.0
69,51.0,256.0,510.0,2.0,0.0
70,63.0,0.0,1020.0,0.0,0.0
71,43.0,0.0,510.0,3.0,0.0
72,53.0,256.0,270.0,2.0,0.0
73,55.0,0.0,270.0,2.0,0.0
74,56.0,0.0,1020.0,2.0,0.0
75,65.0,0.0,1020.0,0.0,0.0
76,41.0,0.0,1020.0,3.0,0.0
77,60.0,512.0,510.0,1.0,0.0
78,62.0,512.0,510.0,1.0,0.0
79,58.0,256.0,510.0,2.0,0.0
80,39.0,0.0,1020.0,3.0,0.0
81,63.0,512.0,1530.0,1.0,0.0
82,67.0,0.0,1020.0,0.0,0.0
83,60.0,256.0,270.0,2.0,0.0
84,58.0,256.0,270.0,2.0,0.0
85,56.0,256.0,270.0,2.0,0.0
86,65.0,0.0,1020.0,0.0,0.0
87,41.0,512.0,1020.0,3.0,0.0
88,55.0,0.0,270.0,2.0,0.0
89,56.0,0.0,510.0,2.0,0.0
90,62.0,512.0,1020.0,1.0,0.0
91,63.0,512.0,1020.0,0.0,0.0
92,55.0,0.0,1020.0,2.0,0.0
93,43.0,0.0,2040.0,3.0,0.0
94,60.0,256.0,1020.0,1.0,0.0
95,62.0,0.0,1020.0,0.0,0.0
96,55.0,256.0,780.0,2.0,0.0
97,59.0,2048.0,510.0,1.0,0.0
98,53.0,0.0,270.0,2.0,0.0
99,48.0,0.0,2040.0,3.0,0.0
100,60.0,0.0,2040.0,0.0,0.0
101,51.0,512.0,2040.0,2.0,0.0
102,55.0,0.0,2040.0,1.0,0.0
103,48.0,0.0,1020.0,3.0,0.0
104,55.0,512.0,510.0,2.0,0.0
105,60.0,512.0,1020.0,1.0,0.0
106,56.0,0.0,510.0,2.0,0.0
107,63.0,0.0,15.0,0.0,0.0
108,58.0,0.0,1020.0,2.0,0.0
109,43.0,0.0,1020.0,3.0,0.0
110,63.0,512.0,510.0,1.0,0.0
111,62.0,0.0,510.0,1.0,0.0
112,56.0,0.0,1020.0,2.0,0.0
113,63.0,512.0,15.0,0.0,0.0
114,60.0,0.0,1020.0,1.0,0.0
115,44.0,512.0,510.0,3.0,0.0
116,46.0,512.0,510.0,3.0,0.0
117,60.0,512.0,1020.0,0.0,0.0
118,48.0,512.0,510.0,3.0,0.0
119,56.0,0.0,1020.0,1.0,0.0
120,46.0,0.0,510.0,3.0,0.0
121,51.0,0.0,15.0,2.0,0.0
122,60.0,512.0,510.0,1.0,0.0
123,63.0,0.0,1020.0,0.0,0.0
124,44.0,0.0,510.0,3.0,0.0
125,58.0,512.0,510.0,1.0,0.0
126,43.0,0.0,510.0,3.0,0.0
127,56.0,0.0,1020.0,2.0,0.0
128,41.0,0.0,1020.0,3.0,0.0
129,65.0,0.0,1020.0,0.0,0.0
130,60.0,512.0,510.0,1.0,0.0
131,62.0,1024.0,510.0,1.0,0.0
132,39.0,0.0,1020.0,3.0,0.0
133,67.0,0.0,1020.0,0.0,0.0
134,58.0,512.0,1020.0,2.0,0.0
135,63.0,256.0,1530.0,1.0,0.0
136,46.0,0.0,1020.0,3.0,0.0
137,65.0,0.0,1020.0,0.0,0.0
138,58.0,256.0,780.0,2.0,0.0
139,62.0,2048.0,510.0,1.0,0.0
140,56.0,0.0,270.0,2.0,0.0
141,63.0,0.0,2040.0,0.0,0.0
142,55.0,0.0,2040.0,2.0,0.0
143,39.0,0.0,2040.0,3.0,0.0
144,58.0,1536.0,2040.0,1.0,0.0
145,70.0,0.0,1020.0,0.0,0.0
146,43.0,512.0,1020.0,3.0,0.0
147,63.0,512.0,510.0,1.0,0.0
148,58.0,0.0,1020.0,2.0,0.0
149,61.0,0.0,510.0,1.0,0.0
150,60.0,0.0,1020.0,1.0,0.0
151,72.0,512.0,1020.0,0.0,0.0
152,56.0,512.0,510.0,2.0,0.0
153,44.0,0.0,1020.0,3.0,0.0
154,55.0,0.0,510.0,2.0,0.0
155,53.0,512.0,1020.0,2.0,0.0
156,62.0,0.0,1020.0,1.0,0.0
157,70.0,512.0,510.0,0.0,0.0
158,46.0,0.0,1020.0,3.0,0.0
159,68.0,0.0,510.0,0.0,0.0
160,48.0,0.0,1530.0,3.0,0.0
161,67.0,512.0,510.0,0.0,0.0
162,51.0,0.0,510.0,2.0,0.0
163,63.0,0.0,510.0,1.0,0.0
164,59.0,512.0,510.0,1.0,0.0
165,56.0,0.0,510.0,2.0,0.0
166,65.0,0.0,510.0,0.0,0.0
167,55.0,0.0,510.0,2.0,0.0
168,63.0,0.0,510.0,0.0,0.0
169,60.0,512.0,510.0,1.0,0.0
170,65.0,0.0,510.0,0.0,0.0
171,53.0,512.0,510.0,2.0,0.0
172,50.0,0.0,510.0,3.0,0.0
173,58.0,0.0,1020.0,1.0,0.0
174,51.0,0.0,510.0,2.0,0.0
175,51.0,512.0,510.0,3.0,0.0
176,67.0,0.0,1020.0,0.0,0.0
177,58.0,0.0,510.0,2.0,0.0
178,63.0,512.0,1020.0,1.0,0.0
179,43.0,512.0,510.0,3.0,0.0
180,65.0,512.0,1020.0,0.0,0.0
181,60.0,0.0,510.0,2.0,0.0
182,45.0,0.0,510.0,3.0,0.0
183,47.0,0.0,510.0,3.0,0.0
184,62.0,0.0,1020.0,1.0,0.0
185,55.0,0.0,510.0,2.0,0.0
186,55.0,0.0,1020.0,2.0,0.0
187,63.0,0.0,1020.0,0.0,0.0
188,48.0,512.0,510.0,3.0,0.0
189,60.0,0.0,1020.0,1.0,0.0
190,39.0,512.0,510.0,3.0,0.0
191,62.0,0.0,1020.0,0.0,0.0
192,56.0,0.0,510.0,2.0,0.0
193,41.0,256.0,510.0,3.0,0.0
194,55.0,256.0,270.0,2.0,0.0
195,59.0,4096.0,510.0,1.0,0.0
196,43.0,0.0,510.0,3.0,0.0
197,53.0,0.0,270.0,2.0,0.0
198,52.0,0.0,4110.0,2.0,0.0
199,60.0,0.0,4110.0,0.0,0.0
200,36.0,0.0,4110.0,3.0,0.0
201,55.0,0.0,4110.0,1.0,0.0
