,note,step,duration,channel,velocity
0,47.0,240.0,240.0,2.0,0.0
1,75.0,120.0,840.0,0.0,0.0
2,51.0,240.0,240.0,2.0,0.0
3,54.0,120.0,240.0,2.0,0.0
4,59.0,120.0,240.0,2.0,0.0
5,76.0,0.0,120.0,0.0,0.0
6,78.0,120.0,120.0,0.0,0.0
7,63.0,0.0,240.0,2.0,0.0
8,76.0,120.0,120.0,0.0,0.0
9,56.0,240.0,240.0,2.0,0.0
10,78.0,120.0,120.0,0.0,0.0
11,80.0,0.0,120.0,0.0,0.0
12,46.0,240.0,240.0,2.0,0.0
13,73.0,120.0,840.0,0.0,0.0
14,49.0,240.0,240.0,2.0,0.0
15,54.0,120.0,240.0,2.0,0.0
16,58.0,0.0,240.0,2.0,0.0
17,75.0,120.0,120.0,0.0,0.0
18,61.0,120.0,240.0,2.0,0.0
19,76.0,120.0,120.0,0.0,0.0
20,75.0,0.0,120.0,0.0,0.0
21,54.0,0.0,240.0,2.0,0.0
22,76.0,120.0,120.0,0.0,0.0
23,78.0,240.0,120.0,0.0,0.0
24,75.0,120.0,840.0,1.0,0.0
25,44.0,240.0,240.0,2.0,0.0
26,71.0,0.0,720.0,0.0,0.0
27,47.0,240.0,240.0,2.0,0.0
28,51.0,120.0,240.0,2.0,0.0
29,83.0,0.0,960.0,0.0,0.0
30,56.0,0.0,240.0,2.0,0.0
31,76.0,120.0,120.0,1.0,0.0
32,51.0,0.0,240.0,2.0,0.0
33,78.0,120.0,120.0,1.0,0.0
34,76.0,120.0,120.0,1.0,0.0
35,78.0,120.0,120.0,1.0,0.0
36,53.0,0.0,240.0,2.0,0.0
37,80.0,240.0,120.0,1.0,0.0
38,42.0,120.0,240.0,2.0,0.0
39,73.0,120.0,840.0,1.0,0.0
40,85.0,120.0,120.0,0.0,0.0
41,46.0,120.0,240.0,2.0,0.0
42,83.0,0.0,120.0,0.0,0.0
43,82.0,120.0,120.0,0.0,0.0
44,49.0,120.0,240.0,2.0,0.0
45,83.0,0.0,120.0,0.0,0.0
46,54.0,120.0,240.0,2.0,0.0
47,85.0,0.0,240.0,0.0,0.0
48,75.0,0.0,120.0,1.0,0.0
49,58.0,120.0,240.0,2.0,0.0
50,76.0,120.0,120.0,1.0,0.0
51,75.0,0.0,120.0,1.0,0.0
52,76.0,120.0,120.0,1.0,0.0
53,49.0,120.0,240.0,2.0,0.0
54,78.0,0.0,120.0,1.0,0.0
55,71.0,120.0,720.0,1.0,0.0
56,51.0,120.0,120.0,2.0,0.0
57,49.0,120.0,120.0,2.0,0.0
58,51.0,0.0,120.0,2.0,0.0
59,78.0,120.0,120.0,0.0,0.0
60,52.0,0.0,120.0,2.0,0.0
61,76.0,120.0,120.0,0.0,0.0
62,54.0,120.0,360.0,2.0,0.0
63,75.0,120.0,120.0,0.0,0.0
64,73.0,0.0,120.0,0.0,0.0
65,75.0,120.0,240.0,0.0,0.0
66,83.0,0.0,960.0,1.0,0.0
67,47.0,0.0,120.0,2.0,0.0
68,76.0,0.0,120.0,0.0,0.0
69,49.0,120.0,120.0,2.0,0.0
70,75.0,120.0,120.0,0.0,0.0
71,51.0,0.0,120.0,2.0,0.0
72,73.0,0.0,120.0,0.0,0.0
73,52.0,120.0,120.0,2.0,0.0
74,75.0,0.0,120.0,0.0,0.0
75,54.0,120.0,120.0,2.0,0.0
76,71.0,120.0,240.0,0.0,0.0
77,56.0,120.0,120.0,2.0,0.0
78,54.0,0.0,120.0,2.0,0.0
79,52.0,0.0,120.0,2.0,0.0
80,85.0,120.0,120.0,1.0,0.0
81,80.0,120.0,240.0,0.0,0.0
82,51.0,0.0,120.0,2.0,0.0
83,83.0,0.0,120.0,1.0,0.0
84,78.0,0.0,240.0,0.0,0.0
85,82.0,0.0,120.0,1.0,0.0
86,52.0,120.0,120.0,2.0,0.0
87,56.0,120.0,120.0,2.0,0.0
88,83.0,0.0,120.0,1.0,0.0
89,76.0,120.0,240.0,0.0,0.0
90,85.0,0.0,240.0,1.0,0.0
91,46.0,120.0,120.0,2.0,0.0
92,49.0,0.0,120.0,2.0,0.0
93,47.0,120.0,120.0,2.0,0.0
94,82.0,120.0,240.0,0.0,0.0
95,46.0,0.0,120.0,2.0,0.0
96,44.0,120.0,120.0,2.0,0.0
97,85.0,120.0,240.0,0.0,0.0
98,42.0,0.0,120.0,2.0,0.0
99,75.0,0.0,480.0,0.0,0.0
100,47.0,120.0,120.0,2.0,0.0
101,46.0,120.0,120.0,2.0,0.0
102,47.0,120.0,120.0,2.0,0.0
103,78.0,0.0,120.0,1.0,0.0
104,76.0,0.0,120.0,1.0,0.0
105,49.0,120.0,120.0,2.0,0.0
106,51.0,120.0,120.0,2.0,0.0
107,83.0,120.0,240.0,0.0,0.0
108,75.0,0.0,120.0,1.0,0.0
109,73.0,0.0,120.0,1.0,0.0
110,52.0,0.0,120.0,2.0,0.0
111,54.0,120.0,120.0,2.0,0.0
112,75.0,0.0,240.0,1.0,0.0
113,83.0,120.0,480.0,0.0,0.0
114,56.0,120.0,120.0,2.0,0.0
115,49.0,120.0,120.0,2.0,0.0
116,76.0,0.0,120.0,1.0,0.0
117,51.0,0.0,120.0,2.0,0.0
118,75.0,0.0,120.0,1.0,0.0
119,52.0,120.0,120.0,2.0,0.0
120,73.0,0.0,120.0,1.0,0.0
121,82.0,120.0,240.0,0.0,0.0
122,49.0,0.0,120.0,2.0,0.0
123,75.0,0.0,120.0,1.0,0.0
124,71.0,120.0,240.0,1.0,0.0
125,51.0,120.0,120.0,2.0,0.0
126,49.0,0.0,120.0,2.0,0.0
127,47.0,120.0,120.0,2.0,0.0
128,80.0,0.0,240.0,1.0,0.0
129,46.0,240.0,120.0,2.0,0.0
130,47.0,120.0,360.0,2.0,0.0
131,78.0,0.0,240.0,1.0,0.0
132,87.0,120.0,240.0,0.0,0.0
133,76.0,120.0,240.0,1.0,0.0
134,85.0,0.0,480.0,0.0,0.0
135,46.0,0.0,120.0,2.0,0.0
136,44.0,120.0,120.0,2.0,0.0
137,82.0,0.0,240.0,1.0,0.0
138,42.0,120.0,120.0,2.0,0.0
139,85.0,120.0,240.0,1.0,0.0
140,78.0,0.0,360.0,0.0,0.0
141,44.0,120.0,120.0,2.0,0.0
142,46.0,0.0,120.0,2.0,0.0
143,47.0,120.0,120.0,2.0,0.0
144,75.0,0.0,480.0,1.0,0.0
145,80.0,120.0,120.0,0.0,0.0
146,46.0,0.0,120.0,2.0,0.0
147,47.0,0.0,120.0,2.0,0.0
148,78.0,120.0,120.0,0.0,0.0
149,49.0,0.0,120.0,2.0,0.0
150,76.0,120.0,120.0,0.0,0.0
151,47.0,120.0,120.0,2.0,0.0
152,75.0,0.0,240.0,0.0,0.0
153,46.0,120.0,120.0,2.0,0.0
154,80.0,120.0,240.0,0.0,0.0
155,83.0,0.0,15.0,1.0,0.0
156,44.0,120.0,120.0,2.0,0.0
157,46.0,0.0,120.0,2.0,0.0
158,47.0,120.0,120.0,2.0,0.0
159,75.0,0.0,240.0,0.0,0.0
160,44.0,0.0,120.0,2.0,0.0
161,46.0,120.0,120.0,2.0,0.0
162,78.0,0.0,240.0,0.0,0.0
163,82.0,120.0,240.0,1.0,0.0
164,47.0,0.0,120.0,2.0,0.0
165,77.0,120.0,240.0,0.0,0.0
166,49.0,120.0,120.0,2.0,0.0
167,47.0,0.0,120.0,2.0,0.0
168,49.0,120.0,120.0,2.0,0.0
169,78.0,0.0,240.0,0.0,0.0
170,51.0,120.0,120.0,2.0,0.0
171,80.0,120.0,480.0,0.0,0.0
172,87.0,120.0,240.0,1.0,0.0
173,49.0,120.0,120.0,2.0,0.0
174,47.0,0.0,120.0,2.0,0.0
175,46.0,120.0,120.0,2.0,0.0
176,85.0,0.0,240.0,1.0,0.0
177,58.0,0.0,120.0,2.0,0.0
178,59.0,120.0,120.0,2.0,0.0
179,77.0,0.0,240.0,0.0,0.0
180,58.0,120.0,120.0,2.0,0.0
181,73.0,120.0,240.0,0.0,0.0
182,56.0,120.0,120.0,2.0,0.0
183,78.0,0.0,360.0,1.0,0.0
184,58.0,0.0,120.0,2.0,0.0
185,51.0,120.0,120.0,2.0,0.0
186,80.0,0.0,120.0,1.0,0.0
187,49.0,120.0,120.0,2.0,0.0
188,51.0,120.0,120.0,2.0,0.0
189,78.0,0.0,120.0,1.0,0.0
190,76.0,0.0,120.0,1.0,0.0
191,52.0,120.0,120.0,2.0,0.0
192,78.0,120.0,240.0,0.0,0.0
193,75.0,0.0,240.0,1.0,0.0
194,54.0,120.0,120.0,2.0,0.0
195,51.0,0.0,120.0,2.0,0.0
196,53.0,120.0,120.0,2.0,0.0
197,71.0,0.0,960.0,0.0,0.0
198,80.0,0.0,240.0,1.0,0.0
199,54.0,120.0,120.0,2.0,0.0
200,75.0,120.0,240.0,1.0,0.0
201,56.0,120.0,120.0,2.0,0.0
202,54.0,0.0,120.0,2.0,0.0
203,78.0,0.0,240.0,1.0,0.0
204,53.0,120.0,120.0,2.0,0.0
205,51.0,120.0,120.0,2.0,0.0
206,49.0,120.0,120.0,2.0,0.0
207,77.0,120.0,240.0,1.0,0.0
208,56.0,0.0,120.0,2.0,0.0
209,54.0,120.0,120.0,2.0,0.0
210,78.0,0.0,240.0,1.0,0.0
211,70.0,120.0,240.0,0.0,0.0
212,53.0,0.0,120.0,2.0,0.0
213,80.0,120.0,480.0,1.0,0.0
214,54.0,120.0,120.0,2.0,0.0
215,71.0,0.0,240.0,0.0,0.0
216,51.0,120.0,120.0,2.0,0.0
217,53.0,120.0,120.0,2.0,0.0
218,68.0,0.0,240.0,0.0,0.0
219,49.0,0.0,120.0,2.0,0.0
220,73.0,120.0,120.0,0.0,0.0
221,51.0,0.0,120.0,2.0,0.0
222,77.0,0.0,240.0,1.0,0.0
223,53.0,0.0,120.0,2.0,0.0
224,71.0,120.0,120.0,0.0,0.0
225,54.0,120.0,120.0,2.0,0.0
226,70.0,0.0,120.0,0.0,0.0
227,73.0,120.0,240.0,1.0,0.0
228,68.0,0.0,120.0,0.0,0.0
229,56.0,0.0,120.0,2.0,0.0
230,58.0,120.0,120.0,2.0,0.0
231,66.0,0.0,240.0,0.0,0.0
232,51.0,120.0,120.0,2.0,0.0
233,53.0,120.0,120.0,2.0,0.0
234,68.0,0.0,120.0,0.0,0.0
235,70.0,0.0,120.0,0.0,0.0
236,54.0,120.0,120.0,2.0,0.0
237,56.0,120.0,120.0,2.0,0.0
238,78.0,0.0,240.0,1.0,0.0
239,71.0,0.0,120.0,0.0,0.0
240,73.0,120.0,120.0,0.0,0.0
241,58.0,0.0,120.0,2.0,0.0
242,71.0,120.0,960.0,1.0,0.0
243,59.0,120.0,120.0,2.0,0.0
244,75.0,120.0,240.0,0.0,0.0
245,58.0,0.0,120.0,2.0,0.0
246,56.0,120.0,120.0,2.0,0.0
247,78.0,120.0,240.0,0.0,0.0
248,54.0,0.0,120.0,2.0,0.0
249,77.0,0.0,240.0,0.0,0.0
250,56.0,120.0,120.0,2.0,0.0
251,50.0,120.0,120.0,2.0,0.0
252,78.0,0.0,960.0,0.0,0.0
253,51.0,120.0,120.0,2.0,0.0
254,53.0,0.0,120.0,2.0,0.0
255,54.0,120.0,120.0,2.0,0.0
256,70.0,120.0,240.0,1.0,0.0
257,53.0,0.0,120.0,2.0,0.0
258,51.0,120.0,120.0,2.0,0.0
259,71.0,120.0,240.0,1.0,0.0
260,49.0,0.0,120.0,2.0,0.0
261,47.0,120.0,120.0,2.0,0.0
262,68.0,0.0,240.0,1.0,0.0
263,46.0,120.0,120.0,2.0,0.0
264,73.0,120.0,120.0,1.0,0.0
265,77.0,0.0,240.0,0.0,0.0
266,47.0,0.0,120.0,2.0,0.0
267,51.0,0.0,120.0,2.0,0.0
268,71.0,120.0,120.0,1.0,0.0
269,49.0,0.0,120.0,2.0,0.0
270,70.0,120.0,120.0,1.0,0.0
271,47.0,0.0,120.0,2.0,0.0
272,68.0,120.0,120.0,1.0,0.0
273,46.0,120.0,120.0,2.0,0.0
274,78.0,120.0,840.0,0.0,0.0
275,66.0,120.0,240.0,1.0,0.0
276,49.0,0.0,120.0,2.0,0.0
277,68.0,120.0,120.0,1.0,0.0
278,47.0,0.0,120.0,2.0,0.0
279,46.0,0.0,120.0,2.0,0.0
280,70.0,120.0,120.0,1.0,0.0
281,44.0,0.0,120.0,2.0,0.0
282,71.0,120.0,120.0,1.0,0.0
283,42.0,120.0,120.0,2.0,0.0
284,73.0,0.0,120.0,1.0,0.0
285,75.0,0.0,240.0,1.0,0.0
286,47.0,120.0,240.0,2.0,0.0
287,73.0,0.0,120.0,0.0,0.0
288,71.0,120.0,120.0,0.0,0.0
289,78.0,0.0,240.0,1.0,0.0
290,44.0,120.0,240.0,2.0,0.0
291,70.0,0.0,120.0,0.0,0.0
292,77.0,0.0,240.0,1.0,0.0
293,49.0,0.0,240.0,2.0,0.0
294,71.0,120.0,120.0,0.0,0.0
295,68.0,120.0,120.0,0.0,0.0
296,70.0,240.0,1440.0,0.0,0.0
297,78.0,0.0,1440.0,1.0,0.0
298,42.0,120.0,120.0,2.0,0.0
299,46.0,120.0,120.0,2.0,0.0
300,49.0,120.0,120.0,2.0,0.0
301,54.0,120.0,120.0,2.0,0.0
302,49.0,120.0,120.0,2.0,0.0
303,46.0,720.0,120.0,2.0,0.0
304,42.0,0.0,720.0,2.0,0.0
305,47.0,240.0,240.0,2.0,0.0
306,75.0,120.0,840.0,0.0,0.0
307,51.0,240.0,240.0,2.0,0.0
308,54.0,120.0,240.0,2.0,0.0
309,59.0,120.0,240.0,2.0,0.0
310,76.0,0.0,120.0,0.0,0.0
311,78.0,120.0,120.0,0.0,0.0
312,63.0,0.0,240.0,2.0,0.0
313,76.0,120.0,120.0,0.0,0.0
314,78.0,120.0,120.0,0.0,0.0
315,56.0,0.0,240.0,2.0,0.0
316,80.0,240.0,120.0,0.0,0.0
317,46.0,240.0,240.0,2.0,0.0
318,73.0,120.0,840.0,0.0,0.0
319,49.0,240.0,240.0,2.0,0.0
320,54.0,120.0,240.0,2.0,0.0
321,58.0,0.0,240.0,2.0,0.0
322,75.0,120.0,120.0,0.0,0.0
323,76.0,120.0,120.0,0.0,0.0
324,61.0,0.0,240.0,2.0,0.0
325,75.0,120.0,120.0,0.0,0.0
326,54.0,240.0,240.0,2.0,0.0
327,76.0,120.0,120.0,0.0,0.0
328,78.0,0.0,120.0,0.0,0.0
329,75.0,120.0,840.0,1.0,0.0
330,71.0,120.0,720.0,0.0,0.0
331,44.0,240.0,240.0,2.0,0.0
332,47.0,240.0,240.0,2.0,0.0
333,51.0,0.0,240.0,2.0,0.0
334,83.0,0.0,960.0,0.0,0.0
335,56.0,0.0,240.0,2.0,0.0
336,76.0,120.0,120.0,1.0,0.0
337,51.0,120.0,240.0,2.0,0.0
338,78.0,120.0,120.0,1.0,0.0
339,76.0,0.0,120.0,1.0,0.0
340,78.0,120.0,120.0,1.0,0.0
341,53.0,240.0,240.0,2.0,0.0
342,80.0,0.0,120.0,1.0,0.0
343,73.0,120.0,840.0,1.0,0.0
344,42.0,120.0,240.0,2.0,0.0
345,85.0,120.0,120.0,0.0,0.0
346,46.0,0.0,240.0,2.0,0.0
347,83.0,120.0,120.0,0.0,0.0
348,49.0,0.0,240.0,2.0,0.0
349,82.0,120.0,120.0,0.0,0.0
350,83.0,120.0,120.0,0.0,0.0
351,85.0,0.0,240.0,0.0,0.0
352,54.0,120.0,240.0,2.0,0.0
353,75.0,0.0,120.0,1.0,0.0
354,58.0,0.0,240.0,2.0,0.0
355,76.0,120.0,120.0,1.0,0.0
356,75.0,120.0,120.0,1.0,0.0
357,76.0,120.0,120.0,1.0,0.0
358,49.0,120.0,240.0,2.0,0.0
359,78.0,0.0,120.0,1.0,0.0
360,71.0,0.0,720.0,1.0,0.0
361,51.0,120.0,120.0,2.0,0.0
362,49.0,120.0,120.0,2.0,0.0
363,78.0,120.0,120.0,0.0,0.0
364,51.0,0.0,120.0,2.0,0.0
365,52.0,120.0,120.0,2.0,0.0
366,76.0,0.0,120.0,0.0,0.0
367,75.0,120.0,120.0,0.0,0.0
368,54.0,120.0,360.0,2.0,0.0
369,73.0,120.0,120.0,0.0,0.0
370,75.0,120.0,240.0,0.0,0.0
371,83.0,120.0,960.0,1.0,0.0
372,47.0,0.0,120.0,2.0,0.0
373,76.0,0.0,120.0,0.0,0.0
374,49.0,120.0,120.0,2.0,0.0
375,75.0,120.0,120.0,0.0,0.0
376,51.0,0.0,120.0,2.0,0.0
377,52.0,0.0,120.0,2.0,0.0
378,73.0,120.0,120.0,0.0,0.0
379,54.0,0.0,120.0,2.0,0.0
380,75.0,120.0,120.0,0.0,0.0
381,71.0,0.0,240.0,0.0,0.0
382,56.0,120.0,120.0,2.0,0.0
383,54.0,0.0,120.0,2.0,0.0
384,52.0,120.0,120.0,2.0,0.0
385,85.0,0.0,120.0,1.0,0.0
386,80.0,120.0,240.0,0.0,0.0
387,83.0,0.0,120.0,1.0,0.0
388,51.0,0.0,120.0,2.0,0.0
389,52.0,120.0,120.0,2.0,0.0
390,82.0,0.0,120.0,1.0,0.0
391,78.0,0.0,240.0,0.0,0.0
392,56.0,120.0,120.0,2.0,0.0
393,83.0,0.0,120.0,1.0,0.0
394,76.0,120.0,240.0,0.0,0.0
395,46.0,120.0,120.0,2.0,0.0
396,85.0,0.0,240.0,1.0,0.0
397,49.0,0.0,120.0,2.0,0.0
398,82.0,0.0,240.0,0.0,0.0
399,47.0,120.0,120.0,2.0,0.0
400,46.0,120.0,120.0,2.0,0.0
401,44.0,120.0,120.0,2.0,0.0
402,85.0,120.0,240.0,0.0,0.0
403,42.0,0.0,120.0,2.0,0.0
404,47.0,120.0,120.0,2.0,0.0
405,75.0,0.0,480.0,0.0,0.0
406,46.0,120.0,120.0,2.0,0.0
407,47.0,0.0,120.0,2.0,0.0
408,78.0,120.0,120.0,1.0,0.0
409,49.0,120.0,120.0,2.0,0.0
410,76.0,0.0,120.0,1.0,0.0
411,51.0,0.0,120.0,2.0,0.0
412,75.0,120.0,120.0,1.0,0.0
413,73.0,0.0,120.0,1.0,0.0
414,52.0,120.0,120.0,2.0,0.0
415,54.0,120.0,120.0,2.0,0.0
416,83.0,0.0,15.0,0.0,0.0
417,75.0,120.0,240.0,1.0,0.0
418,56.0,0.0,120.0,2.0,0.0
419,76.0,0.0,120.0,1.0,0.0
420,49.0,120.0,120.0,2.0,0.0
421,51.0,0.0,120.0,2.0,0.0
422,75.0,120.0,120.0,1.0,0.0
423,82.0,0.0,240.0,0.0,0.0
424,52.0,0.0,120.0,2.0,0.0
425,73.0,120.0,120.0,1.0,0.0
426,75.0,120.0,120.0,1.0,0.0
427,49.0,0.0,120.0,2.0,0.0
428,51.0,120.0,120.0,2.0,0.0
429,71.0,0.0,240.0,1.0,0.0
430,49.0,120.0,120.0,2.0,0.0
431,47.0,120.0,120.0,2.0,0.0
432,80.0,0.0,240.0,1.0,0.0
433,46.0,240.0,120.0,2.0,0.0
434,47.0,120.0,360.0,2.0,0.0
435,87.0,120.0,240.0,0.0,0.0
436,78.0,0.0,240.0,1.0,0.0
437,76.0,0.0,240.0,1.0,0.0
438,85.0,0.0,480.0,0.0,0.0
439,46.0,120.0,120.0,2.0,0.0
440,82.0,0.0,240.0,1.0,0.0
441,44.0,120.0,120.0,2.0,0.0
442,42.0,120.0,120.0,2.0,0.0
443,85.0,120.0,240.0,1.0,0.0
444,78.0,0.0,360.0,0.0,0.0
445,44.0,120.0,120.0,2.0,0.0
446,46.0,0.0,120.0,2.0,0.0
447,75.0,0.0,480.0,1.0,0.0
448,47.0,120.0,120.0,2.0,0.0
449,46.0,120.0,120.0,2.0,0.0
450,80.0,0.0,120.0,0.0,0.0
451,78.0,120.0,120.0,0.0,0.0
452,47.0,0.0,120.0,2.0,0.0
453,76.0,120.0,120.0,0.0,0.0
454,49.0,0.0,120.0,2.0,0.0
455,75.0,0.0,240.0,0.0,0.0
456,47.0,120.0,120.0,2.0,0.0
457,46.0,120.0,120.0,2.0,0.0
458,83.0,0.0,15.0,1.0,0.0
459,44.0,120.0,120.0,2.0,0.0
460,80.0,120.0,240.0,0.0,0.0
461,46.0,0.0,120.0,2.0,0.0
462,47.0,120.0,120.0,2.0,0.0
463,75.0,0.0,240.0,0.0,0.0
464,44.0,0.0,120.0,2.0,0.0
465,82.0,0.0,240.0,1.0,0.0
466,78.0,0.0,240.0,0.0,0.0
467,46.0,120.0,120.0,2.0,0.0
468,47.0,120.0,120.0,2.0,0.0
469,77.0,120.0,240.0,0.0,0.0
470,49.0,120.0,120.0,2.0,0.0
471,47.0,0.0,120.0,2.0,0.0
472,78.0,120.0,240.0,0.0,0.0
473,49.0,120.0,120.0,2.0,0.0
474,51.0,0.0,120.0,2.0,0.0
475,49.0,120.0,120.0,2.0,0.0
476,87.0,0.0,240.0,1.0,0.0
477,80.0,0.0,480.0,0.0,0.0
478,47.0,120.0,120.0,2.0,0.0
479,85.0,120.0,240.0,1.0,0.0
480,46.0,120.0,120.0,2.0,0.0
481,58.0,0.0,120.0,2.0,0.0
482,77.0,120.0,240.0,0.0,0.0
483,59.0,120.0,120.0,2.0,0.0
484,58.0,0.0,120.0,2.0,0.0
485,73.0,0.0,240.0,0.0,0.0
486,78.0,120.0,360.0,1.0,0.0
487,56.0,120.0,120.0,2.0,0.0
488,58.0,120.0,120.0,2.0,0.0
489,51.0,0.0,120.0,2.0,0.0
490,80.0,0.0,120.0,1.0,0.0
491,49.0,120.0,120.0,2.0,0.0
492,78.0,120.0,120.0,1.0,0.0
493,51.0,0.0,120.0,2.0,0.0
494,52.0,0.0,120.0,2.0,0.0
495,76.0,120.0,120.0,1.0,0.0
496,54.0,120.0,120.0,2.0,0.0
497,78.0,120.0,240.0,0.0,0.0
498,75.0,0.0,240.0,1.0,0.0
499,51.0,0.0,120.0,2.0,0.0
500,80.0,120.0,240.0,1.0,0.0
501,71.0,0.0,960.0,0.0,0.0
502,53.0,120.0,120.0,2.0,0.0
503,54.0,0.0,120.0,2.0,0.0
504,56.0,120.0,120.0,2.0,0.0
505,75.0,120.0,240.0,1.0,0.0
506,54.0,0.0,120.0,2.0,0.0
507,53.0,120.0,120.0,2.0,0.0
508,78.0,0.0,240.0,1.0,0.0
509,51.0,120.0,120.0,2.0,0.0
510,77.0,120.0,240.0,1.0,0.0
511,49.0,120.0,120.0,2.0,0.0
512,56.0,0.0,120.0,2.0,0.0
513,54.0,120.0,120.0,2.0,0.0
514,70.0,120.0,240.0,0.0,0.0
515,78.0,0.0,240.0,1.0,0.0
516,53.0,0.0,120.0,2.0,0.0
517,71.0,0.0,240.0,0.0,0.0
518,54.0,120.0,120.0,2.0,0.0
519,80.0,0.0,480.0,1.0,0.0
520,51.0,120.0,120.0,2.0,0.0
521,68.0,0.0,240.0,0.0,0.0
522,53.0,120.0,120.0,2.0,0.0
523,49.0,120.0,120.0,2.0,0.0
524,77.0,0.0,240.0,1.0,0.0
525,51.0,0.0,120.0,2.0,0.0
526,73.0,120.0,120.0,0.0,0.0
527,53.0,0.0,120.0,2.0,0.0
528,71.0,120.0,120.0,0.0,0.0
529,54.0,0.0,120.0,2.0,0.0
530,73.0,0.0,240.0,1.0,0.0
531,70.0,120.0,120.0,0.0,0.0
532,68.0,0.0,120.0,0.0,0.0
533,56.0,120.0,120.0,2.0,0.0
534,58.0,120.0,120.0,2.0,0.0
535,66.0,120.0,240.0,0.0,0.0
536,51.0,0.0,120.0,2.0,0.0
537,53.0,0.0,120.0,2.0,0.0
538,68.0,120.0,120.0,0.0,0.0
539,54.0,0.0,120.0,2.0,0.0
540,70.0,120.0,120.0,0.0,0.0
541,56.0,0.0,120.0,2.0,0.0
542,71.0,120.0,120.0,0.0,0.0
543,78.0,120.0,240.0,1.0,0.0
544,73.0,0.0,120.0,0.0,0.0
545,58.0,0.0,120.0,2.0,0.0
546,59.0,120.0,120.0,2.0,0.0
547,75.0,120.0,240.0,0.0,0.0
548,71.0,120.0,960.0,1.0,0.0
549,58.0,0.0,120.0,2.0,0.0
550,56.0,120.0,120.0,2.0,0.0
551,78.0,0.0,240.0,0.0,0.0
552,54.0,120.0,120.0,2.0,0.0
553,77.0,120.0,240.0,0.0,0.0
554,56.0,120.0,120.0,2.0,0.0
555,50.0,0.0,120.0,2.0,0.0
556,51.0,120.0,120.0,2.0,0.0
557,78.0,0.0,960.0,0.0,0.0
558,53.0,0.0,120.0,2.0,0.0
559,54.0,120.0,120.0,2.0,0.0
560,70.0,0.0,240.0,1.0,0.0
561,53.0,120.0,120.0,2.0,0.0
562,71.0,120.0,240.0,1.0,0.0
563,51.0,120.0,120.0,2.0,0.0
564,49.0,0.0,120.0,2.0,0.0
565,68.0,0.0,240.0,1.0,0.0
566,47.0,120.0,120.0,2.0,0.0
567,46.0,120.0,120.0,2.0,0.0
568,47.0,120.0,120.0,2.0,0.0
569,77.0,120.0,240.0,0.0,0.0
570,73.0,0.0,120.0,1.0,0.0
571,71.0,0.0,120.0,1.0,0.0
572,51.0,0.0,120.0,2.0,0.0
573,70.0,120.0,120.0,1.0,0.0
574,49.0,0.0,120.0,2.0,0.0
575,47.0,0.0,120.0,2.0,0.0
576,68.0,120.0,120.0,1.0,0.0
577,78.0,120.0,840.0,0.0,0.0
578,66.0,0.0,240.0,1.0,0.0
579,46.0,120.0,120.0,2.0,0.0
580,49.0,120.0,120.0,2.0,0.0
581,68.0,0.0,120.0,1.0,0.0
582,47.0,120.0,120.0,2.0,0.0
583,70.0,0.0,120.0,1.0,0.0
584,46.0,120.0,120.0,2.0,0.0
585,71.0,120.0,120.0,1.0,0.0
586,44.0,0.0,120.0,2.0,0.0
587,42.0,120.0,120.0,2.0,0.0
588,73.0,0.0,120.0,1.0,0.0
589,75.0,120.0,240.0,1.0,0.0
590,47.0,0.0,240.0,2.0,0.0
591,73.0,0.0,120.0,0.0,0.0
592,44.0,120.0,240.0,2.0,0.0
593,71.0,120.0,120.0,0.0,0.0
594,78.0,0.0,240.0,1.0,0.0
595,70.0,0.0,120.0,0.0,0.0
596,71.0,120.0,120.0,0.0,0.0
597,77.0,0.0,240.0,1.0,0.0
598,49.0,0.0,240.0,2.0,0.0
599,68.0,120.0,120.0,0.0,0.0
600,42.0,120.0,120.0,2.0,0.0
601,78.0,0.0,1440.0,1.0,0.0
602,70.0,240.0,1440.0,0.0,0.0
603,46.0,120.0,120.0,2.0,0.0
604,49.0,120.0,120.0,2.0,0.0
605,54.0,120.0,120.0,2.0,0.0
606,49.0,120.0,120.0,2.0,0.0
607,46.0,720.0,120.0,2.0,0.0
608,42.0,0.0,720.0,2.0,0.0
609,54.0,240.0,240.0,2.0,0.0
610,58.0,240.0,240.0,2.0,0.0
611,61.0,240.0,240.0,2.0,0.0
612,85.0,120.0,840.0,0.0,0.0
613,66.0,120.0,240.0,2.0,0.0
614,64.0,120.0,120.0,2.0,0.0
615,63.0,120.0,120.0,2.0,0.0
616,61.0,120.0,120.0,2.0,0.0
617,59.0,120.0,120.0,2.0,0.0
618,58.0,0.0,240.0,2.0,0.0
619,87.0,120.0,120.0,0.0,0.0
620,61.0,0.0,240.0,2.0,0.0
621,88.0,120.0,120.0,0.0,0.0
622,85.0,120.0,120.0,0.0,0.0
623,54.0,120.0,240.0,2.0,0.0
624,87.0,120.0,120.0,0.0,0.0
625,88.0,0.0,120.0,0.0,0.0
626,87.0,120.0,120.0,0.0,0.0
627,59.0,120.0,240.0,2.0,0.0
628,85.0,0.0,120.0,0.0,0.0
629,61.0,0.0,240.0,2.0,0.0
630,83.0,120.0,120.0,0.0,0.0
631,82.0,120.0,120.0,0.0,0.0
632,80.0,120.0,120.0,0.0,0.0
633,63.0,0.0,240.0,2.0,0.0
634,79.0,120.0,120.0,0.0,0.0
635,64.0,120.0,120.0,2.0,0.0
636,80.0,0.0,240.0,0.0,0.0
637,66.0,120.0,120.0,2.0,0.0
638,82.0,0.0,240.0,0.0,0.0
639,64.0,120.0,120.0,2.0,0.0
640,63.0,120.0,120.0,2.0,0.0
641,61.0,120.0,120.0,2.0,0.0
642,83.0,120.0,480.0,0.0,0.0
643,59.0,120.0,120.0,2.0,0.0
644,58.0,120.0,120.0,2.0,0.0
645,85.0,120.0,840.0,1.0,0.0
646,56.0,0.0,120.0,2.0,0.0
647,82.0,0.0,240.0,0.0,0.0
648,58.0,120.0,120.0,2.0,0.0
649,59.0,120.0,120.0,2.0,0.0
650,80.0,0.0,240.0,0.0,0.0
651,61.0,120.0,120.0,2.0,0.0
652,58.0,120.0,120.0,2.0,0.0
653,79.0,120.0,1200.0,0.0,0.0
654,63.0,120.0,240.0,2.0,0.0
655,87.0,0.0,120.0,1.0,0.0
656,88.0,120.0,120.0,1.0,0.0
657,58.0,0.0,240.0,2.0,0.0
658,85.0,120.0,120.0,1.0,0.0
659,59.0,0.0,240.0,2.0,0.0
660,87.0,120.0,120.0,1.0,0.0
661,88.0,120.0,120.0,1.0,0.0
662,87.0,120.0,120.0,1.0,0.0
663,61.0,0.0,120.0,2.0,0.0
664,85.0,0.0,120.0,1.0,0.0
665,64.0,120.0,120.0,2.0,0.0
666,83.0,120.0,120.0,1.0,0.0
667,63.0,0.0,120.0,2.0,0.0
668,82.0,0.0,120.0,1.0,0.0
669,61.0,0.0,120.0,2.0,0.0
670,80.0,0.0,120.0,1.0,0.0
671,59.0,120.0,120.0,2.0,0.0
672,79.0,0.0,120.0,1.0,0.0
673,58.0,120.0,120.0,2.0,0.0
674,59.0,120.0,120.0,2.0,0.0
675,80.0,120.0,240.0,1.0,0.0
676,61.0,0.0,120.0,2.0,0.0
677,59.0,120.0,120.0,2.0,0.0
678,82.0,120.0,240.0,1.0,0.0
679,58.0,0.0,120.0,2.0,0.0
680,56.0,120.0,120.0,2.0,0.0
681,83.0,120.0,480.0,1.0,0.0
682,54.0,120.0,120.0,2.0,0.0
683,52.0,120.0,120.0,2.0,0.0
684,73.0,120.0,960.0,0.0,0.0
685,51.0,0.0,120.0,2.0,0.0
686,49.0,120.0,120.0,2.0,0.0
687,82.0,120.0,240.0,1.0,0.0
688,51.0,0.0,120.0,2.0,0.0
689,80.0,0.0,240.0,1.0,0.0
690,52.0,120.0,120.0,2.0,0.0
691,49.0,240.0,120.0,2.0,0.0
692,79.0,0.0,1200.0,1.0,0.0
693,51.0,0.0,240.0,2.0,0.0
694,58.0,120.0,240.0,2.0,0.0
695,75.0,120.0,120.0,0.0,0.0
696,73.0,0.0,120.0,0.0,0.0
697,71.0,120.0,120.0,0.0,0.0
698,63.0,0.0,480.0,2.0,0.0
699,70.0,120.0,120.0,0.0,0.0
700,71.0,120.0,120.0,0.0,0.0
701,73.0,120.0,120.0,0.0,0.0
702,59.0,0.0,240.0,2.0,0.0
703,75.0,120.0,120.0,0.0,0.0
704,71.0,120.0,120.0,0.0,0.0
705,56.0,120.0,240.0,2.0,0.0
706,73.0,120.0,120.0,0.0,0.0
707,75.0,0.0,120.0,0.0,0.0
708,68.0,120.0,240.0,0.0,0.0
709,64.0,120.0,120.0,2.0,0.0
710,66.0,0.0,120.0,2.0,0.0
711,64.0,0.0,120.0,2.0,0.0
712,70.0,120.0,120.0,0.0,0.0
713,63.0,0.0,120.0,2.0,0.0
714,71.0,120.0,120.0,0.0,0.0
715,61.0,120.0,120.0,2.0,0.0
716,73.0,0.0,120.0,0.0,0.0
717,75.0,0.0,120.0,0.0,0.0
718,59.0,120.0,120.0,2.0,0.0
719,76.0,120.0,240.0,0.0,0.0
720,73.0,0.0,960.0,1.0,0.0
721,58.0,120.0,120.0,2.0,0.0
722,56.0,0.0,120.0,2.0,0.0
723,58.0,120.0,120.0,2.0,0.0
724,68.0,0.0,240.0,0.0,0.0
725,63.0,120.0,120.0,2.0,0.0
726,67.0,240.0,240.0,0.0,0.0
727,61.0,120.0,120.0,2.0,0.0
728,63.0,0.0,120.0,2.0,0.0
729,56.0,120.0,240.0,2.0,0.0
730,68.0,120.0,720.0,0.0,0.0
731,75.0,120.0,120.0,1.0,0.0
732,59.0,120.0,240.0,2.0,0.0
733,73.0,0.0,120.0,1.0,0.0
734,63.0,0.0,240.0,2.0,0.0
735,71.0,120.0,120.0,1.0,0.0
736,70.0,0.0,120.0,1.0,0.0
737,71.0,120.0,120.0,1.0,0.0
738,68.0,0.0,240.0,2.0,0.0
739,73.0,120.0,120.0,1.0,0.0
740,75.0,120.0,120.0,1.0,0.0
741,56.0,120.0,240.0,2.0,0.0
742,71.0,0.0,120.0,1.0,0.0
743,54.0,0.0,240.0,2.0,0.0
744,73.0,120.0,120.0,1.0,0.0
745,75.0,240.0,120.0,1.0,0.0
746,68.0,0.0,240.0,1.0,0.0
747,80.0,120.0,840.0,0.0,0.0
748,52.0,120.0,240.0,2.0,0.0
749,70.0,120.0,120.0,1.0,0.0
750,64.0,0.0,240.0,2.0,0.0
751,71.0,120.0,120.0,1.0,0.0
752,63.0,120.0,240.0,2.0,0.0
753,73.0,120.0,120.0,1.0,0.0
754,75.0,0.0,120.0,1.0,0.0
755,61.0,0.0,960.0,2.0,0.0
756,76.0,0.0,240.0,1.0,0.0
757,82.0,120.0,120.0,0.0,0.0
758,83.0,120.0,120.0,0.0,0.0
759,68.0,120.0,240.0,1.0,0.0
760,80.0,0.0,120.0,0.0,0.0
761,82.0,120.0,120.0,0.0,0.0
762,67.0,120.0,240.0,1.0,0.0
763,83.0,0.0,120.0,0.0,0.0
764,76.0,120.0,120.0,0.0,0.0
765,68.0,120.0,720.0,1.0,0.0
766,78.0,120.0,120.0,0.0,0.0
767,64.0,120.0,240.0,2.0,0.0
768,80.0,120.0,120.0,0.0,0.0
769,76.0,0.0,120.0,0.0,0.0
770,78.0,120.0,120.0,0.0,0.0
771,61.0,0.0,240.0,2.0,0.0
772,80.0,0.0,120.0,0.0,0.0
773,58.0,120.0,240.0,2.0,0.0
774,73.0,120.0,120.0,0.0,0.0
775,75.0,0.0,120.0,0.0,0.0
776,76.0,120.0,120.0,0.0,0.0
777,54.0,120.0,240.0,2.0,0.0
778,73.0,0.0,120.0,0.0,0.0
779,66.0,0.0,240.0,2.0,0.0
780,75.0,120.0,120.0,0.0,0.0
781,76.0,120.0,120.0,0.0,0.0
782,75.0,0.0,120.0,0.0,0.0
783,59.0,120.0,120.0,2.0,0.0
784,80.0,120.0,840.0,1.0,0.0
785,76.0,120.0,120.0,0.0,0.0
786,61.0,0.0,120.0,2.0,0.0
787,59.0,0.0,120.0,2.0,0.0
788,78.0,120.0,120.0,0.0,0.0
789,75.0,120.0,120.0,0.0,0.0
790,57.0,0.0,120.0,2.0,0.0
791,76.0,0.0,120.0,0.0,0.0
792,56.0,120.0,120.0,2.0,0.0
793,54.0,120.0,120.0,2.0,0.0
794,78.0,0.0,120.0,0.0,0.0
795,71.0,0.0,960.0,0.0,0.0
796,52.0,120.0,240.0,2.0,0.0
797,82.0,0.0,120.0,1.0,0.0
798,83.0,120.0,120.0,1.0,0.0
799,56.0,0.0,240.0,2.0,0.0
800,80.0,120.0,120.0,1.0,0.0
801,82.0,120.0,120.0,1.0,0.0
802,52.0,0.0,240.0,2.0,0.0
803,83.0,120.0,120.0,1.0,0.0
804,76.0,0.0,120.0,1.0,0.0
805,49.0,120.0,120.0,2.0,0.0
806,78.0,120.0,120.0,1.0,0.0
807,51.0,0.0,120.0,2.0,0.0
808,83.0,0.0,720.0,0.0,0.0
809,52.0,120.0,120.0,2.0,0.0
810,80.0,0.0,120.0,1.0,0.0
811,49.0,120.0,120.0,2.0,0.0
812,76.0,0.0,120.0,1.0,0.0
813,78.0,120.0,120.0,1.0,0.0
814,51.0,0.0,120.0,2.0,0.0
815,52.0,120.0,120.0,2.0,0.0
816,80.0,0.0,120.0,1.0,0.0
817,73.0,120.0,120.0,1.0,0.0
818,54.0,0.0,240.0,2.0,0.0
819,75.0,120.0,120.0,1.0,0.0
820,42.0,120.0,240.0,2.0,0.0
821,82.0,0.0,240.0,0.0,0.0
822,76.0,120.0,120.0,1.0,0.0
823,73.0,0.0,120.0,1.0,0.0
824,75.0,120.0,120.0,1.0,0.0
825,85.0,0.0,480.0,0.0,0.0
826,58.0,120.0,240.0,2.0,0.0
827,76.0,0.0,120.0,1.0,0.0
828,75.0,120.0,120.0,1.0,0.0
829,59.0,0.0,120.0,2.0,0.0
830,61.0,0.0,120.0,2.0,0.0
831,76.0,120.0,120.0,1.0,0.0
832,63.0,120.0,120.0,2.0,0.0
833,83.0,120.0,240.0,0.0,0.0
834,78.0,0.0,120.0,1.0,0.0
835,75.0,0.0,120.0,1.0,0.0
836,59.0,0.0,120.0,2.0,0.0
837,76.0,0.0,120.0,1.0,0.0
838,61.0,120.0,120.0,2.0,0.0
839,81.0,0.0,240.0,0.0,0.0
840,78.0,0.0,120.0,1.0,0.0
841,63.0,120.0,120.0,2.0,0.0
842,64.0,0.0,240.0,2.0,0.0
843,71.0,120.0,960.0,1.0,0.0
844,80.0,120.0,120.0,0.0,0.0
845,78.0,120.0,120.0,0.0,0.0
846,68.0,0.0,240.0,2.0,0.0
847,76.0,120.0,120.0,0.0,0.0
848,80.0,120.0,120.0,0.0,0.0
849,61.0,0.0,240.0,2.0,0.0
850,78.0,120.0,120.0,0.0,0.0
851,76.0,120.0,120.0,0.0,0.0
852,66.0,120.0,120.0,2.0,0.0
853,75.0,0.0,480.0,0.0,0.0
854,64.0,0.0,120.0,2.0,0.0
855,63.0,120.0,120.0,2.0,0.0
856,83.0,120.0,720.0,1.0,0.0
857,66.0,120.0,120.0,2.0,0.0
858,64.0,120.0,120.0,2.0,0.0
859,87.0,0.0,240.0,0.0,0.0
860,63.0,120.0,120.0,2.0,0.0
861,64.0,120.0,120.0,2.0,0.0
862,85.0,120.0,480.0,0.0,0.0
863,63.0,0.0,120.0,2.0,0.0
864,82.0,0.0,240.0,1.0,0.0
865,61.0,120.0,120.0,2.0,0.0
866,59.0,0.0,120.0,2.0,0.0
867,88.0,0.0,240.0,0.0,0.0
868,85.0,0.0,480.0,1.0,0.0
869,58.0,120.0,120.0,2.0,0.0
870,61.0,120.0,120.0,2.0,0.0
871,59.0,120.0,120.0,2.0,0.0
872,87.0,120.0,480.0,0.0,0.0
873,58.0,120.0,120.0,2.0,0.0
874,83.0,0.0,240.0,1.0,0.0
875,56.0,120.0,120.0,2.0,0.0
876,54.0,0.0,120.0,2.0,0.0
877,81.0,120.0,240.0,1.0,0.0
878,90.0,0.0,240.0,0.0,0.0
879,52.0,120.0,120.0,2.0,0.0
880,51.0,0.0,120.0,2.0,0.0
881,83.0,0.0,240.0,0.0,0.0
882,52.0,120.0,240.0,2.0,0.0
883,80.0,120.0,120.0,1.0,0.0
884,78.0,0.0,120.0,1.0,0.0
885,85.0,0.0,240.0,0.0,0.0
886,49.0,0.0,240.0,2.0,0.0
887,76.0,120.0,120.0,1.0,0.0
888,80.0,120.0,120.0,1.0,0.0
889,78.0,120.0,120.0,1.0,0.0
890,54.0,0.0,240.0,2.0,0.0
891,82.0,120.0,240.0,0.0,0.0
892,76.0,0.0,120.0,1.0,0.0
893,83.0,0.0,1440.0,0.0,0.0
894,75.0,240.0,1440.0,1.0,0.0
895,47.0,120.0,120.0,2.0,0.0
896,51.0,120.0,120.0,2.0,0.0
897,54.0,120.0,120.0,2.0,0.0
898,59.0,120.0,120.0,2.0,0.0
899,54.0,120.0,120.0,2.0,0.0
900,51.0,720.0,120.0,2.0,0.0
901,47.0,0.0,720.0,2.0,0.0
902,54.0,240.0,240.0,2.0,0.0
903,58.0,240.0,240.0,2.0,0.0
904,61.0,240.0,240.0,2.0,0.0
905,66.0,120.0,240.0,2.0,0.0
906,85.0,120.0,840.0,0.0,0.0
907,64.0,120.0,120.0,2.0,0.0
908,63.0,120.0,120.0,2.0,0.0
909,61.0,120.0,120.0,2.0,0.0
910,59.0,120.0,120.0,2.0,0.0
911,58.0,0.0,240.0,2.0,0.0
912,87.0,120.0,120.0,0.0,0.0
913,61.0,120.0,240.0,2.0,0.0
914,88.0,120.0,120.0,0.0,0.0
915,85.0,0.0,120.0,0.0,0.0
916,87.0,120.0,120.0,0.0,0.0
917,54.0,0.0,240.0,2.0,0.0
918,88.0,120.0,120.0,0.0,0.0
919,59.0,120.0,240.0,2.0,0.0
920,87.0,120.0,120.0,0.0,0.0
921,85.0,0.0,120.0,0.0,0.0
922,61.0,120.0,240.0,2.0,0.0
923,83.0,120.0,120.0,0.0,0.0
924,82.0,0.0,120.0,0.0,0.0
925,63.0,0.0,240.0,2.0,0.0
926,80.0,120.0,120.0,0.0,0.0
927,79.0,120.0,120.0,0.0,0.0
928,64.0,120.0,120.0,2.0,0.0
929,80.0,0.0,240.0,0.0,0.0
930,66.0,120.0,120.0,2.0,0.0
931,82.0,0.0,240.0,0.0,0.0
932,64.0,120.0,120.0,2.0,0.0
933,63.0,120.0,120.0,2.0,0.0
934,83.0,120.0,480.0,0.0,0.0
935,61.0,120.0,120.0,2.0,0.0
936,59.0,120.0,120.0,2.0,0.0
937,58.0,120.0,120.0,2.0,0.0
938,85.0,120.0,840.0,1.0,0.0
939,56.0,0.0,120.0,2.0,0.0
940,82.0,120.0,240.0,0.0,0.0
941,58.0,120.0,120.0,2.0,0.0
942,59.0,0.0,120.0,2.0,0.0
943,61.0,120.0,120.0,2.0,0.0
944,80.0,0.0,240.0,0.0,0.0
945,58.0,120.0,120.0,2.0,0.0
946,79.0,0.0,1200.0,0.0,0.0
947,63.0,120.0,240.0,2.0,0.0
948,87.0,0.0,120.0,1.0,0.0
949,58.0,120.0,240.0,2.0,0.0
950,88.0,120.0,120.0,1.0,0.0
951,85.0,0.0,120.0,1.0,0.0
952,87.0,120.0,120.0,1.0,0.0
953,59.0,120.0,240.0,2.0,0.0
954,88.0,0.0,120.0,1.0,0.0
955,61.0,0.0,120.0,2.0,0.0
956,87.0,120.0,120.0,1.0,0.0
957,64.0,0.0,120.0,2.0,0.0
958,85.0,120.0,120.0,1.0,0.0
959,63.0,0.0,120.0,2.0,0.0
960,83.0,120.0,120.0,1.0,0.0
961,82.0,0.0,120.0,1.0,0.0
962,61.0,120.0,120.0,2.0,0.0
963,59.0,120.0,120.0,2.0,0.0
964,80.0,0.0,120.0,1.0,0.0
965,79.0,120.0,120.0,1.0,0.0
966,58.0,0.0,120.0,2.0,0.0
967,80.0,0.0,240.0,1.0,0.0
968,59.0,120.0,120.0,2.0,0.0
969,61.0,120.0,120.0,2.0,0.0
970,82.0,120.0,240.0,1.0,0.0
971,59.0,120.0,120.0,2.0,0.0
972,58.0,0.0,120.0,2.0,0.0
973,56.0,120.0,120.0,2.0,0.0
974,83.0,0.0,480.0,1.0,0.0
975,54.0,120.0,120.0,2.0,0.0
976,73.0,120.0,960.0,0.0,0.0
977,52.0,120.0,120.0,2.0,0.0
978,51.0,120.0,120.0,2.0,0.0
979,82.0,0.0,240.0,1.0,0.0
980,49.0,120.0,120.0,2.0,0.0
981,51.0,120.0,120.0,2.0,0.0
982,80.0,240.0,240.0,1.0,0.0
983,52.0,120.0,120.0,2.0,0.0
984,49.0,0.0,120.0,2.0,0.0
985,51.0,0.0,240.0,2.0,0.0
986,79.0,0.0,1200.0,1.0,0.0
987,58.0,120.0,240.0,2.0,0.0
988,75.0,120.0,120.0,0.0,0.0
989,73.0,0.0,120.0,0.0,0.0
990,71.0,120.0,120.0,0.0,0.0
991,63.0,0.0,480.0,2.0,0.0
992,70.0,120.0,120.0,0.0,0.0
993,71.0,120.0,120.0,0.0,0.0
994,73.0,120.0,120.0,0.0,0.0
995,59.0,0.0,240.0,2.0,0.0
996,75.0,120.0,120.0,0.0,0.0
997,71.0,120.0,120.0,0.0,0.0
998,56.0,120.0,240.0,2.0,0.0
999,73.0,120.0,120.0,0.0,0.0
1000,75.0,0.0,120.0,0.0,0.0
1001,68.0,120.0,240.0,0.0,0.0
1002,64.0,120.0,120.0,2.0,0.0
1003,66.0,0.0,120.0,2.0,0.0
1004,64.0,120.0,120.0,2.0,0.0
1005,70.0,0.0,120.0,0.0,0.0
1006,71.0,120.0,120.0,0.0,0.0
1007,63.0,0.0,120.0,2.0,0.0
1008,73.0,0.0,120.0,0.0,0.0
1009,61.0,120.0,120.0,2.0,0.0
1010,75.0,120.0,120.0,0.0,0.0
1011,59.0,0.0,120.0,2.0,0.0
1012,58.0,120.0,120.0,2.0,0.0
1013,76.0,120.0,240.0,0.0,0.0
1014,73.0,120.0,960.0,1.0,0.0
1015,56.0,0.0,120.0,2.0,0.0
1016,68.0,120.0,240.0,0.0,0.0
1017,58.0,120.0,120.0,2.0,0.0
1018,63.0,0.0,120.0,2.0,0.0
1019,61.0,120.0,120.0,2.0,0.0
1020,67.0,240.0,240.0,0.0,0.0
1021,63.0,0.0,120.0,2.0,0.0
1022,56.0,0.0,240.0,2.0,0.0
1023,68.0,120.0,720.0,0.0,0.0
1024,75.0,120.0,120.0,1.0,0.0
1025,59.0,120.0,240.0,2.0,0.0
1026,73.0,0.0,120.0,1.0,0.0
1027,71.0,120.0,120.0,1.0,0.0
1028,63.0,0.0,240.0,2.0,0.0
1029,70.0,0.0,120.0,1.0,0.0
1030,71.0,120.0,120.0,1.0,0.0
1031,68.0,0.0,240.0,2.0,0.0
1032,73.0,120.0,120.0,1.0,0.0
1033,75.0,120.0,120.0,1.0,0.0
1034,56.0,0.0,240.0,2.0,0.0
1035,71.0,120.0,120.0,1.0,0.0
1036,54.0,0.0,240.0,2.0,0.0
1037,73.0,120.0,120.0,1.0,0.0
1038,75.0,240.0,120.0,1.0,0.0
1039,68.0,0.0,240.0,1.0,0.0
1040,80.0,120.0,840.0,0.0,0.0
1041,52.0,120.0,240.0,2.0,0.0
1042,70.0,120.0,120.0,1.0,0.0
1043,64.0,120.0,240.0,2.0,0.0
1044,71.0,0.0,120.0,1.0,0.0
1045,63.0,0.0,240.0,2.0,0.0
1046,73.0,120.0,120.0,1.0,0.0
1047,75.0,120.0,120.0,1.0,0.0
1048,61.0,120.0,960.0,2.0,0.0
1049,76.0,120.0,240.0,1.0,0.0
1050,82.0,0.0,120.0,0.0,0.0
1051,83.0,120.0,120.0,0.0,0.0
1052,68.0,0.0,240.0,1.0,0.0
1053,80.0,120.0,120.0,0.0,0.0
1054,67.0,0.0,240.0,1.0,0.0
1055,82.0,120.0,120.0,0.0,0.0
1056,83.0,120.0,120.0,0.0,0.0
1057,76.0,120.0,120.0,0.0,0.0
1058,68.0,0.0,720.0,1.0,0.0
1059,78.0,0.0,120.0,0.0,0.0
1060,64.0,120.0,240.0,2.0,0.0
1061,80.0,120.0,120.0,0.0,0.0
1062,76.0,0.0,120.0,0.0,0.0
1063,78.0,120.0,120.0,0.0,0.0
1064,61.0,0.0,240.0,2.0,0.0
1065,80.0,120.0,120.0,0.0,0.0
1066,58.0,120.0,240.0,2.0,0.0
1067,73.0,120.0,120.0,0.0,0.0
1068,75.0,0.0,120.0,0.0,0.0
1069,54.0,120.0,240.0,2.0,0.0
1070,76.0,120.0,120.0,0.0,0.0
1071,73.0,0.0,120.0,0.0,0.0
1072,75.0,120.0,120.0,0.0,0.0
1073,66.0,120.0,240.0,2.0,0.0
1074,76.0,0.0,120.0,0.0,0.0
1075,80.0,120.0,840.0,1.0,0.0
1076,75.0,120.0,120.0,0.0,0.0
1077,59.0,0.0,120.0,2.0,0.0
1078,76.0,0.0,120.0,0.0,0.0
1079,61.0,120.0,120.0,2.0,0.0
1080,78.0,0.0,120.0,0.0,0.0
1081,59.0,120.0,120.0,2.0,0.0
1082,75.0,120.0,120.0,0.0,0.0
1083,57.0,0.0,120.0,2.0,0.0
1084,56.0,0.0,120.0,2.0,0.0
1085,76.0,120.0,120.0,0.0,0.0
1086,54.0,120.0,120.0,2.0,0.0
1087,78.0,0.0,120.0,0.0,0.0
1088,71.0,120.0,960.0,0.0,0.0
1089,52.0,120.0,240.0,2.0,0.0
1090,82.0,0.0,120.0,1.0,0.0
1091,83.0,120.0,120.0,1.0,0.0
1092,56.0,120.0,240.0,2.0,0.0
1093,80.0,0.0,120.0,1.0,0.0
1094,82.0,120.0,120.0,1.0,0.0
1095,52.0,0.0,240.0,2.0,0.0
1096,83.0,120.0,120.0,1.0,0.0
1097,76.0,120.0,120.0,1.0,0.0
1098,49.0,0.0,120.0,2.0,0.0
1099,51.0,0.0,120.0,2.0,0.0
1100,78.0,0.0,120.0,1.0,0.0
1101,80.0,120.0,120.0,1.0,0.0
1102,83.0,0.0,720.0,0.0,0.0
1103,52.0,0.0,120.0,2.0,0.0
1104,76.0,120.0,120.0,1.0,0.0
1105,49.0,0.0,120.0,2.0,0.0
1106,51.0,0.0,120.0,2.0,0.0
1107,78.0,120.0,120.0,1.0,0.0
1108,52.0,120.0,120.0,2.0,0.0
1109,80.0,0.0,120.0,1.0,0.0
1110,54.0,0.0,240.0,2.0,0.0
1111,73.0,120.0,120.0,1.0,0.0
1112,75.0,120.0,120.0,1.0,0.0
1113,82.0,120.0,240.0,0.0,0.0
1114,76.0,120.0,120.0,1.0,0.0
1115,42.0,0.0,240.0,2.0,0.0
1116,73.0,0.0,120.0,1.0,0.0
1117,75.0,120.0,120.0,1.0,0.0
1118,85.0,0.0,480.0,0.0,0.0
1119,58.0,120.0,240.0,2.0,0.0
1120,76.0,0.0,120.0,1.0,0.0
1121,75.0,120.0,120.0,1.0,0.0
1122,59.0,0.0,120.0,2.0,0.0
1123,61.0,120.0,120.0,2.0,0.0
1124,76.0,0.0,120.0,1.0,0.0
1125,83.0,0.0,240.0,0.0,0.0
1126,63.0,0.0,120.0,2.0,0.0
1127,78.0,120.0,120.0,1.0,0.0
1128,59.0,0.0,120.0,2.0,0.0
1129,75.0,120.0,120.0,1.0,0.0
1130,81.0,0.0,240.0,0.0,0.0
1131,61.0,0.0,120.0,2.0,0.0
1132,76.0,120.0,120.0,1.0,0.0
1133,63.0,0.0,120.0,2.0,0.0
1134,78.0,120.0,120.0,1.0,0.0
1135,64.0,0.0,240.0,2.0,0.0
1136,80.0,120.0,120.0,0.0,0.0
1137,71.0,0.0,960.0,1.0,0.0
1138,78.0,120.0,120.0,0.0,0.0
1139,68.0,120.0,240.0,2.0,0.0
1140,76.0,120.0,120.0,0.0,0.0
1141,80.0,0.0,120.0,0.0,0.0
1142,78.0,120.0,120.0,0.0,0.0
1143,61.0,0.0,240.0,2.0,0.0
1144,76.0,120.0,120.0,0.0,0.0
1145,66.0,120.0,120.0,2.0,0.0
1146,75.0,0.0,480.0,0.0,0.0
1147,64.0,120.0,120.0,2.0,0.0
1148,63.0,120.0,120.0,2.0,0.0
1149,83.0,0.0,720.0,1.0,0.0
1150,66.0,120.0,120.0,2.0,0.0
1151,87.0,120.0,240.0,0.0,0.0
1152,64.0,120.0,120.0,2.0,0.0
1153,63.0,0.0,120.0,2.0,0.0
1154,64.0,120.0,120.0,2.0,0.0
1155,85.0,0.0,480.0,0.0,0.0
1156,63.0,120.0,120.0,2.0,0.0
1157,82.0,120.0,240.0,1.0,0.0
1158,61.0,120.0,120.0,2.0,0.0
1159,59.0,0.0,120.0,2.0,0.0
1160,85.0,120.0,480.0,1.0,0.0
1161,58.0,120.0,120.0,2.0,0.0
1162,88.0,120.0,240.0,0.0,0.0
1163,61.0,0.0,120.0,2.0,0.0
1164,59.0,120.0,120.0,2.0,0.0
1165,87.0,0.0,480.0,0.0,0.0
1166,58.0,0.0,120.0,2.0,0.0
1167,56.0,120.0,120.0,2.0,0.0
1168,83.0,0.0,240.0,1.0,0.0
1169,54.0,120.0,120.0,2.0,0.0
1170,90.0,0.0,240.0,0.0,0.0
1171,81.0,120.0,240.0,1.0,0.0
1172,52.0,120.0,120.0,2.0,0.0
1173,51.0,0.0,120.0,2.0,0.0
1174,52.0,0.0,240.0,2.0,0.0
1175,83.0,120.0,240.0,0.0,0.0
1176,80.0,120.0,120.0,1.0,0.0
1177,78.0,0.0,120.0,1.0,0.0
1178,85.0,0.0,240.0,0.0,0.0
1179,49.0,120.0,240.0,2.0,0.0
1180,76.0,120.0,120.0,1.0,0.0
1181,80.0,0.0,120.0,1.0,0.0
1182,54.0,120.0,240.0,2.0,0.0
1183,82.0,0.0,240.0,0.0,0.0
1184,78.0,120.0,120.0,1.0,0.0
1185,76.0,0.0,120.0,1.0,0.0
1186,83.0,0.0,1440.0,0.0,0.0
1187,75.0,0.0,1440.0,1.0,0.0
1188,47.0,120.0,120.0,2.0,0.0
1189,51.0,120.0,120.0,2.0,0.0
1190,54.0,120.0,120.0,2.0,0.0
1191,59.0,120.0,120.0,2.0,0.0
1192,54.0,120.0,120.0,2.0,0.0
1193,51.0,720.0,120.0,2.0,0.0
1194,47.0,0.0,720.0,2.0,0.0
