,note,step,duration,channel,velocity
0,51.0,240.0,240.0,1.0,0.0
1,39.0,0.0,240.0,1.0,0.0
2,63.0,120.0,120.0,0.0,0.0
3,58.0,0.0,120.0,0.0,0.0
4,55.0,0.0,120.0,0.0,0.0
5,56.0,0.0,120.0,1.0,0.0
6,53.0,0.0,120.0,1.0,0.0
7,62.0,120.0,120.0,1.0,0.0
8,55.0,120.0,120.0,0.0,0.0
9,58.0,0.0,120.0,0.0,0.0
10,63.0,0.0,120.0,0.0,0.0
11,53.0,0.0,120.0,1.0,0.0
12,56.0,120.0,120.0,1.0,0.0
13,62.0,0.0,120.0,1.0,0.0
14,58.0,0.0,120.0,0.0,0.0
15,63.0,0.0,120.0,0.0,0.0
16,55.0,120.0,120.0,0.0,0.0
17,62.0,0.0,120.0,1.0,0.0
18,53.0,120.0,120.0,1.0,0.0
19,56.0,0.0,120.0,1.0,0.0
20,58.0,0.0,120.0,0.0,0.0
21,63.0,0.0,120.0,0.0,0.0
22,55.0,120.0,120.0,0.0,0.0
23,53.0,0.0,120.0,1.0,0.0
24,56.0,0.0,120.0,1.0,0.0
25,62.0,120.0,120.0,1.0,0.0
26,58.0,0.0,120.0,0.0,0.0
27,63.0,0.0,120.0,0.0,0.0
28,55.0,240.0,120.0,0.0,0.0
29,50.0,240.0,240.0,1.0,0.0
30,38.0,0.0,240.0,1.0,0.0
31,62.0,120.0,120.0,0.0,0.0
32,70.0,0.0,120.0,0.0,0.0
33,65.0,0.0,120.0,0.0,0.0
34,63.0,0.0,120.0,1.0,0.0
35,60.0,0.0,120.0,1.0,0.0
36,69.0,120.0,120.0,1.0,0.0
37,62.0,0.0,120.0,0.0,0.0
38,70.0,120.0,120.0,0.0,0.0
39,65.0,0.0,120.0,0.0,0.0
40,69.0,0.0,120.0,1.0,0.0
41,63.0,0.0,120.0,1.0,0.0
42,60.0,120.0,120.0,1.0,0.0
43,62.0,0.0,120.0,0.0,0.0
44,65.0,0.0,120.0,0.0,0.0
45,70.0,120.0,120.0,0.0,0.0
46,60.0,0.0,120.0,1.0,0.0
47,63.0,0.0,120.0,1.0,0.0
48,69.0,120.0,120.0,1.0,0.0
49,65.0,0.0,120.0,0.0,0.0
50,62.0,0.0,120.0,0.0,0.0
51,70.0,120.0,120.0,0.0,0.0
52,69.0,120.0,120.0,1.0,0.0
53,63.0,0.0,120.0,1.0,0.0
54,60.0,0.0,120.0,1.0,0.0
55,65.0,0.0,120.0,0.0,0.0
56,62.0,0.0,120.0,0.0,0.0
57,70.0,240.0,120.0,0.0,0.0
58,48.0,240.0,240.0,1.0,0.0
59,36.0,0.0,240.0,1.0,0.0
60,72.0,0.0,120.0,0.0,0.0
61,75.0,120.0,120.0,0.0,0.0
62,67.0,0.0,120.0,0.0,0.0
63,65.0,0.0,120.0,1.0,0.0
64,74.0,0.0,120.0,1.0,0.0
65,70.0,120.0,120.0,1.0,0.0
66,72.0,0.0,120.0,0.0,0.0
67,75.0,0.0,120.0,0.0,0.0
68,67.0,120.0,120.0,0.0,0.0
69,69.0,0.0,120.0,1.0,0.0
70,72.0,0.0,120.0,1.0,0.0
71,63.0,120.0,120.0,1.0,0.0
72,72.0,0.0,120.0,0.0,0.0
73,75.0,120.0,120.0,0.0,0.0
74,67.0,0.0,120.0,0.0,0.0
75,70.0,0.0,120.0,1.0,0.0
76,65.0,0.0,120.0,1.0,0.0
77,74.0,120.0,120.0,1.0,0.0
78,72.0,0.0,120.0,0.0,0.0
79,67.0,0.0,120.0,0.0,0.0
80,75.0,120.0,120.0,0.0,0.0
81,72.0,0.0,120.0,1.0,0.0
82,63.0,0.0,120.0,1.0,0.0
83,69.0,120.0,120.0,1.0,0.0
84,72.0,0.0,120.0,0.0,0.0
85,69.0,120.0,120.0,0.0,0.0
86,75.0,0.0,120.0,0.0,0.0
87,74.0,0.0,120.0,0.0,0.0
88,70.0,120.0,120.0,0.0,0.0
89,65.0,0.0,120.0,0.0,0.0
90,58.0,120.0,120.0,1.0,0.0
91,53.0,120.0,120.0,1.0,0.0
92,50.0,160.0,120.0,1.0,0.0
93,46.0,0.0,150.0,1.0,0.0
94,80.0,80.0,90.0,0.0,0.0
95,58.0,0.0,90.0,1.0,0.0
96,79.0,80.0,90.0,0.0,0.0
97,48.0,80.0,150.0,1.0,0.0
98,68.0,80.0,90.0,0.0,0.0
99,79.0,0.0,90.0,0.0,0.0
100,77.0,0.0,90.0,0.0,0.0
101,56.0,80.0,90.0,1.0,0.0
102,67.0,80.0,90.0,0.0,0.0
103,46.0,80.0,150.0,1.0,0.0
104,77.0,0.0,90.0,0.0,0.0
105,75.0,0.0,90.0,0.0,0.0
106,55.0,80.0,90.0,1.0,0.0
107,65.0,80.0,90.0,0.0,0.0
108,44.0,80.0,150.0,1.0,0.0
109,75.0,0.0,90.0,0.0,0.0
110,53.0,0.0,90.0,1.0,0.0
111,74.0,240.0,90.0,0.0,0.0
112,70.0,0.0,240.0,0.0,0.0
113,75.0,0.0,240.0,0.0,0.0
114,67.0,0.0,240.0,0.0,0.0
115,43.0,240.0,240.0,1.0,0.0
116,55.0,120.0,240.0,1.0,0.0
117,67.0,0.0,120.0,0.0,0.0
118,70.0,0.0,120.0,0.0,0.0
119,75.0,0.0,120.0,0.0,0.0
120,68.0,120.0,120.0,1.0,0.0
121,65.0,0.0,120.0,1.0,0.0
122,74.0,0.0,120.0,1.0,0.0
123,70.0,0.0,120.0,0.0,0.0
124,67.0,120.0,120.0,0.0,0.0
125,75.0,0.0,120.0,0.0,0.0
126,68.0,0.0,120.0,1.0,0.0
127,65.0,0.0,120.0,1.0,0.0
128,74.0,120.0,120.0,1.0,0.0
129,70.0,120.0,120.0,0.0,0.0
130,67.0,0.0,120.0,0.0,0.0
131,75.0,0.0,120.0,0.0,0.0
132,65.0,0.0,120.0,1.0,0.0
133,74.0,0.0,120.0,1.0,0.0
134,68.0,120.0,120.0,1.0,0.0
135,67.0,0.0,120.0,0.0,0.0
136,75.0,120.0,120.0,0.0,0.0
137,70.0,0.0,120.0,0.0,0.0
138,67.0,0.0,120.0,1.0,0.0
139,63.0,120.0,120.0,1.0,0.0
140,70.0,0.0,120.0,1.0,0.0
141,70.0,0.0,120.0,0.0,0.0
142,73.0,0.0,120.0,0.0,0.0
143,67.0,240.0,120.0,0.0,0.0
144,44.0,240.0,240.0,1.0,0.0
145,56.0,0.0,240.0,1.0,0.0
146,63.0,0.0,120.0,0.0,0.0
147,68.0,120.0,120.0,0.0,0.0
148,72.0,0.0,120.0,0.0,0.0
149,70.0,120.0,120.0,1.0,0.0
150,61.0,0.0,120.0,1.0,0.0
151,67.0,0.0,120.0,1.0,0.0
152,68.0,120.0,120.0,0.0,0.0
153,63.0,0.0,120.0,0.0,0.0
154,72.0,0.0,120.0,0.0,0.0
155,61.0,0.0,120.0,1.0,0.0
156,70.0,0.0,120.0,1.0,0.0
157,67.0,120.0,120.0,1.0,0.0
158,68.0,0.0,120.0,0.0,0.0
159,63.0,120.0,120.0,0.0,0.0
160,72.0,0.0,120.0,0.0,0.0
161,67.0,0.0,120.0,1.0,0.0
162,70.0,120.0,120.0,1.0,0.0
163,61.0,0.0,120.0,1.0,0.0
164,68.0,120.0,120.0,0.0,0.0
165,63.0,0.0,120.0,0.0,0.0
166,72.0,0.0,120.0,0.0,0.0
167,60.0,0.0,120.0,1.0,0.0
168,68.0,0.0,120.0,1.0,0.0
169,65.0,120.0,120.0,1.0,0.0
170,63.0,240.0,120.0,0.0,0.0
171,72.0,0.0,120.0,0.0,0.0
172,68.0,0.0,120.0,0.0,0.0
173,46.0,240.0,240.0,1.0,0.0
174,58.0,0.0,240.0,1.0,0.0
175,65.0,0.0,120.0,0.0,0.0
176,70.0,120.0,120.0,0.0,0.0
177,62.0,0.0,120.0,0.0,0.0
178,69.0,120.0,120.0,1.0,0.0
179,60.0,0.0,120.0,1.0,0.0
180,63.0,0.0,120.0,1.0,0.0
181,65.0,120.0,120.0,0.0,0.0
182,62.0,0.0,120.0,0.0,0.0
183,70.0,0.0,120.0,0.0,0.0
184,60.0,0.0,120.0,1.0,0.0
185,69.0,120.0,120.0,1.0,0.0
186,63.0,0.0,120.0,1.0,0.0
187,62.0,120.0,120.0,0.0,0.0
188,65.0,0.0,120.0,0.0,0.0
189,70.0,0.0,120.0,0.0,0.0
190,69.0,0.0,120.0,1.0,0.0
191,60.0,0.0,120.0,1.0,0.0
192,63.0,120.0,120.0,1.0,0.0
193,62.0,0.0,120.0,0.0,0.0
194,70.0,0.0,120.0,0.0,0.0
195,65.0,120.0,120.0,0.0,0.0
196,62.0,0.0,120.0,1.0,0.0
197,65.0,0.0,120.0,1.0,0.0
198,58.0,120.0,120.0,1.0,0.0
199,62.0,0.0,120.0,0.0,0.0
200,65.0,0.0,120.0,0.0,0.0
201,68.0,120.0,120.0,0.0,0.0
202,58.0,120.0,120.0,0.0,0.0
203,67.0,0.0,120.0,0.0,0.0
204,63.0,0.0,120.0,0.0,0.0
205,51.0,120.0,120.0,1.0,0.0
206,46.0,120.0,120.0,1.0,0.0
207,43.0,160.0,120.0,1.0,0.0
208,39.0,0.0,150.0,1.0,0.0
209,65.0,80.0,90.0,0.0,0.0
210,67.0,0.0,90.0,0.0,0.0
211,51.0,80.0,90.0,1.0,0.0
212,68.0,80.0,90.0,0.0,0.0
213,50.0,0.0,150.0,1.0,0.0
214,67.0,80.0,90.0,0.0,0.0
215,65.0,80.0,90.0,0.0,0.0
216,58.0,0.0,90.0,1.0,0.0
217,51.0,80.0,150.0,1.0,0.0
218,67.0,80.0,90.0,0.0,0.0
219,65.0,0.0,90.0,0.0,0.0
220,60.0,80.0,90.0,1.0,0.0
221,63.0,0.0,90.0,0.0,0.0
222,53.0,80.0,150.0,1.0,0.0
223,72.0,80.0,90.0,0.0,0.0
224,70.0,0.0,90.0,0.0,0.0
225,62.0,0.0,90.0,1.0,0.0
226,68.0,80.0,90.0,0.0,0.0
227,55.0,80.0,90.0,1.0,0.0
228,70.0,0.0,90.0,0.0,0.0
229,58.0,80.0,90.0,1.0,0.0
230,63.0,80.0,90.0,0.0,0.0
231,62.0,80.0,90.0,0.0,0.0
232,56.0,80.0,90.0,0.0,0.0
233,53.0,80.0,90.0,1.0,0.0
234,55.0,80.0,90.0,1.0,0.0
235,58.0,80.0,90.0,1.0,0.0
236,63.0,80.0,90.0,0.0,0.0
237,65.0,80.0,90.0,0.0,0.0
238,62.0,80.0,90.0,0.0,0.0
239,56.0,80.0,90.0,1.0,0.0
240,58.0,80.0,90.0,1.0,0.0
241,63.0,80.0,90.0,1.0,0.0
242,67.0,80.0,90.0,0.0,0.0
243,69.0,80.0,90.0,0.0,0.0
244,65.0,80.0,90.0,0.0,0.0
245,60.0,80.0,90.0,1.0,0.0
246,62.0,80.0,90.0,1.0,0.0
247,65.0,80.0,90.0,1.0,0.0
248,70.0,80.0,90.0,0.0,0.0
249,69.0,80.0,90.0,0.0,0.0
250,63.0,80.0,90.0,0.0,0.0
251,60.0,80.0,90.0,1.0,0.0
252,62.0,80.0,90.0,1.0,0.0
253,65.0,80.0,90.0,1.0,0.0
254,70.0,80.0,90.0,0.0,0.0
255,72.0,80.0,90.0,0.0,0.0
256,69.0,80.0,90.0,0.0,0.0
257,63.0,80.0,90.0,1.0,0.0
258,65.0,80.0,90.0,1.0,0.0
259,70.0,80.0,90.0,1.0,0.0
260,74.0,80.0,90.0,0.0,0.0
261,70.0,80.0,90.0,0.0,0.0
262,67.0,80.0,90.0,0.0,0.0
263,65.0,80.0,90.0,1.0,0.0
264,63.0,80.0,90.0,1.0,0.0
265,67.0,80.0,90.0,1.0,0.0
266,68.0,80.0,90.0,0.0,0.0
267,67.0,80.0,90.0,0.0,0.0
268,63.0,80.0,90.0,0.0,0.0
269,62.0,80.0,90.0,1.0,0.0
270,60.0,80.0,90.0,1.0,0.0
271,63.0,80.0,90.0,1.0,0.0
272,65.0,80.0,90.0,0.0,0.0
273,63.0,80.0,90.0,0.0,0.0
274,60.0,80.0,90.0,0.0,0.0
275,58.0,80.0,90.0,1.0,0.0
276,57.0,80.0,90.0,1.0,0.0
277,60.0,80.0,90.0,1.0,0.0
278,62.0,80.0,90.0,0.0,0.0
279,60.0,80.0,90.0,0.0,0.0
280,57.0,80.0,90.0,0.0,0.0
281,55.0,80.0,90.0,1.0,0.0
282,53.0,80.0,90.0,1.0,0.0
283,57.0,80.0,90.0,1.0,0.0
284,62.0,80.0,90.0,0.0,0.0
285,60.0,80.0,90.0,0.0,0.0
286,57.0,80.0,90.0,0.0,0.0
287,55.0,80.0,90.0,1.0,0.0
288,53.0,80.0,90.0,1.0,0.0
289,57.0,80.0,90.0,1.0,0.0
290,58.0,80.0,90.0,0.0,0.0
291,57.0,80.0,90.0,0.0,0.0
292,53.0,80.0,90.0,0.0,0.0
293,51.0,80.0,90.0,1.0,0.0
294,50.0,80.0,90.0,1.0,0.0
295,53.0,80.0,90.0,1.0,0.0
296,55.0,80.0,90.0,0.0,0.0
297,53.0,80.0,90.0,0.0,0.0
298,50.0,80.0,90.0,0.0,0.0
299,48.0,80.0,90.0,1.0,0.0
300,46.0,80.0,90.0,1.0,0.0
301,50.0,80.0,90.0,1.0,0.0
302,55.0,80.0,90.0,0.0,0.0
303,53.0,80.0,90.0,0.0,0.0
304,50.0,80.0,90.0,0.0,0.0
305,48.0,80.0,90.0,1.0,0.0
306,46.0,80.0,90.0,1.0,0.0
307,50.0,80.0,90.0,1.0,0.0
308,51.0,80.0,90.0,0.0,0.0
309,50.0,80.0,90.0,0.0,0.0
310,46.0,80.0,90.0,0.0,0.0
311,44.0,80.0,90.0,1.0,0.0
312,43.0,80.0,90.0,1.0,0.0
313,46.0,80.0,90.0,1.0,0.0
314,48.0,80.0,90.0,0.0,0.0
315,46.0,80.0,90.0,0.0,0.0
316,43.0,80.0,90.0,0.0,0.0
317,41.0,80.0,90.0,1.0,0.0
318,39.0,80.0,90.0,1.0,0.0
319,43.0,80.0,90.0,1.0,0.0
320,48.0,80.0,90.0,0.0,0.0
321,46.0,80.0,90.0,0.0,0.0
322,43.0,80.0,90.0,0.0,0.0
323,41.0,80.0,90.0,1.0,0.0
324,39.0,80.0,90.0,1.0,0.0
325,43.0,80.0,90.0,1.0,0.0
326,44.0,80.0,90.0,0.0,0.0
327,43.0,80.0,90.0,0.0,0.0
328,39.0,80.0,90.0,0.0,0.0
329,38.0,80.0,90.0,1.0,0.0
330,36.0,80.0,90.0,1.0,0.0
331,39.0,80.0,90.0,1.0,0.0
332,41.0,80.0,90.0,0.0,0.0
333,39.0,80.0,90.0,0.0,0.0
334,36.0,80.0,90.0,0.0,0.0
335,34.0,160.0,90.0,1.0,0.0
336,33.0,80.0,240.0,1.0,0.0
337,51.0,80.0,90.0,0.0,0.0
338,53.0,0.0,90.0,0.0,0.0
339,45.0,0.0,240.0,1.0,0.0
340,60.0,80.0,90.0,0.0,0.0
341,53.0,80.0,90.0,0.0,0.0
342,51.0,160.0,90.0,0.0,0.0
343,46.0,0.0,240.0,1.0,0.0
344,50.0,80.0,90.0,0.0,0.0
345,53.0,80.0,90.0,0.0,0.0
346,58.0,80.0,90.0,0.0,0.0
347,38.0,0.0,240.0,1.0,0.0
348,53.0,80.0,90.0,0.0,0.0
349,50.0,160.0,90.0,0.0,0.0
350,39.0,80.0,240.0,1.0,0.0
351,48.0,80.0,90.0,0.0,0.0
352,51.0,0.0,90.0,0.0,0.0
353,57.0,80.0,90.0,0.0,0.0
354,41.0,0.0,240.0,1.0,0.0
355,51.0,80.0,90.0,0.0,0.0
356,48.0,240.0,90.0,0.0,0.0
357,34.0,240.0,240.0,1.0,0.0
358,46.0,120.0,240.0,1.0,0.0
359,58.0,0.0,120.0,0.0,0.0
360,50.0,0.0,120.0,0.0,0.0
361,53.0,0.0,120.0,0.0,0.0
362,57.0,120.0,120.0,1.0,0.0
363,51.0,0.0,120.0,1.0,0.0
364,48.0,0.0,120.0,1.0,0.0
365,50.0,0.0,120.0,0.0,0.0
366,58.0,0.0,120.0,0.0,0.0
367,53.0,120.0,120.0,0.0,0.0
368,48.0,120.0,120.0,1.0,0.0
369,51.0,0.0,120.0,1.0,0.0
370,57.0,0.0,120.0,1.0,0.0
371,53.0,480.0,120.0,0.0,0.0
372,58.0,0.0,120.0,0.0,0.0
373,50.0,0.0,120.0,0.0,0.0
374,34.0,240.0,480.0,1.0,0.0
375,51.0,240.0,240.0,1.0,0.0
376,39.0,0.0,240.0,1.0,0.0
377,63.0,120.0,120.0,0.0,0.0
378,58.0,0.0,120.0,0.0,0.0
379,55.0,0.0,120.0,0.0,0.0
380,62.0,120.0,120.0,1.0,0.0
381,56.0,0.0,120.0,1.0,0.0
382,53.0,0.0,120.0,1.0,0.0
383,55.0,0.0,120.0,0.0,0.0
384,58.0,120.0,120.0,0.0,0.0
385,63.0,0.0,120.0,0.0,0.0
386,53.0,120.0,120.0,1.0,0.0
387,56.0,0.0,120.0,1.0,0.0
388,62.0,0.0,120.0,1.0,0.0
389,63.0,0.0,120.0,0.0,0.0
390,58.0,120.0,120.0,0.0,0.0
391,55.0,0.0,120.0,0.0,0.0
392,62.0,0.0,120.0,1.0,0.0
393,56.0,120.0,120.0,1.0,0.0
394,53.0,0.0,120.0,1.0,0.0
395,55.0,120.0,120.0,0.0,0.0
396,58.0,0.0,120.0,0.0,0.0
397,63.0,0.0,120.0,0.0,0.0
398,62.0,120.0,120.0,1.0,0.0
399,56.0,0.0,120.0,1.0,0.0
400,53.0,0.0,120.0,1.0,0.0
401,63.0,0.0,120.0,0.0,0.0
402,58.0,0.0,120.0,0.0,0.0
403,55.0,240.0,120.0,0.0,0.0
404,50.0,240.0,240.0,1.0,0.0
405,38.0,0.0,240.0,1.0,0.0
406,70.0,120.0,120.0,0.0,0.0
407,65.0,0.0,120.0,0.0,0.0
408,62.0,0.0,120.0,0.0,0.0
409,60.0,120.0,120.0,1.0,0.0
410,63.0,0.0,120.0,1.0,0.0
411,69.0,0.0,120.0,1.0,0.0
412,62.0,120.0,120.0,0.0,0.0
413,65.0,0.0,120.0,0.0,0.0
414,70.0,0.0,120.0,0.0,0.0
415,60.0,120.0,120.0,1.0,0.0
416,63.0,0.0,120.0,1.0,0.0
417,69.0,0.0,120.0,1.0,0.0
418,65.0,0.0,120.0,0.0,0.0
419,62.0,120.0,120.0,0.0,0.0
420,70.0,0.0,120.0,0.0,0.0
421,63.0,0.0,120.0,1.0,0.0
422,60.0,0.0,120.0,1.0,0.0
423,69.0,120.0,120.0,1.0,0.0
424,62.0,0.0,120.0,0.0,0.0
425,65.0,0.0,120.0,0.0,0.0
426,70.0,120.0,120.0,0.0,0.0
427,60.0,120.0,120.0,1.0,0.0
428,69.0,0.0,120.0,1.0,0.0
429,63.0,0.0,120.0,1.0,0.0
430,70.0,240.0,120.0,0.0,0.0
431,65.0,0.0,120.0,0.0,0.0
432,62.0,0.0,120.0,0.0,0.0
433,48.0,240.0,240.0,1.0,0.0
434,36.0,0.0,240.0,1.0,0.0
435,75.0,0.0,120.0,0.0,0.0
436,72.0,120.0,120.0,0.0,0.0
437,67.0,0.0,120.0,0.0,0.0
438,65.0,120.0,120.0,1.0,0.0
439,74.0,0.0,120.0,1.0,0.0
440,70.0,0.0,120.0,1.0,0.0
441,72.0,0.0,120.0,0.0,0.0
442,67.0,0.0,120.0,0.0,0.0
443,75.0,120.0,120.0,0.0,0.0
444,63.0,0.0,120.0,1.0,0.0
445,69.0,120.0,120.0,1.0,0.0
446,72.0,0.0,120.0,1.0,0.0
447,72.0,120.0,120.0,0.0,0.0
448,75.0,0.0,120.0,0.0,0.0
449,67.0,0.0,120.0,0.0,0.0
450,70.0,120.0,120.0,1.0,0.0
451,65.0,0.0,120.0,1.0,0.0
452,74.0,0.0,120.0,1.0,0.0
453,72.0,120.0,120.0,0.0,0.0
454,75.0,0.0,120.0,0.0,0.0
455,67.0,0.0,120.0,0.0,0.0
456,72.0,120.0,120.0,1.0,0.0
457,69.0,0.0,120.0,1.0,0.0
458,63.0,0.0,120.0,1.0,0.0
459,72.0,0.0,120.0,0.0,0.0
460,75.0,0.0,120.0,0.0,0.0
461,69.0,120.0,120.0,0.0,0.0
462,74.0,120.0,120.0,0.0,0.0
463,65.0,0.0,120.0,0.0,0.0
464,70.0,0.0,120.0,0.0,0.0
465,58.0,120.0,120.0,1.0,0.0
466,53.0,120.0,120.0,1.0,0.0
467,50.0,160.0,120.0,1.0,0.0
468,46.0,80.0,150.0,1.0,0.0
469,80.0,0.0,90.0,0.0,0.0
470,79.0,0.0,90.0,0.0,0.0
471,58.0,80.0,90.0,1.0,0.0
472,68.0,80.0,90.0,0.0,0.0
473,48.0,0.0,150.0,1.0,0.0
474,79.0,80.0,90.0,0.0,0.0
475,56.0,80.0,90.0,1.0,0.0
476,77.0,0.0,90.0,0.0,0.0
477,67.0,80.0,90.0,0.0,0.0
478,46.0,80.0,150.0,1.0,0.0
479,77.0,0.0,90.0,0.0,0.0
480,75.0,80.0,90.0,0.0,0.0
481,55.0,0.0,90.0,1.0,0.0
482,65.0,80.0,90.0,0.0,0.0
483,44.0,0.0,150.0,1.0,0.0
484,75.0,80.0,90.0,0.0,0.0
485,53.0,240.0,90.0,1.0,0.0
486,74.0,0.0,90.0,0.0,0.0
487,43.0,0.0,240.0,1.0,0.0
488,70.0,240.0,240.0,0.0,0.0
489,75.0,0.0,240.0,0.0,0.0
490,67.0,0.0,240.0,0.0,0.0
491,55.0,0.0,240.0,1.0,0.0
492,70.0,120.0,120.0,0.0,0.0
493,67.0,0.0,120.0,0.0,0.0
494,75.0,0.0,120.0,0.0,0.0
495,65.0,0.0,120.0,1.0,0.0
496,68.0,0.0,120.0,1.0,0.0
497,74.0,120.0,120.0,1.0,0.0
498,70.0,0.0,120.0,0.0,0.0
499,67.0,0.0,120.0,0.0,0.0
500,75.0,120.0,120.0,0.0,0.0
501,68.0,0.0,120.0,1.0,0.0
502,65.0,120.0,120.0,1.0,0.0
503,74.0,0.0,120.0,1.0,0.0
504,67.0,0.0,120.0,0.0,0.0
505,75.0,120.0,120.0,0.0,0.0
506,70.0,0.0,120.0,0.0,0.0
507,65.0,0.0,120.0,1.0,0.0
508,74.0,0.0,120.0,1.0,0.0
509,68.0,120.0,120.0,1.0,0.0
510,75.0,0.0,120.0,0.0,0.0
511,67.0,120.0,120.0,0.0,0.0
512,70.0,0.0,120.0,0.0,0.0
513,67.0,120.0,120.0,1.0,0.0
514,63.0,0.0,120.0,1.0,0.0
515,70.0,0.0,120.0,1.0,0.0
516,70.0,0.0,120.0,0.0,0.0
517,73.0,240.0,120.0,0.0,0.0
518,67.0,0.0,120.0,0.0,0.0
519,44.0,240.0,240.0,1.0,0.0
520,56.0,120.0,240.0,1.0,0.0
521,68.0,0.0,120.0,0.0,0.0
522,72.0,0.0,120.0,0.0,0.0
523,63.0,0.0,120.0,0.0,0.0
524,61.0,0.0,120.0,1.0,0.0
525,70.0,120.0,120.0,1.0,0.0
526,67.0,0.0,120.0,1.0,0.0
527,68.0,0.0,120.0,0.0,0.0
528,63.0,120.0,120.0,0.0,0.0
529,72.0,0.0,120.0,0.0,0.0
530,61.0,120.0,120.0,1.0,0.0
531,67.0,0.0,120.0,1.0,0.0
532,70.0,0.0,120.0,1.0,0.0
533,68.0,120.0,120.0,0.0,0.0
534,72.0,0.0,120.0,0.0,0.0
535,63.0,0.0,120.0,0.0,0.0
536,70.0,0.0,120.0,1.0,0.0
537,61.0,0.0,120.0,1.0,0.0
538,67.0,120.0,120.0,1.0,0.0
539,72.0,120.0,120.0,0.0,0.0
540,63.0,0.0,120.0,0.0,0.0
541,68.0,0.0,120.0,0.0,0.0
542,65.0,0.0,120.0,1.0,0.0
543,68.0,0.0,120.0,1.0,0.0
544,60.0,120.0,120.0,1.0,0.0
545,63.0,0.0,120.0,0.0,0.0
546,72.0,240.0,120.0,0.0,0.0
547,68.0,0.0,120.0,0.0,0.0
548,46.0,240.0,240.0,1.0,0.0
549,58.0,120.0,240.0,1.0,0.0
550,70.0,0.0,120.0,0.0,0.0
551,65.0,0.0,120.0,0.0,0.0
552,62.0,0.0,120.0,0.0,0.0
553,69.0,120.0,120.0,1.0,0.0
554,63.0,0.0,120.0,1.0,0.0
555,60.0,0.0,120.0,1.0,0.0
556,65.0,0.0,120.0,0.0,0.0
557,62.0,0.0,120.0,0.0,0.0
558,70.0,120.0,120.0,0.0,0.0
559,69.0,120.0,120.0,1.0,0.0
560,60.0,0.0,120.0,1.0,0.0
561,63.0,0.0,120.0,1.0,0.0
562,62.0,0.0,120.0,0.0,0.0
563,70.0,120.0,120.0,0.0,0.0
564,65.0,0.0,120.0,0.0,0.0
565,60.0,0.0,120.0,1.0,0.0
566,63.0,120.0,120.0,1.0,0.0
567,69.0,0.0,120.0,1.0,0.0
568,62.0,0.0,120.0,0.0,0.0
569,70.0,120.0,120.0,0.0,0.0
570,65.0,0.0,120.0,0.0,0.0
571,65.0,0.0,120.0,1.0,0.0
572,62.0,120.0,120.0,1.0,0.0
573,58.0,0.0,120.0,1.0,0.0
574,62.0,0.0,120.0,0.0,0.0
575,68.0,120.0,120.0,0.0,0.0
576,65.0,0.0,120.0,0.0,0.0
577,58.0,0.0,120.0,0.0,0.0
578,63.0,0.0,120.0,0.0,0.0
579,67.0,120.0,120.0,0.0,0.0
580,51.0,120.0,120.0,1.0,0.0
581,46.0,120.0,120.0,1.0,0.0
582,43.0,160.0,120.0,1.0,0.0
583,39.0,0.0,150.0,1.0,0.0
584,65.0,80.0,90.0,0.0,0.0
585,67.0,80.0,90.0,0.0,0.0
586,51.0,0.0,90.0,1.0,0.0
587,68.0,80.0,90.0,0.0,0.0
588,50.0,0.0,150.0,1.0,0.0
589,67.0,80.0,90.0,0.0,0.0
590,65.0,0.0,90.0,0.0,0.0
591,58.0,80.0,90.0,1.0,0.0
592,67.0,80.0,90.0,0.0,0.0
593,51.0,0.0,150.0,1.0,0.0
594,65.0,80.0,90.0,0.0,0.0
595,63.0,80.0,90.0,0.0,0.0
596,60.0,0.0,90.0,1.0,0.0
597,72.0,80.0,90.0,0.0,0.0
598,53.0,80.0,150.0,1.0,0.0
599,70.0,0.0,90.0,0.0,0.0
600,62.0,80.0,90.0,1.0,0.0
601,68.0,0.0,90.0,0.0,0.0
602,70.0,0.0,90.0,0.0,0.0
603,55.0,80.0,90.0,1.0,0.0
604,58.0,80.0,90.0,1.0,0.0
605,63.0,80.0,90.0,0.0,0.0
606,62.0,80.0,90.0,0.0,0.0
607,56.0,80.0,90.0,0.0,0.0
608,53.0,80.0,90.0,1.0,0.0
609,55.0,80.0,90.0,1.0,0.0
610,58.0,80.0,90.0,1.0,0.0
611,63.0,80.0,90.0,0.0,0.0
612,65.0,80.0,90.0,0.0,0.0
613,62.0,80.0,90.0,0.0,0.0
614,56.0,80.0,90.0,1.0,0.0
615,58.0,80.0,90.0,1.0,0.0
616,63.0,80.0,90.0,1.0,0.0
617,67.0,80.0,90.0,0.0,0.0
618,69.0,80.0,90.0,0.0,0.0
619,65.0,80.0,90.0,0.0,0.0
620,60.0,80.0,90.0,1.0,0.0
621,62.0,80.0,90.0,1.0,0.0
622,65.0,80.0,90.0,1.0,0.0
623,70.0,80.0,90.0,0.0,0.0
624,69.0,80.0,90.0,0.0,0.0
625,63.0,80.0,90.0,0.0,0.0
626,60.0,80.0,90.0,1.0,0.0
627,62.0,80.0,90.0,1.0,0.0
628,65.0,80.0,90.0,1.0,0.0
629,70.0,80.0,90.0,0.0,0.0
630,72.0,80.0,90.0,0.0,0.0
631,69.0,80.0,90.0,0.0,0.0
632,63.0,80.0,90.0,1.0,0.0
633,65.0,80.0,90.0,1.0,0.0
634,70.0,80.0,90.0,1.0,0.0
635,74.0,80.0,90.0,0.0,0.0
636,70.0,80.0,90.0,0.0,0.0
637,67.0,80.0,90.0,0.0,0.0
638,65.0,80.0,90.0,1.0,0.0
639,63.0,80.0,90.0,1.0,0.0
640,67.0,80.0,90.0,1.0,0.0
641,68.0,80.0,90.0,0.0,0.0
642,67.0,80.0,90.0,0.0,0.0
643,63.0,80.0,90.0,0.0,0.0
644,62.0,80.0,90.0,1.0,0.0
645,60.0,80.0,90.0,1.0,0.0
646,63.0,80.0,90.0,1.0,0.0
647,65.0,80.0,90.0,0.0,0.0
648,63.0,80.0,90.0,0.0,0.0
649,60.0,80.0,90.0,0.0,0.0
650,58.0,80.0,90.0,1.0,0.0
651,57.0,80.0,90.0,1.0,0.0
652,60.0,80.0,90.0,1.0,0.0
653,62.0,80.0,90.0,0.0,0.0
654,60.0,80.0,90.0,0.0,0.0
655,57.0,80.0,90.0,0.0,0.0
656,55.0,80.0,90.0,1.0,0.0
657,53.0,80.0,90.0,1.0,0.0
658,57.0,80.0,90.0,1.0,0.0
659,62.0,80.0,90.0,0.0,0.0
660,60.0,80.0,90.0,0.0,0.0
661,57.0,80.0,90.0,0.0,0.0
662,55.0,80.0,90.0,1.0,0.0
663,53.0,80.0,90.0,1.0,0.0
664,57.0,80.0,90.0,1.0,0.0
665,58.0,80.0,90.0,0.0,0.0
666,57.0,80.0,90.0,0.0,0.0
667,53.0,80.0,90.0,0.0,0.0
668,51.0,80.0,90.0,1.0,0.0
669,50.0,80.0,90.0,1.0,0.0
670,53.0,80.0,90.0,1.0,0.0
671,55.0,80.0,90.0,0.0,0.0
672,53.0,80.0,90.0,0.0,0.0
673,50.0,80.0,90.0,0.0,0.0
674,48.0,80.0,90.0,1.0,0.0
675,46.0,80.0,90.0,1.0,0.0
676,50.0,80.0,90.0,1.0,0.0
677,55.0,80.0,90.0,0.0,0.0
678,53.0,80.0,90.0,0.0,0.0
679,50.0,80.0,90.0,0.0,0.0
680,48.0,80.0,90.0,1.0,0.0
681,46.0,80.0,90.0,1.0,0.0
682,50.0,80.0,90.0,1.0,0.0
683,51.0,80.0,90.0,0.0,0.0
684,50.0,80.0,90.0,0.0,0.0
685,46.0,80.0,90.0,0.0,0.0
686,44.0,80.0,90.0,1.0,0.0
687,43.0,80.0,90.0,1.0,0.0
688,46.0,80.0,90.0,1.0,0.0
689,48.0,80.0,90.0,0.0,0.0
690,46.0,80.0,90.0,0.0,0.0
691,43.0,80.0,90.0,0.0,0.0
692,41.0,80.0,90.0,1.0,0.0
693,39.0,80.0,90.0,1.0,0.0
694,43.0,80.0,90.0,1.0,0.0
695,48.0,80.0,90.0,0.0,0.0
696,46.0,80.0,90.0,0.0,0.0
697,43.0,80.0,90.0,0.0,0.0
698,41.0,80.0,90.0,1.0,0.0
699,39.0,80.0,90.0,1.0,0.0
700,43.0,80.0,90.0,1.0,0.0
701,44.0,80.0,90.0,0.0,0.0
702,43.0,80.0,90.0,0.0,0.0
703,39.0,80.0,90.0,0.0,0.0
704,38.0,80.0,90.0,1.0,0.0
705,36.0,80.0,90.0,1.0,0.0
706,39.0,80.0,90.0,1.0,0.0
707,41.0,80.0,90.0,0.0,0.0
708,39.0,80.0,90.0,0.0,0.0
709,36.0,80.0,90.0,0.0,0.0
710,34.0,160.0,90.0,1.0,0.0
711,33.0,0.0,240.0,1.0,0.0
712,51.0,80.0,90.0,0.0,0.0
713,53.0,80.0,90.0,0.0,0.0
714,45.0,0.0,240.0,1.0,0.0
715,60.0,80.0,90.0,0.0,0.0
716,53.0,80.0,90.0,0.0,0.0
717,51.0,160.0,90.0,0.0,0.0
718,46.0,0.0,240.0,1.0,0.0
719,50.0,80.0,90.0,0.0,0.0
720,53.0,80.0,90.0,0.0,0.0
721,38.0,0.0,240.0,1.0,0.0
722,58.0,80.0,90.0,0.0,0.0
723,53.0,80.0,90.0,0.0,0.0
724,50.0,160.0,90.0,0.0,0.0
725,39.0,80.0,240.0,1.0,0.0
726,48.0,80.0,90.0,0.0,0.0
727,51.0,0.0,90.0,0.0,0.0
728,57.0,80.0,90.0,0.0,0.0
729,41.0,240.0,240.0,1.0,0.0
730,51.0,80.0,90.0,0.0,0.0
731,48.0,0.0,90.0,0.0,0.0
732,34.0,240.0,240.0,1.0,0.0
733,46.0,0.0,240.0,1.0,0.0
734,50.0,0.0,120.0,0.0,0.0
735,58.0,0.0,120.0,0.0,0.0
736,53.0,120.0,120.0,0.0,0.0
737,48.0,0.0,120.0,1.0,0.0
738,57.0,120.0,120.0,1.0,0.0
739,51.0,0.0,120.0,1.0,0.0
740,50.0,0.0,120.0,0.0,0.0
741,58.0,0.0,120.0,0.0,0.0
742,53.0,120.0,120.0,0.0,0.0
743,48.0,120.0,120.0,1.0,0.0
744,51.0,0.0,120.0,1.0,0.0
745,57.0,0.0,120.0,1.0,0.0
746,53.0,0.0,120.0,0.0,0.0
747,50.0,0.0,120.0,0.0,0.0
748,58.0,480.0,120.0,0.0,0.0
749,34.0,80.0,480.0,1.0,0.0
750,70.0,80.0,90.0,1.0,0.0
751,74.0,80.0,90.0,1.0,0.0
752,79.0,80.0,90.0,0.0,0.0
753,77.0,80.0,90.0,0.0,0.0
754,74.0,80.0,90.0,0.0,0.0
755,72.0,80.0,90.0,1.0,0.0
756,70.0,80.0,90.0,1.0,0.0
757,74.0,80.0,90.0,1.0,0.0
758,75.0,80.0,90.0,0.0,0.0
759,74.0,80.0,90.0,0.0,0.0
760,70.0,80.0,90.0,0.0,0.0
761,68.0,80.0,90.0,1.0,0.0
762,67.0,80.0,90.0,1.0,0.0
763,70.0,80.0,90.0,1.0,0.0
764,72.0,80.0,90.0,0.0,0.0
765,70.0,80.0,90.0,0.0,0.0
766,67.0,80.0,90.0,0.0,0.0
767,65.0,80.0,90.0,1.0,0.0
768,63.0,80.0,90.0,1.0,0.0
769,67.0,80.0,90.0,1.0,0.0
770,72.0,80.0,90.0,0.0,0.0
771,70.0,80.0,90.0,0.0,0.0
772,67.0,80.0,90.0,0.0,0.0
773,65.0,80.0,90.0,1.0,0.0
774,63.0,80.0,90.0,1.0,0.0
775,67.0,80.0,90.0,1.0,0.0
776,68.0,80.0,90.0,0.0,0.0
777,67.0,80.0,90.0,0.0,0.0
778,63.0,80.0,90.0,0.0,0.0
779,62.0,80.0,90.0,1.0,0.0
780,60.0,80.0,90.0,1.0,0.0
781,63.0,80.0,90.0,1.0,0.0
782,65.0,80.0,90.0,0.0,0.0
783,63.0,80.0,90.0,0.0,0.0
784,60.0,80.0,90.0,0.0,0.0
785,58.0,80.0,90.0,1.0,0.0
786,56.0,80.0,90.0,1.0,0.0
787,60.0,80.0,90.0,1.0,0.0
788,61.0,80.0,90.0,0.0,0.0
789,60.0,80.0,90.0,0.0,0.0
790,56.0,80.0,90.0,0.0,0.0
791,55.0,80.0,90.0,1.0,0.0
792,53.0,80.0,90.0,1.0,0.0
793,56.0,80.0,90.0,1.0,0.0
794,58.0,80.0,90.0,0.0,0.0
795,56.0,80.0,90.0,0.0,0.0
796,53.0,80.0,90.0,0.0,0.0
797,51.0,80.0,90.0,1.0,0.0
798,50.0,80.0,90.0,1.0,0.0
799,53.0,80.0,90.0,1.0,0.0
800,55.0,80.0,90.0,0.0,0.0
801,53.0,80.0,90.0,0.0,0.0
802,50.0,80.0,90.0,0.0,0.0
803,48.0,80.0,90.0,1.0,0.0
804,47.0,80.0,90.0,1.0,0.0
805,50.0,80.0,90.0,1.0,0.0
806,51.0,80.0,90.0,0.0,0.0
807,50.0,80.0,90.0,0.0,0.0
808,47.0,80.0,90.0,0.0,0.0
809,45.0,80.0,90.0,1.0,0.0
810,43.0,80.0,90.0,1.0,0.0
811,47.0,80.0,90.0,1.0,0.0
812,48.0,80.0,90.0,0.0,0.0
813,47.0,80.0,90.0,0.0,0.0
814,43.0,80.0,90.0,0.0,0.0
815,41.0,80.0,90.0,1.0,0.0
816,39.0,80.0,90.0,1.0,0.0
817,43.0,80.0,90.0,1.0,0.0
818,44.0,80.0,90.0,0.0,0.0
819,43.0,80.0,90.0,0.0,0.0
820,39.0,80.0,90.0,0.0,0.0
821,38.0,240.0,90.0,1.0,0.0
822,36.0,240.0,240.0,1.0,0.0
823,48.0,0.0,240.0,1.0,0.0
824,72.0,0.0,120.0,0.0,0.0
825,63.0,0.0,120.0,0.0,0.0
826,67.0,120.0,120.0,0.0,0.0
827,65.0,0.0,120.0,1.0,0.0
828,71.0,0.0,120.0,1.0,0.0
829,62.0,120.0,120.0,1.0,0.0
830,63.0,120.0,120.0,0.0,0.0
831,67.0,0.0,120.0,0.0,0.0
832,72.0,0.0,120.0,0.0,0.0
833,71.0,120.0,120.0,1.0,0.0
834,65.0,0.0,120.0,1.0,0.0
835,62.0,0.0,120.0,1.0,0.0
836,72.0,0.0,120.0,0.0,0.0
837,67.0,0.0,120.0,0.0,0.0
838,63.0,120.0,120.0,0.0,0.0
839,63.0,120.0,120.0,1.0,0.0
840,51.0,0.0,120.0,1.0,0.0
841,72.0,120.0,120.0,0.0,0.0
842,67.0,0.0,120.0,0.0,0.0
843,63.0,0.0,120.0,0.0,0.0
844,71.0,0.0,120.0,1.0,0.0
845,65.0,120.0,120.0,1.0,0.0
846,62.0,0.0,120.0,1.0,0.0
847,72.0,0.0,120.0,0.0,0.0
848,63.0,0.0,120.0,0.0,0.0
849,67.0,240.0,120.0,0.0,0.0
850,44.0,240.0,240.0,1.0,0.0
851,56.0,0.0,240.0,1.0,0.0
852,63.0,0.0,120.0,0.0,0.0
853,67.0,0.0,120.0,0.0,0.0
854,72.0,120.0,120.0,0.0,0.0
855,71.0,0.0,120.0,1.0,0.0
856,65.0,120.0,120.0,1.0,0.0
857,62.0,0.0,120.0,1.0,0.0
858,72.0,0.0,120.0,0.0,0.0
859,67.0,0.0,120.0,0.0,0.0
860,63.0,120.0,120.0,0.0,0.0
861,71.0,120.0,120.0,1.0,0.0
862,65.0,0.0,120.0,1.0,0.0
863,62.0,0.0,120.0,1.0,0.0
864,72.0,0.0,120.0,0.0,0.0
865,67.0,0.0,120.0,0.0,0.0
866,63.0,120.0,120.0,0.0,0.0
867,55.0,0.0,120.0,1.0,0.0
868,67.0,120.0,120.0,1.0,0.0
869,72.0,0.0,120.0,0.0,0.0
870,67.0,120.0,120.0,0.0,0.0
871,63.0,0.0,120.0,0.0,0.0
872,71.0,120.0,120.0,1.0,0.0
873,62.0,0.0,120.0,1.0,0.0
874,65.0,0.0,120.0,1.0,0.0
875,72.0,0.0,120.0,0.0,0.0
876,67.0,0.0,120.0,0.0,0.0
877,63.0,160.0,120.0,0.0,0.0
878,53.0,80.0,240.0,1.0,0.0
879,74.0,80.0,90.0,0.0,0.0
880,75.0,0.0,90.0,0.0,0.0
881,47.0,80.0,240.0,1.0,0.0
882,77.0,80.0,90.0,0.0,0.0
883,79.0,80.0,90.0,0.0,0.0
884,80.0,80.0,150.0,0.0,0.0
885,48.0,80.0,240.0,1.0,0.0
886,79.0,80.0,90.0,0.0,0.0
887,77.0,0.0,90.0,0.0,0.0
888,75.0,80.0,90.0,0.0,0.0
889,53.0,80.0,240.0,1.0,0.0
890,74.0,80.0,90.0,0.0,0.0
891,72.0,0.0,90.0,0.0,0.0
892,71.0,80.0,90.0,0.0,0.0
893,55.0,0.0,240.0,1.0,0.0
894,68.0,80.0,90.0,0.0,0.0
895,67.0,80.0,90.0,0.0,0.0
896,43.0,0.0,240.0,1.0,0.0
897,65.0,80.0,90.0,0.0,0.0
898,63.0,80.0,90.0,0.0,0.0
899,62.0,120.0,90.0,0.0,0.0
900,48.0,0.0,240.0,1.0,0.0
901,60.0,120.0,120.0,0.0,0.0
902,67.0,0.0,120.0,0.0,0.0
903,72.0,120.0,120.0,0.0,0.0
904,63.0,0.0,120.0,0.0,0.0
905,71.0,0.0,120.0,1.0,0.0
906,65.0,120.0,120.0,1.0,0.0
907,62.0,0.0,120.0,1.0,0.0
908,63.0,0.0,120.0,0.0,0.0
909,67.0,0.0,120.0,0.0,0.0
910,72.0,120.0,120.0,0.0,0.0
911,59.0,120.0,120.0,1.0,0.0
912,62.0,0.0,120.0,1.0,0.0
913,67.0,0.0,120.0,1.0,0.0
914,68.0,0.0,120.0,0.0,0.0
915,60.0,120.0,120.0,0.0,0.0
916,63.0,0.0,120.0,0.0,0.0
917,67.0,0.0,120.0,1.0,0.0
918,59.0,120.0,120.0,1.0,0.0
919,62.0,0.0,120.0,1.0,0.0
920,68.0,120.0,120.0,0.0,0.0
921,63.0,0.0,120.0,0.0,0.0
922,60.0,0.0,120.0,0.0,0.0
923,59.0,0.0,120.0,1.0,0.0
924,62.0,120.0,120.0,1.0,0.0
925,53.0,0.0,120.0,1.0,0.0
926,55.0,120.0,120.0,0.0,0.0
927,63.0,0.0,120.0,0.0,0.0
928,60.0,0.0,120.0,0.0,0.0
929,62.0,120.0,120.0,1.0,0.0
930,59.0,0.0,120.0,1.0,0.0
931,53.0,0.0,120.0,1.0,0.0
932,60.0,160.0,120.0,0.0,0.0
933,63.0,0.0,120.0,0.0,0.0
934,55.0,0.0,120.0,0.0,0.0
935,44.0,80.0,240.0,1.0,0.0
936,48.0,80.0,90.0,0.0,0.0
937,49.0,0.0,90.0,0.0,0.0
938,50.0,80.0,90.0,0.0,0.0
939,55.0,160.0,240.0,1.0,0.0
940,51.0,80.0,90.0,0.0,0.0
941,52.0,0.0,90.0,0.0,0.0
942,53.0,80.0,240.0,1.0,0.0
943,55.0,80.0,90.0,0.0,0.0
944,56.0,0.0,90.0,0.0,0.0
945,58.0,80.0,90.0,0.0,0.0
946,52.0,0.0,240.0,1.0,0.0
947,56.0,80.0,90.0,0.0,0.0
948,55.0,80.0,90.0,0.0,0.0
949,56.0,80.0,90.0,0.0,0.0
950,53.0,0.0,240.0,1.0,0.0
951,58.0,80.0,90.0,0.0,0.0
952,60.0,80.0,90.0,0.0,0.0
953,44.0,160.0,240.0,1.0,0.0
954,62.0,80.0,90.0,0.0,0.0
955,63.0,80.0,90.0,0.0,0.0
956,65.0,0.0,90.0,0.0,0.0
957,43.0,0.0,240.0,1.0,0.0
958,46.0,80.0,90.0,0.0,0.0
959,47.0,80.0,90.0,0.0,0.0
960,53.0,0.0,240.0,1.0,0.0
961,48.0,80.0,90.0,0.0,0.0
962,49.0,80.0,90.0,0.0,0.0
963,50.0,160.0,90.0,0.0,0.0
964,51.0,0.0,240.0,1.0,0.0
965,53.0,80.0,90.0,0.0,0.0
966,55.0,80.0,90.0,0.0,0.0
967,56.0,80.0,90.0,0.0,0.0
968,50.0,0.0,240.0,1.0,0.0
969,55.0,80.0,90.0,0.0,0.0
970,53.0,80.0,90.0,0.0,0.0
971,55.0,80.0,90.0,0.0,0.0
972,51.0,80.0,240.0,1.0,0.0
973,56.0,80.0,90.0,0.0,0.0
974,58.0,0.0,90.0,0.0,0.0
975,43.0,80.0,240.0,1.0,0.0
976,60.0,80.0,90.0,0.0,0.0
977,62.0,80.0,90.0,0.0,0.0
978,63.0,0.0,90.0,0.0,0.0
979,56.0,0.0,90.0,0.0,0.0
980,41.0,80.0,90.0,1.0,0.0
981,53.0,80.0,90.0,1.0,0.0
982,61.0,80.0,90.0,0.0,0.0
983,60.0,80.0,90.0,0.0,0.0
984,56.0,80.0,90.0,0.0,0.0
985,55.0,80.0,90.0,1.0,0.0
986,53.0,80.0,90.0,1.0,0.0
987,56.0,80.0,90.0,1.0,0.0
988,58.0,80.0,90.0,0.0,0.0
989,56.0,80.0,90.0,0.0,0.0
990,53.0,80.0,90.0,0.0,0.0
991,51.0,80.0,90.0,1.0,0.0
992,50.0,80.0,90.0,1.0,0.0
993,53.0,80.0,90.0,1.0,0.0
994,55.0,80.0,90.0,0.0,0.0
995,53.0,80.0,90.0,0.0,0.0
996,50.0,80.0,90.0,0.0,0.0
997,48.0,80.0,90.0,1.0,0.0
998,46.0,80.0,90.0,1.0,0.0
999,58.0,80.0,90.0,1.0,0.0
1000,67.0,80.0,90.0,0.0,0.0
1001,65.0,80.0,90.0,0.0,0.0
1002,62.0,80.0,90.0,0.0,0.0
1003,60.0,80.0,90.0,1.0,0.0
1004,58.0,80.0,90.0,1.0,0.0
1005,62.0,80.0,90.0,1.0,0.0
1006,63.0,80.0,90.0,0.0,0.0
1007,62.0,80.0,90.0,0.0,0.0
1008,58.0,80.0,90.0,0.0,0.0
1009,56.0,80.0,90.0,1.0,0.0
1010,55.0,80.0,90.0,1.0,0.0
1011,58.0,80.0,90.0,1.0,0.0
1012,60.0,80.0,90.0,0.0,0.0
1013,58.0,80.0,90.0,0.0,0.0
1014,55.0,80.0,90.0,0.0,0.0
1015,53.0,80.0,90.0,1.0,0.0
1016,51.0,80.0,90.0,1.0,0.0
1017,63.0,80.0,90.0,1.0,0.0
1018,72.0,80.0,90.0,0.0,0.0
1019,70.0,80.0,90.0,0.0,0.0
1020,67.0,80.0,90.0,0.0,0.0
1021,65.0,80.0,90.0,1.0,0.0
1022,63.0,80.0,90.0,1.0,0.0
1023,67.0,80.0,90.0,1.0,0.0
1024,68.0,80.0,90.0,0.0,0.0
1025,67.0,80.0,90.0,0.0,0.0
1026,63.0,80.0,90.0,0.0,0.0
1027,61.0,80.0,90.0,1.0,0.0
1028,60.0,80.0,90.0,1.0,0.0
1029,63.0,80.0,90.0,1.0,0.0
1030,65.0,80.0,90.0,0.0,0.0
1031,63.0,80.0,90.0,0.0,0.0
1032,60.0,80.0,90.0,0.0,0.0
1033,58.0,80.0,90.0,1.0,0.0
1034,56.0,80.0,90.0,1.0,0.0
1035,68.0,80.0,90.0,1.0,0.0
1036,77.0,80.0,90.0,0.0,0.0
1037,75.0,80.0,90.0,0.0,0.0
1038,72.0,80.0,90.0,0.0,0.0
1039,70.0,80.0,90.0,1.0,0.0
1040,68.0,80.0,90.0,1.0,0.0
1041,72.0,80.0,90.0,1.0,0.0
1042,73.0,80.0,90.0,0.0,0.0
1043,72.0,80.0,90.0,0.0,0.0
1044,68.0,80.0,90.0,0.0,0.0
1045,67.0,80.0,90.0,1.0,0.0
1046,65.0,80.0,90.0,1.0,0.0
1047,68.0,80.0,90.0,1.0,0.0
1048,70.0,80.0,90.0,0.0,0.0
1049,68.0,80.0,90.0,0.0,0.0
1050,65.0,80.0,90.0,0.0,0.0
1051,63.0,160.0,90.0,1.0,0.0
1052,62.0,0.0,240.0,1.0,0.0
1053,65.0,80.0,90.0,0.0,0.0
1054,67.0,80.0,90.0,0.0,0.0
1055,68.0,80.0,90.0,0.0,0.0
1056,53.0,80.0,240.0,1.0,0.0
1057,70.0,80.0,90.0,0.0,0.0
1058,72.0,80.0,150.0,0.0,0.0
1059,55.0,0.0,240.0,1.0,0.0
1060,70.0,80.0,90.0,0.0,0.0
1061,68.0,80.0,90.0,0.0,0.0
1062,56.0,80.0,240.0,1.0,0.0
1063,67.0,80.0,90.0,0.0,0.0
1064,65.0,80.0,90.0,0.0,0.0
1065,63.0,80.0,150.0,0.0,0.0
1066,58.0,0.0,240.0,1.0,0.0
1067,62.0,80.0,90.0,0.0,0.0
1068,63.0,80.0,90.0,0.0,0.0
1069,46.0,0.0,240.0,1.0,0.0
1070,65.0,80.0,90.0,0.0,0.0
1071,67.0,80.0,90.0,0.0,0.0
1072,51.0,240.0,240.0,1.0,0.0
1073,68.0,60.0,15.0,0.0,0.0
1074,67.0,0.0,180.0,0.0,0.0
1075,39.0,0.0,240.0,1.0,0.0
1076,70.0,0.0,120.0,0.0,0.0
1077,75.0,0.0,120.0,0.0,0.0
1078,67.0,120.0,120.0,0.0,0.0
1079,74.0,0.0,120.0,1.0,0.0
1080,68.0,120.0,120.0,1.0,0.0
1081,65.0,0.0,120.0,1.0,0.0
1082,70.0,0.0,120.0,0.0,0.0
1083,67.0,0.0,120.0,0.0,0.0
1084,75.0,120.0,120.0,0.0,0.0
1085,68.0,120.0,120.0,1.0,0.0
1086,65.0,0.0,120.0,1.0,0.0
1087,74.0,0.0,120.0,1.0,0.0
1088,67.0,480.0,120.0,0.0,0.0
1089,70.0,0.0,120.0,0.0,0.0
1090,75.0,0.0,120.0,0.0,0.0
1091,51.0,80.0,480.0,1.0,0.0
1092,70.0,80.0,90.0,1.0,0.0
1093,74.0,80.0,90.0,1.0,0.0
1094,79.0,80.0,90.0,0.0,0.0
1095,77.0,80.0,90.0,0.0,0.0
1096,74.0,80.0,90.0,0.0,0.0
1097,72.0,80.0,90.0,1.0,0.0
1098,70.0,80.0,90.0,1.0,0.0
1099,74.0,80.0,90.0,1.0,0.0
1100,75.0,80.0,90.0,0.0,0.0
1101,74.0,80.0,90.0,0.0,0.0
1102,70.0,80.0,90.0,0.0,0.0
1103,68.0,80.0,90.0,1.0,0.0
1104,67.0,80.0,90.0,1.0,0.0
1105,70.0,80.0,90.0,1.0,0.0
1106,72.0,80.0,90.0,0.0,0.0
1107,70.0,80.0,90.0,0.0,0.0
1108,67.0,80.0,90.0,0.0,0.0
1109,65.0,80.0,90.0,1.0,0.0
1110,63.0,80.0,90.0,1.0,0.0
1111,67.0,80.0,90.0,1.0,0.0
1112,72.0,80.0,90.0,0.0,0.0
1113,70.0,80.0,90.0,0.0,0.0
1114,67.0,80.0,90.0,0.0,0.0
1115,65.0,80.0,90.0,1.0,0.0
1116,63.0,80.0,90.0,1.0,0.0
1117,67.0,80.0,90.0,1.0,0.0
1118,68.0,80.0,90.0,0.0,0.0
1119,67.0,80.0,90.0,0.0,0.0
1120,63.0,80.0,90.0,0.0,0.0
1121,62.0,80.0,90.0,1.0,0.0
1122,60.0,80.0,90.0,1.0,0.0
1123,63.0,80.0,90.0,1.0,0.0
1124,65.0,80.0,90.0,0.0,0.0
1125,63.0,80.0,90.0,0.0,0.0
1126,60.0,80.0,90.0,0.0,0.0
1127,58.0,80.0,90.0,1.0,0.0
1128,56.0,80.0,90.0,1.0,0.0
1129,60.0,80.0,90.0,1.0,0.0
1130,61.0,80.0,90.0,0.0,0.0
1131,60.0,80.0,90.0,0.0,0.0
1132,56.0,80.0,90.0,0.0,0.0
1133,55.0,80.0,90.0,1.0,0.0
1134,53.0,80.0,90.0,1.0,0.0
1135,56.0,80.0,90.0,1.0,0.0
1136,58.0,80.0,90.0,0.0,0.0
1137,56.0,80.0,90.0,0.0,0.0
1138,53.0,80.0,90.0,0.0,0.0
1139,51.0,80.0,90.0,1.0,0.0
1140,50.0,80.0,90.0,1.0,0.0
1141,53.0,80.0,90.0,1.0,0.0
1142,55.0,80.0,90.0,0.0,0.0
1143,53.0,80.0,90.0,0.0,0.0
1144,50.0,80.0,90.0,0.0,0.0
1145,48.0,80.0,90.0,1.0,0.0
1146,47.0,80.0,90.0,1.0,0.0
1147,50.0,80.0,90.0,1.0,0.0
1148,51.0,80.0,90.0,0.0,0.0
1149,50.0,80.0,90.0,0.0,0.0
1150,47.0,80.0,90.0,0.0,0.0
1151,45.0,80.0,90.0,1.0,0.0
1152,43.0,80.0,90.0,1.0,0.0
1153,47.0,80.0,90.0,1.0,0.0
1154,48.0,80.0,90.0,0.0,0.0
1155,47.0,80.0,90.0,0.0,0.0
1156,43.0,80.0,90.0,0.0,0.0
1157,41.0,80.0,90.0,1.0,0.0
1158,39.0,80.0,90.0,1.0,0.0
1159,43.0,80.0,90.0,1.0,0.0
1160,44.0,80.0,90.0,0.0,0.0
1161,43.0,80.0,90.0,0.0,0.0
1162,39.0,80.0,90.0,0.0,0.0
1163,38.0,240.0,90.0,1.0,0.0
1164,36.0,240.0,240.0,1.0,0.0
1165,48.0,0.0,240.0,1.0,0.0
1166,72.0,120.0,120.0,0.0,0.0
1167,67.0,0.0,120.0,0.0,0.0
1168,63.0,0.0,120.0,0.0,0.0
1169,65.0,120.0,120.0,1.0,0.0
1170,62.0,0.0,120.0,1.0,0.0
1171,71.0,0.0,120.0,1.0,0.0
1172,72.0,120.0,120.0,0.0,0.0
1173,67.0,0.0,120.0,0.0,0.0
1174,63.0,0.0,120.0,0.0,0.0
1175,71.0,0.0,120.0,1.0,0.0
1176,65.0,120.0,120.0,1.0,0.0
1177,62.0,0.0,120.0,1.0,0.0
1178,72.0,0.0,120.0,0.0,0.0
1179,67.0,0.0,120.0,0.0,0.0
1180,63.0,120.0,120.0,0.0,0.0
1181,51.0,0.0,120.0,1.0,0.0
1182,63.0,120.0,120.0,1.0,0.0
1183,63.0,120.0,120.0,0.0,0.0
1184,67.0,0.0,120.0,0.0,0.0
1185,72.0,0.0,120.0,0.0,0.0
1186,65.0,120.0,120.0,1.0,0.0
1187,71.0,0.0,120.0,1.0,0.0
1188,62.0,0.0,120.0,1.0,0.0
1189,72.0,240.0,120.0,0.0,0.0
1190,67.0,0.0,120.0,0.0,0.0
1191,63.0,0.0,120.0,0.0,0.0
1192,44.0,240.0,240.0,1.0,0.0
1193,56.0,0.0,240.0,1.0,0.0
1194,67.0,0.0,120.0,0.0,0.0
1195,63.0,120.0,120.0,0.0,0.0
1196,72.0,0.0,120.0,0.0,0.0
1197,62.0,120.0,120.0,1.0,0.0
1198,65.0,0.0,120.0,1.0,0.0
1199,71.0,0.0,120.0,1.0,0.0
1200,67.0,120.0,120.0,0.0,0.0
1201,72.0,0.0,120.0,0.0,0.0
1202,63.0,0.0,120.0,0.0,0.0
1203,71.0,0.0,120.0,1.0,0.0
1204,62.0,120.0,120.0,1.0,0.0
1205,65.0,0.0,120.0,1.0,0.0
1206,67.0,0.0,120.0,0.0,0.0
1207,63.0,0.0,120.0,0.0,0.0
1208,72.0,120.0,120.0,0.0,0.0
1209,55.0,0.0,120.0,1.0,0.0
1210,67.0,120.0,120.0,1.0,0.0
1211,67.0,120.0,120.0,0.0,0.0
1212,63.0,0.0,120.0,0.0,0.0
1213,72.0,0.0,120.0,0.0,0.0
1214,71.0,120.0,120.0,1.0,0.0
1215,65.0,0.0,120.0,1.0,0.0
1216,62.0,0.0,120.0,1.0,0.0
1217,72.0,160.0,120.0,0.0,0.0
1218,67.0,0.0,120.0,0.0,0.0
1219,63.0,0.0,120.0,0.0,0.0
1220,53.0,0.0,240.0,1.0,0.0
1221,74.0,80.0,90.0,0.0,0.0
1222,75.0,80.0,90.0,0.0,0.0
1223,47.0,80.0,240.0,1.0,0.0
1224,77.0,80.0,90.0,0.0,0.0
1225,79.0,80.0,90.0,0.0,0.0
1226,80.0,80.0,150.0,0.0,0.0
1227,48.0,80.0,240.0,1.0,0.0
1228,79.0,80.0,90.0,0.0,0.0
1229,77.0,0.0,90.0,0.0,0.0
1230,53.0,0.0,240.0,1.0,0.0
1231,75.0,80.0,90.0,0.0,0.0
1232,74.0,80.0,90.0,0.0,0.0
1233,72.0,80.0,90.0,0.0,0.0
1234,55.0,0.0,240.0,1.0,0.0
1235,71.0,80.0,90.0,0.0,0.0
1236,68.0,80.0,90.0,0.0,0.0
1237,67.0,80.0,90.0,0.0,0.0
1238,65.0,80.0,90.0,0.0,0.0
1239,43.0,0.0,240.0,1.0,0.0
1240,63.0,80.0,90.0,0.0,0.0
1241,62.0,120.0,90.0,0.0,0.0
1242,60.0,120.0,120.0,0.0,0.0
1243,48.0,120.0,240.0,1.0,0.0
1244,63.0,0.0,120.0,0.0,0.0
1245,72.0,0.0,120.0,0.0,0.0
1246,67.0,0.0,120.0,0.0,0.0
1247,71.0,120.0,120.0,1.0,0.0
1248,62.0,0.0,120.0,1.0,0.0
1249,65.0,0.0,120.0,1.0,0.0
1250,63.0,0.0,120.0,0.0,0.0
1251,67.0,0.0,120.0,0.0,0.0
1252,72.0,120.0,120.0,0.0,0.0
1253,67.0,0.0,120.0,1.0,0.0
1254,62.0,0.0,120.0,1.0,0.0
1255,59.0,120.0,120.0,1.0,0.0
1256,60.0,0.0,120.0,0.0,0.0
1257,68.0,120.0,120.0,0.0,0.0
1258,63.0,0.0,120.0,0.0,0.0
1259,67.0,120.0,120.0,1.0,0.0
1260,62.0,0.0,120.0,1.0,0.0
1261,59.0,0.0,120.0,1.0,0.0
1262,60.0,120.0,120.0,0.0,0.0
1263,63.0,0.0,120.0,0.0,0.0
1264,68.0,0.0,120.0,0.0,0.0
1265,62.0,0.0,120.0,1.0,0.0
1266,59.0,0.0,120.0,1.0,0.0
1267,53.0,120.0,120.0,1.0,0.0
1268,55.0,0.0,120.0,0.0,0.0
1269,63.0,0.0,120.0,0.0,0.0
1270,60.0,120.0,120.0,0.0,0.0
1271,53.0,120.0,120.0,1.0,0.0
1272,62.0,0.0,120.0,1.0,0.0
1273,59.0,0.0,120.0,1.0,0.0
1274,55.0,160.0,120.0,0.0,0.0
1275,63.0,0.0,120.0,0.0,0.0
1276,60.0,0.0,120.0,0.0,0.0
1277,44.0,80.0,240.0,1.0,0.0
1278,48.0,80.0,90.0,0.0,0.0
1279,49.0,0.0,90.0,0.0,0.0
1280,55.0,160.0,240.0,1.0,0.0
1281,50.0,80.0,90.0,0.0,0.0
1282,51.0,80.0,90.0,0.0,0.0
1283,52.0,0.0,90.0,0.0,0.0
1284,53.0,80.0,240.0,1.0,0.0
1285,55.0,80.0,90.0,0.0,0.0
1286,56.0,0.0,90.0,0.0,0.0
1287,58.0,80.0,90.0,0.0,0.0
1288,52.0,0.0,240.0,1.0,0.0
1289,56.0,80.0,90.0,0.0,0.0
1290,55.0,80.0,90.0,0.0,0.0
1291,56.0,80.0,90.0,0.0,0.0
1292,53.0,0.0,240.0,1.0,0.0
1293,58.0,80.0,90.0,0.0,0.0
1294,60.0,80.0,90.0,0.0,0.0
1295,44.0,0.0,240.0,1.0,0.0
1296,62.0,80.0,90.0,0.0,0.0
1297,63.0,80.0,90.0,0.0,0.0
1298,65.0,160.0,90.0,0.0,0.0
1299,43.0,0.0,240.0,1.0,0.0
1300,46.0,80.0,90.0,0.0,0.0
1301,47.0,80.0,90.0,0.0,0.0
1302,48.0,80.0,90.0,0.0,0.0
1303,53.0,0.0,240.0,1.0,0.0
1304,49.0,80.0,90.0,0.0,0.0
1305,50.0,160.0,90.0,0.0,0.0
1306,51.0,0.0,240.0,1.0,0.0
1307,53.0,80.0,90.0,0.0,0.0
1308,55.0,80.0,90.0,0.0,0.0
1309,50.0,0.0,240.0,1.0,0.0
1310,56.0,80.0,90.0,0.0,0.0
1311,55.0,80.0,90.0,0.0,0.0
1312,53.0,80.0,90.0,0.0,0.0
1313,51.0,0.0,240.0,1.0,0.0
1314,55.0,80.0,90.0,0.0,0.0
1315,56.0,80.0,90.0,0.0,0.0
1316,58.0,80.0,90.0,0.0,0.0
1317,60.0,80.0,90.0,0.0,0.0
1318,43.0,80.0,240.0,1.0,0.0
1319,62.0,80.0,90.0,0.0,0.0
1320,63.0,0.0,90.0,0.0,0.0
1321,56.0,0.0,90.0,0.0,0.0
1322,41.0,80.0,90.0,1.0,0.0
1323,53.0,80.0,90.0,1.0,0.0
1324,61.0,80.0,90.0,0.0,0.0
1325,60.0,80.0,90.0,0.0,0.0
1326,56.0,80.0,90.0,0.0,0.0
1327,55.0,80.0,90.0,1.0,0.0
1328,53.0,80.0,90.0,1.0,0.0
1329,56.0,80.0,90.0,1.0,0.0
1330,58.0,80.0,90.0,0.0,0.0
1331,56.0,80.0,90.0,0.0,0.0
1332,53.0,80.0,90.0,0.0,0.0
1333,51.0,80.0,90.0,1.0,0.0
1334,50.0,80.0,90.0,1.0,0.0
1335,53.0,80.0,90.0,1.0,0.0
1336,55.0,80.0,90.0,0.0,0.0
1337,53.0,80.0,90.0,0.0,0.0
1338,50.0,80.0,90.0,0.0,0.0
1339,48.0,80.0,90.0,1.0,0.0
1340,46.0,80.0,90.0,1.0,0.0
1341,58.0,80.0,90.0,1.0,0.0
1342,67.0,80.0,90.0,0.0,0.0
1343,65.0,80.0,90.0,0.0,0.0
1344,62.0,80.0,90.0,0.0,0.0
1345,60.0,80.0,90.0,1.0,0.0
1346,58.0,80.0,90.0,1.0,0.0
1347,62.0,80.0,90.0,1.0,0.0
1348,63.0,80.0,90.0,0.0,0.0
1349,62.0,80.0,90.0,0.0,0.0
1350,58.0,80.0,90.0,0.0,0.0
1351,56.0,80.0,90.0,1.0,0.0
1352,55.0,80.0,90.0,1.0,0.0
1353,58.0,80.0,90.0,1.0,0.0
1354,60.0,80.0,90.0,0.0,0.0
1355,58.0,80.0,90.0,0.0,0.0
1356,55.0,80.0,90.0,0.0,0.0
1357,53.0,80.0,90.0,1.0,0.0
1358,51.0,80.0,90.0,1.0,0.0
1359,63.0,80.0,90.0,1.0,0.0
1360,72.0,80.0,90.0,0.0,0.0
1361,70.0,80.0,90.0,0.0,0.0
1362,67.0,80.0,90.0,0.0,0.0
1363,65.0,80.0,90.0,1.0,0.0
1364,63.0,80.0,90.0,1.0,0.0
1365,67.0,80.0,90.0,1.0,0.0
1366,68.0,80.0,90.0,0.0,0.0
1367,67.0,80.0,90.0,0.0,0.0
1368,63.0,80.0,90.0,0.0,0.0
1369,61.0,80.0,90.0,1.0,0.0
1370,60.0,80.0,90.0,1.0,0.0
1371,63.0,80.0,90.0,1.0,0.0
1372,65.0,80.0,90.0,0.0,0.0
1373,63.0,80.0,90.0,0.0,0.0
1374,60.0,80.0,90.0,0.0,0.0
1375,58.0,80.0,90.0,1.0,0.0
1376,56.0,80.0,90.0,1.0,0.0
1377,68.0,80.0,90.0,1.0,0.0
1378,77.0,80.0,90.0,0.0,0.0
1379,75.0,80.0,90.0,0.0,0.0
1380,72.0,80.0,90.0,0.0,0.0
1381,70.0,80.0,90.0,1.0,0.0
1382,68.0,80.0,90.0,1.0,0.0
1383,72.0,80.0,90.0,1.0,0.0
1384,73.0,80.0,90.0,0.0,0.0
1385,72.0,80.0,90.0,0.0,0.0
1386,68.0,80.0,90.0,0.0,0.0
1387,67.0,80.0,90.0,1.0,0.0
1388,65.0,80.0,90.0,1.0,0.0
1389,68.0,80.0,90.0,1.0,0.0
1390,70.0,80.0,90.0,0.0,0.0
1391,68.0,80.0,90.0,0.0,0.0
1392,65.0,80.0,90.0,0.0,0.0
1393,63.0,160.0,90.0,1.0,0.0
1394,62.0,0.0,240.0,1.0,0.0
1395,65.0,80.0,90.0,0.0,0.0
1396,67.0,80.0,90.0,0.0,0.0
1397,68.0,80.0,90.0,0.0,0.0
1398,53.0,80.0,240.0,1.0,0.0
1399,70.0,80.0,90.0,0.0,0.0
1400,72.0,80.0,150.0,0.0,0.0
1401,55.0,80.0,240.0,1.0,0.0
1402,70.0,80.0,90.0,0.0,0.0
1403,68.0,0.0,90.0,0.0,0.0
1404,67.0,80.0,90.0,0.0,0.0
1405,56.0,80.0,240.0,1.0,0.0
1406,65.0,80.0,90.0,0.0,0.0
1407,63.0,80.0,150.0,0.0,0.0
1408,58.0,80.0,240.0,1.0,0.0
1409,62.0,80.0,90.0,0.0,0.0
1410,63.0,0.0,90.0,0.0,0.0
1411,65.0,80.0,90.0,0.0,0.0
1412,46.0,60.0,240.0,1.0,0.0
1413,67.0,80.0,90.0,0.0,0.0
1414,68.0,0.0,90.0,0.0,0.0
1415,51.0,240.0,240.0,1.0,0.0
1416,68.0,180.0,60.0,0.0,0.0
1417,67.0,0.0,180.0,0.0,0.0
1418,39.0,120.0,240.0,1.0,0.0
1419,75.0,0.0,120.0,0.0,0.0
1420,67.0,0.0,120.0,0.0,0.0
1421,70.0,0.0,120.0,0.0,0.0
1422,68.0,0.0,120.0,1.0,0.0
1423,65.0,0.0,120.0,1.0,0.0
1424,74.0,120.0,120.0,1.0,0.0
1425,75.0,120.0,120.0,0.0,0.0
1426,67.0,0.0,120.0,0.0,0.0
1427,70.0,0.0,120.0,0.0,0.0
1428,65.0,0.0,120.0,1.0,0.0
1429,74.0,0.0,120.0,1.0,0.0
1430,68.0,120.0,120.0,1.0,0.0
1431,75.0,0.0,120.0,0.0,0.0
1432,70.0,480.0,120.0,0.0,0.0
1433,67.0,0.0,120.0,0.0,0.0
1434,51.0,0.0,480.0,1.0,0.0
