,note,step,duration,channel,velocity
0,67.0,0.0,480.0,0.0,0.0
1,71.0,120.0,360.0,0.0,0.0
2,52.0,120.0,15.0,0.0,0.0
3,79.0,0.0,120.0,0.0,0.0
4,76.0,0.0,15.0,0.0,0.0
5,69.0,0.0,960.0,0.0,0.0
6,71.0,0.0,15.0,0.0,0.0
7,54.0,0.0,240.0,0.0,0.0
8,75.0,40.0,30.0,0.0,0.0
9,76.0,40.0,30.0,0.0,0.0
10,75.0,40.0,30.0,0.0,0.0
11,76.0,40.0,30.0,0.0,0.0
12,75.0,40.0,30.0,0.0,0.0
13,54.0,240.0,240.0,0.0,0.0
14,76.0,40.0,30.0,0.0,0.0
15,75.0,40.0,30.0,0.0,0.0
16,76.0,40.0,30.0,0.0,0.0
17,75.0,40.0,30.0,0.0,0.0
18,76.0,40.0,30.0,0.0,0.0
19,75.0,240.0,270.0,0.0,0.0
20,54.0,0.0,15.0,0.0,0.0
21,55.0,240.0,240.0,0.0,0.0
22,71.0,0.0,15.0,0.0,0.0
23,67.0,0.0,480.0,0.0,0.0
24,76.0,0.0,15.0,0.0,0.0
25,55.0,240.0,240.0,0.0,0.0
26,64.0,0.0,480.0,0.0,0.0
27,71.0,0.0,480.0,0.0,0.0
28,76.0,0.0,240.0,0.0,0.0
29,74.0,120.0,120.0,0.0,0.0
30,56.0,120.0,15.0,0.0,0.0
31,72.0,0.0,120.0,0.0,0.0
32,76.0,0.0,15.0,0.0,0.0
33,76.0,120.0,120.0,0.0,0.0
34,56.0,120.0,15.0,0.0,0.0
35,74.0,0.0,120.0,0.0,0.0
36,72.0,120.0,120.0,0.0,0.0
37,56.0,0.0,240.0,0.0,0.0
38,71.0,0.0,120.0,0.0,0.0
39,57.0,0.0,240.0,0.0,0.0
40,76.0,120.0,15.0,0.0,0.0
41,72.0,120.0,120.0,0.0,0.0
42,69.0,0.0,480.0,0.0,0.0
43,71.0,120.0,120.0,0.0,0.0
44,72.0,0.0,120.0,0.0,0.0
45,57.0,0.0,240.0,0.0,0.0
46,76.0,120.0,15.0,0.0,0.0
47,84.0,0.0,120.0,0.0,0.0
48,81.0,40.0,30.0,0.0,0.0
49,68.0,0.0,960.0,0.0,0.0
50,76.0,40.0,15.0,0.0,0.0
51,74.0,0.0,120.0,0.0,0.0
52,80.0,40.0,30.0,0.0,0.0
53,81.0,40.0,30.0,0.0,0.0
54,80.0,40.0,30.0,0.0,0.0
55,81.0,40.0,30.0,0.0,0.0
56,80.0,0.0,30.0,0.0,0.0
57,81.0,40.0,30.0,0.0,0.0
58,77.0,0.0,15.0,0.0,0.0
59,59.0,40.0,15.0,0.0,0.0
60,80.0,40.0,30.0,0.0,0.0
61,81.0,0.0,30.0,0.0,0.0
62,80.0,40.0,30.0,0.0,0.0
63,76.0,0.0,120.0,0.0,0.0
64,81.0,40.0,30.0,0.0,0.0
65,80.0,0.0,270.0,0.0,0.0
66,76.0,120.0,120.0,0.0,0.0
67,81.0,0.0,240.0,0.0,0.0
68,74.0,0.0,15.0,0.0,0.0
69,59.0,120.0,15.0,0.0,0.0
70,76.0,0.0,15.0,0.0,0.0
71,72.0,0.0,480.0,0.0,0.0
72,69.0,0.0,480.0,0.0,0.0
73,60.0,120.0,240.0,0.0,0.0
74,81.0,0.0,720.0,0.0,0.0
75,76.0,120.0,120.0,0.0,0.0
76,75.0,0.0,120.0,0.0,0.0
77,76.0,120.0,120.0,0.0,0.0
78,60.0,0.0,240.0,0.0,0.0
79,79.0,240.0,120.0,0.0,0.0
80,69.0,0.0,960.0,0.0,0.0
81,51.0,120.0,15.0,0.0,0.0
82,79.0,120.0,120.0,0.0,0.0
83,78.0,120.0,120.0,0.0,0.0
84,51.0,0.0,15.0,0.0,0.0
85,83.0,120.0,120.0,0.0,0.0
86,81.0,120.0,120.0,0.0,0.0
87,79.0,120.0,120.0,0.0,0.0
88,51.0,0.0,240.0,0.0,0.0
89,78.0,0.0,120.0,0.0,0.0
90,52.0,0.0,360.0,0.0,0.0
91,79.0,60.0,240.0,0.0,0.0
92,71.0,0.0,15.0,0.0,0.0
93,67.0,40.0,480.0,0.0,0.0
94,81.0,0.0,60.0,0.0,0.0
95,79.0,60.0,60.0,0.0,0.0
96,76.0,0.0,60.0,0.0,0.0
97,64.0,0.0,120.0,0.0,0.0
98,78.0,60.0,60.0,0.0,0.0
99,75.0,0.0,60.0,0.0,0.0
100,76.0,0.0,60.0,0.0,0.0
101,79.0,0.0,60.0,0.0,0.0
102,78.0,0.0,30.0,0.0,0.0
103,73.0,0.0,720.0,0.0,0.0
104,67.0,0.0,720.0,0.0,0.0
105,81.0,40.0,30.0,0.0,0.0
106,59.0,40.0,240.0,0.0,0.0
107,76.0,40.0,30.0,0.0,0.0
108,79.0,0.0,30.0,0.0,0.0
109,81.0,40.0,30.0,0.0,0.0
110,78.0,0.0,30.0,0.0,0.0
111,79.0,0.0,30.0,0.0,0.0
112,76.0,40.0,30.0,0.0,0.0
113,81.0,40.0,30.0,0.0,0.0
114,78.0,0.0,30.0,0.0,0.0
115,76.0,0.0,30.0,0.0,0.0
116,79.0,0.0,30.0,0.0,0.0
117,81.0,40.0,30.0,0.0,0.0
118,78.0,0.0,30.0,0.0,0.0
119,58.0,0.0,480.0,0.0,0.0
120,79.0,40.0,30.0,0.0,0.0
121,76.0,0.0,30.0,0.0,0.0
122,78.0,40.0,30.0,0.0,0.0
123,81.0,0.0,30.0,0.0,0.0
124,79.0,0.0,30.0,0.0,0.0
125,76.0,40.0,30.0,0.0,0.0
126,78.0,280.0,30.0,0.0,0.0
127,81.0,0.0,30.0,0.0,0.0
128,79.0,0.0,270.0,0.0,0.0
129,76.0,0.0,270.0,0.0,0.0
130,66.0,0.0,240.0,0.0,0.0
131,75.0,0.0,240.0,0.0,0.0
132,59.0,0.0,240.0,0.0,0.0
133,78.0,120.0,15.0,0.0,0.0
134,75.0,0.0,15.0,0.0,0.0
135,71.0,0.0,15.0,0.0,0.0
136,66.0,0.0,480.0,0.0,0.0
137,59.0,120.0,480.0,0.0,0.0
138,70.0,0.0,120.0,0.0,0.0
139,71.0,120.0,15.0,0.0,0.0
140,75.0,120.0,120.0,0.0,0.0
141,78.0,0.0,120.0,0.0,0.0
142,81.0,120.0,120.0,0.0,0.0
143,84.0,120.0,15.0,0.0,0.0
144,75.0,0.0,240.0,0.0,0.0
145,47.0,60.0,240.0,0.0,0.0
146,83.0,0.0,120.0,0.0,0.0
147,66.0,0.0,480.0,0.0,0.0
148,83.0,60.0,120.0,0.0,0.0
149,76.0,60.0,60.0,0.0,0.0
150,47.0,0.0,240.0,0.0,0.0
151,75.0,0.0,60.0,0.0,0.0
152,76.0,60.0,60.0,0.0,0.0
153,75.0,0.0,60.0,0.0,0.0
154,81.0,60.0,15.0,0.0,0.0
155,76.0,60.0,60.0,0.0,0.0
156,75.0,0.0,60.0,0.0,0.0
157,73.0,60.0,60.0,0.0,0.0
158,79.0,0.0,120.0,0.0,0.0
159,75.0,0.0,60.0,0.0,0.0
160,79.0,0.0,120.0,0.0,0.0
161,71.0,0.0,15.0,0.0,0.0
162,47.0,0.0,15.0,0.0,0.0
163,76.0,120.0,120.0,0.0,0.0
164,66.0,120.0,120.0,0.0,0.0
165,75.0,0.0,120.0,0.0,0.0
166,76.0,0.0,240.0,0.0,0.0
167,67.0,120.0,120.0,0.0,0.0
168,71.0,0.0,120.0,0.0,0.0
169,76.0,120.0,120.0,0.0,0.0
170,79.0,120.0,120.0,0.0,0.0
171,70.0,0.0,240.0,0.0,0.0
172,59.0,0.0,240.0,0.0,0.0
173,79.0,120.0,120.0,0.0,0.0
174,78.0,60.0,120.0,0.0,0.0
175,59.0,0.0,240.0,0.0,0.0
176,66.0,0.0,480.0,0.0,0.0
177,73.0,0.0,480.0,0.0,0.0
178,71.0,60.0,60.0,0.0,0.0
179,78.0,0.0,120.0,0.0,0.0
180,70.0,60.0,60.0,0.0,0.0
181,71.0,60.0,60.0,0.0,0.0
182,70.0,60.0,60.0,0.0,0.0
183,76.0,0.0,15.0,0.0,0.0
184,59.0,120.0,240.0,0.0,0.0
185,71.0,60.0,60.0,0.0,0.0
186,70.0,0.0,60.0,0.0,0.0
187,68.0,60.0,60.0,0.0,0.0
188,70.0,0.0,60.0,0.0,0.0
189,75.0,0.0,15.0,0.0,0.0
190,59.0,120.0,120.0,0.0,0.0
191,47.0,120.0,120.0,0.0,0.0
192,51.0,120.0,120.0,0.0,0.0
193,54.0,120.0,120.0,0.0,0.0
194,57.0,120.0,120.0,0.0,0.0
195,75.0,0.0,15.0,0.0,0.0
196,71.0,0.0,15.0,0.0,0.0
197,66.0,0.0,15.0,0.0,0.0
198,60.0,120.0,120.0,0.0,0.0
199,60.0,120.0,120.0,0.0,0.0
200,59.0,0.0,120.0,0.0,0.0
201,59.0,120.0,120.0,0.0,0.0
202,57.0,120.0,120.0,0.0,0.0
203,57.0,120.0,120.0,0.0,0.0
204,56.0,0.0,120.0,0.0,0.0
205,64.0,0.0,480.0,0.0,0.0
206,71.0,120.0,15.0,0.0,0.0
207,76.0,0.0,360.0,0.0,0.0
208,56.0,120.0,120.0,0.0,0.0
209,52.0,120.0,120.0,0.0,0.0
210,56.0,120.0,120.0,0.0,0.0
211,86.0,0.0,120.0,0.0,0.0
212,59.0,0.0,120.0,0.0,0.0
213,68.0,0.0,960.0,0.0,0.0
214,71.0,0.0,15.0,0.0,0.0
215,62.0,40.0,120.0,0.0,0.0
216,76.0,40.0,15.0,0.0,0.0
217,84.0,40.0,30.0,0.0,0.0
218,83.0,40.0,30.0,0.0,0.0
219,84.0,0.0,30.0,0.0,0.0
220,83.0,40.0,30.0,0.0,0.0
221,84.0,40.0,30.0,0.0,0.0
222,83.0,40.0,30.0,0.0,0.0
223,84.0,40.0,30.0,0.0,0.0
224,65.0,0.0,15.0,0.0,0.0
225,83.0,40.0,30.0,0.0,0.0
226,84.0,0.0,30.0,0.0,0.0
227,64.0,120.0,120.0,0.0,0.0
228,83.0,40.0,30.0,0.0,0.0
229,84.0,40.0,30.0,0.0,0.0
230,83.0,120.0,270.0,0.0,0.0
231,64.0,120.0,120.0,0.0,0.0
232,62.0,0.0,120.0,0.0,0.0
233,60.0,120.0,120.0,0.0,0.0
234,59.0,120.0,120.0,0.0,0.0
235,72.0,0.0,960.0,0.0,0.0
236,76.0,0.0,15.0,0.0,0.0
237,84.0,0.0,15.0,0.0,0.0
238,69.0,120.0,360.0,0.0,0.0
239,57.0,120.0,120.0,0.0,0.0
240,45.0,120.0,120.0,0.0,0.0
241,48.0,0.0,120.0,0.0,0.0
242,79.0,0.0,120.0,0.0,0.0
243,52.0,40.0,120.0,0.0,0.0
244,78.0,40.0,30.0,0.0,0.0
245,55.0,40.0,120.0,0.0,0.0
246,76.0,40.0,30.0,0.0,0.0
247,78.0,0.0,30.0,0.0,0.0
248,59.0,0.0,120.0,0.0,0.0
249,76.0,40.0,30.0,0.0,0.0
250,78.0,40.0,30.0,0.0,0.0
251,76.0,40.0,30.0,0.0,0.0
252,78.0,40.0,30.0,0.0,0.0
253,59.0,0.0,120.0,0.0,0.0
254,76.0,40.0,30.0,0.0,0.0
255,78.0,40.0,30.0,0.0,0.0
256,76.0,40.0,30.0,0.0,0.0
257,78.0,40.0,30.0,0.0,0.0
258,76.0,0.0,30.0,0.0,0.0
259,57.0,120.0,15.0,0.0,0.0
260,69.0,0.0,480.0,0.0,0.0
261,76.0,0.0,240.0,0.0,0.0
262,55.0,120.0,120.0,0.0,0.0
263,54.0,120.0,120.0,0.0,0.0
264,52.0,0.0,120.0,0.0,0.0
265,78.0,0.0,15.0,0.0,0.0
266,50.0,0.0,240.0,0.0,0.0
267,69.0,0.0,1440.0,0.0,0.0
268,72.0,120.0,15.0,0.0,0.0
269,74.0,120.0,120.0,0.0,0.0
270,78.0,120.0,120.0,0.0,0.0
271,81.0,0.0,120.0,0.0,0.0
272,50.0,120.0,15.0,0.0,0.0
273,84.0,120.0,120.0,0.0,0.0
274,88.0,0.0,120.0,0.0,0.0
275,88.0,120.0,120.0,0.0,0.0
276,86.0,0.0,120.0,0.0,0.0
277,86.0,120.0,120.0,0.0,0.0
278,50.0,120.0,15.0,0.0,0.0
279,50.0,0.0,15.0,0.0,0.0
280,84.0,120.0,15.0,0.0,0.0
281,78.0,0.0,15.0,0.0,0.0
282,83.0,0.0,15.0,0.0,0.0
283,55.0,0.0,240.0,0.0,0.0
284,67.0,120.0,120.0,0.0,0.0
285,71.0,120.0,120.0,0.0,0.0
286,55.0,0.0,240.0,0.0,0.0
287,74.0,0.0,120.0,0.0,0.0
288,71.0,0.0,15.0,0.0,0.0
289,77.0,120.0,120.0,0.0,0.0
290,55.0,0.0,240.0,0.0,0.0
291,67.0,0.0,960.0,0.0,0.0
292,55.0,0.0,240.0,0.0,0.0
293,81.0,120.0,15.0,0.0,0.0
294,55.0,0.0,240.0,0.0,0.0
295,79.0,120.0,15.0,0.0,0.0
296,77.0,120.0,15.0,0.0,0.0
297,55.0,120.0,240.0,0.0,0.0
298,67.0,0.0,480.0,0.0,0.0
299,71.0,240.0,480.0,0.0,0.0
300,48.0,0.0,480.0,0.0,0.0
301,76.0,0.0,15.0,0.0,0.0
302,88.0,120.0,120.0,0.0,0.0
303,64.0,0.0,240.0,0.0,0.0
304,80.0,120.0,120.0,0.0,0.0
305,81.0,0.0,120.0,0.0,0.0
306,60.0,0.0,480.0,0.0,0.0
307,64.0,0.0,480.0,0.0,0.0
308,69.0,120.0,240.0,0.0,0.0
309,84.0,0.0,120.0,0.0,0.0
310,75.0,120.0,120.0,0.0,0.0
311,72.0,0.0,240.0,0.0,0.0
312,76.0,0.0,120.0,0.0,0.0
313,76.0,240.0,15.0,0.0,0.0
314,81.0,120.0,120.0,0.0,0.0
315,79.0,120.0,240.0,0.0,0.0
316,52.0,0.0,240.0,0.0,0.0
317,67.0,0.0,240.0,0.0,0.0
318,76.0,0.0,240.0,0.0,0.0
319,71.0,120.0,120.0,0.0,0.0
320,72.0,0.0,15.0,0.0,0.0
321,50.0,0.0,480.0,0.0,0.0
322,78.0,120.0,120.0,0.0,0.0
323,62.0,0.0,120.0,0.0,0.0
324,71.0,120.0,120.0,0.0,0.0
325,78.0,240.0,240.0,0.0,0.0
326,69.0,0.0,120.0,0.0,0.0
327,62.0,0.0,480.0,0.0,0.0
328,81.0,120.0,240.0,0.0,0.0
329,66.0,0.0,120.0,0.0,0.0
330,84.0,0.0,240.0,0.0,0.0
331,76.0,120.0,120.0,0.0,0.0
332,74.0,0.0,120.0,0.0,0.0
333,88.0,120.0,120.0,0.0,0.0
334,84.0,120.0,120.0,0.0,0.0
335,69.0,0.0,120.0,0.0,0.0
336,79.0,0.0,120.0,0.0,0.0
337,60.0,0.0,240.0,0.0,0.0
338,83.0,120.0,120.0,0.0,0.0
339,69.0,0.0,240.0,0.0,0.0
340,78.0,0.0,120.0,0.0,0.0
341,81.0,240.0,120.0,0.0,0.0
342,71.0,0.0,240.0,0.0,0.0
343,79.0,0.0,240.0,0.0,0.0
344,74.0,0.0,15.0,0.0,0.0
345,59.0,120.0,240.0,0.0,0.0
346,86.0,0.0,360.0,0.0,0.0
347,60.0,0.0,240.0,0.0,0.0
348,71.0,0.0,240.0,0.0,0.0
349,79.0,120.0,120.0,0.0,0.0
350,76.0,0.0,120.0,0.0,0.0
351,72.0,40.0,120.0,0.0,0.0
352,79.0,0.0,15.0,0.0,0.0
353,74.0,0.0,960.0,0.0,0.0
354,62.0,0.0,240.0,0.0,0.0
355,71.0,40.0,30.0,0.0,0.0
356,69.0,40.0,30.0,0.0,0.0
357,78.0,0.0,30.0,0.0,0.0
358,79.0,0.0,30.0,0.0,0.0
359,71.0,40.0,30.0,0.0,0.0
360,69.0,0.0,30.0,0.0,0.0
361,78.0,40.0,30.0,0.0,0.0
362,79.0,40.0,30.0,0.0,0.0
363,71.0,0.0,30.0,0.0,0.0
364,69.0,0.0,30.0,0.0,0.0
365,78.0,40.0,30.0,0.0,0.0
366,71.0,0.0,30.0,0.0,0.0
367,79.0,40.0,30.0,0.0,0.0
368,62.0,240.0,240.0,0.0,0.0
369,69.0,40.0,30.0,0.0,0.0
370,78.0,0.0,30.0,0.0,0.0
371,71.0,40.0,30.0,0.0,0.0
372,79.0,0.0,30.0,0.0,0.0
373,69.0,40.0,30.0,0.0,0.0
374,78.0,0.0,30.0,0.0,0.0
375,79.0,0.0,30.0,0.0,0.0
376,71.0,40.0,30.0,0.0,0.0
377,69.0,0.0,270.0,0.0,0.0
378,78.0,240.0,270.0,0.0,0.0
379,50.0,0.0,15.0,0.0,0.0
380,67.0,0.0,240.0,0.0,0.0
381,79.0,0.0,15.0,0.0,0.0
382,43.0,240.0,240.0,0.0,0.0
383,79.0,240.0,960.0,0.0,0.0
384,71.0,0.0,960.0,0.0,0.0
385,74.0,0.0,960.0,0.0,0.0
386,55.0,240.0,240.0,0.0,0.0
387,59.0,240.0,240.0,0.0,0.0
388,57.0,0.0,240.0,0.0,0.0
389,55.0,240.0,240.0,0.0,0.0
390,54.0,0.0,240.0,0.0,0.0
391,67.0,240.0,15.0,0.0,0.0
392,71.0,120.0,360.0,0.0,0.0
393,76.0,0.0,480.0,0.0,0.0
394,52.0,120.0,15.0,0.0,0.0
395,79.0,0.0,120.0,0.0,0.0
396,69.0,0.0,960.0,0.0,0.0
397,71.0,40.0,15.0,0.0,0.0
398,76.0,40.0,30.0,0.0,0.0
399,75.0,40.0,30.0,0.0,0.0
400,76.0,40.0,30.0,0.0,0.0
401,75.0,40.0,30.0,0.0,0.0
402,76.0,40.0,30.0,0.0,0.0
403,75.0,40.0,30.0,0.0,0.0
404,54.0,0.0,15.0,0.0,0.0
405,76.0,40.0,30.0,0.0,0.0
406,75.0,40.0,30.0,0.0,0.0
407,76.0,40.0,30.0,0.0,0.0
408,75.0,40.0,30.0,0.0,0.0
409,76.0,40.0,30.0,0.0,0.0
410,75.0,0.0,270.0,0.0,0.0
411,54.0,240.0,15.0,0.0,0.0
412,54.0,240.0,240.0,0.0,0.0
413,67.0,240.0,480.0,0.0,0.0
414,71.0,0.0,480.0,0.0,0.0
415,76.0,0.0,15.0,0.0,0.0
416,55.0,240.0,15.0,0.0,0.0
417,56.0,120.0,240.0,0.0,0.0
418,64.0,120.0,480.0,0.0,0.0
419,71.0,0.0,480.0,0.0,0.0
420,76.0,0.0,240.0,0.0,0.0
421,74.0,120.0,120.0,0.0,0.0
422,56.0,0.0,240.0,0.0,0.0
423,72.0,0.0,120.0,0.0,0.0
424,76.0,0.0,15.0,0.0,0.0
425,76.0,120.0,120.0,0.0,0.0
426,56.0,0.0,240.0,0.0,0.0
427,74.0,120.0,120.0,0.0,0.0
428,56.0,0.0,240.0,0.0,0.0
429,72.0,120.0,120.0,0.0,0.0
430,71.0,0.0,120.0,0.0,0.0
431,57.0,120.0,240.0,0.0,0.0
432,76.0,120.0,15.0,0.0,0.0
433,69.0,0.0,480.0,0.0,0.0
434,72.0,120.0,120.0,0.0,0.0
435,71.0,0.0,120.0,0.0,0.0
436,72.0,0.0,120.0,0.0,0.0
437,57.0,0.0,240.0,0.0,0.0
438,76.0,120.0,15.0,0.0,0.0
439,84.0,0.0,120.0,0.0,0.0
440,76.0,40.0,15.0,0.0,0.0
441,81.0,40.0,30.0,0.0,0.0
442,68.0,0.0,960.0,0.0,0.0
443,74.0,40.0,120.0,0.0,0.0
444,80.0,40.0,30.0,0.0,0.0
445,81.0,0.0,30.0,0.0,0.0
446,80.0,40.0,30.0,0.0,0.0
447,81.0,40.0,30.0,0.0,0.0
448,80.0,0.0,30.0,0.0,0.0
449,59.0,0.0,15.0,0.0,0.0
450,81.0,40.0,30.0,0.0,0.0
451,77.0,40.0,15.0,0.0,0.0
452,80.0,40.0,30.0,0.0,0.0
453,81.0,0.0,30.0,0.0,0.0
454,76.0,120.0,120.0,0.0,0.0
455,80.0,40.0,30.0,0.0,0.0
456,81.0,40.0,30.0,0.0,0.0
457,80.0,0.0,270.0,0.0,0.0
458,59.0,0.0,240.0,0.0,0.0
459,76.0,120.0,120.0,0.0,0.0
460,74.0,120.0,120.0,0.0,0.0
461,74.0,120.0,120.0,0.0,0.0
462,59.0,0.0,240.0,0.0,0.0
463,81.0,0.0,15.0,0.0,0.0
464,76.0,0.0,15.0,0.0,0.0
465,72.0,0.0,480.0,0.0,0.0
466,76.0,120.0,120.0,0.0,0.0
467,75.0,0.0,120.0,0.0,0.0
468,76.0,120.0,120.0,0.0,0.0
469,60.0,120.0,15.0,0.0,0.0
470,79.0,0.0,120.0,0.0,0.0
471,69.0,0.0,15.0,0.0,0.0
472,79.0,120.0,120.0,0.0,0.0
473,51.0,120.0,15.0,0.0,0.0
474,78.0,120.0,120.0,0.0,0.0
475,51.0,0.0,15.0,0.0,0.0
476,83.0,120.0,120.0,0.0,0.0
477,81.0,0.0,120.0,0.0,0.0
478,79.0,120.0,120.0,0.0,0.0
479,51.0,120.0,15.0,0.0,0.0
480,78.0,0.0,120.0,0.0,0.0
481,79.0,60.0,240.0,0.0,0.0
482,52.0,0.0,360.0,0.0,0.0
483,71.0,240.0,15.0,0.0,0.0
484,81.0,60.0,60.0,0.0,0.0
485,76.0,0.0,60.0,0.0,0.0
486,79.0,60.0,60.0,0.0,0.0
487,75.0,60.0,60.0,0.0,0.0
488,78.0,0.0,60.0,0.0,0.0
489,64.0,0.0,120.0,0.0,0.0
490,79.0,0.0,60.0,0.0,0.0
491,76.0,0.0,60.0,0.0,0.0
492,67.0,0.0,15.0,0.0,0.0
493,59.0,40.0,240.0,0.0,0.0
494,81.0,40.0,30.0,0.0,0.0
495,73.0,240.0,720.0,0.0,0.0
496,78.0,0.0,30.0,0.0,0.0
497,76.0,40.0,30.0,0.0,0.0
498,79.0,0.0,30.0,0.0,0.0
499,78.0,0.0,30.0,0.0,0.0
500,81.0,40.0,30.0,0.0,0.0
501,76.0,0.0,30.0,0.0,0.0
502,79.0,40.0,30.0,0.0,0.0
503,78.0,40.0,30.0,0.0,0.0
504,81.0,0.0,30.0,0.0,0.0
505,76.0,0.0,30.0,0.0,0.0
506,79.0,0.0,30.0,0.0,0.0
507,78.0,40.0,30.0,0.0,0.0
508,81.0,0.0,30.0,0.0,0.0
509,58.0,0.0,480.0,0.0,0.0
510,79.0,40.0,30.0,0.0,0.0
511,76.0,0.0,30.0,0.0,0.0
512,81.0,40.0,30.0,0.0,0.0
513,78.0,0.0,30.0,0.0,0.0
514,79.0,40.0,30.0,0.0,0.0
515,76.0,0.0,30.0,0.0,0.0
516,78.0,0.0,30.0,0.0,0.0
517,81.0,280.0,30.0,0.0,0.0
518,76.0,0.0,270.0,0.0,0.0
519,79.0,0.0,270.0,0.0,0.0
520,59.0,0.0,240.0,0.0,0.0
521,66.0,0.0,240.0,0.0,0.0
522,71.0,0.0,240.0,0.0,0.0
523,75.0,0.0,240.0,0.0,0.0
524,78.0,0.0,240.0,0.0,0.0
525,66.0,0.0,480.0,0.0,0.0
526,75.0,120.0,15.0,0.0,0.0
527,78.0,0.0,120.0,0.0,0.0
528,59.0,0.0,480.0,0.0,0.0
529,70.0,0.0,120.0,0.0,0.0
530,71.0,120.0,15.0,0.0,0.0
531,75.0,120.0,120.0,0.0,0.0
532,78.0,0.0,120.0,0.0,0.0
533,81.0,120.0,120.0,0.0,0.0
534,75.0,0.0,240.0,0.0,0.0
535,84.0,120.0,15.0,0.0,0.0
536,47.0,0.0,240.0,0.0,0.0
537,83.0,60.0,15.0,0.0,0.0
538,76.0,60.0,60.0,0.0,0.0
539,66.0,0.0,480.0,0.0,0.0
540,75.0,0.0,60.0,0.0,0.0
541,81.0,0.0,120.0,0.0,0.0
542,76.0,60.0,60.0,0.0,0.0
543,75.0,0.0,60.0,0.0,0.0
544,47.0,60.0,15.0,0.0,0.0
545,81.0,0.0,120.0,0.0,0.0
546,76.0,60.0,60.0,0.0,0.0
547,75.0,60.0,60.0,0.0,0.0
548,79.0,0.0,120.0,0.0,0.0
549,73.0,60.0,60.0,0.0,0.0
550,75.0,0.0,60.0,0.0,0.0
551,79.0,0.0,120.0,0.0,0.0
552,47.0,0.0,15.0,0.0,0.0
553,76.0,120.0,120.0,0.0,0.0
554,71.0,0.0,15.0,0.0,0.0
555,75.0,0.0,120.0,0.0,0.0
556,66.0,120.0,120.0,0.0,0.0
557,76.0,0.0,240.0,0.0,0.0
558,67.0,120.0,120.0,0.0,0.0
559,71.0,0.0,120.0,0.0,0.0
560,76.0,120.0,15.0,0.0,0.0
561,79.0,120.0,15.0,0.0,0.0
562,78.0,60.0,120.0,0.0,0.0
563,66.0,0.0,480.0,0.0,0.0
564,70.0,0.0,15.0,0.0,0.0
565,59.0,0.0,15.0,0.0,0.0
566,71.0,60.0,60.0,0.0,0.0
567,78.0,60.0,120.0,0.0,0.0
568,73.0,120.0,480.0,0.0,0.0
569,70.0,0.0,60.0,0.0,0.0
570,71.0,60.0,60.0,0.0,0.0
571,76.0,0.0,120.0,0.0,0.0
572,70.0,60.0,60.0,0.0,0.0
573,76.0,0.0,120.0,0.0,0.0
574,71.0,60.0,60.0,0.0,0.0
575,70.0,60.0,60.0,0.0,0.0
576,68.0,60.0,60.0,0.0,0.0
577,70.0,0.0,60.0,0.0,0.0
578,75.0,0.0,15.0,0.0,0.0
579,59.0,0.0,15.0,0.0,0.0
580,47.0,120.0,120.0,0.0,0.0
581,51.0,120.0,120.0,0.0,0.0
582,54.0,0.0,120.0,0.0,0.0
583,57.0,120.0,120.0,0.0,0.0
584,75.0,0.0,15.0,0.0,0.0
585,71.0,120.0,15.0,0.0,0.0
586,66.0,0.0,15.0,0.0,0.0
587,60.0,120.0,15.0,0.0,0.0
588,59.0,0.0,120.0,0.0,0.0
589,59.0,120.0,120.0,0.0,0.0
590,57.0,120.0,15.0,0.0,0.0
591,56.0,0.0,120.0,0.0,0.0
592,56.0,120.0,120.0,0.0,0.0
593,64.0,0.0,480.0,0.0,0.0
594,76.0,0.0,360.0,0.0,0.0
595,52.0,120.0,120.0,0.0,0.0
596,56.0,120.0,120.0,0.0,0.0
597,86.0,40.0,120.0,0.0,0.0
598,59.0,0.0,120.0,0.0,0.0
599,71.0,0.0,15.0,0.0,0.0
600,68.0,0.0,960.0,0.0,0.0
601,76.0,0.0,15.0,0.0,0.0
602,62.0,40.0,120.0,0.0,0.0
603,84.0,40.0,30.0,0.0,0.0
604,83.0,40.0,30.0,0.0,0.0
605,84.0,0.0,30.0,0.0,0.0
606,83.0,40.0,30.0,0.0,0.0
607,84.0,40.0,30.0,0.0,0.0
608,83.0,0.0,30.0,0.0,0.0
609,65.0,40.0,15.0,0.0,0.0
610,84.0,40.0,30.0,0.0,0.0
611,83.0,40.0,30.0,0.0,0.0
612,84.0,0.0,30.0,0.0,0.0
613,83.0,40.0,30.0,0.0,0.0
614,84.0,40.0,30.0,0.0,0.0
615,83.0,120.0,270.0,0.0,0.0
616,64.0,120.0,15.0,0.0,0.0
617,62.0,0.0,120.0,0.0,0.0
618,60.0,120.0,120.0,0.0,0.0
619,59.0,0.0,120.0,0.0,0.0
620,57.0,120.0,120.0,0.0,0.0
621,76.0,0.0,15.0,0.0,0.0
622,72.0,0.0,960.0,0.0,0.0
623,69.0,120.0,360.0,0.0,0.0
624,84.0,120.0,15.0,0.0,0.0
625,45.0,120.0,120.0,0.0,0.0
626,48.0,0.0,120.0,0.0,0.0
627,79.0,40.0,120.0,0.0,0.0
628,52.0,0.0,120.0,0.0,0.0
629,55.0,0.0,120.0,0.0,0.0
630,78.0,40.0,30.0,0.0,0.0
631,76.0,40.0,30.0,0.0,0.0
632,78.0,40.0,30.0,0.0,0.0
633,76.0,40.0,30.0,0.0,0.0
634,59.0,40.0,120.0,0.0,0.0
635,78.0,40.0,30.0,0.0,0.0
636,76.0,0.0,30.0,0.0,0.0
637,78.0,40.0,30.0,0.0,0.0
638,59.0,40.0,120.0,0.0,0.0
639,76.0,40.0,30.0,0.0,0.0
640,78.0,0.0,30.0,0.0,0.0
641,76.0,40.0,30.0,0.0,0.0
642,78.0,40.0,30.0,0.0,0.0
643,76.0,0.0,30.0,0.0,0.0
644,57.0,0.0,15.0,0.0,0.0
645,69.0,0.0,480.0,0.0,0.0
646,76.0,120.0,240.0,0.0,0.0
647,55.0,0.0,120.0,0.0,0.0
648,54.0,120.0,120.0,0.0,0.0
649,52.0,0.0,120.0,0.0,0.0
650,78.0,0.0,15.0,0.0,0.0
651,72.0,120.0,15.0,0.0,0.0
652,50.0,120.0,240.0,0.0,0.0
653,69.0,0.0,1440.0,0.0,0.0
654,74.0,0.0,120.0,0.0,0.0
655,78.0,120.0,120.0,0.0,0.0
656,50.0,0.0,240.0,0.0,0.0
657,81.0,120.0,120.0,0.0,0.0
658,84.0,120.0,120.0,0.0,0.0
659,50.0,0.0,240.0,0.0,0.0
660,88.0,120.0,15.0,0.0,0.0
661,50.0,0.0,240.0,0.0,0.0
662,86.0,120.0,15.0,0.0,0.0
663,50.0,120.0,15.0,0.0,0.0
664,84.0,0.0,15.0,0.0,0.0
665,83.0,0.0,15.0,0.0,0.0
666,55.0,0.0,240.0,0.0,0.0
667,78.0,120.0,15.0,0.0,0.0
668,67.0,120.0,120.0,0.0,0.0
669,71.0,120.0,120.0,0.0,0.0
670,74.0,0.0,120.0,0.0,0.0
671,55.0,120.0,15.0,0.0,0.0
672,77.0,120.0,120.0,0.0,0.0
673,81.0,0.0,15.0,0.0,0.0
674,55.0,120.0,240.0,0.0,0.0
675,79.0,0.0,120.0,0.0,0.0
676,79.0,120.0,120.0,0.0,0.0
677,77.0,0.0,120.0,0.0,0.0
678,55.0,120.0,15.0,0.0,0.0
679,77.0,120.0,120.0,0.0,0.0
680,67.0,0.0,15.0,0.0,0.0
681,71.0,120.0,15.0,0.0,0.0
682,48.0,0.0,480.0,0.0,0.0
683,76.0,0.0,15.0,0.0,0.0
684,88.0,0.0,120.0,0.0,0.0
685,80.0,120.0,120.0,0.0,0.0
686,81.0,0.0,120.0,0.0,0.0
687,64.0,0.0,15.0,0.0,0.0
688,60.0,0.0,480.0,0.0,0.0
689,69.0,0.0,240.0,0.0,0.0
690,84.0,120.0,120.0,0.0,0.0
691,75.0,120.0,120.0,0.0,0.0
692,72.0,0.0,240.0,0.0,0.0
693,76.0,0.0,15.0,0.0,0.0
694,81.0,120.0,120.0,0.0,0.0
695,79.0,0.0,240.0,0.0,0.0
696,67.0,0.0,240.0,0.0,0.0
697,71.0,120.0,120.0,0.0,0.0
698,52.0,120.0,240.0,0.0,0.0
699,76.0,0.0,240.0,0.0,0.0
700,72.0,0.0,120.0,0.0,0.0
701,72.0,0.0,15.0,0.0,0.0
702,50.0,240.0,480.0,0.0,0.0
703,72.0,120.0,240.0,0.0,0.0
704,78.0,120.0,120.0,0.0,0.0
705,62.0,0.0,120.0,0.0,0.0
706,71.0,120.0,120.0,0.0,0.0
707,78.0,0.0,240.0,0.0,0.0
708,69.0,0.0,120.0,0.0,0.0
709,81.0,0.0,240.0,0.0,0.0
710,62.0,120.0,480.0,0.0,0.0
711,66.0,120.0,120.0,0.0,0.0
712,84.0,0.0,240.0,0.0,0.0
713,76.0,120.0,120.0,0.0,0.0
714,74.0,0.0,120.0,0.0,0.0
715,88.0,120.0,120.0,0.0,0.0
716,69.0,0.0,120.0,0.0,0.0
717,84.0,120.0,120.0,0.0,0.0
718,83.0,120.0,120.0,0.0,0.0
719,60.0,0.0,240.0,0.0,0.0
720,74.0,0.0,240.0,0.0,0.0
721,69.0,240.0,240.0,0.0,0.0
722,79.0,0.0,120.0,0.0,0.0
723,78.0,0.0,120.0,0.0,0.0
724,81.0,0.0,120.0,0.0,0.0
725,86.0,0.0,360.0,0.0,0.0
726,59.0,120.0,240.0,0.0,0.0
727,71.0,0.0,240.0,0.0,0.0
728,74.0,0.0,240.0,0.0,0.0
729,79.0,0.0,240.0,0.0,0.0
730,79.0,120.0,120.0,0.0,0.0
731,60.0,0.0,240.0,0.0,0.0
732,76.0,0.0,120.0,0.0,0.0
733,72.0,0.0,120.0,0.0,0.0
734,79.0,0.0,15.0,0.0,0.0
735,71.0,40.0,15.0,0.0,0.0
736,74.0,0.0,960.0,0.0,0.0
737,69.0,0.0,30.0,0.0,0.0
738,78.0,40.0,30.0,0.0,0.0
739,79.0,40.0,30.0,0.0,0.0
740,71.0,0.0,30.0,0.0,0.0
741,69.0,0.0,30.0,0.0,0.0
742,78.0,40.0,30.0,0.0,0.0
743,79.0,40.0,30.0,0.0,0.0
744,71.0,0.0,30.0,0.0,0.0
745,69.0,0.0,30.0,0.0,0.0
746,78.0,0.0,30.0,0.0,0.0
747,79.0,40.0,30.0,0.0,0.0
748,62.0,40.0,15.0,0.0,0.0
749,71.0,0.0,30.0,0.0,0.0
750,78.0,40.0,30.0,0.0,0.0
751,69.0,0.0,30.0,0.0,0.0
752,71.0,0.0,30.0,0.0,0.0
753,79.0,40.0,30.0,0.0,0.0
754,78.0,0.0,30.0,0.0,0.0
755,69.0,40.0,30.0,0.0,0.0
756,71.0,40.0,30.0,0.0,0.0
757,79.0,0.0,30.0,0.0,0.0
758,69.0,0.0,270.0,0.0,0.0
759,78.0,240.0,270.0,0.0,0.0
760,50.0,0.0,240.0,0.0,0.0
761,67.0,0.0,240.0,0.0,0.0
762,50.0,240.0,240.0,0.0,0.0
763,71.0,0.0,960.0,0.0,0.0
764,74.0,0.0,960.0,0.0,0.0
765,79.0,0.0,15.0,0.0,0.0
766,67.0,0.0,1440.0,0.0,0.0
767,43.0,240.0,240.0,0.0,0.0
768,79.0,240.0,960.0,0.0,0.0
769,55.0,240.0,240.0,0.0,0.0
770,59.0,240.0,240.0,0.0,0.0
771,57.0,0.0,240.0,0.0,0.0
772,55.0,240.0,240.0,0.0,0.0
773,54.0,240.0,240.0,0.0,0.0
774,71.0,0.0,480.0,0.0,0.0
775,83.0,120.0,360.0,0.0,0.0
776,79.0,0.0,480.0,0.0,0.0
777,55.0,120.0,240.0,0.0,0.0
778,55.0,0.0,240.0,0.0,0.0
779,74.0,0.0,120.0,0.0,0.0
780,69.0,0.0,480.0,0.0,0.0
781,72.0,0.0,480.0,0.0,0.0
782,76.0,40.0,30.0,0.0,0.0
783,77.0,40.0,30.0,0.0,0.0
784,79.0,40.0,30.0,0.0,0.0
785,77.0,40.0,30.0,0.0,0.0
786,79.0,40.0,30.0,0.0,0.0
787,77.0,0.0,30.0,0.0,0.0
788,79.0,40.0,30.0,0.0,0.0
789,57.0,40.0,15.0,0.0,0.0
790,77.0,40.0,30.0,0.0,0.0
791,79.0,30.0,30.0,0.0,0.0
792,77.0,30.0,30.0,0.0,0.0
793,79.0,30.0,30.0,0.0,0.0
794,77.0,30.0,30.0,0.0,0.0
795,79.0,0.0,30.0,0.0,0.0
796,77.0,0.0,15.0,0.0,0.0
797,67.0,120.0,480.0,0.0,0.0
798,77.0,0.0,240.0,0.0,0.0
799,74.0,0.0,480.0,0.0,0.0
800,59.0,240.0,240.0,0.0,0.0
801,76.0,0.0,240.0,0.0,0.0
802,59.0,0.0,240.0,0.0,0.0
803,60.0,120.0,240.0,0.0,0.0
804,76.0,120.0,120.0,0.0,0.0
805,66.0,0.0,120.0,0.0,0.0
806,67.0,120.0,120.0,0.0,0.0
807,60.0,120.0,240.0,0.0,0.0
808,71.0,0.0,120.0,0.0,0.0
809,72.0,120.0,120.0,0.0,0.0
810,60.0,120.0,240.0,0.0,0.0
811,76.0,0.0,120.0,0.0,0.0
812,79.0,120.0,120.0,0.0,0.0
813,60.0,240.0,240.0,0.0,0.0
814,78.0,0.0,120.0,0.0,0.0
815,67.0,120.0,480.0,0.0,0.0
816,74.0,0.0,480.0,0.0,0.0
817,79.0,0.0,480.0,0.0,0.0
818,58.0,240.0,15.0,0.0,0.0
819,79.0,120.0,120.0,0.0,0.0
820,73.0,0.0,480.0,0.0,0.0
821,69.0,0.0,480.0,0.0,0.0
822,57.0,120.0,240.0,0.0,0.0
823,85.0,0.0,360.0,0.0,0.0
824,88.0,0.0,120.0,0.0,0.0
825,57.0,0.0,240.0,0.0,0.0
826,78.0,120.0,120.0,0.0,0.0
827,76.0,0.0,120.0,0.0,0.0
828,79.0,0.0,120.0,0.0,0.0
829,78.0,40.0,30.0,0.0,0.0
830,59.0,0.0,240.0,0.0,0.0
831,67.0,0.0,480.0,0.0,0.0
832,79.0,40.0,30.0,0.0,0.0
833,81.0,40.0,30.0,0.0,0.0
834,83.0,40.0,120.0,0.0,0.0
835,79.0,40.0,30.0,0.0,0.0
836,81.0,40.0,30.0,0.0,0.0
837,79.0,0.0,30.0,0.0,0.0
838,59.0,0.0,240.0,0.0,0.0
839,81.0,40.0,30.0,0.0,0.0
840,73.0,30.0,120.0,0.0,0.0
841,79.0,40.0,30.0,0.0,0.0
842,81.0,0.0,30.0,0.0,0.0
843,74.0,0.0,120.0,0.0,0.0
844,79.0,30.0,30.0,0.0,0.0
845,81.0,30.0,30.0,0.0,0.0
846,79.0,30.0,30.0,0.0,0.0
847,81.0,240.0,30.0,0.0,0.0
848,67.0,0.0,480.0,0.0,0.0
849,76.0,0.0,480.0,0.0,0.0
850,79.0,0.0,120.0,0.0,0.0
851,69.0,120.0,120.0,0.0,0.0
852,61.0,120.0,15.0,0.0,0.0
853,70.0,0.0,120.0,0.0,0.0
854,66.0,0.0,480.0,0.0,0.0
855,78.0,0.0,15.0,0.0,0.0
856,62.0,0.0,240.0,0.0,0.0
857,68.0,120.0,120.0,0.0,0.0
858,69.0,0.0,15.0,0.0,0.0
859,79.0,0.0,240.0,0.0,0.0
860,73.0,0.0,120.0,0.0,0.0
861,62.0,0.0,15.0,0.0,0.0
862,74.0,120.0,15.0,0.0,0.0
863,69.0,0.0,480.0,0.0,0.0
864,78.0,0.0,120.0,0.0,0.0
865,62.0,0.0,15.0,0.0,0.0
866,81.0,120.0,120.0,0.0,0.0
867,84.0,0.0,240.0,0.0,0.0
868,80.0,0.0,120.0,0.0,0.0
869,69.0,0.0,480.0,0.0,0.0
870,75.0,0.0,240.0,0.0,0.0
871,60.0,240.0,15.0,0.0,0.0
872,76.0,0.0,240.0,0.0,0.0
873,81.0,120.0,15.0,0.0,0.0
874,75.0,0.0,240.0,0.0,0.0
875,90.0,0.0,120.0,0.0,0.0
876,71.0,240.0,240.0,0.0,0.0
877,59.0,120.0,15.0,0.0,0.0
878,80.0,120.0,120.0,0.0,0.0
879,81.0,0.0,120.0,0.0,0.0
880,54.0,0.0,240.0,0.0,0.0
881,84.0,120.0,120.0,0.0,0.0
882,54.0,0.0,240.0,0.0,0.0
883,81.0,0.0,240.0,0.0,0.0
884,75.0,120.0,120.0,0.0,0.0
885,76.0,0.0,120.0,0.0,0.0
886,79.0,60.0,60.0,0.0,0.0
887,81.0,60.0,15.0,0.0,0.0
888,51.0,60.0,240.0,0.0,0.0
889,78.0,60.0,60.0,0.0,0.0
890,79.0,60.0,60.0,0.0,0.0
891,81.0,0.0,120.0,0.0,0.0
892,78.0,0.0,60.0,0.0,0.0
893,71.0,0.0,120.0,0.0,0.0
894,79.0,60.0,60.0,0.0,0.0
895,51.0,240.0,240.0,0.0,0.0
896,78.0,60.0,60.0,0.0,0.0
897,76.0,60.0,60.0,0.0,0.0
898,72.0,0.0,120.0,0.0,0.0
899,78.0,0.0,60.0,0.0,0.0
900,52.0,240.0,240.0,0.0,0.0
901,71.0,0.0,15.0,0.0,0.0
902,79.0,0.0,960.0,0.0,0.0
903,52.0,240.0,240.0,0.0,0.0
904,76.0,0.0,240.0,0.0,0.0
905,50.0,240.0,15.0,0.0,0.0
906,71.0,60.0,15.0,0.0,0.0
907,49.0,0.0,240.0,0.0,0.0
908,76.0,0.0,15.0,0.0,0.0
909,79.0,0.0,480.0,0.0,0.0
910,70.0,60.0,60.0,0.0,0.0
911,71.0,60.0,60.0,0.0,0.0
912,70.0,60.0,60.0,0.0,0.0
913,71.0,60.0,60.0,0.0,0.0
914,49.0,0.0,240.0,0.0,0.0
915,70.0,60.0,60.0,0.0,0.0
916,68.0,60.0,60.0,0.0,0.0
917,70.0,0.0,60.0,0.0,0.0
918,74.0,0.0,480.0,0.0,0.0
919,71.0,0.0,480.0,0.0,0.0
920,50.0,240.0,15.0,0.0,0.0
921,78.0,0.0,240.0,0.0,0.0
922,67.0,0.0,240.0,0.0,0.0
923,55.0,120.0,240.0,0.0,0.0
924,71.0,0.0,240.0,0.0,0.0
925,78.0,0.0,240.0,0.0,0.0
926,67.0,120.0,240.0,0.0,0.0
927,71.0,0.0,15.0,0.0,0.0
928,76.0,120.0,120.0,0.0,0.0
929,59.0,0.0,240.0,0.0,0.0
930,55.0,0.0,240.0,0.0,0.0
931,74.0,0.0,120.0,0.0,0.0
932,52.0,0.0,240.0,0.0,0.0
933,64.0,120.0,120.0,0.0,0.0
934,67.0,0.0,480.0,0.0,0.0
935,73.0,0.0,120.0,0.0,0.0
936,71.0,0.0,120.0,0.0,0.0
937,62.0,120.0,120.0,0.0,0.0
938,52.0,0.0,240.0,0.0,0.0
939,70.0,0.0,120.0,0.0,0.0
940,61.0,120.0,120.0,0.0,0.0
941,62.0,0.0,120.0,0.0,0.0
942,71.0,0.0,120.0,0.0,0.0
943,61.0,0.0,480.0,0.0,0.0
944,54.0,120.0,120.0,0.0,0.0
945,73.0,0.0,960.0,0.0,0.0
946,70.0,120.0,240.0,0.0,0.0
947,42.0,0.0,120.0,0.0,0.0
948,46.0,120.0,120.0,0.0,0.0
949,79.0,0.0,240.0,0.0,0.0
950,49.0,120.0,120.0,0.0,0.0
951,78.0,120.0,240.0,0.0,0.0
952,52.0,120.0,120.0,0.0,0.0
953,85.0,0.0,240.0,0.0,0.0
954,55.0,0.0,15.0,0.0,0.0
955,82.0,0.0,240.0,0.0,0.0
956,54.0,0.0,120.0,0.0,0.0
957,86.0,120.0,240.0,0.0,0.0
958,74.0,0.0,240.0,0.0,0.0
959,71.0,0.0,240.0,0.0,0.0
960,66.0,120.0,15.0,0.0,0.0
961,54.0,120.0,120.0,0.0,0.0
962,83.0,0.0,240.0,0.0,0.0
963,52.0,0.0,120.0,0.0,0.0
964,66.0,0.0,15.0,0.0,0.0
965,85.0,0.0,240.0,0.0,0.0
966,73.0,60.0,240.0,0.0,0.0
967,88.0,0.0,240.0,0.0,0.0
968,70.0,0.0,240.0,0.0,0.0
969,50.0,120.0,120.0,0.0,0.0
970,49.0,0.0,120.0,0.0,0.0
971,90.0,120.0,360.0,0.0,0.0
972,66.0,0.0,240.0,0.0,0.0
973,76.0,60.0,60.0,0.0,0.0
974,47.0,0.0,240.0,0.0,0.0
975,74.0,120.0,60.0,0.0,0.0
976,73.0,120.0,120.0,0.0,0.0
977,71.0,0.0,15.0,0.0,0.0
978,47.0,0.0,240.0,0.0,0.0
979,71.0,0.0,240.0,0.0,0.0
980,74.0,0.0,240.0,0.0,0.0
981,78.0,0.0,120.0,0.0,0.0
982,49.0,0.0,240.0,0.0,0.0
983,79.0,40.0,30.0,0.0,0.0
984,76.0,0.0,480.0,0.0,0.0
985,81.0,40.0,30.0,0.0,0.0
986,83.0,40.0,30.0,0.0,0.0
987,81.0,40.0,30.0,0.0,0.0
988,83.0,40.0,30.0,0.0,0.0
989,81.0,40.0,30.0,0.0,0.0
990,83.0,40.0,30.0,0.0,0.0
991,49.0,0.0,240.0,0.0,0.0
992,81.0,40.0,30.0,0.0,0.0
993,83.0,30.0,30.0,0.0,0.0
994,81.0,30.0,30.0,0.0,0.0
995,83.0,30.0,30.0,0.0,0.0
996,81.0,30.0,30.0,0.0,0.0
997,83.0,0.0,30.0,0.0,0.0
998,69.0,240.0,15.0,0.0,0.0
999,71.0,0.0,480.0,0.0,0.0
1000,81.0,240.0,240.0,0.0,0.0
1001,78.0,0.0,480.0,0.0,0.0
1002,51.0,0.0,15.0,0.0,0.0
1003,79.0,0.0,240.0,0.0,0.0
1004,83.0,0.0,360.0,0.0,0.0
1005,79.0,120.0,120.0,0.0,0.0
1006,67.0,0.0,480.0,0.0,0.0
1007,76.0,0.0,480.0,0.0,0.0
1008,81.0,120.0,120.0,0.0,0.0
1009,79.0,120.0,120.0,0.0,0.0
1010,52.0,0.0,15.0,0.0,0.0
1011,71.0,0.0,120.0,0.0,0.0
1012,78.0,0.0,120.0,0.0,0.0
1013,66.0,0.0,480.0,0.0,0.0
1014,73.0,40.0,30.0,0.0,0.0
1015,71.0,0.0,480.0,0.0,0.0
1016,78.0,40.0,120.0,0.0,0.0
1017,74.0,40.0,30.0,0.0,0.0
1018,76.0,0.0,30.0,0.0,0.0
1019,79.0,0.0,120.0,0.0,0.0
1020,74.0,40.0,30.0,0.0,0.0
1021,76.0,40.0,30.0,0.0,0.0
1022,74.0,40.0,30.0,0.0,0.0
1023,54.0,0.0,15.0,0.0,0.0
1024,78.0,30.0,120.0,0.0,0.0
1025,76.0,40.0,30.0,0.0,0.0
1026,74.0,40.0,30.0,0.0,0.0
1027,76.0,0.0,15.0,0.0,0.0
1028,74.0,30.0,30.0,0.0,0.0
1029,76.0,30.0,30.0,0.0,0.0
1030,74.0,30.0,30.0,0.0,0.0
1031,76.0,0.0,15.0,0.0,0.0
1032,74.0,0.0,15.0,0.0,0.0
1033,55.0,0.0,240.0,0.0,0.0
1034,64.0,0.0,480.0,0.0,0.0
1035,67.0,0.0,480.0,0.0,0.0
1036,74.0,240.0,240.0,0.0,0.0
1037,55.0,0.0,240.0,0.0,0.0
1038,73.0,0.0,15.0,0.0,0.0
1039,46.0,120.0,240.0,0.0,0.0
1040,64.0,0.0,480.0,0.0,0.0
1041,73.0,120.0,120.0,0.0,0.0
1042,74.0,0.0,120.0,0.0,0.0
1043,73.0,120.0,120.0,0.0,0.0
1044,49.0,0.0,240.0,0.0,0.0
1045,71.0,0.0,120.0,0.0,0.0
1046,52.0,0.0,240.0,0.0,0.0
1047,67.0,0.0,15.0,0.0,0.0
1048,64.0,0.0,480.0,0.0,0.0
1049,71.0,120.0,120.0,0.0,0.0
1050,73.0,120.0,120.0,0.0,0.0
1051,50.0,0.0,240.0,0.0,0.0
1052,71.0,120.0,120.0,0.0,0.0
1053,52.0,120.0,240.0,0.0,0.0
1054,70.0,240.0,15.0,0.0,0.0
1055,70.0,120.0,360.0,0.0,0.0
1056,61.0,0.0,480.0,0.0,0.0
1057,66.0,0.0,480.0,0.0,0.0
1058,49.0,0.0,240.0,0.0,0.0
1059,79.0,0.0,120.0,0.0,0.0
1060,82.0,0.0,120.0,0.0,0.0
1061,50.0,120.0,240.0,0.0,0.0
1062,59.0,0.0,480.0,0.0,0.0
1063,83.0,0.0,360.0,0.0,0.0
1064,78.0,120.0,360.0,0.0,0.0
1065,47.0,0.0,240.0,0.0,0.0
1066,71.0,0.0,120.0,0.0,0.0
1067,86.0,0.0,120.0,0.0,0.0
1068,71.0,240.0,15.0,0.0,0.0
1069,66.0,0.0,15.0,0.0,0.0
1070,74.0,0.0,480.0,0.0,0.0
1071,54.0,240.0,15.0,0.0,0.0
1072,70.0,0.0,480.0,0.0,0.0
1073,66.0,0.0,15.0,0.0,0.0
1074,83.0,0.0,15.0,0.0,0.0
1075,74.0,0.0,30.0,0.0,0.0
1076,82.0,0.0,30.0,0.0,0.0
1077,73.0,40.0,30.0,0.0,0.0
1078,83.0,0.0,30.0,0.0,0.0
1079,74.0,30.0,30.0,0.0,0.0
1080,73.0,0.0,30.0,0.0,0.0
1081,82.0,30.0,30.0,0.0,0.0
1082,83.0,30.0,30.0,0.0,0.0
1083,74.0,0.0,30.0,0.0,0.0
1084,73.0,0.0,30.0,0.0,0.0
1085,82.0,30.0,30.0,0.0,0.0
1086,74.0,0.0,30.0,0.0,0.0
1087,83.0,120.0,30.0,0.0,0.0
1088,42.0,0.0,15.0,0.0,0.0
1089,73.0,120.0,120.0,0.0,0.0
1090,82.0,0.0,120.0,0.0,0.0
1091,71.0,0.0,120.0,0.0,0.0
1092,83.0,120.0,15.0,0.0,0.0
1093,66.0,0.0,15.0,0.0,0.0
1094,47.0,120.0,240.0,0.0,0.0
1095,71.0,0.0,480.0,0.0,0.0
1096,86.0,0.0,120.0,0.0,0.0
1097,77.0,120.0,120.0,0.0,0.0
1098,47.0,0.0,240.0,0.0,0.0
1099,78.0,240.0,15.0,0.0,0.0
1100,50.0,0.0,240.0,0.0,0.0
1101,83.0,120.0,120.0,0.0,0.0
1102,54.0,0.0,240.0,0.0,0.0
1103,73.0,120.0,120.0,0.0,0.0
1104,74.0,0.0,120.0,0.0,0.0
1105,50.0,120.0,240.0,0.0,0.0
1106,74.0,0.0,480.0,0.0,0.0
1107,78.0,0.0,120.0,0.0,0.0
1108,47.0,0.0,240.0,0.0,0.0
1109,70.0,120.0,120.0,0.0,0.0
1110,71.0,0.0,120.0,0.0,0.0
1111,43.0,0.0,240.0,0.0,0.0
1112,71.0,120.0,120.0,0.0,0.0
1113,78.0,0.0,120.0,0.0,0.0
1114,83.0,120.0,15.0,0.0,0.0
1115,78.0,0.0,120.0,0.0,0.0
1116,71.0,0.0,120.0,0.0,0.0
1117,75.0,120.0,120.0,0.0,0.0
1118,55.0,0.0,240.0,0.0,0.0
1119,81.0,0.0,120.0,0.0,0.0
1120,71.0,120.0,15.0,0.0,0.0
1121,83.0,0.0,240.0,0.0,0.0
1122,79.0,0.0,120.0,0.0,0.0
1123,76.0,0.0,120.0,0.0,0.0
1124,72.0,0.0,480.0,0.0,0.0
1125,54.0,0.0,240.0,0.0,0.0
1126,75.0,0.0,120.0,0.0,0.0
1127,84.0,120.0,15.0,0.0,0.0
1128,81.0,0.0,240.0,0.0,0.0
1129,54.0,0.0,240.0,0.0,0.0
1130,83.0,0.0,120.0,0.0,0.0
1131,75.0,0.0,15.0,0.0,0.0
1132,75.0,0.0,240.0,0.0,0.0
1133,81.0,120.0,480.0,0.0,0.0
1134,78.0,0.0,120.0,0.0,0.0
1135,88.0,120.0,120.0,0.0,0.0
1136,59.0,120.0,15.0,0.0,0.0
1137,69.0,0.0,240.0,0.0,0.0
1138,87.0,0.0,120.0,0.0,0.0
1139,88.0,120.0,120.0,0.0,0.0
1140,69.0,0.0,120.0,0.0,0.0
1141,71.0,0.0,15.0,0.0,0.0
1142,67.0,0.0,120.0,0.0,0.0
1143,91.0,120.0,120.0,0.0,0.0
1144,52.0,0.0,15.0,0.0,0.0
1145,82.0,120.0,120.0,0.0,0.0
1146,66.0,0.0,120.0,0.0,0.0
1147,83.0,0.0,120.0,0.0,0.0
1148,64.0,240.0,120.0,0.0,0.0
1149,55.0,120.0,240.0,0.0,0.0
1150,71.0,120.0,960.0,0.0,0.0
1151,88.0,0.0,120.0,0.0,0.0
1152,78.0,120.0,120.0,0.0,0.0
1153,59.0,240.0,240.0,0.0,0.0
1154,79.0,0.0,120.0,0.0,0.0
1155,55.0,120.0,240.0,0.0,0.0
1156,83.0,0.0,120.0,0.0,0.0
1157,52.0,0.0,240.0,0.0,0.0
1158,75.0,120.0,120.0,0.0,0.0
1159,76.0,0.0,120.0,0.0,0.0
1160,48.0,0.0,240.0,0.0,0.0
1161,71.0,120.0,120.0,0.0,0.0
1162,79.0,0.0,240.0,0.0,0.0
1163,76.0,0.0,120.0,0.0,0.0
1164,64.0,0.0,120.0,0.0,0.0
1165,86.0,0.0,120.0,0.0,0.0
1166,80.0,0.0,120.0,0.0,0.0
1167,60.0,240.0,240.0,0.0,0.0
1168,74.0,120.0,120.0,0.0,0.0
1169,69.0,0.0,240.0,0.0,0.0
1170,76.0,0.0,240.0,0.0,0.0
1171,81.0,0.0,120.0,0.0,0.0
1172,72.0,0.0,120.0,0.0,0.0
1173,89.0,0.0,240.0,0.0,0.0
1174,74.0,0.0,480.0,0.0,0.0
1175,59.0,0.0,240.0,0.0,0.0
1176,68.0,120.0,120.0,0.0,0.0
1177,77.0,120.0,120.0,0.0,0.0
1178,86.0,0.0,240.0,0.0,0.0
1179,59.0,0.0,240.0,0.0,0.0
1180,76.0,0.0,120.0,0.0,0.0
1181,64.0,0.0,240.0,0.0,0.0
1182,76.0,0.0,480.0,0.0,0.0
1183,80.0,0.0,15.0,0.0,0.0
1184,80.0,120.0,240.0,0.0,0.0
1185,71.0,0.0,120.0,0.0,0.0
1186,74.0,0.0,240.0,0.0,0.0
1187,81.0,120.0,120.0,0.0,0.0
1188,64.0,0.0,240.0,0.0,0.0
1189,80.0,0.0,120.0,0.0,0.0
1190,57.0,120.0,240.0,0.0,0.0
1191,72.0,120.0,360.0,0.0,0.0
1192,57.0,0.0,240.0,0.0,0.0
1193,84.0,0.0,120.0,0.0,0.0
1194,59.0,0.0,240.0,0.0,0.0
1195,74.0,0.0,960.0,0.0,0.0
1196,76.0,0.0,15.0,0.0,0.0
1197,81.0,0.0,15.0,0.0,0.0
1198,80.0,40.0,30.0,0.0,0.0
1199,81.0,40.0,30.0,0.0,0.0
1200,80.0,40.0,30.0,0.0,0.0
1201,81.0,40.0,30.0,0.0,0.0
1202,80.0,40.0,30.0,0.0,0.0
1203,81.0,40.0,30.0,0.0,0.0
1204,80.0,40.0,30.0,0.0,0.0
1205,81.0,40.0,30.0,0.0,0.0
1206,80.0,40.0,30.0,0.0,0.0
1207,81.0,40.0,30.0,0.0,0.0
1208,80.0,0.0,270.0,0.0,0.0
1209,59.0,240.0,15.0,0.0,0.0
1210,81.0,0.0,240.0,0.0,0.0
1211,59.0,240.0,15.0,0.0,0.0
1212,76.0,240.0,15.0,0.0,0.0
1213,60.0,240.0,240.0,0.0,0.0
1214,72.0,240.0,480.0,0.0,0.0
1215,81.0,0.0,480.0,0.0,0.0
1216,60.0,0.0,240.0,0.0,0.0
1217,51.0,0.0,240.0,0.0,0.0
1218,81.0,120.0,240.0,0.0,0.0
1219,79.0,120.0,120.0,0.0,0.0
1220,51.0,0.0,240.0,0.0,0.0
1221,78.0,120.0,120.0,0.0,0.0
1222,83.0,120.0,120.0,0.0,0.0
1223,51.0,0.0,240.0,0.0,0.0
1224,81.0,120.0,120.0,0.0,0.0
1225,79.0,120.0,120.0,0.0,0.0
1226,51.0,0.0,240.0,0.0,0.0
1227,78.0,0.0,120.0,0.0,0.0
1228,71.0,0.0,15.0,0.0,0.0
1229,52.0,0.0,240.0,0.0,0.0
1230,79.0,120.0,120.0,0.0,0.0
1231,71.0,120.0,360.0,0.0,0.0
1232,78.0,120.0,120.0,0.0,0.0
1233,79.0,0.0,120.0,0.0,0.0
1234,52.0,0.0,240.0,0.0,0.0
1235,83.0,40.0,120.0,0.0,0.0
1236,79.0,0.0,120.0,0.0,0.0
1237,71.0,0.0,15.0,0.0,0.0
1238,76.0,0.0,15.0,0.0,0.0
1239,81.0,0.0,120.0,0.0,0.0
1240,54.0,0.0,240.0,0.0,0.0
1241,75.0,40.0,30.0,0.0,0.0
1242,76.0,40.0,30.0,0.0,0.0
1243,75.0,40.0,30.0,0.0,0.0
1244,84.0,40.0,120.0,0.0,0.0
1245,76.0,40.0,30.0,0.0,0.0
1246,75.0,0.0,30.0,0.0,0.0
1247,76.0,40.0,30.0,0.0,0.0
1248,84.0,40.0,120.0,0.0,0.0
1249,75.0,40.0,30.0,0.0,0.0
1250,76.0,0.0,30.0,0.0,0.0
1251,75.0,40.0,30.0,0.0,0.0
1252,76.0,40.0,30.0,0.0,0.0
1253,75.0,0.0,270.0,0.0,0.0
1254,54.0,0.0,15.0,0.0,0.0
1255,83.0,120.0,15.0,0.0,0.0
1256,81.0,0.0,120.0,0.0,0.0
1257,76.0,0.0,240.0,0.0,0.0
1258,54.0,120.0,15.0,0.0,0.0
1259,81.0,120.0,120.0,0.0,0.0
1260,83.0,120.0,120.0,0.0,0.0
1261,55.0,120.0,240.0,0.0,0.0
1262,76.0,0.0,480.0,0.0,0.0
1263,71.0,60.0,480.0,0.0,0.0
1264,83.0,120.0,120.0,0.0,0.0
1265,79.0,0.0,480.0,0.0,0.0
1266,82.0,0.0,120.0,0.0,0.0
1267,83.0,120.0,120.0,0.0,0.0
1268,55.0,0.0,240.0,0.0,0.0
1269,88.0,0.0,120.0,0.0,0.0
1270,46.0,0.0,240.0,0.0,0.0
1271,81.0,60.0,60.0,0.0,0.0
1272,76.0,0.0,240.0,0.0,0.0
1273,79.0,60.0,60.0,0.0,0.0
1274,81.0,60.0,60.0,0.0,0.0
1275,79.0,60.0,60.0,0.0,0.0
1276,46.0,0.0,240.0,0.0,0.0
1277,75.0,0.0,120.0,0.0,0.0
1278,81.0,60.0,60.0,0.0,0.0
1279,79.0,60.0,60.0,0.0,0.0
1280,73.0,0.0,120.0,0.0,0.0
1281,81.0,60.0,60.0,0.0,0.0
1282,79.0,0.0,60.0,0.0,0.0
1283,78.0,0.0,120.0,0.0,0.0
1284,46.0,0.0,240.0,0.0,0.0
1285,73.0,0.0,15.0,0.0,0.0
1286,67.0,0.0,480.0,0.0,0.0
1287,81.0,60.0,60.0,0.0,0.0
1288,79.0,60.0,60.0,0.0,0.0
1289,76.0,0.0,120.0,0.0,0.0
1290,81.0,60.0,60.0,0.0,0.0
1291,79.0,60.0,60.0,0.0,0.0
1292,46.0,0.0,240.0,0.0,0.0
1293,75.0,60.0,120.0,0.0,0.0
1294,81.0,60.0,60.0,0.0,0.0
1295,79.0,0.0,60.0,0.0,0.0
1296,78.0,60.0,60.0,0.0,0.0
1297,73.0,0.0,120.0,0.0,0.0
1298,79.0,0.0,60.0,0.0,0.0
1299,78.0,120.0,120.0,0.0,0.0
1300,66.0,0.0,480.0,0.0,0.0
1301,47.0,120.0,240.0,0.0,0.0
1302,71.0,0.0,120.0,0.0,0.0
1303,75.0,120.0,120.0,0.0,0.0
1304,59.0,0.0,240.0,0.0,0.0
1305,78.0,0.0,120.0,0.0,0.0
1306,71.0,0.0,15.0,0.0,0.0
1307,81.0,120.0,120.0,0.0,0.0
1308,75.0,120.0,15.0,0.0,0.0
1309,69.0,120.0,480.0,0.0,0.0
1310,54.0,0.0,240.0,0.0,0.0
1311,84.0,120.0,120.0,0.0,0.0
1312,51.0,0.0,240.0,0.0,0.0
1313,83.0,120.0,120.0,0.0,0.0
1314,81.0,0.0,120.0,0.0,0.0
1315,47.0,120.0,240.0,0.0,0.0
1316,90.0,120.0,120.0,0.0,0.0
1317,71.0,0.0,480.0,0.0,0.0
1318,78.0,0.0,480.0,0.0,0.0
1319,84.0,0.0,120.0,0.0,0.0
1320,83.0,120.0,120.0,0.0,0.0
1321,51.0,0.0,240.0,0.0,0.0
1322,81.0,0.0,120.0,0.0,0.0
1323,52.0,0.0,240.0,0.0,0.0
1324,76.0,0.0,480.0,0.0,0.0
1325,79.0,120.0,360.0,0.0,0.0
1326,67.0,0.0,120.0,0.0,0.0
1327,64.0,120.0,15.0,0.0,0.0
1328,86.0,120.0,120.0,0.0,0.0
1329,71.0,0.0,120.0,0.0,0.0
1330,81.0,120.0,240.0,0.0,0.0
1331,59.0,0.0,240.0,0.0,0.0
1332,68.0,0.0,480.0,0.0,0.0
1333,74.0,120.0,120.0,0.0,0.0
1334,77.0,0.0,120.0,0.0,0.0
1335,56.0,120.0,240.0,0.0,0.0
1336,76.0,120.0,120.0,0.0,0.0
1337,80.0,120.0,480.0,0.0,0.0
1338,74.0,0.0,120.0,0.0,0.0
1339,83.0,120.0,120.0,0.0,0.0
1340,76.0,0.0,15.0,0.0,0.0
1341,52.0,0.0,240.0,0.0,0.0
1342,71.0,0.0,480.0,0.0,0.0
1343,77.0,0.0,120.0,0.0,0.0
1344,56.0,0.0,240.0,0.0,0.0
1345,76.0,120.0,120.0,0.0,0.0
1346,83.0,120.0,360.0,0.0,0.0
1347,74.0,0.0,120.0,0.0,0.0
1348,45.0,120.0,240.0,0.0,0.0
1349,71.0,0.0,240.0,0.0,0.0
1350,72.0,0.0,240.0,0.0,0.0
1351,76.0,120.0,15.0,0.0,0.0
1352,69.0,0.0,120.0,0.0,0.0
1353,72.0,0.0,120.0,0.0,0.0
1354,57.0,0.0,240.0,0.0,0.0
1355,79.0,0.0,120.0,0.0,0.0
1356,76.0,0.0,120.0,0.0,0.0
1357,74.0,120.0,240.0,0.0,0.0
1358,52.0,0.0,240.0,0.0,0.0
1359,69.0,0.0,15.0,0.0,0.0
1360,79.0,120.0,120.0,0.0,0.0
1361,83.0,0.0,120.0,0.0,0.0
1362,81.0,120.0,120.0,0.0,0.0
1363,49.0,120.0,240.0,0.0,0.0
1364,73.0,0.0,240.0,0.0,0.0
1365,79.0,0.0,120.0,0.0,0.0
1366,45.0,120.0,240.0,0.0,0.0
1367,88.0,120.0,120.0,0.0,0.0
1368,83.0,0.0,120.0,0.0,0.0
1369,81.0,120.0,120.0,0.0,0.0
1370,76.0,0.0,240.0,0.0,0.0
1371,49.0,0.0,240.0,0.0,0.0
1372,79.0,0.0,120.0,0.0,0.0
1373,50.0,0.0,240.0,0.0,0.0
1374,76.0,120.0,120.0,0.0,0.0
1375,78.0,0.0,240.0,0.0,0.0
1376,62.0,0.0,120.0,0.0,0.0
1377,66.0,0.0,120.0,0.0,0.0
1378,78.0,120.0,120.0,0.0,0.0
1379,74.0,0.0,240.0,0.0,0.0
1380,62.0,0.0,240.0,0.0,0.0
1381,69.0,120.0,15.0,0.0,0.0
1382,69.0,0.0,120.0,0.0,0.0
1383,84.0,0.0,120.0,0.0,0.0
1384,57.0,120.0,240.0,0.0,0.0
1385,72.0,120.0,120.0,0.0,0.0
1386,79.0,0.0,240.0,0.0,0.0
1387,76.0,0.0,120.0,0.0,0.0
1388,74.0,120.0,120.0,0.0,0.0
1389,54.0,120.0,240.0,0.0,0.0
1390,72.0,0.0,120.0,0.0,0.0
1391,50.0,0.0,240.0,0.0,0.0
1392,81.0,120.0,120.0,0.0,0.0
1393,76.0,120.0,120.0,0.0,0.0
1394,74.0,120.0,120.0,0.0,0.0
1395,54.0,0.0,240.0,0.0,0.0
1396,72.0,0.0,120.0,0.0,0.0
1397,78.0,0.0,360.0,0.0,0.0
1398,81.0,120.0,15.0,0.0,0.0
1399,51.0,120.0,120.0,0.0,0.0
1400,71.0,120.0,360.0,0.0,0.0
1401,47.0,120.0,120.0,0.0,0.0
1402,51.0,0.0,120.0,0.0,0.0
1403,81.0,0.0,120.0,0.0,0.0
1404,54.0,120.0,120.0,0.0,0.0
1405,72.0,0.0,120.0,0.0,0.0
1406,71.0,0.0,15.0,0.0,0.0
1407,67.0,0.0,240.0,0.0,0.0
1408,76.0,120.0,240.0,0.0,0.0
1409,57.0,120.0,120.0,0.0,0.0
1410,78.0,0.0,960.0,0.0,0.0
1411,60.0,0.0,15.0,0.0,0.0
1412,66.0,0.0,480.0,0.0,0.0
1413,75.0,0.0,480.0,0.0,0.0
1414,59.0,120.0,120.0,0.0,0.0
1415,59.0,120.0,120.0,0.0,0.0
1416,57.0,120.0,120.0,0.0,0.0
1417,84.0,0.0,240.0,0.0,0.0
1418,75.0,0.0,240.0,0.0,0.0
1419,57.0,120.0,120.0,0.0,0.0
1420,55.0,0.0,120.0,0.0,0.0
1421,83.0,120.0,360.0,0.0,0.0
1422,55.0,120.0,240.0,0.0,0.0
1423,71.0,0.0,240.0,0.0,0.0
1424,57.0,0.0,240.0,0.0,0.0
1425,79.0,0.0,15.0,0.0,0.0
1426,76.0,0.0,15.0,0.0,0.0
1427,72.0,0.0,120.0,0.0,0.0
1428,76.0,0.0,15.0,0.0,0.0
1429,79.0,0.0,480.0,0.0,0.0
1430,67.0,0.0,480.0,0.0,0.0
1431,76.0,0.0,15.0,0.0,0.0
1432,59.0,240.0,15.0,0.0,0.0
1433,78.0,120.0,480.0,0.0,0.0
1434,71.0,40.0,15.0,0.0,0.0
1435,67.0,40.0,30.0,0.0,0.0
1436,76.0,0.0,30.0,0.0,0.0
1437,47.0,0.0,240.0,0.0,0.0
1438,75.0,40.0,30.0,0.0,0.0
1439,66.0,0.0,30.0,0.0,0.0
1440,67.0,0.0,30.0,0.0,0.0
1441,76.0,30.0,30.0,0.0,0.0
1442,66.0,30.0,30.0,0.0,0.0
1443,75.0,0.0,30.0,0.0,0.0
1444,76.0,0.0,30.0,0.0,0.0
1445,67.0,30.0,30.0,0.0,0.0
1446,66.0,30.0,30.0,0.0,0.0
1447,75.0,0.0,30.0,0.0,0.0
1448,67.0,120.0,30.0,0.0,0.0
1449,76.0,0.0,30.0,0.0,0.0
1450,66.0,120.0,120.0,0.0,0.0
1451,75.0,0.0,120.0,0.0,0.0
1452,47.0,0.0,240.0,0.0,0.0
1453,64.0,0.0,15.0,0.0,0.0
1454,48.0,0.0,240.0,0.0,0.0
1455,76.0,0.0,15.0,0.0,0.0
1456,67.0,120.0,120.0,0.0,0.0
1457,48.0,0.0,240.0,0.0,0.0
1458,71.0,120.0,120.0,0.0,0.0
1459,76.0,0.0,15.0,0.0,0.0
1460,81.0,120.0,120.0,0.0,0.0
1461,72.0,0.0,960.0,0.0,0.0
1462,69.0,0.0,960.0,0.0,0.0
1463,48.0,120.0,240.0,0.0,0.0
1464,84.0,0.0,15.0,0.0,0.0
1465,48.0,0.0,240.0,0.0,0.0
1466,76.0,60.0,240.0,0.0,0.0
1467,83.0,0.0,120.0,0.0,0.0
1468,48.0,60.0,240.0,0.0,0.0
1469,83.0,0.0,120.0,0.0,0.0
1470,77.0,60.0,60.0,0.0,0.0
1471,76.0,60.0,60.0,0.0,0.0
1472,77.0,60.0,60.0,0.0,0.0
1473,76.0,0.0,60.0,0.0,0.0
1474,77.0,60.0,60.0,0.0,0.0
1475,81.0,0.0,15.0,0.0,0.0
1476,48.0,0.0,240.0,0.0,0.0
1477,76.0,0.0,60.0,0.0,0.0
1478,74.0,60.0,60.0,0.0,0.0
1479,76.0,0.0,60.0,0.0,0.0
1480,80.0,0.0,15.0,0.0,0.0
1481,77.0,120.0,120.0,0.0,0.0
1482,74.0,120.0,120.0,0.0,0.0
1483,47.0,0.0,15.0,0.0,0.0
1484,80.0,120.0,120.0,0.0,0.0
1485,83.0,0.0,120.0,0.0,0.0
1486,86.0,120.0,120.0,0.0,0.0
1487,68.0,0.0,15.0,0.0,0.0
1488,74.0,0.0,15.0,0.0,0.0
1489,47.0,120.0,15.0,0.0,0.0
1490,68.0,0.0,240.0,0.0,0.0
1491,47.0,0.0,240.0,0.0,0.0
1492,89.0,120.0,15.0,0.0,0.0
1493,88.0,60.0,15.0,0.0,0.0
1494,69.0,60.0,60.0,0.0,0.0
1495,47.0,0.0,240.0,0.0,0.0
1496,68.0,0.0,60.0,0.0,0.0
1497,69.0,60.0,60.0,0.0,0.0
1498,86.0,0.0,120.0,0.0,0.0
1499,68.0,60.0,60.0,0.0,0.0
1500,47.0,0.0,240.0,0.0,0.0
1501,69.0,60.0,60.0,0.0,0.0
1502,86.0,0.0,120.0,0.0,0.0
1503,68.0,60.0,60.0,0.0,0.0
1504,84.0,0.0,120.0,0.0,0.0
1505,66.0,60.0,60.0,0.0,0.0
1506,68.0,0.0,60.0,0.0,0.0
1507,76.0,120.0,15.0,0.0,0.0
1508,45.0,240.0,480.0,0.0,0.0
1509,69.0,120.0,120.0,0.0,0.0
1510,84.0,0.0,120.0,0.0,0.0
1511,76.0,120.0,120.0,0.0,0.0
1512,72.0,0.0,240.0,0.0,0.0
1513,77.0,0.0,120.0,0.0,0.0
1514,69.0,0.0,480.0,0.0,0.0
1515,57.0,0.0,480.0,0.0,0.0
1516,77.0,0.0,240.0,0.0,0.0
1517,71.0,120.0,120.0,0.0,0.0
1518,81.0,120.0,15.0,0.0,0.0
1519,72.0,0.0,120.0,0.0,0.0
1520,84.0,0.0,240.0,0.0,0.0
1521,77.0,120.0,120.0,0.0,0.0
1522,76.0,0.0,240.0,0.0,0.0
1523,64.0,0.0,240.0,0.0,0.0
1524,48.0,0.0,240.0,0.0,0.0
1525,89.0,120.0,240.0,0.0,0.0
1526,71.0,0.0,240.0,0.0,0.0
1527,68.0,120.0,120.0,0.0,0.0
1528,47.0,0.0,480.0,0.0,0.0
1529,66.0,0.0,480.0,0.0,0.0
1530,69.0,0.0,15.0,0.0,0.0
1531,87.0,120.0,120.0,0.0,0.0
1532,71.0,0.0,120.0,0.0,0.0
1533,79.0,120.0,120.0,0.0,0.0
1534,75.0,0.0,15.0,0.0,0.0
1535,71.0,0.0,480.0,0.0,0.0
1536,59.0,0.0,480.0,0.0,0.0
1537,78.0,0.0,15.0,0.0,0.0
1538,66.0,0.0,480.0,0.0,0.0
1539,75.0,120.0,120.0,0.0,0.0
1540,81.0,0.0,240.0,0.0,0.0
1541,84.0,120.0,120.0,0.0,0.0
1542,83.0,0.0,120.0,0.0,0.0
1543,84.0,120.0,120.0,0.0,0.0
1544,81.0,120.0,120.0,0.0,0.0
1545,78.0,0.0,120.0,0.0,0.0
1546,66.0,0.0,240.0,0.0,0.0
1547,57.0,240.0,240.0,0.0,0.0
1548,71.0,0.0,240.0,0.0,0.0
1549,79.0,0.0,120.0,0.0,0.0
1550,88.0,120.0,120.0,0.0,0.0
1551,75.0,0.0,240.0,0.0,0.0
1552,87.0,0.0,120.0,0.0,0.0
1553,78.0,0.0,120.0,0.0,0.0
1554,88.0,0.0,360.0,0.0,0.0
1555,76.0,0.0,240.0,0.0,0.0
1556,55.0,120.0,240.0,0.0,0.0
1557,83.0,120.0,360.0,0.0,0.0
1558,71.0,0.0,240.0,0.0,0.0
1559,67.0,0.0,15.0,0.0,0.0
1560,57.0,0.0,240.0,0.0,0.0
1561,73.0,0.0,120.0,0.0,0.0
1562,81.0,0.0,120.0,0.0,0.0
1563,66.0,0.0,960.0,0.0,0.0
1564,76.0,0.0,15.0,0.0,0.0
1565,79.0,40.0,30.0,0.0,0.0
1566,75.0,40.0,30.0,0.0,0.0
1567,78.0,0.0,30.0,0.0,0.0
1568,76.0,40.0,30.0,0.0,0.0
1569,79.0,0.0,30.0,0.0,0.0
1570,75.0,40.0,30.0,0.0,0.0
1571,78.0,0.0,30.0,0.0,0.0
1572,79.0,40.0,30.0,0.0,0.0
1573,76.0,0.0,30.0,0.0,0.0
1574,75.0,0.0,30.0,0.0,0.0
1575,78.0,0.0,30.0,0.0,0.0
1576,59.0,40.0,15.0,0.0,0.0
1577,76.0,0.0,30.0,0.0,0.0
1578,79.0,40.0,30.0,0.0,0.0
1579,75.0,40.0,30.0,0.0,0.0
1580,78.0,0.0,30.0,0.0,0.0
1581,79.0,40.0,30.0,0.0,0.0
1582,76.0,0.0,30.0,0.0,0.0
1583,75.0,0.0,30.0,0.0,0.0
1584,78.0,40.0,30.0,0.0,0.0
1585,76.0,0.0,30.0,0.0,0.0
1586,79.0,40.0,30.0,0.0,0.0
1587,78.0,0.0,270.0,0.0,0.0
1588,75.0,0.0,270.0,0.0,0.0
1589,47.0,240.0,240.0,0.0,0.0
1590,47.0,0.0,240.0,0.0,0.0
1591,76.0,0.0,240.0,0.0,0.0
1592,76.0,0.0,15.0,0.0,0.0
1593,40.0,120.0,120.0,0.0,0.0
1594,71.0,0.0,15.0,0.0,0.0
1595,76.0,0.0,960.0,0.0,0.0
1596,52.0,120.0,120.0,0.0,0.0
1597,55.0,120.0,120.0,0.0,0.0
1598,59.0,120.0,120.0,0.0,0.0
1599,64.0,120.0,120.0,0.0,0.0
1600,67.0,120.0,120.0,0.0,0.0
1601,66.0,120.0,120.0,0.0,0.0
1602,64.0,0.0,120.0,0.0,0.0
1603,62.0,120.0,120.0,0.0,0.0
1604,60.0,120.0,120.0,0.0,0.0
1605,59.0,120.0,120.0,0.0,0.0
1606,57.0,0.0,120.0,0.0,0.0
1607,71.0,0.0,480.0,0.0,0.0
1608,83.0,120.0,360.0,0.0,0.0
1609,79.0,40.0,480.0,0.0,0.0
1610,55.0,120.0,240.0,0.0,0.0
1611,55.0,0.0,240.0,0.0,0.0
1612,74.0,0.0,120.0,0.0,0.0
1613,76.0,40.0,30.0,0.0,0.0
1614,72.0,0.0,480.0,0.0,0.0
1615,69.0,0.0,480.0,0.0,0.0
1616,77.0,40.0,30.0,0.0,0.0
1617,79.0,40.0,30.0,0.0,0.0
1618,77.0,40.0,30.0,0.0,0.0
1619,79.0,40.0,30.0,0.0,0.0
1620,77.0,0.0,30.0,0.0,0.0
1621,57.0,40.0,15.0,0.0,0.0
1622,79.0,40.0,30.0,0.0,0.0
1623,77.0,40.0,30.0,0.0,0.0
1624,79.0,30.0,30.0,0.0,0.0
1625,77.0,30.0,30.0,0.0,0.0
1626,79.0,30.0,30.0,0.0,0.0
1627,77.0,30.0,30.0,0.0,0.0
1628,79.0,240.0,30.0,0.0,0.0
1629,59.0,240.0,240.0,0.0,0.0
1630,74.0,0.0,480.0,0.0,0.0
1631,77.0,0.0,240.0,0.0,0.0
1632,59.0,0.0,240.0,0.0,0.0
1633,67.0,0.0,15.0,0.0,0.0
1634,76.0,0.0,15.0,0.0,0.0
1635,66.0,0.0,120.0,0.0,0.0
1636,60.0,120.0,15.0,0.0,0.0
1637,67.0,120.0,120.0,0.0,0.0
1638,71.0,120.0,120.0,0.0,0.0
1639,60.0,0.0,15.0,0.0,0.0
1640,72.0,120.0,120.0,0.0,0.0
1641,76.0,0.0,120.0,0.0,0.0
1642,79.0,120.0,120.0,0.0,0.0
1643,60.0,120.0,15.0,0.0,0.0
1644,78.0,0.0,120.0,0.0,0.0
1645,67.0,240.0,15.0,0.0,0.0
1646,74.0,0.0,480.0,0.0,0.0
1647,79.0,0.0,480.0,0.0,0.0
1648,58.0,240.0,15.0,0.0,0.0
1649,69.0,40.0,480.0,0.0,0.0
1650,73.0,0.0,480.0,0.0,0.0
1651,79.0,120.0,120.0,0.0,0.0
1652,85.0,120.0,360.0,0.0,0.0
1653,88.0,0.0,120.0,0.0,0.0
1654,78.0,0.0,120.0,0.0,0.0
1655,57.0,120.0,15.0,0.0,0.0
1656,79.0,0.0,120.0,0.0,0.0
1657,76.0,0.0,120.0,0.0,0.0
1658,59.0,40.0,240.0,0.0,0.0
1659,78.0,40.0,30.0,0.0,0.0
1660,79.0,0.0,15.0,0.0,0.0
1661,79.0,40.0,30.0,0.0,0.0
1662,81.0,40.0,30.0,0.0,0.0
1663,83.0,0.0,120.0,0.0,0.0
1664,79.0,40.0,30.0,0.0,0.0
1665,81.0,40.0,30.0,0.0,0.0
1666,79.0,0.0,30.0,0.0,0.0
1667,81.0,40.0,30.0,0.0,0.0
1668,59.0,0.0,240.0,0.0,0.0
1669,73.0,0.0,120.0,0.0,0.0
1670,79.0,40.0,30.0,0.0,0.0
1671,81.0,30.0,30.0,0.0,0.0
1672,74.0,0.0,120.0,0.0,0.0
1673,79.0,30.0,30.0,0.0,0.0
1674,81.0,30.0,30.0,0.0,0.0
1675,79.0,30.0,30.0,0.0,0.0
1676,81.0,0.0,30.0,0.0,0.0
1677,76.0,0.0,480.0,0.0,0.0
1678,61.0,120.0,240.0,0.0,0.0
1679,79.0,0.0,15.0,0.0,0.0
1680,67.0,240.0,15.0,0.0,0.0
1681,79.0,0.0,120.0,0.0,0.0
1682,69.0,120.0,120.0,0.0,0.0
1683,61.0,0.0,240.0,0.0,0.0
1684,70.0,0.0,120.0,0.0,0.0
1685,74.0,0.0,480.0,0.0,0.0
1686,66.0,120.0,480.0,0.0,0.0
1687,69.0,0.0,15.0,0.0,0.0
1688,78.0,120.0,15.0,0.0,0.0
1689,68.0,0.0,120.0,0.0,0.0
1690,69.0,120.0,15.0,0.0,0.0
1691,62.0,0.0,15.0,0.0,0.0
1692,79.0,0.0,240.0,0.0,0.0
1693,73.0,0.0,120.0,0.0,0.0
1694,74.0,120.0,120.0,0.0,0.0
1695,78.0,0.0,120.0,0.0,0.0
1696,62.0,0.0,15.0,0.0,0.0
1697,84.0,0.0,240.0,0.0,0.0
1698,81.0,120.0,120.0,0.0,0.0
1699,80.0,0.0,120.0,0.0,0.0
1700,69.0,0.0,15.0,0.0,0.0
1701,75.0,0.0,240.0,0.0,0.0
1702,81.0,0.0,480.0,0.0,0.0
1703,60.0,240.0,15.0,0.0,0.0
1704,76.0,0.0,240.0,0.0,0.0
1705,81.0,120.0,120.0,0.0,0.0
1706,75.0,0.0,240.0,0.0,0.0
1707,90.0,120.0,120.0,0.0,0.0
1708,71.0,0.0,240.0,0.0,0.0
1709,59.0,0.0,15.0,0.0,0.0
1710,80.0,120.0,120.0,0.0,0.0
1711,81.0,0.0,120.0,0.0,0.0
1712,54.0,120.0,240.0,0.0,0.0
1713,84.0,0.0,120.0,0.0,0.0
1714,75.0,120.0,120.0,0.0,0.0
1715,81.0,0.0,240.0,0.0,0.0
1716,54.0,0.0,240.0,0.0,0.0
1717,76.0,60.0,120.0,0.0,0.0
1718,81.0,0.0,15.0,0.0,0.0
1719,79.0,60.0,60.0,0.0,0.0
1720,78.0,60.0,60.0,0.0,0.0
1721,79.0,60.0,60.0,0.0,0.0
1722,81.0,0.0,120.0,0.0,0.0
1723,78.0,0.0,60.0,0.0,0.0
1724,51.0,60.0,15.0,0.0,0.0
1725,79.0,60.0,60.0,0.0,0.0
1726,71.0,0.0,120.0,0.0,0.0
1727,78.0,60.0,60.0,0.0,0.0
1728,76.0,60.0,60.0,0.0,0.0
1729,72.0,240.0,120.0,0.0,0.0
1730,78.0,0.0,60.0,0.0,0.0
1731,71.0,240.0,480.0,0.0,0.0
1732,52.0,240.0,15.0,0.0,0.0
1733,50.0,240.0,15.0,0.0,0.0
1734,79.0,0.0,15.0,0.0,0.0
1735,76.0,0.0,15.0,0.0,0.0
1736,71.0,60.0,60.0,0.0,0.0
1737,49.0,0.0,240.0,0.0,0.0
1738,70.0,60.0,60.0,0.0,0.0
1739,71.0,60.0,60.0,0.0,0.0
1740,70.0,60.0,60.0,0.0,0.0
1741,71.0,60.0,60.0,0.0,0.0
1742,49.0,0.0,240.0,0.0,0.0
1743,70.0,60.0,60.0,0.0,0.0
1744,68.0,60.0,60.0,0.0,0.0
1745,70.0,0.0,60.0,0.0,0.0
1746,74.0,0.0,480.0,0.0,0.0
1747,50.0,240.0,15.0,0.0,0.0
1748,71.0,240.0,15.0,0.0,0.0
1749,78.0,0.0,15.0,0.0,0.0
1750,55.0,0.0,15.0,0.0,0.0
1751,59.0,120.0,240.0,0.0,0.0
1752,76.0,120.0,120.0,0.0,0.0
1753,67.0,0.0,15.0,0.0,0.0
1754,74.0,0.0,120.0,0.0,0.0
1755,52.0,120.0,240.0,0.0,0.0
1756,64.0,0.0,120.0,0.0,0.0
1757,73.0,120.0,120.0,0.0,0.0
1758,71.0,0.0,15.0,0.0,0.0
1759,67.0,0.0,15.0,0.0,0.0
1760,62.0,0.0,120.0,0.0,0.0
1761,71.0,0.0,120.0,0.0,0.0
1762,70.0,0.0,120.0,0.0,0.0
1763,61.0,120.0,120.0,0.0,0.0
1764,52.0,0.0,240.0,0.0,0.0
1765,71.0,0.0,120.0,0.0,0.0
1766,62.0,0.0,120.0,0.0,0.0
1767,54.0,120.0,120.0,0.0,0.0
1768,61.0,0.0,480.0,0.0,0.0
1769,73.0,0.0,960.0,0.0,0.0
1770,70.0,120.0,240.0,0.0,0.0
1771,42.0,0.0,120.0,0.0,0.0
1772,46.0,120.0,120.0,0.0,0.0
1773,79.0,0.0,240.0,0.0,0.0
1774,49.0,120.0,120.0,0.0,0.0
1775,78.0,120.0,240.0,0.0,0.0
1776,52.0,120.0,120.0,0.0,0.0
1777,55.0,0.0,15.0,0.0,0.0
1778,85.0,0.0,240.0,0.0,0.0
1779,82.0,0.0,240.0,0.0,0.0
1780,74.0,0.0,240.0,0.0,0.0
1781,71.0,0.0,240.0,0.0,0.0
1782,66.0,120.0,15.0,0.0,0.0
1783,83.0,0.0,240.0,0.0,0.0
1784,86.0,0.0,240.0,0.0,0.0
1785,54.0,0.0,15.0,0.0,0.0
1786,52.0,0.0,120.0,0.0,0.0
1787,50.0,120.0,120.0,0.0,0.0
1788,70.0,0.0,240.0,0.0,0.0
1789,88.0,0.0,240.0,0.0,0.0
1790,85.0,60.0,240.0,0.0,0.0
1791,73.0,0.0,240.0,0.0,0.0
1792,66.0,0.0,240.0,0.0,0.0
1793,49.0,0.0,120.0,0.0,0.0
1794,66.0,120.0,240.0,0.0,0.0
1795,90.0,120.0,360.0,0.0,0.0
1796,76.0,60.0,60.0,0.0,0.0
1797,74.0,120.0,60.0,0.0,0.0
1798,73.0,0.0,120.0,0.0,0.0
1799,71.0,0.0,15.0,0.0,0.0
1800,47.0,0.0,15.0,0.0,0.0
1801,71.0,0.0,240.0,0.0,0.0
1802,74.0,0.0,240.0,0.0,0.0
1803,78.0,0.0,120.0,0.0,0.0
1804,79.0,40.0,30.0,0.0,0.0
1805,76.0,240.0,480.0,0.0,0.0
1806,69.0,0.0,480.0,0.0,0.0
1807,49.0,0.0,240.0,0.0,0.0
1808,81.0,40.0,30.0,0.0,0.0
1809,83.0,40.0,30.0,0.0,0.0
1810,81.0,40.0,30.0,0.0,0.0
1811,83.0,40.0,30.0,0.0,0.0
1812,81.0,40.0,30.0,0.0,0.0
1813,49.0,0.0,240.0,0.0,0.0
1814,83.0,40.0,30.0,0.0,0.0
1815,81.0,40.0,30.0,0.0,0.0
1816,83.0,30.0,30.0,0.0,0.0
1817,81.0,30.0,30.0,0.0,0.0
1818,83.0,30.0,30.0,0.0,0.0
1819,81.0,30.0,30.0,0.0,0.0
1820,83.0,0.0,30.0,0.0,0.0
1821,81.0,0.0,15.0,0.0,0.0
1822,71.0,0.0,480.0,0.0,0.0
1823,51.0,0.0,240.0,0.0,0.0
1824,69.0,0.0,480.0,0.0,0.0
1825,78.0,0.0,480.0,0.0,0.0
1826,51.0,120.0,240.0,0.0,0.0
1827,83.0,0.0,360.0,0.0,0.0
1828,67.0,0.0,480.0,0.0,0.0
1829,52.0,0.0,240.0,0.0,0.0
1830,76.0,0.0,480.0,0.0,0.0
1831,79.0,0.0,15.0,0.0,0.0
1832,81.0,120.0,120.0,0.0,0.0
1833,52.0,40.0,240.0,0.0,0.0
1834,79.0,120.0,120.0,0.0,0.0
1835,78.0,0.0,120.0,0.0,0.0
1836,71.0,0.0,15.0,0.0,0.0
1837,66.0,0.0,480.0,0.0,0.0
1838,73.0,40.0,30.0,0.0,0.0
1839,78.0,40.0,120.0,0.0,0.0
1840,74.0,40.0,30.0,0.0,0.0
1841,76.0,0.0,30.0,0.0,0.0
1842,74.0,40.0,30.0,0.0,0.0
1843,79.0,0.0,120.0,0.0,0.0
1844,76.0,40.0,30.0,0.0,0.0
1845,74.0,0.0,30.0,0.0,0.0
1846,76.0,40.0,30.0,0.0,0.0
1847,78.0,0.0,120.0,0.0,0.0
1848,54.0,40.0,15.0,0.0,0.0
1849,74.0,40.0,30.0,0.0,0.0
1850,76.0,30.0,15.0,0.0,0.0
1851,74.0,30.0,30.0,0.0,0.0
1852,76.0,30.0,30.0,0.0,0.0
1853,74.0,30.0,30.0,0.0,0.0
1854,74.0,0.0,15.0,0.0,0.0
1855,55.0,240.0,240.0,0.0,0.0
1856,74.0,0.0,240.0,0.0,0.0
1857,76.0,0.0,15.0,0.0,0.0
1858,55.0,0.0,240.0,0.0,0.0
1859,73.0,0.0,15.0,0.0,0.0
1860,67.0,120.0,15.0,0.0,0.0
1861,64.0,0.0,15.0,0.0,0.0
1862,46.0,0.0,240.0,0.0,0.0
1863,73.0,120.0,120.0,0.0,0.0
1864,74.0,120.0,120.0,0.0,0.0
1865,73.0,120.0,120.0,0.0,0.0
1866,49.0,0.0,240.0,0.0,0.0
1867,67.0,0.0,120.0,0.0,0.0
1868,71.0,0.0,120.0,0.0,0.0
1869,64.0,0.0,480.0,0.0,0.0
1870,67.0,0.0,480.0,0.0,0.0
1871,52.0,120.0,240.0,0.0,0.0
1872,71.0,120.0,120.0,0.0,0.0
1873,73.0,0.0,120.0,0.0,0.0
1874,71.0,120.0,120.0,0.0,0.0
1875,50.0,0.0,240.0,0.0,0.0
1876,52.0,120.0,240.0,0.0,0.0
1877,70.0,0.0,15.0,0.0,0.0
1878,70.0,120.0,360.0,0.0,0.0
1879,61.0,0.0,480.0,0.0,0.0
1880,49.0,240.0,240.0,0.0,0.0
1881,82.0,0.0,120.0,0.0,0.0
1882,79.0,0.0,120.0,0.0,0.0
1883,83.0,120.0,360.0,0.0,0.0
1884,59.0,0.0,480.0,0.0,0.0
1885,66.0,0.0,15.0,0.0,0.0
1886,50.0,120.0,240.0,0.0,0.0
1887,78.0,0.0,360.0,0.0,0.0
1888,47.0,240.0,240.0,0.0,0.0
1889,86.0,0.0,120.0,0.0,0.0
1890,71.0,0.0,120.0,0.0,0.0
1891,54.0,240.0,240.0,0.0,0.0
1892,71.0,0.0,15.0,0.0,0.0
1893,66.0,0.0,15.0,0.0,0.0
1894,74.0,0.0,480.0,0.0,0.0
1895,54.0,0.0,240.0,0.0,0.0
1896,74.0,0.0,15.0,0.0,0.0
1897,83.0,40.0,15.0,0.0,0.0
1898,70.0,0.0,480.0,0.0,0.0
1899,66.0,0.0,15.0,0.0,0.0
1900,82.0,0.0,30.0,0.0,0.0
1901,73.0,40.0,30.0,0.0,0.0
1902,83.0,30.0,30.0,0.0,0.0
1903,74.0,0.0,30.0,0.0,0.0
1904,73.0,30.0,30.0,0.0,0.0
1905,82.0,0.0,30.0,0.0,0.0
1906,83.0,0.0,30.0,0.0,0.0
1907,74.0,30.0,30.0,0.0,0.0
1908,82.0,0.0,30.0,0.0,0.0
1909,73.0,30.0,30.0,0.0,0.0
1910,83.0,0.0,30.0,0.0,0.0
1911,74.0,0.0,30.0,0.0,0.0
1912,42.0,120.0,15.0,0.0,0.0
1913,82.0,120.0,120.0,0.0,0.0
1914,73.0,0.0,120.0,0.0,0.0
1915,83.0,120.0,120.0,0.0,0.0
1916,66.0,0.0,960.0,0.0,0.0
1917,71.0,0.0,15.0,0.0,0.0
1918,83.0,120.0,120.0,0.0,0.0
1919,71.0,240.0,480.0,0.0,0.0
1920,86.0,0.0,120.0,0.0,0.0
1921,77.0,120.0,120.0,0.0,0.0
1922,47.0,120.0,15.0,0.0,0.0
1923,78.0,0.0,120.0,0.0,0.0
1924,50.0,0.0,240.0,0.0,0.0
1925,83.0,120.0,120.0,0.0,0.0
1926,54.0,0.0,240.0,0.0,0.0
1927,73.0,120.0,120.0,0.0,0.0
1928,50.0,0.0,240.0,0.0,0.0
1929,83.0,0.0,480.0,0.0,0.0
1930,74.0,0.0,15.0,0.0,0.0
1931,78.0,120.0,120.0,0.0,0.0
1932,47.0,0.0,240.0,0.0,0.0
1933,70.0,120.0,120.0,0.0,0.0
1934,43.0,120.0,240.0,0.0,0.0
1935,71.0,120.0,15.0,0.0,0.0
1936,83.0,0.0,240.0,0.0,0.0
1937,78.0,120.0,15.0,0.0,0.0
1938,71.0,0.0,15.0,0.0,0.0
1939,75.0,120.0,120.0,0.0,0.0
1940,81.0,0.0,120.0,0.0,0.0
1941,55.0,0.0,240.0,0.0,0.0
1942,83.0,0.0,240.0,0.0,0.0
1943,76.0,0.0,120.0,0.0,0.0
1944,79.0,0.0,120.0,0.0,0.0
1945,72.0,0.0,480.0,0.0,0.0
1946,75.0,0.0,120.0,0.0,0.0
1947,54.0,0.0,15.0,0.0,0.0
1948,84.0,120.0,15.0,0.0,0.0
1949,83.0,0.0,120.0,0.0,0.0
1950,71.0,0.0,480.0,0.0,0.0
1951,81.0,0.0,15.0,0.0,0.0
1952,75.0,240.0,15.0,0.0,0.0
1953,78.0,0.0,120.0,0.0,0.0
1954,88.0,120.0,120.0,0.0,0.0
1955,59.0,120.0,15.0,0.0,0.0
1956,87.0,120.0,120.0,0.0,0.0
1957,69.0,0.0,15.0,0.0,0.0
1958,88.0,0.0,120.0,0.0,0.0
1959,52.0,120.0,240.0,0.0,0.0
1960,67.0,0.0,120.0,0.0,0.0
1961,91.0,0.0,120.0,0.0,0.0
1962,82.0,120.0,120.0,0.0,0.0
1963,66.0,0.0,120.0,0.0,0.0
1964,52.0,240.0,240.0,0.0,0.0
1965,83.0,0.0,120.0,0.0,0.0
1966,64.0,0.0,120.0,0.0,0.0
1967,55.0,0.0,240.0,0.0,0.0
1968,88.0,120.0,120.0,0.0,0.0
1969,59.0,0.0,240.0,0.0,0.0
1970,78.0,120.0,120.0,0.0,0.0
1971,79.0,240.0,120.0,0.0,0.0
1972,55.0,0.0,240.0,0.0,0.0
1973,83.0,120.0,120.0,0.0,0.0
1974,52.0,0.0,240.0,0.0,0.0
1975,75.0,120.0,120.0,0.0,0.0
1976,76.0,0.0,120.0,0.0,0.0
1977,76.0,0.0,15.0,0.0,0.0
1978,71.0,120.0,15.0,0.0,0.0
1979,48.0,0.0,240.0,0.0,0.0
1980,79.0,0.0,240.0,0.0,0.0
1981,64.0,0.0,120.0,0.0,0.0
1982,86.0,120.0,120.0,0.0,0.0
1983,60.0,0.0,240.0,0.0,0.0
1984,74.0,0.0,120.0,0.0,0.0
1985,76.0,0.0,15.0,0.0,0.0
1986,69.0,0.0,240.0,0.0,0.0
1987,80.0,120.0,120.0,0.0,0.0
1988,72.0,240.0,120.0,0.0,0.0
1989,81.0,0.0,120.0,0.0,0.0
1990,59.0,0.0,240.0,0.0,0.0
1991,74.0,0.0,480.0,0.0,0.0
1992,89.0,120.0,240.0,0.0,0.0
1993,80.0,0.0,480.0,0.0,0.0
1994,68.0,0.0,120.0,0.0,0.0
1995,86.0,0.0,240.0,0.0,0.0
1996,77.0,120.0,120.0,0.0,0.0
1997,59.0,240.0,240.0,0.0,0.0
1998,76.0,0.0,120.0,0.0,0.0
1999,64.0,0.0,240.0,0.0,0.0
2000,80.0,0.0,240.0,0.0,0.0
2001,71.0,120.0,120.0,0.0,0.0
2002,81.0,120.0,120.0,0.0,0.0
2003,74.0,0.0,240.0,0.0,0.0
2004,64.0,0.0,240.0,0.0,0.0
2005,80.0,0.0,120.0,0.0,0.0
2006,57.0,120.0,240.0,0.0,0.0
2007,76.0,240.0,15.0,0.0,0.0
2008,72.0,120.0,360.0,0.0,0.0
2009,81.0,0.0,480.0,0.0,0.0
2010,57.0,0.0,240.0,0.0,0.0
2011,84.0,40.0,120.0,0.0,0.0
2012,76.0,0.0,15.0,0.0,0.0
2013,74.0,0.0,960.0,0.0,0.0
2014,81.0,40.0,30.0,0.0,0.0
2015,59.0,0.0,240.0,0.0,0.0
2016,80.0,40.0,30.0,0.0,0.0
2017,81.0,40.0,30.0,0.0,0.0
2018,80.0,40.0,30.0,0.0,0.0
2019,81.0,40.0,30.0,0.0,0.0
2020,80.0,40.0,30.0,0.0,0.0
2021,59.0,240.0,240.0,0.0,0.0
2022,81.0,40.0,30.0,0.0,0.0
2023,80.0,40.0,30.0,0.0,0.0
2024,81.0,40.0,30.0,0.0,0.0
2025,80.0,40.0,30.0,0.0,0.0
2026,81.0,40.0,30.0,0.0,0.0
2027,80.0,240.0,270.0,0.0,0.0
2028,59.0,0.0,240.0,0.0,0.0
2029,81.0,0.0,240.0,0.0,0.0
2030,59.0,0.0,240.0,0.0,0.0
2031,60.0,240.0,240.0,0.0,0.0
2032,76.0,0.0,480.0,0.0,0.0
2033,72.0,0.0,480.0,0.0,0.0
2034,81.0,0.0,480.0,0.0,0.0
2035,60.0,240.0,240.0,0.0,0.0
2036,81.0,0.0,240.0,0.0,0.0
2037,51.0,120.0,240.0,0.0,0.0
2038,79.0,120.0,120.0,0.0,0.0
2039,51.0,120.0,240.0,0.0,0.0
2040,78.0,0.0,120.0,0.0,0.0
2041,83.0,120.0,120.0,0.0,0.0
2042,81.0,0.0,120.0,0.0,0.0
2043,51.0,120.0,15.0,0.0,0.0
2044,79.0,120.0,120.0,0.0,0.0
2045,78.0,0.0,120.0,0.0,0.0
2046,71.0,120.0,15.0,0.0,0.0
2047,79.0,120.0,120.0,0.0,0.0
2048,78.0,120.0,120.0,0.0,0.0
2049,52.0,0.0,15.0,0.0,0.0
2050,79.0,120.0,15.0,0.0,0.0
2051,83.0,0.0,120.0,0.0,0.0
2052,54.0,0.0,240.0,0.0,0.0
2053,76.0,0.0,15.0,0.0,0.0
2054,71.0,0.0,960.0,0.0,0.0
2055,81.0,0.0,120.0,0.0,0.0
2056,75.0,40.0,30.0,0.0,0.0
2057,76.0,40.0,30.0,0.0,0.0
2058,84.0,40.0,120.0,0.0,0.0
2059,75.0,40.0,30.0,0.0,0.0
2060,76.0,40.0,30.0,0.0,0.0
2061,75.0,0.0,30.0,0.0,0.0
2062,76.0,40.0,30.0,0.0,0.0
2063,54.0,0.0,240.0,0.0,0.0
2064,84.0,0.0,120.0,0.0,0.0
2065,75.0,40.0,30.0,0.0,0.0
2066,76.0,40.0,30.0,0.0,0.0
2067,75.0,40.0,30.0,0.0,0.0
2068,76.0,40.0,30.0,0.0,0.0
2069,75.0,0.0,270.0,0.0,0.0
2070,83.0,120.0,15.0,0.0,0.0
2071,81.0,120.0,120.0,0.0,0.0
2072,54.0,0.0,15.0,0.0,0.0
2073,81.0,120.0,120.0,0.0,0.0
2074,83.0,0.0,120.0,0.0,0.0
2075,55.0,0.0,240.0,0.0,0.0
2076,76.0,0.0,15.0,0.0,0.0
2077,71.0,0.0,480.0,0.0,0.0
2078,83.0,120.0,120.0,0.0,0.0
2079,82.0,120.0,120.0,0.0,0.0
2080,83.0,120.0,120.0,0.0,0.0
2081,55.0,0.0,240.0,0.0,0.0
2082,88.0,0.0,120.0,0.0,0.0
2083,81.0,60.0,60.0,0.0,0.0
2084,79.0,60.0,15.0,0.0,0.0
2085,76.0,0.0,15.0,0.0,0.0
2086,46.0,0.0,240.0,0.0,0.0
2087,79.0,60.0,60.0,0.0,0.0
2088,81.0,60.0,60.0,0.0,0.0
2089,79.0,60.0,60.0,0.0,0.0
2090,75.0,60.0,120.0,0.0,0.0
2091,46.0,0.0,240.0,0.0,0.0
2092,81.0,60.0,60.0,0.0,0.0
2093,79.0,0.0,60.0,0.0,0.0
2094,73.0,0.0,120.0,0.0,0.0
2095,81.0,60.0,60.0,0.0,0.0
2096,79.0,0.0,60.0,0.0,0.0
2097,67.0,0.0,480.0,0.0,0.0
2098,46.0,0.0,240.0,0.0,0.0
2099,78.0,0.0,120.0,0.0,0.0
2100,81.0,60.0,60.0,0.0,0.0
2101,73.0,60.0,15.0,0.0,0.0
2102,79.0,60.0,60.0,0.0,0.0
2103,76.0,60.0,120.0,0.0,0.0
2104,81.0,60.0,60.0,0.0,0.0
2105,79.0,0.0,60.0,0.0,0.0
2106,81.0,60.0,60.0,0.0,0.0
2107,46.0,120.0,240.0,0.0,0.0
2108,75.0,60.0,120.0,0.0,0.0
2109,79.0,0.0,60.0,0.0,0.0
2110,78.0,60.0,60.0,0.0,0.0
2111,73.0,0.0,120.0,0.0,0.0
2112,79.0,0.0,60.0,0.0,0.0
2113,66.0,0.0,480.0,0.0,0.0
2114,78.0,120.0,120.0,0.0,0.0
2115,47.0,0.0,240.0,0.0,0.0
2116,71.0,120.0,120.0,0.0,0.0
2117,59.0,0.0,240.0,0.0,0.0
2118,75.0,120.0,120.0,0.0,0.0
2119,78.0,0.0,120.0,0.0,0.0
2120,75.0,0.0,15.0,0.0,0.0
2121,71.0,120.0,15.0,0.0,0.0
2122,81.0,120.0,120.0,0.0,0.0
2123,54.0,120.0,240.0,0.0,0.0
2124,69.0,0.0,480.0,0.0,0.0
2125,84.0,0.0,120.0,0.0,0.0
2126,51.0,120.0,240.0,0.0,0.0
2127,83.0,120.0,120.0,0.0,0.0
2128,81.0,0.0,120.0,0.0,0.0
2129,90.0,120.0,120.0,0.0,0.0
2130,78.0,240.0,480.0,0.0,0.0
2131,71.0,0.0,480.0,0.0,0.0
2132,47.0,120.0,240.0,0.0,0.0
2133,84.0,0.0,120.0,0.0,0.0
2134,51.0,0.0,240.0,0.0,0.0
2135,83.0,120.0,120.0,0.0,0.0
2136,81.0,0.0,120.0,0.0,0.0
2137,52.0,120.0,240.0,0.0,0.0
2138,79.0,0.0,360.0,0.0,0.0
2139,64.0,0.0,120.0,0.0,0.0
2140,67.0,120.0,120.0,0.0,0.0
2141,64.0,0.0,240.0,0.0,0.0
2142,86.0,0.0,120.0,0.0,0.0
2143,71.0,0.0,120.0,0.0,0.0
2144,59.0,120.0,240.0,0.0,0.0
2145,68.0,0.0,480.0,0.0,0.0
2146,76.0,0.0,15.0,0.0,0.0
2147,81.0,0.0,240.0,0.0,0.0
2148,74.0,120.0,120.0,0.0,0.0
2149,77.0,0.0,120.0,0.0,0.0
2150,56.0,0.0,240.0,0.0,0.0
2151,80.0,0.0,480.0,0.0,0.0
2152,76.0,120.0,120.0,0.0,0.0
2153,74.0,0.0,120.0,0.0,0.0
2154,52.0,0.0,240.0,0.0,0.0
2155,83.0,120.0,120.0,0.0,0.0
2156,76.0,0.0,15.0,0.0,0.0
2157,74.0,120.0,15.0,0.0,0.0
2158,77.0,120.0,120.0,0.0,0.0
2159,56.0,120.0,240.0,0.0,0.0
2160,76.0,120.0,120.0,0.0,0.0
2161,83.0,120.0,360.0,0.0,0.0
2162,74.0,0.0,120.0,0.0,0.0
2163,76.0,0.0,15.0,0.0,0.0
2164,71.0,0.0,15.0,0.0,0.0
2165,45.0,0.0,240.0,0.0,0.0
2166,69.0,0.0,120.0,0.0,0.0
2167,72.0,120.0,15.0,0.0,0.0
2168,57.0,0.0,240.0,0.0,0.0
2169,76.0,0.0,15.0,0.0,0.0
2170,72.0,0.0,120.0,0.0,0.0
2171,69.0,0.0,240.0,0.0,0.0
2172,52.0,120.0,240.0,0.0,0.0
2173,76.0,0.0,15.0,0.0,0.0
2174,74.0,0.0,240.0,0.0,0.0
2175,79.0,120.0,15.0,0.0,0.0
2176,69.0,0.0,960.0,0.0,0.0
2177,83.0,0.0,120.0,0.0,0.0
2178,73.0,0.0,240.0,0.0,0.0
2179,81.0,120.0,120.0,0.0,0.0
2180,49.0,0.0,240.0,0.0,0.0
2181,79.0,120.0,120.0,0.0,0.0
2182,45.0,120.0,240.0,0.0,0.0
2183,88.0,120.0,120.0,0.0,0.0
2184,83.0,0.0,120.0,0.0,0.0
2185,76.0,0.0,240.0,0.0,0.0
2186,81.0,120.0,120.0,0.0,0.0
2187,49.0,120.0,240.0,0.0,0.0
2188,79.0,0.0,120.0,0.0,0.0
2189,50.0,120.0,240.0,0.0,0.0
2190,78.0,0.0,240.0,0.0,0.0
2191,69.0,0.0,240.0,0.0,0.0
2192,76.0,120.0,120.0,0.0,0.0
2193,62.0,0.0,120.0,0.0,0.0
2194,74.0,0.0,240.0,0.0,0.0
2195,78.0,0.0,120.0,0.0,0.0
2196,62.0,0.0,240.0,0.0,0.0
2197,66.0,120.0,120.0,0.0,0.0
2198,69.0,0.0,120.0,0.0,0.0
2199,84.0,0.0,120.0,0.0,0.0
2200,57.0,0.0,240.0,0.0,0.0
2201,79.0,120.0,240.0,0.0,0.0
2202,72.0,120.0,120.0,0.0,0.0
2203,76.0,0.0,120.0,0.0,0.0
2204,74.0,120.0,120.0,0.0,0.0
2205,54.0,0.0,240.0,0.0,0.0
2206,72.0,120.0,120.0,0.0,0.0
2207,50.0,120.0,240.0,0.0,0.0
2208,81.0,120.0,120.0,0.0,0.0
2209,76.0,0.0,120.0,0.0,0.0
2210,74.0,120.0,120.0,0.0,0.0
2211,54.0,0.0,240.0,0.0,0.0
2212,72.0,0.0,120.0,0.0,0.0
2213,71.0,0.0,360.0,0.0,0.0
2214,78.0,120.0,360.0,0.0,0.0
2215,51.0,120.0,120.0,0.0,0.0
2216,47.0,120.0,120.0,0.0,0.0
2217,51.0,0.0,120.0,0.0,0.0
2218,81.0,0.0,120.0,0.0,0.0
2219,72.0,120.0,120.0,0.0,0.0
2220,54.0,0.0,120.0,0.0,0.0
2221,67.0,0.0,240.0,0.0,0.0
2222,57.0,120.0,120.0,0.0,0.0
2223,78.0,0.0,960.0,0.0,0.0
2224,76.0,0.0,240.0,0.0,0.0
2225,60.0,120.0,120.0,0.0,0.0
2226,66.0,0.0,480.0,0.0,0.0
2227,60.0,120.0,120.0,0.0,0.0
2228,59.0,120.0,15.0,0.0,0.0
2229,57.0,0.0,15.0,0.0,0.0
2230,75.0,120.0,15.0,0.0,0.0
2231,84.0,0.0,240.0,0.0,0.0
2232,76.0,0.0,240.0,0.0,0.0
2233,71.0,240.0,15.0,0.0,0.0
2234,55.0,0.0,15.0,0.0,0.0
2235,83.0,0.0,360.0,0.0,0.0
2236,57.0,0.0,240.0,0.0,0.0
2237,79.0,120.0,15.0,0.0,0.0
2238,76.0,120.0,15.0,0.0,0.0
2239,72.0,0.0,120.0,0.0,0.0
2240,76.0,0.0,15.0,0.0,0.0
2241,76.0,0.0,15.0,0.0,0.0
2242,79.0,0.0,15.0,0.0,0.0
2243,59.0,240.0,240.0,0.0,0.0
2244,59.0,0.0,240.0,0.0,0.0
2245,67.0,0.0,15.0,0.0,0.0
2246,76.0,0.0,15.0,0.0,0.0
2247,78.0,0.0,480.0,0.0,0.0
2248,71.0,0.0,15.0,0.0,0.0
2249,47.0,0.0,240.0,0.0,0.0
2250,66.0,0.0,30.0,0.0,0.0
2251,75.0,40.0,30.0,0.0,0.0
2252,67.0,0.0,30.0,0.0,0.0
2253,76.0,30.0,30.0,0.0,0.0
2254,66.0,30.0,30.0,0.0,0.0
2255,75.0,0.0,30.0,0.0,0.0
2256,76.0,0.0,30.0,0.0,0.0
2257,67.0,30.0,30.0,0.0,0.0
2258,75.0,30.0,30.0,0.0,0.0
2259,66.0,0.0,30.0,0.0,0.0
2260,76.0,120.0,30.0,0.0,0.0
2261,67.0,0.0,30.0,0.0,0.0
2262,66.0,0.0,120.0,0.0,0.0
2263,75.0,120.0,120.0,0.0,0.0
2264,47.0,0.0,240.0,0.0,0.0
2265,76.0,0.0,120.0,0.0,0.0
2266,64.0,0.0,120.0,0.0,0.0
2267,64.0,120.0,120.0,0.0,0.0
2268,67.0,0.0,120.0,0.0,0.0
2269,71.0,120.0,120.0,0.0,0.0
2270,48.0,120.0,15.0,0.0,0.0
2271,76.0,0.0,120.0,0.0,0.0
2272,48.0,0.0,15.0,0.0,0.0
2273,69.0,0.0,960.0,0.0,0.0
2274,81.0,120.0,120.0,0.0,0.0
2275,76.0,120.0,15.0,0.0,0.0
2276,72.0,0.0,960.0,0.0,0.0
2277,84.0,120.0,120.0,0.0,0.0
2278,76.0,0.0,240.0,0.0,0.0
2279,48.0,0.0,15.0,0.0,0.0
2280,84.0,120.0,120.0,0.0,0.0
2281,83.0,0.0,120.0,0.0,0.0
2282,77.0,60.0,60.0,0.0,0.0
2283,48.0,0.0,240.0,0.0,0.0
2284,83.0,60.0,120.0,0.0,0.0
2285,76.0,0.0,60.0,0.0,0.0
2286,77.0,60.0,60.0,0.0,0.0
2287,76.0,0.0,60.0,0.0,0.0
2288,81.0,60.0,15.0,0.0,0.0
2289,77.0,60.0,60.0,0.0,0.0
2290,48.0,0.0,240.0,0.0,0.0
2291,76.0,0.0,60.0,0.0,0.0
2292,74.0,60.0,60.0,0.0,0.0
2293,76.0,0.0,60.0,0.0,0.0
2294,80.0,0.0,15.0,0.0,0.0
2295,77.0,120.0,120.0,0.0,0.0
2296,74.0,120.0,120.0,0.0,0.0
2297,80.0,120.0,120.0,0.0,0.0
2298,47.0,0.0,15.0,0.0,0.0
2299,83.0,0.0,120.0,0.0,0.0
2300,86.0,120.0,120.0,0.0,0.0
2301,76.0,0.0,960.0,0.0,0.0
2302,74.0,0.0,15.0,0.0,0.0
2303,68.0,0.0,15.0,0.0,0.0
2304,89.0,0.0,120.0,0.0,0.0
2305,68.0,60.0,240.0,0.0,0.0
2306,47.0,120.0,15.0,0.0,0.0
2307,89.0,120.0,120.0,0.0,0.0
2308,88.0,0.0,120.0,0.0,0.0
2309,47.0,60.0,240.0,0.0,0.0
2310,88.0,60.0,120.0,0.0,0.0
2311,69.0,60.0,60.0,0.0,0.0
2312,68.0,0.0,60.0,0.0,0.0
2313,69.0,60.0,60.0,0.0,0.0
2314,68.0,0.0,60.0,0.0,0.0
2315,86.0,0.0,15.0,0.0,0.0
2316,69.0,60.0,60.0,0.0,0.0
2317,47.0,120.0,240.0,0.0,0.0
2318,68.0,0.0,60.0,0.0,0.0
2319,66.0,60.0,60.0,0.0,0.0
2320,84.0,0.0,120.0,0.0,0.0
2321,68.0,0.0,60.0,0.0,0.0
2322,45.0,0.0,480.0,0.0,0.0
2323,69.0,120.0,120.0,0.0,0.0
2324,84.0,0.0,120.0,0.0,0.0
2325,76.0,120.0,120.0,0.0,0.0
2326,72.0,0.0,15.0,0.0,0.0
2327,69.0,0.0,15.0,0.0,0.0
2328,77.0,240.0,15.0,0.0,0.0
2329,57.0,0.0,480.0,0.0,0.0
2330,81.0,0.0,120.0,0.0,0.0
2331,71.0,120.0,120.0,0.0,0.0
2332,81.0,0.0,240.0,0.0,0.0
2333,72.0,0.0,120.0,0.0,0.0
2334,84.0,0.0,240.0,0.0,0.0
2335,77.0,120.0,120.0,0.0,0.0
2336,76.0,120.0,240.0,0.0,0.0
2337,71.0,0.0,240.0,0.0,0.0
2338,64.0,0.0,240.0,0.0,0.0
2339,48.0,0.0,240.0,0.0,0.0
2340,68.0,120.0,120.0,0.0,0.0
2341,89.0,0.0,240.0,0.0,0.0
2342,69.0,0.0,120.0,0.0,0.0
2343,87.0,120.0,120.0,0.0,0.0
2344,69.0,120.0,240.0,0.0,0.0
2345,47.0,0.0,480.0,0.0,0.0
2346,71.0,0.0,120.0,0.0,0.0
2347,75.0,0.0,240.0,0.0,0.0
2348,79.0,120.0,120.0,0.0,0.0
2349,71.0,0.0,15.0,0.0,0.0
2350,66.0,0.0,15.0,0.0,0.0
2351,59.0,0.0,480.0,0.0,0.0
2352,78.0,240.0,15.0,0.0,0.0
2353,75.0,0.0,120.0,0.0,0.0
2354,84.0,120.0,120.0,0.0,0.0
2355,81.0,0.0,240.0,0.0,0.0
2356,83.0,0.0,120.0,0.0,0.0
2357,84.0,120.0,120.0,0.0,0.0
2358,81.0,120.0,120.0,0.0,0.0
2359,78.0,0.0,120.0,0.0,0.0
2360,66.0,240.0,240.0,0.0,0.0
2361,88.0,120.0,120.0,0.0,0.0
2362,79.0,0.0,120.0,0.0,0.0
2363,75.0,0.0,240.0,0.0,0.0
2364,57.0,0.0,240.0,0.0,0.0
2365,78.0,0.0,120.0,0.0,0.0
2366,87.0,0.0,120.0,0.0,0.0
2367,83.0,0.0,360.0,0.0,0.0
2368,88.0,120.0,360.0,0.0,0.0
2369,71.0,0.0,15.0,0.0,0.0
2370,55.0,0.0,240.0,0.0,0.0
2371,57.0,40.0,240.0,0.0,0.0
2372,76.0,0.0,15.0,0.0,0.0
2373,67.0,120.0,15.0,0.0,0.0
2374,73.0,0.0,120.0,0.0,0.0
2375,81.0,0.0,120.0,0.0,0.0
2376,76.0,0.0,15.0,0.0,0.0
2377,66.0,0.0,960.0,0.0,0.0
2378,79.0,40.0,30.0,0.0,0.0
2379,71.0,0.0,960.0,0.0,0.0
2380,59.0,40.0,240.0,0.0,0.0
2381,75.0,0.0,30.0,0.0,0.0
2382,78.0,40.0,30.0,0.0,0.0
2383,76.0,0.0,30.0,0.0,0.0
2384,79.0,40.0,30.0,0.0,0.0
2385,78.0,0.0,30.0,0.0,0.0
2386,75.0,40.0,30.0,0.0,0.0
2387,79.0,40.0,30.0,0.0,0.0
2388,76.0,0.0,30.0,0.0,0.0
2389,78.0,0.0,30.0,0.0,0.0
2390,75.0,0.0,30.0,0.0,0.0
2391,59.0,240.0,240.0,0.0,0.0
2392,79.0,0.0,30.0,0.0,0.0
2393,76.0,40.0,30.0,0.0,0.0
2394,78.0,0.0,30.0,0.0,0.0
2395,75.0,40.0,30.0,0.0,0.0
2396,79.0,0.0,30.0,0.0,0.0
2397,76.0,40.0,30.0,0.0,0.0
2398,78.0,40.0,30.0,0.0,0.0
2399,75.0,0.0,30.0,0.0,0.0
2400,76.0,0.0,30.0,0.0,0.0
2401,79.0,40.0,30.0,0.0,0.0
2402,75.0,0.0,270.0,0.0,0.0
2403,78.0,240.0,270.0,0.0,0.0
2404,47.0,0.0,240.0,0.0,0.0
2405,76.0,0.0,240.0,0.0,0.0
2406,47.0,0.0,240.0,0.0,0.0
2407,40.0,0.0,1440.0,0.0,0.0
2408,71.0,0.0,1440.0,0.0,0.0
2409,67.0,0.0,1440.0,0.0,0.0
2410,76.0,0.0,15.0,0.0,0.0
