,note,step,duration,channel,velocity
0,64.0,240.0,720.0,0.0,64.0
1,52.0,120.0,120.0,2.0,64.0
2,55.0,120.0,120.0,2.0,64.0
3,59.0,240.0,120.0,2.0,64.0
4,64.0,0.0,960.0,2.0,64.0
5,66.0,240.0,240.0,0.0,64.0
6,67.0,240.0,240.0,0.0,64.0
7,68.0,240.0,240.0,0.0,64.0
8,62.0,0.0,240.0,2.0,64.0
9,69.0,240.0,240.0,0.0,64.0
10,61.0,0.0,240.0,2.0,64.0
11,70.0,240.0,240.0,0.0,64.0
12,62.0,120.0,600.0,2.0,64.0
13,71.0,0.0,960.0,0.0,64.0
14,59.0,120.0,120.0,1.0,64.0
15,62.0,120.0,120.0,1.0,64.0
16,66.0,120.0,120.0,1.0,64.0
17,71.0,120.0,960.0,1.0,64.0
18,56.0,120.0,120.0,2.0,64.0
19,54.0,120.0,120.0,2.0,64.0
20,56.0,120.0,120.0,2.0,64.0
21,57.0,120.0,120.0,2.0,64.0
22,72.0,120.0,600.0,0.0,64.0
23,52.0,120.0,120.0,2.0,64.0
24,57.0,120.0,120.0,2.0,64.0
25,59.0,0.0,120.0,2.0,64.0
26,69.0,120.0,240.0,1.0,64.0
27,60.0,240.0,720.0,2.0,64.0
28,69.0,0.0,120.0,0.0,64.0
29,65.0,120.0,120.0,0.0,64.0
30,68.0,240.0,240.0,1.0,64.0
31,64.0,0.0,120.0,0.0,64.0
32,63.0,120.0,480.0,0.0,64.0
33,69.0,120.0,600.0,1.0,64.0
34,60.0,0.0,240.0,2.0,64.0
35,59.0,120.0,240.0,2.0,64.0
36,63.0,0.0,120.0,1.0,64.0
37,57.0,120.0,240.0,2.0,64.0
38,61.0,120.0,120.0,1.0,64.0
39,63.0,0.0,120.0,1.0,64.0
40,55.0,120.0,600.0,2.0,64.0
41,64.0,120.0,120.0,1.0,64.0
42,59.0,120.0,120.0,1.0,64.0
43,64.0,120.0,120.0,1.0,64.0
44,66.0,120.0,120.0,1.0,64.0
45,67.0,0.0,720.0,1.0,64.0
46,71.0,0.0,960.0,0.0,64.0
47,57.0,120.0,120.0,2.0,64.0
48,55.0,120.0,120.0,2.0,64.0
49,54.0,240.0,120.0,2.0,64.0
50,52.0,240.0,240.0,2.0,64.0
51,67.0,0.0,240.0,1.0,64.0
52,53.0,240.0,240.0,2.0,64.0
53,70.0,120.0,960.0,0.0,64.0
54,66.0,240.0,240.0,1.0,64.0
55,54.0,0.0,480.0,2.0,64.0
56,64.0,480.0,240.0,1.0,64.0
57,62.0,120.0,600.0,1.0,64.0
58,55.0,0.0,240.0,2.0,64.0
59,54.0,0.0,240.0,2.0,64.0
60,69.0,120.0,960.0,0.0,64.0
61,64.0,120.0,120.0,1.0,64.0
62,52.0,0.0,240.0,2.0,64.0
63,62.0,120.0,120.0,1.0,64.0
64,61.0,240.0,120.0,1.0,64.0
65,51.0,0.0,240.0,2.0,64.0
66,59.0,120.0,240.0,1.0,64.0
67,52.0,120.0,120.0,2.0,64.0
68,60.0,0.0,240.0,1.0,64.0
69,51.0,0.0,120.0,2.0,64.0
70,68.0,120.0,960.0,0.0,64.0
71,52.0,120.0,120.0,2.0,64.0
72,61.0,120.0,480.0,1.0,64.0
73,54.0,120.0,120.0,2.0,64.0
74,52.0,120.0,120.0,2.0,64.0
75,50.0,0.0,120.0,2.0,64.0
76,49.0,120.0,120.0,2.0,64.0
77,47.0,120.0,120.0,2.0,64.0
78,62.0,0.0,240.0,1.0,64.0
79,49.0,120.0,120.0,2.0,64.0
80,50.0,0.0,120.0,2.0,64.0
81,52.0,120.0,120.0,2.0,64.0
82,67.0,120.0,960.0,0.0,64.0
83,61.0,120.0,240.0,1.0,64.0
84,49.0,0.0,120.0,2.0,64.0
85,59.0,0.0,240.0,1.0,64.0
86,50.0,120.0,120.0,2.0,64.0
87,52.0,240.0,120.0,2.0,64.0
88,54.0,120.0,240.0,2.0,64.0
89,58.0,0.0,240.0,1.0,64.0
90,59.0,120.0,120.0,1.0,64.0
91,64.0,120.0,480.0,2.0,64.0
92,58.0,0.0,120.0,1.0,64.0
93,59.0,120.0,120.0,1.0,64.0
94,66.0,0.0,720.0,0.0,64.0
95,61.0,0.0,120.0,1.0,64.0
96,62.0,0.0,120.0,2.0,64.0
97,59.0,120.0,120.0,1.0,64.0
98,61.0,120.0,120.0,2.0,64.0
99,57.0,0.0,120.0,1.0,64.0
100,56.0,120.0,120.0,1.0,64.0
101,62.0,0.0,240.0,2.0,64.0
102,54.0,120.0,120.0,1.0,64.0
103,65.0,120.0,240.0,0.0,64.0
104,59.0,0.0,240.0,2.0,64.0
105,56.0,120.0,120.0,1.0,64.0
106,57.0,0.0,120.0,1.0,64.0
107,56.0,0.0,240.0,2.0,64.0
108,62.0,120.0,240.0,0.0,64.0
109,59.0,120.0,120.0,1.0,64.0
110,56.0,0.0,120.0,1.0,64.0
111,57.0,0.0,120.0,1.0,64.0
112,61.0,240.0,240.0,0.0,64.0
113,61.0,120.0,120.0,2.0,64.0
114,59.0,0.0,120.0,2.0,64.0
115,59.0,0.0,120.0,1.0,64.0
116,58.0,120.0,240.0,2.0,64.0
117,61.0,0.0,240.0,1.0,64.0
118,66.0,240.0,480.0,0.0,64.0
119,59.0,120.0,120.0,2.0,64.0
120,71.0,120.0,480.0,1.0,64.0
121,61.0,0.0,120.0,2.0,64.0
122,62.0,0.0,240.0,2.0,64.0
123,69.0,120.0,120.0,1.0,64.0
124,53.0,240.0,240.0,2.0,64.0
125,68.0,0.0,120.0,1.0,64.0
126,54.0,240.0,480.0,2.0,64.0
127,69.0,240.0,240.0,1.0,64.0
128,66.0,0.0,240.0,1.0,64.0
129,63.0,120.0,240.0,1.0,64.0
130,71.0,0.0,960.0,0.0,64.0
131,68.0,120.0,120.0,1.0,64.0
132,66.0,240.0,120.0,1.0,64.0
133,65.0,120.0,240.0,1.0,64.0
134,66.0,120.0,120.0,1.0,64.0
135,54.0,120.0,360.0,2.0,64.0
136,68.0,120.0,120.0,1.0,64.0
137,69.0,0.0,480.0,0.0,64.0
138,69.0,120.0,240.0,1.0,64.0
139,57.0,0.0,120.0,2.0,64.0
140,60.0,0.0,240.0,1.0,64.0
141,56.0,120.0,120.0,2.0,64.0
142,54.0,120.0,120.0,2.0,64.0
143,61.0,120.0,480.0,1.0,64.0
144,53.0,120.0,120.0,2.0,64.0
145,68.0,120.0,960.0,0.0,64.0
146,54.0,120.0,120.0,2.0,64.0
147,56.0,120.0,120.0,2.0,64.0
148,57.0,0.0,120.0,2.0,64.0
149,59.0,120.0,120.0,2.0,64.0
150,62.0,120.0,120.0,2.0,64.0
151,61.0,120.0,120.0,2.0,64.0
152,59.0,0.0,120.0,2.0,64.0
153,57.0,120.0,120.0,2.0,64.0
154,66.0,0.0,720.0,0.0,64.0
155,54.0,120.0,120.0,2.0,64.0
156,57.0,120.0,120.0,2.0,64.0
157,61.0,120.0,360.0,1.0,64.0
158,61.0,120.0,120.0,2.0,64.0
159,66.0,0.0,960.0,2.0,64.0
160,64.0,120.0,120.0,1.0,64.0
161,68.0,0.0,240.0,0.0,64.0
162,63.0,120.0,120.0,1.0,64.0
163,61.0,120.0,120.0,1.0,64.0
164,69.0,0.0,240.0,0.0,64.0
165,60.0,120.0,120.0,1.0,64.0
166,61.0,120.0,120.0,1.0,64.0
167,70.0,0.0,240.0,0.0,64.0
168,63.0,120.0,120.0,1.0,64.0
169,64.0,120.0,120.0,1.0,64.0
170,64.0,0.0,240.0,2.0,64.0
171,71.0,120.0,240.0,0.0,64.0
172,66.0,120.0,120.0,1.0,64.0
173,69.0,0.0,120.0,1.0,64.0
174,63.0,0.0,240.0,2.0,64.0
175,68.0,120.0,120.0,1.0,64.0
176,72.0,0.0,240.0,0.0,64.0
177,66.0,120.0,120.0,1.0,64.0
178,64.0,120.0,600.0,2.0,64.0
179,73.0,120.0,960.0,0.0,64.0
180,64.0,120.0,120.0,1.0,64.0
181,61.0,120.0,120.0,1.0,64.0
182,64.0,120.0,120.0,1.0,64.0
183,68.0,120.0,120.0,1.0,64.0
184,73.0,120.0,960.0,1.0,64.0
185,58.0,120.0,120.0,2.0,64.0
186,56.0,120.0,120.0,2.0,64.0
187,58.0,0.0,120.0,2.0,64.0
188,59.0,120.0,120.0,2.0,64.0
189,74.0,120.0,600.0,0.0,64.0
190,54.0,120.0,120.0,2.0,64.0
191,59.0,120.0,120.0,2.0,64.0
192,61.0,0.0,120.0,2.0,64.0
193,71.0,120.0,240.0,1.0,64.0
194,62.0,240.0,720.0,2.0,64.0
195,71.0,0.0,120.0,0.0,64.0
196,70.0,240.0,240.0,1.0,64.0
197,67.0,120.0,120.0,0.0,64.0
198,66.0,0.0,120.0,0.0,64.0
199,71.0,120.0,600.0,1.0,64.0
200,65.0,120.0,480.0,0.0,64.0
201,62.0,0.0,240.0,2.0,64.0
202,61.0,120.0,240.0,2.0,64.0
203,65.0,0.0,120.0,1.0,64.0
204,59.0,120.0,240.0,2.0,64.0
205,63.0,120.0,120.0,1.0,64.0
206,65.0,0.0,120.0,1.0,64.0
207,66.0,120.0,120.0,1.0,64.0
208,57.0,120.0,600.0,2.0,64.0
209,61.0,120.0,120.0,1.0,64.0
210,66.0,120.0,120.0,1.0,64.0
211,68.0,120.0,120.0,1.0,64.0
212,73.0,0.0,960.0,0.0,64.0
213,59.0,120.0,120.0,2.0,64.0
214,57.0,120.0,120.0,2.0,64.0
215,56.0,240.0,120.0,2.0,64.0
216,54.0,0.0,240.0,2.0,64.0
217,69.0,240.0,15.0,1.0,64.0
218,55.0,0.0,240.0,2.0,64.0
219,72.0,120.0,960.0,0.0,64.0
220,68.0,240.0,240.0,1.0,64.0
221,56.0,480.0,480.0,2.0,64.0
222,66.0,0.0,240.0,1.0,64.0
223,64.0,120.0,600.0,1.0,64.0
224,57.0,0.0,240.0,2.0,64.0
225,71.0,120.0,960.0,0.0,64.0
226,56.0,0.0,240.0,2.0,64.0
227,66.0,120.0,120.0,1.0,64.0
228,54.0,240.0,240.0,2.0,64.0
229,64.0,120.0,120.0,1.0,64.0
230,63.0,0.0,120.0,1.0,64.0
231,53.0,0.0,240.0,2.0,64.0
232,61.0,120.0,240.0,1.0,64.0
233,54.0,120.0,120.0,2.0,64.0
234,62.0,0.0,240.0,1.0,64.0
235,53.0,0.0,120.0,2.0,64.0
236,70.0,0.0,960.0,0.0,64.0
237,54.0,120.0,120.0,2.0,64.0
238,63.0,0.0,480.0,1.0,64.0
239,56.0,120.0,120.0,2.0,64.0
240,54.0,120.0,120.0,2.0,64.0
241,52.0,120.0,120.0,2.0,64.0
242,51.0,120.0,120.0,2.0,64.0
243,49.0,120.0,120.0,2.0,64.0
244,51.0,120.0,120.0,2.0,64.0
245,64.0,0.0,240.0,1.0,64.0
246,52.0,120.0,120.0,2.0,64.0
247,63.0,120.0,240.0,1.0,64.0
248,69.0,120.0,960.0,0.0,64.0
249,54.0,120.0,120.0,2.0,64.0
250,51.0,0.0,120.0,2.0,64.0
251,52.0,120.0,120.0,2.0,64.0
252,61.0,0.0,240.0,1.0,64.0
253,54.0,240.0,120.0,2.0,64.0
254,60.0,0.0,240.0,1.0,64.0
255,56.0,120.0,240.0,2.0,64.0
256,66.0,120.0,480.0,2.0,64.0
257,61.0,120.0,120.0,1.0,64.0
258,60.0,0.0,120.0,1.0,64.0
259,61.0,120.0,120.0,1.0,64.0
260,68.0,120.0,720.0,0.0,64.0
261,63.0,0.0,120.0,1.0,64.0
262,61.0,0.0,120.0,1.0,64.0
263,64.0,120.0,120.0,2.0,64.0
264,59.0,0.0,120.0,1.0,64.0
265,63.0,120.0,120.0,2.0,64.0
266,58.0,120.0,120.0,1.0,64.0
267,64.0,0.0,240.0,2.0,64.0
268,56.0,0.0,120.0,1.0,64.0
269,67.0,120.0,240.0,0.0,64.0
270,61.0,0.0,240.0,2.0,64.0
271,58.0,120.0,120.0,1.0,64.0
272,59.0,0.0,120.0,1.0,64.0
273,61.0,120.0,120.0,1.0,64.0
274,58.0,0.0,240.0,2.0,64.0
275,64.0,120.0,240.0,0.0,64.0
276,58.0,0.0,120.0,1.0,64.0
277,59.0,0.0,120.0,1.0,64.0
278,63.0,240.0,240.0,0.0,64.0
279,63.0,120.0,120.0,2.0,64.0
280,61.0,0.0,120.0,1.0,64.0
281,61.0,0.0,120.0,2.0,64.0
282,63.0,120.0,240.0,1.0,64.0
283,68.0,0.0,480.0,0.0,64.0
284,60.0,0.0,240.0,2.0,64.0
285,61.0,120.0,120.0,2.0,64.0
286,73.0,0.0,480.0,1.0,64.0
287,63.0,240.0,120.0,2.0,64.0
288,64.0,120.0,240.0,2.0,64.0
289,71.0,120.0,120.0,1.0,64.0
290,55.0,0.0,240.0,2.0,64.0
291,70.0,240.0,120.0,1.0,64.0
292,56.0,240.0,480.0,2.0,64.0
293,71.0,240.0,240.0,1.0,64.0
294,68.0,0.0,240.0,1.0,64.0
295,65.0,120.0,240.0,1.0,64.0
296,73.0,120.0,960.0,0.0,64.0
297,70.0,120.0,120.0,1.0,64.0
298,68.0,240.0,120.0,1.0,64.0
299,67.0,120.0,240.0,1.0,64.0
300,68.0,120.0,120.0,1.0,64.0
301,56.0,120.0,360.0,2.0,64.0
302,70.0,0.0,120.0,1.0,64.0
303,71.0,120.0,240.0,1.0,64.0
304,71.0,120.0,480.0,0.0,64.0
305,59.0,0.0,120.0,2.0,64.0
306,58.0,120.0,120.0,2.0,64.0
307,62.0,0.0,240.0,1.0,64.0
308,56.0,0.0,120.0,2.0,64.0
309,70.0,0.0,960.0,0.0,64.0
310,55.0,120.0,120.0,2.0,64.0
311,63.0,120.0,480.0,1.0,64.0
312,56.0,120.0,120.0,2.0,64.0
313,58.0,120.0,120.0,2.0,64.0
314,59.0,0.0,120.0,2.0,64.0
315,61.0,120.0,120.0,2.0,64.0
316,64.0,120.0,120.0,2.0,64.0
317,63.0,120.0,120.0,2.0,64.0
318,61.0,120.0,120.0,2.0,64.0
319,68.0,0.0,720.0,0.0,64.0
320,59.0,120.0,120.0,2.0,64.0
321,56.0,120.0,120.0,2.0,64.0
322,59.0,120.0,120.0,2.0,64.0
323,63.0,120.0,360.0,1.0,64.0
324,63.0,120.0,120.0,2.0,64.0
325,68.0,0.0,960.0,2.0,64.0
326,66.0,120.0,120.0,1.0,64.0
327,70.0,0.0,240.0,0.0,64.0
328,65.0,120.0,120.0,1.0,64.0
329,63.0,120.0,120.0,1.0,64.0
330,62.0,120.0,120.0,1.0,64.0
331,71.0,120.0,240.0,0.0,64.0
332,63.0,0.0,120.0,1.0,64.0
333,65.0,120.0,120.0,1.0,64.0
334,72.0,0.0,240.0,0.0,64.0
335,66.0,120.0,120.0,1.0,64.0
336,66.0,0.0,240.0,2.0,64.0
337,73.0,120.0,240.0,0.0,64.0
338,68.0,120.0,120.0,1.0,64.0
339,71.0,0.0,120.0,1.0,64.0
340,70.0,120.0,120.0,1.0,64.0
341,74.0,0.0,240.0,0.0,64.0
342,65.0,120.0,240.0,2.0,64.0
343,68.0,0.0,120.0,1.0,64.0
344,66.0,120.0,120.0,1.0,64.0
345,75.0,120.0,960.0,0.0,64.0
346,66.0,120.0,600.0,2.0,64.0
347,63.0,120.0,120.0,1.0,64.0
348,66.0,120.0,120.0,1.0,64.0
349,70.0,120.0,120.0,1.0,64.0
350,75.0,0.0,960.0,1.0,64.0
351,60.0,120.0,120.0,2.0,64.0
352,58.0,120.0,120.0,2.0,64.0
353,60.0,0.0,120.0,2.0,64.0
354,76.0,120.0,600.0,0.0,64.0
355,61.0,120.0,120.0,2.0,64.0
356,56.0,120.0,120.0,2.0,64.0
357,61.0,120.0,120.0,2.0,64.0
358,63.0,120.0,120.0,2.0,64.0
359,73.0,0.0,240.0,1.0,64.0
360,64.0,240.0,720.0,2.0,64.0
361,73.0,120.0,120.0,0.0,64.0
362,72.0,240.0,240.0,1.0,64.0
363,69.0,120.0,120.0,0.0,64.0
364,68.0,0.0,120.0,0.0,64.0
365,67.0,0.0,480.0,0.0,64.0
366,73.0,120.0,600.0,1.0,64.0
367,64.0,120.0,240.0,2.0,64.0
368,63.0,120.0,240.0,2.0,64.0
369,67.0,0.0,120.0,1.0,64.0
370,65.0,120.0,120.0,1.0,64.0
371,61.0,120.0,240.0,2.0,64.0
372,67.0,0.0,120.0,1.0,64.0
373,68.0,120.0,120.0,1.0,64.0
374,59.0,120.0,600.0,2.0,64.0
375,63.0,120.0,120.0,1.0,64.0
376,68.0,120.0,120.0,1.0,64.0
377,70.0,120.0,120.0,1.0,64.0
378,71.0,240.0,720.0,1.0,64.0
379,75.0,240.0,960.0,0.0,64.0
380,61.0,120.0,120.0,2.0,64.0
381,59.0,120.0,120.0,2.0,64.0
382,58.0,240.0,120.0,2.0,64.0
383,56.0,0.0,240.0,2.0,64.0
384,57.0,0.0,240.0,2.0,64.0
385,71.0,0.0,240.0,1.0,64.0
386,58.0,0.0,480.0,2.0,64.0
387,70.0,240.0,240.0,1.0,64.0
388,74.0,120.0,960.0,0.0,64.0
389,68.0,480.0,240.0,1.0,64.0
390,66.0,120.0,600.0,1.0,64.0
391,59.0,0.0,240.0,2.0,64.0
392,73.0,0.0,960.0,0.0,64.0
393,58.0,0.0,240.0,2.0,64.0
394,68.0,120.0,120.0,1.0,64.0
395,56.0,240.0,240.0,2.0,64.0
396,66.0,120.0,120.0,1.0,64.0
397,65.0,0.0,120.0,1.0,64.0
398,63.0,120.0,240.0,1.0,64.0
399,55.0,0.0,240.0,2.0,64.0
400,56.0,120.0,120.0,2.0,64.0
401,64.0,0.0,240.0,1.0,64.0
402,55.0,120.0,120.0,2.0,64.0
403,72.0,120.0,960.0,0.0,64.0
404,65.0,120.0,480.0,1.0,64.0
405,56.0,120.0,120.0,2.0,64.0
406,58.0,120.0,120.0,2.0,64.0
407,56.0,120.0,120.0,2.0,64.0
408,54.0,0.0,120.0,2.0,64.0
409,53.0,120.0,120.0,2.0,64.0
410,51.0,120.0,120.0,2.0,64.0
411,53.0,120.0,120.0,2.0,64.0
412,66.0,0.0,240.0,1.0,64.0
413,54.0,0.0,120.0,2.0,64.0
414,71.0,120.0,960.0,0.0,64.0
415,65.0,0.0,240.0,1.0,64.0
416,56.0,120.0,120.0,2.0,64.0
417,53.0,120.0,120.0,2.0,64.0
418,63.0,240.0,240.0,1.0,64.0
419,54.0,120.0,120.0,2.0,64.0
420,56.0,0.0,120.0,2.0,64.0
421,58.0,0.0,240.0,2.0,64.0
422,62.0,120.0,240.0,1.0,64.0
423,68.0,0.0,480.0,2.0,64.0
424,63.0,120.0,120.0,1.0,64.0
425,62.0,0.0,120.0,1.0,64.0
426,70.0,0.0,720.0,0.0,64.0
427,63.0,120.0,120.0,1.0,64.0
428,65.0,120.0,120.0,1.0,64.0
429,66.0,120.0,120.0,2.0,64.0
430,63.0,0.0,120.0,1.0,64.0
431,65.0,0.0,120.0,2.0,64.0
432,61.0,120.0,120.0,1.0,64.0
433,66.0,0.0,240.0,2.0,64.0
434,60.0,120.0,120.0,1.0,64.0
435,58.0,120.0,120.0,1.0,64.0
436,63.0,120.0,240.0,2.0,64.0
437,60.0,120.0,120.0,1.0,64.0
438,69.0,0.0,240.0,0.0,64.0
439,61.0,0.0,120.0,1.0,64.0
440,63.0,120.0,120.0,1.0,64.0
441,60.0,0.0,240.0,2.0,64.0
442,66.0,120.0,240.0,0.0,64.0
443,60.0,0.0,120.0,1.0,64.0
444,65.0,120.0,120.0,2.0,64.0
445,61.0,0.0,120.0,1.0,64.0
446,65.0,0.0,240.0,0.0,64.0
447,63.0,0.0,120.0,1.0,64.0
448,63.0,240.0,120.0,2.0,64.0
449,65.0,0.0,240.0,1.0,64.0
450,62.0,120.0,240.0,2.0,64.0
451,70.0,0.0,480.0,0.0,64.0
452,75.0,120.0,480.0,1.0,64.0
453,63.0,120.0,120.0,2.0,64.0
454,65.0,240.0,120.0,2.0,64.0
455,66.0,0.0,240.0,2.0,64.0
456,57.0,240.0,240.0,2.0,64.0
457,73.0,120.0,120.0,1.0,64.0
458,72.0,0.0,120.0,1.0,64.0
459,58.0,240.0,480.0,2.0,64.0
460,73.0,240.0,240.0,1.0,64.0
461,70.0,0.0,240.0,1.0,64.0
462,75.0,0.0,960.0,0.0,64.0
463,67.0,120.0,240.0,1.0,64.0
464,72.0,120.0,120.0,1.0,64.0
465,70.0,240.0,120.0,1.0,64.0
466,69.0,120.0,240.0,1.0,64.0
467,70.0,120.0,120.0,1.0,64.0
468,58.0,120.0,360.0,2.0,64.0
469,72.0,120.0,120.0,1.0,64.0
470,73.0,120.0,240.0,1.0,64.0
471,73.0,0.0,480.0,0.0,64.0
472,61.0,0.0,120.0,2.0,64.0
473,60.0,120.0,120.0,2.0,64.0
474,64.0,0.0,240.0,1.0,64.0
475,58.0,120.0,120.0,2.0,64.0
476,65.0,0.0,480.0,1.0,64.0
477,72.0,0.0,960.0,0.0,64.0
478,57.0,120.0,120.0,2.0,64.0
479,58.0,120.0,120.0,2.0,64.0
480,60.0,120.0,120.0,2.0,64.0
481,61.0,120.0,120.0,2.0,64.0
482,63.0,120.0,120.0,2.0,64.0
483,66.0,120.0,120.0,2.0,64.0
484,65.0,120.0,120.0,2.0,64.0
485,63.0,120.0,120.0,2.0,64.0
486,70.0,0.0,720.0,0.0,64.0
487,61.0,120.0,120.0,2.0,64.0
488,58.0,120.0,120.0,2.0,64.0
489,61.0,120.0,120.0,2.0,64.0
490,65.0,120.0,360.0,1.0,64.0
491,65.0,120.0,120.0,2.0,64.0
492,70.0,120.0,960.0,2.0,64.0
493,68.0,120.0,120.0,1.0,64.0
494,72.0,0.0,240.0,0.0,64.0
495,67.0,120.0,120.0,1.0,64.0
496,65.0,120.0,120.0,1.0,64.0
497,73.0,120.0,240.0,0.0,64.0
498,64.0,120.0,120.0,1.0,64.0
499,65.0,0.0,120.0,1.0,64.0
500,74.0,0.0,240.0,0.0,64.0
501,67.0,120.0,120.0,1.0,64.0
502,68.0,0.0,120.0,1.0,64.0
503,75.0,0.0,240.0,0.0,64.0
504,68.0,120.0,240.0,2.0,64.0
505,70.0,120.0,120.0,1.0,64.0
506,73.0,0.0,120.0,1.0,64.0
507,72.0,120.0,120.0,1.0,64.0
508,76.0,0.0,240.0,0.0,64.0
509,67.0,120.0,240.0,2.0,64.0
510,70.0,0.0,120.0,1.0,64.0
511,68.0,120.0,120.0,1.0,64.0
512,68.0,120.0,600.0,2.0,64.0
513,77.0,120.0,960.0,0.0,64.0
514,65.0,120.0,120.0,1.0,64.0
515,68.0,120.0,120.0,1.0,64.0
516,72.0,120.0,120.0,1.0,64.0
517,77.0,120.0,960.0,1.0,64.0
518,62.0,120.0,120.0,2.0,64.0
519,60.0,120.0,120.0,2.0,64.0
520,62.0,0.0,120.0,2.0,64.0
521,63.0,120.0,120.0,2.0,64.0
522,78.0,120.0,600.0,0.0,64.0
523,58.0,120.0,120.0,2.0,64.0
524,63.0,120.0,120.0,2.0,64.0
525,65.0,0.0,120.0,2.0,64.0
526,66.0,240.0,720.0,2.0,64.0
527,75.0,0.0,240.0,1.0,64.0
528,75.0,120.0,120.0,0.0,64.0
529,74.0,240.0,240.0,1.0,64.0
530,71.0,120.0,120.0,0.0,64.0
531,70.0,0.0,120.0,0.0,64.0
532,69.0,120.0,480.0,0.0,64.0
533,75.0,120.0,600.0,1.0,64.0
534,66.0,0.0,240.0,2.0,64.0
535,65.0,120.0,240.0,2.0,64.0
536,69.0,0.0,120.0,1.0,64.0
537,67.0,120.0,120.0,1.0,64.0
538,63.0,0.0,240.0,2.0,64.0
539,69.0,120.0,120.0,1.0,64.0
540,70.0,120.0,120.0,1.0,64.0
541,61.0,120.0,600.0,2.0,64.0
542,65.0,120.0,120.0,1.0,64.0
543,70.0,120.0,120.0,1.0,64.0
544,72.0,120.0,120.0,1.0,64.0
545,77.0,0.0,960.0,0.0,64.0
546,63.0,120.0,120.0,2.0,64.0
547,61.0,120.0,120.0,2.0,64.0
548,60.0,240.0,120.0,2.0,64.0
549,58.0,0.0,240.0,2.0,64.0
550,73.0,240.0,15.0,1.0,64.0
551,59.0,240.0,240.0,2.0,64.0
552,72.0,240.0,240.0,1.0,64.0
553,60.0,0.0,480.0,2.0,64.0
554,76.0,120.0,960.0,0.0,64.0
555,70.0,480.0,240.0,1.0,64.0
556,68.0,120.0,600.0,1.0,64.0
557,61.0,0.0,240.0,2.0,64.0
558,75.0,0.0,960.0,0.0,64.0
559,60.0,0.0,240.0,2.0,64.0
560,70.0,120.0,120.0,1.0,64.0
561,68.0,120.0,120.0,1.0,64.0
562,58.0,0.0,240.0,2.0,64.0
563,67.0,240.0,120.0,1.0,64.0
564,57.0,120.0,240.0,2.0,64.0
565,65.0,0.0,240.0,1.0,64.0
566,58.0,120.0,120.0,2.0,64.0
567,66.0,0.0,240.0,1.0,64.0
568,57.0,120.0,120.0,2.0,64.0
569,67.0,120.0,480.0,1.0,64.0
570,58.0,120.0,120.0,2.0,64.0
571,74.0,120.0,960.0,0.0,64.0
572,60.0,120.0,120.0,2.0,64.0
573,58.0,120.0,120.0,2.0,64.0
574,56.0,0.0,120.0,2.0,64.0
575,55.0,120.0,120.0,2.0,64.0
576,53.0,120.0,120.0,2.0,64.0
577,55.0,120.0,120.0,2.0,64.0
578,68.0,0.0,240.0,1.0,64.0
579,56.0,0.0,120.0,2.0,64.0
580,67.0,0.0,240.0,1.0,64.0
581,73.0,0.0,960.0,0.0,64.0
582,58.0,120.0,120.0,2.0,64.0
583,55.0,120.0,120.0,2.0,64.0
584,65.0,240.0,240.0,1.0,64.0
585,56.0,120.0,120.0,2.0,64.0
586,58.0,0.0,120.0,2.0,64.0
587,64.0,120.0,240.0,1.0,64.0
588,60.0,0.0,240.0,2.0,64.0
589,70.0,120.0,480.0,2.0,64.0
590,65.0,120.0,120.0,1.0,64.0
591,64.0,120.0,120.0,1.0,64.0
592,72.0,0.0,720.0,0.0,64.0
593,65.0,120.0,120.0,1.0,64.0
594,67.0,0.0,120.0,1.0,64.0
595,65.0,120.0,120.0,1.0,64.0
596,68.0,0.0,120.0,2.0,64.0
597,63.0,120.0,120.0,1.0,64.0
598,67.0,0.0,120.0,2.0,64.0
599,62.0,120.0,120.0,1.0,64.0
600,68.0,120.0,240.0,2.0,64.0
601,60.0,0.0,120.0,1.0,64.0
602,65.0,0.0,240.0,2.0,64.0
603,71.0,0.0,240.0,0.0,64.0
604,62.0,120.0,120.0,1.0,64.0
605,63.0,120.0,120.0,1.0,64.0
606,62.0,0.0,240.0,2.0,64.0
607,68.0,120.0,240.0,0.0,64.0
608,65.0,120.0,120.0,1.0,64.0
609,62.0,0.0,120.0,1.0,64.0
610,63.0,120.0,120.0,1.0,64.0
611,67.0,0.0,120.0,2.0,64.0
612,67.0,240.0,240.0,0.0,64.0
613,65.0,0.0,120.0,2.0,64.0
614,65.0,0.0,120.0,1.0,64.0
615,67.0,120.0,240.0,1.0,64.0
616,72.0,240.0,480.0,0.0,64.0
617,64.0,0.0,240.0,2.0,64.0
618,65.0,120.0,120.0,2.0,64.0
619,77.0,0.0,480.0,1.0,64.0
620,67.0,0.0,120.0,2.0,64.0
621,68.0,120.0,240.0,2.0,64.0
622,59.0,240.0,240.0,2.0,64.0
623,75.0,120.0,120.0,1.0,64.0
624,74.0,0.0,120.0,1.0,64.0
625,75.0,240.0,240.0,1.0,64.0
626,60.0,0.0,480.0,2.0,64.0
627,72.0,240.0,240.0,1.0,64.0
628,77.0,120.0,960.0,0.0,64.0
629,69.0,120.0,240.0,1.0,64.0
630,74.0,120.0,120.0,1.0,64.0
631,72.0,240.0,120.0,1.0,64.0
632,71.0,120.0,240.0,1.0,64.0
633,60.0,120.0,360.0,2.0,64.0
634,72.0,120.0,120.0,1.0,64.0
635,74.0,0.0,120.0,1.0,64.0
636,75.0,0.0,480.0,0.0,64.0
637,75.0,0.0,240.0,1.0,64.0
638,63.0,120.0,120.0,2.0,64.0
639,66.0,120.0,240.0,1.0,64.0
640,62.0,120.0,120.0,2.0,64.0
641,60.0,0.0,120.0,2.0,64.0
642,59.0,120.0,120.0,2.0,64.0
643,74.0,120.0,960.0,0.0,64.0
644,67.0,0.0,480.0,1.0,64.0
645,60.0,120.0,120.0,2.0,64.0
646,62.0,120.0,120.0,2.0,64.0
647,63.0,120.0,120.0,2.0,64.0
648,65.0,120.0,120.0,2.0,64.0
649,68.0,120.0,120.0,2.0,64.0
650,67.0,120.0,120.0,2.0,64.0
651,65.0,0.0,120.0,2.0,64.0
652,63.0,120.0,120.0,2.0,64.0
653,72.0,0.0,720.0,0.0,64.0
654,60.0,120.0,120.0,2.0,64.0
655,67.0,120.0,360.0,1.0,64.0
656,63.0,120.0,120.0,2.0,64.0
657,67.0,120.0,120.0,2.0,64.0
658,72.0,0.0,960.0,2.0,64.0
659,70.0,120.0,120.0,1.0,64.0
660,74.0,120.0,240.0,0.0,64.0
661,69.0,120.0,120.0,1.0,64.0
662,67.0,0.0,120.0,1.0,64.0
663,66.0,120.0,120.0,1.0,64.0
664,75.0,0.0,240.0,0.0,64.0
665,67.0,120.0,120.0,1.0,64.0
666,76.0,0.0,240.0,0.0,64.0
667,69.0,120.0,120.0,1.0,64.0
668,70.0,120.0,120.0,1.0,64.0
669,72.0,120.0,120.0,1.0,64.0
670,70.0,0.0,240.0,2.0,64.0
671,77.0,0.0,240.0,0.0,64.0
672,75.0,120.0,120.0,1.0,64.0
673,69.0,0.0,240.0,2.0,64.0
674,78.0,120.0,240.0,0.0,64.0
675,74.0,120.0,120.0,1.0,64.0
676,72.0,0.0,120.0,1.0,64.0
677,70.0,120.0,600.0,2.0,64.0
678,70.0,120.0,120.0,1.0,64.0
679,79.0,0.0,960.0,0.0,64.0
680,67.0,120.0,120.0,1.0,64.0
681,70.0,120.0,120.0,1.0,64.0
682,74.0,120.0,120.0,1.0,64.0
683,79.0,120.0,960.0,1.0,64.0
684,64.0,120.0,120.0,2.0,64.0
685,62.0,120.0,120.0,2.0,64.0
686,64.0,120.0,120.0,2.0,64.0
687,65.0,120.0,120.0,2.0,64.0
688,80.0,120.0,600.0,0.0,64.0
689,60.0,120.0,120.0,2.0,64.0
690,65.0,120.0,120.0,2.0,64.0
691,67.0,0.0,120.0,2.0,64.0
692,77.0,0.0,240.0,1.0,64.0
693,77.0,120.0,120.0,0.0,64.0
694,73.0,120.0,120.0,0.0,64.0
695,76.0,0.0,240.0,1.0,64.0
696,72.0,240.0,120.0,0.0,64.0
697,77.0,120.0,600.0,1.0,64.0
698,71.0,0.0,480.0,0.0,64.0
699,68.0,240.0,15.0,2.0,64.0
700,67.0,0.0,240.0,2.0,64.0
701,71.0,120.0,120.0,1.0,64.0
702,69.0,120.0,120.0,1.0,64.0
703,65.0,120.0,240.0,2.0,64.0
704,71.0,0.0,120.0,1.0,64.0
705,63.0,120.0,600.0,2.0,64.0
706,72.0,120.0,120.0,1.0,64.0
707,67.0,120.0,120.0,1.0,64.0
708,72.0,120.0,120.0,1.0,64.0
709,74.0,120.0,120.0,1.0,64.0
710,79.0,240.0,960.0,0.0,64.0
711,65.0,120.0,120.0,2.0,64.0
712,63.0,120.0,120.0,2.0,64.0
713,62.0,240.0,120.0,2.0,64.0
714,60.0,240.0,240.0,2.0,64.0
715,75.0,0.0,15.0,1.0,64.0
716,61.0,0.0,240.0,2.0,64.0
717,74.0,240.0,240.0,1.0,64.0
718,62.0,480.0,480.0,2.0,64.0
719,78.0,0.0,960.0,0.0,64.0
720,72.0,0.0,240.0,1.0,64.0
721,70.0,120.0,600.0,1.0,64.0
722,63.0,120.0,240.0,2.0,64.0
723,62.0,0.0,240.0,2.0,64.0
724,77.0,120.0,960.0,0.0,64.0
725,72.0,120.0,120.0,1.0,64.0
726,70.0,120.0,120.0,1.0,64.0
727,60.0,0.0,240.0,2.0,64.0
728,69.0,240.0,120.0,1.0,64.0
729,59.0,120.0,240.0,2.0,64.0
730,67.0,0.0,240.0,1.0,64.0
731,60.0,120.0,120.0,2.0,64.0
732,68.0,0.0,240.0,1.0,64.0
733,59.0,0.0,120.0,2.0,64.0
734,69.0,120.0,480.0,1.0,64.0
735,76.0,0.0,960.0,0.0,64.0
736,60.0,120.0,120.0,2.0,64.0
737,62.0,120.0,120.0,2.0,64.0
738,60.0,120.0,120.0,2.0,64.0
739,58.0,0.0,120.0,2.0,64.0
740,57.0,120.0,120.0,2.0,64.0
741,55.0,120.0,120.0,2.0,64.0
742,70.0,0.0,240.0,1.0,64.0
743,57.0,120.0,120.0,2.0,64.0
744,58.0,120.0,120.0,2.0,64.0
745,75.0,120.0,960.0,0.0,64.0
746,69.0,0.0,240.0,1.0,64.0
747,60.0,120.0,120.0,2.0,64.0
748,57.0,120.0,120.0,2.0,64.0
749,58.0,120.0,120.0,2.0,64.0
750,67.0,240.0,240.0,1.0,64.0
751,60.0,0.0,120.0,2.0,64.0
752,62.0,0.0,240.0,2.0,64.0
753,66.0,120.0,240.0,1.0,64.0
754,72.0,120.0,480.0,2.0,64.0
755,67.0,120.0,120.0,1.0,64.0
756,66.0,0.0,120.0,1.0,64.0
757,74.0,0.0,720.0,0.0,64.0
758,67.0,120.0,120.0,1.0,64.0
759,69.0,0.0,120.0,1.0,64.0
760,67.0,0.0,120.0,1.0,64.0
761,70.0,120.0,120.0,2.0,64.0
762,65.0,120.0,120.0,1.0,64.0
763,69.0,0.0,120.0,2.0,64.0
764,70.0,0.0,240.0,2.0,64.0
765,64.0,120.0,120.0,1.0,64.0
766,62.0,120.0,120.0,1.0,64.0
767,64.0,120.0,120.0,1.0,64.0
768,73.0,120.0,240.0,0.0,64.0
769,67.0,0.0,240.0,2.0,64.0
770,65.0,0.0,120.0,1.0,64.0
771,64.0,120.0,240.0,2.0,64.0
772,67.0,120.0,120.0,1.0,64.0
773,70.0,0.0,240.0,0.0,64.0
774,64.0,0.0,120.0,1.0,64.0
775,65.0,0.0,120.0,1.0,64.0
776,69.0,0.0,240.0,0.0,64.0
777,69.0,120.0,120.0,2.0,64.0
778,67.0,0.0,120.0,2.0,64.0
779,67.0,240.0,120.0,1.0,64.0
780,66.0,0.0,240.0,2.0,64.0
781,74.0,0.0,480.0,0.0,64.0
782,69.0,120.0,240.0,1.0,64.0
783,67.0,120.0,120.0,2.0,64.0
784,79.0,120.0,480.0,1.0,64.0
785,69.0,240.0,120.0,2.0,64.0
786,70.0,0.0,240.0,2.0,64.0
787,61.0,240.0,240.0,2.0,64.0
788,77.0,120.0,120.0,1.0,64.0
789,76.0,0.0,120.0,1.0,64.0
790,77.0,240.0,240.0,1.0,64.0
791,62.0,0.0,480.0,2.0,64.0
792,74.0,240.0,240.0,1.0,64.0
793,79.0,120.0,960.0,0.0,64.0
794,71.0,120.0,240.0,1.0,64.0
795,76.0,120.0,120.0,1.0,64.0
796,74.0,240.0,120.0,1.0,64.0
797,73.0,120.0,240.0,1.0,64.0
798,74.0,120.0,120.0,1.0,64.0
799,62.0,120.0,360.0,2.0,64.0
800,76.0,0.0,120.0,1.0,64.0
801,77.0,0.0,480.0,0.0,64.0
802,77.0,0.0,240.0,1.0,64.0
803,65.0,120.0,120.0,2.0,64.0
804,64.0,120.0,120.0,2.0,64.0
805,68.0,0.0,240.0,1.0,64.0
806,62.0,120.0,120.0,2.0,64.0
807,61.0,120.0,120.0,2.0,64.0
808,69.0,120.0,480.0,1.0,64.0
809,76.0,120.0,960.0,0.0,64.0
810,62.0,120.0,120.0,2.0,64.0
811,64.0,120.0,120.0,2.0,64.0
812,65.0,0.0,120.0,2.0,64.0
813,67.0,120.0,120.0,2.0,64.0
814,70.0,120.0,120.0,2.0,64.0
815,69.0,120.0,120.0,2.0,64.0
816,67.0,0.0,120.0,2.0,64.0
817,65.0,120.0,120.0,2.0,64.0
818,74.0,0.0,720.0,0.0,64.0
819,62.0,120.0,120.0,2.0,64.0
820,69.0,120.0,360.0,1.0,64.0
821,65.0,120.0,120.0,2.0,64.0
822,69.0,120.0,120.0,2.0,64.0
823,74.0,120.0,960.0,2.0,64.0
824,72.0,120.0,120.0,1.0,64.0
825,71.0,120.0,120.0,1.0,64.0
826,76.0,120.0,240.0,0.0,64.0
827,69.0,0.0,120.0,1.0,64.0
828,68.0,120.0,120.0,1.0,64.0
829,77.0,120.0,240.0,0.0,64.0
830,69.0,0.0,120.0,1.0,64.0
831,71.0,120.0,120.0,1.0,64.0
832,78.0,0.0,240.0,0.0,64.0
833,72.0,0.0,120.0,1.0,64.0
834,79.0,0.0,240.0,0.0,64.0
835,72.0,120.0,240.0,2.0,64.0
836,74.0,120.0,120.0,1.0,64.0
837,77.0,0.0,120.0,1.0,64.0
838,76.0,120.0,120.0,1.0,64.0
839,80.0,120.0,240.0,0.0,64.0
840,71.0,0.0,240.0,2.0,64.0
841,74.0,0.0,120.0,1.0,64.0
842,72.0,120.0,120.0,1.0,64.0
843,81.0,0.0,960.0,0.0,64.0
844,72.0,120.0,600.0,2.0,64.0
845,69.0,120.0,120.0,1.0,64.0
846,72.0,120.0,120.0,1.0,64.0
847,76.0,120.0,120.0,1.0,64.0
848,81.0,0.0,960.0,1.0,64.0
849,66.0,120.0,120.0,2.0,64.0
850,64.0,120.0,120.0,2.0,64.0
851,66.0,120.0,120.0,2.0,64.0
852,82.0,120.0,600.0,0.0,64.0
853,67.0,120.0,120.0,2.0,64.0
854,62.0,120.0,120.0,2.0,64.0
855,67.0,120.0,120.0,2.0,64.0
856,69.0,120.0,120.0,2.0,64.0
857,79.0,0.0,240.0,1.0,64.0
858,79.0,120.0,120.0,0.0,64.0
859,78.0,240.0,240.0,1.0,64.0
860,75.0,120.0,120.0,0.0,64.0
861,74.0,0.0,120.0,0.0,64.0
862,73.0,0.0,480.0,0.0,64.0
863,79.0,120.0,600.0,1.0,64.0
864,70.0,240.0,15.0,2.0,64.0
865,69.0,0.0,240.0,2.0,64.0
866,73.0,120.0,120.0,1.0,64.0
867,67.0,120.0,240.0,2.0,64.0
868,71.0,120.0,120.0,1.0,64.0
869,73.0,0.0,120.0,1.0,64.0
870,74.0,120.0,120.0,1.0,64.0
871,65.0,120.0,600.0,2.0,64.0
872,69.0,120.0,120.0,1.0,64.0
873,74.0,120.0,120.0,1.0,64.0
874,76.0,120.0,120.0,1.0,64.0
875,77.0,240.0,720.0,1.0,64.0
876,81.0,0.0,960.0,0.0,64.0
877,67.0,120.0,120.0,2.0,64.0
878,65.0,120.0,120.0,2.0,64.0
879,64.0,240.0,120.0,2.0,64.0
880,62.0,0.0,240.0,2.0,64.0
881,63.0,0.0,240.0,2.0,64.0
882,77.0,240.0,240.0,1.0,64.0
883,76.0,240.0,240.0,1.0,64.0
884,80.0,120.0,960.0,0.0,64.0
885,64.0,480.0,480.0,2.0,64.0
886,74.0,0.0,240.0,1.0,64.0
887,72.0,120.0,600.0,1.0,64.0
888,65.0,0.0,240.0,2.0,64.0
889,64.0,0.0,240.0,2.0,64.0
890,79.0,120.0,960.0,0.0,64.0
891,74.0,120.0,120.0,1.0,64.0
892,62.0,240.0,240.0,2.0,64.0
893,72.0,120.0,120.0,1.0,64.0
894,71.0,0.0,120.0,1.0,64.0
895,61.0,120.0,240.0,2.0,64.0
896,69.0,0.0,240.0,1.0,64.0
897,70.0,0.0,240.0,1.0,64.0
898,62.0,120.0,120.0,2.0,64.0
899,61.0,0.0,120.0,2.0,64.0
900,71.0,0.0,480.0,1.0,64.0
901,78.0,0.0,960.0,0.0,64.0
902,62.0,120.0,120.0,2.0,64.0
903,64.0,120.0,120.0,2.0,64.0
904,62.0,120.0,120.0,2.0,64.0
905,60.0,120.0,120.0,2.0,64.0
906,59.0,120.0,120.0,2.0,64.0
907,57.0,120.0,120.0,2.0,64.0
908,59.0,120.0,120.0,2.0,64.0
909,72.0,0.0,240.0,1.0,64.0
910,60.0,120.0,120.0,2.0,64.0
911,71.0,0.0,240.0,1.0,64.0
912,77.0,120.0,960.0,0.0,64.0
913,62.0,120.0,120.0,2.0,64.0
914,59.0,120.0,120.0,2.0,64.0
915,69.0,0.0,240.0,1.0,64.0
916,60.0,120.0,120.0,2.0,64.0
917,62.0,240.0,120.0,2.0,64.0
918,68.0,120.0,240.0,1.0,64.0
919,64.0,0.0,240.0,2.0,64.0
920,69.0,120.0,120.0,1.0,64.0
921,74.0,120.0,480.0,2.0,64.0
922,68.0,0.0,120.0,1.0,64.0
923,76.0,120.0,720.0,0.0,64.0
924,69.0,120.0,120.0,1.0,64.0
925,71.0,0.0,120.0,1.0,64.0
926,69.0,120.0,120.0,1.0,64.0
927,72.0,0.0,120.0,2.0,64.0
928,71.0,120.0,120.0,2.0,64.0
929,67.0,0.0,120.0,1.0,64.0
930,66.0,120.0,120.0,1.0,64.0
931,72.0,0.0,240.0,2.0,64.0
932,64.0,0.0,120.0,1.0,64.0
933,75.0,120.0,240.0,0.0,64.0
934,66.0,120.0,120.0,1.0,64.0
935,69.0,0.0,240.0,2.0,64.0
936,67.0,0.0,120.0,1.0,64.0
937,69.0,120.0,120.0,1.0,64.0
938,66.0,0.0,240.0,2.0,64.0
939,72.0,0.0,240.0,0.0,64.0
940,66.0,120.0,120.0,1.0,64.0
941,71.0,240.0,240.0,0.0,64.0
942,71.0,0.0,120.0,2.0,64.0
943,67.0,120.0,120.0,1.0,64.0
944,69.0,0.0,120.0,1.0,64.0
945,69.0,0.0,120.0,2.0,64.0
946,71.0,0.0,240.0,1.0,64.0
947,76.0,0.0,480.0,0.0,64.0
948,68.0,120.0,240.0,2.0,64.0
949,81.0,120.0,480.0,1.0,64.0
950,69.0,120.0,120.0,2.0,64.0
951,71.0,240.0,120.0,2.0,64.0
952,72.0,0.0,240.0,2.0,64.0
953,79.0,120.0,120.0,1.0,64.0
954,63.0,240.0,240.0,2.0,64.0
955,78.0,0.0,120.0,1.0,64.0
956,64.0,0.0,480.0,2.0,64.0
957,79.0,240.0,240.0,1.0,64.0
958,76.0,240.0,240.0,1.0,64.0
959,81.0,120.0,960.0,0.0,64.0
960,73.0,120.0,240.0,1.0,64.0
961,78.0,120.0,120.0,1.0,64.0
962,76.0,240.0,120.0,1.0,64.0
963,75.0,120.0,240.0,1.0,64.0
964,76.0,120.0,120.0,1.0,64.0
965,64.0,120.0,360.0,2.0,64.0
966,78.0,0.0,120.0,1.0,64.0
967,79.0,0.0,240.0,1.0,64.0
968,79.0,0.0,480.0,0.0,64.0
969,67.0,120.0,120.0,2.0,64.0
970,70.0,0.0,240.0,1.0,64.0
971,66.0,120.0,120.0,2.0,64.0
972,64.0,120.0,120.0,2.0,64.0
973,71.0,120.0,480.0,1.0,64.0
974,63.0,120.0,120.0,2.0,64.0
975,78.0,120.0,960.0,0.0,64.0
976,64.0,120.0,120.0,2.0,64.0
977,66.0,120.0,120.0,2.0,64.0
978,67.0,0.0,120.0,2.0,64.0
979,69.0,120.0,120.0,2.0,64.0
980,72.0,120.0,120.0,2.0,64.0
981,71.0,120.0,120.0,2.0,64.0
982,69.0,0.0,120.0,2.0,64.0
983,67.0,120.0,120.0,2.0,64.0
984,76.0,120.0,720.0,0.0,64.0
985,64.0,120.0,120.0,2.0,64.0
986,71.0,120.0,360.0,1.0,64.0
987,67.0,120.0,120.0,2.0,64.0
988,71.0,120.0,120.0,2.0,64.0
989,76.0,120.0,960.0,2.0,64.0
990,74.0,0.0,120.0,1.0,64.0
991,73.0,120.0,120.0,1.0,64.0
992,78.0,0.0,240.0,0.0,64.0
993,71.0,120.0,120.0,1.0,64.0
994,79.0,120.0,240.0,0.0,64.0
995,70.0,120.0,120.0,1.0,64.0
996,71.0,0.0,120.0,1.0,64.0
997,80.0,0.0,240.0,0.0,64.0
998,73.0,120.0,120.0,1.0,64.0
999,74.0,0.0,120.0,1.0,64.0
1000,76.0,120.0,120.0,1.0,64.0
1001,81.0,120.0,240.0,0.0,64.0
1002,74.0,0.0,240.0,2.0,64.0
1003,79.0,0.0,120.0,1.0,64.0
1004,73.0,120.0,240.0,2.0,64.0
1005,82.0,0.0,240.0,0.0,64.0
1006,78.0,120.0,120.0,1.0,64.0
1007,76.0,0.0,120.0,1.0,64.0
1008,74.0,120.0,120.0,1.0,64.0
1009,83.0,0.0,960.0,0.0,64.0
1010,74.0,120.0,600.0,2.0,64.0
1011,71.0,120.0,120.0,1.0,64.0
1012,74.0,120.0,120.0,1.0,64.0
1013,78.0,120.0,120.0,1.0,64.0
1014,83.0,0.0,960.0,1.0,64.0
1015,68.0,120.0,120.0,2.0,64.0
1016,66.0,120.0,120.0,2.0,64.0
1017,68.0,120.0,120.0,2.0,64.0
1018,69.0,120.0,120.0,2.0,64.0
1019,84.0,120.0,600.0,0.0,64.0
1020,64.0,120.0,120.0,2.0,64.0
1021,69.0,120.0,120.0,2.0,64.0
1022,71.0,120.0,120.0,2.0,64.0
1023,81.0,0.0,240.0,1.0,64.0
1024,81.0,120.0,120.0,0.0,64.0
1025,80.0,0.0,240.0,1.0,64.0
1026,77.0,120.0,120.0,0.0,64.0
1027,76.0,240.0,120.0,0.0,64.0
1028,81.0,120.0,600.0,1.0,64.0
1029,75.0,0.0,480.0,0.0,64.0
1030,72.0,240.0,15.0,2.0,64.0
1031,71.0,0.0,240.0,2.0,64.0
1032,75.0,120.0,120.0,1.0,64.0
1033,69.0,0.0,240.0,2.0,64.0
1034,73.0,120.0,120.0,1.0,64.0
1035,75.0,120.0,120.0,1.0,64.0
1036,76.0,120.0,120.0,1.0,64.0
1037,67.0,120.0,600.0,2.0,64.0
1038,71.0,120.0,120.0,1.0,64.0
1039,76.0,120.0,120.0,1.0,64.0
1040,78.0,120.0,120.0,1.0,64.0
1041,83.0,240.0,960.0,0.0,64.0
1042,69.0,120.0,120.0,2.0,64.0
1043,67.0,120.0,120.0,2.0,64.0
1044,66.0,240.0,120.0,2.0,64.0
1045,64.0,0.0,240.0,2.0,64.0
1046,79.0,240.0,15.0,1.0,64.0
1047,65.0,0.0,240.0,2.0,64.0
1048,78.0,240.0,240.0,1.0,64.0
1049,66.0,480.0,480.0,2.0,64.0
1050,82.0,120.0,960.0,0.0,64.0
1051,76.0,0.0,240.0,1.0,64.0
1052,74.0,120.0,600.0,1.0,64.0
1053,67.0,0.0,240.0,2.0,64.0
1054,66.0,120.0,240.0,2.0,64.0
1055,81.0,120.0,960.0,0.0,64.0
1056,76.0,0.0,120.0,1.0,64.0
1057,74.0,120.0,120.0,1.0,64.0
1058,64.0,240.0,240.0,2.0,64.0
1059,73.0,0.0,120.0,1.0,64.0
1060,71.0,120.0,240.0,1.0,64.0
1061,63.0,0.0,240.0,2.0,64.0
1062,72.0,0.0,240.0,1.0,64.0
1063,64.0,120.0,120.0,2.0,64.0
1064,63.0,0.0,120.0,2.0,64.0
1065,64.0,120.0,120.0,2.0,64.0
1066,73.0,0.0,480.0,1.0,64.0
1067,80.0,0.0,960.0,0.0,64.0
1068,66.0,120.0,120.0,2.0,64.0
1069,64.0,120.0,120.0,2.0,64.0
1070,62.0,120.0,120.0,2.0,64.0
1071,61.0,120.0,120.0,2.0,64.0
1072,59.0,120.0,120.0,2.0,64.0
1073,61.0,120.0,120.0,2.0,64.0
1074,74.0,0.0,240.0,1.0,64.0
1075,62.0,120.0,120.0,2.0,64.0
1076,64.0,120.0,120.0,2.0,64.0
1077,79.0,0.0,960.0,0.0,64.0
1078,73.0,120.0,240.0,1.0,64.0
1079,61.0,0.0,120.0,2.0,64.0
1080,62.0,120.0,120.0,2.0,64.0
1081,71.0,240.0,240.0,1.0,64.0
1082,64.0,0.0,120.0,2.0,64.0
1083,66.0,120.0,240.0,2.0,64.0
1084,70.0,0.0,240.0,1.0,64.0
1085,76.0,0.0,480.0,2.0,64.0
1086,71.0,120.0,120.0,1.0,64.0
1087,70.0,120.0,120.0,1.0,64.0
1088,78.0,0.0,720.0,0.0,64.0
1089,71.0,120.0,120.0,1.0,64.0
1090,73.0,120.0,120.0,1.0,64.0
1091,74.0,120.0,120.0,2.0,64.0
1092,71.0,0.0,120.0,1.0,64.0
1093,73.0,0.0,120.0,2.0,64.0
1094,69.0,120.0,120.0,1.0,64.0
1095,74.0,0.0,240.0,2.0,64.0
1096,68.0,120.0,120.0,1.0,64.0
1097,66.0,120.0,120.0,1.0,64.0
1098,77.0,0.0,240.0,0.0,64.0
1099,71.0,0.0,240.0,2.0,64.0
1100,68.0,120.0,120.0,1.0,64.0
1101,69.0,120.0,120.0,1.0,64.0
1102,74.0,0.0,240.0,0.0,64.0
1103,71.0,120.0,120.0,1.0,64.0
1104,68.0,120.0,240.0,2.0,64.0
1105,68.0,0.0,120.0,1.0,64.0
1106,73.0,120.0,120.0,2.0,64.0
1107,73.0,0.0,240.0,0.0,64.0
1108,69.0,0.0,120.0,1.0,64.0
1109,71.0,240.0,120.0,1.0,64.0
1110,71.0,0.0,120.0,2.0,64.0
1111,73.0,120.0,240.0,1.0,64.0
1112,70.0,0.0,240.0,2.0,64.0
1113,78.0,240.0,480.0,0.0,64.0
1114,71.0,120.0,120.0,2.0,64.0
1115,83.0,0.0,480.0,1.0,64.0
1116,73.0,0.0,120.0,2.0,64.0
1117,74.0,120.0,240.0,2.0,64.0
1118,81.0,120.0,120.0,1.0,64.0
1119,65.0,0.0,240.0,2.0,64.0
1120,80.0,240.0,120.0,1.0,64.0
1121,81.0,240.0,240.0,1.0,64.0
1122,66.0,240.0,480.0,2.0,64.0
1123,78.0,0.0,240.0,1.0,64.0
1124,83.0,0.0,960.0,0.0,64.0
1125,75.0,120.0,240.0,1.0,64.0
1126,80.0,120.0,120.0,1.0,64.0
1127,78.0,240.0,120.0,1.0,64.0
1128,77.0,120.0,240.0,1.0,64.0
1129,66.0,120.0,360.0,2.0,64.0
1130,78.0,120.0,120.0,1.0,64.0
1131,80.0,120.0,120.0,1.0,64.0
1132,81.0,120.0,240.0,1.0,64.0
1133,81.0,0.0,480.0,0.0,64.0
1134,69.0,0.0,120.0,2.0,64.0
1135,68.0,120.0,120.0,2.0,64.0
1136,72.0,120.0,240.0,1.0,64.0
1137,66.0,0.0,120.0,2.0,64.0
1138,80.0,0.0,960.0,0.0,64.0
1139,73.0,120.0,480.0,1.0,64.0
1140,65.0,120.0,120.0,2.0,64.0
1141,66.0,120.0,120.0,2.0,64.0
1142,68.0,120.0,120.0,2.0,64.0
1143,69.0,0.0,120.0,2.0,64.0
1144,71.0,120.0,120.0,2.0,64.0
1145,74.0,120.0,120.0,2.0,64.0
1146,73.0,120.0,120.0,2.0,64.0
1147,71.0,120.0,120.0,2.0,64.0
1148,69.0,120.0,120.0,2.0,64.0
1149,78.0,0.0,960.0,0.0,64.0
1150,66.0,120.0,120.0,2.0,64.0
1151,69.0,120.0,120.0,2.0,64.0
1152,73.0,480.0,120.0,2.0,64.0
1153,78.0,0.0,480.0,2.0,64.0
