,note,step,duration,channel,velocity
0,55.0,0.0,1020.0,2.0,0.0
1,64.0,0.0,1020.0,1.0,0.0
2,48.0,0.0,1020.0,3.0,0.0
3,72.0,1024.0,1020.0,0.0,0.0
4,64.0,0.0,1020.0,1.0,0.0
5,55.0,0.0,1020.0,2.0,0.0
6,48.0,1024.0,1020.0,3.0,0.0
7,72.0,0.0,1020.0,0.0,0.0
8,53.0,512.0,1020.0,3.0,0.0
9,65.0,0.0,1020.0,1.0,0.0
10,72.0,0.0,1020.0,0.0,0.0
11,56.0,0.0,1020.0,2.0,0.0
12,67.0,0.0,1020.0,1.0,0.0
13,72.0,512.0,1020.0,0.0,0.0
14,55.0,512.0,510.0,2.0,0.0
15,51.0,0.0,1020.0,3.0,0.0
16,56.0,0.0,510.0,2.0,0.0
17,58.0,512.0,510.0,2.0,0.0
18,49.0,0.0,1020.0,3.0,0.0
19,70.0,0.0,1020.0,0.0,0.0
20,60.0,512.0,510.0,2.0,0.0
21,65.0,0.0,15.0,1.0,0.0
22,48.0,512.0,510.0,3.0,0.0
23,68.0,0.0,1020.0,0.0,0.0
24,61.0,0.0,1020.0,2.0,0.0
25,46.0,0.0,510.0,3.0,0.0
26,48.0,0.0,2040.0,3.0,0.0
27,67.0,0.0,2040.0,0.0,0.0
28,55.0,512.0,2040.0,2.0,0.0
29,64.0,0.0,2040.0,1.0,0.0
30,68.0,0.0,1020.0,0.0,0.0
31,53.0,1024.0,1020.0,3.0,0.0
32,60.0,512.0,510.0,1.0,0.0
33,53.0,0.0,1020.0,2.0,0.0
34,62.0,0.0,510.0,1.0,0.0
35,54.0,0.0,1020.0,2.0,0.0
36,51.0,0.0,1020.0,3.0,0.0
37,70.0,0.0,1020.0,0.0,0.0
38,54.0,0.0,1020.0,2.0,0.0
39,63.0,1024.0,15.0,1.0,0.0
40,45.0,0.0,15.0,3.0,0.0
41,72.0,0.0,15.0,0.0,0.0
42,53.0,0.0,1020.0,2.0,0.0
43,61.0,512.0,510.0,1.0,0.0
44,60.0,0.0,510.0,1.0,0.0
45,53.0,0.0,2040.0,2.0,0.0
46,70.0,1024.0,1020.0,0.0,0.0
47,61.0,0.0,1020.0,1.0,0.0
48,46.0,0.0,1020.0,3.0,0.0
49,41.0,0.0,1020.0,3.0,0.0
50,60.0,0.0,1020.0,1.0,0.0
51,68.0,2048.0,1020.0,0.0,0.0
52,67.0,1024.0,2040.0,0.0,0.0
53,48.0,0.0,2040.0,3.0,0.0
54,52.0,0.0,2040.0,2.0,0.0
55,60.0,0.0,15.0,1.0,0.0
56,53.0,0.0,1020.0,3.0,0.0
57,65.0,1024.0,1020.0,0.0,0.0
58,56.0,0.0,1020.0,2.0,0.0
59,60.0,0.0,15.0,1.0,0.0
60,52.0,0.0,1020.0,3.0,0.0
61,55.0,0.0,1020.0,2.0,0.0
62,67.0,512.0,1020.0,0.0,0.0
63,53.0,0.0,1020.0,3.0,0.0
64,60.0,0.0,15.0,1.0,0.0
65,53.0,512.0,510.0,2.0,0.0
66,68.0,0.0,1020.0,0.0,0.0
67,55.0,0.0,510.0,2.0,0.0
68,56.0,512.0,510.0,2.0,0.0
69,49.0,0.0,1020.0,3.0,0.0
70,61.0,0.0,1020.0,1.0,0.0
71,58.0,512.0,510.0,2.0,0.0
72,60.0,0.0,1020.0,2.0,0.0
73,45.0,0.0,1020.0,3.0,0.0
74,60.0,0.0,1020.0,1.0,0.0
75,65.0,0.0,15.0,0.0,0.0
76,63.0,1024.0,510.0,0.0,0.0
77,58.0,0.0,1020.0,1.0,0.0
78,46.0,0.0,1020.0,3.0,0.0
79,53.0,2048.0,1020.0,2.0,0.0
80,61.0,0.0,1020.0,0.0,0.0
81,41.0,0.0,2040.0,3.0,0.0
82,53.0,0.0,2040.0,2.0,0.0
83,60.0,0.0,2040.0,0.0,0.0
84,57.0,1024.0,2040.0,1.0,0.0
85,61.0,0.0,1020.0,0.0,0.0
86,46.0,1024.0,1020.0,3.0,0.0
87,53.0,0.0,1020.0,2.0,0.0
88,58.0,0.0,1020.0,1.0,0.0
89,60.0,1024.0,1020.0,1.0,0.0
90,56.0,0.0,1020.0,2.0,0.0
91,44.0,0.0,1020.0,3.0,0.0
92,63.0,0.0,1020.0,0.0,0.0
93,65.0,0.0,1020.0,0.0,0.0
94,37.0,0.0,1020.0,3.0,0.0
95,59.0,1024.0,1020.0,1.0,0.0
96,56.0,0.0,15.0,2.0,0.0
97,38.0,0.0,1020.0,3.0,0.0
98,65.0,512.0,1020.0,0.0,0.0
99,58.0,0.0,15.0,1.0,0.0
100,39.0,0.0,1020.0,3.0,0.0
101,54.0,512.0,510.0,2.0,0.0
102,63.0,1024.0,1020.0,0.0,0.0
103,56.0,0.0,510.0,2.0,0.0
104,61.0,0.0,1020.0,0.0,0.0
105,40.0,0.0,1020.0,3.0,0.0
106,58.0,2048.0,1020.0,2.0,0.0
107,60.0,0.0,2040.0,0.0,0.0
108,41.0,1024.0,2040.0,3.0,0.0
109,57.0,0.0,2040.0,1.0,0.0
110,58.0,512.0,1020.0,1.0,0.0
111,53.0,0.0,15.0,2.0,0.0
112,65.0,0.0,1020.0,0.0,0.0
113,49.0,0.0,1020.0,3.0,0.0
114,64.0,0.0,1020.0,0.0,0.0
115,55.0,0.0,1020.0,2.0,0.0
116,48.0,512.0,510.0,3.0,0.0
117,46.0,1024.0,510.0,3.0,0.0
118,65.0,0.0,1020.0,0.0,0.0
119,60.0,0.0,15.0,1.0,0.0
120,56.0,0.0,1020.0,2.0,0.0
121,44.0,0.0,1020.0,3.0,0.0
122,67.0,1024.0,1020.0,0.0,0.0
123,58.0,0.0,1020.0,2.0,0.0
124,43.0,0.0,1020.0,3.0,0.0
125,62.0,512.0,510.0,1.0,0.0
126,64.0,0.0,510.0,1.0,0.0
127,60.0,0.0,1020.0,2.0,0.0
128,68.0,0.0,1020.0,0.0,0.0
129,65.0,0.0,1020.0,1.0,0.0
130,41.0,512.0,1020.0,3.0,0.0
131,58.0,0.0,1020.0,2.0,0.0
132,67.0,0.0,1020.0,0.0,0.0
133,63.0,0.0,1020.0,1.0,0.0
134,43.0,512.0,510.0,3.0,0.0
135,44.0,2048.0,510.0,3.0,0.0
136,62.0,0.0,2040.0,1.0,0.0
137,65.0,1024.0,2040.0,0.0,0.0
138,46.0,0.0,2040.0,3.0,0.0
139,58.0,0.0,2040.0,2.0,0.0
140,63.0,0.0,1020.0,1.0,0.0
141,47.0,1024.0,1020.0,3.0,0.0
142,56.0,0.0,1020.0,2.0,0.0
143,68.0,0.0,1020.0,0.0,0.0
144,46.0,0.0,1020.0,3.0,0.0
145,54.0,1024.0,1020.0,2.0,0.0
146,70.0,0.0,1020.0,0.0,0.0
147,63.0,0.0,1020.0,1.0,0.0
148,45.0,0.0,1020.0,3.0,0.0
149,72.0,0.0,1020.0,0.0,0.0
150,63.0,0.0,1020.0,1.0,0.0
151,53.0,512.0,15.0,2.0,0.0
152,46.0,512.0,510.0,3.0,0.0
153,72.0,512.0,1020.0,0.0,0.0
154,48.0,0.0,510.0,3.0,0.0
155,53.0,0.0,15.0,2.0,0.0
156,70.0,0.0,1020.0,0.0,0.0
157,49.0,512.0,510.0,3.0,0.0
158,61.0,0.0,15.0,1.0,0.0
159,55.0,0.0,510.0,2.0,0.0
160,51.0,512.0,510.0,3.0,0.0
161,60.0,512.0,510.0,1.0,0.0
162,68.0,0.0,1020.0,0.0,0.0
163,53.0,2048.0,1020.0,3.0,0.0
164,56.0,0.0,1020.0,2.0,0.0
165,62.0,0.0,510.0,1.0,0.0
166,51.0,0.0,2040.0,3.0,0.0
167,67.0,0.0,2040.0,0.0,0.0
168,63.0,0.0,2040.0,1.0,0.0
169,50.0,0.0,1020.0,3.0,0.0
170,58.0,512.0,15.0,2.0,0.0
171,65.0,0.0,1020.0,0.0,0.0
172,65.0,0.0,1020.0,1.0,0.0
173,56.0,1024.0,510.0,2.0,0.0
174,52.0,0.0,1020.0,3.0,0.0
175,67.0,0.0,1020.0,0.0,0.0
176,55.0,512.0,1020.0,2.0,0.0
177,68.0,0.0,1020.0,0.0,0.0
178,53.0,512.0,510.0,2.0,0.0
179,60.0,0.0,15.0,1.0,0.0
180,53.0,0.0,1020.0,3.0,0.0
181,55.0,512.0,510.0,2.0,0.0
182,60.0,0.0,15.0,1.0,0.0
183,56.0,0.0,510.0,2.0,0.0
184,41.0,512.0,510.0,3.0,0.0
185,58.0,0.0,510.0,2.0,0.0
186,43.0,0.0,510.0,3.0,0.0
187,60.0,0.0,1020.0,2.0,0.0
188,45.0,0.0,1020.0,3.0,0.0
189,65.0,512.0,15.0,0.0,0.0
190,53.0,1024.0,1020.0,1.0,0.0
191,63.0,0.0,510.0,0.0,0.0
192,46.0,0.0,1020.0,3.0,0.0
193,61.0,0.0,1020.0,0.0,0.0
194,58.0,0.0,1020.0,1.0,0.0
195,57.0,0.0,2040.0,1.0,0.0
196,41.0,1024.0,2040.0,3.0,0.0
197,60.0,0.0,2040.0,0.0,0.0
198,53.0,2048.0,15.0,2.0,0.0
199,58.0,0.0,1020.0,1.0,0.0
200,53.0,0.0,15.0,2.0,0.0
201,46.0,0.0,1020.0,3.0,0.0
202,61.0,0.0,1020.0,0.0,0.0
203,60.0,0.0,1020.0,1.0,0.0
204,63.0,0.0,1020.0,0.0,0.0
205,44.0,512.0,1020.0,3.0,0.0
206,37.0,512.0,510.0,3.0,0.0
207,56.0,0.0,15.0,2.0,0.0
208,61.0,0.0,1020.0,1.0,0.0
209,39.0,0.0,510.0,3.0,0.0
210,56.0,0.0,15.0,2.0,0.0
211,41.0,512.0,510.0,3.0,0.0
212,65.0,512.0,15.0,0.0,0.0
213,61.0,0.0,1020.0,1.0,0.0
214,43.0,0.0,510.0,3.0,0.0
215,44.0,0.0,1020.0,3.0,0.0
216,56.0,0.0,15.0,2.0,0.0
217,63.0,1024.0,1020.0,0.0,0.0
218,60.0,0.0,1020.0,1.0,0.0
219,55.0,0.0,510.0,2.0,0.0
220,46.0,0.0,1020.0,3.0,0.0
221,61.0,0.0,1020.0,0.0,0.0
222,58.0,0.0,2040.0,1.0,0.0
223,53.0,1024.0,1020.0,2.0,0.0
224,52.0,1024.0,1020.0,2.0,0.0
225,60.0,0.0,6150.0,0.0,0.0
226,48.0,0.0,6150.0,3.0,0.0
227,56.0,0.0,1020.0,1.0,0.0
228,53.0,4096.0,1020.0,2.0,0.0
229,55.0,0.0,4110.0,1.0,0.0
230,52.0,1.0,4110.0,2.0,0.0
