,note,step,duration,channel,velocity
0,59.0,0.0,1020.0,4.0,0.0
1,75.0,0.0,1530.0,5.0,0.0
2,71.0,0.0,1530.0,6.0,0.0
3,47.0,512.0,15.0,7.0,0.0
4,47.0,512.0,15.0,7.0,0.0
5,73.0,0.0,510.0,6.0,0.0
6,76.0,0.0,510.0,5.0,0.0
7,71.0,0.0,510.0,6.0,0.0
8,78.0,0.0,2040.0,0.0,0.0
9,47.0,0.0,1020.0,4.0,0.0
10,75.0,0.0,510.0,5.0,0.0
11,47.0,512.0,15.0,7.0,0.0
12,73.0,0.0,510.0,5.0,0.0
13,66.0,512.0,510.0,6.0,0.0
14,47.0,0.0,510.0,7.0,0.0
15,75.0,0.0,510.0,5.0,0.0
16,47.0,0.0,510.0,7.0,0.0
17,71.0,512.0,510.0,6.0,0.0
18,76.0,0.0,510.0,5.0,0.0
19,47.0,0.0,510.0,7.0,0.0
20,73.0,0.0,510.0,6.0,0.0
21,59.0,0.0,15.0,3.0,0.0
22,59.0,512.0,1020.0,4.0,0.0
23,75.0,0.0,510.0,6.0,0.0
24,71.0,512.0,15.0,1.0,0.0
25,47.0,0.0,510.0,7.0,0.0
26,63.0,0.0,15.0,2.0,0.0
27,78.0,0.0,2040.0,0.0,0.0
28,78.0,512.0,510.0,5.0,0.0
29,76.0,0.0,510.0,5.0,0.0
30,73.0,0.0,510.0,6.0,0.0
31,47.0,0.0,15.0,7.0,0.0
32,71.0,0.0,2040.0,6.0,0.0
33,66.0,0.0,1020.0,2.0,0.0
34,75.0,0.0,2040.0,5.0,0.0
35,47.0,0.0,510.0,7.0,0.0
36,75.0,0.0,2040.0,1.0,0.0
37,59.0,512.0,15.0,3.0,0.0
38,47.0,0.0,1020.0,4.0,0.0
39,47.0,512.0,510.0,7.0,0.0
40,78.0,0.0,2040.0,0.0,0.0
41,78.0,0.0,1020.0,5.0,0.0
42,75.0,0.0,1020.0,6.0,0.0
43,47.0,512.0,15.0,7.0,0.0
44,71.0,512.0,15.0,2.0,0.0
45,64.0,0.0,2040.0,3.0,0.0
46,76.0,512.0,1020.0,6.0,0.0
47,76.0,0.0,2040.0,1.0,0.0
48,80.0,0.0,510.0,5.0,0.0
49,47.0,0.0,15.0,7.0,0.0
50,52.0,0.0,1020.0,4.0,0.0
51,78.0,0.0,510.0,5.0,0.0
52,47.0,512.0,15.0,7.0,0.0
53,76.0,0.0,2040.0,5.0,0.0
54,47.0,0.0,15.0,7.0,0.0
55,71.0,512.0,2040.0,6.0,0.0
56,56.0,0.0,1020.0,4.0,0.0
57,47.0,0.0,15.0,7.0,0.0
58,52.0,0.0,2040.0,3.0,0.0
59,76.0,512.0,2040.0,1.0,0.0
60,80.0,512.0,15.0,0.0,0.0
61,71.0,0.0,2040.0,2.0,0.0
62,47.0,512.0,15.0,7.0,0.0
63,80.0,0.0,1020.0,5.0,0.0
64,76.0,0.0,1020.0,6.0,0.0
65,47.0,512.0,15.0,7.0,0.0
66,78.0,512.0,4110.0,0.0,0.0
67,47.0,0.0,510.0,7.0,0.0
68,75.0,0.0,510.0,6.0,0.0
69,59.0,0.0,1020.0,4.0,0.0
70,71.0,0.0,4110.0,2.0,0.0
71,78.0,512.0,510.0,5.0,0.0
72,59.0,0.0,4110.0,3.0,0.0
73,75.0,0.0,4110.0,1.0,0.0
74,76.0,0.0,510.0,5.0,0.0
75,73.0,0.0,510.0,6.0,0.0
76,47.0,512.0,15.0,7.0,0.0
77,47.0,1024.0,510.0,7.0,0.0
78,63.0,0.0,1020.0,4.0,0.0
79,47.0,0.0,1020.0,7.0,0.0
80,75.0,0.0,15.0,5.0,0.0
81,71.0,512.0,15.0,6.0,0.0
82,76.0,0.0,510.0,5.0,0.0
83,73.0,0.0,510.0,6.0,0.0
84,75.0,512.0,510.0,6.0,0.0
85,78.0,0.0,510.0,5.0,0.0
86,60.0,0.0,1020.0,4.0,0.0
87,80.0,2048.0,510.0,5.0,0.0
88,76.0,0.0,510.0,6.0,0.0
89,78.0,0.0,2040.0,6.0,0.0
90,81.0,512.0,2040.0,5.0,0.0
91,56.0,0.0,1020.0,4.0,0.0
92,76.0,0.0,510.0,6.0,0.0
93,80.0,512.0,510.0,5.0,0.0
94,78.0,0.0,510.0,5.0,0.0
95,75.0,1024.0,510.0,6.0,0.0
96,61.0,512.0,1020.0,4.0,0.0
97,76.0,0.0,1020.0,5.0,0.0
98,73.0,0.0,15.0,6.0,0.0
99,76.0,0.0,510.0,5.0,0.0
100,75.0,1024.0,510.0,5.0,0.0
101,72.0,0.0,510.0,6.0,0.0
102,76.0,512.0,1020.0,5.0,0.0
103,58.0,0.0,1020.0,4.0,0.0
104,73.0,0.0,1020.0,6.0,0.0
105,75.0,512.0,510.0,6.0,0.0
106,78.0,0.0,510.0,5.0,0.0
107,76.0,0.0,510.0,5.0,0.0
108,73.0,512.0,510.0,6.0,0.0
109,59.0,0.0,1020.0,4.0,0.0
110,75.0,0.0,510.0,5.0,0.0
111,71.0,512.0,510.0,6.0,0.0
112,73.0,512.0,510.0,6.0,0.0
113,54.0,0.0,510.0,7.0,0.0
114,76.0,0.0,510.0,5.0,0.0
115,78.0,0.0,2040.0,5.0,0.0
116,75.0,0.0,2040.0,6.0,0.0
117,54.0,512.0,15.0,7.0,0.0
118,71.0,0.0,2040.0,1.0,0.0
119,47.0,0.0,1020.0,4.0,0.0
120,59.0,0.0,2040.0,3.0,0.0
121,75.0,0.0,2040.0,0.0,0.0
122,66.0,0.0,2040.0,2.0,0.0
123,54.0,512.0,15.0,7.0,0.0
124,73.0,0.0,510.0,6.0,0.0
125,76.0,0.0,510.0,5.0,0.0
126,75.0,512.0,510.0,5.0,0.0
127,54.0,512.0,15.0,7.0,0.0
128,71.0,0.0,510.0,6.0,0.0
129,73.0,0.0,1020.0,5.0,0.0
130,46.0,512.0,1020.0,4.0,0.0
131,54.0,0.0,15.0,7.0,0.0
132,66.0,0.0,2040.0,2.0,0.0
133,58.0,0.0,2040.0,3.0,0.0
134,66.0,0.0,1020.0,6.0,0.0
135,76.0,0.0,2040.0,0.0,0.0
136,73.0,0.0,2040.0,1.0,0.0
137,73.0,0.0,510.0,6.0,0.0
138,54.0,0.0,15.0,7.0,0.0
139,76.0,0.0,510.0,5.0,0.0
140,73.0,512.0,510.0,5.0,0.0
141,66.0,0.0,510.0,6.0,0.0
142,54.0,512.0,15.0,7.0,0.0
143,59.0,0.0,2040.0,3.0,0.0
144,71.0,0.0,1020.0,6.0,0.0
145,71.0,0.0,2040.0,1.0,0.0
146,47.0,0.0,1020.0,4.0,0.0
147,75.0,0.0,2040.0,0.0,0.0
148,75.0,512.0,1020.0,5.0,0.0
149,54.0,512.0,15.0,7.0,0.0
150,78.0,512.0,510.0,5.0,0.0
151,75.0,0.0,510.0,6.0,0.0
152,54.0,0.0,15.0,7.0,0.0
153,71.0,0.0,510.0,6.0,0.0
154,75.0,0.0,510.0,5.0,0.0
155,76.0,0.0,1020.0,5.0,0.0
156,54.0,0.0,1020.0,4.0,0.0
157,73.0,0.0,1020.0,6.0,0.0
158,54.0,512.0,1020.0,3.0,0.0
159,73.0,0.0,2040.0,0.0,0.0
160,70.0,0.0,2040.0,1.0,0.0
161,66.0,512.0,15.0,2.0,0.0
162,54.0,512.0,510.0,7.0,0.0
163,54.0,0.0,510.0,7.0,0.0
164,73.0,512.0,1020.0,5.0,0.0
165,66.0,0.0,1020.0,6.0,0.0
166,52.0,0.0,1020.0,3.0,0.0
167,54.0,512.0,15.0,7.0,0.0
168,71.0,0.0,2040.0,1.0,0.0
169,54.0,0.0,15.0,7.0,0.0
170,75.0,0.0,2040.0,0.0,0.0
171,59.0,0.0,1020.0,4.0,0.0
172,66.0,0.0,15.0,2.0,0.0
173,51.0,512.0,1020.0,3.0,0.0
174,54.0,0.0,510.0,7.0,0.0
175,71.0,0.0,1020.0,6.0,0.0
176,54.0,0.0,510.0,7.0,0.0
177,47.0,0.0,1020.0,3.0,0.0
178,75.0,512.0,510.0,5.0,0.0
179,54.0,0.0,510.0,7.0,0.0
180,76.0,512.0,510.0,5.0,0.0
181,73.0,0.0,4110.0,0.0,0.0
182,66.0,0.0,3060.0,2.0,0.0
183,73.0,512.0,1020.0,6.0,0.0
184,54.0,0.0,4110.0,3.0,0.0
185,78.0,0.0,510.0,5.0,0.0
186,71.0,0.0,2040.0,1.0,0.0
187,54.0,0.0,1020.0,4.0,0.0
188,76.0,0.0,510.0,5.0,0.0
189,54.0,512.0,15.0,7.0,0.0
190,75.0,512.0,510.0,6.0,0.0
191,78.0,0.0,510.0,5.0,0.0
192,54.0,0.0,510.0,7.0,0.0
193,54.0,512.0,510.0,7.0,0.0
194,80.0,0.0,510.0,5.0,0.0
195,76.0,0.0,510.0,6.0,0.0
196,73.0,0.0,2040.0,6.0,0.0
197,70.0,1024.0,2040.0,1.0,0.0
198,78.0,512.0,510.0,5.0,0.0
199,42.0,0.0,1020.0,4.0,0.0
200,54.0,0.0,510.0,7.0,0.0
201,80.0,512.0,510.0,5.0,0.0
202,61.0,0.0,1020.0,2.0,0.0
203,78.0,512.0,510.0,5.0,0.0
204,54.0,0.0,15.0,7.0,0.0
205,54.0,0.0,15.0,7.0,0.0
206,76.0,0.0,510.0,5.0,0.0
207,66.0,1024.0,4110.0,1.0,0.0
208,71.0,0.0,1020.0,6.0,0.0
209,71.0,0.0,4110.0,0.0,0.0
210,47.0,0.0,1020.0,7.0,0.0
211,63.0,0.0,4110.0,2.0,0.0
212,47.0,0.0,4110.0,3.0,0.0
213,75.0,512.0,1020.0,5.0,0.0
214,47.0,0.0,1020.0,4.0,0.0
215,75.0,0.0,510.0,6.0,0.0
216,78.0,512.0,510.0,5.0,0.0
217,76.0,1024.0,510.0,5.0,0.0
218,73.0,0.0,510.0,6.0,0.0
219,51.0,1024.0,1020.0,4.0,0.0
220,75.0,0.0,1020.0,5.0,0.0
221,83.0,0.0,1020.0,5.0,0.0
222,73.0,0.0,1020.0,5.0,0.0
223,52.0,512.0,1020.0,4.0,0.0
224,73.0,512.0,510.0,5.0,0.0
225,71.0,1024.0,510.0,5.0,0.0
226,73.0,512.0,1020.0,5.0,0.0
227,49.0,0.0,1020.0,4.0,0.0
228,76.0,512.0,510.0,5.0,0.0
229,73.0,512.0,510.0,5.0,0.0
230,54.0,512.0,1020.0,4.0,0.0
231,75.0,512.0,510.0,5.0,0.0
232,78.0,0.0,510.0,5.0,0.0
233,54.0,0.0,15.0,7.0,0.0
234,76.0,512.0,510.0,5.0,0.0
235,54.0,0.0,15.0,7.0,0.0
236,73.0,512.0,510.0,5.0,0.0
237,54.0,0.0,15.0,7.0,0.0
238,51.0,0.0,1020.0,4.0,0.0
239,75.0,0.0,510.0,5.0,0.0
240,54.0,512.0,15.0,7.0,0.0
241,78.0,0.0,510.0,5.0,0.0
242,54.0,512.0,15.0,7.0,0.0
243,76.0,0.0,510.0,5.0,0.0
244,73.0,1024.0,510.0,5.0,0.0
245,54.0,512.0,15.0,7.0,0.0
246,71.0,0.0,15.0,6.0,0.0
247,47.0,0.0,1020.0,7.0,0.0
248,56.0,0.0,1020.0,4.0,0.0
249,47.0,0.0,1020.0,7.0,0.0
250,75.0,512.0,15.0,5.0,0.0
251,71.0,0.0,510.0,6.0,0.0
252,52.0,512.0,1020.0,4.0,0.0
253,73.0,0.0,270.0,6.0,0.0
254,76.0,256.0,270.0,5.0,0.0
255,78.0,0.0,270.0,5.0,0.0
256,75.0,0.0,270.0,6.0,0.0
257,54.0,0.0,1020.0,7.0,0.0
258,76.0,512.0,510.0,5.0,0.0
259,54.0,512.0,1020.0,4.0,0.0
260,73.0,0.0,510.0,6.0,0.0
261,75.0,0.0,510.0,5.0,0.0
262,71.0,0.0,510.0,6.0,0.0
263,73.0,512.0,510.0,5.0,0.0
264,42.0,0.0,1020.0,4.0,0.0
265,54.0,0.0,1020.0,7.0,0.0
266,66.0,0.0,510.0,6.0,0.0
267,63.0,512.0,510.0,6.0,0.0
268,71.0,0.0,510.0,5.0,0.0
269,71.0,512.0,510.0,5.0,0.0
270,47.0,0.0,1020.0,4.0,0.0
271,63.0,0.0,510.0,6.0,0.0
272,47.0,0.0,15.0,7.0,0.0
273,59.0,0.0,510.0,6.0,0.0
274,66.0,512.0,510.0,5.0,0.0
275,47.0,0.0,15.0,7.0,0.0
276,63.0,0.0,510.0,6.0,0.0
277,71.0,0.0,510.0,5.0,0.0
278,66.0,0.0,510.0,6.0,0.0
279,73.0,0.0,510.0,5.0,0.0
280,47.0,512.0,15.0,7.0,0.0
281,75.0,512.0,510.0,5.0,0.0
282,47.0,512.0,15.0,7.0,0.0
283,71.0,0.0,510.0,6.0,0.0
284,63.0,0.0,2040.0,2.0,0.0
285,59.0,0.0,1020.0,4.0,0.0
286,59.0,0.0,2040.0,3.0,0.0
287,71.0,0.0,2040.0,1.0,0.0
288,73.0,0.0,510.0,5.0,0.0
289,47.0,0.0,15.0,7.0,0.0
290,66.0,512.0,510.0,6.0,0.0
291,75.0,512.0,510.0,5.0,0.0
292,71.0,0.0,510.0,6.0,0.0
293,47.0,0.0,15.0,7.0,0.0
294,73.0,0.0,510.0,6.0,0.0
295,76.0,0.0,510.0,5.0,0.0
296,47.0,0.0,15.0,7.0,0.0
297,78.0,512.0,510.0,5.0,0.0
298,59.0,0.0,2040.0,3.0,0.0
299,78.0,512.0,15.0,0.0,0.0
300,75.0,0.0,510.0,6.0,0.0
301,71.0,0.0,2040.0,1.0,0.0
302,59.0,0.0,1020.0,4.0,0.0
303,63.0,0.0,1020.0,2.0,0.0
304,73.0,0.0,510.0,6.0,0.0
305,76.0,512.0,510.0,5.0,0.0
306,47.0,0.0,15.0,7.0,0.0
307,71.0,0.0,2040.0,6.0,0.0
308,66.0,0.0,1020.0,2.0,0.0
309,75.0,0.0,2040.0,5.0,0.0
310,47.0,512.0,15.0,7.0,0.0
311,47.0,0.0,1020.0,4.0,0.0
312,75.0,0.0,2040.0,1.0,0.0
313,59.0,0.0,2040.0,3.0,0.0
314,47.0,512.0,15.0,7.0,0.0
315,78.0,512.0,2040.0,0.0,0.0
316,47.0,512.0,15.0,7.0,0.0
317,78.0,0.0,1020.0,5.0,0.0
318,75.0,0.0,1020.0,6.0,0.0
319,47.0,512.0,15.0,7.0,0.0
320,47.0,0.0,510.0,7.0,0.0
321,71.0,0.0,15.0,2.0,0.0
322,64.0,0.0,2040.0,3.0,0.0
323,80.0,0.0,510.0,5.0,0.0
324,52.0,512.0,1020.0,4.0,0.0
325,76.0,0.0,1020.0,6.0,0.0
326,78.0,0.0,510.0,5.0,0.0
327,47.0,512.0,15.0,7.0,0.0
328,47.0,512.0,510.0,7.0,0.0
329,71.0,0.0,2040.0,6.0,0.0
330,76.0,0.0,2040.0,5.0,0.0
331,47.0,512.0,510.0,7.0,0.0
332,76.0,0.0,15.0,1.0,0.0
333,71.0,0.0,15.0,2.0,0.0
334,56.0,512.0,1020.0,4.0,0.0
335,52.0,0.0,2040.0,3.0,0.0
336,80.0,0.0,15.0,0.0,0.0
337,47.0,512.0,510.0,7.0,0.0
338,47.0,0.0,510.0,7.0,0.0
339,76.0,0.0,1020.0,6.0,0.0
340,80.0,0.0,1020.0,5.0,0.0
341,47.0,512.0,15.0,7.0,0.0
342,78.0,512.0,510.0,5.0,0.0
343,59.0,0.0,4110.0,3.0,0.0
344,71.0,0.0,15.0,2.0,0.0
345,75.0,512.0,4110.0,1.0,0.0
346,78.0,0.0,4110.0,0.0,0.0
347,59.0,0.0,1020.0,4.0,0.0
348,75.0,0.0,510.0,6.0,0.0
349,47.0,512.0,15.0,7.0,0.0
350,76.0,512.0,510.0,5.0,0.0
351,47.0,0.0,15.0,7.0,0.0
352,73.0,0.0,510.0,6.0,0.0
353,71.0,0.0,2040.0,6.0,0.0
354,47.0,512.0,510.0,7.0,0.0
355,47.0,1024.0,510.0,7.0,0.0
356,63.0,0.0,1020.0,4.0,0.0
357,47.0,0.0,1020.0,7.0,0.0
358,75.0,512.0,15.0,5.0,0.0
359,71.0,0.0,510.0,6.0,0.0
360,73.0,0.0,510.0,6.0,0.0
361,76.0,0.0,510.0,5.0,0.0
362,78.0,512.0,510.0,5.0,0.0
363,75.0,0.0,510.0,6.0,0.0
364,60.0,2048.0,1020.0,4.0,0.0
365,80.0,0.0,510.0,5.0,0.0
366,76.0,0.0,510.0,6.0,0.0
367,78.0,512.0,2040.0,6.0,0.0
368,81.0,0.0,2040.0,5.0,0.0
369,56.0,0.0,1020.0,4.0,0.0
370,76.0,512.0,510.0,6.0,0.0
371,80.0,0.0,510.0,5.0,0.0
372,75.0,0.0,510.0,6.0,0.0
373,78.0,1024.0,510.0,5.0,0.0
374,61.0,0.0,1020.0,4.0,0.0
375,73.0,512.0,1020.0,6.0,0.0
376,76.0,0.0,15.0,5.0,0.0
377,73.0,0.0,510.0,6.0,0.0
378,75.0,0.0,510.0,5.0,0.0
379,72.0,1024.0,510.0,6.0,0.0
380,73.0,0.0,1020.0,6.0,0.0
381,76.0,0.0,1020.0,5.0,0.0
382,58.0,512.0,1020.0,4.0,0.0
383,75.0,0.0,510.0,6.0,0.0
384,78.0,512.0,510.0,5.0,0.0
385,73.0,512.0,510.0,6.0,0.0
386,76.0,0.0,510.0,5.0,0.0
387,59.0,512.0,1020.0,4.0,0.0
388,71.0,512.0,510.0,6.0,0.0
389,75.0,0.0,510.0,5.0,0.0
390,76.0,0.0,510.0,5.0,0.0
391,73.0,0.0,510.0,6.0,0.0
392,78.0,0.0,2040.0,5.0,0.0
393,75.0,512.0,2040.0,6.0,0.0
394,54.0,0.0,15.0,7.0,0.0
395,54.0,512.0,15.0,7.0,0.0
396,71.0,0.0,2040.0,1.0,0.0
397,47.0,0.0,1020.0,4.0,0.0
398,59.0,0.0,2040.0,3.0,0.0
399,54.0,512.0,510.0,7.0,0.0
400,75.0,0.0,2040.0,0.0,0.0
401,54.0,0.0,510.0,7.0,0.0
402,76.0,0.0,510.0,5.0,0.0
403,73.0,0.0,510.0,6.0,0.0
404,71.0,0.0,510.0,6.0,0.0
405,54.0,512.0,15.0,7.0,0.0
406,75.0,0.0,510.0,5.0,0.0
407,66.0,0.0,15.0,2.0,0.0
408,46.0,0.0,1020.0,4.0,0.0
409,73.0,0.0,2040.0,1.0,0.0
410,73.0,512.0,1020.0,5.0,0.0
411,66.0,0.0,1020.0,6.0,0.0
412,58.0,512.0,2040.0,3.0,0.0
413,54.0,512.0,15.0,7.0,0.0
414,76.0,0.0,2040.0,0.0,0.0
415,54.0,0.0,510.0,7.0,0.0
416,73.0,0.0,510.0,6.0,0.0
417,76.0,0.0,510.0,5.0,0.0
418,66.0,0.0,510.0,6.0,0.0
419,73.0,0.0,510.0,5.0,0.0
420,54.0,512.0,15.0,7.0,0.0
421,54.0,0.0,15.0,7.0,0.0
422,66.0,0.0,2040.0,2.0,0.0
423,75.0,0.0,2040.0,0.0,0.0
424,59.0,0.0,2040.0,3.0,0.0
425,71.0,0.0,1020.0,6.0,0.0
426,47.0,512.0,1020.0,4.0,0.0
427,75.0,0.0,1020.0,5.0,0.0
428,71.0,0.0,2040.0,1.0,0.0
429,54.0,0.0,510.0,7.0,0.0
430,75.0,512.0,510.0,6.0,0.0
431,78.0,0.0,510.0,5.0,0.0
432,75.0,512.0,510.0,5.0,0.0
433,54.0,0.0,15.0,7.0,0.0
434,71.0,0.0,510.0,6.0,0.0
435,54.0,0.0,1020.0,3.0,0.0
436,73.0,0.0,2040.0,0.0,0.0
437,73.0,0.0,1020.0,6.0,0.0
438,54.0,512.0,1020.0,4.0,0.0
439,70.0,512.0,2040.0,1.0,0.0
440,76.0,0.0,1020.0,5.0,0.0
441,54.0,512.0,15.0,7.0,0.0
442,73.0,0.0,1020.0,5.0,0.0
443,52.0,0.0,1020.0,3.0,0.0
444,66.0,0.0,1020.0,6.0,0.0
445,54.0,512.0,15.0,7.0,0.0
446,75.0,0.0,2040.0,0.0,0.0
447,59.0,512.0,1020.0,4.0,0.0
448,66.0,0.0,15.0,2.0,0.0
449,71.0,0.0,2040.0,1.0,0.0
450,54.0,512.0,510.0,7.0,0.0
451,51.0,0.0,1020.0,3.0,0.0
452,54.0,0.0,510.0,7.0,0.0
453,71.0,0.0,1020.0,6.0,0.0
454,54.0,512.0,510.0,7.0,0.0
455,75.0,0.0,510.0,5.0,0.0
456,47.0,512.0,1020.0,3.0,0.0
457,76.0,0.0,510.0,5.0,0.0
458,71.0,0.0,2040.0,1.0,0.0
459,73.0,0.0,4110.0,0.0,0.0
460,54.0,512.0,1020.0,4.0,0.0
461,73.0,0.0,1020.0,6.0,0.0
462,78.0,512.0,510.0,5.0,0.0
463,66.0,0.0,15.0,2.0,0.0
464,54.0,0.0,15.0,7.0,0.0
465,54.0,0.0,4110.0,3.0,0.0
466,76.0,0.0,510.0,5.0,0.0
467,54.0,0.0,510.0,7.0,0.0
468,75.0,512.0,510.0,6.0,0.0
469,54.0,0.0,510.0,7.0,0.0
470,78.0,0.0,510.0,5.0,0.0
471,80.0,0.0,510.0,5.0,0.0
472,76.0,512.0,510.0,6.0,0.0
473,54.0,0.0,510.0,7.0,0.0
474,42.0,0.0,1020.0,4.0,0.0
475,70.0,0.0,2040.0,1.0,0.0
476,78.0,0.0,510.0,5.0,0.0
477,73.0,1024.0,2040.0,6.0,0.0
478,54.0,512.0,15.0,7.0,0.0
479,80.0,0.0,510.0,5.0,0.0
480,54.0,0.0,15.0,7.0,0.0
481,78.0,0.0,510.0,5.0,0.0
482,61.0,0.0,1020.0,2.0,0.0
483,76.0,0.0,510.0,5.0,0.0
484,54.0,512.0,15.0,7.0,0.0
485,47.0,0.0,4110.0,3.0,0.0
486,75.0,0.0,1020.0,5.0,0.0
487,63.0,0.0,4110.0,2.0,0.0
488,66.0,0.0,4110.0,1.0,0.0
489,71.0,0.0,4110.0,0.0,0.0
490,47.0,0.0,1020.0,7.0,0.0
491,47.0,512.0,1020.0,4.0,0.0
492,71.0,0.0,1020.0,6.0,0.0
493,78.0,0.0,510.0,5.0,0.0
494,75.0,512.0,510.0,6.0,0.0
495,73.0,0.0,510.0,6.0,0.0
496,76.0,1024.0,510.0,5.0,0.0
497,71.0,1024.0,10230.0,6.0,0.0
498,51.0,0.0,1020.0,4.0,0.0
499,75.0,1024.0,1020.0,5.0,0.0
500,83.0,1024.0,1020.0,5.0,0.0
501,52.0,512.0,1020.0,4.0,0.0
502,73.0,0.0,1020.0,5.0,0.0
503,73.0,512.0,510.0,5.0,0.0
504,71.0,1024.0,510.0,5.0,0.0
505,49.0,0.0,1020.0,4.0,0.0
506,73.0,512.0,1020.0,5.0,0.0
507,76.0,512.0,510.0,5.0,0.0
508,73.0,512.0,510.0,5.0,0.0
509,54.0,512.0,1020.0,4.0,0.0
510,75.0,512.0,510.0,5.0,0.0
511,78.0,0.0,510.0,5.0,0.0
512,54.0,0.0,15.0,7.0,0.0
513,76.0,0.0,510.0,5.0,0.0
514,54.0,0.0,510.0,7.0,0.0
515,73.0,512.0,510.0,5.0,0.0
516,51.0,512.0,1020.0,4.0,0.0
517,75.0,512.0,510.0,5.0,0.0
518,54.0,0.0,15.0,7.0,0.0
519,78.0,0.0,510.0,5.0,0.0
520,54.0,0.0,15.0,7.0,0.0
521,76.0,0.0,510.0,5.0,0.0
522,73.0,0.0,510.0,5.0,0.0
523,54.0,0.0,510.0,7.0,0.0
524,47.0,0.0,1020.0,7.0,0.0
525,56.0,0.0,1020.0,4.0,0.0
526,71.0,0.0,1020.0,6.0,0.0
527,71.0,256.0,510.0,6.0,0.0
528,52.0,0.0,1020.0,4.0,0.0
529,47.0,0.0,1020.0,7.0,0.0
530,75.0,512.0,15.0,5.0,0.0
531,76.0,256.0,270.0,5.0,0.0
532,73.0,0.0,270.0,6.0,0.0
533,78.0,0.0,270.0,5.0,0.0
534,75.0,512.0,270.0,6.0,0.0
535,54.0,512.0,1020.0,4.0,0.0
536,76.0,512.0,510.0,5.0,0.0
537,54.0,0.0,1020.0,7.0,0.0
538,73.0,0.0,510.0,6.0,0.0
539,75.0,0.0,510.0,5.0,0.0
540,71.0,0.0,510.0,6.0,0.0
541,66.0,0.0,510.0,6.0,0.0
542,54.0,512.0,1020.0,7.0,0.0
543,42.0,0.0,1020.0,4.0,0.0
544,73.0,512.0,510.0,5.0,0.0
545,71.0,0.0,15.0,5.0,0.0
546,47.0,512.0,1020.0,7.0,0.0
547,63.0,0.0,15.0,6.0,0.0
548,47.0,0.0,1020.0,4.0,0.0
549,59.0,0.0,510.0,6.0,0.0
550,66.0,0.0,510.0,5.0,0.0
551,63.0,512.0,510.0,6.0,0.0
552,71.0,0.0,510.0,5.0,0.0
553,66.0,512.0,510.0,6.0,0.0
554,73.0,0.0,510.0,5.0,0.0
555,75.0,512.0,510.0,5.0,0.0
556,71.0,0.0,510.0,6.0,0.0
557,44.0,0.0,1020.0,4.0,0.0
558,77.0,0.0,510.0,5.0,0.0
559,73.0,512.0,510.0,6.0,0.0
560,75.0,512.0,510.0,6.0,0.0
561,78.0,0.0,510.0,5.0,0.0
562,71.0,0.0,510.0,6.0,0.0
563,80.0,1024.0,510.0,5.0,0.0
564,73.0,0.0,1530.0,6.0,0.0
565,42.0,512.0,1020.0,4.0,0.0
566,82.0,512.0,1530.0,5.0,0.0
567,54.0,0.0,15.0,7.0,0.0
568,54.0,0.0,15.0,7.0,0.0
569,75.0,0.0,510.0,6.0,0.0
570,83.0,512.0,510.0,5.0,0.0
571,54.0,0.0,1020.0,4.0,0.0
572,73.0,0.0,2040.0,0.0,0.0
573,70.0,0.0,2040.0,1.0,0.0
574,73.0,0.0,510.0,6.0,0.0
575,66.0,0.0,2040.0,2.0,0.0
576,82.0,0.0,510.0,5.0,0.0
577,54.0,512.0,510.0,7.0,0.0
578,54.0,0.0,2040.0,3.0,0.0
579,80.0,0.0,510.0,5.0,0.0
580,54.0,0.0,510.0,7.0,0.0
581,71.0,512.0,510.0,6.0,0.0
582,70.0,0.0,510.0,6.0,0.0
583,82.0,0.0,510.0,5.0,0.0
584,54.0,512.0,510.0,7.0,0.0
585,80.0,0.0,510.0,5.0,0.0
586,71.0,512.0,510.0,6.0,0.0
587,54.0,0.0,510.0,7.0,0.0
588,73.0,0.0,510.0,6.0,0.0
589,42.0,512.0,1020.0,4.0,0.0
590,70.0,0.0,2040.0,1.0,0.0
591,82.0,512.0,510.0,5.0,0.0
592,54.0,0.0,15.0,7.0,0.0
593,71.0,0.0,510.0,6.0,0.0
594,80.0,0.0,510.0,5.0,0.0
595,54.0,0.0,15.0,7.0,0.0
596,78.0,0.0,2040.0,5.0,0.0
597,73.0,0.0,2040.0,6.0,0.0
598,54.0,0.0,510.0,7.0,0.0
599,73.0,0.0,15.0,0.0,0.0
600,54.0,512.0,15.0,3.0,0.0
601,66.0,0.0,15.0,2.0,0.0
602,54.0,0.0,1020.0,4.0,0.0
603,70.0,0.0,2040.0,1.0,0.0
604,54.0,512.0,15.0,7.0,0.0
605,82.0,0.0,1020.0,5.0,0.0
606,54.0,512.0,15.0,7.0,0.0
607,73.0,512.0,1020.0,6.0,0.0
608,59.0,512.0,2040.0,3.0,0.0
609,66.0,0.0,15.0,2.0,0.0
610,47.0,512.0,1020.0,4.0,0.0
611,83.0,0.0,1020.0,5.0,0.0
612,75.0,0.0,2040.0,0.0,0.0
613,54.0,0.0,15.0,7.0,0.0
614,75.0,512.0,510.0,6.0,0.0
615,54.0,0.0,15.0,7.0,0.0
616,73.0,0.0,510.0,6.0,0.0
617,71.0,0.0,2040.0,6.0,0.0
618,78.0,512.0,2040.0,5.0,0.0
619,54.0,512.0,510.0,7.0,0.0
620,54.0,0.0,510.0,7.0,0.0
621,66.0,0.0,15.0,2.0,0.0
622,51.0,0.0,1020.0,4.0,0.0
623,71.0,0.0,15.0,1.0,0.0
624,75.0,0.0,2040.0,0.0,0.0
625,47.0,0.0,2040.0,3.0,0.0
626,54.0,512.0,15.0,7.0,0.0
627,83.0,0.0,1020.0,5.0,0.0
628,68.0,0.0,1020.0,2.0,0.0
629,75.0,512.0,1020.0,6.0,0.0
630,54.0,512.0,510.0,7.0,0.0
631,54.0,0.0,510.0,7.0,0.0
632,73.0,0.0,2040.0,0.0,0.0
633,54.0,0.0,2040.0,3.0,0.0
634,54.0,0.0,1020.0,4.0,0.0
635,82.0,0.0,510.0,5.0,0.0
636,70.0,0.0,2040.0,2.0,0.0
637,73.0,0.0,2040.0,1.0,0.0
638,73.0,512.0,510.0,6.0,0.0
639,80.0,512.0,510.0,5.0,0.0
640,54.0,0.0,15.0,7.0,0.0
641,71.0,0.0,510.0,6.0,0.0
642,54.0,512.0,510.0,7.0,0.0
643,73.0,0.0,2040.0,6.0,0.0
644,78.0,0.0,2040.0,5.0,0.0
645,58.0,0.0,1020.0,4.0,0.0
646,54.0,1024.0,15.0,7.0,0.0
647,73.0,0.0,510.0,6.0,0.0
648,78.0,512.0,510.0,5.0,0.0
649,71.0,512.0,510.0,6.0,0.0
650,80.0,0.0,510.0,5.0,0.0
651,55.0,0.0,1020.0,4.0,0.0
652,73.0,0.0,510.0,6.0,0.0
653,82.0,512.0,510.0,5.0,0.0
654,71.0,0.0,510.0,6.0,0.0
655,80.0,512.0,510.0,5.0,0.0
656,82.0,512.0,510.0,5.0,0.0
657,73.0,0.0,510.0,6.0,0.0
658,75.0,0.0,510.0,6.0,0.0
659,83.0,512.0,510.0,5.0,0.0
660,73.0,0.0,510.0,6.0,0.0
661,82.0,512.0,510.0,5.0,0.0
662,51.0,0.0,1020.0,4.0,0.0
663,75.0,0.0,510.0,6.0,0.0
664,83.0,512.0,510.0,5.0,0.0
665,73.0,0.0,510.0,6.0,0.0
666,82.0,512.0,510.0,5.0,0.0
667,75.0,1024.0,510.0,6.0,0.0
668,83.0,0.0,510.0,5.0,0.0
669,71.0,0.0,1020.0,6.0,0.0
670,56.0,512.0,1020.0,4.0,0.0
671,80.0,0.0,1020.0,5.0,0.0
672,71.0,0.0,510.0,6.0,0.0
673,80.0,512.0,510.0,5.0,0.0
674,79.0,0.0,510.0,5.0,0.0
675,70.0,1024.0,510.0,6.0,0.0
676,71.0,0.0,1020.0,6.0,0.0
677,80.0,0.0,1020.0,5.0,0.0
678,53.0,512.0,1020.0,4.0,0.0
679,82.0,512.0,510.0,5.0,0.0
680,80.0,0.0,510.0,5.0,0.0
681,78.0,512.0,510.0,5.0,0.0
682,73.0,512.0,15.0,6.0,0.0
683,58.0,0.0,1020.0,4.0,0.0
684,80.0,2048.0,510.0,5.0,0.0
685,82.0,512.0,2040.0,5.0,0.0
686,54.0,0.0,1020.0,4.0,0.0
687,80.0,512.0,510.0,5.0,0.0
688,78.0,512.0,510.0,5.0,0.0
689,61.0,1024.0,1020.0,4.0,0.0
690,77.0,512.0,510.0,5.0,0.0
691,75.0,0.0,510.0,5.0,0.0
692,77.0,0.0,1020.0,5.0,0.0
693,58.0,0.0,1020.0,4.0,0.0
694,66.0,0.0,2040.0,2.0,0.0
695,58.0,0.0,2040.0,3.0,0.0
696,73.0,0.0,2040.0,0.0,0.0
697,73.0,512.0,2040.0,1.0,0.0
698,54.0,512.0,15.0,7.0,0.0
699,78.0,512.0,510.0,5.0,0.0
700,73.0,0.0,1020.0,6.0,0.0
701,54.0,0.0,510.0,7.0,0.0
702,77.0,0.0,510.0,5.0,0.0
703,59.0,0.0,1020.0,4.0,0.0
704,54.0,0.0,510.0,7.0,0.0
705,71.0,512.0,2040.0,1.0,0.0
706,71.0,512.0,1020.0,6.0,0.0
707,75.0,512.0,510.0,5.0,0.0
708,59.0,0.0,2040.0,3.0,0.0
709,66.0,0.0,1020.0,2.0,0.0
710,75.0,0.0,1020.0,0.0,0.0
711,78.0,0.0,510.0,5.0,0.0
712,54.0,0.0,15.0,7.0,0.0
713,77.0,0.0,1020.0,0.0,0.0
714,68.0,0.0,1020.0,2.0,0.0
715,77.0,0.0,510.0,5.0,0.0
716,80.0,0.0,510.0,5.0,0.0
717,54.0,0.0,15.0,7.0,0.0
718,70.0,0.0,2040.0,2.0,0.0
719,78.0,512.0,510.0,5.0,0.0
720,78.0,1024.0,2040.0,0.0,0.0
721,58.0,0.0,1020.0,3.0,0.0
722,54.0,0.0,1020.0,4.0,0.0
723,82.0,512.0,510.0,5.0,0.0
724,59.0,0.0,1020.0,3.0,0.0
725,80.0,512.0,510.0,5.0,0.0
726,83.0,0.0,510.0,5.0,0.0
727,68.0,1024.0,2040.0,2.0,0.0
728,73.0,0.0,15.0,1.0,0.0
729,61.0,0.0,1020.0,4.0,0.0
730,61.0,0.0,2040.0,3.0,0.0
731,78.0,0.0,2040.0,0.0,0.0
732,82.0,512.0,15.0,5.0,0.0
733,78.0,512.0,510.0,6.0,0.0
734,77.0,0.0,510.0,6.0,0.0
735,80.0,0.0,510.0,5.0,0.0
736,80.0,512.0,1020.0,6.0,0.0
737,49.0,512.0,2040.0,3.0,0.0
738,77.0,0.0,2040.0,0.0,0.0
739,49.0,0.0,1020.0,4.0,0.0
740,83.0,0.0,1020.0,5.0,0.0
741,68.0,0.0,2040.0,2.0,0.0
742,78.0,512.0,510.0,6.0,0.0
743,82.0,0.0,510.0,5.0,0.0
744,80.0,0.0,510.0,5.0,0.0
745,77.0,0.0,510.0,6.0,0.0
746,70.0,512.0,4110.0,2.0,0.0
747,54.0,0.0,1020.0,4.0,0.0
748,78.0,0.0,4110.0,0.0,0.0
749,73.0,0.0,15.0,1.0,0.0
750,78.0,0.0,1020.0,6.0,0.0
751,54.0,0.0,4110.0,3.0,0.0
752,82.0,512.0,510.0,5.0,0.0
753,80.0,0.0,510.0,5.0,0.0
754,54.0,512.0,510.0,7.0,0.0
755,73.0,0.0,2040.0,6.0,0.0
756,78.0,0.0,2040.0,5.0,0.0
757,54.0,512.0,15.0,7.0,0.0
758,58.0,512.0,1020.0,4.0,0.0
759,54.0,512.0,510.0,7.0,0.0
760,54.0,0.0,510.0,7.0,0.0
761,73.0,0.0,510.0,5.0,0.0
762,66.0,0.0,1020.0,6.0,0.0
763,54.0,512.0,15.0,7.0,0.0
764,75.0,0.0,510.0,5.0,0.0
765,61.0,0.0,1020.0,4.0,0.0
766,73.0,0.0,1020.0,6.0,0.0
767,54.0,512.0,510.0,7.0,0.0
768,54.0,0.0,510.0,7.0,0.0
769,73.0,0.0,510.0,6.0,0.0
770,76.0,512.0,15.0,5.0,0.0
771,54.0,0.0,15.0,7.0,0.0
772,75.0,0.0,510.0,5.0,0.0
773,72.0,0.0,510.0,6.0,0.0
774,73.0,0.0,1020.0,6.0,0.0
775,76.0,512.0,1020.0,5.0,0.0
776,58.0,0.0,1020.0,4.0,0.0
777,54.0,512.0,510.0,7.0,0.0
778,54.0,0.0,510.0,7.0,0.0
779,75.0,0.0,510.0,6.0,0.0
780,78.0,512.0,510.0,5.0,0.0
781,54.0,0.0,15.0,7.0,0.0
782,73.0,0.0,510.0,6.0,0.0
783,76.0,512.0,510.0,5.0,0.0
784,54.0,0.0,15.0,7.0,0.0
785,71.0,0.0,510.0,6.0,0.0
786,59.0,0.0,1020.0,4.0,0.0
787,75.0,512.0,510.0,5.0,0.0
788,76.0,512.0,510.0,5.0,0.0
789,73.0,0.0,510.0,6.0,0.0
790,54.0,0.0,15.0,7.0,0.0
791,75.0,0.0,2040.0,6.0,0.0
792,78.0,512.0,2040.0,5.0,0.0
793,54.0,512.0,15.0,7.0,0.0
794,47.0,0.0,1020.0,4.0,0.0
795,54.0,512.0,15.0,7.0,0.0
796,54.0,512.0,15.0,7.0,0.0
797,73.0,0.0,510.0,6.0,0.0
798,76.0,0.0,510.0,5.0,0.0
799,54.0,512.0,15.0,7.0,0.0
800,71.0,512.0,510.0,6.0,0.0
801,75.0,0.0,510.0,5.0,0.0
802,54.0,0.0,1020.0,4.0,0.0
803,73.0,512.0,510.0,5.0,0.0
804,66.0,512.0,1020.0,6.0,0.0
805,54.0,0.0,1020.0,7.0,0.0
806,76.0,0.0,510.0,5.0,0.0
807,59.0,0.0,510.0,6.0,0.0
808,75.0,512.0,510.0,5.0,0.0
809,63.0,0.0,510.0,6.0,0.0
810,71.0,512.0,510.0,5.0,0.0
811,66.0,0.0,1020.0,6.0,0.0
812,54.0,512.0,1020.0,7.0,0.0
813,73.0,512.0,510.0,5.0,0.0
814,42.0,0.0,1020.0,4.0,0.0
815,76.0,0.0,510.0,5.0,0.0
816,59.0,0.0,510.0,6.0,0.0
817,75.0,512.0,510.0,5.0,0.0
818,63.0,1024.0,510.0,6.0,0.0
819,71.0,0.0,510.0,5.0,0.0
820,73.0,512.0,1530.0,5.0,0.0
821,66.0,0.0,1530.0,6.0,0.0
822,54.0,512.0,1020.0,4.0,0.0
823,54.0,0.0,1020.0,7.0,0.0
824,76.0,0.0,510.0,5.0,0.0
825,66.0,512.0,510.0,6.0,0.0
826,52.0,0.0,1020.0,4.0,0.0
827,75.0,0.0,510.0,5.0,0.0
828,71.0,512.0,510.0,6.0,0.0
829,66.0,0.0,510.0,6.0,0.0
830,73.0,512.0,510.0,5.0,0.0
831,71.0,512.0,510.0,6.0,0.0
832,75.0,0.0,510.0,5.0,0.0
833,73.0,512.0,510.0,6.0,0.0
834,76.0,0.0,510.0,5.0,0.0
835,51.0,512.0,1020.0,4.0,0.0
836,78.0,512.0,510.0,5.0,0.0
837,75.0,0.0,510.0,6.0,0.0
838,73.0,0.0,510.0,6.0,0.0
839,76.0,0.0,510.0,5.0,0.0
840,71.0,0.0,2040.0,6.0,0.0
841,47.0,0.0,15.0,7.0,0.0
842,75.0,0.0,2040.0,5.0,0.0
843,47.0,512.0,15.0,7.0,0.0
844,47.0,512.0,1020.0,4.0,0.0
845,78.0,0.0,2040.0,0.0,0.0
846,47.0,512.0,510.0,7.0,0.0
847,59.0,512.0,2040.0,3.0,0.0
848,75.0,0.0,2040.0,1.0,0.0
849,71.0,0.0,2040.0,2.0,0.0
850,47.0,0.0,510.0,7.0,0.0
851,47.0,512.0,510.0,7.0,0.0
852,75.0,0.0,1020.0,6.0,0.0
853,78.0,0.0,1020.0,5.0,0.0
854,47.0,0.0,510.0,7.0,0.0
855,80.0,0.0,2040.0,0.0,0.0
856,47.0,0.0,510.0,7.0,0.0
857,76.0,512.0,1020.0,6.0,0.0
858,71.0,512.0,2040.0,2.0,0.0
859,76.0,0.0,2040.0,1.0,0.0
860,80.0,512.0,510.0,5.0,0.0
861,52.0,0.0,1020.0,4.0,0.0
862,52.0,0.0,2040.0,3.0,0.0
863,78.0,0.0,510.0,5.0,0.0
864,47.0,0.0,510.0,7.0,0.0
865,76.0,0.0,1020.0,5.0,0.0
866,71.0,0.0,1020.0,6.0,0.0
867,47.0,512.0,15.0,7.0,0.0
868,54.0,0.0,2040.0,3.0,0.0
869,75.0,0.0,2040.0,1.0,0.0
870,54.0,512.0,1020.0,4.0,0.0
871,69.0,512.0,2040.0,2.0,0.0
872,78.0,0.0,2040.0,0.0,0.0
873,47.0,512.0,15.0,7.0,0.0
874,75.0,512.0,510.0,5.0,0.0
875,47.0,0.0,510.0,7.0,0.0
876,71.0,0.0,510.0,6.0,0.0
877,66.0,0.0,510.0,6.0,0.0
878,71.0,0.0,510.0,5.0,0.0
879,56.0,0.0,1020.0,3.0,0.0
880,71.0,512.0,1020.0,6.0,0.0
881,68.0,0.0,2040.0,2.0,0.0
882,56.0,0.0,1020.0,4.0,0.0
883,47.0,0.0,15.0,7.0,0.0
884,76.0,0.0,2040.0,0.0,0.0
885,47.0,512.0,15.0,7.0,0.0
886,76.0,0.0,15.0,5.0,0.0
887,57.0,0.0,1020.0,3.0,0.0
888,71.0,0.0,510.0,5.0,0.0
889,47.0,0.0,15.0,7.0,0.0
890,78.0,0.0,1020.0,5.0,0.0
891,59.0,512.0,1020.0,4.0,0.0
892,59.0,0.0,2040.0,3.0,0.0
893,66.0,0.0,2040.0,2.0,0.0
894,47.0,1024.0,15.0,7.0,0.0
895,71.0,0.0,15.0,1.0,0.0
896,71.0,0.0,1020.0,6.0,0.0
897,75.0,512.0,2040.0,0.0,0.0
898,78.0,512.0,510.0,5.0,0.0
899,71.0,0.0,510.0,5.0,0.0
900,80.0,512.0,510.0,5.0,0.0
901,52.0,0.0,4110.0,3.0,0.0
902,64.0,0.0,1020.0,4.0,0.0
903,71.0,2048.0,1020.0,6.0,0.0
904,68.0,0.0,4110.0,2.0,0.0
905,71.0,0.0,15.0,1.0,0.0
906,76.0,1024.0,4110.0,0.0,0.0
907,81.0,0.0,510.0,5.0,0.0
908,83.0,512.0,2040.0,5.0,0.0
909,76.0,512.0,11250.0,6.0,0.0
910,56.0,0.0,1020.0,4.0,0.0
911,81.0,512.0,510.0,5.0,0.0
912,80.0,0.0,510.0,5.0,0.0
913,57.0,0.0,1020.0,4.0,0.0
914,78.0,512.0,15.0,5.0,0.0
915,76.0,1024.0,510.0,5.0,0.0
916,78.0,0.0,1020.0,5.0,0.0
917,54.0,512.0,1020.0,4.0,0.0
918,81.0,512.0,510.0,5.0,0.0
919,78.0,512.0,510.0,5.0,0.0
920,59.0,512.0,1020.0,4.0,0.0
921,80.0,512.0,510.0,5.0,0.0
922,83.0,0.0,510.0,5.0,0.0
923,81.0,512.0,510.0,5.0,0.0
924,78.0,512.0,510.0,5.0,0.0
925,56.0,0.0,1020.0,4.0,0.0
926,80.0,512.0,510.0,5.0,0.0
927,83.0,512.0,510.0,5.0,0.0
928,81.0,512.0,510.0,5.0,0.0
929,78.0,1024.0,510.0,5.0,0.0
930,61.0,0.0,1020.0,4.0,0.0
931,80.0,0.0,1020.0,5.0,0.0
932,57.0,1024.0,1020.0,4.0,0.0
933,76.0,0.0,1020.0,6.0,0.0
934,80.0,256.0,510.0,5.0,0.0
935,81.0,256.0,270.0,5.0,0.0
936,83.0,0.0,270.0,5.0,0.0
937,71.0,0.0,1020.0,6.0,0.0
938,80.0,512.0,1020.0,5.0,0.0
939,59.0,0.0,1020.0,4.0,0.0
940,71.0,512.0,1020.0,6.0,0.0
941,78.0,512.0,510.0,5.0,0.0
942,47.0,0.0,1020.0,4.0,0.0
943,76.0,0.0,510.0,5.0,0.0
944,52.0,512.0,1020.0,4.0,0.0
945,76.0,512.0,510.0,5.0,0.0
946,71.0,512.0,2550.0,6.0,0.0
947,80.0,0.0,510.0,5.0,0.0
948,78.0,512.0,510.0,5.0,0.0
949,76.0,512.0,510.0,5.0,0.0
950,59.0,0.0,2040.0,3.0,0.0
951,47.0,512.0,1020.0,4.0,0.0
952,75.0,0.0,510.0,5.0,0.0
953,75.0,512.0,2040.0,0.0,0.0
954,71.0,0.0,2040.0,1.0,0.0
955,75.0,0.0,510.0,6.0,0.0
956,78.0,0.0,510.0,5.0,0.0
957,54.0,0.0,510.0,7.0,0.0
958,73.0,0.0,510.0,6.0,0.0
959,54.0,512.0,510.0,7.0,0.0
960,76.0,0.0,510.0,5.0,0.0
961,71.0,0.0,510.0,6.0,0.0
962,75.0,0.0,510.0,5.0,0.0
963,73.0,0.0,2040.0,0.0,0.0
964,54.0,0.0,1020.0,4.0,0.0
965,70.0,512.0,2040.0,1.0,0.0
966,54.0,0.0,15.0,7.0,0.0
967,66.0,0.0,2040.0,3.0,0.0
968,66.0,0.0,15.0,2.0,0.0
969,54.0,512.0,15.0,7.0,0.0
970,73.0,0.0,15.0,5.0,0.0
971,54.0,0.0,15.0,7.0,0.0
972,66.0,512.0,15.0,6.0,0.0
973,54.0,0.0,15.0,7.0,0.0
974,76.0,0.0,510.0,5.0,0.0
975,73.0,0.0,510.0,6.0,0.0
976,66.0,0.0,15.0,2.0,0.0
977,75.0,0.0,2040.0,0.0,0.0
978,71.0,0.0,2040.0,1.0,0.0
979,75.0,0.0,1020.0,5.0,0.0
980,54.0,512.0,510.0,7.0,0.0
981,59.0,512.0,1020.0,4.0,0.0
982,59.0,0.0,2040.0,3.0,0.0
983,54.0,0.0,510.0,7.0,0.0
984,71.0,0.0,15.0,6.0,0.0
985,75.0,512.0,510.0,5.0,0.0
986,75.0,0.0,510.0,6.0,0.0
987,54.0,0.0,15.0,7.0,0.0
988,78.0,0.0,510.0,5.0,0.0
989,76.0,0.0,510.0,5.0,0.0
990,66.0,0.0,15.0,2.0,0.0
991,73.0,0.0,2040.0,0.0,0.0
992,54.0,1024.0,1020.0,7.0,0.0
993,71.0,0.0,2040.0,1.0,0.0
994,73.0,512.0,510.0,6.0,0.0
995,54.0,0.0,1020.0,4.0,0.0
996,75.0,0.0,510.0,5.0,0.0
997,71.0,0.0,510.0,6.0,0.0
998,76.0,0.0,2040.0,5.0,0.0
999,73.0,512.0,2040.0,6.0,0.0
1000,42.0,0.0,1020.0,4.0,0.0
1001,54.0,1024.0,15.0,3.0,0.0
1002,66.0,0.0,15.0,2.0,0.0
1003,54.0,0.0,1020.0,7.0,0.0
1004,70.0,0.0,2040.0,1.0,0.0
1005,73.0,0.0,2040.0,0.0,0.0
1006,78.0,512.0,510.0,5.0,0.0
1007,75.0,0.0,510.0,6.0,0.0
1008,73.0,0.0,510.0,6.0,0.0
1009,76.0,0.0,510.0,5.0,0.0
1010,66.0,0.0,4110.0,1.0,0.0
1011,71.0,0.0,4110.0,0.0,0.0
1012,71.0,0.0,510.0,6.0,0.0
1013,63.0,0.0,4110.0,2.0,0.0
1014,47.0,0.0,1020.0,4.0,0.0
1015,59.0,0.0,4110.0,3.0,0.0
1016,75.0,512.0,510.0,5.0,0.0
1017,73.0,0.0,510.0,5.0,0.0
1018,66.0,0.0,510.0,6.0,0.0
1019,63.0,0.0,510.0,6.0,0.0
1020,47.0,512.0,15.0,7.0,0.0
1021,71.0,512.0,510.0,5.0,0.0
1022,47.0,512.0,510.0,7.0,0.0
1023,73.0,0.0,510.0,5.0,0.0
1024,66.0,0.0,510.0,6.0,0.0
1025,59.0,512.0,1020.0,4.0,0.0
1026,75.0,0.0,510.0,5.0,0.0
1027,71.0,0.0,510.0,6.0,0.0
1028,47.0,512.0,510.0,7.0,0.0
1029,73.0,0.0,510.0,5.0,0.0
1030,66.0,0.0,510.0,6.0,0.0
1031,71.0,0.0,510.0,6.0,0.0
1032,47.0,0.0,15.0,7.0,0.0
1033,75.0,0.0,510.0,5.0,0.0
1034,47.0,512.0,15.0,7.0,0.0
1035,73.0,512.0,510.0,6.0,0.0
1036,76.0,0.0,510.0,5.0,0.0
1037,78.0,0.0,510.0,5.0,0.0
1038,47.0,512.0,1020.0,4.0,0.0
1039,75.0,512.0,510.0,6.0,0.0
1040,47.0,0.0,15.0,7.0,0.0
1041,76.0,0.0,510.0,5.0,0.0
1042,73.0,0.0,510.0,6.0,0.0
1043,71.0,512.0,2040.0,6.0,0.0
1044,47.0,512.0,510.0,7.0,0.0
1045,75.0,0.0,2040.0,5.0,0.0
1046,47.0,512.0,15.0,7.0,0.0
1047,59.0,0.0,1020.0,4.0,0.0
1048,47.0,512.0,15.0,7.0,0.0
1049,78.0,0.0,1020.0,5.0,0.0
1050,47.0,512.0,510.0,7.0,0.0
1051,75.0,512.0,1020.0,6.0,0.0
1052,76.0,0.0,1020.0,6.0,0.0
1053,47.0,0.0,15.0,7.0,0.0
1054,52.0,0.0,1020.0,4.0,0.0
1055,80.0,0.0,510.0,5.0,0.0
1056,47.0,512.0,15.0,7.0,0.0
1057,78.0,512.0,510.0,5.0,0.0
1058,47.0,0.0,15.0,7.0,0.0
1059,71.0,0.0,2040.0,6.0,0.0
1060,76.0,512.0,2040.0,5.0,0.0
1061,47.0,512.0,510.0,7.0,0.0
1062,56.0,0.0,1020.0,4.0,0.0
1063,47.0,512.0,510.0,7.0,0.0
1064,47.0,0.0,510.0,7.0,0.0
1065,80.0,0.0,1020.0,5.0,0.0
1066,76.0,0.0,1020.0,6.0,0.0
1067,47.0,512.0,15.0,7.0,0.0
1068,47.0,512.0,15.0,7.0,0.0
1069,78.0,0.0,510.0,5.0,0.0
1070,75.0,0.0,510.0,6.0,0.0
1071,59.0,0.0,1020.0,4.0,0.0
1072,73.0,512.0,510.0,6.0,0.0
1073,47.0,512.0,15.0,7.0,0.0
1074,76.0,0.0,510.0,5.0,0.0
1075,47.0,512.0,510.0,7.0,0.0
1076,75.0,0.0,2040.0,5.0,0.0
1077,47.0,1024.0,510.0,7.0,0.0
1078,47.0,1024.0,1020.0,7.0,0.0
1079,51.0,0.0,1020.0,4.0,0.0
1080,83.0,1024.0,1020.0,5.0,0.0
1081,52.0,512.0,1020.0,4.0,0.0
1082,73.0,0.0,1020.0,5.0,0.0
1083,73.0,512.0,510.0,5.0,0.0
1084,71.0,1024.0,510.0,5.0,0.0
1085,73.0,0.0,1020.0,5.0,0.0
1086,49.0,512.0,1020.0,4.0,0.0
1087,76.0,512.0,510.0,5.0,0.0
1088,73.0,512.0,510.0,5.0,0.0
1089,54.0,0.0,1020.0,4.0,0.0
1090,75.0,512.0,510.0,5.0,0.0
1091,78.0,512.0,510.0,5.0,0.0
1092,54.0,0.0,15.0,7.0,0.0
1093,76.0,512.0,510.0,5.0,0.0
1094,73.0,512.0,510.0,5.0,0.0
1095,54.0,0.0,510.0,7.0,0.0
1096,75.0,0.0,510.0,5.0,0.0
1097,51.0,512.0,1020.0,4.0,0.0
1098,54.0,512.0,15.0,7.0,0.0
1099,78.0,0.0,510.0,5.0,0.0
1100,76.0,512.0,510.0,5.0,0.0
1101,54.0,0.0,510.0,7.0,0.0
1102,54.0,1024.0,510.0,7.0,0.0
1103,73.0,0.0,510.0,5.0,0.0
1104,75.0,0.0,1020.0,5.0,0.0
1105,56.0,0.0,1020.0,4.0,0.0
1106,75.0,256.0,510.0,5.0,0.0
1107,47.0,0.0,15.0,7.0,0.0
1108,52.0,512.0,1020.0,4.0,0.0
1109,71.0,512.0,15.0,6.0,0.0
1110,76.0,256.0,270.0,5.0,0.0
1111,78.0,0.0,270.0,5.0,0.0
1112,75.0,0.0,1020.0,5.0,0.0
1113,66.0,512.0,510.0,6.0,0.0
1114,54.0,512.0,1020.0,4.0,0.0
1115,63.0,0.0,510.0,6.0,0.0
1116,42.0,0.0,1020.0,4.0,0.0
1117,54.0,0.0,15.0,7.0,0.0
1118,66.0,4096.0,1020.0,6.0,0.0
1119,73.0,512.0,510.0,5.0,0.0
1120,47.0,0.0,4110.0,7.0,0.0
1121,71.0,0.0,15.0,5.0,0.0
1122,63.0,0.0,4110.0,6.0,0.0
1123,47.0,0.0,4110.0,4.0,0.0
