,note,step,duration,channel,velocity
0,48.0,60.0,120.0,1.0,64.0
1,72.0,60.0,120.0,0.0,64.0
2,50.0,60.0,120.0,1.0,64.0
3,71.0,60.0,120.0,0.0,64.0
4,52.0,60.0,120.0,1.0,64.0
5,70.0,60.0,120.0,0.0,64.0
6,53.0,60.0,120.0,1.0,64.0
7,69.0,60.0,120.0,0.0,64.0
8,55.0,60.0,120.0,1.0,64.0
9,67.0,60.0,120.0,0.0,64.0
10,57.0,60.0,120.0,1.0,64.0
11,65.0,60.0,120.0,0.0,64.0
12,59.0,60.0,120.0,1.0,64.0
13,64.0,0.0,120.0,0.0,64.0
14,60.0,60.0,60.0,1.0,64.0
15,59.0,60.0,60.0,1.0,64.0
16,62.0,30.0,120.0,0.0,64.0
17,57.0,0.0,60.0,1.0,64.0
18,55.0,60.0,60.0,1.0,64.0
19,64.0,30.0,30.0,0.0,64.0
20,65.0,0.0,30.0,0.0,64.0
21,64.0,30.0,60.0,0.0,64.0
22,60.0,60.0,120.0,1.0,64.0
23,67.0,30.0,30.0,0.0,64.0
24,65.0,0.0,30.0,0.0,64.0
25,48.0,60.0,120.0,1.0,64.0
26,67.0,30.0,60.0,0.0,64.0
27,64.0,30.0,30.0,0.0,64.0
28,62.0,0.0,30.0,0.0,64.0
29,64.0,30.0,60.0,0.0,64.0
30,60.0,30.0,30.0,0.0,64.0
31,59.0,120.0,30.0,0.0,64.0
32,60.0,60.0,120.0,0.0,64.0
33,48.0,60.0,120.0,1.0,64.0
34,62.0,60.0,120.0,0.0,64.0
35,47.0,60.0,120.0,1.0,64.0
36,64.0,60.0,120.0,0.0,64.0
37,46.0,60.0,120.0,1.0,64.0
38,65.0,60.0,120.0,0.0,64.0
39,45.0,60.0,120.0,1.0,64.0
40,67.0,60.0,120.0,0.0,64.0
41,43.0,60.0,120.0,1.0,64.0
42,69.0,60.0,120.0,0.0,64.0
43,41.0,60.0,120.0,1.0,64.0
44,71.0,60.0,120.0,0.0,64.0
45,40.0,60.0,120.0,1.0,64.0
46,72.0,0.0,60.0,0.0,64.0
47,38.0,0.0,120.0,1.0,64.0
48,71.0,60.0,60.0,0.0,64.0
49,69.0,30.0,60.0,0.0,64.0
50,40.0,30.0,30.0,1.0,64.0
51,67.0,60.0,60.0,0.0,64.0
52,41.0,0.0,30.0,1.0,64.0
53,72.0,0.0,120.0,0.0,64.0
54,40.0,30.0,60.0,1.0,64.0
55,43.0,30.0,30.0,1.0,64.0
56,41.0,60.0,30.0,1.0,64.0
57,60.0,0.0,120.0,0.0,64.0
58,43.0,30.0,60.0,1.0,64.0
59,40.0,30.0,30.0,1.0,64.0
60,38.0,60.0,30.0,1.0,64.0
61,40.0,30.0,60.0,1.0,64.0
62,36.0,30.0,30.0,1.0,64.0
63,35.0,120.0,30.0,1.0,64.0
64,36.0,60.0,120.0,1.0,64.0
65,76.0,60.0,120.0,0.0,64.0
66,45.0,60.0,120.0,1.0,64.0
67,72.0,60.0,120.0,0.0,64.0
68,48.0,60.0,120.0,1.0,64.0
69,69.0,30.0,120.0,0.0,64.0
70,50.0,60.0,120.0,1.0,64.0
71,72.0,30.0,30.0,0.0,64.0
72,71.0,0.0,30.0,0.0,64.0
73,72.0,60.0,60.0,0.0,64.0
74,54.0,0.0,120.0,1.0,64.0
75,69.0,60.0,60.0,0.0,64.0
76,57.0,60.0,120.0,1.0,64.0
77,66.0,60.0,60.0,0.0,64.0
78,62.0,60.0,120.0,0.0,64.0
79,35.0,60.0,120.0,1.0,64.0
80,74.0,60.0,120.0,0.0,64.0
81,43.0,60.0,120.0,1.0,64.0
82,71.0,60.0,120.0,0.0,64.0
83,47.0,60.0,120.0,1.0,64.0
84,67.0,30.0,120.0,0.0,64.0
85,48.0,60.0,120.0,1.0,64.0
86,71.0,30.0,30.0,0.0,64.0
87,69.0,0.0,30.0,0.0,64.0
88,71.0,60.0,60.0,0.0,64.0
89,52.0,0.0,120.0,1.0,64.0
90,67.0,60.0,60.0,0.0,64.0
91,64.0,60.0,60.0,0.0,64.0
92,55.0,60.0,120.0,1.0,64.0
93,60.0,60.0,120.0,0.0,64.0
94,33.0,60.0,120.0,1.0,64.0
95,72.0,60.0,120.0,0.0,64.0
96,45.0,60.0,120.0,1.0,64.0
97,69.0,60.0,120.0,0.0,64.0
98,48.0,60.0,120.0,1.0,64.0
99,66.0,60.0,120.0,0.0,64.0
100,50.0,60.0,120.0,1.0,64.0
101,76.0,60.0,120.0,0.0,64.0
102,52.0,60.0,120.0,1.0,64.0
103,74.0,60.0,120.0,0.0,64.0
104,54.0,60.0,120.0,1.0,64.0
105,72.0,60.0,120.0,0.0,64.0
106,55.0,60.0,120.0,1.0,64.0
107,71.0,60.0,120.0,0.0,64.0
108,48.0,60.0,120.0,1.0,64.0
109,69.0,60.0,120.0,0.0,64.0
110,52.0,60.0,120.0,1.0,64.0
111,67.0,0.0,60.0,0.0,64.0
112,66.0,0.0,60.0,0.0,64.0
113,50.0,30.0,60.0,1.0,64.0
114,57.0,60.0,60.0,1.0,64.0
115,60.0,30.0,30.0,0.0,64.0
116,59.0,0.0,30.0,0.0,64.0
117,54.0,30.0,60.0,1.0,64.0
118,60.0,0.0,60.0,0.0,64.0
119,66.0,30.0,30.0,0.0,64.0
120,57.0,60.0,60.0,1.0,64.0
121,64.0,0.0,30.0,0.0,64.0
122,66.0,0.0,60.0,0.0,64.0
123,48.0,30.0,60.0,1.0,64.0
124,67.0,30.0,30.0,0.0,64.0
125,57.0,0.0,60.0,1.0,64.0
126,66.0,60.0,30.0,0.0,64.0
127,67.0,60.0,60.0,0.0,64.0
128,47.0,0.0,120.0,1.0,64.0
129,59.0,60.0,60.0,0.0,64.0
130,48.0,60.0,120.0,1.0,64.0
131,57.0,60.0,60.0,0.0,64.0
132,67.0,0.0,60.0,0.0,64.0
133,50.0,60.0,120.0,1.0,64.0
134,57.0,60.0,60.0,0.0,64.0
135,66.0,0.0,60.0,0.0,64.0
136,43.0,30.0,60.0,1.0,64.0
137,67.0,60.0,120.0,0.0,64.0
138,55.0,30.0,30.0,1.0,64.0
139,54.0,0.0,30.0,1.0,64.0
140,55.0,30.0,60.0,1.0,64.0
141,50.0,30.0,30.0,1.0,64.0
142,67.0,60.0,60.0,0.0,64.0
143,48.0,0.0,30.0,1.0,64.0
144,71.0,0.0,60.0,0.0,64.0
145,50.0,30.0,60.0,1.0,64.0
146,47.0,30.0,30.0,1.0,64.0
147,74.0,60.0,60.0,0.0,64.0
148,45.0,0.0,30.0,1.0,64.0
149,47.0,30.0,60.0,1.0,64.0
150,79.0,0.0,120.0,0.0,64.0
151,50.0,30.0,30.0,1.0,64.0
152,48.0,60.0,30.0,1.0,64.0
153,50.0,30.0,60.0,1.0,64.0
154,79.0,0.0,60.0,0.0,64.0
155,47.0,30.0,30.0,1.0,64.0
156,45.0,60.0,30.0,1.0,64.0
157,47.0,30.0,60.0,1.0,64.0
158,74.0,0.0,60.0,0.0,64.0
159,43.0,30.0,30.0,1.0,64.0
160,71.0,60.0,60.0,0.0,64.0
161,42.0,0.0,30.0,1.0,64.0
162,43.0,120.0,240.0,1.0,64.0
163,67.0,60.0,60.0,0.0,64.0
164,62.0,60.0,60.0,0.0,64.0
165,59.0,60.0,60.0,0.0,64.0
166,55.0,0.0,60.0,0.0,64.0
167,31.0,120.0,120.0,1.0,64.0
168,48.0,60.0,120.0,1.0,64.0
169,72.0,60.0,120.0,0.0,64.0
170,50.0,60.0,120.0,1.0,64.0
171,71.0,60.0,120.0,0.0,64.0
172,52.0,60.0,120.0,1.0,64.0
173,70.0,60.0,120.0,0.0,64.0
174,53.0,60.0,120.0,1.0,64.0
175,69.0,60.0,120.0,0.0,64.0
176,55.0,60.0,120.0,1.0,64.0
177,67.0,60.0,120.0,0.0,64.0
178,57.0,60.0,120.0,1.0,64.0
179,65.0,60.0,120.0,0.0,64.0
180,59.0,60.0,120.0,1.0,64.0
181,64.0,60.0,120.0,0.0,64.0
182,60.0,0.0,60.0,1.0,64.0
183,59.0,60.0,60.0,1.0,64.0
184,62.0,30.0,120.0,0.0,64.0
185,57.0,0.0,60.0,1.0,64.0
186,55.0,60.0,60.0,1.0,64.0
187,64.0,30.0,30.0,0.0,64.0
188,65.0,0.0,30.0,0.0,64.0
189,64.0,30.0,60.0,0.0,64.0
190,60.0,0.0,120.0,1.0,64.0
191,67.0,30.0,30.0,0.0,64.0
192,65.0,60.0,30.0,0.0,64.0
193,48.0,0.0,120.0,1.0,64.0
194,67.0,30.0,60.0,0.0,64.0
195,64.0,30.0,30.0,0.0,64.0
196,62.0,60.0,30.0,0.0,64.0
197,64.0,30.0,60.0,0.0,64.0
198,60.0,30.0,30.0,0.0,64.0
199,59.0,120.0,30.0,0.0,64.0
200,60.0,60.0,120.0,0.0,64.0
201,48.0,60.0,120.0,1.0,64.0
202,62.0,60.0,120.0,0.0,64.0
203,47.0,60.0,120.0,1.0,64.0
204,64.0,60.0,120.0,0.0,64.0
205,46.0,60.0,120.0,1.0,64.0
206,65.0,60.0,120.0,0.0,64.0
207,45.0,60.0,120.0,1.0,64.0
208,67.0,60.0,120.0,0.0,64.0
209,43.0,60.0,120.0,1.0,64.0
210,69.0,60.0,120.0,0.0,64.0
211,41.0,60.0,120.0,1.0,64.0
212,71.0,60.0,120.0,0.0,64.0
213,40.0,0.0,120.0,1.0,64.0
214,72.0,60.0,60.0,0.0,64.0
215,38.0,0.0,120.0,1.0,64.0
216,71.0,60.0,60.0,0.0,64.0
217,69.0,30.0,60.0,0.0,64.0
218,40.0,30.0,30.0,1.0,64.0
219,67.0,60.0,60.0,0.0,64.0
220,41.0,0.0,30.0,1.0,64.0
221,40.0,30.0,60.0,1.0,64.0
222,72.0,60.0,120.0,0.0,64.0
223,43.0,30.0,30.0,1.0,64.0
224,41.0,0.0,30.0,1.0,64.0
225,43.0,30.0,60.0,1.0,64.0
226,60.0,60.0,120.0,0.0,64.0
227,40.0,30.0,30.0,1.0,64.0
228,38.0,0.0,30.0,1.0,64.0
229,40.0,30.0,60.0,1.0,64.0
230,36.0,30.0,30.0,1.0,64.0
231,35.0,120.0,30.0,1.0,64.0
232,36.0,60.0,120.0,1.0,64.0
233,76.0,60.0,120.0,0.0,64.0
234,45.0,60.0,120.0,1.0,64.0
235,72.0,60.0,120.0,0.0,64.0
236,48.0,60.0,120.0,1.0,64.0
237,69.0,30.0,120.0,0.0,64.0
238,50.0,60.0,120.0,1.0,64.0
239,72.0,30.0,30.0,0.0,64.0
240,71.0,0.0,30.0,0.0,64.0
241,54.0,60.0,120.0,1.0,64.0
242,72.0,60.0,60.0,0.0,64.0
243,69.0,0.0,60.0,0.0,64.0
244,57.0,60.0,120.0,1.0,64.0
245,66.0,60.0,60.0,0.0,64.0
246,62.0,60.0,120.0,0.0,64.0
247,35.0,60.0,120.0,1.0,64.0
248,74.0,60.0,120.0,0.0,64.0
249,43.0,60.0,120.0,1.0,64.0
250,71.0,60.0,120.0,0.0,64.0
251,47.0,60.0,120.0,1.0,64.0
252,67.0,30.0,120.0,0.0,64.0
253,48.0,0.0,120.0,1.0,64.0
254,71.0,30.0,30.0,0.0,64.0
255,69.0,60.0,30.0,0.0,64.0
256,52.0,60.0,120.0,1.0,64.0
257,71.0,60.0,60.0,0.0,64.0
258,67.0,0.0,60.0,0.0,64.0
259,64.0,60.0,60.0,0.0,64.0
260,55.0,60.0,120.0,1.0,64.0
261,60.0,60.0,120.0,0.0,64.0
262,33.0,60.0,120.0,1.0,64.0
263,72.0,60.0,120.0,0.0,64.0
264,45.0,60.0,120.0,1.0,64.0
265,69.0,60.0,120.0,0.0,64.0
266,48.0,60.0,120.0,1.0,64.0
267,66.0,60.0,120.0,0.0,64.0
268,50.0,60.0,120.0,1.0,64.0
269,76.0,60.0,120.0,0.0,64.0
270,52.0,60.0,120.0,1.0,64.0
271,74.0,60.0,120.0,0.0,64.0
272,54.0,60.0,120.0,1.0,64.0
273,72.0,60.0,120.0,0.0,64.0
274,55.0,60.0,120.0,1.0,64.0
275,71.0,60.0,120.0,0.0,64.0
276,48.0,60.0,120.0,1.0,64.0
277,69.0,60.0,120.0,0.0,64.0
278,52.0,60.0,120.0,1.0,64.0
279,67.0,0.0,60.0,0.0,64.0
280,66.0,0.0,60.0,0.0,64.0
281,50.0,30.0,60.0,1.0,64.0
282,57.0,0.0,60.0,1.0,64.0
283,60.0,30.0,30.0,0.0,64.0
284,59.0,60.0,30.0,0.0,64.0
285,54.0,0.0,60.0,1.0,64.0
286,60.0,30.0,60.0,0.0,64.0
287,66.0,30.0,30.0,0.0,64.0
288,57.0,60.0,60.0,1.0,64.0
289,64.0,0.0,30.0,0.0,64.0
290,48.0,30.0,60.0,1.0,64.0
291,66.0,0.0,60.0,0.0,64.0
292,67.0,30.0,30.0,0.0,64.0
293,57.0,60.0,60.0,1.0,64.0
294,66.0,0.0,30.0,0.0,64.0
295,67.0,60.0,60.0,0.0,64.0
296,47.0,0.0,120.0,1.0,64.0
297,59.0,60.0,60.0,0.0,64.0
298,57.0,60.0,60.0,0.0,64.0
299,48.0,60.0,120.0,1.0,64.0
300,67.0,0.0,60.0,0.0,64.0
301,50.0,60.0,120.0,1.0,64.0
302,57.0,60.0,60.0,0.0,64.0
303,66.0,0.0,60.0,0.0,64.0
304,43.0,30.0,60.0,1.0,64.0
305,67.0,60.0,120.0,0.0,64.0
306,55.0,30.0,30.0,1.0,64.0
307,54.0,0.0,30.0,1.0,64.0
308,55.0,30.0,60.0,1.0,64.0
309,50.0,30.0,30.0,1.0,64.0
310,67.0,60.0,60.0,0.0,64.0
311,48.0,0.0,30.0,1.0,64.0
312,71.0,0.0,60.0,0.0,64.0
313,50.0,30.0,60.0,1.0,64.0
314,74.0,60.0,60.0,0.0,64.0
315,47.0,30.0,30.0,1.0,64.0
316,45.0,0.0,30.0,1.0,64.0
317,47.0,30.0,60.0,1.0,64.0
318,79.0,60.0,120.0,0.0,64.0
319,50.0,30.0,30.0,1.0,64.0
320,48.0,0.0,30.0,1.0,64.0
321,50.0,30.0,60.0,1.0,64.0
322,79.0,0.0,60.0,0.0,64.0
323,47.0,30.0,30.0,1.0,64.0
324,45.0,60.0,30.0,1.0,64.0
325,74.0,30.0,60.0,0.0,64.0
326,47.0,0.0,60.0,1.0,64.0
327,43.0,30.0,30.0,1.0,64.0
328,71.0,60.0,60.0,0.0,64.0
329,42.0,0.0,30.0,1.0,64.0
330,43.0,120.0,240.0,1.0,64.0
331,67.0,60.0,60.0,0.0,64.0
332,62.0,60.0,60.0,0.0,64.0
333,59.0,60.0,60.0,0.0,64.0
334,55.0,0.0,60.0,0.0,64.0
335,31.0,60.0,120.0,1.0,64.0
336,55.0,120.0,60.0,0.0,64.0
337,55.0,60.0,120.0,1.0,64.0
338,57.0,60.0,120.0,0.0,64.0
339,54.0,60.0,120.0,1.0,64.0
340,59.0,60.0,120.0,0.0,64.0
341,53.0,60.0,120.0,1.0,64.0
342,60.0,60.0,120.0,0.0,64.0
343,52.0,60.0,120.0,1.0,64.0
344,62.0,60.0,120.0,0.0,64.0
345,50.0,60.0,120.0,1.0,64.0
346,64.0,60.0,120.0,0.0,64.0
347,48.0,60.0,120.0,1.0,64.0
348,66.0,60.0,120.0,0.0,64.0
349,47.0,60.0,120.0,1.0,64.0
350,67.0,0.0,60.0,0.0,64.0
351,66.0,60.0,60.0,0.0,64.0
352,45.0,0.0,120.0,1.0,64.0
353,64.0,30.0,60.0,0.0,64.0
354,47.0,30.0,30.0,1.0,64.0
355,62.0,60.0,60.0,0.0,64.0
356,48.0,0.0,30.0,1.0,64.0
357,67.0,60.0,120.0,0.0,64.0
358,47.0,30.0,60.0,1.0,64.0
359,50.0,30.0,30.0,1.0,64.0
360,48.0,0.0,30.0,1.0,64.0
361,55.0,0.0,120.0,0.0,64.0
362,50.0,30.0,60.0,1.0,64.0
363,47.0,30.0,30.0,1.0,64.0
364,45.0,60.0,30.0,1.0,64.0
365,47.0,30.0,60.0,1.0,64.0
366,43.0,30.0,30.0,1.0,64.0
367,42.0,120.0,30.0,1.0,64.0
368,43.0,60.0,120.0,1.0,64.0
369,79.0,60.0,120.0,0.0,64.0
370,45.0,60.0,120.0,1.0,64.0
371,78.0,60.0,120.0,0.0,64.0
372,47.0,60.0,120.0,1.0,64.0
373,77.0,60.0,120.0,0.0,64.0
374,48.0,60.0,120.0,1.0,64.0
375,76.0,60.0,120.0,0.0,64.0
376,50.0,60.0,120.0,1.0,64.0
377,74.0,60.0,120.0,0.0,64.0
378,52.0,60.0,120.0,1.0,64.0
379,72.0,60.0,120.0,0.0,64.0
380,54.0,60.0,120.0,1.0,64.0
381,71.0,0.0,120.0,0.0,64.0
382,55.0,60.0,60.0,1.0,64.0
383,69.0,0.0,120.0,0.0,64.0
384,54.0,60.0,60.0,1.0,64.0
385,52.0,30.0,60.0,1.0,64.0
386,71.0,30.0,30.0,0.0,64.0
387,50.0,0.0,60.0,1.0,64.0
388,72.0,60.0,30.0,0.0,64.0
389,55.0,60.0,120.0,1.0,64.0
390,71.0,30.0,60.0,0.0,64.0
391,74.0,30.0,30.0,0.0,64.0
392,72.0,0.0,30.0,0.0,64.0
393,43.0,60.0,120.0,1.0,64.0
394,74.0,30.0,60.0,0.0,64.0
395,71.0,30.0,30.0,0.0,64.0
396,69.0,0.0,30.0,0.0,64.0
397,71.0,30.0,60.0,0.0,64.0
398,67.0,30.0,30.0,0.0,64.0
399,66.0,60.0,30.0,0.0,64.0
400,52.0,60.0,120.0,1.0,64.0
401,67.0,30.0,60.0,0.0,64.0
402,71.0,30.0,30.0,0.0,64.0
403,69.0,0.0,30.0,0.0,64.0
404,71.0,30.0,60.0,0.0,64.0
405,55.0,60.0,120.0,1.0,64.0
406,76.0,30.0,30.0,0.0,64.0
407,75.0,0.0,30.0,0.0,64.0
408,76.0,30.0,60.0,0.0,64.0
409,59.0,60.0,120.0,1.0,64.0
410,69.0,30.0,30.0,0.0,64.0
411,67.0,0.0,30.0,0.0,64.0
412,51.0,0.0,120.0,1.0,64.0
413,69.0,30.0,60.0,0.0,64.0
414,72.0,30.0,30.0,0.0,64.0
415,71.0,60.0,30.0,0.0,64.0
416,54.0,60.0,120.0,1.0,64.0
417,72.0,30.0,60.0,0.0,64.0
418,78.0,30.0,30.0,0.0,64.0
419,76.0,0.0,30.0,0.0,64.0
420,78.0,30.0,60.0,0.0,64.0
421,59.0,0.0,120.0,1.0,64.0
422,71.0,30.0,30.0,0.0,64.0
423,69.0,60.0,30.0,0.0,64.0
424,71.0,30.0,60.0,0.0,64.0
425,52.0,60.0,120.0,1.0,64.0
426,76.0,30.0,30.0,0.0,64.0
427,75.0,0.0,30.0,0.0,64.0
428,55.0,0.0,120.0,1.0,64.0
429,76.0,30.0,60.0,0.0,64.0
430,79.0,30.0,30.0,0.0,64.0
431,78.0,60.0,30.0,0.0,64.0
432,79.0,30.0,60.0,0.0,64.0
433,59.0,0.0,120.0,1.0,64.0
434,71.0,30.0,30.0,0.0,64.0
435,70.0,60.0,30.0,0.0,64.0
436,47.0,60.0,120.0,1.0,64.0
437,71.0,30.0,60.0,0.0,64.0
438,78.0,30.0,30.0,0.0,64.0
439,76.0,0.0,30.0,0.0,64.0
440,78.0,30.0,60.0,0.0,64.0
441,59.0,0.0,120.0,1.0,64.0
442,75.0,30.0,30.0,0.0,64.0
443,73.0,60.0,30.0,0.0,64.0
444,57.0,60.0,120.0,1.0,64.0
445,75.0,30.0,60.0,0.0,64.0
446,71.0,30.0,30.0,0.0,64.0
447,70.0,0.0,30.0,0.0,64.0
448,70.0,60.0,60.0,0.0,64.0
449,56.0,60.0,120.0,1.0,64.0
450,77.0,60.0,120.0,0.0,64.0
451,57.0,60.0,120.0,1.0,64.0
452,76.0,60.0,120.0,0.0,64.0
453,59.0,60.0,120.0,1.0,64.0
454,74.0,30.0,120.0,0.0,64.0
455,52.0,0.0,120.0,1.0,64.0
456,72.0,30.0,30.0,0.0,64.0
457,71.0,60.0,30.0,0.0,64.0
458,72.0,30.0,60.0,0.0,64.0
459,57.0,60.0,120.0,1.0,64.0
460,69.0,30.0,30.0,0.0,64.0
461,68.0,0.0,30.0,0.0,64.0
462,69.0,30.0,60.0,0.0,64.0
463,55.0,60.0,120.0,1.0,64.0
464,72.0,30.0,30.0,0.0,64.0
465,71.0,0.0,30.0,0.0,64.0
466,54.0,60.0,120.0,1.0,64.0
467,72.0,60.0,60.0,0.0,64.0
468,76.0,60.0,120.0,0.0,64.0
469,55.0,60.0,120.0,1.0,64.0
470,74.0,60.0,120.0,0.0,64.0
471,57.0,60.0,120.0,1.0,64.0
472,72.0,30.0,120.0,0.0,64.0
473,50.0,0.0,120.0,1.0,64.0
474,71.0,30.0,30.0,0.0,64.0
475,69.0,60.0,30.0,0.0,64.0
476,55.0,0.0,120.0,1.0,64.0
477,71.0,30.0,60.0,0.0,64.0
478,67.0,30.0,30.0,0.0,64.0
479,66.0,60.0,30.0,0.0,64.0
480,59.0,60.0,120.0,1.0,64.0
481,67.0,30.0,60.0,0.0,64.0
482,69.0,30.0,30.0,0.0,64.0
483,67.0,0.0,30.0,0.0,64.0
484,69.0,60.0,60.0,0.0,64.0
485,51.0,60.0,120.0,1.0,64.0
486,72.0,60.0,120.0,0.0,64.0
487,52.0,60.0,120.0,1.0,64.0
488,71.0,60.0,120.0,0.0,64.0
489,54.0,60.0,120.0,1.0,64.0
490,69.0,30.0,120.0,0.0,64.0
491,47.0,0.0,120.0,1.0,64.0
492,67.0,30.0,30.0,0.0,64.0
493,66.0,60.0,30.0,0.0,64.0
494,52.0,0.0,120.0,1.0,64.0
495,67.0,30.0,60.0,0.0,64.0
496,64.0,30.0,30.0,0.0,64.0
497,63.0,60.0,30.0,0.0,64.0
498,55.0,60.0,120.0,1.0,64.0
499,64.0,30.0,60.0,0.0,64.0
500,65.0,30.0,30.0,0.0,64.0
501,64.0,0.0,30.0,0.0,64.0
502,45.0,60.0,120.0,1.0,64.0
503,65.0,30.0,60.0,0.0,64.0
504,69.0,30.0,30.0,0.0,64.0
505,67.0,0.0,30.0,0.0,64.0
506,69.0,30.0,60.0,0.0,64.0
507,65.0,30.0,30.0,0.0,64.0
508,64.0,60.0,30.0,0.0,64.0
509,57.0,0.0,240.0,1.0,64.0
510,65.0,30.0,60.0,0.0,64.0
511,72.0,30.0,30.0,0.0,64.0
512,71.0,60.0,30.0,0.0,64.0
513,72.0,30.0,60.0,0.0,64.0
514,63.0,30.0,30.0,0.0,64.0
515,61.0,60.0,30.0,0.0,64.0
516,54.0,60.0,120.0,1.0,64.0
517,63.0,30.0,60.0,0.0,64.0
518,66.0,30.0,30.0,0.0,64.0
519,64.0,0.0,30.0,0.0,64.0
520,51.0,0.0,120.0,1.0,64.0
521,66.0,30.0,60.0,0.0,64.0
522,55.0,30.0,30.0,0.0,64.0
523,54.0,60.0,30.0,0.0,64.0
524,55.0,60.0,60.0,0.0,64.0
525,52.0,0.0,120.0,1.0,64.0
526,64.0,60.0,60.0,0.0,64.0
527,60.0,60.0,60.0,0.0,64.0
528,45.0,0.0,120.0,1.0,64.0
529,57.0,60.0,60.0,0.0,64.0
530,47.0,0.0,120.0,1.0,64.0
531,54.0,60.0,60.0,0.0,64.0
532,63.0,60.0,60.0,0.0,64.0
533,64.0,60.0,60.0,0.0,64.0
534,40.0,0.0,120.0,1.0,64.0
535,59.0,60.0,60.0,0.0,64.0
536,55.0,60.0,60.0,0.0,64.0
537,52.0,0.0,60.0,0.0,64.0
538,40.0,60.0,60.0,1.0,64.0
539,52.0,120.0,60.0,1.0,64.0
540,50.0,60.0,120.0,1.0,64.0
541,60.0,60.0,120.0,0.0,64.0
542,48.0,60.0,120.0,1.0,64.0
543,62.0,60.0,120.0,0.0,64.0
544,47.0,60.0,120.0,1.0,64.0
545,64.0,60.0,120.0,0.0,64.0
546,46.0,60.0,120.0,1.0,64.0
547,65.0,60.0,120.0,0.0,64.0
548,45.0,60.0,120.0,1.0,64.0
549,67.0,60.0,120.0,0.0,64.0
550,43.0,60.0,120.0,1.0,64.0
551,69.0,60.0,120.0,0.0,64.0
552,41.0,60.0,120.0,1.0,64.0
553,71.0,60.0,120.0,0.0,64.0
554,40.0,0.0,120.0,1.0,64.0
555,72.0,60.0,60.0,0.0,64.0
556,38.0,30.0,120.0,1.0,64.0
557,71.0,60.0,60.0,0.0,64.0
558,69.0,0.0,60.0,0.0,64.0
559,67.0,60.0,60.0,0.0,64.0
560,40.0,30.0,30.0,1.0,64.0
561,41.0,0.0,30.0,1.0,64.0
562,40.0,30.0,60.0,1.0,64.0
563,72.0,0.0,180.0,0.0,64.0
564,43.0,30.0,30.0,1.0,64.0
565,41.0,60.0,30.0,1.0,64.0
566,43.0,30.0,60.0,1.0,64.0
567,67.0,30.0,30.0,0.0,64.0
568,40.0,0.0,30.0,1.0,64.0
569,38.0,0.0,30.0,1.0,64.0
570,65.0,60.0,30.0,0.0,64.0
571,40.0,0.0,60.0,1.0,64.0
572,67.0,30.0,60.0,0.0,64.0
573,36.0,30.0,30.0,1.0,64.0
574,64.0,0.0,30.0,0.0,64.0
575,62.0,60.0,30.0,0.0,64.0
576,35.0,0.0,30.0,1.0,64.0
577,64.0,60.0,60.0,0.0,64.0
578,36.0,60.0,120.0,1.0,64.0
579,72.0,60.0,120.0,0.0,64.0
580,38.0,60.0,120.0,1.0,64.0
581,71.0,60.0,120.0,0.0,64.0
582,40.0,60.0,120.0,1.0,64.0
583,70.0,60.0,120.0,0.0,64.0
584,41.0,60.0,120.0,1.0,64.0
585,69.0,60.0,120.0,0.0,64.0
586,43.0,60.0,120.0,1.0,64.0
587,67.0,60.0,120.0,0.0,64.0
588,45.0,60.0,120.0,1.0,64.0
589,65.0,60.0,120.0,0.0,64.0
590,47.0,60.0,120.0,1.0,64.0
591,64.0,0.0,120.0,0.0,64.0
592,48.0,60.0,60.0,1.0,64.0
593,47.0,60.0,60.0,1.0,64.0
594,62.0,30.0,120.0,0.0,64.0
595,45.0,0.0,60.0,1.0,64.0
596,64.0,30.0,30.0,0.0,64.0
597,43.0,60.0,60.0,1.0,64.0
598,65.0,0.0,30.0,0.0,64.0
599,64.0,30.0,60.0,0.0,64.0
600,48.0,30.0,180.0,1.0,64.0
601,67.0,30.0,30.0,0.0,64.0
602,65.0,60.0,30.0,0.0,64.0
603,67.0,0.0,60.0,0.0,64.0
604,55.0,30.0,30.0,1.0,64.0
605,64.0,0.0,30.0,0.0,64.0
606,53.0,60.0,30.0,1.0,64.0
607,62.0,0.0,30.0,0.0,64.0
608,55.0,0.0,60.0,1.0,64.0
609,64.0,30.0,60.0,0.0,64.0
610,52.0,0.0,30.0,1.0,64.0
611,60.0,30.0,30.0,0.0,64.0
612,50.0,60.0,30.0,1.0,64.0
613,59.0,0.0,30.0,0.0,64.0
614,60.0,60.0,120.0,0.0,64.0
615,52.0,60.0,60.0,1.0,64.0
616,57.0,60.0,120.0,1.0,64.0
617,62.0,60.0,120.0,0.0,64.0
618,53.0,60.0,120.0,1.0,64.0
619,65.0,60.0,120.0,0.0,64.0
620,50.0,30.0,120.0,1.0,64.0
621,67.0,60.0,120.0,0.0,64.0
622,53.0,30.0,30.0,1.0,64.0
623,52.0,0.0,30.0,1.0,64.0
624,71.0,60.0,120.0,0.0,64.0
625,53.0,60.0,60.0,1.0,64.0
626,50.0,0.0,60.0,1.0,64.0
627,47.0,60.0,60.0,1.0,64.0
628,74.0,60.0,120.0,0.0,64.0
629,43.0,60.0,120.0,1.0,64.0
630,59.0,60.0,120.0,0.0,64.0
631,55.0,60.0,120.0,1.0,64.0
632,60.0,60.0,120.0,0.0,64.0
633,52.0,60.0,120.0,1.0,64.0
634,64.0,60.0,120.0,0.0,64.0
635,48.0,30.0,120.0,1.0,64.0
636,65.0,60.0,120.0,0.0,64.0
637,52.0,30.0,30.0,1.0,64.0
638,50.0,0.0,30.0,1.0,64.0
639,52.0,60.0,60.0,1.0,64.0
640,69.0,0.0,120.0,0.0,64.0
641,48.0,60.0,60.0,1.0,64.0
642,72.0,60.0,120.0,0.0,64.0
643,45.0,60.0,60.0,1.0,64.0
644,41.0,60.0,120.0,1.0,64.0
645,57.0,60.0,120.0,0.0,64.0
646,53.0,60.0,120.0,1.0,64.0
647,62.0,60.0,120.0,0.0,64.0
648,50.0,60.0,120.0,1.0,64.0
649,65.0,60.0,120.0,0.0,64.0
650,47.0,60.0,120.0,1.0,64.0
651,67.0,60.0,120.0,0.0,64.0
652,57.0,60.0,120.0,1.0,64.0
653,69.0,60.0,120.0,0.0,64.0
654,55.0,60.0,120.0,1.0,64.0
655,71.0,60.0,120.0,0.0,64.0
656,53.0,60.0,120.0,1.0,64.0
657,72.0,60.0,120.0,0.0,64.0
658,52.0,60.0,120.0,1.0,64.0
659,69.0,60.0,120.0,0.0,64.0
660,50.0,60.0,120.0,1.0,64.0
661,65.0,0.0,120.0,0.0,64.0
662,48.0,60.0,60.0,1.0,64.0
663,74.0,70.0,420.0,0.0,64.0
664,47.0,30.0,60.0,1.0,64.0
665,53.0,30.0,30.0,1.0,64.0
666,52.0,60.0,30.0,1.0,64.0
667,53.0,30.0,60.0,1.0,64.0
668,47.0,30.0,30.0,1.0,64.0
669,46.0,60.0,30.0,1.0,64.0
670,47.0,30.0,60.0,1.0,64.0
671,52.0,30.0,30.0,1.0,64.0
672,50.0,50.0,30.0,1.0,64.0
673,52.0,60.0,120.0,1.0,64.0
674,72.0,0.0,60.0,0.0,64.0
675,71.0,60.0,60.0,0.0,64.0
676,53.0,60.0,120.0,1.0,64.0
677,69.0,0.0,60.0,0.0,64.0
678,67.0,60.0,60.0,0.0,64.0
679,55.0,0.0,120.0,1.0,64.0
680,65.0,60.0,60.0,0.0,64.0
681,64.0,30.0,60.0,0.0,64.0
682,48.0,60.0,120.0,1.0,64.0
683,60.0,30.0,30.0,0.0,64.0
684,59.0,0.0,30.0,0.0,64.0
685,60.0,30.0,60.0,0.0,64.0
686,60.0,60.0,60.0,1.0,64.0
687,64.0,30.0,30.0,0.0,64.0
688,62.0,0.0,30.0,0.0,64.0
689,64.0,0.0,60.0,0.0,64.0
690,55.0,30.0,60.0,1.0,64.0
691,67.0,30.0,30.0,0.0,64.0
692,52.0,0.0,60.0,1.0,64.0
693,65.0,60.0,30.0,0.0,64.0
694,67.0,0.0,60.0,0.0,64.0
695,48.0,30.0,60.0,1.0,64.0
696,55.0,60.0,60.0,1.0,64.0
697,64.0,30.0,30.0,0.0,64.0
698,62.0,0.0,30.0,0.0,64.0
699,64.0,30.0,60.0,0.0,64.0
700,52.0,0.0,60.0,1.0,64.0
701,48.0,0.0,60.0,1.0,64.0
702,67.0,30.0,30.0,0.0,64.0
703,65.0,60.0,30.0,0.0,64.0
704,43.0,0.0,60.0,1.0,64.0
705,67.0,30.0,60.0,0.0,64.0
706,72.0,30.0,30.0,0.0,64.0
707,40.0,0.0,60.0,1.0,64.0
708,71.0,60.0,30.0,0.0,64.0
709,36.0,0.0,240.0,1.0,64.0
710,72.0,60.0,60.0,0.0,64.0
711,67.0,60.0,60.0,0.0,64.0
712,64.0,60.0,60.0,0.0,64.0
713,60.0,120.0,60.0,0.0,64.0
714,48.0,60.0,120.0,1.0,64.0
715,55.0,120.0,60.0,0.0,64.0
716,55.0,60.0,120.0,1.0,64.0
717,57.0,60.0,120.0,0.0,64.0
718,54.0,60.0,120.0,1.0,64.0
719,59.0,60.0,120.0,0.0,64.0
720,53.0,60.0,120.0,1.0,64.0
721,60.0,60.0,120.0,0.0,64.0
722,52.0,60.0,120.0,1.0,64.0
723,62.0,60.0,120.0,0.0,64.0
724,50.0,60.0,120.0,1.0,64.0
725,64.0,60.0,120.0,0.0,64.0
726,48.0,60.0,120.0,1.0,64.0
727,66.0,60.0,120.0,0.0,64.0
728,47.0,60.0,120.0,1.0,64.0
729,67.0,0.0,60.0,0.0,64.0
730,45.0,0.0,120.0,1.0,64.0
731,66.0,60.0,60.0,0.0,64.0
732,64.0,30.0,60.0,0.0,64.0
733,47.0,30.0,30.0,1.0,64.0
734,62.0,0.0,60.0,0.0,64.0
735,48.0,60.0,30.0,1.0,64.0
736,67.0,0.0,120.0,0.0,64.0
737,47.0,30.0,60.0,1.0,64.0
738,50.0,30.0,30.0,1.0,64.0
739,48.0,60.0,30.0,1.0,64.0
740,55.0,60.0,120.0,0.0,64.0
741,50.0,30.0,60.0,1.0,64.0
742,47.0,30.0,30.0,1.0,64.0
743,45.0,0.0,30.0,1.0,64.0
744,47.0,30.0,60.0,1.0,64.0
745,43.0,30.0,30.0,1.0,64.0
746,42.0,120.0,30.0,1.0,64.0
747,43.0,60.0,120.0,1.0,64.0
748,79.0,60.0,120.0,0.0,64.0
749,45.0,60.0,120.0,1.0,64.0
750,78.0,60.0,120.0,0.0,64.0
751,47.0,60.0,120.0,1.0,64.0
752,77.0,60.0,120.0,0.0,64.0
753,48.0,60.0,120.0,1.0,64.0
754,76.0,60.0,120.0,0.0,64.0
755,50.0,60.0,120.0,1.0,64.0
756,74.0,60.0,120.0,0.0,64.0
757,52.0,60.0,120.0,1.0,64.0
758,72.0,60.0,120.0,0.0,64.0
759,54.0,60.0,120.0,1.0,64.0
760,71.0,60.0,120.0,0.0,64.0
761,55.0,0.0,60.0,1.0,64.0
762,54.0,60.0,60.0,1.0,64.0
763,69.0,0.0,120.0,0.0,64.0
764,52.0,30.0,60.0,1.0,64.0
765,71.0,30.0,30.0,0.0,64.0
766,50.0,0.0,60.0,1.0,64.0
767,72.0,60.0,30.0,0.0,64.0
768,55.0,60.0,120.0,1.0,64.0
769,71.0,30.0,60.0,0.0,64.0
770,74.0,30.0,30.0,0.0,64.0
771,72.0,0.0,30.0,0.0,64.0
772,43.0,0.0,120.0,1.0,64.0
773,74.0,30.0,60.0,0.0,64.0
774,71.0,30.0,30.0,0.0,64.0
775,69.0,60.0,30.0,0.0,64.0
776,71.0,30.0,60.0,0.0,64.0
777,67.0,30.0,30.0,0.0,64.0
778,66.0,60.0,30.0,0.0,64.0
779,52.0,60.0,120.0,1.0,64.0
780,67.0,30.0,60.0,0.0,64.0
781,71.0,30.0,30.0,0.0,64.0
782,69.0,0.0,30.0,0.0,64.0
783,71.0,30.0,60.0,0.0,64.0
784,55.0,60.0,120.0,1.0,64.0
785,76.0,30.0,30.0,0.0,64.0
786,75.0,0.0,30.0,0.0,64.0
787,59.0,0.0,120.0,1.0,64.0
788,76.0,30.0,60.0,0.0,64.0
789,69.0,30.0,30.0,0.0,64.0
790,67.0,60.0,30.0,0.0,64.0
791,51.0,0.0,120.0,1.0,64.0
792,69.0,30.0,60.0,0.0,64.0
793,72.0,30.0,30.0,0.0,64.0
794,71.0,60.0,30.0,0.0,64.0
795,72.0,30.0,60.0,0.0,64.0
796,54.0,60.0,120.0,1.0,64.0
797,78.0,30.0,30.0,0.0,64.0
798,76.0,0.0,30.0,0.0,64.0
799,78.0,30.0,60.0,0.0,64.0
800,59.0,0.0,120.0,1.0,64.0
801,71.0,30.0,30.0,0.0,64.0
802,69.0,60.0,30.0,0.0,64.0
803,71.0,30.0,60.0,0.0,64.0
804,52.0,60.0,120.0,1.0,64.0
805,76.0,30.0,30.0,0.0,64.0
806,75.0,0.0,30.0,0.0,64.0
807,55.0,60.0,120.0,1.0,64.0
808,76.0,30.0,60.0,0.0,64.0
809,79.0,30.0,30.0,0.0,64.0
810,78.0,0.0,30.0,0.0,64.0
811,79.0,30.0,60.0,0.0,64.0
812,59.0,60.0,120.0,1.0,64.0
813,71.0,30.0,30.0,0.0,64.0
814,70.0,0.0,30.0,0.0,64.0
815,71.0,30.0,60.0,0.0,64.0
816,47.0,60.0,120.0,1.0,64.0
817,78.0,30.0,30.0,0.0,64.0
818,76.0,0.0,30.0,0.0,64.0
819,78.0,30.0,60.0,0.0,64.0
820,59.0,0.0,120.0,1.0,64.0
821,75.0,30.0,30.0,0.0,64.0
822,73.0,60.0,30.0,0.0,64.0
823,75.0,30.0,60.0,0.0,64.0
824,57.0,0.0,120.0,1.0,64.0
825,71.0,30.0,30.0,0.0,64.0
826,70.0,60.0,30.0,0.0,64.0
827,56.0,60.0,120.0,1.0,64.0
828,70.0,60.0,60.0,0.0,64.0
829,77.0,60.0,120.0,0.0,64.0
830,57.0,60.0,120.0,1.0,64.0
831,76.0,60.0,120.0,0.0,64.0
832,59.0,60.0,120.0,1.0,64.0
833,74.0,30.0,120.0,0.0,64.0
834,52.0,60.0,120.0,1.0,64.0
835,72.0,30.0,30.0,0.0,64.0
836,71.0,0.0,30.0,0.0,64.0
837,72.0,30.0,60.0,0.0,64.0
838,57.0,0.0,120.0,1.0,64.0
839,69.0,30.0,30.0,0.0,64.0
840,68.0,60.0,30.0,0.0,64.0
841,55.0,60.0,120.0,1.0,64.0
842,69.0,30.0,60.0,0.0,64.0
843,72.0,30.0,30.0,0.0,64.0
844,71.0,0.0,30.0,0.0,64.0
845,72.0,60.0,60.0,0.0,64.0
846,54.0,60.0,120.0,1.0,64.0
847,76.0,60.0,120.0,0.0,64.0
848,55.0,60.0,120.0,1.0,64.0
849,74.0,60.0,120.0,0.0,64.0
850,57.0,60.0,120.0,1.0,64.0
851,72.0,30.0,120.0,0.0,64.0
852,50.0,60.0,120.0,1.0,64.0
853,71.0,30.0,30.0,0.0,64.0
854,69.0,0.0,30.0,0.0,64.0
855,71.0,30.0,60.0,0.0,64.0
856,55.0,60.0,120.0,1.0,64.0
857,67.0,30.0,30.0,0.0,64.0
858,66.0,0.0,30.0,0.0,64.0
859,59.0,0.0,120.0,1.0,64.0
860,67.0,30.0,60.0,0.0,64.0
861,69.0,30.0,30.0,0.0,64.0
862,67.0,60.0,30.0,0.0,64.0
863,69.0,60.0,60.0,0.0,64.0
864,51.0,60.0,120.0,1.0,64.0
865,72.0,60.0,120.0,0.0,64.0
866,52.0,60.0,120.0,1.0,64.0
867,71.0,60.0,120.0,0.0,64.0
868,54.0,60.0,120.0,1.0,64.0
869,69.0,30.0,120.0,0.0,64.0
870,47.0,0.0,120.0,1.0,64.0
871,67.0,30.0,30.0,0.0,64.0
872,66.0,60.0,30.0,0.0,64.0
873,52.0,0.0,120.0,1.0,64.0
874,67.0,30.0,60.0,0.0,64.0
875,64.0,30.0,30.0,0.0,64.0
876,63.0,60.0,30.0,0.0,64.0
877,64.0,30.0,60.0,0.0,64.0
878,55.0,60.0,120.0,1.0,64.0
879,65.0,30.0,30.0,0.0,64.0
880,64.0,0.0,30.0,0.0,64.0
881,65.0,30.0,60.0,0.0,64.0
882,45.0,60.0,120.0,1.0,64.0
883,69.0,30.0,30.0,0.0,64.0
884,67.0,0.0,30.0,0.0,64.0
885,69.0,30.0,60.0,0.0,64.0
886,65.0,30.0,30.0,0.0,64.0
887,64.0,60.0,30.0,0.0,64.0
888,65.0,30.0,60.0,0.0,64.0
889,57.0,0.0,240.0,1.0,64.0
890,72.0,30.0,30.0,0.0,64.0
891,71.0,60.0,30.0,0.0,64.0
892,72.0,30.0,60.0,0.0,64.0
893,63.0,30.0,30.0,0.0,64.0
894,61.0,60.0,30.0,0.0,64.0
895,54.0,0.0,120.0,1.0,64.0
896,63.0,30.0,60.0,0.0,64.0
897,66.0,30.0,30.0,0.0,64.0
898,64.0,60.0,30.0,0.0,64.0
899,66.0,30.0,60.0,0.0,64.0
900,51.0,0.0,120.0,1.0,64.0
901,55.0,30.0,30.0,0.0,64.0
902,54.0,60.0,30.0,0.0,64.0
903,52.0,0.0,120.0,1.0,64.0
904,55.0,60.0,60.0,0.0,64.0
905,64.0,60.0,60.0,0.0,64.0
906,45.0,60.0,120.0,1.0,64.0
907,60.0,60.0,60.0,0.0,64.0
908,57.0,0.0,60.0,0.0,64.0
909,47.0,0.0,120.0,1.0,64.0
910,54.0,60.0,60.0,0.0,64.0
911,63.0,60.0,60.0,0.0,64.0
912,40.0,60.0,120.0,1.0,64.0
913,64.0,60.0,60.0,0.0,64.0
914,59.0,0.0,60.0,0.0,64.0
915,55.0,60.0,60.0,0.0,64.0
916,40.0,0.0,60.0,1.0,64.0
917,52.0,60.0,60.0,0.0,64.0
918,52.0,120.0,60.0,1.0,64.0
919,50.0,60.0,120.0,1.0,64.0
920,60.0,60.0,120.0,0.0,64.0
921,48.0,60.0,120.0,1.0,64.0
922,62.0,60.0,120.0,0.0,64.0
923,47.0,60.0,120.0,1.0,64.0
924,64.0,60.0,120.0,0.0,64.0
925,46.0,60.0,120.0,1.0,64.0
926,65.0,60.0,120.0,0.0,64.0
927,45.0,60.0,120.0,1.0,64.0
928,67.0,60.0,120.0,0.0,64.0
929,43.0,60.0,120.0,1.0,64.0
930,69.0,60.0,120.0,0.0,64.0
931,41.0,60.0,120.0,1.0,64.0
932,71.0,60.0,120.0,0.0,64.0
933,40.0,0.0,120.0,1.0,64.0
934,72.0,60.0,60.0,0.0,64.0
935,71.0,60.0,60.0,0.0,64.0
936,38.0,30.0,120.0,1.0,64.0
937,69.0,0.0,60.0,0.0,64.0
938,67.0,0.0,60.0,0.0,64.0
939,40.0,30.0,30.0,1.0,64.0
940,41.0,60.0,30.0,1.0,64.0
941,40.0,30.0,60.0,1.0,64.0
942,72.0,30.0,180.0,0.0,64.0
943,43.0,30.0,30.0,1.0,64.0
944,41.0,60.0,30.0,1.0,64.0
945,43.0,0.0,60.0,1.0,64.0
946,40.0,30.0,30.0,1.0,64.0
947,67.0,0.0,30.0,0.0,64.0
948,65.0,60.0,30.0,0.0,64.0
949,38.0,0.0,30.0,1.0,64.0
950,67.0,0.0,60.0,0.0,64.0
951,40.0,30.0,60.0,1.0,64.0
952,64.0,0.0,30.0,0.0,64.0
953,36.0,30.0,30.0,1.0,64.0
954,62.0,0.0,30.0,0.0,64.0
955,35.0,60.0,30.0,1.0,64.0
956,36.0,60.0,120.0,1.0,64.0
957,64.0,60.0,60.0,0.0,64.0
958,72.0,60.0,120.0,0.0,64.0
959,38.0,60.0,120.0,1.0,64.0
960,71.0,60.0,120.0,0.0,64.0
961,40.0,60.0,120.0,1.0,64.0
962,70.0,60.0,120.0,0.0,64.0
963,41.0,60.0,120.0,1.0,64.0
964,69.0,60.0,120.0,0.0,64.0
965,43.0,60.0,120.0,1.0,64.0
966,67.0,60.0,120.0,0.0,64.0
967,45.0,60.0,120.0,1.0,64.0
968,65.0,60.0,120.0,0.0,64.0
969,47.0,60.0,120.0,1.0,64.0
970,64.0,60.0,120.0,0.0,64.0
971,48.0,0.0,60.0,1.0,64.0
972,47.0,60.0,60.0,1.0,64.0
973,62.0,30.0,120.0,0.0,64.0
974,45.0,0.0,60.0,1.0,64.0
975,43.0,0.0,60.0,1.0,64.0
976,64.0,30.0,30.0,0.0,64.0
977,65.0,60.0,30.0,0.0,64.0
978,64.0,30.0,60.0,0.0,64.0
979,48.0,0.0,180.0,1.0,64.0
980,67.0,30.0,30.0,0.0,64.0
981,65.0,60.0,30.0,0.0,64.0
982,67.0,30.0,60.0,0.0,64.0
983,55.0,0.0,30.0,1.0,64.0
984,64.0,30.0,30.0,0.0,64.0
985,62.0,0.0,30.0,0.0,64.0
986,53.0,60.0,30.0,1.0,64.0
987,64.0,0.0,60.0,0.0,64.0
988,55.0,30.0,60.0,1.0,64.0
989,52.0,0.0,30.0,1.0,64.0
990,60.0,30.0,30.0,0.0,64.0
991,50.0,0.0,30.0,1.0,64.0
992,59.0,60.0,30.0,0.0,64.0
993,52.0,60.0,60.0,1.0,64.0
994,60.0,60.0,120.0,0.0,64.0
995,57.0,60.0,120.0,1.0,64.0
996,62.0,60.0,120.0,0.0,64.0
997,53.0,60.0,120.0,1.0,64.0
998,65.0,60.0,120.0,0.0,64.0
999,50.0,30.0,120.0,1.0,64.0
1000,67.0,60.0,120.0,0.0,64.0
1001,53.0,30.0,30.0,1.0,64.0
1002,52.0,0.0,30.0,1.0,64.0
1003,71.0,0.0,120.0,0.0,64.0
1004,53.0,60.0,60.0,1.0,64.0
1005,50.0,60.0,60.0,1.0,64.0
1006,47.0,60.0,60.0,1.0,64.0
1007,74.0,60.0,120.0,0.0,64.0
1008,43.0,60.0,120.0,1.0,64.0
1009,59.0,60.0,120.0,0.0,64.0
1010,55.0,60.0,120.0,1.0,64.0
1011,60.0,60.0,120.0,0.0,64.0
1012,52.0,60.0,120.0,1.0,64.0
1013,64.0,60.0,120.0,0.0,64.0
1014,48.0,30.0,120.0,1.0,64.0
1015,65.0,60.0,120.0,0.0,64.0
1016,52.0,30.0,30.0,1.0,64.0
1017,50.0,0.0,30.0,1.0,64.0
1018,52.0,60.0,60.0,1.0,64.0
1019,69.0,60.0,120.0,0.0,64.0
1020,48.0,0.0,60.0,1.0,64.0
1021,45.0,60.0,60.0,1.0,64.0
1022,72.0,60.0,120.0,0.0,64.0
1023,41.0,60.0,120.0,1.0,64.0
1024,57.0,60.0,120.0,0.0,64.0
1025,53.0,60.0,120.0,1.0,64.0
1026,62.0,60.0,120.0,0.0,64.0
1027,50.0,60.0,120.0,1.0,64.0
1028,65.0,60.0,120.0,0.0,64.0
1029,47.0,60.0,120.0,1.0,64.0
1030,67.0,60.0,120.0,0.0,64.0
1031,57.0,60.0,120.0,1.0,64.0
1032,69.0,60.0,120.0,0.0,64.0
1033,55.0,60.0,120.0,1.0,64.0
1034,71.0,60.0,120.0,0.0,64.0
1035,53.0,60.0,120.0,1.0,64.0
1036,72.0,60.0,120.0,0.0,64.0
1037,52.0,60.0,120.0,1.0,64.0
1038,69.0,60.0,120.0,0.0,64.0
1039,50.0,60.0,120.0,1.0,64.0
1040,65.0,60.0,120.0,0.0,64.0
1041,48.0,0.0,60.0,1.0,64.0
1042,47.0,30.0,60.0,1.0,64.0
1043,74.0,0.0,360.0,0.0,64.0
1044,53.0,30.0,30.0,1.0,64.0
1045,52.0,60.0,30.0,1.0,64.0
1046,53.0,30.0,60.0,1.0,64.0
1047,47.0,30.0,30.0,1.0,64.0
1048,46.0,60.0,30.0,1.0,64.0
1049,47.0,30.0,60.0,1.0,64.0
1050,52.0,30.0,30.0,1.0,64.0
1051,50.0,120.0,30.0,1.0,64.0
1052,52.0,0.0,120.0,1.0,64.0
1053,72.0,60.0,60.0,0.0,64.0
1054,71.0,60.0,60.0,0.0,64.0
1055,53.0,60.0,120.0,1.0,64.0
1056,69.0,0.0,60.0,0.0,64.0
1057,67.0,60.0,60.0,0.0,64.0
1058,55.0,60.0,120.0,1.0,64.0
1059,65.0,0.0,60.0,0.0,64.0
1060,48.0,60.0,120.0,1.0,64.0
1061,64.0,30.0,60.0,0.0,64.0
1062,60.0,30.0,30.0,0.0,64.0
1063,59.0,0.0,30.0,0.0,64.0
1064,60.0,30.0,60.0,0.0,64.0
1065,64.0,30.0,30.0,0.0,64.0
1066,60.0,0.0,60.0,1.0,64.0
1067,62.0,60.0,30.0,0.0,64.0
1068,64.0,0.0,60.0,0.0,64.0
1069,55.0,30.0,60.0,1.0,64.0
1070,67.0,30.0,30.0,0.0,64.0
1071,52.0,0.0,60.0,1.0,64.0
1072,65.0,60.0,30.0,0.0,64.0
1073,48.0,30.0,60.0,1.0,64.0
1074,67.0,0.0,60.0,0.0,64.0
1075,55.0,0.0,60.0,1.0,64.0
1076,64.0,30.0,30.0,0.0,64.0
1077,62.0,60.0,30.0,0.0,64.0
1078,52.0,30.0,60.0,1.0,64.0
1079,64.0,0.0,60.0,0.0,64.0
1080,48.0,60.0,60.0,1.0,64.0
1081,67.0,30.0,30.0,0.0,64.0
1082,65.0,0.0,30.0,0.0,64.0
1083,67.0,30.0,60.0,0.0,64.0
1084,43.0,0.0,60.0,1.0,64.0
1085,40.0,0.0,60.0,1.0,64.0
1086,72.0,30.0,30.0,0.0,64.0
1087,71.0,60.0,30.0,0.0,64.0
1088,72.0,60.0,60.0,0.0,64.0
1089,36.0,0.0,240.0,1.0,64.0
1090,67.0,60.0,60.0,0.0,64.0
1091,64.0,60.0,60.0,0.0,64.0
1092,60.0,240.0,60.0,0.0,64.0
1093,48.0,0.0,240.0,1.0,64.0
