,note,step,duration,channel,velocity
0,57.0,96.0,90.0,0.0,0.0
1,58.0,96.0,90.0,0.0,0.0
2,53.0,192.0,90.0,0.0,0.0
3,61.0,96.0,90.0,0.0,0.0
4,60.0,96.0,90.0,0.0,0.0
5,65.0,48.0,90.0,0.0,0.0
6,58.0,48.0,40.0,0.0,0.0
7,60.0,48.0,40.0,0.0,0.0
8,61.0,48.0,40.0,0.0,0.0
9,63.0,48.0,40.0,0.0,0.0
10,65.0,48.0,40.0,0.0,0.0
11,66.0,96.0,40.0,0.0,0.0
12,68.0,0.0,90.0,0.0,0.0
13,50.0,48.0,90.0,0.0,0.0
14,68.0,48.0,40.0,0.0,0.0
15,51.0,48.0,90.0,0.0,0.0
16,66.0,0.0,40.0,0.0,0.0
17,65.0,48.0,40.0,0.0,0.0
18,46.0,48.0,90.0,0.0,0.0
19,63.0,0.0,40.0,0.0,0.0
20,62.0,48.0,40.0,0.0,0.0
21,58.0,96.0,40.0,0.0,0.0
22,63.0,48.0,90.0,0.0,0.0
23,54.0,0.0,90.0,0.0,0.0
24,53.0,48.0,90.0,0.0,0.0
25,63.0,48.0,40.0,0.0,0.0
26,60.0,0.0,40.0,0.0,0.0
27,58.0,48.0,90.0,0.0,0.0
28,62.0,48.0,40.0,0.0,0.0
29,65.0,0.0,40.0,0.0,0.0
30,66.0,0.0,180.0,0.0,0.0
31,51.0,48.0,40.0,0.0,0.0
32,53.0,48.0,40.0,0.0,0.0
33,54.0,48.0,40.0,0.0,0.0
34,56.0,48.0,40.0,0.0,0.0
35,66.0,0.0,40.0,0.0,0.0
36,58.0,48.0,40.0,0.0,0.0
37,63.0,48.0,40.0,0.0,0.0
38,60.0,0.0,40.0,0.0,0.0
39,65.0,48.0,40.0,0.0,0.0
40,61.0,48.0,150.0,0.0,0.0
41,69.0,48.0,40.0,0.0,0.0
42,70.0,0.0,180.0,0.0,0.0
43,60.0,48.0,40.0,0.0,0.0
44,58.0,48.0,40.0,0.0,0.0
45,56.0,48.0,40.0,0.0,0.0
46,54.0,48.0,40.0,0.0,0.0
47,70.0,0.0,40.0,0.0,0.0
48,53.0,0.0,40.0,0.0,0.0
49,68.0,48.0,40.0,0.0,0.0
50,58.0,48.0,180.0,0.0,0.0
51,49.0,0.0,90.0,0.0,0.0
52,66.0,48.0,40.0,0.0,0.0
53,65.0,48.0,40.0,0.0,0.0
54,63.0,48.0,40.0,0.0,0.0
55,48.0,0.0,90.0,0.0,0.0
56,61.0,0.0,40.0,0.0,0.0
57,53.0,0.0,90.0,0.0,0.0
58,57.0,48.0,40.0,0.0,0.0
59,60.0,0.0,90.0,0.0,0.0
60,55.0,48.0,40.0,0.0,0.0
61,65.0,48.0,150.0,0.0,0.0
62,56.0,48.0,40.0,0.0,0.0
63,58.0,48.0,40.0,0.0,0.0
64,45.0,0.0,90.0,0.0,0.0
65,60.0,48.0,150.0,0.0,0.0
66,63.0,48.0,40.0,0.0,0.0
67,46.0,0.0,90.0,0.0,0.0
68,61.0,48.0,90.0,0.0,0.0
69,58.0,0.0,40.0,0.0,0.0
70,41.0,0.0,90.0,0.0,0.0
71,68.0,48.0,90.0,0.0,0.0
72,60.0,48.0,40.0,0.0,0.0
73,62.0,0.0,40.0,0.0,0.0
74,64.0,0.0,90.0,0.0,0.0
75,67.0,48.0,90.0,0.0,0.0
76,60.0,0.0,300.0,0.0,0.0
77,48.0,48.0,40.0,0.0,0.0
78,46.0,0.0,40.0,0.0,0.0
79,72.0,0.0,90.0,0.0,0.0
80,44.0,0.0,40.0,0.0,0.0
81,65.0,48.0,40.0,0.0,0.0
82,43.0,48.0,40.0,0.0,0.0
83,67.0,0.0,40.0,0.0,0.0
84,41.0,48.0,40.0,0.0,0.0
85,68.0,96.0,90.0,0.0,0.0
86,39.0,0.0,40.0,0.0,0.0
87,64.0,0.0,90.0,0.0,0.0
88,67.0,48.0,90.0,0.0,0.0
89,37.0,0.0,90.0,0.0,0.0
90,58.0,0.0,90.0,0.0,0.0
91,56.0,0.0,180.0,0.0,0.0
92,37.0,48.0,40.0,0.0,0.0
93,65.0,48.0,90.0,0.0,0.0
94,39.0,0.0,40.0,0.0,0.0
95,41.0,48.0,40.0,0.0,0.0
96,60.0,0.0,90.0,0.0,0.0
97,43.0,0.0,40.0,0.0,0.0
98,65.0,48.0,15.0,0.0,0.0
99,44.0,0.0,90.0,0.0,0.0
100,63.0,48.0,40.0,0.0,0.0
101,48.0,0.0,40.0,0.0,0.0
102,41.0,0.0,90.0,0.0,0.0
103,53.0,48.0,90.0,0.0,0.0
104,61.0,48.0,40.0,0.0,0.0
105,60.0,0.0,40.0,0.0,0.0
106,58.0,48.0,40.0,0.0,0.0
107,43.0,0.0,90.0,0.0,0.0
108,53.0,48.0,90.0,0.0,0.0
109,56.0,0.0,40.0,0.0,0.0
110,55.0,0.0,150.0,0.0,0.0
111,48.0,48.0,150.0,0.0,0.0
112,51.0,48.0,40.0,0.0,0.0
113,50.0,48.0,40.0,0.0,0.0
114,51.0,48.0,180.0,0.0,0.0
115,57.0,0.0,40.0,0.0,0.0
116,41.0,48.0,40.0,0.0,0.0
117,58.0,0.0,40.0,0.0,0.0
118,43.0,48.0,40.0,0.0,0.0
119,60.0,0.0,40.0,0.0,0.0
120,45.0,0.0,40.0,0.0,0.0
121,61.0,48.0,40.0,0.0,0.0
122,49.0,0.0,40.0,0.0,0.0
123,46.0,48.0,180.0,0.0,0.0
124,51.0,0.0,40.0,0.0,0.0
125,60.0,48.0,40.0,0.0,0.0
126,53.0,48.0,40.0,0.0,0.0
127,61.0,0.0,40.0,0.0,0.0
128,58.0,0.0,40.0,0.0,0.0
129,55.0,0.0,40.0,0.0,0.0
130,60.0,48.0,40.0,0.0,0.0
131,56.0,0.0,180.0,0.0,0.0
132,44.0,0.0,40.0,0.0,0.0
133,46.0,0.0,40.0,0.0,0.0
134,62.0,48.0,40.0,0.0,0.0
135,48.0,48.0,40.0,0.0,0.0
136,63.0,0.0,40.0,0.0,0.0
137,65.0,0.0,40.0,0.0,0.0
138,50.0,48.0,40.0,0.0,0.0
139,66.0,48.0,40.0,0.0,0.0
140,54.0,0.0,40.0,0.0,0.0
141,51.0,0.0,180.0,0.0,0.0
142,56.0,48.0,40.0,0.0,0.0
143,65.0,0.0,40.0,0.0,0.0
144,66.0,0.0,40.0,0.0,0.0
145,58.0,48.0,40.0,0.0,0.0
146,63.0,48.0,40.0,0.0,0.0
147,60.0,0.0,40.0,0.0,0.0
148,65.0,0.0,90.0,0.0,0.0
149,61.0,0.0,180.0,0.0,0.0
150,46.0,48.0,40.0,0.0,0.0
151,48.0,48.0,40.0,0.0,0.0
152,49.0,48.0,40.0,0.0,0.0
153,70.0,48.0,90.0,0.0,0.0
154,51.0,0.0,40.0,0.0,0.0
155,70.0,48.0,40.0,0.0,0.0
156,60.0,0.0,90.0,0.0,0.0
157,68.0,48.0,40.0,0.0,0.0
158,61.0,0.0,40.0,0.0,0.0
159,64.0,0.0,90.0,0.0,0.0
160,70.0,48.0,40.0,0.0,0.0
161,58.0,0.0,40.0,0.0,0.0
162,67.0,0.0,40.0,0.0,0.0
163,60.0,48.0,40.0,0.0,0.0
164,53.0,48.0,15.0,0.0,0.0
165,65.0,0.0,90.0,0.0,0.0
166,68.0,48.0,90.0,0.0,0.0
167,49.0,0.0,40.0,0.0,0.0
168,53.0,0.0,40.0,0.0,0.0
169,51.0,48.0,40.0,0.0,0.0
170,54.0,0.0,90.0,0.0,0.0
171,69.0,0.0,90.0,0.0,0.0
172,60.0,0.0,90.0,0.0,0.0
173,48.0,48.0,40.0,0.0,0.0
174,53.0,0.0,90.0,0.0,0.0
175,70.0,0.0,90.0,0.0,0.0
176,49.0,48.0,40.0,0.0,0.0
177,48.0,48.0,40.0,0.0,0.0
178,66.0,0.0,90.0,0.0,0.0
179,58.0,0.0,90.0,0.0,0.0
180,46.0,48.0,40.0,0.0,0.0
181,63.0,48.0,90.0,0.0,0.0
182,45.0,0.0,40.0,0.0,0.0
183,61.0,0.0,90.0,0.0,0.0
184,46.0,48.0,40.0,0.0,0.0
185,42.0,0.0,40.0,0.0,0.0
186,65.0,48.0,15.0,0.0,0.0
187,44.0,48.0,40.0,0.0,0.0
188,50.0,0.0,90.0,0.0,0.0
189,70.0,0.0,90.0,0.0,0.0
190,41.0,0.0,40.0,0.0,0.0
191,43.0,48.0,40.0,0.0,0.0
192,51.0,0.0,90.0,0.0,0.0
193,63.0,0.0,40.0,0.0,0.0
194,70.0,0.0,150.0,0.0,0.0
195,65.0,48.0,40.0,0.0,0.0
196,45.0,0.0,40.0,0.0,0.0
197,67.0,48.0,40.0,0.0,0.0
198,46.0,0.0,90.0,0.0,0.0
199,72.0,0.0,40.0,0.0,0.0
200,69.0,48.0,40.0,0.0,0.0
201,70.0,0.0,40.0,0.0,0.0
202,53.0,48.0,40.0,0.0,0.0
203,73.0,0.0,40.0,0.0,0.0
204,72.0,0.0,40.0,0.0,0.0
205,75.0,0.0,40.0,0.0,0.0
206,51.0,0.0,40.0,0.0,0.0
207,77.0,0.0,90.0,0.0,0.0
208,49.0,48.0,40.0,0.0,0.0
209,73.0,0.0,90.0,0.0,0.0
210,37.0,48.0,90.0,0.0,0.0
211,48.0,0.0,40.0,0.0,0.0
212,46.0,0.0,40.0,0.0,0.0
213,73.0,48.0,40.0,0.0,0.0
214,39.0,48.0,300.0,0.0,0.0
215,77.0,0.0,90.0,0.0,0.0
216,72.0,0.0,40.0,0.0,0.0
217,44.0,48.0,40.0,0.0,0.0
218,42.0,0.0,150.0,0.0,0.0
219,78.0,0.0,40.0,0.0,0.0
220,70.0,48.0,40.0,0.0,0.0
221,68.0,0.0,40.0,0.0,0.0
222,77.0,48.0,40.0,0.0,0.0
223,75.0,0.0,40.0,0.0,0.0
224,66.0,48.0,40.0,0.0,0.0
225,73.0,0.0,40.0,0.0,0.0
226,65.0,0.0,40.0,0.0,0.0
227,44.0,0.0,40.0,0.0,0.0
228,46.0,48.0,40.0,0.0,0.0
229,75.0,0.0,90.0,0.0,0.0
230,37.0,0.0,40.0,0.0,0.0
231,66.0,0.0,90.0,0.0,0.0
232,39.0,48.0,40.0,0.0,0.0
233,48.0,0.0,40.0,0.0,0.0
234,41.0,48.0,300.0,0.0,0.0
235,66.0,0.0,90.0,0.0,0.0
236,49.0,48.0,40.0,0.0,0.0
237,68.0,0.0,390.0,0.0,0.0
238,51.0,48.0,40.0,0.0,0.0
239,49.0,0.0,180.0,0.0,0.0
240,65.0,48.0,40.0,0.0,0.0
241,63.0,48.0,40.0,0.0,0.0
242,61.0,48.0,40.0,0.0,0.0
243,63.0,0.0,40.0,0.0,0.0
244,51.0,0.0,40.0,0.0,0.0
245,61.0,48.0,40.0,0.0,0.0
246,42.0,0.0,40.0,0.0,0.0
247,44.0,0.0,40.0,0.0,0.0
248,59.0,0.0,40.0,0.0,0.0
249,53.0,48.0,40.0,0.0,0.0
250,46.0,48.0,90.0,0.0,0.0
251,54.0,0.0,180.0,0.0,0.0
252,58.0,48.0,300.0,0.0,0.0
253,68.0,48.0,40.0,0.0,0.0
254,62.0,0.0,40.0,0.0,0.0
255,63.0,48.0,40.0,0.0,0.0
256,48.0,0.0,40.0,0.0,0.0
257,50.0,48.0,40.0,0.0,0.0
258,65.0,0.0,40.0,0.0,0.0
259,54.0,0.0,40.0,0.0,0.0
260,51.0,48.0,40.0,0.0,0.0
261,53.0,0.0,40.0,0.0,0.0
262,49.0,0.0,40.0,0.0,0.0
263,51.0,48.0,40.0,0.0,0.0
264,48.0,0.0,40.0,0.0,0.0
265,60.0,0.0,40.0,0.0,0.0
266,46.0,0.0,40.0,0.0,0.0
267,49.0,0.0,40.0,0.0,0.0
268,61.0,0.0,40.0,0.0,0.0
269,44.0,0.0,90.0,0.0,0.0
270,66.0,48.0,15.0,0.0,0.0
271,48.0,48.0,90.0,0.0,0.0
272,63.0,48.0,40.0,0.0,0.0
273,61.0,0.0,40.0,0.0,0.0
274,46.0,0.0,40.0,0.0,0.0
275,60.0,0.0,40.0,0.0,0.0
276,49.0,48.0,40.0,0.0,0.0
277,58.0,0.0,40.0,0.0,0.0
278,48.0,0.0,40.0,0.0,0.0
279,51.0,48.0,40.0,0.0,0.0
280,56.0,0.0,90.0,0.0,0.0
281,53.0,48.0,90.0,0.0,0.0
282,49.0,48.0,40.0,0.0,0.0
283,48.0,0.0,40.0,0.0,0.0
284,61.0,0.0,90.0,0.0,0.0
285,58.0,0.0,90.0,0.0,0.0
286,46.0,48.0,40.0,0.0,0.0
287,44.0,48.0,40.0,0.0,0.0
288,65.0,0.0,15.0,0.0,0.0
289,46.0,48.0,90.0,0.0,0.0
290,42.0,0.0,90.0,0.0,0.0
291,61.0,0.0,180.0,0.0,0.0
292,70.0,48.0,90.0,0.0,0.0
293,54.0,0.0,40.0,0.0,0.0
294,53.0,48.0,40.0,0.0,0.0
295,69.0,0.0,40.0,0.0,0.0
296,61.0,48.0,40.0,0.0,0.0
297,54.0,0.0,90.0,0.0,0.0
298,62.0,48.0,40.0,0.0,0.0
299,42.0,0.0,90.0,0.0,0.0
300,58.0,0.0,90.0,0.0,0.0
301,63.0,48.0,40.0,0.0,0.0
302,64.0,96.0,40.0,0.0,0.0
303,41.0,48.0,90.0,0.0,0.0
304,60.0,0.0,180.0,0.0,0.0
305,70.0,0.0,15.0,0.0,0.0
306,65.0,48.0,180.0,0.0,0.0
307,69.0,0.0,90.0,0.0,0.0
308,53.0,48.0,40.0,0.0,0.0
309,54.0,0.0,40.0,0.0,0.0
310,53.0,48.0,40.0,0.0,0.0
311,51.0,48.0,40.0,0.0,0.0
312,49.0,48.0,40.0,0.0,0.0
313,48.0,48.0,40.0,0.0,0.0
314,49.0,48.0,40.0,0.0,0.0
315,77.0,48.0,180.0,0.0,0.0
316,48.0,48.0,40.0,0.0,0.0
317,49.0,48.0,40.0,0.0,0.0
318,51.0,0.0,40.0,0.0,0.0
319,70.0,48.0,150.0,0.0,0.0
320,49.0,48.0,40.0,0.0,0.0
321,48.0,48.0,40.0,0.0,0.0
322,46.0,0.0,40.0,0.0,0.0
323,45.0,0.0,40.0,0.0,0.0
324,72.0,48.0,40.0,0.0,0.0
325,73.0,48.0,150.0,0.0,0.0
326,70.0,48.0,180.0,0.0,0.0
327,46.0,48.0,40.0,0.0,0.0
328,34.0,48.0,40.0,0.0,0.0
329,46.0,0.0,40.0,0.0,0.0
330,48.0,0.0,40.0,0.0,0.0
331,75.0,0.0,40.0,0.0,0.0
332,65.0,0.0,150.0,0.0,0.0
333,49.0,48.0,40.0,0.0,0.0
334,77.0,0.0,180.0,0.0,0.0
335,53.0,48.0,40.0,0.0,0.0
336,58.0,48.0,40.0,0.0,0.0
337,67.0,48.0,40.0,0.0,0.0
338,61.0,0.0,40.0,0.0,0.0
339,78.0,0.0,180.0,0.0,0.0
340,69.0,0.0,150.0,0.0,0.0
341,60.0,48.0,40.0,0.0,0.0
342,61.0,48.0,40.0,0.0,0.0
343,63.0,48.0,40.0,0.0,0.0
344,70.0,0.0,40.0,0.0,0.0
345,60.0,48.0,40.0,0.0,0.0
346,77.0,48.0,150.0,0.0,0.0
347,72.0,0.0,180.0,0.0,0.0
348,57.0,48.0,40.0,0.0,0.0
349,58.0,48.0,40.0,0.0,0.0
350,60.0,0.0,40.0,0.0,0.0
351,57.0,96.0,40.0,0.0,0.0
352,75.0,0.0,40.0,0.0,0.0
353,65.0,0.0,180.0,0.0,0.0
354,58.0,96.0,90.0,0.0,0.0
355,46.0,0.0,90.0,0.0,0.0
356,73.0,48.0,15.0,0.0,0.0
357,53.0,0.0,150.0,0.0,0.0
358,72.0,48.0,40.0,0.0,0.0
359,74.0,48.0,40.0,0.0,0.0
360,55.0,0.0,40.0,0.0,0.0
361,76.0,48.0,40.0,0.0,0.0
362,56.0,48.0,150.0,0.0,0.0
363,77.0,24.0,40.0,0.0,0.0
364,75.0,24.0,20.0,0.0,0.0
365,73.0,48.0,20.0,0.0,0.0
366,72.0,48.0,150.0,0.0,0.0
367,58.0,48.0,40.0,0.0,0.0
368,60.0,0.0,180.0,0.0,0.0
369,70.0,48.0,40.0,0.0,0.0
370,68.0,48.0,40.0,0.0,0.0
371,67.0,48.0,40.0,0.0,0.0
372,65.0,48.0,40.0,0.0,0.0
373,61.0,48.0,180.0,0.0,0.0
374,64.0,48.0,40.0,0.0,0.0
375,65.0,48.0,40.0,0.0,0.0
376,67.0,0.0,40.0,0.0,0.0
377,60.0,48.0,150.0,0.0,0.0
378,69.0,48.0,40.0,0.0,0.0
379,70.0,48.0,40.0,0.0,0.0
380,72.0,0.0,40.0,0.0,0.0
381,58.0,0.0,40.0,0.0,0.0
382,73.0,48.0,40.0,0.0,0.0
383,75.0,48.0,40.0,0.0,0.0
384,77.0,48.0,40.0,0.0,0.0
385,78.0,48.0,40.0,0.0,0.0
386,75.0,0.0,40.0,0.0,0.0
387,72.0,0.0,40.0,0.0,0.0
388,57.0,48.0,15.0,0.0,0.0
389,77.0,48.0,40.0,0.0,0.0
390,53.0,0.0,40.0,0.0,0.0
391,55.0,0.0,40.0,0.0,0.0
392,75.0,48.0,40.0,0.0,0.0
393,77.0,0.0,40.0,0.0,0.0
394,57.0,48.0,40.0,0.0,0.0
395,73.0,48.0,40.0,0.0,0.0
396,58.0,0.0,40.0,0.0,0.0
397,75.0,0.0,40.0,0.0,0.0
398,60.0,48.0,40.0,0.0,0.0
399,77.0,48.0,40.0,0.0,0.0
400,61.0,48.0,150.0,0.0,0.0
401,73.0,48.0,40.0,0.0,0.0
402,70.0,0.0,40.0,0.0,0.0
403,75.0,0.0,40.0,0.0,0.0
404,60.0,48.0,40.0,0.0,0.0
405,73.0,0.0,40.0,0.0,0.0
406,58.0,48.0,40.0,0.0,0.0
407,75.0,48.0,40.0,0.0,0.0
408,60.0,0.0,40.0,0.0,0.0
409,72.0,0.0,40.0,0.0,0.0
410,57.0,48.0,40.0,0.0,0.0
411,53.0,48.0,180.0,0.0,0.0
412,58.0,48.0,40.0,0.0,0.0
413,73.0,0.0,40.0,0.0,0.0
414,60.0,48.0,150.0,0.0,0.0
415,75.0,48.0,40.0,0.0,0.0
416,72.0,0.0,40.0,0.0,0.0
417,46.0,48.0,150.0,0.0,0.0
418,73.0,0.0,150.0,0.0,0.0
419,53.0,48.0,40.0,0.0,0.0
420,75.0,0.0,40.0,0.0,0.0
421,48.0,0.0,40.0,0.0,0.0
422,77.0,0.0,150.0,0.0,0.0
423,49.0,48.0,150.0,0.0,0.0
424,58.0,48.0,15.0,0.0,0.0
425,60.0,48.0,40.0,0.0,0.0
426,61.0,48.0,150.0,0.0,0.0
427,75.0,0.0,40.0,0.0,0.0
428,51.0,48.0,40.0,0.0,0.0
429,73.0,0.0,40.0,0.0,0.0
430,53.0,48.0,180.0,0.0,0.0
431,63.0,0.0,40.0,0.0,0.0
432,72.0,48.0,40.0,0.0,0.0
433,70.0,48.0,40.0,0.0,0.0
434,69.0,0.0,40.0,0.0,0.0
435,65.0,0.0,15.0,0.0,0.0
436,54.0,0.0,180.0,0.0,0.0
437,63.0,48.0,40.0,0.0,0.0
438,61.0,48.0,40.0,0.0,0.0
439,60.0,48.0,40.0,0.0,0.0
440,70.0,0.0,15.0,0.0,0.0
441,61.0,0.0,90.0,0.0,0.0
442,53.0,48.0,150.0,0.0,0.0
443,67.0,48.0,40.0,0.0,0.0
444,60.0,0.0,90.0,0.0,0.0
445,69.0,48.0,90.0,0.0,0.0
446,51.0,0.0,40.0,0.0,0.0
447,49.0,0.0,180.0,0.0,0.0
448,70.0,48.0,40.0,0.0,0.0
449,53.0,48.0,90.0,0.0,0.0
450,66.0,0.0,40.0,0.0,0.0
451,55.0,48.0,40.0,0.0,0.0
452,65.0,0.0,40.0,0.0,0.0
453,63.0,48.0,40.0,0.0,0.0
454,57.0,0.0,40.0,0.0,0.0
455,65.0,0.0,150.0,0.0,0.0
456,49.0,48.0,40.0,0.0,0.0
457,61.0,0.0,90.0,0.0,0.0
458,58.0,0.0,180.0,0.0,0.0
459,48.0,48.0,40.0,0.0,0.0
460,49.0,48.0,40.0,0.0,0.0
461,67.0,0.0,40.0,0.0,0.0
462,51.0,0.0,40.0,0.0,0.0
463,68.0,0.0,150.0,0.0,0.0
464,56.0,48.0,150.0,0.0,0.0
465,73.0,48.0,15.0,0.0,0.0
466,53.0,0.0,180.0,0.0,0.0
467,72.0,48.0,40.0,0.0,0.0
468,74.0,0.0,40.0,0.0,0.0
469,76.0,0.0,40.0,0.0,0.0
470,70.0,0.0,40.0,0.0,0.0
471,55.0,48.0,40.0,0.0,0.0
472,72.0,0.0,180.0,0.0,0.0
473,53.0,48.0,40.0,0.0,0.0
474,51.0,48.0,40.0,0.0,0.0
475,49.0,48.0,40.0,0.0,0.0
476,48.0,0.0,40.0,0.0,0.0
477,56.0,0.0,15.0,0.0,0.0
478,46.0,48.0,180.0,0.0,0.0
479,73.0,0.0,180.0,0.0,0.0
480,77.0,48.0,15.0,0.0,0.0
481,56.0,48.0,15.0,0.0,0.0
482,54.0,48.0,40.0,0.0,0.0
483,53.0,0.0,40.0,0.0,0.0
484,72.0,0.0,150.0,0.0,0.0
485,54.0,48.0,150.0,0.0,0.0
486,77.0,48.0,15.0,0.0,0.0
487,75.0,0.0,40.0,0.0,0.0
488,70.0,0.0,40.0,0.0,0.0
489,73.0,48.0,40.0,0.0,0.0
490,58.0,0.0,40.0,0.0,0.0
491,65.0,48.0,180.0,0.0,0.0
492,69.0,0.0,180.0,0.0,0.0
493,51.0,0.0,15.0,0.0,0.0
494,72.0,0.0,90.0,0.0,0.0
495,51.0,48.0,15.0,0.0,0.0
496,77.0,48.0,180.0,0.0,0.0
497,49.0,48.0,40.0,0.0,0.0
498,48.0,0.0,40.0,0.0,0.0
499,49.0,0.0,180.0,0.0,0.0
500,69.0,48.0,40.0,0.0,0.0
501,65.0,0.0,40.0,0.0,0.0
502,75.0,0.0,90.0,0.0,0.0
503,67.0,48.0,40.0,0.0,0.0
504,69.0,48.0,40.0,0.0,0.0
505,73.0,48.0,180.0,0.0,0.0
506,49.0,48.0,40.0,0.0,0.0
507,48.0,48.0,40.0,0.0,0.0
508,49.0,48.0,40.0,0.0,0.0
509,51.0,0.0,40.0,0.0,0.0
510,53.0,48.0,180.0,0.0,0.0
511,70.0,0.0,15.0,0.0,0.0
512,72.0,0.0,180.0,0.0,0.0
513,70.0,48.0,15.0,0.0,0.0
514,68.0,48.0,40.0,0.0,0.0
515,67.0,0.0,40.0,0.0,0.0
516,72.0,0.0,90.0,0.0,0.0
517,53.0,48.0,40.0,0.0,0.0
518,54.0,48.0,40.0,0.0,0.0
519,74.0,48.0,40.0,0.0,0.0
520,53.0,0.0,40.0,0.0,0.0
521,51.0,24.0,60.0,0.0,0.0
522,75.0,0.0,40.0,0.0,0.0
523,68.0,24.0,15.0,0.0,0.0
524,77.0,0.0,90.0,0.0,0.0
525,50.0,0.0,20.0,0.0,0.0
526,51.0,24.0,20.0,0.0,0.0
527,68.0,24.0,15.0,0.0,0.0
528,50.0,0.0,20.0,0.0,0.0
529,51.0,24.0,20.0,0.0,0.0
530,70.0,0.0,90.0,0.0,0.0
531,66.0,24.0,40.0,0.0,0.0
532,50.0,0.0,20.0,0.0,0.0
533,65.0,0.0,40.0,0.0,0.0
534,48.0,24.0,20.0,0.0,0.0
535,50.0,48.0,20.0,0.0,0.0
536,70.0,48.0,90.0,0.0,0.0
537,51.0,48.0,40.0,0.0,0.0
538,53.0,0.0,40.0,0.0,0.0
539,72.0,48.0,40.0,0.0,0.0
540,51.0,0.0,40.0,0.0,0.0
541,49.0,24.0,60.0,0.0,0.0
542,73.0,0.0,40.0,0.0,0.0
543,66.0,24.0,15.0,0.0,0.0
544,75.0,0.0,90.0,0.0,0.0
545,48.0,24.0,20.0,0.0,0.0
546,66.0,0.0,40.0,0.0,0.0
547,49.0,24.0,20.0,0.0,0.0
548,48.0,24.0,20.0,0.0,0.0
549,65.0,24.0,40.0,0.0,0.0
550,68.0,0.0,90.0,0.0,0.0
551,49.0,24.0,20.0,0.0,0.0
552,48.0,0.0,20.0,0.0,0.0
553,63.0,48.0,40.0,0.0,0.0
554,46.0,24.0,20.0,0.0,0.0
555,48.0,0.0,20.0,0.0,0.0
556,68.0,48.0,40.0,0.0,0.0
557,65.0,0.0,180.0,0.0,0.0
558,49.0,48.0,90.0,0.0,0.0
559,67.0,0.0,40.0,0.0,0.0
560,69.0,48.0,40.0,0.0,0.0
561,48.0,0.0,40.0,0.0,0.0
562,70.0,24.0,40.0,0.0,0.0
563,46.0,24.0,60.0,0.0,0.0
564,72.0,24.0,90.0,0.0,0.0
565,65.0,0.0,40.0,0.0,0.0
566,45.0,24.0,20.0,0.0,0.0
567,46.0,24.0,20.0,0.0,0.0
568,63.0,0.0,40.0,0.0,0.0
569,45.0,0.0,20.0,0.0,0.0
570,61.0,0.0,40.0,0.0,0.0
571,65.0,0.0,90.0,0.0,0.0
572,46.0,24.0,20.0,0.0,0.0
573,45.0,24.0,20.0,0.0,0.0
574,43.0,24.0,20.0,0.0,0.0
575,60.0,0.0,40.0,0.0,0.0
576,45.0,48.0,20.0,0.0,0.0
577,46.0,48.0,180.0,0.0,0.0
578,65.0,48.0,40.0,0.0,0.0
579,65.0,48.0,40.0,0.0,0.0
580,70.0,48.0,40.0,0.0,0.0
581,69.0,0.0,40.0,0.0,0.0
582,46.0,48.0,40.0,0.0,0.0
583,70.0,0.0,180.0,0.0,0.0
584,37.0,0.0,40.0,0.0,0.0
585,61.0,48.0,15.0,0.0,0.0
586,42.0,48.0,40.0,0.0,0.0
587,41.0,48.0,40.0,0.0,0.0
588,60.0,48.0,300.0,0.0,0.0
589,39.0,48.0,40.0,0.0,0.0
590,41.0,0.0,40.0,0.0,0.0
591,70.0,48.0,15.0,0.0,0.0
592,42.0,48.0,40.0,0.0,0.0
593,39.0,0.0,40.0,0.0,0.0
594,69.0,48.0,180.0,0.0,0.0
595,36.0,48.0,40.0,0.0,0.0
596,41.0,0.0,40.0,0.0,0.0
597,60.0,0.0,90.0,0.0,0.0
598,39.0,48.0,40.0,0.0,0.0
599,41.0,0.0,40.0,0.0,0.0
600,37.0,0.0,40.0,0.0,0.0
601,65.0,48.0,180.0,0.0,0.0
602,70.0,48.0,40.0,0.0,0.0
603,39.0,48.0,40.0,0.0,0.0
604,66.0,0.0,40.0,0.0,0.0
605,41.0,48.0,40.0,0.0,0.0
606,50.0,0.0,90.0,0.0,0.0
607,68.0,48.0,150.0,0.0,0.0
608,38.0,0.0,40.0,0.0,0.0
609,42.0,48.0,90.0,0.0,0.0
610,51.0,0.0,90.0,0.0,0.0
611,58.0,48.0,150.0,0.0,0.0
612,65.0,0.0,40.0,0.0,0.0
613,46.0,48.0,90.0,0.0,0.0
614,66.0,0.0,90.0,0.0,0.0
615,39.0,0.0,90.0,0.0,0.0
616,60.0,0.0,40.0,0.0,0.0
617,61.0,48.0,150.0,0.0,0.0
618,46.0,0.0,150.0,0.0,0.0
619,66.0,48.0,40.0,0.0,0.0
620,65.0,48.0,40.0,0.0,0.0
621,54.0,0.0,90.0,0.0,0.0
622,70.0,48.0,150.0,0.0,0.0
623,48.0,0.0,40.0,0.0,0.0
624,63.0,48.0,40.0,0.0,0.0
625,49.0,48.0,150.0,0.0,0.0
626,53.0,48.0,90.0,0.0,0.0
627,65.0,48.0,180.0,0.0,0.0
628,69.0,0.0,40.0,0.0,0.0
629,70.0,0.0,90.0,0.0,0.0
630,58.0,0.0,90.0,0.0,0.0
631,50.0,0.0,40.0,0.0,0.0
632,70.0,48.0,40.0,0.0,0.0
633,51.0,0.0,40.0,0.0,0.0
634,66.0,0.0,180.0,0.0,0.0
635,69.0,48.0,40.0,0.0,0.0
636,53.0,0.0,40.0,0.0,0.0
637,70.0,0.0,40.0,0.0,0.0
638,54.0,48.0,40.0,0.0,0.0
639,72.0,0.0,40.0,0.0,0.0
640,56.0,0.0,40.0,0.0,0.0
641,58.0,0.0,40.0,0.0,0.0
642,65.0,0.0,150.0,0.0,0.0
643,49.0,48.0,40.0,0.0,0.0
644,73.0,48.0,150.0,0.0,0.0
645,51.0,0.0,40.0,0.0,0.0
646,60.0,48.0,40.0,0.0,0.0
647,53.0,0.0,90.0,0.0,0.0
648,63.0,0.0,40.0,0.0,0.0
649,72.0,48.0,40.0,0.0,0.0
650,61.0,0.0,15.0,0.0,0.0
651,61.0,48.0,40.0,0.0,0.0
652,54.0,0.0,90.0,0.0,0.0
653,60.0,48.0,40.0,0.0,0.0
654,53.0,0.0,180.0,0.0,0.0
655,58.0,48.0,40.0,0.0,0.0
656,56.0,24.0,60.0,0.0,0.0
657,61.0,24.0,15.0,0.0,0.0
658,70.0,0.0,15.0,0.0,0.0
659,54.0,0.0,20.0,0.0,0.0
660,60.0,0.0,40.0,0.0,0.0
661,56.0,24.0,20.0,0.0,0.0
662,69.0,24.0,40.0,0.0,0.0
663,54.0,0.0,20.0,0.0,0.0
664,70.0,0.0,40.0,0.0,0.0
665,51.0,0.0,90.0,0.0,0.0
666,56.0,24.0,20.0,0.0,0.0
667,61.0,24.0,40.0,0.0,0.0
668,54.0,0.0,20.0,0.0,0.0
669,63.0,0.0,40.0,0.0,0.0
670,72.0,48.0,40.0,0.0,0.0
671,56.0,24.0,20.0,0.0,0.0
672,54.0,0.0,20.0,0.0,0.0
673,53.0,0.0,300.0,0.0,0.0
674,65.0,0.0,90.0,0.0,0.0
675,69.0,0.0,90.0,0.0,0.0
676,51.0,48.0,40.0,0.0,0.0
677,51.0,48.0,40.0,0.0,0.0
678,70.0,48.0,150.0,0.0,0.0
679,49.0,48.0,40.0,0.0,0.0
680,48.0,48.0,40.0,0.0,0.0
681,49.0,48.0,180.0,0.0,0.0
682,68.0,48.0,40.0,0.0,0.0
683,58.0,48.0,40.0,0.0,0.0
684,66.0,0.0,40.0,0.0,0.0
685,56.0,0.0,40.0,0.0,0.0
686,65.0,0.0,40.0,0.0,0.0
687,54.0,48.0,40.0,0.0,0.0
688,63.0,0.0,90.0,0.0,0.0
689,49.0,0.0,90.0,0.0,0.0
690,53.0,48.0,40.0,0.0,0.0
691,48.0,48.0,40.0,0.0,0.0
692,51.0,48.0,180.0,0.0,0.0
693,68.0,48.0,150.0,0.0,0.0
694,46.0,48.0,40.0,0.0,0.0
695,48.0,0.0,180.0,0.0,0.0
696,66.0,0.0,40.0,0.0,0.0
697,65.0,0.0,40.0,0.0,0.0
698,56.0,48.0,40.0,0.0,0.0
699,63.0,48.0,40.0,0.0,0.0
700,54.0,0.0,40.0,0.0,0.0
701,53.0,48.0,40.0,0.0,0.0
702,61.0,0.0,90.0,0.0,0.0
703,48.0,0.0,90.0,0.0,0.0
704,51.0,48.0,40.0,0.0,0.0
705,70.0,48.0,40.0,0.0,0.0
706,49.0,0.0,150.0,0.0,0.0
707,66.0,0.0,180.0,0.0,0.0
708,46.0,0.0,40.0,0.0,0.0
709,72.0,48.0,40.0,0.0,0.0
710,45.0,0.0,40.0,0.0,0.0
711,73.0,48.0,40.0,0.0,0.0
712,48.0,0.0,40.0,0.0,0.0
713,75.0,48.0,40.0,0.0,0.0
714,49.0,0.0,90.0,0.0,0.0
715,65.0,0.0,90.0,0.0,0.0
716,77.0,48.0,40.0,0.0,0.0
717,73.0,0.0,40.0,0.0,0.0
718,46.0,48.0,15.0,0.0,0.0
719,72.0,0.0,90.0,0.0,0.0
720,54.0,0.0,90.0,0.0,0.0
721,75.0,48.0,40.0,0.0,0.0
722,77.0,48.0,40.0,0.0,0.0
723,48.0,0.0,90.0,0.0,0.0
724,78.0,48.0,40.0,0.0,0.0
725,75.0,48.0,40.0,0.0,0.0
726,53.0,48.0,180.0,0.0,0.0
727,72.0,48.0,40.0,0.0,0.0
728,45.0,0.0,180.0,0.0,0.0
729,77.0,48.0,40.0,0.0,0.0
730,75.0,48.0,40.0,0.0,0.0
731,77.0,0.0,40.0,0.0,0.0
732,73.0,0.0,40.0,0.0,0.0
733,46.0,48.0,180.0,0.0,0.0
734,53.0,48.0,40.0,0.0,0.0
735,72.0,0.0,40.0,0.0,0.0
736,51.0,48.0,40.0,0.0,0.0
737,58.0,0.0,90.0,0.0,0.0
738,70.0,48.0,150.0,0.0,0.0
739,49.0,48.0,40.0,0.0,0.0
740,51.0,0.0,40.0,0.0,0.0
741,41.0,0.0,150.0,0.0,0.0
742,53.0,0.0,90.0,0.0,0.0
743,61.0,0.0,90.0,0.0,0.0
744,67.0,48.0,40.0,0.0,0.0
745,56.0,0.0,90.0,0.0,0.0
746,68.0,48.0,40.0,0.0,0.0
747,48.0,48.0,90.0,0.0,0.0
748,70.0,0.0,40.0,0.0,0.0
749,43.0,0.0,40.0,0.0,0.0
750,44.0,0.0,150.0,0.0,0.0
751,72.0,48.0,40.0,0.0,0.0
752,53.0,48.0,150.0,0.0,0.0
753,70.0,48.0,40.0,0.0,0.0
754,65.0,0.0,90.0,0.0,0.0
755,68.0,0.0,150.0,0.0,0.0
756,46.0,48.0,40.0,0.0,0.0
757,55.0,0.0,40.0,0.0,0.0
758,48.0,0.0,180.0,0.0,0.0
759,56.0,48.0,40.0,0.0,0.0
760,63.0,48.0,90.0,0.0,0.0
761,58.0,0.0,40.0,0.0,0.0
762,67.0,0.0,40.0,0.0,0.0
763,56.0,48.0,40.0,0.0,0.0
764,72.0,0.0,90.0,0.0,0.0
765,68.0,48.0,90.0,0.0,0.0
766,55.0,0.0,40.0,0.0,0.0
767,72.0,48.0,90.0,0.0,0.0
768,53.0,0.0,300.0,0.0,0.0
769,49.0,0.0,180.0,0.0,0.0
770,61.0,48.0,40.0,0.0,0.0
771,63.0,0.0,40.0,0.0,0.0
772,65.0,48.0,40.0,0.0,0.0
773,70.0,48.0,90.0,0.0,0.0
774,67.0,0.0,40.0,0.0,0.0
775,48.0,48.0,150.0,0.0,0.0
776,68.0,48.0,40.0,0.0,0.0
777,70.0,0.0,40.0,0.0,0.0
778,52.0,0.0,90.0,0.0,0.0
779,67.0,48.0,90.0,0.0,0.0
780,46.0,0.0,40.0,0.0,0.0
781,53.0,48.0,90.0,0.0,0.0
782,72.0,0.0,15.0,0.0,0.0
783,65.0,0.0,180.0,0.0,0.0
784,70.0,0.0,40.0,0.0,0.0
785,68.0,48.0,40.0,0.0,0.0
786,48.0,0.0,90.0,0.0,0.0
787,67.0,48.0,40.0,0.0,0.0
788,60.0,48.0,90.0,0.0,0.0
789,44.0,0.0,15.0,0.0,0.0
790,65.0,0.0,180.0,0.0,0.0
791,43.0,0.0,40.0,0.0,0.0
792,44.0,48.0,40.0,0.0,0.0
793,58.0,0.0,40.0,0.0,0.0
794,56.0,48.0,40.0,0.0,0.0
795,46.0,0.0,40.0,0.0,0.0
796,48.0,48.0,40.0,0.0,0.0
797,65.0,0.0,40.0,0.0,0.0
798,55.0,0.0,90.0,0.0,0.0
799,62.0,48.0,40.0,0.0,0.0
800,47.0,0.0,40.0,0.0,0.0
801,48.0,48.0,40.0,0.0,0.0
802,64.0,0.0,90.0,0.0,0.0
803,50.0,48.0,40.0,0.0,0.0
804,52.0,48.0,40.0,0.0,0.0
805,53.0,48.0,40.0,0.0,0.0
806,55.0,48.0,40.0,0.0,0.0
807,48.0,48.0,90.0,0.0,0.0
808,56.0,0.0,40.0,0.0,0.0
809,50.0,0.0,40.0,0.0,0.0
810,58.0,48.0,40.0,0.0,0.0
811,52.0,0.0,40.0,0.0,0.0
812,60.0,48.0,40.0,0.0,0.0
813,53.0,48.0,180.0,0.0,0.0
814,61.0,48.0,40.0,0.0,0.0
815,58.0,48.0,40.0,0.0,0.0
816,55.0,48.0,40.0,0.0,0.0
817,60.0,0.0,40.0,0.0,0.0
818,58.0,48.0,40.0,0.0,0.0
819,52.0,0.0,40.0,0.0,0.0
820,50.0,0.0,40.0,0.0,0.0
821,60.0,48.0,40.0,0.0,0.0
822,51.0,48.0,90.0,0.0,0.0
823,57.0,48.0,40.0,0.0,0.0
824,53.0,0.0,40.0,0.0,0.0
825,58.0,0.0,90.0,0.0,0.0
826,65.0,48.0,40.0,0.0,0.0
827,49.0,0.0,90.0,0.0,0.0
828,67.0,48.0,40.0,0.0,0.0
829,69.0,48.0,40.0,0.0,0.0
830,51.0,48.0,90.0,0.0,0.0
831,48.0,0.0,90.0,0.0,0.0
832,70.0,0.0,40.0,0.0,0.0
833,72.0,48.0,40.0,0.0,0.0
834,46.0,0.0,90.0,0.0,0.0
835,54.0,0.0,90.0,0.0,0.0
836,73.0,48.0,40.0,0.0,0.0
837,45.0,0.0,90.0,0.0,0.0
838,48.0,48.0,90.0,0.0,0.0
839,75.0,48.0,40.0,0.0,0.0
840,77.0,0.0,40.0,0.0,0.0
841,46.0,48.0,40.0,0.0,0.0
842,78.0,0.0,40.0,0.0,0.0
843,42.0,48.0,40.0,0.0,0.0
844,75.0,0.0,40.0,0.0,0.0
845,72.0,48.0,40.0,0.0,0.0
846,39.0,48.0,90.0,0.0,0.0
847,77.0,0.0,40.0,0.0,0.0
848,75.0,48.0,40.0,0.0,0.0
849,41.0,48.0,90.0,0.0,0.0
850,45.0,0.0,90.0,0.0,0.0
851,77.0,0.0,40.0,0.0,0.0
852,73.0,48.0,40.0,0.0,0.0
853,34.0,0.0,90.0,0.0,0.0
854,46.0,48.0,90.0,0.0,0.0
855,75.0,0.0,40.0,0.0,0.0
856,73.0,0.0,40.0,0.0,0.0
857,58.0,48.0,40.0,0.0,0.0
858,72.0,0.0,40.0,0.0,0.0
859,60.0,48.0,40.0,0.0,0.0
860,61.0,48.0,40.0,0.0,0.0
861,70.0,0.0,40.0,0.0,0.0
862,63.0,48.0,40.0,0.0,0.0
863,72.0,0.0,40.0,0.0,0.0
864,73.0,0.0,40.0,0.0,0.0
865,65.0,48.0,40.0,0.0,0.0
866,67.0,0.0,40.0,0.0,0.0
867,70.0,48.0,40.0,0.0,0.0
868,72.0,0.0,40.0,0.0,0.0
869,68.0,48.0,40.0,0.0,0.0
870,74.0,48.0,40.0,0.0,0.0
871,70.0,0.0,40.0,0.0,0.0
872,75.0,48.0,180.0,0.0,0.0
873,71.0,48.0,40.0,0.0,0.0
874,68.0,48.0,40.0,0.0,0.0
875,65.0,48.0,40.0,0.0,0.0
876,70.0,0.0,40.0,0.0,0.0
877,74.0,48.0,90.0,0.0,0.0
878,68.0,48.0,40.0,0.0,0.0
879,70.0,0.0,40.0,0.0,0.0
880,75.0,48.0,90.0,0.0,0.0
881,66.0,48.0,40.0,0.0,0.0
882,68.0,0.0,40.0,0.0,0.0
883,39.0,48.0,40.0,0.0,0.0
884,70.0,0.0,90.0,0.0,0.0
885,66.0,0.0,40.0,0.0,0.0
886,65.0,0.0,40.0,0.0,0.0
887,41.0,48.0,40.0,0.0,0.0
888,63.0,48.0,40.0,0.0,0.0
889,42.0,0.0,40.0,0.0,0.0
890,65.0,48.0,40.0,0.0,0.0
891,44.0,0.0,40.0,0.0,0.0
892,46.0,0.0,40.0,0.0,0.0
893,66.0,48.0,40.0,0.0,0.0
894,48.0,48.0,40.0,0.0,0.0
895,63.0,0.0,40.0,0.0,0.0
896,75.0,0.0,15.0,0.0,0.0
897,65.0,48.0,40.0,0.0,0.0
898,49.0,0.0,40.0,0.0,0.0
899,51.0,48.0,40.0,0.0,0.0
900,67.0,0.0,40.0,0.0,0.0
901,73.0,48.0,40.0,0.0,0.0
902,68.0,0.0,180.0,0.0,0.0
903,53.0,0.0,40.0,0.0,0.0
904,72.0,48.0,40.0,0.0,0.0
905,49.0,0.0,40.0,0.0,0.0
906,73.0,0.0,90.0,0.0,0.0
907,46.0,48.0,40.0,0.0,0.0
908,51.0,48.0,40.0,0.0,0.0
909,66.0,0.0,90.0,0.0,0.0
910,70.0,0.0,90.0,0.0,0.0
911,49.0,48.0,40.0,0.0,0.0
912,51.0,48.0,40.0,0.0,0.0
913,48.0,48.0,40.0,0.0,0.0
914,66.0,48.0,90.0,0.0,0.0
915,49.0,0.0,40.0,0.0,0.0
916,60.0,0.0,90.0,0.0,0.0
917,51.0,48.0,40.0,0.0,0.0
918,48.0,48.0,40.0,0.0,0.0
919,44.0,48.0,40.0,0.0,0.0
920,49.0,0.0,40.0,0.0,0.0
921,68.0,48.0,15.0,0.0,0.0
922,48.0,48.0,40.0,0.0,0.0
923,49.0,0.0,40.0,0.0,0.0
924,46.0,48.0,40.0,0.0,0.0
925,65.0,48.0,15.0,0.0,0.0
926,73.0,48.0,180.0,0.0,0.0
927,48.0,0.0,40.0,0.0,0.0
928,49.0,48.0,40.0,0.0,0.0
929,70.0,0.0,90.0,0.0,0.0
930,46.0,0.0,40.0,0.0,0.0
931,43.0,0.0,40.0,0.0,0.0
932,73.0,48.0,40.0,0.0,0.0
933,48.0,0.0,40.0,0.0,0.0
934,75.0,48.0,40.0,0.0,0.0
935,46.0,0.0,40.0,0.0,0.0
936,73.0,48.0,40.0,0.0,0.0
937,75.0,0.0,40.0,0.0,0.0
938,48.0,48.0,40.0,0.0,0.0
939,72.0,48.0,90.0,0.0,0.0
940,63.0,0.0,15.0,0.0,0.0
941,53.0,48.0,180.0,0.0,0.0
942,45.0,0.0,180.0,0.0,0.0
943,63.0,0.0,40.0,0.0,0.0
944,65.0,0.0,90.0,0.0,0.0
945,61.0,48.0,40.0,0.0,0.0
946,60.0,0.0,40.0,0.0,0.0
947,46.0,48.0,150.0,0.0,0.0
948,66.0,0.0,90.0,0.0,0.0
949,61.0,48.0,40.0,0.0,0.0
950,60.0,48.0,40.0,0.0,0.0
951,58.0,0.0,40.0,0.0,0.0
952,61.0,0.0,90.0,0.0,0.0
953,48.0,0.0,40.0,0.0,0.0
954,57.0,0.0,40.0,0.0,0.0
955,58.0,48.0,40.0,0.0,0.0
956,49.0,48.0,150.0,0.0,0.0
957,46.0,48.0,15.0,0.0,0.0
958,60.0,48.0,40.0,0.0,0.0
959,70.0,0.0,90.0,0.0,0.0
960,42.0,0.0,90.0,0.0,0.0
961,61.0,48.0,150.0,0.0,0.0
962,51.0,48.0,40.0,0.0,0.0
963,53.0,0.0,180.0,0.0,0.0
964,49.0,48.0,150.0,0.0,0.0
965,68.0,48.0,90.0,0.0,0.0
966,60.0,0.0,40.0,0.0,0.0
967,73.0,48.0,90.0,0.0,0.0
968,46.0,0.0,40.0,0.0,0.0
969,58.0,0.0,15.0,0.0,0.0
970,54.0,0.0,180.0,0.0,0.0
971,51.0,0.0,150.0,0.0,0.0
972,66.0,48.0,40.0,0.0,0.0
973,68.0,0.0,40.0,0.0,0.0
974,70.0,0.0,40.0,0.0,0.0
975,69.0,0.0,40.0,0.0,0.0
976,51.0,48.0,40.0,0.0,0.0
977,72.0,0.0,40.0,0.0,0.0
978,53.0,48.0,150.0,0.0,0.0
979,70.0,0.0,40.0,0.0,0.0
980,49.0,0.0,150.0,0.0,0.0
981,73.0,48.0,40.0,0.0,0.0
982,72.0,0.0,40.0,0.0,0.0
983,75.0,48.0,40.0,0.0,0.0
984,77.0,0.0,90.0,0.0,0.0
985,48.0,48.0,40.0,0.0,0.0
986,51.0,0.0,40.0,0.0,0.0
987,73.0,0.0,15.0,0.0,0.0
988,77.0,48.0,40.0,0.0,0.0
989,49.0,0.0,180.0,0.0,0.0
990,46.0,48.0,150.0,0.0,0.0
991,75.0,0.0,40.0,0.0,0.0
992,73.0,48.0,15.0,0.0,0.0
993,65.0,0.0,90.0,0.0,0.0
994,72.0,48.0,40.0,0.0,0.0
995,44.0,0.0,40.0,0.0,0.0
996,49.0,48.0,40.0,0.0,0.0
997,42.0,48.0,180.0,0.0,0.0
998,66.0,0.0,90.0,0.0,0.0
999,70.0,0.0,180.0,0.0,0.0
1000,48.0,48.0,40.0,0.0,0.0
1001,49.0,0.0,40.0,0.0,0.0
1002,58.0,48.0,40.0,0.0,0.0
1003,60.0,0.0,40.0,0.0,0.0
1004,51.0,0.0,40.0,0.0,0.0
1005,68.0,0.0,180.0,0.0,0.0
1006,61.0,0.0,40.0,0.0,0.0
1007,53.0,48.0,40.0,0.0,0.0
1008,49.0,0.0,180.0,0.0,0.0
1009,60.0,48.0,40.0,0.0,0.0
1010,56.0,0.0,40.0,0.0,0.0
1011,58.0,0.0,40.0,0.0,0.0
1012,61.0,48.0,40.0,0.0,0.0
1013,60.0,48.0,40.0,0.0,0.0
1014,63.0,0.0,40.0,0.0,0.0
1015,65.0,48.0,150.0,0.0,0.0
1016,68.0,48.0,40.0,0.0,0.0
1017,61.0,0.0,150.0,0.0,0.0
1018,68.0,48.0,40.0,0.0,0.0
1019,70.0,0.0,40.0,0.0,0.0
1020,63.0,0.0,40.0,0.0,0.0
1021,60.0,48.0,40.0,0.0,0.0
1022,72.0,0.0,40.0,0.0,0.0
1023,61.0,48.0,40.0,0.0,0.0
1024,73.0,0.0,180.0,0.0,0.0
1025,58.0,0.0,150.0,0.0,0.0
1026,65.0,48.0,40.0,0.0,0.0
1027,66.0,48.0,40.0,0.0,0.0
1028,56.0,48.0,40.0,0.0,0.0
1029,68.0,0.0,40.0,0.0,0.0
1030,54.0,48.0,150.0,0.0,0.0
1031,73.0,48.0,40.0,0.0,0.0
1032,74.0,0.0,40.0,0.0,0.0
1033,46.0,48.0,40.0,0.0,0.0
1034,75.0,0.0,40.0,0.0,0.0
1035,48.0,0.0,40.0,0.0,0.0
1036,53.0,48.0,40.0,0.0,0.0
1037,77.0,0.0,40.0,0.0,0.0
1038,50.0,0.0,40.0,0.0,0.0
1039,70.0,0.0,15.0,0.0,0.0
1040,78.0,0.0,180.0,0.0,0.0
1041,51.0,48.0,40.0,0.0,0.0
1042,58.0,48.0,40.0,0.0,0.0
1043,60.0,0.0,40.0,0.0,0.0
1044,62.0,96.0,40.0,0.0,0.0
1045,68.0,0.0,40.0,0.0,0.0
1046,63.0,0.0,150.0,0.0,0.0
1047,66.0,48.0,150.0,0.0,0.0
1048,70.0,48.0,40.0,0.0,0.0
1049,72.0,0.0,40.0,0.0,0.0
1050,61.0,0.0,40.0,0.0,0.0
1051,73.0,0.0,40.0,0.0,0.0
1052,65.0,48.0,40.0,0.0,0.0
1053,60.0,0.0,150.0,0.0,0.0
1054,63.0,48.0,40.0,0.0,0.0
1055,67.0,48.0,40.0,0.0,0.0
1056,68.0,48.0,40.0,0.0,0.0
1057,58.0,0.0,40.0,0.0,0.0
1058,70.0,48.0,40.0,0.0,0.0
1059,56.0,0.0,150.0,0.0,0.0
1060,75.0,0.0,15.0,0.0,0.0
1061,48.0,0.0,40.0,0.0,0.0
1062,76.0,48.0,40.0,0.0,0.0
1063,50.0,48.0,40.0,0.0,0.0
1064,77.0,0.0,40.0,0.0,0.0
1065,55.0,0.0,40.0,0.0,0.0
1066,52.0,48.0,40.0,0.0,0.0
1067,79.0,0.0,40.0,0.0,0.0
1068,80.0,0.0,180.0,0.0,0.0
1069,72.0,0.0,15.0,0.0,0.0
1070,53.0,48.0,40.0,0.0,0.0
1071,60.0,48.0,40.0,0.0,0.0
1072,62.0,48.0,40.0,0.0,0.0
1073,64.0,96.0,40.0,0.0,0.0
1074,70.0,0.0,40.0,0.0,0.0
1075,68.0,0.0,150.0,0.0,0.0
1076,65.0,48.0,150.0,0.0,0.0
1077,72.0,48.0,40.0,0.0,0.0
1078,73.0,0.0,40.0,0.0,0.0
1079,75.0,48.0,40.0,0.0,0.0
1080,63.0,0.0,40.0,0.0,0.0
1081,66.0,0.0,40.0,0.0,0.0
1082,61.0,48.0,40.0,0.0,0.0
1083,68.0,0.0,180.0,0.0,0.0
1084,77.0,0.0,180.0,0.0,0.0
1085,60.0,48.0,40.0,0.0,0.0
1086,61.0,48.0,40.0,0.0,0.0
1087,53.0,48.0,90.0,0.0,0.0
1088,56.0,0.0,40.0,0.0,0.0
1089,70.0,0.0,150.0,0.0,0.0
1090,58.0,48.0,40.0,0.0,0.0
1091,54.0,48.0,90.0,0.0,0.0
1092,61.0,48.0,150.0,0.0,0.0
1093,56.0,0.0,40.0,0.0,0.0
1094,58.0,0.0,40.0,0.0,0.0
1095,49.0,0.0,90.0,0.0,0.0
1096,54.0,0.0,40.0,0.0,0.0
1097,63.0,0.0,40.0,0.0,0.0
1098,72.0,48.0,40.0,0.0,0.0
1099,65.0,0.0,150.0,0.0,0.0
1100,53.0,48.0,40.0,0.0,0.0
1101,73.0,48.0,150.0,0.0,0.0
1102,51.0,48.0,40.0,0.0,0.0
1103,49.0,48.0,150.0,0.0,0.0
1104,46.0,0.0,90.0,0.0,0.0
1105,75.0,0.0,40.0,0.0,0.0
1106,66.0,48.0,40.0,0.0,0.0
1107,44.0,0.0,90.0,0.0,0.0
1108,77.0,0.0,180.0,0.0,0.0
1109,68.0,0.0,180.0,0.0,0.0
1110,48.0,48.0,40.0,0.0,0.0
1111,49.0,48.0,40.0,0.0,0.0
1112,53.0,48.0,40.0,0.0,0.0
1113,70.0,0.0,180.0,0.0,0.0
1114,78.0,0.0,180.0,0.0,0.0
1115,53.0,0.0,40.0,0.0,0.0
1116,42.0,48.0,40.0,0.0,0.0
1117,51.0,48.0,40.0,0.0,0.0
1118,44.0,0.0,40.0,0.0,0.0
1119,49.0,48.0,40.0,0.0,0.0
1120,46.0,0.0,40.0,0.0,0.0
1121,48.0,0.0,40.0,0.0,0.0
1122,51.0,48.0,40.0,0.0,0.0
1123,49.0,48.0,40.0,0.0,0.0
1124,68.0,48.0,150.0,0.0,0.0
1125,77.0,0.0,150.0,0.0,0.0
1126,51.0,48.0,40.0,0.0,0.0
1127,53.0,0.0,40.0,0.0,0.0
1128,54.0,0.0,40.0,0.0,0.0
1129,66.0,48.0,40.0,0.0,0.0
1130,75.0,0.0,40.0,0.0,0.0
1131,53.0,48.0,40.0,0.0,0.0
1132,56.0,0.0,300.0,0.0,0.0
1133,65.0,0.0,180.0,0.0,0.0
1134,51.0,48.0,40.0,0.0,0.0
1135,49.0,48.0,40.0,0.0,0.0
1136,48.0,0.0,40.0,0.0,0.0
1137,46.0,0.0,180.0,0.0,0.0
1138,65.0,48.0,40.0,0.0,0.0
1139,73.0,48.0,15.0,0.0,0.0
1140,72.0,0.0,40.0,0.0,0.0
1141,63.0,48.0,40.0,0.0,0.0
1142,73.0,48.0,40.0,0.0,0.0
1143,65.0,0.0,40.0,0.0,0.0
1144,66.0,0.0,40.0,0.0,0.0
1145,75.0,48.0,40.0,0.0,0.0
1146,77.0,48.0,40.0,0.0,0.0
1147,44.0,48.0,180.0,0.0,0.0
1148,68.0,0.0,180.0,0.0,0.0
1149,49.0,0.0,15.0,0.0,0.0
1150,73.0,0.0,40.0,0.0,0.0
1151,46.0,48.0,40.0,0.0,0.0
1152,75.0,48.0,150.0,0.0,0.0
1153,48.0,48.0,40.0,0.0,0.0
1154,51.0,0.0,40.0,0.0,0.0
1155,56.0,0.0,150.0,0.0,0.0
1156,70.0,48.0,40.0,0.0,0.0
1157,72.0,48.0,40.0,0.0,0.0
1158,75.0,96.0,40.0,0.0,0.0
1159,54.0,0.0,40.0,0.0,0.0
1160,53.0,0.0,180.0,0.0,0.0
1161,68.0,48.0,180.0,0.0,0.0
1162,60.0,48.0,40.0,0.0,0.0
1163,61.0,48.0,40.0,0.0,0.0
1164,65.0,0.0,40.0,0.0,0.0
1165,58.0,48.0,90.0,0.0,0.0
1166,53.0,48.0,40.0,0.0,0.0
1167,49.0,0.0,40.0,0.0,0.0
1168,51.0,48.0,40.0,0.0,0.0
1169,60.0,0.0,90.0,0.0,0.0
1170,56.0,0.0,40.0,0.0,0.0
1171,61.0,48.0,150.0,0.0,0.0
1172,66.0,48.0,15.0,0.0,0.0
1173,49.0,0.0,180.0,0.0,0.0
1174,63.0,48.0,40.0,0.0,0.0
1175,65.0,0.0,40.0,0.0,0.0
1176,60.0,48.0,40.0,0.0,0.0
1177,68.0,0.0,40.0,0.0,0.0
1178,73.0,48.0,180.0,0.0,0.0
1179,58.0,48.0,40.0,0.0,0.0
1180,53.0,48.0,40.0,0.0,0.0
1181,54.0,48.0,40.0,0.0,0.0
1182,58.0,0.0,40.0,0.0,0.0
1183,73.0,48.0,90.0,0.0,0.0
1184,54.0,48.0,40.0,0.0,0.0
1185,46.0,0.0,40.0,0.0,0.0
1186,67.0,0.0,90.0,0.0,0.0
1187,48.0,48.0,40.0,0.0,0.0
1188,51.0,0.0,40.0,0.0,0.0
1189,72.0,48.0,180.0,0.0,0.0
1190,45.0,48.0,150.0,0.0,0.0
1191,63.0,48.0,15.0,0.0,0.0
1192,66.0,48.0,40.0,0.0,0.0
1193,65.0,0.0,40.0,0.0,0.0
1194,45.0,0.0,40.0,0.0,0.0
1195,60.0,0.0,40.0,0.0,0.0
1196,46.0,48.0,40.0,0.0,0.0
1197,61.0,0.0,180.0,0.0,0.0
1198,72.0,48.0,90.0,0.0,0.0
1199,48.0,0.0,40.0,0.0,0.0
1200,49.0,48.0,40.0,0.0,0.0
1201,70.0,0.0,90.0,0.0,0.0
1202,53.0,96.0,40.0,0.0,0.0
1203,58.0,0.0,150.0,0.0,0.0
1204,72.0,48.0,40.0,0.0,0.0
1205,73.0,48.0,40.0,0.0,0.0
1206,77.0,96.0,40.0,0.0,0.0
1207,56.0,0.0,40.0,0.0,0.0
1208,70.0,0.0,180.0,0.0,0.0
1209,54.0,0.0,180.0,0.0,0.0
1210,62.0,48.0,40.0,0.0,0.0
1211,63.0,48.0,40.0,0.0,0.0
1212,66.0,48.0,40.0,0.0,0.0
1213,60.0,0.0,90.0,0.0,0.0
1214,54.0,48.0,40.0,0.0,0.0
1215,68.0,0.0,180.0,0.0,0.0
1216,51.0,48.0,40.0,0.0,0.0
1217,62.0,0.0,90.0,0.0,0.0
1218,53.0,48.0,40.0,0.0,0.0
1219,58.0,48.0,40.0,0.0,0.0
1220,51.0,48.0,90.0,0.0,0.0
1221,63.0,0.0,40.0,0.0,0.0
1222,68.0,48.0,40.0,0.0,0.0
1223,62.0,0.0,40.0,0.0,0.0
1224,65.0,0.0,40.0,0.0,0.0
1225,58.0,48.0,40.0,0.0,0.0
1226,63.0,0.0,90.0,0.0,0.0
1227,67.0,0.0,40.0,0.0,0.0
1228,60.0,0.0,40.0,0.0,0.0
1229,69.0,48.0,40.0,0.0,0.0
1230,62.0,48.0,40.0,0.0,0.0
1231,46.0,48.0,150.0,0.0,0.0
1232,66.0,0.0,90.0,0.0,0.0
1233,70.0,0.0,90.0,0.0,0.0
1234,60.0,48.0,40.0,0.0,0.0
1235,65.0,0.0,90.0,0.0,0.0
1236,58.0,0.0,40.0,0.0,0.0
1237,61.0,48.0,90.0,0.0,0.0
1238,48.0,0.0,40.0,0.0,0.0
1239,57.0,0.0,40.0,0.0,0.0
1240,58.0,48.0,40.0,0.0,0.0
1241,49.0,48.0,150.0,0.0,0.0
1242,53.0,48.0,40.0,0.0,0.0
1243,65.0,48.0,150.0,0.0,0.0
1244,70.0,0.0,90.0,0.0,0.0
1245,73.0,0.0,90.0,0.0,0.0
1246,51.0,48.0,40.0,0.0,0.0
1247,72.0,48.0,90.0,0.0,0.0
1248,53.0,0.0,180.0,0.0,0.0
1249,68.0,0.0,90.0,0.0,0.0
1250,60.0,0.0,40.0,0.0,0.0
1251,77.0,0.0,90.0,0.0,0.0
1252,73.0,0.0,90.0,0.0,0.0
1253,58.0,48.0,40.0,0.0,0.0
1254,57.0,48.0,40.0,0.0,0.0
1255,63.0,0.0,90.0,0.0,0.0
1256,66.0,0.0,40.0,0.0,0.0
1257,70.0,48.0,40.0,0.0,0.0
1258,54.0,48.0,180.0,0.0,0.0
1259,72.0,48.0,40.0,0.0,0.0
1260,68.0,0.0,40.0,0.0,0.0
1261,70.0,0.0,40.0,0.0,0.0
1262,73.0,48.0,40.0,0.0,0.0
1263,58.0,0.0,90.0,0.0,0.0
1264,75.0,0.0,40.0,0.0,0.0
1265,72.0,0.0,40.0,0.0,0.0
1266,77.0,48.0,40.0,0.0,0.0
1267,73.0,0.0,40.0,0.0,0.0
1268,53.0,0.0,150.0,0.0,0.0
1269,75.0,48.0,40.0,0.0,0.0
1270,58.0,0.0,40.0,0.0,0.0
1271,78.0,0.0,40.0,0.0,0.0
1272,56.0,48.0,40.0,0.0,0.0
1273,80.0,0.0,90.0,0.0,0.0
1274,77.0,0.0,90.0,0.0,0.0
1275,51.0,0.0,40.0,0.0,0.0
1276,54.0,48.0,40.0,0.0,0.0
1277,80.0,48.0,40.0,0.0,0.0
1278,77.0,0.0,40.0,0.0,0.0
1279,53.0,0.0,150.0,0.0,0.0
1280,75.0,48.0,40.0,0.0,0.0
1281,78.0,0.0,40.0,0.0,0.0
1282,77.0,0.0,40.0,0.0,0.0
1283,73.0,48.0,40.0,0.0,0.0
1284,57.0,0.0,40.0,0.0,0.0
1285,72.0,48.0,40.0,0.0,0.0
1286,75.0,0.0,40.0,0.0,0.0
1287,49.0,0.0,15.0,0.0,0.0
1288,73.0,0.0,180.0,0.0,0.0
1289,70.0,0.0,180.0,0.0,0.0
1290,58.0,0.0,90.0,0.0,0.0
1291,48.0,48.0,40.0,0.0,0.0
1292,49.0,48.0,40.0,0.0,0.0
1293,51.0,48.0,40.0,0.0,0.0
1294,53.0,0.0,15.0,0.0,0.0
1295,69.0,96.0,180.0,0.0,0.0
1296,65.0,48.0,40.0,0.0,0.0
1297,72.0,0.0,180.0,0.0,0.0
1298,60.0,48.0,40.0,0.0,0.0
1299,58.0,48.0,40.0,0.0,0.0
1300,60.0,0.0,40.0,0.0,0.0
1301,61.0,48.0,90.0,0.0,0.0
1302,53.0,0.0,40.0,0.0,0.0
1303,57.0,0.0,90.0,0.0,0.0
1304,51.0,48.0,40.0,0.0,0.0
1305,53.0,96.0,40.0,0.0,0.0
1306,54.0,48.0,90.0,0.0,0.0
1307,58.0,0.0,90.0,0.0,0.0
1308,63.0,0.0,40.0,0.0,0.0
1309,65.0,48.0,40.0,0.0,0.0
1310,50.0,0.0,90.0,0.0,0.0
1311,63.0,0.0,40.0,0.0,0.0
1312,56.0,0.0,90.0,0.0,0.0
1313,53.0,96.0,15.0,0.0,0.0
1314,62.0,0.0,90.0,0.0,0.0
1315,68.0,0.0,40.0,0.0,0.0
1316,70.0,48.0,40.0,0.0,0.0
1317,65.0,0.0,90.0,0.0,0.0
1318,50.0,0.0,90.0,0.0,0.0
1319,46.0,96.0,90.0,0.0,0.0
1320,68.0,0.0,40.0,0.0,0.0
1321,66.0,0.0,180.0,0.0,0.0
1322,51.0,0.0,90.0,0.0,0.0
1323,47.0,48.0,90.0,0.0,0.0
1324,63.0,0.0,40.0,0.0,0.0
1325,56.0,96.0,90.0,0.0,0.0
1326,61.0,48.0,40.0,0.0,0.0
1327,48.0,0.0,90.0,0.0,0.0
1328,63.0,0.0,40.0,0.0,0.0
1329,49.0,0.0,90.0,0.0,0.0
1330,65.0,0.0,90.0,0.0,0.0
1331,56.0,48.0,40.0,0.0,0.0
1332,54.0,48.0,40.0,0.0,0.0
1333,60.0,96.0,90.0,0.0,0.0
1334,56.0,0.0,40.0,0.0,0.0
1335,61.0,48.0,90.0,0.0,0.0
1336,58.0,0.0,90.0,0.0,0.0
1337,73.0,0.0,40.0,0.0,0.0
1338,75.0,48.0,40.0,0.0,0.0
1339,53.0,0.0,90.0,0.0,0.0
1340,68.0,0.0,90.0,0.0,0.0
1341,73.0,96.0,40.0,0.0,0.0
1342,63.0,0.0,90.0,0.0,0.0
1343,56.0,0.0,90.0,0.0,0.0
1344,48.0,48.0,40.0,0.0,0.0
1345,72.0,0.0,15.0,0.0,0.0
1346,57.0,0.0,90.0,0.0,0.0
1347,49.0,48.0,40.0,0.0,0.0
1348,77.0,0.0,90.0,0.0,0.0
1349,48.0,0.0,40.0,0.0,0.0
1350,73.0,48.0,40.0,0.0,0.0
1351,58.0,0.0,90.0,0.0,0.0
1352,46.0,0.0,90.0,0.0,0.0
1353,65.0,48.0,90.0,0.0,0.0
1354,77.0,0.0,40.0,0.0,0.0
1355,56.0,96.0,90.0,0.0,0.0
1356,49.0,48.0,180.0,0.0,0.0
1357,78.0,48.0,40.0,0.0,0.0
1358,77.0,0.0,40.0,0.0,0.0
1359,54.0,0.0,90.0,0.0,0.0
1360,75.0,0.0,90.0,0.0,0.0
1361,70.0,0.0,40.0,0.0,0.0
1362,47.0,0.0,90.0,0.0,0.0
1363,71.0,48.0,40.0,0.0,0.0
1364,51.0,0.0,90.0,0.0,0.0
1365,80.0,48.0,90.0,0.0,0.0
1366,70.0,0.0,40.0,0.0,0.0
1367,53.0,48.0,40.0,0.0,0.0
1368,68.0,0.0,90.0,0.0,0.0
1369,47.0,0.0,90.0,0.0,0.0
1370,56.0,48.0,40.0,0.0,0.0
1371,73.0,0.0,15.0,0.0,0.0
1372,78.0,96.0,90.0,0.0,0.0
1373,46.0,0.0,90.0,0.0,0.0
1374,54.0,48.0,40.0,0.0,0.0
1375,56.0,0.0,40.0,0.0,0.0
1376,66.0,48.0,90.0,0.0,0.0
1377,58.0,0.0,90.0,0.0,0.0
1378,49.0,0.0,40.0,0.0,0.0
1379,53.0,0.0,90.0,0.0,0.0
1380,47.0,48.0,40.0,0.0,0.0
1381,68.0,0.0,90.0,0.0,0.0
1382,49.0,0.0,40.0,0.0,0.0
1383,73.0,96.0,15.0,0.0,0.0
1384,54.0,48.0,90.0,0.0,0.0
1385,51.0,0.0,90.0,0.0,0.0
1386,63.0,0.0,40.0,0.0,0.0
1387,56.0,48.0,150.0,0.0,0.0
1388,44.0,48.0,90.0,0.0,0.0
1389,65.0,48.0,40.0,0.0,0.0
1390,71.0,48.0,180.0,0.0,0.0
1391,63.0,0.0,40.0,0.0,0.0
1392,46.0,0.0,180.0,0.0,0.0
1393,61.0,0.0,90.0,0.0,0.0
1394,53.0,0.0,40.0,0.0,0.0
1395,70.0,0.0,90.0,0.0,0.0
1396,54.0,48.0,40.0,0.0,0.0
1397,66.0,96.0,90.0,0.0,0.0
1398,53.0,0.0,40.0,0.0,0.0
1399,70.0,0.0,90.0,0.0,0.0
1400,47.0,0.0,90.0,0.0,0.0
1401,51.0,48.0,90.0,0.0,0.0
1402,59.0,0.0,40.0,0.0,0.0
1403,61.0,48.0,40.0,0.0,0.0
1404,68.0,48.0,180.0,0.0,0.0
1405,41.0,0.0,90.0,0.0,0.0
1406,56.0,96.0,90.0,0.0,0.0
1407,59.0,0.0,40.0,0.0,0.0
1408,42.0,0.0,180.0,0.0,0.0
1409,58.0,0.0,90.0,0.0,0.0
1410,49.0,0.0,40.0,0.0,0.0
1411,63.0,96.0,90.0,0.0,0.0
1412,51.0,48.0,40.0,0.0,0.0
1413,49.0,0.0,40.0,0.0,0.0
1414,47.0,0.0,90.0,0.0,0.0
1415,66.0,0.0,15.0,0.0,0.0
1416,44.0,48.0,90.0,0.0,0.0
1417,56.0,0.0,40.0,0.0,0.0
1418,53.0,0.0,90.0,0.0,0.0
1419,65.0,48.0,150.0,0.0,0.0
1420,58.0,48.0,40.0,0.0,0.0
1421,38.0,0.0,90.0,0.0,0.0
1422,56.0,48.0,40.0,0.0,0.0
1423,39.0,0.0,180.0,0.0,0.0
1424,54.0,0.0,90.0,0.0,0.0
1425,63.0,0.0,40.0,0.0,0.0
1426,46.0,48.0,40.0,0.0,0.0
1427,75.0,0.0,90.0,0.0,0.0
1428,47.0,48.0,40.0,0.0,0.0
1429,66.0,48.0,90.0,0.0,0.0
1430,45.0,0.0,40.0,0.0,0.0
1431,34.0,48.0,180.0,0.0,0.0
1432,46.0,0.0,90.0,0.0,0.0
1433,75.0,0.0,40.0,0.0,0.0
1434,66.0,48.0,40.0,0.0,0.0
1435,72.0,0.0,40.0,0.0,0.0
1436,63.0,96.0,40.0,0.0,0.0
1437,74.0,0.0,90.0,0.0,0.0
1438,65.0,48.0,150.0,0.0,0.0
1439,58.0,48.0,150.0,0.0,0.0
1440,73.0,0.0,180.0,0.0,0.0
1441,63.0,48.0,40.0,0.0,0.0
1442,61.0,0.0,40.0,0.0,0.0
1443,56.0,0.0,40.0,0.0,0.0
1444,59.0,48.0,40.0,0.0,0.0
1445,55.0,48.0,40.0,0.0,0.0
1446,73.0,0.0,90.0,0.0,0.0
1447,58.0,48.0,90.0,0.0,0.0
1448,53.0,0.0,40.0,0.0,0.0
1449,51.0,0.0,90.0,0.0,0.0
1450,71.0,48.0,40.0,0.0,0.0
1451,63.0,48.0,150.0,0.0,0.0
1452,70.0,48.0,40.0,0.0,0.0
1453,56.0,48.0,150.0,0.0,0.0
1454,61.0,48.0,40.0,0.0,0.0
1455,59.0,0.0,40.0,0.0,0.0
1456,54.0,0.0,40.0,0.0,0.0
1457,58.0,0.0,40.0,0.0,0.0
1458,71.0,48.0,15.0,0.0,0.0
1459,53.0,48.0,40.0,0.0,0.0
1460,56.0,48.0,90.0,0.0,0.0
1461,51.0,0.0,40.0,0.0,0.0
1462,61.0,48.0,150.0,0.0,0.0
1463,49.0,0.0,90.0,0.0,0.0
1464,70.0,48.0,40.0,0.0,0.0
1465,68.0,48.0,40.0,0.0,0.0
1466,54.0,48.0,150.0,0.0,0.0
1467,70.0,0.0,40.0,0.0,0.0
1468,71.0,0.0,40.0,0.0,0.0
1469,59.0,48.0,40.0,0.0,0.0
1470,73.0,48.0,90.0,0.0,0.0
1471,58.0,0.0,40.0,0.0,0.0
1472,56.0,0.0,40.0,0.0,0.0
1473,53.0,0.0,40.0,0.0,0.0
1474,54.0,48.0,150.0,0.0,0.0
1475,51.0,0.0,390.0,0.0,0.0
1476,73.0,48.0,40.0,0.0,0.0
1477,70.0,48.0,40.0,0.0,0.0
1478,72.0,0.0,40.0,0.0,0.0
1479,53.0,0.0,40.0,0.0,0.0
1480,73.0,48.0,40.0,0.0,0.0
1481,54.0,48.0,40.0,0.0,0.0
1482,75.0,48.0,90.0,0.0,0.0
1483,56.0,0.0,40.0,0.0,0.0
1484,58.0,48.0,40.0,0.0,0.0
1485,66.0,0.0,90.0,0.0,0.0
1486,60.0,48.0,40.0,0.0,0.0
1487,66.0,48.0,40.0,0.0,0.0
1488,49.0,48.0,150.0,0.0,0.0
1489,61.0,0.0,90.0,0.0,0.0
1490,63.0,48.0,40.0,0.0,0.0
1491,56.0,0.0,90.0,0.0,0.0
1492,65.0,0.0,40.0,0.0,0.0
1493,66.0,0.0,40.0,0.0,0.0
1494,51.0,48.0,40.0,0.0,0.0
1495,68.0,48.0,40.0,0.0,0.0
1496,53.0,0.0,40.0,0.0,0.0
1497,54.0,48.0,40.0,0.0,0.0
1498,70.0,0.0,40.0,0.0,0.0
1499,56.0,0.0,40.0,0.0,0.0
1500,71.0,48.0,40.0,0.0,0.0
1501,53.0,0.0,40.0,0.0,0.0
1502,68.0,96.0,40.0,0.0,0.0
1503,54.0,0.0,90.0,0.0,0.0
1504,70.0,48.0,90.0,0.0,0.0
1505,68.0,0.0,40.0,0.0,0.0
1506,46.0,48.0,90.0,0.0,0.0
1507,66.0,48.0,40.0,0.0,0.0
1508,49.0,0.0,90.0,0.0,0.0
1509,73.0,0.0,90.0,0.0,0.0
1510,65.0,0.0,40.0,0.0,0.0
1511,66.0,48.0,150.0,0.0,0.0
1512,63.0,48.0,40.0,0.0,0.0
1513,47.0,0.0,90.0,0.0,0.0
1514,51.0,0.0,90.0,0.0,0.0
1515,62.0,48.0,40.0,0.0,0.0
1516,46.0,0.0,90.0,0.0,0.0
1517,42.0,0.0,90.0,0.0,0.0
1518,63.0,0.0,40.0,0.0,0.0
1519,65.0,48.0,40.0,0.0,0.0
1520,68.0,0.0,40.0,0.0,0.0
1521,66.0,48.0,40.0,0.0,0.0
1522,70.0,0.0,150.0,0.0,0.0
1523,65.0,48.0,40.0,0.0,0.0
1524,51.0,48.0,90.0,0.0,0.0
1525,54.0,0.0,90.0,0.0,0.0
1526,66.0,48.0,40.0,0.0,0.0
1527,72.0,0.0,40.0,0.0,0.0
1528,63.0,0.0,40.0,0.0,0.0
1529,73.0,48.0,180.0,0.0,0.0
1530,53.0,48.0,90.0,0.0,0.0
1531,68.0,48.0,40.0,0.0,0.0
1532,49.0,0.0,90.0,0.0,0.0
1533,71.0,0.0,40.0,0.0,0.0
1534,58.0,0.0,90.0,0.0,0.0
1535,70.0,48.0,40.0,0.0,0.0
1536,54.0,0.0,90.0,0.0,0.0
1537,68.0,0.0,40.0,0.0,0.0
1538,51.0,0.0,40.0,0.0,0.0
1539,66.0,48.0,90.0,0.0,0.0
1540,75.0,0.0,180.0,0.0,0.0
1541,47.0,48.0,40.0,0.0,0.0
1542,53.0,0.0,40.0,0.0,0.0
1543,49.0,0.0,40.0,0.0,0.0
1544,54.0,48.0,40.0,0.0,0.0
1545,71.0,0.0,90.0,0.0,0.0
1546,51.0,0.0,40.0,0.0,0.0
1547,53.0,0.0,40.0,0.0,0.0
1548,56.0,48.0,40.0,0.0,0.0
1549,54.0,0.0,40.0,0.0,0.0
1550,73.0,0.0,150.0,0.0,0.0
1551,58.0,48.0,40.0,0.0,0.0
1552,56.0,0.0,40.0,0.0,0.0
1553,59.0,48.0,40.0,0.0,0.0
1554,71.0,0.0,40.0,0.0,0.0
1555,58.0,0.0,90.0,0.0,0.0
1556,70.0,48.0,40.0,0.0,0.0
1557,71.0,0.0,40.0,0.0,0.0
1558,68.0,0.0,40.0,0.0,0.0
1559,58.0,48.0,40.0,0.0,0.0
1560,66.0,0.0,40.0,0.0,0.0
1561,61.0,48.0,15.0,0.0,0.0
1562,65.0,48.0,40.0,0.0,0.0
1563,59.0,0.0,40.0,0.0,0.0
1564,56.0,0.0,40.0,0.0,0.0
1565,63.0,0.0,40.0,0.0,0.0
1566,58.0,48.0,40.0,0.0,0.0
1567,54.0,0.0,40.0,0.0,0.0
1568,53.0,0.0,40.0,0.0,0.0
1569,65.0,48.0,40.0,0.0,0.0
1570,56.0,0.0,40.0,0.0,0.0
1571,70.0,0.0,15.0,0.0,0.0
1572,51.0,0.0,180.0,0.0,0.0
1573,54.0,96.0,180.0,0.0,0.0
1574,66.0,0.0,40.0,0.0,0.0
1575,65.0,0.0,40.0,0.0,0.0
1576,68.0,48.0,40.0,0.0,0.0
1577,66.0,0.0,40.0,0.0,0.0
1578,70.0,48.0,40.0,0.0,0.0
1579,72.0,0.0,40.0,0.0,0.0
1580,63.0,0.0,40.0,0.0,0.0
1581,49.0,48.0,180.0,0.0,0.0
1582,68.0,0.0,90.0,0.0,0.0
1583,53.0,48.0,90.0,0.0,0.0
1584,73.0,0.0,90.0,0.0,0.0
1585,61.0,48.0,40.0,0.0,0.0
1586,63.0,0.0,40.0,0.0,0.0
1587,65.0,48.0,40.0,0.0,0.0
1588,59.0,0.0,90.0,0.0,0.0
1589,66.0,48.0,40.0,0.0,0.0
1590,58.0,48.0,90.0,0.0,0.0
1591,68.0,48.0,40.0,0.0,0.0
1592,61.0,0.0,90.0,0.0,0.0
1593,70.0,0.0,40.0,0.0,0.0
1594,71.0,48.0,40.0,0.0,0.0
1595,63.0,0.0,40.0,0.0,0.0
1596,56.0,0.0,180.0,0.0,0.0
1597,65.0,0.0,40.0,0.0,0.0
1598,73.0,48.0,40.0,0.0,0.0
1599,66.0,0.0,180.0,0.0,0.0
1600,75.0,48.0,40.0,0.0,0.0
1601,71.0,48.0,40.0,0.0,0.0
1602,61.0,48.0,180.0,0.0,0.0
1603,68.0,48.0,40.0,0.0,0.0
1604,73.0,48.0,40.0,0.0,0.0
1605,71.0,48.0,40.0,0.0,0.0
1606,65.0,0.0,90.0,0.0,0.0
1607,73.0,0.0,40.0,0.0,0.0
1608,70.0,0.0,40.0,0.0,0.0
1609,65.0,0.0,90.0,0.0,0.0
1610,54.0,48.0,40.0,0.0,0.0
1611,71.0,0.0,40.0,0.0,0.0
1612,56.0,48.0,40.0,0.0,0.0
1613,73.0,48.0,40.0,0.0,0.0
1614,58.0,0.0,40.0,0.0,0.0
1615,54.0,0.0,40.0,0.0,0.0
1616,70.0,48.0,40.0,0.0,0.0
1617,66.0,48.0,40.0,0.0,0.0
1618,59.0,0.0,40.0,0.0,0.0
1619,58.0,0.0,40.0,0.0,0.0
1620,63.0,0.0,40.0,0.0,0.0
1621,56.0,48.0,40.0,0.0,0.0
1622,65.0,0.0,40.0,0.0,0.0
1623,75.0,48.0,90.0,0.0,0.0
1624,66.0,0.0,40.0,0.0,0.0
1625,54.0,0.0,40.0,0.0,0.0
1626,53.0,0.0,40.0,0.0,0.0
1627,68.0,48.0,40.0,0.0,0.0
1628,75.0,0.0,90.0,0.0,0.0
1629,54.0,48.0,40.0,0.0,0.0
1630,70.0,0.0,40.0,0.0,0.0
1631,71.0,0.0,40.0,0.0,0.0
1632,75.0,48.0,180.0,0.0,0.0
1633,56.0,48.0,40.0,0.0,0.0
1634,68.0,0.0,40.0,0.0,0.0
1635,53.0,48.0,40.0,0.0,0.0
1636,65.0,48.0,40.0,0.0,0.0
1637,58.0,0.0,90.0,0.0,0.0
1638,70.0,0.0,40.0,0.0,0.0
1639,68.0,48.0,40.0,0.0,0.0
1640,46.0,0.0,90.0,0.0,0.0
1641,74.0,48.0,90.0,0.0,0.0
1642,70.0,0.0,40.0,0.0,0.0
1643,51.0,48.0,90.0,0.0,0.0
1644,66.0,0.0,180.0,0.0,0.0
1645,75.0,48.0,40.0,0.0,0.0
1646,73.0,0.0,40.0,0.0,0.0
1647,71.0,48.0,40.0,0.0,0.0
1648,63.0,48.0,150.0,0.0,0.0
1649,70.0,48.0,40.0,0.0,0.0
1650,65.0,0.0,90.0,0.0,0.0
1651,69.0,48.0,90.0,0.0,0.0
1652,61.0,0.0,40.0,0.0,0.0
1653,60.0,48.0,40.0,0.0,0.0
1654,70.0,0.0,90.0,0.0,0.0
1655,58.0,0.0,40.0,0.0,0.0
1656,57.0,48.0,40.0,0.0,0.0
1657,66.0,48.0,15.0,0.0,0.0
1658,65.0,0.0,40.0,0.0,0.0
1659,58.0,48.0,40.0,0.0,0.0
1660,60.0,0.0,40.0,0.0,0.0
1661,63.0,48.0,40.0,0.0,0.0
1662,57.0,48.0,40.0,0.0,0.0
1663,65.0,0.0,40.0,0.0,0.0
1664,72.0,0.0,15.0,0.0,0.0
1665,61.0,0.0,180.0,0.0,0.0
1666,58.0,48.0,40.0,0.0,0.0
1667,56.0,48.0,40.0,0.0,0.0
1668,65.0,0.0,40.0,0.0,0.0
1669,54.0,0.0,40.0,0.0,0.0
1670,70.0,48.0,40.0,0.0,0.0
1671,53.0,48.0,40.0,0.0,0.0
1672,68.0,0.0,40.0,0.0,0.0
1673,51.0,48.0,40.0,0.0,0.0
1674,61.0,0.0,40.0,0.0,0.0
1675,65.0,48.0,40.0,0.0,0.0
1676,46.0,0.0,40.0,0.0,0.0
1677,48.0,0.0,40.0,0.0,0.0
1678,63.0,48.0,40.0,0.0,0.0
1679,49.0,48.0,40.0,0.0,0.0
1680,61.0,0.0,40.0,0.0,0.0
1681,60.0,0.0,90.0,0.0,0.0
1682,51.0,48.0,40.0,0.0,0.0
1683,53.0,48.0,40.0,0.0,0.0
1684,54.0,48.0,40.0,0.0,0.0
1685,58.0,0.0,90.0,0.0,0.0
1686,51.0,48.0,40.0,0.0,0.0
1687,66.0,0.0,15.0,0.0,0.0
1688,57.0,48.0,40.0,0.0,0.0
1689,66.0,0.0,40.0,0.0,0.0
1690,58.0,48.0,40.0,0.0,0.0
1691,65.0,48.0,40.0,0.0,0.0
1692,60.0,48.0,150.0,0.0,0.0
1693,63.0,48.0,40.0,0.0,0.0
1694,61.0,48.0,150.0,0.0,0.0
1695,60.0,48.0,40.0,0.0,0.0
1696,61.0,48.0,40.0,0.0,0.0
1697,53.0,0.0,15.0,0.0,0.0
1698,60.0,48.0,40.0,0.0,0.0
1699,58.0,0.0,15.0,0.0,0.0
1700,65.0,48.0,90.0,0.0,0.0
1701,53.0,0.0,90.0,0.0,0.0
1702,57.0,48.0,90.0,0.0,0.0
1703,63.0,0.0,40.0,0.0,0.0
1704,54.0,0.0,90.0,0.0,0.0
1705,61.0,48.0,40.0,0.0,0.0
1706,46.0,48.0,150.0,0.0,0.0
1707,58.0,48.0,90.0,0.0,0.0
1708,60.0,0.0,40.0,0.0,0.0
1709,53.0,0.0,90.0,0.0,0.0
1710,61.0,0.0,40.0,0.0,0.0
1711,48.0,0.0,40.0,0.0,0.0
1712,63.0,0.0,40.0,0.0,0.0
1713,65.0,48.0,40.0,0.0,0.0
1714,49.0,48.0,15.0,0.0,0.0
1715,63.0,48.0,40.0,0.0,0.0
1716,65.0,0.0,40.0,0.0,0.0
1717,58.0,0.0,90.0,0.0,0.0
1718,61.0,0.0,90.0,0.0,0.0
1719,51.0,0.0,40.0,0.0,0.0
1720,66.0,48.0,40.0,0.0,0.0
1721,60.0,48.0,90.0,0.0,0.0
1722,68.0,48.0,40.0,0.0,0.0
1723,56.0,0.0,90.0,0.0,0.0
1724,53.0,0.0,180.0,0.0,0.0
1725,70.0,0.0,40.0,0.0,0.0
1726,61.0,0.0,90.0,0.0,0.0
1727,71.0,48.0,40.0,0.0,0.0
1728,65.0,48.0,90.0,0.0,0.0
1729,68.0,0.0,40.0,0.0,0.0
1730,70.0,48.0,180.0,0.0,0.0
1731,58.0,0.0,40.0,0.0,0.0
1732,54.0,48.0,40.0,0.0,0.0
1733,60.0,0.0,40.0,0.0,0.0
1734,56.0,48.0,40.0,0.0,0.0
1735,61.0,0.0,40.0,0.0,0.0
1736,58.0,48.0,40.0,0.0,0.0
1737,63.0,0.0,40.0,0.0,0.0
1738,60.0,0.0,40.0,0.0,0.0
1739,65.0,0.0,40.0,0.0,0.0
1740,61.0,48.0,40.0,0.0,0.0
1741,53.0,0.0,150.0,0.0,0.0
1742,63.0,48.0,40.0,0.0,0.0
1743,66.0,0.0,40.0,0.0,0.0
1744,68.0,0.0,15.0,0.0,0.0
1745,73.0,48.0,40.0,0.0,0.0
1746,72.0,48.0,40.0,0.0,0.0
1747,51.0,0.0,40.0,0.0,0.0
1748,65.0,0.0,15.0,0.0,0.0
1749,73.0,0.0,150.0,0.0,0.0
1750,68.0,48.0,40.0,0.0,0.0
1751,66.0,48.0,40.0,0.0,0.0
1752,63.0,0.0,40.0,0.0,0.0
1753,61.0,0.0,40.0,0.0,0.0
1754,65.0,48.0,40.0,0.0,0.0
1755,60.0,0.0,40.0,0.0,0.0
1756,63.0,48.0,40.0,0.0,0.0
1757,69.0,0.0,40.0,0.0,0.0
1758,61.0,0.0,40.0,0.0,0.0
1759,49.0,0.0,15.0,0.0,0.0
1760,70.0,0.0,180.0,0.0,0.0
1761,58.0,48.0,150.0,0.0,0.0
1762,48.0,48.0,40.0,0.0,0.0
1763,63.0,0.0,40.0,0.0,0.0
1764,65.0,0.0,90.0,0.0,0.0
1765,49.0,0.0,40.0,0.0,0.0
1766,60.0,0.0,40.0,0.0,0.0
1767,51.0,96.0,40.0,0.0,0.0
1768,70.0,0.0,150.0,0.0,0.0
1769,53.0,0.0,390.0,0.0,0.0
1770,61.0,48.0,90.0,0.0,0.0
1771,60.0,48.0,40.0,0.0,0.0
1772,58.0,48.0,40.0,0.0,0.0
1773,70.0,96.0,150.0,0.0,0.0
1774,60.0,48.0,40.0,0.0,0.0
1775,61.0,0.0,40.0,0.0,0.0
1776,69.0,0.0,90.0,0.0,0.0
1777,63.0,0.0,90.0,0.0,0.0
1778,65.0,96.0,15.0,0.0,0.0
1779,46.0,0.0,300.0,0.0,0.0
1780,70.0,0.0,300.0,0.0,0.0
1781,63.0,192.0,90.0,0.0,0.0
1782,62.0,0.0,180.0,0.0,0.0
