tick,type,tempo,time,meta,track,numerator,denominator,clocks_per_click,notated_32nd_notes_per_beat,program,channel,control,value,note,velocity
0,set_tempo,1333333,0,1,0,,,,,,,,,,
0,control_change,,0,0,4,,,,,,3,7,120,,
0,control_change,,0,0,4,,,,,,3,10,64,,
0,control_change,,0,0,3,,,,,,2,10,127,,
0,control_change,,0,0,3,,,,,,2,7,120,,
0,program_change,,0,0,3,,,,,88,2,,,,
0,track_name,,0,1,3,,,,,,,,,,
0,program_change,,0,0,4,,,,,48,3,,,,
0,control_change,,0,0,2,,,,,,1,10,64,,
0,control_change,,0,0,2,,,,,,1,7,80,,
0,program_change,,0,0,2,,,,,71,1,,,,
0,track_name,,0,1,2,,,,,,,,,,
0,track_name,,0,1,4,,,,,,,,,,
0,time_signature,,0,1,0,4,4,24,8,,,,,,
0,track_name,,0,1,1,,,,,,,,,,
0,program_change,,0,0,1,,,,,61,0,,,,
0,control_change,,0,0,1,,,,,,0,7,115,,
0,control_change,,0,0,1,,,,,,0,10,1,,
0,end_of_track,,0,1,0,,,,,,,,,,
240,note_on,,240,0,4,,,,,,3,,,55,80
240,note_on,,240,0,2,,,,,,1,,,55,80
344,note_on,,104,0,4,,,,,,3,,,55,0
344,note_on,,104,0,2,,,,,,1,,,55,0
360,note_on,,16,0,4,,,,,,3,,,50,80
360,note_on,,16,0,2,,,,,,1,,,50,80
412,note_on,,52,0,4,,,,,,3,,,50,0
412,note_on,,52,0,2,,,,,,1,,,50,0
420,note_on,,8,0,2,,,,,,1,,,55,80
420,note_on,,8,0,4,,,,,,3,,,55,80
472,note_on,,52,0,2,,,,,,1,,,55,0
472,note_on,,52,0,4,,,,,,3,,,55,0
480,note_on,,8,0,4,,,,,,3,,,57,80
480,note_on,,8,0,2,,,,,,1,,,57,80
584,note_on,,104,0,2,,,,,,1,,,57,0
584,note_on,,104,0,4,,,,,,3,,,57,0
600,note_on,,16,0,4,,,,,,3,,,50,80
600,note_on,,16,0,2,,,,,,1,,,50,80
652,note_on,,52,0,2,,,,,,1,,,50,0
652,note_on,,52,0,4,,,,,,3,,,50,0
660,note_on,,8,0,2,,,,,,1,,,57,80
660,note_on,,8,0,4,,,,,,3,,,57,80
712,note_on,,52,0,2,,,,,,1,,,57,0
712,note_on,,52,0,4,,,,,,3,,,57,0
720,note_on,,8,0,2,,,,,,1,,,58,80
720,note_on,,8,0,4,,,,,,3,,,58,80
772,note_on,,52,0,2,,,,,,1,,,58,0
772,note_on,,52,0,4,,,,,,3,,,58,0
780,note_on,,8,0,2,,,,,,1,,,62,80
780,note_on,,8,0,4,,,,,,3,,,62,80
832,note_on,,52,0,2,,,,,,1,,,62,0
832,note_on,,52,0,4,,,,,,3,,,62,0
840,note_on,,8,0,4,,,,,,3,,,58,80
840,note_on,,8,0,2,,,,,,1,,,58,80
892,note_on,,52,0,4,,,,,,3,,,58,0
892,note_on,,52,0,2,,,,,,1,,,58,0
900,note_on,,8,0,4,,,,,,3,,,55,80
900,note_on,,8,0,2,,,,,,1,,,55,80
952,note_on,,52,0,4,,,,,,3,,,55,0
952,note_on,,52,0,2,,,,,,1,,,55,0
960,note_on,,8,0,4,,,,,,3,,,54,80
960,note_on,,8,0,2,,,,,,1,,,54,80
1012,note_on,,52,0,4,,,,,,3,,,54,0
1012,note_on,,52,0,2,,,,,,1,,,54,0
1020,note_on,,8,0,4,,,,,,3,,,57,80
1020,note_on,,8,0,2,,,,,,1,,,57,80
1072,note_on,,52,0,4,,,,,,3,,,57,0
1072,note_on,,52,0,2,,,,,,1,,,57,0
1080,note_on,,8,0,4,,,,,,3,,,54,80
1080,note_on,,8,0,2,,,,,,1,,,54,80
1132,note_on,,52,0,2,,,,,,1,,,54,0
1132,note_on,,52,0,4,,,,,,3,,,54,0
1140,note_on,,8,0,2,,,,,,1,,,50,80
1140,note_on,,8,0,4,,,,,,3,,,50,80
1192,note_on,,52,0,4,,,,,,3,,,50,0
1192,note_on,,52,0,2,,,,,,1,,,50,0
1200,note_on,,8,0,2,,,,,,1,,,55,80
1200,note_on,,8,0,4,,,,,,3,,,55,80
1252,note_on,,52,0,4,,,,,,3,,,55,0
1252,note_on,,52,0,2,,,,,,1,,,55,0
1260,note_on,,8,0,2,,,,,,1,,,58,80
1260,note_on,,8,0,4,,,,,,3,,,58,80
1312,note_on,,52,0,4,,,,,,3,,,58,0
1312,note_on,,52,0,2,,,,,,1,,,58,0
1320,note_on,,8,0,2,,,,,,1,,,55,80
1320,note_on,,8,0,4,,,,,,3,,,55,80
1372,note_on,,52,0,2,,,,,,1,,,55,0
1372,note_on,,52,0,4,,,,,,3,,,55,0
1380,note_on,,8,0,2,,,,,,1,,,50,80
1380,note_on,,8,0,4,,,,,,3,,,50,80
1432,note_on,,52,0,2,,,,,,1,,,50,0
1432,note_on,,52,0,4,,,,,,3,,,50,0
1440,note_on,,8,0,2,,,,,,1,,,51,80
1440,note_on,,8,0,4,,,,,,3,,,51,80
1492,note_on,,52,0,4,,,,,,3,,,51,0
1492,note_on,,52,0,2,,,,,,1,,,51,0
1500,note_on,,8,0,4,,,,,,3,,,50,80
1500,note_on,,8,0,2,,,,,,1,,,50,80
1552,note_on,,52,0,4,,,,,,3,,,50,0
1552,note_on,,52,0,2,,,,,,1,,,50,0
1560,note_on,,8,0,2,,,,,,1,,,51,80
1560,note_on,,8,0,4,,,,,,3,,,51,80
1612,note_on,,52,0,4,,,,,,3,,,51,0
1612,note_on,,52,0,2,,,,,,1,,,51,0
1620,note_on,,8,0,4,,,,,,3,,,48,80
1620,note_on,,8,0,2,,,,,,1,,,48,80
1672,note_on,,52,0,2,,,,,,1,,,48,0
1672,note_on,,52,0,4,,,,,,3,,,48,0
1680,note_on,,8,0,4,,,,,,3,,,53,80
1680,note_on,,8,0,2,,,,,,1,,,53,80
1732,note_on,,52,0,4,,,,,,3,,,53,0
1732,note_on,,52,0,2,,,,,,1,,,53,0
1740,note_on,,8,0,4,,,,,,3,,,57,80
1740,note_on,,8,0,2,,,,,,1,,,57,80
1792,note_on,,52,0,2,,,,,,1,,,57,0
1792,note_on,,52,0,4,,,,,,3,,,57,0
1800,note_on,,8,0,4,,,,,,3,,,53,80
1800,note_on,,8,0,2,,,,,,1,,,53,80
1852,note_on,,52,0,4,,,,,,3,,,53,0
1852,note_on,,52,0,2,,,,,,1,,,53,0
1860,note_on,,8,0,4,,,,,,3,,,48,80
1860,note_on,,8,0,2,,,,,,1,,,48,80
1912,note_on,,52,0,4,,,,,,3,,,48,0
1912,note_on,,52,0,2,,,,,,1,,,48,0
1920,note_on,,8,0,4,,,,,,3,,,50,80
1920,note_on,,8,0,2,,,,,,1,,,50,80
1972,note_on,,52,0,4,,,,,,3,,,50,0
1972,note_on,,52,0,2,,,,,,1,,,50,0
1980,note_on,,8,0,4,,,,,,3,,,48,80
1980,note_on,,8,0,2,,,,,,1,,,48,80
2032,note_on,,52,0,4,,,,,,3,,,48,0
2032,note_on,,52,0,2,,,,,,1,,,48,0
2040,note_on,,8,0,2,,,,,,1,,,50,80
2040,note_on,,8,0,4,,,,,,3,,,50,80
2092,note_on,,52,0,4,,,,,,3,,,50,0
2092,note_on,,52,0,2,,,,,,1,,,50,0
2100,note_on,,8,0,4,,,,,,3,,,46,80
2100,note_on,,8,0,2,,,,,,1,,,46,80
2152,note_on,,52,0,2,,,,,,1,,,46,0
2152,note_on,,52,0,4,,,,,,3,,,46,0
2160,note_on,,8,0,4,,,,,,3,,,51,80
2160,note_on,,8,0,2,,,,,,1,,,51,80
2212,note_on,,52,0,2,,,,,,1,,,51,0
2212,note_on,,52,0,4,,,,,,3,,,51,0
2220,note_on,,8,0,4,,,,,,3,,,55,80
2220,note_on,,8,0,2,,,,,,1,,,55,80
2272,note_on,,52,0,2,,,,,,1,,,55,0
2272,note_on,,52,0,4,,,,,,3,,,55,0
2280,note_on,,8,0,2,,,,,,1,,,51,80
2280,note_on,,8,0,4,,,,,,3,,,51,80
2332,note_on,,52,0,2,,,,,,1,,,51,0
2332,note_on,,52,0,4,,,,,,3,,,51,0
2340,note_on,,8,0,2,,,,,,1,,,46,80
2340,note_on,,8,0,4,,,,,,3,,,46,80
2392,note_on,,52,0,4,,,,,,3,,,46,0
2392,note_on,,52,0,2,,,,,,1,,,46,0
2400,note_on,,8,0,2,,,,,,1,,,48,80
2400,note_on,,8,0,4,,,,,,3,,,48,80
2452,note_on,,52,0,2,,,,,,1,,,48,0
2452,note_on,,52,0,4,,,,,,3,,,48,0
2460,note_on,,8,0,2,,,,,,1,,,46,80
2460,note_on,,8,0,4,,,,,,3,,,46,80
2512,note_on,,52,0,2,,,,,,1,,,46,0
2512,note_on,,52,0,4,,,,,,3,,,46,0
2520,note_on,,8,0,2,,,,,,1,,,48,80
2520,note_on,,8,0,4,,,,,,3,,,48,80
2572,note_on,,52,0,4,,,,,,3,,,48,0
2572,note_on,,52,0,2,,,,,,1,,,48,0
2580,note_on,,8,0,4,,,,,,3,,,45,80
2580,note_on,,8,0,2,,,,,,1,,,45,80
2632,note_on,,52,0,4,,,,,,3,,,45,0
2632,note_on,,52,0,2,,,,,,1,,,45,0
2640,note_on,,8,0,4,,,,,,3,,,46,80
2640,note_on,,8,0,2,,,,,,1,,,46,80
2744,note_on,,104,0,4,,,,,,3,,,46,0
2744,note_on,,104,0,2,,,,,,1,,,46,0
2760,note_on,,16,0,2,,,,,,1,,,43,80
2760,note_on,,16,0,4,,,,,,3,,,43,80
2812,note_on,,52,0,4,,,,,,3,,,43,0
2812,note_on,,52,0,2,,,,,,1,,,43,0
2820,note_on,,8,0,2,,,,,,1,,,46,80
2820,note_on,,8,0,4,,,,,,3,,,46,80
2872,note_on,,52,0,2,,,,,,1,,,46,0
2872,note_on,,52,0,4,,,,,,3,,,46,0
2880,note_on,,8,0,2,,,,,,1,,,50,80
2880,note_on,,8,0,4,,,,,,3,,,50,80
2984,note_on,,104,0,4,,,,,,3,,,50,0
2984,note_on,,104,0,2,,,,,,1,,,50,0
3000,note_on,,16,0,2,,,,,,1,,,38,80
3000,note_on,,16,0,4,,,,,,3,,,38,80
3104,note_on,,104,0,2,,,,,,1,,,38,0
3104,note_on,,104,0,4,,,,,,3,,,38,0
3120,note_on,,3120,0,3,,,,,,2,,,67,80
3120,note_on,,3120,0,1,,,,,,0,,,67,80
3120,note_on,,16,0,4,,,,,,3,,,43,80
3120,note_on,,16,0,2,,,,,,1,,,43,80
3224,note_on,,104,0,2,,,,,,1,,,43,0
3224,note_on,,104,0,3,,,,,,2,,,67,0
3224,note_on,,104,0,1,,,,,,0,,,67,0
3224,note_on,,104,0,4,,,,,,3,,,43,0
3240,note_on,,16,0,1,,,,,,0,,,62,80
3240,note_on,,16,0,4,,,,,,3,,,46,80
3240,note_on,,16,0,2,,,,,,1,,,46,80
3240,note_on,,16,0,3,,,,,,2,,,62,80
3292,note_on,,52,0,1,,,,,,0,,,62,0
3292,note_on,,52,0,3,,,,,,2,,,62,0
3300,note_on,,8,0,3,,,,,,2,,,67,80
3300,note_on,,8,0,1,,,,,,0,,,67,80
3344,note_on,,104,0,2,,,,,,1,,,46,0
3344,note_on,,104,0,4,,,,,,3,,,46,0
3352,note_on,,52,0,1,,,,,,0,,,67,0
3352,note_on,,52,0,3,,,,,,2,,,67,0
3360,note_on,,16,0,4,,,,,,3,,,50,80
3360,note_on,,8,0,3,,,,,,2,,,66,80
3360,note_on,,16,0,2,,,,,,1,,,50,80
3360,note_on,,8,0,1,,,,,,0,,,66,80
3412,note_on,,52,0,3,,,,,,2,,,66,0
3412,note_on,,52,0,1,,,,,,0,,,66,0
3420,note_on,,8,0,3,,,,,,2,,,67,80
3420,note_on,,8,0,1,,,,,,0,,,67,80
3446,note_on,,26,0,3,,,,,,2,,,67,0
3446,note_on,,26,0,1,,,,,,0,,,67,0
3450,note_on,,4,0,1,,,,,,0,,,69,80
3450,note_on,,4,0,3,,,,,,2,,,69,80
3464,note_on,,104,0,2,,,,,,1,,,50,0
3464,note_on,,104,0,4,,,,,,3,,,50,0
3476,note_on,,26,0,1,,,,,,0,,,69,0
3476,note_on,,26,0,3,,,,,,2,,,69,0
3480,note_on,,16,0,4,,,,,,3,,,54,80
3480,note_on,,16,0,2,,,,,,1,,,54,80
3480,note_on,,4,0,3,,,,,,2,,,62,80
3480,note_on,,4,0,1,,,,,,0,,,62,80
3532,note_on,,52,0,3,,,,,,2,,,62,0
3532,note_on,,52,0,1,,,,,,0,,,62,0
3540,note_on,,8,0,3,,,,,,2,,,69,80
3540,note_on,,8,0,1,,,,,,0,,,69,80
3584,note_on,,104,0,2,,,,,,1,,,54,0
3584,note_on,,104,0,4,,,,,,3,,,54,0
3592,note_on,,52,0,1,,,,,,0,,,69,0
3592,note_on,,52,0,3,,,,,,2,,,69,0
3600,note_on,,8,0,1,,,,,,0,,,70,80
3600,note_on,,16,0,2,,,,,,1,,,55,80
3600,note_on,,16,0,4,,,,,,3,,,55,80
3600,note_on,,8,0,3,,,,,,2,,,70,80
3704,note_on,,104,0,3,,,,,,2,,,70,0
3704,note_on,,104,0,2,,,,,,1,,,55,0
3704,note_on,,104,0,1,,,,,,0,,,70,0
3704,note_on,,104,0,4,,,,,,3,,,55,0
3720,note_on,,16,0,4,,,,,,3,,,50,80
3720,note_on,,16,0,1,,,,,,0,,,67,80
3720,note_on,,16,0,3,,,,,,2,,,67,80
3720,note_on,,16,0,2,,,,,,1,,,50,80
3772,note_on,,52,0,2,,,,,,1,,,50,0
3772,note_on,,52,0,4,,,,,,3,,,50,0
3780,note_on,,8,0,2,,,,,,1,,,55,80
3780,note_on,,8,0,4,,,,,,3,,,55,80
3824,note_on,,104,0,3,,,,,,2,,,67,0
3824,note_on,,104,0,1,,,,,,0,,,67,0
3832,note_on,,52,0,2,,,,,,1,,,55,0
3832,note_on,,52,0,4,,,,,,3,,,55,0
3840,note_on,,8,0,2,,,,,,1,,,57,80
3840,note_on,,8,0,4,,,,,,3,,,57,80
3944,note_on,,104,0,2,,,,,,1,,,57,0
3944,note_on,,104,0,4,,,,,,3,,,57,0
3960,note_on,,16,0,4,,,,,,3,,,50,80
3960,note_on,,16,0,2,,,,,,1,,,50,80
4012,note_on,,52,0,4,,,,,,3,,,50,0
4012,note_on,,52,0,2,,,,,,1,,,50,0
4020,note_on,,8,0,2,,,,,,1,,,57,80
4020,note_on,,8,0,4,,,,,,3,,,57,80
4072,note_on,,52,0,2,,,,,,1,,,57,0
4072,note_on,,52,0,4,,,,,,3,,,57,0
4080,note_on,,8,0,2,,,,,,1,,,58,80
4080,note_on,,8,0,4,,,,,,3,,,58,80
4080,note_on,,256,0,1,,,,,,0,,,67,80
4080,note_on,,256,0,3,,,,,,2,,,67,80
4106,note_on,,26,0,3,,,,,,2,,,67,0
4106,note_on,,26,0,1,,,,,,0,,,67,0
4110,note_on,,4,0,3,,,,,,2,,,66,80
4110,note_on,,4,0,1,,,,,,0,,,66,80
4132,note_on,,52,0,4,,,,,,3,,,58,0
4132,note_on,,52,0,2,,,,,,1,,,58,0
4136,note_on,,26,0,3,,,,,,2,,,66,0
4136,note_on,,26,0,1,,,,,,0,,,66,0
4140,note_on,,4,0,3,,,,,,2,,,67,80
4140,note_on,,4,0,1,,,,,,0,,,67,80
4140,note_on,,8,0,2,,,,,,1,,,62,80
4140,note_on,,8,0,4,,,,,,3,,,62,80
4192,note_on,,52,0,2,,,,,,1,,,62,0
4192,note_on,,52,0,4,,,,,,3,,,62,0
4200,note_on,,8,0,2,,,,,,1,,,58,80
4200,note_on,,8,0,4,,,,,,3,,,58,80
4244,note_on,,104,0,1,,,,,,0,,,67,0
4244,note_on,,104,0,3,,,,,,2,,,67,0
4252,note_on,,52,0,4,,,,,,3,,,58,0
4252,note_on,,52,0,2,,,,,,1,,,58,0
4260,note_on,,8,0,2,,,,,,1,,,55,80
4260,note_on,,16,0,3,,,,,,2,,,69,80
4260,note_on,,16,0,1,,,,,,0,,,69,80
4260,note_on,,8,0,4,,,,,,3,,,55,80
4312,note_on,,52,0,3,,,,,,2,,,69,0
4312,note_on,,52,0,2,,,,,,1,,,55,0
4312,note_on,,52,0,4,,,,,,3,,,55,0
4312,note_on,,52,0,1,,,,,,0,,,69,0
4320,note_on,,8,0,4,,,,,,3,,,54,80
4320,note_on,,8,0,1,,,,,,0,,,69,80
4320,note_on,,8,0,3,,,,,,2,,,69,80
4320,note_on,,8,0,2,,,,,,1,,,54,80
4332,note_on,,12,0,3,,,,,,2,,,69,0
4332,note_on,,12,0,1,,,,,,0,,,69,0
4334,note_on,,2,0,3,,,,,,2,,,70,80
4334,note_on,,2,0,1,,,,,,0,,,70,80
4348,note_on,,14,0,1,,,,,,0,,,70,0
4348,note_on,,14,0,3,,,,,,2,,,70,0
4350,note_on,,2,0,3,,,,,,2,,,69,80
4350,note_on,,2,0,1,,,,,,0,,,69,80
4362,note_on,,12,0,1,,,,,,0,,,69,0
4362,note_on,,12,0,3,,,,,,2,,,69,0
4364,note_on,,2,0,3,,,,,,2,,,70,80
4364,note_on,,2,0,1,,,,,,0,,,70,80
4372,note_on,,52,0,4,,,,,,3,,,54,0
4372,note_on,,52,0,2,,,,,,1,,,54,0
4378,note_on,,14,0,3,,,,,,2,,,70,0
4378,note_on,,14,0,1,,,,,,0,,,70,0
4380,note_on,,8,0,4,,,,,,3,,,57,80
4380,note_on,,2,0,1,,,,,,0,,,69,80
4380,note_on,,2,0,3,,,,,,2,,,69,80
4380,note_on,,8,0,2,,,,,,1,,,57,80
4392,note_on,,12,0,1,,,,,,0,,,69,0
4392,note_on,,12,0,3,,,,,,2,,,69,0
4394,note_on,,2,0,3,,,,,,2,,,70,80
4394,note_on,,2,0,1,,,,,,0,,,70,80
4408,note_on,,14,0,3,,,,,,2,,,70,0
4408,note_on,,14,0,1,,,,,,0,,,70,0
4410,note_on,,2,0,3,,,,,,2,,,69,80
4410,note_on,,2,0,1,,,,,,0,,,69,80
4422,note_on,,12,0,3,,,,,,2,,,69,0
4422,note_on,,12,0,1,,,,,,0,,,69,0
4424,note_on,,2,0,3,,,,,,2,,,70,80
4424,note_on,,2,0,1,,,,,,0,,,70,80
4432,note_on,,52,0,2,,,,,,1,,,57,0
4432,note_on,,52,0,4,,,,,,3,,,57,0
4438,note_on,,14,0,1,,,,,,0,,,70,0
4438,note_on,,14,0,3,,,,,,2,,,70,0
4440,note_on,,2,0,1,,,,,,0,,,69,80
4440,note_on,,8,0,2,,,,,,1,,,54,80
4440,note_on,,2,0,3,,,,,,2,,,69,80
4440,note_on,,8,0,4,,,,,,3,,,54,80
4492,note_on,,52,0,4,,,,,,3,,,54,0
4492,note_on,,52,0,2,,,,,,1,,,54,0
4496,note_on,,56,0,3,,,,,,2,,,69,0
4496,note_on,,56,0,1,,,,,,0,,,69,0
4500,note_on,,4,0,3,,,,,,2,,,67,80
4500,note_on,,8,0,2,,,,,,1,,,50,80
4500,note_on,,4,0,1,,,,,,0,,,67,80
4500,note_on,,8,0,4,,,,,,3,,,50,80
4526,note_on,,26,0,3,,,,,,2,,,67,0
4526,note_on,,26,0,1,,,,,,0,,,67,0
4530,note_on,,4,0,1,,,,,,0,,,69,80
4530,note_on,,4,0,3,,,,,,2,,,69,80
4552,note_on,,52,0,2,,,,,,1,,,50,0
4552,note_on,,52,0,4,,,,,,3,,,50,0
4556,note_on,,26,0,3,,,,,,2,,,69,0
4556,note_on,,26,0,1,,,,,,0,,,69,0
4560,note_on,,4,0,3,,,,,,2,,,70,80
4560,note_on,,4,0,1,,,,,,0,,,70,80
4560,note_on,,8,0,2,,,,,,1,,,55,80
4560,note_on,,8,0,4,,,,,,3,,,55,80
4664,note_on,,104,0,3,,,,,,2,,,70,0
4664,note_on,,104,0,1,,,,,,0,,,70,0
4664,note_on,,104,0,2,,,,,,1,,,55,0
4664,note_on,,104,0,4,,,,,,3,,,55,0
4680,note_on,,16,0,2,,,,,,1,,,43,80
4680,note_on,,16,0,4,,,,,,3,,,43,80
4680,note_on,,16,0,1,,,,,,0,,,67,80
4680,note_on,,16,0,3,,,,,,2,,,67,80
4732,note_on,,52,0,1,,,,,,0,,,67,0
4732,note_on,,52,0,3,,,,,,2,,,67,0
4740,note_on,,8,0,1,,,,,,0,,,75,80
4740,note_on,,8,0,3,,,,,,2,,,75,80
4784,note_on,,104,0,2,,,,,,1,,,43,0
4784,note_on,,104,0,4,,,,,,3,,,43,0
4792,note_on,,52,0,3,,,,,,2,,,75,0
4792,note_on,,52,0,1,,,,,,0,,,75,0
4800,note_on,,8,0,3,,,,,,2,,,71,80
4800,note_on,,8,0,1,,,,,,0,,,71,80
4852,note_on,,52,0,3,,,,,,2,,,71,0
4852,note_on,,52,0,1,,,,,,0,,,71,0
4860,note_on,,8,0,1,,,,,,0,,,72,80
4860,note_on,,8,0,3,,,,,,2,,,72,80
4886,note_on,,26,0,3,,,,,,2,,,72,0
4886,note_on,,26,0,1,,,,,,0,,,72,0
4890,note_on,,4,0,3,,,,,,2,,,74,80
4890,note_on,,4,0,1,,,,,,0,,,74,80
4916,note_on,,26,0,3,,,,,,2,,,74,0
4916,note_on,,26,0,1,,,,,,0,,,74,0
4920,note_on,,4,0,1,,,,,,0,,,67,80
4920,note_on,,4,0,3,,,,,,2,,,67,80
4920,note_on,,136,0,2,,,,,,1,,,53,80
4920,note_on,,136,0,4,,,,,,3,,,53,80
4972,note_on,,52,0,3,,,,,,2,,,67,0
4972,note_on,,52,0,1,,,,,,0,,,67,0
4980,note_on,,8,0,3,,,,,,2,,,71,80
4980,note_on,,8,0,1,,,,,,0,,,71,80
5024,note_on,,104,0,4,,,,,,3,,,53,0
5024,note_on,,104,0,2,,,,,,1,,,53,0
5032,note_on,,52,0,3,,,,,,2,,,71,0
5032,note_on,,52,0,1,,,,,,0,,,71,0
5040,note_on,,16,0,4,,,,,,3,,,51,80
5040,note_on,,8,0,3,,,,,,2,,,72,80
5040,note_on,,8,0,1,,,,,,0,,,72,80
5040,note_on,,16,0,2,,,,,,1,,,51,80
5052,note_on,,12,0,3,,,,,,2,,,72,0
5052,note_on,,12,0,1,,,,,,0,,,72,0
5054,note_on,,2,0,1,,,,,,0,,,70,80
5054,note_on,,2,0,3,,,,,,2,,,70,80
5068,note_on,,14,0,3,,,,,,2,,,70,0
5068,note_on,,14,0,1,,,,,,0,,,70,0
5070,note_on,,2,0,3,,,,,,2,,,72,80
5070,note_on,,2,0,1,,,,,,0,,,72,80
5092,note_on,,52,0,4,,,,,,3,,,51,0
5092,note_on,,52,0,2,,,,,,1,,,51,0
5100,note_on,,8,0,2,,,,,,1,,,55,80
5100,note_on,,8,0,4,,,,,,3,,,55,80
5152,note_on,,52,0,2,,,,,,1,,,55,0
5152,note_on,,52,0,4,,,,,,3,,,55,0
5160,note_on,,8,0,4,,,,,,3,,,51,80
5160,note_on,,8,0,2,,,,,,1,,,51,80
5204,note_on,,134,0,3,,,,,,2,,,72,0
5204,note_on,,134,0,1,,,,,,0,,,72,0
5212,note_on,,52,0,4,,,,,,3,,,51,0
5212,note_on,,52,0,2,,,,,,1,,,51,0
5220,note_on,,8,0,2,,,,,,1,,,46,80
5220,note_on,,16,0,3,,,,,,2,,,74,80
5220,note_on,,16,0,1,,,,,,0,,,74,80
5220,note_on,,8,0,4,,,,,,3,,,46,80
5272,note_on,,52,0,3,,,,,,2,,,74,0
5272,note_on,,52,0,1,,,,,,0,,,74,0
5272,note_on,,52,0,4,,,,,,3,,,46,0
5272,note_on,,52,0,2,,,,,,1,,,46,0
5280,note_on,,8,0,1,,,,,,0,,,70,80
5280,note_on,,8,0,4,,,,,,3,,,48,80
5280,note_on,,8,0,3,,,,,,2,,,70,80
5280,note_on,,8,0,2,,,,,,1,,,48,80
5292,note_on,,12,0,1,,,,,,0,,,70,0
5292,note_on,,12,0,3,,,,,,2,,,70,0
5294,note_on,,2,0,3,,,,,,2,,,72,80
5294,note_on,,2,0,1,,,,,,0,,,72,80
5308,note_on,,14,0,1,,,,,,0,,,72,0
5308,note_on,,14,0,3,,,,,,2,,,72,0
5310,note_on,,2,0,1,,,,,,0,,,70,80
5310,note_on,,2,0,3,,,,,,2,,,70,80
5322,note_on,,12,0,3,,,,,,2,,,70,0
5322,note_on,,12,0,1,,,,,,0,,,70,0
5324,note_on,,2,0,1,,,,,,0,,,72,80
5324,note_on,,2,0,3,,,,,,2,,,72,80
5332,note_on,,52,0,4,,,,,,3,,,48,0
5332,note_on,,52,0,2,,,,,,1,,,48,0
5338,note_on,,14,0,3,,,,,,2,,,72,0
5338,note_on,,14,0,1,,,,,,0,,,72,0
5340,note_on,,2,0,1,,,,,,0,,,70,80
5340,note_on,,8,0,4,,,,,,3,,,46,80
5340,note_on,,8,0,2,,,,,,1,,,46,80
5340,note_on,,2,0,3,,,,,,2,,,70,80
5352,note_on,,12,0,3,,,,,,2,,,70,0
5352,note_on,,12,0,1,,,,,,0,,,70,0
5354,note_on,,2,0,3,,,,,,2,,,72,80
5354,note_on,,2,0,1,,,,,,0,,,72,80
5368,note_on,,14,0,3,,,,,,2,,,72,0
5368,note_on,,14,0,1,,,,,,0,,,72,0
5370,note_on,,2,0,1,,,,,,0,,,70,80
5370,note_on,,2,0,3,,,,,,2,,,70,80
5382,note_on,,12,0,3,,,,,,2,,,70,0
5382,note_on,,12,0,1,,,,,,0,,,70,0
5384,note_on,,2,0,3,,,,,,2,,,72,80
5384,note_on,,2,0,1,,,,,,0,,,72,80
5392,note_on,,52,0,4,,,,,,3,,,46,0
5392,note_on,,52,0,2,,,,,,1,,,46,0
5398,note_on,,14,0,3,,,,,,2,,,72,0
5398,note_on,,14,0,1,,,,,,0,,,72,0
5400,note_on,,8,0,2,,,,,,1,,,48,80
5400,note_on,,8,0,4,,,,,,3,,,48,80
5400,note_on,,2,0,3,,,,,,2,,,70,80
5400,note_on,,2,0,1,,,,,,0,,,70,80
5452,note_on,,52,0,4,,,,,,3,,,48,0
5452,note_on,,52,0,2,,,,,,1,,,48,0
5456,note_on,,56,0,3,,,,,,2,,,70,0
5456,note_on,,56,0,1,,,,,,0,,,70,0
5460,note_on,,8,0,2,,,,,,1,,,45,80
5460,note_on,,4,0,3,,,,,,2,,,69,80
5460,note_on,,8,0,4,,,,,,3,,,45,80
5460,note_on,,4,0,1,,,,,,0,,,69,80
5486,note_on,,26,0,1,,,,,,0,,,69,0
5486,note_on,,26,0,3,,,,,,2,,,69,0
5490,note_on,,4,0,1,,,,,,0,,,70,80
5490,note_on,,4,0,3,,,,,,2,,,70,80
5512,note_on,,52,0,4,,,,,,3,,,45,0
5512,note_on,,52,0,2,,,,,,1,,,45,0
5516,note_on,,26,0,1,,,,,,0,,,70,0
5516,note_on,,26,0,3,,,,,,2,,,70,0
5520,note_on,,4,0,3,,,,,,2,,,69,80
5520,note_on,,8,0,2,,,,,,1,,,50,80
5520,note_on,,8,0,4,,,,,,3,,,50,80
5520,note_on,,4,0,1,,,,,,0,,,69,80
5624,note_on,,104,0,3,,,,,,2,,,69,0
5624,note_on,,104,0,2,,,,,,1,,,50,0
5624,note_on,,104,0,4,,,,,,3,,,50,0
5624,note_on,,104,0,1,,,,,,0,,,69,0
5640,note_on,,16,0,1,,,,,,0,,,62,80
5640,note_on,,16,0,4,,,,,,3,,,62,80
5640,note_on,,16,0,2,,,,,,1,,,62,80
5640,note_on,,16,0,3,,,,,,2,,,62,80
5692,note_on,,52,0,1,,,,,,0,,,62,0
5692,note_on,,52,0,3,,,,,,2,,,62,0
5700,note_on,,8,0,3,,,,,,2,,,79,80
5700,note_on,,8,0,1,,,,,,0,,,79,80
5744,note_on,,104,0,2,,,,,,1,,,62,0
5744,note_on,,104,0,4,,,,,,3,,,62,0
5752,note_on,,52,0,3,,,,,,2,,,79,0
5752,note_on,,52,0,1,,,,,,0,,,79,0
5760,note_on,,16,0,2,,,,,,1,,,60,80
5760,note_on,,16,0,4,,,,,,3,,,60,80
5760,note_on,,8,0,3,,,,,,2,,,78,80
5760,note_on,,8,0,1,,,,,,0,,,78,80
5812,note_on,,52,0,3,,,,,,2,,,78,0
5812,note_on,,52,0,1,,,,,,0,,,78,0
5820,note_on,,8,0,3,,,,,,2,,,79,80
5820,note_on,,8,0,1,,,,,,0,,,79,80
5846,note_on,,26,0,1,,,,,,0,,,79,0
5846,note_on,,26,0,3,,,,,,2,,,79,0
5850,note_on,,4,0,1,,,,,,0,,,81,80
5850,note_on,,4,0,3,,,,,,2,,,81,80
5864,note_on,,104,0,2,,,,,,1,,,60,0
5864,note_on,,104,0,4,,,,,,3,,,60,0
5876,note_on,,26,0,1,,,,,,0,,,81,0
5876,note_on,,26,0,3,,,,,,2,,,81,0
5880,note_on,,16,0,4,,,,,,3,,,58,80
5880,note_on,,16,0,2,,,,,,1,,,58,80
5880,note_on,,4,0,1,,,,,,0,,,74,80
5880,note_on,,4,0,3,,,,,,2,,,74,80
5932,note_on,,52,0,3,,,,,,2,,,74,0
5932,note_on,,52,0,1,,,,,,0,,,74,0
5940,note_on,,8,0,1,,,,,,0,,,79,80
5940,note_on,,8,0,3,,,,,,2,,,79,80
5984,note_on,,104,0,2,,,,,,1,,,58,0
5984,note_on,,104,0,4,,,,,,3,,,58,0
5992,note_on,,52,0,3,,,,,,2,,,79,0
5992,note_on,,52,0,1,,,,,,0,,,79,0
6000,note_on,,8,0,3,,,,,,2,,,72,80
6000,note_on,,16,0,4,,,,,,3,,,57,80
6000,note_on,,8,0,1,,,,,,0,,,72,80
6000,note_on,,16,0,2,,,,,,1,,,57,80
6052,note_on,,52,0,3,,,,,,2,,,72,0
6052,note_on,,52,0,1,,,,,,0,,,72,0
6060,note_on,,8,0,3,,,,,,2,,,74,80
6060,note_on,,8,0,1,,,,,,0,,,74,80
6086,note_on,,26,0,1,,,,,,0,,,74,0
6086,note_on,,26,0,3,,,,,,2,,,74,0
6090,note_on,,4,0,1,,,,,,0,,,75,80
6090,note_on,,4,0,3,,,,,,2,,,75,80
6104,note_on,,104,0,2,,,,,,1,,,57,0
6104,note_on,,104,0,4,,,,,,3,,,57,0
6116,note_on,,26,0,3,,,,,,2,,,75,0
6116,note_on,,26,0,1,,,,,,0,,,75,0
6120,note_on,,4,0,1,,,,,,0,,,66,80
6120,note_on,,4,0,3,,,,,,2,,,66,80
6120,note_on,,16,0,2,,,,,,1,,,50,80
6120,note_on,,16,0,4,,,,,,3,,,50,80
6172,note_on,,52,0,2,,,,,,1,,,50,0
6172,note_on,,52,0,3,,,,,,2,,,66,0
6172,note_on,,52,0,1,,,,,,0,,,66,0
6172,note_on,,52,0,4,,,,,,3,,,50,0
6180,note_on,,8,0,2,,,,,,1,,,54,80
6180,note_on,,8,0,3,,,,,,2,,,74,80
6180,note_on,,8,0,4,,,,,,3,,,54,80
6180,note_on,,8,0,1,,,,,,0,,,74,80
6232,note_on,,52,0,1,,,,,,0,,,74,0
6232,note_on,,52,0,2,,,,,,1,,,54,0
6232,note_on,,52,0,4,,,,,,3,,,54,0
6232,note_on,,52,0,3,,,,,,2,,,74,0
6240,note_on,,8,0,4,,,,,,3,,,55,80
6240,note_on,,8,0,3,,,,,,2,,,70,80
6240,note_on,,8,0,1,,,,,,0,,,70,80
6240,note_on,,8,0,2,,,,,,1,,,55,80
6252,note_on,,12,0,3,,,,,,2,,,70,0
6252,note_on,,12,0,1,,,,,,0,,,70,0
6254,note_on,,2,0,3,,,,,,2,,,72,80
6254,note_on,,2,0,1,,,,,,0,,,72,80
6268,note_on,,14,0,3,,,,,,2,,,72,0
6268,note_on,,14,0,1,,,,,,0,,,72,0
6270,note_on,,2,0,3,,,,,,2,,,70,80
6270,note_on,,2,0,1,,,,,,0,,,70,80
6282,note_on,,12,0,1,,,,,,0,,,70,0
6282,note_on,,12,0,3,,,,,,2,,,70,0
6284,note_on,,2,0,3,,,,,,2,,,72,80
6284,note_on,,2,0,1,,,,,,0,,,72,80
6298,note_on,,14,0,1,,,,,,0,,,72,0
6298,note_on,,14,0,3,,,,,,2,,,72,0
6300,note_on,,2,0,3,,,,,,2,,,70,80
6300,note_on,,2,0,1,,,,,,0,,,70,80
6312,note_on,,12,0,3,,,,,,2,,,70,0
6312,note_on,,12,0,1,,,,,,0,,,70,0
6314,note_on,,2,0,1,,,,,,0,,,72,80
6314,note_on,,2,0,3,,,,,,2,,,72,80
6328,note_on,,14,0,3,,,,,,2,,,72,0
6328,note_on,,14,0,1,,,,,,0,,,72,0
6330,note_on,,2,0,3,,,,,,2,,,70,80
6330,note_on,,2,0,1,,,,,,0,,,70,80
6342,note_on,,12,0,3,,,,,,2,,,70,0
6342,note_on,,12,0,1,,,,,,0,,,70,0
6344,note_on,,104,0,4,,,,,,3,,,55,0
6344,note_on,,2,0,1,,,,,,0,,,72,80
6344,note_on,,104,0,2,,,,,,1,,,55,0
6344,note_on,,2,0,3,,,,,,2,,,72,80
6358,note_on,,14,0,3,,,,,,2,,,72,0
6358,note_on,,14,0,1,,,,,,0,,,72,0
6360,note_on,,2,0,1,,,,,,0,,,70,80
6360,note_on,,16,0,2,,,,,,1,,,43,80
6360,note_on,,16,0,4,,,,,,3,,,43,80
6360,note_on,,2,0,3,,,,,,2,,,70,80
6372,note_on,,12,0,1,,,,,,0,,,70,0
6372,note_on,,12,0,3,,,,,,2,,,70,0
6374,note_on,,2,0,1,,,,,,0,,,72,80
6374,note_on,,2,0,3,,,,,,2,,,72,80
6388,note_on,,14,0,3,,,,,,2,,,72,0
6388,note_on,,14,0,1,,,,,,0,,,72,0
6390,note_on,,2,0,1,,,,,,0,,,70,80
6390,note_on,,2,0,3,,,,,,2,,,70,80
6402,note_on,,12,0,3,,,,,,2,,,70,0
6402,note_on,,12,0,1,,,,,,0,,,70,0
6404,note_on,,2,0,3,,,,,,2,,,72,80
6404,note_on,,2,0,1,,,,,,0,,,72,80
6412,note_on,,52,0,4,,,,,,3,,,43,0
6412,note_on,,52,0,2,,,,,,1,,,43,0
6418,note_on,,14,0,1,,,,,,0,,,72,0
6418,note_on,,14,0,3,,,,,,2,,,72,0
6420,note_on,,2,0,1,,,,,,0,,,69,80
6420,note_on,,8,0,2,,,,,,1,,,55,80
6420,note_on,,8,0,4,,,,,,3,,,55,80
6420,note_on,,2,0,3,,,,,,2,,,69,80
6446,note_on,,26,0,1,,,,,,0,,,69,0
6446,note_on,,26,0,3,,,,,,2,,,69,0
6450,note_on,,4,0,3,,,,,,2,,,70,80
6450,note_on,,4,0,1,,,,,,0,,,70,80
6472,note_on,,52,0,2,,,,,,1,,,55,0
6472,note_on,,52,0,4,,,,,,3,,,55,0
6476,note_on,,26,0,1,,,,,,0,,,70,0
6476,note_on,,26,0,3,,,,,,2,,,70,0
6480,note_on,,8,0,2,,,,,,1,,,54,80
6480,note_on,,4,0,1,,,,,,0,,,69,80
6480,note_on,,8,0,4,,,,,,3,,,54,80
6480,note_on,,4,0,3,,,,,,2,,,69,80
6532,note_on,,52,0,2,,,,,,1,,,54,0
6532,note_on,,52,0,4,,,,,,3,,,54,0
6540,note_on,,8,0,4,,,,,,3,,,57,80
6540,note_on,,8,0,2,,,,,,1,,,57,80
6592,note_on,,52,0,2,,,,,,1,,,57,0
6592,note_on,,52,0,4,,,,,,3,,,57,0
6600,note_on,,8,0,4,,,,,,3,,,54,80
6600,note_on,,8,0,2,,,,,,1,,,54,80
6652,note_on,,52,0,2,,,,,,1,,,54,0
6652,note_on,,52,0,4,,,,,,3,,,54,0
6660,note_on,,8,0,2,,,,,,1,,,50,80
6660,note_on,,8,0,4,,,,,,3,,,50,80
6690,note_on,,210,0,3,,,,,,2,,,69,0
6690,note_on,,210,0,1,,,,,,0,,,69,0
6712,note_on,,52,0,2,,,,,,1,,,50,0
6712,note_on,,52,0,4,,,,,,3,,,50,0
6720,note_on,,8,0,2,,,,,,1,,,60,80
6720,note_on,,8,0,4,,,,,,3,,,60,80
6720,note_on,,30,0,1,,,,,,0,,,69,80
6720,note_on,,30,0,3,,,,,,2,,,69,80
6772,note_on,,52,0,4,,,,,,3,,,60,0
6772,note_on,,52,0,2,,,,,,1,,,60,0
6780,note_on,,8,0,4,,,,,,3,,,58,80
6780,note_on,,8,0,2,,,,,,1,,,58,80
6832,note_on,,52,0,2,,,,,,1,,,58,0
6832,note_on,,52,0,4,,,,,,3,,,58,0
6840,note_on,,8,0,2,,,,,,1,,,60,80
6840,note_on,,8,0,4,,,,,,3,,,60,80
6892,note_on,,52,0,2,,,,,,1,,,60,0
6892,note_on,,52,0,4,,,,,,3,,,60,0
6900,note_on,,8,0,2,,,,,,1,,,57,80
6900,note_on,,8,0,4,,,,,,3,,,57,80
6930,note_on,,210,0,1,,,,,,0,,,69,0
6930,note_on,,210,0,3,,,,,,2,,,69,0
6952,note_on,,52,0,4,,,,,,3,,,57,0
6952,note_on,,52,0,2,,,,,,1,,,57,0
6960,note_on,,8,0,2,,,,,,1,,,58,80
6960,note_on,,8,0,4,,,,,,3,,,58,80
7064,note_on,,104,0,2,,,,,,1,,,58,0
7064,note_on,,104,0,4,,,,,,3,,,58,0
7080,note_on,,16,0,2,,,,,,1,,,55,80
7080,note_on,,16,0,4,,,,,,3,,,55,80
7132,note_on,,52,0,4,,,,,,3,,,55,0
7132,note_on,,52,0,2,,,,,,1,,,55,0
7140,note_on,,8,0,4,,,,,,3,,,58,80
7140,note_on,,8,0,2,,,,,,1,,,58,80
7192,note_on,,52,0,2,,,,,,1,,,58,0
7192,note_on,,52,0,4,,,,,,3,,,58,0
7200,note_on,,8,0,2,,,,,,1,,,60,80
7200,note_on,,8,0,4,,,,,,3,,,60,80
7304,note_on,,104,0,2,,,,,,1,,,60,0
7304,note_on,,104,0,4,,,,,,3,,,60,0
7320,note_on,,16,0,4,,,,,,3,,,57,80
7320,note_on,,16,0,2,,,,,,1,,,57,80
7372,note_on,,52,0,2,,,,,,1,,,57,0
7372,note_on,,52,0,4,,,,,,3,,,57,0
7380,note_on,,8,0,2,,,,,,1,,,60,80
7380,note_on,,8,0,4,,,,,,3,,,60,80
7432,note_on,,52,0,2,,,,,,1,,,60,0
7432,note_on,,52,0,4,,,,,,3,,,60,0
7440,note_on,,8,0,2,,,,,,1,,,62,80
7440,note_on,,510,0,3,,,,,,2,,,70,80
7440,note_on,,510,0,1,,,,,,0,,,70,80
7440,note_on,,8,0,4,,,,,,3,,,62,80
7492,note_on,,52,0,1,,,,,,0,,,70,0
7492,note_on,,52,0,2,,,,,,1,,,62,0
7492,note_on,,52,0,3,,,,,,2,,,70,0
7492,note_on,,52,0,4,,,,,,3,,,62,0
7500,note_on,,8,0,2,,,,,,1,,,65,80
7500,note_on,,8,0,3,,,,,,2,,,72,80
7500,note_on,,8,0,4,,,,,,3,,,65,80
7500,note_on,,8,0,1,,,,,,0,,,72,80
7552,note_on,,52,0,4,,,,,,3,,,65,0
7552,note_on,,52,0,2,,,,,,1,,,65,0
7552,note_on,,52,0,3,,,,,,2,,,72,0
7552,note_on,,52,0,1,,,,,,0,,,72,0
7560,note_on,,8,0,1,,,,,,0,,,70,80
7560,note_on,,8,0,4,,,,,,3,,,62,80
7560,note_on,,8,0,2,,,,,,1,,,62,80
7560,note_on,,8,0,3,,,,,,2,,,70,80
7612,note_on,,52,0,3,,,,,,2,,,70,0
7612,note_on,,52,0,2,,,,,,1,,,62,0
7612,note_on,,52,0,1,,,,,,0,,,70,0
7612,note_on,,52,0,4,,,,,,3,,,62,0
7620,note_on,,8,0,1,,,,,,0,,,72,80
7620,note_on,,8,0,2,,,,,,1,,,58,80
7620,note_on,,8,0,4,,,,,,3,,,58,80
7620,note_on,,8,0,3,,,,,,2,,,72,80
7672,note_on,,52,0,1,,,,,,0,,,72,0
7672,note_on,,52,0,4,,,,,,3,,,58,0
7672,note_on,,52,0,3,,,,,,2,,,72,0
7672,note_on,,52,0,2,,,,,,1,,,58,0
7680,note_on,,8,0,4,,,,,,3,,,57,80
7680,note_on,,8,0,1,,,,,,0,,,72,80
7680,note_on,,8,0,3,,,,,,2,,,72,80
7680,note_on,,8,0,2,,,,,,1,,,57,80
7692,note_on,,12,0,1,,,,,,0,,,72,0
7692,note_on,,12,0,3,,,,,,2,,,72,0
7694,note_on,,2,0,1,,,,,,0,,,74,80
7694,note_on,,2,0,3,,,,,,2,,,74,80
7708,note_on,,14,0,3,,,,,,2,,,74,0
7708,note_on,,14,0,1,,,,,,0,,,74,0
7710,note_on,,2,0,1,,,,,,0,,,72,80
7710,note_on,,2,0,3,,,,,,2,,,72,80
7722,note_on,,12,0,3,,,,,,2,,,72,0
7722,note_on,,12,0,1,,,,,,0,,,72,0
7724,note_on,,2,0,1,,,,,,0,,,74,80
7724,note_on,,2,0,3,,,,,,2,,,74,80
7732,note_on,,52,0,4,,,,,,3,,,57,0
7732,note_on,,52,0,2,,,,,,1,,,57,0
7738,note_on,,14,0,3,,,,,,2,,,74,0
7738,note_on,,14,0,1,,,,,,0,,,74,0
7740,note_on,,8,0,4,,,,,,3,,,60,80
7740,note_on,,2,0,1,,,,,,0,,,72,80
7740,note_on,,8,0,2,,,,,,1,,,60,80
7740,note_on,,2,0,3,,,,,,2,,,72,80
7752,note_on,,12,0,1,,,,,,0,,,72,0
7752,note_on,,12,0,3,,,,,,2,,,72,0
7754,note_on,,2,0,3,,,,,,2,,,74,80
7754,note_on,,2,0,1,,,,,,0,,,74,80
7768,note_on,,14,0,1,,,,,,0,,,74,0
7768,note_on,,14,0,3,,,,,,2,,,74,0
7770,note_on,,2,0,3,,,,,,2,,,72,80
7770,note_on,,2,0,1,,,,,,0,,,72,80
7782,note_on,,12,0,1,,,,,,0,,,72,0
7782,note_on,,12,0,3,,,,,,2,,,72,0
7784,note_on,,2,0,3,,,,,,2,,,74,80
7784,note_on,,2,0,1,,,,,,0,,,74,80
7792,note_on,,52,0,4,,,,,,3,,,60,0
7792,note_on,,52,0,2,,,,,,1,,,60,0
7798,note_on,,14,0,1,,,,,,0,,,74,0
7798,note_on,,14,0,3,,,,,,2,,,74,0
7800,note_on,,2,0,3,,,,,,2,,,72,80
7800,note_on,,8,0,2,,,,,,1,,,57,80
7800,note_on,,8,0,4,,,,,,3,,,57,80
7800,note_on,,2,0,1,,,,,,0,,,72,80
7812,note_on,,12,0,3,,,,,,2,,,72,0
7812,note_on,,12,0,1,,,,,,0,,,72,0
7814,note_on,,2,0,3,,,,,,2,,,74,80
7814,note_on,,2,0,1,,,,,,0,,,74,80
7828,note_on,,14,0,3,,,,,,2,,,74,0
7828,note_on,,14,0,1,,,,,,0,,,74,0
7830,note_on,,2,0,3,,,,,,2,,,72,80
7830,note_on,,2,0,1,,,,,,0,,,72,80
7842,note_on,,12,0,3,,,,,,2,,,72,0
7842,note_on,,12,0,1,,,,,,0,,,72,0
7844,note_on,,2,0,1,,,,,,0,,,74,80
7844,note_on,,2,0,3,,,,,,2,,,74,80
7852,note_on,,52,0,4,,,,,,3,,,57,0
7852,note_on,,52,0,2,,,,,,1,,,57,0
7858,note_on,,14,0,1,,,,,,0,,,74,0
7858,note_on,,14,0,3,,,,,,2,,,74,0
7860,note_on,,2,0,3,,,,,,2,,,70,80
7860,note_on,,8,0,2,,,,,,1,,,53,80
7860,note_on,,2,0,1,,,,,,0,,,70,80
7860,note_on,,8,0,4,,,,,,3,,,53,80
7886,note_on,,26,0,3,,,,,,2,,,70,0
7886,note_on,,26,0,1,,,,,,0,,,70,0
7890,note_on,,4,0,3,,,,,,2,,,72,80
7890,note_on,,4,0,1,,,,,,0,,,72,80
7912,note_on,,52,0,2,,,,,,1,,,53,0
7912,note_on,,52,0,4,,,,,,3,,,53,0
7916,note_on,,26,0,3,,,,,,2,,,72,0
7916,note_on,,26,0,1,,,,,,0,,,72,0
7920,note_on,,4,0,3,,,,,,2,,,74,80
7920,note_on,,4,0,1,,,,,,0,,,74,80
7920,note_on,,8,0,2,,,,,,1,,,58,80
7920,note_on,,8,0,4,,,,,,3,,,58,80
7972,note_on,,52,0,3,,,,,,2,,,74,0
7972,note_on,,52,0,1,,,,,,0,,,74,0
7980,note_on,,8,0,3,,,,,,2,,,75,80
7980,note_on,,8,0,1,,,,,,0,,,75,80
8006,note_on,,26,0,1,,,,,,0,,,75,0
8006,note_on,,26,0,3,,,,,,2,,,75,0
8010,note_on,,4,0,3,,,,,,2,,,77,80
8010,note_on,,4,0,1,,,,,,0,,,77,80
8024,note_on,,104,0,4,,,,,,3,,,58,0
8024,note_on,,104,0,2,,,,,,1,,,58,0
8036,note_on,,26,0,1,,,,,,0,,,77,0
8036,note_on,,26,0,3,,,,,,2,,,77,0
8040,note_on,,16,0,4,,,,,,3,,,46,80
8040,note_on,,4,0,1,,,,,,0,,,75,80
8040,note_on,,4,0,3,,,,,,2,,,75,80
8040,note_on,,16,0,2,,,,,,1,,,46,80
8092,note_on,,52,0,1,,,,,,0,,,75,0
8092,note_on,,52,0,3,,,,,,2,,,75,0
8100,note_on,,8,0,1,,,,,,0,,,74,80
8100,note_on,,8,0,3,,,,,,2,,,74,80
8144,note_on,,104,0,4,,,,,,3,,,46,0
8144,note_on,,104,0,2,,,,,,1,,,46,0
8152,note_on,,52,0,1,,,,,,0,,,74,0
8152,note_on,,52,0,3,,,,,,2,,,74,0
8160,note_on,,8,0,3,,,,,,2,,,72,80
8160,note_on,,8,0,1,,,,,,0,,,72,80
8212,note_on,,52,0,1,,,,,,0,,,72,0
8212,note_on,,52,0,3,,,,,,2,,,72,0
8220,note_on,,8,0,1,,,,,,0,,,70,80
8220,note_on,,8,0,3,,,,,,2,,,70,80
8272,note_on,,52,0,3,,,,,,2,,,70,0
8272,note_on,,52,0,1,,,,,,0,,,70,0
8280,note_on,,8,0,3,,,,,,2,,,68,80
8280,note_on,,136,0,2,,,,,,1,,,58,80
8280,note_on,,136,0,4,,,,,,3,,,58,80
8280,note_on,,8,0,1,,,,,,0,,,68,80
8332,note_on,,52,0,3,,,,,,2,,,68,0
8332,note_on,,52,0,1,,,,,,0,,,68,0
8340,note_on,,8,0,1,,,,,,0,,,67,80
8340,note_on,,8,0,3,,,,,,2,,,67,80
8384,note_on,,104,0,2,,,,,,1,,,58,0
8384,note_on,,104,0,4,,,,,,3,,,58,0
8392,note_on,,52,0,3,,,,,,2,,,67,0
8392,note_on,,52,0,1,,,,,,0,,,67,0
8400,note_on,,16,0,2,,,,,,1,,,60,80
8400,note_on,,8,0,3,,,,,,2,,,75,80
8400,note_on,,8,0,1,,,,,,0,,,75,80
8400,note_on,,16,0,4,,,,,,3,,,60,80
8452,note_on,,52,0,1,,,,,,0,,,75,0
8452,note_on,,52,0,3,,,,,,2,,,75,0
8460,note_on,,8,0,1,,,,,,0,,,77,80
8460,note_on,,8,0,3,,,,,,2,,,77,80
8486,note_on,,26,0,1,,,,,,0,,,77,0
8486,note_on,,26,0,3,,,,,,2,,,77,0
8490,note_on,,4,0,1,,,,,,0,,,79,80
8490,note_on,,4,0,3,,,,,,2,,,79,80
8504,note_on,,104,0,2,,,,,,1,,,60,0
8504,note_on,,104,0,4,,,,,,3,,,60,0
8516,note_on,,26,0,3,,,,,,2,,,79,0
8516,note_on,,26,0,1,,,,,,0,,,79,0
8520,note_on,,4,0,3,,,,,,2,,,77,80
8520,note_on,,4,0,1,,,,,,0,,,77,80
8520,note_on,,16,0,4,,,,,,3,,,48,80
8520,note_on,,16,0,2,,,,,,1,,,48,80
8572,note_on,,52,0,3,,,,,,2,,,77,0
8572,note_on,,52,0,1,,,,,,0,,,77,0
8580,note_on,,8,0,3,,,,,,2,,,75,80
8580,note_on,,8,0,1,,,,,,0,,,75,80
8624,note_on,,104,0,4,,,,,,3,,,48,0
8624,note_on,,104,0,2,,,,,,1,,,48,0
8632,note_on,,52,0,1,,,,,,0,,,75,0
8632,note_on,,52,0,3,,,,,,2,,,75,0
8640,note_on,,8,0,3,,,,,,2,,,74,80
8640,note_on,,8,0,1,,,,,,0,,,74,80
8692,note_on,,52,0,3,,,,,,2,,,74,0
8692,note_on,,52,0,1,,,,,,0,,,74,0
8700,note_on,,8,0,3,,,,,,2,,,72,80
8700,note_on,,8,0,1,,,,,,0,,,72,80
8752,note_on,,52,0,3,,,,,,2,,,72,0
8752,note_on,,52,0,1,,,,,,0,,,72,0
8760,note_on,,8,0,3,,,,,,2,,,70,80
8760,note_on,,136,0,4,,,,,,3,,,60,80
8760,note_on,,136,0,2,,,,,,1,,,60,80
8760,note_on,,8,0,1,,,,,,0,,,70,80
8812,note_on,,52,0,1,,,,,,0,,,70,0
8812,note_on,,52,0,3,,,,,,2,,,70,0
8820,note_on,,8,0,1,,,,,,0,,,69,80
8820,note_on,,8,0,3,,,,,,2,,,69,80
8864,note_on,,104,0,4,,,,,,3,,,60,0
8864,note_on,,104,0,2,,,,,,1,,,60,0
8872,note_on,,52,0,1,,,,,,0,,,69,0
8872,note_on,,52,0,3,,,,,,2,,,69,0
8880,note_on,,8,0,1,,,,,,0,,,77,80
8880,note_on,,8,0,3,,,,,,2,,,77,80
8880,note_on,,16,0,2,,,,,,1,,,62,80
8880,note_on,,16,0,4,,,,,,3,,,62,80
8906,note_on,,26,0,1,,,,,,0,,,77,0
8906,note_on,,26,0,3,,,,,,2,,,77,0
8910,note_on,,4,0,3,,,,,,2,,,75,80
8910,note_on,,4,0,1,,,,,,0,,,75,80
8932,note_on,,52,0,4,,,,,,3,,,62,0
8932,note_on,,52,0,2,,,,,,1,,,62,0
8936,note_on,,26,0,1,,,,,,0,,,75,0
8936,note_on,,26,0,3,,,,,,2,,,75,0
8940,note_on,,8,0,4,,,,,,3,,,65,80
8940,note_on,,4,0,1,,,,,,0,,,77,80
8940,note_on,,4,0,3,,,,,,2,,,77,80
8940,note_on,,8,0,2,,,,,,1,,,65,80
8992,note_on,,52,0,4,,,,,,3,,,65,0
8992,note_on,,52,0,2,,,,,,1,,,65,0
9000,note_on,,8,0,4,,,,,,3,,,62,80
9000,note_on,,8,0,2,,,,,,1,,,62,80
9052,note_on,,52,0,4,,,,,,3,,,62,0
9052,note_on,,52,0,2,,,,,,1,,,62,0
9060,note_on,,8,0,4,,,,,,3,,,57,80
9060,note_on,,8,0,2,,,,,,1,,,57,80
9112,note_on,,52,0,4,,,,,,3,,,57,0
9112,note_on,,52,0,2,,,,,,1,,,57,0
9120,note_on,,8,0,2,,,,,,1,,,58,80
9120,note_on,,8,0,4,,,,,,3,,,58,80
9172,note_on,,52,0,4,,,,,,3,,,58,0
9172,note_on,,232,0,1,,,,,,0,,,77,0
9172,note_on,,52,0,2,,,,,,1,,,58,0
9172,note_on,,232,0,3,,,,,,2,,,77,0
9180,note_on,,8,0,4,,,,,,3,,,57,80
9180,note_on,,8,0,2,,,,,,1,,,57,80
9180,note_on,,8,0,1,,,,,,0,,,79,80
9180,note_on,,8,0,3,,,,,,2,,,79,80
9206,note_on,,26,0,3,,,,,,2,,,79,0
9206,note_on,,26,0,1,,,,,,0,,,79,0
9210,note_on,,4,0,3,,,,,,2,,,77,80
9210,note_on,,4,0,1,,,,,,0,,,77,80
9232,note_on,,52,0,4,,,,,,3,,,57,0
9232,note_on,,52,0,2,,,,,,1,,,57,0
9236,note_on,,26,0,1,,,,,,0,,,77,0
9236,note_on,,26,0,3,,,,,,2,,,77,0
9240,note_on,,8,0,2,,,,,,1,,,58,80
9240,note_on,,4,0,1,,,,,,0,,,75,80
9240,note_on,,4,0,3,,,,,,2,,,75,80
9240,note_on,,8,0,4,,,,,,3,,,58,80
9292,note_on,,52,0,3,,,,,,2,,,75,0
9292,note_on,,52,0,2,,,,,,1,,,58,0
9292,note_on,,52,0,1,,,,,,0,,,75,0
9292,note_on,,52,0,4,,,,,,3,,,58,0
9300,note_on,,8,0,2,,,,,,1,,,55,80
9300,note_on,,8,0,1,,,,,,0,,,77,80
9300,note_on,,8,0,4,,,,,,3,,,55,80
9300,note_on,,8,0,3,,,,,,2,,,77,80
9326,note_on,,26,0,3,,,,,,2,,,77,0
9326,note_on,,26,0,1,,,,,,0,,,77,0
9330,note_on,,4,0,1,,,,,,0,,,74,80
9330,note_on,,4,0,3,,,,,,2,,,74,80
9352,note_on,,52,0,4,,,,,,3,,,55,0
9352,note_on,,52,0,2,,,,,,1,,,55,0
9356,note_on,,26,0,1,,,,,,0,,,74,0
9356,note_on,,26,0,3,,,,,,2,,,74,0
9360,note_on,,8,0,2,,,,,,1,,,60,80
9360,note_on,,4,0,3,,,,,,2,,,75,80
9360,note_on,,4,0,1,,,,,,0,,,75,80
9360,note_on,,8,0,4,,,,,,3,,,60,80
9372,note_on,,12,0,3,,,,,,2,,,75,0
9372,note_on,,12,0,1,,,,,,0,,,75,0
9374,note_on,,2,0,1,,,,,,0,,,74,80
9374,note_on,,2,0,3,,,,,,2,,,74,80
9388,note_on,,14,0,3,,,,,,2,,,74,0
9388,note_on,,14,0,1,,,,,,0,,,74,0
9390,note_on,,2,0,1,,,,,,0,,,75,80
9390,note_on,,2,0,3,,,,,,2,,,75,80
9412,note_on,,52,0,2,,,,,,1,,,60,0
9412,note_on,,52,0,4,,,,,,3,,,60,0
9420,note_on,,8,0,2,,,,,,1,,,63,80
9420,note_on,,8,0,4,,,,,,3,,,63,80
9472,note_on,,52,0,2,,,,,,1,,,63,0
9472,note_on,,52,0,4,,,,,,3,,,63,0
9480,note_on,,8,0,4,,,,,,3,,,60,80
9480,note_on,,8,0,2,,,,,,1,,,60,80
9532,note_on,,52,0,2,,,,,,1,,,60,0
9532,note_on,,52,0,4,,,,,,3,,,60,0
9540,note_on,,8,0,2,,,,,,1,,,55,80
9540,note_on,,8,0,4,,,,,,3,,,55,80
9592,note_on,,52,0,2,,,,,,1,,,55,0
9592,note_on,,52,0,4,,,,,,3,,,55,0
9600,note_on,,8,0,2,,,,,,1,,,57,80
9600,note_on,,8,0,4,,,,,,3,,,57,80
9652,note_on,,52,0,2,,,,,,1,,,57,0
9652,note_on,,262,0,1,,,,,,0,,,75,0
9652,note_on,,52,0,4,,,,,,3,,,57,0
9652,note_on,,262,0,3,,,,,,2,,,75,0
9660,note_on,,8,0,1,,,,,,0,,,77,80
9660,note_on,,8,0,2,,,,,,1,,,55,80
9660,note_on,,8,0,3,,,,,,2,,,77,80
9660,note_on,,8,0,4,,,,,,3,,,55,80
9686,note_on,,26,0,1,,,,,,0,,,77,0
9686,note_on,,26,0,3,,,,,,2,,,77,0
9690,note_on,,4,0,1,,,,,,0,,,79,80
9690,note_on,,4,0,3,,,,,,2,,,79,80
9712,note_on,,52,0,2,,,,,,1,,,55,0
9712,note_on,,52,0,4,,,,,,3,,,55,0
9716,note_on,,26,0,1,,,,,,0,,,79,0
9716,note_on,,26,0,3,,,,,,2,,,79,0
9720,note_on,,8,0,4,,,,,,3,,,57,80
9720,note_on,,4,0,3,,,,,,2,,,77,80
9720,note_on,,4,0,1,,,,,,0,,,77,80
9720,note_on,,8,0,2,,,,,,1,,,57,80
9746,note_on,,26,0,3,,,,,,2,,,77,0
9746,note_on,,26,0,1,,,,,,0,,,77,0
9750,note_on,,4,0,3,,,,,,2,,,79,80
9750,note_on,,4,0,1,,,,,,0,,,79,80
9772,note_on,,52,0,4,,,,,,3,,,57,0
9772,note_on,,52,0,2,,,,,,1,,,57,0
9776,note_on,,26,0,1,,,,,,0,,,79,0
9776,note_on,,26,0,3,,,,,,2,,,79,0
9780,note_on,,8,0,2,,,,,,1,,,53,80
9780,note_on,,4,0,3,,,,,,2,,,75,80
9780,note_on,,8,0,4,,,,,,3,,,53,80
9780,note_on,,4,0,1,,,,,,0,,,75,80
9832,note_on,,52,0,1,,,,,,0,,,75,0
9832,note_on,,52,0,4,,,,,,3,,,53,0
9832,note_on,,52,0,2,,,,,,1,,,53,0
9832,note_on,,52,0,3,,,,,,2,,,75,0
9840,note_on,,8,0,3,,,,,,2,,,74,80
9840,note_on,,8,0,4,,,,,,3,,,58,80
9840,note_on,,8,0,2,,,,,,1,,,58,80
9840,note_on,,8,0,1,,,,,,0,,,74,80
9892,note_on,,52,0,4,,,,,,3,,,58,0
9892,note_on,,52,0,2,,,,,,1,,,58,0
9900,note_on,,8,0,2,,,,,,1,,,62,80
9900,note_on,,8,0,4,,,,,,3,,,62,80
9952,note_on,,52,0,2,,,,,,1,,,62,0
9952,note_on,,52,0,4,,,,,,3,,,62,0
9960,note_on,,8,0,4,,,,,,3,,,58,80
9960,note_on,,8,0,2,,,,,,1,,,58,80
10012,note_on,,52,0,4,,,,,,3,,,58,0
10012,note_on,,52,0,2,,,,,,1,,,58,0
10020,note_on,,8,0,4,,,,,,3,,,53,80
10020,note_on,,8,0,2,,,,,,1,,,53,80
10072,note_on,,52,0,4,,,,,,3,,,53,0
10072,note_on,,52,0,2,,,,,,1,,,53,0
10080,note_on,,8,0,4,,,,,,3,,,55,80
10080,note_on,,8,0,2,,,,,,1,,,55,80
10132,note_on,,52,0,4,,,,,,3,,,55,0
10132,note_on,,292,0,3,,,,,,2,,,74,0
10132,note_on,,292,0,1,,,,,,0,,,74,0
10132,note_on,,52,0,2,,,,,,1,,,55,0
10140,note_on,,8,0,2,,,,,,1,,,53,80
10140,note_on,,8,0,3,,,,,,2,,,79,80
10140,note_on,,8,0,4,,,,,,3,,,53,80
10140,note_on,,8,0,1,,,,,,0,,,79,80
10166,note_on,,26,0,3,,,,,,2,,,79,0
10166,note_on,,26,0,1,,,,,,0,,,79,0
10170,note_on,,4,0,3,,,,,,2,,,77,80
10170,note_on,,4,0,1,,,,,,0,,,77,80
10192,note_on,,52,0,2,,,,,,1,,,53,0
10192,note_on,,52,0,4,,,,,,3,,,53,0
10196,note_on,,26,0,3,,,,,,2,,,77,0
10196,note_on,,26,0,1,,,,,,0,,,77,0
10200,note_on,,4,0,1,,,,,,0,,,75,80
10200,note_on,,4,0,3,,,,,,2,,,75,80
10200,note_on,,8,0,2,,,,,,1,,,55,80
10200,note_on,,8,0,4,,,,,,3,,,55,80
10226,note_on,,26,0,1,,,,,,0,,,75,0
10226,note_on,,26,0,3,,,,,,2,,,75,0
10230,note_on,,4,0,3,,,,,,2,,,74,80
10230,note_on,,4,0,1,,,,,,0,,,74,80
10252,note_on,,52,0,2,,,,,,1,,,55,0
10252,note_on,,52,0,4,,,,,,3,,,55,0
10256,note_on,,26,0,3,,,,,,2,,,74,0
10256,note_on,,26,0,1,,,,,,0,,,74,0
10260,note_on,,4,0,3,,,,,,2,,,72,80
10260,note_on,,4,0,1,,,,,,0,,,72,80
10260,note_on,,8,0,2,,,,,,1,,,51,80
10260,note_on,,8,0,4,,,,,,3,,,51,80
10286,note_on,,26,0,1,,,,,,0,,,72,0
10286,note_on,,26,0,3,,,,,,2,,,72,0
10290,note_on,,4,0,3,,,,,,2,,,70,80
10290,note_on,,4,0,1,,,,,,0,,,70,80
10312,note_on,,52,0,4,,,,,,3,,,51,0
10312,note_on,,52,0,2,,,,,,1,,,51,0
10316,note_on,,26,0,1,,,,,,0,,,70,0
10316,note_on,,26,0,3,,,,,,2,,,70,0
10320,note_on,,4,0,1,,,,,,0,,,69,80
10320,note_on,,4,0,3,,,,,,2,,,69,80
10320,note_on,,8,0,2,,,,,,1,,,53,80
10320,note_on,,8,0,4,,,,,,3,,,53,80
10346,note_on,,26,0,1,,,,,,0,,,69,0
10346,note_on,,26,0,3,,,,,,2,,,69,0
10350,note_on,,4,0,1,,,,,,0,,,67,80
10350,note_on,,4,0,3,,,,,,2,,,67,80
10376,note_on,,26,0,3,,,,,,2,,,67,0
10376,note_on,,26,0,1,,,,,,0,,,67,0
10380,note_on,,4,0,3,,,,,,2,,,65,80
10380,note_on,,4,0,1,,,,,,0,,,65,80
10406,note_on,,26,0,1,,,,,,0,,,65,0
10406,note_on,,26,0,3,,,,,,2,,,65,0
10410,note_on,,4,0,3,,,,,,2,,,67,80
10410,note_on,,4,0,1,,,,,,0,,,67,80
10424,note_on,,104,0,2,,,,,,1,,,53,0
10424,note_on,,104,0,4,,,,,,3,,,53,0
10436,note_on,,26,0,3,,,,,,2,,,67,0
10436,note_on,,26,0,1,,,,,,0,,,67,0
10440,note_on,,4,0,1,,,,,,0,,,69,80
10440,note_on,,16,0,4,,,,,,3,,,41,80
10440,note_on,,16,0,2,,,,,,1,,,41,80
10440,note_on,,4,0,3,,,,,,2,,,69,80
10466,note_on,,26,0,1,,,,,,0,,,69,0
10466,note_on,,26,0,3,,,,,,2,,,69,0
10470,note_on,,4,0,1,,,,,,0,,,70,80
10470,note_on,,4,0,3,,,,,,2,,,70,80
10496,note_on,,26,0,1,,,,,,0,,,70,0
10496,note_on,,26,0,3,,,,,,2,,,70,0
10500,note_on,,4,0,1,,,,,,0,,,69,80
10500,note_on,,4,0,3,,,,,,2,,,69,80
10526,note_on,,26,0,3,,,,,,2,,,69,0
10526,note_on,,26,0,1,,,,,,0,,,69,0
10530,note_on,,4,0,3,,,,,,2,,,70,80
10530,note_on,,4,0,1,,,,,,0,,,70,80
10544,note_on,,104,0,4,,,,,,3,,,41,0
10544,note_on,,104,0,2,,,,,,1,,,41,0
10556,note_on,,26,0,1,,,,,,0,,,70,0
10556,note_on,,26,0,3,,,,,,2,,,70,0
10560,note_on,,4,0,3,,,,,,2,,,72,80
10560,note_on,,4,0,1,,,,,,0,,,72,80
10586,note_on,,26,0,3,,,,,,2,,,72,0
10586,note_on,,26,0,1,,,,,,0,,,72,0
10590,note_on,,4,0,1,,,,,,0,,,70,80
10590,note_on,,4,0,3,,,,,,2,,,70,80
10616,note_on,,26,0,3,,,,,,2,,,70,0
10616,note_on,,26,0,1,,,,,,0,,,70,0
10620,note_on,,4,0,3,,,,,,2,,,69,80
10620,note_on,,4,0,1,,,,,,0,,,69,80
10646,note_on,,26,0,3,,,,,,2,,,69,0
10646,note_on,,26,0,1,,,,,,0,,,69,0
10650,note_on,,4,0,3,,,,,,2,,,70,80
10650,note_on,,4,0,1,,,,,,0,,,70,80
10676,note_on,,26,0,1,,,,,,0,,,70,0
10676,note_on,,26,0,3,,,,,,2,,,70,0
10680,note_on,,4,0,3,,,,,,2,,,72,80
10680,note_on,,136,0,2,,,,,,1,,,53,80
10680,note_on,,4,0,1,,,,,,0,,,72,80
10680,note_on,,136,0,4,,,,,,3,,,53,80
10706,note_on,,26,0,1,,,,,,0,,,72,0
10706,note_on,,26,0,3,,,,,,2,,,72,0
10710,note_on,,4,0,1,,,,,,0,,,74,80
10710,note_on,,4,0,3,,,,,,2,,,74,80
10736,note_on,,26,0,3,,,,,,2,,,74,0
10736,note_on,,26,0,1,,,,,,0,,,74,0
10740,note_on,,4,0,1,,,,,,0,,,72,80
10740,note_on,,4,0,3,,,,,,2,,,72,80
10766,note_on,,26,0,1,,,,,,0,,,72,0
10766,note_on,,26,0,3,,,,,,2,,,72,0
10770,note_on,,4,0,1,,,,,,0,,,74,80
10770,note_on,,4,0,3,,,,,,2,,,74,80
10784,note_on,,104,0,4,,,,,,3,,,53,0
10784,note_on,,104,0,2,,,,,,1,,,53,0
10796,note_on,,26,0,1,,,,,,0,,,74,0
10796,note_on,,26,0,3,,,,,,2,,,74,0
10800,note_on,,16,0,4,,,,,,3,,,55,80
10800,note_on,,4,0,1,,,,,,0,,,75,80
10800,note_on,,16,0,2,,,,,,1,,,55,80
10800,note_on,,4,0,3,,,,,,2,,,75,80
10826,note_on,,26,0,1,,,,,,0,,,75,0
10826,note_on,,26,0,3,,,,,,2,,,75,0
10830,note_on,,4,0,1,,,,,,0,,,77,80
10830,note_on,,4,0,3,,,,,,2,,,77,80
10842,note_on,,12,0,1,,,,,,0,,,77,0
10842,note_on,,12,0,3,,,,,,2,,,77,0
10844,note_on,,2,0,1,,,,,,0,,,75,80
10844,note_on,,2,0,3,,,,,,2,,,75,80
10858,note_on,,14,0,1,,,,,,0,,,75,0
10858,note_on,,14,0,3,,,,,,2,,,75,0
10860,note_on,,2,0,1,,,,,,0,,,74,80
10860,note_on,,2,0,3,,,,,,2,,,74,80
10886,note_on,,26,0,1,,,,,,0,,,74,0
10886,note_on,,26,0,3,,,,,,2,,,74,0
10890,note_on,,4,0,3,,,,,,2,,,75,80
10890,note_on,,4,0,1,,,,,,0,,,75,80
10904,note_on,,104,0,4,,,,,,3,,,55,0
10904,note_on,,104,0,2,,,,,,1,,,55,0
10916,note_on,,26,0,3,,,,,,2,,,75,0
10916,note_on,,26,0,1,,,,,,0,,,75,0
10920,note_on,,4,0,1,,,,,,0,,,77,80
10920,note_on,,16,0,4,,,,,,3,,,50,80
10920,note_on,,16,0,2,,,,,,1,,,50,80
10920,note_on,,4,0,3,,,,,,2,,,77,80
10946,note_on,,26,0,3,,,,,,2,,,77,0
10946,note_on,,26,0,1,,,,,,0,,,77,0
10950,note_on,,4,0,1,,,,,,0,,,79,80
10950,note_on,,4,0,3,,,,,,2,,,79,80
10962,note_on,,12,0,3,,,,,,2,,,79,0
10962,note_on,,12,0,1,,,,,,0,,,79,0
10964,note_on,,2,0,3,,,,,,2,,,77,80
10964,note_on,,2,0,1,,,,,,0,,,77,80
10972,note_on,,52,0,4,,,,,,3,,,50,0
10972,note_on,,52,0,2,,,,,,1,,,50,0
10978,note_on,,14,0,3,,,,,,2,,,77,0
10978,note_on,,14,0,1,,,,,,0,,,77,0
10980,note_on,,2,0,3,,,,,,2,,,75,80
10980,note_on,,8,0,4,,,,,,3,,,51,80
10980,note_on,,2,0,1,,,,,,0,,,75,80
10980,note_on,,8,0,2,,,,,,1,,,51,80
10992,note_on,,12,0,3,,,,,,2,,,75,0
10992,note_on,,12,0,1,,,,,,0,,,75,0
10994,note_on,,2,0,1,,,,,,0,,,77,80
10994,note_on,,2,0,3,,,,,,2,,,77,80
11008,note_on,,14,0,3,,,,,,2,,,77,0
11008,note_on,,14,0,1,,,,,,0,,,77,0
11010,note_on,,2,0,3,,,,,,2,,,79,80
11010,note_on,,2,0,1,,,,,,0,,,79,80
11032,note_on,,52,0,4,,,,,,3,,,51,0
11032,note_on,,52,0,2,,,,,,1,,,51,0
11036,note_on,,26,0,1,,,,,,0,,,79,0
11036,note_on,,26,0,3,,,,,,2,,,79,0
11040,note_on,,8,0,4,,,,,,3,,,53,80
11040,note_on,,8,0,2,,,,,,1,,,53,80
11040,note_on,,4,0,1,,,,,,0,,,72,80
11040,note_on,,4,0,3,,,,,,2,,,72,80
11052,note_on,,12,0,1,,,,,,0,,,72,0
11052,note_on,,12,0,3,,,,,,2,,,72,0
11054,note_on,,2,0,3,,,,,,2,,,74,80
11054,note_on,,2,0,1,,,,,,0,,,74,80
11068,note_on,,14,0,1,,,,,,0,,,74,0
11068,note_on,,14,0,3,,,,,,2,,,74,0
11070,note_on,,2,0,1,,,,,,0,,,72,80
11070,note_on,,2,0,3,,,,,,2,,,72,80
11082,note_on,,12,0,1,,,,,,0,,,72,0
11082,note_on,,12,0,3,,,,,,2,,,72,0
11084,note_on,,2,0,1,,,,,,0,,,74,80
11084,note_on,,2,0,3,,,,,,2,,,74,80
11098,note_on,,14,0,3,,,,,,2,,,74,0
11098,note_on,,14,0,1,,,,,,0,,,74,0
11100,note_on,,2,0,1,,,,,,0,,,72,80
11100,note_on,,2,0,3,,,,,,2,,,72,80
11112,note_on,,12,0,1,,,,,,0,,,72,0
11112,note_on,,12,0,3,,,,,,2,,,72,0
11114,note_on,,2,0,1,,,,,,0,,,74,80
11114,note_on,,2,0,3,,,,,,2,,,74,80
11128,note_on,,14,0,1,,,,,,0,,,74,0
11128,note_on,,14,0,3,,,,,,2,,,74,0
11130,note_on,,2,0,3,,,,,,2,,,72,80
11130,note_on,,2,0,1,,,,,,0,,,72,80
11142,note_on,,12,0,1,,,,,,0,,,72,0
11142,note_on,,12,0,3,,,,,,2,,,72,0
11144,note_on,,2,0,3,,,,,,2,,,74,80
11144,note_on,,104,0,4,,,,,,3,,,53,0
11144,note_on,,104,0,2,,,,,,1,,,53,0
11144,note_on,,2,0,1,,,,,,0,,,74,80
11158,note_on,,14,0,3,,,,,,2,,,74,0
11158,note_on,,14,0,1,,,,,,0,,,74,0
11160,note_on,,2,0,3,,,,,,2,,,72,80
11160,note_on,,16,0,4,,,,,,3,,,41,80
11160,note_on,,2,0,1,,,,,,0,,,72,80
11160,note_on,,16,0,2,,,,,,1,,,41,80
11172,note_on,,12,0,1,,,,,,0,,,72,0
11172,note_on,,12,0,3,,,,,,2,,,72,0
11174,note_on,,2,0,1,,,,,,0,,,74,80
11174,note_on,,2,0,3,,,,,,2,,,74,80
11188,note_on,,14,0,3,,,,,,2,,,74,0
11188,note_on,,14,0,1,,,,,,0,,,74,0
11190,note_on,,2,0,3,,,,,,2,,,72,80
11190,note_on,,2,0,1,,,,,,0,,,72,80
11216,note_on,,26,0,3,,,,,,2,,,72,0
11216,note_on,,26,0,1,,,,,,0,,,72,0
11220,note_on,,4,0,3,,,,,,2,,,70,80
11220,note_on,,4,0,1,,,,,,0,,,70,80
11264,note_on,,104,0,2,,,,,,1,,,41,0
11264,note_on,,104,0,4,,,,,,3,,,41,0
11272,note_on,,52,0,1,,,,,,0,,,70,0
11272,note_on,,52,0,3,,,,,,2,,,70,0
11280,note_on,,8,0,1,,,,,,0,,,70,80
11280,note_on,,16,0,4,,,,,,3,,,58,80
11280,note_on,,16,0,2,,,,,,1,,,58,80
11280,note_on,,8,0,3,,,,,,2,,,70,80
11384,note_on,,104,0,2,,,,,,1,,,58,0
11384,note_on,,104,0,4,,,,,,3,,,58,0
11400,note_on,,16,0,4,,,,,,3,,,53,80
11400,note_on,,16,0,2,,,,,,1,,,53,80
11452,note_on,,52,0,2,,,,,,1,,,53,0
11452,note_on,,52,0,4,,,,,,3,,,53,0
11460,note_on,,8,0,4,,,,,,3,,,58,80
11460,note_on,,8,0,2,,,,,,1,,,58,80
11490,note_on,,210,0,3,,,,,,2,,,70,0
11490,note_on,,210,0,1,,,,,,0,,,70,0
11512,note_on,,52,0,2,,,,,,1,,,58,0
11512,note_on,,52,0,4,,,,,,3,,,58,0
11520,note_on,,8,0,2,,,,,,1,,,60,80
11520,note_on,,8,0,4,,,,,,3,,,60,80
11624,note_on,,104,0,4,,,,,,3,,,60,0
11624,note_on,,104,0,2,,,,,,1,,,60,0
11640,note_on,,16,0,4,,,,,,3,,,53,80
11640,note_on,,16,0,2,,,,,,1,,,53,80
11692,note_on,,52,0,2,,,,,,1,,,53,0
11692,note_on,,52,0,4,,,,,,3,,,53,0
11700,note_on,,8,0,4,,,,,,3,,,60,80
11700,note_on,,8,0,2,,,,,,1,,,60,80
11752,note_on,,52,0,2,,,,,,1,,,60,0
11752,note_on,,52,0,4,,,,,,3,,,60,0
11760,note_on,,8,0,2,,,,,,1,,,62,80
11760,note_on,,8,0,4,,,,,,3,,,62,80
11812,note_on,,52,0,2,,,,,,1,,,62,0
11812,note_on,,52,0,4,,,,,,3,,,62,0
11820,note_on,,8,0,4,,,,,,3,,,65,80
11820,note_on,,8,0,2,,,,,,1,,,65,80
11872,note_on,,52,0,4,,,,,,3,,,65,0
11872,note_on,,52,0,2,,,,,,1,,,65,0
11880,note_on,,8,0,2,,,,,,1,,,62,80
11880,note_on,,8,0,4,,,,,,3,,,62,80
11932,note_on,,52,0,2,,,,,,1,,,62,0
11932,note_on,,52,0,4,,,,,,3,,,62,0
11940,note_on,,8,0,4,,,,,,3,,,58,80
11940,note_on,,8,0,2,,,,,,1,,,58,80
11992,note_on,,52,0,4,,,,,,3,,,58,0
11992,note_on,,52,0,2,,,,,,1,,,58,0
12000,note_on,,8,0,2,,,,,,1,,,57,80
12000,note_on,,8,0,4,,,,,,3,,,57,80
12052,note_on,,52,0,4,,,,,,3,,,57,0
12052,note_on,,52,0,2,,,,,,1,,,57,0
12060,note_on,,8,0,4,,,,,,3,,,60,80
12060,note_on,,8,0,2,,,,,,1,,,60,80
12112,note_on,,52,0,4,,,,,,3,,,60,0
12112,note_on,,52,0,2,,,,,,1,,,60,0
12120,note_on,,8,0,4,,,,,,3,,,57,80
12120,note_on,,8,0,2,,,,,,1,,,57,80
12172,note_on,,52,0,4,,,,,,3,,,57,0
12172,note_on,,52,0,2,,,,,,1,,,57,0
12180,note_on,,8,0,4,,,,,,3,,,53,80
12180,note_on,,8,0,2,,,,,,1,,,53,80
12232,note_on,,52,0,4,,,,,,3,,,53,0
12232,note_on,,52,0,2,,,,,,1,,,53,0
12240,note_on,,8,0,4,,,,,,3,,,58,80
12240,note_on,,8,0,2,,,,,,1,,,58,80
12292,note_on,,52,0,2,,,,,,1,,,58,0
12292,note_on,,52,0,4,,,,,,3,,,58,0
12300,note_on,,8,0,2,,,,,,1,,,62,80
12300,note_on,,8,0,4,,,,,,3,,,62,80
12352,note_on,,52,0,4,,,,,,3,,,62,0
12352,note_on,,52,0,2,,,,,,1,,,62,0
12360,note_on,,8,0,4,,,,,,3,,,58,80
12360,note_on,,8,0,2,,,,,,1,,,58,80
12412,note_on,,52,0,2,,,,,,1,,,58,0
12412,note_on,,52,0,4,,,,,,3,,,58,0
12420,note_on,,8,0,2,,,,,,1,,,53,80
12420,note_on,,8,0,4,,,,,,3,,,53,80
12472,note_on,,52,0,4,,,,,,3,,,53,0
12472,note_on,,52,0,2,,,,,,1,,,53,0
12480,note_on,,8,0,4,,,,,,3,,,55,80
12480,note_on,,8,0,2,,,,,,1,,,55,80
12532,note_on,,52,0,4,,,,,,3,,,55,0
12532,note_on,,52,0,2,,,,,,1,,,55,0
12540,note_on,,8,0,4,,,,,,3,,,53,80
12540,note_on,,8,0,2,,,,,,1,,,53,80
12592,note_on,,52,0,2,,,,,,1,,,53,0
12592,note_on,,52,0,4,,,,,,3,,,53,0
12600,note_on,,8,0,2,,,,,,1,,,55,80
12600,note_on,,8,0,4,,,,,,3,,,55,80
12652,note_on,,52,0,4,,,,,,3,,,55,0
12652,note_on,,52,0,2,,,,,,1,,,55,0
12660,note_on,,8,0,4,,,,,,3,,,51,80
12660,note_on,,8,0,2,,,,,,1,,,51,80
12712,note_on,,52,0,4,,,,,,3,,,51,0
12712,note_on,,52,0,2,,,,,,1,,,51,0
12720,note_on,,8,0,4,,,,,,3,,,57,80
12720,note_on,,8,0,2,,,,,,1,,,57,80
12772,note_on,,52,0,2,,,,,,1,,,57,0
12772,note_on,,52,0,4,,,,,,3,,,57,0
12780,note_on,,8,0,4,,,,,,3,,,60,80
12780,note_on,,8,0,2,,,,,,1,,,60,80
12832,note_on,,52,0,4,,,,,,3,,,60,0
12832,note_on,,52,0,2,,,,,,1,,,60,0
12840,note_on,,8,0,4,,,,,,3,,,57,80
12840,note_on,,8,0,2,,,,,,1,,,57,80
12892,note_on,,52,0,4,,,,,,3,,,57,0
12892,note_on,,52,0,2,,,,,,1,,,57,0
12900,note_on,,8,0,2,,,,,,1,,,51,80
12900,note_on,,8,0,4,,,,,,3,,,51,80
12952,note_on,,52,0,2,,,,,,1,,,51,0
12952,note_on,,52,0,4,,,,,,3,,,51,0
12960,note_on,,8,0,2,,,,,,1,,,53,80
12960,note_on,,8,0,4,,,,,,3,,,53,80
13012,note_on,,52,0,2,,,,,,1,,,53,0
13012,note_on,,52,0,4,,,,,,3,,,53,0
13020,note_on,,8,0,2,,,,,,1,,,51,80
13020,note_on,,8,0,4,,,,,,3,,,51,80
13072,note_on,,52,0,4,,,,,,3,,,51,0
13072,note_on,,52,0,2,,,,,,1,,,51,0
13080,note_on,,8,0,4,,,,,,3,,,53,80
13080,note_on,,8,0,2,,,,,,1,,,53,80
13132,note_on,,52,0,2,,,,,,1,,,53,0
13132,note_on,,52,0,4,,,,,,3,,,53,0
13140,note_on,,8,0,2,,,,,,1,,,50,80
13140,note_on,,8,0,4,,,,,,3,,,50,80
13192,note_on,,52,0,2,,,,,,1,,,50,0
13192,note_on,,52,0,4,,,,,,3,,,50,0
13200,note_on,,8,0,4,,,,,,3,,,55,80
13200,note_on,,8,0,2,,,,,,1,,,55,80
13252,note_on,,52,0,4,,,,,,3,,,55,0
13252,note_on,,52,0,2,,,,,,1,,,55,0
13260,note_on,,8,0,2,,,,,,1,,,58,80
13260,note_on,,8,0,4,,,,,,3,,,58,80
13312,note_on,,52,0,2,,,,,,1,,,58,0
13312,note_on,,52,0,4,,,,,,3,,,58,0
13320,note_on,,8,0,4,,,,,,3,,,55,80
13320,note_on,,8,0,2,,,,,,1,,,55,80
13372,note_on,,52,0,4,,,,,,3,,,55,0
13372,note_on,,52,0,2,,,,,,1,,,55,0
13380,note_on,,8,0,2,,,,,,1,,,50,80
13380,note_on,,8,0,4,,,,,,3,,,50,80
13432,note_on,,52,0,4,,,,,,3,,,50,0
13432,note_on,,52,0,2,,,,,,1,,,50,0
13440,note_on,,8,0,4,,,,,,3,,,51,80
13440,note_on,,8,0,2,,,,,,1,,,51,80
13492,note_on,,52,0,4,,,,,,3,,,51,0
13492,note_on,,52,0,2,,,,,,1,,,51,0
13500,note_on,,8,0,4,,,,,,3,,,50,80
13500,note_on,,8,0,2,,,,,,1,,,50,80
13552,note_on,,52,0,2,,,,,,1,,,50,0
13552,note_on,,52,0,4,,,,,,3,,,50,0
13560,note_on,,8,0,2,,,,,,1,,,51,80
13560,note_on,,8,0,4,,,,,,3,,,51,80
13612,note_on,,52,0,2,,,,,,1,,,51,0
13612,note_on,,52,0,4,,,,,,3,,,51,0
13620,note_on,,8,0,2,,,,,,1,,,48,80
13620,note_on,,8,0,4,,,,,,3,,,48,80
13672,note_on,,52,0,4,,,,,,3,,,48,0
13672,note_on,,52,0,2,,,,,,1,,,48,0
13680,note_on,,8,0,4,,,,,,3,,,50,80
13680,note_on,,8,0,2,,,,,,1,,,50,80
13784,note_on,,104,0,2,,,,,,1,,,50,0
13784,note_on,,104,0,4,,,,,,3,,,50,0
13800,note_on,,16,0,2,,,,,,1,,,46,80
13800,note_on,,16,0,4,,,,,,3,,,46,80
13852,note_on,,52,0,4,,,,,,3,,,46,0
13852,note_on,,52,0,2,,,,,,1,,,46,0
13860,note_on,,8,0,4,,,,,,3,,,50,80
13860,note_on,,8,0,2,,,,,,1,,,50,80
13912,note_on,,52,0,2,,,,,,1,,,50,0
13912,note_on,,52,0,4,,,,,,3,,,50,0
13920,note_on,,8,0,2,,,,,,1,,,53,80
13920,note_on,,8,0,4,,,,,,3,,,53,80
14024,note_on,,104,0,4,,,,,,3,,,53,0
14024,note_on,,104,0,2,,,,,,1,,,53,0
14040,note_on,,16,0,2,,,,,,1,,,41,80
14040,note_on,,16,0,4,,,,,,3,,,41,80
14092,note_on,,52,0,2,,,,,,1,,,41,0
14092,note_on,,52,0,4,,,,,,3,,,41,0
14100,note_on,,8,0,2,,,,,,1,,,53,80
14100,note_on,,8,0,4,,,,,,3,,,53,80
14152,note_on,,52,0,2,,,,,,1,,,53,0
14152,note_on,,52,0,4,,,,,,3,,,53,0
14160,note_on,,8,0,2,,,,,,1,,,58,80
14160,note_on,,2670,0,1,,,,,,0,,,74,80
14160,note_on,,2670,0,3,,,,,,2,,,74,80
14160,note_on,,8,0,4,,,,,,3,,,58,80
14212,note_on,,52,0,4,,,,,,3,,,58,0
14212,note_on,,52,0,2,,,,,,1,,,58,0
14220,note_on,,8,0,4,,,,,,3,,,62,80
14220,note_on,,8,0,2,,,,,,1,,,62,80
14272,note_on,,52,0,4,,,,,,3,,,62,0
14272,note_on,,52,0,2,,,,,,1,,,62,0
14280,note_on,,8,0,4,,,,,,3,,,58,80
14280,note_on,,8,0,2,,,,,,1,,,58,80
14332,note_on,,52,0,4,,,,,,3,,,58,0
14332,note_on,,52,0,2,,,,,,1,,,58,0
14340,note_on,,8,0,2,,,,,,1,,,55,80
14340,note_on,,8,0,4,,,,,,3,,,55,80
14392,note_on,,52,0,2,,,,,,1,,,55,0
14392,note_on,,52,0,4,,,,,,3,,,55,0
14400,note_on,,8,0,2,,,,,,1,,,54,80
14400,note_on,,8,0,4,,,,,,3,,,54,80
14452,note_on,,52,0,2,,,,,,1,,,54,0
14452,note_on,,292,0,3,,,,,,2,,,74,0
14452,note_on,,52,0,4,,,,,,3,,,54,0
14452,note_on,,292,0,1,,,,,,0,,,74,0
14460,note_on,,8,0,1,,,,,,0,,,72,80
14460,note_on,,8,0,2,,,,,,1,,,57,80
14460,note_on,,8,0,3,,,,,,2,,,72,80
14460,note_on,,8,0,4,,,,,,3,,,57,80
14512,note_on,,52,0,3,,,,,,2,,,72,0
14512,note_on,,52,0,4,,,,,,3,,,57,0
14512,note_on,,52,0,1,,,,,,0,,,72,0
14512,note_on,,52,0,2,,,,,,1,,,57,0
14520,note_on,,8,0,3,,,,,,2,,,75,80
14520,note_on,,8,0,2,,,,,,1,,,54,80
14520,note_on,,8,0,4,,,,,,3,,,54,80
14520,note_on,,8,0,1,,,,,,0,,,75,80
14572,note_on,,52,0,2,,,,,,1,,,54,0
14572,note_on,,52,0,4,,,,,,3,,,54,0
14572,note_on,,52,0,3,,,,,,2,,,75,0
14572,note_on,,52,0,1,,,,,,0,,,75,0
14580,note_on,,8,0,2,,,,,,1,,,50,80
14580,note_on,,8,0,3,,,,,,2,,,74,80
14580,note_on,,8,0,1,,,,,,0,,,74,80
14580,note_on,,8,0,4,,,,,,3,,,50,80
14632,note_on,,52,0,2,,,,,,1,,,50,0
14632,note_on,,52,0,1,,,,,,0,,,74,0
14632,note_on,,52,0,3,,,,,,2,,,74,0
14632,note_on,,52,0,4,,,,,,3,,,50,0
14640,note_on,,8,0,1,,,,,,0,,,74,80
14640,note_on,,8,0,3,,,,,,2,,,74,80
14640,note_on,,8,0,2,,,,,,1,,,55,80
14640,note_on,,8,0,4,,,,,,3,,,55,80
14692,note_on,,52,0,4,,,,,,3,,,55,0
14692,note_on,,52,0,2,,,,,,1,,,55,0
14700,note_on,,8,0,4,,,,,,3,,,58,80
14700,note_on,,8,0,2,,,,,,1,,,58,80
14752,note_on,,52,0,4,,,,,,3,,,58,0
14752,note_on,,52,0,2,,,,,,1,,,58,0
14760,note_on,,8,0,4,,,,,,3,,,55,80
14760,note_on,,8,0,2,,,,,,1,,,55,80
14812,note_on,,52,0,4,,,,,,3,,,55,0
14812,note_on,,52,0,2,,,,,,1,,,55,0
14820,note_on,,8,0,4,,,,,,3,,,50,80
14820,note_on,,8,0,2,,,,,,1,,,50,80
14872,note_on,,52,0,2,,,,,,1,,,50,0
14872,note_on,,52,0,4,,,,,,3,,,50,0
14880,note_on,,8,0,4,,,,,,3,,,51,80
14880,note_on,,8,0,2,,,,,,1,,,51,80
14932,note_on,,52,0,2,,,,,,1,,,51,0
14932,note_on,,292,0,3,,,,,,2,,,74,0
14932,note_on,,292,0,1,,,,,,0,,,74,0
14932,note_on,,52,0,4,,,,,,3,,,51,0
14940,note_on,,8,0,4,,,,,,3,,,50,80
14940,note_on,,8,0,1,,,,,,0,,,77,80
14940,note_on,,8,0,2,,,,,,1,,,50,80
14940,note_on,,8,0,3,,,,,,2,,,77,80
14992,note_on,,52,0,4,,,,,,3,,,50,0
14992,note_on,,52,0,3,,,,,,2,,,77,0
14992,note_on,,52,0,1,,,,,,0,,,77,0
14992,note_on,,52,0,2,,,,,,1,,,50,0
15000,note_on,,8,0,1,,,,,,0,,,79,80
15000,note_on,,8,0,2,,,,,,1,,,51,80
15000,note_on,,8,0,4,,,,,,3,,,51,80
15000,note_on,,8,0,3,,,,,,2,,,79,80
15052,note_on,,52,0,1,,,,,,0,,,79,0
15052,note_on,,52,0,4,,,,,,3,,,51,0
15052,note_on,,52,0,2,,,,,,1,,,51,0
15052,note_on,,52,0,3,,,,,,2,,,79,0
15060,note_on,,8,0,4,,,,,,3,,,48,80
15060,note_on,,8,0,1,,,,,,0,,,75,80
15060,note_on,,8,0,3,,,,,,2,,,75,80
15060,note_on,,8,0,2,,,,,,1,,,48,80
15112,note_on,,52,0,3,,,,,,2,,,75,0
15112,note_on,,52,0,1,,,,,,0,,,75,0
15112,note_on,,52,0,4,,,,,,3,,,48,0
15112,note_on,,52,0,2,,,,,,1,,,48,0
15120,note_on,,8,0,3,,,,,,2,,,72,80
15120,note_on,,8,0,2,,,,,,1,,,53,80
15120,note_on,,8,0,4,,,,,,3,,,53,80
15120,note_on,,8,0,1,,,,,,0,,,72,80
15172,note_on,,52,0,1,,,,,,0,,,72,0
15172,note_on,,52,0,2,,,,,,1,,,53,0
15172,note_on,,52,0,3,,,,,,2,,,72,0
15172,note_on,,52,0,4,,,,,,3,,,53,0
15180,note_on,,8,0,2,,,,,,1,,,57,80
15180,note_on,,8,0,4,,,,,,3,,,57,80
15180,note_on,,8,0,1,,,,,,0,,,77,80
15180,note_on,,8,0,3,,,,,,2,,,77,80
15232,note_on,,52,0,4,,,,,,3,,,57,0
15232,note_on,,52,0,2,,,,,,1,,,57,0
15232,note_on,,52,0,3,,,,,,2,,,77,0
15232,note_on,,52,0,1,,,,,,0,,,77,0
15240,note_on,,8,0,4,,,,,,3,,,53,80
15240,note_on,,8,0,3,,,,,,2,,,75,80
15240,note_on,,8,0,1,,,,,,0,,,75,80
15240,note_on,,8,0,2,,,,,,1,,,53,80
15266,note_on,,26,0,3,,,,,,2,,,75,0
15266,note_on,,26,0,1,,,,,,0,,,75,0
15270,note_on,,4,0,3,,,,,,2,,,74,80
15270,note_on,,4,0,1,,,,,,0,,,74,80
15292,note_on,,52,0,2,,,,,,1,,,53,0
15292,note_on,,52,0,4,,,,,,3,,,53,0
15296,note_on,,26,0,1,,,,,,0,,,74,0
15296,note_on,,26,0,3,,,,,,2,,,74,0
15300,note_on,,4,0,3,,,,,,2,,,72,80
15300,note_on,,8,0,4,,,,,,3,,,48,80
15300,note_on,,4,0,1,,,,,,0,,,72,80
15300,note_on,,8,0,2,,,,,,1,,,48,80
15352,note_on,,52,0,1,,,,,,0,,,72,0
15352,note_on,,52,0,4,,,,,,3,,,48,0
15352,note_on,,52,0,3,,,,,,2,,,72,0
15352,note_on,,52,0,2,,,,,,1,,,48,0
15360,note_on,,8,0,1,,,,,,0,,,70,80
15360,note_on,,8,0,3,,,,,,2,,,70,80
15360,note_on,,8,0,2,,,,,,1,,,50,80
15360,note_on,,8,0,4,,,,,,3,,,50,80
15412,note_on,,52,0,4,,,,,,3,,,50,0
15412,note_on,,52,0,3,,,,,,2,,,70,0
15412,note_on,,52,0,2,,,,,,1,,,50,0
15412,note_on,,52,0,1,,,,,,0,,,70,0
15420,note_on,,8,0,3,,,,,,2,,,72,80
15420,note_on,,8,0,1,,,,,,0,,,72,80
15420,note_on,,8,0,2,,,,,,1,,,48,80
15420,note_on,,8,0,4,,,,,,3,,,48,80
15472,note_on,,52,0,1,,,,,,0,,,72,0
15472,note_on,,52,0,2,,,,,,1,,,48,0
15472,note_on,,52,0,4,,,,,,3,,,48,0
15472,note_on,,52,0,3,,,,,,2,,,72,0
15480,note_on,,8,0,2,,,,,,1,,,50,80
15480,note_on,,8,0,4,,,,,,3,,,50,80
15480,note_on,,8,0,3,,,,,,2,,,69,80
15480,note_on,,8,0,1,,,,,,0,,,69,80
15532,note_on,,52,0,4,,,,,,3,,,50,0
15532,note_on,,52,0,1,,,,,,0,,,69,0
15532,note_on,,52,0,3,,,,,,2,,,69,0
15532,note_on,,52,0,2,,,,,,1,,,50,0
15540,note_on,,8,0,4,,,,,,3,,,46,80
15540,note_on,,8,0,1,,,,,,0,,,70,80
15540,note_on,,8,0,3,,,,,,2,,,70,80
15540,note_on,,8,0,2,,,,,,1,,,46,80
15592,note_on,,52,0,1,,,,,,0,,,70,0
15592,note_on,,52,0,3,,,,,,2,,,70,0
15592,note_on,,52,0,2,,,,,,1,,,46,0
15592,note_on,,52,0,4,,,,,,3,,,46,0
15600,note_on,,8,0,1,,,,,,0,,,72,80
15600,note_on,,8,0,2,,,,,,1,,,51,80
15600,note_on,,8,0,4,,,,,,3,,,51,80
15600,note_on,,8,0,3,,,,,,2,,,72,80
15652,note_on,,52,0,3,,,,,,2,,,72,0
15652,note_on,,52,0,1,,,,,,0,,,72,0
15660,note_on,,8,0,3,,,,,,2,,,65,80
15660,note_on,,8,0,1,,,,,,0,,,65,80
15704,note_on,,104,0,2,,,,,,1,,,51,0
15704,note_on,,104,0,4,,,,,,3,,,51,0
15712,note_on,,52,0,1,,,,,,0,,,65,0
15712,note_on,,52,0,3,,,,,,2,,,65,0
15720,note_on,,8,0,1,,,,,,0,,,69,80
15720,note_on,,8,0,3,,,,,,2,,,69,80
15720,note_on,,16,0,2,,,,,,1,,,39,80
15720,note_on,,16,0,4,,,,,,3,,,39,80
15772,note_on,,52,0,1,,,,,,0,,,69,0
15772,note_on,,52,0,3,,,,,,2,,,69,0
15780,note_on,,8,0,1,,,,,,0,,,70,80
15780,note_on,,8,0,3,,,,,,2,,,70,80
15824,note_on,,104,0,2,,,,,,1,,,39,0
15824,note_on,,104,0,4,,,,,,3,,,39,0
15832,note_on,,52,0,1,,,,,,0,,,70,0
15832,note_on,,52,0,3,,,,,,2,,,70,0
15840,note_on,,8,0,1,,,,,,0,,,72,80
15840,note_on,,8,0,3,,,,,,2,,,72,80
15892,note_on,,52,0,3,,,,,,2,,,72,0
15892,note_on,,52,0,1,,,,,,0,,,72,0
15900,note_on,,8,0,1,,,,,,0,,,65,80
15900,note_on,,8,0,3,,,,,,2,,,65,80
15952,note_on,,52,0,1,,,,,,0,,,65,0
15952,note_on,,52,0,3,,,,,,2,,,65,0
15960,note_on,,8,0,3,,,,,,2,,,77,80
15960,note_on,,136,0,2,,,,,,1,,,50,80
15960,note_on,,136,0,4,,,,,,3,,,50,80
15960,note_on,,8,0,1,,,,,,0,,,77,80
16012,note_on,,52,0,3,,,,,,2,,,77,0
16012,note_on,,52,0,1,,,,,,0,,,77,0
16020,note_on,,8,0,3,,,,,,2,,,79,80
16020,note_on,,8,0,1,,,,,,0,,,79,80
16064,note_on,,104,0,2,,,,,,1,,,50,0
16064,note_on,,104,0,4,,,,,,3,,,50,0
16072,note_on,,52,0,3,,,,,,2,,,79,0
16072,note_on,,52,0,1,,,,,,0,,,79,0
16080,note_on,,8,0,3,,,,,,2,,,69,80
16080,note_on,,16,0,2,,,,,,1,,,48,80
16080,note_on,,8,0,1,,,,,,0,,,69,80
16080,note_on,,16,0,4,,,,,,3,,,48,80
16132,note_on,,52,0,1,,,,,,0,,,69,0
16132,note_on,,52,0,3,,,,,,2,,,69,0
16132,note_on,,52,0,2,,,,,,1,,,48,0
16132,note_on,,52,0,4,,,,,,3,,,48,0
16140,note_on,,8,0,2,,,,,,1,,,53,80
16140,note_on,,8,0,1,,,,,,0,,,70,80
16140,note_on,,8,0,3,,,,,,2,,,70,80
16140,note_on,,8,0,4,,,,,,3,,,53,80
16192,note_on,,52,0,1,,,,,,0,,,70,0
16192,note_on,,52,0,2,,,,,,1,,,53,0
16192,note_on,,52,0,3,,,,,,2,,,70,0
16192,note_on,,52,0,4,,,,,,3,,,53,0
16200,note_on,,8,0,4,,,,,,3,,,51,80
16200,note_on,,8,0,3,,,,,,2,,,69,80
16200,note_on,,8,0,2,,,,,,1,,,51,80
16200,note_on,,8,0,1,,,,,,0,,,69,80
16252,note_on,,52,0,4,,,,,,3,,,51,0
16252,note_on,,52,0,3,,,,,,2,,,69,0
16252,note_on,,52,0,2,,,,,,1,,,51,0
16252,note_on,,52,0,1,,,,,,0,,,69,0
16260,note_on,,8,0,4,,,,,,3,,,48,80
16260,note_on,,8,0,1,,,,,,0,,,70,80
16260,note_on,,8,0,2,,,,,,1,,,48,80
16260,note_on,,8,0,3,,,,,,2,,,70,80
16312,note_on,,52,0,2,,,,,,1,,,48,0
16312,note_on,,52,0,4,,,,,,3,,,48,0
16312,note_on,,52,0,3,,,,,,2,,,70,0
16312,note_on,,52,0,1,,,,,,0,,,70,0
16320,note_on,,8,0,2,,,,,,1,,,50,80
16320,note_on,,8,0,4,,,,,,3,,,50,80
16320,note_on,,8,0,3,,,,,,2,,,70,80
16320,note_on,,8,0,1,,,,,,0,,,70,80
16332,note_on,,12,0,1,,,,,,0,,,70,0
16332,note_on,,12,0,3,,,,,,2,,,70,0
16334,note_on,,2,0,3,,,,,,2,,,72,80
16334,note_on,,2,0,1,,,,,,0,,,72,80
16348,note_on,,14,0,3,,,,,,2,,,72,0
16348,note_on,,14,0,1,,,,,,0,,,72,0
16350,note_on,,2,0,1,,,,,,0,,,70,80
16350,note_on,,2,0,3,,,,,,2,,,70,80
16362,note_on,,12,0,3,,,,,,2,,,70,0
16362,note_on,,12,0,1,,,,,,0,,,70,0
16364,note_on,,2,0,1,,,,,,0,,,72,80
16364,note_on,,2,0,3,,,,,,2,,,72,80
16372,note_on,,52,0,2,,,,,,1,,,50,0
16372,note_on,,52,0,4,,,,,,3,,,50,0
16378,note_on,,14,0,1,,,,,,0,,,72,0
16378,note_on,,14,0,3,,,,,,2,,,72,0
16380,note_on,,8,0,2,,,,,,1,,,48,80
16380,note_on,,8,0,4,,,,,,3,,,48,80
16380,note_on,,2,0,3,,,,,,2,,,70,80
16380,note_on,,2,0,1,,,,,,0,,,70,80
16392,note_on,,12,0,1,,,,,,0,,,70,0
16392,note_on,,12,0,3,,,,,,2,,,70,0
16394,note_on,,2,0,3,,,,,,2,,,72,80
16394,note_on,,2,0,1,,,,,,0,,,72,80
16408,note_on,,14,0,3,,,,,,2,,,72,0
16408,note_on,,14,0,1,,,,,,0,,,72,0
16410,note_on,,2,0,3,,,,,,2,,,70,80
16410,note_on,,2,0,1,,,,,,0,,,70,80
16422,note_on,,12,0,1,,,,,,0,,,70,0
16422,note_on,,12,0,3,,,,,,2,,,70,0
16424,note_on,,2,0,1,,,,,,0,,,72,80
16424,note_on,,2,0,3,,,,,,2,,,72,80
16432,note_on,,52,0,2,,,,,,1,,,48,0
16432,note_on,,52,0,4,,,,,,3,,,48,0
16438,note_on,,14,0,3,,,,,,2,,,72,0
16438,note_on,,14,0,1,,,,,,0,,,72,0
16440,note_on,,2,0,1,,,,,,0,,,70,80
16440,note_on,,2,0,3,,,,,,2,,,70,80
16440,note_on,,8,0,4,,,,,,3,,,50,80
16440,note_on,,8,0,2,,,,,,1,,,50,80
16492,note_on,,52,0,4,,,,,,3,,,50,0
16492,note_on,,52,0,2,,,,,,1,,,50,0
16496,note_on,,56,0,1,,,,,,0,,,70,0
16496,note_on,,56,0,3,,,,,,2,,,70,0
16500,note_on,,8,0,4,,,,,,3,,,46,80
16500,note_on,,4,0,1,,,,,,0,,,69,80
16500,note_on,,4,0,3,,,,,,2,,,69,80
16500,note_on,,8,0,2,,,,,,1,,,46,80
16526,note_on,,26,0,3,,,,,,2,,,69,0
16526,note_on,,26,0,1,,,,,,0,,,69,0
16530,note_on,,4,0,1,,,,,,0,,,70,80
16530,note_on,,4,0,3,,,,,,2,,,70,80
16552,note_on,,52,0,4,,,,,,3,,,46,0
16552,note_on,,52,0,2,,,,,,1,,,46,0
16556,note_on,,26,0,1,,,,,,0,,,70,0
16556,note_on,,26,0,3,,,,,,2,,,70,0
16560,note_on,,4,0,1,,,,,,0,,,72,80
16560,note_on,,8,0,4,,,,,,3,,,53,80
16560,note_on,,8,0,2,,,,,,1,,,53,80
16560,note_on,,4,0,3,,,,,,2,,,72,80
16664,note_on,,104,0,2,,,,,,1,,,53,0
16664,note_on,,104,0,3,,,,,,2,,,72,0
16664,note_on,,104,0,4,,,,,,3,,,53,0
16664,note_on,,104,0,1,,,,,,0,,,72,0
16680,note_on,,16,0,3,,,,,,2,,,65,80
16680,note_on,,16,0,1,,,,,,0,,,65,80
16680,note_on,,16,0,4,,,,,,3,,,48,80
16680,note_on,,16,0,2,,,,,,1,,,48,80
16732,note_on,,52,0,4,,,,,,3,,,48,0
16732,note_on,,52,0,2,,,,,,1,,,48,0
16740,note_on,,8,0,2,,,,,,1,,,53,80
16740,note_on,,8,0,4,,,,,,3,,,53,80
16784,note_on,,104,0,3,,,,,,2,,,65,0
16784,note_on,,104,0,1,,,,,,0,,,65,0
16792,note_on,,52,0,2,,,,,,1,,,53,0
16792,note_on,,52,0,4,,,,,,3,,,53,0
16800,note_on,,8,0,4,,,,,,3,,,55,80
16800,note_on,,8,0,2,,,,,,1,,,55,80
16904,note_on,,104,0,2,,,,,,1,,,55,0
16904,note_on,,104,0,4,,,,,,3,,,55,0
16920,note_on,,16,0,2,,,,,,1,,,48,80
16920,note_on,,16,0,4,,,,,,3,,,48,80
16972,note_on,,52,0,2,,,,,,1,,,48,0
16972,note_on,,52,0,4,,,,,,3,,,48,0
16980,note_on,,8,0,2,,,,,,1,,,55,80
16980,note_on,,8,0,4,,,,,,3,,,55,80
17032,note_on,,52,0,2,,,,,,1,,,55,0
17032,note_on,,52,0,4,,,,,,3,,,55,0
17040,note_on,,8,0,2,,,,,,1,,,57,80
17040,note_on,,256,0,3,,,,,,2,,,72,80
17040,note_on,,256,0,1,,,,,,0,,,72,80
17040,note_on,,8,0,4,,,,,,3,,,57,80
17092,note_on,,52,0,4,,,,,,3,,,57,0
17092,note_on,,52,0,2,,,,,,1,,,57,0
17100,note_on,,8,0,4,,,,,,3,,,60,80
17100,note_on,,8,0,2,,,,,,1,,,60,80
17144,note_on,,104,0,1,,,,,,0,,,72,0
17144,note_on,,104,0,3,,,,,,2,,,72,0
17152,note_on,,52,0,4,,,,,,3,,,60,0
17152,note_on,,52,0,2,,,,,,1,,,60,0
17160,note_on,,8,0,2,,,,,,1,,,57,80
17160,note_on,,16,0,3,,,,,,2,,,65,80
17160,note_on,,8,0,4,,,,,,3,,,57,80
17160,note_on,,16,0,1,,,,,,0,,,65,80
17212,note_on,,52,0,2,,,,,,1,,,57,0
17212,note_on,,52,0,1,,,,,,0,,,65,0
17212,note_on,,52,0,4,,,,,,3,,,57,0
17212,note_on,,52,0,3,,,,,,2,,,65,0
17220,note_on,,8,0,1,,,,,,0,,,72,80
17220,note_on,,8,0,3,,,,,,2,,,72,80
17220,note_on,,8,0,4,,,,,,3,,,53,80
17220,note_on,,8,0,2,,,,,,1,,,53,80
17272,note_on,,52,0,2,,,,,,1,,,53,0
17272,note_on,,52,0,3,,,,,,2,,,72,0
17272,note_on,,52,0,1,,,,,,0,,,72,0
17272,note_on,,52,0,4,,,,,,3,,,53,0
17280,note_on,,8,0,2,,,,,,1,,,59,80
17280,note_on,,8,0,1,,,,,,0,,,74,80
17280,note_on,,8,0,3,,,,,,2,,,74,80
17280,note_on,,8,0,4,,,,,,3,,,59,80
17332,note_on,,52,0,2,,,,,,1,,,59,0
17332,note_on,,52,0,1,,,,,,0,,,74,0
17332,note_on,,52,0,4,,,,,,3,,,59,0
17332,note_on,,52,0,3,,,,,,2,,,74,0
17340,note_on,,8,0,2,,,,,,1,,,62,80
17340,note_on,,8,0,4,,,,,,3,,,62,80
17340,note_on,,8,0,1,,,,,,0,,,75,80
17340,note_on,,8,0,3,,,,,,2,,,75,80
17366,note_on,,26,0,3,,,,,,2,,,75,0
17366,note_on,,26,0,1,,,,,,0,,,75,0
17370,note_on,,4,0,1,,,,,,0,,,77,80
17370,note_on,,4,0,3,,,,,,2,,,77,80
17392,note_on,,52,0,4,,,,,,3,,,62,0
17392,note_on,,52,0,2,,,,,,1,,,62,0
17396,note_on,,26,0,3,,,,,,2,,,77,0
17396,note_on,,26,0,1,,,,,,0,,,77,0
17400,note_on,,8,0,2,,,,,,1,,,59,80
17400,note_on,,4,0,3,,,,,,2,,,75,80
17400,note_on,,4,0,1,,,,,,0,,,75,80
17400,note_on,,8,0,4,,,,,,3,,,59,80
17452,note_on,,52,0,1,,,,,,0,,,75,0
17452,note_on,,52,0,3,,,,,,2,,,75,0
17452,note_on,,52,0,2,,,,,,1,,,59,0
17452,note_on,,52,0,4,,,,,,3,,,59,0
17460,note_on,,8,0,2,,,,,,1,,,55,80
17460,note_on,,8,0,4,,,,,,3,,,55,80
17460,note_on,,8,0,1,,,,,,0,,,74,80
17460,note_on,,8,0,3,,,,,,2,,,74,80
17512,note_on,,52,0,1,,,,,,0,,,74,0
17512,note_on,,52,0,2,,,,,,1,,,55,0
17512,note_on,,52,0,3,,,,,,2,,,74,0
17512,note_on,,52,0,4,,,,,,3,,,55,0
17520,note_on,,8,0,2,,,,,,1,,,60,80
17520,note_on,,8,0,3,,,,,,2,,,75,80
17520,note_on,,8,0,4,,,,,,3,,,60,80
17520,note_on,,8,0,1,,,,,,0,,,75,80
17624,note_on,,104,0,2,,,,,,1,,,60,0
17624,note_on,,104,0,4,,,,,,3,,,60,0
17640,note_on,,16,0,4,,,,,,3,,,55,80
17640,note_on,,16,0,2,,,,,,1,,,55,80
17692,note_on,,52,0,2,,,,,,1,,,55,0
17692,note_on,,52,0,4,,,,,,3,,,55,0
17700,note_on,,8,0,4,,,,,,3,,,60,80
17700,note_on,,8,0,2,,,,,,1,,,60,80
17730,note_on,,210,0,1,,,,,,0,,,75,0
17730,note_on,,210,0,3,,,,,,2,,,75,0
17752,note_on,,52,0,4,,,,,,3,,,60,0
17752,note_on,,52,0,2,,,,,,1,,,60,0
17760,note_on,,8,0,4,,,,,,3,,,62,80
17760,note_on,,8,0,2,,,,,,1,,,62,80
17864,note_on,,104,0,4,,,,,,3,,,62,0
17864,note_on,,104,0,2,,,,,,1,,,62,0
17880,note_on,,16,0,4,,,,,,3,,,55,80
17880,note_on,,16,0,2,,,,,,1,,,55,80
17932,note_on,,52,0,4,,,,,,3,,,55,0
17932,note_on,,52,0,2,,,,,,1,,,55,0
17940,note_on,,8,0,2,,,,,,1,,,62,80
17940,note_on,,8,0,4,,,,,,3,,,62,80
17992,note_on,,52,0,2,,,,,,1,,,62,0
17992,note_on,,52,0,4,,,,,,3,,,62,0
18000,note_on,,8,0,2,,,,,,1,,,63,80
18000,note_on,,270,0,1,,,,,,0,,,72,80
18000,note_on,,270,0,3,,,,,,2,,,72,80
18000,note_on,,8,0,4,,,,,,3,,,63,80
18052,note_on,,52,0,2,,,,,,1,,,63,0
18052,note_on,,52,0,4,,,,,,3,,,63,0
18060,note_on,,8,0,4,,,,,,3,,,67,80
18060,note_on,,8,0,2,,,,,,1,,,67,80
18104,note_on,,104,0,1,,,,,,0,,,72,0
18104,note_on,,104,0,3,,,,,,2,,,72,0
18112,note_on,,52,0,4,,,,,,3,,,67,0
18112,note_on,,52,0,2,,,,,,1,,,67,0
18120,note_on,,8,0,4,,,,,,3,,,63,80
18120,note_on,,8,0,2,,,,,,1,,,63,80
18120,note_on,,16,0,3,,,,,,2,,,67,80
18120,note_on,,16,0,1,,,,,,0,,,67,80
18172,note_on,,52,0,2,,,,,,1,,,63,0
18172,note_on,,52,0,1,,,,,,0,,,67,0
18172,note_on,,52,0,4,,,,,,3,,,63,0
18172,note_on,,52,0,3,,,,,,2,,,67,0
18180,note_on,,8,0,1,,,,,,0,,,72,80
18180,note_on,,8,0,4,,,,,,3,,,60,80
18180,note_on,,8,0,2,,,,,,1,,,60,80
18180,note_on,,8,0,3,,,,,,2,,,72,80
18232,note_on,,52,0,1,,,,,,0,,,72,0
18232,note_on,,52,0,4,,,,,,3,,,60,0
18232,note_on,,52,0,3,,,,,,2,,,72,0
18232,note_on,,52,0,2,,,,,,1,,,60,0
18240,note_on,,8,0,1,,,,,,0,,,77,80
18240,note_on,,8,0,2,,,,,,1,,,59,80
18240,note_on,,8,0,4,,,,,,3,,,59,80
18240,note_on,,8,0,3,,,,,,2,,,77,80
18292,note_on,,52,0,2,,,,,,1,,,59,0
18292,note_on,,52,0,1,,,,,,0,,,77,0
18292,note_on,,52,0,3,,,,,,2,,,77,0
18292,note_on,,52,0,4,,,,,,3,,,59,0
18300,note_on,,8,0,4,,,,,,3,,,62,80
18300,note_on,,8,0,2,,,,,,1,,,62,80
18300,note_on,,8,0,1,,,,,,0,,,79,80
18300,note_on,,8,0,3,,,,,,2,,,79,80
18326,note_on,,26,0,1,,,,,,0,,,79,0
18326,note_on,,26,0,3,,,,,,2,,,79,0
18330,note_on,,4,0,3,,,,,,2,,,80,80
18330,note_on,,4,0,1,,,,,,0,,,80,80
18352,note_on,,52,0,2,,,,,,1,,,62,0
18352,note_on,,52,0,4,,,,,,3,,,62,0
18356,note_on,,26,0,1,,,,,,0,,,80,0
18356,note_on,,26,0,3,,,,,,2,,,80,0
18360,note_on,,8,0,4,,,,,,3,,,59,80
18360,note_on,,4,0,1,,,,,,0,,,79,80
18360,note_on,,4,0,3,,,,,,2,,,79,80
18360,note_on,,8,0,2,,,,,,1,,,59,80
18412,note_on,,52,0,4,,,,,,3,,,59,0
18412,note_on,,52,0,1,,,,,,0,,,79,0
18412,note_on,,52,0,2,,,,,,1,,,59,0
18412,note_on,,52,0,3,,,,,,2,,,79,0
18420,note_on,,8,0,1,,,,,,0,,,77,80
18420,note_on,,8,0,4,,,,,,3,,,55,80
18420,note_on,,8,0,2,,,,,,1,,,55,80
18420,note_on,,8,0,3,,,,,,2,,,77,80
18472,note_on,,52,0,2,,,,,,1,,,55,0
18472,note_on,,52,0,4,,,,,,3,,,55,0
18472,note_on,,52,0,1,,,,,,0,,,77,0
18472,note_on,,52,0,3,,,,,,2,,,77,0
18480,note_on,,8,0,4,,,,,,3,,,60,80
18480,note_on,,8,0,2,,,,,,1,,,60,80
18480,note_on,,8,0,3,,,,,,2,,,75,80
18480,note_on,,8,0,1,,,,,,0,,,75,80
18532,note_on,,52,0,2,,,,,,1,,,60,0
18532,note_on,,52,0,4,,,,,,3,,,60,0
18540,note_on,,8,0,4,,,,,,3,,,63,80
18540,note_on,,8,0,2,,,,,,1,,,63,80
18592,note_on,,52,0,4,,,,,,3,,,63,0
18592,note_on,,52,0,2,,,,,,1,,,63,0
18600,note_on,,8,0,4,,,,,,3,,,60,80
18600,note_on,,8,0,2,,,,,,1,,,60,80
18652,note_on,,52,0,2,,,,,,1,,,60,0
18652,note_on,,52,0,4,,,,,,3,,,60,0
18660,note_on,,8,0,2,,,,,,1,,,55,80
18660,note_on,,8,0,4,,,,,,3,,,55,80
18712,note_on,,52,0,4,,,,,,3,,,55,0
18712,note_on,,52,0,2,,,,,,1,,,55,0
18720,note_on,,8,0,4,,,,,,3,,,56,80
18720,note_on,,8,0,2,,,,,,1,,,56,80
18772,note_on,,52,0,2,,,,,,1,,,56,0
18772,note_on,,52,0,4,,,,,,3,,,56,0
18780,note_on,,8,0,4,,,,,,3,,,55,80
18780,note_on,,8,0,2,,,,,,1,,,55,80
18824,note_on,,344,0,3,,,,,,2,,,75,0
18824,note_on,,344,0,1,,,,,,0,,,75,0
18832,note_on,,52,0,2,,,,,,1,,,55,0
18832,note_on,,52,0,4,,,,,,3,,,55,0
18840,note_on,,16,0,1,,,,,,0,,,77,80
18840,note_on,,16,0,3,,,,,,2,,,77,80
18840,note_on,,8,0,4,,,,,,3,,,56,80
18840,note_on,,8,0,2,,,,,,1,,,56,80
18892,note_on,,52,0,1,,,,,,0,,,77,0
18892,note_on,,52,0,2,,,,,,1,,,56,0
18892,note_on,,52,0,3,,,,,,2,,,77,0
18892,note_on,,52,0,4,,,,,,3,,,56,0
18900,note_on,,8,0,2,,,,,,1,,,53,80
18900,note_on,,8,0,4,,,,,,3,,,53,80
18900,note_on,,8,0,3,,,,,,2,,,74,80
18900,note_on,,8,0,1,,,,,,0,,,74,80
18926,note_on,,26,0,3,,,,,,2,,,74,0
18926,note_on,,26,0,1,,,,,,0,,,74,0
18930,note_on,,4,0,3,,,,,,2,,,75,80
18930,note_on,,4,0,1,,,,,,0,,,75,80
18952,note_on,,52,0,2,,,,,,1,,,53,0
18952,note_on,,52,0,4,,,,,,3,,,53,0
18956,note_on,,26,0,3,,,,,,2,,,75,0
18956,note_on,,26,0,1,,,,,,0,,,75,0
18960,note_on,,8,0,2,,,,,,1,,,58,80
18960,note_on,,4,0,3,,,,,,2,,,75,80
18960,note_on,,8,0,4,,,,,,3,,,58,80
18960,note_on,,4,0,1,,,,,,0,,,75,80
19012,note_on,,52,0,2,,,,,,1,,,58,0
19012,note_on,,52,0,4,,,,,,3,,,58,0
19020,note_on,,8,0,4,,,,,,3,,,62,80
19020,note_on,,8,0,2,,,,,,1,,,62,80
19064,note_on,,104,0,1,,,,,,0,,,75,0
19064,note_on,,104,0,3,,,,,,2,,,75,0
19072,note_on,,52,0,4,,,,,,3,,,62,0
19072,note_on,,52,0,2,,,,,,1,,,62,0
19080,note_on,,16,0,1,,,,,,0,,,74,80
19080,note_on,,8,0,4,,,,,,3,,,58,80
19080,note_on,,16,0,3,,,,,,2,,,74,80
19080,note_on,,8,0,2,,,,,,1,,,58,80
19132,note_on,,52,0,4,,,,,,3,,,58,0
19132,note_on,,52,0,2,,,,,,1,,,58,0
19140,note_on,,8,0,2,,,,,,1,,,53,80
19140,note_on,,8,0,4,,,,,,3,,,53,80
19192,note_on,,52,0,2,,,,,,1,,,53,0
19192,note_on,,52,0,4,,,,,,3,,,53,0
19200,note_on,,8,0,2,,,,,,1,,,55,80
19200,note_on,,8,0,4,,,,,,3,,,55,80
19252,note_on,,172,0,1,,,,,,0,,,74,0
19252,note_on,,52,0,2,,,,,,1,,,55,0
19252,note_on,,172,0,3,,,,,,2,,,74,0
19252,note_on,,52,0,4,,,,,,3,,,55,0
19260,note_on,,8,0,2,,,,,,1,,,53,80
19260,note_on,,8,0,1,,,,,,0,,,82,80
19260,note_on,,8,0,3,,,,,,2,,,82,80
19260,note_on,,8,0,4,,,,,,3,,,53,80
19312,note_on,,52,0,4,,,,,,3,,,53,0
19312,note_on,,52,0,2,,,,,,1,,,53,0
19312,note_on,,52,0,1,,,,,,0,,,82,0
19312,note_on,,52,0,3,,,,,,2,,,82,0
19320,note_on,,8,0,4,,,,,,3,,,55,80
19320,note_on,,8,0,2,,,,,,1,,,55,80
19320,note_on,,8,0,1,,,,,,0,,,79,80
19320,note_on,,8,0,3,,,,,,2,,,79,80
19372,note_on,,52,0,3,,,,,,2,,,79,0
19372,note_on,,52,0,2,,,,,,1,,,55,0
19372,note_on,,52,0,1,,,,,,0,,,79,0
19372,note_on,,52,0,4,,,,,,3,,,55,0
19380,note_on,,8,0,3,,,,,,2,,,73,80
19380,note_on,,8,0,2,,,,,,1,,,51,80
19380,note_on,,8,0,1,,,,,,0,,,73,80
19380,note_on,,8,0,4,,,,,,3,,,51,80
19432,note_on,,52,0,3,,,,,,2,,,73,0
19432,note_on,,52,0,2,,,,,,1,,,51,0
19432,note_on,,52,0,4,,,,,,3,,,51,0
19432,note_on,,52,0,1,,,,,,0,,,73,0
19440,note_on,,8,0,2,,,,,,1,,,56,80
19440,note_on,,8,0,3,,,,,,2,,,72,80
19440,note_on,,8,0,1,,,,,,0,,,72,80
19440,note_on,,8,0,4,,,,,,3,,,56,80
19492,note_on,,52,0,4,,,,,,3,,,56,0
19492,note_on,,52,0,2,,,,,,1,,,56,0
19500,note_on,,8,0,2,,,,,,1,,,60,80
19500,note_on,,8,0,4,,,,,,3,,,60,80
19552,note_on,,52,0,4,,,,,,3,,,60,0
19552,note_on,,52,0,2,,,,,,1,,,60,0
19560,note_on,,8,0,2,,,,,,1,,,56,80
19560,note_on,,8,0,4,,,,,,3,,,56,80
19612,note_on,,52,0,4,,,,,,3,,,56,0
19612,note_on,,52,0,2,,,,,,1,,,56,0
19620,note_on,,8,0,2,,,,,,1,,,51,80
19620,note_on,,8,0,4,,,,,,3,,,51,80
19672,note_on,,52,0,2,,,,,,1,,,51,0
19672,note_on,,52,0,4,,,,,,3,,,51,0
19680,note_on,,8,0,2,,,,,,1,,,53,80
19680,note_on,,8,0,4,,,,,,3,,,53,80
19732,note_on,,52,0,4,,,,,,3,,,53,0
19732,note_on,,292,0,3,,,,,,2,,,72,0
19732,note_on,,52,0,2,,,,,,1,,,53,0
19732,note_on,,292,0,1,,,,,,0,,,72,0
19740,note_on,,8,0,3,,,,,,2,,,75,80
19740,note_on,,8,0,4,,,,,,3,,,51,80
19740,note_on,,8,0,1,,,,,,0,,,75,80
19740,note_on,,8,0,2,,,,,,1,,,51,80
19792,note_on,,52,0,1,,,,,,0,,,75,0
19792,note_on,,52,0,4,,,,,,3,,,51,0
19792,note_on,,52,0,3,,,,,,2,,,75,0
19792,note_on,,52,0,2,,,,,,1,,,51,0
19800,note_on,,8,0,2,,,,,,1,,,53,80
19800,note_on,,8,0,1,,,,,,0,,,74,80
19800,note_on,,8,0,4,,,,,,3,,,53,80
19800,note_on,,8,0,3,,,,,,2,,,74,80
19852,note_on,,52,0,2,,,,,,1,,,53,0
19852,note_on,,52,0,4,,,,,,3,,,53,0
19852,note_on,,52,0,1,,,,,,0,,,74,0
19852,note_on,,52,0,3,,,,,,2,,,74,0
19860,note_on,,8,0,2,,,,,,1,,,50,80
19860,note_on,,8,0,4,,,,,,3,,,50,80
19860,note_on,,8,0,1,,,,,,0,,,75,80
19860,note_on,,8,0,3,,,,,,2,,,75,80
19886,note_on,,26,0,1,,,,,,0,,,75,0
19886,note_on,,26,0,3,,,,,,2,,,75,0
19890,note_on,,4,0,1,,,,,,0,,,72,80
19890,note_on,,4,0,3,,,,,,2,,,72,80
19912,note_on,,52,0,4,,,,,,3,,,50,0
19912,note_on,,52,0,2,,,,,,1,,,50,0
19916,note_on,,26,0,3,,,,,,2,,,72,0
19916,note_on,,26,0,1,,,,,,0,,,72,0
19920,note_on,,4,0,3,,,,,,2,,,79,80
19920,note_on,,4,0,1,,,,,,0,,,79,80
19920,note_on,,8,0,2,,,,,,1,,,51,80
19920,note_on,,8,0,4,,,,,,3,,,51,80
19946,note_on,,26,0,1,,,,,,0,,,79,0
19946,note_on,,26,0,3,,,,,,2,,,79,0
19950,note_on,,4,0,3,,,,,,2,,,77,80
19950,note_on,,4,0,1,,,,,,0,,,77,80
19976,note_on,,26,0,1,,,,,,0,,,77,0
19976,note_on,,26,0,3,,,,,,2,,,77,0
19980,note_on,,4,0,1,,,,,,0,,,79,80
19980,note_on,,4,0,3,,,,,,2,,,79,80
20024,note_on,,104,0,2,,,,,,1,,,51,0
20024,note_on,,104,0,4,,,,,,3,,,51,0
20040,note_on,,16,0,2,,,,,,1,,,48,80
20040,note_on,,16,0,4,,,,,,3,,,48,80
20084,note_on,,104,0,3,,,,,,2,,,79,0
20084,note_on,,104,0,1,,,,,,0,,,79,0
20092,note_on,,52,0,4,,,,,,3,,,48,0
20092,note_on,,52,0,2,,,,,,1,,,48,0
20100,note_on,,16,0,1,,,,,,0,,,80,80
20100,note_on,,8,0,4,,,,,,3,,,51,80
20100,note_on,,8,0,2,,,,,,1,,,51,80
20100,note_on,,16,0,3,,,,,,2,,,80,80
20152,note_on,,52,0,4,,,,,,3,,,51,0
20152,note_on,,52,0,1,,,,,,0,,,80,0
20152,note_on,,52,0,2,,,,,,1,,,51,0
20152,note_on,,52,0,3,,,,,,2,,,80,0
20160,note_on,,8,0,1,,,,,,0,,,74,80
20160,note_on,,8,0,4,,,,,,3,,,55,80
20160,note_on,,8,0,2,,,,,,1,,,55,80
20160,note_on,,8,0,3,,,,,,2,,,74,80
20172,note_on,,12,0,3,,,,,,2,,,74,0
20172,note_on,,12,0,1,,,,,,0,,,74,0
20174,note_on,,2,0,1,,,,,,0,,,75,80
20174,note_on,,2,0,3,,,,,,2,,,75,80
20188,note_on,,14,0,3,,,,,,2,,,75,0
20188,note_on,,14,0,1,,,,,,0,,,75,0
20190,note_on,,2,0,3,,,,,,2,,,74,80
20190,note_on,,2,0,1,,,,,,0,,,74,80
20202,note_on,,12,0,1,,,,,,0,,,74,0
20202,note_on,,12,0,3,,,,,,2,,,74,0
20204,note_on,,2,0,3,,,,,,2,,,75,80
20204,note_on,,2,0,1,,,,,,0,,,75,80
20218,note_on,,14,0,3,,,,,,2,,,75,0
20218,note_on,,14,0,1,,,,,,0,,,75,0
20220,note_on,,2,0,3,,,,,,2,,,74,80
20220,note_on,,2,0,1,,,,,,0,,,74,80
20232,note_on,,12,0,1,,,,,,0,,,74,0
20232,note_on,,12,0,3,,,,,,2,,,74,0
20234,note_on,,2,0,1,,,,,,0,,,75,80
20234,note_on,,2,0,3,,,,,,2,,,75,80
20248,note_on,,14,0,1,,,,,,0,,,75,0
20248,note_on,,14,0,3,,,,,,2,,,75,0
20250,note_on,,2,0,1,,,,,,0,,,74,80
20250,note_on,,2,0,3,,,,,,2,,,74,80
20262,note_on,,12,0,1,,,,,,0,,,74,0
20262,note_on,,12,0,3,,,,,,2,,,74,0
20264,note_on,,104,0,4,,,,,,3,,,55,0
20264,note_on,,2,0,1,,,,,,0,,,75,80
20264,note_on,,104,0,2,,,,,,1,,,55,0
20264,note_on,,2,0,3,,,,,,2,,,75,80
20278,note_on,,14,0,1,,,,,,0,,,75,0
20278,note_on,,14,0,3,,,,,,2,,,75,0
20280,note_on,,16,0,4,,,,,,3,,,43,80
20280,note_on,,2,0,3,,,,,,2,,,74,80
20280,note_on,,2,0,1,,,,,,0,,,74,80
20280,note_on,,16,0,2,,,,,,1,,,43,80
20332,note_on,,52,0,3,,,,,,2,,,74,0
20332,note_on,,52,0,1,,,,,,0,,,74,0
20340,note_on,,8,0,3,,,,,,2,,,72,80
20340,note_on,,8,0,1,,,,,,0,,,72,80
20384,note_on,,104,0,2,,,,,,1,,,43,0
20384,note_on,,104,0,4,,,,,,3,,,43,0
20392,note_on,,52,0,3,,,,,,2,,,72,0
20392,note_on,,52,0,1,,,,,,0,,,72,0
20400,note_on,,8,0,3,,,,,,2,,,72,80
20400,note_on,,8,0,1,,,,,,0,,,72,80
20400,note_on,,16,0,2,,,,,,1,,,48,80
20400,note_on,,16,0,4,,,,,,3,,,48,80
20504,note_on,,104,0,2,,,,,,1,,,48,0
20504,note_on,,104,0,4,,,,,,3,,,48,0
20520,note_on,,16,0,4,,,,,,3,,,43,80
20520,note_on,,16,0,2,,,,,,1,,,43,80
20572,note_on,,52,0,4,,,,,,3,,,43,0
20572,note_on,,52,0,2,,,,,,1,,,43,0
20580,note_on,,8,0,2,,,,,,1,,,48,80
20580,note_on,,8,0,4,,,,,,3,,,48,80
20610,note_on,,210,0,1,,,,,,0,,,72,0
20610,note_on,,210,0,3,,,,,,2,,,72,0
20632,note_on,,52,0,2,,,,,,1,,,48,0
20632,note_on,,52,0,4,,,,,,3,,,48,0
20640,note_on,,8,0,4,,,,,,3,,,50,80
20640,note_on,,8,0,2,,,,,,1,,,50,80
20744,note_on,,104,0,4,,,,,,3,,,50,0
20744,note_on,,104,0,2,,,,,,1,,,50,0
20760,note_on,,16,0,2,,,,,,1,,,43,80
20760,note_on,,16,0,4,,,,,,3,,,43,80
20812,note_on,,52,0,2,,,,,,1,,,43,0
20812,note_on,,52,0,4,,,,,,3,,,43,0
20820,note_on,,8,0,4,,,,,,3,,,50,80
20820,note_on,,8,0,2,,,,,,1,,,50,80
20872,note_on,,52,0,2,,,,,,1,,,50,0
20872,note_on,,52,0,4,,,,,,3,,,50,0
20880,note_on,,8,0,2,,,,,,1,,,51,80
20880,note_on,,8,0,4,,,,,,3,,,51,80
20932,note_on,,52,0,4,,,,,,3,,,51,0
20932,note_on,,52,0,2,,,,,,1,,,51,0
20940,note_on,,8,0,4,,,,,,3,,,55,80
20940,note_on,,8,0,2,,,,,,1,,,55,80
20992,note_on,,52,0,2,,,,,,1,,,55,0
20992,note_on,,52,0,4,,,,,,3,,,55,0
21000,note_on,,8,0,4,,,,,,3,,,51,80
21000,note_on,,8,0,2,,,,,,1,,,51,80
21052,note_on,,52,0,2,,,,,,1,,,51,0
21052,note_on,,52,0,4,,,,,,3,,,51,0
21060,note_on,,8,0,2,,,,,,1,,,48,80
21060,note_on,,8,0,4,,,,,,3,,,48,80
21112,note_on,,52,0,2,,,,,,1,,,48,0
21112,note_on,,52,0,4,,,,,,3,,,48,0
21120,note_on,,8,0,2,,,,,,1,,,47,80
21120,note_on,,8,0,4,,,,,,3,,,47,80
21172,note_on,,52,0,4,,,,,,3,,,47,0
21172,note_on,,52,0,2,,,,,,1,,,47,0
21180,note_on,,8,0,4,,,,,,3,,,50,80
21180,note_on,,8,0,2,,,,,,1,,,50,80
21232,note_on,,52,0,2,,,,,,1,,,50,0
21232,note_on,,52,0,4,,,,,,3,,,50,0
21240,note_on,,8,0,4,,,,,,3,,,47,80
21240,note_on,,8,0,2,,,,,,1,,,47,80
21292,note_on,,52,0,2,,,,,,1,,,47,0
21292,note_on,,52,0,4,,,,,,3,,,47,0
21300,note_on,,8,0,2,,,,,,1,,,43,80
21300,note_on,,8,0,4,,,,,,3,,,43,80
21352,note_on,,52,0,4,,,,,,3,,,43,0
21352,note_on,,52,0,2,,,,,,1,,,43,0
21360,note_on,,8,0,2,,,,,,1,,,48,80
21360,note_on,,8,0,4,,,,,,3,,,48,80
21412,note_on,,52,0,2,,,,,,1,,,48,0
21412,note_on,,52,0,4,,,,,,3,,,48,0
21420,note_on,,8,0,2,,,,,,1,,,51,80
21420,note_on,,8,0,4,,,,,,3,,,51,80
21472,note_on,,52,0,2,,,,,,1,,,51,0
21472,note_on,,52,0,4,,,,,,3,,,51,0
21480,note_on,,8,0,2,,,,,,1,,,48,80
21480,note_on,,8,0,4,,,,,,3,,,48,80
21532,note_on,,52,0,4,,,,,,3,,,48,0
21532,note_on,,52,0,2,,,,,,1,,,48,0
21540,note_on,,8,0,2,,,,,,1,,,43,80
21540,note_on,,8,0,4,,,,,,3,,,43,80
21592,note_on,,52,0,2,,,,,,1,,,43,0
21592,note_on,,52,0,4,,,,,,3,,,43,0
21600,note_on,,8,0,2,,,,,,1,,,44,80
21600,note_on,,8,0,4,,,,,,3,,,44,80
21652,note_on,,52,0,4,,,,,,3,,,44,0
21652,note_on,,52,0,2,,,,,,1,,,44,0
21660,note_on,,8,0,2,,,,,,1,,,43,80
21660,note_on,,8,0,4,,,,,,3,,,43,80
21712,note_on,,52,0,4,,,,,,3,,,43,0
21712,note_on,,52,0,2,,,,,,1,,,43,0
21720,note_on,,8,0,2,,,,,,1,,,44,80
21720,note_on,,8,0,4,,,,,,3,,,44,80
21772,note_on,,52,0,4,,,,,,3,,,44,0
21772,note_on,,52,0,2,,,,,,1,,,44,0
21780,note_on,,8,0,2,,,,,,1,,,41,80
21780,note_on,,8,0,4,,,,,,3,,,41,80
21832,note_on,,52,0,2,,,,,,1,,,41,0
21832,note_on,,52,0,4,,,,,,3,,,41,0
21840,note_on,,8,0,2,,,,,,1,,,46,80
21840,note_on,,8,0,4,,,,,,3,,,46,80
21892,note_on,,52,0,4,,,,,,3,,,46,0
21892,note_on,,52,0,2,,,,,,1,,,46,0
21900,note_on,,8,0,4,,,,,,3,,,50,80
21900,note_on,,8,0,2,,,,,,1,,,50,80
21952,note_on,,52,0,2,,,,,,1,,,50,0
21952,note_on,,52,0,4,,,,,,3,,,50,0
21960,note_on,,8,0,2,,,,,,1,,,46,80
21960,note_on,,8,0,4,,,,,,3,,,46,80
22012,note_on,,52,0,4,,,,,,3,,,46,0
22012,note_on,,52,0,2,,,,,,1,,,46,0
22020,note_on,,8,0,2,,,,,,1,,,41,80
22020,note_on,,8,0,4,,,,,,3,,,41,80
22072,note_on,,52,0,4,,,,,,3,,,41,0
22072,note_on,,52,0,2,,,,,,1,,,41,0
22080,note_on,,8,0,2,,,,,,1,,,43,80
22080,note_on,,8,0,4,,,,,,3,,,43,80
22132,note_on,,52,0,4,,,,,,3,,,43,0
22132,note_on,,52,0,2,,,,,,1,,,43,0
22140,note_on,,8,0,4,,,,,,3,,,41,80
22140,note_on,,8,0,2,,,,,,1,,,41,80
22192,note_on,,52,0,2,,,,,,1,,,41,0
22192,note_on,,52,0,4,,,,,,3,,,41,0
22200,note_on,,8,0,4,,,,,,3,,,43,80
22200,note_on,,8,0,2,,,,,,1,,,43,80
22252,note_on,,52,0,4,,,,,,3,,,43,0
22252,note_on,,52,0,2,,,,,,1,,,43,0
22260,note_on,,8,0,2,,,,,,1,,,39,80
22260,note_on,,8,0,4,,,,,,3,,,39,80
22312,note_on,,52,0,4,,,,,,3,,,39,0
22312,note_on,,52,0,2,,,,,,1,,,39,0
22320,note_on,,8,0,2,,,,,,1,,,44,80
22320,note_on,,8,0,4,,,,,,3,,,44,80
22372,note_on,,52,0,2,,,,,,1,,,44,0
22372,note_on,,52,0,4,,,,,,3,,,44,0
22380,note_on,,8,0,2,,,,,,1,,,48,80
22380,note_on,,8,0,4,,,,,,3,,,48,80
22432,note_on,,52,0,2,,,,,,1,,,48,0
22432,note_on,,52,0,4,,,,,,3,,,48,0
22440,note_on,,8,0,4,,,,,,3,,,44,80
22440,note_on,,8,0,2,,,,,,1,,,44,80
22492,note_on,,52,0,2,,,,,,1,,,44,0
22492,note_on,,52,0,4,,,,,,3,,,44,0
22500,note_on,,8,0,2,,,,,,1,,,39,80
22500,note_on,,8,0,4,,,,,,3,,,39,80
22552,note_on,,52,0,4,,,,,,3,,,39,0
22552,note_on,,52,0,2,,,,,,1,,,39,0
22560,note_on,,8,0,4,,,,,,3,,,41,80
22560,note_on,,8,0,2,,,,,,1,,,41,80
22612,note_on,,52,0,4,,,,,,3,,,41,0
22612,note_on,,52,0,2,,,,,,1,,,41,0
22620,note_on,,8,0,4,,,,,,3,,,39,80
22620,note_on,,8,0,2,,,,,,1,,,39,80
22672,note_on,,52,0,4,,,,,,3,,,39,0
22672,note_on,,52,0,2,,,,,,1,,,39,0
22680,note_on,,8,0,2,,,,,,1,,,41,80
22680,note_on,,8,0,4,,,,,,3,,,41,80
22732,note_on,,52,0,2,,,,,,1,,,41,0
22732,note_on,,52,0,4,,,,,,3,,,41,0
22740,note_on,,8,0,2,,,,,,1,,,38,80
22740,note_on,,8,0,4,,,,,,3,,,38,80
22792,note_on,,52,0,2,,,,,,1,,,38,0
22792,note_on,,52,0,4,,,,,,3,,,38,0
22800,note_on,,8,0,4,,,,,,3,,,39,80
22800,note_on,,8,0,2,,,,,,1,,,39,80
22852,note_on,,52,0,2,,,,,,1,,,39,0
22852,note_on,,52,0,4,,,,,,3,,,39,0
22860,note_on,,8,0,2,,,,,,1,,,36,80
22860,note_on,,8,0,4,,,,,,3,,,36,80
22912,note_on,,52,0,2,,,,,,1,,,36,0
22912,note_on,,52,0,4,,,,,,3,,,36,0
22920,note_on,,8,0,2,,,,,,1,,,39,80
22920,note_on,,8,0,4,,,,,,3,,,39,80
22972,note_on,,52,0,4,,,,,,3,,,39,0
22972,note_on,,52,0,2,,,,,,1,,,39,0
22980,note_on,,8,0,2,,,,,,1,,,41,80
22980,note_on,,8,0,4,,,,,,3,,,41,80
23032,note_on,,52,0,2,,,,,,1,,,41,0
23032,note_on,,52,0,4,,,,,,3,,,41,0
23040,note_on,,8,0,2,,,,,,1,,,43,80
23040,note_on,,8,0,4,,,,,,3,,,43,80
23144,note_on,,104,0,2,,,,,,1,,,43,0
23144,note_on,,104,0,4,,,,,,3,,,43,0
23160,note_on,,16,0,2,,,,,,1,,,43,80
23160,note_on,,16,0,4,,,,,,3,,,43,80
23264,note_on,,104,0,2,,,,,,1,,,43,0
23264,note_on,,104,0,4,,,,,,3,,,43,0
23280,note_on,,16,0,2,,,,,,1,,,36,80
23280,note_on,,2670,0,3,,,,,,2,,,67,80
23280,note_on,,16,0,4,,,,,,3,,,36,80
23280,note_on,,2670,0,1,,,,,,0,,,67,80
23332,note_on,,52,0,4,,,,,,3,,,36,0
23332,note_on,,52,0,2,,,,,,1,,,36,0
23340,note_on,,8,0,2,,,,,,1,,,51,80
23340,note_on,,8,0,4,,,,,,3,,,51,80
23384,note_on,,104,0,1,,,,,,0,,,67,0
23384,note_on,,104,0,3,,,,,,2,,,67,0
23392,note_on,,52,0,2,,,,,,1,,,51,0
23392,note_on,,52,0,4,,,,,,3,,,51,0
23400,note_on,,16,0,1,,,,,,0,,,66,80
23400,note_on,,8,0,2,,,,,,1,,,48,80
23400,note_on,,16,0,3,,,,,,2,,,66,80
23400,note_on,,8,0,4,,,,,,3,,,48,80
23412,note_on,,12,0,1,,,,,,0,,,66,0
23412,note_on,,12,0,3,,,,,,2,,,66,0
23414,note_on,,2,0,1,,,,,,0,,,67,80
23414,note_on,,2,0,3,,,,,,2,,,67,80
23428,note_on,,14,0,1,,,,,,0,,,67,0
23428,note_on,,14,0,3,,,,,,2,,,67,0
23430,note_on,,2,0,3,,,,,,2,,,66,80
23430,note_on,,2,0,1,,,,,,0,,,66,80
23452,note_on,,52,0,2,,,,,,1,,,48,0
23452,note_on,,52,0,4,,,,,,3,,,48,0
23456,note_on,,26,0,1,,,,,,0,,,66,0
23456,note_on,,26,0,3,,,,,,2,,,66,0
23460,note_on,,4,0,1,,,,,,0,,,67,80
23460,note_on,,8,0,4,,,,,,3,,,45,80
23460,note_on,,8,0,2,,,,,,1,,,45,80
23460,note_on,,4,0,3,,,,,,2,,,67,80
23512,note_on,,52,0,3,,,,,,2,,,67,0
23512,note_on,,52,0,4,,,,,,3,,,45,0
23512,note_on,,52,0,1,,,,,,0,,,67,0
23512,note_on,,52,0,2,,,,,,1,,,45,0
23520,note_on,,8,0,1,,,,,,0,,,69,80
23520,note_on,,8,0,4,,,,,,3,,,42,80
23520,note_on,,8,0,3,,,,,,2,,,69,80
23520,note_on,,8,0,2,,,,,,1,,,42,80
23572,note_on,,52,0,3,,,,,,2,,,69,0
23572,note_on,,52,0,4,,,,,,3,,,42,0
23572,note_on,,52,0,2,,,,,,1,,,42,0
23572,note_on,,52,0,1,,,,,,0,,,69,0
23580,note_on,,8,0,4,,,,,,3,,,45,80
23580,note_on,,8,0,1,,,,,,0,,,70,80
23580,note_on,,8,0,3,,,,,,2,,,70,80
23580,note_on,,8,0,2,,,,,,1,,,45,80
23606,note_on,,26,0,3,,,,,,2,,,70,0
23606,note_on,,26,0,1,,,,,,0,,,70,0
23610,note_on,,4,0,3,,,,,,2,,,69,80
23610,note_on,,4,0,1,,,,,,0,,,69,80
23632,note_on,,52,0,4,,,,,,3,,,45,0
23632,note_on,,52,0,2,,,,,,1,,,45,0
23636,note_on,,26,0,1,,,,,,0,,,69,0
23636,note_on,,26,0,3,,,,,,2,,,69,0
23640,note_on,,8,0,4,,,,,,3,,,42,80
23640,note_on,,4,0,3,,,,,,2,,,67,80
23640,note_on,,4,0,1,,,,,,0,,,67,80
23640,note_on,,8,0,2,,,,,,1,,,42,80
23692,note_on,,52,0,4,,,,,,3,,,42,0
23692,note_on,,52,0,2,,,,,,1,,,42,0
23692,note_on,,52,0,3,,,,,,2,,,67,0
23692,note_on,,52,0,1,,,,,,0,,,67,0
23700,note_on,,8,0,4,,,,,,3,,,38,80
23700,note_on,,8,0,2,,,,,,1,,,38,80
23700,note_on,,8,0,1,,,,,,0,,,69,80
23700,note_on,,8,0,3,,,,,,2,,,69,80
23752,note_on,,52,0,3,,,,,,2,,,69,0
23752,note_on,,52,0,4,,,,,,3,,,38,0
23752,note_on,,52,0,1,,,,,,0,,,69,0
23752,note_on,,52,0,2,,,,,,1,,,38,0
23760,note_on,,8,0,3,,,,,,2,,,70,80
23760,note_on,,8,0,1,,,,,,0,,,70,80
23760,note_on,,8,0,2,,,,,,1,,,43,80
23760,note_on,,8,0,4,,,,,,3,,,43,80
23864,note_on,,104,0,3,,,,,,2,,,70,0
23864,note_on,,104,0,4,,,,,,3,,,43,0
23864,note_on,,104,0,2,,,,,,1,,,43,0
23864,note_on,,104,0,1,,,,,,0,,,70,0
23880,note_on,,16,0,3,,,,,,2,,,67,80
23880,note_on,,16,0,4,,,,,,3,,,38,80
23880,note_on,,16,0,2,,,,,,1,,,38,80
23880,note_on,,16,0,1,,,,,,0,,,67,80
23932,note_on,,52,0,4,,,,,,3,,,38,0
23932,note_on,,52,0,2,,,,,,1,,,38,0
23940,note_on,,8,0,4,,,,,,3,,,43,80
23940,note_on,,8,0,2,,,,,,1,,,43,80
23984,note_on,,104,0,1,,,,,,0,,,67,0
23984,note_on,,104,0,3,,,,,,2,,,67,0
23992,note_on,,52,0,4,,,,,,3,,,43,0
23992,note_on,,52,0,2,,,,,,1,,,43,0
24000,note_on,,8,0,4,,,,,,3,,,45,80
24000,note_on,,8,0,2,,,,,,1,,,45,80
24104,note_on,,104,0,4,,,,,,3,,,45,0
24104,note_on,,104,0,2,,,,,,1,,,45,0
24120,note_on,,16,0,2,,,,,,1,,,38,80
24120,note_on,,16,0,4,,,,,,3,,,38,80
24172,note_on,,52,0,4,,,,,,3,,,38,0
24172,note_on,,52,0,2,,,,,,1,,,38,0
24180,note_on,,8,0,4,,,,,,3,,,45,80
24180,note_on,,8,0,2,,,,,,1,,,45,80
24232,note_on,,52,0,4,,,,,,3,,,45,0
24232,note_on,,52,0,2,,,,,,1,,,45,0
24240,note_on,,256,0,3,,,,,,2,,,67,80
24240,note_on,,8,0,4,,,,,,3,,,46,80
24240,note_on,,8,0,2,,,,,,1,,,46,80
24240,note_on,,256,0,1,,,,,,0,,,67,80
24292,note_on,,52,0,1,,,,,,0,,,67,0
24292,note_on,,52,0,3,,,,,,2,,,67,0
24292,note_on,,52,0,2,,,,,,1,,,46,0
24292,note_on,,52,0,4,,,,,,3,,,46,0
24300,note_on,,8,0,1,,,,,,0,,,66,80
24300,note_on,,8,0,4,,,,,,3,,,62,80
24300,note_on,,8,0,2,,,,,,1,,,62,80
24300,note_on,,8,0,3,,,,,,2,,,66,80
24352,note_on,,52,0,3,,,,,,2,,,66,0
24352,note_on,,52,0,4,,,,,,3,,,62,0
24352,note_on,,52,0,1,,,,,,0,,,66,0
24352,note_on,,52,0,2,,,,,,1,,,62,0
24360,note_on,,8,0,4,,,,,,3,,,58,80
24360,note_on,,8,0,2,,,,,,1,,,58,80
24360,note_on,,8,0,1,,,,,,0,,,62,80
24360,note_on,,8,0,3,,,,,,2,,,62,80
24412,note_on,,52,0,4,,,,,,3,,,58,0
24412,note_on,,52,0,1,,,,,,0,,,62,0
24412,note_on,,52,0,2,,,,,,1,,,58,0
24412,note_on,,52,0,3,,,,,,2,,,62,0
24420,note_on,,8,0,4,,,,,,3,,,55,80
24420,note_on,,8,0,1,,,,,,0,,,67,80
24420,note_on,,8,0,2,,,,,,1,,,55,80
24420,note_on,,8,0,3,,,,,,2,,,67,80
24472,note_on,,52,0,1,,,,,,0,,,67,0
24472,note_on,,52,0,2,,,,,,1,,,55,0
24472,note_on,,52,0,3,,,,,,2,,,67,0
24472,note_on,,52,0,4,,,,,,3,,,55,0
24480,note_on,,8,0,2,,,,,,1,,,54,80
24480,note_on,,8,0,4,,,,,,3,,,54,80
24480,note_on,,8,0,3,,,,,,2,,,69,80
24480,note_on,,8,0,1,,,,,,0,,,69,80
24532,note_on,,52,0,3,,,,,,2,,,69,0
24532,note_on,,52,0,2,,,,,,1,,,54,0
24532,note_on,,52,0,4,,,,,,3,,,54,0
24532,note_on,,52,0,1,,,,,,0,,,69,0
24540,note_on,,8,0,3,,,,,,2,,,66,80
24540,note_on,,8,0,2,,,,,,1,,,57,80
24540,note_on,,8,0,4,,,,,,3,,,57,80
24540,note_on,,8,0,1,,,,,,0,,,66,80
24592,note_on,,52,0,2,,,,,,1,,,57,0
24592,note_on,,52,0,4,,,,,,3,,,57,0
24592,note_on,,52,0,3,,,,,,2,,,66,0
24592,note_on,,52,0,1,,,,,,0,,,66,0
24600,note_on,,8,0,1,,,,,,0,,,62,80
24600,note_on,,8,0,3,,,,,,2,,,62,80
24600,note_on,,8,0,4,,,,,,3,,,54,80
24600,note_on,,8,0,2,,,,,,1,,,54,80
24652,note_on,,52,0,3,,,,,,2,,,62,0
24652,note_on,,52,0,1,,,,,,0,,,62,0
24652,note_on,,52,0,4,,,,,,3,,,54,0
24652,note_on,,52,0,2,,,,,,1,,,54,0
24660,note_on,,8,0,4,,,,,,3,,,50,80
24660,note_on,,8,0,3,,,,,,2,,,69,80
24660,note_on,,8,0,1,,,,,,0,,,69,80
24660,note_on,,8,0,2,,,,,,1,,,50,80
24712,note_on,,52,0,3,,,,,,2,,,69,0
24712,note_on,,52,0,1,,,,,,0,,,69,0
24712,note_on,,52,0,4,,,,,,3,,,50,0
24712,note_on,,52,0,2,,,,,,1,,,50,0
24720,note_on,,8,0,1,,,,,,0,,,70,80
24720,note_on,,8,0,3,,,,,,2,,,70,80
24720,note_on,,8,0,4,,,,,,3,,,55,80
24720,note_on,,8,0,2,,,,,,1,,,55,80
24772,note_on,,52,0,1,,,,,,0,,,70,0
24772,note_on,,52,0,3,,,,,,2,,,70,0
24780,note_on,,8,0,1,,,,,,0,,,67,80
24780,note_on,,8,0,3,,,,,,2,,,67,80
24824,note_on,,104,0,4,,,,,,3,,,55,0
24824,note_on,,104,0,2,,,,,,1,,,55,0
24832,note_on,,52,0,3,,,,,,2,,,67,0
24832,note_on,,52,0,1,,,,,,0,,,67,0
24840,note_on,,16,0,4,,,,,,3,,,50,80
24840,note_on,,16,0,2,,,,,,1,,,50,80
24840,note_on,,8,0,1,,,,,,0,,,66,80
24840,note_on,,8,0,3,,,,,,2,,,66,80
24892,note_on,,52,0,1,,,,,,0,,,66,0
24892,note_on,,52,0,3,,,,,,2,,,66,0
24900,note_on,,8,0,3,,,,,,2,,,67,80
24900,note_on,,8,0,1,,,,,,0,,,67,80
24944,note_on,,104,0,4,,,,,,3,,,50,0
24944,note_on,,104,0,2,,,,,,1,,,50,0
24952,note_on,,52,0,3,,,,,,2,,,67,0
24952,note_on,,52,0,1,,,,,,0,,,67,0
24960,note_on,,8,0,1,,,,,,0,,,62,80
24960,note_on,,8,0,3,,,,,,2,,,62,80
24960,note_on,,16,0,4,,,,,,3,,,46,80
24960,note_on,,16,0,2,,,,,,1,,,46,80
25012,note_on,,52,0,1,,,,,,0,,,62,0
25012,note_on,,52,0,3,,,,,,2,,,62,0
25020,note_on,,8,0,1,,,,,,0,,,74,80
25020,note_on,,8,0,3,,,,,,2,,,74,80
25064,note_on,,104,0,2,,,,,,1,,,46,0
25064,note_on,,104,0,4,,,,,,3,,,46,0
25072,note_on,,52,0,1,,,,,,0,,,74,0
25072,note_on,,52,0,3,,,,,,2,,,74,0
25080,note_on,,16,0,4,,,,,,3,,,43,80
25080,note_on,,8,0,1,,,,,,0,,,70,80
25080,note_on,,16,0,2,,,,,,1,,,43,80
25080,note_on,,8,0,3,,,,,,2,,,70,80
25106,note_on,,26,0,3,,,,,,2,,,70,0
25106,note_on,,26,0,1,,,,,,0,,,70,0
25110,note_on,,4,0,3,,,,,,2,,,72,80
25110,note_on,,4,0,1,,,,,,0,,,72,80
25132,note_on,,52,0,2,,,,,,1,,,43,0
25132,note_on,,52,0,4,,,,,,3,,,43,0
25136,note_on,,26,0,3,,,,,,2,,,72,0
25136,note_on,,26,0,1,,,,,,0,,,72,0
25140,note_on,,8,0,2,,,,,,1,,,55,80
25140,note_on,,4,0,3,,,,,,2,,,69,80
25140,note_on,,8,0,4,,,,,,3,,,55,80
25140,note_on,,4,0,1,,,,,,0,,,69,80
25166,note_on,,26,0,3,,,,,,2,,,69,0
25166,note_on,,26,0,1,,,,,,0,,,69,0
25170,note_on,,4,0,1,,,,,,0,,,70,80
25170,note_on,,4,0,3,,,,,,2,,,70,80
25192,note_on,,52,0,2,,,,,,1,,,55,0
25192,note_on,,52,0,4,,,,,,3,,,55,0
25196,note_on,,26,0,1,,,,,,0,,,70,0
25196,note_on,,26,0,3,,,,,,2,,,70,0
25200,note_on,,4,0,1,,,,,,0,,,72,80
25200,note_on,,8,0,4,,,,,,3,,,51,80
25200,note_on,,4,0,3,,,,,,2,,,72,80
25200,note_on,,8,0,2,,,,,,1,,,51,80
25226,note_on,,26,0,3,,,,,,2,,,72,0
25226,note_on,,26,0,1,,,,,,0,,,72,0
25230,note_on,,4,0,3,,,,,,2,,,74,80
25230,note_on,,4,0,1,,,,,,0,,,74,80
25252,note_on,,52,0,2,,,,,,1,,,51,0
25252,note_on,,52,0,4,,,,,,3,,,51,0
25256,note_on,,26,0,3,,,,,,2,,,74,0
25256,note_on,,26,0,1,,,,,,0,,,74,0
25260,note_on,,8,0,4,,,,,,3,,,55,80
25260,note_on,,4,0,1,,,,,,0,,,72,80
25260,note_on,,4,0,3,,,,,,2,,,72,80
25260,note_on,,8,0,2,,,,,,1,,,55,80
25286,note_on,,26,0,3,,,,,,2,,,72,0
25286,note_on,,26,0,1,,,,,,0,,,72,0
25290,note_on,,4,0,1,,,,,,0,,,74,80
25290,note_on,,4,0,3,,,,,,2,,,74,80
25312,note_on,,52,0,2,,,,,,1,,,55,0
25312,note_on,,52,0,4,,,,,,3,,,55,0
25316,note_on,,26,0,1,,,,,,0,,,74,0
25316,note_on,,26,0,3,,,,,,2,,,74,0
25320,note_on,,8,0,4,,,,,,3,,,51,80
25320,note_on,,4,0,3,,,,,,2,,,74,80
25320,note_on,,8,0,2,,,,,,1,,,51,80
25320,note_on,,4,0,1,,,,,,0,,,74,80
25332,note_on,,12,0,1,,,,,,0,,,74,0
25332,note_on,,12,0,3,,,,,,2,,,74,0
25334,note_on,,2,0,1,,,,,,0,,,75,80
25334,note_on,,2,0,3,,,,,,2,,,75,80
25348,note_on,,14,0,1,,,,,,0,,,75,0
25348,note_on,,14,0,3,,,,,,2,,,75,0
25350,note_on,,2,0,3,,,,,,2,,,74,80
25350,note_on,,2,0,1,,,,,,0,,,74,80
25362,note_on,,12,0,1,,,,,,0,,,74,0
25362,note_on,,12,0,3,,,,,,2,,,74,0
25364,note_on,,2,0,1,,,,,,0,,,75,80
25364,note_on,,2,0,3,,,,,,2,,,75,80
25372,note_on,,52,0,2,,,,,,1,,,51,0
25372,note_on,,52,0,4,,,,,,3,,,51,0
25378,note_on,,14,0,1,,,,,,0,,,75,0
25378,note_on,,14,0,3,,,,,,2,,,75,0
25380,note_on,,2,0,1,,,,,,0,,,74,80
25380,note_on,,2,0,3,,,,,,2,,,74,80
25380,note_on,,8,0,2,,,,,,1,,,48,80
25380,note_on,,8,0,4,,,,,,3,,,48,80
25406,note_on,,26,0,1,,,,,,0,,,74,0
25406,note_on,,26,0,3,,,,,,2,,,74,0
25410,note_on,,4,0,1,,,,,,0,,,72,80
25410,note_on,,4,0,3,,,,,,2,,,72,80
25422,note_on,,12,0,3,,,,,,2,,,72,0
25422,note_on,,12,0,1,,,,,,0,,,72,0
25424,note_on,,2,0,1,,,,,,0,,,74,80
25424,note_on,,2,0,3,,,,,,2,,,74,80
25432,note_on,,52,0,2,,,,,,1,,,48,0
25432,note_on,,52,0,4,,,,,,3,,,48,0
25438,note_on,,14,0,3,,,,,,2,,,74,0
25438,note_on,,14,0,1,,,,,,0,,,74,0
25440,note_on,,2,0,1,,,,,,0,,,75,80
25440,note_on,,2,0,3,,,,,,2,,,75,80
25440,note_on,,8,0,2,,,,,,1,,,45,80
25440,note_on,,8,0,4,,,,,,3,,,45,80
25452,note_on,,12,0,3,,,,,,2,,,75,0
25452,note_on,,12,0,1,,,,,,0,,,75,0
25454,note_on,,2,0,1,,,,,,0,,,77,80
25454,note_on,,2,0,3,,,,,,2,,,77,80
25468,note_on,,14,0,3,,,,,,2,,,77,0
25468,note_on,,14,0,1,,,,,,0,,,77,0
25470,note_on,,2,0,3,,,,,,2,,,75,80
25470,note_on,,2,0,1,,,,,,0,,,75,80
25482,note_on,,12,0,3,,,,,,2,,,75,0
25482,note_on,,12,0,1,,,,,,0,,,75,0
25484,note_on,,2,0,3,,,,,,2,,,77,80
25484,note_on,,2,0,1,,,,,,0,,,77,80
25492,note_on,,52,0,2,,,,,,1,,,45,0
25492,note_on,,52,0,4,,,,,,3,,,45,0
25498,note_on,,14,0,1,,,,,,0,,,77,0
25498,note_on,,14,0,3,,,,,,2,,,77,0
25500,note_on,,8,0,4,,,,,,3,,,48,80
25500,note_on,,2,0,1,,,,,,0,,,74,80
25500,note_on,,8,0,2,,,,,,1,,,48,80
25500,note_on,,2,0,3,,,,,,2,,,74,80
25526,note_on,,26,0,1,,,,,,0,,,74,0
25526,note_on,,26,0,3,,,,,,2,,,74,0
25530,note_on,,4,0,1,,,,,,0,,,75,80
25530,note_on,,4,0,3,,,,,,2,,,75,80
25552,note_on,,52,0,2,,,,,,1,,,48,0
25552,note_on,,52,0,4,,,,,,3,,,48,0
25556,note_on,,26,0,3,,,,,,2,,,75,0
25556,note_on,,26,0,1,,,,,,0,,,75,0
25560,note_on,,4,0,3,,,,,,2,,,77,80
25560,note_on,,8,0,2,,,,,,1,,,45,80
25560,note_on,,8,0,4,,,,,,3,,,45,80
25560,note_on,,4,0,1,,,,,,0,,,77,80
25612,note_on,,52,0,3,,,,,,2,,,77,0
25612,note_on,,52,0,4,,,,,,3,,,45,0
25612,note_on,,52,0,1,,,,,,0,,,77,0
25612,note_on,,52,0,2,,,,,,1,,,45,0
25620,note_on,,8,0,4,,,,,,3,,,41,80
25620,note_on,,8,0,2,,,,,,1,,,41,80
25620,note_on,,8,0,1,,,,,,0,,,79,80
25620,note_on,,8,0,3,,,,,,2,,,79,80
25646,note_on,,26,0,1,,,,,,0,,,79,0
25646,note_on,,26,0,3,,,,,,2,,,79,0
25650,note_on,,4,0,3,,,,,,2,,,75,80
25650,note_on,,4,0,1,,,,,,0,,,75,80
25672,note_on,,52,0,4,,,,,,3,,,41,0
25672,note_on,,52,0,2,,,,,,1,,,41,0
25676,note_on,,26,0,1,,,,,,0,,,75,0
25676,note_on,,26,0,3,,,,,,2,,,75,0
25680,note_on,,4,0,1,,,,,,0,,,75,80
25680,note_on,,4,0,3,,,,,,2,,,75,80
25680,note_on,,8,0,2,,,,,,1,,,46,80
25680,note_on,,8,0,4,,,,,,3,,,46,80
25732,note_on,,52,0,4,,,,,,3,,,46,0
25732,note_on,,52,0,2,,,,,,1,,,46,0
25740,note_on,,8,0,2,,,,,,1,,,50,80
25740,note_on,,8,0,4,,,,,,3,,,50,80
25784,note_on,,104,0,1,,,,,,0,,,75,0
25784,note_on,,104,0,3,,,,,,2,,,75,0
25792,note_on,,52,0,2,,,,,,1,,,50,0
25792,note_on,,52,0,4,,,,,,3,,,50,0
25800,note_on,,16,0,1,,,,,,0,,,74,80
25800,note_on,,8,0,4,,,,,,3,,,46,80
25800,note_on,,16,0,3,,,,,,2,,,74,80
25800,note_on,,8,0,2,,,,,,1,,,46,80
25852,note_on,,52,0,2,,,,,,1,,,46,0
25852,note_on,,52,0,4,,,,,,3,,,46,0
25860,note_on,,8,0,2,,,,,,1,,,43,80
25860,note_on,,8,0,4,,,,,,3,,,43,80
25904,note_on,,104,0,3,,,,,,2,,,74,0
25904,note_on,,104,0,1,,,,,,0,,,74,0
25912,note_on,,52,0,2,,,,,,1,,,43,0
25912,note_on,,52,0,4,,,,,,3,,,43,0
25920,note_on,,8,0,2,,,,,,1,,,42,80
25920,note_on,,8,0,4,,,,,,3,,,42,80
25972,note_on,,52,0,4,,,,,,3,,,42,0
25972,note_on,,52,0,2,,,,,,1,,,42,0
25980,note_on,,8,0,2,,,,,,1,,,45,80
25980,note_on,,8,0,4,,,,,,3,,,45,80
26032,note_on,,52,0,2,,,,,,1,,,45,0
26032,note_on,,52,0,4,,,,,,3,,,45,0
26040,note_on,,8,0,4,,,,,,3,,,42,80
26040,note_on,,8,0,2,,,,,,1,,,42,80
26092,note_on,,52,0,2,,,,,,1,,,42,0
26092,note_on,,52,0,4,,,,,,3,,,42,0
26100,note_on,,8,0,4,,,,,,3,,,38,80
26100,note_on,,8,0,2,,,,,,1,,,38,80
26152,note_on,,52,0,4,,,,,,3,,,38,0
26152,note_on,,52,0,2,,,,,,1,,,38,0
26160,note_on,,8,0,2,,,,,,1,,,43,80
26160,note_on,,8,0,4,,,,,,3,,,43,80
26160,note_on,,256,0,3,,,,,,2,,,74,80
26160,note_on,,256,0,1,,,,,,0,,,74,80
26212,note_on,,52,0,3,,,,,,2,,,74,0
26212,note_on,,52,0,1,,,,,,0,,,74,0
26220,note_on,,8,0,3,,,,,,2,,,70,80
26220,note_on,,8,0,1,,,,,,0,,,70,80
26272,note_on,,52,0,3,,,,,,2,,,70,0
26272,note_on,,52,0,1,,,,,,0,,,70,0
26280,note_on,,8,0,3,,,,,,2,,,67,80
26280,note_on,,8,0,1,,,,,,0,,,67,80
26332,note_on,,52,0,1,,,,,,0,,,67,0
26332,note_on,,52,0,3,,,,,,2,,,67,0
26340,note_on,,8,0,1,,,,,,0,,,79,80
26340,note_on,,8,0,3,,,,,,2,,,79,80
26370,note_on,,210,0,4,,,,,,3,,,43,0
26370,note_on,,210,0,2,,,,,,1,,,43,0
26392,note_on,,52,0,1,,,,,,0,,,79,0
26392,note_on,,52,0,3,,,,,,2,,,79,0
26400,note_on,,8,0,1,,,,,,0,,,77,80
26400,note_on,,8,0,3,,,,,,2,,,77,80
26452,note_on,,52,0,1,,,,,,0,,,77,0
26452,note_on,,52,0,3,,,,,,2,,,77,0
26460,note_on,,8,0,1,,,,,,0,,,79,80
26460,note_on,,8,0,3,,,,,,2,,,79,80
26486,note_on,,26,0,1,,,,,,0,,,79,0
26486,note_on,,26,0,3,,,,,,2,,,79,0
26490,note_on,,4,0,3,,,,,,2,,,80,80
26490,note_on,,4,0,1,,,,,,0,,,80,80
26516,note_on,,26,0,3,,,,,,2,,,80,0
26516,note_on,,26,0,1,,,,,,0,,,80,0
26520,note_on,,4,0,1,,,,,,0,,,74,80
26520,note_on,,150,0,4,,,,,,3,,,55,80
26520,note_on,,150,0,2,,,,,,1,,,55,80
26520,note_on,,4,0,3,,,,,,2,,,74,80
26572,note_on,,52,0,3,,,,,,2,,,74,0
26572,note_on,,52,0,1,,,,,,0,,,74,0
26580,note_on,,8,0,1,,,,,,0,,,79,80
26580,note_on,,8,0,3,,,,,,2,,,79,80
26624,note_on,,104,0,2,,,,,,1,,,55,0
26624,note_on,,104,0,4,,,,,,3,,,55,0
26632,note_on,,52,0,1,,,,,,0,,,79,0
26632,note_on,,52,0,3,,,,,,2,,,79,0
26640,note_on,,8,0,1,,,,,,0,,,75,80
26640,note_on,,16,0,4,,,,,,3,,,60,80
26640,note_on,,16,0,2,,,,,,1,,,60,80
26640,note_on,,8,0,3,,,,,,2,,,75,80
26692,note_on,,52,0,4,,,,,,3,,,60,0
26692,note_on,,52,0,2,,,,,,1,,,60,0
26700,note_on,,8,0,4,,,,,,3,,,63,80
26700,note_on,,8,0,2,,,,,,1,,,63,80
26744,note_on,,104,0,3,,,,,,2,,,75,0
26744,note_on,,104,0,1,,,,,,0,,,75,0
26752,note_on,,52,0,2,,,,,,1,,,63,0
26752,note_on,,52,0,4,,,,,,3,,,63,0
26760,note_on,,8,0,4,,,,,,3,,,60,80
26760,note_on,,16,0,3,,,,,,2,,,74,80
26760,note_on,,8,0,2,,,,,,1,,,60,80
26760,note_on,,16,0,1,,,,,,0,,,74,80
26812,note_on,,52,0,2,,,,,,1,,,60,0
26812,note_on,,52,0,4,,,,,,3,,,60,0
26812,note_on,,52,0,1,,,,,,0,,,74,0
26812,note_on,,52,0,3,,,,,,2,,,74,0
26820,note_on,,8,0,4,,,,,,3,,,55,80
26820,note_on,,8,0,3,,,,,,2,,,72,80
26820,note_on,,8,0,1,,,,,,0,,,72,80
26820,note_on,,8,0,2,,,,,,1,,,55,80
26872,note_on,,52,0,2,,,,,,1,,,55,0
26872,note_on,,52,0,3,,,,,,2,,,72,0
26872,note_on,,52,0,1,,,,,,0,,,72,0
26872,note_on,,52,0,4,,,,,,3,,,55,0
26880,note_on,,8,0,4,,,,,,3,,,51,80
26880,note_on,,8,0,2,,,,,,1,,,51,80
26932,note_on,,52,0,2,,,,,,1,,,51,0
26932,note_on,,52,0,4,,,,,,3,,,51,0
26940,note_on,,8,0,4,,,,,,3,,,55,80
26940,note_on,,8,0,2,,,,,,1,,,55,80
26992,note_on,,52,0,2,,,,,,1,,,55,0
26992,note_on,,52,0,4,,,,,,3,,,55,0
27000,note_on,,8,0,2,,,,,,1,,,51,80
27000,note_on,,8,0,4,,,,,,3,,,51,80
27052,note_on,,52,0,4,,,,,,3,,,51,0
27052,note_on,,52,0,2,,,,,,1,,,51,0
27060,note_on,,8,0,2,,,,,,1,,,48,80
27060,note_on,,8,0,4,,,,,,3,,,48,80
27112,note_on,,52,0,2,,,,,,1,,,48,0
27112,note_on,,52,0,4,,,,,,3,,,48,0
27120,note_on,,8,0,4,,,,,,3,,,45,80
27120,note_on,,248,0,1,,,,,,0,,,72,80
27120,note_on,,248,0,3,,,,,,2,,,72,80
27120,note_on,,8,0,2,,,,,,1,,,45,80
27172,note_on,,52,0,1,,,,,,0,,,72,0
27172,note_on,,52,0,3,,,,,,2,,,72,0
27180,note_on,,8,0,1,,,,,,0,,,69,80
27180,note_on,,8,0,3,,,,,,2,,,69,80
27232,note_on,,52,0,1,,,,,,0,,,69,0
27232,note_on,,52,0,3,,,,,,2,,,69,0
27240,note_on,,8,0,1,,,,,,0,,,65,80
27240,note_on,,8,0,3,,,,,,2,,,65,80
27292,note_on,,52,0,3,,,,,,2,,,65,0
27292,note_on,,52,0,1,,,,,,0,,,65,0
27300,note_on,,8,0,3,,,,,,2,,,77,80
27300,note_on,,8,0,1,,,,,,0,,,77,80
27330,note_on,,210,0,2,,,,,,1,,,45,0
27330,note_on,,210,0,4,,,,,,3,,,45,0
27352,note_on,,52,0,3,,,,,,2,,,77,0
27352,note_on,,52,0,1,,,,,,0,,,77,0
27360,note_on,,8,0,3,,,,,,2,,,75,80
27360,note_on,,8,0,1,,,,,,0,,,75,80
27412,note_on,,52,0,1,,,,,,0,,,75,0
27412,note_on,,52,0,3,,,,,,2,,,75,0
27420,note_on,,8,0,1,,,,,,0,,,77,80
27420,note_on,,8,0,3,,,,,,2,,,77,80
27446,note_on,,26,0,1,,,,,,0,,,77,0
27446,note_on,,26,0,3,,,,,,2,,,77,0
27450,note_on,,4,0,1,,,,,,0,,,79,80
27450,note_on,,4,0,3,,,,,,2,,,79,80
27476,note_on,,26,0,1,,,,,,0,,,79,0
27476,note_on,,26,0,3,,,,,,2,,,79,0
27480,note_on,,4,0,1,,,,,,0,,,72,80
27480,note_on,,4,0,3,,,,,,2,,,72,80
27480,note_on,,150,0,2,,,,,,1,,,53,80
27480,note_on,,150,0,4,,,,,,3,,,53,80
27532,note_on,,52,0,1,,,,,,0,,,72,0
27532,note_on,,52,0,3,,,,,,2,,,72,0
27540,note_on,,8,0,3,,,,,,2,,,77,80
27540,note_on,,8,0,1,,,,,,0,,,77,80
27584,note_on,,104,0,2,,,,,,1,,,53,0
27584,note_on,,104,0,4,,,,,,3,,,53,0
27592,note_on,,52,0,1,,,,,,0,,,77,0
27592,note_on,,52,0,3,,,,,,2,,,77,0
27600,note_on,,16,0,2,,,,,,1,,,58,80
27600,note_on,,8,0,1,,,,,,0,,,74,80
27600,note_on,,16,0,4,,,,,,3,,,58,80
27600,note_on,,8,0,3,,,,,,2,,,74,80
27652,note_on,,52,0,2,,,,,,1,,,58,0
27652,note_on,,52,0,4,,,,,,3,,,58,0
27660,note_on,,8,0,4,,,,,,3,,,62,80
27660,note_on,,8,0,2,,,,,,1,,,62,80
27704,note_on,,104,0,3,,,,,,2,,,74,0
27704,note_on,,104,0,1,,,,,,0,,,74,0
27712,note_on,,52,0,4,,,,,,3,,,62,0
27712,note_on,,52,0,2,,,,,,1,,,62,0
27720,note_on,,8,0,4,,,,,,3,,,58,80
27720,note_on,,16,0,3,,,,,,2,,,72,80
27720,note_on,,16,0,1,,,,,,0,,,72,80
27720,note_on,,8,0,2,,,,,,1,,,58,80
27772,note_on,,52,0,4,,,,,,3,,,58,0
27772,note_on,,52,0,3,,,,,,2,,,72,0
27772,note_on,,52,0,1,,,,,,0,,,72,0
27772,note_on,,52,0,2,,,,,,1,,,58,0
27780,note_on,,8,0,4,,,,,,3,,,55,80
27780,note_on,,8,0,1,,,,,,0,,,70,80
27780,note_on,,8,0,3,,,,,,2,,,70,80
27780,note_on,,8,0,2,,,,,,1,,,55,80
27832,note_on,,52,0,2,,,,,,1,,,55,0
27832,note_on,,52,0,1,,,,,,0,,,70,0
27832,note_on,,52,0,3,,,,,,2,,,70,0
27832,note_on,,52,0,4,,,,,,3,,,55,0
27840,note_on,,8,0,2,,,,,,1,,,54,80
27840,note_on,,8,0,4,,,,,,3,,,54,80
27892,note_on,,52,0,2,,,,,,1,,,54,0
27892,note_on,,52,0,4,,,,,,3,,,54,0
27900,note_on,,8,0,2,,,,,,1,,,57,80
27900,note_on,,8,0,4,,,,,,3,,,57,80
27952,note_on,,52,0,2,,,,,,1,,,57,0
27952,note_on,,52,0,4,,,,,,3,,,57,0
27960,note_on,,8,0,4,,,,,,3,,,54,80
27960,note_on,,8,0,2,,,,,,1,,,54,80
28012,note_on,,52,0,4,,,,,,3,,,54,0
28012,note_on,,52,0,2,,,,,,1,,,54,0
28020,note_on,,8,0,4,,,,,,3,,,50,80
28020,note_on,,8,0,2,,,,,,1,,,50,80
28072,note_on,,52,0,2,,,,,,1,,,50,0
28072,note_on,,52,0,4,,,,,,3,,,50,0
28080,note_on,,248,0,3,,,,,,2,,,74,80
28080,note_on,,248,0,1,,,,,,0,,,74,80
28080,note_on,,8,0,4,,,,,,3,,,55,80
28080,note_on,,8,0,2,,,,,,1,,,55,80
28132,note_on,,52,0,1,,,,,,0,,,74,0
28132,note_on,,52,0,3,,,,,,2,,,74,0
28132,note_on,,52,0,4,,,,,,3,,,55,0
28132,note_on,,52,0,2,,,,,,1,,,55,0
28140,note_on,,8,0,2,,,,,,1,,,58,80
28140,note_on,,8,0,4,,,,,,3,,,58,80
28140,note_on,,8,0,3,,,,,,2,,,72,80
28140,note_on,,8,0,1,,,,,,0,,,72,80
28166,note_on,,26,0,1,,,,,,0,,,72,0
28166,note_on,,26,0,3,,,,,,2,,,72,0
28170,note_on,,4,0,3,,,,,,2,,,70,80
28170,note_on,,4,0,1,,,,,,0,,,70,80
28192,note_on,,52,0,2,,,,,,1,,,58,0
28192,note_on,,52,0,4,,,,,,3,,,58,0
28196,note_on,,26,0,3,,,,,,2,,,70,0
28196,note_on,,26,0,1,,,,,,0,,,70,0
28200,note_on,,8,0,4,,,,,,3,,,55,80
28200,note_on,,8,0,2,,,,,,1,,,55,80
28200,note_on,,4,0,1,,,,,,0,,,72,80
28200,note_on,,4,0,3,,,,,,2,,,72,80
28252,note_on,,52,0,4,,,,,,3,,,55,0
28252,note_on,,52,0,2,,,,,,1,,,55,0
28252,note_on,,52,0,3,,,,,,2,,,72,0
28252,note_on,,52,0,1,,,,,,0,,,72,0
28260,note_on,,8,0,3,,,,,,2,,,74,80
28260,note_on,,8,0,4,,,,,,3,,,50,80
28260,note_on,,8,0,2,,,,,,1,,,50,80
28260,note_on,,8,0,1,,,,,,0,,,74,80
28312,note_on,,52,0,1,,,,,,0,,,74,0
28312,note_on,,52,0,3,,,,,,2,,,74,0
28312,note_on,,52,0,2,,,,,,1,,,50,0
28312,note_on,,52,0,4,,,,,,3,,,50,0
28320,note_on,,8,0,3,,,,,,2,,,67,80
28320,note_on,,8,0,1,,,,,,0,,,67,80
28320,note_on,,8,0,2,,,,,,1,,,46,80
28320,note_on,,8,0,4,,,,,,3,,,46,80
28372,note_on,,52,0,3,,,,,,2,,,67,0
28372,note_on,,52,0,4,,,,,,3,,,46,0
28372,note_on,,52,0,2,,,,,,1,,,46,0
28372,note_on,,52,0,1,,,,,,0,,,67,0
28380,note_on,,8,0,3,,,,,,2,,,69,80
28380,note_on,,8,0,4,,,,,,3,,,50,80
28380,note_on,,8,0,1,,,,,,0,,,69,80
28380,note_on,,8,0,2,,,,,,1,,,50,80
28406,note_on,,26,0,3,,,,,,2,,,69,0
28406,note_on,,26,0,1,,,,,,0,,,69,0
28410,note_on,,4,0,3,,,,,,2,,,70,80
28410,note_on,,4,0,1,,,,,,0,,,70,80
28432,note_on,,52,0,4,,,,,,3,,,50,0
28432,note_on,,52,0,2,,,,,,1,,,50,0
28436,note_on,,26,0,1,,,,,,0,,,70,0
28436,note_on,,26,0,3,,,,,,2,,,70,0
28440,note_on,,4,0,3,,,,,,2,,,72,80
28440,note_on,,8,0,2,,,,,,1,,,46,80
28440,note_on,,8,0,4,,,,,,3,,,46,80
28440,note_on,,4,0,1,,,,,,0,,,72,80
28492,note_on,,52,0,4,,,,,,3,,,46,0
28492,note_on,,52,0,2,,,,,,1,,,46,0
28492,note_on,,52,0,1,,,,,,0,,,72,0
28492,note_on,,52,0,3,,,,,,2,,,72,0
28500,note_on,,8,0,1,,,,,,0,,,75,80
28500,note_on,,8,0,2,,,,,,1,,,43,80
28500,note_on,,8,0,3,,,,,,2,,,75,80
28500,note_on,,8,0,4,,,,,,3,,,43,80
28526,note_on,,26,0,3,,,,,,2,,,75,0
28526,note_on,,26,0,1,,,,,,0,,,75,0
28530,note_on,,4,0,3,,,,,,2,,,74,80
28530,note_on,,4,0,1,,,,,,0,,,74,80
28552,note_on,,52,0,4,,,,,,3,,,43,0
28552,note_on,,52,0,2,,,,,,1,,,43,0
28556,note_on,,26,0,3,,,,,,2,,,74,0
28556,note_on,,26,0,1,,,,,,0,,,74,0
28560,note_on,,8,0,4,,,,,,3,,,48,80
28560,note_on,,4,0,1,,,,,,0,,,75,80
28560,note_on,,4,0,3,,,,,,2,,,75,80
28560,note_on,,8,0,2,,,,,,1,,,48,80
28612,note_on,,52,0,1,,,,,,0,,,75,0
28612,note_on,,52,0,4,,,,,,3,,,48,0
28612,note_on,,52,0,2,,,,,,1,,,48,0
28612,note_on,,52,0,3,,,,,,2,,,75,0
28620,note_on,,8,0,4,,,,,,3,,,51,80
28620,note_on,,8,0,1,,,,,,0,,,74,80
28620,note_on,,8,0,3,,,,,,2,,,74,80
28620,note_on,,8,0,2,,,,,,1,,,51,80
28646,note_on,,26,0,3,,,,,,2,,,74,0
28646,note_on,,26,0,1,,,,,,0,,,74,0
28650,note_on,,4,0,1,,,,,,0,,,72,80
28650,note_on,,4,0,3,,,,,,2,,,72,80
28672,note_on,,52,0,4,,,,,,3,,,51,0
28672,note_on,,52,0,2,,,,,,1,,,51,0
28676,note_on,,26,0,3,,,,,,2,,,72,0
28676,note_on,,26,0,1,,,,,,0,,,72,0
28680,note_on,,8,0,4,,,,,,3,,,48,80
28680,note_on,,8,0,2,,,,,,1,,,48,80
28680,note_on,,4,0,3,,,,,,2,,,74,80
28680,note_on,,4,0,1,,,,,,0,,,74,80
28732,note_on,,52,0,2,,,,,,1,,,48,0
28732,note_on,,52,0,1,,,,,,0,,,74,0
28732,note_on,,52,0,3,,,,,,2,,,74,0
28732,note_on,,52,0,4,,,,,,3,,,48,0
28740,note_on,,8,0,3,,,,,,2,,,75,80
28740,note_on,,8,0,1,,,,,,0,,,75,80
28740,note_on,,8,0,2,,,,,,1,,,43,80
28740,note_on,,8,0,4,,,,,,3,,,43,80
28792,note_on,,52,0,3,,,,,,2,,,75,0
28792,note_on,,52,0,1,,,,,,0,,,75,0
28792,note_on,,52,0,2,,,,,,1,,,43,0
28792,note_on,,52,0,4,,,,,,3,,,43,0
28800,note_on,,8,0,1,,,,,,0,,,69,80
28800,note_on,,8,0,2,,,,,,1,,,39,80
28800,note_on,,8,0,4,,,,,,3,,,39,80
28800,note_on,,8,0,3,,,,,,2,,,69,80
28852,note_on,,52,0,4,,,,,,3,,,39,0
28852,note_on,,52,0,2,,,,,,1,,,39,0
28852,note_on,,52,0,3,,,,,,2,,,69,0
28852,note_on,,52,0,1,,,,,,0,,,69,0
28860,note_on,,8,0,3,,,,,,2,,,72,80
28860,note_on,,8,0,4,,,,,,3,,,43,80
28860,note_on,,8,0,1,,,,,,0,,,72,80
28860,note_on,,8,0,2,,,,,,1,,,43,80
28886,note_on,,26,0,1,,,,,,0,,,72,0
28886,note_on,,26,0,3,,,,,,2,,,72,0
28890,note_on,,4,0,1,,,,,,0,,,70,80
28890,note_on,,4,0,3,,,,,,2,,,70,80
28912,note_on,,52,0,4,,,,,,3,,,43,0
28912,note_on,,52,0,2,,,,,,1,,,43,0
28916,note_on,,26,0,3,,,,,,2,,,70,0
28916,note_on,,26,0,1,,,,,,0,,,70,0
28920,note_on,,8,0,2,,,,,,1,,,39,80
28920,note_on,,8,0,4,,,,,,3,,,39,80
28920,note_on,,4,0,1,,,,,,0,,,72,80
28920,note_on,,4,0,3,,,,,,2,,,72,80
28972,note_on,,52,0,2,,,,,,1,,,39,0
28972,note_on,,52,0,3,,,,,,2,,,72,0
28972,note_on,,52,0,4,,,,,,3,,,39,0
28972,note_on,,52,0,1,,,,,,0,,,72,0
28980,note_on,,8,0,1,,,,,,0,,,74,80
28980,note_on,,8,0,3,,,,,,2,,,74,80
28980,note_on,,8,0,4,,,,,,3,,,36,80
28980,note_on,,8,0,2,,,,,,1,,,36,80
29006,note_on,,26,0,1,,,,,,0,,,74,0
29006,note_on,,26,0,3,,,,,,2,,,74,0
29010,note_on,,4,0,3,,,,,,2,,,75,80
29010,note_on,,4,0,1,,,,,,0,,,75,80
29032,note_on,,52,0,2,,,,,,1,,,36,0
29032,note_on,,52,0,4,,,,,,3,,,36,0
29036,note_on,,26,0,3,,,,,,2,,,75,0
29036,note_on,,26,0,1,,,,,,0,,,75,0
29040,note_on,,4,0,3,,,,,,2,,,66,80
29040,note_on,,8,0,4,,,,,,3,,,38,80
29040,note_on,,8,0,2,,,,,,1,,,38,80
29040,note_on,,4,0,1,,,,,,0,,,66,80
29144,note_on,,104,0,3,,,,,,2,,,66,0
29144,note_on,,104,0,1,,,,,,0,,,66,0
29160,note_on,,16,0,1,,,,,,0,,,64,80
29160,note_on,,16,0,3,,,,,,2,,,64,80
29212,note_on,,52,0,3,,,,,,2,,,64,0
29212,note_on,,52,0,1,,,,,,0,,,64,0
29220,note_on,,8,0,3,,,,,,2,,,62,80
29220,note_on,,8,0,1,,,,,,0,,,62,80
29250,note_on,,210,0,2,,,,,,1,,,38,0
29250,note_on,,210,0,4,,,,,,3,,,38,0
29272,note_on,,52,0,3,,,,,,2,,,62,0
29272,note_on,,52,0,1,,,,,,0,,,62,0
29280,note_on,,8,0,1,,,,,,0,,,74,80
29280,note_on,,8,0,3,,,,,,2,,,74,80
29280,note_on,,30,0,4,,,,,,3,,,58,80
29280,note_on,,30,0,2,,,,,,1,,,58,80
29332,note_on,,52,0,4,,,,,,3,,,58,0
29332,note_on,,52,0,2,,,,,,1,,,58,0
29340,note_on,,8,0,2,,,,,,1,,,62,80
29340,note_on,,8,0,4,,,,,,3,,,62,80
29392,note_on,,52,0,4,,,,,,3,,,62,0
29392,note_on,,52,0,2,,,,,,1,,,62,0
29400,note_on,,8,0,4,,,,,,3,,,58,80
29400,note_on,,8,0,2,,,,,,1,,,58,80
29452,note_on,,52,0,2,,,,,,1,,,58,0
29452,note_on,,52,0,4,,,,,,3,,,58,0
29460,note_on,,8,0,4,,,,,,3,,,54,80
29460,note_on,,8,0,2,,,,,,1,,,54,80
29512,note_on,,52,0,4,,,,,,3,,,54,0
29512,note_on,,52,0,2,,,,,,1,,,54,0
29520,note_on,,8,0,4,,,,,,3,,,55,80
29520,note_on,,8,0,2,,,,,,1,,,55,80
29572,note_on,,52,0,4,,,,,,3,,,55,0
29572,note_on,,52,0,2,,,,,,1,,,55,0
29572,note_on,,292,0,3,,,,,,2,,,74,0
29572,note_on,,292,0,1,,,,,,0,,,74,0
29580,note_on,,8,0,1,,,,,,0,,,75,80
29580,note_on,,8,0,2,,,,,,1,,,54,80
29580,note_on,,8,0,3,,,,,,2,,,75,80
29580,note_on,,8,0,4,,,,,,3,,,54,80
29606,note_on,,26,0,1,,,,,,0,,,75,0
29606,note_on,,26,0,3,,,,,,2,,,75,0
29610,note_on,,4,0,3,,,,,,2,,,74,80
29610,note_on,,4,0,1,,,,,,0,,,74,80
29632,note_on,,52,0,2,,,,,,1,,,54,0
29632,note_on,,52,0,4,,,,,,3,,,54,0
29636,note_on,,26,0,1,,,,,,0,,,74,0
29636,note_on,,26,0,3,,,,,,2,,,74,0
29640,note_on,,4,0,3,,,,,,2,,,72,80
29640,note_on,,4,0,1,,,,,,0,,,72,80
29640,note_on,,8,0,2,,,,,,1,,,55,80
29640,note_on,,8,0,4,,,,,,3,,,55,80
29692,note_on,,52,0,4,,,,,,3,,,55,0
29692,note_on,,52,0,3,,,,,,2,,,72,0
29692,note_on,,52,0,1,,,,,,0,,,72,0
29692,note_on,,52,0,2,,,,,,1,,,55,0
29700,note_on,,8,0,3,,,,,,2,,,74,80
29700,note_on,,8,0,1,,,,,,0,,,74,80
29700,note_on,,8,0,4,,,,,,3,,,52,80
29700,note_on,,8,0,2,,,,,,1,,,52,80
29726,note_on,,26,0,3,,,,,,2,,,74,0
29726,note_on,,26,0,1,,,,,,0,,,74,0
29730,note_on,,4,0,1,,,,,,0,,,70,80
29730,note_on,,4,0,3,,,,,,2,,,70,80
29752,note_on,,52,0,2,,,,,,1,,,52,0
29752,note_on,,52,0,4,,,,,,3,,,52,0
29756,note_on,,26,0,3,,,,,,2,,,70,0
29756,note_on,,26,0,1,,,,,,0,,,70,0
29760,note_on,,4,0,3,,,,,,2,,,72,80
29760,note_on,,8,0,2,,,,,,1,,,57,80
29760,note_on,,8,0,4,,,,,,3,,,57,80
29760,note_on,,4,0,1,,,,,,0,,,72,80
29812,note_on,,52,0,2,,,,,,1,,,57,0
29812,note_on,,52,0,4,,,,,,3,,,57,0
29820,note_on,,8,0,4,,,,,,3,,,60,80
29820,note_on,,8,0,2,,,,,,1,,,60,80
29872,note_on,,52,0,4,,,,,,3,,,60,0
29872,note_on,,52,0,2,,,,,,1,,,60,0
29880,note_on,,8,0,2,,,,,,1,,,57,80
29880,note_on,,8,0,4,,,,,,3,,,57,80
29932,note_on,,52,0,2,,,,,,1,,,57,0
29932,note_on,,52,0,4,,,,,,3,,,57,0
29940,note_on,,8,0,2,,,,,,1,,,52,80
29940,note_on,,8,0,4,,,,,,3,,,52,80
29992,note_on,,52,0,2,,,,,,1,,,52,0
29992,note_on,,52,0,4,,,,,,3,,,52,0
30000,note_on,,8,0,2,,,,,,1,,,54,80
30000,note_on,,8,0,4,,,,,,3,,,54,80
30052,note_on,,52,0,2,,,,,,1,,,54,0
30052,note_on,,292,0,1,,,,,,0,,,72,0
30052,note_on,,52,0,4,,,,,,3,,,54,0
30052,note_on,,292,0,3,,,,,,2,,,72,0
30060,note_on,,8,0,3,,,,,,2,,,74,80
30060,note_on,,8,0,2,,,,,,1,,,52,80
30060,note_on,,8,0,1,,,,,,0,,,74,80
30060,note_on,,8,0,4,,,,,,3,,,52,80
30086,note_on,,26,0,1,,,,,,0,,,74,0
30086,note_on,,26,0,3,,,,,,2,,,74,0
30090,note_on,,4,0,1,,,,,,0,,,72,80
30090,note_on,,4,0,3,,,,,,2,,,72,80
30112,note_on,,52,0,4,,,,,,3,,,52,0
30112,note_on,,52,0,2,,,,,,1,,,52,0
30116,note_on,,26,0,1,,,,,,0,,,72,0
30116,note_on,,26,0,3,,,,,,2,,,72,0
30120,note_on,,4,0,1,,,,,,0,,,70,80
30120,note_on,,4,0,3,,,,,,2,,,70,80
30120,note_on,,8,0,2,,,,,,1,,,54,80
30120,note_on,,8,0,4,,,,,,3,,,54,80
30172,note_on,,52,0,3,,,,,,2,,,70,0
30172,note_on,,52,0,4,,,,,,3,,,54,0
30172,note_on,,52,0,1,,,,,,0,,,70,0
30172,note_on,,52,0,2,,,,,,1,,,54,0
30180,note_on,,8,0,1,,,,,,0,,,72,80
30180,note_on,,8,0,2,,,,,,1,,,50,80
30180,note_on,,8,0,3,,,,,,2,,,72,80
30180,note_on,,8,0,4,,,,,,3,,,50,80
30206,note_on,,26,0,3,,,,,,2,,,72,0
30206,note_on,,26,0,1,,,,,,0,,,72,0
30210,note_on,,4,0,1,,,,,,0,,,69,80
30210,note_on,,4,0,3,,,,,,2,,,69,80
30232,note_on,,52,0,2,,,,,,1,,,50,0
30232,note_on,,52,0,4,,,,,,3,,,50,0
30236,note_on,,26,0,3,,,,,,2,,,69,0
30236,note_on,,26,0,1,,,,,,0,,,69,0
30240,note_on,,8,0,4,,,,,,3,,,55,80
30240,note_on,,4,0,1,,,,,,0,,,70,80
30240,note_on,,4,0,3,,,,,,2,,,70,80
30240,note_on,,8,0,2,,,,,,1,,,55,80
30292,note_on,,52,0,4,,,,,,3,,,55,0
30292,note_on,,52,0,2,,,,,,1,,,55,0
30300,note_on,,8,0,4,,,,,,3,,,58,80
30300,note_on,,8,0,2,,,,,,1,,,58,80
30352,note_on,,52,0,4,,,,,,3,,,58,0
30352,note_on,,52,0,2,,,,,,1,,,58,0
30360,note_on,,8,0,2,,,,,,1,,,55,80
30360,note_on,,8,0,4,,,,,,3,,,55,80
30412,note_on,,52,0,4,,,,,,3,,,55,0
30412,note_on,,52,0,2,,,,,,1,,,55,0
30420,note_on,,8,0,4,,,,,,3,,,50,80
30420,note_on,,8,0,2,,,,,,1,,,50,80
30472,note_on,,52,0,2,,,,,,1,,,50,0
30472,note_on,,52,0,4,,,,,,3,,,50,0
30480,note_on,,8,0,2,,,,,,1,,,51,80
30480,note_on,,8,0,4,,,,,,3,,,51,80
30532,note_on,,52,0,2,,,,,,1,,,51,0
30532,note_on,,292,0,3,,,,,,2,,,70,0
30532,note_on,,292,0,1,,,,,,0,,,70,0
30532,note_on,,52,0,4,,,,,,3,,,51,0
30540,note_on,,8,0,2,,,,,,1,,,50,80
30540,note_on,,8,0,3,,,,,,2,,,75,80
30540,note_on,,8,0,1,,,,,,0,,,75,80
30540,note_on,,8,0,4,,,,,,3,,,50,80
30566,note_on,,26,0,1,,,,,,0,,,75,0
30566,note_on,,26,0,3,,,,,,2,,,75,0
30570,note_on,,4,0,1,,,,,,0,,,74,80
30570,note_on,,4,0,3,,,,,,2,,,74,80
30592,note_on,,52,0,2,,,,,,1,,,50,0
30592,note_on,,52,0,4,,,,,,3,,,50,0
30596,note_on,,26,0,1,,,,,,0,,,74,0
30596,note_on,,26,0,3,,,,,,2,,,74,0
30600,note_on,,4,0,3,,,,,,2,,,72,80
30600,note_on,,8,0,2,,,,,,1,,,51,80
30600,note_on,,4,0,1,,,,,,0,,,72,80
30600,note_on,,8,0,4,,,,,,3,,,51,80
30626,note_on,,26,0,3,,,,,,2,,,72,0
30626,note_on,,26,0,1,,,,,,0,,,72,0
30630,note_on,,4,0,1,,,,,,0,,,70,80
30630,note_on,,4,0,3,,,,,,2,,,70,80
30652,note_on,,52,0,2,,,,,,1,,,51,0
30652,note_on,,52,0,4,,,,,,3,,,51,0
30656,note_on,,26,0,3,,,,,,2,,,70,0
30656,note_on,,26,0,1,,,,,,0,,,70,0
30660,note_on,,8,0,2,,,,,,1,,,48,80
30660,note_on,,4,0,3,,,,,,2,,,69,80
30660,note_on,,8,0,4,,,,,,3,,,48,80
30660,note_on,,4,0,1,,,,,,0,,,69,80
30686,note_on,,26,0,3,,,,,,2,,,69,0
30686,note_on,,26,0,1,,,,,,0,,,69,0
30690,note_on,,4,0,1,,,,,,0,,,70,80
30690,note_on,,4,0,3,,,,,,2,,,70,80
30712,note_on,,52,0,4,,,,,,3,,,48,0
30712,note_on,,52,0,2,,,,,,1,,,48,0
30716,note_on,,26,0,3,,,,,,2,,,70,0
30716,note_on,,26,0,1,,,,,,0,,,70,0
30720,note_on,,8,0,4,,,,,,3,,,60,80
30720,note_on,,4,0,3,,,,,,2,,,72,80
30720,note_on,,4,0,1,,,,,,0,,,72,80
30720,note_on,,8,0,2,,,,,,1,,,60,80
30746,note_on,,26,0,1,,,,,,0,,,72,0
30746,note_on,,26,0,3,,,,,,2,,,72,0
30750,note_on,,4,0,1,,,,,,0,,,70,80
30750,note_on,,4,0,3,,,,,,2,,,70,80
30776,note_on,,26,0,1,,,,,,0,,,70,0
30776,note_on,,26,0,3,,,,,,2,,,70,0
30780,note_on,,4,0,1,,,,,,0,,,69,80
30780,note_on,,4,0,3,,,,,,2,,,69,80
30806,note_on,,26,0,1,,,,,,0,,,69,0
30806,note_on,,26,0,3,,,,,,2,,,69,0
30810,note_on,,4,0,3,,,,,,2,,,67,80
30810,note_on,,4,0,1,,,,,,0,,,67,80
30836,note_on,,26,0,3,,,,,,2,,,67,0
30836,note_on,,26,0,1,,,,,,0,,,67,0
30840,note_on,,4,0,3,,,,,,2,,,69,80
30840,note_on,,4,0,1,,,,,,0,,,69,80
30866,note_on,,26,0,3,,,,,,2,,,69,0
30866,note_on,,26,0,1,,,,,,0,,,69,0
30870,note_on,,4,0,1,,,,,,0,,,66,80
30870,note_on,,4,0,3,,,,,,2,,,66,80
30896,note_on,,26,0,1,,,,,,0,,,66,0
30896,note_on,,26,0,3,,,,,,2,,,66,0
30900,note_on,,4,0,3,,,,,,2,,,67,80
30900,note_on,,4,0,1,,,,,,0,,,67,80
30926,note_on,,26,0,3,,,,,,2,,,67,0
30926,note_on,,26,0,1,,,,,,0,,,67,0
30930,note_on,,4,0,3,,,,,,2,,,69,80
30930,note_on,,4,0,1,,,,,,0,,,69,80
30956,note_on,,26,0,1,,,,,,0,,,69,0
30956,note_on,,26,0,3,,,,,,2,,,69,0
30960,note_on,,4,0,1,,,,,,0,,,62,80
30960,note_on,,4,0,3,,,,,,2,,,62,80
30986,note_on,,26,0,1,,,,,,0,,,62,0
30986,note_on,,26,0,3,,,,,,2,,,62,0
30990,note_on,,4,0,1,,,,,,0,,,64,80
30990,note_on,,4,0,3,,,,,,2,,,64,80
31016,note_on,,26,0,3,,,,,,2,,,64,0
31016,note_on,,26,0,1,,,,,,0,,,64,0
31020,note_on,,4,0,1,,,,,,0,,,62,80
31020,note_on,,4,0,3,,,,,,2,,,62,80
31046,note_on,,26,0,1,,,,,,0,,,62,0
31046,note_on,,26,0,3,,,,,,2,,,62,0
31050,note_on,,4,0,3,,,,,,2,,,64,80
31050,note_on,,4,0,1,,,,,,0,,,64,80
31076,note_on,,26,0,1,,,,,,0,,,64,0
31076,note_on,,26,0,3,,,,,,2,,,64,0
31080,note_on,,4,0,3,,,,,,2,,,66,80
31080,note_on,,4,0,1,,,,,,0,,,66,80
31106,note_on,,26,0,1,,,,,,0,,,66,0
31106,note_on,,26,0,3,,,,,,2,,,66,0
31110,note_on,,4,0,1,,,,,,0,,,67,80
31110,note_on,,4,0,3,,,,,,2,,,67,80
31136,note_on,,26,0,3,,,,,,2,,,67,0
31136,note_on,,26,0,1,,,,,,0,,,67,0
31140,note_on,,4,0,3,,,,,,2,,,66,80
31140,note_on,,4,0,1,,,,,,0,,,66,80
31166,note_on,,26,0,3,,,,,,2,,,66,0
31166,note_on,,26,0,1,,,,,,0,,,66,0
31170,note_on,,4,0,3,,,,,,2,,,67,80
31170,note_on,,4,0,1,,,,,,0,,,67,80
31196,note_on,,26,0,1,,,,,,0,,,67,0
31196,note_on,,26,0,3,,,,,,2,,,67,0
31200,note_on,,4,0,3,,,,,,2,,,69,80
31200,note_on,,4,0,1,,,,,,0,,,69,80
31226,note_on,,26,0,1,,,,,,0,,,69,0
31226,note_on,,26,0,3,,,,,,2,,,69,0
31230,note_on,,4,0,1,,,,,,0,,,67,80
31230,note_on,,4,0,3,,,,,,2,,,67,80
31252,note_on,,532,0,4,,,,,,3,,,60,0
31252,note_on,,532,0,2,,,,,,1,,,60,0
31256,note_on,,26,0,3,,,,,,2,,,67,0
31256,note_on,,26,0,1,,,,,,0,,,67,0
31260,note_on,,8,0,4,,,,,,3,,,63,80
31260,note_on,,4,0,1,,,,,,0,,,66,80
31260,note_on,,8,0,2,,,,,,1,,,63,80
31260,note_on,,4,0,3,,,,,,2,,,66,80
31286,note_on,,26,0,3,,,,,,2,,,66,0
31286,note_on,,26,0,1,,,,,,0,,,66,0
31290,note_on,,4,0,3,,,,,,2,,,67,80
31290,note_on,,4,0,1,,,,,,0,,,67,80
31312,note_on,,52,0,4,,,,,,3,,,63,0
31312,note_on,,52,0,2,,,,,,1,,,63,0
31316,note_on,,26,0,3,,,,,,2,,,67,0
31316,note_on,,26,0,1,,,,,,0,,,67,0
31320,note_on,,4,0,1,,,,,,0,,,69,80
31320,note_on,,8,0,4,,,,,,3,,,60,80
31320,note_on,,4,0,3,,,,,,2,,,69,80
31320,note_on,,8,0,2,,,,,,1,,,60,80
31346,note_on,,26,0,1,,,,,,0,,,69,0
31346,note_on,,26,0,3,,,,,,2,,,69,0
31350,note_on,,4,0,3,,,,,,2,,,70,80
31350,note_on,,4,0,1,,,,,,0,,,70,80
31372,note_on,,52,0,2,,,,,,1,,,60,0
31372,note_on,,52,0,4,,,,,,3,,,60,0
31376,note_on,,26,0,3,,,,,,2,,,70,0
31376,note_on,,26,0,1,,,,,,0,,,70,0
31380,note_on,,4,0,3,,,,,,2,,,69,80
31380,note_on,,8,0,4,,,,,,3,,,57,80
31380,note_on,,8,0,2,,,,,,1,,,57,80
31380,note_on,,4,0,1,,,,,,0,,,69,80
31406,note_on,,26,0,1,,,,,,0,,,69,0
31406,note_on,,26,0,3,,,,,,2,,,69,0
31410,note_on,,4,0,3,,,,,,2,,,70,80
31410,note_on,,4,0,1,,,,,,0,,,70,80
31432,note_on,,52,0,2,,,,,,1,,,57,0
31432,note_on,,52,0,4,,,,,,3,,,57,0
31436,note_on,,26,0,3,,,,,,2,,,70,0
31436,note_on,,26,0,1,,,,,,0,,,70,0
31440,note_on,,8,0,4,,,,,,3,,,54,80
31440,note_on,,4,0,3,,,,,,2,,,72,80
31440,note_on,,8,0,2,,,,,,1,,,54,80
31440,note_on,,4,0,1,,,,,,0,,,72,80
31466,note_on,,26,0,1,,,,,,0,,,72,0
31466,note_on,,26,0,3,,,,,,2,,,72,0
31470,note_on,,4,0,1,,,,,,0,,,74,80
31470,note_on,,4,0,3,,,,,,2,,,74,80
31482,note_on,,12,0,1,,,,,,0,,,74,0
31482,note_on,,12,0,3,,,,,,2,,,74,0
31484,note_on,,2,0,3,,,,,,2,,,72,80
31484,note_on,,2,0,1,,,,,,0,,,72,80
31492,note_on,,52,0,4,,,,,,3,,,54,0
31492,note_on,,52,0,2,,,,,,1,,,54,0
31498,note_on,,14,0,3,,,,,,2,,,72,0
31498,note_on,,14,0,1,,,,,,0,,,72,0
31500,note_on,,8,0,2,,,,,,1,,,50,80
31500,note_on,,8,0,4,,,,,,3,,,50,80
31500,note_on,,2,0,3,,,,,,2,,,70,80
31500,note_on,,2,0,1,,,,,,0,,,70,80
31526,note_on,,26,0,3,,,,,,2,,,70,0
31526,note_on,,26,0,1,,,,,,0,,,70,0
31530,note_on,,4,0,1,,,,,,0,,,72,80
31530,note_on,,4,0,3,,,,,,2,,,72,80
31552,note_on,,52,0,4,,,,,,3,,,50,0
31552,note_on,,52,0,2,,,,,,1,,,50,0
31556,note_on,,26,0,3,,,,,,2,,,72,0
31556,note_on,,26,0,1,,,,,,0,,,72,0
31560,note_on,,8,0,4,,,,,,3,,,58,80
31560,note_on,,4,0,1,,,,,,0,,,74,80
31560,note_on,,8,0,2,,,,,,1,,,58,80
31560,note_on,,4,0,3,,,,,,2,,,74,80
31586,note_on,,26,0,3,,,,,,2,,,74,0
31586,note_on,,26,0,1,,,,,,0,,,74,0
31590,note_on,,4,0,1,,,,,,0,,,75,80
31590,note_on,,4,0,3,,,,,,2,,,75,80
31602,note_on,,12,0,3,,,,,,2,,,75,0
31602,note_on,,12,0,1,,,,,,0,,,75,0
31604,note_on,,2,0,1,,,,,,0,,,74,80
31604,note_on,,2,0,3,,,,,,2,,,74,80
31612,note_on,,52,0,2,,,,,,1,,,58,0
31612,note_on,,52,0,4,,,,,,3,,,58,0
31618,note_on,,14,0,1,,,,,,0,,,74,0
31618,note_on,,14,0,3,,,,,,2,,,74,0
31620,note_on,,8,0,4,,,,,,3,,,55,80
31620,note_on,,8,0,2,,,,,,1,,,55,80
31620,note_on,,2,0,1,,,,,,0,,,72,80
31620,note_on,,2,0,3,,,,,,2,,,72,80
31632,note_on,,12,0,1,,,,,,0,,,72,0
31632,note_on,,12,0,3,,,,,,2,,,72,0
31634,note_on,,2,0,1,,,,,,0,,,74,80
31634,note_on,,2,0,3,,,,,,2,,,74,80
31648,note_on,,14,0,1,,,,,,0,,,74,0
31648,note_on,,14,0,3,,,,,,2,,,74,0
31650,note_on,,2,0,3,,,,,,2,,,75,80
31650,note_on,,2,0,1,,,,,,0,,,75,80
31672,note_on,,52,0,4,,,,,,3,,,55,0
31672,note_on,,52,0,2,,,,,,1,,,55,0
31676,note_on,,26,0,1,,,,,,0,,,75,0
31676,note_on,,26,0,3,,,,,,2,,,75,0
31680,note_on,,8,0,2,,,,,,1,,,62,80
31680,note_on,,8,0,4,,,,,,3,,,62,80
31680,note_on,,4,0,3,,,,,,2,,,69,80
31680,note_on,,4,0,1,,,,,,0,,,69,80
31692,note_on,,12,0,3,,,,,,2,,,69,0
31692,note_on,,12,0,1,,,,,,0,,,69,0
31694,note_on,,2,0,3,,,,,,2,,,70,80
31694,note_on,,2,0,1,,,,,,0,,,70,80
31708,note_on,,14,0,1,,,,,,0,,,70,0
31708,note_on,,14,0,3,,,,,,2,,,70,0
31710,note_on,,2,0,3,,,,,,2,,,69,80
31710,note_on,,2,0,1,,,,,,0,,,69,80
31722,note_on,,12,0,1,,,,,,0,,,69,0
31722,note_on,,12,0,3,,,,,,2,,,69,0
31724,note_on,,2,0,1,,,,,,0,,,70,80
31724,note_on,,2,0,3,,,,,,2,,,70,80
31738,note_on,,14,0,1,,,,,,0,,,70,0
31738,note_on,,14,0,3,,,,,,2,,,70,0
31740,note_on,,2,0,1,,,,,,0,,,69,80
31740,note_on,,2,0,3,,,,,,2,,,69,80
31752,note_on,,12,0,3,,,,,,2,,,69,0
31752,note_on,,12,0,1,,,,,,0,,,69,0
31754,note_on,,2,0,1,,,,,,0,,,70,80
31754,note_on,,2,0,3,,,,,,2,,,70,80
31768,note_on,,14,0,3,,,,,,2,,,70,0
31768,note_on,,14,0,1,,,,,,0,,,70,0
31770,note_on,,2,0,3,,,,,,2,,,69,80
31770,note_on,,2,0,1,,,,,,0,,,69,80
31782,note_on,,12,0,1,,,,,,0,,,69,0
31782,note_on,,12,0,3,,,,,,2,,,69,0
31784,note_on,,2,0,1,,,,,,0,,,70,80
31784,note_on,,2,0,3,,,,,,2,,,70,80
31784,note_on,,104,0,2,,,,,,1,,,62,0
31784,note_on,,104,0,4,,,,,,3,,,62,0
31798,note_on,,14,0,1,,,,,,0,,,70,0
31798,note_on,,14,0,3,,,,,,2,,,70,0
31800,note_on,,2,0,3,,,,,,2,,,69,80
31800,note_on,,16,0,4,,,,,,3,,,50,80
31800,note_on,,16,0,2,,,,,,1,,,50,80
31800,note_on,,2,0,1,,,,,,0,,,69,80
31856,note_on,,56,0,1,,,,,,0,,,69,0
31856,note_on,,56,0,3,,,,,,2,,,69,0
31860,note_on,,4,0,3,,,,,,2,,,67,80
31860,note_on,,4,0,1,,,,,,0,,,67,80
31904,note_on,,104,0,2,,,,,,1,,,50,0
31904,note_on,,104,0,4,,,,,,3,,,50,0
31912,note_on,,52,0,1,,,,,,0,,,67,0
31912,note_on,,52,0,3,,,,,,2,,,67,0
31920,note_on,,16,0,2,,,,,,1,,,55,80
31920,note_on,,16,0,4,,,,,,3,,,55,80
31920,note_on,,8,0,1,,,,,,0,,,67,80
31920,note_on,,8,0,3,,,,,,2,,,67,80
32024,note_on,,104,0,2,,,,,,1,,,55,0
32024,note_on,,104,0,4,,,,,,3,,,55,0
32040,note_on,,16,0,2,,,,,,1,,,50,80
32040,note_on,,16,0,4,,,,,,3,,,50,80
32092,note_on,,52,0,2,,,,,,1,,,50,0
32092,note_on,,52,0,4,,,,,,3,,,50,0
32100,note_on,,8,0,2,,,,,,1,,,55,80
32100,note_on,,8,0,4,,,,,,3,,,55,80
32130,end_of_track,,0,1,1,,,,,,,,,,
32130,note_on,,210,0,1,,,,,,0,,,67,0
32130,note_on,,210,0,3,,,,,,2,,,67,0
32130,end_of_track,,0,1,3,,,,,,,,,,
32152,note_on,,52,0,4,,,,,,3,,,55,0
32152,note_on,,52,0,2,,,,,,1,,,55,0
32160,note_on,,8,0,4,,,,,,3,,,57,80
32160,note_on,,8,0,2,,,,,,1,,,57,80
32264,note_on,,104,0,4,,,,,,3,,,57,0
32264,note_on,,104,0,2,,,,,,1,,,57,0
32280,note_on,,16,0,4,,,,,,3,,,50,80
32280,note_on,,16,0,2,,,,,,1,,,50,80
32332,note_on,,52,0,4,,,,,,3,,,50,0
32332,note_on,,52,0,2,,,,,,1,,,50,0
32340,note_on,,8,0,4,,,,,,3,,,57,80
32340,note_on,,8,0,2,,,,,,1,,,57,80
32392,note_on,,52,0,4,,,,,,3,,,57,0
32392,note_on,,52,0,2,,,,,,1,,,57,0
32400,note_on,,8,0,4,,,,,,3,,,58,80
32400,note_on,,8,0,2,,,,,,1,,,58,80
32452,note_on,,52,0,2,,,,,,1,,,58,0
32452,note_on,,52,0,4,,,,,,3,,,58,0
32460,note_on,,8,0,2,,,,,,1,,,62,80
32460,note_on,,8,0,4,,,,,,3,,,62,80
32512,note_on,,52,0,2,,,,,,1,,,62,0
32512,note_on,,52,0,4,,,,,,3,,,62,0
32520,note_on,,8,0,2,,,,,,1,,,58,80
32520,note_on,,8,0,4,,,,,,3,,,58,80
32572,note_on,,52,0,4,,,,,,3,,,58,0
32572,note_on,,52,0,2,,,,,,1,,,58,0
32580,note_on,,8,0,4,,,,,,3,,,55,80
32580,note_on,,8,0,2,,,,,,1,,,55,80
32632,note_on,,52,0,4,,,,,,3,,,55,0
32632,note_on,,52,0,2,,,,,,1,,,55,0
32640,note_on,,8,0,2,,,,,,1,,,54,80
32640,note_on,,8,0,4,,,,,,3,,,54,80
32692,note_on,,52,0,4,,,,,,3,,,54,0
32692,note_on,,52,0,2,,,,,,1,,,54,0
32700,note_on,,8,0,4,,,,,,3,,,57,80
32700,note_on,,8,0,2,,,,,,1,,,57,80
32752,note_on,,52,0,4,,,,,,3,,,57,0
32752,note_on,,52,0,2,,,,,,1,,,57,0
32760,note_on,,8,0,4,,,,,,3,,,54,80
32760,note_on,,8,0,2,,,,,,1,,,54,80
32812,note_on,,52,0,4,,,,,,3,,,54,0
32812,note_on,,52,0,2,,,,,,1,,,54,0
32820,note_on,,8,0,4,,,,,,3,,,50,80
32820,note_on,,8,0,2,,,,,,1,,,50,80
32872,note_on,,52,0,4,,,,,,3,,,50,0
32872,note_on,,52,0,2,,,,,,1,,,50,0
32880,note_on,,8,0,4,,,,,,3,,,55,80
32880,note_on,,8,0,2,,,,,,1,,,55,80
32932,note_on,,52,0,2,,,,,,1,,,55,0
32932,note_on,,52,0,4,,,,,,3,,,55,0
32940,note_on,,8,0,2,,,,,,1,,,58,80
32940,note_on,,8,0,4,,,,,,3,,,58,80
32992,note_on,,52,0,4,,,,,,3,,,58,0
32992,note_on,,52,0,2,,,,,,1,,,58,0
33000,note_on,,8,0,4,,,,,,3,,,55,80
33000,note_on,,8,0,2,,,,,,1,,,55,80
33052,note_on,,52,0,2,,,,,,1,,,55,0
33052,note_on,,52,0,4,,,,,,3,,,55,0
33060,note_on,,8,0,2,,,,,,1,,,50,80
33060,note_on,,8,0,4,,,,,,3,,,50,80
33112,note_on,,52,0,4,,,,,,3,,,50,0
33112,note_on,,52,0,2,,,,,,1,,,50,0
33120,note_on,,8,0,4,,,,,,3,,,51,80
33120,note_on,,8,0,2,,,,,,1,,,51,80
33172,note_on,,52,0,4,,,,,,3,,,51,0
33172,note_on,,52,0,2,,,,,,1,,,51,0
33180,note_on,,8,0,4,,,,,,3,,,50,80
33180,note_on,,8,0,2,,,,,,1,,,50,80
33232,note_on,,52,0,2,,,,,,1,,,50,0
33232,note_on,,52,0,4,,,,,,3,,,50,0
33240,note_on,,8,0,4,,,,,,3,,,51,80
33240,note_on,,8,0,2,,,,,,1,,,51,80
33292,note_on,,52,0,4,,,,,,3,,,51,0
33292,note_on,,52,0,2,,,,,,1,,,51,0
33300,note_on,,8,0,4,,,,,,3,,,48,80
33300,note_on,,8,0,2,,,,,,1,,,48,80
33352,note_on,,52,0,2,,,,,,1,,,48,0
33352,note_on,,52,0,4,,,,,,3,,,48,0
33360,note_on,,8,0,2,,,,,,1,,,53,80
33360,note_on,,8,0,4,,,,,,3,,,53,80
33412,note_on,,52,0,2,,,,,,1,,,53,0
33412,note_on,,52,0,4,,,,,,3,,,53,0
33420,note_on,,8,0,4,,,,,,3,,,57,80
33420,note_on,,8,0,2,,,,,,1,,,57,80
33472,note_on,,52,0,4,,,,,,3,,,57,0
33472,note_on,,52,0,2,,,,,,1,,,57,0
33480,note_on,,8,0,2,,,,,,1,,,53,80
33480,note_on,,8,0,4,,,,,,3,,,53,80
33532,note_on,,52,0,4,,,,,,3,,,53,0
33532,note_on,,52,0,2,,,,,,1,,,53,0
33540,note_on,,8,0,2,,,,,,1,,,48,80
33540,note_on,,8,0,4,,,,,,3,,,48,80
33592,note_on,,52,0,2,,,,,,1,,,48,0
33592,note_on,,52,0,4,,,,,,3,,,48,0
33600,note_on,,8,0,2,,,,,,1,,,50,80
33600,note_on,,8,0,4,,,,,,3,,,50,80
33652,note_on,,52,0,2,,,,,,1,,,50,0
33652,note_on,,52,0,4,,,,,,3,,,50,0
33660,note_on,,8,0,4,,,,,,3,,,48,80
33660,note_on,,8,0,2,,,,,,1,,,48,80
33712,note_on,,52,0,2,,,,,,1,,,48,0
33712,note_on,,52,0,4,,,,,,3,,,48,0
33720,note_on,,8,0,2,,,,,,1,,,50,80
33720,note_on,,8,0,4,,,,,,3,,,50,80
33772,note_on,,52,0,2,,,,,,1,,,50,0
33772,note_on,,52,0,4,,,,,,3,,,50,0
33780,note_on,,8,0,2,,,,,,1,,,46,80
33780,note_on,,8,0,4,,,,,,3,,,46,80
33832,note_on,,52,0,2,,,,,,1,,,46,0
33832,note_on,,52,0,4,,,,,,3,,,46,0
33840,note_on,,8,0,4,,,,,,3,,,51,80
33840,note_on,,8,0,2,,,,,,1,,,51,80
33892,note_on,,52,0,4,,,,,,3,,,51,0
33892,note_on,,52,0,2,,,,,,1,,,51,0
33900,note_on,,8,0,4,,,,,,3,,,55,80
33900,note_on,,8,0,2,,,,,,1,,,55,80
33952,note_on,,52,0,2,,,,,,1,,,55,0
33952,note_on,,52,0,4,,,,,,3,,,55,0
33960,note_on,,8,0,4,,,,,,3,,,51,80
33960,note_on,,8,0,2,,,,,,1,,,51,80
34012,note_on,,52,0,4,,,,,,3,,,51,0
34012,note_on,,52,0,2,,,,,,1,,,51,0
34020,note_on,,8,0,4,,,,,,3,,,46,80
34020,note_on,,8,0,2,,,,,,1,,,46,80
34072,note_on,,52,0,2,,,,,,1,,,46,0
34072,note_on,,52,0,4,,,,,,3,,,46,0
34080,note_on,,8,0,2,,,,,,1,,,48,80
34080,note_on,,8,0,4,,,,,,3,,,48,80
34132,note_on,,52,0,2,,,,,,1,,,48,0
34132,note_on,,52,0,4,,,,,,3,,,48,0
34140,note_on,,8,0,4,,,,,,3,,,46,80
34140,note_on,,8,0,2,,,,,,1,,,46,80
34192,note_on,,52,0,4,,,,,,3,,,46,0
34192,note_on,,52,0,2,,,,,,1,,,46,0
34200,note_on,,8,0,2,,,,,,1,,,48,80
34200,note_on,,8,0,4,,,,,,3,,,48,80
34252,note_on,,52,0,4,,,,,,3,,,48,0
34252,note_on,,52,0,2,,,,,,1,,,48,0
34260,note_on,,8,0,4,,,,,,3,,,45,80
34260,note_on,,8,0,2,,,,,,1,,,45,80
34312,note_on,,52,0,2,,,,,,1,,,45,0
34312,note_on,,52,0,4,,,,,,3,,,45,0
34320,note_on,,8,0,4,,,,,,3,,,46,80
34320,note_on,,8,0,2,,,,,,1,,,46,80
34424,note_on,,104,0,4,,,,,,3,,,46,0
34424,note_on,,104,0,2,,,,,,1,,,46,0
34440,note_on,,16,0,4,,,,,,3,,,43,80
34440,note_on,,16,0,2,,,,,,1,,,43,80
34492,note_on,,52,0,2,,,,,,1,,,43,0
34492,note_on,,52,0,4,,,,,,3,,,43,0
34500,note_on,,8,0,4,,,,,,3,,,46,80
34500,note_on,,8,0,2,,,,,,1,,,46,80
34552,note_on,,52,0,4,,,,,,3,,,46,0
34552,note_on,,52,0,2,,,,,,1,,,46,0
34560,note_on,,8,0,4,,,,,,3,,,50,80
34560,note_on,,8,0,2,,,,,,1,,,50,80
34664,note_on,,104,0,4,,,,,,3,,,50,0
34664,note_on,,104,0,2,,,,,,1,,,50,0
34680,note_on,,16,0,4,,,,,,3,,,38,80
34680,note_on,,16,0,2,,,,,,1,,,38,80
34784,note_on,,104,0,4,,,,,,3,,,38,0
34784,note_on,,104,0,2,,,,,,1,,,38,0
34800,note_on,,16,0,4,,,,,,3,,,43,80
34800,note_on,,16,0,2,,,,,,1,,,43,80
35010,note_on,,210,0,2,,,,,,1,,,43,0
35010,note_on,,210,0,4,,,,,,3,,,43,0
35010,end_of_track,,0,1,2,,,,,,,,,,
35010,end_of_track,,0,1,4,,,,,,,,,,
