,note,step,duration,channel,velocity
0,48.0,0,360,0.0,64.0
1,72.0,120,120,0.0,64.0
2,67.0,120,120,0.0,64.0
3,60.0,0,360,0.0,64.0
4,75.0,120,0,0.0,64.0
5,72.0,120,120,0.0,64.0
6,79.0,40,120,0.0,64.0
7,59.0,120,120,0.0,64.0
8,79.0,40,40,0.0,64.0
9,77.0,40,40,0.0,64.0
10,79.0,0,280,0.0,64.0
11,57.0,120,120,0.0,64.0
12,55.0,120,120,0.0,64.0
13,67.0,0,360,0.0,64.0
14,65.0,120,120,0.0,64.0
15,63.0,120,120,0.0,64.0
16,62.0,120,120,0.0,64.0
17,72.0,120,120,0.0,64.0
18,63.0,0,240,0.0,64.0
19,74.0,120,120,0.0,64.0
20,62.0,0,120,0.0,64.0
21,75.0,120,120,0.0,64.0
22,56.0,120,240,0.0,64.0
23,77.0,120,120,0.0,64.0
24,79.0,0,120,0.0,64.0
25,53.0,120,120,0.0,64.0
26,80.0,0,120,0.0,64.0
27,71.0,120,120,0.0,64.0
28,55.0,0,240,0.0,64.0
29,80.0,120,120,0.0,64.0
30,57.0,0,120,0.0,64.0
31,79.0,120,120,0.0,64.0
32,77.0,120,120,0.0,64.0
33,59.0,120,240,0.0,64.0
34,75.0,0,120,0.0,64.0
35,55.0,0,120,0.0,64.0
36,74.0,40,120,0.0,64.0
37,60.0,120,120,0.0,64.0
38,75.0,40,40,0.0,64.0
39,74.0,40,40,0.0,64.0
40,75.0,120,280,0.0,64.0
41,55.0,0,120,0.0,64.0
42,63.0,0,120,0.0,64.0
43,72.0,120,480,0.0,64.0
44,63.0,120,120,0.0,64.0
45,60.0,120,120,0.0,64.0
46,67.0,40,0,0.0,64.0
47,65.0,40,40,0.0,64.0
48,67.0,0,280,0.0,64.0
49,71.0,120,120,0.0,64.0
50,72.0,120,120,0.0,64.0
51,55.0,0,360,0.0,64.0
52,74.0,120,120,0.0,64.0
53,75.0,120,120,0.0,64.0
54,77.0,120,120,0.0,64.0
55,60.0,120,120,0.0,64.0
56,75.0,0,120,0.0,64.0
57,77.0,0,120,0.0,64.0
58,62.0,120,120,0.0,64.0
59,75.0,120,120,0.0,64.0
60,63.0,0,120,0.0,64.0
61,65.0,120,120,0.0,64.0
62,74.0,0,120,0.0,64.0
63,75.0,120,120,0.0,64.0
64,67.0,0,120,0.0,64.0
65,72.0,0,120,0.0,64.0
66,68.0,40,120,0.0,64.0
67,79.0,40,40,0.0,64.0
68,59.0,120,120,0.0,64.0
69,77.0,40,40,0.0,64.0
70,79.0,0,880,0.0,64.0
71,68.0,120,120,0.0,64.0
72,67.0,120,120,0.0,64.0
73,65.0,120,120,0.0,64.0
74,63.0,120,120,0.0,64.0
75,62.0,120,120,0.0,64.0
76,60.0,120,120,0.0,64.0
77,55.0,0,120,0.0,64.0
78,63.0,120,0,0.0,64.0
79,79.0,40,120,0.0,64.0
80,63.0,120,120,0.0,64.0
81,72.0,40,40,0.0,64.0
82,70.0,40,40,0.0,64.0
83,72.0,0,160,0.0,64.0
84,60.0,120,120,0.0,64.0
85,75.0,0,120,0.0,64.0
86,67.0,120,120,0.0,64.0
87,56.0,60,360,0.0,64.0
88,65.0,60,240,0.0,64.0
89,60.0,60,60,0.0,64.0
90,62.0,60,60,0.0,64.0
91,63.0,0,60,0.0,64.0
92,65.0,60,60,0.0,64.0
93,67.0,0,60,0.0,64.0
94,68.0,60,60,0.0,64.0
95,70.0,60,60,0.0,64.0
96,68.0,60,60,0.0,64.0
97,67.0,60,60,0.0,64.0
98,65.0,60,60,0.0,64.0
99,63.0,120,60,0.0,64.0
100,58.0,120,120,0.0,64.0
101,62.0,0,240,0.0,64.0
102,53.0,120,120,0.0,64.0
103,77.0,0,120,0.0,64.0
104,62.0,120,0,0.0,64.0
105,70.0,0,240,0.0,64.0
106,58.0,120,120,0.0,64.0
107,74.0,0,120,0.0,64.0
108,65.0,120,120,0.0,64.0
109,55.0,0,360,0.0,64.0
110,63.0,0,240,0.0,64.0
111,58.0,60,60,0.0,64.0
112,60.0,60,60,0.0,64.0
113,62.0,60,60,0.0,64.0
114,63.0,60,60,0.0,64.0
115,65.0,60,60,0.0,64.0
116,67.0,60,60,0.0,64.0
117,68.0,60,60,0.0,64.0
118,67.0,60,60,0.0,64.0
119,65.0,60,60,0.0,64.0
120,63.0,60,60,0.0,64.0
121,62.0,40,60,0.0,64.0
122,56.0,4,120,0.0,64.0
123,60.0,0,240,0.0,64.0
124,77.0,44,40,0.0,64.0
125,75.0,36,44,0.0,64.0
126,77.0,40,44,0.0,64.0
127,51.0,4,120,0.0,64.0
128,75.0,40,44,0.0,64.0
129,77.0,36,44,0.0,64.0
130,75.0,40,44,0.0,64.0
131,77.0,40,44,0.0,64.0
132,75.0,36,44,0.0,64.0
133,77.0,40,44,0.0,64.0
134,60.0,4,0,0.0,64.0
135,75.0,40,44,0.0,64.0
136,77.0,36,44,0.0,64.0
137,75.0,40,44,0.0,64.0
138,56.0,4,120,0.0,64.0
139,77.0,40,44,0.0,64.0
140,75.0,36,44,0.0,64.0
141,77.0,40,44,0.0,64.0
142,75.0,40,44,0.0,64.0
143,72.0,0,120,0.0,64.0
144,63.0,4,120,0.0,64.0
145,77.0,36,44,0.0,64.0
146,75.0,40,44,0.0,64.0
147,77.0,40,44,0.0,64.0
148,55.0,4,120,0.0,64.0
149,70.0,10,590,0.0,64.0
150,75.0,36,44,0.0,64.0
151,77.0,40,44,0.0,64.0
152,75.0,40,44,0.0,64.0
153,51.0,4,120,0.0,64.0
154,77.0,36,44,0.0,64.0
155,75.0,40,44,0.0,64.0
156,58.0,4,120,0.0,64.0
157,77.0,40,44,0.0,64.0
158,75.0,36,44,0.0,64.0
159,77.0,40,44,0.0,64.0
160,75.0,40,44,0.0,64.0
161,58.0,4,120,0.0,64.0
162,77.0,36,44,0.0,64.0
163,75.0,40,44,0.0,64.0
164,55.0,4,120,0.0,64.0
165,77.0,40,44,0.0,64.0
166,75.0,26,44,0.0,64.0
167,77.0,40,44,0.0,64.0
168,75.0,40,44,0.0,64.0
169,72.0,0,120,0.0,64.0
170,63.0,4,120,0.0,64.0
171,77.0,36,44,0.0,64.0
172,75.0,40,44,0.0,64.0
173,77.0,40,44,0.0,64.0
174,53.0,4,120,0.0,64.0
175,68.0,10,590,0.0,64.0
176,75.0,36,44,0.0,64.0
177,77.0,40,44,0.0,64.0
178,55.0,4,120,0.0,64.0
179,75.0,40,44,0.0,64.0
180,77.0,36,44,0.0,64.0
181,75.0,116,44,0.0,64.0
182,56.0,12,120,0.0,64.0
183,77.0,108,132,0.0,64.0
184,58.0,110,120,0.0,64.0
185,74.0,60,480,0.0,64.0
186,60.0,120,120,0.0,64.0
187,62.0,0,120,0.0,64.0
188,70.0,120,120,0.0,64.0
189,55.0,40,360,0.0,64.0
190,67.0,60,240,0.0,64.0
191,79.0,60,60,0.0,64.0
192,77.0,0,60,0.0,64.0
193,75.0,60,60,0.0,64.0
194,74.0,0,60,0.0,64.0
195,72.0,20,60,0.0,64.0
196,63.0,20,40,0.0,64.0
197,62.0,40,40,0.0,64.0
198,74.0,60,60,0.0,64.0
199,63.0,0,280,0.0,64.0
200,72.0,60,60,0.0,64.0
201,70.0,60,60,0.0,64.0
202,69.0,60,60,0.0,64.0
203,67.0,120,60,0.0,64.0
204,66.0,60,120,0.0,64.0
205,62.0,0,360,0.0,64.0
206,81.0,60,60,0.0,64.0
207,79.0,60,60,0.0,64.0
208,78.0,60,60,0.0,64.0
209,76.0,60,60,0.0,64.0
210,74.0,60,60,0.0,64.0
211,54.0,0,360,0.0,64.0
212,75.0,60,60,0.0,64.0
213,74.0,60,60,0.0,64.0
214,72.0,60,60,0.0,64.0
215,70.0,60,60,0.0,64.0
216,69.0,120,60,0.0,64.0
217,55.0,120,120,0.0,64.0
218,70.0,120,720,0.0,64.0
219,50.0,120,120,0.0,64.0
220,58.0,120,120,0.0,64.0
221,58.0,120,120,0.0,64.0
222,67.0,0,360,0.0,64.0
223,55.0,120,120,0.0,64.0
224,62.0,0,120,0.0,64.0
225,69.0,120,360,0.0,64.0
226,66.0,120,120,0.0,64.0
227,64.0,120,120,0.0,64.0
228,62.0,0,120,0.0,64.0
229,72.0,120,120,0.0,64.0
230,50.0,0,360,0.0,64.0
231,78.0,120,360,0.0,64.0
232,70.0,120,120,0.0,64.0
233,69.0,0,120,0.0,64.0
234,70.0,0,120,0.0,64.0
235,79.0,120,360,0.0,64.0
236,55.0,120,120,0.0,64.0
237,57.0,120,120,0.0,64.0
238,72.0,0,120,0.0,64.0
239,70.0,0,120,0.0,64.0
240,58.0,0,120,0.0,64.0
241,69.0,120,120,0.0,64.0
242,60.0,0,120,0.0,64.0
243,62.0,0,120,0.0,64.0
244,70.0,120,120,0.0,64.0
245,67.0,0,120,0.0,64.0
246,63.0,120,120,0.0,64.0
247,74.0,0,120,0.0,64.0
248,54.0,120,120,0.0,64.0
249,72.0,120,120,0.0,64.0
250,63.0,0,120,0.0,64.0
251,62.0,120,120,0.0,64.0
252,70.0,0,120,0.0,64.0
253,60.0,0,120,0.0,64.0
254,69.0,120,120,0.0,64.0
255,58.0,120,120,0.0,64.0
256,67.0,0,120,0.0,64.0
257,66.0,40,120,0.0,64.0
258,57.0,0,120,0.0,64.0
259,58.0,120,360,0.0,64.0
260,67.0,40,40,0.0,64.0
261,66.0,160,40,0.0,64.0
262,67.0,120,160,0.0,64.0
263,62.0,0,120,0.0,64.0
264,70.0,0,120,0.0,64.0
265,70.0,120,120,0.0,64.0
266,55.0,120,480,0.0,64.0
267,62.0,120,240,0.0,64.0
268,67.0,0,120,0.0,64.0
269,74.0,120,120,0.0,64.0
270,69.0,0,240,0.0,64.0
271,74.0,0,360,0.0,64.0
272,54.0,120,120,0.0,64.0
273,55.0,120,120,0.0,64.0
274,62.0,120,360,0.0,64.0
275,66.0,0,240,0.0,64.0
276,57.0,120,120,0.0,64.0
277,58.0,120,120,0.0,64.0
278,60.0,0,120,0.0,64.0
279,58.0,120,120,0.0,64.0
280,67.0,0,240,0.0,64.0
281,69.0,0,120,0.0,64.0
282,60.0,120,120,0.0,64.0
283,58.0,0,120,0.0,64.0
284,70.0,120,120,0.0,64.0
285,72.0,0,120,0.0,64.0
286,57.0,120,120,0.0,64.0
287,74.0,120,120,0.0,64.0
288,58.0,0,120,0.0,64.0
289,55.0,0,120,0.0,64.0
290,75.0,120,120,0.0,64.0
291,62.0,0,120,0.0,64.0
292,66.0,120,120,0.0,64.0
293,60.0,120,120,0.0,64.0
294,75.0,0,120,0.0,64.0
295,58.0,120,120,0.0,64.0
296,74.0,0,120,0.0,64.0
297,72.0,120,120,0.0,64.0
298,57.0,0,120,0.0,64.0
299,70.0,0,120,0.0,64.0
300,55.0,120,120,0.0,64.0
301,69.0,0,120,0.0,64.0
302,54.0,120,120,0.0,64.0
303,67.0,120,120,0.0,64.0
304,55.0,120,240,0.0,64.0
305,62.0,0,120,0.0,64.0
306,70.0,0,0,0.0,64.0
307,62.0,120,120,0.0,64.0
308,70.0,0,0,0.0,64.0
309,55.0,0,240,0.0,64.0
310,67.0,120,120,0.0,64.0
311,58.0,120,120,0.0,64.0
312,74.0,0,120,0.0,64.0
313,63.0,0,240,0.0,64.0
314,36.0,0,240,0.0,64.0
315,67.0,60,60,0.0,64.0
316,69.0,60,60,0.0,64.0
317,70.0,60,60,0.0,64.0
318,72.0,60,60,0.0,64.0
319,74.0,60,60,0.0,64.0
320,75.0,60,60,0.0,64.0
321,77.0,60,60,0.0,64.0
322,75.0,60,60,0.0,64.0
323,74.0,60,60,0.0,64.0
324,72.0,60,60,0.0,64.0
325,70.0,120,60,0.0,64.0
326,65.0,120,120,0.0,64.0
327,60.0,0,120,0.0,64.0
328,69.0,120,0,0.0,64.0
329,60.0,0,120,0.0,64.0
330,69.0,120,0,0.0,64.0
331,53.0,0,240,0.0,64.0
332,65.0,120,120,0.0,64.0
333,57.0,0,120,0.0,64.0
334,72.0,120,120,0.0,64.0
335,46.0,0,240,0.0,64.0
336,62.0,0,240,0.0,64.0
337,65.0,60,60,0.0,64.0
338,67.0,60,60,0.0,64.0
339,69.0,60,60,0.0,64.0
340,70.0,60,60,0.0,64.0
341,72.0,60,60,0.0,64.0
342,74.0,60,60,0.0,64.0
343,75.0,60,60,0.0,64.0
344,74.0,60,60,0.0,64.0
345,72.0,60,60,0.0,64.0
346,70.0,60,60,0.0,64.0
347,68.0,40,60,0.0,64.0
348,63.0,8,120,0.0,64.0
349,48.0,48,40,0.0,64.0
350,46.0,32,48,0.0,64.0
351,48.0,40,48,0.0,64.0
352,58.0,0,120,0.0,64.0
353,46.0,40,48,0.0,64.0
354,48.0,32,48,0.0,64.0
355,46.0,40,48,0.0,64.0
356,48.0,40,48,0.0,64.0
357,67.0,8,0,0.0,64.0
358,46.0,32,48,0.0,64.0
359,48.0,40,48,0.0,64.0
360,46.0,40,48,0.0,64.0
361,67.0,8,0,0.0,64.0
362,48.0,32,48,0.0,64.0
363,46.0,40,48,0.0,64.0
364,48.0,40,48,0.0,64.0
365,63.0,8,120,0.0,64.0
366,46.0,32,48,0.0,64.0
367,48.0,40,48,0.0,64.0
368,67.0,0,120,0.0,64.0
369,70.0,8,120,0.0,64.0
370,46.0,40,48,0.0,64.0
371,48.0,32,48,0.0,64.0
372,46.0,40,48,0.0,64.0
373,62.0,8,120,0.0,64.0
374,48.0,40,48,0.0,64.0
375,65.0,0,240,0.0,64.0
376,46.0,32,48,0.0,64.0
377,48.0,40,48,0.0,64.0
378,58.0,8,120,0.0,64.0
379,46.0,40,48,0.0,64.0
380,48.0,32,48,0.0,64.0
381,46.0,40,48,0.0,64.0
382,48.0,40,48,0.0,64.0
383,46.0,32,48,0.0,64.0
384,48.0,40,48,0.0,64.0
385,65.0,8,0,0.0,64.0
386,46.0,40,48,0.0,64.0
387,48.0,32,48,0.0,64.0
388,46.0,40,48,0.0,64.0
389,48.0,40,48,0.0,64.0
390,62.0,8,120,0.0,64.0
391,46.0,32,48,0.0,64.0
392,48.0,40,48,0.0,64.0
393,46.0,40,48,0.0,64.0
394,70.0,0,120,0.0,64.0
395,67.0,8,120,0.0,64.0
396,48.0,32,48,0.0,64.0
397,46.0,40,48,0.0,64.0
398,60.0,8,120,0.0,64.0
399,48.0,40,48,0.0,64.0
400,46.0,32,48,0.0,64.0
401,48.0,40,48,0.0,64.0
402,46.0,40,48,0.0,64.0
403,62.0,8,120,0.0,64.0
404,48.0,32,48,0.0,64.0
405,46.0,40,48,0.0,64.0
406,63.0,0,0,0.0,64.0
407,48.0,72,48,0.0,64.0
408,46.0,104,96,0.0,64.0
409,65.0,120,120,0.0,64.0
410,45.0,60,480,0.0,64.0
411,67.0,120,120,0.0,64.0
412,69.0,120,120,0.0,64.0
413,65.0,0,120,0.0,64.0
414,62.0,60,240,0.0,64.0
415,58.0,0,240,0.0,64.0
416,50.0,60,60,0.0,64.0
417,48.0,0,60,0.0,64.0
418,74.0,60,120,0.0,64.0
419,46.0,60,60,0.0,64.0
420,44.0,0,60,0.0,64.0
421,43.0,60,60,0.0,64.0
422,70.0,0,480,0.0,64.0
423,44.0,60,60,0.0,64.0
424,43.0,60,60,0.0,64.0
425,41.0,60,60,0.0,64.0
426,67.0,0,120,0.0,64.0
427,39.0,60,60,0.0,64.0
428,38.0,120,60,0.0,64.0
429,63.0,10,590,0.0,64.0
430,36.0,60,120,0.0,64.0
431,51.0,60,60,0.0,64.0
432,50.0,60,60,0.0,64.0
433,48.0,60,60,0.0,64.0
434,75.0,60,120,0.0,64.0
435,46.0,0,60,0.0,64.0
436,44.0,60,60,0.0,64.0
437,46.0,60,60,0.0,64.0
438,44.0,50,60,0.0,64.0
439,43.0,60,60,0.0,64.0
440,42.0,60,60,0.0,64.0
441,69.0,0,120,0.0,64.0
442,40.0,120,60,0.0,64.0
443,66.0,60,120,0.0,64.0
444,38.0,0,360,0.0,64.0
445,74.0,60,60,0.0,64.0
446,72.0,60,60,0.0,64.0
447,70.0,60,60,0.0,64.0
448,69.0,60,60,0.0,64.0
449,70.0,0,480,0.0,64.0
450,67.0,60,60,0.0,64.0
451,69.0,60,60,0.0,64.0
452,67.0,60,60,0.0,64.0
453,43.0,0,60,0.0,64.0
454,65.0,60,60,0.0,64.0
455,45.0,0,60,0.0,64.0
456,63.0,60,60,0.0,64.0
457,62.0,60,60,0.0,64.0
458,46.0,0,60,0.0,64.0
459,48.0,60,60,0.0,64.0
460,63.0,0,480,0.0,64.0
461,46.0,60,60,0.0,64.0
462,48.0,60,60,0.0,64.0
463,69.0,60,120,0.0,64.0
464,50.0,0,60,0.0,64.0
465,51.0,60,60,0.0,64.0
466,67.0,0,120,0.0,64.0
467,48.0,60,60,0.0,64.0
468,66.0,0,360,0.0,64.0
469,50.0,60,60,0.0,64.0
470,51.0,60,60,0.0,64.0
471,50.0,60,60,0.0,64.0
472,57.0,0,120,0.0,64.0
473,48.0,60,60,0.0,64.0
474,60.0,120,120,0.0,64.0
475,46.0,60,60,0.0,64.0
476,45.0,0,60,0.0,64.0
477,67.0,120,120,0.0,64.0
478,43.0,0,240,0.0,64.0
479,58.0,0,240,0.0,64.0
480,62.0,120,120,0.0,64.0
481,70.0,120,120,0.0,64.0
482,70.0,120,120,0.0,64.0
483,67.0,120,120,0.0,64.0
484,73.0,180,0,0.0,64.0
485,58.0,60,60,0.0,64.0
486,56.0,60,60,0.0,64.0
487,70.0,0,120,0.0,64.0
488,55.0,60,60,0.0,64.0
489,53.0,60,60,0.0,64.0
490,67.0,0,240,0.0,64.0
491,52.0,60,60,0.0,64.0
492,53.0,60,60,0.0,64.0
493,52.0,60,60,0.0,64.0
494,50.0,60,60,0.0,64.0
495,70.0,60,120,0.0,64.0
496,48.0,60,60,0.0,64.0
497,46.0,0,60,0.0,64.0
498,44.0,60,60,0.0,64.0
499,64.0,60,240,0.0,64.0
500,53.0,60,60,0.0,64.0
501,52.0,60,60,0.0,64.0
502,70.0,0,120,0.0,64.0
503,50.0,0,60,0.0,64.0
504,76.0,0,120,0.0,64.0
505,48.0,60,60,0.0,64.0
506,46.0,60,60,0.0,64.0
507,44.0,60,60,0.0,64.0
508,76.0,60,120,0.0,64.0
509,46.0,0,60,0.0,64.0
510,44.0,60,60,0.0,64.0
511,72.0,60,120,0.0,64.0
512,43.0,0,60,0.0,64.0
513,41.0,60,60,0.0,64.0
514,79.0,120,120,0.0,64.0
515,40.0,0,60,0.0,64.0
516,80.0,70,1130,0.0,64.0
517,41.0,60,240,0.0,64.0
518,77.0,60,60,0.0,64.0
519,75.0,60,60,0.0,64.0
520,73.0,0,60,0.0,64.0
521,72.0,60,60,0.0,64.0
522,70.0,60,60,0.0,64.0
523,68.0,60,60,0.0,64.0
524,70.0,60,60,0.0,64.0
525,68.0,60,60,0.0,64.0
526,67.0,60,60,0.0,64.0
527,65.0,60,60,0.0,64.0
528,63.0,120,60,0.0,64.0
529,62.0,120,120,0.0,64.0
530,58.0,120,120,0.0,64.0
531,65.0,50,120,0.0,64.0
532,65.0,60,120,0.0,64.0
533,82.0,0,60,0.0,64.0
534,80.0,60,60,0.0,64.0
535,62.0,0,120,0.0,64.0
536,79.0,60,60,0.0,64.0
537,77.0,60,60,0.0,64.0
538,75.0,0,60,0.0,64.0
539,74.0,60,60,0.0,64.0
540,68.0,60,0,0.0,64.0
541,75.0,60,60,0.0,64.0
542,74.0,60,60,0.0,64.0
543,72.0,60,60,0.0,64.0
544,70.0,60,60,0.0,64.0
545,67.0,60,120,0.0,64.0
546,72.0,0,60,0.0,64.0
547,74.0,60,60,0.0,64.0
548,65.0,60,240,0.0,64.0
549,75.0,60,60,0.0,64.0
550,77.0,60,60,0.0,64.0
551,79.0,0,60,0.0,64.0
552,80.0,60,60,0.0,64.0
553,63.0,60,120,0.0,64.0
554,82.0,0,60,0.0,64.0
555,84.0,50,60,0.0,64.0
556,62.0,0,240,0.0,64.0
557,82.0,60,60,0.0,64.0
558,80.0,60,60,0.0,64.0
559,65.0,0,120,0.0,64.0
560,79.0,60,60,0.0,64.0
561,68.0,0,120,0.0,64.0
562,77.0,60,60,0.0,64.0
563,75.0,0,60,0.0,64.0
564,77.0,60,60,0.0,64.0
565,74.0,60,0,0.0,64.0
566,67.0,60,240,0.0,64.0
567,79.0,0,60,0.0,64.0
568,70.0,0,120,0.0,64.0
569,80.0,60,60,0.0,64.0
570,84.0,0,60,0.0,64.0
571,82.0,60,60,0.0,64.0
572,74.0,60,120,0.0,64.0
573,65.0,0,120,0.0,64.0
574,80.0,0,60,0.0,64.0
575,75.0,130,830,0.0,64.0
576,63.0,60,60,0.0,64.0
577,55.0,60,60,0.0,64.0
578,56.0,60,60,0.0,64.0
579,58.0,60,60,0.0,64.0
580,60.0,60,60,0.0,64.0
581,62.0,60,60,0.0,64.0
582,63.0,60,60,0.0,64.0
583,65.0,60,60,0.0,64.0
584,63.0,60,60,0.0,64.0
585,62.0,60,60,0.0,64.0
586,60.0,60,60,0.0,64.0
587,58.0,110,60,0.0,64.0
588,56.0,70,770,0.0,64.0
589,74.0,120,480,0.0,64.0
590,79.0,120,0,0.0,64.0
591,79.0,120,0,0.0,64.0
592,75.0,0,120,0.0,64.0
593,75.0,50,120,0.0,64.0
594,84.0,0,120,0.0,64.0
595,74.0,130,830,0.0,64.0
596,53.0,60,60,0.0,64.0
597,55.0,60,60,0.0,64.0
598,57.0,60,60,0.0,64.0
599,59.0,60,60,0.0,64.0
600,60.0,60,60,0.0,64.0
601,62.0,60,60,0.0,64.0
602,63.0,60,60,0.0,64.0
603,62.0,60,60,0.0,64.0
604,60.0,60,60,0.0,64.0
605,59.0,60,60,0.0,64.0
606,57.0,110,60,0.0,64.0
607,55.0,70,770,0.0,64.0
608,71.0,0,480,0.0,64.0
609,77.0,120,0,0.0,64.0
610,77.0,120,120,0.0,64.0
611,74.0,120,120,0.0,64.0
612,83.0,0,120,0.0,64.0
613,74.0,50,120,0.0,64.0
614,72.0,0,960,0.0,64.0
615,75.0,60,840,0.0,64.0
616,51.0,60,60,0.0,64.0
617,53.0,60,60,0.0,64.0
618,55.0,60,60,0.0,64.0
619,57.0,60,60,0.0,64.0
620,59.0,60,60,0.0,64.0
621,60.0,60,60,0.0,64.0
622,62.0,60,60,0.0,64.0
623,60.0,60,60,0.0,64.0
624,58.0,60,60,0.0,64.0
625,56.0,60,60,0.0,64.0
626,55.0,120,60,0.0,64.0
627,53.0,60,1080,0.0,64.0
628,80.0,60,60,0.0,64.0
629,79.0,60,60,0.0,64.0
630,77.0,60,60,0.0,64.0
631,75.0,60,60,0.0,64.0
632,74.0,60,60,0.0,64.0
633,75.0,60,60,0.0,64.0
634,74.0,60,60,0.0,64.0
635,72.0,60,60,0.0,64.0
636,71.0,60,60,0.0,64.0
637,69.0,180,60,0.0,64.0
638,70.0,0,360,0.0,64.0
639,67.0,60,60,0.0,64.0
640,65.0,60,60,0.0,64.0
641,63.0,60,60,0.0,64.0
642,62.0,0,60,0.0,64.0
643,51.0,70,410,0.0,64.0
644,72.0,0,360,0.0,64.0
645,60.0,60,60,0.0,64.0
646,62.0,60,60,0.0,64.0
647,60.0,60,60,0.0,64.0
648,58.0,60,60,0.0,64.0
649,56.0,60,60,0.0,64.0
650,55.0,50,60,0.0,64.0
651,56.0,60,240,0.0,64.0
652,77.0,120,960,0.0,64.0
653,55.0,60,60,0.0,64.0
654,53.0,60,60,0.0,64.0
655,51.0,0,60,0.0,64.0
656,50.0,60,60,0.0,64.0
657,68.0,0,240,0.0,64.0
658,48.0,60,60,0.0,64.0
659,47.0,60,60,0.0,64.0
660,48.0,60,60,0.0,64.0
661,65.0,60,120,0.0,64.0
662,47.0,60,60,0.0,64.0
663,45.0,0,60,0.0,64.0
664,43.0,60,60,0.0,64.0
665,71.0,120,240,0.0,64.0
666,41.0,120,60,0.0,64.0
667,39.0,0,360,0.0,64.0
668,67.0,0,120,0.0,64.0
669,75.0,120,240,0.0,64.0
670,72.0,120,120,0.0,64.0
671,41.0,120,360,0.0,64.0
672,68.0,120,480,0.0,64.0
673,74.0,120,120,0.0,64.0
674,77.0,0,120,0.0,64.0
675,71.0,120,360,0.0,64.0
676,43.0,0,360,0.0,64.0
677,67.0,120,120,0.0,64.0
678,65.0,0,120,0.0,64.0
679,72.0,0,360,0.0,64.0
680,45.0,120,360,0.0,64.0
681,63.0,120,120,0.0,64.0
682,62.0,120,120,0.0,64.0
683,60.0,0,120,0.0,64.0
684,65.0,0,240,0.0,64.0
685,74.0,0,240,0.0,64.0
686,47.0,120,120,0.0,64.0
687,43.0,120,120,0.0,64.0
688,48.0,120,120,0.0,64.0
689,72.0,0,360,0.0,64.0
690,63.0,0,120,0.0,64.0
691,62.0,0,360,0.0,64.0
692,44.0,120,120,0.0,64.0
693,41.0,120,120,0.0,64.0
694,71.0,0,120,0.0,64.0
695,43.0,120,120,0.0,64.0
696,48.0,120,120,0.0,64.0
697,63.0,120,240,0.0,64.0
698,72.0,0,240,0.0,64.0
699,43.0,0,120,0.0,64.0
700,51.0,120,120,0.0,64.0
701,79.0,0,120,0.0,64.0
702,72.0,0,240,0.0,64.0
703,51.0,120,120,0.0,64.0
704,48.0,120,120,0.0,64.0
705,75.0,0,120,0.0,64.0
706,55.0,120,120,0.0,64.0
707,53.0,60,120,0.0,64.0
708,68.0,60,240,0.0,64.0
709,60.0,0,60,0.0,64.0
710,62.0,60,60,0.0,64.0
711,48.0,0,120,0.0,64.0
712,63.0,0,60,0.0,64.0
713,65.0,60,60,0.0,64.0
714,56.0,0,120,0.0,64.0
715,67.0,60,60,0.0,64.0
716,68.0,60,60,0.0,64.0
717,56.0,60,120,0.0,64.0
718,70.0,0,60,0.0,64.0
719,68.0,60,60,0.0,64.0
720,53.0,60,120,0.0,64.0
721,67.0,0,60,0.0,64.0
722,60.0,120,120,0.0,64.0
723,65.0,60,60,0.0,64.0
724,63.0,0,60,0.0,64.0
725,62.0,120,120,0.0,64.0
726,58.0,0,240,0.0,64.0
727,53.0,120,120,0.0,64.0
728,77.0,0,120,0.0,64.0
729,70.0,0,240,0.0,64.0
730,62.0,120,0,0.0,64.0
731,58.0,120,120,0.0,64.0
732,74.0,0,120,0.0,64.0
733,65.0,60,120,0.0,64.0
734,67.0,60,60,0.0,64.0
735,63.0,60,120,0.0,64.0
736,70.0,0,60,0.0,64.0
737,72.0,60,60,0.0,64.0
738,60.0,60,120,0.0,64.0
739,74.0,0,60,0.0,64.0
740,67.0,0,120,0.0,64.0
741,75.0,60,60,0.0,64.0
742,77.0,60,60,0.0,64.0
743,67.0,0,120,0.0,64.0
744,79.0,60,60,0.0,64.0
745,80.0,60,60,0.0,64.0
746,79.0,60,60,0.0,64.0
747,63.0,60,120,0.0,64.0
748,77.0,0,60,0.0,64.0
749,75.0,60,60,0.0,64.0
750,70.0,40,120,0.0,64.0
751,74.0,0,0,0.0,64.0
752,53.0,4,120,0.0,64.0
753,68.0,4,360,0.0,64.0
754,72.0,36,44,0.0,64.0
755,74.0,40,44,0.0,64.0
756,72.0,40,44,0.0,64.0
757,48.0,4,120,0.0,64.0
758,74.0,36,44,0.0,64.0
759,72.0,40,44,0.0,64.0
760,74.0,40,44,0.0,64.0
761,56.0,0,120,0.0,64.0
762,72.0,36,44,0.0,64.0
763,74.0,40,44,0.0,64.0
764,72.0,40,44,0.0,64.0
765,56.0,4,120,0.0,64.0
766,74.0,36,44,0.0,64.0
767,72.0,40,44,0.0,64.0
768,53.0,4,120,0.0,64.0
769,74.0,40,44,0.0,64.0
770,72.0,36,44,0.0,64.0
771,74.0,40,44,0.0,64.0
772,68.0,4,120,0.0,64.0
773,72.0,40,44,0.0,64.0
774,60.0,0,120,0.0,64.0
775,74.0,36,44,0.0,64.0
776,72.0,40,44,0.0,64.0
777,51.0,4,120,0.0,64.0
778,74.0,40,44,0.0,64.0
779,67.0,10,590,0.0,64.0
780,72.0,36,44,0.0,64.0
781,74.0,40,44,0.0,64.0
782,72.0,40,44,0.0,64.0
783,48.0,4,120,0.0,64.0
784,74.0,36,44,0.0,64.0
785,72.0,40,44,0.0,64.0
786,55.0,4,120,0.0,64.0
787,74.0,40,44,0.0,64.0
788,72.0,36,44,0.0,64.0
789,74.0,40,44,0.0,64.0
790,72.0,40,44,0.0,64.0
791,55.0,4,120,0.0,64.0
792,74.0,36,44,0.0,64.0
793,72.0,40,44,0.0,64.0
794,74.0,40,44,0.0,64.0
795,51.0,4,120,0.0,64.0
796,72.0,26,44,0.0,64.0
797,74.0,40,44,0.0,64.0
798,68.0,0,120,0.0,64.0
799,72.0,40,44,0.0,64.0
800,60.0,4,120,0.0,64.0
801,74.0,36,44,0.0,64.0
802,72.0,40,44,0.0,64.0
803,74.0,40,44,0.0,64.0
804,50.0,4,120,0.0,64.0
805,65.0,70,770,0.0,64.0
806,72.0,36,44,0.0,64.0
807,74.0,40,44,0.0,64.0
808,72.0,40,44,0.0,64.0
809,51.0,4,120,0.0,64.0
810,74.0,36,44,0.0,64.0
811,72.0,40,44,0.0,64.0
812,74.0,76,44,0.0,64.0
813,53.0,8,120,0.0,64.0
814,72.0,112,88,0.0,64.0
815,71.0,0,120,0.0,64.0
816,55.0,40,120,0.0,64.0
817,72.0,48,40,0.0,64.0
818,57.0,8,120,0.0,64.0
819,71.0,32,40,0.0,64.0
820,72.0,112,40,0.0,64.0
821,59.0,0,120,0.0,64.0
822,74.0,50,120,0.0,64.0
823,51.0,70,770,0.0,64.0
824,55.0,60,60,0.0,64.0
825,57.0,60,60,0.0,64.0
826,59.0,60,60,0.0,64.0
827,60.0,60,60,0.0,64.0
828,62.0,60,60,0.0,64.0
829,63.0,60,60,0.0,64.0
830,62.0,60,60,0.0,64.0
831,60.0,60,60,0.0,64.0
832,62.0,60,60,0.0,64.0
833,63.0,60,60,0.0,64.0
834,65.0,0,60,0.0,64.0
835,67.0,50,0,0.0,64.0
836,55.0,0,60,0.0,64.0
837,71.0,60,60,0.0,64.0
838,53.0,0,60,0.0,64.0
839,72.0,60,60,0.0,64.0
840,51.0,60,60,0.0,64.0
841,74.0,0,60,0.0,64.0
842,75.0,0,60,0.0,64.0
843,50.0,60,60,0.0,64.0
844,77.0,120,60,0.0,64.0
845,48.0,0,60,0.0,64.0
846,55.0,120,240,0.0,64.0
847,79.0,120,120,0.0,64.0
848,72.0,0,120,0.0,64.0
849,63.0,0,120,0.0,64.0
850,43.0,0,120,0.0,64.0
851,62.0,1080,120,0.0,64.0
852,71.0,0,120,0.0,64.0
853,64.0,0,1080,0.0,64.0
854,36.0,0,1080,0.0,64.0
855,72.0,0,1080,0.0,64.0
