,note,step,duration,channel,velocity
0,72.0,0,96,0.0,63.0
1,74.0,96,96,0.0,63.0
2,48.0,0,192,1.0,63.0
3,75.0,0,96,0.0,63.0
4,67.0,96,96,0.0,63.0
5,60.0,96,192,1.0,63.0
6,74.0,96,96,0.0,63.0
7,55.0,0,192,1.0,63.0
8,65.0,96,96,0.0,63.0
9,65.0,0,48,0.0,63.0
10,63.0,48,48,0.0,63.0
11,62.0,48,96,0.0,63.0
12,56.0,96,192,1.0,63.0
13,60.0,0,96,0.0,63.0
14,44.0,96,160,1.0,63.0
15,63.0,96,96,0.0,63.0
16,67.0,96,96,0.0,63.0
17,72.0,96,94,0.0,63.0
18,65.0,0,96,0.0,63.0
19,56.0,96,192,1.0,63.0
20,75.0,96,96,0.0,66.0
21,74.0,0,96,0.0,69.0
22,77.0,96,96,0.0,72.0
23,53.0,96,192,1.0,63.0
24,80.0,96,96,0.0,76.0
25,72.0,96,96,0.0,80.0
26,50.0,0,192,1.0,63.0
27,72.0,0,48,0.0,84.0
28,71.0,48,48,0.0,83.0
29,69.0,48,96,0.0,82.0
30,55.0,96,192,1.0,63.0
31,67.0,0,96,0.0,79.0
32,43.0,96,160,1.0,63.0
33,71.0,96,96,0.0,75.0
34,74.0,96,96,0.0,71.0
35,77.0,96,94,0.0,67.0
36,75.0,0,96,0.0,63.0
37,48.0,96,192,1.0,63.0
38,72.0,96,96,0.0,64.0
39,67.0,0,96,0.0,65.0
40,60.0,96,192,1.0,66.0
41,72.0,96,96,0.0,66.0
42,76.0,96,96,0.0,68.0
43,58.0,0,192,1.0,69.0
44,72.0,96,96,0.0,70.0
45,77.0,0,96,0.0,72.0
46,72.0,96,96,0.0,74.0
47,56.0,96,192,1.0,72.0
48,79.0,96,96,0.0,76.0
49,55.0,0,192,1.0,76.0
50,72.0,96,96,0.0,78.0
51,80.0,0,96,0.0,80.0
52,53.0,96,160,1.0,80.0
53,72.0,96,94,0.0,82.0
54,74.0,96,96,0.0,63.0
55,70.0,96,96,0.0,64.0
56,46.0,0,192,1.0,63.0
57,65.0,0,96,0.0,65.0
58,58.0,96,192,1.0,66.0
59,70.0,96,96,0.0,66.0
60,74.0,96,96,0.0,68.0
61,70.0,96,96,0.0,70.0
62,56.0,0,192,1.0,69.0
63,75.0,0,96,0.0,72.0
64,70.0,96,96,0.0,74.0
65,55.0,96,192,1.0,72.0
66,77.0,96,96,0.0,76.0
67,53.0,0,192,1.0,76.0
68,70.0,96,96,0.0,78.0
69,79.0,0,96,0.0,80.0
70,51.0,96,160,1.0,80.0
71,70.0,96,94,0.0,82.0
72,72.0,96,96,0.0,63.0
73,56.0,0,192,1.0,63.0
74,68.0,96,96,0.0,63.0
75,67.0,96,96,0.0,63.0
76,60.0,0,160,1.0,63.0
77,68.0,96,96,0.0,63.0
78,72.0,96,96,0.0,63.0
79,53.0,0,160,1.0,63.0
80,75.0,96,94,0.0,63.0
81,70.0,0,96,0.0,63.0
82,55.0,96,192,1.0,63.0
83,67.0,96,96,0.0,63.0
84,65.0,96,96,0.0,63.0
85,58.0,0,160,1.0,63.0
86,67.0,96,96,0.0,63.0
87,70.0,96,96,0.0,63.0
88,51.0,0,160,1.0,63.0
89,75.0,96,94,0.0,63.0
90,68.0,96,96,0.0,63.0
91,53.0,0,192,1.0,63.0
92,67.0,96,96,0.0,63.0
93,65.0,96,96,0.0,63.0
94,56.0,0,192,1.0,63.0
95,67.0,96,96,0.0,63.0
96,68.0,96,96,0.0,63.0
97,53.0,0,192,1.0,63.0
98,63.0,96,96,0.0,63.0
99,62.0,96,96,0.0,63.0
100,63.0,96,96,0.0,63.0
101,58.0,0,192,1.0,63.0
102,65.0,96,96,0.0,63.0
103,62.0,96,96,0.0,63.0
104,46.0,0,192,1.0,63.0
105,58.0,0,96,0.0,63.0
106,56.0,96,94,0.0,63.0
107,50.0,96,192,1.0,63.0
108,55.0,0,96,0.0,63.0
109,51.0,96,192,1.0,63.0
110,58.0,96,96,0.0,63.0
111,63.0,0,96,0.0,63.0
112,39.0,96,160,1.0,63.0
113,58.0,96,96,0.0,63.0
114,55.0,96,96,0.0,63.0
115,58.0,96,94,0.0,63.0
116,49.0,0,192,1.0,63.0
117,56.0,0,96,0.0,63.0
118,63.0,96,96,0.0,64.0
119,48.0,96,192,1.0,63.0
120,58.0,96,96,0.0,65.0
121,63.0,96,96,0.0,66.0
122,46.0,0,192,1.0,66.0
123,60.0,96,96,0.0,68.0
124,44.0,0,192,1.0,69.0
125,63.0,96,96,0.0,70.0
126,58.0,0,96,0.0,72.0
127,43.0,96,192,1.0,72.0
128,63.0,96,96,0.0,74.0
129,60.0,0,96,0.0,76.0
130,63.0,96,96,0.0,78.0
131,41.0,96,192,1.0,76.0
132,61.0,96,96,0.0,80.0
133,63.0,96,94,0.0,82.0
134,39.0,0,192,1.0,80.0
135,44.0,0,94,1.0,63.0
136,60.0,96,160,0.0,63.0
137,51.0,96,96,1.0,65.0
138,56.0,0,96,1.0,67.0
139,63.0,96,160,0.0,67.0
140,55.0,96,96,1.0,69.0
141,53.0,0,96,1.0,71.0
142,51.0,96,96,1.0,73.0
143,50.0,96,96,1.0,75.0
144,68.0,96,352,0.0,71.0
145,53.0,96,96,1.0,77.0
146,58.0,0,96,1.0,79.0
147,65.0,96,160,0.0,80.0
148,56.0,96,96,1.0,81.0
149,55.0,0,96,1.0,83.0
150,53.0,96,96,1.0,85.0
151,55.0,96,96,1.0,87.0
152,74.0,96,352,0.0,85.0
153,58.0,96,96,1.0,90.0
154,63.0,96,96,1.0,93.0
155,70.0,0,160,0.0,95.0
156,61.0,96,96,1.0,96.0
157,60.0,0,96,1.0,99.0
158,58.0,96,96,1.0,102.0
159,79.0,96,286,0.0,100.0
160,56.0,96,160,1.0,105.0
161,77.0,96,96,0.0,102.0
162,75.0,96,96,0.0,99.0
163,58.0,0,160,1.0,98.0
164,74.0,96,96,0.0,96.0
165,72.0,0,96,0.0,93.0
166,46.0,96,160,1.0,91.0
167,74.0,96,96,0.0,90.0
168,70.0,96,96,0.0,83.0
169,51.0,96,288,1.0,84.0
170,58.0,96,96,1.0,74.0
171,75.0,0,528,0.0,87.0
172,67.0,96,336,0.0,79.0
173,63.0,96,160,1.0,71.0
174,72.0,0,96,0.0,63.0
175,74.0,96,96,0.0,63.0
176,48.0,192,192,1.0,63.0
177,75.0,96,96,0.0,63.0
178,67.0,96,96,0.0,63.0
179,60.0,0,192,1.0,63.0
180,74.0,96,96,0.0,63.0
181,55.0,0,192,1.0,63.0
182,65.0,96,96,0.0,63.0
183,65.0,0,48,0.0,63.0
184,63.0,48,48,0.0,63.0
185,56.0,96,192,1.0,63.0
186,62.0,48,96,0.0,63.0
187,60.0,0,96,0.0,63.0
188,44.0,96,160,1.0,63.0
189,63.0,96,96,0.0,63.0
190,67.0,96,96,0.0,63.0
191,72.0,96,94,0.0,63.0
192,65.0,0,96,0.0,63.0
193,75.0,96,96,0.0,66.0
194,56.0,96,192,1.0,63.0
195,74.0,0,96,0.0,69.0
196,53.0,96,192,1.0,63.0
197,77.0,96,96,0.0,72.0
198,80.0,96,96,0.0,76.0
199,50.0,0,192,1.0,63.0
200,72.0,96,96,0.0,80.0
201,72.0,96,48,0.0,84.0
202,71.0,48,48,0.0,83.0
203,55.0,0,192,1.0,63.0
204,69.0,48,96,0.0,82.0
205,67.0,0,96,0.0,79.0
206,43.0,96,160,1.0,63.0
207,71.0,96,96,0.0,75.0
208,74.0,96,96,0.0,71.0
209,77.0,96,94,0.0,67.0
210,75.0,96,96,0.0,63.0
211,72.0,96,96,0.0,64.0
212,48.0,0,192,1.0,63.0
213,67.0,0,96,0.0,65.0
214,60.0,96,192,1.0,66.0
215,72.0,96,96,0.0,66.0
216,76.0,96,96,0.0,68.0
217,58.0,0,192,1.0,69.0
218,72.0,96,96,0.0,70.0
219,77.0,96,96,0.0,72.0
220,56.0,0,192,1.0,72.0
221,72.0,96,96,0.0,74.0
222,79.0,0,96,0.0,76.0
223,72.0,96,96,0.0,78.0
224,55.0,96,192,1.0,76.0
225,80.0,96,96,0.0,80.0
226,53.0,0,160,1.0,80.0
227,72.0,96,94,0.0,82.0
228,74.0,0,96,0.0,63.0
229,46.0,96,192,1.0,63.0
230,70.0,96,96,0.0,64.0
231,65.0,96,96,0.0,65.0
232,70.0,96,96,0.0,66.0
233,58.0,0,192,1.0,66.0
234,74.0,96,96,0.0,68.0
235,56.0,0,192,1.0,69.0
236,70.0,96,96,0.0,70.0
237,75.0,0,96,0.0,72.0
238,55.0,96,192,1.0,72.0
239,70.0,96,96,0.0,74.0
240,77.0,0,96,0.0,76.0
241,53.0,96,192,1.0,76.0
242,70.0,96,96,0.0,78.0
243,79.0,0,96,0.0,80.0
244,51.0,96,160,1.0,80.0
245,70.0,96,94,0.0,82.0
246,72.0,0,96,0.0,63.0
247,68.0,96,96,0.0,63.0
248,56.0,96,192,1.0,63.0
249,67.0,0,96,0.0,63.0
250,60.0,96,160,1.0,63.0
251,68.0,96,96,0.0,63.0
252,72.0,96,96,0.0,63.0
253,53.0,0,160,1.0,63.0
254,75.0,96,94,0.0,63.0
255,70.0,96,96,0.0,63.0
256,67.0,96,96,0.0,63.0
257,55.0,0,192,1.0,63.0
258,65.0,96,96,0.0,63.0
259,58.0,0,160,1.0,63.0
260,67.0,96,96,0.0,63.0
261,70.0,0,96,0.0,63.0
262,51.0,96,160,1.0,63.0
263,75.0,96,94,0.0,63.0
264,68.0,96,96,0.0,63.0
265,67.0,96,96,0.0,63.0
266,53.0,0,192,1.0,63.0
267,65.0,96,96,0.0,63.0
268,67.0,96,96,0.0,63.0
269,56.0,0,192,1.0,63.0
270,68.0,0,96,0.0,63.0
271,53.0,96,192,1.0,63.0
272,63.0,96,96,0.0,63.0
273,62.0,0,96,0.0,63.0
274,63.0,96,96,0.0,63.0
275,58.0,96,192,1.0,63.0
276,65.0,96,96,0.0,63.0
277,62.0,96,96,0.0,63.0
278,46.0,0,192,1.0,63.0
279,58.0,96,96,0.0,63.0
280,56.0,96,94,0.0,63.0
281,50.0,0,192,1.0,63.0
282,55.0,0,96,0.0,63.0
283,58.0,96,96,0.0,63.0
284,51.0,96,192,1.0,63.0
285,63.0,0,96,0.0,63.0
286,39.0,96,160,1.0,63.0
287,58.0,96,96,0.0,63.0
288,55.0,96,96,0.0,63.0
289,58.0,96,94,0.0,63.0
290,49.0,0,192,1.0,63.0
291,56.0,0,96,0.0,63.0
292,63.0,96,96,0.0,64.0
293,48.0,96,192,1.0,63.0
294,58.0,96,96,0.0,65.0
295,46.0,0,192,1.0,66.0
296,63.0,96,96,0.0,66.0
297,60.0,0,96,0.0,68.0
298,44.0,96,192,1.0,69.0
299,63.0,96,96,0.0,70.0
300,58.0,96,96,0.0,72.0
301,43.0,0,192,1.0,72.0
302,63.0,96,96,0.0,74.0
303,60.0,0,96,0.0,76.0
304,63.0,96,96,0.0,78.0
305,41.0,96,192,1.0,76.0
306,61.0,0,96,0.0,80.0
307,63.0,96,94,0.0,82.0
308,39.0,96,192,1.0,80.0
309,44.0,96,94,1.0,63.0
310,60.0,0,160,0.0,63.0
311,51.0,96,96,1.0,65.0
312,56.0,96,96,1.0,67.0
313,63.0,0,160,0.0,67.0
314,55.0,96,96,1.0,69.0
315,53.0,96,96,1.0,71.0
316,51.0,96,96,1.0,73.0
317,50.0,96,96,1.0,75.0
318,68.0,0,352,0.0,71.0
319,53.0,96,96,1.0,77.0
320,58.0,0,96,1.0,79.0
321,65.0,96,160,0.0,80.0
322,56.0,96,96,1.0,81.0
323,55.0,96,96,1.0,83.0
324,53.0,96,96,1.0,85.0
325,55.0,96,96,1.0,87.0
326,74.0,0,352,0.0,85.0
327,58.0,96,96,1.0,90.0
328,63.0,96,96,1.0,93.0
329,70.0,0,160,0.0,95.0
330,61.0,96,96,1.0,96.0
331,60.0,0,96,1.0,99.0
332,58.0,96,96,1.0,102.0
333,79.0,96,286,0.0,100.0
334,56.0,96,160,1.0,105.0
335,77.0,96,96,0.0,102.0
336,75.0,96,96,0.0,99.0
337,58.0,0,160,1.0,98.0
338,74.0,96,96,0.0,96.0
339,72.0,96,96,0.0,93.0
340,46.0,0,160,1.0,91.0
341,74.0,96,96,0.0,90.0
342,70.0,96,96,0.0,83.0
343,51.0,0,288,1.0,84.0
344,58.0,96,96,1.0,74.0
345,75.0,96,528,0.0,87.0
346,67.0,96,336,0.0,79.0
347,63.0,96,160,1.0,71.0
348,79.0,192,96,0.0,63.0
349,51.0,0,192,1.0,63.0
350,80.0,96,96,0.0,63.0
351,82.0,96,96,0.0,63.0
352,63.0,0,192,1.0,63.0
353,79.0,96,96,0.0,63.0
354,82.0,0,96,0.0,63.0
355,61.0,96,192,1.0,63.0
356,77.0,96,96,0.0,63.0
357,76.0,0,96,0.0,63.0
358,74.0,96,96,0.0,63.0
359,60.0,96,192,1.0,63.0
360,72.0,96,96,0.0,63.0
361,76.0,96,96,0.0,63.0
362,52.0,0,192,1.0,63.0
363,79.0,0,96,0.0,63.0
364,82.0,96,94,0.0,63.0
365,48.0,96,192,1.0,63.0
366,80.0,0,96,0.0,63.0
367,53.0,96,160,1.0,63.0
368,77.0,96,96,0.0,63.0
369,73.0,0,96,0.0,63.0
370,79.0,96,96,0.0,63.0
371,46.0,96,192,1.0,63.0
372,76.0,0,96,0.0,63.0
373,72.0,96,96,0.0,63.0
374,48.0,96,192,1.0,63.0
375,70.0,96,96,0.0,63.0
376,67.0,96,96,0.0,63.0
377,41.0,0,192,1.0,63.0
378,68.0,96,96,0.0,63.0
379,53.0,0,192,1.0,63.0
380,72.0,96,96,0.0,63.0
381,77.0,0,96,0.0,63.0
382,69.0,96,94,0.0,63.0
383,51.0,96,192,1.0,63.0
384,70.0,96,96,0.0,63.0
385,74.0,96,96,0.0,64.0
386,50.0,0,192,1.0,63.0
387,77.0,96,96,0.0,65.0
388,48.0,0,192,1.0,66.0
389,80.0,96,96,0.0,66.0
390,79.0,96,96,0.0,67.0
391,77.0,96,96,0.0,68.0
392,50.0,0,192,1.0,69.0
393,79.0,96,96,0.0,69.0
394,51.0,0,160,1.0,72.0
395,75.0,96,96,0.0,71.0
396,74.0,96,96,0.0,73.0
397,72.0,96,96,0.0,75.0
398,63.0,0,192,1.0,75.0
399,71.0,0,96,0.0,77.0
400,77.0,96,94,0.0,79.0
401,62.0,96,192,1.0,78.0
402,75.0,0,96,0.0,81.0
403,74.0,96,96,0.0,83.0
404,60.0,96,192,1.0,81.0
405,72.0,96,96,0.0,85.0
406,75.0,96,96,0.0,87.0
407,57.0,0,192,1.0,85.0
408,69.0,96,96,0.0,89.0
409,67.0,96,96,0.0,91.0
410,60.0,0,192,1.0,89.0
411,66.0,0,96,0.0,93.0
412,62.0,96,160,1.0,93.0
413,67.0,96,96,0.0,95.0
414,69.0,0,96,0.0,97.0
415,50.0,96,192,1.0,97.0
416,66.0,96,96,0.0,99.0
417,62.0,0,96,0.0,101.0
418,69.0,96,94,0.0,103.0
419,48.0,96,192,1.0,101.0
420,74.0,0,96,0.0,105.0
421,46.0,96,192,1.0,105.0
422,67.0,96,96,0.0,105.0
423,66.0,0,96,0.0,105.0
424,72.0,96,96,0.0,105.0
425,45.0,96,192,1.0,105.0
426,70.0,96,96,0.0,105.0
427,43.0,0,192,1.0,105.0
428,67.0,96,96,0.0,105.0
429,60.0,0,96,0.0,105.0
430,51.0,96,160,1.0,105.0
431,66.0,96,96,0.0,105.0
432,67.0,0,96,0.0,105.0
433,50.0,96,192,1.0,105.0
434,69.0,96,96,0.0,101.0
435,63.0,96,96,0.0,97.0
436,60.0,96,96,0.0,93.0
437,48.0,0,192,1.0,97.0
438,58.0,96,96,0.0,89.0
439,50.0,0,192,1.0,89.0
440,62.0,96,96,0.0,85.0
441,66.0,0,96,0.0,81.0
442,48.0,96,192,1.0,81.0
443,67.0,96,96,0.0,77.0
444,57.0,0,96,0.0,73.0
445,66.0,96,94,0.0,68.0
446,50.0,96,192,1.0,72.0
447,43.0,96,94,1.0,63.0
448,67.0,0,160,0.0,63.0
449,50.0,96,96,1.0,68.0
450,70.0,96,22,0.0,84.0
451,69.0,24,22,0.0,84.0
452,55.0,0,96,1.0,73.0
453,58.0,48,96,1.0,78.0
454,61.0,96,96,1.0,84.0
455,53.0,96,96,1.0,79.0
456,70.0,24,430,0.0,84.0
457,73.0,96,94,0.0,84.0
458,52.0,96,192,1.0,74.0
459,76.0,96,96,0.0,63.0
460,72.0,96,96,0.0,68.0
461,48.0,0,192,1.0,63.0
462,79.0,96,96,0.0,73.0
463,70.0,96,96,0.0,78.0
464,52.0,0,192,1.0,73.0
465,53.0,96,96,1.0,84.0
466,68.0,0,96,0.0,84.0
467,70.0,0,96,0.0,81.0
468,55.0,96,96,1.0,81.0
469,72.0,0,96,0.0,78.0
470,56.0,96,160,1.0,78.0
471,68.0,96,96,0.0,75.0
472,65.0,96,96,0.0,71.0
473,64.0,96,94,0.0,67.0
474,65.0,96,96,0.0,63.0
475,47.0,0,160,1.0,63.0
476,68.0,96,96,0.0,66.0
477,71.0,96,96,0.0,69.0
478,43.0,0,192,1.0,70.0
479,67.0,96,96,0.0,72.0
480,74.0,0,96,0.0,76.0
481,47.0,96,192,1.0,77.0
482,65.0,96,96,0.0,80.0
483,48.0,96,96,1.0,84.0
484,63.0,0,96,0.0,84.0
485,65.0,0,96,0.0,81.0
486,50.0,96,96,1.0,81.0
487,67.0,96,96,0.0,78.0
488,51.0,0,160,1.0,78.0
489,63.0,96,96,0.0,75.0
490,60.0,96,96,0.0,71.0
491,59.0,96,94,0.0,67.0
492,60.0,0,96,0.0,63.0
493,42.0,96,160,1.0,63.0
494,63.0,96,96,0.0,66.0
495,66.0,0,96,0.0,69.0
496,62.0,96,96,0.0,72.0
497,38.0,96,192,1.0,70.0
498,69.0,0,96,0.0,75.0
499,42.0,96,192,1.0,77.0
500,60.0,96,96,0.0,78.0
501,59.0,0,96,0.0,81.0
502,62.0,96,96,0.0,85.0
503,43.0,96,192,1.0,84.0
504,65.0,0,96,0.0,89.0
505,68.0,96,96,0.0,93.0
506,50.0,96,192,1.0,91.0
507,67.0,96,96,0.0,97.0
508,51.0,0,160,1.0,98.0
509,71.0,96,96,0.0,101.0
510,74.0,96,96,0.0,105.0
511,77.0,96,96,0.0,102.0
512,44.0,0,192,1.0,105.0
513,75.0,96,96,0.0,99.0
514,41.0,0,160,1.0,98.0
515,72.0,96,96,0.0,96.0
516,67.0,0,96,0.0,93.0
517,43.0,96,160,1.0,91.0
518,71.0,96,96,0.0,90.0
519,67.0,96,94,0.0,83.0
520,48.0,96,288,1.0,84.0
521,55.0,96,96,1.0,74.0
522,63.0,96,336,0.0,79.0
523,72.0,0,528,0.0,87.0
524,60.0,96,160,1.0,71.0
525,79.0,0,96,0.0,63.0
526,80.0,96,96,0.0,63.0
527,51.0,192,192,1.0,63.0
528,82.0,96,96,0.0,63.0
529,63.0,0,192,1.0,63.0
530,79.0,96,96,0.0,63.0
531,82.0,0,96,0.0,63.0
532,61.0,96,192,1.0,63.0
533,77.0,96,96,0.0,63.0
534,76.0,0,96,0.0,63.0
535,60.0,96,192,1.0,63.0
536,74.0,96,96,0.0,63.0
537,72.0,0,96,0.0,63.0
538,52.0,96,192,1.0,63.0
539,76.0,96,96,0.0,63.0
540,79.0,96,96,0.0,63.0
541,82.0,96,94,0.0,63.0
542,48.0,0,192,1.0,63.0
543,80.0,0,96,0.0,63.0
544,53.0,96,160,1.0,63.0
545,77.0,96,96,0.0,63.0
546,73.0,96,96,0.0,63.0
547,79.0,96,96,0.0,63.0
548,46.0,0,192,1.0,63.0
549,76.0,96,96,0.0,63.0
550,72.0,96,96,0.0,63.0
551,48.0,0,192,1.0,63.0
552,70.0,96,96,0.0,63.0
553,67.0,96,96,0.0,63.0
554,41.0,0,192,1.0,63.0
555,68.0,96,96,0.0,63.0
556,72.0,96,96,0.0,63.0
557,53.0,0,192,1.0,63.0
558,77.0,0,96,0.0,63.0
559,69.0,96,94,0.0,63.0
560,51.0,96,192,1.0,63.0
561,70.0,0,96,0.0,63.0
562,74.0,96,96,0.0,64.0
563,50.0,96,192,1.0,63.0
564,77.0,96,96,0.0,65.0
565,48.0,0,192,1.0,66.0
566,80.0,96,96,0.0,66.0
567,79.0,96,96,0.0,67.0
568,77.0,96,96,0.0,68.0
569,50.0,0,192,1.0,69.0
570,79.0,0,96,0.0,69.0
571,51.0,96,160,1.0,72.0
572,75.0,96,96,0.0,71.0
573,74.0,0,96,0.0,73.0
574,72.0,96,96,0.0,75.0
575,63.0,96,192,1.0,75.0
576,71.0,96,96,0.0,77.0
577,77.0,96,94,0.0,79.0
578,62.0,0,192,1.0,78.0
579,75.0,0,96,0.0,81.0
580,60.0,96,192,1.0,81.0
581,74.0,96,96,0.0,83.0
582,72.0,0,96,0.0,85.0
583,57.0,96,192,1.0,85.0
584,75.0,96,96,0.0,87.0
585,69.0,0,96,0.0,89.0
586,67.0,96,96,0.0,91.0
587,60.0,96,192,1.0,89.0
588,66.0,96,96,0.0,93.0
589,62.0,0,160,1.0,93.0
590,67.0,96,96,0.0,95.0
591,69.0,96,96,0.0,97.0
592,50.0,0,192,1.0,97.0
593,66.0,96,96,0.0,99.0
594,62.0,0,96,0.0,101.0
595,69.0,96,94,0.0,103.0
596,48.0,96,192,1.0,101.0
597,74.0,96,96,0.0,105.0
598,46.0,0,192,1.0,105.0
599,67.0,96,96,0.0,105.0
600,66.0,96,96,0.0,105.0
601,45.0,0,192,1.0,105.0
602,72.0,96,96,0.0,105.0
603,70.0,0,96,0.0,105.0
604,43.0,96,192,1.0,105.0
605,67.0,96,96,0.0,105.0
606,60.0,0,96,0.0,105.0
607,51.0,96,160,1.0,105.0
608,66.0,96,96,0.0,105.0
609,67.0,96,96,0.0,105.0
610,69.0,96,96,0.0,101.0
611,50.0,0,192,1.0,105.0
612,63.0,96,96,0.0,97.0
613,60.0,96,96,0.0,93.0
614,48.0,0,192,1.0,97.0
615,58.0,96,96,0.0,89.0
616,50.0,0,192,1.0,89.0
617,62.0,96,96,0.0,85.0
618,66.0,0,96,0.0,81.0
619,48.0,96,192,1.0,81.0
620,67.0,96,96,0.0,77.0
621,57.0,0,96,0.0,73.0
622,66.0,96,94,0.0,68.0
623,50.0,96,192,1.0,72.0
624,43.0,96,94,1.0,63.0
625,67.0,0,160,0.0,63.0
626,50.0,96,96,1.0,68.0
627,70.0,96,22,0.0,84.0
628,69.0,24,22,0.0,84.0
629,55.0,0,96,1.0,73.0
630,58.0,48,96,1.0,78.0
631,61.0,96,96,1.0,84.0
632,53.0,96,96,1.0,79.0
633,70.0,24,430,0.0,84.0
634,73.0,96,94,0.0,84.0
635,52.0,96,192,1.0,74.0
636,76.0,96,96,0.0,63.0
637,72.0,96,96,0.0,68.0
638,48.0,0,192,1.0,63.0
639,79.0,96,96,0.0,73.0
640,52.0,0,192,1.0,73.0
641,70.0,96,96,0.0,78.0
642,53.0,96,96,1.0,84.0
643,68.0,0,96,0.0,84.0
644,70.0,0,96,0.0,81.0
645,55.0,96,96,1.0,81.0
646,72.0,0,96,0.0,78.0
647,56.0,96,160,1.0,78.0
648,68.0,96,96,0.0,75.0
649,65.0,96,96,0.0,71.0
650,64.0,96,94,0.0,67.0
651,65.0,96,96,0.0,63.0
652,47.0,0,160,1.0,63.0
653,68.0,96,96,0.0,66.0
654,71.0,0,96,0.0,69.0
655,67.0,96,96,0.0,72.0
656,43.0,96,192,1.0,70.0
657,74.0,96,96,0.0,76.0
658,47.0,0,192,1.0,77.0
659,65.0,96,96,0.0,80.0
660,63.0,96,96,0.0,84.0
661,48.0,0,96,1.0,84.0
662,65.0,96,96,0.0,81.0
663,50.0,0,96,1.0,81.0
664,67.0,0,96,0.0,78.0
665,51.0,96,160,1.0,78.0
666,63.0,96,96,0.0,75.0
667,60.0,96,96,0.0,71.0
668,59.0,96,94,0.0,67.0
669,60.0,0,96,0.0,63.0
670,42.0,96,160,1.0,63.0
671,63.0,96,96,0.0,66.0
672,66.0,96,96,0.0,69.0
673,62.0,96,96,0.0,72.0
674,38.0,0,192,1.0,70.0
675,69.0,96,96,0.0,75.0
676,42.0,0,192,1.0,77.0
677,60.0,96,96,0.0,78.0
678,59.0,0,96,0.0,81.0
679,43.0,96,192,1.0,84.0
680,62.0,96,96,0.0,85.0
681,65.0,0,96,0.0,89.0
682,50.0,96,192,1.0,91.0
683,68.0,96,96,0.0,93.0
684,67.0,96,96,0.0,97.0
685,51.0,0,160,1.0,98.0
686,71.0,96,96,0.0,101.0
687,74.0,96,96,0.0,105.0
688,44.0,0,192,1.0,105.0
689,77.0,96,96,0.0,102.0
690,75.0,96,96,0.0,99.0
691,41.0,0,160,1.0,98.0
692,72.0,96,96,0.0,96.0
693,67.0,96,96,0.0,93.0
694,43.0,0,160,1.0,91.0
695,71.0,96,96,0.0,90.0
696,67.0,96,94,0.0,83.0
697,48.0,0,288,1.0,84.0
698,55.0,96,96,1.0,74.0
699,63.0,96,336,0.0,79.0
700,72.0,96,528,0.0,87.0
701,60.0,96,160,1.0,71.0
