,note,step,duration,channel,velocity
0,69.0,87,90,0.0,0.0
1,71.0,87,90,0.0,0.0
2,73.0,88,90,0.0,0.0
3,74.0,87,90,0.0,0.0
4,76.0,87,90,0.0,0.0
5,78.0,87,90,0.0,0.0
6,79.0,174,90,0.0,0.0
7,81.0,1,180,0.0,0.0
8,76.0,173,90,0.0,0.0
9,78.0,1,180,0.0,0.0
10,81.0,1,180,0.0,0.0
11,73.0,173,90,0.0,0.0
12,74.0,1,180,0.0,0.0
13,78.0,173,180,0.0,0.0
14,81.0,0,180,0.0,0.0
15,67.0,0,90,0.0,0.0
16,78.0,0,180,0.0,0.0
17,74.0,1,180,0.0,0.0
18,81.0,0,180,0.0,0.0
19,69.0,1,180,0.0,0.0
20,64.0,110,90,0.0,0.0
21,78.0,0,690,0.0,0.0
22,81.0,29,690,0.0,0.0
23,66.0,93,120,0.0,0.0
24,74.0,0,690,0.0,0.0
25,69.0,32,360,0.0,0.0
26,62.0,88,90,0.0,0.0
27,64.0,55,90,0.0,0.0
28,66.0,87,90,0.0,0.0
29,67.0,87,90,0.0,0.0
30,69.0,88,90,0.0,0.0
31,71.0,58,90,0.0,0.0
32,73.0,173,90,0.0,0.0
33,74.0,1,180,0.0,0.0
34,67.0,174,90,0.0,0.0
35,74.0,173,180,0.0,0.0
36,69.0,1,180,0.0,0.0
37,64.0,0,90,0.0,0.0
38,74.0,0,180,0.0,0.0
39,69.0,1,180,0.0,0.0
40,66.0,1,180,0.0,0.0
41,61.0,87,90,0.0,0.0
42,69.0,0,180,0.0,0.0
43,62.0,87,90,0.0,0.0
44,74.0,0,180,0.0,0.0
45,66.0,128,180,0.0,0.0
46,61.0,0,90,0.0,0.0
47,66.0,47,360,0.0,0.0
48,69.0,44,600,0.0,0.0
49,74.0,44,690,0.0,0.0
50,62.0,90,120,0.0,0.0
51,57.0,88,90,0.0,0.0
52,59.0,40,90,0.0,0.0
53,61.0,87,90,0.0,0.0
54,62.0,87,90,0.0,0.0
55,64.0,44,90,0.0,0.0
56,66.0,43,90,0.0,0.0
57,67.0,173,90,0.0,0.0
58,69.0,1,180,0.0,0.0
59,64.0,174,90,0.0,0.0
60,66.0,1,180,0.0,0.0
61,69.0,173,180,0.0,0.0
62,61.0,0,90,0.0,0.0
63,62.0,1,180,0.0,0.0
64,69.0,0,180,0.0,0.0
65,66.0,1,180,0.0,0.0
66,55.0,173,90,0.0,0.0
67,57.0,1,180,0.0,0.0
68,66.0,15,180,0.0,0.0
69,69.0,0,180,0.0,0.0
70,62.0,0,180,0.0,0.0
71,52.0,104,90,0.0,0.0
72,62.0,30,600,0.0,0.0
73,66.0,0,690,0.0,0.0
74,57.0,32,360,0.0,0.0
75,69.0,29,690,0.0,0.0
76,54.0,85,120,0.0,0.0
77,50.0,87,90,0.0,0.0
78,52.0,55,90,0.0,0.0
79,54.0,88,90,0.0,0.0
80,55.0,87,90,0.0,0.0
81,57.0,57,90,0.0,0.0
82,59.0,58,90,0.0,0.0
83,61.0,174,90,0.0,0.0
84,62.0,1,180,0.0,0.0
85,55.0,173,90,0.0,0.0
86,57.0,1,180,0.0,0.0
87,62.0,0,180,0.0,0.0
88,52.0,174,90,0.0,0.0
89,54.0,1,180,0.0,0.0
90,62.0,0,180,0.0,0.0
91,57.0,0,180,0.0,0.0
92,49.0,87,90,0.0,0.0
93,50.0,87,90,0.0,0.0
94,57.0,0,180,0.0,0.0
95,62.0,1,180,0.0,0.0
96,54.0,0,180,0.0,0.0
97,49.0,128,90,0.0,0.0
98,54.0,46,360,0.0,0.0
99,62.0,43,690,0.0,0.0
100,57.0,44,600,0.0,0.0
101,50.0,90,120,0.0,0.0
102,45.0,87,90,0.0,0.0
103,47.0,41,90,0.0,0.0
104,49.0,88,90,0.0,0.0
105,50.0,87,90,0.0,0.0
106,52.0,43,90,0.0,0.0
107,54.0,44,90,0.0,0.0
108,55.0,174,90,0.0,0.0
109,57.0,1,180,0.0,0.0
110,52.0,173,90,0.0,0.0
111,57.0,0,180,0.0,0.0
112,54.0,1,180,0.0,0.0
113,49.0,174,90,0.0,0.0
114,54.0,173,180,0.0,0.0
115,57.0,0,180,0.0,0.0
116,50.0,1,180,0.0,0.0
117,43.0,0,90,0.0,0.0
118,45.0,1,180,0.0,0.0
119,57.0,0,180,0.0,0.0
120,54.0,0,180,0.0,0.0
121,50.0,1,180,0.0,0.0
122,40.0,58,90,0.0,0.0
123,45.0,29,240,0.0,0.0
124,54.0,29,450,0.0,0.0
125,50.0,28,450,0.0,0.0
126,57.0,40,570,0.0,0.0
127,42.0,73,60,0.0,0.0
128,38.0,72,60,0.0,0.0
129,40.0,29,60,0.0,0.0
130,42.0,59,60,0.0,0.0
131,43.0,58,60,0.0,0.0
132,45.0,58,60,0.0,0.0
133,47.0,1,60,0.0,0.0
134,49.0,58,60,0.0,0.0
135,50.0,19,60,0.0,0.0
136,52.0,58,60,0.0,0.0
137,54.0,58,60,0.0,0.0
138,55.0,58,60,0.0,0.0
139,57.0,58,60,0.0,0.0
140,59.0,58,60,0.0,0.0
141,61.0,59,60,0.0,0.0
142,62.0,173,60,0.0,0.0
143,54.0,16,180,0.0,0.0
144,57.0,14,300,0.0,0.0
145,50.0,58,60,0.0,0.0
146,52.0,44,60,0.0,0.0
147,54.0,58,60,0.0,0.0
148,55.0,58,60,0.0,0.0
149,57.0,59,60,0.0,0.0
150,59.0,58,60,0.0,0.0
151,61.0,58,60,0.0,0.0
152,62.0,58,60,0.0,0.0
153,64.0,58,60,0.0,0.0
154,66.0,59,60,0.0,0.0
155,67.0,58,60,0.0,0.0
156,69.0,58,60,0.0,0.0
157,71.0,58,60,0.0,0.0
158,73.0,58,60,0.0,0.0
159,74.0,866,60,0.0,0.0
160,44.0,205,870,0.0,0.0
161,76.0,2,870,0.0,0.0
162,71.0,3,840,0.0,0.0
163,62.0,437,780,0.0,0.0
164,56.0,29,510,0.0,0.0
165,52.0,71,90,0.0,0.0
166,54.0,77,60,0.0,0.0
167,56.0,76,60,0.0,0.0
168,57.0,76,60,0.0,0.0
169,59.0,76,60,0.0,0.0
170,61.0,190,60,0.0,0.0
171,62.0,117,180,0.0,0.0
172,64.0,52,120,0.0,0.0
173,44.0,34,150,0.0,0.0
174,59.0,0,60,0.0,0.0
175,62.0,50,60,0.0,0.0
176,52.0,37,90,0.0,0.0
177,64.0,50,60,0.0,0.0
178,44.0,26,90,0.0,0.0
179,52.0,43,90,0.0,0.0
180,59.0,0,60,0.0,0.0
181,62.0,50,60,0.0,0.0
182,64.0,56,60,0.0,0.0
183,44.0,18,120,0.0,0.0
184,62.0,0,60,0.0,0.0
185,59.0,56,60,0.0,0.0
186,52.0,7,120,0.0,0.0
187,44.0,8,120,0.0,0.0
188,64.0,56,60,0.0,0.0
189,52.0,7,120,0.0,0.0
190,62.0,56,60,0.0,0.0
191,59.0,0,60,0.0,0.0
192,44.0,7,120,0.0,0.0
193,64.0,56,60,0.0,0.0
194,52.0,6,120,0.0,0.0
195,62.0,56,60,0.0,0.0
196,59.0,0,60,0.0,0.0
197,44.0,7,120,0.0,0.0
198,64.0,56,60,0.0,0.0
199,52.0,7,120,0.0,0.0
200,59.0,0,60,0.0,0.0
201,62.0,56,60,0.0,0.0
202,64.0,303,60,0.0,0.0
203,44.0,322,360,0.0,0.0
204,52.0,586,690,0.0,0.0
205,62.0,17,690,0.0,0.0
206,59.0,58,630,0.0,0.0
207,69.0,108,120,0.0,0.0
208,68.0,107,120,0.0,0.0
209,66.0,123,120,0.0,0.0
210,64.0,124,120,0.0,0.0
211,62.0,125,120,0.0,0.0
212,61.0,124,120,0.0,0.0
213,59.0,124,120,0.0,0.0
214,61.0,125,120,0.0,0.0
215,62.0,208,120,0.0,0.0
216,64.0,40,210,0.0,0.0
217,59.0,209,120,0.0,0.0
218,61.0,40,210,0.0,0.0
219,56.0,208,120,0.0,0.0
220,57.0,20,210,0.0,0.0
221,52.0,211,90,0.0,0.0
222,49.0,108,210,0.0,0.0
223,45.0,3,3000,0.0,0.0
224,49.0,740,90,0.0,0.0
225,52.0,15,2760,0.0,0.0
226,57.0,24,2670,0.0,0.0
227,69.0,214,420,0.0,0.0
228,59.0,0,420,0.0,0.0
229,62.0,5,420,0.0,0.0
230,68.0,1816,210,0.0,0.0
231,69.0,1483,1860,0.0,0.0
232,64.0,10,1860,0.0,0.0
233,61.0,10,1830,0.0,0.0
234,64.0,49,180,0.0,0.0
235,49.0,143,240,0.0,0.0
236,52.0,192,180,0.0,0.0
237,54.0,49,180,0.0,0.0
238,50.0,143,240,0.0,0.0
239,62.0,192,180,0.0,0.0
240,52.0,143,240,0.0,0.0
241,56.0,49,180,0.0,0.0
242,64.0,281,180,0.0,0.0
243,61.0,3,390,0.0,0.0
244,57.0,7,270,0.0,0.0
245,59.0,93,90,0.0,0.0
246,57.0,192,90,0.0,0.0
247,69.0,49,180,0.0,0.0
248,62.0,143,240,0.0,0.0
249,54.0,0,240,0.0,0.0
250,57.0,192,180,0.0,0.0
251,59.0,49,180,0.0,0.0
252,64.0,143,240,0.0,0.0
253,55.0,0,240,0.0,0.0
254,67.0,192,180,0.0,0.0
255,61.0,49,180,0.0,0.0
256,57.0,0,240,0.0,0.0
257,64.0,143,240,0.0,0.0
258,69.0,192,180,0.0,0.0
259,62.0,7,270,0.0,0.0
260,50.0,3,390,0.0,0.0
261,66.0,89,180,0.0,0.0
262,64.0,93,90,0.0,0.0
263,62.0,192,90,0.0,0.0
264,76.0,49,180,0.0,0.0
265,69.0,0,240,0.0,0.0
266,61.0,143,240,0.0,0.0
267,64.0,192,180,0.0,0.0
268,62.0,0,240,0.0,0.0
269,71.0,143,240,0.0,0.0
270,66.0,49,180,0.0,0.0
271,74.0,192,180,0.0,0.0
272,68.0,49,180,0.0,0.0
273,71.0,143,240,0.0,0.0
274,64.0,0,240,0.0,0.0
275,76.0,281,180,0.0,0.0
276,69.0,7,270,0.0,0.0
277,73.0,3,390,0.0,0.0
278,57.0,0,390,0.0,0.0
279,71.0,93,90,0.0,0.0
280,69.0,192,90,0.0,0.0
281,81.0,49,180,0.0,0.0
282,74.0,143,240,0.0,0.0
283,66.0,0,240,0.0,0.0
284,69.0,192,180,0.0,0.0
285,76.0,143,240,0.0,0.0
286,67.0,0,240,0.0,0.0
287,71.0,49,180,0.0,0.0
288,79.0,192,180,0.0,0.0
289,73.0,49,180,0.0,0.0
290,76.0,0,240,0.0,0.0
291,69.0,143,240,0.0,0.0
292,81.0,192,180,0.0,0.0
293,78.0,89,180,0.0,0.0
294,74.0,7,270,0.0,0.0
295,62.0,3,390,0.0,0.0
296,76.0,93,90,0.0,0.0
297,74.0,192,90,0.0,0.0
298,66.0,49,180,0.0,0.0
299,78.0,0,240,0.0,0.0
300,70.0,143,240,0.0,0.0
301,54.0,192,180,0.0,0.0
302,74.0,143,240,0.0,0.0
303,76.0,0,240,0.0,0.0
304,71.0,0,240,0.0,0.0
305,56.0,49,180,0.0,0.0
306,64.0,191,180,0.0,0.0
307,58.0,49,180,0.0,0.0
308,76.0,0,240,0.0,0.0
309,73.0,143,240,0.0,0.0
310,66.0,1,180,0.0,0.0
311,66.0,192,180,0.0,0.0
312,66.0,47,240,0.0,0.0
313,71.0,0,390,0.0,0.0
314,74.0,3,390,0.0,0.0
315,62.0,49,180,0.0,0.0
316,61.0,93,90,0.0,0.0
317,59.0,192,90,0.0,0.0
318,71.0,0,240,0.0,0.0
319,76.0,143,240,0.0,0.0
320,80.0,0,240,0.0,0.0
321,64.0,49,180,0.0,0.0
322,52.0,192,180,0.0,0.0
323,54.0,49,180,0.0,0.0
324,81.0,0,240,0.0,0.0
325,74.0,143,240,0.0,0.0
326,69.0,0,240,0.0,0.0
327,62.0,192,180,0.0,0.0
328,74.0,143,240,0.0,0.0
329,76.0,0,240,0.0,0.0
330,83.0,0,240,0.0,0.0
331,56.0,49,180,0.0,0.0
332,64.0,192,180,0.0,0.0
333,76.0,0,390,0.0,0.0
334,61.0,49,180,0.0,0.0
335,81.0,47,240,0.0,0.0
336,69.0,3,390,0.0,0.0
337,59.0,93,90,0.0,0.0
338,57.0,192,90,0.0,0.0
339,69.0,0,240,0.0,0.0
340,74.0,0,240,0.0,0.0
341,78.0,143,240,0.0,0.0
342,62.0,49,180,0.0,0.0
343,50.0,192,180,0.0,0.0
344,79.0,0,240,0.0,0.0
345,67.0,143,240,0.0,0.0
346,72.0,0,240,0.0,0.0
347,52.0,49,180,0.0,0.0
348,60.0,192,180,0.0,0.0
349,74.0,143,240,0.0,0.0
350,72.0,0,240,0.0,0.0
351,81.0,0,240,0.0,0.0
352,54.0,49,180,0.0,0.0
353,62.0,192,180,0.0,0.0
354,74.0,3,390,0.0,0.0
355,79.0,47,240,0.0,0.0
356,67.0,0,390,0.0,0.0
357,59.0,49,180,0.0,0.0
358,57.0,93,90,0.0,0.0
359,55.0,96,90,0.0,0.0
360,50.0,96,90,0.0,0.0
361,66.0,96,180,0.0,0.0
362,54.0,0,90,0.0,0.0
363,62.0,96,180,0.0,0.0
364,59.0,96,90,0.0,0.0
365,54.0,0,90,0.0,0.0
366,64.0,96,180,0.0,0.0
367,49.0,96,90,0.0,0.0
368,52.0,0,90,0.0,0.0
369,61.0,0,180,0.0,0.0
370,57.0,96,90,0.0,0.0
371,52.0,96,90,0.0,0.0
372,47.0,96,90,0.0,0.0
373,62.0,96,180,0.0,0.0
374,50.0,0,90,0.0,0.0
375,59.0,96,180,0.0,0.0
376,56.0,96,90,0.0,0.0
377,50.0,0,90,0.0,0.0
378,61.0,3,390,0.0,0.0
379,45.0,96,90,0.0,0.0
380,49.0,96,90,0.0,0.0
381,52.0,93,90,0.0,0.0
382,57.0,96,90,0.0,0.0
383,67.0,96,90,0.0,0.0
384,59.0,96,180,0.0,0.0
385,71.0,0,90,0.0,0.0
386,76.0,96,90,0.0,0.0
387,55.0,0,180,0.0,0.0
388,71.0,96,90,0.0,0.0
389,57.0,96,180,0.0,0.0
390,66.0,96,90,0.0,0.0
391,69.0,0,90,0.0,0.0
392,74.0,96,90,0.0,0.0
393,54.0,96,180,0.0,0.0
394,69.0,0,90,0.0,0.0
395,64.0,96,90,0.0,0.0
396,55.0,96,180,0.0,0.0
397,67.0,0,90,0.0,0.0
398,52.0,192,180,0.0,0.0
399,73.0,96,90,0.0,0.0
400,67.0,0,90,0.0,0.0
401,62.0,3,390,0.0,0.0
402,54.0,47,240,0.0,0.0
403,66.0,49,90,0.0,0.0
404,69.0,93,90,0.0,0.0
405,74.0,96,90,0.0,0.0
406,62.0,0,180,0.0,0.0
407,71.0,96,90,0.0,0.0
408,74.0,96,90,0.0,0.0
409,59.0,96,180,0.0,0.0
410,79.0,96,90,0.0,0.0
411,74.0,0,90,0.0,0.0
412,69.0,96,90,0.0,0.0
413,61.0,96,180,0.0,0.0
414,73.0,0,90,0.0,0.0
415,78.0,96,90,0.0,0.0
416,57.0,0,180,0.0,0.0
417,73.0,96,90,0.0,0.0
418,68.0,96,90,0.0,0.0
419,59.0,96,180,0.0,0.0
420,71.0,0,90,0.0,0.0
421,77.0,96,90,0.0,0.0
422,56.0,96,180,0.0,0.0
423,71.0,0,90,0.0,0.0
424,66.0,96,90,0.0,0.0
425,57.0,3,390,0.0,0.0
426,69.0,96,90,0.0,0.0
427,73.0,93,90,0.0,0.0
428,78.0,96,90,0.0,0.0
429,74.0,96,180,0.0,0.0
430,59.0,96,90,0.0,0.0
431,62.0,0,90,0.0,0.0
432,71.0,96,180,0.0,0.0
433,68.0,96,90,0.0,0.0
434,62.0,0,90,0.0,0.0
435,57.0,96,90,0.0,0.0
436,73.0,96,180,0.0,0.0
437,61.0,0,90,0.0,0.0
438,69.0,96,180,0.0,0.0
439,66.0,96,90,0.0,0.0
440,61.0,0,90,0.0,0.0
441,71.0,0,180,0.0,0.0
442,56.0,96,90,0.0,0.0
443,59.0,96,90,0.0,0.0
444,65.0,96,90,0.0,0.0
445,68.0,0,180,0.0,0.0
446,59.0,96,90,0.0,0.0
447,54.0,96,90,0.0,0.0
448,69.0,3,390,0.0,0.0
449,57.0,96,90,0.0,0.0
450,61.0,93,90,0.0,0.0
451,66.0,96,90,0.0,0.0
452,59.0,96,180,0.0,0.0
453,67.0,96,90,0.0,0.0
454,71.0,0,90,0.0,0.0
455,76.0,96,90,0.0,0.0
456,55.0,0,180,0.0,0.0
457,71.0,96,90,0.0,0.0
458,66.0,96,90,0.0,0.0
459,57.0,96,180,0.0,0.0
460,69.0,0,90,0.0,0.0
461,74.0,96,90,0.0,0.0
462,54.0,96,180,0.0,0.0
463,69.0,0,90,0.0,0.0
464,64.0,96,90,0.0,0.0
465,55.0,96,180,0.0,0.0
466,67.0,0,90,0.0,0.0
467,73.0,96,90,0.0,0.0
468,52.0,192,180,0.0,0.0
469,67.0,0,90,0.0,0.0
470,62.0,3,390,0.0,0.0
471,54.0,47,240,0.0,0.0
472,66.0,49,90,0.0,0.0
473,69.0,93,90,0.0,0.0
474,74.0,96,90,0.0,0.0
475,71.0,96,180,0.0,0.0
476,55.0,96,90,0.0,0.0
477,59.0,0,90,0.0,0.0
478,67.0,96,180,0.0,0.0
479,64.0,96,90,0.0,0.0
480,59.0,0,90,0.0,0.0
481,69.0,0,180,0.0,0.0
482,54.0,96,90,0.0,0.0
483,57.0,96,90,0.0,0.0
484,62.0,96,90,0.0,0.0
485,66.0,96,180,0.0,0.0
486,57.0,0,90,0.0,0.0
487,67.0,96,180,0.0,0.0
488,52.0,96,90,0.0,0.0
489,55.0,0,90,0.0,0.0
490,64.0,96,180,0.0,0.0
491,61.0,96,90,0.0,0.0
492,55.0,0,90,0.0,0.0
493,50.0,91,90,0.0,0.0
494,66.0,37,240,0.0,0.0
495,54.0,54,90,0.0,0.0
496,57.0,91,90,0.0,0.0
497,62.0,312,90,0.0,0.0
498,42.0,43,330,0.0,0.0
499,54.0,60,270,0.0,0.0
500,69.0,89,570,0.0,0.0
501,57.0,192,180,0.0,0.0
502,59.0,192,390,0.0,0.0
503,52.0,60,270,0.0,0.0
504,43.0,40,330,0.0,0.0
505,67.0,152,390,0.0,0.0
506,45.0,0,330,0.0,0.0
507,52.0,40,330,0.0,0.0
508,61.0,3,390,0.0,0.0
509,69.0,192,180,0.0,0.0
510,66.0,96,180,0.0,0.0
511,50.0,3,390,0.0,0.0
512,38.0,20,360,0.0,0.0
513,64.0,73,90,0.0,0.0
514,62.0,96,90,0.0,0.0
515,62.0,96,90,0.0,0.0
516,78.0,96,180,0.0,0.0
517,66.0,0,90,0.0,0.0
518,71.0,96,90,0.0,0.0
519,74.0,0,180,0.0,0.0
520,66.0,96,90,0.0,0.0
521,76.0,0,180,0.0,0.0
522,61.0,96,90,0.0,0.0
523,64.0,96,90,0.0,0.0
524,69.0,96,90,0.0,0.0
525,73.0,96,180,0.0,0.0
526,64.0,0,90,0.0,0.0
527,59.0,96,90,0.0,0.0
528,74.0,96,180,0.0,0.0
529,62.0,0,90,0.0,0.0
530,68.0,96,90,0.0,0.0
531,71.0,96,180,0.0,0.0
532,62.0,0,90,0.0,0.0
533,57.0,91,90,0.0,0.0
534,73.0,87,180,0.0,0.0
535,61.0,4,90,0.0,0.0
536,64.0,91,90,0.0,0.0
537,69.0,372,90,0.0,0.0
538,76.0,149,570,0.0,0.0
539,61.0,43,330,0.0,0.0
540,49.0,0,330,0.0,0.0
541,64.0,192,180,0.0,0.0
542,66.0,192,390,0.0,0.0
543,59.0,40,330,0.0,0.0
544,50.0,0,330,0.0,0.0
545,74.0,152,390,0.0,0.0
546,68.0,3,390,0.0,0.0
547,52.0,0,330,0.0,0.0
548,59.0,40,330,0.0,0.0
549,76.0,192,180,0.0,0.0
550,73.0,96,180,0.0,0.0
551,45.0,20,360,0.0,0.0
552,57.0,3,390,0.0,0.0
553,71.0,73,90,0.0,0.0
554,69.0,96,90,0.0,0.0
555,84.0,0,180,0.0,0.0
556,69.0,96,90,0.0,0.0
557,72.0,96,90,0.0,0.0
558,78.0,96,90,0.0,0.0
559,81.0,96,180,0.0,0.0
560,72.0,0,90,0.0,0.0
561,83.0,96,180,0.0,0.0
562,67.0,96,90,0.0,0.0
563,71.0,0,90,0.0,0.0
564,79.0,96,180,0.0,0.0
565,76.0,96,90,0.0,0.0
566,71.0,0,90,0.0,0.0
567,66.0,96,90,0.0,0.0
568,81.0,96,180,0.0,0.0
569,69.0,0,90,0.0,0.0
570,78.0,96,180,0.0,0.0
571,75.0,96,90,0.0,0.0
572,69.0,0,90,0.0,0.0
573,79.0,87,180,0.0,0.0
574,64.0,91,90,0.0,0.0
575,67.0,4,90,0.0,0.0
576,71.0,91,90,0.0,0.0
577,76.0,392,90,0.0,0.0
578,59.0,3,390,0.0,0.0
579,66.0,20,360,0.0,0.0
580,75.0,0,360,0.0,0.0
581,71.0,0,360,0.0,0.0
582,47.0,192,180,0.0,0.0
583,69.0,0,360,0.0,0.0
584,76.0,0,360,0.0,0.0
585,64.0,23,360,0.0,0.0
586,49.0,169,180,0.0,0.0
587,57.0,192,180,0.0,0.0
588,51.0,169,180,0.0,0.0
589,78.0,0,360,0.0,0.0
590,69.0,0,360,0.0,0.0
591,71.0,23,360,0.0,0.0
592,59.0,192,180,0.0,0.0
593,64.0,23,360,0.0,0.0
594,71.0,0,360,0.0,0.0
595,76.0,0,360,0.0,0.0
596,55.0,96,180,0.0,0.0
597,54.0,73,90,0.0,0.0
598,52.0,96,90,0.0,0.0
599,55.0,96,180,0.0,0.0
600,64.0,96,90,0.0,0.0
601,67.0,0,90,0.0,0.0
602,52.0,96,180,0.0,0.0
603,72.0,96,90,0.0,0.0
604,67.0,0,90,0.0,0.0
605,54.0,96,180,0.0,0.0
606,62.0,96,90,0.0,0.0
607,66.0,0,90,0.0,0.0
608,71.0,96,90,0.0,0.0
609,50.0,96,180,0.0,0.0
610,66.0,0,90,0.0,0.0
611,52.0,96,180,0.0,0.0
612,61.0,96,90,0.0,0.0
613,64.0,0,90,0.0,0.0
614,70.0,96,90,0.0,0.0
615,49.0,0,180,0.0,0.0
616,64.0,96,90,0.0,0.0
617,59.0,91,90,0.0,0.0
618,50.0,37,240,0.0,0.0
619,62.0,54,90,0.0,0.0
620,66.0,96,90,0.0,0.0
621,71.0,387,90,0.0,0.0
622,70.0,0,360,0.0,0.0
623,61.0,20,360,0.0,0.0
624,54.0,3,390,0.0,0.0
625,42.0,192,180,0.0,0.0
626,44.0,169,180,0.0,0.0
627,64.0,0,360,0.0,0.0
628,71.0,0,360,0.0,0.0
629,59.0,23,360,0.0,0.0
630,52.0,192,180,0.0,0.0
631,46.0,169,180,0.0,0.0
632,64.0,0,360,0.0,0.0
633,66.0,0,360,0.0,0.0
634,73.0,23,360,0.0,0.0
635,54.0,192,180,0.0,0.0
636,50.0,96,180,0.0,0.0
637,66.0,0,360,0.0,0.0
638,71.0,23,360,0.0,0.0
639,59.0,0,360,0.0,0.0
640,49.0,73,90,0.0,0.0
641,47.0,96,90,0.0,0.0
642,71.0,96,90,0.0,0.0
643,62.0,96,180,0.0,0.0
644,74.0,0,90,0.0,0.0
645,59.0,96,180,0.0,0.0
646,79.0,96,90,0.0,0.0
647,74.0,0,90,0.0,0.0
648,69.0,96,90,0.0,0.0
649,61.0,96,180,0.0,0.0
650,73.0,0,90,0.0,0.0
651,78.0,96,90,0.0,0.0
652,57.0,0,180,0.0,0.0
653,73.0,96,90,0.0,0.0
654,68.0,96,90,0.0,0.0
655,59.0,96,180,0.0,0.0
656,71.0,0,90,0.0,0.0
657,77.0,96,90,0.0,0.0
658,56.0,96,180,0.0,0.0
659,71.0,0,90,0.0,0.0
660,66.0,96,90,0.0,0.0
661,57.0,47,240,0.0,0.0
662,69.0,49,90,0.0,0.0
663,73.0,96,90,0.0,0.0
664,78.0,96,90,0.0,0.0
665,74.0,96,180,0.0,0.0
666,47.0,96,90,0.0,0.0
667,50.0,0,90,0.0,0.0
668,71.0,0,180,0.0,0.0
669,56.0,96,90,0.0,0.0
670,50.0,96,90,0.0,0.0
671,45.0,96,90,0.0,0.0
672,73.0,96,180,0.0,0.0
673,49.0,0,90,0.0,0.0
674,54.0,96,90,0.0,0.0
675,69.0,96,180,0.0,0.0
676,49.0,0,90,0.0,0.0
677,71.0,96,180,0.0,0.0
678,44.0,96,90,0.0,0.0
679,47.0,0,90,0.0,0.0
680,68.0,0,180,0.0,0.0
681,53.0,96,90,0.0,0.0
682,47.0,96,90,0.0,0.0
683,69.0,96,480,0.0,0.0
684,42.0,96,90,0.0,0.0
685,45.0,96,90,0.0,0.0
686,49.0,96,90,0.0,0.0
687,54.0,95,90,0.0,0.0
688,61.0,1,180,0.0,0.0
689,42.0,0,180,0.0,0.0
690,69.0,96,90,0.0,0.0
691,52.0,95,180,0.0,0.0
692,68.0,96,90,0.0,0.0
693,69.0,96,180,0.0,0.0
694,59.0,1,180,0.0,0.0
695,51.0,96,180,0.0,0.0
696,69.0,0,90,0.0,0.0
697,68.0,96,90,0.0,0.0
698,49.0,95,180,0.0,0.0
699,69.0,1,180,0.0,0.0
700,51.0,96,180,0.0,0.0
701,59.0,96,90,0.0,0.0
702,69.0,0,90,0.0,0.0
703,68.0,96,90,0.0,0.0
704,47.0,96,180,0.0,0.0
705,69.0,0,90,0.0,0.0
706,59.0,96,90,0.0,0.0
707,52.0,3,390,0.0,0.0
708,67.0,96,90,0.0,0.0
709,40.0,95,180,0.0,0.0
710,66.0,93,90,0.0,0.0
711,67.0,96,180,0.0,0.0
712,59.0,1,180,0.0,0.0
713,52.0,96,180,0.0,0.0
714,67.0,0,90,0.0,0.0
715,66.0,96,90,0.0,0.0
716,50.0,95,180,0.0,0.0
717,67.0,96,180,0.0,0.0
718,49.0,96,180,0.0,0.0
719,57.0,1,180,0.0,0.0
720,67.0,0,90,0.0,0.0
721,66.0,96,90,0.0,0.0
722,47.0,95,180,0.0,0.0
723,67.0,1,180,0.0,0.0
724,57.0,96,90,0.0,0.0
725,49.0,0,180,0.0,0.0
726,67.0,96,90,0.0,0.0
727,66.0,96,90,0.0,0.0
728,45.0,96,180,0.0,0.0
729,67.0,0,90,0.0,0.0
730,57.0,96,90,0.0,0.0
731,50.0,3,390,0.0,0.0
732,66.0,96,90,0.0,0.0
733,64.0,93,90,0.0,0.0
734,38.0,95,180,0.0,0.0
735,66.0,96,180,0.0,0.0
736,50.0,96,180,0.0,0.0
737,57.0,1,180,0.0,0.0
738,66.0,0,90,0.0,0.0
739,64.0,96,90,0.0,0.0
740,47.0,191,180,0.0,0.0
741,66.0,0,90,0.0,0.0
742,55.0,1,180,0.0,0.0
743,49.0,0,180,0.0,0.0
744,64.0,91,90,0.0,0.0
745,50.0,0,180,0.0,0.0
746,54.0,101,90,0.0,0.0
747,62.0,96,90,0.0,0.0
748,43.0,96,180,0.0,0.0
749,52.0,96,90,0.0,0.0
750,62.0,0,90,0.0,0.0
751,52.0,96,90,0.0,0.0
752,45.0,0,180,0.0,0.0
753,61.0,241,90,0.0,0.0
754,62.0,139,330,0.0,0.0
755,57.0,0,240,0.0,0.0
756,54.0,100,240,0.0,0.0
757,50.0,0,330,0.0,0.0
758,38.0,0,240,0.0,0.0
759,78.0,96,180,0.0,0.0
760,57.0,96,90,0.0,0.0
761,66.0,0,90,0.0,0.0
762,81.0,48,180,0.0,0.0
763,64.0,96,90,0.0,0.0
764,66.0,0,90,0.0,0.0
765,76.0,48,40,0.0,0.0
766,57.0,1,180,0.0,0.0
767,75.0,48,40,0.0,0.0
768,66.0,96,90,0.0,0.0
769,76.0,47,40,0.0,0.0
770,75.0,0,40,0.0,0.0
771,73.0,96,180,0.0,0.0
772,64.0,96,90,0.0,0.0
773,66.0,0,90,0.0,0.0
774,75.0,0,180,0.0,0.0
775,57.0,96,90,0.0,0.0
776,66.0,96,90,0.0,0.0
777,71.0,96,180,0.0,0.0
778,64.0,96,90,0.0,0.0
779,66.0,0,90,0.0,0.0
780,76.0,91,180,0.0,0.0
781,55.0,96,90,0.0,0.0
782,64.0,0,90,0.0,0.0
783,64.0,5,90,0.0,0.0
784,63.0,96,90,0.0,0.0
785,64.0,96,90,0.0,0.0
786,55.0,96,90,0.0,0.0
787,76.0,96,180,0.0,0.0
788,64.0,0,90,0.0,0.0
789,79.0,48,180,0.0,0.0
790,63.0,96,90,0.0,0.0
791,64.0,0,90,0.0,0.0
792,74.0,48,40,0.0,0.0
793,55.0,1,180,0.0,0.0
794,73.0,48,40,0.0,0.0
795,64.0,96,90,0.0,0.0
796,74.0,47,40,0.0,0.0
797,73.0,0,40,0.0,0.0
798,71.0,96,180,0.0,0.0
799,62.0,96,90,0.0,0.0
800,64.0,0,90,0.0,0.0
801,73.0,0,180,0.0,0.0
802,55.0,96,90,0.0,0.0
803,64.0,96,90,0.0,0.0
804,69.0,96,180,0.0,0.0
805,62.0,96,90,0.0,0.0
806,64.0,0,90,0.0,0.0
807,74.0,91,180,0.0,0.0
808,54.0,96,90,0.0,0.0
809,62.0,0,90,0.0,0.0
810,61.0,96,90,0.0,0.0
811,62.0,5,90,0.0,0.0
812,62.0,96,90,0.0,0.0
813,74.0,96,180,0.0,0.0
814,54.0,96,90,0.0,0.0
815,62.0,0,90,0.0,0.0
816,78.0,0,180,0.0,0.0
817,61.0,96,90,0.0,0.0
818,62.0,96,90,0.0,0.0
819,52.0,0,90,0.0,0.0
820,79.0,96,90,0.0,0.0
821,61.0,96,90,0.0,0.0
822,81.0,0,90,0.0,0.0
823,50.0,0,90,0.0,0.0
824,78.0,96,90,0.0,0.0
825,79.0,48,90,0.0,0.0
826,62.0,0,90,0.0,0.0
827,78.0,48,40,0.0,0.0
828,55.0,48,90,0.0,0.0
829,76.0,0,40,0.0,0.0
830,78.0,48,40,0.0,0.0
831,62.0,96,90,0.0,0.0
832,76.0,96,150,0.0,0.0
833,57.0,0,90,0.0,0.0
834,74.0,96,90,0.0,0.0
835,61.0,0,90,0.0,0.0
836,74.0,37,240,0.0,0.0
837,50.0,91,90,0.0,0.0
838,54.0,54,90,0.0,0.0
839,57.0,91,90,0.0,0.0
840,62.0,368,90,0.0,0.0
841,54.0,0,330,0.0,0.0
842,42.0,47,330,0.0,0.0
843,69.0,153,570,0.0,0.0
844,57.0,188,180,0.0,0.0
845,43.0,0,330,0.0,0.0
846,52.0,40,330,0.0,0.0
847,59.0,192,390,0.0,0.0
848,67.0,152,390,0.0,0.0
849,61.0,3,390,0.0,0.0
850,45.0,40,330,0.0,0.0
851,52.0,0,330,0.0,0.0
852,69.0,192,180,0.0,0.0
853,38.0,40,330,0.0,0.0
854,50.0,3,390,0.0,0.0
855,66.0,96,180,0.0,0.0
856,64.0,53,90,0.0,0.0
857,62.0,200,90,0.0,0.0
858,52.0,169,180,0.0,0.0
859,59.0,0,360,0.0,0.0
860,64.0,0,360,0.0,0.0
861,68.0,23,360,0.0,0.0
862,40.0,192,180,0.0,0.0
863,69.0,23,360,0.0,0.0
864,42.0,169,180,0.0,0.0
865,57.0,0,360,0.0,0.0
866,62.0,0,360,0.0,0.0
867,50.0,192,180,0.0,0.0
868,64.0,0,360,0.0,0.0
869,71.0,0,360,0.0,0.0
870,62.0,23,360,0.0,0.0
871,44.0,169,180,0.0,0.0
872,52.0,192,180,0.0,0.0
873,49.0,96,180,0.0,0.0
874,69.0,20,360,0.0,0.0
875,64.0,0,360,0.0,0.0
876,57.0,3,390,0.0,0.0
877,47.0,73,90,0.0,0.0
878,45.0,216,90,0.0,0.0
879,73.0,49,180,0.0,0.0
880,45.0,143,240,0.0,0.0
881,57.0,0,240,0.0,0.0
882,61.0,192,180,0.0,0.0
883,63.0,49,180,0.0,0.0
884,47.0,0,240,0.0,0.0
885,56.0,143,240,0.0,0.0
886,71.0,192,180,0.0,0.0
887,65.0,49,180,0.0,0.0
888,56.0,143,240,0.0,0.0
889,49.0,0,240,0.0,0.0
890,73.0,192,180,0.0,0.0
891,69.0,49,180,0.0,0.0
892,42.0,47,240,0.0,0.0
893,54.0,3,390,0.0,0.0
894,68.0,93,90,0.0,0.0
895,66.0,192,90,0.0,0.0
896,61.0,49,180,0.0,0.0
897,65.0,143,240,0.0,0.0
898,49.0,191,180,0.0,0.0
899,51.0,49,180,0.0,0.0
900,66.0,143,240,0.0,0.0
901,59.0,1,180,0.0,0.0
902,59.0,192,180,0.0,0.0
903,59.0,143,240,0.0,0.0
904,68.0,0,240,0.0,0.0
905,53.0,49,180,0.0,0.0
906,61.0,192,180,0.0,0.0
907,57.0,49,180,0.0,0.0
908,66.0,95,480,0.0,0.0
909,61.0,47,240,0.0,0.0
910,56.0,96,90,0.0,0.0
911,54.0,97,90,0.0,0.0
912,73.0,3,390,0.0,0.0
913,45.0,96,180,0.0,0.0
914,66.0,0,90,0.0,0.0
915,65.0,93,90,0.0,0.0
916,54.0,0,180,0.0,0.0
917,66.0,192,90,0.0,0.0
918,47.0,96,180,0.0,0.0
919,74.0,3,390,0.0,0.0
920,66.0,0,90,0.0,0.0
921,65.0,93,90,0.0,0.0
922,56.0,192,180,0.0,0.0
923,66.0,0,90,0.0,0.0
924,73.0,3,390,0.0,0.0
925,49.0,96,180,0.0,0.0
926,66.0,0,90,0.0,0.0
927,57.0,192,180,0.0,0.0
928,65.0,93,90,0.0,0.0
929,66.0,0,90,0.0,0.0
930,71.0,3,390,0.0,0.0
931,50.0,96,180,0.0,0.0
932,66.0,0,90,0.0,0.0
933,65.0,93,90,0.0,0.0
934,59.0,0,180,0.0,0.0
935,66.0,192,90,0.0,0.0
936,49.0,0,180,0.0,0.0
937,73.0,3,390,0.0,0.0
938,66.0,96,90,0.0,0.0
939,65.0,93,90,0.0,0.0
940,57.0,192,180,0.0,0.0
941,66.0,0,90,0.0,0.0
942,74.0,3,390,0.0,0.0
943,47.0,96,180,0.0,0.0
944,66.0,0,90,0.0,0.0
945,65.0,93,90,0.0,0.0
946,56.0,192,180,0.0,0.0
947,66.0,0,90,0.0,0.0
948,71.0,3,390,0.0,0.0
949,49.0,96,180,0.0,0.0
950,65.0,0,90,0.0,0.0
951,63.0,93,90,0.0,0.0
952,56.0,0,180,0.0,0.0
953,65.0,241,90,0.0,0.0
954,42.0,0,240,0.0,0.0
955,69.0,194,390,0.0,0.0
956,54.0,0,240,0.0,0.0
957,66.0,140,240,0.0,0.0
958,73.0,96,180,0.0,0.0
959,45.0,1,180,0.0,0.0
960,54.0,0,90,0.0,0.0
961,78.0,191,180,0.0,0.0
962,53.0,96,90,0.0,0.0
963,54.0,0,90,0.0,0.0
964,75.0,96,180,0.0,0.0
965,47.0,1,180,0.0,0.0
966,54.0,0,90,0.0,0.0
967,80.0,191,180,0.0,0.0
968,53.0,96,90,0.0,0.0
969,54.0,0,90,0.0,0.0
970,77.0,0,180,0.0,0.0
971,49.0,1,180,0.0,0.0
972,54.0,96,90,0.0,0.0
973,81.0,0,180,0.0,0.0
974,53.0,96,90,0.0,0.0
975,54.0,191,90,0.0,0.0
976,78.0,96,180,0.0,0.0
977,50.0,1,180,0.0,0.0
978,54.0,0,90,0.0,0.0
979,83.0,48,180,0.0,0.0
980,53.0,96,90,0.0,0.0
981,54.0,0,90,0.0,0.0
982,83.0,48,40,0.0,0.0
983,49.0,1,180,0.0,0.0
984,81.0,48,40,0.0,0.0
985,83.0,47,40,0.0,0.0
986,54.0,96,90,0.0,0.0
987,81.0,0,40,0.0,0.0
988,80.0,191,180,0.0,0.0
989,53.0,96,90,0.0,0.0
990,54.0,0,90,0.0,0.0
991,81.0,96,180,0.0,0.0
992,47.0,1,180,0.0,0.0
993,54.0,0,90,0.0,0.0
994,73.0,191,180,0.0,0.0
995,53.0,96,90,0.0,0.0
996,54.0,0,90,0.0,0.0
997,80.0,96,180,0.0,0.0
998,49.0,1,180,0.0,0.0
999,53.0,0,90,0.0,0.0
1000,71.0,241,180,0.0,0.0
1001,51.0,96,90,0.0,0.0
1002,53.0,0,90,0.0,0.0
1003,70.0,140,240,0.0,0.0
1004,78.0,99,390,0.0,0.0
1005,54.0,0,240,0.0,0.0
1006,42.0,0,240,0.0,0.0
1007,79.0,0,180,0.0,0.0
1008,52.0,96,90,0.0,0.0
1009,55.0,96,90,0.0,0.0
1010,61.0,96,90,0.0,0.0
1011,76.0,0,180,0.0,0.0
1012,55.0,96,90,0.0,0.0
1013,78.0,96,180,0.0,0.0
1014,50.0,96,90,0.0,0.0
1015,54.0,0,90,0.0,0.0
1016,74.0,96,180,0.0,0.0
1017,59.0,96,90,0.0,0.0
1018,54.0,0,90,0.0,0.0
1019,76.0,96,180,0.0,0.0
1020,49.0,96,90,0.0,0.0
1021,52.0,0,90,0.0,0.0
1022,73.0,96,180,0.0,0.0
1023,58.0,96,90,0.0,0.0
1024,52.0,0,90,0.0,0.0
1025,74.0,47,240,0.0,0.0
1026,47.0,96,90,0.0,0.0
1027,50.0,49,90,0.0,0.0
1028,54.0,96,90,0.0,0.0
1029,59.0,96,90,0.0,0.0
1030,64.0,96,90,0.0,0.0
1031,55.0,96,180,0.0,0.0
1032,67.0,0,90,0.0,0.0
1033,73.0,96,90,0.0,0.0
1034,52.0,96,180,0.0,0.0
1035,67.0,0,90,0.0,0.0
1036,54.0,96,180,0.0,0.0
1037,62.0,96,90,0.0,0.0
1038,66.0,0,90,0.0,0.0
1039,71.0,96,90,0.0,0.0
1040,50.0,96,180,0.0,0.0
1041,66.0,0,90,0.0,0.0
1042,61.0,96,90,0.0,0.0
1043,52.0,0,180,0.0,0.0
1044,64.0,96,90,0.0,0.0
1045,49.0,0,180,0.0,0.0
1046,70.0,96,90,0.0,0.0
1047,64.0,192,90,0.0,0.0
1048,59.0,3,390,0.0,0.0
1049,50.0,0,180,0.0,0.0
1050,62.0,96,90,0.0,0.0
1051,47.0,192,180,0.0,0.0
1052,66.0,93,90,0.0,0.0
1053,71.0,0,90,0.0,0.0
1054,59.0,3,390,0.0,0.0
1055,55.0,96,180,0.0,0.0
1056,64.0,0,90,0.0,0.0
1057,67.0,93,90,0.0,0.0
1058,47.0,192,180,0.0,0.0
1059,71.0,0,90,0.0,0.0
1060,59.0,3,390,0.0,0.0
1061,54.0,96,180,0.0,0.0
1062,62.0,0,90,0.0,0.0
1063,66.0,93,90,0.0,0.0
1064,47.0,192,180,0.0,0.0
1065,71.0,0,90,0.0,0.0
1066,61.0,3,390,0.0,0.0
1067,54.0,0,180,0.0,0.0
1068,64.0,96,90,0.0,0.0
1069,42.0,192,180,0.0,0.0
1070,71.0,93,90,0.0,0.0
1071,70.0,0,90,0.0,0.0
1072,62.0,7,270,0.0,0.0
1073,47.0,40,240,0.0,0.0
1074,66.0,49,90,0.0,0.0
1075,71.0,96,90,0.0,0.0
1076,70.0,192,90,0.0,0.0
1077,49.0,40,240,0.0,0.0
1078,64.0,7,270,0.0,0.0
1079,66.0,49,90,0.0,0.0
1080,71.0,96,90,0.0,0.0
1081,70.0,192,90,0.0,0.0
1082,66.0,7,270,0.0,0.0
1083,50.0,40,240,0.0,0.0
1084,70.0,49,90,0.0,0.0
1085,71.0,96,90,0.0,0.0
1086,70.0,191,90,0.0,0.0
1087,52.0,47,240,0.0,0.0
1088,67.0,1,180,0.0,0.0
1089,70.0,49,90,0.0,0.0
1090,71.0,96,90,0.0,0.0
1091,70.0,192,90,0.0,0.0
1092,62.0,7,270,0.0,0.0
1093,54.0,40,240,0.0,0.0
1094,66.0,49,90,0.0,0.0
1095,71.0,96,90,0.0,0.0
1096,70.0,191,90,0.0,0.0
1097,61.0,1,180,0.0,0.0
1098,42.0,47,240,0.0,0.0
1099,64.0,49,90,0.0,0.0
1100,71.0,96,90,0.0,0.0
1101,70.0,192,90,0.0,0.0
1102,59.0,3,390,0.0,0.0
1103,47.0,47,240,0.0,0.0
1104,62.0,49,90,0.0,0.0
1105,66.0,93,90,0.0,0.0
1106,71.0,191,90,0.0,0.0
1107,66.0,3,390,0.0,0.0
1108,50.0,1,180,0.0,0.0
1109,74.0,96,90,0.0,0.0
1110,59.0,0,90,0.0,0.0
1111,76.0,93,90,0.0,0.0
1112,58.0,0,90,0.0,0.0
1113,59.0,0,90,0.0,0.0
1114,74.0,191,90,0.0,0.0
1115,68.0,3,390,0.0,0.0
1116,52.0,1,180,0.0,0.0
1117,74.0,96,90,0.0,0.0
1118,59.0,0,90,0.0,0.0
1119,76.0,93,90,0.0,0.0
1120,58.0,0,90,0.0,0.0
1121,74.0,0,90,0.0,0.0
1122,59.0,191,90,0.0,0.0
1123,54.0,1,180,0.0,0.0
1124,70.0,3,390,0.0,0.0
1125,74.0,96,90,0.0,0.0
1126,59.0,0,90,0.0,0.0
1127,76.0,93,90,0.0,0.0
1128,58.0,0,90,0.0,0.0
1129,59.0,0,90,0.0,0.0
1130,74.0,191,90,0.0,0.0
1131,71.0,3,390,0.0,0.0
1132,55.0,1,180,0.0,0.0
1133,74.0,0,90,0.0,0.0
1134,59.0,96,90,0.0,0.0
1135,76.0,93,90,0.0,0.0
1136,58.0,0,90,0.0,0.0
1137,74.0,191,90,0.0,0.0
1138,59.0,0,90,0.0,0.0
1139,70.0,3,390,0.0,0.0
1140,54.0,1,180,0.0,0.0
1141,74.0,0,90,0.0,0.0
1142,59.0,96,90,0.0,0.0
1143,58.0,0,90,0.0,0.0
1144,76.0,93,90,0.0,0.0
1145,74.0,191,90,0.0,0.0
1146,59.0,0,90,0.0,0.0
1147,67.0,3,390,0.0,0.0
1148,52.0,1,180,0.0,0.0
1149,74.0,0,90,0.0,0.0
1150,59.0,96,90,0.0,0.0
1151,76.0,93,90,0.0,0.0
1152,58.0,0,90,0.0,0.0
1153,74.0,96,90,0.0,0.0
1154,59.0,0,90,0.0,0.0
1155,64.0,1,180,0.0,0.0
1156,54.0,95,90,0.0,0.0
1157,73.0,96,90,0.0,0.0
1158,58.0,0,90,0.0,0.0
1159,56.0,96,90,0.0,0.0
1160,74.0,0,90,0.0,0.0
1161,58.0,0,90,0.0,0.0
1162,73.0,441,90,0.0,0.0
1163,71.0,0,450,0.0,0.0
1164,62.0,0,450,0.0,0.0
1165,59.0,231,450,0.0,0.0
1166,47.0,0,450,0.0,0.0
1167,50.0,143,240,0.0,0.0
1168,38.0,0,240,0.0,0.0
1169,66.0,49,180,0.0,0.0
1170,54.0,192,180,0.0,0.0
1171,40.0,143,240,0.0,0.0
1172,52.0,0,240,0.0,0.0
1173,56.0,49,180,0.0,0.0
1174,64.0,192,180,0.0,0.0
1175,42.0,143,240,0.0,0.0
1176,49.0,0,240,0.0,0.0
1177,58.0,49,180,0.0,0.0
1178,66.0,281,180,0.0,0.0
1179,62.0,0,270,0.0,0.0
1180,47.0,7,270,0.0,0.0
1181,61.0,136,90,0.0,0.0
1182,59.0,225,120,0.0,0.0
1183,54.0,1,240,0.0,0.0
1184,57.0,1,240,0.0,0.0
1185,62.0,1,240,0.0,0.0
1186,81.0,140,240,0.0,0.0
1187,69.0,192,180,0.0,0.0
1188,71.0,49,180,0.0,0.0
1189,64.0,0,240,0.0,0.0
1190,55.0,143,240,0.0,0.0
1191,59.0,0,240,0.0,0.0
1192,79.0,192,180,0.0,0.0
1193,69.0,0,240,0.0,0.0
1194,64.0,0,240,0.0,0.0
1195,57.0,143,240,0.0,0.0
1196,73.0,49,180,0.0,0.0
1197,81.0,192,180,0.0,0.0
1198,57.0,3,390,0.0,0.0
1199,62.0,47,240,0.0,0.0
1200,78.0,49,180,0.0,0.0
1201,50.0,0,240,0.0,0.0
1202,76.0,93,90,0.0,0.0
1203,74.0,216,90,0.0,0.0
1204,57.0,49,180,0.0,0.0
1205,69.0,0,240,0.0,0.0
1206,73.0,143,240,0.0,0.0
1207,64.0,0,240,0.0,0.0
1208,45.0,192,180,0.0,0.0
1209,47.0,49,180,0.0,0.0
1210,67.0,0,240,0.0,0.0
1211,62.0,143,240,0.0,0.0
1212,74.0,0,240,0.0,0.0
1213,55.0,192,180,0.0,0.0
1214,69.0,0,240,0.0,0.0
1215,49.0,49,180,0.0,0.0
1216,67.0,0,240,0.0,0.0
1217,76.0,143,240,0.0,0.0
1218,57.0,192,180,0.0,0.0
1219,54.0,49,180,0.0,0.0
1220,74.0,111,480,0.0,0.0
1221,62.0,0,240,0.0,0.0
1222,69.0,47,240,0.0,0.0
1223,52.0,103,90,0.0,0.0
1224,50.0,90,90,0.0,0.0
1225,57.0,96,180,0.0,0.0
1226,66.0,3,390,0.0,0.0
1227,74.0,0,90,0.0,0.0
1228,76.0,93,90,0.0,0.0
1229,50.0,0,180,0.0,0.0
1230,74.0,192,90,0.0,0.0
1231,67.0,3,390,0.0,0.0
1232,59.0,96,180,0.0,0.0
1233,74.0,0,90,0.0,0.0
1234,76.0,93,90,0.0,0.0
1235,50.0,192,180,0.0,0.0
1236,74.0,0,90,0.0,0.0
1237,69.0,3,390,0.0,0.0
1238,54.0,96,180,0.0,0.0
1239,74.0,0,90,0.0,0.0
1240,50.0,192,180,0.0,0.0
1241,76.0,93,90,0.0,0.0
1242,74.0,0,90,0.0,0.0
1243,71.0,3,390,0.0,0.0
1244,55.0,96,180,0.0,0.0
1245,74.0,0,90,0.0,0.0
1246,76.0,93,90,0.0,0.0
1247,50.0,192,180,0.0,0.0
1248,74.0,0,90,0.0,0.0
1249,66.0,3,390,0.0,0.0
1250,57.0,96,180,0.0,0.0
1251,74.0,0,90,0.0,0.0
1252,76.0,93,90,0.0,0.0
1253,50.0,192,180,0.0,0.0
1254,74.0,0,90,0.0,0.0
1255,64.0,3,390,0.0,0.0
1256,59.0,0,180,0.0,0.0
1257,74.0,96,90,0.0,0.0
1258,76.0,93,90,0.0,0.0
1259,55.0,192,180,0.0,0.0
1260,74.0,0,90,0.0,0.0
1261,64.0,3,390,0.0,0.0
1262,57.0,96,180,0.0,0.0
1263,73.0,0,90,0.0,0.0
1264,74.0,93,90,0.0,0.0
1265,45.0,0,180,0.0,0.0
1266,73.0,192,90,0.0,0.0
1267,62.0,3,390,0.0,0.0
1268,50.0,0,390,0.0,0.0
1269,66.0,96,90,0.0,0.0
1270,69.0,93,90,0.0,0.0
1271,74.0,191,90,0.0,0.0
1272,69.0,3,390,0.0,0.0
1273,42.0,1,180,0.0,0.0
1274,78.0,0,90,0.0,0.0
1275,50.0,96,90,0.0,0.0
1276,52.0,0,90,0.0,0.0
1277,79.0,93,90,0.0,0.0
1278,78.0,191,90,0.0,0.0
1279,50.0,0,90,0.0,0.0
1280,71.0,3,390,0.0,0.0
1281,43.0,1,180,0.0,0.0
1282,78.0,96,90,0.0,0.0
1283,50.0,0,90,0.0,0.0
1284,52.0,93,90,0.0,0.0
1285,79.0,0,90,0.0,0.0
1286,50.0,0,90,0.0,0.0
1287,78.0,191,90,0.0,0.0
1288,73.0,3,390,0.0,0.0
1289,45.0,1,180,0.0,0.0
1290,78.0,96,90,0.0,0.0
1291,50.0,0,90,0.0,0.0
1292,79.0,0,90,0.0,0.0
1293,52.0,93,90,0.0,0.0
1294,50.0,191,90,0.0,0.0
1295,78.0,0,90,0.0,0.0
1296,74.0,3,390,0.0,0.0
1297,47.0,1,180,0.0,0.0
1298,78.0,96,90,0.0,0.0
1299,50.0,0,90,0.0,0.0
1300,79.0,93,90,0.0,0.0
1301,52.0,0,90,0.0,0.0
1302,78.0,0,90,0.0,0.0
1303,50.0,191,90,0.0,0.0
1304,69.0,3,390,0.0,0.0
1305,42.0,1,180,0.0,0.0
1306,78.0,96,90,0.0,0.0
1307,50.0,0,90,0.0,0.0
1308,79.0,93,90,0.0,0.0
1309,52.0,0,90,0.0,0.0
1310,78.0,191,90,0.0,0.0
1311,50.0,0,90,0.0,0.0
1312,43.0,1,180,0.0,0.0
1313,71.0,3,390,0.0,0.0
1314,50.0,0,90,0.0,0.0
1315,78.0,96,90,0.0,0.0
1316,79.0,93,90,0.0,0.0
1317,52.0,0,90,0.0,0.0
1318,50.0,0,90,0.0,0.0
1319,78.0,191,90,0.0,0.0
1320,67.0,3,390,0.0,0.0
1321,45.0,1,180,0.0,0.0
1322,49.0,96,90,0.0,0.0
1323,76.0,0,90,0.0,0.0
1324,78.0,93,90,0.0,0.0
1325,50.0,0,90,0.0,0.0
1326,76.0,195,90,0.0,0.0
1327,49.0,0,90,0.0,0.0
1328,38.0,40,600,0.0,0.0
1329,66.0,29,180,0.0,0.0
1330,74.0,101,90,0.0,0.0
1331,76.0,101,90,0.0,0.0
1332,74.0,101,90,0.0,0.0
1333,65.0,61,90,0.0,0.0
1334,74.0,101,90,0.0,0.0
1335,50.0,101,210,0.0,0.0
1336,76.0,101,90,0.0,0.0
1337,74.0,0,90,0.0,0.0
1338,55.0,0,210,0.0,0.0
1339,64.0,101,90,0.0,0.0
1340,74.0,101,90,0.0,0.0
1341,58.0,149,210,0.0,0.0
1342,76.0,101,90,0.0,0.0
1343,74.0,0,90,0.0,0.0
1344,57.0,100,210,0.0,0.0
1345,66.0,52,150,0.0,0.0
1346,74.0,1,90,0.0,0.0
1347,60.0,0,210,0.0,0.0
1348,76.0,101,90,0.0,0.0
1349,74.0,200,90,0.0,0.0
1350,67.0,1,210,0.0,0.0
1351,58.0,0,210,0.0,0.0
1352,74.0,101,90,0.0,0.0
1353,46.0,149,210,0.0,0.0
1354,76.0,101,90,0.0,0.0
1355,74.0,0,90,0.0,0.0
1356,65.0,53,150,0.0,0.0
1357,45.0,101,210,0.0,0.0
1358,74.0,0,90,0.0,0.0
1359,57.0,0,210,0.0,0.0
1360,76.0,101,90,0.0,0.0
1361,74.0,149,90,0.0,0.0
1362,55.0,100,210,0.0,0.0
1363,64.0,53,150,0.0,0.0
1364,74.0,0,90,0.0,0.0
1365,43.0,201,210,0.0,0.0
1366,76.0,101,90,0.0,0.0
1367,74.0,0,90,0.0,0.0
1368,45.0,0,210,0.0,0.0
1369,66.0,1,210,0.0,0.0
1370,74.0,101,90,0.0,0.0
1371,57.0,201,210,0.0,0.0
1372,76.0,101,90,0.0,0.0
1373,74.0,0,90,0.0,0.0
1374,67.0,7,300,0.0,0.0
1375,58.0,94,210,0.0,0.0
1376,74.0,0,90,0.0,0.0
1377,46.0,0,210,0.0,0.0
1378,76.0,101,90,0.0,0.0
1379,74.0,201,90,0.0,0.0
1380,45.0,100,210,0.0,0.0
1381,65.0,1,210,0.0,0.0
1382,74.0,0,90,0.0,0.0
1383,57.0,202,210,0.0,0.0
1384,76.0,101,90,0.0,0.0
1385,74.0,0,90,0.0,0.0
1386,55.0,0,210,0.0,0.0
1387,64.0,7,300,0.0,0.0
1388,74.0,94,90,0.0,0.0
1389,43.0,202,210,0.0,0.0
1390,76.0,101,90,0.0,0.0
1391,74.0,0,90,0.0,0.0
1392,45.0,94,210,0.0,0.0
1393,65.0,7,300,0.0,0.0
1394,74.0,0,90,0.0,0.0
1395,57.0,0,210,0.0,0.0
1396,76.0,101,90,0.0,0.0
1397,74.0,201,90,0.0,0.0
1398,58.0,100,210,0.0,0.0
1399,67.0,1,210,0.0,0.0
1400,74.0,0,90,0.0,0.0
1401,57.0,100,90,0.0,0.0
1402,76.0,0,90,0.0,0.0
1403,55.0,51,90,0.0,0.0
1404,77.0,0,90,0.0,0.0
1405,74.0,51,40,0.0,0.0
1406,57.0,3,390,0.0,0.0
1407,73.0,50,40,0.0,0.0
1408,74.0,152,40,0.0,0.0
1409,73.0,97,150,0.0,0.0
1410,45.0,404,210,0.0,0.0
1411,74.0,0,90,0.0,0.0
1412,50.0,0,390,0.0,0.0
1413,62.0,350,390,0.0,0.0
1414,74.0,0,390,0.0,0.0
1415,57.0,9,330,0.0,0.0
1416,42.0,0,450,0.0,0.0
1417,50.0,2,450,0.0,0.0
1418,62.0,3,450,0.0,0.0
1419,60.0,105,120,0.0,0.0
1420,59.0,111,120,0.0,0.0
1421,57.0,229,120,0.0,0.0
1422,50.0,230,450,0.0,0.0
1423,67.0,3,450,0.0,0.0
1424,43.0,0,450,0.0,0.0
1425,52.0,0,450,0.0,0.0
1426,66.0,115,120,0.0,0.0
1427,64.0,112,120,0.0,0.0
1428,62.0,0,120,0.0,0.0
1429,61.0,3,450,0.0,0.0
1430,52.0,0,450,0.0,0.0
1431,45.0,1,450,0.0,0.0
1432,59.0,116,120,0.0,0.0
1433,57.0,110,120,0.0,0.0
1434,55.0,230,120,0.0,0.0
1435,62.0,0,450,0.0,0.0
1436,54.0,3,450,0.0,0.0
1437,47.0,0,450,0.0,0.0
1438,59.0,1,450,0.0,0.0
1439,49.0,115,120,0.0,0.0
1440,50.0,111,120,0.0,0.0
1441,52.0,230,120,0.0,0.0
1442,62.0,0,450,0.0,0.0
1443,54.0,0,450,0.0,0.0
1444,57.0,5,450,0.0,0.0
1445,42.0,114,120,0.0,0.0
1446,40.0,112,120,0.0,0.0
1447,38.0,229,120,0.0,0.0
1448,43.0,9,330,0.0,0.0
1449,48.0,106,120,0.0,0.0
1450,47.0,114,120,0.0,0.0
1451,45.0,231,120,0.0,0.0
1452,47.0,3,450,0.0,0.0
1453,50.0,115,120,0.0,0.0
1454,52.0,112,120,0.0,0.0
1455,54.0,229,120,0.0,0.0
1456,55.0,4,450,0.0,0.0
1457,57.0,116,120,0.0,0.0
1458,59.0,111,120,0.0,0.0
1459,60.0,108,120,0.0,0.0
1460,55.0,0,240,0.0,0.0
1461,59.0,2,240,0.0,0.0
1462,50.0,120,120,0.0,0.0
1463,50.0,114,120,0.0,0.0
1464,61.0,2,240,0.0,0.0
1465,52.0,0,240,0.0,0.0
1466,49.0,114,120,0.0,0.0
1467,57.0,0,240,0.0,0.0
1468,47.0,236,120,0.0,0.0
1469,62.0,20,570,0.0,0.0
1470,50.0,98,1830,0.0,0.0
1471,54.0,19,330,0.0,0.0
1472,57.0,100,120,0.0,0.0
1473,59.0,119,120,0.0,0.0
1474,54.0,101,120,0.0,0.0
1475,55.0,119,120,0.0,0.0
1476,62.0,239,120,0.0,0.0
1477,67.0,132,360,0.0,0.0
1478,61.0,112,120,0.0,0.0
1479,62.0,123,360,0.0,0.0
1480,57.0,16,480,0.0,0.0
1481,67.0,107,120,0.0,0.0
1482,66.0,123,240,0.0,0.0
1483,62.0,123,240,0.0,0.0
1484,59.0,8,360,0.0,0.0
1485,67.0,115,240,0.0,0.0
1486,62.0,25,240,0.0,0.0
1487,67.0,0,240,0.0,0.0
1488,71.0,3,240,0.0,0.0
1489,61.0,122,120,0.0,0.0
1490,50.0,277,2820,0.0,0.0
1491,62.0,16,480,0.0,0.0
1492,69.0,130,120,0.0,0.0
1493,67.0,236,120,0.0,0.0
1494,66.0,127,240,0.0,0.0
1495,74.0,154,240,0.0,0.0
1496,67.0,0,570,0.0,0.0
1497,64.0,12,570,0.0,0.0
1498,76.0,150,120,0.0,0.0
1499,74.0,156,120,0.0,0.0
1500,73.0,1720,150,0.0,0.0
1501,66.0,8,1980,0.0,0.0
1502,69.0,6,1980,0.0,0.0
1503,62.0,6,1950,0.0,0.0
1504,74.0,1217,1980,0.0,0.0
1505,62.0,0,780,0.0,0.0
1506,66.0,3,390,0.0,0.0
1507,69.0,288,180,0.0,0.0
1508,67.0,96,300,0.0,0.0
1509,66.0,384,90,0.0,0.0
1510,71.0,768,780,0.0,0.0
1511,62.0,288,180,0.0,0.0
1512,66.0,3,390,0.0,0.0
1513,61.0,93,300,0.0,0.0
1514,59.0,0,90,0.0,0.0
1515,58.0,1,780,0.0,0.0
1516,64.0,1,780,0.0,0.0
1517,66.0,1,780,0.0,0.0
1518,73.0,141,780,0.0,0.0
1519,54.0,1,180,0.0,0.0
1520,61.0,95,90,0.0,0.0
1521,64.0,0,90,0.0,0.0
1522,66.0,95,90,0.0,0.0
1523,46.0,1,180,0.0,0.0
1524,64.0,0,90,0.0,0.0
1525,61.0,95,90,0.0,0.0
1526,54.0,1,180,0.0,0.0
1527,66.0,95,90,0.0,0.0
1528,46.0,1,180,0.0,0.0
1529,64.0,0,90,0.0,0.0
1530,61.0,95,90,0.0,0.0
1531,54.0,1,180,0.0,0.0
1532,66.0,95,90,0.0,0.0
1533,46.0,16,180,0.0,0.0
1534,64.0,0,120,0.0,0.0
1535,61.0,80,120,0.0,0.0
1536,54.0,111,180,0.0,0.0
1537,46.0,0,180,0.0,0.0
1538,66.0,1103,180,0.0,0.0
1539,62.0,3,390,0.0,0.0
1540,59.0,185,780,0.0,0.0
1541,66.0,288,180,0.0,0.0
1542,64.0,96,300,0.0,0.0
1543,62.0,196,270,0.0,0.0
1544,67.0,3,390,0.0,0.0
1545,59.0,288,180,0.0,0.0
1546,62.0,3,390,0.0,0.0
1547,57.0,93,300,0.0,0.0
1548,55.0,768,90,0.0,0.0
1549,54.0,1,780,0.0,0.0
1550,60.0,1,780,0.0,0.0
1551,62.0,1,780,0.0,0.0
1552,69.0,141,780,0.0,0.0
1553,57.0,95,90,0.0,0.0
1554,60.0,0,90,0.0,0.0
1555,50.0,1,180,0.0,0.0
1556,42.0,1,180,0.0,0.0
1557,45.0,95,90,0.0,0.0
1558,62.0,0,90,0.0,0.0
1559,50.0,1,180,0.0,0.0
1560,57.0,0,90,0.0,0.0
1561,60.0,95,90,0.0,0.0
1562,42.0,1,180,0.0,0.0
1563,45.0,95,90,0.0,0.0
1564,62.0,0,90,0.0,0.0
1565,50.0,1,180,0.0,0.0
1566,57.0,95,90,0.0,0.0
1567,60.0,0,90,0.0,0.0
1568,42.0,16,180,0.0,0.0
1569,45.0,0,90,0.0,0.0
1570,62.0,95,90,0.0,0.0
1571,50.0,61,180,0.0,0.0
1572,57.0,80,120,0.0,0.0
1573,60.0,0,120,0.0,0.0
1574,45.0,996,150,0.0,0.0
1575,42.0,0,150,0.0,0.0
1576,62.0,0,150,0.0,0.0
1577,59.0,185,780,0.0,0.0
1578,55.0,0,780,0.0,0.0
1579,74.0,288,180,0.0,0.0
1580,72.0,96,300,0.0,0.0
1581,71.0,196,270,0.0,0.0
1582,76.0,3,390,0.0,0.0
1583,67.0,288,180,0.0,0.0
1584,71.0,3,390,0.0,0.0
1585,66.0,93,300,0.0,0.0
1586,64.0,768,90,0.0,0.0
1587,63.0,1,780,0.0,0.0
1588,69.0,1,780,0.0,0.0
1589,71.0,1,780,0.0,0.0
1590,78.0,93,780,0.0,0.0
1591,66.0,0,90,0.0,0.0
1592,69.0,95,90,0.0,0.0
1593,59.0,1,180,0.0,0.0
1594,54.0,0,90,0.0,0.0
1595,51.0,1,180,0.0,0.0
1596,71.0,95,90,0.0,0.0
1597,66.0,95,90,0.0,0.0
1598,59.0,1,180,0.0,0.0
1599,69.0,0,90,0.0,0.0
1600,51.0,1,180,0.0,0.0
1601,54.0,95,90,0.0,0.0
1602,71.0,0,90,0.0,0.0
1603,69.0,0,90,0.0,0.0
1604,66.0,95,90,0.0,0.0
1605,59.0,1,180,0.0,0.0
1606,51.0,16,180,0.0,0.0
1607,54.0,0,90,0.0,0.0
1608,71.0,95,90,0.0,0.0
1609,59.0,208,180,0.0,0.0
1610,66.0,80,120,0.0,0.0
1611,69.0,0,120,0.0,0.0
1612,51.0,0,300,0.0,0.0
1613,71.0,654,300,0.0,0.0
1614,54.0,0,300,0.0,0.0
1615,78.0,291,270,0.0,0.0
1616,69.0,96,300,0.0,0.0
1617,69.0,765,90,0.0,0.0
1618,69.0,381,780,0.0,0.0
1619,63.0,0,390,0.0,0.0
1620,54.0,0,390,0.0,0.0
1621,59.0,0,390,0.0,0.0
1622,51.0,0,390,0.0,0.0
1623,66.0,3,390,0.0,0.0
1624,54.0,0,780,0.0,0.0
1625,66.0,51,390,0.0,0.0
1626,51.0,0,780,0.0,0.0
1627,63.0,48,780,0.0,0.0
1628,59.0,0,780,0.0,0.0
1629,78.0,288,180,0.0,0.0
1630,69.0,48,300,0.0,0.0
1631,69.0,768,90,0.0,0.0
1632,69.0,0,780,0.0,0.0
1633,59.0,0,390,0.0,0.0
1634,51.0,432,390,0.0,0.0
1635,54.0,0,390,0.0,0.0
1636,63.0,0,390,0.0,0.0
1637,66.0,0,390,0.0,0.0
1638,66.0,0,780,0.0,0.0
1639,59.0,48,780,0.0,0.0
1640,63.0,0,780,0.0,0.0
1641,54.0,0,780,0.0,0.0
1642,57.0,0,780,0.0,0.0
1643,52.0,0,780,0.0,0.0
1644,78.0,288,180,0.0,0.0
1645,69.0,48,300,0.0,0.0
1646,69.0,768,90,0.0,0.0
1647,69.0,0,780,0.0,0.0
1648,66.0,432,390,0.0,0.0
1649,54.0,0,390,0.0,0.0
1650,63.0,0,390,0.0,0.0
1651,52.0,0,390,0.0,0.0
1652,59.0,0,390,0.0,0.0
1653,57.0,0,390,0.0,0.0
1654,64.0,48,780,0.0,0.0
1655,59.0,0,780,0.0,0.0
1656,55.0,0,780,0.0,0.0
1657,52.0,0,780,0.0,0.0
1658,76.0,288,180,0.0,0.0
1659,67.0,48,300,0.0,0.0
1660,67.0,768,90,0.0,0.0
1661,67.0,0,780,0.0,0.0
1662,52.0,0,390,0.0,0.0
1663,55.0,0,390,0.0,0.0
1664,64.0,0,390,0.0,0.0
1665,59.0,432,390,0.0,0.0
1666,59.0,0,780,0.0,0.0
1667,64.0,48,780,0.0,0.0
1668,55.0,0,780,0.0,0.0
1669,76.0,288,180,0.0,0.0
1670,67.0,48,300,0.0,0.0
1671,67.0,768,90,0.0,0.0
1672,67.0,0,780,0.0,0.0
1673,60.0,0,390,0.0,0.0
1674,64.0,432,390,0.0,0.0
1675,58.0,48,780,0.0,0.0
1676,64.0,0,780,0.0,0.0
1677,61.0,0,780,0.0,0.0
1678,76.0,288,180,0.0,0.0
1679,67.0,48,300,0.0,0.0
1680,67.0,401,90,0.0,0.0
1681,67.0,127,390,0.0,0.0
1682,67.0,288,90,0.0,0.0
1683,49.0,0,390,0.0,0.0
1684,46.0,0,390,0.0,0.0
1685,76.0,93,300,0.0,0.0
1686,64.0,248,780,0.0,0.0
1687,52.0,3,390,0.0,0.0
1688,67.0,384,90,0.0,0.0
1689,66.0,0,1110,0.0,0.0
1690,47.0,230,1110,0.0,0.0
1691,59.0,0,1110,0.0,0.0
1692,54.0,0,1110,0.0,0.0
1693,63.0,208,210,0.0,0.0
1694,61.0,261,210,0.0,0.0
1695,63.0,229,480,0.0,0.0
1696,71.0,0,390,0.0,0.0
1697,66.0,3,390,0.0,0.0
1698,51.0,0,390,0.0,0.0
1699,47.0,189,180,0.0,0.0
1700,63.0,0,390,0.0,0.0
1701,54.0,0,390,0.0,0.0
1702,59.0,0,390,0.0,0.0
1703,45.0,512,180,0.0,0.0
1704,68.0,92,510,0.0,0.0
1705,71.0,0,510,0.0,0.0
1706,59.0,0,780,0.0,0.0
1707,65.0,0,510,0.0,0.0
1708,47.0,16,780,0.0,0.0
1709,44.0,0,780,0.0,0.0
1710,53.0,0,780,0.0,0.0
1711,71.0,60,60,0.0,0.0
1712,69.0,77,60,0.0,0.0
1713,68.0,27,90,0.0,0.0
1714,66.0,60,60,0.0,0.0
1715,64.0,60,60,0.0,0.0
1716,62.0,60,60,0.0,0.0
1717,61.0,117,60,0.0,0.0
1718,59.0,71,120,0.0,0.0
1719,57.0,121,90,0.0,0.0
1720,56.0,71,120,0.0,0.0
1721,54.0,381,90,0.0,0.0
1722,53.0,3,390,0.0,0.0
1723,49.0,203,600,0.0,0.0
1724,68.0,0,180,0.0,0.0
1725,61.0,394,180,0.0,0.0
1726,71.0,0,180,0.0,0.0
1727,68.0,0,390,0.0,0.0
1728,42.0,135,1110,0.0,0.0
1729,54.0,0,1110,0.0,0.0
1730,61.0,6,390,0.0,0.0
1731,71.0,0,390,0.0,0.0
1732,61.0,0,210,0.0,0.0
1733,69.0,197,210,0.0,0.0
1734,66.0,0,210,0.0,0.0
1735,68.0,290,210,0.0,0.0
1736,59.0,11,180,0.0,0.0
1737,65.0,0,210,0.0,0.0
1738,61.0,0,420,0.0,0.0
1739,69.0,330,420,0.0,0.0
1740,66.0,0,420,0.0,0.0
1741,66.0,64,60,0.0,0.0
1742,64.0,64,60,0.0,0.0
1743,62.0,64,60,0.0,0.0
1744,61.0,62,60,0.0,0.0
1745,59.0,60,60,0.0,0.0
1746,57.0,60,60,0.0,0.0
1747,56.0,92,60,0.0,0.0
1748,54.0,92,90,0.0,0.0
1749,52.0,92,90,0.0,0.0
1750,50.0,92,90,0.0,0.0
1751,49.0,764,90,0.0,0.0
1752,48.0,0,780,0.0,0.0
1753,75.0,0,390,0.0,0.0
1754,66.0,0,390,0.0,0.0
1755,68.0,288,390,0.0,0.0
1756,56.0,0,390,0.0,0.0
1757,51.0,0,390,0.0,0.0
1758,68.0,3,390,0.0,0.0
1759,65.0,0,390,0.0,0.0
1760,49.0,7,960,0.0,0.0
1761,57.0,93,90,0.0,0.0
1762,59.0,192,90,0.0,0.0
1763,57.0,0,180,0.0,0.0
1764,66.0,0,180,0.0,0.0
1765,69.0,192,180,0.0,0.0
1766,71.0,0,180,0.0,0.0
1767,65.0,0,180,0.0,0.0
1768,56.0,96,180,0.0,0.0
1769,73.0,0,390,0.0,0.0
1770,57.0,2,390,0.0,0.0
1771,66.0,89,90,0.0,0.0
1772,65.0,96,90,0.0,0.0
1773,48.0,1,180,0.0,0.0
1774,66.0,93,90,0.0,0.0
1775,68.0,161,90,0.0,0.0
1776,68.0,96,150,0.0,0.0
1777,49.0,215,780,0.0,0.0
1778,53.0,78,390,0.0,0.0
1779,65.0,106,150,0.0,0.0
1780,68.0,18,180,0.0,0.0
1781,65.0,106,180,0.0,0.0
1782,59.0,3,390,0.0,0.0
1783,68.0,96,180,0.0,0.0
1784,65.0,29,180,0.0,0.0
1785,68.0,75,90,0.0,0.0
1786,65.0,369,300,0.0,0.0
1787,66.0,335,1710,0.0,0.0
1788,61.0,200,90,0.0,0.0
1789,62.0,6,1350,0.0,0.0
1790,58.0,324,90,0.0,0.0
1791,59.0,144,1140,0.0,0.0
1792,54.0,100,90,0.0,0.0
1793,49.0,100,90,0.0,0.0
1794,50.0,100,90,0.0,0.0
1795,46.0,100,90,0.0,0.0
1796,47.0,127,90,0.0,0.0
1797,41.0,304,120,0.0,0.0
1798,42.0,144,3000,0.0,0.0
1799,53.0,0,330,0.0,0.0
1800,47.0,33,300,0.0,0.0
1801,59.0,384,330,0.0,0.0
1802,68.0,0,330,0.0,0.0
1803,62.0,0,330,0.0,0.0
1804,49.0,0,330,0.0,0.0
1805,58.0,384,330,0.0,0.0
1806,66.0,0,330,0.0,0.0
1807,61.0,0,330,0.0,0.0
1808,54.0,0,330,0.0,0.0
1809,50.0,1438,330,0.0,0.0
1810,56.0,0,330,0.0,0.0
1811,65.0,0,330,0.0,0.0
1812,59.0,0,330,0.0,0.0
1813,66.0,849,1530,0.0,0.0
1814,61.0,4,1530,0.0,0.0
1815,58.0,4,1530,0.0,0.0
1816,54.0,4,1530,0.0,0.0
1817,49.0,4,1530,0.0,0.0
1818,54.0,96,90,0.0,0.0
1819,56.0,192,90,0.0,0.0
1820,57.0,96,180,0.0,0.0
1821,57.0,96,90,0.0,0.0
1822,59.0,192,90,0.0,0.0
1823,61.0,96,180,0.0,0.0
1824,57.0,0,180,0.0,0.0
1825,73.0,96,90,0.0,0.0
1826,66.0,192,90,0.0,0.0
1827,59.0,192,180,0.0,0.0
1828,74.0,0,180,0.0,0.0
1829,61.0,0,180,0.0,0.0
1830,73.0,96,180,0.0,0.0
1831,62.0,96,90,0.0,0.0
1832,71.0,192,180,0.0,0.0
1833,59.0,0,90,0.0,0.0
1834,66.0,96,390,0.0,0.0
1835,69.0,48,180,0.0,0.0
1836,69.0,48,40,0.0,0.0
1837,68.0,48,40,0.0,0.0
1838,69.0,48,40,0.0,0.0
1839,68.0,96,150,0.0,0.0
1840,65.0,192,180,0.0,0.0
1841,66.0,0,90,0.0,0.0
1842,66.0,96,180,0.0,0.0
1843,81.0,96,180,0.0,0.0
1844,54.0,0,180,0.0,0.0
1845,61.0,96,90,0.0,0.0
1846,63.0,0,90,0.0,0.0
1847,80.0,96,90,0.0,0.0
1848,61.0,0,570,0.0,0.0
1849,64.0,96,180,0.0,0.0
1850,81.0,0,90,0.0,0.0
1851,64.0,96,90,0.0,0.0
1852,80.0,0,90,0.0,0.0
1853,66.0,192,90,0.0,0.0
1854,78.0,0,90,0.0,0.0
1855,68.0,0,180,0.0,0.0
1856,76.0,96,180,0.0,0.0
1857,56.0,96,90,0.0,0.0
1858,64.0,192,180,0.0,0.0
1859,73.0,0,180,0.0,0.0
1860,49.0,0,90,0.0,0.0
1861,75.0,192,180,0.0,0.0
1862,57.0,0,180,0.0,0.0
1863,66.0,0,180,0.0,0.0
1864,77.0,0,180,0.0,0.0
1865,68.0,0,180,0.0,0.0
1866,56.0,96,180,0.0,0.0
1867,54.0,192,180,0.0,0.0
1868,69.0,96,90,0.0,0.0
1869,78.0,0,180,0.0,0.0
1870,66.0,0,90,0.0,0.0
1871,80.0,0,180,0.0,0.0
1872,52.0,192,180,0.0,0.0
1873,73.0,96,390,0.0,0.0
1874,51.0,96,300,0.0,0.0
1875,78.0,0,390,0.0,0.0
1876,72.0,96,180,0.0,0.0
1877,49.0,0,90,0.0,0.0
1878,49.0,96,180,0.0,0.0
1879,73.0,96,90,0.0,0.0
1880,77.0,0,180,0.0,0.0
1881,68.0,0,90,0.0,0.0
1882,76.0,0,180,0.0,0.0
1883,61.0,96,90,0.0,0.0
1884,70.0,96,180,0.0,0.0
1885,54.0,0,90,0.0,0.0
1886,59.0,0,180,0.0,0.0
1887,71.0,96,90,0.0,0.0
1888,75.0,96,180,0.0,0.0
1889,66.0,0,90,0.0,0.0
1890,59.0,96,90,0.0,0.0
1891,68.0,0,180,0.0,0.0
1892,74.0,0,180,0.0,0.0
1893,52.0,96,90,0.0,0.0
1894,57.0,96,180,0.0,0.0
1895,69.0,96,90,0.0,0.0
1896,73.0,0,180,0.0,0.0
1897,64.0,0,90,0.0,0.0
1898,57.0,96,90,0.0,0.0
1899,69.0,96,300,0.0,0.0
1900,73.0,96,180,0.0,0.0
1901,49.0,0,90,0.0,0.0
1902,72.0,0,180,0.0,0.0
1903,51.0,96,180,0.0,0.0
1904,63.0,0,90,0.0,0.0
1905,53.0,96,90,0.0,0.0
1906,68.0,96,300,0.0,0.0
1907,71.0,96,180,0.0,0.0
1908,49.0,0,90,0.0,0.0
1909,54.0,0,180,0.0,0.0
1910,70.0,96,180,0.0,0.0
1911,61.0,0,90,0.0,0.0
1912,50.0,96,90,0.0,0.0
1913,66.0,192,390,0.0,0.0
1914,69.0,96,180,0.0,0.0
1915,45.0,0,90,0.0,0.0
1916,68.0,0,180,0.0,0.0
1917,47.0,96,90,0.0,0.0
1918,44.0,0,90,0.0,0.0
1919,49.0,0,180,0.0,0.0
1920,65.0,0,180,0.0,0.0
1921,68.0,192,180,0.0,0.0
1922,42.0,96,570,0.0,0.0
1923,66.0,96,180,0.0,0.0
1924,66.0,96,90,0.0,0.0
1925,62.0,96,180,0.0,0.0
1926,68.0,0,90,0.0,0.0
1927,61.0,96,90,0.0,0.0
1928,69.0,0,180,0.0,0.0
1929,62.0,0,90,0.0,0.0
1930,69.0,96,90,0.0,0.0
1931,61.0,0,90,0.0,0.0
1932,59.0,192,90,0.0,0.0
1933,71.0,0,90,0.0,0.0
1934,57.0,91,180,0.0,0.0
1935,73.0,0,180,0.0,0.0
1936,61.0,96,90,0.0,0.0
1937,69.0,192,180,0.0,0.0
1938,54.0,5,90,0.0,0.0
1939,54.0,0,90,0.0,0.0
1940,71.0,0,180,0.0,0.0
1941,62.0,0,180,0.0,0.0
1942,56.0,192,180,0.0,0.0
1943,58.0,96,180,0.0,0.0
1944,61.0,0,180,0.0,0.0
1945,73.0,0,180,0.0,0.0
1946,59.0,192,180,0.0,0.0
1947,74.0,96,90,0.0,0.0
1948,71.0,0,90,0.0,0.0
1949,78.0,96,480,0.0,0.0
1950,57.0,192,180,0.0,0.0
1951,61.0,0,180,0.0,0.0
1952,56.0,96,180,0.0,0.0
1953,59.0,0,390,0.0,0.0
1954,49.0,96,180,0.0,0.0
1955,77.0,0,90,0.0,0.0
1956,54.0,0,180,0.0,0.0
1957,58.0,96,180,0.0,0.0
1958,78.0,96,90,0.0,0.0
1959,73.0,0,90,0.0,0.0
1960,75.0,96,180,0.0,0.0
1961,54.0,96,90,0.0,0.0
1962,57.0,0,180,0.0,0.0
1963,47.0,0,90,0.0,0.0
1964,52.0,96,180,0.0,0.0
1965,56.0,0,180,0.0,0.0
1966,76.0,96,90,0.0,0.0
1967,71.0,0,90,0.0,0.0
1968,52.0,96,90,0.0,0.0
1969,55.0,0,180,0.0,0.0
1970,73.0,0,180,0.0,0.0
1971,45.0,96,90,0.0,0.0
1972,50.0,96,180,0.0,0.0
1973,54.0,0,180,0.0,0.0
1974,74.0,96,90,0.0,0.0
1975,69.0,0,90,0.0,0.0
1976,50.0,96,90,0.0,0.0
1977,66.0,0,180,0.0,0.0
1978,74.0,96,300,0.0,0.0
1979,42.0,96,90,0.0,0.0
1980,44.0,96,180,0.0,0.0
1981,65.0,0,180,0.0,0.0
1982,68.0,0,90,0.0,0.0
1983,46.0,96,90,0.0,0.0
1984,64.0,96,180,0.0,0.0
1985,73.0,96,300,0.0,0.0
1986,42.0,0,90,0.0,0.0
1987,47.0,96,180,0.0,0.0
1988,63.0,0,180,0.0,0.0
1989,66.0,0,90,0.0,0.0
1990,50.0,96,90,0.0,0.0
1991,62.0,96,180,0.0,0.0
1992,71.0,0,390,0.0,0.0
1993,47.0,0,90,0.0,0.0
1994,52.0,96,90,0.0,0.0
1995,61.0,161,180,0.0,0.0
1996,49.0,0,90,0.0,0.0
1997,70.0,31,150,0.0,0.0
1998,54.0,96,390,0.0,0.0
1999,61.0,96,180,0.0,0.0
2000,63.0,0,180,0.0,0.0
2001,72.0,96,90,0.0,0.0
2002,68.0,0,90,0.0,0.0
2003,52.0,96,90,0.0,0.0
2004,64.0,96,180,0.0,0.0
2005,73.0,96,390,0.0,0.0
2006,49.0,0,90,0.0,0.0
2007,63.0,0,180,0.0,0.0
2008,54.0,96,90,0.0,0.0
2009,51.0,0,90,0.0,0.0
2010,56.0,96,90,0.0,0.0
2011,63.0,96,180,0.0,0.0
2012,71.0,0,390,0.0,0.0
2013,51.0,0,90,0.0,0.0
2014,53.0,96,90,0.0,0.0
2015,61.0,0,180,0.0,0.0
2016,49.0,96,90,0.0,0.0
2017,54.0,96,90,0.0,0.0
2018,61.0,0,390,0.0,0.0
2019,69.0,96,300,0.0,0.0
2020,45.0,96,90,0.0,0.0
2021,47.0,96,180,0.0,0.0
2022,63.0,0,90,0.0,0.0
2023,44.0,0,180,0.0,0.0
2024,59.0,145,180,0.0,0.0
2025,68.0,96,90,0.0,0.0
2026,63.0,0,90,0.0,0.0
2027,49.0,10,570,0.0,0.0
2028,59.0,79,210,0.0,0.0
2029,65.0,63,150,0.0,0.0
2030,61.0,11,180,0.0,0.0
2031,57.0,96,180,0.0,0.0
2032,73.0,96,90,0.0,0.0
2033,66.0,0,90,0.0,0.0
2034,56.0,0,180,0.0,0.0
2035,71.0,86,90,0.0,0.0
2036,65.0,96,90,0.0,0.0
2037,54.0,0,180,0.0,0.0
2038,69.0,96,90,0.0,0.0
2039,48.0,149,180,0.0,0.0
2040,63.0,0,90,0.0,0.0
2041,49.0,0,180,0.0,0.0
2042,53.0,78,180,0.0,0.0
2043,68.0,32,150,0.0,0.0
2044,61.0,69,150,0.0,0.0
2045,76.0,96,480,0.0,0.0
2046,73.0,96,90,0.0,0.0
2047,68.0,96,90,0.0,0.0
2048,70.0,96,90,0.0,0.0
2049,66.0,96,90,0.0,0.0
2050,71.0,109,300,0.0,0.0
2051,74.0,96,90,0.0,0.0
2052,73.0,90,210,0.0,0.0
2053,69.0,3,120,0.0,0.0
2054,78.0,96,480,0.0,0.0
2055,68.0,96,90,0.0,0.0
2056,66.0,96,90,0.0,0.0
2057,68.0,96,90,0.0,0.0
2058,61.0,96,90,0.0,0.0
2059,73.0,101,300,0.0,0.0
2060,76.0,104,90,0.0,0.0
2061,75.0,91,210,0.0,0.0
2062,71.0,2,120,0.0,0.0
2063,80.0,96,390,0.0,0.0
2064,70.0,96,90,0.0,0.0
2065,68.0,96,90,0.0,0.0
2066,70.0,96,90,0.0,0.0
2067,63.0,0,90,0.0,0.0
2068,78.0,0,390,0.0,0.0
2069,75.0,96,90,0.0,0.0
2070,70.0,96,90,0.0,0.0
2071,72.0,96,90,0.0,0.0
2072,68.0,91,90,0.0,0.0
2073,73.0,5,90,0.0,0.0
2074,76.0,192,90,0.0,0.0
2075,73.0,7,270,0.0,0.0
2076,78.0,89,90,0.0,0.0
2077,75.0,96,90,0.0,0.0
2078,80.0,96,90,0.0,0.0
2079,72.0,192,180,0.0,0.0
2080,75.0,0,90,0.0,0.0
2081,76.0,15,300,0.0,0.0
2082,73.0,97,180,0.0,0.0
2083,49.0,96,90,0.0,0.0
2084,69.0,96,180,0.0,0.0
2085,51.0,0,90,0.0,0.0
2086,68.0,96,90,0.0,0.0
2087,52.0,96,180,0.0,0.0
2088,69.0,0,90,0.0,0.0
2089,68.0,0,90,0.0,0.0
2090,52.0,96,90,0.0,0.0
2091,66.0,192,90,0.0,0.0
2092,54.0,0,90,0.0,0.0
2093,64.0,3,390,0.0,0.0
2094,56.0,96,180,0.0,0.0
2095,80.0,93,90,0.0,0.0
2096,61.0,0,180,0.0,0.0
2097,52.0,0,180,0.0,0.0
2098,73.0,192,90,0.0,0.0
2099,81.0,0,180,0.0,0.0
2100,63.0,192,180,0.0,0.0
2101,54.0,0,180,0.0,0.0
2102,80.0,96,180,0.0,0.0
2103,64.0,0,180,0.0,0.0
2104,56.0,0,180,0.0,0.0
2105,78.0,192,180,0.0,0.0
2106,66.0,0,180,0.0,0.0
2107,57.0,96,90,0.0,0.0
2108,54.0,0,90,0.0,0.0
2109,61.0,96,390,0.0,0.0
2110,76.0,48,180,0.0,0.0
2111,68.0,0,180,0.0,0.0
2112,76.0,48,40,0.0,0.0
2113,66.0,192,390,0.0,0.0
2114,75.0,48,40,0.0,0.0
2115,76.0,48,40,0.0,0.0
2116,75.0,96,150,0.0,0.0
2117,60.0,0,180,0.0,0.0
2118,73.0,0,90,0.0,0.0
2119,73.0,96,180,0.0,0.0
2120,64.0,0,180,0.0,0.0
2121,61.0,112,300,0.0,0.0
2122,76.0,96,390,0.0,0.0
2123,73.0,96,480,0.0,0.0
2124,59.0,96,90,0.0,0.0
2125,58.0,96,90,0.0,0.0
2126,54.0,0,90,0.0,0.0
2127,59.0,96,300,0.0,0.0
2128,74.0,0,390,0.0,0.0
2129,66.0,96,90,0.0,0.0
2130,71.0,96,480,0.0,0.0
2131,57.0,96,90,0.0,0.0
2132,74.0,96,180,0.0,0.0
2133,56.0,96,90,0.0,0.0
2134,52.0,0,90,0.0,0.0
2135,57.0,96,300,0.0,0.0
2136,73.0,96,570,0.0,0.0
2137,64.0,96,90,0.0,0.0
2138,69.0,96,660,0.0,0.0
2139,56.0,96,90,0.0,0.0
2140,54.0,96,90,0.0,0.0
2141,52.0,0,90,0.0,0.0
2142,50.0,96,90,0.0,0.0
2143,78.0,0,90,0.0,0.0
2144,49.0,96,90,0.0,0.0
2145,76.0,0,90,0.0,0.0
2146,47.0,0,180,0.0,0.0
2147,74.0,0,180,0.0,0.0
2148,68.0,96,90,0.0,0.0
2149,73.0,0,180,0.0,0.0
2150,45.0,96,180,0.0,0.0
2151,69.0,96,90,0.0,0.0
2152,64.0,96,180,0.0,0.0
2153,50.0,0,90,0.0,0.0
2154,66.0,0,90,0.0,0.0
2155,52.0,0,90,0.0,0.0
2156,62.0,96,90,0.0,0.0
2157,68.0,0,90,0.0,0.0
2158,61.0,96,180,0.0,0.0
2159,54.0,96,90,0.0,0.0
2160,69.0,96,390,0.0,0.0
2161,49.0,0,90,0.0,0.0
2162,59.0,0,390,0.0,0.0
2163,50.0,96,90,0.0,0.0
2164,47.0,0,90,0.0,0.0
2165,52.0,96,90,0.0,0.0
2166,68.0,0,180,0.0,0.0
2167,40.0,192,90,0.0,0.0
2168,69.0,16,780,0.0,0.0
2169,45.0,16,570,0.0,0.0
2170,61.0,108,180,0.0,0.0
2171,54.0,4,180,0.0,0.0
2172,57.0,96,90,0.0,0.0
2173,59.0,96,90,0.0,0.0
2174,61.0,0,180,0.0,0.0
2175,52.0,80,90,0.0,0.0
2176,54.0,96,90,0.0,0.0
2177,52.0,0,90,0.0,0.0
2178,61.0,80,90,0.0,0.0
2179,62.0,192,90,0.0,0.0
2180,50.0,0,90,0.0,0.0
2181,49.0,0,180,0.0,0.0
2182,64.0,96,180,0.0,0.0
2183,76.0,96,90,0.0,0.0
2184,64.0,0,180,0.0,0.0
2185,61.0,0,180,0.0,0.0
2186,69.0,192,90,0.0,0.0
2187,78.0,192,180,0.0,0.0
2188,62.0,0,180,0.0,0.0
2189,61.0,0,180,0.0,0.0
2190,76.0,96,180,0.0,0.0
2191,64.0,0,180,0.0,0.0
2192,74.0,192,180,0.0,0.0
2193,66.0,96,90,0.0,0.0
2194,59.0,0,180,0.0,0.0
2195,62.0,0,90,0.0,0.0
2196,61.0,192,180,0.0,0.0
2197,73.0,0,180,0.0,0.0
2198,69.0,96,390,0.0,0.0
2199,71.0,96,300,0.0,0.0
2200,62.0,0,180,0.0,0.0
2201,64.0,0,180,0.0,0.0
2202,68.0,8,180,0.0,0.0
2203,69.0,196,90,0.0,0.0
2204,57.0,4,180,0.0,0.0
2205,69.0,100,300,0.0,0.0
2206,64.0,92,90,0.0,0.0
2207,45.0,49,180,0.0,0.0
2208,61.0,0,180,0.0,0.0
2209,69.0,143,150,0.0,0.0
2210,47.0,96,180,0.0,0.0
2211,62.0,0,180,0.0,0.0
2212,68.0,96,180,0.0,0.0
2213,49.0,0,180,0.0,0.0
2214,64.0,96,300,0.0,0.0
2215,69.0,96,90,0.0,0.0
2216,50.0,100,180,0.0,0.0
2217,66.0,0,180,0.0,0.0
2218,62.0,100,180,0.0,0.0
2219,47.0,4,180,0.0,0.0
2220,71.0,100,300,0.0,0.0
2221,63.0,92,90,0.0,0.0
2222,49.0,0,180,0.0,0.0
2223,64.0,96,180,0.0,0.0
2224,69.0,96,180,0.0,0.0
2225,51.0,96,180,0.0,0.0
2226,66.0,96,300,0.0,0.0
2227,71.0,0,90,0.0,0.0
2228,52.0,0,180,0.0,0.0
2229,68.0,94,180,0.0,0.0
2230,64.0,106,180,0.0,0.0
2231,49.0,4,180,0.0,0.0
2232,76.0,100,300,0.0,0.0
2233,68.0,92,90,0.0,0.0
2234,69.0,0,180,0.0,0.0
2235,54.0,96,180,0.0,0.0
2236,74.0,96,180,0.0,0.0
2237,56.0,0,180,0.0,0.0
2238,71.0,96,300,0.0,0.0
2239,76.0,96,90,0.0,0.0
2240,57.0,0,180,0.0,0.0
2241,73.0,96,180,0.0,0.0
2242,69.0,96,180,0.0,0.0
2243,74.0,0,180,0.0,0.0
2244,54.0,96,180,0.0,0.0
2245,69.0,85,180,0.0,0.0
2246,56.0,96,180,0.0,0.0
2247,71.0,11,180,0.0,0.0
2248,68.0,96,180,0.0,0.0
2249,52.0,96,180,0.0,0.0
2250,73.0,0,180,0.0,0.0
2251,68.0,85,180,0.0,0.0
2252,69.0,11,180,0.0,0.0
2253,54.0,96,180,0.0,0.0
2254,66.0,96,180,0.0,0.0
2255,51.0,0,180,0.0,0.0
2256,71.0,96,180,0.0,0.0
2257,66.0,96,180,0.0,0.0
2258,52.0,0,180,0.0,0.0
2259,68.0,96,300,0.0,0.0
2260,59.0,96,90,0.0,0.0
2261,49.0,96,180,0.0,0.0
2262,64.0,96,300,0.0,0.0
2263,69.0,0,90,0.0,0.0
2264,44.0,96,180,0.0,0.0
2265,71.0,96,300,0.0,0.0
2266,59.0,0,90,0.0,0.0
2267,45.0,96,180,0.0,0.0
2268,61.0,96,300,0.0,0.0
2269,64.0,0,90,0.0,0.0
2270,42.0,0,180,0.0,0.0
2271,69.0,96,300,0.0,0.0
2272,61.0,96,90,0.0,0.0
2273,47.0,96,180,0.0,0.0
2274,63.0,96,300,0.0,0.0
2275,66.0,0,90,0.0,0.0
2276,44.0,96,180,0.0,0.0
2277,71.0,96,300,0.0,0.0
2278,63.0,0,90,0.0,0.0
2279,49.0,0,180,0.0,0.0
2280,64.0,96,300,0.0,0.0
2281,68.0,96,90,0.0,0.0
2282,45.0,96,180,0.0,0.0
2283,73.0,96,300,0.0,0.0
2284,64.0,0,90,0.0,0.0
2285,54.0,96,180,0.0,0.0
2286,69.0,96,300,0.0,0.0
2287,73.0,0,90,0.0,0.0
2288,51.0,0,180,0.0,0.0
2289,78.0,96,300,0.0,0.0
2290,69.0,96,90,0.0,0.0
2291,52.0,49,180,0.0,0.0
2292,68.0,0,180,0.0,0.0
2293,76.0,143,150,0.0,0.0
2294,45.0,96,180,0.0,0.0
2295,66.0,0,180,0.0,0.0
2296,76.0,96,180,0.0,0.0
2297,47.0,0,180,0.0,0.0
2298,66.0,0,180,0.0,0.0
2299,75.0,341,90,0.0,0.0
2300,76.0,201,480,0.0,0.0
2301,40.0,90,390,0.0,0.0
2302,64.0,40,330,0.0,0.0
2303,76.0,96,180,0.0,0.0
2304,80.0,96,180,0.0,0.0
2305,72.0,96,180,0.0,0.0
2306,78.0,96,180,0.0,0.0
2307,73.0,96,180,0.0,0.0
2308,76.0,96,180,0.0,0.0
2309,66.0,96,180,0.0,0.0
2310,75.0,96,180,0.0,0.0
2311,69.0,96,180,0.0,0.0
2312,73.0,96,180,0.0,0.0
2313,68.0,96,180,0.0,0.0
2314,72.0,96,180,0.0,0.0
2315,66.0,192,180,0.0,0.0
2316,75.0,0,90,0.0,0.0
2317,68.0,96,180,0.0,0.0
2318,64.0,0,180,0.0,0.0
2319,52.0,0,90,0.0,0.0
2320,73.0,96,180,0.0,0.0
2321,64.0,96,390,0.0,0.0
2322,51.0,96,90,0.0,0.0
2323,49.0,0,90,0.0,0.0
2324,66.0,0,180,0.0,0.0
2325,51.0,96,90,0.0,0.0
2326,46.0,0,90,0.0,0.0
2327,48.0,96,90,0.0,0.0
2328,66.0,96,180,0.0,0.0
2329,63.0,96,390,0.0,0.0
2330,44.0,0,90,0.0,0.0
2331,64.0,0,180,0.0,0.0
2332,49.0,96,90,0.0,0.0
2333,51.0,0,90,0.0,0.0
2334,64.0,0,180,0.0,0.0
2335,61.0,192,390,0.0,0.0
2336,52.0,96,90,0.0,0.0
2337,49.0,96,90,0.0,0.0
2338,54.0,96,90,0.0,0.0
2339,63.0,0,180,0.0,0.0
2340,51.0,0,90,0.0,0.0
2341,63.0,281,180,0.0,0.0
2342,60.0,0,180,0.0,0.0
2343,56.0,0,180,0.0,0.0
2344,61.0,177,360,0.0,0.0
2345,49.0,70,270,0.0,0.0
2346,69.0,96,180,0.0,0.0
2347,73.0,96,180,0.0,0.0
2348,65.0,96,180,0.0,0.0
2349,71.0,96,180,0.0,0.0
2350,66.0,96,180,0.0,0.0
2351,69.0,96,180,0.0,0.0
2352,59.0,96,180,0.0,0.0
2353,68.0,96,180,0.0,0.0
2354,62.0,96,180,0.0,0.0
2355,66.0,96,180,0.0,0.0
2356,61.0,96,180,0.0,0.0
2357,65.0,96,180,0.0,0.0
2358,59.0,91,180,0.0,0.0
2359,68.0,0,90,0.0,0.0
2360,61.0,96,180,0.0,0.0
2361,57.0,101,90,0.0,0.0
2362,57.0,0,90,0.0,0.0
2363,69.0,96,390,0.0,0.0
2364,61.0,96,180,0.0,0.0
2365,56.0,96,90,0.0,0.0
2366,54.0,0,90,0.0,0.0
2367,59.0,0,180,0.0,0.0
2368,56.0,96,90,0.0,0.0
2369,51.0,0,90,0.0,0.0
2370,68.0,96,390,0.0,0.0
2371,59.0,0,180,0.0,0.0
2372,53.0,96,90,0.0,0.0
2373,49.0,96,90,0.0,0.0
2374,54.0,96,90,0.0,0.0
2375,57.0,0,180,0.0,0.0
2376,49.0,0,90,0.0,0.0
2377,66.0,0,390,0.0,0.0
2378,57.0,96,180,0.0,0.0
2379,50.0,96,90,0.0,0.0
2380,45.0,0,90,0.0,0.0
2381,56.0,192,180,0.0,0.0
2382,47.0,96,90,0.0,0.0
2383,44.0,0,90,0.0,0.0
2384,65.0,241,180,0.0,0.0
2385,56.0,0,180,0.0,0.0
2386,49.0,0,180,0.0,0.0
2387,42.0,48,780,0.0,0.0
2388,66.0,95,240,0.0,0.0
2389,54.0,48,570,0.0,0.0
2390,66.0,96,90,0.0,0.0
2391,68.0,144,90,0.0,0.0
2392,69.0,96,180,0.0,0.0
2393,66.0,48,90,0.0,0.0
2394,69.0,0,90,0.0,0.0
2395,68.0,192,90,0.0,0.0
2396,71.0,0,90,0.0,0.0
2397,69.0,96,180,0.0,0.0
2398,73.0,0,180,0.0,0.0
2399,49.0,96,90,0.0,0.0
2400,69.0,0,180,0.0,0.0
2401,73.0,0,180,0.0,0.0
2402,42.0,192,90,0.0,0.0
2403,47.0,192,180,0.0,0.0
2404,71.0,0,180,0.0,0.0
2405,74.0,0,180,0.0,0.0
2406,73.0,0,180,0.0,0.0
2407,49.0,96,180,0.0,0.0
2408,69.0,0,180,0.0,0.0
2409,50.0,96,90,0.0,0.0
2410,68.0,96,300,0.0,0.0
2411,71.0,0,180,0.0,0.0
2412,47.0,96,90,0.0,0.0
2413,54.0,0,90,0.0,0.0
2414,69.0,96,180,0.0,0.0
2415,66.0,96,180,0.0,0.0
2416,45.0,0,90,0.0,0.0
2417,47.0,0,90,0.0,0.0
2418,68.0,96,300,0.0,0.0
2419,44.0,96,90,0.0,0.0
2420,66.0,0,90,0.0,0.0
2421,49.0,6,180,0.0,0.0
2422,64.0,106,480,0.0,0.0
2423,68.0,100,90,0.0,0.0
2424,70.0,96,90,0.0,0.0
2425,42.0,8,570,0.0,0.0
2426,66.0,86,90,0.0,0.0
2427,71.0,96,300,0.0,0.0
2428,62.0,96,90,0.0,0.0
2429,61.0,0,180,0.0,0.0
2430,71.0,88,90,0.0,0.0
2431,69.0,96,90,0.0,0.0
2432,42.0,0,90,0.0,0.0
2433,66.0,96,180,0.0,0.0
2434,38.0,0,90,0.0,0.0
2435,74.0,96,180,0.0,0.0
2436,45.0,0,180,0.0,0.0
2437,64.0,8,180,0.0,0.0
2438,74.0,88,90,0.0,0.0
2439,69.0,96,180,0.0,0.0
2440,73.0,96,90,0.0,0.0
2441,45.0,0,90,0.0,0.0
2442,42.0,0,90,0.0,0.0
2443,78.0,96,180,0.0,0.0
2444,49.0,96,300,0.0,0.0
2445,68.0,96,180,0.0,0.0
2446,78.0,0,90,0.0,0.0
2447,77.0,0,180,0.0,0.0
2448,68.0,96,180,0.0,0.0
2449,61.0,0,90,0.0,0.0
2450,58.0,96,90,0.0,0.0
2451,73.0,0,180,0.0,0.0
2452,78.0,96,300,0.0,0.0
2453,54.0,96,90,0.0,0.0
2454,59.0,96,300,0.0,0.0
2455,74.0,0,90,0.0,0.0
2456,73.0,0,90,0.0,0.0
2457,76.0,96,90,0.0,0.0
2458,71.0,0,180,0.0,0.0
2459,74.0,96,180,0.0,0.0
2460,57.0,0,90,0.0,0.0
2461,56.0,96,90,0.0,0.0
2462,71.0,0,390,0.0,0.0
2463,75.0,0,180,0.0,0.0
2464,54.0,96,90,0.0,0.0
2465,56.0,96,90,0.0,0.0
2466,76.0,96,300,0.0,0.0
2467,52.0,96,90,0.0,0.0
2468,73.0,0,90,0.0,0.0
2469,57.0,96,300,0.0,0.0
2470,71.0,96,90,0.0,0.0
2471,74.0,0,90,0.0,0.0
2472,69.0,96,180,0.0,0.0
2473,73.0,0,180,0.0,0.0
2474,57.0,0,90,0.0,0.0
2475,56.0,96,90,0.0,0.0
2476,69.0,96,180,0.0,0.0
2477,73.0,0,180,0.0,0.0
2478,54.0,0,90,0.0,0.0
2479,53.0,96,90,0.0,0.0
2480,68.0,96,180,0.0,0.0
2481,73.0,96,300,0.0,0.0
2482,49.0,0,90,0.0,0.0
2483,54.0,96,300,0.0,0.0
2484,69.0,0,90,0.0,0.0
2485,68.0,96,90,0.0,0.0
2486,71.0,0,90,0.0,0.0
2487,69.0,0,180,0.0,0.0
2488,66.0,96,180,0.0,0.0
2489,52.0,0,90,0.0,0.0
2490,50.0,96,90,0.0,0.0
2491,66.0,96,480,0.0,0.0
2492,69.0,96,300,0.0,0.0
2493,49.0,96,90,0.0,0.0
2494,50.0,96,180,0.0,0.0
2495,69.0,0,90,0.0,0.0
2496,51.0,96,180,0.0,0.0
2497,71.0,96,300,0.0,0.0
2498,66.0,0,90,0.0,0.0
2499,52.0,96,180,0.0,0.0
2500,68.0,96,300,0.0,0.0
2501,71.0,0,90,0.0,0.0
2502,53.0,96,180,0.0,0.0
2503,73.0,96,300,0.0,0.0
2504,68.0,0,90,0.0,0.0
2505,69.0,96,300,0.0,0.0
2506,54.0,96,180,0.0,0.0
2507,73.0,0,90,0.0,0.0
2508,74.0,96,300,0.0,0.0
2509,42.0,96,180,0.0,0.0
2510,69.0,0,90,0.0,0.0
2511,44.0,96,180,0.0,0.0
2512,71.0,96,300,0.0,0.0
2513,74.0,0,90,0.0,0.0
2514,76.0,96,300,0.0,0.0
2515,56.0,96,180,0.0,0.0
2516,71.0,0,90,0.0,0.0
2517,57.0,0,180,0.0,0.0
2518,73.0,96,300,0.0,0.0
2519,76.0,96,90,0.0,0.0
2520,78.0,96,300,0.0,0.0
2521,45.0,96,180,0.0,0.0
2522,73.0,0,90,0.0,0.0
2523,47.0,96,180,0.0,0.0
2524,74.0,3,390,0.0,0.0
2525,78.0,0,90,0.0,0.0
2526,59.0,0,180,0.0,0.0
2527,79.0,93,90,0.0,0.0
2528,78.0,192,90,0.0,0.0
2529,61.0,96,180,0.0,0.0
2530,77.0,3,390,0.0,0.0
2531,73.0,0,90,0.0,0.0
2532,49.0,192,180,0.0,0.0
2533,68.0,93,90,0.0,0.0
2534,71.0,0,90,0.0,0.0
2535,54.0,0,180,0.0,0.0
2536,69.0,96,480,0.0,0.0
2537,78.0,96,90,0.0,0.0
2538,73.0,96,90,0.0,0.0
2539,42.0,96,180,0.0,0.0
2540,76.0,0,90,0.0,0.0
2541,47.0,96,180,0.0,0.0
2542,74.0,3,390,0.0,0.0
2543,69.0,0,90,0.0,0.0
2544,59.0,192,180,0.0,0.0
2545,68.0,93,90,0.0,0.0
2546,71.0,0,90,0.0,0.0
2547,61.0,0,180,0.0,0.0
2548,65.0,3,390,0.0,0.0
2549,73.0,96,90,0.0,0.0
2550,49.0,192,180,0.0,0.0
2551,68.0,93,90,0.0,0.0
2552,71.0,0,90,0.0,0.0
2553,54.0,96,180,0.0,0.0
2554,69.0,96,480,0.0,0.0
2555,66.0,0,90,0.0,0.0
2556,42.0,0,180,0.0,0.0
2557,61.0,96,90,0.0,0.0
2558,64.0,96,90,0.0,0.0
2559,47.0,1,600,0.0,0.0
2560,62.0,119,480,0.0,0.0
2561,69.0,96,90,0.0,0.0
2562,67.0,96,90,0.0,0.0
2563,71.0,96,90,0.0,0.0
2564,65.0,94,210,0.0,0.0
2565,61.0,112,210,0.0,0.0
2566,66.0,29,390,0.0,0.0
2567,45.0,10,210,0.0,0.0
2568,61.0,106,120,0.0,0.0
2569,44.0,2,210,0.0,0.0
2570,59.0,72,120,0.0,0.0
2571,62.0,105,120,0.0,0.0
2572,49.0,9,210,0.0,0.0
2573,56.0,95,120,0.0,0.0
2574,65.0,0,210,0.0,0.0
2575,59.0,1155,120,0.0,0.0
2576,66.0,0,1140,0.0,0.0
2577,42.0,0,1140,0.0,0.0
2578,57.0,611,1140,0.0,0.0
2579,61.0,3,390,0.0,0.0
2580,56.0,189,90,0.0,0.0
2581,57.0,63,330,0.0,0.0
2582,53.0,129,90,0.0,0.0
2583,54.0,351,240,0.0,0.0
2584,49.0,49,90,0.0,0.0
2585,50.0,21,1530,0.0,0.0
2586,66.0,3,390,0.0,0.0
2587,61.0,189,90,0.0,0.0
2588,62.0,63,330,0.0,0.0
2589,58.0,129,90,0.0,0.0
2590,59.0,698,240,0.0,0.0
2591,54.0,49,90,0.0,0.0
2592,56.0,13,780,0.0,0.0
2593,71.0,1,660,0.0,0.0
2594,68.0,283,570,0.0,0.0
2595,64.0,3,480,0.0,0.0
2596,76.0,4,390,0.0,0.0
2597,56.0,48,90,0.0,0.0
2598,58.0,48,40,0.0,0.0
2599,59.0,384,40,0.0,0.0
2600,49.0,5,1530,0.0,0.0
2601,67.0,3,390,0.0,0.0
2602,63.0,189,90,0.0,0.0
2603,64.0,63,330,0.0,0.0
2604,59.0,129,90,0.0,0.0
2605,61.0,714,240,0.0,0.0
2606,56.0,49,90,0.0,0.0
2607,58.0,13,780,0.0,0.0
2608,73.0,1,660,0.0,0.0
2609,70.0,139,570,0.0,0.0
2610,64.0,3,480,0.0,0.0
2611,76.0,4,390,0.0,0.0
2612,59.0,96,90,0.0,0.0
2613,58.0,48,90,0.0,0.0
2614,59.0,56,40,0.0,0.0
2615,61.0,381,40,0.0,0.0
2616,50.0,382,1140,0.0,0.0
2617,67.0,11,180,0.0,0.0
2618,64.0,192,90,0.0,0.0
2619,66.0,3,390,0.0,0.0
2620,61.0,189,90,0.0,0.0
2621,62.0,334,240,0.0,0.0
2622,58.0,49,90,0.0,0.0
2623,59.0,69,900,0.0,0.0
2624,78.0,1,660,0.0,0.0
2625,74.0,134,570,0.0,0.0
2626,71.0,3,480,0.0,0.0
2627,83.0,4,390,0.0,0.0
2628,62.0,64,90,0.0,0.0
2629,59.0,64,90,0.0,0.0
2630,62.0,64,90,0.0,0.0
2631,59.0,64,90,0.0,0.0
2632,62.0,64,90,0.0,0.0
2633,59.0,64,90,0.0,0.0
2634,62.0,688,90,0.0,0.0
2635,56.0,47,960,0.0,0.0
2636,71.0,0,390,0.0,0.0
2637,50.0,192,390,0.0,0.0
2638,68.0,0,390,0.0,0.0
2639,64.0,1,1140,0.0,0.0
2640,76.0,126,480,0.0,0.0
2641,49.0,0,780,0.0,0.0
2642,71.0,49,180,0.0,0.0
2643,54.0,96,90,0.0,0.0
2644,52.0,96,90,0.0,0.0
2645,57.0,2,390,0.0,0.0
2646,69.0,1,90,0.0,0.0
2647,74.0,112,120,0.0,0.0
2648,73.0,46,120,0.0,0.0
2649,71.0,48,40,0.0,0.0
2650,69.0,432,40,0.0,0.0
2651,69.0,48,420,0.0,0.0
2652,71.0,48,40,0.0,0.0
2653,69.0,48,40,0.0,0.0
2654,67.0,32,40,0.0,0.0
2655,66.0,32,30,0.0,0.0
2656,64.0,32,30,0.0,0.0
2657,63.0,32,30,0.0,0.0
2658,61.0,32,30,0.0,0.0
2659,59.0,32,30,0.0,0.0
2660,61.0,32,30,0.0,0.0
2661,63.0,32,30,0.0,0.0
2662,64.0,32,30,0.0,0.0
2663,66.0,32,30,0.0,0.0
2664,67.0,448,30,0.0,0.0
2665,69.0,5,720,0.0,0.0
2666,59.0,0,240,0.0,0.0
2667,54.0,0,240,0.0,0.0
2668,66.0,0,240,0.0,0.0
2669,51.0,283,240,0.0,0.0
2670,66.0,49,300,0.0,0.0
2671,52.0,0,780,0.0,0.0
2672,55.0,0,780,0.0,0.0
2673,59.0,45,780,0.0,0.0
2674,64.0,142,240,0.0,0.0
2675,69.0,40,40,0.0,0.0
2676,67.0,40,40,0.0,0.0
2677,69.0,40,40,0.0,0.0
2678,67.0,52,40,0.0,0.0
2679,66.0,19,60,0.0,0.0
2680,67.0,98,180,0.0,0.0
2681,76.0,67,150,0.0,0.0
2682,67.0,288,90,0.0,0.0
2683,67.0,48,300,0.0,0.0
2684,69.0,48,40,0.0,0.0
2685,67.0,48,40,0.0,0.0
2686,66.0,48,40,0.0,0.0
2687,64.0,24,40,0.0,0.0
2688,66.0,24,20,0.0,0.0
2689,67.0,24,20,0.0,0.0
2690,69.0,24,20,0.0,0.0
2691,71.0,27,20,0.0,0.0
2692,73.0,21,30,0.0,0.0
2693,75.0,144,20,0.0,0.0
2694,76.0,48,150,0.0,0.0
2695,67.0,432,40,0.0,0.0
2696,66.0,96,780,0.0,0.0
2697,46.0,249,240,0.0,0.0
2698,61.0,39,180,0.0,0.0
2699,64.0,0,180,0.0,0.0
2700,54.0,0,240,0.0,0.0
2701,49.0,0,240,0.0,0.0
2702,61.0,0,240,0.0,0.0
2703,64.0,48,240,0.0,0.0
2704,47.0,0,420,0.0,0.0
2705,50.0,0,420,0.0,0.0
2706,54.0,59,420,0.0,0.0
2707,62.0,37,150,0.0,0.0
2708,61.0,192,90,0.0,0.0
2709,55.0,79,630,0.0,0.0
2710,62.0,65,570,0.0,0.0
2711,67.0,50,390,0.0,0.0
2712,71.0,144,180,0.0,0.0
2713,50.0,0,420,0.0,0.0
2714,47.0,1,420,0.0,0.0
2715,72.0,45,90,0.0,0.0
2716,74.0,144,90,0.0,0.0
2717,48.0,189,570,0.0,0.0
2718,64.0,95,480,0.0,0.0
2719,60.0,96,90,0.0,0.0
2720,59.0,97,90,0.0,0.0
2721,60.0,163,390,0.0,0.0
2722,55.0,57,60,0.0,0.0
2723,57.0,60,60,0.0,0.0
2724,59.0,59,60,0.0,0.0
2725,60.0,59,60,0.0,0.0
2726,62.0,88,60,0.0,0.0
2727,64.0,31,90,0.0,0.0
2728,59.0,88,60,0.0,0.0
2729,60.0,30,90,0.0,0.0
2730,55.0,59,60,0.0,0.0
2731,52.0,60,60,0.0,0.0
2732,55.0,88,60,0.0,0.0
2733,48.0,30,90,0.0,0.0
2734,52.0,88,60,0.0,0.0
2735,55.0,31,90,0.0,0.0
2736,50.0,88,60,0.0,0.0
2737,52.0,30,90,0.0,0.0
2738,47.0,88,60,0.0,0.0
2739,48.0,31,90,0.0,0.0
2740,43.0,59,60,0.0,0.0
2741,40.0,59,60,0.0,0.0
2742,43.0,529,60,0.0,0.0
2743,36.0,43,540,0.0,0.0
2744,79.0,5,40,0.0,0.0
2745,77.0,48,40,0.0,0.0
2746,76.0,48,40,0.0,0.0
2747,74.0,48,40,0.0,0.0
2748,72.0,48,40,0.0,0.0
2749,71.0,192,40,0.0,0.0
2750,70.0,96,180,0.0,0.0
2751,64.0,0,390,0.0,0.0
2752,66.0,0,390,0.0,0.0
2753,52.0,96,90,0.0,0.0
2754,49.0,3,390,0.0,0.0
2755,55.0,96,90,0.0,0.0
2756,54.0,93,90,0.0,0.0
2757,52.0,384,90,0.0,0.0
2758,66.0,0,780,0.0,0.0
2759,71.0,0,780,0.0,0.0
2760,54.0,0,780,0.0,0.0
2761,59.0,0,780,0.0,0.0
2762,47.0,192,780,0.0,0.0
2763,64.0,384,390,0.0,0.0
2764,63.0,1437,570,0.0,0.0
2765,45.0,1,870,0.0,0.0
2766,48.0,1,840,0.0,0.0
2767,53.0,1,810,0.0,0.0
2768,57.0,0,780,0.0,0.0
2769,60.0,185,780,0.0,0.0
2770,65.0,2,750,0.0,0.0
2771,69.0,1,720,0.0,0.0
2772,72.0,5,690,0.0,0.0
2773,64.0,47,90,0.0,0.0
2774,45.0,0,780,0.0,0.0
2775,54.0,288,780,0.0,0.0
2776,59.0,0,780,0.0,0.0
2777,63.0,48,40,0.0,0.0
2778,64.0,48,40,0.0,0.0
2779,63.0,48,40,0.0,0.0
2780,64.0,48,40,0.0,0.0
2781,63.0,48,40,0.0,0.0
2782,64.0,381,40,0.0,0.0
2783,63.0,3,390,0.0,0.0
2784,63.0,0,90,0.0,0.0
2785,59.0,576,90,0.0,0.0
2786,45.0,0,90,0.0,0.0
2787,54.0,0,90,0.0,0.0
2788,43.0,384,570,0.0,0.0
2789,55.0,0,570,0.0,0.0
2790,64.0,0,570,0.0,0.0
2791,59.0,0,570,0.0,0.0
2792,71.0,48,40,0.0,0.0
2793,73.0,48,40,0.0,0.0
2794,75.0,48,40,0.0,0.0
2795,76.0,48,40,0.0,0.0
2796,78.0,48,40,0.0,0.0
2797,79.0,48,40,0.0,0.0
2798,81.0,64,40,0.0,0.0
2799,83.0,64,60,0.0,0.0
2800,81.0,64,60,0.0,0.0
2801,79.0,64,60,0.0,0.0
2802,81.0,64,60,0.0,0.0
2803,79.0,64,60,0.0,0.0
2804,78.0,64,60,0.0,0.0
2805,79.0,64,60,0.0,0.0
2806,78.0,64,60,0.0,0.0
2807,76.0,64,60,0.0,0.0
2808,78.0,64,60,0.0,0.0
2809,76.0,64,60,0.0,0.0
2810,75.0,91,60,0.0,0.0
2811,76.0,37,90,0.0,0.0
2812,79.0,64,60,0.0,0.0
2813,76.0,91,60,0.0,0.0
2814,71.0,37,90,0.0,0.0
2815,76.0,64,60,0.0,0.0
2816,71.0,91,60,0.0,0.0
2817,67.0,37,90,0.0,0.0
2818,71.0,64,60,0.0,0.0
2819,67.0,91,60,0.0,0.0
2820,64.0,37,90,0.0,0.0
2821,76.0,64,60,0.0,0.0
2822,71.0,101,60,0.0,0.0
2823,73.0,27,90,0.0,0.0
2824,76.0,64,60,0.0,0.0
2825,73.0,141,60,0.0,0.0
2826,69.0,24,150,0.0,0.0
2827,73.0,44,90,0.0,0.0
2828,76.0,463,90,0.0,0.0
2829,81.0,383,480,0.0,0.0
2830,61.0,0,180,0.0,0.0
2831,69.0,1,180,0.0,0.0
2832,73.0,0,180,0.0,0.0
2833,55.0,0,180,0.0,0.0
2834,57.0,0,180,0.0,0.0
2835,64.0,0,180,0.0,0.0
2836,76.0,0,180,0.0,0.0
2837,69.0,0,570,0.0,0.0
2838,66.0,0,810,0.0,0.0
2839,57.0,0,810,0.0,0.0
2840,62.0,14,810,0.0,0.0
2841,81.0,0,300,0.0,0.0
2842,54.0,0,810,0.0,0.0
2843,78.0,288,300,0.0,0.0
2844,74.0,99,570,0.0,0.0
2845,79.0,126,90,0.0,0.0
2846,78.0,82,150,0.0,0.0
2847,76.0,66,90,0.0,0.0
2848,74.0,97,60,0.0,0.0
2849,73.0,507,90,0.0,0.0
2850,54.0,0,510,0.0,0.0
2851,55.0,0,510,0.0,0.0
2852,62.0,0,510,0.0,0.0
2853,59.0,0,510,0.0,0.0
2854,67.0,0,510,0.0,0.0
2855,71.0,548,510,0.0,0.0
2856,64.0,0,540,0.0,0.0
2857,67.0,0,540,0.0,0.0
2858,73.0,0,540,0.0,0.0
2859,52.0,0,540,0.0,0.0
2860,61.0,0,540,0.0,0.0
2861,55.0,597,540,0.0,0.0
2862,54.0,0,570,0.0,0.0
2863,57.0,0,570,0.0,0.0
2864,74.0,77,570,0.0,0.0
2865,69.0,130,660,0.0,0.0
2866,62.0,0,570,0.0,0.0
2867,69.0,195,120,0.0,0.0
2868,69.0,209,180,0.0,0.0
2869,62.0,0,390,0.0,0.0
2870,55.0,0,390,0.0,0.0
2871,67.0,13,390,0.0,0.0
2872,71.0,209,180,0.0,0.0
2873,43.0,0,450,0.0,0.0
2874,64.0,128,210,0.0,0.0
2875,55.0,0,450,0.0,0.0
2876,59.0,7,450,0.0,0.0
2877,66.0,96,120,0.0,0.0
2878,62.0,73,90,0.0,0.0
2879,43.0,3,390,0.0,0.0
2880,62.0,44,60,0.0,0.0
2881,57.0,5,180,0.0,0.0
2882,52.0,0,390,0.0,0.0
2883,61.0,43,60,0.0,0.0
2884,62.0,47,40,0.0,0.0
2885,61.0,44,60,0.0,0.0
2886,62.0,48,40,0.0,0.0
2887,61.0,48,40,0.0,0.0
2888,59.0,45,40,0.0,0.0
2889,57.0,381,40,0.0,0.0
2890,57.0,0,390,0.0,0.0
2891,42.0,92,390,0.0,0.0
2892,54.0,0,390,0.0,0.0
2893,62.0,103,480,0.0,0.0
2894,47.0,174,390,0.0,0.0
2895,54.0,13,360,0.0,0.0
2896,61.0,96,90,0.0,0.0
2897,59.0,83,90,0.0,0.0
2898,57.0,17,90,0.0,0.0
2899,56.0,1,180,0.0,0.0
2900,54.0,96,90,0.0,0.0
2901,55.0,192,390,0.0,0.0
2902,52.0,96,90,0.0,0.0
2903,50.0,189,90,0.0,0.0
2904,49.0,0,390,0.0,0.0
2905,64.0,0,390,0.0,0.0
2906,69.0,0,390,0.0,0.0
2907,61.0,2,390,0.0,0.0
2908,45.0,5,1530,0.0,0.0
2909,52.0,192,180,0.0,0.0
2910,62.0,0,390,0.0,0.0
2911,66.0,0,390,0.0,0.0
2912,69.0,0,390,0.0,0.0
2913,50.0,2,390,0.0,0.0
2914,54.0,190,180,0.0,0.0
2915,55.0,375,180,0.0,0.0
2916,64.0,3,810,0.0,0.0
2917,52.0,166,360,0.0,0.0
2918,69.0,23,1110,0.0,0.0
2919,57.0,37,780,0.0,0.0
2920,54.0,201,180,0.0,0.0
2921,61.0,22,390,0.0,0.0
2922,55.0,226,270,0.0,0.0
2923,54.0,0,390,0.0,0.0
2924,50.0,9,390,0.0,0.0
2925,62.0,26,240,0.0,0.0
2926,66.0,41,60,0.0,0.0
2927,62.0,55,60,0.0,0.0
2928,62.0,64,60,0.0,0.0
2929,66.0,64,60,0.0,0.0
2930,62.0,64,60,0.0,0.0
2931,61.0,64,60,0.0,0.0
2932,64.0,64,60,0.0,0.0
2933,61.0,64,60,0.0,0.0
2934,61.0,64,60,0.0,0.0
2935,64.0,64,60,0.0,0.0
2936,61.0,64,60,0.0,0.0
2937,62.0,64,60,0.0,0.0
2938,66.0,64,60,0.0,0.0
2939,62.0,64,60,0.0,0.0
2940,62.0,64,60,0.0,0.0
2941,66.0,64,60,0.0,0.0
2942,62.0,64,60,0.0,0.0
2943,61.0,64,60,0.0,0.0
2944,64.0,64,60,0.0,0.0
2945,61.0,64,60,0.0,0.0
2946,61.0,64,60,0.0,0.0
2947,64.0,64,60,0.0,0.0
2948,61.0,64,60,0.0,0.0
2949,57.0,0,120,0.0,0.0
2950,69.0,64,60,0.0,0.0
2951,73.0,64,60,0.0,0.0
2952,69.0,64,60,0.0,0.0
2953,59.0,0,60,0.0,0.0
2954,69.0,64,60,0.0,0.0
2955,61.0,64,120,0.0,0.0
2956,73.0,0,60,0.0,0.0
2957,69.0,0,60,0.0,0.0
2958,62.0,64,60,0.0,0.0
2959,68.0,64,60,0.0,0.0
2960,64.0,64,120,0.0,0.0
2961,71.0,0,60,0.0,0.0
2962,59.0,0,60,0.0,0.0
2963,68.0,64,60,0.0,0.0
2964,68.0,64,60,0.0,0.0
2965,52.0,64,120,0.0,0.0
2966,71.0,0,60,0.0,0.0
2967,68.0,0,60,0.0,0.0
2968,64.0,64,60,0.0,0.0
2969,69.0,64,60,0.0,0.0
2970,57.0,64,120,0.0,0.0
2971,73.0,0,60,0.0,0.0
2972,59.0,0,60,0.0,0.0
2973,69.0,64,60,0.0,0.0
2974,69.0,64,60,0.0,0.0
2975,61.0,64,120,0.0,0.0
2976,73.0,0,60,0.0,0.0
2977,69.0,64,60,0.0,0.0
2978,62.0,0,60,0.0,0.0
2979,68.0,64,60,0.0,0.0
2980,64.0,64,120,0.0,0.0
2981,71.0,0,60,0.0,0.0
2982,59.0,64,60,0.0,0.0
2983,68.0,0,60,0.0,0.0
2984,52.0,64,120,0.0,0.0
2985,68.0,64,60,0.0,0.0
2986,71.0,0,60,0.0,0.0
2987,64.0,0,60,0.0,0.0
2988,68.0,64,60,0.0,0.0
2989,69.0,64,60,0.0,0.0
2990,61.0,64,120,0.0,0.0
2991,73.0,0,60,0.0,0.0
2992,69.0,63,60,0.0,0.0
2993,61.0,0,60,0.0,0.0
2994,66.0,1,60,0.0,0.0
2995,62.0,64,60,0.0,0.0
2996,66.0,64,60,0.0,0.0
2997,66.0,64,60,0.0,0.0
2998,62.0,0,60,0.0,0.0
2999,67.0,64,60,0.0,0.0
3000,59.0,64,120,0.0,0.0
3001,71.0,0,60,0.0,0.0
3002,67.0,0,60,0.0,0.0
3003,59.0,63,60,0.0,0.0
3004,61.0,64,60,0.0,0.0
3005,64.0,1,60,0.0,0.0
3006,64.0,64,60,0.0,0.0
3007,64.0,64,60,0.0,0.0
3008,61.0,0,60,0.0,0.0
3009,66.0,64,60,0.0,0.0
3010,57.0,64,120,0.0,0.0
3011,69.0,0,60,0.0,0.0
3012,66.0,63,60,0.0,0.0
3013,57.0,0,60,0.0,0.0
3014,59.0,64,60,0.0,0.0
3015,62.0,1,60,0.0,0.0
3016,62.0,64,60,0.0,0.0
3017,62.0,64,60,0.0,0.0
3018,59.0,0,60,0.0,0.0
3019,64.0,64,60,0.0,0.0
3020,55.0,64,120,0.0,0.0
3021,67.0,0,60,0.0,0.0
3022,55.0,0,60,0.0,0.0
3023,64.0,63,60,0.0,0.0
3024,57.0,64,60,0.0,0.0
3025,61.0,1,60,0.0,0.0
3026,61.0,64,60,0.0,0.0
3027,57.0,0,60,0.0,0.0
3028,61.0,63,60,0.0,0.0
3029,62.0,64,120,0.0,0.0
3030,50.0,64,60,0.0,0.0
3031,54.0,1,60,0.0,0.0
3032,54.0,0,60,0.0,0.0
3033,50.0,64,60,0.0,0.0
3034,55.0,0,60,0.0,0.0
3035,64.0,0,60,0.0,0.0
3036,57.0,0,120,0.0,0.0
3037,50.0,64,60,0.0,0.0
3038,66.0,64,120,0.0,0.0
3039,54.0,0,60,0.0,0.0
3040,50.0,0,60,0.0,0.0
3041,68.0,64,60,0.0,0.0
3042,59.0,0,60,0.0,0.0
3043,69.0,63,180,0.0,0.0
3044,64.0,5,120,0.0,0.0
3045,49.0,59,60,0.0,0.0
3046,52.0,64,60,0.0,0.0
3047,49.0,0,60,0.0,0.0
3048,64.0,1,60,0.0,0.0
3049,57.0,0,120,0.0,0.0
3050,49.0,64,60,0.0,0.0
3051,52.0,64,60,0.0,0.0
3052,69.0,64,60,0.0,0.0
3053,49.0,0,60,0.0,0.0
3054,66.0,0,120,0.0,0.0
3055,62.0,64,120,0.0,0.0
3056,50.0,64,60,0.0,0.0
3057,54.0,0,60,0.0,0.0
3058,64.0,0,60,0.0,0.0
3059,50.0,0,60,0.0,0.0
3060,68.0,64,60,0.0,0.0
3061,69.0,0,120,0.0,0.0
3062,66.0,64,120,0.0,0.0
3063,50.0,64,60,0.0,0.0
3064,54.0,0,60,0.0,0.0
3065,71.0,64,60,0.0,0.0
3066,68.0,0,60,0.0,0.0
3067,50.0,0,60,0.0,0.0
3068,49.0,59,60,0.0,0.0
3069,69.0,63,180,0.0,0.0
3070,64.0,5,120,0.0,0.0
3071,52.0,64,60,0.0,0.0
3072,49.0,0,60,0.0,0.0
3073,64.0,1,60,0.0,0.0
3074,57.0,64,120,0.0,0.0
3075,49.0,64,60,0.0,0.0
3076,52.0,0,60,0.0,0.0
3077,49.0,64,60,0.0,0.0
3078,69.0,0,60,0.0,0.0
3079,50.0,64,120,0.0,0.0
3080,66.0,64,60,0.0,0.0
3081,69.0,0,60,0.0,0.0
3082,61.0,64,60,0.0,0.0
3083,52.0,0,60,0.0,0.0
3084,54.0,64,120,0.0,0.0
3085,62.0,64,60,0.0,0.0
3086,66.0,0,60,0.0,0.0
3087,57.0,63,60,0.0,0.0
3088,50.0,0,60,0.0,0.0
3089,59.0,1,60,0.0,0.0
3090,55.0,64,60,0.0,0.0
3091,59.0,64,60,0.0,0.0
3092,62.0,64,60,0.0,0.0
3093,47.0,0,60,0.0,0.0
3094,59.0,64,120,0.0,0.0
3095,50.0,64,60,0.0,0.0
3096,55.0,0,60,0.0,0.0
3097,62.0,64,60,0.0,0.0
3098,43.0,0,60,0.0,0.0
3099,67.0,64,60,0.0,0.0
3100,52.0,0,120,0.0,0.0
3101,71.0,64,60,0.0,0.0
3102,63.0,0,60,0.0,0.0
3103,54.0,64,60,0.0,0.0
3104,64.0,64,60,0.0,0.0
3105,55.0,64,120,0.0,0.0
3106,67.0,0,60,0.0,0.0
3107,59.0,0,60,0.0,0.0
3108,52.0,63,60,0.0,0.0
3109,61.0,1,60,0.0,0.0
3110,57.0,64,60,0.0,0.0
3111,61.0,64,60,0.0,0.0
3112,64.0,64,60,0.0,0.0
3113,49.0,0,60,0.0,0.0
3114,52.0,64,60,0.0,0.0
3115,61.0,64,120,0.0,0.0
3116,57.0,0,60,0.0,0.0
3117,64.0,64,60,0.0,0.0
3118,45.0,0,60,0.0,0.0
3119,69.0,64,60,0.0,0.0
3120,54.0,64,120,0.0,0.0
3121,73.0,0,60,0.0,0.0
3122,65.0,64,60,0.0,0.0
3123,56.0,0,60,0.0,0.0
3124,66.0,64,60,0.0,0.0
3125,57.0,64,120,0.0,0.0
3126,69.0,0,60,0.0,0.0
3127,54.0,0,60,0.0,0.0
3128,61.0,64,60,0.0,0.0
3129,62.0,59,60,0.0,0.0
3130,59.0,5,120,0.0,0.0
3131,66.0,64,60,0.0,0.0
3132,59.0,128,60,0.0,0.0
3133,67.0,64,330,0.0,0.0
3134,57.0,64,60,0.0,0.0
3135,55.0,64,60,0.0,0.0
3136,57.0,64,60,0.0,0.0
3137,50.0,0,60,0.0,0.0
3138,62.0,0,60,0.0,0.0
3139,66.0,64,60,0.0,0.0
3140,64.0,64,60,0.0,0.0
3141,62.0,64,120,0.0,0.0
3142,69.0,0,60,0.0,0.0
3143,64.0,64,60,0.0,0.0
3144,61.0,0,60,0.0,0.0
3145,62.0,0,120,0.0,0.0
3146,74.0,64,60,0.0,0.0
3147,66.0,4,120,0.0,0.0
3148,78.0,64,60,0.0,0.0
3149,67.0,64,60,0.0,0.0
3150,64.0,0,60,0.0,0.0
3151,74.0,0,60,0.0,0.0
3152,66.0,64,120,0.0,0.0
3153,69.0,0,120,0.0,0.0
3154,74.0,64,60,0.0,0.0
3155,78.0,0,60,0.0,0.0
3156,74.0,64,60,0.0,0.0
3157,71.0,0,60,0.0,0.0
3158,68.0,0,60,0.0,0.0
3159,69.0,64,120,0.0,0.0
3160,73.0,64,60,0.0,0.0
3161,76.0,0,60,0.0,0.0
3162,64.0,0,60,0.0,0.0
3163,73.0,64,60,0.0,0.0
3164,57.0,0,120,0.0,0.0
3165,73.0,64,60,0.0,0.0
3166,76.0,64,60,0.0,0.0
3167,69.0,64,60,0.0,0.0
3168,73.0,0,60,0.0,0.0
3169,62.0,64,120,0.0,0.0
3170,74.0,64,60,0.0,0.0
3171,66.0,0,120,0.0,0.0
3172,78.0,0,60,0.0,0.0
3173,74.0,0,60,0.0,0.0
3174,64.0,64,60,0.0,0.0
3175,67.0,0,60,0.0,0.0
3176,69.0,0,120,0.0,0.0
3177,74.0,64,60,0.0,0.0
3178,66.0,0,120,0.0,0.0
3179,78.0,64,60,0.0,0.0
3180,71.0,0,60,0.0,0.0
3181,68.0,64,60,0.0,0.0
3182,74.0,0,60,0.0,0.0
3183,69.0,64,120,0.0,0.0
3184,73.0,64,60,0.0,0.0
3185,76.0,0,60,0.0,0.0
3186,64.0,64,60,0.0,0.0
3187,73.0,0,60,0.0,0.0
3188,73.0,64,60,0.0,0.0
3189,57.0,68,120,0.0,0.0
3190,76.0,0,60,0.0,0.0
3191,75.0,64,60,0.0,0.0
3192,69.0,0,60,0.0,0.0
3193,66.0,0,60,0.0,0.0
3194,76.0,64,60,0.0,0.0
3195,64.0,0,120,0.0,0.0
3196,67.0,64,120,0.0,0.0
3197,79.0,0,60,0.0,0.0
3198,66.0,64,60,0.0,0.0
3199,69.0,0,60,0.0,0.0
3200,76.0,0,60,0.0,0.0
3201,76.0,64,60,0.0,0.0
3202,71.0,64,120,0.0,0.0
3203,67.0,0,120,0.0,0.0
3204,79.0,0,60,0.0,0.0
3205,72.0,0,60,0.0,0.0
3206,76.0,64,60,0.0,0.0
3207,69.0,0,60,0.0,0.0
3208,75.0,64,60,0.0,0.0
3209,71.0,64,120,0.0,0.0
3210,78.0,0,60,0.0,0.0
3211,75.0,64,60,0.0,0.0
3212,66.0,0,60,0.0,0.0
3213,75.0,64,60,0.0,0.0
3214,59.0,64,120,0.0,0.0
3215,78.0,0,60,0.0,0.0
3216,71.0,0,60,0.0,0.0
3217,75.0,64,60,0.0,0.0
3218,76.0,64,60,0.0,0.0
3219,64.0,0,120,0.0,0.0
3220,67.0,64,120,0.0,0.0
3221,79.0,0,60,0.0,0.0
3222,66.0,0,60,0.0,0.0
3223,76.0,64,60,0.0,0.0
3224,69.0,0,60,0.0,0.0
3225,71.0,64,120,0.0,0.0
3226,76.0,64,60,0.0,0.0
3227,67.0,0,120,0.0,0.0
3228,79.0,0,60,0.0,0.0
3229,69.0,0,60,0.0,0.0
3230,76.0,64,60,0.0,0.0
3231,72.0,0,60,0.0,0.0
3232,71.0,0,120,0.0,0.0
3233,75.0,64,60,0.0,0.0
3234,78.0,64,60,0.0,0.0
3235,75.0,64,60,0.0,0.0
3236,66.0,0,60,0.0,0.0
3237,59.0,53,120,0.0,0.0
3238,75.0,64,60,0.0,0.0
3239,78.0,0,60,0.0,0.0
3240,71.0,0,60,0.0,0.0
3241,75.0,79,60,0.0,0.0
3242,67.0,64,120,0.0,0.0
3243,71.0,0,120,0.0,0.0
3244,79.0,64,60,0.0,0.0
3245,83.0,0,60,0.0,0.0
3246,79.0,0,60,0.0,0.0
3247,69.0,0,60,0.0,0.0
3248,72.0,64,60,0.0,0.0
3249,71.0,64,120,0.0,0.0
3250,79.0,64,60,0.0,0.0
3251,74.0,0,120,0.0,0.0
3252,83.0,0,60,0.0,0.0
3253,79.0,64,60,0.0,0.0
3254,72.0,0,60,0.0,0.0
3255,76.0,0,60,0.0,0.0
3256,74.0,0,120,0.0,0.0
3257,78.0,64,60,0.0,0.0
3258,81.0,64,60,0.0,0.0
3259,78.0,64,60,0.0,0.0
3260,69.0,0,60,0.0,0.0
3261,62.0,64,120,0.0,0.0
3262,78.0,64,60,0.0,0.0
3263,81.0,0,60,0.0,0.0
3264,74.0,0,60,0.0,0.0
3265,78.0,64,60,0.0,0.0
3266,79.0,64,60,0.0,0.0
3267,67.0,0,120,0.0,0.0
3268,71.0,0,120,0.0,0.0
3269,83.0,64,60,0.0,0.0
3270,69.0,64,60,0.0,0.0
3271,72.0,0,60,0.0,0.0
3272,79.0,0,60,0.0,0.0
3273,74.0,64,120,0.0,0.0
3274,71.0,0,120,0.0,0.0
3275,79.0,64,60,0.0,0.0
3276,83.0,0,60,0.0,0.0
3277,76.0,64,60,0.0,0.0
3278,73.0,0,60,0.0,0.0
3279,79.0,0,60,0.0,0.0
3280,78.0,64,60,0.0,0.0
3281,74.0,9,120,0.0,0.0
3282,81.0,55,60,0.0,0.0
3283,73.0,64,60,0.0,0.0
3284,76.0,0,60,0.0,0.0
3285,74.0,39,120,0.0,0.0
3286,78.0,64,60,0.0,0.0
3287,81.0,25,90,0.0,0.0
3288,71.0,0,60,0.0,0.0
3289,74.0,64,60,0.0,0.0
3290,73.0,64,120,0.0,0.0
3291,76.0,64,60,0.0,0.0
3292,81.0,39,150,0.0,0.0
3293,74.0,25,60,0.0,0.0
3294,71.0,0,60,0.0,0.0
3295,76.0,64,60,0.0,0.0
3296,73.0,64,120,0.0,0.0
3297,81.0,9,180,0.0,0.0
3298,69.0,55,60,0.0,0.0
3299,73.0,0,60,0.0,0.0
3300,74.0,64,60,0.0,0.0
3301,71.0,64,120,0.0,0.0
3302,81.0,63,180,0.0,0.0
3303,69.0,64,60,0.0,0.0
3304,73.0,0,60,0.0,0.0
3305,74.0,1,60,0.0,0.0
3306,71.0,0,120,0.0,0.0
3307,81.0,64,60,0.0,0.0
3308,80.0,0,60,0.0,0.0
3309,64.0,64,60,0.0,0.0
3310,73.0,64,120,0.0,0.0
3311,69.0,0,120,0.0,0.0
3312,81.0,0,120,0.0,0.0
3313,45.0,64,60,0.0,0.0
3314,49.0,0,60,0.0,0.0
3315,71.0,0,60,0.0,0.0
3316,45.0,64,60,0.0,0.0
3317,73.0,0,120,0.0,0.0
3318,64.0,64,120,0.0,0.0
3319,45.0,64,60,0.0,0.0
3320,49.0,0,60,0.0,0.0
3321,66.0,0,60,0.0,0.0
3322,75.0,0,60,0.0,0.0
3323,45.0,64,60,0.0,0.0
3324,44.0,64,60,0.0,0.0
3325,76.0,0,120,0.0,0.0
3326,68.0,64,120,0.0,0.0
3327,47.0,0,60,0.0,0.0
3328,71.0,0,60,0.0,0.0
3329,44.0,64,60,0.0,0.0
3330,76.0,0,60,0.0,0.0
3331,64.0,0,180,0.0,0.0
3332,44.0,64,60,0.0,0.0
3333,76.0,0,120,0.0,0.0
3334,47.0,64,60,0.0,0.0
3335,76.0,64,60,0.0,0.0
3336,44.0,0,60,0.0,0.0
3337,61.0,64,120,0.0,0.0
3338,69.0,0,120,0.0,0.0
3339,45.0,64,60,0.0,0.0
3340,49.0,0,60,0.0,0.0
3341,71.0,0,60,0.0,0.0
3342,45.0,64,60,0.0,0.0
3343,62.0,0,60,0.0,0.0
3344,45.0,64,60,0.0,0.0
3345,64.0,0,120,0.0,0.0
3346,73.0,64,120,0.0,0.0
3347,49.0,0,60,0.0,0.0
3348,45.0,64,60,0.0,0.0
3349,66.0,0,60,0.0,0.0
3350,75.0,0,60,0.0,0.0
3351,76.0,0,120,0.0,0.0
3352,44.0,64,60,0.0,0.0
3353,68.0,64,120,0.0,0.0
3354,47.0,0,60,0.0,0.0
3355,44.0,0,60,0.0,0.0
3356,71.0,0,60,0.0,0.0
3357,76.0,64,60,0.0,0.0
3358,44.0,64,60,0.0,0.0
3359,76.0,0,120,0.0,0.0
3360,64.0,68,120,0.0,0.0
3361,47.0,0,60,0.0,0.0
3362,73.0,0,60,0.0,0.0
3363,66.0,0,60,0.0,0.0
3364,46.0,64,60,0.0,0.0
3365,47.0,64,60,0.0,0.0
3366,62.0,64,120,0.0,0.0
3367,71.0,0,120,0.0,0.0
3368,50.0,0,60,0.0,0.0
3369,64.0,64,60,0.0,0.0
3370,73.0,0,60,0.0,0.0
3371,47.0,0,60,0.0,0.0
3372,66.0,64,120,0.0,0.0
3373,74.0,0,120,0.0,0.0
3374,47.0,64,60,0.0,0.0
3375,50.0,0,60,0.0,0.0
3376,76.0,0,60,0.0,0.0
3377,68.0,64,60,0.0,0.0
3378,47.0,0,60,0.0,0.0
3379,78.0,64,120,0.0,0.0
3380,70.0,0,120,0.0,0.0
3381,46.0,64,60,0.0,0.0
3382,49.0,0,60,0.0,0.0
3383,46.0,0,60,0.0,0.0
3384,78.0,64,60,0.0,0.0
3385,73.0,0,60,0.0,0.0
3386,66.0,64,180,0.0,0.0
3387,78.0,0,120,0.0,0.0
3388,46.0,64,60,0.0,0.0
3389,49.0,64,60,0.0,0.0
3390,78.0,0,60,0.0,0.0
3391,46.0,0,60,0.0,0.0
3392,71.0,64,120,0.0,0.0
3393,47.0,64,60,0.0,0.0
3394,62.0,0,120,0.0,0.0
3395,50.0,0,60,0.0,0.0
3396,64.0,0,60,0.0,0.0
3397,73.0,64,60,0.0,0.0
3398,47.0,0,60,0.0,0.0
3399,74.0,64,120,0.0,0.0
3400,47.0,64,60,0.0,0.0
3401,66.0,0,120,0.0,0.0
3402,50.0,0,60,0.0,0.0
3403,47.0,64,60,0.0,0.0
3404,68.0,0,60,0.0,0.0
3405,76.0,0,60,0.0,0.0
3406,78.0,64,120,0.0,0.0
3407,70.0,0,120,0.0,0.0
3408,46.0,64,60,0.0,0.0
3409,49.0,0,60,0.0,0.0
3410,46.0,0,60,0.0,0.0
3411,78.0,0,60,0.0,0.0
3412,73.0,64,60,0.0,0.0
3413,78.0,0,120,0.0,0.0
3414,46.0,64,60,0.0,0.0
3415,66.0,0,120,0.0,0.0
3416,49.0,64,60,0.0,0.0
3417,78.0,64,60,0.0,0.0
3418,73.0,0,60,0.0,0.0
3419,46.0,0,60,0.0,0.0
3420,79.0,0,120,0.0,0.0
3421,74.0,0,60,0.0,0.0
3422,47.0,64,60,0.0,0.0
3423,71.0,0,60,0.0,0.0
3424,50.0,64,60,0.0,0.0
3425,74.0,64,60,0.0,0.0
3426,79.0,0,60,0.0,0.0
3427,47.0,0,60,0.0,0.0
3428,73.0,0,60,0.0,0.0
3429,78.0,0,120,0.0,0.0
3430,45.0,64,60,0.0,0.0
3431,69.0,64,60,0.0,0.0
3432,49.0,0,60,0.0,0.0
3433,73.0,0,60,0.0,0.0
3434,45.0,0,60,0.0,0.0
3435,78.0,64,60,0.0,0.0
3436,76.0,64,120,0.0,0.0
3437,43.0,64,60,0.0,0.0
3438,71.0,0,60,0.0,0.0
3439,47.0,0,60,0.0,0.0
3440,67.0,0,60,0.0,0.0
3441,71.0,64,60,0.0,0.0
3442,76.0,0,60,0.0,0.0
3443,43.0,0,60,0.0,0.0
3444,69.0,64,60,0.0,0.0
3445,74.0,0,120,0.0,0.0
3446,42.0,0,60,0.0,0.0
3447,66.0,0,60,0.0,0.0
3448,45.0,64,60,0.0,0.0
3449,74.0,64,60,0.0,0.0
3450,69.0,0,60,0.0,0.0
3451,42.0,0,60,0.0,0.0
3452,67.0,64,60,0.0,0.0
3453,73.0,64,120,0.0,0.0
3454,40.0,0,60,0.0,0.0
3455,43.0,0,60,0.0,0.0
3456,64.0,0,60,0.0,0.0
3457,73.0,0,60,0.0,0.0
3458,67.0,64,60,0.0,0.0
3459,40.0,0,60,0.0,0.0
3460,71.0,64,120,0.0,0.0
3461,66.0,0,120,0.0,0.0
3462,38.0,64,60,0.0,0.0
3463,50.0,0,60,0.0,0.0
3464,47.0,0,60,0.0,0.0
3465,71.0,64,60,0.0,0.0
3466,62.0,0,60,0.0,0.0
3467,71.0,0,120,0.0,0.0
3468,61.0,0,120,0.0,0.0
3469,52.0,64,60,0.0,0.0
3470,55.0,64,60,0.0,0.0
3471,64.0,64,60,0.0,0.0
3472,49.0,0,60,0.0,0.0
3473,71.0,0,60,0.0,0.0
3474,71.0,53,120,0.0,0.0
3475,62.0,64,60,0.0,0.0
3476,54.0,0,120,0.0,0.0
3477,66.0,0,60,0.0,0.0
3478,42.0,68,60,0.0,0.0
3479,70.0,0,60,0.0,0.0
3480,61.0,11,60,0.0,0.0
3481,47.0,64,120,0.0,0.0
3482,62.0,0,120,0.0,0.0
3483,71.0,64,60,0.0,0.0
3484,74.0,0,60,0.0,0.0
3485,49.0,64,60,0.0,0.0
3486,64.0,0,60,0.0,0.0
3487,71.0,0,60,0.0,0.0
3488,50.0,0,120,0.0,0.0
3489,71.0,64,60,0.0,0.0
3490,66.0,0,120,0.0,0.0
3491,74.0,64,60,0.0,0.0
3492,52.0,64,60,0.0,0.0
3493,67.0,0,60,0.0,0.0
3494,71.0,0,60,0.0,0.0
3495,61.0,0,120,0.0,0.0
3496,70.0,64,60,0.0,0.0
3497,54.0,64,120,0.0,0.0
3498,73.0,0,60,0.0,0.0
3499,64.0,0,60,0.0,0.0
3500,49.0,64,60,0.0,0.0
3501,70.0,0,60,0.0,0.0
3502,70.0,64,60,0.0,0.0
3503,42.0,64,120,0.0,0.0
3504,64.0,0,120,0.0,0.0
3505,73.0,0,60,0.0,0.0
3506,70.0,0,60,0.0,0.0
3507,54.0,64,60,0.0,0.0
3508,64.0,0,60,0.0,0.0
3509,62.0,0,120,0.0,0.0
3510,71.0,64,60,0.0,0.0
3511,47.0,0,120,0.0,0.0
3512,74.0,64,60,0.0,0.0
3513,71.0,0,60,0.0,0.0
3514,49.0,0,60,0.0,0.0
3515,64.0,64,60,0.0,0.0
3516,50.0,0,120,0.0,0.0
3517,66.0,0,120,0.0,0.0
3518,71.0,64,60,0.0,0.0
3519,74.0,64,60,0.0,0.0
3520,52.0,0,60,0.0,0.0
3521,67.0,64,60,0.0,0.0
3522,71.0,0,60,0.0,0.0
3523,61.0,0,120,0.0,0.0
3524,70.0,64,60,0.0,0.0
3525,54.0,64,120,0.0,0.0
3526,73.0,0,60,0.0,0.0
3527,49.0,0,60,0.0,0.0
3528,61.0,64,60,0.0,0.0
3529,70.0,0,60,0.0,0.0
3530,70.0,53,60,0.0,0.0
3531,61.0,0,120,0.0,0.0
3532,42.0,64,120,0.0,0.0
3533,73.0,11,60,0.0,0.0
3534,67.0,0,60,0.0,0.0
3535,69.0,0,60,0.0,0.0
3536,52.0,64,60,0.0,0.0
3537,50.0,0,120,0.0,0.0
3538,66.0,64,120,0.0,0.0
3539,74.0,64,60,0.0,0.0
3540,78.0,0,60,0.0,0.0
3541,74.0,0,60,0.0,0.0
3542,52.0,0,60,0.0,0.0
3543,67.0,64,60,0.0,0.0
3544,69.0,0,120,0.0,0.0
3545,54.0,64,120,0.0,0.0
3546,74.0,64,60,0.0,0.0
3547,78.0,0,60,0.0,0.0
3548,55.0,64,60,0.0,0.0
3549,71.0,0,60,0.0,0.0
3550,74.0,0,60,0.0,0.0
3551,73.0,64,60,0.0,0.0
3552,64.0,0,120,0.0,0.0
3553,57.0,64,120,0.0,0.0
3554,76.0,0,60,0.0,0.0
3555,73.0,64,60,0.0,0.0
3556,67.0,0,60,0.0,0.0
3557,52.0,0,60,0.0,0.0
3558,67.0,0,120,0.0,0.0
3559,73.0,64,60,0.0,0.0
3560,45.0,0,120,0.0,0.0
3561,76.0,64,60,0.0,0.0
3562,73.0,0,60,0.0,0.0
3563,67.0,64,60,0.0,0.0
3564,57.0,0,60,0.0,0.0
3565,74.0,64,60,0.0,0.0
3566,66.0,64,120,0.0,0.0
3567,50.0,0,120,0.0,0.0
3568,78.0,0,60,0.0,0.0
3569,67.0,0,60,0.0,0.0
3570,74.0,0,60,0.0,0.0
3571,52.0,64,60,0.0,0.0
3572,54.0,0,120,0.0,0.0
3573,74.0,64,60,0.0,0.0
3574,69.0,0,120,0.0,0.0
3575,78.0,64,60,0.0,0.0
3576,74.0,0,60,0.0,0.0
3577,55.0,0,60,0.0,0.0
3578,71.0,64,60,0.0,0.0
3579,57.0,0,120,0.0,0.0
3580,64.0,0,120,0.0,0.0
3581,73.0,64,60,0.0,0.0
3582,76.0,64,60,0.0,0.0
3583,52.0,0,60,0.0,0.0
3584,69.0,64,60,0.0,0.0
3585,73.0,0,60,0.0,0.0
3586,69.0,70,120,0.0,0.0
3587,73.0,64,60,0.0,0.0
3588,45.0,0,120,0.0,0.0
3589,76.0,0,60,0.0,0.0
3590,69.0,0,60,0.0,0.0
3591,73.0,64,60,0.0,0.0
3592,57.0,0,60,0.0,0.0
3593,54.0,0,120,0.0,0.0
3594,69.0,63,180,0.0,0.0
3595,78.0,64,60,0.0,0.0
3596,74.0,64,60,0.0,0.0
3597,78.0,0,60,0.0,0.0
3598,62.0,1,60,0.0,0.0
3599,80.0,64,60,0.0,0.0
3600,59.0,0,60,0.0,0.0
3601,83.0,64,60,0.0,0.0
3602,56.0,0,60,0.0,0.0
3603,80.0,64,60,0.0,0.0
3604,59.0,0,60,0.0,0.0
3605,76.0,64,60,0.0,0.0
3606,61.0,0,60,0.0,0.0
3607,73.0,64,60,0.0,0.0
3608,64.0,0,60,0.0,0.0
3609,76.0,0,60,0.0,0.0
3610,61.0,64,60,0.0,0.0
3611,78.0,64,60,0.0,0.0
3612,57.0,0,60,0.0,0.0
3613,81.0,64,60,0.0,0.0
3614,54.0,0,60,0.0,0.0
3615,78.0,64,60,0.0,0.0
3616,57.0,0,60,0.0,0.0
3617,74.0,64,60,0.0,0.0
3618,59.0,0,60,0.0,0.0
3619,71.0,64,60,0.0,0.0
3620,62.0,0,60,0.0,0.0
3621,74.0,64,60,0.0,0.0
3622,59.0,0,60,0.0,0.0
3623,56.0,0,60,0.0,0.0
3624,76.0,64,60,0.0,0.0
3625,52.0,0,60,0.0,0.0
3626,80.0,64,60,0.0,0.0
3627,56.0,64,60,0.0,0.0
3628,76.0,0,60,0.0,0.0
3629,73.0,0,60,0.0,0.0
3630,57.0,64,60,0.0,0.0
3631,69.0,64,60,0.0,0.0
3632,61.0,0,60,0.0,0.0
3633,69.0,0,60,0.0,0.0
3634,73.0,64,60,0.0,0.0
3635,57.0,0,60,0.0,0.0
3636,74.0,64,120,0.0,0.0
3637,59.0,64,60,0.0,0.0
3638,69.0,0,120,0.0,0.0
3639,62.0,0,60,0.0,0.0
3640,59.0,0,60,0.0,0.0
3641,74.0,64,60,0.0,0.0
3642,68.0,0,60,0.0,0.0
3643,61.0,0,60,0.0,0.0
3644,76.0,64,60,0.0,0.0
3645,69.0,0,120,0.0,0.0
3646,64.0,64,60,0.0,0.0
3647,73.0,0,60,0.0,0.0
3648,76.0,64,60,0.0,0.0
3649,69.0,0,60,0.0,0.0
3650,61.0,0,60,0.0,0.0
3651,62.0,64,60,0.0,0.0
3652,69.0,0,120,0.0,0.0
3653,78.0,0,120,0.0,0.0
3654,66.0,64,60,0.0,0.0
3655,71.0,63,60,0.0,0.0
3656,69.0,0,60,0.0,0.0
3657,62.0,0,60,0.0,0.0
3658,68.0,128,60,0.0,0.0
3659,71.0,1,60,0.0,0.0
3660,64.0,0,330,0.0,0.0
3661,71.0,17,300,0.0,0.0
3662,68.0,64,60,0.0,0.0
3663,68.0,64,60,0.0,0.0
3664,76.0,47,60,0.0,0.0
3665,68.0,64,60,0.0,0.0
3666,64.0,0,60,0.0,0.0
3667,66.0,64,60,0.0,0.0
3668,58.0,0,120,0.0,0.0
3669,76.0,64,60,0.0,0.0
3670,54.0,64,60,0.0,0.0
3671,66.0,0,60,0.0,0.0
3672,66.0,64,60,0.0,0.0
3673,47.0,0,120,0.0,0.0
3674,74.0,64,60,0.0,0.0
3675,66.0,64,60,0.0,0.0
3676,59.0,0,60,0.0,0.0
3677,64.0,64,60,0.0,0.0
3678,56.0,0,120,0.0,0.0
3679,74.0,64,60,0.0,0.0
3680,64.0,64,60,0.0,0.0
3681,52.0,0,60,0.0,0.0
3682,64.0,64,60,0.0,0.0
3683,45.0,64,120,0.0,0.0
3684,73.0,0,60,0.0,0.0
3685,64.0,0,60,0.0,0.0
3686,61.0,0,60,0.0,0.0
3687,57.0,64,60,0.0,0.0
3688,66.0,64,60,0.0,0.0
3689,62.0,64,120,0.0,0.0
3690,50.0,0,60,0.0,0.0
3691,68.0,0,60,0.0,0.0
3692,52.0,0,60,0.0,0.0
3693,54.0,0,60,0.0,0.0
3694,69.0,0,60,0.0,0.0
3695,61.0,64,60,0.0,0.0
3696,69.0,0,120,0.0,0.0
3697,59.0,0,120,0.0,0.0
3698,50.0,64,60,0.0,0.0
3699,47.0,64,60,0.0,0.0
3700,68.0,64,60,0.0,0.0
3701,59.0,0,60,0.0,0.0
3702,52.0,0,60,0.0,0.0
3703,61.0,63,180,0.0,0.0
3704,45.0,64,60,0.0,0.0
3705,69.0,0,330,0.0,0.0
3706,52.0,64,60,0.0,0.0
3707,57.0,1,60,0.0,0.0
3708,52.0,64,60,0.0,0.0
3709,61.0,68,60,0.0,0.0
3710,52.0,64,60,0.0,0.0
3711,73.0,0,60,0.0,0.0
3712,52.0,64,60,0.0,0.0
3713,70.0,64,120,0.0,0.0
3714,61.0,0,60,0.0,0.0
3715,52.0,64,60,0.0,0.0
3716,66.0,0,60,0.0,0.0
3717,71.0,0,60,0.0,0.0
3718,50.0,64,60,0.0,0.0
3719,59.0,64,60,0.0,0.0
3720,74.0,0,60,0.0,0.0
3721,50.0,64,60,0.0,0.0
3722,71.0,0,60,0.0,0.0
3723,50.0,64,60,0.0,0.0
3724,68.0,64,120,0.0,0.0
3725,59.0,0,60,0.0,0.0
3726,50.0,64,60,0.0,0.0
3727,64.0,0,60,0.0,0.0
3728,49.0,64,60,0.0,0.0
3729,69.0,0,60,0.0,0.0
3730,57.0,64,60,0.0,0.0
3731,73.0,0,60,0.0,0.0
3732,69.0,0,60,0.0,0.0
3733,49.0,64,60,0.0,0.0
3734,50.0,59,60,0.0,0.0
3735,66.0,5,120,0.0,0.0
3736,57.0,29,60,0.0,0.0
3737,74.0,35,90,0.0,0.0
3738,66.0,0,60,0.0,0.0
3739,50.0,64,60,0.0,0.0
3740,52.0,59,60,0.0,0.0
3741,64.0,5,120,0.0,0.0
3742,57.0,0,60,0.0,0.0
3743,73.0,64,60,0.0,0.0
3744,71.0,0,60,0.0,0.0
3745,52.0,0,60,0.0,0.0
3746,62.0,64,60,0.0,0.0
3747,56.0,0,60,0.0,0.0
3748,69.0,64,60,0.0,0.0
3749,45.0,64,120,0.0,0.0
3750,57.0,0,120,0.0,0.0
3751,61.0,0,120,0.0,0.0
3752,73.0,0,60,0.0,0.0
3753,69.0,0,60,0.0,0.0
3754,59.0,64,60,0.0,0.0
3755,62.0,0,60,0.0,0.0
3756,69.0,64,60,0.0,0.0
3757,61.0,64,120,0.0,0.0
3758,64.0,0,120,0.0,0.0
3759,73.0,0,60,0.0,0.0
3760,62.0,0,60,0.0,0.0
3761,66.0,64,60,0.0,0.0
3762,69.0,0,60,0.0,0.0
3763,68.0,64,60,0.0,0.0
3764,64.0,64,120,0.0,0.0
3765,71.0,0,60,0.0,0.0
3766,59.0,0,60,0.0,0.0
3767,68.0,64,60,0.0,0.0
3768,52.0,64,120,0.0,0.0
3769,68.0,64,60,0.0,0.0
3770,71.0,0,60,0.0,0.0
3771,64.0,64,60,0.0,0.0
3772,68.0,0,60,0.0,0.0
3773,57.0,64,120,0.0,0.0
3774,61.0,0,120,0.0,0.0
3775,69.0,64,60,0.0,0.0
3776,73.0,0,60,0.0,0.0
3777,59.0,0,60,0.0,0.0
3778,69.0,64,60,0.0,0.0
3779,62.0,0,60,0.0,0.0
3780,61.0,0,120,0.0,0.0
3781,64.0,64,120,0.0,0.0
3782,69.0,64,60,0.0,0.0
3783,73.0,0,60,0.0,0.0
3784,62.0,64,60,0.0,0.0
3785,66.0,0,60,0.0,0.0
3786,69.0,0,60,0.0,0.0
3787,68.0,64,60,0.0,0.0
3788,64.0,0,120,0.0,0.0
3789,71.0,64,60,0.0,0.0
3790,59.0,64,60,0.0,0.0
3791,68.0,0,60,0.0,0.0
3792,68.0,64,60,0.0,0.0
3793,52.0,53,120,0.0,0.0
3794,71.0,0,60,0.0,0.0
3795,64.0,79,60,0.0,0.0
3796,68.0,0,60,0.0,0.0
3797,67.0,64,60,0.0,0.0
3798,52.0,64,120,0.0,0.0
3799,76.0,0,60,0.0,0.0
3800,67.0,64,60,0.0,0.0
3801,54.0,0,60,0.0,0.0
3802,67.0,64,60,0.0,0.0
3803,55.0,64,120,0.0,0.0
3804,76.0,0,60,0.0,0.0
3805,67.0,64,60,0.0,0.0
3806,57.0,0,60,0.0,0.0
3807,66.0,64,60,0.0,0.0
3808,59.0,64,120,0.0,0.0
3809,75.0,0,60,0.0,0.0
3810,66.0,64,60,0.0,0.0
3811,54.0,0,60,0.0,0.0
3812,66.0,64,60,0.0,0.0
3813,47.0,0,120,0.0,0.0
3814,75.0,64,60,0.0,0.0
3815,66.0,64,60,0.0,0.0
3816,59.0,0,60,0.0,0.0
3817,67.0,64,60,0.0,0.0
3818,52.0,0,120,0.0,0.0
3819,76.0,64,60,0.0,0.0
3820,54.0,64,60,0.0,0.0
3821,67.0,0,60,0.0,0.0
3822,67.0,64,60,0.0,0.0
3823,55.0,64,120,0.0,0.0
3824,76.0,0,60,0.0,0.0
3825,57.0,0,60,0.0,0.0
3826,67.0,64,60,0.0,0.0
3827,66.0,64,60,0.0,0.0
3828,59.0,0,120,0.0,0.0
3829,75.0,64,60,0.0,0.0
3830,66.0,64,60,0.0,0.0
3831,54.0,0,60,0.0,0.0
3832,66.0,64,60,0.0,0.0
3833,47.0,53,120,0.0,0.0
3834,75.0,0,60,0.0,0.0
3835,66.0,79,60,0.0,0.0
3836,59.0,0,60,0.0,0.0
3837,55.0,64,60,0.0,0.0
3838,71.0,0,120,0.0,0.0
3839,67.0,0,120,0.0,0.0
3840,59.0,64,60,0.0,0.0
3841,55.0,0,60,0.0,0.0
3842,69.0,64,60,0.0,0.0
3843,72.0,0,60,0.0,0.0
3844,74.0,64,120,0.0,0.0
3845,55.0,64,60,0.0,0.0
3846,71.0,0,120,0.0,0.0
3847,59.0,0,60,0.0,0.0
3848,73.0,0,60,0.0,0.0
3849,76.0,0,60,0.0,0.0
3850,55.0,64,60,0.0,0.0
3851,54.0,64,60,0.0,0.0
3852,74.0,0,120,0.0,0.0
3853,78.0,64,120,0.0,0.0
3854,57.0,0,60,0.0,0.0
3855,76.0,0,60,0.0,0.0
3856,79.0,0,60,0.0,0.0
3857,54.0,64,60,0.0,0.0
3858,74.0,53,120,0.0,0.0
3859,54.0,64,60,0.0,0.0
3860,81.0,0,120,0.0,0.0
3861,57.0,0,60,0.0,0.0
3862,54.0,64,60,0.0,0.0
3863,74.0,11,60,0.0,0.0
3864,72.0,0,60,0.0,0.0
3865,71.0,0,120,0.0,0.0
3866,55.0,64,120,0.0,0.0
3867,79.0,64,60,0.0,0.0
3868,83.0,0,60,0.0,0.0
3869,79.0,0,60,0.0,0.0
3870,57.0,64,60,0.0,0.0
3871,72.0,0,60,0.0,0.0
3872,59.0,0,120,0.0,0.0
3873,74.0,0,120,0.0,0.0
3874,79.0,64,60,0.0,0.0
3875,83.0,64,60,0.0,0.0
3876,60.0,64,60,0.0,0.0
3877,79.0,0,60,0.0,0.0
3878,76.0,0,60,0.0,0.0
3879,62.0,0,120,0.0,0.0
3880,69.0,64,120,0.0,0.0
3881,78.0,64,60,0.0,0.0
3882,81.0,0,60,0.0,0.0
3883,57.0,64,60,0.0,0.0
3884,69.0,0,60,0.0,0.0
3885,78.0,0,60,0.0,0.0
3886,78.0,64,60,0.0,0.0
3887,50.0,73,120,0.0,0.0
3888,69.0,0,120,0.0,0.0
3889,81.0,0,60,0.0,0.0
3890,78.0,63,90,0.0,0.0
3891,69.0,0,60,0.0,0.0
3892,62.0,9,60,0.0,0.0
3893,74.0,0,150,0.0,0.0
3894,71.0,65,150,0.0,0.0
3895,59.0,72,60,0.0,0.0
3896,62.0,2,60,0.0,0.0
3897,76.0,0,60,0.0,0.0
3898,59.0,64,60,0.0,0.0
3899,73.0,0,60,0.0,0.0
3900,74.0,64,120,0.0,0.0
3901,59.0,64,60,0.0,0.0
3902,78.0,0,120,0.0,0.0
3903,62.0,0,60,0.0,0.0
3904,79.0,0,60,0.0,0.0
3905,59.0,64,60,0.0,0.0
3906,76.0,0,60,0.0,0.0
3907,58.0,64,60,0.0,0.0
3908,73.0,0,120,0.0,0.0
3909,78.0,64,120,0.0,0.0
3910,61.0,0,60,0.0,0.0
3911,73.0,0,60,0.0,0.0
3912,79.0,0,60,0.0,0.0
3913,58.0,64,60,0.0,0.0
3914,58.0,64,60,0.0,0.0
3915,73.0,64,120,0.0,0.0
3916,78.0,0,120,0.0,0.0
3917,61.0,0,60,0.0,0.0
3918,58.0,0,60,0.0,0.0
3919,73.0,64,60,0.0,0.0
3920,76.0,0,60,0.0,0.0
3921,71.0,64,120,0.0,0.0
3922,74.0,0,120,0.0,0.0
3923,59.0,64,60,0.0,0.0
3924,62.0,0,60,0.0,0.0
3925,59.0,0,60,0.0,0.0
3926,83.0,64,60,0.0,0.0
3927,74.0,0,60,0.0,0.0
3928,59.0,64,60,0.0,0.0
3929,73.0,0,120,0.0,0.0
3930,82.0,64,120,0.0,0.0
3931,62.0,0,60,0.0,0.0
3932,59.0,64,60,0.0,0.0
3933,74.0,0,60,0.0,0.0
3934,83.0,0,60,0.0,0.0
3935,78.0,0,330,0.0,0.0
3936,58.0,64,60,0.0,0.0
3937,73.0,64,390,0.0,0.0
3938,61.0,64,60,0.0,0.0
3939,58.0,64,60,0.0,0.0
3940,58.0,64,60,0.0,0.0
3941,61.0,64,60,0.0,0.0
3942,78.0,0,60,0.0,0.0
3943,58.0,0,60,0.0,0.0
3944,80.0,0,120,0.0,0.0
3945,59.0,64,60,0.0,0.0
3946,78.0,0,120,0.0,0.0
3947,62.0,64,60,0.0,0.0
3948,59.0,64,60,0.0,0.0
3949,78.0,0,60,0.0,0.0
3950,80.0,0,60,0.0,0.0
3951,60.0,64,60,0.0,0.0
3952,78.0,0,120,0.0,0.0
3953,80.0,64,120,0.0,0.0
3954,63.0,0,60,0.0,0.0
3955,78.0,0,60,0.0,0.0
3956,80.0,0,60,0.0,0.0
3957,60.0,64,60,0.0,0.0
3958,80.0,0,120,0.0,0.0
3959,61.0,64,60,0.0,0.0
3960,77.0,64,120,0.0,0.0
3961,65.0,0,60,0.0,0.0
3962,61.0,0,60,0.0,0.0
3963,80.0,64,60,0.0,0.0
3964,77.0,0,60,0.0,0.0
3965,59.0,64,60,0.0,0.0
3966,74.0,0,120,0.0,0.0
3967,80.0,0,120,0.0,0.0
3968,65.0,64,60,0.0,0.0
3969,59.0,64,60,0.0,0.0
3970,74.0,0,60,0.0,0.0
3971,80.0,0,60,0.0,0.0
3972,57.0,64,60,0.0,0.0
3973,73.0,64,120,0.0,0.0
3974,81.0,0,120,0.0,0.0
3975,66.0,0,60,0.0,0.0
3976,74.0,64,60,0.0,0.0
3977,59.0,0,60,0.0,0.0
3978,78.0,0,60,0.0,0.0
3979,78.0,64,120,0.0,0.0
3980,73.0,64,60,0.0,0.0
3981,61.0,0,120,0.0,0.0
3982,69.0,0,60,0.0,0.0
3983,68.0,0,60,0.0,0.0
3984,71.0,64,60,0.0,0.0
3985,77.0,0,60,0.0,0.0
3986,61.0,0,60,0.0,0.0
3987,69.0,0,120,0.0,0.0
3988,78.0,64,60,0.0,0.0
3989,66.0,0,120,0.0,0.0
3990,54.0,64,120,0.0,0.0
3991,81.0,0,60,0.0,0.0
3992,56.0,64,60,0.0,0.0
3993,71.0,0,60,0.0,0.0
3994,78.0,0,60,0.0,0.0
3995,73.0,64,120,0.0,0.0
3996,57.0,0,120,0.0,0.0
3997,78.0,64,60,0.0,0.0
3998,81.0,0,60,0.0,0.0
3999,74.0,0,60,0.0,0.0
4000,78.0,0,60,0.0,0.0
4001,59.0,64,60,0.0,0.0
4002,61.0,0,120,0.0,0.0
4003,68.0,64,120,0.0,0.0
4004,77.0,64,60,0.0,0.0
4005,80.0,0,60,0.0,0.0
4006,71.0,0,60,0.0,0.0
4007,77.0,0,60,0.0,0.0
4008,56.0,64,60,0.0,0.0
4009,71.0,0,120,0.0,0.0
4010,49.0,64,120,0.0,0.0
4011,77.0,64,60,0.0,0.0
4012,80.0,0,60,0.0,0.0
4013,61.0,64,60,0.0,0.0
4014,77.0,0,60,0.0,0.0
4015,71.0,0,60,0.0,0.0
4016,69.0,0,120,0.0,0.0
4017,54.0,64,120,0.0,0.0
4018,78.0,64,60,0.0,0.0
4019,81.0,0,60,0.0,0.0
4020,78.0,0,60,0.0,0.0
4021,56.0,64,60,0.0,0.0
4022,71.0,0,60,0.0,0.0
4023,57.0,0,120,0.0,0.0
4024,73.0,0,120,0.0,0.0
4025,78.0,64,60,0.0,0.0
4026,81.0,64,60,0.0,0.0
4027,59.0,64,60,0.0,0.0
4028,78.0,0,60,0.0,0.0
4029,74.0,0,60,0.0,0.0
4030,61.0,64,60,0.0,0.0
4031,68.0,62,330,0.0,0.0
4032,77.0,33,210,0.0,0.0
4033,56.0,64,60,0.0,0.0
4034,53.0,31,60,0.0,0.0
4035,49.0,67,60,0.0,0.0
4036,56.0,20,60,0.0,0.0
4037,61.0,75,90,0.0,0.0
4038,61.0,64,60,0.0,0.0
4039,64.0,64,60,0.0,0.0
4040,61.0,64,60,0.0,0.0
4041,61.0,64,60,0.0,0.0
4042,64.0,64,60,0.0,0.0
4043,61.0,64,60,0.0,0.0
4044,60.0,64,60,0.0,0.0
4045,63.0,64,60,0.0,0.0
4046,60.0,0,60,0.0,0.0
4047,68.0,64,60,0.0,0.0
4048,60.0,64,60,0.0,0.0
4049,75.0,64,120,0.0,0.0
4050,63.0,0,60,0.0,0.0
4051,60.0,0,60,0.0,0.0
4052,66.0,63,60,0.0,0.0
4053,61.0,64,60,0.0,0.0
4054,64.0,1,60,0.0,0.0
4055,64.0,64,60,0.0,0.0
4056,61.0,64,60,0.0,0.0
4057,68.0,0,60,0.0,0.0
4058,61.0,64,60,0.0,0.0
4059,73.0,0,120,0.0,0.0
4060,64.0,64,60,0.0,0.0
4061,76.0,64,60,0.0,0.0
4062,61.0,0,60,0.0,0.0
4063,60.0,64,60,0.0,0.0
4064,75.0,64,120,0.0,0.0
4065,63.0,0,60,0.0,0.0
4066,68.0,0,60,0.0,0.0
4067,60.0,64,60,0.0,0.0
4068,60.0,64,60,0.0,0.0
4069,80.0,64,120,0.0,0.0
4070,63.0,0,60,0.0,0.0
4071,80.0,0,60,0.0,0.0
4072,60.0,64,60,0.0,0.0
4073,78.0,0,60,0.0,0.0
4074,61.0,64,60,0.0,0.0
4075,76.0,64,120,0.0,0.0
4076,81.0,0,120,0.0,0.0
4077,64.0,0,60,0.0,0.0
4078,81.0,0,60,0.0,0.0
4079,61.0,64,60,0.0,0.0
4080,76.0,0,60,0.0,0.0
4081,80.0,0,120,0.0,0.0
4082,61.0,64,60,0.0,0.0
4083,76.0,64,120,0.0,0.0
4084,64.0,0,60,0.0,0.0
4085,61.0,64,60,0.0,0.0
4086,80.0,0,60,0.0,0.0
4087,76.0,0,60,0.0,0.0
4088,70.0,0,120,0.0,0.0
4089,61.0,64,60,0.0,0.0
4090,79.0,0,120,0.0,0.0
4091,64.0,64,60,0.0,0.0
4092,61.0,64,60,0.0,0.0
4093,70.0,0,60,0.0,0.0
4094,79.0,0,60,0.0,0.0
4095,80.0,0,120,0.0,0.0
4096,59.0,64,60,0.0,0.0
4097,71.0,64,120,0.0,0.0
4098,63.0,0,60,0.0,0.0
4099,59.0,0,60,0.0,0.0
4100,75.0,0,60,0.0,0.0
4101,80.0,64,60,0.0,0.0
4102,61.0,64,60,0.0,0.0
4103,80.0,0,120,0.0,0.0
4104,76.0,64,120,0.0,0.0
4105,64.0,0,60,0.0,0.0
4106,61.0,64,60,0.0,0.0
4107,70.0,0,60,0.0,0.0
4108,80.0,0,60,0.0,0.0
4109,63.0,64,60,0.0,0.0
4110,70.0,0,120,0.0,0.0
4111,79.0,64,120,0.0,0.0
4112,61.0,0,60,0.0,0.0
4113,73.0,0,60,0.0,0.0
4114,79.0,0,60,0.0,0.0
4115,63.0,123,60,0.0,0.0
4116,56.0,64,240,0.0,0.0
4117,71.0,5,120,0.0,0.0
4118,80.0,63,180,0.0,0.0
4119,75.0,64,60,0.0,0.0
4120,71.0,1,60,0.0,0.0
4121,68.0,0,60,0.0,0.0
4122,68.0,64,60,0.0,0.0
4123,80.0,0,60,0.0,0.0
4124,81.0,0,60,0.0,0.0
4125,66.0,64,60,0.0,0.0
4126,65.0,0,60,0.0,0.0
4127,83.0,64,60,0.0,0.0
4128,68.0,64,60,0.0,0.0
4129,74.0,0,60,0.0,0.0
4130,65.0,64,60,0.0,0.0
4131,83.0,0,60,0.0,0.0
4132,65.0,64,60,0.0,0.0
4133,83.0,0,60,0.0,0.0
4134,68.0,64,60,0.0,0.0
4135,74.0,0,60,0.0,0.0
4136,83.0,64,60,0.0,0.0
4137,65.0,0,60,0.0,0.0
4138,83.0,0,60,0.0,0.0
4139,65.0,64,60,0.0,0.0
4140,68.0,29,60,0.0,0.0
4141,73.0,35,90,0.0,0.0
4142,65.0,64,60,0.0,0.0
4143,83.0,0,60,0.0,0.0
4144,66.0,64,60,0.0,0.0
4145,73.0,63,180,0.0,0.0
4146,81.0,0,60,0.0,0.0
4147,69.0,64,60,0.0,0.0
4148,78.0,0,60,0.0,0.0
4149,64.0,1,60,0.0,0.0
4150,80.0,0,60,0.0,0.0
4151,63.0,64,60,0.0,0.0
4152,81.0,0,60,0.0,0.0
4153,66.0,64,60,0.0,0.0
4154,72.0,0,60,0.0,0.0
4155,63.0,64,60,0.0,0.0
4156,81.0,0,60,0.0,0.0
4157,81.0,0,60,0.0,0.0
4158,63.0,64,60,0.0,0.0
4159,66.0,64,60,0.0,0.0
4160,72.0,0,60,0.0,0.0
4161,81.0,0,60,0.0,0.0
4162,63.0,64,60,0.0,0.0
4163,63.0,0,60,0.0,0.0
4164,81.0,64,60,0.0,0.0
4165,66.0,29,60,0.0,0.0
4166,71.0,35,90,0.0,0.0
4167,63.0,64,60,0.0,0.0
4168,81.0,0,60,0.0,0.0
4169,64.0,64,60,0.0,0.0
4170,71.0,63,180,0.0,0.0
4171,80.0,0,60,0.0,0.0
4172,68.0,64,60,0.0,0.0
4173,76.0,0,60,0.0,0.0
4174,80.0,1,60,0.0,0.0
4175,64.0,0,60,0.0,0.0
4176,78.0,0,60,0.0,0.0
4177,60.0,64,60,0.0,0.0
4178,63.0,64,60,0.0,0.0
4179,69.0,0,60,0.0,0.0
4180,60.0,0,60,0.0,0.0
4181,78.0,64,60,0.0,0.0
4182,60.0,64,60,0.0,0.0
4183,78.0,0,60,0.0,0.0
4184,63.0,64,60,0.0,0.0
4185,69.0,0,60,0.0,0.0
4186,60.0,64,60,0.0,0.0
4187,78.0,0,60,0.0,0.0
4188,60.0,64,60,0.0,0.0
4189,78.0,0,60,0.0,0.0
4190,63.0,64,60,0.0,0.0
4191,68.0,0,60,0.0,0.0
4192,60.0,64,60,0.0,0.0
4193,78.0,0,60,0.0,0.0
4194,61.0,59,120,0.0,0.0
4195,76.0,64,60,0.0,0.0
4196,68.0,5,120,0.0,0.0
4197,61.0,64,60,0.0,0.0
4198,59.0,0,60,0.0,0.0
4199,77.0,0,60,0.0,0.0
4200,78.0,64,60,0.0,0.0
4201,58.0,0,120,0.0,0.0
4202,61.0,64,120,0.0,0.0
4203,73.0,0,60,0.0,0.0
4204,58.0,0,60,0.0,0.0
4205,76.0,0,60,0.0,0.0
4206,54.0,64,60,0.0,0.0
4207,59.0,64,120,0.0,0.0
4208,74.0,64,60,0.0,0.0
4209,71.0,0,60,0.0,0.0
4210,74.0,0,60,0.0,0.0
4211,56.0,64,60,0.0,0.0
4212,59.0,0,60,0.0,0.0
4213,73.0,0,120,0.0,0.0
4214,53.0,64,60,0.0,0.0
4215,61.0,64,120,0.0,0.0
4216,68.0,0,120,0.0,0.0
4217,56.0,0,60,0.0,0.0
4218,68.0,64,60,0.0,0.0
4219,71.0,0,60,0.0,0.0
4220,53.0,0,60,0.0,0.0
4221,61.0,0,60,0.0,0.0
4222,69.0,0,120,0.0,0.0
4223,68.0,0,120,0.0,0.0
4224,61.0,0,120,0.0,0.0
4225,54.0,64,60,0.0,0.0
4226,57.0,64,60,0.0,0.0
4227,54.0,0,60,0.0,0.0
4228,61.0,64,60,0.0,0.0
4229,66.0,0,60,0.0,0.0
4230,69.0,0,60,0.0,0.0
4231,59.0,64,120,0.0,0.0
4232,62.0,0,120,0.0,0.0
4233,67.0,64,60,0.0,0.0
4234,71.0,0,60,0.0,0.0
4235,47.0,0,60,0.0,0.0
4236,62.0,64,60,0.0,0.0
4237,59.0,0,60,0.0,0.0
4238,67.0,0,60,0.0,0.0
4239,47.0,0,120,0.0,0.0
4240,56.0,64,120,0.0,0.0
4241,61.0,0,120,0.0,0.0
4242,65.0,64,60,0.0,0.0
4243,73.0,0,60,0.0,0.0
4244,45.0,0,60,0.0,0.0
4245,66.0,0,60,0.0,0.0
4246,61.0,64,60,0.0,0.0
4247,57.0,0,60,0.0,0.0
4248,62.0,0,120,0.0,0.0
4249,47.0,64,120,0.0,0.0
4250,66.0,64,60,0.0,0.0
4251,56.0,0,120,0.0,0.0
4252,68.0,0,60,0.0,0.0
4253,49.0,0,60,0.0,0.0
4254,56.0,0,60,0.0,0.0
4255,61.0,0,60,0.0,0.0
4256,65.0,93,60,0.0,0.0
4257,66.0,5,120,0.0,0.0
4258,54.0,20,180,0.0,0.0
4259,57.0,30,90,0.0,0.0
4260,78.0,45,60,0.0,0.0
4261,77.0,65,60,0.0,0.0
4262,68.0,0,60,0.0,0.0
4263,78.0,0,120,0.0,0.0
4264,69.0,5,120,0.0,0.0
4265,54.0,60,60,0.0,0.0
4266,57.0,65,60,0.0,0.0
4267,54.0,0,60,0.0,0.0
4268,69.0,66,60,0.0,0.0
4269,74.0,65,330,0.0,0.0
4270,54.0,65,60,0.0,0.0
4271,57.0,65,60,0.0,0.0
4272,54.0,66,60,0.0,0.0
4273,69.0,0,60,0.0,0.0
4274,53.0,65,60,0.0,0.0
4275,68.0,64,510,0.0,0.0
4276,56.0,0,60,0.0,0.0
4277,74.0,65,60,0.0,0.0
4278,53.0,0,60,0.0,0.0
4279,53.0,65,60,0.0,0.0
4280,73.0,1,120,0.0,0.0
4281,56.0,65,60,0.0,0.0
4282,71.0,0,60,0.0,0.0
4283,53.0,65,60,0.0,0.0
4284,69.0,1,180,0.0,0.0
4285,54.0,66,60,0.0,0.0
4286,57.0,0,60,0.0,0.0
4287,68.0,65,60,0.0,0.0
4288,54.0,0,60,0.0,0.0
4289,69.0,0,120,0.0,0.0
4290,66.0,1,180,0.0,0.0
4291,50.0,65,60,0.0,0.0
4292,54.0,65,60,0.0,0.0
4293,50.0,65,60,0.0,0.0
4294,69.0,0,180,0.0,0.0
4295,62.0,1,180,0.0,0.0
4296,47.0,65,60,0.0,0.0
4297,50.0,65,60,0.0,0.0
4298,69.0,65,180,0.0,0.0
4299,47.0,65,60,0.0,0.0
4300,62.0,66,180,0.0,0.0
4301,47.0,65,60,0.0,0.0
4302,50.0,0,60,0.0,0.0
4303,67.0,1,180,0.0,0.0
4304,47.0,0,60,0.0,0.0
4305,61.0,65,180,0.0,0.0
4306,46.0,64,60,0.0,0.0
4307,49.0,65,60,0.0,0.0
4308,67.0,1,180,0.0,0.0
4309,46.0,0,60,0.0,0.0
4310,61.0,1,180,0.0,0.0
4311,45.0,65,60,0.0,0.0
4312,49.0,64,60,0.0,0.0
4313,66.0,1,180,0.0,0.0
4314,45.0,65,60,0.0,0.0
4315,59.0,1,180,0.0,0.0
4316,44.0,65,60,0.0,0.0
4317,47.0,64,60,0.0,0.0
4318,44.0,0,60,0.0,0.0
4319,66.0,65,60,0.0,0.0
4320,44.0,65,60,0.0,0.0
4321,65.0,0,120,0.0,0.0
4322,59.0,1,180,0.0,0.0
4323,47.0,65,60,0.0,0.0
4324,44.0,68,60,0.0,0.0
4325,71.0,5,180,0.0,0.0
4326,42.0,62,60,0.0,0.0
4327,61.0,0,210,0.0,0.0
4328,66.0,0,210,0.0,0.0
4329,45.0,67,60,0.0,0.0
4330,71.0,0,210,0.0,0.0
4331,42.0,67,60,0.0,0.0
4332,42.0,67,60,0.0,0.0
4333,61.0,0,210,0.0,0.0
4334,66.0,0,210,0.0,0.0
4335,45.0,67,60,0.0,0.0
4336,42.0,68,60,0.0,0.0
4337,69.0,1,210,0.0,0.0
4338,49.0,66,60,0.0,0.0
4339,64.0,67,210,0.0,0.0
4340,61.0,0,210,0.0,0.0
4341,52.0,67,60,0.0,0.0
4342,49.0,0,60,0.0,0.0
4343,70.0,0,210,0.0,0.0
4344,64.0,0,210,0.0,0.0
4345,61.0,1,210,0.0,0.0
4346,49.0,67,60,0.0,0.0
4347,52.0,67,60,0.0,0.0
4348,49.0,67,60,0.0,0.0
4349,76.0,0,210,0.0,0.0
4350,66.0,0,210,0.0,0.0
4351,50.0,67,60,0.0,0.0
4352,70.0,67,210,0.0,0.0
4353,54.0,67,60,0.0,0.0
4354,76.0,1,210,0.0,0.0
4355,50.0,0,60,0.0,0.0
4356,50.0,67,60,0.0,0.0
4357,66.0,0,210,0.0,0.0
4358,71.0,1,210,0.0,0.0
4359,54.0,66,60,0.0,0.0
4360,50.0,67,60,0.0,0.0
4361,74.0,67,210,0.0,0.0
4362,52.0,67,60,0.0,0.0
4363,67.0,68,210,0.0,0.0
4364,71.0,0,210,0.0,0.0
4365,55.0,0,60,0.0,0.0
4366,52.0,0,60,0.0,0.0
4367,79.0,1,210,0.0,0.0
4368,52.0,66,60,0.0,0.0
4369,67.0,0,180,0.0,0.0
4370,72.0,24,180,0.0,0.0
4371,55.0,47,60,0.0,0.0
4372,52.0,23,60,0.0,0.0
4373,79.0,53,90,0.0,0.0
4374,61.0,0,210,0.0,0.0
4375,67.0,4,210,0.0,0.0
4376,52.0,71,60,0.0,0.0
4377,55.0,63,60,0.0,0.0
4378,70.0,1,210,0.0,0.0
4379,52.0,68,60,0.0,0.0
4380,67.0,0,210,0.0,0.0
4381,61.0,67,210,0.0,0.0
4382,52.0,66,60,0.0,0.0
4383,55.0,67,60,0.0,0.0
4384,70.0,67,210,0.0,0.0
4385,52.0,0,60,0.0,0.0
4386,50.0,67,60,0.0,0.0
4387,62.0,1,210,0.0,0.0
4388,66.0,0,210,0.0,0.0
4389,54.0,0,60,0.0,0.0
4390,50.0,67,60,0.0,0.0
4391,71.0,0,210,0.0,0.0
4392,67.0,0,210,0.0,0.0
4393,61.0,67,210,0.0,0.0
4394,52.0,67,60,0.0,0.0
4395,55.0,67,60,0.0,0.0
4396,71.0,1,210,0.0,0.0
4397,52.0,0,60,0.0,0.0
4398,54.0,67,60,0.0,0.0
4399,64.0,1,210,0.0,0.0
4400,66.0,0,210,0.0,0.0
4401,61.0,0,210,0.0,0.0
4402,52.0,66,60,0.0,0.0
4403,70.0,67,120,0.0,0.0
4404,54.0,67,60,0.0,0.0
4405,66.0,73,120,0.0,0.0
4406,62.0,0,120,0.0,0.0
4407,47.0,39,210,0.0,0.0
4408,71.0,120,180,0.0,0.0
4409,62.0,7,60,0.0,0.0
4410,66.0,0,60,0.0,0.0
4411,66.0,0,150,0.0,0.0
4412,59.0,80,150,0.0,0.0
4413,62.0,0,150,0.0,0.0
4414,71.0,71,210,0.0,0.0
4415,57.0,69,60,0.0,0.0
4416,66.0,0,60,0.0,0.0
4417,62.0,0,60,0.0,0.0
4418,64.0,71,150,0.0,0.0
4419,67.0,0,150,0.0,0.0
4420,55.0,0,150,0.0,0.0
4421,71.0,70,210,0.0,0.0
4422,62.0,70,60,0.0,0.0
4423,52.0,0,60,0.0,0.0
4424,67.0,0,60,0.0,0.0
4425,67.0,0,150,0.0,0.0
4426,61.0,1,150,0.0,0.0
4427,52.0,0,150,0.0,0.0
4428,71.0,70,60,0.0,0.0
4429,70.0,77,150,0.0,0.0
4430,61.0,70,60,0.0,0.0
4431,66.0,0,60,0.0,0.0
4432,54.0,0,60,0.0,0.0
4433,62.0,0,150,0.0,0.0
4434,66.0,4,150,0.0,0.0
4435,47.0,64,240,0.0,0.0
4436,71.0,98,90,0.0,0.0
4437,70.0,0,150,0.0,0.0
4438,64.0,85,150,0.0,0.0
4439,61.0,0,150,0.0,0.0
4440,47.0,0,150,0.0,0.0
4441,62.0,71,150,0.0,0.0
4442,66.0,0,150,0.0,0.0
4443,71.0,71,210,0.0,0.0
4444,66.0,70,60,0.0,0.0
4445,62.0,0,60,0.0,0.0
4446,49.0,0,60,0.0,0.0
4447,62.0,0,150,0.0,0.0
4448,66.0,0,150,0.0,0.0
4449,50.0,70,150,0.0,0.0
4450,71.0,71,210,0.0,0.0
4451,62.0,0,60,0.0,0.0
4452,52.0,0,60,0.0,0.0
4453,66.0,70,60,0.0,0.0
4454,64.0,0,150,0.0,0.0
4455,61.0,0,150,0.0,0.0
4456,54.0,71,150,0.0,0.0
4457,70.0,71,210,0.0,0.0
4458,61.0,0,60,0.0,0.0
4459,49.0,0,60,0.0,0.0
4460,64.0,69,60,0.0,0.0
4461,64.0,71,150,0.0,0.0
4462,61.0,0,150,0.0,0.0
4463,42.0,0,150,0.0,0.0
4464,70.0,71,210,0.0,0.0
4465,64.0,69,60,0.0,0.0
4466,54.0,0,60,0.0,0.0
4467,61.0,0,60,0.0,0.0
4468,59.0,71,150,0.0,0.0
4469,66.0,0,150,0.0,0.0
4470,62.0,0,150,0.0,0.0
4471,47.0,0,150,0.0,0.0
4472,71.0,70,210,0.0,0.0
4473,59.0,70,60,0.0,0.0
4474,66.0,0,60,0.0,0.0
4475,62.0,0,60,0.0,0.0
4476,49.0,0,60,0.0,0.0
4477,59.0,0,150,0.0,0.0
4478,50.0,0,150,0.0,0.0
4479,62.0,71,150,0.0,0.0
4480,66.0,0,150,0.0,0.0
4481,71.0,71,210,0.0,0.0
4482,59.0,0,60,0.0,0.0
4483,66.0,0,60,0.0,0.0
4484,62.0,70,60,0.0,0.0
4485,52.0,0,60,0.0,0.0
4486,66.0,0,150,0.0,0.0
4487,61.0,70,150,0.0,0.0
4488,54.0,0,150,0.0,0.0
4489,70.0,0,150,0.0,0.0
4490,66.0,0,60,0.0,0.0
4491,61.0,94,60,0.0,0.0
4492,49.0,0,60,0.0,0.0
4493,66.0,118,210,0.0,0.0
4494,42.0,109,90,0.0,0.0
4495,61.0,0,210,0.0,0.0
4496,70.0,0,210,0.0,0.0
4497,49.0,21,90,0.0,0.0
4498,54.0,308,150,0.0,0.0
4499,65.0,0,120,0.0,0.0
4500,69.0,0,120,0.0,0.0
4501,50.0,66,120,0.0,0.0
4502,74.0,66,180,0.0,0.0
4503,65.0,66,60,0.0,0.0
4504,69.0,0,60,0.0,0.0
4505,52.0,0,60,0.0,0.0
4506,69.0,0,120,0.0,0.0
4507,65.0,66,120,0.0,0.0
4508,53.0,0,120,0.0,0.0
4509,74.0,66,180,0.0,0.0
4510,69.0,66,60,0.0,0.0
4511,65.0,0,60,0.0,0.0
4512,55.0,0,60,0.0,0.0
4513,67.0,66,120,0.0,0.0
4514,57.0,0,120,0.0,0.0
4515,64.0,0,120,0.0,0.0
4516,73.0,65,180,0.0,0.0
4517,67.0,66,60,0.0,0.0
4518,64.0,0,60,0.0,0.0
4519,52.0,0,60,0.0,0.0
4520,64.0,66,120,0.0,0.0
4521,67.0,0,120,0.0,0.0
4522,45.0,0,120,0.0,0.0
4523,73.0,66,180,0.0,0.0
4524,64.0,0,60,0.0,0.0
4525,57.0,0,60,0.0,0.0
4526,67.0,66,60,0.0,0.0
4527,50.0,0,120,0.0,0.0
4528,65.0,66,120,0.0,0.0
4529,69.0,0,120,0.0,0.0
4530,62.0,0,120,0.0,0.0
4531,74.0,66,180,0.0,0.0
4532,62.0,0,60,0.0,0.0
4533,65.0,0,60,0.0,0.0
4534,69.0,66,60,0.0,0.0
4535,52.0,0,60,0.0,0.0
4536,62.0,0,120,0.0,0.0
4537,65.0,66,120,0.0,0.0
4538,69.0,0,120,0.0,0.0
4539,53.0,0,120,0.0,0.0
4540,74.0,66,180,0.0,0.0
4541,55.0,0,60,0.0,0.0
4542,65.0,66,60,0.0,0.0
4543,62.0,0,60,0.0,0.0
4544,69.0,0,60,0.0,0.0
4545,71.0,0,120,0.0,0.0
4546,62.0,0,120,0.0,0.0
4547,65.0,0,120,0.0,0.0
4548,57.0,61,120,0.0,0.0
4549,68.0,0,120,0.0,0.0
4550,74.0,5,120,0.0,0.0
4551,65.0,0,60,0.0,0.0
4552,62.0,485,60,0.0,0.0
4553,45.0,0,60,0.0,0.0
4554,71.0,0,60,0.0,0.0
4555,68.0,0,60,0.0,0.0
4556,73.0,0,480,0.0,0.0
4557,69.0,0,480,0.0,0.0
4558,64.0,0,480,0.0,0.0
4559,45.0,142,480,0.0,0.0
4560,74.0,9,120,0.0,0.0
4561,77.0,0,120,0.0,0.0
4562,53.0,64,60,0.0,0.0
4563,69.0,3,120,0.0,0.0
4564,61.0,64,60,0.0,0.0
4565,77.0,70,60,0.0,0.0
4566,74.0,0,60,0.0,0.0
4567,62.0,0,60,0.0,0.0
4568,74.0,6,120,0.0,0.0
4569,77.0,0,120,0.0,0.0
4570,55.0,64,60,0.0,0.0
4571,61.0,70,60,0.0,0.0
4572,69.0,18,180,0.0,0.0
4573,62.0,0,60,0.0,0.0
4574,74.0,58,60,0.0,0.0
4575,77.0,0,60,0.0,0.0
4576,77.0,0,150,0.0,0.0
4577,74.0,70,150,0.0,0.0
4578,57.0,70,60,0.0,0.0
4579,69.0,1,210,0.0,0.0
4580,61.0,0,60,0.0,0.0
4581,74.0,0,60,0.0,0.0
4582,77.0,70,60,0.0,0.0
4583,62.0,0,60,0.0,0.0
4584,74.0,71,150,0.0,0.0
4585,77.0,0,150,0.0,0.0
4586,58.0,70,60,0.0,0.0
4587,69.0,1,210,0.0,0.0
4588,61.0,0,60,0.0,0.0
4589,77.0,0,60,0.0,0.0
4590,74.0,0,60,0.0,0.0
4591,62.0,69,60,0.0,0.0
4592,74.0,0,150,0.0,0.0
4593,77.0,71,150,0.0,0.0
4594,53.0,70,60,0.0,0.0
4595,69.0,1,210,0.0,0.0
4596,61.0,0,60,0.0,0.0
4597,62.0,0,60,0.0,0.0
4598,77.0,0,60,0.0,0.0
4599,74.0,69,60,0.0,0.0
4600,77.0,1,150,0.0,0.0
4601,74.0,0,150,0.0,0.0
4602,55.0,70,60,0.0,0.0
4603,61.0,70,60,0.0,0.0
4604,69.0,70,210,0.0,0.0
4605,77.0,0,60,0.0,0.0
4606,74.0,0,60,0.0,0.0
4607,62.0,70,60,0.0,0.0
4608,77.0,0,150,0.0,0.0
4609,57.0,0,150,0.0,0.0
4610,74.0,1,150,0.0,0.0
4611,69.0,70,60,0.0,0.0
4612,45.0,0,60,0.0,0.0
4613,73.0,0,60,0.0,0.0
4614,76.0,0,60,0.0,0.0
4615,67.0,94,60,0.0,0.0
4616,74.0,2,210,0.0,0.0
4617,69.0,0,210,0.0,0.0
4618,65.0,0,210,0.0,0.0
4619,50.0,1,90,0.0,0.0
4620,45.0,39,60,0.0,0.0
4621,38.0,26,90,0.0,0.0
4622,45.0,10,30,0.0,0.0
4623,50.0,34,30,0.0,0.0
4624,52.0,73,30,0.0,0.0
4625,74.0,16,90,0.0,0.0
4626,53.0,20,60,0.0,0.0
4627,69.0,0,30,0.0,0.0
4628,62.0,36,30,0.0,0.0
4629,50.0,1,60,0.0,0.0
4630,69.0,36,30,0.0,0.0
4631,74.0,36,30,0.0,0.0
4632,53.0,73,60,0.0,0.0
4633,69.0,0,30,0.0,0.0
4634,70.0,17,90,0.0,0.0
4635,55.0,20,60,0.0,0.0
4636,67.0,0,30,0.0,0.0
4637,43.0,36,60,0.0,0.0
4638,62.0,36,30,0.0,0.0
4639,67.0,0,30,0.0,0.0
4640,55.0,1,60,0.0,0.0
4641,70.0,36,30,0.0,0.0
4642,67.0,72,30,0.0,0.0
4643,69.0,17,90,0.0,0.0
4644,57.0,20,60,0.0,0.0
4645,64.0,0,30,0.0,0.0
4646,45.0,0,60,0.0,0.0
4647,61.0,36,30,0.0,0.0
4648,64.0,36,30,0.0,0.0
4649,69.0,36,30,0.0,0.0
4650,57.0,1,60,0.0,0.0
4651,64.0,72,30,0.0,0.0
4652,65.0,17,90,0.0,0.0
4653,50.0,1,60,0.0,0.0
4654,62.0,19,30,0.0,0.0
4655,57.0,36,30,0.0,0.0
4656,53.0,37,60,0.0,0.0
4657,62.0,0,30,0.0,0.0
4658,65.0,36,30,0.0,0.0
4659,46.0,0,60,0.0,0.0
4660,62.0,62,30,0.0,0.0
4661,69.0,10,60,0.0,0.0
4662,41.0,1,60,0.0,0.0
4663,65.0,36,30,0.0,0.0
4664,62.0,36,30,0.0,0.0
4665,53.0,37,60,0.0,0.0
4666,69.0,0,30,0.0,0.0
4667,74.0,36,30,0.0,0.0
4668,50.0,63,60,0.0,0.0
4669,69.0,0,30,0.0,0.0
4670,70.0,10,60,0.0,0.0
4671,55.0,0,60,0.0,0.0
4672,67.0,36,30,0.0,0.0
4673,62.0,36,30,0.0,0.0
4674,43.0,1,60,0.0,0.0
4675,67.0,36,30,0.0,0.0
4676,70.0,36,30,0.0,0.0
4677,55.0,63,60,0.0,0.0
4678,67.0,0,30,0.0,0.0
4679,71.0,10,60,0.0,0.0
4680,56.0,36,60,0.0,0.0
4681,68.0,0,30,0.0,0.0
4682,64.0,36,30,0.0,0.0
4683,59.0,1,60,0.0,0.0
4684,71.0,36,30,0.0,0.0
4685,76.0,36,30,0.0,0.0
4686,56.0,1,60,0.0,0.0
4687,71.0,62,30,0.0,0.0
4688,73.0,10,60,0.0,0.0
4689,57.0,0,60,0.0,0.0
4690,69.0,37,30,0.0,0.0
4691,64.0,36,30,0.0,0.0
4692,45.0,0,60,0.0,0.0
4693,69.0,36,30,0.0,0.0
4694,73.0,36,30,0.0,0.0
4695,57.0,22,60,0.0,0.0
4696,69.0,59,60,0.0,0.0
4697,61.0,20,60,0.0,0.0
4698,76.0,17,90,0.0,0.0
4699,73.0,0,30,0.0,0.0
4700,64.0,37,60,0.0,0.0
4701,69.0,36,30,0.0,0.0
4702,76.0,0,30,0.0,0.0
4703,81.0,36,30,0.0,0.0
4704,61.0,72,60,0.0,0.0
4705,76.0,0,30,0.0,0.0
4706,78.0,23,120,0.0,0.0
4707,62.0,1,60,0.0,0.0
4708,74.0,36,30,0.0,0.0
4709,50.0,37,60,0.0,0.0
4710,69.0,13,30,0.0,0.0
4711,74.0,0,30,0.0,0.0
4712,61.0,72,60,0.0,0.0
4713,78.0,36,30,0.0,0.0
4714,69.0,0,30,0.0,0.0
4715,74.0,23,120,0.0,0.0
4716,59.0,1,60,0.0,0.0
4717,71.0,36,30,0.0,0.0
4718,47.0,1,60,0.0,0.0
4719,66.0,13,30,0.0,0.0
4720,71.0,36,30,0.0,0.0
4721,74.0,36,30,0.0,0.0
4722,57.0,0,60,0.0,0.0
4723,66.0,73,30,0.0,0.0
4724,55.0,20,60,0.0,0.0
4725,71.0,16,90,0.0,0.0
4726,67.0,0,30,0.0,0.0
4727,62.0,36,30,0.0,0.0
4728,43.0,1,60,0.0,0.0
4729,67.0,36,30,0.0,0.0
4730,71.0,36,30,0.0,0.0
4731,54.0,73,60,0.0,0.0
4732,62.0,0,30,0.0,0.0
4733,52.0,20,60,0.0,0.0
4734,73.0,17,90,0.0,0.0
4735,67.0,0,30,0.0,0.0
4736,57.0,36,60,0.0,0.0
4737,64.0,36,30,0.0,0.0
4738,67.0,0,30,0.0,0.0
4739,73.0,36,30,0.0,0.0
4740,55.0,1,60,0.0,0.0
4741,64.0,72,30,0.0,0.0
4742,54.0,20,60,0.0,0.0
4743,74.0,17,90,0.0,0.0
4744,69.0,0,30,0.0,0.0
4745,66.0,36,30,0.0,0.0
4746,50.0,0,60,0.0,0.0
4747,69.0,36,30,0.0,0.0
4748,74.0,36,30,0.0,0.0
4749,54.0,1,60,0.0,0.0
4750,66.0,71,30,0.0,0.0
4751,57.0,1,930,0.0,0.0
4752,73.0,7,90,0.0,0.0
4753,69.0,26,30,0.0,0.0
4754,64.0,33,30,0.0,0.0
4755,69.0,33,30,0.0,0.0
4756,73.0,33,30,0.0,0.0
4757,69.0,66,30,0.0,0.0
4758,74.0,5,90,0.0,0.0
4759,69.0,28,30,0.0,0.0
4760,66.0,34,30,0.0,0.0
4761,69.0,32,30,0.0,0.0
4762,74.0,33,30,0.0,0.0
4763,69.0,66,30,0.0,0.0
4764,76.0,5,90,0.0,0.0
4765,73.0,28,30,0.0,0.0
4766,69.0,34,30,0.0,0.0
4767,73.0,33,30,0.0,0.0
4768,76.0,33,30,0.0,0.0
4769,73.0,66,30,0.0,0.0
4770,78.0,6,90,0.0,0.0
4771,74.0,27,30,0.0,0.0
4772,69.0,33,30,0.0,0.0
4773,74.0,63,30,0.0,0.0
4774,78.0,41,60,0.0,0.0
4775,74.0,45,40,0.0,0.0
4776,69.0,23,40,0.0,0.0
4777,74.0,32,30,0.0,0.0
4778,69.0,51,30,0.0,0.0
4779,66.0,16,40,0.0,0.0
4780,69.0,33,30,0.0,0.0
4781,66.0,50,30,0.0,0.0
4782,62.0,16,40,0.0,0.0
4783,66.0,33,30,0.0,0.0
4784,62.0,50,30,0.0,0.0
4785,57.0,16,40,0.0,0.0
4786,62.0,33,30,0.0,0.0
4787,57.0,50,30,0.0,0.0
4788,54.0,16,40,0.0,0.0
4789,57.0,33,30,0.0,0.0
4790,54.0,51,30,0.0,0.0
4791,50.0,15,40,0.0,0.0
4792,54.0,33,30,0.0,0.0
4793,50.0,52,30,0.0,0.0
4794,47.0,14,40,0.0,0.0
4795,50.0,32,30,0.0,0.0
4796,47.0,65,30,0.0,0.0
4797,50.0,34,60,0.0,0.0
4798,54.0,34,60,0.0,0.0
4799,59.0,740,60,0.0,0.0
4800,44.0,378,960,0.0,0.0
4801,52.0,5,390,0.0,0.0
4802,71.0,96,180,0.0,0.0
4803,64.0,1,390,0.0,0.0
4804,47.0,0,390,0.0,0.0
4805,73.0,95,90,0.0,0.0
4806,74.0,0,90,0.0,0.0
4807,61.0,1,390,0.0,0.0
4808,45.0,2,1530,0.0,0.0
4809,64.0,192,180,0.0,0.0
4810,55.0,0,180,0.0,0.0
4811,62.0,190,570,0.0,0.0
4812,66.0,192,180,0.0,0.0
4813,54.0,0,390,0.0,0.0
4814,67.0,194,180,0.0,0.0
4815,52.0,8,780,0.0,0.0
4816,69.0,187,570,0.0,0.0
4817,62.0,194,180,0.0,0.0
4818,61.0,1,390,0.0,0.0
4819,67.0,184,180,0.0,0.0
4820,50.0,0,1800,0.0,0.0
4821,66.0,2,390,0.0,0.0
4822,38.0,24,1800,0.0,0.0
4823,61.0,191,90,0.0,0.0
4824,62.0,96,180,0.0,0.0
4825,69.0,96,180,0.0,0.0
4826,66.0,96,180,0.0,0.0
4827,74.0,95,180,0.0,0.0
4828,69.0,44,180,0.0,0.0
4829,78.0,1,90,0.0,0.0
4830,74.0,35,40,0.0,0.0
4831,73.0,955,40,0.0,0.0
4832,74.0,0,990,0.0,0.0
