,note,step,duration,channel,velocity
0,41.0,0,240,0.0,64.0
1,65.0,120,120,0.0,64.0
2,68.0,120,120,0.0,64.0
3,53.0,0,240,0.0,64.0
4,67.0,120,120,0.0,64.0
5,67.0,120,120,0.0,64.0
6,52.0,120,240,0.0,64.0
7,70.0,0,120,0.0,64.0
8,69.0,120,120,0.0,64.0
9,51.0,120,240,0.0,64.0
10,70.0,120,120,0.0,64.0
11,50.0,120,240,0.0,64.0
12,76.0,120,120,0.0,64.0
13,49.0,0,240,0.0,64.0
14,48.0,120,120,0.0,64.0
15,77.0,120,240,0.0,64.0
16,75.0,0,60,0.0,64.0
17,73.0,60,60,0.0,64.0
18,46.0,120,120,0.0,64.0
19,48.0,0,120,0.0,64.0
20,72.0,60,120,0.0,64.0
21,36.0,0,120,0.0,64.0
22,70.0,120,120,0.0,64.0
23,41.0,0,240,0.0,64.0
24,72.0,120,0,0.0,64.0
25,68.0,120,240,0.0,64.0
26,75.0,0,120,0.0,64.0
27,53.0,120,60,0.0,64.0
28,55.0,60,30,0.0,64.0
29,56.0,30,30,0.0,64.0
30,74.0,0,120,0.0,64.0
31,56.0,0,60,0.0,64.0
32,54.0,60,60,0.0,64.0
33,55.0,60,120,0.0,64.0
34,71.0,30,240,0.0,64.0
35,74.0,0,120,0.0,64.0
36,77.0,0,120,0.0,64.0
37,67.0,0,60,0.0,64.0
38,70.0,120,240,0.0,64.0
39,76.0,120,120,0.0,64.0
40,64.0,60,60,0.0,64.0
41,61.0,0,60,0.0,64.0
42,59.0,60,60,0.0,64.0
43,77.0,0,120,0.0,64.0
44,60.0,60,120,0.0,64.0
45,69.0,60,240,0.0,64.0
46,83.0,0,120,0.0,64.0
47,62.0,0,60,0.0,64.0
48,63.0,60,30,0.0,64.0
49,65.0,30,30,0.0,64.0
50,68.0,120,240,0.0,64.0
51,67.0,0,120,0.0,64.0
52,84.0,120,240,0.0,64.0
53,63.0,30,120,0.0,64.0
54,82.0,0,60,0.0,64.0
55,80.0,60,60,0.0,64.0
56,65.0,0,120,0.0,64.0
57,79.0,0,120,0.0,64.0
58,72.0,120,240,0.0,64.0
59,67.0,60,120,0.0,64.0
60,55.0,0,120,0.0,64.0
61,77.0,0,120,0.0,64.0
62,71.0,120,120,0.0,64.0
63,75.0,0,120,0.0,64.0
64,60.0,120,240,0.0,64.0
65,79.0,120,120,0.0,64.0
66,72.0,0,240,0.0,64.0
67,80.0,120,120,0.0,64.0
68,79.0,0,120,0.0,64.0
69,72.0,120,120,0.0,64.0
70,73.0,120,120,0.0,64.0
71,72.0,120,120,0.0,64.0
72,77.0,0,290,0.0,64.0
73,78.0,60,60,0.0,64.0
74,76.0,60,60,0.0,64.0
75,77.0,60,60,0.0,64.0
76,70.0,120,290,0.0,64.0
77,72.0,60,60,0.0,64.0
78,69.0,60,60,0.0,64.0
79,76.0,60,240,0.0,64.0
80,70.0,60,60,0.0,64.0
81,84.0,60,60,0.0,64.0
82,77.0,60,60,0.0,64.0
83,75.0,60,60,0.0,64.0
84,69.0,60,240,0.0,64.0
85,70.0,0,60,0.0,64.0
86,66.0,60,60,0.0,64.0
87,64.0,60,60,0.0,64.0
88,65.0,60,60,0.0,64.0
89,73.0,60,290,0.0,64.0
90,79.0,60,60,0.0,64.0
91,72.0,60,60,0.0,64.0
92,64.0,60,240,0.0,64.0
93,70.0,60,60,0.0,64.0
94,68.0,0,240,0.0,64.0
95,53.0,120,120,0.0,64.0
96,65.0,60,240,0.0,64.0
97,56.0,120,120,0.0,64.0
98,70.0,120,60,0.0,64.0
99,72.0,60,30,0.0,64.0
100,77.0,0,240,0.0,64.0
101,73.0,0,0,0.0,64.0
102,55.0,0,120,0.0,64.0
103,71.0,60,60,0.0,64.0
104,55.0,0,120,0.0,64.0
105,76.0,30,240,0.0,64.0
106,72.0,60,120,0.0,64.0
107,58.0,120,120,0.0,64.0
108,72.0,120,60,0.0,64.0
109,75.0,0,240,0.0,64.0
110,69.0,60,60,0.0,64.0
111,57.0,0,120,0.0,64.0
112,66.0,60,60,0.0,64.0
113,64.0,60,60,0.0,64.0
114,74.0,0,240,0.0,64.0
115,58.0,60,120,0.0,64.0
116,65.0,0,120,0.0,64.0
117,64.0,0,120,0.0,64.0
118,67.0,120,60,0.0,64.0
119,68.0,60,30,0.0,64.0
120,70.0,30,30,0.0,64.0
121,73.0,120,240,0.0,64.0
122,72.0,30,120,0.0,64.0
123,65.0,0,240,0.0,64.0
124,68.0,0,180,0.0,64.0
125,63.0,0,60,0.0,64.0
126,70.0,60,60,0.0,64.0
127,61.0,0,60,0.0,64.0
128,68.0,0,120,0.0,64.0
129,60.0,60,120,0.0,64.0
130,77.0,120,240,0.0,64.0
131,76.0,0,120,0.0,64.0
132,58.0,0,120,0.0,64.0
133,67.0,120,120,0.0,64.0
134,77.0,120,120,0.0,64.0
135,65.0,0,120,0.0,64.0
136,56.0,0,240,0.0,64.0
137,60.0,120,120,0.0,64.0
138,66.0,0,120,0.0,64.0
139,75.0,0,240,0.0,64.0
140,73.0,120,60,0.0,64.0
141,72.0,60,60,0.0,64.0
142,57.0,120,240,0.0,64.0
143,65.0,0,120,0.0,64.0
144,58.0,0,120,0.0,64.0
145,73.0,60,240,0.0,64.0
146,65.0,120,120,0.0,64.0
147,56.0,0,240,0.0,64.0
148,71.0,0,120,0.0,64.0
149,55.0,0,60,0.0,64.0
150,74.0,120,240,0.0,64.0
151,53.0,60,60,0.0,64.0
152,55.0,0,120,0.0,64.0
153,75.0,0,0,0.0,64.0
154,70.0,120,240,0.0,64.0
155,60.0,120,120,0.0,64.0
156,83.0,0,120,0.0,64.0
157,68.0,0,240,0.0,64.0
158,66.0,0,60,0.0,64.0
159,82.0,120,120,0.0,64.0
160,62.0,120,240,0.0,64.0
161,65.0,60,60,0.0,64.0
162,63.0,60,120,0.0,64.0
163,66.0,0,240,0.0,64.0
164,70.0,0,120,0.0,64.0
165,76.0,120,120,0.0,64.0
166,61.0,120,240,0.0,64.0
167,60.0,0,60,0.0,64.0
168,67.0,0,240,0.0,64.0
169,58.0,60,60,0.0,64.0
170,75.0,120,180,0.0,64.0
171,68.0,60,120,0.0,64.0
172,70.0,60,60,0.0,64.0
173,72.0,0,60,0.0,64.0
174,56.0,60,120,0.0,64.0
175,60.0,60,0,0.0,64.0
176,68.0,60,60,0.0,64.0
177,65.0,0,120,0.0,64.0
178,74.0,0,60,0.0,64.0
179,75.0,60,30,0.0,64.0
180,77.0,30,30,0.0,64.0
181,58.0,120,120,0.0,64.0
182,56.0,0,240,0.0,64.0
183,77.0,30,60,0.0,64.0
184,74.0,60,60,0.0,64.0
185,75.0,0,120,0.0,64.0
186,58.0,60,120,0.0,64.0
187,55.0,0,240,0.0,64.0
188,61.0,120,120,0.0,64.0
189,75.0,0,60,0.0,64.0
190,54.0,0,240,0.0,64.0
191,60.0,120,120,0.0,64.0
192,72.0,60,60,0.0,64.0
193,69.0,0,60,0.0,64.0
194,67.0,60,60,0.0,64.0
195,68.0,0,120,0.0,64.0
196,61.0,60,120,0.0,64.0
197,53.0,60,240,0.0,64.0
198,67.0,120,120,0.0,64.0
199,70.0,120,60,0.0,64.0
200,72.0,60,30,0.0,64.0
201,73.0,30,30,0.0,64.0
202,52.0,0,240,0.0,64.0
203,68.0,0,240,0.0,64.0
204,51.0,30,120,0.0,64.0
205,67.0,120,60,0.0,64.0
206,72.0,0,180,0.0,64.0
207,49.0,0,120,0.0,64.0
208,65.0,60,60,0.0,64.0
209,70.0,0,60,0.0,64.0
210,68.0,0,20,0.0,70.0
211,67.0,20,20,0.0,48.0
212,68.0,20,20,0.0,51.0
213,67.0,20,20,0.0,54.0
214,68.0,20,20,0.0,57.0
215,51.0,0,120,0.0,64.0
216,63.0,60,120,0.0,64.0
217,67.0,20,140,0.0,60.0
218,61.0,0,120,0.0,64.0
219,39.0,20,120,0.0,64.0
220,68.0,120,120,0.0,64.0
221,60.0,0,240,0.0,64.0
222,63.0,120,0,0.0,64.0
223,44.0,0,240,0.0,64.0
224,67.0,0,120,0.0,64.0
225,57.0,0,60,0.0,64.0
226,58.0,60,30,0.0,64.0
227,60.0,30,30,0.0,64.0
228,65.0,120,120,0.0,64.0
229,60.0,30,60,0.0,64.0
230,57.0,60,60,0.0,64.0
231,58.0,0,120,0.0,64.0
232,62.0,0,240,0.0,64.0
233,65.0,60,120,0.0,64.0
234,68.0,0,120,0.0,64.0
235,58.0,120,60,0.0,64.0
236,55.0,60,60,0.0,64.0
237,61.0,120,240,0.0,64.0
238,67.0,0,120,0.0,64.0
239,52.0,0,60,0.0,64.0
240,50.0,60,60,0.0,64.0
241,68.0,60,120,0.0,64.0
242,60.0,60,240,0.0,64.0
243,51.0,0,120,0.0,64.0
244,74.0,120,120,0.0,64.0
245,53.0,0,60,0.0,64.0
246,55.0,60,30,0.0,64.0
247,56.0,30,30,0.0,64.0
248,59.0,0,240,0.0,64.0
249,58.0,0,120,0.0,64.0
250,75.0,120,240,0.0,64.0
251,55.0,30,120,0.0,64.0
252,74.0,0,60,0.0,64.0
253,56.0,0,120,0.0,64.0
254,72.0,60,60,0.0,64.0
255,58.0,60,120,0.0,64.0
256,63.0,120,240,0.0,64.0
257,70.0,0,120,0.0,64.0
258,46.0,0,120,0.0,64.0
259,68.0,120,120,0.0,64.0
260,62.0,0,120,0.0,64.0
261,67.0,0,120,0.0,64.0
262,51.0,120,240,0.0,64.0
263,70.0,120,120,0.0,64.0
264,63.0,0,240,0.0,64.0
265,73.0,120,120,0.0,64.0
266,51.0,120,120,0.0,64.0
267,70.0,0,240,0.0,64.0
268,72.0,0,120,0.0,64.0
269,54.0,0,120,0.0,64.0
270,72.0,120,120,0.0,64.0
271,69.0,120,240,0.0,64.0
272,53.0,0,120,0.0,64.0
273,75.0,120,120,0.0,64.0
274,53.0,0,120,0.0,64.0
275,74.0,120,120,0.0,64.0
276,72.0,0,240,0.0,64.0
277,56.0,120,120,0.0,64.0
278,70.0,0,240,0.0,64.0
279,55.0,0,120,0.0,64.0
280,74.0,120,120,0.0,64.0
281,77.0,0,120,0.0,64.0
282,55.0,120,120,0.0,64.0
283,73.0,120,240,0.0,64.0
284,58.0,0,120,0.0,64.0
285,76.0,0,240,0.0,64.0
286,72.0,120,120,0.0,64.0
287,65.0,120,120,0.0,64.0
288,56.0,0,120,0.0,64.0
289,72.0,0,120,0.0,64.0
290,68.0,120,120,0.0,64.0
291,67.0,0,120,0.0,64.0
292,58.0,120,120,0.0,64.0
293,77.0,0,240,0.0,64.0
294,49.0,120,120,0.0,64.0
295,76.0,0,240,0.0,64.0
296,67.0,120,120,0.0,64.0
297,48.0,0,120,0.0,64.0
298,70.0,120,120,0.0,64.0
299,69.0,0,120,0.0,64.0
300,79.0,0,240,0.0,64.0
301,60.0,120,120,0.0,64.0
302,51.0,0,120,0.0,64.0
303,50.0,120,120,0.0,64.0
304,77.0,120,240,0.0,64.0
305,69.0,0,120,0.0,64.0
306,72.0,120,120,0.0,64.0
307,71.0,0,120,0.0,64.0
308,80.0,0,240,0.0,64.0
309,62.0,120,120,0.0,64.0
310,53.0,0,120,0.0,64.0
311,79.0,120,240,0.0,64.0
312,60.0,120,120,0.0,64.0
313,51.0,0,120,0.0,64.0
314,63.0,120,120,0.0,64.0
315,41.0,0,60,0.0,64.0
316,43.0,60,30,0.0,64.0
317,62.0,120,120,0.0,64.0
318,44.0,30,0,0.0,64.0
319,72.0,0,240,0.0,64.0
320,42.0,60,60,0.0,64.0
321,62.0,60,120,0.0,64.0
322,71.0,0,240,0.0,64.0
323,43.0,0,120,0.0,64.0
324,65.0,0,120,0.0,64.0
325,55.0,0,60,0.0,64.0
326,70.0,120,240,0.0,64.0
327,64.0,120,120,0.0,64.0
328,52.0,60,60,0.0,64.0
329,49.0,0,60,0.0,64.0
330,47.0,60,60,0.0,64.0
331,65.0,0,120,0.0,64.0
332,69.0,60,240,0.0,64.0
333,48.0,60,120,0.0,64.0
334,71.0,120,120,0.0,64.0
335,50.0,0,60,0.0,64.0
336,51.0,60,30,0.0,64.0
337,68.0,0,240,0.0,64.0
338,53.0,30,30,0.0,64.0
339,67.0,0,120,0.0,64.0
340,51.0,30,120,0.0,64.0
341,72.0,120,240,0.0,64.0
342,70.0,0,60,0.0,64.0
343,53.0,120,120,0.0,64.0
344,68.0,60,60,0.0,64.0
345,72.0,0,240,0.0,64.0
346,67.0,60,120,0.0,64.0
347,55.0,0,120,0.0,64.0
348,65.0,0,120,0.0,64.0
349,71.0,120,120,0.0,64.0
350,43.0,0,120,0.0,64.0
351,72.0,120,120,0.0,64.0
352,48.0,0,120,0.0,64.0
353,36.0,0,120,0.0,64.0
354,63.0,0,240,0.0,64.0
355,49.0,120,120,0.0,64.0
356,70.0,120,240,0.0,64.0
357,68.0,0,60,0.0,64.0
358,48.0,120,120,0.0,64.0
359,64.0,0,240,0.0,64.0
360,67.0,60,60,0.0,64.0
361,65.0,60,120,0.0,64.0
362,48.0,120,120,0.0,64.0
363,68.0,0,240,0.0,64.0
364,54.0,120,120,0.0,64.0
365,63.0,0,240,0.0,64.0
366,62.0,120,60,0.0,64.0
367,60.0,60,60,0.0,64.0
368,69.0,0,240,0.0,64.0
369,62.0,60,120,0.0,64.0
370,70.0,120,0,0.0,64.0
371,53.0,0,240,0.0,64.0
372,67.0,0,120,0.0,64.0
373,51.0,0,240,0.0,64.0
374,78.0,0,120,0.0,64.0
375,49.0,120,60,0.0,64.0
376,69.0,120,240,0.0,64.0
377,77.0,0,120,0.0,64.0
378,48.0,60,60,0.0,64.0
379,70.0,0,120,0.0,64.0
380,65.0,0,120,0.0,64.0
381,49.0,60,240,0.0,64.0
382,71.0,120,120,0.0,64.0
383,68.0,120,240,0.0,64.0
384,67.0,120,60,0.0,64.0
385,65.0,60,60,0.0,64.0
386,50.0,0,240,0.0,64.0
387,51.0,60,120,0.0,64.0
388,70.0,0,240,0.0,64.0
389,67.0,0,120,0.0,64.0
390,65.0,0,60,0.0,64.0
391,63.0,60,60,0.0,64.0
392,46.0,120,120,0.0,64.0
393,59.0,0,120,0.0,64.0
394,68.0,0,240,0.0,64.0
395,66.0,120,60,0.0,64.0
396,65.0,60,60,0.0,64.0
397,58.0,0,120,0.0,64.0
398,62.0,60,240,0.0,64.0
399,63.0,0,120,0.0,64.0
400,66.0,60,240,0.0,64.0
401,46.0,0,120,0.0,64.0
402,52.0,0,120,0.0,64.0
403,61.0,120,240,0.0,64.0
404,60.0,0,60,0.0,64.0
405,67.0,120,240,0.0,64.0
406,58.0,60,60,0.0,64.0
407,68.0,0,0,0.0,64.0
408,60.0,0,120,0.0,64.0
409,51.0,120,240,0.0,64.0
410,65.0,0,120,0.0,64.0
411,49.0,120,240,0.0,64.0
412,76.0,120,120,0.0,64.0
413,47.0,120,60,0.0,64.0
414,46.0,60,60,0.0,64.0
415,67.0,0,240,0.0,64.0
416,75.0,0,120,0.0,64.0
417,68.0,60,120,0.0,64.0
418,63.0,0,120,0.0,64.0
419,47.0,0,240,0.0,64.0
420,66.0,120,240,0.0,64.0
421,69.0,120,120,0.0,64.0
422,65.0,120,60,0.0,64.0
423,63.0,60,60,0.0,64.0
424,48.0,0,240,0.0,64.0
425,68.0,0,240,0.0,64.0
426,49.0,120,0,0.0,64.0
427,65.0,0,240,0.0,64.0
428,68.0,0,120,0.0,64.0
429,53.0,120,120,0.0,64.0
430,67.0,120,60,0.0,64.0
431,68.0,60,30,0.0,64.0
432,70.0,30,0,0.0,64.0
433,51.0,0,120,0.0,64.0
434,73.0,0,240,0.0,64.0
435,67.0,60,60,0.0,64.0
436,51.0,0,120,0.0,64.0
437,68.0,60,120,0.0,64.0
438,72.0,0,240,0.0,64.0
439,54.0,120,120,0.0,64.0
440,68.0,0,60,0.0,64.0
441,65.0,60,60,0.0,64.0
442,53.0,120,120,0.0,64.0
443,71.0,0,240,0.0,64.0
444,62.0,0,60,0.0,64.0
445,60.0,60,60,0.0,64.0
446,61.0,0,120,0.0,64.0
447,70.0,60,240,0.0,64.0
448,54.0,60,120,0.0,64.0
449,60.0,0,120,0.0,64.0
450,63.0,120,60,0.0,64.0
451,65.0,60,30,0.0,64.0
452,66.0,30,30,0.0,64.0
453,69.0,120,240,0.0,64.0
454,61.0,0,240,0.0,64.0
455,68.0,30,120,0.0,64.0
456,60.0,120,60,0.0,64.0
457,65.0,0,180,0.0,64.0
458,66.0,60,60,0.0,64.0
459,58.0,0,60,0.0,64.0
460,56.0,0,120,0.0,64.0
461,73.0,0,240,0.0,64.0
462,65.0,60,120,0.0,64.0
463,54.0,120,120,0.0,64.0
464,72.0,0,120,0.0,64.0
465,63.0,0,120,0.0,64.0
466,73.0,0,120,0.0,64.0
467,61.0,0,240,0.0,64.0
468,53.0,120,240,0.0,64.0
469,68.0,120,0,0.0,64.0
470,72.0,0,120,0.0,64.0
471,50.0,0,60,0.0,64.0
472,51.0,60,30,0.0,64.0
473,53.0,30,30,0.0,64.0
474,70.0,120,120,0.0,64.0
475,53.0,30,60,0.0,64.0
476,50.0,60,60,0.0,64.0
477,51.0,60,120,0.0,64.0
478,70.0,0,120,0.0,64.0
479,67.0,0,240,0.0,64.0
480,73.0,0,120,0.0,64.0
481,51.0,120,60,0.0,64.0
482,48.0,60,60,0.0,64.0
483,66.0,120,240,0.0,64.0
484,72.0,0,120,0.0,64.0
485,45.0,60,60,0.0,64.0
486,43.0,60,60,0.0,64.0
487,44.0,0,120,0.0,64.0
488,73.0,60,120,0.0,64.0
489,65.0,0,240,0.0,64.0
490,79.0,120,120,0.0,64.0
491,58.0,120,60,0.0,64.0
492,60.0,60,30,0.0,64.0
493,61.0,30,30,0.0,64.0
494,64.0,0,240,0.0,64.0
495,80.0,0,240,0.0,64.0
496,60.0,30,120,0.0,64.0
497,63.0,0,120,0.0,64.0
498,79.0,0,60,0.0,64.0
499,61.0,0,120,0.0,64.0
500,77.0,60,60,0.0,64.0
501,68.0,120,240,0.0,64.0
502,63.0,60,120,0.0,64.0
503,75.0,0,120,0.0,64.0
504,67.0,0,120,0.0,64.0
505,73.0,120,120,0.0,64.0
506,51.0,0,120,0.0,64.0
507,68.0,120,120,0.0,64.0
508,72.0,0,240,0.0,64.0
509,63.0,120,120,0.0,64.0
510,56.0,0,240,0.0,64.0
511,66.0,120,120,0.0,64.0
512,65.0,120,120,0.0,64.0
513,75.0,0,240,0.0,64.0
514,56.0,0,120,0.0,64.0
515,59.0,120,120,0.0,64.0
516,58.0,120,120,0.0,64.0
517,65.0,0,120,0.0,64.0
518,74.0,0,240,0.0,64.0
519,68.0,0,120,0.0,64.0
520,67.0,120,120,0.0,64.0
521,77.0,120,240,0.0,64.0
522,58.0,0,120,0.0,64.0
523,61.0,0,120,0.0,64.0
524,75.0,120,240,0.0,64.0
525,60.0,0,120,0.0,64.0
526,67.0,120,120,0.0,64.0
527,70.0,0,120,0.0,64.0
528,60.0,120,120,0.0,64.0
529,78.0,120,240,0.0,64.0
530,77.0,0,120,0.0,64.0
531,63.0,120,120,0.0,64.0
532,69.0,0,240,0.0,64.0
533,70.0,120,120,0.0,64.0
534,61.0,0,120,0.0,64.0
535,65.0,0,120,0.0,64.0
536,73.0,120,120,0.0,64.0
537,72.0,120,120,0.0,64.0
538,63.0,0,120,0.0,64.0
539,70.0,0,240,0.0,64.0
540,54.0,120,120,0.0,64.0
541,72.0,120,120,0.0,64.0
542,53.0,0,120,0.0,64.0
543,69.0,0,240,0.0,64.0
544,75.0,120,120,0.0,64.0
545,72.0,0,240,0.0,64.0
546,74.0,0,120,0.0,64.0
547,65.0,120,120,0.0,64.0
548,56.0,0,120,0.0,64.0
549,74.0,120,120,0.0,64.0
550,55.0,0,120,0.0,64.0
551,70.0,120,240,0.0,64.0
552,77.0,120,120,0.0,64.0
553,73.0,0,240,0.0,64.0
554,67.0,0,120,0.0,64.0
555,76.0,120,240,0.0,64.0
556,58.0,0,120,0.0,64.0
557,56.0,0,120,0.0,64.0
558,72.0,120,240,0.0,64.0
559,65.0,0,0,0.0,64.0
560,68.0,120,120,0.0,64.0
561,58.0,0,60,0.0,64.0
562,60.0,60,30,0.0,64.0
563,61.0,30,0,0.0,64.0
564,67.0,120,120,0.0,64.0
565,59.0,60,60,0.0,64.0
566,60.0,60,120,0.0,64.0
567,67.0,0,120,0.0,64.0
568,64.0,0,240,0.0,64.0
569,70.0,0,120,0.0,64.0
570,60.0,0,60,0.0,64.0
571,69.0,120,120,0.0,64.0
572,63.0,120,240,0.0,64.0
573,57.0,60,60,0.0,64.0
574,54.0,0,60,0.0,64.0
575,52.0,60,60,0.0,64.0
576,53.0,0,120,0.0,64.0
577,62.0,60,240,0.0,64.0
578,70.0,60,120,0.0,64.0
579,76.0,120,120,0.0,64.0
580,55.0,0,60,0.0,64.0
581,56.0,60,30,0.0,64.0
582,61.0,0,240,0.0,64.0
583,58.0,30,30,0.0,64.0
584,60.0,30,120,0.0,64.0
585,77.0,120,240,0.0,64.0
586,56.0,0,120,0.0,64.0
587,75.0,120,60,0.0,64.0
588,73.0,60,60,0.0,64.0
589,58.0,0,120,0.0,64.0
590,72.0,60,120,0.0,64.0
591,60.0,0,120,0.0,64.0
592,65.0,0,240,0.0,64.0
593,48.0,120,120,0.0,64.0
594,64.0,0,120,0.0,64.0
595,70.0,0,120,0.0,64.0
596,65.0,120,120,0.0,64.0
597,68.0,0,240,0.0,64.0
598,41.0,0,240,0.0,64.0
599,53.0,120,0,0.0,64.0
600,56.0,0,120,0.0,64.0
601,70.0,0,60,0.0,64.0
602,72.0,60,30,0.0,64.0
603,55.0,120,120,0.0,64.0
604,73.0,0,0,0.0,64.0
605,71.0,60,60,0.0,64.0
606,55.0,0,120,0.0,64.0
607,52.0,30,240,0.0,64.0
608,72.0,60,120,0.0,64.0
609,58.0,120,120,0.0,64.0
610,84.0,120,60,0.0,64.0
611,51.0,0,240,0.0,64.0
612,81.0,60,60,0.0,64.0
613,57.0,0,120,0.0,64.0
614,78.0,0,60,0.0,64.0
615,76.0,60,60,0.0,64.0
616,58.0,60,120,0.0,64.0
617,77.0,0,120,0.0,64.0
618,50.0,60,240,0.0,64.0
619,64.0,120,120,0.0,64.0
620,67.0,120,60,0.0,64.0
621,68.0,60,30,0.0,64.0
622,70.0,30,30,0.0,64.0
623,49.0,0,240,0.0,64.0
624,48.0,0,120,0.0,64.0
625,65.0,0,240,0.0,64.0
626,68.0,30,180,0.0,64.0
627,63.0,120,60,0.0,64.0
628,46.0,0,120,0.0,64.0
629,61.0,60,60,0.0,64.0
630,67.0,0,60,0.0,64.0
631,60.0,0,120,0.0,64.0
632,48.0,60,120,0.0,64.0
633,64.0,0,180,0.0,64.0
634,65.0,60,60,0.0,64.0
635,58.0,120,120,0.0,64.0
636,36.0,0,120,0.0,64.0
637,57.0,0,1440,0.0,64.0
638,41.0,60,1440,0.0,64.0
639,65.0,0,1440,0.0,64.0
