,note,step,duration,channel,velocity
0,54.0,49,190,0.0,0.0
1,56.0,48,47,0.0,0.0
2,57.0,48,47,0.0,0.0
3,59.0,48,47,0.0,0.0
4,61.0,48,47,0.0,0.0
5,62.0,48,47,0.0,0.0
6,61.0,48,47,0.0,0.0
7,59.0,48,47,0.0,0.0
8,57.0,48,47,0.0,0.0
9,56.0,48,47,0.0,0.0
10,57.0,48,47,0.0,0.0
11,54.0,48,47,0.0,0.0
12,61.0,48,47,0.0,0.0
13,57.0,48,47,0.0,0.0
14,66.0,48,47,0.0,0.0
15,61.0,91,47,0.0,0.0
16,66.0,53,90,0.0,0.0
17,68.0,48,47,0.0,0.0
18,69.0,48,47,0.0,0.0
19,71.0,48,47,0.0,0.0
20,73.0,48,47,0.0,0.0
21,74.0,48,47,0.0,0.0
22,73.0,48,47,0.0,0.0
23,71.0,48,47,0.0,0.0
24,69.0,48,47,0.0,0.0
25,68.0,48,47,0.0,0.0
26,69.0,48,47,0.0,0.0
27,66.0,48,47,0.0,0.0
28,73.0,48,47,0.0,0.0
29,69.0,49,47,0.0,0.0
30,78.0,24,48,0.0,0.0
31,77.0,24,0,0.0,0.0
32,78.0,24,0,0.0,0.0
33,73.0,48,47,0.0,0.0
34,69.0,48,47,0.0,0.0
35,68.0,96,47,0.0,0.0
36,69.0,3,140,0.0,0.0
37,66.0,45,47,0.0,0.0
38,61.0,48,47,0.0,0.0
39,59.0,96,47,0.0,0.0
40,61.0,51,140,0.0,0.0
41,57.0,45,47,0.0,0.0
42,54.0,236,340,0.0,0.0
43,49.0,245,47,0.0,0.0
44,42.0,310,480,0.0,0.0
45,76.0,72,110,0.0,0.0
46,74.0,49,70,0.0,0.0
47,76.0,48,47,0.0,0.0
48,78.0,48,47,0.0,0.0
49,76.0,48,47,0.0,0.0
50,74.0,48,47,0.0,0.0
51,73.0,48,47,0.0,0.0
52,71.0,48,47,0.0,0.0
53,70.0,96,47,0.0,0.0
54,71.0,13,130,0.0,0.0
55,73.0,35,47,0.0,0.0
56,74.0,48,47,0.0,0.0
57,73.0,48,47,0.0,0.0
58,71.0,48,47,0.0,0.0
59,69.0,48,47,0.0,0.0
60,68.0,48,47,0.0,0.0
61,66.0,96,47,0.0,0.0
62,68.0,13,130,0.0,0.0
63,69.0,35,47,0.0,0.0
64,71.0,48,47,0.0,0.0
65,69.0,48,47,0.0,0.0
66,68.0,48,47,0.0,0.0
67,66.0,48,47,0.0,0.0
68,65.0,48,47,0.0,0.0
69,63.0,96,47,0.0,0.0
70,65.0,13,130,0.0,0.0
71,66.0,35,47,0.0,0.0
72,68.0,48,47,0.0,0.0
73,66.0,48,47,0.0,0.0
74,65.0,48,47,0.0,0.0
75,63.0,48,47,0.0,0.0
76,61.0,48,47,0.0,0.0
77,59.0,91,47,0.0,0.0
78,57.0,9,90,0.0,0.0
79,61.0,61,51,0.0,0.0
80,66.0,54,59,0.0,0.0
81,65.0,264,60,0.0,0.0
82,66.0,28,380,0.0,0.0
83,54.0,49,47,0.0,0.0
84,57.0,48,47,0.0,0.0
85,56.0,20,47,0.0,0.0
86,54.0,48,47,0.0,0.0
87,53.0,48,47,0.0,0.0
88,54.0,48,47,0.0,0.0
89,56.0,48,47,0.0,0.0
90,57.0,48,47,0.0,0.0
91,59.0,48,47,0.0,0.0
92,61.0,48,47,0.0,0.0
93,62.0,91,47,0.0,0.0
94,61.0,5,90,0.0,0.0
95,66.0,48,47,0.0,0.0
96,69.0,48,47,0.0,0.0
97,68.0,91,47,0.0,0.0
98,69.0,5,90,0.0,0.0
99,61.0,59,47,0.0,0.0
100,66.0,60,58,0.0,0.0
101,65.0,97,60,0.0,0.0
102,66.0,48,99,0.0,0.0
103,68.0,48,47,0.0,0.0
104,69.0,48,47,0.0,0.0
105,71.0,48,47,0.0,0.0
106,73.0,48,47,0.0,0.0
107,74.0,48,47,0.0,0.0
108,76.0,48,47,0.0,0.0
109,78.0,96,47,0.0,0.0
110,74.0,96,95,0.0,0.0
111,69.0,96,95,0.0,0.0
112,71.0,96,95,0.0,0.0
113,68.0,96,95,0.0,0.0
114,64.0,96,95,0.0,0.0
115,68.0,96,95,0.0,0.0
116,73.0,96,95,0.0,0.0
117,68.0,96,95,0.0,0.0
118,69.0,96,95,0.0,0.0
119,42.0,3,2300,0.0,0.0
120,65.0,191,95,0.0,0.0
121,66.0,1,190,0.0,0.0
122,61.0,192,95,0.0,0.0
123,62.0,103,280,0.0,0.0
124,59.0,89,95,0.0,0.0
125,68.0,103,280,0.0,0.0
126,59.0,89,95,0.0,0.0
127,61.0,7,280,0.0,0.0
128,56.0,89,95,0.0,0.0
129,57.0,96,95,0.0,0.0
130,61.0,192,95,0.0,0.0
131,66.0,7,280,0.0,0.0
132,57.0,89,95,0.0,0.0
133,62.0,96,95,0.0,0.0
134,54.0,192,95,0.0,0.0
135,59.0,103,280,0.0,0.0
136,54.0,89,95,0.0,0.0
137,56.0,103,280,0.0,0.0
138,51.0,89,95,0.0,0.0
139,53.0,0,380,0.0,0.0
140,56.0,96,95,0.0,0.0
141,61.0,93,95,0.0,0.0
142,56.0,96,95,0.0,0.0
143,57.0,96,95,0.0,0.0
144,53.0,192,95,0.0,0.0
145,54.0,98,380,0.0,0.0
146,49.0,96,95,0.0,0.0
147,45.0,93,95,0.0,0.0
148,42.0,478,190,0.0,0.0
149,51.0,85,575,0.0,0.0
150,42.0,3,468,0.0,0.0
151,60.0,40,440,0.0,0.0
152,56.0,189,480,0.0,0.0
153,40.0,98,96,0.0,0.0
154,42.0,98,96,0.0,0.0
155,39.0,205,96,0.0,0.0
156,40.0,96,489,0.0,0.0
157,56.0,185,96,0.0,0.0
158,61.0,198,586,0.0,0.0
159,54.0,101,91,0.0,0.0
160,56.0,3,387,0.0,0.0
161,51.0,98,96,0.0,0.0
162,52.0,95,96,0.0,0.0
163,49.0,7,96,0.0,0.0
164,38.0,6,387,0.0,0.0
165,61.0,184,96,0.0,0.0
166,66.0,168,586,0.0,0.0
167,61.0,186,96,0.0,0.0
168,62.0,9,387,0.0,0.0
169,57.0,93,92,0.0,0.0
170,59.0,107,92,0.0,0.0
171,54.0,8,282,0.0,0.0
172,48.0,7,372,0.0,0.0
173,66.0,177,92,0.0,0.0
174,69.0,183,185,0.0,0.0
175,66.0,0,94,0.0,0.0
176,68.0,10,185,0.0,0.0
177,56.0,90,92,0.0,0.0
178,65.0,0,92,0.0,0.0
179,57.0,92,92,0.0,0.0
180,66.0,200,185,0.0,0.0
181,54.0,0,92,0.0,0.0
182,63.0,1,92,0.0,0.0
183,64.0,0,372,0.0,0.0
184,49.0,4,372,0.0,0.0
185,56.0,0,372,0.0,0.0
186,68.0,86,87,0.0,0.0
187,73.0,84,87,0.0,0.0
188,68.0,85,87,0.0,0.0
189,69.0,95,87,0.0,0.0
190,66.0,91,90,0.0,0.0
191,68.0,92,90,0.0,0.0
192,63.0,136,90,0.0,0.0
193,64.0,71,135,0.0,0.0
194,60.0,91,90,0.0,0.0
195,61.0,91,90,0.0,0.0
196,56.0,92,90,0.0,0.0
197,57.0,91,90,0.0,0.0
198,54.0,92,90,0.0,0.0
199,56.0,91,90,0.0,0.0
200,51.0,245,90,0.0,0.0
201,53.0,61,361,0.0,0.0
202,77.0,89,90,0.0,0.0
203,80.0,29,90,0.0,0.0
204,73.0,89,90,0.0,0.0
205,74.0,92,90,0.0,0.0
206,71.0,183,90,0.0,0.0
207,73.0,40,547,0.0,0.0
208,68.0,222,90,0.0,0.0
209,69.0,3,361,0.0,0.0
210,54.0,0,361,0.0,0.0
211,65.0,92,90,0.0,0.0
212,66.0,48,90,0.0,0.0
213,61.0,92,90,0.0,0.0
214,62.0,91,90,0.0,0.0
215,57.0,92,90,0.0,0.0
216,59.0,91,90,0.0,0.0
217,54.0,223,90,0.0,0.0
218,56.0,44,361,0.0,0.0
219,50.0,0,361,0.0,0.0
220,78.0,91,90,0.0,0.0
221,83.0,48,90,0.0,0.0
222,78.0,91,90,0.0,0.0
223,80.0,92,90,0.0,0.0
224,77.0,181,90,0.0,0.0
225,78.0,1,180,0.0,0.0
226,75.0,115,90,0.0,0.0
227,56.0,43,361,0.0,0.0
228,77.0,108,113,0.0,0.0
229,49.0,0,361,0.0,0.0
230,73.0,140,90,0.0,0.0
231,77.0,0,547,0.0,0.0
232,73.0,92,90,0.0,0.0
233,74.0,91,90,0.0,0.0
234,71.0,91,90,0.0,0.0
235,73.0,92,90,0.0,0.0
236,68.0,91,90,0.0,0.0
237,61.0,0,361,0.0,0.0
238,49.0,36,361,0.0,0.0
239,69.0,124,90,0.0,0.0
240,54.0,0,361,0.0,0.0
241,73.0,91,90,0.0,0.0
242,78.0,56,90,0.0,0.0
243,73.0,91,90,0.0,0.0
244,74.0,91,90,0.0,0.0
245,71.0,92,90,0.0,0.0
246,73.0,91,90,0.0,0.0
247,68.0,92,90,0.0,0.0
248,49.0,0,361,0.0,0.0
249,69.0,107,90,0.0,0.0
250,54.0,19,361,0.0,0.0
251,61.0,23,266,0.0,0.0
252,65.0,69,90,0.0,0.0
253,66.0,72,90,0.0,0.0
254,61.0,91,90,0.0,0.0
255,62.0,92,90,0.0,0.0
256,59.0,91,90,0.0,0.0
257,61.0,97,90,0.0,0.0
258,56.0,117,90,0.0,0.0
259,57.0,77,119,0.0,0.0
260,53.0,91,90,0.0,0.0
261,54.0,91,90,0.0,0.0
262,47.0,92,90,0.0,0.0
263,49.0,91,90,0.0,0.0
264,44.0,102,90,0.0,0.0
265,45.0,106,100,0.0,0.0
266,42.0,284,100,0.0,0.0
267,36.0,64,380,0.0,0.0
268,66.0,84,115,0.0,0.0
269,69.0,32,95,0.0,0.0
270,65.0,192,95,0.0,0.0
271,66.0,3,380,0.0,0.0
272,61.0,96,95,0.0,0.0
273,63.0,93,95,0.0,0.0
274,56.0,191,95,0.0,0.0
275,57.0,25,190,0.0,0.0
276,37.0,23,480,0.0,0.0
277,61.0,96,95,0.0,0.0
278,66.0,96,95,0.0,0.0
279,59.0,73,95,0.0,0.0
280,61.0,96,95,0.0,0.0
281,56.0,96,95,0.0,0.0
282,57.0,96,95,0.0,0.0
283,53.0,192,95,0.0,0.0
284,54.0,3,380,0.0,0.0
285,57.0,96,95,0.0,0.0
286,61.0,93,95,0.0,0.0
287,56.0,96,95,0.0,0.0
288,57.0,96,95,0.0,0.0
289,53.0,191,95,0.0,0.0
290,54.0,1,190,0.0,0.0
291,48.0,192,95,0.0,0.0
292,49.0,3,380,0.0,0.0
293,54.0,96,95,0.0,0.0
294,57.0,93,95,0.0,0.0
295,53.0,96,95,0.0,0.0
296,54.0,96,95,0.0,0.0
297,47.0,191,95,0.0,0.0
298,49.0,1,190,0.0,0.0
299,44.0,224,95,0.0,0.0
300,45.0,54,280,0.0,0.0
301,49.0,57,95,0.0,0.0
302,54.0,193,108,0.0,0.0
303,49.0,17,280,0.0,0.0
304,54.0,79,95,0.0,0.0
305,57.0,217,95,0.0,0.0
306,54.0,32,280,0.0,0.0
307,57.0,64,120,0.0,0.0
308,61.0,167,120,0.0,0.0
309,57.0,86,280,0.0,0.0
310,61.0,89,95,0.0,0.0
311,66.0,154,170,0.0,0.0
312,56.0,56,320,0.0,0.0
313,37.0,60,380,0.0,0.0
314,66.0,92,120,0.0,0.0
315,65.0,8,160,0.0,0.0
316,59.0,271,120,0.0,0.0
317,42.0,88,2300,0.0,0.0
318,58.0,191,480,0.0,0.0
319,61.0,96,95,0.0,0.0
320,66.0,96,95,0.0,0.0
321,61.0,17,95,0.0,0.0
322,62.0,143,480,0.0,0.0
323,58.0,96,95,0.0,0.0
324,59.0,96,95,0.0,0.0
325,53.0,81,95,0.0,0.0
326,54.0,143,480,0.0,0.0
327,59.0,96,95,0.0,0.0
328,62.0,96,95,0.0,0.0
329,59.0,65,95,0.0,0.0
330,61.0,122,480,0.0,0.0
331,56.0,96,95,0.0,0.0
332,58.0,96,95,0.0,0.0
333,53.0,81,95,0.0,0.0
334,54.0,78,320,0.0,0.0
335,58.0,118,90,0.0,0.0
336,61.0,1,190,0.0,0.0
337,56.0,171,95,0.0,0.0
338,58.0,21,170,0.0,0.0
339,54.0,29,95,0.0,0.0
340,56.0,138,116,0.0,0.0
341,53.0,775,132,0.0,0.0
342,54.0,250,767,0.0,0.0
343,73.0,106,95,0.0,0.0
344,78.0,54,105,0.0,0.0
345,81.0,48,47,0.0,0.0
346,80.0,106,47,0.0,0.0
347,78.0,54,105,0.0,0.0
348,80.0,48,47,0.0,0.0
349,77.0,106,47,0.0,0.0
350,78.0,54,105,0.0,0.0
351,76.0,48,47,0.0,0.0
352,74.0,48,47,0.0,0.0
353,73.0,48,47,0.0,0.0
354,71.0,48,47,0.0,0.0
355,69.0,48,47,0.0,0.0
356,68.0,48,47,0.0,0.0
357,66.0,48,47,0.0,0.0
358,69.0,48,47,0.0,0.0
359,68.0,48,47,0.0,0.0
360,66.0,48,47,0.0,0.0
361,64.0,48,47,0.0,0.0
362,63.0,48,47,0.0,0.0
363,64.0,48,47,0.0,0.0
364,61.0,768,47,0.0,0.0
365,56.0,0,1150,0.0,0.0
366,44.0,0,1150,0.0,0.0
367,51.0,385,1150,0.0,0.0
368,60.0,0,1150,0.0,0.0
369,66.0,361,383,0.0,0.0
370,66.0,22,360,0.0,0.0
371,61.0,0,383,0.0,0.0
372,49.0,385,1150,0.0,0.0
373,56.0,384,383,0.0,0.0
374,66.0,0,383,0.0,0.0
375,65.0,192,383,0.0,0.0
376,61.0,0,383,0.0,0.0
377,61.0,2,380,0.0,0.0
378,64.0,96,191,0.0,0.0
379,67.0,90,95,0.0,0.0
380,66.0,3,89,0.0,0.0
381,61.0,357,383,0.0,0.0
382,66.0,27,740,0.0,0.0
383,51.0,384,767,0.0,0.0
384,60.0,0,383,0.0,0.0
385,68.0,37,730,0.0,0.0
386,59.0,347,383,0.0,0.0
387,53.0,0,383,0.0,0.0
388,58.0,97,383,0.0,0.0
389,54.0,99,480,0.0,0.0
390,59.0,1,416,0.0,0.0
391,66.0,0,416,0.0,0.0
392,52.0,54,95,0.0,0.0
393,50.0,62,53,0.0,0.0
394,49.0,46,61,0.0,0.0
395,50.0,59,53,0.0,0.0
396,47.0,362,53,0.0,0.0
397,46.0,0,383,0.0,0.0
398,61.0,12,767,0.0,0.0
399,64.0,383,383,0.0,0.0
400,47.0,192,383,0.0,0.0
401,63.0,1,370,0.0,0.0
402,49.0,3,380,0.0,0.0
403,59.0,0,380,0.0,0.0
404,66.0,189,191,0.0,0.0
405,65.0,371,191,0.0,0.0
406,66.0,13,370,0.0,0.0
407,50.0,192,383,0.0,0.0
408,57.0,0,383,0.0,0.0
409,56.0,1,1150,0.0,0.0
410,47.0,3,380,0.0,0.0
411,69.0,96,95,0.0,0.0
412,68.0,93,95,0.0,0.0
413,71.0,384,95,0.0,0.0
414,49.0,341,767,0.0,0.0
415,59.0,192,383,0.0,0.0
416,65.0,189,575,0.0,0.0
417,59.0,2,380,0.0,0.0
418,66.0,0,191,0.0,0.0
419,59.0,192,383,0.0,0.0
420,66.0,20,340,0.0,0.0
421,42.0,0,383,0.0,0.0
422,54.0,23,360,0.0,0.0
423,58.0,3,380,0.0,0.0
424,66.0,0,380,0.0,0.0
425,54.0,189,191,0.0,0.0
426,52.0,192,191,0.0,0.0
427,51.0,96,191,0.0,0.0
428,57.0,3,380,0.0,0.0
429,66.0,0,380,0.0,0.0
430,52.0,93,95,0.0,0.0
431,49.0,384,95,0.0,0.0
432,66.0,0,383,0.0,0.0
433,56.0,189,575,0.0,0.0
434,48.0,192,383,0.0,0.0
435,73.0,3,380,0.0,0.0
436,65.0,0,380,0.0,0.0
437,49.0,0,191,0.0,0.0
438,47.0,96,191,0.0,0.0
439,68.0,0,191,0.0,0.0
440,67.0,13,190,0.0,0.0
441,46.0,54,95,0.0,0.0
442,73.0,2,380,0.0,0.0
443,64.0,213,575,0.0,0.0
444,49.0,41,53,0.0,0.0
445,47.0,96,53,0.0,0.0
446,68.0,25,190,0.0,0.0
447,46.0,54,95,0.0,0.0
448,47.0,27,53,0.0,0.0
449,44.0,168,53,0.0,0.0
450,43.0,0,380,0.0,0.0
451,70.0,96,575,0.0,0.0
452,73.0,195,380,0.0,0.0
453,63.0,0,575,0.0,0.0
454,72.0,0,191,0.0,0.0
455,44.0,3,380,0.0,0.0
456,71.0,2,380,0.0,0.0
457,68.0,93,95,0.0,0.0
458,66.0,189,95,0.0,0.0
459,49.0,2,380,0.0,0.0
460,64.0,1,190,0.0,0.0
461,63.0,96,95,0.0,0.0
462,70.0,1,190,0.0,0.0
463,64.0,93,95,0.0,0.0
464,61.0,192,95,0.0,0.0
465,51.0,0,1150,0.0,0.0
466,55.0,89,191,0.0,0.0
467,63.0,3,380,0.0,0.0
468,71.0,100,280,0.0,0.0
469,56.0,192,380,0.0,0.0
470,73.0,189,95,0.0,0.0
471,70.0,89,575,0.0,0.0
472,61.0,3,380,0.0,0.0
473,55.0,192,191,0.0,0.0
474,61.0,2,380,0.0,0.0
475,55.0,100,280,0.0,0.0
476,68.0,1,190,0.0,0.0
477,56.0,384,95,0.0,0.0
478,68.0,0,383,0.0,0.0
479,61.0,384,383,0.0,0.0
480,56.0,24,767,0.0,0.0
481,44.0,0,383,0.0,0.0
482,76.0,384,383,0.0,0.0
483,59.0,0,383,0.0,0.0
484,76.0,0,383,0.0,0.0
485,61.0,0,383,0.0,0.0
486,58.0,384,383,0.0,0.0
487,66.0,0,383,0.0,0.0
488,76.0,384,383,0.0,0.0
489,59.0,192,767,0.0,0.0
490,71.0,0,383,0.0,0.0
491,75.0,0,383,0.0,0.0
492,74.0,96,191,0.0,0.0
493,71.0,0,380,0.0,0.0
494,59.0,3,380,0.0,0.0
495,77.0,93,95,0.0,0.0
496,76.0,384,95,0.0,0.0
497,76.0,17,750,0.0,0.0
498,61.0,20,730,0.0,0.0
499,71.0,347,383,0.0,0.0
500,70.0,384,383,0.0,0.0
501,78.0,384,383,0.0,0.0
502,63.0,0,383,0.0,0.0
503,69.0,0,383,0.0,0.0
504,71.0,0,383,0.0,0.0
505,69.0,192,383,0.0,0.0
506,64.0,15,1150,0.0,0.0
507,76.0,3,380,0.0,0.0
508,68.0,189,191,0.0,0.0
509,66.0,96,191,0.0,0.0
510,74.0,96,95,0.0,0.0
511,68.0,2,380,0.0,0.0
512,77.0,96,95,0.0,0.0
513,76.0,54,95,0.0,0.0
514,77.0,39,53,0.0,0.0
515,74.0,194,53,0.0,0.0
516,74.0,189,191,0.0,0.0
517,69.0,3,380,0.0,0.0
518,57.0,0,380,0.0,0.0
519,73.0,192,191,0.0,0.0
520,69.0,0,380,0.0,0.0
521,78.0,3,380,0.0,0.0
522,73.0,96,191,0.0,0.0
523,75.0,93,95,0.0,0.0
524,76.0,192,95,0.0,0.0
525,66.0,3,380,0.0,0.0
526,78.0,0,380,0.0,0.0
527,75.0,96,191,0.0,0.0
528,76.0,93,95,0.0,0.0
529,73.0,192,95,0.0,0.0
530,78.0,189,191,0.0,0.0
531,68.0,0,380,0.0,0.0
532,72.0,3,380,0.0,0.0
533,77.0,381,191,0.0,0.0
534,61.0,192,380,0.0,0.0
535,73.0,144,767,0.0,0.0
536,76.0,99,380,0.0,0.0
537,66.0,3,380,0.0,0.0
538,81.0,93,95,0.0,0.0
539,75.0,0,95,0.0,0.0
540,73.0,32,767,0.0,0.0
541,76.0,54,143,0.0,0.0
542,68.0,29,380,0.0,0.0
543,80.0,53,53,0.0,0.0
544,78.0,53,53,0.0,0.0
545,76.0,53,53,0.0,0.0
546,78.0,24,53,0.0,0.0
547,80.0,358,53,0.0,0.0
548,66.0,192,383,0.0,0.0
549,75.0,189,575,0.0,0.0
550,66.0,3,380,0.0,0.0
551,72.0,0,380,0.0,0.0
552,73.0,192,191,0.0,0.0
553,73.0,189,575,0.0,0.0
554,66.0,192,191,0.0,0.0
555,65.0,192,191,0.0,0.0
556,59.0,0,380,0.0,0.0
557,75.0,0,380,0.0,0.0
558,66.0,3,380,0.0,0.0
559,71.0,192,191,0.0,0.0
560,68.0,3,380,0.0,0.0
561,59.0,0,380,0.0,0.0
562,77.0,0,380,0.0,0.0
563,74.0,189,191,0.0,0.0
564,73.0,384,191,0.0,0.0
565,78.0,383,767,0.0,0.0
566,73.0,1,1150,0.0,0.0
567,59.0,192,383,0.0,0.0
568,61.0,192,575,0.0,0.0
569,58.0,0,767,0.0,0.0
570,62.0,0,191,0.0,0.0
571,78.0,288,383,0.0,0.0
572,64.0,192,767,0.0,0.0
573,59.0,96,575,0.0,0.0
574,71.0,5,1530,0.0,0.0
575,79.0,96,95,0.0,0.0
576,81.0,0,95,0.0,0.0
577,79.0,0,191,0.0,0.0
578,63.0,0,191,0.0,0.0
579,64.0,0,190,0.0,0.0
580,81.0,95,95,0.0,0.0
581,61.0,1,190,0.0,0.0
582,83.0,192,95,0.0,0.0
583,62.0,0,380,0.0,0.0
584,79.0,96,191,0.0,0.0
585,66.0,3,380,0.0,0.0
586,78.0,93,95,0.0,0.0
587,77.0,379,95,0.0,0.0
588,56.0,0,383,0.0,0.0
589,68.0,0,383,0.0,0.0
590,77.0,192,383,0.0,0.0
591,73.0,95,480,0.0,0.0
592,78.0,1,1150,0.0,0.0
593,57.0,3,380,0.0,0.0
594,66.0,189,191,0.0,0.0
595,64.0,97,191,0.0,0.0
596,59.0,0,380,0.0,0.0
597,62.0,3,380,0.0,0.0
598,71.0,96,95,0.0,0.0
599,69.0,93,95,0.0,0.0
600,68.0,192,95,0.0,0.0
601,61.0,192,767,0.0,0.0
602,69.0,96,191,0.0,0.0
603,71.0,95,95,0.0,0.0
604,73.0,384,95,0.0,0.0
605,49.0,192,767,0.0,0.0
606,68.0,189,575,0.0,0.0
607,80.0,0,191,0.0,0.0
608,77.0,0,380,0.0,0.0
609,59.0,3,380,0.0,0.0
610,71.0,0,191,0.0,0.0
611,76.0,0,1530,0.0,0.0
612,66.0,5,1530,0.0,0.0
613,54.0,3,380,0.0,0.0
614,58.0,96,191,0.0,0.0
615,59.0,93,95,0.0,0.0
616,61.0,192,95,0.0,0.0
617,56.0,3,380,0.0,0.0
618,59.0,96,191,0.0,0.0
619,62.0,93,95,0.0,0.0
620,61.0,381,95,0.0,0.0
621,61.0,282,480,0.0,0.0
622,58.0,100,380,0.0,0.0
623,59.0,192,383,0.0,0.0
624,47.0,384,767,0.0,0.0
625,59.0,96,191,0.0,0.0
626,74.0,0,191,0.0,0.0
627,57.0,1,190,0.0,0.0
628,76.0,95,95,0.0,0.0
629,73.0,191,95,0.0,0.0
630,74.0,157,767,0.0,0.0
631,71.0,96,191,0.0,0.0
632,55.0,1,190,0.0,0.0
633,73.0,95,95,0.0,0.0
634,54.0,1,190,0.0,0.0
635,69.0,0,95,0.0,0.0
636,53.0,35,540,0.0,0.0
637,68.0,0,575,0.0,0.0
638,49.0,96,575,0.0,0.0
639,73.0,0,191,0.0,0.0
640,71.0,1,190,0.0,0.0
641,78.0,95,95,0.0,0.0
642,49.0,0,190,0.0,0.0
643,56.0,0,190,0.0,0.0
644,77.0,288,95,0.0,0.0
645,78.0,93,287,0.0,0.0
646,69.0,3,380,0.0,0.0
647,54.0,0,380,0.0,0.0
648,50.0,0,380,0.0,0.0
649,76.0,96,95,0.0,0.0
650,74.0,96,95,0.0,0.0
651,47.0,2,380,0.0,0.0
652,73.0,96,95,0.0,0.0
653,71.0,48,95,0.0,0.0
654,62.0,1,190,0.0,0.0
655,54.0,32,380,0.0,0.0
656,69.0,45,47,0.0,0.0
657,68.0,189,47,0.0,0.0
658,49.0,0,767,0.0,0.0
659,69.0,160,220,0.0,0.0
660,61.0,2,380,0.0,0.0
661,56.0,1,190,0.0,0.0
662,71.0,192,95,0.0,0.0
663,53.0,3,380,0.0,0.0
664,68.0,96,191,0.0,0.0
665,59.0,0,380,0.0,0.0
666,66.0,93,95,0.0,0.0
667,68.0,384,95,0.0,0.0
668,42.0,0,383,0.0,0.0
669,54.0,0,383,0.0,0.0
670,58.0,297,383,0.0,0.0
671,66.0,67,680,0.0,0.0
672,78.0,52,51,0.0,0.0
673,79.0,55,51,0.0,0.0
674,78.0,49,54,0.0,0.0
675,76.0,96,51,0.0,0.0
676,74.0,48,95,0.0,0.0
677,76.0,52,47,0.0,0.0
678,73.0,195,47,0.0,0.0
679,54.0,22,1180,0.0,0.0
680,66.0,49,190,0.0,0.0
681,74.0,96,239,0.0,0.0
682,69.0,2,380,0.0,0.0
683,64.0,1,190,0.0,0.0
684,76.0,45,47,0.0,0.0
685,78.0,576,47,0.0,0.0
686,72.0,65,575,0.0,0.0
687,68.0,23,640,0.0,0.0
688,63.0,0,640,0.0,0.0
689,73.0,54,47,0.0,0.0
690,75.0,68,47,0.0,0.0
691,73.0,11,63,0.0,0.0
692,75.0,41,41,0.0,0.0
693,72.0,380,41,0.0,0.0
694,53.0,97,383,0.0,0.0
695,73.0,11,1172,0.0,0.0
696,61.0,53,480,0.0,0.0
697,52.0,19,380,0.0,0.0
698,59.0,56,53,0.0,0.0
699,57.0,98,53,0.0,0.0
700,57.0,48,95,0.0,0.0
701,56.0,29,47,0.0,0.0
702,54.0,192,47,0.0,0.0
703,54.0,89,191,0.0,0.0
704,51.0,3,401,0.0,0.0
705,69.0,7,280,0.0,0.0
706,56.0,64,95,0.0,0.0
707,68.0,37,63,0.0,0.0
708,57.0,2,111,0.0,0.0
709,69.0,186,59,0.0,0.0
710,71.0,246,400,0.0,0.0
711,56.0,96,190,0.0,0.0
712,50.0,0,400,0.0,0.0
713,65.0,1,190,0.0,0.0
714,57.0,96,95,0.0,0.0
715,54.0,16,95,0.0,0.0
716,66.0,1,111,0.0,0.0
717,56.0,51,999,0.0,0.0
718,66.0,755,244,0.0,0.0
719,49.0,0,999,0.0,0.0
720,73.0,14,1050,0.0,0.0
721,65.0,829,780,0.0,0.0
722,73.0,192,191,0.0,0.0
723,74.0,192,191,0.0,0.0
724,73.0,192,191,0.0,0.0
725,71.0,192,191,0.0,0.0
726,69.0,192,191,0.0,0.0
727,68.0,192,191,0.0,0.0
728,66.0,192,191,0.0,0.0
729,65.0,192,191,0.0,0.0
730,63.0,192,191,0.0,0.0
731,61.0,192,191,0.0,0.0
732,69.0,49,191,0.0,0.0
733,69.0,48,48,0.0,0.0
734,68.0,48,48,0.0,0.0
735,69.0,240,48,0.0,0.0
736,68.0,191,240,0.0,0.0
737,66.0,96,191,0.0,0.0
738,66.0,96,95,0.0,0.0
739,68.0,96,95,0.0,0.0
740,69.0,96,95,0.0,0.0
741,68.0,96,95,0.0,0.0
742,69.0,96,95,0.0,0.0
743,78.0,96,191,0.0,0.0
744,68.0,0,95,0.0,0.0
745,66.0,96,95,0.0,0.0
746,81.0,0,191,0.0,0.0
747,64.0,96,95,0.0,0.0
748,66.0,96,95,0.0,0.0
749,80.0,96,191,0.0,0.0
750,64.0,0,95,0.0,0.0
751,63.0,96,95,0.0,0.0
752,78.0,96,191,0.0,0.0
753,61.0,0,95,0.0,0.0
754,76.0,96,191,0.0,0.0
755,63.0,96,95,0.0,0.0
756,61.0,0,95,0.0,0.0
757,60.0,96,95,0.0,0.0
758,75.0,96,191,0.0,0.0
759,58.0,0,95,0.0,0.0
760,73.0,96,191,0.0,0.0
761,60.0,96,95,0.0,0.0
762,58.0,0,95,0.0,0.0
763,56.0,96,95,0.0,0.0
764,72.0,96,191,0.0,0.0
765,54.0,0,95,0.0,0.0
766,70.0,96,191,0.0,0.0
767,56.0,96,95,0.0,0.0
768,54.0,0,95,0.0,0.0
769,52.0,96,95,0.0,0.0
770,68.0,0,191,0.0,0.0
771,51.0,96,95,0.0,0.0
772,76.0,49,191,0.0,0.0
773,52.0,96,95,0.0,0.0
774,49.0,0,95,0.0,0.0
775,54.0,192,191,0.0,0.0
776,76.0,48,48,0.0,0.0
777,75.0,48,48,0.0,0.0
778,76.0,47,48,0.0,0.0
779,75.0,191,240,0.0,0.0
780,56.0,1,191,0.0,0.0
781,49.0,96,191,0.0,0.0
782,73.0,96,383,0.0,0.0
783,61.0,96,95,0.0,0.0
784,63.0,0,95,0.0,0.0
785,65.0,96,95,0.0,0.0
786,73.0,96,191,0.0,0.0
787,66.0,0,95,0.0,0.0
788,75.0,96,191,0.0,0.0
789,65.0,96,95,0.0,0.0
790,66.0,0,95,0.0,0.0
791,68.0,96,95,0.0,0.0
792,77.0,96,191,0.0,0.0
793,69.0,0,95,0.0,0.0
794,68.0,96,95,0.0,0.0
795,78.0,0,191,0.0,0.0
796,69.0,96,95,0.0,0.0
797,71.0,96,95,0.0,0.0
798,80.0,116,459,0.0,0.0
799,73.0,96,95,0.0,0.0
800,71.0,96,95,0.0,0.0
801,73.0,76,95,0.0,0.0
802,74.0,96,575,0.0,0.0
803,78.0,96,95,0.0,0.0
804,80.0,96,95,0.0,0.0
805,81.0,96,95,0.0,0.0
806,83.0,96,95,0.0,0.0
807,81.0,0,95,0.0,0.0
808,73.0,96,191,0.0,0.0
809,83.0,96,95,0.0,0.0
810,81.0,0,95,0.0,0.0
811,71.0,0,95,0.0,0.0
812,80.0,96,95,0.0,0.0
813,69.0,96,95,0.0,0.0
814,81.0,0,95,0.0,0.0
815,71.0,96,95,0.0,0.0
816,78.0,96,383,0.0,0.0
817,69.0,96,95,0.0,0.0
818,68.0,96,95,0.0,0.0
819,73.0,0,95,0.0,0.0
820,77.0,96,191,0.0,0.0
821,71.0,96,95,0.0,0.0
822,73.0,0,95,0.0,0.0
823,69.0,96,95,0.0,0.0
824,78.0,96,191,0.0,0.0
825,68.0,0,95,0.0,0.0
826,69.0,0,95,0.0,0.0
827,78.0,96,95,0.0,0.0
828,80.0,0,95,0.0,0.0
829,68.0,96,95,0.0,0.0
830,66.0,96,191,0.0,0.0
831,81.0,96,95,0.0,0.0
832,80.0,0,95,0.0,0.0
833,54.0,0,191,0.0,0.0
834,81.0,96,95,0.0,0.0
835,80.0,96,95,0.0,0.0
836,61.0,0,191,0.0,0.0
837,78.0,96,95,0.0,0.0
838,57.0,96,191,0.0,0.0
839,76.0,0,95,0.0,0.0
840,56.0,96,191,0.0,0.0
841,59.0,0,191,0.0,0.0
842,78.0,96,95,0.0,0.0
843,76.0,0,95,0.0,0.0
844,75.0,96,95,0.0,0.0
845,57.0,0,191,0.0,0.0
846,54.0,96,191,0.0,0.0
847,73.0,0,95,0.0,0.0
848,52.0,96,191,0.0,0.0
849,56.0,0,191,0.0,0.0
850,75.0,96,95,0.0,0.0
851,73.0,0,95,0.0,0.0
852,54.0,0,575,0.0,0.0
853,72.0,96,95,0.0,0.0
854,51.0,96,191,0.0,0.0
855,73.0,0,95,0.0,0.0
856,49.0,96,191,0.0,0.0
857,72.0,96,95,0.0,0.0
858,73.0,0,95,0.0,0.0
859,48.0,0,191,0.0,0.0
860,75.0,96,95,0.0,0.0
861,76.0,96,95,0.0,0.0
862,46.0,96,191,0.0,0.0
863,49.0,0,191,0.0,0.0
864,75.0,96,95,0.0,0.0
865,76.0,0,95,0.0,0.0
866,44.0,0,191,0.0,0.0
867,48.0,0,191,0.0,0.0
868,78.0,96,95,0.0,0.0
869,72.0,96,95,0.0,0.0
870,52.0,96,191,0.0,0.0
871,56.0,96,95,0.0,0.0
872,73.0,73,310,0.0,0.0
873,57.0,0,95,0.0,0.0
874,51.0,96,383,0.0,0.0
875,56.0,23,95,0.0,0.0
876,57.0,96,95,0.0,0.0
877,71.0,96,383,0.0,0.0
878,53.0,96,95,0.0,0.0
879,54.0,0,95,0.0,0.0
880,53.0,0,191,0.0,0.0
881,49.0,96,95,0.0,0.0
882,61.0,96,191,0.0,0.0
883,54.0,0,191,0.0,0.0
884,69.0,96,383,0.0,0.0
885,61.0,96,95,0.0,0.0
886,47.0,0,191,0.0,0.0
887,62.0,96,95,0.0,0.0
888,61.0,0,95,0.0,0.0
889,52.0,0,191,0.0,0.0
890,62.0,96,95,0.0,0.0
891,68.0,96,383,0.0,0.0
892,59.0,96,95,0.0,0.0
893,61.0,96,95,0.0,0.0
894,45.0,0,191,0.0,0.0
895,59.0,0,95,0.0,0.0
896,50.0,96,191,0.0,0.0
897,61.0,96,95,0.0,0.0
898,66.0,0,383,0.0,0.0
899,57.0,0,95,0.0,0.0
900,59.0,96,95,0.0,0.0
901,44.0,0,191,0.0,0.0
902,57.0,96,95,0.0,0.0
903,49.0,96,191,0.0,0.0
904,59.0,75,95,0.0,0.0
905,65.0,21,170,0.0,0.0
906,56.0,0,95,0.0,0.0
907,42.0,3,380,0.0,0.0
908,57.0,96,95,0.0,0.0
909,66.0,0,380,0.0,0.0
910,61.0,96,95,0.0,0.0
911,59.0,93,95,0.0,0.0
912,61.0,192,95,0.0,0.0
913,62.0,96,479,0.0,0.0
914,54.0,96,95,0.0,0.0
915,69.0,0,95,0.0,0.0
916,52.0,96,95,0.0,0.0
917,68.0,0,95,0.0,0.0
918,54.0,0,95,0.0,0.0
919,69.0,96,95,0.0,0.0
920,56.0,3,380,0.0,0.0
921,71.0,155,420,0.0,0.0
922,63.0,96,95,0.0,0.0
923,61.0,93,95,0.0,0.0
924,63.0,37,95,0.0,0.0
925,64.0,96,479,0.0,0.0
926,56.0,0,95,0.0,0.0
927,71.0,96,95,0.0,0.0
928,54.0,96,95,0.0,0.0
929,69.0,0,95,0.0,0.0
930,56.0,96,95,0.0,0.0
931,71.0,0,95,0.0,0.0
932,57.0,3,380,0.0,0.0
933,73.0,135,440,0.0,0.0
934,65.0,96,95,0.0,0.0
935,63.0,93,95,0.0,0.0
936,65.0,57,95,0.0,0.0
937,66.0,96,479,0.0,0.0
938,57.0,96,95,0.0,0.0
939,73.0,0,95,0.0,0.0
940,56.0,96,95,0.0,0.0
941,71.0,0,95,0.0,0.0
942,58.0,0,95,0.0,0.0
943,73.0,96,95,0.0,0.0
944,59.0,3,380,0.0,0.0
945,74.0,15,560,0.0,0.0
946,66.0,96,95,0.0,0.0
947,65.0,93,95,0.0,0.0
948,66.0,177,95,0.0,0.0
949,68.0,0,191,0.0,0.0
950,59.0,96,95,0.0,0.0
951,74.0,96,287,0.0,0.0
952,66.0,96,191,0.0,0.0
953,57.0,96,95,0.0,0.0
954,59.0,0,95,0.0,0.0
955,61.0,96,191,0.0,0.0
956,65.0,0,383,0.0,0.0
957,73.0,0,95,0.0,0.0
958,49.0,96,191,0.0,0.0
959,71.0,96,95,0.0,0.0
960,73.0,0,95,0.0,0.0
961,50.0,96,95,0.0,0.0
962,66.0,96,191,0.0,0.0
963,69.0,0,191,0.0,0.0
964,49.0,0,95,0.0,0.0
965,50.0,96,95,0.0,0.0
966,70.0,0,191,0.0,0.0
967,73.0,96,191,0.0,0.0
968,49.0,0,95,0.0,0.0
969,47.0,96,95,0.0,0.0
970,71.0,96,191,0.0,0.0
971,74.0,0,191,0.0,0.0
972,45.0,0,95,0.0,0.0
973,47.0,96,95,0.0,0.0
974,66.0,0,191,0.0,0.0
975,73.0,0,191,0.0,0.0
976,45.0,96,95,0.0,0.0
977,44.0,96,95,0.0,0.0
978,65.0,96,191,0.0,0.0
979,71.0,0,191,0.0,0.0
980,42.0,0,95,0.0,0.0
981,44.0,96,95,0.0,0.0
982,61.0,0,191,0.0,0.0
983,69.0,0,191,0.0,0.0
984,42.0,96,95,0.0,0.0
985,41.0,96,95,0.0,0.0
986,59.0,96,191,0.0,0.0
987,68.0,0,191,0.0,0.0
988,42.0,0,95,0.0,0.0
989,41.0,96,95,0.0,0.0
990,57.0,0,191,0.0,0.0
991,66.0,0,191,0.0,0.0
992,42.0,96,95,0.0,0.0
993,44.0,96,95,0.0,0.0
994,56.0,96,191,0.0,0.0
995,65.0,0,191,0.0,0.0
996,45.0,0,95,0.0,0.0
997,44.0,96,95,0.0,0.0
998,54.0,0,191,0.0,0.0
999,63.0,0,191,0.0,0.0
1000,45.0,96,95,0.0,0.0
1001,47.0,96,95,0.0,0.0
1002,53.0,96,191,0.0,0.0
1003,61.0,0,191,0.0,0.0
1004,49.0,0,95,0.0,0.0
1005,45.0,96,95,0.0,0.0
1006,54.0,41,287,0.0,0.0
1007,69.0,0,191,0.0,0.0
1008,47.0,65,95,0.0,0.0
1009,49.0,0,383,0.0,0.0
1010,69.0,31,64,0.0,0.0
1011,68.0,55,64,0.0,0.0
1012,53.0,9,95,0.0,0.0
1013,69.0,87,64,0.0,0.0
1014,51.0,96,95,0.0,0.0
1015,68.0,191,183,0.0,0.0
1016,53.0,0,95,0.0,0.0
1017,50.0,192,191,0.0,0.0
1018,54.0,0,191,0.0,0.0
1019,66.0,1,190,0.0,0.0
1020,50.0,0,383,0.0,0.0
1021,66.0,25,191,0.0,0.0
1022,69.0,167,120,0.0,0.0
1023,68.0,25,191,0.0,0.0
1024,71.0,167,120,0.0,0.0
1025,49.0,191,191,0.0,0.0
1026,70.0,0,191,0.0,0.0
1027,73.0,0,95,0.0,0.0
1028,47.0,192,191,0.0,0.0
1029,71.0,1,190,0.0,0.0
1030,74.0,0,191,0.0,0.0
1031,59.0,25,191,0.0,0.0
1032,71.0,25,383,0.0,0.0
1033,62.0,167,120,0.0,0.0
1034,61.0,0,191,0.0,0.0
1035,64.0,167,120,0.0,0.0
1036,63.0,96,191,0.0,0.0
1037,69.0,0,191,0.0,0.0
1038,66.0,0,95,0.0,0.0
1039,64.0,192,191,0.0,0.0
1040,69.0,91,95,0.0,0.0
1041,68.0,5,90,0.0,0.0
1042,52.0,25,383,0.0,0.0
1043,68.0,25,191,0.0,0.0
1044,71.0,167,120,0.0,0.0
1045,69.0,0,191,0.0,0.0
1046,73.0,167,120,0.0,0.0
1047,50.0,0,191,0.0,0.0
1048,71.0,0,191,0.0,0.0
1049,74.0,191,95,0.0,0.0
1050,49.0,192,191,0.0,0.0
1051,73.0,1,190,0.0,0.0
1052,76.0,0,191,0.0,0.0
1053,61.0,25,191,0.0,0.0
1054,73.0,0,383,0.0,0.0
1055,64.0,167,120,0.0,0.0
1056,63.0,25,191,0.0,0.0
1057,66.0,167,120,0.0,0.0
1058,65.0,96,191,0.0,0.0
1059,71.0,0,191,0.0,0.0
1060,68.0,0,95,0.0,0.0
1061,66.0,192,191,0.0,0.0
1062,71.0,91,95,0.0,0.0
1063,69.0,5,90,0.0,0.0
1064,69.0,25,191,0.0,0.0
1065,54.0,25,383,0.0,0.0
1066,73.0,167,120,0.0,0.0
1067,71.0,0,191,0.0,0.0
1068,74.0,167,120,0.0,0.0
1069,52.0,25,191,0.0,0.0
1070,73.0,0,191,0.0,0.0
1071,76.0,167,120,0.0,0.0
1072,50.0,0,191,0.0,0.0
1073,74.0,95,191,0.0,0.0
1074,78.0,97,190,0.0,0.0
1075,62.0,25,383,0.0,0.0
1076,69.0,25,191,0.0,0.0
1077,78.0,167,120,0.0,0.0
1078,71.0,0,191,0.0,0.0
1079,80.0,167,120,0.0,0.0
1080,61.0,0,191,0.0,0.0
1081,73.0,191,191,0.0,0.0
1082,82.0,192,287,0.0,0.0
1083,59.0,0,191,0.0,0.0
1084,74.0,1,190,0.0,0.0
1085,71.0,25,191,0.0,0.0
1086,83.0,25,383,0.0,0.0
1087,74.0,167,120,0.0,0.0
1088,73.0,0,191,0.0,0.0
1089,76.0,167,120,0.0,0.0
1090,81.0,0,191,0.0,0.0
1091,75.0,191,191,0.0,0.0
1092,78.0,0,95,0.0,0.0
1093,76.0,1,190,0.0,0.0
1094,80.0,0,383,0.0,0.0
1095,74.0,192,95,0.0,0.0
1096,73.0,96,383,0.0,0.0
1097,69.0,96,95,0.0,0.0
1098,78.0,95,95,0.0,0.0
1099,62.0,1,190,0.0,0.0
1100,76.0,0,95,0.0,0.0
1101,71.0,96,383,0.0,0.0
1102,78.0,96,95,0.0,0.0
1103,68.0,96,95,0.0,0.0
1104,74.0,0,95,0.0,0.0
1105,61.0,1,190,0.0,0.0
1106,76.0,95,95,0.0,0.0
1107,74.0,0,95,0.0,0.0
1108,69.0,0,383,0.0,0.0
1109,76.0,96,95,0.0,0.0
1110,66.0,96,95,0.0,0.0
1111,73.0,0,95,0.0,0.0
1112,59.0,1,190,0.0,0.0
1113,74.0,95,95,0.0,0.0
1114,73.0,96,95,0.0,0.0
1115,68.0,96,191,0.0,0.0
1116,74.0,96,95,0.0,0.0
1117,64.0,0,95,0.0,0.0
1118,76.0,0,95,0.0,0.0
1119,66.0,96,191,0.0,0.0
1120,69.0,96,95,0.0,0.0
1121,73.0,96,287,0.0,0.0
1122,68.0,0,95,0.0,0.0
1123,69.0,0,95,0.0,0.0
1124,64.0,96,191,0.0,0.0
1125,68.0,96,287,0.0,0.0
1126,73.0,0,95,0.0,0.0
1127,63.0,0,191,0.0,0.0
1128,78.0,96,95,0.0,0.0
1129,76.0,0,95,0.0,0.0
1130,78.0,96,95,0.0,0.0
1131,61.0,96,191,0.0,0.0
1132,69.0,0,191,0.0,0.0
1133,76.0,0,95,0.0,0.0
1134,59.0,96,191,0.0,0.0
1135,68.0,0,191,0.0,0.0
1136,74.0,96,95,0.0,0.0
1137,73.0,0,95,0.0,0.0
1138,74.0,96,95,0.0,0.0
1139,69.0,0,191,0.0,0.0
1140,57.0,96,191,0.0,0.0
1141,73.0,0,95,0.0,0.0
1142,56.0,96,191,0.0,0.0
1143,64.0,0,191,0.0,0.0
1144,71.0,96,95,0.0,0.0
1145,69.0,0,95,0.0,0.0
1146,71.0,96,95,0.0,0.0
1147,62.0,96,287,0.0,0.0
1148,54.0,96,191,0.0,0.0
1149,69.0,0,95,0.0,0.0
1150,52.0,96,191,0.0,0.0
1151,68.0,0,95,0.0,0.0
1152,56.0,0,95,0.0,0.0
1153,74.0,0,95,0.0,0.0
1154,73.0,96,95,0.0,0.0
1155,54.0,49,191,0.0,0.0
1156,57.0,96,479,0.0,0.0
1157,71.0,0,95,0.0,0.0
1158,50.0,93,191,0.0,0.0
1159,73.0,48,48,0.0,0.0
1160,71.0,48,48,0.0,0.0
1161,73.0,47,48,0.0,0.0
1162,71.0,3,140,0.0,0.0
1163,52.0,96,191,0.0,0.0
1164,56.0,0,95,0.0,0.0
1165,69.0,0,95,0.0,0.0
1166,45.0,3,380,0.0,0.0
1167,57.0,96,95,0.0,0.0
1168,69.0,96,479,0.0,0.0
1169,73.0,96,95,0.0,0.0
1170,71.0,93,95,0.0,0.0
1171,73.0,96,95,0.0,0.0
1172,66.0,96,479,0.0,0.0
1173,51.0,96,95,0.0,0.0
1174,78.0,0,95,0.0,0.0
1175,49.0,96,95,0.0,0.0
1176,76.0,0,95,0.0,0.0
1177,51.0,96,95,0.0,0.0
1178,78.0,0,95,0.0,0.0
1179,72.0,96,479,0.0,0.0
1180,44.0,3,380,0.0,0.0
1181,68.0,96,95,0.0,0.0
1182,66.0,93,95,0.0,0.0
1183,68.0,96,95,0.0,0.0
1184,61.0,96,479,0.0,0.0
1185,45.0,96,95,0.0,0.0
1186,73.0,0,95,0.0,0.0
1187,71.0,0,95,0.0,0.0
1188,44.0,96,95,0.0,0.0
1189,45.0,96,95,0.0,0.0
1190,73.0,0,95,0.0,0.0
1191,42.0,3,380,0.0,0.0
1192,69.0,96,479,0.0,0.0
1193,66.0,96,95,0.0,0.0
1194,64.0,93,95,0.0,0.0
1195,66.0,96,95,0.0,0.0
1196,63.0,96,479,0.0,0.0
1197,44.0,96,95,0.0,0.0
1198,71.0,0,95,0.0,0.0
1199,42.0,96,95,0.0,0.0
1200,69.0,0,95,0.0,0.0
1201,44.0,96,95,0.0,0.0
1202,71.0,0,95,0.0,0.0
1203,68.0,96,479,0.0,0.0
1204,40.0,3,380,0.0,0.0
1205,64.0,96,95,0.0,0.0
1206,63.0,93,95,0.0,0.0
1207,64.0,96,95,0.0,0.0
1208,61.0,96,479,0.0,0.0
1209,45.0,96,95,0.0,0.0
1210,73.0,0,95,0.0,0.0
1211,71.0,0,95,0.0,0.0
1212,44.0,96,95,0.0,0.0
1213,45.0,96,95,0.0,0.0
1214,73.0,0,95,0.0,0.0
1215,39.0,3,380,0.0,0.0
1216,66.0,96,479,0.0,0.0
1217,63.0,96,95,0.0,0.0
1218,61.0,93,95,0.0,0.0
1219,63.0,96,95,0.0,0.0
1220,60.0,0,383,0.0,0.0
1221,44.0,96,95,0.0,0.0
1222,63.0,0,95,0.0,0.0
1223,42.0,96,95,0.0,0.0
1224,68.0,0,95,0.0,0.0
1225,44.0,0,95,0.0,0.0
1226,63.0,96,95,0.0,0.0
1227,64.0,96,191,0.0,0.0
1228,61.0,0,575,0.0,0.0
1229,37.0,96,95,0.0,0.0
1230,56.0,0,95,0.0,0.0
1231,54.0,96,95,0.0,0.0
1232,76.0,96,191,0.0,0.0
1233,56.0,0,95,0.0,0.0
1234,57.0,96,95,0.0,0.0
1235,78.0,96,191,0.0,0.0
1236,56.0,0,95,0.0,0.0
1237,57.0,96,95,0.0,0.0
1238,76.0,96,191,0.0,0.0
1239,80.0,0,191,0.0,0.0
1240,56.0,0,95,0.0,0.0
1241,54.0,96,95,0.0,0.0
1242,75.0,0,191,0.0,0.0
1243,81.0,96,191,0.0,0.0
1244,52.0,0,95,0.0,0.0
1245,54.0,96,95,0.0,0.0
1246,76.0,96,191,0.0,0.0
1247,80.0,0,191,0.0,0.0
1248,52.0,0,95,0.0,0.0
1249,51.0,96,95,0.0,0.0
1250,72.0,0,191,0.0,0.0
1251,78.0,0,191,0.0,0.0
1252,49.0,96,95,0.0,0.0
1253,51.0,96,95,0.0,0.0
1254,68.0,96,191,0.0,0.0
1255,76.0,0,191,0.0,0.0
1256,49.0,0,95,0.0,0.0
1257,48.0,96,95,0.0,0.0
1258,66.0,0,191,0.0,0.0
1259,75.0,0,191,0.0,0.0
1260,49.0,96,95,0.0,0.0
1261,48.0,96,95,0.0,0.0
1262,64.0,96,191,0.0,0.0
1263,73.0,0,191,0.0,0.0
1264,49.0,0,95,0.0,0.0
1265,51.0,96,95,0.0,0.0
1266,63.0,0,191,0.0,0.0
1267,72.0,0,191,0.0,0.0
1268,52.0,96,95,0.0,0.0
1269,51.0,96,95,0.0,0.0
1270,61.0,96,191,0.0,0.0
1271,70.0,0,191,0.0,0.0
1272,52.0,0,95,0.0,0.0
1273,54.0,96,95,0.0,0.0
1274,60.0,0,191,0.0,0.0
1275,68.0,0,191,0.0,0.0
1276,56.0,96,95,0.0,0.0
1277,52.0,96,95,0.0,0.0
1278,61.0,41,287,0.0,0.0
1279,76.0,65,191,0.0,0.0
1280,54.0,0,95,0.0,0.0
1281,56.0,192,383,0.0,0.0
1282,76.0,31,64,0.0,0.0
1283,75.0,55,64,0.0,0.0
1284,60.0,9,95,0.0,0.0
1285,76.0,87,64,0.0,0.0
1286,58.0,53,95,0.0,0.0
1287,75.0,43,140,0.0,0.0
1288,60.0,0,95,0.0,0.0
1289,49.0,0,380,0.0,0.0
1290,61.0,3,380,0.0,0.0
1291,68.0,96,95,0.0,0.0
1292,66.0,93,95,0.0,0.0
1293,68.0,105,95,0.0,0.0
1294,69.0,87,104,0.0,0.0
1295,61.0,96,95,0.0,0.0
1296,68.0,0,95,0.0,0.0
1297,59.0,10,95,0.0,0.0
1298,69.0,86,105,0.0,0.0
1299,61.0,0,95,0.0,0.0
1300,68.0,96,95,0.0,0.0
1301,62.0,95,95,0.0,0.0
1302,66.0,1,190,0.0,0.0
1303,61.0,96,95,0.0,0.0
1304,78.0,0,95,0.0,0.0
1305,62.0,96,95,0.0,0.0
1306,77.0,0,95,0.0,0.0
1307,61.0,0,95,0.0,0.0
1308,78.0,96,95,0.0,0.0
1309,59.0,96,95,0.0,0.0
1310,79.0,0,95,0.0,0.0
1311,59.0,96,95,0.0,0.0
1312,78.0,0,95,0.0,0.0
1313,57.0,96,95,0.0,0.0
1314,79.0,0,95,0.0,0.0
1315,78.0,96,95,0.0,0.0
1316,59.0,0,95,0.0,0.0
1317,61.0,95,95,0.0,0.0
1318,76.0,1,190,0.0,0.0
1319,59.0,96,95,0.0,0.0
1320,68.0,0,95,0.0,0.0
1321,61.0,0,95,0.0,0.0
1322,66.0,0,95,0.0,0.0
1323,75.0,96,95,0.0,0.0
1324,68.0,0,95,0.0,0.0
1325,76.0,0,95,0.0,0.0
1326,59.0,96,95,0.0,0.0
1327,57.0,96,95,0.0,0.0
1328,69.0,0,95,0.0,0.0
1329,78.0,0,95,0.0,0.0
1330,57.0,0,95,0.0,0.0
1331,68.0,0,95,0.0,0.0
1332,76.0,96,95,0.0,0.0
1333,56.0,96,95,0.0,0.0
1334,69.0,0,95,0.0,0.0
1335,78.0,0,95,0.0,0.0
1336,68.0,0,95,0.0,0.0
1337,57.0,96,95,0.0,0.0
1338,76.0,0,95,0.0,0.0
1339,66.0,21,170,0.0,0.0
1340,74.0,96,191,0.0,0.0
1341,59.0,75,95,0.0,0.0
1342,57.0,0,95,0.0,0.0
1343,56.0,96,95,0.0,0.0
1344,71.0,96,383,0.0,0.0
1345,54.0,96,95,0.0,0.0
1346,53.0,96,95,0.0,0.0
1347,73.0,96,383,0.0,0.0
1348,56.0,0,95,0.0,0.0
1349,69.0,96,383,0.0,0.0
1350,54.0,96,95,0.0,0.0
1351,57.0,0,95,0.0,0.0
1352,51.0,96,95,0.0,0.0
1353,71.0,0,383,0.0,0.0
1354,54.0,0,95,0.0,0.0
1355,52.0,96,95,0.0,0.0
1356,68.0,96,383,0.0,0.0
1357,56.0,96,95,0.0,0.0
1358,69.0,96,383,0.0,0.0
1359,54.0,96,95,0.0,0.0
1360,52.0,0,95,0.0,0.0
1361,50.0,96,95,0.0,0.0
1362,66.0,0,383,0.0,0.0
1363,49.0,0,95,0.0,0.0
1364,47.0,96,95,0.0,0.0
1365,68.0,3,380,0.0,0.0
1366,50.0,96,95,0.0,0.0
1367,49.0,93,95,0.0,0.0
1368,66.0,96,191,0.0,0.0
1369,47.0,0,95,0.0,0.0
1370,65.0,52,140,0.0,0.0
1371,49.0,44,95,0.0,0.0
1372,47.0,192,95,0.0,0.0
1373,73.0,191,191,0.0,0.0
1374,49.0,0,191,0.0,0.0
1375,42.0,1,190,0.0,0.0
1376,66.0,103,280,0.0,0.0
1377,74.0,89,191,0.0,0.0
1378,73.0,96,191,0.0,0.0
1379,61.0,0,95,0.0,0.0
1380,62.0,96,95,0.0,0.0
1381,71.0,0,191,0.0,0.0
1382,61.0,96,95,0.0,0.0
1383,62.0,96,95,0.0,0.0
1384,69.0,96,191,0.0,0.0
1385,61.0,0,95,0.0,0.0
1386,59.0,96,95,0.0,0.0
1387,68.0,96,191,0.0,0.0
1388,57.0,0,95,0.0,0.0
1389,59.0,96,95,0.0,0.0
1390,66.0,96,191,0.0,0.0
1391,57.0,0,95,0.0,0.0
1392,56.0,96,95,0.0,0.0
1393,65.0,96,191,0.0,0.0
1394,54.0,0,95,0.0,0.0
1395,56.0,96,95,0.0,0.0
1396,63.0,96,191,0.0,0.0
1397,54.0,0,95,0.0,0.0
1398,61.0,192,191,0.0,0.0
1399,53.0,96,95,0.0,0.0
1400,49.0,0,95,0.0,0.0
1401,54.0,9,287,0.0,0.0
1402,69.0,49,191,0.0,0.0
1403,69.0,47,48,0.0,0.0
1404,68.0,48,48,0.0,0.0
1405,53.0,96,95,0.0,0.0
1406,69.0,39,48,0.0,0.0
1407,68.0,41,190,0.0,0.0
1408,54.0,55,95,0.0,0.0
1409,56.0,192,95,0.0,0.0
1410,57.0,145,430,0.0,0.0
1411,66.0,96,95,0.0,0.0
1412,68.0,96,95,0.0,0.0
1413,69.0,47,95,0.0,0.0
1414,71.0,135,440,0.0,0.0
1415,56.0,96,95,0.0,0.0
1416,57.0,96,95,0.0,0.0
1417,59.0,57,95,0.0,0.0
1418,61.0,125,450,0.0,0.0
1419,69.0,96,95,0.0,0.0
1420,71.0,96,95,0.0,0.0
1421,73.0,67,95,0.0,0.0
1422,74.0,115,460,0.0,0.0
1423,59.0,96,95,0.0,0.0
1424,61.0,96,95,0.0,0.0
1425,62.0,77,95,0.0,0.0
1426,64.0,105,470,0.0,0.0
1427,73.0,96,95,0.0,0.0
1428,74.0,96,95,0.0,0.0
1429,76.0,87,95,0.0,0.0
1430,78.0,55,520,0.0,0.0
1431,62.0,96,95,0.0,0.0
1432,64.0,96,95,0.0,0.0
1433,66.0,137,95,0.0,0.0
1434,67.0,96,287,0.0,0.0
1435,71.0,96,95,0.0,0.0
1436,76.0,96,287,0.0,0.0
1437,73.0,96,95,0.0,0.0
1438,66.0,96,287,0.0,0.0
1439,69.0,96,95,0.0,0.0
1440,74.0,96,287,0.0,0.0
1441,71.0,96,95,0.0,0.0
1442,64.0,96,287,0.0,0.0
1443,67.0,96,95,0.0,0.0
1444,73.0,96,287,0.0,0.0
1445,69.0,96,95,0.0,0.0
1446,62.0,96,287,0.0,0.0
1447,66.0,96,95,0.0,0.0
1448,71.0,96,287,0.0,0.0
1449,67.0,96,95,0.0,0.0
1450,61.0,25,550,0.0,0.0
1451,71.0,96,95,0.0,0.0
1452,70.0,96,95,0.0,0.0
1453,68.0,167,95,0.0,0.0
1454,70.0,23,360,0.0,0.0
1455,64.0,96,95,0.0,0.0
1456,62.0,73,95,0.0,0.0
1457,54.0,96,191,0.0,0.0
1458,61.0,0,95,0.0,0.0
1459,55.0,96,191,0.0,0.0
1460,59.0,95,95,0.0,0.0
1461,71.0,1,190,0.0,0.0
1462,63.0,0,95,0.0,0.0
1463,54.0,96,191,0.0,0.0
1464,64.0,96,95,0.0,0.0
1465,66.0,0,95,0.0,0.0
1466,52.0,96,191,0.0,0.0
1467,67.0,96,95,0.0,0.0
1468,66.0,0,95,0.0,0.0
1469,50.0,0,191,0.0,0.0
1470,67.0,96,95,0.0,0.0
1471,71.0,0,191,0.0,0.0
1472,66.0,96,95,0.0,0.0
1473,49.0,96,191,0.0,0.0
1474,64.0,96,95,0.0,0.0
1475,70.0,0,191,0.0,0.0
1476,62.0,0,95,0.0,0.0
1477,47.0,0,191,0.0,0.0
1478,64.0,96,95,0.0,0.0
1479,71.0,0,191,0.0,0.0
1480,62.0,96,95,0.0,0.0
1481,46.0,96,191,0.0,0.0
1482,61.0,96,95,0.0,0.0
1483,66.0,0,191,0.0,0.0
1484,62.0,0,95,0.0,0.0
1485,44.0,0,191,0.0,0.0
1486,61.0,96,95,0.0,0.0
1487,68.0,96,191,0.0,0.0
1488,62.0,0,95,0.0,0.0
1489,42.0,96,191,0.0,0.0
1490,64.0,96,95,0.0,0.0
1491,70.0,0,191,0.0,0.0
1492,66.0,0,95,0.0,0.0
1493,47.0,0,191,0.0,0.0
1494,62.0,96,95,0.0,0.0
1495,71.0,96,383,0.0,0.0
1496,64.0,96,95,0.0,0.0
1497,40.0,0,191,0.0,0.0
1498,61.0,96,95,0.0,0.0
1499,66.0,0,95,0.0,0.0
1500,42.0,0,191,0.0,0.0
1501,64.0,96,95,0.0,0.0
1502,70.0,0,191,0.0,0.0
1503,66.0,96,95,0.0,0.0
1504,71.0,96,95,0.0,0.0
1505,47.0,7,280,0.0,0.0
1506,62.0,89,191,0.0,0.0
1507,78.0,91,191,0.0,0.0
1508,71.0,192,191,0.0,0.0
1509,77.0,5,90,0.0,0.0
1510,73.0,0,191,0.0,0.0
1511,47.0,96,95,0.0,0.0
1512,78.0,91,191,0.0,0.0
1513,50.0,0,95,0.0,0.0
1514,71.0,192,191,0.0,0.0
1515,47.0,0,95,0.0,0.0
1516,80.0,5,90,0.0,0.0
1517,54.0,3,380,0.0,0.0
1518,73.0,96,191,0.0,0.0
1519,81.0,93,191,0.0,0.0
1520,69.0,96,191,0.0,0.0
1521,72.0,96,191,0.0,0.0
1522,68.0,96,191,0.0,0.0
1523,42.0,0,95,0.0,0.0
1524,73.0,96,191,0.0,0.0
1525,45.0,0,95,0.0,0.0
1526,66.0,0,191,0.0,0.0
1527,42.0,96,95,0.0,0.0
1528,75.0,96,191,0.0,0.0
1529,49.0,0,95,0.0,0.0
1530,64.0,96,191,0.0,0.0
1531,59.0,0,95,0.0,0.0
1532,77.0,96,191,0.0,0.0
1533,57.0,0,95,0.0,0.0
1534,73.0,0,191,0.0,0.0
1535,75.0,96,191,0.0,0.0
1536,59.0,96,95,0.0,0.0
1537,56.0,0,95,0.0,0.0
1538,71.0,96,191,0.0,0.0
1539,59.0,0,95,0.0,0.0
1540,77.0,96,191,0.0,0.0
1541,54.0,0,95,0.0,0.0
1542,69.0,0,191,0.0,0.0
1543,57.0,96,95,0.0,0.0
1544,78.0,96,191,0.0,0.0
1545,53.0,0,95,0.0,0.0
1546,68.0,96,191,0.0,0.0
1547,56.0,0,95,0.0,0.0
1548,80.0,0,95,0.0,0.0
1549,49.0,96,95,0.0,0.0
1550,71.0,0,191,0.0,0.0
1551,74.0,0,191,0.0,0.0
1552,53.0,96,95,0.0,0.0
1553,69.0,96,191,0.0,0.0
1554,73.0,0,191,0.0,0.0
1555,51.0,96,95,0.0,0.0
1556,54.0,0,95,0.0,0.0
1557,53.0,96,95,0.0,0.0
1558,68.0,96,383,0.0,0.0
1559,71.0,96,191,0.0,0.0
1560,56.0,0,95,0.0,0.0
1561,54.0,96,95,0.0,0.0
1562,69.0,96,383,0.0,0.0
1563,57.0,0,95,0.0,0.0
1564,62.0,96,95,0.0,0.0
1565,66.0,96,383,0.0,0.0
1566,57.0,0,95,0.0,0.0
1567,59.0,96,95,0.0,0.0
1568,68.0,192,383,0.0,0.0
1569,56.0,0,95,0.0,0.0
1570,65.0,0,191,0.0,0.0
1571,61.0,96,95,0.0,0.0
1572,49.0,0,95,0.0,0.0
1573,50.0,96,191,0.0,0.0
1574,66.0,3,380,0.0,0.0
1575,69.0,0,95,0.0,0.0
1576,49.0,0,191,0.0,0.0
1577,73.0,93,95,0.0,0.0
1578,69.0,192,95,0.0,0.0
1579,47.0,96,191,0.0,0.0
1580,74.0,0,191,0.0,0.0
1581,66.0,0,95,0.0,0.0
1582,45.0,0,191,0.0,0.0
1583,69.0,96,95,0.0,0.0
1584,73.0,0,191,0.0,0.0
1585,66.0,96,95,0.0,0.0
1586,71.0,0,191,0.0,0.0
1587,44.0,96,95,0.0,0.0
1588,68.0,96,191,0.0,0.0
1589,56.0,0,95,0.0,0.0
1590,59.0,96,95,0.0,0.0
1591,66.0,96,191,0.0,0.0
1592,69.0,96,287,0.0,0.0
1593,56.0,0,95,0.0,0.0
1594,61.0,96,191,0.0,0.0
1595,64.0,0,191,0.0,0.0
1596,68.0,0,95,0.0,0.0
1597,59.0,192,191,0.0,0.0
1598,62.0,1,190,0.0,0.0
1599,71.0,95,95,0.0,0.0
1600,68.0,0,95,0.0,0.0
1601,57.0,0,191,0.0,0.0
1602,73.0,96,191,0.0,0.0
1603,61.0,0,95,0.0,0.0
1604,56.0,1,190,0.0,0.0
1605,65.0,95,95,0.0,0.0
1606,71.0,192,191,0.0,0.0
1607,61.0,0,95,0.0,0.0
1608,66.0,0,191,0.0,0.0
1609,69.0,0,191,0.0,0.0
1610,54.0,96,95,0.0,0.0
1611,57.0,95,95,0.0,0.0
1612,64.0,192,191,0.0,0.0
1613,68.0,1,190,0.0,0.0
1614,54.0,0,95,0.0,0.0
1615,59.0,0,191,0.0,0.0
1616,63.0,0,191,0.0,0.0
1617,66.0,96,95,0.0,0.0
1618,69.0,95,95,0.0,0.0
1619,61.0,1,190,0.0,0.0
1620,57.0,192,191,0.0,0.0
1621,66.0,0,95,0.0,0.0
1622,56.0,96,191,0.0,0.0
1623,71.0,0,191,0.0,0.0
1624,59.0,0,95,0.0,0.0
1625,54.0,1,190,0.0,0.0
1626,63.0,95,95,0.0,0.0
1627,69.0,192,191,0.0,0.0
1628,59.0,0,95,0.0,0.0
1629,64.0,96,191,0.0,0.0
1630,68.0,0,191,0.0,0.0
1631,52.0,0,95,0.0,0.0
1632,56.0,95,95,0.0,0.0
1633,63.0,192,191,0.0,0.0
1634,66.0,1,190,0.0,0.0
1635,52.0,0,95,0.0,0.0
1636,57.0,96,191,0.0,0.0
1637,61.0,0,191,0.0,0.0
1638,64.0,0,95,0.0,0.0
1639,56.0,0,191,0.0,0.0
1640,59.0,1,190,0.0,0.0
1641,68.0,95,95,0.0,0.0
1642,64.0,192,95,0.0,0.0
1643,54.0,96,191,0.0,0.0
1644,69.0,0,191,0.0,0.0
1645,57.0,0,95,0.0,0.0
1646,61.0,95,95,0.0,0.0
1647,52.0,1,190,0.0,0.0
1648,68.0,192,191,0.0,0.0
1649,57.0,0,95,0.0,0.0
1650,63.0,96,191,0.0,0.0
1651,66.0,0,191,0.0,0.0
1652,51.0,0,95,0.0,0.0
1653,54.0,95,95,0.0,0.0
1654,61.0,91,191,0.0,0.0
1655,64.0,1,190,0.0,0.0
1656,51.0,0,95,0.0,0.0
1657,56.0,0,191,0.0,0.0
1658,63.0,101,90,0.0,0.0
1659,63.0,96,95,0.0,0.0
1660,54.0,192,191,0.0,0.0
1661,57.0,1,190,0.0,0.0
1662,66.0,95,95,0.0,0.0
1663,63.0,0,95,0.0,0.0
1664,52.0,96,191,0.0,0.0
1665,68.0,0,191,0.0,0.0
1666,56.0,0,95,0.0,0.0
1667,66.0,192,191,0.0,0.0
1668,60.0,95,95,0.0,0.0
1669,51.0,1,190,0.0,0.0
1670,56.0,0,95,0.0,0.0
1671,61.0,96,191,0.0,0.0
1672,64.0,0,191,0.0,0.0
1673,49.0,0,95,0.0,0.0
1674,52.0,96,95,0.0,0.0
1675,59.0,96,191,0.0,0.0
1676,63.0,0,191,0.0,0.0
1677,49.0,0,95,0.0,0.0
1678,54.0,96,95,0.0,0.0
1679,57.0,3,380,0.0,0.0
1680,61.0,96,191,0.0,0.0
1681,52.0,0,95,0.0,0.0
1682,51.0,93,95,0.0,0.0
1683,66.0,192,383,0.0,0.0
1684,49.0,191,95,0.0,0.0
1685,48.0,1,190,0.0,0.0
1686,56.0,0,95,0.0,0.0
1687,61.0,0,383,0.0,0.0
1688,64.0,96,191,0.0,0.0
1689,49.0,0,95,0.0,0.0
1690,54.0,95,95,0.0,0.0
1691,63.0,1,190,0.0,0.0
1692,51.0,82,95,0.0,0.0
1693,56.0,96,95,0.0,0.0
1694,60.0,14,81,0.0,0.0
1695,44.0,2,95,0.0,0.0
1696,68.0,94,95,0.0,0.0
1697,49.0,1,190,0.0,0.0
1698,61.0,0,191,0.0,0.0
1699,69.0,95,95,0.0,0.0
1700,68.0,96,95,0.0,0.0
1701,64.0,96,191,0.0,0.0
1702,69.0,96,95,0.0,0.0
1703,49.0,0,95,0.0,0.0
1704,68.0,0,95,0.0,0.0
1705,51.0,95,95,0.0,0.0
1706,58.0,1,190,0.0,0.0
1707,67.0,0,191,0.0,0.0
1708,49.0,96,95,0.0,0.0
1709,51.0,96,95,0.0,0.0
1710,70.0,96,191,0.0,0.0
1711,49.0,0,95,0.0,0.0
1712,47.0,96,95,0.0,0.0
1713,75.0,0,95,0.0,0.0
1714,46.0,0,95,0.0,0.0
1715,73.0,96,95,0.0,0.0
1716,75.0,0,95,0.0,0.0
1717,47.0,96,95,0.0,0.0
1718,63.0,96,191,0.0,0.0
1719,46.0,0,95,0.0,0.0
1720,73.0,0,95,0.0,0.0
1721,44.0,0,191,0.0,0.0
1722,68.0,96,95,0.0,0.0
1723,71.0,0,191,0.0,0.0
1724,67.0,96,95,0.0,0.0
1725,51.0,96,191,0.0,0.0
1726,68.0,96,95,0.0,0.0
1727,70.0,0,191,0.0,0.0
1728,67.0,0,95,0.0,0.0
1729,52.0,0,191,0.0,0.0
1730,68.0,96,95,0.0,0.0
1731,73.0,0,191,0.0,0.0
1732,67.0,96,95,0.0,0.0
1733,51.0,96,191,0.0,0.0
1734,68.0,96,95,0.0,0.0
1735,71.0,0,191,0.0,0.0
1736,67.0,0,95,0.0,0.0
1737,49.0,0,191,0.0,0.0
1738,68.0,96,95,0.0,0.0
1739,76.0,96,191,0.0,0.0
1740,67.0,0,95,0.0,0.0
1741,47.0,96,191,0.0,0.0
1742,68.0,96,95,0.0,0.0
1743,75.0,0,191,0.0,0.0
1744,67.0,0,95,0.0,0.0
1745,46.0,49,191,0.0,0.0
1746,68.0,96,95,0.0,0.0
1747,73.0,143,240,0.0,0.0
1748,67.0,0,95,0.0,0.0
1749,68.0,0,191,0.0,0.0
1750,44.0,96,191,0.0,0.0
1751,71.0,0,95,0.0,0.0
1752,43.0,96,191,0.0,0.0
1753,63.0,0,191,0.0,0.0
1754,70.0,96,95,0.0,0.0
1755,71.0,0,95,0.0,0.0
1756,70.0,96,95,0.0,0.0
1757,68.0,0,191,0.0,0.0
1758,41.0,96,191,0.0,0.0
1759,71.0,0,95,0.0,0.0
1760,39.0,96,191,0.0,0.0
1761,67.0,0,191,0.0,0.0
1762,73.0,96,95,0.0,0.0
1763,75.0,0,95,0.0,0.0
1764,73.0,96,95,0.0,0.0
1765,68.0,96,191,0.0,0.0
1766,44.0,43,340,0.0,0.0
1767,75.0,0,95,0.0,0.0
1768,70.0,0,383,0.0,0.0
1769,73.0,53,95,0.0,0.0
1770,76.0,96,95,0.0,0.0
1771,43.0,96,191,0.0,0.0
1772,75.0,96,95,0.0,0.0
1773,78.0,0,95,0.0,0.0
1774,44.0,96,191,0.0,0.0
1775,71.0,0,191,0.0,0.0
1776,76.0,96,95,0.0,0.0
1777,75.0,0,95,0.0,0.0
1778,43.0,0,191,0.0,0.0
1779,70.0,96,191,0.0,0.0
1780,76.0,96,95,0.0,0.0
1781,75.0,0,95,0.0,0.0
1782,44.0,96,191,0.0,0.0
1783,71.0,0,191,0.0,0.0
1784,76.0,96,95,0.0,0.0
1785,80.0,0,95,0.0,0.0
1786,46.0,0,191,0.0,0.0
1787,73.0,96,287,0.0,0.0
1788,78.0,96,95,0.0,0.0
1789,76.0,96,95,0.0,0.0
1790,47.0,96,191,0.0,0.0
1791,75.0,96,287,0.0,0.0
1792,66.0,0,95,0.0,0.0
1793,46.0,96,191,0.0,0.0
1794,71.0,95,480,0.0,0.0
1795,75.0,0,95,0.0,0.0
1796,77.0,96,95,0.0,0.0
1797,44.0,96,191,0.0,0.0
1798,80.0,0,95,0.0,0.0
1799,56.0,96,191,0.0,0.0
1800,77.0,1,95,0.0,0.0
1801,75.0,0,95,0.0,0.0
1802,65.0,2,380,0.0,0.0
1803,74.0,96,95,0.0,0.0
1804,58.0,0,95,0.0,0.0
1805,72.0,96,95,0.0,0.0
1806,59.0,93,95,0.0,0.0
1807,70.0,1,190,0.0,0.0
1808,58.0,192,95,0.0,0.0
1809,59.0,96,191,0.0,0.0
1810,78.0,0,95,0.0,0.0
1811,58.0,0,191,0.0,0.0
1812,80.0,96,95,0.0,0.0
1813,82.0,192,95,0.0,0.0
1814,83.0,0,191,0.0,0.0
1815,56.0,96,191,0.0,0.0
1816,75.0,0,95,0.0,0.0
1817,54.0,192,191,0.0,0.0
1818,77.0,91,95,0.0,0.0
1819,82.0,0,191,0.0,0.0
1820,78.0,5,90,0.0,0.0
1821,53.0,96,191,0.0,0.0
1822,80.0,0,191,0.0,0.0
1823,72.0,0,95,0.0,0.0
1824,51.0,96,191,0.0,0.0
1825,74.0,91,95,0.0,0.0
1826,78.0,0,191,0.0,0.0
1827,75.0,5,90,0.0,0.0
1828,50.0,0,191,0.0,0.0
1829,77.0,96,95,0.0,0.0
1830,75.0,96,95,0.0,0.0
1831,48.0,192,191,0.0,0.0
1832,77.0,96,95,0.0,0.0
1833,78.0,0,95,0.0,0.0
1834,80.0,96,479,0.0,0.0
1835,46.0,96,191,0.0,0.0
1836,72.0,0,95,0.0,0.0
1837,44.0,0,191,0.0,0.0
1838,74.0,96,95,0.0,0.0
1839,75.0,96,95,0.0,0.0
1840,46.0,96,191,0.0,0.0
1841,74.0,0,191,0.0,0.0
1842,82.0,0,95,0.0,0.0
1843,50.0,0,191,0.0,0.0
1844,74.0,96,383,0.0,0.0
1845,77.0,96,95,0.0,0.0
1846,78.0,96,95,0.0,0.0
1847,77.0,96,95,0.0,0.0
1848,46.0,0,191,0.0,0.0
1849,83.0,0,95,0.0,0.0
1850,46.0,96,191,0.0,0.0
1851,73.0,96,287,0.0,0.0
1852,82.0,96,95,0.0,0.0
1853,80.0,0,95,0.0,0.0
1854,39.0,96,191,0.0,0.0
1855,79.0,96,383,0.0,0.0
1856,76.0,0,95,0.0,0.0
1857,51.0,0,191,0.0,0.0
1858,75.0,96,95,0.0,0.0
1859,73.0,0,95,0.0,0.0
1860,52.0,0,191,0.0,0.0
1861,71.0,96,95,0.0,0.0
1862,80.0,96,479,0.0,0.0
1863,75.0,96,95,0.0,0.0
1864,51.0,96,191,0.0,0.0
1865,73.0,96,95,0.0,0.0
1866,71.0,0,95,0.0,0.0
1867,49.0,96,191,0.0,0.0
1868,70.0,96,479,0.0,0.0
1869,80.0,0,95,0.0,0.0
1870,46.0,96,191,0.0,0.0
1871,82.0,96,95,0.0,0.0
1872,80.0,0,95,0.0,0.0
1873,51.0,96,191,0.0,0.0
1874,78.0,96,479,0.0,0.0
1875,69.0,0,95,0.0,0.0
1876,49.0,96,191,0.0,0.0
1877,71.0,96,95,0.0,0.0
1878,69.0,0,95,0.0,0.0
1879,68.0,0,191,0.0,0.0
1880,48.0,96,191,0.0,0.0
1881,78.0,0,95,0.0,0.0
1882,56.0,96,191,0.0,0.0
1883,60.0,0,191,0.0,0.0
1884,80.0,96,95,0.0,0.0
1885,78.0,0,95,0.0,0.0
1886,76.0,96,95,0.0,0.0
1887,61.0,96,479,0.0,0.0
1888,57.0,96,191,0.0,0.0
1889,80.0,0,95,0.0,0.0
1890,56.0,96,191,0.0,0.0
1891,78.0,96,95,0.0,0.0
1892,76.0,0,95,0.0,0.0
1893,54.0,96,191,0.0,0.0
1894,75.0,0,95,0.0,0.0
1895,80.0,0,95,0.0,0.0
1896,60.0,0,95,0.0,0.0
1897,51.0,49,191,0.0,0.0
1898,61.0,0,191,0.0,0.0
1899,81.0,96,95,0.0,0.0
1900,75.0,0,95,0.0,0.0
1901,56.0,0,383,0.0,0.0
1902,60.0,0,383,0.0,0.0
1903,76.0,56,48,0.0,0.0
1904,75.0,48,48,0.0,0.0
1905,76.0,140,48,0.0,0.0
1906,75.0,91,140,0.0,0.0
1907,73.0,96,95,0.0,0.0
1908,49.0,96,383,0.0,0.0
1909,61.0,96,95,0.0,0.0
1910,73.0,3,380,0.0,0.0
1911,64.0,96,95,0.0,0.0
1912,66.0,93,95,0.0,0.0
1913,68.0,0,95,0.0,0.0
1914,69.0,96,95,0.0,0.0
1915,68.0,96,95,0.0,0.0
1916,69.0,96,95,0.0,0.0
1917,80.0,96,191,0.0,0.0
1918,68.0,0,95,0.0,0.0
1919,81.0,96,191,0.0,0.0
1920,66.0,96,95,0.0,0.0
1921,64.0,0,95,0.0,0.0
1922,66.0,96,95,0.0,0.0
1923,80.0,96,191,0.0,0.0
1924,64.0,0,95,0.0,0.0
1925,63.0,96,95,0.0,0.0
1926,78.0,0,191,0.0,0.0
1927,61.0,96,95,0.0,0.0
1928,63.0,96,95,0.0,0.0
1929,76.0,96,191,0.0,0.0
1930,61.0,0,95,0.0,0.0
1931,60.0,96,95,0.0,0.0
1932,75.0,96,191,0.0,0.0
1933,61.0,0,95,0.0,0.0
1934,60.0,96,95,0.0,0.0
1935,73.0,96,191,0.0,0.0
1936,61.0,0,95,0.0,0.0
1937,63.0,96,95,0.0,0.0
1938,72.0,96,191,0.0,0.0
1939,64.0,0,95,0.0,0.0
1940,63.0,96,95,0.0,0.0
1941,70.0,96,191,0.0,0.0
1942,64.0,0,95,0.0,0.0
1943,66.0,96,95,0.0,0.0
1944,68.0,96,191,0.0,0.0
1945,60.0,0,95,0.0,0.0
1946,61.0,96,95,0.0,0.0
1947,76.0,49,191,0.0,0.0
1948,63.0,0,95,0.0,0.0
1949,61.0,81,287,0.0,0.0
1950,76.0,56,48,0.0,0.0
1951,75.0,48,48,0.0,0.0
1952,76.0,135,48,0.0,0.0
1953,75.0,15,216,0.0,0.0
1954,60.0,96,95,0.0,0.0
1955,61.0,96,95,0.0,0.0
1956,73.0,7,280,0.0,0.0
1957,63.0,89,95,0.0,0.0
1958,61.0,96,95,0.0,0.0
1959,63.0,96,95,0.0,0.0
1960,68.0,96,95,0.0,0.0
1961,64.0,3,380,0.0,0.0
1962,70.0,96,95,0.0,0.0
1963,68.0,93,95,0.0,0.0
1964,70.0,192,95,0.0,0.0
1965,71.0,3,380,0.0,0.0
1966,63.0,96,95,0.0,0.0
1967,64.0,93,95,0.0,0.0
1968,66.0,91,95,0.0,0.0
1969,68.0,101,90,0.0,0.0
1970,68.0,96,95,0.0,0.0
1971,66.0,96,191,0.0,0.0
1972,69.0,96,95,0.0,0.0
1973,71.0,0,95,0.0,0.0
1974,65.0,96,95,0.0,0.0
1975,73.0,0,191,0.0,0.0
1976,61.0,96,95,0.0,0.0
1977,63.0,96,95,0.0,0.0
1978,71.0,96,191,0.0,0.0
1979,65.0,0,95,0.0,0.0
1980,66.0,96,191,0.0,0.0
1981,69.0,96,95,0.0,0.0
1982,73.0,0,95,0.0,0.0
1983,64.0,96,191,0.0,0.0
1984,74.0,96,95,0.0,0.0
1985,76.0,0,95,0.0,0.0
1986,62.0,96,95,0.0,0.0
1987,78.0,96,191,0.0,0.0
1988,66.0,0,95,0.0,0.0
1989,68.0,96,95,0.0,0.0
1990,76.0,96,191,0.0,0.0
1991,70.0,0,95,0.0,0.0
1992,74.0,96,95,0.0,0.0
1993,71.0,96,191,0.0,0.0
1994,78.0,0,95,0.0,0.0
1995,69.0,96,191,0.0,0.0
1996,80.0,96,95,0.0,0.0
1997,81.0,0,95,0.0,0.0
1998,68.0,96,95,0.0,0.0
1999,83.0,1,1150,0.0,0.0
2000,75.0,96,95,0.0,0.0
2001,76.0,96,95,0.0,0.0
2002,78.0,96,95,0.0,0.0
2003,80.0,96,95,0.0,0.0
2004,78.0,96,95,0.0,0.0
2005,80.0,96,95,0.0,0.0
2006,78.0,96,95,0.0,0.0
2007,77.0,96,95,0.0,0.0
2008,73.0,96,95,0.0,0.0
2009,75.0,95,95,0.0,0.0
2010,77.0,192,95,0.0,0.0
2011,78.0,96,191,0.0,0.0
2012,81.0,0,95,0.0,0.0
2013,71.0,96,287,0.0,0.0
2014,80.0,96,95,0.0,0.0
2015,78.0,96,95,0.0,0.0
2016,77.0,0,191,0.0,0.0
2017,69.0,96,95,0.0,0.0
2018,68.0,96,95,0.0,0.0
2019,78.0,96,191,0.0,0.0
2020,66.0,0,95,0.0,0.0
2021,65.0,96,191,0.0,0.0
2022,80.0,96,95,0.0,0.0
2023,74.0,0,95,0.0,0.0
2024,61.0,96,191,0.0,0.0
2025,73.0,96,95,0.0,0.0
2026,71.0,0,95,0.0,0.0
2027,66.0,96,95,0.0,0.0
2028,69.0,96,191,0.0,0.0
2029,61.0,0,95,0.0,0.0
2030,59.0,96,95,0.0,0.0
2031,68.0,0,95,0.0,0.0
2032,57.0,0,95,0.0,0.0
2033,66.0,192,95,0.0,0.0
2034,56.0,3,380,0.0,0.0
2035,65.0,96,191,0.0,0.0
2036,49.0,96,191,0.0,0.0
2037,65.0,93,95,0.0,0.0
2038,66.0,0,95,0.0,0.0
2039,50.0,0,191,0.0,0.0
2040,54.0,96,767,0.0,0.0
2041,66.0,96,95,0.0,0.0
2042,69.0,96,95,0.0,0.0
2043,49.0,96,191,0.0,0.0
2044,71.0,96,95,0.0,0.0
2045,73.0,0,95,0.0,0.0
2046,47.0,96,191,0.0,0.0
2047,74.0,96,95,0.0,0.0
2048,73.0,0,95,0.0,0.0
2049,45.0,0,191,0.0,0.0
2050,74.0,96,95,0.0,0.0
2051,73.0,0,95,0.0,0.0
2052,44.0,96,191,0.0,0.0
2053,53.0,0,191,0.0,0.0
2054,71.0,96,95,0.0,0.0
2055,69.0,0,95,0.0,0.0
2056,42.0,96,191,0.0,0.0
2057,54.0,0,191,0.0,0.0
2058,71.0,96,95,0.0,0.0
2059,69.0,0,95,0.0,0.0
2060,41.0,96,191,0.0,0.0
2061,49.0,0,191,0.0,0.0
2062,68.0,96,95,0.0,0.0
2063,66.0,0,95,0.0,0.0
2064,39.0,8,191,0.0,0.0
2065,48.0,0,191,0.0,0.0
2066,68.0,96,95,0.0,0.0
2067,66.0,101,99,0.0,0.0
2068,65.0,101,502,0.0,0.0
2069,49.0,101,99,0.0,0.0
2070,37.0,100,1309,0.0,0.0
2071,56.0,100,99,0.0,0.0
2072,57.0,101,99,0.0,0.0
2073,59.0,101,99,0.0,0.0
2074,61.0,101,502,0.0,0.0
2075,65.0,101,99,0.0,0.0
2076,66.0,100,99,0.0,0.0
2077,68.0,101,99,0.0,0.0
2078,69.0,101,301,0.0,0.0
2079,61.0,101,99,0.0,0.0
2080,66.0,0,301,0.0,0.0
2081,69.0,101,99,0.0,0.0
2082,68.0,101,200,0.0,0.0
2083,65.0,0,99,0.0,0.0
2084,49.0,0,99,0.0,0.0
2085,73.0,101,200,0.0,0.0
2086,66.0,0,99,0.0,0.0
2087,51.0,101,99,0.0,0.0
2088,68.0,0,99,0.0,0.0
2089,53.0,0,99,0.0,0.0
2090,69.0,100,200,0.0,0.0
2091,61.0,0,200,0.0,0.0
2092,54.0,100,99,0.0,0.0
2093,52.0,1,99,0.0,0.0
2094,61.0,0,200,0.0,0.0
2095,54.0,101,99,0.0,0.0
2096,70.0,101,200,0.0,0.0
2097,52.0,0,99,0.0,0.0
2098,71.0,100,200,0.0,0.0
2099,62.0,0,200,0.0,0.0
2100,50.0,101,99,0.0,0.0
2101,49.0,0,99,0.0,0.0
2102,50.0,101,99,0.0,0.0
2103,73.0,101,200,0.0,0.0
2104,64.0,0,200,0.0,0.0
2105,49.0,0,99,0.0,0.0
2106,74.0,101,200,0.0,0.0
2107,66.0,0,200,0.0,0.0
2108,47.0,101,99,0.0,0.0
2109,45.0,0,99,0.0,0.0
2110,66.0,0,200,0.0,0.0
2111,75.0,100,200,0.0,0.0
2112,47.0,100,99,0.0,0.0
2113,45.0,1,99,0.0,0.0
2114,77.0,101,200,0.0,0.0
2115,68.0,0,200,0.0,0.0
2116,44.0,101,99,0.0,0.0
2117,42.0,0,99,0.0,0.0
2118,78.0,9,199,0.0,0.0
2119,69.0,0,199,0.0,0.0
2120,41.0,100,99,0.0,0.0
2121,42.0,212,104,0.0,0.0
2122,36.0,3,418,0.0,0.0
2123,78.0,105,104,0.0,0.0
2124,81.0,103,104,0.0,0.0
2125,80.0,105,104,0.0,0.0
2126,78.0,106,104,0.0,0.0
2127,77.0,211,104,0.0,0.0
2128,78.0,106,526,0.0,0.0
2129,73.0,211,104,0.0,0.0
2130,75.0,98,843,0.0,0.0
2131,66.0,106,104,0.0,0.0
2132,69.0,0,104,0.0,0.0
2133,68.0,105,104,0.0,0.0
2134,80.0,0,104,0.0,0.0
2135,66.0,0,104,0.0,0.0
2136,81.0,106,104,0.0,0.0
2137,65.0,211,104,0.0,0.0
2138,80.0,0,104,0.0,0.0
2139,66.0,7,308,0.0,0.0
2140,81.0,106,315,0.0,0.0
2141,60.0,0,104,0.0,0.0
2142,73.0,0,526,0.0,0.0
2143,61.0,106,526,0.0,0.0
2144,81.0,106,104,0.0,0.0
2145,66.0,0,104,0.0,0.0
2146,68.0,105,104,0.0,0.0
2147,80.0,0,104,0.0,0.0
2148,69.0,106,104,0.0,0.0
2149,78.0,0,104,0.0,0.0
2150,71.0,7,308,0.0,0.0
2151,77.0,125,526,0.0,0.0
2152,74.0,98,104,0.0,0.0
2153,73.0,115,104,0.0,0.0
2154,71.0,96,109,0.0,0.0
2155,70.0,111,992,0.0,0.0
2156,54.0,111,1875,0.0,0.0
2157,73.0,110,109,0.0,0.0
2158,78.0,110,109,0.0,0.0
2159,76.0,111,109,0.0,0.0
2160,74.0,110,109,0.0,0.0
2161,73.0,111,109,0.0,0.0
2162,74.0,110,109,0.0,0.0
2163,71.0,110,109,0.0,0.0
2164,73.0,111,661,0.0,0.0
2165,61.0,110,109,0.0,0.0
2166,66.0,109,109,0.0,0.0
2167,70.0,2,218,0.0,0.0
2168,64.0,110,109,0.0,0.0
2169,66.0,0,882,0.0,0.0
2170,62.0,110,109,0.0,0.0
2171,61.0,0,109,0.0,0.0
2172,71.0,110,440,0.0,0.0
2173,62.0,110,109,0.0,0.0
2174,59.0,110,109,0.0,0.0
2175,61.0,0,440,0.0,0.0
2176,49.0,0,109,0.0,0.0
2177,70.0,1,219,0.0,0.0
2178,54.0,110,109,0.0,0.0
2179,52.0,110,109,0.0,0.0
2180,71.0,0,330,0.0,0.0
2181,66.0,0,330,0.0,0.0
2182,62.0,0,330,0.0,0.0
2183,50.0,111,109,0.0,0.0
2184,49.0,110,109,0.0,0.0
2185,50.0,120,109,0.0,0.0
2186,47.0,231,114,0.0,0.0
2187,49.0,1,920,0.0,0.0
2188,57.0,115,114,0.0,0.0
2189,66.0,0,114,0.0,0.0
2190,56.0,115,114,0.0,0.0
2191,68.0,0,114,0.0,0.0
2192,54.0,0,114,0.0,0.0
2193,69.0,115,114,0.0,0.0
2194,53.0,115,114,0.0,0.0
2195,71.0,0,459,0.0,0.0
2196,65.0,116,114,0.0,0.0
2197,56.0,0,114,0.0,0.0
2198,54.0,0,114,0.0,0.0
2199,66.0,114,114,0.0,0.0
2200,68.0,230,114,0.0,0.0
2201,53.0,0,114,0.0,0.0
2202,42.0,0,1380,0.0,0.0
2203,54.0,0,1380,0.0,0.0
2204,70.0,7,1380,0.0,0.0
2205,68.0,115,114,0.0,0.0
2206,66.0,116,114,0.0,0.0
2207,65.0,278,114,0.0,0.0
2208,66.0,583,336,0.0,0.0
2209,60.0,59,138,0.0,0.0
2210,61.0,588,624,0.0,0.0
2211,73.0,94,488,0.0,0.0
2212,67.0,97,292,0.0,0.0
2213,51.0,7,285,0.0,0.0
2214,58.0,92,96,0.0,0.0
2215,63.0,3,387,0.0,0.0
2216,68.0,99,96,0.0,0.0
2217,53.0,0,96,0.0,0.0
2218,55.0,0,194,0.0,0.0
2219,70.0,0,194,0.0,0.0
2220,73.0,93,96,0.0,0.0
2221,75.0,98,96,0.0,0.0
2222,70.0,5,91,0.0,0.0
2223,63.0,0,194,0.0,0.0
2224,55.0,0,194,0.0,0.0
2225,70.0,98,96,0.0,0.0
2226,71.0,98,96,0.0,0.0
2227,68.0,0,387,0.0,0.0
2228,63.0,3,387,0.0,0.0
2229,56.0,0,387,0.0,0.0
2230,75.0,98,96,0.0,0.0
2231,80.0,95,96,0.0,0.0
2232,75.0,98,96,0.0,0.0
2233,71.0,97,96,0.0,0.0
2234,75.0,98,96,0.0,0.0
2235,68.0,49,96,0.0,0.0
2236,71.0,49,47,0.0,0.0
2237,70.0,196,47,0.0,0.0
2238,71.0,95,488,0.0,0.0
2239,65.0,7,285,0.0,0.0
2240,49.0,98,292,0.0,0.0
2241,56.0,91,96,0.0,0.0
2242,61.0,3,387,0.0,0.0
2243,66.0,98,96,0.0,0.0
2244,51.0,0,96,0.0,0.0
2245,68.0,0,194,0.0,0.0
2246,53.0,0,194,0.0,0.0
2247,71.0,93,96,0.0,0.0
2248,68.0,5,91,0.0,0.0
2249,53.0,98,194,0.0,0.0
2250,73.0,98,96,0.0,0.0
2251,61.0,0,194,0.0,0.0
2252,68.0,0,96,0.0,0.0
2253,54.0,0,387,0.0,0.0
2254,66.0,2,387,0.0,0.0
2255,69.0,98,96,0.0,0.0
2256,61.0,0,387,0.0,0.0
2257,73.0,97,96,0.0,0.0
2258,78.0,96,96,0.0,0.0
2259,73.0,98,96,0.0,0.0
2260,69.0,98,96,0.0,0.0
2261,73.0,98,96,0.0,0.0
2262,66.0,49,96,0.0,0.0
2263,69.0,49,47,0.0,0.0
2264,67.0,196,47,0.0,0.0
2265,45.0,98,292,0.0,0.0
2266,61.0,7,285,0.0,0.0
2267,67.0,95,488,0.0,0.0
2268,52.0,91,96,0.0,0.0
2269,57.0,3,387,0.0,0.0
2270,62.0,98,96,0.0,0.0
2271,47.0,0,96,0.0,0.0
2272,64.0,0,194,0.0,0.0
2273,49.0,92,194,0.0,0.0
2274,67.0,0,96,0.0,0.0
2275,69.0,98,96,0.0,0.0
2276,57.0,0,194,0.0,0.0
2277,64.0,5,91,0.0,0.0
2278,49.0,98,194,0.0,0.0
2279,64.0,0,96,0.0,0.0
2280,66.0,98,96,0.0,0.0
2281,57.0,0,387,0.0,0.0
2282,62.0,3,387,0.0,0.0
2283,50.0,0,387,0.0,0.0
2284,69.0,98,96,0.0,0.0
2285,74.0,95,96,0.0,0.0
2286,69.0,98,96,0.0,0.0
2287,66.0,98,96,0.0,0.0
2288,69.0,98,96,0.0,0.0
2289,62.0,49,96,0.0,0.0
2290,69.0,49,47,0.0,0.0
2291,68.0,196,47,0.0,0.0
2292,69.0,95,488,0.0,0.0
2293,63.0,7,285,0.0,0.0
2294,47.0,97,292,0.0,0.0
2295,54.0,91,96,0.0,0.0
2296,59.0,2,387,0.0,0.0
2297,64.0,99,96,0.0,0.0
2298,49.0,0,96,0.0,0.0
2299,51.0,0,194,0.0,0.0
2300,66.0,0,194,0.0,0.0
2301,69.0,93,96,0.0,0.0
2302,71.0,98,96,0.0,0.0
2303,59.0,0,194,0.0,0.0
2304,66.0,5,91,0.0,0.0
2305,51.0,0,194,0.0,0.0
2306,66.0,98,96,0.0,0.0
2307,68.0,98,96,0.0,0.0
2308,59.0,0,387,0.0,0.0
2309,64.0,3,387,0.0,0.0
2310,52.0,0,387,0.0,0.0
2311,71.0,98,96,0.0,0.0
2312,76.0,95,96,0.0,0.0
2313,71.0,98,96,0.0,0.0
2314,68.0,98,96,0.0,0.0
2315,71.0,98,96,0.0,0.0
2316,64.0,48,96,0.0,0.0
2317,71.0,49,47,0.0,0.0
2318,70.0,196,47,0.0,0.0
2319,71.0,95,488,0.0,0.0
2320,65.0,7,285,0.0,0.0
2321,49.0,98,292,0.0,0.0
2322,56.0,91,96,0.0,0.0
2323,61.0,3,387,0.0,0.0
2324,66.0,98,96,0.0,0.0
2325,51.0,0,96,0.0,0.0
2326,68.0,0,194,0.0,0.0
2327,53.0,0,194,0.0,0.0
2328,71.0,93,96,0.0,0.0
2329,53.0,98,194,0.0,0.0
2330,68.0,5,91,0.0,0.0
2331,73.0,98,96,0.0,0.0
2332,61.0,0,194,0.0,0.0
2333,68.0,0,96,0.0,0.0
2334,69.0,98,96,0.0,0.0
2335,61.0,3,387,0.0,0.0
2336,66.0,0,387,0.0,0.0
2337,54.0,0,387,0.0,0.0
2338,73.0,98,96,0.0,0.0
2339,78.0,95,96,0.0,0.0
2340,73.0,97,96,0.0,0.0
2341,69.0,98,96,0.0,0.0
2342,73.0,98,96,0.0,0.0
2343,66.0,49,96,0.0,0.0
2344,78.0,49,47,0.0,0.0
2345,76.0,193,47,0.0,0.0
2346,70.0,7,280,0.0,0.0
2347,54.0,96,287,0.0,0.0
2348,76.0,93,479,0.0,0.0
2349,61.0,89,95,0.0,0.0
2350,66.0,3,380,0.0,0.0
2351,71.0,96,95,0.0,0.0
2352,56.0,0,95,0.0,0.0
2353,73.0,0,191,0.0,0.0
2354,58.0,91,191,0.0,0.0
2355,76.0,0,95,0.0,0.0
2356,78.0,96,95,0.0,0.0
2357,66.0,0,191,0.0,0.0
2358,73.0,5,90,0.0,0.0
2359,58.0,96,191,0.0,0.0
2360,73.0,0,95,0.0,0.0
2361,74.0,96,95,0.0,0.0
2362,66.0,0,380,0.0,0.0
2363,71.0,3,380,0.0,0.0
2364,59.0,0,380,0.0,0.0
2365,78.0,96,95,0.0,0.0
2366,83.0,93,95,0.0,0.0
2367,78.0,96,95,0.0,0.0
2368,74.0,96,95,0.0,0.0
2369,78.0,96,95,0.0,0.0
2370,71.0,48,95,0.0,0.0
2371,78.0,48,47,0.0,0.0
2372,77.0,192,47,0.0,0.0
2373,78.0,93,479,0.0,0.0
2374,72.0,7,280,0.0,0.0
2375,56.0,96,287,0.0,0.0
2376,63.0,89,95,0.0,0.0
2377,68.0,3,380,0.0,0.0
2378,73.0,96,95,0.0,0.0
2379,58.0,0,95,0.0,0.0
2380,75.0,0,191,0.0,0.0
2381,60.0,0,191,0.0,0.0
2382,78.0,91,95,0.0,0.0
2383,80.0,96,95,0.0,0.0
2384,68.0,0,191,0.0,0.0
2385,75.0,5,90,0.0,0.0
2386,60.0,96,191,0.0,0.0
2387,75.0,0,95,0.0,0.0
2388,61.0,95,95,0.0,0.0
2389,73.0,0,380,0.0,0.0
2390,68.0,1,190,0.0,0.0
2391,76.0,2,380,0.0,0.0
2392,64.0,189,95,0.0,0.0
2393,68.0,1,190,0.0,0.0
2394,64.0,96,95,0.0,0.0
2395,61.0,96,95,0.0,0.0
2396,64.0,96,95,0.0,0.0
2397,56.0,48,95,0.0,0.0
2398,61.0,48,47,0.0,0.0
2399,59.0,188,47,0.0,0.0
2400,59.0,99,464,0.0,0.0
2401,77.0,94,281,0.0,0.0
2402,68.0,94,93,0.0,0.0
2403,73.0,0,93,0.0,0.0
2404,75.0,0,93,0.0,0.0
2405,78.0,89,93,0.0,0.0
2406,73.0,0,187,0.0,0.0
2407,77.0,0,187,0.0,0.0
2408,80.0,94,187,0.0,0.0
2409,59.0,0,93,0.0,0.0
2410,61.0,94,93,0.0,0.0
2411,73.0,0,187,0.0,0.0
2412,77.0,0,187,0.0,0.0
2413,80.0,94,187,0.0,0.0
2414,56.0,0,93,0.0,0.0
2415,57.0,94,93,0.0,0.0
2416,73.0,3,372,0.0,0.0
2417,80.0,1,187,0.0,0.0
2418,61.0,94,93,0.0,0.0
2419,66.0,90,93,0.0,0.0
2420,78.0,1,186,0.0,0.0
2421,61.0,94,93,0.0,0.0
2422,57.0,94,93,0.0,0.0
2423,61.0,94,93,0.0,0.0
2424,54.0,47,93,0.0,0.0
2425,57.0,47,46,0.0,0.0
2426,56.0,189,46,0.0,0.0
2427,57.0,95,469,0.0,0.0
2428,75.0,1,281,0.0,0.0
2429,66.0,93,93,0.0,0.0
2430,71.0,94,93,0.0,0.0
2431,73.0,93,93,0.0,0.0
2432,76.0,0,93,0.0,0.0
2433,71.0,94,187,0.0,0.0
2434,75.0,0,187,0.0,0.0
2435,78.0,0,187,0.0,0.0
2436,57.0,0,93,0.0,0.0
2437,75.0,0,187,0.0,0.0
2438,78.0,0,187,0.0,0.0
2439,59.0,94,93,0.0,0.0
2440,71.0,94,187,0.0,0.0
2441,54.0,0,93,0.0,0.0
2442,56.0,94,93,0.0,0.0
2443,71.0,3,372,0.0,0.0
2444,78.0,0,187,0.0,0.0
2445,59.0,95,93,0.0,0.0
2446,76.0,1,186,0.0,0.0
2447,64.0,90,93,0.0,0.0
2448,59.0,94,93,0.0,0.0
2449,56.0,94,93,0.0,0.0
2450,59.0,94,93,0.0,0.0
2451,52.0,47,93,0.0,0.0
2452,56.0,47,46,0.0,0.0
2453,54.0,188,46,0.0,0.0
2454,54.0,95,469,0.0,0.0
2455,72.0,1,281,0.0,0.0
2456,63.0,94,93,0.0,0.0
2457,68.0,94,93,0.0,0.0
2458,70.0,93,93,0.0,0.0
2459,73.0,0,93,0.0,0.0
2460,72.0,0,187,0.0,0.0
2461,75.0,0,187,0.0,0.0
2462,68.0,94,187,0.0,0.0
2463,54.0,0,93,0.0,0.0
2464,56.0,94,93,0.0,0.0
2465,68.0,0,187,0.0,0.0
2466,72.0,0,187,0.0,0.0
2467,75.0,94,187,0.0,0.0
2468,51.0,0,93,0.0,0.0
2469,75.0,94,187,0.0,0.0
2470,68.0,2,372,0.0,0.0
2471,52.0,94,93,0.0,0.0
2472,56.0,0,93,0.0,0.0
2473,61.0,91,93,0.0,0.0
2474,73.0,2,186,0.0,0.0
2475,56.0,94,93,0.0,0.0
2476,52.0,94,93,0.0,0.0
2477,56.0,94,93,0.0,0.0
2478,49.0,47,93,0.0,0.0
2479,52.0,47,46,0.0,0.0
2480,51.0,188,46,0.0,0.0
2481,52.0,103,461,0.0,0.0
2482,70.0,7,274,0.0,0.0
2483,61.0,87,93,0.0,0.0
2484,66.0,95,93,0.0,0.0
2485,68.0,0,93,0.0,0.0
2486,71.0,85,93,0.0,0.0
2487,66.0,0,187,0.0,0.0
2488,73.0,0,187,0.0,0.0
2489,70.0,94,187,0.0,0.0
2490,52.0,0,93,0.0,0.0
2491,54.0,94,93,0.0,0.0
2492,66.0,0,187,0.0,0.0
2493,70.0,0,187,0.0,0.0
2494,73.0,94,187,0.0,0.0
2495,49.0,0,93,0.0,0.0
2496,50.0,94,93,0.0,0.0
2497,66.0,2,372,0.0,0.0
2498,73.0,94,187,0.0,0.0
2499,54.0,0,93,0.0,0.0
2500,59.0,91,93,0.0,0.0
2501,71.0,1,186,0.0,0.0
2502,54.0,95,93,0.0,0.0
2503,50.0,94,93,0.0,0.0
2504,54.0,94,93,0.0,0.0
2505,47.0,47,93,0.0,0.0
2506,50.0,47,46,0.0,0.0
2507,46.0,188,46,0.0,0.0
2508,47.0,101,463,0.0,0.0
2509,65.0,0,281,0.0,0.0
2510,56.0,94,93,0.0,0.0
2511,61.0,94,93,0.0,0.0
2512,63.0,88,93,0.0,0.0
2513,66.0,0,93,0.0,0.0
2514,61.0,94,187,0.0,0.0
2515,68.0,0,187,0.0,0.0
2516,65.0,0,187,0.0,0.0
2517,47.0,0,93,0.0,0.0
2518,68.0,0,187,0.0,0.0
2519,65.0,0,187,0.0,0.0
2520,49.0,94,93,0.0,0.0
2521,61.0,94,187,0.0,0.0
2522,44.0,0,93,0.0,0.0
2523,45.0,94,93,0.0,0.0
2524,61.0,2,372,0.0,0.0
2525,68.0,0,187,0.0,0.0
2526,49.0,94,93,0.0,0.0
2527,66.0,1,186,0.0,0.0
2528,54.0,91,93,0.0,0.0
2529,49.0,94,93,0.0,0.0
2530,45.0,95,93,0.0,0.0
2531,49.0,94,93,0.0,0.0
2532,42.0,47,93,0.0,0.0
2533,45.0,47,46,0.0,0.0
2534,44.0,188,46,0.0,0.0
2535,45.0,94,469,0.0,0.0
2536,63.0,94,281,0.0,0.0
2537,54.0,94,93,0.0,0.0
2538,59.0,0,93,0.0,0.0
2539,61.0,94,93,0.0,0.0
2540,64.0,0,93,0.0,0.0
2541,59.0,0,187,0.0,0.0
2542,66.0,1,187,0.0,0.0
2543,63.0,0,187,0.0,0.0
2544,45.0,94,93,0.0,0.0
2545,47.0,94,93,0.0,0.0
2546,59.0,94,187,0.0,0.0
2547,66.0,0,187,0.0,0.0
2548,63.0,0,187,0.0,0.0
2549,42.0,0,93,0.0,0.0
2550,66.0,94,187,0.0,0.0
2551,59.0,2,372,0.0,0.0
2552,44.0,94,93,0.0,0.0
2553,47.0,0,93,0.0,0.0
2554,52.0,91,93,0.0,0.0
2555,64.0,1,186,0.0,0.0
2556,47.0,94,93,0.0,0.0
2557,44.0,94,93,0.0,0.0
2558,47.0,95,93,0.0,0.0
2559,40.0,47,93,0.0,0.0
2560,52.0,45,46,0.0,0.0
2561,50.0,184,44,0.0,0.0
2562,68.0,92,275,0.0,0.0
2563,50.0,92,460,0.0,0.0
2564,59.0,92,91,0.0,0.0
2565,64.0,0,91,0.0,0.0
2566,69.0,0,91,0.0,0.0
2567,66.0,93,91,0.0,0.0
2568,68.0,92,183,0.0,0.0
2569,71.0,0,183,0.0,0.0
2570,64.0,0,183,0.0,0.0
2571,50.0,0,91,0.0,0.0
2572,68.0,0,183,0.0,0.0
2573,71.0,1,183,0.0,0.0
2574,64.0,0,183,0.0,0.0
2575,52.0,92,91,0.0,0.0
2576,47.0,92,91,0.0,0.0
2577,68.0,93,183,0.0,0.0
2578,71.0,0,183,0.0,0.0
2579,64.0,2,365,0.0,0.0
2580,49.0,92,91,0.0,0.0
2581,52.0,0,91,0.0,0.0
2582,69.0,1,182,0.0,0.0
2583,57.0,89,91,0.0,0.0
2584,52.0,92,91,0.0,0.0
2585,49.0,93,91,0.0,0.0
2586,52.0,92,91,0.0,0.0
2587,45.0,46,91,0.0,0.0
2588,52.0,46,45,0.0,0.0
2589,51.0,185,45,0.0,0.0
2590,52.0,93,460,0.0,0.0
2591,70.0,1,275,0.0,0.0
2592,61.0,91,91,0.0,0.0
2593,66.0,92,91,0.0,0.0
2594,71.0,92,91,0.0,0.0
2595,68.0,0,91,0.0,0.0
2596,70.0,92,183,0.0,0.0
2597,73.0,0,183,0.0,0.0
2598,66.0,0,183,0.0,0.0
2599,52.0,0,91,0.0,0.0
2600,54.0,92,91,0.0,0.0
2601,66.0,0,183,0.0,0.0
2602,73.0,1,183,0.0,0.0
2603,70.0,0,183,0.0,0.0
2604,49.0,92,91,0.0,0.0
2605,73.0,93,183,0.0,0.0
2606,66.0,2,365,0.0,0.0
2607,50.0,92,91,0.0,0.0
2608,54.0,0,91,0.0,0.0
2609,59.0,89,91,0.0,0.0
2610,71.0,1,182,0.0,0.0
2611,54.0,92,91,0.0,0.0
2612,50.0,92,91,0.0,0.0
2613,54.0,93,91,0.0,0.0
2614,47.0,46,91,0.0,0.0
2615,54.0,46,45,0.0,0.0
2616,53.0,185,45,0.0,0.0
2617,54.0,93,460,0.0,0.0
2618,72.0,1,275,0.0,0.0
2619,63.0,91,91,0.0,0.0
2620,68.0,92,91,0.0,0.0
2621,73.0,92,91,0.0,0.0
2622,70.0,0,91,0.0,0.0
2623,75.0,0,183,0.0,0.0
2624,72.0,0,183,0.0,0.0
2625,68.0,0,183,0.0,0.0
2626,54.0,92,91,0.0,0.0
2627,75.0,0,183,0.0,0.0
2628,72.0,1,183,0.0,0.0
2629,68.0,0,183,0.0,0.0
2630,56.0,92,91,0.0,0.0
2631,51.0,92,91,0.0,0.0
2632,75.0,92,183,0.0,0.0
2633,68.0,1,365,0.0,0.0
2634,52.0,92,91,0.0,0.0
2635,56.0,0,91,0.0,0.0
2636,73.0,2,182,0.0,0.0
2637,61.0,90,91,0.0,0.0
2638,56.0,92,91,0.0,0.0
2639,52.0,92,91,0.0,0.0
2640,56.0,93,91,0.0,0.0
2641,49.0,46,91,0.0,0.0
2642,55.0,46,45,0.0,0.0
2643,54.0,185,45,0.0,0.0
2644,73.0,1,275,0.0,0.0
2645,55.0,93,460,0.0,0.0
2646,64.0,91,91,0.0,0.0
2647,69.0,92,91,0.0,0.0
2648,74.0,92,91,0.0,0.0
2649,71.0,0,91,0.0,0.0
2650,69.0,0,183,0.0,0.0
2651,73.0,92,183,0.0,0.0
2652,76.0,0,183,0.0,0.0
2653,55.0,0,91,0.0,0.0
2654,73.0,0,183,0.0,0.0
2655,76.0,0,183,0.0,0.0
2656,69.0,0,183,0.0,0.0
2657,57.0,92,91,0.0,0.0
2658,52.0,93,91,0.0,0.0
2659,76.0,92,183,0.0,0.0
2660,73.0,0,183,0.0,0.0
2661,69.0,1,365,0.0,0.0
2662,54.0,92,91,0.0,0.0
2663,57.0,0,91,0.0,0.0
2664,74.0,2,182,0.0,0.0
2665,62.0,90,91,0.0,0.0
2666,57.0,92,91,0.0,0.0
2667,54.0,92,91,0.0,0.0
2668,57.0,93,91,0.0,0.0
2669,50.0,46,91,0.0,0.0
2670,57.0,46,45,0.0,0.0
2671,56.0,185,45,0.0,0.0
2672,75.0,1,275,0.0,0.0
2673,57.0,92,460,0.0,0.0
2674,66.0,91,91,0.0,0.0
2675,71.0,92,91,0.0,0.0
2676,76.0,92,91,0.0,0.0
2677,73.0,0,91,0.0,0.0
2678,75.0,0,183,0.0,0.0
2679,78.0,1,183,0.0,0.0
2680,71.0,0,183,0.0,0.0
2681,57.0,92,91,0.0,0.0
2682,59.0,92,91,0.0,0.0
2683,71.0,0,183,0.0,0.0
2684,75.0,93,183,0.0,0.0
2685,78.0,0,183,0.0,0.0
2686,54.0,0,91,0.0,0.0
2687,78.0,0,183,0.0,0.0
2688,71.0,1,365,0.0,0.0
2689,56.0,92,91,0.0,0.0
2690,59.0,92,91,0.0,0.0
2691,64.0,90,91,0.0,0.0
2692,76.0,2,182,0.0,0.0
2693,59.0,92,91,0.0,0.0
2694,56.0,92,91,0.0,0.0
2695,59.0,93,91,0.0,0.0
2696,52.0,46,91,0.0,0.0
2697,59.0,46,45,0.0,0.0
2698,58.0,184,45,0.0,0.0
2699,77.0,1,275,0.0,0.0
2700,59.0,92,460,0.0,0.0
2701,68.0,92,91,0.0,0.0
2702,73.0,92,91,0.0,0.0
2703,78.0,92,91,0.0,0.0
2704,75.0,0,91,0.0,0.0
2705,77.0,0,183,0.0,0.0
2706,80.0,1,183,0.0,0.0
2707,73.0,0,183,0.0,0.0
2708,59.0,92,91,0.0,0.0
2709,80.0,93,183,0.0,0.0
2710,77.0,0,183,0.0,0.0
2711,73.0,0,183,0.0,0.0
2712,61.0,92,91,0.0,0.0
2713,56.0,0,91,0.0,0.0
2714,57.0,92,91,0.0,0.0
2715,73.0,1,365,0.0,0.0
2716,80.0,0,183,0.0,0.0
2717,77.0,92,183,0.0,0.0
2718,61.0,0,91,0.0,0.0
2719,78.0,2,182,0.0,0.0
2720,66.0,90,91,0.0,0.0
2721,61.0,92,91,0.0,0.0
2722,57.0,92,91,0.0,0.0
2723,61.0,139,91,0.0,0.0
2724,54.0,14,170,0.0,0.0
2725,76.0,32,45,0.0,0.0
2726,75.0,82,45,0.0,0.0
2727,54.0,0,281,0.0,0.0
2728,70.0,94,93,0.0,0.0
2729,76.0,94,469,0.0,0.0
2730,61.0,94,93,0.0,0.0
2731,66.0,94,93,0.0,0.0
2732,56.0,94,93,0.0,0.0
2733,71.0,0,93,0.0,0.0
2734,58.0,89,187,0.0,0.0
2735,73.0,0,187,0.0,0.0
2736,76.0,0,93,0.0,0.0
2737,58.0,94,187,0.0,0.0
2738,73.0,5,88,0.0,0.0
2739,66.0,0,187,0.0,0.0
2740,78.0,94,93,0.0,0.0
2741,73.0,0,93,0.0,0.0
2742,59.0,4,372,0.0,0.0
2743,71.0,0,372,0.0,0.0
2744,66.0,0,372,0.0,0.0
2745,74.0,95,93,0.0,0.0
2746,78.0,94,93,0.0,0.0
2747,83.0,90,93,0.0,0.0
2748,78.0,94,93,0.0,0.0
2749,74.0,94,93,0.0,0.0
2750,78.0,94,93,0.0,0.0
2751,71.0,47,93,0.0,0.0
2752,73.0,47,46,0.0,0.0
2753,70.0,192,46,0.0,0.0
2754,49.0,96,287,0.0,0.0
2755,71.0,1,190,0.0,0.0
2756,77.0,0,287,0.0,0.0
2757,56.0,96,95,0.0,0.0
2758,61.0,96,287,0.0,0.0
2759,51.0,96,95,0.0,0.0
2760,78.0,0,95,0.0,0.0
2761,53.0,96,191,0.0,0.0
2762,80.0,96,479,0.0,0.0
2763,71.0,0,95,0.0,0.0
2764,61.0,0,95,0.0,0.0
2765,53.0,96,191,0.0,0.0
2766,73.0,96,95,0.0,0.0
2767,68.0,0,95,0.0,0.0
2768,54.0,0,380,0.0,0.0
2769,69.0,3,380,0.0,0.0
2770,61.0,0,380,0.0,0.0
2771,73.0,96,95,0.0,0.0
2772,78.0,93,95,0.0,0.0
2773,73.0,96,95,0.0,0.0
2774,69.0,96,95,0.0,0.0
2775,73.0,96,95,0.0,0.0
2776,66.0,48,95,0.0,0.0
2777,69.0,48,47,0.0,0.0
2778,67.0,97,47,0.0,0.0
2779,47.0,97,292,0.0,0.0
2780,62.0,97,96,0.0,0.0
2781,67.0,97,488,0.0,0.0
2782,50.0,98,96,0.0,0.0
2783,55.0,1,96,0.0,0.0
2784,64.0,99,96,0.0,0.0
2785,58.0,0,96,0.0,0.0
2786,49.0,0,96,0.0,0.0
2787,50.0,0,194,0.0,0.0
2788,59.0,98,194,0.0,0.0
2789,66.0,0,96,0.0,0.0
2790,71.0,98,96,0.0,0.0
2791,54.0,98,194,0.0,0.0
2792,59.0,0,194,0.0,0.0
2793,50.0,0,194,0.0,0.0
2794,66.0,0,96,0.0,0.0
2795,49.0,0,387,0.0,0.0
2796,59.0,3,387,0.0,0.0
2797,56.0,0,387,0.0,0.0
2798,65.0,98,96,0.0,0.0
2799,68.0,98,96,0.0,0.0
2800,73.0,95,96,0.0,0.0
2801,68.0,98,96,0.0,0.0
2802,65.0,97,96,0.0,0.0
2803,68.0,98,96,0.0,0.0
2804,61.0,49,96,0.0,0.0
2805,66.0,49,47,0.0,0.0
2806,65.0,100,47,0.0,0.0
2807,45.0,0,805,0.0,0.0
2808,54.0,0,805,0.0,0.0
2809,57.0,100,805,0.0,0.0
2810,61.0,151,603,0.0,0.0
2811,66.0,100,98,0.0,0.0
2812,69.0,101,98,0.0,0.0
2813,73.0,101,98,0.0,0.0
2814,69.0,101,98,0.0,0.0
2815,66.0,51,98,0.0,0.0
2816,69.0,50,48,0.0,0.0
2817,66.0,1,48,0.0,0.0
2818,61.0,1,198,0.0,0.0
2819,66.0,49,48,0.0,0.0
2820,65.0,1,48,0.0,0.0
2821,47.0,0,805,0.0,0.0
2822,54.0,0,805,0.0,0.0
2823,57.0,100,805,0.0,0.0
2824,62.0,0,805,0.0,0.0
2825,66.0,100,98,0.0,0.0
2826,69.0,101,98,0.0,0.0
2827,73.0,101,98,0.0,0.0
2828,69.0,101,98,0.0,0.0
2829,66.0,51,98,0.0,0.0
2830,69.0,50,48,0.0,0.0
2831,66.0,101,48,0.0,0.0
2832,61.0,51,98,0.0,0.0
2833,66.0,50,48,0.0,0.0
2834,65.0,1,48,0.0,0.0
2835,66.0,100,98,0.0,0.0
2836,61.0,0,398,0.0,0.0
2837,57.0,0,398,0.0,0.0
2838,54.0,2,398,0.0,0.0
2839,49.0,0,398,0.0,0.0
2840,68.0,101,98,0.0,0.0
2841,71.0,99,98,0.0,0.0
2842,68.0,101,98,0.0,0.0
2843,65.0,51,98,0.0,0.0
2844,68.0,50,48,0.0,0.0
2845,65.0,101,48,0.0,0.0
2846,49.0,0,199,0.0,0.0
2847,56.0,0,199,0.0,0.0
2848,59.0,106,199,0.0,0.0
2849,61.0,51,98,0.0,0.0
2850,66.0,50,48,0.0,0.0
2851,65.0,0,48,0.0,0.0
2852,42.0,0,422,0.0,0.0
2853,49.0,0,422,0.0,0.0
2854,66.0,53,103,0.0,0.0
2855,57.0,104,422,0.0,0.0
2856,54.0,0,422,0.0,0.0
2857,69.0,53,51,0.0,0.0
2858,66.0,105,51,0.0,0.0
2859,61.0,54,103,0.0,0.0
2860,66.0,52,51,0.0,0.0
2861,65.0,2,51,0.0,0.0
2862,66.0,54,103,0.0,0.0
2863,54.0,0,422,0.0,0.0
2864,49.0,0,422,0.0,0.0
2865,57.0,104,422,0.0,0.0
2866,45.0,0,422,0.0,0.0
2867,69.0,52,51,0.0,0.0
2868,66.0,105,51,0.0,0.0
2869,61.0,54,103,0.0,0.0
2870,66.0,53,51,0.0,0.0
2871,65.0,1,51,0.0,0.0
2872,66.0,54,103,0.0,0.0
2873,57.0,0,422,0.0,0.0
2874,54.0,0,422,0.0,0.0
2875,50.0,0,422,0.0,0.0
2876,47.0,105,422,0.0,0.0
2877,69.0,52,51,0.0,0.0
2878,66.0,106,51,0.0,0.0
2879,61.0,54,103,0.0,0.0
2880,66.0,53,51,0.0,0.0
2881,65.0,0,51,0.0,0.0
2882,66.0,54,103,0.0,0.0
2883,57.0,105,210,0.0,0.0
2884,49.0,3,418,0.0,0.0
2885,69.0,52,51,0.0,0.0
2886,66.0,1,51,0.0,0.0
2887,56.0,213,210,0.0,0.0
2888,61.0,54,103,0.0,0.0
2889,64.0,49,51,0.0,0.0
2890,63.0,1,51,0.0,0.0
2891,42.0,107,321,0.0,0.0
2892,58.0,8,313,0.0,0.0
2893,64.0,104,537,0.0,0.0
2894,49.0,101,105,0.0,0.0
2895,54.0,3,426,0.0,0.0
2896,59.0,0,105,0.0,0.0
2897,44.0,109,105,0.0,0.0
2898,46.0,0,213,0.0,0.0
2899,61.0,0,213,0.0,0.0
2900,64.0,102,105,0.0,0.0
2901,66.0,108,105,0.0,0.0
2902,54.0,0,213,0.0,0.0
2903,46.0,1,213,0.0,0.0
2904,61.0,7,98,0.0,0.0
2905,61.0,107,105,0.0,0.0
2906,62.0,108,105,0.0,0.0
2907,47.0,0,426,0.0,0.0
2908,59.0,3,426,0.0,0.0
2909,54.0,0,426,0.0,0.0
2910,66.0,108,105,0.0,0.0
2911,71.0,105,105,0.0,0.0
2912,66.0,108,105,0.0,0.0
2913,62.0,53,105,0.0,0.0
2914,66.0,54,51,0.0,0.0
2915,62.0,109,51,0.0,0.0
2916,59.0,54,105,0.0,0.0
2917,61.0,54,51,0.0,0.0
2918,58.0,218,51,0.0,0.0
2919,59.0,107,546,0.0,0.0
2920,56.0,7,319,0.0,0.0
2921,37.0,110,326,0.0,0.0
2922,44.0,104,106,0.0,0.0
2923,49.0,3,433,0.0,0.0
2924,54.0,110,106,0.0,0.0
2925,39.0,0,106,0.0,0.0
2926,56.0,0,216,0.0,0.0
2927,41.0,1,216,0.0,0.0
2928,59.0,103,106,0.0,0.0
2929,61.0,110,106,0.0,0.0
2930,49.0,0,216,0.0,0.0
2931,56.0,7,99,0.0,0.0
2932,41.0,111,216,0.0,0.0
2933,56.0,0,106,0.0,0.0
2934,49.0,0,433,0.0,0.0
2935,42.0,0,433,0.0,0.0
2936,57.0,110,106,0.0,0.0
2937,54.0,4,433,0.0,0.0
2938,61.0,110,106,0.0,0.0
2939,66.0,107,106,0.0,0.0
2940,61.0,110,106,0.0,0.0
2941,57.0,54,106,0.0,0.0
2942,61.0,55,51,0.0,0.0
2943,57.0,110,51,0.0,0.0
2944,54.0,56,106,0.0,0.0
2945,57.0,54,51,0.0,0.0
2946,56.0,119,51,0.0,0.0
2947,36.0,19,464,0.0,0.0
2948,57.0,60,114,0.0,0.0
2949,66.0,61,55,0.0,0.0
2950,65.0,125,55,0.0,0.0
2951,66.0,104,119,0.0,0.0
2952,57.0,245,119,0.0,0.0
2953,56.0,131,241,0.0,0.0
2954,37.0,111,487,0.0,0.0
2955,66.0,115,241,0.0,0.0
2956,61.0,0,320,0.0,0.0
2957,49.0,62,320,0.0,0.0
2958,59.0,22,382,0.0,0.0
2959,65.0,559,224,0.0,0.0
2960,58.0,0,575,0.0,0.0
2961,49.0,212,575,0.0,0.0
2962,42.0,0,575,0.0,0.0
2963,66.0,0,575,0.0,0.0
2964,61.0,0,575,0.0,0.0
2965,66.0,192,191,0.0,0.0
2966,66.0,192,191,0.0,0.0
2967,65.0,192,191,0.0,0.0
2968,64.0,192,191,0.0,0.0
2969,64.0,192,191,0.0,0.0
2970,63.0,192,191,0.0,0.0
2971,62.0,192,191,0.0,0.0
2972,62.0,96,191,0.0,0.0
2973,61.0,96,95,0.0,0.0
2974,59.0,96,95,0.0,0.0
2975,73.0,0,191,0.0,0.0
2976,61.0,96,95,0.0,0.0
2977,63.0,96,95,0.0,0.0
2978,73.0,0,191,0.0,0.0
2979,64.0,96,95,0.0,0.0
2980,61.0,192,95,0.0,0.0
2981,63.0,0,191,0.0,0.0
2982,72.0,96,191,0.0,0.0
2983,71.0,192,191,0.0,0.0
2984,68.0,96,95,0.0,0.0
2985,66.0,0,95,0.0,0.0
2986,71.0,192,191,0.0,0.0
2987,68.0,0,191,0.0,0.0
2988,61.0,0,191,0.0,0.0
2989,70.0,96,191,0.0,0.0
2990,69.0,0,191,0.0,0.0
2991,66.0,96,95,0.0,0.0
2992,65.0,192,95,0.0,0.0
2993,69.0,89,191,0.0,0.0
2994,66.0,7,280,0.0,0.0
2995,68.0,96,95,0.0,0.0
2996,66.0,96,95,0.0,0.0
2997,68.0,96,95,0.0,0.0
2998,65.0,96,383,0.0,0.0
2999,69.0,96,95,0.0,0.0
3000,71.0,96,95,0.0,0.0
3001,68.0,0,95,0.0,0.0
3002,66.0,96,191,0.0,0.0
3003,69.0,96,95,0.0,0.0
3004,68.0,0,95,0.0,0.0
3005,66.0,96,95,0.0,0.0
3006,57.0,0,191,0.0,0.0
3007,54.0,96,191,0.0,0.0
3008,68.0,0,95,0.0,0.0
3009,69.0,96,95,0.0,0.0
3010,62.0,0,383,0.0,0.0
3011,54.0,192,191,0.0,0.0
3012,66.0,0,95,0.0,0.0
3013,68.0,0,191,0.0,0.0
3014,53.0,96,191,0.0,0.0
3015,52.0,0,191,0.0,0.0
3016,73.0,96,95,0.0,0.0
3017,56.0,192,191,0.0,0.0
3018,71.0,0,95,0.0,0.0
3019,61.0,0,191,0.0,0.0
3020,73.0,192,191,0.0,0.0
3021,52.0,0,191,0.0,0.0
3022,51.0,0,191,0.0,0.0
3023,54.0,0,191,0.0,0.0
3024,66.0,96,191,0.0,0.0
3025,71.0,96,95,0.0,0.0
3026,59.0,96,479,0.0,0.0
3027,50.0,0,191,0.0,0.0
3028,70.0,192,95,0.0,0.0
3029,71.0,96,191,0.0,0.0
3030,50.0,0,191,0.0,0.0
3031,65.0,0,191,0.0,0.0
3032,49.0,0,191,0.0,0.0
3033,59.0,96,95,0.0,0.0
3034,66.0,96,479,0.0,0.0
3035,57.0,96,95,0.0,0.0
3036,50.0,96,383,0.0,0.0
3037,56.0,96,95,0.0,0.0
3038,57.0,96,95,0.0,0.0
3039,54.0,0,95,0.0,0.0
3040,47.0,0,191,0.0,0.0
3041,56.0,96,191,0.0,0.0
3042,66.0,0,95,0.0,0.0
3043,65.0,96,95,0.0,0.0
3044,61.0,96,191,0.0,0.0
3045,49.0,0,383,0.0,0.0
3046,66.0,0,95,0.0,0.0
3047,59.0,0,191,0.0,0.0
3048,68.0,96,95,0.0,0.0
3049,65.0,96,95,0.0,0.0
3050,66.0,96,671,0.0,0.0
3051,57.0,96,95,0.0,0.0
3052,50.0,0,575,0.0,0.0
3053,59.0,96,95,0.0,0.0
3054,57.0,96,95,0.0,0.0
3055,56.0,96,95,0.0,0.0
3056,54.0,96,95,0.0,0.0
3057,57.0,96,95,0.0,0.0
3058,51.0,96,575,0.0,0.0
3059,59.0,96,671,0.0,0.0
3060,64.0,96,95,0.0,0.0
3061,66.0,96,95,0.0,0.0
3062,68.0,96,95,0.0,0.0
3063,69.0,96,95,0.0,0.0
3064,66.0,0,95,0.0,0.0
3065,68.0,96,671,0.0,0.0
3066,52.0,96,575,0.0,0.0
3067,61.0,96,95,0.0,0.0
3068,59.0,96,95,0.0,0.0
3069,57.0,96,95,0.0,0.0
3070,56.0,96,95,0.0,0.0
3071,60.0,0,95,0.0,0.0
3072,61.0,96,671,0.0,0.0
3073,57.0,96,575,0.0,0.0
3074,69.0,96,95,0.0,0.0
3075,68.0,96,95,0.0,0.0
3076,66.0,96,95,0.0,0.0
3077,64.0,96,95,0.0,0.0
3078,68.0,0,95,0.0,0.0
3079,51.0,0,575,0.0,0.0
3080,66.0,96,671,0.0,0.0
3081,58.0,96,95,0.0,0.0
3082,60.0,96,95,0.0,0.0
3083,61.0,96,95,0.0,0.0
3084,63.0,96,95,0.0,0.0
3085,58.0,96,95,0.0,0.0
3086,56.0,0,575,0.0,0.0
3087,60.0,96,575,0.0,0.0
3088,68.0,96,95,0.0,0.0
3089,66.0,96,95,0.0,0.0
3090,64.0,96,95,0.0,0.0
3091,63.0,96,95,0.0,0.0
3092,66.0,0,95,0.0,0.0
3093,49.0,96,95,0.0,0.0
3094,64.0,0,383,0.0,0.0
3095,61.0,96,191,0.0,0.0
3096,48.0,0,95,0.0,0.0
3097,61.0,0,191,0.0,0.0
3098,49.0,96,95,0.0,0.0
3099,51.0,96,95,0.0,0.0
3100,64.0,0,191,0.0,0.0
3101,61.0,192,191,0.0,0.0
3102,52.0,96,95,0.0,0.0
3103,49.0,0,95,0.0,0.0
3104,60.0,96,191,0.0,0.0
3105,51.0,0,191,0.0,0.0
3106,66.0,0,191,0.0,0.0
3107,59.0,0,191,0.0,0.0
3108,56.0,96,95,0.0,0.0
3109,63.0,192,191,0.0,0.0
3110,54.0,0,95,0.0,0.0
3111,68.0,0,191,0.0,0.0
3112,59.0,0,191,0.0,0.0
3113,56.0,192,191,0.0,0.0
3114,49.0,0,191,0.0,0.0
3115,65.0,96,191,0.0,0.0
3116,58.0,0,191,0.0,0.0
3117,61.0,96,383,0.0,0.0
3118,57.0,192,191,0.0,0.0
3119,54.0,96,95,0.0,0.0
3120,53.0,0,95,0.0,0.0
3121,54.0,96,383,0.0,0.0
3122,57.0,0,191,0.0,0.0
3123,71.0,96,95,0.0,0.0
3124,56.0,0,383,0.0,0.0
3125,73.0,0,95,0.0,0.0
3126,53.0,0,383,0.0,0.0
3127,71.0,96,95,0.0,0.0
3128,69.0,96,95,0.0,0.0
3129,61.0,0,383,0.0,0.0
3130,68.0,96,95,0.0,0.0
3131,71.0,96,95,0.0,0.0
3132,69.0,0,191,0.0,0.0
3133,54.0,96,95,0.0,0.0
3134,56.0,96,95,0.0,0.0
3135,73.0,96,191,0.0,0.0
3136,69.0,0,191,0.0,0.0
3137,54.0,96,95,0.0,0.0
3138,52.0,0,95,0.0,0.0
3139,78.0,96,383,0.0,0.0
3140,66.0,0,191,0.0,0.0
3141,50.0,96,95,0.0,0.0
3142,49.0,96,95,0.0,0.0
3143,68.0,96,95,0.0,0.0
3144,47.0,0,191,0.0,0.0
3145,66.0,0,95,0.0,0.0
3146,77.0,0,383,0.0,0.0
3147,68.0,96,95,0.0,0.0
3148,44.0,0,191,0.0,0.0
3149,69.0,96,95,0.0,0.0
3150,71.0,96,95,0.0,0.0
3151,49.0,0,191,0.0,0.0
3152,68.0,96,95,0.0,0.0
3153,78.0,0,191,0.0,0.0
3154,69.0,95,95,0.0,0.0
3155,42.0,1,190,0.0,0.0
3156,71.0,96,95,0.0,0.0
3157,78.0,96,191,0.0,0.0
3158,69.0,96,95,0.0,0.0
3159,68.0,0,95,0.0,0.0
3160,78.0,0,191,0.0,0.0
3161,66.0,96,95,0.0,0.0
3162,69.0,192,95,0.0,0.0
3163,68.0,0,191,0.0,0.0
3164,77.0,96,191,0.0,0.0
3165,73.0,96,95,0.0,0.0
3166,76.0,192,191,0.0,0.0
3167,71.0,0,95,0.0,0.0
3168,76.0,192,191,0.0,0.0
3169,73.0,0,191,0.0,0.0
3170,75.0,96,191,0.0,0.0
3171,66.0,0,191,0.0,0.0
3172,74.0,0,191,0.0,0.0
3173,71.0,96,95,0.0,0.0
3174,70.0,192,95,0.0,0.0
3175,74.0,96,191,0.0,0.0
3176,71.0,96,287,0.0,0.0
3177,73.0,96,191,0.0,0.0
3178,71.0,0,95,0.0,0.0
3179,78.0,96,479,0.0,0.0
3180,69.0,96,95,0.0,0.0
3181,68.0,96,95,0.0,0.0
3182,66.0,96,95,0.0,0.0
3183,69.0,96,95,0.0,0.0
3184,68.0,96,191,0.0,0.0
3185,78.0,0,95,0.0,0.0
3186,77.0,96,95,0.0,0.0
3187,73.0,96,575,0.0,0.0
3188,78.0,96,95,0.0,0.0
3189,80.0,96,95,0.0,0.0
3190,77.0,96,95,0.0,0.0
3191,78.0,96,95,0.0,0.0
3192,75.0,0,95,0.0,0.0
3193,80.0,96,95,0.0,0.0
3194,71.0,96,671,0.0,0.0
3195,81.0,96,95,0.0,0.0
3196,80.0,96,95,0.0,0.0
3197,78.0,96,95,0.0,0.0
3198,77.0,96,95,0.0,0.0
3199,73.0,96,95,0.0,0.0
3200,78.0,0,575,0.0,0.0
3201,69.0,96,95,0.0,0.0
3202,68.0,96,95,0.0,0.0
3203,66.0,96,95,0.0,0.0
3204,68.0,96,95,0.0,0.0
3205,69.0,96,95,0.0,0.0
3206,61.0,0,191,0.0,0.0
3207,76.0,96,191,0.0,0.0
3208,68.0,96,95,0.0,0.0
3209,66.0,0,95,0.0,0.0
3210,81.0,0,383,0.0,0.0
3211,64.0,96,95,0.0,0.0
3212,61.0,192,191,0.0,0.0
3213,66.0,0,95,0.0,0.0
3214,63.0,0,191,0.0,0.0
3215,60.0,96,191,0.0,0.0
3216,75.0,0,191,0.0,0.0
3217,68.0,96,95,0.0,0.0
3218,59.0,0,191,0.0,0.0
3219,66.0,192,95,0.0,0.0
3220,59.0,0,191,0.0,0.0
3221,80.0,96,383,0.0,0.0
3222,68.0,192,191,0.0,0.0
3223,61.0,0,191,0.0,0.0
3224,58.0,0,191,0.0,0.0
3225,57.0,192,191,0.0,0.0
3226,66.0,96,95,0.0,0.0
3227,73.0,0,191,0.0,0.0
3228,65.0,0,95,0.0,0.0
3229,78.0,96,383,0.0,0.0
3230,57.0,96,191,0.0,0.0
3231,66.0,0,191,0.0,0.0
3232,60.0,96,95,0.0,0.0
3233,56.0,96,287,0.0,0.0
3234,63.0,0,95,0.0,0.0
3235,72.0,96,191,0.0,0.0
3236,68.0,0,95,0.0,0.0
3237,56.0,0,95,0.0,0.0
3238,66.0,0,95,0.0,0.0
3239,73.0,96,383,0.0,0.0
3240,64.0,0,191,0.0,0.0
3241,57.0,96,95,0.0,0.0
3242,56.0,96,95,0.0,0.0
3243,54.0,48,95,0.0,0.0
3244,66.0,96,287,0.0,0.0
3245,56.0,48,47,0.0,0.0
3246,57.0,0,47,0.0,0.0
3247,72.0,96,383,0.0,0.0
3248,56.0,0,95,0.0,0.0
3249,63.0,0,95,0.0,0.0
3250,54.0,96,95,0.0,0.0
3251,68.0,96,95,0.0,0.0
3252,56.0,0,191,0.0,0.0
3253,66.0,0,95,0.0,0.0
3254,73.0,3,380,0.0,0.0
3255,64.0,96,95,0.0,0.0
3256,49.0,93,287,0.0,0.0
3257,61.0,96,95,0.0,0.0
3258,69.0,96,479,0.0,0.0
3259,61.0,96,95,0.0,0.0
3260,59.0,96,95,0.0,0.0
3261,57.0,96,95,0.0,0.0
3262,62.0,96,287,0.0,0.0
3263,66.0,96,95,0.0,0.0
3264,74.0,0,95,0.0,0.0
3265,71.0,96,95,0.0,0.0
3266,62.0,0,95,0.0,0.0
3267,68.0,96,95,0.0,0.0
3268,59.0,0,95,0.0,0.0
3269,71.0,96,95,0.0,0.0
3270,56.0,0,95,0.0,0.0
3271,61.0,96,95,0.0,0.0
3272,65.0,96,191,0.0,0.0
3273,59.0,0,95,0.0,0.0
3274,73.0,0,191,0.0,0.0
3275,66.0,0,95,0.0,0.0
3276,57.0,96,95,0.0,0.0
3277,61.0,0,95,0.0,0.0
3278,68.0,96,95,0.0,0.0
3279,69.0,0,383,0.0,0.0
3280,66.0,96,95,0.0,0.0
3281,73.0,96,191,0.0,0.0
3282,64.0,0,95,0.0,0.0
3283,72.0,96,191,0.0,0.0
3284,63.0,96,95,0.0,0.0
3285,66.0,0,95,0.0,0.0
3286,71.0,0,191,0.0,0.0
3287,68.0,96,95,0.0,0.0
3288,65.0,0,95,0.0,0.0
3289,66.0,0,95,0.0,0.0
3290,63.0,96,95,0.0,0.0
3291,71.0,0,191,0.0,0.0
3292,68.0,1,190,0.0,0.0
3293,65.0,95,95,0.0,0.0
3294,61.0,192,95,0.0,0.0
3295,66.0,0,191,0.0,0.0
3296,70.0,96,191,0.0,0.0
3297,64.0,0,95,0.0,0.0
3298,69.0,0,191,0.0,0.0
3299,66.0,96,95,0.0,0.0
3300,62.0,0,95,0.0,0.0
3301,54.0,0,191,0.0,0.0
3302,61.0,0,95,0.0,0.0
3303,64.0,96,95,0.0,0.0
3304,74.0,0,191,0.0,0.0
3305,62.0,0,383,0.0,0.0
3306,59.0,96,95,0.0,0.0
3307,54.0,0,191,0.0,0.0
3308,57.0,192,95,0.0,0.0
3309,59.0,96,191,0.0,0.0
3310,68.0,0,191,0.0,0.0
3311,53.0,0,191,0.0,0.0
3312,73.0,96,95,0.0,0.0
3313,61.0,0,575,0.0,0.0
3314,56.0,192,383,0.0,0.0
3315,52.0,192,191,0.0,0.0
3316,71.0,0,95,0.0,0.0
3317,52.0,0,191,0.0,0.0
3318,73.0,0,191,0.0,0.0
3319,66.0,96,191,0.0,0.0
3320,57.0,0,191,0.0,0.0
3321,51.0,0,191,0.0,0.0
3322,71.0,96,95,0.0,0.0
3323,59.0,96,479,0.0,0.0
3324,50.0,0,191,0.0,0.0
3325,54.0,96,383,0.0,0.0
3326,70.0,192,95,0.0,0.0
3327,50.0,0,191,0.0,0.0
3328,71.0,0,191,0.0,0.0
3329,65.0,96,191,0.0,0.0
3330,61.0,0,191,0.0,0.0
3331,49.0,0,191,0.0,0.0
3332,59.0,0,95,0.0,0.0
3333,54.0,96,287,0.0,0.0
3334,57.0,96,95,0.0,0.0
3335,50.0,96,191,0.0,0.0
3336,66.0,96,479,0.0,0.0
3337,59.0,0,95,0.0,0.0
3338,61.0,96,191,0.0,0.0
3339,45.0,0,191,0.0,0.0
3340,56.0,0,95,0.0,0.0
3341,62.0,96,191,0.0,0.0
3342,57.0,0,191,0.0,0.0
3343,47.0,0,191,0.0,0.0
3344,66.0,0,95,0.0,0.0
3345,49.0,0,383,0.0,0.0
3346,61.0,0,191,0.0,0.0
3347,65.0,96,95,0.0,0.0
3348,56.0,96,191,0.0,0.0
3349,66.0,0,95,0.0,0.0
3350,68.0,96,95,0.0,0.0
3351,65.0,96,191,0.0,0.0
3352,61.0,0,191,0.0,0.0
3353,69.0,0,95,0.0,0.0
3354,71.0,95,479,0.0,0.0
3355,59.0,96,287,0.0,0.0
3356,51.0,96,191,0.0,0.0
3357,66.0,96,95,0.0,0.0
3358,69.0,0,95,0.0,0.0
3359,52.0,96,191,0.0,0.0
3360,68.0,0,95,0.0,0.0
3361,66.0,0,95,0.0,0.0
3362,61.0,0,95,0.0,0.0
3363,53.0,0,191,0.0,0.0
3364,62.0,0,191,0.0,0.0
3365,68.0,1,190,0.0,0.0
3366,71.0,192,95,0.0,0.0
3367,69.0,95,479,0.0,0.0
3368,61.0,0,287,0.0,0.0
3369,54.0,96,287,0.0,0.0
3370,68.0,96,95,0.0,0.0
3371,66.0,0,95,0.0,0.0
3372,65.0,0,95,0.0,0.0
3373,59.0,0,95,0.0,0.0
3374,56.0,96,95,0.0,0.0
3375,66.0,1,190,0.0,0.0
3376,61.0,0,191,0.0,0.0
3377,57.0,192,191,0.0,0.0
3378,69.0,0,95,0.0,0.0
3379,59.0,0,191,0.0,0.0
3380,68.0,96,479,0.0,0.0
3381,62.0,96,191,0.0,0.0
3382,66.0,0,95,0.0,0.0
3383,65.0,95,95,0.0,0.0
3384,59.0,1,190,0.0,0.0
3385,56.0,0,191,0.0,0.0
3386,63.0,96,95,0.0,0.0
3387,65.0,0,191,0.0,0.0
3388,61.0,96,191,0.0,0.0
3389,69.0,0,95,0.0,0.0
3390,57.0,95,95,0.0,0.0
3391,66.0,0,191,0.0,0.0
3392,54.0,1,190,0.0,0.0
3393,56.0,96,95,0.0,0.0
3394,69.0,192,191,0.0,0.0
3395,66.0,0,191,0.0,0.0
3396,54.0,96,95,0.0,0.0
3397,53.0,0,95,0.0,0.0
3398,74.0,192,191,0.0,0.0
3399,66.0,0,191,0.0,0.0
3400,54.0,0,191,0.0,0.0
3401,56.0,96,191,0.0,0.0
3402,65.0,0,191,0.0,0.0
3403,71.0,0,191,0.0,0.0
3404,68.0,0,191,0.0,0.0
3405,64.0,0,191,0.0,0.0
3406,61.0,96,95,0.0,0.0
3407,59.0,192,95,0.0,0.0
3408,73.0,0,191,0.0,0.0
3409,64.0,192,191,0.0,0.0
3410,61.0,0,191,0.0,0.0
3411,70.0,96,191,0.0,0.0
3412,63.0,0,191,0.0,0.0
3413,54.0,0,191,0.0,0.0
3414,66.0,0,191,0.0,0.0
3415,62.0,0,191,0.0,0.0
3416,59.0,96,95,0.0,0.0
3417,58.0,192,95,0.0,0.0
3418,71.0,96,191,0.0,0.0
3419,62.0,0,191,0.0,0.0
3420,59.0,96,287,0.0,0.0
3421,65.0,0,191,0.0,0.0
3422,61.0,0,191,0.0,0.0
3423,59.0,96,95,0.0,0.0
3424,57.0,96,95,0.0,0.0
3425,73.0,96,575,0.0,0.0
3426,66.0,96,191,0.0,0.0
3427,56.0,0,95,0.0,0.0
3428,64.0,96,191,0.0,0.0
3429,57.0,96,95,0.0,0.0
3430,52.0,0,95,0.0,0.0
3431,69.0,0,95,0.0,0.0
3432,54.0,96,95,0.0,0.0
3433,66.0,0,95,0.0,0.0
3434,57.0,0,95,0.0,0.0
3435,72.0,96,383,0.0,0.0
3436,63.0,96,95,0.0,0.0
3437,56.0,0,95,0.0,0.0
3438,54.0,96,95,0.0,0.0
3439,66.0,0,95,0.0,0.0
3440,64.0,96,95,0.0,0.0
3441,56.0,0,95,0.0,0.0
3442,63.0,0,95,0.0,0.0
3443,44.0,0,95,0.0,0.0
3444,73.0,96,383,0.0,0.0
3445,64.0,96,95,0.0,0.0
3446,49.0,3,380,0.0,0.0
3447,66.0,96,95,0.0,0.0
3448,64.0,93,95,0.0,0.0
3449,63.0,0,95,0.0,0.0
3450,80.0,96,191,0.0,0.0
3451,61.0,96,95,0.0,0.0
3452,64.0,0,95,0.0,0.0
3453,78.0,96,95,0.0,0.0
3454,63.0,0,95,0.0,0.0
3455,80.0,96,95,0.0,0.0
3456,64.0,0,95,0.0,0.0
3457,63.0,0,95,0.0,0.0
3458,78.0,96,95,0.0,0.0
3459,76.0,96,95,0.0,0.0
3460,61.0,0,95,0.0,0.0
3461,75.0,96,95,0.0,0.0
3462,60.0,0,95,0.0,0.0
3463,56.0,0,191,0.0,0.0
3464,78.0,0,95,0.0,0.0
3465,63.0,192,95,0.0,0.0
3466,61.0,0,191,0.0,0.0
3467,76.0,96,191,0.0,0.0
3468,63.0,0,95,0.0,0.0
3469,73.0,0,191,0.0,0.0
3470,64.0,0,191,0.0,0.0
3471,61.0,96,95,0.0,0.0
3472,59.0,96,95,0.0,0.0
3473,69.0,0,383,0.0,0.0
3474,78.0,96,191,0.0,0.0
3475,57.0,96,95,0.0,0.0
3476,61.0,0,95,0.0,0.0
3477,75.0,0,191,0.0,0.0
3478,59.0,96,95,0.0,0.0
3479,61.0,96,95,0.0,0.0
3480,63.0,0,191,0.0,0.0
3481,59.0,96,95,0.0,0.0
3482,71.0,96,191,0.0,0.0
3483,57.0,0,95,0.0,0.0
3484,56.0,96,95,0.0,0.0
3485,68.0,0,383,0.0,0.0
3486,76.0,96,191,0.0,0.0
3487,59.0,0,95,0.0,0.0
3488,57.0,96,95,0.0,0.0
3489,73.0,0,191,0.0,0.0
3490,59.0,96,95,0.0,0.0
3491,69.0,0,191,0.0,0.0
3492,61.0,0,191,0.0,0.0
3493,57.0,96,95,0.0,0.0
3494,56.0,96,95,0.0,0.0
3495,54.0,96,95,0.0,0.0
3496,75.0,96,191,0.0,0.0
3497,66.0,96,383,0.0,0.0
3498,57.0,0,95,0.0,0.0
3499,72.0,0,191,0.0,0.0
3500,56.0,96,95,0.0,0.0
3501,57.0,0,95,0.0,0.0
3502,64.0,96,191,0.0,0.0
3503,73.0,96,575,0.0,0.0
3504,56.0,96,95,0.0,0.0
3505,54.0,0,95,0.0,0.0
3506,68.0,96,191,0.0,0.0
3507,52.0,96,95,0.0,0.0
3508,56.0,0,95,0.0,0.0
3509,54.0,96,95,0.0,0.0
3510,69.0,0,191,0.0,0.0
3511,56.0,0,95,0.0,0.0
3512,72.0,96,383,0.0,0.0
3513,63.0,0,383,0.0,0.0
3514,54.0,96,95,0.0,0.0
3515,52.0,96,95,0.0,0.0
3516,51.0,96,95,0.0,0.0
3517,54.0,0,95,0.0,0.0
3518,52.0,96,95,0.0,0.0
3519,73.0,0,383,0.0,0.0
3520,61.0,0,191,0.0,0.0
3521,54.0,96,95,0.0,0.0
3522,52.0,96,95,0.0,0.0
3523,68.0,0,191,0.0,0.0
3524,56.0,96,191,0.0,0.0
3525,51.0,0,95,0.0,0.0
3526,76.0,96,383,0.0,0.0
3527,73.0,96,191,0.0,0.0
3528,56.0,0,191,0.0,0.0
3529,49.0,96,95,0.0,0.0
3530,52.0,0,95,0.0,0.0
3531,55.0,0,191,0.0,0.0
3532,51.0,96,95,0.0,0.0
3533,70.0,0,191,0.0,0.0
3534,52.0,0,95,0.0,0.0
3535,54.0,0,191,0.0,0.0
3536,69.0,96,191,0.0,0.0
3537,51.0,96,95,0.0,0.0
3538,49.0,0,95,0.0,0.0
3539,75.0,0,383,0.0,0.0
3540,68.0,3,380,0.0,0.0
3541,54.0,96,191,0.0,0.0
3542,48.0,96,95,0.0,0.0
3543,51.0,0,95,0.0,0.0
3544,49.0,93,95,0.0,0.0
3545,53.0,0,191,0.0,0.0
3546,51.0,96,95,0.0,0.0
3547,68.0,96,191,0.0,0.0
3548,52.0,0,191,0.0,0.0
3549,49.0,96,95,0.0,0.0
3550,47.0,0,95,0.0,0.0
3551,68.0,96,191,0.0,0.0
3552,73.0,96,383,0.0,0.0
3553,52.0,96,287,0.0,0.0
3554,45.0,96,95,0.0,0.0
3555,44.0,0,95,0.0,0.0
3556,42.0,0,191,0.0,0.0
3557,69.0,0,191,0.0,0.0
3558,51.0,0,95,0.0,0.0
3559,51.0,0,383,0.0,0.0
3560,68.0,96,95,0.0,0.0
3561,72.0,96,383,0.0,0.0
3562,44.0,0,383,0.0,0.0
3563,69.0,96,95,0.0,0.0
3564,66.0,96,95,0.0,0.0
3565,63.0,0,95,0.0,0.0
3566,37.0,1,190,0.0,0.0
3567,64.0,96,191,0.0,0.0
3568,73.0,95,95,0.0,0.0
3569,49.0,96,287,0.0,0.0
3570,75.0,0,95,0.0,0.0
3571,76.0,95,479,0.0,0.0
3572,68.0,96,191,0.0,0.0
3573,61.0,0,95,0.0,0.0
3574,66.0,96,575,0.0,0.0
3575,58.0,96,95,0.0,0.0
3576,54.0,96,95,0.0,0.0
3577,59.0,1,190,0.0,0.0
3578,76.0,192,95,0.0,0.0
3579,74.0,96,479,0.0,0.0
3580,59.0,0,95,0.0,0.0
3581,64.0,96,479,0.0,0.0
3582,56.0,96,95,0.0,0.0
3583,52.0,96,95,0.0,0.0
3584,57.0,96,191,0.0,0.0
3585,73.0,0,95,0.0,0.0
3586,57.0,0,191,0.0,0.0
3587,78.0,96,479,0.0,0.0
3588,61.0,96,383,0.0,0.0
3589,73.0,96,95,0.0,0.0
3590,69.0,96,95,0.0,0.0
3591,57.0,0,191,0.0,0.0
3592,66.0,0,95,0.0,0.0
3593,63.0,96,191,0.0,0.0
3594,71.0,96,287,0.0,0.0
3595,56.0,0,191,0.0,0.0
3596,78.0,0,95,0.0,0.0
3597,76.0,96,479,0.0,0.0
3598,59.0,0,191,0.0,0.0
3599,55.0,96,191,0.0,0.0
3600,71.0,0,95,0.0,0.0
3601,67.0,96,95,0.0,0.0
3602,59.0,96,191,0.0,0.0
3603,55.0,0,191,0.0,0.0
3604,64.0,0,95,0.0,0.0
3605,69.0,0,575,0.0,0.0
3606,61.0,0,191,0.0,0.0
3607,54.0,0,191,0.0,0.0
3608,76.0,96,95,0.0,0.0
3609,57.0,96,191,0.0,0.0
3610,53.0,0,191,0.0,0.0
3611,74.0,96,95,0.0,0.0
3612,81.0,0,95,0.0,0.0
3613,62.0,281,191,0.0,0.0
3614,77.0,96,95,0.0,0.0
3615,53.0,0,191,0.0,0.0
3616,74.0,0,95,0.0,0.0
3617,52.0,0,280,0.0,0.0
3618,64.0,7,280,0.0,0.0
3619,68.0,96,287,0.0,0.0
3620,62.0,0,280,0.0,0.0
3621,78.0,96,95,0.0,0.0
3622,76.0,96,95,0.0,0.0
3623,74.0,96,95,0.0,0.0
3624,73.0,96,95,0.0,0.0
3625,71.0,96,95,0.0,0.0
3626,69.0,96,95,0.0,0.0
3627,68.0,96,95,0.0,0.0
3628,66.0,96,95,0.0,0.0
3629,64.0,96,95,0.0,0.0
3630,62.0,96,95,0.0,0.0
3631,61.0,96,95,0.0,0.0
3632,59.0,96,95,0.0,0.0
3633,57.0,96,95,0.0,0.0
3634,56.0,96,95,0.0,0.0
3635,57.0,192,95,0.0,0.0
3636,51.0,0,191,0.0,0.0
3637,78.0,192,95,0.0,0.0
3638,59.0,0,191,0.0,0.0
3639,52.0,0,383,0.0,0.0
3640,71.0,96,287,0.0,0.0
3641,69.0,96,191,0.0,0.0
3642,68.0,192,191,0.0,0.0
3643,62.0,0,191,0.0,0.0
3644,69.0,0,95,0.0,0.0
3645,69.0,0,191,0.0,0.0
3646,61.0,0,383,0.0,0.0
3647,45.0,3,380,0.0,0.0
3648,71.0,96,95,0.0,0.0
3649,73.0,93,95,0.0,0.0
3650,76.0,96,191,0.0,0.0
3651,71.0,0,95,0.0,0.0
3652,61.0,3,380,0.0,0.0
3653,69.0,96,95,0.0,0.0
3654,76.0,0,191,0.0,0.0
3655,68.0,96,95,0.0,0.0
3656,75.0,0,191,0.0,0.0
3657,66.0,93,95,0.0,0.0
3658,54.0,96,95,0.0,0.0
3659,68.0,0,95,0.0,0.0
3660,74.0,0,191,0.0,0.0
3661,69.0,0,191,0.0,0.0
3662,59.0,96,95,0.0,0.0
3663,57.0,96,95,0.0,0.0
3664,71.0,96,287,0.0,0.0
3665,56.0,96,95,0.0,0.0
3666,74.0,96,191,0.0,0.0
3667,52.0,0,95,0.0,0.0
3668,73.0,96,383,0.0,0.0
3669,57.0,96,287,0.0,0.0
3670,64.0,96,95,0.0,0.0
3671,69.0,96,383,0.0,0.0
3672,66.0,0,95,0.0,0.0
3673,78.0,96,287,0.0,0.0
3674,63.0,96,95,0.0,0.0
3675,59.0,0,95,0.0,0.0
3676,68.0,96,383,0.0,0.0
3677,64.0,96,287,0.0,0.0
3678,71.0,96,95,0.0,0.0
3679,76.0,0,575,0.0,0.0
3680,64.0,0,95,0.0,0.0
3681,68.0,96,191,0.0,0.0
3682,61.0,96,95,0.0,0.0
3683,56.0,0,95,0.0,0.0
3684,66.0,96,287,0.0,0.0
3685,57.0,96,95,0.0,0.0
3686,61.0,96,95,0.0,0.0
3687,76.0,96,575,0.0,0.0
3688,57.0,0,95,0.0,0.0
3689,69.0,96,95,0.0,0.0
3690,54.0,0,95,0.0,0.0
3691,68.0,96,95,0.0,0.0
3692,59.0,0,95,0.0,0.0
3693,56.0,0,95,0.0,0.0
3694,71.0,96,95,0.0,0.0
3695,69.0,0,287,0.0,0.0
3696,61.0,96,95,0.0,0.0
3697,64.0,0,95,0.0,0.0
3698,76.0,0,479,0.0,0.0
3699,61.0,96,95,0.0,0.0
3700,57.0,0,95,0.0,0.0
3701,73.0,96,95,0.0,0.0
3702,71.0,96,95,0.0,0.0
3703,56.0,0,95,0.0,0.0
3704,74.0,96,95,0.0,0.0
3705,52.0,0,95,0.0,0.0
3706,73.0,96,191,0.0,0.0
3707,57.0,96,95,0.0,0.0
3708,76.0,96,287,0.0,0.0
3709,61.0,0,95,0.0,0.0
3710,66.0,96,383,0.0,0.0
3711,57.0,96,95,0.0,0.0
3712,54.0,0,95,0.0,0.0
3713,59.0,96,95,0.0,0.0
3714,75.0,0,191,0.0,0.0
3715,47.0,0,95,0.0,0.0
3716,68.0,96,95,0.0,0.0
3717,76.0,96,287,0.0,0.0
3718,52.0,96,191,0.0,0.0
3719,69.0,0,95,0.0,0.0
3720,71.0,96,191,0.0,0.0
3721,64.0,0,191,0.0,0.0
3722,79.0,0,95,0.0,0.0
3723,76.0,96,95,0.0,0.0
3724,67.0,192,191,0.0,0.0
3725,64.0,96,383,0.0,0.0
3726,73.0,0,95,0.0,0.0
3727,66.0,192,383,0.0,0.0
3728,70.0,0,191,0.0,0.0
3729,78.0,0,191,0.0,0.0
3730,63.0,96,95,0.0,0.0
3731,61.0,0,95,0.0,0.0
3732,71.0,96,383,0.0,0.0
3733,78.0,192,191,0.0,0.0
3734,62.0,0,191,0.0,0.0
3735,77.0,0,191,0.0,0.0
3736,61.0,0,191,0.0,0.0
3737,76.0,192,191,0.0,0.0
3738,70.0,0,95,0.0,0.0
3739,66.0,96,95,0.0,0.0
3740,68.0,0,95,0.0,0.0
3741,64.0,0,95,0.0,0.0
3742,76.0,192,191,0.0,0.0
3743,70.0,0,191,0.0,0.0
3744,66.0,0,191,0.0,0.0
3745,71.0,0,383,0.0,0.0
3746,74.0,0,191,0.0,0.0
3747,59.0,96,191,0.0,0.0
3748,62.0,0,191,0.0,0.0
3749,79.0,96,95,0.0,0.0
3750,59.0,0,191,0.0,0.0
3751,78.0,192,95,0.0,0.0
3752,79.0,0,191,0.0,0.0
3753,74.0,0,191,0.0,0.0
3754,67.0,96,383,0.0,0.0
3755,59.0,192,191,0.0,0.0
3756,73.0,0,383,0.0,0.0
3757,58.0,0,191,0.0,0.0
3758,78.0,96,95,0.0,0.0
3759,61.0,192,191,0.0,0.0
3760,57.0,0,191,0.0,0.0
3761,76.0,0,95,0.0,0.0
3762,78.0,0,191,0.0,0.0
3763,73.0,0,191,0.0,0.0
3764,57.0,192,191,0.0,0.0
3765,66.0,96,383,0.0,0.0
3766,71.0,0,383,0.0,0.0
3767,56.0,0,191,0.0,0.0
3768,76.0,96,95,0.0,0.0
3769,59.0,0,191,0.0,0.0
3770,55.0,192,191,0.0,0.0
3771,75.0,0,95,0.0,0.0
3772,76.0,95,287,0.0,0.0
3773,71.0,96,191,0.0,0.0
3774,64.0,0,191,0.0,0.0
3775,55.0,0,191,0.0,0.0
3776,54.0,0,191,0.0,0.0
3777,66.0,1,190,0.0,0.0
3778,70.0,96,479,0.0,0.0
3779,76.0,96,95,0.0,0.0
3780,74.0,0,95,0.0,0.0
3781,59.0,96,95,0.0,0.0
3782,78.0,0,95,0.0,0.0
3783,58.0,96,95,0.0,0.0
3784,74.0,89,287,0.0,0.0
3785,59.0,96,191,0.0,0.0
3786,71.0,6,280,0.0,0.0
3787,67.0,1,190,0.0,0.0
3788,52.0,0,191,0.0,0.0
3789,74.0,96,95,0.0,0.0
3790,73.0,0,95,0.0,0.0
3791,57.0,96,95,0.0,0.0
3792,76.0,192,95,0.0,0.0
3793,55.0,0,95,0.0,0.0
3794,73.0,89,287,0.0,0.0
3795,57.0,96,191,0.0,0.0
3796,69.0,6,280,0.0,0.0
3797,66.0,1,190,0.0,0.0
3798,50.0,0,191,0.0,0.0
3799,73.0,96,95,0.0,0.0
3800,71.0,96,95,0.0,0.0
3801,55.0,0,95,0.0,0.0
3802,74.0,192,95,0.0,0.0
3803,54.0,0,95,0.0,0.0
3804,55.0,96,191,0.0,0.0
3805,71.0,89,287,0.0,0.0
3806,67.0,6,280,0.0,0.0
3807,64.0,1,190,0.0,0.0
3808,49.0,0,191,0.0,0.0
3809,71.0,96,95,0.0,0.0
3810,54.0,96,95,0.0,0.0
3811,70.0,0,95,0.0,0.0
3812,73.0,0,95,0.0,0.0
3813,52.0,288,95,0.0,0.0
3814,70.0,91,383,0.0,0.0
3815,54.0,96,287,0.0,0.0
3816,66.0,0,287,0.0,0.0
3817,64.0,0,191,0.0,0.0
3818,54.0,0,95,0.0,0.0
3819,55.0,96,95,0.0,0.0
3820,59.0,5,90,0.0,0.0
3821,71.0,96,479,0.0,0.0
3822,62.0,96,383,0.0,0.0
3823,59.0,96,95,0.0,0.0
3824,67.0,0,383,0.0,0.0
3825,55.0,96,95,0.0,0.0
3826,52.0,0,95,0.0,0.0
3827,49.0,192,191,0.0,0.0
3828,64.0,96,383,0.0,0.0
3829,71.0,0,95,0.0,0.0
3830,66.0,3,380,0.0,0.0
3831,54.0,0,191,0.0,0.0
3832,70.0,93,287,0.0,0.0
3833,64.0,7,280,0.0,0.0
3834,42.0,0,191,0.0,0.0
3835,70.0,89,95,0.0,0.0
3836,47.0,0,383,0.0,0.0
3837,71.0,96,95,0.0,0.0
3838,66.0,96,95,0.0,0.0
3839,67.0,96,95,0.0,0.0
3840,62.0,0,191,0.0,0.0
3841,71.0,96,95,0.0,0.0
3842,67.0,96,95,0.0,0.0
3843,62.0,96,191,0.0,0.0
3844,59.0,95,287,0.0,0.0
3845,66.0,0,95,0.0,0.0
3846,61.0,1,190,0.0,0.0
3847,65.0,0,95,0.0,0.0
3848,68.0,96,95,0.0,0.0
3849,59.0,0,95,0.0,0.0
3850,73.0,96,95,0.0,0.0
3851,57.0,0,95,0.0,0.0
3852,78.0,0,95,0.0,0.0
3853,62.0,96,95,0.0,0.0
3854,74.0,96,95,0.0,0.0
3855,59.0,0,95,0.0,0.0
3856,73.0,96,95,0.0,0.0
3857,57.0,0,95,0.0,0.0
3858,71.0,96,95,0.0,0.0
3859,56.0,0,191,0.0,0.0
3860,74.0,96,95,0.0,0.0
3861,65.0,96,95,0.0,0.0
3862,61.0,0,191,0.0,0.0
3863,74.0,96,95,0.0,0.0
3864,73.0,96,95,0.0,0.0
3865,49.0,96,191,0.0,0.0
3866,71.0,0,95,0.0,0.0
3867,69.0,96,95,0.0,0.0
3868,54.0,96,287,0.0,0.0
3869,71.0,96,95,0.0,0.0
3870,69.0,0,95,0.0,0.0
3871,68.0,96,95,0.0,0.0
3872,56.0,0,95,0.0,0.0
3873,66.0,96,95,0.0,0.0
3874,57.0,0,95,0.0,0.0
3875,69.0,96,95,0.0,0.0
3876,54.0,0,95,0.0,0.0
3877,59.0,96,95,0.0,0.0
3878,63.0,96,287,0.0,0.0
3879,61.0,96,95,0.0,0.0
3880,59.0,0,95,0.0,0.0
3881,73.0,96,95,0.0,0.0
3882,57.0,0,95,0.0,0.0
3883,71.0,96,95,0.0,0.0
3884,56.0,0,95,0.0,0.0
3885,69.0,0,95,0.0,0.0
3886,59.0,96,95,0.0,0.0
3887,68.0,96,95,0.0,0.0
3888,52.0,96,287,0.0,0.0
3889,69.0,96,95,0.0,0.0
3890,68.0,0,95,0.0,0.0
3891,66.0,96,95,0.0,0.0
3892,54.0,0,95,0.0,0.0
3893,64.0,96,95,0.0,0.0
3894,56.0,0,95,0.0,0.0
3895,68.0,96,95,0.0,0.0
3896,52.0,0,95,0.0,0.0
3897,61.0,96,287,0.0,0.0
3898,57.0,96,95,0.0,0.0
3899,59.0,96,95,0.0,0.0
3900,57.0,0,95,0.0,0.0
3901,56.0,0,95,0.0,0.0
3902,71.0,96,95,0.0,0.0
3903,69.0,96,95,0.0,0.0
3904,54.0,0,95,0.0,0.0
3905,57.0,0,95,0.0,0.0
3906,68.0,96,95,0.0,0.0
3907,66.0,96,95,0.0,0.0
3908,51.0,0,287,0.0,0.0
3909,68.0,96,95,0.0,0.0
3910,66.0,96,95,0.0,0.0
3911,64.0,0,95,0.0,0.0
3912,52.0,96,95,0.0,0.0
3913,63.0,0,95,0.0,0.0
3914,54.0,96,95,0.0,0.0
3915,66.0,96,95,0.0,0.0
3916,51.0,0,95,0.0,0.0
3917,60.0,96,287,0.0,0.0
3918,56.0,96,95,0.0,0.0
3919,57.0,96,95,0.0,0.0
3920,56.0,0,95,0.0,0.0
3921,69.0,96,95,0.0,0.0
3922,54.0,0,95,0.0,0.0
3923,53.0,0,95,0.0,0.0
3924,68.0,96,95,0.0,0.0
3925,66.0,96,95,0.0,0.0
3926,56.0,0,95,0.0,0.0
3927,65.0,96,95,0.0,0.0
3928,49.0,0,95,0.0,0.0
3929,68.0,96,95,0.0,0.0
3930,50.0,0,95,0.0,0.0
3931,73.0,96,95,0.0,0.0
3932,49.0,0,95,0.0,0.0
3933,74.0,96,95,0.0,0.0
3934,47.0,0,95,0.0,0.0
3935,73.0,0,95,0.0,0.0
3936,45.0,96,95,0.0,0.0
3937,71.0,192,95,0.0,0.0
3938,49.0,0,95,0.0,0.0
3939,69.0,96,191,0.0,0.0
3940,42.0,0,191,0.0,0.0
3941,74.0,96,95,0.0,0.0
3942,54.0,0,191,0.0,0.0
3943,73.0,192,95,0.0,0.0
3944,74.0,0,191,0.0,0.0
3945,54.0,192,191,0.0,0.0
3946,68.0,96,191,0.0,0.0
3947,53.0,0,191,0.0,0.0
3948,52.0,192,191,0.0,0.0
3949,73.0,96,95,0.0,0.0
3950,71.0,0,95,0.0,0.0
3951,73.0,0,191,0.0,0.0
3952,52.0,192,191,0.0,0.0
3953,66.0,96,191,0.0,0.0
3954,51.0,0,191,0.0,0.0
3955,78.0,192,191,0.0,0.0
3956,71.0,96,95,0.0,0.0
3957,62.0,0,191,0.0,0.0
3958,50.0,0,191,0.0,0.0
3959,69.0,0,95,0.0,0.0
3960,78.0,0,191,0.0,0.0
3961,71.0,0,191,0.0,0.0
3962,50.0,0,191,0.0,0.0
3963,62.0,192,191,0.0,0.0
3964,77.0,0,191,0.0,0.0
3965,73.0,0,191,0.0,0.0
3966,56.0,96,191,0.0,0.0
3967,49.0,0,575,0.0,0.0
3968,61.0,96,95,0.0,0.0
3969,76.0,192,191,0.0,0.0
3970,68.0,0,191,0.0,0.0
3971,59.0,0,95,0.0,0.0
3972,76.0,0,191,0.0,0.0
3973,70.0,192,191,0.0,0.0
3974,61.0,0,191,0.0,0.0
3975,75.0,96,191,0.0,0.0
3976,47.0,0,575,0.0,0.0
3977,54.0,0,191,0.0,0.0
3978,71.0,0,191,0.0,0.0
3979,66.0,96,95,0.0,0.0
3980,74.0,96,191,0.0,0.0
3981,59.0,0,95,0.0,0.0
3982,69.0,0,95,0.0,0.0
3983,57.0,0,95,0.0,0.0
3984,74.0,0,191,0.0,0.0
3985,68.0,96,95,0.0,0.0
3986,59.0,0,191,0.0,0.0
3987,71.0,96,95,0.0,0.0
3988,73.0,0,575,0.0,0.0
3989,65.0,0,575,0.0,0.0
3990,56.0,96,95,0.0,0.0
3991,47.0,96,575,0.0,0.0
3992,61.0,96,95,0.0,0.0
3993,56.0,96,95,0.0,0.0
3994,53.0,96,95,0.0,0.0
3995,49.0,96,95,0.0,0.0
3996,56.0,0,95,0.0,0.0
3997,73.0,96,95,0.0,0.0
3998,66.0,3,380,0.0,0.0
3999,57.0,0,575,0.0,0.0
4000,45.0,0,575,0.0,0.0
4001,78.0,96,95,0.0,0.0
4002,73.0,93,95,0.0,0.0
4003,69.0,191,95,0.0,0.0
4004,66.0,1,190,0.0,0.0
4005,69.0,96,95,0.0,0.0
4006,54.0,96,95,0.0,0.0
4007,71.0,96,575,0.0,0.0
4008,63.0,0,575,0.0,0.0
4009,45.0,0,575,0.0,0.0
4010,59.0,96,95,0.0,0.0
4011,54.0,96,95,0.0,0.0
4012,51.0,96,95,0.0,0.0
4013,47.0,96,95,0.0,0.0
4014,54.0,0,95,0.0,0.0
4015,44.0,0,383,0.0,0.0
4016,65.0,3,380,0.0,0.0
4017,71.0,96,95,0.0,0.0
4018,56.0,0,383,0.0,0.0
4019,74.0,96,95,0.0,0.0
4020,71.0,93,95,0.0,0.0
4021,68.0,191,95,0.0,0.0
4022,56.0,0,191,0.0,0.0
4023,65.0,1,190,0.0,0.0
4024,49.0,0,191,0.0,0.0
4025,68.0,192,95,0.0,0.0
4026,69.0,1,1150,0.0,0.0
4027,54.0,0,575,0.0,0.0
4028,42.0,96,575,0.0,0.0
4029,61.0,96,95,0.0,0.0
4030,66.0,96,95,0.0,0.0
4031,61.0,96,95,0.0,0.0
4032,57.0,96,95,0.0,0.0
4033,61.0,94,673,0.0,0.0
4034,54.0,96,95,0.0,0.0
4035,49.0,96,95,0.0,0.0
4036,54.0,96,95,0.0,0.0
4037,49.0,96,95,0.0,0.0
4038,45.0,95,95,0.0,0.0
4039,49.0,2,95,0.0,0.0
4040,42.0,96,95,0.0,0.0
4041,37.0,96,95,0.0,0.0
4042,42.0,96,95,0.0,0.0
4043,45.0,96,95,0.0,0.0
4044,44.0,96,95,0.0,0.0
4045,47.0,96,95,0.0,0.0
4046,45.0,96,95,0.0,0.0
4047,42.0,96,95,0.0,0.0
4048,45.0,96,95,0.0,0.0
4049,49.0,96,95,0.0,0.0
4050,47.0,96,95,0.0,0.0
4051,50.0,96,95,0.0,0.0
4052,49.0,96,95,0.0,0.0
4053,45.0,96,95,0.0,0.0
4054,49.0,96,95,0.0,0.0
4055,54.0,96,95,0.0,0.0
4056,53.0,96,95,0.0,0.0
4057,56.0,96,95,0.0,0.0
4058,54.0,96,95,0.0,0.0
4059,49.0,96,95,0.0,0.0
4060,54.0,96,95,0.0,0.0
4061,57.0,96,95,0.0,0.0
4062,56.0,96,95,0.0,0.0
4063,59.0,96,95,0.0,0.0
4064,57.0,96,95,0.0,0.0
4065,54.0,96,95,0.0,0.0
4066,57.0,96,95,0.0,0.0
4067,61.0,96,95,0.0,0.0
4068,59.0,96,95,0.0,0.0
4069,62.0,96,95,0.0,0.0
4070,61.0,96,95,0.0,0.0
4071,57.0,96,95,0.0,0.0
4072,61.0,96,95,0.0,0.0
4073,66.0,96,95,0.0,0.0
4074,65.0,96,95,0.0,0.0
4075,68.0,96,95,0.0,0.0
4076,66.0,96,95,0.0,0.0
4077,61.0,96,95,0.0,0.0
4078,66.0,96,95,0.0,0.0
4079,69.0,96,95,0.0,0.0
4080,68.0,96,95,0.0,0.0
4081,71.0,96,95,0.0,0.0
4082,69.0,96,95,0.0,0.0
4083,66.0,96,95,0.0,0.0
4084,69.0,96,95,0.0,0.0
4085,73.0,99,95,0.0,0.0
4086,71.0,99,98,0.0,0.0
4087,74.0,100,98,0.0,0.0
4088,73.0,100,98,0.0,0.0
4089,69.0,50,98,0.0,0.0
4090,73.0,50,48,0.0,0.0
4091,75.0,100,48,0.0,0.0
4092,76.0,50,98,0.0,0.0
4093,75.0,49,48,0.0,0.0
4094,77.0,100,48,0.0,0.0
4095,78.0,50,98,0.0,0.0
4096,77.0,50,48,0.0,0.0
4097,78.0,100,48,0.0,0.0
4098,80.0,50,98,0.0,0.0
4099,78.0,50,48,0.0,0.0
4100,80.0,100,48,0.0,0.0
4101,81.0,54,98,0.0,0.0
4102,80.0,53,52,0.0,0.0
4103,81.0,108,52,0.0,0.0
4104,83.0,216,106,0.0,0.0
4105,54.0,215,214,0.0,0.0
4106,66.0,0,429,0.0,0.0
4107,73.0,107,429,0.0,0.0
4108,81.0,0,106,0.0,0.0
4109,61.0,1,429,0.0,0.0
4110,80.0,108,321,0.0,0.0
4111,65.0,0,214,0.0,0.0
4112,71.0,0,214,0.0,0.0
4113,78.0,112,106,0.0,0.0
4114,70.0,114,224,0.0,0.0
4115,66.0,113,110,0.0,0.0
4116,54.0,10,1356,0.0,0.0
4117,78.0,0,224,0.0,0.0
4118,64.0,1,110,0.0,0.0
4119,62.0,114,110,0.0,0.0
4120,71.0,0,110,0.0,0.0
4121,78.0,0,224,0.0,0.0
4122,73.0,0,110,0.0,0.0
4123,61.0,115,110,0.0,0.0
4124,74.0,1,451,0.0,0.0
4125,59.0,114,110,0.0,0.0
4126,78.0,227,224,0.0,0.0
4127,58.0,0,110,0.0,0.0
4128,56.0,115,224,0.0,0.0
4129,77.0,0,224,0.0,0.0
4130,76.0,0,224,0.0,0.0
4131,68.0,218,224,0.0,0.0
4132,61.0,113,110,0.0,0.0
4133,59.0,1,110,0.0,0.0
4134,61.0,0,451,0.0,0.0
4135,70.0,0,451,0.0,0.0
4136,73.0,9,451,0.0,0.0
4137,76.0,227,224,0.0,0.0
4138,75.0,119,228,0.0,0.0
4139,54.0,53,1383,0.0,0.0
4140,74.0,1,228,0.0,0.0
4141,71.0,0,228,0.0,0.0
4142,59.0,116,112,0.0,0.0
4143,66.0,0,228,0.0,0.0
4144,58.0,118,112,0.0,0.0
4145,59.0,3,344,0.0,0.0
4146,71.0,116,112,0.0,0.0
4147,74.0,1,228,0.0,0.0
4148,66.0,0,112,0.0,0.0
4149,69.0,115,112,0.0,0.0
4150,74.0,142,344,0.0,0.0
4151,68.0,124,112,0.0,0.0
4152,57.0,108,118,0.0,0.0
4153,66.0,0,118,0.0,0.0
4154,56.0,49,486,0.0,0.0
4155,65.0,26,241,0.0,0.0
4156,74.0,138,131,0.0,0.0
4157,73.0,28,131,0.0,0.0
4158,59.0,18,261,0.0,0.0
4159,71.0,1471,140,0.0,0.0
4160,42.0,1,1464,0.0,0.0
4161,54.0,0,1464,0.0,0.0
4162,61.0,0,1464,0.0,0.0
4163,66.0,0,1464,0.0,0.0
4164,70.0,0,1464,0.0,0.0
