,note,step,duration,channel,velocity
0,36.0,0,480,15.0,64.0
1,48.0,960,480,14.0,64.0
2,43.0,0,960,15.0,64.0
3,55.0,480,960,14.0,64.0
4,51.0,960,480,14.0,64.0
5,39.0,0,480,15.0,64.0
6,53.0,480,960,14.0,64.0
7,41.0,0,960,15.0,64.0
8,43.0,960,480,15.0,64.0
9,55.0,0,480,14.0,64.0
10,56.0,0,960,14.0,64.0
11,44.0,480,960,15.0,64.0
12,53.0,960,480,14.0,64.0
13,41.0,0,480,15.0,64.0
14,55.0,0,960,14.0,64.0
15,43.0,480,960,15.0,64.0
16,38.0,0,480,15.0,64.0
17,50.0,960,480,14.0,64.0
18,39.0,0,960,15.0,64.0
19,51.0,480,960,14.0,64.0
20,35.0,0,480,15.0,64.0
21,47.0,960,480,14.0,64.0
22,36.0,480,960,15.0,64.0
23,48.0,0,960,14.0,64.0
24,41.0,1440,480,14.0,64.0
25,41.0,0,480,15.0,64.0
26,43.0,960,1440,15.0,64.0
27,43.0,0,1440,14.0,64.0
28,36.0,480,960,15.0,64.0
29,36.0,0,960,14.0,64.0
30,48.0,235,480,14.0,64.0
31,36.0,0,480,15.0,64.0
32,72.0,40,600,11.0,64.0
33,63.0,125,480,13.0,64.0
34,67.0,75,630,12.0,64.0
35,43.0,0,960,15.0,64.0
36,55.0,0,960,14.0,64.0
37,62.0,80,630,13.0,64.0
38,74.0,405,120,11.0,64.0
39,71.0,480,480,11.0,64.0
40,67.0,0,480,12.0,64.0
41,51.0,235,480,14.0,64.0
42,39.0,0,480,15.0,64.0
43,72.0,75,630,12.0,64.0
44,75.0,40,600,11.0,64.0
45,67.0,125,480,13.0,64.0
46,41.0,480,960,15.0,64.0
47,53.0,0,960,14.0,64.0
48,65.0,0,630,13.0,64.0
49,77.0,405,120,11.0,64.0
50,68.0,80,390,12.0,64.0
51,74.0,0,390,11.0,64.0
52,55.0,235,480,14.0,64.0
53,43.0,0,480,15.0,64.0
54,67.0,125,480,12.0,64.0
55,74.0,40,600,11.0,64.0
56,59.0,75,630,13.0,64.0
57,44.0,480,960,15.0,64.0
58,56.0,0,960,14.0,64.0
59,65.0,0,630,12.0,64.0
60,75.0,405,120,11.0,64.0
61,72.0,0,390,11.0,64.0
62,60.0,80,390,13.0,64.0
63,53.0,235,480,14.0,64.0
64,41.0,0,480,15.0,64.0
65,72.0,40,600,11.0,64.0
66,63.0,125,480,13.0,64.0
67,68.0,75,630,12.0,64.0
68,55.0,0,960,14.0,64.0
69,43.0,480,960,15.0,64.0
70,62.0,0,630,13.0,64.0
71,74.0,405,120,11.0,64.0
72,71.0,0,390,11.0,64.0
73,67.0,80,390,12.0,64.0
74,38.0,0,480,15.0,64.0
75,50.0,235,480,14.0,64.0
76,80.0,40,600,11.0,64.0
77,65.0,125,480,13.0,64.0
78,71.0,75,630,12.0,64.0
79,39.0,480,960,15.0,64.0
80,51.0,0,960,14.0,64.0
81,63.0,0,630,13.0,64.0
82,82.0,405,120,11.0,64.0
83,72.0,80,390,12.0,64.0
84,79.0,0,390,11.0,64.0
85,47.0,0,480,14.0,64.0
86,35.0,235,480,15.0,64.0
87,68.0,75,630,12.0,64.0
88,62.0,125,480,13.0,64.0
89,77.0,40,600,11.0,64.0
90,48.0,475,960,14.0,64.0
91,36.0,0,960,15.0,64.0
92,60.0,80,630,13.0,64.0
93,79.0,405,120,11.0,64.0
94,67.0,0,390,12.0,64.0
95,75.0,0,390,11.0,64.0
96,41.0,240,480,15.0,64.0
97,41.0,0,480,14.0,64.0
98,75.0,115,600,11.0,64.0
99,68.0,120,480,12.0,64.0
100,60.0,5,240,13.0,64.0
101,43.0,235,1440,14.0,64.0
102,60.0,40,840,13.0,64.0
103,43.0,0,1440,15.0,64.0
104,67.0,0,240,12.0,64.0
105,77.0,365,120,11.0,64.0
106,65.0,75,390,12.0,64.0
107,74.0,0,390,11.0,64.0
108,62.0,485,120,13.0,64.0
109,59.0,0,480,13.0,64.0
110,74.0,115,600,11.0,64.0
111,65.0,0,600,12.0,64.0
112,36.0,0,960,15.0,64.0
113,36.0,480,960,14.0,64.0
114,60.0,125,240,13.0,64.0
115,55.0,0,630,13.0,64.0
116,75.0,0,120,11.0,64.0
117,67.0,405,120,12.0,64.0
118,63.0,80,390,12.0,64.0
119,72.0,0,390,11.0,64.0
120,48.0,235,480,4.0,64.0
121,36.0,0,480,15.0,64.0
122,48.0,0,480,14.0,64.0
123,67.0,40,1080,3.0,64.0
124,67.0,75,630,12.0,64.0
125,63.0,5,480,13.0,64.0
126,84.0,40,600,0.0,64.0
127,79.0,0,1080,0.0,64.0
128,67.0,0,1080,2.0,64.0
129,63.0,120,480,3.0,64.0
130,72.0,0,600,11.0,64.0
131,75.0,0,480,2.0,64.0
132,43.0,480,960,15.0,64.0
133,55.0,0,960,4.0,64.0
134,55.0,0,960,14.0,64.0
135,74.0,0,630,2.0,64.0
136,62.0,0,630,13.0,64.0
137,62.0,0,630,3.0,64.0
138,74.0,5,120,11.0,64.0
139,86.0,360,120,0.0,64.0
140,71.0,0,390,11.0,64.0
141,83.0,0,390,0.0,64.0
142,67.0,80,390,12.0,64.0
143,51.0,0,480,4.0,64.0
144,51.0,235,480,14.0,64.0
145,39.0,0,480,15.0,64.0
146,67.0,75,630,12.0,64.0
147,70.0,0,600,11.0,64.0
148,61.0,5,480,13.0,64.0
149,67.0,400,720,3.0,64.0
150,67.0,0,720,2.0,64.0
151,79.0,0,720,0.0,64.0
152,82.0,40,600,0.0,64.0
153,61.0,0,480,3.0,64.0
154,73.0,120,480,2.0,64.0
155,41.0,0,960,15.0,64.0
156,53.0,0,960,14.0,64.0
157,53.0,480,960,4.0,64.0
158,60.0,0,630,13.0,64.0
159,60.0,0,630,3.0,64.0
160,72.0,0,630,2.0,64.0
161,72.0,5,120,11.0,64.0
162,84.0,0,120,0.0,64.0
163,65.0,0,390,12.0,64.0
164,80.0,0,390,0.0,64.0
165,65.0,0,390,2.0,64.0
166,65.0,80,390,3.0,64.0
167,68.0,0,390,11.0,64.0
168,77.0,0,390,0.0,64.0
169,55.0,0,480,4.0,64.0
170,55.0,235,480,14.0,64.0
171,43.0,0,480,15.0,64.0
172,79.0,0,600,0.0,64.0
173,59.0,5,480,13.0,64.0
174,63.0,75,630,12.0,64.0
175,63.0,0,720,3.0,64.0
176,67.0,40,600,11.0,64.0
177,71.0,120,480,2.0,64.0
178,63.0,0,720,2.0,64.0
179,59.0,0,480,3.0,64.0
180,75.0,0,720,0.0,64.0
181,56.0,480,960,4.0,64.0
182,56.0,0,960,14.0,64.0
183,44.0,0,960,15.0,64.0
184,60.0,0,630,3.0,64.0
185,60.0,0,630,13.0,64.0
186,72.0,0,630,2.0,64.0
187,68.0,5,120,11.0,64.0
188,80.0,400,120,0.0,64.0
189,62.0,0,390,2.0,64.0
190,74.0,0,390,0.0,64.0
191,65.0,80,390,11.0,64.0
192,62.0,0,390,3.0,64.0
193,62.0,0,390,12.0,64.0
194,77.0,0,390,0.0,64.0
195,53.0,240,480,4.0,64.0
196,41.0,0,480,15.0,64.0
197,53.0,0,480,14.0,64.0
198,75.0,0,720,0.0,64.0
199,60.0,0,600,13.0,64.0
200,60.0,40,600,3.0,64.0
201,72.0,0,600,2.0,64.0
202,63.0,0,720,2.0,64.0
203,80.0,0,480,0.0,64.0
204,63.0,60,720,3.0,64.0
205,68.0,120,480,11.0,64.0
206,63.0,75,630,12.0,64.0
207,55.0,0,960,4.0,64.0
208,55.0,480,960,14.0,64.0
209,43.0,0,960,15.0,64.0
210,67.0,0,240,11.0,64.0
211,74.0,0,120,2.0,64.0
212,62.0,5,120,13.0,64.0
213,62.0,0,120,3.0,64.0
214,74.0,0,390,0.0,64.0
215,62.0,0,390,12.0,64.0
216,79.0,0,15,0.0,64.0
217,67.0,0,60,11.0,64.0
218,71.0,0,390,2.0,64.0
219,59.0,75,390,3.0,64.0
220,62.0,0,390,2.0,64.0
221,62.0,0,390,3.0,64.0
222,59.0,0,390,13.0,64.0
223,80.0,0,60,0.0,64.0
224,68.0,280,60,11.0,64.0
225,67.0,5,360,11.0,64.0
226,79.0,0,360,0.0,64.0
227,38.0,0,480,15.0,64.0
228,50.0,235,480,14.0,64.0
229,50.0,0,480,4.0,64.0
230,65.0,0,600,11.0,64.0
231,59.0,75,630,12.0,64.0
232,71.0,400,720,2.0,64.0
233,71.0,0,720,0.0,64.0
234,77.0,40,600,0.0,64.0
235,56.0,5,480,13.0,64.0
236,59.0,0,720,3.0,64.0
237,68.0,0,480,2.0,64.0
238,56.0,120,480,3.0,64.0
239,39.0,0,960,15.0,64.0
240,51.0,480,960,4.0,64.0
241,51.0,0,960,14.0,64.0
242,55.0,0,630,13.0,64.0
243,55.0,0,630,3.0,64.0
244,67.0,0,630,2.0,64.0
245,79.0,0,120,0.0,64.0
246,67.0,5,120,11.0,64.0
247,63.0,0,390,11.0,64.0
248,72.0,0,390,0.0,64.0
249,75.0,0,390,0.0,64.0
250,60.0,0,390,12.0,64.0
251,60.0,80,390,3.0,64.0
252,72.0,0,390,2.0,64.0
253,47.0,235,480,4.0,64.0
254,47.0,0,480,14.0,64.0
255,35.0,0,480,15.0,64.0
256,53.0,400,720,3.0,64.0
257,56.0,5,480,12.0,64.0
258,68.0,120,480,2.0,64.0
259,56.0,0,480,3.0,64.0
260,68.0,0,480,0.0,64.0
261,62.0,0,600,11.0,64.0
262,74.0,0,600,2.0,64.0
263,53.0,75,630,13.0,64.0
264,74.0,40,600,0.0,64.0
265,48.0,0,960,4.0,64.0
266,48.0,480,960,14.0,64.0
267,36.0,0,960,15.0,64.0
268,55.0,0,630,3.0,64.0
269,67.0,0,630,0.0,64.0
270,67.0,0,630,2.0,64.0
271,55.0,0,630,12.0,64.0
272,63.0,5,120,11.0,64.0
273,75.0,0,120,0.0,64.0
274,75.0,0,120,2.0,64.0
275,72.0,0,390,2.0,64.0
276,51.0,0,390,3.0,64.0
277,51.0,0,390,13.0,64.0
278,60.0,80,390,11.0,64.0
279,72.0,0,390,0.0,64.0
280,41.0,235,480,14.0,64.0
281,41.0,0,480,15.0,64.0
282,41.0,0,480,4.0,64.0
283,72.0,40,600,2.0,64.0
284,72.0,0,600,0.0,64.0
285,68.0,0,1080,2.0,64.0
286,56.0,0,1080,3.0,64.0
287,56.0,75,630,12.0,64.0
288,68.0,0,1080,0.0,64.0
289,51.0,0,480,13.0,64.0
290,63.0,125,480,3.0,64.0
291,60.0,0,600,11.0,64.0
292,43.0,0,1440,14.0,64.0
293,43.0,0,1440,4.0,64.0
294,43.0,0,1440,15.0,64.0
295,50.0,0,480,13.0,64.0
296,62.0,0,480,3.0,64.0
297,62.0,5,120,11.0,64.0
298,74.0,30,120,2.0,64.0
299,74.0,0,120,0.0,64.0
300,56.0,20,390,12.0,64.0
301,59.0,0,30,11.0,64.0
302,71.0,30,30,0.0,64.0
303,71.0,0,30,2.0,64.0
304,60.0,30,30,11.0,64.0
305,72.0,0,30,0.0,64.0
306,72.0,0,30,2.0,64.0
307,59.0,0,30,11.0,64.0
308,71.0,30,30,2.0,64.0
309,71.0,0,30,0.0,64.0
310,72.0,0,30,2.0,64.0
311,60.0,0,30,11.0,64.0
312,72.0,30,30,0.0,64.0
313,59.0,30,30,11.0,64.0
314,71.0,0,30,2.0,64.0
315,71.0,0,30,0.0,64.0
316,72.0,0,30,0.0,64.0
317,72.0,30,30,2.0,64.0
318,60.0,0,30,11.0,64.0
319,59.0,0,30,11.0,64.0
320,71.0,30,30,2.0,64.0
321,71.0,0,30,0.0,64.0
322,60.0,0,30,11.0,64.0
323,72.0,0,30,0.0,64.0
324,72.0,30,30,2.0,64.0
325,53.0,0,240,13.0,64.0
326,65.0,5,240,3.0,64.0
327,59.0,30,30,11.0,64.0
328,71.0,0,30,2.0,64.0
329,71.0,0,30,0.0,64.0
330,60.0,30,30,11.0,64.0
331,72.0,0,30,2.0,64.0
332,72.0,0,30,0.0,64.0
333,71.0,30,30,2.0,64.0
334,71.0,0,30,0.0,64.0
335,59.0,0,30,11.0,64.0
336,60.0,30,30,11.0,64.0
337,72.0,0,30,0.0,64.0
338,72.0,0,30,2.0,64.0
339,71.0,0,30,0.0,64.0
340,71.0,0,30,2.0,64.0
341,59.0,10,30,11.0,64.0
342,72.0,0,30,2.0,64.0
343,72.0,30,30,0.0,64.0
344,60.0,0,30,11.0,64.0
345,59.0,25,30,11.0,64.0
346,71.0,0,30,2.0,64.0
347,71.0,0,30,0.0,64.0
348,72.0,360,30,2.0,64.0
349,60.0,0,30,11.0,64.0
350,72.0,0,30,0.0,64.0
351,63.0,40,360,3.0,64.0
352,55.0,0,360,12.0,64.0
353,71.0,235,480,0.0,64.0
354,51.0,0,360,13.0,64.0
355,67.0,0,360,0.0,64.0
356,71.0,0,480,2.0,64.0
357,67.0,0,360,2.0,64.0
358,55.0,0,360,3.0,64.0
359,59.0,75,390,11.0,64.0
360,53.0,0,120,3.0,64.0
361,62.0,0,120,3.0,64.0
362,65.0,0,120,12.0,64.0
363,65.0,0,120,0.0,64.0
364,50.0,5,120,13.0,64.0
365,65.0,0,120,2.0,64.0
366,36.0,0,840,14.0,64.0
367,60.0,160,240,11.0,64.0
368,48.0,0,390,13.0,64.0
369,60.0,0,390,3.0,64.0
370,63.0,0,390,2.0,64.0
371,36.0,0,840,15.0,64.0
372,51.0,75,390,3.0,64.0
373,72.0,5,240,2.0,64.0
374,63.0,0,390,0.0,64.0
375,72.0,0,240,0.0,64.0
376,63.0,0,390,12.0,64.0
377,36.0,115,840,4.0,64.0
378,67.0,245,240,11.0,64.0
379,72.0,120,240,11.0,64.0
380,74.0,0,240,11.0,64.0
381,55.0,245,240,13.0,64.0
382,48.0,75,390,14.0,64.0
383,75.0,0,240,11.0,64.0
384,36.0,0,390,15.0,64.0
385,60.0,160,240,13.0,64.0
386,77.0,0,240,11.0,64.0
387,62.0,485,240,13.0,64.0
388,74.0,115,840,11.0,64.0
389,43.0,0,840,15.0,64.0
390,55.0,0,840,14.0,64.0
391,59.0,0,720,13.0,64.0
392,62.0,240,240,12.0,64.0
393,67.0,120,240,12.0,64.0
394,68.0,245,240,12.0,64.0
395,60.0,0,240,13.0,64.0
396,70.0,0,240,12.0,64.0
397,79.0,80,870,11.0,64.0
398,61.0,160,240,13.0,64.0
399,39.0,0,390,15.0,64.0
400,51.0,75,390,14.0,64.0
401,72.0,5,240,12.0,64.0
402,63.0,235,240,13.0,64.0
403,41.0,0,840,15.0,64.0
404,53.0,40,840,14.0,64.0
405,60.0,165,240,13.0,64.0
406,65.0,240,240,13.0,64.0
407,77.0,75,390,11.0,64.0
408,62.0,120,240,13.0,64.0
409,68.0,0,15,12.0,64.0
410,60.0,0,240,13.0,64.0
411,59.0,0,480,13.0,64.0
412,75.0,0,720,11.0,64.0
413,67.0,160,240,12.0,64.0
414,43.0,0,390,15.0,64.0
415,55.0,80,390,14.0,64.0
416,65.0,235,240,12.0,64.0
417,60.0,235,240,13.0,64.0
418,44.0,115,840,15.0,64.0
419,63.0,5,240,12.0,64.0
420,56.0,0,840,14.0,64.0
421,60.0,240,240,12.0,64.0
422,79.0,5,240,11.0,64.0
423,58.0,0,240,13.0,64.0
424,77.0,120,240,11.0,64.0
425,65.0,0,240,12.0,64.0
426,56.0,0,240,13.0,64.0
427,60.0,245,240,13.0,64.0
428,67.0,0,240,12.0,64.0
429,75.0,0,240,11.0,64.0
430,65.0,0,240,13.0,64.0
431,74.0,160,240,11.0,64.0
432,68.0,165,720,12.0,64.0
433,53.0,0,390,14.0,64.0
434,41.0,75,390,15.0,64.0
435,63.0,240,240,13.0,64.0
436,72.0,0,240,11.0,64.0
437,71.0,75,390,11.0,64.0
438,62.0,120,720,13.0,64.0
439,43.0,0,840,15.0,64.0
440,55.0,115,840,14.0,64.0
441,68.0,245,240,12.0,64.0
442,67.0,0,240,12.0,64.0
443,63.0,0,240,13.0,64.0
444,72.0,405,240,12.0,64.0
445,71.0,0,390,12.0,64.0
446,38.0,80,390,15.0,64.0
447,65.0,0,390,13.0,64.0
448,50.0,0,390,14.0,64.0
449,80.0,240,240,11.0,64.0
450,72.0,120,720,12.0,64.0
451,51.0,40,840,14.0,64.0
452,63.0,0,240,13.0,64.0
453,39.0,0,840,15.0,64.0
454,79.0,235,240,11.0,64.0
455,65.0,240,240,13.0,64.0
456,77.0,5,240,11.0,64.0
457,67.0,0,390,13.0,64.0
458,75.0,75,390,11.0,64.0
459,68.0,245,240,12.0,64.0
460,47.0,0,390,14.0,64.0
461,62.0,80,390,13.0,64.0
462,67.0,160,240,12.0,64.0
463,35.0,0,390,15.0,64.0
464,65.0,240,240,12.0,64.0
465,80.0,0,240,11.0,64.0
466,48.0,0,840,14.0,64.0
467,63.0,235,240,12.0,64.0
468,79.0,0,240,11.0,64.0
469,36.0,40,840,15.0,64.0
470,77.0,5,240,11.0,64.0
471,56.0,240,240,13.0,64.0
472,62.0,0,240,12.0,64.0
473,60.0,5,1200,12.0,64.0
474,75.0,75,390,11.0,64.0
475,55.0,120,240,13.0,64.0
476,53.0,245,240,13.0,64.0
477,41.0,0,390,14.0,64.0
478,51.0,160,240,13.0,64.0
479,41.0,80,390,15.0,64.0
480,50.0,0,240,13.0,64.0
481,80.0,235,240,11.0,64.0
482,51.0,0,240,13.0,64.0
483,43.0,0,1320,14.0,64.0
484,43.0,115,1320,15.0,64.0
485,79.0,235,240,11.0,64.0
486,59.0,240,240,12.0,64.0
487,53.0,0,240,13.0,64.0
488,68.0,5,240,11.0,64.0
489,77.0,0,240,11.0,64.0
490,60.0,0,240,12.0,64.0
491,55.0,0,240,13.0,64.0
492,67.0,235,240,11.0,64.0
493,75.0,0,240,11.0,64.0
494,62.0,0,240,12.0,64.0
495,56.0,0,240,13.0,64.0
496,74.0,245,240,11.0,64.0
497,65.0,0,240,11.0,64.0
498,72.0,0,240,11.0,64.0
499,63.0,120,240,12.0,64.0
500,71.0,5,240,11.0,64.0
501,62.0,0,240,11.0,64.0
502,65.0,0,240,12.0,64.0
503,55.0,235,15,13.0,64.0
504,36.0,0,840,15.0,64.0
505,36.0,0,840,14.0,64.0
506,63.0,0,390,11.0,64.0
507,67.0,80,390,12.0,64.0
508,72.0,0,390,11.0,64.0
509,48.0,40,120,13.0,64.0
510,50.0,235,120,13.0,64.0
511,51.0,125,240,13.0,64.0
512,60.0,0,120,12.0,64.0
513,51.0,120,120,13.0,64.0
514,53.0,0,120,13.0,64.0
515,62.0,235,120,12.0,64.0
516,55.0,0,240,13.0,64.0
517,36.0,80,390,15.0,64.0
518,63.0,125,240,12.0,64.0
519,48.0,0,390,14.0,64.0
520,67.0,0,120,11.0,64.0
521,63.0,40,120,12.0,64.0
522,60.0,0,240,13.0,64.0
523,69.0,235,120,11.0,64.0
524,65.0,0,120,12.0,64.0
525,62.0,125,240,13.0,64.0
526,55.0,0,840,14.0,64.0
527,43.0,120,840,15.0,64.0
528,67.0,125,1200,12.0,64.0
529,71.0,0,240,11.0,64.0
530,71.0,0,120,11.0,64.0
531,55.0,120,120,13.0,64.0
532,72.0,235,120,11.0,64.0
533,57.0,0,120,13.0,64.0
534,59.0,125,240,13.0,64.0
535,74.0,0,240,11.0,64.0
536,72.0,0,120,11.0,64.0
537,57.0,0,120,13.0,64.0
538,59.0,235,120,13.0,64.0
539,74.0,0,120,11.0,64.0
540,51.0,80,390,14.0,64.0
541,39.0,0,390,15.0,64.0
542,60.0,125,720,13.0,64.0
543,75.0,125,1200,11.0,64.0
544,65.0,40,120,12.0,64.0
545,67.0,235,120,12.0,64.0
546,41.0,0,840,15.0,64.0
547,53.0,115,840,14.0,64.0
548,68.0,125,1200,12.0,64.0
549,62.0,120,120,13.0,64.0
550,63.0,235,120,13.0,64.0
551,65.0,0,240,13.0,64.0
552,65.0,0,120,13.0,64.0
553,74.0,0,120,11.0,64.0
554,63.0,240,120,13.0,64.0
555,72.0,0,120,11.0,64.0
556,43.0,80,390,15.0,64.0
557,55.0,0,390,14.0,64.0
558,62.0,0,390,13.0,64.0
559,71.0,0,390,11.0,64.0
560,67.0,40,120,12.0,64.0
561,65.0,360,120,12.0,64.0
562,44.0,0,840,15.0,64.0
563,63.0,75,630,12.0,64.0
564,56.0,0,840,14.0,64.0
565,60.0,80,390,13.0,64.0
566,72.0,40,120,11.0,64.0
567,74.0,160,120,11.0,64.0
568,75.0,125,240,11.0,64.0
569,62.0,0,120,12.0,64.0
570,77.0,115,120,11.0,64.0
571,63.0,5,120,12.0,64.0
572,79.0,235,120,11.0,64.0
573,80.0,5,240,11.0,64.0
574,65.0,120,240,12.0,64.0
575,53.0,0,390,14.0,64.0
576,41.0,80,390,15.0,64.0
577,65.0,40,120,13.0,64.0
578,74.0,0,120,11.0,64.0
579,68.0,0,240,12.0,64.0
580,72.0,235,120,11.0,64.0
581,63.0,0,120,13.0,64.0
582,67.0,0,240,12.0,64.0
583,62.0,125,240,13.0,64.0
584,43.0,0,840,15.0,64.0
585,71.0,80,390,11.0,64.0
586,55.0,115,840,14.0,64.0
587,67.0,40,120,12.0,64.0
588,59.0,0,120,13.0,64.0
589,60.0,235,120,13.0,64.0
590,69.0,0,120,12.0,64.0
591,62.0,0,240,13.0,64.0
592,71.0,125,240,12.0,64.0
593,71.0,0,120,12.0,64.0
594,79.0,0,120,11.0,64.0
595,62.0,0,120,13.0,64.0
596,72.0,5,120,12.0,64.0
597,81.0,235,120,11.0,64.0
598,63.0,0,120,13.0,64.0
599,50.0,80,390,14.0,64.0
600,65.0,0,390,13.0,64.0
601,83.0,125,240,11.0,64.0
602,38.0,0,390,15.0,64.0
603,74.0,235,480,12.0,64.0
604,81.0,40,120,11.0,64.0
605,83.0,0,120,11.0,64.0
606,39.0,120,840,15.0,64.0
607,51.0,0,840,14.0,64.0
608,84.0,0,240,11.0,64.0
609,72.0,125,240,12.0,64.0
610,67.0,80,390,13.0,64.0
611,79.0,0,120,11.0,64.0
612,75.0,40,120,12.0,64.0
613,77.0,0,120,11.0,64.0
614,74.0,235,120,12.0,64.0
615,75.0,125,240,12.0,64.0
616,79.0,0,240,11.0,64.0
617,67.0,0,120,13.0,64.0
618,75.0,235,240,11.0,64.0
619,72.0,0,240,12.0,64.0
620,65.0,0,120,13.0,64.0
621,67.0,80,870,12.0,64.0
622,35.0,80,390,15.0,64.0
623,74.0,0,240,11.0,64.0
624,47.0,0,390,14.0,64.0
625,67.0,125,240,13.0,64.0
626,72.0,40,120,11.0,64.0
627,55.0,0,240,13.0,64.0
628,74.0,235,120,11.0,64.0
629,48.0,0,840,14.0,64.0
630,36.0,115,840,15.0,64.0
631,75.0,125,240,11.0,64.0
632,60.0,0,240,13.0,64.0
633,63.0,0,120,13.0,64.0
634,72.0,40,120,11.0,64.0
635,62.0,235,120,13.0,64.0
636,71.0,0,120,11.0,64.0
637,72.0,0,240,11.0,64.0
638,63.0,125,240,13.0,64.0
639,63.0,0,120,12.0,64.0
640,60.0,0,120,13.0,64.0
641,67.0,5,240,11.0,64.0
642,62.0,0,120,12.0,64.0
643,59.0,235,120,13.0,64.0
644,41.0,0,390,15.0,64.0
645,41.0,75,390,14.0,64.0
646,68.0,120,240,11.0,64.0
647,63.0,0,240,12.0,64.0
648,60.0,5,240,13.0,64.0
649,80.0,5,240,11.0,64.0
650,51.0,40,120,13.0,64.0
651,60.0,0,120,12.0,64.0
652,50.0,0,120,13.0,64.0
653,59.0,235,120,12.0,64.0
654,51.0,80,390,13.0,64.0
655,60.0,125,240,12.0,64.0
656,43.0,0,1320,14.0,64.0
657,43.0,0,1320,15.0,64.0
658,79.0,0,240,11.0,64.0
659,63.0,0,120,12.0,64.0
660,72.0,40,120,11.0,64.0
661,62.0,235,120,12.0,64.0
662,71.0,0,120,11.0,64.0
663,63.0,125,240,12.0,64.0
664,72.0,0,240,11.0,64.0
665,63.0,0,120,11.0,64.0
666,55.0,115,120,13.0,64.0
667,60.0,0,480,12.0,64.0
668,53.0,30,120,13.0,64.0
669,62.0,5,120,11.0,64.0
670,55.0,5,240,13.0,64.0
671,62.0,30,30,11.0,64.0
672,63.0,30,30,11.0,64.0
673,62.0,30,30,11.0,64.0
674,63.0,30,30,11.0,64.0
675,62.0,30,30,11.0,64.0
676,63.0,30,30,11.0,64.0
677,62.0,25,30,11.0,64.0
678,63.0,30,30,11.0,64.0
679,59.0,0,240,12.0,64.0
680,62.0,30,30,11.0,64.0
681,50.0,235,240,13.0,64.0
682,63.0,30,30,11.0,64.0
683,62.0,30,30,11.0,64.0
684,63.0,120,30,11.0,64.0
685,62.0,0,120,11.0,64.0
686,36.0,0,840,15.0,64.0
687,55.0,75,390,12.0,64.0
688,51.0,0,390,13.0,64.0
689,72.0,120,240,0.0,64.0
690,60.0,5,240,11.0,64.0
691,36.0,0,840,14.0,64.0
692,79.0,0,120,11.0,64.0
693,79.0,0,120,0.0,64.0
694,79.0,40,120,2.0,64.0
695,67.0,5,120,11.0,64.0
696,67.0,235,120,2.0,64.0
697,67.0,0,120,0.0,64.0
698,84.0,120,240,0.0,64.0
699,72.0,5,240,0.0,64.0
700,72.0,0,240,11.0,64.0
701,72.0,0,240,2.0,64.0
702,67.0,0,120,13.0,64.0
703,67.0,0,120,4.0,64.0
704,74.0,115,120,11.0,64.0
705,86.0,0,120,0.0,64.0
706,74.0,0,120,0.0,64.0
707,74.0,0,120,2.0,64.0
708,67.0,0,120,3.0,64.0
709,55.0,0,120,3.0,64.0
710,55.0,0,120,4.0,64.0
711,87.0,0,120,0.0,64.0
712,75.0,0,120,0.0,64.0
713,75.0,0,120,2.0,64.0
714,75.0,365,120,11.0,64.0
715,55.0,0,120,13.0,64.0
716,75.0,75,390,11.0,64.0
717,75.0,0,480,2.0,64.0
718,87.0,235,480,0.0,64.0
719,60.0,0,390,13.0,64.0
720,60.0,0,480,3.0,64.0
721,75.0,0,480,0.0,64.0
722,60.0,0,480,4.0,64.0
723,67.0,0,120,12.0,64.0
724,67.0,0,120,2.0,64.0
725,67.0,0,120,3.0,64.0
726,48.0,0,120,15.0,64.0
727,60.0,40,120,14.0,64.0
728,36.0,0,120,15.0,64.0
729,66.0,0,120,3.0,64.0
730,66.0,0,120,12.0,64.0
731,48.0,5,120,14.0,64.0
732,66.0,0,120,2.0,64.0
733,43.0,0,390,15.0,64.0
734,67.0,125,240,2.0,64.0
735,67.0,0,240,12.0,64.0
736,55.0,0,390,14.0,64.0
737,86.0,0,390,0.0,64.0
738,59.0,75,390,3.0,64.0
739,67.0,0,240,3.0,64.0
740,59.0,0,390,4.0,64.0
741,59.0,0,390,13.0,64.0
742,74.0,0,390,0.0,64.0
743,74.0,0,390,11.0,64.0
744,74.0,40,120,12.0,64.0
745,74.0,0,120,3.0,64.0
746,74.0,0,120,2.0,64.0
747,62.0,5,120,12.0,64.0
748,62.0,0,120,3.0,64.0
749,62.0,360,120,2.0,64.0
750,67.0,0,390,12.0,64.0
751,67.0,0,390,3.0,64.0
752,67.0,75,390,2.0,64.0
753,74.0,0,120,2.0,64.0
754,74.0,0,120,0.0,64.0
755,59.0,0,120,13.0,64.0
756,74.0,0,120,11.0,64.0
757,59.0,0,120,3.0,64.0
758,86.0,40,120,0.0,64.0
759,59.0,0,120,4.0,64.0
760,55.0,0,120,4.0,64.0
761,55.0,365,120,3.0,64.0
762,71.0,0,120,2.0,64.0
763,71.0,0,120,0.0,64.0
764,55.0,0,120,13.0,64.0
765,83.0,0,120,0.0,64.0
766,71.0,0,120,11.0,64.0
767,75.0,0,720,11.0,64.0
768,60.0,0,870,4.0,64.0
769,87.0,125,720,0.0,64.0
770,60.0,0,870,13.0,64.0
771,75.0,0,720,0.0,64.0
772,60.0,75,870,3.0,64.0
773,75.0,0,720,2.0,64.0
774,67.0,0,120,2.0,64.0
775,67.0,0,120,3.0,64.0
776,51.0,0,120,14.0,64.0
777,39.0,115,120,15.0,64.0
778,67.0,0,120,12.0,64.0
779,36.0,0,120,15.0,64.0
780,48.0,0,120,14.0,64.0
781,63.0,5,120,12.0,64.0
782,63.0,0,120,2.0,64.0
783,63.0,235,120,3.0,64.0
784,68.0,80,630,2.0,64.0
785,68.0,0,630,3.0,64.0
786,68.0,120,720,12.0,64.0
787,53.0,0,390,14.0,64.0
788,41.0,0,390,15.0,64.0
789,75.0,0,120,0.0,64.0
790,87.0,0,120,0.0,64.0
791,75.0,0,120,11.0,64.0
792,75.0,40,120,2.0,64.0
793,72.0,0,120,2.0,64.0
794,84.0,0,120,0.0,64.0
795,72.0,0,120,11.0,64.0
796,72.0,165,120,0.0,64.0
797,77.0,0,720,11.0,64.0
798,77.0,125,720,0.0,64.0
799,77.0,0,720,2.0,64.0
800,89.0,0,720,0.0,64.0
801,62.0,0,120,13.0,64.0
802,62.0,115,120,3.0,64.0
803,65.0,0,240,3.0,64.0
804,65.0,235,240,2.0,64.0
805,65.0,0,240,12.0,64.0
806,62.0,0,120,4.0,64.0
807,57.0,0,120,13.0,64.0
808,57.0,0,120,4.0,64.0
809,57.0,5,120,3.0,64.0
810,59.0,75,390,13.0,64.0
811,67.0,0,390,12.0,64.0
812,67.0,0,480,3.0,64.0
813,59.0,235,480,4.0,64.0
814,59.0,0,480,3.0,64.0
815,67.0,0,480,2.0,64.0
816,55.0,0,120,14.0,64.0
817,75.0,0,120,2.0,64.0
818,75.0,0,120,0.0,64.0
819,75.0,0,120,11.0,64.0
820,87.0,40,120,0.0,64.0
821,43.0,0,120,15.0,64.0
822,51.0,5,120,14.0,64.0
823,79.0,0,120,2.0,64.0
824,79.0,0,120,11.0,64.0
825,39.0,0,120,15.0,64.0
826,91.0,0,120,0.0,64.0
827,79.0,0,120,0.0,64.0
828,44.0,0,390,15.0,64.0
829,56.0,0,390,14.0,64.0
830,63.0,0,390,12.0,64.0
831,72.0,0,240,0.0,64.0
832,72.0,125,240,2.0,64.0
833,84.0,0,240,0.0,64.0
834,63.0,0,390,2.0,64.0
835,60.0,80,390,13.0,64.0
836,72.0,0,240,11.0,64.0
837,63.0,0,390,3.0,64.0
838,60.0,0,390,4.0,64.0
839,60.0,0,390,3.0,64.0
840,84.0,40,120,2.0,64.0
841,84.0,0,120,0.0,64.0
842,84.0,0,120,11.0,64.0
843,72.0,0,120,11.0,64.0
844,72.0,0,120,0.0,64.0
845,72.0,235,120,2.0,64.0
846,77.0,0,240,11.0,64.0
847,77.0,0,240,2.0,64.0
848,77.0,0,240,0.0,64.0
849,79.0,0,120,0.0,64.0
850,79.0,0,120,11.0,64.0
851,79.0,0,120,2.0,64.0
852,60.0,0,240,4.0,64.0
853,72.0,0,120,13.0,64.0
854,72.0,115,120,3.0,64.0
855,80.0,0,120,2.0,64.0
856,80.0,0,120,11.0,64.0
857,80.0,0,120,0.0,64.0
858,60.0,5,120,3.0,64.0
859,60.0,0,120,13.0,64.0
860,82.0,30,30,11.0,64.0
861,82.0,0,30,2.0,64.0
862,65.0,0,480,3.0,64.0
863,65.0,75,390,13.0,64.0
864,65.0,0,480,4.0,64.0
865,82.0,0,30,0.0,64.0
866,80.0,0,30,11.0,64.0
867,80.0,0,30,0.0,64.0
868,80.0,30,30,2.0,64.0
869,82.0,0,30,0.0,64.0
870,82.0,0,30,11.0,64.0
871,82.0,30,30,2.0,64.0
872,80.0,30,30,11.0,64.0
873,80.0,0,30,0.0,64.0
874,80.0,0,30,2.0,64.0
875,82.0,0,30,2.0,64.0
876,82.0,0,30,11.0,64.0
877,82.0,0,30,0.0,64.0
878,80.0,0,30,2.0,64.0
879,80.0,0,30,11.0,64.0
880,80.0,0,30,0.0,64.0
881,82.0,0,30,2.0,64.0
882,82.0,30,30,11.0,64.0
883,82.0,0,30,0.0,64.0
884,80.0,120,30,2.0,64.0
885,80.0,0,30,0.0,64.0
886,80.0,0,30,11.0,64.0
887,74.0,0,120,12.0,64.0
888,74.0,0,120,2.0,64.0
889,79.0,0,120,0.0,64.0
890,79.0,0,120,11.0,64.0
891,53.0,0,120,14.0,64.0
892,79.0,40,120,2.0,64.0
893,74.0,0,120,3.0,64.0
894,41.0,0,120,15.0,64.0
895,77.0,235,120,3.0,64.0
896,77.0,0,120,12.0,64.0
897,80.0,0,120,2.0,64.0
898,77.0,0,120,2.0,64.0
899,80.0,0,120,0.0,64.0
900,50.0,5,120,14.0,64.0
901,80.0,0,120,11.0,64.0
902,38.0,0,120,15.0,64.0
903,62.0,0,390,3.0,64.0
904,62.0,0,390,4.0,64.0
905,43.0,0,390,15.0,64.0
906,71.0,75,390,3.0,64.0
907,71.0,0,390,12.0,64.0
908,55.0,0,390,14.0,64.0
909,79.0,0,240,0.0,64.0
910,71.0,0,390,2.0,64.0
911,62.0,0,390,13.0,64.0
912,79.0,0,240,11.0,64.0
913,79.0,0,240,2.0,64.0
914,74.0,0,120,2.0,64.0
915,74.0,0,120,0.0,64.0
916,74.0,40,120,11.0,64.0
917,62.0,0,120,0.0,64.0
918,62.0,235,120,11.0,64.0
919,62.0,0,120,2.0,64.0
920,67.0,0,240,2.0,64.0
921,67.0,0,240,0.0,64.0
922,67.0,5,240,11.0,64.0
923,79.0,120,240,0.0,64.0
924,62.0,0,120,13.0,64.0
925,62.0,0,120,4.0,64.0
926,69.0,0,120,11.0,64.0
927,62.0,0,120,3.0,64.0
928,69.0,0,120,0.0,64.0
929,81.0,115,120,0.0,64.0
930,69.0,0,120,2.0,64.0
931,50.0,5,120,3.0,64.0
932,50.0,0,120,13.0,64.0
933,71.0,0,120,0.0,64.0
934,71.0,0,120,11.0,64.0
935,50.0,0,120,4.0,64.0
936,83.0,30,120,0.0,64.0
937,71.0,0,120,2.0,64.0
938,71.0,0,30,2.0,64.0
939,71.0,0,30,0.0,64.0
940,55.0,0,240,4.0,64.0
941,83.0,0,30,0.0,64.0
942,55.0,0,240,3.0,64.0
943,55.0,0,240,13.0,64.0
944,71.0,30,30,11.0,64.0
945,72.0,30,30,2.0,64.0
946,72.0,0,30,0.0,64.0
947,72.0,0,30,11.0,64.0
948,84.0,0,30,0.0,64.0
949,71.0,30,30,11.0,64.0
950,71.0,0,30,0.0,64.0
951,83.0,0,30,0.0,64.0
952,71.0,0,30,2.0,64.0
953,72.0,30,30,0.0,64.0
954,84.0,0,30,0.0,64.0
955,72.0,0,30,2.0,64.0
956,72.0,0,30,11.0,64.0
957,83.0,0,30,0.0,64.0
958,71.0,0,30,11.0,64.0
959,71.0,30,30,2.0,64.0
960,71.0,0,30,0.0,64.0
961,72.0,0,30,11.0,64.0
962,72.0,30,30,2.0,64.0
963,84.0,0,30,0.0,64.0
964,72.0,0,30,0.0,64.0
965,71.0,0,30,11.0,64.0
966,83.0,0,30,0.0,64.0
967,71.0,0,30,2.0,64.0
968,71.0,30,30,0.0,64.0
969,84.0,0,30,0.0,64.0
970,72.0,0,30,0.0,64.0
971,72.0,30,30,11.0,64.0
972,72.0,0,30,2.0,64.0
973,55.0,30,120,14.0,64.0
974,62.0,235,240,4.0,64.0
975,67.0,0,120,12.0,64.0
976,67.0,0,120,3.0,64.0
977,62.0,0,240,3.0,64.0
978,83.0,0,30,0.0,64.0
979,71.0,0,30,2.0,64.0
980,71.0,0,30,11.0,64.0
981,67.0,0,120,2.0,64.0
982,62.0,0,240,13.0,64.0
983,71.0,30,30,0.0,64.0
984,43.0,0,120,15.0,64.0
985,72.0,30,30,11.0,64.0
986,72.0,0,30,2.0,64.0
987,84.0,0,30,0.0,64.0
988,72.0,0,30,0.0,64.0
989,71.0,30,30,0.0,64.0
990,71.0,0,30,2.0,64.0
991,83.0,0,30,0.0,64.0
992,71.0,0,30,11.0,64.0
993,72.0,0,30,2.0,64.0
994,84.0,0,30,0.0,64.0
995,72.0,0,30,11.0,64.0
996,72.0,0,30,0.0,64.0
997,83.0,0,30,0.0,64.0
998,71.0,0,30,2.0,64.0
999,65.0,0,120,12.0,64.0
1000,71.0,30,30,11.0,64.0
1001,38.0,5,120,15.0,64.0
1002,71.0,0,30,0.0,64.0
1003,65.0,0,120,3.0,64.0
1004,65.0,0,120,2.0,64.0
1005,50.0,0,120,14.0,64.0
1006,84.0,0,30,0.0,64.0
1007,72.0,30,30,0.0,64.0
1008,72.0,0,30,2.0,64.0
1009,72.0,0,30,11.0,64.0
1010,69.0,0,30,0.0,64.0
1011,81.0,0,30,0.0,64.0
1012,69.0,0,30,11.0,64.0
1013,69.0,25,30,2.0,64.0
1014,83.0,0,30,0.0,64.0
1015,71.0,0,30,0.0,64.0
1016,71.0,0,30,2.0,64.0
1017,71.0,0,30,11.0,64.0
1018,67.0,0,390,3.0,64.0
1019,39.0,0,390,15.0,64.0
1020,67.0,0,390,12.0,64.0
1021,72.0,0,240,0.0,64.0
1022,72.0,0,240,11.0,64.0
1023,51.0,0,390,14.0,64.0
1024,60.0,0,390,13.0,64.0
1025,60.0,80,390,3.0,64.0
1026,84.0,125,240,0.0,64.0
1027,60.0,0,390,4.0,64.0
1028,72.0,0,240,2.0,64.0
1029,91.0,40,120,0.0,64.0
1030,79.0,0,120,2.0,64.0
1031,79.0,0,120,11.0,64.0
1032,67.0,0,30,2.0,64.0
1033,67.0,235,120,11.0,64.0
1034,79.0,0,15,0.0,64.0
1035,67.0,0,120,0.0,64.0
1036,72.0,0,240,2.0,64.0
1037,84.0,0,240,0.0,64.0
1038,72.0,125,240,11.0,64.0
1039,72.0,0,240,0.0,64.0
1040,74.0,235,240,0.0,64.0
1041,74.0,5,240,2.0,64.0
1042,67.0,115,120,3.0,64.0
1043,67.0,0,120,13.0,64.0
1044,67.0,0,120,4.0,64.0
1045,86.0,0,240,0.0,64.0
1046,74.0,0,240,11.0,64.0
1047,55.0,0,120,13.0,64.0
1048,55.0,0,120,4.0,64.0
1049,55.0,0,120,3.0,64.0
1050,60.0,0,240,13.0,64.0
1051,60.0,0,240,3.0,64.0
1052,60.0,0,240,4.0,64.0
1053,75.0,125,240,0.0,64.0
1054,75.0,0,240,2.0,64.0
1055,87.0,0,240,0.0,64.0
1056,75.0,0,240,11.0,64.0
1057,86.0,0,120,0.0,64.0
1058,43.0,0,120,15.0,64.0
1059,55.0,0,120,14.0,64.0
1060,74.0,0,120,11.0,64.0
1061,74.0,0,120,2.0,64.0
1062,67.0,0,630,2.0,64.0
1063,67.0,0,630,3.0,64.0
1064,59.0,0,120,4.0,64.0
1065,59.0,0,120,3.0,64.0
1066,59.0,115,120,13.0,64.0
1067,74.0,0,120,0.0,64.0
1068,67.0,0,240,12.0,64.0
1069,89.0,235,120,0.0,64.0
1070,77.0,0,120,2.0,64.0
1071,35.0,5,120,15.0,64.0
1072,62.0,0,120,4.0,64.0
1073,77.0,0,120,11.0,64.0
1074,62.0,0,120,3.0,64.0
1075,77.0,0,120,0.0,64.0
1076,62.0,0,120,13.0,64.0
1077,47.0,0,120,14.0,64.0
1078,36.0,80,390,15.0,64.0
1079,48.0,0,390,14.0,64.0
1080,67.0,0,390,12.0,64.0
1081,75.0,125,240,11.0,64.0
1082,60.0,0,390,13.0,64.0
1083,75.0,0,240,2.0,64.0
1084,60.0,0,390,3.0,64.0
1085,75.0,0,240,0.0,64.0
1086,60.0,0,390,4.0,64.0
1087,87.0,0,240,0.0,64.0
1088,84.0,40,120,11.0,64.0
1089,84.0,0,120,0.0,64.0
1090,84.0,0,120,2.0,64.0
1091,72.0,0,120,0.0,64.0
1092,72.0,0,120,2.0,64.0
1093,72.0,235,120,11.0,64.0
1094,77.0,120,240,0.0,64.0
1095,77.0,5,240,11.0,64.0
1096,89.0,0,240,0.0,64.0
1097,77.0,0,240,2.0,64.0
1098,91.0,0,240,0.0,64.0
1099,72.0,0,120,3.0,64.0
1100,79.0,0,240,2.0,64.0
1101,79.0,0,240,11.0,64.0
1102,79.0,0,240,0.0,64.0
1103,60.0,0,240,4.0,64.0
1104,72.0,115,120,13.0,64.0
1105,60.0,235,120,3.0,64.0
1106,60.0,5,120,13.0,64.0
1107,80.0,0,240,2.0,64.0
1108,92.0,0,240,0.0,64.0
1109,65.0,0,360,3.0,64.0
1110,65.0,0,360,13.0,64.0
1111,65.0,0,360,4.0,64.0
1112,80.0,125,240,0.0,64.0
1113,80.0,0,240,11.0,64.0
1114,41.0,75,390,15.0,64.0
1115,74.0,0,120,12.0,64.0
1116,77.0,0,480,0.0,64.0
1117,77.0,0,480,11.0,64.0
1118,74.0,0,120,3.0,64.0
1119,74.0,40,120,2.0,64.0
1120,77.0,125,480,2.0,64.0
1121,89.0,0,480,0.0,64.0
1122,53.0,0,120,14.0,64.0
1123,69.0,0,120,12.0,64.0
1124,63.0,5,120,13.0,64.0
1125,63.0,235,120,4.0,64.0
1126,69.0,0,120,3.0,64.0
1127,63.0,0,120,3.0,64.0
1128,41.0,0,120,14.0,64.0
1129,69.0,0,120,2.0,64.0
1130,71.0,0,390,2.0,64.0
1131,71.0,0,390,3.0,64.0
1132,62.0,0,390,3.0,64.0
1133,43.0,0,1320,14.0,64.0
1134,62.0,80,390,13.0,64.0
1135,71.0,0,390,12.0,64.0
1136,62.0,0,390,4.0,64.0
1137,43.0,0,1320,15.0,64.0
1138,91.0,0,120,0.0,64.0
1139,79.0,0,120,0.0,64.0
1140,79.0,0,120,2.0,64.0
1141,79.0,40,120,11.0,64.0
1142,74.0,360,120,0.0,64.0
1143,74.0,0,120,11.0,64.0
1144,86.0,0,120,0.0,64.0
1145,74.0,0,120,2.0,64.0
1146,87.0,0,360,0.0,64.0
1147,75.0,115,360,2.0,64.0
1148,75.0,0,360,0.0,64.0
1149,75.0,0,360,11.0,64.0
1150,72.0,0,120,2.0,64.0
1151,72.0,0,120,12.0,64.0
1152,72.0,0,120,3.0,64.0
1153,89.0,0,120,0.0,64.0
1154,77.0,0,120,11.0,64.0
1155,69.0,0,120,3.0,64.0
1156,69.0,5,120,12.0,64.0
1157,77.0,0,120,0.0,64.0
1158,77.0,0,120,2.0,64.0
1159,69.0,30,120,2.0,64.0
1160,74.0,30,30,0.0,64.0
1161,86.0,0,30,0.0,64.0
1162,71.0,0,480,3.0,64.0
1163,71.0,115,480,2.0,64.0
1164,71.0,20,390,12.0,64.0
1165,74.0,0,30,2.0,64.0
1166,74.0,30,60,11.0,64.0
1167,75.0,0,30,0.0,64.0
1168,87.0,0,30,0.0,64.0
1169,75.0,0,30,2.0,64.0
1170,74.0,0,30,0.0,64.0
1171,75.0,0,60,11.0,64.0
1172,74.0,30,30,2.0,64.0
1173,86.0,0,30,0.0,64.0
1174,87.0,0,30,0.0,64.0
1175,75.0,0,30,0.0,64.0
1176,75.0,30,30,2.0,64.0
1177,74.0,0,30,0.0,64.0
1178,74.0,0,60,11.0,64.0
1179,74.0,0,30,2.0,64.0
1180,86.0,30,30,0.0,64.0
1181,87.0,0,30,0.0,64.0
1182,75.0,30,30,0.0,64.0
1183,75.0,0,30,2.0,64.0
1184,86.0,0,30,0.0,64.0
1185,75.0,0,60,11.0,64.0
1186,74.0,0,30,0.0,64.0
1187,74.0,30,30,2.0,64.0
1188,75.0,30,30,0.0,64.0
1189,87.0,0,30,0.0,64.0
1190,75.0,0,30,2.0,64.0
1191,74.0,0,120,11.0,64.0
1192,74.0,0,30,2.0,64.0
1193,86.0,0,30,0.0,64.0
1194,67.0,0,120,13.0,64.0
1195,67.0,0,120,4.0,64.0
1196,67.0,0,120,3.0,64.0
1197,74.0,30,30,0.0,64.0
1198,75.0,30,30,2.0,64.0
1199,75.0,0,30,0.0,64.0
1200,87.0,0,30,0.0,64.0
1201,74.0,30,30,0.0,64.0
1202,86.0,0,30,0.0,64.0
1203,74.0,0,30,2.0,64.0
1204,75.0,0,30,2.0,64.0
1205,75.0,0,30,0.0,64.0
1206,87.0,30,30,0.0,64.0
1207,74.0,0,30,2.0,64.0
1208,62.0,0,120,13.0,64.0
1209,86.0,10,30,0.0,64.0
1210,75.0,0,120,11.0,64.0
1211,62.0,0,120,3.0,64.0
1212,74.0,0,30,0.0,64.0
1213,62.0,0,120,4.0,64.0
1214,75.0,0,30,2.0,64.0
1215,75.0,30,30,0.0,64.0
1216,87.0,0,30,0.0,64.0
1217,74.0,0,30,0.0,64.0
1218,74.0,30,30,2.0,64.0
1219,86.0,0,30,0.0,64.0
1220,75.0,0,30,0.0,64.0
1221,75.0,0,30,2.0,64.0
1222,87.0,0,30,0.0,64.0
1223,84.0,0,390,0.0,64.0
1224,36.0,0,840,14.0,64.0
1225,72.0,0,390,3.0,64.0
1226,63.0,0,120,4.0,64.0
1227,63.0,0,120,13.0,64.0
1228,72.0,0,390,2.0,64.0
1229,67.0,0,390,12.0,64.0
1230,72.0,0,390,0.0,64.0
1231,36.0,115,840,15.0,64.0
1232,72.0,0,390,11.0,64.0
1233,63.0,125,120,3.0,64.0
1234,55.0,0,120,13.0,64.0
1235,55.0,0,120,3.0,64.0
1236,55.0,120,120,4.0,64.0
1237,57.0,0,120,13.0,64.0
1238,57.0,40,120,4.0,64.0
1239,57.0,0,120,3.0,64.0
1240,59.0,5,120,13.0,64.0
1241,59.0,240,120,3.0,64.0
1242,59.0,0,120,4.0,64.0
1243,60.0,0,360,4.0,64.0
1244,60.0,0,360,3.0,64.0
1245,60.0,0,360,13.0,64.0
1246,62.0,0,120,3.0,64.0
1247,62.0,120,120,2.0,64.0
1248,62.0,0,120,12.0,64.0
1249,63.0,0,120,12.0,64.0
1250,63.0,0,120,2.0,64.0
1251,63.0,0,120,3.0,64.0
1252,62.0,240,120,3.0,64.0
1253,65.0,5,120,12.0,64.0
1254,62.0,0,120,13.0,64.0
1255,65.0,0,120,2.0,64.0
1256,62.0,0,120,4.0,64.0
1257,65.0,0,120,3.0,64.0
1258,67.0,0,870,2.0,64.0
1259,36.0,0,390,8.0,64.0
1260,36.0,0,390,15.0,64.0
1261,63.0,0,390,3.0,64.0
1262,67.0,0,870,12.0,64.0
1263,67.0,0,870,3.0,64.0
1264,48.0,0,390,14.0,64.0
1265,63.0,0,390,13.0,64.0
1266,48.0,75,390,5.0,64.0
1267,60.0,0,390,5.0,64.0
1268,63.0,0,390,4.0,64.0
1269,69.0,120,120,0.0,64.0
1270,81.0,0,120,0.0,64.0
1271,69.0,0,120,2.0,64.0
1272,69.0,0,120,11.0,64.0
1273,71.0,0,120,2.0,64.0
1274,83.0,0,120,0.0,64.0
1275,71.0,0,120,11.0,64.0
1276,71.0,40,120,0.0,64.0
1277,72.0,5,120,11.0,64.0
1278,84.0,240,120,0.0,64.0
1279,72.0,0,120,0.0,64.0
1280,72.0,0,120,2.0,64.0
1281,71.0,75,390,11.0,64.0
1282,71.0,0,390,2.0,64.0
1283,43.0,0,840,15.0,64.0
1284,43.0,0,840,8.0,64.0
1285,71.0,0,390,0.0,64.0
1286,55.0,115,840,5.0,64.0
1287,83.0,0,390,0.0,64.0
1288,55.0,0,840,14.0,64.0
1289,67.0,0,840,5.0,64.0
1290,62.0,0,120,13.0,64.0
1291,62.0,120,120,4.0,64.0
1292,62.0,0,120,3.0,64.0
1293,63.0,40,120,13.0,64.0
1294,63.0,0,120,3.0,64.0
1295,63.0,0,120,4.0,64.0
1296,65.0,5,120,13.0,64.0
1297,65.0,240,120,3.0,64.0
1298,65.0,0,120,4.0,64.0
1299,67.0,40,840,4.0,64.0
1300,67.0,0,870,13.0,64.0
1301,67.0,0,120,2.0,64.0
1302,67.0,0,120,12.0,64.0
1303,67.0,120,120,3.0,64.0
1304,69.0,0,120,12.0,64.0
1305,69.0,0,120,2.0,64.0
1306,69.0,0,120,3.0,64.0
1307,71.0,240,120,3.0,64.0
1308,71.0,0,120,2.0,64.0
1309,71.0,5,120,12.0,64.0
1310,51.0,0,390,5.0,64.0
1311,63.0,0,390,5.0,64.0
1312,72.0,75,870,12.0,64.0
1313,51.0,0,390,14.0,64.0
1314,39.0,75,390,15.0,64.0
1315,72.0,0,870,3.0,64.0
1316,72.0,0,870,2.0,64.0
1317,39.0,0,390,8.0,64.0
1318,75.0,0,120,11.0,64.0
1319,75.0,0,120,0.0,64.0
1320,75.0,0,120,2.0,64.0
1321,77.0,0,120,11.0,64.0
1322,77.0,0,120,0.0,64.0
1323,77.0,0,120,2.0,64.0
1324,79.0,5,120,11.0,64.0
1325,79.0,0,120,2.0,64.0
1326,79.0,0,120,0.0,64.0
1327,53.0,115,840,14.0,64.0
1328,41.0,0,840,8.0,64.0
1329,41.0,0,840,15.0,64.0
1330,65.0,0,840,5.0,64.0
1331,80.0,0,390,2.0,64.0
1332,80.0,0,390,11.0,64.0
1333,80.0,0,390,0.0,64.0
1334,53.0,0,840,5.0,64.0
1335,60.0,0,120,4.0,64.0
1336,60.0,120,120,3.0,64.0
1337,60.0,0,120,13.0,64.0
1338,62.0,0,120,13.0,64.0
1339,62.0,0,120,4.0,64.0
1340,62.0,40,120,3.0,64.0
1341,63.0,5,120,13.0,64.0
1342,63.0,0,120,4.0,64.0
1343,63.0,240,120,3.0,64.0
1344,65.0,0,360,4.0,64.0
1345,65.0,0,360,13.0,64.0
1346,65.0,0,360,3.0,64.0
1347,69.0,0,120,2.0,64.0
1348,69.0,120,120,3.0,64.0
1349,69.0,0,120,12.0,64.0
1350,71.0,0,120,2.0,64.0
1351,71.0,0,120,3.0,64.0
1352,71.0,0,120,12.0,64.0
1353,72.0,0,120,2.0,64.0
1354,63.0,5,120,13.0,64.0
1355,63.0,0,120,4.0,64.0
1356,63.0,235,120,3.0,64.0
1357,72.0,0,120,3.0,64.0
1358,72.0,0,120,12.0,64.0
1359,71.0,0,240,2.0,64.0
1360,43.0,75,390,8.0,64.0
1361,55.0,0,390,5.0,64.0
1362,67.0,0,390,5.0,64.0
1363,71.0,5,240,3.0,64.0
1364,62.0,0,240,4.0,64.0
1365,71.0,0,240,12.0,64.0
1366,43.0,0,390,15.0,64.0
1367,62.0,0,240,3.0,64.0
1368,55.0,0,390,14.0,64.0
1369,62.0,0,240,13.0,64.0
1370,79.0,0,120,11.0,64.0
1371,79.0,0,120,2.0,64.0
1372,79.0,0,120,0.0,64.0
1373,65.0,0,240,13.0,64.0
1374,67.0,0,630,3.0,64.0
1375,67.0,75,630,12.0,64.0
1376,81.0,40,120,2.0,64.0
1377,81.0,0,120,0.0,64.0
1378,81.0,0,120,11.0,64.0
1379,65.0,0,240,4.0,64.0
1380,67.0,0,630,2.0,64.0
1381,65.0,5,240,3.0,64.0
1382,83.0,115,120,2.0,64.0
1383,83.0,0,120,0.0,64.0
1384,83.0,0,120,11.0,64.0
1385,63.0,125,120,4.0,64.0
1386,84.0,0,390,2.0,64.0
1387,63.0,0,120,3.0,64.0
1388,56.0,0,840,5.0,64.0
1389,68.0,0,840,5.0,64.0
1390,84.0,0,390,0.0,64.0
1391,44.0,0,840,8.0,64.0
1392,44.0,0,840,15.0,64.0
1393,63.0,0,120,13.0,64.0
1394,84.0,0,390,11.0,64.0
1395,56.0,0,840,14.0,64.0
1396,60.0,120,120,3.0,64.0
1397,60.0,0,120,13.0,64.0
1398,60.0,0,120,4.0,64.0
1399,62.0,0,120,13.0,64.0
1400,62.0,0,120,4.0,64.0
1401,62.0,40,120,3.0,64.0
1402,63.0,5,120,13.0,64.0
1403,63.0,0,120,3.0,64.0
1404,63.0,240,120,4.0,64.0
1405,65.0,115,360,4.0,64.0
1406,65.0,0,360,3.0,64.0
1407,65.0,0,360,13.0,64.0
1408,67.0,0,120,12.0,64.0
1409,67.0,0,120,3.0,64.0
1410,67.0,120,120,2.0,64.0
1411,68.0,0,120,12.0,64.0
1412,68.0,0,120,3.0,64.0
1413,68.0,0,120,2.0,64.0
1414,70.0,0,120,3.0,64.0
1415,67.0,0,120,3.0,64.0
1416,67.0,0,120,4.0,64.0
1417,70.0,240,120,2.0,64.0
1418,70.0,5,120,12.0,64.0
1419,67.0,0,120,13.0,64.0
1420,68.0,0,240,3.0,64.0
1421,41.0,0,390,15.0,64.0
1422,53.0,0,390,5.0,64.0
1423,72.0,0,240,12.0,64.0
1424,65.0,0,390,5.0,64.0
1425,53.0,0,390,14.0,64.0
1426,41.0,75,390,8.0,64.0
1427,72.0,0,240,3.0,64.0
1428,72.0,0,240,2.0,64.0
1429,68.0,0,240,13.0,64.0
1430,68.0,0,240,4.0,64.0
1431,74.0,0,120,11.0,64.0
1432,74.0,0,120,0.0,64.0
1433,74.0,0,120,2.0,64.0
1434,65.0,0,240,4.0,64.0
1435,75.0,40,120,11.0,64.0
1436,68.0,0,240,12.0,64.0
1437,75.0,0,120,2.0,64.0
1438,65.0,0,240,13.0,64.0
1439,68.0,115,240,2.0,64.0
1440,75.0,0,120,0.0,64.0
1441,68.0,0,240,3.0,64.0
1442,65.0,0,240,3.0,64.0
1443,77.0,0,120,0.0,64.0
1444,77.0,0,120,2.0,64.0
1445,77.0,5,120,11.0,64.0
1446,43.0,0,840,8.0,64.0
1447,67.0,0,840,5.0,64.0
1448,71.0,0,390,2.0,64.0
1449,62.0,0,120,4.0,64.0
1450,71.0,0,390,11.0,64.0
1451,55.0,0,840,14.0,64.0
1452,67.0,75,390,3.0,64.0
1453,43.0,0,840,15.0,64.0
1454,67.0,0,390,2.0,64.0
1455,55.0,0,840,5.0,64.0
1456,71.0,0,390,0.0,64.0
1457,67.0,0,390,12.0,64.0
1458,62.0,0,120,13.0,64.0
1459,62.0,125,120,3.0,64.0
1460,62.0,0,120,3.0,64.0
1461,62.0,0,120,4.0,64.0
1462,50.0,120,120,13.0,64.0
1463,63.0,0,120,3.0,64.0
1464,51.0,0,120,13.0,64.0
1465,63.0,40,120,4.0,64.0
1466,53.0,5,120,13.0,64.0
1467,65.0,0,120,3.0,64.0
1468,65.0,0,120,4.0,64.0
1469,67.0,0,360,4.0,64.0
1470,67.0,5,360,3.0,64.0
1471,55.0,0,360,13.0,64.0
1472,57.0,0,120,3.0,64.0
1473,69.0,115,120,2.0,64.0
1474,57.0,0,120,12.0,64.0
1475,71.0,0,120,2.0,64.0
1476,59.0,115,120,12.0,64.0
1477,59.0,0,120,3.0,64.0
1478,72.0,0,120,2.0,64.0
1479,60.0,0,120,3.0,64.0
1480,57.0,0,120,4.0,64.0
1481,60.0,0,120,12.0,64.0
1482,57.0,5,120,13.0,64.0
1483,57.0,240,120,3.0,64.0
1484,62.0,240,480,3.0,64.0
1485,59.0,0,390,4.0,64.0
1486,62.0,75,390,5.0,64.0
1487,38.0,0,390,15.0,64.0
1488,74.0,0,480,2.0,64.0
1489,50.0,0,390,14.0,64.0
1490,59.0,0,390,3.0,64.0
1491,59.0,0,390,13.0,64.0
1492,50.0,0,390,5.0,64.0
1493,62.0,0,390,12.0,64.0
1494,38.0,0,390,8.0,64.0
1495,75.0,0,120,0.0,64.0
1496,63.0,0,120,2.0,64.0
1497,63.0,120,120,11.0,64.0
1498,63.0,0,120,0.0,64.0
1499,65.0,0,120,0.0,64.0
1500,65.0,0,120,11.0,64.0
1501,77.0,40,120,0.0,64.0
1502,65.0,0,120,2.0,64.0
1503,79.0,0,120,0.0,64.0
1504,67.0,0,120,0.0,64.0
1505,67.0,0,120,2.0,64.0
1506,67.0,5,120,11.0,64.0
1507,51.0,0,840,5.0,64.0
1508,63.0,0,390,2.0,64.0
1509,75.0,0,390,0.0,64.0
1510,63.0,0,390,11.0,64.0
1511,72.0,0,390,2.0,64.0
1512,60.0,0,390,12.0,64.0
1513,39.0,0,840,15.0,64.0
1514,51.0,40,840,14.0,64.0
1515,63.0,0,390,0.0,64.0
1516,60.0,75,390,3.0,64.0
1517,63.0,0,840,5.0,64.0
1518,39.0,0,840,8.0,64.0
1519,55.0,0,120,3.0,64.0
1520,55.0,0,120,13.0,64.0
1521,55.0,120,120,4.0,64.0
1522,57.0,0,120,3.0,64.0
1523,57.0,0,120,4.0,64.0
1524,57.0,40,120,13.0,64.0
1525,59.0,240,120,4.0,64.0
1526,59.0,0,120,3.0,64.0
1527,58.0,5,120,13.0,64.0
1528,60.0,0,480,3.0,64.0
1529,60.0,0,480,4.0,64.0
1530,60.0,75,390,13.0,64.0
1531,62.0,0,120,12.0,64.0
1532,74.0,0,120,2.0,64.0
1533,62.0,120,120,3.0,64.0
1534,63.0,0,120,3.0,64.0
1535,63.0,0,120,12.0,64.0
1536,75.0,0,120,2.0,64.0
1537,65.0,5,120,12.0,64.0
1538,65.0,240,120,3.0,64.0
1539,77.0,0,120,2.0,64.0
1540,59.0,0,390,5.0,64.0
1541,67.0,0,870,12.0,64.0
1542,62.0,75,390,13.0,64.0
1543,79.0,0,870,2.0,64.0
1544,35.0,0,390,8.0,64.0
1545,62.0,0,390,4.0,64.0
1546,35.0,0,390,15.0,64.0
1547,47.0,0,390,14.0,64.0
1548,62.0,0,390,3.0,64.0
1549,67.0,75,870,3.0,64.0
1550,47.0,0,390,5.0,64.0
1551,83.0,0,120,0.0,64.0
1552,71.0,120,120,0.0,64.0
1553,71.0,0,120,2.0,64.0
1554,71.0,0,120,11.0,64.0
1555,84.0,40,120,0.0,64.0
1556,72.0,0,120,11.0,64.0
1557,72.0,0,120,2.0,64.0
1558,72.0,0,120,0.0,64.0
1559,74.0,240,120,0.0,64.0
1560,74.0,0,120,2.0,64.0
1561,86.0,0,120,0.0,64.0
1562,74.0,5,120,11.0,64.0
1563,60.0,0,840,5.0,64.0
1564,48.0,0,840,5.0,64.0
1565,75.0,0,390,11.0,64.0
1566,48.0,115,840,14.0,64.0
1567,87.0,0,390,0.0,64.0
1568,36.0,0,840,15.0,64.0
1569,75.0,0,390,2.0,64.0
1570,36.0,0,840,8.0,64.0
1571,75.0,0,390,0.0,64.0
1572,55.0,0,120,3.0,64.0
1573,55.0,120,120,4.0,64.0
1574,55.0,0,120,13.0,64.0
1575,57.0,40,120,13.0,64.0
1576,57.0,0,120,4.0,64.0
1577,57.0,0,120,3.0,64.0
1578,59.0,240,120,3.0,64.0
1579,59.0,5,120,13.0,64.0
1580,59.0,0,120,4.0,64.0
1581,60.0,125,1560,4.0,64.0
1582,60.0,0,1560,3.0,64.0
1583,60.0,0,1560,13.0,64.0
1584,63.0,0,120,3.0,64.0
1585,75.0,120,120,2.0,64.0
1586,63.0,0,120,12.0,64.0
1587,65.0,0,120,12.0,64.0
1588,65.0,0,120,3.0,64.0
1589,77.0,0,120,2.0,64.0
1590,67.0,5,120,12.0,64.0
1591,79.0,0,120,2.0,64.0
1592,67.0,240,120,3.0,64.0
1593,41.0,0,390,14.0,64.0
1594,53.0,0,390,5.0,64.0
1595,65.0,0,390,5.0,64.0
1596,68.0,0,390,12.0,64.0
1597,41.0,0,390,15.0,64.0
1598,68.0,0,390,3.0,64.0
1599,80.0,80,390,2.0,64.0
1600,41.0,0,390,8.0,64.0
1601,71.0,0,120,2.0,64.0
1602,71.0,120,120,11.0,64.0
1603,71.0,0,120,0.0,64.0
1604,83.0,0,120,0.0,64.0
1605,72.0,0,120,0.0,64.0
1606,72.0,0,120,11.0,64.0
1607,84.0,40,120,0.0,64.0
1608,72.0,0,120,2.0,64.0
1609,74.0,0,120,11.0,64.0
1610,74.0,0,120,2.0,64.0
1611,86.0,0,120,0.0,64.0
1612,74.0,115,120,0.0,64.0
1613,75.0,120,120,0.0,64.0
1614,43.0,0,1320,15.0,64.0
1615,75.0,5,120,11.0,64.0
1616,67.0,125,1080,3.0,64.0
1617,75.0,0,120,2.0,64.0
1618,87.0,0,120,0.0,64.0
1619,67.0,0,1320,5.0,64.0
1620,55.0,0,1320,5.0,64.0
1621,43.0,0,1320,8.0,64.0
1622,43.0,40,1320,14.0,64.0
1623,67.0,0,1080,12.0,64.0
1624,91.0,0,120,0.0,64.0
1625,79.0,120,120,0.0,64.0
1626,79.0,0,120,2.0,64.0
1627,79.0,0,120,11.0,64.0
1628,89.0,0,120,0.0,64.0
1629,77.0,115,120,11.0,64.0
1630,77.0,0,120,2.0,64.0
1631,77.0,0,120,0.0,64.0
1632,75.0,0,120,2.0,64.0
1633,87.0,0,120,0.0,64.0
1634,75.0,115,120,0.0,64.0
1635,75.0,5,120,11.0,64.0
1636,74.0,0,960,2.0,64.0
1637,74.0,0,960,0.0,64.0
1638,74.0,0,960,11.0,64.0
1639,86.0,0,960,0.0,64.0
1640,60.0,120,120,3.0,64.0
1641,60.0,0,120,4.0,64.0
1642,60.0,0,120,13.0,64.0
1643,59.0,0,120,13.0,64.0
1644,59.0,0,120,4.0,64.0
1645,59.0,115,120,3.0,64.0
1646,57.0,0,120,4.0,64.0
1647,57.0,5,120,13.0,64.0
1648,57.0,115,120,3.0,64.0
1649,59.0,0,480,3.0,64.0
1650,59.0,0,480,4.0,64.0
1651,59.0,75,390,13.0,64.0
1652,68.0,120,120,12.0,64.0
1653,80.0,0,120,2.0,64.0
1654,68.0,0,120,3.0,64.0
1655,79.0,0,120,2.0,64.0
1656,67.0,0,120,12.0,64.0
1657,67.0,0,120,3.0,64.0
1658,65.0,0,120,3.0,64.0
1659,65.0,5,120,12.0,64.0
1660,77.0,115,120,2.0,64.0
1661,63.0,0,390,3.0,64.0
1662,72.0,0,120,11.0,64.0
1663,60.0,0,390,4.0,64.0
1664,72.0,125,120,0.0,64.0
1665,48.0,0,840,5.0,64.0
1666,36.0,0,840,8.0,64.0
1667,72.0,0,120,2.0,64.0
1668,36.0,115,840,14.0,64.0
1669,60.0,0,390,13.0,64.0
1670,60.0,0,840,5.0,64.0
1671,60.0,0,390,3.0,64.0
1672,63.0,0,390,12.0,64.0
1673,84.0,0,120,0.0,64.0
1674,75.0,75,390,2.0,64.0
1675,36.0,0,840,15.0,64.0
1676,72.0,0,120,11.0,64.0
1677,72.0,0,120,2.0,64.0
1678,72.0,0,120,0.0,64.0
1679,84.0,120,120,0.0,64.0
1680,70.0,0,120,11.0,64.0
1681,82.0,0,120,0.0,64.0
1682,70.0,0,120,0.0,64.0
1683,70.0,40,120,2.0,64.0
1684,80.0,0,120,0.0,64.0
1685,68.0,5,120,11.0,64.0
1686,68.0,120,120,0.0,64.0
1687,68.0,0,120,2.0,64.0
1688,67.0,120,120,2.0,64.0
1689,79.0,0,120,0.0,64.0
1690,67.0,0,120,0.0,64.0
1691,67.0,0,120,11.0,64.0
1692,77.0,0,120,2.0,64.0
1693,80.0,0,120,0.0,64.0
1694,68.0,120,120,0.0,64.0
1695,68.0,0,120,2.0,64.0
1696,65.0,0,120,12.0,64.0
1697,68.0,0,120,11.0,64.0
1698,65.0,0,120,3.0,64.0
1699,63.0,0,120,3.0,64.0
1700,79.0,0,120,0.0,64.0
1701,67.0,0,120,2.0,64.0
1702,63.0,0,120,12.0,64.0
1703,67.0,0,120,0.0,64.0
1704,75.0,0,120,2.0,64.0
1705,67.0,0,120,11.0,64.0
1706,62.0,115,120,3.0,64.0
1707,65.0,0,120,2.0,64.0
1708,62.0,0,120,12.0,64.0
1709,65.0,5,120,11.0,64.0
1710,77.0,0,120,0.0,64.0
1711,65.0,0,120,0.0,64.0
1712,74.0,0,120,2.0,64.0
1713,75.0,0,390,0.0,64.0
1714,63.0,0,390,2.0,64.0
1715,72.0,5,120,2.0,64.0
1716,60.0,0,120,3.0,64.0
1717,63.0,75,390,11.0,64.0
1718,36.0,0,390,15.0,64.0
1719,63.0,0,390,0.0,64.0
1720,36.0,0,390,8.0,64.0
1721,48.0,0,390,14.0,64.0
1722,60.0,120,120,12.0,64.0
1723,60.0,0,390,5.0,64.0
1724,67.0,0,120,3.0,64.0
1725,67.0,0,120,4.0,64.0
1726,55.0,120,120,13.0,64.0
1727,75.0,0,120,2.0,64.0
1728,63.0,0,120,12.0,64.0
1729,63.0,0,120,3.0,64.0
1730,74.0,0,120,2.0,64.0
1731,65.0,40,120,3.0,64.0
1732,62.0,0,120,3.0,64.0
1733,53.0,0,120,13.0,64.0
1734,65.0,0,120,4.0,64.0
1735,62.0,0,120,12.0,64.0
1736,63.0,240,120,4.0,64.0
1737,60.0,5,120,12.0,64.0
1738,63.0,0,120,3.0,64.0
1739,60.0,0,120,3.0,64.0
1740,72.0,0,120,2.0,64.0
1741,51.0,0,120,13.0,64.0
1742,62.0,0,390,3.0,64.0
1743,55.0,0,840,14.0,64.0
1744,43.0,0,840,15.0,64.0
1745,62.0,0,390,4.0,64.0
1746,43.0,0,840,8.0,64.0
1747,67.0,0,840,5.0,64.0
1748,50.0,0,390,13.0,64.0
1749,59.0,75,390,3.0,64.0
1750,71.0,0,390,2.0,64.0
1751,59.0,0,390,12.0,64.0
1752,91.0,120,120,0.0,64.0
1753,79.0,0,120,0.0,64.0
1754,79.0,0,120,11.0,64.0
1755,79.0,0,120,2.0,64.0
1756,77.0,0,120,0.0,64.0
1757,77.0,0,120,2.0,64.0
1758,77.0,0,120,11.0,64.0
1759,89.0,40,120,0.0,64.0
1760,75.0,0,120,2.0,64.0
1761,87.0,0,120,0.0,64.0
1762,75.0,5,120,11.0,64.0
1763,75.0,120,120,0.0,64.0
1764,86.0,0,120,0.0,64.0
1765,74.0,120,120,11.0,64.0
1766,74.0,0,120,2.0,64.0
1767,74.0,0,120,0.0,64.0
1768,72.0,0,120,2.0,64.0
1769,75.0,0,120,2.0,64.0
1770,87.0,0,120,0.0,64.0
1771,72.0,0,120,12.0,64.0
1772,75.0,0,120,0.0,64.0
1773,72.0,0,120,3.0,64.0
1774,75.0,120,120,11.0,64.0
1775,74.0,115,120,2.0,64.0
1776,71.0,0,120,12.0,64.0
1777,74.0,0,120,0.0,64.0
1778,71.0,0,120,2.0,64.0
1779,74.0,0,120,11.0,64.0
1780,86.0,0,120,0.0,64.0
1781,71.0,0,120,3.0,64.0
1782,75.0,0,120,0.0,64.0
1783,87.0,0,120,0.0,64.0
1784,69.0,5,120,12.0,64.0
1785,69.0,120,120,3.0,64.0
1786,69.0,0,120,2.0,64.0
1787,75.0,0,120,11.0,64.0
1788,75.0,0,120,2.0,64.0
1789,67.0,0,120,2.0,64.0
1790,63.0,75,390,5.0,64.0
1791,39.0,0,390,8.0,64.0
1792,72.0,0,600,2.0,64.0
1793,84.0,0,600,0.0,64.0
1794,72.0,125,600,0.0,64.0
1795,39.0,0,390,15.0,64.0
1796,72.0,0,600,11.0,64.0
1797,67.0,120,120,3.0,64.0
1798,51.0,0,390,14.0,64.0
1799,67.0,0,120,12.0,64.0
1800,65.0,120,120,13.0,64.0
1801,69.0,0,120,3.0,64.0
1802,65.0,0,120,4.0,64.0
1803,69.0,0,120,12.0,64.0
1804,69.0,0,120,2.0,64.0
1805,65.0,0,120,3.0,64.0
1806,67.0,0,120,2.0,64.0
1807,63.0,40,120,3.0,64.0
1808,63.0,0,120,13.0,64.0
1809,67.0,0,120,12.0,64.0
1810,63.0,0,120,4.0,64.0
1811,67.0,0,120,3.0,64.0
1812,70.0,115,120,3.0,64.0
1813,62.0,5,120,13.0,64.0
1814,62.0,0,120,4.0,64.0
1815,70.0,0,120,2.0,64.0
1816,70.0,0,120,12.0,64.0
1817,62.0,0,120,3.0,64.0
1818,65.0,0,840,5.0,64.0
1819,41.0,0,840,8.0,64.0
1820,68.0,0,390,2.0,64.0
1821,60.0,75,390,4.0,64.0
1822,68.0,0,390,12.0,64.0
1823,41.0,0,840,15.0,64.0
1824,60.0,0,390,3.0,64.0
1825,53.0,0,840,14.0,64.0
1826,60.0,0,390,13.0,64.0
1827,68.0,0,390,3.0,64.0
1828,82.0,0,120,2.0,64.0
1829,82.0,0,120,11.0,64.0
1830,94.0,120,120,0.0,64.0
1831,82.0,0,120,0.0,64.0
1832,80.0,0,120,2.0,64.0
1833,80.0,0,120,11.0,64.0
1834,92.0,40,120,0.0,64.0
1835,80.0,0,120,0.0,64.0
1836,79.0,120,120,0.0,64.0
1837,91.0,0,120,0.0,64.0
1838,79.0,5,120,11.0,64.0
1839,79.0,0,120,2.0,64.0
1840,89.0,0,120,0.0,64.0
1841,77.0,120,120,0.0,64.0
1842,77.0,0,120,2.0,64.0
1843,77.0,0,120,11.0,64.0
1844,87.0,0,120,0.0,64.0
1845,75.0,0,120,11.0,64.0
1846,67.0,0,120,4.0,64.0
1847,75.0,0,120,0.0,64.0
1848,67.0,0,120,3.0,64.0
1849,67.0,0,120,13.0,64.0
1850,75.0,120,120,2.0,64.0
1851,74.0,0,120,11.0,64.0
1852,65.0,115,120,4.0,64.0
1853,74.0,0,120,0.0,64.0
1854,74.0,0,120,2.0,64.0
1855,86.0,0,120,0.0,64.0
1856,65.0,0,120,13.0,64.0
1857,65.0,0,120,3.0,64.0
1858,63.0,0,120,3.0,64.0
1859,63.0,115,120,13.0,64.0
1860,63.0,0,120,4.0,64.0
1861,72.0,0,120,2.0,64.0
1862,72.0,0,120,0.0,64.0
1863,84.0,0,120,0.0,64.0
1864,72.0,5,120,11.0,64.0
1865,71.0,0,480,11.0,64.0
1866,71.0,0,480,2.0,64.0
1867,43.0,0,390,8.0,64.0
1868,43.0,75,390,15.0,64.0
1869,62.0,120,120,3.0,64.0
1870,67.0,0,390,5.0,64.0
1871,55.0,0,390,14.0,64.0
1872,83.0,0,480,0.0,64.0
1873,62.0,0,120,4.0,64.0
1874,62.0,5,120,13.0,64.0
1875,71.0,0,480,0.0,64.0
1876,68.0,0,120,3.0,64.0
1877,65.0,0,120,4.0,64.0
1878,65.0,0,120,3.0,64.0
1879,65.0,120,120,13.0,64.0
1880,68.0,0,120,2.0,64.0
1881,68.0,0,120,12.0,64.0
1882,67.0,0,120,12.0,64.0
1883,63.0,0,120,3.0,64.0
1884,63.0,0,120,4.0,64.0
1885,63.0,0,120,13.0,64.0
1886,67.0,40,120,2.0,64.0
1887,67.0,0,120,3.0,64.0
1888,62.0,5,120,13.0,64.0
1889,62.0,0,120,4.0,64.0
1890,62.0,115,120,3.0,64.0
1891,65.0,0,120,12.0,64.0
1892,65.0,0,120,2.0,64.0
1893,65.0,0,120,3.0,64.0
1894,60.0,0,390,3.0,64.0
1895,44.0,115,840,8.0,64.0
1896,68.0,0,840,5.0,64.0
1897,72.0,0,120,2.0,64.0
1898,72.0,125,120,11.0,64.0
1899,60.0,0,390,4.0,64.0
1900,63.0,75,390,12.0,64.0
1901,56.0,0,840,14.0,64.0
1902,44.0,0,840,15.0,64.0
1903,84.0,0,120,0.0,64.0
1904,60.0,0,390,13.0,64.0
1905,72.0,0,120,0.0,64.0
1906,63.0,0,390,2.0,64.0
1907,63.0,0,390,3.0,64.0
1908,77.0,0,120,0.0,64.0
1909,89.0,120,120,0.0,64.0
1910,77.0,0,120,11.0,64.0
1911,77.0,0,120,2.0,64.0
1912,75.0,40,120,11.0,64.0
1913,87.0,0,120,0.0,64.0
1914,75.0,0,120,2.0,64.0
1915,75.0,0,120,0.0,64.0
1916,74.0,120,120,2.0,64.0
1917,74.0,0,120,0.0,64.0
1918,86.0,0,120,0.0,64.0
1919,74.0,5,120,11.0,64.0
1920,72.0,0,120,11.0,64.0
1921,84.0,0,120,0.0,64.0
1922,72.0,0,120,0.0,64.0
1923,72.0,120,120,2.0,64.0
1924,70.0,0,120,2.0,64.0
1925,67.0,0,120,4.0,64.0
1926,67.0,0,120,13.0,64.0
1927,70.0,0,120,0.0,64.0
1928,82.0,0,120,0.0,64.0
1929,67.0,0,120,3.0,64.0
1930,70.0,120,120,11.0,64.0
1931,68.0,0,120,2.0,64.0
1932,65.0,0,120,3.0,64.0
1933,65.0,0,120,13.0,64.0
1934,68.0,0,120,0.0,64.0
1935,80.0,0,120,0.0,64.0
1936,68.0,0,120,11.0,64.0
1937,65.0,0,120,4.0,64.0
1938,67.0,0,120,0.0,64.0
1939,67.0,5,120,11.0,64.0
1940,63.0,0,120,3.0,64.0
1941,79.0,0,120,0.0,64.0
1942,67.0,0,120,2.0,64.0
1943,63.0,0,120,13.0,64.0
1944,63.0,115,120,4.0,64.0
1945,68.0,0,480,0.0,64.0
1946,41.0,0,390,8.0,64.0
1947,80.0,0,480,0.0,64.0
1948,41.0,0,390,15.0,64.0
1949,65.0,75,390,5.0,64.0
1950,68.0,0,480,2.0,64.0
1951,62.0,5,120,13.0,64.0
1952,68.0,0,480,11.0,64.0
1953,53.0,0,390,14.0,64.0
1954,62.0,120,120,3.0,64.0
1955,62.0,0,120,4.0,64.0
1956,63.0,0,120,4.0,64.0
1957,63.0,0,120,3.0,64.0
1958,67.0,0,120,12.0,64.0
1959,67.0,0,120,3.0,64.0
1960,67.0,0,120,2.0,64.0
1961,63.0,120,120,13.0,64.0
1962,65.0,0,120,12.0,64.0
1963,62.0,0,120,4.0,64.0
1964,65.0,0,120,3.0,64.0
1965,65.0,0,120,2.0,64.0
1966,62.0,0,120,3.0,64.0
1967,62.0,40,120,13.0,64.0
1968,63.0,0,120,3.0,64.0
1969,60.0,115,120,3.0,64.0
1970,60.0,0,120,4.0,64.0
1971,60.0,0,120,13.0,64.0
1972,63.0,5,120,12.0,64.0
1973,63.0,0,120,2.0,64.0
1974,62.0,75,390,3.0,64.0
1975,62.0,0,390,2.0,64.0
1976,67.0,0,120,11.0,64.0
1977,67.0,0,840,5.0,64.0
1978,67.0,0,120,0.0,64.0
1979,79.0,0,120,0.0,64.0
1980,43.0,0,840,15.0,64.0
1981,67.0,125,120,2.0,64.0
1982,43.0,0,840,8.0,64.0
1983,59.0,0,390,13.0,64.0
1984,59.0,0,390,3.0,64.0
1985,62.0,0,390,12.0,64.0
1986,59.0,0,390,4.0,64.0
1987,55.0,0,840,14.0,64.0
1988,79.0,0,120,11.0,64.0
1989,79.0,0,120,2.0,64.0
1990,91.0,120,120,0.0,64.0
1991,79.0,0,120,0.0,64.0
1992,77.0,40,120,11.0,64.0
1993,77.0,0,120,2.0,64.0
1994,77.0,0,120,0.0,64.0
1995,89.0,0,120,0.0,64.0
1996,75.0,0,120,0.0,64.0
1997,75.0,0,120,2.0,64.0
1998,87.0,120,120,0.0,64.0
1999,75.0,5,120,11.0,64.0
2000,74.0,0,120,2.0,64.0
2001,74.0,120,120,0.0,64.0
2002,74.0,0,120,11.0,64.0
2003,86.0,0,120,0.0,64.0
2004,72.0,0,120,3.0,64.0
2005,72.0,120,120,2.0,64.0
2006,72.0,0,120,12.0,64.0
2007,75.0,0,120,0.0,64.0
2008,87.0,0,120,0.0,64.0
2009,75.0,0,120,2.0,64.0
2010,75.0,0,120,11.0,64.0
2011,71.0,0,120,3.0,64.0
2012,74.0,0,120,2.0,64.0
2013,86.0,0,120,0.0,64.0
2014,71.0,0,120,2.0,64.0
2015,74.0,0,120,0.0,64.0
2016,74.0,0,120,11.0,64.0
2017,71.0,115,120,12.0,64.0
2018,75.0,240,120,0.0,64.0
2019,69.0,0,120,3.0,64.0
2020,69.0,0,120,2.0,64.0
2021,75.0,0,120,2.0,64.0
2022,75.0,5,120,11.0,64.0
2023,69.0,0,120,12.0,64.0
2024,87.0,0,120,0.0,64.0
2025,38.0,0,390,8.0,64.0
2026,62.0,0,390,5.0,64.0
2027,89.0,125,600,0.0,64.0
2028,50.0,0,390,14.0,64.0
2029,71.0,0,480,2.0,64.0
2030,77.0,0,600,2.0,64.0
2031,77.0,0,600,0.0,64.0
2032,38.0,75,390,15.0,64.0
2033,71.0,0,390,12.0,64.0
2034,77.0,0,600,11.0,64.0
2035,71.0,0,480,3.0,64.0
2036,68.0,0,120,4.0,64.0
2037,68.0,0,120,3.0,64.0
2038,68.0,120,120,13.0,64.0
2039,67.0,40,120,4.0,64.0
2040,67.0,0,120,3.0,64.0
2041,67.0,0,120,13.0,64.0
2042,65.0,0,120,4.0,64.0
2043,65.0,115,120,3.0,64.0
2044,65.0,5,120,13.0,64.0
2045,39.0,0,840,15.0,64.0
2046,72.0,0,390,12.0,64.0
2047,63.0,0,840,5.0,64.0
2048,67.0,75,390,3.0,64.0
2049,67.0,0,390,4.0,64.0
2050,51.0,0,840,14.0,64.0
2051,67.0,0,390,13.0,64.0
2052,72.0,0,390,3.0,64.0
2053,39.0,0,840,8.0,64.0
2054,75.0,0,120,2.0,64.0
2055,75.0,0,120,11.0,64.0
2056,75.0,0,120,0.0,64.0
2057,87.0,120,120,0.0,64.0
2058,74.0,0,120,2.0,64.0
2059,74.0,40,120,11.0,64.0
2060,86.0,0,120,0.0,64.0
2061,74.0,0,120,0.0,64.0
2062,72.0,0,120,0.0,64.0
2063,72.0,5,120,11.0,64.0
2064,84.0,120,120,0.0,64.0
2065,72.0,0,30,2.0,64.0
2066,71.0,0,120,11.0,64.0
2067,71.0,0,120,0.0,64.0
2068,71.0,0,120,2.0,64.0
2069,83.0,120,120,0.0,64.0
2070,67.0,0,120,3.0,64.0
2071,69.0,120,120,11.0,64.0
2072,67.0,0,120,12.0,64.0
2073,69.0,0,120,0.0,64.0
2074,67.0,0,120,2.0,64.0
2075,69.0,0,120,2.0,64.0
2076,81.0,0,120,0.0,64.0
2077,71.0,0,120,2.0,64.0
2078,65.0,0,120,2.0,64.0
2079,65.0,0,120,3.0,64.0
2080,71.0,115,120,0.0,64.0
2081,83.0,0,120,0.0,64.0
2082,65.0,0,120,12.0,64.0
2083,71.0,0,120,11.0,64.0
2084,63.0,0,120,2.0,64.0
2085,72.0,115,120,0.0,64.0
2086,72.0,0,120,2.0,64.0
2087,72.0,5,120,11.0,64.0
2088,84.0,0,120,0.0,64.0
2089,63.0,0,120,3.0,64.0
2090,63.0,0,120,12.0,64.0
2091,86.0,0,600,0.0,64.0
2092,65.0,0,120,3.0,64.0
2093,62.0,0,120,4.0,64.0
2094,65.0,120,120,2.0,64.0
2095,65.0,5,120,12.0,64.0
2096,62.0,0,120,13.0,64.0
2097,47.0,0,390,14.0,64.0
2098,59.0,0,390,5.0,64.0
2099,74.0,0,600,11.0,64.0
2100,35.0,75,390,8.0,64.0
2101,35.0,0,390,15.0,64.0
2102,62.0,0,120,3.0,64.0
2103,74.0,125,600,2.0,64.0
2104,74.0,0,600,0.0,64.0
2105,68.0,0,120,3.0,64.0
2106,60.0,0,120,13.0,64.0
2107,60.0,0,120,3.0,64.0
2108,68.0,0,120,2.0,64.0
2109,60.0,120,120,4.0,64.0
2110,68.0,0,120,12.0,64.0
2111,67.0,0,120,2.0,64.0
2112,59.0,0,120,3.0,64.0
2113,67.0,0,120,12.0,64.0
2114,67.0,40,120,3.0,64.0
2115,59.0,0,120,13.0,64.0
2116,59.0,0,120,4.0,64.0
2117,65.0,5,120,12.0,64.0
2118,56.0,0,120,13.0,64.0
2119,65.0,0,120,3.0,64.0
2120,56.0,0,120,4.0,64.0
2121,65.0,0,120,2.0,64.0
2122,56.0,115,120,3.0,64.0
2123,36.0,0,840,8.0,64.0
2124,63.0,0,390,2.0,64.0
2125,48.0,0,840,14.0,64.0
2126,55.0,0,390,13.0,64.0
2127,55.0,0,390,3.0,64.0
2128,63.0,75,390,3.0,64.0
2129,55.0,0,390,4.0,64.0
2130,60.0,0,840,5.0,64.0
2131,36.0,0,840,15.0,64.0
2132,63.0,0,390,12.0,64.0
2133,77.0,0,120,2.0,64.0
2134,89.0,0,120,0.0,64.0
2135,77.0,0,120,0.0,64.0
2136,77.0,120,120,11.0,64.0
2137,87.0,0,120,0.0,64.0
2138,75.0,0,120,0.0,64.0
2139,75.0,0,120,11.0,64.0
2140,75.0,40,120,2.0,64.0
2141,74.0,240,120,2.0,64.0
2142,74.0,5,120,11.0,64.0
2143,74.0,0,120,0.0,64.0
2144,86.0,0,120,0.0,64.0
2145,84.0,0,360,0.0,64.0
2146,72.0,0,360,0.0,64.0
2147,72.0,0,360,11.0,64.0
2148,72.0,115,360,2.0,64.0
2149,70.0,0,120,2.0,64.0
2150,70.0,0,120,3.0,64.0
2151,70.0,120,120,12.0,64.0
2152,68.0,0,120,3.0,64.0
2153,68.0,0,120,2.0,64.0
2154,68.0,0,120,12.0,64.0
2155,67.0,0,120,12.0,64.0
2156,70.0,0,120,0.0,64.0
2157,70.0,5,120,11.0,64.0
2158,67.0,240,120,2.0,64.0
2159,67.0,0,120,3.0,64.0
2160,82.0,0,120,0.0,64.0
2161,70.0,0,120,2.0,64.0
2162,41.0,75,390,8.0,64.0
2163,80.0,125,600,0.0,64.0
2164,68.0,0,600,2.0,64.0
2165,65.0,0,360,12.0,64.0
2166,65.0,0,360,3.0,64.0
2167,41.0,0,390,14.0,64.0
2168,53.0,0,390,5.0,64.0
2169,68.0,0,600,11.0,64.0
2170,41.0,0,390,15.0,64.0
2171,68.0,0,600,0.0,64.0
2172,65.0,0,360,2.0,64.0
2173,63.0,0,120,13.0,64.0
2174,63.0,0,120,4.0,64.0
2175,63.0,120,120,3.0,64.0
2176,62.0,0,120,4.0,64.0
2177,62.0,40,120,13.0,64.0
2178,62.0,0,120,3.0,64.0
2179,60.0,115,120,3.0,64.0
2180,63.0,0,120,3.0,64.0
2181,75.0,0,120,2.0,64.0
2182,63.0,5,120,12.0,64.0
2183,60.0,0,120,13.0,64.0
2184,60.0,0,120,4.0,64.0
2185,43.0,0,1320,8.0,64.0
2186,59.0,75,390,3.0,64.0
2187,43.0,30,1320,15.0,64.0
2188,55.0,0,1320,5.0,64.0
2189,62.0,5,360,3.0,64.0
2190,59.0,0,390,13.0,64.0
2191,59.0,0,390,4.0,64.0
2192,62.0,0,480,12.0,64.0
2193,74.0,0,360,2.0,64.0
2194,43.0,0,1320,14.0,64.0
2195,68.0,0,120,11.0,64.0
2196,80.0,0,120,2.0,64.0
2197,80.0,0,120,0.0,64.0
2198,79.0,0,120,2.0,64.0
2199,79.0,0,120,0.0,64.0
2200,67.0,0,120,11.0,64.0
2201,74.0,0,120,2.0,64.0
2202,62.0,0,120,3.0,64.0
2203,77.0,0,120,0.0,64.0
2204,65.0,5,120,11.0,64.0
2205,77.0,60,120,2.0,64.0
2206,60.0,0,120,3.0,64.0
2207,60.0,5,120,12.0,64.0
2208,75.0,0,60,0.0,64.0
2209,63.0,0,60,11.0,64.0
2210,75.0,0,60,2.0,64.0
2211,72.0,0,120,2.0,64.0
2212,65.0,115,60,11.0,64.0
2213,77.0,0,60,0.0,64.0
2214,77.0,0,60,2.0,64.0
2215,63.0,0,120,3.0,64.0
2216,75.0,0,120,2.0,64.0
2217,67.0,5,120,11.0,64.0
2218,79.0,0,120,2.0,64.0
2219,63.0,0,120,12.0,64.0
2220,79.0,0,120,0.0,64.0
2221,62.0,0,120,3.0,64.0
2222,62.0,0,120,12.0,64.0
2223,74.0,0,120,2.0,64.0
2224,65.0,0,120,11.0,64.0
2225,77.0,0,120,2.0,64.0
2226,77.0,0,120,0.0,64.0
2227,79.0,0,60,2.0,64.0
2228,72.0,0,120,2.0,64.0
2229,60.0,30,120,3.0,64.0
2230,60.0,5,120,12.0,64.0
2231,79.0,0,60,0.0,64.0
2232,67.0,0,60,11.0,64.0
2233,80.0,0,60,0.0,64.0
2234,80.0,0,60,2.0,64.0
2235,68.0,0,60,11.0,64.0
2236,74.0,0,30,2.0,64.0
2237,86.0,0,30,0.0,64.0
2238,62.0,30,30,11.0,64.0
2239,71.0,0,480,2.0,64.0
2240,59.0,20,390,12.0,64.0
2241,59.0,0,480,3.0,64.0
2242,74.0,0,30,0.0,64.0
2243,87.0,0,30,0.0,64.0
2244,75.0,0,30,2.0,64.0
2245,63.0,30,30,11.0,64.0
2246,75.0,0,30,0.0,64.0
2247,74.0,0,30,0.0,64.0
2248,86.0,0,30,0.0,64.0
2249,62.0,30,30,11.0,64.0
2250,74.0,0,30,2.0,64.0
2251,75.0,0,30,0.0,64.0
2252,87.0,0,30,0.0,64.0
2253,75.0,0,30,2.0,64.0
2254,63.0,30,30,11.0,64.0
2255,86.0,0,30,0.0,64.0
2256,56.0,0,120,13.0,64.0
2257,68.0,0,120,3.0,64.0
2258,68.0,0,120,4.0,64.0
2259,62.0,0,30,11.0,64.0
2260,74.0,30,30,2.0,64.0
2261,74.0,0,30,0.0,64.0
2262,75.0,0,30,2.0,64.0
2263,63.0,30,30,11.0,64.0
2264,87.0,0,30,0.0,64.0
2265,75.0,0,30,0.0,64.0
2266,62.0,30,30,11.0,64.0
2267,74.0,0,30,0.0,64.0
2268,74.0,0,30,2.0,64.0
2269,86.0,0,30,0.0,64.0
2270,75.0,0,30,2.0,64.0
2271,75.0,30,30,0.0,64.0
2272,87.0,0,30,0.0,64.0
2273,63.0,0,30,11.0,64.0
2274,74.0,30,30,0.0,64.0
2275,55.0,0,120,13.0,64.0
2276,67.0,0,120,4.0,64.0
2277,62.0,0,30,11.0,64.0
2278,86.0,0,30,0.0,64.0
2279,74.0,0,30,2.0,64.0
2280,67.0,0,120,3.0,64.0
2281,87.0,0,30,0.0,64.0
2282,75.0,0,30,2.0,64.0
2283,63.0,30,30,11.0,64.0
2284,75.0,0,30,0.0,64.0
2285,86.0,30,30,0.0,64.0
2286,62.0,0,30,11.0,64.0
2287,74.0,0,30,2.0,64.0
2288,74.0,0,30,0.0,64.0
2289,63.0,0,30,11.0,64.0
2290,75.0,0,30,0.0,64.0
2291,75.0,0,30,2.0,64.0
2292,87.0,0,30,0.0,64.0
2293,86.0,0,30,0.0,64.0
2294,62.0,0,30,11.0,64.0
2295,65.0,0,120,3.0,64.0
2296,74.0,0,30,2.0,64.0
2297,74.0,10,30,0.0,64.0
2298,65.0,115,120,4.0,64.0
2299,53.0,5,120,13.0,64.0
2300,75.0,0,30,2.0,64.0
2301,63.0,0,30,11.0,64.0
2302,75.0,30,30,0.0,64.0
2303,87.0,0,30,0.0,64.0
2304,72.0,0,30,0.0,64.0
2305,72.0,25,30,2.0,64.0
2306,84.0,0,30,0.0,64.0
2307,60.0,0,30,11.0,64.0
2308,74.0,0,30,0.0,64.0
2309,74.0,0,30,2.0,64.0
2310,86.0,0,30,0.0,64.0
2311,62.0,0,30,11.0,64.0
2312,55.0,0,390,12.0,64.0
2313,72.0,75,390,0.0,64.0
2314,84.0,0,390,0.0,64.0
2315,60.0,0,390,11.0,64.0
2316,48.0,0,840,5.0,64.0
2317,36.0,0,840,15.0,64.0
2318,72.0,0,390,2.0,64.0
2319,63.0,5,120,3.0,64.0
2320,51.0,115,120,13.0,64.0
2321,36.0,0,840,8.0,64.0
2322,63.0,0,120,4.0,64.0
2323,36.0,0,240,14.0,64.0
2324,60.0,0,120,4.0,64.0
2325,48.0,5,120,13.0,64.0
2326,60.0,120,120,3.0,64.0
2327,58.0,40,120,13.0,64.0
2328,48.0,0,120,14.0,64.0
2329,58.0,0,120,4.0,64.0
2330,58.0,0,120,3.0,64.0
2331,56.0,0,120,4.0,64.0
2332,56.0,0,120,13.0,64.0
2333,56.0,0,120,3.0,64.0
2334,46.0,125,120,14.0,64.0
2335,67.0,120,120,4.0,64.0
2336,67.0,0,120,3.0,64.0
2337,44.0,0,120,14.0,64.0
2338,55.0,0,120,13.0,64.0
2339,65.0,0,120,4.0,64.0
2340,65.0,0,120,3.0,64.0
2341,43.0,120,120,14.0,64.0
2342,53.0,0,120,13.0,64.0
2343,63.0,0,120,4.0,64.0
2344,51.0,115,120,13.0,64.0
2345,41.0,0,120,14.0,64.0
2346,63.0,0,120,3.0,64.0
2347,62.0,115,120,3.0,64.0
2348,39.0,5,120,14.0,64.0
2349,62.0,0,120,4.0,64.0
2350,50.0,0,120,13.0,64.0
2351,36.0,0,390,8.0,64.0
2352,55.0,75,390,7.0,64.0
2353,48.0,0,120,13.0,64.0
2354,60.0,125,120,4.0,64.0
2355,36.0,0,390,15.0,64.0
2356,60.0,0,390,7.0,64.0
2357,63.0,0,390,7.0,64.0
2358,60.0,0,120,3.0,64.0
2359,60.0,0,390,5.0,64.0
2360,48.0,0,390,14.0,64.0
2361,60.0,0,390,6.0,64.0
2362,63.0,0,120,4.0,64.0
2363,63.0,120,120,13.0,64.0
2364,63.0,0,120,3.0,64.0
2365,62.0,0,120,3.0,64.0
2366,62.0,40,120,4.0,64.0
2367,62.0,0,120,13.0,64.0
2368,60.0,5,120,13.0,64.0
2369,60.0,0,120,3.0,64.0
2370,60.0,240,120,4.0,64.0
2371,59.0,0,600,3.0,64.0
2372,55.0,0,840,14.0,64.0
2373,43.0,0,840,15.0,64.0
2374,67.0,115,840,5.0,64.0
2375,59.0,0,840,5.0,64.0
2376,62.0,0,840,7.0,64.0
2377,43.0,0,840,8.0,64.0
2378,59.0,0,840,7.0,64.0
2379,59.0,0,600,13.0,64.0
2380,67.0,0,840,6.0,64.0
2381,59.0,0,600,4.0,64.0
2382,55.0,0,840,7.0,64.0
2383,62.0,0,120,2.0,64.0
2384,62.0,120,120,12.0,64.0
2385,62.0,0,120,3.0,64.0
2386,63.0,0,120,3.0,64.0
2387,63.0,0,120,12.0,64.0
2388,63.0,120,120,2.0,64.0
2389,65.0,115,120,3.0,64.0
2390,65.0,0,120,12.0,64.0
2391,65.0,0,120,2.0,64.0
2392,67.0,5,120,12.0,64.0
2393,67.0,120,120,2.0,64.0
2394,67.0,0,120,3.0,64.0
2395,60.0,0,120,3.0,64.0
2396,71.0,0,120,12.0,64.0
2397,71.0,0,120,3.0,64.0
2398,74.0,0,120,2.0,64.0
2399,74.0,0,120,11.0,64.0
2400,60.0,0,120,4.0,64.0
2401,71.0,0,120,2.0,64.0
2402,74.0,0,120,0.0,64.0
2403,60.0,0,120,13.0,64.0
2404,75.0,0,120,11.0,64.0
2405,59.0,0,120,13.0,64.0
2406,75.0,0,120,2.0,64.0
2407,75.0,0,120,0.0,64.0
2408,59.0,0,120,3.0,64.0
2409,72.0,0,120,2.0,64.0
2410,72.0,0,120,3.0,64.0
2411,59.0,0,120,4.0,64.0
2412,72.0,0,120,12.0,64.0
2413,57.0,0,120,13.0,64.0
2414,77.0,115,120,2.0,64.0
2415,74.0,0,120,12.0,64.0
2416,74.0,0,120,3.0,64.0
2417,57.0,0,120,3.0,64.0
2418,74.0,0,120,2.0,64.0
2419,77.0,5,120,11.0,64.0
2420,77.0,0,120,0.0,64.0
2421,57.0,0,120,4.0,64.0
2422,55.0,5,120,13.0,64.0
2423,55.0,0,120,4.0,64.0
2424,55.0,0,390,7.0,64.0
2425,55.0,0,120,3.0,64.0
2426,51.0,0,390,14.0,64.0
2427,79.0,0,120,11.0,64.0
2428,60.0,75,390,5.0,64.0
2429,63.0,0,390,5.0,64.0
2430,75.0,0,120,3.0,64.0
2431,79.0,0,120,0.0,64.0
2432,63.0,0,390,7.0,64.0
2433,39.0,0,390,8.0,64.0
2434,60.0,0,390,7.0,64.0
2435,39.0,0,390,15.0,64.0
2436,63.0,0,390,6.0,64.0
2437,79.0,120,120,2.0,64.0
2438,75.0,0,120,2.0,64.0
2439,75.0,0,120,12.0,64.0
2440,77.0,120,120,11.0,64.0
2441,74.0,0,120,12.0,64.0
2442,74.0,0,120,3.0,64.0
2443,63.0,0,120,4.0,64.0
2444,77.0,0,120,0.0,64.0
2445,74.0,0,120,2.0,64.0
2446,63.0,0,120,3.0,64.0
2447,77.0,0,120,2.0,64.0
2448,51.0,0,120,13.0,64.0
2449,53.0,0,120,13.0,64.0
2450,72.0,0,120,2.0,64.0
2451,75.0,0,120,0.0,64.0
2452,72.0,0,120,12.0,64.0
2453,65.0,0,120,4.0,64.0
2454,72.0,0,120,3.0,64.0
2455,75.0,0,120,11.0,64.0
2456,65.0,0,120,3.0,64.0
2457,75.0,0,120,2.0,64.0
2458,71.0,0,120,12.0,64.0
2459,71.0,0,120,2.0,64.0
2460,74.0,0,120,11.0,64.0
2461,67.0,115,120,3.0,64.0
2462,55.0,5,120,13.0,64.0
2463,74.0,0,120,2.0,64.0
2464,71.0,0,120,3.0,64.0
2465,67.0,0,120,4.0,64.0
2466,74.0,0,120,0.0,64.0
2467,41.0,0,840,8.0,64.0
2468,65.0,0,840,7.0,64.0
2469,56.0,0,840,7.0,64.0
2470,60.0,0,840,7.0,64.0
2471,53.0,0,840,14.0,64.0
2472,68.0,5,120,12.0,64.0
2473,65.0,0,840,6.0,64.0
2474,72.0,0,120,11.0,64.0
2475,68.0,0,360,4.0,64.0
2476,60.0,40,840,5.0,64.0
2477,65.0,0,840,5.0,64.0
2478,56.0,0,360,13.0,64.0
2479,68.0,0,120,2.0,64.0
2480,41.0,0,840,15.0,64.0
2481,68.0,0,120,3.0,64.0
2482,72.0,0,120,0.0,64.0
2483,60.0,0,120,12.0,64.0
2484,73.0,0,120,11.0,64.0
2485,72.0,120,15,2.0,64.0
2486,73.0,0,120,0.0,64.0
2487,73.0,0,120,2.0,64.0
2488,60.0,115,120,3.0,64.0
2489,74.0,0,120,2.0,64.0
2490,72.0,115,120,11.0,64.0
2491,72.0,0,120,2.0,64.0
2492,62.0,0,120,3.0,64.0
2493,72.0,0,120,0.0,64.0
2494,62.0,0,120,12.0,64.0
2495,70.0,0,120,2.0,64.0
2496,64.0,0,120,12.0,64.0
2497,58.0,5,120,13.0,64.0
2498,64.0,115,120,3.0,64.0
2499,76.0,0,120,2.0,64.0
2500,70.0,0,120,11.0,64.0
2501,58.0,0,120,3.0,64.0
2502,58.0,0,120,4.0,64.0
2503,70.0,0,120,0.0,64.0
2504,68.0,0,120,11.0,64.0
2505,65.0,0,120,3.0,64.0
2506,68.0,0,120,2.0,64.0
2507,60.0,75,390,4.0,64.0
2508,65.0,0,120,12.0,64.0
2509,60.0,0,390,13.0,64.0
2510,60.0,0,390,3.0,64.0
2511,68.0,0,120,0.0,64.0
2512,77.0,0,120,11.0,64.0
2513,67.0,0,120,12.0,64.0
2514,77.0,0,120,0.0,64.0
2515,77.0,120,15,2.0,64.0
2516,67.0,0,120,3.0,64.0
2517,65.0,0,120,3.0,64.0
2518,79.0,0,15,2.0,64.0
2519,77.0,0,120,2.0,64.0
2520,65.0,0,120,12.0,64.0
2521,79.0,0,120,0.0,64.0
2522,79.0,0,120,11.0,64.0
2523,63.0,0,120,3.0,64.0
2524,75.0,0,120,2.0,64.0
2525,80.0,0,120,0.0,64.0
2526,80.0,115,120,2.0,64.0
2527,63.0,0,120,12.0,64.0
2528,80.0,5,120,11.0,64.0
2529,59.0,0,390,7.0,64.0
2530,62.0,0,390,7.0,64.0
2531,55.0,0,390,14.0,64.0
2532,55.0,0,390,7.0,64.0
2533,43.0,0,390,8.0,64.0
2534,67.0,0,390,5.0,64.0
2535,74.0,0,120,2.0,64.0
2536,62.0,120,120,12.0,64.0
2537,43.0,0,390,15.0,64.0
2538,62.0,5,120,3.0,64.0
2539,71.0,0,390,11.0,64.0
2540,59.0,0,390,5.0,64.0
2541,71.0,0,390,2.0,64.0
2542,67.0,0,390,6.0,64.0
2543,71.0,0,390,0.0,64.0
2544,55.0,0,120,3.0,64.0
2545,68.0,0,120,3.0,64.0
2546,80.0,120,120,2.0,64.0
2547,68.0,0,120,12.0,64.0
2548,55.0,0,120,4.0,64.0
2549,55.0,0,120,13.0,64.0
2550,79.0,0,120,2.0,64.0
2551,57.0,40,120,3.0,64.0
2552,67.0,0,120,12.0,64.0
2553,67.0,0,120,3.0,64.0
2554,57.0,0,120,4.0,64.0
2555,57.0,0,120,13.0,64.0
2556,77.0,0,120,2.0,64.0
2557,65.0,5,120,12.0,64.0
2558,59.0,0,120,13.0,64.0
2559,59.0,120,120,3.0,64.0
2560,65.0,0,120,3.0,64.0
2561,59.0,0,120,4.0,64.0
2562,60.0,0,120,13.0,64.0
2563,63.0,0,840,7.0,64.0
2564,60.0,0,840,7.0,64.0
2565,60.0,0,120,3.0,64.0
2566,63.0,0,120,3.0,64.0
2567,56.0,0,840,7.0,64.0
2568,56.0,0,840,14.0,64.0
2569,75.0,0,120,2.0,64.0
2570,44.0,40,840,8.0,64.0
2571,68.0,0,840,6.0,64.0
2572,63.0,0,120,12.0,64.0
2573,60.0,120,120,4.0,64.0
2574,68.0,0,840,5.0,64.0
2575,44.0,0,840,15.0,64.0
2576,60.0,0,840,5.0,64.0
2577,72.0,0,120,11.0,64.0
2578,77.0,0,120,2.0,64.0
2579,65.0,0,120,3.0,64.0
2580,61.0,0,120,3.0,64.0
2581,72.0,0,120,0.0,64.0
2582,65.0,0,120,12.0,64.0
2583,61.0,120,120,4.0,64.0
2584,62.0,0,120,13.0,64.0
2585,72.0,0,120,2.0,64.0
2586,74.0,0,120,2.0,64.0
2587,74.0,0,120,0.0,64.0
2588,63.0,0,120,12.0,64.0
2589,74.0,0,120,11.0,64.0
2590,60.0,115,120,3.0,64.0
2591,63.0,0,120,3.0,64.0
2592,60.0,0,120,13.0,64.0
2593,60.0,0,120,4.0,64.0
2594,58.0,0,120,13.0,64.0
2595,75.0,0,15,2.0,64.0
2596,58.0,0,120,4.0,64.0
2597,62.0,0,120,12.0,64.0
2598,62.0,0,120,3.0,64.0
2599,58.0,120,120,3.0,64.0
2600,75.0,0,120,0.0,64.0
2601,75.0,5,120,11.0,64.0
2602,74.0,0,120,2.0,64.0
2603,72.0,0,390,2.0,64.0
2604,60.0,0,390,12.0,64.0
2605,56.0,0,120,13.0,64.0
2606,56.0,0,120,4.0,64.0
2607,77.0,0,120,0.0,64.0
2608,77.0,120,120,2.0,64.0
2609,77.0,0,120,11.0,64.0
2610,56.0,0,120,3.0,64.0
2611,60.0,0,120,3.0,64.0
2612,79.0,0,120,11.0,64.0
2613,60.0,0,120,13.0,64.0
2614,79.0,0,120,2.0,64.0
2615,79.0,0,120,0.0,64.0
2616,60.0,0,120,4.0,64.0
2617,62.0,0,120,4.0,64.0
2618,62.0,0,120,13.0,64.0
2619,77.0,0,120,2.0,64.0
2620,77.0,0,120,0.0,64.0
2621,77.0,0,120,11.0,64.0
2622,62.0,0,120,3.0,64.0
2623,63.0,5,120,13.0,64.0
2624,75.0,0,120,11.0,64.0
2625,63.0,0,120,4.0,64.0
2626,75.0,0,120,2.0,64.0
2627,63.0,115,120,3.0,64.0
2628,75.0,0,120,0.0,64.0
2629,74.0,5,120,11.0,64.0
2630,60.0,0,390,7.0,64.0
2631,65.0,75,390,6.0,64.0
2632,53.0,0,390,14.0,64.0
2633,41.0,0,390,8.0,64.0
2634,56.0,0,390,7.0,64.0
2635,74.0,0,120,0.0,64.0
2636,53.0,0,390,7.0,64.0
2637,74.0,0,120,2.0,64.0
2638,65.0,0,120,3.0,64.0
2639,65.0,0,120,4.0,64.0
2640,65.0,120,120,13.0,64.0
2641,65.0,0,390,5.0,64.0
2642,41.0,0,390,15.0,64.0
2643,60.0,0,390,5.0,64.0
2644,81.0,0,120,0.0,64.0
2645,69.0,0,120,2.0,64.0
2646,67.0,120,120,3.0,64.0
2647,67.0,0,120,13.0,64.0
2648,81.0,0,120,11.0,64.0
2649,67.0,0,120,4.0,64.0
2650,65.0,0,120,13.0,64.0
2651,83.0,0,120,11.0,64.0
2652,65.0,0,120,4.0,64.0
2653,71.0,40,120,2.0,64.0
2654,83.0,0,120,0.0,64.0
2655,65.0,0,120,3.0,64.0
2656,72.0,0,120,2.0,64.0
2657,63.0,5,120,3.0,64.0
2658,63.0,0,120,4.0,64.0
2659,84.0,0,120,11.0,64.0
2660,84.0,0,120,0.0,64.0
2661,63.0,0,120,13.0,64.0
2662,55.0,0,840,14.0,64.0
2663,62.0,0,600,3.0,64.0
2664,62.0,0,600,13.0,64.0
2665,67.0,0,840,6.0,64.0
2666,83.0,0,120,0.0,64.0
2667,83.0,0,120,11.0,64.0
2668,55.0,0,840,7.0,64.0
2669,67.0,0,840,5.0,64.0
2670,43.0,0,840,15.0,64.0
2671,62.0,5,600,4.0,64.0
2672,43.0,0,840,8.0,64.0
2673,59.0,0,840,5.0,64.0
2674,59.0,0,840,7.0,64.0
2675,71.0,0,120,2.0,64.0
2676,62.0,0,840,7.0,64.0
2677,66.0,0,120,3.0,64.0
2678,72.0,0,120,2.0,64.0
2679,66.0,0,120,2.0,64.0
2680,84.0,0,120,11.0,64.0
2681,66.0,120,120,12.0,64.0
2682,84.0,0,120,0.0,64.0
2683,67.0,115,120,2.0,64.0
2684,67.0,0,120,3.0,64.0
2685,71.0,0,120,2.0,64.0
2686,67.0,0,120,12.0,64.0
2687,83.0,0,120,11.0,64.0
2688,83.0,0,120,0.0,64.0
2689,69.0,0,120,3.0,64.0
2690,81.0,5,120,11.0,64.0
2691,81.0,0,120,0.0,64.0
2692,69.0,0,120,12.0,64.0
2693,69.0,0,120,2.0,64.0
2694,79.0,5,240,11.0,64.0
2695,67.0,0,240,2.0,64.0
2696,71.0,0,120,3.0,64.0
2697,71.0,0,120,12.0,64.0
2698,71.0,115,120,2.0,64.0
2699,79.0,0,240,0.0,64.0
2700,63.0,0,120,13.0,64.0
2701,69.0,0,120,12.0,64.0
2702,63.0,0,120,4.0,64.0
2703,69.0,0,120,2.0,64.0
2704,69.0,0,120,3.0,64.0
2705,63.0,120,120,3.0,64.0
2706,77.0,0,120,11.0,64.0
2707,62.0,0,120,4.0,64.0
2708,71.0,0,120,12.0,64.0
2709,77.0,0,120,0.0,64.0
2710,62.0,0,120,13.0,64.0
2711,77.0,0,120,2.0,64.0
2712,71.0,0,120,3.0,64.0
2713,71.0,0,120,2.0,64.0
2714,62.0,0,120,3.0,64.0
2715,60.0,0,120,3.0,64.0
2716,72.0,0,120,2.0,64.0
2717,72.0,0,120,3.0,64.0
2718,75.0,0,120,2.0,64.0
2719,60.0,0,120,4.0,64.0
2720,60.0,0,120,13.0,64.0
2721,75.0,0,120,11.0,64.0
2722,72.0,5,120,12.0,64.0
2723,75.0,0,120,0.0,64.0
2724,59.0,0,120,3.0,64.0
2725,62.0,0,390,7.0,64.0
2726,59.0,0,390,7.0,64.0
2727,62.0,75,390,5.0,64.0
2728,77.0,0,600,2.0,64.0
2729,59.0,0,390,5.0,64.0
2730,38.0,0,390,15.0,64.0
2731,74.0,0,600,2.0,64.0
2732,62.0,0,390,6.0,64.0
2733,50.0,0,390,14.0,64.0
2734,74.0,0,600,12.0,64.0
2735,38.0,0,390,8.0,64.0
2736,77.0,0,600,0.0,64.0
2737,59.0,0,120,4.0,64.0
2738,74.0,0,600,3.0,64.0
2739,77.0,0,600,11.0,64.0
2740,59.0,120,120,13.0,64.0
2741,53.0,0,390,7.0,64.0
2742,60.0,120,120,3.0,64.0
2743,60.0,0,120,4.0,64.0
2744,60.0,0,120,13.0,64.0
2745,59.0,0,120,3.0,64.0
2746,59.0,40,120,4.0,64.0
2747,59.0,0,120,13.0,64.0
2748,57.0,5,120,13.0,64.0
2749,57.0,0,120,4.0,64.0
2750,57.0,115,120,3.0,64.0
2751,55.0,75,390,3.0,64.0
2752,55.0,0,840,7.0,64.0
2753,39.0,0,840,8.0,64.0
2754,63.0,0,840,5.0,64.0
2755,55.0,0,390,13.0,64.0
2756,63.0,0,840,7.0,64.0
2757,60.0,40,840,5.0,64.0
2758,55.0,0,390,4.0,64.0
2759,51.0,0,840,14.0,64.0
2760,60.0,0,840,7.0,64.0
2761,63.0,0,840,6.0,64.0
2762,39.0,0,840,15.0,64.0
2763,80.0,0,120,2.0,64.0
2764,67.0,0,120,12.0,64.0
2765,80.0,0,120,11.0,64.0
2766,67.0,0,120,3.0,64.0
2767,67.0,120,120,2.0,64.0
2768,80.0,0,120,0.0,64.0
2769,79.0,0,120,11.0,64.0
2770,69.0,0,120,12.0,64.0
2771,79.0,0,120,0.0,64.0
2772,69.0,0,120,3.0,64.0
2773,79.0,40,120,2.0,64.0
2774,69.0,0,120,2.0,64.0
2775,71.0,0,120,2.0,64.0
2776,71.0,0,120,3.0,64.0
2777,71.0,5,120,12.0,64.0
2778,77.0,0,120,0.0,64.0
2779,77.0,0,120,11.0,64.0
2780,77.0,115,120,2.0,64.0
2781,72.0,0,390,12.0,64.0
2782,75.0,0,120,0.0,64.0
2783,72.0,75,390,3.0,64.0
2784,75.0,0,120,2.0,64.0
2785,72.0,0,390,2.0,64.0
2786,75.0,120,120,11.0,64.0
2787,79.0,0,120,2.0,64.0
2788,79.0,0,120,11.0,64.0
2789,79.0,0,120,0.0,64.0
2790,60.0,0,120,3.0,64.0
2791,60.0,120,120,13.0,64.0
2792,60.0,0,120,4.0,64.0
2793,77.0,0,120,2.0,64.0
2794,62.0,0,120,4.0,64.0
2795,62.0,0,120,3.0,64.0
2796,77.0,0,120,11.0,64.0
2797,77.0,0,120,0.0,64.0
2798,62.0,0,120,13.0,64.0
2799,63.0,120,120,4.0,64.0
2800,63.0,0,120,13.0,64.0
2801,63.0,0,120,3.0,64.0
2802,75.0,5,120,11.0,64.0
2803,75.0,0,120,2.0,64.0
2804,75.0,0,120,0.0,64.0
2805,59.0,0,390,7.0,64.0
2806,62.0,0,390,5.0,64.0
2807,74.0,0,600,11.0,64.0
2808,59.0,75,390,6.0,64.0
2809,62.0,0,390,7.0,64.0
2810,74.0,0,600,0.0,64.0
2811,59.0,0,390,5.0,64.0
2812,55.0,0,390,7.0,64.0
2813,65.0,0,120,13.0,64.0
2814,35.0,0,390,8.0,64.0
2815,74.0,0,600,2.0,64.0
2816,65.0,120,120,4.0,64.0
2817,35.0,0,390,15.0,64.0
2818,65.0,0,120,3.0,64.0
2819,47.0,0,390,14.0,64.0
2820,68.0,120,120,4.0,64.0
2821,68.0,0,120,3.0,64.0
2822,68.0,0,120,13.0,64.0
2823,67.0,40,120,3.0,64.0
2824,67.0,0,120,4.0,64.0
2825,67.0,0,120,13.0,64.0
2826,65.0,5,120,13.0,64.0
2827,65.0,115,120,3.0,64.0
2828,65.0,0,120,4.0,64.0
2829,48.0,0,840,14.0,64.0
2830,55.0,0,840,7.0,64.0
2831,60.0,0,840,6.0,64.0
2832,36.0,115,840,8.0,64.0
2833,63.0,75,390,13.0,64.0
2834,63.0,0,840,5.0,64.0
2835,63.0,0,840,7.0,64.0
2836,60.0,0,840,7.0,64.0
2837,60.0,0,840,5.0,64.0
2838,63.0,0,390,3.0,64.0
2839,36.0,0,840,15.0,64.0
2840,63.0,0,390,4.0,64.0
2841,77.0,0,120,2.0,64.0
2842,71.0,0,120,2.0,64.0
2843,59.0,120,120,12.0,64.0
2844,59.0,0,120,3.0,64.0
2845,77.0,0,120,11.0,64.0
2846,77.0,0,120,0.0,64.0
2847,72.0,0,120,2.0,64.0
2848,75.0,0,120,11.0,64.0
2849,75.0,0,120,2.0,64.0
2850,60.0,0,120,3.0,64.0
2851,75.0,0,120,0.0,64.0
2852,60.0,40,120,12.0,64.0
2853,74.0,0,120,11.0,64.0
2854,62.0,5,120,12.0,64.0
2855,74.0,0,120,2.0,64.0
2856,74.0,0,120,0.0,64.0
2857,62.0,0,120,3.0,64.0
2858,63.0,0,120,12.0,64.0
2859,72.0,0,120,2.0,64.0
2860,72.0,0,120,11.0,64.0
2861,72.0,0,120,0.0,64.0
2862,51.0,0,120,13.0,64.0
2863,63.0,0,120,4.0,64.0
2864,60.0,0,120,12.0,64.0
2865,75.0,0,15,2.0,64.0
2866,75.0,0,120,11.0,64.0
2867,63.0,120,15,3.0,64.0
2868,72.0,120,120,2.0,64.0
2869,75.0,0,120,0.0,64.0
2870,60.0,0,120,3.0,64.0
2871,62.0,0,120,3.0,64.0
2872,74.0,0,120,11.0,64.0
2873,65.0,0,120,4.0,64.0
2874,53.0,0,120,13.0,64.0
2875,65.0,0,120,3.0,64.0
2876,62.0,0,120,12.0,64.0
2877,74.0,0,120,2.0,64.0
2878,74.0,0,120,0.0,64.0
2879,72.0,0,120,11.0,64.0
2880,63.0,0,120,12.0,64.0
2881,55.0,125,120,13.0,64.0
2882,72.0,0,120,2.0,64.0
2883,63.0,0,120,3.0,64.0
2884,67.0,0,120,3.0,64.0
2885,75.0,0,120,2.0,64.0
2886,72.0,0,120,0.0,64.0
2887,67.0,0,120,4.0,64.0
2888,65.0,0,600,12.0,64.0
2889,65.0,0,390,5.0,64.0
2890,68.0,0,480,3.0,64.0
2891,60.0,0,390,7.0,64.0
2892,68.0,0,480,4.0,64.0
2893,56.0,0,480,13.0,64.0
2894,41.0,75,390,14.0,64.0
2895,77.0,5,600,2.0,64.0
2896,41.0,0,390,15.0,64.0
2897,53.0,0,390,7.0,64.0
2898,73.0,0,120,0.0,64.0
2899,60.0,0,390,5.0,64.0
2900,56.0,0,390,7.0,64.0
2901,65.0,0,600,3.0,64.0
2902,73.0,0,120,2.0,64.0
2903,41.0,0,390,8.0,64.0
2904,73.0,0,120,11.0,64.0
2905,65.0,0,390,6.0,64.0
2906,75.0,0,120,2.0,64.0
2907,75.0,0,120,0.0,64.0
2908,75.0,0,120,11.0,64.0
2909,73.0,0,120,2.0,64.0
2910,73.0,0,120,0.0,64.0
2911,73.0,0,120,11.0,64.0
2912,72.0,0,120,2.0,64.0
2913,72.0,0,120,0.0,64.0
2914,72.0,5,120,11.0,64.0
2915,43.0,0,1320,8.0,64.0
2916,43.0,0,1320,15.0,64.0
2917,60.0,0,960,7.0,64.0
2918,71.0,0,120,0.0,64.0
2919,71.0,0,120,2.0,64.0
2920,62.0,75,1350,7.0,64.0
2921,55.0,0,1320,7.0,64.0
2922,67.0,0,240,3.0,64.0
2923,55.0,0,240,13.0,64.0
2924,67.0,5,240,4.0,64.0
2925,60.0,115,960,5.0,64.0
2926,67.0,0,1320,5.0,64.0
2927,43.0,0,1320,14.0,64.0
2928,67.0,0,1320,6.0,64.0
2929,71.0,115,120,11.0,64.0
2930,68.0,0,120,12.0,64.0
2931,80.0,0,120,2.0,64.0
2932,72.0,0,120,2.0,64.0
2933,72.0,0,120,11.0,64.0
2934,68.0,0,120,3.0,64.0
2935,72.0,0,120,0.0,64.0
2936,57.0,0,120,13.0,64.0
2937,67.0,0,120,12.0,64.0
2938,74.0,0,360,2.0,64.0
2939,67.0,0,120,3.0,64.0
2940,74.0,0,360,0.0,64.0
2941,74.0,0,360,11.0,64.0
2942,57.0,0,120,4.0,64.0
2943,79.0,0,120,2.0,64.0
2944,69.0,115,120,3.0,64.0
2945,65.0,5,120,12.0,64.0
2946,77.0,0,120,2.0,64.0
2947,71.0,0,120,3.0,64.0
2948,65.0,115,120,3.0,64.0
2949,59.0,0,120,13.0,64.0
2950,59.0,0,120,4.0,64.0
2951,72.0,120,120,3.0,64.0
2952,75.0,0,120,2.0,64.0
2953,63.0,0,120,12.0,64.0
2954,60.0,0,120,13.0,64.0
2955,63.0,0,120,3.0,64.0
2956,60.0,0,120,4.0,64.0
2957,79.0,0,120,2.0,64.0
2958,67.0,0,120,12.0,64.0
2959,48.0,0,120,13.0,64.0
2960,67.0,0,120,3.0,64.0
2961,60.0,0,120,3.0,64.0
2962,60.0,0,120,4.0,64.0
2963,75.0,0,120,11.0,64.0
2964,75.0,115,120,2.0,64.0
2965,75.0,0,120,0.0,64.0
2966,62.0,0,120,3.0,64.0
2967,74.0,0,120,0.0,64.0
2968,65.0,0,120,12.0,64.0
2969,74.0,0,120,2.0,64.0
2970,77.0,0,120,2.0,64.0
2971,65.0,115,120,3.0,64.0
2972,62.0,0,120,4.0,64.0
2973,50.0,0,120,13.0,64.0
2974,74.0,5,120,11.0,64.0
2975,72.0,0,360,2.0,64.0
2976,63.0,0,120,4.0,64.0
2977,72.0,5,360,11.0,64.0
2978,75.0,0,120,2.0,64.0
2979,72.0,0,360,0.0,64.0
2980,51.0,0,120,13.0,64.0
2981,63.0,0,120,3.0,64.0
2982,63.0,5,120,12.0,64.0
2983,62.0,0,480,12.0,64.0
2984,65.0,115,120,3.0,64.0
2985,74.0,0,480,2.0,64.0
2986,53.0,5,120,13.0,64.0
2987,59.0,0,390,5.0,64.0
2988,59.0,0,390,7.0,64.0
2989,65.0,0,120,4.0,64.0
2990,62.0,0,480,3.0,64.0
2991,68.0,0,120,3.0,64.0
2992,56.0,0,120,13.0,64.0
2993,68.0,120,120,4.0,64.0
2994,67.0,40,120,3.0,64.0
2995,55.0,0,120,13.0,64.0
2996,67.0,0,120,4.0,64.0
2997,71.0,0,240,2.0,64.0
2998,71.0,0,240,11.0,64.0
2999,71.0,0,240,0.0,64.0
3000,53.0,5,120,13.0,64.0
3001,65.0,0,120,4.0,64.0
3002,65.0,115,120,3.0,64.0
3003,36.0,0,390,15.0,64.0
3004,60.0,0,390,6.0,64.0
3005,63.0,0,390,5.0,64.0
3006,60.0,0,390,5.0,64.0
3007,72.0,0,120,2.0,64.0
3008,36.0,0,390,8.0,64.0
3009,63.0,0,390,7.0,64.0
3010,60.0,0,390,7.0,64.0
3011,55.0,75,390,7.0,64.0
3012,36.0,0,390,14.0,64.0
3013,63.0,5,240,4.0,64.0
3014,72.0,0,390,0.0,64.0
3015,60.0,120,120,12.0,64.0
3016,51.0,120,240,13.0,64.0
3017,60.0,0,120,3.0,64.0
3018,72.0,0,390,11.0,64.0
3019,63.0,0,240,3.0,64.0
3020,60.0,0,120,12.0,64.0
3021,72.0,0,120,2.0,64.0
3022,60.0,0,120,3.0,64.0
3023,75.0,0,120,2.0,64.0
3024,60.0,0,240,4.0,64.0
3025,63.0,0,120,3.0,64.0
3026,63.0,40,120,12.0,64.0
3027,48.0,5,240,13.0,64.0
3028,60.0,0,120,3.0,64.0
3029,60.0,0,120,12.0,64.0
3030,72.0,0,30,2.0,64.0
3031,67.0,115,360,3.0,64.0
3032,79.0,0,360,2.0,64.0
3033,67.0,0,360,12.0,64.0
3034,55.0,0,120,3.0,64.0
3035,55.0,0,120,4.0,64.0
3036,55.0,120,120,13.0,64.0
3037,59.0,0,120,4.0,64.0
3038,59.0,0,120,3.0,64.0
3039,59.0,0,120,13.0,64.0
3040,77.0,0,120,2.0,64.0
3041,65.0,35,120,12.0,64.0
3042,55.0,0,120,4.0,64.0
3043,55.0,0,120,13.0,64.0
3044,55.0,0,120,3.0,64.0
3045,65.0,0,120,3.0,64.0
3046,63.0,0,30,3.0,64.0
3047,60.0,0,60,3.0,64.0
3048,60.0,30,60,13.0,64.0
3049,60.0,0,60,4.0,64.0
3050,63.0,30,30,12.0,64.0
3051,75.0,0,30,2.0,64.0
3052,77.0,0,30,2.0,64.0
3053,65.0,0,30,3.0,64.0
3054,65.0,0,30,12.0,64.0
3055,62.0,0,60,4.0,64.0
3056,75.0,0,30,2.0,64.0
3057,63.0,0,30,12.0,64.0
3058,62.0,0,60,3.0,64.0
3059,63.0,30,30,3.0,64.0
3060,62.0,30,60,13.0,64.0
3061,65.0,0,30,12.0,64.0
3062,65.0,0,30,3.0,64.0
3063,77.0,0,30,2.0,64.0
3064,63.0,30,30,3.0,64.0
3065,36.0,0,120,15.0,64.0
3066,63.0,0,30,12.0,64.0
3067,60.0,0,360,4.0,64.0
3068,48.0,0,120,14.0,64.0
3069,75.0,0,30,2.0,64.0
3070,60.0,0,360,13.0,64.0
3071,60.0,0,360,3.0,64.0
3072,65.0,30,30,12.0,64.0
3073,77.0,0,30,2.0,64.0
3074,65.0,0,30,3.0,64.0
3075,63.0,0,30,3.0,64.0
3076,63.0,0,30,12.0,64.0
3077,75.0,30,30,2.0,64.0
3078,65.0,30,30,12.0,64.0
3079,65.0,0,30,3.0,64.0
3080,77.0,0,30,2.0,64.0
3081,63.0,0,240,7.0,64.0
3082,55.0,0,240,7.0,64.0
3083,51.0,30,120,14.0,64.0
3084,39.0,0,120,15.0,64.0
3085,75.0,30,30,2.0,64.0
3086,63.0,0,30,12.0,64.0
3087,72.0,0,240,6.0,64.0
3088,60.0,5,240,7.0,64.0
3089,63.0,0,30,3.0,64.0
3090,60.0,0,240,5.0,64.0
3091,36.0,0,240,8.0,64.0
3092,63.0,0,240,5.0,64.0
3093,65.0,0,30,3.0,64.0
3094,65.0,30,30,12.0,64.0
3095,77.0,0,30,2.0,64.0
3096,75.0,30,30,2.0,64.0
3097,63.0,0,30,3.0,64.0
3098,63.0,0,30,12.0,64.0
3099,65.0,0,30,3.0,64.0
3100,77.0,0,30,2.0,64.0
3101,65.0,0,30,12.0,64.0
3102,75.0,0,30,2.0,64.0
3103,63.0,0,30,3.0,64.0
3104,36.0,0,120,15.0,64.0
3105,48.0,0,120,14.0,64.0
3106,63.0,30,30,12.0,64.0
3107,77.0,0,30,2.0,64.0
3108,65.0,0,30,12.0,64.0
3109,65.0,30,30,3.0,64.0
3110,62.0,0,30,12.0,64.0
3111,62.0,25,30,3.0,64.0
3112,74.0,0,30,2.0,64.0
3113,75.0,0,30,2.0,64.0
3114,63.0,240,30,12.0,64.0
3115,63.0,0,30,3.0,64.0
3116,59.0,0,390,13.0,64.0
3117,67.0,0,390,6.0,64.0
3118,55.0,0,390,7.0,64.0
3119,62.0,0,390,3.0,64.0
3120,59.0,0,390,7.0,64.0
3121,62.0,0,390,7.0,64.0
3122,43.0,0,390,8.0,64.0
3123,59.0,75,390,4.0,64.0
3124,55.0,0,390,14.0,64.0
3125,43.0,0,390,15.0,64.0
3126,62.0,0,390,12.0,64.0
3127,74.0,0,390,2.0,64.0
3128,59.0,0,390,3.0,64.0
3129,62.0,0,390,5.0,64.0
3130,59.0,0,390,5.0,64.0
3131,67.0,0,120,11.0,64.0
3132,67.0,0,120,0.0,64.0
3133,67.0,120,120,2.0,64.0
3134,79.0,0,120,0.0,64.0
3135,71.0,0,120,11.0,64.0
3136,83.0,0,120,0.0,64.0
3137,71.0,40,120,2.0,64.0
3138,71.0,0,120,0.0,64.0
3139,67.0,240,120,0.0,64.0
3140,67.0,0,120,2.0,64.0
3141,67.0,5,120,11.0,64.0
3142,79.0,0,120,0.0,64.0
3143,74.0,0,390,0.0,64.0
3144,74.0,0,390,11.0,64.0
3145,74.0,0,390,2.0,64.0
3146,86.0,75,390,0.0,64.0
3147,55.0,0,120,4.0,64.0
3148,55.0,0,120,3.0,64.0
3149,55.0,120,120,13.0,64.0
3150,59.0,0,120,4.0,64.0
3151,79.0,0,630,2.0,64.0
3152,67.0,0,630,3.0,64.0
3153,59.0,0,120,13.0,64.0
3154,59.0,40,120,3.0,64.0
3155,67.0,0,630,12.0,64.0
3156,55.0,5,120,13.0,64.0
3157,55.0,240,120,4.0,64.0
3158,55.0,0,120,3.0,64.0
3159,75.0,0,870,0.0,64.0
3160,60.0,75,390,13.0,64.0
3161,87.0,0,870,0.0,64.0
3162,75.0,0,870,11.0,64.0
3163,75.0,0,870,2.0,64.0
3164,60.0,0,390,4.0,64.0
3165,60.0,0,390,3.0,64.0
3166,39.0,120,120,15.0,64.0
3167,51.0,0,120,14.0,64.0
3168,63.0,0,240,5.0,64.0
3169,63.0,0,240,6.0,64.0
3170,60.0,0,240,5.0,64.0
3171,55.0,0,120,14.0,64.0
3172,39.0,0,240,8.0,64.0
3173,51.0,0,240,7.0,64.0
3174,60.0,0,240,7.0,64.0
3175,55.0,245,240,7.0,64.0
3176,43.0,40,120,15.0,64.0
3177,51.0,0,120,14.0,64.0
3178,39.0,0,120,15.0,64.0
3179,65.0,0,390,6.0,64.0
3180,41.0,0,390,8.0,64.0
3181,60.0,0,390,5.0,64.0
3182,80.0,0,390,2.0,64.0
3183,65.0,0,390,5.0,64.0
3184,56.0,0,390,7.0,64.0
3185,60.0,75,390,7.0,64.0
3186,53.0,0,390,7.0,64.0
3187,68.0,0,390,12.0,64.0
3188,53.0,0,390,14.0,64.0
3189,68.0,0,390,3.0,64.0
3190,41.0,0,390,15.0,64.0
3191,60.0,0,120,3.0,64.0
3192,60.0,120,120,13.0,64.0
3193,60.0,0,120,4.0,64.0
3194,63.0,0,120,4.0,64.0
3195,63.0,0,120,3.0,64.0
3196,63.0,40,120,13.0,64.0
3197,60.0,240,120,3.0,64.0
3198,60.0,0,120,4.0,64.0
3199,60.0,5,120,13.0,64.0
3200,65.0,0,480,13.0,64.0
3201,65.0,0,480,3.0,64.0
3202,65.0,240,480,4.0,64.0
3203,85.0,120,120,0.0,64.0
3204,73.0,0,120,0.0,64.0
3205,73.0,0,120,2.0,64.0
3206,73.0,0,120,11.0,64.0
3207,77.0,0,120,2.0,64.0
3208,89.0,115,120,0.0,64.0
3209,77.0,0,120,0.0,64.0
3210,77.0,0,120,11.0,64.0
3211,73.0,0,990,0.0,64.0
3212,73.0,5,120,11.0,64.0
3213,73.0,0,990,2.0,64.0
3214,85.0,0,990,0.0,64.0
3215,67.0,0,390,3.0,64.0
3216,70.0,0,390,3.0,64.0
3217,67.0,0,390,13.0,64.0
3218,70.0,75,390,12.0,64.0
3219,73.0,0,870,11.0,64.0
3220,67.0,0,390,4.0,64.0
3221,82.0,0,390,2.0,64.0
3222,43.0,120,120,15.0,64.0
3223,55.0,0,120,14.0,64.0
3224,43.0,0,240,8.0,64.0
3225,61.0,0,240,5.0,64.0
3226,58.0,40,120,14.0,64.0
3227,46.0,0,120,15.0,64.0
3228,58.0,245,240,5.0,64.0
3229,58.0,0,240,7.0,64.0
3230,49.0,0,240,7.0,64.0
3231,55.0,0,240,7.0,64.0
3232,67.0,0,240,6.0,64.0
3233,43.0,0,120,15.0,64.0
3234,55.0,0,120,14.0,64.0
3235,60.0,0,390,7.0,64.0
3236,56.0,0,390,14.0,64.0
3237,51.0,0,390,7.0,64.0
3238,44.0,0,390,8.0,64.0
3239,63.0,0,390,5.0,64.0
3240,68.0,0,390,6.0,64.0
3241,44.0,75,390,15.0,64.0
3242,56.0,0,390,7.0,64.0
3243,60.0,0,390,5.0,64.0
3244,63.0,120,120,3.0,64.0
3245,75.0,0,120,2.0,64.0
3246,63.0,0,120,12.0,64.0
3247,67.0,0,120,12.0,64.0
3248,79.0,40,120,2.0,64.0
3249,67.0,0,120,3.0,64.0
3250,63.0,0,120,3.0,64.0
3251,63.0,5,120,12.0,64.0
3252,75.0,240,120,2.0,64.0
3253,68.0,0,840,12.0,64.0
3254,68.0,0,870,2.0,64.0
3255,68.0,75,870,3.0,64.0
3256,84.0,0,390,0.0,64.0
3257,72.0,75,390,2.0,64.0
3258,72.0,0,390,0.0,64.0
3259,72.0,0,480,11.0,64.0
3260,60.0,0,120,13.0,64.0
3261,60.0,0,120,4.0,64.0
3262,60.0,120,120,3.0,64.0
3263,63.0,0,120,4.0,64.0
3264,63.0,40,120,3.0,64.0
3265,63.0,0,120,13.0,64.0
3266,60.0,0,120,4.0,64.0
3267,60.0,5,120,13.0,64.0
3268,60.0,240,120,3.0,64.0
3269,86.0,0,390,0.0,64.0
3270,65.0,0,390,4.0,64.0
3271,74.0,0,390,0.0,64.0
3272,74.0,0,390,2.0,64.0
3273,65.0,115,480,13.0,64.0
3274,65.0,0,390,3.0,64.0
3275,74.0,0,390,11.0,64.0
3276,41.0,0,120,15.0,64.0
3277,53.0,120,120,14.0,64.0
3278,56.0,40,120,14.0,64.0
3279,41.0,0,240,8.0,64.0
3280,53.0,5,240,7.0,64.0
3281,65.0,0,240,5.0,64.0
3282,56.0,0,240,7.0,64.0
3283,60.0,0,240,7.0,64.0
3284,65.0,0,240,6.0,64.0
3285,44.0,0,120,15.0,64.0
3286,60.0,0,240,5.0,64.0
3287,53.0,0,120,14.0,64.0
3288,41.0,0,120,15.0,64.0
3289,83.0,0,390,0.0,64.0
3290,43.0,0,390,8.0,64.0
3291,67.0,0,390,6.0,64.0
3292,62.0,0,390,7.0,64.0
3293,59.0,0,390,7.0,64.0
3294,71.0,0,390,2.0,64.0
3295,55.0,0,390,7.0,64.0
3296,62.0,0,120,4.0,64.0
3297,71.0,0,390,11.0,64.0
3298,62.0,5,120,13.0,64.0
3299,67.0,0,390,3.0,64.0
3300,67.0,0,390,2.0,64.0
3301,43.0,0,390,15.0,64.0
3302,62.0,0,390,5.0,64.0
3303,67.0,75,390,12.0,64.0
3304,62.0,120,120,3.0,64.0
3305,71.0,0,390,0.0,64.0
3306,55.0,0,390,14.0,64.0
3307,67.0,0,390,5.0,64.0
3308,55.0,0,120,4.0,64.0
3309,55.0,0,120,3.0,64.0
3310,55.0,120,120,13.0,64.0
3311,59.0,0,120,4.0,64.0
3312,59.0,40,120,3.0,64.0
3313,59.0,0,120,13.0,64.0
3314,55.0,0,120,4.0,64.0
3315,55.0,120,120,3.0,64.0
3316,55.0,5,120,13.0,64.0
3317,62.0,120,120,4.0,64.0
3318,62.0,0,120,13.0,64.0
3319,62.0,0,120,3.0,64.0
3320,59.0,0,120,3.0,64.0
3321,67.0,0,120,2.0,64.0
3322,67.0,0,120,3.0,64.0
3323,59.0,120,120,13.0,64.0
3324,59.0,0,120,4.0,64.0
3325,67.0,0,120,12.0,64.0
3326,62.0,115,120,4.0,64.0
3327,71.0,0,120,12.0,64.0
3328,71.0,0,120,2.0,64.0
3329,62.0,0,120,3.0,64.0
3330,71.0,0,120,3.0,64.0
3331,62.0,0,120,13.0,64.0
3332,67.0,0,120,12.0,64.0
3333,67.0,0,120,3.0,64.0
3334,59.0,125,120,13.0,64.0
3335,67.0,0,120,2.0,64.0
3336,59.0,0,120,4.0,64.0
3337,59.0,0,120,3.0,64.0
3338,65.0,0,480,13.0,64.0
3339,74.0,120,120,2.0,64.0
3340,65.0,115,480,4.0,64.0
3341,74.0,0,120,3.0,64.0
3342,74.0,0,120,12.0,64.0
3343,65.0,0,480,3.0,64.0
3344,71.0,120,120,3.0,64.0
3345,71.0,0,120,12.0,64.0
3346,38.0,0,120,15.0,64.0
3347,50.0,0,120,14.0,64.0
3348,71.0,0,120,2.0,64.0
3349,74.0,115,120,2.0,64.0
3350,74.0,0,120,12.0,64.0
3351,41.0,0,120,15.0,64.0
3352,53.0,0,120,14.0,64.0
3353,62.0,0,240,5.0,64.0
3354,65.0,0,240,5.0,64.0
3355,62.0,0,240,7.0,64.0
3356,59.0,0,240,7.0,64.0
3357,74.0,0,120,3.0,64.0
3358,38.0,0,240,8.0,64.0
3359,62.0,0,240,6.0,64.0
3360,53.0,0,240,7.0,64.0
3361,38.0,5,120,15.0,64.0
3362,71.0,0,120,12.0,64.0
3363,50.0,0,120,14.0,64.0
3364,71.0,0,120,2.0,64.0
3365,71.0,0,120,3.0,64.0
3366,39.0,0,390,15.0,64.0
3367,67.0,0,390,5.0,64.0
3368,67.0,125,120,3.0,64.0
3369,63.0,0,390,6.0,64.0
3370,72.0,0,390,3.0,64.0
3371,55.0,75,390,7.0,64.0
3372,63.0,0,390,5.0,64.0
3373,72.0,0,390,2.0,64.0
3374,72.0,0,390,12.0,64.0
3375,67.0,0,120,13.0,64.0
3376,39.0,0,390,8.0,64.0
3377,51.0,0,390,14.0,64.0
3378,67.0,0,120,4.0,64.0
3379,60.0,0,390,7.0,64.0
3380,63.0,0,390,7.0,64.0
3381,55.0,120,120,13.0,64.0
3382,55.0,0,120,3.0,64.0
3383,55.0,0,120,4.0,64.0
3384,59.0,0,120,4.0,64.0
3385,59.0,40,120,13.0,64.0
3386,59.0,0,120,3.0,64.0
3387,55.0,240,120,4.0,64.0
3388,55.0,5,120,13.0,64.0
3389,55.0,0,120,3.0,64.0
3390,60.0,75,390,13.0,64.0
3391,60.0,0,390,4.0,64.0
3392,60.0,0,390,3.0,64.0
3393,63.0,120,120,3.0,64.0
3394,72.0,0,120,0.0,64.0
3395,84.0,0,120,0.0,64.0
3396,72.0,0,120,2.0,64.0
3397,72.0,0,120,11.0,64.0
3398,63.0,0,120,12.0,64.0
3399,75.0,0,15,2.0,64.0
3400,87.0,40,120,0.0,64.0
3401,75.0,0,120,11.0,64.0
3402,67.0,0,120,3.0,64.0
3403,79.0,0,120,2.0,64.0
3404,75.0,0,120,0.0,64.0
3405,67.0,0,120,12.0,64.0
3406,63.0,5,120,3.0,64.0
3407,63.0,0,120,12.0,64.0
3408,75.0,0,120,2.0,64.0
3409,72.0,0,120,0.0,64.0
3410,72.0,0,120,2.0,64.0
3411,72.0,0,120,11.0,64.0
3412,84.0,120,120,0.0,64.0
3413,77.0,0,120,2.0,64.0
3414,68.0,75,390,12.0,64.0
3415,77.0,0,120,11.0,64.0
3416,77.0,0,120,0.0,64.0
3417,68.0,0,480,3.0,64.0
3418,89.0,120,120,0.0,64.0
3419,80.0,0,480,2.0,64.0
3420,47.0,120,120,14.0,64.0
3421,74.0,0,120,0.0,64.0
3422,74.0,0,120,2.0,64.0
3423,74.0,0,120,11.0,64.0
3424,35.0,0,120,15.0,64.0
3425,86.0,0,120,0.0,64.0
3426,55.0,0,240,7.0,64.0
3427,71.0,0,240,6.0,64.0
3428,62.0,5,240,5.0,64.0
3429,59.0,0,240,7.0,64.0
3430,62.0,0,240,7.0,64.0
3431,67.0,0,240,5.0,64.0
3432,77.0,0,120,2.0,64.0
3433,35.0,0,240,8.0,64.0
3434,77.0,0,120,0.0,64.0
3435,89.0,0,120,0.0,64.0
3436,38.0,40,120,15.0,64.0
3437,50.0,0,120,14.0,64.0
3438,77.0,0,120,11.0,64.0
3439,47.0,0,120,14.0,64.0
3440,86.0,0,120,0.0,64.0
3441,74.0,0,120,2.0,64.0
3442,74.0,240,120,0.0,64.0
3443,74.0,0,120,11.0,64.0
3444,35.0,0,120,15.0,64.0
3445,72.0,0,390,6.0,64.0
3446,67.0,0,390,5.0,64.0
3447,87.0,0,390,0.0,64.0
3448,79.0,0,390,2.0,64.0
3449,67.0,0,390,12.0,64.0
3450,63.0,0,390,7.0,64.0
3451,60.0,0,390,7.0,64.0
3452,63.0,75,390,5.0,64.0
3453,75.0,0,390,0.0,64.0
3454,36.0,0,390,8.0,64.0
3455,75.0,0,390,2.0,64.0
3456,55.0,0,390,7.0,64.0
3457,67.0,0,390,3.0,64.0
3458,75.0,0,390,11.0,64.0
3459,36.0,0,390,15.0,64.0
3460,48.0,0,390,14.0,64.0
3461,55.0,0,120,3.0,64.0
3462,55.0,120,120,13.0,64.0
3463,55.0,0,120,4.0,64.0
3464,59.0,40,120,3.0,64.0
3465,59.0,0,120,13.0,64.0
3466,59.0,0,120,4.0,64.0
3467,55.0,0,120,4.0,64.0
3468,55.0,5,120,13.0,64.0
3469,55.0,240,120,3.0,64.0
3470,60.0,0,390,4.0,64.0
3471,60.0,75,390,3.0,64.0
3472,60.0,0,390,13.0,64.0
3473,75.0,0,120,2.0,64.0
3474,72.0,0,120,0.0,64.0
3475,63.0,0,120,3.0,64.0
3476,84.0,120,120,0.0,64.0
3477,72.0,0,120,2.0,64.0
3478,72.0,0,120,11.0,64.0
3479,63.0,0,120,12.0,64.0
3480,79.0,0,120,2.0,64.0
3481,67.0,0,120,3.0,64.0
3482,67.0,40,120,12.0,64.0
3483,75.0,0,120,11.0,64.0
3484,75.0,0,120,0.0,64.0
3485,75.0,0,120,2.0,64.0
3486,87.0,0,120,0.0,64.0
3487,72.0,0,120,11.0,64.0
3488,63.0,0,120,12.0,64.0
3489,63.0,5,120,3.0,64.0
3490,72.0,0,120,2.0,64.0
3491,72.0,120,120,0.0,64.0
3492,84.0,0,120,0.0,64.0
3493,75.0,0,120,2.0,64.0
3494,68.0,75,390,12.0,64.0
3495,80.0,240,480,2.0,64.0
3496,89.0,0,120,0.0,64.0
3497,77.0,0,120,11.0,64.0
3498,77.0,0,120,2.0,64.0
3499,68.0,0,480,3.0,64.0
3500,77.0,120,120,0.0,64.0
3501,74.0,0,120,11.0,64.0
3502,41.0,0,120,14.0,64.0
3503,86.0,120,120,0.0,64.0
3504,41.0,0,120,15.0,64.0
3505,74.0,0,120,0.0,64.0
3506,74.0,0,120,2.0,64.0
3507,60.0,0,240,5.0,64.0
3508,44.0,0,120,15.0,64.0
3509,60.0,0,240,7.0,64.0
3510,56.0,0,240,7.0,64.0
3511,77.0,0,120,2.0,64.0
3512,44.0,40,120,14.0,64.0
3513,53.0,0,240,7.0,64.0
3514,77.0,0,120,11.0,64.0
3515,77.0,0,120,0.0,64.0
3516,41.0,0,240,8.0,64.0
3517,89.0,0,120,0.0,64.0
3518,65.0,0,240,6.0,64.0
3519,65.0,5,240,5.0,64.0
3520,86.0,0,120,0.0,64.0
3521,74.0,0,120,2.0,64.0
3522,74.0,0,120,0.0,64.0
3523,74.0,0,120,11.0,64.0
3524,41.0,0,120,15.0,64.0
3525,41.0,0,120,14.0,64.0
3526,87.0,0,390,0.0,64.0
3527,67.0,0,390,3.0,64.0
3528,62.0,0,390,7.0,64.0
3529,60.0,0,390,7.0,64.0
3530,55.0,0,390,7.0,64.0
3531,75.0,0,390,2.0,64.0
3532,67.0,0,390,5.0,64.0
3533,43.0,0,390,15.0,64.0
3534,75.0,0,390,0.0,64.0
3535,43.0,0,390,8.0,64.0
3536,75.0,0,390,11.0,64.0
3537,67.0,0,390,12.0,64.0
3538,67.0,0,390,6.0,64.0
3539,79.0,0,390,2.0,64.0
3540,62.0,0,390,5.0,64.0
3541,43.0,75,390,14.0,64.0
3542,55.0,0,120,3.0,64.0
3543,55.0,0,120,4.0,64.0
3544,55.0,120,120,13.0,64.0
3545,59.0,0,120,13.0,64.0
3546,59.0,40,120,3.0,64.0
3547,59.0,0,120,4.0,64.0
3548,55.0,0,120,4.0,64.0
3549,55.0,0,120,3.0,64.0
3550,55.0,245,120,13.0,64.0
3551,60.0,0,840,13.0,64.0
3552,60.0,0,840,3.0,64.0
3553,60.0,5,840,4.0,64.0
3554,72.0,0,120,2.0,64.0
3555,75.0,0,120,2.0,64.0
3556,75.0,0,120,3.0,64.0
3557,72.0,120,120,11.0,64.0
3558,72.0,0,120,0.0,64.0
3559,84.0,0,120,0.0,64.0
3560,63.0,0,120,12.0,64.0
3561,75.0,115,120,11.0,64.0
3562,79.0,0,120,2.0,64.0
3563,87.0,0,120,0.0,64.0
3564,79.0,0,120,3.0,64.0
3565,75.0,0,120,0.0,64.0
3566,67.0,0,120,12.0,64.0
3567,63.0,5,120,12.0,64.0
3568,72.0,0,120,11.0,64.0
3569,75.0,0,15,2.0,64.0
3570,72.0,120,120,2.0,64.0
3571,72.0,0,120,0.0,64.0
3572,75.0,0,120,3.0,64.0
3573,84.0,0,120,0.0,64.0
3574,74.0,0,480,3.0,64.0
3575,77.0,0,120,2.0,64.0
3576,77.0,0,120,0.0,64.0
3577,77.0,0,120,11.0,64.0
3578,62.0,75,390,12.0,64.0
3579,89.0,120,120,0.0,64.0
3580,74.0,0,120,11.0,64.0
3581,86.0,0,120,0.0,64.0
3582,43.0,0,120,15.0,64.0
3583,43.0,115,120,14.0,64.0
3584,74.0,0,120,2.0,64.0
3585,74.0,0,120,0.0,64.0
3586,41.0,0,120,14.0,64.0
3587,77.0,0,120,11.0,64.0
3588,67.0,0,240,6.0,64.0
3589,43.0,0,240,8.0,64.0
3590,89.0,0,120,0.0,64.0
3591,41.0,0,120,15.0,64.0
3592,62.0,0,240,5.0,64.0
3593,67.0,0,240,5.0,64.0
3594,62.0,0,240,7.0,64.0
3595,59.0,5,240,7.0,64.0
3596,77.0,40,120,2.0,64.0
3597,55.0,0,240,7.0,64.0
3598,77.0,0,120,0.0,64.0
3599,86.0,0,120,0.0,64.0
3600,74.0,0,120,11.0,64.0
3601,74.0,0,120,0.0,64.0
3602,43.0,0,120,14.0,64.0
3603,43.0,0,120,15.0,64.0
3604,59.0,0,120,4.0,64.0
3605,74.0,0,120,2.0,64.0
3606,59.0,0,120,13.0,64.0
3607,59.0,0,120,3.0,64.0
3608,63.0,0,390,7.0,64.0
3609,60.0,0,390,13.0,64.0
3610,87.0,0,120,0.0,64.0
3611,60.0,0,390,7.0,64.0
3612,55.0,0,390,7.0,64.0
3613,75.0,0,120,11.0,64.0
3614,36.0,0,390,15.0,64.0
3615,63.0,0,390,5.0,64.0
3616,60.0,0,390,3.0,64.0
3617,67.0,0,390,5.0,64.0
3618,36.0,75,390,14.0,64.0
3619,75.0,0,120,2.0,64.0
3620,60.0,0,390,12.0,64.0
3621,36.0,0,390,8.0,64.0
3622,72.0,0,390,6.0,64.0
3623,60.0,0,390,4.0,64.0
3624,75.0,120,120,0.0,64.0
3625,72.0,5,240,2.0,64.0
3626,72.0,0,240,3.0,64.0
3627,84.0,0,120,0.0,64.0
3628,96.0,0,120,0.0,64.0
3629,84.0,120,120,11.0,64.0
3630,84.0,0,120,2.0,64.0
3631,82.0,0,120,11.0,64.0
3632,70.0,0,120,3.0,64.0
3633,94.0,0,120,0.0,64.0
3634,70.0,0,120,2.0,64.0
3635,82.0,40,120,2.0,64.0
3636,82.0,0,120,0.0,64.0
3637,80.0,0,120,0.0,64.0
3638,80.0,5,120,11.0,64.0
3639,92.0,0,120,0.0,64.0
3640,68.0,0,120,3.0,64.0
3641,80.0,120,120,2.0,64.0
3642,68.0,0,120,2.0,64.0
3643,67.0,120,120,3.0,64.0
3644,91.0,0,120,0.0,64.0
3645,67.0,0,120,2.0,64.0
3646,79.0,0,120,11.0,64.0
3647,79.0,0,120,0.0,64.0
3648,79.0,0,120,2.0,64.0
3649,77.0,0,120,2.0,64.0
3650,77.0,120,120,0.0,64.0
3651,65.0,0,120,2.0,64.0
3652,77.0,0,120,11.0,64.0
3653,65.0,0,120,3.0,64.0
3654,89.0,0,120,0.0,64.0
3655,87.0,0,120,0.0,64.0
3656,63.0,0,120,2.0,64.0
3657,75.0,0,120,2.0,64.0
3658,75.0,0,120,11.0,64.0
3659,75.0,0,120,0.0,64.0
3660,63.0,115,120,3.0,64.0
3661,74.0,0,120,11.0,64.0
3662,74.0,0,120,0.0,64.0
3663,86.0,125,120,0.0,64.0
3664,62.0,0,120,2.0,64.0
3665,62.0,0,120,3.0,64.0
3666,74.0,0,120,2.0,64.0
3667,72.0,120,120,0.0,64.0
3668,48.0,0,390,4.0,64.0
3669,72.0,0,120,2.0,64.0
3670,72.0,75,390,6.0,64.0
3671,60.0,0,390,6.0,64.0
3672,67.0,0,390,12.0,64.0
3673,72.0,0,120,11.0,64.0
3674,67.0,0,390,5.0,64.0
3675,36.0,0,390,8.0,64.0
3676,60.0,0,390,7.0,64.0
3677,72.0,0,120,3.0,64.0
3678,55.0,0,390,7.0,64.0
3679,63.0,0,390,13.0,64.0
3680,48.0,0,390,14.0,64.0
3681,84.0,0,120,0.0,64.0
3682,63.0,0,390,5.0,64.0
3683,36.0,0,390,15.0,64.0
3684,63.0,0,390,3.0,64.0
3685,48.0,0,390,7.0,64.0
3686,75.0,0,120,2.0,64.0
3687,75.0,0,120,3.0,64.0
3688,87.0,120,120,0.0,64.0
3689,75.0,0,120,11.0,64.0
3690,75.0,0,120,0.0,64.0
3691,74.0,40,120,0.0,64.0
3692,74.0,0,120,3.0,64.0
3693,86.0,0,120,0.0,64.0
3694,74.0,0,120,2.0,64.0
3695,74.0,0,120,11.0,64.0
3696,72.0,0,120,2.0,64.0
3697,72.0,0,120,3.0,64.0
3698,84.0,0,120,0.0,64.0
3699,72.0,120,120,0.0,64.0
3700,72.0,5,120,11.0,64.0
3701,43.0,0,390,15.0,64.0
3702,55.0,0,390,4.0,64.0
3703,62.0,0,390,5.0,64.0
3704,83.0,0,120,0.0,64.0
3705,67.0,0,390,12.0,64.0
3706,71.0,120,120,11.0,64.0
3707,55.0,0,390,14.0,64.0
3708,62.0,0,390,3.0,64.0
3709,62.0,0,390,13.0,64.0
3710,43.0,0,390,8.0,64.0
3711,55.0,75,390,7.0,64.0
3712,59.0,0,390,7.0,64.0
3713,71.0,0,120,2.0,64.0
3714,67.0,0,390,6.0,64.0
3715,71.0,0,120,3.0,64.0
3716,71.0,0,120,0.0,64.0
3717,67.0,0,390,5.0,64.0
3718,79.0,0,390,6.0,64.0
3719,62.0,0,390,7.0,64.0
3720,72.0,0,120,3.0,64.0
3721,72.0,0,120,2.0,64.0
3722,72.0,0,120,11.0,64.0
3723,72.0,120,120,0.0,64.0
3724,84.0,0,120,0.0,64.0
3725,71.0,0,120,11.0,64.0
3726,83.0,0,120,0.0,64.0
3727,71.0,0,120,2.0,64.0
3728,71.0,40,120,3.0,64.0
3729,71.0,0,120,0.0,64.0
3730,69.0,0,120,0.0,64.0
3731,69.0,5,120,11.0,64.0
3732,69.0,0,120,3.0,64.0
3733,81.0,0,120,0.0,64.0
3734,69.0,120,120,2.0,64.0
3735,67.0,0,120,11.0,64.0
3736,79.0,0,120,3.0,64.0
3737,79.0,120,120,2.0,64.0
3738,79.0,0,120,0.0,64.0
3739,77.0,0,120,3.0,64.0
3740,77.0,0,120,2.0,64.0
3741,65.0,0,120,11.0,64.0
3742,77.0,0,120,0.0,64.0
3743,75.0,0,120,3.0,64.0
3744,63.0,120,120,11.0,64.0
3745,75.0,0,120,2.0,64.0
3746,75.0,0,120,0.0,64.0
3747,74.0,115,120,3.0,64.0
3748,74.0,0,120,2.0,64.0
3749,74.0,0,120,0.0,64.0
3750,62.0,0,120,11.0,64.0
3751,67.0,0,390,12.0,64.0
3752,51.0,0,390,14.0,64.0
3753,75.0,0,390,6.0,64.0
3754,60.0,75,390,13.0,64.0
3755,39.0,0,390,8.0,64.0
3756,63.0,0,390,6.0,64.0
3757,67.0,0,390,5.0,64.0
3758,63.0,0,390,5.0,64.0
3759,60.0,0,390,7.0,64.0
3760,55.0,0,390,7.0,64.0
3761,51.0,0,390,7.0,64.0
3762,60.0,0,390,3.0,64.0
3763,51.0,0,390,4.0,64.0
3764,72.0,0,120,2.0,64.0
3765,60.0,0,120,11.0,64.0
3766,72.0,0,120,0.0,64.0
3767,39.0,0,390,15.0,64.0
3768,72.0,0,120,3.0,64.0
3769,82.0,0,120,11.0,64.0
3770,82.0,0,120,2.0,64.0
3771,70.0,120,120,2.0,64.0
3772,70.0,0,120,3.0,64.0
3773,82.0,0,120,0.0,64.0
3774,80.0,0,120,2.0,64.0
3775,80.0,0,120,0.0,64.0
3776,68.0,40,120,3.0,64.0
3777,80.0,0,120,11.0,64.0
3778,68.0,0,120,2.0,64.0
3779,67.0,120,120,2.0,64.0
3780,79.0,0,120,0.0,64.0
3781,79.0,5,120,11.0,64.0
3782,67.0,0,120,3.0,64.0
3783,79.0,0,120,2.0,64.0
3784,60.0,0,390,13.0,64.0
3785,41.0,0,390,8.0,64.0
3786,53.0,0,390,7.0,64.0
3787,41.0,75,390,15.0,64.0
3788,60.0,0,390,3.0,64.0
3789,80.0,0,120,2.0,64.0
3790,68.0,0,120,2.0,64.0
3791,80.0,0,120,0.0,64.0
3792,53.0,0,390,4.0,64.0
3793,53.0,0,390,14.0,64.0
3794,65.0,0,390,12.0,64.0
3795,65.0,0,390,6.0,64.0
3796,77.0,0,390,6.0,64.0
3797,68.0,0,120,3.0,64.0
3798,56.0,0,390,7.0,64.0
3799,80.0,120,120,11.0,64.0
3800,60.0,0,390,5.0,64.0
3801,65.0,0,390,5.0,64.0
3802,60.0,0,390,7.0,64.0
3803,70.0,0,120,2.0,64.0
3804,82.0,120,120,2.0,64.0
3805,82.0,0,120,11.0,64.0
3806,82.0,0,120,0.0,64.0
3807,70.0,0,120,3.0,64.0
3808,68.0,40,120,3.0,64.0
3809,68.0,0,120,2.0,64.0
3810,80.0,0,120,11.0,64.0
3811,80.0,0,120,0.0,64.0
3812,80.0,0,120,2.0,64.0
3813,79.0,5,120,11.0,64.0
3814,79.0,120,120,2.0,64.0
3815,67.0,0,120,2.0,64.0
3816,67.0,0,120,3.0,64.0
3817,79.0,0,120,0.0,64.0
3818,77.0,0,120,11.0,64.0
3819,65.0,120,120,2.0,64.0
3820,77.0,0,120,2.0,64.0
3821,77.0,0,120,0.0,64.0
3822,65.0,0,120,3.0,64.0
3823,75.0,0,120,2.0,64.0
3824,75.0,0,120,11.0,64.0
3825,63.0,0,120,3.0,64.0
3826,75.0,0,120,0.0,64.0
3827,63.0,120,120,2.0,64.0
3828,74.0,0,120,3.0,64.0
3829,74.0,115,120,2.0,64.0
3830,74.0,0,120,0.0,64.0
3831,62.0,0,120,2.0,64.0
3832,74.0,0,120,11.0,64.0
3833,72.0,0,120,3.0,64.0
3834,72.0,0,120,0.0,64.0
3835,72.0,5,120,11.0,64.0
3836,72.0,0,120,2.0,64.0
3837,60.0,0,120,2.0,64.0
3838,71.0,0,120,11.0,64.0
3839,67.0,0,390,13.0,64.0
3840,62.0,0,390,3.0,64.0
3841,71.0,0,120,3.0,64.0
3842,59.0,0,390,5.0,64.0
3843,43.0,0,390,8.0,64.0
3844,43.0,0,390,15.0,64.0
3845,55.0,0,390,7.0,64.0
3846,59.0,120,120,2.0,64.0
3847,67.0,0,390,5.0,64.0
3848,83.0,0,120,0.0,64.0
3849,67.0,0,390,6.0,64.0
3850,65.0,0,390,12.0,64.0
3851,55.0,0,390,4.0,64.0
3852,55.0,0,390,14.0,64.0
3853,59.0,0,390,7.0,64.0
3854,71.0,0,120,2.0,64.0
3855,71.0,0,120,0.0,64.0
3856,62.0,75,390,7.0,64.0
3857,79.0,0,390,6.0,64.0
3858,74.0,0,120,3.0,64.0
3859,74.0,0,120,11.0,64.0
3860,86.0,0,120,0.0,64.0
3861,74.0,120,120,0.0,64.0
3862,62.0,0,120,2.0,64.0
3863,74.0,0,120,2.0,64.0
3864,72.0,0,120,11.0,64.0
3865,60.0,0,120,2.0,64.0
3866,72.0,0,120,3.0,64.0
3867,84.0,40,120,0.0,64.0
3868,72.0,0,120,2.0,64.0
3869,72.0,0,120,0.0,64.0
3870,71.0,0,120,0.0,64.0
3871,83.0,0,120,0.0,64.0
3872,59.0,0,120,2.0,64.0
3873,71.0,120,120,2.0,64.0
3874,71.0,5,120,11.0,64.0
3875,71.0,0,120,3.0,64.0
3876,72.0,0,120,11.0,64.0
3877,56.0,0,390,4.0,64.0
3878,63.0,0,390,5.0,64.0
3879,60.0,0,390,13.0,64.0
3880,56.0,0,390,14.0,64.0
3881,72.0,120,120,3.0,64.0
3882,44.0,0,390,8.0,64.0
3883,60.0,0,390,3.0,64.0
3884,44.0,0,390,15.0,64.0
3885,60.0,0,390,5.0,64.0
3886,56.0,75,390,7.0,64.0
3887,60.0,0,390,7.0,64.0
3888,63.0,0,390,7.0,64.0
3889,80.0,0,390,6.0,64.0
3890,72.0,0,120,0.0,64.0
3891,84.0,0,120,0.0,64.0
3892,60.0,0,120,2.0,64.0
3893,63.0,0,390,12.0,64.0
3894,68.0,0,390,6.0,64.0
3895,72.0,0,120,2.0,64.0
3896,86.0,0,120,0.0,64.0
3897,74.0,120,120,2.0,64.0
3898,74.0,0,120,11.0,64.0
3899,62.0,0,120,2.0,64.0
3900,74.0,0,120,0.0,64.0
3901,74.0,0,120,3.0,64.0
3902,72.0,0,120,2.0,64.0
3903,72.0,0,120,0.0,64.0
3904,72.0,0,120,3.0,64.0
3905,84.0,40,120,0.0,64.0
3906,72.0,0,120,11.0,64.0
3907,60.0,0,120,2.0,64.0
3908,70.0,0,120,11.0,64.0
3909,70.0,0,120,0.0,64.0
3910,70.0,0,120,2.0,64.0
3911,82.0,0,120,0.0,64.0
3912,58.0,0,120,2.0,64.0
3913,70.0,125,120,3.0,64.0
3914,80.0,0,120,0.0,64.0
3915,68.0,120,120,2.0,64.0
3916,80.0,0,120,3.0,64.0
3917,68.0,0,120,11.0,64.0
3918,80.0,0,120,2.0,64.0
3919,67.0,0,120,11.0,64.0
3920,79.0,0,120,2.0,64.0
3921,67.0,0,120,2.0,64.0
3922,79.0,0,120,0.0,64.0
3923,79.0,0,120,3.0,64.0
3924,77.0,0,120,3.0,64.0
3925,65.0,0,120,2.0,64.0
3926,65.0,0,120,11.0,64.0
3927,77.0,115,120,2.0,64.0
3928,77.0,0,120,0.0,64.0
3929,63.0,0,120,2.0,64.0
3930,75.0,0,120,0.0,64.0
3931,63.0,5,120,11.0,64.0
3932,75.0,0,120,3.0,64.0
3933,75.0,120,120,2.0,64.0
3934,62.0,120,120,2.0,64.0
3935,60.0,0,390,5.0,64.0
3936,74.0,0,120,3.0,64.0
3937,56.0,0,390,7.0,64.0
3938,56.0,0,390,3.0,64.0
3939,41.0,75,390,15.0,64.0
3940,60.0,0,390,7.0,64.0
3941,41.0,0,390,8.0,64.0
3942,74.0,0,120,2.0,64.0
3943,62.0,0,120,11.0,64.0
3944,65.0,0,390,12.0,64.0
3945,74.0,0,120,0.0,64.0
3946,53.0,0,390,14.0,64.0
3947,65.0,0,390,6.0,64.0
3948,56.0,0,390,13.0,64.0
3949,53.0,0,390,7.0,64.0
3950,53.0,0,390,4.0,64.0
3951,77.0,0,390,6.0,64.0
3952,65.0,0,390,5.0,64.0
3953,75.0,0,120,3.0,64.0
3954,75.0,0,120,0.0,64.0
3955,63.0,0,120,11.0,64.0
3956,75.0,120,120,2.0,64.0
3957,63.0,0,120,2.0,64.0
3958,62.0,0,120,2.0,64.0
3959,62.0,40,120,11.0,64.0
3960,74.0,0,120,3.0,64.0
3961,74.0,0,120,2.0,64.0
3962,74.0,0,120,0.0,64.0
3963,72.0,0,120,2.0,64.0
3964,60.0,5,120,11.0,64.0
3965,72.0,0,120,3.0,64.0
3966,72.0,0,120,0.0,64.0
3967,62.0,75,390,5.0,64.0
3968,43.0,0,390,8.0,64.0
3969,59.0,0,390,7.0,64.0
3970,62.0,0,390,7.0,64.0
3971,59.0,0,390,5.0,64.0
3972,55.0,0,390,4.0,64.0
3973,71.0,0,120,0.0,64.0
3974,55.0,0,390,3.0,64.0
3975,59.0,0,120,11.0,64.0
3976,55.0,0,390,14.0,64.0
3977,79.0,0,390,6.0,64.0
3978,67.0,0,390,6.0,64.0
3979,55.0,0,390,7.0,64.0
3980,71.0,0,120,3.0,64.0
3981,62.0,0,390,12.0,64.0
3982,43.0,0,390,15.0,64.0
3983,55.0,0,390,13.0,64.0
3984,71.0,0,120,2.0,64.0
3985,72.0,0,120,3.0,64.0
3986,60.0,120,120,11.0,64.0
3987,72.0,0,120,2.0,64.0
3988,72.0,0,120,0.0,64.0
3989,71.0,0,120,3.0,64.0
3990,71.0,40,120,2.0,64.0
3991,59.0,0,120,11.0,64.0
3992,71.0,0,120,0.0,64.0
3993,57.0,5,120,11.0,64.0
3994,69.0,0,120,3.0,64.0
3995,69.0,120,120,2.0,64.0
3996,69.0,0,120,0.0,64.0
3997,55.0,0,120,11.0,64.0
3998,67.0,0,120,2.0,64.0
3999,67.0,0,120,0.0,64.0
4000,67.0,0,120,3.0,64.0
4001,69.0,0,120,3.0,64.0
4002,69.0,0,120,2.0,64.0
4003,57.0,120,120,11.0,64.0
4004,69.0,0,120,0.0,64.0
4005,71.0,0,120,3.0,64.0
4006,71.0,0,120,2.0,64.0
4007,71.0,0,120,0.0,64.0
4008,59.0,0,120,11.0,64.0
4009,72.0,0,120,2.0,64.0
4010,72.0,0,120,3.0,64.0
4011,60.0,5,120,11.0,64.0
4012,72.0,0,120,0.0,64.0
4013,74.0,0,390,6.0,64.0
4014,53.0,0,390,3.0,64.0
4015,71.0,0,120,3.0,64.0
4016,59.0,0,390,7.0,64.0
4017,53.0,0,390,7.0,64.0
4018,62.0,0,390,12.0,64.0
4019,65.0,0,390,5.0,64.0
4020,71.0,0,120,2.0,64.0
4021,62.0,0,390,6.0,64.0
4022,53.0,75,390,13.0,64.0
4023,50.0,0,390,4.0,64.0
4024,71.0,0,120,0.0,64.0
4025,59.0,120,120,11.0,64.0
4026,50.0,0,390,7.0,64.0
4027,38.0,0,390,15.0,64.0
4028,50.0,0,390,14.0,64.0
4029,59.0,0,390,5.0,64.0
4030,38.0,0,390,8.0,64.0
4031,74.0,0,120,0.0,64.0
4032,74.0,0,120,3.0,64.0
4033,74.0,0,120,2.0,64.0
4034,62.0,0,120,11.0,64.0
4035,72.0,40,120,2.0,64.0
4036,72.0,0,120,3.0,64.0
4037,60.0,0,120,11.0,64.0
4038,72.0,0,120,0.0,64.0
4039,59.0,5,120,11.0,64.0
4040,71.0,0,120,3.0,64.0
4041,71.0,0,120,0.0,64.0
4042,71.0,0,120,2.0,64.0
4043,60.0,0,120,11.0,64.0
4044,51.0,0,390,14.0,64.0
4045,63.0,0,390,6.0,64.0
4046,75.0,0,390,6.0,64.0
4047,51.0,0,390,13.0,64.0
4048,55.0,0,390,3.0,64.0
4049,60.0,0,390,5.0,64.0
4050,55.0,75,390,12.0,64.0
4051,39.0,0,390,8.0,64.0
4052,72.0,120,120,3.0,64.0
4053,55.0,0,390,7.0,64.0
4054,67.0,0,390,5.0,64.0
4055,60.0,0,390,7.0,64.0
4056,39.0,0,390,15.0,64.0
4057,51.0,0,390,4.0,64.0
4058,51.0,0,390,7.0,64.0
4059,72.0,0,120,0.0,64.0
4060,72.0,0,120,2.0,64.0
4061,74.0,0,120,2.0,64.0
4062,62.0,120,120,11.0,64.0
4063,74.0,0,120,3.0,64.0
4064,74.0,0,120,0.0,64.0
4065,63.0,0,120,11.0,64.0
4066,75.0,0,120,2.0,64.0
4067,75.0,0,120,0.0,64.0
4068,75.0,0,120,3.0,64.0
4069,77.0,0,120,2.0,64.0
4070,77.0,0,120,3.0,64.0
4071,77.0,0,120,0.0,64.0
4072,65.0,5,120,11.0,64.0
4073,67.0,0,120,3.0,64.0
4074,67.0,0,120,0.0,64.0
4075,67.0,120,120,2.0,64.0
4076,79.0,0,120,0.0,64.0
4077,67.0,0,120,11.0,64.0
4078,81.0,0,120,0.0,64.0
4079,69.0,120,120,3.0,64.0
4080,69.0,0,120,0.0,64.0
4081,69.0,0,120,11.0,64.0
4082,69.0,0,120,2.0,64.0
4083,71.0,115,120,0.0,64.0
4084,83.0,0,120,0.0,64.0
4085,71.0,0,120,11.0,64.0
4086,71.0,0,120,3.0,64.0
4087,71.0,0,120,2.0,64.0
4088,72.0,0,120,3.0,64.0
4089,72.0,5,120,11.0,64.0
4090,72.0,115,120,2.0,64.0
4091,72.0,0,120,0.0,64.0
4092,84.0,0,120,0.0,64.0
4093,74.0,0,120,2.0,64.0
4094,55.0,0,390,3.0,64.0
4095,47.0,0,390,4.0,64.0
4096,71.0,0,390,6.0,64.0
4097,47.0,0,390,14.0,64.0
4098,86.0,0,120,0.0,64.0
4099,59.0,0,390,6.0,64.0
4100,67.0,0,390,12.0,64.0
4101,74.0,120,120,11.0,64.0
4102,47.0,0,390,7.0,64.0
4103,74.0,0,120,0.0,64.0
4104,35.0,0,390,8.0,64.0
4105,55.0,0,390,13.0,64.0
4106,35.0,75,390,15.0,64.0
4107,74.0,5,120,3.0,64.0
4108,55.0,0,390,7.0,64.0
4109,62.0,0,390,5.0,64.0
4110,67.0,0,390,5.0,64.0
4111,62.0,0,390,7.0,64.0
4112,77.0,0,120,3.0,64.0
4113,77.0,0,120,11.0,64.0
4114,77.0,0,120,2.0,64.0
4115,77.0,0,120,0.0,64.0
4116,75.0,0,120,3.0,64.0
4117,75.0,0,120,11.0,64.0
4118,75.0,0,120,2.0,64.0
4119,75.0,0,120,0.0,64.0
4120,74.0,0,120,3.0,64.0
4121,74.0,5,120,11.0,64.0
4122,74.0,0,120,0.0,64.0
4123,74.0,0,120,2.0,64.0
4124,60.0,0,390,13.0,64.0
4125,75.0,0,120,3.0,64.0
4126,48.0,0,390,4.0,64.0
4127,60.0,0,390,3.0,64.0
4128,60.0,0,390,5.0,64.0
4129,75.0,120,120,11.0,64.0
4130,63.0,0,390,7.0,64.0
4131,55.0,0,390,7.0,64.0
4132,67.0,0,390,12.0,64.0
4133,48.0,0,390,14.0,64.0
4134,75.0,0,120,2.0,64.0
4135,36.0,0,390,8.0,64.0
4136,75.0,0,120,0.0,64.0
4137,60.0,0,390,6.0,64.0
4138,67.0,0,390,5.0,64.0
4139,72.0,75,390,6.0,64.0
4140,48.0,0,390,7.0,64.0
4141,36.0,0,390,15.0,64.0
4142,67.0,0,120,2.0,64.0
4143,79.0,0,120,2.0,64.0
4144,79.0,120,120,11.0,64.0
4145,67.0,0,120,3.0,64.0
4146,79.0,0,120,0.0,64.0
4147,84.0,0,120,0.0,64.0
4148,72.0,0,120,3.0,64.0
4149,84.0,0,120,11.0,64.0
4150,72.0,0,120,2.0,64.0
4151,84.0,40,120,2.0,64.0
4152,70.0,0,120,3.0,64.0
4153,82.0,0,120,0.0,64.0
4154,70.0,120,120,2.0,64.0
4155,82.0,5,120,11.0,64.0
4156,82.0,0,120,2.0,64.0
4157,68.0,0,120,2.0,64.0
4158,80.0,0,120,11.0,64.0
4159,68.0,0,120,3.0,64.0
4160,80.0,0,120,2.0,64.0
4161,80.0,0,120,0.0,64.0
4162,79.0,0,120,2.0,64.0
4163,67.0,120,120,2.0,64.0
4164,79.0,0,120,0.0,64.0
4165,79.0,0,120,11.0,64.0
4166,67.0,0,120,3.0,64.0
4167,77.0,0,120,11.0,64.0
4168,77.0,0,120,2.0,64.0
4169,65.0,0,120,3.0,64.0
4170,77.0,0,120,0.0,64.0
4171,65.0,115,120,2.0,64.0
4172,63.0,125,120,2.0,64.0
4173,63.0,0,120,3.0,64.0
4174,75.0,0,120,2.0,64.0
4175,75.0,0,120,0.0,64.0
4176,75.0,0,120,11.0,64.0
4177,65.0,0,390,5.0,64.0
4178,56.0,0,390,7.0,64.0
4179,60.0,0,390,7.0,64.0
4180,41.0,0,390,4.0,64.0
4181,41.0,75,390,7.0,64.0
4182,60.0,0,390,5.0,64.0
4183,86.0,0,120,0.0,64.0
4184,41.0,0,390,14.0,64.0
4185,62.0,0,120,3.0,64.0
4186,74.0,0,120,0.0,64.0
4187,74.0,0,120,2.0,64.0
4188,65.0,0,390,12.0,64.0
4189,41.0,0,390,8.0,64.0
4190,56.0,0,390,3.0,64.0
4191,74.0,120,120,11.0,64.0
4192,62.0,0,120,2.0,64.0
4193,65.0,0,390,6.0,64.0
4194,56.0,0,390,13.0,64.0
4195,41.0,0,390,15.0,64.0
4196,75.0,0,120,2.0,64.0
4197,63.0,0,120,2.0,64.0
4198,75.0,0,120,0.0,64.0
4199,75.0,120,120,11.0,64.0
4200,87.0,0,120,0.0,64.0
4201,63.0,0,120,3.0,64.0
4202,74.0,0,120,2.0,64.0
4203,62.0,0,120,3.0,64.0
4204,74.0,0,120,11.0,64.0
4205,74.0,0,120,0.0,64.0
4206,86.0,40,120,0.0,64.0
4207,62.0,0,120,2.0,64.0
4208,72.0,5,120,11.0,64.0
4209,72.0,120,120,0.0,64.0
4210,84.0,0,120,0.0,64.0
4211,72.0,0,120,3.0,64.0
4212,72.0,0,120,2.0,64.0
4213,55.0,0,390,13.0,64.0
4214,71.0,120,120,11.0,64.0
4215,83.0,0,120,0.0,64.0
4216,43.0,0,390,14.0,64.0
4217,71.0,0,120,3.0,64.0
4218,62.0,0,390,5.0,64.0
4219,62.0,0,390,12.0,64.0
4220,67.0,0,390,6.0,64.0
4221,71.0,0,120,2.0,64.0
4222,43.0,0,390,8.0,64.0
4223,60.0,0,390,7.0,64.0
4224,55.0,0,390,3.0,64.0
4225,71.0,0,120,0.0,64.0
4226,62.0,0,390,7.0,64.0
4227,43.0,75,390,4.0,64.0
4228,67.0,0,390,5.0,64.0
4229,43.0,0,390,15.0,64.0
4230,43.0,0,390,7.0,64.0
4231,72.0,120,120,11.0,64.0
4232,72.0,0,120,0.0,64.0
4233,72.0,0,120,3.0,64.0
4234,84.0,0,120,0.0,64.0
4235,72.0,0,120,2.0,64.0
4236,74.0,0,120,3.0,64.0
4237,86.0,0,120,0.0,64.0
4238,74.0,0,120,0.0,64.0
4239,74.0,0,120,2.0,64.0
4240,74.0,40,120,11.0,64.0
4241,87.0,0,120,0.0,64.0
4242,75.0,0,120,3.0,64.0
4243,75.0,0,120,2.0,64.0
4244,75.0,5,120,11.0,64.0
4245,75.0,120,120,0.0,64.0
4246,74.0,0,120,3.0,64.0
4247,74.0,0,120,2.0,64.0
4248,74.0,120,120,0.0,64.0
4249,74.0,0,120,11.0,64.0
4250,86.0,0,120,0.0,64.0
4251,72.0,0,120,3.0,64.0
4252,72.0,120,120,11.0,64.0
4253,72.0,0,120,2.0,64.0
4254,84.0,0,120,0.0,64.0
4255,72.0,0,120,0.0,64.0
4256,71.0,0,120,0.0,64.0
4257,83.0,0,120,0.0,64.0
4258,71.0,115,120,3.0,64.0
4259,71.0,0,120,2.0,64.0
4260,71.0,0,120,11.0,64.0
4261,69.0,0,120,0.0,64.0
4262,81.0,0,120,0.0,64.0
4263,69.0,0,120,11.0,64.0
4264,69.0,125,120,2.0,64.0
4265,69.0,0,120,3.0,64.0
4266,67.0,0,120,3.0,64.0
4267,59.0,0,390,3.0,64.0
4268,50.0,0,390,7.0,64.0
4269,59.0,0,390,7.0,64.0
4270,67.0,0,120,0.0,64.0
4271,67.0,0,120,11.0,64.0
4272,59.0,0,390,5.0,64.0
4273,67.0,0,390,5.0,64.0
4274,67.0,120,120,2.0,64.0
4275,67.0,0,390,6.0,64.0
4276,62.0,75,390,12.0,64.0
4277,43.0,0,390,14.0,64.0
4278,43.0,0,390,7.0,64.0
4279,79.0,0,120,0.0,64.0
4280,59.0,0,390,13.0,64.0
4281,43.0,0,390,4.0,64.0
4282,43.0,0,390,15.0,64.0
4283,43.0,0,390,8.0,64.0
4284,68.0,0,120,0.0,64.0
4285,68.0,0,120,3.0,64.0
4286,80.0,120,120,0.0,64.0
4287,68.0,0,120,2.0,64.0
4288,68.0,0,120,11.0,64.0
4289,67.0,0,120,2.0,64.0
4290,67.0,0,120,0.0,64.0
4291,67.0,0,120,11.0,64.0
4292,67.0,40,120,3.0,64.0
4293,79.0,0,120,0.0,64.0
4294,65.0,0,120,2.0,64.0
4295,77.0,120,120,0.0,64.0
4296,65.0,0,120,0.0,64.0
4297,65.0,0,120,3.0,64.0
4298,65.0,5,120,11.0,64.0
4299,36.0,0,390,14.0,64.0
4300,63.0,120,120,0.0,64.0
4301,60.0,0,390,6.0,64.0
4302,63.0,0,120,3.0,64.0
4303,48.0,0,390,7.0,64.0
4304,60.0,0,390,12.0,64.0
4305,63.0,0,120,2.0,64.0
4306,63.0,0,120,11.0,64.0
4307,75.0,0,120,0.0,64.0
4308,55.0,0,390,3.0,64.0
4309,51.0,0,390,7.0,64.0
4310,55.0,0,390,7.0,64.0
4311,67.0,0,390,5.0,64.0
4312,55.0,0,390,13.0,64.0
4313,36.0,0,390,15.0,64.0
4314,36.0,75,390,8.0,64.0
4315,60.0,0,390,5.0,64.0
4316,36.0,0,390,4.0,64.0
4317,77.0,120,120,0.0,64.0
4318,65.0,0,120,3.0,64.0
4319,65.0,0,120,2.0,64.0
4320,65.0,0,120,0.0,64.0
4321,65.0,0,120,11.0,64.0
4322,67.0,0,120,0.0,64.0
4323,67.0,40,120,2.0,64.0
4324,67.0,0,120,11.0,64.0
4325,67.0,0,120,3.0,64.0
4326,79.0,0,120,0.0,64.0
4327,68.0,5,120,11.0,64.0
4328,68.0,0,120,0.0,64.0
4329,80.0,0,120,0.0,64.0
4330,68.0,120,120,3.0,64.0
4331,68.0,0,120,2.0,64.0
4332,67.0,0,120,2.0,64.0
4333,79.0,0,120,0.0,64.0
4334,67.0,120,120,11.0,64.0
4335,67.0,0,120,3.0,64.0
4336,65.0,0,120,3.0,64.0
4337,65.0,0,120,2.0,64.0
4338,65.0,0,120,11.0,64.0
4339,77.0,0,120,0.0,64.0
4340,63.0,0,120,2.0,64.0
4341,63.0,0,120,3.0,64.0
4342,75.0,0,120,0.0,64.0
4343,63.0,0,120,11.0,64.0
4344,62.0,0,120,2.0,64.0
4345,62.0,125,120,3.0,64.0
4346,74.0,0,120,0.0,64.0
4347,62.0,0,120,11.0,64.0
4348,60.0,120,120,12.0,64.0
4349,72.0,75,390,2.0,64.0
4350,72.0,0,390,11.0,64.0
4351,63.0,120,120,12.0,64.0
4352,62.0,40,120,12.0,64.0
4353,60.0,125,120,12.0,64.0
4354,79.0,115,840,2.0,64.0
4355,79.0,0,840,11.0,64.0
4356,59.0,120,120,12.0,64.0
4357,60.0,120,120,12.0,64.0
4358,59.0,120,120,12.0,64.0
4359,57.0,115,120,12.0,64.0
4360,55.0,5,120,12.0,64.0
4361,55.0,120,120,13.0,64.0
4362,53.0,120,120,13.0,64.0
4363,51.0,0,120,13.0,64.0
4364,50.0,125,120,13.0,64.0
4365,60.0,0,120,12.0,64.0
4366,60.0,120,120,13.0,64.0
4367,75.0,75,390,2.0,64.0
4368,75.0,0,390,11.0,64.0
4369,70.0,120,120,13.0,64.0
4370,70.0,0,120,12.0,64.0
4371,68.0,0,120,12.0,64.0
4372,68.0,40,120,13.0,64.0
4373,67.0,125,120,12.0,64.0
4374,67.0,0,120,13.0,64.0
4375,68.0,0,120,13.0,64.0
4376,77.0,0,840,2.0,64.0
4377,77.0,115,840,11.0,64.0
4378,68.0,120,120,12.0,64.0
4379,70.0,0,120,13.0,64.0
4380,70.0,120,120,12.0,64.0
4381,68.0,0,120,13.0,64.0
4382,68.0,115,120,12.0,64.0
4383,67.0,0,120,13.0,64.0
4384,67.0,125,120,12.0,64.0
4385,65.0,0,120,13.0,64.0
4386,65.0,120,120,12.0,64.0
4387,63.0,120,120,13.0,64.0
4388,63.0,0,120,12.0,64.0
4389,62.0,0,120,13.0,64.0
4390,62.0,0,120,12.0,64.0
4391,60.0,0,120,12.0,64.0
4392,60.0,125,120,13.0,64.0
4393,79.0,0,390,11.0,64.0
4394,59.0,120,120,13.0,64.0
4395,79.0,75,390,2.0,64.0
4396,59.0,0,120,12.0,64.0
4397,62.0,120,120,12.0,64.0
4398,62.0,0,120,13.0,64.0
4399,60.0,40,120,13.0,64.0
4400,60.0,0,120,12.0,64.0
4401,59.0,0,120,12.0,64.0
4402,59.0,125,120,13.0,64.0
4403,80.0,0,840,11.0,64.0
4404,60.0,120,120,13.0,64.0
4405,60.0,0,120,12.0,64.0
4406,80.0,0,840,2.0,64.0
4407,62.0,0,120,12.0,64.0
4408,62.0,120,120,13.0,64.0
4409,60.0,0,120,12.0,64.0
4410,60.0,115,120,13.0,64.0
4411,58.0,0,120,13.0,64.0
4412,58.0,125,120,12.0,64.0
4413,56.0,120,120,13.0,64.0
4414,56.0,0,120,12.0,64.0
4415,55.0,0,120,12.0,64.0
4416,55.0,120,120,13.0,64.0
4417,53.0,0,120,13.0,64.0
4418,65.0,115,120,12.0,64.0
4419,63.0,125,120,12.0,64.0
4420,51.0,0,120,13.0,64.0
4421,77.0,0,390,2.0,64.0
4422,62.0,120,120,12.0,64.0
4423,62.0,0,120,13.0,64.0
4424,77.0,75,390,11.0,64.0
4425,63.0,0,120,13.0,64.0
4426,63.0,120,120,12.0,64.0
4427,62.0,40,120,12.0,64.0
4428,62.0,0,120,13.0,64.0
4429,60.0,125,120,13.0,64.0
4430,60.0,0,120,12.0,64.0
4431,79.0,0,840,11.0,64.0
4432,59.0,0,120,13.0,64.0
4433,79.0,0,840,2.0,64.0
4434,59.0,120,120,12.0,64.0
4435,60.0,120,120,12.0,64.0
4436,60.0,0,120,13.0,64.0
4437,59.0,115,120,13.0,64.0
4438,59.0,0,120,12.0,64.0
4439,57.0,0,120,13.0,64.0
4440,57.0,125,120,12.0,64.0
4441,55.0,0,120,12.0,64.0
4442,55.0,120,120,13.0,64.0
4443,57.0,0,120,12.0,64.0
4444,57.0,120,120,13.0,64.0
4445,59.0,0,120,12.0,64.0
4446,59.0,115,120,13.0,64.0
4447,60.0,0,120,12.0,64.0
4448,60.0,125,120,13.0,64.0
4449,59.0,0,120,13.0,64.0
4450,59.0,120,120,12.0,64.0
4451,74.0,0,390,2.0,64.0
4452,74.0,75,390,11.0,64.0
4453,62.0,0,120,12.0,64.0
4454,62.0,120,120,13.0,64.0
4455,60.0,40,120,13.0,64.0
4456,60.0,0,120,12.0,64.0
4457,59.0,0,120,13.0,64.0
4458,59.0,125,120,12.0,64.0
4459,60.0,120,120,12.0,64.0
4460,75.0,0,840,2.0,64.0
4461,60.0,0,120,13.0,64.0
4462,75.0,0,840,11.0,64.0
4463,62.0,0,120,12.0,64.0
4464,62.0,120,120,13.0,64.0
4465,63.0,115,120,13.0,64.0
4466,63.0,0,120,12.0,64.0
4467,65.0,0,120,12.0,64.0
4468,65.0,125,120,13.0,64.0
4469,67.0,120,120,12.0,64.0
4470,67.0,0,120,13.0,64.0
4471,69.0,0,120,13.0,64.0
4472,69.0,120,120,12.0,64.0
4473,71.0,115,120,12.0,64.0
4474,71.0,0,120,13.0,64.0
4475,72.0,125,120,13.0,64.0
4476,72.0,0,120,12.0,64.0
4477,62.0,120,120,12.0,64.0
4478,71.0,75,390,11.0,64.0
4479,71.0,0,390,2.0,64.0
4480,62.0,0,120,13.0,64.0
4481,65.0,120,120,12.0,64.0
4482,65.0,0,120,13.0,64.0
4483,63.0,40,120,12.0,64.0
4484,63.0,0,120,13.0,64.0
4485,62.0,125,120,12.0,64.0
4486,62.0,0,120,13.0,64.0
4487,63.0,120,120,13.0,64.0
4488,72.0,0,840,2.0,64.0
4489,63.0,0,120,12.0,64.0
4490,72.0,0,840,11.0,64.0
4491,67.0,0,120,12.0,64.0
4492,67.0,120,120,13.0,64.0
4493,72.0,115,120,13.0,64.0
4494,72.0,0,120,12.0,64.0
4495,70.0,0,120,12.0,64.0
4496,70.0,125,120,13.0,64.0
4497,68.0,0,120,13.0,64.0
4498,68.0,120,120,12.0,64.0
4499,67.0,120,120,12.0,64.0
4500,67.0,0,120,13.0,64.0
4501,65.0,0,120,13.0,64.0
4502,65.0,115,120,12.0,64.0
4503,63.0,125,120,12.0,64.0
4504,63.0,0,120,13.0,64.0
4505,62.0,120,120,13.0,64.0
4506,62.0,0,120,12.0,64.0
4507,65.0,0,390,2.0,64.0
4508,65.0,75,390,11.0,64.0
4509,63.0,0,120,12.0,64.0
4510,63.0,120,120,13.0,64.0
4511,62.0,0,120,12.0,64.0
4512,62.0,40,120,13.0,64.0
4513,60.0,0,120,12.0,64.0
4514,60.0,125,120,13.0,64.0
4515,59.0,120,120,13.0,64.0
4516,67.0,75,1350,11.0,64.0
4517,59.0,0,120,12.0,64.0
4518,67.0,0,1350,2.0,64.0
4519,60.0,0,120,12.0,64.0
4520,60.0,120,120,13.0,64.0
4521,62.0,115,120,12.0,64.0
4522,62.0,0,120,13.0,64.0
4523,63.0,0,120,12.0,64.0
4524,63.0,125,120,13.0,64.0
4525,62.0,120,120,12.0,64.0
4526,62.0,0,120,13.0,64.0
4527,60.0,0,120,12.0,64.0
4528,60.0,120,120,13.0,64.0
4529,59.0,0,120,13.0,64.0
4530,59.0,115,120,12.0,64.0
4531,57.0,0,120,13.0,64.0
4532,57.0,125,120,12.0,64.0
4533,55.0,120,120,13.0,64.0
4534,67.0,0,120,12.0,64.0
4535,68.0,0,120,12.0,64.0
4536,56.0,120,120,13.0,64.0
4537,55.0,0,120,13.0,64.0
4538,67.0,40,120,12.0,64.0
4539,53.0,0,120,13.0,64.0
4540,65.0,125,120,12.0,64.0
4541,72.0,115,840,2.0,64.0
4542,60.0,0,840,11.0,64.0
4543,63.0,0,120,12.0,64.0
4544,51.0,120,120,13.0,64.0
4545,65.0,120,120,12.0,64.0
4546,53.0,0,120,13.0,64.0
4547,55.0,0,120,13.0,64.0
4548,67.0,115,120,12.0,64.0
4549,56.0,0,120,13.0,64.0
4550,68.0,125,120,12.0,64.0
4551,55.0,0,120,13.0,64.0
4552,67.0,120,120,12.0,64.0
4553,53.0,120,120,13.0,64.0
4554,65.0,0,120,12.0,64.0
4555,63.0,0,120,12.0,64.0
4556,51.0,0,120,13.0,64.0
4557,62.0,125,120,12.0,64.0
4558,50.0,0,120,13.0,64.0
4559,72.0,75,390,2.0,64.0
4560,48.0,0,120,13.0,64.0
4561,60.0,0,390,3.0,64.0
4562,60.0,120,120,12.0,64.0
4563,72.0,0,390,11.0,64.0
4564,63.0,0,120,13.0,64.0
4565,63.0,120,120,12.0,64.0
4566,62.0,0,120,13.0,64.0
4567,44.0,0,240,15.0,64.0
4568,62.0,40,120,12.0,64.0
4569,56.0,0,240,14.0,64.0
4570,60.0,0,120,13.0,64.0
4571,60.0,125,120,12.0,64.0
4572,59.0,120,240,12.0,64.0
4573,79.0,0,840,11.0,64.0
4574,59.0,0,240,13.0,64.0
4575,79.0,115,840,2.0,64.0
4576,67.0,0,840,3.0,64.0
4577,43.0,0,120,15.0,64.0
4578,55.0,120,120,14.0,64.0
4579,44.0,0,120,15.0,64.0
4580,56.0,0,120,14.0,64.0
4581,53.0,0,120,14.0,64.0
4582,55.0,0,240,13.0,64.0
4583,41.0,115,120,15.0,64.0
4584,67.0,125,240,12.0,64.0
4585,55.0,0,120,14.0,64.0
4586,43.0,0,120,15.0,64.0
4587,69.0,0,240,12.0,64.0
4588,39.0,120,120,15.0,64.0
4589,51.0,0,120,14.0,64.0
4590,53.0,0,120,14.0,64.0
4591,41.0,120,120,15.0,64.0
4592,50.0,0,120,14.0,64.0
4593,55.0,0,240,13.0,64.0
4594,71.0,125,240,12.0,64.0
4595,38.0,0,120,15.0,64.0
4596,51.0,0,120,14.0,64.0
4597,39.0,0,120,15.0,64.0
4598,36.0,120,120,15.0,64.0
4599,56.0,0,240,13.0,64.0
4600,75.0,0,390,11.0,64.0
4601,63.0,75,390,3.0,64.0
4602,72.0,125,600,12.0,64.0
4603,75.0,0,390,2.0,64.0
4604,48.0,0,120,14.0,64.0
4605,50.0,0,120,14.0,64.0
4606,38.0,120,120,15.0,64.0
4607,46.0,40,120,14.0,64.0
4608,34.0,0,120,15.0,64.0
4609,58.0,0,240,13.0,64.0
4610,36.0,0,120,15.0,64.0
4611,48.0,120,120,14.0,64.0
4612,60.0,0,840,13.0,64.0
4613,77.0,115,840,2.0,64.0
4614,32.0,80,630,15.0,64.0
4615,44.0,0,630,14.0,64.0
4616,77.0,0,840,11.0,64.0
4617,65.0,0,840,3.0,64.0
4618,73.0,120,120,12.0,64.0
4619,70.0,115,120,12.0,64.0
4620,72.0,125,120,12.0,64.0
4621,68.0,40,120,12.0,64.0
4622,70.0,120,120,12.0,64.0
4623,44.0,125,240,14.0,64.0
4624,67.0,0,120,12.0,64.0
4625,32.0,0,240,15.0,64.0
4626,68.0,0,120,12.0,64.0
4627,46.0,0,240,14.0,64.0
4628,79.0,0,390,11.0,64.0
4629,67.0,75,390,3.0,64.0
4630,79.0,0,390,2.0,64.0
4631,61.0,0,240,13.0,64.0
4632,65.0,120,120,12.0,64.0
4633,34.0,0,240,15.0,64.0
4634,67.0,120,120,12.0,64.0
4635,36.0,120,240,15.0,64.0
4636,60.0,125,360,13.0,64.0
4637,48.0,0,240,14.0,64.0
4638,64.0,40,120,12.0,64.0
4639,67.0,0,120,12.0,64.0
4640,41.0,0,240,14.0,64.0
4641,68.0,0,720,3.0,64.0
4642,80.0,0,720,2.0,64.0
4643,80.0,0,720,11.0,64.0
4644,65.0,75,390,12.0,64.0
4645,29.0,120,240,15.0,64.0
4646,62.0,0,120,13.0,64.0
4647,48.0,0,240,14.0,64.0
4648,58.0,40,120,13.0,64.0
4649,36.0,125,240,15.0,64.0
4650,60.0,0,120,13.0,64.0
4651,41.0,120,120,15.0,64.0
4652,53.0,0,120,14.0,64.0
4653,56.0,0,240,13.0,64.0
4654,43.0,0,120,15.0,64.0
4655,55.0,120,120,14.0,64.0
4656,60.0,0,240,13.0,64.0
4657,79.0,120,240,2.0,64.0
4658,79.0,0,240,11.0,64.0
4659,51.0,115,120,14.0,64.0
4660,67.0,0,240,3.0,64.0
4661,39.0,0,120,15.0,64.0
4662,41.0,5,120,15.0,64.0
4663,53.0,0,120,14.0,64.0
4664,77.0,0,390,2.0,64.0
4665,50.0,0,120,14.0,64.0
4666,65.0,0,390,3.0,64.0
4667,65.0,120,120,13.0,64.0
4668,77.0,75,390,11.0,64.0
4669,38.0,0,120,15.0,64.0
4670,51.0,120,120,14.0,64.0
4671,67.0,0,120,13.0,64.0
4672,39.0,0,120,15.0,64.0
4673,63.0,40,120,13.0,64.0
4674,36.0,0,120,15.0,64.0
4675,48.0,0,120,14.0,64.0
4676,69.0,0,240,12.0,64.0
4677,50.0,0,120,14.0,64.0
4678,65.0,0,120,13.0,64.0
4679,38.0,125,120,15.0,64.0
4680,62.0,5,600,13.0,64.0
4681,79.0,115,840,2.0,64.0
4682,67.0,0,840,3.0,64.0
4683,79.0,0,840,11.0,64.0
4684,74.0,120,120,12.0,64.0
4685,47.0,0,120,14.0,64.0
4686,35.0,0,120,15.0,64.0
4687,36.0,120,120,15.0,64.0
4688,48.0,0,120,14.0,64.0
4689,75.0,0,120,12.0,64.0
4690,45.0,115,120,14.0,64.0
4691,72.0,0,120,12.0,64.0
4692,33.0,0,120,15.0,64.0
4693,47.0,0,120,14.0,64.0
4694,35.0,0,120,15.0,64.0
4695,74.0,120,120,12.0,64.0
4696,71.0,120,120,12.0,64.0
4697,43.0,0,840,14.0,64.0
4698,31.0,0,840,15.0,64.0
4699,63.0,0,120,13.0,64.0
4700,72.0,120,120,12.0,64.0
4701,69.0,0,120,12.0,64.0
4702,60.0,0,120,13.0,64.0
4703,71.0,0,120,12.0,64.0
4704,62.0,125,120,13.0,64.0
4705,74.0,0,390,2.0,64.0
4706,62.0,75,390,3.0,64.0
4707,59.0,120,120,13.0,64.0
4708,67.0,0,120,12.0,64.0
4709,74.0,0,390,11.0,64.0
4710,69.0,0,120,12.0,64.0
4711,60.0,120,120,13.0,64.0
4712,65.0,0,120,12.0,64.0
4713,57.0,40,120,13.0,64.0
4714,67.0,0,120,12.0,64.0
4715,59.0,125,120,13.0,64.0
4716,75.0,0,840,11.0,64.0
4717,75.0,0,840,2.0,64.0
4718,36.0,0,630,15.0,64.0
4719,63.0,0,240,12.0,64.0
4720,63.0,115,840,3.0,64.0
4721,48.0,80,630,14.0,64.0
4722,60.0,120,120,13.0,64.0
4723,62.0,120,120,13.0,64.0
4724,67.0,0,240,12.0,64.0
4725,58.0,115,120,13.0,64.0
4726,60.0,125,120,13.0,64.0
4727,72.0,120,240,12.0,64.0
4728,56.0,40,120,13.0,64.0
4729,58.0,0,120,13.0,64.0
4730,55.0,0,120,13.0,64.0
4731,24.0,0,240,15.0,64.0
4732,36.0,0,240,14.0,64.0
4733,70.0,125,240,12.0,64.0
4734,56.0,0,120,13.0,64.0
4735,26.0,0,390,15.0,64.0
4736,71.0,0,390,2.0,64.0
4737,71.0,0,390,11.0,64.0
4738,59.0,75,390,3.0,64.0
4739,68.0,0,240,12.0,64.0
4740,38.0,0,390,14.0,64.0
4741,53.0,120,120,13.0,64.0
4742,55.0,120,120,13.0,64.0
4743,51.0,40,120,13.0,64.0
4744,67.0,0,120,12.0,64.0
4745,65.0,0,120,12.0,64.0
4746,50.0,125,120,13.0,64.0
4747,72.0,0,840,2.0,64.0
4748,72.0,115,840,11.0,64.0
4749,39.0,0,240,14.0,64.0
4750,67.0,120,120,12.0,64.0
4751,48.0,75,390,13.0,64.0
4752,60.0,0,840,3.0,64.0
4753,27.0,120,240,15.0,64.0
4754,68.0,0,120,12.0,64.0
4755,43.0,0,240,14.0,64.0
4756,65.0,40,120,12.0,64.0
4757,31.0,125,240,15.0,64.0
4758,67.0,0,120,12.0,64.0
4759,48.0,0,120,14.0,64.0
4760,36.0,0,120,15.0,64.0
4761,63.0,120,120,12.0,64.0
4762,38.0,0,120,15.0,64.0
4763,65.0,0,120,12.0,64.0
4764,50.0,120,120,14.0,64.0
4765,46.0,0,120,14.0,64.0
4766,51.0,125,240,13.0,64.0
4767,62.0,0,120,12.0,64.0
4768,34.0,0,120,15.0,64.0
4769,63.0,0,120,12.0,64.0
4770,36.0,0,120,15.0,64.0
4771,48.0,0,120,14.0,64.0
4772,65.0,0,390,2.0,64.0
4773,53.0,0,390,3.0,64.0
4774,60.0,120,240,12.0,64.0
4775,33.0,0,390,15.0,64.0
4776,53.0,120,120,13.0,64.0
4777,65.0,75,390,11.0,64.0
4778,45.0,0,390,14.0,64.0
4779,55.0,0,120,13.0,64.0
4780,51.0,40,120,13.0,64.0
4781,65.0,5,360,12.0,64.0
4782,53.0,120,120,13.0,64.0
4783,67.0,0,1320,2.0,64.0
4784,47.0,0,240,14.0,64.0
4785,50.0,120,120,13.0,64.0
4786,67.0,0,1320,11.0,64.0
4787,55.0,0,1320,3.0,64.0
4788,35.0,0,240,15.0,64.0
4789,67.0,0,120,12.0,64.0
4790,51.0,120,120,13.0,64.0
4791,36.0,125,240,15.0,64.0
4792,63.0,0,120,12.0,64.0
4793,48.0,0,240,14.0,64.0
4794,48.0,115,120,13.0,64.0
4795,65.0,0,120,12.0,64.0
4796,50.0,0,120,13.0,64.0
4797,43.0,120,120,14.0,64.0
4798,62.0,0,240,12.0,64.0
4799,59.0,120,240,13.0,64.0
4800,31.0,0,120,15.0,64.0
4801,32.0,0,120,15.0,64.0
4802,44.0,0,120,14.0,64.0
4803,41.0,115,120,14.0,64.0
4804,29.0,0,120,15.0,64.0
4805,59.0,0,240,12.0,64.0
4806,62.0,0,240,13.0,64.0
4807,31.0,125,120,15.0,64.0
4808,43.0,0,120,14.0,64.0
4809,39.0,0,120,14.0,64.0
4810,60.0,120,240,12.0,64.0
4811,63.0,0,240,13.0,64.0
4812,27.0,120,120,15.0,64.0
4813,29.0,0,120,15.0,64.0
4814,41.0,0,120,14.0,64.0
4815,26.0,0,120,15.0,64.0
4816,59.0,0,240,12.0,64.0
4817,53.0,0,240,13.0,64.0
4818,38.0,115,120,14.0,64.0
4819,29.0,0,120,15.0,64.0
4820,41.0,125,120,14.0,64.0
4821,72.0,40,840,2.0,64.0
4822,72.0,0,840,11.0,64.0
4823,27.0,0,120,15.0,64.0
4824,60.0,0,840,12.0,64.0
4825,60.0,0,840,3.0,64.0
4826,39.0,120,120,14.0,64.0
4827,55.0,0,120,13.0,64.0
4828,29.0,0,120,15.0,64.0
4829,56.0,120,120,13.0,64.0
4830,41.0,0,120,14.0,64.0
4831,53.0,0,120,13.0,64.0
4832,38.0,0,120,14.0,64.0
4833,26.0,115,120,15.0,64.0
4834,39.0,0,120,14.0,64.0
4835,27.0,125,120,15.0,64.0
4836,55.0,0,120,13.0,64.0
4837,51.0,120,120,13.0,64.0
4838,36.0,0,390,14.0,64.0
4839,24.0,75,390,15.0,64.0
4840,53.0,120,120,13.0,64.0
4841,50.0,0,120,13.0,64.0
4842,51.0,125,120,13.0,64.0
4843,72.0,0,120,2.0,64.0
4844,48.0,120,480,4.0,64.0
4845,60.0,120,120,3.0,64.0
4846,72.0,0,480,3.0,64.0
4847,63.0,120,120,3.0,64.0
4848,75.0,0,120,2.0,64.0
4849,74.0,0,120,2.0,64.0
4850,62.0,120,120,3.0,64.0
4851,72.0,0,120,2.0,64.0
4852,60.0,0,120,3.0,64.0
4853,79.0,0,840,2.0,64.0
4854,67.0,0,120,3.0,64.0
4855,43.0,120,120,4.0,64.0
4856,71.0,0,120,3.0,64.0
4857,47.0,120,120,4.0,64.0
4858,69.0,115,120,3.0,64.0
4859,45.0,0,120,4.0,64.0
4860,67.0,0,120,3.0,64.0
4861,43.0,125,120,4.0,64.0
4862,72.0,0,120,2.0,64.0
4863,72.0,0,120,0.0,64.0
4864,48.0,120,600,4.0,64.0
4865,72.0,0,600,3.0,64.0
4866,84.0,120,120,0.0,64.0
4867,75.0,0,120,0.0,64.0
4868,87.0,0,120,0.0,64.0
4869,75.0,120,120,2.0,64.0
4870,86.0,120,120,0.0,64.0
4871,74.0,0,120,0.0,64.0
4872,74.0,0,120,2.0,64.0
4873,72.0,0,120,0.0,64.0
4874,72.0,120,120,2.0,64.0
4875,84.0,0,120,0.0,64.0
4876,63.0,120,480,3.0,64.0
4877,75.0,0,480,2.0,64.0
4878,79.0,0,390,0.0,64.0
4879,91.0,0,390,0.0,64.0
4880,79.0,80,390,2.0,64.0
4881,73.0,0,120,3.0,64.0
4882,49.0,120,120,4.0,64.0
4883,72.0,0,120,3.0,64.0
4884,48.0,40,120,4.0,64.0
4885,46.0,0,120,4.0,64.0
4886,70.0,0,120,3.0,64.0
4887,84.0,0,120,0.0,64.0
4888,72.0,0,120,0.0,64.0
4889,72.0,120,120,2.0,64.0
4890,65.0,120,600,3.0,64.0
4891,44.0,0,720,4.0,64.0
4892,75.0,0,120,2.0,64.0
4893,87.0,120,120,0.0,64.0
4894,75.0,0,120,0.0,64.0
4895,74.0,0,120,0.0,64.0
4896,74.0,0,120,2.0,64.0
4897,86.0,120,120,0.0,64.0
4898,72.0,0,120,2.0,64.0
4899,72.0,0,120,0.0,64.0
4900,84.0,120,120,0.0,64.0
4901,89.0,5,720,0.0,64.0
4902,77.0,0,720,0.0,64.0
4903,77.0,0,120,2.0,64.0
4904,80.0,120,120,2.0,64.0
4905,68.0,0,120,3.0,64.0
4906,73.0,5,240,3.0,64.0
4907,49.0,0,240,4.0,64.0
4908,79.0,0,120,2.0,64.0
4909,67.0,115,120,3.0,64.0
4910,65.0,0,120,3.0,64.0
4911,77.0,120,120,2.0,64.0
4912,67.0,115,120,3.0,64.0
4913,46.0,0,240,4.0,64.0
4914,79.0,0,120,2.0,64.0
4915,70.0,0,120,3.0,64.0
4916,82.0,120,120,2.0,64.0
4917,68.0,115,120,3.0,64.0
4918,76.0,0,240,2.0,64.0
4919,72.0,120,240,3.0,64.0
4920,48.0,0,240,4.0,64.0
4921,76.0,0,240,0.0,64.0
4922,88.0,0,240,0.0,64.0
4923,80.0,0,120,2.0,64.0
4924,79.0,0,120,2.0,64.0
4925,67.0,5,120,3.0,64.0
4926,77.0,0,120,2.0,64.0
4927,77.0,75,390,3.0,64.0
4928,89.0,120,120,0.0,64.0
4929,53.0,0,390,4.0,64.0
4930,77.0,0,120,0.0,64.0
4931,68.0,0,600,3.0,64.0
4932,80.0,120,120,2.0,64.0
4933,92.0,0,120,0.0,64.0
4934,80.0,0,120,0.0,64.0
4935,91.0,0,120,0.0,64.0
4936,79.0,0,120,0.0,64.0
4937,79.0,40,120,2.0,64.0
4938,77.0,0,120,0.0,64.0
4939,77.0,120,120,2.0,64.0
4940,89.0,0,120,0.0,64.0
4941,72.0,125,600,2.0,64.0
4942,84.0,0,600,0.0,64.0
4943,96.0,0,600,0.0,64.0
4944,82.0,120,120,2.0,64.0
4945,70.0,0,120,3.0,64.0
4946,68.0,0,120,3.0,64.0
4947,80.0,120,120,2.0,64.0
4948,67.0,115,120,3.0,64.0
4949,79.0,0,120,2.0,64.0
4950,65.0,120,480,3.0,64.0
4951,44.0,0,480,4.0,64.0
4952,68.0,0,480,3.0,64.0
4953,77.0,0,480,2.0,64.0
4954,87.0,0,120,0.0,64.0
4955,75.0,120,120,2.0,64.0
4956,75.0,0,120,0.0,64.0
4957,74.0,0,120,2.0,64.0
4958,74.0,0,120,0.0,64.0
4959,86.0,120,120,0.0,64.0
4960,72.0,0,120,0.0,64.0
4961,72.0,0,120,2.0,64.0
4962,84.0,0,120,0.0,64.0
4963,83.0,0,480,0.0,64.0
4964,43.0,120,120,4.0,64.0
4965,71.0,0,480,2.0,64.0
4966,71.0,0,480,0.0,64.0
4967,79.0,120,600,2.0,64.0
4968,67.0,0,120,3.0,64.0
4969,44.0,0,120,4.0,64.0
4970,68.0,120,120,3.0,64.0
4971,67.0,0,120,3.0,64.0
4972,43.0,120,120,4.0,64.0
4973,41.0,0,120,4.0,64.0
4974,65.0,115,120,3.0,64.0
4975,72.0,0,480,2.0,64.0
4976,84.0,0,480,0.0,64.0
4977,63.0,0,240,3.0,64.0
4978,72.0,30,480,0.0,64.0
4979,39.0,5,240,4.0,64.0
4980,79.0,0,120,2.0,64.0
4981,67.0,120,120,3.0,64.0
4982,77.0,120,120,2.0,64.0
4983,50.0,0,120,4.0,64.0
4984,74.0,0,120,3.0,64.0
4985,65.0,0,120,3.0,64.0
4986,63.0,0,120,3.0,64.0
4987,75.0,0,120,2.0,64.0
4988,48.0,0,120,4.0,64.0
4989,72.0,0,120,3.0,64.0
4990,74.0,0,390,0.0,64.0
4991,47.0,30,30,4.0,64.0
4992,74.0,0,120,2.0,64.0
4993,86.0,0,390,0.0,64.0
4994,62.0,0,120,3.0,64.0
4995,71.0,0,30,3.0,64.0
4996,48.0,30,30,4.0,64.0
4997,72.0,0,30,3.0,64.0
4998,47.0,0,30,4.0,64.0
4999,71.0,30,30,3.0,64.0
5000,72.0,0,30,3.0,64.0
5001,48.0,30,30,4.0,64.0
5002,77.0,0,120,2.0,64.0
5003,71.0,30,30,3.0,64.0
5004,65.0,0,120,3.0,64.0
5005,47.0,0,30,4.0,64.0
5006,48.0,0,30,4.0,64.0
5007,72.0,30,30,3.0,64.0
5008,47.0,0,30,4.0,64.0
5009,71.0,30,30,3.0,64.0
5010,48.0,0,30,4.0,64.0
5011,72.0,30,30,3.0,64.0
5012,75.0,0,120,2.0,64.0
5013,47.0,0,30,4.0,64.0
5014,63.0,0,120,3.0,64.0
5015,71.0,30,30,3.0,64.0
5016,72.0,30,30,3.0,64.0
5017,48.0,0,30,4.0,64.0
5018,71.0,0,30,3.0,64.0
5019,47.0,30,30,4.0,64.0
5020,48.0,30,30,4.0,64.0
5021,72.0,0,30,3.0,64.0
5022,47.0,0,30,4.0,64.0
5023,71.0,10,30,3.0,64.0
5024,62.0,5,120,3.0,64.0
5025,74.0,20,30,2.0,64.0
5026,72.0,0,30,3.0,64.0
5027,48.0,30,30,4.0,64.0
5028,47.0,25,30,4.0,64.0
5029,71.0,0,30,3.0,64.0
5030,72.0,120,30,3.0,64.0
5031,48.0,0,30,4.0,64.0
5032,48.0,0,120,4.0,64.0
5033,63.0,0,600,3.0,64.0
5034,67.0,0,240,0.0,64.0
5035,79.0,120,240,0.0,64.0
5036,67.0,0,240,2.0,64.0
5037,72.0,120,120,3.0,64.0
5038,75.0,120,600,2.0,64.0
5039,50.0,0,120,4.0,64.0
5040,74.0,0,120,3.0,64.0
5041,75.0,0,120,3.0,64.0
5042,72.0,0,360,2.0,64.0
5043,72.0,0,360,0.0,64.0
5044,84.0,0,360,0.0,64.0
5045,51.0,120,120,4.0,64.0
5046,50.0,115,120,4.0,64.0
5047,74.0,0,120,3.0,64.0
5048,72.0,0,240,3.0,64.0
5049,48.0,5,240,4.0,64.0
5050,84.0,0,120,0.0,64.0
5051,72.0,120,120,2.0,64.0
5052,72.0,0,120,0.0,64.0
5053,75.0,0,120,2.0,64.0
5054,63.0,0,120,3.0,64.0
5055,43.0,0,480,4.0,64.0
5056,83.0,0,120,0.0,64.0
5057,71.0,0,120,0.0,64.0
5058,71.0,0,120,2.0,64.0
5059,62.0,0,120,3.0,64.0
5060,67.0,5,480,3.0,64.0
5061,74.0,120,120,2.0,64.0
5062,69.0,120,120,0.0,64.0
5063,81.0,0,120,0.0,64.0
5064,69.0,0,120,2.0,64.0
5065,60.0,0,120,3.0,64.0
5066,72.0,0,120,2.0,64.0
5067,71.0,0,120,2.0,64.0
5068,67.0,0,240,2.0,64.0
5069,59.0,115,120,3.0,64.0
5070,67.0,120,240,0.0,64.0
5071,79.0,0,240,0.0,64.0
5072,62.0,0,120,3.0,64.0
5073,74.0,0,120,2.0,64.0
5074,77.0,120,240,0.0,64.0
5075,65.0,0,240,2.0,64.0
5076,72.0,0,120,2.0,64.0
5077,67.0,0,240,3.0,64.0
5078,43.0,5,240,4.0,64.0
5079,60.0,115,120,3.0,64.0
5080,65.0,0,240,0.0,64.0
5081,71.0,0,120,2.0,64.0
5082,59.0,0,120,3.0,64.0
5083,72.0,0,600,2.0,64.0
5084,63.0,0,240,2.0,64.0
5085,68.0,0,120,3.0,64.0
5086,60.0,0,600,3.0,64.0
5087,63.0,0,240,0.0,64.0
5088,75.0,120,240,0.0,64.0
5089,44.0,120,120,4.0,64.0
5090,48.0,0,120,4.0,64.0
5091,72.0,0,120,3.0,64.0
5092,68.0,0,360,0.0,64.0
5093,68.0,120,360,2.0,64.0
5094,80.0,0,360,0.0,64.0
5095,46.0,120,120,4.0,64.0
5096,70.0,0,120,3.0,64.0
5097,44.0,0,120,4.0,64.0
5098,68.0,115,120,3.0,64.0
5099,75.0,0,240,3.0,64.0
5100,51.0,5,240,4.0,64.0
5101,79.0,0,120,0.0,64.0
5102,58.0,0,120,3.0,64.0
5103,71.0,0,120,2.0,64.0
5104,67.0,0,120,2.0,64.0
5105,67.0,120,120,0.0,64.0
5106,72.0,0,120,2.0,64.0
5107,40.0,5,240,4.0,64.0
5108,72.0,0,120,0.0,64.0
5109,56.0,0,120,3.0,64.0
5110,84.0,0,120,0.0,64.0
5111,64.0,0,240,3.0,64.0
5112,68.0,115,120,2.0,64.0
5113,70.0,0,120,0.0,64.0
5114,70.0,0,120,2.0,64.0
5115,55.0,0,120,3.0,64.0
5116,82.0,120,120,0.0,64.0
5117,67.0,0,120,2.0,64.0
5118,80.0,0,120,0.0,64.0
5119,68.0,120,120,0.0,64.0
5120,41.0,125,600,4.0,64.0
5121,65.0,0,120,3.0,64.0
5122,77.0,0,120,2.0,64.0
5123,68.0,0,120,2.0,64.0
5124,77.0,0,120,0.0,64.0
5125,80.0,120,120,2.0,64.0
5126,77.0,0,120,2.0,64.0
5127,68.0,0,120,3.0,64.0
5128,67.0,0,120,3.0,64.0
5129,79.0,0,120,0.0,64.0
5130,79.0,0,120,2.0,64.0
5131,80.0,0,120,2.0,64.0
5132,65.0,120,120,3.0,64.0
5133,80.0,0,120,0.0,64.0
5134,77.0,0,120,2.0,64.0
5135,79.0,125,600,2.0,64.0
5136,71.0,0,480,0.0,64.0
5137,67.0,0,600,3.0,64.0
5138,71.0,0,480,2.0,64.0
5139,41.0,0,120,4.0,64.0
5140,65.0,120,120,3.0,64.0
5141,39.0,0,120,4.0,64.0
5142,63.0,120,120,3.0,64.0
5143,62.0,0,120,3.0,64.0
5144,38.0,0,120,4.0,64.0
5145,39.0,0,390,4.0,64.0
5146,72.0,0,120,0.0,64.0
5147,72.0,0,120,2.0,64.0
5148,67.0,120,120,3.0,64.0
5149,75.0,0,120,0.0,64.0
5150,79.0,0,120,2.0,64.0
5151,75.0,0,120,2.0,64.0
5152,77.0,0,120,2.0,64.0
5153,74.0,0,120,2.0,64.0
5154,65.0,0,120,3.0,64.0
5155,74.0,0,120,0.0,64.0
5156,75.0,120,120,2.0,64.0
5157,63.0,75,30,3.0,64.0
5158,72.0,0,120,0.0,64.0
5159,72.0,0,120,2.0,64.0
5160,71.0,0,480,3.0,64.0
5161,79.0,0,600,0.0,64.0
5162,74.0,0,120,2.0,64.0
5163,47.0,115,480,4.0,64.0
5164,62.0,120,120,3.0,64.0
5165,79.0,0,600,2.0,64.0
5166,77.0,0,120,2.0,64.0
5167,65.0,120,120,3.0,64.0
5168,63.0,0,120,3.0,64.0
5169,75.0,120,120,2.0,64.0
5170,62.0,0,120,3.0,64.0
5171,74.0,0,120,2.0,64.0
5172,75.0,120,600,2.0,64.0
5173,72.0,5,1200,3.0,64.0
5174,63.0,0,600,3.0,64.0
5175,48.0,115,840,4.0,64.0
5176,82.0,0,120,0.0,64.0
5177,82.0,0,120,2.0,64.0
5178,80.0,0,120,0.0,64.0
5179,80.0,120,120,2.0,64.0
5180,79.0,0,120,0.0,64.0
5181,79.0,0,120,2.0,64.0
5182,84.0,0,240,2.0,64.0
5183,84.0,0,240,0.0,64.0
5184,65.0,120,120,3.0,64.0
5185,77.0,0,120,2.0,64.0
5186,63.0,0,120,3.0,64.0
5187,75.0,0,120,2.0,64.0
5188,84.0,5,240,0.0,64.0
5189,72.0,0,240,2.0,64.0
5190,72.0,0,240,0.0,64.0
5191,62.0,235,120,3.0,64.0
5192,74.0,0,120,2.0,64.0
5193,63.0,0,390,11.0,64.0
5194,60.0,0,390,12.0,64.0
5195,55.0,0,390,13.0,64.0
5196,63.0,0,390,4.0,64.0
5197,48.0,75,390,14.0,64.0
5198,60.0,0,390,4.0,64.0
5199,36.0,0,390,15.0,64.0
5200,55.0,0,390,14.0,64.0
5201,79.0,0,120,0.0,64.0
5202,79.0,0,120,2.0,64.0
5203,91.0,120,120,0.0,64.0
5204,60.0,0,150,3.0,64.0
5205,75.0,40,120,2.0,64.0
5206,87.0,0,120,0.0,64.0
5207,75.0,0,120,0.0,64.0
5208,84.0,0,120,0.0,64.0
5209,72.0,0,120,0.0,64.0
5210,72.0,0,30,2.0,64.0
5211,55.0,0,840,13.0,64.0
5212,59.0,0,840,4.0,64.0
5213,83.0,120,240,0.0,64.0
5214,71.0,0,240,2.0,64.0
5215,47.0,0,840,14.0,64.0
5216,55.0,0,840,14.0,64.0
5217,62.0,0,840,4.0,64.0
5218,43.0,0,840,15.0,64.0
5219,71.0,0,240,0.0,64.0
5220,62.0,0,840,11.0,64.0
5221,59.0,40,840,12.0,64.0
5222,55.0,0,120,3.0,64.0
5223,67.0,0,120,3.0,64.0
5224,67.0,0,15,2.0,64.0
5225,71.0,0,120,3.0,64.0
5226,67.0,0,240,0.0,64.0
5227,59.0,115,120,3.0,64.0
5228,79.0,5,240,0.0,64.0
5229,71.0,0,120,2.0,64.0
5230,74.0,0,120,2.0,64.0
5231,74.0,0,120,3.0,64.0
5232,62.0,240,120,3.0,64.0
5233,67.0,75,390,3.0,64.0
5234,79.0,0,390,3.0,64.0
5235,83.0,0,120,0.0,64.0
5236,71.0,0,120,0.0,64.0
5237,71.0,120,120,2.0,64.0
5238,86.0,0,120,0.0,64.0
5239,74.0,0,120,0.0,64.0
5240,74.0,0,120,2.0,64.0
5241,79.0,125,120,0.0,64.0
5242,91.0,0,120,0.0,64.0
5243,79.0,0,30,2.0,64.0
5244,63.0,0,390,11.0,64.0
5245,63.0,0,390,4.0,64.0
5246,60.0,0,390,4.0,64.0
5247,75.0,120,120,2.0,64.0
5248,51.0,0,390,14.0,64.0
5249,75.0,0,120,3.0,64.0
5250,55.0,75,390,13.0,64.0
5251,63.0,0,120,3.0,64.0
5252,60.0,0,390,14.0,64.0
5253,39.0,0,390,15.0,64.0
5254,60.0,0,390,12.0,64.0
5255,91.0,0,120,0.0,64.0
5256,79.0,120,120,2.0,64.0
5257,79.0,0,120,0.0,64.0
5258,67.0,0,120,2.0,64.0
5259,67.0,0,120,3.0,64.0
5260,55.0,0,120,3.0,64.0
5261,75.0,40,120,0.0,64.0
5262,60.0,0,120,3.0,64.0
5263,72.0,0,120,3.0,64.0
5264,75.0,0,120,2.0,64.0
5265,87.0,0,120,0.0,64.0
5266,72.0,0,120,0.0,64.0
5267,75.0,5,120,3.0,64.0
5268,72.0,0,15,2.0,64.0
5269,84.0,0,120,0.0,64.0
5270,75.0,0,120,2.0,64.0
5271,63.0,0,120,3.0,64.0
5272,41.0,0,840,15.0,64.0
5273,92.0,0,240,0.0,64.0
5274,65.0,0,840,11.0,64.0
5275,56.0,0,840,13.0,64.0
5276,80.0,0,240,2.0,64.0
5277,60.0,0,840,12.0,64.0
5278,65.0,0,840,4.0,64.0
5279,62.0,0,840,4.0,64.0
5280,56.0,40,840,14.0,64.0
5281,48.0,0,840,14.0,64.0
5282,80.0,5,240,0.0,64.0
5283,77.0,0,120,3.0,64.0
5284,65.0,0,120,3.0,64.0
5285,89.0,0,240,0.0,64.0
5286,68.0,115,120,3.0,64.0
5287,77.0,5,240,0.0,64.0
5288,77.0,120,15,2.0,64.0
5289,56.0,0,120,3.0,64.0
5290,68.0,0,120,2.0,64.0
5291,72.0,240,120,2.0,64.0
5292,60.0,0,120,3.0,64.0
5293,72.0,0,120,3.0,64.0
5294,77.0,75,390,3.0,64.0
5295,65.0,0,390,3.0,64.0
5296,68.0,120,120,0.0,64.0
5297,80.0,0,120,0.0,64.0
5298,68.0,0,120,2.0,64.0
5299,72.0,0,120,2.0,64.0
5300,84.0,0,120,0.0,64.0
5301,72.0,0,120,0.0,64.0
5302,89.0,125,120,0.0,64.0
5303,77.0,0,30,2.0,64.0
5304,77.0,0,120,0.0,64.0
5305,55.0,0,390,14.0,64.0
5306,43.0,0,390,15.0,64.0
5307,59.0,0,390,12.0,64.0
5308,62.0,0,390,11.0,64.0
5309,67.0,0,120,2.0,64.0
5310,59.0,0,390,14.0,64.0
5311,55.0,120,120,3.0,64.0
5312,55.0,75,390,13.0,64.0
5313,67.0,0,120,3.0,64.0
5314,59.0,0,390,4.0,64.0
5315,62.0,0,390,4.0,64.0
5316,59.0,120,120,3.0,64.0
5317,79.0,0,120,0.0,64.0
5318,79.0,0,120,2.0,64.0
5319,71.0,0,120,3.0,64.0
5320,91.0,0,120,0.0,64.0
5321,71.0,0,120,2.0,64.0
5322,75.0,0,120,0.0,64.0
5323,75.0,40,120,3.0,64.0
5324,75.0,0,120,2.0,64.0
5325,63.0,0,120,3.0,64.0
5326,87.0,0,120,0.0,64.0
5327,67.0,5,120,3.0,64.0
5328,79.0,0,120,3.0,64.0
5329,71.0,235,120,0.0,64.0
5330,79.0,0,120,2.0,64.0
5331,83.0,0,120,0.0,64.0
5332,71.0,0,120,2.0,64.0
5333,63.0,0,840,4.0,64.0
5334,72.0,5,240,2.0,64.0
5335,56.0,0,840,13.0,64.0
5336,56.0,0,840,14.0,64.0
5337,60.0,0,840,4.0,64.0
5338,48.0,0,840,14.0,64.0
5339,60.0,0,840,12.0,64.0
5340,44.0,0,840,15.0,64.0
5341,84.0,0,240,0.0,64.0
5342,72.0,0,240,0.0,64.0
5343,63.0,0,840,11.0,64.0
5344,68.0,0,120,3.0,64.0
5345,56.0,0,120,3.0,64.0
5346,68.0,120,15,2.0,64.0
5347,60.0,0,120,3.0,64.0
5348,72.0,0,120,3.0,64.0
5349,72.0,115,120,2.0,64.0
5350,80.0,5,240,0.0,64.0
5351,68.0,0,240,0.0,64.0
5352,63.0,240,120,3.0,64.0
5353,75.0,0,120,2.0,64.0
5354,75.0,0,120,3.0,64.0
5355,68.0,0,390,3.0,64.0
5356,80.0,0,390,3.0,64.0
5357,72.0,120,120,0.0,64.0
5358,84.0,0,120,0.0,64.0
5359,72.0,0,120,2.0,64.0
5360,87.0,40,120,0.0,64.0
5361,75.0,0,120,2.0,64.0
5362,75.0,0,120,0.0,64.0
5363,80.0,75,30,2.0,64.0
5364,80.0,125,120,0.0,64.0
5365,92.0,0,120,0.0,64.0
5366,60.0,75,390,4.0,64.0
5367,56.0,0,390,13.0,64.0
5368,56.0,0,390,4.0,64.0
5369,60.0,0,390,14.0,64.0
5370,77.0,0,120,2.0,64.0
5371,60.0,0,390,12.0,64.0
5372,41.0,0,390,15.0,64.0
5373,77.0,120,120,3.0,64.0
5374,65.0,0,390,11.0,64.0
5375,65.0,0,120,3.0,64.0
5376,53.0,0,390,14.0,64.0
5377,56.0,0,120,3.0,64.0
5378,68.0,0,120,3.0,64.0
5379,80.0,0,120,2.0,64.0
5380,92.0,120,120,0.0,64.0
5381,80.0,0,120,0.0,64.0
5382,68.0,0,120,2.0,64.0
5383,75.0,0,120,0.0,64.0
5384,72.0,0,120,3.0,64.0
5385,72.0,0,120,2.0,64.0
5386,60.0,0,120,3.0,64.0
5387,87.0,0,120,0.0,64.0
5388,63.0,5,120,3.0,64.0
5389,84.0,235,120,0.0,64.0
5390,75.0,0,120,3.0,64.0
5391,72.0,0,120,0.0,64.0
5392,72.0,0,120,2.0,64.0
5393,75.0,40,15,2.0,64.0
5394,71.0,5,240,2.0,64.0
5395,71.0,0,240,0.0,64.0
5396,83.0,0,240,0.0,64.0
5397,43.0,0,840,15.0,64.0
5398,55.0,40,840,14.0,64.0
5399,47.0,0,840,14.0,64.0
5400,55.0,0,840,13.0,64.0
5401,59.0,0,840,12.0,64.0
5402,62.0,0,840,4.0,64.0
5403,62.0,0,840,11.0,64.0
5404,59.0,0,840,4.0,64.0
5405,67.0,0,120,3.0,64.0
5406,55.0,120,120,3.0,64.0
5407,67.0,0,120,2.0,64.0
5408,79.0,0,240,0.0,64.0
5409,71.0,115,120,3.0,64.0
5410,67.0,5,240,0.0,64.0
5411,67.0,0,240,2.0,64.0
5412,59.0,0,120,3.0,64.0
5413,71.0,0,120,2.0,64.0
5414,74.0,0,120,3.0,64.0
5415,74.0,240,120,2.0,64.0
5416,62.0,0,120,3.0,64.0
5417,79.0,0,390,3.0,64.0
5418,67.0,75,390,3.0,64.0
5419,71.0,0,120,2.0,64.0
5420,83.0,120,120,0.0,64.0
5421,71.0,0,120,0.0,64.0
5422,74.0,0,120,0.0,64.0
5423,86.0,0,120,0.0,64.0
5424,74.0,0,120,2.0,64.0
5425,79.0,0,120,0.0,64.0
5426,79.0,0,30,2.0,64.0
5427,91.0,125,120,0.0,64.0
5428,59.0,0,390,4.0,64.0
5429,74.0,120,120,2.0,64.0
5430,62.0,0,390,4.0,64.0
5431,62.0,0,120,3.0,64.0
5432,74.0,0,120,3.0,64.0
5433,50.0,0,390,14.0,64.0
5434,59.0,0,390,12.0,64.0
5435,62.0,0,390,11.0,64.0
5436,59.0,75,390,14.0,64.0
5437,38.0,0,390,15.0,64.0
5438,53.0,0,390,13.0,64.0
5439,77.0,120,120,3.0,64.0
5440,80.0,0,120,2.0,64.0
5441,80.0,0,120,0.0,64.0
5442,77.0,0,120,2.0,64.0
5443,65.0,0,120,3.0,64.0
5444,92.0,0,120,0.0,64.0
5445,77.0,0,120,0.0,64.0
5446,59.0,0,120,3.0,64.0
5447,77.0,0,120,2.0,64.0
5448,89.0,40,120,0.0,64.0
5449,71.0,0,120,3.0,64.0
5450,74.0,0,120,2.0,64.0
5451,71.0,0,15,2.0,64.0
5452,71.0,0,120,0.0,64.0
5453,83.0,235,120,0.0,64.0
5454,74.0,5,120,3.0,64.0
5455,62.0,0,120,3.0,64.0
5456,79.0,5,240,0.0,64.0
5457,48.0,0,840,14.0,64.0
5458,60.0,0,840,12.0,64.0
5459,79.0,0,240,2.0,64.0
5460,60.0,0,840,4.0,64.0
5461,55.0,0,840,13.0,64.0
5462,63.0,0,840,4.0,64.0
5463,91.0,0,240,0.0,64.0
5464,39.0,0,840,15.0,64.0
5465,63.0,40,840,11.0,64.0
5466,55.0,0,840,14.0,64.0
5467,75.0,0,120,3.0,64.0
5468,63.0,0,120,3.0,64.0
5469,79.0,0,120,3.0,64.0
5470,87.0,0,240,0.0,64.0
5471,75.0,120,15,2.0,64.0
5472,67.0,115,120,3.0,64.0
5473,75.0,5,240,0.0,64.0
5474,79.0,0,120,2.0,64.0
5475,58.0,0,120,3.0,64.0
5476,70.0,240,120,2.0,64.0
5477,70.0,0,120,3.0,64.0
5478,63.0,0,390,3.0,64.0
5479,75.0,75,390,3.0,64.0
5480,67.0,0,120,2.0,64.0
5481,79.0,0,120,0.0,64.0
5482,67.0,120,120,0.0,64.0
5483,82.0,0,120,0.0,64.0
5484,70.0,0,120,2.0,64.0
5485,70.0,0,120,0.0,64.0
5486,75.0,0,30,2.0,64.0
5487,75.0,125,120,0.0,64.0
5488,87.0,0,120,0.0,64.0
5489,55.0,0,390,13.0,64.0
5490,55.0,0,390,14.0,64.0
5491,47.0,0,390,14.0,64.0
5492,71.0,0,120,3.0,64.0
5493,59.0,75,390,12.0,64.0
5494,71.0,120,120,2.0,64.0
5495,35.0,0,390,15.0,64.0
5496,62.0,0,390,11.0,64.0
5497,62.0,0,390,4.0,64.0
5498,59.0,0,120,3.0,64.0
5499,59.0,0,390,4.0,64.0
5500,62.0,0,120,3.0,64.0
5501,77.0,0,120,2.0,64.0
5502,77.0,0,120,0.0,64.0
5503,74.0,0,120,3.0,64.0
5504,74.0,0,120,2.0,64.0
5505,89.0,120,120,0.0,64.0
5506,55.0,40,120,3.0,64.0
5507,86.0,0,120,0.0,64.0
5508,74.0,0,120,0.0,64.0
5509,74.0,0,120,2.0,64.0
5510,67.0,0,120,3.0,64.0
5511,79.0,235,120,0.0,64.0
5512,67.0,0,15,2.0,64.0
5513,71.0,5,120,2.0,64.0
5514,67.0,0,120,0.0,64.0
5515,71.0,0,120,3.0,64.0
5516,59.0,0,120,3.0,64.0
5517,36.0,0,840,15.0,64.0
5518,63.0,0,840,11.0,64.0
5519,60.0,0,840,12.0,64.0
5520,55.0,0,840,13.0,64.0
5521,55.0,40,840,14.0,64.0
5522,63.0,0,840,4.0,64.0
5523,60.0,0,840,4.0,64.0
5524,75.0,0,240,0.0,64.0
5525,87.0,0,240,0.0,64.0
5526,48.0,0,840,14.0,64.0
5527,75.0,5,240,2.0,64.0
5528,60.0,120,120,3.0,64.0
5529,72.0,0,120,3.0,64.0
5530,72.0,0,15,2.0,64.0
5531,63.0,0,120,3.0,64.0
5532,75.0,115,120,2.0,64.0
5533,84.0,0,240,0.0,64.0
5534,75.0,0,120,3.0,64.0
5535,72.0,5,240,0.0,64.0
5536,67.0,0,120,2.0,64.0
5537,67.0,0,120,3.0,64.0
5538,55.0,240,120,3.0,64.0
5539,72.0,75,390,3.0,64.0
5540,60.0,0,390,3.0,64.0
5541,63.0,0,120,0.0,64.0
5542,75.0,0,120,0.0,64.0
5543,63.0,120,120,2.0,64.0
5544,79.0,0,120,0.0,64.0
5545,67.0,0,120,0.0,64.0
5546,67.0,0,120,2.0,64.0
5547,72.0,0,120,0.0,64.0
5548,72.0,0,30,2.0,64.0
5549,84.0,125,120,0.0,64.0
5550,65.0,0,390,11.0,64.0
5551,53.0,0,390,14.0,64.0
5552,77.0,0,120,3.0,64.0
5553,65.0,0,120,3.0,64.0
5554,60.0,75,390,14.0,64.0
5555,60.0,0,390,4.0,64.0
5556,65.0,0,390,4.0,64.0
5557,41.0,0,390,15.0,64.0
5558,60.0,0,390,12.0,64.0
5559,56.0,0,390,13.0,64.0
5560,77.0,120,120,2.0,64.0
5561,80.0,0,120,0.0,64.0
5562,72.0,0,120,3.0,64.0
5563,80.0,0,120,2.0,64.0
5564,60.0,120,120,3.0,64.0
5565,72.0,0,120,2.0,64.0
5566,92.0,0,120,0.0,64.0
5567,77.0,0,120,0.0,64.0
5568,74.0,0,120,3.0,64.0
5569,77.0,0,120,2.0,64.0
5570,89.0,40,120,0.0,64.0
5571,62.0,0,120,3.0,64.0
5572,65.0,5,120,3.0,64.0
5573,74.0,0,15,2.0,64.0
5574,74.0,0,120,0.0,64.0
5575,77.0,0,120,3.0,64.0
5576,77.0,0,120,2.0,64.0
5577,86.0,0,120,0.0,64.0
5578,87.0,0,90,0.0,64.0
5579,43.0,0,1320,15.0,64.0
5580,55.0,40,1320,12.0,64.0
5581,60.0,0,960,13.0,64.0
5582,75.0,0,90,0.0,64.0
5583,62.0,0,1320,11.0,64.0
5584,60.0,0,960,4.0,64.0
5585,55.0,0,1350,14.0,64.0
5586,60.0,120,960,14.0,64.0
5587,75.0,80,90,2.0,64.0
5588,89.0,80,90,0.0,64.0
5589,77.0,0,90,0.0,64.0
5590,77.0,0,90,2.0,64.0
5591,67.0,0,120,2.0,64.0
5592,55.0,0,120,3.0,64.0
5593,67.0,0,120,3.0,64.0
5594,75.0,120,90,0.0,64.0
5595,75.0,0,90,2.0,64.0
5596,87.0,0,90,0.0,64.0
5597,72.0,115,120,3.0,64.0
5598,84.0,0,240,0.0,64.0
5599,72.0,0,120,2.0,64.0
5600,60.0,0,120,3.0,64.0
5601,72.0,5,240,0.0,64.0
5602,75.0,240,120,2.0,64.0
5603,63.0,0,120,3.0,64.0
5604,75.0,0,120,3.0,64.0
5605,79.0,75,390,3.0,64.0
5606,67.0,0,390,3.0,64.0
5607,72.0,0,120,2.0,64.0
5608,72.0,0,120,0.0,64.0
5609,84.0,120,120,0.0,64.0
5610,75.0,0,120,0.0,64.0
5611,75.0,40,120,2.0,64.0
5612,87.0,0,120,0.0,64.0
5613,91.0,0,120,0.0,64.0
5614,79.0,0,120,0.0,64.0
5615,79.0,0,30,2.0,64.0
5616,55.0,0,120,3.0,64.0
5617,59.0,0,390,4.0,64.0
5618,62.0,0,15,4.0,64.0
5619,59.0,80,390,13.0,64.0
5620,71.0,0,120,0.0,64.0
5621,67.0,0,120,3.0,64.0
5622,67.0,0,120,2.0,64.0
5623,59.0,0,390,14.0,64.0
5624,83.0,120,120,0.0,64.0
5625,71.0,0,15,2.0,64.0
5626,71.0,0,120,3.0,64.0
5627,59.0,0,120,3.0,64.0
5628,74.0,0,120,0.0,64.0
5629,74.0,0,120,2.0,64.0
5630,86.0,0,120,0.0,64.0
5631,62.0,0,120,3.0,64.0
5632,77.0,0,120,0.0,64.0
5633,89.0,0,120,0.0,64.0
5634,77.0,0,120,2.0,64.0
5635,74.0,0,120,2.0,64.0
5636,74.0,0,120,3.0,64.0
5637,83.0,0,120,0.0,64.0
5638,79.0,0,120,2.0,64.0
5639,79.0,0,120,3.0,64.0
5640,67.0,0,120,3.0,64.0
5641,71.0,0,120,2.0,64.0
5642,71.0,120,120,0.0,64.0
5643,75.0,0,390,2.0,64.0
5644,72.0,75,390,2.0,64.0
5645,63.0,0,840,4.0,64.0
5646,60.0,0,840,4.0,64.0
5647,84.0,0,120,3.0,64.0
5648,87.0,0,390,0.0,64.0
5649,60.0,0,840,12.0,64.0
5650,48.0,0,840,14.0,64.0
5651,60.0,0,840,14.0,64.0
5652,36.0,0,840,15.0,64.0
5653,75.0,0,390,0.0,64.0
5654,55.0,0,840,13.0,64.0
5655,63.0,0,840,11.0,64.0
5656,72.0,120,15,3.0,64.0
5657,60.0,0,120,3.0,64.0
5658,63.0,40,120,3.0,64.0
5659,75.0,0,120,3.0,64.0
5660,79.0,125,120,3.0,64.0
5661,67.0,0,120,3.0,64.0
5662,72.0,120,120,3.0,64.0
5663,60.0,0,120,3.0,64.0
5664,63.0,0,120,3.0,64.0
5665,51.0,120,120,3.0,64.0
5666,67.0,0,120,3.0,64.0
5667,55.0,115,120,3.0,64.0
5668,72.0,85,120,3.0,64.0
5669,60.0,0,120,3.0,64.0
5670,72.0,0,390,2.0,64.0
5671,60.0,0,390,5.0,64.0
5672,36.0,120,90,15.0,64.0
5673,60.0,0,390,3.0,64.0
5674,67.0,0,390,3.0,64.0
5675,48.0,0,390,7.0,64.0
5676,60.0,0,90,12.0,64.0
5677,63.0,0,90,11.0,64.0
5678,36.0,0,90,14.0,64.0
5679,75.0,40,390,0.0,64.0
5680,67.0,0,390,2.0,64.0
5681,48.0,0,390,4.0,64.0
5682,36.0,0,390,4.0,64.0
5683,72.0,0,390,0.0,64.0
5684,55.0,0,90,13.0,64.0
5685,48.0,120,90,13.0,64.0
5686,60.0,0,90,11.0,64.0
5687,39.0,0,90,14.0,64.0
5688,55.0,0,90,12.0,64.0
5689,39.0,0,90,15.0,64.0
5690,43.0,0,90,15.0,64.0
5691,60.0,0,90,12.0,64.0
5692,43.0,0,90,14.0,64.0
5693,63.0,80,90,11.0,64.0
5694,55.0,0,90,13.0,64.0
5695,48.0,0,90,14.0,64.0
5696,67.0,0,90,11.0,64.0
5697,48.0,120,90,15.0,64.0
5698,63.0,0,90,12.0,64.0
5699,60.0,0,90,13.0,64.0
5700,55.0,0,90,13.0,64.0
5701,55.0,0,840,4.0,64.0
5702,59.0,0,90,12.0,64.0
5703,43.0,0,840,4.0,64.0
5704,43.0,0,90,14.0,64.0
5705,62.0,120,90,11.0,64.0
5706,74.0,0,840,0.0,64.0
5707,43.0,0,90,15.0,64.0
5708,67.0,0,840,5.0,64.0
5709,67.0,80,840,2.0,64.0
5710,59.0,0,840,3.0,64.0
5711,55.0,0,840,7.0,64.0
5712,67.0,0,840,3.0,64.0
5713,71.0,0,840,0.0,64.0
5714,71.0,0,840,2.0,64.0
5715,38.0,0,90,15.0,64.0
5716,67.0,0,90,11.0,64.0
5717,59.0,0,90,13.0,64.0
5718,38.0,0,90,14.0,64.0
5719,62.0,120,90,12.0,64.0
5720,62.0,0,90,13.0,64.0
5721,71.0,0,90,11.0,64.0
5722,67.0,120,90,12.0,64.0
5723,43.0,0,90,14.0,64.0
5724,43.0,0,90,15.0,64.0
5725,35.0,120,90,15.0,64.0
5726,71.0,0,90,12.0,64.0
5727,47.0,0,90,14.0,64.0
5728,67.0,0,90,13.0,64.0
5729,74.0,0,90,11.0,64.0
5730,77.0,0,90,11.0,64.0
5731,50.0,0,90,14.0,64.0
5732,74.0,0,90,12.0,64.0
5733,59.0,120,90,13.0,64.0
5734,38.0,0,90,15.0,64.0
5735,31.0,0,90,15.0,64.0
5736,43.0,0,90,14.0,64.0
5737,62.0,120,90,13.0,64.0
5738,74.0,0,90,11.0,64.0
5739,71.0,0,90,12.0,64.0
5740,77.0,0,90,11.0,64.0
5741,67.0,0,90,13.0,64.0
5742,35.0,0,90,15.0,64.0
5743,74.0,0,90,12.0,64.0
5744,47.0,40,90,14.0,64.0
5745,79.0,0,90,12.0,64.0
5746,71.0,0,90,13.0,64.0
5747,50.0,120,90,14.0,64.0
5748,38.0,0,90,15.0,64.0
5749,83.0,0,90,11.0,64.0
5750,60.0,0,390,3.0,64.0
5751,63.0,120,90,11.0,64.0
5752,67.0,0,390,2.0,64.0
5753,63.0,0,390,5.0,64.0
5754,60.0,0,90,12.0,64.0
5755,55.0,0,90,13.0,64.0
5756,51.0,0,390,7.0,64.0
5757,51.0,0,390,4.0,64.0
5758,39.0,0,390,4.0,64.0
5759,39.0,0,90,15.0,64.0
5760,72.0,0,390,2.0,64.0
5761,67.0,0,390,3.0,64.0
5762,39.0,0,90,14.0,64.0
5763,75.0,40,390,0.0,64.0
5764,72.0,0,390,0.0,64.0
5765,51.0,0,90,13.0,64.0
5766,55.0,0,90,12.0,64.0
5767,48.0,0,90,14.0,64.0
5768,36.0,0,90,15.0,64.0
5769,60.0,120,90,11.0,64.0
5770,39.0,0,90,15.0,64.0
5771,63.0,80,90,11.0,64.0
5772,55.0,0,90,13.0,64.0
5773,51.0,0,90,14.0,64.0
5774,60.0,0,90,12.0,64.0
5775,43.0,0,90,15.0,64.0
5776,60.0,0,90,13.0,64.0
5777,55.0,0,90,14.0,64.0
5778,67.0,0,90,11.0,64.0
5779,63.0,120,90,12.0,64.0
5780,65.0,0,90,12.0,64.0
5781,68.0,0,840,3.0,64.0
5782,53.0,0,90,13.0,64.0
5783,41.0,0,840,4.0,64.0
5784,53.0,0,840,7.0,64.0
5785,77.0,0,840,0.0,64.0
5786,72.0,0,840,2.0,64.0
5787,68.0,120,90,11.0,64.0
5788,53.0,0,90,14.0,64.0
5789,53.0,0,840,4.0,64.0
5790,65.0,0,840,5.0,64.0
5791,60.0,0,840,3.0,64.0
5792,68.0,80,840,2.0,64.0
5793,72.0,0,840,0.0,64.0
5794,41.0,0,90,15.0,64.0
5795,60.0,0,90,12.0,64.0
5796,44.0,0,90,14.0,64.0
5797,32.0,0,90,15.0,64.0
5798,56.0,0,90,13.0,64.0
5799,65.0,120,90,11.0,64.0
5800,60.0,0,90,13.0,64.0
5801,68.0,0,90,11.0,64.0
5802,48.0,120,90,14.0,64.0
5803,65.0,0,90,12.0,64.0
5804,36.0,0,90,15.0,64.0
5805,53.0,0,90,14.0,64.0
5806,68.0,0,90,12.0,64.0
5807,41.0,0,90,15.0,64.0
5808,65.0,0,90,13.0,64.0
5809,72.0,120,90,11.0,64.0
5810,44.0,0,90,15.0,64.0
5811,56.0,0,90,14.0,64.0
5812,77.0,0,90,11.0,64.0
5813,56.0,0,90,13.0,64.0
5814,72.0,120,90,12.0,64.0
5815,80.0,0,90,11.0,64.0
5816,77.0,0,90,12.0,64.0
5817,36.0,120,90,15.0,64.0
5818,60.0,0,90,13.0,64.0
5819,48.0,0,90,14.0,64.0
5820,80.0,0,90,12.0,64.0
5821,41.0,40,90,15.0,64.0
5822,53.0,0,90,14.0,64.0
5823,65.0,0,90,13.0,64.0
5824,84.0,0,90,11.0,64.0
5825,84.0,0,90,12.0,64.0
5826,56.0,0,90,14.0,64.0
5827,89.0,120,90,11.0,64.0
5828,44.0,0,90,15.0,64.0
5829,68.0,0,90,13.0,64.0
5830,55.0,0,390,7.0,64.0
5831,55.0,0,90,13.0,64.0
5832,67.0,0,390,5.0,64.0
5833,67.0,0,390,3.0,64.0
5834,59.0,120,90,12.0,64.0
5835,67.0,0,390,2.0,64.0
5836,62.0,0,90,11.0,64.0
5837,43.0,0,90,15.0,64.0
5838,55.0,40,390,4.0,64.0
5839,71.0,0,390,2.0,64.0
5840,74.0,0,390,0.0,64.0
5841,71.0,0,390,0.0,64.0
5842,43.0,0,390,4.0,64.0
5843,59.0,0,390,3.0,64.0
5844,43.0,0,90,14.0,64.0
5845,50.0,0,90,13.0,64.0
5846,38.0,0,90,15.0,64.0
5847,59.0,0,90,11.0,64.0
5848,50.0,0,90,14.0,64.0
5849,55.0,120,90,12.0,64.0
5850,55.0,0,90,14.0,64.0
5851,43.0,0,90,15.0,64.0
5852,55.0,0,90,13.0,64.0
5853,62.0,80,90,11.0,64.0
5854,59.0,0,90,12.0,64.0
5855,62.0,0,90,12.0,64.0
5856,47.0,0,90,15.0,64.0
5857,67.0,0,90,11.0,64.0
5858,59.0,120,90,13.0,64.0
5859,59.0,0,90,14.0,64.0
5860,68.0,0,840,2.0,64.0
5861,56.0,0,840,4.0,64.0
5862,44.0,0,840,4.0,64.0
5863,56.0,0,840,7.0,64.0
5864,56.0,0,90,14.0,64.0
5865,68.0,120,90,11.0,64.0
5866,44.0,0,90,15.0,64.0
5867,72.0,0,840,2.0,64.0
5868,72.0,0,840,0.0,64.0
5869,68.0,0,840,5.0,64.0
5870,56.0,0,90,13.0,64.0
5871,60.0,80,840,3.0,64.0
5872,75.0,0,840,0.0,64.0
5873,63.0,0,90,12.0,64.0
5874,68.0,0,840,3.0,64.0
5875,32.0,0,90,15.0,64.0
5876,60.0,120,90,12.0,64.0
5877,44.0,0,90,14.0,64.0
5878,63.0,0,90,11.0,64.0
5879,60.0,0,90,13.0,64.0
5880,63.0,0,90,13.0,64.0
5881,68.0,0,90,11.0,64.0
5882,48.0,0,90,14.0,64.0
5883,63.0,0,90,12.0,64.0
5884,36.0,120,90,15.0,64.0
5885,51.0,0,90,14.0,64.0
5886,68.0,0,90,13.0,64.0
5887,39.0,120,90,15.0,64.0
5888,68.0,0,90,12.0,64.0
5889,72.0,0,90,11.0,64.0
5890,56.0,0,90,14.0,64.0
5891,44.0,0,90,15.0,64.0
5892,72.0,0,90,12.0,64.0
5893,60.0,0,90,13.0,64.0
5894,75.0,120,90,11.0,64.0
5895,80.0,0,90,11.0,64.0
5896,63.0,0,90,13.0,64.0
5897,36.0,0,90,15.0,64.0
5898,75.0,120,90,12.0,64.0
5899,48.0,0,90,14.0,64.0
5900,51.0,40,90,14.0,64.0
5901,68.0,0,90,13.0,64.0
5902,84.0,0,90,11.0,64.0
5903,80.0,0,90,12.0,64.0
5904,39.0,0,90,15.0,64.0
5905,87.0,0,90,11.0,64.0
5906,44.0,0,90,15.0,64.0
5907,56.0,120,90,14.0,64.0
5908,84.0,0,90,12.0,64.0
5909,72.0,0,90,13.0,64.0
5910,68.0,0,390,3.0,64.0
5911,56.0,0,90,12.0,64.0
5912,68.0,40,390,2.0,64.0
5913,53.0,0,390,7.0,64.0
5914,41.0,0,90,14.0,64.0
5915,72.0,0,390,0.0,64.0
5916,60.0,120,90,11.0,64.0
5917,77.0,0,390,0.0,64.0
5918,72.0,0,390,2.0,64.0
5919,53.0,0,90,13.0,64.0
5920,41.0,0,90,15.0,64.0
5921,53.0,0,390,4.0,64.0
5922,41.0,0,390,4.0,64.0
5923,60.0,0,390,3.0,64.0
5924,65.0,0,390,5.0,64.0
5925,38.0,0,90,15.0,64.0
5926,65.0,120,90,11.0,64.0
5927,48.0,0,90,13.0,64.0
5928,50.0,0,90,14.0,64.0
5929,60.0,0,90,12.0,64.0
5930,53.0,0,90,14.0,64.0
5931,60.0,0,90,11.0,64.0
5932,56.0,80,90,12.0,64.0
5933,53.0,0,90,13.0,64.0
5934,41.0,0,90,15.0,64.0
5935,65.0,0,90,11.0,64.0
5936,60.0,0,90,12.0,64.0
5937,44.0,0,90,15.0,64.0
5938,56.0,0,90,13.0,64.0
5939,56.0,120,90,14.0,64.0
5940,74.0,0,840,0.0,64.0
5941,67.0,0,840,2.0,64.0
5942,67.0,0,840,3.0,64.0
5943,43.0,0,90,15.0,64.0
5944,67.0,0,90,12.0,64.0
5945,59.0,0,840,3.0,64.0
5946,43.0,0,840,4.0,64.0
5947,55.0,0,840,4.0,64.0
5948,71.0,80,840,2.0,64.0
5949,71.0,0,840,0.0,64.0
5950,55.0,120,90,14.0,64.0
5951,67.0,0,840,5.0,64.0
5952,55.0,0,90,13.0,64.0
5953,71.0,0,90,11.0,64.0
5954,55.0,0,840,7.0,64.0
5955,62.0,0,90,12.0,64.0
5956,67.0,0,90,11.0,64.0
5957,31.0,0,90,15.0,64.0
5958,59.0,0,90,13.0,64.0
5959,43.0,120,90,14.0,64.0
5960,47.0,0,90,14.0,64.0
5961,35.0,0,90,15.0,64.0
5962,62.0,0,90,13.0,64.0
5963,71.0,120,90,11.0,64.0
5964,67.0,0,90,12.0,64.0
5965,38.0,0,90,15.0,64.0
5966,67.0,0,90,13.0,64.0
5967,50.0,0,90,14.0,64.0
5968,71.0,120,90,12.0,64.0
5969,74.0,0,90,11.0,64.0
5970,55.0,120,90,14.0,64.0
5971,43.0,0,90,15.0,64.0
5972,59.0,0,90,13.0,64.0
5973,74.0,0,90,12.0,64.0
5974,79.0,0,90,11.0,64.0
5975,83.0,0,90,11.0,64.0
5976,62.0,0,90,13.0,64.0
5977,35.0,0,90,15.0,64.0
5978,79.0,0,90,12.0,64.0
5979,47.0,120,90,14.0,64.0
5980,86.0,0,90,11.0,64.0
5981,38.0,40,90,15.0,64.0
5982,67.0,0,90,13.0,64.0
5983,50.0,0,90,14.0,64.0
5984,83.0,0,90,12.0,64.0
5985,71.0,0,90,13.0,64.0
5986,55.0,0,90,14.0,64.0
5987,43.0,0,90,15.0,64.0
5988,86.0,120,90,12.0,64.0
5989,91.0,0,90,11.0,64.0
5990,71.0,0,390,2.0,64.0
5991,74.0,0,390,0.0,64.0
5992,65.0,0,390,3.0,64.0
5993,59.0,0,90,12.0,64.0
5994,53.0,120,90,13.0,64.0
5995,62.0,0,390,5.0,64.0
5996,50.0,0,390,4.0,64.0
5997,38.0,0,390,4.0,64.0
5998,50.0,0,390,7.0,64.0
5999,38.0,0,90,15.0,64.0
6000,38.0,0,90,14.0,64.0
6001,59.0,0,390,3.0,64.0
6002,71.0,0,390,0.0,64.0
6003,65.0,40,390,2.0,64.0
6004,62.0,0,90,11.0,64.0
6005,65.0,0,90,11.0,64.0
6006,47.0,0,90,14.0,64.0
6007,35.0,0,90,15.0,64.0
6008,62.0,0,90,12.0,64.0
6009,50.0,120,90,13.0,64.0
6010,59.0,0,90,12.0,64.0
6011,62.0,0,90,11.0,64.0
6012,50.0,80,90,14.0,64.0
6013,38.0,0,90,15.0,64.0
6014,53.0,0,90,13.0,64.0
6015,53.0,120,90,14.0,64.0
6016,59.0,0,90,13.0,64.0
6017,62.0,0,90,12.0,64.0
6018,65.0,0,90,11.0,64.0
6019,41.0,0,90,15.0,64.0
6020,39.0,0,90,15.0,64.0
6021,67.0,0,90,12.0,64.0
6022,51.0,0,90,14.0,64.0
6023,63.0,0,840,5.0,64.0
6024,67.0,0,840,2.0,64.0
6025,51.0,0,840,7.0,64.0
6026,60.0,0,840,3.0,64.0
6027,39.0,0,840,4.0,64.0
6028,67.0,0,840,3.0,64.0
6029,72.0,0,840,2.0,64.0
6030,51.0,0,90,13.0,64.0
6031,72.0,120,90,11.0,64.0
6032,51.0,0,840,4.0,64.0
6033,75.0,80,840,0.0,64.0
6034,72.0,0,840,0.0,64.0
6035,55.0,0,90,13.0,64.0
6036,43.0,120,90,14.0,64.0
6037,67.0,0,90,11.0,64.0
6038,31.0,0,90,15.0,64.0
6039,63.0,0,90,12.0,64.0
6040,67.0,0,90,12.0,64.0
6041,36.0,0,90,15.0,64.0
6042,72.0,0,90,11.0,64.0
6043,60.0,120,90,13.0,64.0
6044,48.0,0,90,14.0,64.0
6045,63.0,0,90,13.0,64.0
6046,72.0,120,90,12.0,64.0
6047,39.0,0,90,15.0,64.0
6048,51.0,0,90,14.0,64.0
6049,75.0,0,90,11.0,64.0
6050,75.0,0,90,12.0,64.0
6051,55.0,0,90,14.0,64.0
6052,79.0,120,90,11.0,64.0
6053,55.0,0,90,13.0,64.0
6054,43.0,0,90,15.0,64.0
6055,48.0,0,90,14.0,64.0
6056,84.0,120,90,11.0,64.0
6057,36.0,0,90,15.0,64.0
6058,60.0,0,90,13.0,64.0
6059,79.0,0,90,12.0,64.0
6060,84.0,40,90,12.0,64.0
6061,63.0,0,90,13.0,64.0
6062,87.0,0,90,11.0,64.0
6063,39.0,0,90,15.0,64.0
6064,51.0,0,90,14.0,64.0
6065,91.0,0,90,11.0,64.0
6066,43.0,0,90,15.0,64.0
6067,87.0,120,90,12.0,64.0
6068,55.0,0,90,14.0,64.0
6069,67.0,0,90,13.0,64.0
6070,74.0,0,390,2.0,64.0
6071,35.0,0,390,4.0,64.0
6072,47.0,0,390,4.0,64.0
6073,62.0,0,90,11.0,64.0
6074,71.0,0,390,0.0,64.0
6075,59.0,0,390,5.0,64.0
6076,47.0,0,90,14.0,64.0
6077,47.0,0,390,7.0,64.0
6078,67.0,0,390,3.0,64.0
6079,59.0,0,90,12.0,64.0
6080,35.0,120,90,15.0,64.0
6081,62.0,40,390,3.0,64.0
6082,74.0,0,390,0.0,64.0
6083,67.0,0,390,2.0,64.0
6084,55.0,0,90,13.0,64.0
6085,59.0,120,90,11.0,64.0
6086,50.0,0,90,13.0,64.0
6087,43.0,0,90,14.0,64.0
6088,31.0,0,90,15.0,64.0
6089,55.0,0,90,12.0,64.0
6090,62.0,0,90,11.0,64.0
6091,47.0,0,90,14.0,64.0
6092,59.0,0,90,12.0,64.0
6093,55.0,0,90,13.0,64.0
6094,35.0,80,90,15.0,64.0
6095,50.0,0,90,14.0,64.0
6096,59.0,0,90,13.0,64.0
6097,62.0,120,90,12.0,64.0
6098,38.0,0,90,15.0,64.0
6099,67.0,0,90,11.0,64.0
6100,48.0,0,90,13.0,64.0
6101,60.0,0,840,3.0,64.0
6102,72.0,80,840,0.0,64.0
6103,67.0,0,840,3.0,64.0
6104,72.0,0,840,2.0,64.0
6105,75.0,0,840,0.0,64.0
6106,63.0,0,90,12.0,64.0
6107,48.0,0,840,4.0,64.0
6108,60.0,0,840,5.0,64.0
6109,67.0,0,840,2.0,64.0
6110,36.0,0,90,15.0,64.0
6111,48.0,0,90,14.0,64.0
6112,36.0,0,840,4.0,64.0
6113,67.0,120,90,11.0,64.0
6114,48.0,0,840,7.0,64.0
6115,43.0,0,90,14.0,64.0
6116,51.0,0,90,13.0,64.0
6117,31.0,0,90,15.0,64.0
6118,63.0,0,90,11.0,64.0
6119,60.0,120,90,12.0,64.0
6120,36.0,0,90,15.0,64.0
6121,48.0,0,90,14.0,64.0
6122,67.0,120,90,11.0,64.0
6123,55.0,0,90,13.0,64.0
6124,63.0,0,90,12.0,64.0
6125,39.0,0,90,15.0,64.0
6126,51.0,0,90,14.0,64.0
6127,67.0,0,90,12.0,64.0
6128,72.0,0,90,11.0,64.0
6129,60.0,120,90,13.0,64.0
6130,75.0,0,90,11.0,64.0
6131,55.0,0,90,14.0,64.0
6132,43.0,0,90,15.0,64.0
6133,51.0,0,90,13.0,64.0
6134,72.0,120,90,12.0,64.0
6135,79.0,0,90,11.0,64.0
6136,75.0,0,90,12.0,64.0
6137,55.0,0,90,13.0,64.0
6138,48.0,120,90,14.0,64.0
6139,36.0,0,90,15.0,64.0
6140,39.0,0,90,15.0,64.0
6141,79.0,0,90,12.0,64.0
6142,51.0,40,90,14.0,64.0
6143,60.0,0,90,13.0,64.0
6144,84.0,0,90,11.0,64.0
6145,43.0,0,90,15.0,64.0
6146,55.0,0,90,14.0,64.0
6147,63.0,0,90,13.0,64.0
6148,84.0,0,90,12.0,64.0
6149,87.0,120,90,11.0,64.0
6150,41.0,0,90,14.0,64.0
6151,53.0,0,90,13.0,64.0
6152,53.0,0,390,5.0,64.0
6153,41.0,0,90,15.0,64.0
6154,68.0,0,390,3.0,64.0
6155,53.0,0,390,4.0,64.0
6156,65.0,120,90,11.0,64.0
6157,53.0,0,390,7.0,64.0
6158,72.0,0,390,2.0,64.0
6159,77.0,0,390,0.0,64.0
6160,60.0,0,390,3.0,64.0
6161,60.0,0,90,12.0,64.0
6162,68.0,40,390,2.0,64.0
6163,41.0,0,390,4.0,64.0
6164,72.0,0,390,0.0,64.0
6165,38.0,0,90,15.0,64.0
6166,48.0,0,90,13.0,64.0
6167,56.0,0,90,12.0,64.0
6168,50.0,120,90,14.0,64.0
6169,60.0,0,90,11.0,64.0
6170,41.0,0,90,15.0,64.0
6171,65.0,0,90,11.0,64.0
6172,53.0,80,90,13.0,64.0
6173,60.0,0,90,12.0,64.0
6174,53.0,0,90,14.0,64.0
6175,65.0,0,90,11.0,64.0
6176,56.0,120,90,13.0,64.0
6177,44.0,0,90,15.0,64.0
6178,60.0,0,90,12.0,64.0
6179,56.0,0,90,14.0,64.0
6180,43.0,0,1320,4.0,64.0
6181,74.0,40,1320,2.0,64.0
6182,67.0,0,1320,3.0,64.0
6183,79.0,0,1320,0.0,64.0
6184,55.0,0,1320,7.0,64.0
6185,62.0,0,90,12.0,64.0
6186,72.0,0,960,2.0,64.0
6187,55.0,120,90,14.0,64.0
6188,55.0,0,90,13.0,64.0
6189,55.0,0,1320,5.0,64.0
6190,74.0,0,1320,0.0,64.0
6191,55.0,0,1320,4.0,64.0
6192,67.0,0,90,11.0,64.0
6193,72.0,80,960,3.0,64.0
6194,43.0,0,90,15.0,64.0
6195,43.0,0,90,14.0,64.0
6196,62.0,120,90,11.0,64.0
6197,48.0,0,90,13.0,64.0
6198,31.0,0,90,15.0,64.0
6199,60.0,0,90,12.0,64.0
6200,62.0,0,90,12.0,64.0
6201,50.0,0,90,13.0,64.0
6202,38.0,120,90,15.0,64.0
6203,67.0,0,90,11.0,64.0
6204,50.0,0,90,14.0,64.0
6205,72.0,0,90,11.0,64.0
6206,67.0,0,90,12.0,64.0
6207,55.0,0,90,13.0,64.0
6208,43.0,0,90,15.0,64.0
6209,55.0,120,90,14.0,64.0
6210,43.0,120,90,14.0,64.0
6211,31.0,0,90,15.0,64.0
6212,72.0,0,90,12.0,64.0
6213,60.0,0,90,13.0,64.0
6214,74.0,0,90,11.0,64.0
6215,38.0,0,90,15.0,64.0
6216,62.0,120,90,13.0,64.0
6217,79.0,0,90,11.0,64.0
6218,74.0,0,90,12.0,64.0
6219,50.0,0,90,14.0,64.0
6220,55.0,0,90,14.0,64.0
6221,43.0,0,90,15.0,64.0
6222,79.0,120,90,12.0,64.0
6223,67.0,0,90,13.0,64.0
6224,84.0,0,90,11.0,64.0
6225,84.0,40,90,12.0,64.0
6226,72.0,0,90,13.0,64.0
6227,50.0,0,90,14.0,64.0
6228,38.0,0,90,15.0,64.0
6229,86.0,0,90,11.0,64.0
6230,71.0,40,390,3.0,64.0
6231,43.0,0,90,14.0,64.0
6232,71.0,0,390,2.0,64.0
6233,55.0,0,90,13.0,64.0
6234,43.0,0,90,15.0,64.0
6235,62.0,0,90,11.0,64.0
6236,59.0,120,90,12.0,64.0
6237,38.0,0,90,15.0,64.0
6238,50.0,0,90,13.0,64.0
6239,59.0,0,90,11.0,64.0
6240,50.0,120,90,14.0,64.0
6241,55.0,0,90,12.0,64.0
6242,55.0,0,90,13.0,64.0
6243,62.0,40,90,11.0,64.0
6244,55.0,0,90,14.0,64.0
6245,43.0,0,90,15.0,64.0
6246,59.0,0,90,12.0,64.0
6247,62.0,0,90,12.0,64.0
6248,59.0,120,90,13.0,64.0
6249,67.0,0,90,11.0,64.0
6250,47.0,0,90,15.0,64.0
6251,59.0,0,90,14.0,64.0
6252,60.0,0,90,14.0,64.0
6253,63.0,0,840,3.0,64.0
6254,75.0,0,840,0.0,64.0
6255,67.0,0,840,2.0,64.0
6256,72.0,0,840,2.0,64.0
6257,48.0,120,90,13.0,64.0
6258,67.0,0,840,3.0,64.0
6259,72.0,0,840,0.0,64.0
6260,67.0,0,90,11.0,64.0
6261,48.0,0,840,4.0,64.0
6262,48.0,0,90,15.0,64.0
6263,63.0,0,90,12.0,64.0
6264,60.0,0,840,5.0,64.0
6265,48.0,0,840,7.0,64.0
6266,36.0,80,840,4.0,64.0
6267,48.0,0,90,14.0,64.0
6268,36.0,0,90,15.0,64.0
6269,51.0,0,90,13.0,64.0
6270,63.0,120,90,11.0,64.0
6271,60.0,0,90,12.0,64.0
6272,67.0,0,90,11.0,64.0
6273,55.0,0,90,13.0,64.0
6274,63.0,0,90,12.0,64.0
6275,51.0,0,90,14.0,64.0
6276,39.0,120,90,15.0,64.0
6277,43.0,0,90,15.0,64.0
6278,72.0,120,90,11.0,64.0
6279,67.0,0,90,12.0,64.0
6280,55.0,0,90,14.0,64.0
6281,60.0,0,90,13.0,64.0
6282,60.0,0,90,13.0,64.0
6283,75.0,0,90,11.0,64.0
6284,72.0,0,90,12.0,64.0
6285,60.0,0,90,14.0,64.0
6286,48.0,120,90,15.0,64.0
6287,79.0,0,90,11.0,64.0
6288,63.0,0,90,13.0,64.0
6289,36.0,0,90,15.0,64.0
6290,48.0,120,90,14.0,64.0
6291,75.0,0,90,12.0,64.0
6292,39.0,0,90,15.0,64.0
6293,67.0,0,90,13.0,64.0
6294,84.0,0,90,11.0,64.0
6295,79.0,40,90,12.0,64.0
6296,51.0,0,90,14.0,64.0
6297,55.0,0,90,14.0,64.0
6298,43.0,0,90,15.0,64.0
6299,87.0,0,90,11.0,64.0
6300,72.0,440,90,13.0,64.0
6301,84.0,0,90,12.0,64.0
6302,36.0,75,390,15.0,64.0
6303,48.0,0,390,14.0,64.0
6304,36.0,0,390,4.0,64.0
6305,48.0,0,390,4.0,64.0
6306,36.0,0,390,8.0,64.0
6307,67.0,0,240,6.0,64.0
6308,75.0,0,240,3.0,64.0
6309,60.0,0,240,12.0,64.0
6310,72.0,0,240,3.0,64.0
6311,55.0,0,240,13.0,64.0
6312,60.0,0,240,7.0,64.0
6313,55.0,0,240,7.0,64.0
6314,60.0,0,240,5.0,64.0
6315,72.0,0,240,6.0,64.0
6316,63.0,0,240,12.0,64.0
6317,75.0,0,240,2.0,64.0
6318,51.0,245,240,7.0,64.0
6319,72.0,0,240,11.0,64.0
6320,67.0,0,240,11.0,64.0
6321,67.0,0,240,5.0,64.0
6322,84.0,0,240,0.0,64.0
6323,79.0,0,240,0.0,64.0
6324,43.0,0,840,8.0,64.0
6325,43.0,0,840,4.0,64.0
6326,55.0,120,840,4.0,64.0
6327,55.0,0,840,14.0,64.0
6328,43.0,0,840,15.0,64.0
6329,84.0,0,120,2.0,64.0
6330,72.0,0,120,3.0,64.0
6331,72.0,0,120,11.0,64.0
6332,84.0,0,120,0.0,64.0
6333,86.0,0,120,0.0,64.0
6334,86.0,0,120,2.0,64.0
6335,74.0,115,120,11.0,64.0
6336,74.0,0,120,3.0,64.0
6337,69.0,0,120,3.0,64.0
6338,81.0,120,120,0.0,64.0
6339,69.0,5,120,11.0,64.0
6340,81.0,0,120,2.0,64.0
6341,71.0,0,120,3.0,64.0
6342,83.0,0,120,2.0,64.0
6343,71.0,0,720,11.0,64.0
6344,83.0,120,120,0.0,64.0
6345,66.0,0,120,3.0,64.0
6346,66.0,0,120,12.0,64.0
6347,78.0,0,120,2.0,64.0
6348,78.0,120,120,0.0,64.0
6349,79.0,0,480,0.0,64.0
6350,67.0,0,480,3.0,64.0
6351,67.0,0,120,12.0,64.0
6352,79.0,165,480,2.0,64.0
6353,62.0,0,120,3.0,64.0
6354,62.0,0,120,12.0,64.0
6355,39.0,75,390,4.0,64.0
6356,84.0,0,240,0.0,64.0
6357,39.0,0,390,8.0,64.0
6358,63.0,0,240,12.0,64.0
6359,51.0,0,390,4.0,64.0
6360,51.0,0,390,14.0,64.0
6361,63.0,0,240,3.0,64.0
6362,39.0,0,390,15.0,64.0
6363,84.0,0,240,2.0,64.0
6364,67.0,0,240,5.0,64.0
6365,63.0,0,240,12.0,64.0
6366,60.0,0,240,12.0,64.0
6367,72.0,0,240,6.0,64.0
6368,55.0,0,240,13.0,64.0
6369,75.0,0,240,3.0,64.0
6370,72.0,245,240,3.0,64.0
6371,55.0,0,240,7.0,64.0
6372,79.0,0,240,0.0,64.0
6373,60.0,0,240,5.0,64.0
6374,75.0,0,240,2.0,64.0
6375,72.0,0,240,2.0,64.0
6376,51.0,0,240,7.0,64.0
6377,72.0,0,240,11.0,64.0
6378,84.0,0,240,0.0,64.0
6379,67.0,0,240,11.0,64.0
6380,67.0,0,240,6.0,64.0
6381,60.0,0,240,7.0,64.0
6382,41.0,0,840,15.0,64.0
6383,53.0,0,840,14.0,64.0
6384,41.0,0,840,4.0,64.0
6385,41.0,0,840,8.0,64.0
6386,53.0,120,840,4.0,64.0
6387,82.0,0,120,0.0,64.0
6388,70.0,120,120,11.0,64.0
6389,82.0,0,120,2.0,64.0
6390,70.0,0,120,3.0,64.0
6391,72.0,0,120,3.0,64.0
6392,84.0,0,120,2.0,64.0
6393,84.0,115,120,0.0,64.0
6394,72.0,0,120,11.0,64.0
6395,67.0,5,120,11.0,64.0
6396,79.0,0,120,2.0,64.0
6397,67.0,120,120,3.0,64.0
6398,79.0,0,120,0.0,64.0
6399,80.0,120,120,2.0,64.0
6400,68.0,0,480,11.0,64.0
6401,80.0,0,120,0.0,64.0
6402,68.0,0,120,3.0,64.0
6403,76.0,0,120,2.0,64.0
6404,64.0,0,120,12.0,64.0
6405,76.0,120,120,0.0,64.0
6406,64.0,0,120,3.0,64.0
6407,77.0,0,240,0.0,64.0
6408,77.0,0,240,2.0,64.0
6409,65.0,0,240,3.0,64.0
6410,65.0,0,120,12.0,64.0
6411,60.0,235,120,12.0,64.0
6412,60.0,0,120,3.0,64.0
6413,67.0,0,240,11.0,64.0
6414,79.0,0,240,0.0,64.0
6415,43.0,0,390,8.0,64.0
6416,43.0,0,390,4.0,64.0
6417,75.0,0,240,0.0,64.0
6418,67.0,0,240,3.0,64.0
6419,63.0,0,240,3.0,64.0
6420,55.0,75,390,4.0,64.0
6421,75.0,0,240,2.0,64.0
6422,55.0,0,390,14.0,64.0
6423,43.0,0,390,15.0,64.0
6424,63.0,0,240,12.0,64.0
6425,79.0,165,240,2.0,64.0
6426,71.0,0,240,2.0,64.0
6427,59.0,0,240,7.0,64.0
6428,65.0,0,240,6.0,64.0
6429,71.0,0,240,6.0,64.0
6430,62.0,0,240,7.0,64.0
6431,71.0,0,240,11.0,64.0
6432,65.0,0,240,11.0,64.0
6433,79.0,245,240,0.0,64.0
6434,67.0,0,240,12.0,64.0
6435,62.0,0,240,12.0,64.0
6436,71.0,0,240,3.0,64.0
6437,55.0,0,240,13.0,64.0
6438,59.0,0,240,5.0,64.0
6439,53.0,0,240,7.0,64.0
6440,83.0,0,240,0.0,64.0
6441,74.0,0,240,3.0,64.0
6442,74.0,0,240,2.0,64.0
6443,65.0,0,240,5.0,64.0
6444,56.0,0,840,14.0,64.0
6445,44.0,0,840,4.0,64.0
6446,56.0,120,840,4.0,64.0
6447,44.0,0,840,8.0,64.0
6448,44.0,0,840,15.0,64.0
6449,74.0,120,120,11.0,64.0
6450,74.0,0,120,0.0,64.0
6451,86.0,0,120,0.0,64.0
6452,86.0,0,120,2.0,64.0
6453,74.0,0,120,2.0,64.0
6454,74.0,0,120,3.0,64.0
6455,87.0,0,240,2.0,64.0
6456,87.0,0,240,0.0,64.0
6457,75.0,0,120,0.0,64.0
6458,75.0,0,120,2.0,64.0
6459,75.0,0,120,11.0,64.0
6460,75.0,115,120,3.0,64.0
6461,83.0,0,120,2.0,64.0
6462,83.0,120,120,0.0,64.0
6463,71.0,0,120,3.0,64.0
6464,71.0,5,120,11.0,64.0
6465,72.0,165,720,11.0,64.0
6466,84.0,0,120,0.0,64.0
6467,72.0,0,120,3.0,64.0
6468,84.0,120,120,2.0,64.0
6469,67.0,0,120,3.0,64.0
6470,79.0,0,120,2.0,64.0
6471,67.0,120,120,12.0,64.0
6472,79.0,0,120,0.0,64.0
6473,68.0,0,480,3.0,64.0
6474,68.0,0,120,12.0,64.0
6475,80.0,0,480,0.0,64.0
6476,80.0,0,480,2.0,64.0
6477,63.0,235,120,3.0,64.0
6478,63.0,0,120,12.0,64.0
6479,65.0,0,240,3.0,64.0
6480,53.0,0,390,14.0,64.0
6481,65.0,0,240,12.0,64.0
6482,41.0,0,390,4.0,64.0
6483,53.0,0,390,4.0,64.0
6484,41.0,75,390,15.0,64.0
6485,41.0,0,390,8.0,64.0
6486,72.0,0,240,3.0,64.0
6487,74.0,0,240,6.0,64.0
6488,62.0,0,240,7.0,64.0
6489,53.0,0,240,7.0,64.0
6490,72.0,0,240,11.0,64.0
6491,65.0,0,240,5.0,64.0
6492,68.0,0,240,12.0,64.0
6493,72.0,0,240,2.0,64.0
6494,77.0,0,240,2.0,64.0
6495,84.0,0,240,0.0,64.0
6496,80.0,0,240,0.0,64.0
6497,62.0,0,240,13.0,64.0
6498,60.0,0,240,5.0,64.0
6499,65.0,0,240,6.0,64.0
6500,65.0,0,240,12.0,64.0
6501,77.0,245,240,3.0,64.0
6502,74.0,0,240,11.0,64.0
6503,60.0,0,240,7.0,64.0
6504,55.0,0,840,14.0,64.0
6505,43.0,0,840,8.0,64.0
6506,43.0,0,840,4.0,64.0
6507,43.0,0,840,15.0,64.0
6508,55.0,0,840,4.0,64.0
6509,72.0,0,120,11.0,64.0
6510,72.0,0,120,3.0,64.0
6511,84.0,0,120,2.0,64.0
6512,84.0,0,120,0.0,64.0
6513,74.0,115,120,11.0,64.0
6514,86.0,0,120,0.0,64.0
6515,74.0,0,120,3.0,64.0
6516,86.0,5,120,2.0,64.0
6517,81.0,0,120,0.0,64.0
6518,69.0,5,120,11.0,64.0
6519,81.0,0,120,2.0,64.0
6520,69.0,0,120,3.0,64.0
6521,71.0,165,720,11.0,64.0
6522,71.0,5,120,3.0,64.0
6523,83.0,0,120,2.0,64.0
6524,83.0,120,120,0.0,64.0
6525,78.0,120,120,0.0,64.0
6526,78.0,0,120,2.0,64.0
6527,66.0,0,120,3.0,64.0
6528,66.0,0,120,12.0,64.0
6529,79.0,0,240,2.0,64.0
6530,67.0,120,120,12.0,64.0
6531,67.0,0,240,3.0,64.0
6532,79.0,0,240,0.0,64.0
6533,62.0,235,120,12.0,64.0
6534,62.0,0,120,3.0,64.0
6535,77.0,0,240,0.0,64.0
6536,77.0,0,240,2.0,64.0
6537,50.0,0,390,14.0,64.0
6538,38.0,0,390,15.0,64.0
6539,65.0,0,240,12.0,64.0
6540,38.0,0,390,4.0,64.0
6541,50.0,75,390,4.0,64.0
6542,38.0,0,390,8.0,64.0
6543,65.0,0,240,3.0,64.0
6544,71.0,0,240,3.0,64.0
6545,59.0,0,240,5.0,64.0
6546,83.0,0,240,0.0,64.0
6547,74.0,0,240,3.0,64.0
6548,53.0,0,240,7.0,64.0
6549,71.0,0,240,3.0,64.0
6550,71.0,0,240,11.0,64.0
6551,62.0,0,240,12.0,64.0
6552,77.0,0,240,11.0,64.0
6553,71.0,0,240,2.0,64.0
6554,77.0,0,240,6.0,64.0
6555,71.0,0,240,6.0,64.0
6556,77.0,0,240,0.0,64.0
6557,59.0,245,240,13.0,64.0
6558,65.0,0,240,12.0,64.0
6559,74.0,0,240,2.0,64.0
6560,59.0,0,240,7.0,64.0
6561,65.0,0,240,5.0,64.0
6562,62.0,0,240,7.0,64.0
6563,39.0,0,840,4.0,64.0
6564,39.0,120,840,15.0,64.0
6565,51.0,0,840,14.0,64.0
6566,39.0,0,840,8.0,64.0
6567,51.0,0,840,4.0,64.0
6568,78.0,0,120,0.0,64.0
6569,78.0,0,120,11.0,64.0
6570,78.0,0,120,2.0,64.0
6571,78.0,0,120,3.0,64.0
6572,79.0,0,120,11.0,64.0
6573,79.0,115,120,2.0,64.0
6574,79.0,0,120,3.0,64.0
6575,79.0,0,120,0.0,64.0
6576,74.0,5,120,11.0,64.0
6577,74.0,0,120,2.0,64.0
6578,74.0,120,120,3.0,64.0
6579,74.0,0,120,0.0,64.0
6580,75.0,0,120,2.0,64.0
6581,75.0,120,120,0.0,64.0
6582,75.0,0,480,11.0,64.0
6583,75.0,0,120,3.0,64.0
6584,71.0,0,120,3.0,64.0
6585,71.0,120,120,2.0,64.0
6586,71.0,0,120,12.0,64.0
6587,71.0,0,120,0.0,64.0
6588,72.0,0,240,2.0,64.0
6589,72.0,0,240,3.0,64.0
6590,72.0,235,240,0.0,64.0
6591,72.0,0,120,12.0,64.0
6592,66.0,0,120,12.0,64.0
6593,66.0,0,120,3.0,64.0
6594,47.0,75,390,4.0,64.0
6595,35.0,0,390,8.0,64.0
6596,74.0,0,240,0.0,64.0
6597,74.0,0,240,2.0,64.0
6598,71.0,0,240,2.0,64.0
6599,71.0,0,240,3.0,64.0
6600,67.0,165,240,12.0,64.0
6601,74.0,0,240,11.0,64.0
6602,35.0,0,390,4.0,64.0
6603,35.0,0,390,15.0,64.0
6604,71.0,0,240,0.0,64.0
6605,67.0,0,240,3.0,64.0
6606,47.0,0,390,14.0,64.0
6607,71.0,0,240,6.0,64.0
6608,59.0,0,240,13.0,64.0
6609,53.0,0,240,7.0,64.0
6610,74.0,0,240,6.0,64.0
6611,62.0,0,240,12.0,64.0
6612,67.0,0,240,12.0,64.0
6613,79.0,0,240,0.0,64.0
6614,74.0,0,240,11.0,64.0
6615,77.0,0,240,11.0,64.0
6616,59.0,0,240,7.0,64.0
6617,62.0,0,240,7.0,64.0
6618,59.0,0,240,5.0,64.0
6619,83.0,0,240,0.0,64.0
6620,71.0,0,240,3.0,64.0
6621,74.0,245,240,3.0,64.0
6622,74.0,0,240,2.0,64.0
6623,65.0,0,240,5.0,64.0
6624,71.0,0,240,2.0,64.0
6625,48.0,0,840,14.0,64.0
6626,36.0,0,840,8.0,64.0
6627,36.0,0,840,15.0,64.0
6628,36.0,0,840,4.0,64.0
6629,48.0,0,840,4.0,64.0
6630,77.0,0,120,3.0,64.0
6631,77.0,0,120,0.0,64.0
6632,77.0,0,120,11.0,64.0
6633,77.0,0,120,2.0,64.0
6634,79.0,0,120,11.0,64.0
6635,79.0,115,120,2.0,64.0
6636,79.0,0,120,3.0,64.0
6637,79.0,0,120,0.0,64.0
6638,74.0,5,120,11.0,64.0
6639,74.0,0,120,3.0,64.0
6640,74.0,0,120,0.0,64.0
6641,74.0,120,120,2.0,64.0
6642,75.0,0,720,11.0,64.0
6643,75.0,0,120,0.0,64.0
6644,75.0,120,120,2.0,64.0
6645,75.0,0,120,3.0,64.0
6646,71.0,0,120,0.0,64.0
6647,71.0,120,120,3.0,64.0
6648,71.0,0,120,12.0,64.0
6649,71.0,0,120,2.0,64.0
6650,72.0,0,480,2.0,64.0
6651,72.0,165,480,3.0,64.0
6652,72.0,120,120,12.0,64.0
6653,72.0,0,240,0.0,64.0
6654,67.0,0,120,3.0,64.0
6655,67.0,0,120,12.0,64.0
6656,68.0,0,240,3.0,64.0
6657,68.0,0,240,12.0,64.0
6658,41.0,0,390,14.0,64.0
6659,41.0,0,390,8.0,64.0
6660,77.0,0,240,2.0,64.0
6661,41.0,75,390,15.0,64.0
6662,41.0,0,390,4.0,64.0
6663,72.0,0,240,0.0,64.0
6664,53.0,0,390,4.0,64.0
6665,77.0,0,240,0.0,64.0
6666,53.0,0,240,7.0,64.0
6667,68.0,0,240,12.0,64.0
6668,77.0,0,240,2.0,64.0
6669,72.0,0,240,12.0,64.0
6670,84.0,0,240,0.0,64.0
6671,56.0,0,240,7.0,64.0
6672,62.0,0,240,13.0,64.0
6673,80.0,0,240,0.0,64.0
6674,74.0,245,240,11.0,64.0
6675,77.0,0,240,11.0,64.0
6676,77.0,0,240,6.0,64.0
6677,68.0,0,240,6.0,64.0
6678,77.0,0,240,3.0,64.0
6679,72.0,0,240,2.0,64.0
6680,65.0,0,240,5.0,64.0
6681,60.0,0,240,7.0,64.0
6682,56.0,0,240,5.0,64.0
6683,68.0,0,240,3.0,64.0
6684,43.0,0,1320,4.0,64.0
6685,43.0,115,1320,14.0,64.0
6686,43.0,0,1320,8.0,64.0
6687,55.0,0,1320,4.0,64.0
6688,43.0,0,1320,15.0,64.0
6689,77.0,0,120,0.0,64.0
6690,77.0,0,120,11.0,64.0
6691,77.0,0,120,2.0,64.0
6692,77.0,0,120,3.0,64.0
6693,79.0,115,120,11.0,64.0
6694,79.0,0,120,0.0,64.0
6695,79.0,0,120,2.0,64.0
6696,79.0,0,120,3.0,64.0
6697,74.0,0,120,2.0,64.0
6698,74.0,0,120,3.0,64.0
6699,74.0,5,120,11.0,64.0
6700,74.0,0,120,0.0,64.0
6701,75.0,0,120,3.0,64.0
6702,75.0,120,120,2.0,64.0
6703,75.0,0,120,0.0,64.0
6704,75.0,0,480,11.0,64.0
6705,71.0,0,120,0.0,64.0
6706,71.0,120,120,3.0,64.0
6707,71.0,0,120,12.0,64.0
6708,71.0,0,120,2.0,64.0
6709,72.0,235,240,3.0,64.0
6710,72.0,0,240,0.0,64.0
6711,72.0,0,120,12.0,64.0
6712,72.0,0,240,2.0,64.0
6713,66.0,0,120,12.0,64.0
6714,66.0,0,120,3.0,64.0
6715,71.0,0,240,3.0,64.0
6716,74.0,0,240,11.0,64.0
6717,67.0,0,240,12.0,64.0
6718,74.0,0,240,0.0,64.0
6719,71.0,125,240,2.0,64.0
6720,71.0,0,240,0.0,64.0
6721,74.0,0,240,2.0,64.0
6722,67.0,0,240,3.0,64.0
6723,62.0,0,240,7.0,64.0
6724,77.0,0,240,11.0,64.0
6725,67.0,0,240,12.0,64.0
6726,83.0,0,240,0.0,64.0
6727,62.0,0,240,13.0,64.0
6728,71.0,0,240,6.0,64.0
6729,74.0,0,240,6.0,64.0
6730,53.0,0,240,7.0,64.0
6731,59.0,0,240,7.0,64.0
6732,65.0,0,240,5.0,64.0
6733,71.0,0,240,2.0,64.0
6734,71.0,0,240,12.0,64.0
6735,59.0,0,240,5.0,64.0
6736,71.0,0,240,3.0,64.0
6737,74.0,0,240,3.0,64.0
6738,74.0,0,240,2.0,64.0
6739,74.0,0,240,11.0,64.0
6740,79.0,245,240,0.0,64.0
6741,36.0,0,840,15.0,64.0
6742,48.0,0,840,4.0,64.0
6743,36.0,0,840,4.0,64.0
6744,36.0,40,840,14.0,64.0
6745,36.0,0,840,8.0,64.0
6746,77.0,120,120,11.0,64.0
6747,77.0,0,120,2.0,64.0
6748,77.0,0,120,0.0,64.0
6749,77.0,0,120,3.0,64.0
6750,79.0,0,120,3.0,64.0
6751,79.0,0,120,2.0,64.0
6752,79.0,0,120,11.0,64.0
6753,79.0,115,120,0.0,64.0
6754,74.0,5,120,11.0,64.0
6755,74.0,120,120,2.0,64.0
6756,74.0,0,120,3.0,64.0
6757,74.0,0,120,0.0,64.0
6758,75.0,125,540,11.0,64.0
6759,75.0,0,120,3.0,64.0
6760,75.0,0,120,2.0,64.0
6761,75.0,120,120,0.0,64.0
6762,71.0,120,120,12.0,64.0
6763,71.0,0,120,2.0,64.0
6764,71.0,0,120,3.0,64.0
6765,71.0,0,120,0.0,64.0
6766,72.0,75,150,2.0,64.0
6767,72.0,0,240,0.0,64.0
6768,72.0,0,240,3.0,64.0
6769,72.0,0,120,12.0,64.0
6770,66.0,5,120,12.0,64.0
6771,66.0,55,120,3.0,64.0
6772,55.0,0,390,7.0,64.0
6773,36.0,0,390,4.0,64.0
6774,48.0,0,390,4.0,64.0
6775,63.0,0,390,6.0,64.0
6776,67.0,5,360,3.0,64.0
6777,48.0,0,390,5.0,64.0
6778,60.0,0,390,5.0,64.0
6779,48.0,0,390,14.0,64.0
6780,72.0,0,390,6.0,64.0
6781,60.0,0,390,7.0,64.0
6782,36.0,0,390,15.0,64.0
6783,51.0,0,390,7.0,64.0
6784,36.0,20,390,8.0,64.0
6785,67.0,0,360,12.0,64.0
6786,48.0,0,390,13.0,64.0
6787,77.0,0,60,0.0,64.0
6788,65.0,0,60,3.0,64.0
6789,77.0,0,60,11.0,64.0
6790,77.0,0,60,2.0,64.0
6791,89.0,0,60,0.0,64.0
6792,87.0,120,60,0.0,64.0
6793,75.0,0,60,11.0,64.0
6794,75.0,0,60,0.0,64.0
6795,63.0,0,60,3.0,64.0
6796,75.0,0,60,2.0,64.0
6797,75.0,0,120,11.0,64.0
6798,75.0,40,120,0.0,64.0
6799,87.0,0,120,0.0,64.0
6800,75.0,0,120,2.0,64.0
6801,63.0,0,120,3.0,64.0
6802,74.0,0,60,0.0,64.0
6803,66.0,0,60,12.0,64.0
6804,66.0,0,60,3.0,64.0
6805,74.0,0,60,11.0,64.0
6806,62.0,0,60,3.0,64.0
6807,74.0,0,60,2.0,64.0
6808,86.0,55,60,0.0,64.0
6809,63.0,0,60,12.0,64.0
6810,72.0,0,60,11.0,64.0
6811,63.0,125,60,3.0,64.0
6812,72.0,0,60,0.0,64.0
6813,60.0,0,60,3.0,64.0
6814,72.0,0,60,2.0,64.0
6815,84.0,0,60,0.0,64.0
6816,84.0,0,120,0.0,64.0
6817,43.0,60,840,15.0,64.0
6818,60.0,0,120,3.0,64.0
6819,43.0,0,840,4.0,64.0
6820,67.0,0,840,6.0,64.0
6821,79.0,0,840,6.0,64.0
6822,55.0,0,840,4.0,64.0
6823,72.0,0,120,11.0,64.0
6824,43.0,0,840,7.0,64.0
6825,67.0,0,840,5.0,64.0
6826,63.0,0,120,3.0,64.0
6827,55.0,0,840,13.0,64.0
6828,43.0,0,840,8.0,64.0
6829,55.0,0,840,5.0,64.0
6830,63.0,0,120,12.0,64.0
6831,55.0,0,840,7.0,64.0
6832,72.0,0,120,2.0,64.0
6833,55.0,0,840,14.0,64.0
6834,72.0,60,120,0.0,64.0
6835,83.0,55,60,0.0,64.0
6836,59.0,0,60,3.0,64.0
6837,62.0,0,60,3.0,64.0
6838,62.0,0,60,12.0,64.0
6839,71.0,0,60,2.0,64.0
6840,71.0,0,60,11.0,64.0
6841,71.0,0,60,0.0,64.0
6842,60.0,0,60,12.0,64.0
6843,69.0,125,60,0.0,64.0
6844,57.0,0,60,3.0,64.0
6845,69.0,0,60,11.0,64.0
6846,81.0,0,60,0.0,64.0
6847,60.0,0,60,3.0,64.0
6848,69.0,0,60,2.0,64.0
6849,60.0,60,120,3.0,64.0
6850,57.0,0,120,3.0,64.0
6851,69.0,0,120,0.0,64.0
6852,69.0,0,120,2.0,64.0
6853,69.0,0,120,11.0,64.0
6854,81.0,0,120,0.0,64.0
6855,72.0,0,120,12.0,64.0
6856,71.0,55,60,0.0,64.0
6857,71.0,0,60,11.0,64.0
6858,59.0,0,60,3.0,64.0
6859,83.0,0,60,0.0,64.0
6860,71.0,0,60,2.0,64.0
6861,71.0,0,60,12.0,64.0
6862,57.0,0,60,3.0,64.0
6863,69.0,125,60,12.0,64.0
6864,72.0,0,60,0.0,64.0
6865,60.0,0,60,3.0,64.0
6866,72.0,0,60,2.0,64.0
6867,84.0,0,60,0.0,64.0
6868,72.0,0,60,11.0,64.0
6869,71.0,0,120,0.0,64.0
6870,83.0,0,120,0.0,64.0
6871,71.0,60,120,11.0,64.0
6872,67.0,0,120,12.0,64.0
6873,59.0,0,120,3.0,64.0
6874,55.0,0,120,3.0,64.0
6875,71.0,0,120,2.0,64.0
6876,72.0,0,60,0.0,64.0
6877,60.0,0,60,3.0,64.0
6878,57.0,55,60,3.0,64.0
6879,84.0,0,60,0.0,64.0
6880,72.0,0,60,2.0,64.0
6881,69.0,0,60,12.0,64.0
6882,72.0,0,60,11.0,64.0
6883,71.0,0,60,12.0,64.0
6884,74.0,0,60,0.0,64.0
6885,74.0,125,60,11.0,64.0
6886,62.0,0,60,3.0,64.0
6887,86.0,0,60,0.0,64.0
6888,74.0,0,60,2.0,64.0
6889,59.0,0,60,3.0,64.0
6890,74.0,0,120,0.0,64.0
6891,71.0,0,120,12.0,64.0
6892,62.0,0,120,3.0,64.0
6893,74.0,0,120,11.0,64.0
6894,86.0,0,120,0.0,64.0
6895,74.0,0,120,2.0,64.0
6896,59.0,0,120,3.0,64.0
6897,75.0,0,60,0.0,64.0
6898,63.0,0,60,3.0,64.0
6899,75.0,0,60,11.0,64.0
6900,60.0,0,60,3.0,64.0
6901,87.0,0,60,0.0,64.0
6902,75.0,0,60,2.0,64.0
6903,72.0,0,60,12.0,64.0
6904,77.0,125,60,0.0,64.0
6905,74.0,0,60,12.0,64.0
6906,65.0,0,60,3.0,64.0
6907,89.0,0,60,0.0,64.0
6908,62.0,0,60,3.0,64.0
6909,77.0,0,60,11.0,64.0
6910,77.0,0,60,2.0,64.0
6911,60.0,0,120,12.0,64.0
6912,39.0,0,390,7.0,64.0
6913,63.0,0,120,3.0,64.0
6914,60.0,0,120,3.0,64.0
6915,39.0,0,390,8.0,64.0
6916,75.0,0,120,11.0,64.0
6917,51.0,0,390,7.0,64.0
6918,75.0,0,120,0.0,64.0
6919,75.0,0,120,2.0,64.0
6920,51.0,0,390,4.0,64.0
6921,63.0,0,390,5.0,64.0
6922,75.0,0,390,6.0,64.0
6923,39.0,0,390,4.0,64.0
6924,87.0,0,120,0.0,64.0
6925,63.0,0,390,6.0,64.0
6926,51.0,0,390,13.0,64.0
6927,51.0,0,390,14.0,64.0
6928,39.0,20,390,15.0,64.0
6929,51.0,0,390,5.0,64.0
6930,77.0,0,60,0.0,64.0
6931,62.0,0,60,3.0,64.0
6932,62.0,0,60,12.0,64.0
6933,65.0,0,60,3.0,64.0
6934,89.0,0,60,0.0,64.0
6935,77.0,0,60,11.0,64.0
6936,77.0,0,60,2.0,64.0
6937,63.0,0,60,12.0,64.0
6938,63.0,0,60,3.0,64.0
6939,79.0,0,60,11.0,64.0
6940,91.0,125,60,0.0,64.0
6941,79.0,0,60,2.0,64.0
6942,67.0,0,60,3.0,64.0
6943,79.0,0,60,0.0,64.0
6944,79.0,0,120,0.0,64.0
6945,63.0,0,120,12.0,64.0
6946,91.0,0,120,0.0,64.0
6947,67.0,0,120,3.0,64.0
6948,63.0,0,120,3.0,64.0
6949,79.0,0,120,11.0,64.0
6950,79.0,0,120,2.0,64.0
6951,65.0,0,60,12.0,64.0
6952,65.0,55,60,3.0,64.0
6953,80.0,0,60,2.0,64.0
6954,92.0,0,60,0.0,64.0
6955,80.0,0,60,11.0,64.0
6956,69.0,0,60,3.0,64.0
6957,80.0,0,60,0.0,64.0
6958,67.0,0,60,12.0,64.0
6959,82.0,0,60,2.0,64.0
6960,82.0,0,60,11.0,64.0
6961,82.0,0,60,0.0,64.0
6962,67.0,125,60,3.0,64.0
6963,71.0,0,60,3.0,64.0
6964,94.0,0,60,0.0,64.0
6965,65.0,0,840,6.0,64.0
6966,80.0,0,120,11.0,64.0
6967,80.0,0,120,0.0,64.0
6968,53.0,0,840,13.0,64.0
6969,53.0,0,840,14.0,64.0
6970,65.0,0,120,3.0,64.0
6971,77.0,0,840,6.0,64.0
6972,53.0,60,840,7.0,64.0
6973,41.0,0,840,4.0,64.0
6974,65.0,0,840,5.0,64.0
6975,53.0,0,840,5.0,64.0
6976,80.0,0,120,2.0,64.0
6977,65.0,0,120,12.0,64.0
6978,41.0,0,840,7.0,64.0
6979,41.0,0,840,8.0,64.0
6980,92.0,60,120,0.0,64.0
6981,41.0,0,840,15.0,64.0
6982,68.0,0,120,3.0,64.0
6983,53.0,0,840,4.0,64.0
6984,79.0,0,60,11.0,64.0
6985,67.0,55,60,12.0,64.0
6986,67.0,0,60,3.0,64.0
6987,79.0,0,60,2.0,64.0
6988,91.0,0,60,0.0,64.0
6989,79.0,0,60,0.0,64.0
6990,68.0,0,60,3.0,64.0
6991,65.0,0,60,3.0,64.0
6992,89.0,0,60,0.0,64.0
6993,68.0,0,60,12.0,64.0
6994,77.0,0,60,2.0,64.0
6995,77.0,0,60,0.0,64.0
6996,77.0,0,60,11.0,64.0
6997,77.0,0,120,11.0,64.0
6998,68.0,60,120,3.0,64.0
6999,89.0,0,120,0.0,64.0
7000,68.0,0,120,12.0,64.0
7001,77.0,0,120,0.0,64.0
7002,77.0,0,120,2.0,64.0
7003,65.0,0,120,3.0,64.0
7004,75.0,0,60,0.0,64.0
7005,63.0,0,60,3.0,64.0
7006,67.0,0,60,12.0,64.0
7007,67.0,0,60,3.0,64.0
7008,87.0,55,60,0.0,64.0
7009,75.0,0,60,11.0,64.0
7010,75.0,0,60,2.0,64.0
7011,65.0,0,60,3.0,64.0
7012,62.0,0,60,3.0,64.0
7013,65.0,125,60,12.0,64.0
7014,74.0,0,60,0.0,64.0
7015,74.0,0,60,11.0,64.0
7016,74.0,0,60,2.0,64.0
7017,86.0,0,60,0.0,64.0
7018,65.0,60,120,12.0,64.0
7019,74.0,0,120,0.0,64.0
7020,74.0,0,120,11.0,64.0
7021,62.0,0,120,3.0,64.0
7022,74.0,0,120,2.0,64.0
7023,65.0,0,120,3.0,64.0
7024,86.0,0,120,0.0,64.0
7025,75.0,0,60,0.0,64.0
7026,75.0,0,60,11.0,64.0
7027,87.0,55,60,0.0,64.0
7028,75.0,0,60,2.0,64.0
7029,63.0,0,60,3.0,64.0
7030,63.0,0,60,12.0,64.0
7031,62.0,0,60,3.0,64.0
7032,77.0,0,60,0.0,64.0
7033,77.0,0,60,2.0,64.0
7034,62.0,0,60,12.0,64.0
7035,89.0,0,60,0.0,64.0
7036,65.0,0,60,3.0,64.0
7037,77.0,0,60,11.0,64.0
7038,89.0,0,120,0.0,64.0
7039,62.0,0,120,3.0,64.0
7040,77.0,0,120,0.0,64.0
7041,77.0,0,120,11.0,64.0
7042,65.0,0,120,3.0,64.0
7043,62.0,0,120,12.0,64.0
7044,77.0,0,120,2.0,64.0
7045,63.0,0,60,3.0,64.0
7046,67.0,0,60,3.0,64.0
7047,79.0,0,60,11.0,64.0
7048,91.0,0,60,0.0,64.0
7049,63.0,0,60,12.0,64.0
7050,79.0,0,60,2.0,64.0
7051,79.0,0,60,0.0,64.0
7052,65.0,0,60,3.0,64.0
7053,80.0,0,60,11.0,64.0
7054,68.0,0,60,3.0,64.0
7055,65.0,0,60,12.0,64.0
7056,80.0,0,60,0.0,64.0
7057,80.0,0,60,2.0,64.0
7058,92.0,35,60,0.0,64.0
7059,67.0,0,390,5.0,64.0
7060,71.0,0,60,11.0,64.0
7061,65.0,0,120,3.0,64.0
7062,43.0,0,390,15.0,64.0
7063,43.0,0,390,4.0,64.0
7064,55.0,0,390,5.0,64.0
7065,55.0,0,390,14.0,64.0
7066,67.0,0,390,6.0,64.0
7067,55.0,0,390,4.0,64.0
7068,71.0,0,30,0.0,64.0
7069,79.0,0,390,6.0,64.0
7070,65.0,0,120,12.0,64.0
7071,71.0,0,30,2.0,64.0
7072,83.0,0,30,0.0,64.0
7073,59.0,0,30,3.0,64.0
7074,43.0,0,390,7.0,64.0
7075,43.0,20,390,8.0,64.0
7076,55.0,0,390,7.0,64.0
7077,55.0,0,390,13.0,64.0
7078,60.0,0,30,3.0,64.0
7079,72.0,0,30,0.0,64.0
7080,84.0,0,30,0.0,64.0
7081,72.0,0,30,2.0,64.0
7082,59.0,0,30,3.0,64.0
7083,71.0,0,30,0.0,64.0
7084,72.0,0,60,11.0,64.0
7085,83.0,0,30,0.0,64.0
7086,71.0,0,30,2.0,64.0
7087,60.0,0,30,3.0,64.0
7088,72.0,0,30,2.0,64.0
7089,72.0,0,30,0.0,64.0
7090,84.0,30,30,0.0,64.0
7091,67.0,0,60,3.0,64.0
7092,71.0,0,30,0.0,64.0
7093,67.0,30,60,12.0,64.0
7094,59.0,0,30,3.0,64.0
7095,71.0,0,30,2.0,64.0
7096,83.0,0,30,0.0,64.0
7097,71.0,0,60,11.0,64.0
7098,72.0,0,30,0.0,64.0
7099,60.0,0,30,3.0,64.0
7100,84.0,0,30,0.0,64.0
7101,72.0,0,30,2.0,64.0
7102,59.0,25,30,3.0,64.0
7103,83.0,0,30,0.0,64.0
7104,72.0,30,60,11.0,64.0
7105,71.0,0,30,0.0,64.0
7106,68.0,5,60,3.0,64.0
7107,68.0,0,60,12.0,64.0
7108,71.0,0,30,2.0,64.0
7109,60.0,0,30,3.0,64.0
7110,72.0,0,30,2.0,64.0
7111,84.0,0,30,0.0,64.0
7112,72.0,0,30,0.0,64.0
7113,67.0,0,180,12.0,64.0
7114,83.0,0,30,0.0,64.0
7115,71.0,0,30,0.0,64.0
7116,71.0,0,60,11.0,64.0
7117,59.0,0,30,3.0,64.0
7118,71.0,0,30,2.0,64.0
7119,67.0,0,180,3.0,64.0
7120,72.0,30,30,0.0,64.0
7121,84.0,0,30,0.0,64.0
7122,72.0,0,30,2.0,64.0
7123,60.0,0,30,3.0,64.0
7124,83.0,0,30,0.0,64.0
7125,71.0,0,30,2.0,64.0
7126,72.0,0,60,11.0,64.0
7127,59.0,0,30,3.0,64.0
7128,71.0,30,30,0.0,64.0
7129,84.0,30,30,0.0,64.0
7130,72.0,0,30,0.0,64.0
7131,60.0,0,30,3.0,64.0
7132,72.0,0,30,2.0,64.0
7133,59.0,0,30,3.0,64.0
7134,71.0,0,60,11.0,64.0
7135,71.0,0,30,2.0,64.0
7136,71.0,0,30,0.0,64.0
7137,83.0,0,30,0.0,64.0
7138,72.0,0,30,0.0,64.0
7139,84.0,30,30,0.0,64.0
7140,72.0,0,30,2.0,64.0
7141,60.0,0,30,3.0,64.0
7142,72.0,30,60,11.0,64.0
7143,59.0,0,30,3.0,64.0
7144,71.0,0,30,2.0,64.0
7145,71.0,0,30,0.0,64.0
7146,65.0,5,60,12.0,64.0
7147,65.0,0,60,3.0,64.0
7148,83.0,25,30,0.0,64.0
7149,72.0,0,30,0.0,64.0
7150,60.0,0,30,3.0,64.0
7151,84.0,0,30,0.0,64.0
7152,72.0,0,30,2.0,64.0
7153,68.0,0,840,5.0,64.0
7154,56.0,0,840,5.0,64.0
7155,59.0,30,30,3.0,64.0
7156,56.0,0,840,13.0,64.0
7157,71.0,0,30,3.0,64.0
7158,44.0,0,840,8.0,64.0
7159,63.0,0,240,12.0,64.0
7160,44.0,0,840,7.0,64.0
7161,56.0,60,840,14.0,64.0
7162,71.0,0,30,0.0,64.0
7163,80.0,0,840,6.0,64.0
7164,68.0,0,840,6.0,64.0
7165,44.0,0,840,4.0,64.0
7166,56.0,0,840,4.0,64.0
7167,71.0,0,30,2.0,64.0
7168,83.0,0,30,0.0,64.0
7169,56.0,0,840,7.0,64.0
7170,44.0,0,840,15.0,64.0
7171,71.0,0,60,11.0,64.0
7172,84.0,0,30,0.0,64.0
7173,72.0,0,30,2.0,64.0
7174,72.0,0,30,3.0,64.0
7175,72.0,0,30,0.0,64.0
7176,60.0,30,30,3.0,64.0
7177,72.0,0,60,11.0,64.0
7178,59.0,0,30,3.0,64.0
7179,71.0,0,30,2.0,64.0
7180,71.0,0,30,3.0,64.0
7181,83.0,30,30,0.0,64.0
7182,71.0,0,30,0.0,64.0
7183,72.0,0,30,2.0,64.0
7184,84.0,25,30,0.0,64.0
7185,72.0,0,30,0.0,64.0
7186,60.0,0,30,3.0,64.0
7187,72.0,0,30,3.0,64.0
7188,71.0,0,60,11.0,64.0
7189,71.0,0,30,0.0,64.0
7190,71.0,0,30,3.0,64.0
7191,59.0,30,30,3.0,64.0
7192,83.0,0,30,0.0,64.0
7193,71.0,5,30,2.0,64.0
7194,72.0,30,30,3.0,64.0
7195,71.0,0,30,2.0,64.0
7196,60.0,0,30,3.0,64.0
7197,84.0,0,30,0.0,64.0
7198,72.0,0,30,0.0,64.0
7199,72.0,0,60,11.0,64.0
7200,59.0,30,30,3.0,64.0
7201,71.0,0,30,0.0,64.0
7202,83.0,0,30,0.0,64.0
7203,72.0,0,30,2.0,64.0
7204,71.0,0,30,3.0,64.0
7205,72.0,0,30,0.0,64.0
7206,84.0,0,30,0.0,64.0
7207,72.0,0,30,3.0,64.0
7208,60.0,0,30,3.0,64.0
7209,71.0,60,60,0.0,64.0
7210,59.0,0,60,3.0,64.0
7211,72.0,5,120,12.0,64.0
7212,83.0,0,60,0.0,64.0
7213,71.0,55,15,2.0,64.0
7214,71.0,0,60,11.0,64.0
7215,71.0,0,60,3.0,64.0
7216,71.0,0,60,2.0,64.0
7217,68.0,0,60,3.0,64.0
7218,96.0,0,60,0.0,64.0
7219,84.0,0,60,0.0,64.0
7220,72.0,0,60,3.0,64.0
7221,80.0,60,60,2.0,64.0
7222,84.0,0,60,11.0,64.0
7223,84.0,0,60,2.0,64.0
7224,67.0,55,60,3.0,64.0
7225,71.0,0,60,3.0,64.0
7226,82.0,0,60,11.0,64.0
7227,82.0,0,60,0.0,64.0
7228,83.0,0,60,2.0,64.0
7229,70.0,0,60,12.0,64.0
7230,94.0,0,60,0.0,64.0
7231,79.0,0,60,2.0,64.0
7232,80.0,0,60,0.0,64.0
7233,92.0,65,60,0.0,64.0
7234,80.0,0,60,11.0,64.0
7235,68.0,0,60,3.0,64.0
7236,68.0,0,60,12.0,64.0
7237,65.0,0,60,3.0,64.0
7238,80.0,0,60,2.0,64.0
7239,77.0,0,60,2.0,64.0
7240,80.0,0,60,11.0,64.0
7241,77.0,0,60,2.0,64.0
7242,80.0,0,60,2.0,64.0
7243,77.0,0,60,0.0,64.0
7244,65.0,0,60,3.0,64.0
7245,92.0,60,60,0.0,64.0
7246,68.0,0,60,3.0,64.0
7247,68.0,0,120,12.0,64.0
7248,79.0,0,60,11.0,64.0
7249,67.0,0,60,3.0,64.0
7250,75.0,0,60,0.0,64.0
7251,91.0,0,60,0.0,64.0
7252,75.0,55,60,2.0,64.0
7253,79.0,0,60,2.0,64.0
7254,63.0,0,60,3.0,64.0
7255,77.0,5,60,2.0,64.0
7256,89.0,0,60,0.0,64.0
7257,74.0,0,60,2.0,64.0
7258,74.0,0,60,0.0,64.0
7259,65.0,0,60,3.0,64.0
7260,77.0,0,60,11.0,64.0
7261,67.0,55,60,12.0,64.0
7262,62.0,0,60,3.0,64.0
7263,74.0,0,60,2.0,64.0
7264,89.0,0,60,0.0,64.0
7265,65.0,60,60,3.0,64.0
7266,62.0,0,60,3.0,64.0
7267,77.0,0,60,2.0,64.0
7268,65.0,5,60,12.0,64.0
7269,77.0,0,60,11.0,64.0
7270,74.0,0,60,0.0,64.0
7271,60.0,0,60,3.0,64.0
7272,72.0,0,60,2.0,64.0
7273,65.0,0,120,12.0,64.0
7274,75.0,0,60,11.0,64.0
7275,72.0,55,60,0.0,64.0
7276,75.0,0,60,2.0,64.0
7277,63.0,0,60,3.0,64.0
7278,87.0,0,60,0.0,64.0
7279,59.0,5,60,3.0,64.0
7280,71.0,0,60,2.0,64.0
7281,74.0,0,60,2.0,64.0
7282,71.0,0,60,0.0,64.0
7283,62.0,0,60,3.0,64.0
7284,86.0,0,60,0.0,64.0
7285,74.0,0,60,11.0,64.0
7286,74.0,0,60,11.0,64.0
7287,62.0,0,60,3.0,64.0
7288,71.0,0,60,2.0,64.0
7289,63.0,0,60,12.0,64.0
7290,59.0,55,60,3.0,64.0
7291,71.0,0,60,0.0,64.0
7292,86.0,0,60,0.0,64.0
7293,74.0,0,60,2.0,64.0
7294,62.0,0,60,12.0,64.0
7295,75.0,5,60,11.0,64.0
7296,75.0,0,60,2.0,64.0
7297,72.0,0,60,0.0,64.0
7298,60.0,0,60,3.0,64.0
7299,87.0,55,60,0.0,64.0
7300,63.0,0,60,3.0,64.0
7301,72.0,0,60,2.0,64.0
7302,62.0,0,60,3.0,64.0
7303,41.0,0,390,4.0,64.0
7304,41.0,0,390,8.0,64.0
7305,41.0,0,390,7.0,64.0
7306,77.0,0,60,2.0,64.0
7307,53.0,0,390,13.0,64.0
7308,74.0,0,60,2.0,64.0
7309,53.0,0,390,4.0,64.0
7310,53.0,0,390,5.0,64.0
7311,62.0,0,120,12.0,64.0
7312,53.0,0,390,14.0,64.0
7313,74.0,65,60,0.0,64.0
7314,77.0,0,390,6.0,64.0
7315,65.0,20,390,5.0,64.0
7316,65.0,0,390,6.0,64.0
7317,89.0,0,60,0.0,64.0
7318,53.0,0,390,7.0,64.0
7319,65.0,0,60,3.0,64.0
7320,77.0,60,120,11.0,64.0
7321,41.0,0,390,15.0,64.0
7322,62.0,0,60,3.0,64.0
7323,74.0,0,60,0.0,64.0
7324,74.0,0,60,2.0,64.0
7325,65.0,0,60,3.0,64.0
7326,77.0,0,60,2.0,64.0
7327,89.0,0,60,0.0,64.0
7328,75.0,0,60,2.0,64.0
7329,79.0,0,60,2.0,64.0
7330,91.0,0,60,0.0,64.0
7331,63.0,0,60,12.0,64.0
7332,75.0,0,60,0.0,64.0
7333,67.0,55,60,3.0,64.0
7334,63.0,0,60,3.0,64.0
7335,79.0,0,60,11.0,64.0
7336,81.0,125,60,11.0,64.0
7337,65.0,0,60,12.0,64.0
7338,80.0,0,60,2.0,64.0
7339,92.0,0,60,0.0,64.0
7340,77.0,0,60,2.0,64.0
7341,77.0,0,60,0.0,64.0
7342,65.0,0,60,3.0,64.0
7343,68.0,0,60,3.0,64.0
7344,68.0,40,120,3.0,64.0
7345,92.0,0,120,0.0,64.0
7346,80.0,0,120,2.0,64.0
7347,65.0,0,120,12.0,64.0
7348,81.0,0,120,11.0,64.0
7349,77.0,0,120,2.0,64.0
7350,77.0,0,120,0.0,64.0
7351,65.0,0,120,3.0,64.0
7352,79.0,0,60,0.0,64.0
7353,83.0,0,60,2.0,64.0
7354,95.0,0,60,0.0,64.0
7355,71.0,0,60,3.0,64.0
7356,67.0,55,60,12.0,64.0
7357,79.0,0,60,2.0,64.0
7358,83.0,0,60,11.0,64.0
7359,67.0,0,60,3.0,64.0
7360,96.0,0,60,0.0,64.0
7361,80.0,120,60,2.0,64.0
7362,80.0,0,60,0.0,64.0
7363,84.0,0,60,2.0,64.0
7364,69.0,0,60,12.0,64.0
7365,68.0,0,60,3.0,64.0
7366,72.0,0,60,3.0,64.0
7367,84.0,0,60,11.0,64.0
7368,83.0,0,360,11.0,64.0
7369,67.0,0,840,5.0,64.0
7370,83.0,0,360,2.0,64.0
7371,79.0,0,840,6.0,64.0
7372,67.0,0,840,6.0,64.0
7373,67.0,60,120,12.0,64.0
7374,55.0,0,840,5.0,64.0
7375,55.0,0,840,7.0,64.0
7376,67.0,5,120,3.0,64.0
7377,55.0,0,840,4.0,64.0
7378,43.0,0,840,4.0,64.0
7379,43.0,0,840,8.0,64.0
7380,43.0,0,840,7.0,64.0
7381,43.0,0,840,15.0,64.0
7382,55.0,0,840,14.0,64.0
7383,95.0,0,360,0.0,64.0
7384,55.0,0,840,13.0,64.0
7385,83.0,60,360,0.0,64.0
7386,69.0,0,60,12.0,64.0
7387,69.0,55,60,3.0,64.0
7388,71.0,125,60,3.0,64.0
7389,71.0,0,60,12.0,64.0
7390,71.0,0,120,12.0,64.0
7391,71.0,0,120,3.0,64.0
7392,68.0,120,120,3.0,64.0
7393,81.0,5,120,11.0,64.0
7394,72.0,55,60,12.0,64.0
7395,72.0,0,60,3.0,64.0
7396,81.0,0,120,2.0,64.0
7397,93.0,0,120,0.0,64.0
7398,81.0,0,120,0.0,64.0
7399,74.0,0,60,3.0,64.0
7400,74.0,0,60,12.0,64.0
7401,74.0,60,120,12.0,64.0
7402,83.0,0,390,0.0,64.0
7403,74.0,0,120,3.0,64.0
7404,83.0,0,390,2.0,64.0
7405,83.0,0,390,11.0,64.0
7406,71.0,0,390,3.0,64.0
7407,95.0,0,390,0.0,64.0
7408,75.0,0,60,12.0,64.0
7409,75.0,55,60,3.0,64.0
7410,77.0,125,60,3.0,64.0
7411,77.0,0,60,12.0,64.0
7412,77.0,40,120,12.0,64.0
7413,77.0,0,120,3.0,64.0
7414,79.0,55,60,12.0,64.0
7415,79.0,0,60,3.0,64.0
7416,80.0,0,60,3.0,64.0
7417,80.0,125,60,12.0,64.0
7418,74.0,0,390,6.0,64.0
7419,38.0,0,390,8.0,64.0
7420,68.0,125,240,12.0,64.0
7421,38.0,0,390,4.0,64.0
7422,80.0,60,120,3.0,64.0
7423,62.0,0,390,5.0,64.0
7424,50.0,0,390,4.0,64.0
7425,38.0,0,390,15.0,64.0
7426,50.0,0,390,7.0,64.0
7427,50.0,0,390,5.0,64.0
7428,50.0,0,390,14.0,64.0
7429,62.0,0,390,6.0,64.0
7430,81.0,0,120,11.0,64.0
7431,79.0,0,60,3.0,64.0
7432,79.0,55,60,11.0,64.0
7433,77.0,0,60,11.0,64.0
7434,77.0,0,60,3.0,64.0
7435,59.0,0,240,13.0,64.0
7436,77.0,0,120,3.0,64.0
7437,77.0,40,120,11.0,64.0
7438,59.0,0,240,3.0,64.0
7439,75.0,55,60,11.0,64.0
7440,75.0,0,60,3.0,64.0
7441,74.0,125,60,3.0,64.0
7442,74.0,0,60,11.0,64.0
7443,60.0,0,120,13.0,64.0
7444,63.0,0,840,5.0,64.0
7445,60.0,60,120,3.0,64.0
7446,39.0,0,840,8.0,64.0
7447,51.0,60,840,5.0,64.0
7448,39.0,0,840,4.0,64.0
7449,51.0,0,840,7.0,64.0
7450,63.0,0,840,6.0,64.0
7451,79.0,0,390,11.0,64.0
7452,51.0,0,840,14.0,64.0
7453,79.0,20,390,3.0,64.0
7454,75.0,0,840,6.0,64.0
7455,39.0,0,840,15.0,64.0
7456,51.0,0,840,4.0,64.0
7457,62.0,55,60,3.0,64.0
7458,62.0,0,60,13.0,64.0
7459,63.0,0,60,13.0,64.0
7460,63.0,125,60,3.0,64.0
7461,63.0,0,120,13.0,64.0
7462,63.0,40,120,3.0,64.0
7463,65.0,55,60,13.0,64.0
7464,65.0,0,60,3.0,64.0
7465,67.0,0,60,13.0,64.0
7466,67.0,125,60,3.0,64.0
7467,67.0,60,120,13.0,64.0
7468,67.0,0,120,3.0,64.0
7469,69.0,55,60,13.0,64.0
7470,69.0,0,60,3.0,64.0
7471,71.0,0,60,13.0,64.0
7472,71.0,125,60,3.0,64.0
7473,71.0,0,120,13.0,64.0
7474,71.0,0,120,3.0,64.0
7475,72.0,55,60,3.0,64.0
7476,72.0,0,60,13.0,64.0
7477,74.0,125,60,13.0,64.0
7478,74.0,0,60,3.0,64.0
7479,71.0,0,390,6.0,64.0
7480,59.0,0,390,5.0,64.0
7481,47.0,0,390,7.0,64.0
7482,59.0,0,390,6.0,64.0
7483,47.0,0,390,5.0,64.0
7484,35.0,0,390,15.0,64.0
7485,35.0,0,390,8.0,64.0
7486,47.0,0,390,4.0,64.0
7487,74.0,60,120,13.0,64.0
7488,35.0,20,390,4.0,64.0
7489,74.0,0,120,3.0,64.0
7490,47.0,0,390,14.0,64.0
7491,75.0,0,60,3.0,64.0
7492,75.0,55,60,13.0,64.0
7493,77.0,120,60,3.0,64.0
7494,77.0,5,60,13.0,64.0
7495,67.0,5,360,12.0,64.0
7496,75.0,0,120,13.0,64.0
7497,67.0,60,360,3.0,64.0
7498,75.0,40,120,3.0,64.0
7499,77.0,0,60,13.0,64.0
7500,77.0,60,60,3.0,64.0
7501,74.0,0,60,13.0,64.0
7502,74.0,115,60,3.0,64.0
7503,75.0,0,390,13.0,64.0
7504,60.0,0,840,5.0,64.0
7505,48.0,0,840,5.0,64.0
7506,48.0,0,840,4.0,64.0
7507,36.0,0,840,4.0,64.0
7508,48.0,0,840,14.0,64.0
7509,72.0,0,840,6.0,64.0
7510,48.0,0,840,7.0,64.0
7511,36.0,0,840,8.0,64.0
7512,60.0,0,840,6.0,64.0
7513,36.0,60,840,15.0,64.0
7514,75.0,20,390,3.0,64.0
7515,65.0,0,60,12.0,64.0
7516,65.0,55,60,3.0,64.0
7517,63.0,125,60,3.0,64.0
7518,63.0,0,60,12.0,64.0
7519,79.0,0,120,0.0,64.0
7520,63.0,40,120,12.0,64.0
7521,79.0,0,120,11.0,64.0
7522,63.0,0,120,3.0,64.0
7523,79.0,0,120,2.0,64.0
7524,77.0,0,60,11.0,64.0
7525,62.0,55,60,3.0,64.0
7526,77.0,0,60,2.0,64.0
7527,62.0,0,60,12.0,64.0
7528,77.0,0,60,0.0,64.0
7529,75.0,0,60,0.0,64.0
7530,75.0,125,60,11.0,64.0
7531,60.0,0,60,3.0,64.0
7532,60.0,0,60,12.0,64.0
7533,75.0,0,60,2.0,64.0
7534,75.0,0,120,3.0,64.0
7535,63.0,0,120,3.0,64.0
7536,72.0,0,120,0.0,64.0
7537,75.0,0,120,2.0,64.0
7538,72.0,0,120,13.0,64.0
7539,75.0,0,120,11.0,64.0
7540,75.0,0,120,0.0,64.0
7541,72.0,0,120,2.0,64.0
7542,72.0,60,120,12.0,64.0
7543,62.0,0,60,3.0,64.0
7544,71.0,0,60,0.0,64.0
7545,74.0,0,60,0.0,64.0
7546,71.0,0,60,13.0,64.0
7547,71.0,55,60,12.0,64.0
7548,74.0,0,60,11.0,64.0
7549,71.0,0,60,2.0,64.0
7550,74.0,0,60,2.0,64.0
7551,74.0,0,60,3.0,64.0
7552,72.0,0,60,2.0,64.0
7553,68.0,125,60,2.0,64.0
7554,68.0,0,60,13.0,64.0
7555,60.0,0,60,3.0,64.0
7556,72.0,0,60,11.0,64.0
7557,72.0,0,60,3.0,64.0
7558,68.0,0,60,0.0,64.0
7559,72.0,0,60,0.0,64.0
7560,68.0,0,60,12.0,64.0
7561,84.0,0,120,11.0,64.0
7562,68.0,0,120,12.0,64.0
7563,84.0,0,120,2.0,64.0
7564,80.0,0,120,0.0,64.0
7565,68.0,0,120,13.0,64.0
7566,80.0,0,120,2.0,64.0
7567,60.0,0,120,3.0,64.0
7568,84.0,0,120,0.0,64.0
7569,72.0,0,120,3.0,64.0
7570,71.0,0,60,3.0,64.0
7571,67.0,0,60,12.0,64.0
7572,83.0,0,60,2.0,64.0
7573,79.0,55,60,0.0,64.0
7574,67.0,0,60,13.0,64.0
7575,59.0,0,60,3.0,64.0
7576,83.0,0,60,11.0,64.0
7577,79.0,0,60,2.0,64.0
7578,83.0,0,60,0.0,64.0
7579,68.0,0,60,3.0,64.0
7580,65.0,125,60,12.0,64.0
7581,77.0,0,60,2.0,64.0
7582,56.0,0,60,3.0,64.0
7583,65.0,0,60,13.0,64.0
7584,80.0,0,60,11.0,64.0
7585,77.0,0,60,0.0,64.0
7586,80.0,0,60,2.0,64.0
7587,80.0,0,60,0.0,64.0
7588,65.0,0,120,12.0,64.0
7589,80.0,0,120,11.0,64.0
7590,41.0,0,390,15.0,64.0
7591,65.0,0,390,5.0,64.0
7592,65.0,60,120,13.0,64.0
7593,77.0,0,120,0.0,64.0
7594,80.0,0,120,0.0,64.0
7595,80.0,0,120,2.0,64.0
7596,53.0,0,390,7.0,64.0
7597,77.0,0,120,2.0,64.0
7598,56.0,0,120,3.0,64.0
7599,68.0,0,120,3.0,64.0
7600,41.0,0,390,14.0,64.0
7601,41.0,0,390,4.0,64.0
7602,53.0,0,390,4.0,64.0
7603,41.0,0,390,8.0,64.0
7604,77.0,0,390,6.0,64.0
7605,53.0,0,390,5.0,64.0
7606,41.0,20,390,7.0,64.0
7607,65.0,0,390,6.0,64.0
7608,75.0,55,60,2.0,64.0
7609,75.0,0,60,0.0,64.0
7610,55.0,0,60,3.0,64.0
7611,67.0,0,60,3.0,64.0
7612,63.0,0,60,13.0,64.0
7613,79.0,0,60,0.0,64.0
7614,63.0,0,60,12.0,64.0
7615,79.0,0,60,2.0,64.0
7616,79.0,0,60,11.0,64.0
7617,62.0,0,60,12.0,64.0
7618,62.0,0,60,13.0,64.0
7619,74.0,0,60,2.0,64.0
7620,77.0,0,60,0.0,64.0
7621,53.0,125,60,3.0,64.0
7622,65.0,0,60,3.0,64.0
7623,77.0,0,60,11.0,64.0
7624,77.0,0,60,2.0,64.0
7625,74.0,0,60,0.0,64.0
7626,77.0,0,120,11.0,64.0
7627,74.0,40,120,2.0,64.0
7628,62.0,0,120,12.0,64.0
7629,77.0,0,120,0.0,64.0
7630,65.0,0,120,3.0,64.0
7631,74.0,0,120,0.0,64.0
7632,62.0,0,120,13.0,64.0
7633,53.0,0,120,3.0,64.0
7634,77.0,0,120,2.0,64.0
7635,75.0,0,60,11.0,64.0
7636,75.0,0,60,2.0,64.0
7637,63.0,0,60,3.0,64.0
7638,75.0,0,60,0.0,64.0
7639,60.0,55,60,12.0,64.0
7640,72.0,0,60,0.0,64.0
7641,60.0,0,60,13.0,64.0
7642,72.0,0,60,2.0,64.0
7643,74.0,0,60,2.0,64.0
7644,71.0,0,60,0.0,64.0
7645,74.0,0,60,0.0,64.0
7646,74.0,0,60,11.0,64.0
7647,71.0,0,60,2.0,64.0
7648,59.0,0,60,13.0,64.0
7649,62.0,0,60,3.0,64.0
7650,59.0,0,60,12.0,64.0
7651,43.0,0,1320,7.0,64.0
7652,67.0,0,1320,5.0,64.0
7653,43.0,0,1320,15.0,64.0
7654,43.0,0,1320,4.0,64.0
7655,55.0,0,1320,4.0,64.0
7656,59.0,0,120,13.0,64.0
7657,71.0,0,120,0.0,64.0
7658,55.0,0,1320,7.0,64.0
7659,79.0,0,1320,6.0,64.0
7660,67.0,0,1320,6.0,64.0
7661,43.0,0,1320,8.0,64.0
7662,74.0,60,120,11.0,64.0
7663,43.0,0,1320,14.0,64.0
7664,55.0,0,1320,5.0,64.0
7665,74.0,0,120,2.0,64.0
7666,74.0,0,120,0.0,64.0
7667,71.0,0,120,2.0,64.0
7668,59.0,0,120,12.0,64.0
7669,62.0,0,120,3.0,64.0
7670,68.0,0,60,2.0,64.0
7671,72.0,0,60,11.0,64.0
7672,57.0,0,60,13.0,64.0
7673,72.0,0,60,0.0,64.0
7674,68.0,0,60,0.0,64.0
7675,72.0,0,60,2.0,64.0
7676,57.0,0,60,12.0,64.0
7677,60.0,0,60,3.0,64.0
7678,55.0,125,60,13.0,64.0
7679,55.0,0,60,12.0,64.0
7680,67.0,0,60,0.0,64.0
7681,67.0,0,60,2.0,64.0
7682,71.0,0,60,2.0,64.0
7683,59.0,0,60,3.0,64.0
7684,71.0,0,60,11.0,64.0
7685,71.0,0,60,0.0,64.0
7686,59.0,0,120,3.0,64.0
7687,71.0,0,120,11.0,64.0
7688,67.0,0,120,0.0,64.0
7689,67.0,0,120,2.0,64.0
7690,71.0,0,120,2.0,64.0
7691,55.0,0,120,13.0,64.0
7692,71.0,0,120,0.0,64.0
7693,55.0,60,120,12.0,64.0
7694,72.0,0,60,0.0,64.0
7695,57.0,0,60,13.0,64.0
7696,72.0,0,60,11.0,64.0
7697,68.0,0,60,2.0,64.0
7698,68.0,0,60,0.0,64.0
7699,60.0,0,60,3.0,64.0
7700,72.0,0,60,2.0,64.0
7701,57.0,0,60,12.0,64.0
7702,74.0,0,60,0.0,64.0
7703,74.0,0,60,2.0,64.0
7704,59.0,0,60,13.0,64.0
7705,62.0,0,60,3.0,64.0
7706,59.0,125,60,12.0,64.0
7707,71.0,0,60,2.0,64.0
7708,74.0,0,60,11.0,64.0
7709,71.0,0,60,0.0,64.0
7710,71.0,0,120,0.0,64.0
7711,71.0,0,120,2.0,64.0
7712,74.0,0,120,2.0,64.0
7713,59.0,0,120,13.0,64.0
7714,62.0,0,120,3.0,64.0
7715,59.0,0,120,12.0,64.0
7716,74.0,60,120,0.0,64.0
7717,74.0,0,120,11.0,64.0
7718,60.0,0,60,13.0,64.0
7719,75.0,0,60,11.0,64.0
7720,72.0,0,60,2.0,64.0
7721,60.0,0,60,12.0,64.0
7722,63.0,0,60,3.0,64.0
7723,75.0,0,60,0.0,64.0
7724,75.0,0,60,2.0,64.0
7725,72.0,0,60,0.0,64.0
7726,74.0,0,60,2.0,64.0
7727,62.0,0,60,12.0,64.0
7728,62.0,0,60,13.0,64.0
7729,74.0,125,60,0.0,64.0
7730,77.0,0,60,11.0,64.0
7731,77.0,0,60,2.0,64.0
7732,65.0,0,60,3.0,64.0
7733,77.0,0,60,0.0,64.0
7734,77.0,0,120,0.0,64.0
7735,62.0,0,120,13.0,64.0
7736,65.0,0,120,3.0,64.0
7737,74.0,0,120,2.0,64.0
7738,53.0,0,120,3.0,64.0
7739,77.0,0,120,11.0,64.0
7740,77.0,0,120,2.0,64.0
7741,62.0,0,120,12.0,64.0
7742,74.0,60,120,0.0,64.0
7743,75.0,0,60,2.0,64.0
7744,63.0,0,60,13.0,64.0
7745,75.0,0,60,0.0,64.0
7746,79.0,0,60,11.0,64.0
7747,79.0,0,60,0.0,64.0
7748,63.0,55,60,12.0,64.0
7749,79.0,0,60,2.0,64.0
7750,55.0,0,60,3.0,64.0
7751,67.0,0,60,3.0,64.0
7752,80.0,0,60,0.0,64.0
7753,65.0,0,60,13.0,64.0
7754,80.0,35,60,2.0,64.0
7755,68.0,0,60,3.0,64.0
7756,56.0,0,60,3.0,64.0
7757,80.0,0,60,11.0,64.0
7758,65.0,0,60,12.0,64.0
7759,77.0,0,60,2.0,64.0
7760,77.0,0,60,0.0,64.0
7761,71.0,0,30,11.0,64.0
7762,65.0,0,120,13.0,64.0
7763,53.0,0,120,3.0,64.0
7764,65.0,0,120,12.0,64.0
7765,77.0,0,30,2.0,64.0
7766,65.0,0,120,3.0,64.0
7767,83.0,0,30,2.0,64.0
7768,83.0,0,30,0.0,64.0
7769,72.0,0,30,2.0,64.0
7770,84.0,0,30,2.0,64.0
7771,72.0,0,30,11.0,64.0
7772,84.0,0,30,0.0,64.0
7773,83.0,0,30,0.0,64.0
7774,71.0,0,30,2.0,64.0
7775,83.0,0,30,2.0,64.0
7776,71.0,0,30,11.0,64.0
7777,84.0,0,30,2.0,64.0
7778,72.0,0,30,11.0,64.0
7779,72.0,0,30,2.0,64.0
7780,84.0,0,30,0.0,64.0
7781,55.0,0,60,3.0,64.0
7782,83.0,0,30,2.0,64.0
7783,67.0,0,60,12.0,64.0
7784,71.0,0,30,2.0,64.0
7785,67.0,0,60,13.0,64.0
7786,83.0,0,30,0.0,64.0
7787,71.0,0,30,11.0,64.0
7788,67.0,0,60,3.0,64.0
7789,72.0,0,30,11.0,64.0
7790,84.0,0,30,2.0,64.0
7791,84.0,0,30,0.0,64.0
7792,72.0,0,30,2.0,64.0
7793,68.0,0,60,3.0,64.0
7794,56.0,30,60,3.0,64.0
7795,71.0,0,30,11.0,64.0
7796,69.0,5,60,12.0,64.0
7797,69.0,0,60,13.0,64.0
7798,83.0,0,30,2.0,64.0
7799,71.0,0,30,2.0,64.0
7800,83.0,0,30,0.0,64.0
7801,72.0,0,30,11.0,64.0
7802,72.0,0,30,2.0,64.0
7803,84.0,0,30,2.0,64.0
7804,84.0,0,30,0.0,64.0
7805,71.0,0,30,11.0,64.0
7806,67.0,0,120,3.0,64.0
7807,83.0,0,30,2.0,64.0
7808,83.0,0,30,0.0,64.0
7809,55.0,0,120,3.0,64.0
7810,71.0,0,30,2.0,64.0
7811,67.0,5,120,13.0,64.0
7812,67.0,30,120,12.0,64.0
7813,84.0,0,30,2.0,64.0
7814,72.0,0,30,2.0,64.0
7815,72.0,0,30,11.0,64.0
7816,84.0,0,30,0.0,64.0
7817,71.0,25,30,11.0,64.0
7818,83.0,0,30,2.0,64.0
7819,83.0,0,30,0.0,64.0
7820,71.0,0,30,2.0,64.0
7821,72.0,0,30,2.0,64.0
7822,84.0,0,30,0.0,64.0
7823,84.0,0,30,2.0,64.0
7824,72.0,0,30,11.0,64.0
7825,71.0,0,30,11.0,64.0
7826,69.0,5,60,13.0,64.0
7827,68.0,0,60,3.0,64.0
7828,83.0,0,30,0.0,64.0
7829,69.0,0,60,12.0,64.0
7830,56.0,0,60,3.0,64.0
7831,83.0,0,30,2.0,64.0
7832,71.0,0,30,2.0,64.0
7833,84.0,0,30,2.0,64.0
7834,72.0,0,30,11.0,64.0
7835,84.0,0,30,0.0,64.0
7836,72.0,0,30,2.0,64.0
7837,65.0,0,60,13.0,64.0
7838,65.0,5,60,12.0,64.0
7839,65.0,0,60,3.0,64.0
7840,83.0,0,30,2.0,64.0
7841,71.0,0,30,11.0,64.0
7842,53.0,0,60,3.0,64.0
7843,71.0,0,30,2.0,64.0
7844,83.0,0,30,0.0,64.0
7845,84.0,0,30,0.0,64.0
7846,84.0,0,15,2.0,64.0
7847,36.0,0,840,8.0,64.0
7848,63.0,0,120,3.0,64.0
7849,63.0,0,120,13.0,64.0
7850,48.0,0,840,5.0,64.0
7851,51.0,5,120,3.0,64.0
7852,60.0,0,840,6.0,64.0
7853,48.0,0,840,7.0,64.0
7854,36.0,0,840,4.0,64.0
7855,36.0,0,840,14.0,64.0
7856,72.0,0,840,6.0,64.0
7857,72.0,115,15,2.0,64.0
7858,72.0,0,15,11.0,64.0
7859,36.0,0,840,15.0,64.0
7860,84.0,0,15,0.0,64.0
7861,60.0,0,840,5.0,64.0
7862,63.0,60,120,12.0,64.0
7863,65.0,0,60,13.0,64.0
7864,82.0,0,60,2.0,64.0
7865,65.0,0,60,12.0,64.0
7866,65.0,0,60,3.0,64.0
7867,82.0,0,60,0.0,64.0
7868,80.0,0,60,0.0,64.0
7869,62.0,120,60,13.0,64.0
7870,62.0,0,60,12.0,64.0
7871,80.0,0,60,2.0,64.0
7872,62.0,0,60,3.0,64.0
7873,67.0,60,120,11.0,64.0
7874,60.0,0,240,12.0,64.0
7875,79.0,0,120,0.0,64.0
7876,60.0,0,240,3.0,64.0
7877,60.0,0,240,13.0,64.0
7878,79.0,0,120,2.0,64.0
7879,77.0,0,60,2.0,64.0
7880,77.0,0,60,0.0,64.0
7881,65.0,0,60,11.0,64.0
7882,75.0,0,60,2.0,64.0
7883,63.0,0,60,11.0,64.0
7884,75.0,0,60,0.0,64.0
7885,75.0,0,120,0.0,64.0
7886,65.0,60,120,13.0,64.0
7887,63.0,0,120,11.0,64.0
7888,75.0,0,120,2.0,64.0
7889,65.0,0,120,3.0,64.0
7890,74.0,0,60,2.0,64.0
7891,74.0,0,60,0.0,64.0
7892,63.0,0,60,3.0,64.0
7893,62.0,0,60,11.0,64.0
7894,63.0,0,60,13.0,64.0
7895,62.0,120,60,13.0,64.0
7896,62.0,0,60,3.0,64.0
7897,60.0,0,60,11.0,64.0
7898,72.0,0,60,2.0,64.0
7899,72.0,0,60,0.0,64.0
7900,62.0,0,120,3.0,64.0
7901,62.0,0,120,13.0,64.0
7902,72.0,0,120,0.0,64.0
7903,60.0,5,120,11.0,64.0
7904,72.0,0,120,2.0,64.0
7905,60.0,0,60,3.0,64.0
7906,60.0,55,60,13.0,64.0
7907,59.0,0,60,3.0,64.0
7908,59.0,405,60,13.0,64.0
7909,63.0,0,720,12.0,64.0
7910,60.0,0,720,3.0,64.0
7911,75.0,0,720,2.0,64.0
7912,67.0,125,720,0.0,64.0
7913,63.0,0,720,3.0,64.0
7914,84.0,0,720,0.0,64.0
7915,67.0,0,720,11.0,64.0
7916,72.0,0,720,2.0,64.0
7917,72.0,0,720,11.0,64.0
7918,60.0,75,390,13.0,64.0
7919,72.0,0,240,6.0,64.0
7920,63.0,0,240,7.0,64.0
7921,36.0,0,240,15.0,64.0
7922,48.0,0,240,14.0,64.0
7923,48.0,0,240,4.0,64.0
7924,67.0,0,240,5.0,64.0
7925,63.0,240,240,5.0,64.0
7926,36.0,0,240,8.0,64.0
7927,55.0,0,240,7.0,64.0
7928,60.0,0,240,6.0,64.0
7929,60.0,0,240,7.0,64.0
7930,55.0,0,840,7.0,64.0
7931,62.0,0,840,5.0,64.0
7932,43.0,0,840,15.0,64.0
7933,67.0,0,840,6.0,64.0
7934,43.0,0,840,8.0,64.0
7935,62.0,0,840,7.0,64.0
7936,59.0,0,840,7.0,64.0
7937,55.0,0,840,4.0,64.0
7938,67.0,0,840,5.0,64.0
7939,55.0,0,840,13.0,64.0
7940,55.0,0,840,14.0,64.0
7941,79.0,0,840,6.0,64.0
7942,83.0,0,120,0.0,64.0
7943,62.0,0,120,12.0,64.0
7944,62.0,0,120,3.0,64.0
7945,71.0,0,120,11.0,64.0
7946,71.0,115,120,0.0,64.0
7947,74.0,0,120,2.0,64.0
7948,71.0,0,120,2.0,64.0
7949,59.0,0,120,3.0,64.0
7950,57.0,0,120,3.0,64.0
7951,69.0,235,120,0.0,64.0
7952,60.0,5,120,12.0,64.0
7953,81.0,0,120,0.0,64.0
7954,60.0,0,120,3.0,64.0
7955,69.0,0,120,11.0,64.0
7956,72.0,0,120,2.0,64.0
7957,69.0,0,120,2.0,64.0
7958,59.0,0,240,3.0,64.0
7959,71.0,0,240,2.0,64.0
7960,71.0,5,240,0.0,64.0
7961,71.0,0,240,11.0,64.0
7962,74.0,0,240,2.0,64.0
7963,62.0,120,240,12.0,64.0
7964,83.0,0,240,0.0,64.0
7965,62.0,0,240,3.0,64.0
7966,72.0,0,120,2.0,64.0
7967,60.0,0,120,3.0,64.0
7968,84.0,0,120,0.0,64.0
7969,63.0,115,120,3.0,64.0
7970,75.0,0,120,2.0,64.0
7971,63.0,0,120,12.0,64.0
7972,72.0,0,120,0.0,64.0
7973,72.0,0,120,11.0,64.0
7974,74.0,0,120,0.0,64.0
7975,86.0,0,120,0.0,64.0
7976,65.0,5,120,12.0,64.0
7977,77.0,240,120,2.0,64.0
7978,65.0,0,120,3.0,64.0
7979,74.0,0,120,11.0,64.0
7980,62.0,0,120,3.0,64.0
7981,74.0,0,120,2.0,64.0
7982,75.0,0,240,11.0,64.0
7983,67.0,0,720,3.0,64.0
7984,63.0,0,240,3.0,64.0
7985,67.0,5,720,12.0,64.0
7986,87.0,0,240,0.0,64.0
7987,75.0,0,240,0.0,64.0
7988,79.0,0,720,2.0,64.0
7989,75.0,235,240,2.0,64.0
7990,60.0,0,240,3.0,64.0
7991,51.0,0,240,4.0,64.0
7992,63.0,0,240,5.0,64.0
7993,51.0,0,240,14.0,64.0
7994,63.0,0,240,7.0,64.0
7995,67.0,0,240,5.0,64.0
7996,39.0,0,240,15.0,64.0
7997,72.0,0,240,11.0,64.0
7998,84.0,0,240,0.0,64.0
7999,55.0,0,240,7.0,64.0
8000,51.0,0,240,13.0,64.0
8001,72.0,0,240,2.0,64.0
8002,60.0,0,240,7.0,64.0
8003,39.0,0,240,8.0,64.0
8004,72.0,0,240,0.0,64.0
8005,75.0,0,240,6.0,64.0
8006,63.0,125,240,6.0,64.0
8007,70.0,115,120,0.0,64.0
8008,70.0,0,120,11.0,64.0
8009,53.0,0,840,4.0,64.0
8010,53.0,0,840,14.0,64.0
8011,77.0,0,840,6.0,64.0
8012,65.0,0,840,6.0,64.0
8013,41.0,0,840,8.0,64.0
8014,82.0,0,120,0.0,64.0
8015,70.0,0,120,2.0,64.0
8016,58.0,0,120,3.0,64.0
8017,60.0,0,840,5.0,64.0
8018,56.0,0,840,7.0,64.0
8019,53.0,0,840,13.0,64.0
8020,60.0,0,840,7.0,64.0
8021,65.0,0,840,7.0,64.0
8022,65.0,115,840,5.0,64.0
8023,41.0,0,840,15.0,64.0
8024,68.0,120,120,11.0,64.0
8025,56.0,0,120,3.0,64.0
8026,80.0,0,120,0.0,64.0
8027,68.0,0,120,0.0,64.0
8028,68.0,0,120,2.0,64.0
8029,86.0,0,120,0.0,64.0
8030,65.0,115,120,3.0,64.0
8031,74.0,0,120,0.0,64.0
8032,62.0,0,120,3.0,64.0
8033,65.0,0,120,12.0,64.0
8034,74.0,0,120,11.0,64.0
8035,77.0,0,120,2.0,64.0
8036,74.0,0,120,2.0,64.0
8037,75.0,0,120,2.0,64.0
8038,60.0,0,120,3.0,64.0
8039,84.0,0,120,0.0,64.0
8040,72.0,0,120,0.0,64.0
8041,72.0,235,120,2.0,64.0
8042,63.0,5,120,12.0,64.0
8043,72.0,0,120,11.0,64.0
8044,63.0,0,120,3.0,64.0
8045,65.0,0,240,12.0,64.0
8046,65.0,0,240,3.0,64.0
8047,62.0,0,240,3.0,64.0
8048,86.0,0,240,0.0,64.0
8049,77.0,0,240,2.0,64.0
8050,74.0,120,240,11.0,64.0
8051,74.0,0,240,0.0,64.0
8052,74.0,5,240,2.0,64.0
8053,67.0,0,120,3.0,64.0
8054,75.0,0,120,11.0,64.0
8055,75.0,0,120,2.0,64.0
8056,75.0,0,120,0.0,64.0
8057,87.0,0,120,0.0,64.0
8058,67.0,0,120,12.0,64.0
8059,63.0,0,120,3.0,64.0
8060,79.0,0,120,2.0,64.0
8061,77.0,0,120,0.0,64.0
8062,65.0,0,120,3.0,64.0
8063,77.0,0,120,2.0,64.0
8064,89.0,475,120,0.0,64.0
8065,68.0,0,120,12.0,64.0
8066,77.0,5,120,11.0,64.0
8067,80.0,0,120,2.0,64.0
8068,68.0,0,120,3.0,64.0
8069,71.0,0,720,2.0,64.0
8070,62.0,0,720,13.0,64.0
8071,71.0,0,720,11.0,64.0
8072,62.0,5,720,3.0,64.0
8073,71.0,0,720,0.0,64.0
8074,83.0,0,720,0.0,64.0
8075,67.0,0,240,6.0,64.0
8076,62.0,0,240,7.0,64.0
8077,59.0,0,240,7.0,64.0
8078,67.0,0,240,12.0,64.0
8079,67.0,0,240,3.0,64.0
8080,62.0,0,240,5.0,64.0
8081,55.0,0,240,4.0,64.0
8082,55.0,0,240,7.0,64.0
8083,55.0,0,240,14.0,64.0
8084,43.0,0,240,15.0,64.0
8085,67.0,0,240,5.0,64.0
8086,79.0,5,240,6.0,64.0
8087,43.0,0,240,8.0,64.0
8088,67.0,235,240,2.0,64.0
8089,80.0,0,840,6.0,64.0
8090,60.0,0,840,7.0,64.0
8091,65.0,120,240,12.0,64.0
8092,68.0,0,840,6.0,64.0
8093,65.0,0,240,3.0,64.0
8094,68.0,0,840,5.0,64.0
8095,65.0,0,240,2.0,64.0
8096,56.0,0,840,7.0,64.0
8097,63.0,0,840,5.0,64.0
8098,56.0,0,840,4.0,64.0
8099,56.0,40,840,14.0,64.0
8100,44.0,0,840,8.0,64.0
8101,44.0,0,840,15.0,64.0
8102,63.0,0,840,7.0,64.0
8103,63.0,0,120,2.0,64.0
8104,60.0,0,630,13.0,64.0
8105,72.0,0,120,2.0,64.0
8106,60.0,75,630,3.0,64.0
8107,84.0,0,120,0.0,64.0
8108,63.0,115,120,12.0,64.0
8109,72.0,0,120,11.0,64.0
8110,72.0,0,120,0.0,64.0
8111,63.0,0,120,3.0,64.0
8112,83.0,0,120,0.0,64.0
8113,71.0,0,120,2.0,64.0
8114,62.0,235,120,3.0,64.0
8115,62.0,0,120,2.0,64.0
8116,71.0,0,120,0.0,64.0
8117,71.0,0,120,11.0,64.0
8118,62.0,5,120,12.0,64.0
8119,72.0,0,240,0.0,64.0
8120,63.0,5,240,3.0,64.0
8121,72.0,0,240,11.0,64.0
8122,72.0,0,240,2.0,64.0
8123,63.0,0,240,2.0,64.0
8124,63.0,120,240,12.0,64.0
8125,84.0,0,240,0.0,64.0
8126,86.0,0,120,0.0,64.0
8127,74.0,0,120,11.0,64.0
8128,65.0,0,120,3.0,64.0
8129,65.0,0,120,2.0,64.0
8130,65.0,0,120,12.0,64.0
8131,74.0,0,120,0.0,64.0
8132,74.0,0,120,2.0,64.0
8133,67.0,0,120,3.0,64.0
8134,67.0,400,120,2.0,64.0
8135,75.0,0,120,11.0,64.0
8136,75.0,0,120,0.0,64.0
8137,87.0,0,120,0.0,64.0
8138,67.0,5,120,12.0,64.0
8139,75.0,0,120,2.0,64.0
8140,89.0,0,720,0.0,64.0
8141,77.0,0,720,11.0,64.0
8142,68.0,0,390,12.0,64.0
8143,77.0,0,720,0.0,64.0
8144,77.0,5,720,2.0,64.0
8145,68.0,0,390,2.0,64.0
8146,68.0,75,390,3.0,64.0
8147,60.0,0,240,5.0,64.0
8148,62.0,0,240,13.0,64.0
8149,53.0,0,240,4.0,64.0
8150,53.0,0,240,14.0,64.0
8151,62.0,0,240,3.0,64.0
8152,41.0,0,240,8.0,64.0
8153,41.0,0,240,15.0,64.0
8154,56.0,0,240,7.0,64.0
8155,60.0,125,240,7.0,64.0
8156,65.0,0,240,5.0,64.0
8157,77.0,0,240,6.0,64.0
8158,63.0,0,240,7.0,64.0
8159,65.0,0,240,6.0,64.0
8160,67.0,0,840,2.0,64.0
8161,55.0,0,840,7.0,64.0
8162,62.0,0,840,7.0,64.0
8163,79.0,0,840,6.0,64.0
8164,67.0,0,840,6.0,64.0
8165,60.0,115,120,3.0,64.0
8166,43.0,0,840,15.0,64.0
8167,67.0,0,840,12.0,64.0
8168,62.0,0,840,5.0,64.0
8169,60.0,0,120,13.0,64.0
8170,43.0,0,840,8.0,64.0
8171,67.0,0,840,3.0,64.0
8172,59.0,0,840,7.0,64.0
8173,55.0,0,840,14.0,64.0
8174,67.0,0,840,5.0,64.0
8175,55.0,115,840,4.0,64.0
8176,59.0,0,120,3.0,64.0
8177,59.0,120,120,13.0,64.0
8178,75.0,0,120,0.0,64.0
8179,75.0,0,120,2.0,64.0
8180,60.0,0,120,13.0,64.0
8181,75.0,0,120,11.0,64.0
8182,87.0,0,120,0.0,64.0
8183,60.0,115,120,3.0,64.0
8184,74.0,5,120,11.0,64.0
8185,59.0,0,120,13.0,64.0
8186,59.0,0,120,3.0,64.0
8187,74.0,235,120,0.0,64.0
8188,74.0,0,120,2.0,64.0
8189,86.0,0,120,0.0,64.0
8190,87.0,0,240,0.0,64.0
8191,75.0,5,240,2.0,64.0
8192,60.0,0,240,3.0,64.0
8193,75.0,0,240,0.0,64.0
8194,60.0,0,240,13.0,64.0
8195,75.0,120,240,11.0,64.0
8196,89.0,0,120,0.0,64.0
8197,62.0,0,120,3.0,64.0
8198,77.0,0,120,0.0,64.0
8199,77.0,0,120,2.0,64.0
8200,62.0,0,120,13.0,64.0
8201,77.0,0,120,11.0,64.0
8202,79.0,0,120,11.0,64.0
8203,79.0,475,120,2.0,64.0
8204,63.0,0,120,3.0,64.0
8205,91.0,0,120,0.0,64.0
8206,63.0,5,120,13.0,64.0
8207,79.0,0,120,0.0,64.0
8208,74.0,0,720,0.0,64.0
8209,59.0,0,720,3.0,64.0
8210,74.0,0,720,11.0,64.0
8211,59.0,125,720,13.0,64.0
8212,74.0,0,720,2.0,64.0
8213,86.0,0,720,0.0,64.0
8214,65.0,0,240,5.0,64.0
8215,62.0,0,240,7.0,64.0
8216,65.0,5,240,3.0,64.0
8217,74.0,0,240,6.0,64.0
8218,62.0,0,240,6.0,64.0
8219,38.0,0,240,8.0,64.0
8220,50.0,0,240,14.0,64.0
8221,50.0,0,240,4.0,64.0
8222,65.0,235,240,12.0,64.0
8223,62.0,0,240,5.0,64.0
8224,38.0,0,240,15.0,64.0
8225,65.0,0,240,2.0,64.0
8226,59.0,0,240,7.0,64.0
8227,53.0,0,240,7.0,64.0
8228,39.0,0,840,15.0,64.0
8229,67.0,0,840,5.0,64.0
8230,75.0,0,840,6.0,64.0
8231,63.0,40,840,7.0,64.0
8232,60.0,0,840,7.0,64.0
8233,67.0,0,720,2.0,64.0
8234,67.0,75,630,12.0,64.0
8235,51.0,0,840,4.0,64.0
8236,55.0,0,840,7.0,64.0
8237,63.0,0,840,5.0,64.0
8238,39.0,0,840,8.0,64.0
8239,63.0,0,840,6.0,64.0
8240,51.0,0,840,14.0,64.0
8241,67.0,0,720,3.0,64.0
8242,72.0,115,120,2.0,64.0
8243,60.0,0,120,3.0,64.0
8244,72.0,0,120,0.0,64.0
8245,60.0,0,120,13.0,64.0
8246,72.0,0,120,11.0,64.0
8247,84.0,0,120,0.0,64.0
8248,71.0,0,120,11.0,64.0
8249,83.0,0,120,0.0,64.0
8250,71.0,0,120,0.0,64.0
8251,62.0,5,120,13.0,64.0
8252,71.0,160,120,2.0,64.0
8253,62.0,0,120,3.0,64.0
8254,72.0,5,240,0.0,64.0
8255,72.0,0,240,2.0,64.0
8256,63.0,75,390,13.0,64.0
8257,63.0,0,390,3.0,64.0
8258,72.0,120,240,11.0,64.0
8259,84.0,0,240,0.0,64.0
8260,65.0,0,120,3.0,64.0
8261,74.0,0,120,2.0,64.0
8262,65.0,0,120,2.0,64.0
8263,65.0,0,120,12.0,64.0
8264,74.0,0,120,0.0,64.0
8265,86.0,0,120,0.0,64.0
8266,74.0,0,120,11.0,64.0
8267,75.0,0,120,0.0,64.0
8268,75.0,475,120,2.0,64.0
8269,67.0,0,120,2.0,64.0
8270,87.0,0,120,0.0,64.0
8271,67.0,5,120,3.0,64.0
8272,75.0,0,120,11.0,64.0
8273,67.0,0,120,12.0,64.0
8274,77.0,0,720,0.0,64.0
8275,68.0,0,720,3.0,64.0
8276,89.0,0,720,0.0,64.0
8277,68.0,0,720,12.0,64.0
8278,68.0,0,720,2.0,64.0
8279,77.0,125,720,2.0,64.0
8280,77.0,0,720,11.0,64.0
8281,47.0,0,240,4.0,64.0
8282,62.0,235,240,13.0,64.0
8283,35.0,0,240,8.0,64.0
8284,62.0,0,240,5.0,64.0
8285,62.0,5,240,3.0,64.0
8286,35.0,0,240,15.0,64.0
8287,62.0,0,240,7.0,64.0
8288,59.0,0,240,6.0,64.0
8289,71.0,0,240,6.0,64.0
8290,55.0,0,240,7.0,64.0
8291,47.0,0,240,14.0,64.0
8292,59.0,0,240,7.0,64.0
8293,67.0,0,240,5.0,64.0
8294,60.0,115,840,7.0,64.0
8295,72.0,0,840,6.0,64.0
8296,60.0,0,840,6.0,64.0
8297,55.0,0,840,7.0,64.0
8298,60.0,75,630,13.0,64.0
8299,48.0,0,840,4.0,64.0
8300,48.0,0,840,14.0,64.0
8301,63.0,0,840,7.0,64.0
8302,67.0,0,840,5.0,64.0
8303,36.0,0,840,15.0,64.0
8304,60.0,0,720,3.0,64.0
8305,63.0,0,840,5.0,64.0
8306,36.0,0,840,8.0,64.0
8307,75.0,0,120,11.0,64.0
8308,67.0,0,120,2.0,64.0
8309,75.0,115,120,0.0,64.0
8310,67.0,0,120,12.0,64.0
8311,75.0,0,120,2.0,64.0
8312,87.0,0,120,0.0,64.0
8313,67.0,0,120,3.0,64.0
8314,65.0,0,120,2.0,64.0
8315,86.0,160,120,0.0,64.0
8316,74.0,5,120,11.0,64.0
8317,74.0,0,120,2.0,64.0
8318,65.0,0,120,12.0,64.0
8319,65.0,0,120,3.0,64.0
8320,74.0,0,120,0.0,64.0
8321,75.0,0,240,2.0,64.0
8322,75.0,0,240,0.0,64.0
8323,87.0,5,240,0.0,64.0
8324,67.0,0,240,3.0,64.0
8325,67.0,0,240,12.0,64.0
8326,67.0,0,240,2.0,64.0
8327,75.0,120,240,11.0,64.0
8328,68.0,0,120,12.0,64.0
8329,62.0,0,120,3.0,64.0
8330,62.0,0,120,13.0,64.0
8331,68.0,0,120,3.0,64.0
8332,68.0,0,120,2.0,64.0
8333,89.0,0,120,0.0,64.0
8334,77.0,0,120,2.0,64.0
8335,77.0,0,120,11.0,64.0
8336,77.0,0,120,0.0,64.0
8337,79.0,240,120,0.0,64.0
8338,70.0,0,120,2.0,64.0
8339,64.0,0,120,13.0,64.0
8340,70.0,0,120,3.0,64.0
8341,79.0,0,120,2.0,64.0
8342,70.0,0,120,12.0,64.0
8343,91.0,0,120,0.0,64.0
8344,64.0,0,120,3.0,64.0
8345,79.0,5,120,11.0,64.0
8346,65.0,0,720,3.0,64.0
8347,72.0,0,240,2.0,64.0
8348,65.0,0,720,13.0,64.0
8349,80.0,0,720,11.0,64.0
8350,72.0,0,240,12.0,64.0
8351,80.0,125,720,2.0,64.0
8352,92.0,0,720,0.0,64.0
8353,80.0,0,720,0.0,64.0
8354,72.0,235,240,3.0,64.0
8355,65.0,0,240,5.0,64.0
8356,65.0,0,240,7.0,64.0
8357,56.0,0,240,7.0,64.0
8358,60.0,0,240,5.0,64.0
8359,41.0,0,240,8.0,64.0
8360,60.0,0,240,7.0,64.0
8361,41.0,0,240,14.0,64.0
8362,41.0,0,240,4.0,64.0
8363,74.0,0,240,2.0,64.0
8364,41.0,0,240,15.0,64.0
8365,74.0,0,240,12.0,64.0
8366,74.0,235,240,3.0,64.0
8367,65.0,5,240,6.0,64.0
8368,43.0,0,840,8.0,64.0
8369,71.0,0,390,3.0,64.0
8370,71.0,0,390,2.0,64.0
8371,62.0,0,840,5.0,64.0
8372,43.0,0,840,14.0,64.0
8373,67.0,115,840,6.0,64.0
8374,55.0,0,840,7.0,64.0
8375,43.0,0,840,4.0,64.0
8376,62.0,0,840,7.0,64.0
8377,60.0,0,840,7.0,64.0
8378,71.0,75,390,12.0,64.0
8379,67.0,0,840,5.0,64.0
8380,43.0,0,840,15.0,64.0
8381,91.0,0,120,0.0,64.0
8382,79.0,0,120,2.0,64.0
8383,79.0,0,120,0.0,64.0
8384,79.0,0,120,11.0,64.0
8385,63.0,0,120,13.0,64.0
8386,63.0,40,120,3.0,64.0
8387,77.0,0,120,0.0,64.0
8388,77.0,0,120,11.0,64.0
8389,89.0,0,120,0.0,64.0
8390,62.0,0,120,3.0,64.0
8391,62.0,5,120,13.0,64.0
8392,77.0,235,120,2.0,64.0
8393,72.0,0,720,3.0,64.0
8394,72.0,0,720,2.0,64.0
8395,72.0,0,720,12.0,64.0
8396,63.0,120,240,13.0,64.0
8397,79.0,0,240,11.0,64.0
8398,63.0,0,240,3.0,64.0
8399,91.0,0,240,0.0,64.0
8400,79.0,0,240,0.0,64.0
8401,79.0,5,240,2.0,64.0
8402,89.0,0,120,0.0,64.0
8403,77.0,0,120,11.0,64.0
8404,62.0,0,120,3.0,64.0
8405,77.0,0,120,0.0,64.0
8406,62.0,0,120,13.0,64.0
8407,77.0,0,120,2.0,64.0
8408,75.0,0,120,11.0,64.0
8409,75.0,0,120,0.0,64.0
8410,75.0,0,120,2.0,64.0
8411,60.0,5,120,13.0,64.0
8412,60.0,235,120,3.0,64.0
8413,87.0,0,120,0.0,64.0
8414,67.0,0,240,3.0,64.0
8415,75.0,0,240,2.0,64.0
8416,67.0,120,240,13.0,64.0
8417,75.0,0,240,11.0,64.0
8418,75.0,0,240,0.0,64.0
8419,87.0,5,240,0.0,64.0
8420,43.0,0,240,14.0,64.0
8421,59.0,0,240,7.0,64.0
8422,62.0,0,240,7.0,64.0
8423,71.0,235,240,12.0,64.0
8424,67.0,0,240,6.0,64.0
8425,43.0,0,240,8.0,64.0
8426,74.0,0,120,0.0,64.0
8427,43.0,0,240,4.0,64.0
8428,71.0,0,240,2.0,64.0
8429,71.0,0,240,3.0,64.0
8430,55.0,0,240,7.0,64.0
8431,86.0,115,120,0.0,64.0
8432,43.0,5,240,15.0,64.0
8433,74.0,0,120,2.0,64.0
8434,65.0,0,480,3.0,64.0
8435,62.0,0,240,5.0,64.0
8436,65.0,0,480,13.0,64.0
8437,67.0,0,240,5.0,64.0
8438,74.0,0,120,11.0,64.0
8439,84.0,0,120,0.0,64.0
8440,72.0,0,120,11.0,64.0
8441,36.0,0,840,14.0,64.0
8442,36.0,0,840,15.0,64.0
8443,72.0,0,15,2.0,64.0
8444,63.0,0,840,7.0,64.0
8445,72.0,0,240,12.0,64.0
8446,72.0,0,15,0.0,64.0
8447,84.0,0,630,0.0,64.0
8448,63.0,0,840,5.0,64.0
8449,55.0,0,840,7.0,64.0
8450,72.0,0,240,2.0,64.0
8451,72.0,125,240,3.0,64.0
8452,60.0,0,840,7.0,64.0
8453,67.0,0,840,5.0,64.0
8454,72.0,75,630,11.0,64.0
8455,36.0,0,840,8.0,64.0
8456,60.0,0,840,6.0,64.0
8457,36.0,0,840,4.0,64.0
8458,79.0,125,480,2.0,64.0
8459,67.0,0,480,12.0,64.0
8460,75.0,0,120,3.0,64.0
8461,63.0,120,120,13.0,64.0
8462,79.0,0,480,3.0,64.0
8463,62.0,160,120,13.0,64.0
8464,74.0,0,120,3.0,64.0
8465,63.0,0,240,13.0,64.0
8466,75.0,0,240,3.0,64.0
8467,72.0,0,120,11.0,64.0
8468,79.0,0,120,2.0,64.0
8469,84.0,0,120,11.0,64.0
8470,79.0,0,120,3.0,64.0
8471,67.0,0,120,12.0,64.0
8472,84.0,0,120,2.0,64.0
8473,84.0,0,120,0.0,64.0
8474,75.0,120,120,3.0,64.0
8475,63.0,0,120,13.0,64.0
8476,77.0,0,120,3.0,64.0
8477,77.0,0,120,2.0,64.0
8478,83.0,0,120,2.0,64.0
8479,83.0,0,120,11.0,64.0
8480,71.0,0,120,11.0,64.0
8481,74.0,0,120,3.0,64.0
8482,83.0,0,120,0.0,64.0
8483,65.0,0,120,12.0,64.0
8484,62.0,0,120,13.0,64.0
8485,36.0,0,390,8.0,64.0
8486,36.0,80,390,15.0,64.0
8487,60.0,0,390,6.0,64.0
8488,48.0,0,390,4.0,64.0
8489,63.0,0,390,7.0,64.0
8490,55.0,0,390,7.0,64.0
8491,75.0,0,240,3.0,64.0
8492,60.0,0,390,5.0,64.0
8493,60.0,0,390,7.0,64.0
8494,72.0,0,240,11.0,64.0
8495,60.0,0,240,13.0,64.0
8496,75.0,0,240,2.0,64.0
8497,48.0,0,390,14.0,64.0
8498,72.0,0,240,3.0,64.0
8499,84.0,0,240,0.0,64.0
8500,63.0,0,240,12.0,64.0
8501,84.0,0,240,2.0,64.0
8502,84.0,165,240,11.0,64.0
8503,84.0,0,840,11.0,64.0
8504,72.0,0,840,11.0,64.0
8505,63.0,0,360,13.0,64.0
8506,63.0,5,360,3.0,64.0
8507,72.0,0,840,0.0,64.0
8508,72.0,125,840,2.0,64.0
8509,67.0,0,1080,12.0,64.0
8510,79.0,0,240,3.0,64.0
8511,84.0,0,840,0.0,64.0
8512,79.0,115,240,2.0,64.0
8513,75.0,120,120,2.0,64.0
8514,67.0,0,840,5.0,64.0
8515,55.0,0,840,4.0,64.0
8516,62.0,0,840,7.0,64.0
8517,59.0,0,840,7.0,64.0
8518,55.0,0,840,7.0,64.0
8519,59.0,0,840,5.0,64.0
8520,67.0,115,840,6.0,64.0
8521,43.0,0,840,15.0,64.0
8522,75.0,0,120,3.0,64.0
8523,55.0,0,840,14.0,64.0
8524,43.0,0,840,8.0,64.0
8525,77.0,120,120,2.0,64.0
8526,65.0,0,120,13.0,64.0
8527,65.0,0,120,3.0,64.0
8528,77.0,0,120,3.0,64.0
8529,75.0,0,120,3.0,64.0
8530,75.0,115,120,2.0,64.0
8531,63.0,0,120,13.0,64.0
8532,63.0,0,120,3.0,64.0
8533,62.0,5,120,13.0,64.0
8534,74.0,0,120,3.0,64.0
8535,62.0,115,120,3.0,64.0
8536,74.0,0,120,2.0,64.0
8537,75.0,0,600,3.0,64.0
8538,75.0,0,600,2.0,64.0
8539,63.0,125,600,13.0,64.0
8540,63.0,0,600,3.0,64.0
8541,74.0,0,120,2.0,64.0
8542,74.0,0,120,0.0,64.0
8543,86.0,120,120,11.0,64.0
8544,74.0,0,120,11.0,64.0
8545,86.0,0,120,0.0,64.0
8546,84.0,0,120,0.0,64.0
8547,72.0,0,120,2.0,64.0
8548,84.0,0,120,11.0,64.0
8549,72.0,0,120,0.0,64.0
8550,72.0,0,120,11.0,64.0
8551,71.0,0,120,2.0,64.0
8552,83.0,115,120,0.0,64.0
8553,71.0,5,120,11.0,64.0
8554,71.0,0,120,0.0,64.0
8555,83.0,0,120,11.0,64.0
8556,84.0,0,600,11.0,64.0
8557,63.0,0,390,6.0,64.0
8558,60.0,75,390,5.0,64.0
8559,51.0,0,390,4.0,64.0
8560,72.0,125,600,2.0,64.0
8561,39.0,0,390,8.0,64.0
8562,55.0,0,390,7.0,64.0
8563,72.0,0,600,0.0,64.0
8564,72.0,0,600,11.0,64.0
8565,51.0,0,390,14.0,64.0
8566,67.0,0,390,12.0,64.0
8567,63.0,0,390,7.0,64.0
8568,39.0,0,390,15.0,64.0
8569,63.0,0,390,5.0,64.0
8570,84.0,0,600,0.0,64.0
8571,60.0,0,390,7.0,64.0
8572,77.0,0,120,3.0,64.0
8573,65.0,0,120,13.0,64.0
8574,77.0,120,120,2.0,64.0
8575,65.0,0,120,3.0,64.0
8576,63.0,0,120,3.0,64.0
8577,63.0,0,120,13.0,64.0
8578,75.0,0,120,3.0,64.0
8579,75.0,40,120,2.0,64.0
8580,74.0,115,120,2.0,64.0
8581,74.0,0,120,3.0,64.0
8582,62.0,0,120,3.0,64.0
8583,62.0,5,120,13.0,64.0
8584,60.0,0,840,5.0,64.0
8585,75.0,0,600,3.0,64.0
8586,63.0,0,600,13.0,64.0
8587,65.0,0,840,6.0,64.0
8588,53.0,0,840,4.0,64.0
8589,56.0,0,840,7.0,64.0
8590,41.0,0,840,8.0,64.0
8591,65.0,0,840,7.0,64.0
8592,60.0,0,840,7.0,64.0
8593,63.0,0,600,3.0,64.0
8594,75.0,125,600,2.0,64.0
8595,41.0,0,840,15.0,64.0
8596,53.0,0,840,14.0,64.0
8597,65.0,0,840,5.0,64.0
8598,68.0,0,840,12.0,64.0
8599,86.0,0,120,11.0,64.0
8600,74.0,0,120,0.0,64.0
8601,74.0,0,120,11.0,64.0
8602,74.0,120,120,2.0,64.0
8603,86.0,0,120,0.0,64.0
8604,72.0,0,120,11.0,64.0
8605,72.0,115,120,0.0,64.0
8606,84.0,0,120,0.0,64.0
8607,84.0,0,120,11.0,64.0
8608,72.0,0,120,2.0,64.0
8609,83.0,0,120,0.0,64.0
8610,83.0,0,120,11.0,64.0
8611,71.0,115,120,2.0,64.0
8612,71.0,5,120,11.0,64.0
8613,71.0,0,120,0.0,64.0
8614,72.0,0,600,2.0,64.0
8615,72.0,125,600,11.0,64.0
8616,84.0,0,600,11.0,64.0
8617,84.0,0,600,0.0,64.0
8618,72.0,0,600,0.0,64.0
8619,65.0,0,120,3.0,64.0
8620,77.0,0,120,2.0,64.0
8621,65.0,120,120,13.0,64.0
8622,77.0,0,120,3.0,64.0
8623,75.0,0,120,3.0,64.0
8624,63.0,0,120,3.0,64.0
8625,75.0,0,120,2.0,64.0
8626,63.0,115,120,13.0,64.0
8627,74.0,115,120,2.0,64.0
8628,62.0,5,120,13.0,64.0
8629,62.0,0,120,3.0,64.0
8630,74.0,0,120,3.0,64.0
8631,55.0,0,390,14.0,64.0
8632,59.0,0,390,5.0,64.0
8633,43.0,0,390,15.0,64.0
8634,67.0,75,390,12.0,64.0
8635,75.0,0,600,2.0,64.0
8636,55.0,0,390,4.0,64.0
8637,75.0,0,600,3.0,64.0
8638,67.0,0,390,6.0,64.0
8639,63.0,0,600,13.0,64.0
8640,63.0,125,600,3.0,64.0
8641,67.0,0,390,5.0,64.0
8642,43.0,0,390,8.0,64.0
8643,55.0,0,390,7.0,64.0
8644,62.0,0,390,7.0,64.0
8645,59.0,0,390,7.0,64.0
8646,86.0,0,120,11.0,64.0
8647,74.0,0,120,2.0,64.0
8648,86.0,120,120,0.0,64.0
8649,74.0,0,120,0.0,64.0
8650,74.0,0,120,11.0,64.0
8651,84.0,0,120,11.0,64.0
8652,72.0,0,120,11.0,64.0
8653,72.0,40,120,2.0,64.0
8654,72.0,0,120,0.0,64.0
8655,84.0,0,120,0.0,64.0
8656,71.0,0,120,0.0,64.0
8657,83.0,115,120,0.0,64.0
8658,71.0,0,120,2.0,64.0
8659,71.0,0,120,11.0,64.0
8660,83.0,5,120,11.0,64.0
8661,72.0,0,600,0.0,64.0
8662,44.0,0,840,8.0,64.0
8663,68.0,0,840,12.0,64.0
8664,63.0,0,840,7.0,64.0
8665,56.0,0,840,7.0,64.0
8666,60.0,0,840,7.0,64.0
8667,44.0,0,840,15.0,64.0
8668,72.0,0,600,2.0,64.0
8669,68.0,0,840,5.0,64.0
8670,56.0,0,840,4.0,64.0
8671,56.0,115,840,14.0,64.0
8672,68.0,0,840,6.0,64.0
8673,72.0,125,600,11.0,64.0
8674,84.0,0,600,11.0,64.0
8675,84.0,0,600,0.0,64.0
8676,60.0,0,840,5.0,64.0
8677,77.0,120,120,2.0,64.0
8678,65.0,0,120,3.0,64.0
8679,77.0,0,120,3.0,64.0
8680,65.0,0,120,13.0,64.0
8681,63.0,115,120,3.0,64.0
8682,75.0,0,120,3.0,64.0
8683,63.0,0,120,13.0,64.0
8684,75.0,0,120,2.0,64.0
8685,62.0,5,120,13.0,64.0
8686,74.0,115,120,3.0,64.0
8687,74.0,0,120,2.0,64.0
8688,62.0,0,120,3.0,64.0
8689,75.0,0,600,2.0,64.0
8690,63.0,0,600,3.0,64.0
8691,63.0,125,600,13.0,64.0
8692,75.0,0,600,3.0,64.0
8693,74.0,0,120,0.0,64.0
8694,74.0,120,120,11.0,64.0
8695,86.0,0,120,11.0,64.0
8696,86.0,0,120,0.0,64.0
8697,74.0,0,120,2.0,64.0
8698,84.0,0,120,0.0,64.0
8699,72.0,0,120,2.0,64.0
8700,72.0,0,120,11.0,64.0
8701,84.0,0,120,11.0,64.0
8702,72.0,0,120,0.0,64.0
8703,83.0,0,120,0.0,64.0
8704,83.0,0,120,11.0,64.0
8705,71.0,5,120,11.0,64.0
8706,71.0,115,120,2.0,64.0
8707,71.0,0,120,0.0,64.0
8708,72.0,0,600,11.0,64.0
8709,65.0,0,390,5.0,64.0
8710,60.0,0,390,7.0,64.0
8711,63.0,0,390,7.0,64.0
8712,53.0,0,390,4.0,64.0
8713,41.0,0,390,15.0,64.0
8714,65.0,0,390,6.0,64.0
8715,53.0,0,390,14.0,64.0
8716,84.0,0,600,0.0,64.0
8717,84.0,0,600,11.0,64.0
8718,72.0,0,600,0.0,64.0
8719,68.0,0,390,12.0,64.0
8720,56.0,0,390,7.0,64.0
8721,41.0,75,390,8.0,64.0
8722,60.0,0,390,5.0,64.0
8723,72.0,125,600,2.0,64.0
8724,77.0,0,120,2.0,64.0
8725,65.0,0,120,3.0,64.0
8726,77.0,0,120,3.0,64.0
8727,65.0,120,120,13.0,64.0
8728,63.0,0,120,3.0,64.0
8729,75.0,40,120,2.0,64.0
8730,75.0,0,120,3.0,64.0
8731,63.0,0,120,13.0,64.0
8732,74.0,0,120,2.0,64.0
8733,62.0,5,120,13.0,64.0
8734,74.0,0,120,3.0,64.0
8735,62.0,115,120,3.0,64.0
8736,67.0,0,840,5.0,64.0
8737,63.0,0,600,3.0,64.0
8738,43.0,0,840,15.0,64.0
8739,63.0,120,600,13.0,64.0
8740,62.0,0,840,7.0,64.0
8741,59.0,0,840,7.0,64.0
8742,55.0,0,840,14.0,64.0
8743,67.0,0,840,6.0,64.0
8744,75.0,0,720,2.0,64.0
8745,43.0,0,840,8.0,64.0
8746,59.0,115,840,5.0,64.0
8747,55.0,0,840,7.0,64.0
8748,55.0,0,840,4.0,64.0
8749,75.0,0,720,3.0,64.0
8750,67.0,125,1080,12.0,64.0
8751,74.0,0,120,2.0,64.0
8752,74.0,0,120,0.0,64.0
8753,74.0,0,120,11.0,64.0
8754,86.0,120,120,11.0,64.0
8755,86.0,0,120,0.0,64.0
8756,72.0,0,120,2.0,64.0
8757,72.0,0,120,0.0,64.0
8758,84.0,0,120,0.0,64.0
8759,84.0,120,120,11.0,64.0
8760,72.0,0,120,11.0,64.0
8761,71.0,0,120,0.0,64.0
8762,71.0,0,120,11.0,64.0
8763,71.0,0,120,2.0,64.0
8764,83.0,115,120,11.0,64.0
8765,83.0,0,120,0.0,64.0
8766,72.0,5,240,2.0,64.0
8767,84.0,0,240,0.0,64.0
8768,84.0,0,240,11.0,64.0
8769,72.0,0,240,0.0,64.0
8770,72.0,0,240,11.0,64.0
8771,63.0,120,120,3.0,64.0
8772,63.0,0,120,13.0,64.0
8773,71.0,0,120,11.0,64.0
8774,62.0,0,120,13.0,64.0
8775,71.0,0,120,2.0,64.0
8776,83.0,0,120,11.0,64.0
8777,71.0,0,120,3.0,64.0
8778,62.0,0,120,3.0,64.0
8779,83.0,0,120,0.0,64.0
8780,71.0,0,120,0.0,64.0
8781,69.0,0,120,0.0,64.0
8782,69.0,0,120,3.0,64.0
8783,60.0,0,120,13.0,64.0
8784,69.0,0,120,11.0,64.0
8785,81.0,115,120,0.0,64.0
8786,60.0,0,120,3.0,64.0
8787,69.0,0,120,2.0,64.0
8788,81.0,5,120,11.0,64.0
8789,53.0,0,390,7.0,64.0
8790,59.0,0,390,7.0,64.0
8791,62.0,0,390,7.0,64.0
8792,62.0,0,390,6.0,64.0
8793,67.0,0,120,2.0,64.0
8794,50.0,0,390,4.0,64.0
8795,62.0,0,600,3.0,64.0
8796,38.0,0,390,15.0,64.0
8797,71.0,0,600,0.0,64.0
8798,62.0,0,600,13.0,64.0
8799,83.0,0,600,0.0,64.0
8800,62.0,0,390,5.0,64.0
8801,71.0,125,600,2.0,64.0
8802,59.0,0,390,5.0,64.0
8803,83.0,0,600,11.0,64.0
8804,71.0,0,600,11.0,64.0
8805,38.0,75,390,8.0,64.0
8806,50.0,0,390,14.0,64.0
8807,67.0,0,120,3.0,64.0
8808,69.0,0,120,3.0,64.0
8809,69.0,0,120,2.0,64.0
8810,68.0,120,120,12.0,64.0
8811,67.0,0,120,2.0,64.0
8812,67.0,0,120,3.0,64.0
8813,67.0,40,120,12.0,64.0
8814,65.0,115,120,3.0,64.0
8815,65.0,5,120,12.0,64.0
8816,65.0,0,120,2.0,64.0
8817,63.0,0,840,7.0,64.0
8818,67.0,125,600,3.0,64.0
8819,60.0,0,840,7.0,64.0
8820,51.0,0,840,4.0,64.0
8821,51.0,0,840,14.0,64.0
8822,60.0,0,840,5.0,64.0
8823,63.0,0,840,5.0,64.0
8824,39.0,0,840,8.0,64.0
8825,63.0,0,840,6.0,64.0
8826,39.0,0,840,15.0,64.0
8827,67.0,0,600,2.0,64.0
8828,67.0,0,600,12.0,64.0
8829,55.0,40,840,7.0,64.0
8830,65.0,0,120,13.0,64.0
8831,74.0,120,120,2.0,64.0
8832,65.0,0,120,3.0,64.0
8833,86.0,0,120,0.0,64.0
8834,74.0,0,120,0.0,64.0
8835,86.0,0,120,11.0,64.0
8836,74.0,0,120,11.0,64.0
8837,84.0,0,120,11.0,64.0
8838,84.0,0,120,0.0,64.0
8839,72.0,0,120,11.0,64.0
8840,72.0,0,120,2.0,64.0
8841,72.0,0,120,0.0,64.0
8842,63.0,0,120,3.0,64.0
8843,63.0,115,120,13.0,64.0
8844,71.0,0,120,2.0,64.0
8845,71.0,5,120,11.0,64.0
8846,83.0,0,120,11.0,64.0
8847,71.0,0,120,0.0,64.0
8848,83.0,115,120,0.0,64.0
8849,62.0,0,120,3.0,64.0
8850,62.0,0,120,13.0,64.0
8851,72.0,0,360,11.0,64.0
8852,84.0,0,360,11.0,64.0
8853,84.0,0,360,0.0,64.0
8854,60.0,0,390,3.0,64.0
8855,60.0,75,390,13.0,64.0
8856,72.0,0,360,0.0,64.0
8857,72.0,5,360,2.0,64.0
8858,68.0,115,120,2.0,64.0
8859,68.0,0,120,12.0,64.0
8860,68.0,0,120,3.0,64.0
8861,67.0,0,120,3.0,64.0
8862,67.0,0,120,12.0,64.0
8863,67.0,0,120,2.0,64.0
8864,75.0,0,120,2.0,64.0
8865,65.0,5,120,12.0,64.0
8866,65.0,0,120,3.0,64.0
8867,75.0,120,120,0.0,64.0
8868,65.0,0,120,2.0,64.0
8869,87.0,0,120,0.0,64.0
8870,75.0,0,120,11.0,64.0
8871,87.0,0,120,11.0,64.0
8872,67.0,0,600,12.0,64.0
8873,86.0,0,120,11.0,64.0
8874,74.0,0,120,11.0,64.0
8875,86.0,120,120,0.0,64.0
8876,74.0,0,120,2.0,64.0
8877,62.0,75,870,13.0,64.0
8878,47.0,0,390,14.0,64.0
8879,62.0,0,390,5.0,64.0
8880,62.0,0,870,3.0,64.0
8881,35.0,0,390,8.0,64.0
8882,55.0,0,390,7.0,64.0
8883,59.0,0,390,6.0,64.0
8884,67.0,0,600,2.0,64.0
8885,74.0,0,120,0.0,64.0
8886,35.0,0,390,15.0,64.0
8887,47.0,75,390,4.0,64.0
8888,62.0,0,390,7.0,64.0
8889,59.0,0,390,5.0,64.0
8890,59.0,0,390,7.0,64.0
8891,67.0,125,600,3.0,64.0
8892,77.0,0,120,11.0,64.0
8893,89.0,0,120,11.0,64.0
8894,77.0,120,120,2.0,64.0
8895,77.0,0,120,0.0,64.0
8896,89.0,0,120,0.0,64.0
8897,75.0,0,120,0.0,64.0
8898,87.0,40,120,0.0,64.0
8899,87.0,0,120,11.0,64.0
8900,75.0,0,120,11.0,64.0
8901,75.0,0,120,2.0,64.0
8902,74.0,115,120,0.0,64.0
8903,86.0,5,120,11.0,64.0
8904,86.0,0,120,0.0,64.0
8905,74.0,0,120,11.0,64.0
8906,74.0,0,120,2.0,64.0
8907,36.0,0,840,15.0,64.0
8908,60.0,115,840,7.0,64.0
8909,75.0,0,600,2.0,64.0
8910,60.0,0,840,6.0,64.0
8911,87.0,0,600,11.0,64.0
8912,75.0,125,600,11.0,64.0
8913,48.0,0,840,4.0,64.0
8914,48.0,0,840,14.0,64.0
8915,63.0,0,840,7.0,64.0
8916,63.0,0,840,5.0,64.0
8917,55.0,0,840,7.0,64.0
8918,87.0,0,600,0.0,64.0
8919,36.0,0,840,8.0,64.0
8920,60.0,0,840,5.0,64.0
8921,75.0,0,600,0.0,64.0
8922,68.0,0,120,3.0,64.0
8923,68.0,120,120,2.0,64.0
8924,68.0,0,120,12.0,64.0
8925,67.0,0,120,3.0,64.0
8926,67.0,0,120,2.0,64.0
8927,67.0,40,120,12.0,64.0
8928,65.0,115,120,2.0,64.0
8929,65.0,5,120,12.0,64.0
8930,65.0,0,120,3.0,64.0
8931,60.0,0,840,3.0,64.0
8932,67.0,0,600,3.0,64.0
8933,67.0,0,600,2.0,64.0
8934,60.0,0,840,13.0,64.0
8935,67.0,125,600,12.0,64.0
8936,79.0,0,120,11.0,64.0
8937,91.0,120,120,0.0,64.0
8938,91.0,0,120,11.0,64.0
8939,79.0,0,120,0.0,64.0
8940,79.0,0,120,2.0,64.0
8941,77.0,0,120,0.0,64.0
8942,77.0,0,120,2.0,64.0
8943,89.0,0,120,11.0,64.0
8944,77.0,0,120,11.0,64.0
8945,89.0,0,120,0.0,64.0
8946,87.0,120,120,0.0,64.0
8947,75.0,0,120,0.0,64.0
8948,75.0,0,120,2.0,64.0
8949,75.0,0,120,11.0,64.0
8950,87.0,0,120,11.0,64.0
8951,65.0,0,390,6.0,64.0
8952,60.0,0,390,7.0,64.0
8953,80.0,0,390,0.0,64.0
8954,92.0,0,390,0.0,64.0
8955,80.0,0,390,11.0,64.0
8956,56.0,0,390,7.0,64.0
8957,80.0,0,390,2.0,64.0
8958,41.0,0,390,14.0,64.0
8959,92.0,0,390,11.0,64.0
8960,41.0,0,390,8.0,64.0
8961,65.0,195,390,5.0,64.0
8962,65.0,0,390,7.0,64.0
8963,41.0,0,390,15.0,64.0
8964,62.0,0,390,5.0,64.0
8965,53.0,0,390,4.0,64.0
8966,68.0,0,120,2.0,64.0
8967,68.0,120,120,3.0,64.0
8968,68.0,0,120,12.0,64.0
8969,67.0,0,120,2.0,64.0
8970,67.0,40,120,3.0,64.0
8971,67.0,0,120,12.0,64.0
8972,65.0,125,240,12.0,64.0
8973,65.0,0,240,2.0,64.0
8974,65.0,0,240,3.0,64.0
8975,74.0,0,600,11.0,64.0
8976,86.0,0,600,0.0,64.0
8977,74.0,0,600,0.0,64.0
8978,60.0,0,960,5.0,64.0
8979,59.0,115,480,3.0,64.0
8980,62.0,0,960,7.0,64.0
8981,59.0,75,390,13.0,64.0
8982,43.0,0,1320,15.0,64.0
8983,59.0,0,480,4.0,64.0
8984,43.0,0,1320,8.0,64.0
8985,67.0,0,1320,6.0,64.0
8986,43.0,40,1320,14.0,64.0
8987,60.0,0,960,7.0,64.0
8988,74.0,0,600,2.0,64.0
8989,67.0,0,1320,5.0,64.0
8990,55.0,0,1320,7.0,64.0
8991,86.0,125,600,11.0,64.0
8992,68.0,0,120,12.0,64.0
8993,68.0,0,120,2.0,64.0
8994,68.0,120,120,3.0,64.0
8995,67.0,40,120,2.0,64.0
8996,67.0,0,120,3.0,64.0
8997,67.0,0,120,12.0,64.0
8998,65.0,0,120,3.0,64.0
8999,65.0,5,120,12.0,64.0
9000,65.0,0,120,2.0,64.0
9001,63.0,0,390,3.0,64.0
9002,60.0,115,480,13.0,64.0
9003,63.0,80,390,2.0,64.0
9004,60.0,0,480,3.0,64.0
9005,60.0,0,480,4.0,64.0
9006,63.0,0,390,12.0,64.0
9007,75.0,0,120,0.0,64.0
9008,87.0,0,120,0.0,64.0
9009,87.0,0,120,11.0,64.0
9010,75.0,0,120,11.0,64.0
9011,75.0,120,120,2.0,64.0
9012,86.0,0,120,0.0,64.0
9013,74.0,40,120,0.0,64.0
9014,74.0,0,120,11.0,64.0
9015,86.0,0,120,11.0,64.0
9016,74.0,0,120,2.0,64.0
9017,72.0,0,240,0.0,64.0
9018,84.0,0,240,0.0,64.0
9019,72.0,0,240,11.0,64.0
9020,84.0,120,240,11.0,64.0
9021,72.0,0,240,2.0,64.0
9022,65.0,0,600,3.0,64.0
9023,62.0,0,240,3.0,64.0
9024,62.0,0,390,7.0,64.0
9025,59.0,0,390,5.0,64.0
9026,62.0,0,240,13.0,64.0
9027,65.0,0,870,2.0,64.0
9028,62.0,5,240,4.0,64.0
9029,59.0,75,390,7.0,64.0
9030,65.0,125,600,12.0,64.0
9031,74.0,0,120,0.0,64.0
9032,86.0,120,120,11.0,64.0
9033,86.0,0,120,0.0,64.0
9034,74.0,0,120,11.0,64.0
9035,74.0,0,120,2.0,64.0
9036,72.0,0,120,0.0,64.0
9037,55.0,0,840,13.0,64.0
9038,84.0,0,120,0.0,64.0
9039,72.0,0,120,11.0,64.0
9040,84.0,0,120,11.0,64.0
9041,67.0,5,840,4.0,64.0
9042,72.0,0,120,2.0,64.0
9043,71.0,115,120,0.0,64.0
9044,71.0,5,120,11.0,64.0
9045,83.0,0,120,0.0,64.0
9046,83.0,0,120,11.0,64.0
9047,71.0,0,120,2.0,64.0
9048,36.0,115,840,8.0,64.0
9049,84.0,75,390,0.0,64.0
9050,72.0,0,390,2.0,64.0
9051,63.0,0,840,7.0,64.0
9052,60.0,0,840,6.0,64.0
9053,36.0,0,840,15.0,64.0
9054,60.0,0,840,5.0,64.0
9055,60.0,0,840,7.0,64.0
9056,72.0,0,390,0.0,64.0
9057,63.0,0,840,5.0,64.0
9058,72.0,0,390,11.0,64.0
9059,84.0,0,390,11.0,64.0
9060,55.0,0,840,7.0,64.0
9061,36.0,0,840,14.0,64.0
9062,68.0,120,120,3.0,64.0
9063,68.0,0,120,12.0,64.0
9064,67.0,0,120,12.0,64.0
9065,67.0,40,120,3.0,64.0
9066,65.0,5,120,12.0,64.0
9067,65.0,115,120,3.0,64.0
9068,63.0,0,120,12.0,64.0
9069,63.0,120,120,3.0,64.0
9070,65.0,0,120,12.0,64.0
9071,68.0,120,120,3.0,64.0
9072,68.0,0,120,4.0,64.0
9073,65.0,0,120,3.0,64.0
9074,56.0,0,120,13.0,64.0
9075,63.0,0,120,3.0,64.0
9076,67.0,0,120,4.0,64.0
9077,63.0,0,120,12.0,64.0
9078,55.0,0,120,13.0,64.0
9079,67.0,0,120,3.0,64.0
9080,62.0,0,120,12.0,64.0
9081,65.0,0,120,4.0,64.0
9082,62.0,5,120,3.0,64.0
9083,65.0,235,120,3.0,64.0
9084,53.0,0,120,13.0,64.0
9085,48.0,0,390,5.0,64.0
9086,60.0,0,390,7.0,64.0
9087,63.0,195,390,7.0,64.0
9088,55.0,0,390,7.0,64.0
9089,60.0,0,390,5.0,64.0
9090,51.0,0,240,13.0,64.0
9091,60.0,0,390,6.0,64.0
9092,60.0,0,390,12.0,64.0
9093,48.0,0,390,14.0,64.0
9094,36.0,0,390,8.0,64.0
9095,63.0,165,240,4.0,64.0
9096,63.0,0,240,3.0,64.0
9097,36.0,0,390,15.0,64.0
9098,60.0,0,360,13.0,64.0
9099,87.0,0,360,11.0,64.0
9100,87.0,0,360,0.0,64.0
9101,60.0,5,360,4.0,64.0
9102,75.0,0,360,2.0,64.0
9103,75.0,120,360,0.0,64.0
9104,60.0,0,150,3.0,64.0
9105,75.0,0,360,11.0,64.0
9106,55.0,0,840,7.0,64.0
9107,55.0,0,840,5.0,64.0
9108,67.0,0,840,6.0,64.0
9109,62.0,0,840,7.0,64.0
9110,67.0,115,840,5.0,64.0
9111,43.0,0,840,15.0,64.0
9112,55.0,0,840,14.0,64.0
9113,59.0,0,840,7.0,64.0
9114,43.0,0,840,8.0,64.0
9115,89.0,0,120,11.0,64.0
9116,77.0,0,120,2.0,64.0
9117,62.0,0,120,3.0,64.0
9118,62.0,0,120,13.0,64.0
9119,62.0,0,120,4.0,64.0
9120,77.0,0,120,0.0,64.0
9121,89.0,0,120,0.0,64.0
9122,77.0,120,120,11.0,64.0
9123,60.0,115,120,4.0,64.0
9124,75.0,0,120,2.0,64.0
9125,60.0,0,120,3.0,64.0
9126,87.0,0,120,0.0,64.0
9127,75.0,0,120,0.0,64.0
9128,60.0,0,120,13.0,64.0
9129,75.0,0,120,11.0,64.0
9130,87.0,0,120,11.0,64.0
9131,59.0,0,120,3.0,64.0
9132,86.0,0,120,0.0,64.0
9133,59.0,0,120,13.0,64.0
9134,74.0,5,120,11.0,64.0
9135,74.0,120,120,2.0,64.0
9136,59.0,0,120,4.0,64.0
9137,86.0,0,120,11.0,64.0
9138,74.0,0,120,0.0,64.0
9139,75.0,0,600,0.0,64.0
9140,72.0,0,120,12.0,64.0
9141,87.0,0,600,0.0,64.0
9142,63.0,120,120,4.0,64.0
9143,63.0,0,120,3.0,64.0
9144,75.0,0,600,11.0,64.0
9145,75.0,0,120,2.0,64.0
9146,87.0,125,600,11.0,64.0
9147,60.0,0,600,13.0,64.0
9148,75.0,0,120,3.0,64.0
9149,65.0,120,120,3.0,64.0
9150,77.0,0,120,3.0,64.0
9151,65.0,0,120,4.0,64.0
9152,77.0,0,120,2.0,64.0
9153,74.0,0,120,12.0,64.0
9154,63.0,0,120,4.0,64.0
9155,63.0,0,120,3.0,64.0
9156,75.0,0,120,3.0,64.0
9157,75.0,0,120,2.0,64.0
9158,72.0,0,120,12.0,64.0
9159,74.0,0,120,2.0,64.0
9160,62.0,0,120,3.0,64.0
9161,62.0,115,120,4.0,64.0
9162,74.0,0,120,3.0,64.0
9163,71.0,5,120,12.0,64.0
9164,75.0,0,600,3.0,64.0
9165,60.0,0,390,7.0,64.0
9166,39.0,0,390,8.0,64.0
9167,55.0,75,390,7.0,64.0
9168,63.0,0,390,5.0,64.0
9169,63.0,125,600,3.0,64.0
9170,51.0,0,390,14.0,64.0
9171,51.0,0,390,5.0,64.0
9172,72.0,0,600,12.0,64.0
9173,63.0,0,390,6.0,64.0
9174,63.0,0,600,4.0,64.0
9175,39.0,0,390,15.0,64.0
9176,63.0,0,390,7.0,64.0
9177,75.0,0,120,2.0,64.0
9178,77.0,0,120,11.0,64.0
9179,77.0,0,120,2.0,64.0
9180,89.0,0,120,11.0,64.0
9181,89.0,0,120,0.0,64.0
9182,62.0,0,120,13.0,64.0
9183,77.0,120,120,0.0,64.0
9184,75.0,0,120,2.0,64.0
9185,75.0,40,120,0.0,64.0
9186,87.0,0,120,11.0,64.0
9187,75.0,0,120,11.0,64.0
9188,60.0,0,120,13.0,64.0
9189,87.0,0,120,0.0,64.0
9190,86.0,0,120,0.0,64.0
9191,74.0,115,120,2.0,64.0
9192,59.0,0,120,13.0,64.0
9193,74.0,0,120,0.0,64.0
9194,86.0,0,120,11.0,64.0
9195,74.0,5,120,11.0,64.0
9196,65.0,0,840,5.0,64.0
9197,60.0,0,600,13.0,64.0
9198,75.0,0,600,11.0,64.0
9199,87.0,0,600,11.0,64.0
9200,75.0,0,600,0.0,64.0
9201,87.0,0,600,0.0,64.0
9202,41.0,0,840,15.0,64.0
9203,56.0,0,840,7.0,64.0
9204,65.0,0,840,6.0,64.0
9205,53.0,0,840,5.0,64.0
9206,53.0,0,840,14.0,64.0
9207,60.0,0,840,7.0,64.0
9208,65.0,0,840,7.0,64.0
9209,75.0,0,120,2.0,64.0
9210,41.0,0,840,8.0,64.0
9211,77.0,0,120,3.0,64.0
9212,74.0,0,120,12.0,64.0
9213,65.0,0,120,4.0,64.0
9214,77.0,120,120,2.0,64.0
9215,65.0,0,120,3.0,64.0
9216,72.0,0,120,12.0,64.0
9217,63.0,0,120,3.0,64.0
9218,63.0,0,120,4.0,64.0
9219,75.0,0,120,3.0,64.0
9220,75.0,115,120,2.0,64.0
9221,62.0,0,120,4.0,64.0
9222,62.0,0,120,3.0,64.0
9223,74.0,0,120,2.0,64.0
9224,71.0,5,120,12.0,64.0
9225,74.0,115,120,3.0,64.0
9226,63.0,0,600,4.0,64.0
9227,75.0,125,120,2.0,64.0
9228,63.0,0,600,3.0,64.0
9229,72.0,125,600,12.0,64.0
9230,75.0,0,600,3.0,64.0
9231,77.0,0,120,0.0,64.0
9232,77.0,0,120,11.0,64.0
9233,89.0,0,120,11.0,64.0
9234,77.0,120,120,2.0,64.0
9235,62.0,0,120,13.0,64.0
9236,89.0,0,120,0.0,64.0
9237,75.0,0,120,0.0,64.0
9238,60.0,0,120,13.0,64.0
9239,87.0,0,120,11.0,64.0
9240,75.0,0,120,11.0,64.0
9241,75.0,0,120,2.0,64.0
9242,87.0,115,120,0.0,64.0
9243,74.0,0,120,0.0,64.0
9244,86.0,115,120,0.0,64.0
9245,59.0,0,120,13.0,64.0
9246,74.0,0,120,2.0,64.0
9247,74.0,5,120,11.0,64.0
9248,86.0,0,120,11.0,64.0
9249,75.0,0,600,0.0,64.0
9250,55.0,75,390,5.0,64.0
9251,67.0,0,390,5.0,64.0
9252,67.0,0,390,6.0,64.0
9253,55.0,0,390,14.0,64.0
9254,43.0,0,390,15.0,64.0
9255,75.0,0,600,11.0,64.0
9256,87.0,0,600,11.0,64.0
9257,55.0,0,390,7.0,64.0
9258,43.0,0,390,8.0,64.0
9259,62.0,0,390,7.0,64.0
9260,59.0,0,390,7.0,64.0
9261,75.0,0,120,2.0,64.0
9262,87.0,0,600,0.0,64.0
9263,60.0,0,600,13.0,64.0
9264,65.0,0,120,3.0,64.0
9265,77.0,0,120,3.0,64.0
9266,74.0,120,120,12.0,64.0
9267,65.0,0,120,4.0,64.0
9268,77.0,0,120,2.0,64.0
9269,72.0,0,120,12.0,64.0
9270,75.0,0,120,2.0,64.0
9271,63.0,0,120,4.0,64.0
9272,75.0,40,120,3.0,64.0
9273,63.0,0,120,3.0,64.0
9274,71.0,5,120,12.0,64.0
9275,74.0,0,120,2.0,64.0
9276,62.0,115,120,3.0,64.0
9277,74.0,0,120,3.0,64.0
9278,62.0,0,120,4.0,64.0
9279,72.0,0,360,2.0,64.0
9280,63.0,0,840,7.0,64.0
9281,44.0,0,840,15.0,64.0
9282,72.0,5,600,12.0,64.0
9283,68.0,0,840,5.0,64.0
9284,56.0,0,840,7.0,64.0
9285,60.0,0,360,4.0,64.0
9286,60.0,0,360,3.0,64.0
9287,72.0,5,360,3.0,64.0
9288,68.0,0,840,6.0,64.0
9289,56.0,115,840,14.0,64.0
9290,44.0,0,840,8.0,64.0
9291,56.0,0,840,5.0,64.0
9292,60.0,0,840,7.0,64.0
9293,89.0,0,120,0.0,64.0
9294,89.0,115,120,11.0,64.0
9295,77.0,0,120,11.0,64.0
9296,77.0,0,120,2.0,64.0
9297,77.0,0,120,0.0,64.0
9298,62.0,0,120,13.0,64.0
9299,75.0,115,120,0.0,64.0
9300,87.0,0,120,0.0,64.0
9301,75.0,0,120,2.0,64.0
9302,60.0,0,120,13.0,64.0
9303,87.0,0,120,11.0,64.0
9304,75.0,0,120,11.0,64.0
9305,86.0,0,120,0.0,64.0
9306,65.0,0,120,4.0,64.0
9307,77.0,0,120,3.0,64.0
9308,74.0,0,120,2.0,64.0
9309,65.0,115,120,3.0,64.0
9310,59.0,0,120,13.0,64.0
9311,77.0,0,120,2.0,64.0
9312,74.0,0,120,0.0,64.0
9313,74.0,0,120,11.0,64.0
9314,86.0,5,120,11.0,64.0
9315,87.0,0,600,0.0,64.0
9316,75.0,0,120,3.0,64.0
9317,75.0,125,600,11.0,64.0
9318,87.0,0,600,11.0,64.0
9319,63.0,0,120,4.0,64.0
9320,60.0,0,600,13.0,64.0
9321,75.0,0,120,2.0,64.0
9322,63.0,120,120,3.0,64.0
9323,75.0,0,600,0.0,64.0
9324,65.0,0,120,3.0,64.0
9325,77.0,0,120,2.0,64.0
9326,77.0,0,120,3.0,64.0
9327,65.0,0,120,4.0,64.0
9328,74.0,120,120,12.0,64.0
9329,75.0,0,120,2.0,64.0
9330,72.0,0,120,12.0,64.0
9331,63.0,0,120,4.0,64.0
9332,75.0,0,120,3.0,64.0
9333,63.0,0,120,3.0,64.0
9334,74.0,115,120,2.0,64.0
9335,74.0,0,120,3.0,64.0
9336,71.0,5,120,12.0,64.0
9337,62.0,0,120,4.0,64.0
9338,62.0,0,120,3.0,64.0
9339,65.0,0,390,5.0,64.0
9340,75.0,0,600,3.0,64.0
9341,63.0,0,600,3.0,64.0
9342,72.0,125,600,12.0,64.0
9343,63.0,0,390,7.0,64.0
9344,53.0,0,390,5.0,64.0
9345,60.0,0,390,7.0,64.0
9346,75.0,0,120,2.0,64.0
9347,41.0,0,390,15.0,64.0
9348,63.0,0,600,4.0,64.0
9349,41.0,0,390,8.0,64.0
9350,56.0,0,390,7.0,64.0
9351,65.0,75,390,6.0,64.0
9352,53.0,0,390,14.0,64.0
9353,89.0,0,120,11.0,64.0
9354,77.0,0,120,0.0,64.0
9355,77.0,0,120,11.0,64.0
9356,89.0,0,120,0.0,64.0
9357,62.0,120,120,13.0,64.0
9358,77.0,0,120,2.0,64.0
9359,75.0,0,120,0.0,64.0
9360,87.0,0,120,0.0,64.0
9361,75.0,0,120,11.0,64.0
9362,87.0,0,120,11.0,64.0
9363,60.0,40,120,13.0,64.0
9364,75.0,0,120,2.0,64.0
9365,86.0,0,120,11.0,64.0
9366,86.0,115,120,0.0,64.0
9367,74.0,5,120,11.0,64.0
9368,74.0,0,120,0.0,64.0
9369,74.0,0,120,2.0,64.0
9370,59.0,0,120,13.0,64.0
9371,43.0,0,840,15.0,64.0
9372,55.0,0,840,7.0,64.0
9373,75.0,0,120,2.0,64.0
9374,62.0,0,840,7.0,64.0
9375,60.0,0,600,13.0,64.0
9376,59.0,0,840,7.0,64.0
9377,75.0,5,600,0.0,64.0
9378,87.0,0,600,11.0,64.0
9379,55.0,0,840,5.0,64.0
9380,75.0,0,600,11.0,64.0
9381,55.0,0,840,14.0,64.0
9382,67.0,0,840,6.0,64.0
9383,67.0,0,840,5.0,64.0
9384,43.0,0,840,8.0,64.0
9385,87.0,0,600,0.0,64.0
9386,77.0,0,120,3.0,64.0
9387,65.0,0,120,4.0,64.0
9388,77.0,0,120,2.0,64.0
9389,65.0,0,120,3.0,64.0
9390,74.0,120,120,12.0,64.0
9391,72.0,0,120,12.0,64.0
9392,75.0,0,120,2.0,64.0
9393,63.0,0,120,4.0,64.0
9394,63.0,0,120,3.0,64.0
9395,75.0,115,120,3.0,64.0
9396,62.0,0,120,4.0,64.0
9397,74.0,0,120,2.0,64.0
9398,62.0,0,120,3.0,64.0
9399,71.0,5,120,12.0,64.0
9400,74.0,115,120,3.0,64.0
9401,63.0,0,240,4.0,64.0
9402,72.0,115,120,12.0,64.0
9403,75.0,5,240,3.0,64.0
9404,63.0,0,240,3.0,64.0
9405,75.0,0,120,2.0,64.0
9406,91.0,120,120,0.0,64.0
9407,79.0,0,120,11.0,64.0
9408,91.0,0,120,11.0,64.0
9409,79.0,0,120,2.0,64.0
9410,75.0,0,120,12.0,64.0
9411,60.0,0,120,13.0,64.0
9412,79.0,0,120,0.0,64.0
9413,65.0,0,120,3.0,64.0
9414,77.0,0,120,0.0,64.0
9415,62.0,0,120,13.0,64.0
9416,74.0,0,120,12.0,64.0
9417,77.0,0,120,3.0,64.0
9418,77.0,0,120,2.0,64.0
9419,77.0,0,120,11.0,64.0
9420,89.0,0,120,11.0,64.0
9421,65.0,0,120,4.0,64.0
9422,89.0,115,120,0.0,64.0
9423,63.0,5,120,13.0,64.0
9424,75.0,0,120,0.0,64.0
9425,79.0,235,120,3.0,64.0
9426,79.0,0,120,2.0,64.0
9427,75.0,0,120,2.0,64.0
9428,67.0,0,120,3.0,64.0
9429,75.0,0,120,11.0,64.0
9430,87.0,0,120,11.0,64.0
9431,67.0,0,120,4.0,64.0
9432,72.0,0,120,12.0,64.0
9433,87.0,0,120,0.0,64.0
9434,59.0,0,390,7.0,64.0
9435,74.0,160,240,11.0,64.0
9436,65.0,0,240,13.0,64.0
9437,62.0,75,390,5.0,64.0
9438,68.0,0,240,3.0,64.0
9439,71.0,0,390,12.0,64.0
9440,50.0,0,390,14.0,64.0
9441,80.0,5,240,2.0,64.0
9442,86.0,0,240,11.0,64.0
9443,50.0,0,390,5.0,64.0
9444,74.0,0,240,2.0,64.0
9445,68.0,0,240,4.0,64.0
9446,62.0,0,390,6.0,64.0
9447,62.0,0,390,7.0,64.0
9448,86.0,0,240,0.0,64.0
9449,53.0,0,390,7.0,64.0
9450,80.0,0,240,3.0,64.0
9451,38.0,0,390,15.0,64.0
9452,74.0,0,240,0.0,64.0
9453,38.0,0,390,8.0,64.0
9454,77.0,120,240,2.0,64.0
9455,77.0,0,240,3.0,64.0
9456,80.0,0,240,11.0,64.0
9457,92.0,0,240,11.0,64.0
9458,65.0,0,240,3.0,64.0
9459,65.0,0,240,4.0,64.0
9460,80.0,5,240,0.0,64.0
9461,92.0,0,240,0.0,64.0
9462,53.0,0,240,13.0,64.0
9463,80.0,0,240,2.0,64.0
9464,60.0,0,600,3.0,64.0
9465,51.0,0,840,5.0,64.0
9466,79.0,0,600,0.0,64.0
9467,79.0,0,600,2.0,64.0
9468,63.0,0,840,5.0,64.0
9469,55.0,40,840,7.0,64.0
9470,60.0,0,600,4.0,64.0
9471,63.0,0,840,6.0,64.0
9472,39.0,0,840,8.0,64.0
9473,75.0,120,120,3.0,64.0
9474,91.0,0,600,0.0,64.0
9475,91.0,0,600,11.0,64.0
9476,60.0,125,600,13.0,64.0
9477,79.0,0,600,11.0,64.0
9478,63.0,0,840,7.0,64.0
9479,72.0,0,120,12.0,64.0
9480,60.0,0,840,7.0,64.0
9481,75.0,0,120,2.0,64.0
9482,39.0,0,840,15.0,64.0
9483,51.0,0,840,14.0,64.0
9484,74.0,0,120,12.0,64.0
9485,77.0,0,120,2.0,64.0
9486,77.0,120,120,3.0,64.0
9487,72.0,115,120,12.0,64.0
9488,75.0,0,120,2.0,64.0
9489,75.0,0,120,3.0,64.0
9490,74.0,115,120,2.0,64.0
9491,74.0,0,120,3.0,64.0
9492,71.0,5,120,12.0,64.0
9493,75.0,0,390,3.0,64.0
9494,72.0,75,390,12.0,64.0
9495,75.0,0,390,2.0,64.0
9496,60.0,120,120,3.0,64.0
9497,92.0,0,120,11.0,64.0
9498,60.0,0,120,4.0,64.0
9499,80.0,0,120,2.0,64.0
9500,80.0,0,120,0.0,64.0
9501,92.0,0,120,0.0,64.0
9502,80.0,0,120,11.0,64.0
9503,60.0,0,120,13.0,64.0
9504,59.0,0,120,3.0,64.0
9505,59.0,0,120,13.0,64.0
9506,79.0,0,120,2.0,64.0
9507,91.0,0,120,11.0,64.0
9508,79.0,0,120,11.0,64.0
9509,59.0,0,120,4.0,64.0
9510,91.0,0,120,0.0,64.0
9511,79.0,0,120,0.0,64.0
9512,57.0,0,120,4.0,64.0
9513,57.0,120,120,3.0,64.0
9514,77.0,0,120,0.0,64.0
9515,57.0,5,120,13.0,64.0
9516,77.0,0,120,11.0,64.0
9517,89.0,0,120,11.0,64.0
9518,89.0,0,120,0.0,64.0
9519,77.0,0,15,2.0,64.0
9520,55.0,0,390,7.0,64.0
9521,91.0,0,600,0.0,64.0
9522,59.0,0,390,4.0,64.0
9523,79.0,0,600,11.0,64.0
9524,91.0,0,600,11.0,64.0
9525,59.0,0,390,13.0,64.0
9526,74.0,120,120,12.0,64.0
9527,35.0,0,390,8.0,64.0
9528,59.0,0,390,3.0,64.0
9529,62.0,0,390,7.0,64.0
9530,59.0,75,390,7.0,64.0
9531,47.0,0,390,14.0,64.0
9532,77.0,0,120,3.0,64.0
9533,47.0,0,390,5.0,64.0
9534,59.0,0,390,5.0,64.0
9535,35.0,0,390,15.0,64.0
9536,79.0,0,600,0.0,64.0
9537,59.0,0,390,6.0,64.0
9538,80.0,120,120,3.0,64.0
9539,77.0,0,120,12.0,64.0
9540,80.0,0,120,2.0,64.0
9541,79.0,0,120,3.0,64.0
9542,79.0,0,120,2.0,64.0
9543,75.0,40,120,12.0,64.0
9544,77.0,0,120,2.0,64.0
9545,74.0,5,120,12.0,64.0
9546,77.0,115,120,3.0,64.0
9547,72.0,0,600,12.0,64.0
9548,36.0,0,840,8.0,64.0
9549,60.0,0,840,6.0,64.0
9550,48.0,0,840,5.0,64.0
9551,60.0,0,840,5.0,64.0
9552,75.0,120,120,3.0,64.0
9553,60.0,0,600,3.0,64.0
9554,60.0,0,600,4.0,64.0
9555,60.0,0,840,7.0,64.0
9556,63.0,0,840,7.0,64.0
9557,60.0,125,600,13.0,64.0
9558,55.0,115,840,7.0,64.0
9559,36.0,0,840,15.0,64.0
9560,48.0,0,840,14.0,64.0
9561,75.0,0,120,2.0,64.0
9562,80.0,0,120,11.0,64.0
9563,77.0,0,120,2.0,64.0
9564,80.0,0,120,2.0,64.0
9565,80.0,0,120,0.0,64.0
9566,77.0,0,120,3.0,64.0
9567,92.0,120,120,11.0,64.0
9568,92.0,0,120,0.0,64.0
9569,75.0,0,120,3.0,64.0
9570,79.0,0,120,2.0,64.0
9571,91.0,115,120,0.0,64.0
9572,79.0,0,120,0.0,64.0
9573,75.0,0,120,2.0,64.0
9574,91.0,0,120,11.0,64.0
9575,79.0,0,120,11.0,64.0
9576,89.0,0,120,11.0,64.0
9577,89.0,115,120,0.0,64.0
9578,77.0,5,120,11.0,64.0
9579,74.0,0,120,3.0,64.0
9580,74.0,0,120,2.0,64.0
9581,77.0,0,120,0.0,64.0
9582,77.0,0,120,2.0,64.0
9583,75.0,0,600,2.0,64.0
9584,87.0,0,600,11.0,64.0
9585,72.0,0,600,2.0,64.0
9586,75.0,0,600,0.0,64.0
9587,87.0,125,600,0.0,64.0
9588,75.0,0,600,11.0,64.0
9589,72.0,0,600,3.0,64.0
9590,58.0,0,120,3.0,64.0
9591,74.0,0,120,12.0,64.0
9592,58.0,120,120,4.0,64.0
9593,58.0,0,120,13.0,64.0
9594,72.0,0,120,12.0,64.0
9595,56.0,0,120,4.0,64.0
9596,56.0,0,120,13.0,64.0
9597,56.0,0,120,3.0,64.0
9598,55.0,0,120,13.0,64.0
9599,55.0,115,120,3.0,64.0
9600,70.0,5,120,12.0,64.0
9601,55.0,0,120,4.0,64.0
9602,65.0,0,390,7.0,64.0
9603,60.0,0,390,7.0,64.0
9604,41.0,0,390,8.0,64.0
9605,53.0,0,390,5.0,64.0
9606,41.0,0,390,15.0,64.0
9607,56.0,0,390,7.0,64.0
9608,53.0,0,390,3.0,64.0
9609,41.0,0,390,14.0,64.0
9610,68.0,0,390,12.0,64.0
9611,53.0,0,390,4.0,64.0
9612,65.0,0,390,5.0,64.0
9613,65.0,75,390,6.0,64.0
9614,53.0,0,390,13.0,64.0
9615,89.0,0,120,0.0,64.0
9616,77.0,0,120,2.0,64.0
9617,77.0,120,120,0.0,64.0
9618,77.0,0,120,11.0,64.0
9619,74.0,0,120,3.0,64.0
9620,74.0,0,120,2.0,64.0
9621,89.0,0,120,11.0,64.0
9622,75.0,0,120,2.0,64.0
9623,72.0,0,120,2.0,64.0
9624,75.0,0,120,11.0,64.0
9625,87.0,40,120,11.0,64.0
9626,72.0,0,120,3.0,64.0
9627,75.0,0,120,0.0,64.0
9628,87.0,0,120,0.0,64.0
9629,86.0,0,120,11.0,64.0
9630,74.0,5,120,11.0,64.0
9631,71.0,120,120,3.0,64.0
9632,71.0,0,120,2.0,64.0
9633,86.0,0,120,0.0,64.0
9634,74.0,0,120,2.0,64.0
9635,74.0,0,120,0.0,64.0
9636,72.0,0,600,2.0,64.0
9637,51.0,0,120,13.0,64.0
9638,62.0,0,1350,7.0,64.0
9639,75.0,0,600,11.0,64.0
9640,87.0,0,600,11.0,64.0
9641,43.0,0,1320,15.0,64.0
9642,60.0,0,960,7.0,64.0
9643,55.0,0,1320,7.0,64.0
9644,43.0,0,1320,14.0,64.0
9645,55.0,0,1320,5.0,64.0
9646,67.0,0,120,12.0,64.0
9647,67.0,0,1320,5.0,64.0
9648,72.0,0,600,3.0,64.0
9649,87.0,0,600,0.0,64.0
9650,75.0,0,600,0.0,64.0
9651,67.0,0,1320,6.0,64.0
9652,51.0,120,120,3.0,64.0
9653,75.0,125,600,2.0,64.0
9654,51.0,0,120,4.0,64.0
9655,43.0,0,1320,8.0,64.0
9656,68.0,0,120,12.0,64.0
9657,53.0,0,120,13.0,64.0
9658,53.0,0,120,4.0,64.0
9659,53.0,120,120,3.0,64.0
9660,51.0,0,120,13.0,64.0
9661,51.0,0,120,3.0,64.0
9662,67.0,0,120,12.0,64.0
9663,51.0,115,120,4.0,64.0
9664,50.0,0,120,3.0,64.0
9665,50.0,115,120,4.0,64.0
9666,65.0,0,120,12.0,64.0
9667,50.0,5,120,13.0,64.0
9668,51.0,0,360,4.0,64.0
9669,67.0,0,360,12.0,64.0
9670,51.0,0,360,13.0,64.0
9671,51.0,0,360,3.0,64.0
9672,74.0,0,120,3.0,64.0
9673,89.0,0,120,11.0,64.0
9674,77.0,0,120,11.0,64.0
9675,74.0,0,120,2.0,64.0
9676,77.0,120,120,0.0,64.0
9677,89.0,0,120,0.0,64.0
9678,77.0,0,120,2.0,64.0
9679,72.0,115,120,2.0,64.0
9680,87.0,0,120,11.0,64.0
9681,75.0,0,120,11.0,64.0
9682,87.0,0,120,0.0,64.0
9683,72.0,0,120,3.0,64.0
9684,75.0,0,120,2.0,64.0
9685,75.0,0,120,0.0,64.0
9686,71.0,0,120,3.0,64.0
9687,68.0,0,120,12.0,64.0
9688,74.0,0,120,0.0,64.0
9689,74.0,0,120,11.0,64.0
9690,86.0,5,120,11.0,64.0
9691,53.0,120,120,4.0,64.0
9692,53.0,0,120,13.0,64.0
9693,53.0,0,120,3.0,64.0
9694,74.0,0,120,2.0,64.0
9695,71.0,0,120,2.0,64.0
9696,86.0,0,120,0.0,64.0
9697,72.0,0,120,2.0,64.0
9698,55.0,0,120,13.0,64.0
9699,75.0,0,120,0.0,64.0
9700,67.0,0,120,12.0,64.0
9701,75.0,0,120,2.0,64.0
9702,55.0,0,120,3.0,64.0
9703,55.0,0,120,4.0,64.0
9704,75.0,0,120,11.0,64.0
9705,87.0,120,120,0.0,64.0
9706,59.0,75,390,7.0,64.0
9707,87.0,0,120,11.0,64.0
9708,72.0,0,120,3.0,64.0
9709,77.0,0,120,11.0,64.0
9710,77.0,0,120,0.0,64.0
9711,89.0,0,120,11.0,64.0
9712,53.0,0,120,3.0,64.0
9713,89.0,0,120,0.0,64.0
9714,53.0,0,120,13.0,64.0
9715,74.0,0,120,2.0,64.0
9716,68.0,0,120,12.0,64.0
9717,77.0,120,120,2.0,64.0
9718,53.0,0,120,4.0,64.0
9719,74.0,0,120,3.0,64.0
9720,87.0,0,120,0.0,64.0
9721,75.0,0,120,0.0,64.0
9722,67.0,0,120,12.0,64.0
9723,72.0,0,120,3.0,64.0
9724,55.0,0,120,4.0,64.0
9725,72.0,0,120,2.0,64.0
9726,55.0,40,120,13.0,64.0
9727,55.0,0,120,3.0,64.0
9728,75.0,0,120,11.0,64.0
9729,87.0,0,120,11.0,64.0
9730,75.0,0,120,2.0,64.0
9731,56.0,0,120,13.0,64.0
9732,56.0,0,120,3.0,64.0
9733,74.0,0,120,0.0,64.0
9734,56.0,0,120,4.0,64.0
9735,71.0,0,120,3.0,64.0
9736,74.0,0,120,2.0,64.0
9737,65.0,0,120,12.0,64.0
9738,86.0,0,120,0.0,64.0
9739,71.0,120,120,2.0,64.0
9740,86.0,5,120,11.0,64.0
9741,74.0,0,120,11.0,64.0
9742,72.0,0,600,3.0,64.0
9743,60.0,5,600,3.0,64.0
9744,36.0,0,1320,8.0,64.0
9745,48.0,0,1320,5.0,64.0
9746,60.0,0,600,4.0,64.0
9747,60.0,40,1320,5.0,64.0
9748,63.0,0,120,12.0,64.0
9749,60.0,0,1320,7.0,64.0
9750,36.0,0,1320,15.0,64.0
9751,36.0,0,1320,14.0,64.0
9752,72.0,0,120,11.0,64.0
9753,84.0,0,120,11.0,64.0
9754,84.0,120,120,0.0,64.0
9755,63.0,0,1320,7.0,64.0
9756,60.0,0,1320,6.0,64.0
9757,72.0,0,120,2.0,64.0
9758,72.0,0,120,0.0,64.0
9759,55.0,0,600,13.0,64.0
9760,55.0,0,1320,7.0,64.0
9761,65.0,0,120,12.0,64.0
9762,74.0,0,120,11.0,64.0
9763,74.0,0,120,2.0,64.0
9764,86.0,0,120,11.0,64.0
9765,74.0,0,120,0.0,64.0
9766,86.0,120,120,0.0,64.0
9767,72.0,0,120,11.0,64.0
9768,63.0,0,120,12.0,64.0
9769,72.0,0,120,2.0,64.0
9770,84.0,0,120,0.0,64.0
9771,72.0,0,120,0.0,64.0
9772,84.0,115,120,11.0,64.0
9773,71.0,0,120,2.0,64.0
9774,62.0,5,120,12.0,64.0
9775,71.0,0,120,0.0,64.0
9776,71.0,0,120,11.0,64.0
9777,83.0,0,120,11.0,64.0
9778,83.0,0,120,0.0,64.0
9779,84.0,0,120,0.0,64.0
9780,72.0,0,120,0.0,64.0
9781,63.0,0,120,12.0,64.0
9782,72.0,0,120,11.0,64.0
9783,84.0,0,120,11.0,64.0
9784,72.0,0,120,2.0,64.0
9785,83.0,0,120,0.0,64.0
9786,62.0,0,120,12.0,64.0
9787,71.0,0,120,0.0,64.0
9788,83.0,0,120,11.0,64.0
9789,71.0,0,120,11.0,64.0
9790,53.0,0,120,13.0,64.0
9791,56.0,0,120,3.0,64.0
9792,68.0,0,120,3.0,64.0
9793,71.0,0,120,2.0,64.0
9794,56.0,0,120,4.0,64.0
9795,68.0,115,120,2.0,64.0
9796,51.0,0,120,13.0,64.0
9797,55.0,0,120,4.0,64.0
9798,67.0,0,120,3.0,64.0
9799,84.0,0,120,0.0,64.0
9800,84.0,0,120,11.0,64.0
9801,72.0,0,120,11.0,64.0
9802,55.0,0,120,3.0,64.0
9803,72.0,0,120,0.0,64.0
9804,63.0,0,120,12.0,64.0
9805,72.0,0,120,2.0,64.0
9806,74.0,0,120,0.0,64.0
9807,65.0,0,120,12.0,64.0
9808,53.0,0,120,3.0,64.0
9809,74.0,0,120,2.0,64.0
9810,86.0,0,120,11.0,64.0
9811,74.0,0,120,11.0,64.0
9812,50.0,5,120,13.0,64.0
9813,86.0,0,120,0.0,64.0
9814,65.0,0,120,3.0,64.0
9815,53.0,360,120,4.0,64.0
9816,71.0,0,120,2.0,64.0
9817,63.0,0,390,3.0,64.0
9818,75.0,0,390,2.0,64.0
9819,87.0,0,390,0.0,64.0
9820,60.0,0,390,3.0,64.0
9821,72.0,560,390,2.0,64.0
9822,48.0,0,390,13.0,64.0
9823,75.0,0,390,0.0,64.0
9824,60.0,0,390,4.0,64.0
9825,67.0,0,390,12.0,64.0
9826,75.0,0,390,11.0,64.0
9827,87.0,0,390,11.0,64.0
9828,55.0,0,840,3.0,64.0
9829,67.0,120,840,3.0,64.0
9830,63.0,235,240,13.0,64.0
9831,59.0,125,240,13.0,64.0
9832,59.0,400,240,13.0,64.0
9833,63.0,0,390,3.0,64.0
9834,51.0,560,390,3.0,64.0
9835,60.0,0,390,13.0,64.0
9836,65.0,0,840,3.0,64.0
9837,53.0,120,840,3.0,64.0
9838,68.0,235,240,13.0,64.0
9839,62.0,125,240,13.0,64.0
9840,62.0,400,240,13.0,64.0
9841,67.0,0,390,3.0,64.0
9842,64.0,0,390,13.0,64.0
9843,55.0,560,390,3.0,64.0
9844,56.0,120,840,3.0,64.0
9845,68.0,0,840,3.0,64.0
9846,65.0,235,240,13.0,64.0
9847,60.0,125,240,13.0,64.0
9848,60.0,400,240,13.0,64.0
9849,65.0,0,390,3.0,64.0
9850,62.0,560,390,13.0,64.0
9851,53.0,0,390,3.0,64.0
9852,67.0,240,720,3.0,64.0
9853,55.0,0,720,3.0,64.0
9854,63.0,235,240,13.0,64.0
9855,59.0,5,240,13.0,64.0
9856,59.0,120,240,13.0,64.0
9857,53.0,0,240,3.0,64.0
9858,65.0,0,240,3.0,64.0
9859,63.0,0,120,3.0,64.0
9860,60.0,125,600,13.0,64.0
9861,51.0,120,120,3.0,64.0
9862,55.0,0,120,3.0,64.0
9863,67.0,120,120,3.0,64.0
9864,53.0,120,120,3.0,64.0
9865,65.0,0,120,3.0,64.0
9866,63.0,0,120,3.0,64.0
9867,51.0,115,120,3.0,64.0
9868,62.0,125,600,3.0,64.0
9869,50.0,0,600,3.0,64.0
9870,60.0,120,120,13.0,64.0
9871,58.0,115,120,13.0,64.0
9872,57.0,120,120,13.0,64.0
9873,58.0,120,600,13.0,64.0
9874,62.0,0,120,3.0,64.0
9875,50.0,120,120,3.0,64.0
9876,52.0,120,120,3.0,64.0
9877,64.0,0,120,3.0,64.0
9878,54.0,0,120,3.0,64.0
9879,66.0,115,120,3.0,64.0
9880,55.0,5,240,3.0,64.0
9881,67.0,75,390,2.0,64.0
9882,67.0,0,390,11.0,64.0
9883,67.0,0,390,0.0,64.0
9884,58.0,120,120,13.0,64.0
9885,57.0,40,120,13.0,64.0
9886,67.0,0,150,3.0,64.0
9887,55.0,0,120,13.0,64.0
9888,74.0,0,840,2.0,64.0
9889,54.0,120,120,13.0,64.0
9890,74.0,0,840,0.0,64.0
9891,74.0,0,840,3.0,64.0
9892,74.0,0,840,11.0,64.0
9893,66.0,0,120,3.0,64.0
9894,50.0,120,120,13.0,64.0
9895,62.0,0,120,3.0,64.0
9896,70.0,0,240,2.0,64.0
9897,55.0,120,120,13.0,64.0
9898,67.0,0,120,3.0,64.0
9899,70.0,115,240,0.0,64.0
9900,60.0,0,120,3.0,64.0
9901,48.0,0,120,13.0,64.0
9902,50.0,5,120,13.0,64.0
9903,62.0,115,120,3.0,64.0
9904,66.0,0,240,2.0,64.0
9905,66.0,5,240,0.0,64.0
9906,62.0,120,120,13.0,64.0
9907,62.0,0,120,3.0,64.0
9908,66.0,120,240,0.0,64.0
9909,60.0,115,120,13.0,64.0
9910,66.0,0,240,2.0,64.0
9911,60.0,0,120,3.0,64.0
9912,62.0,0,120,3.0,64.0
9913,62.0,5,120,13.0,64.0
9914,70.0,0,390,11.0,64.0
9915,70.0,75,390,3.0,64.0
9916,55.0,120,120,3.0,64.0
9917,67.0,0,390,2.0,64.0
9918,55.0,0,120,13.0,64.0
9919,70.0,0,390,0.0,64.0
9920,70.0,0,390,2.0,64.0
9921,67.0,0,390,0.0,64.0
9922,67.0,0,120,3.0,64.0
9923,67.0,120,120,13.0,64.0
9924,65.0,0,120,3.0,64.0
9925,65.0,40,120,13.0,64.0
9926,67.0,125,120,13.0,64.0
9927,67.0,0,120,3.0,64.0
9928,63.0,120,120,3.0,64.0
9929,72.0,0,840,0.0,64.0
9930,72.0,0,840,3.0,64.0
9931,63.0,0,120,13.0,64.0
9932,72.0,0,840,11.0,64.0
9933,72.0,115,840,2.0,64.0
9934,67.0,0,120,13.0,64.0
9935,67.0,120,120,3.0,64.0
9936,63.0,0,120,13.0,64.0
9937,63.0,115,120,3.0,64.0
9938,75.0,0,240,2.0,64.0
9939,75.0,120,240,0.0,64.0
9940,67.0,5,120,13.0,64.0
9941,67.0,0,120,3.0,64.0
9942,63.0,115,120,3.0,64.0
9943,69.0,5,240,2.0,64.0
9944,63.0,0,120,13.0,64.0
9945,69.0,0,240,0.0,64.0
9946,65.0,120,120,13.0,64.0
9947,65.0,0,120,3.0,64.0
9948,69.0,0,240,2.0,64.0
9949,63.0,0,120,13.0,64.0
9950,63.0,0,120,3.0,64.0
9951,69.0,0,240,0.0,64.0
9952,65.0,120,120,3.0,64.0
9953,65.0,5,120,13.0,64.0
9954,62.0,0,120,13.0,64.0
9955,74.0,0,390,3.0,64.0
9956,74.0,0,390,0.0,64.0
9957,74.0,0,390,2.0,64.0
9958,62.0,120,120,3.0,64.0
9959,71.0,75,390,0.0,64.0
9960,71.0,0,390,2.0,64.0
9961,74.0,0,390,11.0,64.0
9962,65.0,120,120,13.0,64.0
9963,65.0,0,120,3.0,64.0
9964,62.0,0,120,3.0,64.0
9965,62.0,40,120,13.0,64.0
9966,65.0,125,120,13.0,64.0
9967,65.0,0,120,3.0,64.0
9968,60.0,120,120,13.0,64.0
9969,75.0,0,840,11.0,64.0
9970,60.0,0,120,3.0,64.0
9971,75.0,0,840,2.0,64.0
9972,75.0,0,840,0.0,64.0
9973,75.0,0,840,3.0,64.0
9974,63.0,0,120,3.0,64.0
9975,63.0,120,120,13.0,64.0
9976,72.0,120,240,0.0,64.0
9977,62.0,0,120,3.0,64.0
9978,72.0,0,240,2.0,64.0
9979,62.0,115,120,13.0,64.0
9980,65.0,0,120,3.0,64.0
9981,65.0,5,120,13.0,64.0
9982,63.0,0,120,3.0,64.0
9983,67.0,0,240,0.0,64.0
9984,67.0,5,240,2.0,64.0
9985,63.0,115,120,13.0,64.0
9986,65.0,0,120,3.0,64.0
9987,65.0,120,120,13.0,64.0
9988,63.0,0,120,3.0,64.0
9989,63.0,115,120,13.0,64.0
9990,67.0,0,240,0.0,64.0
9991,67.0,120,240,2.0,64.0
9992,65.0,0,120,3.0,64.0
9993,65.0,5,120,13.0,64.0
9994,63.0,120,120,3.0,64.0
9995,69.0,0,390,2.0,64.0
9996,72.0,0,390,0.0,64.0
9997,69.0,0,390,0.0,64.0
9998,72.0,0,390,11.0,64.0
9999,72.0,75,390,3.0,64.0
10000,63.0,0,120,13.0,64.0
10001,72.0,0,390,2.0,64.0
10002,65.0,120,120,13.0,64.0
10003,65.0,0,120,3.0,64.0
10004,63.0,0,120,3.0,64.0
10005,63.0,40,120,13.0,64.0
10006,65.0,0,120,13.0,64.0
10007,65.0,125,120,3.0,64.0
10008,62.0,0,120,13.0,64.0
10009,74.0,0,840,0.0,64.0
10010,74.0,0,840,3.0,64.0
10011,62.0,120,120,3.0,64.0
10012,74.0,0,840,11.0,64.0
10013,74.0,115,840,2.0,64.0
10014,63.0,120,120,3.0,64.0
10015,63.0,0,120,13.0,64.0
10016,70.0,0,240,2.0,64.0
10017,70.0,0,240,0.0,64.0
10018,62.0,0,120,13.0,64.0
10019,62.0,115,120,3.0,64.0
10020,63.0,5,120,13.0,64.0
10021,63.0,120,120,3.0,64.0
10022,62.0,115,120,3.0,64.0
10023,66.0,0,240,2.0,64.0
10024,66.0,5,240,0.0,64.0
10025,62.0,0,120,13.0,64.0
10026,63.0,120,120,13.0,64.0
10027,63.0,0,120,3.0,64.0
10028,66.0,0,240,2.0,64.0
10029,60.0,0,120,3.0,64.0
10030,66.0,235,240,0.0,64.0
10031,60.0,0,120,13.0,64.0
10032,62.0,0,120,13.0,64.0
10033,62.0,5,120,3.0,64.0
10034,59.0,5,240,13.0,64.0
10035,67.0,75,390,2.0,64.0
10036,67.0,0,390,0.0,64.0
10037,79.0,120,120,3.0,64.0
10038,79.0,0,120,11.0,64.0
10039,77.0,0,120,11.0,64.0
10040,77.0,40,120,3.0,64.0
10041,59.0,5,240,13.0,64.0
10042,79.0,0,120,11.0,64.0
10043,79.0,240,120,3.0,64.0
10044,75.0,0,390,3.0,64.0
10045,75.0,80,390,11.0,64.0
10046,72.0,0,120,3.0,64.0
10047,60.0,120,15,13.0,64.0
10048,70.0,40,120,3.0,64.0
10049,72.0,240,120,3.0,64.0
10050,53.0,120,240,13.0,64.0
10051,68.0,75,390,3.0,64.0
10052,74.0,0,120,11.0,64.0
10053,74.0,0,120,3.0,64.0
10054,72.0,0,120,11.0,64.0
10055,72.0,40,120,3.0,64.0
10056,53.0,0,240,13.0,64.0
10057,74.0,240,120,3.0,64.0
10058,74.0,5,120,11.0,64.0
10059,55.0,0,240,13.0,64.0
10060,71.0,80,390,3.0,64.0
10061,71.0,0,390,11.0,64.0
10062,67.0,120,120,3.0,64.0
10063,65.0,40,120,3.0,64.0
10064,55.0,240,240,13.0,64.0
10065,67.0,0,120,3.0,64.0
10066,63.0,75,390,3.0,64.0
10067,56.0,120,240,13.0,64.0
10068,72.0,0,120,11.0,64.0
10069,72.0,0,120,3.0,64.0
10070,70.0,40,120,3.0,64.0
10071,55.0,5,240,13.0,64.0
10072,70.0,0,120,11.0,64.0
10073,72.0,0,120,11.0,64.0
10074,72.0,120,120,3.0,64.0
10075,68.0,120,120,3.0,64.0
10076,68.0,0,120,11.0,64.0
10077,53.0,0,720,13.0,64.0
10078,65.0,120,240,3.0,64.0
10079,72.0,0,120,11.0,64.0
10080,72.0,0,120,3.0,64.0
10081,70.0,115,120,11.0,64.0
10082,60.0,115,240,3.0,64.0
10083,70.0,0,120,3.0,64.0
10084,72.0,0,120,3.0,64.0
10085,72.0,5,120,11.0,64.0
10086,65.0,120,120,11.0,64.0
10087,65.0,5,120,3.0,64.0
10088,62.0,5,720,3.0,64.0
10089,77.0,0,120,3.0,64.0
10090,77.0,120,120,11.0,64.0
10091,75.0,115,120,11.0,64.0
10092,75.0,0,120,3.0,64.0
10093,56.0,0,240,13.0,64.0
10094,77.0,120,120,3.0,64.0
10095,77.0,5,120,11.0,64.0
10096,71.0,0,120,3.0,64.0
10097,71.0,115,120,11.0,64.0
10098,55.0,80,630,13.0,64.0
10099,74.0,0,120,3.0,64.0
10100,74.0,120,120,11.0,64.0
10101,72.0,0,120,3.0,64.0
10102,57.0,120,240,3.0,64.0
10103,72.0,115,120,11.0,64.0
10104,74.0,0,120,3.0,64.0
10105,74.0,5,120,11.0,64.0
10106,67.0,40,120,3.0,64.0
10107,59.0,75,390,3.0,64.0
10108,67.0,0,120,11.0,64.0
10109,79.0,120,120,11.0,64.0
10110,79.0,0,120,3.0,64.0
10111,77.0,0,120,3.0,64.0
10112,77.0,40,120,11.0,64.0
10113,55.0,0,480,13.0,64.0
10114,79.0,0,120,11.0,64.0
10115,79.0,125,120,3.0,64.0
10116,36.0,0,390,15.0,64.0
10117,75.0,0,390,3.0,64.0
10118,75.0,0,390,11.0,64.0
10119,36.0,75,390,8.0,64.0
10120,60.0,120,120,3.0,64.0
10121,48.0,0,390,4.0,64.0
10122,48.0,0,390,14.0,64.0
10123,65.0,120,120,3.0,64.0
10124,63.0,40,120,3.0,64.0
10125,60.0,5,240,13.0,64.0
10126,65.0,120,120,3.0,64.0
10127,59.0,120,120,13.0,64.0
10128,55.0,0,840,4.0,64.0
10129,43.0,0,840,15.0,64.0
10130,43.0,120,840,8.0,64.0
10131,55.0,0,840,14.0,64.0
10132,67.0,75,390,3.0,64.0
10133,62.0,120,120,13.0,64.0
10134,87.0,0,240,0.0,64.0
10135,60.0,40,120,13.0,64.0
10136,75.0,0,240,0.0,64.0
10137,75.0,0,240,2.0,64.0
10138,75.0,0,240,11.0,64.0
10139,75.0,0,240,3.0,64.0
10140,63.0,5,120,13.0,64.0
10141,71.0,5,240,3.0,64.0
10142,83.0,0,240,0.0,64.0
10143,62.0,120,240,13.0,64.0
10144,71.0,0,240,0.0,64.0
10145,71.0,0,240,2.0,64.0
10146,71.0,0,240,11.0,64.0
10147,67.0,0,120,3.0,64.0
10148,65.0,0,120,3.0,64.0
10149,71.0,0,240,11.0,64.0
10150,71.0,0,240,0.0,64.0
10151,55.0,5,480,13.0,64.0
10152,83.0,120,240,0.0,64.0
10153,71.0,0,240,2.0,64.0
10154,71.0,0,240,3.0,64.0
10155,67.0,0,120,3.0,64.0
10156,39.0,80,390,15.0,64.0
10157,51.0,0,390,4.0,64.0
10158,72.0,0,390,0.0,64.0
10159,72.0,0,390,11.0,64.0
10160,60.0,115,120,3.0,64.0
10161,72.0,0,390,2.0,64.0
10162,39.0,0,390,8.0,64.0
10163,84.0,0,390,0.0,64.0
10164,51.0,0,390,14.0,64.0
10165,72.0,120,120,3.0,64.0
10166,60.0,80,630,13.0,64.0
10167,70.0,40,120,3.0,64.0
10168,72.0,0,30,3.0,64.0
10169,41.0,0,840,15.0,64.0
10170,53.0,0,840,4.0,64.0
10171,41.0,0,840,8.0,64.0
10172,68.0,120,120,3.0,64.0
10173,53.0,40,840,14.0,64.0
10174,72.0,120,120,3.0,64.0
10175,92.0,0,240,0.0,64.0
10176,68.0,40,120,3.0,64.0
10177,80.0,0,240,3.0,64.0
10178,80.0,0,240,11.0,64.0
10179,80.0,0,240,0.0,64.0
10180,80.0,0,240,2.0,64.0
10181,72.0,0,120,3.0,64.0
10182,74.0,0,240,0.0,64.0
10183,68.0,115,120,3.0,64.0
10184,86.0,0,240,0.0,64.0
10185,74.0,5,240,11.0,64.0
10186,74.0,0,240,2.0,64.0
10187,65.0,75,390,13.0,64.0
10188,74.0,0,240,3.0,64.0
10189,70.0,120,120,3.0,64.0
10190,74.0,120,240,0.0,64.0
10191,74.0,0,240,3.0,64.0
10192,74.0,0,240,11.0,64.0
10193,86.0,0,240,0.0,64.0
10194,74.0,5,240,2.0,64.0
10195,68.0,0,120,3.0,64.0
10196,70.0,0,120,3.0,64.0
10197,43.0,0,390,8.0,64.0
10198,76.0,0,390,11.0,64.0
10199,58.0,75,390,13.0,64.0
10200,76.0,0,390,3.0,64.0
10201,88.0,0,390,0.0,64.0
10202,67.0,120,120,3.0,64.0
10203,76.0,0,390,0.0,64.0
10204,76.0,0,390,2.0,64.0
10205,55.0,0,390,4.0,64.0
10206,55.0,0,390,14.0,64.0
10207,43.0,0,390,15.0,64.0
10208,70.0,120,120,3.0,64.0
10209,67.0,40,120,3.0,64.0
10210,70.0,125,120,3.0,64.0
10211,44.0,0,840,8.0,64.0
10212,56.0,0,840,14.0,64.0
10213,65.0,120,120,3.0,64.0
10214,60.0,80,390,13.0,64.0
10215,44.0,0,840,15.0,64.0
10216,56.0,0,840,4.0,64.0
10217,68.0,120,120,3.0,64.0
10218,89.0,0,240,0.0,64.0
10219,77.0,120,240,3.0,64.0
10220,67.0,40,120,3.0,64.0
10221,77.0,0,240,0.0,64.0
10222,77.0,0,240,2.0,64.0
10223,77.0,0,240,11.0,64.0
10224,70.0,0,120,3.0,64.0
10225,72.0,0,240,11.0,64.0
10226,72.0,0,240,0.0,64.0
10227,84.0,5,240,0.0,64.0
10228,68.0,115,120,3.0,64.0
10229,72.0,0,240,2.0,64.0
10230,65.0,0,240,13.0,64.0
10231,72.0,0,240,3.0,64.0
10232,70.0,120,120,3.0,64.0
10233,72.0,0,240,3.0,64.0
10234,68.0,115,120,3.0,64.0
10235,84.0,0,240,0.0,64.0
10236,63.0,5,240,13.0,64.0
10237,72.0,120,240,0.0,64.0
10238,72.0,0,240,2.0,64.0
10239,72.0,0,240,11.0,64.0
10240,70.0,0,120,3.0,64.0
10241,74.0,0,390,3.0,64.0
10242,62.0,120,240,13.0,64.0
10243,68.0,120,120,3.0,64.0
10244,74.0,0,390,11.0,64.0
10245,41.0,0,390,8.0,64.0
10246,53.0,0,390,4.0,64.0
10247,53.0,0,390,14.0,64.0
10248,86.0,0,390,0.0,64.0
10249,74.0,0,390,2.0,64.0
10250,74.0,0,390,0.0,64.0
10251,41.0,75,390,15.0,64.0
10252,70.0,0,120,3.0,64.0
10253,60.0,5,240,13.0,64.0
10254,68.0,40,120,3.0,64.0
10255,70.0,120,120,3.0,64.0
10256,55.0,0,720,4.0,64.0
10257,67.0,120,120,3.0,64.0
10258,59.0,0,240,13.0,64.0
10259,55.0,75,630,14.0,64.0
10260,43.0,0,720,8.0,64.0
10261,43.0,0,630,15.0,64.0
10262,68.0,120,120,3.0,64.0
10263,75.0,0,240,0.0,64.0
10264,60.0,5,240,13.0,64.0
10265,67.0,115,120,3.0,64.0
10266,75.0,0,240,11.0,64.0
10267,87.0,0,240,0.0,64.0
10268,75.0,0,240,2.0,64.0
10269,75.0,0,240,3.0,64.0
10270,68.0,0,120,3.0,64.0
10271,67.0,40,120,3.0,64.0
10272,71.0,5,240,3.0,64.0
10273,71.0,0,240,0.0,64.0
10274,71.0,0,240,11.0,64.0
10275,62.0,75,390,13.0,64.0
10276,83.0,0,240,0.0,64.0
10277,71.0,0,240,2.0,64.0
10278,68.0,120,120,3.0,64.0
10279,71.0,0,240,11.0,64.0
10280,71.0,0,240,3.0,64.0
10281,50.0,0,240,4.0,64.0
10282,50.0,0,240,14.0,64.0
10283,83.0,0,240,0.0,64.0
10284,65.0,40,120,3.0,64.0
10285,38.0,0,240,8.0,64.0
10286,71.0,0,240,2.0,64.0
10287,71.0,120,240,0.0,64.0
10288,38.0,0,240,15.0,64.0
10289,67.0,0,120,3.0,64.0
10290,51.0,0,240,14.0,64.0
10291,55.0,75,870,13.0,64.0
10292,39.0,0,240,15.0,64.0
10293,51.0,120,240,4.0,64.0
10294,79.0,0,120,3.0,64.0
10295,79.0,120,120,11.0,64.0
10296,75.0,0,120,2.0,64.0
10297,79.0,0,120,0.0,64.0
10298,39.0,0,240,8.0,64.0
10299,63.0,0,120,3.0,64.0
10300,79.0,0,120,2.0,64.0
10301,80.0,0,120,11.0,64.0
10302,80.0,0,120,2.0,64.0
10303,65.0,0,120,3.0,64.0
10304,80.0,0,120,0.0,64.0
10305,80.0,0,120,3.0,64.0
10306,47.0,0,240,4.0,64.0
10307,47.0,0,240,14.0,64.0
10308,77.0,0,15,2.0,64.0
10309,74.0,0,120,2.0,64.0
10310,77.0,0,120,3.0,64.0
10311,77.0,115,120,11.0,64.0
10312,35.0,5,240,15.0,64.0
10313,62.0,0,120,3.0,64.0
10314,77.0,0,120,0.0,64.0
10315,35.0,0,240,8.0,64.0
10316,79.0,0,120,3.0,64.0
10317,63.0,0,120,3.0,64.0
10318,79.0,0,120,0.0,64.0
10319,79.0,0,120,2.0,64.0
10320,79.0,0,120,11.0,64.0
10321,48.0,0,630,14.0,64.0
10322,36.0,80,630,8.0,64.0
10323,60.0,0,120,3.0,64.0
10324,75.0,120,120,3.0,64.0
10325,75.0,0,120,11.0,64.0
10326,48.0,0,630,4.0,64.0
10327,75.0,120,15,2.0,64.0
10328,72.0,0,120,2.0,64.0
10329,75.0,0,120,0.0,64.0
10330,36.0,0,630,15.0,64.0
10331,67.0,0,120,3.0,64.0
10332,79.0,0,120,2.0,64.0
10333,77.0,0,120,11.0,64.0
10334,77.0,120,120,3.0,64.0
10335,77.0,0,120,0.0,64.0
10336,74.0,0,120,11.0,64.0
10337,77.0,0,15,2.0,64.0
10338,74.0,40,120,2.0,64.0
10339,74.0,0,120,0.0,64.0
10340,65.0,0,120,3.0,64.0
10341,74.0,0,120,3.0,64.0
10342,67.0,0,120,3.0,64.0
10343,75.0,0,120,11.0,64.0
10344,75.0,0,120,2.0,64.0
10345,75.0,5,120,0.0,64.0
10346,79.0,0,120,2.0,64.0
10347,75.0,0,120,3.0,64.0
10348,72.0,0,120,2.0,64.0
10349,75.0,40,120,2.0,64.0
10350,72.0,0,120,11.0,64.0
10351,63.0,0,120,3.0,64.0
10352,72.0,0,120,3.0,64.0
10353,72.0,0,120,0.0,64.0
10354,84.0,0,120,0.0,64.0
10355,65.0,0,120,3.0,64.0
10356,74.0,0,120,0.0,64.0
10357,74.0,0,120,2.0,64.0
10358,74.0,0,120,11.0,64.0
10359,86.0,115,120,0.0,64.0
10360,74.0,0,120,3.0,64.0
10361,77.0,0,120,2.0,64.0
10362,70.0,0,120,2.0,64.0
10363,70.0,0,120,0.0,64.0
10364,70.0,5,120,11.0,64.0
10365,50.0,120,240,4.0,64.0
10366,74.0,0,120,2.0,64.0
10367,70.0,0,120,3.0,64.0
10368,82.0,115,120,0.0,64.0
10369,50.0,5,240,14.0,64.0
10370,62.0,0,120,3.0,64.0
10371,38.0,0,240,8.0,64.0
10372,38.0,0,240,15.0,64.0
10373,72.0,0,120,0.0,64.0
10374,72.0,0,120,2.0,64.0
10375,63.0,0,120,3.0,64.0
10376,84.0,0,120,0.0,64.0
10377,75.0,0,120,2.0,64.0
10378,72.0,0,120,11.0,64.0
10379,72.0,0,120,3.0,64.0
10380,72.0,0,120,2.0,64.0
10381,69.0,0,120,3.0,64.0
10382,55.0,75,390,13.0,64.0
10383,81.0,0,120,0.0,64.0
10384,39.0,0,240,8.0,64.0
10385,60.0,0,120,3.0,64.0
10386,69.0,0,120,2.0,64.0
10387,51.0,0,240,14.0,64.0
10388,51.0,0,240,4.0,64.0
10389,69.0,0,120,11.0,64.0
10390,69.0,120,120,0.0,64.0
10391,39.0,0,240,15.0,64.0
10392,62.0,0,120,3.0,64.0
10393,70.0,0,120,11.0,64.0
10394,74.0,120,120,2.0,64.0
10395,82.0,0,120,0.0,64.0
10396,70.0,0,120,3.0,64.0
10397,70.0,0,120,0.0,64.0
10398,67.0,0,120,3.0,64.0
10399,36.0,0,240,8.0,64.0
10400,70.0,0,15,2.0,64.0
10401,48.0,5,240,14.0,64.0
10402,67.0,0,120,11.0,64.0
10403,36.0,0,240,15.0,64.0
10404,79.0,0,120,0.0,64.0
10405,58.0,0,120,3.0,64.0
10406,48.0,120,240,4.0,64.0
10407,67.0,0,120,2.0,64.0
10408,67.0,0,120,0.0,64.0
10409,69.0,0,120,11.0,64.0
10410,69.0,0,120,3.0,64.0
10411,69.0,0,120,2.0,64.0
10412,69.0,0,120,0.0,64.0
10413,81.0,0,120,0.0,64.0
10414,60.0,0,120,3.0,64.0
10415,72.0,0,120,2.0,64.0
10416,57.0,120,240,3.0,64.0
10417,66.0,0,120,2.0,64.0
10418,78.0,120,120,0.0,64.0
10419,66.0,0,120,0.0,64.0
10420,66.0,0,120,11.0,64.0
10421,66.0,0,120,3.0,64.0
10422,50.0,0,240,14.0,64.0
10423,38.0,0,240,15.0,64.0
10424,38.0,0,240,8.0,64.0
10425,50.0,0,240,4.0,64.0
10426,62.0,0,840,13.0,64.0
10427,69.0,0,120,11.0,64.0
10428,69.0,0,120,0.0,64.0
10429,69.0,0,120,2.0,64.0
10430,69.0,0,120,3.0,64.0
10431,81.0,0,120,0.0,64.0
10432,67.0,0,120,3.0,64.0
10433,34.0,0,240,8.0,64.0
10434,46.0,0,240,4.0,64.0
10435,67.0,0,120,0.0,64.0
10436,46.0,5,240,14.0,64.0
10437,34.0,0,240,15.0,64.0
10438,79.0,0,120,0.0,64.0
10439,67.0,115,120,2.0,64.0
10440,67.0,0,120,11.0,64.0
10441,58.0,0,240,3.0,64.0
10442,82.0,0,120,0.0,64.0
10443,70.0,0,120,11.0,64.0
10444,70.0,0,120,0.0,64.0
10445,70.0,0,120,3.0,64.0
10446,70.0,0,120,2.0,64.0
10447,30.0,75,390,8.0,64.0
10448,42.0,0,390,4.0,64.0
10449,72.0,0,240,2.0,64.0
10450,69.0,0,120,11.0,64.0
10451,69.0,0,120,3.0,64.0
10452,69.0,120,120,0.0,64.0
10453,81.0,0,120,0.0,64.0
10454,30.0,0,390,15.0,64.0
10455,60.0,0,240,3.0,64.0
10456,42.0,0,390,14.0,64.0
10457,69.0,0,120,2.0,64.0
10458,74.0,0,120,3.0,64.0
10459,86.0,0,120,0.0,64.0
10460,74.0,0,120,2.0,64.0
10461,74.0,120,120,0.0,64.0
10462,74.0,0,120,11.0,64.0
10463,54.0,0,240,3.0,64.0
10464,66.0,0,240,2.0,64.0
10465,72.0,0,120,0.0,64.0
10466,72.0,40,120,2.0,64.0
10467,72.0,0,120,3.0,64.0
10468,84.0,0,120,0.0,64.0
10469,72.0,0,120,11.0,64.0
10470,74.0,125,120,0.0,64.0
10471,86.0,0,120,0.0,64.0
10472,74.0,0,120,2.0,64.0
10473,74.0,0,120,11.0,64.0
10474,74.0,0,120,3.0,64.0
10475,67.0,0,120,3.0,64.0
10476,58.0,0,240,3.0,64.0
10477,67.0,120,120,2.0,64.0
10478,79.0,0,120,0.0,64.0
10479,67.0,0,120,0.0,64.0
10480,43.0,0,390,14.0,64.0
10481,43.0,0,390,4.0,64.0
10482,67.0,0,120,11.0,64.0
10483,58.0,75,390,13.0,64.0
10484,70.0,0,240,2.0,64.0
10485,31.0,0,390,8.0,64.0
10486,31.0,0,390,15.0,64.0
10487,79.0,0,120,11.0,64.0
10488,79.0,0,120,3.0,64.0
10489,79.0,0,120,2.0,64.0
10490,91.0,0,120,0.0,64.0
10491,79.0,120,120,0.0,64.0
10492,77.0,0,120,11.0,64.0
10493,77.0,0,120,3.0,64.0
10494,77.0,0,120,2.0,64.0
10495,89.0,0,120,0.0,64.0
10496,77.0,40,120,0.0,64.0
10497,67.0,5,240,3.0,64.0
10498,79.0,0,120,3.0,64.0
10499,79.0,0,120,2.0,64.0
10500,79.0,0,120,0.0,64.0
10501,79.0,0,120,11.0,64.0
10502,91.0,120,120,0.0,64.0
10503,75.0,0,120,3.0,64.0
10504,67.0,0,480,2.0,64.0
10505,75.0,0,120,0.0,64.0
10506,60.0,0,840,13.0,64.0
10507,67.0,120,480,3.0,64.0
10508,87.0,120,120,0.0,64.0
10509,75.0,0,120,11.0,64.0
10510,75.0,0,120,2.0,64.0
10511,91.0,0,120,0.0,64.0
10512,79.0,0,120,3.0,64.0
10513,79.0,120,120,2.0,64.0
10514,79.0,0,120,11.0,64.0
10515,79.0,0,120,0.0,64.0
10516,39.0,0,240,8.0,64.0
10517,51.0,0,240,4.0,64.0
10518,51.0,0,240,14.0,64.0
10519,87.0,0,120,0.0,64.0
10520,75.0,0,120,0.0,64.0
10521,75.0,0,120,11.0,64.0
10522,75.0,115,120,2.0,64.0
10523,75.0,0,120,3.0,64.0
10524,39.0,0,240,15.0,64.0
10525,91.0,0,120,0.0,64.0
10526,79.0,5,120,11.0,64.0
10527,79.0,0,120,2.0,64.0
10528,79.0,0,120,3.0,64.0
10529,79.0,0,120,0.0,64.0
10530,33.0,0,240,15.0,64.0
10531,75.0,0,120,0.0,64.0
10532,45.0,5,240,4.0,64.0
10533,72.0,0,480,3.0,64.0
10534,72.0,0,480,2.0,64.0
10535,75.0,115,120,2.0,64.0
10536,45.0,0,240,14.0,64.0
10537,87.0,0,120,0.0,64.0
10538,33.0,0,240,8.0,64.0
10539,75.0,0,120,11.0,64.0
10540,75.0,0,120,3.0,64.0
10541,77.0,0,120,11.0,64.0
10542,77.0,120,120,3.0,64.0
10543,77.0,0,120,0.0,64.0
10544,89.0,0,120,0.0,64.0
10545,77.0,0,120,2.0,64.0
10546,33.0,0,240,8.0,64.0
10547,33.0,0,240,15.0,64.0
10548,45.0,120,240,4.0,64.0
10549,75.0,0,120,2.0,64.0
10550,45.0,0,240,14.0,64.0
10551,75.0,0,120,11.0,64.0
10552,75.0,0,120,0.0,64.0
10553,75.0,115,120,3.0,64.0
10554,87.0,0,120,0.0,64.0
10555,77.0,0,120,11.0,64.0
10556,77.0,0,120,2.0,64.0
10557,89.0,5,120,0.0,64.0
10558,77.0,0,120,0.0,64.0
10559,77.0,0,120,3.0,64.0
10560,74.0,0,120,0.0,64.0
10561,35.0,0,390,15.0,64.0
10562,86.0,0,120,0.0,64.0
10563,67.0,0,960,3.0,64.0
10564,62.0,0,390,13.0,64.0
10565,47.0,0,390,14.0,64.0
10566,74.0,120,120,11.0,64.0
10567,67.0,0,960,2.0,64.0
10568,47.0,0,390,4.0,64.0
10569,74.0,0,120,2.0,64.0
10570,74.0,0,120,3.0,64.0
10571,35.0,75,390,8.0,64.0
10572,89.0,0,120,0.0,64.0
10573,77.0,0,120,11.0,64.0
10574,77.0,0,120,3.0,64.0
10575,77.0,120,120,0.0,64.0
10576,77.0,0,120,2.0,64.0
10577,74.0,0,120,11.0,64.0
10578,86.0,0,120,0.0,64.0
10579,74.0,0,120,2.0,64.0
10580,74.0,40,120,0.0,64.0
10581,74.0,0,120,3.0,64.0
10582,89.0,0,120,0.0,64.0
10583,77.0,5,120,11.0,64.0
10584,77.0,120,120,3.0,64.0
10585,77.0,0,120,2.0,64.0
10586,77.0,0,120,0.0,64.0
10587,72.0,0,120,11.0,64.0
10588,63.0,0,840,13.0,64.0
10589,72.0,120,120,0.0,64.0
10590,72.0,0,120,3.0,64.0
10591,72.0,0,120,2.0,64.0
10592,84.0,0,120,0.0,64.0
10593,75.0,0,120,11.0,64.0
10594,75.0,120,120,3.0,64.0
10595,87.0,0,120,0.0,64.0
10596,75.0,0,120,0.0,64.0
10597,75.0,0,120,2.0,64.0
10598,36.0,0,240,8.0,64.0
10599,36.0,120,240,15.0,64.0
10600,74.0,0,120,0.0,64.0
10601,48.0,0,240,14.0,64.0
10602,48.0,0,240,4.0,64.0
10603,74.0,0,120,3.0,64.0
10604,74.0,0,120,2.0,64.0
10605,74.0,115,120,11.0,64.0
10606,86.0,0,120,0.0,64.0
10607,77.0,0,120,2.0,64.0
10608,89.0,0,120,0.0,64.0
10609,77.0,0,120,0.0,64.0
10610,77.0,5,120,11.0,64.0
10611,77.0,0,120,3.0,64.0
10612,43.0,0,240,4.0,64.0
10613,75.0,115,120,11.0,64.0
10614,70.0,0,390,3.0,64.0
10615,43.0,5,240,14.0,64.0
10616,75.0,0,120,3.0,64.0
10617,87.0,0,120,0.0,64.0
10618,31.0,0,240,8.0,64.0
10619,75.0,0,120,0.0,64.0
10620,75.0,0,120,2.0,64.0
10621,70.0,75,390,2.0,64.0
10622,31.0,0,240,15.0,64.0
10623,77.0,0,120,2.0,64.0
10624,77.0,0,120,3.0,64.0
10625,89.0,120,120,0.0,64.0
10626,77.0,0,120,11.0,64.0
10627,77.0,0,120,0.0,64.0
10628,75.0,0,120,2.0,64.0
10629,75.0,0,120,0.0,64.0
10630,87.0,0,120,0.0,64.0
10631,75.0,0,120,3.0,64.0
10632,31.0,0,240,8.0,64.0
10633,31.0,120,240,15.0,64.0
10634,43.0,0,240,4.0,64.0
10635,43.0,0,240,14.0,64.0
10636,75.0,40,120,11.0,64.0
10637,77.0,5,120,3.0,64.0
10638,77.0,0,120,2.0,64.0
10639,77.0,0,120,0.0,64.0
10640,89.0,0,120,0.0,64.0
10641,77.0,0,120,11.0,64.0
10642,33.0,0,390,8.0,64.0
10643,45.0,0,390,4.0,64.0
10644,75.0,0,120,11.0,64.0
10645,75.0,0,120,0.0,64.0
10646,87.0,120,120,0.0,64.0
10647,65.0,5,720,2.0,64.0
10648,65.0,0,720,3.0,64.0
10649,45.0,0,390,14.0,64.0
10650,33.0,75,390,15.0,64.0
10651,60.0,0,390,13.0,64.0
10652,75.0,0,120,3.0,64.0
10653,75.0,0,120,2.0,64.0
10654,77.0,0,120,3.0,64.0
10655,89.0,0,120,0.0,64.0
10656,77.0,120,120,2.0,64.0
10657,77.0,0,120,11.0,64.0
10658,77.0,0,120,0.0,64.0
10659,87.0,0,120,0.0,64.0
10660,75.0,40,120,3.0,64.0
10661,75.0,0,120,11.0,64.0
10662,75.0,0,120,2.0,64.0
10663,75.0,0,120,0.0,64.0
10664,77.0,5,120,11.0,64.0
10665,77.0,0,120,3.0,64.0
10666,89.0,120,120,0.0,64.0
10667,77.0,0,120,0.0,64.0
10668,77.0,0,120,2.0,64.0
10669,74.0,115,120,3.0,64.0
10670,62.0,75,630,13.0,64.0
10671,74.0,0,120,11.0,64.0
10672,74.0,0,120,2.0,64.0
10673,86.0,0,120,0.0,64.0
10674,74.0,0,120,0.0,64.0
10675,75.0,0,120,0.0,64.0
10676,75.0,0,120,2.0,64.0
10677,75.0,0,120,11.0,64.0
10678,75.0,120,120,3.0,64.0
10679,87.0,0,120,0.0,64.0
10680,34.0,0,240,8.0,64.0
10681,34.0,0,240,15.0,64.0
10682,46.0,0,240,14.0,64.0
10683,86.0,0,120,0.0,64.0
10684,67.0,0,240,2.0,64.0
10685,74.0,115,120,2.0,64.0
10686,67.0,0,240,3.0,64.0
10687,74.0,0,120,0.0,64.0
10688,74.0,0,120,11.0,64.0
10689,46.0,0,240,4.0,64.0
10690,74.0,0,120,3.0,64.0
10691,75.0,0,120,0.0,64.0
10692,75.0,5,120,11.0,64.0
10693,75.0,0,120,2.0,64.0
10694,75.0,120,120,3.0,64.0
10695,87.0,0,120,0.0,64.0
10696,30.0,5,240,8.0,64.0
10697,42.0,0,240,4.0,64.0
10698,42.0,0,240,14.0,64.0
10699,69.0,75,390,3.0,64.0
10700,86.0,0,120,0.0,64.0
10701,74.0,40,120,2.0,64.0
10702,69.0,0,390,2.0,64.0
10703,30.0,0,240,15.0,64.0
10704,74.0,0,120,0.0,64.0
10705,74.0,0,120,3.0,64.0
10706,74.0,0,120,11.0,64.0
10707,75.0,0,120,0.0,64.0
10708,75.0,120,120,11.0,64.0
10709,87.0,0,120,0.0,64.0
10710,75.0,0,120,3.0,64.0
10711,75.0,0,120,2.0,64.0
10712,42.0,0,240,14.0,64.0
10713,72.0,0,120,2.0,64.0
10714,62.0,5,480,13.0,64.0
10715,72.0,40,120,0.0,64.0
10716,72.0,0,120,3.0,64.0
10717,84.0,0,120,0.0,64.0
10718,30.0,0,240,15.0,64.0
10719,72.0,0,120,11.0,64.0
10720,42.0,0,240,4.0,64.0
10721,30.0,0,240,8.0,64.0
10722,74.0,0,120,3.0,64.0
10723,74.0,125,120,0.0,64.0
10724,86.0,0,120,0.0,64.0
10725,74.0,0,120,2.0,64.0
10726,74.0,0,120,11.0,64.0
10727,82.0,0,120,0.0,64.0
10728,70.0,0,120,3.0,64.0
10729,43.0,120,240,14.0,64.0
10730,43.0,0,240,4.0,64.0
10731,70.0,0,120,2.0,64.0
10732,70.0,0,120,11.0,64.0
10733,31.0,0,240,8.0,64.0
10734,67.0,0,240,3.0,64.0
10735,67.0,0,240,2.0,64.0
10736,70.0,115,120,0.0,64.0
10737,31.0,0,240,15.0,64.0
10738,86.0,0,120,0.0,64.0
10739,74.0,0,120,11.0,64.0
10740,74.0,0,120,2.0,64.0
10741,74.0,0,120,0.0,64.0
10742,74.0,0,120,3.0,64.0
10743,66.0,0,240,2.0,64.0
10744,72.0,0,120,0.0,64.0
10745,45.0,5,240,14.0,64.0
10746,72.0,0,120,2.0,64.0
10747,33.0,0,240,8.0,64.0
10748,72.0,0,120,3.0,64.0
10749,72.0,0,120,11.0,64.0
10750,33.0,0,240,15.0,64.0
10751,45.0,0,240,4.0,64.0
10752,84.0,115,120,0.0,64.0
10753,66.0,0,240,3.0,64.0
10754,57.0,0,240,13.0,64.0
10755,87.0,0,120,0.0,64.0
10756,75.0,0,120,11.0,64.0
10757,75.0,0,120,2.0,64.0
10758,75.0,120,120,3.0,64.0
10759,75.0,0,120,0.0,64.0
10760,74.0,0,240,2.0,64.0
10761,34.0,0,240,15.0,64.0
10762,46.0,115,240,4.0,64.0
10763,62.0,5,240,13.0,64.0
10764,74.0,0,240,0.0,64.0
10765,74.0,0,240,11.0,64.0
10766,46.0,0,240,14.0,64.0
10767,67.0,0,120,3.0,64.0
10768,67.0,115,120,2.0,64.0
10769,74.0,0,240,3.0,64.0
10770,86.0,0,240,0.0,64.0
10771,34.0,0,240,8.0,64.0
10772,66.0,0,120,2.0,64.0
10773,66.0,0,120,3.0,64.0
10774,79.0,0,120,0.0,64.0
10775,48.0,0,240,14.0,64.0
10776,36.0,0,240,8.0,64.0
10777,67.0,0,120,0.0,64.0
10778,67.0,115,120,11.0,64.0
10779,67.0,5,120,2.0,64.0
10780,36.0,5,240,15.0,64.0
10781,67.0,0,120,3.0,64.0
10782,64.0,0,120,2.0,64.0
10783,64.0,0,120,3.0,64.0
10784,60.0,0,480,13.0,64.0
10785,48.0,0,240,4.0,64.0
10786,70.0,0,120,0.0,64.0
10787,70.0,0,120,3.0,64.0
10788,67.0,0,120,3.0,64.0
10789,82.0,115,120,0.0,64.0
10790,70.0,0,120,2.0,64.0
10791,70.0,0,120,11.0,64.0
10792,67.0,0,120,2.0,64.0
10793,66.0,0,240,3.0,64.0
10794,33.0,0,390,15.0,64.0
10795,69.0,115,120,3.0,64.0
10796,66.0,5,240,2.0,64.0
10797,69.0,5,120,2.0,64.0
10798,45.0,0,390,4.0,64.0
10799,81.0,0,120,0.0,64.0
10800,45.0,0,390,14.0,64.0
10801,69.0,0,120,11.0,64.0
10802,33.0,75,390,8.0,64.0
10803,69.0,0,120,0.0,64.0
10804,72.0,0,120,0.0,64.0
10805,84.0,0,120,0.0,64.0
10806,72.0,0,120,2.0,64.0
10807,72.0,115,120,3.0,64.0
10808,72.0,0,120,11.0,64.0
10809,82.0,0,120,0.0,64.0
10810,70.0,0,120,11.0,64.0
10811,70.0,0,120,0.0,64.0
10812,67.0,0,480,2.0,64.0
10813,70.0,5,120,2.0,64.0
10814,62.0,5,480,13.0,64.0
10815,67.0,0,480,3.0,64.0
10816,70.0,40,120,3.0,64.0
10817,72.0,0,120,11.0,64.0
10818,72.0,35,120,2.0,64.0
10819,72.0,0,120,0.0,64.0
10820,84.0,0,120,0.0,64.0
10821,72.0,0,120,3.0,64.0
10822,50.0,0,240,4.0,64.0
10823,81.0,0,30,0.0,64.0
10824,69.0,30,30,3.0,64.0
10825,50.0,0,240,14.0,64.0
10826,69.0,0,30,0.0,64.0
10827,69.0,0,30,2.0,64.0
10828,69.0,0,30,11.0,64.0
10829,38.0,0,390,15.0,64.0
10830,38.0,20,390,8.0,64.0
10831,70.0,0,30,0.0,64.0
10832,82.0,30,30,0.0,64.0
10833,70.0,0,30,3.0,64.0
10834,70.0,0,30,11.0,64.0
10835,70.0,0,30,2.0,64.0
10836,81.0,30,30,0.0,64.0
10837,69.0,0,30,2.0,64.0
10838,69.0,0,30,0.0,64.0
10839,69.0,0,30,3.0,64.0
10840,69.0,0,30,11.0,64.0
10841,70.0,0,30,0.0,64.0
10842,82.0,0,30,0.0,64.0
10843,70.0,0,30,3.0,64.0
10844,70.0,0,30,11.0,64.0
10845,70.0,30,30,2.0,64.0
10846,81.0,0,30,0.0,64.0
10847,69.0,0,30,3.0,64.0
10848,69.0,0,30,0.0,64.0
10849,69.0,0,30,11.0,64.0
10850,69.0,30,30,2.0,64.0
10851,70.0,0,30,2.0,64.0
10852,70.0,0,30,11.0,64.0
10853,82.0,0,30,0.0,64.0
10854,70.0,30,30,0.0,64.0
10855,70.0,0,30,3.0,64.0
10856,69.0,0,30,3.0,64.0
10857,69.0,0,30,2.0,64.0
10858,81.0,0,30,0.0,64.0
10859,69.0,25,30,0.0,64.0
10860,69.0,0,30,11.0,64.0
10861,70.0,0,30,11.0,64.0
10862,82.0,0,30,0.0,64.0
10863,70.0,0,30,3.0,64.0
10864,70.0,30,30,2.0,64.0
10865,70.0,0,30,0.0,64.0
10866,69.0,0,30,3.0,64.0
10867,69.0,0,30,11.0,64.0
10868,81.0,30,30,0.0,64.0
10869,38.0,0,240,14.0,64.0
10870,69.0,0,30,0.0,64.0
10871,57.0,0,240,13.0,64.0
10872,69.0,0,30,2.0,64.0
10873,66.0,5,240,2.0,64.0
10874,66.0,0,240,3.0,64.0
10875,38.0,0,240,4.0,64.0
10876,70.0,0,30,3.0,64.0
10877,82.0,0,30,0.0,64.0
10878,70.0,30,30,0.0,64.0
10879,70.0,0,30,11.0,64.0
10880,70.0,0,30,2.0,64.0
10881,69.0,0,30,11.0,64.0
10882,69.0,0,30,3.0,64.0
10883,69.0,0,30,0.0,64.0
10884,69.0,0,30,2.0,64.0
10885,81.0,30,30,0.0,64.0
10886,70.0,0,30,2.0,64.0
10887,70.0,0,30,0.0,64.0
10888,82.0,0,30,0.0,64.0
10889,70.0,0,30,11.0,64.0
10890,70.0,30,30,3.0,64.0
10891,69.0,0,30,11.0,64.0
10892,81.0,0,30,0.0,64.0
10893,69.0,0,30,0.0,64.0
10894,69.0,10,30,2.0,64.0
10895,69.0,0,30,3.0,64.0
10896,70.0,0,30,11.0,64.0
10897,82.0,0,30,0.0,64.0
10898,70.0,0,30,2.0,64.0
10899,70.0,0,30,0.0,64.0
10900,70.0,30,30,3.0,64.0
10901,69.0,0,30,11.0,64.0
10902,81.0,0,30,0.0,64.0
10903,69.0,25,30,2.0,64.0
10904,69.0,0,30,3.0,64.0
10905,69.0,0,30,0.0,64.0
10906,70.0,0,30,0.0,64.0
10907,70.0,0,30,2.0,64.0
10908,70.0,115,30,11.0,64.0
10909,82.0,0,30,0.0,64.0
10910,70.0,0,30,3.0,64.0
10911,43.0,0,840,14.0,64.0
10912,67.0,0,120,0.0,64.0
10913,79.0,125,120,0.0,64.0
10914,67.0,0,120,3.0,64.0
10915,31.0,0,840,15.0,64.0
10916,31.0,0,840,8.0,64.0
10917,43.0,0,840,4.0,64.0
10918,59.0,0,240,13.0,64.0
10919,67.0,0,120,11.0,64.0
10920,67.0,0,120,2.0,64.0
10921,71.0,120,120,3.0,64.0
10922,83.0,0,120,0.0,64.0
10923,71.0,0,120,2.0,64.0
10924,71.0,0,120,0.0,64.0
10925,71.0,0,120,11.0,64.0
10926,69.0,0,120,0.0,64.0
10927,69.0,0,120,11.0,64.0
10928,60.0,5,240,13.0,64.0
10929,69.0,0,120,2.0,64.0
10930,69.0,40,120,3.0,64.0
10931,81.0,0,120,0.0,64.0
10932,84.0,0,120,0.0,64.0
10933,72.0,0,120,3.0,64.0
10934,72.0,0,120,0.0,64.0
10935,72.0,115,120,11.0,64.0
10936,72.0,0,120,2.0,64.0
10937,71.0,120,120,2.0,64.0
10938,71.0,0,120,0.0,64.0
10939,83.0,0,120,0.0,64.0
10940,71.0,0,120,3.0,64.0
10941,62.0,0,240,13.0,64.0
10942,71.0,5,120,11.0,64.0
10943,91.0,0,120,0.0,64.0
10944,79.0,120,120,11.0,64.0
10945,79.0,0,120,3.0,64.0
10946,79.0,0,120,0.0,64.0
10947,79.0,0,120,2.0,64.0
10948,77.0,115,120,2.0,64.0
10949,89.0,0,120,0.0,64.0
10950,77.0,0,120,11.0,64.0
10951,55.0,0,240,13.0,64.0
10952,77.0,0,120,3.0,64.0
10953,77.0,0,120,0.0,64.0
10954,91.0,0,120,0.0,64.0
10955,79.0,0,120,3.0,64.0
10956,79.0,125,120,11.0,64.0
10957,79.0,0,120,2.0,64.0
10958,79.0,0,120,0.0,64.0
10959,75.0,120,120,11.0,64.0
10960,75.0,0,120,0.0,64.0
10961,75.0,0,120,2.0,64.0
10962,60.0,0,240,13.0,64.0
10963,48.0,0,390,5.0,64.0
10964,75.0,0,120,3.0,64.0
10965,87.0,0,120,0.0,64.0
10966,60.0,0,390,3.0,64.0
10967,60.0,75,390,5.0,64.0
10968,72.0,0,390,2.0,64.0
10969,79.0,0,120,0.0,64.0
10970,79.0,0,120,2.0,64.0
10971,91.0,0,120,0.0,64.0
10972,79.0,0,120,3.0,64.0
10973,79.0,115,120,11.0,64.0
10974,56.0,5,240,13.0,64.0
10975,77.0,0,120,0.0,64.0
10976,77.0,5,120,11.0,64.0
10977,77.0,0,120,3.0,64.0
10978,77.0,40,120,2.0,64.0
10979,89.0,0,120,0.0,64.0
10980,80.0,0,120,3.0,64.0
10981,80.0,0,120,2.0,64.0
10982,92.0,0,120,0.0,64.0
10983,80.0,120,120,0.0,64.0
10984,80.0,0,120,11.0,64.0
10985,67.0,0,840,2.0,64.0
10986,71.0,0,120,0.0,64.0
10987,83.0,0,120,0.0,64.0
10988,67.0,0,840,5.0,64.0
10989,71.0,0,120,3.0,64.0
10990,71.0,120,120,2.0,64.0
10991,55.0,120,240,13.0,64.0
10992,71.0,0,120,11.0,64.0
10993,55.0,0,840,5.0,64.0
10994,67.0,0,840,3.0,64.0
10995,74.0,0,120,2.0,64.0
10996,74.0,0,120,11.0,64.0
10997,86.0,0,120,0.0,64.0
10998,74.0,0,120,3.0,64.0
10999,74.0,0,120,0.0,64.0
11000,72.0,115,120,0.0,64.0
11001,63.0,5,240,13.0,64.0
11002,72.0,0,120,11.0,64.0
11003,72.0,0,120,3.0,64.0
11004,63.0,0,240,6.0,64.0
11005,63.0,120,240,7.0,64.0
11006,51.0,0,240,7.0,64.0
11007,72.0,0,120,2.0,64.0
11008,63.0,0,240,12.0,64.0
11009,84.0,0,120,0.0,64.0
11010,75.0,0,120,2.0,64.0
11011,75.0,0,120,3.0,64.0
11012,75.0,0,120,11.0,64.0
11013,87.0,0,120,0.0,64.0
11014,75.0,0,120,0.0,64.0
11015,74.0,0,120,0.0,64.0
11016,74.0,0,120,11.0,64.0
11017,74.0,0,120,3.0,64.0
11018,59.0,0,240,6.0,64.0
11019,86.0,0,120,0.0,64.0
11020,59.0,75,390,13.0,64.0
11021,59.0,0,240,12.0,64.0
11022,59.0,5,240,7.0,64.0
11023,46.0,0,240,7.0,64.0
11024,74.0,115,120,2.0,64.0
11025,43.0,0,120,8.0,64.0
11026,87.0,0,120,0.0,64.0
11027,75.0,0,120,3.0,64.0
11028,75.0,0,120,0.0,64.0
11029,55.0,0,120,4.0,64.0
11030,75.0,0,120,2.0,64.0
11031,55.0,0,120,14.0,64.0
11032,75.0,120,120,11.0,64.0
11033,43.0,0,120,15.0,64.0
11034,53.0,0,120,4.0,64.0
11035,41.0,0,120,8.0,64.0
11036,59.0,0,240,12.0,64.0
11037,86.0,0,120,0.0,64.0
11038,53.0,0,120,14.0,64.0
11039,74.0,0,120,0.0,64.0
11040,41.0,0,120,15.0,64.0
11041,74.0,0,120,2.0,64.0
11042,74.0,0,120,3.0,64.0
11043,59.0,0,240,7.0,64.0
11044,59.0,0,240,6.0,64.0
11045,74.0,40,120,11.0,64.0
11046,47.0,0,240,7.0,64.0
11047,75.0,0,120,2.0,64.0
11048,75.0,0,120,0.0,64.0
11049,87.0,0,120,0.0,64.0
11050,75.0,0,120,3.0,64.0
11051,55.0,115,120,4.0,64.0
11052,43.0,5,120,15.0,64.0
11053,55.0,0,120,14.0,64.0
11054,43.0,0,120,8.0,64.0
11055,75.0,0,120,11.0,64.0
11056,36.0,0,120,15.0,64.0
11057,72.0,0,120,11.0,64.0
11058,63.0,0,390,5.0,64.0
11059,60.0,0,390,6.0,64.0
11060,63.0,0,390,2.0,64.0
11061,60.0,0,390,12.0,64.0
11062,36.0,5,120,8.0,64.0
11063,72.0,0,120,2.0,64.0
11064,72.0,0,120,0.0,64.0
11065,48.0,0,120,14.0,64.0
11066,63.0,75,390,3.0,64.0
11067,60.0,0,390,13.0,64.0
11068,48.0,0,120,4.0,64.0
11069,51.0,0,390,5.0,64.0
11070,72.0,120,120,3.0,64.0
11071,84.0,0,120,0.0,64.0
11072,48.0,0,390,7.0,64.0
11073,60.0,0,390,7.0,64.0
11074,60.0,0,120,4.0,64.0
11075,75.0,0,120,2.0,64.0
11076,75.0,0,120,11.0,64.0
11077,75.0,0,120,0.0,64.0
11078,75.0,0,120,3.0,64.0
11079,60.0,120,120,14.0,64.0
11080,48.0,0,120,8.0,64.0
11081,48.0,0,120,15.0,64.0
11082,87.0,0,120,0.0,64.0
11083,74.0,0,120,11.0,64.0
11084,74.0,0,120,0.0,64.0
11085,74.0,0,120,2.0,64.0
11086,46.0,0,120,8.0,64.0
11087,58.0,40,120,14.0,64.0
11088,58.0,0,120,4.0,64.0
11089,86.0,0,120,0.0,64.0
11090,74.0,0,120,3.0,64.0
11091,46.0,0,120,15.0,64.0
11092,60.0,0,120,4.0,64.0
11093,75.0,0,120,2.0,64.0
11094,75.0,5,120,11.0,64.0
11095,87.0,0,120,0.0,64.0
11096,48.0,0,120,15.0,64.0
11097,48.0,0,120,8.0,64.0
11098,75.0,120,120,0.0,64.0
11099,60.0,0,120,14.0,64.0
11100,75.0,0,120,3.0,64.0
11101,65.0,0,840,5.0,64.0
11102,84.0,0,390,0.0,64.0
11103,65.0,0,840,2.0,64.0
11104,56.0,0,120,4.0,64.0
11105,72.0,0,390,3.0,64.0
11106,44.0,120,120,15.0,64.0
11107,72.0,0,390,2.0,64.0
11108,56.0,0,120,14.0,64.0
11109,53.0,0,840,5.0,64.0
11110,72.0,75,390,0.0,64.0
11111,72.0,0,390,11.0,64.0
11112,44.0,0,120,8.0,64.0
11113,65.0,115,840,3.0,64.0
11114,48.0,0,120,15.0,64.0
11115,60.0,120,120,14.0,64.0
11116,48.0,0,120,8.0,64.0
11117,60.0,0,120,4.0,64.0
11118,56.0,0,240,7.0,64.0
11119,68.0,120,240,7.0,64.0
11120,68.0,0,240,12.0,64.0
11121,68.0,0,240,13.0,64.0
11122,56.0,0,120,4.0,64.0
11123,44.0,0,120,8.0,64.0
11124,44.0,0,120,15.0,64.0
11125,56.0,40,120,14.0,64.0
11126,68.0,0,240,6.0,64.0
11127,48.0,0,120,15.0,64.0
11128,48.0,0,120,8.0,64.0
11129,60.0,0,120,4.0,64.0
11130,60.0,5,120,14.0,64.0
11131,82.0,5,720,0.0,64.0
11132,70.0,0,720,0.0,64.0
11133,56.0,0,120,4.0,64.0
11134,70.0,0,720,3.0,64.0
11135,70.0,0,720,2.0,64.0
11136,44.0,0,120,8.0,64.0
11137,44.0,115,120,15.0,64.0
11138,62.0,0,240,6.0,64.0
11139,56.0,0,120,14.0,64.0
11140,62.0,0,240,13.0,64.0
11141,62.0,5,240,12.0,64.0
11142,62.0,0,240,7.0,64.0
11143,50.0,0,240,7.0,64.0
11144,58.0,0,120,4.0,64.0
11145,46.0,0,120,15.0,64.0
11146,58.0,0,120,14.0,64.0
11147,46.0,120,120,8.0,64.0
11148,50.0,0,240,7.0,64.0
11149,62.0,0,240,7.0,64.0
11150,44.0,0,120,15.0,64.0
11151,56.0,0,120,4.0,64.0
11152,62.0,0,240,6.0,64.0
11153,56.0,0,120,14.0,64.0
11154,62.0,0,240,12.0,64.0
11155,62.0,120,240,13.0,64.0
11156,44.0,0,120,8.0,64.0
11157,58.0,0,120,14.0,64.0
11158,46.0,0,120,15.0,64.0
11159,46.0,0,120,8.0,64.0
11160,58.0,5,120,4.0,64.0
11161,43.0,0,120,15.0,64.0
11162,55.0,0,390,5.0,64.0
11163,55.0,0,120,4.0,64.0
11164,67.0,0,390,2.0,64.0
11165,67.0,0,390,5.0,64.0
11166,55.0,115,120,14.0,64.0
11167,67.0,0,390,3.0,64.0
11168,64.0,0,390,12.0,64.0
11169,52.0,0,390,7.0,64.0
11170,64.0,75,390,7.0,64.0
11171,64.0,0,390,6.0,64.0
11172,64.0,0,390,13.0,64.0
11173,58.0,0,120,14.0,64.0
11174,46.0,0,120,8.0,64.0
11175,58.0,0,120,4.0,64.0
11176,46.0,0,120,15.0,64.0
11177,43.0,0,120,15.0,64.0
11178,43.0,0,120,8.0,64.0
11179,70.0,120,240,0.0,64.0
11180,55.0,40,120,14.0,64.0
11181,55.0,0,120,4.0,64.0
11182,70.0,120,15,11.0,64.0
11183,70.0,0,240,3.0,64.0
11184,70.0,0,240,2.0,64.0
11185,82.0,0,240,0.0,64.0
11186,46.0,0,120,8.0,64.0
11187,58.0,0,120,4.0,64.0
11188,58.0,5,120,14.0,64.0
11189,46.0,0,120,15.0,64.0
11190,80.0,0,240,0.0,64.0
11191,41.0,0,120,15.0,64.0
11192,53.0,0,120,14.0,64.0
11193,68.0,0,240,11.0,64.0
11194,68.0,0,240,2.0,64.0
11195,41.0,0,120,8.0,64.0
11196,53.0,120,120,4.0,64.0
11197,68.0,0,240,3.0,64.0
11198,68.0,120,240,0.0,64.0
11199,56.0,0,840,5.0,64.0
11200,68.0,115,840,5.0,64.0
11201,44.0,0,120,15.0,64.0
11202,44.0,0,120,8.0,64.0
11203,56.0,0,120,14.0,64.0
11204,56.0,0,120,4.0,64.0
11205,55.0,115,120,14.0,64.0
11206,43.0,0,120,15.0,64.0
11207,72.0,0,240,2.0,64.0
11208,84.0,0,240,0.0,64.0
11209,72.0,0,240,11.0,64.0
11210,53.0,120,240,7.0,64.0
11211,65.0,0,240,7.0,64.0
11212,65.0,0,240,12.0,64.0
11213,65.0,0,240,6.0,64.0
11214,72.0,0,240,0.0,64.0
11215,55.0,0,120,4.0,64.0
11216,65.0,0,240,13.0,64.0
11217,72.0,5,240,3.0,64.0
11218,43.0,0,120,8.0,64.0
11219,58.0,0,120,4.0,64.0
11220,58.0,0,120,14.0,64.0
11221,46.0,0,120,15.0,64.0
11222,46.0,0,120,8.0,64.0
11223,60.0,0,240,13.0,64.0
11224,60.0,0,240,12.0,64.0
11225,77.0,0,360,2.0,64.0
11226,77.0,0,360,3.0,64.0
11227,44.0,115,120,15.0,64.0
11228,56.0,0,120,14.0,64.0
11229,77.0,0,360,11.0,64.0
11230,44.0,0,120,8.0,64.0
11231,56.0,0,120,4.0,64.0
11232,60.0,0,240,6.0,64.0
11233,89.0,0,360,0.0,64.0
11234,48.0,0,240,7.0,64.0
11235,60.0,5,240,7.0,64.0
11236,77.0,0,360,0.0,64.0
11237,46.0,0,120,8.0,64.0
11238,58.0,0,120,14.0,64.0
11239,46.0,120,120,15.0,64.0
11240,58.0,0,120,4.0,64.0
11241,60.0,120,240,6.0,64.0
11242,44.0,0,120,8.0,64.0
11243,60.0,0,240,7.0,64.0
11244,48.0,0,240,7.0,64.0
11245,56.0,0,120,14.0,64.0
11246,56.0,0,120,4.0,64.0
11247,60.0,0,240,13.0,64.0
11248,60.0,0,240,12.0,64.0
11249,44.0,0,120,15.0,64.0
11250,58.0,0,120,4.0,64.0
11251,87.0,0,120,0.0,64.0
11252,75.0,5,120,3.0,64.0
11253,75.0,0,120,11.0,64.0
11254,75.0,0,120,0.0,64.0
11255,58.0,0,120,14.0,64.0
11256,75.0,0,120,2.0,64.0
11257,46.0,0,120,15.0,64.0
11258,46.0,0,120,8.0,64.0
11259,74.0,0,240,3.0,64.0
11260,65.0,75,390,3.0,64.0
11261,53.0,0,390,5.0,64.0
11262,56.0,0,120,14.0,64.0
11263,74.0,0,240,0.0,64.0
11264,50.0,0,390,7.0,64.0
11265,44.0,120,120,15.0,64.0
11266,65.0,0,390,2.0,64.0
11267,56.0,0,120,4.0,64.0
11268,74.0,120,240,11.0,64.0
11269,86.0,0,240,0.0,64.0
11270,65.0,0,390,5.0,64.0
11271,62.0,0,390,7.0,64.0
11272,62.0,0,390,6.0,64.0
11273,74.0,0,240,2.0,64.0
11274,62.0,0,390,12.0,64.0
11275,62.0,0,390,13.0,64.0
11276,58.0,0,120,4.0,64.0
11277,58.0,0,120,14.0,64.0
11278,46.0,0,120,15.0,64.0
11279,46.0,0,120,8.0,64.0
11280,56.0,0,120,14.0,64.0
11281,72.0,0,240,0.0,64.0
11282,84.0,120,240,0.0,64.0
11283,72.0,0,240,11.0,64.0
11284,44.0,0,120,8.0,64.0
11285,72.0,0,240,3.0,64.0
11286,72.0,0,240,2.0,64.0
11287,44.0,0,120,15.0,64.0
11288,56.0,40,120,4.0,64.0
11289,58.0,0,120,4.0,64.0
11290,58.0,5,120,14.0,64.0
11291,46.0,0,120,8.0,64.0
11292,46.0,0,120,15.0,64.0
11293,55.0,0,120,4.0,64.0
11294,55.0,0,840,5.0,64.0
11295,67.0,0,840,2.0,64.0
11296,70.0,75,390,0.0,64.0
11297,82.0,0,390,0.0,64.0
11298,67.0,0,840,5.0,64.0
11299,67.0,0,840,3.0,64.0
11300,70.0,0,390,11.0,64.0
11301,70.0,0,390,2.0,64.0
11302,70.0,0,390,3.0,64.0
11303,43.0,0,120,15.0,64.0
11304,43.0,120,120,8.0,64.0
11305,55.0,0,120,14.0,64.0
11306,56.0,0,120,14.0,64.0
11307,44.0,120,120,15.0,64.0
11308,44.0,0,120,8.0,64.0
11309,56.0,0,120,4.0,64.0
11310,63.0,0,240,13.0,64.0
11311,63.0,0,240,6.0,64.0
11312,43.0,0,120,8.0,64.0
11313,63.0,0,240,7.0,64.0
11314,55.0,40,120,4.0,64.0
11315,55.0,0,120,14.0,64.0
11316,51.0,120,240,7.0,64.0
11317,43.0,0,120,15.0,64.0
11318,63.0,0,240,12.0,64.0
11319,56.0,5,120,14.0,64.0
11320,56.0,0,120,4.0,64.0
11321,44.0,0,120,8.0,64.0
11322,44.0,0,120,15.0,64.0
11323,75.0,0,480,2.0,64.0
11324,55.0,0,120,4.0,64.0
11325,59.0,5,240,13.0,64.0
11326,43.0,0,120,15.0,64.0
11327,75.0,0,480,3.0,64.0
11328,59.0,0,240,7.0,64.0
11329,59.0,0,240,6.0,64.0
11330,43.0,0,120,8.0,64.0
11331,47.0,0,240,7.0,64.0
11332,55.0,115,120,14.0,64.0
11333,75.0,0,480,0.0,64.0
11334,59.0,0,240,12.0,64.0
11335,75.0,75,390,11.0,64.0
11336,87.0,0,480,0.0,64.0
11337,44.0,0,120,8.0,64.0
11338,44.0,0,120,15.0,64.0
11339,56.0,0,120,14.0,64.0
11340,56.0,120,120,4.0,64.0
11341,55.0,0,120,14.0,64.0
11342,59.0,0,240,6.0,64.0
11343,59.0,120,240,7.0,64.0
11344,47.0,0,240,7.0,64.0
11345,43.0,40,120,8.0,64.0
11346,43.0,0,120,15.0,64.0
11347,59.0,0,240,12.0,64.0
11348,55.0,0,120,4.0,64.0
11349,59.0,0,240,13.0,64.0
11350,58.0,0,120,4.0,64.0
11351,46.0,0,120,8.0,64.0
11352,46.0,5,120,15.0,64.0
11353,58.0,0,120,14.0,64.0
11354,56.0,115,120,14.0,64.0
11355,68.0,0,390,5.0,64.0
11356,60.0,5,240,13.0,64.0
11357,89.0,0,390,0.0,64.0
11358,60.0,0,390,6.0,64.0
11359,44.0,0,120,15.0,64.0
11360,65.0,0,720,2.0,64.0
11361,65.0,5,720,3.0,64.0
11362,77.0,0,390,0.0,64.0
11363,60.0,75,390,12.0,64.0
11364,77.0,0,390,3.0,64.0
11365,56.0,0,390,5.0,64.0
11366,77.0,0,390,11.0,64.0
11367,77.0,0,390,2.0,64.0
11368,60.0,0,390,7.0,64.0
11369,48.0,0,390,7.0,64.0
11370,56.0,0,120,4.0,64.0
11371,46.0,0,120,8.0,64.0
11372,58.0,0,120,4.0,64.0
11373,46.0,0,120,15.0,64.0
11374,58.0,115,120,14.0,64.0
11375,56.0,40,120,4.0,64.0
11376,60.0,0,240,13.0,64.0
11377,44.0,0,120,8.0,64.0
11378,44.0,5,120,15.0,64.0
11379,56.0,0,120,14.0,64.0
11380,48.0,120,120,8.0,64.0
11381,60.0,0,120,4.0,64.0
11382,60.0,0,120,14.0,64.0
11383,48.0,5,120,15.0,64.0
11384,46.0,75,390,15.0,64.0
11385,70.0,0,390,5.0,64.0
11386,67.0,0,120,12.0,64.0
11387,58.0,0,390,14.0,64.0
11388,79.0,0,120,0.0,64.0
11389,58.0,0,390,4.0,64.0
11390,91.0,0,120,0.0,64.0
11391,79.0,115,120,11.0,64.0
11392,46.0,0,390,8.0,64.0
11393,79.0,0,120,3.0,64.0
11394,79.0,0,120,2.0,64.0
11395,58.0,0,390,5.0,64.0
11396,62.0,0,240,13.0,64.0
11397,80.0,0,120,2.0,64.0
11398,68.0,0,120,12.0,64.0
11399,80.0,0,120,3.0,64.0
11400,80.0,0,120,0.0,64.0
11401,92.0,0,120,0.0,64.0
11402,80.0,120,120,11.0,64.0
11403,82.0,0,120,0.0,64.0
11404,58.0,0,240,13.0,64.0
11405,63.0,0,120,3.0,64.0
11406,70.0,0,120,12.0,64.0
11407,94.0,0,120,0.0,64.0
11408,63.0,0,120,2.0,64.0
11409,82.0,0,120,3.0,64.0
11410,82.0,0,120,2.0,64.0
11411,82.0,40,120,11.0,64.0
11412,75.0,5,120,0.0,64.0
11413,75.0,120,120,2.0,64.0
11414,87.0,0,120,0.0,64.0
11415,75.0,0,120,11.0,64.0
11416,67.0,0,120,3.0,64.0
11417,75.0,0,120,3.0,64.0
11418,63.0,0,120,12.0,64.0
11419,67.0,0,120,2.0,64.0
11420,34.0,0,840,8.0,64.0
11421,75.0,80,390,11.0,64.0
11422,65.0,120,120,2.0,64.0
11423,65.0,0,120,3.0,64.0
11424,58.0,0,840,5.0,64.0
11425,46.0,0,840,5.0,64.0
11426,75.0,0,390,0.0,64.0
11427,46.0,0,840,4.0,64.0
11428,87.0,0,390,0.0,64.0
11429,34.0,0,840,15.0,64.0
11430,75.0,0,390,2.0,64.0
11431,46.0,0,840,14.0,64.0
11432,75.0,0,390,3.0,64.0
11433,63.0,0,390,12.0,64.0
11434,68.0,0,120,3.0,64.0
11435,68.0,120,120,2.0,64.0
11436,67.0,40,120,2.0,64.0
11437,67.0,0,120,3.0,64.0
11438,70.0,30,120,3.0,64.0
11439,70.0,0,120,2.0,64.0
11440,74.0,0,30,0.0,64.0
11441,68.0,0,120,2.0,64.0
11442,74.0,0,30,3.0,64.0
11443,62.0,0,30,12.0,64.0
11444,74.0,0,30,2.0,64.0
11445,68.0,0,120,3.0,64.0
11446,86.0,30,30,0.0,64.0
11447,74.0,0,30,11.0,64.0
11448,75.0,0,30,2.0,64.0
11449,75.0,0,30,11.0,64.0
11450,75.0,0,30,3.0,64.0
11451,87.0,0,30,0.0,64.0
11452,63.0,0,30,12.0,64.0
11453,75.0,30,30,0.0,64.0
11454,74.0,0,30,3.0,64.0
11455,74.0,0,30,2.0,64.0
11456,86.0,0,30,0.0,64.0
11457,74.0,30,30,0.0,64.0
11458,62.0,0,30,12.0,64.0
11459,74.0,0,30,11.0,64.0
11460,75.0,30,30,3.0,64.0
11461,75.0,0,30,0.0,64.0
11462,63.0,0,30,12.0,64.0
11463,87.0,0,30,0.0,64.0
11464,75.0,0,30,11.0,64.0
11465,75.0,0,30,2.0,64.0
11466,74.0,0,30,11.0,64.0
11467,72.0,30,120,3.0,64.0
11468,86.0,0,30,0.0,64.0
11469,72.0,0,120,2.0,64.0
11470,74.0,0,30,0.0,64.0
11471,62.0,30,30,12.0,64.0
11472,74.0,0,30,3.0,64.0
11473,74.0,0,30,2.0,64.0
11474,75.0,0,30,0.0,64.0
11475,87.0,0,30,0.0,64.0
11476,63.0,0,30,12.0,64.0
11477,75.0,0,30,2.0,64.0
11478,75.0,0,30,11.0,64.0
11479,75.0,30,30,3.0,64.0
11480,74.0,30,30,0.0,64.0
11481,74.0,0,30,11.0,64.0
11482,86.0,0,30,0.0,64.0
11483,74.0,0,30,2.0,64.0
11484,74.0,0,30,3.0,64.0
11485,62.0,0,30,12.0,64.0
11486,63.0,0,30,12.0,64.0
11487,87.0,0,30,0.0,64.0
11488,75.0,0,30,3.0,64.0
11489,75.0,0,30,11.0,64.0
11490,75.0,0,30,2.0,64.0
11491,75.0,0,30,0.0,64.0
11492,86.0,0,30,0.0,64.0
11493,62.0,0,30,12.0,64.0
11494,74.0,0,30,0.0,64.0
11495,74.0,0,30,3.0,64.0
11496,74.0,0,30,2.0,64.0
11497,70.0,0,120,3.0,64.0
11498,70.0,0,120,2.0,64.0
11499,74.0,30,30,11.0,64.0
11500,75.0,0,30,2.0,64.0
11501,75.0,0,30,0.0,64.0
11502,87.0,0,30,0.0,64.0
11503,63.0,0,30,12.0,64.0
11504,75.0,30,30,11.0,64.0
11505,75.0,0,30,3.0,64.0
11506,62.0,0,30,12.0,64.0
11507,74.0,0,30,2.0,64.0
11508,74.0,0,30,3.0,64.0
11509,86.0,0,30,0.0,64.0
11510,74.0,0,30,11.0,64.0
11511,74.0,30,30,0.0,64.0
11512,75.0,0,30,11.0,64.0
11513,63.0,0,30,12.0,64.0
11514,75.0,0,30,2.0,64.0
11515,75.0,30,30,3.0,64.0
11516,87.0,0,30,0.0,64.0
11517,75.0,0,30,0.0,64.0
11518,74.0,0,30,11.0,64.0
11519,68.0,0,120,3.0,64.0
11520,74.0,0,30,2.0,64.0
11521,74.0,0,30,0.0,64.0
11522,86.0,30,30,0.0,64.0
11523,62.0,0,30,12.0,64.0
11524,74.0,0,30,3.0,64.0
11525,68.0,115,120,2.0,64.0
11526,75.0,0,30,3.0,64.0
11527,75.0,30,30,11.0,64.0
11528,75.0,0,30,2.0,64.0
11529,75.0,0,30,0.0,64.0
11530,87.0,0,30,0.0,64.0
11531,63.0,0,30,12.0,64.0
11532,86.0,0,30,0.0,64.0
11533,74.0,0,30,3.0,64.0
11534,74.0,25,30,2.0,64.0
11535,74.0,0,30,0.0,64.0
11536,74.0,0,30,11.0,64.0
11537,62.0,0,30,12.0,64.0
11538,75.0,0,30,11.0,64.0
11539,75.0,0,30,0.0,64.0
11540,87.0,0,30,0.0,64.0
11541,75.0,0,30,3.0,64.0
11542,63.0,0,30,12.0,64.0
11543,75.0,5,30,2.0,64.0
11544,67.0,125,120,3.0,64.0
11545,39.0,0,390,14.0,64.0
11546,63.0,0,390,5.0,64.0
11547,67.0,75,390,2.0,64.0
11548,39.0,0,390,8.0,64.0
11549,39.0,0,390,15.0,64.0
11550,75.0,0,120,11.0,64.0
11551,63.0,0,120,12.0,64.0
11552,75.0,0,390,3.0,64.0
11553,39.0,0,390,4.0,64.0
11554,51.0,0,390,5.0,64.0
11555,82.0,0,120,2.0,64.0
11556,82.0,0,120,3.0,64.0
11557,82.0,0,120,0.0,64.0
11558,70.0,0,120,12.0,64.0
11559,82.0,120,120,11.0,64.0
11560,94.0,0,120,0.0,64.0
11561,80.0,0,120,2.0,64.0
11562,92.0,0,120,0.0,64.0
11563,80.0,40,120,0.0,64.0
11564,68.0,0,120,12.0,64.0
11565,80.0,0,120,11.0,64.0
11566,80.0,0,120,3.0,64.0
11567,70.0,0,120,12.0,64.0
11568,94.0,0,120,0.0,64.0
11569,82.0,0,120,3.0,64.0
11570,82.0,0,120,2.0,64.0
11571,82.0,120,120,0.0,64.0
11572,82.0,5,120,11.0,64.0
11573,79.0,0,120,11.0,64.0
11574,67.0,0,120,12.0,64.0
11575,91.0,120,120,0.0,64.0
11576,79.0,0,120,0.0,64.0
11577,79.0,0,120,3.0,64.0
11578,79.0,0,120,2.0,64.0
11579,58.0,0,120,4.0,64.0
11580,80.0,0,120,0.0,64.0
11581,80.0,0,120,3.0,64.0
11582,70.0,0,120,3.0,64.0
11583,80.0,0,120,11.0,64.0
11584,92.0,0,120,0.0,64.0
11585,70.0,120,120,2.0,64.0
11586,80.0,0,120,2.0,64.0
11587,68.0,0,120,12.0,64.0
11588,65.0,0,120,12.0,64.0
11589,77.0,0,120,0.0,64.0
11590,68.0,0,120,3.0,64.0
11591,89.0,0,120,0.0,64.0
11592,77.0,0,120,3.0,64.0
11593,68.0,0,120,2.0,64.0
11594,77.0,0,120,2.0,64.0
11595,77.0,0,120,11.0,64.0
11596,56.0,115,120,4.0,64.0
11597,79.0,0,120,11.0,64.0
11598,70.0,0,120,2.0,64.0
11599,70.0,120,120,3.0,64.0
11600,79.0,0,120,2.0,64.0
11601,79.0,5,120,3.0,64.0
11602,91.0,0,120,0.0,64.0
11603,58.0,0,120,4.0,64.0
11604,79.0,0,120,0.0,64.0
11605,67.0,0,120,12.0,64.0
11606,63.0,75,390,6.0,64.0
11607,67.0,0,390,2.0,64.0
11608,75.0,0,120,3.0,64.0
11609,55.0,0,390,4.0,64.0
11610,75.0,0,120,2.0,64.0
11611,75.0,0,120,0.0,64.0
11612,51.0,0,390,14.0,64.0
11613,51.0,0,390,7.0,64.0
11614,51.0,0,390,13.0,64.0
11615,87.0,0,120,0.0,64.0
11616,63.0,0,120,12.0,64.0
11617,67.0,0,390,3.0,64.0
11618,75.0,120,120,11.0,64.0
11619,79.0,0,120,3.0,64.0
11620,91.0,0,120,0.0,64.0
11621,79.0,0,120,2.0,64.0
11622,67.0,0,120,12.0,64.0
11623,79.0,0,120,11.0,64.0
11624,79.0,120,120,0.0,64.0
11625,77.0,0,120,11.0,64.0
11626,77.0,0,120,2.0,64.0
11627,89.0,0,120,0.0,64.0
11628,77.0,0,120,3.0,64.0
11629,77.0,0,120,0.0,64.0
11630,65.0,40,120,12.0,64.0
11631,75.0,0,120,3.0,64.0
11632,87.0,0,120,0.0,64.0
11633,75.0,0,120,0.0,64.0
11634,75.0,120,120,2.0,64.0
11635,63.0,0,120,12.0,64.0
11636,75.0,5,120,11.0,64.0
11637,74.0,0,120,11.0,64.0
11638,58.0,0,840,14.0,64.0
11639,86.0,120,120,0.0,64.0
11640,58.0,0,840,7.0,64.0
11641,62.0,0,120,12.0,64.0
11642,74.0,0,120,3.0,64.0
11643,58.0,0,840,13.0,64.0
11644,74.0,0,120,0.0,64.0
11645,74.0,0,120,2.0,64.0
11646,70.0,0,840,6.0,64.0
11647,77.0,0,120,0.0,64.0
11648,77.0,120,120,11.0,64.0
11649,77.0,0,120,2.0,64.0
11650,77.0,0,120,3.0,64.0
11651,89.0,0,120,0.0,64.0
11652,65.0,0,120,12.0,64.0
11653,67.0,0,240,2.0,64.0
11654,67.0,0,240,5.0,64.0
11655,75.0,0,120,0.0,64.0
11656,87.0,0,120,0.0,64.0
11657,75.0,0,120,2.0,64.0
11658,55.0,0,240,5.0,64.0
11659,55.0,0,240,4.0,64.0
11660,67.0,0,240,3.0,64.0
11661,75.0,0,120,11.0,64.0
11662,75.0,115,120,3.0,64.0
11663,63.0,0,120,12.0,64.0
11664,79.0,5,120,11.0,64.0
11665,79.0,120,120,2.0,64.0
11666,79.0,0,120,0.0,64.0
11667,67.0,0,120,12.0,64.0
11668,79.0,0,120,3.0,64.0
11669,91.0,0,120,0.0,64.0
11670,62.0,0,240,3.0,64.0
11671,77.0,0,120,0.0,64.0
11672,50.0,0,240,4.0,64.0
11673,89.0,115,120,0.0,64.0
11674,62.0,0,240,5.0,64.0
11675,65.0,0,120,12.0,64.0
11676,77.0,0,120,3.0,64.0
11677,62.0,5,240,2.0,64.0
11678,77.0,0,120,11.0,64.0
11679,77.0,0,120,2.0,64.0
11680,50.0,0,240,5.0,64.0
11681,80.0,120,120,2.0,64.0
11682,68.0,0,120,12.0,64.0
11683,80.0,0,120,0.0,64.0
11684,92.0,0,120,0.0,64.0
11685,80.0,0,120,3.0,64.0
11686,80.0,0,120,11.0,64.0
11687,62.0,0,240,2.0,64.0
11688,67.0,0,120,12.0,64.0
11689,79.0,0,120,3.0,64.0
11690,79.0,0,120,2.0,64.0
11691,50.0,0,240,5.0,64.0
11692,50.0,0,240,4.0,64.0
11693,62.0,120,240,3.0,64.0
11694,79.0,0,120,11.0,64.0
11695,62.0,0,240,5.0,64.0
11696,91.0,0,120,0.0,64.0
11697,79.0,115,120,0.0,64.0
11698,77.0,0,120,0.0,64.0
11699,89.0,0,120,0.0,64.0
11700,77.0,0,120,3.0,64.0
11701,65.0,5,120,12.0,64.0
11702,77.0,0,120,11.0,64.0
11703,77.0,0,120,2.0,64.0
11704,70.0,0,120,12.0,64.0
11705,82.0,0,120,2.0,64.0
11706,67.0,75,390,6.0,64.0
11707,63.0,0,390,2.0,64.0
11708,63.0,0,390,5.0,64.0
11709,82.0,0,120,11.0,64.0
11710,55.0,0,390,13.0,64.0
11711,55.0,0,390,7.0,64.0
11712,82.0,120,120,3.0,64.0
11713,51.0,0,390,4.0,64.0
11714,51.0,0,390,5.0,64.0
11715,82.0,0,120,0.0,64.0
11716,55.0,0,390,14.0,64.0
11717,63.0,0,390,3.0,64.0
11718,94.0,0,120,0.0,64.0
11719,63.0,0,120,12.0,64.0
11720,75.0,0,120,2.0,64.0
11721,75.0,120,120,0.0,64.0
11722,75.0,0,120,11.0,64.0
11723,75.0,0,120,3.0,64.0
11724,87.0,0,120,0.0,64.0
11725,86.0,0,120,0.0,64.0
11726,74.0,40,120,3.0,64.0
11727,74.0,0,120,11.0,64.0
11728,74.0,0,120,2.0,64.0
11729,74.0,0,120,0.0,64.0
11730,62.0,0,120,12.0,64.0
11731,75.0,0,120,2.0,64.0
11732,63.0,0,120,12.0,64.0
11733,75.0,0,120,3.0,64.0
11734,75.0,5,120,11.0,64.0
11735,75.0,120,120,0.0,64.0
11736,87.0,0,120,0.0,64.0
11737,72.0,0,120,2.0,64.0
11738,72.0,0,120,3.0,64.0
11739,72.0,0,120,11.0,64.0
11740,56.0,0,840,13.0,64.0
11741,56.0,0,840,14.0,64.0
11742,84.0,120,120,0.0,64.0
11743,60.0,0,120,12.0,64.0
11744,72.0,0,120,0.0,64.0
11745,68.0,0,840,6.0,64.0
11746,56.0,115,840,7.0,64.0
11747,75.0,0,120,11.0,64.0
11748,75.0,0,120,3.0,64.0
11749,75.0,120,120,0.0,64.0
11750,75.0,0,120,2.0,64.0
11751,63.0,0,120,12.0,64.0
11752,87.0,0,120,0.0,64.0
11753,60.0,0,240,5.0,64.0
11754,72.0,0,240,5.0,64.0
11755,60.0,115,120,12.0,64.0
11756,72.0,0,120,0.0,64.0
11757,72.0,0,120,11.0,64.0
11758,60.0,120,240,4.0,64.0
11759,72.0,0,120,3.0,64.0
11760,72.0,0,120,2.0,64.0
11761,84.0,0,120,0.0,64.0
11762,75.0,0,120,3.0,64.0
11763,75.0,0,120,0.0,64.0
11764,87.0,0,120,0.0,64.0
11765,75.0,0,120,2.0,64.0
11766,75.0,0,120,11.0,64.0
11767,63.0,5,120,12.0,64.0
11768,65.0,0,240,3.0,64.0
11769,65.0,0,240,5.0,64.0
11770,65.0,5,240,2.0,64.0
11771,60.0,0,120,12.0,64.0
11772,72.0,0,120,0.0,64.0
11773,84.0,115,120,0.0,64.0
11774,53.0,0,240,5.0,64.0
11775,72.0,0,120,2.0,64.0
11776,72.0,0,120,3.0,64.0
11777,72.0,0,120,11.0,64.0
11778,53.0,0,240,4.0,64.0
11779,85.0,0,120,0.0,64.0
11780,73.0,0,120,2.0,64.0
11781,73.0,0,120,3.0,64.0
11782,73.0,0,120,11.0,64.0
11783,61.0,0,120,12.0,64.0
11784,73.0,120,120,0.0,64.0
11785,72.0,0,120,2.0,64.0
11786,84.0,0,120,0.0,64.0
11787,65.0,0,240,3.0,64.0
11788,72.0,0,120,0.0,64.0
11789,72.0,0,120,3.0,64.0
11790,53.0,0,240,4.0,64.0
11791,53.0,120,240,5.0,64.0
11792,65.0,0,240,2.0,64.0
11793,72.0,0,120,11.0,64.0
11794,65.0,0,240,5.0,64.0
11795,60.0,0,120,12.0,64.0
11796,73.0,0,120,3.0,64.0
11797,73.0,0,120,0.0,64.0
11798,61.0,0,120,12.0,64.0
11799,73.0,0,120,11.0,64.0
11800,85.0,5,120,0.0,64.0
11801,73.0,0,120,2.0,64.0
11802,70.0,0,390,6.0,64.0
11803,67.0,0,390,3.0,64.0
11804,70.0,0,120,0.0,64.0
11805,82.0,120,120,0.0,64.0
11806,70.0,0,120,11.0,64.0
11807,67.0,0,390,5.0,64.0
11808,67.0,0,390,2.0,64.0
11809,58.0,0,390,14.0,64.0
11810,70.0,0,120,2.0,64.0
11811,55.0,0,390,4.0,64.0
11812,58.0,0,120,12.0,64.0
11813,58.0,75,390,13.0,64.0
11814,70.0,0,120,3.0,64.0
11815,55.0,0,390,5.0,64.0
11816,58.0,0,390,7.0,64.0
11817,73.0,0,120,11.0,64.0
11818,85.0,120,120,0.0,64.0
11819,61.0,0,120,12.0,64.0
11820,73.0,0,120,2.0,64.0
11821,73.0,0,120,3.0,64.0
11822,73.0,0,120,0.0,64.0
11823,70.0,0,120,2.0,64.0
11824,58.0,0,120,12.0,64.0
11825,82.0,40,120,0.0,64.0
11826,70.0,0,120,3.0,64.0
11827,70.0,0,120,0.0,64.0
11828,70.0,0,120,11.0,64.0
11829,61.0,0,120,12.0,64.0
11830,73.0,0,120,3.0,64.0
11831,85.0,120,120,0.0,64.0
11832,73.0,0,120,0.0,64.0
11833,73.0,0,120,2.0,64.0
11834,73.0,5,120,11.0,64.0
11835,68.0,0,120,3.0,64.0
11836,68.0,0,120,11.0,64.0
11837,60.0,0,840,14.0,64.0
11838,68.0,0,120,0.0,64.0
11839,60.0,0,840,7.0,64.0
11840,80.0,0,120,0.0,64.0
11841,68.0,120,120,2.0,64.0
11842,72.0,0,840,6.0,64.0
11843,56.0,0,120,12.0,64.0
11844,60.0,0,840,13.0,64.0
11845,72.0,0,120,3.0,64.0
11846,72.0,0,120,0.0,64.0
11847,72.0,0,120,11.0,64.0
11848,72.0,0,120,2.0,64.0
11849,84.0,0,120,0.0,64.0
11850,60.0,120,120,12.0,64.0
11851,68.0,0,240,2.0,64.0
11852,58.0,115,120,12.0,64.0
11853,56.0,0,240,4.0,64.0
11854,82.0,0,120,0.0,64.0
11855,70.0,0,120,11.0,64.0
11856,70.0,0,120,0.0,64.0
11857,68.0,0,240,3.0,64.0
11858,70.0,0,120,2.0,64.0
11859,70.0,0,120,3.0,64.0
11860,68.0,0,240,5.0,64.0
11861,56.0,0,240,5.0,64.0
11862,85.0,0,120,0.0,64.0
11863,73.0,0,120,2.0,64.0
11864,73.0,0,120,11.0,64.0
11865,73.0,120,120,3.0,64.0
11866,73.0,0,120,0.0,64.0
11867,61.0,5,120,12.0,64.0
11868,72.0,0,120,3.0,64.0
11869,72.0,0,120,0.0,64.0
11870,60.0,0,120,12.0,64.0
11871,72.0,0,120,2.0,64.0
11872,51.0,0,240,4.0,64.0
11873,63.0,0,240,3.0,64.0
11874,72.0,115,120,11.0,64.0
11875,84.0,0,120,0.0,64.0
11876,63.0,0,240,2.0,64.0
11877,51.0,0,240,5.0,64.0
11878,63.0,5,240,5.0,64.0
11879,87.0,0,120,0.0,64.0
11880,75.0,0,120,0.0,64.0
11881,75.0,0,120,2.0,64.0
11882,75.0,0,120,3.0,64.0
11883,63.0,120,120,12.0,64.0
11884,75.0,0,120,11.0,64.0
11885,74.0,0,120,2.0,64.0
11886,51.0,0,240,5.0,64.0
11887,74.0,0,120,3.0,64.0
11888,63.0,0,240,2.0,64.0
11889,74.0,0,120,11.0,64.0
11890,63.0,0,240,5.0,64.0
11891,51.0,120,240,4.0,64.0
11892,86.0,0,120,0.0,64.0
11893,74.0,0,120,0.0,64.0
11894,62.0,115,120,12.0,64.0
11895,63.0,0,240,3.0,64.0
11896,75.0,0,120,2.0,64.0
11897,75.0,0,120,0.0,64.0
11898,87.0,0,120,0.0,64.0
11899,75.0,0,120,3.0,64.0
11900,63.0,0,120,12.0,64.0
11901,75.0,5,120,11.0,64.0
11902,72.0,0,120,2.0,64.0
11903,72.0,0,120,3.0,64.0
11904,60.0,120,120,12.0,64.0
11905,72.0,0,120,11.0,64.0
11906,72.0,0,120,0.0,64.0
11907,68.0,0,390,6.0,64.0
11908,84.0,0,120,0.0,64.0
11909,56.0,75,390,14.0,64.0
11910,65.0,0,390,2.0,64.0
11911,65.0,0,390,3.0,64.0
11912,53.0,0,390,5.0,64.0
11913,56.0,0,390,7.0,64.0
11914,65.0,0,390,5.0,64.0
11915,56.0,0,390,13.0,64.0
11916,53.0,0,390,4.0,64.0
11917,89.0,0,120,0.0,64.0
11918,77.0,0,120,11.0,64.0
11919,77.0,0,120,2.0,64.0
11920,77.0,0,120,0.0,64.0
11921,77.0,120,120,3.0,64.0
11922,65.0,0,120,12.0,64.0
11923,75.0,0,120,11.0,64.0
11924,75.0,0,120,0.0,64.0
11925,75.0,0,120,3.0,64.0
11926,75.0,40,120,2.0,64.0
11927,87.0,0,120,0.0,64.0
11928,63.0,0,120,12.0,64.0
11929,77.0,0,120,0.0,64.0
11930,89.0,120,120,0.0,64.0
11931,65.0,0,120,12.0,64.0
11932,77.0,0,120,3.0,64.0
11933,77.0,5,120,11.0,64.0
11934,77.0,0,120,2.0,64.0
11935,58.0,0,840,13.0,64.0
11936,58.0,0,840,7.0,64.0
11937,74.0,0,120,3.0,64.0
11938,62.0,0,120,12.0,64.0
11939,74.0,0,120,2.0,64.0
11940,58.0,0,840,14.0,64.0
11941,70.0,0,840,6.0,64.0
11942,74.0,0,120,0.0,64.0
11943,74.0,0,120,11.0,64.0
11944,86.0,120,120,0.0,64.0
11945,77.0,0,120,0.0,64.0
11946,77.0,120,120,2.0,64.0
11947,65.0,0,120,12.0,64.0
11948,77.0,0,120,11.0,64.0
11949,89.0,0,120,0.0,64.0
11950,77.0,0,120,3.0,64.0
11951,75.0,0,120,11.0,64.0
11952,87.0,0,120,0.0,64.0
11953,75.0,0,120,0.0,64.0
11954,55.0,0,240,4.0,64.0
11955,55.0,0,240,5.0,64.0
11956,67.0,0,240,2.0,64.0
11957,75.0,0,120,3.0,64.0
11958,67.0,0,240,3.0,64.0
11959,67.0,0,240,5.0,64.0
11960,63.0,0,120,12.0,64.0
11961,75.0,115,120,2.0,64.0
11962,79.0,120,120,0.0,64.0
11963,79.0,0,120,3.0,64.0
11964,79.0,0,120,2.0,64.0
11965,67.0,5,120,12.0,64.0
11966,91.0,0,120,0.0,64.0
11967,79.0,0,120,11.0,64.0
11968,89.0,0,120,0.0,64.0
11969,77.0,115,120,11.0,64.0
11970,50.0,0,240,4.0,64.0
11971,77.0,0,120,3.0,64.0
11972,62.0,0,240,3.0,64.0
11973,62.0,0,240,5.0,64.0
11974,50.0,0,240,5.0,64.0
11975,77.0,0,120,2.0,64.0
11976,62.0,5,240,2.0,64.0
11977,65.0,0,120,12.0,64.0
11978,77.0,0,120,0.0,64.0
11979,70.0,0,120,12.0,64.0
11980,70.0,0,120,3.0,64.0
11981,94.0,0,120,0.0,64.0
11982,82.0,120,120,2.0,64.0
11983,82.0,0,120,0.0,64.0
11984,82.0,0,120,11.0,64.0
11985,62.0,0,240,5.0,64.0
11986,80.0,115,120,2.0,64.0
11987,80.0,0,120,11.0,64.0
11988,62.0,120,240,3.0,64.0
11989,80.0,0,120,0.0,64.0
11990,68.0,0,120,3.0,64.0
11991,68.0,0,120,12.0,64.0
11992,50.0,0,240,4.0,64.0
11993,62.0,0,240,2.0,64.0
11994,50.0,0,240,5.0,64.0
11995,92.0,0,120,0.0,64.0
11996,70.0,0,120,12.0,64.0
11997,94.0,0,120,0.0,64.0
11998,82.0,0,120,11.0,64.0
11999,70.0,0,120,3.0,64.0
12000,82.0,5,120,0.0,64.0
12001,82.0,0,120,2.0,64.0
12002,91.0,0,120,0.0,64.0
12003,63.0,0,390,5.0,64.0
12004,63.0,0,390,2.0,64.0
12005,79.0,0,120,11.0,64.0
12006,60.0,0,390,14.0,64.0
12007,60.0,0,390,13.0,64.0
12008,63.0,75,390,3.0,64.0
12009,79.0,0,120,2.0,64.0
12010,67.0,0,120,12.0,64.0
12011,72.0,0,390,6.0,64.0
12012,60.0,0,390,7.0,64.0
12013,67.0,120,120,3.0,64.0
12014,51.0,0,390,4.0,64.0
12015,79.0,0,120,0.0,64.0
12016,51.0,0,390,5.0,64.0
12017,72.0,0,120,12.0,64.0
12018,72.0,0,120,3.0,64.0
12019,84.0,0,120,2.0,64.0
12020,84.0,0,120,0.0,64.0
12021,96.0,0,120,0.0,64.0
12022,84.0,120,120,11.0,64.0
12023,94.0,0,120,0.0,64.0
12024,70.0,0,120,3.0,64.0
12025,82.0,0,120,2.0,64.0
12026,70.0,40,120,12.0,64.0
12027,82.0,0,120,0.0,64.0
12028,82.0,0,120,11.0,64.0
12029,84.0,0,120,11.0,64.0
12030,72.0,0,120,3.0,64.0
12031,84.0,0,120,0.0,64.0
12032,84.0,0,120,2.0,64.0
12033,72.0,5,120,12.0,64.0
12034,96.0,120,120,0.0,64.0
12035,68.0,0,120,3.0,64.0
12036,65.0,0,840,6.0,64.0
12037,80.0,0,120,2.0,64.0
12038,53.0,115,840,14.0,64.0
12039,68.0,0,120,12.0,64.0
12040,80.0,120,120,11.0,64.0
12041,92.0,0,120,0.0,64.0
12042,53.0,0,840,13.0,64.0
12043,53.0,0,840,7.0,64.0
12044,80.0,0,120,0.0,64.0
12045,72.0,0,120,12.0,64.0
12046,72.0,120,120,3.0,64.0
12047,84.0,0,120,11.0,64.0
12048,84.0,0,120,2.0,64.0
12049,84.0,0,120,0.0,64.0
12050,96.0,0,120,0.0,64.0
12051,70.0,115,120,12.0,64.0
12052,53.0,0,240,5.0,64.0
12053,82.0,0,120,0.0,64.0
12054,65.0,5,240,2.0,64.0
12055,53.0,0,240,4.0,64.0
12056,82.0,0,120,2.0,64.0
12057,65.0,0,240,5.0,64.0
12058,82.0,0,120,11.0,64.0
12059,65.0,0,240,3.0,64.0
12060,94.0,0,120,0.0,64.0
12061,70.0,0,120,3.0,64.0
12062,96.0,0,120,0.0,64.0
12063,72.0,0,120,12.0,64.0
12064,84.0,0,120,11.0,64.0
12065,84.0,120,120,2.0,64.0
12066,84.0,0,120,0.0,64.0
12067,80.0,0,120,0.0,64.0
12068,80.0,0,120,11.0,64.0
12069,72.0,5,240,2.0,64.0
12070,68.0,0,120,12.0,64.0
12071,92.0,115,120,0.0,64.0
12072,60.0,0,240,5.0,64.0
12073,68.0,0,120,3.0,64.0
12074,48.0,0,240,5.0,64.0
12075,72.0,0,15,3.0,64.0
12076,80.0,0,120,2.0,64.0
12077,48.0,0,240,4.0,64.0
12078,70.0,0,120,3.0,64.0
12079,82.0,0,120,11.0,64.0
12080,82.0,120,120,0.0,64.0
12081,94.0,0,120,0.0,64.0
12082,70.0,0,120,12.0,64.0
12083,82.0,0,120,2.0,64.0
12084,67.0,0,120,3.0,64.0
12085,79.0,0,120,2.0,64.0
12086,72.0,0,240,3.0,64.0
12087,67.0,0,120,12.0,64.0
12088,60.0,0,240,5.0,64.0
12089,48.0,120,240,4.0,64.0
12090,48.0,0,240,5.0,64.0
12091,91.0,0,120,0.0,64.0
12092,79.0,0,120,0.0,64.0
12093,72.0,0,240,2.0,64.0
12094,79.0,0,120,11.0,64.0
12095,80.0,0,120,2.0,64.0
12096,92.0,0,120,0.0,64.0
12097,68.0,0,120,3.0,64.0
12098,68.0,0,120,12.0,64.0
12099,80.0,5,120,0.0,64.0
12100,80.0,0,120,11.0,64.0
12101,74.0,0,390,3.0,64.0
12102,62.0,0,390,5.0,64.0
12103,50.0,0,390,5.0,64.0
12104,77.0,120,120,2.0,64.0
12105,74.0,0,390,2.0,64.0
12106,77.0,0,120,0.0,64.0
12107,70.0,0,390,6.0,64.0
12108,77.0,0,120,11.0,64.0
12109,65.0,0,120,12.0,64.0
12110,89.0,0,120,0.0,64.0
12111,58.0,0,390,7.0,64.0
12112,58.0,75,390,13.0,64.0
12113,50.0,0,390,4.0,64.0
12114,58.0,0,390,14.0,64.0
12115,65.0,0,120,3.0,64.0
12116,70.0,120,120,12.0,64.0
12117,94.0,0,120,0.0,64.0
12118,82.0,0,120,0.0,64.0
12119,70.0,0,120,3.0,64.0
12120,82.0,0,120,11.0,64.0
12121,82.0,0,120,2.0,64.0
12122,80.0,0,120,0.0,64.0
12123,68.0,0,120,12.0,64.0
12124,80.0,0,120,11.0,64.0
12125,80.0,0,120,2.0,64.0
12126,92.0,40,120,0.0,64.0
12127,68.0,0,120,3.0,64.0
12128,94.0,0,120,0.0,64.0
12129,70.0,5,120,12.0,64.0
12130,82.0,0,120,0.0,64.0
12131,82.0,120,120,2.0,64.0
12132,70.0,0,120,3.0,64.0
12133,82.0,0,120,11.0,64.0
12134,63.0,80,630,5.0,64.0
12135,63.0,0,630,6.0,64.0
12136,67.0,0,120,12.0,64.0
12137,75.0,0,240,2.0,64.0
12138,51.0,0,630,14.0,64.0
12139,51.0,0,240,4.0,64.0
12140,91.0,0,120,0.0,64.0
12141,79.0,0,120,2.0,64.0
12142,51.0,0,630,13.0,64.0
12143,67.0,0,120,3.0,64.0
12144,51.0,0,630,7.0,64.0
12145,79.0,0,120,11.0,64.0
12146,75.0,0,240,3.0,64.0
12147,79.0,120,120,0.0,64.0
12148,82.0,0,120,11.0,64.0
12149,82.0,0,120,2.0,64.0
12150,70.0,0,120,12.0,64.0
12151,94.0,0,120,0.0,64.0
12152,70.0,0,120,3.0,64.0
12153,82.0,120,120,0.0,64.0
12154,80.0,0,120,2.0,64.0
12155,92.0,0,120,0.0,64.0
12156,70.0,0,240,2.0,64.0
12157,68.0,0,120,3.0,64.0
12158,80.0,0,120,0.0,64.0
12159,80.0,115,120,11.0,64.0
12160,46.0,5,240,4.0,64.0
12161,68.0,0,120,12.0,64.0
12162,82.0,0,120,11.0,64.0
12163,94.0,0,120,0.0,64.0
12164,70.0,0,120,12.0,64.0
12165,70.0,0,120,3.0,64.0
12166,82.0,120,120,0.0,64.0
12167,82.0,0,120,2.0,64.0
12168,75.0,75,390,3.0,64.0
12169,79.0,0,120,11.0,64.0
12170,67.0,40,120,3.0,64.0
12171,51.0,0,390,4.0,64.0
12172,79.0,0,120,2.0,64.0
12173,79.0,0,120,0.0,64.0
12174,75.0,0,390,2.0,64.0
12175,91.0,0,120,0.0,64.0
12176,67.0,0,120,12.0,64.0
12177,68.0,0,120,12.0,64.0
12178,80.0,0,120,0.0,64.0
12179,80.0,0,120,11.0,64.0
12180,80.0,120,120,2.0,64.0
12181,92.0,0,120,0.0,64.0
12182,68.0,0,120,3.0,64.0
12183,65.0,0,120,3.0,64.0
12184,77.0,0,120,0.0,64.0
12185,65.0,0,120,12.0,64.0
12186,51.0,120,240,7.0,64.0
12187,51.0,0,240,14.0,64.0
12188,51.0,0,120,5.0,64.0
12189,51.0,0,240,13.0,64.0
12190,77.0,0,120,11.0,64.0
12191,89.0,40,120,0.0,64.0
12192,63.0,0,240,6.0,64.0
12193,77.0,0,120,2.0,64.0
12194,67.0,0,120,3.0,64.0
12195,79.0,0,120,0.0,64.0
12196,67.0,0,120,12.0,64.0
12197,91.0,0,120,0.0,64.0
12198,79.0,5,120,11.0,64.0
12199,79.0,0,120,2.0,64.0
12200,75.0,120,120,3.0,64.0
12201,63.0,0,120,3.0,64.0
12202,53.0,0,240,13.0,64.0
12203,87.0,0,120,0.0,64.0
12204,53.0,0,240,5.0,64.0
12205,65.0,0,240,6.0,64.0
12206,75.0,0,120,11.0,64.0
12207,75.0,0,120,2.0,64.0
12208,53.0,0,240,14.0,64.0
12209,63.0,0,120,12.0,64.0
12210,53.0,0,240,7.0,64.0
12211,75.0,0,120,0.0,64.0
12212,65.0,0,120,12.0,64.0
12213,77.0,0,120,0.0,64.0
12214,77.0,0,120,11.0,64.0
12215,77.0,0,120,2.0,64.0
12216,89.0,120,120,0.0,64.0
12217,65.0,0,120,3.0,64.0
12218,77.0,0,120,3.0,64.0
12219,55.0,0,240,7.0,64.0
12220,62.0,0,120,3.0,64.0
12221,67.0,120,240,6.0,64.0
12222,74.0,0,120,11.0,64.0
12223,55.0,0,240,13.0,64.0
12224,74.0,0,120,0.0,64.0
12225,74.0,0,120,3.0,64.0
12226,74.0,0,120,2.0,64.0
12227,55.0,0,240,14.0,64.0
12228,55.0,0,240,5.0,64.0
12229,86.0,0,120,0.0,64.0
12230,62.0,115,120,12.0,64.0
12231,63.0,0,120,3.0,64.0
12232,75.0,0,120,2.0,64.0
12233,75.0,0,120,3.0,64.0
12234,87.0,0,120,0.0,64.0
12235,75.0,5,120,0.0,64.0
12236,63.0,0,120,12.0,64.0
12237,75.0,0,120,11.0,64.0
12238,84.0,0,240,0.0,64.0
12239,56.0,75,390,14.0,64.0
12240,68.0,120,480,6.0,64.0
12241,56.0,120,120,13.0,64.0
12242,72.0,0,240,3.0,64.0
12243,56.0,0,480,7.0,64.0
12244,72.0,0,240,11.0,64.0
12245,60.0,0,240,12.0,64.0
12246,72.0,0,240,2.0,64.0
12247,60.0,0,240,3.0,64.0
12248,56.0,0,480,5.0,64.0
12249,72.0,0,240,0.0,64.0
12250,60.0,120,120,13.0,64.0
12251,75.0,0,240,3.0,64.0
12252,75.0,0,240,0.0,64.0
12253,87.0,0,240,0.0,64.0
12254,75.0,0,240,11.0,64.0
12255,63.0,0,240,12.0,64.0
12256,75.0,0,240,2.0,64.0
12257,63.0,0,240,3.0,64.0
12258,56.0,40,120,13.0,64.0
12259,60.0,5,120,13.0,64.0
12260,80.0,0,240,11.0,64.0
12261,53.0,75,390,14.0,64.0
12262,68.0,0,240,12.0,64.0
12263,68.0,0,240,3.0,64.0
12264,65.0,0,480,6.0,64.0
12265,80.0,0,240,3.0,64.0
12266,80.0,0,240,0.0,64.0
12267,80.0,0,240,2.0,64.0
12268,92.0,0,240,0.0,64.0
12269,53.0,120,480,5.0,64.0
12270,53.0,120,120,13.0,64.0
12271,53.0,0,480,7.0,64.0
12272,56.0,0,120,13.0,64.0
12273,72.0,5,240,11.0,64.0
12274,60.0,0,240,3.0,64.0
12275,60.0,0,240,12.0,64.0
12276,84.0,0,240,0.0,64.0
12277,72.0,0,240,0.0,64.0
12278,72.0,0,240,2.0,64.0
12279,53.0,40,120,13.0,64.0
12280,72.0,0,240,3.0,64.0
12281,56.0,0,120,13.0,64.0
12282,50.0,120,120,13.0,64.0
12283,50.0,0,480,7.0,64.0
12284,70.0,0,240,0.0,64.0
12285,70.0,0,240,3.0,64.0
12286,58.0,0,240,3.0,64.0
12287,70.0,0,240,11.0,64.0
12288,62.0,0,480,6.0,64.0
12289,70.0,0,240,2.0,64.0
12290,82.0,0,240,0.0,64.0
12291,50.0,120,480,5.0,64.0
12292,50.0,75,390,14.0,64.0
12293,58.0,120,240,12.0,64.0
12294,53.0,0,120,13.0,64.0
12295,80.0,0,240,3.0,64.0
12296,80.0,0,240,11.0,64.0
12297,68.0,0,240,3.0,64.0
12298,80.0,0,240,2.0,64.0
12299,92.0,0,240,0.0,64.0
12300,80.0,0,240,0.0,64.0
12301,50.0,40,120,13.0,64.0
12302,68.0,0,240,12.0,64.0
12303,53.0,0,120,13.0,64.0
12304,70.0,0,240,11.0,64.0
12305,63.0,0,390,6.0,64.0
12306,51.0,75,390,5.0,64.0
12307,51.0,0,390,7.0,64.0
12308,70.0,0,240,0.0,64.0
12309,70.0,0,240,2.0,64.0
12310,51.0,0,390,14.0,64.0
12311,55.0,120,120,13.0,64.0
12312,70.0,120,240,3.0,64.0
12313,58.0,0,240,3.0,64.0
12314,82.0,0,240,0.0,64.0
12315,58.0,0,240,12.0,64.0
12316,58.0,0,120,13.0,64.0
12317,74.0,0,240,0.0,64.0
12318,86.0,0,240,0.0,64.0
12319,74.0,120,240,3.0,64.0
12320,62.0,0,240,3.0,64.0
12321,55.0,40,120,13.0,64.0
12322,74.0,0,240,2.0,64.0
12323,74.0,5,240,11.0,64.0
12324,62.0,0,240,12.0,64.0
12325,58.0,0,120,13.0,64.0
12326,63.0,0,480,5.0,64.0
12327,79.0,0,240,0.0,64.0
12328,67.0,0,240,12.0,64.0
12329,79.0,120,240,3.0,64.0
12330,75.0,120,480,6.0,64.0
12331,51.0,120,120,13.0,64.0
12332,91.0,0,240,0.0,64.0
12333,67.0,0,240,3.0,64.0
12334,79.0,0,240,11.0,64.0
12335,63.0,0,480,7.0,64.0
12336,79.0,0,240,2.0,64.0
12337,55.0,0,120,13.0,64.0
12338,82.0,0,240,0.0,64.0
12339,58.0,5,240,12.0,64.0
12340,70.0,0,240,2.0,64.0
12341,51.0,115,120,13.0,64.0
12342,58.0,0,240,3.0,64.0
12343,70.0,0,240,11.0,64.0
12344,70.0,0,240,0.0,64.0
12345,70.0,0,240,3.0,64.0
12346,55.0,0,120,13.0,64.0
12347,80.0,0,240,0.0,64.0
12348,56.0,0,240,12.0,64.0
12349,68.0,0,240,2.0,64.0
12350,60.0,120,480,7.0,64.0
12351,60.0,0,480,5.0,64.0
12352,48.0,120,120,13.0,64.0
12353,68.0,0,240,3.0,64.0
12354,68.0,0,240,11.0,64.0
12355,56.0,0,240,3.0,64.0
12356,68.0,0,240,0.0,64.0
12357,72.0,0,480,6.0,64.0
12358,51.0,0,120,13.0,64.0
12359,67.0,0,240,12.0,64.0
12360,67.0,0,240,3.0,64.0
12361,48.0,115,120,13.0,64.0
12362,79.0,0,240,11.0,64.0
12363,79.0,0,240,0.0,64.0
12364,79.0,0,240,3.0,64.0
12365,91.0,0,240,0.0,64.0
12366,79.0,0,240,2.0,64.0
12367,51.0,0,120,13.0,64.0
12368,56.0,120,240,12.0,64.0
12369,74.0,0,480,6.0,64.0
12370,68.0,0,240,0.0,64.0
12371,80.0,0,240,0.0,64.0
12372,56.0,0,240,3.0,64.0
12373,68.0,0,240,11.0,64.0
12374,62.0,0,480,7.0,64.0
12375,68.0,0,240,3.0,64.0
12376,62.0,120,480,5.0,64.0
12377,68.0,0,240,2.0,64.0
12378,53.0,120,120,13.0,64.0
12379,56.0,0,120,13.0,64.0
12380,72.0,0,240,11.0,64.0
12381,60.0,0,240,3.0,64.0
12382,72.0,0,240,0.0,64.0
12383,53.0,115,120,13.0,64.0
12384,72.0,0,240,3.0,64.0
12385,84.0,0,240,0.0,64.0
12386,60.0,5,240,12.0,64.0
12387,72.0,0,240,2.0,64.0
12388,56.0,0,120,13.0,64.0
12389,77.0,0,240,0.0,64.0
12390,89.0,120,240,0.0,64.0
12391,65.0,0,240,3.0,64.0
12392,58.0,0,480,7.0,64.0
12393,77.0,0,240,2.0,64.0
12394,65.0,0,240,12.0,64.0
12395,77.0,0,240,3.0,64.0
12396,77.0,0,240,11.0,64.0
12397,58.0,0,480,5.0,64.0
12398,50.0,120,120,13.0,64.0
12399,70.0,0,480,6.0,64.0
12400,53.0,0,120,13.0,64.0
12401,68.0,0,240,3.0,64.0
12402,56.0,0,240,12.0,64.0
12403,50.0,115,120,13.0,64.0
12404,68.0,0,240,2.0,64.0
12405,68.0,0,240,0.0,64.0
12406,68.0,0,240,11.0,64.0
12407,80.0,0,240,0.0,64.0
12408,56.0,0,240,3.0,64.0
12409,53.0,5,120,13.0,64.0
12410,55.0,0,390,7.0,64.0
12411,55.0,0,240,3.0,64.0
12412,67.0,0,240,3.0,64.0
12413,67.0,0,240,0.0,64.0
12414,67.0,0,240,2.0,64.0
12415,58.0,120,120,13.0,64.0
12416,55.0,75,390,5.0,64.0
12417,67.0,0,390,6.0,64.0
12418,67.0,0,240,11.0,64.0
12419,79.0,0,240,0.0,64.0
12420,55.0,0,240,12.0,64.0
12421,62.0,120,120,13.0,64.0
12422,89.0,0,240,0.0,64.0
12423,77.0,0,240,2.0,64.0
12424,65.0,0,240,12.0,64.0
12425,65.0,0,240,3.0,64.0
12426,77.0,125,240,11.0,64.0
12427,77.0,0,240,3.0,64.0
12428,77.0,0,240,0.0,64.0
12429,58.0,40,120,13.0,64.0
12430,62.0,0,120,13.0,64.0
12431,55.0,0,240,12.0,64.0
12432,55.0,120,240,3.0,64.0
12433,60.0,120,480,7.0,64.0
12434,67.0,0,240,0.0,64.0
12435,51.0,120,120,13.0,64.0
12436,72.0,0,480,6.0,64.0
12437,67.0,0,240,3.0,64.0
12438,67.0,0,240,2.0,64.0
12439,67.0,0,240,11.0,64.0
12440,60.0,0,480,5.0,64.0
12441,79.0,0,240,0.0,64.0
12442,55.0,0,120,13.0,64.0
12443,70.0,0,240,3.0,64.0
12444,82.0,0,240,0.0,64.0
12445,70.0,0,240,2.0,64.0
12446,58.0,0,240,12.0,64.0
12447,70.0,5,240,11.0,64.0
12448,58.0,0,240,3.0,64.0
12449,51.0,115,120,13.0,64.0
12450,70.0,0,240,0.0,64.0
12451,55.0,0,120,13.0,64.0
12452,56.0,0,480,5.0,64.0
12453,75.0,0,240,2.0,64.0
12454,87.0,0,240,0.0,64.0
12455,63.0,0,240,12.0,64.0
12456,48.0,120,120,13.0,64.0
12457,75.0,0,240,11.0,64.0
12458,68.0,0,480,6.0,64.0
12459,75.0,0,240,0.0,64.0
12460,63.0,0,240,3.0,64.0
12461,75.0,0,240,3.0,64.0
12462,56.0,120,480,7.0,64.0
12463,51.0,0,120,13.0,64.0
12464,55.0,0,240,3.0,64.0
12465,67.0,0,240,11.0,64.0
12466,48.0,115,120,13.0,64.0
12467,67.0,0,240,3.0,64.0
12468,79.0,0,240,0.0,64.0
12469,67.0,0,240,0.0,64.0
12470,55.0,5,240,12.0,64.0
12471,67.0,0,240,2.0,64.0
12472,51.0,0,120,13.0,64.0
12473,53.0,0,240,3.0,64.0
12474,77.0,0,240,0.0,64.0
12475,57.0,120,120,13.0,64.0
12476,65.0,0,480,6.0,64.0
12477,53.0,120,480,5.0,64.0
12478,53.0,0,480,7.0,64.0
12479,65.0,0,240,2.0,64.0
12480,65.0,0,240,0.0,64.0
12481,65.0,0,240,11.0,64.0
12482,57.0,0,240,12.0,64.0
12483,65.0,0,240,3.0,64.0
12484,60.0,0,120,13.0,64.0
12485,87.0,0,240,0.0,64.0
12486,75.0,0,240,3.0,64.0
12487,63.0,0,240,3.0,64.0
12488,75.0,0,240,0.0,64.0
12489,63.0,0,240,12.0,64.0
12490,75.0,0,240,2.0,64.0
12491,57.0,115,120,13.0,64.0
12492,75.0,0,240,11.0,64.0
12493,60.0,0,120,13.0,64.0
12494,62.0,0,120,3.0,64.0
12495,55.0,0,480,7.0,64.0
12496,62.0,0,120,12.0,64.0
12497,74.0,120,120,11.0,64.0
12498,55.0,0,480,5.0,64.0
12499,74.0,0,120,3.0,64.0
12500,58.0,120,600,13.0,64.0
12501,67.0,0,480,6.0,64.0
12502,74.0,0,120,0.0,64.0
12503,86.0,0,120,0.0,64.0
12504,74.0,0,120,2.0,64.0
12505,77.0,0,120,11.0,64.0
12506,65.0,0,120,3.0,64.0
12507,65.0,0,120,12.0,64.0
12508,77.0,0,120,0.0,64.0
12509,77.0,0,120,3.0,64.0
12510,89.0,120,120,0.0,64.0
12511,77.0,0,120,2.0,64.0
12512,74.0,0,120,3.0,64.0
12513,74.0,0,120,0.0,64.0
12514,74.0,0,120,11.0,64.0
12515,62.0,0,120,3.0,64.0
12516,74.0,0,120,2.0,64.0
12517,62.0,115,120,12.0,64.0
12518,86.0,0,120,0.0,64.0
12519,77.0,0,120,2.0,64.0
12520,89.0,0,120,0.0,64.0
12521,65.0,115,120,3.0,64.0
12522,65.0,5,120,12.0,64.0
12523,77.0,0,120,11.0,64.0
12524,77.0,0,120,0.0,64.0
12525,77.0,0,120,3.0,64.0
12526,82.0,0,240,0.0,64.0
12527,70.0,0,240,2.0,64.0
12528,70.0,120,240,11.0,64.0
12529,70.0,5,240,0.0,64.0
12530,58.0,0,240,3.0,64.0
12531,58.0,0,390,5.0,64.0
12532,58.0,0,390,7.0,64.0
12533,70.0,0,240,3.0,64.0
12534,70.0,75,390,6.0,64.0
12535,58.0,0,240,12.0,64.0
12536,62.0,0,120,13.0,64.0
12537,69.0,0,120,11.0,64.0
12538,69.0,0,120,3.0,64.0
12539,69.0,0,120,2.0,64.0
12540,60.0,0,120,13.0,64.0
12541,81.0,0,120,0.0,64.0
12542,69.0,40,120,0.0,64.0
12543,57.0,0,120,3.0,64.0
12544,57.0,0,120,12.0,64.0
12545,55.0,0,120,3.0,64.0
12546,79.0,0,120,0.0,64.0
12547,67.0,0,120,3.0,64.0
12548,55.0,0,120,12.0,64.0
12549,63.0,5,120,13.0,64.0
12550,67.0,0,120,2.0,64.0
12551,67.0,0,120,11.0,64.0
12552,67.0,0,120,0.0,64.0
12553,62.0,120,240,12.0,64.0
12554,65.0,0,240,11.0,64.0
12555,46.0,0,390,4.0,64.0
12556,58.0,0,390,4.0,64.0
12557,58.0,75,390,3.0,64.0
12558,62.0,115,120,13.0,64.0
12559,58.0,0,390,5.0,64.0
12560,77.0,5,240,0.0,64.0
12561,65.0,0,240,2.0,64.0
12562,65.0,0,240,0.0,64.0
12563,70.0,0,390,3.0,64.0
12564,65.0,0,120,13.0,64.0
12565,79.0,0,240,0.0,64.0
12566,67.0,5,240,11.0,64.0
12567,63.0,40,120,13.0,64.0
12568,67.0,0,240,0.0,64.0
12569,63.0,0,240,12.0,64.0
12570,67.0,0,240,2.0,64.0
12571,67.0,0,120,13.0,64.0
12572,65.0,120,240,12.0,64.0
12573,77.0,115,840,3.0,64.0
12574,69.0,0,240,2.0,64.0
12575,53.0,0,840,4.0,64.0
12576,65.0,0,840,4.0,64.0
12577,65.0,0,840,3.0,64.0
12578,69.0,0,240,11.0,64.0
12579,69.0,0,240,0.0,64.0
12580,65.0,120,120,13.0,64.0
12581,81.0,0,240,0.0,64.0
12582,65.0,0,840,5.0,64.0
12583,67.0,0,120,13.0,64.0
12584,62.0,0,240,12.0,64.0
12585,65.0,115,120,13.0,64.0
12586,74.0,0,240,11.0,64.0
12587,86.0,120,240,0.0,64.0
12588,74.0,0,240,6.0,64.0
12589,74.0,0,240,0.0,64.0
12590,74.0,0,240,2.0,64.0
12591,63.0,0,120,13.0,64.0
12592,81.0,0,240,0.0,64.0
12593,62.0,115,120,13.0,64.0
12594,69.0,0,240,0.0,64.0
12595,69.0,0,240,11.0,64.0
12596,57.0,0,240,12.0,64.0
12597,69.0,0,240,6.0,64.0
12598,69.0,0,240,2.0,64.0
12599,65.0,120,120,13.0,64.0
12600,69.0,0,240,0.0,64.0
12601,69.0,0,240,6.0,64.0
12602,57.0,0,240,12.0,64.0
12603,69.0,0,240,11.0,64.0
12604,63.0,0,120,13.0,64.0
12605,69.0,0,240,2.0,64.0
12606,81.0,0,240,0.0,64.0
12607,65.0,5,120,13.0,64.0
12608,82.0,0,390,0.0,64.0
12609,70.0,0,390,0.0,64.0
12610,50.0,0,390,4.0,64.0
12611,58.0,0,390,12.0,64.0
12612,70.0,75,390,6.0,64.0
12613,62.0,0,390,4.0,64.0
12614,62.0,0,390,5.0,64.0
12615,58.0,120,240,13.0,64.0
12616,74.0,0,390,3.0,64.0
12617,70.0,0,390,11.0,64.0
12618,62.0,0,390,3.0,64.0
12619,70.0,0,390,2.0,64.0
12620,57.0,40,120,13.0,64.0
12621,58.0,125,120,13.0,64.0
12622,63.0,0,840,5.0,64.0
12623,55.0,120,120,13.0,64.0
12624,63.0,0,840,3.0,64.0
12625,75.0,115,840,3.0,64.0
12626,63.0,0,840,4.0,64.0
12627,51.0,0,840,4.0,64.0
12628,58.0,120,120,13.0,64.0
12629,79.0,0,240,0.0,64.0
12630,55.0,115,120,13.0,64.0
12631,79.0,0,240,6.0,64.0
12632,79.0,0,240,2.0,64.0
12633,79.0,0,240,11.0,64.0
12634,67.0,120,240,12.0,64.0
12635,91.0,0,240,0.0,64.0
12636,58.0,5,120,13.0,64.0
12637,72.0,0,240,2.0,64.0
12638,72.0,0,240,11.0,64.0
12639,55.0,115,120,13.0,64.0
12640,84.0,0,240,0.0,64.0
12641,72.0,0,240,6.0,64.0
12642,60.0,5,240,12.0,64.0
12643,72.0,0,240,0.0,64.0
12644,56.0,120,120,13.0,64.0
12645,72.0,0,240,11.0,64.0
12646,72.0,0,240,6.0,64.0
12647,84.0,0,240,0.0,64.0
12648,60.0,120,240,12.0,64.0
12649,72.0,0,240,2.0,64.0
12650,55.0,0,120,13.0,64.0
12651,72.0,0,240,0.0,64.0
12652,56.0,5,120,13.0,64.0
12653,53.0,120,120,13.0,64.0
12654,65.0,0,390,4.0,64.0
12655,74.0,0,390,6.0,64.0
12656,53.0,0,390,4.0,64.0
12657,74.0,0,390,0.0,64.0
12658,65.0,0,390,5.0,64.0
12659,74.0,0,390,11.0,64.0
12660,74.0,0,390,2.0,64.0
12661,86.0,0,390,0.0,64.0
12662,77.0,75,390,3.0,64.0
12663,62.0,0,390,12.0,64.0
12664,65.0,0,390,3.0,64.0
12665,56.0,120,120,13.0,64.0
12666,53.0,40,120,13.0,64.0
12667,56.0,125,120,13.0,64.0
12668,51.0,120,120,13.0,64.0
12669,79.0,0,840,3.0,64.0
12670,67.0,115,840,3.0,64.0
12671,67.0,0,840,5.0,64.0
12672,67.0,0,840,4.0,64.0
12673,55.0,0,840,4.0,64.0
12674,55.0,120,120,13.0,64.0
12675,75.0,0,240,11.0,64.0
12676,87.0,0,240,0.0,64.0
12677,63.0,0,240,12.0,64.0
12678,75.0,0,240,2.0,64.0
12679,75.0,0,240,0.0,64.0
12680,75.0,0,240,6.0,64.0
12681,53.0,115,120,13.0,64.0
12682,56.0,5,120,13.0,64.0
12683,70.0,0,240,11.0,64.0
12684,58.0,0,240,12.0,64.0
12685,55.0,115,120,13.0,64.0
12686,70.0,0,240,6.0,64.0
12687,70.0,0,240,2.0,64.0
12688,70.0,0,240,0.0,64.0
12689,82.0,0,240,0.0,64.0
12690,58.0,120,120,13.0,64.0
12691,82.0,0,240,0.0,64.0
12692,51.0,0,120,13.0,64.0
12693,70.0,0,240,0.0,64.0
12694,70.0,0,240,2.0,64.0
12695,70.0,0,240,6.0,64.0
12696,58.0,120,240,12.0,64.0
12697,70.0,0,240,11.0,64.0
12698,55.0,5,120,13.0,64.0
12699,72.0,0,390,0.0,64.0
12700,51.0,0,390,4.0,64.0
12701,72.0,0,390,11.0,64.0
12702,60.0,120,120,13.0,64.0
12703,72.0,0,390,6.0,64.0
12704,63.0,0,390,3.0,64.0
12705,63.0,0,390,5.0,64.0
12706,75.0,0,390,3.0,64.0
12707,63.0,75,390,4.0,64.0
12708,72.0,0,390,2.0,64.0
12709,84.0,0,390,0.0,64.0
12710,60.0,0,390,12.0,64.0
12711,63.0,120,120,13.0,64.0
12712,62.0,40,120,13.0,64.0
12713,60.0,245,120,13.0,64.0
12714,53.0,0,840,4.0,64.0
12715,58.0,0,390,13.0,64.0
12716,77.0,75,390,3.0,64.0
12717,65.0,40,840,5.0,64.0
12718,65.0,0,390,3.0,64.0
12719,65.0,0,840,4.0,64.0
12720,86.0,120,120,0.0,64.0
12721,74.0,0,120,11.0,64.0
12722,62.0,0,120,12.0,64.0
12723,74.0,0,120,2.0,64.0
12724,74.0,0,120,0.0,64.0
12725,72.0,0,120,0.0,64.0
12726,84.0,0,120,0.0,64.0
12727,72.0,0,120,11.0,64.0
12728,72.0,0,120,2.0,64.0
12729,60.0,0,120,12.0,64.0
12730,62.0,5,120,12.0,64.0
12731,74.0,0,120,0.0,64.0
12732,86.0,0,120,0.0,64.0
12733,74.0,0,120,11.0,64.0
12734,74.0,0,120,2.0,64.0
12735,63.0,75,390,12.0,64.0
12736,75.0,0,390,2.0,64.0
12737,75.0,0,390,11.0,64.0
12738,87.0,0,390,0.0,64.0
12739,75.0,0,390,0.0,64.0
12740,68.0,0,120,3.0,64.0
12741,80.0,0,120,3.0,64.0
12742,67.0,0,120,3.0,64.0
12743,79.0,0,120,3.0,64.0
12744,60.0,120,15,13.0,64.0
12745,80.0,120,120,3.0,64.0
12746,68.0,0,120,3.0,64.0
12747,65.0,0,390,12.0,64.0
12748,65.0,0,390,2.0,64.0
12749,77.0,0,390,2.0,64.0
12750,65.0,120,120,3.0,64.0
12751,77.0,0,390,11.0,64.0
12752,77.0,0,390,0.0,64.0
12753,77.0,0,120,3.0,64.0
12754,62.0,0,240,13.0,64.0
12755,82.0,120,120,3.0,64.0
12756,70.0,0,120,3.0,64.0
12757,68.0,40,120,3.0,64.0
12758,80.0,0,120,3.0,64.0
12759,62.0,5,240,13.0,64.0
12760,82.0,240,120,3.0,64.0
12761,70.0,0,120,3.0,64.0
12762,67.0,75,390,3.0,64.0
12763,79.0,0,390,3.0,64.0
12764,63.0,0,240,13.0,64.0
12765,79.0,0,120,0.0,64.0
12766,67.0,0,120,2.0,64.0
12767,79.0,0,120,2.0,64.0
12768,67.0,0,120,12.0,64.0
12769,79.0,0,120,11.0,64.0
12770,65.0,0,120,12.0,64.0
12771,51.0,5,240,13.0,64.0
12772,65.0,40,120,2.0,64.0
12773,77.0,0,120,11.0,64.0
12774,77.0,0,120,2.0,64.0
12775,77.0,0,120,0.0,64.0
12776,79.0,0,120,2.0,64.0
12777,67.0,0,120,2.0,64.0
12778,67.0,0,120,12.0,64.0
12779,79.0,0,120,11.0,64.0
12780,79.0,0,120,0.0,64.0
12781,68.0,0,390,2.0,64.0
12782,68.0,75,390,12.0,64.0
12783,80.0,0,390,11.0,64.0
12784,80.0,0,390,0.0,64.0
12785,80.0,0,390,2.0,64.0
12786,61.0,120,120,3.0,64.0
12787,73.0,0,120,3.0,64.0
12788,53.0,0,15,13.0,64.0
12789,60.0,40,120,3.0,64.0
12790,72.0,0,120,3.0,64.0
12791,73.0,0,120,3.0,64.0
12792,61.0,120,120,3.0,64.0
12793,82.0,75,390,11.0,64.0
12794,82.0,0,390,2.0,64.0
12795,70.0,0,390,12.0,64.0
12796,82.0,0,390,0.0,64.0
12797,70.0,0,390,2.0,64.0
12798,58.0,120,120,3.0,64.0
12799,70.0,0,120,3.0,64.0
12800,63.0,0,120,3.0,64.0
12801,75.0,0,120,3.0,64.0
12802,55.0,120,15,13.0,64.0
12803,73.0,0,120,3.0,64.0
12804,61.0,40,120,3.0,64.0
12805,75.0,240,120,3.0,64.0
12806,63.0,0,120,3.0,64.0
12807,56.0,120,240,13.0,64.0
12808,72.0,0,390,3.0,64.0
12809,60.0,75,390,3.0,64.0
12810,72.0,0,120,12.0,64.0
12811,84.0,0,120,0.0,64.0
12812,84.0,0,120,11.0,64.0
12813,84.0,0,120,2.0,64.0
12814,72.0,0,120,2.0,64.0
12815,70.0,40,120,12.0,64.0
12816,82.0,0,120,2.0,64.0
12817,82.0,0,120,0.0,64.0
12818,68.0,0,240,13.0,64.0
12819,82.0,0,120,11.0,64.0
12820,70.0,0,120,2.0,64.0
12821,84.0,0,120,11.0,64.0
12822,72.0,0,120,2.0,64.0
12823,84.0,0,120,0.0,64.0
12824,84.0,0,120,2.0,64.0
12825,72.0,5,120,12.0,64.0
12826,77.0,0,390,2.0,64.0
12827,65.0,0,390,12.0,64.0
12828,77.0,0,390,11.0,64.0
12829,62.0,0,240,13.0,64.0
12830,77.0,0,390,0.0,64.0
12831,65.0,0,390,2.0,64.0
12832,58.0,120,120,3.0,64.0
12833,70.0,0,120,3.0,64.0
12834,62.0,5,240,13.0,64.0
12835,56.0,40,120,3.0,64.0
12836,68.0,0,120,3.0,64.0
12837,70.0,120,120,3.0,64.0
12838,58.0,0,120,3.0,64.0
12839,67.0,0,390,2.0,64.0
12840,67.0,75,390,12.0,64.0
12841,79.0,0,390,11.0,64.0
12842,79.0,0,390,0.0,64.0
12843,55.0,120,120,3.0,64.0
12844,67.0,0,120,3.0,64.0
12845,79.0,0,390,2.0,64.0
12846,72.0,0,120,3.0,64.0
12847,60.0,0,120,3.0,64.0
12848,58.0,0,120,3.0,64.0
12849,64.0,120,15,13.0,64.0
12850,70.0,40,120,3.0,64.0
12851,60.0,0,120,3.0,64.0
12852,72.0,235,120,3.0,64.0
12853,65.0,75,390,13.0,64.0
12854,56.0,0,240,3.0,64.0
12855,68.0,5,240,3.0,64.0
12856,68.0,0,120,2.0,64.0
12857,68.0,0,120,12.0,64.0
12858,80.0,0,120,11.0,64.0
12859,80.0,0,120,0.0,64.0
12860,80.0,120,120,2.0,64.0
12861,67.0,0,120,12.0,64.0
12862,79.0,0,120,11.0,64.0
12863,67.0,0,120,2.0,64.0
12864,60.0,0,240,3.0,64.0
12865,79.0,0,120,2.0,64.0
12866,79.0,0,120,0.0,64.0
12867,72.0,0,240,3.0,64.0
12868,80.0,5,120,11.0,64.0
12869,80.0,0,120,2.0,64.0
12870,68.0,235,120,2.0,64.0
12871,68.0,0,120,12.0,64.0
12872,80.0,0,120,0.0,64.0
12873,74.0,0,240,2.0,64.0
12874,74.0,0,240,11.0,64.0
12875,74.0,0,240,0.0,64.0
12876,71.0,0,240,3.0,64.0
12877,62.0,0,240,2.0,64.0
12878,59.0,0,240,3.0,64.0
12879,86.0,5,240,0.0,64.0
12880,62.0,0,240,12.0,64.0
12881,67.0,120,120,13.0,64.0
12882,71.0,0,240,3.0,64.0
12883,62.0,0,240,2.0,64.0
12884,74.0,120,240,0.0,64.0
12885,74.0,0,240,2.0,64.0
12886,65.0,115,120,13.0,64.0
12887,62.0,0,240,12.0,64.0
12888,59.0,0,240,3.0,64.0
12889,86.0,0,240,0.0,64.0
12890,74.0,0,240,11.0,64.0
12891,67.0,5,120,13.0,64.0
12892,60.0,0,390,3.0,64.0
12893,72.0,0,390,3.0,64.0
12894,75.0,0,390,11.0,64.0
12895,63.0,0,390,2.0,64.0
12896,63.0,120,120,13.0,64.0
12897,63.0,0,390,12.0,64.0
12898,75.0,75,390,2.0,64.0
12899,87.0,0,390,0.0,64.0
12900,75.0,0,390,0.0,64.0
12901,68.0,120,120,13.0,64.0
12902,67.0,40,120,13.0,64.0
12903,68.0,245,120,13.0,64.0
12904,62.0,75,390,13.0,64.0
12905,74.0,0,120,3.0,64.0
12906,74.0,0,120,2.0,64.0
12907,89.0,0,120,0.0,64.0
12908,77.0,0,120,3.0,64.0
12909,77.0,0,120,0.0,64.0
12910,65.0,0,120,12.0,64.0
12911,77.0,120,120,11.0,64.0
12912,77.0,0,120,2.0,64.0
12913,75.0,0,120,3.0,64.0
12914,75.0,40,120,2.0,64.0
12915,72.0,0,120,3.0,64.0
12916,63.0,0,120,12.0,64.0
12917,72.0,0,120,2.0,64.0
12918,87.0,0,120,0.0,64.0
12919,75.0,0,120,0.0,64.0
12920,75.0,0,120,11.0,64.0
12921,74.0,0,120,3.0,64.0
12922,74.0,0,120,2.0,64.0
12923,89.0,235,120,0.0,64.0
12924,77.0,0,120,3.0,64.0
12925,65.0,5,120,12.0,64.0
12926,77.0,0,120,0.0,64.0
12927,77.0,0,120,11.0,64.0
12928,77.0,0,120,2.0,64.0
12929,72.0,5,240,2.0,64.0
12930,72.0,0,240,3.0,64.0
12931,60.0,0,240,12.0,64.0
12932,72.0,0,240,11.0,64.0
12933,69.0,0,240,3.0,64.0
12934,72.0,0,240,0.0,64.0
12935,84.0,0,240,0.0,64.0
12936,69.0,0,240,2.0,64.0
12937,65.0,120,120,13.0,64.0
12938,69.0,0,240,2.0,64.0
12939,72.0,0,240,0.0,64.0
12940,84.0,0,240,0.0,64.0
12941,69.0,0,240,3.0,64.0
12942,72.0,0,240,11.0,64.0
12943,63.0,115,120,13.0,64.0
12944,72.0,0,240,3.0,64.0
12945,60.0,120,240,12.0,64.0
12946,72.0,0,240,2.0,64.0
12947,65.0,5,120,13.0,64.0
12948,86.0,0,390,0.0,64.0
12949,74.0,0,390,2.0,64.0
12950,74.0,0,390,0.0,64.0
12951,74.0,0,390,11.0,64.0
12952,74.0,0,390,3.0,64.0
12953,62.0,120,120,13.0,64.0
12954,62.0,0,390,12.0,64.0
12955,71.0,0,390,3.0,64.0
12956,71.0,75,390,2.0,64.0
12957,67.0,120,120,13.0,64.0
12958,65.0,40,120,13.0,64.0
12959,67.0,245,120,13.0,64.0
12960,60.0,75,390,13.0,64.0
12961,72.0,120,120,12.0,64.0
12962,75.0,0,120,3.0,64.0
12963,72.0,0,120,3.0,64.0
12964,87.0,0,120,0.0,64.0
12965,75.0,0,120,2.0,64.0
12966,75.0,0,120,11.0,64.0
12967,72.0,0,120,2.0,64.0
12968,72.0,0,120,0.0,64.0
12969,86.0,0,120,0.0,64.0
12970,71.0,0,120,2.0,64.0
12971,74.0,0,120,11.0,64.0
12972,71.0,0,120,3.0,64.0
12973,74.0,0,120,3.0,64.0
12974,71.0,40,120,0.0,64.0
12975,71.0,0,120,12.0,64.0
12976,74.0,0,120,2.0,64.0
12977,72.0,0,120,3.0,64.0
12978,87.0,0,120,0.0,64.0
12979,72.0,0,120,12.0,64.0
12980,72.0,245,120,0.0,64.0
12981,72.0,0,120,2.0,64.0
12982,75.0,0,120,11.0,64.0
12983,75.0,0,120,2.0,64.0
12984,75.0,0,120,3.0,64.0
12985,69.0,75,390,13.0,64.0
12986,72.0,0,120,2.0,64.0
12987,72.0,0,120,0.0,64.0
12988,75.0,0,120,11.0,64.0
12989,87.0,120,120,0.0,64.0
12990,72.0,0,120,12.0,64.0
12991,75.0,0,120,3.0,64.0
12992,72.0,0,120,3.0,64.0
12993,75.0,0,120,2.0,64.0
12994,71.0,0,120,2.0,64.0
12995,74.0,0,120,11.0,64.0
12996,71.0,0,120,12.0,64.0
12997,71.0,0,120,0.0,64.0
12998,74.0,0,120,2.0,64.0
12999,71.0,0,120,3.0,64.0
13000,74.0,40,120,3.0,64.0
13001,86.0,0,120,0.0,64.0
13002,87.0,0,120,0.0,64.0
13003,75.0,0,120,2.0,64.0
13004,72.0,0,120,2.0,64.0
13005,72.0,245,120,12.0,64.0
13006,75.0,0,120,3.0,64.0
13007,75.0,0,120,11.0,64.0
13008,72.0,0,120,0.0,64.0
13009,72.0,0,120,3.0,64.0
13010,65.0,75,390,13.0,64.0
13011,72.0,120,120,3.0,64.0
13012,72.0,0,120,0.0,64.0
13013,72.0,0,120,2.0,64.0
13014,75.0,0,120,11.0,64.0
13015,87.0,0,120,0.0,64.0
13016,75.0,0,120,3.0,64.0
13017,72.0,0,120,12.0,64.0
13018,75.0,0,120,2.0,64.0
13019,74.0,0,120,11.0,64.0
13020,71.0,0,120,12.0,64.0
13021,71.0,40,120,2.0,64.0
13022,74.0,0,120,2.0,64.0
13023,71.0,0,120,0.0,64.0
13024,86.0,0,120,0.0,64.0
13025,71.0,0,120,3.0,64.0
13026,74.0,0,120,3.0,64.0
13027,72.0,245,120,0.0,64.0
13028,75.0,0,120,3.0,64.0
13029,72.0,0,120,12.0,64.0
13030,87.0,0,120,0.0,64.0
13031,72.0,0,120,3.0,64.0
13032,75.0,0,120,2.0,64.0
13033,72.0,0,120,2.0,64.0
13034,75.0,0,120,11.0,64.0
13035,58.0,75,390,13.0,64.0
13036,70.0,0,120,12.0,64.0
13037,70.0,0,120,3.0,64.0
13038,74.0,0,120,11.0,64.0
13039,86.0,0,120,0.0,64.0
13040,70.0,0,120,2.0,64.0
13041,74.0,120,120,3.0,64.0
13042,74.0,0,120,2.0,64.0
13043,70.0,0,120,0.0,64.0
13044,84.0,0,120,0.0,64.0
13045,69.0,0,120,3.0,64.0
13046,72.0,0,120,11.0,64.0
13047,69.0,0,120,0.0,64.0
13048,72.0,40,120,2.0,64.0
13049,69.0,0,120,2.0,64.0
13050,69.0,0,120,12.0,64.0
13051,72.0,0,120,3.0,64.0
13052,70.0,0,120,12.0,64.0
13053,74.0,0,120,11.0,64.0
13054,70.0,0,120,3.0,64.0
13055,70.0,0,120,2.0,64.0
13056,86.0,0,120,0.0,64.0
13057,74.0,245,120,3.0,64.0
13058,70.0,0,120,0.0,64.0
13059,74.0,0,120,2.0,64.0
13060,60.0,75,390,13.0,64.0
13061,72.0,0,120,2.0,64.0
13062,84.0,0,120,0.0,64.0
13063,69.0,120,120,12.0,64.0
13064,69.0,0,120,2.0,64.0
13065,69.0,0,120,3.0,64.0
13066,72.0,0,120,3.0,64.0
13067,72.0,0,120,11.0,64.0
13068,69.0,0,120,0.0,64.0
13069,82.0,0,120,0.0,64.0
13070,67.0,0,120,0.0,64.0
13071,70.0,0,120,2.0,64.0
13072,70.0,0,120,11.0,64.0
13073,67.0,0,120,12.0,64.0
13074,70.0,0,120,3.0,64.0
13075,67.0,0,120,3.0,64.0
13076,67.0,40,120,2.0,64.0
13077,69.0,0,120,0.0,64.0
13078,69.0,0,120,12.0,64.0
13079,72.0,245,120,3.0,64.0
13080,69.0,0,120,2.0,64.0
13081,84.0,0,120,0.0,64.0
13082,69.0,0,120,3.0,64.0
13083,72.0,0,120,2.0,64.0
13084,72.0,0,120,11.0,64.0
13085,62.0,75,390,13.0,64.0
13086,72.0,0,120,2.0,64.0
13087,69.0,0,120,2.0,64.0
13088,69.0,0,120,3.0,64.0
13089,84.0,0,120,0.0,64.0
13090,72.0,0,120,11.0,64.0
13091,69.0,0,120,0.0,64.0
13092,69.0,120,120,12.0,64.0
13093,72.0,0,120,3.0,64.0
13094,70.0,0,120,11.0,64.0
13095,70.0,0,120,2.0,64.0
13096,82.0,0,120,0.0,64.0
13097,67.0,0,120,3.0,64.0
13098,70.0,0,120,3.0,64.0
13099,67.0,40,120,0.0,64.0
13100,67.0,0,120,12.0,64.0
13101,67.0,0,120,2.0,64.0
13102,69.0,0,120,2.0,64.0
13103,69.0,0,120,3.0,64.0
13104,84.0,245,120,0.0,64.0
13105,72.0,0,120,3.0,64.0
13106,72.0,0,120,11.0,64.0
13107,69.0,0,120,12.0,64.0
13108,69.0,0,120,0.0,64.0
13109,72.0,0,120,2.0,64.0
13110,63.0,75,390,13.0,64.0
13111,70.0,0,120,2.0,64.0
13112,82.0,0,120,0.0,64.0
13113,67.0,120,120,3.0,64.0
13114,67.0,0,120,2.0,64.0
13115,67.0,0,120,0.0,64.0
13116,67.0,0,120,12.0,64.0
13117,70.0,0,120,11.0,64.0
13118,70.0,0,120,3.0,64.0
13119,66.0,0,120,2.0,64.0
13120,66.0,0,120,0.0,64.0
13121,66.0,0,120,12.0,64.0
13122,69.0,0,120,3.0,64.0
13123,81.0,40,120,0.0,64.0
13124,69.0,0,120,2.0,64.0
13125,69.0,0,120,11.0,64.0
13126,66.0,0,120,3.0,64.0
13127,67.0,0,120,0.0,64.0
13128,70.0,0,120,2.0,64.0
13129,70.0,0,120,11.0,64.0
13130,67.0,0,120,3.0,64.0
13131,70.0,0,120,3.0,64.0
13132,67.0,0,120,12.0,64.0
13133,67.0,245,120,2.0,64.0
13134,82.0,0,120,0.0,64.0
13135,62.0,75,390,13.0,64.0
13136,70.0,0,120,3.0,64.0
13137,67.0,0,120,12.0,64.0
13138,67.0,0,120,2.0,64.0
13139,82.0,0,120,0.0,64.0
13140,67.0,0,120,3.0,64.0
13141,70.0,0,120,2.0,64.0
13142,70.0,120,120,11.0,64.0
13143,67.0,0,120,0.0,64.0
13144,66.0,40,120,0.0,64.0
13145,81.0,0,120,0.0,64.0
13146,69.0,0,120,2.0,64.0
13147,69.0,0,120,3.0,64.0
13148,66.0,0,120,3.0,64.0
13149,66.0,0,120,2.0,64.0
13150,69.0,0,120,11.0,64.0
13151,66.0,0,120,12.0,64.0
13152,67.0,0,120,3.0,64.0
13153,70.0,0,120,2.0,64.0
13154,82.0,0,120,0.0,64.0
13155,70.0,0,120,11.0,64.0
13156,70.0,0,120,3.0,64.0
13157,67.0,0,120,2.0,64.0
13158,67.0,0,120,12.0,64.0
13159,67.0,245,120,0.0,64.0
13160,60.0,75,390,13.0,64.0
13161,72.0,0,120,11.0,64.0
13162,69.0,0,120,12.0,64.0
13163,72.0,0,120,2.0,64.0
13164,84.0,120,120,0.0,64.0
13165,69.0,0,120,0.0,64.0
13166,69.0,0,120,3.0,64.0
13167,69.0,0,120,2.0,64.0
13168,72.0,0,120,3.0,64.0
13169,70.0,0,120,11.0,64.0
13170,67.0,0,120,2.0,64.0
13171,67.0,0,120,0.0,64.0
13172,67.0,0,120,3.0,64.0
13173,70.0,40,120,3.0,64.0
13174,70.0,0,120,2.0,64.0
13175,82.0,0,120,0.0,64.0
13176,67.0,0,120,12.0,64.0
13177,72.0,0,120,11.0,64.0
13178,84.0,0,120,0.0,64.0
13179,69.0,0,120,2.0,64.0
13180,69.0,0,120,12.0,64.0
13181,69.0,0,120,0.0,64.0
13182,72.0,0,120,2.0,64.0
13183,72.0,245,120,3.0,64.0
13184,69.0,0,120,3.0,64.0
13185,62.0,75,390,13.0,64.0
13186,66.0,0,120,0.0,64.0
13187,66.0,0,120,2.0,64.0
13188,66.0,0,120,12.0,64.0
13189,81.0,0,120,0.0,64.0
13190,66.0,0,120,3.0,64.0
13191,69.0,0,120,3.0,64.0
13192,69.0,120,120,11.0,64.0
13193,69.0,0,120,2.0,64.0
13194,67.0,0,120,2.0,64.0
13195,64.0,40,120,12.0,64.0
13196,64.0,0,120,0.0,64.0
13197,64.0,0,120,3.0,64.0
13198,79.0,0,120,0.0,64.0
13199,67.0,0,120,11.0,64.0
13200,64.0,0,120,2.0,64.0
13201,67.0,0,120,3.0,64.0
13202,69.0,0,120,3.0,64.0
13203,81.0,0,120,0.0,64.0
13204,69.0,0,120,11.0,64.0
13205,66.0,0,120,2.0,64.0
13206,66.0,0,120,12.0,64.0
13207,66.0,245,120,3.0,64.0
13208,66.0,0,120,0.0,64.0
13209,69.0,0,120,2.0,64.0
13210,60.0,75,390,13.0,64.0
13211,66.0,0,120,12.0,64.0
13212,66.0,0,120,0.0,64.0
13213,81.0,0,120,0.0,64.0
13214,69.0,0,120,2.0,64.0
13215,66.0,0,120,3.0,64.0
13216,69.0,0,120,11.0,64.0
13217,69.0,0,120,3.0,64.0
13218,66.0,120,120,2.0,64.0
13219,64.0,0,120,0.0,64.0
13220,64.0,0,120,12.0,64.0
13221,64.0,0,120,2.0,64.0
13222,79.0,0,120,0.0,64.0
13223,67.0,0,120,2.0,64.0
13224,64.0,0,120,3.0,64.0
13225,67.0,0,120,3.0,64.0
13226,67.0,40,120,11.0,64.0
13227,66.0,0,120,3.0,64.0
13228,66.0,0,120,12.0,64.0
13229,66.0,125,120,2.0,64.0
13230,69.0,0,120,3.0,64.0
13231,69.0,0,120,11.0,64.0
13232,66.0,0,120,0.0,64.0
13233,81.0,0,120,0.0,64.0
13234,69.0,0,120,2.0,64.0
13235,43.0,0,390,8.0,64.0
13236,70.0,0,120,0.0,64.0
13237,79.0,0,720,3.0,64.0
13238,70.0,120,120,11.0,64.0
13239,67.0,5,720,2.0,64.0
13240,31.0,75,390,15.0,64.0
13241,43.0,0,390,14.0,64.0
13242,43.0,0,390,7.0,64.0
13243,67.0,0,720,12.0,64.0
13244,82.0,0,120,0.0,64.0
13245,67.0,0,720,3.0,64.0
13246,67.0,0,720,6.0,64.0
13247,58.0,0,120,13.0,64.0
13248,43.0,0,390,4.0,64.0
13249,70.0,0,120,2.0,64.0
13250,55.0,0,390,5.0,64.0
13251,72.0,0,120,2.0,64.0
13252,72.0,0,120,11.0,64.0
13253,57.0,0,120,13.0,64.0
13254,72.0,120,120,0.0,64.0
13255,84.0,0,120,0.0,64.0
13256,70.0,0,120,2.0,64.0
13257,70.0,0,120,11.0,64.0
13258,82.0,0,120,0.0,64.0
13259,55.0,0,120,13.0,64.0
13260,70.0,40,120,0.0,64.0
13261,57.0,5,120,13.0,64.0
13262,72.0,0,120,2.0,64.0
13263,72.0,0,120,11.0,64.0
13264,72.0,0,120,0.0,64.0
13265,84.0,120,120,0.0,64.0
13266,50.0,0,840,14.0,64.0
13267,74.0,0,390,0.0,64.0
13268,50.0,0,840,7.0,64.0
13269,58.0,115,120,13.0,64.0
13270,62.0,0,840,5.0,64.0
13271,50.0,0,840,4.0,64.0
13272,74.0,0,390,11.0,64.0
13273,38.0,0,840,15.0,64.0
13274,74.0,0,390,2.0,64.0
13275,86.0,75,390,0.0,64.0
13276,38.0,40,840,8.0,64.0
13277,62.0,120,120,13.0,64.0
13278,60.0,40,120,13.0,64.0
13279,70.0,0,240,6.0,64.0
13280,70.0,0,240,3.0,64.0
13281,70.0,0,240,12.0,64.0
13282,58.0,235,240,5.0,64.0
13283,82.0,0,240,3.0,64.0
13284,70.0,0,240,2.0,64.0
13285,63.0,5,120,13.0,64.0
13286,66.0,0,240,6.0,64.0
13287,66.0,5,240,3.0,64.0
13288,78.0,0,240,3.0,64.0
13289,62.0,75,390,13.0,64.0
13290,54.0,0,240,5.0,64.0
13291,66.0,0,240,12.0,64.0
13292,66.0,0,240,2.0,64.0
13293,74.0,0,120,2.0,64.0
13294,86.0,0,120,0.0,64.0
13295,74.0,0,120,11.0,64.0
13296,74.0,120,120,0.0,64.0
13297,66.0,115,240,6.0,64.0
13298,66.0,0,240,12.0,64.0
13299,72.0,0,120,0.0,64.0
13300,72.0,0,120,11.0,64.0
13301,72.0,0,120,2.0,64.0
13302,78.0,0,240,3.0,64.0
13303,84.0,0,120,0.0,64.0
13304,66.0,0,240,3.0,64.0
13305,54.0,0,240,5.0,64.0
13306,66.0,0,240,2.0,64.0
13307,74.0,0,120,0.0,64.0
13308,74.0,0,120,2.0,64.0
13309,74.0,5,120,11.0,64.0
13310,86.0,0,120,0.0,64.0
13311,67.0,0,120,0.0,64.0
13312,58.0,0,390,5.0,64.0
13313,34.0,75,390,15.0,64.0
13314,46.0,0,390,4.0,64.0
13315,67.0,0,390,3.0,64.0
13316,46.0,0,390,7.0,64.0
13317,55.0,0,390,5.0,64.0
13318,79.0,0,390,3.0,64.0
13319,79.0,5,120,0.0,64.0
13320,62.0,5,720,13.0,64.0
13321,67.0,120,120,11.0,64.0
13322,34.0,0,390,8.0,64.0
13323,67.0,0,390,6.0,64.0
13324,67.0,0,390,12.0,64.0
13325,46.0,0,390,14.0,64.0
13326,67.0,0,120,2.0,64.0
13327,79.0,0,120,0.0,64.0
13328,79.0,0,120,2.0,64.0
13329,79.0,0,120,11.0,64.0
13330,91.0,120,120,0.0,64.0
13331,77.0,0,120,2.0,64.0
13332,77.0,0,120,0.0,64.0
13333,89.0,40,120,0.0,64.0
13334,77.0,0,120,11.0,64.0
13335,79.0,5,120,11.0,64.0
13336,79.0,0,120,0.0,64.0
13337,79.0,120,120,2.0,64.0
13338,91.0,0,120,0.0,64.0
13339,75.0,0,120,0.0,64.0
13340,48.0,0,840,7.0,64.0
13341,75.0,0,120,2.0,64.0
13342,75.0,115,120,11.0,64.0
13343,48.0,0,840,14.0,64.0
13344,36.0,0,840,8.0,64.0
13345,36.0,0,840,15.0,64.0
13346,48.0,0,840,4.0,64.0
13347,60.0,0,840,5.0,64.0
13348,87.0,0,120,0.0,64.0
13349,79.0,0,120,11.0,64.0
13350,79.0,0,120,2.0,64.0
13351,91.0,0,120,0.0,64.0
13352,79.0,120,120,0.0,64.0
13353,55.0,5,240,13.0,64.0
13354,75.0,0,120,2.0,64.0
13355,75.0,0,240,6.0,64.0
13356,75.0,0,120,11.0,64.0
13357,75.0,0,240,3.0,64.0
13358,63.0,0,240,5.0,64.0
13359,87.0,115,120,0.0,64.0
13360,75.0,0,120,0.0,64.0
13361,75.0,0,240,12.0,64.0
13362,79.0,0,120,2.0,64.0
13363,79.0,0,120,0.0,64.0
13364,79.0,0,120,11.0,64.0
13365,91.0,0,120,0.0,64.0
13366,57.0,0,240,5.0,64.0
13367,69.0,0,240,2.0,64.0
13368,69.0,0,240,3.0,64.0
13369,75.0,0,120,11.0,64.0
13370,69.0,5,240,6.0,64.0
13371,75.0,0,120,0.0,64.0
13372,60.0,75,390,13.0,64.0
13373,69.0,0,240,12.0,64.0
13374,75.0,0,120,2.0,64.0
13375,87.0,115,120,0.0,64.0
13376,81.0,0,240,3.0,64.0
13377,77.0,0,120,11.0,64.0
13378,77.0,0,120,0.0,64.0
13379,89.0,120,120,0.0,64.0
13380,77.0,0,120,2.0,64.0
13381,75.0,0,120,11.0,64.0
13382,75.0,0,120,2.0,64.0
13383,69.0,0,240,12.0,64.0
13384,69.0,0,240,3.0,64.0
13385,69.0,120,240,6.0,64.0
13386,57.0,0,240,5.0,64.0
13387,75.0,40,120,0.0,64.0
13388,81.0,0,240,3.0,64.0
13389,87.0,0,120,0.0,64.0
13390,69.0,0,240,2.0,64.0
13391,77.0,0,120,11.0,64.0
13392,77.0,5,120,2.0,64.0
13393,89.0,0,120,0.0,64.0
13394,77.0,0,120,0.0,64.0
13395,70.0,0,390,2.0,64.0
13396,74.0,0,120,0.0,64.0
13397,82.0,0,390,3.0,64.0
13398,74.0,120,120,11.0,64.0
13399,50.0,0,390,4.0,64.0
13400,50.0,0,390,14.0,64.0
13401,58.0,0,390,5.0,64.0
13402,86.0,0,120,0.0,64.0
13403,38.0,0,390,8.0,64.0
13404,50.0,0,390,7.0,64.0
13405,70.0,0,390,12.0,64.0
13406,62.0,0,390,5.0,64.0
13407,70.0,0,390,3.0,64.0
13408,74.0,0,120,2.0,64.0
13409,38.0,0,390,15.0,64.0
13410,70.0,0,390,6.0,64.0
13411,54.0,75,390,13.0,64.0
13412,87.0,0,120,0.0,64.0
13413,75.0,0,120,0.0,64.0
13414,75.0,120,120,2.0,64.0
13415,75.0,0,120,11.0,64.0
13416,86.0,40,120,0.0,64.0
13417,74.0,0,120,0.0,64.0
13418,74.0,0,120,11.0,64.0
13419,74.0,0,120,2.0,64.0
13420,75.0,0,120,2.0,64.0
13421,75.0,120,120,0.0,64.0
13422,75.0,5,120,11.0,64.0
13423,87.0,0,120,0.0,64.0
13424,84.0,120,120,0.0,64.0
13425,51.0,0,840,14.0,64.0
13426,63.0,0,840,5.0,64.0
13427,72.0,0,120,0.0,64.0
13428,39.0,0,840,15.0,64.0
13429,72.0,0,120,2.0,64.0
13430,51.0,115,840,7.0,64.0
13431,55.0,75,390,13.0,64.0
13432,72.0,0,120,11.0,64.0
13433,39.0,0,840,8.0,64.0
13434,51.0,0,840,4.0,64.0
13435,75.0,120,120,2.0,64.0
13436,75.0,0,120,0.0,64.0
13437,75.0,0,120,11.0,64.0
13438,87.0,0,120,0.0,64.0
13439,86.0,0,120,0.0,64.0
13440,60.0,0,240,5.0,64.0
13441,84.0,0,240,3.0,64.0
13442,72.0,0,240,6.0,64.0
13443,72.0,120,240,2.0,64.0
13444,74.0,0,120,0.0,64.0
13445,72.0,0,240,3.0,64.0
13446,74.0,0,120,11.0,64.0
13447,74.0,40,120,2.0,64.0
13448,72.0,0,240,12.0,64.0
13449,77.0,0,120,2.0,64.0
13450,89.0,0,120,0.0,64.0
13451,77.0,0,120,0.0,64.0
13452,77.0,5,120,11.0,64.0
13453,75.0,0,120,0.0,64.0
13454,67.0,5,240,12.0,64.0
13455,87.0,0,120,0.0,64.0
13456,67.0,0,240,6.0,64.0
13457,60.0,0,240,13.0,64.0
13458,67.0,0,240,2.0,64.0
13459,79.0,0,240,3.0,64.0
13460,55.0,0,240,5.0,64.0
13461,75.0,0,120,2.0,64.0
13462,75.0,115,120,11.0,64.0
13463,67.0,0,240,3.0,64.0
13464,79.0,0,120,0.0,64.0
13465,91.0,0,120,0.0,64.0
13466,79.0,120,120,11.0,64.0
13467,79.0,0,120,2.0,64.0
13468,78.0,0,120,2.0,64.0
13469,90.0,0,120,0.0,64.0
13470,67.0,0,240,2.0,64.0
13471,78.0,0,120,0.0,64.0
13472,67.0,0,240,12.0,64.0
13473,62.0,5,240,13.0,64.0
13474,67.0,120,240,6.0,64.0
13475,79.0,0,240,3.0,64.0
13476,55.0,0,240,5.0,64.0
13477,67.0,0,240,3.0,64.0
13478,78.0,0,120,11.0,64.0
13479,93.0,0,120,0.0,64.0
13480,81.0,0,120,11.0,64.0
13481,81.0,0,120,2.0,64.0
13482,81.0,0,120,0.0,64.0
13483,36.0,0,390,15.0,64.0
13484,60.0,0,390,5.0,64.0
13485,48.0,0,390,14.0,64.0
13486,69.0,0,390,3.0,64.0
13487,36.0,0,390,8.0,64.0
13488,91.0,0,120,0.0,64.0
13489,69.0,0,390,2.0,64.0
13490,48.0,75,390,4.0,64.0
13491,81.0,0,390,3.0,64.0
13492,79.0,0,120,11.0,64.0
13493,69.0,0,390,6.0,64.0
13494,57.0,0,390,5.0,64.0
13495,48.0,0,390,7.0,64.0
13496,79.0,120,120,2.0,64.0
13497,69.0,0,390,12.0,64.0
13498,79.0,0,120,0.0,64.0
13499,63.0,0,390,13.0,64.0
13500,94.0,0,120,0.0,64.0
13501,82.0,0,120,11.0,64.0
13502,82.0,0,120,0.0,64.0
13503,82.0,120,120,2.0,64.0
13504,81.0,0,120,2.0,64.0
13505,81.0,0,120,11.0,64.0
13506,81.0,0,120,0.0,64.0
13507,93.0,40,120,0.0,64.0
13508,79.0,5,120,11.0,64.0
13509,79.0,120,120,2.0,64.0
13510,79.0,0,120,0.0,64.0
13511,91.0,0,120,0.0,64.0
13512,38.0,0,630,8.0,64.0
13513,90.0,0,120,0.0,64.0
13514,62.0,125,1560,13.0,64.0
13515,50.0,0,630,14.0,64.0
13516,78.0,0,120,11.0,64.0
13517,38.0,75,630,15.0,64.0
13518,69.0,0,240,12.0,64.0
13519,78.0,120,120,0.0,64.0
13520,62.0,0,630,5.0,64.0
13521,50.0,0,630,4.0,64.0
13522,50.0,0,630,7.0,64.0
13523,78.0,0,120,2.0,64.0
13524,81.0,120,120,2.0,64.0
13525,81.0,0,120,0.0,64.0
13526,93.0,0,120,0.0,64.0
13527,81.0,0,120,11.0,64.0
13528,79.0,0,120,0.0,64.0
13529,91.0,115,120,0.0,64.0
13530,70.0,0,240,3.0,64.0
13531,79.0,0,120,11.0,64.0
13532,70.0,0,240,12.0,64.0
13533,58.0,0,240,5.0,64.0
13534,58.0,0,240,3.0,64.0
13535,79.0,0,120,2.0,64.0
13536,70.0,120,240,6.0,64.0
13537,70.0,5,240,2.0,64.0
13538,82.0,0,120,0.0,64.0
13539,94.0,0,120,0.0,64.0
13540,82.0,0,120,2.0,64.0
13541,82.0,0,120,11.0,64.0
13542,81.0,0,240,0.0,64.0
13543,93.0,0,240,0.0,64.0
13544,81.0,0,240,11.0,64.0
13545,66.0,40,120,3.0,64.0
13546,69.0,0,240,12.0,64.0
13547,54.0,5,240,5.0,64.0
13548,66.0,0,120,6.0,64.0
13549,81.0,0,240,2.0,64.0
13550,69.0,0,120,6.0,64.0
13551,69.0,120,120,3.0,64.0
13552,74.0,0,240,2.0,64.0
13553,64.0,120,240,5.0,64.0
13554,67.0,0,120,6.0,64.0
13555,74.0,0,240,0.0,64.0
13556,74.0,5,240,11.0,64.0
13557,67.0,115,120,3.0,64.0
13558,86.0,0,240,0.0,64.0
13559,52.0,0,240,14.0,64.0
13560,64.0,0,240,12.0,64.0
13561,55.0,0,240,5.0,64.0
13562,40.0,0,240,15.0,64.0
13563,52.0,0,240,4.0,64.0
13564,70.0,0,120,6.0,64.0
13565,70.0,0,120,3.0,64.0
13566,42.0,0,240,15.0,64.0
13567,69.0,120,120,3.0,64.0
13568,54.0,0,240,4.0,64.0
13569,54.0,0,240,14.0,64.0
13570,57.0,75,390,5.0,64.0
13571,69.0,0,120,6.0,64.0
13572,66.0,0,240,5.0,64.0
13573,72.0,0,120,6.0,64.0
13574,72.0,120,120,3.0,64.0
13575,70.0,40,120,6.0,64.0
13576,62.0,0,240,5.0,64.0
13577,50.0,0,240,14.0,64.0
13578,38.0,0,240,15.0,64.0
13579,50.0,0,240,4.0,64.0
13580,70.0,0,120,3.0,64.0
13581,69.0,5,120,6.0,64.0
13582,69.0,115,120,3.0,64.0
13583,43.0,0,240,15.0,64.0
13584,58.0,0,1200,5.0,64.0
13585,55.0,120,240,4.0,64.0
13586,70.0,0,1080,3.0,64.0
13587,70.0,125,1080,6.0,64.0
13588,55.0,0,240,14.0,64.0
13589,65.0,0,120,13.0,64.0
13590,63.0,115,120,13.0,64.0
13591,67.0,0,15,5.0,64.0
13592,43.0,5,240,15.0,64.0
13593,55.0,120,240,4.0,64.0
13594,55.0,0,240,14.0,64.0
13595,67.0,0,120,13.0,64.0
13596,50.0,0,240,14.0,64.0
13597,50.0,0,240,4.0,64.0
13598,65.0,120,120,13.0,64.0
13599,67.0,0,120,13.0,64.0
13600,50.0,0,240,14.0,64.0
13601,62.0,0,15,5.0,64.0
13602,63.0,115,120,13.0,64.0
13603,38.0,120,15,15.0,64.0
13604,50.0,115,240,4.0,64.0
13605,65.0,0,120,13.0,64.0
13606,51.0,120,240,4.0,64.0
13607,39.0,0,240,15.0,64.0
13608,67.0,0,240,13.0,64.0
13609,72.0,0,120,3.0,64.0
13610,72.0,0,120,6.0,64.0
13611,51.0,0,15,14.0,64.0
13612,67.0,0,120,6.0,64.0
13613,67.0,115,120,3.0,64.0
13614,63.0,0,15,5.0,64.0
13615,55.0,0,240,5.0,64.0
13616,39.0,0,240,15.0,64.0
13617,51.0,0,240,4.0,64.0
13618,60.0,125,360,13.0,64.0
13619,70.0,0,120,6.0,64.0
13620,70.0,115,120,3.0,64.0
13621,41.0,0,240,15.0,64.0
13622,53.0,0,240,14.0,64.0
13623,69.0,0,1080,3.0,64.0
13624,65.0,0,240,5.0,64.0
13625,57.0,0,1200,5.0,64.0
13626,69.0,0,1080,6.0,64.0
13627,63.0,0,120,13.0,64.0
13628,65.0,0,240,5.0,64.0
13629,53.0,120,15,4.0,64.0
13630,62.0,115,120,13.0,64.0
13631,41.0,0,240,15.0,64.0
13632,53.0,5,240,14.0,64.0
13633,65.0,0,120,13.0,64.0
13634,63.0,120,120,13.0,64.0
13635,60.0,0,240,5.0,64.0
13636,65.0,0,120,13.0,64.0
13637,62.0,115,120,13.0,64.0
13638,48.0,120,15,14.0,64.0
13639,48.0,0,15,4.0,64.0
13640,36.0,0,15,15.0,64.0
13641,60.0,0,240,5.0,64.0
13642,63.0,0,120,13.0,64.0
13643,50.0,0,240,4.0,64.0
13644,38.0,0,240,15.0,64.0
13645,50.0,5,240,14.0,64.0
13646,65.0,0,240,13.0,64.0
13647,70.0,0,120,6.0,64.0
13648,70.0,120,120,3.0,64.0
13649,38.0,0,240,15.0,64.0
13650,62.0,0,15,5.0,64.0
13651,58.0,125,360,13.0,64.0
13652,66.0,115,120,3.0,64.0
13653,50.0,5,240,14.0,64.0
13654,54.0,0,240,5.0,64.0
13655,50.0,0,240,4.0,64.0
13656,66.0,0,120,6.0,64.0
13657,69.0,115,120,6.0,64.0
13658,69.0,0,120,3.0,64.0
13659,55.0,5,1200,5.0,64.0
13660,67.0,5,1080,6.0,64.0
13661,63.0,0,240,5.0,64.0
13662,67.0,115,1080,3.0,64.0
13663,62.0,0,120,13.0,64.0
13664,60.0,115,120,13.0,64.0
13665,39.0,120,15,15.0,64.0
13666,63.0,120,240,5.0,64.0
13667,51.0,0,15,14.0,64.0
13668,51.0,0,15,4.0,64.0
13669,63.0,0,120,13.0,64.0
13670,62.0,120,120,13.0,64.0
13671,63.0,0,120,13.0,64.0
13672,34.0,0,15,15.0,64.0
13673,60.0,115,120,13.0,64.0
13674,46.0,0,15,4.0,64.0
13675,46.0,120,15,14.0,64.0
13676,58.0,0,15,5.0,64.0
13677,62.0,0,120,13.0,64.0
13678,60.0,0,240,5.0,64.0
13679,48.0,0,240,14.0,64.0
13680,36.0,0,240,15.0,64.0
13681,63.0,0,240,13.0,64.0
13682,69.0,0,120,3.0,64.0
13683,69.0,120,120,6.0,64.0
13684,48.0,5,240,14.0,64.0
13685,64.0,115,120,3.0,64.0
13686,52.0,0,240,5.0,64.0
13687,48.0,0,15,4.0,64.0
13688,60.0,0,240,5.0,64.0
13689,36.0,0,240,15.0,64.0
13690,57.0,5,480,13.0,64.0
13691,64.0,0,120,6.0,64.0
13692,67.0,0,120,6.0,64.0
13693,67.0,0,120,3.0,64.0
13694,66.0,0,120,6.0,64.0
13695,38.0,0,630,15.0,64.0
13696,54.0,80,390,5.0,64.0
13697,62.0,0,630,5.0,64.0
13698,66.0,115,120,3.0,64.0
13699,50.0,75,630,14.0,64.0
13700,50.0,0,630,4.0,64.0
13701,69.0,120,120,3.0,64.0
13702,69.0,0,120,6.0,64.0
13703,60.0,0,240,13.0,64.0
13704,66.0,0,120,3.0,64.0
13705,66.0,40,120,6.0,64.0
13706,69.0,0,120,3.0,64.0
13707,69.0,120,120,6.0,64.0
13708,62.0,40,120,3.0,64.0
13709,54.0,5,240,5.0,64.0
13710,58.0,120,240,13.0,64.0
13711,62.0,0,120,6.0,64.0
13712,66.0,0,120,3.0,64.0
13713,66.0,0,120,6.0,64.0
13714,50.0,5,240,14.0,64.0
13715,38.0,0,240,15.0,64.0
13716,62.0,115,120,6.0,64.0
13717,50.0,120,240,4.0,64.0
13718,54.0,0,240,5.0,64.0
13719,57.0,0,240,13.0,64.0
13720,62.0,0,120,3.0,64.0
13721,62.0,0,240,5.0,64.0
13722,66.0,0,120,3.0,64.0
13723,66.0,0,120,6.0,64.0
13724,55.0,120,120,13.0,64.0
13725,51.0,0,240,14.0,64.0
13726,67.0,0,240,3.0,64.0
13727,55.0,0,240,5.0,64.0
13728,51.0,120,240,4.0,64.0
13729,67.0,0,240,6.0,64.0
13730,39.0,0,240,15.0,64.0
13731,63.0,0,240,5.0,64.0
13732,58.0,0,120,13.0,64.0
13733,55.0,115,120,13.0,64.0
13734,50.0,0,240,4.0,64.0
13735,53.0,120,240,5.0,64.0
13736,38.0,0,240,15.0,64.0
13737,65.0,0,240,3.0,64.0
13738,65.0,0,240,6.0,64.0
13739,62.0,0,240,5.0,64.0
13740,50.0,0,240,14.0,64.0
13741,58.0,5,120,13.0,64.0
13742,60.0,120,480,5.0,64.0
13743,36.0,75,390,15.0,64.0
13744,63.0,0,1080,6.0,64.0
13745,48.0,0,480,4.0,64.0
13746,63.0,0,1080,3.0,64.0
13747,51.0,5,1200,5.0,64.0
13748,60.0,120,120,13.0,64.0
13749,48.0,0,390,14.0,64.0
13750,63.0,120,120,13.0,64.0
13751,60.0,40,120,13.0,64.0
13752,63.0,5,120,13.0,64.0
13753,53.0,75,390,14.0,64.0
13754,53.0,0,480,4.0,64.0
13755,57.0,120,120,13.0,64.0
13756,41.0,0,390,15.0,64.0
13757,65.0,115,480,5.0,64.0
13758,60.0,120,120,13.0,64.0
13759,58.0,40,120,13.0,64.0
13760,62.0,5,120,13.0,64.0
13761,60.0,120,240,13.0,64.0
13762,45.0,120,480,4.0,64.0
13763,33.0,0,390,15.0,64.0
13764,57.0,0,480,5.0,64.0
13765,45.0,80,390,14.0,64.0
13766,67.0,0,120,3.0,64.0
13767,67.0,0,120,6.0,64.0
13768,53.0,120,480,13.0,64.0
13769,65.0,0,120,6.0,64.0
13770,65.0,40,120,3.0,64.0
13771,63.0,0,120,3.0,64.0
13772,63.0,0,120,6.0,64.0
13773,62.0,120,120,3.0,64.0
13774,58.0,0,840,5.0,64.0
13775,46.0,115,840,4.0,64.0
13776,62.0,0,120,6.0,64.0
13777,46.0,0,840,14.0,64.0
13778,34.0,0,840,15.0,64.0
13779,65.0,0,120,6.0,64.0
13780,65.0,0,120,3.0,64.0
13781,63.0,115,120,6.0,64.0
13782,63.0,0,120,3.0,64.0
13783,55.0,5,240,13.0,64.0
13784,67.0,120,120,3.0,64.0
13785,67.0,0,120,6.0,64.0
13786,65.0,120,120,6.0,64.0
13787,65.0,0,120,3.0,64.0
13788,56.0,125,600,13.0,64.0
13789,67.0,120,120,3.0,64.0
13790,67.0,0,120,6.0,64.0
13791,65.0,0,120,3.0,64.0
13792,65.0,0,120,6.0,64.0
13793,68.0,120,120,3.0,64.0
13794,68.0,0,120,6.0,64.0
13795,47.0,0,390,14.0,64.0
13796,47.0,75,390,4.0,64.0
13797,35.0,0,390,15.0,64.0
13798,62.0,120,960,3.0,64.0
13799,62.0,75,870,6.0,64.0
13800,55.0,120,120,13.0,64.0
13801,50.0,40,120,13.0,64.0
13802,53.0,125,120,13.0,64.0
13803,48.0,0,240,4.0,64.0
13804,51.0,120,120,13.0,64.0
13805,48.0,120,240,14.0,64.0
13806,36.0,0,240,15.0,64.0
13807,55.0,0,120,13.0,64.0
13808,44.0,0,240,4.0,64.0
13809,53.0,40,120,13.0,64.0
13810,44.0,0,240,14.0,64.0
13811,32.0,5,240,15.0,64.0
13812,56.0,0,120,13.0,64.0
13813,60.0,5,720,6.0,64.0
13814,55.0,120,120,13.0,64.0
13815,39.0,0,240,4.0,64.0
13816,39.0,0,240,14.0,64.0
13817,60.0,0,600,3.0,64.0
13818,56.0,0,120,13.0,64.0
13819,53.0,115,120,13.0,64.0
13820,39.0,120,240,14.0,64.0
13821,39.0,120,15,15.0,64.0
13822,39.0,0,240,4.0,64.0
13823,55.0,0,120,13.0,64.0
13824,56.0,75,390,13.0,64.0
13825,41.0,0,390,15.0,64.0
13826,41.0,0,390,14.0,64.0
13827,41.0,120,240,4.0,64.0
13828,63.0,0,120,3.0,64.0
13829,62.0,40,120,3.0,64.0
13830,41.0,5,240,4.0,64.0
13831,65.0,120,120,3.0,64.0
13832,31.0,120,240,15.0,64.0
13833,43.0,0,240,14.0,64.0
13834,43.0,0,240,4.0,64.0
13835,59.0,120,120,3.0,64.0
13836,50.0,75,390,13.0,64.0
13837,62.0,0,120,3.0,64.0
13838,33.0,0,240,15.0,64.0
13839,45.0,0,240,4.0,64.0
13840,45.0,5,240,14.0,64.0
13841,60.0,40,120,3.0,64.0
13842,63.0,120,120,3.0,64.0
13843,62.0,120,120,3.0,64.0
13844,35.0,120,240,15.0,64.0
13845,47.0,0,240,4.0,64.0
13846,47.0,0,240,14.0,64.0
13847,63.0,0,120,3.0,64.0
13848,60.0,115,120,3.0,64.0
13849,43.0,0,240,14.0,64.0
13850,43.0,0,240,4.0,64.0
13851,31.0,0,240,15.0,64.0
13852,62.0,125,120,3.0,64.0
13853,63.0,120,120,3.0,64.0
13854,36.0,120,240,15.0,64.0
13855,48.0,0,240,14.0,64.0
13856,48.0,0,240,4.0,64.0
13857,65.0,0,120,3.0,64.0
13858,47.0,5,240,4.0,64.0
13859,47.0,0,240,14.0,64.0
13860,62.0,115,120,3.0,64.0
13861,35.0,0,240,15.0,64.0
13862,64.0,120,120,3.0,64.0
13863,44.0,0,240,14.0,64.0
13864,32.0,75,390,15.0,64.0
13865,44.0,0,240,4.0,64.0
13866,65.0,120,120,3.0,64.0
13867,68.0,120,120,3.0,64.0
13868,48.0,5,240,4.0,64.0
13869,48.0,0,240,14.0,64.0
13870,67.0,40,120,3.0,64.0
13871,70.0,120,120,3.0,64.0
13872,41.0,0,240,14.0,64.0
13873,41.0,120,240,4.0,64.0
13874,68.0,120,120,3.0,64.0
13875,41.0,75,390,15.0,64.0
13876,60.0,0,120,3.0,64.0
13877,53.0,0,240,14.0,64.0
13878,53.0,5,240,4.0,64.0
13879,68.0,40,120,3.0,64.0
13880,67.0,115,120,3.0,64.0
13881,65.0,5,120,3.0,64.0
13882,44.0,0,240,14.0,64.0
13883,44.0,120,480,15.0,64.0
13884,44.0,0,240,4.0,64.0
13885,60.0,80,390,12.0,64.0
13886,48.0,0,390,13.0,64.0
13887,63.0,120,120,3.0,64.0
13888,53.0,0,240,14.0,64.0
13889,53.0,0,240,4.0,64.0
13890,62.0,40,120,3.0,64.0
13891,60.0,0,120,3.0,64.0
13892,43.0,0,240,14.0,64.0
13893,43.0,5,240,15.0,64.0
13894,43.0,0,240,4.0,64.0
13895,59.0,115,120,3.0,64.0
13896,67.0,0,840,12.0,64.0
13897,55.0,0,840,13.0,64.0
13898,62.0,120,120,3.0,64.0
13899,51.0,120,240,4.0,64.0
13900,39.0,0,240,15.0,64.0
13901,60.0,120,120,3.0,64.0
13902,51.0,0,240,14.0,64.0
13903,63.0,0,120,3.0,64.0
13904,35.0,5,240,15.0,64.0
13905,62.0,115,120,3.0,64.0
13906,47.0,0,240,14.0,64.0
13907,47.0,0,240,4.0,64.0
13908,65.0,120,120,3.0,64.0
13909,35.0,0,240,15.0,64.0
13910,63.0,120,120,3.0,64.0
13911,47.0,115,240,4.0,64.0
13912,47.0,0,240,14.0,64.0
13913,62.0,0,120,3.0,64.0
13914,60.0,125,120,3.0,64.0
13915,48.0,0,390,4.0,64.0
13916,63.0,80,390,12.0,64.0
13917,36.0,0,390,15.0,64.0
13918,51.0,0,390,13.0,64.0
13919,48.0,0,390,14.0,64.0
13920,72.0,120,120,3.0,64.0
13921,70.0,40,120,3.0,64.0
13922,72.0,120,120,3.0,64.0
13923,68.0,120,120,3.0,64.0
13924,65.0,115,840,12.0,64.0
13925,53.0,0,840,13.0,64.0
13926,72.0,120,120,3.0,64.0
13927,68.0,120,120,3.0,64.0
13928,44.0,0,240,15.0,64.0
13929,56.0,0,240,14.0,64.0
13930,56.0,0,240,4.0,64.0
13931,72.0,120,120,3.0,64.0
13932,50.0,0,240,14.0,64.0
13933,50.0,5,240,4.0,64.0
13934,38.0,0,240,15.0,64.0
13935,68.0,115,120,3.0,64.0
13936,70.0,120,120,3.0,64.0
13937,68.0,0,120,3.0,64.0
13938,50.0,120,240,14.0,64.0
13939,38.0,0,240,15.0,64.0
13940,50.0,0,240,4.0,64.0
13941,70.0,5,120,3.0,64.0
13942,52.0,80,390,4.0,64.0
13943,40.0,0,390,15.0,64.0
13944,52.0,0,390,14.0,64.0
13945,55.0,0,390,13.0,64.0
13946,67.0,0,390,12.0,64.0
13947,67.0,120,120,3.0,64.0
13948,70.0,120,120,3.0,64.0
13949,67.0,40,120,3.0,64.0
13950,70.0,120,120,3.0,64.0
13951,68.0,0,840,12.0,64.0
13952,56.0,115,840,13.0,64.0
13953,65.0,120,120,3.0,64.0
13954,68.0,120,120,3.0,64.0
13955,53.0,120,240,4.0,64.0
13956,53.0,0,240,14.0,64.0
13957,41.0,0,240,15.0,64.0
13958,67.0,120,120,3.0,64.0
13959,70.0,0,120,3.0,64.0
13960,36.0,0,240,15.0,64.0
13961,48.0,5,240,14.0,64.0
13962,48.0,0,240,4.0,64.0
13963,68.0,115,120,3.0,64.0
13964,70.0,120,120,3.0,64.0
13965,67.0,0,120,3.0,64.0
13966,48.0,0,240,4.0,64.0
13967,48.0,120,240,14.0,64.0
13968,36.0,0,240,15.0,64.0
13969,68.0,5,120,3.0,64.0
13970,53.0,0,390,13.0,64.0
13971,65.0,0,390,12.0,64.0
13972,50.0,0,390,4.0,64.0
13973,38.0,80,390,15.0,64.0
13974,70.0,120,120,3.0,64.0
13975,50.0,0,390,14.0,64.0
13976,72.0,120,120,3.0,64.0
13977,68.0,40,120,3.0,64.0
13978,70.0,115,120,3.0,64.0
13979,51.0,0,390,4.0,64.0
13980,67.0,5,120,3.0,64.0
13981,67.0,75,390,12.0,64.0
13982,51.0,0,390,14.0,64.0
13983,55.0,120,120,13.0,64.0
13984,39.0,0,390,15.0,64.0
13985,67.0,120,120,3.0,64.0
13986,58.0,0,120,13.0,64.0
13987,65.0,0,120,3.0,64.0
13988,56.0,40,120,13.0,64.0
13989,67.0,0,120,3.0,64.0
13990,58.0,245,120,13.0,64.0
13991,56.0,75,390,14.0,64.0
13992,44.0,0,390,15.0,64.0
13993,56.0,0,390,4.0,64.0
13994,60.0,0,120,13.0,64.0
13995,68.0,120,120,3.0,64.0
13996,58.0,40,120,13.0,64.0
13997,67.0,0,120,3.0,64.0
13998,68.0,245,120,3.0,64.0
13999,60.0,0,120,13.0,64.0
14000,58.0,0,390,4.0,64.0
14001,46.0,0,390,15.0,64.0
14002,58.0,75,390,14.0,64.0
14003,62.0,0,120,13.0,64.0
14004,65.0,120,120,3.0,64.0
14005,60.0,40,120,13.0,64.0
14006,63.0,0,120,3.0,64.0
14007,65.0,245,120,3.0,64.0
14008,62.0,0,120,13.0,64.0
14009,39.0,0,390,15.0,64.0
14010,51.0,75,390,4.0,64.0
14011,51.0,0,390,14.0,64.0
14012,63.0,120,120,13.0,64.0
14013,67.0,0,120,3.0,64.0
14014,65.0,40,120,13.0,64.0
14015,68.0,0,120,3.0,64.0
14016,67.0,0,120,3.0,64.0
14017,63.0,245,120,13.0,64.0
14018,53.0,75,390,4.0,64.0
14019,53.0,0,390,14.0,64.0
14020,41.0,0,390,15.0,64.0
14021,62.0,0,120,13.0,64.0
14022,65.0,120,120,3.0,64.0
14023,60.0,40,120,13.0,64.0
14024,63.0,0,120,3.0,64.0
14025,65.0,245,120,3.0,64.0
14026,62.0,0,120,13.0,64.0
14027,55.0,0,390,14.0,64.0
14028,55.0,75,390,4.0,64.0
14029,43.0,0,390,15.0,64.0
14030,59.0,0,120,13.0,64.0
14031,62.0,120,120,3.0,64.0
14032,57.0,40,120,13.0,64.0
14033,60.0,0,120,3.0,64.0
14034,59.0,0,120,13.0,64.0
14035,62.0,125,120,3.0,64.0
14036,36.0,0,120,15.0,64.0
14037,60.0,0,240,3.0,64.0
14038,48.0,0,120,4.0,64.0
14039,60.0,75,390,13.0,64.0
14040,63.0,5,240,3.0,64.0
14041,48.0,115,120,14.0,64.0
14042,51.0,0,120,4.0,64.0
14043,39.0,120,120,15.0,64.0
14044,51.0,0,120,14.0,64.0
14045,38.0,0,120,15.0,64.0
14046,65.0,0,240,3.0,64.0
14047,50.0,40,120,14.0,64.0
14048,62.0,5,240,3.0,64.0
14049,50.0,0,120,4.0,64.0
14050,53.0,0,120,14.0,64.0
14051,53.0,120,120,4.0,64.0
14052,41.0,0,120,15.0,64.0
14053,51.0,0,120,14.0,64.0
14054,67.0,5,240,3.0,64.0
14055,63.0,0,240,3.0,64.0
14056,39.0,0,120,15.0,64.0
14057,51.0,115,120,4.0,64.0
14058,55.0,120,120,14.0,64.0
14059,43.0,0,120,15.0,64.0
14060,55.0,0,120,4.0,64.0
14061,53.0,115,120,4.0,64.0
14062,69.0,0,240,3.0,64.0
14063,65.0,0,240,3.0,64.0
14064,41.0,0,120,15.0,64.0
14065,53.0,0,120,14.0,64.0
14066,57.0,0,120,14.0,64.0
14067,57.0,0,120,4.0,64.0
14068,45.0,125,120,15.0,64.0
14069,43.0,0,240,7.0,64.0
14070,70.0,0,240,3.0,64.0
14071,67.0,0,240,5.0,64.0
14072,67.0,0,240,6.0,64.0
14073,43.0,115,120,15.0,64.0
14074,55.0,0,120,4.0,64.0
14075,55.0,0,120,14.0,64.0
14076,70.0,0,240,6.0,64.0
14077,67.0,0,240,3.0,64.0
14078,55.0,0,240,7.0,64.0
14079,58.0,0,240,7.0,64.0
14080,70.0,5,240,5.0,64.0
14081,58.0,120,120,4.0,64.0
14082,58.0,0,120,14.0,64.0
14083,46.0,0,120,15.0,64.0
14084,72.0,0,240,5.0,64.0
14085,45.0,0,120,15.0,64.0
14086,57.0,0,240,7.0,64.0
14087,60.0,0,240,7.0,64.0
14088,69.0,0,240,3.0,64.0
14089,45.0,0,240,7.0,64.0
14090,57.0,0,120,4.0,64.0
14091,69.0,0,240,5.0,64.0
14092,72.0,0,240,3.0,64.0
14093,65.0,0,240,13.0,64.0
14094,69.0,5,240,6.0,64.0
14095,57.0,115,120,14.0,64.0
14096,72.0,0,240,6.0,64.0
14097,60.0,120,120,4.0,64.0
14098,48.0,0,120,15.0,64.0
14099,60.0,0,120,14.0,64.0
14100,70.0,0,240,3.0,64.0
14101,50.0,0,240,7.0,64.0
14102,58.0,0,240,4.0,64.0
14103,58.0,0,240,14.0,64.0
14104,62.0,5,240,6.0,64.0
14105,58.0,0,240,6.0,64.0
14106,46.0,0,240,7.0,64.0
14107,58.0,0,240,5.0,64.0
14108,74.0,0,240,3.0,64.0
14109,58.0,115,120,13.0,64.0
14110,62.0,0,240,5.0,64.0
14111,46.0,0,240,15.0,64.0
14112,62.0,120,120,13.0,64.0
14113,51.0,0,240,7.0,64.0
14114,60.0,0,240,6.0,64.0
14115,63.0,0,240,6.0,64.0
14116,60.0,115,120,13.0,64.0
14117,75.0,0,240,3.0,64.0
14118,48.0,0,240,7.0,64.0
14119,63.0,0,240,5.0,64.0
14120,72.0,0,240,3.0,64.0
14121,60.0,125,240,5.0,64.0
14122,63.0,0,120,13.0,64.0
14123,62.0,0,240,5.0,64.0
14124,65.0,0,240,5.0,64.0
14125,53.0,0,240,7.0,64.0
14126,62.0,0,240,6.0,64.0
14127,65.0,0,240,6.0,64.0
14128,62.0,115,120,13.0,64.0
14129,62.0,5,240,3.0,64.0
14130,50.0,0,240,7.0,64.0
14131,65.0,0,240,3.0,64.0
14132,65.0,120,120,13.0,64.0
14133,63.0,0,240,5.0,64.0
14134,67.0,0,240,6.0,64.0
14135,63.0,0,240,3.0,64.0
14136,63.0,0,240,6.0,64.0
14137,55.0,125,240,7.0,64.0
14138,67.0,0,240,3.0,64.0
14139,67.0,0,240,5.0,64.0
14140,63.0,115,120,13.0,64.0
14141,51.0,0,240,7.0,64.0
14142,67.0,0,120,13.0,64.0
14143,65.0,5,240,5.0,64.0
14144,68.0,0,240,3.0,64.0
14145,68.0,0,240,5.0,64.0
14146,56.0,0,240,7.0,64.0
14147,53.0,0,240,7.0,64.0
14148,41.0,0,240,7.0,64.0
14149,65.0,115,120,13.0,64.0
14150,65.0,0,240,3.0,64.0
14151,65.0,0,240,6.0,64.0
14152,68.0,0,240,6.0,64.0
14153,68.0,120,120,13.0,64.0
14154,51.0,0,240,14.0,64.0
14155,67.0,115,120,13.0,64.0
14156,39.0,0,240,8.0,64.0
14157,43.0,0,240,7.0,64.0
14158,67.0,0,240,5.0,64.0
14159,67.0,0,240,6.0,64.0
14160,55.0,0,240,7.0,64.0
14161,70.0,0,240,6.0,64.0
14162,70.0,0,240,3.0,64.0
14163,51.0,125,240,4.0,64.0
14164,58.0,0,240,7.0,64.0
14165,67.0,0,240,3.0,64.0
14166,39.0,0,240,15.0,64.0
14167,70.0,0,240,5.0,64.0
14168,70.0,0,120,13.0,64.0
14169,68.0,0,240,3.0,64.0
14170,44.0,0,240,7.0,64.0
14171,48.0,0,240,7.0,64.0
14172,56.0,0,240,5.0,64.0
14173,68.0,0,240,6.0,64.0
14174,32.0,0,240,8.0,64.0
14175,32.0,0,120,15.0,64.0
14176,72.0,0,240,5.0,64.0
14177,72.0,0,240,3.0,64.0
14178,44.0,0,120,4.0,64.0
14179,68.0,75,390,13.0,64.0
14180,44.0,115,120,14.0,64.0
14181,72.0,5,240,6.0,64.0
14182,48.0,0,120,14.0,64.0
14183,36.0,120,120,15.0,64.0
14184,48.0,0,120,4.0,64.0
14185,46.0,40,120,14.0,64.0
14186,34.0,0,120,15.0,64.0
14187,58.0,0,240,6.0,64.0
14188,50.0,0,240,7.0,64.0
14189,46.0,0,240,7.0,64.0
14190,46.0,0,120,4.0,64.0
14191,62.0,0,240,6.0,64.0
14192,70.0,0,240,3.0,64.0
14193,74.0,0,240,3.0,64.0
14194,58.0,0,240,5.0,64.0
14195,34.0,0,240,8.0,64.0
14196,62.0,0,240,5.0,64.0
14197,50.0,120,120,4.0,64.0
14198,38.0,0,120,15.0,64.0
14199,50.0,0,120,14.0,64.0
14200,60.0,0,240,5.0,64.0
14201,72.0,0,240,3.0,64.0
14202,75.0,0,240,3.0,64.0
14203,36.0,0,240,8.0,64.0
14204,48.0,0,240,7.0,64.0
14205,36.0,0,120,15.0,64.0
14206,48.0,115,120,4.0,64.0
14207,51.0,0,240,7.0,64.0
14208,48.0,0,120,14.0,64.0
14209,63.0,0,240,6.0,64.0
14210,44.0,0,240,7.0,64.0
14211,63.0,5,240,5.0,64.0
14212,60.0,0,240,6.0,64.0
14213,51.0,0,120,4.0,64.0
14214,51.0,120,120,14.0,64.0
14215,39.0,0,120,15.0,64.0
14216,65.0,0,240,5.0,64.0
14217,38.0,0,120,15.0,64.0
14218,50.0,0,240,7.0,64.0
14219,53.0,0,240,7.0,64.0
14220,50.0,115,120,4.0,64.0
14221,65.0,0,240,6.0,64.0
14222,62.0,0,240,6.0,64.0
14223,77.0,0,240,3.0,64.0
14224,46.0,0,240,7.0,64.0
14225,38.0,0,240,8.0,64.0
14226,62.0,0,240,5.0,64.0
14227,74.0,0,240,3.0,64.0
14228,50.0,0,120,14.0,64.0
14229,41.0,0,120,15.0,64.0
14230,53.0,0,120,4.0,64.0
14231,53.0,125,120,14.0,64.0
14232,51.0,0,240,7.0,64.0
14233,67.0,5,240,5.0,64.0
14234,63.0,0,240,6.0,64.0
14235,67.0,0,240,6.0,64.0
14236,48.0,0,240,7.0,64.0
14237,51.0,0,120,14.0,64.0
14238,55.0,0,240,7.0,64.0
14239,39.0,115,120,15.0,64.0
14240,51.0,0,120,4.0,64.0
14241,79.0,0,240,3.0,64.0
14242,39.0,0,240,8.0,64.0
14243,75.0,0,240,3.0,64.0
14244,63.0,0,240,5.0,64.0
14245,55.0,0,120,14.0,64.0
14246,55.0,120,120,4.0,64.0
14247,43.0,0,120,15.0,64.0
14248,65.0,0,240,5.0,64.0
14249,62.0,0,240,13.0,64.0
14250,80.0,0,240,3.0,64.0
14251,68.0,0,240,6.0,64.0
14252,65.0,0,240,6.0,64.0
14253,77.0,0,240,3.0,64.0
14254,68.0,0,240,5.0,64.0
14255,53.0,0,120,14.0,64.0
14256,41.0,0,240,8.0,64.0
14257,53.0,0,240,7.0,64.0
14258,56.0,5,240,7.0,64.0
14259,41.0,0,120,15.0,64.0
14260,50.0,0,240,7.0,64.0
14261,53.0,115,120,4.0,64.0
14262,44.0,0,120,15.0,64.0
14263,56.0,0,120,14.0,64.0
14264,56.0,120,120,4.0,64.0
14265,70.0,0,240,5.0,64.0
14266,55.0,0,240,14.0,64.0
14267,70.0,0,240,3.0,64.0
14268,51.0,0,240,7.0,64.0
14269,43.0,0,240,8.0,64.0
14270,67.0,0,240,5.0,64.0
14271,58.0,0,240,7.0,64.0
14272,55.0,5,240,7.0,64.0
14273,67.0,0,240,6.0,64.0
14274,70.0,0,240,6.0,64.0
14275,67.0,0,240,3.0,64.0
14276,55.0,0,240,4.0,64.0
14277,43.0,0,240,15.0,64.0
14278,55.0,115,120,13.0,64.0
14279,58.0,120,120,13.0,64.0
14280,68.0,0,240,5.0,64.0
14281,56.0,115,120,13.0,64.0
14282,72.0,0,240,3.0,64.0
14283,56.0,0,240,7.0,64.0
14284,72.0,0,240,5.0,64.0
14285,68.0,0,240,3.0,64.0
14286,68.0,0,240,6.0,64.0
14287,72.0,0,240,6.0,64.0
14288,60.0,0,240,7.0,64.0
14289,53.0,125,240,7.0,64.0
14290,60.0,0,120,13.0,64.0
14291,58.0,0,240,5.0,64.0
14292,74.0,0,240,3.0,64.0
14293,46.0,0,240,7.0,64.0
14294,62.0,0,240,5.0,64.0
14295,58.0,0,240,6.0,64.0
14296,62.0,0,240,6.0,64.0
14297,58.0,115,120,13.0,64.0
14298,50.0,0,240,7.0,64.0
14299,70.0,0,240,3.0,64.0
14300,62.0,120,120,13.0,64.0
14301,60.0,0,240,6.0,64.0
14302,60.0,115,120,13.0,64.0
14303,51.0,0,240,7.0,64.0
14304,60.0,0,240,5.0,64.0
14305,63.0,0,240,5.0,64.0
14306,63.0,0,240,6.0,64.0
14307,75.0,0,240,3.0,64.0
14308,72.0,125,240,3.0,64.0
14309,48.0,0,240,7.0,64.0
14310,63.0,0,120,13.0,64.0
14311,62.0,115,120,13.0,64.0
14312,65.0,0,240,5.0,64.0
14313,53.0,0,240,7.0,64.0
14314,62.0,0,240,5.0,64.0
14315,62.0,0,240,6.0,64.0
14316,77.0,0,240,3.0,64.0
14317,65.0,0,240,6.0,64.0
14318,50.0,0,240,7.0,64.0
14319,74.0,5,240,3.0,64.0
14320,65.0,120,120,13.0,64.0
14321,64.0,0,240,5.0,64.0
14322,79.0,0,240,3.0,64.0
14323,36.0,0,240,15.0,64.0
14324,64.0,115,120,13.0,64.0
14325,55.0,125,240,7.0,64.0
14326,67.0,0,240,6.0,64.0
14327,64.0,0,240,6.0,64.0
14328,36.0,0,240,8.0,64.0
14329,67.0,0,240,5.0,64.0
14330,48.0,0,240,14.0,64.0
14331,52.0,0,240,7.0,64.0
14332,76.0,0,240,3.0,64.0
14333,48.0,0,240,4.0,64.0
14334,67.0,0,120,13.0,64.0
14335,65.0,5,240,5.0,64.0
14336,65.0,0,240,6.0,64.0
14337,68.0,0,240,6.0,64.0
14338,65.0,75,390,13.0,64.0
14339,65.0,0,240,3.0,64.0
14340,41.0,0,120,14.0,64.0
14341,68.0,0,240,5.0,64.0
14342,41.0,0,120,4.0,64.0
14343,68.0,0,240,3.0,64.0
14344,53.0,0,240,7.0,64.0
14345,56.0,0,240,7.0,64.0
14346,29.0,115,120,15.0,64.0
14347,41.0,0,240,8.0,64.0
14348,44.0,0,120,14.0,64.0
14349,44.0,0,120,4.0,64.0
14350,32.0,120,120,15.0,64.0
14351,67.0,0,240,3.0,64.0
14352,43.0,40,120,14.0,64.0
14353,58.0,0,240,5.0,64.0
14354,55.0,0,240,5.0,64.0
14355,43.0,0,240,8.0,64.0
14356,31.0,0,120,15.0,64.0
14357,43.0,0,120,4.0,64.0
14358,58.0,0,240,7.0,64.0
14359,70.0,0,240,6.0,64.0
14360,70.0,0,240,3.0,64.0
14361,55.0,0,240,7.0,64.0
14362,67.0,0,240,6.0,64.0
14363,34.0,0,120,15.0,64.0
14364,46.0,120,120,4.0,64.0
14365,46.0,0,120,14.0,64.0
14366,56.0,0,240,7.0,64.0
14367,44.0,115,120,4.0,64.0
14368,60.0,0,240,5.0,64.0
14369,60.0,0,240,7.0,64.0
14370,44.0,0,240,8.0,64.0
14371,44.0,0,120,14.0,64.0
14372,72.0,0,240,3.0,64.0
14373,53.0,0,240,7.0,64.0
14374,32.0,0,120,15.0,64.0
14375,56.0,0,240,5.0,64.0
14376,68.0,0,240,6.0,64.0
14377,72.0,0,240,6.0,64.0
14378,68.0,5,240,3.0,64.0
14379,36.0,120,120,15.0,64.0
14380,48.0,0,120,14.0,64.0
14381,48.0,0,120,4.0,64.0
14382,70.0,0,240,6.0,64.0
14383,58.0,5,360,13.0,64.0
14384,74.0,0,240,6.0,64.0
14385,58.0,0,240,7.0,64.0
14386,62.0,0,240,7.0,64.0
14387,62.0,5,240,5.0,64.0
14388,46.0,0,240,8.0,64.0
14389,70.0,0,240,3.0,64.0
14390,74.0,0,240,3.0,64.0
14391,34.0,0,120,15.0,64.0
14392,46.0,115,120,4.0,64.0
14393,58.0,0,240,5.0,64.0
14394,55.0,0,240,7.0,64.0
14395,46.0,0,120,14.0,64.0
14396,50.0,0,120,14.0,64.0
14397,50.0,115,120,4.0,64.0
14398,38.0,0,120,15.0,64.0
14399,48.0,115,120,4.0,64.0
14400,72.0,5,240,3.0,64.0
14401,63.0,0,240,7.0,64.0
14402,56.0,0,240,7.0,64.0
14403,63.0,0,240,5.0,64.0
14404,60.0,0,240,7.0,64.0
14405,48.0,0,120,14.0,64.0
14406,75.0,0,240,6.0,64.0
14407,72.0,0,240,6.0,64.0
14408,75.0,0,240,3.0,64.0
14409,36.0,0,120,8.0,64.0
14410,36.0,0,120,15.0,64.0
14411,60.0,0,240,5.0,64.0
14412,39.0,0,120,8.0,64.0
14413,39.0,0,120,15.0,64.0
14414,60.0,0,120,13.0,64.0
14415,51.0,0,120,14.0,64.0
14416,51.0,120,120,4.0,64.0
14417,38.0,0,120,8.0,64.0
14418,58.0,0,240,7.0,64.0
14419,38.0,0,120,15.0,64.0
14420,77.0,0,240,3.0,64.0
14421,58.0,0,120,13.0,64.0
14422,65.0,0,240,5.0,64.0
14423,62.0,0,240,5.0,64.0
14424,65.0,0,240,7.0,64.0
14425,62.0,0,240,7.0,64.0
14426,77.0,0,240,6.0,64.0
14427,50.0,0,120,14.0,64.0
14428,74.0,0,240,3.0,64.0
14429,50.0,115,120,4.0,64.0
14430,74.0,0,240,6.0,64.0
14431,41.0,0,120,15.0,64.0
14432,56.0,5,120,13.0,64.0
14433,53.0,0,120,4.0,64.0
14434,53.0,0,120,14.0,64.0
14435,41.0,120,120,8.0,64.0
14436,39.0,0,600,15.0,64.0
14437,63.0,0,630,7.0,64.0
14438,67.0,0,630,7.0,64.0
14439,51.0,45,600,14.0,64.0
14440,51.0,0,600,4.0,64.0
14441,63.0,0,630,5.0,64.0
14442,55.0,120,120,13.0,64.0
14443,75.0,0,630,3.0,64.0
14444,67.0,80,630,5.0,64.0
14445,79.0,0,630,6.0,64.0
14446,75.0,0,630,6.0,64.0
14447,39.0,0,600,8.0,64.0
14448,55.0,0,630,7.0,64.0
14449,79.0,0,630,3.0,64.0
14450,58.0,120,120,13.0,64.0
14451,56.0,115,120,13.0,64.0
14452,60.0,120,120,13.0,64.0
14453,58.0,75,390,13.0,64.0
14454,53.0,0,120,4.0,64.0
14455,41.0,0,120,8.0,64.0
14456,53.0,120,120,14.0,64.0
14457,41.0,0,120,15.0,64.0
14458,62.0,0,240,5.0,64.0
14459,67.0,0,240,7.0,64.0
14460,62.0,0,240,3.0,64.0
14461,50.0,0,120,4.0,64.0
14462,62.0,0,240,6.0,64.0
14463,62.0,5,240,7.0,64.0
14464,55.0,0,240,7.0,64.0
14465,50.0,0,120,14.0,64.0
14466,38.0,40,120,15.0,64.0
14467,67.0,0,240,3.0,64.0
14468,67.0,0,240,6.0,64.0
14469,38.0,0,120,8.0,64.0
14470,67.0,0,240,5.0,64.0
14471,51.0,0,120,14.0,64.0
14472,39.0,0,120,8.0,64.0
14473,51.0,120,120,4.0,64.0
14474,39.0,0,120,15.0,64.0
14475,48.0,75,390,4.0,64.0
14476,36.0,0,390,15.0,64.0
14477,48.0,0,390,14.0,64.0
14478,36.0,0,390,8.0,64.0
14479,69.0,0,120,3.0,64.0
14480,60.0,120,120,13.0,64.0
14481,57.0,0,120,3.0,64.0
14482,58.0,0,120,3.0,64.0
14483,62.0,120,120,13.0,64.0
14484,70.0,0,120,3.0,64.0
14485,67.0,40,120,3.0,64.0
14486,58.0,0,120,13.0,64.0
14487,55.0,0,120,3.0,64.0
14488,60.0,0,120,13.0,64.0
14489,57.0,0,120,3.0,64.0
14490,69.0,125,120,3.0,64.0
14491,54.0,0,120,3.0,64.0
14492,38.0,125,600,8.0,64.0
14493,57.0,120,120,13.0,64.0
14494,50.0,0,600,14.0,64.0
14495,66.0,0,120,3.0,64.0
14496,38.0,0,600,15.0,64.0
14497,50.0,0,600,4.0,64.0
14498,67.0,0,120,3.0,64.0
14499,55.0,0,120,3.0,64.0
14500,58.0,120,120,13.0,64.0
14501,64.0,0,120,3.0,64.0
14502,55.0,0,120,13.0,64.0
14503,52.0,115,120,3.0,64.0
14504,54.0,115,120,3.0,64.0
14505,57.0,5,120,13.0,64.0
14506,66.0,0,120,3.0,64.0
14507,54.0,0,390,13.0,64.0
14508,74.0,75,390,3.0,64.0
14509,62.0,0,390,3.0,64.0
14510,39.0,0,120,8.0,64.0
14511,51.0,0,120,4.0,64.0
14512,51.0,120,120,14.0,64.0
14513,39.0,0,120,15.0,64.0
14514,36.0,40,120,8.0,64.0
14515,36.0,0,120,15.0,64.0
14516,48.0,0,120,14.0,64.0
14517,48.0,0,120,4.0,64.0
14518,50.0,0,120,4.0,64.0
14519,50.0,125,120,14.0,64.0
14520,38.0,0,120,8.0,64.0
14521,38.0,0,120,15.0,64.0
14522,55.0,120,120,13.0,64.0
14523,67.0,0,390,5.0,64.0
14524,46.0,115,480,4.0,64.0
14525,74.0,0,600,3.0,64.0
14526,46.0,0,390,14.0,64.0
14527,67.0,75,390,6.0,64.0
14528,55.0,0,390,12.0,64.0
14529,67.0,0,390,0.0,64.0
14530,79.0,0,390,0.0,64.0
14531,62.0,120,600,3.0,64.0
14532,67.0,0,390,11.0,64.0
14533,34.0,0,390,8.0,64.0
14534,34.0,0,390,15.0,64.0
14535,67.0,0,390,2.0,64.0
14536,57.0,120,120,13.0,64.0
14537,54.0,40,120,13.0,64.0
14538,55.0,5,120,13.0,64.0
14539,42.0,0,240,8.0,64.0
14540,74.0,0,840,11.0,64.0
14541,74.0,0,840,0.0,64.0
14542,62.0,40,840,12.0,64.0
14543,86.0,0,840,0.0,64.0
14544,74.0,0,840,5.0,64.0
14545,74.0,0,840,2.0,64.0
14546,57.0,120,240,13.0,64.0
14547,74.0,0,840,6.0,64.0
14548,30.0,0,240,15.0,64.0
14549,42.0,5,240,4.0,64.0
14550,81.0,0,120,3.0,64.0
14551,69.0,0,120,3.0,64.0
14552,42.0,115,240,8.0,64.0
14553,58.0,0,240,13.0,64.0
14554,42.0,0,15,14.0,64.0
14555,30.0,5,240,15.0,64.0
14556,58.0,0,240,7.0,64.0
14557,79.0,115,120,3.0,64.0
14558,42.0,0,240,4.0,64.0
14559,67.0,0,120,3.0,64.0
14560,70.0,0,240,5.0,64.0
14561,70.0,0,120,3.0,64.0
14562,82.0,0,120,3.0,64.0
14563,66.0,0,240,5.0,64.0
14564,38.0,5,120,4.0,64.0
14565,54.0,0,240,7.0,64.0
14566,69.0,115,120,3.0,64.0
14567,38.0,75,390,15.0,64.0
14568,38.0,0,390,8.0,64.0
14569,50.0,0,240,14.0,64.0
14570,81.0,0,120,3.0,64.0
14571,54.0,5,240,13.0,64.0
14572,84.0,120,120,3.0,64.0
14573,72.0,0,120,3.0,64.0
14574,50.0,0,120,4.0,64.0
14575,54.0,0,240,13.0,64.0
14576,70.0,0,120,3.0,64.0
14577,54.0,0,240,7.0,64.0
14578,48.0,0,120,4.0,64.0
14579,48.0,0,120,14.0,64.0
14580,82.0,0,120,3.0,64.0
14581,66.0,0,240,5.0,64.0
14582,50.0,5,120,14.0,64.0
14583,50.0,0,120,4.0,64.0
14584,81.0,0,120,3.0,64.0
14585,69.0,115,120,3.0,64.0
14586,43.0,0,390,8.0,64.0
14587,55.0,75,390,13.0,64.0
14588,70.0,0,390,2.0,64.0
14589,70.0,0,390,6.0,64.0
14590,79.0,5,240,3.0,64.0
14591,43.0,115,120,14.0,64.0
14592,70.0,0,390,11.0,64.0
14593,58.0,0,390,12.0,64.0
14594,67.0,0,390,5.0,64.0
14595,55.0,0,390,7.0,64.0
14596,31.0,0,390,15.0,64.0
14597,70.0,0,390,5.0,64.0
14598,67.0,0,240,3.0,64.0
14599,43.0,5,120,4.0,64.0
14600,82.0,0,390,0.0,64.0
14601,70.0,0,390,0.0,64.0
14602,55.0,0,120,4.0,64.0
14603,55.0,120,120,14.0,64.0
14604,53.0,0,120,14.0,64.0
14605,62.0,5,240,3.0,64.0
14606,53.0,40,120,4.0,64.0
14607,74.0,0,240,3.0,64.0
14608,55.0,120,120,4.0,64.0
14609,55.0,0,120,14.0,64.0
14610,72.0,0,840,5.0,64.0
14611,72.0,0,840,0.0,64.0
14612,67.0,120,480,3.0,64.0
14613,51.0,0,120,14.0,64.0
14614,60.0,0,840,12.0,64.0
14615,72.0,0,840,6.0,64.0
14616,79.0,0,480,3.0,64.0
14617,39.0,75,390,8.0,64.0
14618,39.0,120,120,15.0,64.0
14619,72.0,0,840,2.0,64.0
14620,84.0,0,840,0.0,64.0
14621,51.0,0,120,4.0,64.0
14622,72.0,40,840,11.0,64.0
14623,55.0,0,120,4.0,64.0
14624,55.0,0,120,14.0,64.0
14625,43.0,120,120,15.0,64.0
14626,63.0,0,240,5.0,64.0
14627,63.0,0,240,13.0,64.0
14628,51.0,0,120,4.0,64.0
14629,63.0,0,240,7.0,64.0
14630,39.0,0,120,15.0,64.0
14631,51.0,40,120,14.0,64.0
14632,55.0,0,120,4.0,64.0
14633,43.0,0,120,15.0,64.0
14634,55.0,5,120,14.0,64.0
14635,39.0,0,390,8.0,64.0
14636,51.0,0,120,4.0,64.0
14637,57.0,0,240,7.0,64.0
14638,51.0,0,120,14.0,64.0
14639,57.0,0,240,13.0,64.0
14640,77.0,75,390,3.0,64.0
14641,39.0,115,120,15.0,64.0
14642,65.0,0,390,3.0,64.0
14643,69.0,5,240,5.0,64.0
14644,53.0,0,120,4.0,64.0
14645,53.0,0,120,14.0,64.0
14646,41.0,120,120,15.0,64.0
14647,57.0,0,240,7.0,64.0
14648,57.0,120,240,13.0,64.0
14649,39.0,0,120,15.0,64.0
14650,51.0,0,120,14.0,64.0
14651,69.0,0,240,5.0,64.0
14652,51.0,0,120,4.0,64.0
14653,41.0,0,120,15.0,64.0
14654,53.0,5,120,4.0,64.0
14655,53.0,0,120,14.0,64.0
14656,59.0,0,390,7.0,64.0
14657,50.0,0,120,4.0,64.0
14658,62.0,0,390,12.0,64.0
14659,38.0,120,120,15.0,64.0
14660,71.0,0,390,5.0,64.0
14661,74.0,0,390,5.0,64.0
14662,74.0,0,390,11.0,64.0
14663,86.0,0,390,0.0,64.0
14664,38.0,0,390,8.0,64.0
14665,74.0,0,390,6.0,64.0
14666,77.0,75,390,3.0,64.0
14667,65.0,0,390,3.0,64.0
14668,74.0,0,390,2.0,64.0
14669,50.0,0,120,14.0,64.0
14670,59.0,0,390,13.0,64.0
14671,74.0,0,390,0.0,64.0
14672,53.0,0,120,14.0,64.0
14673,41.0,120,120,15.0,64.0
14674,53.0,0,120,4.0,64.0
14675,50.0,0,120,14.0,64.0
14676,50.0,40,120,4.0,64.0
14677,38.0,0,120,15.0,64.0
14678,41.0,0,120,15.0,64.0
14679,53.0,5,120,14.0,64.0
14680,53.0,120,120,4.0,64.0
14681,63.0,0,840,12.0,64.0
14682,75.0,0,840,6.0,64.0
14683,75.0,40,840,5.0,64.0
14684,75.0,0,840,2.0,64.0
14685,75.0,0,240,3.0,64.0
14686,87.0,0,840,0.0,64.0
14687,36.0,75,390,8.0,64.0
14688,48.0,120,120,4.0,64.0
14689,48.0,0,120,14.0,64.0
14690,75.0,0,840,0.0,64.0
14691,36.0,0,120,15.0,64.0
14692,63.0,0,240,3.0,64.0
14693,75.0,0,840,11.0,64.0
14694,51.0,120,120,14.0,64.0
14695,51.0,0,120,4.0,64.0
14696,39.0,0,120,15.0,64.0
14697,65.0,0,240,3.0,64.0
14698,50.0,40,120,4.0,64.0
14699,60.0,0,240,7.0,64.0
14700,50.0,0,120,14.0,64.0
14701,77.0,0,240,3.0,64.0
14702,60.0,120,240,13.0,64.0
14703,38.0,0,120,15.0,64.0
14704,72.0,0,240,5.0,64.0
14705,53.0,0,120,14.0,64.0
14706,53.0,0,120,4.0,64.0
14707,41.0,5,120,15.0,64.0
14708,67.0,0,240,5.0,64.0
14709,39.0,75,390,8.0,64.0
14710,51.0,115,120,4.0,64.0
14711,67.0,0,240,3.0,64.0
14712,39.0,0,120,15.0,64.0
14713,55.0,5,240,7.0,64.0
14714,51.0,0,120,14.0,64.0
14715,55.0,0,240,13.0,64.0
14716,79.0,120,240,3.0,64.0
14717,53.0,0,120,14.0,64.0
14718,53.0,0,120,4.0,64.0
14719,41.0,0,120,15.0,64.0
14720,39.0,0,120,15.0,64.0
14721,70.0,0,240,3.0,64.0
14722,55.0,0,240,13.0,64.0
14723,82.0,0,240,3.0,64.0
14724,51.0,0,120,14.0,64.0
14725,51.0,0,120,4.0,64.0
14726,67.0,0,240,5.0,64.0
14727,55.0,120,240,7.0,64.0
14728,53.0,0,120,14.0,64.0
14729,53.0,0,120,4.0,64.0
14730,41.0,5,120,15.0,64.0
14731,51.0,0,120,4.0,64.0
14732,57.0,0,390,7.0,64.0
14733,81.0,0,240,3.0,64.0
14734,60.0,0,390,12.0,64.0
14735,72.0,0,390,11.0,64.0
14736,69.0,0,390,5.0,64.0
14737,57.0,0,390,13.0,64.0
14738,69.0,0,240,3.0,64.0
14739,51.0,0,120,14.0,64.0
14740,84.0,0,390,0.0,64.0
14741,39.0,0,390,8.0,64.0
14742,72.0,75,390,0.0,64.0
14743,72.0,0,390,5.0,64.0
14744,72.0,0,390,2.0,64.0
14745,72.0,0,390,6.0,64.0
14746,39.0,120,120,15.0,64.0
14747,53.0,0,120,4.0,64.0
14748,53.0,0,120,14.0,64.0
14749,41.0,120,120,15.0,64.0
14750,51.0,0,120,14.0,64.0
14751,51.0,40,120,4.0,64.0
14752,67.0,0,240,3.0,64.0
14753,79.0,125,240,3.0,64.0
14754,39.0,0,120,15.0,64.0
14755,53.0,0,120,14.0,64.0
14756,41.0,0,120,15.0,64.0
14757,53.0,0,120,4.0,64.0
14758,58.0,0,240,13.0,64.0
14759,58.0,0,240,4.0,64.0
14760,78.0,0,120,3.0,64.0
14761,62.0,0,840,5.0,64.0
14762,74.0,0,840,5.0,64.0
14763,50.0,0,240,14.0,64.0
14764,38.0,0,240,15.0,64.0
14765,74.0,0,1080,0.0,64.0
14766,74.0,0,1080,6.0,64.0
14767,62.0,125,1080,12.0,64.0
14768,38.0,0,240,8.0,64.0
14769,66.0,120,120,3.0,64.0
14770,74.0,0,1080,11.0,64.0
14771,74.0,0,1080,2.0,64.0
14772,86.0,0,1080,0.0,64.0
14773,81.0,120,120,3.0,64.0
14774,69.0,0,120,3.0,64.0
14775,67.0,115,120,3.0,64.0
14776,40.0,5,240,15.0,64.0
14777,57.0,0,120,4.0,64.0
14778,40.0,0,240,8.0,64.0
14779,52.0,0,240,14.0,64.0
14780,57.0,0,120,13.0,64.0
14781,79.0,0,120,3.0,64.0
14782,55.0,0,120,13.0,64.0
14783,55.0,120,120,4.0,64.0
14784,82.0,0,120,3.0,64.0
14785,70.0,0,120,3.0,64.0
14786,81.0,0,240,3.0,64.0
14787,57.0,120,120,13.0,64.0
14788,42.0,0,240,8.0,64.0
14789,69.0,0,240,3.0,64.0
14790,57.0,0,120,4.0,64.0
14791,54.0,0,240,14.0,64.0
14792,42.0,0,240,15.0,64.0
14793,62.0,0,120,13.0,64.0
14794,62.0,120,120,4.0,64.0
14795,38.0,0,240,15.0,64.0
14796,50.0,0,240,14.0,64.0
14797,78.0,0,240,3.0,64.0
14798,66.0,115,240,3.0,64.0
14799,38.0,0,240,8.0,64.0
14800,60.0,115,120,4.0,64.0
14801,60.0,0,120,13.0,64.0
14802,62.0,0,120,13.0,64.0
14803,62.0,5,120,4.0,64.0
14804,43.0,0,390,7.0,64.0
14805,43.0,0,240,15.0,64.0
14806,55.0,0,390,5.0,64.0
14807,67.0,0,720,5.0,64.0
14808,58.0,0,240,13.0,64.0
14809,79.0,5,720,3.0,64.0
14810,43.0,0,240,8.0,64.0
14811,55.0,0,390,7.0,64.0
14812,50.0,0,390,7.0,64.0
14813,55.0,75,390,14.0,64.0
14814,67.0,0,720,3.0,64.0
14815,58.0,0,240,4.0,64.0
14816,74.0,0,120,11.0,64.0
14817,86.0,120,120,0.0,64.0
14818,74.0,0,120,0.0,64.0
14819,62.0,0,120,12.0,64.0
14820,74.0,0,120,2.0,64.0
14821,59.0,5,240,13.0,64.0
14822,59.0,0,240,4.0,64.0
14823,72.0,0,120,0.0,64.0
14824,72.0,40,120,11.0,64.0
14825,71.0,0,240,6.0,64.0
14826,60.0,0,120,12.0,64.0
14827,31.0,0,240,8.0,64.0
14828,72.0,0,120,2.0,64.0
14829,84.0,0,120,0.0,64.0
14830,31.0,0,240,15.0,64.0
14831,86.0,0,120,0.0,64.0
14832,74.0,0,120,2.0,64.0
14833,62.0,0,120,12.0,64.0
14834,74.0,0,120,11.0,64.0
14835,74.0,0,120,0.0,64.0
14836,72.0,80,630,6.0,64.0
14837,60.0,0,630,4.0,64.0
14838,48.0,0,240,14.0,64.0
14839,36.0,0,240,8.0,64.0
14840,60.0,0,630,13.0,64.0
14841,48.0,0,240,7.0,64.0
14842,60.0,0,240,7.0,64.0
14843,75.0,0,120,0.0,64.0
14844,75.0,0,120,11.0,64.0
14845,51.0,120,240,7.0,64.0
14846,75.0,0,120,2.0,64.0
14847,36.0,0,240,15.0,64.0
14848,87.0,115,120,0.0,64.0
14849,63.0,0,120,12.0,64.0
14850,60.0,0,240,5.0,64.0
14851,65.0,0,120,12.0,64.0
14852,77.0,0,120,0.0,64.0
14853,77.0,0,120,11.0,64.0
14854,77.0,0,120,2.0,64.0
14855,89.0,0,120,0.0,64.0
14856,62.0,0,120,12.0,64.0
14857,34.0,0,240,15.0,64.0
14858,79.0,0,240,3.0,64.0
14859,74.0,0,120,0.0,64.0
14860,46.0,0,240,7.0,64.0
14861,58.0,0,240,5.0,64.0
14862,67.0,0,240,5.0,64.0
14863,74.0,115,120,11.0,64.0
14864,46.0,0,240,14.0,64.0
14865,74.0,0,120,2.0,64.0
14866,34.0,5,240,8.0,64.0
14867,67.0,0,240,3.0,64.0
14868,58.0,0,240,7.0,64.0
14869,50.0,0,240,7.0,64.0
14870,86.0,0,120,0.0,64.0
14871,76.0,0,120,0.0,64.0
14872,64.0,0,120,12.0,64.0
14873,76.0,0,120,2.0,64.0
14874,76.0,0,120,11.0,64.0
14875,88.0,0,120,0.0,64.0
14876,65.0,0,120,12.0,64.0
14877,45.0,0,240,14.0,64.0
14878,53.0,0,240,7.0,64.0
14879,77.0,0,120,0.0,64.0
14880,57.0,0,240,5.0,64.0
14881,45.0,0,390,7.0,64.0
14882,69.0,0,390,3.0,64.0
14883,77.0,40,120,11.0,64.0
14884,33.0,0,390,15.0,64.0
14885,89.0,0,120,0.0,64.0
14886,69.0,0,390,5.0,64.0
14887,81.0,0,390,3.0,64.0
14888,77.0,0,120,2.0,64.0
14889,33.0,75,390,8.0,64.0
14890,67.0,0,120,12.0,64.0
14891,79.0,0,120,0.0,64.0
14892,79.0,0,120,2.0,64.0
14893,79.0,120,120,11.0,64.0
14894,91.0,0,120,0.0,64.0
14895,50.0,0,240,14.0,64.0
14896,88.0,0,120,0.0,64.0
14897,62.0,120,240,5.0,64.0
14898,64.0,40,120,12.0,64.0
14899,62.0,0,240,7.0,64.0
14900,62.0,120,480,4.0,64.0
14901,62.0,0,480,13.0,64.0
14902,76.0,0,120,0.0,64.0
14903,76.0,0,120,11.0,64.0
14904,74.0,5,480,6.0,64.0
14905,76.0,0,120,2.0,64.0
14906,57.0,0,15,7.0,64.0
14907,78.0,0,120,11.0,64.0
14908,78.0,0,120,0.0,64.0
14909,90.0,0,120,0.0,64.0
14910,66.0,0,120,12.0,64.0
14911,78.0,0,120,2.0,64.0
14912,34.0,0,390,15.0,64.0
14913,67.0,115,120,12.0,64.0
14914,34.0,0,390,8.0,64.0
14915,55.0,0,240,7.0,64.0
14916,58.0,0,240,7.0,64.0
14917,79.0,0,120,11.0,64.0
14918,79.0,0,120,0.0,64.0
14919,46.0,75,390,7.0,64.0
14920,67.0,0,720,3.0,64.0
14921,67.0,5,720,5.0,64.0
14922,79.0,0,120,2.0,64.0
14923,79.0,0,720,3.0,64.0
14924,91.0,0,120,0.0,64.0
14925,58.0,0,240,5.0,64.0
14926,46.0,0,240,14.0,64.0
14927,81.0,0,120,0.0,64.0
14928,93.0,0,120,0.0,64.0
14929,81.0,0,120,11.0,64.0
14930,81.0,0,120,2.0,64.0
14931,69.0,0,120,12.0,64.0
14932,74.0,0,120,0.0,64.0
14933,70.0,0,480,6.0,64.0
14934,55.0,0,240,7.0,64.0
14935,50.0,0,240,7.0,64.0
14936,74.0,0,120,2.0,64.0
14937,74.0,0,120,11.0,64.0
14938,86.0,40,120,0.0,64.0
14939,55.0,5,240,5.0,64.0
14940,62.0,0,120,12.0,64.0
14941,43.0,0,240,14.0,64.0
14942,58.0,0,480,13.0,64.0
14943,58.0,0,480,4.0,64.0
14944,77.0,120,120,0.0,64.0
14945,77.0,0,120,11.0,64.0
14946,65.0,0,120,12.0,64.0
14947,89.0,0,120,0.0,64.0
14948,77.0,0,120,2.0,64.0
14949,36.0,0,390,8.0,64.0
14950,55.0,0,240,7.0,64.0
14951,60.0,0,240,7.0,64.0
14952,75.0,0,120,11.0,64.0
14953,63.0,0,120,12.0,64.0
14954,60.0,0,240,5.0,64.0
14955,36.0,75,390,15.0,64.0
14956,87.0,115,120,0.0,64.0
14957,48.0,0,390,7.0,64.0
14958,75.0,0,120,0.0,64.0
14959,48.0,0,240,14.0,64.0
14960,75.0,0,120,2.0,64.0
14961,65.0,0,120,12.0,64.0
14962,77.0,120,120,0.0,64.0
14963,89.0,0,120,0.0,64.0
14964,77.0,0,120,11.0,64.0
14965,77.0,0,120,2.0,64.0
14966,60.0,0,120,12.0,64.0
14967,72.0,0,120,2.0,64.0
14968,57.0,0,480,4.0,64.0
14969,72.0,0,120,11.0,64.0
14970,69.0,5,480,6.0,64.0
14971,53.0,0,240,7.0,64.0
14972,65.0,0,240,7.0,64.0
14973,84.0,0,120,0.0,64.0
14974,72.0,0,120,0.0,64.0
14975,57.0,0,480,13.0,64.0
14976,53.0,5,240,14.0,64.0
14977,77.0,0,480,3.0,64.0
14978,65.0,0,240,5.0,64.0
14979,65.0,0,480,3.0,64.0
14980,75.0,0,120,11.0,64.0
14981,87.0,0,120,0.0,64.0
14982,63.0,0,120,12.0,64.0
14983,75.0,0,120,2.0,64.0
14984,75.0,0,120,0.0,64.0
14985,58.0,0,240,5.0,64.0
14986,34.0,0,390,8.0,64.0
14987,74.0,0,120,0.0,64.0
14988,58.0,0,240,7.0,64.0
14989,53.0,0,240,7.0,64.0
14990,86.0,0,120,0.0,64.0
14991,74.0,0,120,11.0,64.0
14992,46.0,0,240,14.0,64.0
14993,46.0,0,390,7.0,64.0
14994,34.0,75,390,15.0,64.0
14995,62.0,0,120,12.0,64.0
14996,74.0,0,120,2.0,64.0
14997,75.0,0,120,0.0,64.0
14998,63.0,0,120,12.0,64.0
14999,87.0,0,120,0.0,64.0
15000,75.0,0,120,11.0,64.0
15001,75.0,0,120,2.0,64.0
15002,63.0,0,480,3.0,64.0
15003,55.0,120,480,4.0,64.0
15004,70.0,0,120,11.0,64.0
15005,55.0,0,480,13.0,64.0
15006,67.0,0,480,6.0,64.0
15007,82.0,0,120,0.0,64.0
15008,70.0,40,120,0.0,64.0
15009,63.0,0,240,7.0,64.0
15010,51.0,0,240,7.0,64.0
15011,51.0,5,240,14.0,64.0
15012,58.0,0,120,12.0,64.0
15013,70.0,0,120,2.0,64.0
15014,63.0,120,240,5.0,64.0
15015,75.0,5,480,3.0,64.0
15016,86.0,0,120,0.0,64.0
15017,74.0,0,120,11.0,64.0
15018,74.0,0,120,2.0,64.0
15019,74.0,0,120,0.0,64.0
15020,62.0,0,120,12.0,64.0
15021,45.0,0,240,7.0,64.0
15022,57.0,0,240,7.0,64.0
15023,51.0,0,240,7.0,64.0
15024,33.0,0,240,15.0,64.0
15025,84.0,0,120,0.0,64.0
15026,45.0,0,240,14.0,64.0
15027,60.0,115,120,12.0,64.0
15028,33.0,0,240,8.0,64.0
15029,72.0,0,120,0.0,64.0
15030,72.0,0,120,11.0,64.0
15031,72.0,0,120,2.0,64.0
15032,57.0,0,240,5.0,64.0
15033,74.0,0,120,11.0,64.0
15034,62.0,0,120,12.0,64.0
15035,74.0,0,120,2.0,64.0
15036,74.0,0,120,0.0,64.0
15037,86.0,0,120,0.0,64.0
15038,57.0,0,120,12.0,64.0
15039,74.0,0,480,3.0,64.0
15040,62.0,0,240,7.0,64.0
15041,38.0,0,240,15.0,64.0
15042,69.0,0,120,11.0,64.0
15043,81.0,115,120,0.0,64.0
15044,50.0,0,240,14.0,64.0
15045,66.0,0,240,6.0,64.0
15046,62.0,0,240,5.0,64.0
15047,50.0,0,240,7.0,64.0
15048,54.0,0,240,4.0,64.0
15049,62.0,0,480,3.0,64.0
15050,38.0,5,240,8.0,64.0
15051,69.0,0,120,0.0,64.0
15052,69.0,0,120,2.0,64.0
15053,54.0,0,240,13.0,64.0
15054,60.0,0,120,12.0,64.0
15055,72.0,0,120,11.0,64.0
15056,72.0,120,120,0.0,64.0
15057,84.0,0,120,0.0,64.0
15058,72.0,0,120,2.0,64.0
15059,55.0,5,600,4.0,64.0
15060,55.0,0,600,13.0,64.0
15061,59.0,0,120,12.0,64.0
15062,71.0,115,120,0.0,64.0
15063,83.0,0,120,0.0,64.0
15064,71.0,0,120,2.0,64.0
15065,67.0,0,600,6.0,64.0
15066,71.0,0,120,11.0,64.0
15067,84.0,0,120,0.0,64.0
15068,60.0,0,120,12.0,64.0
15069,72.0,0,120,2.0,64.0
15070,72.0,0,120,11.0,64.0
15071,72.0,120,120,0.0,64.0
15072,62.0,115,240,3.0,64.0
15073,41.0,0,240,15.0,64.0
15074,65.0,0,240,5.0,64.0
15075,69.0,0,120,2.0,64.0
15076,81.0,115,120,0.0,64.0
15077,62.0,0,240,5.0,64.0
15078,65.0,0,240,7.0,64.0
15079,50.0,0,240,7.0,64.0
15080,53.0,0,240,14.0,64.0
15081,53.0,0,240,7.0,64.0
15082,74.0,0,240,3.0,64.0
15083,41.0,0,240,8.0,64.0
15084,69.0,0,120,0.0,64.0
15085,69.0,0,120,11.0,64.0
15086,57.0,0,120,12.0,64.0
15087,59.0,5,120,12.0,64.0
15088,71.0,0,120,0.0,64.0
15089,71.0,0,120,2.0,64.0
15090,71.0,0,120,11.0,64.0
15091,83.0,0,120,0.0,64.0
15092,72.0,0,120,0.0,64.0
15093,60.0,120,120,12.0,64.0
15094,75.0,0,390,3.0,64.0
15095,84.0,0,120,0.0,64.0
15096,39.0,0,240,8.0,64.0
15097,63.0,120,240,5.0,64.0
15098,51.0,0,240,14.0,64.0
15099,63.0,0,240,7.0,64.0
15100,39.0,0,240,15.0,64.0
15101,72.0,0,120,2.0,64.0
15102,63.0,0,390,3.0,64.0
15103,51.0,0,240,7.0,64.0
15104,72.0,0,120,11.0,64.0
15105,70.0,0,120,6.0,64.0
15106,86.0,0,120,0.0,64.0
15107,74.0,0,120,11.0,64.0
15108,58.0,0,120,13.0,64.0
15109,62.0,0,120,12.0,64.0
15110,58.0,0,120,4.0,64.0
15111,74.0,0,120,0.0,64.0
15112,74.0,0,120,2.0,64.0
15113,87.0,0,120,0.0,64.0
15114,69.0,0,120,6.0,64.0
15115,63.0,0,120,12.0,64.0
15116,36.0,0,240,15.0,64.0
15117,48.0,0,240,14.0,64.0
15118,51.0,0,15,7.0,64.0
15119,60.0,0,240,7.0,64.0
15120,57.0,40,120,13.0,64.0
15121,48.0,0,240,7.0,64.0
15122,36.0,0,240,8.0,64.0
15123,75.0,0,120,0.0,64.0
15124,75.0,0,120,2.0,64.0
15125,60.0,0,240,5.0,64.0
15126,57.0,0,120,4.0,64.0
15127,75.0,0,120,11.0,64.0
15128,69.0,0,120,0.0,64.0
15129,57.0,5,120,12.0,64.0
15130,81.0,0,120,0.0,64.0
15131,55.0,0,120,13.0,64.0
15132,69.0,0,120,2.0,64.0
15133,55.0,0,120,4.0,64.0
15134,67.0,30,120,6.0,64.0
15135,69.0,0,120,11.0,64.0
15136,38.0,0,240,15.0,64.0
15137,69.0,0,30,0.0,64.0
15138,62.0,0,240,5.0,64.0
15139,57.0,0,30,12.0,64.0
15140,69.0,0,30,2.0,64.0
15141,81.0,0,30,0.0,64.0
15142,50.0,5,240,7.0,64.0
15143,66.0,0,360,6.0,64.0
15144,62.0,0,240,3.0,64.0
15145,54.0,0,360,4.0,64.0
15146,74.0,0,240,3.0,64.0
15147,69.0,0,30,11.0,64.0
15148,50.0,20,390,14.0,64.0
15149,54.0,0,360,13.0,64.0
15150,59.0,0,30,12.0,64.0
15151,71.0,0,30,2.0,64.0
15152,71.0,0,30,0.0,64.0
15153,83.0,0,30,0.0,64.0
15154,71.0,0,30,11.0,64.0
15155,69.0,0,30,0.0,64.0
15156,81.0,30,30,0.0,64.0
15157,57.0,0,30,12.0,64.0
15158,69.0,0,30,2.0,64.0
15159,69.0,0,30,11.0,64.0
15160,71.0,30,30,11.0,64.0
15161,83.0,0,30,0.0,64.0
15162,71.0,0,30,0.0,64.0
15163,71.0,0,30,2.0,64.0
15164,59.0,0,30,12.0,64.0
15165,69.0,0,30,0.0,64.0
15166,69.0,0,30,2.0,64.0
15167,57.0,30,30,12.0,64.0
15168,69.0,0,30,11.0,64.0
15169,81.0,0,30,0.0,64.0
15170,71.0,0,30,0.0,64.0
15171,71.0,30,30,11.0,64.0
15172,59.0,0,30,12.0,64.0
15173,83.0,0,30,0.0,64.0
15174,71.0,0,30,2.0,64.0
15175,69.0,0,30,0.0,64.0
15176,69.0,0,30,11.0,64.0
15177,81.0,0,30,0.0,64.0
15178,57.0,0,30,12.0,64.0
15179,69.0,0,30,2.0,64.0
15180,83.0,0,30,0.0,64.0
15181,59.0,30,30,12.0,64.0
15182,71.0,0,30,11.0,64.0
15183,71.0,0,30,0.0,64.0
15184,71.0,0,30,2.0,64.0
15185,69.0,0,30,2.0,64.0
15186,81.0,0,30,0.0,64.0
15187,69.0,0,30,11.0,64.0
15188,69.0,0,30,0.0,64.0
15189,50.0,0,240,5.0,64.0
15190,38.0,0,15,8.0,64.0
15191,50.0,0,15,7.0,64.0
15192,60.0,0,240,3.0,64.0
15193,50.0,0,240,15.0,64.0
15194,60.0,0,240,5.0,64.0
15195,62.0,0,15,7.0,64.0
15196,50.0,0,240,7.0,64.0
15197,72.0,0,240,3.0,64.0
15198,57.0,0,30,12.0,64.0
15199,59.0,0,30,12.0,64.0
15200,71.0,30,30,11.0,64.0
15201,83.0,0,30,0.0,64.0
15202,71.0,0,30,0.0,64.0
15203,71.0,0,30,2.0,64.0
15204,69.0,0,30,0.0,64.0
15205,81.0,0,30,0.0,64.0
15206,57.0,0,30,12.0,64.0
15207,69.0,0,30,2.0,64.0
15208,69.0,0,30,11.0,64.0
15209,71.0,0,30,0.0,64.0
15210,59.0,0,30,12.0,64.0
15211,83.0,0,30,0.0,64.0
15212,71.0,0,30,11.0,64.0
15213,71.0,0,30,2.0,64.0
15214,55.0,0,120,4.0,64.0
15215,69.0,0,30,0.0,64.0
15216,57.0,0,30,12.0,64.0
15217,55.0,0,120,13.0,64.0
15218,67.0,0,120,6.0,64.0
15219,81.0,10,30,0.0,64.0
15220,69.0,0,30,2.0,64.0
15221,69.0,0,30,11.0,64.0
15222,71.0,0,30,11.0,64.0
15223,59.0,0,30,12.0,64.0
15224,71.0,0,30,0.0,64.0
15225,71.0,0,30,2.0,64.0
15226,83.0,30,30,0.0,64.0
15227,69.0,0,30,0.0,64.0
15228,57.0,0,30,12.0,64.0
15229,69.0,0,30,11.0,64.0
15230,81.0,0,30,0.0,64.0
15231,69.0,0,30,2.0,64.0
15232,83.0,0,30,0.0,64.0
15233,59.0,0,30,12.0,64.0
15234,71.0,5,30,0.0,64.0
15235,71.0,0,30,11.0,64.0
15236,71.0,0,30,2.0,64.0
15237,67.0,0,120,0.0,64.0
15238,79.0,0,120,0.0,64.0
15239,67.0,0,120,2.0,64.0
15240,31.0,0,240,15.0,64.0
15241,43.0,75,390,7.0,64.0
15242,43.0,0,240,14.0,64.0
15243,55.0,0,720,4.0,64.0
15244,71.0,0,240,3.0,64.0
15245,55.0,120,120,12.0,64.0
15246,67.0,0,120,11.0,64.0
15247,59.0,0,240,5.0,64.0
15248,59.0,0,240,3.0,64.0
15249,67.0,0,720,6.0,64.0
15250,55.0,0,720,13.0,64.0
15251,55.0,0,390,7.0,64.0
15252,55.0,0,390,5.0,64.0
15253,83.0,0,120,0.0,64.0
15254,71.0,0,120,11.0,64.0
15255,71.0,0,120,0.0,64.0
15256,71.0,0,120,2.0,64.0
15257,59.0,120,120,12.0,64.0
15258,81.0,40,120,0.0,64.0
15259,60.0,0,240,3.0,64.0
15260,43.0,0,240,15.0,64.0
15261,43.0,0,15,8.0,64.0
15262,69.0,0,120,0.0,64.0
15263,57.0,0,120,12.0,64.0
15264,72.0,0,240,3.0,64.0
15265,60.0,0,240,5.0,64.0
15266,55.0,0,240,14.0,64.0
15267,69.0,0,120,2.0,64.0
15268,69.0,0,120,11.0,64.0
15269,72.0,0,120,2.0,64.0
15270,84.0,120,120,0.0,64.0
15271,60.0,0,120,12.0,64.0
15272,72.0,0,120,11.0,64.0
15273,72.0,0,120,0.0,64.0
15274,62.0,5,720,5.0,64.0
15275,38.0,0,240,15.0,64.0
15276,71.0,0,120,0.0,64.0
15277,83.0,120,120,0.0,64.0
15278,50.0,0,240,14.0,64.0
15279,71.0,0,120,11.0,64.0
15280,38.0,120,240,8.0,64.0
15281,62.0,0,720,3.0,64.0
15282,59.0,0,120,12.0,64.0
15283,74.0,0,720,3.0,64.0
15284,71.0,0,120,2.0,64.0
15285,74.0,0,120,0.0,64.0
15286,74.0,0,120,2.0,64.0
15287,74.0,0,120,11.0,64.0
15288,62.0,0,120,12.0,64.0
15289,86.0,0,120,0.0,64.0
15290,57.0,0,240,13.0,64.0
15291,60.0,0,120,12.0,64.0
15292,48.0,5,240,14.0,64.0
15293,36.0,0,240,15.0,64.0
15294,84.0,0,120,0.0,64.0
15295,69.0,0,240,6.0,64.0
15296,72.0,0,120,2.0,64.0
15297,57.0,120,240,4.0,64.0
15298,72.0,0,120,0.0,64.0
15299,36.0,0,240,8.0,64.0
15300,72.0,0,120,11.0,64.0
15301,75.0,0,120,11.0,64.0
15302,63.0,0,120,12.0,64.0
15303,75.0,0,120,2.0,64.0
15304,87.0,0,120,0.0,64.0
15305,75.0,0,120,0.0,64.0
15306,71.0,0,390,6.0,64.0
15307,74.0,0,120,11.0,64.0
15308,86.0,0,120,0.0,64.0
15309,59.0,0,390,4.0,64.0
15310,74.0,115,120,0.0,64.0
15311,62.0,0,120,12.0,64.0
15312,59.0,75,390,13.0,64.0
15313,50.0,0,240,14.0,64.0
15314,38.0,0,240,8.0,64.0
15315,74.0,0,120,2.0,64.0
15316,38.0,0,240,15.0,64.0
15317,77.0,0,120,0.0,64.0
15318,89.0,0,120,0.0,64.0
15319,77.0,0,120,11.0,64.0
15320,77.0,0,120,2.0,64.0
15321,65.0,120,120,12.0,64.0
15322,55.0,0,240,14.0,64.0
15323,67.0,0,630,3.0,64.0
15324,75.0,0,120,11.0,64.0
15325,75.0,0,120,0.0,64.0
15326,43.0,0,240,8.0,64.0
15327,79.0,0,630,3.0,64.0
15328,43.0,0,240,15.0,64.0
15329,87.0,0,120,0.0,64.0
15330,55.0,0,240,7.0,64.0
15331,67.0,0,240,5.0,64.0
15332,63.0,0,120,12.0,64.0
15333,75.0,0,120,2.0,64.0
15334,74.0,0,120,0.0,64.0
15335,74.0,5,120,11.0,64.0
15336,62.0,0,120,12.0,64.0
15337,86.0,0,120,0.0,64.0
15338,74.0,0,120,2.0,64.0
15339,48.0,0,720,4.0,64.0
15340,87.0,0,390,0.0,64.0
15341,67.0,0,390,5.0,64.0
15342,36.0,0,720,8.0,64.0
15343,72.0,120,120,6.0,64.0
15344,36.0,120,720,15.0,64.0
15345,48.0,0,720,14.0,64.0
15346,60.0,0,120,13.0,64.0
15347,63.0,0,390,12.0,64.0
15348,75.0,0,390,11.0,64.0
15349,75.0,0,390,2.0,64.0
15350,60.0,80,630,5.0,64.0
15351,48.0,0,720,7.0,64.0
15352,75.0,0,390,0.0,64.0
15353,63.0,0,120,13.0,64.0
15354,75.0,120,120,6.0,64.0
15355,74.0,40,120,6.0,64.0
15356,62.0,0,120,13.0,64.0
15357,65.0,5,120,13.0,64.0
15358,77.0,120,120,6.0,64.0
15359,84.0,0,720,3.0,64.0
15360,72.0,0,720,5.0,64.0
15361,75.0,0,120,6.0,64.0
15362,72.0,0,720,3.0,64.0
15363,63.0,40,120,13.0,64.0
15364,67.0,0,120,6.0,64.0
15365,67.0,0,120,13.0,64.0
15366,62.0,5,240,5.0,64.0
15367,65.0,115,120,13.0,64.0
15368,50.0,0,240,7.0,64.0
15369,65.0,0,120,6.0,64.0
15370,50.0,120,240,4.0,64.0
15371,38.0,0,240,8.0,64.0
15372,50.0,0,240,14.0,64.0
15373,38.0,0,240,15.0,64.0
15374,68.0,0,120,6.0,64.0
15375,68.0,0,120,13.0,64.0
15376,67.0,0,120,13.0,64.0
15377,52.0,0,240,14.0,64.0
15378,52.0,0,240,4.0,64.0
15379,40.0,0,240,15.0,64.0
15380,64.0,5,240,5.0,64.0
15381,67.0,115,120,6.0,64.0
15382,40.0,0,240,8.0,64.0
15383,52.0,0,240,7.0,64.0
15384,70.0,0,120,13.0,64.0
15385,70.0,120,120,6.0,64.0
15386,64.0,0,240,12.0,64.0
15387,72.0,0,630,3.0,64.0
15388,72.0,0,240,5.0,64.0
15389,68.0,115,120,6.0,64.0
15390,60.0,0,240,5.0,64.0
15391,48.0,0,240,14.0,64.0
15392,84.0,0,630,3.0,64.0
15393,36.0,0,240,8.0,64.0
15394,48.0,0,240,7.0,64.0
15395,76.0,0,240,0.0,64.0
15396,48.0,0,240,4.0,64.0
15397,36.0,0,240,15.0,64.0
15398,76.0,0,240,11.0,64.0
15399,76.0,0,240,2.0,64.0
15400,68.0,0,120,13.0,64.0
15401,64.0,0,240,2.0,64.0
15402,67.0,0,120,13.0,64.0
15403,67.0,120,120,6.0,64.0
15404,72.0,75,390,5.0,64.0
15405,68.0,0,240,6.0,64.0
15406,41.0,0,840,8.0,64.0
15407,53.0,0,840,14.0,64.0
15408,65.0,0,120,12.0,64.0
15409,77.0,0,120,2.0,64.0
15410,41.0,0,840,15.0,64.0
15411,68.0,0,240,13.0,64.0
15412,65.0,0,840,5.0,64.0
15413,65.0,120,120,2.0,64.0
15414,53.0,0,840,4.0,64.0
15415,53.0,0,840,7.0,64.0
15416,77.0,0,120,0.0,64.0
15417,77.0,0,120,11.0,64.0
15418,80.0,0,120,11.0,64.0
15419,80.0,0,120,0.0,64.0
15420,68.0,0,120,12.0,64.0
15421,80.0,0,120,2.0,64.0
15422,68.0,120,120,2.0,64.0
15423,67.0,0,120,2.0,64.0
15424,79.0,0,120,11.0,64.0
15425,79.0,0,120,2.0,64.0
15426,64.0,5,240,13.0,64.0
15427,79.0,0,120,0.0,64.0
15428,67.0,40,120,12.0,64.0
15429,64.0,120,240,6.0,64.0
15430,70.0,0,120,2.0,64.0
15431,70.0,0,120,12.0,64.0
15432,82.0,0,120,2.0,64.0
15433,82.0,0,120,0.0,64.0
15434,82.0,0,120,11.0,64.0
15435,65.0,0,120,13.0,64.0
15436,80.0,5,240,11.0,64.0
15437,68.0,60,240,2.0,64.0
15438,68.0,0,240,12.0,64.0
15439,80.0,0,240,2.0,64.0
15440,80.0,0,240,0.0,64.0
15441,65.0,115,120,6.0,64.0
15442,68.0,0,120,13.0,64.0
15443,68.0,0,120,6.0,64.0
15444,82.0,0,60,2.0,64.0
15445,67.0,0,120,6.0,64.0
15446,67.0,60,120,13.0,64.0
15447,82.0,0,60,0.0,64.0
15448,70.0,0,60,2.0,64.0
15449,82.0,60,60,11.0,64.0
15450,70.0,0,60,12.0,64.0
15451,84.0,0,60,11.0,64.0
15452,84.0,0,60,2.0,64.0
15453,84.0,0,60,0.0,64.0
15454,72.0,0,60,12.0,64.0
15455,72.0,0,60,2.0,64.0
15456,70.0,0,60,2.0,64.0
15457,82.0,0,60,2.0,64.0
15458,70.0,0,120,13.0,64.0
15459,70.0,0,60,12.0,64.0
15460,82.0,0,60,0.0,64.0
15461,70.0,60,120,6.0,64.0
15462,82.0,0,60,11.0,64.0
15463,72.0,0,60,2.0,64.0
15464,84.0,0,60,2.0,64.0
15465,72.0,5,60,12.0,64.0
15466,84.0,0,60,11.0,64.0
15467,84.0,0,60,0.0,64.0
15468,68.0,0,390,6.0,64.0
15469,80.0,0,60,2.0,64.0
15470,29.0,0,390,15.0,64.0
15471,41.0,0,390,4.0,64.0
15472,41.0,75,390,7.0,64.0
15473,68.0,0,60,12.0,64.0
15474,65.0,0,390,5.0,64.0
15475,68.0,0,60,2.0,64.0
15476,53.0,0,390,7.0,64.0
15477,29.0,0,390,8.0,64.0
15478,68.0,0,390,13.0,64.0
15479,80.0,0,60,0.0,64.0
15480,53.0,0,390,5.0,64.0
15481,80.0,0,60,11.0,64.0
15482,41.0,0,390,14.0,64.0
15483,70.0,0,60,2.0,64.0
15484,82.0,60,60,2.0,64.0
15485,82.0,0,60,0.0,64.0
15486,70.0,0,60,12.0,64.0
15487,82.0,0,60,11.0,64.0
15488,84.0,120,120,3.0,64.0
15489,72.0,0,60,2.0,64.0
15490,72.0,0,60,12.0,64.0
15491,72.0,0,120,3.0,64.0
15492,84.0,0,60,2.0,64.0
15493,84.0,0,60,0.0,64.0
15494,84.0,0,60,11.0,64.0
15495,80.0,0,60,2.0,64.0
15496,80.0,0,60,11.0,64.0
15497,68.0,0,60,2.0,64.0
15498,68.0,0,60,12.0,64.0
15499,80.0,0,60,0.0,64.0
15500,67.0,0,120,2.0,64.0
15501,70.0,0,120,3.0,64.0
15502,79.0,0,120,2.0,64.0
15503,79.0,0,120,0.0,64.0
15504,79.0,0,120,11.0,64.0
15505,67.0,40,120,12.0,64.0
15506,82.0,0,120,3.0,64.0
15507,68.0,0,120,3.0,64.0
15508,80.0,0,120,3.0,64.0
15509,77.0,0,120,11.0,64.0
15510,65.0,0,120,2.0,64.0
15511,77.0,0,120,2.0,64.0
15512,77.0,0,120,0.0,64.0
15513,65.0,5,120,12.0,64.0
15514,64.0,0,120,2.0,64.0
15515,76.0,115,120,2.0,64.0
15516,76.0,0,120,11.0,64.0
15517,36.0,0,840,15.0,64.0
15518,72.0,0,840,5.0,64.0
15519,79.0,0,240,3.0,64.0
15520,67.0,5,240,3.0,64.0
15521,64.0,0,120,12.0,64.0
15522,48.0,0,840,7.0,64.0
15523,36.0,0,840,8.0,64.0
15524,60.0,0,840,5.0,64.0
15525,60.0,0,840,7.0,64.0
15526,76.0,0,120,0.0,64.0
15527,48.0,0,840,14.0,64.0
15528,67.0,120,120,2.0,64.0
15529,67.0,0,120,12.0,64.0
15530,79.0,0,120,0.0,64.0
15531,79.0,0,120,11.0,64.0
15532,79.0,0,120,2.0,64.0
15533,77.0,115,120,2.0,64.0
15534,77.0,0,120,11.0,64.0
15535,80.0,0,240,3.0,64.0
15536,56.0,0,240,4.0,64.0
15537,77.0,0,120,0.0,64.0
15538,68.0,0,240,3.0,64.0
15539,65.0,0,120,12.0,64.0
15540,65.0,0,120,2.0,64.0
15541,80.0,5,120,11.0,64.0
15542,68.0,0,120,12.0,64.0
15543,80.0,0,120,0.0,64.0
15544,80.0,0,120,2.0,64.0
15545,68.0,0,120,2.0,64.0
15546,64.0,0,240,3.0,64.0
15547,76.0,5,240,3.0,64.0
15548,79.0,0,120,2.0,64.0
15549,67.0,0,120,12.0,64.0
15550,67.0,115,120,2.0,64.0
15551,52.0,0,240,4.0,64.0
15552,79.0,0,120,0.0,64.0
15553,79.0,0,120,11.0,64.0
15554,70.0,120,120,12.0,64.0
15555,60.0,0,120,13.0,64.0
15556,82.0,0,120,11.0,64.0
15557,82.0,0,120,2.0,64.0
15558,70.0,0,120,2.0,64.0
15559,72.0,0,120,6.0,64.0
15560,82.0,0,120,0.0,64.0
15561,80.0,0,120,2.0,64.0
15562,58.0,115,120,13.0,64.0
15563,64.0,0,240,3.0,64.0
15564,80.0,0,120,0.0,64.0
15565,76.0,0,240,3.0,64.0
15566,68.0,0,120,2.0,64.0
15567,70.0,0,120,6.0,64.0
15568,80.0,0,120,11.0,64.0
15569,52.0,0,240,4.0,64.0
15570,68.0,0,120,12.0,64.0
15571,79.0,0,120,11.0,64.0
15572,67.0,0,120,12.0,64.0
15573,67.0,0,120,2.0,64.0
15574,79.0,0,120,0.0,64.0
15575,60.0,5,120,13.0,64.0
15576,79.0,0,120,2.0,64.0
15577,72.0,120,120,6.0,64.0
15578,80.0,0,870,11.0,64.0
15579,44.0,0,390,14.0,64.0
15580,68.0,0,390,5.0,64.0
15581,77.0,0,390,3.0,64.0
15582,80.0,0,870,0.0,64.0
15583,56.0,0,390,7.0,64.0
15584,53.0,0,120,13.0,64.0
15585,80.0,0,870,2.0,64.0
15586,65.0,120,120,6.0,64.0
15587,32.0,0,390,8.0,64.0
15588,68.0,0,870,12.0,64.0
15589,44.0,75,390,7.0,64.0
15590,65.0,0,390,3.0,64.0
15591,32.0,0,390,15.0,64.0
15592,53.0,0,390,4.0,64.0
15593,68.0,0,870,2.0,64.0
15594,56.0,0,390,5.0,64.0
15595,77.0,0,120,6.0,64.0
15596,65.0,120,120,13.0,64.0
15597,75.0,40,120,6.0,64.0
15598,63.0,0,120,13.0,64.0
15599,77.0,120,120,6.0,64.0
15600,65.0,5,120,13.0,64.0
15601,61.0,0,120,13.0,64.0
15602,70.0,0,840,5.0,64.0
15603,34.0,0,840,8.0,64.0
15604,46.0,0,840,7.0,64.0
15605,46.0,40,840,14.0,64.0
15606,58.0,0,840,5.0,64.0
15607,34.0,0,840,15.0,64.0
15608,58.0,0,840,7.0,64.0
15609,73.0,120,120,6.0,64.0
15610,65.0,0,120,13.0,64.0
15611,77.0,120,120,6.0,64.0
15612,73.0,0,120,6.0,64.0
15613,61.0,40,120,13.0,64.0
15614,85.0,0,240,3.0,64.0
15615,73.0,0,240,3.0,64.0
15616,61.0,0,240,4.0,64.0
15617,77.0,120,120,6.0,64.0
15618,65.0,5,120,13.0,64.0
15619,79.0,0,390,2.0,64.0
15620,55.0,5,240,4.0,64.0
15621,61.0,115,120,13.0,64.0
15622,79.0,0,390,11.0,64.0
15623,67.0,0,390,12.0,64.0
15624,67.0,0,240,3.0,64.0
15625,79.0,0,390,0.0,64.0
15626,79.0,0,240,3.0,64.0
15627,73.0,0,120,6.0,64.0
15628,67.0,0,390,2.0,64.0
15629,63.0,120,120,13.0,64.0
15630,75.0,0,120,6.0,64.0
15631,55.0,0,240,4.0,64.0
15632,61.0,0,120,13.0,64.0
15633,73.0,0,120,6.0,64.0
15634,67.0,0,240,3.0,64.0
15635,79.0,0,240,3.0,64.0
15636,75.0,120,120,6.0,64.0
15637,63.0,5,120,13.0,64.0
15638,66.0,0,390,2.0,64.0
15639,66.0,0,390,12.0,64.0
15640,48.0,0,390,14.0,64.0
15641,72.0,0,390,5.0,64.0
15642,57.0,0,390,4.0,64.0
15643,72.0,0,120,6.0,64.0
15644,78.0,0,390,2.0,64.0
15645,60.0,120,120,13.0,64.0
15646,48.0,75,390,7.0,64.0
15647,36.0,0,390,15.0,64.0
15648,60.0,0,390,7.0,64.0
15649,81.0,0,390,3.0,64.0
15650,78.0,0,390,11.0,64.0
15651,69.0,0,390,3.0,64.0
15652,36.0,0,390,8.0,64.0
15653,78.0,0,390,0.0,64.0
15654,60.0,0,390,5.0,64.0
15655,75.0,120,120,6.0,64.0
15656,63.0,0,120,13.0,64.0
15657,60.0,40,120,13.0,64.0
15658,72.0,0,120,6.0,64.0
15659,63.0,5,120,13.0,64.0
15660,75.0,120,120,6.0,64.0
15661,37.0,0,840,15.0,64.0
15662,37.0,0,840,8.0,64.0
15663,49.0,0,840,14.0,64.0
15664,58.0,120,120,13.0,64.0
15665,77.0,0,1560,2.0,64.0
15666,73.0,0,840,5.0,64.0
15667,70.0,0,120,6.0,64.0
15668,77.0,0,1560,11.0,64.0
15669,61.0,115,840,5.0,64.0
15670,65.0,125,1560,12.0,64.0
15671,49.0,0,840,7.0,64.0
15672,77.0,0,1560,0.0,64.0
15673,61.0,0,840,7.0,64.0
15674,65.0,0,1560,2.0,64.0
15675,73.0,0,120,6.0,64.0
15676,61.0,120,120,13.0,64.0
15677,70.0,0,240,3.0,64.0
15678,58.0,120,240,4.0,64.0
15679,82.0,0,240,3.0,64.0
15680,72.0,115,120,6.0,64.0
15681,60.0,0,120,13.0,64.0
15682,63.0,5,120,13.0,64.0
15683,75.0,0,120,6.0,64.0
15684,73.0,115,120,6.0,64.0
15685,77.0,0,240,3.0,64.0
15686,65.0,5,240,3.0,64.0
15687,53.0,0,240,4.0,64.0
15688,61.0,0,120,13.0,64.0
15689,63.0,120,120,13.0,64.0
15690,75.0,0,120,6.0,64.0
15691,77.0,0,240,3.0,64.0
15692,65.0,0,240,3.0,64.0
15693,73.0,0,120,6.0,64.0
15694,53.0,120,240,4.0,64.0
15695,61.0,0,120,13.0,64.0
15696,63.0,5,120,13.0,64.0
15697,75.0,0,120,6.0,64.0
15698,46.0,0,390,14.0,64.0
15699,70.0,0,390,5.0,64.0
15700,61.0,0,120,13.0,64.0
15701,73.0,120,120,6.0,64.0
15702,67.0,0,390,3.0,64.0
15703,58.0,0,390,7.0,64.0
15704,34.0,0,390,8.0,64.0
15705,58.0,75,390,5.0,64.0
15706,46.0,0,390,7.0,64.0
15707,55.0,0,390,4.0,64.0
15708,79.0,0,390,3.0,64.0
15709,34.0,0,390,15.0,64.0
15710,75.0,0,120,6.0,64.0
15711,63.0,120,120,13.0,64.0
15712,61.0,40,120,13.0,64.0
15713,73.0,0,120,6.0,64.0
15714,63.0,5,120,13.0,64.0
15715,75.0,115,120,6.0,64.0
15716,48.0,0,600,14.0,64.0
15717,36.0,0,720,8.0,64.0
15718,80.0,0,240,3.0,64.0
15719,60.0,75,390,7.0,64.0
15720,60.0,0,1560,13.0,64.0
15721,48.0,120,600,4.0,64.0
15722,60.0,0,600,5.0,64.0
15723,72.0,0,1560,6.0,64.0
15724,68.0,120,240,3.0,64.0
15725,36.0,0,600,15.0,64.0
15726,72.0,0,600,5.0,64.0
15727,77.0,0,120,11.0,64.0
15728,65.0,0,120,2.0,64.0
15729,77.0,0,120,0.0,64.0
15730,77.0,0,120,2.0,64.0
15731,65.0,0,120,12.0,64.0
15732,79.0,0,120,2.0,64.0
15733,82.0,0,120,3.0,64.0
15734,67.0,0,120,2.0,64.0
15735,79.0,0,120,11.0,64.0
15736,67.0,0,120,12.0,64.0
15737,79.0,0,120,0.0,64.0
15738,70.0,0,120,3.0,64.0
15739,68.0,0,120,3.0,64.0
15740,80.0,0,120,3.0,64.0
15741,77.0,0,120,2.0,64.0
15742,77.0,0,120,0.0,64.0
15743,77.0,5,120,11.0,64.0
15744,65.0,0,120,2.0,64.0
15745,65.0,0,120,12.0,64.0
15746,76.0,0,240,11.0,64.0
15747,76.0,5,240,0.0,64.0
15748,64.0,0,240,12.0,64.0
15749,67.0,0,720,3.0,64.0
15750,64.0,0,240,2.0,64.0
15751,76.0,0,240,2.0,64.0
15752,52.0,0,240,7.0,64.0
15753,79.0,0,720,3.0,64.0
15754,52.0,120,120,14.0,64.0
15755,40.0,0,120,15.0,64.0
15756,52.0,0,120,4.0,64.0
15757,38.0,0,240,8.0,64.0
15758,65.0,0,240,2.0,64.0
15759,77.0,5,240,11.0,64.0
15760,65.0,0,240,12.0,64.0
15761,53.0,0,240,7.0,64.0
15762,77.0,0,240,2.0,64.0
15763,38.0,115,120,15.0,64.0
15764,50.0,0,120,14.0,64.0
15765,77.0,0,240,0.0,64.0
15766,50.0,0,120,4.0,64.0
15767,53.0,0,120,14.0,64.0
15768,41.0,0,120,15.0,64.0
15769,53.0,120,120,4.0,64.0
15770,52.0,0,120,14.0,64.0
15771,67.0,0,600,2.0,64.0
15772,79.0,0,600,11.0,64.0
15773,79.0,0,600,0.0,64.0
15774,40.0,5,240,8.0,64.0
15775,67.0,0,600,12.0,64.0
15776,79.0,0,600,2.0,64.0
15777,52.0,0,240,7.0,64.0
15778,40.0,0,120,15.0,64.0
15779,52.0,115,120,4.0,64.0
15780,55.0,0,120,14.0,64.0
15781,43.0,120,120,15.0,64.0
15782,55.0,0,120,4.0,64.0
15783,55.0,0,240,7.0,64.0
15784,67.0,0,240,3.0,64.0
15785,40.0,0,240,8.0,64.0
15786,52.0,0,120,14.0,64.0
15787,79.0,115,240,3.0,64.0
15788,52.0,115,120,4.0,64.0
15789,40.0,0,120,15.0,64.0
15790,55.0,0,120,14.0,64.0
15791,43.0,0,120,15.0,64.0
15792,55.0,5,120,4.0,64.0
15793,56.0,0,840,7.0,64.0
15794,72.0,0,630,3.0,64.0
15795,32.0,115,840,8.0,64.0
15796,44.0,75,390,14.0,64.0
15797,32.0,0,840,15.0,64.0
15798,44.0,0,390,4.0,64.0
15799,84.0,75,630,3.0,64.0
15800,79.0,0,120,11.0,64.0
15801,67.0,0,120,2.0,64.0
15802,79.0,0,120,2.0,64.0
15803,64.0,0,120,13.0,64.0
15804,79.0,0,120,0.0,64.0
15805,67.0,0,120,12.0,64.0
15806,80.0,0,120,2.0,64.0
15807,65.0,0,120,13.0,64.0
15808,80.0,0,120,11.0,64.0
15809,68.0,0,120,2.0,64.0
15810,80.0,0,120,0.0,64.0
15811,68.0,0,120,12.0,64.0
15812,79.0,5,120,11.0,64.0
15813,79.0,0,120,2.0,64.0
15814,67.0,0,120,13.0,64.0
15815,67.0,0,120,2.0,64.0
15816,79.0,0,120,0.0,64.0
15817,67.0,0,120,12.0,64.0
15818,65.0,0,240,2.0,64.0
15819,77.0,5,240,2.0,64.0
15820,77.0,0,240,0.0,64.0
15821,77.0,0,240,11.0,64.0
15822,68.0,0,240,13.0,64.0
15823,65.0,0,240,12.0,64.0
15824,48.0,120,120,4.0,64.0
15825,48.0,0,120,14.0,64.0
15826,67.0,0,240,12.0,64.0
15827,79.0,0,240,2.0,64.0
15828,85.0,0,240,3.0,64.0
15829,79.0,0,240,11.0,64.0
15830,67.0,0,120,13.0,64.0
15831,67.0,5,240,2.0,64.0
15832,46.0,0,120,14.0,64.0
15833,79.0,0,240,0.0,64.0
15834,73.0,0,240,3.0,64.0
15835,46.0,0,120,4.0,64.0
15836,49.0,120,120,4.0,64.0
15837,65.0,0,120,13.0,64.0
15838,49.0,0,120,14.0,64.0
15839,48.0,0,120,14.0,64.0
15840,48.0,120,240,7.0,64.0
15841,36.0,0,120,8.0,64.0
15842,68.0,0,600,2.0,64.0
15843,68.0,0,600,12.0,64.0
15844,80.0,0,600,2.0,64.0
15845,76.0,0,480,3.0,64.0
15846,80.0,0,600,11.0,64.0
15847,36.0,120,120,15.0,64.0
15848,64.0,115,480,3.0,64.0
15849,48.0,0,120,4.0,64.0
15850,72.0,75,390,13.0,64.0
15851,80.0,0,600,0.0,64.0
15852,37.0,0,120,15.0,64.0
15853,49.0,0,120,4.0,64.0
15854,49.0,0,120,14.0,64.0
15855,37.0,0,120,8.0,64.0
15856,48.0,0,120,4.0,64.0
15857,50.0,0,240,7.0,64.0
15858,48.0,40,120,14.0,64.0
15859,36.0,0,120,15.0,64.0
15860,36.0,0,120,8.0,64.0
15861,49.0,0,120,4.0,64.0
15862,37.0,0,120,8.0,64.0
15863,49.0,0,120,14.0,64.0
15864,37.0,5,120,15.0,64.0
15865,38.0,0,390,14.0,64.0
15866,50.0,0,390,7.0,64.0
15867,38.0,0,390,8.0,64.0
15868,70.0,0,240,13.0,64.0
15869,38.0,75,390,15.0,64.0
15870,77.0,0,240,3.0,64.0
15871,65.0,5,240,3.0,64.0
15872,38.0,0,480,4.0,64.0
15873,80.0,0,120,2.0,64.0
15874,68.0,0,120,2.0,64.0
15875,80.0,0,120,0.0,64.0
15876,80.0,0,120,11.0,64.0
15877,68.0,0,120,12.0,64.0
15878,82.0,0,120,11.0,64.0
15879,70.0,0,120,2.0,64.0
15880,70.0,0,120,12.0,64.0
15881,82.0,40,120,2.0,64.0
15882,82.0,5,480,3.0,64.0
15883,82.0,0,120,0.0,64.0
15884,70.0,0,480,3.0,64.0
15885,65.0,0,240,13.0,64.0
15886,68.0,0,120,12.0,64.0
15887,80.0,0,120,2.0,64.0
15888,80.0,5,120,11.0,64.0
15889,80.0,0,120,0.0,64.0
15890,68.0,0,120,2.0,64.0
15891,40.0,125,600,4.0,64.0
15892,79.0,0,120,11.0,64.0
15893,67.0,0,600,13.0,64.0
15894,40.0,115,840,8.0,64.0
15895,79.0,0,120,2.0,64.0
15896,52.0,0,840,7.0,64.0
15897,67.0,0,120,2.0,64.0
15898,40.0,0,600,14.0,64.0
15899,67.0,0,120,12.0,64.0
15900,79.0,0,120,0.0,64.0
15901,40.0,0,840,15.0,64.0
15902,82.0,0,120,0.0,64.0
15903,70.0,120,120,2.0,64.0
15904,82.0,0,120,11.0,64.0
15905,82.0,0,120,2.0,64.0
15906,70.0,0,120,12.0,64.0
15907,80.0,0,120,11.0,64.0
15908,80.0,0,120,2.0,64.0
15909,80.0,0,120,0.0,64.0
15910,72.0,0,240,3.0,64.0
15911,68.0,0,120,12.0,64.0
15912,68.0,115,120,2.0,64.0
15913,84.0,115,240,3.0,64.0
15914,84.0,0,120,2.0,64.0
15915,84.0,0,120,11.0,64.0
15916,84.0,0,120,0.0,64.0
15917,72.0,0,120,12.0,64.0
15918,72.0,0,120,2.0,64.0
15919,82.0,0,600,2.0,64.0
15920,70.0,0,600,12.0,64.0
15921,70.0,0,600,2.0,64.0
15922,73.0,0,720,3.0,64.0
15923,85.0,0,720,3.0,64.0
15924,82.0,0,600,0.0,64.0
15925,82.0,0,600,11.0,64.0
15926,67.0,0,120,13.0,64.0
15927,52.0,0,120,4.0,64.0
15928,52.0,120,120,14.0,64.0
15929,50.0,0,120,4.0,64.0
15930,50.0,0,120,14.0,64.0
15931,68.0,0,120,13.0,64.0
15932,52.0,0,120,14.0,64.0
15933,52.0,115,120,4.0,64.0
15934,67.0,5,120,13.0,64.0
15935,29.0,0,840,15.0,64.0
15936,41.0,75,390,4.0,64.0
15937,65.0,0,840,13.0,64.0
15938,53.0,0,840,7.0,64.0
15939,41.0,0,390,14.0,64.0
15940,41.0,0,840,8.0,64.0
15941,72.0,0,120,2.0,64.0
15942,84.0,120,120,2.0,64.0
15943,72.0,0,120,12.0,64.0
15944,84.0,0,120,0.0,64.0
15945,84.0,0,120,11.0,64.0
15946,79.0,0,120,2.0,64.0
15947,79.0,0,120,11.0,64.0
15948,82.0,0,240,3.0,64.0
15949,67.0,0,120,2.0,64.0
15950,70.0,0,240,3.0,64.0
15951,79.0,0,120,0.0,64.0
15952,67.0,0,120,12.0,64.0
15953,70.0,5,120,12.0,64.0
15954,82.0,0,120,0.0,64.0
15955,82.0,0,120,2.0,64.0
15956,82.0,0,120,11.0,64.0
15957,70.0,240,120,2.0,64.0
15958,80.0,0,600,11.0,64.0
15959,84.0,120,1080,3.0,64.0
15960,68.0,0,600,12.0,64.0
15961,80.0,0,600,2.0,64.0
15962,68.0,0,600,2.0,64.0
15963,72.0,0,1080,3.0,64.0
15964,80.0,0,600,0.0,64.0
15965,53.0,120,120,4.0,64.0
15966,53.0,0,120,14.0,64.0
15967,51.0,0,120,4.0,64.0
15968,51.0,115,120,14.0,64.0
15969,53.0,5,120,14.0,64.0
15970,53.0,115,120,4.0,64.0
15971,36.0,75,390,8.0,64.0
15972,63.0,5,720,13.0,64.0
15973,48.0,0,390,14.0,64.0
15974,36.0,0,390,15.0,64.0
15975,48.0,0,480,4.0,64.0
15976,48.0,0,390,7.0,64.0
15977,84.0,0,120,11.0,64.0
15978,72.0,120,120,12.0,64.0
15979,84.0,0,120,0.0,64.0
15980,72.0,0,120,2.0,64.0
15981,84.0,0,120,2.0,64.0
15982,68.0,0,120,2.0,64.0
15983,80.0,40,120,2.0,64.0
15984,68.0,0,120,12.0,64.0
15985,80.0,0,120,0.0,64.0
15986,80.0,0,120,11.0,64.0
15987,84.0,5,120,11.0,64.0
15988,72.0,0,120,12.0,64.0
15989,72.0,0,120,2.0,64.0
15990,84.0,0,120,0.0,64.0
15991,84.0,0,120,2.0,64.0
15992,38.0,0,840,15.0,64.0
15993,78.0,0,840,0.0,64.0
15994,66.0,0,840,2.0,64.0
15995,50.0,0,840,4.0,64.0
15996,50.0,0,840,7.0,64.0
15997,38.0,0,840,8.0,64.0
15998,66.0,0,840,12.0,64.0
15999,50.0,0,840,14.0,64.0
16000,78.0,0,840,2.0,64.0
16001,78.0,0,840,11.0,64.0
16002,86.0,0,120,3.0,64.0
16003,74.0,120,120,3.0,64.0
16004,82.0,0,120,3.0,64.0
16005,70.0,0,120,3.0,64.0
16006,62.0,115,120,13.0,64.0
16007,84.0,120,120,3.0,64.0
16008,72.0,0,120,3.0,64.0
16009,63.0,5,120,13.0,64.0
16010,60.0,120,120,13.0,64.0
16011,69.0,0,120,3.0,64.0
16012,81.0,0,120,3.0,64.0
16013,72.0,0,120,3.0,64.0
16014,63.0,120,120,13.0,64.0
16015,84.0,0,120,3.0,64.0
16016,62.0,115,120,13.0,64.0
16017,82.0,0,120,3.0,64.0
16018,70.0,0,120,3.0,64.0
16019,60.0,5,120,13.0,64.0
16020,81.0,0,120,3.0,64.0
16021,69.0,240,120,3.0,64.0
16022,58.0,0,390,13.0,64.0
16023,79.0,75,390,3.0,64.0
16024,67.0,0,390,3.0,64.0
16025,67.0,0,390,12.0,64.0
16026,51.0,120,120,14.0,64.0
16027,51.0,0,120,4.0,64.0
16028,39.0,0,120,15.0,64.0
16029,79.0,0,120,11.0,64.0
16030,39.0,0,120,8.0,64.0
16031,79.0,0,120,2.0,64.0
16032,67.0,0,120,2.0,64.0
16033,79.0,0,120,0.0,64.0
16034,38.0,0,120,15.0,64.0
16035,77.0,0,120,2.0,64.0
16036,38.0,0,120,8.0,64.0
16037,50.0,0,120,14.0,64.0
16038,50.0,0,120,4.0,64.0
16039,50.0,0,240,7.0,64.0
16040,77.0,0,120,11.0,64.0
16041,65.0,40,120,2.0,64.0
16042,77.0,0,120,0.0,64.0
16043,79.0,5,120,11.0,64.0
16044,51.0,0,120,14.0,64.0
16045,39.0,0,120,15.0,64.0
16046,39.0,0,120,8.0,64.0
16047,79.0,0,120,2.0,64.0
16048,79.0,0,120,0.0,64.0
16049,51.0,240,120,4.0,64.0
16050,67.0,0,120,2.0,64.0
16051,63.0,0,390,2.0,64.0
16052,75.0,0,390,0.0,64.0
16053,48.0,0,480,4.0,64.0
16054,36.0,0,390,8.0,64.0
16055,75.0,0,390,11.0,64.0
16056,48.0,0,390,7.0,64.0
16057,36.0,0,390,15.0,64.0
16058,48.0,0,390,14.0,64.0
16059,75.0,0,390,2.0,64.0
16060,81.0,0,120,3.0,64.0
16061,69.0,0,120,3.0,64.0
16062,69.0,120,120,12.0,64.0
16063,60.0,0,120,13.0,64.0
16064,79.0,0,120,3.0,64.0
16065,58.0,0,120,13.0,64.0
16066,67.0,0,120,3.0,64.0
16067,67.0,40,120,12.0,64.0
16068,60.0,0,120,13.0,64.0
16069,69.0,0,120,3.0,64.0
16070,81.0,120,120,3.0,64.0
16071,69.0,5,120,12.0,64.0
16072,50.0,0,390,4.0,64.0
16073,66.0,0,390,3.0,64.0
16074,50.0,75,390,14.0,64.0
16075,57.0,120,120,13.0,64.0
16076,66.0,0,390,12.0,64.0
16077,78.0,0,390,3.0,64.0
16078,50.0,0,390,7.0,64.0
16079,38.0,0,390,15.0,64.0
16080,38.0,0,390,8.0,64.0
16081,74.0,120,120,2.0,64.0
16082,74.0,0,120,11.0,64.0
16083,74.0,0,120,0.0,64.0
16084,86.0,0,120,0.0,64.0
16085,58.0,0,120,13.0,64.0
16086,62.0,0,120,2.0,64.0
16087,84.0,0,120,0.0,64.0
16088,72.0,0,120,0.0,64.0
16089,57.0,0,120,13.0,64.0
16090,72.0,0,120,2.0,64.0
16091,72.0,40,120,11.0,64.0
16092,60.0,0,120,2.0,64.0
16093,74.0,0,120,2.0,64.0
16094,86.0,0,120,0.0,64.0
16095,58.0,0,120,13.0,64.0
16096,74.0,240,120,0.0,64.0
16097,74.0,5,120,11.0,64.0
16098,62.0,0,120,2.0,64.0
16099,70.0,0,390,11.0,64.0
16100,58.0,0,390,2.0,64.0
16101,70.0,0,390,0.0,64.0
16102,70.0,0,390,2.0,64.0
16103,55.0,0,390,13.0,64.0
16104,82.0,75,390,0.0,64.0
16105,51.0,0,120,4.0,64.0
16106,39.0,0,120,15.0,64.0
16107,67.0,0,120,3.0,64.0
16108,67.0,0,120,12.0,64.0
16109,51.0,0,120,14.0,64.0
16110,79.0,120,120,3.0,64.0
16111,39.0,0,120,8.0,64.0
16112,38.0,0,120,8.0,64.0
16113,65.0,0,120,12.0,64.0
16114,38.0,0,120,15.0,64.0
16115,50.0,0,240,7.0,64.0
16116,50.0,0,120,14.0,64.0
16117,50.0,0,120,4.0,64.0
16118,65.0,0,120,3.0,64.0
16119,77.0,40,120,3.0,64.0
16120,39.0,5,120,8.0,64.0
16121,51.0,0,120,4.0,64.0
16122,67.0,0,120,3.0,64.0
16123,67.0,0,120,12.0,64.0
16124,79.0,240,120,3.0,64.0
16125,39.0,0,120,15.0,64.0
16126,51.0,0,120,14.0,64.0
16127,48.0,0,480,4.0,64.0
16128,48.0,0,390,14.0,64.0
16129,63.0,0,390,3.0,64.0
16130,63.0,0,390,12.0,64.0
16131,75.0,0,390,3.0,64.0
16132,36.0,75,390,15.0,64.0
16133,48.0,0,390,7.0,64.0
16134,36.0,0,390,8.0,64.0
16135,60.0,0,120,13.0,64.0
16136,69.0,0,120,2.0,64.0
16137,81.0,0,120,0.0,64.0
16138,81.0,0,120,2.0,64.0
16139,69.0,120,120,11.0,64.0
16140,67.0,0,120,2.0,64.0
16141,58.0,0,120,13.0,64.0
16142,79.0,0,120,0.0,64.0
16143,67.0,0,120,11.0,64.0
16144,79.0,0,120,2.0,64.0
16145,69.0,0,120,11.0,64.0
16146,69.0,0,120,2.0,64.0
16147,60.0,5,120,13.0,64.0
16148,81.0,0,120,2.0,64.0
16149,81.0,0,120,0.0,64.0
16150,38.0,75,390,8.0,64.0
16151,38.0,0,390,15.0,64.0
16152,50.0,0,390,7.0,64.0
16153,57.0,120,120,13.0,64.0
16154,66.0,0,390,11.0,64.0
16155,50.0,0,390,4.0,64.0
16156,50.0,0,390,14.0,64.0
16157,78.0,0,390,2.0,64.0
16158,78.0,0,390,0.0,64.0
16159,66.0,0,390,2.0,64.0
16160,62.0,120,120,12.0,64.0
16161,62.0,0,120,3.0,64.0
16162,74.0,0,120,3.0,64.0
16163,58.0,0,120,13.0,64.0
16164,72.0,0,120,3.0,64.0
16165,60.0,40,120,3.0,64.0
16166,57.0,0,120,13.0,64.0
16167,60.0,0,120,12.0,64.0
16168,62.0,0,120,12.0,64.0
16169,74.0,0,120,3.0,64.0
16170,58.0,5,120,13.0,64.0
16171,62.0,240,120,3.0,64.0
16172,70.0,0,480,3.0,64.0
16173,58.0,75,390,12.0,64.0
16174,55.0,0,390,13.0,64.0
16175,58.0,0,480,3.0,64.0
16176,67.0,0,120,11.0,64.0
16177,67.0,0,120,2.0,64.0
16178,79.0,120,120,2.0,64.0
16179,51.0,0,120,4.0,64.0
16180,51.0,0,120,14.0,64.0
16181,79.0,0,120,0.0,64.0
16182,39.0,0,120,8.0,64.0
16183,39.0,0,120,15.0,64.0
16184,50.0,0,120,14.0,64.0
16185,38.0,40,120,15.0,64.0
16186,65.0,0,120,2.0,64.0
16187,50.0,0,120,4.0,64.0
16188,50.0,0,240,7.0,64.0
16189,65.0,0,120,11.0,64.0
16190,77.0,0,120,0.0,64.0
16191,77.0,0,120,2.0,64.0
16192,38.0,0,120,8.0,64.0
16193,51.0,0,120,14.0,64.0
16194,51.0,0,120,4.0,64.0
16195,67.0,0,120,11.0,64.0
16196,67.0,0,120,2.0,64.0
16197,39.0,0,120,8.0,64.0
16198,79.0,0,120,2.0,64.0
16199,39.0,5,120,15.0,64.0
16200,79.0,0,120,0.0,64.0
16201,36.0,0,390,8.0,64.0
16202,72.0,0,390,3.0,64.0
16203,60.0,0,390,3.0,64.0
16204,48.0,0,390,14.0,64.0
16205,63.0,0,480,2.0,64.0
16206,75.0,0,480,0.0,64.0
16207,48.0,0,390,7.0,64.0
16208,75.0,0,480,2.0,64.0
16209,60.0,80,390,12.0,64.0
16210,63.0,0,390,11.0,64.0
16211,48.0,0,390,4.0,64.0
16212,36.0,0,390,15.0,64.0
16213,57.0,120,120,13.0,64.0
16214,55.0,40,120,13.0,64.0
16215,57.0,235,120,13.0,64.0
16216,50.0,0,390,14.0,64.0
16217,38.0,0,390,15.0,64.0
16218,62.0,0,390,11.0,64.0
16219,38.0,0,390,8.0,64.0
16220,50.0,0,480,4.0,64.0
16221,74.0,0,390,0.0,64.0
16222,54.0,5,240,13.0,64.0
16223,62.0,0,390,2.0,64.0
16224,50.0,75,390,7.0,64.0
16225,74.0,0,390,2.0,64.0
16226,72.0,0,120,3.0,64.0
16227,60.0,0,120,12.0,64.0
16228,60.0,120,120,3.0,64.0
16229,70.0,0,120,3.0,64.0
16230,55.0,0,480,13.0,64.0
16231,58.0,0,120,12.0,64.0
16232,58.0,40,120,3.0,64.0
16233,72.0,0,120,3.0,64.0
16234,60.0,5,120,12.0,64.0
16235,60.0,240,120,3.0,64.0
16236,69.0,0,390,3.0,64.0
16237,57.0,0,390,12.0,64.0
16238,50.0,75,390,7.0,64.0
16239,38.0,0,390,4.0,64.0
16240,38.0,0,390,15.0,64.0
16241,38.0,0,390,14.0,64.0
16242,38.0,0,390,8.0,64.0
16243,57.0,0,390,3.0,64.0
16244,62.0,0,120,2.0,64.0
16245,62.0,0,120,11.0,64.0
16246,74.0,0,120,0.0,64.0
16247,74.0,0,120,2.0,64.0
16248,54.0,125,240,13.0,64.0
16249,60.0,0,120,2.0,64.0
16250,60.0,0,120,11.0,64.0
16251,72.0,0,120,2.0,64.0
16252,72.0,0,120,0.0,64.0
16253,62.0,0,120,11.0,64.0
16254,74.0,0,510,2.0,64.0
16255,62.0,0,510,2.0,64.0
16256,74.0,0,510,0.0,64.0
16257,59.0,0,120,3.0,64.0
16258,34.0,0,390,8.0,64.0
16259,59.0,120,120,12.0,64.0
16260,31.0,0,390,15.0,64.0
16261,46.0,0,390,7.0,64.0
16262,43.0,0,240,14.0,64.0
16263,71.0,0,120,11.0,64.0
16264,71.0,0,120,3.0,64.0
16265,43.0,0,240,4.0,64.0
16266,55.0,0,390,13.0,64.0
16267,62.0,0,120,12.0,64.0
16268,62.0,120,120,3.0,64.0
16269,74.0,0,120,11.0,64.0
16270,74.0,0,120,3.0,64.0
16271,72.0,40,120,11.0,64.0
16272,60.0,0,120,12.0,64.0
16273,45.0,0,240,4.0,64.0
16274,72.0,0,120,3.0,64.0
16275,60.0,0,120,3.0,64.0
16276,45.0,0,240,14.0,64.0
16277,63.0,5,120,12.0,64.0
16278,63.0,0,120,3.0,64.0
16279,75.0,120,120,3.0,64.0
16280,75.0,0,120,11.0,64.0
16281,62.0,0,120,12.0,64.0
16282,74.0,120,120,3.0,64.0
16283,62.0,0,120,3.0,64.0
16284,47.0,0,240,14.0,64.0
16285,35.0,120,240,15.0,64.0
16286,74.0,0,120,11.0,64.0
16287,47.0,0,240,4.0,64.0
16288,65.0,0,120,3.0,64.0
16289,77.0,0,120,11.0,64.0
16290,65.0,0,120,12.0,64.0
16291,77.0,0,120,3.0,64.0
16292,75.0,0,120,11.0,64.0
16293,48.0,0,240,14.0,64.0
16294,63.0,0,120,12.0,64.0
16295,63.0,0,120,3.0,64.0
16296,36.0,5,240,15.0,64.0
16297,48.0,0,240,4.0,64.0
16298,75.0,115,120,3.0,64.0
16299,79.0,0,120,11.0,64.0
16300,67.0,0,120,12.0,64.0
16301,79.0,120,120,3.0,64.0
16302,67.0,0,120,3.0,64.0
16303,65.0,0,120,12.0,64.0
16304,50.0,0,240,4.0,64.0
16305,77.0,0,120,11.0,64.0
16306,77.0,120,120,3.0,64.0
16307,50.0,0,240,14.0,64.0
16308,65.0,0,120,3.0,64.0
16309,38.0,0,240,15.0,64.0
16310,80.0,0,120,11.0,64.0
16311,80.0,0,120,3.0,64.0
16312,68.0,120,120,3.0,64.0
16313,68.0,0,120,12.0,64.0
16314,35.0,5,240,15.0,64.0
16315,47.0,0,240,14.0,64.0
16316,47.0,0,240,4.0,64.0
16317,67.0,0,120,12.0,64.0
16318,79.0,0,120,11.0,64.0
16319,79.0,0,120,3.0,64.0
16320,67.0,115,120,3.0,64.0
16321,77.0,0,120,3.0,64.0
16322,65.0,0,120,12.0,64.0
16323,77.0,120,120,11.0,64.0
16324,65.0,0,120,3.0,64.0
16325,48.0,120,120,13.0,64.0
16326,63.0,0,120,3.0,64.0
16327,48.0,75,390,4.0,64.0
16328,36.0,0,390,15.0,64.0
16329,75.0,0,120,3.0,64.0
16330,48.0,0,390,14.0,64.0
16331,75.0,0,120,11.0,64.0
16332,63.0,0,120,12.0,64.0
16333,67.0,0,120,3.0,64.0
16334,79.0,120,120,3.0,64.0
16335,79.0,0,120,11.0,64.0
16336,51.0,0,120,13.0,64.0
16337,67.0,0,120,12.0,64.0
16338,65.0,0,120,3.0,64.0
16339,77.0,0,120,3.0,64.0
16340,77.0,0,120,11.0,64.0
16341,65.0,0,120,12.0,64.0
16342,50.0,40,120,13.0,64.0
16343,68.0,0,120,3.0,64.0
16344,80.0,0,120,11.0,64.0
16345,68.0,120,120,12.0,64.0
16346,53.0,5,120,13.0,64.0
16347,80.0,0,120,3.0,64.0
16348,51.0,0,120,13.0,64.0
16349,67.0,120,120,3.0,64.0
16350,79.0,0,120,3.0,64.0
16351,79.0,0,120,11.0,64.0
16352,67.0,0,120,12.0,64.0
16353,70.0,0,120,12.0,64.0
16354,82.0,0,120,11.0,64.0
16355,82.0,0,120,3.0,64.0
16356,55.0,0,120,13.0,64.0
16357,70.0,120,120,3.0,64.0
16358,68.0,0,120,12.0,64.0
16359,80.0,0,120,3.0,64.0
16360,53.0,115,120,13.0,64.0
16361,80.0,0,120,11.0,64.0
16362,68.0,0,120,3.0,64.0
16363,84.0,0,120,11.0,64.0
16364,72.0,125,120,3.0,64.0
16365,72.0,0,120,12.0,64.0
16366,84.0,0,120,3.0,64.0
16367,56.0,0,120,13.0,64.0
16368,82.0,0,120,3.0,64.0
16369,55.0,0,120,13.0,64.0
16370,70.0,0,120,12.0,64.0
16371,82.0,120,120,11.0,64.0
16372,70.0,0,120,3.0,64.0
16373,73.0,120,120,3.0,64.0
16374,85.0,0,120,3.0,64.0
16375,58.0,0,120,13.0,64.0
16376,85.0,0,120,11.0,64.0
16377,73.0,0,120,12.0,64.0
16378,56.0,0,120,13.0,64.0
16379,72.0,0,120,12.0,64.0
16380,48.0,0,240,4.0,64.0
16381,48.0,35,240,14.0,64.0
16382,36.0,0,240,8.0,64.0
16383,84.0,0,120,3.0,64.0
16384,84.0,0,120,11.0,64.0
16385,36.0,0,240,15.0,64.0
16386,72.0,115,120,3.0,64.0
16387,55.0,0,120,13.0,64.0
16388,70.0,0,120,12.0,64.0
16389,82.0,0,120,11.0,64.0
16390,70.0,0,120,3.0,64.0
16391,82.0,0,120,3.0,64.0
16392,68.0,0,30,3.0,64.0
16393,41.0,0,120,15.0,64.0
16394,41.0,0,120,8.0,64.0
16395,80.0,0,30,3.0,64.0
16396,53.0,0,30,13.0,64.0
16397,53.0,0,120,14.0,64.0
16398,53.0,0,120,4.0,64.0
16399,68.0,0,30,12.0,64.0
16400,80.0,30,30,11.0,64.0
16401,82.0,30,30,11.0,64.0
16402,55.0,0,30,13.0,64.0
16403,70.0,0,30,12.0,64.0
16404,82.0,0,30,3.0,64.0
16405,70.0,0,30,3.0,64.0
16406,68.0,0,30,12.0,64.0
16407,53.0,0,30,13.0,64.0
16408,80.0,0,30,3.0,64.0
16409,68.0,0,30,3.0,64.0
16410,80.0,30,30,11.0,64.0
16411,82.0,0,30,3.0,64.0
16412,55.0,0,30,13.0,64.0
16413,70.0,0,30,3.0,64.0
16414,82.0,0,30,11.0,64.0
16415,70.0,30,30,12.0,64.0
16416,68.0,0,30,12.0,64.0
16417,44.0,0,120,8.0,64.0
16418,53.0,0,30,13.0,64.0
16419,56.0,30,120,14.0,64.0
16420,56.0,0,120,4.0,64.0
16421,80.0,0,30,11.0,64.0
16422,44.0,0,120,15.0,64.0
16423,80.0,0,30,3.0,64.0
16424,68.0,30,30,3.0,64.0
16425,55.0,0,30,13.0,64.0
16426,82.0,30,30,11.0,64.0
16427,70.0,0,30,3.0,64.0
16428,70.0,0,30,12.0,64.0
16429,82.0,0,30,3.0,64.0
16430,68.0,30,30,12.0,64.0
16431,53.0,0,30,13.0,64.0
16432,68.0,0,30,3.0,64.0
16433,80.0,0,30,3.0,64.0
16434,80.0,0,30,11.0,64.0
16435,82.0,0,30,3.0,64.0
16436,55.0,0,30,13.0,64.0
16437,82.0,0,30,11.0,64.0
16438,70.0,0,30,3.0,64.0
16439,70.0,0,30,12.0,64.0
16440,43.0,0,120,8.0,64.0
16441,80.0,0,30,3.0,64.0
16442,43.0,30,120,15.0,64.0
16443,68.0,0,30,12.0,64.0
16444,53.0,30,30,13.0,64.0
16445,68.0,0,30,3.0,64.0
16446,55.0,0,120,14.0,64.0
16447,55.0,0,120,4.0,64.0
16448,80.0,0,30,11.0,64.0
16449,82.0,0,30,11.0,64.0
16450,70.0,0,30,3.0,64.0
16451,55.0,0,30,13.0,64.0
16452,82.0,0,30,3.0,64.0
16453,70.0,30,30,12.0,64.0
16454,68.0,0,30,12.0,64.0
16455,53.0,0,30,13.0,64.0
16456,68.0,0,30,3.0,64.0
16457,80.0,30,30,3.0,64.0
16458,80.0,0,30,11.0,64.0
16459,82.0,0,30,11.0,64.0
16460,82.0,0,30,3.0,64.0
16461,70.0,0,30,3.0,64.0
16462,55.0,0,30,13.0,64.0
16463,70.0,0,30,12.0,64.0
16464,80.0,0,30,3.0,64.0
16465,58.0,0,120,4.0,64.0
16466,68.0,0,30,12.0,64.0
16467,80.0,30,30,11.0,64.0
16468,68.0,0,30,3.0,64.0
16469,46.0,30,120,8.0,64.0
16470,46.0,5,120,15.0,64.0
16471,58.0,0,120,14.0,64.0
16472,53.0,0,30,13.0,64.0
16473,70.0,0,30,3.0,64.0
16474,55.0,0,30,13.0,64.0
16475,70.0,0,30,12.0,64.0
16476,82.0,0,30,3.0,64.0
16477,82.0,30,30,11.0,64.0
16478,53.0,25,30,13.0,64.0
16479,68.0,0,30,12.0,64.0
16480,80.0,0,30,11.0,64.0
16481,68.0,0,30,3.0,64.0
16482,80.0,0,30,3.0,64.0
16483,82.0,0,30,11.0,64.0
16484,82.0,0,30,3.0,64.0
16485,70.0,0,30,3.0,64.0
16486,55.0,0,30,13.0,64.0
16487,70.0,0,30,12.0,64.0
16488,56.0,0,120,4.0,64.0
16489,53.0,0,30,13.0,64.0
16490,68.0,0,30,12.0,64.0
16491,44.0,0,120,15.0,64.0
16492,68.0,0,30,3.0,64.0
16493,80.0,0,30,3.0,64.0
16494,80.0,30,30,11.0,64.0
16495,44.0,0,120,8.0,64.0
16496,56.0,30,120,14.0,64.0
16497,82.0,0,30,11.0,64.0
16498,82.0,30,30,3.0,64.0
16499,55.0,0,30,13.0,64.0
16500,70.0,0,30,3.0,64.0
16501,70.0,0,30,12.0,64.0
16502,80.0,0,30,11.0,64.0
16503,68.0,0,30,3.0,64.0
16504,53.0,0,30,13.0,64.0
16505,68.0,0,30,12.0,64.0
16506,80.0,30,30,3.0,64.0
16507,70.0,0,30,3.0,64.0
16508,70.0,0,30,12.0,64.0
16509,82.0,0,30,11.0,64.0
16510,55.0,0,30,13.0,64.0
16511,82.0,0,30,3.0,64.0
16512,53.0,30,30,13.0,64.0
16513,80.0,0,30,11.0,64.0
16514,48.0,0,120,15.0,64.0
16515,60.0,0,120,14.0,64.0
16516,48.0,0,120,8.0,64.0
16517,68.0,0,30,12.0,64.0
16518,60.0,0,120,4.0,64.0
16519,68.0,0,30,3.0,64.0
16520,80.0,0,30,3.0,64.0
16521,70.0,0,30,12.0,64.0
16522,70.0,30,30,3.0,64.0
16523,82.0,0,30,3.0,64.0
16524,55.0,0,30,13.0,64.0
16525,82.0,0,30,11.0,64.0
16526,80.0,0,30,3.0,64.0
16527,53.0,30,30,13.0,64.0
16528,80.0,0,30,11.0,64.0
16529,68.0,0,30,12.0,64.0
16530,68.0,0,30,3.0,64.0
16531,82.0,0,30,11.0,64.0
16532,70.0,0,30,12.0,64.0
16533,55.0,0,30,13.0,64.0
16534,82.0,30,30,3.0,64.0
16535,70.0,0,30,3.0,64.0
16536,53.0,30,30,13.0,64.0
16537,80.0,0,30,11.0,64.0
16538,43.0,0,120,15.0,64.0
16539,68.0,0,30,12.0,64.0
16540,43.0,0,120,8.0,64.0
16541,68.0,0,30,3.0,64.0
16542,80.0,0,30,3.0,64.0
16543,55.0,30,120,14.0,64.0
16544,55.0,0,120,4.0,64.0
16545,82.0,0,30,3.0,64.0
16546,82.0,0,30,11.0,64.0
16547,70.0,0,30,3.0,64.0
16548,70.0,30,30,12.0,64.0
16549,55.0,0,30,13.0,64.0
16550,68.0,30,30,3.0,64.0
16551,80.0,0,30,3.0,64.0
16552,68.0,0,30,12.0,64.0
16553,53.0,0,30,13.0,64.0
16554,80.0,0,30,11.0,64.0
16555,82.0,0,30,11.0,64.0
16556,70.0,0,30,12.0,64.0
16557,55.0,0,30,13.0,64.0
16558,82.0,0,30,3.0,64.0
16559,70.0,0,30,3.0,64.0
16560,58.0,0,120,14.0,64.0
16561,68.0,0,30,12.0,64.0
16562,58.0,0,120,4.0,64.0
16563,46.0,0,120,8.0,64.0
16564,68.0,0,30,3.0,64.0
16565,80.0,0,30,11.0,64.0
16566,53.0,30,30,13.0,64.0
16567,80.0,0,30,3.0,64.0
16568,46.0,0,120,15.0,64.0
16569,82.0,30,30,3.0,64.0
16570,70.0,0,30,3.0,64.0
16571,70.0,0,30,12.0,64.0
16572,82.0,0,30,11.0,64.0
16573,55.0,0,30,13.0,64.0
16574,68.0,0,30,3.0,64.0
16575,68.0,0,30,12.0,64.0
16576,80.0,0,30,11.0,64.0
16577,53.0,25,30,13.0,64.0
16578,80.0,0,30,3.0,64.0
16579,70.0,35,30,3.0,64.0
16580,55.0,0,30,13.0,64.0
16581,82.0,0,30,3.0,64.0
16582,70.0,0,30,12.0,64.0
16583,82.0,0,30,11.0,64.0
16584,80.0,0,30,3.0,64.0
16585,53.0,0,120,14.0,64.0
16586,68.0,0,30,3.0,64.0
16587,53.0,0,30,13.0,64.0
16588,68.0,30,30,12.0,64.0
16589,41.0,30,120,8.0,64.0
16590,41.0,0,120,15.0,64.0
16591,53.0,0,120,4.0,64.0
16592,80.0,0,30,11.0,64.0
16593,55.0,0,30,13.0,64.0
16594,70.0,0,30,3.0,64.0
16595,82.0,0,30,3.0,64.0
16596,70.0,30,30,12.0,64.0
16597,82.0,0,30,11.0,64.0
16598,68.0,0,30,3.0,64.0
16599,53.0,30,30,13.0,64.0
16600,80.0,0,30,3.0,64.0
16601,80.0,0,30,11.0,64.0
16602,68.0,0,30,12.0,64.0
16603,70.0,0,30,12.0,64.0
16604,70.0,0,30,3.0,64.0
16605,82.0,0,30,11.0,64.0
16606,82.0,0,30,3.0,64.0
16607,55.0,0,30,13.0,64.0
16608,80.0,0,30,3.0,64.0
16609,53.0,0,30,13.0,64.0
16610,44.0,0,120,8.0,64.0
16611,68.0,30,30,3.0,64.0
16612,44.0,0,120,15.0,64.0
16613,56.0,0,120,4.0,64.0
16614,68.0,0,30,12.0,64.0
16615,80.0,0,30,11.0,64.0
16616,56.0,0,120,14.0,64.0
16617,82.0,0,30,11.0,64.0
16618,82.0,30,30,3.0,64.0
16619,70.0,0,30,12.0,64.0
16620,55.0,0,30,13.0,64.0
16621,70.0,0,30,3.0,64.0
16622,68.0,0,30,3.0,64.0
16623,80.0,30,30,11.0,64.0
16624,68.0,0,30,12.0,64.0
16625,80.0,0,30,3.0,64.0
16626,53.0,0,30,13.0,64.0
16627,70.0,0,30,3.0,64.0
16628,70.0,0,30,12.0,64.0
16629,82.0,0,30,3.0,64.0
16630,82.0,0,30,11.0,64.0
16631,55.0,30,30,13.0,64.0
16632,51.0,0,120,4.0,64.0
16633,68.0,0,30,12.0,64.0
16634,51.0,0,120,14.0,64.0
16635,68.0,0,30,3.0,64.0
16636,80.0,0,30,11.0,64.0
16637,39.0,0,120,15.0,64.0
16638,80.0,30,30,3.0,64.0
16639,39.0,0,120,8.0,64.0
16640,53.0,0,30,13.0,64.0
16641,70.0,0,30,3.0,64.0
16642,55.0,30,30,13.0,64.0
16643,70.0,0,30,12.0,64.0
16644,82.0,0,30,3.0,64.0
16645,82.0,0,30,11.0,64.0
16646,80.0,30,30,3.0,64.0
16647,68.0,0,30,12.0,64.0
16648,53.0,0,30,13.0,64.0
16649,80.0,0,30,11.0,64.0
16650,68.0,0,30,3.0,64.0
16651,70.0,0,30,3.0,64.0
16652,70.0,0,30,12.0,64.0
16653,82.0,0,30,3.0,64.0
16654,55.0,0,30,13.0,64.0
16655,82.0,30,30,11.0,64.0
16656,68.0,0,30,12.0,64.0
16657,55.0,0,120,4.0,64.0
16658,68.0,0,30,3.0,64.0
16659,43.0,0,120,15.0,64.0
16660,80.0,0,30,3.0,64.0
16661,55.0,5,120,14.0,64.0
16662,43.0,0,120,8.0,64.0
16663,80.0,30,30,11.0,64.0
16664,53.0,0,30,13.0,64.0
16665,82.0,30,30,3.0,64.0
16666,70.0,0,30,12.0,64.0
16667,70.0,0,30,3.0,64.0
16668,82.0,0,30,11.0,64.0
16669,55.0,0,30,13.0,64.0
16670,80.0,0,30,11.0,64.0
16671,53.0,25,30,13.0,64.0
16672,68.0,0,30,12.0,64.0
16673,68.0,0,30,3.0,64.0
16674,80.0,0,30,3.0,64.0
16675,82.0,30,30,3.0,64.0
16676,82.0,0,30,11.0,64.0
16677,70.0,0,30,3.0,64.0
16678,55.0,0,30,13.0,64.0
16679,70.0,0,30,12.0,64.0
16680,68.0,0,30,3.0,64.0
16681,38.0,0,120,15.0,64.0
16682,50.0,0,120,14.0,64.0
16683,53.0,30,30,13.0,64.0
16684,68.0,0,30,12.0,64.0
16685,80.0,0,30,11.0,64.0
16686,50.0,0,120,4.0,64.0
16687,80.0,0,30,3.0,64.0
16688,38.0,0,120,8.0,64.0
16689,82.0,0,30,3.0,64.0
16690,70.0,0,30,3.0,64.0
16691,82.0,30,30,11.0,64.0
16692,70.0,0,30,12.0,64.0
16693,55.0,0,30,13.0,64.0
16694,68.0,0,30,12.0,64.0
16695,53.0,30,30,13.0,64.0
16696,80.0,0,30,3.0,64.0
16697,80.0,0,30,11.0,64.0
16698,68.0,0,30,3.0,64.0
16699,70.0,0,30,3.0,64.0
16700,82.0,0,30,3.0,64.0
16701,70.0,0,30,12.0,64.0
16702,82.0,0,30,11.0,64.0
16703,55.0,30,30,13.0,64.0
16704,80.0,30,30,11.0,64.0
16705,68.0,0,30,12.0,64.0
16706,80.0,0,30,3.0,64.0
16707,53.0,0,120,4.0,64.0
16708,41.0,0,120,8.0,64.0
16709,41.0,0,120,15.0,64.0
16710,68.0,0,30,3.0,64.0
16711,53.0,0,30,13.0,64.0
16712,53.0,0,120,14.0,64.0
16713,55.0,0,30,13.0,64.0
16714,70.0,0,30,12.0,64.0
16715,82.0,30,30,11.0,64.0
16716,82.0,0,30,3.0,64.0
16717,70.0,0,30,3.0,64.0
16718,80.0,0,30,3.0,64.0
16719,80.0,0,30,11.0,64.0
16720,53.0,30,30,13.0,64.0
16721,68.0,0,30,3.0,64.0
16722,68.0,0,30,12.0,64.0
16723,82.0,0,30,3.0,64.0
16724,70.0,0,30,12.0,64.0
16725,82.0,0,30,11.0,64.0
16726,55.0,30,30,13.0,64.0
16727,70.0,0,30,3.0,64.0
16728,51.0,0,120,4.0,64.0
16729,51.0,0,120,14.0,64.0
16730,80.0,30,30,3.0,64.0
16731,39.0,0,120,8.0,64.0
16732,39.0,0,120,15.0,64.0
16733,80.0,0,30,11.0,64.0
16734,68.0,0,30,3.0,64.0
16735,53.0,0,30,13.0,64.0
16736,68.0,0,30,12.0,64.0
16737,82.0,0,30,3.0,64.0
16738,70.0,0,30,12.0,64.0
16739,82.0,0,30,11.0,64.0
16740,70.0,30,30,3.0,64.0
16741,55.0,0,30,13.0,64.0
16742,53.0,0,30,13.0,64.0
16743,80.0,0,30,3.0,64.0
16744,80.0,30,30,11.0,64.0
16745,68.0,0,30,12.0,64.0
16746,68.0,0,30,3.0,64.0
16747,70.0,0,30,3.0,64.0
16748,55.0,30,30,13.0,64.0
16749,70.0,0,30,12.0,64.0
16750,82.0,0,30,3.0,64.0
16751,82.0,0,30,11.0,64.0
16752,55.0,0,120,14.0,64.0
16753,68.0,0,30,3.0,64.0
16754,55.0,30,120,4.0,64.0
16755,68.0,0,30,12.0,64.0
16756,80.0,30,30,11.0,64.0
16757,43.0,5,120,15.0,64.0
16758,43.0,0,120,8.0,64.0
16759,53.0,0,30,13.0,64.0
16760,80.0,0,30,3.0,64.0
16761,70.0,30,30,12.0,64.0
16762,70.0,0,30,3.0,64.0
16763,55.0,0,30,13.0,64.0
16764,82.0,0,30,11.0,64.0
16765,82.0,0,30,3.0,64.0
16766,53.0,0,30,13.0,64.0
16767,68.0,0,30,3.0,64.0
16768,68.0,0,30,12.0,64.0
16769,80.0,25,30,11.0,64.0
16770,80.0,0,30,3.0,64.0
16771,55.0,0,30,13.0,64.0
16772,82.0,0,30,3.0,64.0
16773,70.0,0,30,12.0,64.0
16774,70.0,0,30,3.0,64.0
16775,82.0,0,30,11.0,64.0
16776,41.0,0,120,8.0,64.0
16777,53.0,0,120,4.0,64.0
16778,80.0,0,30,11.0,64.0
16779,53.0,0,30,13.0,64.0
16780,41.0,0,120,15.0,64.0
16781,68.0,0,30,3.0,64.0
16782,80.0,30,30,3.0,64.0
16783,68.0,0,30,12.0,64.0
16784,53.0,0,120,14.0,64.0
16785,70.0,0,30,12.0,64.0
16786,82.0,0,30,3.0,64.0
16787,70.0,0,30,3.0,64.0
16788,82.0,30,30,11.0,64.0
16789,55.0,0,30,13.0,64.0
16790,80.0,0,30,3.0,64.0
16791,53.0,0,30,13.0,64.0
16792,68.0,30,30,3.0,64.0
16793,68.0,0,30,12.0,64.0
16794,80.0,0,30,11.0,64.0
16795,82.0,0,30,3.0,64.0
16796,55.0,0,30,13.0,64.0
16797,82.0,0,30,11.0,64.0
16798,70.0,0,30,3.0,64.0
16799,70.0,30,30,12.0,64.0
16800,44.0,30,120,8.0,64.0
16801,56.0,0,120,14.0,64.0
16802,44.0,0,120,15.0,64.0
16803,56.0,0,120,4.0,64.0
16804,80.0,0,30,3.0,64.0
16805,68.0,0,30,12.0,64.0
16806,80.0,30,30,11.0,64.0
16807,68.0,0,30,3.0,64.0
16808,53.0,0,30,13.0,64.0
16809,70.0,0,30,12.0,64.0
16810,70.0,0,30,3.0,64.0
16811,82.0,0,30,11.0,64.0
16812,82.0,30,30,3.0,64.0
16813,55.0,0,30,13.0,64.0
16814,80.0,0,30,11.0,64.0
16815,53.0,0,30,13.0,64.0
16816,68.0,0,30,12.0,64.0
16817,68.0,0,30,3.0,64.0
16818,80.0,30,30,3.0,64.0
16819,70.0,0,30,12.0,64.0
16820,70.0,0,30,3.0,64.0
16821,82.0,0,30,11.0,64.0
16822,55.0,0,30,13.0,64.0
16823,82.0,0,30,3.0,64.0
16824,39.0,0,120,8.0,64.0
16825,80.0,0,30,11.0,64.0
16826,51.0,0,120,4.0,64.0
16827,53.0,0,30,13.0,64.0
16828,68.0,30,30,3.0,64.0
16829,80.0,0,30,3.0,64.0
16830,39.0,0,120,15.0,64.0
16831,51.0,0,120,14.0,64.0
16832,68.0,0,30,12.0,64.0
16833,70.0,0,30,12.0,64.0
16834,55.0,30,30,13.0,64.0
16835,82.0,0,30,11.0,64.0
16836,82.0,0,30,3.0,64.0
16837,70.0,0,30,3.0,64.0
16838,68.0,0,30,3.0,64.0
16839,80.0,30,30,11.0,64.0
16840,68.0,0,30,12.0,64.0
16841,53.0,0,30,13.0,64.0
16842,80.0,0,30,3.0,64.0
16843,70.0,0,30,12.0,64.0
16844,70.0,30,30,3.0,64.0
16845,55.0,0,30,13.0,64.0
16846,82.0,0,30,3.0,64.0
16847,82.0,0,30,11.0,64.0
16848,55.0,0,120,4.0,64.0
16849,53.0,0,30,13.0,64.0
16850,68.0,0,30,12.0,64.0
16851,80.0,30,30,11.0,64.0
16852,43.0,0,120,15.0,64.0
16853,43.0,0,120,8.0,64.0
16854,80.0,0,30,3.0,64.0
16855,55.0,0,120,14.0,64.0
16856,68.0,0,30,3.0,64.0
16857,70.0,0,30,3.0,64.0
16858,55.0,0,30,13.0,64.0
16859,70.0,0,30,12.0,64.0
16860,82.0,30,30,11.0,64.0
16861,82.0,0,30,3.0,64.0
16862,68.0,0,30,12.0,64.0
16863,80.0,0,30,3.0,64.0
16864,80.0,25,30,11.0,64.0
16865,53.0,0,30,13.0,64.0
16866,68.0,0,30,3.0,64.0
16867,70.0,0,30,12.0,64.0
16868,70.0,0,30,3.0,64.0
16869,82.0,0,30,11.0,64.0
16870,82.0,0,30,3.0,64.0
16871,55.0,35,30,13.0,64.0
16872,80.0,0,30,3.0,64.0
16873,80.0,0,30,11.0,64.0
16874,38.0,0,120,15.0,64.0
16875,50.0,0,120,4.0,64.0
16876,50.0,0,120,14.0,64.0
16877,68.0,0,30,12.0,64.0
16878,68.0,30,30,3.0,64.0
16879,53.0,0,30,13.0,64.0
16880,38.0,0,120,8.0,64.0
16881,70.0,0,30,12.0,64.0
16882,82.0,30,30,3.0,64.0
16883,82.0,0,30,11.0,64.0
16884,70.0,0,30,3.0,64.0
16885,55.0,0,30,13.0,64.0
16886,53.0,0,30,13.0,64.0
16887,68.0,0,30,12.0,64.0
16888,80.0,30,30,3.0,64.0
16889,68.0,0,30,3.0,64.0
16890,80.0,0,30,11.0,64.0
16891,82.0,0,30,11.0,64.0
16892,82.0,0,30,3.0,64.0
16893,70.0,0,30,12.0,64.0
16894,70.0,0,30,3.0,64.0
16895,55.0,30,30,13.0,64.0
16896,68.0,0,30,3.0,64.0
16897,68.0,0,30,12.0,64.0
16898,53.0,0,120,14.0,64.0
16899,53.0,0,30,13.0,64.0
16900,41.0,0,120,15.0,64.0
16901,80.0,0,30,11.0,64.0
16902,53.0,0,120,4.0,64.0
16903,41.0,0,120,8.0,64.0
16904,80.0,30,30,3.0,64.0
16905,55.0,0,30,13.0,64.0
16906,82.0,0,30,11.0,64.0
16907,70.0,0,30,3.0,64.0
16908,82.0,30,30,3.0,64.0
16909,70.0,0,30,12.0,64.0
16910,80.0,30,30,11.0,64.0
16911,68.0,0,30,12.0,64.0
16912,68.0,0,30,3.0,64.0
16913,53.0,0,30,13.0,64.0
16914,80.0,0,30,3.0,64.0
16915,70.0,30,30,12.0,64.0
16916,55.0,0,30,13.0,64.0
16917,82.0,0,30,11.0,64.0
16918,82.0,0,30,3.0,64.0
16919,70.0,0,30,3.0,64.0
16920,48.0,0,120,4.0,64.0
16921,80.0,0,30,3.0,64.0
16922,53.0,0,30,13.0,64.0
16923,48.0,0,120,14.0,64.0
16924,80.0,0,30,11.0,64.0
16925,36.0,0,120,15.0,64.0
16926,68.0,30,30,3.0,64.0
16927,36.0,0,120,8.0,64.0
16928,68.0,0,30,12.0,64.0
16929,82.0,0,30,3.0,64.0
16930,70.0,0,30,3.0,64.0
16931,70.0,0,30,12.0,64.0
16932,82.0,30,30,11.0,64.0
16933,55.0,0,30,13.0,64.0
16934,80.0,0,30,3.0,64.0
16935,53.0,0,30,13.0,64.0
16936,68.0,0,30,12.0,64.0
16937,80.0,0,30,11.0,64.0
16938,68.0,30,30,3.0,64.0
16939,70.0,0,30,12.0,64.0
16940,55.0,0,30,13.0,64.0
16941,82.0,0,30,3.0,64.0
16942,70.0,30,30,3.0,64.0
16943,82.0,0,30,11.0,64.0
16944,53.0,0,30,13.0,64.0
16945,68.0,30,30,12.0,64.0
16946,51.0,0,120,4.0,64.0
16947,39.0,0,120,8.0,64.0
16948,51.0,0,120,14.0,64.0
16949,80.0,0,30,11.0,64.0
16950,68.0,0,30,3.0,64.0
16951,39.0,5,120,15.0,64.0
16952,80.0,0,30,3.0,64.0
16953,70.0,0,30,3.0,64.0
16954,82.0,0,30,11.0,64.0
16955,55.0,0,30,13.0,64.0
16956,82.0,30,30,3.0,64.0
16957,70.0,0,30,12.0,64.0
16958,80.0,0,30,11.0,64.0
16959,80.0,0,30,3.0,64.0
16960,68.0,0,30,3.0,64.0
16961,68.0,25,30,12.0,64.0
16962,53.0,0,30,13.0,64.0
16963,70.0,0,30,12.0,64.0
16964,70.0,0,30,3.0,64.0
16965,82.0,0,30,11.0,64.0
16966,55.0,0,30,13.0,64.0
16967,82.0,30,30,3.0,64.0
16968,68.0,0,30,3.0,64.0
16969,35.0,0,390,15.0,64.0
16970,80.0,0,30,3.0,64.0
16971,68.0,30,30,12.0,64.0
16972,80.0,0,30,11.0,64.0
16973,35.0,0,390,8.0,64.0
16974,53.0,0,30,13.0,64.0
16975,47.0,20,390,4.0,64.0
16976,47.0,0,390,14.0,64.0
16977,70.0,30,30,3.0,64.0
16978,82.0,0,30,11.0,64.0
16979,70.0,0,30,12.0,64.0
16980,55.0,0,30,13.0,64.0
16981,82.0,0,30,3.0,64.0
16982,80.0,0,30,3.0,64.0
16983,68.0,0,30,12.0,64.0
16984,68.0,0,30,3.0,64.0
16985,80.0,0,30,11.0,64.0
16986,53.0,30,30,13.0,64.0
16987,70.0,0,30,12.0,64.0
16988,55.0,0,30,13.0,64.0
16989,82.0,0,30,3.0,64.0
16990,70.0,0,30,3.0,64.0
16991,82.0,30,30,11.0,64.0
16992,68.0,0,30,12.0,64.0
16993,80.0,30,30,11.0,64.0
16994,68.0,0,30,3.0,64.0
16995,53.0,0,30,13.0,64.0
16996,80.0,0,30,3.0,64.0
16997,55.0,0,30,13.0,64.0
16998,70.0,0,30,12.0,64.0
16999,82.0,30,30,11.0,64.0
17000,82.0,0,30,3.0,64.0
17001,70.0,0,30,3.0,64.0
17002,53.0,0,30,13.0,64.0
17003,80.0,0,30,11.0,64.0
17004,68.0,0,30,12.0,64.0
17005,68.0,0,30,3.0,64.0
17006,80.0,30,30,3.0,64.0
17007,82.0,0,30,11.0,64.0
17008,55.0,0,30,13.0,64.0
17009,70.0,0,30,12.0,64.0
17010,70.0,0,30,3.0,64.0
17011,82.0,30,30,3.0,64.0
17012,53.0,30,30,13.0,64.0
17013,68.0,0,30,3.0,64.0
17014,80.0,0,30,11.0,64.0
17015,68.0,0,30,12.0,64.0
17016,80.0,0,30,3.0,64.0
17017,82.0,0,30,3.0,64.0
17018,70.0,0,30,12.0,64.0
17019,82.0,0,30,11.0,64.0
17020,70.0,0,30,3.0,64.0
17021,55.0,30,30,13.0,64.0
17022,80.0,0,30,3.0,64.0
17023,80.0,0,30,11.0,64.0
17024,68.0,30,30,12.0,64.0
17025,53.0,0,30,13.0,64.0
17026,68.0,0,30,3.0,64.0
17027,55.0,30,30,13.0,64.0
17028,82.0,0,30,3.0,64.0
17029,82.0,0,30,11.0,64.0
17030,70.0,0,30,12.0,64.0
17031,70.0,0,30,3.0,64.0
17032,80.0,0,30,3.0,64.0
17033,68.0,0,30,12.0,64.0
17034,80.0,10,30,11.0,64.0
17035,68.0,0,30,3.0,64.0
17036,53.0,0,30,13.0,64.0
17037,70.0,0,30,3.0,64.0
17038,55.0,0,30,13.0,64.0
17039,82.0,0,30,3.0,64.0
17040,70.0,0,30,12.0,64.0
17041,82.0,30,30,11.0,64.0
17042,53.0,0,30,13.0,64.0
17043,68.0,0,30,12.0,64.0
17044,80.0,25,30,11.0,64.0
17045,80.0,0,30,3.0,64.0
17046,68.0,0,30,3.0,64.0
17047,82.0,0,30,11.0,64.0
17048,70.0,30,30,12.0,64.0
17049,70.0,0,30,3.0,64.0
17050,82.0,0,30,3.0,64.0
17051,55.0,5,30,13.0,64.0
17052,48.0,0,390,4.0,64.0
17053,68.0,0,30,12.0,64.0
17054,53.0,30,30,13.0,64.0
17055,36.0,0,390,15.0,64.0
17056,36.0,20,390,8.0,64.0
17057,80.0,0,30,3.0,64.0
17058,68.0,0,30,3.0,64.0
17059,48.0,0,390,14.0,64.0
17060,80.0,0,30,11.0,64.0
17061,70.0,0,30,3.0,64.0
17062,70.0,0,30,12.0,64.0
17063,82.0,0,30,3.0,64.0
17064,55.0,0,30,13.0,64.0
17065,82.0,30,30,11.0,64.0
17066,68.0,30,30,3.0,64.0
17067,80.0,0,30,11.0,64.0
17068,68.0,0,30,12.0,64.0
17069,80.0,0,30,3.0,64.0
17070,53.0,0,30,13.0,64.0
17071,55.0,0,30,13.0,64.0
17072,82.0,30,30,3.0,64.0
17073,82.0,0,30,11.0,64.0
17074,70.0,0,30,12.0,64.0
17075,70.0,0,30,3.0,64.0
17076,68.0,0,30,3.0,64.0
17077,53.0,0,30,13.0,64.0
17078,80.0,30,30,11.0,64.0
17079,80.0,0,30,3.0,64.0
17080,68.0,0,30,12.0,64.0
17081,70.0,30,30,3.0,64.0
17082,82.0,0,30,3.0,64.0
17083,82.0,0,30,11.0,64.0
17084,55.0,0,30,13.0,64.0
17085,70.0,0,30,12.0,64.0
17086,68.0,30,30,12.0,64.0
17087,80.0,0,30,3.0,64.0
17088,80.0,0,30,11.0,64.0
17089,68.0,0,30,3.0,64.0
17090,53.0,0,30,13.0,64.0
17091,55.0,0,30,13.0,64.0
17092,82.0,0,30,11.0,64.0
17093,70.0,30,30,3.0,64.0
17094,82.0,0,30,3.0,64.0
17095,70.0,0,30,12.0,64.0
17096,80.0,0,30,3.0,64.0
17097,53.0,0,30,13.0,64.0
17098,68.0,30,30,3.0,64.0
17099,68.0,0,30,12.0,64.0
17100,80.0,0,30,11.0,64.0
17101,55.0,30,30,13.0,64.0
17102,70.0,0,30,12.0,64.0
17103,82.0,0,30,3.0,64.0
17104,82.0,0,30,11.0,64.0
17105,70.0,0,30,3.0,64.0
17106,68.0,0,30,12.0,64.0
17107,80.0,0,30,3.0,64.0
17108,80.0,0,30,11.0,64.0
17109,68.0,0,30,3.0,64.0
17110,53.0,30,30,13.0,64.0
17111,82.0,0,30,11.0,64.0
17112,82.0,0,30,3.0,64.0
17113,70.0,30,30,12.0,64.0
17114,55.0,0,30,13.0,64.0
17115,70.0,0,30,3.0,64.0
17116,80.0,0,30,11.0,64.0
17117,80.0,0,30,3.0,64.0
17118,68.0,0,30,3.0,64.0
17119,68.0,0,30,12.0,64.0
17120,53.0,10,30,13.0,64.0
17121,70.0,0,30,3.0,64.0
17122,70.0,0,30,12.0,64.0
17123,82.0,30,30,3.0,64.0
17124,82.0,0,30,11.0,64.0
17125,55.0,0,30,13.0,64.0
17126,68.0,0,30,12.0,64.0
17127,80.0,25,30,11.0,64.0
17128,53.0,0,30,13.0,64.0
17129,80.0,0,30,3.0,64.0
17130,68.0,0,30,3.0,64.0
17131,55.0,0,30,13.0,64.0
17132,82.0,0,30,11.0,64.0
17133,82.0,0,30,3.0,64.0
17134,70.0,0,30,12.0,64.0
17135,70.0,405,30,3.0,64.0
17136,84.0,0,390,0.0,64.0
17137,60.0,0,390,6.0,64.0
17138,72.0,0,390,6.0,64.0
17139,53.0,0,390,13.0,64.0
17140,44.0,0,390,4.0,64.0
17141,36.0,0,390,8.0,64.0
17142,60.0,0,390,12.0,64.0
17143,44.0,0,390,14.0,64.0
17144,32.0,0,390,15.0,64.0
17145,68.0,0,390,3.0,64.0
17146,72.0,0,390,11.0,64.0
17147,80.0,480,390,3.0,64.0
17148,72.0,0,390,2.0,64.0
17149,48.0,0,390,7.0,64.0
17150,48.0,0,390,5.0,64.0
17151,60.0,0,390,5.0,64.0
17152,72.0,0,390,0.0,64.0
17153,55.0,0,840,7.0,64.0
17154,67.0,0,840,5.0,64.0
17155,79.0,0,840,2.0,64.0
17156,43.0,0,390,4.0,64.0
17157,43.0,0,840,7.0,64.0
17158,67.0,0,840,3.0,64.0
17159,31.0,320,390,15.0,64.0
17160,43.0,0,840,8.0,64.0
17161,79.0,0,840,3.0,64.0
17162,67.0,0,840,12.0,64.0
17163,79.0,0,840,0.0,64.0
17164,51.0,0,390,13.0,64.0
17165,43.0,0,390,14.0,64.0
17166,55.0,0,840,5.0,64.0
17167,91.0,0,840,0.0,64.0
17168,79.0,0,840,6.0,64.0
17169,67.0,0,840,6.0,64.0
17170,79.0,0,840,11.0,64.0
17171,67.0,0,840,2.0,64.0
17172,63.0,75,390,13.0,64.0
17173,55.0,120,120,14.0,64.0
17174,55.0,0,120,4.0,64.0
17175,43.0,0,120,15.0,64.0
17176,53.0,0,120,4.0,64.0
17177,41.0,40,120,15.0,64.0
17178,53.0,0,120,14.0,64.0
17179,55.0,0,120,14.0,64.0
17180,55.0,30,120,4.0,64.0
17181,43.0,5,120,15.0,64.0
17182,87.0,0,390,0.0,64.0
17183,75.0,0,390,11.0,64.0
17184,48.0,5,120,4.0,64.0
17185,63.0,0,390,2.0,64.0
17186,53.0,30,30,13.0,64.0
17187,39.0,0,390,8.0,64.0
17188,51.0,0,390,5.0,64.0
17189,51.0,0,390,7.0,64.0
17190,75.0,0,390,0.0,64.0
17191,63.0,0,390,12.0,64.0
17192,63.0,0,390,5.0,64.0
17193,80.0,0,60,3.0,64.0
17194,75.0,0,390,2.0,64.0
17195,36.0,0,120,15.0,64.0
17196,63.0,0,390,6.0,64.0
17197,48.0,30,120,14.0,64.0
17198,68.0,30,60,3.0,64.0
17199,39.0,0,390,7.0,64.0
17200,75.0,20,390,6.0,64.0
17201,55.0,0,30,13.0,64.0
17202,70.0,0,60,3.0,64.0
17203,53.0,25,30,13.0,64.0
17204,82.0,0,60,3.0,64.0
17205,55.0,0,30,13.0,64.0
17206,48.0,0,120,15.0,64.0
17207,53.0,30,30,13.0,64.0
17208,68.0,0,60,3.0,64.0
17209,80.0,30,60,3.0,64.0
17210,60.0,0,120,4.0,64.0
17211,60.0,0,120,14.0,64.0
17212,55.0,0,30,13.0,64.0
17213,70.0,0,60,3.0,64.0
17214,53.0,30,30,13.0,64.0
17215,82.0,0,60,3.0,64.0
17216,55.0,30,30,13.0,64.0
17217,58.0,0,120,4.0,64.0
17218,68.0,0,60,3.0,64.0
17219,46.0,0,120,15.0,64.0
17220,53.0,30,30,13.0,64.0
17221,80.0,0,60,3.0,64.0
17222,58.0,0,120,14.0,64.0
17223,55.0,30,30,13.0,64.0
17224,53.0,30,30,13.0,64.0
17225,67.0,30,60,3.0,64.0
17226,79.0,0,60,3.0,64.0
17227,55.0,0,30,13.0,64.0
17228,53.0,10,30,13.0,64.0
17229,60.0,0,120,14.0,64.0
17230,48.0,0,120,15.0,64.0
17231,70.0,0,60,3.0,64.0
17232,82.0,30,60,3.0,64.0
17233,60.0,60,120,4.0,64.0
17234,55.0,0,30,13.0,64.0
17235,80.0,0,60,3.0,64.0
17236,68.0,0,60,3.0,64.0
17237,53.0,25,30,13.0,64.0
17238,55.0,5,30,13.0,64.0
17239,65.0,0,840,2.0,64.0
17240,77.0,0,840,11.0,64.0
17241,44.0,0,120,15.0,64.0
17242,41.0,0,840,7.0,64.0
17243,77.0,0,840,2.0,64.0
17244,65.0,0,840,5.0,64.0
17245,56.0,0,120,14.0,64.0
17246,53.0,0,840,7.0,64.0
17247,41.0,0,840,8.0,64.0
17248,65.0,0,840,12.0,64.0
17249,79.0,0,60,3.0,64.0
17250,56.0,60,120,4.0,64.0
17251,63.0,0,180,13.0,64.0
17252,67.0,60,60,3.0,64.0
17253,53.0,0,840,5.0,64.0
17254,77.0,0,840,0.0,64.0
17255,89.0,0,840,0.0,64.0
17256,77.0,0,840,6.0,64.0
17257,65.0,0,840,6.0,64.0
17258,77.0,0,60,3.0,64.0
17259,65.0,0,60,3.0,64.0
17260,75.0,0,60,3.0,64.0
17261,60.0,60,120,14.0,64.0
17262,48.0,0,120,15.0,64.0
17263,60.0,0,120,4.0,64.0
17264,63.0,55,60,3.0,64.0
17265,62.0,0,60,13.0,64.0
17266,71.0,5,60,3.0,64.0
17267,59.0,0,60,3.0,64.0
17268,56.0,0,120,4.0,64.0
17269,59.0,0,60,3.0,64.0
17270,56.0,0,120,14.0,64.0
17271,71.0,0,60,3.0,64.0
17272,60.0,55,60,13.0,64.0
17273,44.0,0,120,15.0,64.0
17274,59.0,60,60,13.0,64.0
17275,60.0,0,60,3.0,64.0
17276,72.0,5,60,3.0,64.0
17277,60.0,60,120,4.0,64.0
17278,72.0,0,60,3.0,64.0
17279,60.0,0,60,3.0,64.0
17280,60.0,0,120,14.0,64.0
17281,62.0,55,60,13.0,64.0
17282,48.0,0,120,15.0,64.0
17283,68.0,0,60,3.0,64.0
17284,80.0,0,60,3.0,64.0
17285,60.0,5,60,13.0,64.0
17286,56.0,0,120,4.0,64.0
17287,44.0,60,120,15.0,64.0
17288,56.0,0,120,14.0,64.0
17289,63.0,60,60,13.0,64.0
17290,62.0,0,240,3.0,64.0
17291,74.0,5,240,3.0,64.0
17292,62.0,0,60,13.0,64.0
17293,58.0,0,120,4.0,64.0
17294,63.0,55,60,13.0,64.0
17295,58.0,0,120,14.0,64.0
17296,46.0,0,120,15.0,64.0
17297,62.0,60,60,13.0,64.0
17298,44.0,0,120,15.0,64.0
17299,56.0,115,120,4.0,64.0
17300,62.0,0,240,3.0,64.0
17301,56.0,0,120,14.0,64.0
17302,63.0,60,60,13.0,64.0
17303,74.0,120,240,3.0,64.0
17304,60.0,0,60,13.0,64.0
17305,58.0,5,120,14.0,64.0
17306,46.0,0,120,15.0,64.0
17307,58.0,0,120,13.0,64.0
17308,58.0,0,120,4.0,64.0
17309,55.0,75,390,5.0,64.0
17310,79.0,0,390,0.0,64.0
17311,58.0,0,390,13.0,64.0
17312,79.0,0,390,11.0,64.0
17313,76.0,0,240,3.0,64.0
17314,91.0,0,390,0.0,64.0
17315,79.0,0,390,6.0,64.0
17316,55.0,0,390,7.0,64.0
17317,43.0,0,390,8.0,64.0
17318,79.0,0,390,2.0,64.0
17319,67.0,0,390,12.0,64.0
17320,67.0,0,390,5.0,64.0
17321,43.0,115,120,15.0,64.0
17322,43.0,0,390,7.0,64.0
17323,55.0,0,120,14.0,64.0
17324,67.0,0,390,2.0,64.0
17325,67.0,0,390,6.0,64.0
17326,64.0,5,240,3.0,64.0
17327,55.0,0,120,4.0,64.0
17328,58.0,0,120,14.0,64.0
17329,46.0,120,120,15.0,64.0
17330,58.0,0,120,4.0,64.0
17331,64.0,0,240,3.0,64.0
17332,55.0,40,120,14.0,64.0
17333,43.0,0,120,15.0,64.0
17334,55.0,0,120,4.0,64.0
17335,76.0,5,240,3.0,64.0
17336,58.0,120,120,4.0,64.0
17337,46.0,0,120,15.0,64.0
17338,58.0,0,120,14.0,64.0
17339,53.0,120,120,14.0,64.0
17340,41.0,0,120,15.0,64.0
17341,80.0,0,840,2.0,64.0
17342,53.0,0,120,4.0,64.0
17343,80.0,0,840,6.0,64.0
17344,80.0,0,840,0.0,64.0
17345,44.0,0,840,7.0,64.0
17346,92.0,0,840,0.0,64.0
17347,68.0,0,840,12.0,64.0
17348,68.0,0,840,5.0,64.0
17349,68.0,0,840,2.0,64.0
17350,44.0,0,840,8.0,64.0
17351,56.0,0,840,7.0,64.0
17352,68.0,0,840,6.0,64.0
17353,60.0,75,390,13.0,64.0
17354,80.0,0,840,11.0,64.0
17355,56.0,0,840,5.0,64.0
17356,56.0,0,120,4.0,64.0
17357,56.0,120,120,14.0,64.0
17358,44.0,0,120,15.0,64.0
17359,65.0,0,240,3.0,64.0
17360,55.0,40,120,14.0,64.0
17361,77.0,0,240,3.0,64.0
17362,43.0,0,120,15.0,64.0
17363,55.0,0,120,4.0,64.0
17364,58.0,120,120,4.0,64.0
17365,46.0,0,120,15.0,64.0
17366,58.0,5,120,14.0,64.0
17367,56.0,0,120,4.0,64.0
17368,44.0,0,120,15.0,64.0
17369,56.0,0,120,14.0,64.0
17370,60.0,5,240,3.0,64.0
17371,72.0,0,240,3.0,64.0
17372,65.0,115,120,13.0,64.0
17373,58.0,0,120,14.0,64.0
17374,46.0,0,120,15.0,64.0
17375,67.0,0,120,13.0,64.0
17376,58.0,120,120,4.0,64.0
17377,60.0,120,240,3.0,64.0
17378,65.0,0,120,13.0,64.0
17379,56.0,0,120,14.0,64.0
17380,56.0,115,120,4.0,64.0
17381,44.0,0,120,15.0,64.0
17382,72.0,0,240,3.0,64.0
17383,46.0,0,120,15.0,64.0
17384,63.0,0,120,13.0,64.0
17385,58.0,0,120,14.0,64.0
17386,58.0,5,120,4.0,64.0
17387,53.0,0,390,7.0,64.0
17388,56.0,0,120,14.0,64.0
17389,77.0,0,390,11.0,64.0
17390,65.0,0,390,5.0,64.0
17391,77.0,75,390,6.0,64.0
17392,65.0,0,390,6.0,64.0
17393,65.0,0,390,2.0,64.0
17394,44.0,115,120,15.0,64.0
17395,77.0,0,390,2.0,64.0
17396,53.0,0,390,5.0,64.0
17397,41.0,0,390,8.0,64.0
17398,65.0,0,390,12.0,64.0
17399,41.0,0,390,7.0,64.0
17400,74.0,0,240,3.0,64.0
17401,89.0,0,390,0.0,64.0
17402,56.0,0,120,4.0,64.0
17403,62.0,0,240,13.0,64.0
17404,77.0,0,390,0.0,64.0
17405,62.0,5,240,3.0,64.0
17406,46.0,0,120,15.0,64.0
17407,58.0,0,120,14.0,64.0
17408,58.0,120,120,4.0,64.0
17409,56.0,0,120,14.0,64.0
17410,44.0,40,120,15.0,64.0
17411,62.0,115,240,3.0,64.0
17412,56.0,0,120,4.0,64.0
17413,74.0,0,240,3.0,64.0
17414,60.0,120,360,13.0,64.0
17415,58.0,5,120,14.0,64.0
17416,46.0,0,120,15.0,64.0
17417,58.0,0,120,4.0,64.0
17418,43.0,0,1830,7.0,64.0
17419,63.0,0,360,3.0,64.0
17420,55.0,115,1320,7.0,64.0
17421,79.0,0,3270,6.0,64.0
17422,67.0,0,3270,6.0,64.0
17423,43.0,0,1560,15.0,64.0
17424,79.0,0,3270,2.0,64.0
17425,67.0,0,3270,2.0,64.0
17426,91.0,0,3270,0.0,64.0
17427,79.0,0,3270,0.0,64.0
17428,43.0,0,1830,8.0,64.0
17429,55.0,0,1560,14.0,64.0
17430,55.0,0,1320,5.0,64.0
17431,67.0,0,3270,12.0,64.0
17432,79.0,0,3270,11.0,64.0
17433,75.0,120,360,3.0,64.0
17434,55.0,125,1560,4.0,64.0
17435,59.0,125,120,13.0,64.0
17436,60.0,120,360,13.0,64.0
17437,53.0,115,120,3.0,64.0
17438,65.0,0,120,3.0,64.0
17439,67.0,5,240,3.0,64.0
17440,55.0,0,240,3.0,64.0
17441,59.0,120,120,13.0,64.0
17442,57.0,0,120,3.0,64.0
17443,69.0,0,120,3.0,64.0
17444,60.0,115,120,13.0,64.0
17445,59.0,125,120,3.0,64.0
17446,62.0,0,120,13.0,64.0
17447,71.0,0,120,3.0,64.0
17448,63.0,0,120,13.0,64.0
17449,72.0,0,120,3.0,64.0
17450,60.0,120,120,3.0,64.0
17451,75.0,120,120,3.0,64.0
17452,67.0,0,120,13.0,64.0
17453,63.0,0,120,3.0,64.0
17454,74.0,0,120,3.0,64.0
17455,65.0,0,120,13.0,64.0
17456,62.0,0,120,3.0,64.0
17457,65.0,0,120,3.0,64.0
17458,63.0,0,120,13.0,64.0
17459,77.0,120,120,3.0,64.0
17460,62.0,0,390,13.0,64.0
17461,62.0,0,390,7.0,64.0
17462,50.0,0,390,7.0,64.0
17463,71.0,0,390,3.0,64.0
17464,62.0,0,390,5.0,64.0
17465,83.0,75,390,3.0,64.0
17466,59.0,0,120,4.0,64.0
17467,59.0,120,120,14.0,64.0
17468,47.0,0,120,15.0,64.0
17469,43.0,0,120,15.0,64.0
17470,55.0,40,120,4.0,64.0
17471,55.0,0,120,14.0,64.0
17472,59.0,120,120,4.0,64.0
17473,59.0,5,120,14.0,64.0
17474,47.0,0,120,15.0,64.0
17475,51.0,0,120,4.0,64.0
17476,67.0,5,240,13.0,64.0
17477,55.0,0,240,7.0,64.0
17478,67.0,0,240,7.0,64.0
17479,84.0,0,720,3.0,64.0
17480,51.0,0,390,7.0,64.0
17481,39.0,115,120,15.0,64.0
17482,72.0,0,720,3.0,64.0
17483,39.0,75,390,8.0,64.0
17484,67.0,0,240,5.0,64.0
17485,51.0,0,120,14.0,64.0
17486,55.0,0,120,14.0,64.0
17487,55.0,120,120,4.0,64.0
17488,43.0,0,120,15.0,64.0
17489,55.0,0,240,7.0,64.0
17490,67.0,0,240,7.0,64.0
17491,51.0,40,120,14.0,64.0
17492,39.0,0,120,15.0,64.0
17493,67.0,0,240,5.0,64.0
17494,67.0,0,240,13.0,64.0
17495,51.0,0,120,4.0,64.0
17496,43.0,0,120,15.0,64.0
17497,55.0,0,120,14.0,64.0
17498,55.0,125,120,4.0,64.0
17499,48.0,115,120,14.0,64.0
17500,63.0,0,240,5.0,64.0
17501,63.0,0,240,13.0,64.0
17502,36.0,0,390,8.0,64.0
17503,36.0,0,120,15.0,64.0
17504,51.0,0,240,7.0,64.0
17505,48.0,75,390,7.0,64.0
17506,63.0,5,240,7.0,64.0
17507,48.0,0,120,4.0,64.0
17508,51.0,120,120,4.0,64.0
17509,39.0,0,120,15.0,64.0
17510,51.0,0,120,14.0,64.0
17511,63.0,0,240,5.0,64.0
17512,63.0,0,240,7.0,64.0
17513,51.0,0,240,7.0,64.0
17514,48.0,0,120,4.0,64.0
17515,70.0,0,240,3.0,64.0
17516,48.0,0,120,14.0,64.0
17517,63.0,5,240,13.0,64.0
17518,36.0,40,120,15.0,64.0
17519,82.0,0,240,3.0,64.0
17520,51.0,0,120,14.0,64.0
17521,51.0,120,120,4.0,64.0
17522,39.0,0,120,15.0,64.0
17523,60.0,0,390,5.0,64.0
17524,48.0,75,390,7.0,64.0
17525,41.0,120,120,15.0,64.0
17526,60.0,0,390,7.0,64.0
17527,53.0,0,120,4.0,64.0
17528,80.0,0,1320,3.0,64.0
17529,53.0,0,390,7.0,64.0
17530,53.0,0,120,14.0,64.0
17531,60.0,0,390,13.0,64.0
17532,41.0,0,390,8.0,64.0
17533,68.0,0,1320,3.0,64.0
17534,56.0,0,120,4.0,64.0
17535,56.0,0,120,14.0,64.0
17536,44.0,120,120,15.0,64.0
17537,53.0,40,120,4.0,64.0
17538,53.0,0,120,14.0,64.0
17539,41.0,0,120,15.0,64.0
17540,56.0,0,120,14.0,64.0
17541,56.0,120,120,4.0,64.0
17542,44.0,5,120,15.0,64.0
17543,65.0,0,1350,2.0,64.0
17544,50.0,115,120,14.0,64.0
17545,50.0,75,390,7.0,64.0
17546,38.0,0,120,15.0,64.0
17547,65.0,0,240,13.0,64.0
17548,38.0,0,390,8.0,64.0
17549,50.0,0,120,4.0,64.0
17550,89.0,0,1350,0.0,64.0
17551,77.0,0,1350,2.0,64.0
17552,77.0,0,1350,6.0,64.0
17553,65.0,0,240,7.0,64.0
17554,53.0,5,240,7.0,64.0
17555,65.0,75,1350,12.0,64.0
17556,77.0,0,1350,0.0,64.0
17557,65.0,0,240,5.0,64.0
17558,65.0,0,1350,6.0,64.0
17559,77.0,0,1350,11.0,64.0
17560,53.0,0,120,4.0,64.0
17561,41.0,0,120,15.0,64.0
17562,53.0,120,120,14.0,64.0
17563,38.0,0,120,15.0,64.0
17564,53.0,0,240,7.0,64.0
17565,65.0,0,240,7.0,64.0
17566,65.0,0,240,13.0,64.0
17567,65.0,0,240,5.0,64.0
17568,50.0,40,120,4.0,64.0
17569,50.0,0,120,14.0,64.0
17570,41.0,0,120,15.0,64.0
17571,53.0,0,120,14.0,64.0
17572,53.0,125,120,4.0,64.0
17573,62.0,0,240,5.0,64.0
17574,50.0,0,240,7.0,64.0
17575,35.0,0,120,15.0,64.0
17576,62.0,5,240,13.0,64.0
17577,47.0,115,120,4.0,64.0
17578,47.0,75,390,7.0,64.0
17579,35.0,0,390,8.0,64.0
17580,62.0,0,240,7.0,64.0
17581,47.0,0,120,14.0,64.0
17582,38.0,0,120,15.0,64.0
17583,50.0,0,120,14.0,64.0
17584,50.0,120,120,4.0,64.0
17585,47.0,40,120,4.0,64.0
17586,62.0,0,240,7.0,64.0
17587,50.0,0,240,7.0,64.0
17588,62.0,5,240,13.0,64.0
17589,47.0,0,120,14.0,64.0
17590,62.0,0,240,5.0,64.0
17591,35.0,0,120,15.0,64.0
17592,50.0,0,120,14.0,64.0
17593,50.0,120,120,4.0,64.0
17594,38.0,0,120,15.0,64.0
17595,59.0,0,390,13.0,64.0
17596,51.0,0,120,14.0,64.0
17597,39.0,120,120,15.0,64.0
17598,79.0,0,1320,3.0,64.0
17599,67.0,0,1320,3.0,64.0
17600,59.0,0,390,5.0,64.0
17601,39.0,0,390,8.0,64.0
17602,51.0,0,120,4.0,64.0
17603,47.0,0,390,7.0,64.0
17604,59.0,0,390,7.0,64.0
17605,51.0,0,390,7.0,64.0
17606,55.0,0,120,4.0,64.0
17607,55.0,0,120,14.0,64.0
17608,43.0,120,120,15.0,64.0
17609,51.0,0,120,14.0,64.0
17610,39.0,40,120,15.0,64.0
17611,51.0,0,120,4.0,64.0
17612,55.0,120,120,4.0,64.0
17613,43.0,5,120,15.0,64.0
17614,55.0,0,120,14.0,64.0
17615,36.0,0,390,8.0,64.0
17616,63.0,0,1350,6.0,64.0
17617,75.0,0,1350,6.0,64.0
17618,63.0,0,1350,2.0,64.0
17619,63.0,0,1350,12.0,64.0
17620,48.0,75,390,7.0,64.0
17621,48.0,115,120,4.0,64.0
17622,75.0,0,1350,2.0,64.0
17623,48.0,0,120,14.0,64.0
17624,36.0,0,120,15.0,64.0
17625,63.0,0,240,13.0,64.0
17626,63.0,0,240,5.0,64.0
17627,51.0,5,240,7.0,64.0
17628,63.0,0,240,7.0,64.0
17629,87.0,0,1350,0.0,64.0
17630,75.0,0,1350,0.0,64.0
17631,75.0,0,1350,11.0,64.0
17632,51.0,0,120,4.0,64.0
17633,39.0,120,120,15.0,64.0
17634,51.0,0,120,14.0,64.0
17635,48.0,0,120,14.0,64.0
17636,48.0,40,120,4.0,64.0
17637,51.0,0,240,7.0,64.0
17638,63.0,125,240,7.0,64.0
17639,63.0,0,240,5.0,64.0
17640,63.0,0,240,13.0,64.0
17641,36.0,0,120,15.0,64.0
17642,51.0,0,120,14.0,64.0
17643,51.0,0,120,4.0,64.0
17644,39.0,0,120,15.0,64.0
17645,33.0,0,120,15.0,64.0
17646,60.0,0,240,5.0,64.0
17647,45.0,0,390,7.0,64.0
17648,48.0,5,240,7.0,64.0
17649,60.0,0,240,7.0,64.0
17650,33.0,75,390,8.0,64.0
17651,45.0,0,120,4.0,64.0
17652,60.0,0,240,13.0,64.0
17653,45.0,115,120,14.0,64.0
17654,48.0,0,120,4.0,64.0
17655,48.0,0,120,14.0,64.0
17656,36.0,120,120,15.0,64.0
17657,60.0,0,240,13.0,64.0
17658,45.0,0,120,14.0,64.0
17659,60.0,0,240,7.0,64.0
17660,48.0,0,240,7.0,64.0
17661,33.0,0,120,15.0,64.0
17662,45.0,40,120,4.0,64.0
17663,60.0,0,240,5.0,64.0
17664,36.0,5,120,15.0,64.0
17665,48.0,0,120,14.0,64.0
17666,48.0,120,120,4.0,64.0
17667,38.0,75,390,8.0,64.0
17668,57.0,0,390,13.0,64.0
17669,50.0,120,120,14.0,64.0
17670,65.0,0,1320,3.0,64.0
17671,45.0,0,390,7.0,64.0
17672,57.0,0,390,7.0,64.0
17673,57.0,0,390,5.0,64.0
17674,77.0,40,1320,3.0,64.0
17675,50.0,0,120,4.0,64.0
17676,38.0,0,120,15.0,64.0
17677,50.0,0,390,7.0,64.0
17678,41.0,0,120,15.0,64.0
17679,53.0,120,120,4.0,64.0
17680,53.0,0,120,14.0,64.0
17681,50.0,0,120,14.0,64.0
17682,50.0,40,120,4.0,64.0
17683,38.0,0,120,15.0,64.0
17684,41.0,0,120,15.0,64.0
17685,53.0,120,120,4.0,64.0
17686,53.0,5,120,14.0,64.0
17687,62.0,0,240,13.0,64.0
17688,74.0,0,1800,6.0,64.0
17689,74.0,0,1350,0.0,64.0
17690,62.0,0,1800,6.0,64.0
17691,62.0,0,240,7.0,64.0
17692,50.0,0,240,7.0,64.0
17693,62.0,5,240,5.0,64.0
17694,47.0,0,120,14.0,64.0
17695,62.0,0,1350,2.0,64.0
17696,74.0,0,1350,11.0,64.0
17697,47.0,75,390,8.0,64.0
17698,35.0,0,120,15.0,64.0
17699,47.0,115,120,4.0,64.0
17700,74.0,0,1350,2.0,64.0
17701,86.0,75,1350,0.0,64.0
17702,62.0,0,1350,12.0,64.0
17703,47.0,0,390,7.0,64.0
17704,38.0,0,120,15.0,64.0
17705,50.0,0,120,4.0,64.0
17706,50.0,120,120,14.0,64.0
17707,62.0,125,240,5.0,64.0
17708,47.0,0,120,4.0,64.0
17709,62.0,0,240,7.0,64.0
17710,50.0,0,240,7.0,64.0
17711,35.0,0,120,15.0,64.0
17712,47.0,40,120,14.0,64.0
17713,62.0,0,240,13.0,64.0
17714,50.0,0,120,4.0,64.0
17715,38.0,0,120,15.0,64.0
17716,50.0,0,120,14.0,64.0
17717,43.0,0,120,4.0,64.0
17718,31.0,115,120,15.0,64.0
17719,59.0,0,240,5.0,64.0
17720,43.0,75,390,8.0,64.0
17721,47.0,0,240,7.0,64.0
17722,43.0,0,120,14.0,64.0
17723,43.0,0,390,7.0,64.0
17724,59.0,0,240,7.0,64.0
17725,59.0,5,240,13.0,64.0
17726,48.0,120,120,14.0,64.0
17727,47.0,0,120,4.0,64.0
17728,36.0,0,120,15.0,64.0
17729,43.0,0,120,14.0,64.0
17730,59.0,0,240,13.0,64.0
17731,47.0,0,240,7.0,64.0
17732,31.0,0,120,15.0,64.0
17733,59.0,0,240,7.0,64.0
17734,59.0,5,240,5.0,64.0
17735,43.0,0,120,4.0,64.0
17736,47.0,0,120,14.0,64.0
17737,47.0,120,120,4.0,64.0
17738,35.0,0,120,15.0,64.0
17739,36.0,120,120,15.0,64.0
17740,55.0,0,390,7.0,64.0
17741,48.0,0,120,14.0,64.0
17742,48.0,0,120,4.0,64.0
17743,43.0,0,390,7.0,64.0
17744,48.0,0,390,7.0,64.0
17745,36.0,0,390,8.0,64.0
17746,55.0,0,390,5.0,64.0
17747,63.0,0,840,3.0,64.0
17748,55.0,0,390,13.0,64.0
17749,75.0,0,840,3.0,64.0
17750,51.0,120,120,14.0,64.0
17751,51.0,0,120,4.0,64.0
17752,39.0,0,120,15.0,64.0
17753,36.0,0,120,15.0,64.0
17754,48.0,40,120,14.0,64.0
17755,48.0,0,120,4.0,64.0
17756,51.0,120,120,4.0,64.0
17757,51.0,0,120,14.0,64.0
17758,39.0,5,120,15.0,64.0
17759,44.0,0,390,7.0,64.0
17760,84.0,0,120,0.0,64.0
17761,60.0,0,240,7.0,64.0
17762,48.0,0,240,7.0,64.0
17763,72.0,0,120,2.0,64.0
17764,44.0,0,120,4.0,64.0
17765,72.0,0,120,11.0,64.0
17766,44.0,0,120,14.0,64.0
17767,32.0,0,390,8.0,64.0
17768,72.0,0,120,0.0,64.0
17769,32.0,0,120,15.0,64.0
17770,60.0,0,120,12.0,64.0
17771,60.0,0,240,5.0,64.0
17772,60.0,5,240,13.0,64.0
17773,87.0,0,120,0.0,64.0
17774,63.0,0,120,12.0,64.0
17775,75.0,0,120,11.0,64.0
17776,48.0,0,120,4.0,64.0
17777,75.0,0,120,0.0,64.0
17778,75.0,0,120,2.0,64.0
17779,48.0,120,120,14.0,64.0
17780,36.0,0,120,15.0,64.0
17781,48.0,0,240,7.0,64.0
17782,72.0,0,120,11.0,64.0
17783,72.0,0,120,2.0,64.0
17784,60.0,0,240,13.0,64.0
17785,60.0,40,120,12.0,64.0
17786,84.0,0,120,0.0,64.0
17787,44.0,0,120,14.0,64.0
17788,32.0,0,120,15.0,64.0
17789,72.0,0,120,0.0,64.0
17790,60.0,0,240,7.0,64.0
17791,60.0,75,150,5.0,64.0
17792,44.0,0,120,4.0,64.0
17793,87.0,120,120,0.0,64.0
17794,75.0,0,120,0.0,64.0
17795,48.0,0,120,4.0,64.0
17796,48.0,5,120,14.0,64.0
17797,75.0,0,120,2.0,64.0
17798,75.0,0,120,11.0,64.0
17799,36.0,0,120,15.0,64.0
17800,63.0,0,120,12.0,64.0
17801,60.0,75,390,6.0,64.0
17802,62.0,0,120,12.0,64.0
17803,56.0,0,240,7.0,64.0
17804,41.0,0,120,15.0,64.0
17805,77.0,0,600,3.0,64.0
17806,65.0,5,600,3.0,64.0
17807,74.0,0,120,2.0,64.0
17808,41.0,0,120,14.0,64.0
17809,41.0,0,120,4.0,64.0
17810,56.0,0,240,13.0,64.0
17811,74.0,115,120,0.0,64.0
17812,44.0,5,240,7.0,64.0
17813,74.0,0,120,11.0,64.0
17814,86.0,0,120,0.0,64.0
17815,41.0,0,390,7.0,64.0
17816,72.0,0,390,6.0,64.0
17817,62.0,0,390,5.0,64.0
17818,56.0,0,240,5.0,64.0
17819,41.0,0,390,8.0,64.0
17820,77.0,0,120,11.0,64.0
17821,44.0,0,120,14.0,64.0
17822,44.0,0,120,15.0,64.0
17823,65.0,0,120,12.0,64.0
17824,44.0,0,120,4.0,64.0
17825,77.0,0,120,2.0,64.0
17826,77.0,0,120,0.0,64.0
17827,89.0,120,120,0.0,64.0
17828,41.0,0,120,4.0,64.0
17829,44.0,0,240,7.0,64.0
17830,56.0,0,240,7.0,64.0
17831,74.0,0,120,0.0,64.0
17832,41.0,0,120,14.0,64.0
17833,56.0,0,240,13.0,64.0
17834,74.0,0,120,11.0,64.0
17835,62.0,0,120,12.0,64.0
17836,41.0,0,120,15.0,64.0
17837,56.0,0,240,5.0,64.0
17838,74.0,0,120,2.0,64.0
17839,86.0,0,120,0.0,64.0
17840,77.0,0,120,0.0,64.0
17841,89.0,0,120,0.0,64.0
17842,44.0,0,120,4.0,64.0
17843,65.0,0,120,12.0,64.0
17844,44.0,5,120,14.0,64.0
17845,77.0,0,120,11.0,64.0
17846,44.0,0,120,15.0,64.0
17847,77.0,0,120,2.0,64.0
17848,50.0,0,390,13.0,64.0
17849,50.0,20,390,7.0,64.0
17850,55.0,0,390,7.0,64.0
17851,50.0,0,390,5.0,64.0
17852,43.0,0,390,4.0,64.0
17853,43.0,0,390,14.0,64.0
17854,71.0,0,60,11.0,64.0
17855,59.0,0,60,12.0,64.0
17856,71.0,0,60,0.0,64.0
17857,59.0,0,840,5.0,64.0
17858,43.0,0,390,8.0,64.0
17859,62.0,0,390,6.0,64.0
17860,74.0,0,390,6.0,64.0
17861,71.0,0,60,2.0,64.0
17862,43.0,0,390,7.0,64.0
17863,43.0,0,390,15.0,64.0
17864,83.0,0,60,0.0,64.0
17865,84.0,0,60,0.0,64.0
17866,60.0,0,60,12.0,64.0
17867,72.0,0,60,0.0,64.0
17868,72.0,0,60,2.0,64.0
17869,72.0,60,60,11.0,64.0
17870,71.0,0,60,0.0,64.0
17871,79.0,0,120,3.0,64.0
17872,67.0,0,120,3.0,64.0
17873,59.0,0,60,12.0,64.0
17874,71.0,0,60,2.0,64.0
17875,71.0,0,60,11.0,64.0
17876,83.0,0,60,0.0,64.0
17877,84.0,0,60,0.0,64.0
17878,60.0,0,60,12.0,64.0
17879,72.0,60,60,11.0,64.0
17880,72.0,0,60,2.0,64.0
17881,72.0,0,60,0.0,64.0
17882,83.0,0,60,0.0,64.0
17883,71.0,60,60,0.0,64.0
17884,77.0,0,120,3.0,64.0
17885,65.0,40,120,3.0,64.0
17886,59.0,0,60,12.0,64.0
17887,71.0,0,60,11.0,64.0
17888,71.0,0,60,2.0,64.0
17889,60.0,0,60,12.0,64.0
17890,84.0,0,60,0.0,64.0
17891,72.0,0,60,2.0,64.0
17892,72.0,0,60,11.0,64.0
17893,72.0,0,60,0.0,64.0
17894,79.0,5,120,3.0,64.0
17895,71.0,0,60,11.0,64.0
17896,71.0,0,60,0.0,64.0
17897,71.0,0,60,2.0,64.0
17898,59.0,0,60,12.0,64.0
17899,83.0,0,60,0.0,64.0
17900,67.0,0,120,3.0,64.0
17901,84.0,0,60,0.0,64.0
17902,72.0,0,60,2.0,64.0
17903,72.0,60,60,11.0,64.0
17904,72.0,0,60,0.0,64.0
17905,60.0,0,60,12.0,64.0
17906,59.0,0,240,3.0,64.0
17907,71.0,0,240,3.0,64.0
17908,43.0,0,240,14.0,64.0
17909,43.0,0,240,4.0,64.0
17910,83.0,0,60,0.0,64.0
17911,31.0,0,240,8.0,64.0
17912,59.0,0,60,12.0,64.0
17913,59.0,0,390,6.0,64.0
17914,71.0,20,390,6.0,64.0
17915,31.0,5,240,15.0,64.0
17916,71.0,0,60,2.0,64.0
17917,43.0,0,240,7.0,64.0
17918,71.0,0,60,0.0,64.0
17919,71.0,0,60,11.0,64.0
17920,84.0,60,60,0.0,64.0
17921,72.0,0,60,11.0,64.0
17922,60.0,0,60,12.0,64.0
17923,72.0,0,60,0.0,64.0
17924,72.0,0,60,2.0,64.0
17925,71.0,0,60,0.0,64.0
17926,71.0,0,60,2.0,64.0
17927,71.0,0,60,11.0,64.0
17928,59.0,0,60,12.0,64.0
17929,83.0,0,60,0.0,64.0
17930,60.0,60,60,12.0,64.0
17931,72.0,0,60,11.0,64.0
17932,72.0,0,60,0.0,64.0
17933,72.0,0,60,2.0,64.0
17934,84.0,0,60,0.0,64.0
17935,83.0,0,60,0.0,64.0
17936,71.0,0,60,0.0,64.0
17937,31.0,0,240,15.0,64.0
17938,46.0,0,240,7.0,64.0
17939,71.0,0,60,2.0,64.0
17940,46.0,0,240,14.0,64.0
17941,62.0,0,240,3.0,64.0
17942,60.0,0,240,7.0,64.0
17943,55.0,0,240,7.0,64.0
17944,55.0,0,240,13.0,64.0
17945,31.0,0,240,8.0,64.0
17946,59.0,0,60,12.0,64.0
17947,71.0,0,60,11.0,64.0
17948,74.0,60,240,3.0,64.0
17949,55.0,5,240,5.0,64.0
17950,46.0,0,120,4.0,64.0
17951,60.0,0,60,12.0,64.0
17952,72.0,0,60,0.0,64.0
17953,72.0,0,60,11.0,64.0
17954,72.0,0,60,2.0,64.0
17955,84.0,0,60,0.0,64.0
17956,71.0,0,60,11.0,64.0
17957,43.0,0,120,4.0,64.0
17958,59.0,0,60,12.0,64.0
17959,83.0,55,60,0.0,64.0
17960,71.0,0,60,0.0,64.0
17961,71.0,0,60,2.0,64.0
17962,72.0,0,60,11.0,64.0
17963,60.0,0,60,12.0,64.0
17964,72.0,0,60,0.0,64.0
17965,84.0,0,60,0.0,64.0
17966,72.0,0,60,2.0,64.0
17967,55.0,0,240,13.0,64.0
17968,79.0,0,60,0.0,64.0
17969,48.0,0,240,14.0,64.0
17970,60.0,0,240,3.0,64.0
17971,67.0,0,60,12.0,64.0
17972,48.0,0,120,4.0,64.0
17973,60.0,0,240,5.0,64.0
17974,55.0,0,240,7.0,64.0
17975,60.0,5,240,6.0,64.0
17976,72.0,0,240,6.0,64.0
17977,91.0,0,60,0.0,64.0
17978,60.0,0,240,7.0,64.0
17979,48.0,0,240,7.0,64.0
17980,55.0,0,240,5.0,64.0
17981,72.0,0,240,3.0,64.0
17982,79.0,0,60,11.0,64.0
17983,79.0,0,60,2.0,64.0
17984,77.0,0,60,11.0,64.0
17985,77.0,60,60,0.0,64.0
17986,65.0,0,60,12.0,64.0
17987,89.0,0,60,0.0,64.0
17988,77.0,0,60,2.0,64.0
17989,67.0,0,60,12.0,64.0
17990,79.0,0,60,11.0,64.0
17991,79.0,0,60,0.0,64.0
17992,43.0,0,120,4.0,64.0
17993,91.0,0,60,0.0,64.0
17994,79.0,0,60,2.0,64.0
17995,87.0,0,60,0.0,64.0
17996,75.0,0,60,0.0,64.0
17997,63.0,60,60,12.0,64.0
17998,75.0,0,60,11.0,64.0
17999,75.0,0,60,2.0,64.0
18000,31.0,0,240,8.0,64.0
18001,79.0,0,60,11.0,64.0
18002,51.0,0,120,4.0,64.0
18003,60.0,0,240,7.0,64.0
18004,91.0,0,60,0.0,64.0
18005,55.0,0,240,7.0,64.0
18006,51.0,0,240,7.0,64.0
18007,55.0,0,240,13.0,64.0
18008,60.0,0,240,3.0,64.0
18009,31.0,5,240,15.0,64.0
18010,72.0,0,240,3.0,64.0
18011,79.0,0,60,0.0,64.0
18012,60.0,0,240,5.0,64.0
18013,72.0,0,240,6.0,64.0
18014,79.0,0,60,2.0,64.0
18015,60.0,0,240,6.0,64.0
18016,51.0,5,120,14.0,64.0
18017,67.0,55,60,12.0,64.0
18018,55.0,0,240,5.0,64.0
18019,72.0,0,60,0.0,64.0
18020,72.0,0,60,2.0,64.0
18021,84.0,0,60,0.0,64.0
18022,60.0,0,60,12.0,64.0
18023,72.0,0,60,11.0,64.0
18024,87.0,115,120,0.0,64.0
18025,63.0,0,120,12.0,64.0
18026,75.0,0,120,11.0,64.0
18027,75.0,0,120,0.0,64.0
18028,48.0,0,120,4.0,64.0
18029,48.0,0,120,14.0,64.0
18030,75.0,0,120,2.0,64.0
18031,55.0,0,390,7.0,64.0
18032,59.0,0,390,7.0,64.0
18033,74.0,0,120,3.0,64.0
18034,71.0,0,390,11.0,64.0
18035,55.0,0,390,4.0,64.0
18036,71.0,0,390,2.0,64.0
18037,55.0,0,390,14.0,64.0
18038,43.0,0,390,15.0,64.0
18039,71.0,0,390,0.0,64.0
18040,59.0,0,390,12.0,64.0
18041,83.0,0,390,0.0,64.0
18042,55.0,0,390,13.0,64.0
18043,43.0,0,390,7.0,64.0
18044,43.0,0,390,8.0,64.0
18045,74.0,0,390,6.0,64.0
18046,62.0,75,390,6.0,64.0
18047,62.0,120,120,3.0,64.0
18048,79.0,120,120,3.0,64.0
18049,67.0,0,120,3.0,64.0
18050,67.0,0,120,5.0,64.0
18051,55.0,0,120,5.0,64.0
18052,65.0,0,120,3.0,64.0
18053,53.0,0,120,5.0,64.0
18054,65.0,0,120,5.0,64.0
18055,77.0,45,120,3.0,64.0
18056,79.0,0,120,3.0,64.0
18057,67.0,0,120,3.0,64.0
18058,55.0,240,120,5.0,64.0
18059,67.0,0,120,5.0,64.0
18060,50.0,0,240,5.0,64.0
18061,74.0,0,240,3.0,64.0
18062,62.0,5,240,3.0,64.0
18063,62.0,0,240,5.0,64.0
18064,43.0,0,120,15.0,64.0
18065,55.0,120,120,14.0,64.0
18066,43.0,0,120,8.0,64.0
18067,55.0,0,120,4.0,64.0
18068,74.0,0,240,6.0,64.0
18069,74.0,0,240,2.0,64.0
18070,59.0,0,240,12.0,64.0
18071,71.0,0,240,0.0,64.0
18072,41.0,0,120,15.0,64.0
18073,62.0,0,240,6.0,64.0
18074,59.0,0,240,5.0,64.0
18075,62.0,5,240,3.0,64.0
18076,74.0,0,240,3.0,64.0
18077,71.0,0,240,11.0,64.0
18078,53.0,0,120,4.0,64.0
18079,71.0,0,240,2.0,64.0
18080,59.0,0,240,7.0,64.0
18081,55.0,0,240,7.0,64.0
18082,41.0,0,120,8.0,64.0
18083,53.0,115,120,14.0,64.0
18084,43.0,0,240,7.0,64.0
18085,55.0,0,240,13.0,64.0
18086,83.0,0,240,0.0,64.0
18087,62.0,0,240,5.0,64.0
18088,55.0,115,120,4.0,64.0
18089,43.0,0,120,8.0,64.0
18090,43.0,0,120,15.0,64.0
18091,55.0,0,120,14.0,64.0
18092,51.0,115,120,14.0,64.0
18093,39.0,0,120,15.0,64.0
18094,60.0,0,240,12.0,64.0
18095,39.0,5,120,8.0,64.0
18096,75.0,0,240,3.0,64.0
18097,84.0,5,240,0.0,64.0
18098,63.0,0,240,6.0,64.0
18099,51.0,0,120,4.0,64.0
18100,55.0,0,240,13.0,64.0
18101,63.0,0,240,5.0,64.0
18102,63.0,0,240,3.0,64.0
18103,75.0,0,240,6.0,64.0
18104,60.0,0,240,7.0,64.0
18105,75.0,0,240,2.0,64.0
18106,55.0,0,240,7.0,64.0
18107,51.0,0,240,7.0,64.0
18108,55.0,0,240,5.0,64.0
18109,72.0,0,240,2.0,64.0
18110,72.0,0,240,11.0,64.0
18111,72.0,0,240,0.0,64.0
18112,43.0,0,120,8.0,64.0
18113,55.0,0,120,4.0,64.0
18114,43.0,0,120,15.0,64.0
18115,55.0,120,120,14.0,64.0
18116,75.0,5,240,6.0,64.0
18117,55.0,0,240,13.0,64.0
18118,36.0,0,120,8.0,64.0
18119,75.0,0,240,2.0,64.0
18120,36.0,0,120,15.0,64.0
18121,63.0,0,240,6.0,64.0
18122,60.0,0,240,7.0,64.0
18123,48.0,0,120,4.0,64.0
18124,55.0,0,240,5.0,64.0
18125,48.0,0,240,7.0,64.0
18126,55.0,0,240,7.0,64.0
18127,72.0,0,240,11.0,64.0
18128,63.0,115,240,3.0,64.0
18129,48.0,115,120,14.0,64.0
18130,63.0,0,240,5.0,64.0
18131,72.0,0,240,0.0,64.0
18132,60.0,0,240,12.0,64.0
18133,84.0,0,240,0.0,64.0
18134,72.0,0,240,2.0,64.0
18135,75.0,0,240,3.0,64.0
18136,39.0,0,120,8.0,64.0
18137,51.0,0,120,4.0,64.0
18138,39.0,0,120,15.0,64.0
18139,51.0,0,120,14.0,64.0
18140,62.0,0,390,12.0,64.0
18141,43.0,0,390,7.0,64.0
18142,74.0,0,390,0.0,64.0
18143,74.0,0,390,11.0,64.0
18144,55.0,0,390,7.0,64.0
18145,59.0,0,390,7.0,64.0
18146,86.0,0,390,0.0,64.0
18147,35.0,0,390,8.0,64.0
18148,74.0,0,390,6.0,64.0
18149,77.0,0,120,3.0,64.0
18150,74.0,0,390,2.0,64.0
18151,47.0,0,390,14.0,64.0
18152,55.0,0,390,13.0,64.0
18153,35.0,0,390,15.0,64.0
18154,47.0,0,390,4.0,64.0
18155,62.0,0,390,6.0,64.0
18156,65.0,120,120,3.0,64.0
18157,79.0,0,120,3.0,64.0
18158,67.0,0,120,3.0,64.0
18159,55.0,120,120,5.0,64.0
18160,67.0,0,120,5.0,64.0
18161,65.0,0,120,5.0,64.0
18162,65.0,0,120,3.0,64.0
18163,77.0,45,120,3.0,64.0
18164,53.0,0,120,5.0,64.0
18165,55.0,0,120,5.0,64.0
18166,67.0,0,120,5.0,64.0
18167,79.0,240,120,3.0,64.0
18168,67.0,0,120,3.0,64.0
18169,74.0,0,240,3.0,64.0
18170,62.0,0,240,5.0,64.0
18171,50.0,0,240,5.0,64.0
18172,62.0,5,240,3.0,64.0
18173,43.0,0,120,15.0,64.0
18174,43.0,0,120,8.0,64.0
18175,55.0,120,120,14.0,64.0
18176,55.0,0,120,4.0,64.0
18177,86.0,0,240,0.0,64.0
18178,62.0,0,240,6.0,64.0
18179,41.0,115,120,15.0,64.0
18180,74.0,0,240,0.0,64.0
18181,55.0,0,240,7.0,64.0
18182,59.0,0,240,7.0,64.0
18183,74.0,0,240,11.0,64.0
18184,67.0,0,240,3.0,64.0
18185,74.0,0,240,2.0,64.0
18186,53.0,0,120,4.0,64.0
18187,59.0,0,240,13.0,64.0
18188,59.0,0,240,5.0,64.0
18189,41.0,0,120,8.0,64.0
18190,74.0,0,240,6.0,64.0
18191,79.0,0,240,3.0,64.0
18192,53.0,0,120,14.0,64.0
18193,43.0,5,240,7.0,64.0
18194,62.0,0,240,5.0,64.0
18195,62.0,0,240,12.0,64.0
18196,55.0,120,120,4.0,64.0
18197,55.0,0,120,14.0,64.0
18198,43.0,0,120,15.0,64.0
18199,43.0,0,120,8.0,64.0
18200,63.0,5,240,5.0,64.0
18201,51.0,0,120,14.0,64.0
18202,63.0,0,240,12.0,64.0
18203,60.0,0,240,5.0,64.0
18204,67.0,0,240,3.0,64.0
18205,67.0,0,240,6.0,64.0
18206,79.0,0,240,6.0,64.0
18207,75.0,0,240,11.0,64.0
18208,60.0,0,240,7.0,64.0
18209,39.0,115,120,15.0,64.0
18210,55.0,0,240,7.0,64.0
18211,60.0,0,240,13.0,64.0
18212,79.0,0,240,3.0,64.0
18213,75.0,0,240,2.0,64.0
18214,51.0,0,240,7.0,64.0
18215,75.0,0,240,0.0,64.0
18216,51.0,0,120,4.0,64.0
18217,87.0,0,240,0.0,64.0
18218,39.0,0,120,8.0,64.0
18219,43.0,120,120,15.0,64.0
18220,55.0,0,120,14.0,64.0
18221,43.0,0,120,8.0,64.0
18222,55.0,0,120,4.0,64.0
18223,60.0,0,240,7.0,64.0
18224,55.0,5,240,7.0,64.0
18225,48.0,0,120,4.0,64.0
18226,87.0,0,240,0.0,64.0
18227,60.0,0,240,5.0,64.0
18228,79.0,0,240,6.0,64.0
18229,67.0,0,240,6.0,64.0
18230,75.0,0,240,2.0,64.0
18231,48.0,0,240,7.0,64.0
18232,67.0,0,240,5.0,64.0
18233,79.0,120,360,3.0,64.0
18234,60.0,0,240,13.0,64.0
18235,48.0,0,120,14.0,64.0
18236,63.0,0,240,12.0,64.0
18237,36.0,115,120,15.0,64.0
18238,36.0,0,120,8.0,64.0
18239,75.0,0,240,0.0,64.0
18240,75.0,0,240,11.0,64.0
18241,67.0,0,360,3.0,64.0
18242,39.0,0,120,15.0,64.0
18243,51.0,0,120,14.0,64.0
18244,39.0,0,120,8.0,64.0
18245,51.0,115,120,4.0,64.0
18246,55.0,0,390,7.0,64.0
18247,74.0,0,390,11.0,64.0
18248,31.0,0,390,8.0,64.0
18249,74.0,0,390,0.0,64.0
18250,74.0,0,390,2.0,64.0
18251,43.0,0,390,14.0,64.0
18252,86.0,0,390,0.0,64.0
18253,62.0,0,390,6.0,64.0
18254,74.0,0,390,6.0,64.0
18255,59.0,0,390,7.0,64.0
18256,31.0,0,390,15.0,64.0
18257,59.0,0,390,13.0,64.0
18258,43.0,0,390,7.0,64.0
18259,62.0,0,390,12.0,64.0
18260,43.0,0,390,4.0,64.0
18261,67.0,0,120,5.0,64.0
18262,79.0,120,120,3.0,64.0
18263,67.0,0,120,3.0,64.0
18264,55.0,0,120,5.0,64.0
18265,53.0,0,120,5.0,64.0
18266,77.0,45,120,3.0,64.0
18267,65.0,0,120,5.0,64.0
18268,65.0,0,120,3.0,64.0
18269,79.0,0,120,3.0,64.0
18270,67.0,0,120,3.0,64.0
18271,67.0,240,120,5.0,64.0
18272,55.0,0,120,5.0,64.0
18273,50.0,0,240,5.0,64.0
18274,62.0,0,240,3.0,64.0
18275,74.0,0,240,3.0,64.0
18276,62.0,5,240,5.0,64.0
18277,43.0,0,120,15.0,64.0
18278,55.0,120,120,4.0,64.0
18279,55.0,0,120,14.0,64.0
18280,43.0,0,120,8.0,64.0
18281,41.0,115,120,8.0,64.0
18282,79.0,0,240,3.0,64.0
18283,74.0,0,240,11.0,64.0
18284,62.0,0,240,5.0,64.0
18285,53.0,0,120,14.0,64.0
18286,62.0,0,240,12.0,64.0
18287,41.0,0,120,15.0,64.0
18288,67.0,0,240,3.0,64.0
18289,59.0,0,240,5.0,64.0
18290,43.0,0,240,7.0,64.0
18291,74.0,0,240,2.0,64.0
18292,55.0,0,240,7.0,64.0
18293,59.0,0,240,7.0,64.0
18294,62.0,0,240,6.0,64.0
18295,74.0,0,240,0.0,64.0
18296,59.0,5,240,13.0,64.0
18297,74.0,0,240,6.0,64.0
18298,86.0,0,240,0.0,64.0
18299,53.0,0,120,4.0,64.0
18300,55.0,120,120,4.0,64.0
18301,43.0,0,120,8.0,64.0
18302,55.0,0,120,14.0,64.0
18303,43.0,0,120,15.0,64.0
18304,79.0,0,240,11.0,64.0
18305,39.0,115,120,15.0,64.0
18306,91.0,0,240,0.0,64.0
18307,60.0,0,240,13.0,64.0
18308,51.0,5,240,7.0,64.0
18309,60.0,0,240,7.0,64.0
18310,55.0,0,240,7.0,64.0
18311,39.0,0,120,8.0,64.0
18312,79.0,0,240,3.0,64.0
18313,79.0,0,240,0.0,64.0
18314,79.0,0,240,2.0,64.0
18315,63.0,0,240,5.0,64.0
18316,67.0,0,240,12.0,64.0
18317,67.0,0,240,6.0,64.0
18318,51.0,0,120,4.0,64.0
18319,60.0,0,240,5.0,64.0
18320,79.0,0,240,6.0,64.0
18321,67.0,0,240,3.0,64.0
18322,51.0,0,120,14.0,64.0
18323,43.0,0,120,8.0,64.0
18324,55.0,0,120,14.0,64.0
18325,55.0,0,120,4.0,64.0
18326,43.0,120,120,15.0,64.0
18327,63.0,0,240,12.0,64.0
18328,63.0,0,240,13.0,64.0
18329,75.0,0,240,11.0,64.0
18330,75.0,0,240,0.0,64.0
18331,36.0,0,120,8.0,64.0
18332,67.0,0,240,5.0,64.0
18333,63.0,0,240,5.0,64.0
18334,79.0,0,240,6.0,64.0
18335,79.0,0,240,3.0,64.0
18336,48.0,115,120,14.0,64.0
18337,48.0,0,240,7.0,64.0
18338,67.0,0,240,3.0,64.0
18339,63.0,0,240,7.0,64.0
18340,36.0,0,120,15.0,64.0
18341,75.0,0,240,2.0,64.0
18342,87.0,0,240,0.0,64.0
18343,67.0,0,240,6.0,64.0
18344,48.0,0,120,4.0,64.0
18345,55.0,0,240,7.0,64.0
18346,51.0,400,120,4.0,64.0
18347,39.0,0,120,15.0,64.0
18348,39.0,0,120,8.0,64.0
18349,51.0,0,120,14.0,64.0
18350,77.0,0,390,6.0,64.0
18351,41.0,555,390,14.0,64.0
18352,29.0,0,390,15.0,64.0
18353,29.0,0,390,8.0,64.0
18354,61.0,0,390,13.0,64.0
18355,65.0,0,390,3.0,64.0
18356,61.0,0,390,5.0,64.0
18357,92.0,0,390,0.0,64.0
18358,68.0,0,390,12.0,64.0
18359,41.0,0,390,4.0,64.0
18360,65.0,0,390,6.0,64.0
18361,80.0,0,390,11.0,64.0
18362,61.0,0,390,7.0,64.0
18363,80.0,0,390,2.0,64.0
18364,77.0,0,390,3.0,64.0
18365,53.0,0,390,7.0,64.0
18366,80.0,0,390,0.0,64.0
18367,41.0,0,390,7.0,64.0
18368,65.0,0,390,5.0,64.0
18369,79.0,0,240,3.0,64.0
18370,67.0,0,240,3.0,64.0
18371,62.0,0,240,7.0,64.0
18372,55.0,0,240,7.0,64.0
18373,41.0,0,240,8.0,64.0
18374,62.0,0,240,13.0,64.0
18375,67.0,0,240,5.0,64.0
18376,71.0,125,240,0.0,64.0
18377,59.0,0,240,12.0,64.0
18378,53.0,0,240,7.0,64.0
18379,53.0,0,240,14.0,64.0
18380,79.0,0,240,6.0,64.0
18381,71.0,0,240,11.0,64.0
18382,67.0,0,240,6.0,64.0
18383,83.0,0,240,0.0,64.0
18384,53.0,0,240,4.0,64.0
18385,71.0,0,240,2.0,64.0
18386,62.0,0,240,5.0,64.0
18387,41.0,0,240,15.0,64.0
18388,39.0,5,240,15.0,64.0
18389,63.0,0,390,7.0,64.0
18390,79.0,0,120,3.0,64.0
18391,51.0,0,240,7.0,64.0
18392,63.0,0,240,6.0,64.0
18393,75.0,0,240,6.0,64.0
18394,72.0,0,600,11.0,64.0
18395,60.0,0,600,12.0,64.0
18396,56.0,75,390,7.0,64.0
18397,51.0,0,240,4.0,64.0
18398,63.0,0,240,5.0,64.0
18399,84.0,125,600,0.0,64.0
18400,51.0,0,240,14.0,64.0
18401,67.0,115,120,3.0,64.0
18402,63.0,0,390,13.0,64.0
18403,39.0,0,240,8.0,64.0
18404,72.0,0,600,2.0,64.0
18405,72.0,0,600,0.0,64.0
18406,80.0,120,120,3.0,64.0
18407,68.0,0,120,3.0,64.0
18408,48.0,0,240,7.0,64.0
18409,48.0,0,240,4.0,64.0
18410,36.0,0,240,8.0,64.0
18411,36.0,0,240,15.0,64.0
18412,60.0,0,240,5.0,64.0
18413,79.0,0,240,6.0,64.0
18414,48.0,5,240,14.0,64.0
18415,77.0,40,120,3.0,64.0
18416,67.0,0,240,6.0,64.0
18417,65.0,0,120,3.0,64.0
18418,67.0,115,120,3.0,64.0
18419,79.0,0,120,3.0,64.0
18420,41.0,0,390,15.0,64.0
18421,65.0,0,390,6.0,64.0
18422,77.0,0,390,6.0,64.0
18423,80.0,0,390,3.0,64.0
18424,53.0,0,390,7.0,64.0
18425,65.0,0,390,5.0,64.0
18426,53.0,0,390,4.0,64.0
18427,53.0,75,390,14.0,64.0
18428,68.0,0,390,3.0,64.0
18429,60.0,0,390,7.0,64.0
18430,60.0,40,840,5.0,64.0
18431,60.0,0,840,13.0,64.0
18432,56.0,0,390,7.0,64.0
18433,41.0,0,390,8.0,64.0
18434,75.0,0,120,11.0,64.0
18435,75.0,0,120,2.0,64.0
18436,63.0,0,120,12.0,64.0
18437,87.0,120,120,0.0,64.0
18438,75.0,0,120,0.0,64.0
18439,74.0,0,120,11.0,64.0
18440,62.0,0,120,12.0,64.0
18441,74.0,40,120,0.0,64.0
18442,74.0,0,120,2.0,64.0
18443,86.0,0,120,0.0,64.0
18444,77.0,0,120,0.0,64.0
18445,65.0,0,120,12.0,64.0
18446,89.0,0,120,0.0,64.0
18447,77.0,0,120,2.0,64.0
18448,77.0,5,120,11.0,64.0
18449,87.0,0,120,0.0,64.0
18450,75.0,0,120,2.0,64.0
18451,63.0,0,120,12.0,64.0
18452,43.0,0,390,8.0,64.0
18453,75.0,0,120,11.0,64.0
18454,67.0,0,720,3.0,64.0
18455,67.0,0,390,5.0,64.0
18456,79.0,5,720,3.0,64.0
18457,43.0,75,390,15.0,64.0
18458,67.0,0,390,6.0,64.0
18459,79.0,0,390,6.0,64.0
18460,60.0,0,390,7.0,64.0
18461,55.0,0,390,7.0,64.0
18462,55.0,0,390,4.0,64.0
18463,55.0,0,390,14.0,64.0
18464,75.0,120,120,0.0,64.0
18465,79.0,0,120,0.0,64.0
18466,79.0,120,120,11.0,64.0
18467,79.0,0,120,2.0,64.0
18468,91.0,0,120,0.0,64.0
18469,67.0,0,120,12.0,64.0
18470,77.0,0,120,2.0,64.0
18471,77.0,0,120,0.0,64.0
18472,65.0,0,120,12.0,64.0
18473,89.0,0,120,0.0,64.0
18474,77.0,0,120,11.0,64.0
18475,80.0,0,120,2.0,64.0
18476,80.0,0,120,0.0,64.0
18477,68.0,35,120,12.0,64.0
18478,80.0,0,120,11.0,64.0
18479,92.0,0,120,0.0,64.0
18480,67.0,0,390,6.0,64.0
18481,74.0,0,30,0.0,64.0
18482,67.0,0,390,5.0,64.0
18483,59.0,20,390,5.0,64.0
18484,86.0,0,30,0.0,64.0
18485,43.0,0,390,7.0,64.0
18486,43.0,0,390,15.0,64.0
18487,79.0,0,390,6.0,64.0
18488,43.0,0,390,14.0,64.0
18489,55.0,0,390,7.0,64.0
18490,59.0,0,390,7.0,64.0
18491,43.0,0,390,8.0,64.0
18492,74.0,0,30,11.0,64.0
18493,74.0,0,30,2.0,64.0
18494,59.0,0,390,13.0,64.0
18495,43.0,0,390,4.0,64.0
18496,62.0,0,30,12.0,64.0
18497,87.0,0,30,0.0,64.0
18498,75.0,30,30,11.0,64.0
18499,75.0,0,30,0.0,64.0
18500,63.0,0,30,12.0,64.0
18501,75.0,0,30,2.0,64.0
18502,62.0,30,30,12.0,64.0
18503,86.0,0,30,0.0,64.0
18504,74.0,0,30,2.0,64.0
18505,74.0,0,30,11.0,64.0
18506,74.0,0,30,0.0,64.0
18507,75.0,0,30,0.0,64.0
18508,87.0,0,30,0.0,64.0
18509,75.0,0,30,11.0,64.0
18510,75.0,0,30,2.0,64.0
18511,63.0,0,30,12.0,64.0
18512,62.0,0,30,12.0,64.0
18513,86.0,0,30,0.0,64.0
18514,74.0,0,30,2.0,64.0
18515,74.0,0,30,11.0,64.0
18516,74.0,0,30,0.0,64.0
18517,75.0,0,30,11.0,64.0
18518,75.0,0,30,0.0,64.0
18519,63.0,0,30,12.0,64.0
18520,87.0,30,30,0.0,64.0
18521,75.0,0,30,2.0,64.0
18522,62.0,0,30,12.0,64.0
18523,74.0,0,30,0.0,64.0
18524,74.0,25,30,11.0,64.0
18525,86.0,0,30,0.0,64.0
18526,74.0,0,30,2.0,64.0
18527,75.0,0,30,0.0,64.0
18528,63.0,0,30,12.0,64.0
18529,75.0,0,30,2.0,64.0
18530,87.0,0,30,0.0,64.0
18531,75.0,0,30,11.0,64.0
18532,62.0,0,30,12.0,64.0
18533,74.0,0,30,2.0,64.0
18534,65.0,0,240,3.0,64.0
18535,77.0,5,240,3.0,64.0
18536,74.0,0,30,11.0,64.0
18537,74.0,0,30,0.0,64.0
18538,86.0,0,30,0.0,64.0
18539,87.0,30,30,0.0,64.0
18540,63.0,0,30,12.0,64.0
18541,75.0,0,30,0.0,64.0
18542,75.0,0,30,11.0,64.0
18543,75.0,0,30,2.0,64.0
18544,62.0,30,30,12.0,64.0
18545,86.0,0,30,0.0,64.0
18546,74.0,0,30,0.0,64.0
18547,74.0,0,30,2.0,64.0
18548,74.0,0,30,11.0,64.0
18549,75.0,0,30,2.0,64.0
18550,63.0,0,30,12.0,64.0
18551,75.0,0,30,11.0,64.0
18552,87.0,0,30,0.0,64.0
18553,75.0,0,30,0.0,64.0
18554,74.0,0,30,2.0,64.0
18555,74.0,0,30,0.0,64.0
18556,74.0,0,30,11.0,64.0
18557,62.0,0,30,12.0,64.0
18558,86.0,0,30,0.0,64.0
18559,75.0,0,30,11.0,64.0
18560,75.0,0,30,0.0,64.0
18561,63.0,0,30,12.0,64.0
18562,87.0,0,30,0.0,64.0
18563,75.0,0,30,2.0,64.0
18564,62.0,0,30,12.0,64.0
18565,86.0,0,30,0.0,64.0
18566,74.0,0,30,0.0,64.0
18567,74.0,25,30,11.0,64.0
18568,74.0,0,30,2.0,64.0
18569,75.0,0,30,2.0,64.0
18570,87.0,0,30,0.0,64.0
18571,63.0,0,30,12.0,64.0
18572,75.0,0,30,11.0,64.0
18573,75.0,0,30,0.0,64.0
18574,72.0,0,390,11.0,64.0
18575,76.0,0,120,3.0,64.0
18576,72.0,0,390,0.0,64.0
18577,64.0,120,120,3.0,64.0
18578,60.0,0,390,12.0,64.0
18579,36.0,0,480,14.0,64.0
18580,55.0,0,240,7.0,64.0
18581,84.0,0,390,0.0,64.0
18582,60.0,0,240,7.0,64.0
18583,72.0,0,390,2.0,64.0
18584,60.0,0,240,5.0,64.0
18585,36.0,0,480,8.0,64.0
18586,60.0,0,240,13.0,64.0
18587,36.0,0,480,4.0,64.0
18588,36.0,0,480,15.0,64.0
18589,72.0,0,480,6.0,64.0
18590,48.0,0,480,7.0,64.0
18591,60.0,0,480,6.0,64.0
18592,79.0,120,120,3.0,64.0
18593,67.0,0,120,3.0,64.0
18594,62.0,0,240,7.0,64.0
18595,62.0,0,240,13.0,64.0
18596,62.0,0,240,5.0,64.0
18597,65.0,0,120,3.0,64.0
18598,77.0,40,120,3.0,64.0
18599,80.0,0,120,3.0,64.0
18600,68.0,0,120,3.0,64.0
18601,67.0,0,240,3.0,64.0
18602,64.0,0,240,7.0,64.0
18603,55.0,0,15,7.0,64.0
18604,67.0,0,240,6.0,64.0
18605,64.0,0,240,13.0,64.0
18606,79.0,0,240,3.0,64.0
18607,64.0,0,240,5.0,64.0
18608,48.0,0,240,7.0,64.0
18609,55.0,0,240,5.0,64.0
18610,84.0,0,120,12.0,64.0
18611,36.0,0,120,8.0,64.0
18612,96.0,0,120,0.0,64.0
18613,48.0,0,120,14.0,64.0
18614,48.0,0,120,4.0,64.0
18615,96.0,0,120,11.0,64.0
18616,36.0,0,120,15.0,64.0
18617,72.0,0,120,2.0,64.0
18618,84.0,120,120,0.0,64.0
18619,84.0,0,120,2.0,64.0
18620,40.0,0,120,15.0,64.0
18621,52.0,0,240,7.0,64.0
18622,70.0,0,120,2.0,64.0
18623,67.0,0,240,7.0,64.0
18624,94.0,120,120,0.0,64.0
18625,82.0,0,120,2.0,64.0
18626,60.0,0,240,7.0,64.0
18627,40.0,0,120,8.0,64.0
18628,82.0,0,120,12.0,64.0
18629,52.0,0,120,14.0,64.0
18630,67.0,120,240,5.0,64.0
18631,52.0,0,120,4.0,64.0
18632,72.0,0,240,6.0,64.0
18633,60.0,0,240,6.0,64.0
18634,94.0,0,120,11.0,64.0
18635,60.0,0,240,5.0,64.0
18636,67.0,0,240,13.0,64.0
18637,82.0,0,120,0.0,64.0
18638,36.0,0,120,8.0,64.0
18639,84.0,0,120,0.0,64.0
18640,48.0,0,120,4.0,64.0
18641,84.0,0,120,12.0,64.0
18642,84.0,0,120,2.0,64.0
18643,72.0,0,120,2.0,64.0
18644,36.0,0,120,15.0,64.0
18645,96.0,0,120,0.0,64.0
18646,96.0,0,120,11.0,64.0
18647,48.0,0,120,14.0,64.0
18648,84.0,0,15,3.0,64.0
18649,41.0,0,120,8.0,64.0
18650,72.0,0,15,3.0,64.0
18651,80.0,0,120,0.0,64.0
18652,65.0,0,240,13.0,64.0
18653,41.0,0,120,15.0,64.0
18654,68.0,0,120,2.0,64.0
18655,53.0,120,120,14.0,64.0
18656,53.0,0,120,4.0,64.0
18657,80.0,0,120,12.0,64.0
18658,92.0,0,120,0.0,64.0
18659,53.0,0,240,7.0,64.0
18660,65.0,0,240,5.0,64.0
18661,92.0,0,120,11.0,64.0
18662,80.0,0,120,2.0,64.0
18663,96.0,0,120,0.0,64.0
18664,96.0,0,120,11.0,64.0
18665,84.0,0,120,12.0,64.0
18666,84.0,0,120,0.0,64.0
18667,84.0,0,120,2.0,64.0
18668,36.0,0,120,8.0,64.0
18669,48.0,0,120,4.0,64.0
18670,48.0,0,120,14.0,64.0
18671,36.0,0,120,15.0,64.0
18672,72.0,0,120,2.0,64.0
18673,60.0,0,15,5.0,64.0
18674,44.0,0,120,8.0,64.0
18675,77.0,0,120,12.0,64.0
18676,77.0,115,120,2.0,64.0
18677,44.0,0,120,15.0,64.0
18678,77.0,0,120,0.0,64.0
18679,56.0,0,120,14.0,64.0
18680,65.0,0,120,2.0,64.0
18681,89.0,0,120,11.0,64.0
18682,53.0,0,240,7.0,64.0
18683,60.0,0,15,6.0,64.0
18684,72.0,0,240,3.0,64.0
18685,89.0,0,120,0.0,64.0
18686,65.0,0,240,13.0,64.0
18687,65.0,120,15,7.0,64.0
18688,60.0,0,15,7.0,64.0
18689,72.0,0,15,6.0,64.0
18690,84.0,0,240,3.0,64.0
18691,56.0,0,120,4.0,64.0
18692,65.0,5,240,5.0,64.0
18693,80.0,115,120,12.0,64.0
18694,80.0,0,120,0.0,64.0
18695,53.0,0,120,4.0,64.0
18696,41.0,0,120,8.0,64.0
18697,92.0,0,120,0.0,64.0
18698,92.0,0,120,11.0,64.0
18699,41.0,0,120,15.0,64.0
18700,80.0,0,120,2.0,64.0
18701,68.0,0,120,2.0,64.0
18702,53.0,0,120,14.0,64.0
18703,76.0,0,480,0.0,64.0
18704,48.0,0,480,8.0,64.0
18705,88.0,235,480,11.0,64.0
18706,48.0,0,480,15.0,64.0
18707,67.0,0,480,13.0,64.0
18708,67.0,0,480,7.0,64.0
18709,64.0,0,480,7.0,64.0
18710,60.0,0,120,5.0,64.0
18711,60.0,0,480,14.0,64.0
18712,64.0,120,120,5.0,64.0
18713,72.0,0,240,6.0,64.0
18714,76.0,0,480,2.0,64.0
18715,60.0,0,480,4.0,64.0
18716,60.0,115,240,6.0,64.0
18717,64.0,0,480,2.0,64.0
18718,88.0,0,480,0.0,64.0
18719,76.0,0,480,12.0,64.0
18720,60.0,0,120,5.0,64.0
18721,72.0,0,120,5.0,64.0
18722,72.0,0,120,3.0,64.0
18723,84.0,5,120,3.0,64.0
18724,58.0,120,120,5.0,64.0
18725,58.0,0,240,6.0,64.0
18726,70.0,0,120,5.0,64.0
18727,82.0,0,120,3.0,64.0
18728,70.0,0,240,6.0,64.0
18729,70.0,0,120,3.0,64.0
18730,84.0,0,120,3.0,64.0
18731,72.0,5,120,5.0,64.0
18732,72.0,0,120,3.0,64.0
18733,60.0,0,120,5.0,64.0
18734,60.0,0,15,7.0,64.0
18735,79.0,0,240,3.0,64.0
18736,67.0,0,240,6.0,64.0
18737,55.0,5,240,5.0,64.0
18738,67.0,0,240,5.0,64.0
18739,67.0,0,240,3.0,64.0
18740,60.0,0,120,4.0,64.0
18741,48.0,0,120,15.0,64.0
18742,48.0,0,120,8.0,64.0
18743,60.0,115,120,14.0,64.0
18744,46.0,0,120,15.0,64.0
18745,48.0,0,240,7.0,64.0
18746,64.0,0,240,2.0,64.0
18747,58.0,5,120,4.0,64.0
18748,60.0,0,240,13.0,64.0
18749,46.0,0,120,8.0,64.0
18750,88.0,0,240,11.0,64.0
18751,64.0,0,240,6.0,64.0
18752,76.0,0,240,6.0,64.0
18753,76.0,0,240,0.0,64.0
18754,88.0,0,240,0.0,64.0
18755,52.0,0,240,7.0,64.0
18756,79.0,0,240,3.0,64.0
18757,76.0,0,240,2.0,64.0
18758,67.0,0,240,3.0,64.0
18759,64.0,0,240,5.0,64.0
18760,58.0,115,120,14.0,64.0
18761,76.0,0,240,12.0,64.0
18762,60.0,5,120,4.0,64.0
18763,48.0,0,120,15.0,64.0
18764,48.0,0,120,8.0,64.0
18765,60.0,0,120,14.0,64.0
18766,44.0,0,120,8.0,64.0
18767,77.0,0,240,0.0,64.0
18768,44.0,120,120,15.0,64.0
18769,60.0,0,240,13.0,64.0
18770,60.0,0,15,5.0,64.0
18771,89.0,0,240,0.0,64.0
18772,77.0,0,240,12.0,64.0
18773,56.0,5,120,4.0,64.0
18774,56.0,120,240,7.0,64.0
18775,77.0,0,240,6.0,64.0
18776,65.0,0,240,5.0,64.0
18777,56.0,0,120,14.0,64.0
18778,80.0,0,240,3.0,64.0
18779,60.0,115,15,7.0,64.0
18780,77.0,0,240,2.0,64.0
18781,53.0,0,240,7.0,64.0
18782,60.0,0,120,4.0,64.0
18783,48.0,0,120,15.0,64.0
18784,60.0,0,120,14.0,64.0
18785,48.0,0,120,8.0,64.0
18786,53.0,120,120,14.0,64.0
18787,68.0,0,15,3.0,64.0
18788,65.0,0,15,2.0,64.0
18789,77.0,0,240,6.0,64.0
18790,65.0,0,15,6.0,64.0
18791,60.0,0,240,7.0,64.0
18792,77.0,0,240,12.0,64.0
18793,65.0,0,240,5.0,64.0
18794,77.0,0,240,0.0,64.0
18795,60.0,0,15,5.0,64.0
18796,77.0,0,240,2.0,64.0
18797,41.0,0,120,8.0,64.0
18798,89.0,0,15,11.0,64.0
18799,41.0,0,120,15.0,64.0
18800,80.0,0,240,3.0,64.0
18801,60.0,0,240,13.0,64.0
18802,53.0,0,240,7.0,64.0
18803,89.0,0,240,0.0,64.0
18804,53.0,0,120,4.0,64.0
18805,56.0,0,120,4.0,64.0
18806,44.0,0,120,8.0,64.0
18807,44.0,0,120,15.0,64.0
18808,56.0,0,120,14.0,64.0
18809,52.0,0,480,14.0,64.0
18810,67.0,0,480,2.0,64.0
18811,67.0,0,480,6.0,64.0
18812,40.0,0,480,15.0,64.0
18813,82.0,115,120,3.0,64.0
18814,52.0,0,480,4.0,64.0
18815,79.0,0,480,6.0,64.0
18816,67.0,5,120,5.0,64.0
18817,70.0,0,120,3.0,64.0
18818,79.0,0,480,0.0,64.0
18819,91.0,235,480,0.0,64.0
18820,40.0,0,480,8.0,64.0
18821,60.0,0,480,7.0,64.0
18822,79.0,0,480,2.0,64.0
18823,55.0,0,480,7.0,64.0
18824,79.0,0,480,12.0,64.0
18825,60.0,0,480,13.0,64.0
18826,91.0,0,480,11.0,64.0
18827,52.0,0,480,7.0,64.0
18828,60.0,0,120,5.0,64.0
18829,72.0,0,120,5.0,64.0
18830,60.0,0,120,5.0,64.0
18831,72.0,120,120,3.0,64.0
18832,84.0,0,120,3.0,64.0
18833,70.0,0,120,3.0,64.0
18834,82.0,0,120,3.0,64.0
18835,70.0,120,120,5.0,64.0
18836,58.0,0,120,5.0,64.0
18837,60.0,0,120,5.0,64.0
18838,72.0,0,120,5.0,64.0
18839,84.0,0,120,3.0,64.0
18840,72.0,5,120,3.0,64.0
18841,55.0,0,240,5.0,64.0
18842,67.0,0,240,5.0,64.0
18843,79.0,0,240,3.0,64.0
18844,67.0,0,240,3.0,64.0
18845,48.0,0,120,15.0,64.0
18846,60.0,0,120,4.0,64.0
18847,48.0,120,120,8.0,64.0
18848,60.0,0,120,14.0,64.0
18849,55.0,0,240,7.0,64.0
18850,91.0,0,240,11.0,64.0
18851,58.0,120,120,14.0,64.0
18852,91.0,0,240,0.0,64.0
18853,58.0,0,120,4.0,64.0
18854,64.0,0,240,7.0,64.0
18855,64.0,0,240,5.0,64.0
18856,79.0,0,240,2.0,64.0
18857,46.0,0,120,8.0,64.0
18858,79.0,0,240,0.0,64.0
18859,79.0,0,240,12.0,64.0
18860,67.0,0,240,2.0,64.0
18861,46.0,0,120,15.0,64.0
18862,48.0,0,240,7.0,64.0
18863,79.0,0,240,6.0,64.0
18864,67.0,115,240,6.0,64.0
18865,67.0,0,240,5.0,64.0
18866,64.0,0,240,13.0,64.0
18867,60.0,0,120,4.0,64.0
18868,60.0,5,120,14.0,64.0
18869,48.0,0,120,15.0,64.0
18870,48.0,0,120,8.0,64.0
18871,44.0,125,120,8.0,64.0
18872,44.0,0,120,15.0,64.0
18873,84.0,0,15,3.0,64.0
18874,68.0,0,240,5.0,64.0
18875,56.0,0,240,7.0,64.0
18876,80.0,0,240,6.0,64.0
18877,80.0,0,240,0.0,64.0
18878,72.0,0,15,3.0,64.0
18879,92.0,0,240,0.0,64.0
18880,68.0,0,240,2.0,64.0
18881,92.0,0,240,11.0,64.0
18882,56.0,0,120,14.0,64.0
18883,65.0,0,240,5.0,64.0
18884,56.0,0,120,4.0,64.0
18885,60.0,0,120,4.0,64.0
18886,48.0,0,120,8.0,64.0
18887,60.0,0,120,14.0,64.0
18888,48.0,0,120,15.0,64.0
18889,84.0,0,240,3.0,64.0
18890,80.0,0,15,2.0,64.0
18891,92.0,0,240,0.0,64.0
18892,80.0,0,15,12.0,64.0
18893,72.0,0,240,3.0,64.0
18894,53.0,0,240,7.0,64.0
18895,65.0,0,15,13.0,64.0
18896,80.0,0,240,0.0,64.0
18897,65.0,0,240,5.0,64.0
18898,68.0,0,15,6.0,64.0
18899,41.0,0,120,15.0,64.0
18900,80.0,0,240,6.0,64.0
18901,53.0,120,120,14.0,64.0
18902,68.0,0,240,2.0,64.0
18903,56.0,120,15,7.0,64.0
18904,41.0,0,120,8.0,64.0
18905,65.0,0,15,7.0,64.0
18906,53.0,0,120,4.0,64.0
18907,92.0,0,240,11.0,64.0
18908,68.0,0,240,5.0,64.0
18909,44.0,0,120,8.0,64.0
18910,56.0,0,120,14.0,64.0
18911,44.0,0,120,15.0,64.0
18912,56.0,0,120,4.0,64.0
18913,48.0,0,480,14.0,64.0
18914,36.0,0,480,8.0,64.0
18915,91.0,115,120,11.0,64.0
18916,67.0,0,120,6.0,64.0
18917,48.0,0,480,4.0,64.0
18918,67.0,0,120,5.0,64.0
18919,36.0,0,480,15.0,64.0
18920,64.0,0,480,13.0,64.0
18921,64.0,5,120,5.0,64.0
18922,64.0,0,480,7.0,64.0
18923,55.0,0,480,7.0,64.0
18924,48.0,235,480,7.0,64.0
18925,79.0,0,120,12.0,64.0
18926,79.0,0,120,6.0,64.0
18927,94.0,120,120,11.0,64.0
18928,94.0,0,120,0.0,64.0
18929,85.0,0,120,3.0,64.0
18930,73.0,0,120,3.0,64.0
18931,70.0,0,120,5.0,64.0
18932,58.0,0,120,5.0,64.0
18933,82.0,0,120,12.0,64.0
18934,70.0,0,120,6.0,64.0
18935,82.0,0,120,6.0,64.0
18936,82.0,0,120,0.0,64.0
18937,82.0,0,120,2.0,64.0
18938,70.0,0,120,2.0,64.0
18939,72.0,120,120,3.0,64.0
18940,56.0,0,120,5.0,64.0
18941,80.0,0,120,12.0,64.0
18942,68.0,0,120,2.0,64.0
18943,68.0,0,120,5.0,64.0
18944,92.0,0,120,11.0,64.0
18945,80.0,0,120,6.0,64.0
18946,80.0,0,120,0.0,64.0
18947,68.0,0,120,6.0,64.0
18948,84.0,0,120,3.0,64.0
18949,80.0,0,120,2.0,64.0
18950,92.0,0,120,0.0,64.0
18951,70.0,0,120,2.0,64.0
18952,94.0,0,120,0.0,64.0
18953,70.0,0,120,6.0,64.0
18954,82.0,0,120,0.0,64.0
18955,70.0,0,120,5.0,64.0
18956,73.0,0,120,3.0,64.0
18957,82.0,0,120,6.0,64.0
18958,82.0,0,120,12.0,64.0
18959,85.0,0,120,3.0,64.0
18960,94.0,0,120,11.0,64.0
18961,58.0,5,120,5.0,64.0
18962,82.0,0,120,2.0,64.0
18963,91.0,120,720,11.0,64.0
18964,82.0,0,720,3.0,64.0
18965,79.0,0,720,6.0,64.0
18966,67.0,0,720,6.0,64.0
18967,67.0,0,720,2.0,64.0
18968,67.0,0,720,5.0,64.0
18969,79.0,0,720,12.0,64.0
18970,79.0,0,720,2.0,64.0
18971,79.0,0,720,0.0,64.0
18972,91.0,0,720,0.0,64.0
18973,70.0,5,720,3.0,64.0
18974,60.0,115,240,7.0,64.0
18975,64.0,0,120,5.0,64.0
18976,64.0,0,120,13.0,64.0
18977,64.0,0,120,7.0,64.0
18978,52.0,5,120,7.0,64.0
18979,36.0,0,120,8.0,64.0
18980,48.0,0,120,14.0,64.0
18981,48.0,0,120,4.0,64.0
18982,36.0,0,120,15.0,64.0
18983,46.0,5,120,14.0,64.0
18984,34.0,0,120,15.0,64.0
18985,34.0,115,120,8.0,64.0
18986,46.0,0,120,4.0,64.0
18987,62.0,0,120,5.0,64.0
18988,48.0,115,240,7.0,64.0
18989,62.0,0,120,13.0,64.0
18990,62.0,0,120,7.0,64.0
18991,50.0,0,120,7.0,64.0
18992,48.0,0,120,14.0,64.0
18993,64.0,5,120,7.0,64.0
18994,36.0,0,120,15.0,64.0
18995,64.0,0,120,13.0,64.0
18996,36.0,0,120,8.0,64.0
18997,64.0,0,120,5.0,64.0
18998,52.0,0,120,7.0,64.0
18999,48.0,0,120,4.0,64.0
19000,41.0,0,240,8.0,64.0
19001,56.0,0,240,7.0,64.0
19002,56.0,0,240,14.0,64.0
19003,60.0,0,240,5.0,64.0
19004,55.0,0,240,7.0,64.0
19005,60.0,0,240,13.0,64.0
19006,60.0,0,240,7.0,64.0
19007,41.0,0,240,15.0,64.0
19008,44.0,120,120,4.0,64.0
19009,60.0,0,120,4.0,64.0
19010,65.0,0,360,2.0,64.0
19011,53.0,0,240,7.0,64.0
19012,65.0,0,240,7.0,64.0
19013,80.0,0,360,3.0,64.0
19014,77.0,0,360,12.0,64.0
19015,60.0,0,240,7.0,64.0
19016,38.0,120,120,15.0,64.0
19017,65.0,0,240,5.0,64.0
19018,53.0,0,120,4.0,64.0
19019,65.0,0,360,6.0,64.0
19020,77.0,0,360,6.0,64.0
19021,65.0,115,240,13.0,64.0
19022,89.0,0,360,0.0,64.0
19023,77.0,0,360,0.0,64.0
19024,68.0,0,360,3.0,64.0
19025,38.0,0,120,8.0,64.0
19026,89.0,120,360,11.0,64.0
19027,77.0,0,360,2.0,64.0
19028,60.0,0,240,14.0,64.0
19029,41.0,0,120,15.0,64.0
19030,56.0,0,120,4.0,64.0
19031,41.0,0,120,8.0,64.0
19032,48.0,0,960,14.0,64.0
19033,56.0,0,390,5.0,64.0
19034,56.0,0,960,14.0,64.0
19035,36.0,0,2760,4.0,64.0
19036,56.0,0,390,7.0,64.0
19037,48.0,0,840,4.0,64.0
19038,36.0,0,2760,8.0,64.0
19039,48.0,0,960,7.0,64.0
19040,56.0,75,390,13.0,64.0
19041,36.0,0,2760,15.0,64.0
19042,89.0,0,120,0.0,64.0
19043,77.0,115,120,0.0,64.0
19044,65.0,0,120,5.0,64.0
19045,68.0,0,120,3.0,64.0
19046,65.0,0,120,2.0,64.0
19047,65.0,0,120,6.0,64.0
19048,80.0,0,120,3.0,64.0
19049,77.0,0,120,2.0,64.0
19050,77.0,5,120,12.0,64.0
19051,77.0,0,120,6.0,64.0
19052,89.0,0,120,11.0,64.0
19053,76.0,0,120,12.0,64.0
19054,76.0,40,120,2.0,64.0
19055,67.0,0,120,3.0,64.0
19056,76.0,0,120,6.0,64.0
19057,64.0,0,120,6.0,64.0
19058,88.0,0,120,0.0,64.0
19059,64.0,0,120,5.0,64.0
19060,76.0,0,120,0.0,64.0
19061,64.0,0,120,2.0,64.0
19062,79.0,0,120,3.0,64.0
19063,88.0,5,120,11.0,64.0
19064,80.0,0,120,3.0,64.0
19065,89.0,0,120,11.0,64.0
19066,65.0,0,120,5.0,64.0
19067,77.0,0,120,6.0,64.0
19068,65.0,0,120,6.0,64.0
19069,68.0,0,120,3.0,64.0
19070,89.0,0,120,0.0,64.0
19071,77.0,0,120,12.0,64.0
19072,77.0,0,120,0.0,64.0
19073,65.0,5,120,2.0,64.0
19074,77.0,120,120,2.0,64.0
19075,71.0,0,600,6.0,64.0
19076,62.0,0,600,6.0,64.0
19077,71.0,0,600,0.0,64.0
19078,62.0,0,120,3.0,64.0
19079,83.0,5,600,0.0,64.0
19080,83.0,0,600,11.0,64.0
19081,59.0,0,600,5.0,64.0
19082,71.0,0,600,2.0,64.0
19083,74.0,115,120,3.0,64.0
19084,71.0,0,600,12.0,64.0
19085,65.0,0,120,3.0,64.0
19086,77.0,0,120,3.0,64.0
19087,56.0,5,120,7.0,64.0
19088,56.0,0,120,13.0,64.0
19089,56.0,0,120,5.0,64.0
19090,55.0,0,120,5.0,64.0
19091,76.0,0,120,3.0,64.0
19092,55.0,5,120,7.0,64.0
19093,55.0,0,120,13.0,64.0
19094,64.0,0,120,3.0,64.0
19095,65.0,115,120,3.0,64.0
19096,56.0,5,480,5.0,64.0
19097,56.0,0,480,13.0,64.0
19098,77.0,0,120,3.0,64.0
19099,56.0,0,480,7.0,64.0
19100,74.0,120,120,3.0,64.0
19101,53.0,0,480,7.0,64.0
19102,53.0,0,480,4.0,64.0
19103,53.0,0,480,14.0,64.0
19104,62.0,0,120,3.0,64.0
19105,74.0,0,120,0.0,64.0
19106,62.0,0,120,5.0,64.0
19107,65.0,0,120,3.0,64.0
19108,86.0,0,120,11.0,64.0
19109,74.0,0,120,2.0,64.0
19110,74.0,115,120,12.0,64.0
19111,77.0,0,120,3.0,64.0
19112,86.0,0,120,0.0,64.0
19113,74.0,0,120,6.0,64.0
19114,65.0,0,120,6.0,64.0
19115,83.0,0,120,11.0,64.0
19116,71.0,0,120,0.0,64.0
19117,83.0,0,120,0.0,64.0
19118,74.0,0,120,3.0,64.0
19119,59.0,0,120,5.0,64.0
19120,62.0,0,120,6.0,64.0
19121,71.0,0,120,6.0,64.0
19122,62.0,0,120,3.0,64.0
19123,71.0,0,120,2.0,64.0
19124,71.0,120,120,12.0,64.0
19125,77.0,0,120,3.0,64.0
19126,86.0,1320,120,11.0,64.0
19127,65.0,0,120,3.0,64.0
19128,74.0,0,120,6.0,64.0
19129,65.0,0,120,6.0,64.0
19130,59.0,0,120,13.0,64.0
19131,74.0,0,120,12.0,64.0
19132,62.0,0,120,5.0,64.0
19133,62.0,0,120,7.0,64.0
19134,59.0,0,120,7.0,64.0
19135,74.0,0,120,0.0,64.0
19136,74.0,0,120,2.0,64.0
19137,86.0,0,120,0.0,64.0
19138,59.0,0,120,5.0,64.0
19139,64.0,0,1320,7.0,64.0
19140,60.0,0,1320,7.0,64.0
19141,64.0,0,1320,3.0,64.0
19142,55.0,0,1320,7.0,64.0
19143,48.0,0,15,14.0,64.0
19144,55.0,0,1320,14.0,64.0
19145,55.0,0,1320,4.0,64.0
19146,72.0,0,1320,6.0,64.0
19147,72.0,0,1320,12.0,64.0
19148,76.0,0,1320,2.0,64.0
19149,84.0,0,1320,0.0,64.0
19150,79.0,0,1320,0.0,64.0
19151,76.0,0,1320,3.0,64.0
19152,60.0,0,1320,5.0,64.0
19153,48.0,0,1320,13.0,64.0
19154,55.0,0,1320,13.0,64.0
19155,55.0,0,1320,5.0,64.0
19156,84.0,0,1320,11.0,64.0
19157,76.0,0,1320,11.0,64.0
19158,72.0,0,1320,2.0,64.0
19159,79.0,0,1320,12.0,64.0
19160,64.0,0,1320,6.0,64.0
