,note,step,duration,channel,velocity
0,69.0,0,60,0.0,127.0
1,72.0,60,60,0.0,127.0
2,69.0,60,60,0.0,127.0
3,76.0,60,60,0.0,127.0
4,69.0,60,60,0.0,127.0
5,72.0,60,60,0.0,127.0
6,69.0,60,60,0.0,127.0
7,77.0,60,60,0.0,127.0
8,68.0,60,60,0.0,127.0
9,71.0,60,60,0.0,127.0
10,68.0,60,60,0.0,127.0
11,76.0,60,60,0.0,127.0
12,67.0,60,60,0.0,127.0
13,71.0,60,60,0.0,127.0
14,67.0,60,60,0.0,127.0
15,76.0,60,60,0.0,127.0
16,66.0,60,60,0.0,127.0
17,69.0,60,60,0.0,127.0
18,66.0,60,60,0.0,127.0
19,74.0,60,60,0.0,127.0
20,65.0,60,60,0.0,127.0
21,69.0,60,60,0.0,127.0
22,65.0,60,60,0.0,127.0
23,74.0,60,60,0.0,127.0
24,64.0,60,60,0.0,127.0
25,68.0,60,60,0.0,127.0
26,64.0,60,60,0.0,127.0
27,72.0,60,60,0.0,127.0
28,64.0,60,60,0.0,127.0
29,67.0,60,60,0.0,127.0
30,64.0,60,60,0.0,127.0
31,72.0,60,60,0.0,127.0
32,63.0,60,60,0.0,127.0
33,66.0,60,60,0.0,127.0
34,63.0,60,60,0.0,127.0
35,71.0,60,60,0.0,127.0
36,62.0,60,60,0.0,127.0
37,65.0,60,60,0.0,127.0
38,62.0,60,60,0.0,127.0
39,71.0,60,60,0.0,127.0
40,61.0,60,60,0.0,127.0
41,64.0,60,60,0.0,127.0
42,61.0,60,60,0.0,127.0
43,69.0,60,60,0.0,127.0
44,60.0,60,60,0.0,127.0
45,64.0,60,60,0.0,127.0
46,60.0,60,60,0.0,127.0
47,69.0,60,60,0.0,127.0
48,59.0,60,60,0.0,127.0
49,62.0,60,60,0.0,127.0
50,59.0,60,60,0.0,127.0
51,68.0,60,60,0.0,127.0
52,59.0,60,60,0.0,127.0
53,62.0,60,60,0.0,127.0
54,59.0,60,60,0.0,127.0
55,67.0,60,40,0.0,127.0
56,61.0,40,40,0.0,127.0
57,62.0,40,40,0.0,127.0
58,64.0,40,40,0.0,127.0
59,65.0,40,40,0.0,127.0
60,67.0,40,40,0.0,127.0
61,65.0,40,40,0.0,127.0
62,64.0,40,40,0.0,127.0
63,62.0,40,40,0.0,127.0
64,61.0,40,40,0.0,127.0
65,59.0,40,40,0.0,127.0
66,57.0,40,40,0.0,127.0
67,62.0,40,40,0.0,127.0
68,64.0,40,40,0.0,127.0
69,65.0,40,40,0.0,127.0
70,64.0,40,40,0.0,127.0
71,62.0,40,40,0.0,127.0
72,60.0,40,40,0.0,127.0
73,59.0,40,40,0.0,127.0
74,60.0,40,40,0.0,127.0
75,62.0,40,40,0.0,127.0
76,60.0,40,40,0.0,127.0
77,59.0,40,40,0.0,127.0
78,57.0,40,40,0.0,127.0
79,56.0,40,40,0.0,127.0
80,57.0,40,40,0.0,127.0
81,59.0,40,40,0.0,127.0
82,52.0,40,40,0.0,127.0
83,56.0,40,40,0.0,127.0
84,59.0,40,40,0.0,127.0
85,62.0,40,40,0.0,127.0
86,60.0,40,40,0.0,127.0
87,59.0,40,40,0.0,127.0
88,65.0,40,40,0.0,127.0
89,64.0,40,40,0.0,127.0
90,62.0,40,40,0.0,127.0
91,60.0,40,40,0.0,127.0
92,57.0,40,40,0.0,127.0
93,59.0,40,40,0.0,127.0
94,60.0,40,40,0.0,127.0
95,62.0,40,40,0.0,127.0
96,64.0,40,40,0.0,127.0
97,65.0,40,40,0.0,127.0
98,64.0,40,40,0.0,127.0
99,62.0,40,40,0.0,127.0
100,60.0,40,40,0.0,127.0
101,59.0,40,40,0.0,127.0
102,57.0,40,40,0.0,127.0
103,56.0,40,60,0.0,127.0
104,65.0,60,60,0.0,127.0
105,59.0,60,60,0.0,127.0
106,65.0,60,60,0.0,127.0
107,55.0,60,60,0.0,127.0
108,64.0,60,60,0.0,127.0
109,59.0,60,60,0.0,127.0
110,64.0,60,60,0.0,127.0
111,54.0,60,60,0.0,127.0
112,64.0,60,60,0.0,127.0
113,57.0,60,60,0.0,127.0
114,64.0,60,60,0.0,127.0
115,53.0,60,60,0.0,127.0
116,62.0,60,60,0.0,127.0
117,57.0,60,60,0.0,127.0
118,62.0,60,60,0.0,127.0
119,52.0,60,60,0.0,127.0
120,62.0,60,60,0.0,127.0
121,56.0,60,60,0.0,127.0
122,62.0,60,60,0.0,127.0
123,52.0,60,60,0.0,127.0
124,60.0,60,60,0.0,127.0
125,55.0,60,60,0.0,127.0
126,60.0,60,60,0.0,127.0
127,51.0,60,60,0.0,127.0
128,60.0,60,60,0.0,127.0
129,54.0,60,60,0.0,127.0
130,60.0,60,60,0.0,127.0
131,50.0,60,60,0.0,127.0
132,59.0,60,60,0.0,127.0
133,53.0,60,60,0.0,127.0
134,59.0,60,60,0.0,127.0
135,49.0,60,60,0.0,127.0
136,59.0,60,60,0.0,127.0
137,52.0,60,60,0.0,127.0
138,59.0,60,60,0.0,127.0
139,48.0,60,60,0.0,127.0
140,57.0,60,60,0.0,127.0
141,52.0,60,60,0.0,127.0
142,57.0,60,60,0.0,127.0
143,47.0,60,60,0.0,127.0
144,57.0,60,60,0.0,127.0
145,50.0,60,60,0.0,127.0
146,57.0,60,60,0.0,127.0
147,47.0,60,60,0.0,127.0
148,56.0,60,60,0.0,127.0
149,50.0,60,60,0.0,127.0
150,56.0,60,60,0.0,127.0
151,45.0,60,40,0.0,127.0
152,48.0,40,40,0.0,127.0
153,52.0,40,40,0.0,127.0
154,59.0,40,40,0.0,127.0
155,56.0,40,40,0.0,127.0
156,57.0,40,40,0.0,127.0
157,47.0,40,40,0.0,127.0
158,50.0,40,40,0.0,127.0
159,52.0,40,40,0.0,127.0
160,59.0,40,40,0.0,127.0
161,56.0,40,40,0.0,127.0
162,57.0,40,40,0.0,127.0
163,48.0,0,40,0.0,127.0
164,52.0,40,40,0.0,127.0
165,57.0,40,40,0.0,127.0
166,59.0,40,40,0.0,127.0
167,56.0,40,40,0.0,127.0
168,57.0,40,40,0.0,127.0
169,50.0,40,40,0.0,127.0
170,53.0,40,40,0.0,127.0
171,57.0,40,40,0.0,127.0
172,59.0,40,40,0.0,127.0
173,56.0,40,40,0.0,127.0
174,57.0,40,40,0.0,127.0
175,52.0,40,40,0.0,127.0
176,57.0,40,40,0.0,127.0
177,60.0,40,40,0.0,127.0
178,59.0,40,40,0.0,127.0
179,56.0,40,40,0.0,127.0
180,57.0,40,40,0.0,127.0
181,53.0,40,40,0.0,127.0
182,57.0,40,40,0.0,127.0
183,62.0,40,40,0.0,127.0
184,59.0,40,40,0.0,127.0
185,56.0,40,40,0.0,127.0
186,57.0,40,40,0.0,127.0
187,57.0,40,40,0.0,127.0
188,60.0,40,40,0.0,127.0
189,64.0,40,40,0.0,127.0
190,68.0,40,40,0.0,127.0
191,52.0,40,228,0.0,127.0
192,69.0,40,40,0.0,127.0
193,57.0,40,40,0.0,127.0
194,62.0,40,40,0.0,127.0
195,65.0,40,40,0.0,127.0
196,68.0,40,40,0.0,127.0
197,53.0,40,228,0.0,127.0
198,69.0,40,40,0.0,127.0
199,57.0,40,40,0.0,127.0
200,60.0,40,40,0.0,127.0
201,64.0,40,40,0.0,127.0
202,68.0,40,40,0.0,127.0
203,52.0,40,228,0.0,127.0
204,69.0,40,40,0.0,127.0
205,56.0,40,40,0.0,127.0
206,59.0,40,40,0.0,127.0
207,65.0,40,40,0.0,127.0
208,64.0,40,40,0.0,127.0
209,50.0,40,228,0.0,127.0
210,62.0,40,40,0.0,127.0
211,52.0,40,40,0.0,127.0
212,57.0,40,40,0.0,127.0
213,60.0,40,40,0.0,127.0
214,64.0,40,40,0.0,127.0
215,56.0,40,40,0.0,127.0
216,57.0,40,40,0.0,127.0
217,53.0,40,40,0.0,127.0
218,57.0,40,40,0.0,127.0
219,62.0,40,40,0.0,127.0
220,64.0,40,40,0.0,127.0
221,56.0,40,40,0.0,127.0
222,57.0,40,40,0.0,127.0
223,52.0,40,40,0.0,127.0
224,57.0,40,40,0.0,127.0
225,60.0,40,40,0.0,127.0
226,64.0,40,40,0.0,127.0
227,56.0,40,40,0.0,127.0
228,57.0,40,40,0.0,127.0
229,50.0,40,40,0.0,127.0
230,56.0,40,40,0.0,127.0
231,59.0,40,40,0.0,127.0
232,64.0,40,40,0.0,127.0
233,56.0,40,40,0.0,127.0
234,57.0,40,40,0.0,127.0
235,52.0,40,40,0.0,127.0
236,57.0,40,40,0.0,127.0
237,60.0,40,40,0.0,127.0
238,62.0,40,40,0.0,127.0
239,48.0,40,228,0.0,127.0
240,64.0,40,40,0.0,127.0
241,53.0,40,40,0.0,127.0
242,57.0,40,40,0.0,127.0
243,62.0,40,40,0.0,127.0
244,64.0,40,40,0.0,127.0
245,50.0,40,228,0.0,127.0
246,65.0,40,40,0.0,127.0
247,52.0,40,40,0.0,127.0
248,57.0,40,40,0.0,127.0
249,60.0,40,40,0.0,127.0
250,62.0,40,40,0.0,127.0
251,48.0,40,228,0.0,127.0
252,64.0,40,40,0.0,127.0
253,50.0,40,40,0.0,127.0
254,56.0,40,40,0.0,127.0
255,59.0,40,40,0.0,127.0
256,60.0,40,40,0.0,127.0
257,47.0,40,232,0.0,127.0
258,62.0,40,40,0.0,127.0
259,45.0,40,40,0.0,127.0
260,52.0,40,40,0.0,127.0
261,57.0,40,40,0.0,127.0
262,60.0,40,40,0.0,127.0
263,56.0,40,40,0.0,127.0
264,57.0,40,40,0.0,127.0
265,47.0,40,40,0.0,127.0
266,52.0,40,40,0.0,127.0
267,57.0,40,40,0.0,127.0
268,62.0,40,40,0.0,127.0
269,56.0,40,40,0.0,127.0
270,57.0,40,40,0.0,127.0
271,48.0,40,40,0.0,127.0
272,52.0,40,40,0.0,127.0
273,57.0,40,40,0.0,127.0
274,64.0,40,40,0.0,127.0
275,56.0,40,40,0.0,127.0
276,57.0,40,40,0.0,127.0
277,49.0,40,40,0.0,127.0
278,52.0,40,40,0.0,127.0
279,55.0,40,40,0.0,127.0
280,64.0,40,40,0.0,127.0
281,56.0,40,40,0.0,127.0
282,57.0,40,40,0.0,127.0
283,53.0,40,40,0.0,127.0
284,57.0,40,40,0.0,127.0
285,62.0,40,40,0.0,127.0
286,64.0,40,40,0.0,127.0
287,50.0,40,228,0.0,127.0
288,65.0,40,40,0.0,127.0
289,52.0,40,40,0.0,127.0
290,57.0,40,40,0.0,127.0
291,64.0,40,40,0.0,127.0
292,65.0,40,40,0.0,127.0
293,49.0,40,228,0.0,127.0
294,67.0,40,40,0.0,127.0
295,53.0,40,40,0.0,127.0
296,57.0,40,40,0.0,127.0
297,62.0,40,40,0.0,127.0
298,64.0,40,40,0.0,127.0
299,50.0,40,224,0.0,127.0
300,65.0,40,40,0.0,127.0
301,55.0,40,40,0.0,127.0
302,57.0,40,40,0.0,127.0
303,61.0,40,40,0.0,127.0
304,62.0,40,40,0.0,127.0
305,52.0,40,228,0.0,127.0
306,64.0,40,40,0.0,127.0
307,53.0,40,40,0.0,127.0
308,57.0,40,40,0.0,127.0
309,62.0,40,40,0.0,127.0
310,64.0,40,40,0.0,127.0
311,61.0,40,40,0.0,127.0
312,62.0,40,40,0.0,127.0
313,55.0,40,40,0.0,127.0
314,58.0,40,40,0.0,127.0
315,62.0,40,40,0.0,127.0
316,64.0,40,40,0.0,127.0
317,61.0,40,40,0.0,127.0
318,62.0,40,40,0.0,127.0
319,57.0,40,40,0.0,127.0
320,62.0,40,40,0.0,127.0
321,65.0,40,40,0.0,127.0
322,64.0,40,40,0.0,127.0
323,61.0,40,40,0.0,127.0
324,62.0,40,40,0.0,127.0
325,58.0,40,40,0.0,127.0
326,62.0,40,40,0.0,127.0
327,67.0,40,40,0.0,127.0
328,64.0,40,40,0.0,127.0
329,61.0,40,40,0.0,127.0
330,62.0,40,40,0.0,127.0
331,62.0,40,40,0.0,127.0
332,65.0,40,40,0.0,127.0
333,69.0,40,40,0.0,127.0
334,73.0,40,40,0.0,127.0
335,57.0,40,228,0.0,127.0
336,74.0,40,40,0.0,127.0
337,62.0,40,40,0.0,127.0
338,67.0,40,40,0.0,127.0
339,70.0,40,40,0.0,127.0
340,73.0,40,40,0.0,127.0
341,58.0,40,228,0.0,127.0
342,74.0,40,40,0.0,127.0
343,62.0,40,40,0.0,127.0
344,65.0,40,40,0.0,127.0
345,69.0,40,40,0.0,127.0
346,73.0,40,40,0.0,127.0
347,57.0,40,228,0.0,127.0
348,74.0,40,40,0.0,127.0
349,61.0,40,40,0.0,127.0
350,64.0,40,40,0.0,127.0
351,70.0,40,40,0.0,127.0
352,69.0,40,40,0.0,127.0
353,55.0,40,228,0.0,127.0
354,67.0,40,40,0.0,127.0
355,57.0,40,40,0.0,127.0
356,62.0,40,40,0.0,127.0
357,65.0,40,40,0.0,127.0
358,69.0,40,40,0.0,127.0
359,61.0,40,40,0.0,127.0
360,62.0,40,40,0.0,127.0
361,58.0,40,40,0.0,127.0
362,61.0,40,40,0.0,127.0
363,62.0,40,40,0.0,127.0
364,67.0,40,40,0.0,127.0
365,61.0,40,40,0.0,127.0
366,62.0,40,40,0.0,127.0
367,57.0,40,40,0.0,127.0
368,62.0,40,40,0.0,127.0
369,65.0,40,40,0.0,127.0
370,69.0,40,40,0.0,127.0
371,61.0,40,40,0.0,127.0
372,62.0,40,40,0.0,127.0
373,55.0,40,40,0.0,127.0
374,61.0,40,40,0.0,127.0
375,64.0,40,40,0.0,127.0
376,69.0,40,40,0.0,127.0
377,61.0,40,40,0.0,127.0
378,62.0,40,40,0.0,127.0
379,57.0,40,40,0.0,127.0
380,62.0,40,40,0.0,127.0
381,65.0,40,40,0.0,127.0
382,67.0,40,40,0.0,127.0
383,53.0,40,228,0.0,127.0
384,69.0,40,40,0.0,127.0
385,61.0,40,40,0.0,127.0
386,64.0,40,40,0.0,127.0
387,67.0,40,40,0.0,127.0
388,69.0,40,40,0.0,127.0
389,55.0,40,228,0.0,127.0
390,70.0,40,40,0.0,127.0
391,57.0,40,40,0.0,127.0
392,62.0,40,40,0.0,127.0
393,65.0,40,40,0.0,127.0
394,67.0,40,40,0.0,127.0
395,53.0,40,224,0.0,127.0
396,69.0,40,40,0.0,127.0
397,55.0,40,40,0.0,127.0
398,61.0,40,40,0.0,127.0
399,64.0,40,40,0.0,127.0
400,65.0,40,40,0.0,127.0
401,52.0,40,228,0.0,127.0
402,67.0,40,40,0.0,127.0
403,50.0,40,40,0.0,127.0
404,57.0,40,40,0.0,127.0
405,62.0,40,40,0.0,127.0
406,65.0,40,40,0.0,127.0
407,61.0,40,40,0.0,127.0
408,62.0,40,40,0.0,127.0
409,52.0,40,40,0.0,127.0
410,55.0,40,40,0.0,127.0
411,58.0,40,40,0.0,127.0
412,67.0,40,40,0.0,127.0
413,61.0,40,40,0.0,127.0
414,62.0,40,40,0.0,127.0
415,54.0,40,40,0.0,127.0
416,57.0,40,40,0.0,127.0
417,61.0,40,40,0.0,127.0
418,69.0,40,40,0.0,127.0
419,61.0,40,40,0.0,127.0
420,62.0,40,40,0.0,127.0
421,56.0,40,40,0.0,127.0
422,59.0,40,40,0.0,127.0
423,62.0,40,40,0.0,127.0
424,71.0,40,40,0.0,127.0
425,61.0,40,40,0.0,127.0
426,62.0,40,40,0.0,127.0
427,60.0,40,40,0.0,127.0
428,64.0,40,40,0.0,127.0
429,69.0,40,40,0.0,127.0
430,71.0,40,40,0.0,127.0
431,57.0,40,228,0.0,127.0
432,72.0,40,40,0.0,127.0
433,59.0,40,40,0.0,127.0
434,64.0,40,40,0.0,127.0
435,71.0,40,40,0.0,127.0
436,72.0,40,40,0.0,127.0
437,56.0,40,228,0.0,127.0
438,74.0,40,40,0.0,127.0
439,60.0,40,40,0.0,127.0
440,64.0,40,40,0.0,127.0
441,69.0,40,40,0.0,127.0
442,71.0,40,40,0.0,127.0
443,57.0,40,228,0.0,127.0
444,72.0,40,40,0.0,127.0
445,62.0,40,40,0.0,127.0
446,65.0,40,40,0.0,127.0
447,68.0,40,40,0.0,127.0
448,69.0,40,40,0.0,127.0
449,59.0,40,228,0.0,127.0
450,71.0,40,40,0.0,127.0
451,60.0,40,30,0.0,127.0
452,64.0,30,30,0.0,127.0
453,66.0,30,30,0.0,127.0
454,68.0,30,30,0.0,127.0
455,69.0,30,30,0.0,127.0
456,71.0,30,30,0.0,127.0
457,72.0,30,30,0.0,127.0
458,74.0,30,30,0.0,127.0
459,76.0,30,30,0.0,127.0
460,77.0,30,30,0.0,127.0
461,76.0,30,30,0.0,127.0
462,74.0,30,30,0.0,127.0
463,72.0,30,30,0.0,127.0
464,71.0,30,30,0.0,127.0
465,69.0,30,30,0.0,127.0
466,68.0,30,30,0.0,127.0
467,69.0,30,30,0.0,127.0
468,71.0,30,30,0.0,127.0
469,72.0,30,30,0.0,127.0
470,74.0,30,30,0.0,127.0
471,76.0,30,30,0.0,127.0
472,78.0,30,30,0.0,127.0
473,80.0,30,30,0.0,127.0
474,81.0,30,30,0.0,127.0
475,83.0,30,30,0.0,127.0
476,77.0,30,30,0.0,127.0
477,76.0,30,30,0.0,127.0
478,74.0,30,30,0.0,127.0
479,68.0,30,30,0.0,127.0
480,71.0,30,30,0.0,127.0
481,72.0,30,30,0.0,127.0
482,74.0,30,30,0.0,127.0
483,64.0,30,30,0.0,127.0
484,62.0,30,30,0.0,127.0
485,64.0,30,30,0.0,127.0
486,66.0,30,30,0.0,127.0
487,68.0,30,30,0.0,127.0
488,69.0,30,30,0.0,127.0
489,71.0,30,30,0.0,127.0
490,72.0,30,30,0.0,127.0
491,74.0,30,30,0.0,127.0
492,71.0,30,30,0.0,127.0
493,69.0,30,30,0.0,127.0
494,68.0,30,30,0.0,127.0
495,59.0,30,30,0.0,127.0
496,62.0,30,30,0.0,127.0
497,64.0,30,30,0.0,127.0
498,65.0,30,30,0.0,127.0
499,65.0,0,30,0.0,127.0
500,71.0,0,30,0.0,127.0
501,74.0,30,30,0.0,127.0
502,56.0,30,30,0.0,127.0
503,76.0,0,30,0.0,127.0
504,71.0,0,30,0.0,127.0
505,74.0,0,30,0.0,127.0
506,65.0,30,30,0.0,127.0
507,76.0,0,30,0.0,127.0
508,56.0,30,30,0.0,127.0
509,71.0,30,30,0.0,127.0
510,65.0,0,30,0.0,127.0
511,74.0,0,30,0.0,127.0
512,56.0,0,30,0.0,127.0
513,76.0,30,30,0.0,127.0
514,74.0,30,30,0.0,127.0
515,71.0,0,30,0.0,127.0
516,65.0,0,30,0.0,127.0
517,76.0,0,30,0.0,127.0
518,56.0,30,30,0.0,127.0
519,74.0,0,30,0.0,127.0
520,65.0,0,30,0.0,127.0
521,71.0,30,30,0.0,127.0
522,76.0,30,30,0.0,127.0
523,56.0,0,30,0.0,127.0
524,71.0,0,30,0.0,127.0
525,65.0,0,30,0.0,127.0
526,74.0,30,30,0.0,127.0
527,56.0,0,30,0.0,127.0
528,76.0,30,30,0.0,127.0
529,74.0,0,30,0.0,127.0
530,65.0,0,30,0.0,127.0
531,71.0,30,30,0.0,127.0
532,56.0,30,30,0.0,127.0
533,76.0,0,30,0.0,127.0
534,74.0,0,30,0.0,115.0
535,71.0,0,30,0.0,115.0
536,65.0,30,30,0.0,115.0
537,76.0,30,30,0.0,115.0
538,56.0,0,30,0.0,115.0
539,33.0,60,0,2.0,127.0
540,36.0,60,60,2.0,127.0
541,33.0,60,60,2.0,127.0
542,40.0,60,60,2.0,127.0
543,36.0,60,60,2.0,127.0
544,40.0,60,60,2.0,127.0
545,36.0,60,60,2.0,127.0
546,45.0,60,60,2.0,127.0
547,40.0,60,60,2.0,127.0
548,45.0,60,60,2.0,127.0
549,40.0,60,60,2.0,127.0
550,48.0,60,60,2.0,127.0
551,39.0,60,60,2.0,127.0
552,72.0,0,900,0.0,127.0
553,40.0,60,120,2.0,127.0
554,57.0,30,960,1.0,127.0
555,74.0,60,60,0.0,127.0
556,69.0,0,960,0.0,127.0
557,64.0,0,960,0.0,127.0
558,69.0,0,60,0.0,127.0
559,69.0,60,60,0.0,127.0
560,68.0,60,60,0.0,127.0
561,71.0,0,240,0.0,127.0
562,66.0,60,60,0.0,127.0
563,71.0,60,60,0.0,127.0
564,68.0,0,60,0.0,127.0
565,75.0,0,60,0.0,127.0
566,66.0,60,60,0.0,127.0
567,59.0,0,384,1.0,80.0
568,68.0,0,60,0.0,127.0
569,63.0,60,60,0.0,127.0
570,40.0,60,480,2.0,127.0
571,76.0,60,120,0.0,127.0
572,40.0,60,60,2.0,127.0
573,64.0,60,120,0.0,127.0
574,44.0,60,60,2.0,127.0
575,40.0,60,60,2.0,127.0
576,47.0,60,60,2.0,127.0
577,40.0,60,60,2.0,127.0
578,44.0,60,60,2.0,127.0
579,40.0,60,60,2.0,127.0
580,48.0,60,60,2.0,127.0
581,39.0,60,60,2.0,127.0
582,42.0,60,60,2.0,127.0
583,39.0,60,60,2.0,127.0
584,47.0,60,60,2.0,127.0
585,38.0,60,60,2.0,127.0
586,41.0,60,60,2.0,127.0
587,38.0,60,60,2.0,127.0
588,47.0,60,60,2.0,127.0
589,37.0,60,60,2.0,127.0
590,40.0,60,60,2.0,127.0
591,37.0,60,60,2.0,127.0
592,45.0,60,60,2.0,127.0
593,36.0,60,60,2.0,127.0
594,40.0,60,60,2.0,127.0
595,36.0,60,60,2.0,127.0
596,45.0,60,60,2.0,127.0
597,35.0,60,60,2.0,127.0
598,39.0,60,60,2.0,127.0
599,35.0,60,60,2.0,127.0
600,44.0,60,60,2.0,127.0
601,35.0,60,60,2.0,127.0
602,38.0,60,60,2.0,127.0
603,35.0,60,60,2.0,127.0
604,43.0,60,60,2.0,127.0
605,37.0,60,60,2.0,127.0
606,40.0,60,60,2.0,127.0
607,33.0,60,60,2.0,127.0
608,41.0,60,60,2.0,127.0
609,37.0,60,60,2.0,127.0
610,38.0,60,60,2.0,127.0
611,32.0,60,60,2.0,127.0
612,37.0,60,60,2.0,127.0
613,33.0,60,60,2.0,127.0
614,40.0,60,60,2.0,127.0
615,37.0,60,60,2.0,127.0
616,43.0,60,60,2.0,127.0
617,40.0,60,60,2.0,127.0
618,46.0,60,60,2.0,127.0
619,43.0,60,60,2.0,127.0
620,49.0,60,60,2.0,127.0
621,43.0,60,60,2.0,127.0
622,45.0,60,60,2.0,127.0
623,40.0,60,60,2.0,127.0
624,76.0,60,60,0.0,127.0
625,77.0,60,60,0.0,127.0
626,73.0,60,60,0.0,127.0
627,69.0,60,60,0.0,127.0
628,70.0,60,60,0.0,127.0
629,67.0,60,60,0.0,127.0
630,64.0,60,60,1.0,127.0
631,65.0,60,60,1.0,127.0
632,61.0,60,60,1.0,127.0
633,57.0,60,60,1.0,127.0
634,58.0,60,60,1.0,127.0
635,55.0,60,60,1.0,127.0
636,41.0,60,1020,2.0,127.0
637,40.0,60,60,2.0,127.0
638,41.0,60,60,2.0,127.0
639,62.0,60,480,1.0,127.0
640,38.0,60,60,2.0,127.0
641,57.0,60,240,1.0,127.0
642,74.0,60,960,0.0,127.0
643,69.0,60,720,0.0,127.0
644,59.0,60,60,0.0,127.0
645,64.0,60,60,0.0,127.0
646,59.0,60,60,0.0,127.0
647,68.0,60,60,0.0,127.0
648,64.0,60,60,0.0,127.0
649,71.0,60,60,0.0,127.0
650,68.0,60,60,0.0,127.0
651,74.0,60,60,0.0,127.0
652,71.0,60,60,0.0,127.0
653,77.0,60,60,0.0,127.0
654,74.0,60,60,0.0,127.0
655,71.0,60,60,0.0,127.0
656,74.0,60,60,0.0,127.0
657,68.0,60,60,0.0,127.0
658,71.0,60,60,0.0,127.0
659,62.0,60,60,0.0,127.0
660,68.0,60,60,0.0,127.0
661,59.0,60,60,0.0,127.0
662,62.0,60,60,0.0,127.0
663,56.0,60,60,0.0,127.0
664,59.0,60,60,0.0,127.0
665,52.0,60,60,0.0,127.0
666,44.0,60,1440,2.0,127.0
667,62.0,60,60,0.0,127.0
668,60.0,60,60,0.0,127.0
669,45.0,0,120,1.0,127.0
670,62.0,60,60,0.0,127.0
671,60.0,0,60,0.0,127.0
672,59.0,60,60,0.0,127.0
673,52.0,60,120,1.0,127.0
674,60.0,60,60,0.0,127.0
675,57.0,0,120,1.0,127.0
676,64.0,60,60,0.0,127.0
677,69.0,60,60,0.0,127.0
678,59.0,0,120,1.0,127.0
679,68.0,60,60,0.0,127.0
680,69.0,60,60,0.0,127.0
681,60.0,0,120,0.0,127.0
682,74.0,60,60,0.0,127.0
683,72.0,60,60,0.0,127.0
684,62.0,0,120,0.0,127.0
685,71.0,60,60,0.0,127.0
686,72.0,0,60,0.0,127.0
687,64.0,60,120,0.0,127.0
688,76.0,60,60,0.0,127.0
689,81.0,0,60,0.0,127.0
690,80.0,60,60,0.0,127.0
691,65.0,60,120,0.0,127.0
692,74.0,60,60,0.0,127.0
693,76.0,60,60,0.0,127.0
694,33.0,0,1152,2.0,80.0
695,71.0,60,60,0.0,127.0
696,72.0,0,60,0.0,127.0
697,45.0,60,60,2.0,100.0
698,43.0,60,60,2.0,100.0
699,45.0,60,60,2.0,100.0
700,40.0,60,60,2.0,100.0
701,64.0,0,480,0.0,127.0
702,72.0,30,0,0.0,127.0
703,71.0,30,30,0.0,127.0
704,81.0,60,600,0.0,127.0
705,72.0,30,30,0.0,127.0
706,72.0,30,30,0.0,127.0
707,71.0,30,30,0.0,127.0
708,81.0,30,120,0.0,127.0
709,72.0,30,30,0.0,127.0
710,69.0,30,30,0.0,127.0
711,72.0,30,30,0.0,127.0
712,71.0,30,30,0.0,127.0
713,72.0,30,30,0.0,127.0
714,66.0,30,30,0.0,127.0
715,69.0,30,30,0.0,127.0
716,67.0,30,30,0.0,127.0
717,69.0,30,30,0.0,127.0
718,62.0,30,30,0.0,127.0
719,69.0,30,30,0.0,127.0
720,67.0,30,30,0.0,127.0
721,69.0,30,30,0.0,127.0
722,72.0,30,30,0.0,127.0
723,69.0,30,30,0.0,127.0
724,67.0,30,30,0.0,127.0
725,69.0,30,30,0.0,127.0
726,66.0,30,30,0.0,127.0
727,69.0,30,30,0.0,127.0
728,67.0,30,30,0.0,127.0
729,69.0,30,30,0.0,127.0
730,62.0,30,30,0.0,127.0
731,66.0,30,30,0.0,127.0
732,64.0,30,30,0.0,127.0
733,66.0,30,30,0.0,127.0
734,57.0,30,30,0.0,127.0
735,60.0,30,30,0.0,127.0
736,59.0,30,30,0.0,127.0
737,60.0,30,30,0.0,127.0
738,63.0,30,30,0.0,127.0
739,60.0,30,30,0.0,127.0
740,59.0,30,30,0.0,127.0
741,60.0,30,30,0.0,127.0
742,57.0,30,30,0.0,127.0
743,60.0,30,30,0.0,127.0
744,59.0,30,30,0.0,127.0
745,60.0,30,30,0.0,127.0
746,54.0,30,30,0.0,127.0
747,57.0,30,30,0.0,127.0
748,55.0,30,30,0.0,127.0
749,57.0,30,30,0.0,127.0
750,50.0,30,30,0.0,127.0
751,54.0,30,30,0.0,127.0
752,57.0,30,30,0.0,127.0
753,60.0,30,30,0.0,127.0
754,63.0,30,30,0.0,127.0
755,62.0,30,30,0.0,127.0
756,60.0,30,30,0.0,127.0
757,59.0,30,30,0.0,127.0
758,57.0,30,30,0.0,127.0
759,55.0,30,30,0.0,127.0
760,54.0,30,30,0.0,127.0
761,52.0,30,30,0.0,127.0
762,50.0,30,30,0.0,127.0
763,48.0,30,30,0.0,127.0
764,47.0,30,30,0.0,127.0
765,45.0,30,30,0.0,127.0
766,42.0,60,1920,2.0,100.0
767,47.0,30,30,0.0,127.0
768,50.0,30,30,0.0,127.0
769,52.0,30,30,0.0,127.0
770,54.0,30,30,0.0,127.0
771,55.0,30,30,0.0,127.0
772,57.0,30,30,0.0,127.0
773,59.0,30,30,0.0,127.0
774,60.0,30,30,0.0,127.0
775,59.0,30,30,0.0,127.0
776,55.0,30,30,0.0,127.0
777,57.0,30,30,0.0,127.0
778,59.0,30,30,0.0,127.0
779,60.0,30,30,0.0,127.0
780,62.0,30,30,0.0,127.0
781,64.0,30,30,0.0,127.0
782,66.0,30,30,0.0,127.0
783,67.0,30,30,0.0,127.0
784,55.0,30,30,0.0,127.0
785,59.0,30,30,0.0,127.0
786,62.0,30,30,0.0,127.0
787,67.0,30,30,0.0,127.0
788,71.0,30,30,0.0,127.0
789,74.0,30,30,0.0,127.0
790,71.0,30,30,0.0,127.0
791,43.0,60,0,2.0,100.0
792,79.0,30,120,0.0,127.0
793,38.0,60,60,2.0,100.0
794,43.0,60,60,2.0,100.0
795,72.0,60,60,0.0,127.0
796,40.0,60,120,2.0,100.0
797,76.0,60,60,0.0,127.0
798,72.0,60,60,0.0,127.0
799,40.0,60,0,2.0,100.0
800,79.0,0,60,0.0,127.0
801,67.0,60,60,0.0,127.0
802,40.0,60,0,2.0,100.0
803,72.0,0,60,0.0,127.0
804,67.0,60,60,0.0,127.0
805,69.0,60,60,0.0,127.0
806,41.0,0,120,2.0,100.0
807,65.0,60,60,0.0,127.0
808,74.0,0,60,0.0,127.0
809,77.0,0,60,0.0,127.0
810,69.0,0,60,0.0,127.0
811,65.0,60,60,0.0,127.0
812,74.0,60,0,0.0,127.0
813,41.0,60,120,2.0,100.0
814,81.0,0,60,0.0,127.0
815,41.0,0,120,2.0,100.0
816,69.0,0,60,0.0,127.0
817,65.0,60,60,0.0,127.0
818,69.0,60,0,0.0,127.0
819,74.0,0,60,0.0,127.0
820,41.0,60,120,2.0,100.0
821,65.0,0,60,0.0,127.0
822,62.0,0,120,0.0,127.0
823,71.0,0,120,0.0,127.0
824,41.0,120,0,2.0,100.0
825,67.0,0,60,0.0,127.0
826,79.0,0,120,0.0,127.0
827,74.0,0,120,0.0,127.0
828,71.0,60,60,0.0,127.0
829,67.0,0,60,0.0,127.0
830,76.0,60,120,0.0,127.0
831,79.0,0,120,0.0,127.0
832,72.0,60,60,0.0,127.0
833,40.0,0,120,2.0,100.0
834,60.0,0,60,0.0,127.0
835,79.0,0,120,0.0,127.0
836,76.0,0,0,0.0,127.0
837,40.0,0,120,2.0,100.0
838,64.0,60,60,0.0,127.0
839,60.0,60,60,0.0,127.0
840,38.0,60,60,2.0,100.0
841,77.0,60,0,0.0,127.0
842,69.0,60,0,0.0,127.0
843,41.0,0,60,2.0,100.0
844,74.0,0,0,0.0,127.0
845,77.0,0,0,0.0,127.0
846,38.0,0,60,2.0,100.0
847,43.0,60,60,2.0,100.0
848,74.0,60,0,0.0,127.0
849,31.0,60,60,2.0,100.0
850,67.0,60,0,0.0,127.0
851,38.0,0,60,2.0,100.0
852,77.0,0,120,0.0,127.0
853,31.0,0,60,2.0,100.0
854,67.0,60,60,0.0,127.0
855,72.0,0,60,0.0,127.0
856,76.0,0,60,0.0,127.0
857,60.0,0,60,1.0,127.0
858,64.0,0,60,1.0,127.0
859,72.0,60,60,0.0,127.0
860,67.0,0,60,1.0,127.0
861,76.0,60,60,0.0,127.0
862,72.0,0,60,0.0,127.0
863,36.0,0,240,2.0,100.0
864,64.0,60,60,1.0,127.0
865,79.0,60,60,0.0,127.0
866,70.0,0,60,1.0,127.0
867,64.0,0,60,1.0,127.0
868,72.0,60,60,0.0,127.0
869,76.0,0,60,0.0,127.0
870,67.0,60,60,1.0,127.0
871,72.0,60,60,0.0,127.0
872,64.0,0,60,1.0,127.0
873,77.0,60,60,0.0,127.0
874,69.0,0,60,1.0,127.0
875,71.0,0,60,0.0,127.0
876,62.0,60,60,1.0,127.0
877,65.0,60,60,1.0,127.0
878,74.0,0,60,0.0,127.0
879,71.0,0,60,0.0,127.0
880,62.0,60,60,1.0,127.0
881,76.0,60,60,0.0,127.0
882,67.0,0,60,1.0,127.0
883,60.0,0,60,1.0,127.0
884,69.0,60,60,0.0,127.0
885,72.0,0,60,0.0,127.0
886,64.0,60,60,1.0,127.0
887,60.0,60,60,1.0,127.0
888,69.0,0,60,0.0,127.0
889,69.0,60,60,0.0,127.0
890,71.0,60,60,0.0,127.0
891,67.0,60,60,0.0,127.0
892,36.0,60,240,2.0,100.0
893,66.0,60,0,0.0,127.0
894,67.0,60,60,0.0,127.0
895,64.0,60,60,0.0,127.0
896,69.0,60,240,0.0,127.0
897,74.0,0,480,0.0,127.0
898,35.0,0,60,2.0,100.0
899,68.0,0,120,0.0,127.0
900,50.0,60,60,1.0,127.0
901,38.0,60,60,2.0,100.0
902,53.0,0,60,1.0,127.0
903,65.0,0,240,0.0,127.0
904,35.0,60,60,2.0,100.0
905,50.0,0,60,1.0,127.0
906,69.0,0,120,0.0,127.0
907,56.0,0,60,1.0,127.0
908,40.0,60,60,2.0,100.0
909,56.0,60,60,1.0,127.0
910,28.0,0,60,2.0,100.0
911,59.0,60,60,1.0,127.0
912,32.0,0,60,2.0,100.0
913,28.0,0,60,2.0,100.0
914,56.0,60,60,1.0,127.0
915,74.0,60,480,0.0,127.0
916,74.0,0,60,0.0,127.0
917,74.0,60,60,0.0,127.0
918,72.0,60,60,0.0,127.0
919,71.0,60,60,0.0,127.0
920,71.0,60,0,0.0,127.0
921,69.0,60,60,0.0,127.0
922,68.0,60,60,0.0,127.0
923,33.0,60,540,2.0,100.0
924,45.0,60,60,2.0,100.0
925,44.0,60,60,2.0,100.0
926,57.0,0,720,1.0,127.0
927,45.0,60,60,2.0,100.0
928,72.0,60,480,0.0,127.0
929,69.0,60,240,0.0,127.0
930,64.0,0,960,0.0,127.0
931,40.0,60,60,2.0,100.0
932,48.0,60,60,2.0,100.0
933,40.0,60,60,2.0,100.0
934,43.0,60,60,2.0,100.0
935,72.0,60,60,0.0,127.0
936,42.0,0,0,2.0,100.0
937,69.0,0,60,0.0,127.0
938,68.0,0,60,0.0,127.0
939,71.0,60,60,0.0,127.0
940,69.0,60,0,0.0,127.0
941,72.0,60,60,0.0,127.0
942,62.0,0,60,0.0,127.0
943,81.0,60,60,0.0,127.0
944,66.0,0,60,0.0,127.0
945,69.0,0,60,0.0,127.0
946,66.0,60,60,0.0,127.0
947,72.0,0,60,0.0,127.0
948,69.0,60,60,0.0,127.0
949,43.0,60,60,2.0,100.0
950,67.0,0,0,0.0,127.0
951,71.0,0,0,0.0,127.0
952,62.0,0,0,0.0,127.0
953,42.0,60,60,2.0,100.0
954,43.0,60,60,2.0,100.0
955,38.0,60,60,2.0,100.0
956,47.0,60,60,2.0,100.0
957,38.0,60,60,2.0,100.0
958,41.0,60,60,2.0,100.0
959,67.0,0,60,0.0,127.0
960,70.0,60,60,0.0,127.0
961,40.0,60,120,2.0,100.0
962,69.0,60,60,0.0,127.0
963,65.0,0,60,0.0,127.0
964,28.0,0,120,2.0,100.0
965,70.0,0,60,0.0,127.0
966,67.0,60,60,0.0,127.0
967,67.0,0,60,0.0,127.0
968,60.0,60,60,0.0,127.0
969,79.0,60,60,0.0,127.0
970,64.0,0,60,0.0,127.0
971,64.0,60,60,0.0,127.0
972,67.0,60,0,0.0,127.0
973,70.0,0,60,0.0,127.0
974,65.0,60,120,0.0,127.0
975,60.0,0,120,0.0,127.0
976,69.0,0,0,0.0,127.0
977,41.0,60,60,2.0,100.0
978,40.0,0,60,2.0,100.0
979,41.0,60,60,2.0,100.0
980,60.0,0,120,0.0,127.0
981,65.0,60,120,0.0,127.0
982,36.0,60,60,2.0,100.0
983,45.0,60,60,2.0,100.0
984,36.0,60,60,2.0,100.0
985,40.0,60,60,2.0,100.0
986,38.0,60,120,2.0,100.0
987,70.0,60,60,0.0,127.0
988,62.0,0,60,0.0,127.0
989,60.0,0,60,0.0,127.0
990,69.0,60,60,0.0,127.0
991,26.0,0,120,2.0,100.0
992,62.0,0,60,0.0,127.0
993,70.0,60,60,0.0,127.0
994,58.0,60,60,0.0,127.0
995,65.0,0,60,0.0,127.0
996,77.0,60,60,0.0,127.0
997,62.0,0,60,0.0,127.0
998,70.0,0,60,0.0,127.0
999,62.0,60,60,0.0,127.0
1000,65.0,60,60,0.0,127.0
1001,74.0,0,60,0.0,127.0
1002,40.0,60,60,2.0,100.0
1003,68.0,0,120,0.0,127.0
1004,64.0,0,0,0.0,127.0
1005,59.0,0,0,0.0,127.0
1006,38.0,60,60,2.0,100.0
1007,40.0,60,60,2.0,100.0
1008,68.0,0,120,0.0,127.0
1009,35.0,60,60,2.0,100.0
1010,44.0,60,60,2.0,100.0
1011,35.0,60,60,2.0,100.0
1012,38.0,60,60,2.0,100.0
1013,69.0,0,60,0.0,127.0
1014,36.0,60,120,2.0,100.0
1015,60.0,60,60,0.0,127.0
1016,68.0,60,60,0.0,127.0
1017,59.0,0,60,0.0,127.0
1018,69.0,0,60,0.0,127.0
1019,60.0,60,60,0.0,127.0
1020,36.0,0,0,2.0,100.0
1021,57.0,0,60,0.0,127.0
1022,64.0,60,60,0.0,127.0
1023,60.0,0,0,0.0,127.0
1024,76.0,60,60,0.0,127.0
1025,69.0,0,60,0.0,127.0
1026,36.0,60,120,2.0,100.0
1027,64.0,0,60,0.0,127.0
1028,72.0,60,60,0.0,127.0
1029,66.0,0,60,0.0,127.0
1030,36.0,0,120,2.0,100.0
1031,57.0,60,60,1.0,127.0
1032,64.0,0,60,0.0,127.0
1033,55.0,60,60,1.0,127.0
1034,57.0,60,60,1.0,127.0
1035,36.0,0,120,2.0,100.0
1036,66.0,0,60,0.0,127.0
1037,50.0,60,60,1.0,127.0
1038,35.0,0,120,2.0,100.0
1039,62.0,60,60,1.0,127.0
1040,67.0,0,120,0.0,127.0
1041,55.0,0,60,1.0,127.0
1042,65.0,0,120,0.0,127.0
1043,59.0,60,60,1.0,127.0
1044,35.0,0,0,2.0,100.0
1045,74.0,60,480,0.0,127.0
1046,60.0,0,60,1.0,127.0
1047,64.0,0,60,0.0,127.0
1048,35.0,60,0,2.0,100.0
1049,52.0,60,60,1.0,127.0
1050,67.0,0,60,0.0,127.0
1051,65.0,0,60,0.0,127.0
1052,50.0,0,60,1.0,127.0
1053,67.0,0,60,0.0,127.0
1054,52.0,60,60,1.0,127.0
1055,60.0,60,60,0.0,127.0
1056,53.0,60,0,1.0,127.0
1057,69.0,60,60,0.0,127.0
1058,33.0,0,0,2.0,100.0
1059,67.0,0,60,0.0,127.0
1060,72.0,60,480,0.0,127.0
1061,69.0,60,60,0.0,127.0
1062,71.0,60,60,0.0,127.0
1063,33.0,60,0,2.0,100.0
1064,62.0,0,0,0.0,127.0
1065,53.0,0,0,1.0,127.0
1066,69.0,0,60,0.0,127.0
1067,71.0,60,60,0.0,127.0
1068,59.0,0,0,1.0,127.0
1069,64.0,0,60,0.0,127.0
1070,52.0,0,0,1.0,127.0
1071,59.0,60,0,1.0,127.0
1072,76.0,60,60,0.0,127.0
1073,32.0,0,0,2.0,100.0
1074,71.0,0,60,0.0,127.0
1075,52.0,60,0,1.0,127.0
1076,64.0,0,0,0.0,127.0
1077,74.0,60,60,0.0,127.0
1078,33.0,0,60,2.0,100.0
1079,45.0,60,60,2.0,100.0
1080,44.0,60,60,2.0,100.0
1081,57.0,0,240,1.0,127.0
1082,45.0,60,60,2.0,100.0
1083,72.0,0,240,0.0,127.0
1084,69.0,0,240,0.0,127.0
1085,40.0,60,60,2.0,100.0
1086,48.0,60,60,2.0,100.0
1087,40.0,60,60,2.0,100.0
1088,45.0,60,60,2.0,100.0
1089,36.0,60,60,2.0,100.0
1090,40.0,60,60,2.0,100.0
1091,39.0,60,60,2.0,100.0
1092,40.0,60,60,2.0,100.0
1093,36.0,60,60,2.0,100.0
1094,45.0,60,60,2.0,100.0
1095,36.0,60,60,2.0,100.0
1096,40.0,60,60,2.0,100.0
1097,33.0,60,60,2.0,100.0
1098,36.0,60,60,2.0,100.0
1099,35.0,60,60,2.0,100.0
1100,36.0,60,60,2.0,100.0
1101,33.0,60,60,2.0,100.0
1102,40.0,60,60,2.0,100.0
1103,33.0,60,60,2.0,100.0
1104,36.0,60,60,2.0,100.0
1105,76.0,300,60,0.0,127.0
1106,74.0,60,60,0.0,127.0
1107,76.0,60,60,0.0,127.0
1108,72.0,60,60,0.0,127.0
1109,69.0,60,60,0.0,127.0
1110,72.0,0,60,0.0,127.0
1111,68.0,0,60,0.0,127.0
1112,71.0,60,60,0.0,127.0
1113,69.0,60,60,0.0,127.0
1114,72.0,0,60,0.0,127.0
1115,68.0,60,0,0.0,127.0
1116,64.0,0,60,1.0,127.0
1117,66.0,0,60,0.0,127.0
1118,62.0,60,60,1.0,127.0
1119,64.0,0,60,1.0,127.0
1120,68.0,60,60,0.0,127.0
1121,71.0,60,300,0.0,127.0
1122,66.0,60,30,0.0,127.0
1123,68.0,30,30,0.0,127.0
1124,60.0,60,180,1.0,127.0
1125,59.0,60,30,1.0,127.0
1126,57.0,30,30,1.0,127.0
1127,69.0,30,180,0.0,127.0
1128,71.0,60,60,0.0,127.0
1129,59.0,30,180,1.0,127.0
1130,62.0,60,60,1.0,127.0
1131,28.0,60,1440,2.0,100.0
1132,68.0,60,120,0.0,127.0
1133,64.0,0,480,0.0,127.0
1134,69.0,0,60,0.0,127.0
1135,81.0,60,60,0.0,127.0
1136,79.0,60,60,0.0,127.0
1137,64.0,0,240,0.0,127.0
1138,81.0,60,60,0.0,127.0
1139,77.0,60,0,0.0,127.0
1140,74.0,0,60,0.0,127.0
1141,76.0,60,60,0.0,127.0
1142,73.0,0,60,0.0,127.0
1143,74.0,0,60,0.0,127.0
1144,77.0,60,60,0.0,127.0
1145,73.0,0,60,0.0,127.0
1146,69.0,60,60,1.0,127.0
1147,73.0,0,60,0.0,127.0
1148,67.0,0,60,1.0,127.0
1149,71.0,60,60,0.0,127.0
1150,73.0,0,60,0.0,127.0
1151,69.0,60,60,1.0,127.0
1152,76.0,60,300,0.0,127.0
1153,71.0,60,30,0.0,127.0
1154,73.0,30,30,0.0,127.0
1155,65.0,0,180,1.0,127.0
1156,64.0,60,30,1.0,127.0
1157,62.0,30,30,1.0,127.0
1158,74.0,30,180,0.0,127.0
1159,76.0,60,60,0.0,127.0
1160,64.0,30,180,1.0,127.0
1161,67.0,60,60,1.0,127.0
1162,33.0,60,1200,2.0,100.0
1163,73.0,60,120,0.0,127.0
1164,69.0,60,480,0.0,127.0
1165,38.0,60,60,2.0,100.0
1166,37.0,60,60,2.0,100.0
1167,38.0,60,60,2.0,100.0
1168,65.0,0,300,1.0,127.0
1169,74.0,60,300,0.0,127.0
1170,33.0,60,120,2.0,100.0
1171,69.0,0,0,0.0,127.0
1172,73.0,0,60,0.0,127.0
1173,64.0,60,60,1.0,127.0
1174,74.0,0,60,0.0,127.0
1175,65.0,0,60,1.0,127.0
1176,73.0,60,60,0.0,127.0
1177,64.0,0,60,1.0,127.0
1178,45.0,60,120,2.0,100.0
1179,38.0,60,60,2.0,100.0
1180,37.0,60,60,2.0,100.0
1181,38.0,60,60,2.0,100.0
1182,65.0,0,300,1.0,127.0
1183,74.0,0,300,0.0,127.0
1184,64.0,60,60,1.0,127.0
1185,33.0,60,120,2.0,100.0
1186,69.0,0,0,0.0,127.0
1187,73.0,0,60,0.0,127.0
1188,65.0,60,60,1.0,127.0
1189,74.0,0,60,0.0,127.0
1190,64.0,60,60,1.0,127.0
1191,45.0,0,120,2.0,100.0
1192,69.0,0,0,0.0,127.0
1193,73.0,0,60,0.0,127.0
1194,41.0,60,60,2.0,100.0
1195,40.0,60,60,2.0,100.0
1196,41.0,60,60,2.0,100.0
1197,65.0,60,300,1.0,127.0
1198,74.0,0,300,0.0,127.0
1199,38.0,60,120,2.0,100.0
1200,64.0,60,60,1.0,127.0
1201,73.0,0,60,0.0,127.0
1202,65.0,60,60,1.0,127.0
1203,74.0,0,60,0.0,127.0
1204,45.0,0,120,2.0,100.0
1205,69.0,0,120,0.0,127.0
1206,67.0,60,60,1.0,127.0
1207,76.0,0,60,0.0,127.0
1208,41.0,60,60,2.0,100.0
1209,40.0,60,60,2.0,100.0
1210,41.0,60,60,2.0,100.0
1211,74.0,60,300,0.0,127.0
1212,77.0,0,300,0.0,127.0
1213,76.0,0,60,0.0,127.0
1214,38.0,60,120,2.0,100.0
1215,73.0,60,60,0.0,127.0
1216,74.0,0,60,0.0,127.0
1217,77.0,60,60,0.0,127.0
1218,76.0,0,60,0.0,127.0
1219,45.0,0,120,2.0,100.0
1220,79.0,60,60,0.0,127.0
1221,69.0,0,480,1.0,127.0
1222,45.0,60,60,2.0,100.0
1223,62.0,0,120,1.0,127.0
1224,77.0,0,120,0.0,127.0
1225,43.0,60,60,2.0,100.0
1226,61.0,0,120,1.0,127.0
1227,45.0,60,60,2.0,100.0
1228,76.0,0,120,0.0,127.0
1229,81.0,60,300,0.0,127.0
1230,74.0,0,60,0.0,127.0
1231,72.0,0,60,0.0,127.0
1232,41.0,60,120,2.0,100.0
1233,83.0,60,60,0.0,127.0
1234,80.0,0,60,0.0,127.0
1235,71.0,60,60,0.0,127.0
1236,81.0,0,60,0.0,127.0
1237,50.0,0,120,2.0,100.0
1238,69.0,60,60,0.0,127.0
1239,69.0,0,240,1.0,127.0
1240,47.0,0,60,2.0,100.0
1241,65.0,60,60,1.0,127.0
1242,44.0,60,60,2.0,100.0
1243,64.0,0,60,1.0,127.0
1244,68.0,60,240,0.0,127.0
1245,47.0,0,60,2.0,100.0
1246,62.0,60,60,1.0,127.0
1247,77.0,0,300,0.0,127.0
1248,61.0,60,120,1.0,127.0
1249,77.0,60,60,0.0,127.0
1250,76.0,0,60,0.0,127.0
1251,62.0,60,60,1.0,127.0
1252,64.0,0,60,1.0,127.0
1253,74.0,60,60,0.0,127.0
1254,69.0,0,240,0.0,127.0
1255,65.0,60,60,1.0,127.0
1256,77.0,0,60,0.0,127.0
1257,62.0,60,60,1.0,127.0
1258,76.0,0,60,0.0,127.0
1259,61.0,60,60,1.0,127.0
1260,59.0,60,60,1.0,127.0
1261,80.0,0,240,0.0,127.0
1262,74.0,0,60,0.0,127.0
1263,69.0,60,480,0.0,114.0
1264,81.0,0,480,0.0,114.0
1265,76.0,0,480,0.0,114.0
1266,73.0,0,480,0.0,114.0
1267,33.0,0,960,2.0,100.0
1268,64.0,0,480,1.0,114.0
1269,61.0,0,480,1.0,114.0
1270,57.0,0,480,1.0,114.0
1271,69.0,1200,120,0.0,100.0
1272,72.0,120,60,0.0,100.0
1273,71.0,60,60,0.0,100.0
1274,72.0,60,60,0.0,100.0
1275,69.0,60,60,0.0,100.0
1276,71.0,60,90,0.0,100.0
1277,64.0,120,60,0.0,100.0
1278,71.0,60,60,0.0,100.0
1279,76.0,60,60,0.0,100.0
1280,71.0,60,60,0.0,100.0
1281,72.0,60,90,0.0,100.0
1282,69.0,120,120,0.0,100.0
1283,76.0,120,120,0.0,100.0
1284,77.0,120,60,0.0,100.0
1285,76.0,60,60,0.0,100.0
1286,77.0,60,60,0.0,100.0
1287,74.0,60,60,0.0,100.0
1288,77.0,60,60,0.0,100.0
1289,72.0,60,60,0.0,100.0
1290,77.0,60,60,0.0,100.0
1291,74.0,60,60,0.0,100.0
1292,77.0,60,60,0.0,100.0
1293,71.0,60,60,0.0,100.0
1294,77.0,60,60,0.0,100.0
1295,67.0,60,60,0.0,100.0
1296,76.0,60,60,0.0,100.0
1297,74.0,60,60,0.0,100.0
1298,76.0,60,60,0.0,100.0
1299,72.0,60,60,0.0,100.0
1300,76.0,60,60,0.0,100.0
1301,71.0,60,60,0.0,100.0
1302,76.0,60,60,0.0,100.0
1303,72.0,60,60,0.0,100.0
1304,76.0,60,60,0.0,100.0
1305,69.0,60,60,0.0,100.0
1306,76.0,60,60,0.0,100.0
1307,65.0,60,60,0.0,100.0
1308,74.0,60,60,0.0,100.0
1309,72.0,60,60,0.0,100.0
1310,74.0,60,60,0.0,100.0
1311,71.0,60,60,0.0,100.0
1312,74.0,60,60,0.0,100.0
1313,69.0,60,60,0.0,100.0
1314,74.0,60,60,0.0,100.0
1315,71.0,60,60,0.0,100.0
1316,74.0,60,60,0.0,100.0
1317,68.0,60,60,0.0,100.0
1318,74.0,60,60,0.0,100.0
1319,64.0,60,60,0.0,100.0
1320,72.0,60,60,0.0,100.0
1321,69.0,60,60,0.0,100.0
1322,72.0,60,60,0.0,100.0
1323,76.0,60,60,0.0,100.0
1324,81.0,60,60,0.0,100.0
1325,78.0,60,60,0.0,100.0
1326,79.0,0,120,0.0,100.0
1327,64.0,60,120,0.0,100.0
1328,67.0,120,60,0.0,100.0
1329,66.0,60,60,0.0,100.0
1330,67.0,60,60,0.0,100.0
1331,64.0,60,60,0.0,100.0
1332,76.0,0,300,0.0,100.0
1333,66.0,60,90,0.0,100.0
1334,75.0,60,60,0.0,100.0
1335,76.0,0,60,0.0,100.0
1336,59.0,60,60,0.0,100.0
1337,73.0,0,60,0.0,100.0
1338,66.0,60,60,0.0,100.0
1339,75.0,0,60,0.0,100.0
1340,71.0,60,60,0.0,100.0
1341,78.0,0,60,0.0,100.0
1342,66.0,60,60,0.0,100.0
1343,67.0,60,90,0.0,100.0
1344,64.0,120,120,0.0,100.0
1345,71.0,120,120,0.0,100.0
1346,72.0,120,60,0.0,100.0
1347,71.0,60,60,0.0,100.0
1348,83.0,0,480,0.0,100.0
1349,72.0,0,60,0.0,100.0
1350,81.0,60,60,0.0,100.0
1351,69.0,0,60,0.0,100.0
1352,79.0,60,60,0.0,100.0
1353,72.0,0,60,0.0,100.0
1354,78.0,60,60,0.0,100.0
1355,67.0,0,60,0.0,100.0
1356,76.0,60,60,0.0,100.0
1357,72.0,0,60,0.0,100.0
1358,69.0,60,60,0.0,100.0
1359,72.0,60,60,0.0,100.0
1360,66.0,60,60,0.0,100.0
1361,72.0,60,60,0.0,100.0
1362,62.0,60,60,0.0,100.0
1363,71.0,60,60,0.0,100.0
1364,69.0,60,60,0.0,100.0
1365,81.0,60,480,0.0,100.0
1366,79.0,60,60,0.0,100.0
1367,71.0,0,60,0.0,100.0
1368,67.0,60,60,0.0,100.0
1369,78.0,0,60,0.0,100.0
1370,71.0,0,60,0.0,100.0
1371,76.0,60,60,0.0,100.0
1372,74.0,60,60,0.0,100.0
1373,66.0,0,60,0.0,100.0
1374,71.0,0,60,0.0,100.0
1375,67.0,60,60,0.0,100.0
1376,71.0,60,60,0.0,100.0
1377,64.0,60,60,0.0,100.0
1378,71.0,60,60,0.0,100.0
1379,60.0,60,60,0.0,100.0
1380,69.0,60,60,0.0,100.0
1381,67.0,60,60,0.0,100.0
1382,79.0,60,480,0.0,100.0
1383,69.0,0,60,0.0,100.0
1384,78.0,60,60,0.0,100.0
1385,66.0,0,60,0.0,100.0
1386,76.0,60,60,0.0,100.0
1387,75.0,60,60,0.0,100.0
1388,69.0,0,60,0.0,100.0
1389,64.0,0,60,0.0,100.0
1390,76.0,60,60,0.0,100.0
1391,69.0,0,60,0.0,100.0
1392,66.0,60,60,0.0,100.0
1393,69.0,60,60,0.0,100.0
1394,63.0,60,60,0.0,100.0
1395,69.0,60,60,0.0,100.0
1396,59.0,60,60,0.0,100.0
1397,67.0,60,60,0.0,100.0
1398,66.0,60,60,0.0,100.0
1399,78.0,60,480,0.0,100.0
1400,76.0,60,60,0.0,100.0
1401,67.0,0,60,0.0,100.0
1402,71.0,0,60,0.0,100.0
1403,78.0,60,60,0.0,100.0
1404,76.0,0,60,0.0,100.0
1405,73.0,60,60,0.0,100.0
1406,79.0,60,180,0.0,100.0
1407,79.0,60,60,0.0,100.0
1408,78.0,60,60,0.0,100.0
1409,76.0,60,60,0.0,100.0
1410,78.0,60,60,0.0,100.0
1411,74.0,60,60,0.0,100.0
1412,68.0,60,60,0.0,100.0
1413,76.0,60,120,0.0,100.0
1414,69.0,60,60,0.0,100.0
1415,72.0,60,60,0.0,100.0
1416,78.0,60,60,0.0,100.0
1417,75.0,60,60,0.0,100.0
1418,81.0,60,0,0.0,100.0
1419,80.0,60,60,0.0,100.0
1420,78.0,60,60,0.0,100.0
1421,80.0,60,60,0.0,100.0
1422,76.0,60,60,0.0,100.0
1423,74.0,60,60,0.0,100.0
1424,72.0,60,60,0.0,100.0
1425,71.0,60,60,0.0,100.0
1426,72.0,60,60,0.0,100.0
1427,69.0,60,60,0.0,100.0
1428,84.0,60,420,0.0,100.0
1429,84.0,60,60,0.0,100.0
1430,83.0,60,60,0.0,100.0
1431,81.0,60,60,0.0,100.0
1432,79.0,60,60,0.0,100.0
1433,78.0,60,60,0.0,100.0
1434,74.0,60,420,0.0,100.0
1435,74.0,60,60,0.0,100.0
1436,72.0,60,60,0.0,100.0
1437,71.0,60,60,0.0,100.0
1438,69.0,60,60,0.0,100.0
1439,67.0,60,60,0.0,100.0
1440,76.0,60,420,0.0,100.0
1441,76.0,60,60,0.0,100.0
1442,74.0,60,60,0.0,100.0
1443,72.0,60,60,0.0,100.0
1444,71.0,60,60,0.0,100.0
1445,69.0,60,60,0.0,100.0
1446,68.0,60,60,0.0,100.0
1447,65.0,60,420,0.0,100.0
1448,64.0,0,60,0.0,100.0
1449,69.0,60,60,0.0,100.0
1450,71.0,60,60,0.0,100.0
1451,62.0,0,60,0.0,100.0
1452,64.0,60,60,0.0,100.0
1453,72.0,0,60,0.0,100.0
1454,66.0,0,60,0.0,100.0
1455,74.0,60,60,0.0,100.0
1456,68.0,0,60,0.0,100.0
1457,71.0,60,60,0.0,100.0
1458,72.0,60,60,0.0,100.0
1459,74.0,60,60,0.0,100.0
1460,57.0,0,120,1.0,115.0
1461,76.0,60,60,0.0,100.0
1462,60.0,0,60,1.0,115.0
1463,59.0,0,60,1.0,115.0
1464,74.0,60,60,0.0,100.0
1465,60.0,60,60,1.0,115.0
1466,76.0,0,60,0.0,100.0
1467,57.0,60,60,1.0,115.0
1468,77.0,0,60,0.0,100.0
1469,69.0,0,420,0.0,100.0
1470,59.0,0,90,1.0,115.0
1471,68.0,60,60,0.0,100.0
1472,52.0,0,60,1.0,115.0
1473,69.0,60,60,0.0,100.0
1474,59.0,0,60,1.0,115.0
1475,66.0,60,60,0.0,100.0
1476,64.0,60,60,1.0,115.0
1477,68.0,0,60,0.0,100.0
1478,71.0,60,60,0.0,100.0
1479,59.0,0,60,1.0,115.0
1480,74.0,60,420,0.0,100.0
1481,60.0,60,90,1.0,115.0
1482,74.0,60,60,0.0,100.0
1483,64.0,0,120,0.0,100.0
1484,72.0,0,60,0.0,100.0
1485,57.0,60,120,1.0,115.0
1486,71.0,60,60,0.0,100.0
1487,69.0,0,60,0.0,100.0
1488,64.0,60,120,1.0,115.0
1489,68.0,60,60,0.0,100.0
1490,65.0,60,60,1.0,115.0
1491,76.0,0,360,0.0,100.0
1492,64.0,60,60,1.0,115.0
1493,65.0,60,60,1.0,115.0
1494,74.0,0,60,0.0,100.0
1495,72.0,60,60,0.0,100.0
1496,62.0,0,60,1.0,115.0
1497,71.0,0,60,0.0,100.0
1498,65.0,60,60,1.0,115.0
1499,69.0,60,60,0.0,100.0
1500,60.0,0,60,1.0,115.0
1501,65.0,0,60,1.0,115.0
1502,62.0,60,60,1.0,115.0
1503,81.0,60,120,0.0,100.0
1504,65.0,60,60,1.0,115.0
1505,79.0,0,60,0.0,100.0
1506,77.0,0,60,0.0,100.0
1507,59.0,60,60,1.0,115.0
1508,76.0,60,60,0.0,100.0
1509,65.0,0,60,1.0,115.0
1510,55.0,0,60,1.0,115.0
1511,74.0,60,60,0.0,100.0
1512,64.0,0,60,1.0,115.0
1513,62.0,60,60,1.0,115.0
1514,72.0,60,60,0.0,100.0
1515,64.0,0,60,1.0,115.0
1516,60.0,0,60,1.0,115.0
1517,71.0,60,60,0.0,100.0
1518,64.0,60,60,1.0,115.0
1519,69.0,0,60,0.0,100.0
1520,59.0,60,60,1.0,115.0
1521,67.0,0,60,0.0,100.0
1522,64.0,60,60,1.0,115.0
1523,79.0,60,480,0.0,100.0
1524,60.0,60,60,1.0,115.0
1525,77.0,60,60,0.0,100.0
1526,64.0,0,60,1.0,115.0
1527,57.0,60,60,1.0,115.0
1528,76.0,0,60,0.0,100.0
1529,64.0,60,60,1.0,115.0
1530,74.0,0,60,0.0,100.0
1531,53.0,60,60,1.0,115.0
1532,72.0,0,60,0.0,100.0
1533,62.0,60,60,1.0,115.0
1534,60.0,60,60,1.0,115.0
1535,62.0,60,60,1.0,115.0
1536,71.0,0,60,0.0,100.0
1537,59.0,0,60,1.0,115.0
1538,69.0,60,60,0.0,100.0
1539,62.0,60,60,1.0,115.0
1540,68.0,0,60,0.0,100.0
1541,57.0,60,60,1.0,115.0
1542,69.0,0,60,0.0,100.0
1543,62.0,60,60,1.0,115.0
1544,77.0,0,480,0.0,100.0
1545,59.0,60,60,1.0,115.0
1546,62.0,60,60,1.0,115.0
1547,76.0,0,60,0.0,100.0
1548,56.0,0,60,1.0,115.0
1549,74.0,60,60,0.0,100.0
1550,72.0,0,60,0.0,100.0
1551,62.0,60,60,1.0,115.0
1552,74.0,60,60,0.0,100.0
1553,52.0,0,60,1.0,115.0
1554,62.0,0,60,1.0,100.0
1555,60.0,60,60,1.0,100.0
1556,71.0,0,480,0.0,100.0
1557,62.0,60,60,1.0,100.0
1558,69.0,0,60,0.0,100.0
1559,56.0,60,60,1.0,100.0
1560,71.0,0,60,0.0,100.0
1561,57.0,0,60,1.0,100.0
1562,72.0,60,60,0.0,100.0
1563,62.0,60,60,1.0,100.0
1564,69.0,0,60,0.0,100.0
1565,76.0,60,360,0.0,100.0
1566,64.0,60,60,1.0,100.0
1567,76.0,0,60,0.0,100.0
1568,59.0,60,60,1.0,100.0
1569,60.0,0,60,1.0,100.0
1570,81.0,60,60,0.0,100.0
1571,79.0,60,60,0.0,100.0
1572,64.0,0,60,1.0,100.0
1573,69.0,0,60,1.0,100.0
1574,78.0,60,60,0.0,100.0
1575,66.0,60,60,1.0,100.0
1576,76.0,0,60,0.0,100.0
1577,72.0,0,420,0.0,100.0
1578,72.0,60,60,0.0,100.0
1579,67.0,0,180,1.0,100.0
1580,71.0,60,60,0.0,100.0
1581,69.0,60,60,1.0,100.0
1582,69.0,0,60,0.0,100.0
1583,67.0,0,60,1.0,100.0
1584,66.0,60,60,1.0,100.0
1585,71.0,60,120,0.0,100.0
1586,74.0,60,360,0.0,100.0
1587,76.0,60,60,0.0,100.0
1588,67.0,60,180,1.0,100.0
1589,71.0,60,180,0.0,100.0
1590,63.0,0,60,1.0,100.0
1591,78.0,60,60,0.0,100.0
1592,64.0,60,60,1.0,100.0
1593,59.0,60,60,1.0,100.0
1594,71.0,0,120,0.0,100.0
1595,61.0,60,60,1.0,100.0
1596,69.0,0,60,0.0,100.0
1597,55.0,60,60,1.0,100.0
1598,73.0,0,60,0.0,100.0
1599,57.0,60,60,1.0,100.0
1600,76.0,0,60,0.0,100.0
1601,74.0,0,60,0.0,100.0
1602,61.0,60,60,1.0,100.0
1603,64.0,0,60,1.0,100.0
1604,73.0,60,60,0.0,100.0
1605,71.0,0,60,0.0,100.0
1606,62.0,60,60,1.0,100.0
1607,79.0,0,540,0.0,100.0
1608,61.0,60,60,1.0,100.0
1609,69.0,0,120,0.0,100.0
1610,73.0,0,60,0.0,100.0
1611,64.0,60,60,1.0,100.0
1612,69.0,0,60,1.0,100.0
1613,67.0,60,60,1.0,100.0
1614,74.0,0,120,0.0,100.0
1615,71.0,60,120,0.0,100.0
1616,65.0,0,60,1.0,100.0
1617,64.0,60,60,1.0,100.0
1618,76.0,0,120,0.0,100.0
1619,73.0,60,180,0.0,100.0
1620,69.0,60,60,0.0,100.0
1621,71.0,60,60,0.0,100.0
1622,73.0,60,60,0.0,100.0
1623,74.0,60,60,0.0,100.0
1624,69.0,60,60,0.0,100.0
1625,77.0,0,360,0.0,100.0
1626,68.0,0,60,0.0,100.0
1627,64.0,60,60,0.0,100.0
1628,62.0,60,480,1.0,100.0
1629,69.0,60,60,0.0,100.0
1630,71.0,60,60,0.0,100.0
1631,72.0,60,60,0.0,100.0
1632,69.0,60,60,0.0,100.0
1633,76.0,60,360,0.0,100.0
1634,60.0,0,300,1.0,100.0
1635,60.0,60,60,1.0,100.0
1636,66.0,0,120,0.0,100.0
1637,59.0,0,60,1.0,100.0
1638,68.0,60,90,0.0,100.0
1639,57.0,60,60,1.0,100.0
1640,59.0,30,60,1.0,100.0
1641,56.0,60,60,1.0,100.0
1642,74.0,60,360,0.0,100.0
1643,71.0,30,210,0.0,100.0
1644,57.0,0,120,1.0,100.0
1645,71.0,60,60,0.0,100.0
1646,69.0,0,60,0.0,100.0
1647,60.0,60,120,1.0,100.0
1648,68.0,60,60,0.0,100.0
1649,69.0,0,60,0.0,100.0
1650,64.0,60,60,0.0,100.0
1651,57.0,60,120,1.0,100.0
1652,72.0,60,420,0.0,100.0
1653,72.0,60,60,0.0,100.0
1654,71.0,60,60,0.0,100.0
1655,69.0,60,60,0.0,100.0
1656,71.0,60,60,0.0,100.0
1657,65.0,60,360,0.0,100.0
1658,74.0,60,60,0.0,100.0
1659,62.0,0,420,1.0,100.0
1660,62.0,60,60,1.0,100.0
1661,68.0,60,120,0.0,100.0
1662,60.0,60,60,1.0,100.0
1663,64.0,0,240,0.0,100.0
1664,59.0,60,60,1.0,100.0
1665,60.0,0,60,1.0,100.0
1666,66.0,60,120,0.0,100.0
1667,57.0,60,60,1.0,100.0
1668,69.0,0,240,0.0,100.0
1669,69.0,60,0,0.0,100.0
1670,63.0,0,120,0.0,100.0
1671,59.0,60,120,1.0,100.0
1672,67.0,0,60,0.0,100.0
1673,66.0,60,60,0.0,100.0
1674,60.0,0,120,1.0,100.0
1675,67.0,60,60,0.0,100.0
1676,64.0,60,60,0.0,100.0
1677,55.0,0,120,1.0,100.0
1678,64.0,60,60,0.0,100.0
1679,64.0,60,60,0.0,100.0
1680,57.0,0,120,1.0,100.0
1681,72.0,60,0,0.0,100.0
1682,71.0,60,60,0.0,100.0
1683,63.0,60,240,0.0,100.0
1684,69.0,60,60,0.0,100.0
1685,59.0,60,0,1.0,100.0
1686,40.0,0,120,2.0,127.0
1687,43.0,0,60,2.0,127.0
1688,64.0,60,60,1.0,100.0
1689,67.0,60,240,0.0,100.0
1690,64.0,0,240,0.0,100.0
1691,42.0,60,60,2.0,127.0
1692,63.0,0,60,1.0,100.0
1693,43.0,60,60,2.0,127.0
1694,40.0,0,60,2.0,127.0
1695,67.0,60,60,0.0,100.0
1696,69.0,0,60,0.0,100.0
1697,42.0,60,90,2.0,127.0
1698,67.0,60,60,0.0,100.0
1699,64.0,0,240,1.0,100.0
1700,63.0,0,60,1.0,100.0
1701,61.0,60,60,1.0,100.0
1702,35.0,60,120,2.0,127.0
1703,47.0,0,60,2.0,127.0
1704,42.0,60,60,2.0,127.0
1705,78.0,0,120,0.0,100.0
1706,63.0,0,0,1.0,100.0
1707,43.0,0,90,2.0,127.0
1708,69.0,0,360,0.0,100.0
1709,67.0,0,60,0.0,100.0
1710,64.0,0,120,1.0,100.0
1711,66.0,60,60,0.0,100.0
1712,40.0,120,120,2.0,127.0
1713,67.0,60,60,0.0,100.0
1714,71.0,60,60,0.0,100.0
1715,62.0,0,120,1.0,100.0
1716,47.0,0,120,2.0,127.0
1717,48.0,0,60,2.0,127.0
1718,64.0,0,120,1.0,100.0
1719,83.0,60,480,0.0,100.0
1720,47.0,60,60,2.0,127.0
1721,81.0,0,60,0.0,100.0
1722,48.0,0,60,2.0,127.0
1723,45.0,60,60,2.0,127.0
1724,79.0,0,60,0.0,100.0
1725,66.0,60,120,1.0,100.0
1726,78.0,0,60,0.0,100.0
1727,48.0,0,60,2.0,127.0
1728,67.0,60,120,1.0,100.0
1729,76.0,60,60,0.0,100.0
1730,43.0,0,60,2.0,127.0
1731,48.0,0,60,2.0,127.0
1732,45.0,60,60,2.0,127.0
1733,74.0,60,60,0.0,100.0
1734,48.0,0,60,2.0,127.0
1735,69.0,60,240,1.0,100.0
1736,42.0,60,60,2.0,127.0
1737,72.0,0,60,0.0,100.0
1738,48.0,60,60,2.0,127.0
1739,71.0,0,60,0.0,100.0
1740,69.0,0,60,0.0,100.0
1741,38.0,60,60,2.0,127.0
1742,47.0,0,60,2.0,127.0
1743,45.0,60,60,2.0,127.0
1744,62.0,60,120,1.0,100.0
1745,81.0,0,480,0.0,100.0
1746,47.0,0,60,2.0,127.0
1747,79.0,60,60,0.0,100.0
1748,64.0,0,120,1.0,100.0
1749,78.0,0,60,0.0,100.0
1750,43.0,60,60,2.0,127.0
1751,76.0,0,60,0.0,100.0
1752,47.0,0,60,2.0,127.0
1753,42.0,0,60,2.0,127.0
1754,74.0,60,60,0.0,100.0
1755,66.0,60,120,1.0,100.0
1756,47.0,0,60,2.0,127.0
1757,43.0,60,60,2.0,127.0
1758,72.0,0,60,0.0,100.0
1759,47.0,60,60,2.0,127.0
1760,40.0,0,60,2.0,127.0
1761,71.0,60,60,0.0,100.0
1762,67.0,0,240,1.0,100.0
1763,69.0,0,60,0.0,100.0
1764,47.0,60,60,2.0,127.0
1765,67.0,60,60,0.0,100.0
1766,36.0,0,60,2.0,127.0
1767,45.0,0,60,2.0,127.0
1768,43.0,60,60,2.0,127.0
1769,79.0,60,480,0.0,100.0
1770,64.0,60,120,1.0,100.0
1771,45.0,0,60,2.0,127.0
1772,78.0,0,60,0.0,100.0
1773,62.0,60,60,1.0,100.0
1774,42.0,60,60,2.0,127.0
1775,76.0,0,60,0.0,100.0
1776,60.0,0,60,1.0,100.0
1777,59.0,0,60,1.0,100.0
1778,74.0,60,60,0.0,100.0
1779,45.0,0,60,2.0,127.0
1780,72.0,0,60,0.0,100.0
1781,40.0,0,60,2.0,127.0
1782,57.0,60,60,1.0,100.0
1783,45.0,0,60,2.0,127.0
1784,42.0,60,60,2.0,127.0
1785,71.0,0,60,0.0,100.0
1786,45.0,60,60,2.0,127.0
1787,69.0,0,60,0.0,100.0
1788,39.0,60,60,2.0,127.0
1789,45.0,0,60,2.0,127.0
1790,67.0,60,60,0.0,100.0
1791,35.0,60,60,2.0,127.0
1792,66.0,0,60,0.0,100.0
1793,43.0,0,60,2.0,127.0
1794,42.0,60,60,2.0,127.0
1795,63.0,0,480,1.0,100.0
1796,78.0,60,480,0.0,100.0
1797,43.0,60,60,2.0,127.0
1798,76.0,0,60,0.0,100.0
1799,78.0,0,60,0.0,100.0
1800,39.0,60,60,2.0,127.0
1801,40.0,0,60,2.0,127.0
1802,64.0,60,0,1.0,100.0
1803,35.0,60,60,2.0,127.0
1804,71.0,60,360,0.0,100.0
1805,37.0,0,60,2.0,127.0
1806,35.0,60,60,2.0,127.0
1807,64.0,0,0,1.0,100.0
1808,69.0,0,120,0.0,100.0
1809,79.0,60,240,0.0,100.0
1810,37.0,60,60,2.0,127.0
1811,33.0,60,60,2.0,127.0
1812,69.0,0,120,0.0,100.0
1813,67.0,0,0,0.0,100.0
1814,40.0,0,60,2.0,127.0
1815,73.0,60,120,0.0,100.0
1816,37.0,60,60,2.0,127.0
1817,64.0,0,120,1.0,100.0
1818,41.0,0,60,2.0,127.0
1819,74.0,0,60,0.0,100.0
1820,73.0,0,60,0.0,100.0
1821,40.0,60,60,2.0,127.0
1822,74.0,60,60,0.0,100.0
1823,41.0,0,60,2.0,127.0
1824,76.0,0,60,0.0,100.0
1825,37.0,60,60,2.0,127.0
1826,38.0,0,60,2.0,127.0
1827,33.0,60,60,2.0,127.0
1828,69.0,60,360,0.0,100.0
1829,62.0,0,0,1.0,100.0
1830,35.0,60,60,2.0,127.0
1831,33.0,60,60,2.0,127.0
1832,62.0,0,0,1.0,100.0
1833,67.0,0,0,0.0,100.0
1834,77.0,60,240,0.0,100.0
1835,35.0,0,60,2.0,127.0
1836,65.0,0,0,0.0,100.0
1837,31.0,60,60,2.0,127.0
1838,38.0,0,60,2.0,127.0
1839,35.0,60,60,2.0,127.0
1840,62.0,0,120,1.0,100.0
1841,71.0,60,120,0.0,100.0
1842,40.0,0,60,2.0,127.0
1843,72.0,0,60,0.0,100.0
1844,38.0,0,60,2.0,127.0
1845,71.0,60,60,0.0,100.0
1846,40.0,0,60,2.0,127.0
1847,72.0,60,60,0.0,100.0
1848,74.0,60,60,0.0,100.0
1849,67.0,60,240,0.0,100.0
1850,35.0,0,60,2.0,127.0
1851,36.0,0,60,2.0,127.0
1852,72.0,60,120,0.0,100.0
1853,32.0,60,60,2.0,127.0
1854,60.0,0,0,1.0,100.0
1855,33.0,0,60,2.0,127.0
1856,76.0,0,180,0.0,100.0
1857,31.0,60,60,2.0,127.0
1858,71.0,0,60,0.0,100.0
1859,33.0,60,60,2.0,127.0
1860,72.0,0,60,0.0,100.0
1861,74.0,0,60,0.0,100.0
1862,29.0,60,60,2.0,127.0
1863,76.0,60,60,0.0,100.0
1864,36.0,0,60,2.0,127.0
1865,72.0,60,60,0.0,100.0
1866,33.0,0,60,2.0,127.0
1867,77.0,0,60,0.0,100.0
1868,38.0,60,60,2.0,127.0
1869,79.0,60,60,0.0,100.0
1870,36.0,0,60,2.0,125.0
1871,38.0,60,60,2.0,122.0
1872,77.0,0,60,0.0,100.0
1873,76.0,60,60,0.0,100.0
1874,35.0,0,60,2.0,120.0
1875,41.0,0,60,2.0,118.0
1876,74.0,60,60,0.0,100.0
1877,72.0,0,60,0.0,100.0
1878,38.0,60,60,2.0,115.0
1879,44.0,0,60,2.0,113.0
1880,71.0,60,60,0.0,100.0
1881,42.0,60,60,2.0,111.0
1882,69.0,0,60,0.0,100.0
1883,65.0,60,840,0.0,100.0
1884,71.0,0,60,0.0,100.0
1885,44.0,60,60,2.0,108.0
1886,72.0,60,60,0.0,100.0
1887,40.0,0,60,2.0,106.0
1888,74.0,60,60,0.0,100.0
1889,47.0,0,60,2.0,103.0
1890,71.0,0,60,0.0,100.0
1891,59.0,0,720,1.0,100.0
1892,44.0,60,60,2.0,101.0
1893,72.0,60,60,0.0,100.0
1894,64.0,0,300,0.0,100.0
1895,62.0,60,60,0.0,100.0
1896,45.0,0,120,2.0,100.0
1897,71.0,0,60,0.0,100.0
1898,60.0,0,60,0.0,100.0
1899,69.0,60,60,0.0,100.0
1900,72.0,60,60,0.0,100.0
1901,33.0,0,120,2.0,100.0
1902,64.0,0,60,0.0,100.0
1903,71.0,0,60,0.0,100.0
1904,62.0,60,60,0.0,100.0
1905,64.0,60,60,0.0,100.0
1906,72.0,0,60,0.0,100.0
1907,65.0,0,60,0.0,100.0
1908,74.0,60,60,0.0,100.0
1909,64.0,0,60,0.0,100.0
1910,72.0,60,60,0.0,100.0
1911,74.0,60,60,0.0,100.0
1912,65.0,0,60,0.0,100.0
1913,38.0,0,120,2.0,100.0
1914,67.0,60,60,0.0,100.0
1915,76.0,0,60,0.0,100.0
1916,72.0,60,60,0.0,100.0
1917,64.0,0,60,0.0,100.0
1918,41.0,0,120,2.0,100.0
1919,74.0,0,60,0.0,100.0
1920,65.0,60,60,0.0,100.0
1921,71.0,0,60,0.0,100.0
1922,62.0,60,60,0.0,100.0
1923,69.0,60,60,0.0,100.0
1924,60.0,0,60,0.0,100.0
1925,43.0,0,120,2.0,100.0
1926,67.0,0,60,0.0,100.0
1927,59.0,0,60,0.0,100.0
1928,62.0,60,60,0.0,100.0
1929,71.0,0,60,0.0,100.0
1930,31.0,60,120,2.0,100.0
1931,69.0,60,60,0.0,100.0
1932,60.0,0,60,0.0,100.0
1933,62.0,0,60,0.0,100.0
1934,71.0,60,60,0.0,100.0
1935,64.0,0,60,0.0,100.0
1936,72.0,60,60,0.0,100.0
1937,62.0,0,60,0.0,100.0
1938,71.0,60,60,0.0,100.0
1939,72.0,60,60,0.0,100.0
1940,64.0,0,60,0.0,100.0
1941,36.0,0,120,2.0,100.0
1942,74.0,0,60,0.0,100.0
1943,65.0,60,60,0.0,100.0
1944,71.0,0,60,0.0,100.0
1945,62.0,0,60,0.0,100.0
1946,40.0,60,120,2.0,100.0
1947,72.0,60,60,0.0,100.0
1948,64.0,0,60,0.0,100.0
1949,69.0,0,60,0.0,100.0
1950,60.0,0,60,0.0,100.0
1951,59.0,60,60,0.0,100.0
1952,41.0,60,120,2.0,100.0
1953,68.0,0,60,0.0,100.0
1954,69.0,0,60,0.0,100.0
1955,60.0,60,60,0.0,100.0
1956,45.0,0,120,2.0,100.0
1957,62.0,60,60,0.0,100.0
1958,71.0,0,60,0.0,100.0
1959,59.0,0,60,0.0,100.0
1960,68.0,0,60,0.0,100.0
1961,41.0,60,120,2.0,100.0
1962,69.0,0,60,0.0,100.0
1963,60.0,60,60,0.0,100.0
1964,71.0,0,60,0.0,100.0
1965,62.0,0,60,0.0,100.0
1966,38.0,60,120,2.0,100.0
1967,60.0,60,60,0.0,100.0
1968,69.0,0,60,0.0,100.0
1969,71.0,0,60,0.0,100.0
1970,62.0,0,60,0.0,100.0
1971,72.0,60,60,0.0,100.0
1972,64.0,0,60,0.0,100.0
1973,35.0,60,120,2.0,100.0
1974,69.0,0,60,0.0,100.0
1975,60.0,60,60,0.0,100.0
1976,71.0,0,60,0.0,100.0
1977,38.0,0,120,2.0,100.0
1978,62.0,60,60,0.0,100.0
1979,68.0,0,60,0.0,100.0
1980,40.0,60,120,2.0,100.0
1981,69.0,60,60,0.0,100.0
1982,71.0,0,60,0.0,100.0
1983,44.0,60,120,2.0,100.0
1984,72.0,60,60,0.0,100.0
1985,74.0,0,60,0.0,100.0
1986,59.0,0,360,0.0,100.0
1987,40.0,60,120,2.0,100.0
1988,71.0,60,60,0.0,100.0
1989,57.0,0,60,0.0,100.0
1990,36.0,60,120,2.0,100.0
1991,59.0,60,60,0.0,100.0
1992,60.0,0,60,0.0,100.0
1993,62.0,60,60,0.0,100.0
1994,33.0,60,120,2.0,100.0
1995,64.0,60,60,0.0,100.0
1996,60.0,60,60,0.0,100.0
1997,45.0,60,0,2.0,100.0
1998,76.0,0,480,0.0,100.0
1999,48.0,60,60,2.0,100.0
2000,47.0,60,60,2.0,100.0
2001,48.0,60,60,2.0,100.0
2002,65.0,0,0,0.0,100.0
2003,45.0,60,60,2.0,100.0
2004,47.0,60,60,2.0,100.0
2005,44.0,60,60,2.0,100.0
2006,47.0,60,60,2.0,100.0
2007,74.0,0,360,0.0,100.0
2008,45.0,60,60,2.0,100.0
2009,47.0,60,60,2.0,100.0
2010,64.0,0,240,0.0,100.0
2011,44.0,60,60,2.0,100.0
2012,64.0,0,120,0.0,100.0
2013,72.0,0,240,0.0,100.0
2014,45.0,60,60,2.0,100.0
2015,42.0,0,60,2.0,100.0
2016,45.0,60,60,2.0,100.0
2017,72.0,0,120,0.0,100.0
2018,44.0,60,60,2.0,100.0
2019,45.0,60,60,2.0,100.0
2020,62.0,60,240,0.0,100.0
2021,42.0,60,60,2.0,100.0
2022,43.0,60,60,2.0,100.0
2023,62.0,0,120,0.0,100.0
2024,45.0,60,60,2.0,100.0
2025,71.0,0,360,0.0,100.0
2026,40.0,60,60,2.0,100.0
2027,41.0,0,60,2.0,100.0
2028,60.0,0,240,0.0,100.0
2029,40.0,60,60,2.0,100.0
2030,41.0,60,60,2.0,100.0
2031,60.0,0,120,0.0,100.0
2032,36.0,60,60,2.0,100.0
2033,69.0,60,300,0.0,100.0
2034,68.0,60,60,0.0,100.0
2035,59.0,60,180,0.0,100.0
2036,38.0,0,240,2.0,100.0
2037,60.0,60,60,0.0,100.0
2038,57.0,60,60,0.0,100.0
2039,59.0,60,60,0.0,100.0
2040,69.0,60,300,0.0,100.0
2041,68.0,60,60,0.0,100.0
2042,60.0,60,180,0.0,100.0
2043,40.0,0,240,2.0,100.0
2044,62.0,60,60,0.0,100.0
2045,59.0,60,60,0.0,100.0
2046,60.0,60,60,0.0,100.0
2047,69.0,60,300,0.0,100.0
2048,68.0,60,60,0.0,100.0
2049,62.0,0,180,0.0,100.0
2050,64.0,60,60,0.0,100.0
2051,41.0,60,240,2.0,100.0
2052,60.0,60,60,0.0,100.0
2053,69.0,60,240,0.0,100.0
2054,62.0,60,60,0.0,100.0
2055,69.0,0,60,0.0,100.0
2056,68.0,60,60,0.0,100.0
2057,64.0,0,180,0.0,100.0
2058,36.0,60,240,2.0,100.0
2059,65.0,60,60,0.0,100.0
2060,62.0,60,60,0.0,100.0
2061,64.0,60,60,0.0,100.0
2062,65.0,60,60,0.0,100.0
2063,69.0,60,300,0.0,100.0
2064,68.0,0,60,0.0,100.0
2065,64.0,60,60,0.0,100.0
2066,62.0,60,60,0.0,100.0
2067,38.0,0,192,2.0,100.0
2068,65.0,60,60,0.0,100.0
2069,69.0,0,120,0.0,100.0
2070,64.0,60,60,0.0,100.0
2071,32.0,0,96,2.0,100.0
2072,62.0,60,60,0.0,100.0
2073,71.0,0,120,0.0,100.0
2074,64.0,0,60,0.0,100.0
2075,60.0,60,60,0.0,100.0
2076,33.0,0,96,2.0,100.0
2077,69.0,0,60,0.0,100.0
2078,62.0,60,60,0.0,100.0
2079,59.0,0,30,0.0,100.0
2080,68.0,0,30,0.0,100.0
2081,69.0,30,30,0.0,100.0
2082,60.0,0,30,0.0,100.0
2083,40.0,60,96,2.0,100.0
2084,59.0,30,120,0.0,100.0
2085,68.0,0,120,0.0,100.0
2086,28.0,60,96,2.0,100.0
2087,60.0,60,60,0.0,100.0
2088,69.0,0,60,0.0,100.0
2089,69.0,0,120,0.0,115.0
2090,72.0,120,60,0.0,115.0
2091,71.0,60,60,0.0,115.0
2092,33.0,60,288,2.0,100.0
2093,72.0,60,60,0.0,115.0
2094,69.0,60,60,0.0,115.0
2095,71.0,0,84,0.0,115.0
2096,64.0,120,60,0.0,115.0
2097,71.0,60,60,0.0,115.0
2098,57.0,0,600,0.0,100.0
2099,40.0,60,288,2.0,100.0
2100,76.0,0,60,0.0,115.0
2101,71.0,60,60,0.0,115.0
2102,56.0,60,120,0.0,100.0
2103,72.0,0,84,0.0,115.0
2104,33.0,60,120,2.0,100.0
2105,36.0,120,60,2.0,100.0
2106,35.0,60,60,2.0,100.0
2107,69.0,0,120,0.0,115.0
2108,36.0,60,60,2.0,100.0
2109,33.0,60,60,2.0,100.0
2110,76.0,0,120,0.0,115.0
2111,77.0,0,60,0.0,115.0
2112,76.0,60,60,0.0,115.0
2113,77.0,60,60,0.0,115.0
2114,74.0,60,60,0.0,115.0
2115,57.0,0,0,0.0,100.0
2116,38.0,60,240,2.0,100.0
2117,77.0,0,60,0.0,115.0
2118,72.0,60,60,0.0,115.0
2119,33.0,60,120,2.0,100.0
2120,77.0,0,48,0.0,115.0
2121,35.0,0,120,2.0,100.0
2122,74.0,60,60,0.0,115.0
2123,77.0,60,60,0.0,115.0
2124,71.0,60,60,0.0,115.0
2125,31.0,0,120,2.0,100.0
2126,77.0,0,60,0.0,115.0
2127,35.0,60,120,2.0,100.0
2128,67.0,60,60,0.0,115.0
2129,76.0,0,60,0.0,115.0
2130,74.0,60,60,0.0,115.0
2131,76.0,60,60,0.0,115.0
2132,55.0,0,600,0.0,100.0
2133,36.0,60,240,2.0,100.0
2134,72.0,60,60,0.0,115.0
2135,76.0,60,60,0.0,115.0
2136,71.0,60,60,0.0,115.0
2137,76.0,0,60,0.0,115.0
2138,33.0,0,120,2.0,100.0
2139,72.0,60,60,0.0,115.0
2140,76.0,60,60,0.0,115.0
2141,53.0,60,240,0.0,100.0
2142,69.0,60,60,0.0,115.0
2143,29.0,0,120,2.0,100.0
2144,76.0,0,60,0.0,115.0
2145,60.0,60,0,0.0,100.0
2146,65.0,60,60,0.0,115.0
2147,33.0,60,120,2.0,100.0
2148,74.0,0,60,0.0,115.0
2149,72.0,60,60,0.0,115.0
2150,59.0,0,60,0.0,100.0
2151,74.0,60,60,0.0,115.0
2152,71.0,60,60,0.0,115.0
2153,57.0,0,60,0.0,100.0
2154,35.0,0,240,2.0,100.0
2155,74.0,60,60,0.0,115.0
2156,56.0,0,60,0.0,100.0
2157,69.0,0,60,0.0,115.0
2158,57.0,60,60,0.0,100.0
2159,74.0,0,60,0.0,115.0
2160,71.0,60,60,0.0,115.0
2161,32.0,60,120,2.0,100.0
2162,74.0,60,60,0.0,115.0
2163,28.0,0,120,2.0,100.0
2164,68.0,60,60,0.0,115.0
2165,74.0,0,60,0.0,115.0
2166,59.0,0,360,0.0,100.0
2167,64.0,60,60,0.0,115.0
2168,32.0,60,120,2.0,100.0
2169,72.0,60,60,0.0,100.0
2170,59.0,0,120,0.0,100.0
2171,33.0,0,120,2.0,100.0
2172,69.0,60,60,0.0,100.0
2173,72.0,0,60,0.0,100.0
2174,76.0,60,60,0.0,100.0
2175,57.0,60,120,0.0,100.0
2176,81.0,0,60,0.0,100.0
2177,78.0,60,60,0.0,100.0
2178,79.0,60,60,0.0,100.0
2179,60.0,60,240,0.0,100.0
2180,78.0,60,60,0.0,100.0
2181,79.0,60,60,0.0,100.0
2182,59.0,0,120,0.0,100.0
2183,83.0,60,60,0.0,100.0
2184,40.0,0,240,2.0,100.0
2185,84.0,60,60,0.0,100.0
2186,64.0,0,120,0.0,100.0
2187,81.0,60,60,0.0,100.0
2188,63.0,0,60,0.0,100.0
2189,66.0,60,60,0.0,100.0
2190,83.0,60,180,0.0,100.0
2191,71.0,60,60,0.0,100.0
2192,78.0,60,60,0.0,100.0
2193,63.0,0,60,0.0,100.0
2194,47.0,0,240,2.0,100.0
2195,79.0,60,60,0.0,100.0
2196,75.0,60,60,0.0,100.0
2197,64.0,0,180,0.0,100.0
2198,43.0,0,180,2.0,100.0
2199,76.0,60,60,0.0,100.0
2200,45.0,0,60,2.0,100.0
2201,78.0,0,60,0.0,100.0
2202,69.0,60,60,0.0,100.0
2203,66.0,0,30,0.0,100.0
2204,75.0,0,30,0.0,100.0
2205,67.0,30,30,0.0,100.0
2206,76.0,0,30,0.0,100.0
2207,47.0,60,120,2.0,100.0
2208,75.0,0,120,0.0,100.0
2209,66.0,30,120,0.0,100.0
2210,35.0,60,120,2.0,100.0
2211,76.0,60,0,0.0,90.0
2212,64.0,0,0,0.0,90.0
2213,71.0,60,60,0.0,90.0
2214,72.0,60,60,0.0,90.0
2215,40.0,0,240,2.0,100.0
2216,69.0,60,60,0.0,90.0
2217,71.0,60,60,0.0,90.0
2218,66.0,60,60,0.0,90.0
2219,63.0,60,60,0.0,90.0
2220,59.0,60,60,0.0,90.0
2221,67.0,0,240,0.0,90.0
2222,60.0,60,60,0.0,90.0
2223,28.0,60,240,2.0,100.0
2224,57.0,60,60,0.0,90.0
2225,67.0,60,120,0.0,90.0
2226,54.0,60,60,1.0,90.0
2227,59.0,60,240,0.0,90.0
2228,55.0,0,60,1.0,90.0
2229,51.0,60,60,1.0,90.0
2230,71.0,60,120,0.0,90.0
2231,52.0,60,60,1.0,90.0
2232,67.0,0,120,0.0,90.0
2233,46.0,60,60,1.0,90.0
2234,47.0,0,60,1.0,90.0
2235,51.0,60,60,1.0,90.0
2236,76.0,0,240,0.0,90.0
2237,75.0,0,60,0.0,90.0
2238,54.0,60,60,1.0,90.0
2239,60.0,60,60,1.0,90.0
2240,76.0,0,60,0.0,90.0
2241,57.0,60,60,1.0,90.0
2242,54.0,60,60,1.0,90.0
2243,66.0,60,360,0.0,90.0
2244,78.0,0,180,0.0,90.0
2245,75.0,60,60,0.0,90.0
2246,55.0,60,120,1.0,90.0
2247,76.0,60,60,0.0,90.0
2248,52.0,0,120,1.0,90.0
2249,78.0,60,60,0.0,90.0
2250,71.0,0,300,0.0,90.0
2251,75.0,60,60,0.0,90.0
2252,59.0,60,120,1.0,90.0
2253,60.0,60,60,1.0,90.0
2254,79.0,0,0,0.0,90.0
2255,59.0,60,60,1.0,90.0
2256,76.0,0,180,0.0,90.0
2257,60.0,0,60,1.0,90.0
2258,81.0,60,120,0.0,90.0
2259,57.0,60,60,1.0,90.0
2260,60.0,60,60,1.0,90.0
2261,78.0,0,120,0.0,90.0
2262,55.0,60,60,1.0,90.0
2263,76.0,0,60,0.0,90.0
2264,81.0,0,120,0.0,90.0
2265,60.0,0,60,1.0,90.0
2266,81.0,60,0,0.0,90.0
2267,57.0,0,60,1.0,90.0
2268,60.0,0,60,1.0,90.0
2269,78.0,60,120,0.0,90.0
2270,81.0,60,0,0.0,90.0
2271,54.0,0,60,1.0,90.0
2272,74.0,60,120,0.0,90.0
2273,60.0,0,60,1.0,90.0
2274,69.0,60,60,0.0,90.0
2275,50.0,0,60,1.0,90.0
2276,59.0,0,60,1.0,90.0
2277,78.0,0,60,0.0,90.0
2278,57.0,60,60,1.0,90.0
2279,59.0,60,60,1.0,90.0
2280,74.0,60,180,0.0,90.0
2281,55.0,0,60,1.0,90.0
2282,79.0,60,0,0.0,90.0
2283,59.0,0,60,1.0,90.0
2284,76.0,60,120,0.0,90.0
2285,75.0,0,60,0.0,90.0
2286,54.0,60,60,1.0,90.0
2287,59.0,0,60,1.0,90.0
2288,55.0,60,60,1.0,90.0
2289,79.0,0,0,0.0,90.0
2290,76.0,0,120,0.0,90.0
2291,59.0,60,60,1.0,90.0
2292,52.0,60,60,1.0,90.0
2293,72.0,0,120,0.0,90.0
2294,59.0,0,60,1.0,90.0
2295,67.0,60,60,0.0,90.0
2296,48.0,0,60,1.0,90.0
2297,57.0,0,60,1.0,100.0
2298,79.0,60,180,0.0,90.0
2299,55.0,60,60,1.0,100.0
2300,72.0,60,120,0.0,100.0
2301,76.0,0,60,0.0,100.0
2302,57.0,60,60,1.0,100.0
2303,54.0,60,60,1.0,100.0
2304,78.0,60,0,0.0,100.0
2305,57.0,0,60,1.0,100.0
2306,75.0,0,120,0.0,100.0
2307,52.0,0,60,1.0,100.0
2308,73.0,60,60,0.0,100.0
2309,57.0,60,60,1.0,100.0
2310,54.0,0,60,1.0,100.0
2311,78.0,60,0,0.0,100.0
2312,75.0,60,120,0.0,100.0
2313,57.0,0,60,1.0,100.0
2314,78.0,60,0,0.0,100.0
2315,51.0,60,60,1.0,100.0
2316,71.0,0,120,0.0,100.0
2317,57.0,0,60,1.0,100.0
2318,66.0,0,60,0.0,100.0
2319,47.0,60,60,1.0,100.0
2320,55.0,60,60,1.0,100.0
2321,54.0,60,60,1.0,100.0
2322,55.0,0,60,1.0,100.0
2323,76.0,60,120,0.0,100.0
2324,57.0,60,60,1.0,100.0
2325,59.0,60,60,1.0,100.0
2326,74.0,0,120,0.0,100.0
2327,55.0,60,60,1.0,100.0
2328,57.0,0,60,1.0,100.0
2329,55.0,60,60,1.0,100.0
2330,57.0,60,60,1.0,100.0
2331,71.0,0,540,0.0,100.0
2332,59.0,60,60,1.0,100.0
2333,60.0,60,60,1.0,100.0
2334,69.0,0,120,0.0,100.0
2335,57.0,60,60,1.0,100.0
2336,67.0,0,120,0.0,100.0
2337,62.0,0,60,1.0,100.0
2338,60.0,60,60,1.0,100.0
2339,72.0,60,480,0.0,100.0
2340,62.0,60,60,1.0,100.0
2341,50.0,60,60,1.0,100.0
2342,69.0,0,120,0.0,100.0
2343,54.0,0,60,1.0,100.0
2344,74.0,60,120,0.0,100.0
2345,66.0,60,360,0.0,100.0
2346,50.0,60,60,1.0,100.0
2347,55.0,60,60,1.0,100.0
2348,54.0,60,60,1.0,100.0
2349,66.0,0,120,0.0,100.0
2350,55.0,60,60,1.0,100.0
2351,57.0,60,60,1.0,100.0
2352,62.0,0,120,0.0,100.0
2353,59.0,60,60,1.0,100.0
2354,67.0,0,120,0.0,100.0
2355,55.0,60,60,1.0,100.0
2356,60.0,60,60,1.0,100.0
2357,71.0,0,480,0.0,100.0
2358,59.0,60,60,1.0,100.0
2359,60.0,60,60,1.0,100.0
2360,76.0,0,60,0.0,100.0
2361,74.0,60,60,0.0,100.0
2362,48.0,0,60,1.0,100.0
2363,72.0,60,60,0.0,100.0
2364,52.0,0,60,1.0,100.0
2365,71.0,60,60,0.0,100.0
2366,48.0,0,60,1.0,100.0
2367,64.0,0,420,0.0,100.0
2368,54.0,0,60,1.0,100.0
2369,52.0,0,60,1.0,100.0
2370,67.0,60,60,0.0,100.0
2371,54.0,0,60,1.0,100.0
2372,66.0,60,60,0.0,100.0
2373,55.0,60,60,1.0,100.0
2374,64.0,0,60,0.0,100.0
2375,63.0,0,60,0.0,100.0
2376,57.0,60,60,1.0,100.0
2377,54.0,60,60,1.0,100.0
2378,64.0,0,60,0.0,100.0
2379,69.0,60,420,0.0,100.0
2380,59.0,0,60,1.0,100.0
2381,72.0,60,60,0.0,100.0
2382,57.0,0,60,1.0,100.0
2383,71.0,0,60,0.0,100.0
2384,59.0,60,60,1.0,100.0
2385,69.0,60,60,0.0,100.0
2386,47.0,0,60,1.0,100.0
2387,51.0,60,60,1.0,100.0
2388,67.0,0,60,0.0,100.0
2389,47.0,60,60,1.0,100.0
2390,63.0,60,360,0.0,100.0
2391,66.0,0,60,0.0,100.0
2392,67.0,0,60,0.0,100.0
2393,52.0,60,60,1.0,100.0
2394,51.0,0,60,1.0,100.0
2395,66.0,60,60,0.0,100.0
2396,52.0,0,60,1.0,100.0
2397,67.0,60,60,0.0,100.0
2398,64.0,0,240,0.0,100.0
2399,69.0,0,60,0.0,100.0
2400,54.0,60,60,1.0,100.0
2401,55.0,0,60,1.0,100.0
2402,71.0,60,60,0.0,100.0
2403,67.0,60,60,0.0,100.0
2404,52.0,0,60,1.0,100.0
2405,72.0,0,60,0.0,100.0
2406,57.0,60,60,1.0,100.0
2407,71.0,0,60,0.0,100.0
2408,56.0,60,60,1.0,100.0
2409,72.0,60,60,0.0,100.0
2410,57.0,0,60,1.0,100.0
2411,74.0,60,60,0.0,100.0
2412,45.0,0,60,1.0,100.0
2413,48.0,0,60,1.0,100.0
2414,76.0,60,60,0.0,100.0
2415,72.0,60,60,0.0,100.0
2416,45.0,0,60,1.0,100.0
2417,50.0,60,60,1.0,100.0
2418,49.0,60,60,1.0,100.0
2419,50.0,60,60,1.0,100.0
2420,52.0,60,60,1.0,100.0
2421,53.0,60,60,1.0,100.0
2422,50.0,60,60,1.0,100.0
2423,55.0,60,60,1.0,100.0
2424,54.0,60,60,1.0,100.0
2425,55.0,60,60,1.0,100.0
2426,57.0,60,60,1.0,100.0
2427,59.0,60,60,1.0,100.0
2428,77.0,0,720,0.0,100.0
2429,55.0,60,60,1.0,100.0
2430,76.0,0,60,0.0,100.0
2431,60.0,60,60,0.0,100.0
2432,60.0,0,120,1.0,100.0
2433,62.0,60,60,0.0,100.0
2434,74.0,0,60,0.0,100.0
2435,64.0,0,60,0.0,100.0
2436,72.0,0,60,0.0,100.0
2437,59.0,60,120,1.0,100.0
2438,71.0,0,60,0.0,100.0
2439,62.0,60,60,0.0,100.0
2440,64.0,0,60,0.0,100.0
2441,57.0,60,120,1.0,100.0
2442,60.0,60,60,0.0,100.0
2443,62.0,0,120,0.0,100.0
2444,72.0,0,240,0.0,100.0
2445,71.0,0,30,0.0,100.0
2446,55.0,120,60,0.0,100.0
2447,72.0,30,30,0.0,100.0
2448,62.0,30,60,0.0,100.0
2449,71.0,0,120,0.0,100.0
2450,67.0,60,60,0.0,100.0
2451,69.0,0,30,0.0,100.0
2452,65.0,60,60,0.0,100.0
2453,71.0,30,30,0.0,100.0
2454,55.0,60,360,1.0,100.0
2455,64.0,30,60,0.0,100.0
2456,72.0,0,60,0.0,100.0
2457,62.0,0,60,0.0,100.0
2458,71.0,60,60,0.0,100.0
2459,64.0,0,60,0.0,100.0
2460,72.0,60,60,0.0,100.0
2461,65.0,0,60,0.0,100.0
2462,74.0,60,60,0.0,100.0
2463,67.0,0,60,0.0,100.0
2464,60.0,0,360,1.0,100.0
2465,64.0,60,60,0.0,100.0
2466,53.0,60,60,1.0,100.0
2467,69.0,0,60,0.0,100.0
2468,55.0,60,60,1.0,100.0
2469,67.0,0,60,0.0,100.0
2470,69.0,60,60,0.0,100.0
2471,53.0,0,60,1.0,100.0
2472,65.0,60,60,0.0,100.0
2473,52.0,0,60,1.0,100.0
2474,69.0,60,60,0.0,100.0
2475,50.0,0,60,1.0,100.0
2476,48.0,0,60,1.0,100.0
2477,76.0,60,480,0.0,100.0
2478,64.0,60,60,0.0,100.0
2479,69.0,60,60,0.0,100.0
2480,65.0,60,60,0.0,100.0
2481,47.0,0,120,1.0,100.0
2482,69.0,0,60,0.0,100.0
2483,62.0,60,60,0.0,100.0
2484,59.0,60,120,1.0,100.0
2485,69.0,60,60,0.0,100.0
2486,59.0,60,60,0.0,100.0
2487,47.0,0,120,1.0,100.0
2488,67.0,60,60,0.0,100.0
2489,52.0,0,60,1.0,100.0
2490,53.0,60,60,1.0,100.0
2491,65.0,0,60,0.0,100.0
2492,52.0,60,60,1.0,100.0
2493,67.0,0,60,0.0,100.0
2494,50.0,60,60,1.0,100.0
2495,64.0,0,60,0.0,100.0
2496,67.0,0,60,0.0,100.0
2497,48.0,60,60,1.0,100.0
2498,47.0,60,60,1.0,100.0
2499,62.0,0,60,0.0,100.0
2500,74.0,0,720,0.0,100.0
2501,67.0,0,60,0.0,100.0
2502,64.0,60,60,0.0,100.0
2503,45.0,60,120,1.0,100.0
2504,67.0,0,60,0.0,100.0
2505,60.0,60,60,0.0,100.0
2506,57.0,60,120,1.0,100.0
2507,67.0,0,60,0.0,100.0
2508,57.0,60,60,0.0,100.0
2509,45.0,60,120,1.0,100.0
2510,50.0,0,60,1.0,100.0
2511,65.0,60,60,0.0,100.0
2512,52.0,0,60,1.0,100.0
2513,64.0,60,60,0.0,100.0
2514,50.0,0,60,1.0,100.0
2515,65.0,60,60,0.0,100.0
2516,48.0,60,60,1.0,100.0
2517,62.0,0,60,0.0,100.0
2518,47.0,0,60,1.0,100.0
2519,65.0,60,60,0.0,100.0
2520,60.0,0,60,0.0,100.0
2521,45.0,60,60,1.0,100.0
2522,72.0,0,720,0.0,100.0
2523,65.0,60,60,0.0,100.0
2524,43.0,0,120,1.0,100.0
2525,62.0,60,60,0.0,100.0
2526,65.0,0,60,0.0,100.0
2527,55.0,60,120,1.0,100.0
2528,59.0,60,60,0.0,100.0
2529,65.0,0,60,0.0,100.0
2530,43.0,60,120,1.0,100.0
2531,55.0,60,60,0.0,100.0
2532,64.0,60,60,0.0,100.0
2533,48.0,0,120,1.0,100.0
2534,62.0,60,60,0.0,100.0
2535,71.0,0,540,0.0,100.0
2536,67.0,60,60,0.0,100.0
2537,60.0,60,120,1.0,100.0
2538,72.0,60,60,0.0,100.0
2539,59.0,0,120,1.0,100.0
2540,71.0,60,60,0.0,100.0
2541,64.0,0,240,0.0,100.0
2542,69.0,60,60,0.0,100.0
2543,57.0,0,120,1.0,100.0
2544,64.0,0,60,0.0,100.0
2545,45.0,60,120,1.0,100.0
2546,60.0,60,60,0.0,100.0
2547,67.0,0,60,0.0,100.0
2548,57.0,60,120,1.0,100.0
2549,66.0,0,60,0.0,100.0
2550,64.0,60,60,0.0,100.0
2551,50.0,120,120,1.0,100.0
2552,72.0,60,540,0.0,100.0
2553,69.0,60,60,0.0,100.0
2554,62.0,60,120,1.0,100.0
2555,74.0,60,60,0.0,100.0
2556,66.0,0,240,0.0,100.0
2557,60.0,0,120,1.0,100.0
2558,72.0,60,60,0.0,100.0
2559,59.0,60,120,1.0,100.0
2560,71.0,60,60,0.0,100.0
2561,66.0,0,60,0.0,100.0
2562,47.0,60,120,1.0,100.0
2563,62.0,60,60,0.0,100.0
2564,69.0,0,60,0.0,100.0
2565,59.0,60,120,1.0,100.0
2566,67.0,120,60,0.0,100.0
2567,66.0,60,60,0.0,100.0
2568,52.0,0,120,1.0,100.0
2569,74.0,0,540,0.0,100.0
2570,64.0,0,120,1.0,100.0
2571,71.0,60,60,0.0,100.0
2572,76.0,0,60,0.0,100.0
2573,67.0,60,240,0.0,100.0
2574,74.0,60,60,0.0,100.0
2575,62.0,60,120,1.0,100.0
2576,60.0,0,120,1.0,100.0
2577,72.0,60,60,0.0,100.0
2578,67.0,0,60,0.0,100.0
2579,64.0,60,60,0.0,100.0
2580,48.0,60,120,1.0,100.0
2581,71.0,0,60,0.0,100.0
2582,60.0,60,120,1.0,100.0
2583,69.0,0,60,0.0,100.0
2584,67.0,60,60,0.0,100.0
2585,54.0,120,120,1.0,100.0
2586,76.0,60,0,0.0,100.0
2587,52.0,0,120,1.0,100.0
2588,74.0,0,60,0.0,100.0
2589,72.0,60,60,0.0,100.0
2590,54.0,60,120,1.0,100.0
2591,71.0,60,60,0.0,100.0
2592,69.0,60,60,0.0,100.0
2593,55.0,0,120,1.0,100.0
2594,69.0,60,60,0.0,100.0
2595,54.0,0,120,1.0,100.0
2596,67.0,60,60,0.0,100.0
2597,55.0,0,120,1.0,100.0
2598,66.0,60,60,0.0,100.0
2599,71.0,60,240,0.0,100.0
2600,64.0,0,60,0.0,100.0
2601,48.0,60,120,1.0,100.0
2602,62.0,60,60,0.0,100.0
2603,71.0,60,0,0.0,100.0
2604,47.0,60,120,1.0,100.0
2605,69.0,60,60,0.0,100.0
2606,64.0,0,240,0.0,100.0
2607,67.0,60,60,0.0,100.0
2608,48.0,0,120,1.0,100.0
2609,66.0,0,60,0.0,100.0
2610,64.0,60,60,0.0,100.0
2611,50.0,60,120,1.0,100.0
2612,64.0,60,0,0.0,100.0
2613,48.0,0,120,1.0,100.0
2614,62.0,0,60,0.0,100.0
2615,50.0,60,120,1.0,100.0
2616,60.0,60,60,0.0,100.0
2617,66.0,60,240,0.0,100.0
2618,67.0,0,60,0.0,100.0
2619,69.0,60,60,0.0,100.0
2620,59.0,0,120,0.0,100.0
2621,71.0,60,60,0.0,100.0
2622,69.0,60,60,0.0,100.0
2623,55.0,0,120,0.0,100.0
2624,71.0,60,60,0.0,100.0
2625,67.0,60,60,0.0,100.0
2626,52.0,60,360,1.0,100.0
2627,69.0,60,60,0.0,100.0
2628,60.0,0,240,0.0,100.0
2629,62.0,60,60,0.0,100.0
2630,66.0,60,60,0.0,100.0
2631,59.0,0,120,0.0,100.0
2632,69.0,60,60,0.0,100.0
2633,74.0,60,60,0.0,100.0
2634,72.0,60,60,0.0,100.0
2635,54.0,0,360,1.0,100.0
2636,57.0,0,120,0.0,100.0
2637,71.0,0,60,0.0,100.0
2638,67.0,60,60,0.0,100.0
2639,71.0,60,60,0.0,100.0
2640,57.0,0,120,0.0,100.0
2641,74.0,60,60,0.0,100.0
2642,79.0,0,60,0.0,100.0
2643,77.0,60,60,0.0,100.0
2644,59.0,60,120,0.0,100.0
2645,76.0,0,60,0.0,100.0
2646,74.0,60,60,0.0,100.0
2647,55.0,60,480,1.0,100.0
2648,76.0,0,60,0.0,100.0
2649,52.0,60,120,1.0,100.0
2650,72.0,60,60,0.0,100.0
2651,76.0,60,60,0.0,100.0
2652,48.0,0,120,1.0,100.0
2653,71.0,60,60,0.0,100.0
2654,76.0,0,60,0.0,100.0
2655,60.0,60,480,0.0,100.0
2656,72.0,60,60,0.0,100.0
2657,76.0,60,60,0.0,100.0
2658,59.0,0,120,0.0,100.0
2659,69.0,60,60,0.0,100.0
2660,76.0,60,60,0.0,100.0
2661,57.0,0,120,0.0,100.0
2662,66.0,60,60,0.0,100.0
2663,74.0,60,60,0.0,100.0
2664,54.0,60,480,1.0,100.0
2665,72.0,60,60,0.0,100.0
2666,74.0,60,60,0.0,100.0
2667,71.0,60,60,0.0,100.0
2668,50.0,0,120,1.0,100.0
2669,74.0,60,60,0.0,100.0
2670,69.0,60,60,0.0,100.0
2671,47.0,0,120,1.0,100.0
2672,74.0,0,60,0.0,100.0
2673,71.0,60,60,0.0,100.0
2674,59.0,0,480,0.0,100.0
2675,74.0,60,60,0.0,100.0
2676,57.0,0,120,0.0,100.0
2677,67.0,60,60,0.0,100.0
2678,74.0,0,60,0.0,100.0
2679,64.0,60,60,0.0,100.0
2680,55.0,60,120,0.0,100.0
2681,72.0,60,60,0.0,100.0
2682,71.0,60,60,0.0,100.0
2683,52.0,60,480,1.0,100.0
2684,72.0,60,60,0.0,100.0
2685,48.0,0,120,1.0,100.0
2686,69.0,60,60,0.0,100.0
2687,72.0,0,60,0.0,100.0
2688,57.0,60,0,0.0,100.0
2689,67.0,60,60,0.0,100.0
2690,45.0,60,120,1.0,100.0
2691,72.0,0,60,0.0,100.0
2692,69.0,60,60,0.0,100.0
2693,72.0,0,60,0.0,100.0
2694,66.0,60,60,0.0,100.0
2695,55.0,60,120,0.0,100.0
2696,72.0,0,60,0.0,100.0
2697,62.0,60,60,0.0,100.0
2698,54.0,60,120,0.0,100.0
2699,71.0,0,60,0.0,100.0
2700,69.0,60,60,0.0,100.0
2701,55.0,60,120,0.0,100.0
2702,71.0,0,60,0.0,100.0
2703,67.0,60,60,0.0,100.0
2704,54.0,60,120,0.0,100.0
2705,71.0,0,60,0.0,100.0
2706,62.0,60,60,0.0,100.0
2707,52.0,60,120,0.0,100.0
2708,69.0,0,60,0.0,100.0
2709,67.0,60,60,0.0,100.0
2710,54.0,60,120,0.0,100.0
2711,69.0,60,60,0.0,100.0
2712,66.0,60,60,0.0,100.0
2713,52.0,0,120,0.0,100.0
2714,69.0,0,60,0.0,100.0
2715,54.0,60,120,0.0,100.0
2716,62.0,60,60,0.0,100.0
2717,71.0,60,60,0.0,100.0
2718,69.0,60,60,0.0,100.0
2719,55.0,0,120,0.0,100.0
2720,71.0,0,60,0.0,100.0
2721,54.0,60,120,0.0,100.0
2722,67.0,60,60,0.0,100.0
2723,71.0,60,60,0.0,100.0
2724,62.0,60,60,0.0,100.0
2725,55.0,0,120,0.0,100.0
2726,72.0,0,60,0.0,100.0
2727,57.0,60,120,0.0,100.0
2728,69.0,60,60,0.0,100.0
2729,72.0,60,60,0.0,100.0
2730,66.0,60,60,0.0,100.0
2731,55.0,0,120,0.0,100.0
2732,72.0,0,60,0.0,100.0
2733,62.0,60,60,0.0,100.0
2734,57.0,60,120,0.0,100.0
2735,74.0,60,60,0.0,100.0
2736,71.0,60,60,0.0,100.0
2737,59.0,0,120,0.0,100.0
2738,74.0,0,60,0.0,100.0
2739,67.0,60,60,0.0,100.0
2740,57.0,60,120,0.0,100.0
2741,74.0,0,60,0.0,100.0
2742,59.0,60,120,0.0,100.0
2743,62.0,60,60,0.0,100.0
2744,76.0,60,60,0.0,100.0
2745,73.0,60,60,0.0,100.0
2746,76.0,60,60,0.0,100.0
2747,61.0,0,180,0.0,100.0
2748,71.0,0,60,0.0,100.0
2749,62.0,60,60,0.0,100.0
2750,76.0,0,60,0.0,100.0
2751,59.0,60,60,0.0,100.0
2752,61.0,60,60,0.0,100.0
2753,69.0,0,60,0.0,100.0
2754,77.0,60,60,0.0,100.0
2755,62.0,0,60,0.0,100.0
2756,76.0,60,60,0.0,100.0
2757,64.0,0,60,0.0,100.0
2758,50.0,0,2640,1.0,100.0
2759,74.0,0,60,0.0,100.0
2760,65.0,60,60,0.0,100.0
2761,73.0,0,60,0.0,100.0
2762,64.0,60,60,0.0,100.0
2763,74.0,0,60,0.0,100.0
2764,65.0,60,60,0.0,100.0
2765,77.0,0,60,0.0,100.0
2766,62.0,60,60,0.0,100.0
2767,79.0,0,60,0.0,100.0
2768,64.0,60,84,0.0,100.0
2769,77.0,60,60,0.0,100.0
2770,76.0,0,60,0.0,100.0
2771,57.0,60,60,0.0,100.0
2772,74.0,0,60,0.0,100.0
2773,64.0,60,60,0.0,100.0
2774,76.0,0,60,0.0,100.0
2775,69.0,60,60,0.0,100.0
2776,79.0,0,60,0.0,100.0
2777,64.0,60,60,0.0,100.0
2778,81.0,0,60,0.0,100.0
2779,65.0,60,84,0.0,100.0
2780,79.0,60,60,0.0,100.0
2781,77.0,0,60,0.0,100.0
2782,76.0,60,60,0.0,100.0
2783,62.0,60,120,0.0,100.0
2784,77.0,0,60,0.0,100.0
2785,81.0,60,60,0.0,100.0
2786,69.0,60,120,0.0,100.0
2787,70.0,0,60,0.0,100.0
2788,69.0,60,60,0.0,100.0
2789,74.0,60,120,0.0,100.0
2790,70.0,60,60,0.0,100.0
2791,67.0,60,60,0.0,100.0
2792,76.0,0,120,0.0,100.0
2793,77.0,60,30,0.0,100.0
2794,76.0,30,30,0.0,100.0
2795,70.0,0,60,0.0,100.0
2796,65.0,0,60,0.0,100.0
2797,77.0,30,60,0.0,100.0
2798,70.0,0,60,0.0,100.0
2799,67.0,60,60,0.0,100.0
2800,70.0,60,60,0.0,100.0
2801,64.0,60,60,0.0,100.0
2802,70.0,60,60,0.0,100.0
2803,61.0,60,60,0.0,100.0
2804,79.0,60,360,0.0,100.0
2805,69.0,0,60,0.0,100.0
2806,67.0,60,60,0.0,100.0
2807,73.0,60,120,0.0,100.0
2808,69.0,60,60,0.0,100.0
2809,65.0,60,60,0.0,100.0
2810,74.0,0,120,0.0,100.0
2811,76.0,60,30,0.0,100.0
2812,69.0,0,60,0.0,100.0
2813,75.0,30,30,0.0,100.0
2814,64.0,0,60,0.0,100.0
2815,76.0,30,60,0.0,100.0
2816,69.0,0,60,0.0,100.0
2817,65.0,60,60,0.0,100.0
2818,69.0,60,60,0.0,100.0
2819,62.0,60,60,0.0,100.0
2820,69.0,60,60,0.0,100.0
2821,59.0,60,60,0.0,100.0
2822,67.0,60,60,0.0,100.0
2823,65.0,60,60,0.0,100.0
2824,77.0,60,480,0.0,100.0
2825,67.0,60,60,0.0,100.0
2826,76.0,0,60,0.0,100.0
2827,64.0,0,60,0.0,100.0
2828,74.0,60,60,0.0,100.0
2829,67.0,60,60,0.0,100.0
2830,73.0,0,60,0.0,100.0
2831,62.0,60,60,0.0,100.0
2832,74.0,0,60,0.0,100.0
2833,76.0,60,60,0.0,100.0
2834,67.0,0,60,0.0,100.0
2835,64.0,60,60,0.0,100.0
2836,79.0,0,60,0.0,100.0
2837,82.0,0,60,0.0,100.0
2838,67.0,60,60,0.0,100.0
2839,79.0,0,60,0.0,100.0
2840,61.0,60,60,0.0,100.0
2841,76.0,0,60,0.0,100.0
2842,67.0,60,60,0.0,100.0
2843,57.0,60,60,0.0,100.0
2844,73.0,0,60,0.0,100.0
2845,74.0,60,60,0.0,100.0
2846,77.0,60,60,0.0,100.0
2847,65.0,0,120,0.0,100.0
2848,81.0,60,60,0.0,100.0
2849,77.0,60,60,0.0,100.0
2850,62.0,0,120,0.0,100.0
2851,74.0,0,60,0.0,100.0
2852,72.0,60,60,0.0,100.0
2853,65.0,60,120,0.0,100.0
2854,55.0,60,60,0.0,100.0
2855,70.0,0,60,0.0,100.0
2856,58.0,60,60,0.0,100.0
2857,74.0,0,60,0.0,100.0
2858,62.0,0,60,0.0,100.0
2859,79.0,60,60,0.0,100.0
2860,65.0,60,60,0.0,100.0
2861,74.0,0,60,0.0,100.0
2862,67.0,60,0,0.0,100.0
2863,70.0,60,60,0.0,100.0
2864,65.0,0,60,0.0,100.0
2865,72.0,0,60,0.0,100.0
2866,76.0,60,60,0.0,100.0
2867,64.0,60,120,0.0,100.0
2868,79.0,60,60,0.0,100.0
2869,76.0,60,60,0.0,100.0
2870,60.0,0,120,0.0,100.0
2871,72.0,60,60,0.0,100.0
2872,70.0,60,60,0.0,100.0
2873,64.0,0,120,0.0,100.0
2874,53.0,60,60,0.0,100.0
2875,69.0,0,60,0.0,100.0
2876,57.0,0,60,0.0,100.0
2877,72.0,60,60,0.0,100.0
2878,60.0,60,60,0.0,100.0
2879,77.0,0,60,0.0,100.0
2880,63.0,0,60,0.0,100.0
2881,72.0,60,60,0.0,100.0
2882,65.0,60,0,0.0,100.0
2883,69.0,60,60,0.0,100.0
2884,63.0,0,60,0.0,100.0
2885,70.0,0,60,0.0,100.0
2886,74.0,60,60,0.0,100.0
2887,77.0,60,60,0.0,100.0
2888,74.0,60,60,0.0,100.0
2889,70.0,60,60,0.0,100.0
2890,69.0,60,60,0.0,100.0
2891,68.0,60,60,0.0,100.0
2892,62.0,60,480,0.0,100.0
2893,71.0,60,60,0.0,100.0
2894,60.0,0,60,0.0,100.0
2895,76.0,60,60,0.0,100.0
2896,72.0,0,60,0.0,100.0
2897,59.0,60,60,0.0,100.0
2898,69.0,0,60,0.0,100.0
2899,67.0,60,60,0.0,100.0
2900,66.0,60,60,0.0,100.0
2901,69.0,60,60,0.0,100.0
2902,60.0,60,240,0.0,100.0
2903,59.0,60,60,0.0,100.0
2904,74.0,0,60,0.0,100.0
2905,71.0,60,60,0.0,100.0
2906,57.0,0,60,0.0,100.0
2907,67.0,0,60,0.0,100.0
2908,65.0,60,60,0.0,100.0
2909,64.0,60,60,0.0,100.0
2910,67.0,60,60,0.0,100.0
2911,59.0,60,240,0.0,100.0
2912,72.0,60,60,0.0,100.0
2913,57.0,0,60,0.0,100.0
2914,69.0,60,60,0.0,100.0
2915,56.0,0,60,0.0,100.0
2916,65.0,60,60,0.0,100.0
2917,64.0,60,60,0.0,100.0
2918,62.0,60,60,0.0,100.0
2919,71.0,60,60,0.0,100.0
2920,57.0,0,240,0.0,100.0
2921,62.0,0,60,0.0,100.0
2922,56.0,60,60,0.0,100.0
2923,71.0,60,60,0.0,100.0
2924,54.0,0,60,0.0,100.0
2925,62.0,0,60,0.0,100.0
2926,71.0,60,60,0.0,100.0
2927,56.0,60,120,0.0,100.0
2928,60.0,60,60,0.0,100.0
2929,57.0,0,120,0.0,100.0
2930,69.0,60,60,0.0,100.0
2931,62.0,0,60,0.0,100.0
2932,69.0,60,60,0.0,100.0
2933,59.0,60,120,0.0,100.0
2934,64.0,0,60,0.0,100.0
2935,69.0,60,60,0.0,100.0
2936,60.0,60,120,0.0,100.0
2937,65.0,0,60,0.0,100.0
2938,69.0,60,60,0.0,100.0
2939,65.0,60,60,0.0,100.0
2940,62.0,60,240,0.0,100.0
2941,71.0,60,60,0.0,100.0
2942,65.0,60,60,0.0,100.0
2943,72.0,60,60,0.0,100.0
2944,62.0,0,60,0.0,100.0
2945,74.0,60,60,0.0,100.0
2946,59.0,60,120,0.0,100.0
2947,64.0,0,60,0.0,100.0
2948,74.0,60,60,0.0,100.0
2949,60.0,60,120,0.0,100.0
2950,65.0,0,60,0.0,100.0
2951,74.0,60,60,0.0,100.0
2952,62.0,60,120,0.0,100.0
2953,67.0,0,60,0.0,100.0
2954,71.0,60,60,0.0,100.0
2955,67.0,60,60,0.0,100.0
2956,72.0,60,60,0.0,100.0
2957,64.0,60,240,0.0,100.0
2958,67.0,60,60,0.0,100.0
2959,74.0,60,60,0.0,100.0
2960,64.0,60,60,0.0,100.0
2961,76.0,60,60,0.0,100.0
2962,60.0,0,120,0.0,100.0
2963,65.0,0,60,0.0,100.0
2964,76.0,60,60,0.0,100.0
2965,62.0,60,120,0.0,100.0
2966,67.0,0,60,0.0,100.0
2967,64.0,60,120,0.0,100.0
2968,76.0,60,60,0.0,100.0
2969,69.0,60,60,0.0,100.0
2970,72.0,60,60,0.0,100.0
2971,69.0,60,60,0.0,100.0
2972,74.0,60,60,0.0,100.0
2973,65.0,0,240,0.0,100.0
2974,69.0,60,60,0.0,100.0
2975,76.0,60,60,0.0,100.0
2976,62.0,0,60,0.0,100.0
2977,65.0,60,60,0.0,100.0
2978,62.0,60,60,0.0,100.0
2979,67.0,60,60,0.0,100.0
2980,77.0,60,240,0.0,100.0
2981,62.0,60,60,0.0,100.0
2982,69.0,60,60,0.0,100.0
2983,55.0,0,60,0.0,100.0
2984,67.0,60,60,0.0,100.0
2985,71.0,60,120,0.0,100.0
2986,57.0,0,60,0.0,100.0
2987,67.0,60,60,0.0,100.0
2988,72.0,60,120,0.0,100.0
2989,59.0,0,60,0.0,100.0
2990,67.0,60,60,0.0,100.0
2991,74.0,60,120,0.0,100.0
2992,60.0,0,60,0.0,100.0
2993,64.0,60,60,0.0,100.0
2994,60.0,60,60,0.0,100.0
2995,65.0,60,60,0.0,100.0
2996,76.0,60,240,0.0,100.0
2997,60.0,60,60,0.0,100.0
2998,67.0,60,60,0.0,100.0
2999,53.0,0,60,0.0,100.0
3000,65.0,60,60,0.0,100.0
3001,69.0,60,120,0.0,100.0
3002,55.0,0,60,0.0,100.0
3003,71.0,60,120,0.0,100.0
3004,65.0,60,60,0.0,100.0
3005,57.0,0,60,0.0,100.0
3006,65.0,60,60,0.0,100.0
3007,73.0,60,120,0.0,100.0
3008,58.0,0,60,0.0,100.0
3009,62.0,60,60,0.0,100.0
3010,74.0,60,120,0.0,100.0
3011,58.0,0,60,0.0,100.0
3012,64.0,60,60,0.0,100.0
3013,73.0,60,120,0.0,100.0
3014,58.0,0,60,0.0,100.0
3015,65.0,60,60,0.0,100.0
3016,56.0,60,60,0.0,100.0
3017,64.0,60,60,0.0,100.0
3018,74.0,60,240,0.0,100.0
3019,57.0,60,60,0.0,100.0
3020,72.0,0,60,0.0,100.0
3021,64.0,0,60,0.0,100.0
3022,71.0,60,60,0.0,100.0
3023,59.0,0,60,0.0,100.0
3024,69.0,60,60,0.0,100.0
3025,64.0,0,60,0.0,100.0
3026,68.0,60,60,0.0,100.0
3027,60.0,0,60,0.0,100.0
3028,64.0,60,60,0.0,100.0
3029,76.0,60,120,0.0,100.0
3030,60.0,60,60,0.0,100.0
3031,66.0,60,60,0.0,100.0
3032,69.0,0,120,0.0,100.0
3033,60.0,0,60,0.0,100.0
3034,68.0,60,60,0.0,100.0
3035,71.0,60,120,0.0,100.0
3036,72.0,60,60,0.0,100.0
3037,57.0,0,60,0.0,100.0
3038,69.0,0,60,0.0,100.0
3039,74.0,60,60,0.0,100.0
3040,74.0,60,30,0.0,100.0
3041,67.0,0,60,0.0,100.0
3042,76.0,30,30,0.0,100.0
3043,74.0,0,30,0.0,100.0
3044,76.0,30,30,0.0,100.0
3045,69.0,30,60,0.0,100.0
3046,65.0,0,60,0.0,100.0
3047,74.0,30,60,0.0,100.0
3048,72.0,60,30,0.0,100.0
3049,74.0,30,30,0.0,100.0
3050,69.0,0,60,0.0,100.0
3051,64.0,0,60,0.0,100.0
3052,68.0,60,60,0.0,100.0
3053,64.0,60,60,0.0,100.0
3054,69.0,60,60,0.0,100.0
3055,64.0,60,60,0.0,100.0
3056,71.0,60,60,0.0,100.0
3057,60.0,60,60,0.0,100.0
3058,64.0,60,60,0.0,100.0
3059,60.0,60,60,0.0,100.0
3060,66.0,60,60,0.0,100.0
3061,60.0,60,60,0.0,100.0
3062,68.0,60,60,0.0,100.0
3063,60.0,60,60,0.0,100.0
3064,64.0,60,60,0.0,100.0
3065,33.0,0,120,2.0,127.0
3066,36.0,60,60,2.0,127.0
3067,69.0,0,60,0.0,100.0
3068,35.0,60,60,2.0,127.0
3069,68.0,0,60,0.0,100.0
3070,36.0,60,60,2.0,127.0
3071,69.0,0,60,0.0,100.0
3072,64.0,0,60,0.0,100.0
3073,33.0,60,60,2.0,127.0
3074,62.0,60,60,0.0,100.0
3075,35.0,0,84,2.0,127.0
3076,69.0,60,60,0.0,100.0
3077,68.0,0,60,0.0,100.0
3078,28.0,60,120,2.0,127.0
3079,66.0,60,60,0.0,100.0
3080,68.0,0,60,0.0,100.0
3081,40.0,60,60,2.0,127.0
3082,71.0,60,60,0.0,100.0
3083,35.0,0,60,2.0,127.0
3084,36.0,0,84,2.0,127.0
3085,57.0,60,120,1.0,127.0
3086,60.0,120,60,1.0,127.0
3087,59.0,60,60,1.0,127.0
3088,33.0,0,120,2.0,127.0
3089,60.0,60,60,1.0,127.0
3090,57.0,60,60,1.0,127.0
3091,64.0,0,360,0.0,100.0
3092,59.0,0,84,1.0,127.0
3093,45.0,0,120,2.0,127.0
3094,52.0,120,60,1.0,127.0
3095,59.0,60,60,1.0,127.0
3096,64.0,60,60,1.0,127.0
3097,59.0,60,60,1.0,127.0
3098,44.0,0,240,2.0,127.0
3099,45.0,0,60,2.0,127.0
3100,60.0,60,84,1.0,127.0
3101,71.0,60,480,0.0,100.0
3102,33.0,60,60,2.0,127.0
3103,36.0,0,60,2.0,127.0
3104,57.0,0,120,1.0,127.0
3105,35.0,60,60,2.0,127.0
3106,36.0,60,60,2.0,127.0
3107,64.0,0,120,1.0,127.0
3108,33.0,60,60,2.0,127.0
3109,65.0,0,60,1.0,127.0
3110,64.0,60,60,1.0,127.0
3111,65.0,60,60,1.0,127.0
3112,62.0,60,60,1.0,127.0
3113,38.0,60,240,2.0,115.0
3114,65.0,60,60,1.0,127.0
3115,76.0,30,2880,0.0,100.0
3116,60.0,60,60,1.0,127.0
3117,65.0,0,60,1.0,127.0
3118,62.0,60,60,1.0,127.0
3119,69.0,60,720,0.0,100.0
3120,65.0,60,60,1.0,127.0
3121,35.0,0,60,2.0,115.0
3122,33.0,60,60,2.0,115.0
3123,59.0,0,60,1.0,127.0
3124,35.0,0,60,2.0,115.0
3125,65.0,60,60,1.0,127.0
3126,55.0,0,60,1.0,127.0
3127,31.0,60,60,2.0,115.0
3128,64.0,60,60,1.0,127.0
3129,62.0,60,60,1.0,127.0
3130,64.0,60,60,1.0,127.0
3131,60.0,60,60,1.0,127.0
3132,36.0,0,240,2.0,115.0
3133,64.0,60,60,1.0,127.0
3134,59.0,60,60,1.0,127.0
3135,74.0,60,720,0.0,100.0
3136,64.0,0,60,1.0,127.0
3137,60.0,60,60,1.0,127.0
3138,67.0,0,720,0.0,100.0
3139,33.0,60,60,2.0,115.0
3140,64.0,0,60,1.0,127.0
3141,57.0,60,60,1.0,127.0
3142,31.0,0,60,2.0,115.0
3143,64.0,60,60,1.0,127.0
3144,33.0,0,60,2.0,115.0
3145,29.0,0,60,2.0,115.0
3146,53.0,60,60,1.0,127.0
3147,62.0,0,60,1.0,127.0
3148,60.0,60,60,1.0,127.0
3149,62.0,60,60,1.0,127.0
3150,35.0,60,240,2.0,115.0
3151,59.0,60,60,1.0,127.0
3152,62.0,60,60,1.0,127.0
3153,72.0,60,720,0.0,100.0
3154,57.0,60,60,1.0,127.0
3155,62.0,60,60,1.0,127.0
3156,59.0,60,60,1.0,127.0
3157,65.0,0,720,0.0,100.0
3158,32.0,60,60,2.0,115.0
3159,62.0,0,60,1.0,127.0
3160,56.0,0,60,1.0,127.0
3161,30.0,60,60,2.0,115.0
3162,62.0,60,60,1.0,127.0
3163,32.0,0,60,2.0,115.0
3164,28.0,60,60,2.0,115.0
3165,52.0,0,60,1.0,127.0
3166,60.0,0,60,1.0,127.0
3167,71.0,0,480,0.0,100.0
3168,59.0,60,60,1.0,127.0
3169,60.0,0,60,1.0,127.0
3170,69.0,60,120,0.0,127.0
3171,33.0,60,240,2.0,115.0
3172,57.0,60,60,1.0,127.0
3173,64.0,0,480,0.0,100.0
3174,62.0,0,60,1.0,127.0
3175,68.0,60,120,0.0,127.0
3176,59.0,60,60,1.0,127.0
3177,60.0,0,60,1.0,127.0
3178,69.0,60,60,0.0,127.0
3179,68.0,60,60,0.0,127.0
3180,59.0,0,60,1.0,127.0
3181,60.0,60,60,1.0,127.0
3182,69.0,0,60,0.0,127.0
3183,57.0,60,60,1.0,127.0
3184,72.0,0,60,0.0,127.0
3185,62.0,60,60,1.0,127.0
3186,71.0,0,60,0.0,127.0
3187,74.0,60,60,0.0,127.0
3188,56.0,0,60,1.0,127.0
3189,57.0,0,60,1.0,127.0
3190,72.0,60,60,0.0,127.0
3191,71.0,0,60,0.0,127.0
3192,56.0,60,60,1.0,127.0
3193,57.0,0,60,1.0,127.0
3194,72.0,60,60,0.0,127.0
3195,69.0,0,60,0.0,127.0
3196,52.0,60,60,1.0,127.0
3197,33.0,0,240,2.0,127.0
3198,74.0,60,60,0.0,127.0
3199,56.0,0,60,1.0,127.0
3200,71.0,60,60,0.0,127.0
3201,52.0,0,60,1.0,127.0
3202,72.0,60,60,0.0,127.0
3203,57.0,0,60,1.0,127.0
3204,71.0,60,60,0.0,127.0
3205,56.0,0,60,1.0,127.0
3206,57.0,60,60,1.0,127.0
3207,72.0,0,60,0.0,127.0
3208,52.0,60,60,1.0,127.0
3209,69.0,0,60,0.0,127.0
3210,74.0,0,60,0.0,127.0
3211,59.0,60,60,1.0,127.0
3212,68.0,0,60,0.0,127.0
3213,52.0,60,60,1.0,127.0
3214,60.0,0,60,1.0,127.0
3215,69.0,60,60,0.0,127.0
3216,59.0,60,60,1.0,127.0
3217,68.0,0,60,0.0,127.0
3218,60.0,60,60,1.0,127.0
3219,69.0,0,60,0.0,127.0
3220,64.0,0,60,0.0,127.0
3221,33.0,0,240,2.0,127.0
3222,57.0,60,60,1.0,127.0
3223,62.0,0,60,1.0,127.0
3224,71.0,60,60,0.0,127.0
3225,56.0,60,60,1.0,127.0
3226,64.0,0,60,0.0,127.0
3227,57.0,60,60,1.0,127.0
3228,72.0,0,60,0.0,127.0
3229,56.0,60,60,1.0,127.0
3230,71.0,0,60,0.0,127.0
3231,72.0,0,60,0.0,127.0
3232,57.0,60,60,1.0,127.0
3233,64.0,0,60,0.0,127.0
3234,60.0,60,60,1.0,127.0
3235,74.0,60,60,0.0,127.0
3236,59.0,0,60,1.0,127.0
3237,62.0,0,60,1.0,127.0
3238,64.0,60,60,0.0,127.0
3239,76.0,0,60,0.0,127.0
3240,55.0,60,120,1.0,127.0
3241,77.0,60,60,0.0,127.0
3242,40.0,0,120,2.0,127.0
3243,76.0,0,60,0.0,127.0
3244,74.0,60,60,0.0,127.0
3245,42.0,60,120,2.0,127.0
3246,72.0,60,60,0.0,127.0
3247,71.0,60,60,0.0,127.0
3248,44.0,0,120,2.0,127.0
3249,64.0,0,60,1.0,127.0
3250,72.0,60,60,0.0,127.0
3251,45.0,0,120,2.0,127.0
3252,74.0,0,60,0.0,127.0
3253,65.0,60,60,1.0,127.0
3254,64.0,0,60,1.0,127.0
3255,72.0,60,60,0.0,127.0
3256,62.0,0,60,1.0,127.0
3257,33.0,0,120,2.0,127.0
3258,71.0,60,60,0.0,127.0
3259,72.0,0,60,0.0,127.0
3260,64.0,60,60,1.0,127.0
3261,45.0,0,120,2.0,127.0
3262,60.0,60,60,1.0,127.0
3263,69.0,0,60,0.0,127.0
3264,77.0,0,60,0.0,127.0
3265,69.0,0,60,1.0,127.0
3266,79.0,60,60,0.0,127.0
3267,38.0,60,120,2.0,127.0
3268,71.0,0,60,1.0,127.0
3269,77.0,60,60,0.0,127.0
3270,69.0,0,60,1.0,127.0
3271,67.0,0,60,1.0,127.0
3272,40.0,0,120,2.0,127.0
3273,76.0,60,60,0.0,127.0
3274,74.0,0,60,0.0,127.0
3275,65.0,0,60,1.0,127.0
3276,41.0,60,120,2.0,127.0
3277,64.0,0,60,1.0,127.0
3278,72.0,60,60,0.0,127.0
3279,71.0,60,60,0.0,127.0
3280,72.0,60,60,0.0,127.0
3281,43.0,0,120,2.0,127.0
3282,71.0,60,60,0.0,127.0
3283,31.0,0,120,2.0,127.0
3284,69.0,60,60,0.0,127.0
3285,43.0,60,60,2.0,127.0
3286,71.0,0,60,0.0,127.0
3287,67.0,0,60,0.0,127.0
3288,62.0,60,0,1.0,127.0
3289,45.0,60,60,2.0,127.0
3290,79.0,0,60,0.0,127.0
3291,81.0,60,60,0.0,127.0
3292,47.0,0,120,2.0,127.0
3293,79.0,60,60,0.0,127.0
3294,77.0,60,60,0.0,127.0
3295,45.0,0,120,2.0,127.0
3296,76.0,60,60,0.0,127.0
3297,74.0,60,60,0.0,127.0
3298,43.0,0,120,2.0,127.0
3299,76.0,0,60,0.0,127.0
3300,48.0,60,120,2.0,127.0
3301,60.0,60,60,1.0,127.0
3302,77.0,0,60,0.0,127.0
3303,76.0,0,60,0.0,127.0
3304,62.0,0,60,1.0,127.0
3305,64.0,60,60,1.0,127.0
3306,74.0,0,60,0.0,127.0
3307,36.0,60,120,2.0,127.0
3308,66.0,60,60,1.0,127.0
3309,72.0,0,60,0.0,127.0
3310,68.0,60,60,1.0,127.0
3311,40.0,0,120,2.0,127.0
3312,71.0,0,60,0.0,127.0
3313,72.0,0,60,0.0,127.0
3314,69.0,0,60,1.0,127.0
3315,65.0,60,60,1.0,127.0
3316,74.0,0,60,0.0,127.0
3317,64.0,60,60,1.0,127.0
3318,72.0,0,60,0.0,127.0
3319,62.0,60,60,1.0,127.0
3320,71.0,0,60,0.0,127.0
3321,69.0,60,60,0.0,127.0
3322,60.0,0,60,1.0,127.0
3323,68.0,60,60,0.0,127.0
3324,59.0,0,60,1.0,127.0
3325,69.0,0,60,0.0,127.0
3326,71.0,60,60,0.0,127.0
3327,69.0,60,60,0.0,127.0
3328,67.0,60,60,0.0,127.0
3329,66.0,60,60,0.0,127.0
3330,60.0,60,360,1.0,127.0
3331,64.0,60,60,0.0,127.0
3332,63.0,0,60,0.0,127.0
3333,66.0,60,60,0.0,127.0
3334,45.0,60,900,2.0,127.0
3335,43.0,60,60,2.0,127.0
3336,45.0,60,60,2.0,127.0
3337,42.0,60,60,2.0,127.0
3338,59.0,60,360,1.0,127.0
3339,71.0,60,0,0.0,127.0
3340,64.0,60,60,0.0,127.0
3341,43.0,0,180,2.0,127.0
3342,42.0,60,60,2.0,127.0
3343,43.0,60,60,2.0,127.0
3344,59.0,0,360,1.0,127.0
3345,40.0,60,60,2.0,127.0
3346,76.0,60,300,0.0,127.0
3347,69.0,60,60,0.0,127.0
3348,64.0,0,120,1.0,127.0
3349,48.0,60,180,2.0,127.0
3350,81.0,0,60,0.0,127.0
3351,47.0,0,60,2.0,127.0
3352,79.0,60,60,0.0,127.0
3353,60.0,60,120,1.0,127.0
3354,78.0,0,60,0.0,127.0
3355,48.0,60,60,2.0,127.0
3356,45.0,0,60,2.0,127.0
3357,76.0,60,60,0.0,127.0
3358,47.0,60,60,2.0,127.0
3359,45.0,60,60,2.0,127.0
3360,69.0,0,240,1.0,127.0
3361,47.0,60,60,2.0,127.0
3362,43.0,60,60,2.0,127.0
3363,66.0,0,120,1.0,127.0
3364,45.0,60,60,2.0,127.0
3365,42.0,60,60,2.0,127.0
3366,63.0,0,120,1.0,127.0
3367,43.0,0,60,2.0,127.0
3368,59.0,60,120,1.0,127.0
3369,42.0,60,60,2.0,127.0
3370,75.0,0,480,0.0,127.0
3371,43.0,0,60,2.0,127.0
3372,40.0,60,60,2.0,127.0
3373,71.0,60,120,1.0,127.0
3374,76.0,0,120,0.0,127.0
3375,42.0,60,60,2.0,127.0
3376,69.0,0,120,1.0,127.0
3377,38.0,60,60,2.0,127.0
3378,40.0,0,60,2.0,127.0
3379,38.0,60,60,2.0,127.0
3380,74.0,0,240,0.0,127.0
3381,40.0,60,60,2.0,127.0
3382,36.0,60,60,2.0,127.0
3383,72.0,0,120,0.0,127.0
3384,67.0,60,240,1.0,127.0
3385,38.0,60,60,2.0,127.0
3386,66.0,0,120,1.0,127.0
3387,35.0,60,60,2.0,127.0
3388,36.0,0,60,2.0,127.0
3389,71.0,0,240,0.0,127.0
3390,35.0,60,60,2.0,127.0
3391,36.0,60,60,2.0,127.0
3392,64.0,60,240,1.0,127.0
3393,33.0,60,60,2.0,127.0
3394,69.0,0,120,0.0,127.0
3395,35.0,0,60,2.0,127.0
3396,62.0,0,120,1.0,127.0
3397,31.0,60,60,2.0,127.0
3398,60.0,0,60,1.0,127.0
3399,59.0,60,60,1.0,127.0
3400,67.0,60,240,0.0,127.0
3401,60.0,0,60,1.0,127.0
3402,65.0,60,120,0.0,127.0
3403,57.0,60,60,1.0,127.0
3404,33.0,60,240,2.0,127.0
3405,59.0,0,60,1.0,127.0
3406,55.0,60,60,1.0,127.0
3407,31.0,0,120,2.0,127.0
3408,64.0,60,120,0.0,127.0
3409,63.0,0,60,0.0,127.0
3410,66.0,60,60,0.0,127.0
3411,30.0,60,120,2.0,127.0
3412,69.0,0,60,0.0,127.0
3413,57.0,0,240,1.0,127.0
3414,28.0,60,120,2.0,127.0
3415,72.0,60,60,0.0,127.0
3416,57.0,60,60,1.0,127.0
3417,27.0,0,120,2.0,127.0
3418,69.0,60,60,1.0,127.0
3419,71.0,0,180,0.0,127.0
3420,67.0,60,60,1.0,127.0
3421,28.0,0,120,2.0,127.0
3422,69.0,0,60,0.0,127.0
3423,66.0,60,60,1.0,127.0
3424,64.0,60,60,1.0,127.0
3425,67.0,0,120,0.0,127.0
3426,59.0,60,60,1.0,127.0
3427,63.0,60,60,1.0,127.0
3428,57.0,60,60,1.0,127.0
3429,66.0,0,120,0.0,127.0
3430,35.0,0,240,2.0,127.0
3431,64.0,0,60,0.0,127.0
3432,66.0,60,60,0.0,127.0
3433,67.0,60,60,0.0,127.0
3434,28.0,0,240,2.0,127.0
3435,66.0,60,60,0.0,127.0
3436,71.0,0,120,0.0,127.0
3437,55.0,60,240,1.0,127.0
3438,67.0,60,60,0.0,127.0
3439,64.0,60,60,0.0,127.0
3440,66.0,0,60,0.0,127.0
3441,59.0,60,60,0.0,127.0
3442,76.0,0,240,0.0,127.0
3443,75.0,0,60,0.0,127.0
3444,63.0,60,60,0.0,127.0
3445,73.0,60,60,0.0,127.0
3446,35.0,60,240,2.0,127.0
3447,66.0,0,60,0.0,127.0
3448,71.0,0,60,0.0,127.0
3449,66.0,60,60,0.0,127.0
3450,75.0,60,120,0.0,127.0
3451,76.0,0,60,0.0,127.0
3452,67.0,60,120,0.0,127.0
3453,78.0,60,60,0.0,127.0
3454,79.0,0,60,0.0,127.0
3455,78.0,60,60,0.0,127.0
3456,40.0,0,240,2.0,127.0
3457,59.0,60,120,0.0,127.0
3458,79.0,0,60,0.0,127.0
3459,76.0,60,60,0.0,127.0
3460,64.0,60,0,0.0,127.0
3461,78.0,0,60,0.0,127.0
3462,71.0,60,60,0.0,127.0
3463,75.0,0,60,0.0,127.0
3464,63.0,60,60,0.0,127.0
3465,78.0,60,60,0.0,127.0
3466,61.0,0,60,0.0,127.0
3467,47.0,0,240,2.0,127.0
3468,81.0,0,60,0.0,127.0
3469,78.0,60,60,0.0,127.0
3470,63.0,60,120,0.0,127.0
3471,52.0,60,60,1.0,127.0
3472,64.0,0,120,0.0,127.0
3473,54.0,60,60,1.0,127.0
3474,55.0,60,60,1.0,127.0
3475,54.0,60,60,1.0,127.0
3476,79.0,0,240,0.0,127.0
3477,71.0,0,120,0.0,127.0
3478,40.0,0,240,2.0,127.0
3479,55.0,60,60,1.0,127.0
3480,52.0,60,60,1.0,127.0
3481,83.0,0,120,0.0,127.0
3482,54.0,0,60,1.0,127.0
3483,81.0,0,120,0.0,127.0
3484,76.0,0,240,0.0,127.0
3485,47.0,60,60,1.0,127.0
3486,51.0,60,60,1.0,127.0
3487,75.0,0,60,0.0,127.0
3488,54.0,0,60,1.0,127.0
3489,73.0,60,60,0.0,127.0
3490,35.0,60,240,2.0,127.0
3491,59.0,60,60,1.0,127.0
3492,75.0,0,60,0.0,127.0
3493,54.0,60,60,1.0,127.0
3494,78.0,0,240,0.0,127.0
3495,55.0,0,120,1.0,127.0
3496,64.0,60,60,0.0,127.0
3497,67.0,0,60,0.0,127.0
3498,52.0,60,120,1.0,127.0
3499,28.0,0,240,2.0,127.0
3500,71.0,60,60,0.0,127.0
3501,76.0,0,60,0.0,127.0
3502,71.0,60,60,0.0,127.0
3503,72.0,0,60,0.0,127.0
3504,71.0,60,60,0.0,127.0
3505,55.0,60,240,1.0,127.0
3506,72.0,0,60,0.0,127.0
3507,33.0,60,240,2.0,127.0
3508,54.0,60,120,1.0,127.0
3509,69.0,60,60,0.0,127.0
3510,72.0,0,60,0.0,127.0
3511,52.0,60,120,1.0,127.0
3512,67.0,60,60,0.0,127.0
3513,72.0,60,60,0.0,127.0
3514,54.0,0,120,1.0,127.0
3515,69.0,60,60,0.0,127.0
3516,72.0,0,60,0.0,127.0
3517,50.0,60,120,1.0,127.0
3518,66.0,60,60,0.0,127.0
3519,26.0,0,240,2.0,127.0
3520,72.0,60,60,0.0,127.0
3521,62.0,60,60,0.0,127.0
3522,71.0,0,60,0.0,127.0
3523,69.0,60,60,0.0,127.0
3524,54.0,0,240,1.0,127.0
3525,71.0,60,60,0.0,127.0
3526,52.0,0,120,1.0,127.0
3527,31.0,60,240,2.0,127.0
3528,67.0,60,60,0.0,127.0
3529,71.0,60,60,0.0,127.0
3530,66.0,60,60,0.0,127.0
3531,74.0,0,720,0.0,127.0
3532,50.0,0,120,1.0,127.0
3533,71.0,60,60,0.0,127.0
3534,52.0,0,120,1.0,127.0
3535,67.0,60,60,0.0,127.0
3536,71.0,0,60,0.0,127.0
3537,64.0,60,60,0.0,127.0
3538,48.0,60,120,1.0,127.0
3539,24.0,0,240,2.0,127.0
3540,71.0,0,60,0.0,127.0
3541,60.0,60,60,0.0,127.0
3542,69.0,0,60,0.0,127.0
3543,67.0,60,60,0.0,127.0
3544,52.0,60,240,1.0,127.0
3545,69.0,60,60,0.0,127.0
3546,51.0,0,120,1.0,127.0
3547,30.0,60,240,2.0,127.0
3548,66.0,60,60,0.0,127.0
3549,69.0,0,60,0.0,127.0
3550,52.0,60,120,1.0,127.0
3551,72.0,0,720,0.0,127.0
3552,64.0,60,60,0.0,127.0
3553,69.0,60,60,0.0,127.0
3554,66.0,60,60,0.0,127.0
3555,51.0,0,120,1.0,127.0
3556,69.0,0,60,0.0,127.0
3557,63.0,60,60,0.0,127.0
3558,47.0,60,120,1.0,127.0
3559,69.0,0,60,0.0,127.0
3560,35.0,0,360,2.0,127.0
3561,59.0,60,60,0.0,127.0
3562,51.0,60,120,1.0,127.0
3563,43.0,0,60,2.0,127.0
3564,42.0,60,60,2.0,127.0
3565,67.0,0,120,0.0,127.0
3566,71.0,0,480,0.0,127.0
3567,52.0,60,120,1.0,127.0
3568,43.0,60,60,2.0,127.0
3569,64.0,0,120,0.0,127.0
3570,67.0,0,120,0.0,127.0
3571,40.0,60,60,2.0,127.0
3572,55.0,0,120,1.0,127.0
3573,43.0,0,60,2.0,127.0
3574,38.0,60,60,2.0,127.0
3575,59.0,0,120,1.0,127.0
3576,67.0,0,120,0.0,127.0
3577,76.0,60,120,0.0,127.0
3578,43.0,0,60,2.0,127.0
3579,64.0,0,120,0.0,127.0
3580,73.0,0,120,0.0,127.0
3581,40.0,60,60,2.0,127.0
3582,57.0,60,120,1.0,127.0
3583,43.0,0,60,2.0,127.0
3584,37.0,60,60,2.0,127.0
3585,52.0,0,120,1.0,127.0
3586,69.0,0,120,0.0,127.0
3587,61.0,60,120,0.0,127.0
3588,43.0,60,60,2.0,127.0
3589,33.0,60,60,2.0,127.0
3590,64.0,0,120,0.0,127.0
3591,73.0,0,120,0.0,127.0
3592,41.0,0,60,2.0,127.0
3593,65.0,60,120,0.0,127.0
3594,40.0,60,60,2.0,127.0
3595,74.0,0,120,0.0,127.0
3596,57.0,0,240,1.0,127.0
3597,41.0,60,60,2.0,127.0
3598,53.0,0,120,1.0,127.0
3599,69.0,0,120,0.0,127.0
3600,62.0,0,120,0.0,127.0
3601,38.0,60,60,2.0,127.0
3602,41.0,0,60,2.0,127.0
3603,65.0,0,120,0.0,127.0
3604,36.0,60,60,2.0,127.0
3605,74.0,0,120,0.0,127.0
3606,57.0,60,120,1.0,127.0
3607,41.0,0,60,2.0,127.0
3608,38.0,60,60,2.0,127.0
3609,71.0,0,120,0.0,127.0
3610,62.0,60,120,0.0,127.0
3611,55.0,0,120,1.0,127.0
3612,41.0,0,60,2.0,127.0
3613,35.0,60,60,2.0,127.0
3614,67.0,0,120,0.0,127.0
3615,59.0,0,120,0.0,127.0
3616,50.0,60,120,1.0,127.0
3617,41.0,60,60,2.0,127.0
3618,62.0,0,120,0.0,127.0
3619,31.0,60,60,2.0,127.0
3620,71.0,0,120,0.0,127.0
3621,40.0,0,60,2.0,127.0
3622,38.0,60,60,2.0,127.0
3623,72.0,60,120,0.0,127.0
3624,64.0,0,120,0.0,127.0
3625,55.0,0,240,1.0,127.0
3626,40.0,60,60,2.0,127.0
3627,67.0,0,120,0.0,127.0
3628,76.0,0,120,0.0,127.0
3629,36.0,60,60,2.0,127.0
3630,60.0,0,120,1.0,127.0
3631,40.0,0,60,2.0,127.0
3632,35.0,60,60,2.0,127.0
3633,64.0,0,120,0.0,127.0
3634,72.0,0,120,0.0,127.0
3635,48.0,60,120,1.0,127.0
3636,40.0,60,60,2.0,127.0
3637,36.0,60,60,2.0,127.0
3638,60.0,0,120,0.0,127.0
3639,69.0,0,120,0.0,127.0
3640,40.0,60,60,2.0,127.0
3641,33.0,60,60,2.0,127.0
3642,65.0,0,120,0.0,127.0
3643,57.0,0,120,0.0,127.0
3644,40.0,0,60,2.0,127.0
3645,29.0,60,60,2.0,127.0
3646,53.0,0,0,1.0,127.0
3647,60.0,60,120,0.0,127.0
3648,69.0,0,120,0.0,127.0
3649,38.0,60,60,2.0,127.0
3650,71.0,0,120,0.0,127.0
3651,62.0,0,120,0.0,127.0
3652,36.0,60,60,2.0,127.0
3653,38.0,0,60,2.0,127.0
3654,35.0,60,60,2.0,127.0
3655,59.0,0,120,1.0,127.0
3656,65.0,60,120,0.0,127.0
3657,74.0,0,120,0.0,127.0
3658,38.0,60,60,2.0,127.0
3659,47.0,0,120,1.0,127.0
3660,62.0,0,120,0.0,127.0
3661,71.0,0,120,0.0,127.0
3662,33.0,60,60,2.0,127.0
3663,38.0,0,60,2.0,127.0
3664,68.0,60,120,0.0,127.0
3665,59.0,0,120,0.0,127.0
3666,35.0,60,60,2.0,127.0
3667,38.0,60,60,2.0,127.0
3668,32.0,60,60,2.0,127.0
3669,64.0,0,120,0.0,127.0
3670,56.0,0,120,0.0,127.0
3671,38.0,60,60,2.0,127.0
3672,52.0,0,360,1.0,127.0
3673,59.0,0,120,0.0,127.0
3674,68.0,0,120,0.0,127.0
3675,28.0,60,60,2.0,127.0
3676,52.0,60,60,1.0,127.0
3677,54.0,60,60,1.0,127.0
3678,55.0,60,60,1.0,127.0
3679,36.0,0,240,2.0,127.0
3680,57.0,60,60,1.0,127.0
3681,59.0,60,60,1.0,127.0
3682,60.0,0,360,0.0,127.0
3683,60.0,60,60,1.0,127.0
3684,69.0,0,420,0.0,127.0
3685,71.0,60,60,0.0,127.0
3686,72.0,60,60,0.0,127.0
3687,62.0,60,240,0.0,127.0
3688,54.0,0,240,1.0,127.0
3689,36.0,0,240,2.0,127.0
3690,74.0,60,60,0.0,127.0
3691,76.0,60,60,0.0,127.0
3692,77.0,60,60,0.0,127.0
3693,68.0,0,60,0.0,127.0
3694,69.0,60,60,0.0,127.0
3695,35.0,60,120,2.0,127.0
3696,71.0,0,60,0.0,127.0
3697,62.0,0,120,1.0,127.0
3698,72.0,60,60,0.0,127.0
3699,68.0,0,120,0.0,127.0
3700,47.0,60,120,2.0,127.0
3701,74.0,0,60,0.0,127.0
3702,45.0,0,120,2.0,127.0
3703,76.0,60,60,0.0,127.0
3704,60.0,0,120,1.0,127.0
3705,69.0,60,120,0.0,127.0
3706,77.0,0,60,0.0,127.0
3707,76.0,60,60,0.0,127.0
3708,74.0,60,60,0.0,127.0
3709,77.0,60,60,0.0,127.0
3710,44.0,60,240,2.0,127.0
3711,59.0,0,240,1.0,127.0
3712,71.0,0,240,0.0,127.0
3713,76.0,60,60,0.0,127.0
3714,74.0,60,60,0.0,127.0
3715,72.0,0,60,0.0,127.0
3716,45.0,0,120,2.0,127.0
3717,64.0,0,120,0.0,127.0
3718,76.0,60,60,0.0,127.0
3719,74.0,0,60,0.0,127.0
3720,72.0,60,60,0.0,127.0
3721,69.0,0,120,0.0,127.0
3722,60.0,60,240,1.0,127.0
3723,41.0,60,120,2.0,127.0
3724,71.0,60,60,0.0,127.0
3725,62.0,0,120,1.0,127.0
3726,65.0,0,120,0.0,127.0
3727,69.0,60,60,0.0,127.0
3728,38.0,0,120,2.0,127.0
3729,68.0,0,30,0.0,127.0
3730,67.0,30,30,0.0,127.0
3731,65.0,0,60,0.0,127.0
3732,64.0,0,60,0.0,127.0
3733,62.0,60,60,0.0,127.0
3734,40.0,60,240,2.0,127.0
3735,65.0,60,60,0.0,127.0
3736,59.0,0,240,1.0,127.0
3737,64.0,60,60,0.0,127.0
3738,69.0,0,30,0.0,127.0
3739,68.0,30,30,0.0,127.0
3740,62.0,60,60,0.0,127.0
3741,60.0,0,60,0.0,127.0
3742,64.0,60,60,0.0,127.0
3743,62.0,60,60,0.0,127.0
3744,60.0,60,60,0.0,127.0
3745,57.0,30,240,1.0,127.0
3746,59.0,60,60,0.0,127.0
3747,69.0,0,300,0.0,127.0
3748,57.0,60,60,0.0,127.0
3749,71.0,60,30,0.0,127.0
3750,70.0,30,30,0.0,127.0
3751,53.0,0,60,1.0,127.0
3752,52.0,0,60,1.0,127.0
3753,50.0,60,60,1.0,127.0
3754,55.0,0,240,0.0,127.0
3755,28.0,0,240,2.0,127.0
3756,53.0,60,60,1.0,127.0
3757,52.0,60,60,1.0,127.0
3758,71.0,30,300,0.0,127.0
3759,50.0,60,60,1.0,127.0
3760,72.0,0,30,0.0,127.0
3761,48.0,60,60,1.0,127.0
3762,71.0,30,30,0.0,127.0
3763,52.0,30,60,1.0,127.0
3764,50.0,60,60,1.0,127.0
3765,69.0,0,240,0.0,127.0
3766,48.0,60,60,1.0,127.0
3767,47.0,60,60,1.0,127.0
3768,72.0,0,300,0.0,127.0
3769,45.0,60,60,1.0,127.0
3770,44.0,0,60,1.0,127.0
3771,47.0,60,60,1.0,127.0
3772,52.0,60,60,1.0,127.0
3773,54.0,60,60,1.0,127.0
3774,28.0,0,120,2.0,127.0
3775,56.0,60,60,1.0,127.0
3776,30.0,0,120,2.0,127.0
3777,57.0,60,60,1.0,127.0
3778,59.0,60,60,1.0,127.0
3779,32.0,0,120,2.0,127.0
3780,60.0,60,60,1.0,127.0
3781,62.0,0,60,1.0,127.0
3782,64.0,60,60,1.0,127.0
3783,30.0,60,120,2.0,127.0
3784,66.0,0,60,1.0,127.0
3785,74.0,0,720,0.0,127.0
3786,28.0,60,120,2.0,127.0
3787,68.0,60,60,1.0,127.0
3788,69.0,0,60,1.0,127.0
3789,68.0,60,60,1.0,127.0
3790,69.0,60,60,1.0,127.0
3791,65.0,60,60,1.0,127.0
3792,33.0,0,120,2.0,127.0
3793,64.0,60,60,1.0,127.0
3794,35.0,0,120,2.0,127.0
3795,71.0,60,1080,0.0,127.0
3796,62.0,60,60,1.0,127.0
3797,64.0,0,60,1.0,127.0
3798,36.0,0,120,2.0,127.0
3799,62.0,60,60,1.0,127.0
3800,60.0,0,60,1.0,127.0
3801,35.0,60,120,2.0,127.0
3802,64.0,60,60,1.0,127.0
3803,62.0,0,60,1.0,127.0
3804,72.0,60,720,0.0,127.0
3805,33.0,60,120,2.0,127.0
3806,69.0,60,360,0.0,127.0
3807,60.0,60,60,1.0,127.0
3808,62.0,0,60,1.0,127.0
3809,60.0,60,60,1.0,127.0
3810,69.0,0,120,0.0,127.0
3811,59.0,0,60,1.0,127.0
3812,68.0,60,120,0.0,127.0
3813,40.0,0,120,2.0,127.0
3814,57.0,60,60,1.0,127.0
3815,56.0,0,60,1.0,127.0
3816,42.0,0,120,2.0,127.0
3817,69.0,60,120,0.0,127.0
3818,54.0,60,60,1.0,127.0
3819,52.0,0,60,1.0,127.0
3820,71.0,0,120,0.0,127.0
3821,62.0,60,60,1.0,127.0
3822,44.0,60,120,2.0,127.0
3823,60.0,0,60,1.0,127.0
3824,59.0,60,60,1.0,127.0
3825,72.0,60,120,0.0,127.0
3826,42.0,0,120,2.0,127.0
3827,57.0,0,60,1.0,127.0
3828,56.0,60,60,1.0,127.0
3829,74.0,0,120,0.0,127.0
3830,40.0,60,120,2.0,127.0
3831,57.0,60,60,1.0,127.0
3832,72.0,0,120,0.0,127.0
3833,59.0,60,60,1.0,127.0
3834,60.0,0,60,1.0,127.0
3835,69.0,0,60,0.0,127.0
3836,68.0,0,60,0.0,127.0
3837,59.0,60,60,1.0,127.0
3838,74.0,60,120,0.0,127.0
3839,60.0,0,60,1.0,127.0
3840,57.0,60,60,1.0,127.0
3841,69.0,0,120,0.0,127.0
3842,76.0,60,120,0.0,127.0
3843,59.0,60,84,1.0,127.0
3844,74.0,0,120,0.0,127.0
3845,45.0,0,480,2.0,127.0
3846,77.0,0,120,0.0,127.0
3847,52.0,120,60,1.0,127.0
3848,76.0,0,120,0.0,127.0
3849,59.0,60,60,1.0,127.0
3850,64.0,0,60,1.0,127.0
3851,59.0,60,60,1.0,127.0
3852,74.0,60,120,0.0,127.0
3853,44.0,0,240,2.0,127.0
3854,45.0,0,60,2.0,127.0
3855,60.0,60,84,1.0,127.0
3856,33.0,60,60,2.0,127.0
3857,71.0,0,360,0.0,127.0
3858,36.0,0,60,2.0,127.0
3859,35.0,60,60,2.0,127.0
3860,57.0,60,120,1.0,127.0
3861,64.0,0,120,0.0,127.0
3862,36.0,0,60,2.0,127.0
3863,33.0,60,60,2.0,127.0
3864,64.0,0,120,1.0,127.0
3865,65.0,0,60,1.0,127.0
3866,72.0,0,480,0.0,127.0
3867,64.0,60,60,1.0,127.0
3868,65.0,0,60,1.0,127.0
3869,38.0,60,240,2.0,127.0
3870,81.0,60,120,0.0,127.0
3871,62.0,60,60,1.0,127.0
3872,65.0,0,60,1.0,127.0
3873,69.0,60,480,0.0,127.0
3874,72.0,60,120,0.0,127.0
3875,60.0,60,60,1.0,127.0
3876,65.0,0,60,1.0,127.0
3877,62.0,60,60,1.0,127.0
3878,31.0,0,120,2.0,127.0
3879,65.0,60,60,1.0,127.0
3880,59.0,60,60,1.0,127.0
3881,33.0,0,120,2.0,127.0
3882,65.0,0,60,1.0,127.0
3883,71.0,0,360,0.0,127.0
3884,55.0,60,60,1.0,127.0
3885,35.0,60,120,2.0,127.0
3886,64.0,0,60,1.0,127.0
3887,70.0,60,120,0.0,127.0
3888,62.0,60,60,1.0,127.0
3889,64.0,0,60,1.0,127.0
3890,36.0,0,240,2.0,127.0
3891,60.0,60,60,1.0,127.0
3892,79.0,60,120,0.0,127.0
3893,64.0,0,60,1.0,127.0
3894,67.0,60,720,0.0,127.0
3895,70.0,60,120,0.0,127.0
3896,58.0,60,60,1.0,127.0
3897,64.0,0,60,1.0,127.0
3898,29.0,60,120,2.0,127.0
3899,60.0,60,60,1.0,127.0
3900,64.0,0,60,1.0,127.0
3901,57.0,60,60,1.0,127.0
3902,31.0,60,120,2.0,127.0
3903,64.0,60,60,1.0,127.0
3904,53.0,60,60,1.0,127.0
3905,33.0,0,120,2.0,127.0
3906,62.0,60,60,1.0,127.0
3907,60.0,60,60,1.0,127.0
3908,34.0,0,120,2.0,127.0
3909,69.0,0,480,0.0,127.0
3910,62.0,60,60,1.0,127.0
3911,36.0,0,120,2.0,127.0
3912,58.0,60,60,1.0,127.0
3913,77.0,0,120,0.0,127.0
3914,62.0,60,60,1.0,127.0
3915,38.0,0,120,2.0,127.0
3916,65.0,0,720,0.0,127.0
3917,69.0,0,120,0.0,127.0
3918,57.0,60,60,1.0,127.0
3919,62.0,0,60,1.0,127.0
3920,68.0,0,120,0.0,127.0
3921,59.0,60,60,1.0,127.0
3922,62.0,0,60,1.0,127.0
3923,56.0,60,60,1.0,127.0
3924,28.0,60,240,2.0,127.0
3925,76.0,60,120,0.0,127.0
3926,62.0,0,60,1.0,127.0
3927,52.0,60,60,1.0,127.0
3928,64.0,0,360,0.0,127.0
3929,68.0,60,120,0.0,127.0
3930,60.0,0,60,1.0,127.0
3931,59.0,60,60,1.0,127.0
3932,69.0,60,120,0.0,127.0
3933,60.0,60,60,1.0,127.0
3934,76.0,0,120,0.0,127.0
3935,57.0,60,60,1.0,127.0
3936,64.0,0,240,0.0,127.0
3937,60.0,0,60,1.0,127.0
3938,66.0,60,120,0.0,127.0
3939,69.0,0,120,0.0,127.0
3940,52.0,60,60,1.0,127.0
3941,59.0,0,60,1.0,127.0
3942,57.0,60,60,1.0,127.0
3943,71.0,0,120,0.0,127.0
3944,59.0,60,60,1.0,127.0
3945,76.0,0,120,0.0,127.0
3946,28.0,60,240,2.0,127.0
3947,56.0,60,60,1.0,127.0
3948,68.0,0,240,0.0,127.0
3949,59.0,60,60,1.0,127.0
3950,52.0,60,60,1.0,127.0
3951,68.0,0,120,0.0,127.0
3952,71.0,0,120,0.0,127.0
3953,57.0,60,60,1.0,127.0
3954,56.0,60,60,1.0,127.0
3955,72.0,0,120,0.0,127.0
3956,57.0,0,60,1.0,127.0
3957,54.0,60,60,1.0,127.0
3958,78.0,60,120,0.0,127.0
3959,69.0,0,240,0.0,127.0
3960,57.0,60,60,1.0,127.0
3961,51.0,60,60,1.0,127.0
3962,72.0,0,120,0.0,127.0
3963,69.0,0,120,0.0,127.0
3964,56.0,0,60,1.0,127.0
3965,74.0,0,120,0.0,127.0
3966,71.0,0,120,0.0,127.0
3967,54.0,60,60,1.0,127.0
3968,56.0,0,60,1.0,127.0
3969,74.0,60,120,0.0,127.0
3970,77.0,0,120,0.0,127.0
3971,52.0,60,60,1.0,127.0
3972,28.0,60,240,2.0,127.0
3973,54.0,0,60,1.0,127.0
3974,56.0,60,60,1.0,127.0
3975,76.0,60,120,0.0,127.0
3976,72.0,0,0,0.0,127.0
3977,57.0,60,60,1.0,127.0
3978,56.0,60,60,1.0,127.0
3979,69.0,0,120,0.0,127.0
3980,57.0,60,60,1.0,127.0
3981,72.0,60,0,0.0,127.0
3982,76.0,0,120,0.0,127.0
3983,52.0,60,60,1.0,127.0
3984,56.0,0,60,1.0,127.0
3985,69.0,0,120,0.0,127.0
3986,57.0,60,60,1.0,127.0
3987,59.0,0,60,1.0,127.0
3988,71.0,0,120,0.0,127.0
3989,57.0,60,60,1.0,127.0
3990,59.0,0,60,1.0,127.0
3991,28.0,60,240,2.0,127.0
3992,74.0,60,120,0.0,127.0
3993,68.0,60,0,0.0,127.0
3994,52.0,60,60,1.0,127.0
3995,57.0,0,60,1.0,127.0
3996,59.0,60,60,1.0,127.0
3997,71.0,0,120,0.0,127.0
3998,60.0,60,60,1.0,127.0
3999,59.0,60,60,1.0,127.0
4000,69.0,0,120,0.0,127.0
4001,60.0,60,60,1.0,127.0
4002,52.0,60,60,1.0,127.0
4003,66.0,0,240,0.0,127.0
4004,72.0,0,120,0.0,127.0
4005,59.0,60,60,1.0,127.0
4006,69.0,0,120,0.0,127.0
4007,66.0,0,120,0.0,127.0
4008,60.0,60,60,1.0,127.0
4009,35.0,60,60,2.0,127.0
4010,38.0,60,60,2.0,127.0
4011,36.0,60,60,2.0,127.0
4012,65.0,0,240,0.0,127.0
4013,68.0,0,240,0.0,127.0
4014,59.0,60,240,1.0,127.0
4015,38.0,60,60,2.0,127.0
4016,35.0,60,60,2.0,127.0
4017,44.0,60,60,2.0,127.0
4018,40.0,60,60,2.0,127.0
4019,41.0,60,60,2.0,127.0
4020,40.0,60,60,2.0,127.0
4021,71.0,0,240,0.0,127.0
4022,62.0,0,240,1.0,127.0
4023,59.0,0,240,1.0,127.0
4024,64.0,0,240,0.0,127.0
4025,41.0,60,60,2.0,127.0
4026,38.0,60,60,2.0,127.0
4027,47.0,0,60,2.0,127.0
4028,42.0,60,60,2.0,127.0
4029,44.0,60,60,2.0,127.0
4030,74.0,0,240,0.0,127.0
4031,59.0,0,240,1.0,127.0
4032,62.0,60,240,1.0,127.0
4033,42.0,60,60,2.0,127.0
4034,71.0,0,240,0.0,127.0
4035,68.0,0,240,0.0,127.0
4036,44.0,60,60,2.0,127.0
4037,40.0,60,60,2.0,127.0
4038,50.0,60,60,2.0,127.0
4039,45.0,60,60,2.0,127.0
4040,47.0,60,60,2.0,127.0
4041,71.0,0,240,0.0,127.0
4042,62.0,0,240,1.0,127.0
4043,59.0,0,240,1.0,127.0
4044,68.0,0,240,0.0,127.0
4045,77.0,0,240,0.0,127.0
4046,74.0,0,240,0.0,127.0
4047,45.0,60,60,2.0,127.0
4048,47.0,60,60,2.0,127.0
4049,44.0,60,60,2.0,127.0
4050,48.0,60,60,2.0,127.0
4051,44.0,60,60,2.0,127.0
4052,45.0,60,60,2.0,127.0
4053,69.0,0,240,0.0,127.0
4054,72.0,0,240,0.0,127.0
4055,76.0,0,240,0.0,127.0
4056,60.0,0,240,1.0,127.0
4057,40.0,60,60,2.0,127.0
4058,41.0,60,60,2.0,127.0
4059,39.0,60,60,2.0,127.0
4060,40.0,60,60,2.0,127.0
4061,44.0,60,60,2.0,127.0
4062,45.0,60,60,2.0,127.0
4063,40.0,60,60,2.0,127.0
4064,41.0,60,60,2.0,127.0
4065,39.0,60,60,2.0,127.0
4066,40.0,60,60,2.0,127.0
4067,44.0,60,60,2.0,127.0
4068,45.0,60,60,2.0,127.0
4069,40.0,60,60,2.0,127.0
4070,41.0,60,60,2.0,127.0
4071,39.0,60,60,2.0,127.0
4072,40.0,60,60,2.0,127.0
4073,39.0,60,60,2.0,127.0
4074,40.0,60,60,2.0,127.0
4075,35.0,60,60,2.0,127.0
4076,36.0,60,60,2.0,127.0
4077,32.0,60,60,2.0,127.0
4078,33.0,60,60,2.0,127.0
4079,39.0,60,60,2.0,127.0
4080,40.0,60,60,2.0,127.0
4081,35.0,60,60,2.0,127.0
4082,36.0,60,60,2.0,127.0
4083,32.0,60,60,2.0,127.0
4084,33.0,60,60,2.0,127.0
4085,39.0,60,60,2.0,127.0
4086,40.0,60,60,2.0,127.0
4087,35.0,60,60,2.0,127.0
4088,36.0,60,60,2.0,127.0
4089,32.0,60,60,2.0,127.0
4090,33.0,60,60,2.0,127.0
4091,36.0,60,60,2.0,127.0
4092,36.0,60,60,2.0,127.0
4093,40.0,60,0,2.0,127.0
4094,45.0,60,60,2.0,127.0
4095,36.0,60,60,2.0,127.0
4096,40.0,60,0,2.0,127.0
4097,45.0,60,60,2.0,127.0
4098,45.0,60,60,2.0,127.0
4099,48.0,60,60,2.0,127.0
4100,44.0,60,60,2.0,127.0
4101,45.0,60,60,2.0,127.0
4102,40.0,60,60,2.0,127.0
4103,41.0,60,60,2.0,127.0
4104,39.0,60,60,2.0,127.0
4105,40.0,60,60,2.0,127.0
4106,35.0,60,60,2.0,127.0
4107,36.0,60,60,2.0,127.0
4108,32.0,60,60,2.0,127.0
4109,33.0,60,60,2.0,127.0
4110,28.0,60,60,2.0,127.0
4111,30.0,60,60,2.0,127.0
4112,81.0,30,29,0.0,127.0
4113,83.0,30,29,0.0,127.0
4114,84.0,30,29,0.0,127.0
4115,83.0,30,29,0.0,127.0
4116,81.0,30,29,0.0,127.0
4117,80.0,30,29,0.0,127.0
4118,81.0,30,29,0.0,127.0
4119,27.0,60,240,2.0,127.0
4120,78.0,30,30,0.0,127.0
4121,81.0,30,29,0.0,127.0
4122,83.0,30,29,0.0,127.0
4123,84.0,30,29,0.0,127.0
4124,75.0,30,30,0.0,127.0
4125,81.0,30,29,0.0,127.0
4126,83.0,30,29,0.0,127.0
4127,84.0,30,29,0.0,127.0
4128,83.0,30,29,0.0,127.0
4129,81.0,30,29,0.0,127.0
4130,80.0,30,29,0.0,127.0
4131,81.0,30,29,0.0,127.0
4132,75.0,30,30,0.0,127.0
4133,78.0,30,29,0.0,127.0
4134,80.0,30,29,0.0,127.0
4135,81.0,30,29,0.0,127.0
4136,72.0,30,30,0.0,127.0
4137,81.0,30,29,0.0,127.0
4138,83.0,30,29,0.0,127.0
4139,84.0,30,29,0.0,127.0
4140,83.0,30,29,0.0,127.0
4141,81.0,30,29,0.0,127.0
4142,80.0,30,29,0.0,127.0
4143,81.0,30,29,0.0,127.0
4144,72.0,30,30,0.0,127.0
4145,75.0,30,29,0.0,127.0
4146,76.0,30,29,0.0,127.0
4147,78.0,30,29,0.0,127.0
4148,69.0,30,30,0.0,127.0
4149,81.0,30,29,0.0,127.0
4150,83.0,30,29,0.0,127.0
4151,84.0,30,29,0.0,127.0
4152,83.0,30,29,0.0,127.0
4153,81.0,30,29,0.0,127.0
4154,80.0,30,29,0.0,127.0
4155,81.0,30,29,0.0,127.0
4156,78.0,30,30,0.0,127.0
4157,81.0,30,29,0.0,127.0
4158,83.0,30,29,0.0,127.0
4159,84.0,30,29,0.0,127.0
4160,75.0,30,30,0.0,127.0
4161,78.0,30,29,0.0,127.0
4162,79.0,30,29,0.0,127.0
4163,81.0,30,29,0.0,127.0
4164,72.0,30,30,0.0,127.0
4165,75.0,30,29,0.0,127.0
4166,76.0,30,29,0.0,127.0
4167,78.0,30,29,0.0,127.0
4168,69.0,30,30,0.0,127.0
4169,72.0,30,29,0.0,127.0
4170,71.0,30,29,0.0,127.0
4171,69.0,30,29,0.0,127.0
4172,68.0,30,30,0.0,127.0
4173,71.0,30,29,0.0,127.0
4174,72.0,30,29,0.0,127.0
4175,74.0,30,29,0.0,127.0
4176,72.0,30,29,0.0,127.0
4177,71.0,30,29,0.0,127.0
4178,28.0,0,192,2.0,127.0
4179,69.0,30,29,0.0,127.0
4180,71.0,30,29,0.0,127.0
4181,68.0,30,30,0.0,127.0
4182,71.0,30,29,0.0,127.0
4183,72.0,30,29,0.0,127.0
4184,74.0,30,29,0.0,127.0
4185,65.0,30,30,0.0,127.0
4186,71.0,30,30,0.0,120.0
4187,72.0,30,30,0.0,120.0
4188,74.0,30,30,0.0,120.0
4189,72.0,30,30,0.0,120.0
4190,71.0,30,30,0.0,120.0
4191,69.0,30,30,0.0,120.0
4192,71.0,30,30,0.0,120.0
4193,71.0,30,30,0.0,120.0
4194,68.0,0,60,0.0,115.0
4195,65.0,30,60,0.0,115.0
4196,72.0,30,30,0.0,120.0
4197,74.0,30,30,0.0,120.0
4198,71.0,30,30,0.0,120.0
4199,72.0,30,30,0.0,120.0
4200,65.0,0,120,0.0,115.0
4201,62.0,30,120,0.0,115.0
4202,74.0,30,30,0.0,120.0
4203,68.0,0,120,0.0,115.0
4204,72.0,30,30,0.0,120.0
4205,71.0,30,30,0.0,120.0
4206,69.0,30,30,0.0,120.0
4207,71.0,30,30,0.0,120.0
4208,68.0,0,60,0.0,115.0
4209,62.0,30,60,0.0,115.0
4210,65.0,0,60,0.0,115.0
4211,71.0,30,30,0.0,120.0
4212,72.0,30,30,0.0,120.0
4213,74.0,30,30,0.0,120.0
4214,71.0,30,30,0.0,120.0
4215,72.0,30,30,0.0,120.0
4216,62.0,0,120,0.0,115.0
4217,59.0,30,120,0.0,115.0
4218,74.0,30,30,0.0,120.0
4219,68.0,0,120,0.0,115.0
4220,65.0,0,120,0.0,115.0
4221,72.0,30,30,0.0,120.0
4222,71.0,30,30,0.0,120.0
4223,69.0,30,30,0.0,120.0
4224,71.0,30,30,0.0,120.0
4225,71.0,30,30,0.0,120.0
4226,65.0,0,60,0.0,115.0
4227,59.0,0,60,0.0,115.0
4228,62.0,0,60,0.0,115.0
4229,68.0,30,60,0.0,115.0
4230,72.0,30,30,0.0,120.0
4231,74.0,30,30,0.0,120.0
4232,56.0,30,20,0.0,127.0
4233,59.0,20,20,0.0,127.0
4234,64.0,20,20,0.0,127.0
4235,63.0,20,20,0.0,127.0
4236,71.0,20,20,0.0,127.0
4237,65.0,20,20,0.0,127.0
4238,56.0,20,20,0.0,127.0
4239,59.0,20,20,0.0,127.0
4240,64.0,20,20,0.0,127.0
4241,63.0,20,20,0.0,127.0
4242,71.0,20,20,0.0,127.0
4243,65.0,20,20,0.0,127.0
4244,56.0,20,20,0.0,127.0
4245,59.0,20,20,0.0,127.0
4246,64.0,20,20,0.0,127.0
4247,63.0,20,20,0.0,127.0
4248,71.0,20,20,0.0,127.0
4249,65.0,20,20,0.0,127.0
4250,69.0,0,120,0.0,127.0
4251,28.0,120,0,2.0,127.0
4252,48.0,0,120,1.0,127.0
4253,64.0,0,0,0.0,127.0
4254,60.0,0,120,0.0,127.0
4255,52.0,0,0,1.0,127.0
4256,57.0,0,120,1.0,127.0
4257,68.0,0,120,0.0,127.0
4258,62.0,0,120,0.0,127.0
4259,50.0,0,120,1.0,127.0
4260,47.0,0,120,1.0,127.0
4261,59.0,0,120,0.0,127.0
4262,69.0,0,360,0.0,127.0
4263,64.0,0,360,0.0,127.0
4264,33.0,0,360,2.0,127.0
4265,57.0,0,360,1.0,127.0
4266,52.0,0,360,1.0,127.0
4267,45.0,0,360,1.0,127.0
4268,60.0,120,360,0.0,127.0
