,note,step,duration,channel,velocity
0,62.0,0,48,0.0,110.0
1,61.0,60,48,0.0,110.0
2,62.0,60,48,0.0,110.0
3,64.0,60,48,0.0,110.0
4,61.0,60,48,0.0,110.0
5,62.0,60,48,0.0,110.0
6,65.0,60,48,0.0,110.0
7,61.0,60,48,0.0,110.0
8,62.0,60,48,0.0,110.0
9,67.0,60,48,0.0,110.0
10,61.0,60,48,0.0,110.0
11,62.0,60,48,0.0,110.0
12,69.0,60,48,0.0,110.0
13,61.0,60,48,0.0,110.0
14,62.0,60,48,0.0,110.0
15,70.0,60,48,0.0,110.0
16,69.0,60,48,0.0,110.0
17,67.0,60,48,0.0,110.0
18,65.0,60,48,0.0,110.0
19,64.0,60,48,0.0,110.0
20,62.0,60,48,0.0,110.0
21,68.0,60,48,0.0,110.0
22,69.0,60,48,0.0,110.0
23,71.0,60,48,0.0,110.0
24,57.0,0,48,1.0,110.0
25,72.0,60,96,0.0,110.0
26,56.0,60,48,1.0,110.0
27,57.0,60,48,1.0,110.0
28,59.0,0,48,1.0,110.0
29,68.0,60,96,0.0,110.0
30,56.0,60,48,1.0,110.0
31,57.0,60,48,1.0,110.0
32,64.0,0,48,1.0,110.0
33,69.0,60,96,0.0,110.0
34,56.0,60,48,1.0,110.0
35,57.0,60,48,1.0,110.0
36,62.0,60,48,1.0,110.0
37,71.0,0,96,0.0,110.0
38,56.0,60,48,1.0,110.0
39,57.0,60,48,1.0,110.0
40,64.0,0,48,1.0,110.0
41,72.0,60,96,0.0,110.0
42,56.0,60,48,1.0,110.0
43,57.0,60,48,1.0,110.0
44,65.0,0,48,1.0,110.0
45,74.0,60,48,0.0,110.0
46,76.0,60,48,0.0,110.0
47,64.0,0,48,1.0,110.0
48,62.0,60,48,1.0,110.0
49,77.0,0,48,0.0,110.0
50,60.0,60,48,1.0,110.0
51,76.0,0,48,0.0,110.0
52,59.0,0,48,1.0,110.0
53,74.0,60,48,0.0,110.0
54,57.0,60,48,1.0,110.0
55,72.0,0,48,0.0,110.0
56,63.0,60,48,1.0,110.0
57,72.0,0,48,0.0,110.0
58,71.0,60,48,0.0,110.0
59,64.0,0,48,1.0,110.0
60,69.0,0,48,0.0,110.0
61,66.0,60,48,1.0,110.0
62,69.0,0,48,0.0,110.0
63,64.0,60,96,1.0,110.0
64,67.0,60,48,0.0,110.0
65,66.0,60,48,0.0,110.0
66,67.0,0,24,0.0,110.0
67,63.0,60,48,1.0,110.0
68,66.0,30,24,0.0,110.0
69,67.0,30,24,0.0,110.0
70,62.0,0,48,1.0,110.0
71,66.0,30,24,0.0,110.0
72,64.0,30,24,0.0,110.0
73,60.0,0,48,1.0,110.0
74,66.0,30,24,0.0,110.0
75,58.0,0,48,1.0,110.0
76,67.0,30,48,0.0,110.0
77,57.0,60,48,1.0,110.0
78,69.0,0,48,0.0,110.0
79,55.0,0,48,1.0,110.0
80,70.0,60,48,0.0,110.0
81,61.0,60,48,1.0,110.0
82,70.0,0,48,0.0,110.0
83,62.0,0,48,1.0,110.0
84,69.0,60,48,0.0,110.0
85,64.0,0,48,1.0,110.0
86,67.0,60,48,0.0,110.0
87,70.0,60,24,0.0,110.0
88,50.0,0,48,1.0,110.0
89,69.0,30,24,0.0,110.0
90,70.0,0,24,0.0,110.0
91,65.0,0,96,0.0,110.0
92,49.0,30,48,1.0,110.0
93,69.0,30,24,0.0,110.0
94,70.0,30,24,0.0,110.0
95,50.0,0,48,1.0,110.0
96,69.0,30,24,0.0,110.0
97,70.0,0,24,0.0,110.0
98,52.0,0,48,1.0,110.0
99,69.0,30,24,0.0,110.0
100,70.0,0,24,0.0,110.0
101,61.0,30,96,0.0,110.0
102,49.0,30,48,1.0,110.0
103,69.0,30,24,0.0,110.0
104,70.0,30,24,0.0,110.0
105,50.0,0,48,1.0,110.0
106,69.0,30,24,0.0,110.0
107,70.0,30,24,0.0,110.0
108,53.0,0,48,1.0,110.0
109,69.0,30,24,0.0,110.0
110,70.0,0,24,0.0,110.0
111,62.0,0,96,0.0,110.0
112,49.0,30,48,1.0,110.0
113,69.0,30,24,0.0,110.0
114,70.0,30,24,0.0,110.0
115,50.0,0,48,1.0,110.0
116,69.0,30,24,0.0,110.0
117,70.0,30,24,0.0,110.0
118,55.0,0,48,1.0,110.0
119,69.0,30,24,0.0,110.0
120,70.0,30,24,0.0,110.0
121,64.0,0,96,0.0,110.0
122,49.0,0,48,1.0,110.0
123,69.0,30,24,0.0,110.0
124,70.0,0,24,0.0,110.0
125,50.0,30,48,1.0,110.0
126,57.0,30,48,1.0,110.0
127,69.0,30,126,0.0,110.0
128,65.0,0,96,0.0,110.0
129,49.0,60,48,1.0,110.0
130,50.0,60,48,1.0,110.0
131,58.0,0,48,1.0,110.0
132,67.0,60,48,0.0,110.0
133,57.0,0,48,1.0,110.0
134,69.0,60,48,0.0,110.0
135,55.0,60,48,1.0,110.0
136,70.0,0,48,0.0,110.0
137,53.0,60,48,1.0,110.0
138,69.0,0,48,0.0,110.0
139,52.0,60,48,1.0,110.0
140,67.0,0,48,0.0,110.0
141,65.0,60,48,0.0,110.0
142,50.0,0,48,1.0,110.0
143,65.0,60,48,0.0,110.0
144,56.0,0,48,1.0,110.0
145,57.0,60,48,1.0,110.0
146,64.0,0,48,0.0,110.0
147,59.0,60,48,1.0,110.0
148,62.0,0,48,0.0,110.0
149,65.0,0,24,1.0,110.0
150,69.0,60,48,0.0,110.0
151,64.0,30,24,1.0,110.0
152,65.0,0,24,1.0,110.0
153,60.0,0,96,1.0,110.0
154,68.0,30,48,0.0,110.0
155,64.0,30,24,1.0,110.0
156,65.0,0,24,1.0,110.0
157,69.0,30,48,0.0,110.0
158,64.0,30,24,1.0,110.0
159,65.0,30,24,1.0,110.0
160,71.0,0,48,0.0,110.0
161,64.0,30,24,1.0,110.0
162,65.0,30,24,1.0,110.0
163,56.0,0,96,1.0,110.0
164,68.0,0,48,0.0,110.0
165,64.0,30,24,1.0,110.0
166,65.0,30,24,1.0,110.0
167,69.0,0,48,0.0,110.0
168,64.0,30,24,1.0,110.0
169,65.0,0,24,1.0,110.0
170,72.0,30,48,0.0,110.0
171,64.0,30,24,1.0,110.0
172,65.0,30,24,1.0,110.0
173,57.0,0,96,1.0,110.0
174,68.0,0,48,0.0,110.0
175,64.0,30,24,1.0,110.0
176,65.0,30,24,1.0,110.0
177,69.0,0,48,0.0,110.0
178,64.0,30,24,1.0,110.0
179,65.0,0,24,1.0,110.0
180,74.0,30,48,0.0,110.0
181,64.0,30,24,1.0,110.0
182,65.0,30,24,1.0,110.0
183,59.0,0,96,1.0,110.0
184,68.0,0,48,0.0,110.0
185,64.0,30,24,1.0,110.0
186,65.0,0,24,1.0,110.0
187,69.0,30,48,0.0,110.0
188,76.0,0,48,0.0,110.0
189,60.0,30,96,1.0,110.0
190,64.0,30,126,1.0,110.0
191,68.0,60,48,0.0,110.0
192,69.0,60,48,0.0,110.0
193,77.0,0,48,0.0,110.0
194,59.0,60,96,1.0,110.0
195,68.0,0,96,1.0,110.0
196,76.0,60,48,0.0,110.0
197,74.0,60,48,0.0,110.0
198,73.0,60,48,0.0,110.0
199,67.0,0,96,1.0,110.0
200,57.0,0,96,1.0,110.0
201,71.0,60,48,0.0,110.0
202,69.0,60,48,0.0,110.0
203,75.0,60,48,0.0,110.0
204,60.0,0,96,1.0,110.0
205,66.0,0,96,1.0,110.0
206,76.0,60,48,0.0,110.0
207,78.0,60,48,0.0,110.0
208,79.0,60,48,0.0,110.0
209,58.0,0,96,1.0,110.0
210,64.0,0,96,1.0,110.0
211,81.0,60,48,0.0,110.0
212,82.0,60,48,0.0,110.0
213,75.0,0,48,0.0,110.0
214,66.0,0,96,1.0,110.0
215,57.0,60,96,1.0,110.0
216,74.0,60,48,0.0,110.0
217,72.0,60,48,0.0,110.0
218,71.0,60,48,0.0,110.0
219,65.0,0,96,1.0,110.0
220,55.0,0,96,1.0,110.0
221,69.0,60,48,0.0,110.0
222,67.0,60,48,0.0,110.0
223,73.0,0,48,0.0,110.0
224,64.0,60,96,1.0,110.0
225,57.0,0,96,1.0,110.0
226,74.0,60,48,0.0,110.0
227,76.0,60,48,0.0,110.0
228,52.0,60,24,1.0,110.0
229,77.0,0,48,0.0,110.0
230,50.0,30,24,1.0,110.0
231,52.0,30,24,1.0,110.0
232,62.0,0,96,0.0,110.0
233,79.0,0,48,0.0,110.0
234,50.0,30,24,1.0,110.0
235,52.0,0,24,1.0,110.0
236,50.0,30,24,1.0,110.0
237,52.0,30,24,1.0,110.0
238,81.0,30,108,0.0,110.0
239,50.0,30,24,1.0,110.0
240,52.0,0,24,1.0,110.0
241,70.0,0,96,0.0,110.0
242,78.0,30,48,0.0,110.0
243,50.0,30,24,1.0,110.0
244,52.0,30,24,1.0,110.0
245,50.0,30,24,1.0,110.0
246,52.0,0,24,1.0,110.0
247,79.0,0,108,0.0,110.0
248,50.0,30,24,1.0,110.0
249,52.0,30,24,1.0,110.0
250,69.0,30,96,0.0,110.0
251,76.0,0,48,0.0,110.0
252,50.0,30,24,1.0,110.0
253,52.0,0,24,1.0,110.0
254,50.0,30,24,1.0,110.0
255,52.0,30,24,1.0,110.0
256,77.0,30,108,0.0,110.0
257,50.0,30,24,1.0,110.0
258,52.0,0,24,1.0,110.0
259,67.0,0,96,0.0,110.0
260,74.0,30,48,0.0,110.0
261,50.0,30,24,1.0,110.0
262,52.0,30,24,1.0,110.0
263,50.0,30,24,1.0,110.0
264,52.0,30,24,1.0,110.0
265,76.0,0,108,0.0,110.0
266,50.0,30,24,1.0,110.0
267,52.0,0,24,1.0,110.0
268,65.0,0,96,0.0,110.0
269,73.0,30,48,0.0,110.0
270,50.0,30,24,1.0,110.0
271,52.0,30,24,1.0,110.0
272,50.0,30,24,1.0,110.0
273,52.0,30,24,1.0,110.0
274,74.0,0,108,0.0,110.0
275,50.0,30,24,1.0,110.0
276,52.0,30,24,1.0,110.0
277,66.0,0,96,0.0,110.0
278,71.0,0,48,0.0,110.0
279,50.0,30,24,1.0,110.0
280,52.0,30,24,1.0,110.0
281,50.0,30,24,1.0,110.0
282,52.0,0,24,1.0,110.0
283,72.0,0,108,0.0,110.0
284,50.0,30,24,1.0,110.0
285,52.0,0,24,1.0,110.0
286,67.0,30,96,0.0,110.0
287,69.0,30,48,0.0,110.0
288,50.0,30,24,1.0,110.0
289,52.0,30,24,1.0,110.0
290,50.0,30,24,1.0,110.0
291,52.0,0,24,1.0,110.0
292,70.0,0,108,0.0,110.0
293,50.0,30,24,1.0,110.0
294,52.0,0,24,1.0,110.0
295,61.0,30,96,0.0,110.0
296,69.0,30,48,0.0,110.0
297,50.0,30,24,1.0,110.0
298,52.0,0,24,1.0,110.0
299,67.0,30,48,0.0,110.0
300,50.0,30,24,1.0,110.0
301,58.0,0,24,0.0,110.0
302,38.0,0,48,1.0,110.0
303,57.0,30,24,0.0,110.0
304,58.0,30,24,0.0,110.0
305,65.0,30,96,0.0,110.0
306,37.0,0,48,1.0,110.0
307,57.0,30,24,0.0,110.0
308,58.0,0,24,0.0,110.0
309,38.0,30,48,1.0,110.0
310,57.0,30,24,0.0,110.0
311,58.0,0,24,0.0,110.0
312,40.0,30,48,1.0,110.0
313,57.0,30,24,0.0,110.0
314,58.0,0,24,0.0,110.0
315,61.0,0,96,0.0,110.0
316,37.0,30,48,1.0,110.0
317,57.0,30,24,0.0,110.0
318,58.0,30,24,0.0,110.0
319,38.0,0,48,1.0,110.0
320,57.0,30,24,0.0,110.0
321,58.0,0,24,0.0,110.0
322,41.0,0,48,1.0,110.0
323,57.0,30,24,0.0,110.0
324,58.0,30,24,0.0,110.0
325,62.0,30,96,0.0,110.0
326,37.0,0,48,1.0,110.0
327,57.0,30,24,0.0,110.0
328,58.0,30,24,0.0,110.0
329,38.0,0,48,1.0,110.0
330,57.0,30,24,0.0,110.0
331,58.0,0,24,0.0,110.0
332,43.0,30,48,1.0,110.0
333,57.0,30,24,0.0,110.0
334,58.0,0,24,0.0,110.0
335,64.0,0,96,0.0,110.0
336,37.0,30,48,1.0,110.0
337,57.0,30,24,0.0,110.0
338,58.0,30,24,0.0,110.0
339,38.0,0,48,1.0,110.0
340,45.0,30,48,1.0,110.0
341,65.0,0,96,0.0,110.0
342,57.0,30,126,0.0,110.0
343,37.0,60,48,1.0,110.0
344,38.0,60,48,1.0,110.0
345,46.0,0,48,1.0,110.0
346,73.0,60,96,0.0,110.0
347,64.0,0,96,0.0,110.0
348,45.0,60,48,1.0,110.0
349,43.0,60,48,1.0,110.0
350,42.0,60,48,1.0,110.0
351,72.0,0,96,0.0,110.0
352,62.0,0,96,0.0,110.0
353,40.0,60,48,1.0,110.0
354,38.0,60,48,1.0,110.0
355,44.0,0,48,1.0,110.0
356,65.0,0,96,0.0,110.0
357,71.0,60,96,0.0,110.0
358,45.0,60,48,1.0,110.0
359,47.0,60,48,1.0,110.0
360,48.0,60,48,1.0,110.0
361,63.0,0,96,0.0,110.0
362,69.0,0,96,0.0,110.0
363,50.0,60,48,1.0,110.0
364,51.0,60,48,1.0,110.0
365,44.0,60,48,1.0,110.0
366,62.0,0,96,0.0,110.0
367,71.0,0,96,0.0,110.0
368,43.0,60,48,1.0,110.0
369,41.0,60,48,1.0,110.0
370,40.0,0,48,1.0,110.0
371,60.0,60,96,0.0,110.0
372,70.0,0,96,0.0,110.0
373,38.0,60,48,1.0,110.0
374,36.0,60,48,1.0,110.0
375,42.0,0,48,1.0,110.0
376,63.0,60,96,0.0,110.0
377,69.0,0,96,0.0,110.0
378,43.0,60,48,1.0,110.0
379,45.0,60,48,1.0,110.0
380,46.0,0,48,1.0,110.0
381,67.0,0,96,0.0,110.0
382,62.0,60,96,0.0,110.0
383,45.0,60,48,1.0,110.0
384,43.0,60,48,1.0,110.0
385,49.0,0,48,1.0,110.0
386,69.0,60,48,0.0,110.0
387,71.0,0,48,0.0,110.0
388,50.0,60,48,1.0,110.0
389,52.0,0,48,1.0,110.0
390,73.0,60,48,0.0,110.0
391,74.0,60,48,0.0,110.0
392,53.0,0,48,1.0,110.0
393,52.0,60,48,1.0,110.0
394,76.0,0,48,0.0,110.0
395,77.0,60,48,0.0,110.0
396,50.0,0,48,1.0,110.0
397,56.0,0,48,1.0,110.0
398,57.0,60,48,1.0,110.0
399,59.0,60,48,1.0,110.0
400,76.0,0,48,0.0,110.0
401,75.0,60,48,0.0,110.0
402,71.0,60,324,0.0,110.0
403,76.0,60,48,0.0,110.0
404,78.0,60,48,0.0,110.0
405,60.0,60,288,1.0,110.0
406,75.0,60,48,0.0,110.0
407,69.0,0,144,0.0,110.0
408,76.0,60,48,0.0,110.0
409,80.0,60,48,0.0,110.0
410,59.0,0,96,1.0,110.0
411,62.0,0,96,1.0,110.0
412,75.0,60,48,0.0,110.0
413,76.0,60,48,0.0,110.0
414,81.0,0,48,0.0,110.0
415,57.0,60,96,1.0,110.0
416,60.0,0,96,1.0,110.0
417,75.0,60,48,0.0,110.0
418,76.0,60,48,0.0,110.0
419,83.0,0,48,0.0,110.0
420,56.0,60,96,1.0,110.0
421,59.0,0,96,1.0,110.0
422,75.0,60,48,0.0,110.0
423,76.0,60,48,0.0,110.0
424,84.0,0,48,0.0,110.0
425,54.0,0,96,1.0,110.0
426,63.0,60,96,1.0,110.0
427,83.0,60,48,0.0,110.0
428,81.0,60,48,0.0,110.0
429,80.0,60,48,0.0,110.0
430,52.0,0,96,1.0,110.0
431,62.0,0,96,1.0,110.0
432,78.0,60,48,0.0,110.0
433,76.0,60,48,0.0,110.0
434,82.0,60,48,0.0,110.0
435,61.0,0,96,1.0,110.0
436,57.0,0,96,1.0,110.0
437,81.0,60,48,0.0,110.0
438,79.0,60,48,0.0,110.0
439,78.0,60,48,0.0,110.0
440,50.0,0,96,1.0,110.0
441,60.0,0,96,1.0,110.0
442,76.0,60,48,0.0,110.0
443,74.0,60,48,0.0,110.0
444,77.0,0,48,0.0,110.0
445,56.0,0,96,1.0,110.0
446,59.0,60,96,1.0,110.0
447,76.0,60,48,0.0,110.0
448,74.0,60,48,0.0,110.0
449,72.0,60,48,0.0,110.0
450,57.0,0,96,1.0,110.0
451,57.0,0,96,0.0,110.0
452,71.0,60,48,0.0,110.0
453,69.0,0,48,0.0,110.0
454,75.0,60,48,0.0,110.0
455,54.0,0,96,1.0,110.0
456,76.0,60,48,0.0,110.0
457,53.0,0,24,1.0,110.0
458,78.0,60,108,0.0,110.0
459,52.0,30,24,1.0,110.0
460,53.0,0,24,1.0,110.0
461,68.0,60,96,0.0,110.0
462,76.0,30,48,0.0,110.0
463,52.0,30,24,1.0,110.0
464,53.0,0,24,1.0,110.0
465,52.0,30,24,1.0,110.0
466,53.0,0,24,1.0,110.0
467,77.0,30,108,0.0,110.0
468,52.0,30,24,1.0,110.0
469,53.0,30,24,1.0,110.0
470,67.0,30,96,0.0,110.0
471,75.0,0,48,0.0,110.0
472,52.0,30,24,1.0,110.0
473,53.0,30,24,1.0,110.0
474,52.0,30,24,1.0,110.0
475,53.0,30,24,1.0,110.0
476,76.0,0,108,0.0,110.0
477,52.0,30,24,1.0,110.0
478,53.0,0,24,1.0,110.0
479,66.0,0,96,0.0,110.0
480,75.0,30,48,0.0,110.0
481,52.0,30,24,1.0,110.0
482,53.0,30,24,1.0,110.0
483,52.0,30,24,1.0,110.0
484,53.0,0,24,1.0,110.0
485,76.0,0,108,0.0,110.0
486,52.0,30,24,1.0,110.0
487,53.0,0,24,1.0,110.0
488,65.0,30,96,0.0,110.0
489,73.0,30,48,0.0,110.0
490,52.0,30,24,1.0,110.0
491,53.0,30,24,1.0,110.0
492,52.0,30,24,1.0,110.0
493,53.0,0,24,1.0,110.0
494,74.0,0,108,0.0,110.0
495,52.0,30,24,1.0,110.0
496,53.0,30,24,1.0,110.0
497,64.0,30,96,0.0,110.0
498,73.0,0,48,0.0,110.0
499,52.0,30,24,1.0,110.0
500,53.0,30,24,1.0,110.0
501,52.0,30,24,1.0,110.0
502,53.0,30,24,1.0,110.0
503,74.0,0,108,0.0,110.0
504,52.0,30,24,1.0,110.0
505,53.0,30,24,1.0,110.0
506,69.0,0,96,0.0,110.0
507,71.0,0,48,0.0,110.0
508,52.0,30,24,1.0,110.0
509,53.0,30,24,1.0,110.0
510,52.0,30,24,1.0,110.0
511,53.0,30,24,1.0,110.0
512,72.0,0,108,0.0,110.0
513,52.0,30,24,1.0,110.0
514,53.0,30,24,1.0,110.0
515,63.0,0,96,0.0,110.0
516,71.0,0,48,0.0,110.0
517,52.0,30,24,1.0,110.0
518,53.0,0,24,1.0,110.0
519,52.0,30,24,1.0,110.0
520,53.0,30,24,1.0,110.0
521,72.0,30,108,0.0,110.0
522,52.0,30,24,1.0,110.0
523,53.0,0,24,1.0,110.0
524,62.0,0,96,0.0,110.0
525,69.0,30,48,0.0,110.0
526,52.0,30,24,1.0,110.0
527,53.0,0,24,1.0,110.0
528,52.0,30,24,1.0,110.0
529,53.0,30,24,1.0,110.0
530,70.0,30,108,0.0,110.0
531,52.0,30,24,1.0,110.0
532,53.0,0,24,1.0,110.0
533,61.0,0,96,0.0,110.0
534,69.0,30,48,0.0,110.0
535,52.0,30,24,1.0,110.0
536,53.0,30,24,1.0,110.0
537,52.0,30,24,1.0,110.0
538,53.0,0,24,1.0,110.0
539,70.0,0,108,0.0,110.0
540,52.0,30,24,1.0,110.0
541,53.0,0,24,1.0,110.0
542,60.0,30,96,0.0,110.0
543,68.0,30,48,0.0,110.0
544,52.0,30,24,1.0,110.0
545,53.0,30,24,1.0,110.0
546,52.0,30,24,1.0,110.0
547,53.0,0,24,1.0,110.0
548,69.0,0,108,0.0,110.0
549,52.0,30,24,1.0,110.0
550,53.0,30,24,1.0,110.0
551,59.0,30,96,0.0,110.0
552,68.0,0,48,0.0,110.0
553,52.0,30,24,1.0,110.0
554,53.0,0,24,1.0,110.0
555,52.0,30,24,1.0,110.0
556,53.0,0,24,1.0,110.0
557,69.0,30,108,0.0,110.0
558,52.0,30,24,1.0,110.0
559,53.0,0,24,1.0,110.0
560,62.0,30,96,0.0,110.0
561,66.0,30,48,0.0,110.0
562,52.0,30,24,1.0,110.0
563,53.0,0,24,1.0,110.0
564,68.0,30,48,0.0,110.0
565,52.0,30,24,1.0,110.0
566,69.0,30,48,0.0,110.0
567,61.0,0,48,1.0,110.0
568,59.0,60,48,1.0,110.0
569,68.0,0,48,0.0,110.0
570,61.0,0,48,1.0,110.0
571,69.0,60,48,0.0,110.0
572,62.0,0,48,1.0,110.0
573,71.0,60,48,0.0,110.0
574,68.0,60,48,0.0,110.0
575,59.0,0,48,1.0,110.0
576,61.0,60,48,1.0,110.0
577,69.0,0,48,0.0,110.0
578,64.0,0,48,1.0,110.0
579,73.0,60,48,0.0,110.0
580,68.0,0,48,0.0,110.0
581,59.0,60,48,1.0,110.0
582,69.0,0,48,0.0,110.0
583,61.0,60,48,1.0,110.0
584,74.0,60,48,0.0,110.0
585,65.0,0,48,1.0,110.0
586,68.0,0,48,0.0,110.0
587,64.0,60,48,1.0,110.0
588,62.0,0,48,1.0,110.0
589,69.0,60,48,0.0,110.0
590,61.0,0,48,1.0,110.0
591,76.0,60,48,0.0,110.0
592,68.0,0,48,0.0,110.0
593,59.0,60,48,1.0,110.0
594,69.0,60,48,0.0,110.0
595,61.0,0,48,1.0,110.0
596,77.0,60,48,0.0,110.0
597,62.0,0,48,1.0,110.0
598,76.0,60,48,0.0,110.0
599,68.0,0,48,0.0,110.0
600,74.0,60,48,0.0,110.0
601,65.0,0,113,1.0,110.0
602,73.0,0,48,0.0,110.0
603,76.0,60,48,0.0,110.0
604,80.0,60,48,0.0,110.0
605,64.0,60,288,1.0,110.0
606,69.0,0,288,0.0,110.0
607,81.0,60,144,0.0,110.0
608,57.0,0,1440,1.0,110.0
609,62.0,180,48,0.0,110.0
610,61.0,60,48,0.0,110.0
611,62.0,60,48,0.0,110.0
612,64.0,60,48,0.0,110.0
613,61.0,60,48,0.0,110.0
614,62.0,60,48,0.0,110.0
615,65.0,60,48,0.0,110.0
616,61.0,60,48,0.0,110.0
617,62.0,60,48,0.0,110.0
618,67.0,60,48,0.0,110.0
619,61.0,60,48,0.0,110.0
620,62.0,60,48,0.0,110.0
621,69.0,60,48,0.0,110.0
622,61.0,60,48,0.0,110.0
623,62.0,60,48,0.0,110.0
624,70.0,60,48,0.0,110.0
625,69.0,60,48,0.0,110.0
626,67.0,60,48,0.0,110.0
627,65.0,60,48,0.0,110.0
628,64.0,60,48,0.0,110.0
629,62.0,60,48,0.0,110.0
630,68.0,60,48,0.0,110.0
631,69.0,60,48,0.0,110.0
632,71.0,60,48,0.0,110.0
633,57.0,0,48,1.0,110.0
634,72.0,60,96,0.0,110.0
635,56.0,60,48,1.0,110.0
636,57.0,60,48,1.0,110.0
637,59.0,60,48,1.0,110.0
638,68.0,0,96,0.0,110.0
639,56.0,60,48,1.0,110.0
640,57.0,60,48,1.0,110.0
641,64.0,60,48,1.0,110.0
642,69.0,0,96,0.0,110.0
643,56.0,60,48,1.0,110.0
644,57.0,60,48,1.0,110.0
645,62.0,60,48,1.0,110.0
646,71.0,0,96,0.0,110.0
647,56.0,60,48,1.0,110.0
648,57.0,60,48,1.0,110.0
649,64.0,60,48,1.0,110.0
650,72.0,0,96,0.0,110.0
651,56.0,60,48,1.0,110.0
652,57.0,60,48,1.0,110.0
653,65.0,60,48,1.0,110.0
654,74.0,0,48,0.0,110.0
655,76.0,60,48,0.0,110.0
656,64.0,0,48,1.0,110.0
657,77.0,60,48,0.0,110.0
658,62.0,0,48,1.0,110.0
659,76.0,60,48,0.0,110.0
660,60.0,0,48,1.0,110.0
661,59.0,0,48,1.0,110.0
662,74.0,60,48,0.0,110.0
663,57.0,60,48,1.0,110.0
664,72.0,0,48,0.0,110.0
665,63.0,60,48,1.0,110.0
666,72.0,0,48,0.0,110.0
667,64.0,60,48,1.0,110.0
668,71.0,0,48,0.0,110.0
669,69.0,60,48,0.0,110.0
670,66.0,0,48,1.0,110.0
671,69.0,0,48,0.0,110.0
672,64.0,60,96,1.0,110.0
673,67.0,60,48,0.0,110.0
674,66.0,60,48,0.0,110.0
675,67.0,60,24,0.0,110.0
676,63.0,0,48,1.0,110.0
677,66.0,30,24,0.0,110.0
678,67.0,30,24,0.0,110.0
679,62.0,0,48,1.0,110.0
680,66.0,30,24,0.0,110.0
681,64.0,30,24,0.0,110.0
682,60.0,0,48,1.0,110.0
683,66.0,30,24,0.0,110.0
684,67.0,30,48,0.0,110.0
685,58.0,0,48,1.0,110.0
686,57.0,0,48,1.0,110.0
687,69.0,60,48,0.0,110.0
688,55.0,60,48,1.0,110.0
689,70.0,0,48,0.0,110.0
690,61.0,0,48,1.0,110.0
691,70.0,60,48,0.0,110.0
692,69.0,60,48,0.0,110.0
693,62.0,0,48,1.0,110.0
694,64.0,0,48,1.0,110.0
695,67.0,60,48,0.0,110.0
696,70.0,60,24,0.0,110.0
697,50.0,0,48,1.0,110.0
698,69.0,30,24,0.0,110.0
699,70.0,0,24,0.0,110.0
700,65.0,0,96,0.0,110.0
701,49.0,30,48,1.0,110.0
702,69.0,30,24,0.0,110.0
703,70.0,0,24,0.0,110.0
704,50.0,30,48,1.0,110.0
705,69.0,30,24,0.0,110.0
706,70.0,30,24,0.0,110.0
707,52.0,0,48,1.0,110.0
708,69.0,30,24,0.0,110.0
709,70.0,30,24,0.0,110.0
710,61.0,0,96,0.0,110.0
711,49.0,0,48,1.0,110.0
712,69.0,30,24,0.0,110.0
713,70.0,0,24,0.0,110.0
714,50.0,30,48,1.0,110.0
715,69.0,30,24,0.0,110.0
716,70.0,0,24,0.0,110.0
717,53.0,30,48,1.0,110.0
718,69.0,30,24,0.0,110.0
719,70.0,30,24,0.0,110.0
720,62.0,0,96,0.0,110.0
721,49.0,0,48,1.0,110.0
722,69.0,30,24,0.0,110.0
723,70.0,30,24,0.0,110.0
724,50.0,0,48,1.0,110.0
725,69.0,30,24,0.0,110.0
726,70.0,30,24,0.0,110.0
727,55.0,0,48,1.0,110.0
728,69.0,30,24,0.0,110.0
729,70.0,0,24,0.0,110.0
730,64.0,0,96,0.0,110.0
731,49.0,30,48,1.0,110.0
732,69.0,30,24,0.0,110.0
733,70.0,30,24,0.0,110.0
734,50.0,0,48,1.0,110.0
735,57.0,30,48,1.0,110.0
736,69.0,30,126,0.0,110.0
737,65.0,0,96,0.0,110.0
738,49.0,60,48,1.0,110.0
739,50.0,60,48,1.0,110.0
740,67.0,0,48,0.0,110.0
741,58.0,60,48,1.0,110.0
742,57.0,0,48,1.0,110.0
743,69.0,60,48,0.0,110.0
744,70.0,0,48,0.0,110.0
745,55.0,60,48,1.0,110.0
746,53.0,60,48,1.0,110.0
747,69.0,0,48,0.0,110.0
748,52.0,0,48,1.0,110.0
749,67.0,60,48,0.0,110.0
750,65.0,60,48,0.0,110.0
751,50.0,0,48,1.0,110.0
752,56.0,60,48,1.0,110.0
753,65.0,0,48,0.0,110.0
754,64.0,0,48,0.0,110.0
755,57.0,60,48,1.0,110.0
756,62.0,60,48,0.0,110.0
757,59.0,0,48,1.0,110.0
758,65.0,0,24,1.0,110.0
759,69.0,60,48,0.0,110.0
760,64.0,30,24,1.0,110.0
761,65.0,30,24,1.0,110.0
762,60.0,0,96,1.0,110.0
763,68.0,0,48,0.0,110.0
764,64.0,30,24,1.0,110.0
765,65.0,30,24,1.0,110.0
766,69.0,0,48,0.0,110.0
767,64.0,30,24,1.0,110.0
768,65.0,30,24,1.0,110.0
769,71.0,0,48,0.0,110.0
770,64.0,30,24,1.0,110.0
771,65.0,30,24,1.0,110.0
772,56.0,0,96,1.0,110.0
773,68.0,0,48,0.0,110.0
774,64.0,30,24,1.0,110.0
775,65.0,0,24,1.0,110.0
776,69.0,30,48,0.0,110.0
777,64.0,30,24,1.0,110.0
778,65.0,0,24,1.0,110.0
779,72.0,30,48,0.0,110.0
780,64.0,30,24,1.0,110.0
781,65.0,0,24,1.0,110.0
782,57.0,0,96,1.0,110.0
783,68.0,30,48,0.0,110.0
784,64.0,30,24,1.0,110.0
785,65.0,30,24,1.0,110.0
786,69.0,0,48,0.0,110.0
787,64.0,30,24,1.0,110.0
788,65.0,0,24,1.0,110.0
789,74.0,0,48,0.0,110.0
790,64.0,30,24,1.0,110.0
791,65.0,30,24,1.0,110.0
792,59.0,30,96,1.0,110.0
793,68.0,0,48,0.0,110.0
794,64.0,30,24,1.0,110.0
795,65.0,30,24,1.0,110.0
796,69.0,0,48,0.0,110.0
797,76.0,0,48,0.0,110.0
798,60.0,30,96,1.0,110.0
799,64.0,30,126,1.0,110.0
800,68.0,60,48,0.0,110.0
801,69.0,60,48,0.0,110.0
802,77.0,60,48,0.0,110.0
803,68.0,0,96,1.0,110.0
804,59.0,0,96,1.0,110.0
805,76.0,60,48,0.0,110.0
806,74.0,60,48,0.0,110.0
807,73.0,60,48,0.0,110.0
808,57.0,0,96,1.0,110.0
809,67.0,0,96,1.0,110.0
810,71.0,60,48,0.0,110.0
811,69.0,60,48,0.0,110.0
812,75.0,0,48,0.0,110.0
813,66.0,0,96,1.0,110.0
814,60.0,60,96,1.0,110.0
815,76.0,60,48,0.0,110.0
816,78.0,60,48,0.0,110.0
817,79.0,0,48,0.0,110.0
818,64.0,0,96,1.0,110.0
819,58.0,60,96,1.0,110.0
820,81.0,60,48,0.0,110.0
821,82.0,60,48,0.0,110.0
822,75.0,0,48,0.0,110.0
823,66.0,60,96,1.0,110.0
824,57.0,0,96,1.0,110.0
825,74.0,60,48,0.0,110.0
826,72.0,60,48,0.0,110.0
827,71.0,0,48,0.0,110.0
828,65.0,0,96,1.0,110.0
829,55.0,60,96,1.0,110.0
830,69.0,60,48,0.0,110.0
831,67.0,60,48,0.0,110.0
832,73.0,0,48,0.0,110.0
833,57.0,0,96,1.0,110.0
834,64.0,60,96,1.0,110.0
835,74.0,60,48,0.0,110.0
836,76.0,60,48,0.0,110.0
837,52.0,60,24,1.0,110.0
838,77.0,0,48,0.0,110.0
839,50.0,30,24,1.0,110.0
840,52.0,0,24,1.0,110.0
841,62.0,0,96,0.0,110.0
842,79.0,30,48,0.0,110.0
843,50.0,30,24,1.0,110.0
844,52.0,0,24,1.0,110.0
845,50.0,30,24,1.0,110.0
846,52.0,30,24,1.0,110.0
847,81.0,30,108,0.0,110.0
848,50.0,30,24,1.0,110.0
849,52.0,0,24,1.0,110.0
850,70.0,0,96,0.0,110.0
851,78.0,30,48,0.0,110.0
852,50.0,30,24,1.0,110.0
853,52.0,30,24,1.0,110.0
854,50.0,30,24,1.0,110.0
855,52.0,0,24,1.0,110.0
856,79.0,0,108,0.0,110.0
857,50.0,30,24,1.0,110.0
858,52.0,30,24,1.0,110.0
859,69.0,30,96,0.0,110.0
860,76.0,0,48,0.0,110.0
861,50.0,30,24,1.0,110.0
862,52.0,30,24,1.0,110.0
863,50.0,30,24,1.0,110.0
864,52.0,0,24,1.0,110.0
865,77.0,0,108,0.0,110.0
866,50.0,30,24,1.0,110.0
867,52.0,30,24,1.0,110.0
868,67.0,30,96,0.0,110.0
869,74.0,0,48,0.0,110.0
870,50.0,30,24,1.0,110.0
871,52.0,0,24,1.0,110.0
872,50.0,30,24,1.0,110.0
873,52.0,30,24,1.0,110.0
874,76.0,30,108,0.0,110.0
875,50.0,30,24,1.0,110.0
876,52.0,30,24,1.0,110.0
877,65.0,0,96,0.0,110.0
878,73.0,0,48,0.0,110.0
879,50.0,30,24,1.0,110.0
880,52.0,30,24,1.0,110.0
881,50.0,30,24,1.0,110.0
882,52.0,0,24,1.0,110.0
883,74.0,0,108,0.0,110.0
884,50.0,30,24,1.0,110.0
885,52.0,0,24,1.0,110.0
886,66.0,30,96,0.0,110.0
887,71.0,30,48,0.0,110.0
888,50.0,30,24,1.0,110.0
889,52.0,30,24,1.0,110.0
890,50.0,30,24,1.0,110.0
891,52.0,30,24,1.0,110.0
892,72.0,0,108,0.0,110.0
893,50.0,30,24,1.0,110.0
894,52.0,30,24,1.0,110.0
895,67.0,0,96,0.0,110.0
896,69.0,0,48,0.0,110.0
897,50.0,30,24,1.0,110.0
898,52.0,0,24,1.0,110.0
899,50.0,30,24,1.0,110.0
900,52.0,0,24,1.0,110.0
901,70.0,30,108,0.0,110.0
902,50.0,30,24,1.0,110.0
903,52.0,0,24,1.0,110.0
904,61.0,30,96,0.0,110.0
905,69.0,30,48,0.0,110.0
906,50.0,30,24,1.0,110.0
907,52.0,30,24,1.0,110.0
908,67.0,0,48,0.0,110.0
909,50.0,30,24,1.0,110.0
910,58.0,0,24,0.0,110.0
911,38.0,30,48,1.0,110.0
912,57.0,30,24,0.0,110.0
913,58.0,30,24,0.0,110.0
914,65.0,0,96,0.0,110.0
915,37.0,0,48,1.0,110.0
916,57.0,30,24,0.0,110.0
917,58.0,0,24,0.0,110.0
918,38.0,30,48,1.0,110.0
919,57.0,30,24,0.0,110.0
920,58.0,0,24,0.0,110.0
921,40.0,0,48,1.0,110.0
922,57.0,30,24,0.0,110.0
923,58.0,30,24,0.0,110.0
924,61.0,30,96,0.0,110.0
925,37.0,0,48,1.0,110.0
926,57.0,30,24,0.0,110.0
927,58.0,30,24,0.0,110.0
928,38.0,0,48,1.0,110.0
929,57.0,30,24,0.0,110.0
930,58.0,0,24,0.0,110.0
931,41.0,30,48,1.0,110.0
932,57.0,30,24,0.0,110.0
933,58.0,0,24,0.0,110.0
934,62.0,0,96,0.0,110.0
935,37.0,30,48,1.0,110.0
936,57.0,30,24,0.0,110.0
937,58.0,0,24,0.0,110.0
938,38.0,30,48,1.0,110.0
939,57.0,30,24,0.0,110.0
940,58.0,30,24,0.0,110.0
941,43.0,0,48,1.0,110.0
942,57.0,30,24,0.0,110.0
943,58.0,0,24,0.0,110.0
944,64.0,0,96,0.0,110.0
945,37.0,30,48,1.0,110.0
946,57.0,30,24,0.0,110.0
947,58.0,0,24,0.0,110.0
948,38.0,30,48,1.0,110.0
949,45.0,0,48,1.0,110.0
950,65.0,30,96,0.0,110.0
951,57.0,30,126,0.0,110.0
952,37.0,60,48,1.0,110.0
953,38.0,60,48,1.0,110.0
954,46.0,60,48,1.0,110.0
955,73.0,0,96,0.0,110.0
956,64.0,0,96,0.0,110.0
957,45.0,60,48,1.0,110.0
958,43.0,60,48,1.0,110.0
959,42.0,60,48,1.0,110.0
960,62.0,0,96,0.0,110.0
961,72.0,0,96,0.0,110.0
962,40.0,60,48,1.0,110.0
963,38.0,60,48,1.0,110.0
964,44.0,0,48,1.0,110.0
965,71.0,0,96,0.0,110.0
966,65.0,60,96,0.0,110.0
967,45.0,60,48,1.0,110.0
968,47.0,60,48,1.0,110.0
969,48.0,0,48,1.0,110.0
970,69.0,60,96,0.0,110.0
971,63.0,0,96,0.0,110.0
972,50.0,60,48,1.0,110.0
973,51.0,60,48,1.0,110.0
974,44.0,0,48,1.0,110.0
975,62.0,60,96,0.0,110.0
976,71.0,0,96,0.0,110.0
977,43.0,60,48,1.0,110.0
978,41.0,60,48,1.0,110.0
979,40.0,60,48,1.0,110.0
980,70.0,0,96,0.0,110.0
981,60.0,0,96,0.0,110.0
982,38.0,60,48,1.0,110.0
983,36.0,60,48,1.0,110.0
984,42.0,60,48,1.0,110.0
985,63.0,0,96,0.0,110.0
986,69.0,0,96,0.0,110.0
987,43.0,60,48,1.0,110.0
988,45.0,60,48,1.0,110.0
989,46.0,0,48,1.0,110.0
990,67.0,0,96,0.0,110.0
991,62.0,60,96,0.0,110.0
992,45.0,60,48,1.0,110.0
993,43.0,60,48,1.0,110.0
994,69.0,0,48,0.0,110.0
995,49.0,60,48,1.0,110.0
996,50.0,0,48,1.0,110.0
997,71.0,60,48,0.0,110.0
998,73.0,0,48,0.0,110.0
999,52.0,60,48,1.0,110.0
1000,53.0,60,48,1.0,110.0
1001,74.0,0,48,0.0,110.0
1002,76.0,0,48,0.0,110.0
1003,52.0,60,48,1.0,110.0
1004,50.0,60,48,1.0,110.0
1005,77.0,0,48,0.0,110.0
1006,56.0,60,48,1.0,110.0
1007,57.0,60,48,1.0,110.0
1008,59.0,60,48,1.0,110.0
1009,76.0,0,48,0.0,110.0
1010,75.0,60,48,0.0,110.0
1011,71.0,0,324,0.0,110.0
1012,76.0,60,48,0.0,110.0
1013,78.0,0,48,0.0,110.0
1014,75.0,60,48,0.0,110.0
1015,60.0,60,288,1.0,110.0
1016,69.0,60,144,0.0,110.0
1017,76.0,60,48,0.0,110.0
1018,80.0,0,48,0.0,110.0
1019,59.0,60,96,1.0,110.0
1020,62.0,0,96,1.0,110.0
1021,75.0,60,48,0.0,110.0
1022,76.0,60,48,0.0,110.0
1023,81.0,0,48,0.0,110.0
1024,60.0,60,96,1.0,110.0
1025,57.0,0,96,1.0,110.0
1026,75.0,60,48,0.0,110.0
1027,76.0,60,48,0.0,110.0
1028,83.0,60,48,0.0,110.0
1029,56.0,0,96,1.0,110.0
1030,59.0,0,96,1.0,110.0
1031,75.0,60,48,0.0,110.0
1032,76.0,60,48,0.0,110.0
1033,84.0,60,48,0.0,110.0
1034,54.0,0,96,1.0,110.0
1035,63.0,0,96,1.0,110.0
1036,83.0,60,48,0.0,110.0
1037,81.0,60,48,0.0,110.0
1038,80.0,60,48,0.0,110.0
1039,62.0,0,96,1.0,110.0
1040,52.0,0,96,1.0,110.0
1041,78.0,60,48,0.0,110.0
1042,76.0,60,48,0.0,110.0
1043,82.0,0,48,0.0,110.0
1044,57.0,60,96,1.0,110.0
1045,61.0,0,96,1.0,110.0
1046,81.0,60,48,0.0,110.0
1047,79.0,60,48,0.0,110.0
1048,78.0,60,48,0.0,110.0
1049,60.0,0,96,1.0,110.0
1050,50.0,0,96,1.0,110.0
1051,76.0,60,48,0.0,110.0
1052,74.0,60,48,0.0,110.0
1053,77.0,0,48,0.0,110.0
1054,56.0,0,96,1.0,110.0
1055,59.0,60,96,1.0,110.0
1056,76.0,60,48,0.0,110.0
1057,74.0,60,48,0.0,110.0
1058,72.0,60,48,0.0,110.0
1059,57.0,0,96,1.0,110.0
1060,57.0,0,96,0.0,110.0
1061,71.0,60,48,0.0,110.0
1062,69.0,0,48,0.0,110.0
1063,75.0,60,48,0.0,110.0
1064,54.0,0,96,1.0,110.0
1065,76.0,60,48,0.0,110.0
1066,53.0,60,24,1.0,110.0
1067,78.0,60,108,0.0,110.0
1068,52.0,30,24,1.0,110.0
1069,53.0,0,24,1.0,110.0
1070,68.0,0,96,0.0,110.0
1071,76.0,30,48,0.0,110.0
1072,52.0,30,24,1.0,110.0
1073,53.0,30,24,1.0,110.0
1074,52.0,30,24,1.0,110.0
1075,53.0,30,24,1.0,110.0
1076,77.0,0,108,0.0,110.0
1077,52.0,30,24,1.0,110.0
1078,53.0,0,24,1.0,110.0
1079,67.0,0,96,0.0,110.0
1080,75.0,30,48,0.0,110.0
1081,52.0,30,24,1.0,110.0
1082,53.0,0,24,1.0,110.0
1083,52.0,30,24,1.0,110.0
1084,53.0,0,24,1.0,110.0
1085,76.0,30,108,0.0,110.0
1086,52.0,30,24,1.0,110.0
1087,53.0,30,24,1.0,110.0
1088,66.0,30,96,0.0,110.0
1089,75.0,0,48,0.0,110.0
1090,52.0,30,24,1.0,110.0
1091,53.0,30,24,1.0,110.0
1092,52.0,30,24,1.0,110.0
1093,53.0,30,24,1.0,110.0
1094,76.0,0,108,0.0,110.0
1095,52.0,30,24,1.0,110.0
1096,53.0,30,24,1.0,110.0
1097,65.0,0,96,0.0,110.0
1098,73.0,0,48,0.0,110.0
1099,52.0,30,24,1.0,110.0
1100,53.0,0,24,1.0,110.0
1101,52.0,30,24,1.0,110.0
1102,53.0,0,24,1.0,110.0
1103,74.0,30,108,0.0,110.0
1104,52.0,30,24,1.0,110.0
1105,53.0,0,24,1.0,110.0
1106,64.0,30,96,0.0,110.0
1107,73.0,30,48,0.0,110.0
1108,52.0,30,24,1.0,110.0
1109,53.0,30,24,1.0,110.0
1110,52.0,30,24,1.0,110.0
1111,53.0,0,24,1.0,110.0
1112,74.0,0,108,0.0,110.0
1113,52.0,30,24,1.0,110.0
1114,53.0,30,24,1.0,110.0
1115,69.0,30,96,0.0,110.0
1116,71.0,0,48,0.0,110.0
1117,52.0,30,24,1.0,110.0
1118,53.0,30,24,1.0,110.0
1119,52.0,30,24,1.0,110.0
1120,53.0,30,24,1.0,110.0
1121,72.0,0,108,0.0,110.0
1122,52.0,30,24,1.0,110.0
1123,53.0,0,24,1.0,110.0
1124,63.0,0,96,0.0,110.0
1125,71.0,30,48,0.0,110.0
1126,52.0,30,24,1.0,110.0
1127,53.0,0,24,1.0,110.0
1128,52.0,30,24,1.0,110.0
1129,53.0,30,24,1.0,110.0
1130,72.0,30,108,0.0,110.0
1131,52.0,30,24,1.0,110.0
1132,53.0,0,24,1.0,110.0
1133,62.0,0,96,0.0,110.0
1134,69.0,30,48,0.0,110.0
1135,52.0,30,24,1.0,110.0
1136,53.0,30,24,1.0,110.0
1137,52.0,30,24,1.0,110.0
1138,53.0,30,24,1.0,110.0
1139,70.0,0,108,0.0,110.0
1140,52.0,30,24,1.0,110.0
1141,53.0,0,24,1.0,110.0
1142,61.0,0,96,0.0,110.0
1143,69.0,30,48,0.0,110.0
1144,52.0,30,24,1.0,110.0
1145,53.0,0,24,1.0,110.0
1146,52.0,30,24,1.0,110.0
1147,53.0,0,24,1.0,110.0
1148,70.0,30,108,0.0,110.0
1149,52.0,30,24,1.0,110.0
1150,53.0,0,24,1.0,110.0
1151,60.0,30,96,0.0,110.0
1152,68.0,30,48,0.0,110.0
1153,52.0,30,24,1.0,110.0
1154,53.0,0,24,1.0,110.0
1155,52.0,30,24,1.0,110.0
1156,53.0,0,24,1.0,110.0
1157,69.0,30,108,0.0,110.0
1158,52.0,30,24,1.0,110.0
1159,53.0,0,24,1.0,110.0
1160,59.0,30,96,0.0,110.0
1161,68.0,30,48,0.0,110.0
1162,52.0,30,24,1.0,110.0
1163,53.0,0,24,1.0,110.0
1164,52.0,30,24,1.0,110.0
1165,53.0,30,24,1.0,110.0
1166,69.0,30,108,0.0,110.0
1167,52.0,30,24,1.0,110.0
1168,53.0,30,24,1.0,110.0
1169,62.0,0,96,0.0,110.0
1170,66.0,0,48,0.0,110.0
1171,52.0,30,24,1.0,110.0
1172,53.0,0,24,1.0,110.0
1173,68.0,30,48,0.0,110.0
1174,52.0,30,24,1.0,110.0
1175,69.0,0,48,0.0,110.0
1176,61.0,0,48,1.0,110.0
1177,68.0,0,48,0.0,110.0
1178,59.0,60,48,1.0,110.0
1179,69.0,0,48,0.0,110.0
1180,61.0,60,48,1.0,110.0
1181,71.0,60,48,0.0,110.0
1182,62.0,0,48,1.0,110.0
1183,59.0,0,48,1.0,110.0
1184,68.0,60,48,0.0,110.0
1185,61.0,0,48,1.0,110.0
1186,69.0,60,48,0.0,110.0
1187,64.0,60,48,1.0,110.0
1188,73.0,0,48,0.0,110.0
1189,59.0,60,48,1.0,110.0
1190,68.0,0,48,0.0,110.0
1191,61.0,60,48,1.0,110.0
1192,69.0,0,48,0.0,110.0
1193,65.0,60,48,1.0,110.0
1194,74.0,0,48,0.0,110.0
1195,68.0,0,48,0.0,110.0
1196,64.0,60,48,1.0,110.0
1197,69.0,0,48,0.0,110.0
1198,62.0,60,48,1.0,110.0
1199,76.0,60,48,0.0,110.0
1200,61.0,0,48,1.0,110.0
1201,68.0,60,48,0.0,110.0
1202,59.0,0,48,1.0,110.0
1203,69.0,60,48,0.0,110.0
1204,61.0,0,48,1.0,110.0
1205,62.0,60,48,1.0,110.0
1206,77.0,0,48,0.0,110.0
1207,76.0,0,48,0.0,110.0
1208,74.0,60,48,0.0,110.0
1209,68.0,0,48,0.0,110.0
1210,65.0,60,113,1.0,110.0
1211,73.0,0,48,0.0,110.0
1212,76.0,60,48,0.0,110.0
1213,80.0,60,48,0.0,110.0
1214,69.0,60,288,0.0,110.0
1215,64.0,0,288,1.0,110.0
1216,81.0,60,144,0.0,110.0
1217,57.0,30,1440,1.0,110.0
1218,64.0,180,48,1.0,110.0
1219,65.0,60,48,1.0,110.0
1220,64.0,60,48,1.0,110.0
1221,62.0,60,48,1.0,110.0
1222,65.0,60,48,1.0,110.0
1223,64.0,60,48,1.0,110.0
1224,60.0,60,48,1.0,110.0
1225,65.0,60,48,1.0,110.0
1226,64.0,60,48,1.0,110.0
1227,59.0,60,48,1.0,110.0
1228,65.0,60,48,1.0,110.0
1229,64.0,60,48,1.0,110.0
1230,57.0,60,48,1.0,110.0
1231,65.0,60,48,1.0,110.0
1232,64.0,60,48,1.0,110.0
1233,56.0,60,48,1.0,110.0
1234,57.0,60,48,1.0,110.0
1235,59.0,60,48,1.0,110.0
1236,61.0,60,48,1.0,110.0
1237,62.0,60,48,1.0,110.0
1238,64.0,60,48,1.0,110.0
1239,58.0,60,48,1.0,110.0
1240,57.0,60,48,1.0,110.0
1241,55.0,60,48,1.0,110.0
1242,69.0,60,48,0.0,110.0
1243,53.0,0,96,1.0,110.0
1244,70.0,60,48,0.0,110.0
1245,69.0,60,48,0.0,110.0
1246,67.0,0,48,0.0,110.0
1247,58.0,60,96,1.0,110.0
1248,70.0,60,48,0.0,110.0
1249,69.0,60,48,0.0,110.0
1250,65.0,0,48,0.0,110.0
1251,57.0,60,96,1.0,110.0
1252,70.0,60,48,0.0,110.0
1253,69.0,60,48,0.0,110.0
1254,64.0,0,48,0.0,110.0
1255,55.0,60,96,1.0,110.0
1256,70.0,60,48,0.0,110.0
1257,69.0,60,48,0.0,110.0
1258,62.0,0,48,0.0,110.0
1259,53.0,60,96,1.0,110.0
1260,70.0,60,48,0.0,110.0
1261,69.0,60,48,0.0,110.0
1262,61.0,60,48,0.0,110.0
1263,52.0,0,48,1.0,110.0
1264,62.0,60,48,0.0,110.0
1265,50.0,0,48,1.0,110.0
1266,64.0,0,48,0.0,110.0
1267,49.0,60,48,1.0,110.0
1268,50.0,60,48,1.0,110.0
1269,66.0,0,48,0.0,110.0
1270,67.0,0,48,0.0,110.0
1271,52.0,60,48,1.0,110.0
1272,54.0,60,48,1.0,110.0
1273,69.0,0,48,0.0,110.0
1274,63.0,0,48,0.0,110.0
1275,54.0,60,48,1.0,110.0
1276,55.0,60,48,1.0,110.0
1277,62.0,0,48,0.0,110.0
1278,60.0,60,48,0.0,110.0
1279,57.0,0,48,1.0,110.0
1280,62.0,0,24,0.0,110.0
1281,57.0,60,48,1.0,110.0
1282,61.0,30,24,0.0,110.0
1283,59.0,0,48,1.0,110.0
1284,62.0,30,48,0.0,110.0
1285,60.0,60,48,1.0,110.0
1286,60.0,60,24,1.0,110.0
1287,63.0,0,48,0.0,110.0
1288,59.0,30,24,1.0,110.0
1289,64.0,30,48,0.0,110.0
1290,60.0,0,96,1.0,110.0
1291,66.0,60,48,0.0,110.0
1292,59.0,0,48,1.0,110.0
1293,68.0,60,48,0.0,110.0
1294,57.0,0,48,1.0,110.0
1295,69.0,60,48,0.0,110.0
1296,71.0,0,48,0.0,110.0
1297,56.0,60,48,1.0,110.0
1298,56.0,60,48,1.0,110.0
1299,65.0,0,48,0.0,110.0
1300,57.0,60,48,1.0,110.0
1301,64.0,0,48,0.0,110.0
1302,62.0,60,48,0.0,110.0
1303,59.0,0,48,1.0,110.0
1304,59.0,0,24,1.0,110.0
1305,76.0,60,48,0.0,110.0
1306,57.0,30,24,1.0,110.0
1307,59.0,0,24,1.0,110.0
1308,60.0,0,96,0.0,110.0
1309,77.0,30,48,0.0,110.0
1310,57.0,30,24,1.0,110.0
1311,59.0,0,24,1.0,110.0
1312,76.0,30,48,0.0,110.0
1313,57.0,30,24,1.0,110.0
1314,59.0,30,24,1.0,110.0
1315,74.0,0,48,0.0,110.0
1316,57.0,30,24,1.0,110.0
1317,59.0,0,24,1.0,110.0
1318,65.0,0,96,0.0,110.0
1319,77.0,30,48,0.0,110.0
1320,57.0,30,24,1.0,110.0
1321,59.0,30,24,1.0,110.0
1322,76.0,0,48,0.0,110.0
1323,57.0,30,24,1.0,110.0
1324,59.0,0,24,1.0,110.0
1325,72.0,0,48,0.0,110.0
1326,57.0,30,24,1.0,110.0
1327,59.0,30,24,1.0,110.0
1328,64.0,30,96,0.0,110.0
1329,77.0,0,48,0.0,110.0
1330,57.0,30,24,1.0,110.0
1331,59.0,30,24,1.0,110.0
1332,76.0,0,48,0.0,110.0
1333,57.0,30,24,1.0,110.0
1334,59.0,0,24,1.0,110.0
1335,71.0,0,48,0.0,110.0
1336,57.0,30,24,1.0,110.0
1337,59.0,0,24,1.0,110.0
1338,62.0,30,96,0.0,110.0
1339,77.0,30,48,0.0,110.0
1340,57.0,30,24,1.0,110.0
1341,59.0,30,24,1.0,110.0
1342,76.0,0,48,0.0,110.0
1343,57.0,30,24,1.0,110.0
1344,69.0,0,48,0.0,110.0
1345,57.0,30,96,1.0,110.0
1346,60.0,0,96,0.0,110.0
1347,77.0,60,48,0.0,110.0
1348,76.0,60,48,0.0,110.0
1349,59.0,60,48,1.0,110.0
1350,68.0,0,48,0.0,110.0
1351,69.0,60,48,0.0,110.0
1352,57.0,0,48,1.0,110.0
1353,71.0,60,48,0.0,110.0
1354,56.0,0,48,1.0,110.0
1355,57.0,0,48,1.0,110.0
1356,73.0,60,48,0.0,110.0
1357,59.0,60,48,1.0,110.0
1358,74.0,0,48,0.0,110.0
1359,76.0,60,48,0.0,110.0
1360,61.0,0,48,1.0,110.0
1361,70.0,60,48,0.0,110.0
1362,61.0,0,48,1.0,110.0
1363,69.0,60,48,0.0,110.0
1364,62.0,0,48,1.0,110.0
1365,67.0,60,48,0.0,110.0
1366,64.0,0,48,1.0,110.0
1367,64.0,0,24,0.0,110.0
1368,50.0,60,48,1.0,110.0
1369,62.0,30,24,0.0,110.0
1370,64.0,0,24,0.0,110.0
1371,65.0,0,96,0.0,110.0
1372,51.0,30,48,1.0,110.0
1373,62.0,30,24,0.0,110.0
1374,64.0,30,24,0.0,110.0
1375,50.0,0,48,1.0,110.0
1376,62.0,30,24,0.0,110.0
1377,64.0,0,24,0.0,110.0
1378,48.0,0,48,1.0,110.0
1379,62.0,30,24,0.0,110.0
1380,64.0,0,24,0.0,110.0
1381,66.0,30,96,0.0,110.0
1382,51.0,30,48,1.0,110.0
1383,62.0,30,24,0.0,110.0
1384,64.0,30,24,0.0,110.0
1385,50.0,0,48,1.0,110.0
1386,62.0,30,24,0.0,110.0
1387,64.0,0,24,0.0,110.0
1388,46.0,30,48,1.0,110.0
1389,62.0,30,24,0.0,110.0
1390,64.0,0,24,0.0,110.0
1391,67.0,0,96,0.0,110.0
1392,51.0,30,48,1.0,110.0
1393,62.0,30,24,0.0,110.0
1394,64.0,0,24,0.0,110.0
1395,50.0,30,48,1.0,110.0
1396,62.0,30,24,0.0,110.0
1397,64.0,0,24,0.0,110.0
1398,45.0,30,48,1.0,110.0
1399,62.0,30,24,0.0,110.0
1400,64.0,0,24,0.0,110.0
1401,69.0,0,96,0.0,110.0
1402,51.0,30,48,1.0,110.0
1403,62.0,30,24,0.0,110.0
1404,64.0,0,24,0.0,110.0
1405,50.0,30,48,1.0,110.0
1406,43.0,30,48,1.0,110.0
1407,62.0,30,126,0.0,110.0
1408,70.0,0,96,0.0,110.0
1409,51.0,60,48,1.0,110.0
1410,50.0,60,48,1.0,110.0
1411,42.0,60,48,1.0,110.0
1412,72.0,0,96,0.0,110.0
1413,63.0,0,96,0.0,110.0
1414,43.0,60,48,1.0,110.0
1415,45.0,60,48,1.0,110.0
1416,47.0,60,48,1.0,110.0
1417,74.0,0,96,0.0,110.0
1418,65.0,0,96,0.0,110.0
1419,48.0,60,48,1.0,110.0
1420,50.0,60,48,1.0,110.0
1421,44.0,0,48,1.0,110.0
1422,71.0,60,96,0.0,110.0
1423,62.0,0,96,0.0,110.0
1424,43.0,60,48,1.0,110.0
1425,41.0,60,48,1.0,110.0
1426,40.0,0,48,1.0,110.0
1427,67.0,0,96,0.0,110.0
1428,73.0,60,96,0.0,110.0
1429,38.0,60,48,1.0,110.0
1430,37.0,60,48,1.0,110.0
1431,44.0,0,48,1.0,110.0
1432,65.0,0,96,0.0,110.0
1433,74.0,60,96,0.0,110.0
1434,45.0,60,48,1.0,110.0
1435,47.0,60,48,1.0,110.0
1436,49.0,0,48,1.0,110.0
1437,67.0,0,96,0.0,110.0
1438,76.0,60,96,0.0,110.0
1439,50.0,60,48,1.0,110.0
1440,52.0,60,48,1.0,110.0
1441,46.0,0,48,1.0,110.0
1442,73.0,60,96,0.0,110.0
1443,64.0,0,96,0.0,110.0
1444,45.0,60,48,1.0,110.0
1445,43.0,60,48,1.0,110.0
1446,76.0,60,24,0.0,110.0
1447,74.0,30,24,0.0,110.0
1448,42.0,0,57,1.0,110.0
1449,76.0,0,24,0.0,110.0
1450,69.0,0,96,0.0,110.0
1451,74.0,30,24,0.0,110.0
1452,40.0,30,57,1.0,110.0
1453,76.0,0,24,0.0,110.0
1454,74.0,30,24,0.0,110.0
1455,38.0,30,57,1.0,110.0
1456,76.0,30,24,0.0,110.0
1457,74.0,30,24,0.0,110.0
1458,76.0,30,24,0.0,110.0
1459,48.0,0,96,1.0,110.0
1460,42.0,0,48,1.0,110.0
1461,74.0,30,24,0.0,110.0
1462,76.0,30,24,0.0,110.0
1463,40.0,0,48,1.0,110.0
1464,74.0,30,24,0.0,110.0
1465,76.0,30,24,0.0,110.0
1466,74.0,30,24,0.0,110.0
1467,76.0,30,24,0.0,110.0
1468,50.0,0,96,1.0,110.0
1469,43.0,0,48,1.0,110.0
1470,74.0,30,24,0.0,110.0
1471,76.0,0,24,0.0,110.0
1472,42.0,30,48,1.0,110.0
1473,74.0,30,24,0.0,110.0
1474,76.0,30,24,0.0,110.0
1475,74.0,30,24,0.0,110.0
1476,76.0,0,24,0.0,110.0
1477,52.0,0,96,1.0,110.0
1478,45.0,30,48,1.0,110.0
1479,74.0,30,24,0.0,110.0
1480,76.0,30,24,0.0,110.0
1481,43.0,0,48,1.0,110.0
1482,74.0,30,126,0.0,110.0
1483,54.0,30,96,1.0,110.0
1484,46.0,60,48,1.0,110.0
1485,45.0,60,48,1.0,110.0
1486,53.0,60,96,1.0,110.0
1487,48.0,60,48,1.0,110.0
1488,47.0,60,48,1.0,110.0
1489,52.0,60,96,1.0,110.0
1490,50.0,60,48,1.0,110.0
1491,49.0,60,108,1.0,110.0
1492,58.0,60,96,1.0,110.0
1493,50.0,60,48,1.0,110.0
1494,52.0,60,48,1.0,110.0
1495,81.0,0,48,0.0,110.0
1496,53.0,60,96,1.0,110.0
1497,57.0,0,96,1.0,110.0
1498,82.0,60,48,0.0,110.0
1499,81.0,60,48,0.0,110.0
1500,64.0,0,24,1.0,110.0
1501,79.0,60,48,0.0,110.0
1502,62.0,30,24,1.0,110.0
1503,64.0,30,24,1.0,110.0
1504,58.0,0,96,1.0,110.0
1505,82.0,0,48,0.0,110.0
1506,62.0,30,24,1.0,110.0
1507,64.0,30,24,1.0,110.0
1508,81.0,0,48,0.0,110.0
1509,62.0,30,24,1.0,110.0
1510,64.0,0,24,1.0,110.0
1511,77.0,0,48,0.0,110.0
1512,62.0,30,24,1.0,110.0
1513,64.0,30,24,1.0,110.0
1514,57.0,30,96,1.0,110.0
1515,82.0,0,48,0.0,110.0
1516,62.0,30,24,1.0,110.0
1517,64.0,30,24,1.0,110.0
1518,81.0,0,48,0.0,110.0
1519,62.0,30,24,1.0,110.0
1520,64.0,0,24,1.0,110.0
1521,76.0,0,48,0.0,110.0
1522,62.0,30,24,1.0,110.0
1523,64.0,30,24,1.0,110.0
1524,55.0,30,96,1.0,110.0
1525,82.0,0,48,0.0,110.0
1526,62.0,30,24,1.0,110.0
1527,64.0,0,24,1.0,110.0
1528,81.0,30,48,0.0,110.0
1529,74.0,30,48,0.0,110.0
1530,62.0,30,126,1.0,110.0
1531,53.0,0,96,1.0,110.0
1532,82.0,60,48,0.0,110.0
1533,81.0,60,48,0.0,110.0
1534,73.0,60,48,0.0,110.0
1535,58.0,0,96,1.0,110.0
1536,55.0,0,96,1.0,110.0
1537,74.0,60,48,0.0,110.0
1538,76.0,60,48,0.0,110.0
1539,78.0,0,48,0.0,110.0
1540,57.0,60,96,1.0,110.0
1541,60.0,0,96,1.0,110.0
1542,79.0,60,48,0.0,110.0
1543,81.0,60,48,0.0,110.0
1544,75.0,60,48,0.0,110.0
1545,54.0,0,96,1.0,110.0
1546,57.0,0,96,1.0,110.0
1547,74.0,60,48,0.0,110.0
1548,72.0,60,48,0.0,110.0
1549,71.0,0,48,0.0,110.0
1550,56.0,60,96,1.0,110.0
1551,69.0,60,48,0.0,110.0
1552,68.0,60,48,0.0,110.0
1553,75.0,60,48,0.0,110.0
1554,57.0,0,96,1.0,110.0
1555,60.0,0,96,1.0,110.0
1556,76.0,60,48,0.0,110.0
1557,78.0,60,48,0.0,110.0
1558,80.0,60,48,0.0,110.0
1559,59.0,0,96,1.0,110.0
1560,62.0,0,96,1.0,110.0
1561,81.0,60,48,0.0,110.0
1562,83.0,60,48,0.0,110.0
1563,77.0,60,48,0.0,110.0
1564,56.0,0,96,1.0,110.0
1565,59.0,0,96,1.0,110.0
1566,76.0,60,48,0.0,110.0
1567,74.0,60,48,0.0,110.0
1568,73.0,0,48,0.0,110.0
1569,57.0,0,96,1.0,110.0
1570,64.0,60,96,1.0,110.0
1571,74.0,60,48,0.0,110.0
1572,76.0,60,48,0.0,110.0
1573,70.0,60,48,0.0,110.0
1574,45.0,0,48,1.0,110.0
1575,69.0,0,48,0.0,110.0
1576,47.0,60,48,1.0,110.0
1577,49.0,60,48,1.0,110.0
1578,67.0,0,48,0.0,110.0
1579,50.0,60,48,1.0,110.0
1580,66.0,0,48,0.0,110.0
1581,52.0,60,48,1.0,110.0
1582,67.0,0,48,0.0,110.0
1583,54.0,60,48,1.0,110.0
1584,69.0,0,48,0.0,110.0
1585,65.0,0,48,0.0,110.0
1586,56.0,60,48,1.0,110.0
1587,57.0,0,48,1.0,110.0
1588,64.0,60,48,0.0,110.0
1589,59.0,0,48,1.0,110.0
1590,62.0,60,48,0.0,110.0
1591,58.0,60,24,0.0,110.0
1592,45.0,0,48,1.0,110.0
1593,57.0,30,24,0.0,110.0
1594,58.0,0,24,0.0,110.0
1595,46.0,30,48,1.0,110.0
1596,57.0,30,24,0.0,110.0
1597,58.0,0,24,0.0,110.0
1598,45.0,30,48,1.0,110.0
1599,57.0,30,24,0.0,110.0
1600,58.0,0,24,0.0,110.0
1601,43.0,30,48,1.0,110.0
1602,57.0,30,24,0.0,110.0
1603,58.0,0,24,0.0,110.0
1604,61.0,0,288,0.0,110.0
1605,46.0,30,48,1.0,110.0
1606,57.0,30,24,0.0,110.0
1607,58.0,0,24,0.0,110.0
1608,45.0,30,48,1.0,110.0
1609,57.0,30,24,0.0,110.0
1610,58.0,0,24,0.0,110.0
1611,41.0,30,48,1.0,110.0
1612,57.0,30,24,0.0,110.0
1613,58.0,30,24,0.0,110.0
1614,62.0,0,96,0.0,110.0
1615,46.0,0,48,1.0,110.0
1616,57.0,30,24,0.0,110.0
1617,58.0,0,24,0.0,110.0
1618,45.0,30,48,1.0,110.0
1619,57.0,30,24,0.0,110.0
1620,58.0,0,24,0.0,110.0
1621,40.0,0,48,1.0,110.0
1622,57.0,30,24,0.0,110.0
1623,58.0,0,24,0.0,110.0
1624,64.0,30,96,0.0,110.0
1625,46.0,30,48,1.0,110.0
1626,57.0,30,24,0.0,110.0
1627,58.0,30,24,0.0,110.0
1628,45.0,0,48,1.0,110.0
1629,38.0,30,48,1.0,110.0
1630,65.0,0,96,0.0,110.0
1631,57.0,30,126,0.0,110.0
1632,46.0,60,48,1.0,110.0
1633,45.0,60,48,1.0,110.0
1634,37.0,0,48,1.0,110.0
1635,67.0,60,96,0.0,110.0
1636,70.0,0,96,0.0,110.0
1637,38.0,60,48,1.0,110.0
1638,40.0,60,48,1.0,110.0
1639,42.0,0,48,1.0,110.0
1640,62.0,0,96,0.0,110.0
1641,69.0,60,96,0.0,110.0
1642,43.0,60,48,1.0,110.0
1643,45.0,60,48,1.0,110.0
1644,39.0,60,48,1.0,110.0
1645,69.0,0,96,0.0,110.0
1646,72.0,0,96,0.0,110.0
1647,40.0,60,48,1.0,110.0
1648,42.0,60,48,1.0,110.0
1649,43.0,0,48,1.0,110.0
1650,64.0,0,96,0.0,110.0
1651,71.0,60,96,0.0,110.0
1652,45.0,60,48,1.0,110.0
1653,47.0,60,48,1.0,110.0
1654,77.0,60,48,0.0,110.0
1655,44.0,0,48,1.0,110.0
1656,74.0,0,96,0.0,110.0
1657,45.0,60,48,1.0,110.0
1658,76.0,0,48,0.0,110.0
1659,74.0,60,48,0.0,110.0
1660,47.0,0,48,1.0,110.0
1661,49.0,60,48,1.0,110.0
1662,76.0,0,48,0.0,110.0
1663,69.0,0,96,0.0,110.0
1664,77.0,0,48,0.0,110.0
1665,50.0,60,48,1.0,110.0
1666,79.0,0,48,0.0,110.0
1667,52.0,60,48,1.0,110.0
1668,79.0,0,48,0.0,110.0
1669,46.0,60,48,1.0,110.0
1670,73.0,0,96,0.0,110.0
1671,81.0,60,48,0.0,110.0
1672,45.0,0,48,1.0,110.0
1673,82.0,60,48,0.0,110.0
1674,43.0,0,48,1.0,110.0
1675,82.0,0,24,0.0,110.0
1676,81.0,30,24,0.0,110.0
1677,82.0,0,24,0.0,110.0
1678,74.0,60,96,0.0,110.0
1679,53.0,0,96,1.0,110.0
1680,45.0,30,48,1.0,110.0
1681,81.0,30,24,0.0,110.0
1682,82.0,30,24,0.0,110.0
1683,44.0,0,48,1.0,110.0
1684,81.0,30,24,0.0,110.0
1685,82.0,0,24,0.0,110.0
1686,81.0,30,24,0.0,110.0
1687,82.0,0,24,0.0,110.0
1688,54.0,30,96,1.0,110.0
1689,46.0,30,48,1.0,110.0
1690,81.0,30,24,0.0,110.0
1691,82.0,30,24,0.0,110.0
1692,45.0,0,48,1.0,110.0
1693,81.0,30,24,0.0,110.0
1694,82.0,0,24,0.0,110.0
1695,81.0,30,24,0.0,110.0
1696,82.0,0,24,0.0,110.0
1697,55.0,30,96,1.0,110.0
1698,46.0,30,48,1.0,110.0
1699,81.0,30,24,0.0,110.0
1700,82.0,30,24,0.0,110.0
1701,45.0,0,48,1.0,110.0
1702,81.0,30,24,0.0,110.0
1703,82.0,0,24,0.0,110.0
1704,81.0,30,24,0.0,110.0
1705,82.0,30,24,0.0,110.0
1706,56.0,30,96,1.0,110.0
1707,48.0,0,48,1.0,110.0
1708,81.0,30,24,0.0,110.0
1709,82.0,30,24,0.0,110.0
1710,47.0,0,48,1.0,110.0
1711,81.0,30,24,0.0,110.0
1712,82.0,0,24,0.0,110.0
1713,81.0,30,24,0.0,110.0
1714,82.0,30,24,0.0,110.0
1715,57.0,30,96,1.0,110.0
1716,48.0,0,48,1.0,110.0
1717,81.0,30,24,0.0,110.0
1718,82.0,30,24,0.0,110.0
1719,47.0,0,48,1.0,110.0
1720,81.0,30,24,0.0,110.0
1721,82.0,0,24,0.0,110.0
1722,81.0,30,24,0.0,110.0
1723,82.0,0,24,0.0,110.0
1724,52.0,30,96,1.0,110.0
1725,50.0,30,48,1.0,110.0
1726,81.0,30,24,0.0,110.0
1727,82.0,0,24,0.0,110.0
1728,49.0,30,48,1.0,110.0
1729,81.0,30,24,0.0,110.0
1730,82.0,0,24,0.0,110.0
1731,81.0,30,24,0.0,110.0
1732,82.0,30,24,0.0,110.0
1733,58.0,30,96,1.0,110.0
1734,50.0,0,48,1.0,110.0
1735,81.0,30,24,0.0,110.0
1736,82.0,30,24,0.0,110.0
1737,49.0,0,48,1.0,110.0
1738,81.0,30,24,0.0,110.0
1739,82.0,30,24,0.0,110.0
1740,81.0,30,24,0.0,110.0
1741,82.0,30,24,0.0,110.0
1742,59.0,0,96,1.0,110.0
1743,52.0,0,48,1.0,110.0
1744,81.0,30,24,0.0,110.0
1745,82.0,30,24,0.0,110.0
1746,51.0,0,48,1.0,110.0
1747,81.0,30,24,0.0,110.0
1748,82.0,0,24,0.0,110.0
1749,81.0,30,24,0.0,110.0
1750,82.0,30,24,0.0,110.0
1751,60.0,30,96,1.0,110.0
1752,52.0,0,48,1.0,110.0
1753,81.0,30,24,0.0,110.0
1754,82.0,0,24,0.0,110.0
1755,51.0,30,48,1.0,110.0
1756,81.0,30,24,0.0,110.0
1757,82.0,0,24,0.0,110.0
1758,81.0,30,24,0.0,110.0
1759,82.0,0,24,0.0,110.0
1760,61.0,30,96,1.0,110.0
1761,53.0,30,48,1.0,110.0
1762,81.0,30,24,0.0,110.0
1763,82.0,0,24,0.0,110.0
1764,52.0,30,48,1.0,110.0
1765,81.0,30,24,0.0,110.0
1766,82.0,30,24,0.0,110.0
1767,81.0,30,24,0.0,110.0
1768,82.0,0,24,0.0,110.0
1769,62.0,0,96,1.0,110.0
1770,53.0,30,48,1.0,110.0
1771,81.0,30,24,0.0,110.0
1772,82.0,30,24,0.0,110.0
1773,52.0,0,48,1.0,110.0
1774,81.0,30,24,0.0,110.0
1775,82.0,0,24,0.0,110.0
1776,81.0,30,24,0.0,110.0
1777,82.0,0,24,0.0,110.0
1778,57.0,30,96,1.0,110.0
1779,55.0,30,48,1.0,110.0
1780,81.0,30,24,0.0,110.0
1781,82.0,30,24,0.0,110.0
1782,54.0,0,48,1.0,110.0
1783,58.0,0,48,1.0,110.0
1784,81.0,30,78,0.0,110.0
1785,55.0,30,96,1.0,110.0
1786,82.0,60,48,0.0,110.0
1787,61.0,0,48,1.0,110.0
1788,62.0,0,48,1.0,110.0
1789,81.0,60,48,0.0,110.0
1790,79.0,60,48,0.0,110.0
1791,58.0,0,96,1.0,110.0
1792,82.0,0,48,0.0,110.0
1793,61.0,60,48,1.0,110.0
1794,81.0,0,48,0.0,110.0
1795,62.0,60,48,1.0,110.0
1796,77.0,0,48,0.0,110.0
1797,57.0,60,96,1.0,110.0
1798,82.0,60,48,0.0,110.0
1799,61.0,0,48,1.0,110.0
1800,81.0,60,48,0.0,110.0
1801,62.0,0,48,1.0,110.0
1802,76.0,60,48,0.0,110.0
1803,55.0,0,96,1.0,110.0
1804,61.0,0,48,1.0,110.0
1805,82.0,60,48,0.0,110.0
1806,62.0,60,48,1.0,110.0
1807,81.0,0,48,0.0,110.0
1808,53.0,0,48,1.0,110.0
1809,74.0,60,48,0.0,110.0
1810,61.0,0,48,1.0,110.0
1811,82.0,60,48,0.0,110.0
1812,62.0,60,48,1.0,110.0
1813,81.0,0,48,0.0,110.0
1814,58.0,60,48,1.0,110.0
1815,73.0,0,48,0.0,110.0
1816,74.0,60,48,0.0,110.0
1817,57.0,0,48,1.0,110.0
1818,55.0,60,48,1.0,110.0
1819,76.0,0,48,0.0,110.0
1820,53.0,60,48,1.0,110.0
1821,77.0,0,48,0.0,110.0
1822,52.0,0,48,1.0,110.0
1823,79.0,60,48,0.0,110.0
1824,50.0,60,48,1.0,110.0
1825,81.0,0,48,0.0,110.0
1826,75.0,60,48,0.0,110.0
1827,55.0,0,48,1.0,110.0
1828,57.0,60,48,1.0,110.0
1829,74.0,0,48,0.0,110.0
1830,58.0,60,48,1.0,110.0
1831,72.0,0,48,0.0,110.0
1832,74.0,0,48,0.0,110.0
1833,57.0,60,48,1.0,110.0
1834,58.0,0,48,1.0,110.0
1835,73.0,60,48,0.0,110.0
1836,74.0,0,48,0.0,110.0
1837,57.0,60,48,1.0,110.0
1838,64.0,60,48,0.0,110.0
1839,55.0,0,48,1.0,110.0
1840,73.0,0,48,0.0,110.0
1841,58.0,60,48,1.0,110.0
1842,57.0,0,48,1.0,110.0
1843,74.0,60,48,0.0,110.0
1844,65.0,60,48,0.0,110.0
1845,53.0,0,48,1.0,110.0
1846,73.0,0,48,0.0,110.0
1847,58.0,60,48,1.0,110.0
1848,74.0,60,48,0.0,110.0
1849,57.0,0,48,1.0,110.0
1850,52.0,60,48,1.0,110.0
1851,67.0,0,48,0.0,110.0
1852,73.0,60,48,0.0,110.0
1853,58.0,0,48,1.0,110.0
1854,74.0,60,48,0.0,110.0
1855,57.0,0,48,1.0,110.0
1856,69.0,60,48,0.0,110.0
1857,50.0,0,48,1.0,110.0
1858,73.0,60,48,0.0,110.0
1859,58.0,0,48,1.0,110.0
1860,57.0,60,48,1.0,110.0
1861,74.0,0,48,0.0,110.0
1862,49.0,60,48,1.0,110.0
1863,70.0,0,48,0.0,110.0
1864,69.0,0,48,0.0,110.0
1865,50.0,60,48,1.0,110.0
1866,52.0,0,48,1.0,110.0
1867,67.0,60,48,0.0,110.0
1868,53.0,60,48,1.0,110.0
1869,65.0,0,48,0.0,110.0
1870,55.0,60,48,1.0,110.0
1871,64.0,0,48,0.0,110.0
1872,57.0,60,48,1.0,110.0
1873,62.0,0,48,0.0,110.0
1874,59.0,0,48,1.0,110.0
1875,77.0,60,48,0.0,110.0
1876,61.0,60,48,1.0,110.0
1877,76.0,0,48,0.0,110.0
1878,62.0,0,48,1.0,110.0
1879,74.0,60,48,0.0,110.0
1880,73.0,60,48,0.0,110.0
1881,64.0,0,48,0.0,110.0
1882,65.0,0,48,0.0,110.0
1883,71.0,60,48,0.0,110.0
1884,67.0,0,48,0.0,110.0
1885,69.0,60,48,0.0,110.0
1886,69.0,60,48,0.0,110.0
1887,82.0,0,48,0.0,110.0
1888,81.0,0,48,0.0,110.0
1889,71.0,60,48,0.0,110.0
1890,79.0,60,48,0.0,110.0
1891,73.0,0,48,0.0,110.0
1892,77.0,0,48,0.0,110.0
1893,74.0,60,96,0.0,110.0
1894,76.0,60,48,0.0,110.0
1895,72.0,0,48,0.0,110.0
1896,74.0,0,48,0.0,110.0
1897,70.0,60,48,0.0,110.0
1898,79.0,0,48,0.0,110.0
1899,81.0,60,48,0.0,110.0
1900,69.0,0,48,0.0,110.0
1901,67.0,60,48,0.0,110.0
1902,82.0,0,108,0.0,110.0
1903,73.0,0,96,0.0,110.0
1904,69.0,60,96,0.0,110.0
1905,81.0,60,48,0.0,110.0
1906,82.0,60,108,0.0,110.0
1907,72.0,60,96,0.0,110.0
1908,80.0,60,48,0.0,110.0
1909,81.0,60,108,0.0,110.0
1910,71.0,0,96,0.0,110.0
1911,57.0,60,96,1.0,110.0
1912,80.0,60,48,0.0,110.0
1913,81.0,60,108,0.0,110.0
1914,70.0,60,96,0.0,110.0
1915,78.0,60,48,0.0,110.0
1916,58.0,0,24,1.0,110.0
1917,79.0,60,108,0.0,110.0
1918,57.0,30,24,1.0,110.0
1919,58.0,0,24,1.0,110.0
1920,69.0,60,96,0.0,110.0
1921,78.0,30,48,0.0,110.0
1922,57.0,30,24,1.0,110.0
1923,58.0,0,24,1.0,110.0
1924,57.0,30,24,1.0,110.0
1925,58.0,0,24,1.0,110.0
1926,79.0,30,108,0.0,110.0
1927,57.0,30,24,1.0,110.0
1928,58.0,0,24,1.0,110.0
1929,74.0,30,96,0.0,110.0
1930,76.0,30,48,0.0,110.0
1931,57.0,30,24,1.0,110.0
1932,58.0,30,24,1.0,110.0
1933,57.0,30,24,1.0,110.0
1934,58.0,30,24,1.0,110.0
1935,77.0,0,108,0.0,110.0
1936,57.0,30,24,1.0,110.0
1937,58.0,30,24,1.0,110.0
1938,68.0,0,96,0.0,110.0
1939,76.0,0,48,0.0,110.0
1940,57.0,30,24,1.0,110.0
1941,58.0,0,24,1.0,110.0
1942,77.0,30,48,0.0,110.0
1943,57.0,30,24,1.0,110.0
1944,58.0,30,24,1.0,110.0
1945,77.0,0,48,0.0,110.0
1946,57.0,30,24,1.0,110.0
1947,58.0,30,24,1.0,110.0
1948,67.0,0,96,0.0,110.0
1949,74.0,0,48,0.0,110.0
1950,57.0,30,24,1.0,110.0
1951,58.0,30,24,1.0,110.0
1952,57.0,30,24,1.0,110.0
1953,58.0,30,24,1.0,110.0
1954,75.0,0,108,0.0,110.0
1955,57.0,30,24,1.0,110.0
1956,58.0,30,24,1.0,110.0
1957,66.0,0,96,0.0,110.0
1958,74.0,0,48,0.0,110.0
1959,57.0,30,24,1.0,110.0
1960,58.0,0,24,1.0,110.0
1961,57.0,30,24,1.0,110.0
1962,58.0,0,24,1.0,110.0
1963,75.0,30,108,0.0,110.0
1964,57.0,30,24,1.0,110.0
1965,58.0,30,24,1.0,110.0
1966,65.0,30,96,0.0,110.0
1967,73.0,0,48,0.0,110.0
1968,57.0,30,24,1.0,110.0
1969,58.0,30,24,1.0,110.0
1970,57.0,30,24,1.0,110.0
1971,58.0,30,24,1.0,110.0
1972,74.0,0,108,0.0,110.0
1973,57.0,30,24,1.0,110.0
1974,58.0,0,24,1.0,110.0
1975,64.0,0,96,0.0,110.0
1976,73.0,30,48,0.0,110.0
1977,57.0,30,24,1.0,110.0
1978,58.0,30,24,1.0,110.0
1979,57.0,30,24,1.0,110.0
1980,58.0,30,24,1.0,110.0
1981,74.0,0,108,0.0,110.0
1982,57.0,30,24,1.0,110.0
1983,58.0,30,24,1.0,110.0
1984,71.0,0,48,0.0,110.0
1985,57.0,30,24,1.0,110.0
1986,58.0,0,24,1.0,110.0
1987,72.0,30,48,0.0,110.0
1988,57.0,30,24,1.0,110.0
1989,50.0,0,48,1.0,110.0
1990,67.0,0,228,0.0,110.0
1991,51.0,60,48,1.0,110.0
1992,66.0,0,48,0.0,110.0
1993,50.0,60,48,1.0,110.0
1994,67.0,0,48,0.0,110.0
1995,48.0,0,48,1.0,110.0
1996,69.0,60,48,0.0,110.0
1997,66.0,60,48,0.0,110.0
1998,51.0,0,48,1.0,110.0
1999,67.0,60,48,0.0,110.0
2000,50.0,0,48,1.0,110.0
2001,70.0,60,48,0.0,110.0
2002,46.0,0,48,1.0,110.0
2003,66.0,0,48,0.0,110.0
2004,51.0,60,48,1.0,110.0
2005,67.0,60,48,0.0,110.0
2006,50.0,0,48,1.0,110.0
2007,72.0,0,48,0.0,110.0
2008,45.0,60,48,1.0,110.0
2009,51.0,60,48,1.0,110.0
2010,66.0,0,48,0.0,110.0
2011,50.0,60,48,1.0,110.0
2012,67.0,0,48,0.0,110.0
2013,74.0,0,48,0.0,110.0
2014,43.0,60,48,1.0,110.0
2015,69.0,60,48,0.0,110.0
2016,51.0,0,48,1.0,110.0
2017,70.0,0,48,0.0,110.0
2018,50.0,60,48,1.0,110.0
2019,42.0,0,48,1.0,110.0
2020,72.0,60,48,0.0,110.0
2021,43.0,60,48,1.0,110.0
2022,70.0,0,48,0.0,110.0
2023,69.0,60,48,0.0,110.0
2024,45.0,0,48,1.0,110.0
2025,67.0,60,48,0.0,110.0
2026,46.0,0,48,1.0,110.0
2027,43.0,0,48,1.0,110.0
2028,70.0,0,48,0.0,110.0
2029,64.0,60,48,0.0,110.0
2030,49.0,0,48,1.0,110.0
2031,66.0,0,144,0.0,110.0
2032,69.0,60,144,0.0,110.0
2033,38.0,0,144,1.0,110.0
2034,64.0,180,48,1.0,110.0
2035,65.0,60,48,1.0,110.0
2036,64.0,60,48,1.0,110.0
2037,62.0,60,48,1.0,110.0
2038,65.0,60,48,1.0,110.0
2039,64.0,60,48,1.0,110.0
2040,60.0,60,48,1.0,110.0
2041,65.0,60,48,1.0,110.0
2042,64.0,60,48,1.0,110.0
2043,59.0,60,48,1.0,110.0
2044,65.0,60,48,1.0,110.0
2045,64.0,60,48,1.0,110.0
2046,57.0,60,48,1.0,110.0
2047,65.0,60,48,1.0,110.0
2048,64.0,60,48,1.0,110.0
2049,56.0,60,48,1.0,110.0
2050,57.0,60,48,1.0,110.0
2051,59.0,60,48,1.0,110.0
2052,61.0,60,48,1.0,110.0
2053,62.0,60,48,1.0,110.0
2054,64.0,60,48,1.0,110.0
2055,58.0,60,48,1.0,110.0
2056,57.0,60,48,1.0,110.0
2057,55.0,60,48,1.0,110.0
2058,69.0,60,48,0.0,110.0
2059,53.0,0,96,1.0,110.0
2060,70.0,60,48,0.0,110.0
2061,69.0,60,48,0.0,110.0
2062,67.0,0,48,0.0,110.0
2063,58.0,60,96,1.0,110.0
2064,70.0,60,48,0.0,110.0
2065,69.0,60,48,0.0,110.0
2066,65.0,0,48,0.0,110.0
2067,57.0,60,96,1.0,110.0
2068,70.0,60,48,0.0,110.0
2069,69.0,60,48,0.0,110.0
2070,64.0,60,48,0.0,110.0
2071,55.0,0,96,1.0,110.0
2072,70.0,60,48,0.0,110.0
2073,69.0,60,48,0.0,110.0
2074,62.0,0,48,0.0,110.0
2075,53.0,60,96,1.0,110.0
2076,70.0,60,48,0.0,110.0
2077,69.0,60,48,0.0,110.0
2078,52.0,60,48,1.0,110.0
2079,61.0,0,48,0.0,110.0
2080,50.0,60,48,1.0,110.0
2081,62.0,0,48,0.0,110.0
2082,49.0,60,48,1.0,110.0
2083,64.0,0,48,0.0,110.0
2084,66.0,60,48,0.0,110.0
2085,50.0,0,48,1.0,110.0
2086,67.0,0,48,0.0,110.0
2087,52.0,60,48,1.0,110.0
2088,54.0,60,48,1.0,110.0
2089,69.0,0,48,0.0,110.0
2090,54.0,0,48,1.0,110.0
2091,63.0,60,48,0.0,110.0
2092,62.0,60,48,0.0,110.0
2093,55.0,0,48,1.0,110.0
2094,60.0,60,48,0.0,110.0
2095,57.0,0,48,1.0,110.0
2096,62.0,60,24,0.0,110.0
2097,57.0,0,48,1.0,110.0
2098,61.0,30,24,0.0,110.0
2099,62.0,0,48,0.0,110.0
2100,59.0,30,48,1.0,110.0
2101,60.0,60,48,1.0,110.0
2102,60.0,0,24,1.0,110.0
2103,63.0,60,48,0.0,110.0
2104,59.0,30,24,1.0,110.0
2105,64.0,30,48,0.0,110.0
2106,60.0,0,96,1.0,110.0
2107,66.0,60,48,0.0,110.0
2108,59.0,60,48,1.0,110.0
2109,68.0,0,48,0.0,110.0
2110,57.0,60,48,1.0,110.0
2111,69.0,0,48,0.0,110.0
2112,71.0,60,48,0.0,110.0
2113,56.0,0,48,1.0,110.0
2114,65.0,60,48,0.0,110.0
2115,56.0,0,48,1.0,110.0
2116,57.0,60,48,1.0,110.0
2117,64.0,0,48,0.0,110.0
2118,59.0,0,48,1.0,110.0
2119,62.0,60,48,0.0,110.0
2120,59.0,0,24,1.0,110.0
2121,76.0,0,48,0.0,110.0
2122,57.0,30,24,1.0,110.0
2123,59.0,0,24,1.0,110.0
2124,60.0,60,96,0.0,110.0
2125,77.0,30,48,0.0,110.0
2126,57.0,30,24,1.0,110.0
2127,59.0,0,24,1.0,110.0
2128,76.0,30,48,0.0,110.0
2129,57.0,30,24,1.0,110.0
2130,59.0,0,24,1.0,110.0
2131,74.0,30,48,0.0,110.0
2132,57.0,30,24,1.0,110.0
2133,59.0,30,24,1.0,110.0
2134,65.0,0,96,0.0,110.0
2135,77.0,0,48,0.0,110.0
2136,57.0,30,24,1.0,110.0
2137,59.0,30,24,1.0,110.0
2138,76.0,0,48,0.0,110.0
2139,57.0,30,24,1.0,110.0
2140,59.0,0,24,1.0,110.0
2141,72.0,0,48,0.0,110.0
2142,57.0,30,24,1.0,110.0
2143,59.0,0,24,1.0,110.0
2144,64.0,30,96,0.0,110.0
2145,77.0,30,48,0.0,110.0
2146,57.0,30,24,1.0,110.0
2147,59.0,30,24,1.0,110.0
2148,76.0,0,48,0.0,110.0
2149,57.0,30,24,1.0,110.0
2150,59.0,0,24,1.0,110.0
2151,71.0,0,48,0.0,110.0
2152,57.0,30,24,1.0,110.0
2153,59.0,30,24,1.0,110.0
2154,62.0,30,96,0.0,110.0
2155,77.0,0,48,0.0,110.0
2156,57.0,30,24,1.0,110.0
2157,59.0,30,24,1.0,110.0
2158,76.0,0,48,0.0,110.0
2159,57.0,30,24,1.0,110.0
2160,69.0,30,48,0.0,110.0
2161,57.0,0,96,1.0,110.0
2162,60.0,0,96,0.0,110.0
2163,77.0,60,48,0.0,110.0
2164,76.0,60,48,0.0,110.0
2165,59.0,60,48,1.0,110.0
2166,68.0,0,48,0.0,110.0
2167,69.0,60,48,0.0,110.0
2168,57.0,0,48,1.0,110.0
2169,56.0,0,48,1.0,110.0
2170,71.0,60,48,0.0,110.0
2171,73.0,60,48,0.0,110.0
2172,57.0,0,48,1.0,110.0
2173,74.0,60,48,0.0,110.0
2174,59.0,0,48,1.0,110.0
2175,76.0,60,48,0.0,110.0
2176,61.0,0,48,1.0,110.0
2177,70.0,0,48,0.0,110.0
2178,61.0,60,48,1.0,110.0
2179,62.0,0,48,1.0,110.0
2180,69.0,60,48,0.0,110.0
2181,67.0,0,48,0.0,110.0
2182,64.0,60,48,1.0,110.0
2183,64.0,60,24,0.0,110.0
2184,50.0,0,48,1.0,110.0
2185,62.0,30,24,0.0,110.0
2186,64.0,0,24,0.0,110.0
2187,65.0,0,96,0.0,110.0
2188,51.0,30,48,1.0,110.0
2189,62.0,30,24,0.0,110.0
2190,64.0,0,24,0.0,110.0
2191,50.0,30,48,1.0,110.0
2192,62.0,30,24,0.0,110.0
2193,64.0,30,24,0.0,110.0
2194,48.0,0,48,1.0,110.0
2195,62.0,30,24,0.0,110.0
2196,64.0,30,24,0.0,110.0
2197,66.0,0,96,0.0,110.0
2198,51.0,0,48,1.0,110.0
2199,62.0,30,24,0.0,110.0
2200,64.0,30,24,0.0,110.0
2201,50.0,0,48,1.0,110.0
2202,62.0,30,24,0.0,110.0
2203,64.0,0,24,0.0,110.0
2204,46.0,30,48,1.0,110.0
2205,62.0,30,24,0.0,110.0
2206,64.0,0,24,0.0,110.0
2207,67.0,0,96,0.0,110.0
2208,51.0,30,48,1.0,110.0
2209,62.0,30,24,0.0,110.0
2210,64.0,0,24,0.0,110.0
2211,50.0,30,48,1.0,110.0
2212,62.0,30,24,0.0,110.0
2213,64.0,0,24,0.0,110.0
2214,45.0,30,48,1.0,110.0
2215,62.0,30,24,0.0,110.0
2216,64.0,30,24,0.0,110.0
2217,69.0,0,96,0.0,110.0
2218,51.0,0,48,1.0,110.0
2219,62.0,30,24,0.0,110.0
2220,64.0,0,24,0.0,110.0
2221,50.0,30,48,1.0,110.0
2222,43.0,0,48,1.0,110.0
2223,62.0,30,126,0.0,110.0
2224,70.0,30,96,0.0,110.0
2225,51.0,60,48,1.0,110.0
2226,50.0,60,48,1.0,110.0
2227,42.0,0,48,1.0,110.0
2228,72.0,0,96,0.0,110.0
2229,63.0,60,96,0.0,110.0
2230,43.0,60,48,1.0,110.0
2231,45.0,60,48,1.0,110.0
2232,47.0,60,48,1.0,110.0
2233,74.0,0,96,0.0,110.0
2234,65.0,0,96,0.0,110.0
2235,48.0,60,48,1.0,110.0
2236,50.0,60,48,1.0,110.0
2237,44.0,60,48,1.0,110.0
2238,62.0,0,96,0.0,110.0
2239,71.0,0,96,0.0,110.0
2240,43.0,60,48,1.0,110.0
2241,41.0,60,48,1.0,110.0
2242,40.0,60,48,1.0,110.0
2243,67.0,0,96,0.0,110.0
2244,73.0,0,96,0.0,110.0
2245,38.0,60,48,1.0,110.0
2246,37.0,60,48,1.0,110.0
2247,44.0,0,48,1.0,110.0
2248,74.0,0,96,0.0,110.0
2249,65.0,60,96,0.0,110.0
2250,45.0,60,48,1.0,110.0
2251,47.0,60,48,1.0,110.0
2252,49.0,0,48,1.0,110.0
2253,67.0,60,96,0.0,110.0
2254,76.0,0,96,0.0,110.0
2255,50.0,60,48,1.0,110.0
2256,52.0,60,48,1.0,110.0
2257,46.0,60,48,1.0,110.0
2258,73.0,0,96,0.0,110.0
2259,64.0,0,96,0.0,110.0
2260,45.0,60,48,1.0,110.0
2261,43.0,60,48,1.0,110.0
2262,76.0,60,24,0.0,110.0
2263,74.0,30,24,0.0,110.0
2264,42.0,0,57,1.0,110.0
2265,76.0,0,24,0.0,110.0
2266,69.0,0,96,0.0,110.0
2267,74.0,30,24,0.0,110.0
2268,40.0,30,57,1.0,110.0
2269,76.0,0,24,0.0,110.0
2270,74.0,30,24,0.0,110.0
2271,38.0,30,57,1.0,110.0
2272,76.0,0,24,0.0,110.0
2273,74.0,30,24,0.0,110.0
2274,76.0,30,24,0.0,110.0
2275,48.0,30,96,1.0,110.0
2276,42.0,0,48,1.0,110.0
2277,74.0,30,24,0.0,110.0
2278,76.0,0,24,0.0,110.0
2279,40.0,30,48,1.0,110.0
2280,74.0,30,24,0.0,110.0
2281,76.0,0,24,0.0,110.0
2282,74.0,30,24,0.0,110.0
2283,76.0,30,24,0.0,110.0
2284,50.0,30,96,1.0,110.0
2285,43.0,0,48,1.0,110.0
2286,74.0,30,24,0.0,110.0
2287,76.0,0,24,0.0,110.0
2288,42.0,30,48,1.0,110.0
2289,74.0,30,24,0.0,110.0
2290,76.0,0,24,0.0,110.0
2291,74.0,30,24,0.0,110.0
2292,76.0,30,24,0.0,110.0
2293,52.0,30,96,1.0,110.0
2294,45.0,0,48,1.0,110.0
2295,74.0,30,24,0.0,110.0
2296,76.0,30,24,0.0,110.0
2297,43.0,0,48,1.0,110.0
2298,54.0,30,96,1.0,110.0
2299,74.0,30,126,0.0,110.0
2300,46.0,60,48,1.0,110.0
2301,45.0,60,48,1.0,110.0
2302,53.0,60,96,1.0,110.0
2303,48.0,60,48,1.0,110.0
2304,47.0,60,48,1.0,110.0
2305,52.0,60,96,1.0,110.0
2306,50.0,60,48,1.0,110.0
2307,49.0,60,108,1.0,110.0
2308,58.0,60,96,1.0,110.0
2309,50.0,60,48,1.0,110.0
2310,52.0,60,48,1.0,110.0
2311,81.0,0,48,0.0,110.0
2312,53.0,0,96,1.0,110.0
2313,57.0,60,96,1.0,110.0
2314,82.0,60,48,0.0,110.0
2315,81.0,60,48,0.0,110.0
2316,64.0,0,24,1.0,110.0
2317,79.0,60,48,0.0,110.0
2318,62.0,30,24,1.0,110.0
2319,64.0,0,24,1.0,110.0
2320,58.0,0,96,1.0,110.0
2321,82.0,30,48,0.0,110.0
2322,62.0,30,24,1.0,110.0
2323,64.0,30,24,1.0,110.0
2324,81.0,0,48,0.0,110.0
2325,62.0,30,24,1.0,110.0
2326,64.0,0,24,1.0,110.0
2327,77.0,30,48,0.0,110.0
2328,62.0,30,24,1.0,110.0
2329,64.0,30,24,1.0,110.0
2330,57.0,0,96,1.0,110.0
2331,82.0,0,48,0.0,110.0
2332,62.0,30,24,1.0,110.0
2333,64.0,0,24,1.0,110.0
2334,81.0,30,48,0.0,110.0
2335,62.0,30,24,1.0,110.0
2336,64.0,30,24,1.0,110.0
2337,76.0,0,48,0.0,110.0
2338,62.0,30,24,1.0,110.0
2339,64.0,0,24,1.0,110.0
2340,55.0,0,96,1.0,110.0
2341,82.0,30,48,0.0,110.0
2342,62.0,30,24,1.0,110.0
2343,64.0,30,24,1.0,110.0
2344,81.0,0,48,0.0,110.0
2345,74.0,30,48,0.0,110.0
2346,62.0,30,126,1.0,110.0
2347,53.0,0,96,1.0,110.0
2348,82.0,60,48,0.0,110.0
2349,81.0,60,48,0.0,110.0
2350,73.0,0,48,0.0,110.0
2351,58.0,0,96,1.0,110.0
2352,55.0,60,96,1.0,110.0
2353,74.0,60,48,0.0,110.0
2354,76.0,60,48,0.0,110.0
2355,78.0,0,48,0.0,110.0
2356,60.0,0,96,1.0,110.0
2357,57.0,60,96,1.0,110.0
2358,79.0,60,48,0.0,110.0
2359,81.0,60,48,0.0,110.0
2360,75.0,0,48,0.0,110.0
2361,54.0,0,96,1.0,110.0
2362,57.0,60,96,1.0,110.0
2363,74.0,60,48,0.0,110.0
2364,72.0,60,48,0.0,110.0
2365,71.0,0,48,0.0,110.0
2366,56.0,60,96,1.0,110.0
2367,69.0,60,48,0.0,110.0
2368,68.0,60,48,0.0,110.0
2369,75.0,0,48,0.0,110.0
2370,60.0,60,96,1.0,110.0
2371,57.0,0,96,1.0,110.0
2372,76.0,60,48,0.0,110.0
2373,78.0,60,48,0.0,110.0
2374,80.0,0,48,0.0,110.0
2375,59.0,60,96,1.0,110.0
2376,62.0,0,96,1.0,110.0
2377,81.0,60,48,0.0,110.0
2378,83.0,60,48,0.0,110.0
2379,77.0,60,48,0.0,110.0
2380,59.0,0,96,1.0,110.0
2381,56.0,0,96,1.0,110.0
2382,76.0,60,48,0.0,110.0
2383,74.0,60,48,0.0,110.0
2384,73.0,0,48,0.0,110.0
2385,64.0,0,96,1.0,110.0
2386,57.0,60,96,1.0,110.0
2387,74.0,60,48,0.0,110.0
2388,76.0,60,48,0.0,110.0
2389,70.0,60,48,0.0,110.0
2390,45.0,0,48,1.0,110.0
2391,69.0,60,48,0.0,110.0
2392,47.0,0,48,1.0,110.0
2393,67.0,60,48,0.0,110.0
2394,49.0,0,48,1.0,110.0
2395,66.0,0,48,0.0,110.0
2396,50.0,60,48,1.0,110.0
2397,67.0,60,48,0.0,110.0
2398,52.0,0,48,1.0,110.0
2399,69.0,60,48,0.0,110.0
2400,54.0,0,48,1.0,110.0
2401,65.0,60,48,0.0,110.0
2402,56.0,0,48,1.0,110.0
2403,57.0,60,48,1.0,110.0
2404,64.0,0,48,0.0,110.0
2405,62.0,0,48,0.0,110.0
2406,59.0,60,48,1.0,110.0
2407,58.0,0,24,0.0,110.0
2408,45.0,60,48,1.0,110.0
2409,57.0,30,24,0.0,110.0
2410,58.0,0,24,0.0,110.0
2411,46.0,30,48,1.0,110.0
2412,57.0,30,24,0.0,110.0
2413,58.0,0,24,0.0,110.0
2414,45.0,30,48,1.0,110.0
2415,57.0,30,24,0.0,110.0
2416,58.0,30,24,0.0,110.0
2417,43.0,0,48,1.0,110.0
2418,57.0,30,24,0.0,110.0
2419,58.0,0,24,0.0,110.0
2420,46.0,30,48,1.0,110.0
2421,61.0,0,288,0.0,110.0
2422,57.0,30,24,0.0,110.0
2423,58.0,0,24,0.0,110.0
2424,45.0,30,48,1.0,110.0
2425,57.0,30,24,0.0,110.0
2426,58.0,0,24,0.0,110.0
2427,41.0,0,48,1.0,110.0
2428,57.0,30,24,0.0,110.0
2429,58.0,30,24,0.0,110.0
2430,62.0,30,96,0.0,110.0
2431,46.0,0,48,1.0,110.0
2432,57.0,30,24,0.0,110.0
2433,58.0,30,24,0.0,110.0
2434,45.0,0,48,1.0,110.0
2435,57.0,30,24,0.0,110.0
2436,58.0,0,24,0.0,110.0
2437,40.0,0,48,1.0,110.0
2438,57.0,30,24,0.0,110.0
2439,58.0,30,24,0.0,110.0
2440,64.0,30,96,0.0,110.0
2441,46.0,0,48,1.0,110.0
2442,57.0,30,24,0.0,110.0
2443,58.0,30,24,0.0,110.0
2444,45.0,0,48,1.0,110.0
2445,38.0,30,48,1.0,110.0
2446,57.0,30,126,0.0,110.0
2447,65.0,0,96,0.0,110.0
2448,46.0,60,48,1.0,110.0
2449,45.0,60,48,1.0,110.0
2450,37.0,0,48,1.0,110.0
2451,70.0,0,96,0.0,110.0
2452,67.0,60,96,0.0,110.0
2453,38.0,60,48,1.0,110.0
2454,40.0,60,48,1.0,110.0
2455,42.0,60,48,1.0,110.0
2456,62.0,0,96,0.0,110.0
2457,69.0,0,96,0.0,110.0
2458,43.0,60,48,1.0,110.0
2459,45.0,60,48,1.0,110.0
2460,39.0,0,48,1.0,110.0
2461,69.0,0,96,0.0,110.0
2462,72.0,60,96,0.0,110.0
2463,40.0,60,48,1.0,110.0
2464,42.0,60,48,1.0,110.0
2465,43.0,0,48,1.0,110.0
2466,64.0,0,96,0.0,110.0
2467,71.0,60,96,0.0,110.0
2468,45.0,60,48,1.0,110.0
2469,47.0,60,48,1.0,110.0
2470,44.0,0,48,1.0,110.0
2471,77.0,60,48,0.0,110.0
2472,74.0,0,96,0.0,110.0
2473,45.0,60,48,1.0,110.0
2474,76.0,0,48,0.0,110.0
2475,74.0,60,48,0.0,110.0
2476,47.0,0,48,1.0,110.0
2477,76.0,60,48,0.0,110.0
2478,49.0,0,48,1.0,110.0
2479,69.0,0,96,0.0,110.0
2480,77.0,60,48,0.0,110.0
2481,50.0,0,48,1.0,110.0
2482,52.0,0,48,1.0,110.0
2483,79.0,60,48,0.0,110.0
2484,79.0,60,48,0.0,110.0
2485,46.0,0,48,1.0,110.0
2486,73.0,0,96,0.0,110.0
2487,81.0,60,48,0.0,110.0
2488,45.0,0,48,1.0,110.0
2489,43.0,60,48,1.0,110.0
2490,82.0,0,48,0.0,110.0
2491,82.0,0,24,0.0,110.0
2492,81.0,30,24,0.0,110.0
2493,82.0,0,24,0.0,110.0
2494,74.0,60,96,0.0,110.0
2495,53.0,0,96,1.0,110.0
2496,45.0,30,48,1.0,110.0
2497,81.0,30,24,0.0,110.0
2498,82.0,0,24,0.0,110.0
2499,44.0,30,48,1.0,110.0
2500,81.0,30,24,0.0,110.0
2501,82.0,0,24,0.0,110.0
2502,81.0,30,24,0.0,110.0
2503,82.0,0,24,0.0,110.0
2504,54.0,30,96,1.0,110.0
2505,46.0,30,48,1.0,110.0
2506,81.0,30,24,0.0,110.0
2507,82.0,0,24,0.0,110.0
2508,45.0,30,48,1.0,110.0
2509,81.0,30,24,0.0,110.0
2510,82.0,0,24,0.0,110.0
2511,81.0,30,24,0.0,110.0
2512,82.0,0,24,0.0,110.0
2513,55.0,30,96,1.0,110.0
2514,46.0,30,48,1.0,110.0
2515,81.0,30,24,0.0,110.0
2516,82.0,30,24,0.0,110.0
2517,45.0,0,48,1.0,110.0
2518,81.0,30,24,0.0,110.0
2519,82.0,30,24,0.0,110.0
2520,81.0,30,24,0.0,110.0
2521,82.0,0,24,0.0,110.0
2522,56.0,0,96,1.0,110.0
2523,48.0,30,48,1.0,110.0
2524,81.0,30,24,0.0,110.0
2525,82.0,30,24,0.0,110.0
2526,47.0,0,48,1.0,110.0
2527,81.0,30,24,0.0,110.0
2528,82.0,30,24,0.0,110.0
2529,81.0,30,24,0.0,110.0
2530,82.0,0,24,0.0,110.0
2531,57.0,0,96,1.0,110.0
2532,48.0,30,48,1.0,110.0
2533,81.0,30,24,0.0,110.0
2534,82.0,0,24,0.0,110.0
2535,47.0,30,48,1.0,110.0
2536,81.0,30,24,0.0,110.0
2537,82.0,0,24,0.0,110.0
2538,81.0,30,24,0.0,110.0
2539,82.0,0,24,0.0,110.0
2540,52.0,30,96,1.0,110.0
2541,50.0,30,48,1.0,110.0
2542,81.0,30,24,0.0,110.0
2543,82.0,0,24,0.0,110.0
2544,49.0,30,48,1.0,110.0
2545,81.0,30,24,0.0,110.0
2546,82.0,0,24,0.0,110.0
2547,81.0,30,24,0.0,110.0
2548,82.0,0,24,0.0,110.0
2549,58.0,30,96,1.0,110.0
2550,50.0,30,48,1.0,110.0
2551,81.0,30,24,0.0,110.0
2552,82.0,30,24,0.0,110.0
2553,49.0,0,48,1.0,110.0
2554,81.0,30,24,0.0,110.0
2555,82.0,30,24,0.0,110.0
2556,81.0,30,24,0.0,110.0
2557,82.0,30,24,0.0,110.0
2558,59.0,0,96,1.0,110.0
2559,52.0,0,48,1.0,110.0
2560,81.0,30,24,0.0,110.0
2561,82.0,0,24,0.0,110.0
2562,51.0,30,48,1.0,110.0
2563,81.0,30,24,0.0,110.0
2564,82.0,0,24,0.0,110.0
2565,81.0,30,24,0.0,110.0
2566,82.0,30,24,0.0,110.0
2567,60.0,30,96,1.0,110.0
2568,52.0,0,48,1.0,110.0
2569,81.0,30,24,0.0,110.0
2570,82.0,30,24,0.0,110.0
2571,51.0,0,48,1.0,110.0
2572,81.0,30,24,0.0,110.0
2573,82.0,0,24,0.0,110.0
2574,81.0,30,24,0.0,110.0
2575,82.0,30,24,0.0,110.0
2576,61.0,30,96,1.0,110.0
2577,53.0,0,48,1.0,110.0
2578,81.0,30,24,0.0,110.0
2579,82.0,0,24,0.0,110.0
2580,52.0,30,48,1.0,110.0
2581,81.0,30,24,0.0,110.0
2582,82.0,0,24,0.0,110.0
2583,81.0,30,24,0.0,110.0
2584,82.0,30,24,0.0,110.0
2585,62.0,30,96,1.0,110.0
2586,53.0,0,48,1.0,110.0
2587,81.0,30,24,0.0,110.0
2588,82.0,0,24,0.0,110.0
2589,52.0,30,48,1.0,110.0
2590,81.0,30,24,0.0,110.0
2591,82.0,30,24,0.0,110.0
2592,81.0,30,24,0.0,110.0
2593,82.0,30,24,0.0,110.0
2594,57.0,0,96,1.0,110.0
2595,55.0,0,48,1.0,110.0
2596,81.0,30,24,0.0,110.0
2597,82.0,30,24,0.0,110.0
2598,54.0,0,48,1.0,110.0
2599,81.0,30,78,0.0,110.0
2600,58.0,0,48,1.0,110.0
2601,55.0,30,96,1.0,110.0
2602,61.0,60,48,1.0,110.0
2603,82.0,0,48,0.0,110.0
2604,81.0,60,48,0.0,110.0
2605,62.0,0,48,1.0,110.0
2606,79.0,0,48,0.0,110.0
2607,58.0,60,96,1.0,110.0
2608,82.0,0,48,0.0,110.0
2609,61.0,60,48,1.0,110.0
2610,62.0,60,48,1.0,110.0
2611,81.0,0,48,0.0,110.0
2612,77.0,60,48,0.0,110.0
2613,57.0,0,96,1.0,110.0
2614,82.0,0,48,0.0,110.0
2615,61.0,60,48,1.0,110.0
2616,81.0,60,48,0.0,110.0
2617,62.0,0,48,1.0,110.0
2618,76.0,60,48,0.0,110.0
2619,55.0,0,96,1.0,110.0
2620,82.0,60,48,0.0,110.0
2621,61.0,0,48,1.0,110.0
2622,81.0,60,48,0.0,110.0
2623,62.0,0,48,1.0,110.0
2624,74.0,60,48,0.0,110.0
2625,53.0,0,48,1.0,110.0
2626,82.0,60,48,0.0,110.0
2627,61.0,0,48,1.0,110.0
2628,81.0,60,48,0.0,110.0
2629,62.0,0,48,1.0,110.0
2630,73.0,60,48,0.0,110.0
2631,58.0,0,48,1.0,110.0
2632,74.0,60,48,0.0,110.0
2633,57.0,0,48,1.0,110.0
2634,76.0,60,48,0.0,110.0
2635,55.0,0,48,1.0,110.0
2636,77.0,60,48,0.0,110.0
2637,53.0,0,48,1.0,110.0
2638,79.0,0,48,0.0,110.0
2639,52.0,60,48,1.0,110.0
2640,81.0,60,48,0.0,110.0
2641,50.0,0,48,1.0,110.0
2642,55.0,0,48,1.0,110.0
2643,75.0,60,48,0.0,110.0
2644,74.0,60,48,0.0,110.0
2645,57.0,0,48,1.0,110.0
2646,58.0,0,48,1.0,110.0
2647,72.0,60,48,0.0,110.0
2648,57.0,60,48,1.0,110.0
2649,74.0,0,48,0.0,110.0
2650,58.0,60,48,1.0,110.0
2651,73.0,0,48,0.0,110.0
2652,74.0,60,48,0.0,110.0
2653,57.0,0,48,1.0,110.0
2654,55.0,0,48,1.0,110.0
2655,64.0,60,48,0.0,110.0
2656,73.0,0,48,0.0,110.0
2657,58.0,60,48,1.0,110.0
2658,74.0,60,48,0.0,110.0
2659,57.0,0,48,1.0,110.0
2660,65.0,60,48,0.0,110.0
2661,53.0,0,48,1.0,110.0
2662,73.0,0,48,0.0,110.0
2663,58.0,60,48,1.0,110.0
2664,74.0,60,48,0.0,110.0
2665,57.0,0,48,1.0,110.0
2666,52.0,60,48,1.0,110.0
2667,67.0,0,48,0.0,110.0
2668,58.0,60,48,1.0,110.0
2669,73.0,0,48,0.0,110.0
2670,57.0,60,48,1.0,110.0
2671,74.0,0,48,0.0,110.0
2672,69.0,0,48,0.0,110.0
2673,50.0,60,48,1.0,110.0
2674,58.0,60,48,1.0,110.0
2675,73.0,0,48,0.0,110.0
2676,74.0,60,48,0.0,110.0
2677,57.0,0,48,1.0,110.0
2678,49.0,0,48,1.0,110.0
2679,70.0,60,48,0.0,110.0
2680,50.0,0,48,1.0,110.0
2681,69.0,60,48,0.0,110.0
2682,52.0,0,48,1.0,110.0
2683,67.0,60,48,0.0,110.0
2684,53.0,0,48,1.0,110.0
2685,65.0,60,48,0.0,110.0
2686,64.0,60,48,0.0,110.0
2687,55.0,0,48,1.0,110.0
2688,57.0,0,48,1.0,110.0
2689,62.0,60,48,0.0,110.0
2690,59.0,60,48,1.0,110.0
2691,77.0,0,48,0.0,110.0
2692,61.0,60,48,1.0,110.0
2693,76.0,0,48,0.0,110.0
2694,74.0,0,48,0.0,110.0
2695,62.0,60,48,1.0,110.0
2696,64.0,0,48,0.0,110.0
2697,73.0,60,48,0.0,110.0
2698,71.0,0,48,0.0,110.0
2699,65.0,60,48,0.0,110.0
2700,67.0,0,48,0.0,110.0
2701,69.0,60,48,0.0,110.0
2702,69.0,0,48,0.0,110.0
2703,82.0,60,48,0.0,110.0
2704,71.0,60,48,0.0,110.0
2705,81.0,0,48,0.0,110.0
2706,79.0,60,48,0.0,110.0
2707,73.0,0,48,0.0,110.0
2708,77.0,0,48,0.0,110.0
2709,74.0,60,96,0.0,110.0
2710,76.0,60,48,0.0,110.0
2711,74.0,0,48,0.0,110.0
2712,72.0,60,48,0.0,110.0
2713,70.0,0,48,0.0,110.0
2714,79.0,60,48,0.0,110.0
2715,69.0,0,48,0.0,110.0
2716,81.0,60,48,0.0,110.0
2717,67.0,60,48,0.0,110.0
2718,82.0,0,108,0.0,110.0
2719,73.0,0,96,0.0,110.0
2720,69.0,60,96,0.0,110.0
2721,81.0,60,48,0.0,110.0
2722,82.0,60,108,0.0,110.0
2723,72.0,60,96,0.0,110.0
2724,80.0,60,48,0.0,110.0
2725,81.0,60,108,0.0,110.0
2726,57.0,60,96,1.0,110.0
2727,71.0,0,96,0.0,110.0
2728,80.0,60,48,0.0,110.0
2729,81.0,60,108,0.0,110.0
2730,70.0,60,96,0.0,110.0
2731,78.0,60,48,0.0,110.0
2732,58.0,60,24,1.0,110.0
2733,79.0,60,108,0.0,110.0
2734,57.0,30,24,1.0,110.0
2735,58.0,0,24,1.0,110.0
2736,69.0,0,96,0.0,110.0
2737,78.0,30,48,0.0,110.0
2738,57.0,30,24,1.0,110.0
2739,58.0,30,24,1.0,110.0
2740,57.0,30,24,1.0,110.0
2741,58.0,0,24,1.0,110.0
2742,79.0,0,108,0.0,110.0
2743,57.0,30,24,1.0,110.0
2744,58.0,30,24,1.0,110.0
2745,74.0,30,96,0.0,110.0
2746,76.0,0,48,0.0,110.0
2747,57.0,30,24,1.0,110.0
2748,58.0,30,24,1.0,110.0
2749,57.0,30,24,1.0,110.0
2750,58.0,0,24,1.0,110.0
2751,77.0,0,108,0.0,110.0
2752,57.0,30,24,1.0,110.0
2753,58.0,30,24,1.0,110.0
2754,68.0,30,96,0.0,110.0
2755,76.0,0,48,0.0,110.0
2756,57.0,30,24,1.0,110.0
2757,58.0,30,24,1.0,110.0
2758,77.0,0,48,0.0,110.0
2759,57.0,30,24,1.0,110.0
2760,58.0,30,24,1.0,110.0
2761,77.0,0,48,0.0,110.0
2762,57.0,30,24,1.0,110.0
2763,58.0,0,24,1.0,110.0
2764,67.0,0,96,0.0,110.0
2765,74.0,30,48,0.0,110.0
2766,57.0,30,24,1.0,110.0
2767,58.0,0,24,1.0,110.0
2768,57.0,30,24,1.0,110.0
2769,58.0,30,24,1.0,110.0
2770,75.0,30,108,0.0,110.0
2771,57.0,30,24,1.0,110.0
2772,58.0,30,24,1.0,110.0
2773,66.0,0,96,0.0,110.0
2774,74.0,0,48,0.0,110.0
2775,57.0,30,24,1.0,110.0
2776,58.0,30,24,1.0,110.0
2777,57.0,30,24,1.0,110.0
2778,58.0,0,24,1.0,110.0
2779,75.0,0,108,0.0,110.0
2780,57.0,30,24,1.0,110.0
2781,58.0,30,24,1.0,110.0
2782,65.0,30,96,0.0,110.0
2783,73.0,0,48,0.0,110.0
2784,57.0,30,24,1.0,110.0
2785,58.0,30,24,1.0,110.0
2786,57.0,30,24,1.0,110.0
2787,58.0,30,24,1.0,110.0
2788,74.0,0,108,0.0,110.0
2789,57.0,30,24,1.0,110.0
2790,58.0,30,24,1.0,110.0
2791,64.0,0,96,0.0,110.0
2792,73.0,0,48,0.0,110.0
2793,57.0,30,24,1.0,110.0
2794,58.0,0,24,1.0,110.0
2795,57.0,30,24,1.0,110.0
2796,58.0,30,24,1.0,110.0
2797,74.0,30,108,0.0,110.0
2798,57.0,30,24,1.0,110.0
2799,58.0,0,24,1.0,110.0
2800,71.0,30,48,0.0,110.0
2801,57.0,30,24,1.0,110.0
2802,58.0,0,24,1.0,110.0
2803,72.0,30,48,0.0,110.0
2804,57.0,30,24,1.0,110.0
2805,50.0,30,48,1.0,110.0
2806,67.0,0,228,0.0,110.0
2807,66.0,0,48,0.0,110.0
2808,51.0,60,48,1.0,110.0
2809,50.0,0,48,1.0,110.0
2810,67.0,60,48,0.0,110.0
2811,48.0,60,48,1.0,110.0
2812,69.0,0,48,0.0,110.0
2813,51.0,60,48,1.0,110.0
2814,66.0,0,48,0.0,110.0
2815,50.0,60,48,1.0,110.0
2816,67.0,0,48,0.0,110.0
2817,70.0,0,48,0.0,110.0
2818,46.0,60,48,1.0,110.0
2819,66.0,60,48,0.0,110.0
2820,51.0,0,48,1.0,110.0
2821,50.0,60,48,1.0,110.0
2822,67.0,0,48,0.0,110.0
2823,45.0,60,48,1.0,110.0
2824,72.0,0,48,0.0,110.0
2825,51.0,0,48,1.0,110.0
2826,66.0,60,48,0.0,110.0
2827,50.0,60,48,1.0,110.0
2828,67.0,0,48,0.0,110.0
2829,43.0,0,48,1.0,110.0
2830,74.0,60,48,0.0,110.0
2831,51.0,60,48,1.0,110.0
2832,69.0,0,48,0.0,110.0
2833,50.0,60,48,1.0,110.0
2834,70.0,0,48,0.0,110.0
2835,72.0,0,48,0.0,110.0
2836,42.0,60,48,1.0,110.0
2837,43.0,60,48,1.0,110.0
2838,70.0,0,48,0.0,110.0
2839,45.0,60,48,1.0,110.0
2840,69.0,0,48,0.0,110.0
2841,46.0,0,48,1.0,110.0
2842,67.0,60,48,0.0,110.0
2843,70.0,0,48,0.0,110.0
2844,43.0,0,48,1.0,110.0
2845,64.0,0,48,0.0,110.0
2846,49.0,60,48,1.0,110.0
2847,66.0,0,144,0.0,110.0
2848,38.0,0,144,1.0,110.0
2849,69.0,60,144,0.0,110.0
