tick,type,tempo,time,meta,track,numerator,denominator,clocks_per_click,notated_32nd_notes_per_beat,program,channel,note,velocity
0,set_tempo,571420,0,1,0,,,,,,,,
0,note_on,,0,0,2,,,,,,0,64,92
0,note_on,,0,0,2,,,,,,0,57,92
0,track_name,,0,1,3,,,,,,,,
0,note_on,,0,0,3,,,,,,0,45,102
0,program_change,,0,0,2,,,,,19,0,,
0,note_on,,0,0,1,,,,,,0,72,92
0,note_on,,0,0,1,,,,,,0,81,92
0,note_on,,0,0,1,,,,,,0,76,92
0,program_change,,0,0,1,,,,,19,0,,
0,track_name,,0,1,1,,,,,,,,
0,track_name,,0,1,2,,,,,,,,
0,time_signature,,0,1,0,4,4,24,8,,,,
384,note_on,,0,0,2,,,,,,0,59,92
384,note_on,,0,0,1,,,,,,0,71,92
384,note_off,,384,0,3,,,,,,0,45,64
384,note_on,,0,0,1,,,,,,0,76,92
384,note_off,,0,0,1,,,,,,0,76,64
384,note_on,,0,0,1,,,,,,0,80,92
384,note_off,,384,0,1,,,,,,0,72,64
384,note_on,,0,0,2,,,,,,0,64,92
384,note_off,,0,0,2,,,,,,0,64,64
384,note_off,,384,0,2,,,,,,0,57,64
384,note_off,,0,0,1,,,,,,0,81,64
384,note_on,,0,0,3,,,,,,0,52,102
768,note_off,,384,0,2,,,,,,0,59,64
768,note_off,,0,0,2,,,,,,0,64,64
768,note_on,,0,0,2,,,,,,0,64,92
768,note_on,,0,0,2,,,,,,0,57,92
768,note_on,,0,0,3,,,,,,0,45,102
768,note_on,,0,0,1,,,,,,0,81,92
768,note_on,,0,0,1,,,,,,0,76,92
768,note_on,,0,0,1,,,,,,0,72,92
768,note_off,,0,0,1,,,,,,0,80,64
768,note_off,,384,0,1,,,,,,0,71,64
768,note_off,,384,0,3,,,,,,0,52,64
768,note_off,,0,0,1,,,,,,0,76,64
864,note_off,,96,0,1,,,,,,0,81,64
864,note_on,,0,0,1,,,,,,0,79,92
864,note_off,,0,0,1,,,,,,0,72,64
864,note_off,,0,0,1,,,,,,0,76,64
960,note_on,,0,0,1,,,,,,0,77,92
960,note_off,,96,0,1,,,,,,0,79,64
1056,note_off,,96,0,1,,,,,,0,77,64
1056,note_on,,0,0,1,,,,,,0,76,92
1152,note_off,,384,0,2,,,,,,0,57,64
1152,note_off,,96,0,1,,,,,,0,76,64
1152,note_on,,0,0,1,,,,,,0,74,92
1152,note_off,,0,0,2,,,,,,0,64,64
1152,note_off,,384,0,3,,,,,,0,45,64
1248,note_on,,0,0,1,,,,,,0,72,92
1248,note_off,,96,0,1,,,,,,0,74,64
1344,note_on,,192,0,3,,,,,,0,57,102
1344,note_on,,0,0,1,,,,,,0,71,92
1344,note_on,,0,0,1,,,,,,0,64,92
1344,note_off,,96,0,1,,,,,,0,72,64
1344,note_on,,192,0,2,,,,,,0,60,92
1440,note_on,,0,0,1,,,,,,0,69,92
1440,note_off,,96,0,1,,,,,,0,71,64
1536,note_on,,0,0,2,,,,,,0,59,92
1536,note_off,,192,0,2,,,,,,0,60,64
1536,note_off,,192,0,3,,,,,,0,57,64
1536,note_on,,0,0,3,,,,,,0,56,102
1536,note_off,,96,0,1,,,,,,0,69,64
1536,note_on,,0,0,1,,,,,,0,76,92
1728,note_off,,192,0,1,,,,,,0,76,64
1728,note_off,,0,0,1,,,,,,0,64,64
1728,note_on,,0,0,1,,,,,,0,64,92
1824,note_off,,288,0,3,,,,,,0,56,64
1824,note_on,,0,0,3,,,,,,0,54,102
1824,note_off,,288,0,2,,,,,,0,59,64
1824,note_on,,0,0,2,,,,,,0,57,92
1920,note_on,,0,0,1,,,,,,0,64,92
1920,note_on,,0,0,2,,,,,,0,56,92
1920,note_off,,96,0,3,,,,,,0,54,64
1920,note_off,,192,0,1,,,,,,0,64,64
1920,note_off,,96,0,2,,,,,,0,57,64
1920,note_on,,0,0,3,,,,,,0,52,102
2112,note_on,,192,0,1,,,,,,0,66,92
2112,note_on,,0,0,3,,,,,,0,50,102
2112,note_off,,192,0,3,,,,,,0,52,64
2112,note_on,,0,0,2,,,,,,0,57,92
2112,note_off,,192,0,2,,,,,,0,56,64
2208,note_on,,0,0,2,,,,,,0,59,92
2208,note_off,,96,0,2,,,,,,0,57,64
2208,note_on,,0,0,1,,,,,,0,68,92
2208,note_off,,96,0,1,,,,,,0,66,64
2304,note_off,,96,0,2,,,,,,0,59,64
2304,note_on,,0,0,3,,,,,,0,48,102
2304,note_off,,96,0,1,,,,,,0,68,64
2304,note_off,,192,0,3,,,,,,0,50,64
2304,note_on,,0,0,2,,,,,,0,60,92
2304,note_on,,0,0,1,,,,,,0,69,92
2496,note_on,,0,0,2,,,,,,0,60,92
2496,note_off,,192,0,2,,,,,,0,60,64
2496,note_off,,192,0,1,,,,,,0,69,64
2496,note_on,,0,0,1,,,,,,0,69,92
2592,note_on,,0,0,2,,,,,,0,62,92
2592,note_off,,96,0,2,,,,,,0,60,64
2592,note_off,,96,0,1,,,,,,0,69,64
2592,note_on,,0,0,3,,,,,,0,47,102
2592,note_on,,0,0,1,,,,,,0,71,92
2592,note_off,,288,0,3,,,,,,0,48,64
2688,note_on,,0,0,1,,,,,,0,69,92
2688,note_on,,0,0,2,,,,,,0,64,92
2688,note_off,,96,0,1,,,,,,0,71,64
2688,note_off,,96,0,2,,,,,,0,62,64
2688,note_off,,96,0,3,,,,,,0,47,64
2688,note_on,,0,0,3,,,,,,0,45,102
2688,note_on,,0,0,1,,,,,,0,72,92
2688,note_off,,0,0,1,,,,,,0,64,64
2880,note_off,,192,0,2,,,,,,0,64,64
2880,note_on,,0,0,2,,,,,,0,60,92
2880,note_off,,192,0,3,,,,,,0,45,64
2880,note_off,,192,0,1,,,,,,0,72,64
2880,note_on,,0,0,3,,,,,,0,57,102
2880,note_on,,0,0,1,,,,,,0,64,92
2880,note_on,,0,0,1,,,,,,0,72,92
2880,note_off,,0,0,1,,,,,,0,69,64
2976,note_on,,0,0,1,,,,,,0,74,92
2976,note_off,,96,0,1,,,,,,0,72,64
3072,note_off,,192,0,3,,,,,,0,57,64
3072,note_on,,0,0,3,,,,,,0,56,102
3072,note_on,,0,0,1,,,,,,0,76,92
3072,note_off,,96,0,1,,,,,,0,74,64
3072,note_off,,192,0,2,,,,,,0,60,64
3072,note_on,,0,0,2,,,,,,0,59,92
3264,note_off,,192,0,1,,,,,,0,76,64
3264,note_on,,0,0,1,,,,,,0,64,92
3264,note_off,,0,0,1,,,,,,0,64,64
3360,note_on,,0,0,2,,,,,,0,57,92
3360,note_off,,288,0,2,,,,,,0,59,64
3360,note_on,,0,0,3,,,,,,0,54,102
3360,note_off,,288,0,3,,,,,,0,56,64
3456,note_on,,0,0,1,,,,,,0,64,92
3456,note_on,,0,0,2,,,,,,0,56,92
3456,note_off,,96,0,2,,,,,,0,57,64
3456,note_off,,192,0,1,,,,,,0,64,64
3456,note_off,,96,0,3,,,,,,0,54,64
3456,note_on,,0,0,3,,,,,,0,52,102
3648,note_on,,0,0,2,,,,,,0,57,92
3648,note_off,,192,0,2,,,,,,0,56,64
3648,note_on,,192,0,1,,,,,,0,66,92
3648,note_off,,192,0,3,,,,,,0,52,64
3648,note_on,,0,0,3,,,,,,0,50,102
3744,note_on,,0,0,1,,,,,,0,68,92
3744,note_off,,96,0,1,,,,,,0,66,64
3744,note_on,,0,0,2,,,,,,0,59,92
3744,note_off,,96,0,2,,,,,,0,57,64
3840,note_off,,192,0,3,,,,,,0,50,64
3840,note_off,,96,0,1,,,,,,0,68,64
3840,note_on,,0,0,3,,,,,,0,48,102
3840,note_off,,96,0,2,,,,,,0,59,64
3840,note_on,,0,0,2,,,,,,0,60,92
3840,note_on,,0,0,1,,,,,,0,69,92
4032,note_off,,192,0,2,,,,,,0,60,64
4032,note_on,,0,0,1,,,,,,0,69,92
4032,note_off,,192,0,1,,,,,,0,69,64
4032,note_on,,0,0,2,,,,,,0,60,92
4128,note_off,,288,0,3,,,,,,0,48,64
4128,note_on,,0,0,3,,,,,,0,47,102
4128,note_on,,0,0,1,,,,,,0,71,92
4128,note_off,,96,0,2,,,,,,0,60,64
4128,note_on,,0,0,2,,,,,,0,62,92
4128,note_off,,96,0,1,,,,,,0,69,64
4224,note_off,,96,0,1,,,,,,0,71,64
4224,note_off,,0,0,1,,,,,,0,64,64
4224,note_on,,0,0,1,,,,,,0,72,92
4224,note_off,,96,0,2,,,,,,0,62,64
4224,note_on,,0,0,2,,,,,,0,64,92
4224,note_on,,0,0,3,,,,,,0,45,102
4224,note_off,,96,0,3,,,,,,0,47,64
4416,note_off,,192,0,3,,,,,,0,45,64
4416,note_on,,0,0,3,,,,,,0,57,102
4416,note_on,,0,0,1,,,,,,0,72,92
4416,note_on,,0,0,1,,,,,,0,69,92
4416,note_off,,192,0,1,,,,,,0,72,64
4416,note_on,,0,0,2,,,,,,0,60,92
4416,note_on,,0,0,2,,,,,,0,64,92
4416,note_off,,192,0,2,,,,,,0,64,64
4512,note_on,,0,0,1,,,,,,0,74,92
4512,note_off,,96,0,1,,,,,,0,72,64
4608,note_off,,96,0,1,,,,,,0,74,64
4608,note_on,,0,0,1,,,,,,0,71,92
4608,note_off,,0,0,1,,,,,,0,69,64
4608,note_off,,192,0,3,,,,,,0,57,64
4608,note_on,,0,0,3,,,,,,0,56,102
4608,note_on,,0,0,2,,,,,,0,59,92
4608,note_on,,0,0,2,,,,,,0,64,92
4608,note_off,,0,0,2,,,,,,0,64,64
4608,note_off,,192,0,2,,,,,,0,60,64
4608,note_on,,0,0,1,,,,,,0,76,92
4800,note_on,,0,0,2,,,,,,0,64,92
4800,note_on,,0,0,2,,,,,,0,59,92
4800,note_off,,192,0,2,,,,,,0,59,64
4800,note_off,,192,0,3,,,,,,0,56,64
4800,note_on,,0,0,3,,,,,,0,52,102
4800,note_off,,0,0,2,,,,,,0,64,64
4992,note_on,,0,0,2,,,,,,0,64,92
4992,note_on,,0,0,3,,,,,,0,56,102
4992,note_off,,192,0,2,,,,,,0,59,64
4992,note_off,,0,0,2,,,,,,0,64,64
4992,note_on,,0,0,2,,,,,,0,59,92
4992,note_off,,192,0,3,,,,,,0,52,64
4992,note_off,,0,0,1,,,,,,0,71,64
4992,note_off,,384,0,1,,,,,,0,76,64
5088,note_off,,96,0,2,,,,,,0,64,64
5088,note_on,,0,0,2,,,,,,0,65,92
5184,note_on,,0,0,1,,,,,,0,71,92
5184,note_on,,192,0,1,,,,,,0,76,92
5184,note_on,,0,0,3,,,,,,0,52,102
5184,note_on,,0,0,2,,,,,,0,64,92
5184,note_off,,0,0,2,,,,,,0,59,64
5184,note_off,,96,0,2,,,,,,0,65,64
5184,note_off,,192,0,3,,,,,,0,56,64
5184,note_on,,0,0,2,,,,,,0,59,92
5376,note_off,,192,0,1,,,,,,0,71,64
5376,note_off,,0,0,1,,,,,,0,76,64
5376,note_on,,0,0,3,,,,,,0,57,102
5376,note_on,,0,0,1,,,,,,0,72,92
5376,note_off,,0,0,2,,,,,,0,64,64
5376,note_off,,192,0,2,,,,,,0,59,64
5376,note_on,,0,0,1,,,,,,0,76,92
5376,note_off,,192,0,3,,,,,,0,52,64
5472,note_off,,96,0,1,,,,,,0,76,64
5472,note_on,,0,0,1,,,,,,0,77,92
5568,note_on,,0,0,2,,,,,,0,60,92
5568,note_on,,192,0,2,,,,,,0,64,92
5568,note_off,,192,0,3,,,,,,0,57,64
5568,note_on,,0,0,3,,,,,,0,45,102
5568,note_on,,0,0,1,,,,,,0,72,92
5568,note_on,,0,0,1,,,,,,0,76,92
5568,note_off,,0,0,1,,,,,,0,72,64
5568,note_off,,96,0,1,,,,,,0,77,64
5760,note_on,,0,0,2,,,,,,0,64,92
5760,note_on,,0,0,2,,,,,,0,60,92
5760,note_on,,0,0,3,,,,,,0,48,102
5760,note_off,,0,0,2,,,,,,0,64,64
5760,note_off,,192,0,3,,,,,,0,45,64
5760,note_off,,192,0,1,,,,,,0,72,64
5760,note_off,,0,0,1,,,,,,0,76,64
5760,note_off,,192,0,2,,,,,,0,60,64
5856,note_off,,96,0,2,,,,,,0,64,64
5856,note_on,,0,0,2,,,,,,0,65,92
5952,note_off,,96,0,2,,,,,,0,65,64
5952,note_off,,0,0,2,,,,,,0,60,64
5952,note_on,,0,0,1,,,,,,0,72,92
5952,note_on,,0,0,2,,,,,,0,60,92
5952,note_on,,0,0,2,,,,,,0,64,92
5952,note_on,,192,0,1,,,,,,0,76,92
5952,note_on,,0,0,3,,,,,,0,45,102
5952,note_off,,192,0,3,,,,,,0,48,64
6144,note_on,,0,0,3,,,,,,0,52,102
6144,note_off,,192,0,2,,,,,,0,60,64
6144,note_off,,192,0,3,,,,,,0,45,64
6144,note_off,,0,0,1,,,,,,0,76,64
6144,note_off,,0,0,2,,,,,,0,64,64
6144,note_off,,192,0,1,,,,,,0,72,64
6144,note_on,,0,0,1,,,,,,0,76,92
6144,note_on,,0,0,1,,,,,,0,71,92
6240,note_off,,96,0,1,,,,,,0,76,64
6240,note_on,,0,0,1,,,,,,0,77,92
6336,note_off,,0,0,1,,,,,,0,71,64
6336,note_on,,0,0,2,,,,,,0,59,92
6336,note_on,,192,0,2,,,,,,0,64,92
6336,note_off,,96,0,1,,,,,,0,77,64
6336,note_off,,192,0,3,,,,,,0,52,64
6336,note_on,,0,0,3,,,,,,0,52,102
6336,note_on,,0,0,1,,,,,,0,76,92
6336,note_on,,0,0,1,,,,,,0,71,92
6528,note_on,,0,0,3,,,,,,0,56,102
6528,note_off,,192,0,3,,,,,,0,52,64
6528,note_off,,192,0,2,,,,,,0,59,64
6528,note_off,,0,0,2,,,,,,0,64,64
6528,note_on,,0,0,2,,,,,,0,59,92
6528,note_on,,0,0,2,,,,,,0,64,92
6528,note_off,,0,0,1,,,,,,0,76,64
6528,note_off,,192,0,1,,,,,,0,71,64
6624,note_off,,96,0,2,,,,,,0,64,64
6624,note_on,,0,0,2,,,,,,0,65,92
6720,note_on,,192,0,1,,,,,,0,76,92
6720,note_on,,0,0,1,,,,,,0,71,92
6720,note_off,,192,0,3,,,,,,0,56,64
6720,note_on,,0,0,2,,,,,,0,59,92
6720,note_on,,0,0,3,,,,,,0,52,102
6720,note_off,,0,0,2,,,,,,0,59,64
6720,note_on,,0,0,2,,,,,,0,64,92
6720,note_off,,96,0,2,,,,,,0,65,64
6912,note_off,,192,0,2,,,,,,0,59,64
6912,note_off,,0,0,2,,,,,,0,64,64
6912,note_on,,0,0,3,,,,,,0,57,102
6912,note_off,,192,0,1,,,,,,0,71,64
6912,note_on,,0,0,1,,,,,,0,76,92
6912,note_on,,0,0,1,,,,,,0,72,92
6912,note_off,,192,0,3,,,,,,0,52,64
6912,note_off,,0,0,1,,,,,,0,76,64
7008,note_off,,96,0,1,,,,,,0,76,64
7008,note_on,,0,0,1,,,,,,0,77,92
7104,note_off,,192,0,3,,,,,,0,57,64
7104,note_on,,0,0,3,,,,,,0,45,102
7104,note_on,,0,0,1,,,,,,0,76,92
7104,note_on,,0,0,1,,,,,,0,72,92
7104,note_on,,192,0,2,,,,,,0,64,92
7104,note_off,,96,0,1,,,,,,0,77,64
7104,note_off,,0,0,1,,,,,,0,72,64
7104,note_on,,0,0,2,,,,,,0,60,92
7296,note_on,,0,0,3,,,,,,0,48,102
7296,note_off,,192,0,3,,,,,,0,45,64
7296,note_off,,0,0,2,,,,,,0,64,64
7296,note_off,,192,0,1,,,,,,0,72,64
7296,note_off,,192,0,2,,,,,,0,60,64
7296,note_on,,0,0,2,,,,,,0,60,92
7296,note_on,,0,0,2,,,,,,0,64,92
7296,note_off,,0,0,1,,,,,,0,76,64
7392,note_off,,96,0,2,,,,,,0,64,64
7392,note_on,,0,0,2,,,,,,0,65,92
7488,note_on,,0,0,2,,,,,,0,64,92
7488,note_off,,0,0,2,,,,,,0,60,64
7488,note_on,,0,0,2,,,,,,0,60,92
7488,note_off,,96,0,2,,,,,,0,65,64
7488,note_on,,0,0,1,,,,,,0,72,92
7488,note_on,,192,0,1,,,,,,0,76,92
7488,note_on,,0,0,3,,,,,,0,45,102
7488,note_off,,192,0,3,,,,,,0,48,64
7680,note_on,,0,0,2,,,,,,0,62,92
7680,note_off,,192,0,3,,,,,,0,45,64
7680,note_on,,0,0,3,,,,,,0,50,102
7680,note_off,,0,0,1,,,,,,0,76,64
7680,note_on,,0,0,1,,,,,,0,74,92
7680,note_on,,0,0,1,,,,,,0,77,92
7680,note_on,,0,0,2,,,,,,0,60,92
7680,note_off,,0,0,2,,,,,,0,64,64
7680,note_off,,192,0,2,,,,,,0,60,64
7680,note_off,,192,0,1,,,,,,0,72,64
7776,note_on,,0,0,1,,,,,,0,79,92
7776,note_off,,96,0,1,,,,,,0,77,64
7872,note_off,,96,0,1,,,,,,0,79,64
7872,note_off,,0,0,1,,,,,,0,74,64
7872,note_off,,192,0,2,,,,,,0,60,64
7872,note_off,,0,0,2,,,,,,0,62,64
7872,note_on,,0,0,2,,,,,,0,69,92
7872,note_on,,0,0,1,,,,,,0,74,92
7872,note_on,,0,0,1,,,,,,0,77,92
7872,note_on,,0,0,2,,,,,,0,60,92
7968,note_off,,96,0,1,,,,,,0,77,64
7968,note_on,,0,0,1,,,,,,0,79,92
8064,note_on,,0,0,2,,,,,,0,65,92
8064,note_off,,192,0,2,,,,,,0,60,64
8064,note_on,,0,0,2,,,,,,0,60,92
8064,note_off,,384,0,3,,,,,,0,50,64
8064,note_on,,0,0,1,,,,,,0,77,92
8064,note_off,,96,0,1,,,,,,0,79,64
8064,note_off,,0,0,1,,,,,,0,74,64
8064,note_on,,0,0,1,,,,,,0,74,92
8064,note_on,,0,0,3,,,,,,0,50,102
8064,note_off,,0,0,2,,,,,,0,69,64
8160,note_on,,0,0,1,,,,,,0,79,92
8160,note_off,,96,0,1,,,,,,0,77,64
8256,note_on,,0,0,1,,,,,,0,77,92
8256,note_off,,192,0,2,,,,,,0,60,64
8256,note_off,,0,0,2,,,,,,0,65,64
8256,note_off,,0,0,1,,,,,,0,74,64
8256,note_off,,96,0,1,,,,,,0,79,64
8256,note_on,,0,0,1,,,,,,0,74,92
8256,note_on,,0,0,2,,,,,,0,62,92
8256,note_on,,0,0,2,,,,,,0,60,92
8352,note_off,,96,0,1,,,,,,0,77,64
8352,note_on,,0,0,1,,,,,,0,79,92
8448,note_off,,192,0,2,,,,,,0,60,64
8448,note_off,,0,0,2,,,,,,0,62,64
8448,note_on,,0,0,1,,,,,,0,74,92
8448,note_on,,0,0,2,,,,,,0,59,92
8448,note_on,,0,0,1,,,,,,0,77,92
8448,note_off,,96,0,1,,,,,,0,79,64
8448,note_on,,0,0,3,,,,,,0,55,102
8448,note_off,,384,0,3,,,,,,0,50,64
8448,note_off,,0,0,1,,,,,,0,74,64
8448,note_on,,0,0,2,,,,,,0,62,92
8544,note_off,,96,0,2,,,,,,0,62,64
8544,note_on,,0,0,2,,,,,,0,64,92
8640,note_on,,0,0,2,,,,,,0,62,92
8640,note_off,,0,0,2,,,,,,0,59,64
8640,note_on,,0,0,1,,,,,,0,74,92
8640,note_off,,96,0,2,,,,,,0,64,64
8640,note_on,,0,0,1,,,,,,0,77,92
8640,note_off,,0,0,1,,,,,,0,77,64
8640,note_off,,192,0,1,,,,,,0,74,64
8640,note_on,,0,0,2,,,,,,0,59,92
8736,note_on,,0,0,2,,,,,,0,64,92
8736,note_off,,96,0,2,,,,,,0,62,64
8832,note_on,,0,0,3,,,,,,0,43,102
8832,note_on,,0,0,2,,,,,,0,62,92
8832,note_on,,0,0,2,,,,,,0,59,92
8832,note_off,,384,0,3,,,,,,0,55,64
8832,note_off,,192,0,1,,,,,,0,74,64
8832,note_off,,0,0,1,,,,,,0,77,64
8832,note_on,,0,0,1,,,,,,0,71,92
8832,note_on,,0,0,1,,,,,,0,74,92
8832,note_off,,96,0,2,,,,,,0,64,64
8832,note_off,,0,0,2,,,,,,0,59,64
8928,note_off,,96,0,2,,,,,,0,62,64
8928,note_on,,0,0,2,,,,,,0,64,92
9024,note_off,,192,0,1,,,,,,0,74,64
9024,note_on,,0,0,1,,,,,,0,71,92
9024,note_on,,0,0,1,,,,,,0,67,92
9024,note_off,,0,0,1,,,,,,0,71,64
9024,note_on,,0,0,2,,,,,,0,59,92
9024,note_off,,96,0,2,,,,,,0,64,64
9024,note_off,,0,0,2,,,,,,0,59,64
9024,note_on,,0,0,2,,,,,,0,62,92
9120,note_off,,96,0,2,,,,,,0,62,64
9120,note_on,,0,0,2,,,,,,0,64,92
9216,note_off,,96,0,2,,,,,,0,64,64
9216,note_on,,0,0,1,,,,,,0,76,92
9216,note_on,,0,0,1,,,,,,0,67,92
9216,note_off,,0,0,1,,,,,,0,67,64
9216,note_off,,192,0,1,,,,,,0,71,64
9216,note_off,,0,0,2,,,,,,0,59,64
9216,note_on,,0,0,2,,,,,,0,59,92
9216,note_on,,0,0,3,,,,,,0,48,102
9216,note_off,,384,0,3,,,,,,0,43,64
9216,note_on,,0,0,2,,,,,,0,60,92
9312,note_on,,0,0,1,,,,,,0,77,92
9312,note_off,,96,0,1,,,,,,0,76,64
9408,note_on,,0,0,1,,,,,,0,76,92
9408,note_off,,96,0,1,,,,,,0,77,64
9408,note_on,,0,0,1,,,,,,0,72,92
9408,note_off,,192,0,2,,,,,,0,59,64
9408,note_off,,0,0,2,,,,,,0,60,64
9408,note_on,,0,0,2,,,,,,0,67,92
9408,note_on,,0,0,2,,,,,,0,59,92
9408,note_off,,0,0,1,,,,,,0,67,64
9504,note_on,,0,0,1,,,,,,0,77,92
9504,note_off,,96,0,1,,,,,,0,76,64
9600,note_off,,384,0,3,,,,,,0,48,64
9600,note_on,,0,0,3,,,,,,0,48,102
9600,note_off,,96,0,1,,,,,,0,77,64
9600,note_on,,0,0,1,,,,,,0,72,92
9600,note_on,,0,0,1,,,,,,0,76,92
9600,note_off,,192,0,2,,,,,,0,59,64
9600,note_off,,0,0,2,,,,,,0,67,64
9600,note_on,,0,0,2,,,,,,0,64,92
9600,note_on,,0,0,2,,,,,,0,59,92
9600,note_off,,0,0,1,,,,,,0,72,64
9696,note_off,,96,0,1,,,,,,0,76,64
9696,note_on,,0,0,1,,,,,,0,77,92
9792,note_off,,192,0,2,,,,,,0,59,64
9792,note_off,,0,0,2,,,,,,0,64,64
9792,note_on,,0,0,2,,,,,,0,60,92
9792,note_on,,0,0,2,,,,,,0,59,92
9792,note_on,,0,0,1,,,,,,0,76,92
9792,note_on,,0,0,1,,,,,,0,72,92
9792,note_off,,0,0,1,,,,,,0,72,64
9792,note_off,,96,0,1,,,,,,0,77,64
9888,note_on,,0,0,1,,,,,,0,77,92
9888,note_off,,96,0,1,,,,,,0,76,64
9984,note_off,,0,0,2,,,,,,0,60,64
9984,note_on,,0,0,3,,,,,,0,53,102
9984,note_off,,384,0,3,,,,,,0,48,64
9984,note_off,,192,0,2,,,,,,0,59,64
9984,note_on,,0,0,2,,,,,,0,57,92
9984,note_on,,0,0,2,,,,,,0,60,92
9984,note_on,,0,0,1,,,,,,0,72,92
9984,note_on,,0,0,1,,,,,,0,76,92
9984,note_off,,0,0,1,,,,,,0,72,64
9984,note_off,,96,0,1,,,,,,0,77,64
10080,note_on,,0,0,2,,,,,,0,62,92
10080,note_off,,96,0,2,,,,,,0,60,64
10176,note_on,,0,0,2,,,,,,0,57,92
10176,note_off,,0,0,2,,,,,,0,57,64
10176,note_off,,192,0,1,,,,,,0,72,64
10176,note_on,,0,0,2,,,,,,0,60,92
10176,note_off,,0,0,1,,,,,,0,76,64
10176,note_on,,0,0,1,,,,,,0,76,92
10176,note_on,,0,0,1,,,,,,0,72,92
10176,note_off,,96,0,2,,,,,,0,62,64
10272,note_off,,96,0,2,,,,,,0,60,64
10272,note_on,,0,0,2,,,,,,0,62,92
10368,note_on,,0,0,2,,,,,,0,60,92
10368,note_off,,0,0,2,,,,,,0,57,64
10368,note_off,,96,0,2,,,,,,0,62,64
10368,note_off,,384,0,3,,,,,,0,53,64
10368,note_on,,0,0,3,,,,,,0,41,102
10368,note_on,,0,0,2,,,,,,0,57,92
10368,note_on,,0,0,1,,,,,,0,72,92
10368,note_on,,0,0,1,,,,,,0,69,92
10368,note_off,,0,0,1,,,,,,0,76,64
10368,note_off,,192,0,1,,,,,,0,72,64
10464,note_on,,0,0,2,,,,,,0,62,92
10464,note_off,,96,0,2,,,,,,0,60,64
10560,note_on,,0,0,2,,,,,,0,60,92
10560,note_on,,0,0,1,,,,,,0,65,92
10560,note_off,,0,0,2,,,,,,0,57,64
10560,note_on,,0,0,2,,,,,,0,57,92
10560,note_on,,0,0,1,,,,,,0,69,92
10560,note_off,,0,0,1,,,,,,0,69,64
10560,note_off,,192,0,1,,,,,,0,72,64
10560,note_off,,96,0,2,,,,,,0,62,64
10656,note_on,,0,0,2,,,,,,0,62,92
10656,note_off,,96,0,2,,,,,,0,60,64
10752,note_on,,0,0,2,,,,,,0,57,92
10752,note_on,,0,0,2,,,,,,0,59,92
10752,note_off,,0,0,2,,,,,,0,57,64
10752,note_off,,96,0,2,,,,,,0,62,64
10752,note_on,,0,0,3,,,,,,0,47,102
10752,note_on,,0,0,1,,,,,,0,74,92
10752,note_off,,192,0,1,,,,,,0,69,64
10752,note_off,,384,0,3,,,,,,0,41,64
10752,note_on,,0,0,1,,,,,,0,65,92
10752,note_off,,0,0,1,,,,,,0,65,64
10848,note_on,,0,0,1,,,,,,0,76,92
10848,note_off,,96,0,1,,,,,,0,74,64
10944,note_on,,0,0,2,,,,,,0,57,92
10944,note_on,,0,0,2,,,,,,0,65,92
10944,note_off,,0,0,2,,,,,,0,59,64
10944,note_off,,192,0,2,,,,,,0,57,64
10944,note_on,,0,0,1,,,,,,0,74,92
10944,note_on,,0,0,1,,,,,,0,71,92
10944,note_off,,0,0,1,,,,,,0,65,64
10944,note_off,,96,0,1,,,,,,0,76,64
11040,note_off,,96,0,1,,,,,,0,74,64
11040,note_on,,0,0,1,,,,,,0,76,92
11136,note_off,,0,0,2,,,,,,0,65,64
11136,note_on,,0,0,2,,,,,,0,62,92
11136,note_on,,0,0,2,,,,,,0,57,92
11136,note_off,,192,0,2,,,,,,0,57,64
11136,note_on,,0,0,1,,,,,,0,71,92
11136,note_off,,384,0,3,,,,,,0,47,64
11136,note_on,,0,0,3,,,,,,0,47,102
11136,note_on,,0,0,1,,,,,,0,74,92
11136,note_off,,0,0,1,,,,,,0,71,64
11136,note_off,,96,0,1,,,,,,0,76,64
11232,note_on,,0,0,1,,,,,,0,76,92
11232,note_off,,96,0,1,,,,,,0,74,64
11328,note_off,,0,0,1,,,,,,0,71,64
11328,note_on,,0,0,1,,,,,,0,71,92
11328,note_on,,0,0,1,,,,,,0,74,92
11328,note_on,,0,0,2,,,,,,0,57,92
11328,note_on,,0,0,2,,,,,,0,59,92
11328,note_off,,96,0,1,,,,,,0,76,64
11328,note_off,,192,0,2,,,,,,0,57,64
11328,note_off,,0,0,2,,,,,,0,62,64
11424,note_on,,0,0,1,,,,,,0,76,92
11424,note_off,,96,0,1,,,,,,0,74,64
11520,note_off,,96,0,1,,,,,,0,76,64
11520,note_off,,192,0,2,,,,,,0,57,64
11520,note_off,,0,0,2,,,,,,0,59,64
11520,note_on,,0,0,2,,,,,,0,59,92
11520,note_on,,0,0,2,,,,,,0,56,92
11520,note_on,,0,0,1,,,,,,0,71,92
11520,note_on,,0,0,1,,,,,,0,74,92
11520,note_off,,384,0,3,,,,,,0,47,64
11520,note_on,,0,0,3,,,,,,0,52,102
11520,note_off,,0,0,1,,,,,,0,71,64
11616,note_off,,96,0,2,,,,,,0,59,64
11616,note_on,,0,0,2,,,,,,0,60,92
11712,note_on,,0,0,1,,,,,,0,74,92
11712,note_on,,0,0,1,,,,,,0,71,92
11712,note_off,,192,0,1,,,,,,0,71,64
11712,note_off,,96,0,2,,,,,,0,60,64
11712,note_on,,0,0,2,,,,,,0,56,92
11712,note_on,,0,0,2,,,,,,0,59,92
11712,note_off,,0,0,2,,,,,,0,56,64
11712,note_off,,0,0,1,,,,,,0,74,64
11808,note_on,,0,0,2,,,,,,0,60,92
11808,note_off,,96,0,2,,,,,,0,59,64
11904,note_on,,0,0,1,,,,,,0,71,92
11904,note_on,,0,0,1,,,,,,0,68,92
11904,note_off,,0,0,1,,,,,,0,74,64
11904,note_off,,192,0,1,,,,,,0,71,64
11904,note_on,,0,0,2,,,,,,0,59,92
11904,note_off,,384,0,3,,,,,,0,52,64
11904,note_on,,0,0,3,,,,,,0,40,102
11904,note_on,,0,0,2,,,,,,0,56,92
11904,note_off,,96,0,2,,,,,,0,60,64
11904,note_off,,0,0,2,,,,,,0,56,64
12000,note_on,,0,0,2,,,,,,0,60,92
12000,note_off,,96,0,2,,,,,,0,59,64
12096,note_on,,0,0,2,,,,,,0,59,92
12096,note_off,,0,0,2,,,,,,0,56,64
12096,note_off,,96,0,2,,,,,,0,60,64
12096,note_on,,0,0,2,,,,,,0,56,92
12096,note_off,,192,0,1,,,,,,0,71,64
12096,note_on,,0,0,1,,,,,,0,68,92
12096,note_on,,0,0,1,,,,,,0,64,92
12096,note_off,,0,0,1,,,,,,0,68,64
12192,note_on,,0,0,2,,,,,,0,60,92
12192,note_off,,96,0,2,,,,,,0,59,64
12288,note_off,,0,0,1,,,,,,0,64,64
12288,note_on,,0,0,1,,,,,,0,64,92
12288,note_on,,0,0,1,,,,,,0,72,92
12288,note_off,,0,0,2,,,,,,0,56,64
12288,note_off,,96,0,2,,,,,,0,60,64
12288,note_off,,384,0,3,,,,,,0,40,64
12288,note_off,,192,0,1,,,,,,0,68,64
12288,note_on,,0,0,2,,,,,,0,57,92
12480,note_off,,192,0,1,,,,,,0,72,64
12480,note_on,,0,0,1,,,,,,0,69,92
12480,note_on,,192,0,2,,,,,,0,60,92
12480,note_on,,192,0,3,,,,,,0,45,102
12576,note_off,,96,0,2,,,,,,0,60,64
12576,note_on,,0,0,2,,,,,,0,62,92
12672,note_on,,0,0,3,,,,,,0,48,102
12672,note_off,,192,0,3,,,,,,0,45,64
12672,note_off,,192,0,1,,,,,,0,69,64
12672,note_on,,0,0,2,,,,,,0,64,92
12672,note_off,,96,0,2,,,,,,0,62,64
12672,note_off,,0,0,1,,,,,,0,64,64
12864,note_on,,0,0,3,,,,,,0,45,102
12864,note_on,,0,0,2,,,,,,0,64,92
12864,note_on,,0,0,2,,,,,,0,57,92
12864,note_off,,192,0,3,,,,,,0,48,64
12864,note_off,,0,0,2,,,,,,0,57,64
12864,note_on,,0,0,2,,,,,,0,60,92
12864,note_off,,192,0,2,,,,,,0,64,64
12864,note_on,,192,0,1,,,,,,0,76,92
12864,note_on,,0,0,1,,,,,,0,69,92
13056,note_on,,0,0,2,,,,,,0,56,92
13056,note_off,,192,0,1,,,,,,0,69,64
13056,note_off,,0,0,1,,,,,,0,76,64
13056,note_on,,0,0,1,,,,,,0,76,92
13056,note_on,,0,0,1,,,,,,0,71,92
13056,note_off,,0,0,2,,,,,,0,64,64
13056,note_off,,0,0,2,,,,,,0,60,64
13056,note_off,,192,0,2,,,,,,0,57,64
13056,note_on,,0,0,2,,,,,,0,62,92
13056,note_on,,0,0,3,,,,,,0,52,102
13056,note_off,,192,0,3,,,,,,0,45,64
13056,note_on,,0,0,2,,,,,,0,64,92
13248,note_on,,0,0,1,,,,,,0,74,92
13248,note_off,,192,0,1,,,,,,0,76,64
13440,note_off,,192,0,1,,,,,,0,74,64
13440,note_on,,0,0,1,,,,,,0,80,92
13632,note_on,,0,0,1,,,,,,0,74,92
13632,note_off,,192,0,1,,,,,,0,80,64
13824,note_on,,0,0,1,,,,,,0,83,92
13824,note_off,,192,0,1,,,,,,0,74,64
14016,note_off,,192,0,1,,,,,,0,83,64
14016,note_on,,0,0,1,,,,,,0,74,92
14208,note_off,,192,0,1,,,,,,0,74,64
14208,note_on,,0,0,1,,,,,,0,77,92
14400,note_off,,192,0,1,,,,,,0,77,64
14400,note_on,,0,0,1,,,,,,0,74,92
14592,note_off,,192,0,1,,,,,,0,74,64
14592,note_on,,0,0,1,,,,,,0,76,92
14784,note_on,,0,0,1,,,,,,0,74,92
14784,note_off,,192,0,1,,,,,,0,76,64
14976,note_on,,0,0,1,,,,,,0,77,92
14976,note_off,,192,0,1,,,,,,0,74,64
15168,note_off,,192,0,1,,,,,,0,77,64
15168,note_on,,0,0,1,,,,,,0,74,92
15360,note_off,,192,0,1,,,,,,0,74,64
15360,note_on,,0,0,1,,,,,,0,80,92
15552,note_on,,0,0,1,,,,,,0,74,92
15552,note_off,,192,0,1,,,,,,0,80,64
15744,note_on,,0,0,1,,,,,,0,83,92
15744,note_off,,192,0,1,,,,,,0,74,64
15936,note_on,,0,0,1,,,,,,0,74,92
15936,note_off,,192,0,1,,,,,,0,83,64
16128,note_off,,192,0,1,,,,,,0,74,64
16128,note_on,,0,0,1,,,,,,0,76,92
16320,note_off,,192,0,1,,,,,,0,76,64
16320,note_on,,0,0,1,,,,,,0,74,92
16512,note_on,,0,0,1,,,,,,0,83,92
16512,note_off,,192,0,1,,,,,,0,74,64
16704,note_off,,192,0,1,,,,,,0,83,64
16704,note_on,,0,0,1,,,,,,0,74,92
16896,note_on,,0,0,1,,,,,,0,76,92
16896,note_off,,192,0,1,,,,,,0,74,64
17088,note_on,,0,0,1,,,,,,0,74,92
17088,note_off,,192,0,1,,,,,,0,76,64
17280,note_off,,192,0,1,,,,,,0,74,64
17280,note_on,,0,0,1,,,,,,0,77,92
17472,note_off,,192,0,1,,,,,,0,77,64
17472,note_on,,0,0,1,,,,,,0,74,92
17664,note_on,,0,0,1,,,,,,0,80,92
17664,note_off,,192,0,1,,,,,,0,74,64
17856,note_on,,0,0,1,,,,,,0,76,92
17856,note_off,,192,0,1,,,,,,0,80,64
18048,note_off,,192,0,1,,,,,,0,76,64
18048,note_on,,0,0,1,,,,,,0,81,92
18048,note_off,,4992,0,3,,,,,,0,52,64
18048,note_off,,0,0,1,,,,,,0,71,64
18048,note_off,,0,0,2,,,,,,0,62,64
18048,note_off,,0,0,2,,,,,,0,64,64
18048,note_off,,4992,0,2,,,,,,0,56,64
18240,note_on,,192,0,3,,,,,,0,57,102
18240,note_on,,0,0,1,,,,,,0,76,92
18240,note_off,,192,0,1,,,,,,0,81,64
18240,note_on,,192,0,2,,,,,,0,64,92
18240,note_on,,0,0,2,,,,,,0,60,92
18240,note_on,,0,0,2,,,,,,0,57,92
18240,note_on,,0,0,1,,,,,,0,72,92
18432,note_on,,0,0,2,,,,,,0,65,92
18432,note_off,,192,0,2,,,,,,0,57,64
18432,note_on,,0,0,2,,,,,,0,59,92
18432,note_on,,0,0,2,,,,,,0,62,92
18432,note_on,,0,0,3,,,,,,0,50,102
18432,note_off,,192,0,3,,,,,,0,57,64
18432,note_off,,0,0,2,,,,,,0,60,64
18432,note_on,,0,0,1,,,,,,0,74,92
18432,note_off,,192,0,1,,,,,,0,76,64
18432,note_off,,0,0,1,,,,,,0,72,64
18432,note_on,,0,0,1,,,,,,0,71,92
18432,note_off,,0,0,2,,,,,,0,64,64
18432,note_on,,0,0,1,,,,,,0,77,92
18624,note_off,,192,0,1,,,,,,0,77,64
18624,note_on,,0,0,1,,,,,,0,81,92
18816,note_on,,0,0,1,,,,,,0,76,92
18816,note_off,,384,0,3,,,,,,0,50,64
18816,note_on,,0,0,3,,,,,,0,52,102
18816,note_on,,0,0,1,,,,,,0,74,92
18816,note_off,,0,0,1,,,,,,0,71,64
18816,note_on,,0,0,1,,,,,,0,71,92
18816,note_off,,192,0,1,,,,,,0,81,64
18816,note_on,,0,0,2,,,,,,0,59,92
18816,note_on,,0,0,2,,,,,,0,64,92
18816,note_off,,0,0,2,,,,,,0,65,64
18816,note_off,,0,0,2,,,,,,0,62,64
18816,note_off,,384,0,2,,,,,,0,59,64
18816,note_off,,0,0,1,,,,,,0,74,64
19008,note_off,,192,0,1,,,,,,0,76,64
19008,note_on,,0,0,1,,,,,,0,80,92
19200,note_on,,0,0,3,,,,,,0,45,102
19200,note_off,,384,0,3,,,,,,0,52,64
19200,note_off,,192,0,1,,,,,,0,80,64
19200,note_off,,0,0,1,,,,,,0,74,64
19200,note_off,,0,0,1,,,,,,0,71,64
19200,note_on,,0,0,1,,,,,,0,81,92
19200,note_on,,0,0,1,,,,,,0,72,92
19200,note_on,,0,0,1,,,,,,0,69,92
19200,note_off,,384,0,2,,,,,,0,59,64
19200,note_off,,0,0,2,,,,,,0,64,64
19200,note_on,,0,0,2,,,,,,0,64,92
19200,note_on,,0,0,2,,,,,,0,57,92
19200,note_on,,0,0,1,,,,,,0,76,92
19392,note_off,,192,0,3,,,,,,0,45,64
19392,note_on,,0,0,3,,,,,,0,47,102
19584,note_off,,0,0,1,,,,,,0,76,64
19584,note_off,,384,0,1,,,,,,0,69,64
19584,note_off,,0,0,1,,,,,,0,72,64
19584,note_off,,0,0,1,,,,,,0,81,64
19584,note_off,,192,0,3,,,,,,0,47,64
19584,note_on,,0,0,3,,,,,,0,48,102
19584,note_off,,384,0,2,,,,,,0,57,64
19584,note_off,,0,0,2,,,,,,0,64,64
19776,note_on,,192,0,1,,,,,,0,64,92
19776,note_on,,0,0,3,,,,,,0,45,102
19776,note_off,,192,0,3,,,,,,0,48,64
19776,note_on,,0,0,1,,,,,,0,76,92
19776,note_on,,0,0,2,,,,,,0,57,92
19776,note_on,,192,0,2,,,,,,0,60,92
19968,note_off,,0,0,1,,,,,,0,64,64
19968,note_off,,192,0,1,,,,,,0,76,64
19968,note_on,,0,0,1,,,,,,0,77,92
19968,note_on,,0,0,1,,,,,,0,62,92
19968,note_on,,0,0,3,,,,,,0,50,102
19968,note_on,,0,0,2,,,,,,0,58,92
19968,note_on,,0,0,2,,,,,,0,53,92
19968,note_off,,0,0,2,,,,,,0,60,64
19968,note_off,,192,0,2,,,,,,0,57,64
19968,note_off,,192,0,3,,,,,,0,45,64
20160,note_off,,192,0,1,,,,,,0,77,64
20160,note_on,,0,0,1,,,,,,0,70,92
20352,note_on,,0,0,1,,,,,,0,77,92
20352,note_off,,192,0,1,,,,,,0,70,64
20544,note_on,,0,0,1,,,,,,0,70,92
20544,note_off,,192,0,1,,,,,,0,77,64
20736,note_off,,768,0,2,,,,,,0,58,64
20736,note_on,,0,0,2,,,,,,0,58,92
20736,note_off,,192,0,1,,,,,,0,70,64
20736,note_off,,768,0,3,,,,,,0,50,64
20736,note_on,,0,0,3,,,,,,0,49,102
20736,note_off,,0,0,1,,,,,,0,62,64
20736,note_on,,0,0,1,,,,,,0,64,92
20736,note_on,,0,0,1,,,,,,0,76,92
20736,note_off,,0,0,2,,,,,,0,53,64
20736,note_on,,0,0,2,,,,,,0,55,92
20928,note_on,,0,0,1,,,,,,0,70,92
20928,note_off,,192,0,1,,,,,,0,76,64
21120,note_on,,0,0,1,,,,,,0,76,92
21120,note_off,,192,0,1,,,,,,0,70,64
21312,note_on,,0,0,1,,,,,,0,70,92
21312,note_off,,192,0,1,,,,,,0,76,64
21504,note_on,,0,0,2,,,,,,0,52,92
21504,note_on,,0,0,1,,,,,,0,64,92
21504,note_off,,0,0,1,,,,,,0,64,64
21504,note_off,,192,0,1,,,,,,0,70,64
21504,note_off,,0,0,2,,,,,,0,55,64
21504,note_off,,768,0,3,,,,,,0,49,64
21504,note_on,,0,0,3,,,,,,0,48,102
21504,note_off,,768,0,2,,,,,,0,58,64
21504,note_on,,0,0,2,,,,,,0,57,92
21504,note_on,,0,0,1,,,,,,0,76,92
21696,note_on,,0,0,1,,,,,,0,69,92
21696,note_off,,192,0,1,,,,,,0,76,64
21888,note_off,,192,0,1,,,,,,0,69,64
21888,note_on,,0,0,1,,,,,,0,76,92
22080,note_on,,0,0,3,,,,,,0,50,102
22080,note_off,,576,0,3,,,,,,0,48,64
22080,note_on,,0,0,2,,,,,,0,60,92
22080,note_on,,0,0,2,,,,,,0,57,92
22080,note_off,,0,0,2,,,,,,0,52,64
22080,note_off,,576,0,2,,,,,,0,57,64
22080,note_off,,192,0,1,,,,,,0,76,64
22080,note_off,,0,0,1,,,,,,0,64,64
22080,note_on,,0,0,1,,,,,,0,65,92
22080,note_on,,0,0,1,,,,,,0,69,92
22272,note_off,,192,0,3,,,,,,0,50,64
22272,note_on,,0,0,1,,,,,,0,68,92
22272,note_on,,0,0,1,,,,,,0,64,92
22272,note_off,,0,0,1,,,,,,0,65,64
22272,note_off,,192,0,1,,,,,,0,69,64
22272,note_on,,0,0,3,,,,,,0,52,102
22272,note_off,,192,0,2,,,,,,0,60,64
22272,note_off,,0,0,2,,,,,,0,57,64
22272,note_on,,0,0,2,,,,,,0,52,92
22272,note_on,,0,0,2,,,,,,0,59,92
22464,note_on,,0,0,3,,,,,,0,50,102
22464,note_off,,192,0,3,,,,,,0,52,64
22464,note_off,,192,0,1,,,,,,0,68,64
22464,note_off,,0,0,1,,,,,,0,64,64
22464,note_on,,0,0,1,,,,,,0,64,92
22656,note_on,,0,0,3,,,,,,0,48,102
22656,note_off,,192,0,3,,,,,,0,50,64
22656,note_off,,192,0,1,,,,,,0,64,64
22656,note_off,,384,0,2,,,,,,0,59,64
22656,note_on,,0,0,1,,,,,,0,69,92
22656,note_off,,0,0,2,,,,,,0,52,64
22848,note_on,,192,0,2,,,,,,0,57,92
22848,note_on,,0,0,1,,,,,,0,64,92
22848,note_off,,192,0,1,,,,,,0,69,64
22848,note_off,,192,0,3,,,,,,0,48,64
22848,note_on,,0,0,3,,,,,,0,45,102
22848,note_on,,0,0,2,,,,,,0,60,92
23040,note_on,,0,0,2,,,,,,0,59,92
23040,note_off,,0,0,2,,,,,,0,57,64
23040,note_on,,0,0,2,,,,,,0,53,92
23040,note_on,,0,0,1,,,,,,0,65,92
23040,note_off,,192,0,2,,,,,,0,60,64
23040,note_off,,192,0,1,,,,,,0,64,64
23040,note_on,,0,0,1,,,,,,0,62,92
23040,note_off,,192,0,3,,,,,,0,45,64
23040,note_on,,0,0,3,,,,,,0,50,102
23232,note_off,,192,0,1,,,,,,0,65,64
23232,note_on,,0,0,1,,,,,,0,69,92
23232,note_on,,0,0,3,,,,,,0,47,102
23232,note_off,,192,0,3,,,,,,0,50,64
23232,note_on,,0,0,2,,,,,,0,50,92
23232,note_off,,192,0,2,,,,,,0,53,64
23424,note_off,,192,0,2,,,,,,0,50,64
23424,note_off,,0,0,2,,,,,,0,59,64
23424,note_on,,0,0,2,,,,,,0,52,92
23424,note_on,,0,0,2,,,,,,0,59,92
23424,note_on,,0,0,3,,,,,,0,52,102
23424,note_off,,192,0,3,,,,,,0,47,64
23424,note_on,,0,0,1,,,,,,0,62,92
23424,note_off,,0,0,1,,,,,,0,62,64
23424,note_on,,0,0,1,,,,,,0,64,92
23424,note_off,,192,0,1,,,,,,0,69,64
23616,note_off,,192,0,3,,,,,,0,52,64
23616,note_on,,0,0,3,,,,,,0,40,102
23616,note_off,,192,0,1,,,,,,0,64,64
23616,note_on,,0,0,1,,,,,,0,68,92
23808,note_off,,192,0,1,,,,,,0,68,64
23808,note_off,,384,0,2,,,,,,0,59,64
23808,note_on,,0,0,1,,,,,,0,60,92
23808,note_on,,0,0,1,,,,,,0,64,92
23808,note_on,,0,0,2,,,,,,0,52,92
23808,note_on,,0,0,2,,,,,,0,57,92
23808,note_on,,0,0,1,,,,,,0,69,92
23808,note_off,,0,0,1,,,,,,0,62,64
23808,note_off,,0,0,2,,,,,,0,52,64
23808,note_off,,192,0,3,,,,,,0,40,64
23808,note_on,,0,0,3,,,,,,0,45,102
24096,note_on,,288,0,1,,,,,,0,71,92
24192,note_on,,0,0,1,,,,,,0,69,92
24192,note_off,,96,0,1,,,,,,0,71,64
24192,note_off,,0,0,1,,,,,,0,69,64
24192,note_on,,0,0,1,,,,,,0,72,92
24192,note_off,,0,0,1,,,,,,0,60,64
24192,note_off,,0,0,1,,,,,,0,64,64
24192,note_off,,384,0,2,,,,,,0,52,64
24192,note_off,,0,0,2,,,,,,0,57,64
24192,note_off,,384,0,3,,,,,,0,45,64
24480,note_on,,0,0,1,,,,,,0,71,92
24480,note_off,,0,0,1,,,,,,0,72,64
24480,note_off,,288,0,1,,,,,,0,69,64
24480,note_on,,0,0,1,,,,,,0,74,92
24576,note_on,,384,0,2,,,,,,0,69,82
24576,note_off,,0,0,1,,,,,,0,71,64
24576,note_on,,0,0,1,,,,,,0,76,92
24576,note_off,,96,0,1,,,,,,0,74,64
24576,note_on,,0,0,1,,,,,,0,72,92
24768,note_off,,192,0,1,,,,,,0,76,64
24768,note_on,,0,0,1,,,,,,0,69,92
24960,note_off,,384,0,2,,,,,,0,69,64
24960,note_on,,0,0,1,,,,,,0,69,92
24960,note_off,,192,0,1,,,,,,0,69,64
25152,note_off,,192,0,1,,,,,,0,69,64
25152,note_on,,0,0,1,,,,,,0,76,92
25152,note_on,,192,0,2,,,,,,0,69,82
25152,note_off,,0,0,1,,,,,,0,72,64
25152,note_on,,0,0,1,,,,,,0,72,92
25344,note_on,,0,0,2,,,,,,0,62,82
25344,note_on,,0,0,1,,,,,,0,77,92
25344,note_on,,0,0,1,,,,,,0,74,92
25344,note_off,,192,0,2,,,,,,0,69,64
25344,note_off,,0,0,1,,,,,,0,76,64
25344,note_off,,192,0,1,,,,,,0,72,64
25536,note_off,,0,0,1,,,,,,0,74,64
25536,note_on,,0,0,1,,,,,,0,74,92
25536,note_on,,0,0,1,,,,,,0,77,92
25536,note_off,,192,0,1,,,,,,0,77,64
25728,note_off,,192,0,1,,,,,,0,77,64
25728,note_on,,0,0,1,,,,,,0,74,92
25728,note_on,,0,0,1,,,,,,0,77,92
25728,note_off,,0,0,1,,,,,,0,74,64
25728,note_off,,384,0,2,,,,,,0,62,64
25920,note_on,,192,0,2,,,,,,0,62,82
25920,note_on,,0,0,1,,,,,,0,76,92
25920,note_on,,0,0,1,,,,,,0,72,92
25920,note_off,,0,0,1,,,,,,0,74,64
25920,note_off,,192,0,1,,,,,,0,77,64
26016,note_on,,0,0,1,,,,,,0,71,92
26016,note_off,,0,0,1,,,,,,0,72,64
26016,note_off,,96,0,1,,,,,,0,76,64
26016,note_on,,0,0,1,,,,,,0,74,92
26112,note_off,,96,0,1,,,,,,0,74,64
26112,note_on,,0,0,2,,,,,,0,69,82
26112,note_off,,192,0,2,,,,,,0,62,64
26112,note_off,,0,0,1,,,,,,0,71,64
26112,note_on,,0,0,1,,,,,,0,76,92
26112,note_on,,0,0,1,,,,,,0,72,92
26304,note_off,,192,0,1,,,,,,0,76,64
26304,note_on,,0,0,1,,,,,,0,69,92
26496,note_on,,0,0,1,,,,,,0,69,92
26496,note_off,,384,0,2,,,,,,0,69,64
26496,note_off,,192,0,1,,,,,,0,69,64
26688,note_on,,0,0,1,,,,,,0,72,92
26688,note_off,,192,0,1,,,,,,0,69,64
26688,note_off,,0,0,1,,,,,,0,72,64
26688,note_on,,192,0,2,,,,,,0,69,82
26688,note_on,,0,0,1,,,,,,0,76,92
26880,note_off,,192,0,2,,,,,,0,69,64
26880,note_on,,0,0,1,,,,,,0,77,92
26880,note_on,,0,0,1,,,,,,0,74,92
26880,note_off,,0,0,1,,,,,,0,76,64
26880,note_off,,192,0,1,,,,,,0,72,64
26880,note_on,,0,0,2,,,,,,0,62,82
27072,note_on,,0,0,1,,,,,,0,77,92
27072,note_on,,0,0,1,,,,,,0,74,92
27072,note_off,,192,0,1,,,,,,0,77,64
27072,note_off,,0,0,1,,,,,,0,74,64
27264,note_off,,384,0,2,,,,,,0,62,64
27264,note_off,,192,0,1,,,,,,0,77,64
27264,note_off,,0,0,1,,,,,,0,74,64
27264,note_on,,0,0,1,,,,,,0,77,92
27264,note_on,,0,0,1,,,,,,0,74,92
27456,note_off,,192,0,1,,,,,,0,77,64
27456,note_off,,0,0,1,,,,,,0,74,64
27456,note_on,,0,0,1,,,,,,0,77,92
27456,note_on,,0,0,1,,,,,,0,72,92
27456,note_on,,192,0,2,,,,,,0,62,82
27504,note_off,,48,0,1,,,,,,0,77,64
27504,note_on,,0,0,1,,,,,,0,76,92
27552,note_off,,48,0,1,,,,,,0,76,64
27552,note_off,,0,0,1,,,,,,0,72,64
27552,note_on,,0,0,1,,,,,,0,71,92
27552,note_on,,0,0,1,,,,,,0,74,92
27648,note_off,,96,0,1,,,,,,0,74,64
27648,note_off,,0,0,1,,,,,,0,71,64
27648,note_on,,0,0,1,,,,,,0,76,92
27648,note_on,,0,0,1,,,,,,0,72,92
27648,note_on,,0,0,2,,,,,,0,69,92
27648,note_off,,192,0,2,,,,,,0,62,64
27840,note_off,,192,0,1,,,,,,0,76,64
27840,note_on,,0,0,1,,,,,,0,69,92
27840,note_on,,0,0,2,,,,,,0,57,92
27840,note_off,,192,0,2,,,,,,0,69,64
27936,note_off,,96,0,2,,,,,,0,57,64
27936,note_on,,0,0,2,,,,,,0,59,92
28032,note_off,,0,0,1,,,,,,0,72,64
28032,note_off,,192,0,1,,,,,,0,69,64
28032,note_on,,0,0,2,,,,,,0,60,92
28032,note_off,,96,0,2,,,,,,0,59,64
28224,note_on,,192,0,1,,,,,,0,72,92
28224,note_off,,192,0,2,,,,,,0,60,64
28224,note_on,,0,0,2,,,,,,0,57,92
28224,note_on,,0,0,1,,,,,,0,76,92
28416,note_on,,0,0,1,,,,,,0,77,92
28416,note_off,,0,0,1,,,,,,0,72,64
28416,note_off,,192,0,1,,,,,,0,76,64
28416,note_off,,192,0,2,,,,,,0,57,64
28416,note_on,,0,0,2,,,,,,0,62,92
28416,note_on,,0,0,1,,,,,,0,69,92
28512,note_on,,0,0,1,,,,,,0,76,92
28512,note_off,,96,0,1,,,,,,0,77,64
28608,note_on,,0,0,1,,,,,,0,77,92
28608,note_off,,96,0,1,,,,,,0,76,64
28704,note_on,,0,0,2,,,,,,0,60,92
28704,note_off,,288,0,2,,,,,,0,62,64
28800,note_on,,0,0,2,,,,,,0,59,92
28800,note_off,,96,0,2,,,,,,0,60,64
28800,note_off,,0,0,1,,,,,,0,69,64
28800,note_off,,192,0,1,,,,,,0,77,64
28896,note_off,,96,0,2,,,,,,0,59,64
28896,note_on,,0,0,2,,,,,,0,57,92
28896,note_on,,96,0,1,,,,,,0,74,92
28992,note_on,,96,0,1,,,,,,0,79,92
28992,note_off,,96,0,2,,,,,,0,57,64
28992,note_on,,0,0,2,,,,,,0,59,92
29088,note_on,,0,0,1,,,,,,0,77,92
29088,note_off,,96,0,1,,,,,,0,79,64
29184,note_on,,0,0,2,,,,,,0,60,92
29184,note_on,,0,0,1,,,,,,0,67,92
29184,note_off,,0,0,1,,,,,,0,74,64
29184,note_off,,96,0,1,,,,,,0,77,64
29184,note_off,,192,0,2,,,,,,0,59,64
29184,note_on,,0,0,1,,,,,,0,76,92
29280,note_on,,0,0,1,,,,,,0,74,92
29280,note_off,,96,0,1,,,,,,0,76,64
29376,note_off,,96,0,1,,,,,,0,74,64
29376,note_on,,0,0,1,,,,,,0,76,92
29472,note_off,,288,0,2,,,,,,0,60,64
29472,note_on,,0,0,2,,,,,,0,59,92
29568,note_off,,192,0,1,,,,,,0,76,64
29568,note_off,,0,0,1,,,,,,0,67,64
29568,note_off,,96,0,2,,,,,,0,59,64
29568,note_on,,0,0,2,,,,,,0,57,92
29664,note_on,,96,0,1,,,,,,0,72,92
29664,note_off,,96,0,2,,,,,,0,57,64
29664,note_on,,0,0,2,,,,,,0,56,92
29760,note_off,,96,0,2,,,,,,0,56,64
29760,note_on,,96,0,1,,,,,,0,77,92
29760,note_on,,0,0,2,,,,,,0,57,92
29856,note_off,,96,0,1,,,,,,0,77,64
29856,note_on,,0,0,1,,,,,,0,76,92
29952,note_off,,0,0,1,,,,,,0,72,64
29952,note_on,,0,0,1,,,,,,0,74,92
29952,note_on,,0,0,1,,,,,,0,65,92
29952,note_off,,192,0,2,,,,,,0,57,64
29952,note_on,,0,0,2,,,,,,0,59,92
29952,note_off,,96,0,1,,,,,,0,76,64
30048,note_on,,0,0,1,,,,,,0,72,92
30048,note_off,,96,0,1,,,,,,0,74,64
30144,note_on,,0,0,1,,,,,,0,74,92
30144,note_off,,96,0,1,,,,,,0,72,64
30240,note_off,,288,0,2,,,,,,0,59,64
30240,note_on,,0,0,2,,,,,,0,57,92
30336,note_off,,192,0,1,,,,,,0,74,64
30336,note_on,,0,0,2,,,,,,0,56,92
30336,note_off,,96,0,2,,,,,,0,57,64
30336,note_off,,0,0,1,,,,,,0,65,64
30432,note_on,,96,0,1,,,,,,0,71,92
30432,note_on,,0,0,2,,,,,,0,54,92
30432,note_off,,96,0,2,,,,,,0,56,64
30528,note_off,,96,0,2,,,,,,0,54,64
30528,note_on,,96,0,1,,,,,,0,76,92
30528,note_on,,0,0,2,,,,,,0,56,92
30624,note_off,,96,0,1,,,,,,0,76,64
30624,note_on,,0,0,1,,,,,,0,74,92
30720,note_off,,192,0,2,,,,,,0,56,64
30720,note_off,,96,0,1,,,,,,0,74,64
30720,note_off,,0,0,1,,,,,,0,71,64
30720,note_on,,0,0,1,,,,,,0,72,92
30720,note_on,,0,0,1,,,,,,0,64,92
30720,note_on,,0,0,2,,,,,,0,57,92
30816,note_on,,0,0,1,,,,,,0,71,92
30816,note_off,,96,0,1,,,,,,0,72,64
30912,note_off,,96,0,1,,,,,,0,71,64
30912,note_on,,0,0,1,,,,,,0,69,92
31008,note_off,,96,0,1,,,,,,0,69,64
31008,note_on,,0,0,1,,,,,,0,71,92
31104,note_off,,384,0,2,,,,,,0,57,64
31104,note_on,,0,0,1,,,,,,0,72,92
31104,note_off,,96,0,1,,,,,,0,71,64
31104,note_off,,0,0,1,,,,,,0,64,64
31200,note_off,,96,0,1,,,,,,0,72,64
31200,note_on,,0,0,1,,,,,,0,74,92
31296,note_on,,0,0,1,,,,,,0,76,92
31296,note_on,,192,0,2,,,,,,0,56,92
31296,note_off,,96,0,1,,,,,,0,74,64
31296,note_on,,0,0,1,,,,,,0,59,92
31392,note_off,,96,0,1,,,,,,0,76,64
31392,note_on,,0,0,1,,,,,,0,74,92
31488,note_on,,0,0,1,,,,,,0,72,92
31488,note_on,,0,0,1,,,,,,0,64,92
31488,note_off,,0,0,1,,,,,,0,59,64
31488,note_off,,96,0,1,,,,,,0,74,64
31488,note_on,,0,0,2,,,,,,0,57,92
31488,note_off,,192,0,2,,,,,,0,56,64
31584,note_on,,0,0,1,,,,,,0,71,92
31584,note_off,,96,0,1,,,,,,0,72,64
31680,note_off,,96,0,1,,,,,,0,71,64
31680,note_on,,0,0,1,,,,,,0,69,92
31776,note_on,,0,0,1,,,,,,0,71,92
31776,note_off,,96,0,1,,,,,,0,69,64
31872,note_off,,384,0,2,,,,,,0,57,64
31872,note_off,,96,0,1,,,,,,0,71,64
31872,note_off,,0,0,1,,,,,,0,64,64
31872,note_on,,0,0,1,,,,,,0,72,92
31968,note_on,,0,0,1,,,,,,0,74,92
31968,note_off,,96,0,1,,,,,,0,72,64
32064,note_on,,192,0,2,,,,,,0,56,92
32064,note_on,,0,0,1,,,,,,0,59,92
32064,note_off,,96,0,1,,,,,,0,74,64
32064,note_on,,0,0,1,,,,,,0,76,92
32160,note_off,,96,0,1,,,,,,0,76,64
32160,note_on,,0,0,1,,,,,,0,74,92
32256,note_off,,96,0,1,,,,,,0,74,64
32256,note_off,,0,0,1,,,,,,0,59,64
32256,note_on,,0,0,1,,,,,,0,64,92
32256,note_on,,0,0,1,,,,,,0,72,92
32256,note_off,,192,0,2,,,,,,0,56,64
32256,note_on,,0,0,2,,,,,,0,57,92
32352,note_off,,96,0,1,,,,,,0,72,64
32352,note_on,,0,0,1,,,,,,0,71,92
32448,note_off,,96,0,1,,,,,,0,71,64
32448,note_on,,0,0,1,,,,,,0,69,92
32544,note_on,,0,0,1,,,,,,0,71,92
32544,note_off,,96,0,1,,,,,,0,69,64
32640,note_off,,0,0,1,,,,,,0,64,64
32640,note_on,,0,0,1,,,,,,0,72,92
32640,note_off,,384,0,2,,,,,,0,57,64
32640,note_off,,96,0,1,,,,,,0,71,64
32736,note_off,,96,0,1,,,,,,0,72,64
32736,note_on,,0,0,1,,,,,,0,74,92
32832,note_on,,192,0,2,,,,,,0,56,92
32832,note_on,,0,0,1,,,,,,0,76,92
32832,note_off,,96,0,1,,,,,,0,74,64
32832,note_on,,0,0,1,,,,,,0,59,92
32928,note_on,,0,0,1,,,,,,0,74,92
32928,note_off,,96,0,1,,,,,,0,76,64
33024,note_off,,0,0,1,,,,,,0,59,64
33024,note_off,,96,0,1,,,,,,0,74,64
33024,note_on,,0,0,1,,,,,,0,64,92
33024,note_on,,8832,0,3,,,,,,0,45,102
33024,note_on,,0,0,1,,,,,,0,72,92
33024,note_off,,192,0,2,,,,,,0,56,64
33024,note_on,,0,0,2,,,,,,0,57,92
33216,note_off,,192,0,1,,,,,,0,72,64
33216,note_on,,0,0,1,,,,,,0,69,92
33216,note_on,,0,0,3,,,,,,0,47,102
33216,note_off,,192,0,3,,,,,,0,45,64
33408,note_on,,0,0,3,,,,,,0,48,102
33408,note_off,,192,0,3,,,,,,0,47,64
33408,note_off,,384,0,2,,,,,,0,57,64
33408,note_off,,0,0,1,,,,,,0,64,64
33408,note_off,,192,0,1,,,,,,0,69,64
33600,note_on,,192,0,2,,,,,,0,60,92
33600,note_on,,192,0,1,,,,,,0,64,92
33600,note_on,,0,0,1,,,,,,0,76,92
33600,note_off,,192,0,3,,,,,,0,48,64
33600,note_on,,0,0,3,,,,,,0,45,102
33600,note_on,,0,0,2,,,,,,0,57,92
33792,note_off,,192,0,3,,,,,,0,45,64
33792,note_on,,0,0,3,,,,,,0,50,102
33792,note_on,,0,0,2,,,,,,0,58,92
33792,note_on,,0,0,1,,,,,,0,77,92
33792,note_on,,0,0,1,,,,,,0,62,92
33792,note_off,,0,0,1,,,,,,0,64,64
33792,note_off,,192,0,1,,,,,,0,76,64
33792,note_on,,0,0,2,,,,,,0,53,92
33792,note_off,,0,0,2,,,,,,0,60,64
33792,note_off,,192,0,2,,,,,,0,57,64
33984,note_off,,192,0,1,,,,,,0,77,64
33984,note_on,,0,0,1,,,,,,0,70,92
34176,note_on,,0,0,1,,,,,,0,77,92
34176,note_off,,192,0,1,,,,,,0,70,64
34368,note_off,,192,0,1,,,,,,0,77,64
34368,note_on,,0,0,1,,,,,,0,70,92
34560,note_off,,0,0,2,,,,,,0,53,64
34560,note_on,,0,0,1,,,,,,0,76,92
34560,note_on,,0,0,1,,,,,,0,64,92
34560,note_off,,0,0,1,,,,,,0,62,64
34560,note_off,,192,0,1,,,,,,0,70,64
34560,note_off,,768,0,2,,,,,,0,58,64
34560,note_off,,768,0,3,,,,,,0,50,64
34560,note_on,,0,0,3,,,,,,0,49,102
34560,note_on,,0,0,2,,,,,,0,55,92
34560,note_on,,0,0,2,,,,,,0,58,92
34752,note_on,,0,0,1,,,,,,0,70,92
34752,note_off,,192,0,1,,,,,,0,76,64
34944,note_on,,0,0,1,,,,,,0,76,92
34944,note_off,,192,0,1,,,,,,0,70,64
35136,note_on,,0,0,1,,,,,,0,70,92
35136,note_off,,192,0,1,,,,,,0,76,64
35328,note_on,,0,0,3,,,,,,0,48,102
35328,note_off,,768,0,3,,,,,,0,49,64
35328,note_on,,0,0,1,,,,,,0,76,92
35328,note_on,,0,0,1,,,,,,0,64,92
35328,note_off,,192,0,1,,,,,,0,70,64
35328,note_on,,0,0,2,,,,,,0,57,92
35328,note_on,,0,0,2,,,,,,0,52,92
35328,note_off,,0,0,2,,,,,,0,55,64
35328,note_off,,768,0,2,,,,,,0,58,64
35328,note_off,,0,0,1,,,,,,0,64,64
35520,note_on,,0,0,1,,,,,,0,69,92
35520,note_off,,192,0,1,,,,,,0,76,64
35712,note_on,,0,0,1,,,,,,0,76,92
35712,note_off,,192,0,1,,,,,,0,69,64
35904,note_on,,0,0,2,,,,,,0,57,92
35904,note_on,,0,0,3,,,,,,0,50,102
35904,note_off,,0,0,2,,,,,,0,52,64
35904,note_off,,576,0,3,,,,,,0,48,64
35904,note_off,,576,0,2,,,,,,0,57,64
35904,note_off,,192,0,1,,,,,,0,76,64
35904,note_off,,0,0,1,,,,,,0,64,64
35904,note_on,,0,0,1,,,,,,0,65,92
35904,note_on,,0,0,1,,,,,,0,69,92
35904,note_on,,0,0,2,,,,,,0,60,92
36096,note_off,,192,0,2,,,,,,0,60,64
36096,note_off,,0,0,2,,,,,,0,57,64
36096,note_on,,0,0,2,,,,,,0,52,92
36096,note_off,,192,0,3,,,,,,0,50,64
36096,note_on,,0,0,1,,,,,,0,68,92
36096,note_on,,0,0,1,,,,,,0,64,92
36096,note_on,,0,0,3,,,,,,0,52,102
36096,note_off,,192,0,1,,,,,,0,69,64
36096,note_on,,0,0,2,,,,,,0,59,92
36096,note_off,,0,0,1,,,,,,0,65,64
36288,note_off,,0,0,1,,,,,,0,64,64
36288,note_off,,192,0,1,,,,,,0,68,64
36288,note_on,,0,0,3,,,,,,0,50,102
36288,note_off,,192,0,3,,,,,,0,52,64
36288,note_on,,0,0,1,,,,,,0,64,92
36480,note_off,,192,0,3,,,,,,0,50,64
36480,note_off,,384,0,2,,,,,,0,59,64
36480,note_on,,0,0,3,,,,,,0,48,102
36480,note_off,,192,0,1,,,,,,0,64,64
36480,note_on,,0,0,1,,,,,,0,69,92
36480,note_off,,0,0,2,,,,,,0,52,64
36672,note_on,,192,0,2,,,,,,0,60,92
36672,note_on,,0,0,3,,,,,,0,45,102
36672,note_on,,0,0,1,,,,,,0,64,92
36672,note_off,,192,0,3,,,,,,0,48,64
36672,note_on,,0,0,2,,,,,,0,57,92
36672,note_off,,192,0,1,,,,,,0,69,64
36864,note_off,,192,0,1,,,,,,0,64,64
36864,note_off,,192,0,3,,,,,,0,45,64
36864,note_on,,0,0,1,,,,,,0,65,92
36864,note_on,,0,0,2,,,,,,0,53,92
36864,note_on,,0,0,2,,,,,,0,59,92
36864,note_off,,0,0,2,,,,,,0,60,64
36864,note_off,,192,0,2,,,,,,0,57,64
36864,note_on,,0,0,3,,,,,,0,50,102
36864,note_on,,0,0,1,,,,,,0,62,92
37056,note_on,,0,0,3,,,,,,0,47,102
37056,note_on,,0,0,2,,,,,,0,50,92
37056,note_off,,192,0,3,,,,,,0,50,64
37056,note_on,,0,0,1,,,,,,0,69,92
37056,note_off,,192,0,1,,,,,,0,65,64
37056,note_off,,192,0,2,,,,,,0,53,64
37248,note_on,,0,0,2,,,,,,0,52,92
37248,note_on,,0,0,1,,,,,,0,64,92
37248,note_on,,0,0,1,,,,,,0,62,92
37248,note_off,,0,0,1,,,,,,0,62,64
37248,note_off,,192,0,1,,,,,,0,69,64
37248,note_off,,0,0,2,,,,,,0,59,64
37248,note_on,,0,0,3,,,,,,0,52,102
37248,note_on,,0,0,2,,,,,,0,59,92
37248,note_off,,192,0,2,,,,,,0,50,64
37248,note_off,,192,0,3,,,,,,0,47,64
37440,note_off,,192,0,3,,,,,,0,52,64
37440,note_on,,0,0,3,,,,,,0,40,102
37440,note_off,,192,0,1,,,,,,0,64,64
37440,note_on,,0,0,1,,,,,,0,68,92
37632,note_on,,0,0,1,,,,,,0,64,92
37632,note_on,,0,0,3,,,,,,0,45,102
37632,note_off,,192,0,3,,,,,,0,40,64
37632,note_on,,0,0,1,,,,,,0,69,92
37632,note_off,,384,0,2,,,,,,0,59,64
37632,note_on,,0,0,1,,,,,,0,60,92
37632,note_off,,192,0,1,,,,,,0,68,64
37632,note_off,,0,0,1,,,,,,0,62,64
37632,note_on,,0,0,2,,,,,,0,57,92
37632,note_off,,0,0,2,,,,,,0,52,64
37920,note_on,,288,0,2,,,,,,0,59,92
38016,note_on,,0,0,1,,,,,,0,69,92
38016,note_on,,0,0,1,,,,,,0,60,92
38016,note_off,,0,0,1,,,,,,0,64,64
38016,note_off,,0,0,1,,,,,,0,60,64
38016,note_off,,384,0,3,,,,,,0,45,64
38016,note_off,,96,0,2,,,,,,0,59,64
38016,note_off,,0,0,2,,,,,,0,57,64
38016,note_off,,384,0,1,,,,,,0,69,64
38304,note_off,,288,0,1,,,,,,0,69,64
38304,note_off,,0,0,1,,,,,,0,60,64
38304,note_on,,0,0,1,,,,,,0,62,92
38304,note_on,,0,0,1,,,,,,0,71,92
38400,note_off,,96,0,1,,,,,,0,71,64
38400,note_on,,0,0,1,,,,,,0,72,92
38400,note_on,,0,0,1,,,,,,0,64,92
38400,note_off,,0,0,1,,,,,,0,62,64
38400,note_on,,384,0,2,,,,,,0,45,92
38592,note_off,,192,0,1,,,,,,0,64,64
38592,note_on,,0,0,1,,,,,,0,57,92
38784,note_off,,384,0,2,,,,,,0,45,64
38784,note_on,,0,0,1,,,,,,0,57,92
38784,note_off,,192,0,1,,,,,,0,57,64
38784,note_off,,0,0,1,,,,,,0,72,64
38976,note_on,,0,0,1,,,,,,0,64,92
38976,note_on,,192,0,2,,,,,,0,57,92
38976,note_on,,0,0,1,,,,,,0,72,92
38976,note_off,,192,0,1,,,,,,0,57,64
39168,note_on,,0,0,1,,,,,,0,65,92
39168,note_on,,0,0,1,,,,,,0,74,92
39168,note_off,,0,0,1,,,,,,0,72,64
39168,note_off,,192,0,1,,,,,,0,64,64
39168,note_off,,192,0,2,,,,,,0,57,64
39168,note_on,,0,0,2,,,,,,0,62,92
39360,note_off,,192,0,1,,,,,,0,74,64
39360,note_off,,0,0,1,,,,,,0,65,64
39360,note_on,,0,0,1,,,,,,0,74,92
39360,note_on,,0,0,1,,,,,,0,65,92
39552,note_on,,0,0,1,,,,,,0,74,92
39552,note_off,,384,0,2,,,,,,0,62,64
39552,note_on,,0,0,1,,,,,,0,65,92
39552,note_off,,0,0,1,,,,,,0,65,64
39552,note_off,,192,0,1,,,,,,0,74,64
39744,note_on,,192,0,2,,,,,,0,50,92
39744,note_on,,0,0,1,,,,,,0,72,92
39744,note_on,,0,0,1,,,,,,0,64,92
39744,note_off,,0,0,1,,,,,,0,65,64
39744,note_off,,192,0,1,,,,,,0,74,64
39840,note_on,,0,0,1,,,,,,0,62,92
39840,note_off,,96,0,1,,,,,,0,72,64
39840,note_off,,0,0,1,,,,,,0,64,64
39840,note_on,,0,0,1,,,,,,0,71,92
39936,note_on,,0,0,2,,,,,,0,45,92
39936,note_off,,192,0,2,,,,,,0,50,64
39936,note_on,,0,0,1,,,,,,0,64,92
39936,note_off,,96,0,1,,,,,,0,71,64
39936,note_off,,0,0,1,,,,,,0,62,64
39936,note_on,,0,0,1,,,,,,0,72,92
40128,note_off,,192,0,1,,,,,,0,64,64
40128,note_on,,0,0,1,,,,,,0,57,92
40320,note_off,,192,0,1,,,,,,0,57,64
40320,note_off,,384,0,2,,,,,,0,45,64
40320,note_off,,0,0,1,,,,,,0,72,64
40320,note_on,,0,0,1,,,,,,0,57,92
40512,note_on,,192,0,2,,,,,,0,57,92
40512,note_on,,0,0,1,,,,,,0,72,92
40512,note_on,,0,0,1,,,,,,0,64,92
40512,note_off,,192,0,1,,,,,,0,57,64
40704,note_off,,192,0,1,,,,,,0,72,64
40704,note_off,,0,0,1,,,,,,0,64,64
40704,note_on,,0,0,1,,,,,,0,65,92
40704,note_on,,0,0,1,,,,,,0,74,92
40704,note_off,,192,0,2,,,,,,0,57,64
40704,note_on,,0,0,2,,,,,,0,62,92
40896,note_off,,192,0,1,,,,,,0,74,64
40896,note_off,,0,0,1,,,,,,0,65,64
40896,note_on,,0,0,1,,,,,,0,65,92
40896,note_on,,0,0,1,,,,,,0,74,92
41088,note_off,,384,0,2,,,,,,0,62,64
41088,note_off,,192,0,1,,,,,,0,74,64
41088,note_off,,0,0,1,,,,,,0,65,64
41088,note_on,,0,0,1,,,,,,0,65,92
41088,note_on,,0,0,1,,,,,,0,74,92
41280,note_on,,192,0,2,,,,,,0,50,92
41280,note_off,,192,0,1,,,,,,0,74,64
41280,note_off,,0,0,1,,,,,,0,65,64
41280,note_on,,0,0,1,,,,,,0,64,92
41280,note_on,,0,0,1,,,,,,0,72,92
41376,note_off,,96,0,1,,,,,,0,72,64
41376,note_off,,0,0,1,,,,,,0,64,64
41376,note_on,,0,0,1,,,,,,0,71,92
41376,note_on,,0,0,1,,,,,,0,62,92
41472,note_off,,0,0,1,,,,,,0,62,64
41472,note_on,,0,0,2,,,,,,0,45,92
41472,note_off,,96,0,1,,,,,,0,71,64
41472,note_on,,0,0,1,,,,,,0,64,92
41472,note_on,,0,0,1,,,,,,0,72,92
41472,note_off,,192,0,2,,,,,,0,50,64
41664,note_off,,192,0,1,,,,,,0,64,64
41664,note_on,,0,0,1,,,,,,0,57,92
41760,note_off,,288,0,2,,,,,,0,45,64
41760,note_on,,0,0,2,,,,,,0,47,92
41856,note_off,,192,0,1,,,,,,0,57,64
41856,note_on,,0,0,1,,,,,,0,72,92
41856,note_off,,0,0,1,,,,,,0,72,64
41856,note_on,,0,0,2,,,,,,0,48,92
41856,note_off,,96,0,2,,,,,,0,47,64
42048,note_on,,192,0,1,,,,,,0,64,92
42048,note_off,,192,0,2,,,,,,0,48,64
42048,note_on,,0,0,2,,,,,,0,45,92
42240,note_off,,192,0,2,,,,,,0,45,64
42240,note_on,,0,0,2,,,,,,0,50,92
42240,note_on,,0,0,1,,,,,,0,65,92
42240,note_off,,192,0,1,,,,,,0,64,64
42336,note_on,,0,0,1,,,,,,0,64,92
42336,note_off,,96,0,1,,,,,,0,65,64
42432,note_off,,96,0,1,,,,,,0,64,64
42432,note_on,,0,0,1,,,,,,0,62,92
42528,note_off,,96,0,1,,,,,,0,62,64
42528,note_on,,0,0,1,,,,,,0,64,92
42624,note_off,,96,0,1,,,,,,0,64,64
42624,note_off,,0,0,1,,,,,,0,72,64
42624,note_on,,0,0,1,,,,,,0,71,92
42624,note_on,,0,0,1,,,,,,0,65,92
42624,note_off,,384,0,2,,,,,,0,50,64
42720,note_off,,96,0,1,,,,,,0,65,64
42720,note_on,,0,0,1,,,,,,0,69,92
42816,note_off,,96,0,1,,,,,,0,69,64
42816,note_on,,192,0,2,,,,,,0,55,92
42816,note_on,,0,0,1,,,,,,0,67,92
42912,note_off,,96,0,1,,,,,,0,67,64
42912,note_on,,0,0,1,,,,,,0,65,92
43008,note_off,,96,0,1,,,,,,0,65,64
43008,note_off,,192,0,2,,,,,,0,55,64
43008,note_on,,0,0,2,,,,,,0,48,92
43008,note_on,,0,0,1,,,,,,0,64,92
43104,note_off,,96,0,1,,,,,,0,64,64
43104,note_on,,0,0,1,,,,,,0,62,92
43200,note_off,,96,0,1,,,,,,0,62,64
43200,note_on,,0,0,1,,,,,,0,60,92
43296,note_off,,96,0,1,,,,,,0,60,64
43296,note_on,,0,0,1,,,,,,0,62,92
43392,note_on,,0,0,1,,,,,,0,69,92
43392,note_on,,0,0,1,,,,,,0,64,92
43392,note_off,,384,0,2,,,,,,0,48,64
43392,note_off,,0,0,1,,,,,,0,71,64
43392,note_off,,96,0,1,,,,,,0,62,64
43488,note_off,,96,0,1,,,,,,0,64,64
43488,note_on,,0,0,1,,,,,,0,67,92
43584,note_on,,192,0,2,,,,,,0,53,92
43584,note_on,,0,0,1,,,,,,0,65,92
43584,note_off,,96,0,1,,,,,,0,67,64
43680,note_on,,0,0,1,,,,,,0,64,92
43680,note_off,,96,0,1,,,,,,0,65,64
43776,note_off,,192,0,2,,,,,,0,53,64
43776,note_off,,96,0,1,,,,,,0,64,64
43776,note_on,,0,0,1,,,,,,0,62,92
43776,note_on,,0,0,2,,,,,,0,47,92
43872,note_off,,96,0,1,,,,,,0,62,64
43872,note_on,,0,0,1,,,,,,0,60,92
43968,note_off,,96,0,1,,,,,,0,60,64
43968,note_on,,0,0,1,,,,,,0,59,92
44064,note_off,,96,0,1,,,,,,0,59,64
44064,note_on,,0,0,1,,,,,,0,60,92
44160,note_on,,0,0,1,,,,,,0,68,92
44160,note_on,,0,0,1,,,,,,0,62,92
44160,note_off,,384,0,2,,,,,,0,47,64
44160,note_off,,96,0,1,,,,,,0,60,64
44160,note_off,,0,0,1,,,,,,0,69,64
44256,note_on,,0,0,1,,,,,,0,65,92
44256,note_off,,96,0,1,,,,,,0,62,64
44352,note_on,,192,0,2,,,,,,0,52,92
44352,note_on,,0,0,1,,,,,,0,64,92
44352,note_off,,96,0,1,,,,,,0,65,64
44448,note_on,,0,0,1,,,,,,0,62,92
44448,note_off,,96,0,1,,,,,,0,64,64
44544,note_off,,96,0,1,,,,,,0,62,64
44544,note_off,,0,0,1,,,,,,0,68,64
44544,note_on,,0,0,1,,,,,,0,60,92
44544,note_on,,0,0,1,,,,,,0,69,92
44544,note_off,,192,0,2,,,,,,0,52,64
44544,note_on,,0,0,2,,,,,,0,45,92
44640,note_on,,0,0,1,,,,,,0,59,92
44640,note_off,,96,0,1,,,,,,0,60,64
44736,note_on,,192,0,2,,,,,,0,57,92
44736,note_off,,96,0,1,,,,,,0,59,64
44832,note_on,,0,0,1,,,,,,0,76,92
44832,note_off,,96,0,1,,,,,,0,69,64
44928,note_off,,96,0,1,,,,,,0,76,64
44928,note_on,,0,0,1,,,,,,0,81,92
44928,note_off,,0,0,2,,,,,,0,45,64
44928,note_off,,192,0,2,,,,,,0,57,64
45024,note_off,,96,0,1,,,,,,0,81,64
45024,note_on,,0,0,1,,,,,,0,72,92
45024,note_on,,96,0,2,,,,,,0,57,92
45120,note_off,,96,0,2,,,,,,0,57,64
45120,note_on,,0,0,2,,,,,,0,60,92
45120,note_off,,96,0,1,,,,,,0,72,64
45120,note_on,,0,0,1,,,,,,0,81,92
45216,note_off,,96,0,1,,,,,,0,81,64
45216,note_on,,0,0,2,,,,,,0,64,92
45216,note_off,,96,0,2,,,,,,0,60,64
45216,note_on,,0,0,1,,,,,,0,72,92
45312,note_off,,96,0,2,,,,,,0,64,64
45312,note_on,,0,0,2,,,,,,0,59,92
45312,note_on,,0,0,1,,,,,,0,74,92
45312,note_off,,96,0,1,,,,,,0,72,64
45408,note_on,,0,0,2,,,,,,0,62,92
45408,note_off,,96,0,1,,,,,,0,74,64
45408,note_on,,0,0,1,,,,,,0,72,92
45408,note_off,,96,0,2,,,,,,0,59,64
45504,note_on,,0,0,1,,,,,,0,71,92
45504,note_off,,96,0,1,,,,,,0,72,64
45504,note_off,,96,0,2,,,,,,0,62,64
45504,note_on,,0,0,2,,,,,,0,67,92
45600,note_off,,96,0,1,,,,,,0,71,64
45600,note_on,,0,0,1,,,,,,0,74,92
45696,note_on,,0,0,1,,,,,,0,79,92
45696,note_off,,96,0,1,,,,,,0,74,64
45696,note_off,,192,0,2,,,,,,0,67,64
45792,note_on,,96,0,2,,,,,,0,55,92
45792,note_off,,96,0,1,,,,,,0,79,64
45792,note_on,,0,0,1,,,,,,0,71,92
45888,note_off,,96,0,1,,,,,,0,71,64
45888,note_on,,0,0,2,,,,,,0,59,92
45888,note_on,,0,0,1,,,,,,0,79,92
45888,note_off,,96,0,2,,,,,,0,55,64
45984,note_off,,96,0,2,,,,,,0,59,64
45984,note_on,,0,0,2,,,,,,0,64,92
45984,note_on,,0,0,1,,,,,,0,71,92
45984,note_off,,96,0,1,,,,,,0,79,64
46080,note_on,,0,0,2,,,,,,0,57,92
46080,note_off,,96,0,2,,,,,,0,64,64
46080,note_off,,96,0,1,,,,,,0,71,64
46080,note_on,,0,0,1,,,,,,0,72,92
46176,note_on,,0,0,2,,,,,,0,60,92
46176,note_off,,96,0,2,,,,,,0,57,64
46176,note_off,,96,0,1,,,,,,0,72,64
46176,note_on,,0,0,1,,,,,,0,71,92
46272,note_on,,0,0,1,,,,,,0,69,92
46272,note_off,,96,0,1,,,,,,0,71,64
46272,note_off,,96,0,2,,,,,,0,60,64
46272,note_on,,0,0,2,,,,,,0,65,92
46368,note_off,,96,0,1,,,,,,0,69,64
46368,note_on,,0,0,1,,,,,,0,72,92
46464,note_off,,192,0,2,,,,,,0,65,64
46464,note_off,,96,0,1,,,,,,0,72,64
46464,note_on,,0,0,1,,,,,,0,77,92
46560,note_on,,0,0,1,,,,,,0,69,92
46560,note_on,,96,0,2,,,,,,0,53,92
46560,note_off,,96,0,1,,,,,,0,77,64
46656,note_on,,0,0,1,,,,,,0,77,92
46656,note_on,,0,0,2,,,,,,0,57,92
46656,note_off,,96,0,1,,,,,,0,69,64
46656,note_off,,96,0,2,,,,,,0,53,64
46752,note_on,,0,0,2,,,,,,0,62,92
46752,note_on,,0,0,1,,,,,,0,69,92
46752,note_off,,96,0,1,,,,,,0,77,64
46752,note_off,,96,0,2,,,,,,0,57,64
46848,note_on,,0,0,2,,,,,,0,55,92
46848,note_off,,96,0,2,,,,,,0,62,64
46848,note_on,,0,0,1,,,,,,0,71,92
46848,note_off,,96,0,1,,,,,,0,69,64
46944,note_on,,0,0,1,,,,,,0,69,92
46944,note_off,,96,0,1,,,,,,0,71,64
46944,note_off,,96,0,2,,,,,,0,55,64
46944,note_on,,0,0,2,,,,,,0,59,92
47040,note_off,,96,0,1,,,,,,0,69,64
47040,note_on,,0,0,2,,,,,,0,64,92
47040,note_on,,0,0,1,,,,,,0,67,92
47040,note_off,,96,0,2,,,,,,0,59,64
47136,note_off,,96,0,1,,,,,,0,67,64
47136,note_on,,0,0,1,,,,,,0,71,92
47232,note_off,,96,0,1,,,,,,0,71,64
47232,note_off,,192,0,2,,,,,,0,64,64
47232,note_on,,0,0,1,,,,,,0,76,92
47328,note_off,,96,0,1,,,,,,0,76,64
47328,note_on,,96,0,2,,,,,,0,52,92
47328,note_on,,0,0,1,,,,,,0,67,92
47424,note_on,,0,0,2,,,,,,0,55,92
47424,note_off,,96,0,2,,,,,,0,52,64
47424,note_on,,0,0,1,,,,,,0,76,92
47424,note_off,,96,0,1,,,,,,0,67,64
47520,note_off,,96,0,1,,,,,,0,76,64
47520,note_on,,0,0,1,,,,,,0,67,92
47520,note_off,,96,0,2,,,,,,0,55,64
47520,note_on,,0,0,2,,,,,,0,60,92
47616,note_off,,96,0,2,,,,,,0,60,64
47616,note_on,,0,0,2,,,,,,0,53,92
47616,note_off,,96,0,1,,,,,,0,67,64
47616,note_on,,0,0,1,,,,,,0,69,92
47712,note_off,,96,0,1,,,,,,0,69,64
47712,note_on,,0,0,2,,,,,,0,57,92
47712,note_off,,96,0,2,,,,,,0,53,64
47712,note_on,,0,0,1,,,,,,0,67,92
47808,note_on,,0,0,1,,,,,,0,65,92
47808,note_off,,96,0,2,,,,,,0,57,64
47808,note_on,,0,0,2,,,,,,0,62,92
47808,note_off,,96,0,1,,,,,,0,67,64
47904,note_off,,96,0,1,,,,,,0,65,64
47904,note_on,,0,0,1,,,,,,0,69,92
48000,note_off,,96,0,1,,,,,,0,69,64
48000,note_off,,192,0,2,,,,,,0,62,64
48000,note_on,,0,0,1,,,,,,0,74,92
48096,note_on,,0,0,1,,,,,,0,76,92
48096,note_on,,96,0,2,,,,,,0,54,92
48096,note_off,,96,0,1,,,,,,0,74,64
48192,note_off,,96,0,1,,,,,,0,76,64
48192,note_on,,0,0,1,,,,,,0,74,92
48192,note_on,,0,0,2,,,,,,0,57,92
48192,note_off,,96,0,2,,,,,,0,54,64
48288,note_on,,0,0,1,,,,,,0,72,92
48288,note_on,,0,0,2,,,,,,0,62,92
48288,note_off,,96,0,2,,,,,,0,57,64
48288,note_off,,96,0,1,,,,,,0,74,64
48384,note_on,,0,0,1,,,,,,0,71,92
48384,note_on,,0,0,2,,,,,,0,55,92
48384,note_off,,96,0,2,,,,,,0,62,64
48384,note_off,,96,0,1,,,,,,0,72,64
48480,note_off,,96,0,2,,,,,,0,55,64
48480,note_on,,0,0,2,,,,,,0,54,92
48480,note_on,,0,0,1,,,,,,0,69,92
48480,note_off,,96,0,1,,,,,,0,71,64
48576,note_on,,0,0,1,,,,,,0,67,92
48576,note_off,,96,0,2,,,,,,0,54,64
48576,note_on,,0,0,2,,,,,,0,55,92
48576,note_off,,96,0,1,,,,,,0,69,64
48672,note_off,,96,0,2,,,,,,0,55,64
48672,note_on,,0,0,2,,,,,,0,57,92
48672,note_on,,0,0,1,,,,,,0,74,92
48672,note_off,,96,0,1,,,,,,0,67,64
48768,note_on,,0,0,2,,,,,,0,59,92
48768,note_off,,96,0,2,,,,,,0,57,64
48768,note_off,,96,0,1,,,,,,0,74,64
48768,note_on,,0,0,1,,,,,,0,79,92
48864,note_off,,96,0,2,,,,,,0,59,64
48864,note_off,,96,0,1,,,,,,0,79,64
48864,note_on,,0,0,1,,,,,,0,81,92
48864,note_on,,0,0,2,,,,,,0,57,92
48960,note_off,,96,0,2,,,,,,0,57,64
48960,note_on,,0,0,1,,,,,,0,79,92
48960,note_off,,96,0,1,,,,,,0,81,64
48960,note_on,,0,0,2,,,,,,0,59,92
49056,note_on,,0,0,1,,,,,,0,77,92
49056,note_on,,0,0,2,,,,,,0,55,92
49056,note_off,,96,0,2,,,,,,0,59,64
49056,note_off,,96,0,1,,,,,,0,79,64
49152,note_off,,96,0,2,,,,,,0,55,64
49152,note_on,,0,0,2,,,,,,0,60,92
49152,note_off,,96,0,1,,,,,,0,77,64
49152,note_on,,0,0,1,,,,,,0,76,92
49248,note_on,,0,0,1,,,,,,0,74,92
49248,note_off,,96,0,1,,,,,,0,76,64
49248,note_off,,96,0,2,,,,,,0,60,64
49248,note_on,,0,0,2,,,,,,0,59,92
49344,note_off,,96,0,2,,,,,,0,59,64
49344,note_off,,96,0,1,,,,,,0,74,64
49344,note_on,,0,0,1,,,,,,0,60,92
49344,note_on,,0,0,1,,,,,,0,72,92
49440,note_off,,96,0,1,,,,,,0,72,64
49440,note_off,,0,0,1,,,,,,0,60,64
49440,note_on,,0,0,1,,,,,,0,62,92
49440,note_on,,0,0,1,,,,,,0,67,92
49536,note_off,,96,0,1,,,,,,0,67,64
49536,note_off,,0,0,1,,,,,,0,62,64
49536,note_on,,0,0,1,,,,,,0,64,92
49536,note_on,,0,0,1,,,,,,0,72,92
49632,note_on,,0,0,1,,,,,,0,74,92
49632,note_on,,0,0,1,,,,,,0,62,92
49632,note_off,,96,0,1,,,,,,0,72,64
49632,note_off,,0,0,1,,,,,,0,64,64
49728,note_off,,96,0,1,,,,,,0,74,64
49728,note_off,,0,0,1,,,,,,0,62,64
49728,note_on,,0,0,1,,,,,,0,64,92
49728,note_on,,0,0,1,,,,,,0,72,92
49824,note_on,,0,0,1,,,,,,0,60,92
49824,note_off,,96,0,1,,,,,,0,72,64
49824,note_off,,0,0,1,,,,,,0,64,64
49824,note_on,,0,0,1,,,,,,0,71,92
49920,note_off,,96,0,1,,,,,,0,71,64
49920,note_off,,0,0,1,,,,,,0,60,64
49920,note_on,,0,0,1,,,,,,0,65,92
49920,note_on,,0,0,1,,,,,,0,69,92
50016,note_off,,0,0,1,,,,,,0,65,64
50016,note_off,,96,0,1,,,,,,0,69,64
50016,note_on,,0,0,1,,,,,,0,64,92
50016,note_on,,0,0,1,,,,,,0,67,92
50112,note_off,,96,0,1,,,,,,0,67,64
50112,note_off,,0,0,1,,,,,,0,64,64
50112,note_on,,0,0,1,,,,,,0,62,92
50112,note_on,,0,0,1,,,,,,0,65,92
50208,note_off,,96,0,1,,,,,,0,65,64
50208,note_off,,0,0,1,,,,,,0,62,64
50208,note_on,,0,0,1,,,,,,0,64,92
50208,note_on,,0,0,1,,,,,,0,69,92
50304,note_on,,0,0,1,,,,,,0,74,92
50304,note_on,,0,0,1,,,,,,0,66,92
50304,note_off,,0,0,1,,,,,,0,64,64
50304,note_off,,96,0,1,,,,,,0,69,64
50400,note_off,,96,0,1,,,,,,0,74,64
50400,note_off,,0,0,1,,,,,,0,66,64
50400,note_on,,0,0,1,,,,,,0,64,92
50400,note_on,,0,0,1,,,,,,0,76,92
50496,note_off,,96,0,1,,,,,,0,76,64
50496,note_off,,0,0,1,,,,,,0,64,64
50496,note_on,,0,0,1,,,,,,0,66,92
50496,note_on,,0,0,1,,,,,,0,74,92
50592,note_on,,0,0,1,,,,,,0,62,92
50592,note_off,,0,0,1,,,,,,0,66,64
50592,note_on,,0,0,1,,,,,,0,72,92
50592,note_off,,96,0,1,,,,,,0,74,64
50688,note_on,,0,0,1,,,,,,0,71,92
50688,note_on,,0,0,1,,,,,,0,67,92
50688,note_off,,96,0,1,,,,,,0,72,64
50688,note_off,,0,0,1,,,,,,0,62,64
50784,note_off,,96,0,1,,,,,,0,71,64
50784,note_off,,0,0,1,,,,,,0,67,64
50784,note_on,,0,0,1,,,,,,0,65,92
50784,note_on,,0,0,1,,,,,,0,69,92
50880,note_on,,0,0,1,,,,,,0,67,92
50880,note_off,,96,0,1,,,,,,0,69,64
50880,note_off,,0,0,1,,,,,,0,65,64
50880,note_on,,0,0,1,,,,,,0,64,92
50976,note_off,,96,0,1,,,,,,0,67,64
50976,note_off,,0,0,1,,,,,,0,64,64
50976,note_on,,0,0,1,,,,,,0,62,92
50976,note_on,,0,0,1,,,,,,0,71,92
51072,note_on,,0,0,1,,,,,,0,60,92
51072,note_on,,0,0,1,,,,,,0,64,92
51072,note_off,,96,0,1,,,,,,0,71,64
51072,note_off,,0,0,1,,,,,,0,62,64
51168,note_on,,0,0,1,,,,,,0,72,92
51168,note_off,,96,0,1,,,,,,0,64,64
51264,note_off,,0,0,1,,,,,,0,60,64
51264,note_on,,0,0,1,,,,,,0,60,92
51264,note_on,,0,0,1,,,,,,0,64,92
51264,note_off,,96,0,1,,,,,,0,72,64
51360,note_off,,96,0,1,,,,,,0,64,64
51360,note_on,,0,0,1,,,,,,0,72,92
51456,note_off,,96,0,1,,,,,,0,72,64
51456,note_off,,0,0,1,,,,,,0,60,64
51456,note_on,,0,0,1,,,,,,0,62,92
51456,note_on,,0,0,1,,,,,,0,65,92
51552,note_off,,96,0,1,,,,,,0,65,64
51552,note_on,,0,0,1,,,,,,0,72,92
51648,note_on,,0,0,1,,,,,,0,65,92
51648,note_on,,0,0,1,,,,,,0,62,92
51648,note_off,,96,0,1,,,,,,0,72,64
51648,note_off,,0,0,1,,,,,,0,62,64
51744,note_off,,96,0,1,,,,,,0,65,64
51744,note_on,,0,0,1,,,,,,0,72,92
51840,note_on,,0,0,1,,,,,,0,67,92
51840,note_off,,96,0,1,,,,,,0,72,64
51840,note_off,,0,0,1,,,,,,0,62,64
51840,note_on,,0,0,1,,,,,,0,64,92
51936,note_off,,96,0,1,,,,,,0,67,64
51936,note_on,,0,0,1,,,,,,0,72,92
52032,note_on,,0,0,1,,,,,,0,67,92
52032,note_on,,0,0,1,,,,,,0,64,92
52032,note_off,,0,0,1,,,,,,0,64,64
52032,note_off,,96,0,1,,,,,,0,72,64
52128,note_on,,0,0,1,,,,,,0,72,92
52128,note_off,,96,0,1,,,,,,0,67,64
52224,note_on,,0,0,1,,,,,,0,69,92
52224,note_on,,0,0,1,,,,,,0,65,92
52224,note_off,,0,0,1,,,,,,0,64,64
52224,note_off,,96,0,1,,,,,,0,72,64
52320,note_on,,0,0,1,,,,,,0,72,92
52320,note_off,,96,0,1,,,,,,0,69,64
52416,note_on,,0,0,1,,,,,,0,69,92
52416,note_on,,0,0,1,,,,,,0,65,92
52416,note_off,,0,0,1,,,,,,0,65,64
52416,note_off,,96,0,1,,,,,,0,72,64
52512,note_on,,0,0,1,,,,,,0,72,92
52512,note_off,,96,0,1,,,,,,0,69,64
52608,note_on,,0,0,1,,,,,,0,60,92
52608,note_off,,0,0,1,,,,,,0,65,64
52608,note_off,,96,0,1,,,,,,0,72,64
52608,note_on,,0,0,1,,,,,,0,64,92
52704,note_off,,96,0,1,,,,,,0,64,64
52704,note_on,,0,0,1,,,,,,0,72,92
52800,note_off,,0,0,1,,,,,,0,60,64
52800,note_on,,0,0,1,,,,,,0,60,92
52800,note_on,,0,0,1,,,,,,0,64,92
52800,note_off,,96,0,1,,,,,,0,72,64
52896,note_off,,96,0,1,,,,,,0,64,64
52896,note_on,,0,0,1,,,,,,0,72,92
52992,note_off,,0,0,1,,,,,,0,60,64
52992,note_on,,0,0,1,,,,,,0,65,92
52992,note_on,,0,0,1,,,,,,0,62,92
52992,note_off,,96,0,1,,,,,,0,72,64
53088,note_off,,96,0,1,,,,,,0,65,64
53088,note_on,,0,0,1,,,,,,0,72,92
53184,note_off,,96,0,1,,,,,,0,72,64
53184,note_off,,0,0,1,,,,,,0,62,64
53184,note_on,,0,0,1,,,,,,0,62,92
53184,note_on,,0,0,1,,,,,,0,65,92
53280,note_off,,96,0,1,,,,,,0,65,64
53280,note_on,,0,0,1,,,,,,0,72,92
53376,note_off,,96,0,1,,,,,,0,72,64
53376,note_on,,0,0,1,,,,,,0,64,92
53376,note_on,,0,0,1,,,,,,0,67,92
53376,note_off,,0,0,1,,,,,,0,62,64
53472,note_off,,96,0,1,,,,,,0,67,64
53472,note_on,,0,0,1,,,,,,0,72,92
53568,note_on,,0,0,1,,,,,,0,67,92
53568,note_off,,96,0,1,,,,,,0,72,64
53568,note_off,,0,0,1,,,,,,0,64,64
53568,note_on,,0,0,1,,,,,,0,64,92
53664,note_off,,96,0,1,,,,,,0,67,64
53664,note_on,,0,0,1,,,,,,0,72,92
53760,note_on,,0,0,1,,,,,,0,69,92
53760,note_off,,96,0,1,,,,,,0,72,64
53760,note_off,,0,0,1,,,,,,0,64,64
53760,note_on,,0,0,1,,,,,,0,65,92
53856,note_on,,0,0,1,,,,,,0,72,92
53856,note_off,,96,0,1,,,,,,0,69,64
53952,note_on,,0,0,1,,,,,,0,65,92
53952,note_on,,0,0,1,,,,,,0,69,92
53952,note_off,,96,0,1,,,,,,0,72,64
53952,note_off,,0,0,1,,,,,,0,65,64
54048,note_on,,0,0,1,,,,,,0,72,92
54048,note_off,,96,0,1,,,,,,0,69,64
54144,note_on,,0,0,1,,,,,,0,60,92
54144,note_off,,96,0,1,,,,,,0,72,64
54144,note_off,,0,0,1,,,,,,0,65,64
54144,note_on,,0,0,1,,,,,,0,64,92
54240,note_on,,0,0,1,,,,,,0,72,92
54240,note_off,,96,0,1,,,,,,0,64,64
54336,note_on,,0,0,1,,,,,,0,64,92
54336,note_on,,0,0,1,,,,,,0,60,92
54336,note_off,,0,0,1,,,,,,0,60,64
54336,note_off,,96,0,1,,,,,,0,72,64
54432,note_off,,96,0,1,,,,,,0,64,64
54432,note_on,,0,0,1,,,,,,0,72,92
54528,note_off,,0,0,1,,,,,,0,60,64
54528,note_off,,96,0,1,,,,,,0,72,64
54528,note_on,,0,0,1,,,,,,0,65,92
54528,note_on,,0,0,1,,,,,,0,62,92
54624,note_off,,96,0,1,,,,,,0,65,64
54624,note_on,,0,0,1,,,,,,0,72,92
54720,note_off,,0,0,1,,,,,,0,62,64
54720,note_off,,96,0,1,,,,,,0,72,64
54720,note_on,,0,0,1,,,,,,0,62,92
54720,note_on,,0,0,1,,,,,,0,65,92
54816,note_on,,0,0,1,,,,,,0,72,92
54816,note_off,,96,0,1,,,,,,0,65,64
54912,note_on,,5568,0,2,,,,,,0,55,92
54912,note_on,,0,0,1,,,,,,0,67,92
54912,note_off,,0,0,1,,,,,,0,62,64
54912,note_off,,96,0,1,,,,,,0,72,64
55008,note_on,,0,0,1,,,,,,0,71,92
55008,note_off,,96,0,1,,,,,,0,67,64
55104,note_on,,0,0,1,,,,,,0,67,92
55104,note_off,,96,0,1,,,,,,0,71,64
55104,note_on,,0,0,2,,,,,,0,55,92
55104,note_off,,192,0,2,,,,,,0,55,64
55200,note_on,,0,0,1,,,,,,0,71,92
55200,note_off,,96,0,1,,,,,,0,67,64
55296,note_on,,17280,0,3,,,,,,0,48,102
55296,note_on,,0,0,1,,,,,,0,72,92
55296,note_on,,0,0,2,,,,,,0,60,92
55296,note_on,,0,0,2,,,,,,0,64,92
55296,note_off,,192,0,2,,,,,,0,55,64
55296,note_off,,96,0,1,,,,,,0,71,64
55392,note_on,,0,0,1,,,,,,0,79,92
55392,note_off,,96,0,1,,,,,,0,72,64
55488,note_off,,96,0,1,,,,,,0,79,64
55488,note_on,,0,0,1,,,,,,0,72,92
55488,note_on,,0,0,3,,,,,,0,50,102
55488,note_off,,192,0,3,,,,,,0,48,64
55488,note_on,,0,0,2,,,,,,0,65,92
55488,note_off,,192,0,2,,,,,,0,64,64
55584,note_off,,96,0,1,,,,,,0,72,64
55584,note_on,,0,0,1,,,,,,0,79,92
55680,note_on,,0,0,2,,,,,,0,67,92
55680,note_off,,192,0,2,,,,,,0,65,64
55680,note_off,,96,0,1,,,,,,0,79,64
55680,note_on,,0,0,1,,,,,,0,72,92
55680,note_off,,192,0,3,,,,,,0,50,64
55680,note_on,,0,0,3,,,,,,0,52,102
55776,note_on,,0,0,1,,,,,,0,79,92
55776,note_off,,96,0,1,,,,,,0,72,64
55872,note_on,,0,0,1,,,,,,0,72,92
55872,note_on,,0,0,2,,,,,,0,64,92
55872,note_on,,0,0,3,,,,,,0,48,102
55872,note_off,,96,0,1,,,,,,0,79,64
55872,note_off,,192,0,2,,,,,,0,67,64
55872,note_off,,192,0,3,,,,,,0,52,64
55968,note_off,,96,0,1,,,,,,0,72,64
55968,note_on,,0,0,1,,,,,,0,79,92
56064,note_off,,96,0,1,,,,,,0,79,64
56064,note_on,,0,0,1,,,,,,0,72,92
56064,note_off,,0,0,2,,,,,,0,60,64
56064,note_off,,192,0,3,,,,,,0,48,64
56064,note_off,,192,0,2,,,,,,0,64,64
56064,note_on,,0,0,2,,,,,,0,65,92
56064,note_on,,0,0,2,,,,,,0,57,92
56064,note_on,,0,0,3,,,,,,0,53,102
56160,note_off,,96,0,1,,,,,,0,72,64
56160,note_on,,0,0,1,,,,,,0,81,92
56256,note_off,,192,0,3,,,,,,0,53,64
56256,note_off,,96,0,1,,,,,,0,81,64
56256,note_on,,0,0,3,,,,,,0,55,102
56256,note_on,,0,0,2,,,,,,0,59,92
56256,note_off,,192,0,2,,,,,,0,57,64
56256,note_on,,0,0,1,,,,,,0,72,92
56352,note_on,,0,0,1,,,,,,0,81,92
56352,note_off,,96,0,1,,,,,,0,72,64
56448,note_off,,192,0,2,,,,,,0,59,64
56448,note_on,,0,0,2,,,,,,0,60,92
56448,note_off,,192,0,3,,,,,,0,55,64
56448,note_on,,0,0,3,,,,,,0,57,102
56448,note_on,,0,0,1,,,,,,0,72,92
56448,note_off,,96,0,1,,,,,,0,81,64
56544,note_on,,0,0,1,,,,,,0,81,92
56544,note_off,,96,0,1,,,,,,0,72,64
56640,note_on,,0,0,1,,,,,,0,72,92
56640,note_off,,96,0,1,,,,,,0,81,64
56640,note_off,,192,0,3,,,,,,0,57,64
56640,note_on,,0,0,3,,,,,,0,53,102
56640,note_off,,192,0,2,,,,,,0,60,64
56640,note_on,,0,0,2,,,,,,0,57,92
56736,note_off,,96,0,1,,,,,,0,72,64
56736,note_on,,0,0,1,,,,,,0,81,92
56832,note_off,,96,0,1,,,,,,0,81,64
56832,note_off,,0,0,2,,,,,,0,65,64
56832,note_on,,0,0,2,,,,,,0,64,92
56832,note_on,,0,0,2,,,,,,0,60,92
56832,note_on,,0,0,3,,,,,,0,48,102
56832,note_off,,192,0,3,,,,,,0,53,64
56832,note_on,,0,0,1,,,,,,0,72,92
56832,note_off,,192,0,2,,,,,,0,57,64
56928,note_on,,0,0,1,,,,,,0,79,92
56928,note_off,,96,0,1,,,,,,0,72,64
57024,note_on,,0,0,2,,,,,,0,65,92
57024,note_on,,0,0,3,,,,,,0,50,102
57024,note_off,,192,0,3,,,,,,0,48,64
57024,note_off,,192,0,2,,,,,,0,64,64
57024,note_on,,0,0,1,,,,,,0,72,92
57024,note_off,,96,0,1,,,,,,0,79,64
57120,note_off,,96,0,1,,,,,,0,72,64
57120,note_on,,0,0,1,,,,,,0,79,92
57216,note_off,,96,0,1,,,,,,0,79,64
57216,note_on,,0,0,1,,,,,,0,72,92
57216,note_on,,0,0,2,,,,,,0,67,92
57216,note_on,,0,0,3,,,,,,0,52,102
57216,note_off,,192,0,3,,,,,,0,50,64
57216,note_off,,192,0,2,,,,,,0,65,64
57312,note_off,,96,0,1,,,,,,0,72,64
57312,note_on,,0,0,1,,,,,,0,79,92
57408,note_off,,192,0,3,,,,,,0,52,64
57408,note_on,,0,0,2,,,,,,0,64,92
57408,note_off,,192,0,2,,,,,,0,67,64
57408,note_on,,0,0,1,,,,,,0,72,92
57408,note_off,,96,0,1,,,,,,0,79,64
57408,note_on,,0,0,3,,,,,,0,48,102
57504,note_off,,96,0,1,,,,,,0,72,64
57504,note_on,,0,0,1,,,,,,0,79,92
57600,note_off,,0,0,2,,,,,,0,60,64
57600,note_off,,192,0,3,,,,,,0,48,64
57600,note_on,,0,0,3,,,,,,0,53,102
57600,note_on,,0,0,2,,,,,,0,65,92
57600,note_on,,0,0,2,,,,,,0,57,92
57600,note_off,,192,0,2,,,,,,0,64,64
57600,note_off,,96,0,1,,,,,,0,79,64
57600,note_on,,0,0,1,,,,,,0,72,92
57696,note_off,,96,0,1,,,,,,0,72,64
57696,note_on,,0,0,1,,,,,,0,81,92
57792,note_off,,96,0,1,,,,,,0,81,64
57792,note_off,,192,0,3,,,,,,0,53,64
57792,note_on,,0,0,3,,,,,,0,55,102
57792,note_on,,0,0,2,,,,,,0,59,92
57792,note_off,,192,0,2,,,,,,0,57,64
57792,note_on,,0,0,1,,,,,,0,72,92
57888,note_off,,96,0,1,,,,,,0,72,64
57888,note_on,,0,0,1,,,,,,0,81,92
57984,note_on,,0,0,3,,,,,,0,57,102
57984,note_on,,0,0,2,,,,,,0,60,92
57984,note_off,,96,0,1,,,,,,0,81,64
57984,note_on,,0,0,1,,,,,,0,72,92
57984,note_off,,192,0,2,,,,,,0,59,64
57984,note_off,,192,0,3,,,,,,0,55,64
58080,note_off,,96,0,1,,,,,,0,72,64
58080,note_on,,0,0,1,,,,,,0,81,92
58176,note_off,,192,0,3,,,,,,0,57,64
58176,note_on,,0,0,3,,,,,,0,53,102
58176,note_off,,96,0,1,,,,,,0,81,64
58176,note_on,,0,0,1,,,,,,0,72,92
58176,note_on,,0,0,2,,,,,,0,57,92
58176,note_off,,192,0,2,,,,,,0,60,64
58272,note_on,,0,0,1,,,,,,0,81,92
58272,note_off,,96,0,1,,,,,,0,72,64
58368,note_on,,0,0,1,,,,,,0,79,92
58368,note_on,,0,0,2,,,,,,0,60,92
58368,note_on,,0,0,2,,,,,,0,64,92
58368,note_off,,0,0,2,,,,,,0,65,64
58368,note_off,,192,0,2,,,,,,0,57,64
58368,note_off,,192,0,3,,,,,,0,53,64
58368,note_on,,0,0,3,,,,,,0,48,102
58368,note_off,,96,0,1,,,,,,0,81,64
58560,note_off,,192,0,3,,,,,,0,48,64
58560,note_on,,0,0,3,,,,,,0,50,102
58560,note_off,,192,0,2,,,,,,0,64,64
58560,note_on,,0,0,1,,,,,,0,72,92
58560,note_off,,192,0,1,,,,,,0,79,64
58560,note_on,,0,0,2,,,,,,0,65,92
58752,note_off,,192,0,1,,,,,,0,72,64
58752,note_on,,0,0,2,,,,,,0,67,92
58752,note_off,,192,0,2,,,,,,0,65,64
58752,note_off,,192,0,3,,,,,,0,50,64
58752,note_on,,0,0,3,,,,,,0,52,102
58944,note_on,,0,0,2,,,,,,0,64,92
58944,note_off,,192,0,2,,,,,,0,67,64
58944,note_on,,192,0,1,,,,,,0,76,92
58944,note_off,,192,0,3,,,,,,0,52,64
58944,note_on,,0,0,3,,,,,,0,48,102
58944,note_on,,0,0,1,,,,,,0,79,92
59136,note_on,,0,0,3,,,,,,0,53,102
59136,note_off,,192,0,3,,,,,,0,48,64
59136,note_off,,192,0,1,,,,,,0,79,64
59136,note_off,,0,0,1,,,,,,0,76,64
59136,note_on,,0,0,1,,,,,,0,77,92
59136,note_on,,0,0,1,,,,,,0,81,92
59136,note_on,,0,0,2,,,,,,0,60,92
59136,note_on,,0,0,2,,,,,,0,64,92
59136,note_off,,0,0,2,,,,,,0,60,64
59136,note_off,,192,0,2,,,,,,0,64,64
59232,note_off,,96,0,1,,,,,,0,81,64
59232,note_on,,0,0,1,,,,,,0,83,92
59328,note_off,,96,0,1,,,,,,0,83,64
59328,note_off,,0,0,1,,,,,,0,77,64
59328,note_on,,0,0,1,,,,,,0,77,92
59328,note_on,,0,0,1,,,,,,0,81,92
59424,note_off,,96,0,1,,,,,,0,81,64
59424,note_on,,0,0,1,,,,,,0,83,92
59520,note_off,,0,0,2,,,,,,0,64,64
59520,note_on,,0,0,1,,,,,,0,81,92
59520,note_off,,384,0,3,,,,,,0,53,64
59520,note_off,,384,0,2,,,,,,0,60,64
59520,note_off,,0,0,1,,,,,,0,77,64
59520,note_off,,96,0,1,,,,,,0,83,64
59520,note_on,,0,0,1,,,,,,0,77,92
59616,note_off,,96,0,1,,,,,,0,81,64
59616,note_on,,0,0,1,,,,,,0,83,92
59712,note_off,,0,0,1,,,,,,0,77,64
59712,note_off,,96,0,1,,,,,,0,83,64
59712,note_on,,0,0,1,,,,,,0,77,92
59712,note_on,,0,0,1,,,,,,0,81,92
59808,note_on,,0,0,1,,,,,,0,83,92
59808,note_off,,96,0,1,,,,,,0,81,64
59904,note_on,,384,0,3,,,,,,0,47,102
59904,note_on,,0,0,1,,,,,,0,81,92
59904,note_off,,96,0,1,,,,,,0,83,64
59904,note_on,,0,0,2,,,,,,0,59,92
59904,note_on,,0,0,1,,,,,,0,77,92
59904,note_off,,0,0,1,,,,,,0,77,64
59904,note_on,,384,0,2,,,,,,0,62,92
60000,note_off,,96,0,2,,,,,,0,62,64
60000,note_on,,0,0,2,,,,,,0,64,92
60096,note_on,,0,0,1,,,,,,0,81,92
60096,note_off,,192,0,1,,,,,,0,81,64
60096,note_on,,0,0,2,,,,,,0,59,92
60096,note_on,,0,0,2,,,,,,0,62,92
60096,note_off,,0,0,1,,,,,,0,77,64
60096,note_on,,0,0,1,,,,,,0,77,92
60096,note_off,,0,0,2,,,,,,0,59,64
60096,note_off,,96,0,2,,,,,,0,64,64
60192,note_off,,96,0,2,,,,,,0,62,64
60192,note_on,,0,0,2,,,,,,0,64,92
60288,note_off,,192,0,1,,,,,,0,81,64
60288,note_on,,0,0,2,,,,,,0,59,92
60288,note_off,,384,0,3,,,,,,0,47,64
60288,note_on,,0,0,3,,,,,,0,59,102
60288,note_on,,0,0,1,,,,,,0,74,92
60288,note_on,,0,0,2,,,,,,0,62,92
60288,note_off,,0,0,1,,,,,,0,77,64
60288,note_off,,0,0,2,,,,,,0,59,64
60288,note_off,,96,0,2,,,,,,0,64,64
60288,note_on,,0,0,1,,,,,,0,77,92
60384,note_off,,96,0,2,,,,,,0,62,64
60384,note_on,,0,0,2,,,,,,0,64,92
60480,note_on,,0,0,1,,,,,,0,71,92
60480,note_off,,0,0,2,,,,,,0,59,64
60480,note_off,,96,0,2,,,,,,0,64,64
60480,note_on,,0,0,1,,,,,,0,74,92
60480,note_on,,0,0,2,,,,,,0,62,92
60480,note_on,,0,0,2,,,,,,0,59,92
60480,note_off,,192,0,1,,,,,,0,77,64
60480,note_off,,0,0,1,,,,,,0,74,64
60576,note_off,,96,0,2,,,,,,0,62,64
60576,note_on,,0,0,2,,,,,,0,64,92
60672,note_off,,192,0,1,,,,,,0,74,64
60672,note_on,,0,0,3,,,,,,0,52,102
60672,note_on,,0,0,1,,,,,,0,76,92
60672,note_on,,0,0,1,,,,,,0,79,92
60672,note_off,,384,0,3,,,,,,0,59,64
60672,note_on,,0,0,2,,,,,,0,59,92
60672,note_on,,0,0,2,,,,,,0,62,92
60672,note_off,,0,0,2,,,,,,0,59,64
60672,note_off,,96,0,2,,,,,,0,64,64
60672,note_off,,0,0,1,,,,,,0,71,64
60768,note_off,,96,0,1,,,,,,0,79,64
60768,note_on,,0,0,1,,,,,,0,81,92
60864,note_on,,0,0,1,,,,,,0,79,92
60864,note_on,,0,0,1,,,,,,0,76,92
60864,note_off,,96,0,1,,,,,,0,81,64
60864,note_off,,0,0,1,,,,,,0,76,64
60960,note_on,,0,0,1,,,,,,0,81,92
60960,note_off,,96,0,1,,,,,,0,79,64
61056,note_on,,0,0,1,,,,,,0,79,92
61056,note_on,,0,0,1,,,,,,0,76,92
61056,note_off,,0,0,1,,,,,,0,76,64
61056,note_off,,96,0,1,,,,,,0,81,64
61056,note_off,,0,0,2,,,,,,0,62,64
61056,note_off,,384,0,2,,,,,,0,59,64
61056,note_off,,384,0,3,,,,,,0,52,64
61152,note_on,,0,0,1,,,,,,0,81,92
61152,note_off,,96,0,1,,,,,,0,79,64
61248,note_on,,0,0,1,,,,,,0,79,92
61248,note_on,,0,0,1,,,,,,0,76,92
61248,note_off,,0,0,1,,,,,,0,76,64
61248,note_off,,96,0,1,,,,,,0,81,64
61344,note_on,,0,0,1,,,,,,0,81,92
61344,note_off,,96,0,1,,,,,,0,79,64
61440,note_on,,384,0,2,,,,,,0,57,92
61440,note_on,,0,0,1,,,,,,0,76,92
61440,note_on,,0,0,1,,,,,,0,79,92
61440,note_off,,96,0,1,,,,,,0,81,64
61440,note_off,,0,0,1,,,,,,0,76,64
61440,note_on,,384,0,3,,,,,,0,45,102
61440,note_on,,0,0,2,,,,,,0,60,92
61536,note_off,,96,0,2,,,,,,0,60,64
61536,note_on,,0,0,2,,,,,,0,62,92
61632,note_on,,0,0,1,,,,,,0,79,92
61632,note_on,,0,0,1,,,,,,0,76,92
61632,note_off,,0,0,1,,,,,,0,76,64
61632,note_off,,192,0,1,,,,,,0,79,64
61632,note_off,,96,0,2,,,,,,0,62,64
61632,note_off,,0,0,2,,,,,,0,57,64
61632,note_on,,0,0,2,,,,,,0,60,92
61632,note_on,,0,0,2,,,,,,0,57,92
61728,note_off,,96,0,2,,,,,,0,60,64
61728,note_on,,0,0,2,,,,,,0,62,92
61824,note_on,,0,0,3,,,,,,0,57,102
61824,note_off,,192,0,1,,,,,,0,79,64
61824,note_off,,384,0,3,,,,,,0,45,64
61824,note_on,,0,0,1,,,,,,0,76,92
61824,note_off,,0,0,1,,,,,,0,76,64
61824,note_on,,0,0,1,,,,,,0,72,92
61824,note_off,,96,0,2,,,,,,0,62,64
61824,note_off,,0,0,2,,,,,,0,57,64
61824,note_on,,0,0,2,,,,,,0,57,92
61824,note_on,,0,0,2,,,,,,0,60,92
61920,note_off,,96,0,2,,,,,,0,60,64
61920,note_on,,0,0,2,,,,,,0,62,92
62016,note_on,,0,0,1,,,,,,0,69,92
62016,note_off,,0,0,1,,,,,,0,72,64
62016,note_off,,192,0,1,,,,,,0,76,64
62016,note_on,,0,0,1,,,,,,0,72,92
62016,note_off,,96,0,2,,,,,,0,62,64
62016,note_off,,0,0,2,,,,,,0,57,64
62016,note_on,,0,0,2,,,,,,0,57,92
62016,note_on,,0,0,2,,,,,,0,60,92
62112,note_off,,96,0,2,,,,,,0,60,64
62112,note_on,,0,0,2,,,,,,0,62,92
62208,note_off,,384,0,3,,,,,,0,57,64
62208,note_on,,0,0,2,,,,,,0,60,92
62208,note_off,,96,0,2,,,,,,0,62,64
62208,note_on,,0,0,1,,,,,,0,74,92
62208,note_on,,0,0,1,,,,,,0,77,92
62208,note_off,,0,0,1,,,,,,0,69,64
62208,note_off,,192,0,1,,,,,,0,72,64
62208,note_on,,0,0,2,,,,,,0,57,92
62208,note_on,,0,0,3,,,,,,0,50,102
62208,note_off,,0,0,2,,,,,,0,57,64
62304,note_on,,0,0,1,,,,,,0,79,92
62304,note_off,,96,0,1,,,,,,0,77,64
62400,note_off,,96,0,1,,,,,,0,79,64
62400,note_off,,0,0,1,,,,,,0,74,64
62400,note_on,,0,0,1,,,,,,0,77,92
62400,note_on,,0,0,1,,,,,,0,74,92
62496,note_off,,96,0,1,,,,,,0,77,64
62496,note_on,,0,0,1,,,,,,0,79,92
62592,note_on,,0,0,1,,,,,,0,77,92
62592,note_off,,384,0,3,,,,,,0,50,64
62592,note_off,,0,0,2,,,,,,0,60,64
62592,note_off,,0,0,1,,,,,,0,74,64
62592,note_off,,384,0,2,,,,,,0,57,64
62592,note_on,,0,0,1,,,,,,0,74,92
62592,note_off,,96,0,1,,,,,,0,79,64
62688,note_on,,0,0,1,,,,,,0,79,92
62688,note_off,,96,0,1,,,,,,0,77,64
62784,note_on,,0,0,1,,,,,,0,74,92
62784,note_on,,0,0,1,,,,,,0,77,92
62784,note_off,,0,0,1,,,,,,0,74,64
62784,note_off,,96,0,1,,,,,,0,79,64
62880,note_off,,96,0,1,,,,,,0,77,64
62880,note_on,,0,0,1,,,,,,0,79,92
62976,note_on,,384,0,2,,,,,,0,55,92
62976,note_on,,0,0,2,,,,,,0,59,92
62976,note_on,,384,0,3,,,,,,0,43,102
62976,note_on,,0,0,1,,,,,,0,77,92
62976,note_on,,0,0,1,,,,,,0,74,92
62976,note_off,,0,0,1,,,,,,0,74,64
62976,note_off,,96,0,1,,,,,,0,79,64
63072,note_off,,96,0,2,,,,,,0,59,64
63072,note_on,,0,0,2,,,,,,0,60,92
63168,note_off,,192,0,1,,,,,,0,77,64
63168,note_on,,0,0,1,,,,,,0,77,92
63168,note_off,,0,0,1,,,,,,0,74,64
63168,note_off,,96,0,2,,,,,,0,60,64
63168,note_on,,0,0,1,,,,,,0,74,92
63168,note_on,,0,0,2,,,,,,0,55,92
63168,note_on,,0,0,2,,,,,,0,59,92
63168,note_off,,0,0,2,,,,,,0,55,64
63264,note_on,,0,0,2,,,,,,0,60,92
63264,note_off,,96,0,2,,,,,,0,59,64
63360,note_on,,0,0,1,,,,,,0,74,92
63360,note_on,,0,0,1,,,,,,0,71,92
63360,note_off,,0,0,1,,,,,,0,74,64
63360,note_off,,192,0,1,,,,,,0,77,64
63360,note_off,,384,0,3,,,,,,0,43,64
63360,note_off,,96,0,2,,,,,,0,60,64
63360,note_off,,0,0,2,,,,,,0,55,64
63360,note_on,,0,0,2,,,,,,0,55,92
63360,note_on,,0,0,2,,,,,,0,59,92
63360,note_on,,0,0,3,,,,,,0,55,102
63456,note_off,,96,0,2,,,,,,0,59,64
63456,note_on,,0,0,2,,,,,,0,60,92
63552,note_on,,0,0,2,,,,,,0,55,92
63552,note_on,,0,0,2,,,,,,0,57,92
63552,note_off,,192,0,1,,,,,,0,74,64
63552,note_off,,0,0,2,,,,,,0,55,64
63552,note_off,,96,0,2,,,,,,0,60,64
63552,note_on,,0,0,1,,,,,,0,67,92
63552,note_off,,0,0,1,,,,,,0,71,64
63552,note_on,,0,0,1,,,,,,0,71,92
63648,note_off,,96,0,2,,,,,,0,57,64
63648,note_on,,0,0,2,,,,,,0,59,92
63744,note_on,,0,0,2,,,,,,0,55,92
63744,note_on,,0,0,2,,,,,,0,60,92
63744,note_off,,0,0,2,,,,,,0,55,64
63744,note_off,,96,0,2,,,,,,0,59,64
63744,note_on,,0,0,3,,,,,,0,48,102
63744,note_off,,384,0,3,,,,,,0,55,64
63744,note_off,,0,0,1,,,,,,0,67,64
63744,note_on,,0,0,1,,,,,,0,67,92
63744,note_on,,0,0,1,,,,,,0,76,92
63744,note_off,,192,0,1,,,,,,0,71,64
63840,note_on,,0,0,1,,,,,,0,74,92
63840,note_off,,0,0,1,,,,,,0,67,64
63840,note_off,,96,0,1,,,,,,0,76,64
63840,note_on,,0,0,1,,,,,,0,65,92
63936,note_off,,96,0,1,,,,,,0,74,64
63936,note_off,,0,0,1,,,,,,0,65,64
63936,note_on,,0,0,1,,,,,,0,64,92
63936,note_on,,0,0,1,,,,,,0,72,92
64032,note_on,,0,0,1,,,,,,0,62,92
64032,note_on,,0,0,1,,,,,,0,71,92
64032,note_off,,0,0,1,,,,,,0,64,64
64032,note_off,,96,0,1,,,,,,0,72,64
64128,note_on,,0,0,1,,,,,,0,60,92
64128,note_on,,0,0,1,,,,,,0,69,92
64128,note_off,,0,0,2,,,,,,0,60,64
64128,note_off,,96,0,1,,,,,,0,71,64
64128,note_off,,0,0,1,,,,,,0,62,64
64128,note_off,,384,0,3,,,,,,0,48,64
64128,note_off,,384,0,2,,,,,,0,55,64
64224,note_on,,96,0,2,,,,,,0,59,92
64224,note_off,,0,0,1,,,,,,0,60,64
64224,note_off,,96,0,1,,,,,,0,69,64
64224,note_on,,0,0,1,,,,,,0,67,92
64320,note_off,,96,0,1,,,,,,0,67,64
64320,note_on,,0,0,2,,,,,,0,57,92
64320,note_off,,96,0,2,,,,,,0,59,64
64320,note_on,,0,0,1,,,,,,0,65,92
64416,note_on,,0,0,2,,,,,,0,55,92
64416,note_off,,96,0,2,,,,,,0,57,64
64416,note_on,,0,0,1,,,,,,0,64,92
64416,note_off,,96,0,1,,,,,,0,65,64
64512,note_on,,0,0,1,,,,,,0,79,92
64512,note_off,,96,0,1,,,,,,0,64,64
64512,note_on,,384,0,3,,,,,,0,60,102
64512,note_on,,0,0,2,,,,,,0,64,92
64512,note_off,,96,0,2,,,,,,0,55,64
64608,note_on,,0,0,2,,,,,,0,62,92
64608,note_off,,96,0,1,,,,,,0,79,64
64608,note_on,,0,0,1,,,,,,0,77,92
64608,note_off,,96,0,2,,,,,,0,64,64
64704,note_off,,192,0,3,,,,,,0,60,64
64704,note_on,,0,0,3,,,,,,0,48,102
64704,note_on,,0,0,2,,,,,,0,60,92
64704,note_off,,96,0,2,,,,,,0,62,64
64704,note_off,,96,0,1,,,,,,0,77,64
64704,note_on,,0,0,1,,,,,,0,76,92
64800,note_on,,0,0,1,,,,,,0,74,92
64800,note_off,,96,0,1,,,,,,0,76,64
64800,note_on,,0,0,2,,,,,,0,59,92
64800,note_off,,96,0,2,,,,,,0,60,64
64896,note_off,,96,0,1,,,,,,0,74,64
64896,note_off,,192,0,3,,,,,,0,48,64
64896,note_on,,0,0,2,,,,,,0,57,92
64896,note_off,,96,0,2,,,,,,0,59,64
64896,note_on,,0,0,1,,,,,,0,72,92
64992,note_on,,0,0,2,,,,,,0,55,92
64992,note_off,,96,0,2,,,,,,0,57,64
64992,note_off,,96,0,1,,,,,,0,72,64
64992,note_on,,0,0,1,,,,,,0,71,92
65088,note_on,,192,0,3,,,,,,0,48,102
65088,note_on,,0,0,1,,,,,,0,69,92
65088,note_off,,96,0,1,,,,,,0,71,64
65088,note_on,,0,0,2,,,,,,0,53,92
65088,note_off,,96,0,2,,,,,,0,55,64
65184,note_on,,0,0,2,,,,,,0,52,92
65184,note_off,,96,0,2,,,,,,0,53,64
65184,note_on,,0,0,1,,,,,,0,67,92
65184,note_off,,96,0,1,,,,,,0,69,64
65280,note_on,,0,0,2,,,,,,0,60,92
65280,note_off,,96,0,2,,,,,,0,52,64
65280,note_on,,0,0,3,,,,,,0,60,102
65280,note_on,,0,0,1,,,,,,0,81,92
65280,note_off,,192,0,3,,,,,,0,48,64
65280,note_off,,96,0,1,,,,,,0,67,64
65376,note_on,,0,0,1,,,,,,0,79,92
65376,note_off,,96,0,2,,,,,,0,60,64
65376,note_on,,0,0,2,,,,,,0,59,92
65376,note_off,,96,0,1,,,,,,0,81,64
65472,note_off,,192,0,3,,,,,,0,60,64
65472,note_on,,0,0,3,,,,,,0,48,102
65472,note_on,,0,0,1,,,,,,0,77,92
65472,note_off,,96,0,2,,,,,,0,59,64
65472,note_on,,0,0,2,,,,,,0,57,92
65472,note_off,,96,0,1,,,,,,0,79,64
65568,note_on,,0,0,2,,,,,,0,55,92
65568,note_on,,0,0,1,,,,,,0,76,92
65568,note_off,,96,0,1,,,,,,0,77,64
65568,note_off,,96,0,2,,,,,,0,57,64
65664,note_off,,96,0,2,,,,,,0,55,64
65664,note_on,,0,0,2,,,,,,0,53,92
65664,note_on,,0,0,1,,,,,,0,74,92
65664,note_off,,96,0,1,,,,,,0,76,64
65664,note_off,,192,0,3,,,,,,0,48,64
65760,note_off,,96,0,2,,,,,,0,53,64
65760,note_on,,0,0,1,,,,,,0,72,92
65760,note_off,,96,0,1,,,,,,0,74,64
65760,note_on,,0,0,2,,,,,,0,52,92
65856,note_off,,96,0,2,,,,,,0,52,64
65856,note_on,,192,0,3,,,,,,0,48,102
65856,note_on,,0,0,2,,,,,,0,50,92
65856,note_off,,96,0,1,,,,,,0,72,64
65856,note_on,,0,0,1,,,,,,0,71,92
65952,note_on,,0,0,2,,,,,,0,48,92
65952,note_off,,96,0,2,,,,,,0,50,64
65952,note_off,,96,0,1,,,,,,0,71,64
65952,note_on,,0,0,1,,,,,,0,69,92
66048,note_off,,96,0,1,,,,,,0,69,64
66048,note_on,,0,0,1,,,,,,0,84,92
66048,note_off,,96,0,2,,,,,,0,48,64
66048,note_on,,0,0,2,,,,,,0,57,92
66048,note_on,,0,0,3,,,,,,0,60,102
66048,note_off,,192,0,3,,,,,,0,48,64
66144,note_off,,96,0,2,,,,,,0,57,64
66144,note_off,,96,0,1,,,,,,0,84,64
66144,note_on,,0,0,1,,,,,,0,83,92
66144,note_on,,0,0,2,,,,,,0,55,92
66240,note_off,,96,0,1,,,,,,0,83,64
66240,note_on,,0,0,3,,,,,,0,48,102
66240,note_off,,192,0,3,,,,,,0,60,64
66240,note_on,,0,0,1,,,,,,0,81,92
66240,note_off,,96,0,2,,,,,,0,55,64
66240,note_on,,0,0,2,,,,,,0,54,92
66336,note_on,,0,0,2,,,,,,0,52,92
66336,note_off,,96,0,1,,,,,,0,81,64
66336,note_on,,0,0,1,,,,,,0,79,92
66336,note_off,,96,0,2,,,,,,0,54,64
66432,note_on,,0,0,1,,,,,,0,78,92
66432,note_off,,192,0,3,,,,,,0,48,64
66432,note_on,,0,0,2,,,,,,0,51,92
66432,note_off,,96,0,2,,,,,,0,52,64
66432,note_off,,96,0,1,,,,,,0,79,64
66528,note_on,,0,0,1,,,,,,0,79,92
66528,note_off,,96,0,1,,,,,,0,78,64
66528,note_on,,0,0,2,,,,,,0,52,92
66528,note_off,,96,0,2,,,,,,0,51,64
66624,note_off,,96,0,1,,,,,,0,79,64
66624,note_on,,0,0,1,,,,,,0,78,92
66624,note_on,,192,0,3,,,,,,0,48,102
66624,note_on,,0,0,2,,,,,,0,51,92
66624,note_off,,96,0,2,,,,,,0,52,64
66720,note_off,,96,0,2,,,,,,0,51,64
66720,note_on,,0,0,2,,,,,,0,52,92
66720,note_off,,96,0,1,,,,,,0,78,64
66720,note_on,,0,0,1,,,,,,0,79,92
66816,note_off,,96,0,2,,,,,,0,52,64
66816,note_off,,192,0,3,,,,,,0,48,64
66816,note_on,,0,0,3,,,,,,0,59,102
66816,note_on,,0,0,2,,,,,,0,51,92
66816,note_off,,96,0,1,,,,,,0,79,64
66816,note_on,,0,0,1,,,,,,0,81,92
66912,note_on,,0,0,1,,,,,,0,84,92
66912,note_off,,96,0,1,,,,,,0,81,64
67008,note_off,,96,0,1,,,,,,0,84,64
67008,note_off,,192,0,3,,,,,,0,59,64
67008,note_on,,0,0,3,,,,,,0,47,102
67008,note_on,,0,0,1,,,,,,0,84,92
67104,note_on,,0,0,1,,,,,,0,78,92
67104,note_off,,96,0,1,,,,,,0,84,64
67200,note_off,,96,0,1,,,,,,0,78,64
67200,note_off,,192,0,3,,,,,,0,47,64
67200,note_off,,384,0,2,,,,,,0,51,64
67200,note_on,,0,0,1,,,,,,0,78,92
67296,note_on,,0,0,1,,,,,,0,81,92
67296,note_on,,0,0,1,,,,,,0,72,92
67296,note_off,,96,0,1,,,,,,0,78,64
67392,note_on,,0,0,1,,,,,,0,72,92
67392,note_off,,0,0,1,,,,,,0,72,64
67392,note_on,,0,0,1,,,,,,0,81,92
67392,note_off,,96,0,1,,,,,,0,81,64
67392,note_on,,192,0,3,,,,,,0,47,102
67488,note_off,,0,0,1,,,,,,0,72,64
67488,note_off,,96,0,1,,,,,,0,81,64
67488,note_on,,0,0,1,,,,,,0,66,92
67488,note_on,,0,0,1,,,,,,0,75,92
67584,note_on,,0,0,1,,,,,,0,75,92
67584,note_on,,0,0,1,,,,,,0,66,92
67584,note_off,,192,0,3,,,,,,0,47,64
67584,note_on,,0,0,3,,,,,,0,59,102
67584,note_off,,96,0,1,,,,,,0,75,64
67584,note_off,,0,0,1,,,,,,0,66,64
67680,note_off,,96,0,1,,,,,,0,75,64
67680,note_on,,0,0,1,,,,,,0,69,92
67680,note_off,,0,0,1,,,,,,0,66,64
67680,note_on,,0,0,1,,,,,,0,78,92
67776,note_off,,0,0,1,,,,,,0,78,64
67776,note_off,,96,0,1,,,,,,0,69,64
67776,note_off,,192,0,3,,,,,,0,59,64
67776,note_on,,0,0,3,,,,,,0,47,102
67776,note_on,,0,0,1,,,,,,0,78,92
67776,note_on,,0,0,1,,,,,,0,69,92
67872,note_off,,96,0,1,,,,,,0,69,64
67872,note_off,,0,0,1,,,,,,0,78,64
67872,note_on,,0,0,1,,,,,,0,63,92
67872,note_on,,0,0,1,,,,,,0,69,92
67968,note_on,,0,0,1,,,,,,0,69,92
67968,note_off,,192,0,3,,,,,,0,47,64
67968,note_on,,0,0,1,,,,,,0,63,92
67968,note_off,,96,0,1,,,,,,0,69,64
67968,note_off,,0,0,1,,,,,,0,63,64
68064,note_off,,96,0,1,,,,,,0,69,64
68064,note_off,,0,0,1,,,,,,0,63,64
68064,note_on,,0,0,1,,,,,,0,66,92
68064,note_on,,0,0,1,,,,,,0,72,92
68160,note_off,,96,0,1,,,,,,0,72,64
68160,note_off,,0,0,1,,,,,,0,66,64
68160,note_on,,0,0,1,,,,,,0,66,92
68160,note_on,,0,0,1,,,,,,0,72,92
68160,note_on,,192,0,3,,,,,,0,47,102
68256,note_on,,1056,0,2,,,,,,0,57,92
68256,note_on,,0,0,1,,,,,,0,66,92
68256,note_off,,96,0,1,,,,,,0,72,64
68256,note_off,,0,0,1,,,,,,0,66,64
68352,note_off,,96,0,1,,,,,,0,66,64
68352,note_on,,0,0,1,,,,,,0,66,92
68352,note_off,,96,0,2,,,,,,0,57,64
68352,note_on,,0,0,2,,,,,,0,57,92
68352,note_on,,0,0,3,,,,,,0,59,102
68352,note_off,,192,0,3,,,,,,0,47,64
68448,note_off,,96,0,2,,,,,,0,57,64
68448,note_on,,0,0,2,,,,,,0,60,92
68448,note_on,,0,0,1,,,,,,0,69,92
68448,note_off,,96,0,1,,,,,,0,66,64
68544,note_on,,0,0,1,,,,,,0,69,92
68544,note_off,,192,0,3,,,,,,0,59,64
68544,note_on,,0,0,2,,,,,,0,60,92
68544,note_on,,0,0,3,,,,,,0,47,102
68544,note_off,,96,0,1,,,,,,0,69,64
68544,note_off,,96,0,2,,,,,,0,60,64
68640,note_off,,96,0,2,,,,,,0,60,64
68640,note_on,,0,0,2,,,,,,0,54,92
68640,note_off,,96,0,1,,,,,,0,69,64
68640,note_on,,0,0,1,,,,,,0,63,92
68736,note_off,,96,0,2,,,,,,0,54,64
68736,note_off,,192,0,3,,,,,,0,47,64
68736,note_off,,96,0,1,,,,,,0,63,64
68736,note_on,,0,0,1,,,,,,0,63,92
68736,note_on,,0,0,2,,,,,,0,54,92
68832,note_off,,96,0,1,,,,,,0,63,64
68832,note_on,,0,0,1,,,,,,0,66,92
68832,note_on,,0,0,2,,,,,,0,57,92
68832,note_off,,96,0,2,,,,,,0,54,64
68928,note_on,,192,0,3,,,,,,0,47,102
68928,note_off,,96,0,2,,,,,,0,57,64
68928,note_off,,96,0,1,,,,,,0,66,64
68928,note_on,,0,0,1,,,,,,0,66,92
68928,note_on,,0,0,2,,,,,,0,57,92
69024,note_on,,0,0,1,,,,,,0,59,92
69024,note_off,,96,0,2,,,,,,0,57,64
69024,note_on,,0,0,2,,,,,,0,51,92
69024,note_off,,96,0,1,,,,,,0,66,64
69120,note_off,,96,0,1,,,,,,0,59,64
69120,note_off,,192,0,3,,,,,,0,47,64
69120,note_off,,96,0,2,,,,,,0,51,64
69120,note_on,,0,0,2,,,,,,0,51,92
69120,note_on,,0,0,1,,,,,,0,59,92
69120,note_on,,0,0,3,,,,,,0,59,102
69216,note_off,,96,0,2,,,,,,0,51,64
69216,note_on,,0,0,2,,,,,,0,54,92
69312,note_off,,96,0,2,,,,,,0,54,64
69312,note_on,,0,0,3,,,,,,0,47,102
69312,note_off,,192,0,3,,,,,,0,59,64
69312,note_on,,0,0,2,,,,,,0,54,92
69408,note_on,,0,0,2,,,,,,0,47,92
69408,note_off,,96,0,2,,,,,,0,54,64
69504,note_on,,0,0,2,,,,,,0,47,92
69504,note_off,,96,0,2,,,,,,0,47,64
69504,note_off,,384,0,1,,,,,,0,59,64
69504,note_off,,192,0,3,,,,,,0,47,64
69696,note_on,,192,0,3,,,,,,0,51,102
69696,note_on,,192,0,1,,,,,,0,83,92
69696,note_off,,192,0,2,,,,,,0,47,64
69696,note_on,,0,0,2,,,,,,0,71,92
69696,note_on,,0,0,2,,,,,,0,66,92
69696,note_on,,0,0,1,,,,,,0,78,92
69888,note_on,,0,0,1,,,,,,0,83,92
69888,note_on,,0,0,1,,,,,,0,79,92
69888,note_off,,0,0,1,,,,,,0,83,64
69888,note_off,,192,0,1,,,,,,0,78,64
69888,note_on,,0,0,3,,,,,,0,52,102
69888,note_off,,0,0,2,,,,,,0,71,64
69888,note_on,,0,0,2,,,,,,0,64,92
69888,note_on,,0,0,2,,,,,,0,71,92
69888,note_off,,192,0,2,,,,,,0,66,64
69888,note_off,,192,0,3,,,,,,0,51,64
69984,note_on,,0,0,2,,,,,,0,63,92
69984,note_off,,96,0,2,,,,,,0,64,64
70080,note_off,,96,0,2,,,,,,0,63,64
70080,note_on,,0,0,2,,,,,,0,64,92
70080,note_off,,0,0,2,,,,,,0,71,64
70080,note_on,,0,0,2,,,,,,0,72,92
70080,note_off,,0,0,1,,,,,,0,83,64
70080,note_off,,192,0,3,,,,,,0,52,64
70080,note_on,,0,0,1,,,,,,0,81,92
70080,note_off,,192,0,1,,,,,,0,79,64
70080,note_on,,0,0,3,,,,,,0,57,102
70080,note_on,,0,0,1,,,,,,0,78,92
70176,note_off,,96,0,1,,,,,,0,81,64
70176,note_off,,0,0,1,,,,,,0,78,64
70176,note_on,,0,0,1,,,,,,0,76,92
70176,note_on,,0,0,1,,,,,,0,79,92
70272,note_off,,192,0,2,,,,,,0,64,64
70272,note_on,,0,0,2,,,,,,0,66,92
70272,note_on,,0,0,3,,,,,,0,59,102
70272,note_off,,192,0,3,,,,,,0,57,64
70272,note_on,,0,0,1,,,,,,0,78,92
70272,note_on,,0,0,2,,,,,,0,59,92
70272,note_off,,96,0,1,,,,,,0,79,64
70272,note_on,,0,0,1,,,,,,0,75,92
70272,note_off,,0,0,2,,,,,,0,72,64
70272,note_off,,0,0,1,,,,,,0,76,64
70464,note_off,,192,0,2,,,,,,0,66,64
70464,note_off,,192,0,3,,,,,,0,59,64
70464,note_on,,0,0,2,,,,,,0,69,92
70464,note_on,,0,0,3,,,,,,0,47,102
70560,note_off,,0,0,1,,,,,,0,75,64
70560,note_on,,0,0,1,,,,,,0,76,92
70560,note_off,,288,0,1,,,,,,0,78,64
70656,note_on,,0,0,3,,,,,,0,52,102
70656,note_off,,192,0,2,,,,,,0,69,64
70656,note_off,,0,0,2,,,,,,0,59,64
70656,note_on,,0,0,2,,,,,,0,67,92
70656,note_on,,0,0,2,,,,,,0,59,92
70656,note_off,,96,0,1,,,,,,0,76,64
70656,note_off,,192,0,3,,,,,,0,47,64
70656,note_on,,0,0,1,,,,,,0,76,92
70752,note_on,,96,0,1,,,,,,0,74,92
70848,note_on,,0,0,1,,,,,,0,73,92
70848,note_off,,96,0,1,,,,,,0,74,64
70944,note_off,,96,0,1,,,,,,0,73,64
70944,note_on,,0,0,1,,,,,,0,71,92
71040,note_on,,0,0,1,,,,,,0,69,92
71040,note_off,,0,0,2,,,,,,0,67,64
71040,note_off,,384,0,3,,,,,,0,52,64
71040,note_off,,384,0,2,,,,,,0,59,64
71040,note_off,,96,0,1,,,,,,0,71,64
71040,note_off,,0,0,1,,,,,,0,76,64
71136,note_on,,96,0,2,,,,,,0,67,92
71232,note_on,,0,0,2,,,,,,0,69,92
71232,note_off,,96,0,2,,,,,,0,67,64
71232,note_off,,192,0,1,,,,,,0,69,64
71232,note_on,,0,0,1,,,,,,0,81,92
71232,note_on,,0,0,1,,,,,,0,76,92
71232,note_on,,0,0,2,,,,,,0,65,92
71232,note_on,,192,0,3,,,,,,0,49,102
71328,note_off,,96,0,2,,,,,,0,65,64
71328,note_on,,0,0,2,,,,,,0,64,92
71424,note_off,,96,0,2,,,,,,0,64,64
71424,note_on,,0,0,3,,,,,,0,50,102
71424,note_on,,0,0,2,,,,,,0,69,92
71424,note_on,,0,0,2,,,,,,0,62,92
71424,note_off,,192,0,1,,,,,,0,76,64
71424,note_off,,0,0,1,,,,,,0,81,64
71424,note_on,,0,0,1,,,,,,0,77,92
71424,note_off,,0,0,2,,,,,,0,69,64
71424,note_on,,0,0,1,,,,,,0,81,92
71424,note_off,,192,0,3,,,,,,0,49,64
71520,note_off,,96,0,2,,,,,,0,62,64
71520,note_on,,0,0,2,,,,,,0,61,92
71616,note_on,,0,0,2,,,,,,0,62,92
71616,note_off,,192,0,1,,,,,,0,81,64
71616,note_off,,0,0,1,,,,,,0,77,64
71616,note_on,,0,0,1,,,,,,0,76,92
71616,note_on,,0,0,2,,,,,,0,70,92
71616,note_off,,0,0,2,,,,,,0,69,64
71616,note_off,,96,0,2,,,,,,0,61,64
71616,note_on,,0,0,3,,,,,,0,55,102
71616,note_off,,192,0,3,,,,,,0,50,64
71616,note_on,,0,0,1,,,,,,0,79,92
71712,note_off,,96,0,1,,,,,,0,79,64
71712,note_off,,0,0,1,,,,,,0,76,64
71712,note_on,,0,0,1,,,,,,0,74,92
71712,note_on,,0,0,1,,,,,,0,77,92
71808,note_off,,192,0,2,,,,,,0,62,64
71808,note_on,,0,0,2,,,,,,0,64,92
71808,note_on,,0,0,3,,,,,,0,57,102
71808,note_off,,192,0,3,,,,,,0,55,64
71808,note_off,,0,0,2,,,,,,0,70,64
71808,note_off,,96,0,1,,,,,,0,77,64
71808,note_off,,0,0,1,,,,,,0,74,64
71808,note_on,,0,0,1,,,,,,0,76,92
71808,note_on,,0,0,1,,,,,,0,73,92
71808,note_on,,0,0,2,,,,,,0,57,92
71856,note_off,,48,0,1,,,,,,0,76,64
71856,note_on,,0,0,1,,,,,,0,77,92
71904,note_on,,0,0,1,,,,,,0,76,92
71904,note_off,,48,0,1,,,,,,0,77,64
72000,note_on,,0,0,2,,,,,,0,67,92
72000,note_off,,192,0,3,,,,,,0,57,64
72000,note_on,,0,0,3,,,,,,0,45,102
72000,note_off,,192,0,2,,,,,,0,64,64
72096,note_on,,0,0,1,,,,,,0,74,92
72096,note_off,,192,0,1,,,,,,0,76,64
72096,note_off,,0,0,1,,,,,,0,73,64
72192,note_on,,0,0,1,,,,,,0,74,92
72192,note_on,,0,0,3,,,,,,0,50,102
72192,note_off,,192,0,3,,,,,,0,45,64
72192,note_off,,192,0,2,,,,,,0,67,64
72192,note_off,,96,0,1,,,,,,0,74,64
72192,note_on,,0,0,2,,,,,,0,65,92
72192,note_on,,0,0,2,,,,,,0,57,82
72192,note_off,,0,0,2,,,,,,0,57,64
72384,note_on,,0,0,2,,,,,,0,69,82
72384,note_off,,192,0,1,,,,,,0,74,64
72384,note_on,,0,0,1,,,,,,0,74,92
72384,note_off,,0,0,2,,,,,,0,65,64
72384,note_off,,192,0,2,,,,,,0,57,64
72480,note_on,,0,0,2,,,,,,0,74,82
72480,note_off,,96,0,2,,,,,,0,69,64
72576,note_off,,96,0,2,,,,,,0,74,64
72576,note_on,,0,0,2,,,,,,0,69,82
72576,note_off,,192,0,1,,,,,,0,74,64
72576,note_off,,384,0,3,,,,,,0,50,64
72576,note_on,,0,0,1,,,,,,0,74,92
72672,note_off,,96,0,2,,,,,,0,69,64
72672,note_on,,0,0,2,,,,,,0,74,82
72672,note_on,,0,0,1,,,,,,0,76,92
72672,note_off,,96,0,1,,,,,,0,74,64
72768,note_on,,0,0,2,,,,,,0,69,82
72768,note_on,,0,0,1,,,,,,0,74,92
72768,note_off,,96,0,2,,,,,,0,74,64
72768,note_off,,96,0,1,,,,,,0,76,64
72864,note_off,,96,0,2,,,,,,0,69,64
72864,note_on,,0,0,2,,,,,,0,74,82
72960,note_on,,0,0,2,,,,,,0,73,82
72960,note_off,,96,0,2,,,,,,0,74,64
72960,note_off,,192,0,1,,,,,,0,74,64
73056,note_off,,96,0,2,,,,,,0,73,64
73056,note_on,,0,0,2,,,,,,0,69,82
73152,note_off,,96,0,2,,,,,,0,69,64
73152,note_on,,0,0,2,,,,,,0,73,82
73152,note_on,,192,0,1,,,,,,0,76,92
73248,note_off,,96,0,2,,,,,,0,73,64
73248,note_on,,0,0,2,,,,,,0,69,82
73344,note_off,,96,0,2,,,,,,0,69,64
73344,note_on,,0,0,2,,,,,,0,73,82
73344,note_on,,0,0,1,,,,,,0,76,92
73344,note_off,,192,0,1,,,,,,0,76,64
73440,note_on,,0,0,1,,,,,,0,77,92
73440,note_off,,96,0,1,,,,,,0,76,64
73440,note_on,,0,0,2,,,,,,0,69,82
73440,note_off,,96,0,2,,,,,,0,73,64
73536,note_off,,96,0,2,,,,,,0,69,64
73536,note_off,,96,0,1,,,,,,0,77,64
73536,note_on,,0,0,1,,,,,,0,76,92
73536,note_on,,0,0,2,,,,,,0,73,82
73632,note_on,,0,0,2,,,,,,0,69,82
73632,note_off,,96,0,2,,,,,,0,73,64
73728,note_off,,96,0,2,,,,,,0,69,64
73728,note_on,,0,0,2,,,,,,0,74,82
73728,note_off,,192,0,1,,,,,,0,76,64
73824,note_off,,96,0,2,,,,,,0,74,64
73824,note_on,,0,0,2,,,,,,0,69,82
73920,note_on,,0,0,2,,,,,,0,74,82
73920,note_off,,96,0,2,,,,,,0,69,64
73920,note_on,,192,0,1,,,,,,0,77,92
74016,note_off,,96,0,2,,,,,,0,74,64
74016,note_on,,0,0,2,,,,,,0,69,82
74112,note_off,,192,0,1,,,,,,0,77,64
74112,note_on,,0,0,1,,,,,,0,77,92
74112,note_on,,0,0,2,,,,,,0,74,82
74112,note_off,,96,0,2,,,,,,0,69,64
74208,note_on,,0,0,1,,,,,,0,79,92
74208,note_off,,96,0,1,,,,,,0,77,64
74208,note_off,,96,0,2,,,,,,0,74,64
74208,note_on,,0,0,2,,,,,,0,69,82
74304,note_on,,0,0,1,,,,,,0,77,92
74304,note_off,,96,0,2,,,,,,0,69,64
74304,note_on,,0,0,2,,,,,,0,74,82
74304,note_off,,96,0,1,,,,,,0,79,64
74400,note_off,,96,0,2,,,,,,0,74,64
74400,note_on,,0,0,2,,,,,,0,69,82
74496,note_off,,192,0,1,,,,,,0,77,64
74496,note_off,,96,0,2,,,,,,0,69,64
74496,note_on,,0,0,2,,,,,,0,76,82
74592,note_off,,96,0,2,,,,,,0,76,64
74592,note_on,,0,0,2,,,,,,0,69,82
74688,note_off,,96,0,2,,,,,,0,69,64
74688,note_on,,0,0,2,,,,,,0,76,82
74688,note_on,,192,0,1,,,,,,0,79,92
74784,note_off,,96,0,2,,,,,,0,76,64
74784,note_on,,0,0,2,,,,,,0,69,82
74880,note_off,,192,0,1,,,,,,0,79,64
74880,note_on,,0,0,2,,,,,,0,76,82
74880,note_on,,0,0,1,,,,,,0,79,92
74880,note_off,,96,0,2,,,,,,0,69,64
74976,note_off,,96,0,2,,,,,,0,76,64
74976,note_on,,0,0,2,,,,,,0,69,82
74976,note_off,,96,0,1,,,,,,0,79,64
74976,note_on,,0,0,1,,,,,,0,81,92
75072,note_on,,0,0,1,,,,,,0,79,92
75072,note_off,,96,0,1,,,,,,0,81,64
75072,note_off,,96,0,2,,,,,,0,69,64
75072,note_on,,0,0,2,,,,,,0,76,82
75168,note_off,,96,0,2,,,,,,0,76,64
75168,note_on,,0,0,2,,,,,,0,69,82
75264,note_off,,192,0,1,,,,,,0,79,64
75264,note_off,,96,0,2,,,,,,0,69,64
75264,note_on,,0,0,2,,,,,,0,77,82
75264,note_on,,0,0,1,,,,,,0,81,92
75360,note_off,,96,0,2,,,,,,0,77,64
75360,note_on,,0,0,2,,,,,,0,69,82
75456,note_off,,96,0,2,,,,,,0,69,64
75456,note_on,,0,0,2,,,,,,0,77,82
75552,note_on,,0,0,2,,,,,,0,69,82
75552,note_off,,96,0,2,,,,,,0,77,64
75648,note_on,,0,0,2,,,,,,0,77,82
75648,note_off,,96,0,2,,,,,,0,69,64
75744,note_on,,0,0,1,,,,,,0,79,92
75744,note_off,,96,0,2,,,,,,0,77,64
75744,note_on,,0,0,2,,,,,,0,69,82
75744,note_off,,480,0,1,,,,,,0,81,64
75840,note_off,,96,0,2,,,,,,0,69,64
75840,note_on,,0,0,2,,,,,,0,77,82
75840,note_on,,0,0,1,,,,,,0,81,92
75840,note_off,,96,0,1,,,,,,0,79,64
75936,note_off,,96,0,2,,,,,,0,77,64
75936,note_on,,0,0,2,,,,,,0,69,82
75936,note_off,,96,0,1,,,,,,0,81,64
75936,note_on,,0,0,1,,,,,,0,82,92
76032,note_off,,96,0,1,,,,,,0,82,64
76032,note_on,,0,0,2,,,,,,0,76,82
76032,note_off,,96,0,2,,,,,,0,69,64
76032,note_on,,0,0,1,,,,,,0,79,92
76128,note_off,,96,0,2,,,,,,0,76,64
76128,note_on,,0,0,2,,,,,,0,69,82
76224,note_on,,0,0,2,,,,,,0,76,82
76224,note_off,,96,0,2,,,,,,0,69,64
76320,note_on,,0,0,2,,,,,,0,69,82
76320,note_off,,96,0,2,,,,,,0,76,64
76416,note_off,,96,0,2,,,,,,0,69,64
76416,note_on,,0,0,2,,,,,,0,76,82
76512,note_off,,96,0,2,,,,,,0,76,64
76512,note_on,,0,0,1,,,,,,0,77,92
76512,note_off,,480,0,1,,,,,,0,79,64
76512,note_on,,0,0,2,,,,,,0,69,82
76608,note_on,,0,0,1,,,,,,0,79,92
76608,note_off,,96,0,1,,,,,,0,77,64
76608,note_on,,0,0,2,,,,,,0,76,82
76608,note_off,,96,0,2,,,,,,0,69,64
76704,note_on,,0,0,1,,,,,,0,81,92
76704,note_on,,0,0,2,,,,,,0,69,82
76704,note_off,,96,0,2,,,,,,0,76,64
76704,note_off,,96,0,1,,,,,,0,79,64
76800,note_off,,96,0,2,,,,,,0,69,64
76800,note_on,,0,0,2,,,,,,0,74,82
76800,note_on,,0,0,1,,,,,,0,77,92
76800,note_off,,96,0,1,,,,,,0,81,64
76896,note_on,,0,0,2,,,,,,0,62,82
76896,note_off,,96,0,2,,,,,,0,74,64
76992,note_off,,192,0,1,,,,,,0,77,64
76992,note_on,,0,0,1,,,,,,0,76,92
76992,note_off,,96,0,2,,,,,,0,62,64
76992,note_on,,0,0,2,,,,,,0,65,82
77088,note_off,,96,0,1,,,,,,0,76,64
77088,note_on,,0,0,1,,,,,,0,74,92
77088,note_off,,96,0,2,,,,,,0,65,64
77088,note_on,,0,0,2,,,,,,0,67,82
77184,note_off,,96,0,1,,,,,,0,74,64
77184,note_on,,0,0,1,,,,,,0,73,92
77184,note_off,,96,0,2,,,,,,0,67,64
77184,note_on,,0,0,2,,,,,,0,69,82
77232,note_off,,48,0,1,,,,,,0,73,64
77232,note_on,,0,0,1,,,,,,0,74,92
77280,note_off,,96,0,2,,,,,,0,69,64
77280,note_on,,0,0,2,,,,,,0,67,82
77280,note_on,,0,0,1,,,,,,0,73,92
77280,note_off,,48,0,1,,,,,,0,74,64
77376,note_on,,0,0,2,,,,,,0,65,82
77376,note_off,,96,0,2,,,,,,0,67,64
77472,note_off,,96,0,2,,,,,,0,65,64
77472,note_on,,0,0,1,,,,,,0,74,92
77472,note_off,,192,0,1,,,,,,0,73,64
77472,note_on,,0,0,2,,,,,,0,64,82
77568,note_off,,96,0,2,,,,,,0,64,64
77568,note_off,,96,0,1,,,,,,0,74,64
77568,note_on,,0,0,1,,,,,,0,74,92
77568,note_on,,0,0,2,,,,,,0,62,92
77760,note_off,,192,0,1,,,,,,0,74,64
77760,note_on,,0,0,2,,,,,,0,50,92
77760,note_on,,0,0,1,,,,,,0,62,92
77760,note_off,,192,0,2,,,,,,0,62,64
77952,note_on,,0,0,2,,,,,,0,53,92
77952,note_off,,192,0,2,,,,,,0,50,64
77952,note_off,,192,0,1,,,,,,0,62,64
77952,note_on,,0,0,1,,,,,,0,65,92
78144,note_on,,0,0,1,,,,,,0,69,92
78144,note_off,,192,0,1,,,,,,0,65,64
78144,note_off,,192,0,2,,,,,,0,53,64
78144,note_on,,0,0,2,,,,,,0,57,92
78336,note_off,,192,0,1,,,,,,0,69,64
78336,note_off,,192,0,2,,,,,,0,57,64
78336,note_on,,0,0,2,,,,,,0,62,92
78336,note_on,,0,0,1,,,,,,0,74,92
78720,note_off,,384,0,1,,,,,,0,74,64
78720,note_on,,0,0,1,,,,,,0,73,92
78720,note_on,,0,0,2,,,,,,0,61,92
78720,note_off,,384,0,2,,,,,,0,62,64
79104,note_on,,0,0,2,,,,,,0,62,92
79104,note_off,,384,0,2,,,,,,0,61,64
79104,note_on,,0,0,1,,,,,,0,74,92
79104,note_off,,384,0,1,,,,,,0,73,64
79200,note_on,,0,0,2,,,,,,0,60,92
79200,note_on,,0,0,1,,,,,,0,72,92
79200,note_off,,96,0,1,,,,,,0,74,64
79200,note_off,,96,0,2,,,,,,0,62,64
79296,note_off,,96,0,2,,,,,,0,60,64
79296,note_on,,0,0,1,,,,,,0,70,92
79296,note_off,,96,0,1,,,,,,0,72,64
79296,note_on,,0,0,2,,,,,,0,58,92
79392,note_on,,0,0,1,,,,,,0,69,92
79392,note_off,,96,0,1,,,,,,0,70,64
79392,note_on,,0,0,2,,,,,,0,57,92
79392,note_off,,96,0,2,,,,,,0,58,64
79488,note_off,,96,0,2,,,,,,0,57,64
79488,note_on,,0,0,2,,,,,,0,55,92
79488,note_on,,0,0,1,,,,,,0,67,92
79488,note_off,,96,0,1,,,,,,0,69,64
79584,note_on,,0,0,2,,,,,,0,53,92
79584,note_on,,0,0,1,,,,,,0,65,92
79584,note_off,,96,0,1,,,,,,0,67,64
79584,note_off,,96,0,2,,,,,,0,55,64
79680,note_off,,96,0,1,,,,,,0,65,64
79680,note_off,,96,0,2,,,,,,0,53,64
79680,note_on,,0,0,2,,,,,,0,52,92
79680,note_on,,0,0,1,,,,,,0,64,92
79776,note_on,,0,0,2,,,,,,0,50,92
79776,note_off,,96,0,2,,,,,,0,52,64
79776,note_off,,96,0,1,,,,,,0,64,64
79776,note_on,,0,0,1,,,,,,0,62,92
79872,note_off,,96,0,2,,,,,,0,50,64
79872,note_on,,0,0,2,,,,,,0,57,92
79872,note_on,,0,0,1,,,,,,0,69,92
79872,note_off,,96,0,1,,,,,,0,62,64
80064,note_on,,0,0,1,,,,,,0,57,92
80064,note_off,,192,0,2,,,,,,0,57,64
80064,note_on,,0,0,2,,,,,,0,45,92
80064,note_off,,192,0,1,,,,,,0,69,64
80256,note_on,,0,0,1,,,,,,0,57,92
80256,note_off,,192,0,2,,,,,,0,45,64
80256,note_off,,192,0,1,,,,,,0,57,64
80256,note_on,,0,0,2,,,,,,0,45,92
80448,note_on,,0,0,1,,,,,,0,59,92
80448,note_off,,192,0,2,,,,,,0,45,64
80448,note_on,,0,0,2,,,,,,0,47,92
80448,note_off,,192,0,1,,,,,,0,57,64
80544,note_off,,96,0,1,,,,,,0,59,64
80544,note_on,,0,0,1,,,,,,0,61,92
80544,note_off,,96,0,2,,,,,,0,47,64
80544,note_on,,0,0,2,,,,,,0,49,92
80640,note_on,,0,0,2,,,,,,0,50,92
80640,note_off,,96,0,1,,,,,,0,61,64
80640,note_on,,0,0,1,,,,,,0,62,92
80640,note_off,,96,0,2,,,,,,0,49,64
80832,note_off,,192,0,1,,,,,,0,62,64
80832,note_on,,0,0,1,,,,,,0,62,92
80832,note_on,,0,0,2,,,,,,0,50,92
80832,note_off,,192,0,2,,,,,,0,50,64
80928,note_off,,96,0,1,,,,,,0,62,64
80928,note_off,,96,0,2,,,,,,0,50,64
80928,note_on,,0,0,2,,,,,,0,52,92
80928,note_on,,0,0,1,,,,,,0,64,92
81024,note_off,,96,0,1,,,,,,0,64,64
81024,note_on,,0,0,1,,,,,,0,65,92
81024,note_on,,0,0,2,,,,,,0,53,92
81024,note_off,,96,0,2,,,,,,0,52,64
81216,note_off,,192,0,1,,,,,,0,65,64
81216,note_on,,0,0,1,,,,,,0,65,92
81216,note_on,,0,0,2,,,,,,0,53,92
81216,note_off,,192,0,2,,,,,,0,53,64
81312,note_on,,0,0,1,,,,,,0,67,92
81312,note_on,,0,0,2,,,,,,0,55,92
81312,note_off,,96,0,2,,,,,,0,53,64
81312,note_off,,96,0,1,,,,,,0,65,64
81408,note_on,,0,0,1,,,,,,0,69,92
81408,note_on,,0,0,2,,,,,,0,57,92
81408,note_off,,96,0,1,,,,,,0,67,64
81408,note_off,,96,0,2,,,,,,0,55,64
81600,note_off,,192,0,2,,,,,,0,57,64
81600,note_off,,192,0,1,,,,,,0,69,64
81600,note_on,,0,0,2,,,,,,0,45,92
81600,note_on,,0,0,1,,,,,,0,57,92
81792,note_off,,192,0,1,,,,,,0,57,64
81792,note_on,,0,0,1,,,,,,0,57,92
81792,note_on,,0,0,2,,,,,,0,45,92
81792,note_off,,192,0,2,,,,,,0,45,64
81984,note_on,,0,0,1,,,,,,0,59,92
81984,note_off,,192,0,1,,,,,,0,57,64
81984,note_off,,192,0,2,,,,,,0,45,64
81984,note_on,,0,0,2,,,,,,0,47,92
82080,note_off,,96,0,2,,,,,,0,47,64
82080,note_on,,0,0,2,,,,,,0,49,92
82080,note_off,,96,0,1,,,,,,0,59,64
82080,note_on,,0,0,1,,,,,,0,61,92
82176,note_on,,0,0,1,,,,,,0,62,92
82176,note_off,,96,0,2,,,,,,0,49,64
82176,note_on,,0,0,2,,,,,,0,50,92
82176,note_off,,96,0,1,,,,,,0,61,64
82368,note_on,,0,0,2,,,,,,0,50,92
82368,note_off,,192,0,2,,,,,,0,50,64
82368,note_off,,192,0,1,,,,,,0,62,64
82368,note_on,,0,0,1,,,,,,0,62,92
82464,note_on,,0,0,1,,,,,,0,64,92
82464,note_off,,96,0,2,,,,,,0,50,64
82464,note_off,,96,0,1,,,,,,0,62,64
82464,note_on,,0,0,2,,,,,,0,52,92
82560,note_off,,96,0,2,,,,,,0,52,64
82560,note_on,,0,0,1,,,,,,0,65,92
82560,note_on,,0,0,2,,,,,,0,53,92
82560,note_off,,96,0,1,,,,,,0,64,64
82752,note_on,,0,0,2,,,,,,0,53,92
82752,note_on,,0,0,1,,,,,,0,65,92
82752,note_off,,192,0,1,,,,,,0,65,64
82752,note_off,,192,0,2,,,,,,0,53,64
82848,note_off,,96,0,2,,,,,,0,53,64
82848,note_off,,96,0,1,,,,,,0,65,64
82848,note_on,,0,0,1,,,,,,0,67,92
82848,note_on,,0,0,2,,,,,,0,55,92
82944,note_off,,96,0,2,,,,,,0,55,64
82944,note_on,,0,0,2,,,,,,0,57,82
82944,note_off,,96,0,1,,,,,,0,67,64
82944,note_on,,0,0,1,,,,,,0,69,92
83040,note_off,,96,0,2,,,,,,0,57,64
83040,note_on,,0,0,2,,,,,,0,81,82
83040,note_off,,96,0,1,,,,,,0,69,64
83136,note_on,,10560,0,3,,,,,,0,57,102
83136,note_on,,0,0,2,,,,,,0,76,82
83136,note_off,,96,0,2,,,,,,0,81,64
83232,note_on,,0,0,2,,,,,,0,81,82
83232,note_off,,96,0,2,,,,,,0,76,64
83328,note_off,,192,0,3,,,,,,0,57,64
83328,note_on,,0,0,3,,,,,,0,57,102
83328,note_off,,96,0,2,,,,,,0,81,64
83328,note_on,,0,0,2,,,,,,0,73,82
83424,note_off,,96,0,2,,,,,,0,73,64
83424,note_on,,0,0,2,,,,,,0,81,82
83520,note_off,,96,0,2,,,,,,0,81,64
83520,note_on,,0,0,2,,,,,,0,76,82
83520,note_on,,0,0,3,,,,,,0,57,102
83520,note_off,,192,0,3,,,,,,0,57,64
83616,note_on,,0,0,2,,,,,,0,81,82
83616,note_off,,96,0,2,,,,,,0,76,64
83712,note_off,,96,0,2,,,,,,0,81,64
83712,note_off,,192,0,3,,,,,,0,57,64
83712,note_on,,0,0,3,,,,,,0,57,102
83712,note_on,,0,0,2,,,,,,0,73,82
83808,note_on,,0,0,2,,,,,,0,81,82
83808,note_off,,96,0,2,,,,,,0,73,64
83904,note_on,,0,0,2,,,,,,0,76,82
83904,note_on,,0,0,3,,,,,,0,57,102
83904,note_off,,192,0,3,,,,,,0,57,64
83904,note_off,,96,0,2,,,,,,0,81,64
84000,note_off,,96,0,2,,,,,,0,76,64
84000,note_on,,0,0,2,,,,,,0,81,82
84096,note_off,,192,0,3,,,,,,0,57,64
84096,note_on,,0,0,3,,,,,,0,57,102
84096,note_off,,96,0,2,,,,,,0,81,64
84096,note_on,,0,0,2,,,,,,0,73,82
84192,note_off,,96,0,2,,,,,,0,73,64
84192,note_on,,0,0,2,,,,,,0,81,82
84288,note_off,,96,0,2,,,,,,0,81,64
84288,note_on,,0,0,2,,,,,,0,76,82
84288,note_off,,192,0,3,,,,,,0,57,64
84288,note_on,,0,0,3,,,,,,0,57,102
84384,note_on,,0,0,2,,,,,,0,81,82
84384,note_off,,96,0,2,,,,,,0,76,64
84480,note_on,,0,0,3,,,,,,0,62,102
84480,note_on,,0,0,2,,,,,,0,74,82
84480,note_off,,96,0,2,,,,,,0,81,64
84480,note_off,,192,0,3,,,,,,0,57,64
84576,note_on,,0,0,2,,,,,,0,81,82
84576,note_off,,96,0,2,,,,,,0,74,64
84672,note_off,,192,0,3,,,,,,0,62,64
84672,note_on,,0,0,3,,,,,,0,62,102
84672,note_on,,0,0,2,,,,,,0,77,82
84672,note_off,,96,0,2,,,,,,0,81,64
84672,note_on,,1632,0,1,,,,,,0,81,92
84768,note_on,,0,0,2,,,,,,0,81,82
84768,note_off,,96,0,2,,,,,,0,77,64
84864,note_off,,96,0,2,,,,,,0,81,64
84864,note_on,,0,0,2,,,,,,0,74,82
84864,note_on,,0,0,1,,,,,,0,81,92
84864,note_off,,192,0,1,,,,,,0,81,64
84864,note_off,,192,0,3,,,,,,0,62,64
84864,note_on,,0,0,3,,,,,,0,62,102
84960,note_off,,96,0,2,,,,,,0,74,64
84960,note_off,,96,0,1,,,,,,0,81,64
84960,note_on,,0,0,1,,,,,,0,82,92
84960,note_on,,0,0,2,,,,,,0,81,82
85056,note_on,,0,0,2,,,,,,0,77,82
85056,note_off,,96,0,2,,,,,,0,81,64
85056,note_off,,96,0,1,,,,,,0,82,64
85056,note_on,,0,0,1,,,,,,0,81,92
85056,note_off,,192,0,3,,,,,,0,62,64
85056,note_on,,0,0,3,,,,,,0,62,102
85152,note_off,,96,0,2,,,,,,0,77,64
85152,note_on,,0,0,2,,,,,,0,81,82
85248,note_off,,192,0,3,,,,,,0,62,64
85248,note_on,,0,0,3,,,,,,0,62,102
85248,note_on,,0,0,2,,,,,,0,74,82
85248,note_off,,192,0,1,,,,,,0,81,64
85248,note_off,,96,0,2,,,,,,0,81,64
85344,note_on,,0,0,2,,,,,,0,81,82
85344,note_off,,96,0,2,,,,,,0,74,64
85440,note_off,,192,0,3,,,,,,0,62,64
85440,note_on,,0,0,3,,,,,,0,62,102
85440,note_on,,0,0,2,,,,,,0,77,82
85440,note_off,,96,0,2,,,,,,0,81,64
85440,note_on,,192,0,1,,,,,,0,77,92
85536,note_off,,96,0,2,,,,,,0,77,64
85536,note_on,,0,0,2,,,,,,0,81,82
85632,note_off,,192,0,1,,,,,,0,77,64
85632,note_on,,0,0,1,,,,,,0,77,92
85632,note_on,,0,0,3,,,,,,0,62,102
85632,note_off,,192,0,3,,,,,,0,62,64
85632,note_on,,0,0,2,,,,,,0,74,82
85632,note_off,,96,0,2,,,,,,0,81,64
85728,note_on,,0,0,2,,,,,,0,81,82
85728,note_on,,0,0,1,,,,,,0,79,92
85728,note_off,,96,0,1,,,,,,0,77,64
85728,note_off,,96,0,2,,,,,,0,74,64
85824,note_on,,0,0,2,,,,,,0,77,82
85824,note_on,,0,0,1,,,,,,0,77,92
85824,note_off,,96,0,1,,,,,,0,79,64
85824,note_on,,0,0,3,,,,,,0,62,102
85824,note_off,,96,0,2,,,,,,0,81,64
85824,note_off,,192,0,3,,,,,,0,62,64
85920,note_off,,96,0,2,,,,,,0,77,64
85920,note_on,,0,0,2,,,,,,0,81,82
86016,note_on,,0,0,3,,,,,,0,58,102
86016,note_off,,192,0,3,,,,,,0,62,64
86016,note_on,,0,0,2,,,,,,0,74,82
86016,note_off,,96,0,2,,,,,,0,81,64
86016,note_off,,192,0,1,,,,,,0,77,64
86112,note_off,,96,0,2,,,,,,0,74,64
86112,note_on,,0,0,2,,,,,,0,82,82
86208,note_on,,0,0,3,,,,,,0,58,102
86208,note_off,,192,0,3,,,,,,0,58,64
86208,note_on,,192,0,1,,,,,,0,74,92
86208,note_on,,0,0,2,,,,,,0,77,82
86208,note_off,,96,0,2,,,,,,0,82,64
86304,note_on,,0,0,2,,,,,,0,82,82
86304,note_off,,96,0,2,,,,,,0,77,64
86400,note_off,,192,0,3,,,,,,0,58,64
86400,note_on,,0,0,3,,,,,,0,58,102
86400,note_on,,0,0,1,,,,,,0,74,92
86400,note_off,,96,0,2,,,,,,0,82,64
86400,note_on,,0,0,2,,,,,,0,74,82
86400,note_off,,192,0,1,,,,,,0,74,64
86496,note_off,,96,0,2,,,,,,0,74,64
86496,note_off,,96,0,1,,,,,,0,74,64
86496,note_on,,0,0,2,,,,,,0,82,82
86496,note_on,,0,0,1,,,,,,0,76,92
86592,note_off,,96,0,2,,,,,,0,82,64
86592,note_on,,0,0,3,,,,,,0,58,102
86592,note_off,,192,0,3,,,,,,0,58,64
86592,note_off,,96,0,1,,,,,,0,76,64
86592,note_on,,0,0,2,,,,,,0,77,82
86592,note_on,,0,0,1,,,,,,0,74,92
86688,note_off,,96,0,2,,,,,,0,77,64
86688,note_on,,0,0,2,,,,,,0,82,82
86784,note_off,,192,0,1,,,,,,0,74,64
86784,note_off,,96,0,2,,,,,,0,82,64
86784,note_on,,0,0,2,,,,,,0,74,82
86784,note_off,,192,0,3,,,,,,0,58,64
86784,note_on,,0,0,3,,,,,,0,58,102
86880,note_on,,0,0,2,,,,,,0,82,82
86880,note_off,,96,0,2,,,,,,0,74,64
86976,note_off,,192,0,3,,,,,,0,58,64
86976,note_on,,0,0,2,,,,,,0,77,82
86976,note_off,,96,0,2,,,,,,0,82,64
86976,note_on,,192,0,1,,,,,,0,70,92
86976,note_on,,0,0,3,,,,,,0,58,102
87072,note_on,,0,0,2,,,,,,0,82,82
87072,note_off,,96,0,2,,,,,,0,77,64
87168,note_on,,0,0,2,,,,,,0,74,82
87168,note_off,,96,0,2,,,,,,0,82,64
87168,note_off,,192,0,1,,,,,,0,70,64
87168,note_on,,0,0,1,,,,,,0,70,92
87168,note_off,,192,0,3,,,,,,0,58,64
87168,note_on,,0,0,3,,,,,,0,58,102
87264,note_off,,96,0,2,,,,,,0,74,64
87264,note_on,,0,0,2,,,,,,0,82,82
87264,note_off,,96,0,1,,,,,,0,70,64
87264,note_on,,0,0,1,,,,,,0,72,92
87360,note_on,,0,0,3,,,,,,0,58,102
87360,note_off,,192,0,3,,,,,,0,58,64
87360,note_on,,0,0,2,,,,,,0,77,82
87360,note_off,,96,0,2,,,,,,0,82,64
87360,note_on,,0,0,1,,,,,,0,70,92
87360,note_off,,96,0,1,,,,,,0,72,64
87456,note_on,,0,0,2,,,,,,0,82,82
87456,note_off,,96,0,2,,,,,,0,77,64
87552,note_on,,0,0,3,,,,,,0,60,102
87552,note_off,,192,0,1,,,,,,0,70,64
87552,note_off,,96,0,2,,,,,,0,82,64
87552,note_on,,0,0,2,,,,,,0,72,82
87552,note_off,,192,0,3,,,,,,0,58,64
87648,note_off,,96,0,2,,,,,,0,72,64
87648,note_on,,0,0,2,,,,,,0,82,82
87744,note_off,,96,0,2,,,,,,0,82,64
87744,note_on,,0,0,2,,,,,,0,76,82
87744,note_off,,192,0,3,,,,,,0,60,64
87744,note_on,,0,0,3,,,,,,0,60,102
87744,note_on,,192,0,1,,,,,,0,79,92
87840,note_off,,96,0,2,,,,,,0,76,64
87840,note_on,,0,0,2,,,,,,0,82,82
87936,note_off,,96,0,2,,,,,,0,82,64
87936,note_on,,0,0,1,,,,,,0,79,92
87936,note_on,,0,0,3,,,,,,0,60,102
87936,note_off,,192,0,3,,,,,,0,60,64
87936,note_off,,192,0,1,,,,,,0,79,64
87936,note_on,,0,0,2,,,,,,0,72,82
88032,note_off,,96,0,1,,,,,,0,79,64
88032,note_off,,96,0,2,,,,,,0,72,64
88032,note_on,,0,0,2,,,,,,0,82,82
88032,note_on,,0,0,1,,,,,,0,81,92
88128,note_on,,0,0,3,,,,,,0,60,102
88128,note_off,,192,0,3,,,,,,0,60,64
88128,note_off,,96,0,2,,,,,,0,82,64
88128,note_on,,0,0,2,,,,,,0,76,82
88128,note_on,,0,0,1,,,,,,0,79,92
88128,note_off,,96,0,1,,,,,,0,81,64
88224,note_on,,0,0,2,,,,,,0,82,82
88224,note_off,,96,0,2,,,,,,0,76,64
88320,note_off,,192,0,1,,,,,,0,79,64
88320,note_on,,0,0,3,,,,,,0,60,102
88320,note_off,,192,0,3,,,,,,0,60,64
88320,note_on,,0,0,2,,,,,,0,72,82
88320,note_off,,96,0,2,,,,,,0,82,64
88416,note_off,,96,0,2,,,,,,0,72,64
88416,note_on,,0,0,2,,,,,,0,82,82
88512,note_on,,192,0,1,,,,,,0,76,92
88512,note_off,,192,0,3,,,,,,0,60,64
88512,note_on,,0,0,3,,,,,,0,60,102
88512,note_on,,0,0,2,,,,,,0,76,82
88512,note_off,,96,0,2,,,,,,0,82,64
88608,note_off,,96,0,2,,,,,,0,76,64
88608,note_on,,0,0,2,,,,,,0,82,82
88704,note_off,,96,0,2,,,,,,0,82,64
88704,note_on,,0,0,2,,,,,,0,72,82
88704,note_off,,192,0,1,,,,,,0,76,64
88704,note_on,,0,0,1,,,,,,0,76,92
88704,note_off,,192,0,3,,,,,,0,60,64
88704,note_on,,0,0,3,,,,,,0,60,102
88800,note_off,,96,0,1,,,,,,0,76,64
88800,note_on,,0,0,1,,,,,,0,77,92
88800,note_off,,96,0,2,,,,,,0,72,64
88800,note_on,,0,0,2,,,,,,0,82,82
88896,note_off,,96,0,1,,,,,,0,77,64
88896,note_on,,0,0,3,,,,,,0,60,102
88896,note_on,,0,0,1,,,,,,0,76,92
88896,note_off,,96,0,2,,,,,,0,82,64
88896,note_on,,0,0,2,,,,,,0,76,82
88896,note_off,,192,0,3,,,,,,0,60,64
88992,note_off,,96,0,2,,,,,,0,76,64
88992,note_on,,0,0,2,,,,,,0,82,82
89088,note_on,,0,0,2,,,,,,0,72,82
89088,note_on,,0,0,3,,,,,,0,53,102
89088,note_off,,192,0,1,,,,,,0,76,64
89088,note_off,,192,0,3,,,,,,0,60,64
89088,note_off,,96,0,2,,,,,,0,82,64
89184,note_off,,96,0,2,,,,,,0,72,64
89184,note_on,,0,0,2,,,,,,0,81,82
89280,note_off,,192,0,3,,,,,,0,53,64
89280,note_off,,96,0,2,,,,,,0,81,64
89280,note_on,,0,0,2,,,,,,0,77,82
89280,note_on,,0,0,3,,,,,,0,53,102
89280,note_on,,192,0,1,,,,,,0,72,92
89376,note_on,,0,0,2,,,,,,0,81,82
89376,note_off,,96,0,2,,,,,,0,77,64
89472,note_off,,96,0,2,,,,,,0,81,64
89472,note_off,,192,0,1,,,,,,0,72,64
89472,note_off,,192,0,3,,,,,,0,53,64
89472,note_on,,0,0,3,,,,,,0,53,102
89472,note_on,,0,0,1,,,,,,0,72,92
89472,note_on,,0,0,2,,,,,,0,72,82
89568,note_on,,0,0,2,,,,,,0,81,82
89568,note_on,,0,0,1,,,,,,0,74,92
89568,note_off,,96,0,2,,,,,,0,72,64
89568,note_off,,96,0,1,,,,,,0,72,64
89664,note_off,,96,0,1,,,,,,0,74,64
89664,note_on,,0,0,2,,,,,,0,77,82
89664,note_off,,96,0,2,,,,,,0,81,64
89664,note_off,,192,0,3,,,,,,0,53,64
89664,note_on,,0,0,1,,,,,,0,72,92
89664,note_on,,0,0,3,,,,,,0,53,102
89760,note_on,,0,0,2,,,,,,0,81,82
89760,note_off,,96,0,2,,,,,,0,77,64
89856,note_off,,192,0,3,,,,,,0,53,64
89856,note_on,,0,0,3,,,,,,0,53,102
89856,note_on,,0,0,2,,,,,,0,72,82
89856,note_off,,96,0,2,,,,,,0,81,64
89856,note_off,,192,0,1,,,,,,0,72,64
89952,note_on,,0,0,2,,,,,,0,81,82
89952,note_off,,96,0,2,,,,,,0,72,64
90048,note_on,,0,0,2,,,,,,0,77,82
90048,note_off,,96,0,2,,,,,,0,81,64
90048,note_off,,192,0,3,,,,,,0,53,64
90048,note_on,,192,0,1,,,,,,0,69,92
90048,note_on,,0,0,3,,,,,,0,53,102
90144,note_off,,96,0,2,,,,,,0,77,64
90144,note_on,,0,0,2,,,,,,0,81,82
90240,note_off,,192,0,1,,,,,,0,69,64
90240,note_on,,0,0,3,,,,,,0,53,102
90240,note_off,,96,0,2,,,,,,0,81,64
90240,note_on,,0,0,2,,,,,,0,72,82
90240,note_off,,192,0,3,,,,,,0,53,64
90240,note_on,,0,0,1,,,,,,0,69,92
90336,note_off,,96,0,1,,,,,,0,69,64
90336,note_on,,0,0,1,,,,,,0,70,92
90336,note_on,,0,0,2,,,,,,0,81,82
90336,note_off,,96,0,2,,,,,,0,72,64
90432,note_off,,96,0,2,,,,,,0,81,64
90432,note_on,,0,0,3,,,,,,0,53,102
90432,note_on,,0,0,1,,,,,,0,69,92
90432,note_off,,96,0,1,,,,,,0,70,64
90432,note_off,,192,0,3,,,,,,0,53,64
90432,note_on,,0,0,2,,,,,,0,77,82
90528,note_on,,0,0,2,,,,,,0,81,82
90528,note_off,,96,0,2,,,,,,0,77,64
90624,note_off,,96,0,2,,,,,,0,81,64
90624,note_on,,0,0,2,,,,,,0,70,82
90624,note_off,,192,0,3,,,,,,0,53,64
90624,note_on,,0,0,3,,,,,,0,62,102
90624,note_off,,192,0,1,,,,,,0,69,64
90720,note_off,,96,0,2,,,,,,0,70,64
90720,note_on,,0,0,2,,,,,,0,81,82
90816,note_on,,0,0,2,,,,,,0,77,82
90816,note_off,,96,0,2,,,,,,0,81,64
90816,note_off,,192,0,3,,,,,,0,62,64
90816,note_on,,0,0,3,,,,,,0,62,102
90816,note_on,,192,0,1,,,,,,0,81,92
90912,note_on,,0,0,2,,,,,,0,81,82
90912,note_off,,96,0,2,,,,,,0,77,64
91008,note_off,,192,0,1,,,,,,0,81,64
91008,note_on,,0,0,1,,,,,,0,81,92
91008,note_on,,0,0,2,,,,,,0,70,82
91008,note_off,,96,0,2,,,,,,0,81,64
91008,note_on,,0,0,3,,,,,,0,62,102
91008,note_off,,192,0,3,,,,,,0,62,64
91104,note_on,,0,0,2,,,,,,0,81,82
91104,note_off,,96,0,2,,,,,,0,70,64
91104,note_on,,0,0,1,,,,,,0,82,92
91104,note_off,,96,0,1,,,,,,0,81,64
91200,note_on,,0,0,2,,,,,,0,77,82
91200,note_off,,96,0,2,,,,,,0,81,64
91200,note_on,,0,0,3,,,,,,0,62,102
91200,note_off,,96,0,1,,,,,,0,82,64
91200,note_on,,0,0,1,,,,,,0,81,92
91200,note_off,,192,0,3,,,,,,0,62,64
91296,note_off,,96,0,2,,,,,,0,77,64
91296,note_on,,0,0,2,,,,,,0,81,82
91392,note_off,,192,0,3,,,,,,0,62,64
91392,note_on,,0,0,3,,,,,,0,62,102
91392,note_off,,192,0,1,,,,,,0,81,64
91392,note_off,,96,0,2,,,,,,0,81,64
91392,note_on,,0,0,2,,,,,,0,70,82
91488,note_on,,0,0,2,,,,,,0,81,82
91488,note_off,,96,0,2,,,,,,0,70,64
91584,note_on,,0,0,2,,,,,,0,77,82
91584,note_off,,96,0,2,,,,,,0,81,64
91584,note_on,,192,0,1,,,,,,0,77,92
91584,note_on,,0,0,3,,,,,,0,62,102
91584,note_off,,192,0,3,,,,,,0,62,64
91680,note_on,,0,0,2,,,,,,0,81,82
91680,note_off,,96,0,2,,,,,,0,77,64
91776,note_off,,192,0,3,,,,,,0,62,64
91776,note_on,,0,0,3,,,,,,0,62,102
91776,note_on,,0,0,2,,,,,,0,70,82
91776,note_off,,192,0,1,,,,,,0,77,64
91776,note_on,,0,0,1,,,,,,0,77,92
91776,note_off,,96,0,2,,,,,,0,81,64
91872,note_off,,96,0,2,,,,,,0,70,64
91872,note_on,,0,0,2,,,,,,0,81,82
91872,note_off,,96,0,1,,,,,,0,77,64
91872,note_on,,0,0,1,,,,,,0,79,92
91968,note_off,,96,0,2,,,,,,0,81,64
91968,note_off,,96,0,1,,,,,,0,79,64
91968,note_on,,0,0,1,,,,,,0,77,92
91968,note_on,,0,0,2,,,,,,0,77,82
91968,note_off,,192,0,3,,,,,,0,62,64
91968,note_on,,0,0,3,,,,,,0,62,102
92064,note_on,,0,0,2,,,,,,0,81,82
92064,note_off,,96,0,2,,,,,,0,77,64
92160,note_on,,0,0,3,,,,,,0,55,102
92160,note_on,,0,0,2,,,,,,0,70,82
92160,note_off,,96,0,2,,,,,,0,81,64
92160,note_off,,192,0,3,,,,,,0,62,64
92160,note_off,,192,0,1,,,,,,0,77,64
92256,note_on,,0,0,2,,,,,,0,79,82
92256,note_off,,96,0,2,,,,,,0,70,64
92352,note_off,,96,0,2,,,,,,0,79,64
92352,note_on,,0,0,2,,,,,,0,74,82
92352,note_off,,192,0,3,,,,,,0,55,64
92352,note_on,,0,0,3,,,,,,0,55,102
92352,note_on,,192,0,1,,,,,,0,74,92
92448,note_off,,96,0,2,,,,,,0,74,64
92448,note_on,,0,0,2,,,,,,0,79,82
92544,note_on,,0,0,3,,,,,,0,55,102
92544,note_off,,192,0,3,,,,,,0,55,64
92544,note_off,,96,0,2,,,,,,0,79,64
92544,note_off,,192,0,1,,,,,,0,74,64
92544,note_on,,0,0,1,,,,,,0,74,92
92544,note_on,,0,0,2,,,,,,0,70,82
92640,note_on,,0,0,2,,,,,,0,79,82
92640,note_off,,96,0,1,,,,,,0,74,64
92640,note_on,,0,0,1,,,,,,0,76,92
92640,note_off,,96,0,2,,,,,,0,70,64
92736,note_on,,0,0,3,,,,,,0,55,102
92736,note_on,,0,0,1,,,,,,0,74,92
92736,note_off,,96,0,1,,,,,,0,76,64
92736,note_off,,192,0,3,,,,,,0,55,64
92736,note_off,,96,0,2,,,,,,0,79,64
92736,note_on,,0,0,2,,,,,,0,74,82
92832,note_off,,96,0,2,,,,,,0,74,64
92832,note_on,,0,0,2,,,,,,0,79,82
92928,note_on,,0,0,3,,,,,,0,55,102
92928,note_on,,0,0,2,,,,,,0,70,82
92928,note_off,,192,0,3,,,,,,0,55,64
92928,note_off,,192,0,1,,,,,,0,74,64
92928,note_off,,96,0,2,,,,,,0,79,64
93024,note_on,,0,0,2,,,,,,0,79,82
93024,note_off,,96,0,2,,,,,,0,70,64
93120,note_on,,0,0,2,,,,,,0,74,82
93120,note_off,,192,0,3,,,,,,0,55,64
93120,note_on,,0,0,3,,,,,,0,55,102
93120,note_off,,96,0,2,,,,,,0,79,64
93120,note_on,,192,0,1,,,,,,0,70,92
93216,note_on,,0,0,2,,,,,,0,79,82
93216,note_off,,96,0,2,,,,,,0,74,64
93312,note_off,,192,0,3,,,,,,0,55,64
93312,note_on,,0,0,3,,,,,,0,55,102
93312,note_on,,0,0,1,,,,,,0,70,92
93312,note_off,,192,0,1,,,,,,0,70,64
93312,note_off,,96,0,2,,,,,,0,79,64
93312,note_on,,0,0,2,,,,,,0,70,82
93408,note_on,,0,0,1,,,,,,0,72,92
93408,note_off,,96,0,1,,,,,,0,70,64
93408,note_off,,96,0,2,,,,,,0,70,64
93408,note_on,,0,0,2,,,,,,0,79,82
93504,note_on,,0,0,1,,,,,,0,70,92
93504,note_off,,96,0,2,,,,,,0,79,64
93504,note_on,,0,0,3,,,,,,0,55,102
93504,note_off,,192,0,3,,,,,,0,55,64
93504,note_on,,0,0,2,,,,,,0,74,82
93504,note_off,,96,0,1,,,,,,0,72,64
93600,note_off,,96,0,2,,,,,,0,74,64
93600,note_on,,0,0,2,,,,,,0,79,82
93696,note_off,,96,0,2,,,,,,0,79,64
93696,note_off,,192,0,3,,,,,,0,55,64
93696,note_on,,0,0,3,,,,,,0,57,102
93696,note_on,,0,0,2,,,,,,0,73,82
93696,note_on,,0,0,1,,,,,,0,69,92
93696,note_off,,192,0,1,,,,,,0,70,64
93888,note_off,,192,0,3,,,,,,0,57,64
93888,note_on,,0,0,3,,,,,,0,45,102
93888,note_off,,192,0,2,,,,,,0,73,64
93888,note_on,,0,0,2,,,,,,0,69,82
94080,note_on,,0,0,3,,,,,,0,49,102
94080,note_off,,192,0,3,,,,,,0,45,64
94080,note_off,,192,0,2,,,,,,0,69,64
94080,note_off,,384,0,1,,,,,,0,69,64
94272,note_off,,192,0,3,,,,,,0,49,64
94272,note_on,,0,0,3,,,,,,0,45,102
94272,note_on,,0,0,2,,,,,,0,57,92
94272,note_on,,0,0,2,,,,,,0,61,92
94272,note_on,,192,0,2,,,,,,0,64,92
94272,note_on,,192,0,1,,,,,,0,69,92
94272,note_on,,0,0,1,,,,,,0,76,92
94464,note_on,,0,0,3,,,,,,0,52,102
94464,note_off,,0,0,1,,,,,,0,69,64
94464,note_off,,192,0,2,,,,,,0,57,64
94464,note_off,,0,0,2,,,,,,0,64,64
94464,note_on,,0,0,2,,,,,,0,64,92
94464,note_on,,0,0,2,,,,,,0,56,92
94464,note_on,,0,0,2,,,,,,0,62,92
94464,note_off,,192,0,3,,,,,,0,45,64
94464,note_off,,192,0,1,,,,,,0,76,64
94464,note_off,,0,0,2,,,,,,0,61,64
94464,note_on,,0,0,1,,,,,,0,76,92
94464,note_on,,0,0,1,,,,,,0,71,92
94656,note_on,,0,0,1,,,,,,0,74,92
94656,note_off,,192,0,1,,,,,,0,76,64
94848,note_on,,0,0,1,,,,,,0,80,92
94848,note_off,,192,0,1,,,,,,0,74,64
95040,note_on,,0,0,1,,,,,,0,74,92
95040,note_off,,192,0,1,,,,,,0,80,64
95232,note_off,,192,0,1,,,,,,0,74,64
95232,note_on,,0,0,1,,,,,,0,83,92
95424,note_off,,192,0,1,,,,,,0,83,64
95424,note_on,,0,0,1,,,,,,0,74,92
95616,note_off,,192,0,1,,,,,,0,74,64
95616,note_on,,0,0,1,,,,,,0,77,92
95808,note_on,,0,0,1,,,,,,0,74,92
95808,note_off,,192,0,1,,,,,,0,77,64
96000,note_on,,0,0,1,,,,,,0,76,92
96000,note_off,,192,0,1,,,,,,0,74,64
96192,note_off,,192,0,1,,,,,,0,76,64
96192,note_on,,0,0,1,,,,,,0,74,92
96384,note_off,,192,0,1,,,,,,0,74,64
96384,note_on,,0,0,1,,,,,,0,83,92
96576,note_on,,0,0,1,,,,,,0,74,92
96576,note_off,,192,0,1,,,,,,0,83,64
96768,note_off,,192,0,1,,,,,,0,74,64
96768,note_on,,0,0,1,,,,,,0,76,92
96960,note_off,,192,0,1,,,,,,0,76,64
96960,note_on,,0,0,1,,,,,,0,74,92
97152,note_off,,192,0,1,,,,,,0,74,64
97152,note_on,,0,0,1,,,,,,0,83,92
97344,note_off,,192,0,1,,,,,,0,83,64
97344,note_on,,0,0,1,,,,,,0,74,92
97536,note_off,,192,0,1,,,,,,0,74,64
97536,note_on,,0,0,1,,,,,,0,80,92
97728,note_off,,192,0,1,,,,,,0,80,64
97728,note_on,,0,0,1,,,,,,0,76,92
97920,note_off,,0,0,2,,,,,,0,56,64
97920,note_off,,3456,0,2,,,,,,0,62,64
97920,note_off,,3456,0,3,,,,,,0,52,64
97920,note_on,,0,0,1,,,,,,0,81,92
97920,note_off,,0,0,1,,,,,,0,71,64
97920,note_off,,192,0,1,,,,,,0,76,64
97920,note_off,,0,0,2,,,,,,0,64,64
98112,note_on,,0,0,2,,,,,,0,64,92
98112,note_on,,192,0,3,,,,,,0,57,102
98112,note_on,,0,0,2,,,,,,0,60,92
98112,note_on,,192,0,2,,,,,,0,57,92
98112,note_off,,192,0,1,,,,,,0,81,64
98112,note_on,,0,0,1,,,,,,0,69,92
98112,note_on,,0,0,1,,,,,,0,72,92
98112,note_on,,0,0,1,,,,,,0,76,92
98304,note_on,,0,0,2,,,,,,0,59,92
98304,note_on,,0,0,2,,,,,,0,62,92
98304,note_on,,0,0,2,,,,,,0,65,92
98304,note_off,,0,0,2,,,,,,0,57,64
98304,note_off,,0,0,2,,,,,,0,60,64
98304,note_off,,192,0,2,,,,,,0,64,64
98304,note_on,,0,0,3,,,,,,0,50,102
98304,note_on,,0,0,1,,,,,,0,77,92
98304,note_on,,0,0,1,,,,,,0,74,92
98304,note_on,,0,0,1,,,,,,0,71,92
98304,note_off,,192,0,3,,,,,,0,57,64
98304,note_off,,0,0,1,,,,,,0,69,64
98304,note_off,,0,0,1,,,,,,0,72,64
98304,note_off,,192,0,1,,,,,,0,76,64
98496,note_off,,192,0,1,,,,,,0,77,64
98496,note_on,,0,0,1,,,,,,0,81,92
98688,note_off,,384,0,3,,,,,,0,50,64
98688,note_off,,384,0,2,,,,,,0,59,64
98688,note_off,,0,0,2,,,,,,0,62,64
98688,note_off,,0,0,2,,,,,,0,65,64
98688,note_on,,0,0,2,,,,,,0,59,92
98688,note_on,,0,0,2,,,,,,0,64,92
98688,note_on,,0,0,3,,,,,,0,52,102
98688,note_on,,0,0,1,,,,,,0,71,92
98688,note_off,,192,0,1,,,,,,0,81,64
98688,note_off,,0,0,1,,,,,,0,74,64
98688,note_off,,0,0,1,,,,,,0,71,64
98688,note_on,,0,0,1,,,,,,0,76,92
98688,note_on,,0,0,1,,,,,,0,74,92
98880,note_off,,192,0,1,,,,,,0,76,64
98880,note_on,,0,0,1,,,,,,0,80,92
99072,note_on,,0,0,2,,,,,,0,64,92
99072,note_on,,0,0,3,,,,,,0,45,102
99072,note_on,,0,0,2,,,,,,0,57,92
99072,note_on,,0,0,2,,,,,,0,60,92
99072,note_off,,192,0,1,,,,,,0,80,64
99072,note_off,,384,0,3,,,,,,0,52,64
99072,note_off,,0,0,1,,,,,,0,71,64
99072,note_on,,0,0,1,,,,,,0,69,92
99072,note_off,,384,0,2,,,,,,0,64,64
99072,note_off,,0,0,2,,,,,,0,59,64
99072,note_on,,0,0,2,,,,,,0,52,92
99072,note_off,,0,0,1,,,,,,0,74,64
99360,note_on,,288,0,1,,,,,,0,71,92
99456,note_off,,0,0,2,,,,,,0,52,64
99456,note_off,,0,0,2,,,,,,0,57,64
99456,note_off,,0,0,2,,,,,,0,60,64
99456,note_off,,384,0,2,,,,,,0,64,64
99456,note_off,,384,0,3,,,,,,0,45,64
99456,note_off,,96,0,1,,,,,,0,71,64
99456,note_off,,0,0,1,,,,,,0,69,64
99456,note_on,,0,0,1,,,,,,0,72,92
99456,note_on,,0,0,1,,,,,,0,69,92
99744,note_on,,0,0,1,,,,,,0,74,92
99744,note_off,,288,0,1,,,,,,0,69,64
99744,note_off,,0,0,1,,,,,,0,72,64
99744,note_on,,0,0,1,,,,,,0,71,92
99840,note_off,,0,0,1,,,,,,0,71,64
99840,note_on,,0,0,1,,,,,,0,72,92
99840,note_on,,0,0,1,,,,,,0,76,92
99840,note_on,,384,0,2,,,,,,0,69,82
99840,note_off,,96,0,1,,,,,,0,74,64
100032,note_off,,192,0,1,,,,,,0,76,64
100032,note_on,,0,0,1,,,,,,0,69,92
100224,note_off,,192,0,1,,,,,,0,69,64
100224,note_off,,0,0,1,,,,,,0,72,64
100224,note_on,,0,0,1,,,,,,0,69,92
100224,note_off,,384,0,2,,,,,,0,69,64
100416,note_off,,192,0,1,,,,,,0,69,64
100416,note_on,,0,0,1,,,,,,0,72,92
100416,note_on,,0,0,1,,,,,,0,76,92
100416,note_on,,192,0,2,,,,,,0,69,82
100608,note_off,,192,0,2,,,,,,0,69,64
100608,note_off,,192,0,1,,,,,,0,76,64
100608,note_on,,0,0,1,,,,,,0,74,92
100608,note_off,,0,0,1,,,,,,0,72,64
100608,note_on,,0,0,1,,,,,,0,77,92
100608,note_on,,0,0,2,,,,,,0,62,82
100800,note_off,,192,0,1,,,,,,0,77,64
100800,note_off,,0,0,1,,,,,,0,74,64
100800,note_on,,0,0,1,,,,,,0,74,92
100800,note_on,,0,0,1,,,,,,0,77,92
100992,note_on,,0,0,1,,,,,,0,77,92
100992,note_on,,0,0,1,,,,,,0,74,92
100992,note_off,,0,0,1,,,,,,0,74,64
100992,note_off,,384,0,2,,,,,,0,62,64
100992,note_off,,192,0,1,,,,,,0,77,64
101184,note_off,,192,0,1,,,,,,0,77,64
101184,note_off,,0,0,1,,,,,,0,74,64
101184,note_on,,0,0,1,,,,,,0,72,92
101184,note_on,,0,0,1,,,,,,0,76,92
101184,note_on,,192,0,2,,,,,,0,62,82
101280,note_on,,0,0,1,,,,,,0,74,92
101280,note_off,,96,0,1,,,,,,0,76,64
101280,note_off,,0,0,1,,,,,,0,72,64
101280,note_on,,0,0,1,,,,,,0,71,92
101376,note_off,,192,0,2,,,,,,0,62,64
101376,note_on,,0,0,2,,,,,,0,69,82
101376,note_on,,0,0,1,,,,,,0,76,92
101376,note_on,,0,0,1,,,,,,0,72,92
101376,note_off,,0,0,1,,,,,,0,71,64
101376,note_off,,96,0,1,,,,,,0,74,64
101568,note_on,,0,0,1,,,,,,0,69,92
101568,note_off,,192,0,1,,,,,,0,76,64
101760,note_off,,192,0,1,,,,,,0,69,64
101760,note_on,,0,0,1,,,,,,0,69,92
101760,note_off,,0,0,1,,,,,,0,72,64
101760,note_off,,384,0,2,,,,,,0,69,64
101952,note_on,,192,0,2,,,,,,0,69,82
101952,note_on,,0,0,1,,,,,,0,76,92
101952,note_off,,192,0,1,,,,,,0,69,64
101952,note_on,,0,0,1,,,,,,0,72,92
102144,note_off,,192,0,1,,,,,,0,76,64
102144,note_on,,0,0,2,,,,,,0,62,82
102144,note_off,,192,0,2,,,,,,0,69,64
102144,note_on,,0,0,1,,,,,,0,77,92
102144,note_off,,0,0,1,,,,,,0,72,64
102144,note_on,,0,0,1,,,,,,0,74,92
102336,note_off,,192,0,1,,,,,,0,74,64
102336,note_off,,0,0,1,,,,,,0,77,64
102336,note_on,,0,0,1,,,,,,0,77,92
102336,note_on,,0,0,1,,,,,,0,74,92
102528,note_off,,0,0,1,,,,,,0,77,64
102528,note_off,,384,0,2,,,,,,0,62,64
102528,note_on,,0,0,1,,,,,,0,74,92
102528,note_on,,0,0,1,,,,,,0,77,92
102528,note_off,,192,0,1,,,,,,0,74,64
102720,note_on,,192,0,2,,,,,,0,62,82
102720,note_off,,0,0,1,,,,,,0,77,64
102720,note_on,,0,0,1,,,,,,0,76,92
102720,note_on,,0,0,1,,,,,,0,72,92
102720,note_off,,192,0,1,,,,,,0,74,64
102816,note_on,,0,0,1,,,,,,0,74,92
102816,note_on,,0,0,1,,,,,,0,71,92
102816,note_off,,96,0,1,,,,,,0,76,64
102816,note_off,,0,0,1,,,,,,0,72,64
102912,note_off,,192,0,2,,,,,,0,62,64
102912,note_on,,0,0,2,,,,,,0,69,82
102912,note_off,,96,0,1,,,,,,0,74,64
102912,note_off,,0,0,1,,,,,,0,71,64
102912,note_on,,0,0,1,,,,,,0,72,92
102912,note_on,,0,0,1,,,,,,0,76,92
103008,note_off,,96,0,1,,,,,,0,76,64
103008,note_off,,0,0,1,,,,,,0,72,64
103008,note_on,,0,0,1,,,,,,0,69,92
103008,note_off,,96,0,2,,,,,,0,69,64
103104,note_off,,96,0,1,,,,,,0,69,64
103104,note_on,,0,0,1,,,,,,0,71,92
103200,note_off,,96,0,1,,,,,,0,71,64
103200,note_on,,0,0,1,,,,,,0,72,92
103296,note_on,,0,0,1,,,,,,0,74,92
103296,note_off,,96,0,1,,,,,,0,72,64
103392,note_off,,96,0,1,,,,,,0,74,64
103392,note_on,,0,0,1,,,,,,0,76,92
103488,note_off,,96,0,1,,,,,,0,76,64
103488,note_on,,0,0,1,,,,,,0,78,92
103584,note_on,,0,0,1,,,,,,0,80,92
103584,note_off,,96,0,1,,,,,,0,78,64
103680,note_on,,0,0,1,,,,,,0,81,92
103680,note_on,,0,0,1,,,,,,0,72,92
103680,note_on,,0,0,1,,,,,,0,76,92
103680,note_on,,0,0,2,,,,,,0,57,82
103680,note_on,,672,0,2,,,,,,0,64,92
103680,note_off,,96,0,1,,,,,,0,80,64
103680,note_on,,4224,0,3,,,,,,0,45,102
104064,note_off,,0,0,1,,,,,,0,72,64
104064,note_off,,384,0,3,,,,,,0,45,64
104064,note_on,,0,0,1,,,,,,0,80,92
104064,note_on,,0,0,1,,,,,,0,76,92
104064,note_off,,0,0,1,,,,,,0,76,64
104064,note_on,,0,0,1,,,,,,0,71,92
104064,note_on,,0,0,3,,,,,,0,52,102
104064,note_off,,384,0,1,,,,,,0,81,64
104064,note_off,,0,0,2,,,,,,0,64,64
104064,note_off,,384,0,2,,,,,,0,57,64
104064,note_on,,0,0,2,,,,,,0,59,82
104064,note_on,,0,0,2,,,,,,0,64,92
104448,note_off,,0,0,2,,,,,,0,64,64
104448,note_off,,384,0,2,,,,,,0,59,64
104448,note_on,,0,0,3,,,,,,0,45,102
104448,note_off,,384,0,3,,,,,,0,52,64
104448,note_on,,0,0,1,,,,,,0,81,92
104448,note_on,,0,0,1,,,,,,0,64,92
104448,note_on,,0,0,1,,,,,,0,72,92
104448,note_off,,0,0,1,,,,,,0,71,64
104448,note_off,,0,0,1,,,,,,0,76,64
104448,note_off,,384,0,1,,,,,,0,80,64
104448,note_on,,0,0,2,,,,,,0,64,92
104448,note_on,,0,0,1,,,,,,0,76,92
104448,note_on,,0,0,2,,,,,,0,57,92
104544,note_off,,96,0,1,,,,,,0,81,64
104544,note_off,,0,0,1,,,,,,0,76,64
104544,note_off,,0,0,1,,,,,,0,72,64
104544,note_on,,0,0,1,,,,,,0,79,92
104640,note_off,,96,0,1,,,,,,0,79,64
104640,note_on,,0,0,1,,,,,,0,77,92
104736,note_on,,0,0,1,,,,,,0,76,92
104736,note_off,,96,0,1,,,,,,0,77,64
104832,note_on,,0,0,1,,,,,,0,74,92
104832,note_off,,96,0,1,,,,,,0,76,64
104832,note_off,,384,0,2,,,,,,0,57,64
104832,note_off,,0,0,2,,,,,,0,64,64
104832,note_off,,384,0,3,,,,,,0,45,64
104832,note_off,,0,0,1,,,,,,0,64,64
104928,note_off,,96,0,1,,,,,,0,74,64
104928,note_on,,0,0,1,,,,,,0,72,92
105024,note_on,,192,0,3,,,,,,0,57,102
105024,note_on,,0,0,1,,,,,,0,64,92
105024,note_off,,96,0,1,,,,,,0,72,64
105024,note_on,,0,0,1,,,,,,0,71,92
105024,note_on,,192,0,2,,,,,,0,60,92
105120,note_off,,96,0,1,,,,,,0,71,64
105120,note_on,,0,0,1,,,,,,0,69,92
105216,note_off,,192,0,2,,,,,,0,60,64
105216,note_on,,0,0,2,,,,,,0,59,92
105216,note_on,,0,0,3,,,,,,0,56,102
105216,note_off,,96,0,1,,,,,,0,69,64
105216,note_on,,0,0,1,,,,,,0,76,92
105216,note_off,,192,0,3,,,,,,0,57,64
105408,note_off,,192,0,1,,,,,,0,76,64
105408,note_off,,0,0,1,,,,,,0,64,64
105408,note_on,,0,0,1,,,,,,0,64,92
105504,note_on,,0,0,3,,,,,,0,54,102
105504,note_off,,288,0,3,,,,,,0,56,64
105504,note_off,,288,0,2,,,,,,0,59,64
105504,note_on,,0,0,2,,,,,,0,57,92
105600,note_on,,0,0,2,,,,,,0,56,92
105600,note_off,,96,0,2,,,,,,0,57,64
105600,note_on,,0,0,1,,,,,,0,64,92
105600,note_off,,96,0,3,,,,,,0,54,64
105600,note_on,,0,0,3,,,,,,0,52,102
105600,note_off,,192,0,1,,,,,,0,64,64
105792,note_off,,192,0,2,,,,,,0,56,64
105792,note_on,,0,0,2,,,,,,0,57,92
105792,note_on,,192,0,1,,,,,,0,66,92
105792,note_off,,192,0,3,,,,,,0,52,64
105792,note_on,,0,0,3,,,,,,0,50,102
105888,note_off,,96,0,2,,,,,,0,57,64
105888,note_on,,0,0,2,,,,,,0,59,92
105888,note_on,,0,0,1,,,,,,0,68,92
105888,note_off,,96,0,1,,,,,,0,66,64
105984,note_off,,96,0,2,,,,,,0,59,64
105984,note_on,,0,0,2,,,,,,0,60,92
105984,note_on,,0,0,1,,,,,,0,69,92
105984,note_off,,96,0,1,,,,,,0,68,64
105984,note_on,,0,0,3,,,,,,0,48,102
105984,note_off,,192,0,3,,,,,,0,50,64
106176,note_off,,192,0,1,,,,,,0,69,64
106176,note_on,,0,0,2,,,,,,0,60,92
106176,note_on,,0,0,1,,,,,,0,69,92
106176,note_off,,192,0,2,,,,,,0,60,64
106272,note_off,,96,0,2,,,,,,0,60,64
106272,note_on,,0,0,1,,,,,,0,71,92
106272,note_on,,0,0,2,,,,,,0,62,92
106272,note_off,,288,0,3,,,,,,0,48,64
106272,note_on,,0,0,3,,,,,,0,47,102
106272,note_off,,96,0,1,,,,,,0,69,64
106368,note_off,,96,0,1,,,,,,0,71,64
106368,note_on,,0,0,1,,,,,,0,69,92
106368,note_off,,96,0,3,,,,,,0,47,64
106368,note_on,,0,0,3,,,,,,0,45,102
106368,note_off,,0,0,1,,,,,,0,64,64
106368,note_on,,0,0,2,,,,,,0,64,92
106368,note_off,,96,0,2,,,,,,0,62,64
106368,note_on,,0,0,1,,,,,,0,72,92
106560,note_on,,0,0,2,,,,,,0,60,92
106560,note_off,,192,0,2,,,,,,0,64,64
106560,note_off,,0,0,1,,,,,,0,69,64
106560,note_on,,0,0,1,,,,,,0,72,92
106560,note_on,,0,0,1,,,,,,0,64,92
106560,note_off,,192,0,1,,,,,,0,72,64
106560,note_off,,192,0,3,,,,,,0,45,64
106560,note_on,,0,0,3,,,,,,0,57,102
106656,note_on,,0,0,1,,,,,,0,74,92
106656,note_off,,96,0,1,,,,,,0,72,64
106752,note_on,,0,0,1,,,,,,0,76,92
106752,note_off,,96,0,1,,,,,,0,74,64
106752,note_off,,192,0,3,,,,,,0,57,64
106752,note_on,,0,0,2,,,,,,0,59,92
106752,note_off,,192,0,2,,,,,,0,60,64
106752,note_on,,0,0,3,,,,,,0,56,102
106944,note_on,,0,0,1,,,,,,0,64,92
106944,note_off,,192,0,1,,,,,,0,76,64
106944,note_off,,0,0,1,,,,,,0,64,64
107040,note_off,,288,0,3,,,,,,0,56,64
107040,note_off,,288,0,2,,,,,,0,59,64
107040,note_on,,0,0,3,,,,,,0,54,102
107040,note_on,,0,0,2,,,,,,0,57,92
107136,note_on,,0,0,2,,,,,,0,56,92
107136,note_on,,0,0,1,,,,,,0,64,92
107136,note_on,,0,0,3,,,,,,0,52,102
107136,note_off,,96,0,3,,,,,,0,54,64
107136,note_off,,192,0,1,,,,,,0,64,64
107136,note_off,,96,0,2,,,,,,0,57,64
107328,note_on,,192,0,1,,,,,,0,66,92
107328,note_off,,192,0,2,,,,,,0,56,64
107328,note_off,,192,0,3,,,,,,0,52,64
107328,note_on,,0,0,3,,,,,,0,50,102
107328,note_on,,0,0,2,,,,,,0,57,92
107424,note_on,,0,0,2,,,,,,0,59,92
107424,note_off,,96,0,2,,,,,,0,57,64
107424,note_off,,96,0,1,,,,,,0,66,64
107424,note_on,,0,0,1,,,,,,0,68,92
107520,note_on,,0,0,3,,,,,,0,48,102
107520,note_on,,0,0,1,,,,,,0,69,92
107520,note_off,,96,0,1,,,,,,0,68,64
107520,note_off,,192,0,3,,,,,,0,50,64
107520,note_on,,0,0,2,,,,,,0,60,92
107520,note_off,,96,0,2,,,,,,0,59,64
107712,note_on,,0,0,1,,,,,,0,69,92
107712,note_on,,0,0,1,,,,,,0,60,92
107712,note_off,,192,0,1,,,,,,0,69,64
107712,note_off,,192,0,2,,,,,,0,60,64
107808,note_on,,0,0,3,,,,,,0,47,102
107808,note_off,,288,0,3,,,,,,0,48,64
107808,note_on,,0,0,1,,,,,,0,62,92
107808,note_off,,0,0,1,,,,,,0,60,64
107808,note_off,,96,0,1,,,,,,0,69,64
107808,note_on,,0,0,1,,,,,,0,71,92
107904,note_on,,0,0,3,,,,,,0,45,102
107904,note_off,,96,0,3,,,,,,0,47,64
107904,note_on,,0,0,1,,,,,,0,69,92
107904,note_on,,0,0,1,,,,,,0,64,92
107904,note_on,,0,0,1,,,,,,0,72,92
107904,note_off,,0,0,1,,,,,,0,64,64
107904,note_off,,0,0,1,,,,,,0,62,64
107904,note_off,,96,0,1,,,,,,0,71,64
108096,note_off,,0,0,1,,,,,,0,72,64
108096,note_on,,0,0,3,,,,,,0,57,102
108096,note_on,,0,0,1,,,,,,0,64,92
108096,note_off,,192,0,1,,,,,,0,64,64
108096,note_off,,192,0,3,,,,,,0,45,64
108096,note_on,,0,0,1,,,,,,0,72,92
108096,note_off,,0,0,1,,,,,,0,69,64
108096,note_on,,0,0,1,,,,,,0,69,92
108192,note_off,,96,0,1,,,,,,0,72,64
108192,note_on,,0,0,1,,,,,,0,74,92
108288,note_off,,96,0,1,,,,,,0,74,64
108288,note_on,,576,0,2,,,,,,0,76,82
108288,note_off,,0,0,1,,,,,,0,64,64
108288,note_off,,0,0,1,,,,,,0,69,64
108288,note_on,,0,0,1,,,,,,0,64,92
108288,note_off,,192,0,3,,,,,,0,57,64
108288,note_on,,0,0,1,,,,,,0,76,92
108288,note_on,,0,0,1,,,,,,0,71,92
108288,note_on,,0,0,3,,,,,,0,56,102
108384,note_on,,0,0,2,,,,,,0,75,82
108384,note_off,,96,0,2,,,,,,0,76,64
108480,note_off,,192,0,1,,,,,,0,76,64
108480,note_off,,0,0,1,,,,,,0,64,64
108480,note_on,,0,0,1,,,,,,0,83,92
108480,note_off,,192,0,3,,,,,,0,56,64
108480,note_on,,0,0,3,,,,,,0,56,102
108480,note_off,,96,0,2,,,,,,0,75,64
108480,note_on,,0,0,2,,,,,,0,76,82
108480,note_off,,0,0,1,,,,,,0,71,64
108576,note_off,,96,0,2,,,,,,0,76,64
108576,note_on,,0,0,2,,,,,,0,71,82
108672,note_off,,192,0,3,,,,,,0,56,64
108672,note_on,,0,0,3,,,,,,0,56,102
108672,note_on,,0,0,2,,,,,,0,76,82
108672,note_off,,96,0,2,,,,,,0,71,64
108672,note_off,,192,0,1,,,,,,0,83,64
108672,note_on,,0,0,1,,,,,,0,83,92
108768,note_on,,0,0,1,,,,,,0,84,92
108768,note_off,,96,0,2,,,,,,0,76,64
108768,note_on,,0,0,2,,,,,,0,75,82
108768,note_off,,96,0,1,,,,,,0,83,64
108864,note_on,,0,0,2,,,,,,0,76,82
108864,note_on,,0,0,1,,,,,,0,83,92
108864,note_off,,96,0,1,,,,,,0,84,64
108864,note_off,,96,0,2,,,,,,0,75,64
108864,note_off,,192,0,3,,,,,,0,56,64
108864,note_on,,0,0,3,,,,,,0,56,102
108960,note_on,,0,0,2,,,,,,0,71,82
108960,note_off,,96,0,2,,,,,,0,76,64
109056,note_on,,0,0,2,,,,,,0,76,82
109056,note_off,,192,0,1,,,,,,0,83,64
109056,note_off,,192,0,3,,,,,,0,56,64
109056,note_on,,0,0,3,,,,,,0,52,102
109056,note_off,,96,0,2,,,,,,0,71,64
109152,note_off,,96,0,2,,,,,,0,76,64
109152,note_on,,0,0,2,,,,,,0,75,82
109248,note_off,,192,0,3,,,,,,0,52,64
109248,note_off,,96,0,2,,,,,,0,75,64
109248,note_on,,192,0,1,,,,,,0,80,92
109248,note_on,,0,0,3,,,,,,0,52,102
109248,note_on,,0,0,2,,,,,,0,76,82
109344,note_off,,96,0,2,,,,,,0,76,64
109344,note_on,,0,0,2,,,,,,0,71,82
109440,note_on,,0,0,1,,,,,,0,80,92
109440,note_off,,192,0,1,,,,,,0,80,64
109440,note_off,,96,0,2,,,,,,0,71,64
109440,note_on,,0,0,3,,,,,,0,52,102
109440,note_off,,192,0,3,,,,,,0,52,64
109440,note_on,,0,0,2,,,,,,0,76,82
109536,note_off,,96,0,2,,,,,,0,76,64
109536,note_on,,0,0,2,,,,,,0,75,82
109536,note_on,,0,0,1,,,,,,0,81,92
109536,note_off,,96,0,1,,,,,,0,80,64
109632,note_on,,0,0,1,,,,,,0,80,92
109632,note_off,,96,0,1,,,,,,0,81,64
109632,note_off,,192,0,3,,,,,,0,52,64
109632,note_on,,0,0,2,,,,,,0,76,82
109632,note_off,,96,0,2,,,,,,0,75,64
109632,note_on,,0,0,3,,,,,,0,52,102
109728,note_on,,0,0,2,,,,,,0,71,82
109728,note_off,,96,0,2,,,,,,0,76,64
109824,note_off,,192,0,3,,,,,,0,52,64
109824,note_off,,96,0,2,,,,,,0,71,64
109824,note_on,,0,0,2,,,,,,0,76,82
109824,note_off,,192,0,1,,,,,,0,80,64
109824,note_on,,0,0,3,,,,,,0,57,102
109920,note_off,,96,0,2,,,,,,0,76,64
109920,note_on,,0,0,2,,,,,,0,74,82
110016,note_on,,192,0,1,,,,,,0,76,92
110016,note_off,,192,0,3,,,,,,0,57,64
110016,note_off,,96,0,2,,,,,,0,74,64
110016,note_on,,0,0,3,,,,,,0,57,102
110016,note_on,,0,0,2,,,,,,0,76,82
110112,note_on,,0,0,2,,,,,,0,72,82
110112,note_off,,96,0,2,,,,,,0,76,64
110208,note_off,,96,0,2,,,,,,0,72,64
110208,note_on,,0,0,3,,,,,,0,57,102
110208,note_off,,192,0,3,,,,,,0,57,64
110208,note_off,,192,0,1,,,,,,0,76,64
110208,note_on,,0,0,2,,,,,,0,76,82
110208,note_on,,0,0,1,,,,,,0,76,92
110304,note_on,,0,0,2,,,,,,0,74,82
110304,note_off,,96,0,2,,,,,,0,76,64
110304,note_off,,96,0,1,,,,,,0,76,64
110304,note_on,,0,0,1,,,,,,0,77,92
110400,note_off,,192,0,3,,,,,,0,57,64
110400,note_on,,0,0,1,,,,,,0,76,92
110400,note_off,,96,0,2,,,,,,0,74,64
110400,note_on,,0,0,2,,,,,,0,76,82
110400,note_off,,96,0,1,,,,,,0,77,64
110400,note_on,,0,0,3,,,,,,0,57,102
110496,note_off,,96,0,2,,,,,,0,76,64
110496,note_on,,0,0,2,,,,,,0,72,82
110592,note_on,,0,0,3,,,,,,0,57,102
110592,note_off,,192,0,3,,,,,,0,57,64
110592,note_off,,96,0,2,,,,,,0,72,64
110592,note_off,,192,0,1,,,,,,0,76,64
110592,note_on,,0,0,2,,,,,,0,76,82
110688,note_off,,96,0,2,,,,,,0,76,64
110688,note_on,,0,0,2,,,,,,0,74,82
110784,note_off,,192,0,3,,,,,,0,57,64
110784,note_on,,192,0,1,,,,,,0,72,92
110784,note_off,,96,0,2,,,,,,0,74,64
110784,note_on,,0,0,2,,,,,,0,76,82
110784,note_on,,0,0,3,,,,,,0,57,102
110880,note_off,,96,0,2,,,,,,0,76,64
110880,note_on,,0,0,2,,,,,,0,72,82
110976,note_off,,96,0,2,,,,,,0,72,64
110976,note_on,,0,0,3,,,,,,0,57,102
110976,note_off,,192,0,3,,,,,,0,57,64
110976,note_on,,0,0,1,,,,,,0,72,92
110976,note_off,,192,0,1,,,,,,0,72,64
110976,note_on,,0,0,2,,,,,,0,76,82
111072,note_on,,0,0,2,,,,,,0,74,82
111072,note_on,,0,0,1,,,,,,0,74,92
111072,note_off,,96,0,1,,,,,,0,72,64
111072,note_off,,96,0,2,,,,,,0,76,64
111168,note_on,,0,0,3,,,,,,0,57,102
111168,note_off,,96,0,2,,,,,,0,74,64
111168,note_on,,0,0,2,,,,,,0,76,82
111168,note_off,,192,0,3,,,,,,0,57,64
111168,note_off,,96,0,1,,,,,,0,74,64
111168,note_on,,0,0,1,,,,,,0,72,92
111264,note_on,,0,0,2,,,,,,0,72,82
111264,note_off,,96,0,2,,,,,,0,76,64
111360,note_off,,96,0,2,,,,,,0,72,64
111360,note_on,,0,0,2,,,,,,0,77,82
111360,note_on,,0,0,3,,,,,,0,57,102
111360,note_off,,192,0,1,,,,,,0,72,64
111360,note_off,,192,0,3,,,,,,0,57,64
111456,note_off,,96,0,2,,,,,,0,77,64
111456,note_on,,0,0,2,,,,,,0,76,82
111552,note_off,,192,0,3,,,,,,0,57,64
111552,note_on,,0,0,3,,,,,,0,57,102
111552,note_off,,96,0,2,,,,,,0,76,64
111552,note_on,,192,0,1,,,,,,0,81,92
111552,note_on,,0,0,2,,,,,,0,77,82
111648,note_on,,0,0,2,,,,,,0,72,82
111648,note_off,,96,0,2,,,,,,0,77,64
111744,note_off,,192,0,3,,,,,,0,57,64
111744,note_on,,0,0,3,,,,,,0,57,102
111744,note_on,,0,0,1,,,,,,0,81,92
111744,note_off,,192,0,1,,,,,,0,81,64
111744,note_off,,96,0,2,,,,,,0,72,64
111744,note_on,,0,0,2,,,,,,0,77,82
111840,note_off,,96,0,1,,,,,,0,81,64
111840,note_on,,0,0,2,,,,,,0,76,82
111840,note_on,,0,0,1,,,,,,0,83,92
111840,note_off,,96,0,2,,,,,,0,77,64
111936,note_off,,96,0,1,,,,,,0,83,64
111936,note_on,,0,0,1,,,,,,0,81,92
111936,note_off,,192,0,3,,,,,,0,57,64
111936,note_on,,0,0,3,,,,,,0,57,102
111936,note_off,,96,0,2,,,,,,0,76,64
111936,note_on,,0,0,2,,,,,,0,77,82
112032,note_on,,0,0,2,,,,,,0,72,82
112032,note_off,,96,0,2,,,,,,0,77,64
112128,note_off,,96,0,2,,,,,,0,72,64
112128,note_on,,0,0,2,,,,,,0,77,82
112128,note_off,,192,0,1,,,,,,0,81,64
112128,note_off,,192,0,3,,,,,,0,57,64
112128,note_on,,0,0,3,,,,,,0,57,102
112224,note_off,,96,0,2,,,,,,0,77,64
112224,note_on,,0,0,2,,,,,,0,76,82
112320,note_on,,192,0,1,,,,,,0,77,92
112320,note_off,,192,0,3,,,,,,0,57,64
112320,note_off,,96,0,2,,,,,,0,76,64
112320,note_on,,0,0,2,,,,,,0,77,82
112320,note_on,,0,0,3,,,,,,0,57,102
112416,note_off,,96,0,2,,,,,,0,77,64
112416,note_on,,0,0,2,,,,,,0,72,82
112512,note_off,,96,0,2,,,,,,0,72,64
112512,note_on,,0,0,2,,,,,,0,77,82
112512,note_on,,0,0,1,,,,,,0,77,92
112512,note_on,,0,0,3,,,,,,0,57,102
112512,note_off,,192,0,3,,,,,,0,57,64
112512,note_off,,192,0,1,,,,,,0,77,64
112608,note_on,,0,0,2,,,,,,0,76,82
112608,note_off,,96,0,2,,,,,,0,77,64
112608,note_off,,96,0,1,,,,,,0,77,64
112608,note_on,,0,0,1,,,,,,0,79,92
112704,note_on,,0,0,3,,,,,,0,57,102
112704,note_off,,192,0,3,,,,,,0,57,64
112704,note_off,,96,0,2,,,,,,0,76,64
112704,note_on,,0,0,1,,,,,,0,77,92
112704,note_on,,0,0,2,,,,,,0,77,82
112704,note_off,,96,0,1,,,,,,0,79,64
112800,note_on,,0,0,2,,,,,,0,72,82
112800,note_off,,96,0,2,,,,,,0,77,64
112896,note_off,,96,0,2,,,,,,0,72,64
112896,note_on,,0,0,2,,,,,,0,77,82
112896,note_off,,192,0,1,,,,,,0,77,64
112896,note_off,,192,0,3,,,,,,0,57,64
112896,note_on,,0,0,3,,,,,,0,55,102
112992,note_off,,96,0,2,,,,,,0,77,64
112992,note_on,,0,0,2,,,,,,0,76,82
113088,note_on,,0,0,2,,,,,,0,77,82
113088,note_off,,96,0,2,,,,,,0,76,64
113088,note_off,,192,0,3,,,,,,0,55,64
113088,note_on,,0,0,3,,,,,,0,55,102
113088,note_on,,192,0,1,,,,,,0,74,92
113184,note_on,,0,0,2,,,,,,0,71,82
113184,note_off,,96,0,2,,,,,,0,77,64
113280,note_on,,0,0,3,,,,,,0,55,102
113280,note_on,,0,0,1,,,,,,0,74,92
113280,note_off,,192,0,1,,,,,,0,74,64
113280,note_off,,192,0,3,,,,,,0,55,64
113280,note_off,,96,0,2,,,,,,0,71,64
113280,note_on,,0,0,2,,,,,,0,77,82
113376,note_on,,0,0,1,,,,,,0,76,92
113376,note_off,,96,0,1,,,,,,0,74,64
113376,note_on,,0,0,2,,,,,,0,76,82
113376,note_off,,96,0,2,,,,,,0,77,64
113472,note_on,,0,0,2,,,,,,0,77,82
113472,note_off,,96,0,2,,,,,,0,76,64
113472,note_off,,96,0,1,,,,,,0,76,64
113472,note_on,,0,0,1,,,,,,0,74,92
113472,note_off,,192,0,3,,,,,,0,55,64
113472,note_on,,0,0,3,,,,,,0,55,102
113568,note_off,,96,0,2,,,,,,0,77,64
113568,note_on,,0,0,2,,,,,,0,71,82
113664,note_on,,0,0,3,,,,,,0,55,102
113664,note_off,,192,0,3,,,,,,0,55,64
113664,note_on,,0,0,2,,,,,,0,77,82
113664,note_off,,192,0,1,,,,,,0,74,64
113664,note_off,,96,0,2,,,,,,0,71,64
113760,note_on,,0,0,2,,,,,,0,76,82
113760,note_off,,96,0,2,,,,,,0,77,64
113856,note_on,,0,0,2,,,,,,0,77,82
113856,note_on,,192,0,1,,,,,,0,71,92
113856,note_off,,192,0,3,,,,,,0,55,64
113856,note_on,,0,0,3,,,,,,0,55,102
113856,note_off,,96,0,2,,,,,,0,76,64
113952,note_off,,96,0,2,,,,,,0,77,64
113952,note_on,,0,0,2,,,,,,0,71,82
114048,note_off,,96,0,2,,,,,,0,71,64
114048,note_on,,0,0,2,,,,,,0,77,82
114048,note_off,,192,0,3,,,,,,0,55,64
114048,note_on,,0,0,1,,,,,,0,71,92
114048,note_off,,192,0,1,,,,,,0,71,64
114048,note_on,,0,0,3,,,,,,0,55,102
114144,note_off,,96,0,2,,,,,,0,77,64
114144,note_on,,0,0,2,,,,,,0,76,82
114144,note_on,,0,0,1,,,,,,0,72,92
114144,note_off,,96,0,1,,,,,,0,71,64
114240,note_off,,96,0,2,,,,,,0,76,64
114240,note_on,,0,0,1,,,,,,0,71,92
114240,note_on,,0,0,2,,,,,,0,77,82
114240,note_off,,192,0,3,,,,,,0,55,64
114240,note_off,,96,0,1,,,,,,0,72,64
114240,note_on,,0,0,3,,,,,,0,55,102
114336,note_on,,0,0,2,,,,,,0,71,82
114336,note_off,,96,0,2,,,,,,0,77,64
114432,note_on,,0,0,2,,,,,,0,76,82
114432,note_off,,96,0,2,,,,,,0,71,64
114432,note_off,,192,0,1,,,,,,0,71,64
114432,note_off,,192,0,3,,,,,,0,55,64
114432,note_on,,0,0,3,,,,,,0,55,102
114528,note_on,,0,0,2,,,,,,0,74,82
114528,note_off,,96,0,2,,,,,,0,76,64
114624,note_on,,192,0,1,,,,,,0,79,92
114624,note_on,,0,0,3,,,,,,0,55,102
114624,note_off,,96,0,2,,,,,,0,74,64
114624,note_off,,192,0,3,,,,,,0,55,64
114624,note_on,,0,0,2,,,,,,0,76,82
114720,note_on,,0,0,2,,,,,,0,71,82
114720,note_off,,96,0,2,,,,,,0,76,64
114816,note_on,,0,0,1,,,,,,0,79,92
114816,note_off,,192,0,1,,,,,,0,79,64
114816,note_off,,192,0,3,,,,,,0,55,64
114816,note_off,,96,0,2,,,,,,0,71,64
114816,note_on,,0,0,2,,,,,,0,76,82
114816,note_on,,0,0,3,,,,,,0,55,102
114912,note_on,,0,0,1,,,,,,0,81,92
114912,note_off,,96,0,1,,,,,,0,79,64
114912,note_on,,0,0,2,,,,,,0,74,82
114912,note_off,,96,0,2,,,,,,0,76,64
115008,note_on,,0,0,1,,,,,,0,79,92
115008,note_off,,96,0,1,,,,,,0,81,64
115008,note_on,,0,0,3,,,,,,0,55,102
115008,note_off,,96,0,2,,,,,,0,74,64
115008,note_on,,0,0,2,,,,,,0,76,82
115008,note_off,,192,0,3,,,,,,0,55,64
115104,note_off,,96,0,2,,,,,,0,76,64
115104,note_on,,0,0,2,,,,,,0,71,82
115200,note_off,,96,0,2,,,,,,0,71,64
115200,note_on,,0,0,2,,,,,,0,76,82
115200,note_off,,192,0,1,,,,,,0,79,64
115200,note_off,,192,0,3,,,,,,0,55,64
115200,note_on,,0,0,3,,,,,,0,55,102
115296,note_on,,0,0,2,,,,,,0,74,82
115296,note_off,,96,0,2,,,,,,0,76,64
115392,note_on,,192,0,1,,,,,,0,76,92
115392,note_off,,192,0,3,,,,,,0,55,64
115392,note_on,,0,0,3,,,,,,0,55,102
115392,note_on,,0,0,2,,,,,,0,76,82
115392,note_off,,96,0,2,,,,,,0,74,64
115488,note_off,,96,0,2,,,,,,0,76,64
115488,note_on,,0,0,2,,,,,,0,71,82
115584,note_off,,96,0,2,,,,,,0,71,64
115584,note_on,,0,0,2,,,,,,0,76,82
115584,note_on,,0,0,1,,,,,,0,76,92
115584,note_off,,192,0,1,,,,,,0,76,64
115584,note_off,,192,0,3,,,,,,0,55,64
115584,note_on,,0,0,3,,,,,,0,55,102
115680,note_off,,96,0,1,,,,,,0,76,64
115680,note_off,,96,0,2,,,,,,0,76,64
115680,note_on,,0,0,2,,,,,,0,74,82
115680,note_on,,0,0,1,,,,,,0,77,92
115776,note_on,,0,0,2,,,,,,0,76,82
115776,note_off,,96,0,2,,,,,,0,74,64
115776,note_on,,0,0,1,,,,,,0,76,92
115776,note_off,,192,0,3,,,,,,0,55,64
115776,note_on,,0,0,3,,,,,,0,55,102
115776,note_off,,96,0,1,,,,,,0,77,64
115872,note_on,,0,0,2,,,,,,0,71,82
115872,note_off,,96,0,2,,,,,,0,76,64
115968,note_off,,192,0,1,,,,,,0,76,64
115968,note_off,,192,0,3,,,,,,0,55,64
115968,note_on,,0,0,3,,,,,,0,53,102
115968,note_on,,0,0,2,,,,,,0,76,82
115968,note_off,,96,0,2,,,,,,0,71,64
116064,note_on,,0,0,2,,,,,,0,74,82
116064,note_off,,96,0,2,,,,,,0,76,64
116160,note_on,,0,0,2,,,,,,0,76,82
116160,note_off,,96,0,2,,,,,,0,74,64
116160,note_on,,0,0,3,,,,,,0,53,102
116160,note_on,,192,0,1,,,,,,0,72,92
116160,note_off,,192,0,3,,,,,,0,53,64
116256,note_on,,0,0,2,,,,,,0,69,82
116256,note_off,,96,0,2,,,,,,0,76,64
116352,note_off,,192,0,3,,,,,,0,53,64
116352,note_on,,0,0,2,,,,,,0,76,82
116352,note_off,,96,0,2,,,,,,0,69,64
116352,note_on,,0,0,3,,,,,,0,53,102
116352,note_on,,0,0,1,,,,,,0,72,92
116352,note_off,,192,0,1,,,,,,0,72,64
116448,note_on,,0,0,2,,,,,,0,74,82
116448,note_off,,96,0,2,,,,,,0,76,64
116448,note_on,,0,0,1,,,,,,0,74,92
116448,note_off,,96,0,1,,,,,,0,72,64
116544,note_on,,0,0,1,,,,,,0,72,92
116544,note_on,,0,0,3,,,,,,0,53,102
116544,note_on,,0,0,2,,,,,,0,76,82
116544,note_off,,96,0,2,,,,,,0,74,64
116544,note_off,,192,0,3,,,,,,0,53,64
116544,note_off,,96,0,1,,,,,,0,74,64
116640,note_on,,0,0,2,,,,,,0,69,82
116640,note_off,,96,0,2,,,,,,0,76,64
116736,note_off,,192,0,3,,,,,,0,53,64
116736,note_off,,96,0,2,,,,,,0,69,64
116736,note_on,,0,0,2,,,,,,0,76,82
116736,note_on,,0,0,3,,,,,,0,53,102
116736,note_off,,192,0,1,,,,,,0,72,64
116832,note_off,,96,0,2,,,,,,0,76,64
116832,note_on,,0,0,2,,,,,,0,74,82
116928,note_on,,0,0,3,,,,,,0,53,102
116928,note_on,,0,0,2,,,,,,0,76,82
116928,note_off,,96,0,2,,,,,,0,74,64
116928,note_on,,192,0,1,,,,,,0,69,92
116928,note_off,,192,0,3,,,,,,0,53,64
117024,note_off,,96,0,2,,,,,,0,76,64
117024,note_on,,0,0,2,,,,,,0,69,82
117120,note_on,,0,0,1,,,,,,0,69,92
117120,note_off,,192,0,1,,,,,,0,69,64
117120,note_off,,96,0,2,,,,,,0,69,64
117120,note_on,,0,0,2,,,,,,0,76,82
117120,note_on,,0,0,3,,,,,,0,53,102
117120,note_off,,192,0,3,,,,,,0,53,64
117216,note_off,,96,0,2,,,,,,0,76,64
117216,note_on,,0,0,2,,,,,,0,74,82
117216,note_off,,96,0,1,,,,,,0,69,64
117216,note_on,,0,0,1,,,,,,0,71,92
117312,note_off,,192,0,3,,,,,,0,53,64
117312,note_off,,96,0,1,,,,,,0,71,64
117312,note_on,,0,0,1,,,,,,0,69,92
117312,note_on,,0,0,3,,,,,,0,53,102
117312,note_on,,0,0,2,,,,,,0,76,82
117312,note_off,,96,0,2,,,,,,0,74,64
117408,note_on,,0,0,2,,,,,,0,69,82
117408,note_off,,96,0,2,,,,,,0,76,64
117504,note_off,,192,0,1,,,,,,0,69,64
117504,note_off,,96,0,2,,,,,,0,69,64
117504,note_on,,0,0,2,,,,,,0,74,82
117504,note_on,,0,0,3,,,,,,0,53,102
117504,note_off,,192,0,3,,,,,,0,53,64
117600,note_off,,96,0,2,,,,,,0,74,64
117600,note_on,,0,0,2,,,,,,0,72,82
117696,note_on,,0,0,2,,,,,,0,74,82
117696,note_off,,96,0,2,,,,,,0,72,64
117696,note_on,,0,0,3,,,,,,0,53,102
117696,note_off,,192,0,3,,,,,,0,53,64
117696,note_on,,192,0,1,,,,,,0,77,92
117792,note_on,,0,0,2,,,,,,0,69,82
117792,note_off,,96,0,2,,,,,,0,74,64
117888,note_on,,0,0,2,,,,,,0,74,82
117888,note_off,,96,0,2,,,,,,0,69,64
117888,note_off,,192,0,1,,,,,,0,77,64
117888,note_off,,192,0,3,,,,,,0,53,64
117888,note_on,,0,0,3,,,,,,0,53,102
117888,note_on,,0,0,1,,,,,,0,77,92
117984,note_off,,96,0,1,,,,,,0,77,64
117984,note_on,,0,0,2,,,,,,0,72,82
117984,note_on,,0,0,1,,,,,,0,79,92
117984,note_off,,96,0,2,,,,,,0,74,64
118080,note_off,,96,0,1,,,,,,0,79,64
118080,note_on,,0,0,3,,,,,,0,53,102
118080,note_on,,0,0,1,,,,,,0,77,92
118080,note_off,,192,0,3,,,,,,0,53,64
118080,note_off,,96,0,2,,,,,,0,72,64
118080,note_on,,0,0,2,,,,,,0,74,82
118176,note_off,,96,0,2,,,,,,0,74,64
118176,note_on,,0,0,2,,,,,,0,69,82
118272,note_off,,192,0,1,,,,,,0,77,64
118272,note_off,,96,0,2,,,,,,0,69,64
118272,note_on,,0,0,2,,,,,,0,74,82
118272,note_off,,192,0,3,,,,,,0,53,64
118272,note_on,,0,0,3,,,,,,0,53,102
118368,note_off,,96,0,2,,,,,,0,74,64
118368,note_on,,0,0,2,,,,,,0,72,82
118464,note_on,,0,0,3,,,,,,0,53,102
118464,note_off,,96,0,2,,,,,,0,72,64
118464,note_on,,0,0,2,,,,,,0,74,82
118464,note_on,,192,0,1,,,,,,0,74,92
118464,note_off,,192,0,3,,,,,,0,53,64
118560,note_off,,96,0,2,,,,,,0,74,64
118560,note_on,,0,0,2,,,,,,0,69,82
118656,note_on,,0,0,2,,,,,,0,74,82
118656,note_off,,96,0,2,,,,,,0,69,64
118656,note_off,,192,0,1,,,,,,0,74,64
118656,note_on,,0,0,1,,,,,,0,74,92
118656,note_off,,192,0,3,,,,,,0,53,64
118656,note_on,,0,0,3,,,,,,0,53,102
118752,note_on,,0,0,2,,,,,,0,72,82
118752,note_off,,96,0,1,,,,,,0,74,64
118752,note_on,,0,0,1,,,,,,0,76,92
118752,note_off,,96,0,2,,,,,,0,74,64
118848,note_on,,0,0,1,,,,,,0,74,92
118848,note_off,,96,0,1,,,,,,0,76,64
118848,note_off,,96,0,2,,,,,,0,72,64
118848,note_off,,192,0,3,,,,,,0,53,64
118848,note_on,,0,0,3,,,,,,0,53,102
118848,note_on,,0,0,2,,,,,,0,74,82
118944,note_on,,0,0,2,,,,,,0,69,82
118944,note_off,,96,0,2,,,,,,0,74,64
119040,note_on,,0,0,1,,,,,,0,71,92
119040,note_off,,192,0,3,,,,,,0,53,64
119040,note_off,,192,0,1,,,,,,0,74,64
119040,note_on,,0,0,3,,,,,,0,52,102
119040,note_off,,96,0,2,,,,,,0,69,64
119040,note_on,,0,0,2,,,,,,0,71,92
119232,note_off,,192,0,1,,,,,,0,71,64
119232,note_on,,0,0,3,,,,,,0,52,102
119232,note_off,,192,0,2,,,,,,0,71,64
119232,note_on,,0,0,2,,,,,,0,64,92
119232,note_on,,0,0,2,,,,,,0,59,92
119232,note_off,,192,0,3,,,,,,0,52,64
119424,note_off,,192,0,3,,,,,,0,52,64
119424,note_on,,0,0,3,,,,,,0,56,102
119424,note_off,,0,0,2,,,,,,0,64,64
119424,note_on,,0,0,2,,,,,,0,64,92
119424,note_off,,192,0,2,,,,,,0,59,64
119424,note_on,,0,0,2,,,,,,0,59,92
119520,note_off,,96,0,2,,,,,,0,64,64
119520,note_on,,0,0,2,,,,,,0,65,92
119616,note_on,,0,0,2,,,,,,0,64,92
119616,note_on,,384,0,1,,,,,,0,76,92
119616,note_on,,0,0,3,,,,,,0,52,102
119616,note_on,,0,0,2,,,,,,0,59,92
119616,note_on,,0,0,1,,,,,,0,71,92
119616,note_off,,0,0,2,,,,,,0,59,64
119616,note_off,,96,0,2,,,,,,0,65,64
119616,note_off,,192,0,3,,,,,,0,56,64
119808,note_on,,0,0,1,,,,,,0,72,92
119808,note_off,,192,0,2,,,,,,0,59,64
119808,note_off,,192,0,3,,,,,,0,52,64
119808,note_on,,0,0,3,,,,,,0,57,102
119808,note_on,,0,0,1,,,,,,0,76,92
119808,note_off,,0,0,1,,,,,,0,76,64
119808,note_off,,0,0,2,,,,,,0,64,64
119808,note_off,,192,0,1,,,,,,0,71,64
119904,note_on,,0,0,1,,,,,,0,77,92
119904,note_off,,96,0,1,,,,,,0,76,64
120000,note_on,,192,0,2,,,,,,0,64,92
120000,note_on,,0,0,2,,,,,,0,60,92
120000,note_on,,0,0,3,,,,,,0,45,102
120000,note_off,,96,0,1,,,,,,0,77,64
120000,note_off,,192,0,3,,,,,,0,57,64
120000,note_off,,0,0,1,,,,,,0,72,64
120000,note_on,,0,0,1,,,,,,0,72,92
120000,note_on,,0,0,1,,,,,,0,76,92
120192,note_on,,0,0,2,,,,,,0,60,92
120192,note_on,,0,0,2,,,,,,0,64,92
120192,note_off,,0,0,2,,,,,,0,64,64
120192,note_off,,192,0,2,,,,,,0,60,64
120192,note_off,,192,0,3,,,,,,0,45,64
120192,note_on,,0,0,3,,,,,,0,48,102
120192,note_off,,0,0,1,,,,,,0,76,64
120192,note_off,,192,0,1,,,,,,0,72,64
120288,note_off,,96,0,2,,,,,,0,64,64
120288,note_on,,0,0,2,,,,,,0,65,92
120384,note_on,,0,0,1,,,,,,0,72,92
120384,note_on,,0,0,2,,,,,,0,64,92
120384,note_off,,0,0,2,,,,,,0,60,64
120384,note_on,,0,0,3,,,,,,0,45,102
120384,note_off,,96,0,2,,,,,,0,65,64
120384,note_on,,0,0,2,,,,,,0,60,92
120384,note_on,,192,0,1,,,,,,0,76,92
120384,note_off,,192,0,3,,,,,,0,48,64
120576,note_on,,0,0,3,,,,,,0,52,102
120576,note_off,,192,0,3,,,,,,0,45,64
120576,note_off,,192,0,1,,,,,,0,72,64
120576,note_off,,0,0,1,,,,,,0,76,64
120576,note_on,,0,0,1,,,,,,0,76,92
120576,note_on,,0,0,1,,,,,,0,71,92
120576,note_off,,192,0,2,,,,,,0,60,64
120576,note_off,,0,0,2,,,,,,0,64,64
120672,note_on,,0,0,1,,,,,,0,77,92
120672,note_off,,96,0,1,,,,,,0,76,64
120768,note_off,,192,0,3,,,,,,0,52,64
120768,note_on,,0,0,3,,,,,,0,52,102
120768,note_off,,96,0,1,,,,,,0,77,64
120768,note_off,,0,0,1,,,,,,0,71,64
120768,note_on,,192,0,2,,,,,,0,64,92
120768,note_on,,0,0,2,,,,,,0,59,92
120768,note_on,,0,0,1,,,,,,0,71,92
120768,note_on,,0,0,1,,,,,,0,76,92
120960,note_off,,0,0,2,,,,,,0,64,64
120960,note_on,,0,0,2,,,,,,0,64,92
120960,note_on,,0,0,2,,,,,,0,59,92
120960,note_off,,192,0,2,,,,,,0,59,64
120960,note_on,,0,0,3,,,,,,0,56,102
120960,note_off,,0,0,1,,,,,,0,76,64
120960,note_off,,192,0,1,,,,,,0,71,64
120960,note_off,,192,0,3,,,,,,0,52,64
121056,note_off,,96,0,2,,,,,,0,64,64
121056,note_on,,0,0,2,,,,,,0,65,92
121152,note_off,,192,0,3,,,,,,0,56,64
121152,note_off,,96,0,2,,,,,,0,65,64
121152,note_off,,0,0,2,,,,,,0,59,64
121152,note_on,,0,0,2,,,,,,0,64,92
121152,note_on,,0,0,2,,,,,,0,59,92
121152,note_on,,0,0,3,,,,,,0,52,102
121152,note_on,,0,0,1,,,,,,0,71,92
121152,note_on,,192,0,1,,,,,,0,76,92
121344,note_on,,0,0,1,,,,,,0,76,92
121344,note_off,,192,0,1,,,,,,0,71,64
121344,note_on,,0,0,1,,,,,,0,72,92
121344,note_off,,0,0,1,,,,,,0,76,64
121344,note_on,,0,0,3,,,,,,0,57,102
121344,note_off,,192,0,3,,,,,,0,52,64
121344,note_off,,0,0,2,,,,,,0,64,64
121344,note_off,,192,0,2,,,,,,0,59,64
121440,note_on,,0,0,1,,,,,,0,77,92
121440,note_off,,96,0,1,,,,,,0,76,64
121536,note_on,,0,0,3,,,,,,0,45,102
121536,note_on,,0,0,1,,,,,,0,72,92
121536,note_on,,0,0,1,,,,,,0,76,92
121536,note_off,,0,0,1,,,,,,0,72,64
121536,note_off,,96,0,1,,,,,,0,77,64
121536,note_on,,0,0,2,,,,,,0,60,92
121536,note_on,,192,0,2,,,,,,0,64,92
121536,note_off,,192,0,3,,,,,,0,57,64
121728,note_off,,0,0,1,,,,,,0,76,64
121728,note_on,,0,0,2,,,,,,0,64,92
121728,note_off,,0,0,2,,,,,,0,64,64
121728,note_off,,192,0,2,,,,,,0,60,64
121728,note_on,,0,0,3,,,,,,0,48,102
121728,note_off,,192,0,3,,,,,,0,45,64
121728,note_on,,0,0,2,,,,,,0,60,92
121728,note_off,,192,0,1,,,,,,0,72,64
121824,note_on,,0,0,2,,,,,,0,65,92
121824,note_off,,96,0,2,,,,,,0,64,64
121920,note_on,,0,0,1,,,,,,0,72,92
121920,note_off,,96,0,2,,,,,,0,65,64
121920,note_off,,0,0,2,,,,,,0,60,64
121920,note_on,,0,0,2,,,,,,0,64,92
121920,note_on,,0,0,2,,,,,,0,60,92
121920,note_on,,192,0,1,,,,,,0,76,92
121920,note_on,,0,0,3,,,,,,0,45,102
121920,note_off,,192,0,3,,,,,,0,48,64
122112,note_on,,0,0,3,,,,,,0,50,102
122112,note_off,,192,0,3,,,,,,0,45,64
122112,note_on,,0,0,2,,,,,,0,62,92
122112,note_off,,0,0,2,,,,,,0,64,64
122112,note_off,,192,0,2,,,,,,0,60,64
122112,note_on,,0,0,2,,,,,,0,60,92
122112,note_on,,0,0,1,,,,,,0,74,92
122112,note_off,,0,0,1,,,,,,0,76,64
122112,note_off,,192,0,1,,,,,,0,72,64
122112,note_on,,0,0,1,,,,,,0,77,92
122208,note_off,,96,0,1,,,,,,0,77,64
122208,note_on,,0,0,1,,,,,,0,79,92
122304,note_off,,192,0,2,,,,,,0,60,64
122304,note_off,,0,0,2,,,,,,0,62,64
122304,note_on,,0,0,2,,,,,,0,69,92
122304,note_on,,0,0,2,,,,,,0,60,92
122304,note_off,,96,0,1,,,,,,0,79,64
122304,note_off,,0,0,1,,,,,,0,74,64
122304,note_on,,0,0,1,,,,,,0,74,92
122304,note_on,,0,0,1,,,,,,0,77,92
122400,note_off,,96,0,1,,,,,,0,77,64
122400,note_on,,0,0,1,,,,,,0,79,92
122496,note_off,,192,0,2,,,,,,0,60,64
122496,note_on,,0,0,1,,,,,,0,77,92
122496,note_off,,0,0,2,,,,,,0,69,64
122496,note_on,,0,0,2,,,,,,0,65,92
122496,note_on,,0,0,2,,,,,,0,60,92
122496,note_on,,0,0,1,,,,,,0,74,92
122496,note_off,,96,0,1,,,,,,0,79,64
122496,note_on,,0,0,3,,,,,,0,50,102
122496,note_off,,384,0,3,,,,,,0,50,64
122496,note_off,,0,0,1,,,,,,0,74,64
122592,note_off,,96,0,1,,,,,,0,77,64
122592,note_on,,0,0,1,,,,,,0,79,92
122688,note_on,,0,0,2,,,,,,0,60,92
122688,note_on,,0,0,1,,,,,,0,77,92
122688,note_off,,192,0,2,,,,,,0,60,64
122688,note_off,,0,0,2,,,,,,0,65,64
122688,note_on,,0,0,2,,,,,,0,62,92
122688,note_off,,0,0,1,,,,,,0,74,64
122688,note_on,,0,0,1,,,,,,0,74,92
122688,note_off,,96,0,1,,,,,,0,79,64
122784,note_off,,96,0,1,,,,,,0,77,64
122784,note_on,,0,0,1,,,,,,0,79,92
122880,note_off,,192,0,2,,,,,,0,60,64
122880,note_on,,0,0,2,,,,,,0,59,92
122880,note_on,,0,0,2,,,,,,0,62,92
122880,note_off,,0,0,2,,,,,,0,62,64
122880,note_on,,0,0,3,,,,,,0,55,102
122880,note_off,,384,0,3,,,,,,0,50,64
122880,note_off,,96,0,1,,,,,,0,79,64
122880,note_off,,0,0,1,,,,,,0,74,64
122880,note_on,,0,0,1,,,,,,0,77,92
122880,note_on,,0,0,1,,,,,,0,74,92
122976,note_on,,0,0,2,,,,,,0,64,92
122976,note_off,,96,0,2,,,,,,0,62,64
123072,note_off,,0,0,2,,,,,,0,59,64
123072,note_off,,96,0,2,,,,,,0,64,64
123072,note_on,,0,0,1,,,,,,0,74,92
123072,note_on,,0,0,1,,,,,,0,77,92
123072,note_off,,0,0,1,,,,,,0,77,64
123072,note_off,,192,0,1,,,,,,0,74,64
123072,note_on,,0,0,2,,,,,,0,62,92
123072,note_on,,0,0,2,,,,,,0,59,92
123168,note_on,,0,0,2,,,,,,0,64,92
123168,note_off,,96,0,2,,,,,,0,62,64
123264,note_on,,0,0,2,,,,,,0,62,92
123264,note_off,,0,0,2,,,,,,0,59,64
123264,note_off,,96,0,2,,,,,,0,64,64
123264,note_on,,0,0,2,,,,,,0,59,92
123264,note_off,,384,0,3,,,,,,0,55,64
123264,note_on,,0,0,1,,,,,,0,74,92
123264,note_on,,0,0,1,,,,,,0,71,92
123264,note_off,,0,0,1,,,,,,0,77,64
123264,note_off,,192,0,1,,,,,,0,74,64
123264,note_on,,0,0,3,,,,,,0,43,102
123360,note_off,,96,0,2,,,,,,0,62,64
123360,note_on,,0,0,2,,,,,,0,64,92
123456,note_on,,0,0,2,,,,,,0,62,92
123456,note_off,,96,0,2,,,,,,0,64,64
123456,note_off,,0,0,2,,,,,,0,59,64
123456,note_off,,0,0,1,,,,,,0,71,64
123456,note_on,,0,0,2,,,,,,0,59,92
123456,note_off,,192,0,1,,,,,,0,74,64
123456,note_on,,0,0,1,,,,,,0,71,92
123456,note_on,,0,0,1,,,,,,0,67,92
123552,note_on,,0,0,2,,,,,,0,64,92
123552,note_off,,96,0,2,,,,,,0,62,64
123648,note_on,,0,0,1,,,,,,0,76,92
123648,note_on,,0,0,1,,,,,,0,67,92
123648,note_off,,0,0,1,,,,,,0,67,64
123648,note_off,,192,0,1,,,,,,0,71,64
123648,note_off,,384,0,3,,,,,,0,43,64
123648,note_on,,0,0,2,,,,,,0,59,92
123648,note_on,,0,0,2,,,,,,0,60,92
123648,note_off,,0,0,2,,,,,,0,59,64
123648,note_on,,0,0,3,,,,,,0,48,102
123648,note_off,,96,0,2,,,,,,0,64,64
123744,note_off,,96,0,1,,,,,,0,76,64
123744,note_on,,0,0,1,,,,,,0,77,92
123840,note_on,,0,0,1,,,,,,0,76,92
123840,note_off,,96,0,1,,,,,,0,77,64
123840,note_on,,0,0,1,,,,,,0,72,92
123840,note_off,,0,0,1,,,,,,0,67,64
123840,note_off,,192,0,2,,,,,,0,59,64
123840,note_off,,0,0,2,,,,,,0,60,64
123840,note_on,,0,0,2,,,,,,0,67,92
123840,note_on,,0,0,2,,,,,,0,59,92
123936,note_off,,96,0,1,,,,,,0,76,64
123936,note_on,,0,0,1,,,,,,0,77,92
124032,note_on,,0,0,2,,,,,,0,59,92
124032,note_off,,384,0,3,,,,,,0,48,64
124032,note_on,,0,0,3,,,,,,0,48,102
124032,note_off,,192,0,2,,,,,,0,59,64
124032,note_off,,0,0,2,,,,,,0,67,64
124032,note_on,,0,0,2,,,,,,0,64,92
124032,note_on,,0,0,1,,,,,,0,72,92
124032,note_off,,0,0,1,,,,,,0,72,64
124032,note_off,,96,0,1,,,,,,0,77,64
124032,note_on,,0,0,1,,,,,,0,76,92
124128,note_off,,96,0,1,,,,,,0,76,64
124128,note_on,,0,0,1,,,,,,0,77,92
124224,note_on,,0,0,2,,,,,,0,59,92
124224,note_on,,0,0,2,,,,,,0,60,92
124224,note_off,,0,0,2,,,,,,0,64,64
124224,note_off,,192,0,2,,,,,,0,59,64
124224,note_on,,0,0,1,,,,,,0,76,92
124224,note_off,,96,0,1,,,,,,0,77,64
124224,note_off,,0,0,1,,,,,,0,72,64
124224,note_on,,0,0,1,,,,,,0,72,92
124320,note_on,,0,0,1,,,,,,0,77,92
124320,note_off,,96,0,1,,,,,,0,76,64
124416,note_off,,384,0,3,,,,,,0,48,64
124416,note_on,,0,0,3,,,,,,0,53,102
124416,note_off,,192,0,2,,,,,,0,59,64
124416,note_on,,0,0,2,,,,,,0,57,92
124416,note_on,,0,0,2,,,,,,0,60,92
124416,note_off,,0,0,2,,,,,,0,60,64
124416,note_off,,0,0,1,,,,,,0,72,64
124416,note_on,,0,0,1,,,,,,0,72,92
124416,note_on,,0,0,1,,,,,,0,76,92
124416,note_off,,96,0,1,,,,,,0,77,64
124512,note_on,,0,0,2,,,,,,0,62,92
124512,note_off,,96,0,2,,,,,,0,60,64
124608,note_off,,96,0,2,,,,,,0,62,64
124608,note_on,,0,0,1,,,,,,0,76,92
124608,note_on,,0,0,2,,,,,,0,60,92
124608,note_off,,192,0,1,,,,,,0,72,64
124608,note_off,,0,0,1,,,,,,0,76,64
124608,note_off,,0,0,2,,,,,,0,57,64
124608,note_on,,0,0,1,,,,,,0,72,92
124608,note_on,,0,0,2,,,,,,0,57,92
124704,note_off,,96,0,2,,,,,,0,60,64
124704,note_on,,0,0,2,,,,,,0,62,92
124800,note_off,,384,0,3,,,,,,0,53,64
124800,note_on,,0,0,3,,,,,,0,41,102
124800,note_off,,96,0,2,,,,,,0,62,64
124800,note_off,,0,0,2,,,,,,0,57,64
124800,note_on,,0,0,2,,,,,,0,60,92
124800,note_off,,192,0,1,,,,,,0,72,64
124800,note_off,,0,0,1,,,,,,0,76,64
124800,note_on,,0,0,1,,,,,,0,69,92
124800,note_on,,0,0,1,,,,,,0,72,92
124800,note_on,,0,0,2,,,,,,0,57,92
124896,note_on,,0,0,2,,,,,,0,62,92
124896,note_off,,96,0,2,,,,,,0,60,64
124992,note_off,,192,0,1,,,,,,0,72,64
124992,note_off,,0,0,1,,,,,,0,69,64
124992,note_on,,0,0,1,,,,,,0,69,92
124992,note_on,,0,0,1,,,,,,0,65,92
124992,note_off,,96,0,2,,,,,,0,62,64
124992,note_off,,0,0,2,,,,,,0,57,64
124992,note_on,,0,0,2,,,,,,0,60,92
124992,note_on,,0,0,2,,,,,,0,57,92
125088,note_off,,96,0,2,,,,,,0,60,64
125088,note_on,,0,0,2,,,,,,0,62,92
125184,note_off,,384,0,3,,,,,,0,41,64
125184,note_on,,0,0,3,,,,,,0,47,102
125184,note_off,,0,0,1,,,,,,0,65,64
125184,note_off,,192,0,1,,,,,,0,69,64
125184,note_off,,0,0,2,,,,,,0,57,64
125184,note_on,,0,0,2,,,,,,0,59,92
125184,note_on,,0,0,2,,,,,,0,57,92
125184,note_on,,0,0,1,,,,,,0,74,92
125184,note_off,,96,0,2,,,,,,0,62,64
125184,note_on,,0,0,1,,,,,,0,65,92
125280,note_on,,0,0,1,,,,,,0,76,92
125280,note_off,,96,0,1,,,,,,0,74,64
125376,note_off,,0,0,2,,,,,,0,59,64
125376,note_on,,0,0,2,,,,,,0,65,92
125376,note_off,,192,0,2,,,,,,0,57,64
125376,note_on,,0,0,2,,,,,,0,57,92
125376,note_on,,0,0,1,,,,,,0,71,92
125376,note_on,,0,0,1,,,,,,0,74,92
125376,note_off,,96,0,1,,,,,,0,76,64
125376,note_off,,0,0,1,,,,,,0,65,64
125472,note_off,,96,0,1,,,,,,0,74,64
125472,note_on,,0,0,1,,,,,,0,76,92
125568,note_on,,0,0,2,,,,,,0,57,92
125568,note_on,,0,0,1,,,,,,0,74,92
125568,note_on,,0,0,1,,,,,,0,71,92
125568,note_off,,0,0,1,,,,,,0,71,64
125568,note_off,,96,0,1,,,,,,0,76,64
125568,note_on,,0,0,2,,,,,,0,62,92
125568,note_off,,0,0,2,,,,,,0,65,64
125568,note_off,,192,0,2,,,,,,0,57,64
125568,note_off,,384,0,3,,,,,,0,47,64
125568,note_on,,0,0,3,,,,,,0,47,102
125664,note_on,,0,0,1,,,,,,0,76,92
125664,note_off,,96,0,1,,,,,,0,74,64
125760,note_on,,0,0,1,,,,,,0,71,92
125760,note_off,,192,0,2,,,,,,0,57,64
125760,note_on,,0,0,2,,,,,,0,57,92
125760,note_on,,0,0,2,,,,,,0,59,92
125760,note_on,,0,0,1,,,,,,0,74,92
125760,note_off,,0,0,2,,,,,,0,62,64
125760,note_off,,96,0,1,,,,,,0,76,64
125760,note_off,,0,0,1,,,,,,0,71,64
125856,note_off,,96,0,1,,,,,,0,74,64
125856,note_on,,0,0,1,,,,,,0,76,92
125952,note_off,,0,0,2,,,,,,0,59,64
125952,note_off,,192,0,2,,,,,,0,57,64
125952,note_off,,96,0,1,,,,,,0,76,64
125952,note_off,,0,0,1,,,,,,0,71,64
125952,note_on,,0,0,1,,,,,,0,71,92
125952,note_on,,0,0,2,,,,,,0,59,92
125952,note_on,,0,0,2,,,,,,0,56,92
125952,note_on,,0,0,1,,,,,,0,74,92
125952,note_on,,0,0,3,,,,,,0,52,102
125952,note_off,,384,0,3,,,,,,0,47,64
126048,note_on,,0,0,2,,,,,,0,60,92
126048,note_off,,96,0,2,,,,,,0,59,64
126144,note_on,,0,0,1,,,,,,0,74,92
126144,note_on,,0,0,1,,,,,,0,71,92
126144,note_off,,192,0,1,,,,,,0,71,64
126144,note_on,,0,0,2,,,,,,0,56,92
126144,note_on,,0,0,2,,,,,,0,59,92
126144,note_off,,0,0,2,,,,,,0,56,64
126144,note_off,,96,0,2,,,,,,0,60,64
126144,note_off,,0,0,1,,,,,,0,74,64
126240,note_on,,0,0,2,,,,,,0,60,92
126240,note_off,,96,0,2,,,,,,0,59,64
126336,note_off,,192,0,1,,,,,,0,71,64
126336,note_off,,0,0,1,,,,,,0,74,64
126336,note_on,,0,0,1,,,,,,0,71,92
126336,note_on,,0,0,1,,,,,,0,68,92
126336,note_on,,0,0,3,,,,,,0,40,102
126336,note_off,,96,0,2,,,,,,0,60,64
126336,note_off,,0,0,2,,,,,,0,56,64
126336,note_on,,0,0,2,,,,,,0,59,92
126336,note_on,,0,0,2,,,,,,0,56,92
126336,note_off,,384,0,3,,,,,,0,52,64
126432,note_off,,96,0,2,,,,,,0,59,64
126432,note_on,,0,0,2,,,,,,0,60,92
126528,note_on,,0,0,2,,,,,,0,56,92
126528,note_on,,0,0,1,,,,,,0,68,92
126528,note_on,,0,0,1,,,,,,0,64,92
126528,note_off,,0,0,1,,,,,,0,68,64
126528,note_off,,192,0,1,,,,,,0,71,64
126528,note_off,,96,0,2,,,,,,0,60,64
126528,note_off,,0,0,2,,,,,,0,56,64
126528,note_on,,0,0,2,,,,,,0,59,92
126624,note_on,,0,0,2,,,,,,0,60,92
126624,note_off,,96,0,2,,,,,,0,59,64
126720,note_off,,96,0,2,,,,,,0,60,64
126720,note_on,,0,0,1,,,,,,0,72,92
126720,note_on,,0,0,1,,,,,,0,64,92
126720,note_off,,0,0,1,,,,,,0,64,64
126720,note_off,,192,0,1,,,,,,0,68,64
126720,note_off,,384,0,3,,,,,,0,40,64
126720,note_on,,0,0,2,,,,,,0,60,92
126720,note_off,,0,0,2,,,,,,0,56,64
126720,note_on,,0,0,3,,,,,,0,57,102
126720,note_on,,0,0,2,,,,,,0,57,92
126912,note_on,,0,0,3,,,,,,0,45,102
126912,note_off,,192,0,3,,,,,,0,57,64
127104,note_off,,384,0,2,,,,,,0,60,64
127104,note_on,,0,0,3,,,,,,0,48,102
127104,note_off,,0,0,1,,,,,,0,64,64
127104,note_off,,192,0,3,,,,,,0,45,64
127104,note_off,,384,0,1,,,,,,0,72,64
127104,note_off,,0,0,2,,,,,,0,57,64
127296,note_on,,192,0,2,,,,,,0,57,92
127296,note_on,,0,0,2,,,,,,0,60,92
127296,note_on,,0,0,1,,,,,,0,76,92
127296,note_on,,192,0,1,,,,,,0,64,92
127296,note_off,,192,0,3,,,,,,0,48,64
127296,note_on,,0,0,3,,,,,,0,45,102
127488,note_off,,192,0,1,,,,,,0,76,64
127488,note_off,,0,0,1,,,,,,0,64,64
127488,note_on,,0,0,1,,,,,,0,62,92
127488,note_on,,0,0,1,,,,,,0,77,92
127488,note_on,,0,0,2,,,,,,0,53,92
127488,note_on,,0,0,2,,,,,,0,58,92
127488,note_off,,0,0,2,,,,,,0,57,64
127488,note_off,,192,0,2,,,,,,0,60,64
127488,note_off,,192,0,3,,,,,,0,45,64
127488,note_on,,0,0,3,,,,,,0,50,102
127680,note_off,,192,0,1,,,,,,0,77,64
127680,note_on,,0,0,1,,,,,,0,70,92
127872,note_off,,192,0,1,,,,,,0,70,64
127872,note_on,,0,0,1,,,,,,0,77,92
128064,note_off,,192,0,1,,,,,,0,77,64
128064,note_on,,0,0,1,,,,,,0,70,92
128256,note_off,,768,0,2,,,,,,0,58,64
128256,note_off,,0,0,2,,,,,,0,53,64
128256,note_on,,0,0,2,,,,,,0,55,92
128256,note_on,,0,0,1,,,,,,0,76,92
128256,note_on,,0,0,1,,,,,,0,64,92
128256,note_off,,0,0,1,,,,,,0,62,64
128256,note_off,,192,0,1,,,,,,0,70,64
128256,note_on,,0,0,2,,,,,,0,58,92
128256,note_on,,0,0,3,,,,,,0,49,102
128256,note_off,,768,0,3,,,,,,0,50,64
128448,note_off,,192,0,1,,,,,,0,76,64
128448,note_on,,0,0,1,,,,,,0,70,92
128640,note_on,,0,0,1,,,,,,0,76,92
128640,note_off,,192,0,1,,,,,,0,70,64
128832,note_off,,192,0,1,,,,,,0,76,64
128832,note_on,,0,0,1,,,,,,0,70,92
129024,note_on,,0,0,3,,,,,,0,48,102
129024,note_off,,768,0,3,,,,,,0,49,64
129024,note_off,,768,0,2,,,,,,0,58,64
129024,note_off,,0,0,2,,,,,,0,55,64
129024,note_off,,0,0,1,,,,,,0,64,64
129024,note_on,,0,0,1,,,,,,0,64,92
129024,note_on,,0,0,1,,,,,,0,76,92
129024,note_off,,192,0,1,,,,,,0,70,64
129024,note_on,,0,0,2,,,,,,0,57,92
129024,note_on,,0,0,2,,,,,,0,52,92
129216,note_off,,192,0,1,,,,,,0,76,64
129216,note_on,,0,0,1,,,,,,0,69,92
129408,note_off,,192,0,1,,,,,,0,69,64
129408,note_on,,0,0,1,,,,,,0,76,92
129600,note_on,,0,0,2,,,,,,0,57,92
129600,note_on,,0,0,2,,,,,,0,60,92
129600,note_off,,576,0,3,,,,,,0,48,64
129600,note_on,,0,0,3,,,,,,0,50,102
129600,note_off,,576,0,2,,,,,,0,57,64
129600,note_on,,0,0,1,,,,,,0,69,92
129600,note_on,,0,0,1,,,,,,0,65,92
129600,note_off,,0,0,1,,,,,,0,64,64
129600,note_off,,0,0,2,,,,,,0,52,64
129600,note_off,,192,0,1,,,,,,0,76,64
129792,note_on,,0,0,1,,,,,,0,68,92
129792,note_on,,0,0,3,,,,,,0,52,102
129792,note_off,,192,0,3,,,,,,0,50,64
129792,note_on,,0,0,1,,,,,,0,64,92
129792,note_off,,0,0,1,,,,,,0,65,64
129792,note_off,,192,0,1,,,,,,0,69,64
129792,note_on,,0,0,2,,,,,,0,59,92
129792,note_on,,0,0,2,,,,,,0,52,92
129792,note_off,,0,0,2,,,,,,0,57,64
129792,note_off,,192,0,2,,,,,,0,60,64
129984,note_off,,192,0,1,,,,,,0,68,64
129984,note_off,,0,0,1,,,,,,0,64,64
129984,note_on,,0,0,1,,,,,,0,64,92
129984,note_off,,192,0,3,,,,,,0,52,64
129984,note_on,,0,0,3,,,,,,0,50,102
130176,note_off,,384,0,2,,,,,,0,59,64
130176,note_off,,0,0,2,,,,,,0,52,64
130176,note_on,,0,0,1,,,,,,0,69,92
130176,note_off,,192,0,1,,,,,,0,64,64
130176,note_off,,192,0,3,,,,,,0,50,64
130176,note_on,,0,0,3,,,,,,0,48,102
130368,note_on,,0,0,1,,,,,,0,64,92
130368,note_off,,192,0,3,,,,,,0,48,64
130368,note_on,,0,0,3,,,,,,0,45,102
130368,note_on,,0,0,2,,,,,,0,57,92
130368,note_on,,192,0,2,,,,,,0,60,92
130368,note_off,,192,0,1,,,,,,0,69,64
130560,note_on,,0,0,2,,,,,,0,53,92
130560,note_on,,0,0,2,,,,,,0,59,92
130560,note_off,,0,0,2,,,,,,0,60,64
130560,note_off,,192,0,2,,,,,,0,57,64
130560,note_on,,0,0,1,,,,,,0,65,92
130560,note_on,,0,0,1,,,,,,0,62,92
130560,note_off,,192,0,3,,,,,,0,45,64
130560,note_on,,0,0,3,,,,,,0,50,102
130560,note_off,,192,0,1,,,,,,0,64,64
130752,note_off,,192,0,1,,,,,,0,65,64
130752,note_on,,0,0,1,,,,,,0,69,92
130752,note_on,,0,0,2,,,,,,0,50,92
130752,note_off,,192,0,2,,,,,,0,53,64
130752,note_off,,192,0,3,,,,,,0,50,64
130752,note_on,,0,0,3,,,,,,0,47,102
130944,note_on,,0,0,2,,,,,,0,59,92
130944,note_on,,0,0,2,,,,,,0,52,92
130944,note_off,,0,0,2,,,,,,0,59,64
130944,note_off,,192,0,2,,,,,,0,50,64
130944,note_on,,0,0,3,,,,,,0,52,102
130944,note_off,,192,0,3,,,,,,0,47,64
130944,note_off,,0,0,1,,,,,,0,62,64
130944,note_on,,0,0,1,,,,,,0,62,92
130944,note_off,,192,0,1,,,,,,0,69,64
130944,note_on,,0,0,1,,,,,,0,64,92
131136,note_on,,0,0,3,,,,,,0,40,102
131136,note_on,,0,0,1,,,,,,0,68,92
131136,note_off,,192,0,1,,,,,,0,64,64
131136,note_off,,192,0,3,,,,,,0,52,64
131328,note_off,,192,0,1,,,,,,0,68,64
131328,note_off,,0,0,1,,,,,,0,62,64
131328,note_on,,0,0,1,,,,,,0,60,92
131328,note_on,,0,0,1,,,,,,0,64,92
131328,note_on,,0,0,1,,,,,,0,69,92
131328,note_on,,0,0,3,,,,,,0,45,102
131328,note_off,,192,0,3,,,,,,0,40,64
131328,note_off,,384,0,2,,,,,,0,59,64
131328,note_off,,0,0,2,,,,,,0,52,64
131328,note_on,,0,0,2,,,,,,0,57,92
131424,note_on,,96,0,2,,,,,,0,64,92
131520,note_on,,0,0,2,,,,,,0,69,92
131520,note_off,,192,0,1,,,,,,0,69,64
131520,note_off,,0,0,2,,,,,,0,57,64
131520,note_off,,96,0,2,,,,,,0,64,64
131520,note_off,,0,0,1,,,,,,0,64,64
131520,note_off,,192,0,3,,,,,,0,45,64
131520,note_off,,0,0,1,,,,,,0,60,64
131520,note_on,,0,0,1,,,,,,0,69,92
131616,note_off,,96,0,2,,,,,,0,69,64
131616,note_on,,0,0,2,,,,,,0,64,92
131712,note_off,,96,0,2,,,,,,0,64,64
131712,note_on,,0,0,2,,,,,,0,69,92
131712,note_on,,0,0,1,,,,,,0,69,92
131712,note_off,,192,0,1,,,,,,0,69,64
131808,note_off,,96,0,1,,,,,,0,69,64
131808,note_on,,0,0,1,,,,,,0,71,92
131808,note_off,,96,0,2,,,,,,0,69,64
131808,note_on,,0,0,2,,,,,,0,64,92
131904,note_off,,96,0,1,,,,,,0,71,64
131904,note_on,,0,0,1,,,,,,0,69,92
131904,note_off,,96,0,2,,,,,,0,64,64
131904,note_on,,0,0,2,,,,,,0,69,92
132000,note_on,,0,0,2,,,,,,0,64,92
132000,note_off,,96,0,2,,,,,,0,69,64
132096,note_on,,0,0,2,,,,,,0,68,92
132096,note_off,,192,0,1,,,,,,0,69,64
132096,note_off,,96,0,2,,,,,,0,64,64
132192,note_off,,96,0,2,,,,,,0,68,64
132192,note_on,,0,0,2,,,,,,0,64,92
132288,note_off,,96,0,2,,,,,,0,64,64
132288,note_on,,0,0,2,,,,,,0,68,92
132288,note_on,,192,0,1,,,,,,0,71,92
132384,note_on,,0,0,2,,,,,,0,64,92
132384,note_off,,96,0,2,,,,,,0,68,64
132480,note_on,,0,0,2,,,,,,0,68,92
132480,note_off,,96,0,2,,,,,,0,64,64
132480,note_on,,0,0,1,,,,,,0,71,92
132480,note_off,,192,0,1,,,,,,0,71,64
132576,note_on,,0,0,2,,,,,,0,64,92
132576,note_on,,0,0,1,,,,,,0,72,92
132576,note_off,,96,0,1,,,,,,0,71,64
132576,note_off,,96,0,2,,,,,,0,68,64
132672,note_off,,96,0,2,,,,,,0,64,64
132672,note_on,,0,0,2,,,,,,0,68,92
132672,note_on,,0,0,1,,,,,,0,71,92
132672,note_off,,96,0,1,,,,,,0,72,64
132768,note_on,,0,0,2,,,,,,0,64,92
132768,note_off,,96,0,2,,,,,,0,68,64
132864,note_on,,0,0,2,,,,,,0,69,92
132864,note_off,,192,0,1,,,,,,0,71,64
132864,note_off,,96,0,2,,,,,,0,64,64
132960,note_off,,96,0,2,,,,,,0,69,64
132960,note_on,,0,0,2,,,,,,0,64,92
133056,note_on,,192,0,1,,,,,,0,72,92
133056,note_off,,96,0,2,,,,,,0,64,64
133056,note_on,,0,0,2,,,,,,0,69,92
133152,note_off,,96,0,2,,,,,,0,69,64
133152,note_on,,0,0,2,,,,,,0,64,92
133248,note_on,,0,0,1,,,,,,0,72,92
133248,note_on,,0,0,2,,,,,,0,69,92
133248,note_off,,192,0,1,,,,,,0,72,64
133248,note_off,,96,0,2,,,,,,0,64,64
133344,note_on,,0,0,1,,,,,,0,74,92
133344,note_off,,96,0,1,,,,,,0,72,64
133344,note_off,,96,0,2,,,,,,0,69,64
133344,note_on,,0,0,2,,,,,,0,64,92
133440,note_on,,0,0,1,,,,,,0,72,92
133440,note_off,,96,0,2,,,,,,0,64,64
133440,note_on,,0,0,2,,,,,,0,69,92
133440,note_off,,96,0,1,,,,,,0,74,64
133536,note_on,,0,0,2,,,,,,0,64,92
133536,note_off,,96,0,2,,,,,,0,69,64
133632,note_on,,0,0,2,,,,,,0,71,92
133632,note_off,,192,0,1,,,,,,0,72,64
133632,note_off,,96,0,2,,,,,,0,64,64
133728,note_off,,96,0,2,,,,,,0,71,64
133728,note_on,,0,0,2,,,,,,0,64,92
133824,note_on,,0,0,2,,,,,,0,71,92
133824,note_off,,96,0,2,,,,,,0,64,64
133824,note_on,,192,0,1,,,,,,0,74,92
133920,note_on,,0,0,2,,,,,,0,64,92
133920,note_off,,96,0,2,,,,,,0,71,64
134016,note_on,,0,0,2,,,,,,0,71,92
134016,note_off,,96,0,2,,,,,,0,64,64
134016,note_on,,0,0,1,,,,,,0,74,92
134016,note_off,,192,0,1,,,,,,0,74,64
134112,note_off,,96,0,2,,,,,,0,71,64
134112,note_off,,96,0,1,,,,,,0,74,64
134112,note_on,,0,0,1,,,,,,0,76,92
134112,note_on,,0,0,2,,,,,,0,64,92
134208,note_off,,96,0,1,,,,,,0,76,64
134208,note_on,,0,0,1,,,,,,0,74,92
134208,note_off,,96,0,2,,,,,,0,64,64
134208,note_on,,0,0,2,,,,,,0,71,92
134304,note_off,,96,0,2,,,,,,0,71,64
134304,note_on,,0,0,2,,,,,,0,64,92
134400,note_on,,0,0,2,,,,,,0,72,92
134400,note_off,,192,0,1,,,,,,0,74,64
134400,note_on,,0,0,1,,,,,,0,76,92
134400,note_off,,96,0,2,,,,,,0,64,64
134496,note_on,,0,0,2,,,,,,0,64,92
134496,note_off,,96,0,2,,,,,,0,72,64
134592,note_off,,96,0,2,,,,,,0,64,64
134592,note_on,,0,0,2,,,,,,0,72,92
134688,note_off,,96,0,2,,,,,,0,72,64
134688,note_on,,0,0,2,,,,,,0,64,92
134784,note_on,,0,0,2,,,,,,0,72,92
134784,note_off,,96,0,2,,,,,,0,64,64
134880,note_on,,0,0,2,,,,,,0,64,92
134880,note_off,,96,0,2,,,,,,0,72,64
134880,note_on,,0,0,1,,,,,,0,74,92
134880,note_off,,480,0,1,,,,,,0,76,64
134976,note_on,,0,0,2,,,,,,0,72,92
134976,note_off,,96,0,2,,,,,,0,64,64
134976,note_on,,0,0,1,,,,,,0,76,92
134976,note_off,,96,0,1,,,,,,0,74,64
135072,note_on,,0,0,2,,,,,,0,64,92
135072,note_off,,96,0,1,,,,,,0,76,64
135072,note_off,,96,0,2,,,,,,0,72,64
135072,note_on,,0,0,1,,,,,,0,77,92
135168,note_off,,96,0,2,,,,,,0,64,64
135168,note_on,,0,0,2,,,,,,0,71,92
135168,note_off,,96,0,1,,,,,,0,77,64
135168,note_on,,0,0,1,,,,,,0,74,92
135264,note_on,,0,0,2,,,,,,0,64,92
135264,note_off,,96,0,2,,,,,,0,71,64
135360,note_on,,0,0,2,,,,,,0,71,92
135360,note_off,,96,0,2,,,,,,0,64,64
135456,note_on,,0,0,2,,,,,,0,64,92
135456,note_off,,96,0,2,,,,,,0,71,64
135552,note_on,,0,0,2,,,,,,0,71,92
135552,note_off,,96,0,2,,,,,,0,64,64
135648,note_on,,0,0,1,,,,,,0,72,92
135648,note_off,,480,0,1,,,,,,0,74,64
135648,note_on,,0,0,2,,,,,,0,64,92
135648,note_off,,96,0,2,,,,,,0,71,64
135744,note_on,,0,0,1,,,,,,0,74,92
135744,note_on,,0,0,2,,,,,,0,71,92
135744,note_off,,96,0,1,,,,,,0,72,64
135744,note_off,,96,0,2,,,,,,0,64,64
135840,note_off,,96,0,1,,,,,,0,74,64
135840,note_on,,0,0,1,,,,,,0,76,92
135840,note_off,,96,0,2,,,,,,0,71,64
135840,note_on,,0,0,2,,,,,,0,64,92
135936,note_on,,0,0,1,,,,,,0,72,92
135936,note_off,,96,0,1,,,,,,0,76,64
135936,note_off,,96,0,2,,,,,,0,64,64
135936,note_on,,0,0,2,,,,,,0,69,92
136032,note_off,,96,0,2,,,,,,0,69,64
136032,note_on,,0,0,2,,,,,,0,57,92
136128,note_on,,0,0,1,,,,,,0,71,92
136128,note_off,,192,0,1,,,,,,0,72,64
136128,note_off,,96,0,2,,,,,,0,57,64
136128,note_on,,0,0,2,,,,,,0,60,92
136224,note_on,,0,0,1,,,,,,0,69,92
136224,note_off,,96,0,1,,,,,,0,71,64
136224,note_on,,0,0,2,,,,,,0,62,92
136224,note_off,,96,0,2,,,,,,0,60,64
136320,note_off,,96,0,2,,,,,,0,62,64
136320,note_on,,0,0,2,,,,,,0,64,92
136320,note_off,,96,0,1,,,,,,0,69,64
136320,note_on,,0,0,1,,,,,,0,68,92
136416,note_on,,0,0,2,,,,,,0,62,92
136416,note_off,,96,0,2,,,,,,0,64,64
136512,note_on,,0,0,2,,,,,,0,60,92
136512,note_off,,96,0,2,,,,,,0,62,64
136608,note_on,,0,0,1,,,,,,0,69,92
136608,note_on,,0,0,2,,,,,,0,59,92
136608,note_off,,96,0,2,,,,,,0,60,64
136608,note_off,,288,0,1,,,,,,0,68,64
136704,set_tempo,631570,136704,1,0,,,,,,,,
136704,note_on,,0,0,1,,,,,,0,69,92
136704,note_off,,96,0,1,,,,,,0,69,64
136704,note_off,,96,0,2,,,,,,0,59,64
136704,note_on,,0,0,2,,,,,,0,57,92
136704,note_on,,5184,0,3,,,,,,0,45,102
136896,note_off,,192,0,3,,,,,,0,45,64
136896,note_on,,0,0,3,,,,,,0,47,102
137088,note_off,,384,0,2,,,,,,0,57,64
137088,note_off,,192,0,3,,,,,,0,47,64
137088,note_off,,384,0,1,,,,,,0,69,64
137088,note_on,,0,0,3,,,,,,0,48,102
137280,note_off,,192,0,3,,,,,,0,48,64
137280,note_on,,0,0,3,,,,,,0,45,102
137280,note_on,,0,0,2,,,,,,0,60,92
137280,note_on,,0,0,1,,,,,,0,76,92
137280,note_on,,192,0,1,,,,,,0,64,92
137280,note_on,,192,0,2,,,,,,0,57,92
137472,note_on,,0,0,2,,,,,,0,53,92
137472,note_off,,0,0,2,,,,,,0,57,64
137472,note_off,,192,0,1,,,,,,0,76,64
137472,note_off,,192,0,2,,,,,,0,60,64
137472,note_on,,0,0,2,,,,,,0,58,92
137472,note_on,,0,0,3,,,,,,0,50,102
137472,note_off,,192,0,3,,,,,,0,45,64
137472,note_on,,0,0,1,,,,,,0,62,92
137472,note_on,,0,0,1,,,,,,0,77,92
137472,note_off,,0,0,1,,,,,,0,64,64
137664,note_on,,0,0,1,,,,,,0,70,92
137664,note_off,,192,0,1,,,,,,0,77,64
137856,note_off,,192,0,1,,,,,,0,70,64
137856,note_on,,0,0,1,,,,,,0,77,92
138048,note_off,,192,0,1,,,,,,0,77,64
138048,note_on,,0,0,1,,,,,,0,70,92
138240,note_off,,192,0,1,,,,,,0,70,64
138240,note_off,,0,0,1,,,,,,0,62,64
138240,note_off,,768,0,2,,,,,,0,58,64
138240,note_off,,0,0,2,,,,,,0,53,64
138240,note_on,,0,0,2,,,,,,0,55,92
138240,note_on,,0,0,2,,,,,,0,58,92
138240,note_on,,0,0,1,,,,,,0,64,92
138240,note_on,,0,0,1,,,,,,0,76,92
138240,note_off,,768,0,3,,,,,,0,50,64
138240,note_on,,0,0,3,,,,,,0,49,102
138432,note_on,,0,0,1,,,,,,0,70,92
138432,note_off,,192,0,1,,,,,,0,76,64
138624,note_on,,0,0,1,,,,,,0,76,92
138624,note_off,,192,0,1,,,,,,0,70,64
138816,note_off,,192,0,1,,,,,,0,76,64
138816,note_on,,0,0,1,,,,,,0,70,92
139008,note_off,,192,0,1,,,,,,0,70,64
139008,note_off,,0,0,1,,,,,,0,64,64
139008,note_on,,0,0,1,,,,,,0,64,92
139008,note_on,,0,0,1,,,,,,0,76,92
139008,note_on,,0,0,2,,,,,,0,57,92
139008,note_off,,768,0,3,,,,,,0,49,64
139008,note_on,,0,0,3,,,,,,0,48,102
139008,note_off,,768,0,2,,,,,,0,58,64
139008,note_on,,0,0,2,,,,,,0,52,92
139008,note_off,,0,0,2,,,,,,0,55,64
139200,note_off,,192,0,1,,,,,,0,76,64
139200,note_on,,0,0,1,,,,,,0,69,92
139392,note_on,,0,0,1,,,,,,0,76,92
139392,note_off,,192,0,1,,,,,,0,69,64
139584,note_on,,0,0,1,,,,,,0,69,92
139584,note_on,,0,0,1,,,,,,0,65,92
139584,note_off,,0,0,1,,,,,,0,64,64
139584,note_off,,192,0,1,,,,,,0,76,64
139584,note_on,,0,0,3,,,,,,0,50,102
139584,note_on,,0,0,2,,,,,,0,57,92
139584,note_on,,0,0,2,,,,,,0,60,92
139584,note_off,,576,0,3,,,,,,0,48,64
139584,note_off,,0,0,2,,,,,,0,52,64
139584,note_off,,576,0,2,,,,,,0,57,64
139776,note_on,,0,0,1,,,,,,0,64,92
139776,note_on,,0,0,1,,,,,,0,68,92
139776,note_off,,0,0,1,,,,,,0,65,64
139776,note_off,,192,0,1,,,,,,0,69,64
139776,note_off,,192,0,3,,,,,,0,50,64
139776,note_on,,0,0,3,,,,,,0,52,102
139776,note_off,,192,0,2,,,,,,0,60,64
139776,note_off,,0,0,2,,,,,,0,57,64
139776,note_on,,0,0,2,,,,,,0,52,92
139776,set_tempo,705880,3072,1,0,,,,,,,,
139776,note_on,,0,0,2,,,,,,0,59,92
139968,note_on,,0,0,3,,,,,,0,50,102
139968,note_on,,0,0,1,,,,,,0,64,92
139968,note_off,,0,0,1,,,,,,0,68,64
139968,note_off,,192,0,1,,,,,,0,64,64
139968,note_off,,192,0,3,,,,,,0,52,64
140160,note_off,,192,0,1,,,,,,0,64,64
140160,note_off,,0,0,2,,,,,,0,52,64
140160,note_on,,0,0,1,,,,,,0,69,92
140160,note_on,,0,0,3,,,,,,0,48,102
140160,note_off,,192,0,3,,,,,,0,50,64
140160,note_off,,384,0,2,,,,,,0,59,64
140352,note_on,,0,0,3,,,,,,0,45,102
140352,note_off,,192,0,1,,,,,,0,69,64
140352,note_off,,192,0,3,,,,,,0,48,64
140352,note_on,,0,0,1,,,,,,0,64,92
140352,note_on,,0,0,2,,,,,,0,57,92
140352,note_on,,192,0,2,,,,,,0,60,92
140544,note_on,,0,0,2,,,,,,0,59,92
140544,note_off,,0,0,2,,,,,,0,60,64
140544,note_off,,192,0,2,,,,,,0,57,64
140544,note_off,,192,0,3,,,,,,0,45,64
140544,note_on,,0,0,3,,,,,,0,50,102
140544,note_on,,0,0,2,,,,,,0,53,92
140544,set_tempo,800000,768,1,0,,,,,,,,
140544,note_off,,192,0,1,,,,,,0,64,64
140544,note_on,,0,0,1,,,,,,0,62,92
140544,note_on,,0,0,1,,,,,,0,65,92
140736,note_on,,0,0,3,,,,,,0,47,102
140736,note_off,,192,0,2,,,,,,0,53,64
140736,note_on,,0,0,2,,,,,,0,50,92
140736,note_on,,0,0,1,,,,,,0,69,92
140736,note_off,,192,0,1,,,,,,0,65,64
140736,note_off,,192,0,3,,,,,,0,50,64
140928,note_off,,0,0,1,,,,,,0,62,64
140928,note_off,,192,0,1,,,,,,0,69,64
140928,note_on,,0,0,2,,,,,,0,59,92
140928,note_off,,0,0,2,,,,,,0,59,64
140928,note_off,,192,0,2,,,,,,0,50,64
140928,note_on,,0,0,1,,,,,,0,62,92
140928,note_off,,192,0,3,,,,,,0,47,64
140928,note_on,,0,0,3,,,,,,0,52,102
140928,note_on,,0,0,2,,,,,,0,52,92
140928,note_on,,0,0,1,,,,,,0,64,92
141120,note_off,,192,0,3,,,,,,0,52,64
141120,note_on,,0,0,1,,,,,,0,68,92
141120,note_on,,0,0,3,,,,,,0,40,102
141120,note_off,,192,0,1,,,,,,0,64,64
141312,note_on,,0,0,2,,,,,,0,52,92
141312,note_on,,0,0,2,,,,,,0,57,92
141312,note_off,,0,0,2,,,,,,0,59,64
141312,note_off,,384,0,2,,,,,,0,52,64
141312,note_off,,192,0,3,,,,,,0,40,64
141312,note_on,,0,0,3,,,,,,0,45,102
141312,note_off,,0,0,1,,,,,,0,62,64
141312,note_on,,0,0,1,,,,,,0,60,92
141312,note_on,,0,0,1,,,,,,0,64,92
141312,note_on,,0,0,1,,,,,,0,69,92
141312,note_off,,192,0,1,,,,,,0,68,64
142848,note_off,,1536,0,1,,,,,,0,69,64
142848,note_off,,0,0,1,,,,,,0,64,64
142848,note_off,,0,0,1,,,,,,0,60,64
142848,note_off,,1536,0,2,,,,,,0,52,64
142848,note_off,,0,0,2,,,,,,0,57,64
142848,note_off,,1536,0,3,,,,,,0,45,64
144384,note_on,,1536,0,2,,,,,,0,62,92
144384,time_signature,,3840,1,0,3,4,24,8,,,,
144384,set_tempo,1714280,0,1,0,,,,,,,,
144384,note_on,,1536,0,1,,,,,,0,74,92
144576,note_on,,0,0,2,,,,,,0,50,92
144576,note_off,,192,0,1,,,,,,0,74,64
144576,note_on,,0,0,1,,,,,,0,62,92
144576,note_off,,192,0,2,,,,,,0,62,64
144768,note_off,,192,0,1,,,,,,0,62,64
144768,note_off,,192,0,2,,,,,,0,50,64
144960,note_on,,192,0,2,,,,,,0,62,92
144960,note_on,,192,0,1,,,,,,0,74,92
145152,note_on,,0,0,1,,,,,,0,74,92
145152,note_on,,0,0,2,,,,,,0,62,92
145152,note_off,,192,0,2,,,,,,0,62,64
145152,note_off,,192,0,1,,,,,,0,74,64
145344,note_on,,0,0,1,,,,,,0,72,92
145344,note_on,,0,0,2,,,,,,0,60,92
145344,note_off,,192,0,2,,,,,,0,62,64
145344,note_off,,192,0,1,,,,,,0,74,64
145440,note_on,,0,0,1,,,,,,0,70,92
145440,note_off,,96,0,1,,,,,,0,72,64
145440,note_on,,0,0,2,,,,,,0,58,92
145440,note_off,,96,0,2,,,,,,0,60,64
145536,note_on,,0,0,1,,,,,,0,72,92
145536,note_off,,96,0,1,,,,,,0,70,64
145536,note_on,,0,0,2,,,,,,0,60,92
145536,note_off,,96,0,2,,,,,,0,58,64
145728,note_off,,192,0,2,,,,,,0,60,64
145728,note_on,,0,0,1,,,,,,0,60,92
145728,note_off,,192,0,1,,,,,,0,72,64
145728,note_on,,0,0,2,,,,,,0,48,92
145920,note_off,,192,0,2,,,,,,0,48,64
145920,note_off,,192,0,1,,,,,,0,60,64
146112,note_on,,192,0,2,,,,,,0,60,92
146112,note_on,,192,0,1,,,,,,0,72,92
146304,note_on,,0,0,1,,,,,,0,72,92
146304,note_off,,192,0,2,,,,,,0,60,64
146304,note_on,,0,0,2,,,,,,0,60,92
146304,note_off,,192,0,1,,,,,,0,72,64
146496,note_off,,192,0,1,,,,,,0,72,64
146496,note_on,,0,0,2,,,,,,0,58,92
146496,note_on,,0,0,1,,,,,,0,70,92
146496,note_off,,192,0,2,,,,,,0,60,64
146592,note_on,,0,0,1,,,,,,0,69,92
146592,note_off,,96,0,1,,,,,,0,70,64
146592,note_off,,96,0,2,,,,,,0,58,64
146592,note_on,,0,0,2,,,,,,0,57,92
146688,note_off,,96,0,2,,,,,,0,57,64
146688,note_on,,0,0,1,,,,,,0,70,92
146688,note_off,,96,0,1,,,,,,0,69,64
146688,note_on,,0,0,2,,,,,,0,58,92
146880,note_off,,192,0,1,,,,,,0,70,64
146880,note_off,,192,0,2,,,,,,0,58,64
146880,note_on,,0,0,1,,,,,,0,58,92
146880,note_on,,0,0,2,,,,,,0,46,92
147072,note_off,,192,0,2,,,,,,0,46,64
147072,note_off,,192,0,1,,,,,,0,58,64
147264,note_on,,192,0,2,,,,,,0,58,92
147264,note_on,,192,0,1,,,,,,0,70,92
147456,note_off,,192,0,2,,,,,,0,58,64
147456,note_on,,0,0,2,,,,,,0,58,92
147456,note_on,,0,0,1,,,,,,0,70,92
147456,note_off,,192,0,1,,,,,,0,70,64
147648,note_off,,192,0,1,,,,,,0,70,64
147648,note_on,,0,0,2,,,,,,0,57,92
147648,note_on,,0,0,1,,,,,,0,69,92
147648,note_off,,192,0,2,,,,,,0,58,64
147744,note_on,,0,0,1,,,,,,0,67,92
147744,note_on,,0,0,2,,,,,,0,55,92
147744,note_off,,96,0,1,,,,,,0,69,64
147744,note_off,,96,0,2,,,,,,0,57,64
147840,note_off,,96,0,2,,,,,,0,55,64
147840,note_on,,0,0,2,,,,,,0,57,92
147840,note_off,,96,0,1,,,,,,0,67,64
147840,note_on,,0,0,1,,,,,,0,69,92
148032,note_on,,0,0,2,,,,,,0,45,92
148032,note_off,,192,0,2,,,,,,0,57,64
148032,note_off,,192,0,1,,,,,,0,69,64
148032,note_on,,0,0,1,,,,,,0,57,92
148224,note_off,,192,0,2,,,,,,0,45,64
148224,note_off,,192,0,1,,,,,,0,57,64
148416,note_on,,192,0,2,,,,,,0,57,92
148416,note_on,,192,0,1,,,,,,0,69,92
148608,note_off,,192,0,1,,,,,,0,69,64
148608,note_on,,0,0,2,,,,,,0,57,92
148608,note_on,,0,0,1,,,,,,0,69,92
148608,note_off,,192,0,2,,,,,,0,57,64
148800,note_off,,192,0,2,,,,,,0,57,64
148800,note_on,,0,0,2,,,,,,0,45,92
148800,note_off,,192,0,1,,,,,,0,69,64
148800,note_on,,0,0,1,,,,,,0,57,92
148992,note_off,,192,0,1,,,,,,0,57,64
148992,note_on,,0,0,1,,,,,,0,74,92
148992,note_on,,0,0,2,,,,,,0,50,92
148992,note_off,,192,0,2,,,,,,0,45,64
149184,note_on,,0,0,2,,,,,,0,38,92
149184,note_off,,192,0,2,,,,,,0,50,64
149376,note_off,,192,0,2,,,,,,0,38,64
149568,note_on,,0,0,1,,,,,,0,74,92
149568,note_off,,576,0,1,,,,,,0,74,64
149568,note_on,,192,0,2,,,,,,0,74,92
149664,note_on,,0,0,1,,,,,,0,76,92
149664,note_off,,96,0,1,,,,,,0,74,64
149760,note_off,,192,0,2,,,,,,0,74,64
149760,note_off,,96,0,1,,,,,,0,76,64
149760,note_on,,0,0,2,,,,,,0,74,92
149760,note_on,,0,0,1,,,,,,0,77,92
149856,note_on,,0,0,1,,,,,,0,74,92
149856,note_off,,96,0,1,,,,,,0,77,64
149952,note_on,,0,0,2,,,,,,0,72,92
149952,note_off,,192,0,2,,,,,,0,74,64
149952,note_off,,96,0,1,,,,,,0,74,64
149952,note_on,,0,0,1,,,,,,0,76,92
150048,note_on,,0,0,2,,,,,,0,70,92
150048,note_off,,96,0,2,,,,,,0,72,64
150048,note_off,,96,0,1,,,,,,0,76,64
150048,note_on,,0,0,1,,,,,,0,77,92
150144,note_on,,0,0,2,,,,,,0,72,92
150144,note_off,,96,0,2,,,,,,0,70,64
150144,note_off,,96,0,1,,,,,,0,77,64
150144,note_on,,0,0,1,,,,,,0,76,92
150336,note_off,,192,0,2,,,,,,0,72,64
150336,note_on,,0,0,2,,,,,,0,60,92
150528,note_off,,192,0,2,,,,,,0,60,64
150720,note_on,,192,0,2,,,,,,0,72,92
150720,note_on,,0,0,1,,,,,,0,76,92
150720,note_off,,576,0,1,,,,,,0,76,64
150912,note_on,,0,0,2,,,,,,0,72,92
150912,note_on,,0,0,1,,,,,,0,77,92
150912,note_off,,192,0,1,,,,,,0,76,64
150912,note_off,,192,0,2,,,,,,0,72,64
151008,note_off,,96,0,1,,,,,,0,77,64
151008,note_on,,0,0,1,,,,,,0,76,92
151104,note_on,,0,0,2,,,,,,0,70,92
151104,note_off,,192,0,2,,,,,,0,72,64
151104,note_off,,96,0,1,,,,,,0,76,64
151104,note_on,,0,0,1,,,,,,0,74,92
151200,note_on,,0,0,1,,,,,,0,73,92
151200,note_off,,96,0,2,,,,,,0,70,64
151200,note_on,,0,0,2,,,,,,0,69,92
151200,note_off,,96,0,1,,,,,,0,74,64
151296,note_off,,96,0,1,,,,,,0,73,64
151296,note_off,,96,0,2,,,,,,0,69,64
151296,note_on,,0,0,2,,,,,,0,70,92
151296,note_on,,0,0,1,,,,,,0,74,92
151488,note_off,,192,0,2,,,,,,0,70,64
151488,note_on,,0,0,2,,,,,,0,58,92
151680,note_off,,192,0,2,,,,,,0,58,64
151872,note_on,,192,0,2,,,,,,0,70,92
151872,note_off,,576,0,1,,,,,,0,74,64
151872,note_on,,0,0,1,,,,,,0,76,92
151968,note_off,,96,0,1,,,,,,0,76,64
151968,note_on,,0,0,1,,,,,,0,77,92
152064,note_off,,96,0,1,,,,,,0,77,64
152064,note_on,,0,0,1,,,,,,0,79,92
152064,note_off,,192,0,2,,,,,,0,70,64
152064,note_on,,0,0,2,,,,,,0,70,92
152160,note_off,,96,0,1,,,,,,0,79,64
152160,note_on,,0,0,1,,,,,,0,76,92
152256,note_off,,96,0,1,,,,,,0,76,64
152256,note_on,,0,0,1,,,,,,0,77,92
152256,note_on,,0,0,2,,,,,,0,69,92
152256,note_off,,192,0,2,,,,,,0,70,64
152352,note_on,,0,0,2,,,,,,0,67,92
152352,note_off,,96,0,2,,,,,,0,69,64
152352,note_on,,0,0,1,,,,,,0,74,92
152352,note_off,,96,0,1,,,,,,0,77,64
152448,note_off,,96,0,2,,,,,,0,67,64
152448,note_on,,0,0,2,,,,,,0,69,92
152448,note_off,,96,0,1,,,,,,0,74,64
152448,note_on,,0,0,1,,,,,,0,73,92
152640,note_on,,0,0,2,,,,,,0,57,92
152640,note_off,,192,0,2,,,,,,0,69,64
152736,note_off,,288,0,1,,,,,,0,73,64
152736,note_on,,0,0,1,,,,,,0,71,92
152832,note_off,,192,0,2,,,,,,0,57,64
152832,note_off,,96,0,1,,,,,,0,71,64
152832,note_on,,0,0,1,,,,,,0,69,92
153024,note_on,,192,0,2,,,,,,0,69,92
153216,note_off,,192,0,2,,,,,,0,69,64
153216,note_on,,0,0,2,,,,,,0,69,92
153216,note_off,,384,0,1,,,,,,0,69,64
153408,note_off,,192,0,2,,,,,,0,69,64
153408,note_on,,0,0,2,,,,,,0,57,92
153600,note_on,,0,0,2,,,,,,0,62,92
153600,note_off,,192,0,2,,,,,,0,57,64
153600,note_on,,384,0,1,,,,,,0,62,92
153792,note_off,,192,0,2,,,,,,0,62,64
153792,note_on,,0,0,2,,,,,,0,50,92
153984,note_off,,192,0,2,,,,,,0,50,64
154176,note_on,,192,0,2,,,,,,0,62,92
154176,note_off,,576,0,1,,,,,,0,62,64
154176,note_on,,0,0,1,,,,,,0,62,92
154272,note_off,,96,0,1,,,,,,0,62,64
154272,note_on,,0,0,1,,,,,,0,64,92
154368,note_on,,0,0,1,,,,,,0,65,92
154368,note_on,,0,0,2,,,,,,0,62,92
154368,note_off,,192,0,2,,,,,,0,62,64
154368,note_off,,96,0,1,,,,,,0,64,64
154464,note_off,,96,0,1,,,,,,0,65,64
154464,note_on,,0,0,1,,,,,,0,62,92
154560,note_on,,0,0,2,,,,,,0,60,92
154560,note_off,,192,0,2,,,,,,0,62,64
154560,note_off,,96,0,1,,,,,,0,62,64
154560,note_on,,0,0,1,,,,,,0,64,92
154656,note_off,,96,0,2,,,,,,0,60,64
154656,note_off,,96,0,1,,,,,,0,64,64
154656,note_on,,0,0,1,,,,,,0,65,92
154656,note_on,,0,0,2,,,,,,0,58,92
154752,note_off,,96,0,2,,,,,,0,58,64
154752,note_on,,0,0,1,,,,,,0,64,92
154752,note_off,,96,0,1,,,,,,0,65,64
154752,note_on,,0,0,2,,,,,,0,60,92
154944,note_on,,0,0,2,,,,,,0,48,92
154944,note_off,,192,0,2,,,,,,0,60,64
155136,note_off,,192,0,2,,,,,,0,48,64
155328,note_on,,0,0,1,,,,,,0,64,92
155328,note_off,,576,0,1,,,,,,0,64,64
155328,note_on,,192,0,2,,,,,,0,60,92
155520,note_on,,0,0,2,,,,,,0,60,92
155520,note_off,,192,0,2,,,,,,0,60,64
155520,note_off,,192,0,1,,,,,,0,64,64
155520,note_on,,0,0,1,,,,,,0,65,92
155616,note_on,,0,0,1,,,,,,0,64,92
155616,note_off,,96,0,1,,,,,,0,65,64
155712,note_on,,0,0,1,,,,,,0,62,92
155712,note_off,,96,0,1,,,,,,0,64,64
155712,note_off,,192,0,2,,,,,,0,60,64
155712,note_on,,0,0,2,,,,,,0,58,92
155808,note_off,,96,0,2,,,,,,0,58,64
155808,note_off,,96,0,1,,,,,,0,62,64
155808,note_on,,0,0,1,,,,,,0,61,92
155808,note_on,,0,0,2,,,,,,0,57,92
155904,note_off,,96,0,2,,,,,,0,57,64
155904,note_on,,0,0,2,,,,,,0,58,92
155904,note_off,,96,0,1,,,,,,0,61,64
155904,note_on,,0,0,1,,,,,,0,62,92
156096,note_on,,0,0,2,,,,,,0,46,92
156096,note_off,,192,0,2,,,,,,0,58,64
156288,note_off,,192,0,2,,,,,,0,46,64
156480,note_on,,192,0,2,,,,,,0,58,92
156480,note_on,,0,0,1,,,,,,0,64,92
156480,note_off,,576,0,1,,,,,,0,62,64
156576,note_off,,96,0,1,,,,,,0,64,64
156576,note_on,,0,0,1,,,,,,0,65,92
156672,note_off,,192,0,2,,,,,,0,58,64
156672,note_on,,0,0,2,,,,,,0,58,92
156672,note_off,,96,0,1,,,,,,0,65,64
156672,note_on,,0,0,1,,,,,,0,67,92
156768,note_off,,96,0,1,,,,,,0,67,64
156768,note_on,,0,0,1,,,,,,0,64,92
156864,note_off,,192,0,2,,,,,,0,58,64
156864,note_on,,0,0,2,,,,,,0,57,92
156864,note_on,,0,0,1,,,,,,0,65,92
156864,note_off,,96,0,1,,,,,,0,64,64
156960,note_on,,0,0,1,,,,,,0,62,92
156960,note_off,,96,0,1,,,,,,0,65,64
156960,note_off,,96,0,2,,,,,,0,57,64
156960,note_on,,0,0,2,,,,,,0,55,92
157056,note_on,,0,0,1,,,,,,0,61,92
157056,note_off,,96,0,1,,,,,,0,62,64
157056,note_off,,96,0,2,,,,,,0,55,64
157056,note_on,,0,0,2,,,,,,0,57,92
157248,note_off,,192,0,2,,,,,,0,57,64
157248,note_on,,0,0,2,,,,,,0,45,92
157344,note_on,,0,0,1,,,,,,0,59,92
157344,note_off,,288,0,1,,,,,,0,61,64
157440,note_off,,96,0,1,,,,,,0,59,64
157440,note_off,,192,0,2,,,,,,0,45,64
157440,note_on,,0,0,1,,,,,,0,57,92
157632,note_on,,192,0,2,,,,,,0,57,92
157824,note_off,,192,0,2,,,,,,0,57,64
157824,note_off,,384,0,1,,,,,,0,57,64
157824,note_on,,0,0,2,,,,,,0,57,92
158016,note_off,,192,0,2,,,,,,0,57,64
158016,note_on,,0,0,2,,,,,,0,45,92
158208,note_off,,192,0,2,,,,,,0,45,64
158208,note_on,,0,0,2,,,,,,0,50,92
158400,note_off,,192,0,2,,,,,,0,50,64
158400,note_on,,0,0,2,,,,,,0,38,92
158592,note_off,,192,0,2,,,,,,0,38,64
158592,note_on,,768,0,1,,,,,,0,77,92
158784,note_on,,192,0,2,,,,,,0,74,92
158976,note_off,,192,0,2,,,,,,0,74,64
158976,note_on,,0,0,2,,,,,,0,74,92
159168,note_off,,192,0,2,,,,,,0,74,64
159168,note_on,,0,0,2,,,,,,0,72,92
159264,note_on,,0,0,2,,,,,,0,74,92
159264,note_off,,96,0,2,,,,,,0,72,64
159360,note_off,,96,0,2,,,,,,0,74,64
159360,note_on,,0,0,2,,,,,,0,67,92
159552,note_on,,0,0,1,,,,,,0,76,92
159552,note_off,,192,0,2,,,,,,0,67,64
159552,note_off,,960,0,1,,,,,,0,77,64
159552,note_on,,0,0,2,,,,,,0,55,92
159648,note_off,,96,0,1,,,,,,0,76,64
159648,note_on,,0,0,1,,,,,,0,77,92
159744,note_off,,96,0,1,,,,,,0,77,64
159744,note_on,,0,0,1,,,,,,0,79,92
159744,note_off,,192,0,2,,,,,,0,55,64
159744,note_on,,0,0,1,,,,,,0,82,92
159840,note_off,,96,0,1,,,,,,0,79,64
159840,note_on,,0,0,1,,,,,,0,77,92
159936,note_off,,96,0,1,,,,,,0,77,64
159936,note_on,,0,0,1,,,,,,0,76,92
159936,note_on,,192,0,2,,,,,,0,67,92
160032,note_on,,0,0,1,,,,,,0,74,92
160032,note_off,,96,0,1,,,,,,0,76,64
160128,note_off,,192,0,2,,,,,,0,67,64
160128,note_on,,0,0,1,,,,,,0,79,92
160128,note_off,,96,0,1,,,,,,0,74,64
160128,note_on,,0,0,2,,,,,,0,67,92
160224,note_on,,0,0,1,,,,,,0,77,92
160224,note_off,,96,0,1,,,,,,0,79,64
160320,note_on,,0,0,2,,,,,,0,69,92
160320,note_on,,0,0,1,,,,,,0,76,92
160320,note_off,,96,0,1,,,,,,0,77,64
160320,note_off,,192,0,2,,,,,,0,67,64
160416,note_on,,0,0,2,,,,,,0,70,92
160416,note_off,,96,0,2,,,,,,0,69,64
160416,note_off,,96,0,1,,,,,,0,76,64
160416,note_on,,0,0,1,,,,,,0,74,92
160512,note_off,,96,0,2,,,,,,0,70,64
160512,note_on,,0,0,2,,,,,,0,72,92
160512,note_off,,96,0,1,,,,,,0,74,64
160512,note_on,,0,0,1,,,,,,0,76,92
160704,note_on,,0,0,1,,,,,,0,81,92
160704,note_on,,0,0,2,,,,,,0,60,92
160704,note_off,,192,0,2,,,,,,0,72,64
160704,note_off,,192,0,1,,,,,,0,82,64
160800,note_on,,0,0,1,,,,,,0,82,92
160800,note_off,,96,0,1,,,,,,0,81,64
160896,note_on,,0,0,1,,,,,,0,84,92
160896,note_off,,96,0,1,,,,,,0,82,64
160896,note_off,,192,0,2,,,,,,0,60,64
160992,note_on,,0,0,1,,,,,,0,82,92
160992,note_off,,96,0,1,,,,,,0,84,64
161088,note_off,,96,0,1,,,,,,0,82,64
161088,note_on,,0,0,1,,,,,,0,81,92
161088,note_on,,192,0,2,,,,,,0,72,92
161184,note_off,,96,0,1,,,,,,0,81,64
161184,note_on,,0,0,1,,,,,,0,79,92
161280,note_on,,0,0,1,,,,,,0,84,92
161280,note_off,,96,0,1,,,,,,0,79,64
161280,note_on,,0,0,2,,,,,,0,72,92
161280,note_off,,192,0,2,,,,,,0,72,64
161376,note_off,,96,0,1,,,,,,0,84,64
161376,note_on,,0,0,1,,,,,,0,82,92
161472,note_on,,0,0,2,,,,,,0,70,92
161472,note_off,,96,0,1,,,,,,0,82,64
161472,note_on,,0,0,1,,,,,,0,81,92
161472,note_off,,192,0,2,,,,,,0,72,64
161568,note_off,,96,0,2,,,,,,0,70,64
161568,note_on,,0,0,2,,,,,,0,72,92
161568,note_on,,0,0,1,,,,,,0,79,92
161568,note_off,,96,0,1,,,,,,0,81,64
161664,note_off,,96,0,2,,,,,,0,72,64
161664,note_on,,0,0,2,,,,,,0,65,92
161664,note_on,,0,0,1,,,,,,0,81,92
161664,note_off,,96,0,1,,,,,,0,79,64
161856,note_off,,192,0,1,,,,,,0,76,64
161856,note_off,,192,0,2,,,,,,0,65,64
161856,note_on,,0,0,1,,,,,,0,74,92
161856,note_on,,0,0,2,,,,,,0,53,92
161952,note_off,,96,0,1,,,,,,0,74,64
161952,note_on,,0,0,1,,,,,,0,76,92
162048,note_off,,96,0,1,,,,,,0,76,64
162048,note_off,,192,0,2,,,,,,0,53,64
162048,note_on,,0,0,1,,,,,,0,77,92
162144,note_off,,96,0,1,,,,,,0,77,64
162144,note_on,,0,0,1,,,,,,0,76,92
162240,note_on,,0,0,1,,,,,,0,79,92
162240,note_off,,96,0,1,,,,,,0,76,64
162240,note_on,,192,0,2,,,,,,0,65,92
162336,note_on,,0,0,1,,,,,,0,76,92
162336,note_off,,96,0,1,,,,,,0,79,64
162432,note_off,,96,0,1,,,,,,0,76,64
162432,note_on,,0,0,1,,,,,,0,77,92
162432,note_off,,192,0,2,,,,,,0,65,64
162432,note_on,,0,0,2,,,,,,0,65,92
162528,note_off,,96,0,1,,,,,,0,77,64
162528,note_on,,0,0,1,,,,,,0,74,92
162624,note_off,,96,0,1,,,,,,0,74,64
162624,note_on,,0,0,1,,,,,,0,76,92
162624,note_on,,0,0,2,,,,,,0,67,92
162624,note_off,,192,0,2,,,,,,0,65,64
162720,note_off,,96,0,1,,,,,,0,76,64
162720,note_on,,0,0,2,,,,,,0,69,92
162720,note_on,,0,0,1,,,,,,0,73,92
162720,note_off,,96,0,2,,,,,,0,67,64
162816,note_off,,96,0,1,,,,,,0,73,64
162816,note_on,,0,0,1,,,,,,0,74,92
162816,note_off,,96,0,2,,,,,,0,69,64
162816,note_on,,0,0,2,,,,,,0,70,92
163008,note_on,,0,0,1,,,,,,0,79,92
163008,note_off,,192,0,1,,,,,,0,81,64
163008,note_on,,0,0,2,,,,,,0,58,92
163008,note_off,,192,0,2,,,,,,0,70,64
163104,note_on,,0,0,1,,,,,,0,81,92
163104,note_off,,96,0,1,,,,,,0,79,64
163200,note_off,,96,0,1,,,,,,0,81,64
163200,note_on,,0,0,1,,,,,,0,82,92
163200,note_off,,192,0,2,,,,,,0,58,64
163296,note_off,,96,0,1,,,,,,0,82,64
163296,note_on,,0,0,1,,,,,,0,81,92
163392,note_on,,192,0,2,,,,,,0,70,92
163392,note_off,,96,0,1,,,,,,0,81,64
163392,note_on,,0,0,1,,,,,,0,84,92
163488,note_on,,0,0,1,,,,,,0,81,92
163488,note_off,,96,0,1,,,,,,0,84,64
163584,note_off,,192,0,2,,,,,,0,70,64
163584,note_on,,0,0,2,,,,,,0,70,92
163584,note_off,,96,0,1,,,,,,0,81,64
163584,note_on,,0,0,1,,,,,,0,82,92
163680,note_on,,0,0,1,,,,,,0,79,92
163680,note_off,,96,0,1,,,,,,0,82,64
163776,note_off,,192,0,2,,,,,,0,70,64
163776,note_on,,0,0,1,,,,,,0,81,92
163776,note_off,,96,0,1,,,,,,0,79,64
163776,note_on,,0,0,2,,,,,,0,69,92
163872,note_off,,96,0,2,,,,,,0,69,64
163872,note_on,,0,0,1,,,,,,0,78,92
163872,note_off,,96,0,1,,,,,,0,81,64
163872,note_on,,0,0,2,,,,,,0,70,92
163968,note_off,,96,0,2,,,,,,0,70,64
163968,note_on,,0,0,2,,,,,,0,64,92
163968,note_on,,0,0,1,,,,,,0,79,92
163968,note_off,,96,0,1,,,,,,0,78,64
164160,note_on,,0,0,2,,,,,,0,52,92
164160,note_off,,192,0,1,,,,,,0,74,64
164160,note_off,,192,0,2,,,,,,0,64,64
164160,note_on,,0,0,1,,,,,,0,76,92
164256,note_off,,0,0,1,,,,,,0,79,64
164256,note_off,,96,0,1,,,,,,0,76,64
164256,note_on,,0,0,1,,,,,,0,81,92
164256,note_on,,0,0,1,,,,,,0,77,92
164352,note_off,,96,0,1,,,,,,0,77,64
164352,note_off,,0,0,1,,,,,,0,81,64
164352,note_on,,0,0,1,,,,,,0,82,92
164352,note_on,,0,0,1,,,,,,0,79,92
164352,note_off,,192,0,2,,,,,,0,52,64
164448,note_off,,0,0,1,,,,,,0,82,64
164448,note_on,,0,0,1,,,,,,0,84,92
164448,note_on,,0,0,1,,,,,,0,81,92
164448,note_off,,96,0,1,,,,,,0,79,64
164544,note_on,,0,0,1,,,,,,0,79,92
164544,note_on,,0,0,1,,,,,,0,82,92
164544,note_off,,0,0,1,,,,,,0,81,64
164544,note_off,,96,0,1,,,,,,0,84,64
164544,note_on,,192,0,2,,,,,,0,64,92
164640,note_on,,0,0,1,,,,,,0,77,92
164640,note_off,,96,0,1,,,,,,0,79,64
164640,note_off,,0,0,1,,,,,,0,82,64
164640,note_on,,0,0,1,,,,,,0,81,92
164736,note_off,,96,0,1,,,,,,0,81,64
164736,note_on,,0,0,1,,,,,,0,76,92
164736,note_on,,0,0,1,,,,,,0,79,92
164736,note_off,,0,0,1,,,,,,0,77,64
164736,note_off,,192,0,2,,,,,,0,64,64
164736,note_on,,0,0,2,,,,,,0,64,92
164832,note_off,,96,0,1,,,,,,0,79,64
164832,note_off,,0,0,1,,,,,,0,76,64
164832,note_on,,0,0,1,,,,,,0,77,92
164832,note_on,,0,0,1,,,,,,0,81,92
164928,note_on,,0,0,1,,,,,,0,76,92
164928,note_off,,0,0,1,,,,,,0,77,64
164928,note_off,,96,0,1,,,,,,0,81,64
164928,note_off,,192,0,2,,,,,,0,64,64
164928,note_on,,0,0,1,,,,,,0,79,92
164928,note_on,,0,0,2,,,,,,0,65,92
165024,note_off,,96,0,2,,,,,,0,65,64
165024,note_on,,0,0,2,,,,,,0,67,92
165024,note_on,,0,0,1,,,,,,0,77,92
165024,note_off,,96,0,1,,,,,,0,79,64
165024,note_off,,0,0,1,,,,,,0,76,64
165024,note_on,,0,0,1,,,,,,0,74,92
165120,note_on,,0,0,1,,,,,,0,76,92
165120,note_off,,0,0,1,,,,,,0,74,64
165120,note_off,,96,0,1,,,,,,0,77,64
165120,note_on,,0,0,1,,,,,,0,73,92
165120,note_on,,0,0,2,,,,,,0,69,92
165120,note_off,,96,0,2,,,,,,0,67,64
165312,note_on,,0,0,2,,,,,,0,57,92
165312,note_off,,192,0,2,,,,,,0,69,64
165312,note_off,,192,0,1,,,,,,0,76,64
165312,note_off,,0,0,1,,,,,,0,73,64
165312,note_on,,0,0,1,,,,,,0,76,92
165312,note_on,,0,0,1,,,,,,0,79,92
165408,note_off,,0,0,1,,,,,,0,76,64
165408,note_on,,0,0,1,,,,,,0,74,92
165408,note_on,,0,0,1,,,,,,0,77,92
165408,note_off,,96,0,1,,,,,,0,79,64
165504,note_on,,0,0,1,,,,,,0,76,92
165504,note_on,,0,0,1,,,,,,0,73,92
165504,note_off,,0,0,1,,,,,,0,74,64
165504,note_off,,96,0,1,,,,,,0,77,64
165504,note_off,,192,0,2,,,,,,0,57,64
165696,note_on,,0,0,1,,,,,,0,73,92
165696,note_off,,0,0,1,,,,,,0,73,64
165696,note_off,,192,0,1,,,,,,0,76,64
165696,note_on,,192,0,2,,,,,,0,69,92
165696,note_on,,0,0,1,,,,,,0,76,92
165888,note_off,,0,0,1,,,,,,0,73,64
165888,note_on,,0,0,1,,,,,,0,73,92
165888,note_on,,0,0,1,,,,,,0,76,92
165888,note_off,,192,0,2,,,,,,0,69,64
165888,note_on,,0,0,2,,,,,,0,69,92
165888,note_off,,192,0,1,,,,,,0,76,64
166080,note_on,,0,0,2,,,,,,0,57,92
166080,note_off,,192,0,2,,,,,,0,69,64
166176,note_off,,288,0,1,,,,,,0,76,64
166176,note_on,,0,0,1,,,,,,0,74,92
166224,note_on,,0,0,1,,,,,,0,76,92
166224,note_off,,48,0,1,,,,,,0,74,64
166272,note_on,,0,0,2,,,,,,0,74,92
166272,note_on,,0,0,1,,,,,,0,74,92
166272,note_on,,0,0,1,,,,,,0,77,92
166272,note_off,,0,0,1,,,,,,0,73,64
166272,note_off,,48,0,1,,,,,,0,76,64
166272,note_off,,192,0,2,,,,,,0,57,64
166464,note_on,,0,0,2,,,,,,0,62,92
166464,note_on,,0,0,1,,,,,,0,81,92
166464,note_off,,192,0,1,,,,,,0,77,64
166464,note_off,,192,0,2,,,,,,0,74,64
166560,note_on,,0,0,1,,,,,,0,79,92
166560,note_off,,96,0,1,,,,,,0,81,64
166656,note_off,,192,0,2,,,,,,0,62,64
166656,note_on,,0,0,1,,,,,,0,79,92
166656,note_off,,96,0,1,,,,,,0,79,64
166656,note_off,,0,0,1,,,,,,0,74,64
166752,note_off,,96,0,1,,,,,,0,79,64
166752,note_on,,0,0,1,,,,,,0,77,92
166848,note_on,,192,0,2,,,,,,0,74,92
166848,note_off,,96,0,1,,,,,,0,77,64
166848,note_on,,0,0,1,,,,,,0,76,92
166944,note_on,,0,0,1,,,,,,0,74,92
166944,note_off,,96,0,1,,,,,,0,76,64
167040,note_off,,192,0,2,,,,,,0,74,64
167040,note_on,,0,0,2,,,,,,0,74,92
167040,note_off,,96,0,1,,,,,,0,74,64
167040,note_on,,0,0,1,,,,,,0,82,92
167136,note_on,,0,0,1,,,,,,0,81,92
167136,note_off,,96,0,1,,,,,,0,82,64
167232,note_off,,192,0,2,,,,,,0,74,64
167232,note_on,,0,0,2,,,,,,0,76,92
167232,note_on,,0,0,1,,,,,,0,80,92
167232,note_off,,96,0,1,,,,,,0,81,64
167328,note_off,,96,0,2,,,,,,0,76,64
167328,note_on,,0,0,2,,,,,,0,77,92
167328,note_on,,0,0,1,,,,,,0,81,92
167328,note_off,,96,0,1,,,,,,0,80,64
167424,note_off,,96,0,2,,,,,,0,77,64
167424,note_on,,0,0,1,,,,,,0,81,92
167424,note_off,,96,0,1,,,,,,0,81,64
167424,note_on,,0,0,2,,,,,,0,74,92
167616,note_off,,192,0,1,,,,,,0,81,64
167616,note_on,,0,0,1,,,,,,0,80,92
167616,note_on,,0,0,2,,,,,,0,62,92
167616,note_off,,192,0,2,,,,,,0,74,64
167808,note_off,,192,0,2,,,,,,0,62,64
168000,note_on,,192,0,2,,,,,,0,74,92
168000,note_off,,384,0,1,,,,,,0,80,64
168000,note_on,,0,0,1,,,,,,0,81,92
168096,note_on,,0,0,1,,,,,,0,80,92
168096,note_off,,96,0,1,,,,,,0,81,64
168192,note_on,,0,0,1,,,,,,0,78,92
168192,note_on,,0,0,2,,,,,,0,74,92
168192,note_off,,96,0,1,,,,,,0,80,64
168192,note_off,,192,0,2,,,,,,0,74,64
168288,note_on,,0,0,1,,,,,,0,76,92
168288,note_off,,96,0,1,,,,,,0,78,64
168384,note_on,,0,0,1,,,,,,0,78,92
168384,note_off,,192,0,2,,,,,,0,74,64
168384,note_on,,0,0,2,,,,,,0,72,92
168384,note_off,,96,0,1,,,,,,0,76,64
168480,note_on,,0,0,2,,,,,,0,71,92
168480,note_on,,0,0,1,,,,,,0,80,92
168480,note_off,,96,0,1,,,,,,0,78,64
168480,note_off,,96,0,2,,,,,,0,72,64
168576,note_on,,0,0,2,,,,,,0,72,92
168576,note_off,,96,0,2,,,,,,0,71,64
168576,note_on,,0,0,1,,,,,,0,81,92
168576,note_off,,96,0,1,,,,,,0,80,64
168768,note_on,,0,0,1,,,,,,0,76,92
168768,note_on,,0,0,1,,,,,,0,72,92
168768,note_off,,192,0,1,,,,,,0,81,64
168768,note_on,,0,0,2,,,,,,0,60,92
168768,note_off,,192,0,2,,,,,,0,72,64
168960,note_off,,192,0,2,,,,,,0,60,64
168960,note_off,,192,0,1,,,,,,0,76,64
168960,note_off,,0,0,1,,,,,,0,72,64
168960,note_on,,0,0,1,,,,,,0,72,92
168960,note_on,,0,0,1,,,,,,0,76,92
169056,note_on,,0,0,1,,,,,,0,77,92
169056,note_off,,96,0,1,,,,,,0,76,64
169056,note_off,,0,0,1,,,,,,0,72,64
169056,note_on,,0,0,1,,,,,,0,74,92
169152,note_on,,192,0,2,,,,,,0,69,92
169152,note_off,,96,0,1,,,,,,0,77,64
169152,note_on,,0,0,1,,,,,,0,72,92
169152,note_off,,0,0,1,,,,,,0,74,64
169152,note_on,,0,0,1,,,,,,0,76,92
169248,note_off,,96,0,1,,,,,,0,76,64
169248,note_off,,0,0,1,,,,,,0,72,64
169248,note_on,,0,0,1,,,,,,0,74,92
169248,note_on,,0,0,1,,,,,,0,77,92
169344,note_on,,0,0,2,,,,,,0,69,92
169344,note_off,,192,0,2,,,,,,0,69,64
169344,note_on,,0,0,1,,,,,,0,76,92
169344,note_off,,0,0,1,,,,,,0,74,64
169344,note_off,,96,0,1,,,,,,0,77,64
169344,note_on,,0,0,1,,,,,,0,72,92
169440,note_off,,96,0,1,,,,,,0,76,64
169440,note_off,,0,0,1,,,,,,0,72,64
169440,note_on,,0,0,1,,,,,,0,74,92
169440,note_on,,0,0,1,,,,,,0,77,92
169536,note_off,,192,0,2,,,,,,0,69,64
169536,note_off,,96,0,1,,,,,,0,77,64
169536,note_on,,0,0,2,,,,,,0,57,92
169536,note_off,,0,0,1,,,,,,0,74,64
169536,note_on,,0,0,1,,,,,,0,72,92
169536,note_on,,0,0,1,,,,,,0,76,92
169632,note_off,,96,0,1,,,,,,0,76,64
169632,note_off,,0,0,1,,,,,,0,72,64
169632,note_on,,0,0,1,,,,,,0,74,92
169632,note_on,,0,0,1,,,,,,0,77,92
169728,note_off,,192,0,2,,,,,,0,57,64
169728,note_on,,0,0,1,,,,,,0,76,92
169728,note_on,,0,0,1,,,,,,0,72,92
169728,note_off,,0,0,1,,,,,,0,74,64
169728,note_on,,0,0,2,,,,,,0,57,92
169728,note_off,,96,0,1,,,,,,0,77,64
169920,note_off,,192,0,1,,,,,,0,76,64
169920,note_on,,0,0,2,,,,,,0,62,92
169920,note_off,,192,0,2,,,,,,0,57,64
169920,note_off,,0,0,1,,,,,,0,72,64
169920,note_on,,0,0,1,,,,,,0,71,92
169920,note_on,,0,0,1,,,,,,0,74,92
170016,note_on,,0,0,1,,,,,,0,72,92
170016,note_on,,0,0,1,,,,,,0,69,92
170016,note_off,,96,0,1,,,,,,0,74,64
170016,note_off,,0,0,1,,,,,,0,71,64
170112,note_off,,192,0,2,,,,,,0,62,64
170112,note_off,,96,0,1,,,,,,0,72,64
170112,note_off,,0,0,1,,,,,,0,69,64
170112,note_on,,0,0,1,,,,,,0,69,92
170112,note_on,,0,0,1,,,,,,0,72,92
170112,note_on,,0,0,2,,,,,,0,64,92
170496,note_off,,384,0,1,,,,,,0,72,64
170496,note_off,,0,0,1,,,,,,0,69,64
170496,note_on,,0,0,1,,,,,,0,68,92
170496,note_on,,0,0,2,,,,,,0,52,92
170496,note_on,,0,0,1,,,,,,0,71,92
170496,note_off,,384,0,2,,,,,,0,64,64
170784,note_on,,0,0,1,,,,,,0,69,92
170784,note_off,,288,0,1,,,,,,0,71,64
170880,note_off,,0,0,1,,,,,,0,68,64
170880,note_off,,96,0,1,,,,,,0,69,64
170880,note_on,,0,0,1,,,,,,0,69,92
170880,note_off,,384,0,2,,,,,,0,52,64
170880,note_on,,0,0,2,,,,,,0,57,92
171072,note_off,,192,0,2,,,,,,0,57,64
171072,note_on,,0,0,2,,,,,,0,45,92
171264,note_off,,384,0,1,,,,,,0,69,64
171264,note_off,,192,0,2,,,,,,0,45,64
171456,note_on,,192,0,2,,,,,,0,57,92
171648,note_on,,0,0,2,,,,,,0,57,92
171648,note_off,,192,0,2,,,,,,0,57,64
171840,note_off,,192,0,2,,,,,,0,57,64
171840,note_on,,0,0,2,,,,,,0,59,92
171936,note_on,,0,0,2,,,,,,0,61,92
171936,note_off,,96,0,2,,,,,,0,59,64
172032,note_on,,0,0,2,,,,,,0,62,92
172032,note_off,,96,0,2,,,,,,0,61,64
172224,note_off,,192,0,2,,,,,,0,62,64
172224,note_on,,0,0,2,,,,,,0,50,92
172416,note_on,,1152,0,1,,,,,,0,77,92
172416,note_off,,192,0,2,,,,,,0,50,64
172608,note_on,,192,0,2,,,,,,0,62,92
172800,note_off,,192,0,2,,,,,,0,62,64
172800,note_on,,0,0,2,,,,,,0,62,92
172992,note_off,,192,0,2,,,,,,0,62,64
172992,note_on,,0,0,2,,,,,,0,60,92
173088,note_on,,0,0,2,,,,,,0,62,92
173088,note_off,,96,0,2,,,,,,0,60,64
173184,note_on,,0,0,2,,,,,,0,55,92
173184,note_off,,96,0,2,,,,,,0,62,64
173376,note_on,,0,0,2,,,,,,0,43,92
173376,note_off,,192,0,2,,,,,,0,55,64
173376,note_on,,0,0,1,,,,,,0,76,92
173376,note_off,,960,0,1,,,,,,0,77,64
173472,note_on,,0,0,1,,,,,,0,77,92
173472,note_off,,96,0,1,,,,,,0,76,64
173568,note_off,,192,0,2,,,,,,0,43,64
173568,note_on,,0,0,1,,,,,,0,70,92
173568,note_off,,96,0,1,,,,,,0,77,64
173568,note_on,,0,0,1,,,,,,0,79,92
173664,note_on,,0,0,1,,,,,,0,77,92
173664,note_off,,96,0,1,,,,,,0,79,64
173760,note_on,,192,0,2,,,,,,0,55,92
173760,note_on,,0,0,1,,,,,,0,76,92
173760,note_off,,96,0,1,,,,,,0,77,64
173856,note_on,,0,0,1,,,,,,0,74,92
173856,note_off,,96,0,1,,,,,,0,76,64
173952,note_off,,96,0,1,,,,,,0,74,64
173952,note_on,,0,0,1,,,,,,0,79,92
173952,note_off,,192,0,2,,,,,,0,55,64
173952,note_on,,0,0,2,,,,,,0,55,92
174048,note_off,,96,0,1,,,,,,0,79,64
174048,note_on,,0,0,1,,,,,,0,77,92
174144,note_off,,192,0,2,,,,,,0,55,64
174144,note_on,,0,0,2,,,,,,0,57,92
174144,note_off,,96,0,1,,,,,,0,77,64
174144,note_on,,0,0,1,,,,,,0,76,92
174240,note_on,,0,0,1,,,,,,0,74,92
174240,note_on,,0,0,2,,,,,,0,58,92
174240,note_off,,96,0,2,,,,,,0,57,64
174240,note_off,,96,0,1,,,,,,0,76,64
174336,note_on,,0,0,2,,,,,,0,60,92
174336,note_on,,0,0,1,,,,,,0,76,92
174336,note_off,,96,0,1,,,,,,0,74,64
174336,note_off,,96,0,2,,,,,,0,58,64
174528,note_on,,0,0,1,,,,,,0,69,92
174528,note_off,,192,0,1,,,,,,0,70,64
174528,note_off,,192,0,2,,,,,,0,60,64
174528,note_on,,0,0,2,,,,,,0,48,92
174624,note_on,,0,0,1,,,,,,0,70,92
174624,note_off,,96,0,1,,,,,,0,69,64
174720,note_on,,0,0,1,,,,,,0,72,92
174720,note_off,,96,0,1,,,,,,0,70,64
174720,note_off,,192,0,2,,,,,,0,48,64
174816,note_off,,96,0,1,,,,,,0,72,64
174816,note_on,,0,0,1,,,,,,0,70,92
174912,note_off,,96,0,1,,,,,,0,70,64
174912,note_on,,192,0,2,,,,,,0,60,92
174912,note_on,,0,0,1,,,,,,0,69,92
175008,note_off,,96,0,1,,,,,,0,69,64
175008,note_on,,0,0,1,,,,,,0,67,92
175104,note_off,,96,0,1,,,,,,0,67,64
175104,note_on,,0,0,2,,,,,,0,60,92
175104,note_off,,192,0,2,,,,,,0,60,64
175104,note_on,,0,0,1,,,,,,0,72,92
175200,note_off,,96,0,1,,,,,,0,72,64
175200,note_on,,0,0,1,,,,,,0,70,92
175296,note_on,,0,0,2,,,,,,0,58,92
175296,note_off,,192,0,2,,,,,,0,60,64
175296,note_on,,0,0,1,,,,,,0,69,92
175296,note_off,,96,0,1,,,,,,0,70,64
175392,note_on,,0,0,1,,,,,,0,67,92
175392,note_off,,96,0,2,,,,,,0,58,64
175392,note_on,,0,0,2,,,,,,0,60,92
175392,note_off,,96,0,1,,,,,,0,69,64
175488,note_off,,96,0,1,,,,,,0,67,64
175488,note_on,,0,0,1,,,,,,0,69,92
175488,note_off,,96,0,2,,,,,,0,60,64
175488,note_on,,0,0,2,,,,,,0,53,92
175680,note_on,,0,0,1,,,,,,0,74,92
175680,note_off,,192,0,2,,,,,,0,53,64
175680,note_off,,192,0,1,,,,,,0,76,64
175680,note_on,,0,0,2,,,,,,0,41,92
175776,note_on,,0,0,1,,,,,,0,76,92
175776,note_off,,96,0,1,,,,,,0,74,64
175872,note_on,,0,0,1,,,,,,0,77,92
175872,note_off,,96,0,1,,,,,,0,76,64
175872,note_off,,192,0,2,,,,,,0,41,64
175968,note_on,,0,0,1,,,,,,0,79,92
175968,note_off,,96,0,1,,,,,,0,77,64
176064,note_off,,96,0,1,,,,,,0,79,64
176064,note_on,,192,0,2,,,,,,0,53,92
176064,note_on,,0,0,1,,,,,,0,81,92
176160,note_on,,0,0,1,,,,,,0,79,92
176160,note_off,,96,0,1,,,,,,0,81,64
176256,note_on,,0,0,1,,,,,,0,77,92
176256,note_off,,96,0,1,,,,,,0,79,64
176256,note_off,,192,0,2,,,,,,0,53,64
176256,note_on,,0,0,2,,,,,,0,53,92
176352,note_on,,0,0,1,,,,,,0,76,92
176352,note_off,,96,0,1,,,,,,0,77,64
176448,note_off,,96,0,1,,,,,,0,76,64
176448,note_on,,0,0,1,,,,,,0,74,92
176448,note_on,,0,0,2,,,,,,0,55,92
176448,note_off,,192,0,2,,,,,,0,53,64
176544,note_on,,0,0,1,,,,,,0,73,92
176544,note_off,,96,0,1,,,,,,0,74,64
176544,note_off,,96,0,2,,,,,,0,55,64
176544,note_on,,0,0,2,,,,,,0,57,92
176640,note_on,,0,0,2,,,,,,0,58,92
176640,note_off,,96,0,2,,,,,,0,57,64
176640,note_off,,96,0,1,,,,,,0,73,64
176640,note_on,,0,0,1,,,,,,0,74,92
176832,note_on,,0,0,2,,,,,,0,46,92
176832,note_off,,192,0,2,,,,,,0,58,64
176832,note_off,,192,0,1,,,,,,0,69,64
176832,note_on,,0,0,1,,,,,,0,67,92
176928,note_off,,96,0,1,,,,,,0,67,64
176928,note_on,,0,0,1,,,,,,0,69,92
177024,note_off,,96,0,1,,,,,,0,69,64
177024,note_off,,192,0,2,,,,,,0,46,64
177024,note_on,,0,0,1,,,,,,0,70,92
177120,note_on,,0,0,1,,,,,,0,72,92
177120,note_off,,96,0,1,,,,,,0,70,64
177216,note_on,,192,0,2,,,,,,0,58,92
177216,note_on,,0,0,1,,,,,,0,74,92
177216,note_off,,0,0,1,,,,,,0,74,64
177216,note_off,,96,0,1,,,,,,0,72,64
177312,note_on,,96,0,1,,,,,,0,72,92
177408,note_on,,0,0,2,,,,,,0,58,92
177408,note_off,,96,0,1,,,,,,0,72,64
177408,note_on,,0,0,1,,,,,,0,70,92
177408,note_off,,192,0,2,,,,,,0,58,64
177504,note_on,,0,0,1,,,,,,0,69,92
177504,note_off,,96,0,1,,,,,,0,70,64
177600,note_off,,192,0,2,,,,,,0,58,64
177600,note_on,,0,0,2,,,,,,0,57,92
177600,note_on,,0,0,1,,,,,,0,67,92
177600,note_off,,96,0,1,,,,,,0,69,64
177696,note_off,,96,0,2,,,,,,0,57,64
177696,note_on,,0,0,1,,,,,,0,66,92
177696,note_off,,96,0,1,,,,,,0,67,64
177696,note_on,,0,0,2,,,,,,0,58,92
177792,note_off,,96,0,2,,,,,,0,58,64
177792,note_on,,0,0,2,,,,,,0,52,92
177792,note_on,,0,0,1,,,,,,0,67,92
177792,note_off,,96,0,1,,,,,,0,66,64
177984,note_on,,0,0,1,,,,,,0,76,92
177984,note_on,,0,0,2,,,,,,0,40,92
177984,note_off,,192,0,2,,,,,,0,52,64
177984,note_off,,192,0,1,,,,,,0,74,64
178080,note_on,,0,0,1,,,,,,0,69,92
178080,note_on,,0,0,1,,,,,,0,77,92
178080,note_off,,96,0,1,,,,,,0,76,64
178080,note_off,,0,0,1,,,,,,0,67,64
178176,note_off,,0,0,1,,,,,,0,69,64
178176,note_on,,0,0,1,,,,,,0,70,92
178176,note_on,,0,0,1,,,,,,0,79,92
178176,note_off,,192,0,2,,,,,,0,40,64
178176,note_off,,96,0,1,,,,,,0,77,64
178272,note_off,,96,0,1,,,,,,0,79,64
178272,note_on,,0,0,1,,,,,,0,81,92
178272,note_on,,0,0,1,,,,,,0,72,92
178272,note_off,,0,0,1,,,,,,0,70,64
178368,note_on,,0,0,1,,,,,,0,70,92
178368,note_off,,0,0,1,,,,,,0,72,64
178368,note_off,,96,0,1,,,,,,0,81,64
178368,note_on,,0,0,1,,,,,,0,79,92
178368,note_on,,192,0,2,,,,,,0,52,92
178464,note_off,,96,0,1,,,,,,0,79,64
178464,note_off,,0,0,1,,,,,,0,70,64
178464,note_on,,0,0,1,,,,,,0,69,92
178464,note_on,,0,0,1,,,,,,0,77,92
178560,note_off,,96,0,1,,,,,,0,77,64
178560,note_off,,0,0,1,,,,,,0,69,64
178560,note_on,,0,0,1,,,,,,0,67,92
178560,note_on,,0,0,1,,,,,,0,76,92
178560,note_on,,0,0,2,,,,,,0,52,92
178560,note_off,,192,0,2,,,,,,0,52,64
178656,note_off,,96,0,1,,,,,,0,76,64
178656,note_off,,0,0,1,,,,,,0,67,64
178656,note_on,,0,0,1,,,,,,0,69,92
178656,note_on,,0,0,1,,,,,,0,77,92
178752,note_off,,0,0,1,,,,,,0,69,64
178752,note_off,,96,0,1,,,,,,0,77,64
178752,note_off,,192,0,2,,,,,,0,52,64
178752,note_on,,0,0,1,,,,,,0,76,92
178752,note_on,,0,0,1,,,,,,0,67,92
178752,note_on,,0,0,2,,,,,,0,53,92
178848,note_on,,0,0,1,,,,,,0,74,92
178848,note_on,,0,0,1,,,,,,0,65,92
178848,note_off,,0,0,1,,,,,,0,67,64
178848,note_off,,96,0,1,,,,,,0,76,64
178848,note_off,,96,0,2,,,,,,0,53,64
178848,note_on,,0,0,2,,,,,,0,55,92
178944,note_on,,0,0,2,,,,,,0,57,92
178944,note_off,,96,0,2,,,,,,0,55,64
178944,note_off,,96,0,1,,,,,,0,74,64
178944,note_off,,0,0,1,,,,,,0,65,64
178944,note_on,,0,0,1,,,,,,0,74,92
178944,note_on,,0,0,1,,,,,,0,64,92
179136,note_off,,192,0,1,,,,,,0,74,64
179136,note_on,,0,0,1,,,,,,0,73,92
179136,note_on,,0,0,2,,,,,,0,45,92
179136,note_off,,192,0,2,,,,,,0,57,64
179328,note_off,,192,0,1,,,,,,0,73,64
179328,note_off,,0,0,1,,,,,,0,64,64
179328,note_off,,192,0,2,,,,,,0,45,64
179520,note_on,,192,0,2,,,,,,0,69,92
179520,note_on,,192,0,1,,,,,,0,73,92
179520,note_on,,0,0,1,,,,,,0,76,92
179712,note_on,,0,0,2,,,,,,0,74,92
179712,note_off,,192,0,1,,,,,,0,76,64
179712,note_on,,0,0,1,,,,,,0,77,92
179712,note_on,,0,0,1,,,,,,0,74,92
179712,note_off,,0,0,1,,,,,,0,73,64
179712,note_off,,192,0,2,,,,,,0,69,64
179808,note_off,,0,0,1,,,,,,0,74,64
179808,note_on,,0,0,1,,,,,,0,73,92
179808,note_off,,96,0,1,,,,,,0,77,64
179808,note_on,,0,0,1,,,,,,0,76,92
179904,note_off,,96,0,1,,,,,,0,76,64
179904,note_off,,0,0,1,,,,,,0,73,64
179904,note_on,,0,0,2,,,,,,0,62,92
179904,note_off,,192,0,2,,,,,,0,74,64
179904,note_on,,0,0,1,,,,,,0,77,92
179904,note_on,,0,0,1,,,,,,0,74,92
180000,note_off,,96,0,1,,,,,,0,77,64
180000,note_on,,0,0,1,,,,,,0,79,92
180000,note_on,,0,0,1,,,,,,0,76,92
180000,note_off,,0,0,1,,,,,,0,74,64
180096,note_on,,0,0,1,,,,,,0,76,92
180096,note_on,,0,0,1,,,,,,0,73,92
180096,note_off,,0,0,1,,,,,,0,76,64
180096,note_off,,96,0,1,,,,,,0,79,64
180096,note_on,,0,0,2,,,,,,0,69,92
180096,note_off,,192,0,2,,,,,,0,62,64
180192,note_off,,96,0,1,,,,,,0,76,64
180192,note_on,,0,0,1,,,,,,0,71,92
180192,note_on,,0,0,1,,,,,,0,74,92
180192,note_off,,0,0,1,,,,,,0,73,64
180288,note_on,,0,0,2,,,,,,0,57,92
180288,note_on,,0,0,1,,,,,,0,76,92
180288,note_on,,0,0,1,,,,,,0,73,92
180288,note_off,,0,0,1,,,,,,0,71,64
180288,note_off,,96,0,1,,,,,,0,74,64
180288,note_off,,192,0,2,,,,,,0,69,64
180480,note_off,,0,0,1,,,,,,0,73,64
180480,note_off,,192,0,1,,,,,,0,76,64
180480,note_off,,192,0,2,,,,,,0,57,64
180672,note_on,,192,0,2,,,,,,0,57,92
180672,note_on,,192,0,1,,,,,,0,64,92
180672,note_on,,0,0,1,,,,,,0,73,92
180864,note_off,,192,0,1,,,,,,0,73,64
180864,note_off,,0,0,1,,,,,,0,64,64
180864,note_on,,0,0,1,,,,,,0,65,92
180864,note_off,,192,0,2,,,,,,0,57,64
180864,note_on,,0,0,2,,,,,,0,62,92
180864,note_on,,0,0,1,,,,,,0,74,92
180960,note_on,,0,0,1,,,,,,0,64,92
180960,note_off,,96,0,1,,,,,,0,74,64
180960,note_off,,0,0,1,,,,,,0,65,64
180960,note_on,,0,0,1,,,,,,0,73,92
181056,note_on,,0,0,1,,,,,,0,74,92
181056,note_off,,96,0,1,,,,,,0,73,64
181056,note_on,,0,0,2,,,,,,0,50,92
181056,note_off,,192,0,2,,,,,,0,62,64
181056,note_off,,0,0,1,,,,,,0,64,64
181056,note_on,,0,0,1,,,,,,0,65,92
181152,note_off,,96,0,1,,,,,,0,74,64
181152,note_off,,0,0,1,,,,,,0,65,64
181152,note_on,,0,0,1,,,,,,0,67,92
181152,note_on,,0,0,1,,,,,,0,76,92
181248,note_off,,192,0,2,,,,,,0,50,64
181248,note_on,,0,0,2,,,,,,0,57,92
181248,note_off,,96,0,1,,,,,,0,76,64
181248,note_on,,0,0,1,,,,,,0,73,92
181248,note_on,,0,0,1,,,,,,0,64,92
181248,note_off,,0,0,1,,,,,,0,67,64
181344,note_off,,96,0,1,,,,,,0,64,64
181344,note_off,,0,0,1,,,,,,0,73,64
181344,note_on,,0,0,1,,,,,,0,71,92
181344,note_on,,0,0,1,,,,,,0,62,92
181440,note_on,,0,0,1,,,,,,0,73,92
181440,note_off,,192,0,2,,,,,,0,57,64
181440,note_off,,0,0,1,,,,,,0,71,64
181440,note_off,,96,0,1,,,,,,0,62,64
181440,note_on,,0,0,2,,,,,,0,45,92
181440,note_on,,0,0,1,,,,,,0,64,92
181632,note_off,,192,0,1,,,,,,0,73,64
181632,note_off,,192,0,2,,,,,,0,45,64
181632,note_off,,0,0,1,,,,,,0,64,64
181824,note_on,,192,0,1,,,,,,0,73,92
181824,note_on,,0,0,1,,,,,,0,76,92
181824,note_on,,192,0,2,,,,,,0,69,92
182016,note_on,,0,0,1,,,,,,0,74,92
182016,note_off,,192,0,1,,,,,,0,76,64
182016,note_off,,0,0,1,,,,,,0,73,64
182016,note_on,,0,0,1,,,,,,0,77,92
182016,note_off,,192,0,2,,,,,,0,69,64
182016,note_on,,0,0,2,,,,,,0,74,92
182112,note_off,,0,0,1,,,,,,0,77,64
182112,note_on,,0,0,1,,,,,,0,73,92
182112,note_on,,0,0,1,,,,,,0,76,92
182112,note_off,,96,0,1,,,,,,0,74,64
182208,note_off,,96,0,1,,,,,,0,73,64
182208,note_off,,0,0,1,,,,,,0,76,64
182208,note_on,,0,0,1,,,,,,0,77,92
182208,note_on,,0,0,1,,,,,,0,74,92
182208,note_off,,192,0,2,,,,,,0,74,64
182208,note_on,,0,0,2,,,,,,0,62,92
182304,note_off,,96,0,1,,,,,,0,74,64
182304,note_off,,0,0,1,,,,,,0,77,64
182304,note_on,,0,0,1,,,,,,0,79,92
182304,note_on,,0,0,1,,,,,,0,76,92
182400,note_on,,0,0,1,,,,,,0,73,92
182400,note_off,,96,0,1,,,,,,0,76,64
182400,note_off,,192,0,2,,,,,,0,62,64
182400,note_on,,0,0,1,,,,,,0,76,92
182400,note_on,,0,0,2,,,,,,0,69,92
182400,note_off,,0,0,1,,,,,,0,79,64
182592,note_off,,192,0,2,,,,,,0,69,64
182592,note_on,,0,0,2,,,,,,0,57,92
182688,note_on,,0,0,1,,,,,,0,77,92
182688,note_on,,0,0,1,,,,,,0,74,92
182688,note_off,,0,0,1,,,,,,0,73,64
182688,note_off,,288,0,1,,,,,,0,76,64
182784,note_on,,0,0,1,,,,,,0,73,92
182784,note_off,,0,0,1,,,,,,0,74,64
182784,note_off,,96,0,1,,,,,,0,77,64
182784,note_on,,0,0,1,,,,,,0,76,92
182784,note_off,,192,0,2,,,,,,0,57,64
182976,note_on,,192,0,2,,,,,,0,69,92
183072,note_off,,288,0,1,,,,,,0,76,64
183072,note_on,,0,0,1,,,,,,0,77,92
183072,note_on,,0,0,1,,,,,,0,74,92
183072,note_off,,0,0,1,,,,,,0,73,64
183168,note_on,,0,0,1,,,,,,0,76,92
183168,note_on,,0,0,1,,,,,,0,73,92
183168,note_off,,96,0,1,,,,,,0,77,64
183168,note_off,,0,0,1,,,,,,0,74,64
183168,note_on,,0,0,2,,,,,,0,69,92
183168,note_off,,192,0,2,,,,,,0,69,64
183360,note_off,,192,0,2,,,,,,0,69,64
183360,note_on,,0,0,2,,,,,,0,57,92
183456,note_off,,288,0,1,,,,,,0,76,64
183456,note_off,,0,0,1,,,,,,0,73,64
183456,note_on,,0,0,1,,,,,,0,74,92
183456,note_on,,0,0,1,,,,,,0,77,92
183552,note_off,,96,0,1,,,,,,0,77,64
183552,note_off,,192,0,2,,,,,,0,57,64
183552,note_on,,0,0,2,,,,,,0,69,92
183552,note_on,,0,0,1,,,,,,0,76,92
183552,note_on,,0,0,1,,,,,,0,79,92
183552,note_off,,0,0,1,,,,,,0,74,64
183744,note_on,,0,0,2,,,,,,0,57,92
183744,note_off,,192,0,2,,,,,,0,69,64
183936,note_off,,192,0,2,,,,,,0,57,64
184128,note_on,,192,0,2,,,,,,0,69,92
184128,note_off,,576,0,1,,,,,,0,79,64
184128,note_off,,0,0,1,,,,,,0,76,64
184128,note_on,,0,0,1,,,,,,0,77,92
184128,note_on,,0,0,1,,,,,,0,81,92
184224,note_on,,0,0,1,,,,,,0,79,92
184224,note_on,,0,0,1,,,,,,0,76,92
184224,note_off,,0,0,1,,,,,,0,77,64
184224,note_off,,96,0,1,,,,,,0,81,64
184320,note_on,,0,0,2,,,,,,0,69,92
184320,note_off,,0,0,1,,,,,,0,76,64
184320,note_on,,0,0,1,,,,,,0,77,92
184320,note_on,,0,0,1,,,,,,0,81,92
184320,note_off,,192,0,2,,,,,,0,69,64
184320,note_off,,96,0,1,,,,,,0,79,64
184416,note_on,,0,0,1,,,,,,0,79,92
184416,note_on,,0,0,1,,,,,,0,76,92
184416,note_off,,0,0,1,,,,,,0,77,64
184416,note_off,,96,0,1,,,,,,0,81,64
184512,note_off,,96,0,1,,,,,,0,79,64
184512,note_off,,0,0,1,,,,,,0,76,64
184512,note_on,,0,0,1,,,,,,0,74,92
184512,note_on,,0,0,1,,,,,,0,77,92
184512,note_off,,192,0,2,,,,,,0,69,64
184512,note_on,,0,0,2,,,,,,0,57,92
184608,note_off,,96,0,1,,,,,,0,77,64
184608,note_off,,0,0,1,,,,,,0,74,64
184608,note_on,,0,0,1,,,,,,0,73,92
184608,note_on,,0,0,1,,,,,,0,76,92
184704,note_on,,0,0,2,,,,,,0,74,92
184704,note_off,,192,0,2,,,,,,0,57,64
184704,note_off,,0,0,1,,,,,,0,73,64
184704,note_on,,0,0,1,,,,,,0,74,92
184704,note_off,,96,0,1,,,,,,0,76,64
184704,note_on,,0,0,1,,,,,,0,77,92
184896,note_off,,192,0,2,,,,,,0,74,64
184896,note_on,,0,0,2,,,,,,0,62,92
184896,note_on,,0,0,1,,,,,,0,76,92
184896,note_on,,0,0,1,,,,,,0,79,92
184896,note_off,,0,0,1,,,,,,0,74,64
184896,note_off,,192,0,1,,,,,,0,77,64
184992,note_on,,0,0,1,,,,,,0,81,92
184992,note_on,,0,0,1,,,,,,0,77,92
184992,note_off,,96,0,1,,,,,,0,79,64
184992,note_off,,0,0,1,,,,,,0,76,64
185088,note_off,,0,0,1,,,,,,0,77,64
185088,note_on,,0,0,1,,,,,,0,74,92
185088,note_on,,0,0,1,,,,,,0,77,92
185088,note_off,,192,0,2,,,,,,0,62,64
185088,note_off,,96,0,1,,,,,,0,81,64
185280,note_on,,192,0,2,,,,,,0,67,92
185472,note_on,,0,0,2,,,,,,0,69,92
185472,note_off,,192,0,2,,,,,,0,67,64
185472,note_off,,384,0,1,,,,,,0,77,64
185472,note_on,,0,0,1,,,,,,0,73,92
185472,note_on,,0,0,1,,,,,,0,76,92
185472,note_off,,0,0,1,,,,,,0,74,64
185664,note_off,,192,0,2,,,,,,0,69,64
185664,note_on,,0,0,2,,,,,,0,57,92
185760,note_on,,0,0,1,,,,,,0,74,92
185760,note_off,,288,0,1,,,,,,0,76,64
185856,note_on,,0,0,1,,,,,,0,74,92
185856,note_off,,96,0,1,,,,,,0,74,64
185856,note_off,,192,0,2,,,,,,0,57,64
185856,note_on,,0,0,2,,,,,,0,62,92
185856,note_off,,0,0,1,,,,,,0,73,64
186048,note_on,,0,0,2,,,,,,0,50,92
186048,note_off,,192,0,2,,,,,,0,62,64
186240,note_off,,192,0,2,,,,,,0,50,64
186240,note_off,,384,0,1,,,,,,0,74,64
186432,note_on,,192,0,1,,,,,,0,64,92
186432,note_on,,0,0,1,,,,,,0,73,92
186432,note_on,,192,0,2,,,,,,0,57,92
186624,note_on,,0,0,1,,,,,,0,65,92
186624,note_on,,0,0,2,,,,,,0,62,92
186624,note_off,,192,0,2,,,,,,0,57,64
186624,note_off,,192,0,1,,,,,,0,73,64
186624,note_off,,0,0,1,,,,,,0,64,64
186624,note_on,,0,0,1,,,,,,0,74,92
186720,note_on,,0,0,1,,,,,,0,73,92
186720,note_on,,0,0,1,,,,,,0,64,92
186720,note_off,,96,0,1,,,,,,0,74,64
186720,note_off,,0,0,1,,,,,,0,65,64
186816,note_on,,0,0,1,,,,,,0,65,92
186816,note_off,,0,0,1,,,,,,0,64,64
186816,note_off,,96,0,1,,,,,,0,73,64
186816,note_on,,0,0,2,,,,,,0,50,92
186816,note_on,,0,0,1,,,,,,0,74,92
186816,note_off,,192,0,2,,,,,,0,62,64
186912,note_on,,0,0,1,,,,,,0,76,92
186912,note_off,,0,0,1,,,,,,0,65,64
186912,note_on,,0,0,1,,,,,,0,67,92
186912,note_off,,96,0,1,,,,,,0,74,64
187008,note_off,,0,0,1,,,,,,0,67,64
187008,note_off,,192,0,2,,,,,,0,50,64
187008,note_on,,0,0,2,,,,,,0,57,92
187008,note_off,,96,0,1,,,,,,0,76,64
187008,note_on,,0,0,1,,,,,,0,64,92
187008,note_on,,0,0,1,,,,,,0,73,92
187200,note_off,,192,0,2,,,,,,0,57,64
187200,note_on,,0,0,2,,,,,,0,45,92
187296,note_off,,288,0,1,,,,,,0,73,64
187296,note_off,,0,0,1,,,,,,0,64,64
187296,note_on,,0,0,1,,,,,,0,65,92
187296,note_on,,0,0,1,,,,,,0,74,92
187392,note_off,,192,0,2,,,,,,0,45,64
187392,note_off,,96,0,1,,,,,,0,74,64
187392,note_off,,0,0,1,,,,,,0,65,64
187392,note_on,,0,0,1,,,,,,0,64,92
187392,note_on,,0,0,1,,,,,,0,73,92
187584,note_on,,192,0,2,,,,,,0,57,92
187680,note_off,,288,0,1,,,,,,0,73,64
187680,note_off,,0,0,1,,,,,,0,64,64
187680,note_on,,0,0,1,,,,,,0,74,92
187680,note_on,,0,0,1,,,,,,0,65,92
187776,note_on,,0,0,1,,,,,,0,73,92
187776,note_on,,0,0,1,,,,,,0,64,92
187776,note_off,,0,0,1,,,,,,0,65,64
187776,note_off,,96,0,1,,,,,,0,74,64
187776,note_on,,0,0,2,,,,,,0,57,92
187776,note_off,,192,0,2,,,,,,0,57,64
187968,note_on,,0,0,2,,,,,,0,45,92
187968,note_off,,192,0,2,,,,,,0,57,64
188064,note_on,,0,0,1,,,,,,0,65,92
188064,note_off,,0,0,1,,,,,,0,64,64
188064,note_off,,288,0,1,,,,,,0,73,64
188064,note_on,,0,0,1,,,,,,0,74,92
188160,note_on,,0,0,2,,,,,,0,57,92
188160,note_on,,0,0,1,,,,,,0,76,92
188160,note_on,,0,0,1,,,,,,0,67,92
188160,note_off,,0,0,1,,,,,,0,65,64
188160,note_off,,96,0,1,,,,,,0,74,64
188160,note_off,,192,0,2,,,,,,0,45,64
188352,note_on,,0,0,2,,,,,,0,45,92
188352,note_off,,192,0,2,,,,,,0,57,64
188544,note_off,,192,0,2,,,,,,0,45,64
188736,note_off,,0,0,1,,,,,,0,67,64
188736,note_on,,0,0,1,,,,,,0,69,92
188736,note_on,,0,0,1,,,,,,0,77,92
188736,note_on,,192,0,2,,,,,,0,57,92
188736,note_off,,576,0,1,,,,,,0,76,64
188832,note_off,,96,0,1,,,,,,0,77,64
188832,note_on,,0,0,1,,,,,,0,67,92
188832,note_off,,0,0,1,,,,,,0,69,64
188832,note_on,,0,0,1,,,,,,0,76,92
188928,note_on,,0,0,2,,,,,,0,57,92
188928,note_off,,192,0,2,,,,,,0,57,64
188928,note_on,,0,0,1,,,,,,0,77,92
188928,note_on,,0,0,1,,,,,,0,69,92
188928,note_off,,0,0,1,,,,,,0,67,64
188928,note_off,,96,0,1,,,,,,0,76,64
189024,note_off,,0,0,1,,,,,,0,69,64
189024,note_off,,96,0,1,,,,,,0,77,64
189024,note_on,,0,0,1,,,,,,0,67,92
189024,note_on,,0,0,1,,,,,,0,76,92
189120,note_off,,96,0,1,,,,,,0,76,64
189120,note_off,,0,0,1,,,,,,0,67,64
189120,note_on,,0,0,1,,,,,,0,65,92
189120,note_on,,0,0,1,,,,,,0,74,92
189120,note_on,,0,0,2,,,,,,0,45,92
189120,note_off,,192,0,2,,,,,,0,57,64
189216,note_off,,96,0,1,,,,,,0,74,64
189216,note_off,,0,0,1,,,,,,0,65,64
189216,note_on,,0,0,1,,,,,,0,64,92
189216,note_on,,0,0,1,,,,,,0,73,92
189312,note_off,,192,0,2,,,,,,0,45,64
189312,note_on,,0,0,2,,,,,,0,62,92
189312,note_on,,0,0,1,,,,,,0,74,92
189312,note_on,,0,0,1,,,,,,0,65,92
189312,note_off,,96,0,1,,,,,,0,73,64
189312,note_off,,0,0,1,,,,,,0,64,64
189504,note_on,,0,0,1,,,,,,0,76,92
189504,note_on,,0,0,1,,,,,,0,67,92
189504,note_off,,0,0,1,,,,,,0,65,64
189504,note_off,,192,0,2,,,,,,0,62,64
189504,note_off,,192,0,1,,,,,,0,74,64
189504,note_on,,0,0,2,,,,,,0,50,92
189600,note_off,,0,0,1,,,,,,0,67,64
189600,note_off,,96,0,1,,,,,,0,76,64
189600,note_on,,0,0,1,,,,,,0,69,92
189600,note_on,,0,0,1,,,,,,0,77,92
189696,note_off,,96,0,1,,,,,,0,77,64
189696,note_off,,192,0,2,,,,,,0,50,64
189696,note_off,,0,0,1,,,,,,0,69,64
189696,note_on,,0,0,1,,,,,,0,65,92
189696,note_on,,0,0,1,,,,,,0,74,92
189888,note_on,,192,0,2,,,,,,0,55,92
190080,note_on,,0,0,1,,,,,,0,73,92
190080,note_on,,0,0,1,,,,,,0,64,92
190080,note_off,,0,0,1,,,,,,0,65,64
190080,note_off,,384,0,1,,,,,,0,74,64
190080,note_on,,0,0,2,,,,,,0,57,92
190080,note_off,,192,0,2,,,,,,0,55,64
190272,note_on,,0,0,2,,,,,,0,45,92
190272,note_off,,192,0,2,,,,,,0,57,64
190368,note_on,,0,0,1,,,,,,0,62,92
190368,note_off,,288,0,1,,,,,,0,64,64
190464,note_on,,0,0,1,,,,,,0,74,92
190464,note_on,,0,0,1,,,,,,0,62,92
190464,note_off,,0,0,1,,,,,,0,73,64
190464,note_off,,192,0,2,,,,,,0,45,64
190464,note_off,,96,0,1,,,,,,0,62,64
190464,note_on,,0,0,2,,,,,,0,62,92
190656,note_on,,0,0,2,,,,,,0,50,92
190656,note_off,,192,0,2,,,,,,0,62,64
190848,note_off,,384,0,1,,,,,,0,74,64
190848,note_off,,0,0,1,,,,,,0,62,64
190848,note_off,,192,0,2,,,,,,0,50,64
191040,note_on,,192,0,2,,,,,,0,62,92
191040,note_on,,192,0,1,,,,,,0,74,92
191232,note_off,,192,0,1,,,,,,0,74,64
191232,note_on,,0,0,1,,,,,,0,74,92
191232,note_off,,192,0,2,,,,,,0,62,64
191232,note_on,,0,0,2,,,,,,0,62,92
191424,note_on,,0,0,2,,,,,,0,60,92
191424,note_off,,192,0,2,,,,,,0,62,64
191424,note_off,,192,0,1,,,,,,0,74,64
191424,note_on,,0,0,1,,,,,,0,72,92
191520,note_off,,96,0,2,,,,,,0,60,64
191520,note_on,,0,0,2,,,,,,0,58,92
191520,note_on,,0,0,1,,,,,,0,70,92
191520,note_off,,96,0,1,,,,,,0,72,64
191616,note_off,,96,0,1,,,,,,0,70,64
191616,note_on,,0,0,1,,,,,,0,72,92
191616,note_on,,0,0,2,,,,,,0,60,92
191616,note_off,,96,0,2,,,,,,0,58,64
191808,note_off,,192,0,1,,,,,,0,72,64
191808,note_on,,0,0,1,,,,,,0,60,92
191808,note_off,,192,0,2,,,,,,0,60,64
191808,note_on,,0,0,2,,,,,,0,48,92
192000,note_off,,192,0,1,,,,,,0,60,64
192000,note_off,,192,0,2,,,,,,0,48,64
192192,note_on,,192,0,2,,,,,,0,60,92
192192,note_on,,192,0,1,,,,,,0,72,92
192384,note_off,,192,0,2,,,,,,0,60,64
192384,note_on,,0,0,2,,,,,,0,60,92
192384,note_off,,192,0,1,,,,,,0,72,64
192384,note_on,,0,0,1,,,,,,0,72,92
192576,note_off,,192,0,1,,,,,,0,72,64
192576,note_off,,192,0,2,,,,,,0,60,64
192576,note_on,,0,0,2,,,,,,0,58,92
192576,note_on,,0,0,1,,,,,,0,70,92
192672,note_off,,96,0,1,,,,,,0,70,64
192672,note_on,,0,0,1,,,,,,0,69,92
192672,note_on,,0,0,2,,,,,,0,57,92
192672,note_off,,96,0,2,,,,,,0,58,64
192768,note_on,,0,0,1,,,,,,0,70,92
192768,note_off,,96,0,1,,,,,,0,69,64
192768,note_off,,96,0,2,,,,,,0,57,64
192768,note_on,,0,0,2,,,,,,0,58,92
192960,note_off,,192,0,2,,,,,,0,58,64
192960,note_on,,0,0,2,,,,,,0,46,92
192960,note_off,,192,0,1,,,,,,0,70,64
192960,note_on,,0,0,1,,,,,,0,58,92
193152,note_off,,192,0,1,,,,,,0,58,64
193152,note_off,,192,0,2,,,,,,0,46,64
193344,note_on,,192,0,1,,,,,,0,70,92
193344,note_on,,192,0,2,,,,,,0,58,92
193536,note_off,,192,0,1,,,,,,0,70,64
193536,note_on,,0,0,2,,,,,,0,58,92
193536,note_off,,192,0,2,,,,,,0,58,64
193536,note_on,,0,0,1,,,,,,0,70,92
193728,note_on,,0,0,1,,,,,,0,69,92
193728,note_off,,192,0,2,,,,,,0,58,64
193728,note_off,,192,0,1,,,,,,0,70,64
193728,note_on,,0,0,2,,,,,,0,57,92
193824,note_off,,96,0,2,,,,,,0,57,64
193824,note_on,,0,0,1,,,,,,0,67,92
193824,note_on,,0,0,2,,,,,,0,55,92
193824,note_off,,96,0,1,,,,,,0,69,64
193920,note_off,,96,0,1,,,,,,0,67,64
193920,note_on,,0,0,1,,,,,,0,69,92
193920,note_on,,0,0,2,,,,,,0,57,92
193920,note_off,,96,0,2,,,,,,0,55,64
194112,note_off,,192,0,1,,,,,,0,69,64
194112,note_on,,0,0,1,,,,,,0,57,92
194112,note_on,,0,0,2,,,,,,0,45,92
194112,note_off,,192,0,2,,,,,,0,57,64
194304,note_off,,192,0,2,,,,,,0,45,64
194304,note_off,,192,0,1,,,,,,0,57,64
194496,note_on,,192,0,1,,,,,,0,69,92
194496,note_on,,192,0,2,,,,,,0,57,92
194688,note_off,,192,0,2,,,,,,0,57,64
194688,note_on,,0,0,2,,,,,,0,57,92
194688,note_off,,192,0,1,,,,,,0,69,64
194688,note_on,,0,0,1,,,,,,0,69,92
194880,note_off,,192,0,2,,,,,,0,57,64
194880,note_on,,0,0,2,,,,,,0,45,92
194880,note_off,,192,0,1,,,,,,0,69,64
194880,note_on,,0,0,1,,,,,,0,57,92
195072,note_off,,192,0,2,,,,,,0,45,64
195072,note_on,,0,0,2,,,,,,0,38,92
195072,note_on,,0,0,2,,,,,,0,50,92
195072,note_off,,192,0,1,,,,,,0,57,64
195072,note_on,,0,0,1,,,,,,0,62,92
195072,set_tempo,923070,50688,1,0,,,,,,,,
196224,note_off,,1152,0,1,,,,,,0,62,64
196224,note_off,,0,0,2,,,,,,0,38,64
196224,note_off,,1152,0,2,,,,,,0,50,64
197376,set_tempo,521730,2304,1,0,,,,,,,,
197568,note_on,,1344,0,1,,,,,,0,69,92
197760,note_off,,192,0,1,,,,,,0,69,64
197760,note_on,,0,0,1,,,,,,0,67,92
197952,note_on,,0,0,1,,,,,,0,65,92
197952,note_off,,192,0,1,,,,,,0,67,64
198144,note_on,,0,0,1,,,,,,0,64,92
198144,note_off,,192,0,1,,,,,,0,65,64
198336,note_on,,0,0,1,,,,,,0,62,92
198336,note_off,,192,0,1,,,,,,0,64,64
198528,note_on,,0,0,1,,,,,,0,60,92
198528,note_off,,192,0,1,,,,,,0,62,64
198720,note_on,,0,0,1,,,,,,0,65,92
198720,note_off,,192,0,1,,,,,,0,60,64
198912,note_on,,0,0,1,,,,,,0,64,92
198912,note_off,,192,0,1,,,,,,0,65,64
199104,note_off,,192,0,1,,,,,,0,64,64
199104,note_on,,0,0,1,,,,,,0,62,92
199296,note_off,,192,0,1,,,,,,0,62,64
199296,note_on,,0,0,1,,,,,,0,60,92
199488,note_off,,192,0,1,,,,,,0,60,64
199488,note_on,,0,0,1,,,,,,0,59,92
199680,note_on,,0,0,1,,,,,,0,57,92
199680,note_off,,192,0,1,,,,,,0,59,64
199872,note_on,,0,0,1,,,,,,0,69,92
199872,note_on,,0,0,1,,,,,,0,72,92
199872,note_off,,192,0,1,,,,,,0,57,64
200064,note_off,,192,0,1,,,,,,0,72,64
200064,note_off,,0,0,1,,,,,,0,69,64
200064,note_on,,0,0,1,,,,,,0,71,92
200064,note_on,,0,0,1,,,,,,0,67,92
200256,note_on,,0,0,1,,,,,,0,69,92
200256,note_on,,0,0,1,,,,,,0,65,92
200256,note_off,,192,0,1,,,,,,0,71,64
200256,note_off,,0,0,1,,,,,,0,67,64
200448,note_on,,0,0,1,,,,,,0,64,92
200448,note_off,,0,0,1,,,,,,0,65,64
200448,note_off,,192,0,1,,,,,,0,69,64
200448,note_on,,0,0,1,,,,,,0,67,92
200640,note_off,,0,0,1,,,,,,0,64,64
200640,note_on,,0,0,1,,,,,,0,65,92
200640,note_on,,0,0,1,,,,,,0,62,92
200640,note_off,,192,0,1,,,,,,0,67,64
200832,note_off,,192,0,1,,,,,,0,65,64
200832,note_on,,0,0,1,,,,,,0,64,92
200832,note_off,,0,0,1,,,,,,0,62,64
200832,note_on,,0,0,1,,,,,,0,60,92
201024,note_on,,0,0,1,,,,,,0,69,92
201024,note_on,,0,0,1,,,,,,0,65,92
201024,note_off,,0,0,1,,,,,,0,64,64
201024,note_off,,192,0,1,,,,,,0,60,64
201216,note_off,,0,0,1,,,,,,0,65,64
201216,note_on,,0,0,1,,,,,,0,64,92
201216,note_on,,0,0,1,,,,,,0,67,92
201216,note_off,,192,0,1,,,,,,0,69,64
201408,note_on,,0,0,1,,,,,,0,65,92
201408,note_off,,192,0,1,,,,,,0,67,64
201408,note_off,,0,0,1,,,,,,0,64,64
201408,note_on,,0,0,1,,,,,,0,62,92
201600,note_off,,192,0,1,,,,,,0,65,64
201600,note_off,,0,0,1,,,,,,0,62,64
201600,note_on,,0,0,1,,,,,,0,60,92
201600,note_on,,0,0,1,,,,,,0,64,92
201792,note_off,,192,0,1,,,,,,0,64,64
201792,note_off,,0,0,1,,,,,,0,60,64
201792,note_on,,0,0,1,,,,,,0,59,92
201792,note_on,,0,0,1,,,,,,0,62,92
201984,note_off,,0,0,1,,,,,,0,59,64
201984,note_on,,0,0,1,,,,,,0,60,92
201984,note_on,,0,0,1,,,,,,0,57,92
201984,note_off,,192,0,1,,,,,,0,62,64
202176,note_off,,192,0,1,,,,,,0,60,64
202176,note_on,,0,0,1,,,,,,0,72,92
202176,note_on,,0,0,1,,,,,,0,81,92
202176,note_on,,5952,0,2,,,,,,0,69,92
202176,note_off,,0,0,1,,,,,,0,57,64
202368,note_off,,192,0,2,,,,,,0,69,64
202368,note_on,,0,0,2,,,,,,0,67,92
202368,note_on,,0,0,1,,,,,,0,71,92
202368,note_off,,0,0,1,,,,,,0,72,64
202368,note_off,,192,0,1,,,,,,0,81,64
202368,note_on,,0,0,1,,,,,,0,81,92
202560,note_off,,192,0,1,,,,,,0,81,64
202560,note_off,,0,0,1,,,,,,0,71,64
202560,note_on,,0,0,1,,,,,,0,81,92
202560,note_on,,0,0,2,,,,,,0,65,92
202560,note_off,,192,0,2,,,,,,0,67,64
202560,note_on,,0,0,1,,,,,,0,69,92
202752,note_off,,192,0,2,,,,,,0,65,64
202752,note_off,,192,0,1,,,,,,0,81,64
202752,note_on,,0,0,1,,,,,,0,67,92
202752,note_off,,0,0,1,,,,,,0,69,64
202752,note_on,,0,0,1,,,,,,0,81,92
202752,note_on,,0,0,2,,,,,,0,64,92
202944,note_off,,0,0,1,,,,,,0,67,64
202944,note_off,,192,0,2,,,,,,0,64,64
202944,note_on,,0,0,1,,,,,,0,65,92
202944,note_on,,0,0,1,,,,,,0,81,92
202944,note_off,,192,0,1,,,,,,0,81,64
202944,note_on,,0,0,2,,,,,,0,62,92
203136,note_on,,0,0,2,,,,,,0,60,92
203136,note_off,,192,0,2,,,,,,0,62,64
203136,note_off,,192,0,1,,,,,,0,81,64
203136,note_on,,0,0,1,,,,,,0,64,92
203136,note_off,,0,0,1,,,,,,0,65,64
203136,note_on,,0,0,1,,,,,,0,81,92
203328,note_off,,192,0,1,,,,,,0,81,64
203328,note_off,,0,0,1,,,,,,0,64,64
203328,note_on,,0,0,1,,,,,,0,69,92
203328,note_on,,0,0,1,,,,,,0,81,92
203328,note_off,,192,0,2,,,,,,0,60,64
203328,note_on,,0,0,2,,,,,,0,65,92
203520,note_off,,192,0,2,,,,,,0,65,64
203520,note_off,,0,0,1,,,,,,0,69,64
203520,note_on,,0,0,1,,,,,,0,81,92
203520,note_on,,0,0,1,,,,,,0,67,92
203520,note_off,,192,0,1,,,,,,0,81,64
203520,note_on,,0,0,2,,,,,,0,64,92
203712,note_off,,192,0,2,,,,,,0,64,64
203712,note_on,,0,0,2,,,,,,0,62,92
203712,note_on,,0,0,1,,,,,,0,65,92
203712,note_on,,0,0,1,,,,,,0,81,92
203712,note_off,,0,0,1,,,,,,0,67,64
203712,note_off,,192,0,1,,,,,,0,81,64
203904,note_on,,0,0,1,,,,,,0,64,92
203904,note_off,,0,0,1,,,,,,0,65,64
203904,note_off,,192,0,1,,,,,,0,81,64
203904,note_on,,0,0,2,,,,,,0,60,92
203904,note_on,,0,0,1,,,,,,0,81,92
203904,note_off,,192,0,2,,,,,,0,62,64
204096,note_off,,192,0,1,,,,,,0,81,64
204096,note_on,,0,0,2,,,,,,0,59,92
204096,note_on,,0,0,1,,,,,,0,81,92
204096,note_on,,0,0,1,,,,,,0,62,92
204096,note_off,,0,0,1,,,,,,0,64,64
204096,note_off,,192,0,2,,,,,,0,60,64
204288,note_on,,0,0,1,,,,,,0,81,92
204288,note_on,,0,0,1,,,,,,0,60,92
204288,note_off,,0,0,1,,,,,,0,62,64
204288,note_off,,192,0,1,,,,,,0,81,64
204288,note_on,,0,0,2,,,,,,0,57,92
204288,note_off,,192,0,2,,,,,,0,59,64
204480,note_off,,192,0,1,,,,,,0,81,64
204480,note_off,,192,0,2,,,,,,0,57,64
204480,note_on,,0,0,2,,,,,,0,72,92
204480,note_on,,0,0,1,,,,,,0,81,92
204480,note_on,,0,0,1,,,,,,0,84,92
204480,note_off,,0,0,1,,,,,,0,60,64
204480,note_on,,61632,0,3,,,,,,0,57,102
204672,note_off,,192,0,3,,,,,,0,57,64
204672,note_on,,0,0,3,,,,,,0,55,102
204672,note_off,,192,0,2,,,,,,0,72,64
204672,note_on,,0,0,2,,,,,,0,71,92
204672,note_on,,0,0,1,,,,,,0,81,92
204672,note_on,,0,0,1,,,,,,0,84,92
204672,note_off,,0,0,1,,,,,,0,84,64
204672,note_off,,192,0,1,,,,,,0,81,64
204864,note_off,,192,0,2,,,,,,0,71,64
204864,note_on,,0,0,1,,,,,,0,84,92
204864,note_on,,0,0,3,,,,,,0,53,102
204864,note_on,,0,0,1,,,,,,0,81,92
204864,note_off,,0,0,1,,,,,,0,84,64
204864,note_off,,192,0,1,,,,,,0,81,64
204864,note_on,,0,0,2,,,,,,0,69,92
204864,note_off,,192,0,3,,,,,,0,55,64
205056,note_on,,0,0,2,,,,,,0,67,92
205056,note_on,,0,0,3,,,,,,0,52,102
205056,note_on,,0,0,1,,,,,,0,81,92
205056,note_on,,0,0,1,,,,,,0,84,92
205056,note_off,,0,0,1,,,,,,0,84,64
205056,note_off,,192,0,1,,,,,,0,81,64
205056,note_off,,192,0,2,,,,,,0,69,64
205056,note_off,,192,0,3,,,,,,0,53,64
205248,note_off,,192,0,2,,,,,,0,67,64
205248,note_on,,0,0,2,,,,,,0,65,92
205248,note_off,,192,0,3,,,,,,0,52,64
205248,note_off,,192,0,1,,,,,,0,81,64
205248,note_on,,0,0,3,,,,,,0,50,102
205248,note_off,,0,0,1,,,,,,0,84,64
205248,note_on,,0,0,1,,,,,,0,81,92
205248,note_on,,0,0,1,,,,,,0,84,92
205440,note_on,,0,0,3,,,,,,0,48,102
205440,note_off,,192,0,1,,,,,,0,81,64
205440,note_off,,0,0,1,,,,,,0,84,64
205440,note_on,,0,0,1,,,,,,0,84,92
205440,note_on,,0,0,1,,,,,,0,81,92
205440,note_off,,192,0,3,,,,,,0,50,64
205440,note_off,,192,0,2,,,,,,0,65,64
205440,note_on,,0,0,2,,,,,,0,64,92
205632,note_on,,0,0,2,,,,,,0,69,92
205632,note_off,,192,0,1,,,,,,0,81,64
205632,note_off,,0,0,1,,,,,,0,84,64
205632,note_on,,0,0,3,,,,,,0,53,102
205632,note_off,,192,0,3,,,,,,0,48,64
205632,note_on,,0,0,1,,,,,,0,84,92
205632,note_on,,0,0,1,,,,,,0,81,92
205632,note_off,,192,0,2,,,,,,0,64,64
205824,note_off,,192,0,1,,,,,,0,81,64
205824,note_on,,0,0,1,,,,,,0,84,92
205824,note_off,,192,0,2,,,,,,0,69,64
205824,note_on,,0,0,2,,,,,,0,67,92
205824,note_off,,192,0,3,,,,,,0,53,64
205824,note_on,,0,0,3,,,,,,0,52,102
205824,note_off,,0,0,1,,,,,,0,84,64
205824,note_on,,0,0,1,,,,,,0,81,92
206016,note_on,,0,0,2,,,,,,0,65,92
206016,note_off,,192,0,3,,,,,,0,52,64
206016,note_on,,0,0,3,,,,,,0,50,102
206016,note_off,,192,0,2,,,,,,0,67,64
206016,note_on,,0,0,1,,,,,,0,81,92
206016,note_on,,0,0,1,,,,,,0,84,92
206016,note_off,,0,0,1,,,,,,0,84,64
206016,note_off,,192,0,1,,,,,,0,81,64
206208,note_on,,0,0,1,,,,,,0,81,92
206208,note_on,,0,0,1,,,,,,0,84,92
206208,note_off,,192,0,1,,,,,,0,81,64
206208,note_on,,0,0,3,,,,,,0,48,102
206208,note_off,,0,0,1,,,,,,0,84,64
206208,note_off,,192,0,3,,,,,,0,50,64
206208,note_off,,192,0,2,,,,,,0,65,64
206208,note_on,,0,0,2,,,,,,0,64,92
206400,note_off,,192,0,1,,,,,,0,81,64
206400,note_off,,192,0,3,,,,,,0,48,64
206400,note_on,,0,0,3,,,,,,0,47,102
206400,note_on,,0,0,1,,,,,,0,81,92
206400,note_on,,0,0,1,,,,,,0,84,92
206400,note_off,,0,0,1,,,,,,0,84,64
206400,note_off,,192,0,2,,,,,,0,64,64
206400,note_on,,0,0,2,,,,,,0,62,92
206592,note_on,,0,0,1,,,,,,0,81,92
206592,note_on,,0,0,1,,,,,,0,84,92
206592,note_off,,0,0,1,,,,,,0,84,64
206592,note_off,,192,0,1,,,,,,0,81,64
206592,note_off,,192,0,2,,,,,,0,62,64
206592,note_off,,192,0,3,,,,,,0,47,64
206592,note_on,,0,0,3,,,,,,0,45,102
206592,note_on,,0,0,2,,,,,,0,60,92
206976,note_off,,384,0,1,,,,,,0,81,64
206976,note_on,,0,0,1,,,,,,0,72,92
206976,note_off,,0,0,1,,,,,,0,84,64
206976,note_off,,384,0,2,,,,,,0,60,64
206976,note_on,,0,0,2,,,,,,0,60,92
206976,note_off,,384,0,3,,,,,,0,45,64
207360,note_on,,0,0,2,,,,,,0,60,92
207360,note_off,,384,0,1,,,,,,0,72,64
207360,note_on,,0,0,1,,,,,,0,72,92
207360,note_off,,384,0,2,,,,,,0,60,64
207744,note_off,,384,0,2,,,,,,0,60,64
207744,note_on,,0,0,2,,,,,,0,62,92
207744,note_off,,384,0,1,,,,,,0,72,64
207744,note_on,,0,0,1,,,,,,0,74,92
208128,note_off,,384,0,1,,,,,,0,74,64
208128,note_off,,384,0,2,,,,,,0,62,64
208128,note_on,,0,0,2,,,,,,0,64,92
208128,note_on,,0,0,1,,,,,,0,76,92
208512,note_off,,384,0,1,,,,,,0,76,64
208512,note_on,,0,0,1,,,,,,0,76,92
208512,note_on,,0,0,2,,,,,,0,64,92
208512,note_off,,384,0,2,,,,,,0,64,64
208896,note_off,,384,0,2,,,,,,0,64,64
208896,note_off,,384,0,1,,,,,,0,76,64
208896,note_on,,0,0,1,,,,,,0,69,92
208896,note_on,,0,0,2,,,,,,0,57,92
209280,note_on,,0,0,2,,,,,,0,48,92
209280,note_off,,384,0,2,,,,,,0,57,64
209280,note_on,,2304,0,3,,,,,,0,48,102
209280,note_off,,384,0,1,,,,,,0,69,64
209280,note_on,,0,0,1,,,,,,0,60,92
209664,note_on,,0,0,1,,,,,,0,60,92
209664,note_off,,384,0,3,,,,,,0,48,64
209664,note_on,,0,0,3,,,,,,0,48,102
209664,note_off,,384,0,1,,,,,,0,60,64
209664,note_off,,384,0,2,,,,,,0,48,64
209664,note_on,,0,0,2,,,,,,0,48,92
210048,note_off,,384,0,1,,,,,,0,60,64
210048,note_off,,384,0,3,,,,,,0,48,64
210048,note_on,,0,0,3,,,,,,0,50,102
210048,note_off,,384,0,2,,,,,,0,48,64
210048,note_on,,0,0,2,,,,,,0,50,92
210048,note_on,,0,0,1,,,,,,0,62,92
210432,note_off,,384,0,1,,,,,,0,62,64
210432,note_on,,0,0,3,,,,,,0,52,102
210432,note_on,,0,0,2,,,,,,0,52,92
210432,note_off,,384,0,2,,,,,,0,50,64
210432,note_on,,0,0,1,,,,,,0,64,92
210432,note_off,,384,0,3,,,,,,0,50,64
210816,note_off,,384,0,3,,,,,,0,52,64
210816,note_on,,0,0,3,,,,,,0,52,102
210816,note_off,,384,0,1,,,,,,0,64,64
210816,note_on,,0,0,2,,,,,,0,52,92
210816,note_off,,384,0,2,,,,,,0,52,64
210816,note_on,,0,0,1,,,,,,0,64,92
211200,note_on,,0,0,1,,,,,,0,57,92
211200,note_on,,0,0,3,,,,,,0,45,102
211200,note_off,,384,0,3,,,,,,0,52,64
211200,note_off,,384,0,2,,,,,,0,52,64
211200,note_on,,0,0,2,,,,,,0,45,92
211200,note_off,,384,0,1,,,,,,0,64,64
211392,note_off,,192,0,1,,,,,,0,57,64
211392,note_on,,0,0,1,,,,,,0,69,92
211584,note_on,,0,0,1,,,,,,0,69,92
211584,note_off,,384,0,2,,,,,,0,45,64
211584,note_off,,384,0,3,,,,,,0,45,64
211584,note_off,,192,0,1,,,,,,0,69,64
211776,note_off,,192,0,1,,,,,,0,69,64
211776,note_on,,0,0,1,,,,,,0,71,92
211968,note_on,,384,0,2,,,,,,0,57,92
211968,note_off,,192,0,1,,,,,,0,71,64
211968,note_on,,0,0,1,,,,,,0,72,92
212160,note_off,,192,0,1,,,,,,0,72,64
212160,note_on,,0,0,1,,,,,,0,72,92
212352,note_off,,384,0,2,,,,,,0,57,64
212352,note_on,,0,0,2,,,,,,0,64,92
212352,note_on,,0,0,1,,,,,,0,72,92
212352,note_off,,192,0,1,,,,,,0,72,64
212448,note_on,,0,0,1,,,,,,0,74,92
212448,note_off,,96,0,1,,,,,,0,72,64
212496,note_off,,48,0,1,,,,,,0,74,64
212496,note_on,,0,0,1,,,,,,0,72,92
212544,note_off,,48,0,1,,,,,,0,72,64
212544,note_on,,0,0,1,,,,,,0,71,92
212736,note_off,,192,0,1,,,,,,0,71,64
212736,note_on,,0,0,1,,,,,,0,71,92
212928,note_off,,192,0,1,,,,,,0,71,64
212928,note_on,,0,0,1,,,,,,0,72,92
213120,note_off,,192,0,1,,,,,,0,72,64
213120,note_on,,0,0,1,,,,,,0,74,92
213120,note_off,,768,0,2,,,,,,0,64,64
213120,note_on,,0,0,2,,,,,,0,56,92
213312,note_on,,0,0,1,,,,,,0,74,92
213312,note_off,,192,0,1,,,,,,0,74,64
213504,note_off,,384,0,2,,,,,,0,56,64
213504,note_on,,0,0,1,,,,,,0,74,92
213504,note_on,,0,0,2,,,,,,0,57,92
213504,note_off,,192,0,1,,,,,,0,74,64
213600,note_on,,0,0,1,,,,,,0,76,92
213600,note_off,,96,0,1,,,,,,0,74,64
213648,note_on,,0,0,1,,,,,,0,74,92
213648,note_off,,48,0,1,,,,,,0,76,64
213696,note_on,,0,0,1,,,,,,0,72,92
213696,note_on,,0,0,1,,,,,,0,69,92
213696,note_off,,48,0,1,,,,,,0,74,64
213888,note_on,,0,0,1,,,,,,0,72,92
213888,note_on,,0,0,1,,,,,,0,69,92
213888,note_off,,0,0,1,,,,,,0,69,64
213888,note_off,,192,0,1,,,,,,0,72,64
214080,note_off,,0,0,1,,,,,,0,69,64
214080,note_off,,192,0,1,,,,,,0,72,64
214080,note_on,,0,0,1,,,,,,0,74,92
214080,note_on,,0,0,1,,,,,,0,71,92
214272,note_off,,768,0,2,,,,,,0,57,64
214272,note_off,,192,0,1,,,,,,0,74,64
214272,note_on,,0,0,2,,,,,,0,45,92
214272,note_off,,0,0,1,,,,,,0,71,64
214272,note_on,,0,0,1,,,,,,0,72,92
214272,note_on,,0,0,1,,,,,,0,76,92
214464,note_on,,0,0,1,,,,,,0,76,92
214464,note_on,,0,0,1,,,,,,0,72,92
214464,note_off,,0,0,1,,,,,,0,72,64
214464,note_off,,192,0,1,,,,,,0,76,64
214656,note_on,,0,0,2,,,,,,0,52,92
214656,note_off,,384,0,2,,,,,,0,45,64
214656,note_off,,192,0,1,,,,,,0,76,64
214656,note_off,,0,0,1,,,,,,0,72,64
214656,note_on,,0,0,1,,,,,,0,76,92
214656,note_on,,0,0,1,,,,,,0,72,92
214752,note_off,,96,0,1,,,,,,0,76,64
214752,note_on,,0,0,1,,,,,,0,77,92
214800,note_off,,48,0,1,,,,,,0,77,64
214800,note_on,,0,0,1,,,,,,0,76,92
214848,note_off,,48,0,1,,,,,,0,76,64
214848,note_off,,0,0,1,,,,,,0,72,64
214848,note_on,,0,0,1,,,,,,0,71,92
214848,note_on,,0,0,1,,,,,,0,74,92
215040,note_on,,0,0,1,,,,,,0,74,92
215040,note_off,,0,0,1,,,,,,0,74,64
215040,note_off,,192,0,1,,,,,,0,71,64
215040,note_on,,0,0,2,,,,,,0,45,92
215040,note_off,,384,0,2,,,,,,0,52,64
215040,note_on,,0,0,1,,,,,,0,71,92
215136,note_off,,96,0,2,,,,,,0,45,64
215136,note_on,,0,0,2,,,,,,0,44,92
215232,note_off,,192,0,1,,,,,,0,71,64
215232,note_on,,0,0,2,,,,,,0,45,92
215232,note_off,,96,0,2,,,,,,0,44,64
215232,note_on,,0,0,1,,,,,,0,72,92
215232,note_on,,0,0,1,,,,,,0,76,92
215232,note_off,,0,0,1,,,,,,0,74,64
215328,note_off,,96,0,2,,,,,,0,45,64
215328,note_on,,0,0,2,,,,,,0,44,92
215424,note_on,,0,0,1,,,,,,0,74,92
215424,note_on,,0,0,2,,,,,,0,45,92
215424,note_off,,96,0,2,,,,,,0,44,64
215424,note_off,,0,0,1,,,,,,0,76,64
215424,note_off,,192,0,1,,,,,,0,72,64
215424,note_on,,0,0,1,,,,,,0,77,92
215520,note_off,,96,0,2,,,,,,0,45,64
215520,note_on,,0,0,2,,,,,,0,44,92
215616,note_on,,0,0,2,,,,,,0,45,92
215616,note_on,,0,0,1,,,,,,0,74,92
215616,note_on,,0,0,1,,,,,,0,77,92
215616,note_off,,96,0,2,,,,,,0,44,64
215616,note_off,,192,0,1,,,,,,0,74,64
215616,note_off,,0,0,1,,,,,,0,77,64
215712,note_on,,0,0,2,,,,,,0,44,92
215712,note_off,,96,0,2,,,,,,0,45,64
215808,note_off,,192,0,1,,,,,,0,74,64
215808,note_off,,0,0,1,,,,,,0,77,64
215808,note_on,,0,0,1,,,,,,0,72,92
215808,note_on,,0,0,1,,,,,,0,76,92
215808,note_off,,96,0,2,,,,,,0,44,64
215808,note_on,,0,0,2,,,,,,0,45,92
216192,note_on,,0,0,2,,,,,,0,52,92
216192,note_off,,384,0,2,,,,,,0,45,64
216384,note_off,,576,0,1,,,,,,0,76,64
216384,note_off,,0,0,1,,,,,,0,72,64
216384,note_on,,0,0,1,,,,,,0,71,92
216384,note_on,,0,0,1,,,,,,0,74,92
216576,note_on,,0,0,1,,,,,,0,72,92
216576,note_on,,0,0,1,,,,,,0,69,92
216576,note_on,,0,0,2,,,,,,0,57,92
216576,note_off,,0,0,1,,,,,,0,71,64
216576,note_off,,384,0,2,,,,,,0,52,64
216576,note_off,,192,0,1,,,,,,0,74,64
216768,note_on,,0,0,1,,,,,,0,71,92
216768,note_off,,0,0,1,,,,,,0,69,64
216768,note_on,,0,0,1,,,,,,0,68,92
216768,note_off,,192,0,1,,,,,,0,72,64
216960,note_off,,192,0,1,,,,,,0,71,64
216960,note_on,,0,0,1,,,,,,0,72,92
216960,note_on,,0,0,1,,,,,,0,69,92
216960,note_off,,384,0,2,,,,,,0,57,64
216960,note_on,,0,0,2,,,,,,0,50,92
216960,note_off,,0,0,1,,,,,,0,68,64
217152,note_off,,0,0,1,,,,,,0,72,64
217152,note_on,,0,0,1,,,,,,0,74,92
217152,note_on,,0,0,1,,,,,,0,71,92
217152,note_off,,192,0,1,,,,,,0,69,64
217344,note_on,,0,0,1,,,,,,0,68,92
217344,note_off,,0,0,1,,,,,,0,74,64
217344,note_off,,192,0,1,,,,,,0,71,64
217344,note_on,,0,0,2,,,,,,0,52,92
217344,note_off,,384,0,2,,,,,,0,50,64
217344,note_on,,0,0,1,,,,,,0,71,92
217392,note_off,,48,0,1,,,,,,0,71,64
217392,note_on,,0,0,1,,,,,,0,72,92
217440,note_on,,0,0,1,,,,,,0,71,92
217440,note_off,,48,0,1,,,,,,0,72,64
217728,note_on,,0,0,2,,,,,,0,40,92
217728,note_off,,384,0,2,,,,,,0,52,64
217920,note_on,,0,0,1,,,,,,0,69,92
217920,note_off,,480,0,1,,,,,,0,71,64
217920,note_off,,0,0,1,,,,,,0,68,64
218112,note_off,,384,0,2,,,,,,0,40,64
218112,note_on,,0,0,2,,,,,,0,45,92
218112,note_off,,192,0,1,,,,,,0,69,64
218112,note_on,,0,0,1,,,,,,0,69,92
218304,note_on,,192,0,1,,,,,,0,57,92
218496,note_off,,0,0,1,,,,,,0,69,64
218496,note_off,,192,0,1,,,,,,0,57,64
218496,note_on,,0,0,1,,,,,,0,57,92
218688,note_off,,192,0,1,,,,,,0,57,64
218688,note_on,,0,0,1,,,,,,0,59,92
218880,note_on,,0,0,2,,,,,,0,45,92
218880,note_off,,768,0,2,,,,,,0,45,64
218880,note_off,,192,0,1,,,,,,0,59,64
218880,note_on,,0,0,1,,,,,,0,60,92
219072,note_on,,0,0,1,,,,,,0,60,92
219072,note_off,,192,0,1,,,,,,0,60,64
219264,note_on,,0,0,1,,,,,,0,60,92
219264,note_off,,384,0,2,,,,,,0,45,64
219264,note_on,,0,0,2,,,,,,0,52,92
219264,note_off,,192,0,1,,,,,,0,60,64
219456,note_off,,192,0,1,,,,,,0,60,64
219456,note_on,,0,0,1,,,,,,0,59,92
219648,note_off,,192,0,1,,,,,,0,59,64
219648,note_on,,0,0,1,,,,,,0,59,92
219840,note_off,,192,0,1,,,,,,0,59,64
219840,note_on,,0,0,1,,,,,,0,60,92
220032,note_on,,0,0,1,,,,,,0,62,92
220032,note_off,,192,0,1,,,,,,0,60,64
220032,note_off,,768,0,2,,,,,,0,52,64
220032,note_on,,0,0,2,,,,,,0,56,92
220224,note_on,,0,0,1,,,,,,0,62,92
220224,note_off,,192,0,1,,,,,,0,62,64
220416,note_on,,0,0,1,,,,,,0,62,92
220416,note_on,,0,0,2,,,,,,0,57,92
220416,note_off,,384,0,2,,,,,,0,56,64
220416,note_off,,192,0,1,,,,,,0,62,64
220608,note_off,,192,0,1,,,,,,0,62,64
220608,note_on,,0,0,1,,,,,,0,69,92
220608,note_on,,0,0,1,,,,,,0,60,92
220800,note_off,,192,0,1,,,,,,0,60,64
220800,note_off,,0,0,1,,,,,,0,69,64
220800,note_on,,0,0,1,,,,,,0,69,92
220800,note_on,,0,0,1,,,,,,0,60,92
220992,note_off,,192,0,1,,,,,,0,60,64
220992,note_on,,0,0,1,,,,,,0,62,92
220992,note_on,,0,0,1,,,,,,0,71,92
220992,note_off,,0,0,1,,,,,,0,69,64
221184,note_off,,768,0,2,,,,,,0,57,64
221184,note_on,,0,0,2,,,,,,0,45,92
221184,note_off,,192,0,1,,,,,,0,62,64
221184,note_off,,0,0,1,,,,,,0,71,64
221184,note_on,,0,0,1,,,,,,0,72,92
221184,note_on,,0,0,1,,,,,,0,64,92
221376,note_off,,192,0,1,,,,,,0,64,64
221376,note_on,,0,0,1,,,,,,0,72,92
221376,note_off,,0,0,1,,,,,,0,72,64
221376,note_on,,0,0,1,,,,,,0,64,92
221568,note_off,,192,0,1,,,,,,0,64,64
221568,note_off,,0,0,1,,,,,,0,72,64
221568,note_on,,0,0,1,,,,,,0,64,92
221568,note_on,,0,0,1,,,,,,0,72,92
221568,note_off,,384,0,2,,,,,,0,45,64
221568,note_on,,0,0,2,,,,,,0,52,92
221760,note_on,,0,0,1,,,,,,0,71,92
221760,note_on,,0,0,1,,,,,,0,62,92
221760,note_off,,0,0,1,,,,,,0,64,64
221760,note_off,,192,0,1,,,,,,0,72,64
221952,note_off,,384,0,2,,,,,,0,52,64
221952,note_on,,0,0,1,,,,,,0,71,92
221952,note_off,,0,0,1,,,,,,0,62,64
221952,note_off,,192,0,1,,,,,,0,71,64
221952,note_on,,0,0,2,,,,,,0,45,92
221952,note_on,,0,0,1,,,,,,0,62,92
222048,note_on,,0,0,2,,,,,,0,44,92
222048,note_off,,96,0,2,,,,,,0,45,64
222144,note_off,,192,0,1,,,,,,0,71,64
222144,note_off,,0,0,1,,,,,,0,62,64
222144,note_on,,0,0,1,,,,,,0,64,92
222144,note_on,,0,0,1,,,,,,0,72,92
222144,note_on,,0,0,2,,,,,,0,45,92
222144,note_off,,96,0,2,,,,,,0,44,64
222240,note_on,,0,0,2,,,,,,0,44,92
222240,note_off,,96,0,2,,,,,,0,45,64
222336,note_on,,0,0,1,,,,,,0,74,92
222336,note_off,,192,0,1,,,,,,0,72,64
222336,note_off,,0,0,1,,,,,,0,64,64
222336,note_off,,96,0,2,,,,,,0,44,64
222336,note_on,,0,0,2,,,,,,0,45,92
222336,note_on,,0,0,1,,,,,,0,65,92
222432,note_off,,96,0,2,,,,,,0,45,64
222432,note_on,,0,0,2,,,,,,0,44,92
222528,note_off,,96,0,2,,,,,,0,44,64
222528,note_on,,0,0,2,,,,,,0,45,92
222528,note_off,,0,0,1,,,,,,0,65,64
222528,note_off,,192,0,1,,,,,,0,74,64
222528,note_on,,0,0,1,,,,,,0,65,92
222528,note_on,,0,0,1,,,,,,0,74,92
222624,note_off,,96,0,2,,,,,,0,45,64
222624,note_on,,0,0,2,,,,,,0,44,92
222720,note_on,,0,0,2,,,,,,0,45,92
222720,note_off,,96,0,2,,,,,,0,44,64
222720,note_on,,0,0,1,,,,,,0,72,92
222720,note_off,,0,0,1,,,,,,0,65,64
222720,note_on,,0,0,1,,,,,,0,64,92
222720,note_off,,192,0,1,,,,,,0,74,64
223104,note_off,,384,0,2,,,,,,0,45,64
223104,note_on,,0,0,2,,,,,,0,52,92
223296,note_on,,0,0,1,,,,,,0,71,92
223296,note_off,,576,0,1,,,,,,0,72,64
223296,note_off,,0,0,1,,,,,,0,64,64
223296,note_on,,0,0,1,,,,,,0,62,92
223488,note_off,,384,0,2,,,,,,0,52,64
223488,note_on,,0,0,2,,,,,,0,57,92
223488,note_off,,0,0,1,,,,,,0,62,64
223488,note_off,,192,0,1,,,,,,0,71,64
223488,note_on,,0,0,1,,,,,,0,60,92
223488,note_on,,0,0,1,,,,,,0,69,92
223680,note_on,,0,0,1,,,,,,0,68,92
223680,note_off,,192,0,1,,,,,,0,69,64
223680,note_off,,0,0,1,,,,,,0,60,64
223680,note_on,,0,0,1,,,,,,0,59,92
223872,note_on,,0,0,1,,,,,,0,60,92
223872,note_on,,0,0,1,,,,,,0,69,92
223872,note_off,,0,0,1,,,,,,0,59,64
223872,note_off,,192,0,1,,,,,,0,68,64
223872,note_on,,0,0,2,,,,,,0,50,92
223872,note_off,,384,0,2,,,,,,0,57,64
224064,note_on,,0,0,1,,,,,,0,71,92
224064,note_off,,192,0,1,,,,,,0,60,64
224064,note_off,,0,0,1,,,,,,0,69,64
224064,note_on,,0,0,1,,,,,,0,62,92
224256,note_off,,384,0,2,,,,,,0,50,64
224256,note_on,,0,0,2,,,,,,0,52,92
224256,note_on,,0,0,1,,,,,,0,68,92
224256,note_off,,0,0,1,,,,,,0,71,64
224256,note_on,,0,0,1,,,,,,0,59,92
224256,note_off,,192,0,1,,,,,,0,62,64
224640,note_off,,384,0,2,,,,,,0,52,64
224640,note_on,,0,0,2,,,,,,0,40,92
224832,note_off,,576,0,1,,,,,,0,59,64
224832,note_off,,0,0,1,,,,,,0,68,64
224832,note_on,,0,0,1,,,,,,0,57,92
224832,note_on,,0,0,1,,,,,,0,69,92
225024,note_off,,192,0,1,,,,,,0,69,64
225024,note_on,,0,0,1,,,,,,0,57,92
225024,note_on,,0,0,1,,,,,,0,69,92
225024,note_off,,0,0,1,,,,,,0,57,64
225024,note_off,,384,0,2,,,,,,0,40,64
225024,note_on,,0,0,2,,,,,,0,45,92
225024,note_on,,13440,0,3,,,,,,0,45,102
225216,note_off,,0,0,1,,,,,,0,57,64
225216,note_on,,0,0,1,,,,,,0,69,92
225216,note_off,,192,0,1,,,,,,0,69,64
225408,note_off,,192,0,1,,,,,,0,69,64
225408,note_on,,0,0,1,,,,,,0,67,92
225408,note_off,,384,0,3,,,,,,0,45,64
225408,note_off,,384,0,2,,,,,,0,45,64
225600,note_off,,192,0,1,,,,,,0,67,64
225600,note_on,,0,0,1,,,,,,0,65,92
225792,note_off,,192,0,1,,,,,,0,65,64
225792,note_on,,0,0,1,,,,,,0,64,92
225984,note_on,,0,0,1,,,,,,0,62,92
225984,note_off,,192,0,1,,,,,,0,64,64
226176,note_on,,768,0,3,,,,,,0,45,102
226176,note_off,,192,0,1,,,,,,0,62,64
226176,note_on,,0,0,1,,,,,,0,60,92
226368,note_off,,192,0,1,,,,,,0,60,64
226368,note_on,,0,0,1,,,,,,0,65,92
226560,note_off,,384,0,3,,,,,,0,45,64
226560,note_off,,192,0,1,,,,,,0,65,64
226560,note_on,,0,0,1,,,,,,0,64,92
226752,note_on,,0,0,1,,,,,,0,62,92
226752,note_off,,192,0,1,,,,,,0,64,64
226944,note_off,,192,0,1,,,,,,0,62,64
226944,note_on,,0,0,1,,,,,,0,60,92
227136,note_off,,192,0,1,,,,,,0,60,64
227136,note_on,,0,0,1,,,,,,0,59,92
227328,note_on,,768,0,3,,,,,,0,45,102
227328,note_off,,192,0,1,,,,,,0,59,64
227328,note_on,,0,0,1,,,,,,0,57,92
227520,note_off,,192,0,1,,,,,,0,57,64
227520,note_on,,0,0,1,,,,,,0,69,92
227520,note_on,,0,0,1,,,,,,0,72,92
227712,note_off,,192,0,1,,,,,,0,72,64
227712,note_off,,384,0,3,,,,,,0,45,64
227712,note_off,,0,0,1,,,,,,0,69,64
227712,note_on,,0,0,1,,,,,,0,67,92
227712,note_on,,0,0,1,,,,,,0,71,92
227904,note_off,,192,0,1,,,,,,0,71,64
227904,note_off,,0,0,1,,,,,,0,67,64
227904,note_on,,0,0,1,,,,,,0,65,92
227904,note_on,,0,0,1,,,,,,0,69,92
228096,note_off,,192,0,1,,,,,,0,69,64
228096,note_off,,0,0,1,,,,,,0,65,64
228096,note_on,,0,0,1,,,,,,0,64,92
228096,note_on,,0,0,1,,,,,,0,67,92
228288,note_on,,0,0,1,,,,,,0,62,92
228288,note_off,,0,0,1,,,,,,0,64,64
228288,note_on,,0,0,1,,,,,,0,65,92
228288,note_off,,192,0,1,,,,,,0,67,64
228480,note_on,,768,0,3,,,,,,0,45,102
228480,note_off,,192,0,1,,,,,,0,65,64
228480,note_off,,0,0,1,,,,,,0,62,64
228480,note_on,,0,0,1,,,,,,0,64,92
228480,note_on,,0,0,1,,,,,,0,60,92
228672,note_on,,0,0,1,,,,,,0,69,92
228672,note_on,,0,0,1,,,,,,0,65,92
228672,note_off,,192,0,1,,,,,,0,60,64
228672,note_off,,0,0,1,,,,,,0,64,64
228864,note_off,,192,0,1,,,,,,0,69,64
228864,note_off,,0,0,1,,,,,,0,65,64
228864,note_on,,0,0,1,,,,,,0,64,92
228864,note_on,,0,0,1,,,,,,0,67,92
228864,note_off,,384,0,3,,,,,,0,45,64
229056,note_on,,0,0,1,,,,,,0,65,92
229056,note_off,,192,0,1,,,,,,0,67,64
229056,note_off,,0,0,1,,,,,,0,64,64
229056,note_on,,0,0,1,,,,,,0,62,92
229248,note_off,,0,0,1,,,,,,0,62,64
229248,note_on,,0,0,1,,,,,,0,64,92
229248,note_on,,0,0,1,,,,,,0,60,92
229248,note_off,,192,0,1,,,,,,0,65,64
229440,note_on,,0,0,1,,,,,,0,62,92
229440,note_on,,0,0,1,,,,,,0,59,92
229440,note_off,,0,0,1,,,,,,0,60,64
229440,note_off,,192,0,1,,,,,,0,64,64
229632,note_on,,768,0,3,,,,,,0,45,102
229632,note_on,,0,0,1,,,,,,0,60,92
229632,note_on,,0,0,1,,,,,,0,57,92
229632,note_off,,0,0,1,,,,,,0,59,64
229632,note_off,,192,0,1,,,,,,0,62,64
229824,note_on,,4416,0,2,,,,,,0,69,92
229824,note_on,,0,0,1,,,,,,0,81,92
229824,note_on,,0,0,1,,,,,,0,72,92
229824,note_off,,192,0,1,,,,,,0,60,64
229824,note_off,,0,0,1,,,,,,0,57,64
230016,note_off,,192,0,2,,,,,,0,69,64
230016,note_on,,0,0,2,,,,,,0,67,92
230016,note_off,,0,0,1,,,,,,0,72,64
230016,note_off,,384,0,3,,,,,,0,45,64
230016,note_on,,0,0,1,,,,,,0,71,92
230016,note_off,,192,0,1,,,,,,0,81,64
230016,note_on,,0,0,1,,,,,,0,81,92
230208,note_off,,192,0,1,,,,,,0,81,64
230208,note_off,,0,0,1,,,,,,0,71,64
230208,note_off,,192,0,2,,,,,,0,67,64
230208,note_on,,0,0,1,,,,,,0,69,92
230208,note_on,,0,0,2,,,,,,0,65,92
230208,note_on,,0,0,1,,,,,,0,81,92
230400,note_off,,192,0,2,,,,,,0,65,64
230400,note_on,,0,0,2,,,,,,0,64,92
230400,note_off,,0,0,1,,,,,,0,69,64
230400,note_on,,0,0,1,,,,,,0,81,92
230400,note_on,,0,0,1,,,,,,0,67,92
230400,note_off,,192,0,1,,,,,,0,81,64
230592,note_off,,192,0,2,,,,,,0,64,64
230592,note_on,,0,0,1,,,,,,0,81,92
230592,note_on,,0,0,1,,,,,,0,65,92
230592,note_off,,0,0,1,,,,,,0,67,64
230592,note_off,,192,0,1,,,,,,0,81,64
230592,note_on,,0,0,2,,,,,,0,62,92
230784,note_off,,192,0,2,,,,,,0,62,64
230784,note_on,,0,0,2,,,,,,0,60,92
230784,note_off,,192,0,1,,,,,,0,81,64
230784,note_on,,768,0,3,,,,,,0,45,102
230784,note_on,,0,0,1,,,,,,0,81,92
230784,note_on,,0,0,1,,,,,,0,64,92
230784,note_off,,0,0,1,,,,,,0,65,64
230976,note_on,,0,0,1,,,,,,0,81,92
230976,note_on,,0,0,1,,,,,,0,69,92
230976,note_off,,0,0,1,,,,,,0,64,64
230976,note_off,,192,0,1,,,,,,0,81,64
230976,note_off,,192,0,2,,,,,,0,60,64
230976,note_on,,0,0,2,,,,,,0,65,92
231168,note_on,,0,0,1,,,,,,0,81,92
231168,note_on,,0,0,1,,,,,,0,67,92
231168,note_off,,0,0,1,,,,,,0,69,64
231168,note_off,,192,0,2,,,,,,0,65,64
231168,note_off,,192,0,1,,,,,,0,81,64
231168,note_on,,0,0,2,,,,,,0,64,92
231168,note_off,,384,0,3,,,,,,0,45,64
231360,note_on,,0,0,1,,,,,,0,65,92
231360,note_on,,0,0,1,,,,,,0,81,92
231360,note_on,,0,0,2,,,,,,0,62,92
231360,note_off,,0,0,1,,,,,,0,67,64
231360,note_off,,192,0,2,,,,,,0,64,64
231360,note_off,,192,0,1,,,,,,0,81,64
231552,note_on,,0,0,1,,,,,,0,64,92
231552,note_on,,0,0,1,,,,,,0,81,92
231552,note_off,,192,0,2,,,,,,0,62,64
231552,note_off,,0,0,1,,,,,,0,65,64
231552,note_off,,192,0,1,,,,,,0,81,64
231552,note_on,,0,0,2,,,,,,0,60,92
231744,note_on,,0,0,1,,,,,,0,81,92
231744,note_on,,0,0,1,,,,,,0,62,92
231744,note_off,,0,0,1,,,,,,0,64,64
231744,note_off,,192,0,1,,,,,,0,81,64
231744,note_off,,192,0,2,,,,,,0,60,64
231744,note_on,,0,0,2,,,,,,0,59,92
231936,note_off,,192,0,1,,,,,,0,81,64
231936,note_on,,0,0,2,,,,,,0,57,92
231936,note_on,,0,0,1,,,,,,0,81,92
231936,note_off,,0,0,1,,,,,,0,62,64
231936,note_off,,192,0,2,,,,,,0,59,64
231936,note_on,,0,0,1,,,,,,0,60,92
231936,note_on,,768,0,3,,,,,,0,45,102
232128,note_off,,192,0,2,,,,,,0,57,64
232128,note_on,,0,0,2,,,,,,0,72,92
232128,note_on,,0,0,1,,,,,,0,81,92
232128,note_on,,0,0,1,,,,,,0,84,92
232128,note_off,,0,0,1,,,,,,0,60,64
232128,note_off,,192,0,1,,,,,,0,81,64
232128,note_off,,192,0,3,,,,,,0,45,64
232128,note_on,,0,0,3,,,,,,0,57,102
232320,note_off,,192,0,3,,,,,,0,57,64
232320,note_on,,0,0,2,,,,,,0,71,92
232320,note_on,,0,0,3,,,,,,0,55,102
232320,note_off,,192,0,2,,,,,,0,72,64
232320,note_off,,0,0,1,,,,,,0,84,64
232320,note_on,,0,0,1,,,,,,0,84,92
232320,note_on,,0,0,1,,,,,,0,81,92
232320,note_off,,192,0,1,,,,,,0,81,64
232512,note_off,,192,0,3,,,,,,0,55,64
232512,note_on,,0,0,3,,,,,,0,53,102
232512,note_on,,0,0,1,,,,,,0,81,92
232512,note_off,,192,0,1,,,,,,0,81,64
232512,note_on,,0,0,2,,,,,,0,69,92
232512,note_off,,192,0,2,,,,,,0,71,64
232512,note_on,,0,0,1,,,,,,0,84,92
232512,note_off,,0,0,1,,,,,,0,84,64
232704,note_off,,192,0,2,,,,,,0,69,64
232704,note_on,,0,0,2,,,,,,0,67,92
232704,note_off,,192,0,1,,,,,,0,81,64
232704,note_off,,0,0,1,,,,,,0,84,64
232704,note_on,,0,0,1,,,,,,0,84,92
232704,note_on,,0,0,1,,,,,,0,81,92
232704,note_on,,0,0,3,,,,,,0,52,102
232704,note_off,,192,0,3,,,,,,0,53,64
232896,note_off,,0,0,1,,,,,,0,84,64
232896,note_on,,0,0,3,,,,,,0,50,102
232896,note_off,,192,0,3,,,,,,0,52,64
232896,note_on,,0,0,1,,,,,,0,81,92
232896,note_on,,0,0,2,,,,,,0,65,92
232896,note_off,,192,0,2,,,,,,0,67,64
232896,note_on,,0,0,1,,,,,,0,84,92
232896,note_off,,192,0,1,,,,,,0,81,64
233088,note_off,,0,0,1,,,,,,0,84,64
233088,note_on,,0,0,1,,,,,,0,84,92
233088,note_on,,0,0,1,,,,,,0,81,92
233088,note_off,,192,0,3,,,,,,0,50,64
233088,note_on,,0,0,3,,,,,,0,48,102
233088,note_off,,192,0,1,,,,,,0,81,64
233088,note_off,,192,0,2,,,,,,0,65,64
233088,note_on,,0,0,2,,,,,,0,64,92
233280,note_on,,0,0,3,,,,,,0,53,102
233280,note_on,,0,0,1,,,,,,0,81,92
233280,note_on,,0,0,1,,,,,,0,84,92
233280,note_off,,192,0,3,,,,,,0,48,64
233280,note_off,,192,0,1,,,,,,0,81,64
233280,note_off,,0,0,1,,,,,,0,84,64
233280,note_off,,192,0,2,,,,,,0,64,64
233280,note_on,,0,0,2,,,,,,0,69,92
233472,note_off,,192,0,2,,,,,,0,69,64
233472,note_on,,0,0,2,,,,,,0,67,92
233472,note_on,,0,0,3,,,,,,0,52,102
233472,note_off,,192,0,3,,,,,,0,53,64
233472,note_off,,192,0,1,,,,,,0,81,64
233472,note_off,,0,0,1,,,,,,0,84,64
233472,note_on,,0,0,1,,,,,,0,84,92
233472,note_on,,0,0,1,,,,,,0,81,92
233664,note_off,,192,0,1,,,,,,0,81,64
233664,note_off,,0,0,1,,,,,,0,84,64
233664,note_on,,0,0,1,,,,,,0,81,92
233664,note_on,,0,0,1,,,,,,0,84,92
233664,note_on,,0,0,2,,,,,,0,65,92
233664,note_off,,192,0,2,,,,,,0,67,64
233664,note_off,,192,0,3,,,,,,0,52,64
233664,note_on,,0,0,3,,,,,,0,50,102
233856,note_off,,192,0,1,,,,,,0,81,64
233856,note_on,,0,0,2,,,,,,0,64,92
233856,note_off,,192,0,2,,,,,,0,65,64
233856,note_off,,192,0,3,,,,,,0,50,64
233856,note_on,,0,0,3,,,,,,0,48,102
233856,note_on,,0,0,1,,,,,,0,84,92
233856,note_on,,0,0,1,,,,,,0,81,92
233856,note_off,,0,0,1,,,,,,0,84,64
234048,note_off,,192,0,1,,,,,,0,81,64
234048,note_on,,0,0,2,,,,,,0,62,92
234048,note_off,,0,0,1,,,,,,0,84,64
234048,note_on,,0,0,1,,,,,,0,84,92
234048,note_off,,192,0,2,,,,,,0,64,64
234048,note_on,,0,0,3,,,,,,0,47,102
234048,note_off,,192,0,3,,,,,,0,48,64
234048,note_on,,0,0,1,,,,,,0,81,92
234240,note_off,,192,0,1,,,,,,0,81,64
234240,note_off,,0,0,1,,,,,,0,84,64
234240,note_on,,0,0,1,,,,,,0,84,92
234240,note_on,,0,0,1,,,,,,0,81,92
234240,note_on,,0,0,2,,,,,,0,60,92
234240,note_off,,192,0,2,,,,,,0,62,64
234240,note_on,,0,0,3,,,,,,0,45,102
234240,note_off,,192,0,3,,,,,,0,47,64
234624,note_on,,0,0,2,,,,,,0,60,92
234624,note_off,,384,0,2,,,,,,0,60,64
234624,note_on,,0,0,1,,,,,,0,72,92
234624,note_off,,384,0,3,,,,,,0,45,64
234624,note_off,,384,0,1,,,,,,0,81,64
234624,note_off,,0,0,1,,,,,,0,84,64
235008,note_on,,0,0,2,,,,,,0,60,92
235008,note_on,,0,0,1,,,,,,0,72,92
235008,note_off,,384,0,2,,,,,,0,60,64
235008,note_off,,384,0,1,,,,,,0,72,64
235392,note_on,,0,0,2,,,,,,0,62,92
235392,note_on,,0,0,1,,,,,,0,74,92
235392,note_off,,384,0,1,,,,,,0,72,64
235392,note_off,,384,0,2,,,,,,0,60,64
235776,note_off,,384,0,1,,,,,,0,74,64
235776,note_on,,0,0,1,,,,,,0,76,92
235776,note_on,,0,0,2,,,,,,0,64,92
235776,note_off,,384,0,2,,,,,,0,62,64
236160,note_off,,384,0,1,,,,,,0,76,64
236160,note_on,,0,0,1,,,,,,0,76,92
236160,note_on,,0,0,2,,,,,,0,64,92
236160,note_off,,384,0,2,,,,,,0,64,64
236544,note_off,,384,0,2,,,,,,0,64,64
236544,note_off,,384,0,1,,,,,,0,76,64
236544,note_on,,0,0,1,,,,,,0,69,92
236544,note_on,,0,0,2,,,,,,0,57,92
236928,note_on,,2304,0,3,,,,,,0,48,102
236928,note_on,,0,0,2,,,,,,0,48,92
236928,note_off,,384,0,2,,,,,,0,57,64
236928,note_on,,0,0,1,,,,,,0,60,92
236928,note_off,,384,0,1,,,,,,0,69,64
237312,note_on,,0,0,3,,,,,,0,48,102
237312,note_on,,0,0,2,,,,,,0,48,92
237312,note_off,,384,0,2,,,,,,0,48,64
237312,note_on,,0,0,1,,,,,,0,60,92
237312,note_off,,384,0,1,,,,,,0,60,64
237312,note_off,,384,0,3,,,,,,0,48,64
237696,note_on,,0,0,1,,,,,,0,62,92
237696,note_on,,0,0,2,,,,,,0,50,92
237696,note_off,,384,0,2,,,,,,0,48,64
237696,note_off,,384,0,3,,,,,,0,48,64
237696,note_on,,0,0,3,,,,,,0,50,102
237696,note_off,,384,0,1,,,,,,0,60,64
238080,note_on,,0,0,2,,,,,,0,52,92
238080,note_off,,384,0,2,,,,,,0,50,64
238080,note_off,,384,0,3,,,,,,0,50,64
238080,note_on,,0,0,3,,,,,,0,52,102
238080,note_on,,0,0,1,,,,,,0,64,92
238080,note_off,,384,0,1,,,,,,0,62,64
238464,note_on,,0,0,1,,,,,,0,64,92
238464,note_off,,384,0,1,,,,,,0,64,64
238464,note_off,,384,0,2,,,,,,0,52,64
238464,note_on,,0,0,2,,,,,,0,52,92
238464,note_on,,0,0,3,,,,,,0,52,102
238464,note_off,,384,0,3,,,,,,0,52,64
238848,note_off,,384,0,2,,,,,,0,52,64
238848,note_on,,0,0,2,,,,,,0,69,92
238848,note_on,,0,0,3,,,,,,0,45,102
238848,note_off,,384,0,3,,,,,,0,52,64
238848,note_off,,384,0,1,,,,,,0,64,64
238944,note_on,,0,0,2,,,,,,0,72,92
238944,note_off,,96,0,2,,,,,,0,69,64
239040,note_off,,96,0,2,,,,,,0,72,64
239040,note_on,,192,0,1,,,,,,0,76,92
239040,note_on,,0,0,2,,,,,,0,76,92
239136,note_off,,96,0,2,,,,,,0,76,64
239136,note_on,,0,0,2,,,,,,0,72,92
239232,note_off,,96,0,2,,,,,,0,72,64
239232,note_on,,0,0,2,,,,,,0,69,92
239232,note_off,,384,0,3,,,,,,0,45,64
239232,note_off,,192,0,1,,,,,,0,76,64
239232,note_on,,0,0,1,,,,,,0,76,92
239328,note_on,,0,0,2,,,,,,0,72,92
239328,note_off,,96,0,2,,,,,,0,69,64
239424,note_on,,0,0,1,,,,,,0,76,92
239424,note_off,,192,0,1,,,,,,0,76,64
239424,note_on,,0,0,2,,,,,,0,76,92
239424,note_off,,96,0,2,,,,,,0,72,64
239520,note_on,,0,0,2,,,,,,0,72,92
239520,note_off,,96,0,2,,,,,,0,76,64
239616,note_on,,0,0,1,,,,,,0,81,92
239616,note_off,,192,0,1,,,,,,0,76,64
239616,note_off,,96,0,2,,,,,,0,72,64
239616,note_on,,0,0,2,,,,,,0,69,92
239712,note_off,,96,0,2,,,,,,0,69,64
239712,note_on,,0,0,2,,,,,,0,72,92
239808,note_off,,96,0,2,,,,,,0,72,64
239808,note_on,,0,0,2,,,,,,0,76,92
239808,note_on,,0,0,1,,,,,,0,76,92
239808,note_off,,192,0,1,,,,,,0,81,64
239904,note_off,,96,0,2,,,,,,0,76,64
239904,note_on,,0,0,2,,,,,,0,72,92
240000,note_off,,96,0,2,,,,,,0,72,64
240000,note_on,,0,0,2,,,,,,0,68,92
240000,note_off,,192,0,1,,,,,,0,76,64
240000,note_on,,0,0,1,,,,,,0,76,92
240096,note_off,,96,0,2,,,,,,0,68,64
240096,note_on,,0,0,2,,,,,,0,71,92
240192,note_off,,192,0,1,,,,,,0,76,64
240192,note_on,,0,0,1,,,,,,0,76,92
240192,note_off,,96,0,2,,,,,,0,71,64
240192,note_on,,0,0,2,,,,,,0,76,92
240288,note_on,,0,0,2,,,,,,0,71,92
240288,note_off,,96,0,2,,,,,,0,76,64
240384,note_on,,0,0,2,,,,,,0,68,92
240384,note_off,,96,0,2,,,,,,0,71,64
240384,note_off,,192,0,1,,,,,,0,76,64
240384,note_on,,0,0,1,,,,,,0,76,92
240480,note_on,,0,0,2,,,,,,0,71,92
240480,note_off,,96,0,2,,,,,,0,68,64
240576,note_off,,96,0,2,,,,,,0,71,64
240576,note_off,,192,0,1,,,,,,0,76,64
240576,note_on,,0,0,1,,,,,,0,76,92
240576,note_on,,0,0,2,,,,,,0,76,92
240672,note_off,,96,0,2,,,,,,0,76,64
240672,note_on,,0,0,2,,,,,,0,71,92
240768,note_on,,0,0,1,,,,,,0,83,92
240768,note_off,,96,0,2,,,,,,0,71,64
240768,note_off,,192,0,1,,,,,,0,76,64
240768,note_on,,0,0,2,,,,,,0,68,92
240864,note_off,,96,0,2,,,,,,0,68,64
240864,note_on,,0,0,2,,,,,,0,71,92
240960,note_off,,192,0,1,,,,,,0,83,64
240960,note_on,,0,0,1,,,,,,0,76,92
240960,note_off,,96,0,2,,,,,,0,71,64
240960,note_on,,0,0,2,,,,,,0,76,92
241056,note_off,,96,0,2,,,,,,0,76,64
241056,note_on,,0,0,2,,,,,,0,71,92
241152,note_off,,96,0,2,,,,,,0,71,64
241152,note_on,,0,0,2,,,,,,0,69,92
241152,note_off,,192,0,1,,,,,,0,76,64
241152,note_on,,0,0,1,,,,,,0,76,92
241248,note_on,,0,0,2,,,,,,0,72,92
241248,note_off,,96,0,2,,,,,,0,69,64
241344,note_off,,96,0,2,,,,,,0,72,64
241344,note_on,,0,0,2,,,,,,0,76,92
241344,note_off,,192,0,1,,,,,,0,76,64
241344,note_on,,0,0,1,,,,,,0,76,92
241440,note_off,,96,0,2,,,,,,0,76,64
241440,note_on,,0,0,2,,,,,,0,72,92
241536,note_off,,192,0,1,,,,,,0,76,64
241536,note_on,,0,0,1,,,,,,0,76,92
241536,note_off,,96,0,2,,,,,,0,72,64
241536,note_on,,0,0,2,,,,,,0,69,92
241632,note_off,,96,0,2,,,,,,0,69,64
241632,note_on,,0,0,2,,,,,,0,72,92
241728,note_on,,0,0,2,,,,,,0,76,92
241728,note_on,,0,0,1,,,,,,0,76,92
241728,note_off,,192,0,1,,,,,,0,76,64
241728,note_off,,96,0,2,,,,,,0,72,64
241824,note_on,,0,0,2,,,,,,0,72,92
241824,note_off,,96,0,2,,,,,,0,76,64
241920,note_on,,0,0,2,,,,,,0,69,92
241920,note_off,,96,0,2,,,,,,0,72,64
241920,note_off,,192,0,1,,,,,,0,76,64
241920,note_on,,0,0,1,,,,,,0,81,92
242016,note_on,,0,0,2,,,,,,0,72,92
242016,note_off,,96,0,2,,,,,,0,69,64
242112,note_on,,0,0,2,,,,,,0,76,92
242112,note_off,,96,0,2,,,,,,0,72,64
242112,note_off,,192,0,1,,,,,,0,81,64
242112,note_on,,0,0,1,,,,,,0,76,92
242208,note_on,,0,0,2,,,,,,0,72,92
242208,note_off,,96,0,2,,,,,,0,76,64
242304,note_off,,96,0,2,,,,,,0,72,64
242304,note_on,,0,0,2,,,,,,0,68,92
242304,note_on,,0,0,1,,,,,,0,76,92
242304,note_off,,192,0,1,,,,,,0,76,64
242400,note_off,,96,0,2,,,,,,0,68,64
242400,note_on,,0,0,2,,,,,,0,71,92
242496,note_off,,192,0,1,,,,,,0,76,64
242496,note_on,,0,0,1,,,,,,0,76,92
242496,note_on,,0,0,2,,,,,,0,76,92
242496,note_off,,96,0,2,,,,,,0,71,64
242592,note_on,,0,0,2,,,,,,0,71,92
242592,note_off,,96,0,2,,,,,,0,76,64
242688,note_on,,0,0,2,,,,,,0,68,92
242688,note_off,,192,0,1,,,,,,0,76,64
242688,note_on,,0,0,1,,,,,,0,76,92
242688,note_off,,96,0,2,,,,,,0,71,64
242784,note_off,,96,0,2,,,,,,0,68,64
242784,note_on,,0,0,2,,,,,,0,71,92
242880,note_off,,96,0,2,,,,,,0,71,64
242880,note_on,,0,0,1,,,,,,0,76,92
242880,note_off,,192,0,1,,,,,,0,76,64
242880,note_on,,0,0,2,,,,,,0,76,92
242976,note_on,,0,0,2,,,,,,0,71,92
242976,note_off,,96,0,2,,,,,,0,76,64
243072,note_off,,96,0,2,,,,,,0,71,64
243072,note_on,,0,0,2,,,,,,0,68,92
243072,note_on,,0,0,1,,,,,,0,83,92
243072,note_off,,192,0,1,,,,,,0,76,64
243168,note_off,,96,0,2,,,,,,0,68,64
243168,note_on,,0,0,2,,,,,,0,71,92
243264,note_on,,0,0,1,,,,,,0,76,92
243264,note_off,,192,0,1,,,,,,0,83,64
243264,note_off,,96,0,2,,,,,,0,71,64
243264,note_on,,0,0,2,,,,,,0,76,92
243360,note_off,,96,0,2,,,,,,0,76,64
243360,note_on,,0,0,2,,,,,,0,71,92
243456,note_on,,0,0,1,,,,,,0,76,92
243456,note_off,,96,0,2,,,,,,0,71,64
243456,note_on,,0,0,2,,,,,,0,69,92
243456,note_off,,192,0,1,,,,,,0,76,64
243552,note_on,,0,0,2,,,,,,0,72,92
243552,note_off,,96,0,2,,,,,,0,69,64
243648,note_on,,0,0,2,,,,,,0,76,92
243648,note_off,,192,0,1,,,,,,0,76,64
243648,note_on,,0,0,1,,,,,,0,76,92
243648,note_off,,96,0,2,,,,,,0,72,64
243744,note_off,,96,0,2,,,,,,0,76,64
243744,note_on,,0,0,2,,,,,,0,72,92
243840,note_off,,96,0,2,,,,,,0,72,64
243840,note_off,,192,0,1,,,,,,0,76,64
243840,note_on,,0,0,1,,,,,,0,76,92
243840,note_on,,0,0,2,,,,,,0,69,92
243936,note_off,,96,0,2,,,,,,0,69,64
243936,note_on,,0,0,2,,,,,,0,72,92
244032,note_on,,0,0,1,,,,,,0,76,92
244032,note_off,,96,0,2,,,,,,0,72,64
244032,note_on,,0,0,2,,,,,,0,76,92
244032,note_off,,192,0,1,,,,,,0,76,64
244128,note_off,,96,0,2,,,,,,0,76,64
244128,note_on,,0,0,2,,,,,,0,72,92
244224,note_off,,192,0,1,,,,,,0,76,64
244224,note_on,,0,0,1,,,,,,0,81,92
244224,note_off,,96,0,2,,,,,,0,72,64
244224,note_on,,0,0,2,,,,,,0,69,92
244320,note_on,,0,0,2,,,,,,0,72,92
244320,note_off,,96,0,2,,,,,,0,69,64
244416,note_on,,0,0,2,,,,,,0,76,92
244416,note_off,,96,0,2,,,,,,0,72,64
244416,note_on,,0,0,1,,,,,,0,69,92
244416,note_off,,192,0,1,,,,,,0,81,64
244512,note_on,,0,0,2,,,,,,0,72,92
244512,note_off,,96,0,2,,,,,,0,76,64
244608,note_off,,192,0,1,,,,,,0,69,64
244608,note_on,,0,0,1,,,,,,0,69,92
244608,note_off,,96,0,2,,,,,,0,72,64
244608,note_on,,0,0,2,,,,,,0,76,92
244704,note_off,,96,0,2,,,,,,0,76,64
244704,note_on,,0,0,2,,,,,,0,79,92
244800,note_off,,192,0,1,,,,,,0,69,64
244800,note_on,,0,0,1,,,,,,0,69,92
244800,note_off,,96,0,2,,,,,,0,79,64
244800,note_on,,0,0,2,,,,,,0,76,92
244896,note_off,,96,0,2,,,,,,0,76,64
244896,note_on,,0,0,2,,,,,,0,73,92
244992,note_on,,0,0,2,,,,,,0,76,92
244992,note_off,,96,0,2,,,,,,0,73,64
244992,note_off,,192,0,1,,,,,,0,69,64
244992,note_on,,0,0,1,,,,,,0,69,92
245088,note_off,,96,0,2,,,,,,0,76,64
245088,note_on,,0,0,2,,,,,,0,79,92
245184,note_off,,96,0,2,,,,,,0,79,64
245184,note_on,,0,0,2,,,,,,0,76,92
245184,note_off,,192,0,1,,,,,,0,69,64
245184,note_on,,0,0,1,,,,,,0,69,92
245280,note_on,,0,0,2,,,,,,0,73,92
245280,note_off,,96,0,2,,,,,,0,76,64
245376,note_off,,96,0,2,,,,,,0,73,64
245376,note_on,,0,0,2,,,,,,0,76,92
245376,note_off,,192,0,1,,,,,,0,69,64
245376,note_on,,0,0,1,,,,,,0,79,92
245472,note_off,,96,0,2,,,,,,0,76,64
245472,note_on,,0,0,2,,,,,,0,79,92
245568,note_on,,0,0,1,,,,,,0,69,92
245568,note_off,,192,0,1,,,,,,0,79,64
245568,note_on,,0,0,2,,,,,,0,76,92
245568,note_off,,96,0,2,,,,,,0,79,64
245664,note_on,,0,0,2,,,,,,0,73,92
245664,note_off,,96,0,2,,,,,,0,76,64
245760,note_on,,0,0,2,,,,,,0,74,92
245760,note_off,,192,0,1,,,,,,0,69,64
245760,note_off,,96,0,2,,,,,,0,73,64
245760,note_on,,0,0,1,,,,,,0,69,92
245856,note_off,,96,0,2,,,,,,0,74,64
245856,note_on,,0,0,2,,,,,,0,77,92
245952,note_off,,96,0,2,,,,,,0,77,64
245952,note_on,,0,0,1,,,,,,0,69,92
245952,note_on,,0,0,2,,,,,,0,74,92
245952,note_off,,192,0,1,,,,,,0,69,64
246048,note_off,,96,0,2,,,,,,0,74,64
246048,note_on,,0,0,2,,,,,,0,69,92
246144,note_off,,192,0,1,,,,,,0,69,64
246144,note_on,,0,0,1,,,,,,0,69,92
246144,note_off,,96,0,2,,,,,,0,69,64
246144,note_on,,0,0,2,,,,,,0,74,92
246240,note_on,,0,0,2,,,,,,0,77,92
246240,note_off,,96,0,2,,,,,,0,74,64
246336,note_off,,96,0,2,,,,,,0,77,64
246336,note_on,,0,0,2,,,,,,0,74,92
246336,note_on,,0,0,1,,,,,,0,69,92
246336,note_off,,192,0,1,,,,,,0,69,64
246432,note_on,,0,0,2,,,,,,0,69,92
246432,note_off,,96,0,2,,,,,,0,74,64
246528,note_off,,192,0,1,,,,,,0,69,64
246528,note_on,,0,0,1,,,,,,0,77,92
246528,note_on,,0,0,2,,,,,,0,74,92
246528,note_off,,96,0,2,,,,,,0,69,64
246624,note_on,,0,0,2,,,,,,0,77,92
246624,note_off,,96,0,2,,,,,,0,74,64
246720,note_off,,96,0,2,,,,,,0,77,64
246720,note_off,,192,0,1,,,,,,0,77,64
246720,note_on,,0,0,1,,,,,,0,69,92
246720,note_on,,0,0,2,,,,,,0,74,92
246816,note_on,,0,0,2,,,,,,0,69,92
246816,note_off,,96,0,2,,,,,,0,74,64
246912,note_off,,192,0,1,,,,,,0,69,64
246912,note_on,,0,0,2,,,,,,0,74,92
246912,note_off,,96,0,2,,,,,,0,69,64
246912,note_on,,0,0,1,,,,,,0,69,92
247008,note_on,,0,0,2,,,,,,0,76,92
247008,note_off,,96,0,2,,,,,,0,74,64
247104,note_on,,0,0,2,,,,,,0,74,92
247104,note_off,,192,0,1,,,,,,0,69,64
247104,note_on,,0,0,1,,,,,,0,69,92
247104,note_off,,96,0,2,,,,,,0,76,64
247200,note_on,,0,0,2,,,,,,0,69,92
247200,note_off,,96,0,2,,,,,,0,74,64
247296,note_off,,192,0,1,,,,,,0,69,64
247296,note_on,,0,0,2,,,,,,0,74,92
247296,note_off,,96,0,2,,,,,,0,69,64
247296,note_on,,0,0,1,,,,,,0,69,92
247392,note_on,,0,0,2,,,,,,0,76,92
247392,note_off,,96,0,2,,,,,,0,74,64
247488,note_off,,192,0,1,,,,,,0,69,64
247488,note_on,,0,0,2,,,,,,0,74,92
247488,note_on,,0,0,1,,,,,,0,69,92
247488,note_off,,96,0,2,,,,,,0,76,64
247584,note_on,,0,0,2,,,,,,0,69,92
247584,note_off,,96,0,2,,,,,,0,74,64
247680,note_on,,0,0,2,,,,,,0,74,92
247680,note_off,,192,0,1,,,,,,0,69,64
247680,note_off,,96,0,2,,,,,,0,69,64
247680,note_on,,0,0,1,,,,,,0,76,92
247776,note_on,,0,0,2,,,,,,0,76,92
247776,note_off,,96,0,2,,,,,,0,74,64
247872,note_off,,96,0,2,,,,,,0,76,64
247872,note_on,,0,0,2,,,,,,0,74,92
247872,note_off,,192,0,1,,,,,,0,76,64
247872,note_on,,0,0,1,,,,,,0,69,92
247968,note_off,,96,0,2,,,,,,0,74,64
247968,note_on,,0,0,2,,,,,,0,69,92
248064,note_on,,0,0,1,,,,,,0,69,92
248064,note_off,,192,0,1,,,,,,0,69,64
248064,note_off,,96,0,2,,,,,,0,69,64
248064,note_on,,0,0,2,,,,,,0,72,92
248160,note_off,,96,0,2,,,,,,0,72,64
248160,note_on,,0,0,2,,,,,,0,76,92
248256,note_off,,96,0,2,,,,,,0,76,64
248256,note_on,,0,0,1,,,,,,0,69,92
248256,note_off,,192,0,1,,,,,,0,69,64
248256,note_on,,0,0,2,,,,,,0,72,92
248352,note_off,,96,0,2,,,,,,0,72,64
248352,note_on,,0,0,2,,,,,,0,69,92
248448,note_off,,96,0,2,,,,,,0,69,64
248448,note_on,,0,0,2,,,,,,0,72,92
248448,note_off,,192,0,1,,,,,,0,69,64
248448,note_on,,0,0,1,,,,,,0,69,92
248544,note_off,,96,0,2,,,,,,0,72,64
248544,note_on,,0,0,2,,,,,,0,76,92
248640,note_on,,0,0,1,,,,,,0,69,92
248640,note_off,,192,0,1,,,,,,0,69,64
248640,note_off,,96,0,2,,,,,,0,76,64
248640,note_on,,0,0,2,,,,,,0,72,92
248736,note_on,,0,0,2,,,,,,0,69,92
248736,note_off,,96,0,2,,,,,,0,72,64
248832,note_off,,96,0,2,,,,,,0,69,64
248832,note_on,,0,0,2,,,,,,0,72,92
248832,note_on,,0,0,1,,,,,,0,81,92
248832,note_off,,192,0,1,,,,,,0,69,64
248928,note_off,,96,0,2,,,,,,0,72,64
248928,note_on,,0,0,2,,,,,,0,76,92
249024,note_off,,96,0,2,,,,,,0,76,64
249024,note_on,,0,0,2,,,,,,0,72,92
249024,note_on,,0,0,1,,,,,,0,69,92
249024,note_off,,192,0,1,,,,,,0,81,64
249120,note_off,,96,0,2,,,,,,0,72,64
249120,note_on,,0,0,2,,,,,,0,69,92
249216,note_on,,0,0,1,,,,,,0,75,92
249216,note_off,,192,0,1,,,,,,0,69,64
249216,note_on,,0,0,2,,,,,,0,78,92
249216,note_off,,96,0,2,,,,,,0,69,64
249312,note_on,,0,0,2,,,,,,0,81,92
249312,note_off,,96,0,2,,,,,,0,78,64
249408,note_off,,96,0,2,,,,,,0,81,64
249408,note_on,,0,0,1,,,,,,0,71,92
249408,note_on,,0,0,2,,,,,,0,78,92
249408,note_off,,192,0,1,,,,,,0,75,64
249504,note_on,,0,0,2,,,,,,0,75,92
249504,note_off,,96,0,2,,,,,,0,78,64
249600,note_off,,192,0,1,,,,,,0,71,64
249600,note_on,,0,0,2,,,,,,0,78,92
249600,note_on,,0,0,1,,,,,,0,71,92
249600,note_off,,96,0,2,,,,,,0,75,64
249696,note_on,,0,0,2,,,,,,0,81,92
249696,note_off,,96,0,2,,,,,,0,78,64
249792,note_off,,96,0,2,,,,,,0,81,64
249792,note_on,,0,0,2,,,,,,0,78,92
249792,note_off,,192,0,1,,,,,,0,71,64
249792,note_on,,0,0,1,,,,,,0,71,92
249888,note_on,,0,0,2,,,,,,0,75,92
249888,note_off,,96,0,2,,,,,,0,78,64
249984,note_on,,0,0,2,,,,,,0,78,92
249984,note_off,,96,0,2,,,,,,0,75,64
249984,note_off,,192,0,1,,,,,,0,71,64
249984,note_on,,0,0,1,,,,,,0,81,92
250080,note_on,,0,0,2,,,,,,0,81,92
250080,note_off,,96,0,2,,,,,,0,78,64
250176,note_off,,96,0,2,,,,,,0,81,64
250176,note_off,,192,0,1,,,,,,0,81,64
250176,note_on,,0,0,1,,,,,,0,71,92
250176,note_on,,0,0,2,,,,,,0,78,92
250272,note_on,,0,0,2,,,,,,0,75,92
250272,note_off,,96,0,2,,,,,,0,78,64
250368,note_on,,0,0,1,,,,,,0,71,92
250368,note_off,,192,0,1,,,,,,0,71,64
250368,note_off,,96,0,2,,,,,,0,75,64
250368,note_on,,0,0,2,,,,,,0,76,92
250464,note_off,,96,0,2,,,,,,0,76,64
250464,note_on,,0,0,2,,,,,,0,79,92
250560,note_off,,192,0,1,,,,,,0,71,64
250560,note_off,,96,0,2,,,,,,0,79,64
250560,note_on,,0,0,2,,,,,,0,76,92
250560,note_on,,0,0,1,,,,,,0,71,92
250656,note_off,,96,0,2,,,,,,0,76,64
250656,note_on,,0,0,2,,,,,,0,71,92
250752,note_off,,96,0,2,,,,,,0,71,64
250752,note_on,,0,0,2,,,,,,0,76,92
250752,note_off,,192,0,1,,,,,,0,71,64
250752,note_on,,0,0,1,,,,,,0,71,92
250848,note_off,,96,0,2,,,,,,0,76,64
250848,note_on,,0,0,2,,,,,,0,79,92
250944,note_off,,192,0,1,,,,,,0,71,64
250944,note_off,,96,0,2,,,,,,0,79,64
250944,note_on,,0,0,1,,,,,,0,71,92
250944,note_on,,0,0,2,,,,,,0,76,92
251040,note_off,,96,0,2,,,,,,0,76,64
251040,note_on,,0,0,2,,,,,,0,71,92
251136,note_off,,192,0,1,,,,,,0,71,64
251136,note_on,,0,0,2,,,,,,0,76,92
251136,note_off,,96,0,2,,,,,,0,71,64
251136,note_on,,0,0,1,,,,,,0,79,92
251232,note_off,,96,0,2,,,,,,0,76,64
251232,note_on,,0,0,2,,,,,,0,79,92
251328,note_off,,192,0,1,,,,,,0,79,64
251328,note_on,,0,0,1,,,,,,0,71,92
251328,note_off,,96,0,2,,,,,,0,79,64
251328,note_on,,0,0,2,,,,,,0,76,92
251424,note_on,,0,0,2,,,,,,0,71,92
251424,note_off,,96,0,2,,,,,,0,76,64
251520,note_on,,0,0,1,,,,,,0,71,92
251520,note_off,,192,0,1,,,,,,0,71,64
251520,note_on,,0,0,2,,,,,,0,76,92
251520,note_off,,96,0,2,,,,,,0,71,64
251616,note_on,,0,0,2,,,,,,0,79,92
251616,note_off,,96,0,2,,,,,,0,76,64
251712,note_on,,0,0,1,,,,,,0,71,92
251712,note_off,,192,0,1,,,,,,0,71,64
251712,note_on,,0,0,2,,,,,,0,76,92
251712,note_off,,96,0,2,,,,,,0,79,64
251808,note_on,,0,0,2,,,,,,0,71,92
251808,note_off,,96,0,2,,,,,,0,76,64
251904,note_off,,96,0,2,,,,,,0,71,64
251904,note_on,,0,0,2,,,,,,0,76,92
251904,note_off,,192,0,1,,,,,,0,71,64
251904,note_on,,0,0,1,,,,,,0,71,92
252000,note_off,,96,0,2,,,,,,0,76,64
252000,note_on,,0,0,2,,,,,,0,79,92
252096,note_on,,0,0,2,,,,,,0,76,92
252096,note_off,,192,0,1,,,,,,0,71,64
252096,note_on,,0,0,1,,,,,,0,71,92
252096,note_off,,96,0,2,,,,,,0,79,64
252192,note_on,,0,0,2,,,,,,0,71,92
252192,note_off,,96,0,2,,,,,,0,76,64
252288,note_on,,0,0,2,,,,,,0,76,92
252288,note_off,,96,0,2,,,,,,0,71,64
252288,note_on,,0,0,1,,,,,,0,79,92
252288,note_off,,192,0,1,,,,,,0,71,64
252384,note_on,,0,0,2,,,,,,0,79,92
252384,note_off,,96,0,2,,,,,,0,76,64
252480,note_on,,0,0,2,,,,,,0,76,92
252480,note_off,,96,0,2,,,,,,0,79,64
252480,note_on,,0,0,1,,,,,,0,71,92
252480,note_off,,192,0,1,,,,,,0,79,64
252576,note_off,,96,0,2,,,,,,0,76,64
252576,note_on,,0,0,2,,,,,,0,71,92
252672,note_off,,96,0,2,,,,,,0,71,64
252672,note_on,,0,0,2,,,,,,0,76,92
252672,note_on,,0,0,1,,,,,,0,71,92
252672,note_off,,192,0,1,,,,,,0,71,64
252768,note_off,,96,0,2,,,,,,0,76,64
252768,note_on,,0,0,2,,,,,,0,78,92
252864,note_on,,0,0,1,,,,,,0,71,92
252864,note_off,,192,0,1,,,,,,0,71,64
252864,note_off,,96,0,2,,,,,,0,78,64
252864,note_on,,0,0,2,,,,,,0,76,92
252960,note_on,,0,0,2,,,,,,0,71,92
252960,note_off,,96,0,2,,,,,,0,76,64
253056,note_off,,192,0,1,,,,,,0,71,64
253056,note_on,,0,0,2,,,,,,0,76,92
253056,note_off,,96,0,2,,,,,,0,71,64
253056,note_on,,0,0,1,,,,,,0,71,92
253152,note_on,,0,0,2,,,,,,0,78,92
253152,note_off,,96,0,2,,,,,,0,76,64
253248,note_off,,192,0,1,,,,,,0,71,64
253248,note_on,,0,0,1,,,,,,0,71,92
253248,note_on,,0,0,2,,,,,,0,76,92
253248,note_off,,96,0,2,,,,,,0,78,64
253344,note_off,,96,0,2,,,,,,0,76,64
253344,note_on,,0,0,2,,,,,,0,71,92
253440,note_off,,96,0,2,,,,,,0,71,64
253440,note_on,,0,0,2,,,,,,0,76,92
253440,note_off,,192,0,1,,,,,,0,71,64
253440,note_on,,0,0,1,,,,,,0,78,92
253536,note_off,,96,0,2,,,,,,0,76,64
253536,note_on,,0,0,2,,,,,,0,78,92
253632,note_on,,0,0,1,,,,,,0,71,92
253632,note_on,,0,0,2,,,,,,0,76,92
253632,note_off,,96,0,2,,,,,,0,78,64
253632,note_off,,192,0,1,,,,,,0,78,64
253728,note_off,,96,0,2,,,,,,0,76,64
253728,note_on,,0,0,2,,,,,,0,71,92
253824,note_off,,96,0,2,,,,,,0,71,64
253824,note_off,,192,0,1,,,,,,0,71,64
253824,note_on,,0,0,1,,,,,,0,71,92
253824,note_on,,0,0,2,,,,,,0,75,92
253920,note_on,,0,0,2,,,,,,0,78,92
253920,note_off,,96,0,2,,,,,,0,75,64
254016,note_on,,0,0,2,,,,,,0,75,92
254016,note_off,,96,0,2,,,,,,0,78,64
254016,note_on,,0,0,1,,,,,,0,71,92
254016,note_off,,192,0,1,,,,,,0,71,64
254112,note_on,,0,0,2,,,,,,0,69,92
254112,note_off,,96,0,2,,,,,,0,75,64
254208,note_on,,0,0,2,,,,,,0,75,92
254208,note_off,,96,0,2,,,,,,0,69,64
254208,note_on,,0,0,1,,,,,,0,71,92
254208,note_off,,192,0,1,,,,,,0,71,64
254304,note_off,,96,0,2,,,,,,0,75,64
254304,note_on,,0,0,2,,,,,,0,78,92
254400,note_off,,96,0,2,,,,,,0,78,64
254400,note_on,,0,0,2,,,,,,0,75,92
254400,note_on,,0,0,1,,,,,,0,71,92
254400,note_off,,192,0,1,,,,,,0,71,64
254496,note_on,,0,0,2,,,,,,0,69,92
254496,note_off,,96,0,2,,,,,,0,75,64
254592,note_on,,0,0,2,,,,,,0,75,92
254592,note_off,,96,0,2,,,,,,0,69,64
254592,note_off,,192,0,1,,,,,,0,71,64
254592,note_on,,0,0,1,,,,,,0,78,92
254688,note_off,,96,0,2,,,,,,0,75,64
254688,note_on,,0,0,2,,,,,,0,78,92
254784,note_off,,192,0,1,,,,,,0,78,64
254784,note_on,,0,0,1,,,,,,0,71,92
254784,note_off,,96,0,2,,,,,,0,78,64
254784,note_on,,0,0,2,,,,,,0,75,92
254880,note_on,,0,0,2,,,,,,0,69,92
254880,note_off,,96,0,2,,,,,,0,75,64
254976,note_on,,0,0,1,,,,,,0,71,92
254976,note_on,,0,0,2,,,,,,0,67,92
254976,note_off,,96,0,2,,,,,,0,69,64
254976,note_off,,192,0,1,,,,,,0,71,64
254976,note_on,,0,0,1,,,,,,0,76,92
254976,note_on,,15744,0,3,,,,,,0,52,102
255168,note_off,,192,0,2,,,,,,0,67,64
255168,note_on,,0,0,1,,,,,,0,83,92
255168,note_on,,0,0,2,,,,,,0,67,92
255168,note_off,,192,0,1,,,,,,0,76,64
255264,note_off,,96,0,2,,,,,,0,67,64
255264,note_off,,96,0,1,,,,,,0,83,64
255264,note_on,,0,0,1,,,,,,0,81,92
255264,note_on,,0,0,2,,,,,,0,66,92
255360,note_off,,96,0,2,,,,,,0,66,64
255360,note_on,,0,0,2,,,,,,0,64,92
255360,note_on,,0,0,3,,,,,,0,52,102
255360,note_off,,96,0,1,,,,,,0,81,64
255360,note_on,,0,0,1,,,,,,0,79,92
255360,note_off,,384,0,3,,,,,,0,52,64
255552,note_off,,192,0,1,,,,,,0,79,64
255552,note_on,,0,0,1,,,,,,0,83,92
255552,note_off,,192,0,2,,,,,,0,64,64
255552,note_on,,0,0,2,,,,,,0,67,92
255744,note_off,,384,0,3,,,,,,0,52,64
255744,note_on,,0,0,3,,,,,,0,52,102
255744,note_off,,0,0,1,,,,,,0,71,64
255744,note_off,,192,0,1,,,,,,0,83,64
255744,note_off,,192,0,2,,,,,,0,67,64
255744,note_on,,0,0,1,,,,,,0,79,92
255744,note_on,,0,0,2,,,,,,0,64,92
255936,note_off,,192,0,2,,,,,,0,64,64
255936,note_on,,0,0,2,,,,,,0,67,92
255936,note_off,,192,0,1,,,,,,0,79,64
255936,note_on,,0,0,1,,,,,,0,83,92
256128,note_off,,192,0,2,,,,,,0,67,64
256128,note_on,,0,0,1,,,,,,0,75,92
256128,note_off,,192,0,1,,,,,,0,83,64
256128,note_on,,0,0,1,,,,,,0,81,92
256128,note_on,,0,0,3,,,,,,0,59,102
256128,note_off,,384,0,3,,,,,,0,52,64
256128,note_on,,0,0,2,,,,,,0,66,92
256320,note_off,,192,0,2,,,,,,0,66,64
256320,note_on,,0,0,1,,,,,,0,78,92
256320,note_on,,0,0,2,,,,,,0,63,92
256320,note_off,,192,0,1,,,,,,0,81,64
256416,note_on,,0,0,1,,,,,,0,79,92
256416,note_off,,96,0,1,,,,,,0,78,64
256416,note_on,,0,0,2,,,,,,0,64,92
256416,note_off,,96,0,2,,,,,,0,63,64
256512,note_on,,0,0,1,,,,,,0,81,92
256512,note_off,,96,0,1,,,,,,0,79,64
256512,note_off,,384,0,3,,,,,,0,59,64
256512,note_on,,0,0,3,,,,,,0,47,102
256512,note_on,,0,0,2,,,,,,0,66,92
256512,note_off,,96,0,2,,,,,,0,64,64
256704,note_on,,0,0,1,,,,,,0,78,92
256704,note_off,,192,0,1,,,,,,0,81,64
256704,note_on,,0,0,2,,,,,,0,63,92
256704,note_off,,192,0,2,,,,,,0,66,64
256896,note_off,,192,0,2,,,,,,0,63,64
256896,note_on,,0,0,2,,,,,,0,59,92
256896,note_off,,0,0,1,,,,,,0,75,64
256896,note_off,,192,0,1,,,,,,0,78,64
256896,note_on,,0,0,1,,,,,,0,75,92
256896,note_on,,0,0,3,,,,,,0,59,102
256896,note_off,,384,0,3,,,,,,0,47,64
257088,note_off,,192,0,1,,,,,,0,75,64
257088,note_on,,0,0,2,,,,,,0,63,92
257088,note_off,,192,0,2,,,,,,0,59,64
257088,note_on,,0,0,1,,,,,,0,78,92
257280,note_on,,0,0,2,,,,,,0,64,92
257280,note_off,,192,0,2,,,,,,0,63,64
257280,note_on,,0,0,1,,,,,,0,79,92
257280,note_off,,192,0,1,,,,,,0,78,64
257280,note_on,,0,0,3,,,,,,0,52,102
257280,note_off,,384,0,3,,,,,,0,59,64
257280,note_on,,0,0,1,,,,,,0,71,92
257472,note_on,,0,0,1,,,,,,0,83,92
257472,note_off,,192,0,1,,,,,,0,79,64
257472,note_off,,192,0,2,,,,,,0,64,64
257472,note_on,,0,0,2,,,,,,0,67,92
257568,note_off,,96,0,2,,,,,,0,67,64
257568,note_on,,0,0,1,,,,,,0,81,92
257568,note_off,,96,0,1,,,,,,0,83,64
257568,note_on,,0,0,2,,,,,,0,66,92
257664,note_on,,0,0,2,,,,,,0,64,92
257664,note_on,,0,0,1,,,,,,0,79,92
257664,note_off,,96,0,1,,,,,,0,81,64
257664,note_off,,96,0,2,,,,,,0,66,64
257664,note_on,,0,0,3,,,,,,0,52,102
257664,note_off,,384,0,3,,,,,,0,52,64
257856,note_off,,192,0,2,,,,,,0,64,64
257856,note_on,,0,0,2,,,,,,0,67,92
257856,note_on,,0,0,1,,,,,,0,83,92
257856,note_off,,192,0,1,,,,,,0,79,64
258048,note_on,,0,0,1,,,,,,0,79,92
258048,note_off,,0,0,1,,,,,,0,71,64
258048,note_off,,192,0,1,,,,,,0,83,64
258048,note_off,,384,0,3,,,,,,0,52,64
258048,note_on,,0,0,3,,,,,,0,52,102
258048,note_off,,192,0,2,,,,,,0,67,64
258048,note_on,,0,0,2,,,,,,0,64,92
258240,note_on,,0,0,2,,,,,,0,67,92
258240,note_off,,192,0,2,,,,,,0,64,64
258240,note_off,,192,0,1,,,,,,0,79,64
258240,note_on,,0,0,1,,,,,,0,83,92
258432,note_off,,384,0,3,,,,,,0,52,64
258432,note_on,,0,0,3,,,,,,0,57,102
258432,note_on,,0,0,2,,,,,,0,64,92
258432,note_off,,192,0,1,,,,,,0,83,64
258432,note_off,,192,0,2,,,,,,0,67,64
258432,note_on,,0,0,1,,,,,,0,73,92
258432,note_on,,0,0,1,,,,,,0,79,92
258624,note_off,,192,0,1,,,,,,0,79,64
258624,note_on,,0,0,1,,,,,,0,76,92
258624,note_on,,0,0,2,,,,,,0,61,92
258624,note_off,,192,0,2,,,,,,0,64,64
258720,note_on,,0,0,2,,,,,,0,62,92
258720,note_off,,96,0,1,,,,,,0,76,64
258720,note_on,,0,0,1,,,,,,0,77,92
258720,note_off,,96,0,2,,,,,,0,61,64
258816,note_off,,384,0,3,,,,,,0,57,64
258816,note_on,,0,0,1,,,,,,0,79,92
258816,note_on,,0,0,2,,,,,,0,64,92
258816,note_off,,96,0,1,,,,,,0,77,64
258816,note_on,,0,0,3,,,,,,0,45,102
258816,note_off,,96,0,2,,,,,,0,62,64
259008,note_off,,192,0,1,,,,,,0,79,64
259008,note_on,,0,0,1,,,,,,0,76,92
259008,note_off,,192,0,2,,,,,,0,64,64
259008,note_on,,0,0,2,,,,,,0,61,92
259200,note_off,,192,0,2,,,,,,0,61,64
259200,note_on,,0,0,1,,,,,,0,73,92
259200,note_off,,0,0,1,,,,,,0,73,64
259200,note_off,,192,0,1,,,,,,0,76,64
259200,note_on,,0,0,3,,,,,,0,57,102
259200,note_on,,0,0,2,,,,,,0,57,92
259200,note_off,,384,0,3,,,,,,0,45,64
259392,note_on,,0,0,1,,,,,,0,76,92
259392,note_off,,192,0,2,,,,,,0,57,64
259392,note_on,,0,0,2,,,,,,0,61,92
259392,note_off,,192,0,1,,,,,,0,73,64
259584,note_on,,0,0,3,,,,,,0,50,102
259584,note_off,,192,0,1,,,,,,0,76,64
259584,note_off,,384,0,3,,,,,,0,57,64
259584,note_on,,0,0,1,,,,,,0,77,92
259584,note_on,,0,0,1,,,,,,0,69,92
259584,note_off,,192,0,2,,,,,,0,61,64
259584,note_on,,0,0,2,,,,,,0,62,92
259776,note_off,,192,0,2,,,,,,0,62,64
259776,note_off,,192,0,1,,,,,,0,77,64
259776,note_on,,0,0,1,,,,,,0,81,92
259776,note_on,,0,0,2,,,,,,0,65,92
259872,note_off,,96,0,2,,,,,,0,65,64
259872,note_on,,0,0,2,,,,,,0,64,92
259872,note_off,,96,0,1,,,,,,0,81,64
259872,note_on,,0,0,1,,,,,,0,79,92
259968,note_off,,96,0,1,,,,,,0,79,64
259968,note_on,,0,0,1,,,,,,0,77,92
259968,note_off,,384,0,3,,,,,,0,50,64
259968,note_on,,0,0,3,,,,,,0,50,102
259968,note_off,,96,0,2,,,,,,0,64,64
259968,note_on,,0,0,2,,,,,,0,62,92
260160,note_on,,0,0,1,,,,,,0,81,92
260160,note_off,,192,0,2,,,,,,0,62,64
260160,note_on,,0,0,2,,,,,,0,65,92
260160,note_off,,192,0,1,,,,,,0,77,64
260352,note_off,,384,0,3,,,,,,0,50,64
260352,note_on,,0,0,1,,,,,,0,77,92
260352,note_off,,0,0,1,,,,,,0,69,64
260352,note_off,,192,0,1,,,,,,0,81,64
260352,note_on,,0,0,2,,,,,,0,62,92
260352,note_off,,192,0,2,,,,,,0,65,64
260352,note_on,,0,0,3,,,,,,0,50,102
260544,note_off,,192,0,1,,,,,,0,77,64
260544,note_on,,0,0,1,,,,,,0,81,92
260544,note_on,,0,0,2,,,,,,0,65,92
260544,note_off,,192,0,2,,,,,,0,62,64
260736,note_on,,0,0,1,,,,,,0,77,92
260736,note_off,,192,0,2,,,,,,0,65,64
260736,note_on,,0,0,2,,,,,,0,62,92
260736,note_off,,192,0,1,,,,,,0,81,64
260736,note_on,,0,0,1,,,,,,0,71,92
260736,note_on,,0,0,3,,,,,,0,55,102
260736,note_off,,384,0,3,,,,,,0,50,64
260928,note_on,,0,0,1,,,,,,0,74,92
260928,note_off,,192,0,1,,,,,,0,77,64
260928,note_on,,0,0,2,,,,,,0,59,92
260928,note_off,,192,0,2,,,,,,0,62,64
261024,note_off,,96,0,1,,,,,,0,74,64
261024,note_on,,0,0,1,,,,,,0,76,92
261024,note_on,,0,0,2,,,,,,0,60,92
261024,note_off,,96,0,2,,,,,,0,59,64
261120,note_on,,0,0,3,,,,,,0,43,102
261120,note_off,,384,0,3,,,,,,0,55,64
261120,note_off,,96,0,1,,,,,,0,76,64
261120,note_on,,0,0,1,,,,,,0,77,92
261120,note_on,,0,0,2,,,,,,0,62,92
261120,note_off,,96,0,2,,,,,,0,60,64
261312,note_off,,192,0,1,,,,,,0,77,64
261312,note_on,,0,0,2,,,,,,0,59,92
261312,note_off,,192,0,2,,,,,,0,62,64
261312,note_on,,0,0,1,,,,,,0,74,92
261504,note_off,,192,0,1,,,,,,0,74,64
261504,note_off,,0,0,1,,,,,,0,71,64
261504,note_on,,0,0,2,,,,,,0,55,92
261504,note_off,,192,0,2,,,,,,0,59,64
261504,note_on,,0,0,3,,,,,,0,55,102
261504,note_off,,384,0,3,,,,,,0,43,64
261504,note_on,,0,0,1,,,,,,0,71,92
261696,note_on,,0,0,1,,,,,,0,74,92
261696,note_on,,0,0,2,,,,,,0,59,92
261696,note_off,,192,0,1,,,,,,0,71,64
261696,note_off,,192,0,2,,,,,,0,55,64
261888,note_on,,0,0,3,,,,,,0,48,102
261888,note_off,,192,0,1,,,,,,0,74,64
261888,note_on,,0,0,1,,,,,,0,67,92
261888,note_on,,0,0,1,,,,,,0,76,92
261888,note_on,,0,0,2,,,,,,0,60,92
261888,note_off,,192,0,2,,,,,,0,59,64
261888,note_off,,384,0,3,,,,,,0,55,64
262080,note_off,,192,0,1,,,,,,0,76,64
262080,note_on,,0,0,1,,,,,,0,79,92
262080,note_on,,0,0,2,,,,,,0,64,92
262080,note_off,,192,0,2,,,,,,0,60,64
262176,note_on,,0,0,2,,,,,,0,62,92
262176,note_on,,0,0,1,,,,,,0,77,92
262176,note_off,,96,0,1,,,,,,0,79,64
262176,note_off,,96,0,2,,,,,,0,64,64
262272,note_on,,0,0,2,,,,,,0,60,92
262272,note_off,,96,0,1,,,,,,0,77,64
262272,note_off,,384,0,3,,,,,,0,48,64
262272,note_on,,0,0,3,,,,,,0,48,102
262272,note_on,,0,0,1,,,,,,0,76,92
262272,note_off,,96,0,2,,,,,,0,62,64
262464,note_off,,192,0,2,,,,,,0,60,64
262464,note_off,,192,0,1,,,,,,0,76,64
262464,note_on,,0,0,1,,,,,,0,79,92
262464,note_on,,0,0,2,,,,,,0,64,92
262656,note_off,,192,0,2,,,,,,0,64,64
262656,note_on,,0,0,2,,,,,,0,60,92
262656,note_on,,0,0,3,,,,,,0,48,102
262656,note_off,,384,0,3,,,,,,0,48,64
262656,note_off,,192,0,1,,,,,,0,79,64
262656,note_off,,0,0,1,,,,,,0,67,64
262656,note_on,,0,0,1,,,,,,0,76,92
262848,note_off,,192,0,2,,,,,,0,60,64
262848,note_on,,0,0,2,,,,,,0,64,92
262848,note_on,,0,0,1,,,,,,0,79,92
262848,note_off,,192,0,1,,,,,,0,76,64
263040,note_on,,0,0,1,,,,,,0,71,92
263040,note_on,,0,0,2,,,,,,0,62,92
263040,note_off,,192,0,2,,,,,,0,64,64
263040,note_off,,384,0,3,,,,,,0,48,64
263040,note_on,,0,0,3,,,,,,0,55,102
263040,note_off,,192,0,1,,,,,,0,79,64
263040,note_on,,0,0,1,,,,,,0,77,92
263232,note_on,,0,0,1,,,,,,0,74,92
263232,note_off,,192,0,1,,,,,,0,77,64
263232,note_off,,192,0,2,,,,,,0,62,64
263232,note_on,,0,0,2,,,,,,0,59,92
263328,note_on,,0,0,1,,,,,,0,76,92
263328,note_off,,96,0,1,,,,,,0,74,64
263328,note_on,,0,0,2,,,,,,0,60,92
263328,note_off,,96,0,2,,,,,,0,59,64
263424,note_on,,0,0,3,,,,,,0,43,102
263424,note_off,,96,0,1,,,,,,0,76,64
263424,note_on,,0,0,2,,,,,,0,62,92
263424,note_off,,96,0,2,,,,,,0,60,64
263424,note_off,,384,0,3,,,,,,0,55,64
263424,note_on,,0,0,1,,,,,,0,77,92
263616,note_off,,192,0,2,,,,,,0,62,64
263616,note_on,,0,0,2,,,,,,0,59,92
263616,note_on,,0,0,1,,,,,,0,74,92
263616,note_off,,192,0,1,,,,,,0,77,64
263808,note_on,,0,0,1,,,,,,0,71,92
263808,note_off,,0,0,1,,,,,,0,71,64
263808,note_off,,192,0,1,,,,,,0,74,64
263808,note_off,,192,0,2,,,,,,0,59,64
263808,note_on,,0,0,2,,,,,,0,55,92
263808,note_on,,0,0,3,,,,,,0,55,102
263808,note_off,,384,0,3,,,,,,0,43,64
264000,note_off,,192,0,2,,,,,,0,55,64
264000,note_off,,192,0,1,,,,,,0,71,64
264000,note_on,,0,0,2,,,,,,0,59,92
264000,note_on,,0,0,1,,,,,,0,74,92
264192,note_on,,0,0,1,,,,,,0,67,92
264192,note_on,,0,0,2,,,,,,0,60,92
264192,note_off,,192,0,1,,,,,,0,74,64
264192,note_off,,192,0,2,,,,,,0,59,64
264192,note_off,,384,0,3,,,,,,0,55,64
264192,note_on,,0,0,1,,,,,,0,76,92
264288,note_on,,96,0,3,,,,,,0,55,102
264384,note_off,,96,0,3,,,,,,0,55,64
264384,note_on,,0,0,3,,,,,,0,53,102
264480,note_on,,0,0,3,,,,,,0,55,102
264480,note_off,,96,0,3,,,,,,0,53,64
264576,note_on,,0,0,3,,,,,,0,52,102
264576,note_off,,96,0,3,,,,,,0,55,64
264576,note_off,,384,0,2,,,,,,0,60,64
264576,note_off,,384,0,1,,,,,,0,76,64
264576,note_off,,0,0,1,,,,,,0,67,64
264672,note_off,,96,0,3,,,,,,0,52,64
264672,note_on,,0,0,3,,,,,,0,53,102
264768,note_off,,96,0,3,,,,,,0,53,64
264768,note_on,,0,0,3,,,,,,0,50,102
264864,note_off,,96,0,3,,,,,,0,50,64
264864,note_on,,0,0,3,,,,,,0,52,102
264960,note_off,,96,0,3,,,,,,0,52,64
264960,note_on,,0,0,3,,,,,,0,48,102
265152,note_off,,192,0,3,,,,,,0,48,64
265248,note_on,,0,0,1,,,,,,0,79,92
265248,note_on,,672,0,2,,,,,,0,57,92
265248,note_on,,0,0,1,,,,,,0,73,92
265248,note_on,,672,0,1,,,,,,0,69,92
265248,note_on,,0,0,2,,,,,,0,64,92
265344,note_off,,96,0,2,,,,,,0,64,64
265344,note_on,,0,0,2,,,,,,0,57,92
265344,note_off,,0,0,2,,,,,,0,57,64
265344,note_on,,0,0,2,,,,,,0,64,92
265344,note_off,,0,0,1,,,,,,0,69,64
265344,note_on,,0,0,1,,,,,,0,69,92
265344,note_on,,0,0,1,,,,,,0,73,92
265344,note_on,,0,0,1,,,,,,0,79,92
265344,note_off,,0,0,1,,,,,,0,73,64
265344,note_off,,96,0,1,,,,,,0,79,64
265440,note_on,,288,0,3,,,,,,0,52,102
265536,note_off,,96,0,3,,,,,,0,52,64
265536,note_on,,0,0,3,,,,,,0,50,102
265632,note_off,,96,0,3,,,,,,0,50,64
265632,note_on,,0,0,3,,,,,,0,52,102
265728,note_off,,384,0,1,,,,,,0,79,64
265728,note_off,,0,0,1,,,,,,0,73,64
265728,note_off,,0,0,1,,,,,,0,69,64
265728,note_off,,96,0,3,,,,,,0,52,64
265728,note_on,,0,0,3,,,,,,0,49,102
265728,note_off,,0,0,2,,,,,,0,57,64
265728,note_off,,384,0,2,,,,,,0,64,64
265824,note_off,,96,0,3,,,,,,0,49,64
265824,note_on,,0,0,3,,,,,,0,50,102
265920,note_on,,0,0,3,,,,,,0,47,102
265920,note_off,,96,0,3,,,,,,0,50,64
266016,note_off,,96,0,3,,,,,,0,47,64
266016,note_on,,0,0,3,,,,,,0,49,102
266112,note_on,,0,0,3,,,,,,0,45,102
266112,note_off,,96,0,3,,,,,,0,49,64
266304,note_off,,192,0,3,,,,,,0,45,64
266400,note_on,,672,0,2,,,,,,0,62,92
266400,note_on,,672,0,1,,,,,,0,69,92
266400,note_on,,0,0,1,,,,,,0,74,92
266400,note_on,,0,0,1,,,,,,0,78,92
266400,note_on,,0,0,2,,,,,,0,66,92
266496,note_off,,96,0,2,,,,,,0,66,64
266496,note_on,,0,0,2,,,,,,0,66,92
266496,note_off,,0,0,2,,,,,,0,62,64
266496,note_on,,0,0,2,,,,,,0,62,92
266496,note_on,,0,0,1,,,,,,0,78,92
266496,note_on,,0,0,1,,,,,,0,74,92
266496,note_on,,0,0,1,,,,,,0,69,92
266496,note_off,,0,0,1,,,,,,0,74,64
266496,note_off,,96,0,1,,,,,,0,78,64
266496,note_off,,0,0,1,,,,,,0,69,64
266592,note_on,,288,0,3,,,,,,0,57,102
266688,note_on,,0,0,3,,,,,,0,55,102
266688,note_off,,96,0,3,,,,,,0,57,64
266784,note_off,,96,0,3,,,,,,0,55,64
266784,note_on,,0,0,3,,,,,,0,57,102
266880,note_off,,384,0,2,,,,,,0,66,64
266880,note_off,,0,0,1,,,,,,0,69,64
266880,note_on,,0,0,3,,,,,,0,54,102
266880,note_off,,96,0,3,,,,,,0,57,64
266880,note_off,,0,0,1,,,,,,0,74,64
266880,note_off,,384,0,1,,,,,,0,78,64
266880,note_off,,0,0,2,,,,,,0,62,64
266976,note_off,,96,0,3,,,,,,0,54,64
266976,note_on,,0,0,3,,,,,,0,55,102
267072,note_off,,96,0,3,,,,,,0,55,64
267072,note_on,,0,0,3,,,,,,0,52,102
267168,note_off,,96,0,3,,,,,,0,52,64
267168,note_on,,0,0,3,,,,,,0,54,102
267264,note_off,,96,0,3,,,,,,0,54,64
267264,note_on,,0,0,3,,,,,,0,50,102
267456,note_off,,192,0,3,,,,,,0,50,64
267552,note_on,,0,0,2,,,,,,0,66,92
267552,note_on,,672,0,2,,,,,,0,59,92
267552,note_on,,672,0,1,,,,,,0,71,92
267552,note_on,,0,0,1,,,,,,0,75,92
267552,note_on,,0,0,1,,,,,,0,81,92
267648,note_off,,96,0,2,,,,,,0,66,64
267648,note_on,,0,0,1,,,,,,0,75,92
267648,note_on,,0,0,1,,,,,,0,71,92
267648,note_off,,0,0,1,,,,,,0,71,64
267648,note_off,,0,0,1,,,,,,0,75,64
267648,note_off,,96,0,1,,,,,,0,81,64
267648,note_on,,0,0,2,,,,,,0,66,92
267648,note_on,,0,0,2,,,,,,0,59,92
267648,note_on,,0,0,1,,,,,,0,81,92
267648,note_off,,0,0,2,,,,,,0,59,64
267744,note_on,,288,0,3,,,,,,0,54,102
267840,note_on,,0,0,3,,,,,,0,52,102
267840,note_off,,96,0,3,,,,,,0,54,64
267936,note_on,,0,0,3,,,,,,0,54,102
267936,note_off,,96,0,3,,,,,,0,52,64
268032,note_off,,384,0,2,,,,,,0,66,64
268032,note_off,,96,0,3,,,,,,0,54,64
268032,note_on,,0,0,3,,,,,,0,51,102
268032,note_off,,0,0,2,,,,,,0,59,64
268032,note_off,,0,0,1,,,,,,0,71,64
268032,note_off,,0,0,1,,,,,,0,75,64
268032,note_off,,384,0,1,,,,,,0,81,64
268128,note_off,,96,0,3,,,,,,0,51,64
268128,note_on,,0,0,3,,,,,,0,52,102
268224,note_off,,96,0,3,,,,,,0,52,64
268224,note_on,,0,0,3,,,,,,0,49,102
268320,note_off,,96,0,3,,,,,,0,49,64
268320,note_on,,0,0,3,,,,,,0,51,102
268416,note_off,,96,0,3,,,,,,0,51,64
268416,note_on,,0,0,3,,,,,,0,47,102
268608,note_off,,192,0,3,,,,,,0,47,64
268704,note_on,,0,0,2,,,,,,0,68,92
268704,note_on,,672,0,2,,,,,,0,64,92
268704,note_on,,0,0,1,,,,,,0,80,92
268704,note_on,,672,0,1,,,,,,0,71,92
268704,note_on,,0,0,1,,,,,,0,76,92
268800,note_off,,0,0,2,,,,,,0,64,64
268800,note_on,,0,0,2,,,,,,0,64,92
268800,note_on,,0,0,2,,,,,,0,68,92
268800,note_on,,0,0,1,,,,,,0,80,92
268800,note_on,,0,0,1,,,,,,0,76,92
268800,note_off,,96,0,2,,,,,,0,68,64
268800,note_on,,0,0,1,,,,,,0,71,92
268800,note_off,,96,0,1,,,,,,0,80,64
268800,note_off,,0,0,1,,,,,,0,76,64
268800,note_off,,0,0,1,,,,,,0,71,64
268896,note_on,,288,0,3,,,,,,0,59,102
268992,note_on,,0,0,3,,,,,,0,57,102
268992,note_off,,96,0,3,,,,,,0,59,64
269088,note_on,,0,0,3,,,,,,0,59,102
269088,note_off,,96,0,3,,,,,,0,57,64
269184,note_on,,0,0,3,,,,,,0,56,102
269184,note_off,,0,0,2,,,,,,0,64,64
269184,note_off,,96,0,3,,,,,,0,59,64
269184,note_off,,384,0,2,,,,,,0,68,64
269184,note_off,,384,0,1,,,,,,0,80,64
269184,note_off,,0,0,1,,,,,,0,76,64
269184,note_off,,0,0,1,,,,,,0,71,64
269280,note_on,,0,0,3,,,,,,0,57,102
269280,note_off,,96,0,3,,,,,,0,56,64
269376,note_off,,96,0,3,,,,,,0,57,64
269376,note_on,,0,0,3,,,,,,0,54,102
269472,note_on,,0,0,3,,,,,,0,56,102
269472,note_off,,96,0,3,,,,,,0,54,64
269568,note_off,,96,0,3,,,,,,0,56,64
269568,note_on,,0,0,3,,,,,,0,52,102
269664,note_off,,96,0,3,,,,,,0,52,64
269664,note_on,,0,0,3,,,,,,0,53,102
269760,note_on,,0,0,3,,,,,,0,50,102
269760,note_off,,96,0,3,,,,,,0,53,64
269856,note_off,,96,0,3,,,,,,0,50,64
269856,note_on,,0,0,3,,,,,,0,52,102
269952,note_off,,96,0,3,,,,,,0,52,64
269952,note_on,,0,0,3,,,,,,0,48,102
269952,note_on,,768,0,2,,,,,,0,69,92
269952,note_on,,768,0,1,,,,,,0,81,92
270144,note_on,,0,0,2,,,,,,0,67,92
270144,note_off,,192,0,2,,,,,,0,69,64
270144,note_on,,0,0,1,,,,,,0,79,92
270144,note_off,,192,0,1,,,,,,0,81,64
270240,note_on,,0,0,1,,,,,,0,77,92
270240,note_off,,96,0,1,,,,,,0,79,64
270240,note_off,,96,0,2,,,,,,0,67,64
270240,note_on,,0,0,2,,,,,,0,65,92
270336,note_off,,384,0,3,,,,,,0,48,64
270336,note_off,,96,0,2,,,,,,0,65,64
270336,note_off,,96,0,1,,,,,,0,77,64
270336,note_on,,0,0,1,,,,,,0,76,92
270336,note_on,,0,0,2,,,,,,0,64,92
270432,note_off,,96,0,2,,,,,,0,64,64
270432,note_on,,0,0,2,,,,,,0,69,92
270432,note_off,,96,0,1,,,,,,0,76,64
270432,note_on,,0,0,1,,,,,,0,81,92
270528,note_off,,96,0,1,,,,,,0,81,64
270528,note_on,,0,0,2,,,,,,0,67,92
270528,note_off,,96,0,2,,,,,,0,69,64
270528,note_on,,0,0,1,,,,,,0,79,92
270624,note_off,,96,0,2,,,,,,0,67,64
270624,note_on,,0,0,2,,,,,,0,65,92
270624,note_on,,0,0,1,,,,,,0,77,92
270624,note_off,,96,0,1,,,,,,0,79,64
270720,note_off,,96,0,1,,,,,,0,77,64
270720,note_off,,96,0,2,,,,,,0,65,64
270720,note_on,,0,0,2,,,,,,0,64,92
270720,note_on,,0,0,1,,,,,,0,76,92
270816,note_on,,0,0,1,,,,,,0,74,92
270816,note_on,,0,0,2,,,,,,0,62,92
270816,note_off,,96,0,2,,,,,,0,64,64
270816,note_off,,96,0,1,,,,,,0,76,64
270912,note_off,,96,0,1,,,,,,0,74,64
270912,note_on,,0,0,2,,,,,,0,60,92
270912,note_on,,0,0,1,,,,,,0,72,92
270912,note_off,,96,0,2,,,,,,0,62,64
271008,note_off,,96,0,2,,,,,,0,60,64
271008,note_on,,0,0,2,,,,,,0,59,92
271008,note_on,,0,0,1,,,,,,0,71,92
271008,note_off,,96,0,1,,,,,,0,72,64
271104,note_off,,96,0,2,,,,,,0,59,64
271104,note_on,,0,0,2,,,,,,0,57,92
271104,note_on,,768,0,3,,,,,,0,48,102
271104,note_off,,96,0,1,,,,,,0,71,64
271104,note_on,,0,0,1,,,,,,0,69,92
271296,note_off,,192,0,1,,,,,,0,69,64
271296,note_off,,192,0,2,,,,,,0,57,64
271296,note_on,,0,0,2,,,,,,0,55,92
271296,note_on,,0,0,1,,,,,,0,67,92
271392,note_off,,96,0,2,,,,,,0,55,64
271392,note_on,,0,0,2,,,,,,0,53,92
271392,note_off,,96,0,1,,,,,,0,67,64
271392,note_on,,0,0,1,,,,,,0,65,92
271488,note_off,,96,0,2,,,,,,0,53,64
271488,note_off,,384,0,3,,,,,,0,48,64
271488,note_off,,96,0,1,,,,,,0,65,64
271488,note_on,,0,0,1,,,,,,0,64,92
271488,note_on,,0,0,2,,,,,,0,52,92
271584,note_off,,96,0,1,,,,,,0,64,64
271584,note_on,,0,0,1,,,,,,0,69,92
271584,note_on,,0,0,2,,,,,,0,57,92
271584,note_off,,96,0,2,,,,,,0,52,64
271680,note_off,,96,0,2,,,,,,0,57,64
271680,note_off,,96,0,1,,,,,,0,69,64
271680,note_on,,0,0,1,,,,,,0,67,92
271680,note_on,,0,0,2,,,,,,0,55,92
271776,note_off,,96,0,2,,,,,,0,55,64
271776,note_on,,0,0,2,,,,,,0,53,92
271776,note_off,,96,0,1,,,,,,0,67,64
271776,note_on,,0,0,1,,,,,,0,65,92
271872,note_off,,96,0,2,,,,,,0,53,64
271872,note_off,,96,0,1,,,,,,0,65,64
271872,note_on,,0,0,1,,,,,,0,64,92
271872,note_on,,0,0,2,,,,,,0,52,92
271968,note_off,,96,0,2,,,,,,0,52,64
271968,note_off,,96,0,1,,,,,,0,64,64
271968,note_on,,0,0,2,,,,,,0,50,92
271968,note_on,,0,0,1,,,,,,0,62,92
272064,note_off,,96,0,1,,,,,,0,62,64
272064,note_on,,0,0,1,,,,,,0,60,92
272064,note_off,,96,0,2,,,,,,0,50,64
272064,note_on,,0,0,2,,,,,,0,48,92
272160,note_off,,96,0,1,,,,,,0,60,64
272160,note_on,,0,0,1,,,,,,0,59,92
272160,note_off,,96,0,2,,,,,,0,48,64
272160,note_on,,0,0,2,,,,,,0,47,92
272256,note_off,,96,0,2,,,,,,0,47,64
272256,note_on,,0,0,1,,,,,,0,57,92
272256,note_off,,96,0,1,,,,,,0,59,64
272256,note_on,,0,0,2,,,,,,0,45,92
272352,note_on,,864,0,3,,,,,,0,60,102
272448,note_on,,0,0,3,,,,,,0,59,102
272448,note_off,,96,0,3,,,,,,0,60,64
272544,note_off,,96,0,3,,,,,,0,59,64
272544,note_on,,0,0,3,,,,,,0,60,102
272640,note_on,,0,0,2,,,,,,0,72,92
272640,note_off,,384,0,1,,,,,,0,57,64
272640,note_on,,0,0,1,,,,,,0,76,92
272640,note_on,,0,0,1,,,,,,0,81,92
272640,note_off,,384,0,2,,,,,,0,45,64
272640,note_on,,0,0,3,,,,,,0,57,102
272640,note_off,,96,0,3,,,,,,0,60,64
272736,note_on,,0,0,3,,,,,,0,59,102
272736,note_off,,96,0,3,,,,,,0,57,64
272832,note_off,,96,0,3,,,,,,0,59,64
272832,note_on,,0,0,3,,,,,,0,55,102
272928,note_on,,0,0,3,,,,,,0,57,102
272928,note_off,,96,0,3,,,,,,0,55,64
273024,note_off,,384,0,1,,,,,,0,76,64
273024,note_on,,0,0,1,,,,,,0,75,92
273024,note_on,,0,0,3,,,,,,0,54,102
273024,note_off,,96,0,3,,,,,,0,57,64
273120,note_off,,96,0,3,,,,,,0,54,64
273120,note_on,,0,0,3,,,,,,0,55,102
273216,note_off,,192,0,1,,,,,,0,75,64
273216,note_on,,0,0,1,,,,,,0,76,92
273216,note_off,,96,0,3,,,,,,0,55,64
273216,note_on,,0,0,3,,,,,,0,52,102
273312,note_off,,96,0,3,,,,,,0,52,64
273312,note_on,,0,0,3,,,,,,0,54,102
273408,note_on,,0,0,1,,,,,,0,81,92
273408,note_off,,0,0,1,,,,,,0,81,64
273408,note_off,,192,0,1,,,,,,0,76,64
273408,note_on,,0,0,3,,,,,,0,51,102
273408,note_off,,96,0,3,,,,,,0,54,64
273408,note_off,,768,0,2,,,,,,0,72,64
273408,note_on,,0,0,1,,,,,,0,78,92
273504,note_on,,96,0,2,,,,,,0,71,92
273600,note_off,,96,0,2,,,,,,0,71,64
273600,note_on,,0,0,2,,,,,,0,69,92
273696,note_off,,96,0,2,,,,,,0,69,64
273696,note_on,,0,0,2,,,,,,0,71,92
273792,note_off,,384,0,1,,,,,,0,81,64
273792,note_off,,0,0,1,,,,,,0,78,64
273792,note_on,,0,0,2,,,,,,0,67,92
273792,note_off,,96,0,2,,,,,,0,71,64
273792,note_off,,384,0,3,,,,,,0,51,64
273888,note_on,,0,0,2,,,,,,0,69,92
273888,note_off,,96,0,2,,,,,,0,67,64
273984,note_on,,0,0,2,,,,,,0,66,92
273984,note_off,,96,0,2,,,,,,0,69,64
274080,note_off,,96,0,2,,,,,,0,66,64
274080,note_on,,0,0,2,,,,,,0,67,92
274176,note_on,,384,0,3,,,,,,0,52,102
274176,note_on,,0,0,1,,,,,,0,79,92
274176,note_on,,0,0,1,,,,,,0,76,92
274176,note_on,,384,0,1,,,,,,0,71,92
274176,note_on,,0,0,2,,,,,,0,64,92
274176,note_off,,96,0,2,,,,,,0,67,64
274272,note_on,,0,0,2,,,,,,0,66,92
274272,note_off,,96,0,2,,,,,,0,64,64
274368,note_on,,0,0,2,,,,,,0,62,92
274368,note_off,,96,0,2,,,,,,0,66,64
274464,note_off,,96,0,2,,,,,,0,62,64
274464,note_on,,0,0,2,,,,,,0,64,92
274560,note_on,,0,0,1,,,,,,0,79,92
274560,note_on,,0,0,1,,,,,,0,76,92
274560,note_on,,0,0,1,,,,,,0,72,92
274560,note_off,,0,0,1,,,,,,0,71,64
274560,note_off,,0,0,1,,,,,,0,76,64
274560,note_off,,384,0,3,,,,,,0,52,64
274560,note_on,,0,0,3,,,,,,0,45,102
274560,note_off,,96,0,2,,,,,,0,64,64
274560,note_on,,0,0,2,,,,,,0,60,92
274560,note_off,,384,0,1,,,,,,0,79,64
274656,note_off,,96,0,2,,,,,,0,60,64
274656,note_on,,0,0,2,,,,,,0,62,92
274752,note_off,,96,0,2,,,,,,0,62,64
274752,note_on,,0,0,2,,,,,,0,59,92
274848,note_off,,96,0,2,,,,,,0,59,64
274848,note_on,,0,0,2,,,,,,0,60,92
274944,note_on,,0,0,2,,,,,,0,57,92
274944,note_off,,96,0,2,,,,,,0,60,64
274944,note_on,,0,0,3,,,,,,0,42,102
274944,note_off,,384,0,3,,,,,,0,45,64
274944,note_on,,0,0,1,,,,,,0,78,92
274944,note_on,,0,0,1,,,,,,0,76,92
274944,note_off,,0,0,1,,,,,,0,72,64
274944,note_off,,0,0,1,,,,,,0,76,64
274944,note_off,,384,0,1,,,,,,0,79,64
274944,note_on,,0,0,1,,,,,,0,72,92
275040,note_on,,0,0,2,,,,,,0,69,92
275040,note_off,,96,0,2,,,,,,0,57,64
275136,note_off,,96,0,2,,,,,,0,69,64
275136,note_on,,0,0,2,,,,,,0,67,92
275232,note_off,,96,0,2,,,,,,0,67,64
275232,note_on,,0,0,2,,,,,,0,69,92
275328,note_off,,384,0,3,,,,,,0,42,64
275328,note_off,,384,0,1,,,,,,0,78,64
275328,note_off,,0,0,1,,,,,,0,76,64
275328,note_on,,0,0,2,,,,,,0,59,92
275328,note_on,,0,0,1,,,,,,0,71,92
275328,note_on,,0,0,1,,,,,,0,75,92
275328,note_on,,0,0,3,,,,,,0,47,102
275328,note_off,,96,0,2,,,,,,0,69,64
275328,note_off,,0,0,1,,,,,,0,72,64
275424,note_on,,96,0,2,,,,,,0,69,92
275520,note_on,,0,0,2,,,,,,0,67,92
275520,note_on,,192,0,1,,,,,,0,78,92
275520,note_off,,96,0,2,,,,,,0,69,64
275616,note_off,,96,0,2,,,,,,0,67,64
275616,note_on,,0,0,2,,,,,,0,66,92
275712,note_on,,0,0,3,,,,,,0,40,102
275712,note_off,,96,0,2,,,,,,0,66,64
275712,note_on,,0,0,1,,,,,,0,71,92
275712,note_on,,0,0,1,,,,,,0,76,92
275712,note_off,,0,0,1,,,,,,0,71,64
275712,note_off,,0,0,1,,,,,,0,75,64
275712,note_off,,192,0,1,,,,,,0,78,64
275712,note_off,,384,0,3,,,,,,0,47,64
275712,note_on,,0,0,2,,,,,,0,67,92
275808,note_on,,0,0,1,,,,,,0,79,92
275808,note_off,,96,0,1,,,,,,0,76,64
275904,note_on,,0,0,1,,,,,,0,77,92
275904,note_off,,96,0,1,,,,,,0,79,64
276000,note_on,,0,0,1,,,,,,0,79,92
276000,note_off,,96,0,1,,,,,,0,77,64
276096,note_off,,0,0,2,,,,,,0,59,64
276096,note_off,,384,0,2,,,,,,0,67,64
276096,note_off,,96,0,1,,,,,,0,79,64
276096,note_off,,0,0,1,,,,,,0,71,64
276096,note_on,,0,0,1,,,,,,0,76,92
276096,note_off,,384,0,3,,,,,,0,40,64
276192,note_off,,96,0,1,,,,,,0,76,64
276192,note_on,,0,0,1,,,,,,0,77,92
276288,note_off,,96,0,1,,,,,,0,77,64
276288,note_on,,0,0,1,,,,,,0,74,92
276384,note_off,,96,0,1,,,,,,0,74,64
276384,note_on,,0,0,1,,,,,,0,76,92
276480,note_off,,96,0,1,,,,,,0,76,64
276480,note_on,,0,0,1,,,,,,0,73,92
276576,note_off,,96,0,1,,,,,,0,73,64
276576,note_on,,0,0,1,,,,,,0,74,92
276672,note_on,,0,0,1,,,,,,0,71,92
276672,note_off,,96,0,1,,,,,,0,74,64
276768,note_off,,96,0,1,,,,,,0,71,64
276768,note_on,,0,0,1,,,,,,0,73,92
276864,note_on,,0,0,1,,,,,,0,69,92
276864,note_off,,96,0,1,,,,,,0,73,64
276960,note_on,,864,0,2,,,,,,0,65,92
277056,note_on,,0,0,1,,,,,,0,77,92
277056,note_on,,0,0,1,,,,,,0,74,92
277056,note_on,,0,0,1,,,,,,0,69,92
277056,note_on,,0,0,2,,,,,,0,64,92
277056,note_off,,96,0,2,,,,,,0,65,64
277056,note_off,,192,0,1,,,,,,0,69,64
277152,note_off,,96,0,2,,,,,,0,64,64
277152,note_on,,0,0,2,,,,,,0,65,92
277248,note_on,,0,0,2,,,,,,0,62,92
277248,note_off,,0,0,1,,,,,,0,74,64
277248,note_off,,96,0,2,,,,,,0,65,64
277248,note_on,,0,0,1,,,,,,0,77,92
277248,note_on,,0,0,1,,,,,,0,74,92
277248,note_on,,0,0,1,,,,,,0,69,92
277248,note_off,,192,0,1,,,,,,0,69,64
277248,note_off,,0,0,1,,,,,,0,77,64
277344,note_on,,0,0,2,,,,,,0,64,92
277344,note_off,,96,0,2,,,,,,0,62,64
277440,note_on,,0,0,2,,,,,,0,60,92
277440,note_off,,192,0,1,,,,,,0,69,64
277440,note_off,,96,0,2,,,,,,0,64,64
277440,note_off,,0,0,1,,,,,,0,74,64
277440,note_off,,0,0,1,,,,,,0,77,64
277440,note_on,,0,0,1,,,,,,0,69,92
277440,note_on,,0,0,1,,,,,,0,74,92
277440,note_on,,0,0,1,,,,,,0,77,92
277536,note_on,,0,0,2,,,,,,0,62,92
277536,note_off,,96,0,2,,,,,,0,60,64
277632,note_on,,0,0,2,,,,,,0,58,92
277632,note_off,,96,0,2,,,,,,0,62,64
277632,note_off,,192,0,1,,,,,,0,69,64
277632,note_on,,0,0,1,,,,,,0,77,92
277632,note_off,,0,0,1,,,,,,0,74,64
277632,note_off,,0,0,1,,,,,,0,77,64
277632,note_on,,0,0,1,,,,,,0,70,92
277632,note_on,,0,0,1,,,,,,0,74,92
277728,note_on,,0,0,2,,,,,,0,60,92
277728,note_off,,96,0,2,,,,,,0,58,64
277824,note_off,,0,0,1,,,,,,0,77,64
277824,note_on,,0,0,1,,,,,,0,77,92
277824,note_off,,0,0,1,,,,,,0,74,64
277824,note_on,,0,0,2,,,,,,0,57,92
277824,note_on,,0,0,1,,,,,,0,70,92
277824,note_on,,0,0,1,,,,,,0,74,92
277824,note_off,,192,0,1,,,,,,0,70,64
277824,note_off,,96,0,2,,,,,,0,60,64
277920,note_on,,0,0,2,,,,,,0,58,92
277920,note_off,,96,0,2,,,,,,0,57,64
278016,note_on,,0,0,1,,,,,,0,70,92
278016,note_on,,0,0,2,,,,,,0,55,92
278016,note_on,,0,0,1,,,,,,0,74,92
278016,note_off,,0,0,1,,,,,,0,77,64
278016,note_off,,0,0,1,,,,,,0,74,64
278016,note_off,,192,0,1,,,,,,0,70,64
278016,note_off,,96,0,2,,,,,,0,58,64
278016,note_on,,0,0,1,,,,,,0,76,92
278112,note_off,,96,0,2,,,,,,0,55,64
278112,note_on,,0,0,2,,,,,,0,57,92
278208,note_on,,0,0,2,,,,,,0,53,92
278208,note_off,,192,0,1,,,,,,0,70,64
278208,note_off,,0,0,1,,,,,,0,74,64
278208,note_off,,0,0,1,,,,,,0,76,64
278208,note_on,,0,0,1,,,,,,0,76,92
278208,note_on,,0,0,1,,,,,,0,74,92
278208,note_on,,0,0,1,,,,,,0,70,92
278208,note_off,,96,0,2,,,,,,0,57,64
278304,note_on,,0,0,2,,,,,,0,55,92
278304,note_off,,96,0,2,,,,,,0,53,64
278400,note_off,,0,0,1,,,,,,0,74,64
278400,note_on,,0,0,1,,,,,,0,76,92
278400,note_on,,0,0,1,,,,,,0,74,92
278400,note_on,,0,0,1,,,,,,0,70,92
278400,note_on,,0,0,2,,,,,,0,52,92
278400,note_off,,96,0,2,,,,,,0,55,64
278400,note_off,,0,0,1,,,,,,0,76,64
278400,note_off,,192,0,1,,,,,,0,70,64
278496,note_off,,96,0,2,,,,,,0,52,64
278496,note_on,,0,0,2,,,,,,0,55,92
278592,note_on,,0,0,1,,,,,,0,74,92
278592,note_on,,0,0,1,,,,,,0,76,92
278592,note_off,,0,0,1,,,,,,0,74,64
278592,note_off,,192,0,1,,,,,,0,70,64
278592,note_off,,96,0,2,,,,,,0,55,64
278592,note_on,,0,0,2,,,,,,0,53,92
278592,note_on,,0,0,1,,,,,,0,70,92
278592,note_off,,0,0,1,,,,,,0,76,64
278688,note_off,,96,0,2,,,,,,0,53,64
278688,note_on,,0,0,2,,,,,,0,52,92
278784,note_off,,0,0,1,,,,,,0,74,64
278784,note_off,,96,0,2,,,,,,0,52,64
278784,note_on,,0,0,2,,,,,,0,45,92
278784,note_on,,2688,0,3,,,,,,0,45,102
278784,note_off,,0,0,1,,,,,,0,76,64
278784,note_off,,192,0,1,,,,,,0,70,64
278784,note_on,,0,0,1,,,,,,0,69,92
278784,note_on,,0,0,1,,,,,,0,76,92
278784,note_on,,0,0,1,,,,,,0,73,92
278880,note_off,,96,0,2,,,,,,0,45,64
278880,note_on,,0,0,2,,,,,,0,55,92
278976,note_off,,192,0,1,,,,,,0,69,64
278976,note_on,,0,0,1,,,,,,0,76,92
278976,note_off,,0,0,1,,,,,,0,76,64
278976,note_off,,0,0,1,,,,,,0,73,64
278976,note_on,,0,0,1,,,,,,0,73,92
278976,note_on,,0,0,1,,,,,,0,69,92
278976,note_on,,0,0,2,,,,,,0,53,92
278976,note_off,,96,0,2,,,,,,0,55,64
279072,note_off,,96,0,2,,,,,,0,53,64
279072,note_on,,0,0,2,,,,,,0,52,92
279168,note_off,,0,0,1,,,,,,0,76,64
279168,note_off,,0,0,1,,,,,,0,73,64
279168,note_off,,192,0,1,,,,,,0,69,64
279168,note_on,,0,0,1,,,,,,0,74,92
279168,note_on,,0,0,1,,,,,,0,69,92
279168,note_on,,0,0,2,,,,,,0,50,92
279168,note_on,,0,0,2,,,,,,0,53,92
279168,note_off,,384,0,3,,,,,,0,45,64
279168,note_off,,96,0,2,,,,,,0,52,64
279168,note_on,,0,0,3,,,,,,0,38,102
279264,note_off,,96,0,1,,,,,,0,74,64
279264,note_off,,0,0,1,,,,,,0,69,64
279264,note_on,,0,0,1,,,,,,0,77,92
279360,note_on,,0,0,1,,,,,,0,76,92
279360,note_off,,96,0,1,,,,,,0,77,64
279456,note_on,,0,0,1,,,,,,0,77,92
279456,note_off,,96,0,1,,,,,,0,76,64
279552,note_off,,96,0,1,,,,,,0,77,64
279552,note_on,,0,0,1,,,,,,0,74,92
279552,note_off,,384,0,2,,,,,,0,53,64
279552,note_off,,384,0,3,,,,,,0,38,64
279552,note_off,,0,0,2,,,,,,0,50,64
279648,note_off,,96,0,1,,,,,,0,74,64
279648,note_on,,0,0,1,,,,,,0,76,92
279744,note_off,,96,0,1,,,,,,0,76,64
279744,note_on,,0,0,1,,,,,,0,72,92
279840,note_off,,96,0,1,,,,,,0,72,64
279840,note_on,,0,0,1,,,,,,0,74,92
279936,note_off,,96,0,1,,,,,,0,74,64
279936,note_on,,0,0,1,,,,,,0,71,92
280032,note_off,,96,0,1,,,,,,0,71,64
280032,note_on,,0,0,1,,,,,,0,72,92
280128,note_off,,96,0,1,,,,,,0,72,64
280128,note_on,,0,0,1,,,,,,0,69,92
280224,note_off,,96,0,1,,,,,,0,69,64
280224,note_on,,0,0,1,,,,,,0,71,92
280320,note_off,,96,0,1,,,,,,0,71,64
280320,note_on,,0,0,1,,,,,,0,67,92
280416,note_on,,864,0,2,,,,,,0,64,92
280512,note_on,,0,0,2,,,,,,0,62,92
280512,note_off,,192,0,1,,,,,,0,67,64
280512,note_on,,0,0,1,,,,,,0,76,92
280512,note_on,,0,0,1,,,,,,0,72,92
280512,note_on,,0,0,1,,,,,,0,67,92
280512,note_off,,96,0,2,,,,,,0,64,64
280608,note_on,,0,0,2,,,,,,0,64,92
280608,note_off,,96,0,2,,,,,,0,62,64
280704,note_on,,0,0,1,,,,,,0,67,92
280704,note_off,,96,0,2,,,,,,0,64,64
280704,note_off,,0,0,1,,,,,,0,76,64
280704,note_on,,0,0,2,,,,,,0,60,92
280704,note_off,,192,0,1,,,,,,0,67,64
280704,note_on,,0,0,1,,,,,,0,72,92
280704,note_off,,0,0,1,,,,,,0,72,64
280704,note_on,,0,0,1,,,,,,0,76,92
280800,note_off,,96,0,2,,,,,,0,60,64
280800,note_on,,0,0,2,,,,,,0,62,92
280896,note_off,,0,0,1,,,,,,0,72,64
280896,note_off,,0,0,1,,,,,,0,76,64
280896,note_off,,96,0,2,,,,,,0,62,64
280896,note_on,,0,0,2,,,,,,0,59,92
280896,note_on,,0,0,1,,,,,,0,67,92
280896,note_on,,0,0,1,,,,,,0,72,92
280896,note_on,,0,0,1,,,,,,0,76,92
280896,note_off,,192,0,1,,,,,,0,67,64
280992,note_off,,96,0,2,,,,,,0,59,64
280992,note_on,,0,0,2,,,,,,0,60,92
281088,note_on,,0,0,1,,,,,,0,67,92
281088,note_off,,0,0,1,,,,,,0,76,64
281088,note_on,,0,0,1,,,,,,0,76,92
281088,note_on,,0,0,1,,,,,,0,72,92
281088,note_off,,0,0,1,,,,,,0,72,64
281088,note_off,,192,0,1,,,,,,0,67,64
281088,note_on,,0,0,2,,,,,,0,57,92
281088,note_off,,96,0,2,,,,,,0,60,64
281184,note_off,,96,0,2,,,,,,0,57,64
281184,note_on,,0,0,2,,,,,,0,59,92
281280,note_off,,0,0,1,,,,,,0,72,64
281280,note_off,,0,0,1,,,,,,0,76,64
281280,note_on,,0,0,1,,,,,,0,67,92
281280,note_off,,192,0,1,,,,,,0,67,64
281280,note_on,,0,0,1,,,,,,0,76,92
281280,note_on,,0,0,2,,,,,,0,55,92
281280,note_off,,96,0,2,,,,,,0,59,64
281280,note_on,,0,0,1,,,,,,0,72,92
281376,note_on,,0,0,2,,,,,,0,57,92
281376,note_off,,96,0,2,,,,,,0,55,64
281472,note_on,,0,0,2,,,,,,0,53,92
281472,note_off,,96,0,2,,,,,,0,57,64
281472,note_on,,0,0,1,,,,,,0,69,92
281472,note_on,,0,0,1,,,,,,0,72,92
281472,note_on,,0,0,1,,,,,,0,74,92
281472,note_off,,0,0,1,,,,,,0,76,64
281472,note_off,,0,0,1,,,,,,0,72,64
281472,note_off,,192,0,1,,,,,,0,67,64
281568,note_off,,96,0,2,,,,,,0,53,64
281568,note_on,,0,0,2,,,,,,0,55,92
281664,note_on,,0,0,1,,,,,,0,72,92
281664,note_off,,0,0,1,,,,,,0,72,64
281664,note_off,,0,0,1,,,,,,0,74,64
281664,note_on,,0,0,1,,,,,,0,74,92
281664,note_on,,0,0,1,,,,,,0,69,92
281664,note_on,,0,0,2,,,,,,0,52,92
281664,note_off,,96,0,2,,,,,,0,55,64
281664,note_off,,192,0,1,,,,,,0,69,64
281760,note_on,,0,0,2,,,,,,0,53,92
281760,note_off,,96,0,2,,,,,,0,52,64
281856,note_off,,192,0,1,,,,,,0,69,64
281856,note_off,,0,0,1,,,,,,0,72,64
281856,note_off,,0,0,1,,,,,,0,74,64
281856,note_on,,0,0,1,,,,,,0,74,92
281856,note_on,,0,0,1,,,,,,0,72,92
281856,note_on,,0,0,1,,,,,,0,69,92
281856,note_off,,96,0,2,,,,,,0,53,64
281856,note_on,,0,0,2,,,,,,0,50,92
281952,note_off,,96,0,2,,,,,,0,50,64
281952,note_on,,0,0,2,,,,,,0,53,92
282048,note_off,,192,0,1,,,,,,0,69,64
282048,note_off,,96,0,2,,,,,,0,53,64
282048,note_on,,0,0,2,,,,,,0,52,92
282048,note_off,,0,0,1,,,,,,0,72,64
282048,note_on,,0,0,1,,,,,,0,69,92
282048,note_on,,0,0,1,,,,,,0,72,92
282048,note_on,,0,0,1,,,,,,0,74,92
282048,note_off,,0,0,1,,,,,,0,74,64
282144,note_on,,0,0,2,,,,,,0,50,92
282144,note_off,,96,0,2,,,,,,0,52,64
282240,note_on,,0,0,1,,,,,,0,71,92
282240,note_off,,96,0,2,,,,,,0,50,64
282240,note_on,,0,0,2,,,,,,0,43,92
282240,note_off,,192,0,1,,,,,,0,69,64
282240,note_off,,0,0,1,,,,,,0,72,64
282240,note_off,,0,0,1,,,,,,0,74,64
282240,note_on,,0,0,1,,,,,,0,74,92
282240,note_on,,0,0,1,,,,,,0,67,92
282240,note_on,,2688,0,3,,,,,,0,43,102
282336,note_on,,0,0,2,,,,,,0,53,92
282336,note_off,,96,0,2,,,,,,0,43,64
282432,note_off,,0,0,1,,,,,,0,74,64
282432,note_on,,0,0,2,,,,,,0,52,92
282432,note_off,,96,0,2,,,,,,0,53,64
282432,note_on,,0,0,1,,,,,,0,74,92
282432,note_off,,192,0,1,,,,,,0,67,64
282432,note_off,,0,0,1,,,,,,0,71,64
282432,note_on,,0,0,1,,,,,,0,71,92
282432,note_on,,0,0,1,,,,,,0,67,92
282528,note_off,,96,0,2,,,,,,0,52,64
282528,note_on,,0,0,2,,,,,,0,50,92
282624,note_off,,0,0,1,,,,,,0,74,64
282624,note_on,,0,0,2,,,,,,0,48,92
282624,note_off,,0,0,1,,,,,,0,71,64
282624,note_off,,96,0,2,,,,,,0,50,64
282624,note_on,,0,0,2,,,,,,0,52,92
282624,note_on,,0,0,3,,,,,,0,36,102
282624,note_on,,0,0,1,,,,,,0,72,92
282624,note_on,,0,0,1,,,,,,0,67,92
282624,note_off,,192,0,1,,,,,,0,67,64
282624,note_off,,384,0,3,,,,,,0,43,64
282720,note_on,,0,0,1,,,,,,0,71,92
282720,note_off,,0,0,1,,,,,,0,67,64
282720,note_off,,96,0,1,,,,,,0,72,64
282816,note_off,,96,0,1,,,,,,0,71,64
282816,note_on,,0,0,1,,,,,,0,72,92
282912,note_off,,96,0,1,,,,,,0,72,64
282912,note_on,,0,0,1,,,,,,0,74,92
283008,note_off,,384,0,3,,,,,,0,36,64
283008,note_off,,0,0,2,,,,,,0,48,64
283008,note_on,,0,0,1,,,,,,0,76,92
283008,note_on,,0,0,1,,,,,,0,72,92
283008,note_off,,384,0,2,,,,,,0,52,64
283008,note_off,,96,0,1,,,,,,0,74,64
283104,note_on,,0,0,2,,,,,,0,72,92
283104,note_on,,96,0,2,,,,,,0,67,92
283104,note_off,,96,0,1,,,,,,0,76,64
283104,note_off,,0,0,1,,,,,,0,72,64
283200,note_on,,0,0,2,,,,,,0,67,92
283200,note_on,,0,0,2,,,,,,0,72,92
283200,note_off,,96,0,2,,,,,,0,72,64
283200,note_off,,0,0,2,,,,,,0,67,64
283296,note_off,,96,0,2,,,,,,0,72,64
283296,note_off,,0,0,2,,,,,,0,67,64
283296,note_on,,192,0,1,,,,,,0,72,92
283296,note_on,,0,0,1,,,,,,0,76,92
283392,note_off,,0,0,1,,,,,,0,72,64
283392,note_on,,0,0,1,,,,,,0,72,92
283392,note_off,,96,0,1,,,,,,0,76,64
283392,note_on,,0,0,1,,,,,,0,76,92
283488,note_on,,0,0,2,,,,,,0,72,92
283488,note_off,,0,0,1,,,,,,0,72,64
283488,note_on,,192,0,2,,,,,,0,67,92
283488,note_off,,96,0,1,,,,,,0,76,64
283584,note_on,,0,0,2,,,,,,0,72,92
283584,note_on,,0,0,2,,,,,,0,67,92
283584,note_off,,0,0,2,,,,,,0,67,64
283584,note_off,,96,0,2,,,,,,0,72,64
283680,note_off,,96,0,2,,,,,,0,72,64
283680,note_off,,0,0,2,,,,,,0,67,64
283680,note_on,,192,0,1,,,,,,0,72,92
283680,note_on,,0,0,1,,,,,,0,76,92
283776,note_off,,96,0,1,,,,,,0,76,64
283776,note_off,,0,0,1,,,,,,0,72,64
283776,note_on,,768,0,3,,,,,,0,43,102
283776,note_on,,0,0,1,,,,,,0,77,92
283776,note_on,,0,0,1,,,,,,0,74,92
283872,note_on,,0,0,2,,,,,,0,74,92
283872,note_off,,96,0,1,,,,,,0,77,64
283872,note_off,,0,0,1,,,,,,0,74,64
283872,note_on,,192,0,2,,,,,,0,71,92
283968,note_off,,96,0,2,,,,,,0,74,64
283968,note_off,,0,0,2,,,,,,0,71,64
283968,note_on,,0,0,2,,,,,,0,71,92
283968,note_on,,0,0,2,,,,,,0,74,92
284064,note_on,,192,0,1,,,,,,0,74,92
284064,note_off,,0,0,2,,,,,,0,71,64
284064,note_off,,96,0,2,,,,,,0,74,64
284064,note_on,,0,0,1,,,,,,0,77,92
284160,note_off,,384,0,3,,,,,,0,43,64
284160,note_off,,96,0,1,,,,,,0,77,64
284160,note_off,,0,0,1,,,,,,0,74,64
284160,note_on,,0,0,1,,,,,,0,74,92
284160,note_on,,0,0,1,,,,,,0,77,92
284256,note_off,,96,0,1,,,,,,0,77,64
284256,note_on,,0,0,2,,,,,,0,74,92
284256,note_on,,192,0,2,,,,,,0,71,92
284256,note_off,,0,0,1,,,,,,0,74,64
284352,note_off,,0,0,2,,,,,,0,71,64
284352,note_on,,0,0,2,,,,,,0,71,92
284352,note_on,,0,0,2,,,,,,0,74,92
284352,note_off,,96,0,2,,,,,,0,74,64
284448,note_off,,96,0,2,,,,,,0,74,64
284448,note_off,,0,0,2,,,,,,0,71,64
284448,note_on,,192,0,1,,,,,,0,74,92
284448,note_on,,0,0,1,,,,,,0,77,92
284544,note_on,,0,0,1,,,,,,0,74,92
284544,note_off,,0,0,1,,,,,,0,74,64
284544,note_off,,96,0,1,,,,,,0,77,64
284544,note_on,,0,0,1,,,,,,0,77,92
284640,note_on,,192,0,2,,,,,,0,71,92
284640,note_off,,0,0,1,,,,,,0,74,64
284640,note_off,,96,0,1,,,,,,0,77,64
284640,note_on,,0,0,2,,,,,,0,74,92
284736,note_off,,0,0,2,,,,,,0,71,64
284736,note_on,,0,0,2,,,,,,0,71,92
284736,note_on,,0,0,2,,,,,,0,74,92
284736,note_off,,96,0,2,,,,,,0,74,64
284832,note_on,,0,0,1,,,,,,0,77,92
284832,note_on,,192,0,1,,,,,,0,74,92
284832,note_off,,0,0,2,,,,,,0,71,64
284832,note_off,,96,0,2,,,,,,0,74,64
284928,note_on,,768,0,3,,,,,,0,55,102
284928,note_off,,96,0,1,,,,,,0,77,64
284928,note_off,,0,0,1,,,,,,0,74,64
284928,note_on,,0,0,1,,,,,,0,71,92
284928,note_on,,0,0,1,,,,,,0,74,92
285024,note_off,,96,0,1,,,,,,0,74,64
285024,note_on,,192,0,2,,,,,,0,67,92
285024,note_off,,0,0,1,,,,,,0,71,64
285024,note_on,,0,0,2,,,,,,0,71,92
285120,note_on,,0,0,2,,,,,,0,71,92
285120,note_on,,0,0,2,,,,,,0,67,92
285120,note_off,,0,0,2,,,,,,0,67,64
285120,note_off,,96,0,2,,,,,,0,71,64
285216,note_on,,0,0,1,,,,,,0,74,92
285216,note_off,,96,0,2,,,,,,0,71,64
285216,note_on,,192,0,1,,,,,,0,71,92
285216,note_off,,0,0,2,,,,,,0,67,64
285312,note_off,,96,0,1,,,,,,0,74,64
285312,note_off,,0,0,1,,,,,,0,71,64
285312,note_off,,384,0,3,,,,,,0,55,64
285312,note_on,,0,0,1,,,,,,0,74,92
285312,note_on,,0,0,1,,,,,,0,71,92
285408,note_on,,192,0,2,,,,,,0,67,92
285408,note_off,,0,0,1,,,,,,0,71,64
285408,note_on,,0,0,2,,,,,,0,71,92
285408,note_off,,96,0,1,,,,,,0,74,64
285504,note_off,,96,0,2,,,,,,0,71,64
285504,note_on,,0,0,2,,,,,,0,71,92
285504,note_on,,0,0,2,,,,,,0,67,92
285504,note_off,,0,0,2,,,,,,0,67,64
285600,note_on,,0,0,1,,,,,,0,74,92
285600,note_on,,192,0,1,,,,,,0,71,92
285600,note_off,,96,0,2,,,,,,0,71,64
285600,note_off,,0,0,2,,,,,,0,67,64
285696,note_off,,96,0,1,,,,,,0,74,64
285696,note_off,,0,0,1,,,,,,0,71,64
285696,note_on,,0,0,1,,,,,,0,71,92
285696,note_on,,0,0,1,,,,,,0,74,92
285792,note_on,,192,0,2,,,,,,0,67,92
285792,note_off,,96,0,1,,,,,,0,74,64
285792,note_off,,0,0,1,,,,,,0,71,64
285792,note_on,,0,0,2,,,,,,0,71,92
285888,note_off,,0,0,2,,,,,,0,67,64
285888,note_on,,0,0,2,,,,,,0,67,92
285888,note_on,,0,0,2,,,,,,0,71,92
285888,note_off,,96,0,2,,,,,,0,71,64
285984,note_on,,192,0,1,,,,,,0,71,92
285984,note_off,,96,0,2,,,,,,0,71,64
285984,note_on,,0,0,1,,,,,,0,74,92
285984,note_off,,0,0,2,,,,,,0,67,64
286080,note_on,,0,0,1,,,,,,0,76,92
286080,note_on,,0,0,1,,,,,,0,72,92
286080,note_on,,768,0,3,,,,,,0,48,102
286080,note_off,,0,0,1,,,,,,0,71,64
286080,note_off,,96,0,1,,,,,,0,74,64
286176,note_off,,0,0,1,,,,,,0,72,64
286176,note_on,,0,0,2,,,,,,0,72,92
286176,note_on,,192,0,2,,,,,,0,67,92
286176,note_off,,96,0,1,,,,,,0,76,64
286272,note_off,,96,0,2,,,,,,0,72,64
286272,note_on,,0,0,2,,,,,,0,67,92
286272,note_on,,0,0,2,,,,,,0,72,92
286272,note_off,,0,0,2,,,,,,0,67,64
286368,note_off,,96,0,2,,,,,,0,72,64
286368,note_off,,0,0,2,,,,,,0,67,64
286368,note_on,,192,0,1,,,,,,0,72,92
286368,note_on,,0,0,1,,,,,,0,76,92
286464,note_off,,0,0,1,,,,,,0,72,64
286464,note_on,,0,0,1,,,,,,0,72,92
286464,note_on,,0,0,1,,,,,,0,76,92
286464,note_off,,384,0,3,,,,,,0,48,64
286464,note_off,,96,0,1,,,,,,0,76,64
286560,note_off,,0,0,1,,,,,,0,72,64
286560,note_on,,0,0,2,,,,,,0,72,92
286560,note_on,,192,0,2,,,,,,0,67,92
286560,note_off,,96,0,1,,,,,,0,76,64
286656,note_off,,0,0,2,,,,,,0,67,64
286656,note_on,,0,0,2,,,,,,0,67,92
286656,note_on,,0,0,2,,,,,,0,72,92
286656,note_off,,96,0,2,,,,,,0,72,64
286752,note_off,,96,0,2,,,,,,0,72,64
286752,note_on,,0,0,1,,,,,,0,76,92
286752,note_on,,192,0,1,,,,,,0,72,92
286752,note_off,,0,0,2,,,,,,0,67,64
286848,note_on,,0,0,1,,,,,,0,72,92
286848,note_off,,96,0,1,,,,,,0,76,64
286848,note_off,,0,0,1,,,,,,0,72,64
286848,note_on,,0,0,1,,,,,,0,76,92
286944,note_on,,0,0,2,,,,,,0,72,92
286944,note_off,,96,0,1,,,,,,0,72,64
286944,note_off,,0,0,1,,,,,,0,76,64
286944,note_on,,192,0,2,,,,,,0,67,92
287040,note_off,,96,0,2,,,,,,0,72,64
287040,note_off,,0,0,2,,,,,,0,67,64
287040,note_on,,0,0,2,,,,,,0,67,92
287040,note_on,,0,0,2,,,,,,0,72,92
287136,note_on,,192,0,1,,,,,,0,72,92
287136,note_on,,0,0,1,,,,,,0,76,92
287136,note_off,,96,0,2,,,,,,0,72,64
287136,note_off,,0,0,2,,,,,,0,67,64
287232,note_off,,96,0,1,,,,,,0,76,64
287232,note_off,,0,0,1,,,,,,0,72,64
287232,note_on,,0,0,1,,,,,,0,69,92
287232,note_on,,0,0,1,,,,,,0,72,92
287232,note_on,,768,0,3,,,,,,0,53,102
287328,note_on,,0,0,2,,,,,,0,69,92
287328,note_on,,192,0,2,,,,,,0,65,92
287328,note_off,,0,0,1,,,,,,0,69,64
287328,note_off,,96,0,1,,,,,,0,72,64
287424,note_off,,0,0,2,,,,,,0,65,64
287424,note_on,,0,0,2,,,,,,0,65,92
287424,note_on,,0,0,2,,,,,,0,69,92
287424,note_off,,96,0,2,,,,,,0,69,64
287520,note_off,,96,0,2,,,,,,0,69,64
287520,note_off,,0,0,2,,,,,,0,65,64
287520,note_on,,192,0,1,,,,,,0,69,92
287520,note_on,,0,0,1,,,,,,0,72,92
287616,note_off,,384,0,3,,,,,,0,53,64
287616,note_off,,96,0,1,,,,,,0,72,64
287616,note_off,,0,0,1,,,,,,0,69,64
287616,note_on,,0,0,1,,,,,,0,69,92
287616,note_on,,0,0,1,,,,,,0,72,92
287712,note_on,,0,0,2,,,,,,0,69,92
287712,note_on,,192,0,2,,,,,,0,65,92
287712,note_off,,0,0,1,,,,,,0,69,64
287712,note_off,,96,0,1,,,,,,0,72,64
287808,note_off,,0,0,2,,,,,,0,65,64
287808,note_on,,0,0,2,,,,,,0,69,92
287808,note_on,,0,0,2,,,,,,0,65,92
287808,note_off,,96,0,2,,,,,,0,69,64
287904,note_on,,0,0,1,,,,,,0,72,92
287904,note_on,,192,0,1,,,,,,0,69,92
287904,note_off,,0,0,2,,,,,,0,65,64
287904,note_off,,96,0,2,,,,,,0,69,64
288000,note_off,,0,0,1,,,,,,0,69,64
288000,note_on,,0,0,1,,,,,,0,72,92
288000,note_off,,96,0,1,,,,,,0,72,64
288000,note_on,,0,0,1,,,,,,0,69,92
288096,note_off,,96,0,1,,,,,,0,72,64
288096,note_off,,0,0,1,,,,,,0,69,64
288096,note_on,,0,0,2,,,,,,0,69,92
288096,note_on,,192,0,2,,,,,,0,65,92
288192,note_off,,96,0,2,,,,,,0,69,64
288192,note_off,,0,0,2,,,,,,0,65,64
288192,note_on,,0,0,2,,,,,,0,65,92
288192,note_on,,0,0,2,,,,,,0,69,92
288288,note_on,,192,0,1,,,,,,0,69,92
288288,note_on,,0,0,1,,,,,,0,72,92
288288,note_off,,96,0,2,,,,,,0,69,64
288288,note_off,,0,0,2,,,,,,0,65,64
288384,note_on,,768,0,3,,,,,,0,47,102
288384,note_off,,96,0,1,,,,,,0,72,64
288384,note_off,,0,0,1,,,,,,0,69,64
288384,note_on,,0,0,1,,,,,,0,71,92
288384,note_on,,0,0,1,,,,,,0,74,92
288480,note_off,,96,0,1,,,,,,0,74,64
288480,note_off,,0,0,1,,,,,,0,71,64
288480,note_on,,192,0,2,,,,,,0,65,92
288480,note_on,,0,0,2,,,,,,0,71,92
288576,note_off,,96,0,2,,,,,,0,71,64
288576,note_off,,0,0,2,,,,,,0,65,64
288576,note_on,,0,0,2,,,,,,0,65,92
288576,note_on,,0,0,2,,,,,,0,71,92
288672,note_on,,0,0,1,,,,,,0,74,92
288672,note_off,,96,0,2,,,,,,0,71,64
288672,note_off,,0,0,2,,,,,,0,65,64
288672,note_on,,192,0,1,,,,,,0,71,92
288768,note_off,,384,0,3,,,,,,0,47,64
288768,note_off,,96,0,1,,,,,,0,74,64
288768,note_off,,0,0,1,,,,,,0,71,64
288768,note_on,,0,0,1,,,,,,0,74,92
288768,note_on,,0,0,1,,,,,,0,71,92
288864,note_off,,96,0,1,,,,,,0,71,64
288864,note_off,,0,0,1,,,,,,0,74,64
288864,note_on,,192,0,2,,,,,,0,65,92
288864,note_on,,0,0,2,,,,,,0,71,92
288960,note_on,,0,0,2,,,,,,0,71,92
288960,note_on,,0,0,2,,,,,,0,65,92
288960,note_off,,96,0,2,,,,,,0,71,64
288960,note_off,,0,0,2,,,,,,0,65,64
289056,note_off,,0,0,2,,,,,,0,65,64
289056,note_off,,96,0,2,,,,,,0,71,64
289056,note_on,,192,0,1,,,,,,0,71,92
289056,note_on,,0,0,1,,,,,,0,74,92
289152,note_on,,0,0,1,,,,,,0,74,92
289152,note_on,,0,0,1,,,,,,0,71,92
289152,note_off,,0,0,1,,,,,,0,71,64
289152,note_off,,96,0,1,,,,,,0,74,64
289248,note_off,,0,0,1,,,,,,0,71,64
289248,note_off,,96,0,1,,,,,,0,74,64
289248,note_on,,0,0,2,,,,,,0,71,92
289248,note_on,,192,0,2,,,,,,0,65,92
289344,note_off,,96,0,2,,,,,,0,71,64
289344,note_off,,0,0,2,,,,,,0,65,64
289344,note_on,,0,0,2,,,,,,0,65,92
289344,note_on,,0,0,2,,,,,,0,71,92
289440,note_on,,192,0,1,,,,,,0,71,92
289440,note_off,,96,0,2,,,,,,0,71,64
289440,note_off,,0,0,2,,,,,,0,65,64
289440,note_on,,0,0,1,,,,,,0,74,92
289536,note_on,,768,0,3,,,,,,0,52,102
289536,note_off,,96,0,1,,,,,,0,74,64
289536,note_off,,0,0,1,,,,,,0,71,64
289536,note_on,,0,0,1,,,,,,0,68,92
289536,note_on,,0,0,1,,,,,,0,71,92
289632,note_off,,0,0,1,,,,,,0,68,64
289632,note_off,,96,0,1,,,,,,0,71,64
289632,note_on,,0,0,2,,,,,,0,68,92
289632,note_on,,192,0,2,,,,,,0,64,92
289728,note_on,,0,0,2,,,,,,0,64,92
289728,note_off,,0,0,2,,,,,,0,64,64
289728,note_off,,96,0,2,,,,,,0,68,64
289728,note_on,,0,0,2,,,,,,0,68,92
289824,note_off,,96,0,2,,,,,,0,68,64
289824,note_on,,0,0,1,,,,,,0,71,92
289824,note_off,,0,0,2,,,,,,0,64,64
289824,note_on,,192,0,1,,,,,,0,68,92
289920,note_off,,384,0,3,,,,,,0,52,64
289920,note_on,,0,0,1,,,,,,0,68,92
289920,note_on,,0,0,1,,,,,,0,71,92
289920,note_off,,0,0,1,,,,,,0,68,64
289920,note_off,,96,0,1,,,,,,0,71,64
290016,note_on,,192,0,2,,,,,,0,64,92
290016,note_off,,0,0,1,,,,,,0,71,64
290016,note_off,,96,0,1,,,,,,0,68,64
290016,note_on,,0,0,2,,,,,,0,68,92
290112,note_off,,96,0,2,,,,,,0,68,64
290112,note_off,,0,0,2,,,,,,0,64,64
290112,note_on,,0,0,2,,,,,,0,64,92
290112,note_on,,0,0,2,,,,,,0,68,92
290208,note_off,,96,0,2,,,,,,0,68,64
290208,note_off,,0,0,2,,,,,,0,64,64
290208,note_on,,0,0,1,,,,,,0,71,92
290208,note_on,,192,0,1,,,,,,0,68,92
290304,note_on,,0,0,1,,,,,,0,71,92
290304,note_off,,0,0,1,,,,,,0,68,64
290304,note_off,,96,0,1,,,,,,0,71,64
290304,note_on,,0,0,1,,,,,,0,68,92
290400,note_on,,192,0,2,,,,,,0,64,92
290400,note_off,,96,0,1,,,,,,0,71,64
290400,note_off,,0,0,1,,,,,,0,68,64
290400,note_on,,0,0,2,,,,,,0,68,92
290496,note_off,,0,0,2,,,,,,0,64,64
290496,note_off,,96,0,2,,,,,,0,68,64
290496,note_on,,0,0,2,,,,,,0,68,92
290496,note_on,,0,0,2,,,,,,0,64,92
290592,note_off,,0,0,2,,,,,,0,64,64
290592,note_off,,96,0,2,,,,,,0,68,64
290592,note_on,,0,0,1,,,,,,0,71,92
290592,note_on,,192,0,1,,,,,,0,68,92
290688,note_on,,768,0,3,,,,,,0,45,102
290688,note_off,,0,0,1,,,,,,0,68,64
290688,note_off,,96,0,1,,,,,,0,71,64
290688,note_on,,0,0,1,,,,,,0,69,92
290688,note_on,,0,0,1,,,,,,0,72,92
290880,note_on,,0,0,1,,,,,,0,72,92
290880,note_on,,288,0,2,,,,,,0,60,92
290880,note_off,,0,0,1,,,,,,0,69,64
290880,note_off,,192,0,1,,,,,,0,72,64
291072,note_off,,384,0,3,,,,,,0,45,64
291072,note_off,,192,0,2,,,,,,0,60,64
291072,note_on,,0,0,2,,,,,,0,59,92
291072,note_off,,192,0,1,,,,,,0,72,64
291072,note_on,,0,0,1,,,,,,0,71,92
291264,note_on,,0,0,2,,,,,,0,57,92
291264,note_off,,192,0,2,,,,,,0,59,64
291264,note_off,,192,0,1,,,,,,0,71,64
291264,note_on,,0,0,1,,,,,,0,69,92
291456,note_off,,192,0,1,,,,,,0,69,64
291456,note_on,,0,0,1,,,,,,0,67,92
291456,note_on,,0,0,2,,,,,,0,55,92
291456,note_off,,192,0,2,,,,,,0,57,64
291648,note_on,,0,0,1,,,,,,0,65,92
291648,note_off,,192,0,1,,,,,,0,67,64
291648,note_on,,0,0,2,,,,,,0,53,92
291648,note_off,,192,0,2,,,,,,0,55,64
291840,note_on,,0,0,2,,,,,,0,52,92
291840,note_off,,192,0,2,,,,,,0,53,64
291840,note_on,,0,0,1,,,,,,0,64,92
291840,note_off,,192,0,1,,,,,,0,65,64
292032,note_on,,0,0,2,,,,,,0,57,92
292032,note_off,,192,0,2,,,,,,0,52,64
292032,note_on,,0,0,1,,,,,,0,69,92
292032,note_off,,192,0,1,,,,,,0,64,64
292032,note_on,,960,0,3,,,,,,0,57,102
292224,note_on,,0,0,1,,,,,,0,67,92
292224,note_off,,192,0,1,,,,,,0,69,64
292224,note_on,,0,0,3,,,,,,0,55,102
292224,note_off,,192,0,2,,,,,,0,57,64
292224,note_on,,0,0,2,,,,,,0,55,92
292224,note_off,,192,0,3,,,,,,0,57,64
292320,note_off,,96,0,2,,,,,,0,55,64
292320,note_on,,0,0,2,,,,,,0,57,92
292416,note_on,,0,0,3,,,,,,0,53,102
292416,note_on,,0,0,1,,,,,,0,65,92
292416,note_off,,192,0,1,,,,,,0,67,64
292416,note_on,,0,0,2,,,,,,0,53,92
292416,note_off,,96,0,2,,,,,,0,57,64
292416,note_off,,192,0,3,,,,,,0,55,64
292512,note_on,,0,0,2,,,,,,0,55,92
292512,note_off,,96,0,2,,,,,,0,53,64
292608,note_off,,192,0,3,,,,,,0,53,64
292608,note_on,,0,0,2,,,,,,0,52,92
292608,note_on,,0,0,1,,,,,,0,64,92
292608,note_off,,192,0,1,,,,,,0,65,64
292608,note_on,,0,0,3,,,,,,0,52,102
292608,note_off,,96,0,2,,,,,,0,55,64
292704,note_off,,96,0,2,,,,,,0,52,64
292704,note_on,,0,0,2,,,,,,0,53,92
292800,note_on,,0,0,1,,,,,,0,62,92
292800,note_off,,192,0,1,,,,,,0,64,64
292800,note_on,,0,0,2,,,,,,0,50,92
292800,note_off,,192,0,3,,,,,,0,52,64
292800,note_on,,0,0,3,,,,,,0,50,102
292800,note_off,,96,0,2,,,,,,0,53,64
292896,note_off,,96,0,2,,,,,,0,50,64
292896,note_on,,0,0,2,,,,,,0,52,92
292992,note_on,,0,0,1,,,,,,0,60,92
292992,note_off,,192,0,1,,,,,,0,62,64
292992,note_off,,96,0,2,,,,,,0,52,64
292992,note_on,,0,0,2,,,,,,0,48,92
292992,note_on,,0,0,3,,,,,,0,48,102
292992,note_off,,192,0,3,,,,,,0,50,64
293184,note_on,,0,0,1,,,,,,0,69,92
293184,note_off,,192,0,2,,,,,,0,48,64
293184,note_on,,0,0,2,,,,,,0,57,92
293184,note_off,,192,0,1,,,,,,0,60,64
293184,note_off,,192,0,3,,,,,,0,48,64
293376,note_on,,0,0,1,,,,,,0,67,92
293376,note_off,,192,0,2,,,,,,0,57,64
293376,note_on,,0,0,2,,,,,,0,55,92
293376,note_off,,192,0,1,,,,,,0,69,64
293568,note_off,,192,0,1,,,,,,0,67,64
293568,note_on,,0,0,2,,,,,,0,53,92
293568,note_off,,192,0,2,,,,,,0,55,64
293568,note_on,,0,0,1,,,,,,0,65,92
293760,note_on,,0,0,1,,,,,,0,64,92
293760,note_on,,0,0,2,,,,,,0,52,92
293760,note_off,,192,0,1,,,,,,0,65,64
293760,note_off,,192,0,2,,,,,,0,53,64
293952,note_off,,192,0,2,,,,,,0,52,64
293952,note_on,,0,0,2,,,,,,0,50,92
293952,note_off,,192,0,1,,,,,,0,64,64
293952,note_on,,0,0,1,,,,,,0,62,92
294144,note_on,,0,0,2,,,,,,0,48,92
294144,note_off,,192,0,2,,,,,,0,50,64
294144,note_on,,0,0,1,,,,,,0,60,92
294144,note_off,,192,0,1,,,,,,0,62,64
294336,note_off,,192,0,1,,,,,,0,60,64
294336,note_on,,0,0,1,,,,,,0,65,92
294336,note_off,,192,0,2,,,,,,0,48,64
294336,note_on,,0,0,2,,,,,,0,53,92
294336,note_on,,1152,0,3,,,,,,0,53,102
294528,note_on,,0,0,3,,,,,,0,52,102
294528,note_off,,192,0,3,,,,,,0,53,64
294528,note_on,,0,0,1,,,,,,0,64,92
294528,note_off,,192,0,1,,,,,,0,65,64
294528,note_off,,192,0,2,,,,,,0,53,64
294528,note_on,,0,0,2,,,,,,0,52,92
294624,note_off,,96,0,2,,,,,,0,52,64
294624,note_on,,0,0,2,,,,,,0,53,92
294720,note_on,,0,0,2,,,,,,0,50,92
294720,note_off,,96,0,2,,,,,,0,53,64
294720,note_on,,0,0,1,,,,,,0,62,92
294720,note_off,,192,0,1,,,,,,0,64,64
294720,note_on,,0,0,3,,,,,,0,50,102
294720,note_off,,192,0,3,,,,,,0,52,64
294816,note_off,,96,0,2,,,,,,0,50,64
294816,note_on,,0,0,2,,,,,,0,52,92
294912,note_off,,192,0,3,,,,,,0,50,64
294912,note_on,,0,0,3,,,,,,0,48,102
294912,note_on,,0,0,1,,,,,,0,60,92
294912,note_off,,192,0,1,,,,,,0,62,64
294912,note_off,,96,0,2,,,,,,0,52,64
294912,note_on,,0,0,2,,,,,,0,48,92
295008,note_on,,0,0,2,,,,,,0,50,92
295008,note_off,,96,0,2,,,,,,0,48,64
295104,note_off,,192,0,1,,,,,,0,60,64
295104,note_on,,0,0,1,,,,,,0,59,92
295104,note_on,,0,0,3,,,,,,0,47,102
295104,note_on,,0,0,2,,,,,,0,47,92
295104,note_off,,96,0,2,,,,,,0,50,64
295104,note_off,,192,0,3,,,,,,0,48,64
295200,note_off,,96,0,2,,,,,,0,47,64
295200,note_on,,0,0,2,,,,,,0,48,92
295296,note_off,,192,0,1,,,,,,0,59,64
295296,note_on,,0,0,1,,,,,,0,57,92
295296,note_off,,192,0,3,,,,,,0,47,64
295296,note_on,,0,0,3,,,,,,0,45,102
295296,note_off,,96,0,2,,,,,,0,48,64
295296,note_on,,0,0,2,,,,,,0,45,92
295392,note_off,,96,0,1,,,,,,0,57,64
295392,note_on,,0,0,2,,,,,,0,84,92
295392,note_off,,96,0,2,,,,,,0,45,64
295488,note_on,,0,0,2,,,,,,0,81,92
295488,note_off,,96,0,2,,,,,,0,84,64
295488,note_on,,192,0,3,,,,,,0,64,102
295584,note_off,,96,0,2,,,,,,0,81,64
295584,note_on,,0,0,2,,,,,,0,84,92
295680,note_on,,0,0,3,,,,,,0,64,102
295680,note_off,,0,0,3,,,,,,0,45,64
295680,note_off,,192,0,3,,,,,,0,64,64
295680,note_on,,0,0,2,,,,,,0,81,92
295680,note_off,,96,0,2,,,,,,0,84,64
295776,note_on,,0,0,2,,,,,,0,84,92
295776,note_off,,96,0,2,,,,,,0,81,64
295872,note_off,,96,0,2,,,,,,0,84,64
295872,note_on,,0,0,3,,,,,,0,64,102
295872,note_off,,192,0,3,,,,,,0,64,64
295872,note_on,,0,0,2,,,,,,0,81,92
295968,note_off,,96,0,2,,,,,,0,81,64
295968,note_on,,0,0,2,,,,,,0,84,92
296064,note_on,,0,0,3,,,,,,0,64,102
296064,note_on,,0,0,2,,,,,,0,81,92
296064,note_off,,192,0,3,,,,,,0,64,64
296064,note_off,,96,0,2,,,,,,0,84,64
296160,note_on,,0,0,2,,,,,,0,84,92
296160,note_off,,96,0,2,,,,,,0,81,64
296256,note_on,,0,0,3,,,,,,0,64,102
296256,note_off,,192,0,3,,,,,,0,64,64
296256,note_off,,96,0,2,,,,,,0,84,64
296256,note_on,,0,0,2,,,,,,0,81,92
296352,note_off,,96,0,2,,,,,,0,81,64
296352,note_on,,0,0,2,,,,,,0,84,92
296448,note_on,,0,0,3,,,,,,0,52,102
296448,note_on,,1056,0,1,,,,,,0,76,92
296448,note_on,,0,0,2,,,,,,0,81,92
296448,note_off,,192,0,3,,,,,,0,64,64
296448,note_on,,0,0,3,,,,,,0,64,102
296448,note_off,,96,0,2,,,,,,0,84,64
296544,note_off,,96,0,2,,,,,,0,81,64
296544,note_on,,0,0,2,,,,,,0,84,92
296640,note_off,,96,0,2,,,,,,0,84,64
296640,note_off,,192,0,3,,,,,,0,64,64
296640,note_on,,0,0,2,,,,,,0,81,92
296640,note_on,,0,0,3,,,,,,0,64,102
296736,note_off,,96,0,2,,,,,,0,81,64
296736,note_on,,0,0,2,,,,,,0,84,92
296832,note_on,,0,0,2,,,,,,0,81,92
296832,note_off,,384,0,1,,,,,,0,76,64
296832,note_on,,0,0,3,,,,,,0,64,102
296832,note_off,,0,0,3,,,,,,0,52,64
296832,note_off,,192,0,3,,,,,,0,64,64
296832,note_off,,96,0,2,,,,,,0,84,64
296832,note_on,,0,0,1,,,,,,0,81,92
296928,note_off,,96,0,2,,,,,,0,81,64
296928,note_on,,0,0,2,,,,,,0,84,92
297024,note_on,,0,0,2,,,,,,0,81,92
297024,note_on,,0,0,3,,,,,,0,64,102
297024,note_off,,96,0,2,,,,,,0,84,64
297024,note_off,,192,0,3,,,,,,0,64,64
297120,note_on,,0,0,2,,,,,,0,84,92
297120,note_off,,96,0,2,,,,,,0,81,64
297216,note_on,,0,0,2,,,,,,0,81,92
297216,note_on,,0,0,3,,,,,,0,64,102
297216,note_off,,96,0,2,,,,,,0,84,64
297216,note_off,,192,0,3,,,,,,0,64,64
297312,note_on,,0,0,2,,,,,,0,84,92
297312,note_off,,96,0,2,,,,,,0,81,64
297408,note_off,,96,0,2,,,,,,0,84,64
297408,note_on,,0,0,2,,,,,,0,81,92
297408,note_on,,0,0,1,,,,,,0,84,92
297408,note_off,,576,0,1,,,,,,0,81,64
297408,note_on,,0,0,3,,,,,,0,64,102
297408,note_off,,192,0,3,,,,,,0,64,64
297504,note_on,,0,0,2,,,,,,0,84,92
297504,note_off,,96,0,2,,,,,,0,81,64
297600,note_off,,192,0,1,,,,,,0,84,64
297600,note_off,,192,0,3,,,,,,0,64,64
297600,note_on,,0,0,3,,,,,,0,64,102
297600,note_on,,0,0,3,,,,,,0,52,102
297600,note_on,,0,0,2,,,,,,0,80,92
297600,note_off,,96,0,2,,,,,,0,84,64
297600,note_on,,0,0,1,,,,,,0,74,92
297696,note_off,,96,0,2,,,,,,0,80,64
297696,note_on,,0,0,2,,,,,,0,83,92
297792,note_off,,96,0,2,,,,,,0,83,64
297792,note_on,,0,0,3,,,,,,0,64,102
297792,note_off,,192,0,3,,,,,,0,64,64
297792,note_on,,0,0,2,,,,,,0,80,92
297888,note_off,,96,0,2,,,,,,0,80,64
297888,note_on,,0,0,2,,,,,,0,83,92
297984,note_off,,96,0,2,,,,,,0,83,64
297984,note_on,,0,0,2,,,,,,0,80,92
297984,note_off,,0,0,3,,,,,,0,52,64
297984,note_off,,192,0,3,,,,,,0,64,64
297984,note_on,,0,0,3,,,,,,0,64,102
298080,note_on,,0,0,2,,,,,,0,83,92
298080,note_off,,96,0,2,,,,,,0,80,64
298176,note_off,,192,0,3,,,,,,0,64,64
298176,note_off,,96,0,2,,,,,,0,83,64
298176,note_on,,0,0,2,,,,,,0,80,92
298176,note_on,,0,0,3,,,,,,0,64,102
298272,note_on,,0,0,2,,,,,,0,83,92
298272,note_off,,96,0,2,,,,,,0,80,64
298368,note_off,,192,0,3,,,,,,0,64,64
298368,note_on,,0,0,3,,,,,,0,64,102
298368,note_on,,0,0,2,,,,,,0,80,92
298368,note_off,,96,0,2,,,,,,0,83,64
298464,note_on,,0,0,2,,,,,,0,83,92
298464,note_off,,96,0,2,,,,,,0,80,64
298560,note_on,,0,0,2,,,,,,0,80,92
298560,note_on,,0,0,3,,,,,,0,64,102
298560,note_off,,192,0,3,,,,,,0,64,64
298560,note_off,,96,0,2,,,,,,0,83,64
298656,note_off,,96,0,2,,,,,,0,80,64
298656,note_on,,0,0,2,,,,,,0,83,92
298752,note_on,,0,0,3,,,,,,0,64,102
298752,note_off,,96,0,2,,,,,,0,83,64
298752,note_on,,0,0,2,,,,,,0,76,92
298752,note_on,,0,0,3,,,,,,0,56,102
298752,note_off,,192,0,3,,,,,,0,64,64
298848,note_off,,96,0,2,,,,,,0,76,64
298848,note_on,,0,0,2,,,,,,0,83,92
298944,note_on,,0,0,2,,,,,,0,76,92
298944,note_off,,96,0,2,,,,,,0,83,64
298944,note_off,,192,0,3,,,,,,0,64,64
298944,note_on,,0,0,3,,,,,,0,64,102
299040,note_off,,96,0,2,,,,,,0,76,64
299040,note_on,,0,0,2,,,,,,0,83,92
299136,note_off,,1536,0,1,,,,,,0,74,64
299136,note_on,,0,0,2,,,,,,0,76,92
299136,note_off,,96,0,2,,,,,,0,83,64
299136,note_on,,0,0,1,,,,,,0,83,92
299136,note_off,,0,0,3,,,,,,0,56,64
299136,note_on,,0,0,3,,,,,,0,64,102
299136,note_off,,192,0,3,,,,,,0,64,64
299232,note_off,,96,0,2,,,,,,0,76,64
299232,note_on,,0,0,2,,,,,,0,83,92
299328,note_off,,192,0,3,,,,,,0,64,64
299328,note_on,,0,0,3,,,,,,0,64,102
299328,note_off,,96,0,2,,,,,,0,83,64
299328,note_on,,0,0,2,,,,,,0,76,92
299328,note_off,,192,0,1,,,,,,0,83,64
299328,note_on,,0,0,1,,,,,,0,80,92
299424,note_off,,96,0,2,,,,,,0,76,64
299424,note_on,,0,0,2,,,,,,0,83,92
299520,note_off,,96,0,2,,,,,,0,83,64
299520,note_on,,0,0,2,,,,,,0,76,92
299520,note_off,,192,0,3,,,,,,0,64,64
299520,note_on,,0,0,3,,,,,,0,64,102
299520,note_on,,0,0,1,,,,,,0,81,92
299520,note_off,,192,0,1,,,,,,0,80,64
299616,note_off,,96,0,2,,,,,,0,76,64
299616,note_on,,0,0,2,,,,,,0,83,92
299712,note_off,,192,0,3,,,,,,0,64,64
299712,note_on,,0,0,3,,,,,,0,64,102
299712,note_on,,0,0,1,,,,,,0,83,92
299712,note_off,,96,0,2,,,,,,0,83,64
299712,note_on,,0,0,2,,,,,,0,76,92
299712,note_off,,192,0,1,,,,,,0,81,64
299808,note_on,,0,0,2,,,,,,0,83,92
299808,note_off,,96,0,2,,,,,,0,76,64
299904,note_off,,192,0,1,,,,,,0,83,64
299904,note_off,,192,0,3,,,,,,0,64,64
299904,note_on,,0,0,3,,,,,,0,64,102
299904,note_on,,0,0,3,,,,,,0,56,102
299904,note_on,,0,0,2,,,,,,0,74,92
299904,note_off,,96,0,2,,,,,,0,83,64
299904,note_on,,0,0,1,,,,,,0,74,92
300000,note_on,,0,0,2,,,,,,0,83,92
300000,note_off,,96,0,2,,,,,,0,74,64
300096,note_off,,192,0,3,,,,,,0,64,64
300096,note_on,,0,0,2,,,,,,0,74,92
300096,note_off,,96,0,2,,,,,,0,83,64
300096,note_on,,0,0,3,,,,,,0,64,102
300192,note_off,,96,0,2,,,,,,0,74,64
300192,note_on,,0,0,2,,,,,,0,83,92
300288,note_on,,0,0,2,,,,,,0,74,92
300288,note_off,,96,0,2,,,,,,0,83,64
300288,note_off,,192,0,3,,,,,,0,64,64
300288,note_off,,0,0,3,,,,,,0,56,64
300288,note_on,,0,0,3,,,,,,0,64,102
300384,note_off,,96,0,2,,,,,,0,74,64
300384,note_on,,0,0,2,,,,,,0,83,92
300480,note_on,,0,0,3,,,,,,0,64,102
300480,note_off,,96,0,2,,,,,,0,83,64
300480,note_on,,0,0,2,,,,,,0,74,92
300480,note_off,,192,0,3,,,,,,0,64,64
300576,note_off,,96,0,2,,,,,,0,74,64
300576,note_on,,0,0,2,,,,,,0,83,92
300672,note_on,,0,0,3,,,,,,0,64,102
300672,note_off,,192,0,3,,,,,,0,64,64
300672,note_on,,0,0,2,,,,,,0,74,92
300672,note_off,,96,0,2,,,,,,0,83,64
300768,note_on,,0,0,2,,,,,,0,83,92
300768,note_off,,96,0,2,,,,,,0,74,64
300864,note_on,,0,0,2,,,,,,0,74,92
300864,note_on,,0,0,3,,,,,,0,64,102
300864,note_off,,192,0,3,,,,,,0,64,64
300864,note_off,,96,0,2,,,,,,0,83,64
300960,note_off,,96,0,2,,,,,,0,74,64
300960,note_on,,0,0,2,,,,,,0,83,92
301056,note_on,,0,0,1,,,,,,0,83,92
301056,note_off,,1152,0,1,,,,,,0,74,64
301056,note_on,,0,0,3,,,,,,0,44,102
301056,note_on,,0,0,3,,,,,,0,64,102
301056,note_off,,96,0,2,,,,,,0,83,64
301056,note_on,,0,0,2,,,,,,0,74,92
301056,note_off,,192,0,3,,,,,,0,64,64
301152,note_off,,96,0,2,,,,,,0,74,64
301152,note_on,,0,0,2,,,,,,0,76,92
301248,note_off,,96,0,2,,,,,,0,76,64
301248,note_on,,0,0,2,,,,,,0,74,92
301248,note_off,,192,0,3,,,,,,0,64,64
301248,note_on,,0,0,3,,,,,,0,64,102
301344,note_off,,96,0,2,,,,,,0,74,64
301344,note_on,,0,0,2,,,,,,0,76,92
301344,note_off,,288,0,1,,,,,,0,83,64
301344,note_on,,0,0,1,,,,,,0,81,92
301440,note_off,,96,0,1,,,,,,0,81,64
301440,note_off,,0,0,3,,,,,,0,44,64
301440,note_on,,0,0,3,,,,,,0,64,102
301440,note_off,,96,0,2,,,,,,0,76,64
301440,note_on,,0,0,2,,,,,,0,74,92
301440,note_on,,0,0,1,,,,,,0,80,92
301440,note_off,,192,0,3,,,,,,0,64,64
301536,note_on,,0,0,2,,,,,,0,76,92
301536,note_off,,96,0,2,,,,,,0,74,64
301632,note_off,,96,0,2,,,,,,0,76,64
301632,note_on,,0,0,2,,,,,,0,74,92
301632,note_off,,192,0,3,,,,,,0,64,64
301632,note_on,,0,0,3,,,,,,0,64,102
301728,note_off,,96,0,2,,,,,,0,74,64
301728,note_on,,0,0,1,,,,,,0,78,92
301728,note_off,,288,0,1,,,,,,0,80,64
301728,note_on,,0,0,2,,,,,,0,76,92
301824,note_on,,0,0,2,,,,,,0,74,92
301824,note_off,,96,0,2,,,,,,0,76,64
301824,note_on,,0,0,3,,,,,,0,64,102
301824,note_off,,192,0,3,,,,,,0,64,64
301824,note_off,,96,0,1,,,,,,0,78,64
301824,note_on,,0,0,1,,,,,,0,76,92
301920,note_off,,96,0,2,,,,,,0,74,64
301920,note_on,,0,0,2,,,,,,0,76,92
302016,note_off,,192,0,3,,,,,,0,64,64
302016,note_on,,0,0,3,,,,,,0,64,102
302016,note_on,,0,0,2,,,,,,0,74,92
302016,note_off,,96,0,2,,,,,,0,76,64
302112,note_off,,288,0,1,,,,,,0,76,64
302112,note_on,,0,0,2,,,,,,0,76,92
302112,note_on,,0,0,1,,,,,,0,74,92
302112,note_off,,96,0,2,,,,,,0,74,64
302208,note_on,,0,0,3,,,,,,0,45,102
302208,note_on,,0,0,3,,,,,,0,64,102
302208,note_off,,192,0,3,,,,,,0,64,64
302208,note_off,,96,0,2,,,,,,0,76,64
302208,note_off,,96,0,1,,,,,,0,74,64
302208,note_on,,0,0,1,,,,,,0,72,92
302208,note_on,,0,0,2,,,,,,0,72,92
302304,note_off,,96,0,2,,,,,,0,72,64
302304,note_on,,0,0,2,,,,,,0,76,92
302400,note_on,,0,0,3,,,,,,0,64,102
302400,note_off,,192,0,3,,,,,,0,64,64
302400,note_on,,0,0,2,,,,,,0,72,92
302400,note_off,,96,0,2,,,,,,0,76,64
302496,note_on,,0,0,2,,,,,,0,76,92
302496,note_off,,96,0,2,,,,,,0,72,64
302592,note_on,,0,0,3,,,,,,0,64,102
302592,note_on,,0,0,2,,,,,,0,72,92
302592,note_off,,0,0,3,,,,,,0,45,64
302592,note_off,,192,0,3,,,,,,0,64,64
302592,note_off,,96,0,2,,,,,,0,76,64
302688,note_off,,96,0,2,,,,,,0,72,64
302688,note_on,,0,0,2,,,,,,0,76,92
302784,note_on,,0,0,3,,,,,,0,64,102
302784,note_off,,192,0,3,,,,,,0,64,64
302784,note_on,,0,0,2,,,,,,0,72,92
302784,note_off,,96,0,2,,,,,,0,76,64
302784,note_off,,576,0,1,,,,,,0,72,64
302784,note_on,,0,0,1,,,,,,0,71,92
302880,note_off,,96,0,2,,,,,,0,72,64
302880,note_on,,0,0,2,,,,,,0,76,92
302976,note_off,,192,0,1,,,,,,0,71,64
302976,note_off,,96,0,2,,,,,,0,76,64
302976,note_on,,0,0,3,,,,,,0,64,102
302976,note_off,,192,0,3,,,,,,0,64,64
302976,note_on,,0,0,1,,,,,,0,69,92
302976,note_on,,0,0,2,,,,,,0,72,92
303072,note_on,,0,0,2,,,,,,0,76,92
303072,note_off,,96,0,2,,,,,,0,72,64
303168,note_on,,0,0,2,,,,,,0,72,92
303168,note_off,,96,0,2,,,,,,0,76,64
303168,note_off,,192,0,3,,,,,,0,64,64
303168,note_on,,0,0,3,,,,,,0,64,102
303264,note_off,,96,0,2,,,,,,0,72,64
303264,note_on,,0,0,2,,,,,,0,76,92
303360,note_off,,192,0,3,,,,,,0,64,64
303360,note_on,,0,0,3,,,,,,0,64,102
303360,note_on,,0,0,3,,,,,,0,45,102
303360,note_off,,96,0,2,,,,,,0,76,64
303360,note_on,,0,0,2,,,,,,0,72,92
303360,note_on,,0,0,1,,,,,,0,72,92
303360,note_off,,384,0,1,,,,,,0,69,64
303456,note_on,,0,0,2,,,,,,0,81,92
303456,note_off,,96,0,2,,,,,,0,72,64
303552,note_on,,0,0,3,,,,,,0,64,102
303552,note_off,,192,0,3,,,,,,0,64,64
303552,note_off,,96,0,2,,,,,,0,81,64
303552,note_on,,0,0,2,,,,,,0,72,92
303648,note_on,,0,0,2,,,,,,0,81,92
303648,note_off,,96,0,2,,,,,,0,72,64
303744,note_on,,0,0,2,,,,,,0,72,92
303744,note_off,,96,0,2,,,,,,0,81,64
303744,note_off,,0,0,3,,,,,,0,45,64
303744,note_on,,0,0,3,,,,,,0,64,102
303744,note_off,,192,0,3,,,,,,0,64,64
303744,note_on,,0,0,1,,,,,,0,76,92
303744,note_off,,384,0,1,,,,,,0,72,64
303840,note_on,,0,0,2,,,,,,0,81,92
303840,note_off,,96,0,2,,,,,,0,72,64
303936,note_on,,0,0,3,,,,,,0,64,102
303936,note_off,,192,0,3,,,,,,0,64,64
303936,note_on,,0,0,2,,,,,,0,72,92
303936,note_off,,96,0,2,,,,,,0,81,64
304032,note_on,,0,0,2,,,,,,0,81,92
304032,note_off,,96,0,2,,,,,,0,72,64
304128,note_on,,0,0,2,,,,,,0,72,92
304128,note_off,,96,0,2,,,,,,0,81,64
304128,note_off,,192,0,3,,,,,,0,64,64
304128,note_on,,0,0,3,,,,,,0,64,102
304224,note_on,,0,0,2,,,,,,0,81,92
304224,note_off,,96,0,2,,,,,,0,72,64
304320,note_on,,0,0,2,,,,,,0,72,92
304320,note_off,,576,0,1,,,,,,0,76,64
304320,note_off,,192,0,3,,,,,,0,64,64
304320,note_off,,96,0,2,,,,,,0,81,64
304320,note_on,,0,0,1,,,,,,0,81,92
304320,note_on,,0,0,3,,,,,,0,64,102
304416,note_off,,96,0,2,,,,,,0,72,64
304416,note_on,,0,0,2,,,,,,0,81,92
304512,note_off,,96,0,2,,,,,,0,81,64
304512,note_on,,0,0,2,,,,,,0,71,92
304512,note_off,,192,0,1,,,,,,0,81,64
304512,note_off,,192,0,3,,,,,,0,64,64
304512,note_on,,0,0,3,,,,,,0,64,102
304512,note_on,,0,0,1,,,,,,0,71,92
304512,note_on,,0,0,3,,,,,,0,52,102
304608,note_off,,96,0,2,,,,,,0,71,64
304608,note_on,,0,0,2,,,,,,0,81,92
304704,note_off,,192,0,3,,,,,,0,64,64
304704,note_on,,0,0,3,,,,,,0,64,102
304704,note_on,,0,0,2,,,,,,0,71,92
304704,note_off,,96,0,2,,,,,,0,81,64
304800,note_off,,96,0,2,,,,,,0,71,64
304800,note_on,,0,0,2,,,,,,0,81,92
304896,note_off,,192,0,3,,,,,,0,64,64
304896,note_off,,0,0,3,,,,,,0,52,64
304896,note_on,,0,0,3,,,,,,0,64,102
304896,note_on,,0,0,2,,,,,,0,71,92
304896,note_off,,96,0,2,,,,,,0,81,64
304992,note_off,,96,0,2,,,,,,0,71,64
304992,note_on,,0,0,2,,,,,,0,81,92
305088,note_off,,96,0,2,,,,,,0,81,64
305088,note_on,,0,0,2,,,,,,0,71,92
305088,note_on,,0,0,3,,,,,,0,64,102
305088,note_off,,192,0,3,,,,,,0,64,64
305184,note_off,,96,0,2,,,,,,0,71,64
305184,note_on,,0,0,2,,,,,,0,81,92
305280,note_on,,0,0,3,,,,,,0,64,102
305280,note_off,,96,0,2,,,,,,0,81,64
305280,note_on,,0,0,2,,,,,,0,71,92
305280,note_off,,192,0,3,,,,,,0,64,64
305376,note_off,,96,0,2,,,,,,0,71,64
305376,note_on,,0,0,2,,,,,,0,81,92
305472,note_off,,96,0,2,,,,,,0,81,64
305472,note_off,,192,0,3,,,,,,0,64,64
305472,note_on,,0,0,3,,,,,,0,64,102
305472,note_on,,0,0,2,,,,,,0,71,92
305568,note_off,,96,0,2,,,,,,0,71,64
305568,note_on,,0,0,2,,,,,,0,81,92
305664,note_off,,192,0,3,,,,,,0,64,64
305664,note_on,,0,0,3,,,,,,0,64,102
305664,note_off,,96,0,2,,,,,,0,81,64
305664,note_on,,0,0,2,,,,,,0,71,92
305664,note_on,,0,0,3,,,,,,0,40,102
305760,note_off,,96,0,2,,,,,,0,71,64
305760,note_on,,0,0,2,,,,,,0,79,92
305856,note_on,,0,0,1,,,,,,0,76,92
305856,note_on,,0,0,2,,,,,,0,71,92
305856,note_off,,1344,0,1,,,,,,0,71,64
305856,note_off,,96,0,2,,,,,,0,79,64
305856,note_off,,192,0,3,,,,,,0,64,64
305856,note_on,,0,0,3,,,,,,0,64,102
305952,note_off,,96,0,2,,,,,,0,71,64
305952,note_on,,0,0,2,,,,,,0,79,92
306048,note_off,,96,0,2,,,,,,0,79,64
306048,note_on,,0,0,2,,,,,,0,71,92
306048,note_on,,0,0,3,,,,,,0,64,102
306048,note_off,,0,0,3,,,,,,0,40,64
306048,note_on,,0,0,1,,,,,,0,76,92
306048,note_off,,192,0,1,,,,,,0,76,64
306048,note_off,,192,0,3,,,,,,0,64,64
306144,note_on,,0,0,2,,,,,,0,79,92
306144,note_off,,96,0,2,,,,,,0,71,64
306240,note_on,,0,0,2,,,,,,0,71,92
306240,note_off,,192,0,3,,,,,,0,64,64
306240,note_on,,0,0,3,,,,,,0,64,102
306240,note_on,,0,0,1,,,,,,0,79,92
306240,note_off,,192,0,1,,,,,,0,76,64
306240,note_off,,96,0,2,,,,,,0,79,64
306336,note_on,,0,0,2,,,,,,0,79,92
306336,note_off,,96,0,2,,,,,,0,71,64
306432,note_on,,0,0,1,,,,,,0,79,92
306432,note_off,,96,0,2,,,,,,0,79,64
306432,note_on,,0,0,2,,,,,,0,71,92
306432,note_off,,192,0,3,,,,,,0,64,64
306432,note_on,,0,0,3,,,,,,0,64,102
306432,note_off,,192,0,1,,,,,,0,79,64
306528,note_off,,96,0,2,,,,,,0,71,64
306528,note_on,,0,0,2,,,,,,0,79,92
306624,note_on,,0,0,3,,,,,,0,64,102
306624,note_off,,192,0,3,,,,,,0,64,64
306624,note_on,,0,0,2,,,,,,0,71,92
306624,note_off,,96,0,2,,,,,,0,79,64
306624,note_on,,0,0,1,,,,,,0,71,92
306624,note_off,,192,0,1,,,,,,0,79,64
306720,note_on,,0,0,2,,,,,,0,79,92
306720,note_off,,96,0,2,,,,,,0,71,64
306816,note_on,,0,0,1,,,,,,0,69,92
306816,note_off,,192,0,1,,,,,,0,71,64
306816,note_on,,0,0,3,,,,,,0,45,102
306816,note_on,,0,0,2,,,,,,0,73,92
306816,note_off,,96,0,2,,,,,,0,79,64
306816,note_on,,0,0,3,,,,,,0,64,102
306816,note_off,,192,0,3,,,,,,0,64,64
306912,note_on,,0,0,2,,,,,,0,79,92
306912,note_off,,96,0,2,,,,,,0,73,64
307008,note_off,,192,0,1,,,,,,0,69,64
307008,note_on,,0,0,3,,,,,,0,64,102
307008,note_off,,192,0,3,,,,,,0,64,64
307008,note_on,,0,0,2,,,,,,0,73,92
307008,note_off,,96,0,2,,,,,,0,79,64
307008,note_on,,0,0,1,,,,,,0,73,92
307104,note_on,,0,0,2,,,,,,0,79,92
307104,note_off,,96,0,2,,,,,,0,73,64
307200,note_off,,96,0,2,,,,,,0,79,64
307200,note_on,,0,0,2,,,,,,0,73,92
307200,note_off,,192,0,3,,,,,,0,64,64
307200,note_off,,0,0,3,,,,,,0,45,64
307200,note_on,,0,0,3,,,,,,0,64,102
307200,note_on,,0,0,1,,,,,,0,73,92
307200,note_off,,192,0,1,,,,,,0,73,64
307296,note_on,,0,0,2,,,,,,0,79,92
307296,note_off,,96,0,2,,,,,,0,73,64
307392,note_off,,192,0,1,,,,,,0,73,64
307392,note_on,,0,0,1,,,,,,0,76,92
307392,note_on,,0,0,2,,,,,,0,73,92
307392,note_off,,192,0,3,,,,,,0,64,64
307392,note_off,,96,0,2,,,,,,0,79,64
307392,note_on,,0,0,3,,,,,,0,64,102
307488,note_on,,0,0,2,,,,,,0,79,92
307488,note_off,,96,0,2,,,,,,0,73,64
307584,note_off,,192,0,3,,,,,,0,64,64
307584,note_on,,0,0,1,,,,,,0,76,92
307584,note_on,,0,0,3,,,,,,0,64,102
307584,note_on,,0,0,2,,,,,,0,73,92
307584,note_off,,96,0,2,,,,,,0,79,64
307584,note_off,,192,0,1,,,,,,0,76,64
307680,note_on,,0,0,2,,,,,,0,79,92
307680,note_off,,96,0,2,,,,,,0,73,64
307776,note_on,,0,0,1,,,,,,0,79,92
307776,note_off,,192,0,1,,,,,,0,76,64
307776,note_off,,192,0,3,,,,,,0,64,64
307776,note_on,,0,0,3,,,,,,0,64,102
307776,note_off,,96,0,2,,,,,,0,79,64
307776,note_on,,0,0,2,,,,,,0,73,92
307872,note_off,,96,0,2,,,,,,0,73,64
307872,note_on,,0,0,2,,,,,,0,79,92
307968,note_off,,96,0,2,,,,,,0,79,64
307968,note_on,,0,0,2,,,,,,0,69,92
307968,note_off,,192,0,1,,,,,,0,79,64
307968,note_on,,0,0,1,,,,,,0,79,92
307968,note_on,,0,0,3,,,,,,0,49,102
307968,note_on,,0,0,3,,,,,,0,64,102
307968,note_off,,192,0,3,,,,,,0,64,64
308064,note_off,,96,0,2,,,,,,0,69,64
308064,note_on,,0,0,2,,,,,,0,79,92
308160,note_on,,0,0,3,,,,,,0,64,102
308160,note_off,,192,0,3,,,,,,0,64,64
308160,note_on,,0,0,2,,,,,,0,69,92
308160,note_off,,96,0,2,,,,,,0,79,64
308256,note_on,,0,0,2,,,,,,0,79,92
308256,note_off,,96,0,2,,,,,,0,69,64
308352,note_off,,0,0,3,,,,,,0,49,64
308352,note_off,,192,0,3,,,,,,0,64,64
308352,note_on,,0,0,2,,,,,,0,69,92
308352,note_on,,0,0,3,,,,,,0,64,102
308352,note_off,,96,0,2,,,,,,0,79,64
308448,note_off,,96,0,2,,,,,,0,69,64
308448,note_on,,0,0,2,,,,,,0,79,92
308544,note_on,,0,0,2,,,,,,0,69,92
308544,note_off,,96,0,2,,,,,,0,79,64
308544,note_on,,0,0,1,,,,,,0,81,92
308544,note_off,,576,0,1,,,,,,0,79,64
308544,note_off,,192,0,3,,,,,,0,64,64
308544,note_on,,0,0,3,,,,,,0,64,102
308640,note_off,,96,0,2,,,,,,0,69,64
308640,note_on,,0,0,2,,,,,,0,79,92
308736,note_off,,192,0,1,,,,,,0,81,64
308736,note_on,,0,0,2,,,,,,0,69,92
308736,note_off,,192,0,3,,,,,,0,64,64
308736,note_on,,0,0,3,,,,,,0,64,102
308736,note_off,,96,0,2,,,,,,0,79,64
308736,note_on,,0,0,1,,,,,,0,77,92
308832,note_off,,96,0,2,,,,,,0,69,64
308832,note_on,,0,0,2,,,,,,0,79,92
308928,note_on,,0,0,2,,,,,,0,69,92
308928,note_off,,96,0,2,,,,,,0,79,64
308928,note_off,,192,0,3,,,,,,0,64,64
308928,note_on,,0,0,1,,,,,,0,76,92
308928,note_off,,192,0,1,,,,,,0,77,64
308928,note_on,,0,0,3,,,,,,0,64,102
309024,note_on,,0,0,2,,,,,,0,79,92
309024,note_off,,96,0,2,,,,,,0,69,64
309120,note_on,,0,0,3,,,,,,0,57,102
309120,note_on,,0,0,3,,,,,,0,50,102
309120,note_off,,96,0,2,,,,,,0,79,64
309120,note_on,,0,0,1,,,,,,0,77,92
309120,note_off,,192,0,1,,,,,,0,76,64
309120,note_off,,192,0,3,,,,,,0,64,64
309120,note_on,,0,0,2,,,,,,0,74,92
309216,note_off,,96,0,2,,,,,,0,74,64
309216,note_on,,0,0,2,,,,,,0,77,92
309312,note_on,,0,0,2,,,,,,0,74,92
309312,note_off,,96,0,2,,,,,,0,77,64
309312,note_on,,0,0,3,,,,,,0,57,102
309312,note_off,,192,0,3,,,,,,0,57,64
309408,note_on,,0,0,2,,,,,,0,77,92
309408,note_off,,96,0,2,,,,,,0,74,64
309504,note_on,,0,0,3,,,,,,0,57,102
309504,note_off,,96,0,2,,,,,,0,77,64
309504,note_on,,0,0,2,,,,,,0,74,92
309504,note_off,,0,0,3,,,,,,0,50,64
309504,note_off,,192,0,3,,,,,,0,57,64
309600,note_off,,96,0,2,,,,,,0,74,64
309600,note_on,,0,0,2,,,,,,0,77,92
309696,note_on,,0,0,3,,,,,,0,57,102
309696,note_off,,192,0,3,,,,,,0,57,64
309696,note_off,,576,0,1,,,,,,0,77,64
309696,note_on,,0,0,2,,,,,,0,74,92
309696,note_on,,0,0,1,,,,,,0,76,92
309696,note_off,,96,0,2,,,,,,0,77,64
309792,note_on,,0,0,2,,,,,,0,77,92
309792,note_off,,96,0,2,,,,,,0,74,64
309888,note_on,,0,0,1,,,,,,0,74,92
309888,note_off,,192,0,1,,,,,,0,76,64
309888,note_off,,192,0,3,,,,,,0,57,64
309888,note_off,,96,0,2,,,,,,0,77,64
309888,note_on,,0,0,3,,,,,,0,57,102
309888,note_on,,0,0,2,,,,,,0,74,92
309984,note_off,,96,0,2,,,,,,0,74,64
309984,note_on,,0,0,2,,,,,,0,77,92
310080,note_on,,0,0,2,,,,,,0,74,92
310080,note_off,,96,0,2,,,,,,0,77,64
310080,note_off,,192,0,3,,,,,,0,57,64
310080,note_on,,0,0,3,,,,,,0,57,102
310176,note_on,,0,0,2,,,,,,0,77,92
310176,note_off,,96,0,2,,,,,,0,74,64
310272,note_on,,0,0,2,,,,,,0,74,92
310272,note_off,,96,0,2,,,,,,0,77,64
310272,note_off,,384,0,1,,,,,,0,74,64
310272,note_on,,0,0,3,,,,,,0,57,102
310272,note_on,,0,0,3,,,,,,0,45,102
310272,note_off,,192,0,3,,,,,,0,57,64
310368,note_off,,96,0,2,,,,,,0,74,64
310368,note_on,,0,0,2,,,,,,0,76,92
310464,note_on,,0,0,3,,,,,,0,57,102
310464,note_off,,192,0,3,,,,,,0,57,64
310464,note_off,,96,0,2,,,,,,0,76,64
310464,note_on,,0,0,2,,,,,,0,74,92
310560,note_off,,96,0,2,,,,,,0,74,64
310560,note_on,,0,0,2,,,,,,0,76,92
310656,note_off,,192,0,3,,,,,,0,57,64
310656,note_off,,0,0,3,,,,,,0,45,64
310656,note_on,,0,0,3,,,,,,0,57,102
310656,note_off,,96,0,2,,,,,,0,76,64
310656,note_on,,0,0,2,,,,,,0,74,92
310752,note_off,,96,0,2,,,,,,0,74,64
310752,note_on,,0,0,2,,,,,,0,76,92
310848,note_off,,192,0,3,,,,,,0,57,64
310848,note_on,,0,0,2,,,,,,0,74,92
310848,note_on,,0,0,3,,,,,,0,57,102
310848,note_off,,96,0,2,,,,,,0,76,64
310944,note_off,,96,0,2,,,,,,0,74,64
310944,note_on,,0,0,2,,,,,,0,76,92
311040,note_off,,192,0,3,,,,,,0,57,64
311040,note_on,,0,0,3,,,,,,0,57,102
311040,note_off,,96,0,2,,,,,,0,76,64
311040,note_on,,0,0,2,,,,,,0,74,92
311136,note_on,,0,0,2,,,,,,0,76,92
311136,note_off,,96,0,2,,,,,,0,74,64
311232,note_off,,192,0,3,,,,,,0,57,64
311232,note_on,,0,0,3,,,,,,0,57,102
311232,note_on,,0,0,2,,,,,,0,74,92
311232,note_off,,96,0,2,,,,,,0,76,64
311328,note_off,,96,0,2,,,,,,0,74,64
311328,note_on,,0,0,2,,,,,,0,76,92
311424,note_on,,1152,0,1,,,,,,0,69,92
311424,note_off,,96,0,2,,,,,,0,76,64
311424,note_on,,0,0,2,,,,,,0,72,92
311424,note_on,,0,0,3,,,,,,0,45,102
311424,note_on,,0,0,3,,,,,,0,57,102
311424,note_off,,192,0,3,,,,,,0,57,64
311520,note_off,,96,0,2,,,,,,0,72,64
311520,note_on,,0,0,2,,,,,,0,76,92
311616,note_on,,0,0,2,,,,,,0,72,92
311616,note_off,,192,0,3,,,,,,0,57,64
311616,note_on,,0,0,3,,,,,,0,57,102
311616,note_off,,96,0,2,,,,,,0,76,64
311712,note_off,,96,0,2,,,,,,0,72,64
311712,note_on,,0,0,2,,,,,,0,76,92
311808,note_off,,192,0,3,,,,,,0,57,64
311808,note_on,,0,0,2,,,,,,0,72,92
311808,note_off,,384,0,1,,,,,,0,69,64
311808,note_on,,0,0,3,,,,,,0,57,102
311808,note_off,,0,0,3,,,,,,0,45,64
311808,note_on,,0,0,1,,,,,,0,72,92
311808,note_off,,96,0,2,,,,,,0,76,64
311904,note_off,,96,0,2,,,,,,0,72,64
311904,note_on,,0,0,2,,,,,,0,76,92
312000,note_on,,0,0,3,,,,,,0,57,102
312000,note_on,,0,0,2,,,,,,0,72,92
312000,note_off,,192,0,3,,,,,,0,57,64
312000,note_off,,96,0,2,,,,,,0,76,64
312096,note_off,,96,0,2,,,,,,0,72,64
312096,note_on,,0,0,2,,,,,,0,76,92
312192,note_on,,0,0,3,,,,,,0,57,102
312192,note_off,,192,0,3,,,,,,0,57,64
312192,note_on,,0,0,2,,,,,,0,72,92
312192,note_off,,384,0,1,,,,,,0,72,64
312192,note_on,,0,0,1,,,,,,0,76,92
312192,note_off,,96,0,2,,,,,,0,76,64
312288,note_off,,96,0,2,,,,,,0,72,64
312288,note_on,,0,0,2,,,,,,0,76,92
312384,note_on,,0,0,3,,,,,,0,57,102
312384,note_off,,192,0,3,,,,,,0,57,64
312384,note_on,,0,0,2,,,,,,0,72,92
312384,note_off,,96,0,2,,,,,,0,76,64
312480,note_on,,0,0,2,,,,,,0,76,92
312480,note_off,,96,0,2,,,,,,0,72,64
312576,note_off,,384,0,1,,,,,,0,76,64
312576,note_on,,0,0,3,,,,,,0,57,102
312576,note_on,,0,0,3,,,,,,0,45,102
312576,note_off,,192,0,3,,,,,,0,57,64
312576,note_off,,96,0,2,,,,,,0,76,64
312576,note_on,,0,0,2,,,,,,0,72,92
312576,note_on,,0,0,1,,,,,,0,81,92
312672,note_off,,96,0,2,,,,,,0,72,64
312672,note_on,,0,0,2,,,,,,0,81,92
312768,note_off,,192,0,3,,,,,,0,57,64
312768,note_on,,0,0,2,,,,,,0,72,92
312768,note_on,,0,0,3,,,,,,0,57,102
312768,note_off,,96,0,2,,,,,,0,81,64
312864,note_off,,96,0,2,,,,,,0,72,64
312864,note_on,,0,0,2,,,,,,0,81,92
312960,note_on,,0,0,3,,,,,,0,57,102
312960,note_off,,0,0,3,,,,,,0,45,64
312960,note_off,,192,0,3,,,,,,0,57,64
312960,note_off,,96,0,2,,,,,,0,81,64
312960,note_on,,0,0,2,,,,,,0,72,92
313056,note_off,,96,0,2,,,,,,0,72,64
313056,note_on,,0,0,2,,,,,,0,81,92
313152,note_off,,192,0,3,,,,,,0,57,64
313152,note_off,,96,0,2,,,,,,0,81,64
313152,note_on,,0,0,2,,,,,,0,72,92
313152,note_on,,0,0,3,,,,,,0,57,102
313248,note_on,,0,0,2,,,,,,0,81,92
313248,note_off,,96,0,2,,,,,,0,72,64
313344,note_off,,96,0,2,,,,,,0,81,64
313344,note_off,,192,0,3,,,,,,0,57,64
313344,note_on,,0,0,3,,,,,,0,57,102
313344,note_on,,0,0,2,,,,,,0,72,92
313440,note_on,,0,0,2,,,,,,0,81,92
313440,note_off,,96,0,2,,,,,,0,72,64
313536,note_on,,0,0,2,,,,,,0,72,92
313536,note_off,,96,0,2,,,,,,0,81,64
313536,note_on,,0,0,3,,,,,,0,57,102
313536,note_off,,192,0,3,,,,,,0,57,64
313632,note_on,,0,0,2,,,,,,0,81,92
313632,note_off,,96,0,2,,,,,,0,72,64
313728,note_on,,0,0,3,,,,,,0,57,102
313728,note_off,,192,0,3,,,,,,0,57,64
313728,note_off,,1152,0,1,,,,,,0,81,64
313728,note_on,,0,0,1,,,,,,0,72,92
313728,note_on,,0,0,3,,,,,,0,50,102
313728,note_on,,0,0,2,,,,,,0,72,92
313728,note_off,,96,0,2,,,,,,0,81,64
313824,note_on,,0,0,2,,,,,,0,78,92
313824,note_off,,96,0,2,,,,,,0,72,64
313920,note_off,,192,0,3,,,,,,0,57,64
313920,note_on,,0,0,2,,,,,,0,72,92
313920,note_on,,0,0,3,,,,,,0,57,102
313920,note_off,,96,0,2,,,,,,0,78,64
314016,note_off,,96,0,2,,,,,,0,72,64
314016,note_on,,0,0,2,,,,,,0,78,92
314112,note_on,,0,0,1,,,,,,0,78,92
314112,note_off,,384,0,1,,,,,,0,72,64
314112,note_off,,0,0,3,,,,,,0,50,64
314112,note_on,,0,0,3,,,,,,0,57,102
314112,note_off,,192,0,3,,,,,,0,57,64
314112,note_on,,0,0,2,,,,,,0,72,92
314112,note_off,,96,0,2,,,,,,0,78,64
314208,note_on,,0,0,2,,,,,,0,78,92
314208,note_off,,96,0,2,,,,,,0,72,64
314304,note_on,,0,0,2,,,,,,0,72,92
314304,note_on,,0,0,3,,,,,,0,57,102
314304,note_off,,192,0,3,,,,,,0,57,64
314304,note_off,,96,0,2,,,,,,0,78,64
314400,note_off,,96,0,2,,,,,,0,72,64
314400,note_on,,0,0,2,,,,,,0,78,92
314496,note_off,,384,0,1,,,,,,0,78,64
314496,note_on,,0,0,2,,,,,,0,72,92
314496,note_off,,96,0,2,,,,,,0,78,64
314496,note_on,,0,0,1,,,,,,0,81,92
314496,note_on,,0,0,3,,,,,,0,57,102
314496,note_off,,192,0,3,,,,,,0,57,64
314592,note_off,,96,0,2,,,,,,0,72,64
314592,note_on,,0,0,2,,,,,,0,78,92
314688,note_on,,0,0,2,,,,,,0,72,92
314688,note_off,,96,0,2,,,,,,0,78,64
314688,note_off,,192,0,3,,,,,,0,57,64
314688,note_on,,0,0,3,,,,,,0,57,102
314784,note_on,,0,0,2,,,,,,0,78,92
314784,note_off,,96,0,2,,,,,,0,72,64
314880,note_on,,0,0,2,,,,,,0,72,92
314880,note_off,,192,0,3,,,,,,0,57,64
314880,note_on,,0,0,3,,,,,,0,57,102
314880,note_on,,0,0,3,,,,,,0,54,102
314880,note_off,,96,0,2,,,,,,0,78,64
314880,note_off,,384,0,1,,,,,,0,81,64
314880,note_on,,0,0,1,,,,,,0,84,92
314976,note_off,,96,0,2,,,,,,0,72,64
314976,note_on,,0,0,2,,,,,,0,81,92
315072,note_on,,0,0,3,,,,,,0,57,102
315072,note_off,,96,0,2,,,,,,0,81,64
315072,note_off,,192,0,3,,,,,,0,57,64
315072,note_on,,0,0,2,,,,,,0,72,92
315168,note_off,,96,0,2,,,,,,0,72,64
315168,note_on,,0,0,2,,,,,,0,81,92
315264,note_on,,0,0,3,,,,,,0,57,102
315264,note_off,,0,0,3,,,,,,0,54,64
315264,note_off,,192,0,3,,,,,,0,57,64
315264,note_off,,96,0,2,,,,,,0,81,64
315264,note_on,,0,0,2,,,,,,0,72,92
315360,note_off,,96,0,2,,,,,,0,72,64
315360,note_on,,0,0,2,,,,,,0,81,92
315456,note_off,,192,0,3,,,,,,0,57,64
315456,note_on,,0,0,3,,,,,,0,57,102
315456,note_on,,0,0,1,,,,,,0,74,92
315456,note_off,,576,0,1,,,,,,0,84,64
315456,note_off,,96,0,2,,,,,,0,81,64
315456,note_on,,0,0,2,,,,,,0,72,92
315552,note_off,,96,0,2,,,,,,0,72,64
315552,note_on,,0,0,2,,,,,,0,81,92
315648,note_on,,0,0,2,,,,,,0,72,92
315648,note_on,,0,0,1,,,,,,0,78,92
315648,note_off,,192,0,1,,,,,,0,74,64
315648,note_on,,0,0,3,,,,,,0,57,102
315648,note_off,,192,0,3,,,,,,0,57,64
315648,note_off,,96,0,2,,,,,,0,81,64
315744,note_on,,0,0,2,,,,,,0,81,92
315744,note_off,,96,0,2,,,,,,0,72,64
315840,note_off,,96,0,2,,,,,,0,81,64
315840,note_on,,0,0,2,,,,,,0,72,92
315840,note_on,,0,0,3,,,,,,0,57,102
315840,note_off,,192,0,3,,,,,,0,57,64
315840,note_off,,192,0,1,,,,,,0,78,64
315840,note_on,,0,0,1,,,,,,0,81,92
315936,note_on,,0,0,1,,,,,,0,79,92
315936,note_off,,96,0,1,,,,,,0,81,64
315936,note_on,,0,0,2,,,,,,0,81,92
315936,note_off,,96,0,2,,,,,,0,72,64
316032,note_off,,96,0,1,,,,,,0,79,64
316032,note_on,,0,0,1,,,,,,0,81,92
316032,note_on,,0,0,3,,,,,,0,62,102
316032,note_off,,192,0,3,,,,,,0,57,64
316032,note_on,,0,0,2,,,,,,0,70,92
316032,note_on,,0,0,3,,,,,,0,55,102
316032,note_off,,96,0,2,,,,,,0,81,64
316128,note_on,,0,0,2,,,,,,0,81,92
316128,note_off,,96,0,2,,,,,,0,70,64
316224,note_off,,192,0,1,,,,,,0,81,64
316224,note_on,,0,0,1,,,,,,0,82,92
316224,note_on,,0,0,2,,,,,,0,70,92
316224,note_off,,96,0,2,,,,,,0,81,64
316224,note_off,,192,0,3,,,,,,0,62,64
316224,note_on,,0,0,3,,,,,,0,62,102
316320,note_on,,0,0,2,,,,,,0,81,92
316320,note_off,,96,0,2,,,,,,0,70,64
316320,note_on,,0,0,1,,,,,,0,84,92
316320,note_off,,96,0,1,,,,,,0,82,64
316416,note_off,,0,0,3,,,,,,0,55,64
316416,note_on,,0,0,1,,,,,,0,74,92
316416,note_on,,0,0,3,,,,,,0,62,102
316416,note_off,,96,0,2,,,,,,0,81,64
316416,note_on,,0,0,2,,,,,,0,70,92
316416,note_off,,192,0,3,,,,,,0,62,64
316416,note_off,,96,0,1,,,,,,0,84,64
316512,note_off,,96,0,2,,,,,,0,70,64
316512,note_on,,0,0,2,,,,,,0,81,92
316608,note_on,,0,0,2,,,,,,0,70,92
316608,note_on,,0,0,1,,,,,,0,84,92
316608,note_on,,0,0,3,,,,,,0,62,102
316608,note_off,,192,0,3,,,,,,0,62,64
316608,note_off,,192,0,1,,,,,,0,74,64
316608,note_off,,96,0,2,,,,,,0,81,64
316704,note_on,,0,0,2,,,,,,0,81,92
316704,note_off,,96,0,2,,,,,,0,70,64
316800,note_off,,96,0,2,,,,,,0,81,64
316800,note_on,,0,0,1,,,,,,0,82,92
316800,note_off,,192,0,1,,,,,,0,84,64
316800,note_on,,0,0,2,,,,,,0,70,92
316800,note_on,,0,0,3,,,,,,0,62,102
316800,note_off,,192,0,3,,,,,,0,62,64
316848,note_off,,48,0,1,,,,,,0,82,64
316848,note_on,,0,0,1,,,,,,0,84,92
316896,note_off,,48,0,1,,,,,,0,84,64
316896,note_on,,0,0,1,,,,,,0,81,92
316896,note_on,,0,0,2,,,,,,0,81,92
316896,note_off,,96,0,2,,,,,,0,70,64
316992,note_on,,0,0,1,,,,,,0,82,92
316992,note_off,,96,0,1,,,,,,0,81,64
316992,note_on,,0,0,3,,,,,,0,62,102
316992,note_on,,0,0,2,,,,,,0,70,92
316992,note_off,,96,0,2,,,,,,0,81,64
316992,note_off,,192,0,3,,,,,,0,62,64
317088,note_off,,96,0,2,,,,,,0,70,64
317088,note_on,,0,0,2,,,,,,0,81,92
317184,note_on,,0,0,3,,,,,,0,62,102
317184,note_off,,192,0,3,,,,,,0,62,64
317184,note_on,,0,0,3,,,,,,0,43,102
317184,note_off,,192,0,1,,,,,,0,82,64
317184,note_on,,0,0,1,,,,,,0,82,92
317184,note_off,,96,0,2,,,,,,0,81,64
317184,note_on,,0,0,2,,,,,,0,70,92
317280,note_off,,96,0,2,,,,,,0,70,64
317280,note_on,,0,0,2,,,,,,0,79,92
317376,note_off,,96,0,2,,,,,,0,79,64
317376,note_on,,0,0,2,,,,,,0,70,92
317376,note_on,,0,0,3,,,,,,0,62,102
317376,note_off,,192,0,3,,,,,,0,62,64
317472,note_off,,96,0,2,,,,,,0,70,64
317472,note_on,,0,0,2,,,,,,0,79,92
317568,note_off,,96,0,2,,,,,,0,79,64
317568,note_off,,192,0,3,,,,,,0,62,64
317568,note_on,,0,0,3,,,,,,0,62,102
317568,note_on,,0,0,2,,,,,,0,70,92
317568,note_off,,0,0,3,,,,,,0,43,64
317664,note_on,,0,0,2,,,,,,0,79,92
317664,note_off,,96,0,2,,,,,,0,70,64
317760,note_off,,96,0,2,,,,,,0,79,64
317760,note_on,,0,0,2,,,,,,0,70,92
317760,note_on,,0,0,3,,,,,,0,62,102
317760,note_off,,192,0,3,,,,,,0,62,64
317856,note_on,,0,0,2,,,,,,0,79,92
317856,note_off,,96,0,2,,,,,,0,70,64
317952,note_off,,192,0,3,,,,,,0,62,64
317952,note_on,,0,0,3,,,,,,0,62,102
317952,note_off,,96,0,2,,,,,,0,79,64
317952,note_on,,0,0,2,,,,,,0,70,92
318048,note_off,,96,0,2,,,,,,0,70,64
318048,note_on,,0,0,2,,,,,,0,79,92
318144,note_off,,192,0,3,,,,,,0,62,64
318144,note_on,,0,0,3,,,,,,0,62,102
318144,note_off,,96,0,2,,,,,,0,79,64
318144,note_on,,0,0,2,,,,,,0,70,92
318240,note_on,,0,0,2,,,,,,0,79,92
318240,note_off,,96,0,2,,,,,,0,70,64
318336,note_on,,0,0,2,,,,,,0,69,92
318336,note_on,,0,0,3,,,,,,0,54,102
318336,note_on,,0,0,3,,,,,,0,62,102
318336,note_off,,192,0,3,,,,,,0,62,64
318336,note_off,,96,0,2,,,,,,0,79,64
318336,note_off,,1152,0,1,,,,,,0,82,64
318432,note_off,,96,0,2,,,,,,0,69,64
318432,note_on,,0,0,2,,,,,,0,84,92
318528,note_on,,0,0,2,,,,,,0,82,92
318528,note_off,,192,0,3,,,,,,0,62,64
318528,note_off,,96,0,2,,,,,,0,84,64
318528,note_on,,0,0,3,,,,,,0,62,102
318624,note_off,,96,0,2,,,,,,0,82,64
318624,note_on,,0,0,2,,,,,,0,84,92
318720,note_off,,0,0,3,,,,,,0,54,64
318720,note_off,,96,0,2,,,,,,0,84,64
318720,note_on,,0,0,3,,,,,,0,62,102
318720,note_on,,0,0,2,,,,,,0,81,92
318720,note_off,,192,0,3,,,,,,0,62,64
318816,note_on,,0,0,2,,,,,,0,84,92
318816,note_off,,96,0,2,,,,,,0,81,64
318912,note_off,,192,0,3,,,,,,0,62,64
318912,note_on,,0,0,2,,,,,,0,79,92
318912,note_off,,96,0,2,,,,,,0,84,64
318912,note_on,,0,0,3,,,,,,0,62,102
319008,note_off,,96,0,2,,,,,,0,79,64
319008,note_on,,0,0,2,,,,,,0,84,92
319104,note_on,,0,0,2,,,,,,0,78,92
319104,note_off,,96,0,2,,,,,,0,84,64
319104,note_off,,192,0,3,,,,,,0,62,64
319104,note_on,,0,0,3,,,,,,0,62,102
319200,note_off,,96,0,2,,,,,,0,78,64
319200,note_on,,0,0,2,,,,,,0,84,92
319296,note_on,,0,0,3,,,,,,0,62,102
319296,note_off,,96,0,2,,,,,,0,84,64
319296,note_on,,0,0,2,,,,,,0,76,92
319296,note_off,,192,0,3,,,,,,0,62,64
319392,note_off,,96,0,2,,,,,,0,76,64
319392,note_on,,0,0,2,,,,,,0,84,92
319488,note_on,,0,0,3,,,,,,0,50,102
319488,note_on,,1152,0,1,,,,,,0,74,92
319488,note_off,,192,0,3,,,,,,0,62,64
319488,note_on,,0,0,2,,,,,,0,78,92
319488,note_off,,96,0,2,,,,,,0,84,64
319488,note_on,,0,0,3,,,,,,0,62,102
319584,note_on,,0,0,2,,,,,,0,84,92
319584,note_off,,96,0,2,,,,,,0,78,64
319680,note_off,,192,0,3,,,,,,0,62,64
319680,note_off,,96,0,2,,,,,,0,84,64
319680,note_on,,0,0,2,,,,,,0,78,92
319680,note_on,,0,0,3,,,,,,0,62,102
319776,note_off,,96,0,2,,,,,,0,78,64
319776,note_on,,0,0,2,,,,,,0,84,92
319872,note_on,,0,0,1,,,,,,0,78,92
319872,note_on,,0,0,2,,,,,,0,78,92
319872,note_off,,96,0,2,,,,,,0,84,64
319872,note_off,,192,0,3,,,,,,0,62,64
319872,note_on,,0,0,3,,,,,,0,62,102
319872,note_off,,0,0,3,,,,,,0,50,64
319872,note_off,,384,0,1,,,,,,0,74,64
319968,note_off,,96,0,2,,,,,,0,78,64
319968,note_on,,0,0,2,,,,,,0,84,92
320064,note_off,,192,0,3,,,,,,0,62,64
320064,note_on,,0,0,3,,,,,,0,62,102
320064,note_off,,96,0,2,,,,,,0,84,64
320064,note_on,,0,0,2,,,,,,0,78,92
320160,note_off,,96,0,2,,,,,,0,78,64
320160,note_on,,0,0,2,,,,,,0,84,92
320256,note_on,,0,0,1,,,,,,0,81,92
320256,note_on,,0,0,2,,,,,,0,78,92
320256,note_off,,96,0,2,,,,,,0,84,64
320256,note_off,,384,0,1,,,,,,0,78,64
320256,note_off,,192,0,3,,,,,,0,62,64
320256,note_on,,0,0,3,,,,,,0,62,102
320352,note_on,,0,0,2,,,,,,0,84,92
320352,note_off,,96,0,2,,,,,,0,78,64
320448,note_on,,0,0,2,,,,,,0,78,92
320448,note_off,,96,0,2,,,,,,0,84,64
320448,note_off,,192,0,3,,,,,,0,62,64
320448,note_on,,0,0,3,,,,,,0,62,102
320544,note_on,,0,0,2,,,,,,0,84,92
320544,note_off,,96,0,2,,,,,,0,78,64
320640,note_on,,0,0,3,,,,,,0,55,102
320640,note_on,,0,0,3,,,,,,0,62,102
320640,note_on,,0,0,2,,,,,,0,79,92
320640,note_on,,0,0,1,,,,,,0,84,92
320640,note_off,,96,0,2,,,,,,0,84,64
320640,note_off,,192,0,3,,,,,,0,62,64
320640,note_off,,384,0,1,,,,,,0,81,64
320736,note_off,,96,0,2,,,,,,0,79,64
320736,note_on,,0,0,2,,,,,,0,84,92
320832,note_off,,96,0,2,,,,,,0,84,64
320832,note_on,,0,0,2,,,,,,0,79,92
320832,note_on,,0,0,3,,,,,,0,62,102
320832,note_off,,192,0,3,,,,,,0,62,64
320928,note_off,,96,0,2,,,,,,0,79,64
320928,note_on,,0,0,2,,,,,,0,84,92
321024,note_off,,192,0,3,,,,,,0,62,64
321024,note_off,,96,0,2,,,,,,0,84,64
321024,note_on,,0,0,2,,,,,,0,79,92
321024,note_off,,0,0,3,,,,,,0,55,64
321024,note_on,,0,0,3,,,,,,0,62,102
321120,note_on,,0,0,2,,,,,,0,84,92
321120,note_off,,96,0,2,,,,,,0,79,64
321216,note_on,,0,0,2,,,,,,0,79,92
321216,note_off,,96,0,2,,,,,,0,84,64
321216,note_on,,0,0,3,,,,,,0,62,102
321216,note_off,,192,0,3,,,,,,0,62,64
321312,note_off,,96,0,2,,,,,,0,79,64
321312,note_on,,0,0,2,,,,,,0,84,92
321408,note_off,,96,0,2,,,,,,0,84,64
321408,note_on,,0,0,2,,,,,,0,79,92
321408,note_on,,0,0,3,,,,,,0,62,102
321408,note_off,,192,0,3,,,,,,0,62,64
321504,note_on,,0,0,2,,,,,,0,84,92
321504,note_off,,96,0,2,,,,,,0,79,64
321600,note_on,,0,0,2,,,,,,0,79,92
321600,note_off,,96,0,2,,,,,,0,84,64
321600,note_on,,0,0,3,,,,,,0,62,102
321600,note_off,,192,0,3,,,,,,0,62,64
321696,note_on,,0,0,2,,,,,,0,84,92
321696,note_off,,96,0,2,,,,,,0,79,64
321792,note_on,,0,0,3,,,,,,0,43,102
321792,note_off,,192,0,3,,,,,,0,62,64
321792,note_on,,0,0,3,,,,,,0,62,102
321792,note_on,,0,0,1,,,,,,0,71,92
321792,note_off,,96,0,2,,,,,,0,84,64
321792,note_off,,1152,0,1,,,,,,0,84,64
321792,note_on,,0,0,2,,,,,,0,79,92
321888,note_off,,96,0,2,,,,,,0,79,64
321888,note_on,,0,0,2,,,,,,0,83,92
321984,note_off,,96,0,2,,,,,,0,83,64
321984,note_off,,192,0,3,,,,,,0,62,64
321984,note_on,,0,0,3,,,,,,0,62,102
321984,note_on,,0,0,2,,,,,,0,79,92
322080,note_on,,0,0,2,,,,,,0,83,92
322080,note_off,,96,0,2,,,,,,0,79,64
322176,note_off,,96,0,2,,,,,,0,83,64
322176,note_off,,192,0,3,,,,,,0,62,64
322176,note_off,,0,0,3,,,,,,0,43,64
322176,note_on,,0,0,3,,,,,,0,62,102
322176,note_on,,0,0,1,,,,,,0,74,92
322176,note_off,,384,0,1,,,,,,0,71,64
322176,note_on,,0,0,2,,,,,,0,79,92
322272,note_on,,0,0,2,,,,,,0,83,92
322272,note_off,,96,0,2,,,,,,0,79,64
322368,note_on,,0,0,3,,,,,,0,62,102
322368,note_on,,0,0,2,,,,,,0,79,92
322368,note_off,,96,0,2,,,,,,0,83,64
322368,note_off,,192,0,3,,,,,,0,62,64
322464,note_on,,0,0,2,,,,,,0,83,92
322464,note_off,,96,0,2,,,,,,0,79,64
322560,note_on,,0,0,2,,,,,,0,79,92
322560,note_on,,0,0,1,,,,,,0,79,92
322560,note_off,,384,0,1,,,,,,0,74,64
322560,note_off,,192,0,3,,,,,,0,62,64
322560,note_on,,0,0,3,,,,,,0,62,102
322560,note_off,,96,0,2,,,,,,0,83,64
322656,note_on,,0,0,2,,,,,,0,83,92
322656,note_off,,96,0,2,,,,,,0,79,64
322752,note_on,,0,0,3,,,,,,0,62,102
322752,note_off,,192,0,3,,,,,,0,62,64
322752,note_off,,96,0,2,,,,,,0,83,64
322752,note_on,,0,0,2,,,,,,0,79,92
322848,note_off,,96,0,2,,,,,,0,79,64
322848,note_on,,0,0,2,,,,,,0,83,92
322944,note_on,,0,0,3,,,,,,0,55,102
322944,note_on,,0,0,3,,,,,,0,43,102
322944,note_off,,192,0,3,,,,,,0,62,64
322944,note_off,,96,0,2,,,,,,0,83,64
322944,note_on,,0,0,2,,,,,,0,77,92
322944,note_on,,0,0,1,,,,,,0,83,92
322944,note_off,,384,0,1,,,,,,0,79,64
323040,note_off,,96,0,2,,,,,,0,77,64
323040,note_on,,0,0,2,,,,,,0,83,92
323136,note_off,,96,0,2,,,,,,0,83,64
323136,note_on,,0,0,3,,,,,,0,55,102
323136,note_off,,192,0,3,,,,,,0,55,64
323136,note_on,,0,0,2,,,,,,0,77,92
323232,note_off,,288,0,1,,,,,,0,83,64
323232,note_on,,0,0,1,,,,,,0,81,92
323232,note_on,,0,0,2,,,,,,0,83,92
323232,note_off,,96,0,2,,,,,,0,77,64
323328,note_off,,96,0,1,,,,,,0,81,64
323328,note_on,,0,0,3,,,,,,0,55,102
323328,note_off,,0,0,3,,,,,,0,43,64
323328,note_off,,192,0,3,,,,,,0,55,64
323328,note_on,,0,0,2,,,,,,0,77,92
323328,note_on,,0,0,1,,,,,,0,79,92
323328,note_off,,96,0,2,,,,,,0,83,64
323424,note_on,,0,0,2,,,,,,0,83,92
323424,note_off,,96,0,2,,,,,,0,77,64
323520,note_off,,192,0,3,,,,,,0,55,64
323520,note_on,,0,0,3,,,,,,0,55,102
323520,note_on,,0,0,2,,,,,,0,77,92
323520,note_off,,96,0,2,,,,,,0,83,64
323616,note_on,,0,0,2,,,,,,0,83,92
323616,note_off,,288,0,1,,,,,,0,79,64
323616,note_on,,0,0,1,,,,,,0,77,92
323616,note_off,,96,0,2,,,,,,0,77,64
323712,note_off,,96,0,1,,,,,,0,77,64
323712,note_on,,0,0,2,,,,,,0,77,92
323712,note_off,,96,0,2,,,,,,0,83,64
323712,note_off,,192,0,3,,,,,,0,55,64
323712,note_on,,0,0,3,,,,,,0,55,102
323712,note_on,,0,0,1,,,,,,0,76,92
323808,note_on,,0,0,2,,,,,,0,83,92
323808,note_off,,96,0,2,,,,,,0,77,64
323904,note_on,,0,0,1,,,,,,0,77,92
323904,note_on,,0,0,2,,,,,,0,77,92
323904,note_off,,192,0,1,,,,,,0,76,64
323904,note_on,,0,0,3,,,,,,0,55,102
323904,note_off,,96,0,2,,,,,,0,83,64
323904,note_off,,192,0,3,,,,,,0,55,64
324000,note_on,,0,0,1,,,,,,0,74,92
324000,note_off,,96,0,1,,,,,,0,77,64
324000,note_on,,0,0,2,,,,,,0,83,92
324000,note_off,,96,0,2,,,,,,0,77,64
324096,note_on,,0,0,2,,,,,,0,76,92
324096,note_off,,96,0,2,,,,,,0,83,64
324096,note_on,,0,0,3,,,,,,0,55,102
324096,note_off,,192,0,3,,,,,,0,55,64
324096,note_off,,96,0,1,,,,,,0,74,64
324096,note_on,,0,0,3,,,,,,0,48,102
324096,note_on,,0,0,1,,,,,,0,76,92
324192,note_on,,0,0,2,,,,,,0,84,92
324192,note_off,,96,0,2,,,,,,0,76,64
324288,note_off,,192,0,3,,,,,,0,55,64
324288,note_on,,0,0,3,,,,,,0,55,102
324288,note_off,,96,0,2,,,,,,0,84,64
324288,note_off,,192,0,1,,,,,,0,76,64
324288,note_on,,0,0,1,,,,,,0,72,92
324288,note_on,,0,0,2,,,,,,0,76,92
324384,note_off,,96,0,2,,,,,,0,76,64
324384,note_on,,0,0,2,,,,,,0,84,92
324480,note_off,,0,0,3,,,,,,0,48,64
324480,note_on,,0,0,2,,,,,,0,76,92
324480,note_off,,96,0,2,,,,,,0,84,64
324480,note_off,,192,0,3,,,,,,0,55,64
324480,note_on,,0,0,3,,,,,,0,55,102
324480,note_off,,192,0,1,,,,,,0,72,64
324480,note_on,,0,0,1,,,,,,0,76,92
324576,note_off,,96,0,2,,,,,,0,76,64
324576,note_on,,0,0,2,,,,,,0,84,92
324672,note_off,,192,0,3,,,,,,0,55,64
324672,note_on,,0,0,3,,,,,,0,55,102
324672,note_off,,96,0,2,,,,,,0,84,64
324672,note_off,,192,0,1,,,,,,0,76,64
324672,note_on,,0,0,2,,,,,,0,76,92
324672,note_on,,0,0,1,,,,,,0,79,92
324768,note_off,,96,0,2,,,,,,0,76,64
324768,note_on,,0,0,2,,,,,,0,84,92
324864,note_on,,0,0,2,,,,,,0,76,92
324864,note_on,,0,0,3,,,,,,0,55,102
324864,note_off,,96,0,2,,,,,,0,84,64
324864,note_off,,192,0,3,,,,,,0,55,64
324864,note_off,,192,0,1,,,,,,0,79,64
324864,note_on,,0,0,1,,,,,,0,84,92
324960,note_off,,96,0,2,,,,,,0,76,64
324960,note_on,,0,0,2,,,,,,0,84,92
325056,note_off,,96,0,2,,,,,,0,84,64
325056,note_on,,0,0,2,,,,,,0,76,92
325056,note_off,,192,0,1,,,,,,0,84,64
325056,note_off,,192,0,3,,,,,,0,55,64
325056,note_on,,0,0,3,,,,,,0,55,102
325056,note_on,,0,0,1,,,,,,0,79,92
325152,note_on,,0,0,2,,,,,,0,84,92
325152,note_off,,96,0,2,,,,,,0,76,64
325248,note_off,,192,0,1,,,,,,0,79,64
325248,note_on,,0,0,1,,,,,,0,81,92
325248,note_off,,192,0,3,,,,,,0,55,64
325248,note_off,,96,0,2,,,,,,0,84,64
325248,note_on,,0,0,3,,,,,,0,43,102
325248,note_on,,0,0,3,,,,,,0,55,102
325248,note_on,,0,0,2,,,,,,0,74,92
325344,note_on,,0,0,2,,,,,,0,84,92
325344,note_off,,96,0,2,,,,,,0,74,64
325440,note_off,,96,0,2,,,,,,0,84,64
325440,note_on,,0,0,2,,,,,,0,74,92
325440,note_off,,192,0,3,,,,,,0,55,64
325440,note_on,,0,0,3,,,,,,0,55,102
325536,note_off,,96,0,2,,,,,,0,74,64
325536,note_on,,0,0,2,,,,,,0,84,92
325536,note_on,,0,0,1,,,,,,0,79,92
325536,note_off,,288,0,1,,,,,,0,81,64
325632,note_on,,0,0,1,,,,,,0,77,92
325632,note_off,,96,0,1,,,,,,0,79,64
325632,note_on,,0,0,3,,,,,,0,55,102
325632,note_off,,0,0,3,,,,,,0,43,64
325632,note_on,,0,0,2,,,,,,0,74,92
325632,note_off,,96,0,2,,,,,,0,84,64
325632,note_off,,192,0,3,,,,,,0,55,64
325728,note_off,,96,0,2,,,,,,0,74,64
325728,note_on,,0,0,2,,,,,,0,84,92
325824,note_on,,0,0,2,,,,,,0,74,92
325824,note_on,,0,0,3,,,,,,0,55,102
325824,note_off,,96,0,2,,,,,,0,84,64
325824,note_off,,192,0,3,,,,,,0,55,64
325920,note_off,,288,0,1,,,,,,0,77,64
325920,note_on,,0,0,2,,,,,,0,84,92
325920,note_off,,96,0,2,,,,,,0,74,64
325920,note_on,,0,0,1,,,,,,0,76,92
326016,note_on,,0,0,3,,,,,,0,55,102
326016,note_on,,0,0,1,,,,,,0,74,92
326016,note_off,,96,0,2,,,,,,0,84,64
326016,note_on,,0,0,2,,,,,,0,74,92
326016,note_off,,192,0,3,,,,,,0,55,64
326016,note_off,,96,0,1,,,,,,0,76,64
326112,note_off,,96,0,2,,,,,,0,74,64
326112,note_on,,0,0,2,,,,,,0,84,92
326208,note_off,,96,0,2,,,,,,0,84,64
326208,note_on,,0,0,2,,,,,,0,74,92
326208,note_on,,0,0,3,,,,,,0,55,102
326208,note_off,,192,0,3,,,,,,0,55,64
326304,note_on,,0,0,1,,,,,,0,72,92
326304,note_off,,288,0,1,,,,,,0,74,64
326304,note_on,,0,0,2,,,,,,0,84,92
326304,note_off,,96,0,2,,,,,,0,74,64
326400,note_on,,0,0,2,,,,,,0,74,92
326400,note_off,,96,0,1,,,,,,0,72,64
326400,note_on,,0,0,1,,,,,,0,71,92
326400,note_off,,96,0,2,,,,,,0,84,64
326400,note_off,,192,0,3,,,,,,0,55,64
326400,note_on,,0,0,3,,,,,,0,55,102
326400,note_on,,0,0,3,,,,,,0,43,102
326496,note_on,,0,0,2,,,,,,0,83,92
326496,note_off,,96,0,2,,,,,,0,74,64
326592,note_off,,192,0,3,,,,,,0,55,64
326592,note_on,,0,0,2,,,,,,0,74,92
326592,note_on,,0,0,3,,,,,,0,55,102
326592,note_off,,96,0,2,,,,,,0,83,64
326688,note_on,,0,0,2,,,,,,0,83,92
326688,note_on,,0,0,1,,,,,,0,79,92
326688,note_off,,288,0,1,,,,,,0,71,64
326688,note_off,,96,0,2,,,,,,0,74,64
326784,note_off,,192,0,3,,,,,,0,55,64
326784,note_on,,0,0,2,,,,,,0,74,92
326784,note_off,,0,0,3,,,,,,0,43,64
326784,note_off,,96,0,2,,,,,,0,83,64
326784,note_off,,96,0,1,,,,,,0,79,64
326784,note_on,,0,0,1,,,,,,0,79,92
326784,note_on,,0,0,3,,,,,,0,55,102
326880,note_off,,96,0,2,,,,,,0,74,64
326880,note_on,,0,0,2,,,,,,0,83,92
326976,note_on,,0,0,3,,,,,,0,55,102
326976,note_off,,96,0,2,,,,,,0,83,64
326976,note_on,,0,0,2,,,,,,0,74,92
326976,note_off,,192,0,1,,,,,,0,79,64
326976,note_on,,0,0,1,,,,,,0,79,92
326976,note_off,,192,0,3,,,,,,0,55,64
327024,note_off,,48,0,1,,,,,,0,79,64
327024,note_on,,0,0,1,,,,,,0,77,92
327072,note_off,,96,0,2,,,,,,0,74,64
327072,note_off,,48,0,1,,,,,,0,77,64
327072,note_on,,0,0,2,,,,,,0,83,92
327072,note_on,,0,0,1,,,,,,0,76,92
327168,note_on,,0,0,1,,,,,,0,74,92
327168,note_on,,0,0,2,,,,,,0,74,92
327168,note_on,,0,0,3,,,,,,0,55,102
327168,note_off,,192,0,3,,,,,,0,55,64
327168,note_off,,96,0,2,,,,,,0,83,64
327168,note_off,,96,0,1,,,,,,0,76,64
327264,note_on,,0,0,2,,,,,,0,83,92
327264,note_off,,96,0,2,,,,,,0,74,64
327360,note_off,,192,0,1,,,,,,0,74,64
327360,note_on,,0,0,1,,,,,,0,76,92
327360,note_on,,0,0,2,,,,,,0,74,92
327360,note_off,,96,0,2,,,,,,0,83,64
327360,note_on,,0,0,3,,,,,,0,55,102
327360,note_off,,192,0,3,,,,,,0,55,64
327456,note_off,,96,0,1,,,,,,0,76,64
327456,note_on,,0,0,1,,,,,,0,77,92
327456,note_off,,96,0,2,,,,,,0,74,64
327456,note_on,,0,0,2,,,,,,0,83,92
327504,note_on,,0,0,1,,,,,,0,79,92
327504,note_off,,48,0,1,,,,,,0,77,64
327552,note_on,,0,0,3,,,,,,0,55,102
327552,note_off,,96,0,2,,,,,,0,83,64
327552,note_on,,0,0,2,,,,,,0,72,92
327552,note_on,,0,0,1,,,,,,0,76,92
327552,note_off,,48,0,1,,,,,,0,79,64
327552,note_off,,192,0,3,,,,,,0,55,64
327552,note_on,,0,0,3,,,,,,0,48,102
327744,note_on,,0,0,1,,,,,,0,72,92
327744,note_off,,192,0,1,,,,,,0,76,64
327744,note_off,,192,0,3,,,,,,0,55,64
327744,note_off,,0,0,3,,,,,,0,48,64
327744,note_on,,0,0,2,,,,,,0,60,92
327744,note_off,,192,0,2,,,,,,0,72,64
327936,note_on,,0,0,2,,,,,,0,59,92
327936,note_off,,192,0,2,,,,,,0,60,64
327936,note_off,,192,0,1,,,,,,0,72,64
327936,note_on,,0,0,1,,,,,,0,71,92
328128,note_on,,0,0,2,,,,,,0,57,92
328128,note_on,,0,0,1,,,,,,0,69,92
328128,note_off,,192,0,2,,,,,,0,59,64
328128,note_off,,192,0,1,,,,,,0,71,64
328320,note_on,,0,0,1,,,,,,0,67,92
328320,note_off,,192,0,1,,,,,,0,69,64
328320,note_on,,0,0,2,,,,,,0,55,92
328320,note_off,,192,0,2,,,,,,0,57,64
328512,note_off,,192,0,1,,,,,,0,67,64
328512,note_on,,0,0,1,,,,,,0,65,92
328512,note_on,,0,0,2,,,,,,0,53,92
328512,note_off,,192,0,2,,,,,,0,55,64
328704,note_on,,0,0,1,,,,,,0,64,92
328704,note_off,,192,0,1,,,,,,0,65,64
328704,note_on,,0,0,2,,,,,,0,52,92
328704,note_off,,192,0,2,,,,,,0,53,64
328896,note_off,,192,0,1,,,,,,0,64,64
328896,note_on,,0,0,2,,,,,,0,57,92
328896,note_off,,192,0,2,,,,,,0,52,64
328896,note_on,,0,0,1,,,,,,0,69,92
328896,note_on,,1152,0,3,,,,,,0,57,102
329088,note_off,,192,0,3,,,,,,0,57,64
329088,note_on,,0,0,1,,,,,,0,67,92
329088,note_off,,192,0,2,,,,,,0,57,64
329088,note_on,,0,0,2,,,,,,0,55,92
329088,note_on,,0,0,3,,,,,,0,55,102
329088,note_off,,192,0,1,,,,,,0,69,64
329184,note_off,,96,0,2,,,,,,0,55,64
329184,note_on,,0,0,2,,,,,,0,57,92
329280,note_off,,192,0,1,,,,,,0,67,64
329280,note_on,,0,0,1,,,,,,0,65,92
329280,note_on,,0,0,3,,,,,,0,53,102
329280,note_off,,192,0,3,,,,,,0,55,64
329280,note_off,,96,0,2,,,,,,0,57,64
329280,note_on,,0,0,2,,,,,,0,53,92
329376,note_off,,96,0,2,,,,,,0,53,64
329376,note_on,,0,0,2,,,,,,0,55,92
329472,note_off,,96,0,2,,,,,,0,55,64
329472,note_on,,0,0,2,,,,,,0,52,92
329472,note_off,,192,0,3,,,,,,0,53,64
329472,note_off,,192,0,1,,,,,,0,65,64
329472,note_on,,0,0,1,,,,,,0,64,92
329472,note_on,,0,0,3,,,,,,0,52,102
329568,note_on,,0,0,2,,,,,,0,53,92
329568,note_off,,96,0,2,,,,,,0,52,64
329664,note_on,,0,0,3,,,,,,0,50,102
329664,note_off,,192,0,3,,,,,,0,52,64
329664,note_on,,0,0,2,,,,,,0,50,92
329664,note_off,,96,0,2,,,,,,0,53,64
329664,note_off,,192,0,1,,,,,,0,64,64
329664,note_on,,0,0,1,,,,,,0,62,92
329760,note_off,,96,0,2,,,,,,0,50,64
329760,note_on,,0,0,2,,,,,,0,52,92
329856,note_on,,0,0,3,,,,,,0,48,102
329856,note_on,,0,0,1,,,,,,0,60,92
329856,note_off,,96,0,2,,,,,,0,52,64
329856,note_on,,0,0,2,,,,,,0,52,92
329856,note_off,,192,0,3,,,,,,0,50,64
329856,note_off,,192,0,1,,,,,,0,62,64
330048,note_off,,192,0,3,,,,,,0,48,64
330048,note_on,,0,0,1,,,,,,0,69,92
330048,note_off,,192,0,1,,,,,,0,60,64
330048,note_off,,192,0,2,,,,,,0,52,64
330048,note_on,,0,0,2,,,,,,0,57,92
330240,note_on,,0,0,1,,,,,,0,67,92
330240,note_off,,192,0,1,,,,,,0,69,64
330240,note_off,,192,0,2,,,,,,0,57,64
330240,note_on,,0,0,2,,,,,,0,55,92
330432,note_off,,192,0,2,,,,,,0,55,64
330432,note_off,,192,0,1,,,,,,0,67,64
330432,note_on,,0,0,1,,,,,,0,65,92
330432,note_on,,0,0,2,,,,,,0,53,92
330624,note_off,,192,0,1,,,,,,0,65,64
330624,note_off,,192,0,2,,,,,,0,53,64
330624,note_on,,0,0,2,,,,,,0,52,92
330624,note_on,,0,0,1,,,,,,0,64,92
330816,note_off,,192,0,2,,,,,,0,52,64
330816,note_on,,0,0,2,,,,,,0,50,92
330816,note_off,,192,0,1,,,,,,0,64,64
330816,note_on,,0,0,1,,,,,,0,62,92
331008,note_off,,192,0,2,,,,,,0,50,64
331008,note_on,,0,0,2,,,,,,0,48,92
331008,note_on,,0,0,1,,,,,,0,60,92
331008,note_off,,192,0,1,,,,,,0,62,64
331200,note_off,,192,0,1,,,,,,0,60,64
331200,note_off,,192,0,2,,,,,,0,48,64
331200,note_on,,0,0,1,,,,,,0,65,92
331200,note_on,,1152,0,3,,,,,,0,53,102
331200,note_on,,0,0,2,,,,,,0,53,92
331392,note_off,,192,0,1,,,,,,0,65,64
331392,note_off,,192,0,3,,,,,,0,53,64
331392,note_on,,0,0,3,,,,,,0,52,102
331392,note_on,,0,0,2,,,,,,0,52,92
331392,note_off,,192,0,2,,,,,,0,53,64
331392,note_on,,0,0,1,,,,,,0,64,92
331488,note_on,,0,0,2,,,,,,0,53,92
331488,note_off,,96,0,2,,,,,,0,52,64
331584,note_off,,192,0,1,,,,,,0,64,64
331584,note_on,,0,0,1,,,,,,0,62,92
331584,note_on,,0,0,3,,,,,,0,50,102
331584,note_off,,192,0,3,,,,,,0,52,64
331584,note_off,,96,0,2,,,,,,0,53,64
331584,note_on,,0,0,2,,,,,,0,50,92
331680,note_off,,96,0,2,,,,,,0,50,64
331680,note_on,,0,0,2,,,,,,0,52,92
331776,note_off,,192,0,3,,,,,,0,50,64
331776,note_on,,0,0,3,,,,,,0,48,102
331776,note_off,,192,0,1,,,,,,0,62,64
331776,note_on,,0,0,1,,,,,,0,60,92
331776,note_off,,96,0,2,,,,,,0,52,64
331776,note_on,,0,0,2,,,,,,0,48,92
331872,note_off,,96,0,2,,,,,,0,48,64
331872,note_on,,0,0,2,,,,,,0,50,92
331968,note_off,,96,0,2,,,,,,0,50,64
331968,note_on,,0,0,2,,,,,,0,59,92
331968,note_on,,0,0,2,,,,,,0,47,92
331968,note_off,,192,0,1,,,,,,0,60,64
331968,note_on,,0,0,3,,,,,,0,47,102
331968,note_off,,192,0,3,,,,,,0,48,64
332064,note_off,,96,0,2,,,,,,0,47,64
332064,note_on,,0,0,2,,,,,,0,48,92
332160,note_on,,0,0,2,,,,,,0,57,92
332160,note_off,,96,0,2,,,,,,0,48,64
332160,note_off,,192,0,3,,,,,,0,47,64
332160,note_off,,0,0,2,,,,,,0,59,64
332160,note_on,,0,0,3,,,,,,0,45,102
332160,note_on,,0,0,2,,,,,,0,45,92
332256,note_on,,288,0,1,,,,,,0,71,92
332352,note_off,,96,0,1,,,,,,0,71,64
332352,note_on,,0,0,1,,,,,,0,72,92
332448,note_off,,96,0,1,,,,,,0,72,64
332448,note_on,,0,0,1,,,,,,0,74,92
332544,note_off,,384,0,3,,,,,,0,45,64
332544,note_off,,96,0,1,,,,,,0,74,64
332544,note_on,,0,0,1,,,,,,0,72,92
332544,note_on,,0,0,1,,,,,,0,76,92
332544,note_on,,0,0,3,,,,,,0,57,102
332544,note_off,,384,0,2,,,,,,0,45,64
332544,note_off,,0,0,2,,,,,,0,57,64
332640,note_off,,96,0,1,,,,,,0,76,64
332640,note_off,,0,0,1,,,,,,0,72,64
332640,note_on,,96,0,2,,,,,,0,69,92
332640,note_on,,0,0,2,,,,,,0,72,92
332736,note_off,,96,0,2,,,,,,0,72,64
332736,note_off,,0,0,2,,,,,,0,69,64
332736,note_on,,0,0,2,,,,,,0,69,92
332736,note_on,,0,0,2,,,,,,0,72,92
332832,note_off,,96,0,2,,,,,,0,72,64
332832,note_off,,0,0,2,,,,,,0,69,64
332832,note_on,,192,0,1,,,,,,0,72,92
332832,note_on,,0,0,1,,,,,,0,76,92
332928,note_on,,0,0,1,,,,,,0,72,92
332928,note_on,,0,0,3,,,,,,0,57,102
332928,note_on,,0,0,1,,,,,,0,76,92
332928,note_off,,96,0,1,,,,,,0,76,64
332928,note_off,,384,0,3,,,,,,0,57,64
332928,note_off,,0,0,1,,,,,,0,72,64
333024,note_off,,96,0,1,,,,,,0,76,64
333024,note_off,,0,0,1,,,,,,0,72,64
333024,note_on,,192,0,2,,,,,,0,69,92
333024,note_on,,0,0,2,,,,,,0,72,92
333120,note_on,,0,0,2,,,,,,0,69,92
333120,note_off,,0,0,2,,,,,,0,69,64
333120,note_off,,96,0,2,,,,,,0,72,64
333120,note_on,,0,0,2,,,,,,0,72,92
333216,note_off,,96,0,2,,,,,,0,72,64
333216,note_on,,192,0,1,,,,,,0,72,92
333216,note_on,,0,0,1,,,,,,0,76,92
333216,note_off,,0,0,2,,,,,,0,69,64
333312,note_off,,384,0,3,,,,,,0,57,64
333312,note_on,,0,0,3,,,,,,0,50,102
333312,note_on,,0,0,1,,,,,,0,77,92
333312,note_off,,0,0,1,,,,,,0,72,64
333312,note_off,,96,0,1,,,,,,0,76,64
333312,note_on,,0,0,1,,,,,,0,74,92
333408,note_off,,96,0,1,,,,,,0,77,64
333408,note_off,,0,0,1,,,,,,0,74,64
333408,note_on,,192,0,2,,,,,,0,69,92
333408,note_on,,0,0,2,,,,,,0,74,92
333504,note_on,,0,0,2,,,,,,0,74,92
333504,note_off,,0,0,2,,,,,,0,69,64
333504,note_off,,96,0,2,,,,,,0,74,64
333504,note_on,,0,0,2,,,,,,0,69,92
333600,note_off,,96,0,2,,,,,,0,74,64
333600,note_off,,0,0,2,,,,,,0,69,64
333600,note_on,,192,0,1,,,,,,0,74,92
333600,note_on,,0,0,1,,,,,,0,77,92
333696,note_off,,384,0,3,,,,,,0,50,64
333696,note_on,,0,0,1,,,,,,0,77,92
333696,note_on,,0,0,3,,,,,,0,50,102
333696,note_on,,0,0,1,,,,,,0,74,92
333696,note_off,,0,0,1,,,,,,0,74,64
333696,note_off,,96,0,1,,,,,,0,77,64
333792,note_off,,0,0,1,,,,,,0,74,64
333792,note_on,,0,0,2,,,,,,0,74,92
333792,note_on,,192,0,2,,,,,,0,69,92
333792,note_off,,96,0,1,,,,,,0,77,64
333888,note_off,,0,0,2,,,,,,0,69,64
333888,note_on,,0,0,2,,,,,,0,69,92
333888,note_on,,0,0,2,,,,,,0,74,92
333888,note_off,,96,0,2,,,,,,0,74,64
333984,note_on,,0,0,1,,,,,,0,77,92
333984,note_off,,96,0,2,,,,,,0,74,64
333984,note_off,,0,0,2,,,,,,0,69,64
333984,note_on,,192,0,1,,,,,,0,74,92
334080,note_on,,0,0,1,,,,,,0,77,92
334080,note_on,,0,0,1,,,,,,0,74,92
334080,note_off,,0,0,1,,,,,,0,74,64
334080,note_off,,384,0,3,,,,,,0,50,64
334080,note_on,,0,0,3,,,,,,0,50,102
334080,note_off,,96,0,1,,,,,,0,77,64
334176,note_off,,96,0,1,,,,,,0,77,64
334176,note_on,,0,0,2,,,,,,0,74,92
334176,note_on,,192,0,2,,,,,,0,69,92
334176,note_off,,0,0,1,,,,,,0,74,64
334272,note_off,,0,0,2,,,,,,0,69,64
334272,note_on,,0,0,2,,,,,,0,74,92
334272,note_on,,0,0,2,,,,,,0,69,92
334272,note_off,,96,0,2,,,,,,0,74,64
334368,note_on,,0,0,1,,,,,,0,77,92
334368,note_on,,192,0,1,,,,,,0,74,92
334368,note_off,,0,0,2,,,,,,0,69,64
334368,note_off,,96,0,2,,,,,,0,74,64
334464,note_on,,0,0,3,,,,,,0,55,102
334464,note_off,,384,0,3,,,,,,0,50,64
334464,note_off,,0,0,1,,,,,,0,74,64
334464,note_on,,0,0,1,,,,,,0,71,92
334464,note_off,,96,0,1,,,,,,0,77,64
334464,note_on,,0,0,1,,,,,,0,74,92
334560,note_on,,192,0,2,,,,,,0,67,92
334560,note_on,,0,0,2,,,,,,0,71,92
334560,note_off,,96,0,1,,,,,,0,74,64
334560,note_off,,0,0,1,,,,,,0,71,64
334656,note_on,,0,0,2,,,,,,0,67,92
334656,note_on,,0,0,2,,,,,,0,71,92
334656,note_off,,96,0,2,,,,,,0,71,64
334656,note_off,,0,0,2,,,,,,0,67,64
334752,note_on,,192,0,1,,,,,,0,71,92
334752,note_off,,0,0,2,,,,,,0,67,64
334752,note_off,,96,0,2,,,,,,0,71,64
334752,note_on,,0,0,1,,,,,,0,74,92
334848,note_off,,384,0,3,,,,,,0,55,64
334848,note_on,,0,0,3,,,,,,0,55,102
334848,note_off,,0,0,1,,,,,,0,71,64
334848,note_on,,0,0,1,,,,,,0,71,92
334848,note_on,,0,0,1,,,,,,0,74,92
334848,note_off,,96,0,1,,,,,,0,74,64
334944,note_on,,0,0,2,,,,,,0,71,92
334944,note_on,,192,0,2,,,,,,0,67,92
334944,note_off,,0,0,1,,,,,,0,71,64
334944,note_off,,96,0,1,,,,,,0,74,64
335040,note_on,,0,0,2,,,,,,0,71,92
335040,note_on,,0,0,2,,,,,,0,67,92
335040,note_off,,0,0,2,,,,,,0,67,64
335040,note_off,,96,0,2,,,,,,0,71,64
335136,note_on,,192,0,1,,,,,,0,71,92
335136,note_off,,0,0,2,,,,,,0,67,64
335136,note_off,,96,0,2,,,,,,0,71,64
335136,note_on,,0,0,1,,,,,,0,74,92
335232,note_off,,96,0,1,,,,,,0,74,64
335232,note_off,,384,0,3,,,,,,0,55,64
335232,note_on,,0,0,3,,,,,,0,55,102
335232,note_off,,0,0,1,,,,,,0,71,64
335232,note_on,,0,0,1,,,,,,0,71,92
335232,note_on,,0,0,1,,,,,,0,74,92
335328,note_on,,0,0,2,,,,,,0,71,92
335328,note_on,,192,0,2,,,,,,0,67,92
335328,note_off,,96,0,1,,,,,,0,74,64
335328,note_off,,0,0,1,,,,,,0,71,64
335424,note_on,,0,0,2,,,,,,0,71,92
335424,note_on,,0,0,2,,,,,,0,67,92
335424,note_off,,0,0,2,,,,,,0,67,64
335424,note_off,,96,0,2,,,,,,0,71,64
335520,note_off,,0,0,2,,,,,,0,67,64
335520,note_off,,96,0,2,,,,,,0,71,64
335520,note_on,,192,0,1,,,,,,0,71,92
335520,note_on,,0,0,1,,,,,,0,74,92
335616,note_on,,0,0,3,,,,,,0,48,102
335616,note_off,,96,0,1,,,,,,0,74,64
335616,note_off,,384,0,3,,,,,,0,55,64
335616,note_off,,0,0,1,,,,,,0,71,64
335616,note_on,,0,0,1,,,,,,0,72,92
335616,note_on,,0,0,1,,,,,,0,76,92
335712,note_off,,96,0,1,,,,,,0,76,64
335712,note_on,,0,0,2,,,,,,0,72,92
335712,note_on,,192,0,2,,,,,,0,67,92
335712,note_off,,0,0,1,,,,,,0,72,64
335808,note_on,,0,0,2,,,,,,0,72,92
335808,note_off,,0,0,2,,,,,,0,67,64
335808,note_on,,0,0,2,,,,,,0,67,92
335808,note_off,,96,0,2,,,,,,0,72,64
335904,note_off,,0,0,2,,,,,,0,67,64
335904,note_off,,96,0,2,,,,,,0,72,64
335904,note_on,,192,0,1,,,,,,0,72,92
335904,note_on,,0,0,1,,,,,,0,76,92
336000,note_on,,0,0,3,,,,,,0,48,102
336000,note_off,,96,0,1,,,,,,0,76,64
336000,note_off,,384,0,3,,,,,,0,48,64
336000,note_on,,0,0,1,,,,,,0,76,92
336000,note_off,,0,0,1,,,,,,0,72,64
336000,note_on,,0,0,1,,,,,,0,72,92
336096,note_off,,96,0,1,,,,,,0,76,64
336096,note_off,,0,0,1,,,,,,0,72,64
336096,note_on,,192,0,2,,,,,,0,67,92
336096,note_on,,0,0,2,,,,,,0,72,92
336192,note_off,,96,0,2,,,,,,0,72,64
336192,note_off,,0,0,2,,,,,,0,67,64
336192,note_on,,0,0,2,,,,,,0,67,92
336192,note_on,,0,0,2,,,,,,0,72,92
336288,note_off,,96,0,2,,,,,,0,72,64
336288,note_off,,0,0,2,,,,,,0,67,64
336288,note_on,,0,0,1,,,,,,0,76,92
336288,note_on,,192,0,1,,,,,,0,72,92
336384,note_on,,0,0,3,,,,,,0,48,102
336384,note_off,,0,0,1,,,,,,0,72,64
336384,note_on,,0,0,1,,,,,,0,76,92
336384,note_on,,0,0,1,,,,,,0,72,92
336384,note_off,,96,0,1,,,,,,0,76,64
336384,note_off,,384,0,3,,,,,,0,48,64
336480,note_off,,96,0,1,,,,,,0,72,64
336480,note_on,,192,0,2,,,,,,0,67,92
336480,note_on,,0,0,2,,,,,,0,72,92
336480,note_off,,0,0,1,,,,,,0,76,64
336576,note_off,,96,0,2,,,,,,0,72,64
336576,note_off,,0,0,2,,,,,,0,67,64
336576,note_on,,0,0,2,,,,,,0,67,92
336576,note_on,,0,0,2,,,,,,0,72,92
336672,note_on,,192,0,1,,,,,,0,72,92
336672,note_off,,96,0,2,,,,,,0,72,64
336672,note_off,,0,0,2,,,,,,0,67,64
336672,note_on,,0,0,1,,,,,,0,76,92
336768,note_off,,0,0,1,,,,,,0,72,64
336768,note_on,,0,0,1,,,,,,0,69,92
336768,note_on,,0,0,1,,,,,,0,72,92
336768,note_off,,96,0,1,,,,,,0,76,64
336768,note_off,,384,0,3,,,,,,0,48,64
336768,note_on,,0,0,3,,,,,,0,53,102
336864,note_on,,192,0,2,,,,,,0,65,92
336864,note_off,,96,0,1,,,,,,0,72,64
336864,note_off,,0,0,1,,,,,,0,69,64
336864,note_on,,0,0,2,,,,,,0,69,92
336960,note_on,,0,0,2,,,,,,0,65,92
336960,note_off,,0,0,2,,,,,,0,65,64
336960,note_off,,96,0,2,,,,,,0,69,64
336960,note_on,,0,0,2,,,,,,0,69,92
337056,note_on,,192,0,1,,,,,,0,69,92
337056,note_on,,0,0,1,,,,,,0,72,92
337056,note_off,,0,0,2,,,,,,0,65,64
337056,note_off,,96,0,2,,,,,,0,69,64
337152,note_off,,96,0,1,,,,,,0,72,64
337152,note_on,,0,0,3,,,,,,0,53,102
337152,note_off,,384,0,3,,,,,,0,53,64
337152,note_on,,0,0,1,,,,,,0,72,92
337152,note_on,,0,0,1,,,,,,0,69,92
337152,note_off,,0,0,1,,,,,,0,69,64
337248,note_on,,0,0,2,,,,,,0,69,92
337248,note_off,,96,0,1,,,,,,0,72,64
337248,note_off,,0,0,1,,,,,,0,69,64
337248,note_on,,192,0,2,,,,,,0,65,92
337344,note_off,,96,0,2,,,,,,0,69,64
337344,note_on,,0,0,2,,,,,,0,65,92
337344,note_off,,0,0,2,,,,,,0,65,64
337344,note_on,,0,0,2,,,,,,0,69,92
337440,note_off,,0,0,2,,,,,,0,65,64
337440,note_off,,96,0,2,,,,,,0,69,64
337440,note_on,,0,0,1,,,,,,0,72,92
337440,note_on,,192,0,1,,,,,,0,69,92
337536,note_off,,0,0,1,,,,,,0,69,64
337536,note_off,,96,0,1,,,,,,0,72,64
337536,note_on,,0,0,1,,,,,,0,72,92
337536,note_on,,0,0,3,,,,,,0,53,102
337536,note_off,,384,0,3,,,,,,0,53,64
337536,note_on,,0,0,1,,,,,,0,69,92
337632,note_on,,0,0,2,,,,,,0,69,92
337632,note_off,,0,0,1,,,,,,0,69,64
337632,note_off,,96,0,1,,,,,,0,72,64
337632,note_on,,192,0,2,,,,,,0,65,92
337728,note_off,,96,0,2,,,,,,0,69,64
337728,note_off,,0,0,2,,,,,,0,65,64
337728,note_on,,0,0,2,,,,,,0,65,92
337728,note_on,,0,0,2,,,,,,0,69,92
337824,note_on,,0,0,1,,,,,,0,72,92
337824,note_off,,96,0,2,,,,,,0,69,64
337824,note_off,,0,0,2,,,,,,0,65,64
337824,note_on,,192,0,1,,,,,,0,69,92
337920,note_off,,96,0,1,,,,,,0,72,64
337920,note_off,,384,0,3,,,,,,0,53,64
337920,note_on,,0,0,3,,,,,,0,47,102
337920,note_on,,0,0,1,,,,,,0,74,92
337920,note_off,,0,0,1,,,,,,0,69,64
337920,note_on,,0,0,1,,,,,,0,71,92
338016,note_off,,96,0,1,,,,,,0,74,64
338016,note_on,,192,0,2,,,,,,0,65,92
338016,note_on,,0,0,2,,,,,,0,71,92
338016,note_off,,0,0,1,,,,,,0,71,64
338112,note_off,,96,0,2,,,,,,0,71,64
338112,note_off,,0,0,2,,,,,,0,65,64
338112,note_on,,0,0,2,,,,,,0,65,92
338112,note_on,,0,0,2,,,,,,0,71,92
338208,note_on,,192,0,1,,,,,,0,71,92
338208,note_off,,96,0,2,,,,,,0,71,64
338208,note_off,,0,0,2,,,,,,0,65,64
338208,note_on,,0,0,1,,,,,,0,74,92
338304,note_off,,384,0,3,,,,,,0,47,64
338304,note_on,,0,0,3,,,,,,0,47,102
338304,note_on,,0,0,1,,,,,,0,71,92
338304,note_on,,0,0,1,,,,,,0,74,92
338304,note_off,,96,0,1,,,,,,0,74,64
338304,note_off,,0,0,1,,,,,,0,71,64
338400,note_off,,96,0,1,,,,,,0,71,64
338400,note_off,,0,0,1,,,,,,0,74,64
338400,note_on,,192,0,2,,,,,,0,65,92
338400,note_on,,0,0,2,,,,,,0,71,92
338496,note_off,,96,0,2,,,,,,0,71,64
338496,note_on,,0,0,2,,,,,,0,65,92
338496,note_off,,0,0,2,,,,,,0,65,64
338496,note_on,,0,0,2,,,,,,0,71,92
338592,note_off,,96,0,2,,,,,,0,71,64
338592,note_off,,0,0,2,,,,,,0,65,64
338592,note_on,,192,0,1,,,,,,0,71,92
338592,note_on,,0,0,1,,,,,,0,74,92
338688,note_off,,384,0,3,,,,,,0,47,64
338688,note_off,,96,0,1,,,,,,0,74,64
338688,note_off,,0,0,1,,,,,,0,71,64
338688,note_on,,0,0,1,,,,,,0,71,92
338688,note_on,,0,0,1,,,,,,0,74,92
338688,note_on,,0,0,3,,,,,,0,47,102
338784,note_on,,192,0,2,,,,,,0,65,92
338784,note_on,,0,0,2,,,,,,0,71,92
338784,note_off,,96,0,1,,,,,,0,74,64
338784,note_off,,0,0,1,,,,,,0,71,64
338880,note_off,,96,0,2,,,,,,0,71,64
338880,note_off,,0,0,2,,,,,,0,65,64
338880,note_on,,0,0,2,,,,,,0,65,92
338880,note_on,,0,0,2,,,,,,0,71,92
338976,note_on,,192,0,1,,,,,,0,71,92
338976,note_on,,0,0,1,,,,,,0,74,92
338976,note_off,,96,0,2,,,,,,0,71,64
338976,note_off,,0,0,2,,,,,,0,65,64
339072,note_on,,0,0,3,,,,,,0,52,102
339072,note_on,,0,0,1,,,,,,0,68,92
339072,note_off,,0,0,1,,,,,,0,71,64
339072,note_off,,96,0,1,,,,,,0,74,64
339072,note_off,,384,0,3,,,,,,0,47,64
339072,note_on,,0,0,1,,,,,,0,71,92
339168,note_off,,0,0,1,,,,,,0,68,64
339168,note_off,,96,0,1,,,,,,0,71,64
339168,note_on,,0,0,2,,,,,,0,68,92
339168,note_on,,192,0,2,,,,,,0,64,92
339264,note_off,,96,0,2,,,,,,0,68,64
339264,note_on,,0,0,2,,,,,,0,64,92
339264,note_on,,0,0,2,,,,,,0,68,92
339264,note_off,,0,0,2,,,,,,0,64,64
339360,note_off,,96,0,2,,,,,,0,68,64
339360,note_off,,0,0,2,,,,,,0,64,64
339360,note_on,,0,0,1,,,,,,0,71,92
339360,note_on,,192,0,1,,,,,,0,68,92
339456,note_off,,384,0,3,,,,,,0,52,64
339456,note_off,,96,0,1,,,,,,0,71,64
339456,note_off,,0,0,1,,,,,,0,68,64
339456,note_on,,0,0,1,,,,,,0,71,92
339456,note_on,,0,0,1,,,,,,0,68,92
339456,note_on,,0,0,3,,,,,,0,52,102
339552,note_off,,96,0,1,,,,,,0,68,64
339552,note_on,,192,0,2,,,,,,0,64,92
339552,note_on,,0,0,2,,,,,,0,68,92
339552,note_off,,0,0,1,,,,,,0,71,64
339648,note_off,,96,0,2,,,,,,0,68,64
339648,note_off,,0,0,2,,,,,,0,64,64
339648,note_on,,0,0,2,,,,,,0,64,92
339648,note_on,,0,0,2,,,,,,0,68,92
339744,note_off,,0,0,2,,,,,,0,64,64
339744,note_off,,96,0,2,,,,,,0,68,64
339744,note_on,,0,0,1,,,,,,0,71,92
339744,note_on,,192,0,1,,,,,,0,68,92
339840,note_on,,0,0,1,,,,,,0,71,92
339840,note_on,,0,0,3,,,,,,0,52,102
339840,note_off,,384,0,3,,,,,,0,52,64
339840,note_on,,0,0,1,,,,,,0,68,92
339840,note_off,,0,0,1,,,,,,0,68,64
339840,note_off,,96,0,1,,,,,,0,71,64
339936,note_off,,0,0,1,,,,,,0,68,64
339936,note_on,,192,0,2,,,,,,0,64,92
339936,note_off,,96,0,1,,,,,,0,71,64
339936,note_on,,0,0,2,,,,,,0,68,92
340032,note_off,,96,0,2,,,,,,0,68,64
340032,note_off,,0,0,2,,,,,,0,64,64
340032,note_on,,0,0,2,,,,,,0,64,92
340032,note_on,,0,0,2,,,,,,0,68,92
340128,note_off,,96,0,2,,,,,,0,68,64
340128,note_off,,0,0,2,,,,,,0,64,64
340128,note_on,,0,0,1,,,,,,0,71,92
340128,note_on,,192,0,1,,,,,,0,68,92
340224,note_off,,0,0,1,,,,,,0,68,64
340224,note_on,,0,0,1,,,,,,0,69,92
340224,note_off,,96,0,1,,,,,,0,71,64
340224,note_on,,0,0,1,,,,,,0,72,92
340224,note_on,,0,0,3,,,,,,0,45,102
340224,note_off,,384,0,3,,,,,,0,52,64
340512,note_off,,0,0,1,,,,,,0,69,64
340512,note_on,,384,0,2,,,,,,0,68,92
340512,note_on,,0,0,1,,,,,,0,71,92
340512,note_off,,288,0,1,,,,,,0,72,64
340608,note_on,,0,0,1,,,,,,0,72,92
340608,note_off,,96,0,1,,,,,,0,71,64
340608,note_on,,0,0,3,,,,,,0,45,102
340608,note_off,,384,0,3,,,,,,0,45,64
340608,note_off,,96,0,2,,,,,,0,68,64
340608,note_on,,0,0,2,,,,,,0,69,92
340896,note_on,,0,0,2,,,,,,0,71,92
340896,note_off,,288,0,1,,,,,,0,72,64
340896,note_on,,0,0,1,,,,,,0,74,92
340896,note_off,,288,0,2,,,,,,0,69,64
340992,note_off,,96,0,2,,,,,,0,71,64
340992,note_off,,96,0,1,,,,,,0,74,64
340992,note_on,,0,0,1,,,,,,0,76,92
340992,note_on,,0,0,2,,,,,,0,72,92
340992,note_on,,0,0,3,,,,,,0,45,102
340992,note_off,,384,0,3,,,,,,0,45,64
341280,note_off,,288,0,1,,,,,,0,76,64
341280,note_off,,288,0,2,,,,,,0,72,64
341280,note_on,,0,0,2,,,,,,0,74,92
341280,note_on,,0,0,1,,,,,,0,77,92
341376,note_on,,0,0,3,,,,,,0,57,102
341376,note_off,,384,0,3,,,,,,0,45,64
341376,note_off,,96,0,2,,,,,,0,74,64
341376,note_on,,0,0,2,,,,,,0,72,92
341376,note_off,,96,0,1,,,,,,0,77,64
341376,note_on,,0,0,1,,,,,,0,76,92
341760,note_on,,0,0,3,,,,,,0,57,102
341760,note_off,,384,0,3,,,,,,0,57,64
341952,note_off,,576,0,1,,,,,,0,76,64
341952,note_on,,0,0,1,,,,,,0,74,92
341952,note_off,,576,0,2,,,,,,0,72,64
341952,note_on,,0,0,2,,,,,,0,71,92
342144,note_on,,0,0,1,,,,,,0,72,92
342144,note_off,,192,0,2,,,,,,0,71,64
342144,note_on,,0,0,2,,,,,,0,69,92
342144,note_on,,0,0,3,,,,,,0,57,102
342144,note_off,,192,0,1,,,,,,0,74,64
342144,note_off,,384,0,3,,,,,,0,57,64
342336,note_off,,192,0,1,,,,,,0,72,64
342336,note_on,,0,0,1,,,,,,0,71,92
342336,note_off,,192,0,2,,,,,,0,69,64
342336,note_on,,0,0,2,,,,,,0,68,92
342528,note_off,,192,0,2,,,,,,0,68,64
342528,note_on,,0,0,2,,,,,,0,69,92
342528,note_on,,0,0,3,,,,,,0,62,102
342528,note_off,,384,0,3,,,,,,0,57,64
342528,note_off,,192,0,1,,,,,,0,71,64
342528,note_on,,0,0,1,,,,,,0,72,92
342720,note_on,,0,0,1,,,,,,0,74,92
342720,note_off,,192,0,2,,,,,,0,69,64
342720,note_on,,0,0,2,,,,,,0,71,92
342720,note_off,,192,0,1,,,,,,0,72,64
342912,note_on,,0,0,1,,,,,,0,71,92
342912,note_off,,192,0,1,,,,,,0,74,64
342912,note_off,,384,0,3,,,,,,0,62,64
342912,note_on,,0,0,3,,,,,,0,64,102
342912,note_on,,0,0,2,,,,,,0,68,92
342912,note_off,,192,0,2,,,,,,0,71,64
343296,note_on,,0,0,3,,,,,,0,52,102
343296,note_off,,384,0,3,,,,,,0,64,64
343488,note_on,,0,0,2,,,,,,0,69,92
343488,note_off,,576,0,2,,,,,,0,68,64
343488,note_off,,576,0,1,,,,,,0,71,64
343488,note_on,,0,0,1,,,,,,0,69,92
343680,note_off,,192,0,2,,,,,,0,69,64
343680,note_on,,0,0,1,,,,,,0,69,92
343680,note_off,,384,0,3,,,,,,0,52,64
343680,note_on,,0,0,3,,,,,,0,57,102
343680,note_off,,192,0,1,,,,,,0,69,64
343776,note_on,,96,0,2,,,,,,0,69,92
343872,note_on,,0,0,1,,,,,,0,76,92
343872,note_off,,192,0,1,,,,,,0,69,64
343872,note_on,,0,0,2,,,,,,0,68,92
343872,note_off,,96,0,2,,,,,,0,69,64
343968,note_off,,96,0,2,,,,,,0,68,64
343968,note_on,,0,0,2,,,,,,0,69,92
344064,note_off,,96,0,2,,,,,,0,69,64
344064,note_on,,0,0,2,,,,,,0,72,92
344064,note_on,,0,0,1,,,,,,0,81,92
344064,note_off,,192,0,1,,,,,,0,76,64
344064,note_off,,384,0,3,,,,,,0,57,64
344160,note_off,,96,0,2,,,,,,0,72,64
344160,note_on,,0,0,2,,,,,,0,69,92
344256,note_off,,96,0,2,,,,,,0,69,64
344256,note_on,,0,0,1,,,,,,0,76,92
344256,note_off,,192,0,1,,,,,,0,81,64
344256,note_on,,0,0,2,,,,,,0,68,92
344352,note_off,,96,0,2,,,,,,0,68,64
344352,note_on,,0,0,2,,,,,,0,69,92
344448,note_on,,0,0,2,,,,,,0,64,92
344448,note_on,,384,0,3,,,,,,0,56,102
344448,note_off,,96,0,2,,,,,,0,69,64
344448,note_on,,0,0,1,,,,,,0,83,92
344448,note_off,,192,0,1,,,,,,0,76,64
344544,note_off,,96,0,2,,,,,,0,64,64
344544,note_on,,0,0,2,,,,,,0,71,92
344640,note_on,,0,0,1,,,,,,0,76,92
344640,note_off,,96,0,2,,,,,,0,71,64
344640,note_on,,0,0,2,,,,,,0,69,92
344640,note_off,,192,0,1,,,,,,0,83,64
344736,note_off,,96,0,2,,,,,,0,69,64
344736,note_on,,0,0,2,,,,,,0,71,92
344832,note_off,,192,0,1,,,,,,0,76,64
344832,note_on,,0,0,1,,,,,,0,84,92
344832,note_off,,384,0,3,,,,,,0,56,64
344832,note_on,,0,0,3,,,,,,0,57,102
344832,note_on,,0,0,2,,,,,,0,64,92
344832,note_off,,96,0,2,,,,,,0,71,64
344928,note_on,,0,0,2,,,,,,0,69,92
344928,note_off,,96,0,2,,,,,,0,64,64
345024,note_on,,0,0,1,,,,,,0,76,92
345024,note_off,,192,0,1,,,,,,0,84,64
345024,note_off,,96,0,2,,,,,,0,69,64
345024,note_on,,0,0,2,,,,,,0,68,92
345120,note_on,,0,0,2,,,,,,0,69,92
345120,note_off,,96,0,2,,,,,,0,68,64
345216,note_off,,96,0,2,,,,,,0,69,64
345216,note_on,,0,0,2,,,,,,0,72,92
345216,note_off,,384,0,3,,,,,,0,57,64
345216,note_on,,0,0,1,,,,,,0,81,92
345216,note_off,,192,0,1,,,,,,0,76,64
345312,note_off,,96,0,2,,,,,,0,72,64
345312,note_on,,0,0,2,,,,,,0,69,92
345408,note_on,,0,0,1,,,,,,0,76,92
345408,note_off,,96,0,2,,,,,,0,69,64
345408,note_on,,0,0,2,,,,,,0,68,92
345408,note_off,,192,0,1,,,,,,0,81,64
345504,note_off,,96,0,2,,,,,,0,68,64
345504,note_on,,0,0,2,,,,,,0,69,92
345600,note_off,,192,0,1,,,,,,0,76,64
345600,note_off,,96,0,2,,,,,,0,69,64
345600,note_on,,0,0,2,,,,,,0,64,92
345600,note_on,,0,0,1,,,,,,0,83,92
345600,note_on,,384,0,3,,,,,,0,56,102
345696,note_on,,0,0,2,,,,,,0,71,92
345696,note_off,,96,0,2,,,,,,0,64,64
345792,note_on,,0,0,1,,,,,,0,76,92
345792,note_off,,192,0,1,,,,,,0,83,64
345792,note_off,,96,0,2,,,,,,0,71,64
345792,note_on,,0,0,2,,,,,,0,69,92
345888,note_off,,96,0,2,,,,,,0,69,64
345888,note_on,,0,0,2,,,,,,0,71,92
345984,note_on,,0,0,1,,,,,,0,84,92
345984,note_off,,192,0,1,,,,,,0,76,64
345984,note_on,,0,0,2,,,,,,0,64,92
345984,note_off,,96,0,2,,,,,,0,71,64
345984,note_on,,0,0,3,,,,,,0,57,102
345984,note_off,,384,0,3,,,,,,0,56,64
346176,note_off,,192,0,2,,,,,,0,64,64
346176,note_on,,0,0,2,,,,,,0,64,92
346176,note_off,,192,0,1,,,,,,0,84,64
346176,note_on,,0,0,1,,,,,,0,76,92
346368,note_off,,384,0,3,,,,,,0,57,64
346368,note_off,,192,0,2,,,,,,0,64,64
346368,note_on,,0,0,2,,,,,,0,69,92
346368,note_off,,192,0,1,,,,,,0,76,64
346368,note_on,,0,0,1,,,,,,0,81,92
346560,note_off,,192,0,2,,,,,,0,69,64
346560,note_on,,0,0,1,,,,,,0,79,92
346560,note_on,,0,0,2,,,,,,0,67,92
346560,note_off,,192,0,1,,,,,,0,81,64
346656,note_on,,0,0,1,,,,,,0,77,92
346656,note_off,,96,0,2,,,,,,0,67,64
346656,note_on,,0,0,2,,,,,,0,65,92
346656,note_off,,96,0,1,,,,,,0,79,64
346752,note_on,,0,0,2,,,,,,0,64,92
346752,note_off,,96,0,2,,,,,,0,65,64
346752,note_off,,96,0,1,,,,,,0,77,64
346752,note_on,,0,0,1,,,,,,0,76,92
346848,note_off,,96,0,1,,,,,,0,76,64
346848,note_on,,0,0,2,,,,,,0,62,92
346848,note_on,,0,0,1,,,,,,0,74,92
346848,note_off,,96,0,2,,,,,,0,64,64
346944,note_off,,96,0,1,,,,,,0,74,64
346944,note_on,,0,0,2,,,,,,0,60,92
346944,note_on,,0,0,1,,,,,,0,72,92
346944,note_off,,96,0,2,,,,,,0,62,64
347040,note_on,,0,0,1,,,,,,0,71,92
347040,note_off,,96,0,1,,,,,,0,72,64
347040,note_on,,0,0,2,,,,,,0,59,92
347040,note_off,,96,0,2,,,,,,0,60,64
347136,note_off,,96,0,1,,,,,,0,71,64
347136,note_on,,0,0,2,,,,,,0,57,92
347136,note_on,,768,0,3,,,,,,0,57,102
347136,note_off,,96,0,2,,,,,,0,59,64
347136,note_on,,0,0,1,,,,,,0,69,92
347328,note_on,,0,0,2,,,,,,0,52,92
347328,note_on,,0,0,1,,,,,,0,64,92
347328,note_off,,192,0,1,,,,,,0,69,64
347328,note_off,,192,0,2,,,,,,0,57,64
347520,note_off,,384,0,3,,,,,,0,57,64
347520,note_off,,192,0,2,,,,,,0,52,64
347520,note_on,,0,0,1,,,,,,0,69,92
347520,note_off,,192,0,1,,,,,,0,64,64
347520,note_on,,0,0,2,,,,,,0,57,92
347712,note_on,,0,0,2,,,,,,0,55,92
347712,note_off,,192,0,1,,,,,,0,69,64
347712,note_on,,0,0,1,,,,,,0,67,92
347712,note_off,,192,0,2,,,,,,0,57,64
347808,note_on,,0,0,1,,,,,,0,65,92
347808,note_off,,96,0,1,,,,,,0,67,64
347808,note_off,,96,0,2,,,,,,0,55,64
347808,note_on,,0,0,2,,,,,,0,53,92
347904,note_on,,0,0,1,,,,,,0,64,92
347904,note_off,,96,0,1,,,,,,0,65,64
347904,note_on,,0,0,2,,,,,,0,52,92
347904,note_off,,96,0,2,,,,,,0,53,64
348000,note_on,,0,0,1,,,,,,0,62,92
348000,note_off,,96,0,2,,,,,,0,52,64
348000,note_on,,0,0,2,,,,,,0,50,92
348000,note_off,,96,0,1,,,,,,0,64,64
348096,note_on,,0,0,1,,,,,,0,60,92
348096,note_off,,96,0,2,,,,,,0,50,64
348096,note_on,,0,0,2,,,,,,0,48,92
348096,note_off,,96,0,1,,,,,,0,62,64
348192,note_off,,96,0,2,,,,,,0,48,64
348192,note_off,,96,0,1,,,,,,0,60,64
348192,note_on,,0,0,2,,,,,,0,47,92
348192,note_on,,0,0,1,,,,,,0,59,92
348288,note_off,,96,0,2,,,,,,0,47,64
348288,note_on,,0,0,2,,,,,,0,45,92
348288,note_on,,768,0,3,,,,,,0,57,102
348288,note_off,,96,0,1,,,,,,0,59,64
348288,note_on,,0,0,1,,,,,,0,57,92
348480,note_off,,192,0,2,,,,,,0,45,64
348480,note_off,,192,0,1,,,,,,0,57,64
348480,note_on,,0,0,1,,,,,,0,76,92
348672,note_off,,192,0,1,,,,,,0,76,64
348672,note_on,,0,0,1,,,,,,0,76,92
348672,note_off,,384,0,3,,,,,,0,57,64
348768,note_on,,288,0,2,,,,,,0,72,92
348864,note_on,,0,0,1,,,,,,0,76,92
348864,note_off,,96,0,2,,,,,,0,72,64
348864,note_on,,0,0,2,,,,,,0,71,92
348864,note_off,,192,0,1,,,,,,0,76,64
348960,note_off,,96,0,2,,,,,,0,71,64
348960,note_on,,0,0,2,,,,,,0,72,92
349056,note_off,,192,0,1,,,,,,0,76,64
349056,note_on,,0,0,1,,,,,,0,81,92
349056,note_off,,96,0,2,,,,,,0,72,64
349056,note_on,,0,0,2,,,,,,0,69,92
349152,note_on,,0,0,2,,,,,,0,72,92
349152,note_off,,96,0,2,,,,,,0,69,64
349248,note_off,,96,0,2,,,,,,0,72,64
349248,note_on,,0,0,2,,,,,,0,71,92
349248,note_on,,0,0,1,,,,,,0,76,92
349248,note_off,,192,0,1,,,,,,0,81,64
349344,note_off,,96,0,2,,,,,,0,71,64
349344,note_on,,0,0,2,,,,,,0,72,92
349440,note_on,,768,0,3,,,,,,0,64,102
349440,note_on,,0,0,2,,,,,,0,68,92
349440,note_off,,192,0,1,,,,,,0,76,64
349440,note_on,,0,0,1,,,,,,0,76,92
349440,note_off,,96,0,2,,,,,,0,72,64
349536,note_on,,0,0,2,,,,,,0,71,92
349536,note_off,,96,0,2,,,,,,0,68,64
349632,note_off,,192,0,1,,,,,,0,76,64
349632,note_on,,0,0,2,,,,,,0,69,92
349632,note_off,,96,0,2,,,,,,0,71,64
349632,note_on,,0,0,1,,,,,,0,76,92
349728,note_off,,96,0,2,,,,,,0,69,64
349728,note_on,,0,0,2,,,,,,0,71,92
349824,note_on,,0,0,1,,,,,,0,76,92
349824,note_on,,0,0,2,,,,,,0,76,92
349824,note_off,,384,0,3,,,,,,0,64,64
349824,note_off,,192,0,1,,,,,,0,76,64
349824,note_off,,96,0,2,,,,,,0,71,64
349920,note_off,,96,0,2,,,,,,0,76,64
349920,note_on,,0,0,2,,,,,,0,71,92
350016,note_off,,192,0,1,,,,,,0,76,64
350016,note_on,,0,0,1,,,,,,0,76,92
350016,note_off,,96,0,2,,,,,,0,71,64
350016,note_on,,0,0,2,,,,,,0,69,92
350112,note_off,,96,0,2,,,,,,0,69,64
350112,note_on,,0,0,2,,,,,,0,71,92
350208,note_off,,192,0,1,,,,,,0,76,64
350208,note_on,,0,0,1,,,,,,0,83,92
350208,note_off,,96,0,2,,,,,,0,71,64
350208,note_on,,0,0,2,,,,,,0,68,92
350304,note_on,,0,0,2,,,,,,0,71,92
350304,note_off,,96,0,2,,,,,,0,68,64
350400,note_on,,0,0,2,,,,,,0,69,92
350400,note_on,,0,0,1,,,,,,0,76,92
350400,note_off,,192,0,1,,,,,,0,83,64
350400,note_off,,96,0,2,,,,,,0,71,64
350496,note_off,,96,0,2,,,,,,0,69,64
350496,note_on,,0,0,2,,,,,,0,71,92
350592,note_on,,0,0,2,,,,,,0,69,92
350592,note_off,,192,0,1,,,,,,0,76,64
350592,note_off,,96,0,2,,,,,,0,71,64
350592,note_on,,768,0,3,,,,,,0,57,102
350592,note_on,,0,0,1,,,,,,0,76,92
350688,note_off,,96,0,2,,,,,,0,69,64
350688,note_on,,0,0,2,,,,,,0,72,92
350784,note_on,,0,0,2,,,,,,0,71,92
350784,note_off,,192,0,1,,,,,,0,76,64
350784,note_on,,0,0,1,,,,,,0,76,92
350784,note_off,,96,0,2,,,,,,0,72,64
350880,note_on,,0,0,2,,,,,,0,72,92
350880,note_off,,96,0,2,,,,,,0,71,64
350976,note_on,,0,0,2,,,,,,0,76,92
350976,note_on,,0,0,1,,,,,,0,76,92
350976,note_off,,192,0,1,,,,,,0,76,64
350976,note_off,,384,0,3,,,,,,0,57,64
350976,note_off,,96,0,2,,,,,,0,72,64
351072,note_off,,96,0,2,,,,,,0,76,64
351072,note_on,,0,0,2,,,,,,0,72,92
351168,note_on,,0,0,1,,,,,,0,76,92
351168,note_off,,192,0,1,,,,,,0,76,64
351168,note_off,,96,0,2,,,,,,0,72,64
351168,note_on,,0,0,2,,,,,,0,71,92
351264,note_off,,96,0,2,,,,,,0,71,64
351264,note_on,,0,0,2,,,,,,0,72,92
351360,note_off,,192,0,1,,,,,,0,76,64
351360,note_on,,0,0,1,,,,,,0,81,92
351360,note_off,,96,0,2,,,,,,0,72,64
351360,note_on,,0,0,2,,,,,,0,69,92
351456,note_off,,96,0,2,,,,,,0,69,64
351456,note_on,,0,0,2,,,,,,0,76,92
351552,note_off,,192,0,1,,,,,,0,81,64
351552,note_on,,0,0,1,,,,,,0,69,92
351552,note_on,,0,0,2,,,,,,0,74,92
351552,note_off,,96,0,2,,,,,,0,76,64
351648,note_off,,96,0,2,,,,,,0,74,64
351648,note_on,,0,0,2,,,,,,0,76,92
351744,note_off,,96,0,2,,,,,,0,76,64
351744,note_on,,0,0,2,,,,,,0,73,92
351744,note_on,,768,0,3,,,,,,0,57,102
351744,note_on,,0,0,1,,,,,,0,69,92
351744,note_off,,192,0,1,,,,,,0,69,64
351840,note_off,,96,0,2,,,,,,0,73,64
351840,note_on,,0,0,2,,,,,,0,76,92
351936,note_off,,192,0,1,,,,,,0,69,64
351936,note_on,,0,0,1,,,,,,0,69,92
351936,note_off,,96,0,2,,,,,,0,76,64
351936,note_on,,0,0,2,,,,,,0,74,92
352032,note_off,,96,0,2,,,,,,0,74,64
352032,note_on,,0,0,2,,,,,,0,76,92
352128,note_off,,192,0,1,,,,,,0,69,64
352128,note_off,,96,0,2,,,,,,0,76,64
352128,note_on,,0,0,2,,,,,,0,79,92
352128,note_off,,384,0,3,,,,,,0,57,64
352128,note_on,,0,0,1,,,,,,0,69,92
352224,note_on,,0,0,2,,,,,,0,76,92
352224,note_off,,96,0,2,,,,,,0,79,64
352320,note_on,,0,0,2,,,,,,0,74,92
352320,note_off,,192,0,1,,,,,,0,69,64
352320,note_on,,0,0,1,,,,,,0,69,92
352320,note_off,,96,0,2,,,,,,0,76,64
352416,note_off,,96,0,2,,,,,,0,74,64
352416,note_on,,0,0,2,,,,,,0,76,92
352512,note_off,,96,0,2,,,,,,0,76,64
352512,note_on,,0,0,2,,,,,,0,73,92
352512,note_on,,0,0,1,,,,,,0,79,92
352512,note_off,,192,0,1,,,,,,0,69,64
352608,note_off,,96,0,2,,,,,,0,73,64
352608,note_on,,0,0,2,,,,,,0,76,92
352704,note_on,,0,0,1,,,,,,0,69,92
352704,note_on,,0,0,2,,,,,,0,74,92
352704,note_off,,192,0,1,,,,,,0,79,64
352704,note_off,,96,0,2,,,,,,0,76,64
352800,note_on,,0,0,2,,,,,,0,76,92
352800,note_off,,96,0,2,,,,,,0,74,64
352896,note_on,,0,0,2,,,,,,0,74,92
352896,note_on,,768,0,3,,,,,,0,62,102
352896,note_off,,96,0,2,,,,,,0,76,64
352896,note_on,,0,0,1,,,,,,0,69,92
352896,note_off,,192,0,1,,,,,,0,69,64
352992,note_on,,0,0,2,,,,,,0,77,92
352992,note_off,,96,0,2,,,,,,0,74,64
353088,note_on,,0,0,1,,,,,,0,69,92
353088,note_off,,192,0,1,,,,,,0,69,64
353088,note_on,,0,0,2,,,,,,0,76,92
353088,note_off,,96,0,2,,,,,,0,77,64
353184,note_off,,96,0,2,,,,,,0,76,64
353184,note_on,,0,0,2,,,,,,0,77,92
353280,note_on,,0,0,1,,,,,,0,69,92
353280,note_off,,192,0,1,,,,,,0,69,64
353280,note_off,,384,0,3,,,,,,0,62,64
353280,note_off,,96,0,2,,,,,,0,77,64
353280,note_on,,0,0,2,,,,,,0,81,92
353376,note_off,,96,0,2,,,,,,0,81,64
353376,note_on,,0,0,2,,,,,,0,77,92
353472,note_on,,0,0,2,,,,,,0,76,92
353472,note_on,,0,0,1,,,,,,0,69,92
353472,note_off,,96,0,2,,,,,,0,77,64
353472,note_off,,192,0,1,,,,,,0,69,64
353568,note_on,,0,0,2,,,,,,0,77,92
353568,note_off,,96,0,2,,,,,,0,76,64
353664,note_off,,96,0,2,,,,,,0,77,64
353664,note_on,,0,0,2,,,,,,0,74,92
353664,note_off,,192,0,1,,,,,,0,69,64
353664,note_on,,0,0,1,,,,,,0,77,92
353760,note_off,,96,0,2,,,,,,0,74,64
353760,note_on,,0,0,2,,,,,,0,77,92
353856,note_on,,0,0,2,,,,,,0,76,92
353856,note_on,,0,0,1,,,,,,0,69,92
353856,note_off,,192,0,1,,,,,,0,77,64
353856,note_off,,96,0,2,,,,,,0,77,64
353952,note_off,,96,0,2,,,,,,0,76,64
353952,note_on,,0,0,2,,,,,,0,77,92
354048,note_off,,192,0,1,,,,,,0,69,64
354048,note_on,,0,0,1,,,,,,0,77,92
354048,note_on,,768,0,3,,,,,,0,62,102
354048,note_on,,0,0,2,,,,,,0,74,92
354048,note_off,,96,0,2,,,,,,0,77,64
354144,note_on,,0,0,2,,,,,,0,77,92
354144,note_off,,96,0,2,,,,,,0,74,64
354240,note_off,,96,0,2,,,,,,0,77,64
354240,note_on,,0,0,1,,,,,,0,74,92
354240,note_off,,192,0,1,,,,,,0,77,64
354240,note_on,,0,0,2,,,,,,0,76,92
354336,note_off,,96,0,2,,,,,,0,76,64
354336,note_on,,0,0,2,,,,,,0,77,92
354432,note_off,,384,0,3,,,,,,0,62,64
354432,note_on,,0,0,1,,,,,,0,74,92
354432,note_off,,192,0,1,,,,,,0,74,64
354432,note_off,,96,0,2,,,,,,0,77,64
354432,note_on,,0,0,2,,,,,,0,82,92
354528,note_off,,96,0,2,,,,,,0,82,64
354528,note_on,,0,0,2,,,,,,0,77,92
354624,note_on,,0,0,1,,,,,,0,74,92
354624,note_off,,192,0,1,,,,,,0,74,64
354624,note_on,,0,0,2,,,,,,0,76,92
354624,note_off,,96,0,2,,,,,,0,77,64
354720,note_on,,0,0,2,,,,,,0,77,92
354720,note_off,,96,0,2,,,,,,0,76,64
354816,note_on,,0,0,1,,,,,,0,82,92
354816,note_off,,192,0,1,,,,,,0,74,64
354816,note_off,,96,0,2,,,,,,0,77,64
354816,note_on,,0,0,2,,,,,,0,74,92
354912,note_on,,0,0,2,,,,,,0,77,92
354912,note_off,,96,0,2,,,,,,0,74,64
355008,note_on,,0,0,2,,,,,,0,76,92
355008,note_off,,96,0,2,,,,,,0,77,64
355008,note_off,,192,0,1,,,,,,0,82,64
355008,note_on,,0,0,1,,,,,,0,74,92
355104,note_on,,0,0,2,,,,,,0,77,92
355104,note_off,,96,0,2,,,,,,0,76,64
355200,note_off,,192,0,1,,,,,,0,74,64
355200,note_on,,0,0,1,,,,,,0,76,92
355200,note_off,,96,0,2,,,,,,0,77,64
355200,note_on,,768,0,3,,,,,,0,64,102
355200,note_on,,0,0,2,,,,,,0,71,92
355296,note_off,,96,0,2,,,,,,0,71,64
355296,note_on,,0,0,2,,,,,,0,74,92
355392,note_off,,96,0,2,,,,,,0,74,64
355392,note_on,,0,0,2,,,,,,0,72,92
355392,note_on,,0,0,1,,,,,,0,74,92
355392,note_off,,192,0,1,,,,,,0,76,64
355488,note_off,,96,0,2,,,,,,0,72,64
355488,note_on,,0,0,2,,,,,,0,74,92
355584,note_off,,192,0,1,,,,,,0,74,64
355584,note_off,,96,0,2,,,,,,0,74,64
355584,note_on,,0,0,2,,,,,,0,80,92
355584,note_on,,0,0,1,,,,,,0,74,92
355584,note_off,,384,0,3,,,,,,0,64,64
355680,note_on,,0,0,2,,,,,,0,74,92
355680,note_off,,96,0,2,,,,,,0,80,64
355776,note_off,,96,0,2,,,,,,0,74,64
355776,note_on,,0,0,2,,,,,,0,72,92
355776,note_off,,192,0,1,,,,,,0,74,64
355776,note_on,,0,0,1,,,,,,0,74,92
355872,note_off,,96,0,2,,,,,,0,72,64
355872,note_on,,0,0,2,,,,,,0,74,92
355968,note_on,,0,0,1,,,,,,0,80,92
355968,note_off,,192,0,1,,,,,,0,74,64
355968,note_off,,96,0,2,,,,,,0,74,64
355968,note_on,,0,0,2,,,,,,0,71,92
356064,note_on,,0,0,2,,,,,,0,74,92
356064,note_off,,96,0,2,,,,,,0,71,64
356160,note_off,,96,0,2,,,,,,0,74,64
356160,note_on,,0,0,1,,,,,,0,74,92
356160,note_off,,192,0,1,,,,,,0,80,64
356160,note_on,,0,0,2,,,,,,0,72,92
356256,note_on,,0,0,2,,,,,,0,74,92
356256,note_off,,96,0,2,,,,,,0,72,64
356352,note_on,,768,0,3,,,,,,0,57,102
356352,note_on,,0,0,2,,,,,,0,72,92
356352,note_off,,96,0,2,,,,,,0,74,64
356352,note_off,,192,0,1,,,,,,0,74,64
356352,note_on,,0,0,1,,,,,,0,76,92
356448,note_off,,96,0,2,,,,,,0,72,64
356448,note_on,,0,0,2,,,,,,0,76,92
356544,note_on,,0,0,1,,,,,,0,72,92
356544,note_on,,0,0,2,,,,,,0,74,92
356544,note_off,,96,0,2,,,,,,0,76,64
356544,note_off,,192,0,1,,,,,,0,76,64
356640,note_on,,0,0,2,,,,,,0,76,92
356640,note_off,,96,0,2,,,,,,0,74,64
356736,note_off,,192,0,1,,,,,,0,72,64
356736,note_on,,0,0,1,,,,,,0,72,92
356736,note_on,,0,0,2,,,,,,0,81,92
356736,note_off,,96,0,2,,,,,,0,76,64
356736,note_off,,384,0,3,,,,,,0,57,64
356832,note_on,,0,0,2,,,,,,0,76,92
356832,note_off,,96,0,2,,,,,,0,81,64
356928,note_off,,96,0,2,,,,,,0,76,64
356928,note_off,,192,0,1,,,,,,0,72,64
356928,note_on,,0,0,1,,,,,,0,72,92
356928,note_on,,0,0,2,,,,,,0,74,92
357024,note_on,,0,0,2,,,,,,0,76,92
357024,note_off,,96,0,2,,,,,,0,74,64
357120,note_on,,0,0,2,,,,,,0,72,92
357120,note_off,,96,0,2,,,,,,0,76,64
357120,note_on,,0,0,1,,,,,,0,81,92
357120,note_off,,192,0,1,,,,,,0,72,64
357216,note_off,,96,0,2,,,,,,0,72,64
357216,note_on,,0,0,2,,,,,,0,76,92
357312,note_off,,96,0,2,,,,,,0,76,64
357312,note_on,,0,0,2,,,,,,0,74,92
357312,note_on,,0,0,1,,,,,,0,72,92
357312,note_off,,192,0,1,,,,,,0,81,64
357408,note_off,,96,0,2,,,,,,0,74,64
357408,note_on,,0,0,2,,,,,,0,76,92
357504,note_on,,768,0,3,,,,,,0,64,102
357504,note_on,,0,0,1,,,,,,0,74,92
357504,note_off,,192,0,1,,,,,,0,72,64
357504,note_off,,96,0,2,,,,,,0,76,64
357504,note_on,,0,0,2,,,,,,0,71,92
357600,note_off,,96,0,2,,,,,,0,71,64
357600,note_on,,0,0,2,,,,,,0,74,92
357696,note_on,,0,0,1,,,,,,0,71,92
357696,note_off,,192,0,1,,,,,,0,74,64
357696,note_off,,96,0,2,,,,,,0,74,64
357696,note_on,,0,0,2,,,,,,0,72,92
357792,note_on,,0,0,2,,,,,,0,74,92
357792,note_off,,96,0,2,,,,,,0,72,64
357888,note_on,,0,0,2,,,,,,0,81,92
357888,note_off,,96,0,2,,,,,,0,74,64
357888,note_on,,0,0,1,,,,,,0,71,92
357888,note_off,,192,0,1,,,,,,0,71,64
357888,note_off,,384,0,3,,,,,,0,64,64
357984,note_off,,96,0,2,,,,,,0,81,64
357984,note_on,,0,0,2,,,,,,0,74,92
358080,note_on,,0,0,2,,,,,,0,72,92
358080,note_off,,96,0,2,,,,,,0,74,64
358080,note_on,,0,0,1,,,,,,0,71,92
358080,note_off,,192,0,1,,,,,,0,71,64
358176,note_off,,96,0,2,,,,,,0,72,64
358176,note_on,,0,0,2,,,,,,0,74,92
358272,note_off,,192,0,1,,,,,,0,71,64
358272,note_on,,0,0,1,,,,,,0,81,92
358272,note_on,,0,0,2,,,,,,0,71,92
358272,note_off,,96,0,2,,,,,,0,74,64
358368,note_on,,0,0,2,,,,,,0,74,92
358368,note_off,,96,0,2,,,,,,0,71,64
358464,note_on,,0,0,1,,,,,,0,71,92
358464,note_off,,192,0,1,,,,,,0,81,64
358464,note_off,,96,0,2,,,,,,0,74,64
358464,note_on,,0,0,2,,,,,,0,72,92
358560,note_off,,96,0,2,,,,,,0,72,64
358560,note_on,,0,0,2,,,,,,0,74,92
358656,note_on,,768,0,3,,,,,,0,64,102
358656,note_on,,0,0,1,,,,,,0,74,92
358656,note_on,,0,0,2,,,,,,0,71,92
358656,note_off,,96,0,2,,,,,,0,74,64
358656,note_off,,192,0,1,,,,,,0,71,64
358752,note_on,,0,0,2,,,,,,0,74,92
358752,note_off,,96,0,2,,,,,,0,71,64
358848,note_on,,0,0,2,,,,,,0,72,92
358848,note_off,,96,0,2,,,,,,0,74,64
358848,note_off,,192,0,1,,,,,,0,74,64
358848,note_on,,0,0,1,,,,,,0,71,92
358944,note_off,,96,0,2,,,,,,0,72,64
358944,note_on,,0,0,2,,,,,,0,74,92
359040,note_off,,192,0,1,,,,,,0,71,64
359040,note_on,,0,0,1,,,,,,0,71,92
359040,note_off,,96,0,2,,,,,,0,74,64
359040,note_on,,0,0,2,,,,,,0,80,92
359040,note_off,,384,0,3,,,,,,0,64,64
359136,note_on,,0,0,2,,,,,,0,74,92
359136,note_off,,96,0,2,,,,,,0,80,64
359232,note_on,,0,0,1,,,,,,0,71,92
359232,note_off,,192,0,1,,,,,,0,71,64
359232,note_on,,0,0,2,,,,,,0,72,92
359232,note_off,,96,0,2,,,,,,0,74,64
359328,note_on,,0,0,2,,,,,,0,74,92
359328,note_off,,96,0,2,,,,,,0,72,64
359424,note_off,,96,0,2,,,,,,0,74,64
359424,note_off,,192,0,1,,,,,,0,71,64
359424,note_on,,0,0,1,,,,,,0,80,92
359424,note_on,,0,0,2,,,,,,0,71,92
359520,note_off,,96,0,2,,,,,,0,71,64
359520,note_on,,0,0,2,,,,,,0,74,92
359616,note_off,,96,0,2,,,,,,0,74,64
359616,note_on,,0,0,2,,,,,,0,72,92
359616,note_off,,192,0,1,,,,,,0,80,64
359616,note_on,,0,0,1,,,,,,0,71,92
359712,note_off,,96,0,2,,,,,,0,72,64
359712,note_on,,0,0,2,,,,,,0,74,92
359808,note_off,,96,0,2,,,,,,0,74,64
359808,note_on,,0,0,2,,,,,,0,72,92
359808,note_on,,768,0,3,,,,,,0,57,102
359808,note_off,,192,0,1,,,,,,0,71,64
359808,note_on,,0,0,1,,,,,,0,69,92
360000,note_off,,192,0,3,,,,,,0,57,64
360000,note_on,,0,0,1,,,,,,0,69,92
360000,note_on,,0,0,1,,,,,,0,65,92
360000,note_on,,0,0,2,,,,,,0,60,92
360000,note_on,,0,0,2,,,,,,0,57,92
360000,note_off,,192,0,2,,,,,,0,72,64
360000,note_off,,192,0,1,,,,,,0,69,64
360000,note_on,,0,0,3,,,,,,0,57,102
360192,note_off,,192,0,3,,,,,,0,57,64
360192,note_on,,0,0,3,,,,,,0,55,102
360192,note_off,,0,0,2,,,,,,0,57,64
360192,note_on,,0,0,2,,,,,,0,59,92
360192,note_on,,0,0,2,,,,,,0,55,92
360192,note_off,,192,0,2,,,,,,0,60,64
360192,note_on,,0,0,1,,,,,,0,64,92
360192,note_off,,0,0,1,,,,,,0,65,64
360192,note_off,,192,0,1,,,,,,0,69,64
360192,note_on,,0,0,1,,,,,,0,67,92
360384,note_off,,192,0,3,,,,,,0,55,64
360384,note_on,,0,0,3,,,,,,0,53,102
360384,note_on,,0,0,2,,,,,,0,53,92
360384,note_off,,0,0,2,,,,,,0,55,64
360384,note_off,,192,0,2,,,,,,0,59,64
360384,note_on,,0,0,2,,,,,,0,57,92
360384,note_on,,0,0,1,,,,,,0,62,92
360384,note_on,,0,0,1,,,,,,0,65,92
360384,note_off,,0,0,1,,,,,,0,64,64
360384,note_off,,192,0,1,,,,,,0,67,64
360576,note_off,,192,0,1,,,,,,0,65,64
360576,note_off,,192,0,2,,,,,,0,57,64
360576,note_off,,0,0,2,,,,,,0,53,64
360576,note_on,,0,0,2,,,,,,0,52,92
360576,note_on,,0,0,2,,,,,,0,55,92
360576,note_on,,0,0,3,,,,,,0,52,102
360576,note_off,,192,0,3,,,,,,0,53,64
360576,note_off,,0,0,1,,,,,,0,62,64
360576,note_on,,0,0,1,,,,,,0,60,92
360576,note_on,,0,0,1,,,,,,0,64,92
360768,note_off,,192,0,3,,,,,,0,52,64
360768,note_on,,0,0,3,,,,,,0,50,102
360768,note_on,,0,0,1,,,,,,0,59,92
360768,note_on,,0,0,2,,,,,,0,53,92
360768,note_on,,0,0,2,,,,,,0,50,92
360768,note_on,,0,0,1,,,,,,0,62,92
360768,note_off,,192,0,2,,,,,,0,55,64
360768,note_off,,192,0,1,,,,,,0,64,64
360768,note_off,,0,0,1,,,,,,0,60,64
360768,note_off,,0,0,2,,,,,,0,52,64
360960,note_on,,0,0,2,,,,,,0,48,92
360960,note_off,,0,0,2,,,,,,0,50,64
360960,note_off,,192,0,2,,,,,,0,53,64
360960,note_on,,0,0,2,,,,,,0,52,92
360960,note_on,,0,0,3,,,,,,0,48,102
360960,note_off,,192,0,3,,,,,,0,50,64
360960,note_off,,192,0,1,,,,,,0,62,64
360960,note_off,,0,0,1,,,,,,0,59,64
360960,note_on,,0,0,1,,,,,,0,57,92
360960,note_on,,0,0,1,,,,,,0,60,92
361152,note_on,,0,0,2,,,,,,0,53,92
361152,note_on,,0,0,2,,,,,,0,57,92
361152,note_off,,0,0,2,,,,,,0,48,64
361152,note_on,,0,0,1,,,,,,0,65,92
361152,note_on,,0,0,3,,,,,,0,53,102
361152,note_off,,192,0,2,,,,,,0,52,64
361152,note_off,,192,0,3,,,,,,0,48,64
361152,note_off,,192,0,1,,,,,,0,60,64
361152,note_off,,0,0,1,,,,,,0,57,64
361152,note_on,,0,0,1,,,,,,0,62,92
361344,note_on,,0,0,3,,,,,,0,52,102
361344,note_off,,192,0,2,,,,,,0,57,64
361344,note_off,,0,0,2,,,,,,0,53,64
361344,note_on,,0,0,2,,,,,,0,52,92
361344,note_on,,0,0,2,,,,,,0,55,92
361344,note_off,,192,0,1,,,,,,0,65,64
361344,note_off,,192,0,3,,,,,,0,53,64
361344,note_on,,0,0,1,,,,,,0,64,92
361344,note_on,,0,0,1,,,,,,0,60,92
361344,note_off,,0,0,1,,,,,,0,62,64
361536,note_on,,0,0,2,,,,,,0,50,92
361536,note_on,,0,0,2,,,,,,0,53,92
361536,note_off,,0,0,2,,,,,,0,52,64
361536,note_off,,192,0,2,,,,,,0,55,64
361536,note_off,,192,0,3,,,,,,0,52,64
361536,note_on,,0,0,3,,,,,,0,50,102
361536,note_off,,192,0,1,,,,,,0,64,64
361536,note_off,,0,0,1,,,,,,0,60,64
361536,note_on,,0,0,1,,,,,,0,59,92
361536,note_on,,0,0,1,,,,,,0,62,92
361728,note_on,,0,0,3,,,,,,0,48,102
361728,note_on,,0,0,2,,,,,,0,52,92
361728,note_on,,0,0,2,,,,,,0,48,92
361728,note_off,,0,0,2,,,,,,0,50,64
361728,note_off,,192,0,1,,,,,,0,62,64
361728,note_off,,192,0,2,,,,,,0,53,64
361728,note_on,,0,0,1,,,,,,0,57,92
361728,note_on,,0,0,1,,,,,,0,60,92
361728,note_off,,192,0,3,,,,,,0,50,64
361728,note_off,,0,0,1,,,,,,0,59,64
361920,note_off,,192,0,1,,,,,,0,60,64
361920,note_off,,0,0,1,,,,,,0,57,64
361920,note_on,,0,0,1,,,,,,0,56,92
361920,note_off,,192,0,2,,,,,,0,52,64
361920,note_off,,0,0,2,,,,,,0,48,64
361920,note_on,,0,0,2,,,,,,0,47,92
361920,note_on,,0,0,2,,,,,,0,50,92
361920,note_off,,192,0,3,,,,,,0,48,64
361920,note_on,,0,0,1,,,,,,0,59,92
361920,note_on,,0,0,3,,,,,,0,47,102
362112,note_off,,192,0,3,,,,,,0,47,64
362112,note_on,,0,0,3,,,,,,0,45,102
362112,note_on,,0,0,2,,,,,,0,48,92
362112,note_off,,192,0,1,,,,,,0,59,64
362112,note_off,,0,0,1,,,,,,0,56,64
362112,note_on,,0,0,1,,,,,,0,57,92
362112,note_off,,192,0,2,,,,,,0,50,64
362112,note_off,,0,0,2,,,,,,0,47,64
362112,note_on,,0,0,2,,,,,,0,45,92
362112,note_on,,0,0,2,,,,,,0,52,92
362496,note_off,,0,0,2,,,,,,0,45,64
362496,note_off,,0,0,2,,,,,,0,48,64
362496,note_off,,384,0,3,,,,,,0,45,64
362496,note_off,,384,0,1,,,,,,0,57,64
362496,note_off,,384,0,2,,,,,,0,52,64
362496,note_on,,0,0,1,,,,,,0,72,92
362496,note_on,,0,0,2,,,,,,0,60,92
362880,note_off,,384,0,2,,,,,,0,60,64
362880,note_off,,384,0,1,,,,,,0,72,64
362880,note_on,,0,0,1,,,,,,0,72,92
362880,note_on,,0,0,2,,,,,,0,60,92
363264,note_off,,384,0,1,,,,,,0,72,64
363264,note_on,,0,0,1,,,,,,0,74,92
363264,note_off,,384,0,2,,,,,,0,60,64
363264,note_on,,0,0,2,,,,,,0,62,92
363648,note_off,,384,0,1,,,,,,0,74,64
363648,note_on,,0,0,1,,,,,,0,76,92
363648,note_on,,0,0,2,,,,,,0,64,92
363648,note_off,,384,0,2,,,,,,0,62,64
364032,note_on,,0,0,1,,,,,,0,76,92
364032,note_off,,384,0,1,,,,,,0,76,64
364032,note_off,,384,0,2,,,,,,0,64,64
364032,note_on,,0,0,2,,,,,,0,64,92
364416,note_off,,384,0,2,,,,,,0,64,64
364416,note_off,,384,0,1,,,,,,0,76,64
364416,note_on,,0,0,2,,,,,,0,57,92
364416,note_on,,0,0,1,,,,,,0,69,92
364800,note_off,,384,0,1,,,,,,0,69,64
364800,note_on,,0,0,1,,,,,,0,60,92
364800,note_on,,0,0,2,,,,,,0,48,92
364800,note_off,,384,0,2,,,,,,0,57,64
364800,note_on,,2304,0,3,,,,,,0,48,102
365184,note_on,,0,0,1,,,,,,0,60,92
365184,note_on,,0,0,3,,,,,,0,48,102
365184,note_off,,384,0,3,,,,,,0,48,64
365184,note_on,,0,0,2,,,,,,0,48,92
365184,note_off,,384,0,2,,,,,,0,48,64
365184,note_off,,384,0,1,,,,,,0,60,64
365568,note_off,,384,0,1,,,,,,0,60,64
365568,note_on,,0,0,1,,,,,,0,62,92
365568,note_on,,0,0,3,,,,,,0,50,102
365568,note_on,,0,0,2,,,,,,0,50,92
365568,note_off,,384,0,2,,,,,,0,48,64
365568,note_off,,384,0,3,,,,,,0,48,64
365952,note_on,,0,0,3,,,,,,0,52,102
365952,note_off,,384,0,2,,,,,,0,50,64
365952,note_on,,0,0,2,,,,,,0,52,92
365952,note_off,,384,0,1,,,,,,0,62,64
365952,note_on,,0,0,1,,,,,,0,64,92
365952,note_off,,384,0,3,,,,,,0,50,64
366336,note_on,,0,0,1,,,,,,0,64,92
366336,note_off,,384,0,2,,,,,,0,52,64
366336,note_on,,0,0,2,,,,,,0,52,92
366336,note_on,,0,0,3,,,,,,0,52,102
366336,note_off,,384,0,3,,,,,,0,52,64
366336,note_off,,384,0,1,,,,,,0,64,64
366720,set_tempo,857140,169344,1,0,,,,,,,,
366720,note_off,,384,0,3,,,,,,0,52,64
366720,note_on,,0,0,3,,,,,,0,45,102
366720,note_off,,384,0,1,,,,,,0,64,64
366720,note_off,,384,0,2,,,,,,0,52,64
366720,note_on,,0,0,2,,,,,,0,45,92
366720,note_on,,0,0,1,,,,,,0,57,92
367872,end_of_track,,0,1,1,,,,,,,,
367872,end_of_track,,0,1,2,,,,,,,,
367872,note_off,,1152,0,2,,,,,,0,45,64
367872,note_off,,1152,0,3,,,,,,0,45,64
367872,note_off,,1152,0,1,,,,,,0,57,64
367872,end_of_track,,1152,1,0,,,,,,,,
367872,end_of_track,,0,1,3,,,,,,,,
