tick,type,tempo,time,meta,track,numerator,denominator,clocks_per_click,notated_32nd_notes_per_beat,program,channel,note,velocity
0,set_tempo,521730,0,1,0,,,,,,,,
0,program_change,,0,0,1,,,,,19,0,,
0,track_name,,0,1,1,,,,,,,,
0,track_name,,0,1,3,,,,,,,,
0,track_name,,0,1,2,,,,,,,,
0,note_on,,0,0,3,,,,,,0,41,100
0,note_on,,0,0,1,,,,,,0,65,92
0,time_signature,,0,1,0,12,8,24,8,,,,
48,note_on,,0,0,1,,,,,,0,64,92
48,note_off,,48,0,1,,,,,,0,65,64
96,note_on,,0,0,1,,,,,,0,65,92
96,note_off,,48,0,1,,,,,,0,64,64
576,note_on,,576,0,2,,,,,,0,53,92
768,note_on,,0,0,1,,,,,,0,69,92
768,note_off,,672,0,1,,,,,,0,65,64
960,note_on,,0,0,1,,,,,,0,60,92
960,note_off,,192,0,1,,,,,,0,69,64
1152,note_on,,0,0,1,,,,,,0,65,92
1152,note_off,,192,0,1,,,,,,0,60,64
1344,note_on,,0,0,2,,,,,,0,57,92
1344,note_off,,768,0,2,,,,,,0,53,64
1536,note_off,,192,0,2,,,,,,0,57,64
1536,note_on,,0,0,2,,,,,,0,48,92
1728,note_off,,192,0,2,,,,,,0,48,64
1728,note_on,,0,0,2,,,,,,0,53,92
1920,note_off,,768,0,1,,,,,,0,65,64
1920,note_on,,0,0,1,,,,,,0,69,92
2112,note_off,,192,0,1,,,,,,0,69,64
2112,note_on,,0,0,1,,,,,,0,67,92
2304,note_off,,192,0,1,,,,,,0,67,64
2304,note_on,,0,0,1,,,,,,0,69,92
2496,note_on,,0,0,2,,,,,,0,57,92
2496,note_off,,768,0,2,,,,,,0,53,64
2496,note_on,,0,0,1,,,,,,0,72,92
2496,note_off,,192,0,1,,,,,,0,69,64
2688,note_on,,0,0,2,,,,,,0,55,92
2688,note_off,,192,0,2,,,,,,0,57,64
2688,note_on,,0,0,1,,,,,,0,70,92
2688,note_off,,192,0,1,,,,,,0,72,64
2880,note_on,,0,0,2,,,,,,0,57,92
2880,note_off,,192,0,2,,,,,,0,55,64
2880,note_on,,0,0,1,,,,,,0,72,92
2880,note_off,,192,0,1,,,,,,0,70,64
3072,note_on,,0,0,1,,,,,,0,77,92
3072,note_off,,192,0,2,,,,,,0,57,64
3072,note_on,,0,0,2,,,,,,0,60,92
3072,note_off,,192,0,1,,,,,,0,72,64
3264,note_off,,192,0,1,,,,,,0,77,64
3264,note_on,,0,0,1,,,,,,0,72,92
3264,note_off,,192,0,2,,,,,,0,60,64
3264,note_on,,0,0,2,,,,,,0,57,92
3456,note_off,,192,0,1,,,,,,0,72,64
3456,note_on,,0,0,1,,,,,,0,74,92
3456,note_on,,0,0,2,,,,,,0,58,92
3456,note_off,,192,0,2,,,,,,0,57,64
3504,note_off,,48,0,1,,,,,,0,74,64
3504,note_on,,0,0,1,,,,,,0,76,92
3552,note_off,,48,0,1,,,,,,0,76,64
3552,note_on,,0,0,1,,,,,,0,74,92
3648,note_off,,96,0,1,,,,,,0,74,64
3648,note_on,,0,0,1,,,,,,0,72,92
3840,note_off,,192,0,1,,,,,,0,72,64
3840,note_on,,0,0,1,,,,,,0,74,92
4032,note_off,,192,0,1,,,,,,0,74,64
4032,note_on,,0,0,1,,,,,,0,72,92
4224,note_off,,768,0,2,,,,,,0,58,64
4224,note_on,,0,0,2,,,,,,0,57,92
4416,note_off,,192,0,2,,,,,,0,57,64
4416,note_on,,0,0,2,,,,,,0,55,92
4608,note_off,,192,0,2,,,,,,0,55,64
4608,note_on,,0,0,2,,,,,,0,57,92
4800,note_off,,768,0,1,,,,,,0,72,64
4800,note_on,,0,0,1,,,,,,0,77,92
4992,note_off,,192,0,1,,,,,,0,77,64
4992,note_off,,384,0,2,,,,,,0,57,64
4992,note_on,,0,0,1,,,,,,0,69,92
4992,note_on,,0,0,2,,,,,,0,60,92
5184,note_on,,0,0,1,,,,,,0,70,92
5184,note_off,,192,0,1,,,,,,0,69,64
5184,note_on,,0,0,2,,,,,,0,62,92
5184,note_off,,192,0,2,,,,,,0,60,64
5376,note_on,,0,0,1,,,,,,0,77,92
5376,note_off,,192,0,1,,,,,,0,70,64
5568,note_on,,0,0,2,,,,,,0,60,92
5568,note_on,,0,0,1,,,,,,0,69,92
5568,note_off,,192,0,1,,,,,,0,77,64
5568,note_off,,384,0,2,,,,,,0,62,64
5760,note_off,,192,0,2,,,,,,0,60,64
5760,note_on,,0,0,2,,,,,,0,58,92
5760,note_off,,192,0,1,,,,,,0,69,64
5760,note_on,,0,0,1,,,,,,0,67,92
5952,note_off,,192,0,1,,,,,,0,67,64
5952,note_on,,0,0,1,,,,,,0,77,92
6144,note_on,,0,0,1,,,,,,0,64,92
6144,note_off,,192,0,1,,,,,,0,77,64
6144,note_off,,384,0,2,,,,,,0,58,64
6144,note_on,,0,0,1,,,,,,0,67,92
6144,note_on,,0,0,2,,,,,,0,58,92
6336,note_off,,192,0,2,,,,,,0,58,64
6336,note_on,,0,0,2,,,,,,0,60,92
6336,note_off,,0,0,1,,,,,,0,64,64
6336,note_off,,192,0,1,,,,,,0,67,64
6336,note_on,,0,0,1,,,,,,0,65,92
6336,note_on,,0,0,1,,,,,,0,69,92
6528,note_off,,192,0,1,,,,,,0,69,64
6528,note_on,,0,0,1,,,,,,0,77,92
6720,note_off,,384,0,2,,,,,,0,60,64
6720,note_off,,192,0,1,,,,,,0,77,64
6720,note_off,,0,0,1,,,,,,0,65,64
6720,note_on,,0,0,1,,,,,,0,64,92
6720,note_on,,0,0,1,,,,,,0,67,92
6720,note_on,,0,0,2,,,,,,0,58,92
6912,note_on,,0,0,2,,,,,,0,60,92
6912,note_on,,0,0,2,,,,,,0,57,92
6912,note_off,,192,0,2,,,,,,0,58,64
6912,note_off,,192,0,1,,,,,,0,67,64
6912,note_on,,0,0,1,,,,,,0,65,92
6912,note_off,,0,0,1,,,,,,0,64,64
7104,note_off,,192,0,1,,,,,,0,65,64
7104,note_on,,0,0,1,,,,,,0,77,92
7296,note_off,,0,0,2,,,,,,0,57,64
7296,note_off,,384,0,2,,,,,,0,60,64
7296,note_on,,0,0,2,,,,,,0,57,92
7296,note_on,,0,0,1,,,,,,0,65,92
7296,note_off,,192,0,1,,,,,,0,77,64
7296,note_on,,0,0,2,,,,,,0,60,92
7488,note_off,,192,0,2,,,,,,0,60,64
7488,note_off,,0,0,2,,,,,,0,57,64
7488,note_on,,0,0,2,,,,,,0,58,92
7488,note_on,,0,0,2,,,,,,0,55,92
7488,note_off,,192,0,1,,,,,,0,65,64
7488,note_on,,0,0,1,,,,,,0,64,92
7680,note_off,,192,0,1,,,,,,0,64,64
7680,note_on,,0,0,1,,,,,,0,65,92
7872,note_on,,0,0,1,,,,,,0,67,92
7872,note_off,,384,0,2,,,,,,0,55,64
7872,note_on,,0,0,2,,,,,,0,53,92
7872,note_off,,192,0,1,,,,,,0,65,64
8064,note_off,,192,0,2,,,,,,0,53,64
8064,note_on,,0,0,2,,,,,,0,52,92
8064,note_off,,192,0,1,,,,,,0,67,64
8064,note_on,,0,0,1,,,,,,0,60,92
8256,note_off,,192,0,2,,,,,,0,58,64
8256,note_on,,0,0,2,,,,,,0,57,92
8448,note_off,,192,0,2,,,,,,0,57,64
8448,note_on,,0,0,2,,,,,,0,58,92
8640,note_on,,0,0,2,,,,,,0,58,92
8640,note_off,,192,0,2,,,,,,0,58,64
8832,note_off,,192,0,2,,,,,,0,58,64
8832,note_on,,0,0,2,,,,,,0,57,92
9024,note_off,,192,0,2,,,,,,0,57,64
9024,note_on,,0,0,2,,,,,,0,58,92
9216,note_on,,0,0,2,,,,,,0,53,92
9216,note_off,,192,0,2,,,,,,0,58,64
9216,note_off,,0,0,2,,,,,,0,52,64
9216,note_on,,0,0,2,,,,,,0,57,92
9408,note_off,,1344,0,1,,,,,,0,60,64
9408,note_on,,0,0,1,,,,,,0,64,92
9600,note_off,,192,0,1,,,,,,0,64,64
9600,note_on,,0,0,1,,,,,,0,65,92
9792,note_on,,0,0,2,,,,,,0,58,92
9792,note_off,,576,0,2,,,,,,0,57,64
9792,note_off,,192,0,1,,,,,,0,65,64
9792,note_on,,0,0,1,,,,,,0,62,92
9984,note_off,,192,0,1,,,,,,0,62,64
9984,note_on,,0,0,1,,,,,,0,64,92
10176,note_off,,192,0,1,,,,,,0,64,64
10176,note_on,,0,0,1,,,,,,0,65,92
10368,note_off,,192,0,1,,,,,,0,65,64
10368,note_on,,0,0,1,,,,,,0,60,92
10368,note_on,,0,0,2,,,,,,0,57,92
10368,note_off,,576,0,2,,,,,,0,58,64
10560,note_off,,192,0,1,,,,,,0,60,64
10560,note_on,,0,0,1,,,,,,0,62,92
10752,note_off,,192,0,1,,,,,,0,62,64
10752,note_on,,0,0,1,,,,,,0,65,92
10944,note_off,,0,0,2,,,,,,0,53,64
10944,note_off,,192,0,1,,,,,,0,65,64
10944,note_on,,0,0,1,,,,,,0,58,92
10944,note_off,,576,0,2,,,,,,0,57,64
10944,note_on,,0,0,2,,,,,,0,55,92
11136,note_off,,192,0,1,,,,,,0,58,64
11136,note_on,,0,0,1,,,,,,0,64,92
11328,note_off,,192,0,1,,,,,,0,64,64
11328,note_on,,0,0,1,,,,,,0,65,92
11520,note_on,,0,0,2,,,,,,0,53,92
11520,note_off,,576,0,2,,,,,,0,55,64
11520,note_on,,0,0,2,,,,,,0,57,92
11520,note_off,,192,0,1,,,,,,0,65,64
11712,note_off,,192,0,2,,,,,,0,53,64
11712,note_on,,0,0,2,,,,,,0,52,92
11904,note_off,,192,0,2,,,,,,0,52,64
11904,note_on,,0,0,2,,,,,,0,53,92
12096,note_off,,192,0,2,,,,,,0,53,64
12096,note_off,,0,0,2,,,,,,0,57,64
12096,note_on,,0,0,2,,,,,,0,58,92
12096,note_on,,0,0,2,,,,,,0,50,92
12288,note_off,,192,0,2,,,,,,0,50,64
12288,note_on,,0,0,2,,,,,,0,52,92
12480,note_off,,192,0,2,,,,,,0,52,64
12480,note_on,,0,0,2,,,,,,0,53,92
12672,note_off,,192,0,2,,,,,,0,53,64
12672,note_off,,0,0,2,,,,,,0,58,64
12672,note_on,,0,0,2,,,,,,0,57,92
12672,note_on,,0,0,2,,,,,,0,48,92
12864,note_off,,192,0,2,,,,,,0,48,64
12864,note_on,,0,0,2,,,,,,0,52,92
13056,note_off,,192,0,2,,,,,,0,52,64
13056,note_on,,0,0,2,,,,,,0,53,92
13248,note_off,,192,0,2,,,,,,0,53,64
13248,note_off,,0,0,2,,,,,,0,57,64
13248,note_on,,0,0,2,,,,,,0,55,92
13248,note_on,,0,0,2,,,,,,0,46,92
13440,note_off,,192,0,2,,,,,,0,46,64
13440,note_on,,0,0,2,,,,,,0,52,92
13632,note_off,,192,0,2,,,,,,0,52,64
13632,note_on,,0,0,2,,,,,,0,53,92
13824,note_off,,192,0,2,,,,,,0,53,64
13824,note_off,,0,0,2,,,,,,0,55,64
13824,note_on,,0,0,2,,,,,,0,45,92
13824,note_on,,0,0,2,,,,,,0,53,92
14016,note_on,,0,0,2,,,,,,0,65,92
14016,note_off,,192,0,2,,,,,,0,53,64
14208,note_on,,0,0,2,,,,,,0,55,92
14208,note_on,,0,0,2,,,,,,0,46,92
14208,note_off,,0,0,2,,,,,,0,45,64
14208,note_off,,192,0,2,,,,,,0,65,64
14400,note_off,,192,0,2,,,,,,0,55,64
14400,note_off,,0,0,2,,,,,,0,46,64
14400,note_on,,0,0,2,,,,,,0,48,92
14400,note_on,,0,0,2,,,,,,0,57,92
14592,note_off,,192,0,2,,,,,,0,57,64
14592,note_on,,0,0,2,,,,,,0,65,92
14784,note_off,,192,0,2,,,,,,0,65,64
14784,note_on,,0,0,2,,,,,,0,50,92
14784,note_off,,0,0,2,,,,,,0,48,64
14784,note_on,,0,0,2,,,,,,0,58,92
14976,note_off,,192,0,2,,,,,,0,58,64
14976,note_on,,0,0,2,,,,,,0,60,92
14976,note_off,,0,0,2,,,,,,0,50,64
14976,note_on,,0,0,2,,,,,,0,51,92
15168,note_off,,192,0,2,,,,,,0,60,64
15168,note_on,,0,0,2,,,,,,0,65,92
15360,note_off,,192,0,2,,,,,,0,65,64
15360,note_off,,0,0,2,,,,,,0,51,64
15360,note_on,,0,0,2,,,,,,0,50,92
15360,note_on,,0,0,2,,,,,,0,58,92
15552,note_off,,0,0,2,,,,,,0,50,64
15552,note_on,,0,0,2,,,,,,0,51,92
15552,note_on,,0,0,2,,,,,,0,60,92
15552,note_off,,192,0,2,,,,,,0,58,64
15744,note_off,,192,0,2,,,,,,0,60,64
15744,note_off,,0,0,2,,,,,,0,51,64
15744,note_on,,0,0,2,,,,,,0,50,92
15744,note_on,,0,0,2,,,,,,0,58,92
15936,note_off,,0,0,2,,,,,,0,50,64
15936,note_off,,192,0,2,,,,,,0,58,64
15936,note_on,,0,0,2,,,,,,0,48,92
15936,note_on,,0,0,2,,,,,,0,57,92
16128,note_off,,192,0,2,,,,,,0,57,64
16128,note_off,,0,0,2,,,,,,0,48,64
16128,note_on,,0,0,2,,,,,,0,58,92
16128,note_on,,0,0,2,,,,,,0,50,92
16320,note_on,,4800,0,1,,,,,,0,70,92
16320,note_off,,192,0,2,,,,,,0,58,64
16512,note_off,,192,0,1,,,,,,0,70,64
16512,note_on,,0,0,2,,,,,,0,52,92
16512,note_on,,0,0,1,,,,,,0,60,92
16512,note_off,,192,0,2,,,,,,0,50,64
16704,note_on,,0,0,1,,,,,,0,62,92
16704,note_off,,192,0,1,,,,,,0,60,64
16704,note_off,,192,0,2,,,,,,0,52,64
16704,note_on,,0,0,2,,,,,,0,53,92
16896,note_on,,0,0,1,,,,,,0,70,92
16896,note_off,,192,0,1,,,,,,0,62,64
17088,note_on,,0,0,1,,,,,,0,64,92
17088,note_off,,192,0,1,,,,,,0,70,64
17088,note_on,,0,0,2,,,,,,0,55,92
17088,note_off,,384,0,2,,,,,,0,53,64
17280,note_on,,0,0,1,,,,,,0,65,92
17280,note_on,,0,0,2,,,,,,0,56,92
17280,note_off,,192,0,2,,,,,,0,55,64
17280,note_off,,192,0,1,,,,,,0,64,64
17472,note_off,,192,0,1,,,,,,0,65,64
17472,note_on,,0,0,1,,,,,,0,70,92
17664,note_on,,0,0,1,,,,,,0,64,92
17664,note_off,,384,0,2,,,,,,0,56,64
17664,note_on,,0,0,2,,,,,,0,55,92
17664,note_off,,192,0,1,,,,,,0,70,64
17856,note_off,,192,0,1,,,,,,0,64,64
17856,note_off,,192,0,2,,,,,,0,55,64
17856,note_on,,0,0,2,,,,,,0,56,92
17856,note_on,,0,0,1,,,,,,0,65,92
18048,note_off,,192,0,2,,,,,,0,56,64
18048,note_on,,0,0,1,,,,,,0,64,92
18048,note_off,,192,0,1,,,,,,0,65,64
18048,note_on,,0,0,2,,,,,,0,55,92
18240,note_on,,0,0,2,,,,,,0,53,92
18240,note_off,,192,0,1,,,,,,0,64,64
18240,note_on,,0,0,1,,,,,,0,62,92
18240,note_off,,192,0,2,,,,,,0,55,64
18432,note_on,,0,0,1,,,,,,0,64,92
18432,note_off,,192,0,2,,,,,,0,53,64
18432,note_on,,0,0,2,,,,,,0,55,92
18432,note_off,,192,0,1,,,,,,0,62,64
18624,note_on,,0,0,1,,,,,,0,70,92
18624,note_off,,192,0,1,,,,,,0,64,64
18816,note_off,,192,0,1,,,,,,0,70,64
18816,note_on,,0,0,1,,,,,,0,65,92
18816,note_on,,0,0,2,,,,,,0,57,92
18816,note_off,,384,0,2,,,,,,0,55,64
19008,note_off,,192,0,2,,,,,,0,57,64
19008,note_on,,0,0,1,,,,,,0,67,92
19008,note_off,,192,0,1,,,,,,0,65,64
19008,note_on,,0,0,2,,,,,,0,58,92
19200,note_on,,0,0,1,,,,,,0,70,92
19200,note_off,,192,0,1,,,,,,0,67,64
19392,note_on,,0,0,1,,,,,,0,69,92
19392,note_off,,192,0,1,,,,,,0,70,64
19392,note_on,,0,0,2,,,,,,0,60,92
19392,note_off,,384,0,2,,,,,,0,58,64
19584,note_on,,0,0,1,,,,,,0,70,92
19584,note_off,,192,0,2,,,,,,0,60,64
19584,note_off,,192,0,1,,,,,,0,69,64
19776,note_off,,192,0,1,,,,,,0,70,64
19776,note_on,,0,0,1,,,,,,0,79,92
19968,note_off,,192,0,1,,,,,,0,79,64
19968,note_on,,0,0,1,,,,,,0,60,92
19968,note_on,,0,0,1,,,,,,0,69,92
20160,note_on,,0,0,1,,,,,,0,62,92
20160,note_off,,192,0,1,,,,,,0,69,64
20160,note_off,,0,0,1,,,,,,0,60,64
20160,note_on,,0,0,1,,,,,,0,70,92
20352,note_off,,192,0,1,,,,,,0,70,64
20352,note_on,,0,0,1,,,,,,0,69,92
20544,note_off,,192,0,1,,,,,,0,69,64
20544,note_off,,0,0,1,,,,,,0,62,64
20544,note_on,,0,0,1,,,,,,0,67,92
20544,note_on,,0,0,1,,,,,,0,64,92
20736,note_off,,192,0,1,,,,,,0,67,64
20736,note_off,,0,0,1,,,,,,0,64,64
20736,note_on,,0,0,1,,,,,,0,65,92
20736,note_on,,0,0,1,,,,,,0,69,92
20928,note_off,,192,0,1,,,,,,0,69,64
20928,note_off,,0,0,1,,,,,,0,65,64
20928,note_on,,0,0,1,,,,,,0,67,92
20928,note_on,,0,0,1,,,,,,0,70,92
21120,note_on,,0,0,1,,,,,,0,72,92
21120,note_off,,0,0,1,,,,,,0,67,64
21120,note_on,,0,0,1,,,,,,0,69,92
21120,note_off,,192,0,1,,,,,,0,70,64
21312,note_on,,0,0,1,,,,,,0,67,92
21312,note_on,,0,0,1,,,,,,0,70,92
21312,note_off,,192,0,1,,,,,,0,72,64
21312,note_off,,0,0,1,,,,,,0,69,64
21504,note_on,,0,0,1,,,,,,0,72,92
21504,note_on,,0,0,1,,,,,,0,69,92
21504,note_off,,0,0,1,,,,,,0,67,64
21504,note_off,,192,0,1,,,,,,0,70,64
21696,note_on,,0,0,1,,,,,,0,69,92
21696,note_off,,0,0,1,,,,,,0,69,64
21696,note_off,,192,0,1,,,,,,0,72,64
21696,note_on,,0,0,1,,,,,,0,65,92
21888,note_off,,192,0,1,,,,,,0,69,64
21888,note_off,,0,0,1,,,,,,0,65,64
21888,note_on,,0,0,1,,,,,,0,65,92
21888,note_on,,0,0,1,,,,,,0,69,92
21888,note_off,,21888,0,3,,,,,,0,41,64
21888,note_on,,0,0,3,,,,,,0,48,100
21936,note_off,,48,0,1,,,,,,0,69,64
21936,note_on,,0,0,1,,,,,,0,70,92
21984,note_off,,48,0,1,,,,,,0,70,64
21984,note_on,,0,0,1,,,,,,0,69,92
22080,note_off,,96,0,1,,,,,,0,69,64
22080,note_on,,0,0,1,,,,,,0,67,92
22272,note_on,,0,0,1,,,,,,0,69,92
22272,note_off,,192,0,1,,,,,,0,67,64
22464,note_on,,0,0,1,,,,,,0,67,92
22464,note_off,,192,0,1,,,,,,0,69,64
22656,note_off,,192,0,1,,,,,,0,65,64
22656,note_on,,0,0,1,,,,,,0,64,92
22848,note_off,,192,0,1,,,,,,0,64,64
22848,note_on,,0,0,1,,,,,,0,62,92
23040,note_on,,0,0,1,,,,,,0,79,92
23040,note_off,,192,0,1,,,,,,0,62,64
23040,note_off,,0,0,1,,,,,,0,67,64
23040,note_on,,3456,0,2,,,,,,0,60,92
23040,note_on,,0,0,1,,,,,,0,64,92
23616,note_off,,576,0,1,,,,,,0,64,64
23616,note_on,,0,0,1,,,,,,0,72,92
23808,note_off,,768,0,2,,,,,,0,60,64
23808,note_on,,0,0,2,,,,,,0,64,92
24000,note_off,,192,0,2,,,,,,0,64,64
24000,note_on,,0,0,2,,,,,,0,55,92
24192,note_off,,192,0,2,,,,,,0,55,64
24192,note_on,,0,0,2,,,,,,0,60,92
24384,note_off,,768,0,1,,,,,,0,72,64
24384,note_on,,0,0,1,,,,,,0,76,92
24576,note_on,,0,0,1,,,,,,0,67,92
24576,note_off,,192,0,1,,,,,,0,76,64
24768,note_off,,192,0,1,,,,,,0,67,64
24768,note_on,,0,0,1,,,,,,0,72,92
24960,note_off,,768,0,2,,,,,,0,60,64
24960,note_on,,0,0,2,,,,,,0,64,92
25152,note_off,,192,0,2,,,,,,0,64,64
25152,note_on,,0,0,2,,,,,,0,62,92
25344,note_off,,192,0,2,,,,,,0,62,64
25344,note_on,,0,0,2,,,,,,0,64,92
25536,note_off,,768,0,1,,,,,,0,72,64
25536,note_on,,0,0,2,,,,,,0,67,92
25536,note_on,,0,0,1,,,,,,0,76,92
25536,note_off,,192,0,2,,,,,,0,64,64
25728,note_off,,192,0,2,,,,,,0,67,64
25728,note_on,,0,0,2,,,,,,0,65,92
25728,note_on,,0,0,1,,,,,,0,74,92
25728,note_off,,192,0,1,,,,,,0,76,64
25920,note_on,,0,0,1,,,,,,0,76,92
25920,note_on,,0,0,1,,,,,,0,84,92
25920,note_off,,192,0,1,,,,,,0,74,64
25920,note_on,,0,0,2,,,,,,0,67,92
25920,note_off,,0,0,1,,,,,,0,79,64
25920,note_off,,192,0,2,,,,,,0,65,64
26112,note_off,,192,0,2,,,,,,0,67,64
26112,note_on,,0,0,2,,,,,,0,72,92
26112,note_on,,0,0,1,,,,,,0,79,92
26112,note_off,,192,0,1,,,,,,0,76,64
26304,note_off,,192,0,2,,,,,,0,72,64
26304,note_on,,0,0,2,,,,,,0,67,92
26304,note_on,,0,0,1,,,,,,0,76,92
26304,note_off,,192,0,1,,,,,,0,79,64
26496,note_off,,192,0,1,,,,,,0,76,64
26496,note_on,,0,0,1,,,,,,0,77,92
26496,note_on,,0,0,2,,,,,,0,69,92
26496,note_off,,192,0,2,,,,,,0,67,64
26544,note_off,,48,0,2,,,,,,0,69,64
26544,note_on,,0,0,2,,,,,,0,70,92
26592,note_off,,48,0,2,,,,,,0,70,64
26592,note_on,,0,0,2,,,,,,0,69,92
26688,note_on,,0,0,2,,,,,,0,67,92
26688,note_off,,96,0,2,,,,,,0,69,64
26880,note_on,,0,0,2,,,,,,0,69,92
26880,note_off,,192,0,2,,,,,,0,67,64
27072,note_on,,0,0,2,,,,,,0,67,92
27072,note_off,,192,0,2,,,,,,0,69,64
27264,note_off,,768,0,1,,,,,,0,77,64
27264,note_on,,0,0,1,,,,,,0,76,92
27456,note_off,,192,0,1,,,,,,0,76,64
27456,note_on,,0,0,1,,,,,,0,74,92
27648,note_off,,192,0,1,,,,,,0,74,64
27648,note_on,,0,0,1,,,,,,0,76,92
27840,note_off,,768,0,2,,,,,,0,67,64
27840,note_on,,0,0,2,,,,,,0,72,92
28032,note_off,,384,0,1,,,,,,0,76,64
28032,note_on,,0,0,1,,,,,,0,79,92
28032,note_on,,0,0,2,,,,,,0,64,92
28032,note_off,,192,0,2,,,,,,0,72,64
28224,note_off,,192,0,1,,,,,,0,79,64
28224,note_on,,0,0,1,,,,,,0,81,92
28224,note_off,,192,0,2,,,,,,0,64,64
28224,note_on,,0,0,2,,,,,,0,65,92
28416,note_off,,192,0,2,,,,,,0,65,64
28416,note_on,,0,0,2,,,,,,0,72,92
28608,note_on,,0,0,2,,,,,,0,64,92
28608,note_off,,192,0,2,,,,,,0,72,64
28608,note_off,,384,0,1,,,,,,0,81,64
28608,note_on,,0,0,1,,,,,,0,79,92
28800,note_off,,192,0,2,,,,,,0,64,64
28800,note_on,,0,0,2,,,,,,0,62,92
28800,note_off,,192,0,1,,,,,,0,79,64
28800,note_on,,0,0,1,,,,,,0,77,92
28992,note_on,,0,0,2,,,,,,0,72,92
28992,note_off,,192,0,2,,,,,,0,62,64
29184,note_on,,0,0,1,,,,,,0,77,92
29184,note_off,,384,0,1,,,,,,0,77,64
29184,note_on,,0,0,1,,,,,,0,83,92
29184,note_off,,192,0,2,,,,,,0,72,64
29184,note_on,,0,0,2,,,,,,0,62,92
29184,note_off,,0,0,1,,,,,,0,84,64
29376,note_on,,0,0,1,,,,,,0,79,92
29376,note_on,,0,0,1,,,,,,0,84,92
29376,note_off,,192,0,2,,,,,,0,62,64
29376,note_on,,0,0,2,,,,,,0,64,92
29376,note_off,,192,0,1,,,,,,0,77,64
29376,note_off,,0,0,1,,,,,,0,83,64
29568,note_off,,192,0,2,,,,,,0,64,64
29568,note_on,,0,0,2,,,,,,0,72,92
29760,note_off,,384,0,1,,,,,,0,79,64
29760,note_off,,0,0,1,,,,,,0,84,64
29760,note_on,,0,0,1,,,,,,0,77,92
29760,note_on,,0,0,2,,,,,,0,62,92
29760,note_off,,192,0,2,,,,,,0,72,64
29760,note_on,,0,0,1,,,,,,0,83,92
29952,note_on,,0,0,1,,,,,,0,76,92
29952,note_on,,0,0,1,,,,,,0,84,92
29952,note_off,,0,0,1,,,,,,0,83,64
29952,note_off,,192,0,1,,,,,,0,77,64
29952,note_on,,0,0,2,,,,,,0,60,92
29952,note_off,,192,0,2,,,,,,0,62,64
30144,note_on,,0,0,2,,,,,,0,72,92
30144,note_off,,192,0,2,,,,,,0,60,64
30336,note_on,,0,0,2,,,,,,0,60,92
30336,note_off,,192,0,2,,,,,,0,72,64
30336,note_off,,0,0,1,,,,,,0,84,64
30336,note_on,,0,0,1,,,,,,0,76,92
30336,note_off,,384,0,1,,,,,,0,76,64
30528,note_on,,0,0,1,,,,,,0,74,92
30528,note_on,,0,0,2,,,,,,0,58,92
30528,note_off,,192,0,1,,,,,,0,76,64
30528,note_off,,192,0,2,,,,,,0,60,64
30528,note_on,,0,0,1,,,,,,0,77,92
30720,note_on,,0,0,1,,,,,,0,76,92
30720,note_on,,192,0,2,,,,,,0,60,92
30720,note_off,,192,0,1,,,,,,0,77,64
30912,note_off,,192,0,1,,,,,,0,76,64
30912,note_on,,0,0,1,,,,,,0,77,92
30912,note_off,,192,0,2,,,,,,0,60,64
30912,note_on,,0,0,2,,,,,,0,62,92
31104,note_on,,0,0,2,,,,,,0,59,92
31104,note_off,,192,0,2,,,,,,0,62,64
31104,note_off,,0,0,2,,,,,,0,58,64
31104,note_on,,0,0,2,,,,,,0,55,92
31296,note_off,,384,0,1,,,,,,0,77,64
31296,note_on,,0,0,1,,,,,,0,83,92
31488,note_off,,0,0,1,,,,,,0,74,64
31488,note_off,,192,0,1,,,,,,0,83,64
31488,note_on,,0,0,1,,,,,,0,77,92
31488,note_on,,0,0,1,,,,,,0,74,92
31680,note_off,,192,0,1,,,,,,0,77,64
31680,note_on,,0,0,1,,,,,,0,74,92
31680,note_on,,0,0,1,,,,,,0,77,92
31680,note_off,,0,0,1,,,,,,0,74,64
31872,note_off,,192,0,1,,,,,,0,77,64
31872,note_on,,0,0,1,,,,,,0,76,92
32064,note_off,,192,0,1,,,,,,0,76,64
32064,note_on,,0,0,1,,,,,,0,77,92
32064,note_on,,0,0,1,,,,,,0,74,92
32064,note_off,,0,0,1,,,,,,0,74,64
32256,note_on,,0,0,2,,,,,,0,60,92
32256,note_off,,1152,0,2,,,,,,0,59,64
32256,note_on,,0,0,1,,,,,,0,72,92
32256,note_off,,0,0,1,,,,,,0,74,64
32256,note_off,,192,0,1,,,,,,0,77,64
32256,note_on,,0,0,1,,,,,,0,76,92
32448,note_off,,192,0,2,,,,,,0,60,64
32448,note_on,,0,0,2,,,,,,0,59,92
32448,note_off,,0,0,2,,,,,,0,55,64
32640,note_off,,192,0,2,,,,,,0,59,64
32640,note_on,,0,0,2,,,,,,0,60,92
32832,note_off,,576,0,1,,,,,,0,72,64
32832,note_off,,192,0,2,,,,,,0,60,64
32832,note_on,,0,0,2,,,,,,0,57,92
32832,note_off,,0,0,1,,,,,,0,76,64
32832,note_on,,0,0,1,,,,,,0,77,92
33024,note_on,,0,0,2,,,,,,0,59,92
33024,note_off,,192,0,2,,,,,,0,57,64
33216,note_on,,0,0,2,,,,,,0,60,92
33216,note_off,,192,0,2,,,,,,0,59,64
33408,note_on,,0,0,2,,,,,,0,55,92
33408,note_off,,576,0,1,,,,,,0,77,64
33408,note_off,,192,0,2,,,,,,0,60,64
33408,note_on,,0,0,1,,,,,,0,76,92
33600,note_off,,192,0,2,,,,,,0,55,64
33600,note_on,,0,0,2,,,,,,0,59,92
33792,note_off,,192,0,2,,,,,,0,59,64
33792,note_on,,0,0,2,,,,,,0,60,92
33984,note_off,,192,0,2,,,,,,0,60,64
33984,note_on,,0,0,2,,,,,,0,53,92
33984,note_on,,0,0,1,,,,,,0,74,92
33984,note_off,,576,0,1,,,,,,0,76,64
34176,note_on,,0,0,2,,,,,,0,59,92
34176,note_off,,192,0,2,,,,,,0,53,64
34368,note_off,,192,0,2,,,,,,0,59,64
34368,note_on,,0,0,2,,,,,,0,60,92
34560,note_off,,576,0,1,,,,,,0,74,64
34560,note_on,,0,0,1,,,,,,0,72,92
34560,note_off,,192,0,2,,,,,,0,60,64
34560,note_on,,0,0,2,,,,,,0,52,92
34752,note_off,,192,0,1,,,,,,0,72,64
34752,note_on,,0,0,1,,,,,,0,71,92
34944,note_off,,192,0,1,,,,,,0,71,64
34944,note_on,,0,0,1,,,,,,0,72,92
35136,note_on,,0,0,1,,,,,,0,69,92
35136,note_off,,192,0,1,,,,,,0,72,64
35136,note_on,,0,0,2,,,,,,0,53,92
35136,note_off,,576,0,2,,,,,,0,52,64
35328,note_on,,0,0,1,,,,,,0,71,92
35328,note_off,,192,0,1,,,,,,0,69,64
35520,note_on,,0,0,1,,,,,,0,72,92
35520,note_off,,192,0,1,,,,,,0,71,64
35712,note_off,,192,0,1,,,,,,0,72,64
35712,note_on,,0,0,1,,,,,,0,67,92
35712,note_on,,0,0,2,,,,,,0,52,92
35712,note_off,,576,0,2,,,,,,0,53,64
35904,note_off,,192,0,1,,,,,,0,67,64
35904,note_on,,0,0,1,,,,,,0,71,92
36096,note_off,,192,0,1,,,,,,0,71,64
36096,note_on,,0,0,1,,,,,,0,72,92
36288,note_on,,0,0,2,,,,,,0,50,92
36288,note_off,,576,0,2,,,,,,0,52,64
36288,note_off,,192,0,1,,,,,,0,72,64
36288,note_on,,0,0,1,,,,,,0,65,92
36480,note_off,,192,0,1,,,,,,0,65,64
36480,note_on,,0,0,1,,,,,,0,71,92
36672,note_on,,0,0,1,,,,,,0,72,92
36672,note_off,,192,0,1,,,,,,0,71,64
36864,note_on,,0,0,2,,,,,,0,48,92
36864,note_off,,576,0,2,,,,,,0,50,64
36864,note_off,,192,0,1,,,,,,0,72,64
36864,note_on,,0,0,1,,,,,,0,64,92
37056,note_on,,0,0,2,,,,,,0,60,92
37056,note_off,,192,0,2,,,,,,0,48,64
37248,note_on,,0,0,2,,,,,,0,50,92
37248,note_off,,384,0,1,,,,,,0,64,64
37248,note_on,,0,0,1,,,,,,0,65,92
37248,note_off,,192,0,2,,,,,,0,60,64
37440,note_on,,0,0,1,,,,,,0,67,92
37440,note_off,,192,0,1,,,,,,0,65,64
37440,note_off,,192,0,2,,,,,,0,50,64
37440,note_on,,0,0,2,,,,,,0,52,92
37632,note_off,,192,0,2,,,,,,0,52,64
37632,note_on,,0,0,2,,,,,,0,60,92
37824,note_on,,0,0,1,,,,,,0,69,92
37824,note_off,,384,0,1,,,,,,0,67,64
37824,note_on,,0,0,2,,,,,,0,53,92
37824,note_off,,192,0,2,,,,,,0,60,64
38016,note_on,,0,0,2,,,,,,0,55,92
38016,note_off,,192,0,2,,,,,,0,53,64
38016,note_on,,0,0,1,,,,,,0,70,92
38016,note_off,,192,0,1,,,,,,0,69,64
38208,note_on,,0,0,2,,,,,,0,60,92
38208,note_off,,192,0,2,,,,,,0,55,64
38400,note_off,,384,0,1,,,,,,0,70,64
38400,note_on,,0,0,1,,,,,,0,69,92
38400,note_off,,192,0,2,,,,,,0,60,64
38400,note_on,,0,0,2,,,,,,0,53,92
38592,note_on,,0,0,2,,,,,,0,55,92
38592,note_on,,0,0,1,,,,,,0,70,92
38592,note_off,,192,0,2,,,,,,0,53,64
38592,note_off,,192,0,1,,,,,,0,69,64
38784,note_off,,192,0,1,,,,,,0,70,64
38784,note_on,,0,0,1,,,,,,0,69,92
38784,note_on,,0,0,2,,,,,,0,53,92
38784,note_off,,192,0,2,,,,,,0,55,64
38976,note_on,,0,0,2,,,,,,0,52,92
38976,note_off,,192,0,2,,,,,,0,53,64
38976,note_on,,0,0,1,,,,,,0,67,92
38976,note_off,,192,0,1,,,,,,0,69,64
39168,note_on,,0,0,2,,,,,,0,53,92
39168,note_off,,192,0,2,,,,,,0,52,64
39168,note_on,,0,0,1,,,,,,0,69,92
39168,note_off,,192,0,1,,,,,,0,67,64
39360,note_on,,0,0,2,,,,,,0,65,92
39360,note_off,,192,0,2,,,,,,0,53,64
39552,note_on,,0,0,1,,,,,,0,71,92
39552,note_off,,384,0,1,,,,,,0,69,64
39552,note_on,,0,0,2,,,,,,0,55,92
39552,note_off,,192,0,2,,,,,,0,65,64
39744,note_on,,0,0,2,,,,,,0,57,92
39744,note_off,,192,0,2,,,,,,0,55,64
39744,note_off,,192,0,1,,,,,,0,71,64
39744,note_on,,0,0,1,,,,,,0,72,92
39936,note_off,,192,0,2,,,,,,0,57,64
39936,note_on,,0,0,2,,,,,,0,65,92
40128,note_off,,384,0,1,,,,,,0,72,64
40128,note_off,,192,0,2,,,,,,0,65,64
40128,note_on,,0,0,2,,,,,,0,59,92
40128,note_on,,0,0,1,,,,,,0,74,92
40320,note_off,,192,0,1,,,,,,0,74,64
40320,note_on,,0,0,1,,,,,,0,75,92
40320,note_on,,0,0,2,,,,,,0,60,92
40320,note_off,,192,0,2,,,,,,0,59,64
40512,note_on,,0,0,2,,,,,,0,65,92
40512,note_off,,192,0,2,,,,,,0,60,64
40704,note_on,,0,0,1,,,,,,0,74,92
40704,note_off,,384,0,1,,,,,,0,75,64
40704,note_off,,192,0,2,,,,,,0,65,64
40704,note_on,,0,0,2,,,,,,0,59,92
40896,note_off,,192,0,2,,,,,,0,59,64
40896,note_on,,0,0,2,,,,,,0,60,92
40896,note_off,,192,0,1,,,,,,0,74,64
40896,note_on,,0,0,1,,,,,,0,75,92
41088,note_on,,0,0,1,,,,,,0,74,92
41088,note_on,,0,0,2,,,,,,0,59,92
41088,note_off,,192,0,2,,,,,,0,60,64
41088,note_off,,192,0,1,,,,,,0,75,64
41280,note_on,,0,0,1,,,,,,0,72,92
41280,note_on,,0,0,2,,,,,,0,57,92
41280,note_off,,192,0,2,,,,,,0,59,64
41280,note_off,,192,0,1,,,,,,0,74,64
41472,note_on,,0,0,1,,,,,,0,74,92
41472,note_off,,192,0,1,,,,,,0,72,64
41472,note_on,,0,0,2,,,,,,0,59,92
41472,note_off,,192,0,2,,,,,,0,57,64
41664,note_off,,192,0,2,,,,,,0,59,64
41664,note_on,,192,0,1,,,,,,0,65,92
41856,note_off,,192,0,1,,,,,,0,65,64
41856,note_off,,0,0,1,,,,,,0,74,64
41856,note_on,,0,0,1,,,,,,0,76,92
41856,note_on,,0,0,1,,,,,,0,60,92
42048,note_on,,0,0,1,,,,,,0,62,92
42048,note_on,,0,0,1,,,,,,0,77,92
42048,note_off,,192,0,1,,,,,,0,60,64
42048,note_off,,0,0,1,,,,,,0,76,64
42240,note_off,,192,0,1,,,,,,0,62,64
42240,note_on,,0,0,1,,,,,,0,65,92
42432,note_on,,0,0,1,,,,,,0,64,92
42432,note_off,,192,0,1,,,,,,0,65,64
42432,note_off,,0,0,1,,,,,,0,77,64
42432,note_on,,0,0,1,,,,,,0,79,92
42624,note_on,,0,0,1,,,,,,0,65,92
42624,note_on,,0,0,1,,,,,,0,81,92
42624,note_off,,0,0,1,,,,,,0,79,64
42624,note_off,,192,0,1,,,,,,0,64,64
42816,note_off,,192,0,1,,,,,,0,65,64
42816,note_on,,0,0,1,,,,,,0,74,92
43008,note_off,,192,0,1,,,,,,0,74,64
43008,note_off,,0,0,1,,,,,,0,81,64
43008,note_on,,0,0,1,,,,,,0,79,92
43008,note_on,,0,0,1,,,,,,0,64,92
43200,note_off,,0,0,1,,,,,,0,79,64
43200,note_on,,0,0,1,,,,,,0,81,92
43200,note_on,,0,0,1,,,,,,0,65,92
43200,note_off,,192,0,1,,,,,,0,64,64
43392,note_on,,0,0,1,,,,,,0,64,92
43392,note_off,,192,0,1,,,,,,0,65,64
43584,note_on,,0,0,1,,,,,,0,62,92
43584,note_on,,0,0,1,,,,,,0,83,92
43584,note_off,,0,0,1,,,,,,0,81,64
43584,note_off,,192,0,1,,,,,,0,64,64
43776,note_on,,0,0,1,,,,,,0,84,92
43776,note_off,,0,0,1,,,,,,0,83,64
43776,note_off,,192,0,1,,,,,,0,62,64
43776,note_on,,0,0,1,,,,,,0,64,92
43968,note_off,,192,0,1,,,,,,0,64,64
43968,note_on,,0,0,1,,,,,,0,65,92
44160,note_off,,192,0,1,,,,,,0,65,64
44160,note_off,,0,0,1,,,,,,0,84,64
44160,note_on,,0,0,1,,,,,,0,72,92
44160,note_on,,0,0,1,,,,,,0,67,92
44352,note_on,,0,0,1,,,,,,0,65,92
44352,note_on,,0,0,1,,,,,,0,74,92
44352,note_off,,192,0,1,,,,,,0,67,64
44352,note_off,,0,0,1,,,,,,0,72,64
44544,note_off,,192,0,1,,,,,,0,65,64
44544,note_off,,0,0,1,,,,,,0,74,64
44544,note_on,,0,0,1,,,,,,0,76,92
44544,note_on,,0,0,1,,,,,,0,67,92
44736,note_off,,192,0,1,,,,,,0,67,64
44736,note_off,,0,0,1,,,,,,0,76,64
44736,note_on,,0,0,1,,,,,,0,72,92
44736,note_on,,0,0,1,,,,,,0,64,92
44928,note_on,,0,0,1,,,,,,0,64,92
44928,note_on,,0,0,1,,,,,,0,72,92
44928,note_off,,23040,0,3,,,,,,0,48,64
44928,note_off,,192,0,1,,,,,,0,64,64
44928,note_on,,0,0,3,,,,,,0,43,100
44928,note_off,,0,0,1,,,,,,0,72,64
45120,note_off,,192,0,1,,,,,,0,64,64
45120,note_on,,0,0,1,,,,,,0,62,92
45312,note_on,,0,0,1,,,,,,0,64,92
45312,note_off,,192,0,1,,,,,,0,62,64
45504,note_off,,192,0,1,,,,,,0,64,64
45504,note_on,,0,0,1,,,,,,0,62,92
45696,note_off,,192,0,1,,,,,,0,72,64
45696,note_on,,0,0,1,,,,,,0,71,92
45888,note_off,,192,0,1,,,,,,0,71,64
45888,note_on,,0,0,1,,,,,,0,69,92
46080,note_off,,192,0,1,,,,,,0,69,64
46080,note_on,,0,0,1,,,,,,0,71,92
46272,note_on,,4608,0,2,,,,,,0,55,92
46272,note_on,,0,0,1,,,,,,0,74,92
46272,note_off,,0,0,1,,,,,,0,62,64
46272,note_off,,192,0,1,,,,,,0,71,64
46464,note_on,,0,0,1,,,,,,0,72,92
46464,note_off,,192,0,2,,,,,,0,55,64
46464,note_on,,0,0,2,,,,,,0,64,92
46464,note_off,,192,0,1,,,,,,0,74,64
46656,note_off,,192,0,1,,,,,,0,72,64
46656,note_on,,0,0,1,,,,,,0,71,92
46656,note_off,,192,0,2,,,,,,0,64,64
46656,note_on,,0,0,2,,,,,,0,65,92
46848,note_off,,192,0,2,,,,,,0,65,64
46848,note_on,,0,0,2,,,,,,0,55,92
46848,note_off,,192,0,1,,,,,,0,71,64
46848,note_on,,0,0,1,,,,,,0,74,92
47040,note_on,,0,0,1,,,,,,0,72,92
47040,note_on,,0,0,2,,,,,,0,64,92
47040,note_off,,192,0,1,,,,,,0,74,64
47040,note_off,,192,0,2,,,,,,0,55,64
47232,note_on,,0,0,1,,,,,,0,71,92
47232,note_off,,192,0,1,,,,,,0,72,64
47232,note_off,,192,0,2,,,,,,0,64,64
47232,note_on,,0,0,2,,,,,,0,62,92
47424,note_off,,192,0,2,,,,,,0,62,64
47424,note_on,,0,0,2,,,,,,0,55,92
47616,note_off,,192,0,2,,,,,,0,55,64
47616,note_on,,0,0,2,,,,,,0,64,92
47808,note_on,,0,0,2,,,,,,0,65,92
47808,note_on,,0,0,1,,,,,,0,79,92
47808,note_on,,0,0,1,,,,,,0,70,92
47808,note_off,,192,0,2,,,,,,0,64,64
47808,note_off,,576,0,1,,,,,,0,71,64
48000,note_off,,192,0,2,,,,,,0,65,64
48000,note_on,,0,0,2,,,,,,0,55,92
48192,note_on,,0,0,2,,,,,,0,62,92
48192,note_off,,192,0,2,,,,,,0,55,64
48384,note_off,,3456,0,3,,,,,,0,43,64
48384,note_on,,0,0,3,,,,,,0,48,102
48384,note_on,,0,0,2,,,,,,0,64,92
48384,note_off,,192,0,2,,,,,,0,62,64
48576,note_on,,0,0,1,,,,,,0,72,92
48576,note_off,,0,0,1,,,,,,0,70,64
48576,note_off,,768,0,1,,,,,,0,79,64
48576,note_on,,0,0,1,,,,,,0,67,92
48576,note_off,,192,0,2,,,,,,0,64,64
48768,note_off,,192,0,1,,,,,,0,72,64
48768,note_off,,0,0,1,,,,,,0,67,64
48768,note_on,,0,0,1,,,,,,0,65,92
48768,note_on,,0,0,1,,,,,,0,81,92
48960,note_on,,0,0,1,,,,,,0,82,92
48960,note_off,,192,0,1,,,,,,0,81,64
48960,note_off,,0,0,1,,,,,,0,65,64
48960,note_on,,0,0,1,,,,,,0,64,92
49152,note_on,,0,0,1,,,,,,0,67,92
49152,note_on,,0,0,1,,,,,,0,72,92
49152,note_off,,0,0,1,,,,,,0,64,64
49152,note_off,,192,0,1,,,,,,0,82,64
49344,note_off,,192,0,1,,,,,,0,72,64
49344,note_on,,0,0,1,,,,,,0,65,92
49344,note_off,,0,0,1,,,,,,0,67,64
49344,note_on,,0,0,1,,,,,,0,81,92
49536,note_off,,0,0,1,,,,,,0,65,64
49536,note_on,,0,0,1,,,,,,0,79,92
49536,note_on,,0,0,1,,,,,,0,64,92
49536,note_off,,192,0,1,,,,,,0,81,64
49728,note_off,,192,0,1,,,,,,0,79,64
49728,note_on,,0,0,1,,,,,,0,72,92
49920,note_off,,192,0,1,,,,,,0,72,64
49920,note_on,,0,0,1,,,,,,0,81,92
50112,note_on,,0,0,1,,,,,,0,63,92
50112,note_on,,1536,0,2,,,,,,0,60,92
50112,note_on,,0,0,1,,,,,,0,82,92
50112,note_off,,192,0,1,,,,,,0,81,64
50112,note_off,,0,0,1,,,,,,0,64,64
50304,note_on,,0,0,1,,,,,,0,81,92
50304,note_off,,192,0,1,,,,,,0,82,64
50496,note_off,,192,0,1,,,,,,0,81,64
50496,note_on,,0,0,1,,,,,,0,79,92
50688,note_on,,0,0,3,,,,,,0,41,102
50688,note_off,,192,0,1,,,,,,0,79,64
50688,note_on,,0,0,1,,,,,,0,81,92
50688,note_off,,2304,0,3,,,,,,0,48,64
50880,note_off,,768,0,2,,,,,,0,60,64
50880,note_on,,0,0,2,,,,,,0,53,92
50880,note_off,,192,0,1,,,,,,0,81,64
50880,note_on,,0,0,1,,,,,,0,84,92
51072,note_on,,0,0,2,,,,,,0,62,92
51072,note_off,,192,0,2,,,,,,0,53,64
51072,note_off,,192,0,1,,,,,,0,84,64
51072,note_on,,0,0,1,,,,,,0,82,92
51264,note_off,,192,0,1,,,,,,0,82,64
51264,note_off,,0,0,1,,,,,,0,63,64
51264,note_on,,0,0,1,,,,,,0,63,92
51264,note_on,,0,0,1,,,,,,0,81,92
51264,note_off,,192,0,2,,,,,,0,62,64
51456,note_off,,192,0,1,,,,,,0,81,64
51456,note_off,,0,0,1,,,,,,0,63,64
51456,note_on,,0,0,1,,,,,,0,53,92
51456,note_on,,0,0,1,,,,,,0,84,92
51648,note_off,,0,0,1,,,,,,0,53,64
51648,note_on,,0,0,1,,,,,,0,62,92
51648,note_on,,0,0,1,,,,,,0,82,92
51648,note_off,,192,0,1,,,,,,0,84,64
51840,note_on,,0,0,1,,,,,,0,60,92
51840,note_on,,0,0,1,,,,,,0,81,92
51840,note_off,,0,0,1,,,,,,0,62,64
51840,note_off,,192,0,1,,,,,,0,82,64
52032,note_on,,0,0,1,,,,,,0,53,92
52032,note_off,,192,0,1,,,,,,0,60,64
52224,note_off,,192,0,1,,,,,,0,53,64
52224,note_on,,0,0,1,,,,,,0,62,92
52416,note_off,,0,0,1,,,,,,0,81,64
52416,note_on,,0,0,1,,,,,,0,80,92
52416,note_on,,0,0,1,,,,,,0,63,92
52416,note_off,,192,0,1,,,,,,0,62,64
52608,note_off,,192,0,1,,,,,,0,63,64
52608,note_on,,0,0,1,,,,,,0,62,92
52800,note_off,,192,0,1,,,,,,0,62,64
52800,note_on,,0,0,1,,,,,,0,60,92
52992,note_on,,0,0,3,,,,,,0,46,102
52992,note_off,,2304,0,3,,,,,,0,41,64
52992,note_off,,192,0,1,,,,,,0,60,64
52992,note_on,,0,0,1,,,,,,0,62,92
53184,note_off,,192,0,1,,,,,,0,80,64
53184,note_on,,0,0,1,,,,,,0,82,92
53376,note_off,,192,0,1,,,,,,0,82,64
53376,note_off,,0,0,1,,,,,,0,62,64
53376,note_on,,0,0,1,,,,,,0,58,92
53376,note_on,,0,0,1,,,,,,0,77,92
53568,note_on,,0,0,1,,,,,,0,63,92
53568,note_off,,192,0,1,,,,,,0,77,64
53568,note_off,,0,0,1,,,,,,0,58,64
53568,note_on,,0,0,1,,,,,,0,79,92
53760,note_off,,192,0,1,,,,,,0,79,64
53760,note_on,,0,0,1,,,,,,0,82,92
53952,note_on,,0,0,1,,,,,,0,60,92
53952,note_on,,0,0,1,,,,,,0,81,92
53952,note_off,,0,0,1,,,,,,0,63,64
53952,note_off,,192,0,1,,,,,,0,82,64
54144,note_on,,0,0,1,,,,,,0,82,92
54144,note_off,,192,0,1,,,,,,0,81,64
54144,note_off,,0,0,1,,,,,,0,60,64
54144,note_on,,0,0,1,,,,,,0,62,92
54336,note_on,,0,0,1,,,,,,0,81,92
54336,note_off,,192,0,1,,,,,,0,82,64
54528,note_on,,0,0,1,,,,,,0,79,92
54528,note_off,,192,0,1,,,,,,0,81,64
54528,note_off,,0,0,1,,,,,,0,62,64
54528,note_on,,0,0,1,,,,,,0,58,92
54720,note_off,,192,0,1,,,,,,0,79,64
54720,note_off,,0,0,1,,,,,,0,58,64
54720,note_on,,0,0,1,,,,,,0,68,92
54720,note_on,,0,0,1,,,,,,0,77,92
54912,note_off,,192,0,1,,,,,,0,77,64
54912,note_on,,0,0,1,,,,,,0,79,92
55104,note_off,,192,0,1,,,,,,0,79,64
55104,note_on,,0,0,1,,,,,,0,75,92
55296,note_off,,192,0,1,,,,,,0,75,64
55296,note_on,,0,0,1,,,,,,0,74,92
55488,note_off,,192,0,1,,,,,,0,68,64
55488,note_on,,0,0,1,,,,,,0,70,92
55680,note_off,,192,0,1,,,,,,0,70,64
55680,note_on,,0,0,1,,,,,,0,82,92
55680,note_on,,0,0,1,,,,,,0,65,92
55680,note_off,,0,0,1,,,,,,0,74,64
55872,note_off,,192,0,1,,,,,,0,65,64
55872,note_off,,0,0,1,,,,,,0,82,64
55872,note_on,,0,0,1,,,,,,0,75,92
55872,note_on,,0,0,1,,,,,,0,67,92
56064,note_off,,192,0,1,,,,,,0,67,64
56064,note_on,,0,0,1,,,,,,0,70,92
56256,note_off,,192,0,1,,,,,,0,70,64
56256,note_off,,0,0,1,,,,,,0,75,64
56256,note_on,,0,0,1,,,,,,0,84,92
56256,note_on,,0,0,1,,,,,,0,69,92
56448,note_on,,0,0,1,,,,,,0,70,92
56448,note_off,,0,0,1,,,,,,0,84,64
56448,note_on,,0,0,1,,,,,,0,74,92
56448,note_off,,192,0,1,,,,,,0,69,64
56640,note_off,,192,0,1,,,,,,0,70,64
56640,note_on,,0,0,1,,,,,,0,69,92
56832,note_off,,192,0,1,,,,,,0,69,64
56832,note_off,,0,0,1,,,,,,0,74,64
56832,note_on,,0,0,1,,,,,,0,82,92
56832,note_on,,0,0,1,,,,,,0,67,92
57024,note_on,,0,0,1,,,,,,0,81,92
57024,note_off,,0,0,1,,,,,,0,82,64
57024,note_on,,0,0,1,,,,,,0,65,92
57024,note_off,,192,0,1,,,,,,0,67,64
57216,note_off,,192,0,1,,,,,,0,65,64
57216,note_off,,0,0,1,,,,,,0,81,64
57216,note_on,,0,0,1,,,,,,0,82,92
57216,note_on,,0,0,1,,,,,,0,67,92
57408,note_off,,192,0,1,,,,,,0,67,64
57408,note_off,,0,0,1,,,,,,0,82,64
57408,note_on,,0,0,1,,,,,,0,84,92
57408,note_on,,0,0,1,,,,,,0,63,92
57600,note_on,,0,0,1,,,,,,0,77,92
57600,note_off,,192,0,1,,,,,,0,63,64
57600,note_off,,0,0,1,,,,,,0,84,64
57600,note_on,,0,0,1,,,,,,0,62,92
57792,note_on,,0,0,1,,,,,,0,63,92
57792,note_off,,0,0,1,,,,,,0,62,64
57792,note_on,,0,0,1,,,,,,0,79,92
57792,note_off,,192,0,1,,,,,,0,77,64
57984,note_off,,192,0,1,,,,,,0,79,64
57984,note_off,,0,0,1,,,,,,0,63,64
57984,note_on,,0,0,1,,,,,,0,60,92
57984,note_on,,0,0,1,,,,,,0,81,92
58176,note_on,,6912,0,2,,,,,,0,58,92
58176,note_off,,192,0,1,,,,,,0,81,64
58176,note_off,,0,0,1,,,,,,0,60,64
58176,note_on,,0,0,1,,,,,,0,74,92
58368,note_on,,0,0,2,,,,,,0,60,92
58368,note_off,,192,0,1,,,,,,0,74,64
58368,note_on,,0,0,1,,,,,,0,75,92
58368,note_off,,192,0,2,,,,,,0,58,64
58560,note_off,,192,0,2,,,,,,0,60,64
58560,note_on,,0,0,2,,,,,,0,57,92
58560,note_on,,0,0,1,,,,,,0,77,92
58560,note_off,,192,0,1,,,,,,0,75,64
58752,note_off,,192,0,2,,,,,,0,57,64
58752,note_on,,0,0,1,,,,,,0,70,92
58752,note_on,,0,0,2,,,,,,0,55,92
58752,note_off,,192,0,1,,,,,,0,77,64
58944,note_on,,0,0,2,,,,,,0,57,92
58944,note_off,,192,0,2,,,,,,0,55,64
58944,note_off,,192,0,1,,,,,,0,70,64
58944,note_on,,0,0,1,,,,,,0,72,92
59136,note_on,,0,0,1,,,,,,0,74,92
59136,note_off,,192,0,1,,,,,,0,72,64
59136,note_off,,192,0,2,,,,,,0,57,64
59136,note_on,,0,0,2,,,,,,0,53,92
59328,note_off,,192,0,1,,,,,,0,74,64
59328,note_on,,0,0,2,,,,,,0,52,92
59328,note_on,,0,0,1,,,,,,0,67,92
59328,note_off,,192,0,2,,,,,,0,53,64
59520,note_on,,0,0,2,,,,,,0,53,92
59520,note_on,,0,0,1,,,,,,0,69,92
59520,note_off,,192,0,2,,,,,,0,52,64
59520,note_off,,192,0,1,,,,,,0,67,64
59712,note_off,,192,0,2,,,,,,0,53,64
59712,note_on,,0,0,2,,,,,,0,50,92
59712,note_on,,0,0,1,,,,,,0,70,92
59712,note_off,,192,0,1,,,,,,0,69,64
59904,note_off,,192,0,2,,,,,,0,50,64
59904,note_on,,0,0,2,,,,,,0,49,92
59904,note_on,,0,0,3,,,,,,0,40,102
59904,note_off,,6912,0,3,,,,,,0,46,64
60096,note_off,,384,0,1,,,,,,0,70,64
60096,note_on,,0,0,1,,,,,,0,79,92
60288,note_off,,192,0,1,,,,,,0,79,64
60288,note_on,,0,0,1,,,,,,0,69,92
60480,note_on,,0,0,2,,,,,,0,61,92
60480,note_off,,576,0,2,,,,,,0,49,64
60480,note_on,,0,0,1,,,,,,0,70,92
60480,note_off,,192,0,1,,,,,,0,69,64
60672,note_off,,192,0,1,,,,,,0,70,64
60672,note_on,,0,0,1,,,,,,0,69,92
60864,note_off,,192,0,1,,,,,,0,69,64
60864,note_on,,0,0,1,,,,,,0,67,92
61056,note_off,,1152,0,3,,,,,,0,40,64
61056,note_off,,192,0,1,,,,,,0,67,64
61056,note_on,,0,0,1,,,,,,0,62,92
61056,note_off,,576,0,2,,,,,,0,61,64
61056,note_on,,0,0,3,,,,,,0,38,102
61056,note_on,,0,0,1,,,,,,0,65,92
61248,note_off,,192,0,1,,,,,,0,65,64
61248,note_off,,0,0,1,,,,,,0,62,64
61248,note_on,,0,0,1,,,,,,0,64,92
61248,note_on,,0,0,1,,,,,,0,67,92
61440,note_off,,192,0,1,,,,,,0,67,64
61440,note_off,,0,0,1,,,,,,0,64,64
61440,note_on,,0,0,1,,,,,,0,65,92
61440,note_on,,0,0,1,,,,,,0,69,92
61632,note_off,,192,0,1,,,,,,0,69,64
61632,note_on,,0,0,1,,,,,,0,67,92
61632,note_on,,0,0,3,,,,,,0,46,102
61632,note_off,,576,0,3,,,,,,0,38,64
61680,note_on,,0,0,1,,,,,,0,69,92
61680,note_off,,48,0,1,,,,,,0,67,64
61728,note_on,,0,0,1,,,,,,0,67,92
61728,note_off,,48,0,1,,,,,,0,69,64
61824,note_off,,96,0,1,,,,,,0,65,64
61824,note_on,,0,0,1,,,,,,0,64,92
62016,note_off,,192,0,1,,,,,,0,64,64
62016,note_on,,0,0,1,,,,,,0,62,92
62208,note_off,,192,0,1,,,,,,0,62,64
62208,note_off,,0,0,1,,,,,,0,67,64
62208,note_off,,576,0,3,,,,,,0,46,64
62208,note_on,,0,0,3,,,,,,0,45,102
62208,note_on,,0,0,1,,,,,,0,61,92
62208,note_on,,0,0,1,,,,,,0,69,92
62400,note_on,,0,0,1,,,,,,0,59,92
62400,note_off,,192,0,1,,,,,,0,61,64
62592,note_off,,0,0,1,,,,,,0,69,64
62592,note_on,,0,0,1,,,,,,0,57,92
62592,note_on,,0,0,1,,,,,,0,81,92
62592,note_off,,192,0,1,,,,,,0,59,64
62784,note_off,,0,0,1,,,,,,0,57,64
62784,note_on,,0,0,1,,,,,,0,59,92
62784,note_on,,0,0,1,,,,,,0,80,92
62784,note_off,,192,0,1,,,,,,0,81,64
62976,note_off,,192,0,1,,,,,,0,59,64
62976,note_on,,0,0,1,,,,,,0,62,92
63168,note_off,,192,0,1,,,,,,0,62,64
63168,note_off,,0,0,1,,,,,,0,80,64
63168,note_on,,0,0,1,,,,,,0,61,92
63168,note_on,,0,0,1,,,,,,0,79,92
63360,note_off,,192,0,1,,,,,,0,61,64
63360,note_off,,0,0,1,,,,,,0,79,64
63360,note_on,,0,0,1,,,,,,0,78,92
63360,note_on,,0,0,1,,,,,,0,62,92
63552,note_off,,192,0,1,,,,,,0,62,64
63552,note_on,,0,0,1,,,,,,0,61,92
63744,note_off,,192,0,1,,,,,,0,61,64
63744,note_on,,0,0,1,,,,,,0,77,92
63744,note_on,,0,0,1,,,,,,0,62,92
63744,note_off,,0,0,1,,,,,,0,78,64
63936,note_off,,192,0,1,,,,,,0,62,64
63936,note_on,,0,0,1,,,,,,0,56,92
64128,note_off,,192,0,1,,,,,,0,77,64
64128,note_on,,0,0,1,,,,,,0,76,92
64320,note_off,,192,0,1,,,,,,0,76,64
64320,note_on,,0,0,1,,,,,,0,74,92
64512,note_on,,0,0,1,,,,,,0,73,92
64512,note_off,,192,0,1,,,,,,0,74,64
64512,note_off,,0,0,1,,,,,,0,56,64
64512,note_on,,0,0,1,,,,,,0,57,92
64704,note_on,,0,0,1,,,,,,0,76,92
64704,note_off,,192,0,1,,,,,,0,73,64
64896,note_off,,192,0,1,,,,,,0,76,64
64896,note_off,,0,0,1,,,,,,0,57,64
64896,note_on,,0,0,1,,,,,,0,69,92
64896,note_on,,0,0,1,,,,,,0,77,92
65088,note_off,,192,0,1,,,,,,0,77,64
65088,note_off,,0,0,1,,,,,,0,69,64
65088,note_on,,0,0,1,,,,,,0,71,92
65088,note_on,,0,0,1,,,,,,0,68,92
65280,note_on,,0,0,1,,,,,,0,74,92
65280,note_off,,192,0,1,,,,,,0,71,64
65472,note_on,,0,0,1,,,,,,0,67,92
65472,note_off,,192,0,1,,,,,,0,74,64
65472,note_off,,0,0,1,,,,,,0,68,64
65472,note_on,,0,0,1,,,,,,0,73,92
65664,note_off,,192,0,1,,,,,,0,73,64
65664,note_off,,0,0,1,,,,,,0,67,64
65664,note_on,,0,0,1,,,,,,0,66,92
65664,note_on,,0,0,1,,,,,,0,74,92
65856,note_off,,192,0,1,,,,,,0,74,64
65856,note_on,,0,0,1,,,,,,0,73,92
66048,note_on,,0,0,1,,,,,,0,65,92
66048,note_on,,0,0,1,,,,,,0,74,92
66048,note_off,,192,0,1,,,,,,0,73,64
66048,note_off,,0,0,1,,,,,,0,66,64
66240,note_on,,0,0,1,,,,,,0,67,92
66240,note_off,,192,0,1,,,,,,0,74,64
66432,note_off,,192,0,1,,,,,,0,65,64
66432,note_on,,0,0,1,,,,,,0,64,92
66624,note_off,,192,0,1,,,,,,0,64,64
66624,note_on,,0,0,1,,,,,,0,62,92
66816,note_off,,192,0,1,,,,,,0,62,64
66816,note_on,,0,0,1,,,,,,0,61,92
67008,note_off,,192,0,1,,,,,,0,67,64
67008,note_on,,0,0,1,,,,,,0,76,92
67200,note_off,,192,0,1,,,,,,0,76,64
67200,note_on,,0,0,1,,,,,,0,67,92
67392,note_on,,0,0,1,,,,,,0,65,92
67392,note_off,,192,0,1,,,,,,0,67,64
67584,note_off,,192,0,1,,,,,,0,61,64
67584,note_on,,0,0,1,,,,,,0,64,92
67776,note_off,,192,0,1,,,,,,0,64,64
67776,note_on,,0,0,1,,,,,,0,57,92
67968,note_off,,192,0,1,,,,,,0,57,64
67968,note_on,,0,0,1,,,,,,0,62,92
67968,note_on,,6912,0,2,,,,,,0,62,92
68160,note_off,,192,0,1,,,,,,0,65,64
68160,note_on,,0,0,1,,,,,,0,74,92
68352,note_on,,0,0,2,,,,,,0,56,92
68352,note_off,,384,0,2,,,,,,0,62,64
68352,note_on,,0,0,1,,,,,,0,65,92
68352,note_off,,192,0,1,,,,,,0,74,64
68544,note_on,,0,0,2,,,,,,0,57,92
68544,note_off,,192,0,2,,,,,,0,56,64
68544,note_on,,0,0,1,,,,,,0,64,92
68544,note_off,,192,0,1,,,,,,0,65,64
68736,note_off,,192,0,1,,,,,,0,64,64
68736,note_on,,0,0,1,,,,,,0,65,92
68928,note_off,,0,0,1,,,,,,0,62,64
68928,note_on,,0,0,1,,,,,,0,67,92
68928,note_on,,0,0,1,,,,,,0,61,92
68928,note_off,,192,0,1,,,,,,0,65,64
69120,note_off,,192,0,1,,,,,,0,61,64
69120,note_on,,0,0,1,,,,,,0,62,92
69120,note_on,,0,0,1,,,,,,0,65,92
69120,note_off,,6912,0,3,,,,,,0,45,64
69120,note_on,,0,0,3,,,,,,0,38,102
69120,note_off,,0,0,1,,,,,,0,67,64
69312,note_off,,192,0,1,,,,,,0,65,64
69312,note_on,,0,0,1,,,,,,0,73,92
69504,note_off,,192,0,1,,,,,,0,73,64
69504,note_on,,0,0,1,,,,,,0,74,92
69696,note_off,,192,0,1,,,,,,0,74,64
69696,note_on,,0,0,2,,,,,,0,55,92
69696,note_on,,0,0,1,,,,,,0,70,92
69696,note_off,,0,0,1,,,,,,0,62,64
69696,note_off,,1152,0,2,,,,,,0,57,64
69888,note_off,,192,0,1,,,,,,0,70,64
69888,note_on,,0,0,1,,,,,,0,73,92
70080,note_on,,0,0,1,,,,,,0,74,92
70080,note_off,,192,0,1,,,,,,0,73,64
70272,note_off,,192,0,1,,,,,,0,74,64
70272,note_on,,0,0,1,,,,,,0,69,92
70272,note_off,,576,0,2,,,,,,0,55,64
70272,note_on,,0,0,2,,,,,,0,53,92
70464,note_off,,192,0,1,,,,,,0,69,64
70464,note_on,,0,0,1,,,,,,0,73,92
70656,note_off,,192,0,1,,,,,,0,73,64
70656,note_on,,0,0,1,,,,,,0,74,92
70848,note_off,,576,0,2,,,,,,0,53,64
70848,note_off,,192,0,1,,,,,,0,74,64
70848,note_on,,0,0,1,,,,,,0,67,92
70848,note_on,,0,0,2,,,,,,0,52,92
71040,note_off,,192,0,1,,,,,,0,67,64
71040,note_on,,0,0,1,,,,,,0,73,92
71232,note_on,,0,0,1,,,,,,0,74,92
71232,note_off,,192,0,1,,,,,,0,73,64
71424,note_off,,192,0,1,,,,,,0,74,64
71424,note_on,,0,0,2,,,,,,0,50,92
71424,note_off,,576,0,2,,,,,,0,52,64
71424,note_on,,0,0,1,,,,,,0,65,92
71616,note_off,,192,0,2,,,,,,0,50,64
71616,note_on,,0,0,2,,,,,,0,61,92
71808,note_off,,192,0,2,,,,,,0,61,64
71808,note_on,,0,0,2,,,,,,0,62,92
72000,note_on,,0,0,1,,,,,,0,67,92
72000,note_off,,192,0,2,,,,,,0,62,64
72000,note_off,,576,0,1,,,,,,0,65,64
72000,note_on,,0,0,2,,,,,,0,58,92
72192,note_off,,192,0,2,,,,,,0,58,64
72192,note_on,,0,0,2,,,,,,0,61,92
72384,note_on,,0,0,2,,,,,,0,62,92
72384,note_off,,192,0,2,,,,,,0,61,64
72576,note_off,,576,0,1,,,,,,0,67,64
72576,note_on,,0,0,1,,,,,,0,65,92
72576,note_on,,0,0,2,,,,,,0,57,92
72576,note_off,,192,0,2,,,,,,0,62,64
72768,note_on,,0,0,2,,,,,,0,61,92
72768,note_off,,192,0,2,,,,,,0,57,64
72960,note_off,,192,0,2,,,,,,0,61,64
72960,note_on,,0,0,2,,,,,,0,62,92
73152,note_off,,576,0,1,,,,,,0,65,64
73152,note_on,,0,0,1,,,,,,0,64,92
73152,note_off,,192,0,2,,,,,,0,62,64
73152,note_on,,0,0,2,,,,,,0,55,92
73344,note_off,,192,0,2,,,,,,0,55,64
73344,note_on,,0,0,2,,,,,,0,61,92
73536,note_off,,192,0,2,,,,,,0,61,64
73536,note_on,,0,0,2,,,,,,0,62,92
73728,note_on,,0,0,1,,,,,,0,62,92
73728,note_off,,576,0,1,,,,,,0,64,64
73728,note_off,,192,0,2,,,,,,0,62,64
73728,note_on,,0,0,2,,,,,,0,53,92
73920,note_on,,0,0,1,,,,,,0,74,92
73920,note_off,,192,0,1,,,,,,0,62,64
74112,note_on,,0,0,1,,,,,,0,64,92
74112,note_off,,192,0,1,,,,,,0,74,64
74112,note_off,,384,0,2,,,,,,0,53,64
74112,note_on,,0,0,2,,,,,,0,55,92
74304,note_off,,192,0,2,,,,,,0,55,64
74304,note_on,,0,0,1,,,,,,0,65,92
74304,note_on,,0,0,2,,,,,,0,57,92
74304,note_off,,192,0,1,,,,,,0,64,64
74496,note_off,,192,0,1,,,,,,0,65,64
74496,note_on,,0,0,1,,,,,,0,74,92
74688,note_on,,0,0,2,,,,,,0,58,92
74688,note_off,,192,0,1,,,,,,0,74,64
74688,note_on,,0,0,1,,,,,,0,67,92
74688,note_off,,384,0,2,,,,,,0,57,64
74880,note_on,,0,0,2,,,,,,0,60,92
74880,note_off,,192,0,1,,,,,,0,67,64
74880,note_on,,0,0,1,,,,,,0,69,92
74880,note_off,,192,0,2,,,,,,0,58,64
75072,note_off,,192,0,1,,,,,,0,69,64
75072,note_on,,0,0,1,,,,,,0,74,92
75264,note_off,,192,0,1,,,,,,0,74,64
75264,note_on,,0,0,1,,,,,,0,67,92
75264,note_off,,384,0,2,,,,,,0,60,64
75264,note_on,,0,0,2,,,,,,0,58,92
75456,note_off,,192,0,1,,,,,,0,67,64
75456,note_off,,192,0,2,,,,,,0,58,64
75456,note_on,,0,0,2,,,,,,0,60,92
75456,note_on,,0,0,1,,,,,,0,69,92
75648,note_off,,192,0,2,,,,,,0,60,64
75648,note_off,,192,0,1,,,,,,0,69,64
75648,note_on,,0,0,1,,,,,,0,67,92
75648,note_on,,0,0,2,,,,,,0,58,92
75840,note_off,,192,0,1,,,,,,0,67,64
75840,note_on,,0,0,1,,,,,,0,66,92
75840,note_on,,0,0,2,,,,,,0,57,92
75840,note_off,,192,0,2,,,,,,0,58,64
76032,note_off,,192,0,1,,,,,,0,66,64
76032,note_off,,192,0,2,,,,,,0,57,64
76032,note_on,,0,0,2,,,,,,0,58,92
76032,note_on,,0,0,1,,,,,,0,67,92
76224,note_off,,192,0,1,,,,,,0,67,64
76224,note_on,,0,0,1,,,,,,0,79,92
76416,note_off,,192,0,1,,,,,,0,79,64
76416,note_on,,0,0,1,,,,,,0,69,92
76416,note_on,,0,0,2,,,,,,0,54,92
76416,note_off,,384,0,2,,,,,,0,58,64
76608,note_off,,192,0,2,,,,,,0,54,64
76608,note_on,,0,0,2,,,,,,0,55,92
76608,note_off,,192,0,1,,,,,,0,69,64
76608,note_on,,0,0,1,,,,,,0,70,92
76800,note_on,,0,0,1,,,,,,0,79,92
76800,note_off,,192,0,1,,,,,,0,70,64
76992,note_on,,0,0,1,,,,,,0,72,92
76992,note_off,,192,0,1,,,,,,0,79,64
76992,note_off,,384,0,2,,,,,,0,55,64
76992,note_on,,0,0,2,,,,,,0,57,92
77184,note_on,,0,0,1,,,,,,0,74,92
77184,note_off,,192,0,2,,,,,,0,57,64
77184,note_on,,0,0,2,,,,,,0,58,92
77184,note_off,,192,0,1,,,,,,0,72,64
77376,note_off,,192,0,1,,,,,,0,74,64
77376,note_on,,0,0,1,,,,,,0,79,92
77568,note_on,,0,0,2,,,,,,0,57,92
77568,note_off,,192,0,1,,,,,,0,79,64
77568,note_off,,384,0,2,,,,,,0,58,64
77568,note_on,,0,0,1,,,,,,0,73,92
77760,note_on,,0,0,1,,,,,,0,74,92
77760,note_on,,0,0,2,,,,,,0,58,92
77760,note_off,,192,0,2,,,,,,0,57,64
77760,note_off,,192,0,1,,,,,,0,73,64
77952,note_on,,0,0,2,,,,,,0,57,92
77952,note_on,,0,0,1,,,,,,0,73,92
77952,note_off,,192,0,1,,,,,,0,74,64
77952,note_off,,192,0,2,,,,,,0,58,64
78144,note_off,,192,0,2,,,,,,0,57,64
78144,note_on,,0,0,1,,,,,,0,71,92
78144,note_off,,192,0,1,,,,,,0,73,64
78144,note_on,,0,0,2,,,,,,0,55,92
78336,note_off,,192,0,2,,,,,,0,55,64
78336,note_on,,0,0,1,,,,,,0,73,92
78336,note_off,,192,0,1,,,,,,0,71,64
78336,note_on,,0,0,1,,,,,,0,64,92
78528,note_on,,0,0,1,,,,,,0,79,92
78528,note_off,,192,0,1,,,,,,0,73,64
78720,note_off,,192,0,1,,,,,,0,79,64
78720,note_off,,0,0,1,,,,,,0,64,64
78720,note_on,,0,0,1,,,,,,0,59,92
78720,note_on,,0,0,1,,,,,,0,74,92
78912,note_on,,0,0,1,,,,,,0,76,92
78912,note_on,,0,0,1,,,,,,0,61,92
78912,note_off,,192,0,1,,,,,,0,74,64
78912,note_off,,0,0,1,,,,,,0,59,64
79104,note_off,,192,0,1,,,,,,0,76,64
79104,note_on,,0,0,1,,,,,,0,79,92
79296,note_off,,192,0,1,,,,,,0,79,64
79296,note_off,,0,0,1,,,,,,0,61,64
79296,note_on,,0,0,1,,,,,,0,77,92
79296,note_on,,0,0,1,,,,,,0,62,92
79488,note_off,,192,0,1,,,,,,0,77,64
79488,note_off,,0,0,1,,,,,,0,62,64
79488,note_on,,0,0,1,,,,,,0,64,92
79488,note_on,,0,0,1,,,,,,0,79,92
79680,note_off,,192,0,1,,,,,,0,79,64
79680,note_off,,0,0,1,,,,,,0,64,64
79680,note_on,,0,0,1,,,,,,0,67,92
79680,note_on,,0,0,1,,,,,,0,82,92
79872,note_off,,0,0,1,,,,,,0,67,64
79872,note_on,,0,0,1,,,,,,0,65,92
79872,note_off,,192,0,1,,,,,,0,82,64
79872,note_on,,0,0,1,,,,,,0,81,92
80064,note_off,,192,0,1,,,,,,0,81,64
80064,note_off,,0,0,1,,,,,,0,65,64
80064,note_on,,0,0,1,,,,,,0,67,92
80064,note_on,,0,0,1,,,,,,0,82,92
80256,note_off,,192,0,1,,,,,,0,82,64
80256,note_off,,0,0,1,,,,,,0,67,64
80256,note_on,,0,0,1,,,,,,0,65,92
80256,note_on,,0,0,1,,,,,,0,81,92
80448,note_on,,0,0,1,,,,,,0,64,92
80448,note_on,,0,0,1,,,,,,0,79,92
80448,note_off,,192,0,1,,,,,,0,81,64
80448,note_off,,0,0,1,,,,,,0,65,64
80640,note_off,,0,0,1,,,,,,0,64,64
80640,note_on,,0,0,1,,,,,,0,65,92
80640,note_on,,0,0,1,,,,,,0,81,92
80640,note_off,,192,0,1,,,,,,0,79,64
80832,note_off,,192,0,1,,,,,,0,81,64
80832,note_off,,0,0,1,,,,,,0,65,64
80832,note_on,,0,0,1,,,,,,0,64,92
80832,note_on,,0,0,1,,,,,,0,79,92
81024,note_off,,192,0,1,,,,,,0,79,64
81024,note_off,,0,0,1,,,,,,0,64,64
81024,note_on,,0,0,1,,,,,,0,62,92
81024,note_on,,0,0,1,,,,,,0,77,92
81216,note_on,,2880,0,2,,,,,,0,60,92
81216,note_on,,0,0,1,,,,,,0,76,92
81216,note_off,,192,0,1,,,,,,0,77,64
81216,note_off,,0,0,1,,,,,,0,62,64
81408,note_on,,0,0,2,,,,,,0,59,92
81408,note_off,,192,0,2,,,,,,0,60,64
81408,note_off,,192,0,1,,,,,,0,76,64
81408,note_on,,0,0,1,,,,,,0,77,92
81600,note_off,,192,0,2,,,,,,0,59,64
81600,note_off,,192,0,1,,,,,,0,77,64
81600,note_on,,0,0,1,,,,,,0,74,92
81600,note_on,,0,0,2,,,,,,0,57,92
81792,note_off,,192,0,2,,,,,,0,57,64
81792,note_off,,192,0,1,,,,,,0,74,64
81792,note_on,,0,0,2,,,,,,0,59,92
81792,note_on,,0,0,1,,,,,,0,80,92
81984,note_on,,0,0,1,,,,,,0,78,92
81984,note_off,,192,0,1,,,,,,0,80,64
81984,note_on,,0,0,2,,,,,,0,57,92
81984,note_off,,192,0,2,,,,,,0,59,64
82176,note_off,,192,0,1,,,,,,0,78,64
82176,note_on,,0,0,2,,,,,,0,56,92
82176,note_off,,192,0,2,,,,,,0,57,64
82176,note_on,,0,0,1,,,,,,0,76,92
82368,note_off,,192,0,2,,,,,,0,56,64
82368,note_on,,0,0,2,,,,,,0,64,92
82368,note_on,,0,0,1,,,,,,0,81,92
82368,note_off,,192,0,1,,,,,,0,76,64
82368,note_off,,13248,0,3,,,,,,0,38,64
82368,note_on,,0,0,3,,,,,,0,36,102
82752,note_off,,384,0,2,,,,,,0,64,64
82752,note_off,,384,0,1,,,,,,0,81,64
82752,note_on,,0,0,3,,,,,,0,38,102
82752,note_on,,0,0,2,,,,,,0,57,92
82752,note_on,,0,0,1,,,,,,0,69,92
82752,note_off,,384,0,3,,,,,,0,36,64
82752,note_on,,0,0,1,,,,,,0,74,92
82752,note_on,,0,0,2,,,,,,0,65,92
82944,note_off,,192,0,2,,,,,,0,57,64
82944,note_off,,0,0,2,,,,,,0,65,64
82944,note_on,,0,0,2,,,,,,0,64,92
82944,note_on,,0,0,2,,,,,,0,52,92
82944,note_on,,0,0,3,,,,,,0,40,102
82944,set_tempo,600000,82944,1,0,,,,,,,,
82944,note_off,,192,0,3,,,,,,0,38,64
82944,note_off,,0,0,1,,,,,,0,69,64
82944,note_on,,0,0,1,,,,,,0,69,92
82944,note_on,,0,0,1,,,,,,0,72,92
82944,note_off,,192,0,1,,,,,,0,74,64
83136,note_on,,0,0,2,,,,,,0,62,92
83136,note_off,,192,0,2,,,,,,0,64,64
83136,note_off,,192,0,1,,,,,,0,72,64
83136,note_on,,0,0,1,,,,,,0,71,92
83328,note_on,,0,0,1,,,,,,0,72,92
83328,note_on,,0,0,2,,,,,,0,64,92
83328,note_off,,192,0,2,,,,,,0,62,64
83328,note_off,,192,0,1,,,,,,0,71,64
83520,note_on,,0,0,1,,,,,,0,68,92
83520,note_on,,0,0,2,,,,,,0,62,92
83520,note_off,,192,0,1,,,,,,0,72,64
83520,note_off,,0,0,1,,,,,,0,69,64
83520,note_on,,0,0,1,,,,,,0,71,92
83520,note_off,,192,0,2,,,,,,0,64,64
83712,note_off,,192,0,2,,,,,,0,62,64
83712,note_on,,0,0,2,,,,,,0,60,92
83712,note_off,,192,0,1,,,,,,0,71,64
83712,note_on,,0,0,1,,,,,,0,69,92
83904,note_off,,192,0,2,,,,,,0,60,64
83904,note_on,,0,0,2,,,,,,0,62,92
83904,set_tempo,666660,960,1,0,,,,,,,,
83904,note_on,,0,0,1,,,,,,0,71,92
83904,note_off,,192,0,1,,,,,,0,69,64
84096,note_on,,0,0,3,,,,,,0,45,102
84096,note_off,,1152,0,3,,,,,,0,40,64
84096,note_off,,192,0,1,,,,,,0,71,64
84096,note_on,,0,0,1,,,,,,0,64,92
84096,note_on,,0,0,1,,,,,,0,69,92
84096,note_on,,0,0,2,,,,,,0,60,92
84096,note_off,,192,0,2,,,,,,0,62,64
84096,note_off,,0,0,1,,,,,,0,68,64
85248,note_off,,0,0,2,,,,,,0,52,64
85248,note_off,,1152,0,2,,,,,,0,60,64
85248,note_off,,1152,0,3,,,,,,0,45,64
85248,end_of_track,,0,1,3,,,,,,,,
85248,set_tempo,923070,1344,1,0,,,,,,,,
85248,time_signature,,0,1,0,4,4,24,8,,,,
85248,note_off,,1152,0,1,,,,,,0,69,64
85248,note_off,,0,0,1,,,,,,0,64,64
86784,note_on,,1536,0,2,,,,,,0,67,92
86784,note_on,,1536,0,1,,,,,,0,72,92
86784,note_on,,0,0,1,,,,,,0,76,92
86784,note_on,,0,0,2,,,,,,0,60,92
86976,note_on,,0,0,1,,,,,,0,71,92
86976,note_on,,0,0,1,,,,,,0,74,92
86976,note_off,,192,0,1,,,,,,0,76,64
86976,note_off,,0,0,1,,,,,,0,72,64
87168,note_on,,0,0,2,,,,,,0,65,92
87168,note_off,,384,0,2,,,,,,0,67,64
87360,note_off,,384,0,1,,,,,,0,74,64
87360,note_off,,0,0,1,,,,,,0,71,64
87360,note_on,,0,0,1,,,,,,0,72,92
87360,note_on,,0,0,2,,,,,,0,64,92
87360,note_off,,192,0,2,,,,,,0,65,64
87552,note_off,,192,0,2,,,,,,0,64,64
87552,note_on,,0,0,2,,,,,,0,69,92
87552,note_off,,192,0,1,,,,,,0,72,64
87552,note_on,,0,0,1,,,,,,0,72,92
87552,note_on,,0,0,1,,,,,,0,77,92
87648,note_off,,96,0,1,,,,,,0,77,64
87648,note_on,,0,0,1,,,,,,0,79,92
87744,note_off,,96,0,1,,,,,,0,79,64
87744,note_on,,0,0,1,,,,,,0,81,92
87840,note_on,,0,0,2,,,,,,0,67,92
87840,note_off,,288,0,2,,,,,,0,69,64
87936,note_off,,96,0,2,,,,,,0,67,64
87936,note_on,,0,0,2,,,,,,0,65,92
87936,note_off,,192,0,1,,,,,,0,72,64
88128,note_off,,192,0,2,,,,,,0,65,64
88128,note_on,,0,0,2,,,,,,0,64,92
88128,note_on,,0,0,1,,,,,,0,79,92
88128,note_off,,192,0,1,,,,,,0,81,64
88320,note_off,,192,0,2,,,,,,0,64,64
88320,note_on,,0,0,2,,,,,,0,62,92
88320,note_on,,0,0,1,,,,,,0,77,92
88320,note_off,,192,0,1,,,,,,0,79,64
88416,note_on,,0,0,1,,,,,,0,79,92
88416,note_off,,96,0,1,,,,,,0,77,64
88512,note_off,,192,0,2,,,,,,0,60,64
88512,note_on,,0,0,2,,,,,,0,59,92
88512,note_off,,96,0,1,,,,,,0,79,64
88512,note_on,,0,0,1,,,,,,0,77,92
88608,note_off,,96,0,1,,,,,,0,77,64
88608,note_on,,0,0,1,,,,,,0,76,92
88656,note_off,,48,0,1,,,,,,0,76,64
88656,note_on,,0,0,1,,,,,,0,74,92
88704,note_on,,0,0,2,,,,,,0,60,92
88704,note_off,,48,0,1,,,,,,0,74,64
88704,note_on,,0,0,1,,,,,,0,76,92
88704,note_on,,0,0,2,,,,,,0,64,92
88704,note_off,,0,0,2,,,,,,0,62,64
88704,note_off,,192,0,2,,,,,,0,59,64
88800,note_off,,96,0,1,,,,,,0,76,64
88800,note_on,,0,0,1,,,,,,0,77,92
88896,note_off,,192,0,2,,,,,,0,64,64
88896,note_on,,0,0,1,,,,,,0,76,92
88896,note_off,,96,0,1,,,,,,0,77,64
88992,note_off,,96,0,1,,,,,,0,76,64
88992,note_on,,0,0,1,,,,,,0,74,92
89040,note_on,,0,0,1,,,,,,0,72,92
89040,note_off,,48,0,1,,,,,,0,74,64
89088,note_on,,192,0,2,,,,,,0,65,92
89088,note_off,,48,0,1,,,,,,0,72,64
89088,note_on,,0,0,1,,,,,,0,71,92
89088,note_on,,0,0,1,,,,,,0,74,92
89136,note_off,,48,0,1,,,,,,0,74,64
89136,note_on,,0,0,1,,,,,,0,76,92
89184,note_off,,48,0,1,,,,,,0,76,64
89184,note_on,,0,0,1,,,,,,0,74,92
89280,note_off,,0,0,1,,,,,,0,71,64
89280,note_on,,0,0,1,,,,,,0,72,92
89280,note_off,,96,0,1,,,,,,0,74,64
89280,note_off,,192,0,2,,,,,,0,65,64
89280,note_on,,0,0,2,,,,,,0,64,92
89376,note_off,,96,0,2,,,,,,0,64,64
89376,note_on,,0,0,2,,,,,,0,62,92
89472,note_on,,0,0,2,,,,,,0,64,92
89472,note_off,,96,0,2,,,,,,0,62,64
89568,note_off,,288,0,1,,,,,,0,72,64
89568,note_on,,0,0,1,,,,,,0,67,92
89664,note_off,,192,0,2,,,,,,0,64,64
89664,note_on,,0,0,1,,,,,,0,72,92
89664,note_on,,0,0,1,,,,,,0,65,92
89664,note_off,,96,0,1,,,,,,0,67,64
89760,note_on,,0,0,1,,,,,,0,74,92
89760,note_off,,96,0,1,,,,,,0,72,64
89856,note_on,,0,0,1,,,,,,0,76,92
89856,note_on,,0,0,1,,,,,,0,67,92
89856,note_off,,96,0,1,,,,,,0,74,64
89856,note_off,,0,0,1,,,,,,0,65,64
89952,note_on,,0,0,1,,,,,,0,72,92
89952,note_off,,96,0,1,,,,,,0,76,64
90048,note_on,,0,0,1,,,,,,0,71,92
90048,note_off,,96,0,1,,,,,,0,72,64
90144,note_on,,0,0,1,,,,,,0,72,92
90144,note_off,,96,0,1,,,,,,0,71,64
90240,note_off,,96,0,1,,,,,,0,72,64
90240,note_off,,0,0,1,,,,,,0,67,64
90240,note_on,,0,0,1,,,,,,0,65,92
90240,note_on,,0,0,1,,,,,,0,74,92
90336,note_on,,0,0,1,,,,,,0,72,92
90336,note_off,,96,0,1,,,,,,0,74,64
90384,note_on,,0,0,1,,,,,,0,71,92
90384,note_off,,48,0,1,,,,,,0,72,64
90432,note_off,,48,0,1,,,,,,0,71,64
90432,note_off,,0,0,1,,,,,,0,65,64
90432,note_on,,0,0,1,,,,,,0,64,92
90432,note_on,,0,0,1,,,,,,0,72,92
90528,note_off,,96,0,1,,,,,,0,72,64
90528,note_on,,0,0,1,,,,,,0,76,92
90624,note_on,,0,0,1,,,,,,0,77,92
90624,note_on,,0,0,1,,,,,,0,69,92
90624,note_off,,96,0,1,,,,,,0,76,64
90624,note_off,,0,0,1,,,,,,0,64,64
90720,note_off,,96,0,1,,,,,,0,77,64
90720,note_on,,0,0,1,,,,,,0,72,92
90816,note_on,,0,0,1,,,,,,0,77,92
90816,note_off,,96,0,1,,,,,,0,72,64
90912,note_off,,96,0,1,,,,,,0,77,64
90912,note_off,,0,0,1,,,,,,0,69,64
90912,note_on,,0,0,1,,,,,,0,67,92
90912,note_on,,0,0,1,,,,,,0,79,92
91008,note_off,,96,0,1,,,,,,0,79,64
91008,note_off,,0,0,1,,,,,,0,67,64
91008,note_on,,0,0,1,,,,,,0,65,92
91008,note_on,,0,0,1,,,,,,0,81,92
91104,note_off,,96,0,1,,,,,,0,81,64
91104,note_on,,0,0,1,,,,,,0,74,92
91200,note_on,,0,0,1,,,,,,0,79,92
91200,note_off,,96,0,1,,,,,,0,74,64
91200,note_on,,0,0,1,,,,,,0,64,92
91200,note_off,,0,0,1,,,,,,0,65,64
91296,note_off,,96,0,1,,,,,,0,79,64
91296,note_on,,0,0,1,,,,,,0,72,92
91392,note_off,,96,0,1,,,,,,0,72,64
91392,note_off,,0,0,1,,,,,,0,64,64
91392,note_on,,0,0,1,,,,,,0,62,92
91392,note_on,,0,0,1,,,,,,0,77,92
91488,note_off,,96,0,1,,,,,,0,77,64
91488,note_on,,0,0,1,,,,,,0,79,92
91584,note_off,,96,0,1,,,,,,0,79,64
91584,note_off,,1920,0,2,,,,,,0,60,64
91584,note_on,,0,0,2,,,,,,0,59,92
91584,note_on,,0,0,1,,,,,,0,77,92
91680,note_off,,96,0,1,,,,,,0,77,64
91680,note_on,,0,0,1,,,,,,0,76,92
91728,note_off,,48,0,1,,,,,,0,76,64
91728,note_on,,0,0,1,,,,,,0,74,92
91776,note_off,,48,0,1,,,,,,0,74,64
91776,note_off,,0,0,1,,,,,,0,62,64
91776,note_on,,0,0,2,,,,,,0,60,92
91776,note_off,,192,0,2,,,,,,0,59,64
91776,note_on,,0,0,1,,,,,,0,76,92
91872,note_on,,0,0,1,,,,,,0,77,92
91872,note_off,,96,0,1,,,,,,0,76,64
91968,note_off,,96,0,1,,,,,,0,77,64
91968,note_on,,0,0,1,,,,,,0,76,92
91968,note_on,,192,0,2,,,,,,0,48,92
92064,note_on,,0,0,1,,,,,,0,74,92
92064,note_off,,96,0,1,,,,,,0,76,64
92112,note_off,,48,0,1,,,,,,0,74,64
92112,note_on,,0,0,1,,,,,,0,72,92
92160,note_on,,0,0,1,,,,,,0,74,92
92160,note_off,,192,0,2,,,,,,0,48,64
92160,note_on,,0,0,2,,,,,,0,55,92
92160,note_off,,48,0,1,,,,,,0,72,64
92256,note_off,,96,0,2,,,,,,0,60,64
92256,note_on,,0,0,2,,,,,,0,60,92
92352,note_on,,0,0,2,,,,,,0,59,92
92352,note_off,,96,0,2,,,,,,0,60,64
92448,note_on,,0,0,2,,,,,,0,57,92
92448,note_off,,96,0,2,,,,,,0,59,64
92544,note_on,,0,0,2,,,,,,0,59,92
92544,note_off,,96,0,2,,,,,,0,57,64
92640,note_off,,480,0,1,,,,,,0,74,64
92640,note_on,,0,0,1,,,,,,0,74,92
92736,note_on,,0,0,2,,,,,,0,55,92
92736,note_on,,0,0,1,,,,,,0,72,92
92736,note_off,,96,0,1,,,,,,0,74,64
92736,note_off,,0,0,2,,,,,,0,55,64
92736,note_off,,192,0,2,,,,,,0,59,64
92832,note_on,,0,0,1,,,,,,0,74,92
92832,note_off,,96,0,1,,,,,,0,72,64
92928,note_on,,192,0,2,,,,,,0,60,92
92928,note_on,,0,0,1,,,,,,0,76,92
92928,note_off,,96,0,1,,,,,,0,74,64
93024,note_off,,96,0,1,,,,,,0,76,64
93024,note_on,,0,0,1,,,,,,0,72,92
93120,note_on,,0,0,1,,,,,,0,78,92
93120,note_on,,0,0,1,,,,,,0,62,92
93120,note_off,,96,0,1,,,,,,0,72,64
93120,note_off,,192,0,2,,,,,,0,60,64
93216,note_off,,96,0,1,,,,,,0,78,64
93216,note_on,,0,0,1,,,,,,0,72,92
93312,note_on,,0,0,1,,,,,,0,79,92
93312,note_off,,96,0,1,,,,,,0,72,64
93312,note_off,,0,0,1,,,,,,0,62,64
93312,note_on,,0,0,1,,,,,,0,64,92
93408,note_on,,0,0,1,,,,,,0,72,92
93408,note_off,,96,0,1,,,,,,0,79,64
93504,note_off,,96,0,1,,,,,,0,72,64
93504,note_off,,0,0,1,,,,,,0,64,64
93504,note_on,,0,0,1,,,,,,0,66,92
93504,note_on,,0,0,1,,,,,,0,81,92
93600,note_on,,0,0,1,,,,,,0,72,92
93600,note_off,,96,0,1,,,,,,0,81,64
93696,note_off,,96,0,1,,,,,,0,72,64
93696,note_off,,0,0,1,,,,,,0,66,64
93696,note_on,,0,0,1,,,,,,0,67,92
93696,note_on,,0,0,1,,,,,,0,71,92
93792,note_on,,0,0,1,,,,,,0,74,92
93792,note_off,,96,0,1,,,,,,0,71,64
93888,note_off,,96,0,1,,,,,,0,74,64
93888,note_on,,0,0,1,,,,,,0,69,92
93888,note_off,,0,0,1,,,,,,0,67,64
93888,note_on,,768,0,2,,,,,,0,60,92
93984,note_off,,96,0,1,,,,,,0,69,64
93984,note_on,,0,0,1,,,,,,0,74,92
94080,note_on,,0,0,2,,,,,,0,59,92
94080,note_off,,96,0,1,,,,,,0,74,64
94080,note_on,,0,0,1,,,,,,0,67,92
94080,note_off,,192,0,2,,,,,,0,60,64
94176,note_off,,96,0,1,,,,,,0,67,64
94176,note_on,,0,0,1,,,,,,0,74,92
94272,note_off,,192,0,2,,,,,,0,55,64
94272,note_on,,0,0,2,,,,,,0,55,92
94272,note_off,,96,0,1,,,,,,0,74,64
94272,note_on,,0,0,1,,,,,,0,65,92
94368,note_off,,96,0,1,,,,,,0,65,64
94368,note_on,,0,0,1,,,,,,0,74,92
94464,note_on,,0,0,1,,,,,,0,64,92
94464,note_off,,192,0,2,,,,,,0,59,64
94464,note_on,,0,0,2,,,,,,0,60,92
94464,note_off,,96,0,1,,,,,,0,74,64
94560,note_off,,96,0,1,,,,,,0,64,64
94560,note_on,,0,0,1,,,,,,0,74,92
94656,note_off,,96,0,1,,,,,,0,74,64
94656,note_on,,0,0,1,,,,,,0,62,92
94656,note_on,,0,0,1,,,,,,0,66,92
94656,note_off,,192,0,2,,,,,,0,60,64
94752,note_on,,0,0,1,,,,,,0,74,92
94752,note_off,,96,0,1,,,,,,0,66,64
94848,note_off,,96,0,1,,,,,,0,74,64
94848,note_on,,0,0,1,,,,,,0,67,92
94848,note_on,,0,0,1,,,,,,0,64,92
94848,note_off,,0,0,1,,,,,,0,62,64
94944,note_on,,0,0,1,,,,,,0,72,92
94944,note_off,,96,0,1,,,,,,0,67,64
95040,note_off,,0,0,1,,,,,,0,64,64
95040,note_on,,0,0,1,,,,,,0,69,92
95040,note_off,,96,0,1,,,,,,0,72,64
95040,note_on,,0,0,1,,,,,,0,66,92
95136,note_on,,0,0,1,,,,,,0,72,92
95136,note_off,,96,0,1,,,,,,0,69,64
95232,note_off,,0,0,1,,,,,,0,66,64
95232,note_on,,0,0,1,,,,,,0,67,92
95232,note_on,,0,0,1,,,,,,0,71,92
95232,note_off,,96,0,1,,,,,,0,72,64
95328,note_on,,0,0,1,,,,,,0,72,92
95328,note_off,,96,0,1,,,,,,0,71,64
95376,note_on,,0,0,1,,,,,,0,74,92
95376,note_off,,48,0,1,,,,,,0,72,64
95424,note_on,,0,0,2,,,,,,0,57,92
95424,note_off,,768,0,2,,,,,,0,55,64
95424,note_off,,48,0,1,,,,,,0,74,64
95424,note_on,,0,0,1,,,,,,0,72,92
95520,note_off,,96,0,1,,,,,,0,72,64
95520,note_on,,0,0,1,,,,,,0,74,92
95568,note_off,,48,0,1,,,,,,0,74,64
95568,note_on,,0,0,1,,,,,,0,76,92
95616,note_on,,0,0,2,,,,,,0,59,92
95616,note_off,,192,0,2,,,,,,0,57,64
95616,note_off,,48,0,1,,,,,,0,76,64
95616,note_on,,0,0,1,,,,,,0,74,92
95712,note_off,,96,0,1,,,,,,0,74,64
95712,note_on,,0,0,1,,,,,,0,76,92
95760,note_on,,0,0,1,,,,,,0,77,92
95760,note_off,,48,0,1,,,,,,0,76,64
95808,note_off,,192,0,2,,,,,,0,59,64
95808,note_on,,0,0,2,,,,,,0,55,92
95808,note_off,,48,0,1,,,,,,0,77,64
95808,note_on,,0,0,1,,,,,,0,76,92
95904,note_off,,96,0,1,,,,,,0,76,64
95904,note_on,,0,0,1,,,,,,0,74,92
96000,note_off,,192,0,2,,,,,,0,55,64
96000,note_off,,96,0,1,,,,,,0,74,64
96000,note_on,,0,0,1,,,,,,0,76,92
96000,note_on,,0,0,2,,,,,,0,60,92
96096,note_on,,0,0,1,,,,,,0,78,92
96096,note_off,,96,0,1,,,,,,0,76,64
96192,note_off,,96,0,1,,,,,,0,67,64
96192,note_on,,0,0,1,,,,,,0,69,92
96288,note_on,,0,0,1,,,,,,0,79,92
96288,note_off,,96,0,1,,,,,,0,78,64
96384,note_on,,0,0,2,,,,,,0,59,92
96384,note_on,,0,0,1,,,,,,0,74,92
96384,note_off,,384,0,2,,,,,,0,60,64
96384,note_off,,96,0,1,,,,,,0,79,64
96480,note_off,,96,0,1,,,,,,0,74,64
96480,note_on,,0,0,1,,,,,,0,78,92
96576,note_on,,0,0,1,,,,,,0,67,92
96576,note_off,,96,0,1,,,,,,0,69,64
96672,note_on,,0,0,1,,,,,,0,79,92
96672,note_off,,96,0,1,,,,,,0,78,64
96768,note_on,,0,0,1,,,,,,0,72,92
96768,note_off,,384,0,2,,,,,,0,59,64
96768,note_on,,0,0,2,,,,,,0,57,92
96768,note_off,,96,0,1,,,,,,0,79,64
96864,note_on,,0,0,1,,,,,,0,71,92
96864,note_off,,96,0,1,,,,,,0,72,64
96960,note_on,,0,0,1,,,,,,0,72,92
96960,note_off,,96,0,1,,,,,,0,71,64
96960,note_off,,0,0,1,,,,,,0,67,64
96960,note_on,,0,0,1,,,,,,0,66,92
97056,note_off,,0,0,1,,,,,,0,66,64
97056,note_on,,0,0,1,,,,,,0,64,92
97056,note_on,,0,0,1,,,,,,0,81,92
97056,note_off,,96,0,1,,,,,,0,72,64
97152,note_off,,0,0,1,,,,,,0,64,64
97152,note_on,,0,0,1,,,,,,0,79,92
97152,note_on,,0,0,1,,,,,,0,62,92
97152,note_off,,96,0,1,,,,,,0,81,64
97152,note_off,,384,0,2,,,,,,0,57,64
97248,note_off,,96,0,1,,,,,,0,79,64
97248,note_on,,0,0,1,,,,,,0,78,92
97344,note_on,,192,0,2,,,,,,0,54,92
97344,note_on,,0,0,1,,,,,,0,76,92
97344,note_off,,96,0,1,,,,,,0,78,64
97440,note_off,,96,0,1,,,,,,0,76,64
97440,note_on,,0,0,1,,,,,,0,74,92
97536,note_off,,96,0,1,,,,,,0,74,64
97536,note_on,,0,0,2,,,,,,0,55,92
97536,note_off,,192,0,2,,,,,,0,54,64
97536,note_on,,0,0,1,,,,,,0,84,92
97632,note_off,,96,0,1,,,,,,0,84,64
97632,note_on,,0,0,1,,,,,,0,83,92
97728,note_on,,0,0,2,,,,,,0,47,92
97728,note_off,,192,0,2,,,,,,0,55,64
97728,note_off,,96,0,1,,,,,,0,83,64
97728,note_off,,0,0,1,,,,,,0,62,64
97728,note_on,,0,0,1,,,,,,0,81,92
97824,note_on,,0,0,1,,,,,,0,79,92
97824,note_off,,96,0,1,,,,,,0,81,64
97920,note_on,,0,0,1,,,,,,0,81,92
97920,note_off,,96,0,1,,,,,,0,79,64
97920,note_off,,192,0,2,,,,,,0,47,64
97920,note_on,,0,0,2,,,,,,0,48,92
98112,note_on,,0,0,1,,,,,,0,78,92
98112,note_off,,192,0,1,,,,,,0,81,64
98112,note_on,,0,0,2,,,,,,0,50,92
98112,note_off,,192,0,2,,,,,,0,48,64
98160,note_on,,0,0,1,,,,,,0,79,92
98160,note_off,,48,0,1,,,,,,0,78,64
98208,note_off,,48,0,1,,,,,,0,79,64
98208,note_on,,0,0,1,,,,,,0,78,92
98304,note_on,,0,0,2,,,,,,0,55,92
98304,note_off,,192,0,2,,,,,,0,50,64
98304,note_on,,0,0,1,,,,,,0,79,92
98304,note_off,,96,0,1,,,,,,0,78,64
98400,note_on,,96,0,1,,,,,,0,74,92
98496,note_on,,96,0,1,,,,,,0,71,92
98592,note_on,,288,0,2,,,,,,0,50,92
98688,note_off,,96,0,2,,,,,,0,50,64
98688,note_on,,0,0,2,,,,,,0,43,92
99072,note_on,,0,0,2,,,,,,0,67,92
99072,note_on,,0,0,1,,,,,,0,72,92
99072,note_off,,0,0,1,,,,,,0,79,64
99072,note_off,,0,0,1,,,,,,0,74,64
99072,note_off,,576,0,1,,,,,,0,71,64
99072,note_off,,384,0,2,,,,,,0,43,64
99072,note_off,,0,0,2,,,,,,0,55,64
99072,note_on,,0,0,1,,,,,,0,76,92
99072,note_on,,0,0,2,,,,,,0,60,92
99264,note_off,,0,0,1,,,,,,0,72,64
99264,note_on,,0,0,1,,,,,,0,71,92
99264,note_off,,192,0,1,,,,,,0,76,64
99264,note_on,,0,0,1,,,,,,0,74,92
99456,note_on,,0,0,2,,,,,,0,65,92
99456,note_off,,384,0,2,,,,,,0,67,64
99648,note_off,,192,0,2,,,,,,0,65,64
99648,note_on,,0,0,2,,,,,,0,64,92
99648,note_off,,384,0,1,,,,,,0,74,64
99648,note_off,,0,0,1,,,,,,0,71,64
99648,note_on,,0,0,1,,,,,,0,72,92
99840,note_off,,192,0,2,,,,,,0,64,64
99840,note_on,,0,0,2,,,,,,0,69,92
99840,note_off,,192,0,1,,,,,,0,72,64
99840,note_on,,0,0,1,,,,,,0,77,92
99840,note_on,,0,0,1,,,,,,0,72,92
99936,note_on,,0,0,1,,,,,,0,79,92
99936,note_off,,96,0,1,,,,,,0,77,64
100032,note_on,,0,0,1,,,,,,0,81,92
100032,note_off,,96,0,1,,,,,,0,79,64
100128,note_off,,288,0,2,,,,,,0,69,64
100128,note_on,,0,0,2,,,,,,0,67,92
100224,note_off,,96,0,2,,,,,,0,67,64
100224,note_on,,0,0,2,,,,,,0,65,92
100224,note_off,,192,0,1,,,,,,0,72,64
100416,note_off,,192,0,1,,,,,,0,81,64
100416,note_off,,192,0,2,,,,,,0,65,64
100416,note_on,,0,0,2,,,,,,0,64,92
100416,note_on,,0,0,1,,,,,,0,79,92
100608,note_off,,192,0,2,,,,,,0,64,64
100608,note_on,,0,0,2,,,,,,0,62,92
100608,note_off,,192,0,1,,,,,,0,79,64
100608,note_on,,0,0,1,,,,,,0,77,92
100704,note_off,,96,0,1,,,,,,0,77,64
100704,note_on,,0,0,1,,,,,,0,79,92
100800,note_on,,0,0,2,,,,,,0,59,92
100800,note_off,,192,0,2,,,,,,0,60,64
100800,note_off,,96,0,1,,,,,,0,79,64
100800,note_on,,0,0,1,,,,,,0,77,92
100896,note_off,,96,0,1,,,,,,0,77,64
100896,note_on,,0,0,1,,,,,,0,76,92
100944,note_off,,48,0,1,,,,,,0,76,64
100944,note_on,,0,0,1,,,,,,0,74,92
100992,note_on,,0,0,1,,,,,,0,76,92
100992,note_off,,48,0,1,,,,,,0,74,64
100992,note_on,,0,0,2,,,,,,0,60,92
100992,note_on,,0,0,2,,,,,,0,64,92
100992,note_off,,0,0,2,,,,,,0,62,64
100992,note_off,,192,0,2,,,,,,0,59,64
101088,note_on,,0,0,1,,,,,,0,77,92
101088,note_off,,96,0,1,,,,,,0,76,64
101184,note_on,,0,0,1,,,,,,0,76,92
101184,note_off,,96,0,1,,,,,,0,77,64
101184,note_off,,192,0,2,,,,,,0,64,64
101280,note_on,,0,0,1,,,,,,0,74,92
101280,note_off,,96,0,1,,,,,,0,76,64
101328,note_off,,48,0,1,,,,,,0,74,64
101328,note_on,,0,0,1,,,,,,0,72,92
101376,note_on,,192,0,2,,,,,,0,65,92
101376,note_on,,0,0,1,,,,,,0,74,92
101376,note_on,,0,0,1,,,,,,0,71,92
101376,note_off,,48,0,1,,,,,,0,72,64
101424,note_on,,0,0,1,,,,,,0,76,92
101424,note_off,,48,0,1,,,,,,0,74,64
101472,note_off,,48,0,1,,,,,,0,76,64
101472,note_on,,0,0,1,,,,,,0,74,92
101568,note_off,,192,0,2,,,,,,0,65,64
101568,note_on,,0,0,2,,,,,,0,64,92
101568,note_off,,96,0,1,,,,,,0,74,64
101568,note_off,,0,0,1,,,,,,0,71,64
101568,note_on,,0,0,1,,,,,,0,72,92
101664,note_on,,0,0,2,,,,,,0,62,92
101664,note_off,,96,0,2,,,,,,0,64,64
101760,note_off,,96,0,2,,,,,,0,62,64
101760,note_on,,0,0,2,,,,,,0,64,92
101856,note_off,,288,0,1,,,,,,0,72,64
101856,note_on,,0,0,1,,,,,,0,67,92
101952,note_off,,192,0,2,,,,,,0,64,64
101952,note_off,,96,0,1,,,,,,0,67,64
101952,note_on,,0,0,1,,,,,,0,65,92
101952,note_on,,0,0,1,,,,,,0,72,92
102048,note_off,,96,0,1,,,,,,0,72,64
102048,note_on,,0,0,1,,,,,,0,74,92
102144,note_on,,0,0,1,,,,,,0,76,92
102144,note_off,,0,0,1,,,,,,0,65,64
102144,note_on,,0,0,1,,,,,,0,67,92
102144,note_off,,96,0,1,,,,,,0,74,64
102240,note_off,,96,0,1,,,,,,0,76,64
102240,note_on,,0,0,1,,,,,,0,72,92
102336,note_off,,96,0,1,,,,,,0,72,64
102336,note_on,,0,0,1,,,,,,0,71,92
102432,note_off,,96,0,1,,,,,,0,71,64
102432,note_on,,0,0,1,,,,,,0,72,92
102528,note_off,,96,0,1,,,,,,0,72,64
102528,note_off,,0,0,1,,,,,,0,67,64
102528,note_on,,0,0,1,,,,,,0,74,92
102528,note_on,,0,0,1,,,,,,0,65,92
102624,note_off,,96,0,1,,,,,,0,74,64
102624,note_on,,0,0,1,,,,,,0,72,92
102672,note_off,,48,0,1,,,,,,0,72,64
102672,note_on,,0,0,1,,,,,,0,71,92
102720,note_off,,48,0,1,,,,,,0,71,64
102720,note_off,,0,0,1,,,,,,0,65,64
102720,note_on,,0,0,1,,,,,,0,64,92
102720,note_on,,0,0,1,,,,,,0,72,92
102816,note_off,,96,0,1,,,,,,0,72,64
102816,note_on,,0,0,1,,,,,,0,76,92
102912,note_on,,0,0,1,,,,,,0,69,92
102912,note_off,,96,0,1,,,,,,0,76,64
102912,note_off,,0,0,1,,,,,,0,64,64
102912,note_on,,0,0,1,,,,,,0,77,92
103008,note_off,,96,0,1,,,,,,0,77,64
103008,note_on,,0,0,1,,,,,,0,72,92
103104,note_off,,96,0,1,,,,,,0,72,64
103104,note_on,,0,0,1,,,,,,0,77,92
103200,note_on,,0,0,1,,,,,,0,79,92
103200,note_on,,0,0,1,,,,,,0,67,92
103200,note_off,,0,0,1,,,,,,0,69,64
103200,note_off,,96,0,1,,,,,,0,77,64
103296,note_off,,96,0,1,,,,,,0,79,64
103296,note_off,,0,0,1,,,,,,0,67,64
103296,note_on,,0,0,1,,,,,,0,81,92
103296,note_on,,0,0,1,,,,,,0,65,92
103392,note_off,,96,0,1,,,,,,0,81,64
103392,note_on,,0,0,1,,,,,,0,74,92
103488,note_off,,96,0,1,,,,,,0,74,64
103488,note_off,,0,0,1,,,,,,0,65,64
103488,note_on,,0,0,1,,,,,,0,64,92
103488,note_on,,0,0,1,,,,,,0,79,92
103584,note_off,,96,0,1,,,,,,0,79,64
103584,note_on,,0,0,1,,,,,,0,72,92
103680,note_off,,96,0,1,,,,,,0,72,64
103680,note_off,,0,0,1,,,,,,0,64,64
103680,note_on,,0,0,1,,,,,,0,62,92
103680,note_on,,0,0,1,,,,,,0,77,92
103776,note_off,,96,0,1,,,,,,0,77,64
103776,note_on,,0,0,1,,,,,,0,79,92
103872,note_on,,0,0,2,,,,,,0,59,92
103872,note_off,,1920,0,2,,,,,,0,60,64
103872,note_off,,96,0,1,,,,,,0,79,64
103872,note_on,,0,0,1,,,,,,0,77,92
103968,note_off,,96,0,1,,,,,,0,77,64
103968,note_on,,0,0,1,,,,,,0,76,92
104016,note_on,,0,0,1,,,,,,0,74,92
104016,note_off,,48,0,1,,,,,,0,76,64
104064,note_on,,0,0,1,,,,,,0,76,92
104064,note_off,,192,0,2,,,,,,0,59,64
104064,note_on,,0,0,2,,,,,,0,60,92
104064,note_off,,48,0,1,,,,,,0,74,64
104064,note_off,,0,0,1,,,,,,0,62,64
104160,note_on,,0,0,1,,,,,,0,77,92
104160,note_off,,96,0,1,,,,,,0,76,64
104256,note_on,,0,0,1,,,,,,0,76,92
104256,note_off,,96,0,1,,,,,,0,77,64
104256,note_on,,192,0,2,,,,,,0,48,92
104352,note_on,,0,0,1,,,,,,0,74,92
104352,note_off,,96,0,1,,,,,,0,76,64
104400,note_on,,0,0,1,,,,,,0,72,92
104400,note_off,,48,0,1,,,,,,0,74,64
104448,note_on,,0,0,1,,,,,,0,74,92
104448,note_on,,0,0,2,,,,,,0,55,92
104448,note_off,,192,0,2,,,,,,0,48,64
104448,note_off,,48,0,1,,,,,,0,72,64
104544,note_on,,0,0,2,,,,,,0,60,92
104544,note_off,,96,0,2,,,,,,0,60,64
104640,note_off,,96,0,2,,,,,,0,60,64
104640,note_on,,0,0,2,,,,,,0,59,92
104736,note_off,,96,0,2,,,,,,0,59,64
104736,note_on,,0,0,2,,,,,,0,57,92
104832,note_off,,96,0,2,,,,,,0,57,64
104832,note_on,,0,0,2,,,,,,0,59,92
104928,note_off,,480,0,1,,,,,,0,74,64
104928,note_on,,0,0,1,,,,,,0,74,92
105024,note_on,,0,0,1,,,,,,0,72,92
105024,note_off,,192,0,2,,,,,,0,59,64
105024,note_off,,0,0,2,,,,,,0,55,64
105024,note_on,,0,0,2,,,,,,0,55,92
105024,note_off,,96,0,1,,,,,,0,74,64
105120,note_on,,0,0,1,,,,,,0,74,92
105120,note_off,,96,0,1,,,,,,0,72,64
105216,note_on,,192,0,2,,,,,,0,60,92
105216,note_on,,0,0,1,,,,,,0,76,92
105216,note_off,,96,0,1,,,,,,0,74,64
105312,note_on,,0,0,1,,,,,,0,72,92
105312,note_off,,96,0,1,,,,,,0,76,64
105408,note_on,,0,0,1,,,,,,0,62,92
105408,note_off,,192,0,2,,,,,,0,60,64
105408,note_off,,96,0,1,,,,,,0,72,64
105408,note_on,,0,0,1,,,,,,0,78,92
105504,note_off,,96,0,1,,,,,,0,78,64
105504,note_on,,0,0,1,,,,,,0,72,92
105600,note_off,,0,0,1,,,,,,0,62,64
105600,note_on,,0,0,1,,,,,,0,79,92
105600,note_off,,96,0,1,,,,,,0,72,64
105600,note_on,,0,0,1,,,,,,0,64,92
105696,note_on,,0,0,1,,,,,,0,72,92
105696,note_off,,96,0,1,,,,,,0,79,64
105792,note_off,,96,0,1,,,,,,0,72,64
105792,note_on,,0,0,1,,,,,,0,66,92
105792,note_on,,0,0,1,,,,,,0,81,92
105792,note_off,,0,0,1,,,,,,0,64,64
105888,note_on,,0,0,1,,,,,,0,72,92
105888,note_off,,96,0,1,,,,,,0,81,64
105984,note_on,,0,0,1,,,,,,0,71,92
105984,note_on,,0,0,1,,,,,,0,67,92
105984,note_off,,96,0,1,,,,,,0,72,64
105984,note_off,,0,0,1,,,,,,0,66,64
106080,note_on,,0,0,1,,,,,,0,74,92
106080,note_off,,96,0,1,,,,,,0,71,64
106176,note_off,,96,0,1,,,,,,0,74,64
106176,note_off,,0,0,1,,,,,,0,67,64
106176,note_on,,0,0,1,,,,,,0,69,92
106176,note_on,,768,0,2,,,,,,0,60,92
106272,note_on,,0,0,1,,,,,,0,74,92
106272,note_off,,96,0,1,,,,,,0,69,64
106368,note_on,,0,0,1,,,,,,0,67,92
106368,note_on,,0,0,2,,,,,,0,59,92
106368,note_off,,96,0,1,,,,,,0,74,64
106368,note_off,,192,0,2,,,,,,0,60,64
106464,note_off,,96,0,1,,,,,,0,67,64
106464,note_on,,0,0,1,,,,,,0,74,92
106560,note_off,,96,0,1,,,,,,0,74,64
106560,note_on,,0,0,1,,,,,,0,65,92
106560,note_on,,0,0,2,,,,,,0,55,92
106560,note_off,,192,0,2,,,,,,0,55,64
106656,note_on,,0,0,1,,,,,,0,74,92
106656,note_off,,96,0,1,,,,,,0,65,64
106752,note_on,,0,0,2,,,,,,0,60,92
106752,note_off,,96,0,1,,,,,,0,74,64
106752,note_on,,0,0,1,,,,,,0,64,92
106752,note_off,,192,0,2,,,,,,0,59,64
106848,note_off,,96,0,1,,,,,,0,64,64
106848,note_on,,0,0,1,,,,,,0,74,92
106944,note_on,,0,0,1,,,,,,0,62,92
106944,note_off,,192,0,2,,,,,,0,60,64
106944,note_on,,0,0,1,,,,,,0,66,92
106944,note_off,,96,0,1,,,,,,0,74,64
107040,note_on,,0,0,1,,,,,,0,74,92
107040,note_off,,96,0,1,,,,,,0,66,64
107136,note_on,,0,0,1,,,,,,0,67,92
107136,note_on,,0,0,1,,,,,,0,64,92
107136,note_off,,0,0,1,,,,,,0,62,64
107136,note_off,,96,0,1,,,,,,0,74,64
107232,note_off,,96,0,1,,,,,,0,67,64
107232,note_on,,0,0,1,,,,,,0,72,92
107328,note_off,,96,0,1,,,,,,0,72,64
107328,note_off,,0,0,1,,,,,,0,64,64
107328,note_on,,0,0,1,,,,,,0,66,92
107328,note_on,,0,0,1,,,,,,0,69,92
107424,note_off,,96,0,1,,,,,,0,69,64
107424,note_on,,0,0,1,,,,,,0,72,92
107520,note_off,,96,0,1,,,,,,0,72,64
107520,note_off,,0,0,1,,,,,,0,66,64
107520,note_on,,0,0,1,,,,,,0,71,92
107520,note_on,,0,0,1,,,,,,0,67,92
107616,note_off,,96,0,1,,,,,,0,71,64
107616,note_on,,0,0,1,,,,,,0,72,92
107664,note_off,,48,0,1,,,,,,0,72,64
107664,note_on,,0,0,1,,,,,,0,74,92
107712,note_off,,48,0,1,,,,,,0,74,64
107712,note_on,,0,0,1,,,,,,0,72,92
107712,note_off,,768,0,2,,,,,,0,55,64
107712,note_on,,0,0,2,,,,,,0,57,92
107808,note_off,,96,0,1,,,,,,0,72,64
107808,note_on,,0,0,1,,,,,,0,74,92
107856,note_on,,0,0,1,,,,,,0,76,92
107856,note_off,,48,0,1,,,,,,0,74,64
107904,note_on,,0,0,1,,,,,,0,74,92
107904,note_on,,0,0,2,,,,,,0,59,92
107904,note_off,,192,0,2,,,,,,0,57,64
107904,note_off,,48,0,1,,,,,,0,76,64
108000,note_on,,0,0,1,,,,,,0,76,92
108000,note_off,,96,0,1,,,,,,0,74,64
108048,note_off,,48,0,1,,,,,,0,76,64
108048,note_on,,0,0,1,,,,,,0,77,92
108096,note_off,,192,0,2,,,,,,0,59,64
108096,note_on,,0,0,2,,,,,,0,55,92
108096,note_off,,48,0,1,,,,,,0,77,64
108096,note_on,,0,0,1,,,,,,0,76,92
108192,note_off,,96,0,1,,,,,,0,76,64
108192,note_on,,0,0,1,,,,,,0,74,92
108288,note_on,,0,0,1,,,,,,0,76,92
108288,note_off,,192,0,2,,,,,,0,55,64
108288,note_off,,96,0,1,,,,,,0,74,64
108288,note_on,,0,0,2,,,,,,0,60,92
108384,note_off,,96,0,1,,,,,,0,76,64
108384,note_on,,0,0,1,,,,,,0,78,92
108480,note_off,,96,0,1,,,,,,0,67,64
108480,note_on,,0,0,1,,,,,,0,69,92
108576,note_on,,0,0,1,,,,,,0,79,92
108576,note_off,,96,0,1,,,,,,0,78,64
108672,note_off,,96,0,1,,,,,,0,79,64
108672,note_on,,0,0,1,,,,,,0,74,92
108672,note_off,,384,0,2,,,,,,0,60,64
108672,note_on,,0,0,2,,,,,,0,59,92
108768,note_off,,96,0,1,,,,,,0,74,64
108768,note_on,,0,0,1,,,,,,0,78,92
108864,note_off,,96,0,1,,,,,,0,69,64
108864,note_on,,0,0,1,,,,,,0,67,92
108960,note_off,,96,0,1,,,,,,0,78,64
108960,note_on,,0,0,1,,,,,,0,79,92
109056,note_off,,384,0,2,,,,,,0,59,64
109056,note_on,,0,0,2,,,,,,0,57,92
109056,note_off,,96,0,1,,,,,,0,79,64
109056,note_on,,0,0,1,,,,,,0,72,92
109152,note_on,,0,0,1,,,,,,0,71,92
109152,note_off,,96,0,1,,,,,,0,72,64
109248,note_on,,0,0,1,,,,,,0,72,92
109248,note_on,,0,0,1,,,,,,0,66,92
109248,note_off,,0,0,1,,,,,,0,67,64
109248,note_off,,96,0,1,,,,,,0,71,64
109344,note_off,,96,0,1,,,,,,0,72,64
109344,note_off,,0,0,1,,,,,,0,66,64
109344,note_on,,0,0,1,,,,,,0,64,92
109344,note_on,,0,0,1,,,,,,0,81,92
109440,note_on,,0,0,1,,,,,,0,79,92
109440,note_off,,384,0,2,,,,,,0,57,64
109440,note_off,,96,0,1,,,,,,0,81,64
109440,note_off,,0,0,1,,,,,,0,64,64
109440,note_on,,0,0,1,,,,,,0,62,92
109536,note_on,,0,0,1,,,,,,0,78,92
109536,note_off,,96,0,1,,,,,,0,79,64
109632,note_on,,0,0,1,,,,,,0,76,92
109632,note_on,,192,0,2,,,,,,0,54,92
109632,note_off,,96,0,1,,,,,,0,78,64
109728,note_on,,0,0,1,,,,,,0,74,92
109728,note_off,,96,0,1,,,,,,0,76,64
109824,note_on,,0,0,1,,,,,,0,84,92
109824,note_off,,96,0,1,,,,,,0,74,64
109824,note_off,,192,0,2,,,,,,0,54,64
109824,note_on,,0,0,2,,,,,,0,55,92
109920,note_off,,96,0,1,,,,,,0,84,64
109920,note_on,,0,0,1,,,,,,0,83,92
110016,note_on,,0,0,2,,,,,,0,47,92
110016,note_off,,192,0,2,,,,,,0,55,64
110016,note_off,,96,0,1,,,,,,0,83,64
110016,note_on,,0,0,1,,,,,,0,81,92
110016,note_off,,0,0,1,,,,,,0,62,64
110112,note_on,,0,0,1,,,,,,0,79,92
110112,note_off,,96,0,1,,,,,,0,81,64
110208,note_off,,96,0,1,,,,,,0,79,64
110208,note_on,,0,0,1,,,,,,0,81,92
110208,note_off,,192,0,2,,,,,,0,47,64
110208,note_on,,0,0,2,,,,,,0,48,92
110400,note_off,,192,0,1,,,,,,0,81,64
110400,note_on,,0,0,1,,,,,,0,78,92
110400,note_off,,192,0,2,,,,,,0,48,64
110400,note_on,,0,0,2,,,,,,0,50,92
110448,note_on,,0,0,1,,,,,,0,79,92
110448,note_off,,48,0,1,,,,,,0,78,64
110496,note_on,,0,0,1,,,,,,0,78,92
110496,note_off,,48,0,1,,,,,,0,79,64
110592,note_on,,0,0,2,,,,,,0,55,92
110592,note_off,,96,0,1,,,,,,0,78,64
110592,note_off,,192,0,2,,,,,,0,50,64
110592,note_on,,0,0,1,,,,,,0,79,92
110688,note_on,,96,0,1,,,,,,0,74,92
110784,note_on,,96,0,1,,,,,,0,71,92
110880,note_on,,288,0,2,,,,,,0,50,92
110976,note_off,,96,0,2,,,,,,0,50,64
110976,note_on,,0,0,2,,,,,,0,43,92
111360,note_off,,384,0,2,,,,,,0,43,64
111360,note_off,,0,0,2,,,,,,0,55,64
111360,note_on,,0,0,2,,,,,,0,67,92
111360,note_on,,0,0,2,,,,,,0,55,92
111360,note_off,,0,0,1,,,,,,0,79,64
111360,note_off,,0,0,1,,,,,,0,74,64
111360,note_off,,576,0,1,,,,,,0,71,64
111360,note_on,,0,0,1,,,,,,0,74,92
111360,note_on,,0,0,1,,,,,,0,71,92
111552,note_on,,0,0,1,,,,,,0,72,92
111552,note_on,,0,0,1,,,,,,0,69,92
111552,note_off,,0,0,1,,,,,,0,71,64
111552,note_off,,192,0,1,,,,,,0,74,64
111744,note_on,,0,0,2,,,,,,0,65,92
111744,note_off,,384,0,2,,,,,,0,67,64
111936,note_on,,0,0,1,,,,,,0,71,92
111936,note_off,,0,0,1,,,,,,0,69,64
111936,note_on,,0,0,1,,,,,,0,67,92
111936,note_off,,384,0,1,,,,,,0,72,64
112128,note_on,,0,0,2,,,,,,0,64,92
112128,note_off,,192,0,1,,,,,,0,71,64
112128,note_on,,0,0,1,,,,,,0,72,92
112128,note_off,,384,0,2,,,,,,0,65,64
112224,note_on,,0,0,1,,,,,,0,74,92
112224,note_off,,96,0,1,,,,,,0,72,64
112320,note_off,,96,0,1,,,,,,0,74,64
112320,note_on,,0,0,1,,,,,,0,76,92
112416,note_on,,0,0,2,,,,,,0,62,92
112416,note_off,,288,0,2,,,,,,0,64,64
112512,note_on,,0,0,2,,,,,,0,60,92
112512,note_off,,96,0,2,,,,,,0,62,64
112512,note_off,,192,0,1,,,,,,0,67,64
112608,note_off,,96,0,1,,,,,,0,76,64
112608,note_on,,0,0,1,,,,,,0,77,92
112704,note_off,,96,0,1,,,,,,0,77,64
112704,note_on,,0,0,1,,,,,,0,79,92
112704,note_off,,192,0,2,,,,,,0,60,64
112704,note_on,,0,0,2,,,,,,0,58,92
112800,note_off,,96,0,1,,,,,,0,79,64
112800,note_on,,0,0,1,,,,,,0,76,92
112896,note_off,,96,0,1,,,,,,0,76,64
112896,note_on,,0,0,1,,,,,,0,73,92
112896,note_off,,192,0,2,,,,,,0,58,64
112896,note_on,,0,0,2,,,,,,0,57,92
112992,note_off,,96,0,1,,,,,,0,73,64
112992,note_on,,0,0,1,,,,,,0,74,92
113040,note_off,,48,0,1,,,,,,0,74,64
113040,note_on,,0,0,1,,,,,,0,76,92
113088,note_off,,192,0,2,,,,,,0,55,64
113088,note_on,,0,0,2,,,,,,0,52,92
113088,note_off,,48,0,1,,,,,,0,76,64
113088,note_on,,0,0,1,,,,,,0,74,92
113184,note_off,,96,0,1,,,,,,0,74,64
113184,note_on,,0,0,1,,,,,,0,73,92
113280,note_off,,192,0,2,,,,,,0,52,64
113280,note_on,,0,0,1,,,,,,0,74,92
113280,note_on,,0,0,2,,,,,,0,53,92
113280,note_off,,96,0,1,,,,,,0,73,64
113376,note_off,,96,0,1,,,,,,0,74,64
113376,note_on,,0,0,1,,,,,,0,73,92
113472,note_off,,96,0,1,,,,,,0,73,64
113472,note_on,,0,0,1,,,,,,0,71,92
113472,note_on,,0,0,2,,,,,,0,49,92
113472,note_off,,192,0,2,,,,,,0,53,64
113568,note_off,,96,0,1,,,,,,0,71,64
113568,note_on,,0,0,1,,,,,,0,69,92
113664,note_off,,96,0,1,,,,,,0,69,64
113664,note_on,,0,0,1,,,,,,0,77,92
113664,note_off,,192,0,2,,,,,,0,49,64
113664,note_on,,0,0,2,,,,,,0,50,92
113760,note_off,,96,0,1,,,,,,0,77,64
113760,note_on,,0,0,1,,,,,,0,76,92
113856,note_on,,0,0,1,,,,,,0,77,92
113856,note_off,,96,0,1,,,,,,0,76,64
113952,note_on,,0,0,2,,,,,,0,57,92
113952,note_off,,288,0,2,,,,,,0,57,64
114048,note_on,,0,0,2,,,,,,0,62,92
114048,note_off,,96,0,2,,,,,,0,57,64
114144,note_on,,0,0,1,,,,,,0,74,92
114144,note_off,,288,0,1,,,,,,0,77,64
114240,note_on,,0,0,2,,,,,,0,58,92
114240,note_on,,0,0,2,,,,,,0,67,92
114240,note_off,,0,0,2,,,,,,0,50,64
114240,note_off,,192,0,2,,,,,,0,62,64
114240,note_on,,0,0,1,,,,,,0,73,92
114240,note_off,,96,0,1,,,,,,0,74,64
114336,note_on,,0,0,1,,,,,,0,74,92
114336,note_off,,96,0,1,,,,,,0,73,64
114432,note_off,,0,0,2,,,,,,0,67,64
114432,note_on,,0,0,1,,,,,,0,76,92
114432,note_off,,192,0,2,,,,,,0,58,64
114432,note_off,,96,0,1,,,,,,0,74,64
114432,note_on,,0,0,2,,,,,,0,57,92
114432,note_on,,0,0,2,,,,,,0,61,92
114528,note_on,,0,0,1,,,,,,0,81,92
114528,note_off,,96,0,1,,,,,,0,76,64
114624,note_on,,0,0,2,,,,,,0,64,92
114624,note_on,,0,0,1,,,,,,0,79,92
114624,note_off,,96,0,1,,,,,,0,81,64
114624,note_off,,192,0,2,,,,,,0,61,64
114720,note_on,,0,0,1,,,,,,0,77,92
114720,note_off,,96,0,1,,,,,,0,79,64
114768,note_on,,0,0,1,,,,,,0,76,92
114768,note_off,,48,0,1,,,,,,0,77,64
114816,note_on,,0,0,1,,,,,,0,77,92
114816,note_off,,48,0,1,,,,,,0,76,64
114816,note_off,,192,0,2,,,,,,0,64,64
114816,note_on,,0,0,2,,,,,,0,62,92
114912,note_on,,0,0,1,,,,,,0,74,92
114912,note_off,,96,0,1,,,,,,0,77,64
115008,note_on,,0,0,1,,,,,,0,68,92
115008,note_off,,96,0,1,,,,,,0,74,64
115008,note_on,,0,0,2,,,,,,0,59,92
115008,note_off,,192,0,2,,,,,,0,62,64
115104,note_on,,0,0,1,,,,,,0,77,92
115104,note_off,,96,0,1,,,,,,0,68,64
115200,note_off,,96,0,1,,,,,,0,77,64
115200,note_on,,0,0,1,,,,,,0,76,92
115200,note_on,,0,0,2,,,,,,0,61,92
115200,note_off,,192,0,2,,,,,,0,59,64
115296,note_off,,96,0,1,,,,,,0,76,64
115296,note_on,,0,0,1,,,,,,0,74,92
115392,note_off,,192,0,2,,,,,,0,61,64
115392,note_off,,96,0,1,,,,,,0,74,64
115392,note_on,,0,0,1,,,,,,0,73,92
115392,note_on,,0,0,2,,,,,,0,64,92
115488,note_off,,96,0,1,,,,,,0,73,64
115488,note_on,,0,0,1,,,,,,0,71,92
115584,note_off,,192,0,2,,,,,,0,64,64
115584,note_on,,0,0,2,,,,,,0,61,92
115584,note_off,,96,0,1,,,,,,0,71,64
115584,note_on,,0,0,1,,,,,,0,69,92
115680,note_off,,96,0,1,,,,,,0,69,64
115680,note_on,,0,0,1,,,,,,0,67,92
115776,note_on,,0,0,1,,,,,,0,65,92
115776,note_off,,192,0,2,,,,,,0,61,64
115776,note_off,,0,0,2,,,,,,0,57,64
115776,note_on,,0,0,2,,,,,,0,57,92
115776,note_off,,96,0,1,,,,,,0,67,64
115872,note_off,,96,0,1,,,,,,0,65,64
115872,note_on,,0,0,1,,,,,,0,64,92
115968,note_off,,96,0,1,,,,,,0,64,64
115968,note_on,,0,0,1,,,,,,0,65,92
115968,note_on,,0,0,2,,,,,,0,62,92
115968,note_off,,192,0,2,,,,,,0,57,64
116064,note_off,,96,0,1,,,,,,0,65,64
116064,note_on,,0,0,1,,,,,,0,67,92
116112,note_on,,0,0,1,,,,,,0,69,92
116112,note_off,,48,0,1,,,,,,0,67,64
116160,note_on,,0,0,2,,,,,,0,57,92
116160,note_off,,192,0,2,,,,,,0,62,64
116160,note_on,,0,0,1,,,,,,0,67,92
116160,note_off,,48,0,1,,,,,,0,69,64
116256,note_on,,0,0,1,,,,,,0,65,92
116256,note_off,,96,0,1,,,,,,0,67,64
116304,note_off,,48,0,1,,,,,,0,65,64
116304,note_on,,0,0,1,,,,,,0,64,92
116352,note_on,,0,0,2,,,,,,0,50,92
116352,note_off,,48,0,1,,,,,,0,64,64
116352,note_on,,0,0,1,,,,,,0,65,92
116352,note_off,,192,0,2,,,,,,0,57,64
116448,note_off,,96,0,1,,,,,,0,65,64
116448,note_on,,0,0,1,,,,,,0,62,92
116544,note_on,,0,0,2,,,,,,0,53,92
116544,note_off,,96,0,1,,,,,,0,62,64
116544,note_on,,0,0,1,,,,,,0,61,92
116544,note_off,,192,0,2,,,,,,0,50,64
116640,note_on,,0,0,1,,,,,,0,62,92
116640,note_off,,96,0,1,,,,,,0,61,64
116736,note_off,,192,0,2,,,,,,0,53,64
116736,note_on,,0,0,1,,,,,,0,64,92
116736,note_off,,96,0,1,,,,,,0,62,64
116736,note_on,,0,0,2,,,,,,0,57,92
116832,note_on,,0,0,1,,,,,,0,62,92
116832,note_off,,96,0,1,,,,,,0,64,64
116928,note_off,,192,0,2,,,,,,0,57,64
116928,note_on,,0,0,1,,,,,,0,61,92
116928,note_on,,0,0,2,,,,,,0,52,92
116928,note_off,,96,0,1,,,,,,0,62,64
117024,note_off,,96,0,1,,,,,,0,61,64
117024,note_on,,0,0,1,,,,,,0,59,92
117120,note_off,,192,0,2,,,,,,0,52,64
117120,note_on,,0,0,2,,,,,,0,49,92
117120,note_on,,0,0,2,,,,,,0,57,92
117120,note_off,,96,0,1,,,,,,0,59,64
117216,note_off,,96,0,2,,,,,,0,57,64
117216,note_on,,0,0,2,,,,,,0,55,92
117312,note_on,,0,0,2,,,,,,0,53,92
117312,note_off,,96,0,2,,,,,,0,55,64
117312,note_on,,0,0,2,,,,,,0,45,92
117312,note_off,,0,0,2,,,,,,0,49,64
117408,note_off,,96,0,2,,,,,,0,53,64
117408,note_on,,0,0,2,,,,,,0,52,92
117504,note_off,,96,0,2,,,,,,0,52,64
117504,note_on,,0,0,2,,,,,,0,50,92
117504,note_off,,0,0,2,,,,,,0,45,64
117600,note_on,,480,0,1,,,,,,0,69,92
117696,note_off,,96,0,1,,,,,,0,69,64
117696,note_on,,0,0,1,,,,,,0,77,92
117792,note_on,,0,0,2,,,,,,0,57,92
117792,note_off,,288,0,2,,,,,,0,50,64
117888,note_on,,0,0,2,,,,,,0,62,92
117888,note_off,,96,0,2,,,,,,0,57,64
117984,note_off,,288,0,1,,,,,,0,77,64
117984,note_on,,0,0,1,,,,,,0,74,92
118080,note_off,,192,0,2,,,,,,0,62,64
118080,note_on,,0,0,2,,,,,,0,53,92
118080,note_off,,96,0,1,,,,,,0,74,64
118080,note_on,,0,0,1,,,,,,0,73,92
118176,note_on,,0,0,1,,,,,,0,74,92
118176,note_off,,96,0,1,,,,,,0,73,64
118272,note_off,,192,0,2,,,,,,0,53,64
118272,note_on,,0,0,1,,,,,,0,79,92
118272,note_off,,96,0,1,,,,,,0,74,64
118272,note_on,,0,0,2,,,,,,0,58,92
118368,note_on,,0,0,1,,,,,,0,81,92
118368,note_off,,96,0,1,,,,,,0,79,64
118464,note_on,,0,0,1,,,,,,0,82,92
118464,note_off,,96,0,1,,,,,,0,81,64
118560,note_off,,288,0,2,,,,,,0,58,64
118560,note_on,,0,0,2,,,,,,0,57,92
118656,note_off,,96,0,2,,,,,,0,57,64
118656,note_on,,0,0,2,,,,,,0,55,92
118752,note_off,,288,0,1,,,,,,0,82,64
118752,note_on,,0,0,2,,,,,,0,53,92
118752,note_off,,96,0,2,,,,,,0,55,64
118752,note_on,,0,0,1,,,,,,0,81,92
118848,note_off,,96,0,2,,,,,,0,53,64
118848,note_on,,0,0,2,,,,,,0,52,92
118848,note_off,,96,0,1,,,,,,0,81,64
118848,note_on,,0,0,1,,,,,,0,79,92
118944,note_on,,0,0,1,,,,,,0,77,92
118944,note_off,,96,0,1,,,,,,0,79,64
118944,note_off,,96,0,2,,,,,,0,52,64
118944,note_on,,0,0,2,,,,,,0,50,92
119040,note_on,,0,0,1,,,,,,0,76,92
119040,note_off,,96,0,1,,,,,,0,77,64
119040,note_on,,0,0,2,,,,,,0,49,92
119040,note_off,,96,0,2,,,,,,0,50,64
119136,note_off,,96,0,1,,,,,,0,76,64
119136,note_on,,0,0,1,,,,,,0,77,92
119184,note_on,,0,0,1,,,,,,0,79,92
119184,note_off,,48,0,1,,,,,,0,77,64
119232,note_off,,192,0,2,,,,,,0,49,64
119232,note_on,,0,0,2,,,,,,0,50,92
119232,note_off,,48,0,1,,,,,,0,79,64
119232,note_on,,0,0,1,,,,,,0,77,92
119328,note_off,,96,0,1,,,,,,0,77,64
119328,note_on,,0,0,1,,,,,,0,76,92
119376,note_off,,48,0,1,,,,,,0,76,64
119376,note_on,,0,0,1,,,,,,0,74,92
119424,note_on,,0,0,1,,,,,,0,69,92
119424,note_off,,48,0,1,,,,,,0,74,64
119424,note_off,,192,0,2,,,,,,0,50,64
119424,note_on,,0,0,2,,,,,,0,57,92
119520,note_on,,0,0,1,,,,,,0,74,92
119520,note_off,,96,0,1,,,,,,0,69,64
119616,note_off,,96,0,1,,,,,,0,74,64
119616,note_on,,0,0,1,,,,,,0,76,92
119616,note_off,,192,0,2,,,,,,0,57,64
119616,note_on,,0,0,2,,,,,,0,45,92
119712,note_off,,96,0,1,,,,,,0,76,64
119712,note_on,,0,0,1,,,,,,0,73,92
119808,note_on,,0,0,1,,,,,,0,74,92
119808,note_off,,96,0,1,,,,,,0,73,64
119808,note_on,,0,0,2,,,,,,0,50,92
119808,note_off,,192,0,2,,,,,,0,45,64
119904,note_on,,96,0,1,,,,,,0,69,92
120000,note_on,,0,0,1,,,,,,0,65,92
120000,note_off,,96,0,1,,,,,,0,69,64
120096,note_off,,288,0,2,,,,,,0,50,64
120096,note_on,,0,0,2,,,,,,0,45,92
120192,note_off,,192,0,1,,,,,,0,74,64
120192,note_off,,96,0,2,,,,,,0,45,64
120192,note_on,,0,0,2,,,,,,0,38,92
120288,note_on,,0,0,1,,,,,,0,69,92
120288,note_off,,96,0,1,,,,,,0,65,64
120384,note_on,,0,0,1,,,,,,0,74,92
120384,note_off,,96,0,1,,,,,,0,69,64
120480,note_off,,96,0,1,,,,,,0,74,64
120480,note_on,,0,0,1,,,,,,0,76,92
120576,note_off,,96,0,1,,,,,,0,76,64
120576,note_on,,0,0,1,,,,,,0,77,92
120576,note_off,,384,0,2,,,,,,0,38,64
120672,note_on,,0,0,1,,,,,,0,76,92
120672,note_off,,96,0,1,,,,,,0,77,64
120672,note_on,,0,0,1,,,,,,0,67,92
120768,note_on,,0,0,1,,,,,,0,74,92
120768,note_off,,96,0,1,,,,,,0,76,64
120768,note_on,,192,0,2,,,,,,0,65,92
120864,note_on,,0,0,1,,,,,,0,72,92
120864,note_off,,96,0,2,,,,,,0,65,64
120864,note_on,,0,0,2,,,,,,0,64,92
120864,note_off,,96,0,1,,,,,,0,74,64
120960,note_off,,96,0,2,,,,,,0,64,64
120960,note_on,,0,0,2,,,,,,0,62,92
120960,note_off,,96,0,1,,,,,,0,72,64
120960,note_on,,0,0,1,,,,,,0,71,92
121056,note_on,,0,0,1,,,,,,0,77,92
121056,note_off,,96,0,1,,,,,,0,71,64
121152,note_on,,0,0,2,,,,,,0,60,92
121152,note_off,,192,0,2,,,,,,0,62,64
121152,note_on,,0,0,1,,,,,,0,69,92
121152,note_off,,96,0,1,,,,,,0,77,64
121248,note_off,,96,0,1,,,,,,0,69,64
121248,note_on,,0,0,1,,,,,,0,77,92
121344,note_off,,96,0,1,,,,,,0,77,64
121344,note_off,,0,0,1,,,,,,0,67,64
121344,note_on,,0,0,1,,,,,,0,67,92
121344,note_on,,0,0,2,,,,,,0,59,92
121344,note_off,,192,0,2,,,,,,0,60,64
121440,note_on,,96,0,1,,,,,,0,69,92
121536,note_off,,192,0,2,,,,,,0,59,64
121536,note_on,,0,0,2,,,,,,0,62,92
121536,note_off,,96,0,1,,,,,,0,69,64
121536,note_on,,0,0,1,,,,,,0,71,92
121632,note_off,,96,0,2,,,,,,0,62,64
121632,note_on,,0,0,2,,,,,,0,60,92
121632,note_on,,0,0,1,,,,,,0,72,92
121632,note_off,,96,0,1,,,,,,0,71,64
121728,note_on,,0,0,1,,,,,,0,74,92
121728,note_off,,96,0,1,,,,,,0,72,64
121728,note_on,,0,0,2,,,,,,0,59,92
121728,note_off,,96,0,2,,,,,,0,60,64
121824,note_off,,0,0,1,,,,,,0,67,64
121824,note_on,,0,0,1,,,,,,0,67,92
121824,note_off,,96,0,1,,,,,,0,74,64
121920,note_on,,96,0,1,,,,,,0,76,92
121920,note_on,,0,0,2,,,,,,0,57,92
121920,note_off,,192,0,2,,,,,,0,59,64
122016,note_off,,96,0,1,,,,,,0,76,64
122016,note_on,,0,0,1,,,,,,0,67,92
122016,note_off,,0,0,1,,,,,,0,67,64
122112,note_off,,96,0,1,,,,,,0,67,64
122112,note_on,,0,0,2,,,,,,0,55,92
122112,note_on,,0,0,1,,,,,,0,77,92
122112,note_off,,192,0,2,,,,,,0,57,64
122208,note_off,,96,0,1,,,,,,0,77,64
122208,note_on,,0,0,1,,,,,,0,76,92
122304,note_on,,192,0,2,,,,,,0,53,92
122304,note_on,,0,0,1,,,,,,0,74,92
122304,note_off,,96,0,1,,,,,,0,76,64
122400,note_off,,96,0,2,,,,,,0,53,64
122400,note_on,,0,0,2,,,,,,0,52,92
122400,note_on,,0,0,1,,,,,,0,72,92
122400,note_off,,96,0,1,,,,,,0,74,64
122496,note_off,,96,0,2,,,,,,0,52,64
122496,note_off,,96,0,1,,,,,,0,72,64
122496,note_on,,0,0,1,,,,,,0,71,92
122496,note_on,,0,0,2,,,,,,0,50,92
122592,note_on,,0,0,1,,,,,,0,77,92
122592,note_off,,96,0,1,,,,,,0,71,64
122688,note_on,,0,0,2,,,,,,0,48,92
122688,note_off,,192,0,2,,,,,,0,50,64
122688,note_on,,0,0,1,,,,,,0,69,92
122688,note_off,,96,0,1,,,,,,0,77,64
122784,note_on,,0,0,1,,,,,,0,77,92
122784,note_off,,96,0,1,,,,,,0,69,64
122880,note_on,,0,0,2,,,,,,0,47,92
122880,note_on,,0,0,1,,,,,,0,67,92
122880,note_off,,96,0,1,,,,,,0,77,64
122880,note_off,,192,0,2,,,,,,0,48,64
122976,note_off,,96,0,1,,,,,,0,67,64
122976,note_on,,0,0,1,,,,,,0,69,92
123072,note_off,,96,0,1,,,,,,0,69,64
123072,note_on,,0,0,2,,,,,,0,50,92
123072,note_off,,192,0,2,,,,,,0,47,64
123072,note_on,,0,0,1,,,,,,0,71,92
123168,note_on,,0,0,2,,,,,,0,48,92
123168,note_off,,96,0,2,,,,,,0,50,64
123168,note_off,,96,0,1,,,,,,0,71,64
123168,note_on,,0,0,1,,,,,,0,72,92
123264,note_on,,0,0,2,,,,,,0,47,92
123264,note_off,,96,0,2,,,,,,0,48,64
123264,note_off,,96,0,1,,,,,,0,72,64
123264,note_on,,0,0,1,,,,,,0,74,92
123360,note_on,,0,0,1,,,,,,0,76,92
123360,note_off,,96,0,1,,,,,,0,74,64
123456,note_on,,0,0,1,,,,,,0,77,92
123456,note_on,,0,0,2,,,,,,0,43,92
123456,note_off,,96,0,1,,,,,,0,76,64
123456,note_off,,192,0,2,,,,,,0,47,64
123552,note_off,,96,0,1,,,,,,0,77,64
123552,note_on,,0,0,1,,,,,,0,74,92
123648,note_off,,192,0,2,,,,,,0,43,64
123648,note_on,,0,0,2,,,,,,0,48,92
123648,note_off,,96,0,1,,,,,,0,74,64
123648,note_on,,0,0,1,,,,,,0,72,92
123648,note_on,,0,0,1,,,,,,0,76,92
123840,note_off,,192,0,1,,,,,,0,76,64
123840,note_off,,0,0,1,,,,,,0,72,64
123840,note_on,,0,0,1,,,,,,0,74,92
123840,note_on,,0,0,1,,,,,,0,71,92
124032,note_on,,0,0,2,,,,,,0,53,92
124032,note_off,,384,0,2,,,,,,0,55,64
124224,note_off,,384,0,1,,,,,,0,74,64
124224,note_off,,0,0,1,,,,,,0,71,64
124224,note_on,,0,0,1,,,,,,0,72,92
124224,note_off,,192,0,2,,,,,,0,53,64
124224,note_on,,0,0,2,,,,,,0,52,92
124416,note_on,,0,0,2,,,,,,0,53,92
124416,note_off,,192,0,2,,,,,,0,52,64
124416,note_off,,192,0,1,,,,,,0,72,64
124416,note_on,,0,0,1,,,,,,0,74,92
124512,note_off,,96,0,1,,,,,,0,74,64
124512,note_on,,0,0,1,,,,,,0,72,92
124560,note_off,,48,0,1,,,,,,0,72,64
124560,note_on,,0,0,1,,,,,,0,71,92
124608,note_off,,48,0,1,,,,,,0,71,64
124608,note_on,,0,0,1,,,,,,0,72,92
124608,note_off,,192,0,2,,,,,,0,53,64
124608,note_on,,0,0,2,,,,,,0,52,92
124704,note_off,,96,0,2,,,,,,0,52,64
124704,note_on,,0,0,2,,,,,,0,50,92
124800,note_off,,96,0,2,,,,,,0,50,64
124800,note_on,,0,0,2,,,,,,0,52,92
124896,note_off,,288,0,1,,,,,,0,72,64
124896,note_on,,0,0,1,,,,,,0,67,92
124992,note_off,,96,0,1,,,,,,0,67,64
124992,note_on,,0,0,2,,,,,,0,53,92
124992,note_off,,192,0,2,,,,,,0,52,64
124992,note_on,,0,0,1,,,,,,0,72,92
125088,note_on,,0,0,1,,,,,,0,74,92
125088,note_off,,96,0,1,,,,,,0,72,64
125184,note_off,,192,0,2,,,,,,0,53,64
125184,note_on,,0,0,2,,,,,,0,55,92
125184,note_off,,96,0,1,,,,,,0,74,64
125184,note_on,,0,0,1,,,,,,0,76,92
125280,note_off,,96,0,1,,,,,,0,76,64
125280,note_on,,0,0,1,,,,,,0,77,92
125328,note_on,,0,0,1,,,,,,0,79,92
125328,note_off,,48,0,1,,,,,,0,77,64
125376,note_off,,192,0,2,,,,,,0,55,64
125376,note_off,,48,0,1,,,,,,0,79,64
125376,note_on,,0,0,1,,,,,,0,77,92
125376,note_on,,0,0,2,,,,,,0,58,92
125472,note_off,,96,0,1,,,,,,0,77,64
125472,note_on,,0,0,1,,,,,,0,76,92
125568,note_on,,0,0,2,,,,,,0,57,92
125568,note_off,,96,0,1,,,,,,0,76,64
125568,note_on,,0,0,1,,,,,,0,77,92
125568,note_off,,192,0,2,,,,,,0,58,64
125664,note_on,,0,0,1,,,,,,0,76,92
125664,note_off,,96,0,1,,,,,,0,77,64
125760,note_on,,0,0,2,,,,,,0,53,92
125760,note_on,,0,0,1,,,,,,0,74,92
125760,note_off,,192,0,2,,,,,,0,57,64
125760,note_off,,96,0,1,,,,,,0,76,64
125856,note_off,,96,0,1,,,,,,0,74,64
125856,note_on,,0,0,1,,,,,,0,72,92
125952,note_on,,0,0,1,,,,,,0,82,92
125952,note_on,,0,0,2,,,,,,0,52,92
125952,note_off,,192,0,2,,,,,,0,53,64
125952,note_off,,96,0,1,,,,,,0,72,64
126048,note_on,,0,0,1,,,,,,0,81,92
126048,note_off,,96,0,1,,,,,,0,82,64
126096,note_off,,48,0,1,,,,,,0,81,64
126096,note_on,,0,0,1,,,,,,0,79,92
126144,note_on,,0,0,1,,,,,,0,81,92
126144,note_off,,48,0,1,,,,,,0,79,64
126144,note_on,,0,0,2,,,,,,0,53,92
126144,note_off,,192,0,2,,,,,,0,52,64
126240,note_off,,96,0,2,,,,,,0,53,64
126240,note_on,,0,0,2,,,,,,0,55,92
126336,note_off,,96,0,2,,,,,,0,55,64
126336,note_on,,0,0,2,,,,,,0,53,92
126432,note_off,,96,0,2,,,,,,0,53,64
126432,note_on,,0,0,2,,,,,,0,57,92
126528,note_on,,0,0,1,,,,,,0,79,92
126528,note_off,,384,0,1,,,,,,0,81,64
126528,note_on,,0,0,2,,,,,,0,51,92
126528,note_off,,96,0,2,,,,,,0,57,64
126528,note_on,,0,0,2,,,,,,0,60,92
126528,note_off,,0,0,2,,,,,,0,48,64
126720,note_off,,192,0,2,,,,,,0,51,64
126720,note_off,,192,0,1,,,,,,0,79,64
126720,note_on,,0,0,1,,,,,,0,79,92
126720,note_on,,0,0,2,,,,,,0,50,92
126816,note_on,,0,0,1,,,,,,0,78,92
126816,note_off,,96,0,1,,,,,,0,79,64
126912,note_off,,96,0,1,,,,,,0,78,64
126912,note_on,,0,0,1,,,,,,0,79,92
126912,note_on,,0,0,2,,,,,,0,57,92
126912,note_off,,192,0,2,,,,,,0,60,64
127008,note_on,,0,0,1,,,,,,0,81,92
127008,note_off,,96,0,1,,,,,,0,79,64
127104,note_on,,0,0,2,,,,,,0,62,92
127104,note_on,,0,0,1,,,,,,0,79,92
127104,note_off,,192,0,2,,,,,,0,57,64
127104,note_off,,96,0,1,,,,,,0,81,64
127200,note_on,,0,0,1,,,,,,0,78,92
127200,note_off,,96,0,1,,,,,,0,79,64
127296,note_off,,96,0,1,,,,,,0,78,64
127296,note_on,,0,0,1,,,,,,0,76,92
127296,note_off,,192,0,2,,,,,,0,62,64
127296,note_on,,0,0,2,,,,,,0,60,92
127392,note_off,,96,0,1,,,,,,0,76,64
127392,note_on,,0,0,1,,,,,,0,74,92
127488,note_on,,0,0,2,,,,,,0,59,92
127488,note_off,,192,0,2,,,,,,0,60,64
127488,note_on,,0,0,1,,,,,,0,79,92
127488,note_off,,96,0,1,,,,,,0,74,64
127584,note_on,,0,0,1,,,,,,0,77,92
127584,note_off,,96,0,1,,,,,,0,79,64
127632,note_off,,48,0,1,,,,,,0,77,64
127632,note_on,,0,0,1,,,,,,0,76,92
127680,note_on,,0,0,2,,,,,,0,55,92
127680,note_off,,192,0,2,,,,,,0,50,64
127680,note_off,,48,0,1,,,,,,0,76,64
127680,note_on,,0,0,1,,,,,,0,77,92
127872,note_off,,192,0,2,,,,,,0,55,64
127872,note_on,,0,0,2,,,,,,0,53,92
127968,note_on,,0,0,1,,,,,,0,76,92
127968,note_off,,288,0,1,,,,,,0,77,64
128064,note_off,,96,0,1,,,,,,0,76,64
128064,note_on,,0,0,2,,,,,,0,55,92
128064,note_off,,192,0,2,,,,,,0,53,64
128064,note_on,,0,0,1,,,,,,0,74,92
128160,note_off,,96,0,1,,,,,,0,74,64
128160,note_on,,0,0,1,,,,,,0,77,92
128256,note_off,,96,0,1,,,,,,0,77,64
128256,note_on,,0,0,1,,,,,,0,76,92
128256,note_off,,0,0,2,,,,,,0,59,64
128256,note_off,,192,0,2,,,,,,0,55,64
128256,note_on,,0,0,2,,,,,,0,48,92
128256,note_on,,0,0,2,,,,,,0,60,92
128352,note_off,,96,0,1,,,,,,0,76,64
128352,note_on,,0,0,1,,,,,,0,74,92
128448,note_off,,192,0,2,,,,,,0,60,64
128448,note_on,,0,0,2,,,,,,0,55,92
128448,note_off,,96,0,1,,,,,,0,74,64
128448,note_on,,0,0,1,,,,,,0,76,92
128544,note_on,,0,0,1,,,,,,0,79,92
128544,note_off,,96,0,1,,,,,,0,76,64
128640,note_on,,0,0,1,,,,,,0,77,92
128640,note_off,,96,0,1,,,,,,0,79,64
128640,note_on,,0,0,2,,,,,,0,47,92
128640,note_off,,192,0,2,,,,,,0,48,64
128736,note_on,,0,0,1,,,,,,0,76,92
128736,note_off,,96,0,1,,,,,,0,77,64
128832,note_off,,0,0,2,,,,,,0,55,64
128832,note_on,,0,0,2,,,,,,0,54,92
128832,note_on,,0,0,2,,,,,,0,45,92
128832,note_on,,0,0,1,,,,,,0,74,92
128832,note_off,,96,0,1,,,,,,0,76,64
128832,note_off,,192,0,2,,,,,,0,47,64
128928,note_on,,0,0,1,,,,,,0,72,92
128928,note_off,,96,0,1,,,,,,0,74,64
129024,note_off,,192,0,2,,,,,,0,45,64
129024,note_off,,0,0,2,,,,,,0,54,64
129024,note_on,,0,0,2,,,,,,0,43,92
129024,note_off,,96,0,1,,,,,,0,72,64
129024,note_on,,0,0,1,,,,,,0,76,92
129120,note_off,,96,0,1,,,,,,0,76,64
129120,note_on,,0,0,1,,,,,,0,74,92
129168,note_off,,48,0,1,,,,,,0,74,64
129168,note_on,,0,0,1,,,,,,0,72,92
129216,note_off,,48,0,1,,,,,,0,72,64
129216,note_on,,0,0,1,,,,,,0,78,92
129312,note_on,,288,0,2,,,,,,0,50,92
129408,note_off,,96,0,2,,,,,,0,50,64
129408,note_off,,0,0,2,,,,,,0,43,64
129408,note_on,,0,0,2,,,,,,0,55,92
129600,note_on,,192,0,2,,,,,,0,53,92
129600,note_off,,384,0,1,,,,,,0,78,64
129600,note_on,,0,0,1,,,,,,0,79,92
129696,note_off,,96,0,1,,,,,,0,79,64
129696,note_on,,0,0,1,,,,,,0,81,92
129792,note_off,,96,0,1,,,,,,0,81,64
129792,note_on,,0,0,1,,,,,,0,79,92
129792,note_off,,192,0,2,,,,,,0,53,64
129792,note_off,,0,0,2,,,,,,0,55,64
129792,note_on,,0,0,2,,,,,,0,52,92
129888,note_off,,96,0,1,,,,,,0,79,64
129888,note_on,,0,0,1,,,,,,0,83,92
129984,note_on,,192,0,2,,,,,,0,55,92
130080,note_on,,0,0,1,,,,,,0,84,92
130080,note_off,,192,0,1,,,,,,0,83,64
130176,note_on,,0,0,2,,,,,,0,57,92
130176,note_on,,0,0,2,,,,,,0,60,92
130176,note_off,,0,0,2,,,,,,0,52,64
130176,note_on,,0,0,1,,,,,,0,77,92
130176,note_off,,96,0,1,,,,,,0,84,64
130176,note_off,,192,0,2,,,,,,0,55,64
130272,note_on,,0,0,1,,,,,,0,76,92
130272,note_off,,96,0,1,,,,,,0,77,64
130368,note_off,,192,0,2,,,,,,0,57,64
130368,note_on,,0,0,2,,,,,,0,55,92
130368,note_off,,96,0,1,,,,,,0,76,64
130368,note_on,,0,0,1,,,,,,0,76,92
130464,note_off,,96,0,1,,,,,,0,76,64
130464,note_on,,0,0,1,,,,,,0,74,92
130560,note_on,,0,0,1,,,,,,0,74,92
130560,note_off,,96,0,1,,,,,,0,74,64
130560,note_off,,192,0,2,,,,,,0,55,64
130560,note_on,,0,0,2,,,,,,0,53,92
130656,note_on,,0,0,1,,,,,,0,83,92
130656,note_off,,96,0,1,,,,,,0,74,64
130752,note_off,,192,0,2,,,,,,0,60,64
130752,note_on,,0,0,2,,,,,,0,57,92
130848,note_on,,0,0,1,,,,,,0,84,92
130848,note_off,,192,0,1,,,,,,0,83,64
130944,note_off,,192,0,2,,,,,,0,57,64
130944,note_on,,0,0,1,,,,,,0,65,92
130944,note_off,,96,0,1,,,,,,0,84,64
130944,note_on,,0,0,1,,,,,,0,74,92
131040,note_off,,96,0,1,,,,,,0,74,64
131040,note_on,,0,0,1,,,,,,0,72,92
131136,note_on,,0,0,1,,,,,,0,72,92
131136,note_on,,0,0,1,,,,,,0,62,92
131136,note_off,,0,0,1,,,,,,0,65,64
131136,note_off,,96,0,1,,,,,,0,72,64
131232,note_on,,0,0,1,,,,,,0,71,92
131232,note_off,,96,0,1,,,,,,0,72,64
131328,note_on,,384,0,2,,,,,,0,59,92
131328,note_off,,96,0,1,,,,,,0,71,64
131328,note_on,,0,0,1,,,,,,0,79,92
131424,note_off,,96,0,1,,,,,,0,79,64
131424,note_on,,0,0,1,,,,,,0,67,92
131520,note_on,,0,0,2,,,,,,0,60,92
131520,note_on,,0,0,2,,,,,,0,52,92
131520,note_off,,0,0,2,,,,,,0,53,64
131520,note_off,,192,0,2,,,,,,0,59,64
131520,note_on,,0,0,1,,,,,,0,64,92
131520,note_off,,96,0,1,,,,,,0,62,64
131616,note_on,,96,0,1,,,,,,0,69,92
131712,note_off,,192,0,2,,,,,,0,52,64
131712,note_on,,0,0,2,,,,,,0,53,92
131808,note_off,,192,0,1,,,,,,0,69,64
131808,note_on,,0,0,1,,,,,,0,71,92
131904,note_off,,192,0,2,,,,,,0,53,64
131904,note_off,,96,0,1,,,,,,0,64,64
131904,note_off,,0,0,1,,,,,,0,67,64
131904,note_on,,0,0,2,,,,,,0,55,92
131904,note_on,,0,0,1,,,,,,0,62,92
131904,note_on,,0,0,1,,,,,,0,65,92
131904,note_off,,0,0,2,,,,,,0,60,64
132000,note_off,,96,0,1,,,,,,0,71,64
132000,note_on,,0,0,1,,,,,,0,72,92
132096,note_off,,0,0,1,,,,,,0,65,64
132096,note_off,,96,0,1,,,,,,0,72,64
132096,note_on,,0,0,1,,,,,,0,72,92
132096,note_on,,192,0,2,,,,,,0,48,92
132096,note_off,,0,0,1,,,,,,0,62,64
132096,set_tempo,1090900,46848,1,0,,,,,,,,
132192,note_on,,96,0,1,,,,,,0,67,92
132288,note_on,,96,0,1,,,,,,0,64,92
132384,note_on,,96,0,1,,,,,,0,60,92
132480,set_tempo,2000000,384,1,0,,,,,,,,
132480,note_off,,384,0,2,,,,,,0,48,64
132480,note_off,,0,0,2,,,,,,0,55,64
132480,note_on,,0,0,2,,,,,,0,36,92
132864,note_off,,384,0,2,,,,,,0,36,64
132864,note_on,,0,0,2,,,,,,0,55,92
132864,note_on,,0,0,2,,,,,,0,67,92
132864,set_tempo,923070,384,1,0,,,,,,,,
132864,note_off,,480,0,1,,,,,,0,60,64
132864,note_off,,0,0,1,,,,,,0,64,64
132864,note_off,,0,0,1,,,,,,0,67,64
132864,note_off,,0,0,1,,,,,,0,72,64
132864,note_on,,0,0,1,,,,,,0,74,92
132864,note_on,,0,0,1,,,,,,0,71,92
133056,note_off,,192,0,1,,,,,,0,74,64
133056,note_on,,0,0,1,,,,,,0,72,92
133056,note_on,,0,0,1,,,,,,0,69,92
133056,note_off,,0,0,1,,,,,,0,71,64
133248,note_on,,0,0,2,,,,,,0,65,92
133248,note_off,,384,0,2,,,,,,0,67,64
133440,note_on,,0,0,1,,,,,,0,67,92
133440,note_off,,0,0,1,,,,,,0,69,64
133440,note_off,,384,0,1,,,,,,0,72,64
133440,note_on,,0,0,1,,,,,,0,71,92
133632,note_on,,0,0,2,,,,,,0,64,92
133632,note_off,,384,0,2,,,,,,0,65,64
133632,note_on,,0,0,1,,,,,,0,72,92
133632,note_off,,192,0,1,,,,,,0,71,64
133728,note_on,,0,0,1,,,,,,0,74,92
133728,note_off,,96,0,1,,,,,,0,72,64
133824,note_on,,0,0,1,,,,,,0,76,92
133824,note_off,,96,0,1,,,,,,0,74,64
133920,note_on,,0,0,2,,,,,,0,62,92
133920,note_off,,288,0,2,,,,,,0,64,64
134016,note_off,,192,0,1,,,,,,0,67,64
134016,note_on,,0,0,2,,,,,,0,60,92
134016,note_off,,96,0,2,,,,,,0,62,64
134112,note_off,,96,0,1,,,,,,0,76,64
134112,note_on,,0,0,1,,,,,,0,77,92
134208,note_off,,192,0,2,,,,,,0,60,64
134208,note_on,,0,0,2,,,,,,0,58,92
134208,note_off,,96,0,1,,,,,,0,77,64
134208,note_on,,0,0,1,,,,,,0,79,92
134304,note_off,,96,0,1,,,,,,0,79,64
134304,note_on,,0,0,1,,,,,,0,76,92
134400,note_off,,96,0,1,,,,,,0,76,64
134400,note_off,,192,0,2,,,,,,0,58,64
134400,note_on,,0,0,2,,,,,,0,57,92
134400,note_on,,0,0,1,,,,,,0,73,92
134496,note_on,,0,0,1,,,,,,0,74,92
134496,note_off,,96,0,1,,,,,,0,73,64
134544,note_on,,0,0,1,,,,,,0,76,92
134544,note_off,,48,0,1,,,,,,0,74,64
134592,note_on,,0,0,1,,,,,,0,74,92
134592,note_off,,48,0,1,,,,,,0,76,64
134592,note_off,,192,0,2,,,,,,0,55,64
134592,note_on,,0,0,2,,,,,,0,52,92
134688,note_off,,96,0,1,,,,,,0,74,64
134688,note_on,,0,0,1,,,,,,0,73,92
134784,note_on,,0,0,2,,,,,,0,53,92
134784,note_off,,96,0,1,,,,,,0,73,64
134784,note_on,,0,0,1,,,,,,0,74,92
134784,note_off,,192,0,2,,,,,,0,52,64
134880,note_off,,96,0,1,,,,,,0,74,64
134880,note_on,,0,0,1,,,,,,0,73,92
134976,note_off,,96,0,1,,,,,,0,73,64
134976,note_on,,0,0,2,,,,,,0,49,92
134976,note_off,,192,0,2,,,,,,0,53,64
134976,note_on,,0,0,1,,,,,,0,71,92
135072,note_off,,96,0,1,,,,,,0,71,64
135072,note_on,,0,0,1,,,,,,0,69,92
135168,note_on,,0,0,2,,,,,,0,50,92
135168,note_on,,0,0,1,,,,,,0,77,92
135168,note_off,,96,0,1,,,,,,0,69,64
135168,note_off,,192,0,2,,,,,,0,49,64
135264,note_off,,96,0,1,,,,,,0,77,64
135264,note_on,,0,0,1,,,,,,0,76,92
135360,note_on,,0,0,1,,,,,,0,77,92
135360,note_off,,96,0,1,,,,,,0,76,64
135456,note_on,,0,0,2,,,,,,0,57,92
135456,note_off,,288,0,2,,,,,,0,57,64
135552,note_on,,0,0,2,,,,,,0,62,92
135552,note_off,,96,0,2,,,,,,0,57,64
135648,note_on,,0,0,1,,,,,,0,74,92
135648,note_off,,288,0,1,,,,,,0,77,64
135744,note_on,,0,0,1,,,,,,0,73,92
135744,note_off,,96,0,1,,,,,,0,74,64
135744,note_on,,0,0,2,,,,,,0,58,92
135744,note_off,,192,0,2,,,,,,0,62,64
135744,note_off,,0,0,2,,,,,,0,50,64
135744,note_on,,0,0,2,,,,,,0,67,92
135840,note_off,,96,0,1,,,,,,0,73,64
135840,note_on,,0,0,1,,,,,,0,74,92
135936,note_off,,0,0,2,,,,,,0,67,64
135936,note_off,,192,0,2,,,,,,0,58,64
135936,note_on,,0,0,2,,,,,,0,57,92
135936,note_off,,96,0,1,,,,,,0,74,64
135936,note_on,,0,0,2,,,,,,0,61,92
135936,note_on,,0,0,1,,,,,,0,76,92
136032,note_off,,96,0,1,,,,,,0,76,64
136032,note_on,,0,0,1,,,,,,0,81,92
136128,note_on,,0,0,2,,,,,,0,64,92
136128,note_off,,192,0,2,,,,,,0,61,64
136128,note_off,,96,0,1,,,,,,0,81,64
136128,note_on,,0,0,1,,,,,,0,79,92
136224,note_off,,96,0,1,,,,,,0,79,64
136224,note_on,,0,0,1,,,,,,0,77,92
136272,note_on,,0,0,1,,,,,,0,76,92
136272,note_off,,48,0,1,,,,,,0,77,64
136320,note_on,,0,0,1,,,,,,0,77,92
136320,note_on,,0,0,2,,,,,,0,62,92
136320,note_off,,48,0,1,,,,,,0,76,64
136320,note_off,,192,0,2,,,,,,0,64,64
136416,note_off,,96,0,1,,,,,,0,77,64
136416,note_on,,0,0,1,,,,,,0,74,92
136512,note_off,,96,0,1,,,,,,0,74,64
136512,note_on,,0,0,1,,,,,,0,68,92
136512,note_off,,192,0,2,,,,,,0,62,64
136512,note_on,,0,0,2,,,,,,0,59,92
136608,note_off,,96,0,1,,,,,,0,68,64
136608,note_on,,0,0,1,,,,,,0,77,92
136704,note_on,,0,0,2,,,,,,0,61,92
136704,note_off,,192,0,2,,,,,,0,59,64
136704,note_on,,0,0,1,,,,,,0,76,92
136704,note_off,,96,0,1,,,,,,0,77,64
136800,note_off,,96,0,1,,,,,,0,76,64
136800,note_on,,0,0,1,,,,,,0,74,92
136896,note_on,,0,0,2,,,,,,0,64,92
136896,note_off,,192,0,2,,,,,,0,61,64
136896,note_on,,0,0,1,,,,,,0,73,92
136896,note_off,,96,0,1,,,,,,0,74,64
136992,note_on,,0,0,1,,,,,,0,71,92
136992,note_off,,96,0,1,,,,,,0,73,64
137088,note_off,,192,0,2,,,,,,0,64,64
137088,note_on,,0,0,2,,,,,,0,61,92
137088,note_on,,0,0,1,,,,,,0,69,92
137088,note_off,,96,0,1,,,,,,0,71,64
137184,note_on,,0,0,1,,,,,,0,67,92
137184,note_off,,96,0,1,,,,,,0,69,64
137280,note_on,,0,0,2,,,,,,0,57,92
137280,note_on,,0,0,1,,,,,,0,65,92
137280,note_off,,96,0,1,,,,,,0,67,64
137280,note_off,,192,0,2,,,,,,0,61,64
137280,note_off,,0,0,2,,,,,,0,57,64
137376,note_off,,96,0,1,,,,,,0,65,64
137376,note_on,,0,0,1,,,,,,0,64,92
137472,note_on,,0,0,1,,,,,,0,65,92
137472,note_off,,96,0,1,,,,,,0,64,64
137472,note_off,,192,0,2,,,,,,0,57,64
137472,note_on,,0,0,2,,,,,,0,62,92
137568,note_on,,0,0,1,,,,,,0,67,92
137568,note_off,,96,0,1,,,,,,0,65,64
137616,note_on,,0,0,1,,,,,,0,69,92
137616,note_off,,48,0,1,,,,,,0,67,64
137664,note_off,,192,0,2,,,,,,0,62,64
137664,note_on,,0,0,2,,,,,,0,57,92
137664,note_on,,0,0,1,,,,,,0,67,92
137664,note_off,,48,0,1,,,,,,0,69,64
137760,note_on,,0,0,1,,,,,,0,65,92
137760,note_off,,96,0,1,,,,,,0,67,64
137808,note_off,,48,0,1,,,,,,0,65,64
137808,note_on,,0,0,1,,,,,,0,64,92
137856,note_on,,0,0,1,,,,,,0,65,92
137856,note_on,,0,0,2,,,,,,0,50,92
137856,note_off,,192,0,2,,,,,,0,57,64
137856,note_off,,48,0,1,,,,,,0,64,64
137952,note_on,,0,0,1,,,,,,0,62,92
137952,note_off,,96,0,1,,,,,,0,65,64
138048,note_on,,0,0,2,,,,,,0,53,92
138048,note_off,,192,0,2,,,,,,0,50,64
138048,note_on,,0,0,1,,,,,,0,61,92
138048,note_off,,96,0,1,,,,,,0,62,64
138144,note_on,,0,0,1,,,,,,0,62,92
138144,note_off,,96,0,1,,,,,,0,61,64
138240,note_off,,192,0,2,,,,,,0,53,64
138240,note_on,,0,0,1,,,,,,0,64,92
138240,note_off,,96,0,1,,,,,,0,62,64
138240,note_on,,0,0,2,,,,,,0,57,92
138336,note_on,,0,0,1,,,,,,0,62,92
138336,note_off,,96,0,1,,,,,,0,64,64
138432,note_off,,96,0,1,,,,,,0,62,64
138432,note_on,,0,0,1,,,,,,0,61,92
138432,note_on,,0,0,2,,,,,,0,52,92
138432,note_off,,192,0,2,,,,,,0,57,64
138528,note_on,,0,0,1,,,,,,0,59,92
138528,note_off,,96,0,1,,,,,,0,61,64
138624,note_off,,192,0,2,,,,,,0,52,64
138624,note_on,,0,0,2,,,,,,0,49,92
138624,note_on,,0,0,2,,,,,,0,57,92
138624,note_off,,96,0,1,,,,,,0,59,64
138720,note_off,,96,0,2,,,,,,0,57,64
138720,note_on,,0,0,2,,,,,,0,55,92
138816,note_on,,0,0,2,,,,,,0,53,92
138816,note_off,,96,0,2,,,,,,0,55,64
138816,note_off,,0,0,2,,,,,,0,49,64
138816,note_on,,0,0,2,,,,,,0,45,92
138912,note_on,,0,0,2,,,,,,0,52,92
138912,note_off,,96,0,2,,,,,,0,53,64
139008,note_off,,96,0,2,,,,,,0,52,64
139008,note_off,,0,0,2,,,,,,0,45,64
139008,note_on,,0,0,2,,,,,,0,50,92
139104,note_on,,480,0,1,,,,,,0,69,92
139200,note_on,,0,0,1,,,,,,0,77,92
139200,note_off,,96,0,1,,,,,,0,69,64
139296,note_off,,288,0,2,,,,,,0,50,64
139296,note_on,,0,0,2,,,,,,0,57,92
139392,note_off,,96,0,2,,,,,,0,57,64
139392,note_on,,0,0,2,,,,,,0,62,92
139488,note_on,,0,0,1,,,,,,0,74,92
139488,note_off,,288,0,1,,,,,,0,77,64
139584,note_on,,0,0,1,,,,,,0,73,92
139584,note_off,,96,0,1,,,,,,0,74,64
139584,note_off,,192,0,2,,,,,,0,62,64
139584,note_on,,0,0,2,,,,,,0,53,92
139680,note_off,,96,0,1,,,,,,0,73,64
139680,note_on,,0,0,1,,,,,,0,74,92
139776,note_on,,0,0,2,,,,,,0,58,92
139776,note_off,,192,0,2,,,,,,0,53,64
139776,note_off,,96,0,1,,,,,,0,74,64
139776,note_on,,0,0,1,,,,,,0,79,92
139872,note_off,,96,0,1,,,,,,0,79,64
139872,note_on,,0,0,1,,,,,,0,81,92
139968,note_on,,0,0,1,,,,,,0,82,92
139968,note_off,,96,0,1,,,,,,0,81,64
140064,note_on,,0,0,2,,,,,,0,57,92
140064,note_off,,288,0,2,,,,,,0,58,64
140160,note_off,,96,0,2,,,,,,0,57,64
140160,note_on,,0,0,2,,,,,,0,55,92
140256,note_off,,288,0,1,,,,,,0,82,64
140256,note_on,,0,0,1,,,,,,0,81,92
140256,note_off,,96,0,2,,,,,,0,55,64
140256,note_on,,0,0,2,,,,,,0,53,92
140352,note_on,,0,0,2,,,,,,0,52,92
140352,note_off,,96,0,1,,,,,,0,81,64
140352,note_on,,0,0,1,,,,,,0,79,92
140352,note_off,,96,0,2,,,,,,0,53,64
140448,note_off,,96,0,2,,,,,,0,52,64
140448,note_off,,96,0,1,,,,,,0,79,64
140448,note_on,,0,0,1,,,,,,0,77,92
140448,note_on,,0,0,2,,,,,,0,50,92
140544,note_on,,0,0,2,,,,,,0,49,92
140544,note_off,,96,0,2,,,,,,0,50,64
140544,note_off,,96,0,1,,,,,,0,77,64
140544,note_on,,0,0,1,,,,,,0,76,92
140640,note_on,,0,0,1,,,,,,0,77,92
140640,note_off,,96,0,1,,,,,,0,76,64
140688,note_on,,0,0,1,,,,,,0,79,92
140688,note_off,,48,0,1,,,,,,0,77,64
140736,note_off,,192,0,2,,,,,,0,49,64
140736,note_on,,0,0,2,,,,,,0,50,92
140736,note_on,,0,0,1,,,,,,0,77,92
140736,note_off,,48,0,1,,,,,,0,79,64
140832,note_on,,0,0,1,,,,,,0,76,92
140832,note_off,,96,0,1,,,,,,0,77,64
140880,note_on,,0,0,1,,,,,,0,74,92
140880,note_off,,48,0,1,,,,,,0,76,64
140928,note_on,,0,0,1,,,,,,0,69,92
140928,note_off,,48,0,1,,,,,,0,74,64
140928,note_off,,192,0,2,,,,,,0,50,64
140928,note_on,,0,0,2,,,,,,0,57,92
141024,note_on,,0,0,1,,,,,,0,74,92
141024,note_off,,96,0,1,,,,,,0,69,64
141120,note_on,,0,0,1,,,,,,0,76,92
141120,note_off,,96,0,1,,,,,,0,74,64
141120,note_on,,0,0,2,,,,,,0,45,92
141120,note_off,,192,0,2,,,,,,0,57,64
141216,note_on,,0,0,1,,,,,,0,73,92
141216,note_off,,96,0,1,,,,,,0,76,64
141312,note_off,,96,0,1,,,,,,0,73,64
141312,note_on,,0,0,1,,,,,,0,74,92
141312,note_off,,192,0,2,,,,,,0,45,64
141312,note_on,,0,0,2,,,,,,0,50,92
141408,note_on,,96,0,1,,,,,,0,69,92
141504,note_on,,0,0,1,,,,,,0,65,92
141504,note_off,,96,0,1,,,,,,0,69,64
141600,note_off,,288,0,2,,,,,,0,50,64
141600,note_on,,0,0,2,,,,,,0,45,92
141696,note_off,,192,0,1,,,,,,0,74,64
141696,note_on,,0,0,2,,,,,,0,38,92
141696,note_off,,96,0,2,,,,,,0,45,64
141792,note_off,,96,0,1,,,,,,0,65,64
141792,note_on,,0,0,1,,,,,,0,69,92
141888,note_off,,96,0,1,,,,,,0,69,64
141888,note_on,,0,0,1,,,,,,0,74,92
141984,note_off,,96,0,1,,,,,,0,74,64
141984,note_on,,0,0,1,,,,,,0,76,92
142080,note_off,,96,0,1,,,,,,0,76,64
142080,note_on,,0,0,1,,,,,,0,77,92
142080,note_off,,384,0,2,,,,,,0,38,64
142176,note_off,,96,0,1,,,,,,0,77,64
142176,note_on,,0,0,1,,,,,,0,67,92
142176,note_on,,0,0,1,,,,,,0,76,92
142272,note_off,,96,0,1,,,,,,0,76,64
142272,note_on,,0,0,1,,,,,,0,74,92
142272,note_on,,192,0,2,,,,,,0,65,92
142368,note_on,,0,0,2,,,,,,0,64,92
142368,note_off,,96,0,2,,,,,,0,65,64
142368,note_off,,96,0,1,,,,,,0,74,64
142368,note_on,,0,0,1,,,,,,0,72,92
142464,note_on,,0,0,1,,,,,,0,71,92
142464,note_on,,0,0,2,,,,,,0,62,92
142464,note_off,,96,0,2,,,,,,0,64,64
142464,note_off,,96,0,1,,,,,,0,72,64
142560,note_off,,96,0,1,,,,,,0,71,64
142560,note_on,,0,0,1,,,,,,0,77,92
142656,note_off,,96,0,1,,,,,,0,77,64
142656,note_off,,192,0,2,,,,,,0,62,64
142656,note_on,,0,0,1,,,,,,0,69,92
142656,note_on,,0,0,2,,,,,,0,60,92
142752,note_on,,0,0,1,,,,,,0,77,92
142752,note_off,,96,0,1,,,,,,0,69,64
142848,note_off,,96,0,1,,,,,,0,77,64
142848,note_off,,0,0,1,,,,,,0,67,64
142848,note_on,,0,0,1,,,,,,0,67,92
142848,note_off,,192,0,2,,,,,,0,60,64
142848,note_on,,0,0,2,,,,,,0,59,92
142944,note_on,,96,0,1,,,,,,0,69,92
143040,note_off,,96,0,1,,,,,,0,69,64
143040,note_on,,0,0,1,,,,,,0,71,92
143040,note_off,,192,0,2,,,,,,0,59,64
143040,note_on,,0,0,2,,,,,,0,62,92
143136,note_off,,96,0,2,,,,,,0,62,64
143136,note_on,,0,0,2,,,,,,0,60,92
143136,note_off,,96,0,1,,,,,,0,71,64
143136,note_on,,0,0,1,,,,,,0,72,92
143232,note_off,,96,0,1,,,,,,0,72,64
143232,note_on,,0,0,1,,,,,,0,74,92
143232,note_off,,96,0,2,,,,,,0,60,64
143232,note_on,,0,0,2,,,,,,0,59,92
143328,note_off,,0,0,1,,,,,,0,67,64
143328,note_on,,0,0,1,,,,,,0,67,92
143328,note_off,,96,0,1,,,,,,0,74,64
143424,note_on,,0,0,2,,,,,,0,57,92
143424,note_off,,192,0,2,,,,,,0,59,64
143424,note_on,,96,0,1,,,,,,0,76,92
143520,note_off,,96,0,1,,,,,,0,76,64
143520,note_off,,0,0,1,,,,,,0,67,64
143520,note_on,,0,0,1,,,,,,0,67,92
143616,note_on,,0,0,2,,,,,,0,55,92
143616,note_off,,96,0,1,,,,,,0,67,64
143616,note_on,,0,0,1,,,,,,0,77,92
143616,note_off,,192,0,2,,,,,,0,57,64
143712,note_off,,96,0,1,,,,,,0,77,64
143712,note_on,,0,0,1,,,,,,0,76,92
143808,note_on,,0,0,1,,,,,,0,74,92
143808,note_off,,96,0,1,,,,,,0,76,64
143808,note_on,,192,0,2,,,,,,0,53,92
143904,note_off,,96,0,2,,,,,,0,53,64
143904,note_on,,0,0,1,,,,,,0,72,92
143904,note_off,,96,0,1,,,,,,0,74,64
143904,note_on,,0,0,2,,,,,,0,52,92
144000,note_on,,0,0,1,,,,,,0,71,92
144000,note_off,,96,0,1,,,,,,0,72,64
144000,note_on,,0,0,2,,,,,,0,50,92
144000,note_off,,96,0,2,,,,,,0,52,64
144096,note_off,,96,0,1,,,,,,0,71,64
144096,note_on,,0,0,1,,,,,,0,77,92
144192,note_off,,192,0,2,,,,,,0,50,64
144192,note_on,,0,0,2,,,,,,0,48,92
144192,note_on,,0,0,1,,,,,,0,69,92
144192,note_off,,96,0,1,,,,,,0,77,64
144288,note_off,,96,0,1,,,,,,0,69,64
144288,note_on,,0,0,1,,,,,,0,77,92
144384,note_off,,96,0,1,,,,,,0,77,64
144384,note_on,,0,0,1,,,,,,0,67,92
144384,note_off,,192,0,2,,,,,,0,48,64
144384,note_on,,0,0,2,,,,,,0,47,92
144480,note_off,,96,0,1,,,,,,0,67,64
144480,note_on,,0,0,1,,,,,,0,69,92
144576,note_off,,96,0,1,,,,,,0,69,64
144576,note_on,,0,0,1,,,,,,0,71,92
144576,note_off,,192,0,2,,,,,,0,47,64
144576,note_on,,0,0,2,,,,,,0,50,92
144672,note_on,,0,0,2,,,,,,0,48,92
144672,note_off,,96,0,1,,,,,,0,71,64
144672,note_on,,0,0,1,,,,,,0,72,92
144672,note_off,,96,0,2,,,,,,0,50,64
144768,note_on,,0,0,1,,,,,,0,74,92
144768,note_on,,0,0,2,,,,,,0,47,92
144768,note_off,,96,0,2,,,,,,0,48,64
144768,note_off,,96,0,1,,,,,,0,72,64
144864,note_on,,0,0,1,,,,,,0,76,92
144864,note_off,,96,0,1,,,,,,0,74,64
144960,note_on,,0,0,1,,,,,,0,77,92
144960,note_off,,96,0,1,,,,,,0,76,64
144960,note_on,,0,0,2,,,,,,0,43,92
144960,note_off,,192,0,2,,,,,,0,47,64
145056,note_off,,96,0,1,,,,,,0,77,64
145056,note_on,,0,0,1,,,,,,0,74,92
145152,note_off,,192,0,2,,,,,,0,43,64
145152,note_on,,0,0,2,,,,,,0,48,92
145152,note_on,,0,0,1,,,,,,0,76,92
145152,note_on,,0,0,1,,,,,,0,72,92
145152,note_off,,96,0,1,,,,,,0,74,64
145344,note_on,,0,0,1,,,,,,0,74,92
145344,note_on,,0,0,1,,,,,,0,71,92
145344,note_off,,0,0,1,,,,,,0,72,64
145344,note_off,,192,0,1,,,,,,0,76,64
145536,note_off,,384,0,2,,,,,,0,55,64
145536,note_on,,0,0,2,,,,,,0,53,92
145728,note_off,,384,0,1,,,,,,0,74,64
145728,note_on,,0,0,1,,,,,,0,72,92
145728,note_off,,192,0,2,,,,,,0,53,64
145728,note_on,,0,0,2,,,,,,0,52,92
145728,note_off,,0,0,1,,,,,,0,71,64
145920,note_off,,192,0,1,,,,,,0,72,64
145920,note_on,,0,0,1,,,,,,0,74,92
145920,note_off,,192,0,2,,,,,,0,52,64
145920,note_on,,0,0,2,,,,,,0,53,92
146016,note_on,,0,0,1,,,,,,0,72,92
146016,note_off,,96,0,1,,,,,,0,74,64
146064,note_off,,48,0,1,,,,,,0,72,64
146064,note_on,,0,0,1,,,,,,0,71,92
146112,note_off,,48,0,1,,,,,,0,71,64
146112,note_off,,192,0,2,,,,,,0,53,64
146112,note_on,,0,0,2,,,,,,0,52,92
146112,note_on,,0,0,1,,,,,,0,72,92
146208,note_off,,96,0,2,,,,,,0,52,64
146208,note_on,,0,0,2,,,,,,0,50,92
146304,note_on,,0,0,2,,,,,,0,52,92
146304,note_off,,96,0,2,,,,,,0,50,64
146400,note_off,,288,0,1,,,,,,0,72,64
146400,note_on,,0,0,1,,,,,,0,67,92
146496,note_on,,0,0,2,,,,,,0,53,92
146496,note_on,,0,0,1,,,,,,0,72,92
146496,note_off,,96,0,1,,,,,,0,67,64
146496,note_off,,192,0,2,,,,,,0,52,64
146592,note_on,,0,0,1,,,,,,0,74,92
146592,note_off,,96,0,1,,,,,,0,72,64
146688,note_off,,192,0,2,,,,,,0,53,64
146688,note_on,,0,0,1,,,,,,0,76,92
146688,note_off,,96,0,1,,,,,,0,74,64
146688,note_on,,0,0,2,,,,,,0,55,92
146784,note_off,,96,0,1,,,,,,0,76,64
146784,note_on,,0,0,1,,,,,,0,77,92
146832,note_on,,0,0,1,,,,,,0,79,92
146832,note_off,,48,0,1,,,,,,0,77,64
146880,note_on,,0,0,2,,,,,,0,58,92
146880,note_off,,48,0,1,,,,,,0,79,64
146880,note_off,,192,0,2,,,,,,0,55,64
146880,note_on,,0,0,1,,,,,,0,77,92
146976,note_off,,96,0,1,,,,,,0,77,64
146976,note_on,,0,0,1,,,,,,0,76,92
147072,note_off,,96,0,1,,,,,,0,76,64
147072,note_on,,0,0,1,,,,,,0,77,92
147072,note_off,,192,0,2,,,,,,0,58,64
147072,note_on,,0,0,2,,,,,,0,57,92
147168,note_off,,96,0,1,,,,,,0,77,64
147168,note_on,,0,0,1,,,,,,0,76,92
147264,note_on,,0,0,1,,,,,,0,74,92
147264,note_off,,192,0,2,,,,,,0,57,64
147264,note_on,,0,0,2,,,,,,0,53,92
147264,note_off,,96,0,1,,,,,,0,76,64
147360,note_off,,96,0,1,,,,,,0,74,64
147360,note_on,,0,0,1,,,,,,0,72,92
147456,note_off,,192,0,2,,,,,,0,53,64
147456,note_on,,0,0,2,,,,,,0,52,92
147456,note_off,,96,0,1,,,,,,0,72,64
147456,note_on,,0,0,1,,,,,,0,82,92
147552,note_off,,96,0,1,,,,,,0,82,64
147552,note_on,,0,0,1,,,,,,0,81,92
147600,note_off,,48,0,1,,,,,,0,81,64
147600,note_on,,0,0,1,,,,,,0,79,92
147648,note_on,,0,0,2,,,,,,0,53,92
147648,note_off,,48,0,1,,,,,,0,79,64
147648,note_on,,0,0,1,,,,,,0,81,92
147648,note_off,,192,0,2,,,,,,0,52,64
147744,note_off,,96,0,2,,,,,,0,53,64
147744,note_on,,0,0,2,,,,,,0,55,92
147840,note_on,,0,0,2,,,,,,0,53,92
147840,note_off,,96,0,2,,,,,,0,55,64
147936,note_off,,96,0,2,,,,,,0,53,64
147936,note_on,,0,0,2,,,,,,0,57,92
148032,note_off,,384,0,1,,,,,,0,81,64
148032,note_on,,0,0,1,,,,,,0,79,92
148032,note_off,,96,0,2,,,,,,0,57,64
148032,note_off,,0,0,2,,,,,,0,48,64
148032,note_on,,0,0,2,,,,,,0,51,92
148032,note_on,,0,0,2,,,,,,0,60,92
148224,note_off,,192,0,1,,,,,,0,79,64
148224,note_off,,192,0,2,,,,,,0,51,64
148224,note_on,,0,0,2,,,,,,0,50,92
148224,note_on,,0,0,1,,,,,,0,79,92
148320,note_off,,96,0,1,,,,,,0,79,64
148320,note_on,,0,0,1,,,,,,0,78,92
148416,note_on,,0,0,2,,,,,,0,57,92
148416,note_off,,96,0,1,,,,,,0,78,64
148416,note_on,,0,0,1,,,,,,0,79,92
148416,note_off,,192,0,2,,,,,,0,60,64
148512,note_on,,0,0,1,,,,,,0,81,92
148512,note_off,,96,0,1,,,,,,0,79,64
148608,note_on,,0,0,1,,,,,,0,79,92
148608,note_off,,96,0,1,,,,,,0,81,64
148608,note_on,,0,0,2,,,,,,0,62,92
148608,note_off,,192,0,2,,,,,,0,57,64
148704,note_on,,0,0,1,,,,,,0,78,92
148704,note_off,,96,0,1,,,,,,0,79,64
148800,note_on,,0,0,1,,,,,,0,76,92
148800,note_off,,96,0,1,,,,,,0,78,64
148800,note_on,,0,0,2,,,,,,0,60,92
148800,note_off,,192,0,2,,,,,,0,62,64
148896,note_on,,0,0,1,,,,,,0,74,92
148896,note_off,,96,0,1,,,,,,0,76,64
148992,note_on,,0,0,1,,,,,,0,79,92
148992,note_off,,96,0,1,,,,,,0,74,64
148992,note_off,,192,0,2,,,,,,0,60,64
148992,note_on,,0,0,2,,,,,,0,59,92
149088,note_on,,0,0,1,,,,,,0,77,92
149088,note_off,,96,0,1,,,,,,0,79,64
149136,note_on,,0,0,1,,,,,,0,76,92
149136,note_off,,48,0,1,,,,,,0,77,64
149184,note_on,,0,0,1,,,,,,0,77,92
149184,note_off,,48,0,1,,,,,,0,76,64
149184,note_off,,192,0,2,,,,,,0,50,64
149184,note_on,,0,0,2,,,,,,0,55,92
149376,note_on,,0,0,2,,,,,,0,53,92
149376,note_off,,192,0,2,,,,,,0,55,64
149472,note_off,,288,0,1,,,,,,0,77,64
149472,note_on,,0,0,1,,,,,,0,76,92
149568,note_off,,96,0,1,,,,,,0,76,64
149568,note_on,,0,0,1,,,,,,0,74,92
149568,note_off,,192,0,2,,,,,,0,53,64
149568,note_on,,0,0,2,,,,,,0,55,92
149664,note_on,,0,0,1,,,,,,0,77,92
149664,note_off,,96,0,1,,,,,,0,74,64
149760,note_off,,192,0,2,,,,,,0,55,64
149760,note_off,,0,0,2,,,,,,0,59,64
149760,note_on,,0,0,2,,,,,,0,48,92
149760,note_on,,0,0,2,,,,,,0,60,92
149760,note_on,,0,0,1,,,,,,0,76,92
149760,note_off,,96,0,1,,,,,,0,77,64
149856,note_on,,0,0,1,,,,,,0,74,92
149856,note_off,,96,0,1,,,,,,0,76,64
149952,note_off,,96,0,1,,,,,,0,74,64
149952,note_on,,0,0,1,,,,,,0,76,92
149952,note_on,,0,0,2,,,,,,0,55,92
149952,note_off,,192,0,2,,,,,,0,60,64
150048,note_off,,96,0,1,,,,,,0,76,64
150048,note_on,,0,0,1,,,,,,0,79,92
150144,note_on,,0,0,2,,,,,,0,47,92
150144,note_off,,192,0,2,,,,,,0,48,64
150144,note_off,,96,0,1,,,,,,0,79,64
150144,note_on,,0,0,1,,,,,,0,77,92
150240,note_off,,96,0,1,,,,,,0,77,64
150240,note_on,,0,0,1,,,,,,0,76,92
150336,note_on,,0,0,1,,,,,,0,74,92
150336,note_off,,96,0,1,,,,,,0,76,64
150336,note_on,,0,0,2,,,,,,0,45,92
150336,note_off,,192,0,2,,,,,,0,47,64
150336,note_on,,0,0,2,,,,,,0,54,92
150336,note_off,,0,0,2,,,,,,0,55,64
150432,note_off,,96,0,1,,,,,,0,74,64
150432,note_on,,0,0,1,,,,,,0,72,92
150528,note_off,,192,0,2,,,,,,0,45,64
150528,note_off,,96,0,1,,,,,,0,72,64
150528,note_on,,0,0,1,,,,,,0,76,92
150528,note_on,,0,0,2,,,,,,0,43,92
150528,note_off,,0,0,2,,,,,,0,54,64
150624,note_off,,96,0,1,,,,,,0,76,64
150624,note_on,,0,0,1,,,,,,0,74,92
150672,note_on,,0,0,1,,,,,,0,72,92
150672,note_off,,48,0,1,,,,,,0,74,64
150720,note_on,,0,0,1,,,,,,0,78,92
150720,note_off,,48,0,1,,,,,,0,72,64
150816,note_on,,288,0,2,,,,,,0,50,92
150912,note_off,,96,0,2,,,,,,0,50,64
150912,note_off,,0,0,2,,,,,,0,43,64
150912,note_on,,0,0,2,,,,,,0,55,92
151104,note_on,,192,0,2,,,,,,0,53,92
151104,note_off,,384,0,1,,,,,,0,78,64
151104,note_on,,0,0,1,,,,,,0,79,92
151200,note_on,,0,0,1,,,,,,0,81,92
151200,note_off,,96,0,1,,,,,,0,79,64
151296,note_off,,0,0,2,,,,,,0,55,64
151296,note_off,,192,0,2,,,,,,0,53,64
151296,note_on,,0,0,1,,,,,,0,79,92
151296,note_on,,0,0,2,,,,,,0,52,92
151296,note_off,,96,0,1,,,,,,0,81,64
151392,note_off,,96,0,1,,,,,,0,79,64
151392,note_on,,0,0,1,,,,,,0,83,92
151488,note_on,,192,0,2,,,,,,0,55,92
151584,note_on,,0,0,1,,,,,,0,84,92
151584,note_off,,192,0,1,,,,,,0,83,64
151680,note_off,,0,0,2,,,,,,0,52,64
151680,note_on,,0,0,2,,,,,,0,60,92
151680,note_on,,0,0,2,,,,,,0,57,92
151680,note_off,,192,0,2,,,,,,0,55,64
151680,note_on,,0,0,1,,,,,,0,77,92
151680,note_off,,96,0,1,,,,,,0,84,64
151776,note_on,,0,0,1,,,,,,0,76,92
151776,note_off,,96,0,1,,,,,,0,77,64
151872,note_off,,192,0,2,,,,,,0,57,64
151872,note_on,,0,0,1,,,,,,0,76,92
151872,note_off,,96,0,1,,,,,,0,76,64
151872,note_on,,0,0,2,,,,,,0,55,92
151968,note_on,,0,0,1,,,,,,0,74,92
151968,note_off,,96,0,1,,,,,,0,76,64
152064,note_off,,192,0,2,,,,,,0,55,64
152064,note_on,,0,0,2,,,,,,0,53,92
152064,note_on,,0,0,1,,,,,,0,74,92
152064,note_off,,96,0,1,,,,,,0,74,64
152160,note_off,,96,0,1,,,,,,0,74,64
152160,note_on,,0,0,1,,,,,,0,83,92
152256,note_off,,192,0,2,,,,,,0,60,64
152256,note_on,,0,0,2,,,,,,0,57,92
152352,note_off,,192,0,1,,,,,,0,83,64
152352,note_on,,0,0,1,,,,,,0,84,92
152448,note_off,,96,0,1,,,,,,0,84,64
152448,note_on,,0,0,1,,,,,,0,65,92
152448,note_on,,0,0,1,,,,,,0,74,92
152448,note_off,,192,0,2,,,,,,0,57,64
152544,note_off,,96,0,1,,,,,,0,74,64
152544,note_on,,0,0,1,,,,,,0,72,92
152640,note_on,,0,0,1,,,,,,0,72,92
152640,note_on,,0,0,1,,,,,,0,62,92
152640,note_off,,0,0,1,,,,,,0,65,64
152640,note_off,,96,0,1,,,,,,0,72,64
152736,note_on,,0,0,1,,,,,,0,71,92
152736,note_off,,96,0,1,,,,,,0,72,64
152832,note_on,,384,0,2,,,,,,0,59,92
152832,note_on,,0,0,1,,,,,,0,79,92
152832,note_off,,96,0,1,,,,,,0,71,64
152928,note_on,,0,0,1,,,,,,0,67,92
152928,note_off,,96,0,1,,,,,,0,79,64
153024,note_on,,0,0,1,,,,,,0,64,92
153024,note_off,,96,0,1,,,,,,0,62,64
153024,note_off,,192,0,2,,,,,,0,59,64
153024,note_off,,0,0,2,,,,,,0,53,64
153024,note_on,,0,0,2,,,,,,0,52,92
153024,note_on,,0,0,2,,,,,,0,60,92
153120,note_on,,96,0,1,,,,,,0,69,92
153216,note_on,,0,0,2,,,,,,0,53,92
153216,note_off,,192,0,2,,,,,,0,52,64
153312,note_off,,192,0,1,,,,,,0,69,64
153312,note_on,,0,0,1,,,,,,0,71,92
153408,note_off,,96,0,1,,,,,,0,64,64
153408,note_off,,0,0,1,,,,,,0,67,64
153408,note_on,,0,0,1,,,,,,0,65,92
153408,note_on,,0,0,1,,,,,,0,62,92
153408,note_on,,0,0,2,,,,,,0,55,92
153408,note_off,,0,0,2,,,,,,0,60,64
153408,note_off,,192,0,2,,,,,,0,53,64
153504,note_on,,0,0,1,,,,,,0,72,92
153504,note_off,,96,0,1,,,,,,0,71,64
153600,set_tempo,1090900,20736,1,0,,,,,,,,
153600,note_on,,0,0,1,,,,,,0,72,92
153600,note_on,,192,0,2,,,,,,0,48,92
153600,note_off,,0,0,1,,,,,,0,62,64
153600,note_off,,0,0,1,,,,,,0,65,64
153600,note_off,,96,0,1,,,,,,0,72,64
153696,note_on,,96,0,1,,,,,,0,67,92
153792,note_on,,96,0,1,,,,,,0,64,92
153888,note_on,,96,0,1,,,,,,0,60,92
153984,note_off,,0,0,2,,,,,,0,55,64
153984,note_on,,0,0,2,,,,,,0,36,92
153984,note_off,,384,0,2,,,,,,0,48,64
153984,set_tempo,2000000,384,1,0,,,,,,,,
154368,note_off,,384,0,2,,,,,,0,36,64
154368,set_tempo,1500000,384,1,0,,,,,,,,
154368,note_off,,480,0,1,,,,,,0,60,64
154368,note_off,,0,0,1,,,,,,0,64,64
154368,note_off,,0,0,1,,,,,,0,67,64
154368,note_off,,0,0,1,,,,,,0,72,64
155904,note_on,,1536,0,1,,,,,,0,75,92
155904,note_on,,1536,0,2,,,,,,0,60,92
155904,note_on,,0,0,1,,,,,,0,67,92
155904,time_signature,,1536,1,0,3,8,24,8,,,,
155952,note_off,,48,0,1,,,,,,0,75,64
155952,note_on,,0,0,1,,,,,,0,74,92
156000,note_off,,48,0,1,,,,,,0,74,64
156000,note_on,,0,0,1,,,,,,0,75,92
156096,note_off,,192,0,2,,,,,,0,60,64
156096,note_on,,0,0,2,,,,,,0,60,92
156096,note_off,,96,0,1,,,,,,0,67,64
156096,note_on,,0,0,1,,,,,,0,67,92
156288,note_off,,192,0,1,,,,,,0,67,64
156288,note_on,,0,0,2,,,,,,0,60,92
156288,note_off,,192,0,2,,,,,,0,60,64
156288,note_on,,0,0,1,,,,,,0,67,92
156480,note_off,,192,0,1,,,,,,0,67,64
156480,note_off,,0,0,1,,,,,,0,75,64
156480,note_on,,0,0,1,,,,,,0,75,92
156480,note_on,,0,0,1,,,,,,0,68,92
156480,note_off,,192,0,2,,,,,,0,60,64
156480,note_on,,0,0,2,,,,,,0,60,92
156544,note_off,,64,0,1,,,,,,0,75,64
156544,note_on,,0,0,1,,,,,,0,74,92
156608,note_off,,64,0,1,,,,,,0,74,64
156608,note_on,,0,0,1,,,,,,0,75,92
156672,note_on,,0,0,1,,,,,,0,68,92
156672,note_on,,0,0,1,,,,,,0,77,92
156672,note_off,,192,0,2,,,,,,0,60,64
156672,note_on,,0,0,2,,,,,,0,60,92
156672,note_off,,0,0,1,,,,,,0,68,64
156672,note_off,,64,0,1,,,,,,0,75,64
156736,note_on,,0,0,1,,,,,,0,75,92
156736,note_off,,64,0,1,,,,,,0,77,64
156800,note_on,,0,0,1,,,,,,0,74,92
156800,note_off,,64,0,1,,,,,,0,75,64
156864,note_on,,0,0,1,,,,,,0,67,92
156864,note_on,,0,0,1,,,,,,0,75,92
156864,note_on,,0,0,2,,,,,,0,60,92
156864,note_off,,64,0,1,,,,,,0,74,64
156864,note_off,,0,0,1,,,,,,0,68,64
156864,note_off,,192,0,2,,,,,,0,60,64
156928,note_off,,64,0,1,,,,,,0,75,64
156928,note_on,,0,0,1,,,,,,0,74,92
156992,note_on,,0,0,1,,,,,,0,72,92
156992,note_off,,64,0,1,,,,,,0,74,64
157056,note_off,,192,0,2,,,,,,0,60,64
157056,note_on,,0,0,2,,,,,,0,60,92
157056,note_on,,0,0,1,,,,,,0,65,92
157056,note_on,,0,0,1,,,,,,0,74,92
157056,note_off,,0,0,1,,,,,,0,67,64
157056,note_on,,0,0,1,,,,,,0,68,92
157056,note_off,,64,0,1,,,,,,0,72,64
157248,note_off,,192,0,2,,,,,,0,60,64
157248,note_on,,0,0,2,,,,,,0,60,92
157248,note_on,,0,0,1,,,,,,0,65,92
157248,note_off,,0,0,1,,,,,,0,65,64
157248,note_off,,192,0,1,,,,,,0,68,64
157248,note_on,,0,0,1,,,,,,0,68,92
157440,note_on,,0,0,2,,,,,,0,60,92
157440,note_off,,192,0,2,,,,,,0,60,64
157440,note_off,,192,0,1,,,,,,0,68,64
157440,note_off,,0,0,1,,,,,,0,65,64
157440,note_on,,0,0,1,,,,,,0,65,92
157440,note_on,,0,0,1,,,,,,0,68,92
157632,note_off,,192,0,2,,,,,,0,60,64
157632,note_off,,192,0,1,,,,,,0,68,64
157632,note_off,,0,0,1,,,,,,0,65,64
157632,note_on,,0,0,2,,,,,,0,60,92
157632,note_on,,0,0,1,,,,,,0,68,92
157632,note_on,,0,0,1,,,,,,0,65,92
157696,note_off,,64,0,1,,,,,,0,74,64
157696,note_on,,0,0,1,,,,,,0,71,92
157760,note_off,,64,0,1,,,,,,0,71,64
157760,note_on,,0,0,1,,,,,,0,72,92
157824,note_off,,64,0,1,,,,,,0,72,64
157824,note_off,,0,0,1,,,,,,0,68,64
157824,note_off,,0,0,1,,,,,,0,65,64
157824,note_on,,0,0,1,,,,,,0,65,92
157824,note_on,,0,0,1,,,,,,0,68,92
157824,note_on,,0,0,1,,,,,,0,74,92
157824,note_off,,192,0,2,,,,,,0,60,64
157824,note_on,,0,0,2,,,,,,0,60,92
157888,note_off,,64,0,1,,,,,,0,74,64
157888,note_on,,0,0,1,,,,,,0,74,92
157952,note_off,,64,0,1,,,,,,0,74,64
157952,note_on,,0,0,1,,,,,,0,75,92
158016,note_on,,0,0,2,,,,,,0,60,92
158016,note_on,,0,0,1,,,,,,0,77,92
158016,note_off,,64,0,1,,,,,,0,75,64
158016,note_off,,0,0,1,,,,,,0,68,64
158016,note_off,,0,0,1,,,,,,0,65,64
158016,note_on,,0,0,1,,,,,,0,65,92
158016,note_off,,192,0,2,,,,,,0,60,64
158016,note_on,,0,0,1,,,,,,0,68,92
158080,note_on,,0,0,1,,,,,,0,77,92
158080,note_off,,64,0,1,,,,,,0,77,64
158144,note_on,,0,0,1,,,,,,0,79,92
158144,note_off,,64,0,1,,,,,,0,77,64
158208,note_on,,0,0,2,,,,,,0,62,92
158208,note_on,,0,0,2,,,,,,0,59,92
158208,note_off,,192,0,2,,,,,,0,60,64
158208,note_off,,0,0,1,,,,,,0,68,64
158208,note_off,,64,0,1,,,,,,0,79,64
158208,note_on,,0,0,1,,,,,,0,80,92
158208,note_off,,0,0,1,,,,,,0,65,64
158400,note_off,,192,0,2,,,,,,0,62,64
158400,note_off,,0,0,2,,,,,,0,59,64
158400,note_on,,0,0,2,,,,,,0,59,92
158400,note_on,,0,0,2,,,,,,0,62,92
158592,note_on,,0,0,2,,,,,,0,59,92
158592,note_off,,192,0,2,,,,,,0,62,64
158592,note_off,,0,0,2,,,,,,0,59,64
158592,note_on,,0,0,2,,,,,,0,62,92
158784,note_on,,0,0,2,,,,,,0,59,92
158784,note_on,,0,0,2,,,,,,0,55,92
158784,note_off,,0,0,2,,,,,,0,59,64
158784,note_off,,192,0,2,,,,,,0,62,64
158784,note_on,,0,0,2,,,,,,0,62,92
158848,note_on,,0,0,1,,,,,,0,79,92
158848,note_off,,640,0,1,,,,,,0,80,64
158912,note_off,,64,0,1,,,,,,0,79,64
158912,note_on,,0,0,1,,,,,,0,77,92
158976,note_on,,0,0,2,,,,,,0,59,92
158976,note_off,,64,0,1,,,,,,0,77,64
158976,note_off,,192,0,2,,,,,,0,62,64
158976,note_on,,0,0,1,,,,,,0,79,92
158976,note_off,,0,0,2,,,,,,0,55,64
158976,note_on,,0,0,2,,,,,,0,55,92
158976,note_on,,0,0,2,,,,,,0,62,92
158976,note_off,,0,0,2,,,,,,0,59,64
159040,note_on,,0,0,1,,,,,,0,77,92
159040,note_off,,64,0,1,,,,,,0,79,64
159104,note_off,,64,0,1,,,,,,0,77,64
159104,note_on,,0,0,1,,,,,,0,75,92
159168,note_on,,0,0,2,,,,,,0,62,92
159168,note_on,,0,0,2,,,,,,0,59,92
159168,note_on,,0,0,2,,,,,,0,55,92
159168,note_off,,0,0,2,,,,,,0,55,64
159168,note_off,,0,0,2,,,,,,0,59,64
159168,note_off,,192,0,2,,,,,,0,62,64
159168,note_on,,0,0,1,,,,,,0,77,92
159168,note_off,,64,0,1,,,,,,0,75,64
159232,note_on,,0,0,1,,,,,,0,75,92
159232,note_off,,64,0,1,,,,,,0,77,64
159296,note_off,,64,0,1,,,,,,0,75,64
159296,note_on,,0,0,1,,,,,,0,74,92
159360,note_on,,0,0,2,,,,,,0,48,92
159360,note_on,,0,0,1,,,,,,0,75,92
159360,note_off,,64,0,1,,,,,,0,74,64
159360,note_off,,0,0,2,,,,,,0,55,64
159360,note_off,,0,0,2,,,,,,0,59,64
159360,note_on,,0,0,2,,,,,,0,60,92
159360,note_off,,192,0,2,,,,,,0,62,64
159408,note_off,,48,0,1,,,,,,0,75,64
159408,note_on,,0,0,1,,,,,,0,74,92
159456,note_on,,0,0,1,,,,,,0,75,92
159456,note_off,,48,0,1,,,,,,0,74,64
159552,note_on,,0,0,2,,,,,,0,48,92
159552,note_off,,0,0,2,,,,,,0,48,64
159552,note_off,,192,0,2,,,,,,0,60,64
159552,note_on,,0,0,2,,,,,,0,55,92
159616,note_on,,0,0,1,,,,,,0,77,92
159616,note_off,,160,0,1,,,,,,0,75,64
159680,note_on,,0,0,1,,,,,,0,75,92
159680,note_off,,64,0,1,,,,,,0,77,64
159744,note_on,,0,0,1,,,,,,0,74,92
159744,note_off,,0,0,2,,,,,,0,48,64
159744,note_on,,0,0,2,,,,,,0,48,92
159744,note_off,,192,0,2,,,,,,0,55,64
159744,note_on,,0,0,2,,,,,,0,53,92
159744,note_off,,64,0,1,,,,,,0,75,64
159808,note_on,,0,0,1,,,,,,0,72,92
159808,note_off,,64,0,1,,,,,,0,74,64
159872,note_on,,0,0,1,,,,,,0,71,92
159872,note_off,,64,0,1,,,,,,0,72,64
159936,note_off,,0,0,2,,,,,,0,48,64
159936,note_off,,64,0,1,,,,,,0,71,64
159936,note_on,,0,0,1,,,,,,0,72,92
159936,note_off,,192,0,2,,,,,,0,53,64
159936,note_on,,0,0,2,,,,,,0,51,92
159936,note_on,,0,0,2,,,,,,0,48,92
160128,note_off,,192,0,2,,,,,,0,48,64
160128,note_on,,0,0,2,,,,,,0,50,92
160128,note_on,,0,0,2,,,,,,0,53,92
160128,note_off,,0,0,2,,,,,,0,51,64
160192,note_off,,256,0,1,,,,,,0,72,64
160192,note_on,,0,0,1,,,,,,0,72,92
160256,note_on,,0,0,1,,,,,,0,71,92
160256,note_off,,64,0,1,,,,,,0,72,64
160320,note_on,,0,0,1,,,,,,0,72,92
160320,note_on,,0,0,2,,,,,,0,55,92
160320,note_off,,192,0,2,,,,,,0,50,64
160320,note_off,,0,0,2,,,,,,0,53,64
160320,note_off,,64,0,1,,,,,,0,71,64
160320,note_on,,0,0,2,,,,,,0,51,92
160384,note_off,,64,0,1,,,,,,0,72,64
160384,note_on,,0,0,1,,,,,,0,74,92
160448,note_off,,64,0,1,,,,,,0,74,64
160448,note_on,,0,0,1,,,,,,0,75,92
160512,note_off,,64,0,1,,,,,,0,75,64
160512,note_on,,0,0,1,,,,,,0,68,92
160512,note_on,,0,0,2,,,,,,0,53,92
160512,note_off,,0,0,2,,,,,,0,55,64
160512,note_off,,192,0,2,,,,,,0,51,64
160704,note_off,,192,0,2,,,,,,0,53,64
160704,note_on,,0,0,2,,,,,,0,60,92
160704,note_on,,0,0,2,,,,,,0,53,92
160896,note_off,,192,0,2,,,,,,0,53,64
160896,note_off,,0,0,2,,,,,,0,60,64
160896,note_on,,0,0,2,,,,,,0,60,92
160896,note_on,,0,0,2,,,,,,0,53,92
161088,note_on,,0,0,2,,,,,,0,60,92
161088,note_on,,0,0,2,,,,,,0,51,92
161088,note_off,,192,0,2,,,,,,0,53,64
161088,note_off,,0,0,2,,,,,,0,60,64
161152,note_on,,0,0,1,,,,,,0,65,92
161152,note_off,,640,0,1,,,,,,0,68,64
161216,note_on,,0,0,1,,,,,,0,67,92
161216,note_off,,64,0,1,,,,,,0,65,64
161280,note_off,,64,0,1,,,,,,0,67,64
161280,note_on,,0,0,1,,,,,,0,68,92
161280,note_on,,0,0,2,,,,,,0,60,92
161280,note_on,,0,0,2,,,,,,0,51,92
161280,note_off,,0,0,2,,,,,,0,51,64
161280,note_off,,192,0,2,,,,,,0,60,64
161344,note_off,,64,0,1,,,,,,0,68,64
161344,note_on,,0,0,1,,,,,,0,70,92
161408,note_off,,64,0,1,,,,,,0,70,64
161408,note_on,,0,0,1,,,,,,0,72,92
161472,note_off,,192,0,2,,,,,,0,60,64
161472,note_on,,0,0,2,,,,,,0,51,92
161472,note_off,,64,0,1,,,,,,0,72,64
161472,note_on,,0,0,1,,,,,,0,74,92
161472,note_off,,0,0,2,,,,,,0,51,64
161472,note_on,,0,0,2,,,,,,0,53,92
161536,note_on,,0,0,1,,,,,,0,75,92
161536,note_off,,64,0,1,,,,,,0,74,64
161600,note_off,,64,0,1,,,,,,0,75,64
161600,note_on,,0,0,1,,,,,,0,77,92
161664,note_off,,64,0,1,,,,,,0,77,64
161664,note_on,,0,0,1,,,,,,0,70,92
161664,note_off,,192,0,2,,,,,,0,53,64
161664,note_off,,0,0,2,,,,,,0,51,64
161664,note_on,,0,0,2,,,,,,0,50,92
161664,note_on,,0,0,2,,,,,,0,53,92
161688,note_off,,24,0,1,,,,,,0,70,64
161688,note_on,,0,0,1,,,,,,0,68,92
161712,note_off,,24,0,1,,,,,,0,68,64
161712,note_on,,0,0,1,,,,,,0,67,92
161736,note_off,,24,0,1,,,,,,0,67,64
161736,note_on,,0,0,1,,,,,,0,68,92
161760,note_off,,24,0,1,,,,,,0,68,64
161760,note_on,,0,0,1,,,,,,0,70,92
161784,note_on,,0,0,1,,,,,,0,68,92
161784,note_off,,24,0,1,,,,,,0,70,64
161808,note_on,,0,0,1,,,,,,0,70,92
161808,note_off,,24,0,1,,,,,,0,68,64
161832,note_off,,24,0,1,,,,,,0,70,64
161832,note_on,,0,0,1,,,,,,0,68,92
161856,note_off,,24,0,1,,,,,,0,68,64
161856,note_on,,0,0,1,,,,,,0,70,92
161856,note_on,,0,0,2,,,,,,0,53,92
161856,note_on,,0,0,2,,,,,,0,50,92
161856,note_off,,192,0,2,,,,,,0,53,64
161856,note_off,,0,0,2,,,,,,0,50,64
161880,note_off,,24,0,1,,,,,,0,70,64
161880,note_on,,0,0,1,,,,,,0,68,92
161904,note_off,,24,0,1,,,,,,0,68,64
161904,note_on,,0,0,1,,,,,,0,70,92
161928,note_off,,24,0,1,,,,,,0,70,64
161928,note_on,,0,0,1,,,,,,0,68,92
161952,note_off,,24,0,1,,,,,,0,68,64
161952,note_on,,0,0,1,,,,,,0,70,92
161976,note_off,,24,0,1,,,,,,0,70,64
161976,note_on,,0,0,1,,,,,,0,68,92
162000,note_on,,0,0,1,,,,,,0,70,92
162000,note_off,,24,0,1,,,,,,0,68,64
162024,note_on,,0,0,1,,,,,,0,68,92
162024,note_off,,24,0,1,,,,,,0,70,64
162048,note_off,,192,0,2,,,,,,0,53,64
162048,note_off,,0,0,2,,,,,,0,50,64
162048,note_on,,0,0,2,,,,,,0,50,92
162048,note_on,,0,0,2,,,,,,0,53,92
162048,note_off,,24,0,1,,,,,,0,68,64
162048,note_on,,0,0,1,,,,,,0,70,92
162072,note_off,,24,0,1,,,,,,0,70,64
162072,note_on,,0,0,1,,,,,,0,68,92
162096,note_off,,24,0,1,,,,,,0,68,64
162096,note_on,,0,0,1,,,,,,0,70,92
162120,note_off,,24,0,1,,,,,,0,70,64
162120,note_on,,0,0,1,,,,,,0,68,92
162144,note_off,,24,0,1,,,,,,0,68,64
162144,note_on,,0,0,1,,,,,,0,70,92
162168,note_off,,24,0,1,,,,,,0,70,64
162168,note_on,,0,0,1,,,,,,0,68,92
162192,note_off,,24,0,1,,,,,,0,68,64
162192,note_on,,0,0,1,,,,,,0,70,92
162216,note_off,,24,0,1,,,,,,0,70,64
162216,note_on,,0,0,1,,,,,,0,68,92
162240,note_off,,192,0,2,,,,,,0,53,64
162240,note_on,,0,0,2,,,,,,0,50,92
162240,note_on,,0,0,2,,,,,,0,46,92
162240,note_off,,0,0,2,,,,,,0,50,64
162304,note_off,,88,0,1,,,,,,0,68,64
162304,note_on,,0,0,1,,,,,,0,77,92
162368,note_off,,64,0,1,,,,,,0,77,64
162368,note_on,,0,0,1,,,,,,0,75,92
162432,note_on,,0,0,1,,,,,,0,74,92
162432,note_off,,64,0,1,,,,,,0,75,64
162432,note_off,,192,0,2,,,,,,0,50,64
162432,note_off,,0,0,2,,,,,,0,46,64
162432,note_on,,0,0,2,,,,,,0,48,92
162432,note_on,,0,0,2,,,,,,0,51,92
162496,note_on,,0,0,1,,,,,,0,72,92
162496,note_off,,64,0,1,,,,,,0,74,64
162560,note_off,,64,0,1,,,,,,0,72,64
162560,note_on,,0,0,1,,,,,,0,70,92
162624,note_off,,64,0,1,,,,,,0,70,64
162624,note_on,,0,0,1,,,,,,0,70,92
162624,note_off,,0,0,2,,,,,,0,48,64
162624,note_on,,0,0,2,,,,,,0,53,92
162624,note_off,,192,0,2,,,,,,0,51,64
162624,note_on,,0,0,2,,,,,,0,50,92
162688,note_off,,64,0,1,,,,,,0,70,64
162688,note_on,,0,0,1,,,,,,0,68,92
162752,note_off,,64,0,1,,,,,,0,68,64
162752,note_on,,0,0,1,,,,,,0,67,92
162816,note_off,,192,0,2,,,,,,0,53,64
162816,note_off,,0,0,2,,,,,,0,50,64
162816,note_on,,0,0,2,,,,,,0,51,92
162816,note_off,,64,0,1,,,,,,0,67,64
162816,note_on,,0,0,1,,,,,,0,67,92
162816,note_on,,0,0,2,,,,,,0,55,92
162880,note_off,,64,0,1,,,,,,0,67,64
162880,note_on,,0,0,1,,,,,,0,70,92
162944,note_off,,64,0,1,,,,,,0,70,64
162944,note_on,,0,0,1,,,,,,0,74,92
163008,note_off,,64,0,1,,,,,,0,74,64
163008,note_on,,0,0,1,,,,,,0,74,92
163008,note_on,,0,0,2,,,,,,0,51,92
163008,note_off,,0,0,2,,,,,,0,51,64
163008,note_off,,192,0,2,,,,,,0,55,64
163008,note_on,,0,0,2,,,,,,0,55,92
163072,note_off,,64,0,1,,,,,,0,74,64
163072,note_on,,0,0,1,,,,,,0,75,92
163200,note_off,,192,0,2,,,,,,0,55,64
163200,note_off,,0,0,2,,,,,,0,51,64
163200,note_on,,0,0,2,,,,,,0,53,92
163200,note_on,,0,0,2,,,,,,0,56,92
163264,note_on,,0,0,1,,,,,,0,74,92
163264,note_off,,192,0,1,,,,,,0,75,64
163328,note_off,,64,0,1,,,,,,0,74,64
163328,note_on,,0,0,1,,,,,,0,72,92
163392,note_on,,0,0,1,,,,,,0,70,92
163392,note_off,,64,0,1,,,,,,0,72,64
163392,note_off,,192,0,2,,,,,,0,56,64
163392,note_on,,0,0,2,,,,,,0,55,92
163392,note_on,,0,0,2,,,,,,0,58,92
163392,note_off,,0,0,2,,,,,,0,53,64
163456,note_off,,64,0,1,,,,,,0,70,64
163456,note_on,,0,0,1,,,,,,0,74,92
163520,note_off,,64,0,1,,,,,,0,74,64
163520,note_on,,0,0,1,,,,,,0,75,92
163584,note_on,,0,0,2,,,,,,0,60,92
163584,note_on,,0,0,2,,,,,,0,57,92
163584,note_off,,0,0,2,,,,,,0,55,64
163584,note_off,,192,0,2,,,,,,0,58,64
163584,note_off,,64,0,1,,,,,,0,75,64
163584,note_on,,0,0,1,,,,,,0,78,92
163776,note_off,,0,0,2,,,,,,0,57,64
163776,note_on,,0,0,2,,,,,,0,53,92
163776,note_on,,0,0,2,,,,,,0,57,92
163776,note_off,,192,0,2,,,,,,0,60,64
163840,note_on,,0,0,1,,,,,,0,77,92
163840,note_off,,256,0,1,,,,,,0,78,64
163904,note_on,,0,0,1,,,,,,0,75,92
163904,note_off,,64,0,1,,,,,,0,77,64
163968,note_on,,0,0,1,,,,,,0,74,92
163968,note_off,,64,0,1,,,,,,0,75,64
163968,note_on,,0,0,2,,,,,,0,58,92
163968,note_on,,0,0,2,,,,,,0,46,92
163968,note_off,,0,0,2,,,,,,0,53,64
163968,note_off,,192,0,2,,,,,,0,57,64
163984,note_on,,0,0,1,,,,,,0,75,92
163984,note_off,,16,0,1,,,,,,0,74,64
164000,note_on,,0,0,1,,,,,,0,74,92
164000,note_off,,16,0,1,,,,,,0,75,64
164032,note_off,,32,0,1,,,,,,0,74,64
164032,note_on,,0,0,1,,,,,,0,72,92
164096,note_off,,64,0,1,,,,,,0,72,64
164096,note_on,,0,0,1,,,,,,0,74,92
164160,note_off,,64,0,1,,,,,,0,74,64
164160,note_off,,192,0,2,,,,,,0,58,64
164160,note_on,,0,0,1,,,,,,0,75,92
164160,note_on,,0,0,2,,,,,,0,53,92
164224,note_on,,0,0,1,,,,,,0,74,92
164224,note_off,,64,0,1,,,,,,0,75,64
164288,note_on,,0,0,1,,,,,,0,72,92
164288,note_off,,64,0,1,,,,,,0,74,64
164352,note_on,,0,0,2,,,,,,0,56,92
164352,note_off,,64,0,1,,,,,,0,72,64
164352,note_on,,0,0,1,,,,,,0,74,92
164352,note_off,,192,0,2,,,,,,0,53,64
164416,note_off,,64,0,1,,,,,,0,74,64
164416,note_on,,0,0,1,,,,,,0,72,92
164480,note_on,,0,0,1,,,,,,0,70,92
164480,note_off,,64,0,1,,,,,,0,72,64
164544,note_on,,192,0,2,,,,,,0,50,92
164544,note_on,,0,0,1,,,,,,0,70,92
164544,note_off,,64,0,1,,,,,,0,70,64
164608,note_off,,64,0,2,,,,,,0,50,64
164608,note_off,,0,0,2,,,,,,0,56,64
164608,note_on,,0,0,2,,,,,,0,56,92
164608,note_off,,0,0,2,,,,,,0,46,64
164672,note_on,,0,0,2,,,,,,0,55,92
164672,note_off,,64,0,2,,,,,,0,56,64
164736,note_on,,0,0,2,,,,,,0,53,92
164736,note_off,,64,0,2,,,,,,0,55,64
164800,note_on,,0,0,2,,,,,,0,51,92
164800,note_off,,64,0,2,,,,,,0,53,64
164864,note_on,,0,0,2,,,,,,0,50,92
164864,note_off,,64,0,2,,,,,,0,51,64
164928,note_off,,384,0,1,,,,,,0,70,64
164928,note_on,,0,0,2,,,,,,0,48,92
164928,note_off,,64,0,2,,,,,,0,50,64
164992,note_on,,0,0,2,,,,,,0,46,92
164992,note_off,,64,0,2,,,,,,0,48,64
165056,note_on,,0,0,2,,,,,,0,44,92
165056,note_off,,64,0,2,,,,,,0,46,64
165120,note_on,,0,0,2,,,,,,0,43,92
165120,note_off,,64,0,2,,,,,,0,44,64
165120,note_on,,192,0,1,,,,,,0,82,92
165312,note_off,,192,0,2,,,,,,0,43,64
165312,note_on,,0,0,2,,,,,,0,61,92
165312,note_on,,0,0,2,,,,,,0,55,92
165504,note_on,,0,0,2,,,,,,0,61,92
165504,note_off,,192,0,2,,,,,,0,55,64
165504,note_off,,0,0,2,,,,,,0,61,64
165504,note_on,,0,0,2,,,,,,0,53,92
165696,note_off,,0,0,2,,,,,,0,53,64
165696,note_on,,0,0,2,,,,,,0,52,92
165696,note_on,,0,0,2,,,,,,0,55,92
165696,note_off,,192,0,2,,,,,,0,61,64
165760,note_on,,0,0,1,,,,,,0,79,92
165760,note_off,,640,0,1,,,,,,0,82,64
165824,note_off,,64,0,1,,,,,,0,79,64
165824,note_on,,0,0,1,,,,,,0,76,92
165888,note_off,,0,0,2,,,,,,0,52,64
165888,note_on,,0,0,2,,,,,,0,55,92
165888,note_on,,0,0,1,,,,,,0,73,92
165888,note_off,,64,0,1,,,,,,0,76,64
165888,note_on,,0,0,2,,,,,,0,52,92
165888,note_off,,192,0,2,,,,,,0,55,64
165952,note_on,,0,0,1,,,,,,0,72,92
165952,note_off,,64,0,1,,,,,,0,73,64
166016,note_on,,0,0,1,,,,,,0,71,92
166016,note_off,,64,0,1,,,,,,0,72,64
166080,note_off,,64,0,1,,,,,,0,71,64
166080,note_on,,0,0,1,,,,,,0,72,92
166080,note_on,,0,0,2,,,,,,0,55,92
166080,note_on,,0,0,2,,,,,,0,52,92
166080,note_off,,0,0,2,,,,,,0,52,64
166080,note_off,,192,0,2,,,,,,0,55,64
166224,note_off,,144,0,1,,,,,,0,72,64
166224,note_on,,0,0,1,,,,,,0,82,92
166272,note_off,,0,0,2,,,,,,0,52,64
166272,note_on,,0,0,2,,,,,,0,53,92
166272,note_off,,192,0,2,,,,,,0,55,64
166272,note_off,,48,0,1,,,,,,0,82,64
166272,note_on,,0,0,1,,,,,,0,80,92
166464,note_off,,192,0,2,,,,,,0,53,64
166464,note_on,,0,0,2,,,,,,0,53,92
166464,note_on,,0,0,2,,,,,,0,60,92
166656,note_off,,192,0,2,,,,,,0,53,64
166656,note_off,,0,0,2,,,,,,0,60,64
166656,note_on,,0,0,2,,,,,,0,60,92
166656,note_on,,0,0,2,,,,,,0,51,92
166848,note_on,,0,0,2,,,,,,0,58,92
166848,note_on,,0,0,2,,,,,,0,50,92
166848,note_off,,0,0,2,,,,,,0,60,64
166848,note_off,,192,0,2,,,,,,0,51,64
166912,note_on,,0,0,1,,,,,,0,77,92
166912,note_off,,640,0,1,,,,,,0,80,64
166976,note_off,,64,0,1,,,,,,0,77,64
166976,note_on,,0,0,1,,,,,,0,74,92
167040,note_off,,64,0,1,,,,,,0,74,64
167040,note_on,,0,0,1,,,,,,0,70,92
167040,note_on,,0,0,2,,,,,,0,53,92
167040,note_on,,0,0,2,,,,,,0,50,92
167040,note_off,,0,0,2,,,,,,0,50,64
167040,note_off,,192,0,2,,,,,,0,58,64
167104,note_off,,64,0,1,,,,,,0,70,64
167104,note_on,,0,0,1,,,,,,0,69,92
167168,note_off,,64,0,1,,,,,,0,69,64
167168,note_on,,0,0,1,,,,,,0,70,92
167232,note_off,,192,0,2,,,,,,0,53,64
167232,note_off,,64,0,1,,,,,,0,70,64
167232,note_on,,0,0,1,,,,,,0,74,92
167232,note_on,,0,0,2,,,,,,0,58,92
167232,note_on,,0,0,2,,,,,,0,50,92
167232,note_off,,0,0,2,,,,,,0,50,64
167296,note_off,,64,0,1,,,,,,0,74,64
167296,note_on,,0,0,1,,,,,,0,77,92
167360,note_off,,64,0,1,,,,,,0,77,64
167360,note_on,,0,0,1,,,,,,0,80,92
167424,note_on,,0,0,2,,,,,,0,58,92
167424,note_on,,0,0,2,,,,,,0,51,92
167424,note_off,,0,0,2,,,,,,0,50,64
167424,note_on,,0,0,1,,,,,,0,79,92
167424,note_off,,64,0,1,,,,,,0,80,64
167424,note_off,,192,0,2,,,,,,0,58,64
167440,note_on,,0,0,1,,,,,,0,80,92
167440,note_off,,16,0,1,,,,,,0,79,64
167456,note_off,,16,0,1,,,,,,0,80,64
167456,note_on,,0,0,1,,,,,,0,79,92
167488,note_on,,0,0,1,,,,,,0,78,92
167488,note_off,,32,0,1,,,,,,0,79,64
167552,note_off,,64,0,1,,,,,,0,78,64
167552,note_on,,0,0,1,,,,,,0,79,92
167616,note_on,,0,0,2,,,,,,0,58,92
167616,note_off,,0,0,2,,,,,,0,58,64
167616,note_off,,192,0,2,,,,,,0,51,64
167616,note_on,,0,0,2,,,,,,0,51,92
167680,note_on,,0,0,1,,,,,,0,78,92
167680,note_off,,128,0,1,,,,,,0,79,64
167744,note_on,,0,0,1,,,,,,0,79,92
167744,note_off,,64,0,1,,,,,,0,78,64
167808,note_off,,64,0,1,,,,,,0,79,64
167808,note_on,,0,0,2,,,,,,0,58,92
167808,note_off,,192,0,2,,,,,,0,51,64
167808,note_off,,0,0,2,,,,,,0,58,64
167808,note_on,,0,0,1,,,,,,0,80,92
167808,note_on,,0,0,2,,,,,,0,50,92
167872,note_on,,0,0,1,,,,,,0,78,92
167872,note_off,,64,0,1,,,,,,0,80,64
167936,note_off,,64,0,1,,,,,,0,78,64
167936,note_on,,0,0,1,,,,,,0,79,92
168000,note_off,,0,0,2,,,,,,0,58,64
168000,note_on,,0,0,2,,,,,,0,48,92
168000,note_on,,0,0,2,,,,,,0,58,92
168000,note_off,,64,0,1,,,,,,0,79,64
168000,note_on,,0,0,1,,,,,,0,75,92
168000,note_off,,192,0,2,,,,,,0,50,64
168016,note_off,,16,0,1,,,,,,0,75,64
168016,note_on,,0,0,1,,,,,,0,77,92
168032,note_on,,0,0,1,,,,,,0,75,92
168032,note_off,,16,0,1,,,,,,0,77,64
168064,note_off,,32,0,1,,,,,,0,75,64
168064,note_on,,0,0,1,,,,,,0,74,92
168128,note_off,,64,0,1,,,,,,0,74,64
168128,note_on,,0,0,1,,,,,,0,75,92
168192,note_off,,192,0,2,,,,,,0,58,64
168192,note_off,,0,0,2,,,,,,0,48,64
168192,note_on,,0,0,2,,,,,,0,48,92
168192,note_on,,0,0,2,,,,,,0,56,92
168256,note_on,,0,0,1,,,,,,0,74,92
168256,note_off,,128,0,1,,,,,,0,75,64
168320,note_off,,64,0,1,,,,,,0,74,64
168320,note_on,,0,0,1,,,,,,0,75,92
168384,note_on,,0,0,2,,,,,,0,46,92
168384,note_on,,0,0,1,,,,,,0,77,92
168384,note_on,,0,0,2,,,,,,0,55,92
168384,note_off,,192,0,2,,,,,,0,56,64
168384,note_off,,0,0,2,,,,,,0,48,64
168384,note_off,,64,0,1,,,,,,0,75,64
168448,note_off,,64,0,1,,,,,,0,77,64
168448,note_on,,0,0,1,,,,,,0,74,92
168512,note_off,,64,0,1,,,,,,0,74,64
168512,note_on,,0,0,1,,,,,,0,75,92
168576,note_on,,0,0,2,,,,,,0,45,92
168576,note_off,,192,0,2,,,,,,0,46,64
168576,note_off,,64,0,1,,,,,,0,75,64
168576,note_on,,0,0,1,,,,,,0,72,92
168592,note_on,,0,0,1,,,,,,0,74,92
168592,note_off,,16,0,1,,,,,,0,72,64
168608,note_on,,0,0,1,,,,,,0,72,92
168608,note_off,,16,0,1,,,,,,0,74,64
168640,note_on,,0,0,1,,,,,,0,71,92
168640,note_off,,32,0,1,,,,,,0,72,64
168704,note_on,,0,0,1,,,,,,0,72,92
168704,note_off,,64,0,1,,,,,,0,71,64
168768,note_off,,0,0,2,,,,,,0,55,64
168768,note_off,,192,0,2,,,,,,0,45,64
168768,note_on,,0,0,2,,,,,,0,48,92
168768,note_on,,0,0,2,,,,,,0,57,92
168832,note_on,,0,0,1,,,,,,0,71,92
168832,note_off,,128,0,1,,,,,,0,72,64
168896,note_off,,64,0,1,,,,,,0,71,64
168896,note_on,,0,0,1,,,,,,0,72,92
168960,note_on,,0,0,2,,,,,,0,51,92
168960,note_off,,0,0,2,,,,,,0,57,64
168960,note_off,,192,0,2,,,,,,0,48,64
168960,note_off,,64,0,1,,,,,,0,72,64
168960,note_on,,0,0,1,,,,,,0,74,92
168960,note_on,,0,0,2,,,,,,0,55,92
169024,note_on,,0,0,1,,,,,,0,71,92
169024,note_off,,64,0,1,,,,,,0,74,64
169088,note_on,,0,0,1,,,,,,0,72,92
169088,note_off,,64,0,1,,,,,,0,71,64
169152,note_on,,0,0,2,,,,,,0,50,92
169152,note_on,,0,0,2,,,,,,0,54,92
169152,note_off,,0,0,2,,,,,,0,55,64
169152,note_off,,192,0,2,,,,,,0,51,64
169152,note_on,,0,0,1,,,,,,0,81,92
169152,note_off,,64,0,1,,,,,,0,72,64
169344,note_on,,0,0,2,,,,,,0,54,92
169344,note_on,,0,0,2,,,,,,0,57,92
169344,note_on,,0,0,2,,,,,,0,50,92
169344,note_off,,0,0,2,,,,,,0,54,64
169344,note_off,,192,0,2,,,,,,0,50,64
169408,note_off,,256,0,1,,,,,,0,81,64
169408,note_on,,0,0,1,,,,,,0,79,92
169472,note_off,,64,0,1,,,,,,0,79,64
169472,note_on,,0,0,1,,,,,,0,78,92
169536,note_on,,0,0,2,,,,,,0,62,92
169536,note_off,,0,0,2,,,,,,0,54,64
169536,note_off,,0,0,2,,,,,,0,57,64
169536,note_off,,192,0,2,,,,,,0,50,64
169536,note_on,,0,0,2,,,,,,0,50,92
169536,note_on,,0,0,2,,,,,,0,57,92
169536,note_on,,0,0,2,,,,,,0,54,92
169536,note_off,,64,0,1,,,,,,0,78,64
169536,note_on,,0,0,1,,,,,,0,75,92
169600,note_on,,0,0,1,,,,,,0,74,92
169600,note_off,,64,0,1,,,,,,0,75,64
169664,note_on,,0,0,1,,,,,,0,72,92
169664,note_off,,64,0,1,,,,,,0,74,64
169728,note_off,,192,0,2,,,,,,0,50,64
169728,note_on,,0,0,2,,,,,,0,55,92
169728,note_off,,0,0,2,,,,,,0,57,64
169728,note_on,,0,0,1,,,,,,0,72,92
169728,note_off,,64,0,1,,,,,,0,72,64
169728,note_off,,0,0,2,,,,,,0,54,64
169792,note_on,,0,0,1,,,,,,0,70,92
169792,note_off,,64,0,1,,,,,,0,72,64
169920,note_off,,192,0,2,,,,,,0,55,64
169920,note_off,,0,0,2,,,,,,0,62,64
169920,note_on,,0,0,2,,,,,,0,55,92
169920,note_on,,0,0,2,,,,,,0,62,92
170112,note_off,,0,0,2,,,,,,0,55,64
170112,note_off,,192,0,2,,,,,,0,62,64
170112,note_on,,0,0,2,,,,,,0,62,92
170112,note_on,,0,0,2,,,,,,0,55,92
170304,note_on,,512,0,1,,,,,,0,63,92
170304,note_off,,192,0,2,,,,,,0,62,64
170304,note_off,,0,0,2,,,,,,0,55,64
170304,note_on,,0,0,2,,,,,,0,55,92
170368,note_on,,0,0,1,,,,,,0,69,92
170368,note_off,,64,0,1,,,,,,0,70,64
170432,note_off,,64,0,1,,,,,,0,69,64
170432,note_on,,0,0,1,,,,,,0,70,92
170496,note_off,,64,0,1,,,,,,0,70,64
170496,note_off,,0,0,1,,,,,,0,63,64
170496,note_on,,0,0,1,,,,,,0,63,92
170496,note_on,,0,0,1,,,,,,0,72,92
170496,note_off,,192,0,2,,,,,,0,55,64
170496,note_on,,0,0,2,,,,,,0,55,92
170560,note_on,,0,0,1,,,,,,0,70,92
170560,note_off,,64,0,1,,,,,,0,72,64
170624,note_off,,64,0,1,,,,,,0,70,64
170624,note_on,,0,0,1,,,,,,0,69,92
170688,note_off,,0,0,1,,,,,,0,63,64
170688,note_off,,192,0,2,,,,,,0,55,64
170688,note_on,,0,0,2,,,,,,0,55,92
170688,note_on,,0,0,1,,,,,,0,62,92
170688,note_on,,0,0,1,,,,,,0,70,92
170688,note_off,,64,0,1,,,,,,0,69,64
170752,note_off,,64,0,1,,,,,,0,70,64
170752,note_on,,0,0,1,,,,,,0,69,92
170816,note_off,,64,0,1,,,,,,0,69,64
170816,note_on,,0,0,1,,,,,,0,67,92
170880,note_on,,0,0,2,,,,,,0,55,92
170880,note_on,,0,0,2,,,,,,0,60,92
170880,note_off,,192,0,2,,,,,,0,55,64
170880,note_off,,64,0,1,,,,,,0,67,64
170880,note_off,,0,0,1,,,,,,0,62,64
170880,note_on,,0,0,1,,,,,,0,67,92
170880,note_on,,0,0,1,,,,,,0,63,92
170944,note_off,,64,0,1,,,,,,0,67,64
170944,note_on,,0,0,1,,,,,,0,69,92
171072,note_off,,128,0,1,,,,,,0,63,64
171072,note_off,,192,0,2,,,,,,0,55,64
171072,note_off,,0,0,2,,,,,,0,60,64
171072,note_on,,0,0,2,,,,,,0,60,92
171072,note_on,,0,0,2,,,,,,0,55,92
171072,note_on,,0,0,1,,,,,,0,63,92
171264,note_off,,192,0,2,,,,,,0,55,64
171264,note_off,,0,0,2,,,,,,0,60,64
171264,note_on,,0,0,2,,,,,,0,60,92
171264,note_on,,0,0,2,,,,,,0,55,92
171264,note_off,,192,0,1,,,,,,0,63,64
171264,note_on,,0,0,1,,,,,,0,63,92
171456,note_off,,192,0,1,,,,,,0,63,64
171456,note_on,,0,0,1,,,,,,0,63,92
171456,note_on,,0,0,2,,,,,,0,55,92
171456,note_on,,0,0,2,,,,,,0,60,92
171456,note_off,,0,0,2,,,,,,0,60,64
171456,note_off,,192,0,2,,,,,,0,55,64
171520,note_on,,0,0,1,,,,,,0,66,92
171520,note_off,,64,0,1,,,,,,0,69,64
171584,note_on,,0,0,1,,,,,,0,67,92
171584,note_off,,64,0,1,,,,,,0,66,64
171648,note_on,,0,0,2,,,,,,0,55,92
171648,note_on,,0,0,1,,,,,,0,63,92
171648,note_off,,0,0,1,,,,,,0,63,64
171648,note_on,,0,0,2,,,,,,0,60,92
171648,note_on,,0,0,1,,,,,,0,69,92
171648,note_off,,0,0,2,,,,,,0,55,64
171648,note_off,,192,0,2,,,,,,0,60,64
171648,note_off,,64,0,1,,,,,,0,67,64
171712,note_off,,64,0,1,,,,,,0,69,64
171712,note_on,,0,0,1,,,,,,0,69,92
171776,note_off,,64,0,1,,,,,,0,69,64
171776,note_on,,0,0,1,,,,,,0,70,92
171840,note_on,,0,0,1,,,,,,0,63,92
171840,note_on,,0,0,2,,,,,,0,60,92
171840,note_off,,192,0,2,,,,,,0,60,64
171840,note_off,,0,0,1,,,,,,0,63,64
171840,note_on,,0,0,2,,,,,,0,55,92
171840,note_off,,0,0,2,,,,,,0,55,64
171840,note_off,,64,0,1,,,,,,0,70,64
171840,note_on,,0,0,1,,,,,,0,72,92
171904,note_off,,64,0,1,,,,,,0,72,64
171904,note_on,,0,0,1,,,,,,0,72,92
171968,note_on,,0,0,1,,,,,,0,74,92
171968,note_off,,64,0,1,,,,,,0,72,64
172032,note_on,,0,0,2,,,,,,0,57,92
172032,note_off,,0,0,1,,,,,,0,63,64
172032,note_on,,0,0,1,,,,,,0,74,92
172032,note_off,,64,0,1,,,,,,0,74,64
172032,note_on,,0,0,2,,,,,,0,54,92
172032,note_off,,0,0,2,,,,,,0,55,64
172032,note_off,,192,0,2,,,,,,0,60,64
172096,note_on,,0,0,1,,,,,,0,75,92
172096,note_off,,64,0,1,,,,,,0,74,64
172224,note_off,,192,0,2,,,,,,0,57,64
172224,note_off,,0,0,2,,,,,,0,54,64
172224,note_on,,0,0,2,,,,,,0,54,92
172224,note_on,,0,0,2,,,,,,0,57,92
172416,note_off,,192,0,2,,,,,,0,57,64
172416,note_off,,0,0,2,,,,,,0,54,64
172416,note_on,,0,0,2,,,,,,0,54,92
172416,note_on,,0,0,2,,,,,,0,57,92
172608,note_off,,192,0,2,,,,,,0,57,64
172608,note_on,,0,0,2,,,,,,0,57,92
172608,note_on,,0,0,2,,,,,,0,54,92
172608,note_on,,0,0,2,,,,,,0,50,92
172608,note_off,,0,0,2,,,,,,0,54,64
172672,note_on,,0,0,1,,,,,,0,74,92
172672,note_off,,576,0,1,,,,,,0,75,64
172736,note_on,,0,0,1,,,,,,0,72,92
172736,note_off,,64,0,1,,,,,,0,74,64
172800,note_off,,64,0,1,,,,,,0,72,64
172800,note_on,,0,0,1,,,,,,0,81,92
172800,note_off,,192,0,2,,,,,,0,50,64
172800,note_off,,0,0,2,,,,,,0,54,64
172800,note_off,,0,0,2,,,,,,0,57,64
172800,note_on,,0,0,2,,,,,,0,57,92
172800,note_on,,0,0,2,,,,,,0,54,92
172800,note_on,,0,0,2,,,,,,0,50,92
172864,note_on,,0,0,1,,,,,,0,79,92
172864,note_off,,64,0,1,,,,,,0,81,64
172928,note_off,,64,0,1,,,,,,0,79,64
172928,note_on,,0,0,1,,,,,,0,78,92
172992,note_on,,0,0,2,,,,,,0,50,92
172992,note_on,,0,0,2,,,,,,0,57,92
172992,note_on,,0,0,2,,,,,,0,62,92
172992,note_off,,0,0,2,,,,,,0,57,64
172992,note_off,,0,0,2,,,,,,0,54,64
172992,note_off,,192,0,2,,,,,,0,50,64
172992,note_off,,64,0,1,,,,,,0,78,64
172992,note_on,,0,0,1,,,,,,0,79,92
173056,note_off,,64,0,1,,,,,,0,79,64
173056,note_on,,0,0,1,,,,,,0,81,92
173120,note_on,,0,0,1,,,,,,0,72,92
173120,note_off,,64,0,1,,,,,,0,81,64
173184,note_on,,0,0,1,,,,,,0,70,92
173184,note_off,,64,0,1,,,,,,0,72,64
173184,note_off,,0,0,2,,,,,,0,62,64
173184,note_on,,0,0,2,,,,,,0,62,92
173184,note_off,,192,0,2,,,,,,0,50,64
173184,note_off,,0,0,2,,,,,,0,57,64
173184,note_on,,0,0,2,,,,,,0,55,92
173376,note_on,,0,0,2,,,,,,0,55,92
173376,note_off,,0,0,2,,,,,,0,55,64
173376,note_off,,192,0,2,,,,,,0,62,64
173376,note_on,,0,0,2,,,,,,0,62,92
173440,note_on,,0,0,1,,,,,,0,72,92
173440,note_off,,256,0,1,,,,,,0,70,64
173504,note_off,,64,0,1,,,,,,0,72,64
173504,note_on,,0,0,1,,,,,,0,70,92
173568,note_on,,0,0,2,,,,,,0,60,92
173568,note_on,,0,0,1,,,,,,0,69,92
173568,note_on,,0,0,2,,,,,,0,55,92
173568,note_off,,0,0,2,,,,,,0,55,64
173568,note_off,,64,0,1,,,,,,0,70,64
173568,note_off,,192,0,2,,,,,,0,62,64
173632,note_off,,64,0,1,,,,,,0,69,64
173632,note_on,,0,0,1,,,,,,0,67,92
173696,note_off,,64,0,1,,,,,,0,67,64
173696,note_on,,0,0,1,,,,,,0,66,92
173760,note_off,,192,0,2,,,,,,0,60,64
173760,note_off,,64,0,1,,,,,,0,66,64
173760,note_on,,0,0,1,,,,,,0,67,92
173760,note_on,,0,0,2,,,,,,0,55,92
173760,note_on,,0,0,2,,,,,,0,58,92
173760,note_off,,0,0,2,,,,,,0,55,64
173952,note_off,,192,0,2,,,,,,0,55,64
173952,note_off,,0,0,2,,,,,,0,58,64
173952,note_on,,0,0,2,,,,,,0,57,92
173952,note_on,,0,0,2,,,,,,0,60,92
174016,note_on,,0,0,1,,,,,,0,79,92
174016,note_off,,256,0,1,,,,,,0,67,64
174080,note_on,,0,0,1,,,,,,0,78,92
174080,note_off,,64,0,1,,,,,,0,79,64
174144,note_on,,0,0,2,,,,,,0,58,92
174144,note_on,,0,0,2,,,,,,0,62,92
174144,note_off,,0,0,2,,,,,,0,60,64
174144,note_off,,192,0,2,,,,,,0,57,64
174144,note_off,,64,0,1,,,,,,0,78,64
174144,note_on,,0,0,1,,,,,,0,79,92
174208,note_on,,0,0,1,,,,,,0,80,92
174208,note_off,,64,0,1,,,,,,0,79,64
174272,note_off,,64,0,1,,,,,,0,80,64
174272,note_on,,0,0,1,,,,,,0,82,92
174336,note_on,,0,0,2,,,,,,0,61,92
174336,note_on,,0,0,2,,,,,,0,58,92
174336,note_off,,64,0,1,,,,,,0,82,64
174336,note_off,,192,0,2,,,,,,0,58,64
174336,note_off,,0,0,2,,,,,,0,62,64
174336,note_on,,0,0,1,,,,,,0,76,92
174528,note_off,,0,0,2,,,,,,0,58,64
174528,note_off,,192,0,2,,,,,,0,61,64
174528,note_on,,0,0,2,,,,,,0,55,92
174528,note_on,,0,0,2,,,,,,0,58,92
174592,note_off,,256,0,1,,,,,,0,76,64
174592,note_on,,0,0,1,,,,,,0,76,92
174656,note_off,,64,0,1,,,,,,0,76,64
174656,note_on,,0,0,1,,,,,,0,74,92
174720,note_off,,192,0,2,,,,,,0,55,64
174720,note_on,,0,0,2,,,,,,0,58,92
174720,note_on,,0,0,2,,,,,,0,55,92
174720,note_on,,0,0,2,,,,,,0,53,92
174720,note_off,,0,0,2,,,,,,0,58,64
174720,note_off,,64,0,1,,,,,,0,74,64
174720,note_on,,0,0,1,,,,,,0,76,92
174784,note_off,,64,0,1,,,,,,0,76,64
174784,note_on,,0,0,1,,,,,,0,77,92
174848,note_on,,0,0,1,,,,,,0,79,92
174848,note_off,,64,0,1,,,,,,0,77,64
174912,note_on,,0,0,2,,,,,,0,58,92
174912,note_on,,0,0,2,,,,,,0,55,92
174912,note_off,,192,0,2,,,,,,0,53,64
174912,note_on,,0,0,2,,,,,,0,52,92
174912,note_off,,64,0,1,,,,,,0,79,64
174912,note_off,,0,0,2,,,,,,0,58,64
174912,note_off,,0,0,2,,,,,,0,55,64
174912,note_on,,0,0,1,,,,,,0,73,92
175104,note_on,,0,0,2,,,,,,0,52,92
175104,note_off,,192,0,2,,,,,,0,58,64
175104,note_off,,0,0,2,,,,,,0,55,64
175104,note_off,,0,0,2,,,,,,0,52,64
175104,note_on,,0,0,2,,,,,,0,55,92
175168,note_on,,0,0,1,,,,,,0,72,92
175168,note_off,,256,0,1,,,,,,0,73,64
175232,note_off,,64,0,1,,,,,,0,72,64
175232,note_on,,0,0,1,,,,,,0,71,92
175296,note_on,,0,0,2,,,,,,0,52,92
175296,note_off,,0,0,2,,,,,,0,52,64
175296,note_on,,0,0,2,,,,,,0,55,92
175296,note_on,,0,0,2,,,,,,0,60,92
175296,note_off,,64,0,1,,,,,,0,71,64
175296,note_on,,0,0,1,,,,,,0,72,92
175296,note_off,,192,0,2,,,,,,0,55,64
175360,note_off,,64,0,1,,,,,,0,72,64
175360,note_on,,0,0,1,,,,,,0,76,92
175424,note_off,,64,0,1,,,,,,0,76,64
175424,note_on,,0,0,1,,,,,,0,79,92
175488,note_off,,192,0,2,,,,,,0,60,64
175488,note_off,,0,0,2,,,,,,0,52,64
175488,note_off,,0,0,2,,,,,,0,55,64
175488,note_on,,0,0,2,,,,,,0,53,92
175488,note_on,,0,0,1,,,,,,0,82,92
175488,note_on,,0,0,2,,,,,,0,60,92
175488,note_off,,64,0,1,,,,,,0,79,64
175552,note_off,,64,0,1,,,,,,0,82,64
175552,note_on,,0,0,1,,,,,,0,80,92
175616,note_on,,0,0,1,,,,,,0,79,92
175616,note_off,,64,0,1,,,,,,0,80,64
175680,note_on,,0,0,2,,,,,,0,56,92
175680,note_off,,192,0,2,,,,,,0,60,64
175680,note_off,,0,0,2,,,,,,0,53,64
175680,note_on,,0,0,2,,,,,,0,53,92
175680,note_on,,0,0,2,,,,,,0,60,92
175680,note_off,,64,0,1,,,,,,0,79,64
175680,note_on,,0,0,1,,,,,,0,80,92
175872,note_off,,0,0,2,,,,,,0,56,64
175872,note_off,,192,0,2,,,,,,0,60,64
175872,note_off,,0,0,2,,,,,,0,53,64
175872,note_on,,0,0,2,,,,,,0,58,92
175872,note_on,,0,0,2,,,,,,0,53,92
175872,note_on,,0,0,2,,,,,,0,61,92
175936,note_on,,0,0,1,,,,,,0,79,92
175936,note_off,,256,0,1,,,,,,0,80,64
176000,note_on,,0,0,1,,,,,,0,77,92
176000,note_off,,64,0,1,,,,,,0,79,64
176064,note_off,,64,0,1,,,,,,0,77,64
176064,note_off,,0,0,2,,,,,,0,58,64
176064,note_on,,0,0,2,,,,,,0,58,92
176064,note_on,,0,0,2,,,,,,0,53,92
176064,note_on,,0,0,1,,,,,,0,78,92
176064,note_on,,0,0,2,,,,,,0,61,92
176064,note_off,,192,0,2,,,,,,0,61,64
176064,note_off,,0,0,2,,,,,,0,53,64
176128,note_off,,64,0,1,,,,,,0,78,64
176128,note_on,,0,0,1,,,,,,0,77,92
176192,note_off,,64,0,1,,,,,,0,77,64
176192,note_on,,0,0,1,,,,,,0,76,92
176256,note_off,,64,0,1,,,,,,0,76,64
176256,note_on,,0,0,1,,,,,,0,77,92
176256,note_off,,0,0,2,,,,,,0,53,64
176256,note_off,,192,0,2,,,,,,0,61,64
176256,note_off,,0,0,2,,,,,,0,58,64
176256,note_on,,0,0,2,,,,,,0,56,92
176256,note_on,,0,0,2,,,,,,0,53,92
176256,note_on,,0,0,2,,,,,,0,60,92
176320,note_on,,0,0,1,,,,,,0,79,92
176320,note_off,,64,0,1,,,,,,0,77,64
176384,note_on,,0,0,1,,,,,,0,80,92
176384,note_off,,64,0,1,,,,,,0,79,64
176448,note_on,,0,0,1,,,,,,0,73,92
176448,note_off,,64,0,1,,,,,,0,80,64
176448,note_on,,0,0,2,,,,,,0,53,92
176448,note_off,,0,0,2,,,,,,0,56,64
176448,note_off,,0,0,2,,,,,,0,53,64
176448,note_off,,192,0,2,,,,,,0,60,64
176448,note_on,,0,0,2,,,,,,0,56,92
176512,note_off,,64,0,1,,,,,,0,73,64
176512,note_on,,0,0,1,,,,,,0,75,92
176576,note_off,,64,0,1,,,,,,0,75,64
176576,note_on,,0,0,1,,,,,,0,77,92
176640,note_off,,64,0,1,,,,,,0,77,64
176640,note_on,,0,0,1,,,,,,0,71,92
176640,note_off,,192,0,2,,,,,,0,56,64
176640,note_off,,0,0,2,,,,,,0,53,64
176640,note_on,,0,0,2,,,,,,0,53,92
176640,note_on,,0,0,2,,,,,,0,56,92
176704,note_on,,0,0,1,,,,,,0,72,92
176704,note_off,,64,0,1,,,,,,0,71,64
176768,note_on,,0,0,1,,,,,,0,74,92
176768,note_off,,64,0,1,,,,,,0,72,64
176832,note_on,,0,0,2,,,,,,0,50,92
176832,note_off,,64,0,1,,,,,,0,74,64
176832,note_off,,192,0,2,,,,,,0,56,64
176832,note_on,,0,0,2,,,,,,0,53,92
176832,note_on,,0,0,1,,,,,,0,68,92
176832,note_off,,0,0,2,,,,,,0,53,64
177024,note_on,,0,0,2,,,,,,0,51,92
177024,note_on,,0,0,2,,,,,,0,48,92
177024,note_off,,0,0,2,,,,,,0,50,64
177024,note_off,,192,0,2,,,,,,0,53,64
177088,note_on,,0,0,1,,,,,,0,67,92
177088,note_off,,256,0,1,,,,,,0,68,64
177152,note_off,,64,0,1,,,,,,0,67,64
177152,note_on,,0,0,1,,,,,,0,66,92
177216,note_off,,0,0,2,,,,,,0,48,64
177216,note_on,,0,0,2,,,,,,0,47,92
177216,note_on,,0,0,2,,,,,,0,50,92
177216,note_off,,64,0,1,,,,,,0,66,64
177216,note_on,,0,0,1,,,,,,0,67,92
177216,note_off,,192,0,2,,,,,,0,51,64
177280,note_off,,64,0,1,,,,,,0,67,64
177280,note_on,,0,0,1,,,,,,0,71,92
177344,note_on,,0,0,1,,,,,,0,74,92
177344,note_off,,64,0,1,,,,,,0,71,64
177408,note_on,,0,0,2,,,,,,0,47,92
177408,note_on,,0,0,1,,,,,,0,77,92
177408,note_off,,192,0,2,,,,,,0,50,64
177408,note_off,,0,0,2,,,,,,0,47,64
177408,note_on,,0,0,2,,,,,,0,43,92
177408,note_on,,0,0,2,,,,,,0,50,92
177408,note_off,,64,0,1,,,,,,0,74,64
177600,note_on,,0,0,2,,,,,,0,50,92
177600,note_on,,0,0,2,,,,,,0,55,92
177600,note_off,,192,0,2,,,,,,0,50,64
177600,note_on,,0,0,2,,,,,,0,47,92
177600,note_off,,0,0,2,,,,,,0,43,64
177600,note_off,,0,0,2,,,,,,0,47,64
177664,note_off,,256,0,1,,,,,,0,77,64
177664,note_on,,0,0,1,,,,,,0,75,92
177728,note_off,,64,0,1,,,,,,0,75,64
177728,note_on,,0,0,1,,,,,,0,74,92
177792,note_on,,0,0,2,,,,,,0,55,92
177792,note_off,,0,0,2,,,,,,0,47,64
177792,note_off,,0,0,2,,,,,,0,50,64
177792,note_on,,0,0,2,,,,,,0,48,92
177792,note_on,,0,0,1,,,,,,0,75,92
177792,note_off,,64,0,1,,,,,,0,74,64
177792,note_off,,192,0,2,,,,,,0,55,64
177856,note_on,,0,0,1,,,,,,0,74,92
177856,note_off,,64,0,1,,,,,,0,75,64
177920,note_on,,0,0,1,,,,,,0,72,92
177920,note_off,,64,0,1,,,,,,0,74,64
177984,note_off,,64,0,1,,,,,,0,72,64
177984,note_on,,0,0,1,,,,,,0,73,92
177984,note_off,,192,0,2,,,,,,0,55,64
177984,note_off,,0,0,2,,,,,,0,48,64
177984,note_on,,0,0,2,,,,,,0,52,92
177984,note_on,,0,0,2,,,,,,0,48,92
177984,note_on,,0,0,2,,,,,,0,55,92
178176,note_on,,0,0,2,,,,,,0,48,92
178176,note_off,,192,0,2,,,,,,0,55,64
178176,note_on,,0,0,2,,,,,,0,55,92
178176,note_on,,0,0,2,,,,,,0,52,92
178176,note_off,,0,0,2,,,,,,0,52,64
178176,note_off,,0,0,2,,,,,,0,48,64
178240,note_on,,0,0,1,,,,,,0,72,92
178240,note_off,,256,0,1,,,,,,0,73,64
178304,note_on,,0,0,1,,,,,,0,71,92
178304,note_off,,64,0,1,,,,,,0,72,64
178368,note_off,,64,0,1,,,,,,0,71,64
178368,note_off,,192,0,2,,,,,,0,55,64
178368,note_on,,0,0,2,,,,,,0,56,92
178368,note_on,,0,0,2,,,,,,0,53,92
178368,note_on,,0,0,2,,,,,,0,48,92
178368,note_off,,0,0,2,,,,,,0,52,64
178368,note_off,,0,0,2,,,,,,0,48,64
178368,note_on,,0,0,1,,,,,,0,72,92
178432,note_on,,0,0,1,,,,,,0,70,92
178432,note_off,,64,0,1,,,,,,0,72,64
178496,note_off,,64,0,1,,,,,,0,70,64
178496,note_on,,0,0,1,,,,,,0,68,92
178560,note_on,,0,0,1,,,,,,0,70,92
178560,note_on,,0,0,2,,,,,,0,48,92
178560,note_off,,192,0,2,,,,,,0,56,64
178560,note_off,,0,0,2,,,,,,0,48,64
178560,note_off,,64,0,1,,,,,,0,68,64
178560,note_on,,0,0,2,,,,,,0,53,92
178560,note_on,,0,0,2,,,,,,0,55,92
178560,note_off,,0,0,2,,,,,,0,53,64
178752,note_off,,0,0,2,,,,,,0,53,64
178752,note_off,,0,0,2,,,,,,0,48,64
178752,note_on,,0,0,2,,,,,,0,52,92
178752,note_on,,0,0,2,,,,,,0,48,92
178752,note_off,,192,0,2,,,,,,0,55,64
178752,note_on,,0,0,2,,,,,,0,55,92
178816,note_off,,256,0,1,,,,,,0,70,64
178816,note_on,,0,0,1,,,,,,0,68,92
178880,note_off,,64,0,1,,,,,,0,68,64
178880,note_on,,0,0,1,,,,,,0,67,92
178944,note_on,,0,0,1,,,,,,0,68,92
178944,note_off,,64,0,1,,,,,,0,67,64
179008,note_off,,0,0,2,,,,,,0,52,64
179008,note_off,,256,0,2,,,,,,0,55,64
179008,note_off,,0,0,2,,,,,,0,48,64
179008,note_on,,0,0,2,,,,,,0,48,92
179072,note_off,,64,0,2,,,,,,0,48,64
179072,note_on,,0,0,2,,,,,,0,52,92
179136,note_off,,64,0,2,,,,,,0,52,64
179136,note_on,,0,0,2,,,,,,0,55,92
179200,note_on,,0,0,2,,,,,,0,56,92
179200,note_off,,64,0,2,,,,,,0,55,64
179264,note_on,,0,0,2,,,,,,0,58,92
179264,note_off,,64,0,2,,,,,,0,56,64
179328,note_off,,64,0,2,,,,,,0,58,64
179328,note_on,,0,0,2,,,,,,0,60,92
179392,note_off,,64,0,2,,,,,,0,60,64
179392,note_on,,0,0,2,,,,,,0,62,92
179456,note_off,,64,0,2,,,,,,0,62,64
179456,note_on,,512,0,1,,,,,,0,64,92
179520,note_on,,0,0,1,,,,,,0,65,92
179520,note_off,,64,0,1,,,,,,0,64,64
179584,note_on,,0,0,1,,,,,,0,67,92
179584,note_off,,64,0,1,,,,,,0,68,64
179648,note_on,,0,0,1,,,,,,0,68,92
179648,note_off,,64,0,1,,,,,,0,67,64
179712,note_on,,0,0,2,,,,,,0,55,92
179712,note_off,,64,0,1,,,,,,0,68,64
179712,note_off,,0,0,1,,,,,,0,65,64
179712,note_on,,0,0,2,,,,,,0,52,92
179712,note_on,,256,0,2,,,,,,0,48,92
179712,note_on,,0,0,1,,,,,,0,70,92
179776,note_off,,64,0,1,,,,,,0,70,64
179776,note_on,,0,0,1,,,,,,0,68,92
179840,note_off,,64,0,1,,,,,,0,68,64
179840,note_on,,0,0,1,,,,,,0,67,92
179904,note_off,,0,0,2,,,,,,0,48,64
179904,note_off,,64,0,1,,,,,,0,67,64
179904,note_on,,0,0,1,,,,,,0,68,92
179904,note_off,,192,0,2,,,,,,0,55,64
179904,note_on,,0,0,2,,,,,,0,48,92
179904,note_on,,0,0,2,,,,,,0,53,92
179904,note_off,,0,0,2,,,,,,0,52,64
179968,note_on,,0,0,1,,,,,,0,67,92
179968,note_off,,64,0,1,,,,,,0,68,64
180032,note_off,,64,0,1,,,,,,0,67,64
180032,note_on,,0,0,1,,,,,,0,65,92
180096,note_on,,0,0,1,,,,,,0,74,92
180096,note_off,,64,0,1,,,,,,0,65,64
180160,note_off,,256,0,2,,,,,,0,48,64
180160,note_off,,0,0,2,,,,,,0,53,64
180160,note_on,,0,0,2,,,,,,0,50,92
180224,note_off,,64,0,2,,,,,,0,50,64
180224,note_on,,0,0,2,,,,,,0,53,92
180288,note_on,,0,0,2,,,,,,0,59,92
180288,note_off,,64,0,2,,,,,,0,53,64
180352,note_off,,64,0,2,,,,,,0,59,64
180352,note_on,,0,0,2,,,,,,0,60,92
180416,note_off,,64,0,2,,,,,,0,60,64
180416,note_on,,0,0,2,,,,,,0,62,92
180480,note_off,,64,0,2,,,,,,0,62,64
180480,note_on,,384,0,1,,,,,,0,63,92
180544,note_on,,0,0,1,,,,,,0,65,92
180544,note_off,,64,0,1,,,,,,0,63,64
180608,note_off,,64,0,1,,,,,,0,65,64
180608,note_on,,0,0,1,,,,,,0,67,92
180672,note_on,,0,0,1,,,,,,0,68,92
180672,note_off,,64,0,1,,,,,,0,67,64
180736,note_off,,64,0,1,,,,,,0,74,64
180736,note_on,,0,0,1,,,,,,0,71,92
180800,note_off,,64,0,1,,,,,,0,71,64
180800,note_on,,0,0,1,,,,,,0,72,92
180864,note_on,,0,0,2,,,,,,0,56,92
180864,note_on,,0,0,2,,,,,,0,53,92
180864,note_on,,384,0,2,,,,,,0,48,92
180864,note_off,,64,0,1,,,,,,0,72,64
180864,note_on,,0,0,1,,,,,,0,74,92
180864,note_off,,0,0,1,,,,,,0,68,64
180928,note_off,,64,0,1,,,,,,0,74,64
180928,note_on,,0,0,1,,,,,,0,74,92
180992,note_off,,64,0,1,,,,,,0,74,64
180992,note_on,,0,0,1,,,,,,0,75,92
181056,note_on,,0,0,2,,,,,,0,53,92
181056,note_off,,0,0,2,,,,,,0,48,64
181056,note_on,,0,0,2,,,,,,0,48,92
181056,note_on,,0,0,2,,,,,,0,50,92
181056,note_on,,0,0,1,,,,,,0,77,92
181056,note_off,,0,0,2,,,,,,0,53,64
181056,note_off,,64,0,1,,,,,,0,75,64
181056,note_off,,192,0,2,,,,,,0,56,64
181120,note_on,,0,0,1,,,,,,0,77,92
181120,note_off,,64,0,1,,,,,,0,77,64
181184,note_off,,64,0,1,,,,,,0,77,64
181184,note_on,,0,0,1,,,,,,0,79,92
181248,note_off,,64,0,1,,,,,,0,79,64
181248,note_on,,0,0,1,,,,,,0,80,92
181248,note_on,,0,0,2,,,,,,0,47,92
181248,note_off,,192,0,2,,,,,,0,48,64
181312,note_off,,64,0,2,,,,,,0,47,64
181312,note_off,,0,0,2,,,,,,0,50,64
181312,note_on,,0,0,2,,,,,,0,56,92
181312,note_off,,0,0,2,,,,,,0,53,64
181376,note_off,,64,0,2,,,,,,0,56,64
181376,note_on,,0,0,2,,,,,,0,55,92
181440,note_on,,0,0,2,,,,,,0,53,92
181440,note_off,,64,0,2,,,,,,0,55,64
181504,note_on,,0,0,2,,,,,,0,51,92
181504,note_off,,64,0,2,,,,,,0,53,64
181568,note_on,,0,0,2,,,,,,0,50,92
181568,note_off,,64,0,2,,,,,,0,51,64
181632,note_on,,0,0,2,,,,,,0,51,92
181632,note_off,,64,0,2,,,,,,0,50,64
181696,note_off,,64,0,2,,,,,,0,51,64
181696,note_on,,0,0,2,,,,,,0,47,92
181760,note_off,,64,0,2,,,,,,0,47,64
181760,note_on,,0,0,2,,,,,,0,50,92
181824,note_on,,0,0,2,,,,,,0,43,92
181824,note_off,,64,0,2,,,,,,0,50,64
181888,note_off,,640,0,1,,,,,,0,80,64
181888,note_on,,0,0,1,,,,,,0,79,92
181952,note_off,,64,0,1,,,,,,0,79,64
181952,note_on,,0,0,1,,,,,,0,77,92
182016,note_off,,64,0,1,,,,,,0,77,64
182016,note_on,,0,0,1,,,,,,0,79,92
182016,note_on,,0,0,2,,,,,,0,43,92
182016,note_on,,0,0,2,,,,,,0,48,92
182016,note_on,,0,0,2,,,,,,0,51,92
182016,note_off,,192,0,2,,,,,,0,43,64
182080,note_off,,64,0,1,,,,,,0,79,64
182080,note_on,,0,0,1,,,,,,0,80,92
182144,note_on,,0,0,1,,,,,,0,79,92
182144,note_off,,64,0,1,,,,,,0,80,64
182208,note_off,,192,0,2,,,,,,0,43,64
182208,note_on,,0,0,2,,,,,,0,47,92
182208,note_off,,0,0,2,,,,,,0,48,64
182208,note_on,,0,0,2,,,,,,0,55,92
182208,note_on,,0,0,2,,,,,,0,50,92
182208,note_on,,0,0,1,,,,,,0,77,92
182208,note_on,,0,0,2,,,,,,0,43,92
182208,note_off,,0,0,2,,,,,,0,51,64
182208,note_off,,64,0,1,,,,,,0,79,64
182272,note_on,,0,0,1,,,,,,0,75,92
182272,note_off,,64,0,1,,,,,,0,77,64
182336,note_on,,0,0,1,,,,,,0,74,92
182336,note_off,,64,0,1,,,,,,0,75,64
182400,note_off,,0,0,2,,,,,,0,47,64
182400,note_off,,64,0,1,,,,,,0,74,64
182400,note_on,,0,0,1,,,,,,0,75,92
182400,note_off,,192,0,2,,,,,,0,43,64
182400,note_on,,0,0,2,,,,,,0,48,92
182400,note_off,,0,0,2,,,,,,0,50,64
182592,note_on,,0,0,2,,,,,,0,55,92
182592,note_on,,0,0,2,,,,,,0,51,92
182592,note_on,,0,0,2,,,,,,0,48,92
182592,note_off,,0,0,2,,,,,,0,55,64
182592,note_off,,192,0,2,,,,,,0,48,64
182656,note_on,,0,0,1,,,,,,0,77,92
182656,note_off,,256,0,1,,,,,,0,75,64
182720,note_off,,64,0,1,,,,,,0,77,64
182720,note_on,,0,0,1,,,,,,0,75,92
182784,note_on,,0,0,2,,,,,,0,48,92
182784,note_off,,192,0,2,,,,,,0,55,64
182784,note_off,,64,0,1,,,,,,0,75,64
182784,note_on,,0,0,1,,,,,,0,74,92
182784,note_off,,0,0,2,,,,,,0,51,64
182784,note_off,,0,0,2,,,,,,0,48,64
182784,note_on,,0,0,2,,,,,,0,53,92
182784,note_on,,0,0,2,,,,,,0,56,92
182848,note_off,,64,0,1,,,,,,0,74,64
182848,note_on,,0,0,1,,,,,,0,72,92
182912,note_off,,64,0,1,,,,,,0,72,64
182912,note_on,,0,0,1,,,,,,0,71,92
182976,note_off,,64,0,1,,,,,,0,71,64
182976,note_on,,0,0,2,,,,,,0,48,92
182976,note_off,,0,0,2,,,,,,0,53,64
182976,note_off,,0,0,2,,,,,,0,48,64
182976,note_on,,0,0,2,,,,,,0,51,92
182976,note_on,,0,0,2,,,,,,0,55,92
182976,note_off,,192,0,2,,,,,,0,56,64
182976,note_on,,0,0,1,,,,,,0,72,92
183040,note_off,,64,0,1,,,,,,0,72,64
183040,note_on,,0,0,1,,,,,,0,74,92
183104,note_on,,0,0,1,,,,,,0,75,92
183104,note_off,,64,0,1,,,,,,0,74,64
183168,note_off,,0,0,2,,,,,,0,51,64
183168,note_off,,192,0,2,,,,,,0,55,64
183168,note_off,,0,0,2,,,,,,0,48,64
183168,note_on,,0,0,2,,,,,,0,49,92
183232,note_off,,128,0,1,,,,,,0,75,64
183232,note_on,,0,0,1,,,,,,0,77,92
183296,note_off,,64,0,1,,,,,,0,77,64
183296,note_on,,0,0,1,,,,,,0,79,92
183312,note_off,,144,0,2,,,,,,0,49,64
183312,note_on,,0,0,2,,,,,,0,48,92
183360,note_off,,48,0,2,,,,,,0,48,64
183360,note_on,,0,0,2,,,,,,0,46,92
183424,note_off,,128,0,1,,,,,,0,79,64
183424,note_on,,0,0,1,,,,,,0,80,92
183488,note_on,,0,0,1,,,,,,0,82,92
183488,note_off,,64,0,1,,,,,,0,80,64
183504,note_off,,144,0,2,,,,,,0,46,64
183504,note_on,,0,0,2,,,,,,0,44,92
183552,note_off,,48,0,2,,,,,,0,44,64
183552,note_on,,0,0,2,,,,,,0,43,92
183552,note_off,,64,0,1,,,,,,0,82,64
183552,note_on,,0,0,1,,,,,,0,82,92
183616,note_off,,64,0,1,,,,,,0,82,64
183616,note_on,,0,0,1,,,,,,0,72,92
183680,note_on,,0,0,1,,,,,,0,73,92
183680,note_off,,64,0,1,,,,,,0,72,64
183744,note_on,,0,0,2,,,,,,0,58,92
183744,note_on,,0,0,2,,,,,,0,55,92
183744,note_off,,192,0,2,,,,,,0,43,64
183808,note_off,,128,0,1,,,,,,0,73,64
183808,note_on,,0,0,1,,,,,,0,72,92
183872,note_off,,64,0,1,,,,,,0,72,64
183872,note_on,,0,0,1,,,,,,0,73,92
183936,note_on,,0,0,2,,,,,,0,55,92
183936,note_on,,0,0,2,,,,,,0,58,92
183936,note_off,,0,0,2,,,,,,0,58,64
183936,note_off,,192,0,2,,,,,,0,55,64
183936,note_on,,0,0,1,,,,,,0,75,92
183936,note_off,,64,0,1,,,,,,0,73,64
184000,note_off,,64,0,1,,,,,,0,75,64
184000,note_on,,0,0,1,,,,,,0,72,92
184064,note_off,,64,0,1,,,,,,0,72,64
184064,note_on,,0,0,1,,,,,,0,73,92
184128,note_on,,0,0,2,,,,,,0,58,92
184128,note_off,,192,0,2,,,,,,0,55,64
184128,note_off,,0,0,2,,,,,,0,58,64
184128,note_on,,0,0,2,,,,,,0,51,92
184128,note_off,,64,0,1,,,,,,0,73,64
184128,note_on,,0,0,1,,,,,,0,67,92
184192,note_on,,0,0,1,,,,,,0,70,92
184192,note_off,,64,0,1,,,,,,0,67,64
184256,note_on,,0,0,1,,,,,,0,73,92
184256,note_off,,64,0,1,,,,,,0,70,64
184320,note_off,,192,0,2,,,,,,0,58,64
184320,note_off,,64,0,1,,,,,,0,73,64
184320,note_on,,0,0,1,,,,,,0,77,92
184320,note_off,,0,0,2,,,,,,0,51,64
184320,note_on,,0,0,2,,,,,,0,55,92
184320,note_on,,0,0,2,,,,,,0,51,92
184320,note_on,,0,0,2,,,,,,0,58,92
184512,note_on,,0,0,2,,,,,,0,58,92
184512,note_off,,0,0,2,,,,,,0,55,64
184512,note_off,,192,0,2,,,,,,0,58,64
184512,note_off,,0,0,2,,,,,,0,51,64
184512,note_on,,0,0,2,,,,,,0,51,92
184512,note_on,,0,0,2,,,,,,0,55,92
184576,note_off,,256,0,1,,,,,,0,77,64
184576,note_on,,0,0,1,,,,,,0,75,92
184640,note_on,,0,0,1,,,,,,0,73,92
184640,note_off,,64,0,1,,,,,,0,75,64
184704,note_on,,0,0,1,,,,,,0,72,92
184704,note_off,,64,0,1,,,,,,0,73,64
184704,note_off,,0,0,2,,,,,,0,55,64
184704,note_off,,192,0,2,,,,,,0,58,64
184704,note_off,,0,0,2,,,,,,0,51,64
184704,note_on,,0,0,2,,,,,,0,56,92
184704,note_on,,0,0,2,,,,,,0,54,92
184704,note_on,,0,0,2,,,,,,0,51,92
184768,note_on,,0,0,1,,,,,,0,65,92
184768,note_off,,64,0,1,,,,,,0,72,64
184832,note_off,,64,0,1,,,,,,0,65,64
184832,note_on,,0,0,1,,,,,,0,66,92
184896,note_on,,0,0,2,,,,,,0,56,92
184896,note_off,,192,0,2,,,,,,0,56,64
184896,note_off,,0,0,2,,,,,,0,54,64
184896,note_off,,0,0,2,,,,,,0,51,64
184896,note_on,,0,0,2,,,,,,0,48,92
184896,note_on,,0,0,2,,,,,,0,51,92
184960,note_off,,128,0,1,,,,,,0,66,64
184960,note_on,,0,0,1,,,,,,0,65,92
185024,note_off,,64,0,1,,,,,,0,65,64
185024,note_on,,0,0,1,,,,,,0,66,92
185088,note_off,,64,0,1,,,,,,0,66,64
185088,note_on,,0,0,2,,,,,,0,56,92
185088,note_on,,0,0,1,,,,,,0,68,92
185088,note_on,,0,0,2,,,,,,0,48,92
185088,note_off,,0,0,2,,,,,,0,51,64
185088,note_off,,192,0,2,,,,,,0,56,64
185088,note_on,,0,0,2,,,,,,0,51,92
185088,note_off,,0,0,2,,,,,,0,48,64
185152,note_on,,0,0,1,,,,,,0,65,92
185152,note_off,,64,0,1,,,,,,0,68,64
185216,note_off,,64,0,1,,,,,,0,65,64
185216,note_on,,0,0,1,,,,,,0,66,92
185280,note_off,,0,0,2,,,,,,0,51,64
185280,note_off,,192,0,2,,,,,,0,56,64
185280,note_off,,64,0,1,,,,,,0,66,64
185280,note_on,,0,0,2,,,,,,0,56,92
185280,note_on,,0,0,2,,,,,,0,51,92
185280,note_on,,0,0,2,,,,,,0,44,92
185280,note_off,,0,0,2,,,,,,0,48,64
185280,note_on,,0,0,1,,,,,,0,60,92
185344,note_off,,64,0,1,,,,,,0,60,64
185344,note_on,,0,0,1,,,,,,0,63,92
185408,note_on,,0,0,1,,,,,,0,66,92
185408,note_off,,64,0,1,,,,,,0,63,64
185472,note_off,,0,0,2,,,,,,0,51,64
185472,note_off,,64,0,1,,,,,,0,66,64
185472,note_on,,0,0,2,,,,,,0,51,92
185472,note_on,,0,0,2,,,,,,0,48,92
185472,note_on,,0,0,2,,,,,,0,44,92
185472,note_on,,0,0,1,,,,,,0,70,92
185472,note_off,,192,0,2,,,,,,0,56,64
185472,note_off,,0,0,2,,,,,,0,44,64
185664,note_on,,0,0,2,,,,,,0,48,92
185664,note_off,,0,0,2,,,,,,0,48,64
185664,note_on,,0,0,2,,,,,,0,51,92
185664,note_off,,192,0,2,,,,,,0,51,64
185664,note_off,,0,0,2,,,,,,0,44,64
185664,note_on,,0,0,2,,,,,,0,44,92
185728,note_off,,256,0,1,,,,,,0,70,64
185728,note_on,,0,0,1,,,,,,0,68,92
185792,note_off,,64,0,1,,,,,,0,68,64
185792,note_on,,0,0,1,,,,,,0,66,92
185856,note_on,,0,0,2,,,,,,0,49,92
185856,note_off,,0,0,2,,,,,,0,48,64
185856,note_off,,0,0,2,,,,,,0,44,64
185856,note_on,,0,0,1,,,,,,0,65,92
185856,note_off,,64,0,1,,,,,,0,66,64
185856,note_off,,192,0,2,,,,,,0,51,64
185920,note_on,,0,0,1,,,,,,0,66,92
185920,note_off,,64,0,1,,,,,,0,65,64
185984,note_off,,64,0,1,,,,,,0,66,64
185984,note_on,,0,0,1,,,,,,0,68,92
186048,note_on,,0,0,2,,,,,,0,49,92
186048,note_on,,0,0,2,,,,,,0,53,92
186048,note_off,,192,0,2,,,,,,0,49,64
186048,note_on,,0,0,1,,,,,,0,70,92
186048,note_off,,64,0,1,,,,,,0,68,64
186112,note_off,,64,0,1,,,,,,0,70,64
186112,note_on,,0,0,1,,,,,,0,72,92
186176,note_on,,0,0,1,,,,,,0,73,92
186176,note_off,,64,0,1,,,,,,0,72,64
186240,note_on,,0,0,1,,,,,,0,67,92
186240,note_on,,0,0,2,,,,,,0,49,92
186240,note_on,,0,0,2,,,,,,0,58,92
186240,note_on,,0,0,2,,,,,,0,51,92
186240,note_off,,0,0,2,,,,,,0,53,64
186240,note_off,,192,0,2,,,,,,0,49,64
186240,note_off,,64,0,1,,,,,,0,73,64
186304,note_off,,64,0,1,,,,,,0,67,64
186304,note_on,,0,0,1,,,,,,0,68,92
186368,note_on,,0,0,1,,,,,,0,70,92
186368,note_off,,64,0,1,,,,,,0,68,64
186432,note_on,,0,0,1,,,,,,0,63,92
186432,note_off,,64,0,1,,,,,,0,70,64
186432,note_off,,192,0,2,,,,,,0,49,64
186432,note_off,,0,0,2,,,,,,0,58,64
186432,note_off,,0,0,2,,,,,,0,51,64
186432,note_on,,0,0,2,,,,,,0,48,92
186432,note_on,,0,0,2,,,,,,0,51,92
186432,note_on,,0,0,2,,,,,,0,56,92
186432,note_on,,0,0,2,,,,,,0,60,92
186576,note_on,,0,0,1,,,,,,0,68,92
186576,note_off,,144,0,1,,,,,,0,63,64
186624,note_on,,0,0,2,,,,,,0,60,92
186624,note_on,,0,0,2,,,,,,0,51,92
186624,note_on,,0,0,2,,,,,,0,56,92
186624,note_off,,0,0,2,,,,,,0,48,64
186624,note_off,,0,0,2,,,,,,0,56,64
186624,note_off,,192,0,2,,,,,,0,60,64
186624,note_on,,0,0,1,,,,,,0,63,92
186624,note_off,,48,0,1,,,,,,0,68,64
186624,note_off,,0,0,2,,,,,,0,51,64
186816,note_on,,0,0,1,,,,,,0,61,92
186816,note_on,,0,0,2,,,,,,0,58,92
186816,note_on,,0,0,2,,,,,,0,55,92
186816,note_off,,192,0,1,,,,,,0,63,64
186816,note_off,,0,0,2,,,,,,0,51,64
186816,note_on,,0,0,2,,,,,,0,51,92
186816,note_off,,0,0,2,,,,,,0,56,64
186816,note_off,,192,0,2,,,,,,0,60,64
186832,note_off,,16,0,1,,,,,,0,61,64
186832,note_on,,0,0,1,,,,,,0,63,92
186848,note_on,,0,0,1,,,,,,0,61,92
186848,note_off,,16,0,1,,,,,,0,63,64
186880,note_on,,0,0,1,,,,,,0,60,92
186880,note_off,,32,0,1,,,,,,0,61,64
186944,note_on,,0,0,1,,,,,,0,61,92
186944,note_off,,64,0,1,,,,,,0,60,64
187008,note_off,,64,0,1,,,,,,0,61,64
187008,note_off,,192,0,2,,,,,,0,58,64
187008,note_off,,0,0,2,,,,,,0,55,64
187008,note_on,,0,0,2,,,,,,0,44,92
187008,note_on,,0,0,1,,,,,,0,60,92
187008,note_on,,0,0,2,,,,,,0,56,92
187008,note_on,,0,0,2,,,,,,0,51,92
187008,note_off,,0,0,2,,,,,,0,51,64
187072,note_on,,0,0,2,,,,,,0,55,92
187072,note_off,,0,0,2,,,,,,0,44,64
187072,note_off,,0,0,2,,,,,,0,51,64
187072,note_off,,64,0,2,,,,,,0,56,64
187136,note_on,,0,0,2,,,,,,0,56,92
187136,note_off,,64,0,2,,,,,,0,55,64
187200,note_on,,0,0,2,,,,,,0,49,92
187200,note_off,,64,0,2,,,,,,0,56,64
187264,note_on,,0,0,2,,,,,,0,51,92
187264,note_off,,64,0,2,,,,,,0,49,64
187328,note_on,,0,0,2,,,,,,0,46,92
187328,note_off,,64,0,2,,,,,,0,51,64
187392,note_off,,64,0,2,,,,,,0,46,64
187392,note_on,,0,0,2,,,,,,0,48,92
187456,note_on,,0,0,2,,,,,,0,43,92
187456,note_off,,64,0,2,,,,,,0,48,64
187520,note_on,,0,0,2,,,,,,0,44,92
187520,note_off,,64,0,2,,,,,,0,43,64
187584,note_on,,0,0,2,,,,,,0,40,92
187584,note_off,,64,0,2,,,,,,0,44,64
187648,note_off,,64,0,2,,,,,,0,40,64
187648,note_on,,0,0,2,,,,,,0,41,92
187712,note_on,,0,0,2,,,,,,0,43,92
187712,note_off,,64,0,2,,,,,,0,41,64
187776,note_off,,64,0,2,,,,,,0,43,64
187776,note_on,,0,0,2,,,,,,0,36,92
187840,note_off,,832,0,1,,,,,,0,60,64
187840,note_on,,0,0,1,,,,,,0,73,92
187904,note_off,,64,0,1,,,,,,0,73,64
187904,note_on,,0,0,1,,,,,,0,72,92
187968,note_off,,192,0,2,,,,,,0,36,64
187968,note_on,,0,0,2,,,,,,0,40,92
187968,note_on,,0,0,1,,,,,,0,70,92
187968,note_off,,64,0,1,,,,,,0,72,64
188032,note_on,,0,0,1,,,,,,0,68,92
188032,note_off,,64,0,1,,,,,,0,70,64
188096,note_on,,0,0,1,,,,,,0,67,92
188096,note_off,,64,0,1,,,,,,0,68,64
188160,note_on,,0,0,1,,,,,,0,68,92
188160,note_on,,0,0,2,,,,,,0,41,92
188160,note_off,,192,0,2,,,,,,0,40,64
188160,set_tempo,1578940,32256,1,0,,,,,,,,
188160,note_off,,64,0,1,,,,,,0,67,64
188224,note_off,,64,0,1,,,,,,0,68,64
188224,note_on,,0,0,1,,,,,,0,67,92
188288,note_on,,0,0,1,,,,,,0,65,92
188288,note_off,,64,0,1,,,,,,0,67,64
188352,note_on,,0,0,2,,,,,,0,53,92
188352,note_off,,64,0,1,,,,,,0,65,64
188352,note_off,,192,0,2,,,,,,0,41,64
188352,note_on,,0,0,1,,,,,,0,73,92
188352,note_on,,0,0,2,,,,,,0,56,92
188416,note_off,,64,0,1,,,,,,0,73,64
188416,note_on,,0,0,1,,,,,,0,65,92
188480,note_off,,64,0,1,,,,,,0,65,64
188480,note_on,,0,0,1,,,,,,0,67,92
188544,note_off,,192,0,2,,,,,,0,53,64
188544,note_on,,0,0,2,,,,,,0,46,92
188544,note_off,,64,0,1,,,,,,0,67,64
188544,note_off,,0,0,2,,,,,,0,56,64
188544,note_on,,0,0,1,,,,,,0,68,92
188608,note_on,,0,0,1,,,,,,0,67,92
188608,note_off,,64,0,1,,,,,,0,68,64
188672,note_off,,64,0,1,,,,,,0,67,64
188672,note_on,,0,0,1,,,,,,0,65,92
188736,note_off,,192,0,2,,,,,,0,46,64
188736,note_on,,0,0,2,,,,,,0,39,92
188736,note_on,,0,0,1,,,,,,0,67,92
188736,note_off,,64,0,1,,,,,,0,65,64
188800,note_on,,0,0,1,,,,,,0,65,92
188800,note_off,,64,0,1,,,,,,0,67,64
188864,note_on,,0,0,1,,,,,,0,63,92
188864,note_off,,64,0,1,,,,,,0,65,64
188928,note_on,,0,0,1,,,,,,0,72,92
188928,note_off,,64,0,1,,,,,,0,63,64
188928,note_on,,0,0,2,,,,,,0,51,92
188928,note_on,,0,0,2,,,,,,0,55,92
188928,note_off,,192,0,2,,,,,,0,39,64
188992,note_on,,0,0,1,,,,,,0,63,92
188992,note_off,,64,0,1,,,,,,0,72,64
189056,note_off,,64,0,1,,,,,,0,63,64
189056,note_on,,0,0,1,,,,,,0,65,92
189120,note_off,,64,0,1,,,,,,0,65,64
189120,note_on,,0,0,1,,,,,,0,66,92
189120,note_on,,0,0,2,,,,,,0,44,92
189120,note_off,,0,0,2,,,,,,0,55,64
189120,note_off,,192,0,2,,,,,,0,51,64
189184,note_off,,64,0,1,,,,,,0,66,64
189184,note_on,,0,0,1,,,,,,0,65,92
189248,note_off,,64,0,1,,,,,,0,65,64
189248,note_on,,0,0,1,,,,,,0,63,92
189312,note_on,,0,0,2,,,,,,0,49,92
189312,note_off,,192,0,2,,,,,,0,44,64
189312,note_off,,64,0,1,,,,,,0,63,64
189312,note_on,,0,0,1,,,,,,0,65,92
189376,note_on,,0,0,1,,,,,,0,67,92
189376,note_off,,64,0,1,,,,,,0,65,64
189440,note_off,,64,0,1,,,,,,0,67,64
189440,note_on,,0,0,1,,,,,,0,69,92
189504,note_off,,64,0,1,,,,,,0,69,64
189504,note_on,,0,0,1,,,,,,0,70,92
189504,note_on,,192,0,2,,,,,,0,53,92
189568,note_off,,64,0,1,,,,,,0,70,64
189568,note_on,,0,0,1,,,,,,0,72,92
189632,note_off,,64,0,1,,,,,,0,72,64
189632,note_on,,0,0,1,,,,,,0,73,92
189696,note_on,,0,0,1,,,,,,0,75,92
189696,note_off,,64,0,1,,,,,,0,73,64
189696,note_on,,192,0,2,,,,,,0,57,92
189760,note_on,,0,0,1,,,,,,0,73,92
189760,note_off,,64,0,1,,,,,,0,75,64
189824,note_on,,0,0,1,,,,,,0,72,92
189824,note_off,,64,0,1,,,,,,0,73,64
189888,note_on,,0,0,1,,,,,,0,73,92
189888,note_off,,64,0,1,,,,,,0,72,64
189888,note_on,,0,0,2,,,,,,0,58,92
189888,note_off,,192,0,2,,,,,,0,57,64
189952,note_on,,0,0,1,,,,,,0,72,92
189952,note_off,,64,0,1,,,,,,0,73,64
190016,note_off,,64,0,1,,,,,,0,72,64
190016,note_on,,0,0,1,,,,,,0,70,92
190080,note_on,,0,0,2,,,,,,0,49,92
190080,note_off,,192,0,2,,,,,,0,58,64
190080,note_on,,0,0,2,,,,,,0,58,92
190080,note_off,,0,0,2,,,,,,0,49,64
190080,note_off,,0,0,2,,,,,,0,53,64
190080,note_off,,64,0,1,,,,,,0,70,64
190080,note_on,,0,0,1,,,,,,0,78,92
190144,note_on,,0,0,1,,,,,,0,77,92
190144,note_off,,64,0,1,,,,,,0,78,64
190208,note_on,,0,0,1,,,,,,0,76,92
190208,note_off,,64,0,1,,,,,,0,77,64
190272,note_on,,0,0,1,,,,,,0,77,92
190272,note_off,,64,0,1,,,,,,0,76,64
190272,note_off,,0,0,2,,,,,,0,58,64
190272,note_off,,192,0,2,,,,,,0,49,64
190272,note_on,,0,0,2,,,,,,0,56,92
190272,note_on,,0,0,2,,,,,,0,48,92
190464,note_off,,192,0,2,,,,,,0,48,64
190464,note_off,,0,0,2,,,,,,0,56,64
190464,note_on,,0,0,2,,,,,,0,55,92
190464,note_on,,0,0,2,,,,,,0,47,92
190528,note_on,,0,0,1,,,,,,0,80,92
190528,note_off,,256,0,1,,,,,,0,77,64
190592,note_off,,64,0,1,,,,,,0,80,64
190592,note_on,,0,0,1,,,,,,0,79,92
190656,note_on,,0,0,2,,,,,,0,56,92
190656,note_on,,0,0,1,,,,,,0,77,92
190656,note_on,,0,0,2,,,,,,0,48,92
190656,note_off,,64,0,1,,,,,,0,79,64
190656,note_off,,192,0,2,,,,,,0,55,64
190656,note_off,,0,0,2,,,,,,0,47,64
190720,note_on,,0,0,1,,,,,,0,76,92
190720,note_off,,64,0,1,,,,,,0,77,64
190784,note_off,,64,0,1,,,,,,0,76,64
190784,note_on,,0,0,1,,,,,,0,77,92
190848,note_on,,0,0,1,,,,,,0,71,92
190848,note_off,,64,0,1,,,,,,0,77,64
190848,note_off,,192,0,2,,,,,,0,56,64
190848,note_off,,0,0,2,,,,,,0,48,64
190848,note_on,,0,0,2,,,,,,0,56,92
190848,note_on,,0,0,2,,,,,,0,53,92
190848,note_on,,0,0,2,,,,,,0,50,92
190912,note_on,,0,0,1,,,,,,0,72,92
190912,note_off,,64,0,1,,,,,,0,71,64
190976,note_on,,0,0,1,,,,,,0,74,92
190976,note_off,,64,0,1,,,,,,0,72,64
191040,note_on,,0,0,1,,,,,,0,65,92
191040,note_off,,64,0,1,,,,,,0,74,64
191040,note_off,,192,0,2,,,,,,0,56,64
191040,note_off,,0,0,2,,,,,,0,53,64
191040,note_on,,0,0,2,,,,,,0,43,92
191040,note_off,,0,0,2,,,,,,0,50,64
191104,note_off,,64,0,1,,,,,,0,65,64
191104,note_on,,0,0,1,,,,,,0,67,92
191168,note_on,,0,0,1,,,,,,0,68,92
191168,note_off,,64,0,1,,,,,,0,67,64
191232,note_on,,0,0,1,,,,,,0,67,92
191232,note_off,,64,0,1,,,,,,0,68,64
191232,note_off,,192,0,2,,,,,,0,43,64
191232,note_on,,0,0,2,,,,,,0,50,92
191232,note_on,,0,0,2,,,,,,0,47,92
191232,note_on,,0,0,2,,,,,,0,43,92
191296,note_on,,0,0,1,,,,,,0,65,92
191296,note_off,,64,0,1,,,,,,0,67,64
191360,note_off,,64,0,1,,,,,,0,65,64
191360,note_on,,0,0,1,,,,,,0,64,92
191424,note_off,,192,0,2,,,,,,0,43,64
191424,note_off,,64,0,1,,,,,,0,64,64
191424,note_off,,0,0,2,,,,,,0,50,64
191424,note_on,,0,0,1,,,,,,0,65,92
191424,note_off,,0,0,2,,,,,,0,47,64
191424,note_on,,0,0,2,,,,,,0,50,92
191424,note_on,,0,0,2,,,,,,0,43,92
191424,note_on,,0,0,2,,,,,,0,47,92
191488,note_on,,0,0,1,,,,,,0,64,92
191488,note_off,,64,0,1,,,,,,0,65,64
191552,note_on,,0,0,1,,,,,,0,65,92
191552,note_off,,64,0,1,,,,,,0,64,64
191616,note_off,,192,0,2,,,,,,0,43,64
191616,note_off,,0,0,2,,,,,,0,50,64
191616,note_on,,0,0,2,,,,,,0,48,92
191616,note_off,,0,0,2,,,,,,0,47,64
191616,set_tempo,1714280,3456,1,0,,,,,,,,
191680,note_on,,0,0,1,,,,,,0,62,92
191680,note_off,,128,0,1,,,,,,0,65,64
191744,note_on,,0,0,1,,,,,,0,65,92
191744,note_off,,64,0,1,,,,,,0,62,64
191808,note_off,,64,0,1,,,,,,0,65,64
191808,note_on,,0,0,1,,,,,,0,68,92
191808,note_on,,0,0,2,,,,,,0,48,92
191808,note_on,,0,0,2,,,,,,0,53,92
191808,note_off,,192,0,2,,,,,,0,48,64
191872,note_off,,64,0,1,,,,,,0,68,64
191872,note_on,,0,0,1,,,,,,0,71,92
191936,note_off,,64,0,1,,,,,,0,71,64
191936,note_on,,0,0,1,,,,,,0,72,92
192000,note_on,,0,0,2,,,,,,0,48,92
192000,note_off,,0,0,2,,,,,,0,53,64
192000,note_on,,0,0,2,,,,,,0,53,92
192000,note_on,,0,0,1,,,,,,0,74,92
192000,note_on,,0,0,2,,,,,,0,56,92
192000,note_off,,192,0,2,,,,,,0,48,64
192000,note_on,,0,0,2,,,,,,0,59,92
192000,note_off,,64,0,1,,,,,,0,72,64
192144,note_on,,0,0,1,,,,,,0,65,92
192144,note_off,,144,0,1,,,,,,0,74,64
192192,note_off,,192,0,2,,,,,,0,48,64
192192,set_tempo,2000000,576,1,0,,,,,,,,
192192,note_on,,0,0,1,,,,,,0,64,92
192192,note_off,,0,0,2,,,,,,0,53,64
192192,note_on,,0,0,2,,,,,,0,55,92
192192,note_on,,0,0,2,,,,,,0,60,92
192192,note_on,,0,0,2,,,,,,0,48,92
192192,note_off,,0,0,2,,,,,,0,59,64
192192,note_off,,0,0,2,,,,,,0,56,64
192192,note_off,,48,0,1,,,,,,0,65,64
192768,note_off,,576,0,1,,,,,,0,64,64
192768,note_off,,576,0,2,,,,,,0,60,64
192768,note_off,,0,0,2,,,,,,0,48,64
192768,note_off,,0,0,2,,,,,,0,55,64
193344,note_on,,576,0,1,,,,,,0,72,92
193344,set_tempo,705880,1152,1,0,,,,,,,,
193344,time_signature,,0,1,0,6,8,24,8,,,,
193440,note_off,,96,0,1,,,,,,0,72,64
193440,note_on,,0,0,1,,,,,,0,74,92
193536,note_off,,96,0,1,,,,,,0,74,64
193536,note_on,,0,0,1,,,,,,0,72,92
193632,note_off,,96,0,1,,,,,,0,72,64
193632,note_on,,0,0,1,,,,,,0,70,92
193728,note_off,,96,0,1,,,,,,0,70,64
193728,note_on,,0,0,1,,,,,,0,69,92
193824,note_off,,96,0,1,,,,,,0,69,64
193824,note_on,,0,0,1,,,,,,0,67,92
193920,note_off,,96,0,1,,,,,,0,67,64
193920,note_on,,0,0,1,,,,,,0,65,92
194016,note_on,,0,0,1,,,,,,0,64,92
194016,note_off,,96,0,1,,,,,,0,65,64
194112,note_on,,0,0,1,,,,,,0,65,92
194112,note_off,,96,0,1,,,,,,0,64,64
194208,note_on,,0,0,1,,,,,,0,67,92
194208,note_off,,96,0,1,,,,,,0,65,64
194304,note_on,,0,0,1,,,,,,0,69,92
194304,note_off,,96,0,1,,,,,,0,67,64
194400,note_off,,96,0,1,,,,,,0,69,64
194400,note_on,,0,0,1,,,,,,0,70,92
194496,note_off,,96,0,1,,,,,,0,70,64
194496,note_on,,0,0,1,,,,,,0,72,92
194592,note_off,,96,0,1,,,,,,0,72,64
194592,note_on,,0,0,1,,,,,,0,69,92
194688,note_off,,96,0,1,,,,,,0,69,64
194688,note_on,,0,0,1,,,,,,0,65,92
194784,note_off,,96,0,1,,,,,,0,65,64
194784,note_on,,0,0,1,,,,,,0,72,92
194880,note_on,,0,0,1,,,,,,0,74,92
194880,note_off,,96,0,1,,,,,,0,72,64
194976,note_off,,96,0,1,,,,,,0,74,64
194976,note_on,,0,0,1,,,,,,0,70,92
195072,note_off,,96,0,1,,,,,,0,70,64
195072,note_on,,0,0,1,,,,,,0,72,92
195168,note_on,,0,0,1,,,,,,0,69,92
195168,note_off,,96,0,1,,,,,,0,72,64
195264,note_on,,0,0,1,,,,,,0,65,92
195264,note_off,,96,0,1,,,,,,0,69,64
195360,note_on,,0,0,1,,,,,,0,74,92
195360,note_off,,96,0,1,,,,,,0,65,64
195456,note_on,,0,0,1,,,,,,0,75,92
195456,note_off,,96,0,1,,,,,,0,74,64
195552,note_on,,0,0,1,,,,,,0,72,92
195552,note_off,,96,0,1,,,,,,0,75,64
195648,note_off,,96,0,1,,,,,,0,72,64
195648,note_on,,0,0,1,,,,,,0,74,92
195744,note_on,,0,0,1,,,,,,0,70,92
195744,note_off,,96,0,1,,,,,,0,74,64
195840,note_off,,96,0,1,,,,,,0,70,64
195840,note_on,,0,0,1,,,,,,0,65,92
195936,note_off,,96,0,1,,,,,,0,65,64
195936,note_on,,0,0,1,,,,,,0,76,92
196032,note_off,,96,0,1,,,,,,0,76,64
196032,note_on,,0,0,1,,,,,,0,77,92
196128,note_off,,96,0,1,,,,,,0,77,64
196128,note_on,,0,0,1,,,,,,0,74,92
196224,note_off,,96,0,1,,,,,,0,74,64
196224,note_on,,0,0,1,,,,,,0,76,92
196320,note_off,,96,0,1,,,,,,0,76,64
196320,note_on,,0,0,1,,,,,,0,77,92
196416,note_on,,0,0,1,,,,,,0,76,92
196416,note_off,,96,0,1,,,,,,0,77,64
196512,note_on,,0,0,1,,,,,,0,74,92
196512,note_off,,96,0,1,,,,,,0,76,64
196608,note_off,,96,0,1,,,,,,0,74,64
196608,note_on,,0,0,1,,,,,,0,72,92
196704,note_off,,96,0,1,,,,,,0,72,64
196704,note_on,,0,0,1,,,,,,0,70,92
196800,note_on,,0,0,1,,,,,,0,65,92
196800,note_on,,0,0,1,,,,,,0,69,92
196800,note_off,,96,0,1,,,,,,0,70,64
196896,note_off,,96,0,1,,,,,,0,69,64
196896,note_off,,0,0,1,,,,,,0,65,64
196896,note_on,,0,0,1,,,,,,0,69,92
196896,note_on,,0,0,1,,,,,,0,77,92
196992,note_on,,0,0,1,,,,,,0,67,92
196992,note_on,,0,0,1,,,,,,0,71,92
196992,note_off,,96,0,1,,,,,,0,77,64
196992,note_off,,0,0,1,,,,,,0,69,64
197088,note_on,,0,0,1,,,,,,0,65,92
197088,note_off,,96,0,1,,,,,,0,67,64
197184,note_off,,96,0,1,,,,,,0,65,64
197184,note_on,,0,0,1,,,,,,0,64,92
197280,note_off,,0,0,1,,,,,,0,71,64
197280,note_on,,0,0,1,,,,,,0,71,92
197280,note_on,,0,0,1,,,,,,0,62,92
197280,note_off,,96,0,1,,,,,,0,64,64
197376,note_off,,96,0,1,,,,,,0,62,64
197376,note_off,,0,0,1,,,,,,0,71,64
197376,note_on,,0,0,1,,,,,,0,72,92
197376,note_on,,0,0,1,,,,,,0,60,92
197472,note_off,,96,0,1,,,,,,0,60,64
197472,note_on,,0,0,1,,,,,,0,59,92
197568,note_off,,96,0,1,,,,,,0,59,64
197568,note_on,,0,0,1,,,,,,0,60,92
197664,note_on,,0,0,1,,,,,,0,71,92
197664,note_off,,96,0,1,,,,,,0,60,64
197664,note_on,,0,0,1,,,,,,0,62,92
197664,note_off,,0,0,1,,,,,,0,72,64
197760,note_off,,96,0,1,,,,,,0,62,64
197760,note_off,,0,0,1,,,,,,0,71,64
197760,note_on,,0,0,1,,,,,,0,72,92
197760,note_on,,0,0,1,,,,,,0,64,92
197856,note_on,,0,0,1,,,,,,0,65,92
197856,note_off,,0,0,1,,,,,,0,72,64
197856,note_off,,96,0,1,,,,,,0,64,64
197856,note_on,,0,0,1,,,,,,0,74,92
197952,note_off,,96,0,1,,,,,,0,65,64
197952,note_off,,0,0,1,,,,,,0,74,64
197952,note_on,,0,0,1,,,,,,0,76,92
197952,note_on,,0,0,1,,,,,,0,67,92
198048,note_off,,96,0,1,,,,,,0,67,64
198048,note_on,,0,0,1,,,,,,0,64,92
198144,note_off,,96,0,1,,,,,,0,64,64
198144,note_on,,0,0,1,,,,,,0,60,92
198240,note_off,,96,0,1,,,,,,0,60,64
198240,note_on,,0,0,1,,,,,,0,67,92
198336,note_off,,0,0,1,,,,,,0,76,64
198336,note_on,,0,0,1,,,,,,0,77,92
198336,note_on,,0,0,1,,,,,,0,69,92
198336,note_off,,96,0,1,,,,,,0,67,64
198432,note_off,,96,0,1,,,,,,0,69,64
198432,note_on,,0,0,1,,,,,,0,65,92
198528,note_off,,96,0,1,,,,,,0,65,64
198528,note_on,,0,0,1,,,,,,0,67,92
198624,note_on,,0,0,1,,,,,,0,64,92
198624,note_off,,96,0,1,,,,,,0,67,64
198720,note_on,,0,0,1,,,,,,0,60,92
198720,note_on,,0,0,1,,,,,,0,76,92
198720,note_off,,0,0,1,,,,,,0,77,64
198720,note_off,,96,0,1,,,,,,0,64,64
198816,note_off,,0,0,1,,,,,,0,76,64
198816,note_on,,0,0,1,,,,,,0,77,92
198816,note_on,,0,0,1,,,,,,0,69,92
198816,note_off,,96,0,1,,,,,,0,60,64
198912,note_off,,96,0,1,,,,,,0,69,64
198912,note_off,,0,0,1,,,,,,0,77,64
198912,note_on,,0,0,1,,,,,,0,79,92
198912,note_on,,0,0,1,,,,,,0,70,92
199008,note_on,,0,0,1,,,,,,0,67,92
199008,note_off,,96,0,1,,,,,,0,70,64
199104,note_off,,96,0,1,,,,,,0,67,64
199104,note_on,,0,0,1,,,,,,0,69,92
199200,note_off,,96,0,1,,,,,,0,69,64
199200,note_on,,0,0,1,,,,,,0,65,92
199296,note_off,,96,0,1,,,,,,0,65,64
199296,note_off,,0,0,1,,,,,,0,79,64
199296,note_on,,0,0,1,,,,,,0,77,92
199296,note_on,,0,0,1,,,,,,0,60,92
199392,note_off,,0,0,1,,,,,,0,77,64
199392,note_on,,0,0,1,,,,,,0,79,92
199392,note_on,,0,0,1,,,,,,0,71,92
199392,note_off,,96,0,1,,,,,,0,60,64
199488,note_on,,0,0,1,,,,,,0,72,92
199488,note_on,,0,0,1,,,,,,0,81,92
199488,note_off,,0,0,1,,,,,,0,79,64
199488,note_off,,96,0,1,,,,,,0,71,64
199584,note_on,,0,0,1,,,,,,0,69,92
199584,note_off,,96,0,1,,,,,,0,72,64
199680,note_on,,0,0,1,,,,,,0,71,92
199680,note_off,,96,0,1,,,,,,0,69,64
199776,note_on,,0,0,1,,,,,,0,72,92
199776,note_off,,96,0,1,,,,,,0,71,64
199872,note_off,,0,0,1,,,,,,0,81,64
199872,note_on,,0,0,1,,,,,,0,79,92
199872,note_off,,96,0,1,,,,,,0,72,64
199872,note_on,,0,0,1,,,,,,0,71,92
199968,note_off,,0,0,1,,,,,,0,79,64
199968,note_on,,0,0,1,,,,,,0,77,92
199968,note_on,,0,0,1,,,,,,0,69,92
199968,note_off,,96,0,1,,,,,,0,71,64
200064,note_off,,0,0,1,,,,,,0,77,64
200064,note_off,,96,0,1,,,,,,0,69,64
200064,note_on,,0,0,1,,,,,,0,76,92
200064,note_on,,0,0,1,,,,,,0,67,92
200160,note_off,,96,0,1,,,,,,0,67,64
200160,note_off,,0,0,1,,,,,,0,76,64
200160,note_on,,0,0,1,,,,,,0,74,92
200160,note_on,,0,0,1,,,,,,0,65,92
200256,note_on,,0,0,1,,,,,,0,67,92
200256,note_on,,7488,0,2,,,,,,0,60,92
200256,note_on,,0,0,1,,,,,,0,76,92
200256,note_off,,96,0,1,,,,,,0,65,64
200256,note_off,,0,0,1,,,,,,0,74,64
200352,note_off,,96,0,2,,,,,,0,60,64
200352,note_on,,0,0,2,,,,,,0,62,92
200448,note_off,,192,0,1,,,,,,0,76,64
200448,note_off,,0,0,1,,,,,,0,67,64
200448,note_on,,0,0,1,,,,,,0,69,92
200448,note_on,,0,0,1,,,,,,0,77,92
200448,note_off,,96,0,2,,,,,,0,62,64
200448,note_on,,0,0,2,,,,,,0,60,92
200544,note_off,,96,0,2,,,,,,0,60,64
200544,note_on,,0,0,2,,,,,,0,58,92
200640,note_off,,192,0,1,,,,,,0,77,64
200640,note_on,,0,0,1,,,,,,0,79,92
200640,note_off,,0,0,1,,,,,,0,69,64
200640,note_on,,0,0,1,,,,,,0,70,92
200640,note_on,,0,0,2,,,,,,0,57,92
200640,note_off,,96,0,2,,,,,,0,58,64
200736,note_off,,96,0,2,,,,,,0,57,64
200736,note_on,,0,0,2,,,,,,0,55,92
200832,note_off,,96,0,2,,,,,,0,55,64
200832,note_on,,0,0,2,,,,,,0,53,92
200928,note_off,,96,0,2,,,,,,0,53,64
200928,note_on,,0,0,2,,,,,,0,52,92
201024,note_off,,96,0,2,,,,,,0,52,64
201024,note_on,,0,0,2,,,,,,0,53,92
201024,note_on,,0,0,1,,,,,,0,77,92
201024,note_on,,0,0,1,,,,,,0,69,92
201024,note_off,,0,0,1,,,,,,0,70,64
201024,note_off,,384,0,1,,,,,,0,79,64
201120,note_on,,0,0,2,,,,,,0,55,92
201120,note_off,,96,0,2,,,,,,0,53,64
201216,note_on,,0,0,2,,,,,,0,57,92
201216,note_off,,96,0,2,,,,,,0,55,64
201216,note_on,,0,0,1,,,,,,0,75,92
201216,note_off,,192,0,1,,,,,,0,77,64
201216,note_off,,0,0,1,,,,,,0,69,64
201216,note_on,,0,0,1,,,,,,0,67,92
201312,note_off,,96,0,2,,,,,,0,57,64
201312,note_on,,0,0,2,,,,,,0,58,92
201408,note_on,,0,0,2,,,,,,0,60,92
201408,note_on,,0,0,1,,,,,,0,69,92
201408,note_off,,192,0,1,,,,,,0,67,64
201408,note_off,,96,0,2,,,,,,0,58,64
201504,note_on,,0,0,2,,,,,,0,57,92
201504,note_off,,96,0,2,,,,,,0,60,64
201600,note_off,,96,0,2,,,,,,0,57,64
201600,note_on,,0,0,2,,,,,,0,53,92
201600,note_on,,0,0,1,,,,,,0,74,92
201600,note_on,,0,0,1,,,,,,0,70,92
201600,note_off,,0,0,1,,,,,,0,75,64
201600,note_off,,192,0,1,,,,,,0,69,64
201696,note_off,,96,0,2,,,,,,0,53,64
201696,note_on,,0,0,2,,,,,,0,60,92
201792,note_off,,96,0,2,,,,,,0,60,64
201792,note_on,,0,0,1,,,,,,0,70,92
201792,note_off,,192,0,1,,,,,,0,74,64
201792,note_off,,0,0,1,,,,,,0,70,64
201792,note_on,,0,0,1,,,,,,0,67,92
201792,note_on,,0,0,2,,,,,,0,62,92
201888,note_off,,96,0,2,,,,,,0,62,64
201888,note_on,,0,0,2,,,,,,0,58,92
201984,note_off,,96,0,2,,,,,,0,58,64
201984,note_on,,0,0,2,,,,,,0,60,92
202080,note_on,,0,0,2,,,,,,0,57,92
202080,note_off,,96,0,2,,,,,,0,60,64
202176,note_on,,0,0,1,,,,,,0,65,92
202176,note_off,,384,0,1,,,,,,0,70,64
202176,note_on,,0,0,2,,,,,,0,53,92
202176,note_off,,96,0,2,,,,,,0,57,64
202176,note_on,,0,0,1,,,,,,0,69,92
202176,note_off,,0,0,1,,,,,,0,67,64
202272,note_off,,96,0,2,,,,,,0,53,64
202272,note_on,,0,0,2,,,,,,0,62,92
202368,note_on,,0,0,1,,,,,,0,69,92
202368,note_off,,96,0,2,,,,,,0,62,64
202368,note_off,,192,0,1,,,,,,0,69,64
202368,note_on,,0,0,2,,,,,,0,63,92
202368,note_off,,0,0,1,,,,,,0,65,64
202368,note_on,,0,0,1,,,,,,0,72,92
202464,note_on,,0,0,2,,,,,,0,60,92
202464,note_off,,96,0,2,,,,,,0,63,64
202560,note_off,,96,0,2,,,,,,0,60,64
202560,note_on,,0,0,2,,,,,,0,62,92
202656,note_off,,96,0,2,,,,,,0,62,64
202656,note_on,,0,0,2,,,,,,0,58,92
202752,note_off,,0,0,1,,,,,,0,69,64
202752,note_on,,0,0,1,,,,,,0,70,92
202752,note_off,,96,0,2,,,,,,0,58,64
202752,note_on,,0,0,2,,,,,,0,53,92
202752,note_off,,384,0,1,,,,,,0,72,64
202752,note_on,,0,0,1,,,,,,0,67,92
202848,note_off,,96,0,2,,,,,,0,53,64
202848,note_on,,0,0,2,,,,,,0,64,92
202944,note_on,,0,0,1,,,,,,0,65,92
202944,note_off,,96,0,2,,,,,,0,64,64
202944,note_on,,0,0,2,,,,,,0,65,92
202944,note_on,,0,0,1,,,,,,0,69,92
202944,note_off,,192,0,1,,,,,,0,70,64
202944,note_off,,0,0,1,,,,,,0,67,64
203040,note_on,,0,0,2,,,,,,0,62,92
203040,note_off,,96,0,2,,,,,,0,65,64
203136,note_off,,192,0,1,,,,,,0,69,64
203136,note_on,,0,0,2,,,,,,0,64,92
203136,note_off,,96,0,2,,,,,,0,62,64
203136,note_off,,0,0,1,,,,,,0,65,64
203136,note_on,,0,0,1,,,,,,0,67,92
203232,note_on,,0,0,2,,,,,,0,65,92
203232,note_off,,96,0,2,,,,,,0,64,64
203328,note_off,,96,0,2,,,,,,0,65,64
203328,note_on,,0,0,2,,,,,,0,64,92
203328,note_on,,192,0,1,,,,,,0,72,92
203424,note_off,,96,0,2,,,,,,0,64,64
203424,note_on,,0,0,2,,,,,,0,62,92
203520,note_off,,192,0,1,,,,,,0,72,64
203520,note_on,,0,0,1,,,,,,0,76,92
203520,note_on,,0,0,2,,,,,,0,60,92
203520,note_off,,96,0,2,,,,,,0,62,64
203616,note_on,,0,0,2,,,,,,0,58,92
203616,note_off,,96,0,2,,,,,,0,60,64
203712,note_on,,0,0,2,,,,,,0,57,92
203712,note_off,,96,0,2,,,,,,0,58,64
203712,note_on,,0,0,1,,,,,,0,72,92
203712,note_off,,192,0,1,,,,,,0,67,64
203808,note_off,,96,0,2,,,,,,0,57,64
203808,note_on,,0,0,2,,,,,,0,58,92
203904,note_on,,0,0,2,,,,,,0,57,92
203904,note_on,,0,0,1,,,,,,0,81,92
203904,note_off,,192,0,1,,,,,,0,76,64
203904,note_off,,96,0,2,,,,,,0,58,64
204000,note_off,,96,0,2,,,,,,0,57,64
204000,note_on,,0,0,2,,,,,,0,55,92
204096,note_on,,0,0,2,,,,,,0,54,92
204096,note_off,,96,0,2,,,,,,0,55,64
204096,note_off,,192,0,1,,,,,,0,81,64
204096,note_on,,0,0,1,,,,,,0,79,92
204192,note_off,,96,0,2,,,,,,0,54,64
204192,note_on,,0,0,2,,,,,,0,52,92
204288,note_off,,96,0,2,,,,,,0,52,64
204288,note_on,,0,0,2,,,,,,0,50,92
204288,note_on,,0,0,1,,,,,,0,78,92
204288,note_off,,192,0,1,,,,,,0,79,64
204384,note_on,,0,0,2,,,,,,0,48,92
204384,note_off,,96,0,2,,,,,,0,50,64
204384,note_off,,96,0,1,,,,,,0,78,64
204384,note_on,,0,0,1,,,,,,0,76,92
204480,note_on,,0,0,2,,,,,,0,50,92
204480,note_off,,96,0,2,,,,,,0,48,64
204480,note_on,,0,0,1,,,,,,0,78,92
204480,note_off,,96,0,1,,,,,,0,76,64
204576,note_on,,0,0,2,,,,,,0,52,92
204576,note_off,,96,0,1,,,,,,0,78,64
204576,note_on,,0,0,1,,,,,,0,79,92
204576,note_off,,96,0,2,,,,,,0,50,64
204672,note_on,,0,0,1,,,,,,0,81,92
204672,note_off,,96,0,1,,,,,,0,79,64
204672,note_on,,0,0,2,,,,,,0,54,92
204672,note_off,,96,0,2,,,,,,0,52,64
204768,note_on,,0,0,1,,,,,,0,78,92
204768,note_off,,96,0,1,,,,,,0,81,64
204768,note_on,,0,0,2,,,,,,0,50,92
204768,note_off,,96,0,2,,,,,,0,54,64
204864,note_off,,0,0,1,,,,,,0,72,64
204864,note_off,,96,0,1,,,,,,0,78,64
204864,note_on,,0,0,1,,,,,,0,74,92
204864,note_on,,0,0,2,,,,,,0,55,92
204864,note_off,,96,0,2,,,,,,0,50,64
204864,note_on,,0,0,1,,,,,,0,70,92
204960,note_off,,96,0,2,,,,,,0,55,64
204960,note_on,,0,0,2,,,,,,0,57,92
205056,note_on,,0,0,1,,,,,,0,79,92
205056,note_off,,96,0,2,,,,,,0,57,64
205056,note_on,,0,0,2,,,,,,0,55,92
205056,note_off,,192,0,1,,,,,,0,74,64
205152,note_off,,96,0,2,,,,,,0,55,64
205152,note_on,,0,0,2,,,,,,0,53,92
205248,note_on,,0,0,1,,,,,,0,77,92
205248,note_off,,192,0,1,,,,,,0,79,64
205248,note_off,,96,0,2,,,,,,0,53,64
205248,note_on,,0,0,2,,,,,,0,52,92
205344,note_on,,0,0,2,,,,,,0,50,92
205344,note_off,,96,0,2,,,,,,0,52,64
205440,note_on,,0,0,1,,,,,,0,76,92
205440,note_off,,96,0,2,,,,,,0,50,64
205440,note_off,,192,0,1,,,,,,0,77,64
205440,note_on,,0,0,2,,,,,,0,48,92
205536,note_on,,0,0,1,,,,,,0,74,92
205536,note_off,,96,0,1,,,,,,0,76,64
205536,note_on,,0,0,2,,,,,,0,46,92
205536,note_off,,96,0,2,,,,,,0,48,64
205632,note_on,,0,0,1,,,,,,0,76,92
205632,note_off,,96,0,2,,,,,,0,46,64
205632,note_off,,96,0,1,,,,,,0,74,64
205632,note_on,,0,0,2,,,,,,0,48,92
205728,note_on,,0,0,2,,,,,,0,50,92
205728,note_off,,96,0,2,,,,,,0,48,64
205728,note_off,,96,0,1,,,,,,0,76,64
205728,note_on,,0,0,1,,,,,,0,77,92
205824,note_off,,96,0,2,,,,,,0,50,64
205824,note_on,,0,0,1,,,,,,0,79,92
205824,note_off,,96,0,1,,,,,,0,77,64
205824,note_on,,0,0,2,,,,,,0,52,92
205920,note_on,,0,0,2,,,,,,0,48,92
205920,note_off,,96,0,2,,,,,,0,52,64
205920,note_on,,0,0,1,,,,,,0,76,92
205920,note_off,,96,0,1,,,,,,0,79,64
206016,note_on,,0,0,1,,,,,,0,69,92
206016,note_on,,0,0,1,,,,,,0,72,92
206016,note_off,,96,0,1,,,,,,0,76,64
206016,note_off,,96,0,2,,,,,,0,48,64
206016,note_off,,0,0,1,,,,,,0,70,64
206016,note_on,,0,0,2,,,,,,0,53,92
206112,note_off,,96,0,2,,,,,,0,53,64
206112,note_on,,0,0,2,,,,,,0,52,92
206208,note_off,,192,0,1,,,,,,0,72,64
206208,note_on,,0,0,1,,,,,,0,77,92
206208,note_on,,0,0,2,,,,,,0,53,92
206208,note_off,,96,0,2,,,,,,0,52,64
206304,note_on,,0,0,2,,,,,,0,55,92
206304,note_off,,96,0,2,,,,,,0,53,64
206400,note_off,,96,0,2,,,,,,0,55,64
206400,note_on,,0,0,1,,,,,,0,75,92
206400,note_off,,192,0,1,,,,,,0,77,64
206400,note_on,,0,0,2,,,,,,0,57,92
206496,note_on,,0,0,2,,,,,,0,53,92
206496,note_off,,96,0,2,,,,,,0,57,64
206592,note_on,,0,0,1,,,,,,0,74,92
206592,note_on,,0,0,2,,,,,,0,58,92
206592,note_off,,192,0,1,,,,,,0,75,64
206592,note_off,,96,0,2,,,,,,0,53,64
206688,note_on,,0,0,1,,,,,,0,72,92
206688,note_off,,96,0,1,,,,,,0,69,64
206784,note_off,,96,0,1,,,,,,0,72,64
206784,note_on,,0,0,1,,,,,,0,70,92
206880,note_off,,96,0,1,,,,,,0,70,64
206880,note_on,,0,0,1,,,,,,0,69,92
206976,note_off,,96,0,1,,,,,,0,69,64
206976,note_on,,0,0,1,,,,,,0,67,92
207072,note_on,,0,0,1,,,,,,0,65,92
207072,note_off,,96,0,1,,,,,,0,67,64
207168,note_off,,0,0,1,,,,,,0,74,64
207168,note_on,,0,0,1,,,,,,0,64,92
207168,note_on,,0,0,1,,,,,,0,72,92
207168,note_off,,96,0,1,,,,,,0,65,64
207264,note_off,,96,0,1,,,,,,0,72,64
207264,note_off,,0,0,1,,,,,,0,64,64
207264,note_on,,0,0,1,,,,,,0,65,92
207264,note_on,,0,0,1,,,,,,0,74,92
207360,note_on,,0,0,1,,,,,,0,64,92
207360,note_off,,96,0,1,,,,,,0,74,64
207360,note_on,,0,0,1,,,,,,0,72,92
207360,note_off,,0,0,1,,,,,,0,65,64
207456,note_off,,96,0,1,,,,,,0,72,64
207456,note_on,,0,0,1,,,,,,0,70,92
207456,note_off,,0,0,1,,,,,,0,64,64
207456,note_on,,0,0,1,,,,,,0,62,92
207552,note_on,,0,0,1,,,,,,0,69,92
207552,note_on,,0,0,1,,,,,,0,60,92
207552,note_off,,0,0,1,,,,,,0,62,64
207552,note_off,,96,0,1,,,,,,0,70,64
207648,note_on,,0,0,1,,,,,,0,67,92
207648,note_off,,96,0,1,,,,,,0,69,64
207648,note_off,,1056,0,2,,,,,,0,58,64
207648,note_on,,0,0,2,,,,,,0,58,92
207744,note_on,,0,0,2,,,,,,0,57,92
207744,note_off,,96,0,1,,,,,,0,67,64
207744,note_on,,0,0,1,,,,,,0,65,92
207744,note_off,,96,0,2,,,,,,0,58,64
207840,note_off,,96,0,1,,,,,,0,65,64
207840,note_off,,0,0,1,,,,,,0,60,64
207840,note_on,,0,0,1,,,,,,0,60,92
207840,note_on,,0,0,1,,,,,,0,64,92
207936,note_off,,96,0,1,,,,,,0,64,64
207936,note_off,,0,0,1,,,,,,0,60,64
207936,note_on,,0,0,1,,,,,,0,62,92
207936,note_on,,0,0,1,,,,,,0,65,92
208032,note_off,,0,0,1,,,,,,0,62,64
208032,note_on,,0,0,1,,,,,,0,64,92
208032,note_on,,0,0,1,,,,,,0,67,92
208032,note_off,,96,0,1,,,,,,0,65,64
208128,note_off,,96,0,1,,,,,,0,67,64
208128,note_on,,0,0,1,,,,,,0,65,92
208128,note_on,,0,0,1,,,,,,0,69,92
208128,note_off,,0,0,1,,,,,,0,64,64
208224,note_off,,96,0,1,,,,,,0,69,64
208224,note_on,,0,0,1,,,,,,0,62,92
208224,note_on,,0,0,1,,,,,,0,70,92
208224,note_off,,0,0,1,,,,,,0,65,64
208320,note_off,,96,0,1,,,,,,0,70,64
208320,note_off,,0,0,1,,,,,,0,62,64
208320,note_on,,0,0,1,,,,,,0,72,92
208320,note_on,,0,0,1,,,,,,0,63,92
208416,note_off,,96,0,1,,,,,,0,72,64
208416,note_on,,0,0,1,,,,,,0,69,92
208512,note_off,,768,0,2,,,,,,0,57,64
208512,note_on,,0,0,1,,,,,,0,65,92
208512,note_off,,0,0,1,,,,,,0,63,64
208512,note_off,,96,0,1,,,,,,0,69,64
208512,note_on,,0,0,2,,,,,,0,60,92
208512,note_on,,0,0,2,,,,,,0,57,92
208608,note_on,,0,0,1,,,,,,0,72,92
208608,note_off,,96,0,1,,,,,,0,65,64
208704,note_off,,96,0,1,,,,,,0,72,64
208704,note_on,,0,0,1,,,,,,0,74,92
208704,note_on,,0,0,2,,,,,,0,58,92
208704,note_off,,192,0,2,,,,,,0,57,64
208704,note_off,,0,0,2,,,,,,0,60,64
208800,note_on,,0,0,1,,,,,,0,70,92
208800,note_off,,96,0,1,,,,,,0,74,64
208896,note_on,,0,0,1,,,,,,0,72,92
208896,note_off,,96,0,1,,,,,,0,70,64
208896,note_on,,192,0,2,,,,,,0,53,92
208992,note_on,,0,0,1,,,,,,0,69,92
208992,note_off,,96,0,1,,,,,,0,72,64
209088,note_off,,96,0,1,,,,,,0,69,64
209088,note_off,,192,0,2,,,,,,0,58,64
209088,note_on,,0,0,2,,,,,,0,57,92
209088,note_on,,0,0,1,,,,,,0,65,92
209184,note_on,,0,0,2,,,,,,0,58,92
209184,note_on,,0,0,1,,,,,,0,74,92
209184,note_off,,96,0,2,,,,,,0,57,64
209184,note_off,,96,0,1,,,,,,0,65,64
209280,note_off,,96,0,2,,,,,,0,58,64
209280,note_off,,96,0,1,,,,,,0,74,64
209280,note_on,,0,0,1,,,,,,0,75,92
209280,note_on,,0,0,2,,,,,,0,60,92
209376,note_off,,96,0,1,,,,,,0,75,64
209376,note_on,,0,0,1,,,,,,0,72,92
209472,note_off,,192,0,2,,,,,,0,53,64
209472,note_on,,0,0,2,,,,,,0,46,92
209472,note_off,,96,0,1,,,,,,0,72,64
209472,note_on,,0,0,1,,,,,,0,74,92
209568,note_off,,96,0,1,,,,,,0,74,64
209568,note_on,,0,0,1,,,,,,0,70,92
209664,note_off,,96,0,1,,,,,,0,70,64
209664,note_on,,0,0,1,,,,,,0,65,92
209664,note_off,,192,0,2,,,,,,0,60,64
209664,note_on,,0,0,2,,,,,,0,58,92
209760,note_off,,96,0,1,,,,,,0,65,64
209760,note_on,,0,0,1,,,,,,0,76,92
209856,note_off,,96,0,1,,,,,,0,76,64
209856,note_on,,0,0,1,,,,,,0,77,92
209856,note_off,,192,0,2,,,,,,0,58,64
209856,note_on,,0,0,2,,,,,,0,57,92
209952,note_off,,96,0,1,,,,,,0,77,64
209952,note_on,,0,0,1,,,,,,0,74,92
210048,note_off,,96,0,1,,,,,,0,74,64
210048,note_on,,0,0,1,,,,,,0,76,92
210048,note_on,,0,0,2,,,,,,0,48,92
210048,note_off,,0,0,2,,,,,,0,46,64
210048,note_on,,0,0,2,,,,,,0,55,92
210048,note_off,,192,0,2,,,,,,0,57,64
210144,note_off,,96,0,1,,,,,,0,76,64
210144,note_on,,0,0,1,,,,,,0,77,92
210240,note_on,,0,0,2,,,,,,0,50,92
210240,note_off,,96,0,1,,,,,,0,77,64
210240,note_on,,0,0,1,,,,,,0,76,92
210240,note_off,,192,0,2,,,,,,0,48,64
210336,note_off,,96,0,1,,,,,,0,76,64
210336,note_on,,0,0,1,,,,,,0,74,92
210432,note_off,,96,0,1,,,,,,0,74,64
210432,note_on,,0,0,1,,,,,,0,72,92
210432,note_on,,0,0,2,,,,,,0,52,92
210432,note_off,,192,0,2,,,,,,0,50,64
210528,note_off,,96,0,1,,,,,,0,72,64
210528,note_on,,0,0,1,,,,,,0,70,92
210624,note_off,,96,0,1,,,,,,0,70,64
210624,note_on,,0,0,1,,,,,,0,69,92
210624,note_on,,0,0,2,,,,,,0,53,92
210624,note_off,,192,0,2,,,,,,0,52,64
210624,note_off,,0,0,2,,,,,,0,55,64
210720,note_on,,96,0,2,,,,,,0,55,92
210816,note_off,,0,0,2,,,,,,0,53,64
210816,note_off,,96,0,2,,,,,,0,55,64
210816,note_on,,192,0,1,,,,,,0,65,92
210816,note_on,,0,0,2,,,,,,0,53,92
210912,note_on,,0,0,2,,,,,,0,52,92
210912,note_off,,96,0,2,,,,,,0,53,64
211008,note_on,,0,0,2,,,,,,0,50,92
211008,note_off,,96,0,2,,,,,,0,52,64
211008,note_off,,192,0,1,,,,,,0,65,64
211008,note_on,,0,0,1,,,,,,0,64,92
211104,note_off,,96,0,2,,,,,,0,50,64
211104,note_on,,0,0,2,,,,,,0,48,92
211200,note_on,,0,0,1,,,,,,0,62,92
211200,note_on,,0,0,2,,,,,,0,47,92
211200,note_off,,192,0,1,,,,,,0,64,64
211200,note_off,,96,0,2,,,,,,0,48,64
211296,note_off,,96,0,1,,,,,,0,62,64
211296,note_off,,96,0,2,,,,,,0,47,64
211296,note_on,,0,0,2,,,,,,0,45,92
211296,note_on,,0,0,1,,,,,,0,60,92
211392,note_off,,96,0,1,,,,,,0,60,64
211392,note_on,,0,0,1,,,,,,0,62,92
211392,note_on,,0,0,2,,,,,,0,47,92
211392,note_off,,96,0,2,,,,,,0,45,64
211488,note_off,,96,0,1,,,,,,0,62,64
211488,note_on,,0,0,1,,,,,,0,64,92
211488,note_off,,96,0,2,,,,,,0,47,64
211488,note_on,,0,0,2,,,,,,0,48,92
211584,note_off,,96,0,1,,,,,,0,64,64
211584,note_on,,0,0,1,,,,,,0,65,92
211584,note_off,,96,0,2,,,,,,0,48,64
211584,note_on,,0,0,2,,,,,,0,50,92
211680,note_on,,0,0,1,,,,,,0,62,92
211680,note_off,,96,0,1,,,,,,0,65,64
211680,note_off,,96,0,2,,,,,,0,50,64
211680,note_on,,0,0,2,,,,,,0,47,92
211776,note_on,,0,0,1,,,,,,0,67,92
211776,note_on,,0,0,1,,,,,,0,59,92
211776,note_on,,0,0,2,,,,,,0,52,92
211776,note_off,,96,0,2,,,,,,0,47,64
211776,note_off,,0,0,1,,,,,,0,69,64
211776,note_off,,96,0,1,,,,,,0,62,64
211872,note_on,,0,0,2,,,,,,0,53,92
211872,note_off,,96,0,2,,,,,,0,52,64
211968,note_on,,0,0,1,,,,,,0,64,92
211968,note_off,,96,0,2,,,,,,0,53,64
211968,note_on,,0,0,2,,,,,,0,52,92
211968,note_off,,192,0,1,,,,,,0,59,64
212064,note_on,,0,0,2,,,,,,0,50,92
212064,note_off,,96,0,2,,,,,,0,52,64
212160,note_on,,0,0,2,,,,,,0,48,92
212160,note_off,,192,0,1,,,,,,0,64,64
212160,note_on,,0,0,1,,,,,,0,62,92
212160,note_off,,96,0,2,,,,,,0,50,64
212256,note_off,,96,0,2,,,,,,0,48,64
212256,note_on,,0,0,2,,,,,,0,47,92
212352,note_off,,96,0,2,,,,,,0,47,64
212352,note_on,,0,0,2,,,,,,0,45,92
212352,note_off,,192,0,1,,,,,,0,62,64
212352,note_on,,0,0,1,,,,,,0,60,92
212448,note_on,,0,0,1,,,,,,0,59,92
212448,note_on,,0,0,2,,,,,,0,43,92
212448,note_off,,96,0,2,,,,,,0,45,64
212448,note_off,,96,0,1,,,,,,0,60,64
212544,note_on,,0,0,2,,,,,,0,45,92
212544,note_off,,96,0,2,,,,,,0,43,64
212544,note_on,,0,0,1,,,,,,0,60,92
212544,note_off,,96,0,1,,,,,,0,59,64
212640,note_on,,0,0,1,,,,,,0,62,92
212640,note_off,,96,0,1,,,,,,0,60,64
212640,note_off,,96,0,2,,,,,,0,45,64
212640,note_on,,0,0,2,,,,,,0,47,92
212736,note_on,,0,0,1,,,,,,0,64,92
212736,note_off,,96,0,1,,,,,,0,62,64
212736,note_off,,96,0,2,,,,,,0,47,64
212736,note_on,,0,0,2,,,,,,0,48,92
212832,note_off,,96,0,1,,,,,,0,64,64
212832,note_off,,96,0,2,,,,,,0,48,64
212832,note_on,,0,0,2,,,,,,0,45,92
212832,note_on,,0,0,1,,,,,,0,60,92
212928,note_off,,0,0,1,,,,,,0,67,64
212928,note_on,,0,0,1,,,,,,0,57,92
212928,note_on,,0,0,1,,,,,,0,65,92
212928,note_on,,0,0,2,,,,,,0,50,92
212928,note_off,,96,0,1,,,,,,0,60,64
212928,note_off,,96,0,2,,,,,,0,45,64
213024,note_on,,0,0,2,,,,,,0,48,92
213024,note_off,,96,0,2,,,,,,0,50,64
213120,note_on,,0,0,2,,,,,,0,50,92
213120,note_on,,0,0,1,,,,,,0,62,92
213120,note_off,,192,0,1,,,,,,0,57,64
213120,note_off,,96,0,2,,,,,,0,48,64
213216,note_on,,0,0,2,,,,,,0,52,92
213216,note_off,,96,0,2,,,,,,0,50,64
213312,note_on,,0,0,2,,,,,,0,53,92
213312,note_off,,96,0,2,,,,,,0,52,64
213312,note_off,,192,0,1,,,,,,0,62,64
213312,note_on,,0,0,1,,,,,,0,60,92
213408,note_off,,96,0,2,,,,,,0,53,64
213408,note_on,,0,0,2,,,,,,0,50,92
213504,note_off,,96,0,2,,,,,,0,50,64
213504,note_on,,0,0,2,,,,,,0,55,92
213504,note_off,,192,0,1,,,,,,0,60,64
213504,note_on,,0,0,1,,,,,,0,59,92
213600,note_off,,96,0,1,,,,,,0,65,64
213600,note_on,,0,0,1,,,,,,0,69,92
213696,note_on,,0,0,1,,,,,,0,67,92
213696,note_off,,96,0,1,,,,,,0,69,64
213792,note_on,,0,0,1,,,,,,0,65,92
213792,note_off,,96,0,1,,,,,,0,67,64
213888,note_on,,0,0,1,,,,,,0,64,92
213888,note_off,,96,0,1,,,,,,0,65,64
213984,note_on,,0,0,1,,,,,,0,62,92
213984,note_off,,96,0,1,,,,,,0,64,64
214080,note_off,,96,0,1,,,,,,0,62,64
214080,note_off,,0,0,1,,,,,,0,59,64
214080,note_on,,0,0,1,,,,,,0,60,92
214080,note_on,,0,0,1,,,,,,0,64,92
214176,note_off,,0,0,1,,,,,,0,60,64
214176,note_on,,0,0,1,,,,,,0,59,92
214176,note_on,,0,0,1,,,,,,0,62,92
214176,note_off,,96,0,1,,,,,,0,64,64
214272,note_off,,96,0,1,,,,,,0,62,64
214272,note_off,,0,0,1,,,,,,0,59,64
214272,note_on,,0,0,1,,,,,,0,60,92
214272,note_on,,0,0,1,,,,,,0,64,92
214368,note_on,,0,0,1,,,,,,0,65,92
214368,note_on,,0,0,1,,,,,,0,62,92
214368,note_off,,96,0,1,,,,,,0,64,64
214368,note_off,,0,0,1,,,,,,0,60,64
214464,note_off,,96,0,1,,,,,,0,65,64
214464,note_off,,0,0,1,,,,,,0,62,64
214464,note_on,,0,0,1,,,,,,0,64,92
214464,note_on,,0,0,1,,,,,,0,67,92
214560,note_off,,96,0,1,,,,,,0,67,64
214560,note_off,,0,0,1,,,,,,0,64,64
214560,note_on,,0,0,1,,,,,,0,60,92
214560,note_on,,0,0,1,,,,,,0,69,92
214656,note_on,,0,0,1,,,,,,0,71,92
214656,note_off,,0,0,1,,,,,,0,60,64
214656,note_off,,96,0,1,,,,,,0,69,64
214656,note_on,,0,0,1,,,,,,0,62,92
214752,note_off,,96,0,1,,,,,,0,71,64
214752,note_off,,0,0,1,,,,,,0,62,64
214752,note_on,,0,0,1,,,,,,0,60,92
214752,note_on,,0,0,1,,,,,,0,69,92
214848,note_on,,0,0,1,,,,,,0,62,92
214848,note_on,,0,0,1,,,,,,0,71,92
214848,note_off,,96,0,1,,,,,,0,69,64
214848,note_off,,0,0,1,,,,,,0,60,64
214944,note_off,,96,0,1,,,,,,0,71,64
214944,note_off,,0,0,1,,,,,,0,62,64
214944,note_on,,0,0,1,,,,,,0,64,92
214944,note_on,,0,0,1,,,,,,0,72,92
215040,note_off,,96,0,1,,,,,,0,72,64
215040,note_off,,0,0,1,,,,,,0,64,64
215040,note_on,,0,0,1,,,,,,0,65,92
215040,note_on,,0,0,1,,,,,,0,74,92
215136,note_on,,0,0,1,,,,,,0,71,92
215136,note_off,,0,0,1,,,,,,0,65,64
215136,note_off,,96,0,1,,,,,,0,74,64
215136,note_on,,0,0,1,,,,,,0,62,92
215232,note_off,,96,0,1,,,,,,0,71,64
215232,note_off,,0,0,1,,,,,,0,62,64
215232,note_on,,0,0,1,,,,,,0,72,92
215232,note_on,,0,0,1,,,,,,0,64,92
215328,note_off,,96,0,1,,,,,,0,64,64
215328,note_off,,0,0,1,,,,,,0,72,64
215328,note_on,,0,0,1,,,,,,0,62,92
215328,note_on,,0,0,1,,,,,,0,71,92
215424,note_off,,96,0,1,,,,,,0,62,64
215424,note_off,,0,0,1,,,,,,0,71,64
215424,note_on,,0,0,1,,,,,,0,72,92
215424,note_on,,0,0,1,,,,,,0,64,92
215520,note_off,,0,0,1,,,,,,0,72,64
215520,note_off,,96,0,1,,,,,,0,64,64
215520,note_on,,0,0,1,,,,,,0,65,92
215520,note_on,,0,0,1,,,,,,0,74,92
215616,note_on,,0,0,1,,,,,,0,76,92
215616,note_on,,0,0,1,,,,,,0,67,92
215616,note_off,,0,0,1,,,,,,0,74,64
215616,note_off,,2112,0,2,,,,,,0,55,64
215616,note_off,,96,0,1,,,,,,0,65,64
215712,note_on,,0,0,1,,,,,,0,69,92
215712,note_on,,0,0,1,,,,,,0,78,92
215712,note_off,,0,0,1,,,,,,0,76,64
215712,note_off,,96,0,1,,,,,,0,67,64
215808,note_on,,192,0,2,,,,,,0,67,92
215808,note_on,,0,0,1,,,,,,0,71,92
215808,note_off,,0,0,1,,,,,,0,78,64
215808,note_off,,96,0,1,,,,,,0,69,64
215808,note_on,,0,0,1,,,,,,0,79,92
215904,note_off,,96,0,2,,,,,,0,67,64
215904,note_on,,0,0,2,,,,,,0,69,92
216000,note_off,,96,0,2,,,,,,0,69,64
216000,note_on,,0,0,2,,,,,,0,67,92
216096,note_off,,96,0,2,,,,,,0,67,64
216096,note_on,,0,0,2,,,,,,0,65,92
216192,note_on,,0,0,2,,,,,,0,64,92
216192,note_off,,96,0,2,,,,,,0,65,64
216288,note_on,,0,0,2,,,,,,0,62,92
216288,note_off,,96,0,2,,,,,,0,64,64
216384,note_off,,576,0,1,,,,,,0,71,64
216384,note_off,,96,0,2,,,,,,0,62,64
216384,note_on,,0,0,1,,,,,,0,72,92
216384,note_on,,0,0,2,,,,,,0,64,92
216480,note_off,,96,0,1,,,,,,0,79,64
216480,note_on,,0,0,1,,,,,,0,81,92
216480,note_off,,96,0,2,,,,,,0,64,64
216480,note_on,,0,0,2,,,,,,0,65,92
216576,note_on,,0,0,2,,,,,,0,64,92
216576,note_off,,96,0,2,,,,,,0,65,64
216576,note_off,,96,0,1,,,,,,0,81,64
216576,note_off,,0,0,1,,,,,,0,72,64
216576,note_on,,0,0,1,,,,,,0,79,92
216672,note_on,,0,0,1,,,,,,0,77,92
216672,note_off,,96,0,2,,,,,,0,64,64
216672,note_on,,0,0,2,,,,,,0,62,92
216672,note_off,,96,0,1,,,,,,0,79,64
216768,note_off,,96,0,2,,,,,,0,62,64
216768,note_on,,0,0,1,,,,,,0,76,92
216768,note_off,,96,0,1,,,,,,0,77,64
216768,note_on,,0,0,2,,,,,,0,60,92
216864,note_on,,0,0,2,,,,,,0,59,92
216864,note_on,,0,0,1,,,,,,0,74,92
216864,note_off,,96,0,1,,,,,,0,76,64
216864,note_off,,96,0,2,,,,,,0,60,64
216960,note_on,,0,0,1,,,,,,0,72,92
216960,note_on,,0,0,2,,,,,,0,57,92
216960,note_off,,96,0,2,,,,,,0,59,64
216960,note_off,,96,0,1,,,,,,0,74,64
217056,note_on,,0,0,1,,,,,,0,71,92
217056,note_off,,96,0,1,,,,,,0,72,64
217152,note_on,,192,0,2,,,,,,0,60,92
217152,note_off,,96,0,1,,,,,,0,71,64
217152,note_on,,0,0,1,,,,,,0,72,92
217248,note_off,,96,0,1,,,,,,0,72,64
217248,note_on,,0,0,1,,,,,,0,74,92
217344,note_off,,96,0,1,,,,,,0,74,64
217344,note_on,,0,0,2,,,,,,0,57,92
217344,note_off,,192,0,2,,,,,,0,57,64
217344,note_on,,0,0,1,,,,,,0,76,92
217440,note_off,,96,0,1,,,,,,0,76,64
217440,note_on,,0,0,1,,,,,,0,77,92
217536,note_on,,0,0,1,,,,,,0,79,92
217536,note_on,,0,0,2,,,,,,0,52,92
217536,note_off,,192,0,2,,,,,,0,57,64
217536,note_off,,96,0,1,,,,,,0,77,64
217632,note_on,,0,0,1,,,,,,0,76,92
217632,note_off,,96,0,1,,,,,,0,79,64
217728,note_off,,96,0,1,,,,,,0,76,64
217728,note_on,,0,0,1,,,,,,0,72,92
217728,note_off,,192,0,2,,,,,,0,60,64
217728,note_on,,0,0,2,,,,,,0,60,92
217824,note_off,,96,0,1,,,,,,0,72,64
217824,note_on,,0,0,1,,,,,,0,79,92
217920,note_off,,192,0,2,,,,,,0,52,64
217920,note_on,,0,0,2,,,,,,0,53,92
217920,note_on,,0,0,1,,,,,,0,81,92
217920,note_off,,96,0,1,,,,,,0,79,64
218016,note_on,,0,0,1,,,,,,0,77,92
218016,note_off,,96,0,1,,,,,,0,81,64
218112,note_off,,96,0,1,,,,,,0,77,64
218112,note_on,,0,0,1,,,,,,0,79,92
218112,note_off,,192,0,2,,,,,,0,53,64
218112,note_on,,0,0,2,,,,,,0,52,92
218208,note_off,,96,0,1,,,,,,0,79,64
218208,note_on,,0,0,1,,,,,,0,76,92
218304,note_on,,0,0,2,,,,,,0,55,92
218304,note_off,,96,0,1,,,,,,0,76,64
218304,note_on,,0,0,1,,,,,,0,72,92
218304,note_off,,192,0,2,,,,,,0,60,64
218400,note_on,,0,0,2,,,,,,0,48,92
218400,note_off,,96,0,2,,,,,,0,52,64
218400,note_on,,0,0,1,,,,,,0,81,92
218400,note_off,,96,0,1,,,,,,0,72,64
218496,note_off,,96,0,1,,,,,,0,81,64
218496,note_on,,0,0,2,,,,,,0,50,92
218496,note_off,,96,0,2,,,,,,0,48,64
218496,note_on,,0,0,1,,,,,,0,82,92
218592,note_on,,0,0,1,,,,,,0,79,92
218592,note_off,,96,0,1,,,,,,0,82,64
218592,note_off,,96,0,2,,,,,,0,50,64
218592,note_on,,0,0,2,,,,,,0,52,92
218688,note_off,,96,0,1,,,,,,0,79,64
218688,note_on,,0,0,2,,,,,,0,53,92
218688,note_off,,96,0,2,,,,,,0,52,64
218688,note_off,,0,0,2,,,,,,0,55,64
218688,note_on,,0,0,1,,,,,,0,81,92
218784,note_off,,96,0,1,,,,,,0,81,64
218784,note_on,,0,0,1,,,,,,0,77,92
218880,note_off,,96,0,1,,,,,,0,77,64
218880,note_on,,192,0,2,,,,,,0,57,92
218880,note_on,,0,0,1,,,,,,0,72,92
218976,note_on,,0,0,1,,,,,,0,83,92
218976,note_off,,96,0,1,,,,,,0,72,64
218976,note_on,,0,0,2,,,,,,0,50,92
218976,note_off,,96,0,2,,,,,,0,53,64
219072,note_on,,0,0,2,,,,,,0,52,92
219072,note_off,,96,0,2,,,,,,0,50,64
219072,note_on,,0,0,1,,,,,,0,84,92
219072,note_off,,96,0,1,,,,,,0,83,64
219168,note_on,,0,0,2,,,,,,0,53,92
219168,note_off,,96,0,2,,,,,,0,52,64
219168,note_on,,0,0,1,,,,,,0,81,92
219168,note_off,,96,0,1,,,,,,0,84,64
219264,note_off,,96,0,2,,,,,,0,53,64
219264,note_off,,96,0,1,,,,,,0,81,64
219264,note_on,,0,0,1,,,,,,0,83,92
219264,note_off,,0,0,2,,,,,,0,57,64
219264,note_on,,0,0,2,,,,,,0,55,92
219360,note_on,,0,0,1,,,,,,0,84,92
219360,note_on,,96,0,2,,,,,,0,54,92
219360,note_off,,96,0,1,,,,,,0,83,64
219456,note_on,,0,0,1,,,,,,0,83,92
219456,note_off,,96,0,1,,,,,,0,84,64
219456,note_off,,96,0,2,,,,,,0,54,64
219456,note_on,,0,0,2,,,,,,0,55,92
219456,note_off,,0,0,2,,,,,,0,55,64
219552,note_on,,0,0,2,,,,,,0,57,92
219552,note_off,,96,0,2,,,,,,0,55,64
219552,note_off,,96,0,1,,,,,,0,83,64
219552,note_on,,0,0,1,,,,,,0,81,92
219648,note_on,,0,0,1,,,,,,0,79,92
219648,note_off,,96,0,1,,,,,,0,81,64
219648,note_on,,0,0,2,,,,,,0,59,92
219648,note_off,,96,0,2,,,,,,0,57,64
219744,note_on,,0,0,1,,,,,,0,77,92
219744,note_on,,0,0,2,,,,,,0,55,92
219744,note_off,,96,0,2,,,,,,0,59,64
219744,note_off,,96,0,1,,,,,,0,79,64
219840,note_on,,0,0,2,,,,,,0,60,92
219840,note_off,,96,0,1,,,,,,0,77,64
219840,note_off,,96,0,2,,,,,,0,55,64
219840,note_on,,0,0,1,,,,,,0,76,92
220032,note_off,,192,0,1,,,,,,0,76,64
220032,note_on,,0,0,1,,,,,,0,74,92
220032,note_on,,0,0,1,,,,,,0,77,92
220032,note_on,,0,0,2,,,,,,0,53,92
220032,note_off,,192,0,2,,,,,,0,60,64
220224,note_off,,192,0,1,,,,,,0,77,64
220224,note_off,,0,0,1,,,,,,0,74,64
220224,note_on,,0,0,1,,,,,,0,71,92
220224,note_on,,0,0,1,,,,,,0,74,92
220224,note_on,,0,0,2,,,,,,0,55,92
220224,note_off,,192,0,2,,,,,,0,53,64
220416,note_off,,192,0,1,,,,,,0,74,64
220416,note_on,,0,0,2,,,,,,0,48,92
220416,note_off,,192,0,2,,,,,,0,55,64
220416,note_off,,0,0,1,,,,,,0,71,64
220416,note_on,,0,0,1,,,,,,0,64,92
220416,note_on,,0,0,1,,,,,,0,67,92
220416,note_on,,0,0,1,,,,,,0,72,92
220992,note_off,,576,0,2,,,,,,0,48,64
220992,note_off,,576,0,1,,,,,,0,64,64
220992,note_off,,0,0,1,,,,,,0,67,64
220992,note_off,,0,0,1,,,,,,0,72,64
220992,note_on,,0,0,1,,,,,,0,72,92
221088,note_off,,96,0,1,,,,,,0,72,64
221088,note_on,,0,0,1,,,,,,0,74,92
221184,note_off,,96,0,1,,,,,,0,74,64
221184,note_on,,0,0,1,,,,,,0,72,92
221280,note_off,,96,0,1,,,,,,0,72,64
221280,note_on,,0,0,1,,,,,,0,70,92
221376,note_off,,96,0,1,,,,,,0,70,64
221376,note_on,,0,0,1,,,,,,0,69,92
221472,note_off,,96,0,1,,,,,,0,69,64
221472,note_on,,0,0,1,,,,,,0,67,92
221568,note_off,,96,0,1,,,,,,0,67,64
221568,note_on,,0,0,1,,,,,,0,65,92
221664,note_off,,96,0,1,,,,,,0,65,64
221664,note_on,,0,0,1,,,,,,0,64,92
221760,note_off,,96,0,1,,,,,,0,64,64
221760,note_on,,0,0,1,,,,,,0,65,92
221856,note_off,,96,0,1,,,,,,0,65,64
221856,note_on,,0,0,1,,,,,,0,67,92
221952,note_off,,96,0,1,,,,,,0,67,64
221952,note_on,,0,0,1,,,,,,0,69,92
222048,note_on,,0,0,1,,,,,,0,70,92
222048,note_off,,96,0,1,,,,,,0,69,64
222144,note_off,,96,0,1,,,,,,0,70,64
222144,note_on,,0,0,1,,,,,,0,72,92
222240,note_off,,96,0,1,,,,,,0,72,64
222240,note_on,,0,0,1,,,,,,0,69,92
222336,note_off,,96,0,1,,,,,,0,69,64
222336,note_on,,0,0,1,,,,,,0,65,92
222432,note_off,,96,0,1,,,,,,0,65,64
222432,note_on,,0,0,1,,,,,,0,72,92
222528,note_on,,0,0,1,,,,,,0,74,92
222528,note_off,,96,0,1,,,,,,0,72,64
222624,note_off,,96,0,1,,,,,,0,74,64
222624,note_on,,0,0,1,,,,,,0,70,92
222720,note_off,,96,0,1,,,,,,0,70,64
222720,note_on,,0,0,1,,,,,,0,72,92
222816,note_off,,96,0,1,,,,,,0,72,64
222816,note_on,,0,0,1,,,,,,0,69,92
222912,note_off,,96,0,1,,,,,,0,69,64
222912,note_on,,0,0,1,,,,,,0,65,92
223008,note_off,,96,0,1,,,,,,0,65,64
223008,note_on,,0,0,1,,,,,,0,74,92
223104,note_on,,0,0,1,,,,,,0,75,92
223104,note_off,,96,0,1,,,,,,0,74,64
223200,note_off,,96,0,1,,,,,,0,75,64
223200,note_on,,0,0,1,,,,,,0,72,92
223296,note_off,,96,0,1,,,,,,0,72,64
223296,note_on,,0,0,1,,,,,,0,74,92
223392,note_off,,96,0,1,,,,,,0,74,64
223392,note_on,,0,0,1,,,,,,0,70,92
223488,note_off,,96,0,1,,,,,,0,70,64
223488,note_on,,0,0,1,,,,,,0,65,92
223584,note_off,,96,0,1,,,,,,0,65,64
223584,note_on,,0,0,1,,,,,,0,76,92
223680,note_off,,96,0,1,,,,,,0,76,64
223680,note_on,,0,0,1,,,,,,0,77,92
223776,note_off,,96,0,1,,,,,,0,77,64
223776,note_on,,0,0,1,,,,,,0,74,92
223872,note_off,,96,0,1,,,,,,0,74,64
223872,note_on,,0,0,1,,,,,,0,76,92
223968,note_off,,96,0,1,,,,,,0,76,64
223968,note_on,,0,0,1,,,,,,0,77,92
224064,note_on,,0,0,1,,,,,,0,76,92
224064,note_off,,96,0,1,,,,,,0,77,64
224160,note_on,,0,0,1,,,,,,0,74,92
224160,note_off,,96,0,1,,,,,,0,76,64
224256,note_off,,96,0,1,,,,,,0,74,64
224256,note_on,,0,0,1,,,,,,0,72,92
224352,note_off,,96,0,1,,,,,,0,72,64
224352,note_on,,0,0,1,,,,,,0,70,92
224448,note_off,,96,0,1,,,,,,0,70,64
224448,note_on,,0,0,1,,,,,,0,65,92
224448,note_on,,0,0,1,,,,,,0,69,92
224544,note_off,,96,0,1,,,,,,0,69,64
224544,note_off,,0,0,1,,,,,,0,65,64
224544,note_on,,0,0,1,,,,,,0,69,92
224544,note_on,,0,0,1,,,,,,0,77,92
224640,note_on,,0,0,1,,,,,,0,67,92
224640,note_on,,0,0,1,,,,,,0,71,92
224640,note_off,,96,0,1,,,,,,0,77,64
224640,note_off,,0,0,1,,,,,,0,69,64
224736,note_on,,0,0,1,,,,,,0,65,92
224736,note_off,,96,0,1,,,,,,0,67,64
224832,note_off,,96,0,1,,,,,,0,65,64
224832,note_on,,0,0,1,,,,,,0,64,92
224928,note_off,,96,0,1,,,,,,0,64,64
224928,note_off,,0,0,1,,,,,,0,71,64
224928,note_on,,0,0,1,,,,,,0,71,92
224928,note_on,,0,0,1,,,,,,0,62,92
225024,note_off,,96,0,1,,,,,,0,62,64
225024,note_off,,0,0,1,,,,,,0,71,64
225024,note_on,,0,0,1,,,,,,0,72,92
225024,note_on,,0,0,1,,,,,,0,60,92
225120,note_off,,96,0,1,,,,,,0,60,64
225120,note_on,,0,0,1,,,,,,0,59,92
225216,note_on,,0,0,1,,,,,,0,60,92
225216,note_off,,96,0,1,,,,,,0,59,64
225312,note_off,,96,0,1,,,,,,0,60,64
225312,note_off,,0,0,1,,,,,,0,72,64
225312,note_on,,0,0,1,,,,,,0,71,92
225312,note_on,,0,0,1,,,,,,0,62,92
225408,note_off,,96,0,1,,,,,,0,62,64
225408,note_off,,0,0,1,,,,,,0,71,64
225408,note_on,,0,0,1,,,,,,0,72,92
225408,note_on,,0,0,1,,,,,,0,64,92
225504,note_off,,96,0,1,,,,,,0,64,64
225504,note_off,,0,0,1,,,,,,0,72,64
225504,note_on,,0,0,1,,,,,,0,74,92
225504,note_on,,0,0,1,,,,,,0,65,92
225600,note_on,,0,0,1,,,,,,0,67,92
225600,note_off,,0,0,1,,,,,,0,74,64
225600,note_off,,96,0,1,,,,,,0,65,64
225600,note_on,,0,0,1,,,,,,0,76,92
225696,note_on,,0,0,1,,,,,,0,64,92
225696,note_off,,96,0,1,,,,,,0,67,64
225792,note_off,,96,0,1,,,,,,0,64,64
225792,note_on,,0,0,1,,,,,,0,60,92
225888,note_off,,96,0,1,,,,,,0,60,64
225888,note_on,,0,0,1,,,,,,0,67,92
225984,note_off,,96,0,1,,,,,,0,67,64
225984,note_off,,0,0,1,,,,,,0,76,64
225984,note_on,,0,0,1,,,,,,0,77,92
225984,note_on,,0,0,1,,,,,,0,69,92
226080,note_off,,96,0,1,,,,,,0,69,64
226080,note_on,,0,0,1,,,,,,0,65,92
226176,note_off,,96,0,1,,,,,,0,65,64
226176,note_on,,0,0,1,,,,,,0,67,92
226272,note_on,,0,0,1,,,,,,0,64,92
226272,note_off,,96,0,1,,,,,,0,67,64
226368,note_off,,96,0,1,,,,,,0,64,64
226368,note_off,,0,0,1,,,,,,0,77,64
226368,note_on,,0,0,1,,,,,,0,76,92
226368,note_on,,0,0,1,,,,,,0,60,92
226464,note_off,,96,0,1,,,,,,0,60,64
226464,note_off,,0,0,1,,,,,,0,76,64
226464,note_on,,0,0,1,,,,,,0,77,92
226464,note_on,,0,0,1,,,,,,0,69,92
226560,note_off,,96,0,1,,,,,,0,69,64
226560,note_off,,0,0,1,,,,,,0,77,64
226560,note_on,,0,0,1,,,,,,0,79,92
226560,note_on,,0,0,1,,,,,,0,70,92
226656,note_off,,96,0,1,,,,,,0,70,64
226656,note_on,,0,0,1,,,,,,0,67,92
226752,note_off,,96,0,1,,,,,,0,67,64
226752,note_on,,0,0,1,,,,,,0,69,92
226848,note_off,,96,0,1,,,,,,0,69,64
226848,note_on,,0,0,1,,,,,,0,65,92
226944,note_off,,96,0,1,,,,,,0,65,64
226944,note_off,,0,0,1,,,,,,0,79,64
226944,note_on,,0,0,1,,,,,,0,77,92
226944,note_on,,0,0,1,,,,,,0,60,92
227040,note_off,,96,0,1,,,,,,0,60,64
227040,note_off,,0,0,1,,,,,,0,77,64
227040,note_on,,0,0,1,,,,,,0,79,92
227040,note_on,,0,0,1,,,,,,0,71,92
227136,note_off,,96,0,1,,,,,,0,71,64
227136,note_off,,0,0,1,,,,,,0,79,64
227136,note_on,,0,0,1,,,,,,0,81,92
227136,note_on,,0,0,1,,,,,,0,72,92
227232,note_off,,96,0,1,,,,,,0,72,64
227232,note_on,,0,0,1,,,,,,0,69,92
227328,note_off,,96,0,1,,,,,,0,69,64
227328,note_on,,0,0,1,,,,,,0,71,92
227424,note_off,,96,0,1,,,,,,0,71,64
227424,note_on,,0,0,1,,,,,,0,72,92
227520,note_off,,96,0,1,,,,,,0,72,64
227520,note_off,,0,0,1,,,,,,0,81,64
227520,note_on,,0,0,1,,,,,,0,79,92
227520,note_on,,0,0,1,,,,,,0,71,92
227616,note_off,,96,0,1,,,,,,0,71,64
227616,note_off,,0,0,1,,,,,,0,79,64
227616,note_on,,0,0,1,,,,,,0,77,92
227616,note_on,,0,0,1,,,,,,0,69,92
227712,note_on,,0,0,1,,,,,,0,67,92
227712,note_off,,96,0,1,,,,,,0,69,64
227712,note_on,,0,0,1,,,,,,0,76,92
227712,note_off,,0,0,1,,,,,,0,77,64
227808,note_on,,0,0,1,,,,,,0,65,92
227808,note_off,,96,0,1,,,,,,0,67,64
227808,note_on,,0,0,1,,,,,,0,74,92
227808,note_off,,0,0,1,,,,,,0,76,64
227904,note_off,,96,0,1,,,,,,0,65,64
227904,note_off,,0,0,1,,,,,,0,74,64
227904,note_on,,0,0,1,,,,,,0,67,92
227904,note_on,,0,0,1,,,,,,0,76,92
227904,note_on,,6912,0,2,,,,,,0,60,92
228000,note_on,,0,0,2,,,,,,0,62,92
228000,note_off,,96,0,2,,,,,,0,60,64
228096,note_off,,192,0,1,,,,,,0,76,64
228096,note_off,,0,0,1,,,,,,0,67,64
228096,note_on,,0,0,1,,,,,,0,69,92
228096,note_on,,0,0,1,,,,,,0,77,92
228096,note_on,,0,0,2,,,,,,0,60,92
228096,note_off,,96,0,2,,,,,,0,62,64
228192,note_on,,0,0,2,,,,,,0,58,92
228192,note_off,,96,0,2,,,,,,0,60,64
228288,note_off,,96,0,2,,,,,,0,58,64
228288,note_on,,0,0,1,,,,,,0,79,92
228288,note_on,,0,0,1,,,,,,0,70,92
228288,note_off,,0,0,1,,,,,,0,69,64
228288,note_off,,192,0,1,,,,,,0,77,64
228288,note_on,,0,0,2,,,,,,0,57,92
228384,note_on,,0,0,2,,,,,,0,55,92
228384,note_off,,96,0,2,,,,,,0,57,64
228480,note_on,,0,0,2,,,,,,0,53,92
228480,note_off,,96,0,2,,,,,,0,55,64
228576,note_off,,96,0,2,,,,,,0,53,64
228576,note_on,,0,0,2,,,,,,0,52,92
228672,note_on,,0,0,1,,,,,,0,69,92
228672,note_on,,0,0,2,,,,,,0,53,92
228672,note_off,,384,0,1,,,,,,0,79,64
228672,note_off,,0,0,1,,,,,,0,70,64
228672,note_on,,0,0,1,,,,,,0,77,92
228672,note_off,,96,0,2,,,,,,0,52,64
228768,note_on,,0,0,2,,,,,,0,55,92
228768,note_off,,96,0,2,,,,,,0,53,64
228864,note_off,,0,0,1,,,,,,0,69,64
228864,note_on,,0,0,2,,,,,,0,57,92
228864,note_off,,96,0,2,,,,,,0,55,64
228864,note_on,,0,0,1,,,,,,0,75,92
228864,note_off,,192,0,1,,,,,,0,77,64
228864,note_on,,0,0,1,,,,,,0,67,92
228960,note_on,,0,0,2,,,,,,0,58,92
228960,note_off,,96,0,2,,,,,,0,57,64
229056,note_off,,96,0,2,,,,,,0,58,64
229056,note_off,,192,0,1,,,,,,0,67,64
229056,note_on,,0,0,1,,,,,,0,69,92
229056,note_on,,0,0,2,,,,,,0,60,92
229152,note_on,,0,0,2,,,,,,0,57,92
229152,note_off,,96,0,2,,,,,,0,60,64
229248,note_on,,0,0,1,,,,,,0,74,92
229248,note_on,,0,0,1,,,,,,0,70,92
229248,note_off,,0,0,1,,,,,,0,75,64
229248,note_off,,192,0,1,,,,,,0,69,64
229248,note_on,,0,0,2,,,,,,0,53,92
229248,note_off,,96,0,2,,,,,,0,57,64
229344,note_on,,0,0,2,,,,,,0,60,92
229344,note_off,,96,0,2,,,,,,0,53,64
229440,note_off,,0,0,1,,,,,,0,70,64
229440,note_on,,0,0,2,,,,,,0,62,92
229440,note_off,,96,0,2,,,,,,0,60,64
229440,note_off,,192,0,1,,,,,,0,74,64
229440,note_on,,0,0,1,,,,,,0,67,92
229440,note_on,,0,0,1,,,,,,0,70,92
229536,note_on,,0,0,2,,,,,,0,58,92
229536,note_off,,96,0,2,,,,,,0,62,64
229632,note_off,,96,0,2,,,,,,0,58,64
229632,note_on,,0,0,2,,,,,,0,60,92
229728,note_on,,0,0,2,,,,,,0,57,92
229728,note_off,,96,0,2,,,,,,0,60,64
229824,note_on,,0,0,1,,,,,,0,65,92
229824,note_on,,0,0,1,,,,,,0,69,92
229824,note_on,,0,0,2,,,,,,0,53,92
229824,note_off,,96,0,2,,,,,,0,57,64
229824,note_off,,0,0,1,,,,,,0,67,64
229824,note_off,,384,0,1,,,,,,0,70,64
229920,note_off,,96,0,2,,,,,,0,53,64
229920,note_on,,0,0,2,,,,,,0,62,92
230016,note_off,,96,0,2,,,,,,0,62,64
230016,note_on,,0,0,2,,,,,,0,63,92
230016,note_off,,0,0,1,,,,,,0,65,64
230016,note_off,,192,0,1,,,,,,0,69,64
230016,note_on,,0,0,1,,,,,,0,69,92
230016,note_on,,0,0,1,,,,,,0,72,92
230112,note_off,,96,0,2,,,,,,0,63,64
230112,note_on,,0,0,2,,,,,,0,60,92
230208,note_on,,0,0,2,,,,,,0,62,92
230208,note_off,,96,0,2,,,,,,0,60,64
230304,note_on,,0,0,2,,,,,,0,58,92
230304,note_off,,96,0,2,,,,,,0,62,64
230400,note_on,,0,0,2,,,,,,0,53,92
230400,note_off,,96,0,2,,,,,,0,58,64
230400,note_on,,0,0,1,,,,,,0,67,92
230400,note_off,,0,0,1,,,,,,0,69,64
230400,note_off,,384,0,1,,,,,,0,72,64
230400,note_on,,0,0,1,,,,,,0,70,92
230496,note_off,,96,0,2,,,,,,0,53,64
230496,note_on,,0,0,2,,,,,,0,64,92
230592,note_off,,96,0,2,,,,,,0,64,64
230592,note_on,,0,0,2,,,,,,0,65,92
230592,note_off,,192,0,1,,,,,,0,70,64
230592,note_off,,0,0,1,,,,,,0,67,64
230592,note_on,,0,0,1,,,,,,0,65,92
230592,note_on,,0,0,1,,,,,,0,69,92
230688,note_on,,0,0,2,,,,,,0,62,92
230688,note_off,,96,0,2,,,,,,0,65,64
230784,note_on,,0,0,2,,,,,,0,64,92
230784,note_off,,96,0,2,,,,,,0,62,64
230784,note_on,,0,0,1,,,,,,0,67,92
230784,note_off,,0,0,1,,,,,,0,65,64
230784,note_off,,192,0,1,,,,,,0,69,64
230880,note_off,,96,0,2,,,,,,0,64,64
230880,note_on,,0,0,2,,,,,,0,65,92
230976,note_on,,0,0,2,,,,,,0,64,92
230976,note_off,,96,0,2,,,,,,0,65,64
230976,note_on,,192,0,1,,,,,,0,72,92
231072,note_on,,0,0,2,,,,,,0,62,92
231072,note_off,,96,0,2,,,,,,0,64,64
231168,note_on,,0,0,1,,,,,,0,76,92
231168,note_off,,192,0,1,,,,,,0,72,64
231168,note_off,,96,0,2,,,,,,0,62,64
231168,note_on,,0,0,2,,,,,,0,60,92
231264,note_off,,96,0,2,,,,,,0,60,64
231264,note_on,,0,0,2,,,,,,0,58,92
231360,note_off,,96,0,2,,,,,,0,58,64
231360,note_on,,0,0,2,,,,,,0,57,92
231360,note_on,,0,0,1,,,,,,0,72,92
231360,note_off,,192,0,1,,,,,,0,67,64
231456,note_off,,96,0,2,,,,,,0,57,64
231456,note_on,,0,0,2,,,,,,0,58,92
231552,note_on,,0,0,1,,,,,,0,81,92
231552,note_off,,96,0,2,,,,,,0,58,64
231552,note_on,,0,0,2,,,,,,0,57,92
231552,note_off,,192,0,1,,,,,,0,76,64
231648,note_off,,96,0,2,,,,,,0,57,64
231648,note_on,,0,0,2,,,,,,0,55,92
231744,note_on,,0,0,2,,,,,,0,54,92
231744,note_on,,0,0,1,,,,,,0,79,92
231744,note_off,,192,0,1,,,,,,0,81,64
231744,note_off,,96,0,2,,,,,,0,55,64
231840,note_off,,96,0,2,,,,,,0,54,64
231840,note_on,,0,0,2,,,,,,0,52,92
231936,note_off,,96,0,2,,,,,,0,52,64
231936,note_on,,0,0,2,,,,,,0,50,92
231936,note_on,,0,0,1,,,,,,0,78,92
231936,note_off,,192,0,1,,,,,,0,79,64
232032,note_on,,0,0,1,,,,,,0,76,92
232032,note_off,,96,0,1,,,,,,0,78,64
232032,note_on,,0,0,2,,,,,,0,48,92
232032,note_off,,96,0,2,,,,,,0,50,64
232128,note_on,,0,0,1,,,,,,0,78,92
232128,note_off,,96,0,1,,,,,,0,76,64
232128,note_on,,0,0,2,,,,,,0,50,92
232128,note_off,,96,0,2,,,,,,0,48,64
232224,note_on,,0,0,2,,,,,,0,52,92
232224,note_on,,0,0,1,,,,,,0,79,92
232224,note_off,,96,0,1,,,,,,0,78,64
232224,note_off,,96,0,2,,,,,,0,50,64
232320,note_off,,96,0,2,,,,,,0,52,64
232320,note_on,,0,0,2,,,,,,0,54,92
232320,note_on,,0,0,1,,,,,,0,81,92
232320,note_off,,96,0,1,,,,,,0,79,64
232416,note_off,,96,0,2,,,,,,0,54,64
232416,note_on,,0,0,2,,,,,,0,50,92
232416,note_on,,0,0,1,,,,,,0,78,92
232416,note_off,,96,0,1,,,,,,0,81,64
232512,note_off,,96,0,1,,,,,,0,78,64
232512,note_off,,0,0,1,,,,,,0,72,64
232512,note_on,,0,0,1,,,,,,0,70,92
232512,note_on,,0,0,1,,,,,,0,74,92
232512,note_on,,0,0,2,,,,,,0,55,92
232512,note_off,,96,0,2,,,,,,0,50,64
232608,note_off,,96,0,2,,,,,,0,55,64
232608,note_on,,0,0,2,,,,,,0,57,92
232704,note_off,,192,0,1,,,,,,0,74,64
232704,note_on,,0,0,2,,,,,,0,55,92
232704,note_off,,96,0,2,,,,,,0,57,64
232704,note_on,,0,0,1,,,,,,0,79,92
232800,note_on,,0,0,2,,,,,,0,53,92
232800,note_off,,96,0,2,,,,,,0,55,64
232896,note_off,,192,0,1,,,,,,0,79,64
232896,note_on,,0,0,2,,,,,,0,52,92
232896,note_off,,96,0,2,,,,,,0,53,64
232896,note_on,,0,0,1,,,,,,0,77,92
232992,note_on,,0,0,2,,,,,,0,50,92
232992,note_off,,96,0,2,,,,,,0,52,64
233088,note_on,,0,0,2,,,,,,0,48,92
233088,note_on,,0,0,1,,,,,,0,76,92
233088,note_off,,96,0,2,,,,,,0,50,64
233088,note_off,,192,0,1,,,,,,0,77,64
233184,note_off,,96,0,1,,,,,,0,76,64
233184,note_on,,0,0,1,,,,,,0,74,92
233184,note_on,,0,0,2,,,,,,0,46,92
233184,note_off,,96,0,2,,,,,,0,48,64
233280,note_off,,96,0,1,,,,,,0,74,64
233280,note_on,,0,0,1,,,,,,0,76,92
233280,note_on,,0,0,2,,,,,,0,48,92
233280,note_off,,96,0,2,,,,,,0,46,64
233376,note_off,,96,0,2,,,,,,0,48,64
233376,note_on,,0,0,1,,,,,,0,77,92
233376,note_on,,0,0,2,,,,,,0,50,92
233376,note_off,,96,0,1,,,,,,0,76,64
233472,note_off,,96,0,1,,,,,,0,77,64
233472,note_on,,0,0,1,,,,,,0,79,92
233472,note_off,,96,0,2,,,,,,0,50,64
233472,note_on,,0,0,2,,,,,,0,52,92
233568,note_on,,0,0,2,,,,,,0,48,92
233568,note_off,,96,0,2,,,,,,0,52,64
233568,note_on,,0,0,1,,,,,,0,76,92
233568,note_off,,96,0,1,,,,,,0,79,64
233664,note_on,,0,0,1,,,,,,0,69,92
233664,note_on,,0,0,2,,,,,,0,53,92
233664,note_off,,96,0,2,,,,,,0,48,64
233664,note_off,,0,0,1,,,,,,0,70,64
233664,note_off,,96,0,1,,,,,,0,76,64
233664,note_on,,0,0,1,,,,,,0,72,92
233760,note_on,,0,0,2,,,,,,0,52,92
233760,note_off,,96,0,2,,,,,,0,53,64
233856,note_off,,96,0,2,,,,,,0,52,64
233856,note_on,,0,0,1,,,,,,0,77,92
233856,note_off,,192,0,1,,,,,,0,72,64
233856,note_on,,0,0,2,,,,,,0,53,92
233952,note_off,,96,0,2,,,,,,0,53,64
233952,note_on,,0,0,2,,,,,,0,55,92
234048,note_off,,96,0,2,,,,,,0,55,64
234048,note_on,,0,0,1,,,,,,0,75,92
234048,note_on,,0,0,2,,,,,,0,57,92
234048,note_off,,192,0,1,,,,,,0,77,64
234144,note_off,,96,0,2,,,,,,0,57,64
234144,note_on,,0,0,2,,,,,,0,53,92
234240,note_off,,96,0,2,,,,,,0,53,64
234240,note_on,,0,0,2,,,,,,0,58,92
234240,note_off,,192,0,1,,,,,,0,75,64
234240,note_on,,0,0,1,,,,,,0,74,92
234336,note_on,,0,0,1,,,,,,0,72,92
234336,note_off,,96,0,1,,,,,,0,69,64
234432,note_on,,0,0,1,,,,,,0,70,92
234432,note_off,,96,0,1,,,,,,0,72,64
234528,note_off,,96,0,1,,,,,,0,70,64
234528,note_on,,0,0,1,,,,,,0,69,92
234624,note_off,,96,0,1,,,,,,0,69,64
234624,note_on,,0,0,1,,,,,,0,67,92
234720,note_off,,96,0,1,,,,,,0,67,64
234720,note_on,,0,0,1,,,,,,0,65,92
234816,note_on,,0,0,1,,,,,,0,72,92
234816,note_off,,0,0,1,,,,,,0,74,64
234816,note_on,,0,0,1,,,,,,0,64,92
234816,note_off,,96,0,1,,,,,,0,65,64
234912,note_off,,96,0,1,,,,,,0,72,64
234912,note_on,,0,0,1,,,,,,0,65,92
234912,note_on,,0,0,1,,,,,,0,74,92
234912,note_off,,0,0,1,,,,,,0,64,64
235008,note_off,,96,0,1,,,,,,0,74,64
235008,note_off,,0,0,1,,,,,,0,65,64
235008,note_on,,0,0,1,,,,,,0,64,92
235008,note_on,,0,0,1,,,,,,0,72,92
235104,note_off,,96,0,1,,,,,,0,72,64
235104,note_off,,0,0,1,,,,,,0,64,64
235104,note_on,,0,0,1,,,,,,0,62,92
235104,note_on,,0,0,1,,,,,,0,70,92
235200,note_off,,96,0,1,,,,,,0,70,64
235200,note_off,,0,0,1,,,,,,0,62,64
235200,note_on,,0,0,1,,,,,,0,60,92
235200,note_on,,0,0,1,,,,,,0,69,92
235296,note_off,,1056,0,2,,,,,,0,58,64
235296,note_on,,0,0,2,,,,,,0,58,92
235296,note_off,,96,0,1,,,,,,0,69,64
235296,note_on,,0,0,1,,,,,,0,67,92
235392,note_on,,0,0,2,,,,,,0,57,92
235392,note_on,,0,0,1,,,,,,0,65,92
235392,note_off,,96,0,1,,,,,,0,67,64
235392,note_off,,96,0,2,,,,,,0,58,64
235488,note_off,,96,0,1,,,,,,0,65,64
235488,note_off,,0,0,1,,,,,,0,60,64
235488,note_on,,0,0,1,,,,,,0,60,92
235488,note_on,,0,0,1,,,,,,0,64,92
235584,note_off,,96,0,1,,,,,,0,64,64
235584,note_off,,0,0,1,,,,,,0,60,64
235584,note_on,,0,0,1,,,,,,0,62,92
235584,note_on,,0,0,1,,,,,,0,65,92
235680,note_off,,0,0,1,,,,,,0,62,64
235680,note_off,,96,0,1,,,,,,0,65,64
235680,note_on,,0,0,1,,,,,,0,67,92
235680,note_on,,0,0,1,,,,,,0,64,92
235776,note_off,,0,0,1,,,,,,0,64,64
235776,note_on,,0,0,1,,,,,,0,65,92
235776,note_on,,0,0,1,,,,,,0,69,92
235776,note_off,,96,0,1,,,,,,0,67,64
235872,note_off,,96,0,1,,,,,,0,69,64
235872,note_off,,0,0,1,,,,,,0,65,64
235872,note_on,,0,0,1,,,,,,0,70,92
235872,note_on,,0,0,1,,,,,,0,62,92
235968,note_off,,96,0,1,,,,,,0,70,64
235968,note_off,,0,0,1,,,,,,0,62,64
235968,note_on,,0,0,1,,,,,,0,63,92
235968,note_on,,0,0,1,,,,,,0,72,92
236064,note_on,,0,0,1,,,,,,0,69,92
236064,note_off,,96,0,1,,,,,,0,72,64
236160,note_off,,96,0,1,,,,,,0,69,64
236160,note_off,,0,0,1,,,,,,0,63,64
236160,note_on,,0,0,1,,,,,,0,65,92
236160,note_on,,0,0,2,,,,,,0,57,92
236160,note_on,,0,0,2,,,,,,0,60,92
236160,note_off,,768,0,2,,,,,,0,57,64
236256,note_off,,96,0,1,,,,,,0,65,64
236256,note_on,,0,0,1,,,,,,0,72,92
236352,note_off,,192,0,2,,,,,,0,57,64
236352,note_off,,96,0,1,,,,,,0,72,64
236352,note_on,,0,0,1,,,,,,0,74,92
236352,note_on,,0,0,2,,,,,,0,58,92
236352,note_off,,0,0,2,,,,,,0,60,64
236448,note_on,,0,0,1,,,,,,0,70,92
236448,note_off,,96,0,1,,,,,,0,74,64
236544,note_on,,192,0,2,,,,,,0,53,92
236544,note_on,,0,0,1,,,,,,0,72,92
236544,note_off,,96,0,1,,,,,,0,70,64
236640,note_on,,0,0,1,,,,,,0,69,92
236640,note_off,,96,0,1,,,,,,0,72,64
236736,note_off,,192,0,2,,,,,,0,58,64
236736,note_off,,96,0,1,,,,,,0,69,64
236736,note_on,,0,0,2,,,,,,0,57,92
236736,note_on,,0,0,1,,,,,,0,65,92
236832,note_on,,0,0,2,,,,,,0,58,92
236832,note_off,,96,0,2,,,,,,0,57,64
236832,note_on,,0,0,1,,,,,,0,74,92
236832,note_off,,96,0,1,,,,,,0,65,64
236928,note_off,,96,0,2,,,,,,0,58,64
236928,note_off,,96,0,1,,,,,,0,74,64
236928,note_on,,0,0,1,,,,,,0,75,92
236928,note_on,,0,0,2,,,,,,0,60,92
237024,note_off,,96,0,1,,,,,,0,75,64
237024,note_on,,0,0,1,,,,,,0,72,92
237120,note_off,,192,0,2,,,,,,0,53,64
237120,note_on,,0,0,2,,,,,,0,46,92
237120,note_off,,96,0,1,,,,,,0,72,64
237120,note_on,,0,0,1,,,,,,0,74,92
237216,note_off,,96,0,1,,,,,,0,74,64
237216,note_on,,0,0,1,,,,,,0,70,92
237312,note_on,,0,0,2,,,,,,0,58,92
237312,note_off,,192,0,2,,,,,,0,60,64
237312,note_off,,96,0,1,,,,,,0,70,64
237312,note_on,,0,0,1,,,,,,0,65,92
237408,note_off,,96,0,1,,,,,,0,65,64
237408,note_on,,0,0,1,,,,,,0,76,92
237504,note_off,,192,0,2,,,,,,0,58,64
237504,note_on,,0,0,1,,,,,,0,77,92
237504,note_on,,0,0,2,,,,,,0,57,92
237504,note_off,,96,0,1,,,,,,0,76,64
237600,note_off,,96,0,1,,,,,,0,77,64
237600,note_on,,0,0,1,,,,,,0,74,92
237696,note_on,,0,0,2,,,,,,0,55,92
237696,note_off,,192,0,2,,,,,,0,57,64
237696,note_on,,0,0,2,,,,,,0,48,92
237696,note_on,,0,0,1,,,,,,0,76,92
237696,note_off,,96,0,1,,,,,,0,74,64
237696,note_off,,0,0,2,,,,,,0,46,64
237792,note_on,,0,0,1,,,,,,0,77,92
237792,note_off,,96,0,1,,,,,,0,76,64
237888,note_on,,0,0,1,,,,,,0,76,92
237888,note_off,,96,0,1,,,,,,0,77,64
237888,note_off,,192,0,2,,,,,,0,48,64
237888,note_on,,0,0,2,,,,,,0,50,92
237984,note_off,,96,0,1,,,,,,0,76,64
237984,note_on,,0,0,1,,,,,,0,74,92
238080,note_on,,0,0,2,,,,,,0,52,92
238080,note_off,,192,0,2,,,,,,0,50,64
238080,note_on,,0,0,1,,,,,,0,72,92
238080,note_off,,96,0,1,,,,,,0,74,64
238176,note_on,,0,0,1,,,,,,0,70,92
238176,note_off,,96,0,1,,,,,,0,72,64
238272,note_off,,96,0,1,,,,,,0,70,64
238272,note_on,,0,0,1,,,,,,0,69,92
238272,note_on,,0,0,2,,,,,,0,53,92
238272,note_off,,192,0,2,,,,,,0,52,64
238272,note_off,,0,0,2,,,,,,0,55,64
238368,note_on,,96,0,2,,,,,,0,55,92
238464,note_off,,0,0,2,,,,,,0,53,64
238464,note_off,,96,0,2,,,,,,0,55,64
238464,note_on,,192,0,1,,,,,,0,65,92
238464,note_on,,0,0,2,,,,,,0,53,92
238560,note_off,,96,0,2,,,,,,0,53,64
238560,note_on,,0,0,2,,,,,,0,52,92
238656,note_off,,96,0,2,,,,,,0,52,64
238656,note_on,,0,0,2,,,,,,0,50,92
238656,note_off,,192,0,1,,,,,,0,65,64
238656,note_on,,0,0,1,,,,,,0,64,92
238752,note_on,,0,0,2,,,,,,0,48,92
238752,note_off,,96,0,2,,,,,,0,50,64
238848,note_on,,0,0,2,,,,,,0,47,92
238848,note_off,,96,0,2,,,,,,0,48,64
238848,note_off,,192,0,1,,,,,,0,64,64
238848,note_on,,0,0,1,,,,,,0,62,92
238944,note_on,,0,0,2,,,,,,0,45,92
238944,note_off,,96,0,1,,,,,,0,62,64
238944,note_on,,0,0,1,,,,,,0,60,92
238944,note_off,,96,0,2,,,,,,0,47,64
239040,note_on,,0,0,1,,,,,,0,62,92
239040,note_off,,96,0,1,,,,,,0,60,64
239040,note_on,,0,0,2,,,,,,0,47,92
239040,note_off,,96,0,2,,,,,,0,45,64
239136,note_off,,96,0,1,,,,,,0,62,64
239136,note_on,,0,0,1,,,,,,0,64,92
239136,note_on,,0,0,2,,,,,,0,48,92
239136,note_off,,96,0,2,,,,,,0,47,64
239232,note_off,,96,0,2,,,,,,0,48,64
239232,note_on,,0,0,2,,,,,,0,50,92
239232,note_on,,0,0,1,,,,,,0,65,92
239232,note_off,,96,0,1,,,,,,0,64,64
239328,note_on,,0,0,1,,,,,,0,62,92
239328,note_off,,96,0,1,,,,,,0,65,64
239328,note_off,,96,0,2,,,,,,0,50,64
239328,note_on,,0,0,2,,,,,,0,47,92
239424,note_off,,0,0,1,,,,,,0,69,64
239424,note_on,,0,0,1,,,,,,0,67,92
239424,note_on,,0,0,1,,,,,,0,59,92
239424,note_off,,96,0,1,,,,,,0,62,64
239424,note_on,,0,0,2,,,,,,0,52,92
239424,note_off,,96,0,2,,,,,,0,47,64
239520,note_on,,0,0,2,,,,,,0,53,92
239520,note_off,,96,0,2,,,,,,0,52,64
239616,note_off,,96,0,2,,,,,,0,53,64
239616,note_off,,192,0,1,,,,,,0,59,64
239616,note_on,,0,0,2,,,,,,0,52,92
239616,note_on,,0,0,1,,,,,,0,64,92
239712,note_off,,96,0,2,,,,,,0,52,64
239712,note_on,,0,0,2,,,,,,0,50,92
239808,note_on,,0,0,1,,,,,,0,62,92
239808,note_off,,96,0,2,,,,,,0,50,64
239808,note_on,,0,0,2,,,,,,0,48,92
239808,note_off,,192,0,1,,,,,,0,64,64
239904,note_off,,96,0,2,,,,,,0,48,64
239904,note_on,,0,0,2,,,,,,0,47,92
240000,note_on,,0,0,1,,,,,,0,60,92
240000,note_off,,96,0,2,,,,,,0,47,64
240000,note_on,,0,0,2,,,,,,0,45,92
240000,note_off,,192,0,1,,,,,,0,62,64
240096,note_on,,0,0,2,,,,,,0,43,92
240096,note_on,,0,0,1,,,,,,0,59,92
240096,note_off,,96,0,2,,,,,,0,45,64
240096,note_off,,96,0,1,,,,,,0,60,64
240192,note_on,,0,0,1,,,,,,0,60,92
240192,note_on,,0,0,2,,,,,,0,45,92
240192,note_off,,96,0,2,,,,,,0,43,64
240192,note_off,,96,0,1,,,,,,0,59,64
240288,note_off,,96,0,1,,,,,,0,60,64
240288,note_on,,0,0,1,,,,,,0,62,92
240288,note_on,,0,0,2,,,,,,0,47,92
240288,note_off,,96,0,2,,,,,,0,45,64
240384,note_off,,96,0,1,,,,,,0,62,64
240384,note_on,,0,0,1,,,,,,0,64,92
240384,note_on,,0,0,2,,,,,,0,48,92
240384,note_off,,96,0,2,,,,,,0,47,64
240480,note_on,,0,0,1,,,,,,0,60,92
240480,note_off,,96,0,2,,,,,,0,48,64
240480,note_off,,96,0,1,,,,,,0,64,64
240480,note_on,,0,0,2,,,,,,0,45,92
240576,note_off,,96,0,2,,,,,,0,45,64
240576,note_on,,0,0,2,,,,,,0,50,92
240576,note_off,,96,0,1,,,,,,0,60,64
240576,note_off,,0,0,1,,,,,,0,67,64
240576,note_on,,0,0,1,,,,,,0,57,92
240576,note_on,,0,0,1,,,,,,0,65,92
240672,note_off,,96,0,2,,,,,,0,50,64
240672,note_on,,0,0,2,,,,,,0,48,92
240768,note_on,,0,0,2,,,,,,0,50,92
240768,note_off,,192,0,1,,,,,,0,57,64
240768,note_on,,0,0,1,,,,,,0,62,92
240768,note_off,,96,0,2,,,,,,0,48,64
240864,note_on,,0,0,2,,,,,,0,52,92
240864,note_off,,96,0,2,,,,,,0,50,64
240960,note_off,,192,0,1,,,,,,0,62,64
240960,note_on,,0,0,1,,,,,,0,60,92
240960,note_on,,0,0,2,,,,,,0,53,92
240960,note_off,,96,0,2,,,,,,0,52,64
241056,note_off,,96,0,2,,,,,,0,53,64
241056,note_on,,0,0,2,,,,,,0,50,92
241152,note_on,,0,0,2,,,,,,0,55,92
241152,note_off,,192,0,1,,,,,,0,60,64
241152,note_on,,0,0,1,,,,,,0,59,92
241152,note_off,,96,0,2,,,,,,0,50,64
241248,note_off,,96,0,1,,,,,,0,65,64
241248,note_on,,0,0,1,,,,,,0,69,92
241344,note_off,,96,0,1,,,,,,0,69,64
241344,note_on,,0,0,1,,,,,,0,67,92
241440,note_on,,0,0,1,,,,,,0,65,92
241440,note_off,,96,0,1,,,,,,0,67,64
241536,note_off,,96,0,1,,,,,,0,65,64
241536,note_on,,0,0,1,,,,,,0,64,92
241632,note_on,,0,0,1,,,,,,0,62,92
241632,note_off,,96,0,1,,,,,,0,64,64
241728,note_on,,0,0,1,,,,,,0,60,92
241728,note_off,,96,0,1,,,,,,0,62,64
241728,note_off,,0,0,1,,,,,,0,59,64
241728,note_on,,0,0,1,,,,,,0,64,92
241824,note_on,,0,0,1,,,,,,0,62,92
241824,note_on,,0,0,1,,,,,,0,59,92
241824,note_off,,0,0,1,,,,,,0,60,64
241824,note_off,,96,0,1,,,,,,0,64,64
241920,note_on,,0,0,1,,,,,,0,64,92
241920,note_off,,96,0,1,,,,,,0,62,64
241920,note_on,,0,0,1,,,,,,0,60,92
241920,note_off,,0,0,1,,,,,,0,59,64
242016,note_on,,0,0,1,,,,,,0,65,92
242016,note_on,,0,0,1,,,,,,0,62,92
242016,note_off,,0,0,1,,,,,,0,60,64
242016,note_off,,96,0,1,,,,,,0,64,64
242112,note_off,,96,0,1,,,,,,0,65,64
242112,note_on,,0,0,1,,,,,,0,67,92
242112,note_on,,0,0,1,,,,,,0,64,92
242112,note_off,,0,0,1,,,,,,0,62,64
242208,note_on,,0,0,1,,,,,,0,69,92
242208,note_on,,0,0,1,,,,,,0,60,92
242208,note_off,,0,0,1,,,,,,0,64,64
242208,note_off,,96,0,1,,,,,,0,67,64
242304,note_on,,0,0,1,,,,,,0,71,92
242304,note_on,,0,0,1,,,,,,0,62,92
242304,note_off,,0,0,1,,,,,,0,60,64
242304,note_off,,96,0,1,,,,,,0,69,64
242400,note_off,,96,0,1,,,,,,0,71,64
242400,note_off,,0,0,1,,,,,,0,62,64
242400,note_on,,0,0,1,,,,,,0,60,92
242400,note_on,,0,0,1,,,,,,0,69,92
242496,note_on,,0,0,1,,,,,,0,71,92
242496,note_off,,96,0,1,,,,,,0,69,64
242496,note_off,,0,0,1,,,,,,0,60,64
242496,note_on,,0,0,1,,,,,,0,62,92
242592,note_on,,0,0,1,,,,,,0,72,92
242592,note_off,,0,0,1,,,,,,0,62,64
242592,note_off,,96,0,1,,,,,,0,71,64
242592,note_on,,0,0,1,,,,,,0,64,92
242688,note_off,,96,0,1,,,,,,0,72,64
242688,note_off,,0,0,1,,,,,,0,64,64
242688,note_on,,0,0,1,,,,,,0,65,92
242688,note_on,,0,0,1,,,,,,0,74,92
242784,note_on,,0,0,1,,,,,,0,71,92
242784,note_on,,0,0,1,,,,,,0,62,92
242784,note_off,,96,0,1,,,,,,0,74,64
242784,note_off,,0,0,1,,,,,,0,65,64
242880,note_off,,0,0,1,,,,,,0,62,64
242880,note_off,,96,0,1,,,,,,0,71,64
242880,note_on,,0,0,1,,,,,,0,72,92
242880,note_on,,0,0,1,,,,,,0,64,92
242976,note_off,,0,0,1,,,,,,0,72,64
242976,note_off,,96,0,1,,,,,,0,64,64
242976,note_on,,0,0,1,,,,,,0,71,92
242976,note_on,,0,0,1,,,,,,0,62,92
243072,note_off,,96,0,1,,,,,,0,62,64
243072,note_off,,0,0,1,,,,,,0,71,64
243072,note_on,,0,0,1,,,,,,0,72,92
243072,note_on,,0,0,1,,,,,,0,64,92
243168,note_on,,0,0,1,,,,,,0,74,92
243168,note_off,,96,0,1,,,,,,0,64,64
243168,note_off,,0,0,1,,,,,,0,72,64
243168,note_on,,0,0,1,,,,,,0,65,92
243264,note_off,,2112,0,2,,,,,,0,55,64
243264,note_off,,96,0,1,,,,,,0,65,64
243264,note_off,,0,0,1,,,,,,0,74,64
243264,note_on,,0,0,1,,,,,,0,76,92
243264,note_on,,0,0,1,,,,,,0,67,92
243360,note_off,,0,0,1,,,,,,0,76,64
243360,note_off,,96,0,1,,,,,,0,67,64
243360,note_on,,0,0,1,,,,,,0,69,92
243360,note_on,,0,0,1,,,,,,0,78,92
243456,note_on,,0,0,1,,,,,,0,79,92
243456,note_on,,0,0,1,,,,,,0,71,92
243456,note_off,,0,0,1,,,,,,0,78,64
243456,note_on,,192,0,2,,,,,,0,67,92
243456,note_off,,96,0,1,,,,,,0,69,64
243552,note_off,,96,0,2,,,,,,0,67,64
243552,note_on,,0,0,2,,,,,,0,69,92
243648,note_off,,96,0,2,,,,,,0,69,64
243648,note_on,,0,0,2,,,,,,0,67,92
243744,note_off,,96,0,2,,,,,,0,67,64
243744,note_on,,0,0,2,,,,,,0,65,92
243840,note_off,,96,0,2,,,,,,0,65,64
243840,note_on,,0,0,2,,,,,,0,64,92
243936,note_off,,96,0,2,,,,,,0,64,64
243936,note_on,,0,0,2,,,,,,0,62,92
244032,note_off,,96,0,2,,,,,,0,62,64
244032,note_on,,0,0,2,,,,,,0,64,92
244032,note_on,,0,0,1,,,,,,0,72,92
244032,note_off,,576,0,1,,,,,,0,71,64
244128,note_off,,96,0,1,,,,,,0,79,64
244128,note_on,,0,0,1,,,,,,0,81,92
244128,note_on,,0,0,2,,,,,,0,65,92
244128,note_off,,96,0,2,,,,,,0,64,64
244224,note_on,,0,0,2,,,,,,0,64,92
244224,note_off,,96,0,2,,,,,,0,65,64
244224,note_on,,0,0,1,,,,,,0,79,92
244224,note_off,,0,0,1,,,,,,0,72,64
244224,note_off,,96,0,1,,,,,,0,81,64
244320,note_off,,96,0,2,,,,,,0,64,64
244320,note_on,,0,0,1,,,,,,0,77,92
244320,note_off,,96,0,1,,,,,,0,79,64
244320,note_on,,0,0,2,,,,,,0,62,92
244416,note_off,,96,0,2,,,,,,0,62,64
244416,note_on,,0,0,2,,,,,,0,60,92
244416,note_on,,0,0,1,,,,,,0,76,92
244416,note_off,,96,0,1,,,,,,0,77,64
244512,note_off,,96,0,2,,,,,,0,60,64
244512,note_on,,0,0,2,,,,,,0,59,92
244512,note_off,,96,0,1,,,,,,0,76,64
244512,note_on,,0,0,1,,,,,,0,74,92
244608,note_on,,0,0,1,,,,,,0,72,92
244608,note_off,,96,0,1,,,,,,0,74,64
244608,note_off,,96,0,2,,,,,,0,59,64
244608,note_on,,0,0,2,,,,,,0,57,92
244704,note_on,,0,0,1,,,,,,0,71,92
244704,note_off,,96,0,1,,,,,,0,72,64
244800,note_on,,0,0,1,,,,,,0,72,92
244800,note_off,,96,0,1,,,,,,0,71,64
244800,note_on,,192,0,2,,,,,,0,60,92
244896,note_on,,0,0,1,,,,,,0,74,92
244896,note_off,,96,0,1,,,,,,0,72,64
244992,note_off,,192,0,2,,,,,,0,57,64
244992,note_on,,0,0,2,,,,,,0,57,92
244992,note_off,,96,0,1,,,,,,0,74,64
244992,note_on,,0,0,1,,,,,,0,76,92
245088,note_off,,96,0,1,,,,,,0,76,64
245088,note_on,,0,0,1,,,,,,0,77,92
245184,note_on,,0,0,2,,,,,,0,52,92
245184,note_on,,0,0,1,,,,,,0,79,92
245184,note_off,,192,0,2,,,,,,0,57,64
245184,note_off,,96,0,1,,,,,,0,77,64
245280,note_off,,96,0,1,,,,,,0,79,64
245280,note_on,,0,0,1,,,,,,0,76,92
245376,note_off,,96,0,1,,,,,,0,76,64
245376,note_on,,0,0,1,,,,,,0,72,92
245376,note_off,,192,0,2,,,,,,0,60,64
245376,note_on,,0,0,2,,,,,,0,60,92
245472,note_off,,96,0,1,,,,,,0,72,64
245472,note_on,,0,0,1,,,,,,0,79,92
245568,note_off,,192,0,2,,,,,,0,52,64
245568,note_off,,96,0,1,,,,,,0,79,64
245568,note_on,,0,0,2,,,,,,0,53,92
245568,note_on,,0,0,1,,,,,,0,81,92
245664,note_on,,0,0,1,,,,,,0,77,92
245664,note_off,,96,0,1,,,,,,0,81,64
245760,note_on,,0,0,2,,,,,,0,52,92
245760,note_off,,192,0,2,,,,,,0,53,64
245760,note_off,,96,0,1,,,,,,0,77,64
245760,note_on,,0,0,1,,,,,,0,79,92
245856,note_off,,96,0,1,,,,,,0,79,64
245856,note_on,,0,0,1,,,,,,0,76,92
245952,note_off,,192,0,2,,,,,,0,60,64
245952,note_off,,96,0,1,,,,,,0,76,64
245952,note_on,,0,0,2,,,,,,0,55,92
245952,note_on,,0,0,1,,,,,,0,72,92
246048,note_on,,0,0,1,,,,,,0,81,92
246048,note_on,,0,0,2,,,,,,0,48,92
246048,note_off,,96,0,2,,,,,,0,52,64
246048,note_off,,96,0,1,,,,,,0,72,64
246144,note_off,,96,0,1,,,,,,0,81,64
246144,note_on,,0,0,2,,,,,,0,50,92
246144,note_on,,0,0,1,,,,,,0,82,92
246144,note_off,,96,0,2,,,,,,0,48,64
246240,note_on,,0,0,1,,,,,,0,79,92
246240,note_off,,96,0,1,,,,,,0,82,64
246240,note_off,,96,0,2,,,,,,0,50,64
246240,note_on,,0,0,2,,,,,,0,52,92
246336,note_off,,96,0,2,,,,,,0,52,64
246336,note_off,,0,0,2,,,,,,0,55,64
246336,note_on,,0,0,2,,,,,,0,53,92
246336,note_on,,0,0,1,,,,,,0,81,92
246336,note_off,,96,0,1,,,,,,0,79,64
246432,note_on,,0,0,1,,,,,,0,77,92
246432,note_off,,96,0,1,,,,,,0,81,64
246528,note_off,,96,0,1,,,,,,0,77,64
246528,note_on,,192,0,2,,,,,,0,57,92
246528,note_on,,0,0,1,,,,,,0,72,92
246624,note_on,,0,0,2,,,,,,0,50,92
246624,note_off,,96,0,2,,,,,,0,53,64
246624,note_on,,0,0,1,,,,,,0,83,92
246624,note_off,,96,0,1,,,,,,0,72,64
246720,note_off,,96,0,2,,,,,,0,50,64
246720,note_on,,0,0,1,,,,,,0,84,92
246720,note_off,,96,0,1,,,,,,0,83,64
246720,note_on,,0,0,2,,,,,,0,52,92
246816,note_off,,96,0,1,,,,,,0,84,64
246816,note_off,,96,0,2,,,,,,0,52,64
246816,note_on,,0,0,1,,,,,,0,81,92
246816,note_on,,0,0,2,,,,,,0,53,92
246912,note_off,,96,0,2,,,,,,0,53,64
246912,note_off,,0,0,2,,,,,,0,57,64
246912,note_on,,0,0,2,,,,,,0,55,92
246912,note_off,,96,0,1,,,,,,0,81,64
246912,note_on,,0,0,1,,,,,,0,83,92
247008,note_on,,96,0,2,,,,,,0,54,92
247008,note_off,,96,0,1,,,,,,0,83,64
247008,note_on,,0,0,1,,,,,,0,84,92
247104,note_off,,96,0,1,,,,,,0,84,64
247104,note_off,,0,0,2,,,,,,0,55,64
247104,note_on,,0,0,2,,,,,,0,55,92
247104,note_on,,0,0,1,,,,,,0,83,92
247104,note_off,,96,0,2,,,,,,0,54,64
247200,note_on,,0,0,1,,,,,,0,81,92
247200,note_off,,96,0,1,,,,,,0,83,64
247200,note_on,,0,0,2,,,,,,0,57,92
247200,note_off,,96,0,2,,,,,,0,55,64
247296,note_off,,96,0,2,,,,,,0,57,64
247296,note_off,,96,0,1,,,,,,0,81,64
247296,note_on,,0,0,2,,,,,,0,59,92
247296,note_on,,0,0,1,,,,,,0,79,92
247392,note_on,,0,0,1,,,,,,0,77,92
247392,note_off,,96,0,1,,,,,,0,79,64
247392,note_on,,0,0,2,,,,,,0,55,92
247392,note_off,,96,0,2,,,,,,0,59,64
247488,note_off,,96,0,1,,,,,,0,77,64
247488,note_on,,0,0,1,,,,,,0,76,92
247488,note_on,,0,0,2,,,,,,0,60,92
247488,note_off,,96,0,2,,,,,,0,55,64
247680,note_on,,0,0,1,,,,,,0,77,92
247680,note_off,,192,0,1,,,,,,0,76,64
247680,note_on,,0,0,2,,,,,,0,53,92
247680,note_off,,192,0,2,,,,,,0,60,64
247680,note_on,,0,0,1,,,,,,0,74,92
247872,note_on,,0,0,2,,,,,,0,55,92
247872,note_on,,0,0,1,,,,,,0,74,92
247872,note_on,,0,0,1,,,,,,0,71,92
247872,note_off,,0,0,1,,,,,,0,74,64
247872,note_off,,192,0,1,,,,,,0,77,64
247872,note_off,,192,0,2,,,,,,0,53,64
248064,note_on,,0,0,1,,,,,,0,64,92
248064,note_on,,0,0,1,,,,,,0,67,92
248064,note_on,,0,0,1,,,,,,0,72,92
248064,note_off,,0,0,1,,,,,,0,71,64
248064,note_on,,0,0,2,,,,,,0,48,92
248064,note_off,,192,0,2,,,,,,0,55,64
248064,note_off,,192,0,1,,,,,,0,74,64
248640,note_on,,0,0,2,,,,,,0,48,92
248640,note_off,,576,0,2,,,,,,0,48,64
248640,note_off,,0,0,1,,,,,,0,67,64
248640,note_off,,0,0,1,,,,,,0,72,64
248640,note_off,,576,0,1,,,,,,0,64,64
248736,note_off,,96,0,2,,,,,,0,48,64
248736,note_on,,0,0,2,,,,,,0,47,92
248832,note_off,,96,0,2,,,,,,0,47,64
248832,note_on,,0,0,2,,,,,,0,48,92
248928,note_off,,96,0,2,,,,,,0,48,64
248928,note_on,,0,0,2,,,,,,0,50,92
249024,note_off,,96,0,2,,,,,,0,50,64
249024,note_on,,0,0,2,,,,,,0,52,92
249120,note_on,,0,0,2,,,,,,0,53,92
249120,note_off,,96,0,2,,,,,,0,52,64
249216,note_off,,96,0,2,,,,,,0,53,64
249216,note_on,,0,0,2,,,,,,0,55,92
249312,note_off,,96,0,2,,,,,,0,55,64
249312,note_on,,0,0,2,,,,,,0,57,92
249408,note_off,,96,0,2,,,,,,0,57,64
249408,note_on,,0,0,2,,,,,,0,55,92
249504,note_off,,96,0,2,,,,,,0,55,64
249504,note_on,,0,0,2,,,,,,0,53,92
249600,note_off,,96,0,2,,,,,,0,53,64
249600,note_on,,0,0,2,,,,,,0,52,92
249696,note_off,,96,0,2,,,,,,0,52,64
249696,note_on,,0,0,2,,,,,,0,50,92
249792,note_on,,0,0,2,,,,,,0,48,92
249792,note_off,,96,0,2,,,,,,0,50,64
249888,note_on,,0,0,2,,,,,,0,52,92
249888,note_off,,96,0,2,,,,,,0,48,64
249984,note_off,,96,0,2,,,,,,0,52,64
249984,note_on,,0,0,2,,,,,,0,55,92
250080,note_off,,96,0,2,,,,,,0,55,64
250080,note_on,,0,0,2,,,,,,0,48,92
250176,note_off,,96,0,2,,,,,,0,48,64
250176,note_on,,0,0,2,,,,,,0,47,92
250272,note_off,,96,0,2,,,,,,0,47,64
250272,note_on,,0,0,2,,,,,,0,50,92
250368,note_on,,0,0,2,,,,,,0,48,92
250368,note_off,,96,0,2,,,,,,0,50,64
250464,note_off,,96,0,2,,,,,,0,48,64
250464,note_on,,0,0,2,,,,,,0,52,92
250560,note_off,,96,0,2,,,,,,0,52,64
250560,note_on,,0,0,2,,,,,,0,55,92
250656,note_off,,96,0,2,,,,,,0,55,64
250656,note_on,,0,0,2,,,,,,0,46,92
250752,note_off,,96,0,2,,,,,,0,46,64
250752,note_on,,0,0,2,,,,,,0,45,92
250848,note_on,,0,0,2,,,,,,0,48,92
250848,note_off,,96,0,2,,,,,,0,45,64
250944,note_on,,0,0,2,,,,,,0,46,92
250944,note_off,,96,0,2,,,,,,0,48,64
251040,note_on,,0,0,2,,,,,,0,52,92
251040,note_off,,96,0,2,,,,,,0,46,64
251136,note_off,,96,0,2,,,,,,0,52,64
251136,note_on,,0,0,2,,,,,,0,55,92
251232,note_off,,96,0,2,,,,,,0,55,64
251232,note_on,,0,0,2,,,,,,0,45,92
251328,note_off,,96,0,2,,,,,,0,45,64
251328,note_on,,0,0,2,,,,,,0,43,92
251424,note_on,,0,0,2,,,,,,0,46,92
251424,note_off,,96,0,2,,,,,,0,43,64
251520,note_on,,0,0,2,,,,,,0,45,92
251520,note_off,,96,0,2,,,,,,0,46,64
251616,note_off,,96,0,2,,,,,,0,45,64
251616,note_on,,0,0,2,,,,,,0,41,92
251712,note_off,,96,0,2,,,,,,0,41,64
251712,note_on,,0,0,2,,,,,,0,43,92
251808,note_off,,96,0,2,,,,,,0,43,64
251808,note_on,,0,0,2,,,,,,0,45,92
251904,note_off,,96,0,2,,,,,,0,45,64
251904,note_on,,0,0,2,,,,,,0,46,92
252000,note_on,,0,0,2,,,,,,0,48,92
252000,note_off,,96,0,2,,,,,,0,46,64
252096,note_on,,0,0,2,,,,,,0,53,92
252096,note_on,,0,0,2,,,,,,0,50,92
252096,note_off,,96,0,2,,,,,,0,48,64
252192,note_off,,96,0,2,,,,,,0,53,64
252192,note_on,,0,0,2,,,,,,0,52,92
252288,note_off,,96,0,2,,,,,,0,52,64
252288,note_off,,0,0,2,,,,,,0,50,64
252288,note_on,,0,0,2,,,,,,0,48,92
252288,note_on,,0,0,2,,,,,,0,53,92
252384,note_on,,0,0,2,,,,,,0,55,92
252384,note_off,,96,0,2,,,,,,0,53,64
252480,note_on,,0,0,2,,,,,,0,57,92
252480,note_on,,0,0,2,,,,,,0,46,92
252480,note_off,,96,0,2,,,,,,0,55,64
252480,note_off,,0,0,2,,,,,,0,48,64
252576,note_off,,96,0,2,,,,,,0,57,64
252576,note_on,,0,0,2,,,,,,0,58,92
252672,note_on,,0,0,2,,,,,,0,60,92
252672,note_off,,96,0,2,,,,,,0,58,64
252768,note_on,,0,0,2,,,,,,0,62,92
252768,note_off,,96,0,2,,,,,,0,60,64
252864,note_on,,0,0,2,,,,,,0,45,92
252864,note_on,,0,0,2,,,,,,0,60,92
252864,note_off,,96,0,2,,,,,,0,62,64
252864,note_off,,0,0,2,,,,,,0,46,64
252960,note_off,,96,0,2,,,,,,0,60,64
252960,note_on,,0,0,2,,,,,,0,58,92
253056,note_off,,96,0,2,,,,,,0,58,64
253056,note_off,,0,0,2,,,,,,0,45,64
253056,note_on,,0,0,2,,,,,,0,43,92
253056,note_on,,0,0,2,,,,,,0,57,92
253152,note_on,,0,0,2,,,,,,0,55,92
253152,note_off,,96,0,2,,,,,,0,57,64
253248,note_off,,96,0,2,,,,,,0,55,64
253248,note_off,,0,0,2,,,,,,0,43,64
253248,note_on,,0,0,2,,,,,,0,45,92
253248,note_on,,0,0,2,,,,,,0,53,92
253344,note_off,,96,0,2,,,,,,0,53,64
253344,note_on,,0,0,2,,,,,,0,57,92
253440,note_off,,96,0,2,,,,,,0,57,64
253440,note_on,,0,0,2,,,,,,0,60,92
253440,note_off,,0,0,2,,,,,,0,45,64
253440,note_on,,0,0,2,,,,,,0,41,92
253536,note_on,,0,0,2,,,,,,0,53,92
253536,note_off,,96,0,2,,,,,,0,60,64
253632,note_off,,96,0,2,,,,,,0,53,64
253632,note_off,,0,0,2,,,,,,0,41,64
253632,note_on,,0,0,2,,,,,,0,52,92
253632,note_on,,0,0,2,,,,,,0,43,92
253728,note_off,,96,0,2,,,,,,0,52,64
253728,note_on,,0,0,2,,,,,,0,55,92
253824,note_off,,96,0,2,,,,,,0,55,64
253824,note_off,,0,0,2,,,,,,0,43,64
253824,note_on,,0,0,2,,,,,,0,45,92
253824,note_on,,0,0,2,,,,,,0,53,92
253920,note_off,,96,0,2,,,,,,0,53,64
253920,note_on,,0,0,2,,,,,,0,57,92
254016,note_off,,96,0,2,,,,,,0,57,64
254016,note_off,,0,0,2,,,,,,0,45,64
254016,note_on,,0,0,2,,,,,,0,41,92
254016,note_on,,0,0,2,,,,,,0,60,92
254112,note_on,,0,0,2,,,,,,0,51,92
254112,note_off,,96,0,2,,,,,,0,60,64
254208,note_off,,96,0,2,,,,,,0,51,64
254208,note_off,,0,0,2,,,,,,0,41,64
254208,note_on,,0,0,2,,,,,,0,46,92
254208,note_on,,0,0,2,,,,,,0,50,92
254304,note_off,,96,0,2,,,,,,0,50,64
254304,note_on,,0,0,2,,,,,,0,53,92
254400,note_off,,96,0,2,,,,,,0,53,64
254400,note_off,,0,0,2,,,,,,0,46,64
254400,note_on,,0,0,2,,,,,,0,48,92
254400,note_on,,0,0,2,,,,,,0,51,92
254496,note_on,,0,0,2,,,,,,0,57,92
254496,note_off,,96,0,2,,,,,,0,51,64
254592,note_on,,0,0,2,,,,,,0,41,92
254592,note_on,,0,0,2,,,,,,0,60,92
254592,note_off,,96,0,2,,,,,,0,57,64
254592,note_off,,0,0,2,,,,,,0,48,64
254688,note_off,,96,0,2,,,,,,0,60,64
254688,note_on,,0,0,2,,,,,,0,50,92
254784,note_off,,96,0,2,,,,,,0,50,64
254784,note_off,,0,0,2,,,,,,0,41,64
254784,note_on,,0,0,2,,,,,,0,45,92
254784,note_on,,0,0,2,,,,,,0,48,92
254880,note_off,,96,0,2,,,,,,0,48,64
254880,note_on,,0,0,2,,,,,,0,51,92
254976,note_on,,0,0,2,,,,,,0,46,92
254976,note_on,,0,0,2,,,,,,0,50,92
254976,note_off,,96,0,2,,,,,,0,51,64
254976,note_off,,0,0,2,,,,,,0,45,64
255072,note_off,,96,0,2,,,,,,0,50,64
255072,note_on,,0,0,2,,,,,,0,48,92
255168,note_off,,96,0,2,,,,,,0,48,64
255168,note_off,,0,0,2,,,,,,0,46,64
255168,note_on,,0,0,2,,,,,,0,45,92
255168,note_on,,0,0,2,,,,,,0,50,92
255264,note_off,,96,0,2,,,,,,0,50,64
255264,note_on,,0,0,2,,,,,,0,52,92
255360,note_off,,96,0,2,,,,,,0,52,64
255360,note_on,,0,0,2,,,,,,0,53,92
255360,note_off,,0,0,2,,,,,,0,45,64
255360,note_on,,0,0,2,,,,,,0,43,92
255456,note_off,,96,0,2,,,,,,0,53,64
255456,note_on,,0,0,2,,,,,,0,55,92
255552,note_on,,0,0,2,,,,,,0,41,92
255552,note_off,,0,0,2,,,,,,0,43,64
255552,note_on,,0,0,2,,,,,,0,57,92
255552,note_off,,96,0,2,,,,,,0,55,64
255648,note_on,,0,0,2,,,,,,0,40,92
255648,note_off,,96,0,2,,,,,,0,41,64
255744,note_off,,96,0,2,,,,,,0,40,64
255744,note_on,,0,0,2,,,,,,0,41,92
255840,note_off,,96,0,2,,,,,,0,41,64
255840,note_on,,0,0,2,,,,,,0,43,92
255936,note_off,,96,0,2,,,,,,0,43,64
255936,note_on,,0,0,2,,,,,,0,45,92
256032,note_on,,0,0,2,,,,,,0,47,92
256032,note_off,,96,0,2,,,,,,0,45,64
256128,note_off,,96,0,2,,,,,,0,47,64
256128,note_on,,0,0,2,,,,,,0,48,92
256224,note_off,,96,0,2,,,,,,0,48,64
256224,note_off,,0,0,2,,,,,,0,57,64
256224,note_on,,0,0,2,,,,,,0,55,92
256224,note_on,,0,0,2,,,,,,0,47,92
256320,note_on,,0,0,2,,,,,,0,48,92
256320,note_on,,0,0,2,,,,,,0,57,92
256320,note_off,,0,0,2,,,,,,0,55,64
256320,note_off,,96,0,2,,,,,,0,47,64
256416,note_off,,96,0,2,,,,,,0,48,64
256416,note_off,,0,0,2,,,,,,0,57,64
256416,note_on,,0,0,2,,,,,,0,59,92
256416,note_on,,0,0,2,,,,,,0,50,92
256512,note_on,,0,0,2,,,,,,0,52,92
256512,note_off,,96,0,2,,,,,,0,50,64
256512,note_off,,0,0,2,,,,,,0,59,64
256512,note_on,,0,0,2,,,,,,0,60,92
256608,note_off,,0,0,2,,,,,,0,60,64
256608,note_on,,0,0,2,,,,,,0,57,92
256608,note_on,,0,0,2,,,,,,0,53,92
256608,note_off,,96,0,2,,,,,,0,52,64
256704,note_off,,96,0,2,,,,,,0,53,64
256704,note_on,,0,0,2,,,,,,0,59,92
256704,note_off,,0,0,2,,,,,,0,57,64
256704,note_on,,0,0,2,,,,,,0,43,92
256800,note_off,,96,0,2,,,,,,0,43,64
256800,note_on,,0,0,2,,,,,,0,41,92
256896,note_on,,0,0,2,,,,,,0,43,92
256896,note_off,,96,0,2,,,,,,0,41,64
256992,note_off,,96,0,2,,,,,,0,43,64
256992,note_on,,0,0,2,,,,,,0,45,92
257088,note_on,,0,0,2,,,,,,0,47,92
257088,note_off,,96,0,2,,,,,,0,45,64
257184,note_off,,96,0,2,,,,,,0,47,64
257184,note_on,,0,0,2,,,,,,0,48,92
257280,note_off,,96,0,2,,,,,,0,48,64
257280,note_on,,0,0,2,,,,,,0,50,92
257376,note_on,,0,0,2,,,,,,0,48,92
257376,note_off,,96,0,2,,,,,,0,50,64
257376,note_on,,0,0,2,,,,,,0,57,92
257376,note_off,,0,0,2,,,,,,0,59,64
257472,note_off,,96,0,2,,,,,,0,48,64
257472,note_on,,0,0,2,,,,,,0,59,92
257472,note_on,,0,0,2,,,,,,0,50,92
257472,note_off,,0,0,2,,,,,,0,57,64
257568,note_off,,96,0,2,,,,,,0,50,64
257568,note_off,,0,0,2,,,,,,0,59,64
257568,note_on,,0,0,2,,,,,,0,60,92
257568,note_on,,0,0,2,,,,,,0,52,92
257664,note_on,,0,0,2,,,,,,0,53,92
257664,note_on,,0,0,2,,,,,,0,62,92
257664,note_off,,96,0,2,,,,,,0,52,64
257664,note_off,,0,0,2,,,,,,0,60,64
257760,note_off,,0,0,2,,,,,,0,62,64
257760,note_on,,0,0,2,,,,,,0,59,92
257760,note_on,,0,0,2,,,,,,0,55,92
257760,note_off,,96,0,2,,,,,,0,53,64
257856,note_off,,96,0,2,,,,,,0,55,64
257856,note_off,,0,0,2,,,,,,0,59,64
257856,note_on,,9216,0,1,,,,,,0,60,92
257856,note_on,,0,0,2,,,,,,0,45,92
257952,note_on,,96,0,1,,,,,,0,59,92
258048,note_off,,0,0,1,,,,,,0,60,64
258048,note_on,,192,0,2,,,,,,0,53,92
258048,note_off,,96,0,1,,,,,,0,59,64
258048,note_on,,0,0,1,,,,,,0,60,92
258144,note_on,,0,0,1,,,,,,0,62,92
258144,note_off,,96,0,1,,,,,,0,60,64
258240,note_off,,192,0,2,,,,,,0,53,64
258240,note_on,,0,0,2,,,,,,0,52,92
258240,note_on,,0,0,1,,,,,,0,64,92
258240,note_off,,96,0,1,,,,,,0,62,64
258336,note_on,,0,0,1,,,,,,0,65,92
258336,note_off,,96,0,1,,,,,,0,64,64
258432,note_on,,0,0,2,,,,,,0,50,92
258432,note_on,,0,0,2,,,,,,0,47,92
258432,note_off,,0,0,2,,,,,,0,45,64
258432,note_off,,192,0,2,,,,,,0,52,64
258432,note_off,,96,0,1,,,,,,0,65,64
258432,note_on,,0,0,1,,,,,,0,67,92
258528,note_on,,0,0,1,,,,,,0,69,92
258528,note_off,,96,0,1,,,,,,0,67,64
258624,note_on,,0,0,1,,,,,,0,67,92
258624,note_off,,96,0,1,,,,,,0,69,64
258624,note_off,,192,0,2,,,,,,0,50,64
258624,note_on,,0,0,2,,,,,,0,52,92
258720,note_on,,0,0,1,,,,,,0,65,92
258720,note_off,,96,0,1,,,,,,0,67,64
258816,note_on,,0,0,2,,,,,,0,53,92
258816,note_on,,0,0,1,,,,,,0,64,92
258816,note_off,,96,0,1,,,,,,0,65,64
258816,note_off,,192,0,2,,,,,,0,52,64
258912,note_on,,0,0,1,,,,,,0,62,92
258912,note_off,,96,0,1,,,,,,0,64,64
259008,note_on,,0,0,2,,,,,,0,48,92
259008,note_on,,0,0,1,,,,,,0,60,92
259008,note_off,,192,0,2,,,,,,0,47,64
259008,note_off,,96,0,1,,,,,,0,62,64
259104,note_on,,0,0,1,,,,,,0,64,92
259104,note_off,,96,0,1,,,,,,0,60,64
259200,note_on,,0,0,1,,,,,,0,67,92
259200,note_off,,96,0,1,,,,,,0,64,64
259200,note_on,,0,0,2,,,,,,0,52,92
259200,note_off,,192,0,2,,,,,,0,53,64
259296,note_off,,96,0,1,,,,,,0,67,64
259296,note_on,,0,0,1,,,,,,0,60,92
259392,note_off,,96,0,1,,,,,,0,60,64
259392,note_on,,0,0,1,,,,,,0,59,92
259392,note_on,,0,0,2,,,,,,0,50,92
259392,note_off,,192,0,2,,,,,,0,52,64
259488,note_off,,96,0,1,,,,,,0,59,64
259488,note_on,,0,0,1,,,,,,0,62,92
259584,note_off,,192,0,2,,,,,,0,50,64
259584,note_on,,0,0,2,,,,,,0,52,92
259584,note_on,,0,0,1,,,,,,0,60,92
259584,note_off,,96,0,1,,,,,,0,62,64
259680,note_on,,0,0,1,,,,,,0,64,92
259680,note_off,,96,0,1,,,,,,0,60,64
259776,note_on,,0,0,1,,,,,,0,67,92
259776,note_off,,96,0,1,,,,,,0,64,64
259776,note_on,,0,0,2,,,,,,0,48,92
259776,note_off,,192,0,2,,,,,,0,48,64
259872,note_off,,96,0,1,,,,,,0,67,64
259872,note_on,,0,0,1,,,,,,0,58,92
259968,note_off,,96,0,1,,,,,,0,58,64
259968,note_on,,0,0,1,,,,,,0,57,92
259968,note_off,,192,0,2,,,,,,0,52,64
259968,note_on,,0,0,2,,,,,,0,53,92
260064,note_on,,0,0,1,,,,,,0,60,92
260064,note_off,,96,0,1,,,,,,0,57,64
260160,note_on,,0,0,1,,,,,,0,58,92
260160,note_off,,96,0,1,,,,,,0,60,64
260256,note_on,,0,0,1,,,,,,0,64,92
260256,note_off,,96,0,1,,,,,,0,58,64
260352,note_on,,0,0,1,,,,,,0,67,92
260352,note_off,,96,0,1,,,,,,0,64,64
260352,note_off,,384,0,2,,,,,,0,53,64
260352,note_on,,0,0,2,,,,,,0,52,92
260448,note_off,,96,0,2,,,,,,0,52,64
260448,note_on,,0,0,1,,,,,,0,57,92
260448,note_off,,96,0,1,,,,,,0,67,64
260448,note_on,,0,0,2,,,,,,0,50,92
260544,note_off,,96,0,1,,,,,,0,57,64
260544,note_off,,96,0,2,,,,,,0,50,64
260544,note_on,,0,0,2,,,,,,0,51,92
260544,note_on,,0,0,1,,,,,,0,55,92
260640,note_off,,96,0,1,,,,,,0,55,64
260640,note_on,,0,0,1,,,,,,0,58,92
260736,note_on,,0,0,1,,,,,,0,57,92
260736,note_on,,0,0,2,,,,,,0,41,92
260736,note_off,,96,0,1,,,,,,0,58,64
260736,note_off,,192,0,2,,,,,,0,48,64
260832,note_off,,96,0,1,,,,,,0,57,64
260832,note_on,,0,0,1,,,,,,0,53,92
260928,note_off,,192,0,2,,,,,,0,51,64
260928,note_on,,0,0,2,,,,,,0,50,92
260928,note_on,,0,0,1,,,,,,0,55,92
260928,note_off,,96,0,1,,,,,,0,53,64
261024,note_on,,0,0,1,,,,,,0,57,92
261024,note_off,,96,0,1,,,,,,0,55,64
261120,note_on,,0,0,1,,,,,,0,58,92
261120,note_off,,96,0,1,,,,,,0,57,64
261120,note_on,,0,0,2,,,,,,0,48,92
261120,note_off,,192,0,2,,,,,,0,50,64
261216,note_off,,96,0,1,,,,,,0,58,64
261216,note_on,,0,0,1,,,,,,0,60,92
261312,note_off,,192,0,2,,,,,,0,48,64
261312,note_off,,0,0,2,,,,,,0,41,64
261312,note_off,,96,0,1,,,,,,0,60,64
261312,note_on,,0,0,1,,,,,,0,62,92
261312,note_on,,0,0,2,,,,,,0,46,92
261408,note_on,,96,0,2,,,,,,0,50,92
261504,note_on,,0,0,2,,,,,,0,52,92
261504,note_off,,96,0,2,,,,,,0,50,64
261504,note_off,,0,0,2,,,,,,0,46,64
261600,note_off,,96,0,2,,,,,,0,52,64
261600,note_on,,0,0,2,,,,,,0,54,92
261696,note_off,,96,0,2,,,,,,0,54,64
261696,note_on,,0,0,2,,,,,,0,55,92
261792,note_off,,96,0,2,,,,,,0,55,64
261792,note_on,,0,0,2,,,,,,0,57,92
261888,note_off,,96,0,2,,,,,,0,57,64
261888,note_on,,0,0,2,,,,,,0,58,92
261984,note_on,,0,0,1,,,,,,0,62,92
261984,note_off,,672,0,1,,,,,,0,62,64
262080,note_off,,96,0,1,,,,,,0,62,64
262080,note_off,,192,0,2,,,,,,0,58,64
262080,note_on,,0,0,2,,,,,,0,46,92
262080,note_on,,0,0,1,,,,,,0,64,92
262176,note_on,,0,0,1,,,,,,0,66,92
262176,note_off,,96,0,1,,,,,,0,64,64
262272,note_off,,96,0,1,,,,,,0,66,64
262272,note_on,,0,0,1,,,,,,0,67,92
262272,note_off,,192,0,2,,,,,,0,46,64
262272,note_on,,0,0,2,,,,,,0,45,92
262368,note_off,,96,0,1,,,,,,0,67,64
262368,note_on,,0,0,1,,,,,,0,69,92
262464,note_off,,96,0,1,,,,,,0,69,64
262464,note_on,,0,0,2,,,,,,0,43,92
262464,note_off,,192,0,2,,,,,,0,45,64
262464,note_on,,0,0,1,,,,,,0,70,92
262560,note_on,,96,0,1,,,,,,0,69,92
262656,note_on,,0,0,1,,,,,,0,67,92
262656,note_off,,96,0,1,,,,,,0,69,64
262656,note_off,,192,0,2,,,,,,0,43,64
262752,note_off,,96,0,1,,,,,,0,67,64
262752,note_on,,0,0,1,,,,,,0,65,92
262848,note_off,,96,0,1,,,,,,0,65,64
262848,note_on,,0,0,1,,,,,,0,64,92
262944,note_off,,96,0,1,,,,,,0,64,64
262944,note_on,,0,0,1,,,,,,0,62,92
263040,note_off,,96,0,1,,,,,,0,62,64
263040,note_on,,0,0,1,,,,,,0,61,92
263136,note_off,,96,0,1,,,,,,0,70,64
263136,note_on,,0,0,1,,,,,,0,69,92
263232,note_on,,0,0,1,,,,,,0,71,92
263232,note_on,,0,0,1,,,,,,0,64,92
263232,note_off,,0,0,1,,,,,,0,61,64
263232,note_off,,96,0,1,,,,,,0,69,64
263328,note_off,,96,0,1,,,,,,0,71,64
263328,note_on,,0,0,1,,,,,,0,73,92
263424,note_on,,768,0,2,,,,,,0,57,92
263424,note_off,,96,0,1,,,,,,0,73,64
263424,note_off,,0,0,1,,,,,,0,64,64
263424,note_on,,0,0,1,,,,,,0,74,92
263520,note_off,,96,0,1,,,,,,0,74,64
263520,note_on,,0,0,1,,,,,,0,76,92
263616,note_on,,0,0,2,,,,,,0,62,92
263616,note_off,,96,0,1,,,,,,0,76,64
263616,note_on,,0,0,1,,,,,,0,77,92
263616,note_off,,192,0,2,,,,,,0,57,64
263712,note_off,,96,0,1,,,,,,0,77,64
263712,note_on,,0,0,1,,,,,,0,74,92
263808,note_on,,0,0,1,,,,,,0,76,92
263808,note_off,,96,0,1,,,,,,0,74,64
263808,note_off,,192,0,2,,,,,,0,62,64
263904,note_on,,96,0,2,,,,,,0,50,92
263904,note_on,,0,0,1,,,,,,0,77,92
263904,note_off,,96,0,1,,,,,,0,76,64
264000,note_on,,0,0,2,,,,,,0,52,92
264000,note_off,,96,0,2,,,,,,0,50,64
264000,note_on,,0,0,1,,,,,,0,79,92
264000,note_off,,96,0,1,,,,,,0,77,64
264096,note_off,,96,0,2,,,,,,0,52,64
264096,note_off,,96,0,1,,,,,,0,79,64
264096,note_on,,0,0,2,,,,,,0,53,92
264096,note_on,,0,0,1,,,,,,0,81,92
264192,note_on,,0,0,1,,,,,,0,82,92
264192,note_off,,96,0,1,,,,,,0,81,64
264192,note_on,,0,0,2,,,,,,0,55,92
264192,note_off,,96,0,2,,,,,,0,53,64
264288,note_off,,96,0,1,,,,,,0,82,64
264288,note_on,,0,0,1,,,,,,0,81,92
264288,note_on,,0,0,2,,,,,,0,53,92
264288,note_off,,96,0,2,,,,,,0,55,64
264384,note_off,,96,0,2,,,,,,0,53,64
264384,note_on,,0,0,2,,,,,,0,55,92
264384,note_off,,96,0,1,,,,,,0,81,64
264384,note_on,,0,0,1,,,,,,0,79,92
264480,note_off,,96,0,2,,,,,,0,55,64
264480,note_on,,0,0,1,,,,,,0,77,92
264480,note_on,,0,0,2,,,,,,0,57,92
264480,note_off,,96,0,1,,,,,,0,79,64
264576,note_off,,96,0,1,,,,,,0,77,64
264576,note_on,,0,0,2,,,,,,0,58,92
264576,note_off,,96,0,2,,,,,,0,57,64
264576,note_on,,0,0,1,,,,,,0,76,92
264672,note_off,,96,0,1,,,,,,0,76,64
264672,note_on,,0,0,2,,,,,,0,55,92
264672,note_off,,96,0,2,,,,,,0,58,64
264672,note_on,,0,0,1,,,,,,0,74,92
264768,note_on,,0,0,1,,,,,,0,73,92
264768,note_off,,96,0,1,,,,,,0,74,64
264768,note_off,,96,0,2,,,,,,0,55,64
264768,note_on,,0,0,2,,,,,,0,57,92
264864,note_off,,96,0,1,,,,,,0,73,64
264864,note_on,,0,0,1,,,,,,0,76,92
264960,note_on,,192,0,2,,,,,,0,61,92
264960,note_off,,96,0,1,,,,,,0,76,64
264960,note_on,,0,0,1,,,,,,0,79,92
265056,note_on,,0,0,1,,,,,,0,76,92
265056,note_off,,96,0,1,,,,,,0,79,64
265152,note_on,,0,0,2,,,,,,0,62,92
265152,note_off,,192,0,2,,,,,,0,61,64
265152,note_on,,0,0,1,,,,,,0,77,92
265152,note_off,,96,0,1,,,,,,0,76,64
265248,note_on,,0,0,1,,,,,,0,74,92
265248,note_off,,96,0,1,,,,,,0,77,64
265344,note_off,,192,0,2,,,,,,0,62,64
265344,note_off,,0,0,2,,,,,,0,57,64
265344,note_off,,96,0,1,,,,,,0,74,64
265344,note_on,,0,0,1,,,,,,0,76,92
265344,note_on,,0,0,2,,,,,,0,57,92
265440,note_off,,96,0,1,,,,,,0,76,64
265440,note_on,,0,0,1,,,,,,0,74,92
265536,note_off,,96,0,1,,,,,,0,74,64
265536,note_on,,0,0,1,,,,,,0,73,92
265536,note_on,,0,0,2,,,,,,0,59,92
265536,note_off,,192,0,2,,,,,,0,57,64
265632,note_off,,96,0,1,,,,,,0,73,64
265632,note_on,,0,0,1,,,,,,0,71,92
265728,note_off,,96,0,1,,,,,,0,71,64
265728,note_on,,0,0,1,,,,,,0,69,92
265728,note_on,,0,0,2,,,,,,0,61,92
265728,note_off,,192,0,2,,,,,,0,59,64
265824,note_off,,96,0,1,,,,,,0,69,64
265824,note_on,,0,0,1,,,,,,0,79,92
265920,note_on,,0,0,2,,,,,,0,62,92
265920,note_off,,192,0,2,,,,,,0,61,64
265920,note_off,,96,0,1,,,,,,0,79,64
265920,note_on,,0,0,1,,,,,,0,78,92
266016,note_on,,0,0,1,,,,,,0,81,92
266016,note_off,,96,0,1,,,,,,0,78,64
266112,note_on,,192,0,2,,,,,,0,54,92
266112,note_on,,0,0,1,,,,,,0,84,92
266112,note_off,,96,0,1,,,,,,0,81,64
266208,note_on,,0,0,1,,,,,,0,81,92
266208,note_off,,96,0,1,,,,,,0,84,64
266304,note_on,,0,0,2,,,,,,0,55,92
266304,note_off,,192,0,2,,,,,,0,54,64
266304,note_off,,96,0,1,,,,,,0,81,64
266304,note_on,,0,0,1,,,,,,0,82,92
266400,note_on,,0,0,1,,,,,,0,79,92
266400,note_off,,96,0,1,,,,,,0,82,64
266496,note_on,,0,0,1,,,,,,0,81,92
266496,note_on,,0,0,2,,,,,,0,50,92
266496,note_off,,192,0,2,,,,,,0,55,64
266496,note_off,,96,0,1,,,,,,0,79,64
266592,note_off,,96,0,1,,,,,,0,81,64
266592,note_on,,0,0,1,,,,,,0,79,92
266688,note_off,,192,0,2,,,,,,0,50,64
266688,note_off,,96,0,1,,,,,,0,79,64
266688,note_on,,0,0,1,,,,,,0,78,92
266688,note_on,,0,0,2,,,,,,0,52,92
266784,note_off,,96,0,1,,,,,,0,78,64
266784,note_on,,0,0,1,,,,,,0,76,92
266880,note_on,,0,0,1,,,,,,0,74,92
266880,note_off,,96,0,1,,,,,,0,76,64
266880,note_off,,192,0,2,,,,,,0,52,64
266880,note_on,,0,0,2,,,,,,0,54,92
266976,note_off,,96,0,1,,,,,,0,74,64
266976,note_on,,0,0,1,,,,,,0,72,92
267072,note_on,,0,0,2,,,,,,0,55,92
267072,note_off,,96,0,1,,,,,,0,72,64
267072,note_off,,192,0,2,,,,,,0,54,64
267072,note_on,,0,0,1,,,,,,0,71,92
267168,note_on,,0,0,1,,,,,,0,74,92
267168,note_off,,96,0,1,,,,,,0,71,64
267264,note_on,,0,0,1,,,,,,0,77,92
267264,note_off,,96,0,1,,,,,,0,74,64
267264,note_off,,192,0,2,,,,,,0,62,64
267264,note_on,,0,0,2,,,,,,0,59,92
267360,note_on,,0,0,1,,,,,,0,74,92
267360,note_off,,96,0,1,,,,,,0,77,64
267456,note_off,,96,0,1,,,,,,0,74,64
267456,note_on,,0,0,1,,,,,,0,76,92
267456,note_on,,0,0,2,,,,,,0,60,92
267456,note_off,,192,0,2,,,,,,0,59,64
267552,note_on,,0,0,1,,,,,,0,72,92
267552,note_off,,96,0,1,,,,,,0,76,64
267648,note_on,,0,0,2,,,,,,0,55,92
267648,note_off,,192,0,2,,,,,,0,60,64
267648,note_off,,0,0,2,,,,,,0,55,64
267648,note_off,,96,0,1,,,,,,0,72,64
267648,note_on,,0,0,1,,,,,,0,74,92
267744,note_on,,0,0,1,,,,,,0,72,92
267744,note_off,,96,0,1,,,,,,0,74,64
267840,note_on,,0,0,1,,,,,,0,71,92
267840,note_off,,96,0,1,,,,,,0,72,64
267840,note_off,,192,0,2,,,,,,0,55,64
267840,note_on,,0,0,2,,,,,,0,57,92
267936,note_off,,96,0,1,,,,,,0,71,64
267936,note_on,,0,0,1,,,,,,0,69,92
268032,note_on,,0,0,1,,,,,,0,67,92
268032,note_off,,96,0,1,,,,,,0,69,64
268032,note_off,,192,0,2,,,,,,0,57,64
268032,note_on,,0,0,2,,,,,,0,59,92
268128,note_off,,96,0,1,,,,,,0,67,64
268128,note_on,,0,0,1,,,,,,0,77,92
268224,note_off,,96,0,1,,,,,,0,77,64
268224,note_on,,0,0,1,,,,,,0,76,92
268224,note_on,,0,0,2,,,,,,0,60,92
268224,note_off,,192,0,2,,,,,,0,59,64
268320,note_off,,96,0,1,,,,,,0,76,64
268320,note_on,,0,0,1,,,,,,0,79,92
268416,note_off,,96,0,1,,,,,,0,79,64
268416,note_on,,192,0,2,,,,,,0,52,92
268416,note_on,,0,0,1,,,,,,0,82,92
268512,note_off,,96,0,1,,,,,,0,82,64
268512,note_on,,0,0,1,,,,,,0,79,92
268608,note_off,,96,0,1,,,,,,0,79,64
268608,note_on,,0,0,1,,,,,,0,81,92
268608,note_on,,0,0,2,,,,,,0,53,92
268608,note_off,,192,0,2,,,,,,0,52,64
268704,note_off,,96,0,1,,,,,,0,81,64
268704,note_on,,0,0,1,,,,,,0,77,92
268800,note_off,,96,0,1,,,,,,0,77,64
268800,note_on,,0,0,1,,,,,,0,79,92
268800,note_on,,0,0,2,,,,,,0,48,92
268800,note_off,,192,0,2,,,,,,0,53,64
268896,note_on,,0,0,1,,,,,,0,77,92
268896,note_off,,96,0,1,,,,,,0,79,64
268992,note_on,,0,0,1,,,,,,0,76,92
268992,note_off,,96,0,1,,,,,,0,77,64
268992,note_off,,192,0,2,,,,,,0,48,64
268992,note_on,,0,0,2,,,,,,0,50,92
269088,note_off,,96,0,1,,,,,,0,76,64
269088,note_on,,0,0,1,,,,,,0,74,92
269184,note_on,,0,0,1,,,,,,0,72,92
269184,note_on,,0,0,2,,,,,,0,52,92
269184,note_off,,96,0,1,,,,,,0,74,64
269184,note_off,,192,0,2,,,,,,0,50,64
269280,note_on,,0,0,1,,,,,,0,70,92
269280,note_off,,96,0,1,,,,,,0,72,64
269376,note_off,,192,0,2,,,,,,0,52,64
269376,note_on,,0,0,2,,,,,,0,53,92
269376,note_off,,96,0,1,,,,,,0,70,64
269376,note_on,,0,0,1,,,,,,0,69,92
269472,note_off,,96,0,2,,,,,,0,53,64
269472,note_on,,0,0,2,,,,,,0,52,92
269568,note_on,,0,0,2,,,,,,0,53,92
269568,note_off,,192,0,1,,,,,,0,69,64
269568,note_off,,96,0,2,,,,,,0,52,64
269568,note_on,,0,0,1,,,,,,0,72,92
269664,note_off,,96,0,2,,,,,,0,53,64
269664,note_on,,0,0,2,,,,,,0,55,92
269760,note_off,,192,0,1,,,,,,0,72,64
269760,note_on,,0,0,1,,,,,,0,77,92
269760,note_on,,0,0,1,,,,,,0,69,92
269760,note_on,,0,0,2,,,,,,0,57,92
269760,note_off,,0,0,2,,,,,,0,60,64
269760,note_off,,96,0,2,,,,,,0,55,64
269856,note_on,,0,0,2,,,,,,0,58,92
269856,note_off,,96,0,2,,,,,,0,57,64
269952,note_off,,192,0,1,,,,,,0,69,64
269952,note_on,,0,0,1,,,,,,0,67,92
269952,note_on,,0,0,2,,,,,,0,60,92
269952,note_off,,96,0,2,,,,,,0,58,64
270048,note_off,,96,0,2,,,,,,0,60,64
270048,note_on,,0,0,2,,,,,,0,62,92
270144,note_off,,192,0,1,,,,,,0,77,64
270144,note_on,,0,0,1,,,,,,0,76,92
270144,note_off,,96,0,2,,,,,,0,62,64
270144,note_on,,0,0,2,,,,,,0,60,92
270240,note_off,,96,0,2,,,,,,0,60,64
270240,note_on,,0,0,2,,,,,,0,58,92
270336,note_off,,0,0,1,,,,,,0,67,64
270336,note_off,,192,0,1,,,,,,0,76,64
270336,note_on,,0,0,1,,,,,,0,79,92
270336,note_off,,96,0,2,,,,,,0,58,64
270336,note_on,,0,0,1,,,,,,0,70,92
270336,note_on,,0,0,2,,,,,,0,57,92
270432,note_off,,96,0,2,,,,,,0,57,64
270432,note_on,,0,0,2,,,,,,0,55,92
270528,note_on,,0,0,2,,,,,,0,53,92
270528,note_on,,0,0,1,,,,,,0,69,92
270528,note_off,,192,0,1,,,,,,0,70,64
270528,note_off,,96,0,2,,,,,,0,55,64
270624,note_off,,96,0,2,,,,,,0,53,64
270624,note_on,,0,0,2,,,,,,0,57,92
270720,note_off,,96,0,2,,,,,,0,57,64
270720,note_on,,0,0,2,,,,,,0,60,92
270720,note_on,,0,0,1,,,,,,0,77,92
270720,note_off,,192,0,1,,,,,,0,79,64
270816,note_on,,0,0,2,,,,,,0,53,92
270816,note_off,,96,0,2,,,,,,0,60,64
270912,note_on,,0,0,1,,,,,,0,70,92
270912,note_off,,96,0,2,,,,,,0,53,64
270912,note_on,,0,0,2,,,,,,0,52,92
270912,note_off,,192,0,1,,,,,,0,77,64
270912,note_on,,0,0,1,,,,,,0,67,92
270912,note_off,,0,0,1,,,,,,0,69,64
271008,note_on,,0,0,2,,,,,,0,55,92
271008,note_off,,96,0,2,,,,,,0,52,64
271104,note_on,,0,0,2,,,,,,0,53,92
271104,note_off,,96,0,2,,,,,,0,55,64
271200,note_on,,0,0,2,,,,,,0,57,92
271200,note_off,,96,0,2,,,,,,0,53,64
271296,note_on,,0,0,2,,,,,,0,60,92
271296,note_off,,96,0,2,,,,,,0,57,64
271296,note_on,,0,0,1,,,,,,0,69,92
271296,note_on,,0,0,1,,,,,,0,65,92
271296,note_off,,0,0,1,,,,,,0,70,64
271296,note_off,,384,0,1,,,,,,0,67,64
271392,note_off,,96,0,2,,,,,,0,60,64
271392,note_on,,0,0,2,,,,,,0,51,92
271488,note_off,,192,0,1,,,,,,0,69,64
271488,note_off,,96,0,2,,,,,,0,51,64
271488,note_on,,0,0,2,,,,,,0,50,92
271488,note_off,,0,0,1,,,,,,0,65,64
271488,note_on,,0,0,1,,,,,,0,70,92
271488,note_on,,0,0,1,,,,,,0,74,92
271584,note_off,,96,0,2,,,,,,0,50,64
271584,note_on,,0,0,2,,,,,,0,53,92
271680,note_on,,0,0,2,,,,,,0,51,92
271680,note_off,,96,0,2,,,,,,0,53,64
271776,note_on,,0,0,2,,,,,,0,57,92
271776,note_off,,96,0,2,,,,,,0,51,64
271872,note_on,,0,0,1,,,,,,0,72,92
271872,note_on,,0,0,2,,,,,,0,60,92
271872,note_off,,0,0,1,,,,,,0,70,64
271872,note_on,,0,0,1,,,,,,0,69,92
271872,note_off,,96,0,2,,,,,,0,57,64
271872,note_off,,384,0,1,,,,,,0,74,64
271968,note_on,,0,0,2,,,,,,0,50,92
271968,note_off,,96,0,2,,,,,,0,60,64
272064,note_off,,96,0,2,,,,,,0,50,64
272064,note_on,,0,0,2,,,,,,0,48,92
272064,note_off,,192,0,1,,,,,,0,72,64
272064,note_off,,0,0,1,,,,,,0,69,64
272064,note_on,,0,0,1,,,,,,0,72,92
272064,note_on,,0,0,1,,,,,,0,75,92
272160,note_off,,96,0,2,,,,,,0,48,64
272160,note_on,,0,0,2,,,,,,0,51,92
272256,note_off,,96,0,2,,,,,,0,51,64
272256,note_on,,0,0,2,,,,,,0,50,92
272352,note_on,,0,0,2,,,,,,0,46,92
272352,note_off,,96,0,2,,,,,,0,50,64
272448,note_off,,96,0,2,,,,,,0,46,64
272448,note_on,,0,0,2,,,,,,0,48,92
272448,note_on,,0,0,1,,,,,,0,74,92
272448,note_on,,0,0,1,,,,,,0,70,92
272448,note_off,,0,0,1,,,,,,0,72,64
272448,note_off,,384,0,1,,,,,,0,75,64
272544,note_off,,96,0,2,,,,,,0,48,64
272544,note_on,,0,0,2,,,,,,0,50,92
272640,note_on,,0,0,1,,,,,,0,69,92
272640,note_on,,0,0,1,,,,,,0,72,92
272640,note_off,,192,0,1,,,,,,0,74,64
272640,note_off,,0,0,1,,,,,,0,70,64
272640,note_on,,0,0,2,,,,,,0,52,92
272640,note_off,,96,0,2,,,,,,0,50,64
272736,note_on,,0,0,2,,,,,,0,54,92
272736,note_off,,96,0,2,,,,,,0,52,64
272832,note_on,,0,0,2,,,,,,0,55,92
272832,note_off,,96,0,2,,,,,,0,54,64
272928,note_on,,0,0,2,,,,,,0,57,92
272928,note_off,,96,0,2,,,,,,0,55,64
273024,note_on,,0,0,1,,,,,,0,62,92
273024,note_on,,0,0,2,,,,,,0,55,92
273024,note_off,,0,0,1,,,,,,0,69,64
273024,note_on,,0,0,1,,,,,,0,70,92
273024,note_off,,384,0,1,,,,,,0,72,64
273024,note_off,,96,0,2,,,,,,0,57,64
273120,note_on,,0,0,2,,,,,,0,53,92
273120,note_off,,96,0,1,,,,,,0,70,64
273120,note_on,,0,0,1,,,,,,0,69,92
273120,note_off,,96,0,2,,,,,,0,55,64
273216,note_on,,0,0,2,,,,,,0,51,92
273216,note_on,,0,0,1,,,,,,0,67,92
273216,note_off,,96,0,2,,,,,,0,53,64
273216,note_off,,0,0,1,,,,,,0,62,64
273216,note_off,,96,0,1,,,,,,0,69,64
273216,note_on,,0,0,1,,,,,,0,70,92
273312,note_off,,96,0,2,,,,,,0,51,64
273312,note_on,,0,0,2,,,,,,0,50,92
273408,note_off,,192,0,1,,,,,,0,67,64
273408,note_on,,0,0,1,,,,,,0,63,92
273408,note_off,,96,0,2,,,,,,0,50,64
273408,note_on,,0,0,2,,,,,,0,48,92
273504,note_off,,96,0,2,,,,,,0,48,64
273504,note_on,,0,0,2,,,,,,0,46,92
273600,note_off,,192,0,1,,,,,,0,70,64
273600,note_on,,0,0,1,,,,,,0,69,92
273600,note_on,,0,0,2,,,,,,0,48,92
273600,note_off,,96,0,2,,,,,,0,46,64
273696,note_on,,0,0,2,,,,,,0,50,92
273696,note_off,,96,0,2,,,,,,0,48,64
273792,note_off,,96,0,2,,,,,,0,50,64
273792,note_on,,0,0,2,,,,,,0,51,92
273792,note_on,,0,0,1,,,,,,0,67,92
273792,note_off,,192,0,1,,,,,,0,69,64
273888,note_on,,0,0,2,,,,,,0,48,92
273888,note_off,,96,0,2,,,,,,0,51,64
273984,note_off,,96,0,2,,,,,,0,48,64
273984,note_on,,0,0,2,,,,,,0,50,92
273984,note_on,,0,0,1,,,,,,0,66,92
273984,note_off,,192,0,1,,,,,,0,67,64
274080,note_on,,0,0,1,,,,,,0,63,92
274080,note_off,,96,0,1,,,,,,0,63,64
274176,note_off,,0,0,1,,,,,,0,66,64
274176,note_off,,96,0,1,,,,,,0,63,64
274176,note_on,,0,0,1,,,,,,0,69,92
274176,note_on,,0,0,1,,,,,,0,62,92
274272,note_on,,0,0,1,,,,,,0,60,92
274272,note_off,,96,0,1,,,,,,0,62,64
274368,note_off,,96,0,1,,,,,,0,60,64
274368,note_on,,384,0,2,,,,,,0,58,92
274368,note_on,,0,0,1,,,,,,0,74,92
274368,note_off,,0,0,1,,,,,,0,69,64
274464,note_on,,0,0,2,,,,,,0,57,92
274464,note_off,,96,0,2,,,,,,0,58,64
274560,note_on,,0,0,2,,,,,,0,52,92
274560,note_on,,0,0,2,,,,,,0,55,92
274560,note_off,,0,0,2,,,,,,0,50,64
274560,note_off,,96,0,2,,,,,,0,57,64
274656,note_on,,0,0,2,,,,,,0,54,92
274656,note_off,,96,0,2,,,,,,0,55,64
274752,note_off,,384,0,1,,,,,,0,74,64
274752,note_on,,0,0,2,,,,,,0,55,92
274752,note_off,,96,0,2,,,,,,0,54,64
274752,note_on,,0,0,1,,,,,,0,72,92
274848,note_on,,0,0,2,,,,,,0,57,92
274848,note_off,,96,0,2,,,,,,0,55,64
274944,note_off,,192,0,1,,,,,,0,72,64
274944,note_on,,0,0,2,,,,,,0,58,92
274944,note_off,,96,0,2,,,,,,0,57,64
274944,note_on,,0,0,1,,,,,,0,70,92
275040,note_off,,96,0,2,,,,,,0,58,64
275040,note_on,,0,0,2,,,,,,0,60,92
275136,note_on,,0,0,2,,,,,,0,54,92
275136,note_on,,0,0,2,,,,,,0,62,92
275136,note_off,,0,0,2,,,,,,0,52,64
275136,note_off,,96,0,2,,,,,,0,60,64
275136,note_off,,192,0,1,,,,,,0,70,64
275136,note_on,,0,0,1,,,,,,0,69,92
275232,note_off,,96,0,1,,,,,,0,69,64
275232,note_on,,0,0,1,,,,,,0,66,92
275328,note_on,,0,0,1,,,,,,0,67,92
275328,note_off,,96,0,1,,,,,,0,66,64
275328,note_off,,192,0,2,,,,,,0,54,64
275328,note_on,,0,0,2,,,,,,0,50,92
275424,note_off,,96,0,1,,,,,,0,67,64
275424,note_off,,96,0,2,,,,,,0,62,64
275424,note_on,,0,0,2,,,,,,0,60,92
275424,note_on,,0,0,1,,,,,,0,69,92
275520,note_off,,96,0,1,,,,,,0,69,64
275520,note_on,,0,0,2,,,,,,0,58,92
275520,note_on,,0,0,2,,,,,,0,55,92
275520,note_off,,0,0,2,,,,,,0,50,64
275520,note_off,,96,0,2,,,,,,0,60,64
275520,note_on,,0,0,1,,,,,,0,70,92
275616,note_on,,0,0,1,,,,,,0,72,92
275616,note_off,,96,0,1,,,,,,0,70,64
275712,note_off,,96,0,1,,,,,,0,72,64
275712,note_off,,192,0,2,,,,,,0,58,64
275712,note_on,,0,0,2,,,,,,0,57,92
275712,note_on,,0,0,1,,,,,,0,74,92
275808,note_off,,96,0,1,,,,,,0,74,64
275808,note_on,,0,0,1,,,,,,0,75,92
275904,note_on,,0,0,2,,,,,,0,54,92
275904,note_off,,192,0,2,,,,,,0,55,64
275904,note_on,,0,0,1,,,,,,0,74,92
275904,note_off,,96,0,1,,,,,,0,75,64
276000,note_on,,0,0,1,,,,,,0,72,92
276000,note_on,,0,0,1,,,,,,0,63,92
276000,note_off,,96,0,2,,,,,,0,57,64
276000,note_off,,96,0,1,,,,,,0,74,64
276096,note_off,,96,0,1,,,,,,0,72,64
276096,note_on,,0,0,1,,,,,,0,62,92
276096,note_on,,0,0,1,,,,,,0,70,92
276096,note_off,,0,0,1,,,,,,0,63,64
276192,note_on,,0,0,1,,,,,,0,60,92
276192,note_off,,96,0,1,,,,,,0,70,64
276192,note_on,,0,0,1,,,,,,0,69,92
276192,note_off,,0,0,1,,,,,,0,62,64
276288,note_on,,0,0,2,,,,,,0,55,92
276288,note_off,,96,0,1,,,,,,0,69,64
276288,note_off,,0,0,1,,,,,,0,60,64
276288,note_on,,0,0,1,,,,,,0,58,92
276288,note_on,,0,0,1,,,,,,0,67,92
276288,note_off,,288,0,2,,,,,,0,54,64
276384,note_on,,0,0,1,,,,,,0,62,92
276384,note_off,,96,0,1,,,,,,0,67,64
276384,note_off,,0,0,1,,,,,,0,58,64
276384,note_on,,0,0,1,,,,,,0,70,92
276480,note_off,,192,0,2,,,,,,0,55,64
276480,note_on,,0,0,1,,,,,,0,74,92
276480,note_on,,0,0,2,,,,,,0,55,92
276480,note_off,,0,0,1,,,,,,0,62,64
276480,note_off,,96,0,1,,,,,,0,70,64
276576,note_off,,96,0,1,,,,,,0,74,64
276576,note_on,,0,0,1,,,,,,0,67,92
276576,note_on,,0,0,2,,,,,,0,58,92
276576,note_off,,96,0,2,,,,,,0,55,64
276672,note_off,,96,0,1,,,,,,0,67,64
276672,note_on,,0,0,2,,,,,,0,57,92
276672,note_off,,96,0,2,,,,,,0,58,64
276672,note_on,,0,0,1,,,,,,0,66,92
276768,note_off,,96,0,1,,,,,,0,66,64
276768,note_on,,0,0,1,,,,,,0,69,92
276768,note_on,,0,0,2,,,,,,0,60,92
276768,note_off,,96,0,2,,,,,,0,57,64
276864,note_off,,96,0,2,,,,,,0,60,64
276864,note_on,,0,0,2,,,,,,0,58,92
276864,note_off,,96,0,1,,,,,,0,69,64
276864,note_on,,0,0,1,,,,,,0,67,92
276960,note_off,,96,0,1,,,,,,0,67,64
276960,note_on,,0,0,1,,,,,,0,70,92
277056,note_off,,96,0,1,,,,,,0,70,64
277056,note_on,,0,0,2,,,,,,0,59,92
277056,note_off,,192,0,2,,,,,,0,58,64
277056,note_on,,0,0,1,,,,,,0,74,92
277152,note_on,,0,0,1,,,,,,0,65,92
277152,note_off,,96,0,1,,,,,,0,74,64
277248,note_on,,0,0,1,,,,,,0,63,92
277248,note_on,,0,0,2,,,,,,0,60,92
277248,note_off,,192,0,2,,,,,,0,59,64
277248,note_off,,96,0,1,,,,,,0,65,64
277344,note_off,,96,0,1,,,,,,0,63,64
277344,note_on,,0,0,1,,,,,,0,67,92
277440,note_on,,0,0,1,,,,,,0,65,92
277440,note_off,,96,0,1,,,,,,0,67,64
277536,note_off,,96,0,1,,,,,,0,65,64
277536,note_on,,0,0,1,,,,,,0,71,92
277632,note_on,,0,0,2,,,,,,0,59,92
277632,note_on,,0,0,1,,,,,,0,74,92
277632,note_off,,96,0,1,,,,,,0,71,64
277632,note_off,,384,0,2,,,,,,0,60,64
277728,note_on,,0,0,2,,,,,,0,57,92
277728,note_off,,96,0,2,,,,,,0,59,64
277728,note_on,,0,0,1,,,,,,0,63,92
277728,note_off,,96,0,1,,,,,,0,74,64
277824,note_off,,96,0,1,,,,,,0,63,64
277824,note_off,,96,0,2,,,,,,0,57,64
277824,note_on,,0,0,2,,,,,,0,59,92
277824,note_on,,0,0,1,,,,,,0,62,92
277920,note_on,,0,0,1,,,,,,0,65,92
277920,note_off,,96,0,1,,,,,,0,62,64
278016,note_off,,192,0,2,,,,,,0,59,64
278016,note_on,,0,0,2,,,,,,0,60,92
278016,note_off,,96,0,1,,,,,,0,65,64
278016,note_on,,0,0,1,,,,,,0,63,92
278112,note_on,,96,0,2,,,,,,0,58,92
278208,note_on,,0,0,1,,,,,,0,72,92
278208,note_off,,96,0,2,,,,,,0,58,64
278208,note_off,,192,0,1,,,,,,0,63,64
278208,note_on,,0,0,2,,,,,,0,57,92
278304,note_off,,96,0,2,,,,,,0,57,64
278304,note_on,,0,0,2,,,,,,0,55,92
278400,note_on,,0,0,1,,,,,,0,69,92
278400,note_on,,0,0,2,,,,,,0,54,92
278400,note_off,,96,0,2,,,,,,0,55,64
278400,note_off,,192,0,1,,,,,,0,72,64
278496,note_on,,0,0,2,,,,,,0,52,92
278496,note_off,,96,0,2,,,,,,0,54,64
278592,note_on,,0,0,1,,,,,,0,66,92
278592,note_off,,192,0,1,,,,,,0,69,64
278592,note_on,,0,0,2,,,,,,0,50,92
278592,note_off,,96,0,2,,,,,,0,52,64
278688,note_on,,0,0,2,,,,,,0,60,92
278688,note_off,,96,0,2,,,,,,0,60,64
278784,note_on,,0,0,2,,,,,,0,58,92
278784,note_off,,96,0,2,,,,,,0,60,64
278784,note_off,,192,0,1,,,,,,0,66,64
278784,note_on,,0,0,1,,,,,,0,62,92
278880,note_on,,0,0,2,,,,,,0,57,92
278880,note_off,,96,0,2,,,,,,0,58,64
278976,note_off,,192,0,1,,,,,,0,62,64
278976,note_on,,0,0,1,,,,,,0,67,92
278976,note_on,,0,0,2,,,,,,0,55,92
278976,note_on,,0,0,2,,,,,,0,51,92
278976,note_off,,0,0,2,,,,,,0,50,64
278976,note_off,,96,0,2,,,,,,0,57,64
279072,note_on,,0,0,2,,,,,,0,54,92
279072,note_off,,96,0,2,,,,,,0,55,64
279168,note_on,,0,0,2,,,,,,0,55,92
279168,note_off,,0,0,2,,,,,,0,51,64
279168,note_on,,0,0,2,,,,,,0,48,92
279168,note_off,,96,0,2,,,,,,0,54,64
279264,note_off,,288,0,1,,,,,,0,67,64
279264,note_on,,0,0,1,,,,,,0,69,92
279360,note_off,,192,0,2,,,,,,0,48,64
279360,note_on,,0,0,2,,,,,,0,50,92
279360,note_off,,96,0,1,,,,,,0,69,64
279360,note_on,,0,0,1,,,,,,0,70,92
279408,note_off,,48,0,1,,,,,,0,70,64
279408,note_on,,0,0,1,,,,,,0,69,92
279456,note_off,,48,0,1,,,,,,0,69,64
279456,note_on,,0,0,1,,,,,,0,70,92
279504,note_on,,0,0,1,,,,,,0,69,92
279504,note_off,,48,0,1,,,,,,0,70,64
279552,note_off,,192,0,2,,,,,,0,55,64
279552,note_off,,48,0,1,,,,,,0,69,64
279552,note_on,,0,0,1,,,,,,0,70,92
279552,note_on,,0,0,2,,,,,,0,54,92
279600,note_off,,48,0,1,,,,,,0,70,64
279600,note_on,,0,0,1,,,,,,0,69,92
279648,note_off,,48,0,1,,,,,,0,69,64
279648,note_on,,0,0,1,,,,,,0,67,92
279744,note_off,,0,0,2,,,,,,0,50,64
279744,note_off,,192,0,2,,,,,,0,54,64
279744,note_on,,0,0,2,,,,,,0,55,92
279744,note_on,,0,0,2,,,,,,0,43,92
279744,note_on,,0,0,1,,,,,,0,67,92
279744,note_off,,96,0,1,,,,,,0,67,64
279840,note_off,,96,0,2,,,,,,0,55,64
279840,note_on,,0,0,2,,,,,,0,54,92
279936,note_off,,96,0,2,,,,,,0,54,64
279936,note_off,,0,0,2,,,,,,0,43,64
279936,note_on,,0,0,2,,,,,,0,55,92
279936,note_off,,192,0,1,,,,,,0,67,64
279936,note_on,,0,0,1,,,,,,0,74,92
280032,note_off,,96,0,2,,,,,,0,55,64
280032,note_on,,0,0,2,,,,,,0,57,92
280128,note_off,,96,0,2,,,,,,0,57,64
280128,note_on,,0,0,2,,,,,,0,58,92
280128,note_off,,192,0,1,,,,,,0,74,64
280128,note_on,,0,0,1,,,,,,0,79,92
280224,note_on,,0,0,2,,,,,,0,60,92
280224,note_off,,96,0,2,,,,,,0,58,64
280320,note_on,,192,0,1,,,,,,0,62,92
280320,note_off,,96,0,2,,,,,,0,60,64
280416,note_off,,96,0,1,,,,,,0,62,64
280416,note_on,,0,0,1,,,,,,0,64,92
280512,note_on,,0,0,1,,,,,,0,62,92
280512,note_on,,0,0,1,,,,,,0,77,92
280512,note_off,,0,0,1,,,,,,0,79,64
280512,note_off,,96,0,1,,,,,,0,64,64
280608,note_on,,0,0,1,,,,,,0,76,92
280608,note_off,,96,0,1,,,,,,0,62,64
280608,note_off,,0,0,1,,,,,,0,77,64
280608,note_on,,0,0,1,,,,,,0,60,92
280704,note_on,,384,0,2,,,,,,0,59,92
280704,note_on,,0,0,1,,,,,,0,77,92
280704,note_off,,0,0,1,,,,,,0,76,64
280704,note_off,,96,0,1,,,,,,0,60,64
280800,note_off,,96,0,2,,,,,,0,59,64
280800,note_on,,0,0,2,,,,,,0,57,92
280896,note_off,,96,0,2,,,,,,0,57,64
280896,note_on,,0,0,2,,,,,,0,55,92
280992,note_on,,0,0,1,,,,,,0,71,92
280992,note_off,,288,0,1,,,,,,0,77,64
281088,note_off,,96,0,1,,,,,,0,71,64
281088,note_on,,0,0,1,,,,,,0,72,92
281088,note_on,,0,0,2,,,,,,0,57,92
281088,note_off,,192,0,2,,,,,,0,55,64
281184,note_on,,0,0,2,,,,,,0,59,92
281184,note_off,,96,0,2,,,,,,0,57,64
281184,note_off,,96,0,1,,,,,,0,72,64
281184,note_on,,0,0,1,,,,,,0,74,92
281280,note_on,,0,0,2,,,,,,0,60,92
281280,note_off,,96,0,1,,,,,,0,74,64
281280,note_on,,0,0,1,,,,,,0,76,92
281280,note_off,,96,0,2,,,,,,0,59,64
281376,note_off,,96,0,1,,,,,,0,76,64
281376,note_on,,0,0,1,,,,,,0,77,92
281472,note_off,,96,0,1,,,,,,0,77,64
281472,note_on,,0,0,1,,,,,,0,79,92
281568,note_on,,0,0,1,,,,,,0,81,92
281568,note_off,,96,0,1,,,,,,0,79,64
281664,note_on,,0,0,1,,,,,,0,79,92
281664,note_on,,0,0,2,,,,,,0,58,92
281664,note_off,,384,0,2,,,,,,0,60,64
281664,note_off,,96,0,1,,,,,,0,81,64
281760,note_off,,96,0,1,,,,,,0,79,64
281760,note_on,,0,0,2,,,,,,0,57,92
281760,note_off,,96,0,2,,,,,,0,58,64
281760,note_on,,0,0,1,,,,,,0,77,92
281856,note_off,,96,0,1,,,,,,0,77,64
281856,note_on,,0,0,1,,,,,,0,76,92
281856,note_on,,0,0,2,,,,,,0,58,92
281856,note_off,,96,0,2,,,,,,0,57,64
281952,note_off,,96,0,1,,,,,,0,76,64
281952,note_on,,0,0,1,,,,,,0,74,92
282048,note_off,,96,0,1,,,,,,0,74,64
282048,note_on,,0,0,1,,,,,,0,72,92
282144,note_on,,0,0,2,,,,,,0,52,92
282144,note_off,,288,0,2,,,,,,0,58,64
282240,note_off,,96,0,2,,,,,,0,52,64
282240,note_on,,0,0,2,,,,,,0,53,92
282240,note_off,,192,0,1,,,,,,0,72,64
282240,note_on,,0,0,1,,,,,,0,74,92
282336,note_off,,96,0,2,,,,,,0,53,64
282336,note_on,,0,0,2,,,,,,0,55,92
282336,note_on,,0,0,1,,,,,,0,76,92
282336,note_off,,96,0,1,,,,,,0,74,64
282432,note_off,,96,0,2,,,,,,0,55,64
282432,note_on,,0,0,2,,,,,,0,57,92
282432,note_off,,96,0,1,,,,,,0,76,64
282432,note_on,,0,0,1,,,,,,0,77,92
282528,note_off,,96,0,2,,,,,,0,57,64
282528,note_on,,0,0,2,,,,,,0,58,92
282624,note_on,,0,0,2,,,,,,0,60,92
282624,note_off,,96,0,2,,,,,,0,58,64
282720,note_on,,0,0,2,,,,,,0,62,92
282720,note_off,,96,0,2,,,,,,0,60,64
282816,note_on,,0,0,2,,,,,,0,60,92
282816,note_off,,384,0,1,,,,,,0,77,64
282816,note_on,,0,0,1,,,,,,0,75,92
282816,note_off,,96,0,2,,,,,,0,62,64
282912,note_on,,0,0,2,,,,,,0,58,92
282912,note_off,,96,0,1,,,,,,0,75,64
282912,note_off,,96,0,2,,,,,,0,60,64
282912,note_on,,0,0,1,,,,,,0,74,92
283008,note_on,,0,0,1,,,,,,0,75,92
283008,note_off,,96,0,1,,,,,,0,74,64
283008,note_on,,0,0,2,,,,,,0,57,92
283008,note_off,,96,0,2,,,,,,0,58,64
283104,note_on,,0,0,2,,,,,,0,55,92
283104,note_off,,96,0,2,,,,,,0,57,64
283200,note_on,,0,0,2,,,,,,0,53,92
283200,note_off,,96,0,2,,,,,,0,55,64
283296,note_off,,288,0,1,,,,,,0,75,64
283296,note_on,,0,0,1,,,,,,0,69,92
283392,note_off,,192,0,2,,,,,,0,53,64
283392,note_on,,0,0,2,,,,,,0,55,92
283392,note_on,,0,0,1,,,,,,0,70,92
283392,note_off,,96,0,1,,,,,,0,69,64
283488,note_on,,0,0,2,,,,,,0,57,92
283488,note_on,,0,0,1,,,,,,0,72,92
283488,note_off,,96,0,1,,,,,,0,70,64
283488,note_off,,96,0,2,,,,,,0,55,64
283584,note_on,,0,0,2,,,,,,0,58,92
283584,note_off,,96,0,2,,,,,,0,57,64
283584,note_off,,96,0,1,,,,,,0,72,64
283584,note_on,,0,0,1,,,,,,0,74,92
283680,note_off,,96,0,1,,,,,,0,74,64
283680,note_on,,0,0,1,,,,,,0,75,92
283776,note_on,,0,0,1,,,,,,0,77,92
283776,note_off,,96,0,1,,,,,,0,75,64
283872,note_on,,0,0,1,,,,,,0,79,92
283872,note_off,,96,0,1,,,,,,0,77,64
283968,note_on,,0,0,1,,,,,,0,77,92
283968,note_off,,96,0,1,,,,,,0,79,64
283968,note_off,,384,0,2,,,,,,0,58,64
283968,note_on,,0,0,2,,,,,,0,57,92
284064,note_off,,96,0,2,,,,,,0,57,64
284064,note_on,,0,0,1,,,,,,0,75,92
284064,note_off,,96,0,1,,,,,,0,77,64
284064,note_on,,0,0,2,,,,,,0,55,92
284160,note_off,,96,0,2,,,,,,0,55,64
284160,note_on,,0,0,2,,,,,,0,57,92
284160,note_off,,96,0,1,,,,,,0,75,64
284160,note_on,,0,0,1,,,,,,0,74,92
284256,note_off,,96,0,1,,,,,,0,74,64
284256,note_on,,0,0,1,,,,,,0,72,92
284352,note_off,,192,0,2,,,,,,0,57,64
284352,note_on,,0,0,1,,,,,,0,74,92
284352,note_off,,96,0,1,,,,,,0,72,64
284352,note_on,,0,0,2,,,,,,0,58,92
284448,note_off,,96,0,2,,,,,,0,58,64
284448,note_on,,0,0,2,,,,,,0,57,92
284544,note_off,,96,0,2,,,,,,0,57,64
284544,note_on,,0,0,2,,,,,,0,58,92
284544,note_off,,192,0,1,,,,,,0,74,64
284544,note_on,,0,0,1,,,,,,0,77,92
284640,note_off,,96,0,2,,,,,,0,58,64
284640,note_on,,0,0,2,,,,,,0,60,92
284736,note_off,,192,0,1,,,,,,0,77,64
284736,note_on,,0,0,1,,,,,,0,82,92
284736,note_on,,0,0,1,,,,,,0,62,92
284736,note_off,,96,0,2,,,,,,0,60,64
284832,note_off,,96,0,1,,,,,,0,62,64
284832,note_on,,0,0,1,,,,,,0,64,92
284928,note_off,,96,0,1,,,,,,0,64,64
284928,note_on,,0,0,1,,,,,,0,65,92
285024,note_on,,0,0,1,,,,,,0,67,92
285024,note_off,,96,0,1,,,,,,0,65,64
285120,note_on,,0,0,1,,,,,,0,65,92
285120,note_off,,0,0,1,,,,,,0,82,64
285120,note_off,,96,0,1,,,,,,0,67,64
285120,note_on,,0,0,1,,,,,,0,81,92
285216,note_off,,0,0,1,,,,,,0,81,64
285216,note_on,,0,0,1,,,,,,0,63,92
285216,note_off,,96,0,1,,,,,,0,65,64
285216,note_on,,0,0,1,,,,,,0,79,92
285312,note_off,,96,0,1,,,,,,0,63,64
285312,note_on,,0,0,1,,,,,,0,81,92
285312,note_on,,0,0,1,,,,,,0,62,92
285312,note_off,,0,0,1,,,,,,0,79,64
285408,note_off,,96,0,1,,,,,,0,62,64
285408,note_on,,0,0,1,,,,,,0,60,92
285504,note_off,,96,0,1,,,,,,0,60,64
285504,note_on,,0,0,1,,,,,,0,58,92
285600,note_on,,0,0,1,,,,,,0,84,92
285600,note_off,,96,0,1,,,,,,0,81,64
285696,note_off,,96,0,1,,,,,,0,84,64
285696,note_on,,0,0,1,,,,,,0,82,92
285696,note_on,,0,0,1,,,,,,0,65,92
285696,note_off,,0,0,1,,,,,,0,58,64
285792,note_on,,0,0,1,,,,,,0,81,92
285792,note_off,,96,0,1,,,,,,0,82,64
285888,note_on,,0,0,1,,,,,,0,79,92
285888,note_on,,0,0,1,,,,,,0,70,92
285888,note_off,,96,0,1,,,,,,0,81,64
285888,note_off,,0,0,1,,,,,,0,65,64
285984,note_off,,96,0,1,,,,,,0,79,64
285984,note_on,,0,0,1,,,,,,0,78,92
286080,note_off,,96,0,1,,,,,,0,78,64
286080,note_on,,0,0,1,,,,,,0,79,92
286176,note_on,,0,0,1,,,,,,0,74,92
286176,note_off,,96,0,1,,,,,,0,70,64
286272,note_on,,0,0,1,,,,,,0,72,92
286272,note_off,,96,0,1,,,,,,0,74,64
286368,note_on,,0,0,1,,,,,,0,70,92
286368,note_off,,96,0,1,,,,,,0,72,64
286464,note_off,,96,0,1,,,,,,0,70,64
286464,note_on,,0,0,1,,,,,,0,69,92
286560,note_off,,96,0,1,,,,,,0,69,64
286560,note_on,,0,0,1,,,,,,0,67,92
286656,note_on,,0,0,1,,,,,,0,69,92
286656,note_off,,96,0,1,,,,,,0,67,64
286752,note_off,,96,0,1,,,,,,0,79,64
286752,note_on,,0,0,1,,,,,,0,82,92
286848,note_off,,96,0,1,,,,,,0,82,64
286848,note_on,,0,0,1,,,,,,0,81,92
286944,note_off,,96,0,1,,,,,,0,81,64
286944,note_on,,0,0,1,,,,,,0,79,92
287040,note_off,,96,0,1,,,,,,0,79,64
287040,note_on,,0,0,1,,,,,,0,77,92
287136,note_on,,0,0,1,,,,,,0,76,92
287136,note_off,,96,0,1,,,,,,0,77,64
287232,note_on,,0,0,1,,,,,,0,69,92
287232,note_on,,0,0,1,,,,,,0,84,92
287232,note_off,,96,0,1,,,,,,0,76,64
287232,note_off,,0,0,1,,,,,,0,69,64
287328,note_on,,0,0,1,,,,,,0,72,92
287328,note_off,,96,0,1,,,,,,0,69,64
287424,note_on,,0,0,1,,,,,,0,70,92
287424,note_on,,0,0,1,,,,,,0,76,92
287424,note_off,,0,0,1,,,,,,0,84,64
287424,note_off,,96,0,1,,,,,,0,72,64
287520,note_off,,96,0,1,,,,,,0,70,64
287520,note_on,,0,0,1,,,,,,0,69,92
287616,note_off,,96,0,1,,,,,,0,69,64
287616,note_on,,0,0,1,,,,,,0,67,92
287616,note_on,,0,0,1,,,,,,0,77,92
287616,note_off,,0,0,1,,,,,,0,76,64
287712,note_on,,0,0,1,,,,,,0,65,92
287712,note_off,,96,0,1,,,,,,0,67,64
287808,note_on,,0,0,1,,,,,,0,67,92
287808,note_off,,96,0,1,,,,,,0,65,64
287808,note_on,,3072,0,2,,,,,,0,48,92
287904,note_on,,0,0,2,,,,,,0,50,92
287904,note_off,,96,0,2,,,,,,0,48,64
288000,note_on,,0,0,2,,,,,,0,48,92
288000,note_off,,96,0,2,,,,,,0,50,64
288000,note_off,,192,0,1,,,,,,0,77,64
288000,note_on,,0,0,1,,,,,,0,76,92
288096,note_on,,0,0,2,,,,,,0,46,92
288096,note_off,,96,0,2,,,,,,0,48,64
288096,note_off,,96,0,1,,,,,,0,76,64
288096,note_on,,0,0,1,,,,,,0,74,92
288192,note_off,,96,0,2,,,,,,0,46,64
288192,note_off,,96,0,1,,,,,,0,74,64
288192,note_on,,0,0,1,,,,,,0,76,92
288192,note_on,,0,0,2,,,,,,0,45,92
288288,note_on,,0,0,2,,,,,,0,43,92
288288,note_off,,96,0,2,,,,,,0,45,64
288384,note_off,,192,0,1,,,,,,0,76,64
288384,note_on,,0,0,2,,,,,,0,41,92
288384,note_off,,96,0,2,,,,,,0,43,64
288384,note_off,,0,0,1,,,,,,0,67,64
288384,note_on,,0,0,1,,,,,,0,69,92
288384,note_on,,0,0,1,,,,,,0,77,92
288480,note_on,,0,0,2,,,,,,0,40,92
288480,note_off,,96,0,2,,,,,,0,41,64
288576,note_on,,0,0,2,,,,,,0,41,92
288576,note_off,,96,0,2,,,,,,0,40,64
288576,note_off,,192,0,1,,,,,,0,77,64
288576,note_on,,0,0,1,,,,,,0,72,92
288672,note_on,,0,0,2,,,,,,0,43,92
288672,note_off,,96,0,2,,,,,,0,41,64
288768,note_off,,192,0,1,,,,,,0,72,64
288768,note_on,,0,0,2,,,,,,0,45,92
288768,note_off,,96,0,2,,,,,,0,43,64
288768,note_on,,0,0,1,,,,,,0,77,92
288864,note_off,,96,0,2,,,,,,0,45,64
288864,note_on,,0,0,2,,,,,,0,46,92
288960,note_on,,0,0,2,,,,,,0,48,92
288960,note_off,,96,0,2,,,,,,0,46,64
288960,note_off,,192,0,1,,,,,,0,69,64
288960,note_on,,0,0,1,,,,,,0,67,92
289056,note_on,,0,0,2,,,,,,0,45,92
289056,note_off,,96,0,2,,,,,,0,48,64
289152,note_off,,96,0,2,,,,,,0,45,64
289152,note_off,,192,0,1,,,,,,0,67,64
289152,note_off,,0,0,1,,,,,,0,77,64
289152,note_on,,0,0,1,,,,,,0,75,92
289152,note_on,,0,0,1,,,,,,0,69,92
289152,note_on,,0,0,2,,,,,,0,41,92
289248,note_on,,0,0,2,,,,,,0,48,92
289248,note_off,,96,0,2,,,,,,0,41,64
289344,note_on,,0,0,1,,,,,,0,74,92
289344,note_on,,0,0,1,,,,,,0,70,92
289344,note_off,,0,0,1,,,,,,0,75,64
289344,note_off,,192,0,1,,,,,,0,69,64
289344,note_off,,96,0,2,,,,,,0,48,64
289344,note_on,,0,0,2,,,,,,0,50,92
289440,note_off,,96,0,2,,,,,,0,50,64
289440,note_on,,0,0,2,,,,,,0,46,92
289536,note_off,,96,0,2,,,,,,0,46,64
289536,note_on,,0,0,2,,,,,,0,48,92
289632,note_off,,96,0,2,,,,,,0,48,64
289632,note_on,,0,0,2,,,,,,0,45,92
289728,note_off,,96,0,2,,,,,,0,45,64
289728,note_on,,0,0,2,,,,,,0,41,92
289728,note_off,,0,0,1,,,,,,0,70,64
289728,note_on,,0,0,1,,,,,,0,69,92
289728,note_off,,384,0,1,,,,,,0,74,64
289728,note_on,,0,0,1,,,,,,0,72,92
289824,note_on,,0,0,2,,,,,,0,50,92
289824,note_off,,96,0,2,,,,,,0,41,64
289920,note_off,,192,0,1,,,,,,0,72,64
289920,note_off,,96,0,2,,,,,,0,50,64
289920,note_off,,0,0,1,,,,,,0,69,64
289920,note_on,,0,0,2,,,,,,0,51,92
289920,note_on,,0,0,1,,,,,,0,69,92
289920,note_on,,0,0,1,,,,,,0,77,92
290016,note_on,,0,0,2,,,,,,0,48,92
290016,note_off,,96,0,2,,,,,,0,51,64
290112,note_on,,0,0,2,,,,,,0,50,92
290112,note_off,,192,0,1,,,,,,0,77,64
290112,note_off,,96,0,2,,,,,,0,48,64
290112,note_on,,0,0,1,,,,,,0,70,92
290208,note_on,,0,0,2,,,,,,0,46,92
290208,note_off,,96,0,2,,,,,,0,50,64
290304,note_off,,96,0,2,,,,,,0,46,64
290304,note_on,,0,0,2,,,,,,0,41,92
290304,note_on,,0,0,1,,,,,,0,62,92
290304,note_off,,192,0,1,,,,,,0,69,64
290400,note_off,,96,0,2,,,,,,0,41,64
290400,note_on,,0,0,2,,,,,,0,52,92
290496,note_on,,0,0,1,,,,,,0,67,92
290496,note_off,,96,0,2,,,,,,0,52,64
290496,note_on,,0,0,2,,,,,,0,53,92
290496,note_off,,192,0,1,,,,,,0,62,64
290592,note_off,,96,0,2,,,,,,0,53,64
290592,note_on,,0,0,2,,,,,,0,50,92
290688,note_on,,0,0,2,,,,,,0,52,92
290688,note_off,,192,0,1,,,,,,0,67,64
290688,note_on,,0,0,1,,,,,,0,60,92
290688,note_off,,96,0,2,,,,,,0,50,64
290784,note_off,,96,0,2,,,,,,0,52,64
290784,note_on,,0,0,2,,,,,,0,55,92
290880,note_on,,0,0,2,,,,,,0,53,92
290880,note_on,,0,0,1,,,,,,0,69,92
290880,note_off,,96,0,2,,,,,,0,55,64
290880,note_off,,192,0,1,,,,,,0,70,64
290976,note_off,,96,0,1,,,,,,0,69,64
290976,note_on,,0,0,1,,,,,,0,67,92
290976,note_on,,0,0,2,,,,,,0,52,92
290976,note_off,,96,0,2,,,,,,0,53,64
291072,note_on,,0,0,1,,,,,,0,72,92
291072,note_on,,0,0,2,,,,,,0,50,92
291072,note_off,,96,0,2,,,,,,0,52,64
291072,note_off,,96,0,1,,,,,,0,67,64
291168,note_off,,96,0,2,,,,,,0,50,64
291168,note_on,,0,0,2,,,,,,0,48,92
291264,note_on,,0,0,2,,,,,,0,53,92
291264,note_off,,96,0,2,,,,,,0,48,64
291264,note_off,,192,0,1,,,,,,0,72,64
291264,note_on,,0,0,1,,,,,,0,69,92
291456,note_on,,0,0,2,,,,,,0,46,92
291456,note_off,,192,0,2,,,,,,0,53,64
291456,note_on,,0,0,1,,,,,,0,67,92
291456,note_on,,0,0,1,,,,,,0,70,92
291456,note_off,,0,0,1,,,,,,0,60,64
291456,note_off,,192,0,1,,,,,,0,69,64
291648,note_on,,0,0,2,,,,,,0,48,92
291648,note_off,,192,0,2,,,,,,0,46,64
291648,note_off,,0,0,1,,,,,,0,70,64
291648,note_on,,0,0,1,,,,,,0,67,92
291648,note_off,,192,0,1,,,,,,0,67,64
291648,note_on,,0,0,1,,,,,,0,64,92
291840,note_on,,0,0,1,,,,,,0,60,92
291840,note_on,,0,0,1,,,,,,0,65,92
291840,note_off,,0,0,1,,,,,,0,67,64
291840,note_off,,192,0,1,,,,,,0,64,64
291840,note_off,,192,0,2,,,,,,0,48,64
291840,note_on,,0,0,2,,,,,,0,57,92
291840,note_on,,0,0,2,,,,,,0,41,92
292416,note_on,,0,0,2,,,,,,0,48,92
292416,note_off,,0,0,2,,,,,,0,57,64
292416,note_off,,576,0,2,,,,,,0,41,64
292416,note_off,,576,0,1,,,,,,0,60,64
292416,note_off,,0,0,1,,,,,,0,65,64
292512,note_off,,96,0,2,,,,,,0,48,64
292512,note_on,,0,0,2,,,,,,0,47,92
292608,note_off,,96,0,2,,,,,,0,47,64
292608,note_on,,0,0,2,,,,,,0,48,92
292704,note_off,,96,0,2,,,,,,0,48,64
292704,note_on,,0,0,2,,,,,,0,50,92
292800,note_off,,96,0,2,,,,,,0,50,64
292800,note_on,,0,0,2,,,,,,0,52,92
292896,note_on,,0,0,2,,,,,,0,53,92
292896,note_off,,96,0,2,,,,,,0,52,64
292992,note_off,,96,0,2,,,,,,0,53,64
292992,note_on,,0,0,2,,,,,,0,55,92
293088,note_off,,96,0,2,,,,,,0,55,64
293088,note_on,,0,0,2,,,,,,0,57,92
293184,note_off,,96,0,2,,,,,,0,57,64
293184,note_on,,0,0,2,,,,,,0,55,92
293280,note_off,,96,0,2,,,,,,0,55,64
293280,note_on,,0,0,2,,,,,,0,53,92
293376,note_off,,96,0,2,,,,,,0,53,64
293376,note_on,,0,0,2,,,,,,0,52,92
293472,note_off,,96,0,2,,,,,,0,52,64
293472,note_on,,0,0,2,,,,,,0,50,92
293568,note_on,,0,0,2,,,,,,0,48,92
293568,note_off,,96,0,2,,,,,,0,50,64
293664,note_off,,96,0,2,,,,,,0,48,64
293664,note_on,,0,0,2,,,,,,0,52,92
293760,note_off,,96,0,2,,,,,,0,52,64
293760,note_on,,0,0,2,,,,,,0,55,92
293856,note_off,,96,0,2,,,,,,0,55,64
293856,note_on,,0,0,2,,,,,,0,48,92
293952,note_off,,96,0,2,,,,,,0,48,64
293952,note_on,,0,0,2,,,,,,0,47,92
294048,note_off,,96,0,2,,,,,,0,47,64
294048,note_on,,0,0,2,,,,,,0,50,92
294144,note_off,,96,0,2,,,,,,0,50,64
294144,note_on,,0,0,2,,,,,,0,48,92
294240,note_off,,96,0,2,,,,,,0,48,64
294240,note_on,,0,0,2,,,,,,0,52,92
294336,note_on,,0,0,2,,,,,,0,55,92
294336,note_off,,96,0,2,,,,,,0,52,64
294432,note_off,,96,0,2,,,,,,0,55,64
294432,note_on,,0,0,2,,,,,,0,46,92
294528,note_off,,96,0,2,,,,,,0,46,64
294528,note_on,,0,0,2,,,,,,0,45,92
294624,note_off,,96,0,2,,,,,,0,45,64
294624,note_on,,0,0,2,,,,,,0,48,92
294720,note_off,,96,0,2,,,,,,0,48,64
294720,note_on,,0,0,2,,,,,,0,46,92
294816,note_off,,96,0,2,,,,,,0,46,64
294816,note_on,,0,0,2,,,,,,0,52,92
294912,note_off,,96,0,2,,,,,,0,52,64
294912,note_on,,0,0,2,,,,,,0,55,92
295008,note_off,,96,0,2,,,,,,0,55,64
295008,note_on,,0,0,2,,,,,,0,45,92
295104,note_on,,0,0,2,,,,,,0,43,92
295104,note_off,,96,0,2,,,,,,0,45,64
295200,note_off,,96,0,2,,,,,,0,43,64
295200,note_on,,0,0,2,,,,,,0,46,92
295296,note_off,,96,0,2,,,,,,0,46,64
295296,note_on,,0,0,2,,,,,,0,45,92
295392,note_off,,96,0,2,,,,,,0,45,64
295392,note_on,,0,0,2,,,,,,0,41,92
295488,note_off,,96,0,2,,,,,,0,41,64
295488,note_on,,0,0,2,,,,,,0,43,92
295584,note_off,,96,0,2,,,,,,0,43,64
295584,note_on,,0,0,2,,,,,,0,45,92
295680,note_off,,96,0,2,,,,,,0,45,64
295680,note_on,,0,0,2,,,,,,0,46,92
295776,note_off,,96,0,2,,,,,,0,46,64
295776,note_on,,0,0,2,,,,,,0,48,92
295872,note_off,,96,0,2,,,,,,0,48,64
295872,note_on,,0,0,2,,,,,,0,50,92
295872,note_on,,0,0,2,,,,,,0,53,92
295968,note_off,,96,0,2,,,,,,0,53,64
295968,note_on,,0,0,2,,,,,,0,52,92
296064,note_on,,0,0,2,,,,,,0,53,92
296064,note_on,,0,0,2,,,,,,0,48,92
296064,note_off,,0,0,2,,,,,,0,50,64
296064,note_off,,96,0,2,,,,,,0,52,64
296160,note_off,,96,0,2,,,,,,0,53,64
296160,note_on,,0,0,2,,,,,,0,55,92
296256,note_off,,96,0,2,,,,,,0,55,64
296256,note_off,,0,0,2,,,,,,0,48,64
296256,note_on,,0,0,2,,,,,,0,46,92
296256,note_on,,0,0,2,,,,,,0,57,92
296352,note_off,,96,0,2,,,,,,0,57,64
296352,note_on,,0,0,2,,,,,,0,58,92
296448,note_on,,0,0,2,,,,,,0,60,92
296448,note_off,,96,0,2,,,,,,0,58,64
296544,note_off,,96,0,2,,,,,,0,60,64
296544,note_on,,0,0,2,,,,,,0,62,92
296640,note_off,,96,0,2,,,,,,0,62,64
296640,note_off,,0,0,2,,,,,,0,46,64
296640,note_on,,0,0,2,,,,,,0,45,92
296640,note_on,,0,0,2,,,,,,0,60,92
296736,note_on,,0,0,2,,,,,,0,58,92
296736,note_off,,96,0,2,,,,,,0,60,64
296832,note_on,,0,0,2,,,,,,0,57,92
296832,note_on,,0,0,2,,,,,,0,43,92
296832,note_off,,96,0,2,,,,,,0,58,64
296832,note_off,,0,0,2,,,,,,0,45,64
296928,note_off,,96,0,2,,,,,,0,57,64
296928,note_on,,0,0,2,,,,,,0,55,92
297024,note_on,,0,0,2,,,,,,0,53,92
297024,note_off,,0,0,2,,,,,,0,43,64
297024,note_off,,96,0,2,,,,,,0,55,64
297024,note_on,,0,0,2,,,,,,0,45,92
297120,note_on,,0,0,2,,,,,,0,57,92
297120,note_off,,96,0,2,,,,,,0,53,64
297216,note_off,,0,0,2,,,,,,0,45,64
297216,note_on,,0,0,2,,,,,,0,41,92
297216,note_on,,0,0,2,,,,,,0,60,92
297216,note_off,,96,0,2,,,,,,0,57,64
297312,note_off,,96,0,2,,,,,,0,60,64
297312,note_on,,0,0,2,,,,,,0,53,92
297408,note_on,,0,0,2,,,,,,0,52,92
297408,note_on,,0,0,2,,,,,,0,43,92
297408,note_off,,0,0,2,,,,,,0,41,64
297408,note_off,,96,0,2,,,,,,0,53,64
297504,note_on,,0,0,2,,,,,,0,55,92
297504,note_off,,96,0,2,,,,,,0,52,64
297600,note_on,,0,0,2,,,,,,0,53,92
297600,note_on,,0,0,2,,,,,,0,45,92
297600,note_off,,0,0,2,,,,,,0,43,64
297600,note_off,,96,0,2,,,,,,0,55,64
297696,note_on,,0,0,2,,,,,,0,57,92
297696,note_off,,96,0,2,,,,,,0,53,64
297792,note_on,,0,0,2,,,,,,0,60,92
297792,note_on,,0,0,2,,,,,,0,41,92
297792,note_off,,0,0,2,,,,,,0,45,64
297792,note_off,,96,0,2,,,,,,0,57,64
297888,note_off,,96,0,2,,,,,,0,60,64
297888,note_on,,0,0,2,,,,,,0,51,92
297984,note_off,,96,0,2,,,,,,0,51,64
297984,note_off,,0,0,2,,,,,,0,41,64
297984,note_on,,0,0,2,,,,,,0,46,92
297984,note_on,,0,0,2,,,,,,0,50,92
298080,note_on,,0,0,2,,,,,,0,53,92
298080,note_off,,96,0,2,,,,,,0,50,64
298176,note_off,,0,0,2,,,,,,0,46,64
298176,note_on,,0,0,2,,,,,,0,48,92
298176,note_on,,0,0,2,,,,,,0,51,92
298176,note_off,,96,0,2,,,,,,0,53,64
298272,note_on,,0,0,2,,,,,,0,57,92
298272,note_off,,96,0,2,,,,,,0,51,64
298368,note_on,,0,0,2,,,,,,0,41,92
298368,note_off,,96,0,2,,,,,,0,57,64
298368,note_off,,0,0,2,,,,,,0,48,64
298368,note_on,,0,0,2,,,,,,0,60,92
298464,note_off,,96,0,2,,,,,,0,60,64
298464,note_on,,0,0,2,,,,,,0,50,92
298560,note_off,,96,0,2,,,,,,0,50,64
298560,note_off,,0,0,2,,,,,,0,41,64
298560,note_on,,0,0,2,,,,,,0,45,92
298560,note_on,,0,0,2,,,,,,0,48,92
298656,note_on,,0,0,2,,,,,,0,51,92
298656,note_off,,96,0,2,,,,,,0,48,64
298752,note_on,,0,0,2,,,,,,0,46,92
298752,note_off,,0,0,2,,,,,,0,45,64
298752,note_off,,96,0,2,,,,,,0,51,64
298752,note_on,,0,0,2,,,,,,0,50,92
298848,note_on,,0,0,2,,,,,,0,48,92
298848,note_off,,96,0,2,,,,,,0,50,64
298944,note_off,,96,0,2,,,,,,0,48,64
298944,note_off,,0,0,2,,,,,,0,46,64
298944,note_on,,0,0,2,,,,,,0,45,92
298944,note_on,,0,0,2,,,,,,0,50,92
299040,note_off,,96,0,2,,,,,,0,50,64
299040,note_on,,0,0,2,,,,,,0,52,92
299136,note_on,,0,0,2,,,,,,0,53,92
299136,note_on,,0,0,2,,,,,,0,43,92
299136,note_off,,0,0,2,,,,,,0,45,64
299136,note_off,,96,0,2,,,,,,0,52,64
299232,note_off,,96,0,2,,,,,,0,53,64
299232,note_on,,0,0,2,,,,,,0,55,92
299328,note_on,,0,0,2,,,,,,0,57,92
299328,note_on,,0,0,2,,,,,,0,41,92
299328,note_off,,96,0,2,,,,,,0,55,64
299328,note_off,,0,0,2,,,,,,0,43,64
299424,note_off,,96,0,2,,,,,,0,41,64
299424,note_on,,0,0,2,,,,,,0,40,92
299520,note_off,,96,0,2,,,,,,0,40,64
299520,note_on,,0,0,2,,,,,,0,41,92
299616,note_off,,96,0,2,,,,,,0,41,64
299616,note_on,,0,0,2,,,,,,0,43,92
299712,note_on,,0,0,2,,,,,,0,45,92
299712,note_off,,96,0,2,,,,,,0,43,64
299808,note_on,,0,0,2,,,,,,0,47,92
299808,note_off,,96,0,2,,,,,,0,45,64
299904,note_off,,96,0,2,,,,,,0,47,64
299904,note_on,,0,0,2,,,,,,0,48,92
300000,note_off,,96,0,2,,,,,,0,48,64
300000,note_off,,0,0,2,,,,,,0,57,64
300000,note_on,,0,0,2,,,,,,0,55,92
300000,note_on,,0,0,2,,,,,,0,47,92
300096,note_on,,0,0,2,,,,,,0,48,92
300096,note_on,,0,0,2,,,,,,0,57,92
300096,note_off,,96,0,2,,,,,,0,47,64
300096,note_off,,0,0,2,,,,,,0,55,64
300192,note_off,,96,0,2,,,,,,0,48,64
300192,note_off,,0,0,2,,,,,,0,57,64
300192,note_on,,0,0,2,,,,,,0,59,92
300192,note_on,,0,0,2,,,,,,0,50,92
300288,note_off,,0,0,2,,,,,,0,59,64
300288,note_off,,96,0,2,,,,,,0,50,64
300288,note_on,,0,0,2,,,,,,0,52,92
300288,note_on,,0,0,2,,,,,,0,60,92
300384,note_on,,0,0,2,,,,,,0,53,92
300384,note_on,,0,0,2,,,,,,0,57,92
300384,note_off,,0,0,2,,,,,,0,60,64
300384,note_off,,96,0,2,,,,,,0,52,64
300480,note_on,,0,0,2,,,,,,0,43,92
300480,note_on,,0,0,2,,,,,,0,59,92
300480,note_off,,0,0,2,,,,,,0,57,64
300480,note_off,,96,0,2,,,,,,0,53,64
300576,note_off,,96,0,2,,,,,,0,43,64
300576,note_on,,0,0,2,,,,,,0,41,92
300672,note_off,,96,0,2,,,,,,0,41,64
300672,note_on,,0,0,2,,,,,,0,43,92
300768,note_off,,96,0,2,,,,,,0,43,64
300768,note_on,,0,0,2,,,,,,0,45,92
300864,note_off,,96,0,2,,,,,,0,45,64
300864,note_on,,0,0,2,,,,,,0,47,92
300960,note_off,,96,0,2,,,,,,0,47,64
300960,note_on,,0,0,2,,,,,,0,48,92
301056,note_on,,0,0,2,,,,,,0,50,92
301056,note_off,,96,0,2,,,,,,0,48,64
301152,note_on,,0,0,2,,,,,,0,48,92
301152,note_off,,0,0,2,,,,,,0,59,64
301152,note_on,,0,0,2,,,,,,0,57,92
301152,note_off,,96,0,2,,,,,,0,50,64
301248,note_off,,0,0,2,,,,,,0,57,64
301248,note_off,,96,0,2,,,,,,0,48,64
301248,note_on,,0,0,2,,,,,,0,59,92
301248,note_on,,0,0,2,,,,,,0,50,92
301344,note_off,,96,0,2,,,,,,0,50,64
301344,note_on,,0,0,2,,,,,,0,52,92
301344,note_on,,0,0,2,,,,,,0,60,92
301344,note_off,,0,0,2,,,,,,0,59,64
301440,note_on,,0,0,2,,,,,,0,53,92
301440,note_on,,0,0,2,,,,,,0,62,92
301440,note_off,,0,0,2,,,,,,0,60,64
301440,note_off,,96,0,2,,,,,,0,52,64
301536,note_off,,0,0,2,,,,,,0,62,64
301536,note_on,,0,0,2,,,,,,0,59,92
301536,note_off,,96,0,2,,,,,,0,53,64
301536,note_on,,0,0,2,,,,,,0,55,92
301632,note_on,,0,0,2,,,,,,0,45,92
301632,note_on,,9216,0,1,,,,,,0,60,92
301632,note_off,,96,0,2,,,,,,0,55,64
301632,note_off,,0,0,2,,,,,,0,59,64
301728,note_on,,96,0,1,,,,,,0,59,92
301824,note_off,,96,0,1,,,,,,0,59,64
301824,note_off,,0,0,1,,,,,,0,60,64
301824,note_on,,0,0,1,,,,,,0,60,92
301824,note_on,,192,0,2,,,,,,0,53,92
301920,note_off,,96,0,1,,,,,,0,60,64
301920,note_on,,0,0,1,,,,,,0,62,92
302016,note_off,,192,0,2,,,,,,0,53,64
302016,note_on,,0,0,2,,,,,,0,52,92
302016,note_off,,96,0,1,,,,,,0,62,64
302016,note_on,,0,0,1,,,,,,0,64,92
302112,note_off,,96,0,1,,,,,,0,64,64
302112,note_on,,0,0,1,,,,,,0,65,92
302208,note_on,,0,0,2,,,,,,0,47,92
302208,note_on,,0,0,1,,,,,,0,67,92
302208,note_off,,96,0,1,,,,,,0,65,64
302208,note_off,,0,0,2,,,,,,0,45,64
302208,note_on,,0,0,2,,,,,,0,50,92
302208,note_off,,192,0,2,,,,,,0,52,64
302304,note_off,,96,0,1,,,,,,0,67,64
302304,note_on,,0,0,1,,,,,,0,69,92
302400,note_on,,0,0,2,,,,,,0,52,92
302400,note_off,,192,0,2,,,,,,0,50,64
302400,note_off,,96,0,1,,,,,,0,69,64
302400,note_on,,0,0,1,,,,,,0,67,92
302496,note_off,,96,0,1,,,,,,0,67,64
302496,note_on,,0,0,1,,,,,,0,65,92
302592,note_off,,192,0,2,,,,,,0,52,64
302592,note_off,,96,0,1,,,,,,0,65,64
302592,note_on,,0,0,1,,,,,,0,64,92
302592,note_on,,0,0,2,,,,,,0,53,92
302688,note_off,,96,0,1,,,,,,0,64,64
302688,note_on,,0,0,1,,,,,,0,62,92
302784,note_off,,192,0,2,,,,,,0,47,64
302784,note_off,,96,0,1,,,,,,0,62,64
302784,note_on,,0,0,1,,,,,,0,60,92
302784,note_on,,0,0,2,,,,,,0,48,92
302880,note_off,,96,0,1,,,,,,0,60,64
302880,note_on,,0,0,1,,,,,,0,64,92
302976,note_off,,192,0,2,,,,,,0,53,64
302976,note_off,,96,0,1,,,,,,0,64,64
302976,note_on,,0,0,1,,,,,,0,67,92
302976,note_on,,0,0,2,,,,,,0,52,92
303072,note_off,,96,0,1,,,,,,0,67,64
303072,note_on,,0,0,1,,,,,,0,60,92
303168,note_off,,192,0,2,,,,,,0,52,64
303168,note_on,,0,0,2,,,,,,0,50,92
303168,note_off,,96,0,1,,,,,,0,60,64
303168,note_on,,0,0,1,,,,,,0,59,92
303264,note_on,,0,0,1,,,,,,0,62,92
303264,note_off,,96,0,1,,,,,,0,59,64
303360,note_on,,0,0,1,,,,,,0,60,92
303360,note_on,,0,0,2,,,,,,0,52,92
303360,note_off,,192,0,2,,,,,,0,50,64
303360,note_off,,96,0,1,,,,,,0,62,64
303456,note_on,,0,0,1,,,,,,0,64,92
303456,note_off,,96,0,1,,,,,,0,60,64
303552,note_off,,96,0,1,,,,,,0,64,64
303552,note_on,,0,0,1,,,,,,0,67,92
303552,note_on,,0,0,2,,,,,,0,48,92
303552,note_off,,192,0,2,,,,,,0,48,64
303648,note_off,,96,0,1,,,,,,0,67,64
303648,note_on,,0,0,1,,,,,,0,58,92
303744,note_off,,192,0,2,,,,,,0,52,64
303744,note_on,,0,0,2,,,,,,0,53,92
303744,note_on,,0,0,1,,,,,,0,57,92
303744,note_off,,96,0,1,,,,,,0,58,64
303840,note_off,,96,0,1,,,,,,0,57,64
303840,note_on,,0,0,1,,,,,,0,60,92
303936,note_off,,96,0,1,,,,,,0,60,64
303936,note_on,,0,0,1,,,,,,0,58,92
304032,note_on,,0,0,1,,,,,,0,64,92
304032,note_off,,96,0,1,,,,,,0,58,64
304128,note_on,,0,0,1,,,,,,0,67,92
304128,note_off,,96,0,1,,,,,,0,64,64
304128,note_off,,384,0,2,,,,,,0,53,64
304128,note_on,,0,0,2,,,,,,0,52,92
304224,note_off,,96,0,1,,,,,,0,67,64
304224,note_on,,0,0,2,,,,,,0,50,92
304224,note_off,,96,0,2,,,,,,0,52,64
304224,note_on,,0,0,1,,,,,,0,57,92
304320,note_on,,0,0,2,,,,,,0,51,92
304320,note_off,,96,0,2,,,,,,0,50,64
304320,note_off,,96,0,1,,,,,,0,57,64
304320,note_on,,0,0,1,,,,,,0,55,92
304416,note_off,,96,0,1,,,,,,0,55,64
304416,note_on,,0,0,1,,,,,,0,58,92
304512,note_on,,0,0,2,,,,,,0,41,92
304512,note_off,,192,0,2,,,,,,0,48,64
304512,note_off,,96,0,1,,,,,,0,58,64
304512,note_on,,0,0,1,,,,,,0,57,92
304608,note_on,,0,0,1,,,,,,0,53,92
304608,note_off,,96,0,1,,,,,,0,57,64
304704,note_on,,0,0,2,,,,,,0,50,92
304704,note_off,,96,0,1,,,,,,0,53,64
304704,note_on,,0,0,1,,,,,,0,55,92
304704,note_off,,192,0,2,,,,,,0,51,64
304800,note_off,,96,0,1,,,,,,0,55,64
304800,note_on,,0,0,1,,,,,,0,57,92
304896,note_off,,96,0,1,,,,,,0,57,64
304896,note_on,,0,0,1,,,,,,0,58,92
304896,note_off,,192,0,2,,,,,,0,50,64
304896,note_on,,0,0,2,,,,,,0,48,92
304992,note_on,,0,0,1,,,,,,0,60,92
304992,note_off,,96,0,1,,,,,,0,58,64
305088,note_off,,192,0,2,,,,,,0,48,64
305088,note_off,,96,0,1,,,,,,0,60,64
305088,note_on,,0,0,2,,,,,,0,46,92
305088,note_on,,0,0,1,,,,,,0,62,92
305088,note_off,,0,0,2,,,,,,0,41,64
305184,note_on,,96,0,2,,,,,,0,50,92
305280,note_off,,96,0,2,,,,,,0,50,64
305280,note_off,,0,0,2,,,,,,0,46,64
305280,note_on,,0,0,2,,,,,,0,52,92
305376,note_off,,96,0,2,,,,,,0,52,64
305376,note_on,,0,0,2,,,,,,0,54,92
305472,note_off,,96,0,2,,,,,,0,54,64
305472,note_on,,0,0,2,,,,,,0,55,92
305568,note_on,,0,0,2,,,,,,0,57,92
305568,note_off,,96,0,2,,,,,,0,55,64
305664,note_off,,96,0,2,,,,,,0,57,64
305664,note_on,,0,0,2,,,,,,0,58,92
305760,note_on,,0,0,1,,,,,,0,62,92
305760,note_off,,672,0,1,,,,,,0,62,64
305856,note_off,,192,0,2,,,,,,0,58,64
305856,note_on,,0,0,2,,,,,,0,46,92
305856,note_off,,96,0,1,,,,,,0,62,64
305856,note_on,,0,0,1,,,,,,0,64,92
305952,note_off,,96,0,1,,,,,,0,64,64
305952,note_on,,0,0,1,,,,,,0,66,92
306048,note_on,,0,0,2,,,,,,0,45,92
306048,note_off,,192,0,2,,,,,,0,46,64
306048,note_on,,0,0,1,,,,,,0,67,92
306048,note_off,,96,0,1,,,,,,0,66,64
306144,note_on,,0,0,1,,,,,,0,69,92
306144,note_off,,96,0,1,,,,,,0,67,64
306240,note_off,,96,0,1,,,,,,0,69,64
306240,note_on,,0,0,2,,,,,,0,43,92
306240,note_off,,192,0,2,,,,,,0,45,64
306240,note_on,,0,0,1,,,,,,0,70,92
306336,note_on,,96,0,1,,,,,,0,69,92
306432,note_off,,192,0,2,,,,,,0,43,64
306432,note_off,,96,0,1,,,,,,0,69,64
306432,note_on,,0,0,1,,,,,,0,67,92
306528,note_off,,96,0,1,,,,,,0,67,64
306528,note_on,,0,0,1,,,,,,0,65,92
306624,note_off,,96,0,1,,,,,,0,65,64
306624,note_on,,0,0,1,,,,,,0,64,92
306720,note_on,,0,0,1,,,,,,0,62,92
306720,note_off,,96,0,1,,,,,,0,64,64
306816,note_off,,96,0,1,,,,,,0,62,64
306816,note_on,,0,0,1,,,,,,0,61,92
306912,note_off,,96,0,1,,,,,,0,70,64
306912,note_on,,0,0,1,,,,,,0,69,92
307008,note_off,,96,0,1,,,,,,0,69,64
307008,note_off,,0,0,1,,,,,,0,61,64
307008,note_on,,0,0,1,,,,,,0,64,92
307008,note_on,,0,0,1,,,,,,0,71,92
307104,note_off,,96,0,1,,,,,,0,71,64
307104,note_on,,0,0,1,,,,,,0,73,92
307200,note_off,,0,0,1,,,,,,0,64,64
307200,note_on,,768,0,2,,,,,,0,57,92
307200,note_on,,0,0,1,,,,,,0,74,92
307200,note_off,,96,0,1,,,,,,0,73,64
307296,note_off,,96,0,1,,,,,,0,74,64
307296,note_on,,0,0,1,,,,,,0,76,92
307392,note_off,,96,0,1,,,,,,0,76,64
307392,note_on,,0,0,2,,,,,,0,62,92
307392,note_off,,192,0,2,,,,,,0,57,64
307392,note_on,,0,0,1,,,,,,0,77,92
307488,note_off,,96,0,1,,,,,,0,77,64
307488,note_on,,0,0,1,,,,,,0,74,92
307584,note_off,,192,0,2,,,,,,0,62,64
307584,note_off,,96,0,1,,,,,,0,74,64
307584,note_on,,0,0,1,,,,,,0,76,92
307680,note_on,,0,0,1,,,,,,0,77,92
307680,note_on,,96,0,2,,,,,,0,50,92
307680,note_off,,96,0,1,,,,,,0,76,64
307776,note_off,,96,0,2,,,,,,0,50,64
307776,note_on,,0,0,2,,,,,,0,52,92
307776,note_on,,0,0,1,,,,,,0,79,92
307776,note_off,,96,0,1,,,,,,0,77,64
307872,note_on,,0,0,2,,,,,,0,53,92
307872,note_off,,96,0,2,,,,,,0,52,64
307872,note_on,,0,0,1,,,,,,0,81,92
307872,note_off,,96,0,1,,,,,,0,79,64
307968,note_off,,96,0,2,,,,,,0,53,64
307968,note_on,,0,0,2,,,,,,0,55,92
307968,note_off,,96,0,1,,,,,,0,81,64
307968,note_on,,0,0,1,,,,,,0,82,92
308064,note_off,,96,0,1,,,,,,0,82,64
308064,note_on,,0,0,1,,,,,,0,81,92
308064,note_on,,0,0,2,,,,,,0,53,92
308064,note_off,,96,0,2,,,,,,0,55,64
308160,note_off,,96,0,1,,,,,,0,81,64
308160,note_on,,0,0,2,,,,,,0,55,92
308160,note_on,,0,0,1,,,,,,0,79,92
308160,note_off,,96,0,2,,,,,,0,53,64
308256,note_on,,0,0,1,,,,,,0,77,92
308256,note_off,,96,0,2,,,,,,0,55,64
308256,note_on,,0,0,2,,,,,,0,57,92
308256,note_off,,96,0,1,,,,,,0,79,64
308352,note_off,,96,0,2,,,,,,0,57,64
308352,note_on,,0,0,1,,,,,,0,76,92
308352,note_off,,96,0,1,,,,,,0,77,64
308352,note_on,,0,0,2,,,,,,0,58,92
308448,note_on,,0,0,2,,,,,,0,55,92
308448,note_on,,0,0,1,,,,,,0,74,92
308448,note_off,,96,0,1,,,,,,0,76,64
308448,note_off,,96,0,2,,,,,,0,58,64
308544,note_on,,0,0,1,,,,,,0,73,92
308544,note_off,,96,0,1,,,,,,0,74,64
308544,note_off,,96,0,2,,,,,,0,55,64
308544,note_on,,0,0,2,,,,,,0,57,92
308640,note_on,,0,0,1,,,,,,0,76,92
308640,note_off,,96,0,1,,,,,,0,73,64
308736,note_on,,192,0,2,,,,,,0,61,92
308736,note_off,,96,0,1,,,,,,0,76,64
308736,note_on,,0,0,1,,,,,,0,79,92
308832,note_on,,0,0,1,,,,,,0,76,92
308832,note_off,,96,0,1,,,,,,0,79,64
308928,note_off,,192,0,2,,,,,,0,61,64
308928,note_on,,0,0,2,,,,,,0,62,92
308928,note_off,,96,0,1,,,,,,0,76,64
308928,note_on,,0,0,1,,,,,,0,77,92
309024,note_off,,96,0,1,,,,,,0,77,64
309024,note_on,,0,0,1,,,,,,0,74,92
309120,note_off,,96,0,1,,,,,,0,74,64
309120,note_on,,0,0,1,,,,,,0,76,92
309120,note_off,,192,0,2,,,,,,0,62,64
309120,note_off,,0,0,2,,,,,,0,57,64
309120,note_on,,0,0,2,,,,,,0,57,92
309216,note_off,,96,0,1,,,,,,0,76,64
309216,note_on,,0,0,1,,,,,,0,74,92
309312,note_on,,0,0,1,,,,,,0,73,92
309312,note_off,,96,0,1,,,,,,0,74,64
309312,note_on,,0,0,2,,,,,,0,59,92
309312,note_off,,192,0,2,,,,,,0,57,64
309408,note_on,,0,0,1,,,,,,0,71,92
309408,note_off,,96,0,1,,,,,,0,73,64
309504,note_off,,96,0,1,,,,,,0,71,64
309504,note_off,,192,0,2,,,,,,0,59,64
309504,note_on,,0,0,1,,,,,,0,69,92
309504,note_on,,0,0,2,,,,,,0,61,92
309600,note_on,,0,0,1,,,,,,0,79,92
309600,note_off,,96,0,1,,,,,,0,69,64
309696,note_off,,96,0,1,,,,,,0,79,64
309696,note_on,,0,0,2,,,,,,0,62,92
309696,note_off,,192,0,2,,,,,,0,61,64
309696,note_on,,0,0,1,,,,,,0,78,92
309792,note_off,,96,0,1,,,,,,0,78,64
309792,note_on,,0,0,1,,,,,,0,81,92
309888,note_on,,0,0,1,,,,,,0,84,92
309888,note_on,,192,0,2,,,,,,0,54,92
309888,note_off,,96,0,1,,,,,,0,81,64
309984,note_off,,96,0,1,,,,,,0,84,64
309984,note_on,,0,0,1,,,,,,0,81,92
310080,note_on,,0,0,2,,,,,,0,55,92
310080,note_off,,96,0,1,,,,,,0,81,64
310080,note_on,,0,0,1,,,,,,0,82,92
310080,note_off,,192,0,2,,,,,,0,54,64
310176,note_off,,96,0,1,,,,,,0,82,64
310176,note_on,,0,0,1,,,,,,0,79,92
310272,note_off,,192,0,2,,,,,,0,55,64
310272,note_on,,0,0,2,,,,,,0,50,92
310272,note_off,,96,0,1,,,,,,0,79,64
310272,note_on,,0,0,1,,,,,,0,81,92
310368,note_off,,96,0,1,,,,,,0,81,64
310368,note_on,,0,0,1,,,,,,0,79,92
310464,note_on,,0,0,2,,,,,,0,52,92
310464,note_off,,96,0,1,,,,,,0,79,64
310464,note_on,,0,0,1,,,,,,0,78,92
310464,note_off,,192,0,2,,,,,,0,50,64
310560,note_off,,96,0,1,,,,,,0,78,64
310560,note_on,,0,0,1,,,,,,0,76,92
310656,note_off,,192,0,2,,,,,,0,52,64
310656,note_off,,96,0,1,,,,,,0,76,64
310656,note_on,,0,0,1,,,,,,0,74,92
310656,note_on,,0,0,2,,,,,,0,54,92
310752,note_on,,0,0,1,,,,,,0,72,92
310752,note_off,,96,0,1,,,,,,0,74,64
310848,note_off,,192,0,2,,,,,,0,54,64
310848,note_on,,0,0,2,,,,,,0,55,92
310848,note_on,,0,0,1,,,,,,0,71,92
310848,note_off,,96,0,1,,,,,,0,72,64
310944,note_off,,96,0,1,,,,,,0,71,64
310944,note_on,,0,0,1,,,,,,0,74,92
311040,note_on,,0,0,1,,,,,,0,77,92
311040,note_on,,0,0,2,,,,,,0,59,92
311040,note_off,,192,0,2,,,,,,0,62,64
311040,note_off,,96,0,1,,,,,,0,74,64
311136,note_off,,96,0,1,,,,,,0,77,64
311136,note_on,,0,0,1,,,,,,0,74,92
311232,note_off,,96,0,1,,,,,,0,74,64
311232,note_on,,0,0,1,,,,,,0,76,92
311232,note_on,,0,0,2,,,,,,0,60,92
311232,note_off,,192,0,2,,,,,,0,59,64
311328,note_off,,96,0,1,,,,,,0,76,64
311328,note_on,,0,0,1,,,,,,0,72,92
311424,note_on,,0,0,2,,,,,,0,55,92
311424,note_off,,0,0,2,,,,,,0,55,64
311424,note_off,,192,0,2,,,,,,0,60,64
311424,note_on,,0,0,1,,,,,,0,74,92
311424,note_off,,96,0,1,,,,,,0,72,64
311520,note_on,,0,0,1,,,,,,0,72,92
311520,note_off,,96,0,1,,,,,,0,74,64
311616,note_on,,0,0,2,,,,,,0,57,92
311616,note_off,,192,0,2,,,,,,0,55,64
311616,note_off,,96,0,1,,,,,,0,72,64
311616,note_on,,0,0,1,,,,,,0,71,92
311712,note_off,,96,0,1,,,,,,0,71,64
311712,note_on,,0,0,1,,,,,,0,69,92
311808,note_off,,96,0,1,,,,,,0,69,64
311808,note_on,,0,0,1,,,,,,0,67,92
311808,note_off,,192,0,2,,,,,,0,57,64
311808,note_on,,0,0,2,,,,,,0,59,92
311904,note_off,,96,0,1,,,,,,0,67,64
311904,note_on,,0,0,1,,,,,,0,77,92
312000,note_on,,0,0,2,,,,,,0,60,92
312000,note_off,,96,0,1,,,,,,0,77,64
312000,note_on,,0,0,1,,,,,,0,76,92
312000,note_off,,192,0,2,,,,,,0,59,64
312096,note_on,,0,0,1,,,,,,0,79,92
312096,note_off,,96,0,1,,,,,,0,76,64
312192,note_off,,96,0,1,,,,,,0,79,64
312192,note_on,,0,0,1,,,,,,0,82,92
312192,note_on,,192,0,2,,,,,,0,52,92
312288,note_on,,0,0,1,,,,,,0,79,92
312288,note_off,,96,0,1,,,,,,0,82,64
312384,note_on,,0,0,2,,,,,,0,53,92
312384,note_on,,0,0,1,,,,,,0,81,92
312384,note_off,,96,0,1,,,,,,0,79,64
312384,note_off,,192,0,2,,,,,,0,52,64
312480,note_off,,96,0,1,,,,,,0,81,64
312480,note_on,,0,0,1,,,,,,0,77,92
312576,note_on,,0,0,1,,,,,,0,79,92
312576,note_off,,96,0,1,,,,,,0,77,64
312576,note_off,,192,0,2,,,,,,0,53,64
312576,note_on,,0,0,2,,,,,,0,48,92
312672,note_off,,96,0,1,,,,,,0,79,64
312672,note_on,,0,0,1,,,,,,0,77,92
312768,note_off,,96,0,1,,,,,,0,77,64
312768,note_on,,0,0,1,,,,,,0,76,92
312768,note_on,,0,0,2,,,,,,0,50,92
312768,note_off,,192,0,2,,,,,,0,48,64
312864,note_on,,0,0,1,,,,,,0,74,92
312864,note_off,,96,0,1,,,,,,0,76,64
312960,note_off,,96,0,1,,,,,,0,74,64
312960,note_on,,0,0,2,,,,,,0,52,92
312960,note_off,,192,0,2,,,,,,0,50,64
312960,note_on,,0,0,1,,,,,,0,72,92
313056,note_off,,96,0,1,,,,,,0,72,64
313056,note_on,,0,0,1,,,,,,0,70,92
313152,note_off,,96,0,1,,,,,,0,70,64
313152,note_on,,0,0,1,,,,,,0,69,92
313152,note_on,,0,0,2,,,,,,0,53,92
313152,note_off,,192,0,2,,,,,,0,52,64
313248,note_off,,96,0,2,,,,,,0,53,64
313248,note_on,,0,0,2,,,,,,0,52,92
313344,note_on,,0,0,2,,,,,,0,53,92
313344,note_on,,0,0,1,,,,,,0,72,92
313344,note_off,,96,0,2,,,,,,0,52,64
313344,note_off,,192,0,1,,,,,,0,69,64
313440,note_off,,96,0,2,,,,,,0,53,64
313440,note_on,,0,0,2,,,,,,0,55,92
313536,note_off,,96,0,2,,,,,,0,55,64
313536,note_on,,0,0,2,,,,,,0,57,92
313536,note_on,,0,0,1,,,,,,0,69,92
313536,note_on,,0,0,1,,,,,,0,77,92
313536,note_off,,192,0,1,,,,,,0,72,64
313536,note_off,,0,0,2,,,,,,0,60,64
313632,note_off,,96,0,2,,,,,,0,57,64
313632,note_on,,0,0,2,,,,,,0,58,92
313728,note_on,,0,0,1,,,,,,0,67,92
313728,note_off,,192,0,1,,,,,,0,69,64
313728,note_off,,96,0,2,,,,,,0,58,64
313728,note_on,,0,0,2,,,,,,0,60,92
313824,note_on,,0,0,2,,,,,,0,62,92
313824,note_off,,96,0,2,,,,,,0,60,64
313920,note_off,,96,0,2,,,,,,0,62,64
313920,note_off,,192,0,1,,,,,,0,77,64
313920,note_on,,0,0,2,,,,,,0,60,92
313920,note_on,,0,0,1,,,,,,0,76,92
314016,note_on,,0,0,2,,,,,,0,58,92
314016,note_off,,96,0,2,,,,,,0,60,64
314112,note_on,,0,0,1,,,,,,0,70,92
314112,note_off,,0,0,1,,,,,,0,67,64
314112,note_off,,192,0,1,,,,,,0,76,64
314112,note_on,,0,0,2,,,,,,0,57,92
314112,note_off,,96,0,2,,,,,,0,58,64
314112,note_on,,0,0,1,,,,,,0,79,92
314208,note_on,,0,0,2,,,,,,0,55,92
314208,note_off,,96,0,2,,,,,,0,57,64
314304,note_off,,192,0,1,,,,,,0,70,64
314304,note_on,,0,0,1,,,,,,0,69,92
314304,note_off,,96,0,2,,,,,,0,55,64
314304,note_on,,0,0,2,,,,,,0,53,92
314400,note_off,,96,0,2,,,,,,0,53,64
314400,note_on,,0,0,2,,,,,,0,57,92
314496,note_on,,0,0,1,,,,,,0,77,92
314496,note_on,,0,0,2,,,,,,0,60,92
314496,note_off,,192,0,1,,,,,,0,79,64
314496,note_off,,96,0,2,,,,,,0,57,64
314592,note_off,,96,0,2,,,,,,0,60,64
314592,note_on,,0,0,2,,,,,,0,53,92
314688,note_off,,96,0,2,,,,,,0,53,64
314688,note_on,,0,0,2,,,,,,0,52,92
314688,note_off,,0,0,1,,,,,,0,69,64
314688,note_on,,0,0,1,,,,,,0,70,92
314688,note_on,,0,0,1,,,,,,0,67,92
314688,note_off,,192,0,1,,,,,,0,77,64
314784,note_on,,0,0,2,,,,,,0,55,92
314784,note_off,,96,0,2,,,,,,0,52,64
314880,note_on,,0,0,2,,,,,,0,53,92
314880,note_off,,96,0,2,,,,,,0,55,64
314976,note_off,,96,0,2,,,,,,0,53,64
314976,note_on,,0,0,2,,,,,,0,57,92
315072,note_on,,0,0,2,,,,,,0,60,92
315072,note_off,,96,0,2,,,,,,0,57,64
315072,note_on,,0,0,1,,,,,,0,69,92
315072,note_on,,0,0,1,,,,,,0,65,92
315072,note_off,,0,0,1,,,,,,0,70,64
315072,note_off,,384,0,1,,,,,,0,67,64
315168,note_on,,0,0,2,,,,,,0,51,92
315168,note_off,,96,0,2,,,,,,0,60,64
315264,note_on,,0,0,1,,,,,,0,70,92
315264,note_off,,96,0,2,,,,,,0,51,64
315264,note_off,,0,0,1,,,,,,0,65,64
315264,note_on,,0,0,1,,,,,,0,74,92
315264,note_off,,192,0,1,,,,,,0,69,64
315264,note_on,,0,0,2,,,,,,0,50,92
315360,note_on,,0,0,2,,,,,,0,53,92
315360,note_off,,96,0,2,,,,,,0,50,64
315456,note_on,,0,0,2,,,,,,0,51,92
315456,note_off,,96,0,2,,,,,,0,53,64
315552,note_on,,0,0,2,,,,,,0,57,92
315552,note_off,,96,0,2,,,,,,0,51,64
315648,note_off,,96,0,2,,,,,,0,57,64
315648,note_on,,0,0,2,,,,,,0,60,92
315648,note_on,,0,0,1,,,,,,0,72,92
315648,note_on,,0,0,1,,,,,,0,69,92
315648,note_off,,0,0,1,,,,,,0,70,64
315648,note_off,,384,0,1,,,,,,0,74,64
315744,note_off,,96,0,2,,,,,,0,60,64
315744,note_on,,0,0,2,,,,,,0,50,92
315840,note_on,,0,0,1,,,,,,0,72,92
315840,note_off,,0,0,1,,,,,,0,69,64
315840,note_on,,0,0,1,,,,,,0,75,92
315840,note_off,,96,0,2,,,,,,0,50,64
315840,note_on,,0,0,2,,,,,,0,48,92
315840,note_off,,192,0,1,,,,,,0,72,64
315936,note_off,,96,0,2,,,,,,0,48,64
315936,note_on,,0,0,2,,,,,,0,51,92
316032,note_off,,96,0,2,,,,,,0,51,64
316032,note_on,,0,0,2,,,,,,0,50,92
316128,note_on,,0,0,2,,,,,,0,46,92
316128,note_off,,96,0,2,,,,,,0,50,64
316224,note_off,,96,0,2,,,,,,0,46,64
316224,note_off,,384,0,1,,,,,,0,75,64
316224,note_on,,0,0,1,,,,,,0,74,92
316224,note_on,,0,0,1,,,,,,0,70,92
316224,note_off,,0,0,1,,,,,,0,72,64
316224,note_on,,0,0,2,,,,,,0,48,92
316320,note_off,,96,0,2,,,,,,0,48,64
316320,note_on,,0,0,2,,,,,,0,50,92
316416,note_on,,0,0,2,,,,,,0,52,92
316416,note_off,,0,0,1,,,,,,0,70,64
316416,note_off,,192,0,1,,,,,,0,74,64
316416,note_off,,96,0,2,,,,,,0,50,64
316416,note_on,,0,0,1,,,,,,0,69,92
316416,note_on,,0,0,1,,,,,,0,72,92
316512,note_off,,96,0,2,,,,,,0,52,64
316512,note_on,,0,0,2,,,,,,0,54,92
316608,note_off,,96,0,2,,,,,,0,54,64
316608,note_on,,0,0,2,,,,,,0,55,92
316704,note_off,,96,0,2,,,,,,0,55,64
316704,note_on,,0,0,2,,,,,,0,57,92
316800,note_on,,0,0,1,,,,,,0,70,92
316800,note_off,,0,0,1,,,,,,0,69,64
316800,note_on,,0,0,1,,,,,,0,62,92
316800,note_off,,96,0,2,,,,,,0,57,64
316800,note_on,,0,0,2,,,,,,0,55,92
316800,note_off,,384,0,1,,,,,,0,72,64
316896,note_on,,0,0,2,,,,,,0,53,92
316896,note_off,,96,0,1,,,,,,0,70,64
316896,note_on,,0,0,1,,,,,,0,69,92
316896,note_off,,96,0,2,,,,,,0,55,64
316992,note_off,,96,0,2,,,,,,0,53,64
316992,note_on,,0,0,2,,,,,,0,51,92
316992,note_on,,0,0,1,,,,,,0,70,92
316992,note_off,,96,0,1,,,,,,0,69,64
316992,note_off,,0,0,1,,,,,,0,62,64
316992,note_on,,0,0,1,,,,,,0,67,92
317088,note_off,,96,0,2,,,,,,0,51,64
317088,note_on,,0,0,2,,,,,,0,50,92
317184,note_off,,192,0,1,,,,,,0,67,64
317184,note_on,,0,0,1,,,,,,0,63,92
317184,note_on,,0,0,2,,,,,,0,48,92
317184,note_off,,96,0,2,,,,,,0,50,64
317280,note_on,,0,0,2,,,,,,0,46,92
317280,note_off,,96,0,2,,,,,,0,48,64
317376,note_on,,0,0,2,,,,,,0,48,92
317376,note_off,,96,0,2,,,,,,0,46,64
317376,note_off,,192,0,1,,,,,,0,70,64
317376,note_on,,0,0,1,,,,,,0,69,92
317472,note_on,,0,0,2,,,,,,0,50,92
317472,note_off,,96,0,2,,,,,,0,48,64
317568,note_on,,0,0,2,,,,,,0,51,92
317568,note_off,,96,0,2,,,,,,0,50,64
317568,note_on,,0,0,1,,,,,,0,67,92
317568,note_off,,192,0,1,,,,,,0,69,64
317664,note_on,,0,0,2,,,,,,0,48,92
317664,note_off,,96,0,2,,,,,,0,51,64
317760,note_on,,0,0,1,,,,,,0,66,92
317760,note_off,,192,0,1,,,,,,0,67,64
317760,note_off,,96,0,2,,,,,,0,48,64
317760,note_on,,0,0,2,,,,,,0,50,92
317856,note_on,,0,0,1,,,,,,0,63,92
317856,note_off,,96,0,1,,,,,,0,63,64
317952,note_on,,0,0,1,,,,,,0,69,92
317952,note_on,,0,0,1,,,,,,0,62,92
317952,note_off,,96,0,1,,,,,,0,63,64
317952,note_off,,0,0,1,,,,,,0,66,64
318048,note_off,,96,0,1,,,,,,0,62,64
318048,note_on,,0,0,1,,,,,,0,60,92
318144,note_on,,384,0,2,,,,,,0,58,92
318144,note_on,,0,0,1,,,,,,0,74,92
318144,note_off,,0,0,1,,,,,,0,69,64
318144,note_off,,96,0,1,,,,,,0,60,64
318240,note_on,,0,0,2,,,,,,0,57,92
318240,note_off,,96,0,2,,,,,,0,58,64
318336,note_off,,0,0,2,,,,,,0,50,64
318336,note_on,,0,0,2,,,,,,0,52,92
318336,note_on,,0,0,2,,,,,,0,55,92
318336,note_off,,96,0,2,,,,,,0,57,64
318432,note_off,,96,0,2,,,,,,0,55,64
318432,note_on,,0,0,2,,,,,,0,54,92
318528,note_on,,0,0,1,,,,,,0,72,92
318528,note_off,,384,0,1,,,,,,0,74,64
318528,note_on,,0,0,2,,,,,,0,55,92
318528,note_off,,96,0,2,,,,,,0,54,64
318624,note_on,,0,0,2,,,,,,0,57,92
318624,note_off,,96,0,2,,,,,,0,55,64
318720,note_off,,192,0,1,,,,,,0,72,64
318720,note_on,,0,0,1,,,,,,0,70,92
318720,note_off,,96,0,2,,,,,,0,57,64
318720,note_on,,0,0,2,,,,,,0,58,92
318816,note_on,,0,0,2,,,,,,0,60,92
318816,note_off,,96,0,2,,,,,,0,58,64
318912,note_on,,0,0,2,,,,,,0,62,92
318912,note_off,,96,0,2,,,,,,0,60,64
318912,note_on,,0,0,1,,,,,,0,69,92
318912,note_off,,192,0,1,,,,,,0,70,64
318912,note_off,,0,0,2,,,,,,0,52,64
318912,note_on,,0,0,2,,,,,,0,54,92
319008,note_on,,0,0,1,,,,,,0,66,92
319008,note_off,,96,0,1,,,,,,0,69,64
319104,note_off,,192,0,2,,,,,,0,54,64
319104,note_on,,0,0,2,,,,,,0,50,92
319104,note_on,,0,0,1,,,,,,0,67,92
319104,note_off,,96,0,1,,,,,,0,66,64
319200,note_on,,0,0,1,,,,,,0,69,92
319200,note_off,,96,0,1,,,,,,0,67,64
319200,note_off,,96,0,2,,,,,,0,62,64
319200,note_on,,0,0,2,,,,,,0,60,92
319296,note_off,,96,0,1,,,,,,0,69,64
319296,note_on,,0,0,1,,,,,,0,70,92
319296,note_off,,0,0,2,,,,,,0,50,64
319296,note_on,,0,0,2,,,,,,0,55,92
319296,note_off,,96,0,2,,,,,,0,60,64
319296,note_on,,0,0,2,,,,,,0,58,92
319392,note_off,,96,0,1,,,,,,0,70,64
319392,note_on,,0,0,1,,,,,,0,72,92
319488,note_off,,192,0,2,,,,,,0,58,64
319488,note_off,,96,0,1,,,,,,0,72,64
319488,note_on,,0,0,2,,,,,,0,57,92
319488,note_on,,0,0,1,,,,,,0,74,92
319584,note_on,,0,0,1,,,,,,0,75,92
319584,note_off,,96,0,1,,,,,,0,74,64
319680,note_off,,96,0,1,,,,,,0,75,64
319680,note_on,,0,0,1,,,,,,0,74,92
319680,note_off,,192,0,2,,,,,,0,55,64
319680,note_on,,0,0,2,,,,,,0,54,92
319776,note_on,,0,0,1,,,,,,0,72,92
319776,note_on,,0,0,1,,,,,,0,63,92
319776,note_off,,96,0,2,,,,,,0,57,64
319776,note_off,,96,0,1,,,,,,0,74,64
319872,note_on,,0,0,1,,,,,,0,62,92
319872,note_off,,0,0,1,,,,,,0,63,64
319872,note_on,,0,0,1,,,,,,0,70,92
319872,note_off,,96,0,1,,,,,,0,72,64
319968,note_off,,96,0,1,,,,,,0,70,64
319968,note_off,,0,0,1,,,,,,0,62,64
319968,note_on,,0,0,1,,,,,,0,60,92
319968,note_on,,0,0,1,,,,,,0,69,92
320064,note_on,,0,0,1,,,,,,0,67,92
320064,note_on,,0,0,1,,,,,,0,58,92
320064,note_off,,96,0,1,,,,,,0,69,64
320064,note_on,,0,0,2,,,,,,0,55,92
320064,note_off,,0,0,1,,,,,,0,60,64
320064,note_off,,288,0,2,,,,,,0,54,64
320160,note_off,,96,0,1,,,,,,0,67,64
320160,note_off,,0,0,1,,,,,,0,58,64
320160,note_on,,0,0,1,,,,,,0,62,92
320160,note_on,,0,0,1,,,,,,0,70,92
320256,note_off,,96,0,1,,,,,,0,70,64
320256,note_off,,0,0,1,,,,,,0,62,64
320256,note_on,,0,0,1,,,,,,0,74,92
320256,note_off,,192,0,2,,,,,,0,55,64
320256,note_on,,0,0,2,,,,,,0,55,92
320352,note_on,,0,0,2,,,,,,0,58,92
320352,note_off,,96,0,2,,,,,,0,55,64
320352,note_off,,96,0,1,,,,,,0,74,64
320352,note_on,,0,0,1,,,,,,0,67,92
320448,note_on,,0,0,2,,,,,,0,57,92
320448,note_off,,96,0,2,,,,,,0,58,64
320448,note_off,,96,0,1,,,,,,0,67,64
320448,note_on,,0,0,1,,,,,,0,66,92
320544,note_on,,0,0,2,,,,,,0,60,92
320544,note_off,,96,0,2,,,,,,0,57,64
320544,note_off,,96,0,1,,,,,,0,66,64
320544,note_on,,0,0,1,,,,,,0,69,92
320640,note_off,,96,0,1,,,,,,0,69,64
320640,note_on,,0,0,2,,,,,,0,58,92
320640,note_off,,96,0,2,,,,,,0,60,64
320640,note_on,,0,0,1,,,,,,0,67,92
320736,note_on,,0,0,1,,,,,,0,70,92
320736,note_off,,96,0,1,,,,,,0,67,64
320832,note_off,,192,0,2,,,,,,0,58,64
320832,note_on,,0,0,1,,,,,,0,74,92
320832,note_off,,96,0,1,,,,,,0,70,64
320832,note_on,,0,0,2,,,,,,0,59,92
320928,note_on,,0,0,1,,,,,,0,65,92
320928,note_off,,96,0,1,,,,,,0,74,64
321024,note_off,,192,0,2,,,,,,0,59,64
321024,note_on,,0,0,2,,,,,,0,60,92
321024,note_on,,0,0,1,,,,,,0,63,92
321024,note_off,,96,0,1,,,,,,0,65,64
321120,note_on,,0,0,1,,,,,,0,67,92
321120,note_off,,96,0,1,,,,,,0,63,64
321216,note_off,,96,0,1,,,,,,0,67,64
321216,note_on,,0,0,1,,,,,,0,65,92
321312,note_off,,96,0,1,,,,,,0,65,64
321312,note_on,,0,0,1,,,,,,0,71,92
321408,note_off,,96,0,1,,,,,,0,71,64
321408,note_on,,0,0,1,,,,,,0,74,92
321408,note_on,,0,0,2,,,,,,0,59,92
321408,note_off,,384,0,2,,,,,,0,60,64
321504,note_off,,96,0,2,,,,,,0,59,64
321504,note_off,,96,0,1,,,,,,0,74,64
321504,note_on,,0,0,1,,,,,,0,63,92
321504,note_on,,0,0,2,,,,,,0,57,92
321600,note_on,,0,0,1,,,,,,0,62,92
321600,note_off,,96,0,1,,,,,,0,63,64
321600,note_off,,96,0,2,,,,,,0,57,64
321600,note_on,,0,0,2,,,,,,0,59,92
321696,note_on,,0,0,1,,,,,,0,65,92
321696,note_off,,96,0,1,,,,,,0,62,64
321792,note_off,,96,0,1,,,,,,0,65,64
321792,note_on,,0,0,1,,,,,,0,63,92
321792,note_on,,0,0,2,,,,,,0,60,92
321792,note_off,,192,0,2,,,,,,0,59,64
321888,note_on,,96,0,2,,,,,,0,58,92
321984,note_off,,192,0,1,,,,,,0,63,64
321984,note_off,,96,0,2,,,,,,0,58,64
321984,note_on,,0,0,2,,,,,,0,57,92
321984,note_on,,0,0,1,,,,,,0,72,92
322080,note_off,,96,0,2,,,,,,0,57,64
322080,note_on,,0,0,2,,,,,,0,55,92
322176,note_off,,96,0,2,,,,,,0,55,64
322176,note_on,,0,0,2,,,,,,0,54,92
322176,note_on,,0,0,1,,,,,,0,69,92
322176,note_off,,192,0,1,,,,,,0,72,64
322272,note_off,,96,0,2,,,,,,0,54,64
322272,note_on,,0,0,2,,,,,,0,52,92
322368,note_on,,0,0,1,,,,,,0,66,92
322368,note_off,,192,0,1,,,,,,0,69,64
322368,note_on,,0,0,2,,,,,,0,50,92
322368,note_off,,96,0,2,,,,,,0,52,64
322464,note_on,,0,0,2,,,,,,0,60,92
322464,note_off,,96,0,2,,,,,,0,60,64
322560,note_off,,96,0,2,,,,,,0,60,64
322560,note_off,,192,0,1,,,,,,0,66,64
322560,note_on,,0,0,2,,,,,,0,58,92
322560,note_on,,0,0,1,,,,,,0,62,92
322656,note_on,,0,0,2,,,,,,0,57,92
322656,note_off,,96,0,2,,,,,,0,58,64
322752,note_off,,192,0,1,,,,,,0,62,64
322752,note_on,,0,0,1,,,,,,0,67,92
322752,note_on,,0,0,2,,,,,,0,55,92
322752,note_on,,0,0,2,,,,,,0,51,92
322752,note_off,,0,0,2,,,,,,0,50,64
322752,note_off,,96,0,2,,,,,,0,57,64
322848,note_off,,96,0,2,,,,,,0,55,64
322848,note_on,,0,0,2,,,,,,0,54,92
322944,note_on,,0,0,2,,,,,,0,55,92
322944,note_on,,0,0,2,,,,,,0,48,92
322944,note_off,,0,0,2,,,,,,0,51,64
322944,note_off,,96,0,2,,,,,,0,54,64
323040,note_on,,0,0,1,,,,,,0,69,92
323040,note_off,,288,0,1,,,,,,0,67,64
323136,note_on,,0,0,1,,,,,,0,70,92
323136,note_off,,96,0,1,,,,,,0,69,64
323136,note_on,,0,0,2,,,,,,0,50,92
323136,note_off,,192,0,2,,,,,,0,48,64
323184,note_off,,48,0,1,,,,,,0,70,64
323184,note_on,,0,0,1,,,,,,0,69,92
323232,note_off,,48,0,1,,,,,,0,69,64
323232,note_on,,0,0,1,,,,,,0,70,92
323280,note_on,,0,0,1,,,,,,0,69,92
323280,note_off,,48,0,1,,,,,,0,70,64
323328,note_on,,0,0,1,,,,,,0,70,92
323328,note_off,,48,0,1,,,,,,0,69,64
323328,note_off,,192,0,2,,,,,,0,55,64
323328,note_on,,0,0,2,,,,,,0,54,92
323376,note_off,,48,0,1,,,,,,0,70,64
323376,note_on,,0,0,1,,,,,,0,69,92
323424,note_on,,0,0,1,,,,,,0,67,92
323424,note_off,,48,0,1,,,,,,0,69,64
323520,note_off,,96,0,1,,,,,,0,67,64
323520,note_on,,0,0,1,,,,,,0,67,92
323520,note_off,,192,0,2,,,,,,0,54,64
323520,note_off,,0,0,2,,,,,,0,50,64
323520,note_on,,0,0,2,,,,,,0,43,92
323520,note_on,,0,0,2,,,,,,0,55,92
323616,note_on,,0,0,2,,,,,,0,54,92
323616,note_off,,96,0,2,,,,,,0,55,64
323712,note_on,,0,0,2,,,,,,0,55,92
323712,note_off,,0,0,2,,,,,,0,43,64
323712,note_off,,96,0,2,,,,,,0,54,64
323712,note_off,,192,0,1,,,,,,0,67,64
323712,note_on,,0,0,1,,,,,,0,74,92
323808,note_on,,0,0,2,,,,,,0,57,92
323808,note_off,,96,0,2,,,,,,0,55,64
323904,note_on,,0,0,2,,,,,,0,58,92
323904,note_off,,96,0,2,,,,,,0,57,64
323904,note_off,,192,0,1,,,,,,0,74,64
323904,note_on,,0,0,1,,,,,,0,79,92
324000,note_on,,0,0,2,,,,,,0,60,92
324000,note_off,,96,0,2,,,,,,0,58,64
324096,note_off,,96,0,2,,,,,,0,60,64
324096,note_on,,192,0,1,,,,,,0,62,92
324192,note_on,,0,0,1,,,,,,0,64,92
324192,note_off,,96,0,1,,,,,,0,62,64
324288,note_off,,96,0,1,,,,,,0,64,64
324288,note_off,,0,0,1,,,,,,0,79,64
324288,note_on,,0,0,1,,,,,,0,77,92
324288,note_on,,0,0,1,,,,,,0,62,92
324384,note_off,,96,0,1,,,,,,0,62,64
324384,note_off,,0,0,1,,,,,,0,77,64
324384,note_on,,0,0,1,,,,,,0,76,92
324384,note_on,,0,0,1,,,,,,0,60,92
324480,note_off,,96,0,1,,,,,,0,60,64
324480,note_off,,0,0,1,,,,,,0,76,64
324480,note_on,,0,0,1,,,,,,0,77,92
324480,note_on,,384,0,2,,,,,,0,59,92
324576,note_off,,96,0,2,,,,,,0,59,64
324576,note_on,,0,0,2,,,,,,0,57,92
324672,note_off,,96,0,2,,,,,,0,57,64
324672,note_on,,0,0,2,,,,,,0,55,92
324768,note_on,,0,0,1,,,,,,0,71,92
324768,note_off,,288,0,1,,,,,,0,77,64
324864,note_on,,0,0,1,,,,,,0,72,92
324864,note_off,,96,0,1,,,,,,0,71,64
324864,note_off,,192,0,2,,,,,,0,55,64
324864,note_on,,0,0,2,,,,,,0,57,92
324960,note_on,,0,0,1,,,,,,0,74,92
324960,note_off,,96,0,1,,,,,,0,72,64
324960,note_on,,0,0,2,,,,,,0,59,92
324960,note_off,,96,0,2,,,,,,0,57,64
325056,note_off,,96,0,1,,,,,,0,74,64
325056,note_on,,0,0,2,,,,,,0,60,92
325056,note_off,,96,0,2,,,,,,0,59,64
325056,note_on,,0,0,1,,,,,,0,76,92
325152,note_off,,96,0,1,,,,,,0,76,64
325152,note_on,,0,0,1,,,,,,0,77,92
325248,note_on,,0,0,1,,,,,,0,79,92
325248,note_off,,96,0,1,,,,,,0,77,64
325344,note_off,,96,0,1,,,,,,0,79,64
325344,note_on,,0,0,1,,,,,,0,81,92
325440,note_on,,0,0,2,,,,,,0,58,92
325440,note_off,,96,0,1,,,,,,0,81,64
325440,note_on,,0,0,1,,,,,,0,79,92
325440,note_off,,384,0,2,,,,,,0,60,64
325536,note_off,,96,0,1,,,,,,0,79,64
325536,note_on,,0,0,1,,,,,,0,77,92
325536,note_on,,0,0,2,,,,,,0,57,92
325536,note_off,,96,0,2,,,,,,0,58,64
325632,note_off,,96,0,1,,,,,,0,77,64
325632,note_on,,0,0,1,,,,,,0,76,92
325632,note_on,,0,0,2,,,,,,0,58,92
325632,note_off,,96,0,2,,,,,,0,57,64
325728,note_off,,96,0,1,,,,,,0,76,64
325728,note_on,,0,0,1,,,,,,0,74,92
325824,note_off,,96,0,1,,,,,,0,74,64
325824,note_on,,0,0,1,,,,,,0,72,92
325920,note_on,,0,0,2,,,,,,0,52,92
325920,note_off,,288,0,2,,,,,,0,58,64
326016,note_on,,0,0,1,,,,,,0,74,92
326016,note_off,,192,0,1,,,,,,0,72,64
326016,note_on,,0,0,2,,,,,,0,53,92
326016,note_off,,96,0,2,,,,,,0,52,64
326112,note_off,,96,0,2,,,,,,0,53,64
326112,note_on,,0,0,2,,,,,,0,55,92
326112,note_on,,0,0,1,,,,,,0,76,92
326112,note_off,,96,0,1,,,,,,0,74,64
326208,note_off,,96,0,2,,,,,,0,55,64
326208,note_on,,0,0,2,,,,,,0,57,92
326208,note_off,,96,0,1,,,,,,0,76,64
326208,note_on,,0,0,1,,,,,,0,77,92
326304,note_off,,96,0,2,,,,,,0,57,64
326304,note_on,,0,0,2,,,,,,0,58,92
326400,note_off,,96,0,2,,,,,,0,58,64
326400,note_on,,0,0,2,,,,,,0,60,92
326496,note_off,,96,0,2,,,,,,0,60,64
326496,note_on,,0,0,2,,,,,,0,62,92
326592,note_off,,96,0,2,,,,,,0,62,64
326592,note_on,,0,0,2,,,,,,0,60,92
326592,note_off,,384,0,1,,,,,,0,77,64
326592,note_on,,0,0,1,,,,,,0,75,92
326688,note_on,,0,0,2,,,,,,0,58,92
326688,note_off,,96,0,2,,,,,,0,60,64
326688,note_off,,96,0,1,,,,,,0,75,64
326688,note_on,,0,0,1,,,,,,0,74,92
326784,note_on,,0,0,2,,,,,,0,57,92
326784,note_off,,96,0,2,,,,,,0,58,64
326784,note_off,,96,0,1,,,,,,0,74,64
326784,note_on,,0,0,1,,,,,,0,75,92
326880,note_on,,0,0,2,,,,,,0,55,92
326880,note_off,,96,0,2,,,,,,0,57,64
326976,note_off,,96,0,2,,,,,,0,55,64
326976,note_on,,0,0,2,,,,,,0,53,92
327072,note_on,,0,0,1,,,,,,0,69,92
327072,note_off,,288,0,1,,,,,,0,75,64
327168,note_off,,96,0,1,,,,,,0,69,64
327168,note_on,,0,0,1,,,,,,0,70,92
327168,note_off,,192,0,2,,,,,,0,53,64
327168,note_on,,0,0,2,,,,,,0,55,92
327264,note_on,,0,0,1,,,,,,0,72,92
327264,note_off,,96,0,2,,,,,,0,55,64
327264,note_on,,0,0,2,,,,,,0,57,92
327264,note_off,,96,0,1,,,,,,0,70,64
327360,note_on,,0,0,1,,,,,,0,74,92
327360,note_off,,96,0,1,,,,,,0,72,64
327360,note_on,,0,0,2,,,,,,0,58,92
327360,note_off,,96,0,2,,,,,,0,57,64
327456,note_off,,96,0,1,,,,,,0,74,64
327456,note_on,,0,0,1,,,,,,0,75,92
327552,note_off,,96,0,1,,,,,,0,75,64
327552,note_on,,0,0,1,,,,,,0,77,92
327648,note_on,,0,0,1,,,,,,0,79,92
327648,note_off,,96,0,1,,,,,,0,77,64
327744,note_off,,384,0,2,,,,,,0,58,64
327744,note_on,,0,0,1,,,,,,0,77,92
327744,note_off,,96,0,1,,,,,,0,79,64
327744,note_on,,0,0,2,,,,,,0,57,92
327840,note_off,,96,0,1,,,,,,0,77,64
327840,note_off,,96,0,2,,,,,,0,57,64
327840,note_on,,0,0,2,,,,,,0,55,92
327840,note_on,,0,0,1,,,,,,0,75,92
327936,note_off,,96,0,1,,,,,,0,75,64
327936,note_on,,0,0,1,,,,,,0,74,92
327936,note_off,,96,0,2,,,,,,0,55,64
327936,note_on,,0,0,2,,,,,,0,57,92
328032,note_off,,96,0,1,,,,,,0,74,64
328032,note_on,,0,0,1,,,,,,0,72,92
328128,note_on,,0,0,2,,,,,,0,58,92
328128,note_off,,192,0,2,,,,,,0,57,64
328128,note_off,,96,0,1,,,,,,0,72,64
328128,note_on,,0,0,1,,,,,,0,74,92
328224,note_on,,0,0,2,,,,,,0,57,92
328224,note_off,,96,0,2,,,,,,0,58,64
328320,note_on,,0,0,2,,,,,,0,58,92
328320,note_off,,192,0,1,,,,,,0,74,64
328320,note_off,,96,0,2,,,,,,0,57,64
328320,note_on,,0,0,1,,,,,,0,77,92
328416,note_on,,0,0,2,,,,,,0,60,92
328416,note_off,,96,0,2,,,,,,0,58,64
328512,note_off,,192,0,1,,,,,,0,77,64
328512,note_on,,0,0,1,,,,,,0,82,92
328512,note_on,,0,0,1,,,,,,0,62,92
328512,note_off,,96,0,2,,,,,,0,60,64
328608,note_on,,0,0,1,,,,,,0,64,92
328608,note_off,,96,0,1,,,,,,0,62,64
328704,note_off,,96,0,1,,,,,,0,64,64
328704,note_on,,0,0,1,,,,,,0,65,92
328800,note_on,,0,0,1,,,,,,0,67,92
328800,note_off,,96,0,1,,,,,,0,65,64
328896,note_off,,0,0,1,,,,,,0,82,64
328896,note_on,,0,0,1,,,,,,0,81,92
328896,note_off,,96,0,1,,,,,,0,67,64
328896,note_on,,0,0,1,,,,,,0,65,92
328992,note_on,,0,0,1,,,,,,0,63,92
328992,note_on,,0,0,1,,,,,,0,79,92
328992,note_off,,0,0,1,,,,,,0,81,64
328992,note_off,,96,0,1,,,,,,0,65,64
329088,note_on,,0,0,1,,,,,,0,62,92
329088,note_on,,0,0,1,,,,,,0,81,92
329088,note_off,,0,0,1,,,,,,0,79,64
329088,note_off,,96,0,1,,,,,,0,63,64
329184,note_off,,96,0,1,,,,,,0,62,64
329184,note_on,,0,0,1,,,,,,0,60,92
329280,note_off,,96,0,1,,,,,,0,60,64
329280,note_on,,0,0,1,,,,,,0,58,92
329376,note_on,,0,0,1,,,,,,0,84,92
329376,note_off,,96,0,1,,,,,,0,81,64
329472,note_off,,96,0,1,,,,,,0,84,64
329472,note_off,,0,0,1,,,,,,0,58,64
329472,note_on,,0,0,1,,,,,,0,65,92
329472,note_on,,0,0,1,,,,,,0,82,92
329568,note_off,,96,0,1,,,,,,0,82,64
329568,note_on,,0,0,1,,,,,,0,81,92
329664,note_off,,96,0,1,,,,,,0,81,64
329664,note_off,,0,0,1,,,,,,0,65,64
329664,note_on,,0,0,1,,,,,,0,79,92
329664,note_on,,0,0,1,,,,,,0,70,92
329760,note_on,,0,0,1,,,,,,0,78,92
329760,note_off,,96,0,1,,,,,,0,79,64
329856,note_off,,96,0,1,,,,,,0,78,64
329856,note_on,,0,0,1,,,,,,0,79,92
329952,note_off,,96,0,1,,,,,,0,70,64
329952,note_on,,0,0,1,,,,,,0,74,92
330048,note_off,,96,0,1,,,,,,0,74,64
330048,note_on,,0,0,1,,,,,,0,72,92
330144,note_off,,96,0,1,,,,,,0,72,64
330144,note_on,,0,0,1,,,,,,0,70,92
330240,note_off,,96,0,1,,,,,,0,70,64
330240,note_on,,0,0,1,,,,,,0,69,92
330336,note_on,,0,0,1,,,,,,0,67,92
330336,note_off,,96,0,1,,,,,,0,69,64
330432,note_off,,96,0,1,,,,,,0,67,64
330432,note_on,,0,0,1,,,,,,0,69,92
330528,note_off,,96,0,1,,,,,,0,79,64
330528,note_on,,0,0,1,,,,,,0,82,92
330624,note_off,,96,0,1,,,,,,0,82,64
330624,note_on,,0,0,1,,,,,,0,81,92
330720,note_off,,96,0,1,,,,,,0,81,64
330720,note_on,,0,0,1,,,,,,0,79,92
330816,note_off,,96,0,1,,,,,,0,79,64
330816,note_on,,0,0,1,,,,,,0,77,92
330912,note_off,,96,0,1,,,,,,0,77,64
330912,note_on,,0,0,1,,,,,,0,76,92
331008,note_off,,96,0,1,,,,,,0,76,64
331008,note_off,,0,0,1,,,,,,0,69,64
331008,note_on,,0,0,1,,,,,,0,84,92
331008,note_on,,0,0,1,,,,,,0,69,92
331104,note_off,,96,0,1,,,,,,0,69,64
331104,note_on,,0,0,1,,,,,,0,72,92
331200,note_on,,0,0,1,,,,,,0,70,92
331200,note_on,,0,0,1,,,,,,0,76,92
331200,note_off,,96,0,1,,,,,,0,72,64
331200,note_off,,0,0,1,,,,,,0,84,64
331296,note_off,,96,0,1,,,,,,0,70,64
331296,note_on,,0,0,1,,,,,,0,69,92
331392,note_on,,0,0,1,,,,,,0,67,92
331392,note_off,,96,0,1,,,,,,0,69,64
331392,note_off,,0,0,1,,,,,,0,76,64
331392,note_on,,0,0,1,,,,,,0,77,92
331488,note_on,,0,0,1,,,,,,0,65,92
331488,note_off,,96,0,1,,,,,,0,67,64
331584,note_off,,96,0,1,,,,,,0,65,64
331584,note_on,,0,0,1,,,,,,0,67,92
331584,note_on,,3072,0,2,,,,,,0,48,92
331680,note_off,,96,0,2,,,,,,0,48,64
331680,note_on,,0,0,2,,,,,,0,50,92
331776,note_off,,192,0,1,,,,,,0,77,64
331776,note_on,,0,0,1,,,,,,0,76,92
331776,note_on,,0,0,2,,,,,,0,48,92
331776,note_off,,96,0,2,,,,,,0,50,64
331872,note_off,,96,0,1,,,,,,0,76,64
331872,note_on,,0,0,1,,,,,,0,74,92
331872,note_on,,0,0,2,,,,,,0,46,92
331872,note_off,,96,0,2,,,,,,0,48,64
331968,note_off,,96,0,2,,,,,,0,46,64
331968,note_on,,0,0,1,,,,,,0,76,92
331968,note_off,,96,0,1,,,,,,0,74,64
331968,note_on,,0,0,2,,,,,,0,45,92
332064,note_on,,0,0,2,,,,,,0,43,92
332064,note_off,,96,0,2,,,,,,0,45,64
332160,note_off,,192,0,1,,,,,,0,76,64
332160,note_off,,0,0,1,,,,,,0,67,64
332160,note_on,,0,0,1,,,,,,0,69,92
332160,note_on,,0,0,1,,,,,,0,77,92
332160,note_off,,96,0,2,,,,,,0,43,64
332160,note_on,,0,0,2,,,,,,0,41,92
332256,note_off,,96,0,2,,,,,,0,41,64
332256,note_on,,0,0,2,,,,,,0,40,92
332352,note_on,,0,0,1,,,,,,0,72,92
332352,note_off,,96,0,2,,,,,,0,40,64
332352,note_off,,192,0,1,,,,,,0,77,64
332352,note_on,,0,0,2,,,,,,0,41,92
332448,note_off,,96,0,2,,,,,,0,41,64
332448,note_on,,0,0,2,,,,,,0,43,92
332544,note_off,,96,0,2,,,,,,0,43,64
332544,note_on,,0,0,2,,,,,,0,45,92
332544,note_on,,0,0,1,,,,,,0,77,92
332544,note_off,,192,0,1,,,,,,0,72,64
332640,note_off,,96,0,2,,,,,,0,45,64
332640,note_on,,0,0,2,,,,,,0,46,92
332736,note_on,,0,0,1,,,,,,0,67,92
332736,note_off,,192,0,1,,,,,,0,69,64
332736,note_off,,96,0,2,,,,,,0,46,64
332736,note_on,,0,0,2,,,,,,0,48,92
332832,note_off,,96,0,2,,,,,,0,48,64
332832,note_on,,0,0,2,,,,,,0,45,92
332928,note_off,,96,0,2,,,,,,0,45,64
332928,note_on,,0,0,2,,,,,,0,41,92
332928,note_off,,0,0,1,,,,,,0,77,64
332928,note_on,,0,0,1,,,,,,0,75,92
332928,note_on,,0,0,1,,,,,,0,69,92
332928,note_off,,192,0,1,,,,,,0,67,64
333024,note_off,,96,0,2,,,,,,0,41,64
333024,note_on,,0,0,2,,,,,,0,48,92
333120,note_on,,0,0,2,,,,,,0,50,92
333120,note_off,,96,0,2,,,,,,0,48,64
333120,note_on,,0,0,1,,,,,,0,74,92
333120,note_on,,0,0,1,,,,,,0,70,92
333120,note_off,,0,0,1,,,,,,0,75,64
333120,note_off,,192,0,1,,,,,,0,69,64
333216,note_on,,0,0,2,,,,,,0,46,92
333216,note_off,,96,0,2,,,,,,0,50,64
333312,note_on,,0,0,2,,,,,,0,48,92
333312,note_off,,96,0,2,,,,,,0,46,64
333408,note_off,,96,0,2,,,,,,0,48,64
333408,note_on,,0,0,2,,,,,,0,45,92
333504,note_off,,384,0,1,,,,,,0,74,64
333504,note_off,,0,0,1,,,,,,0,70,64
333504,note_on,,0,0,1,,,,,,0,69,92
333504,note_on,,0,0,1,,,,,,0,72,92
333504,note_off,,96,0,2,,,,,,0,45,64
333504,note_on,,0,0,2,,,,,,0,41,92
333600,note_off,,96,0,2,,,,,,0,41,64
333600,note_on,,0,0,2,,,,,,0,50,92
333696,note_off,,192,0,1,,,,,,0,72,64
333696,note_off,,0,0,1,,,,,,0,69,64
333696,note_on,,0,0,1,,,,,,0,69,92
333696,note_on,,0,0,1,,,,,,0,77,92
333696,note_off,,96,0,2,,,,,,0,50,64
333696,note_on,,0,0,2,,,,,,0,51,92
333792,note_on,,0,0,2,,,,,,0,48,92
333792,note_off,,96,0,2,,,,,,0,51,64
333888,note_on,,0,0,2,,,,,,0,50,92
333888,note_on,,0,0,1,,,,,,0,70,92
333888,note_off,,192,0,1,,,,,,0,77,64
333888,note_off,,96,0,2,,,,,,0,48,64
333984,note_off,,96,0,2,,,,,,0,50,64
333984,note_on,,0,0,2,,,,,,0,46,92
334080,note_on,,0,0,1,,,,,,0,62,92
334080,note_off,,192,0,1,,,,,,0,69,64
334080,note_off,,96,0,2,,,,,,0,46,64
334080,note_on,,0,0,2,,,,,,0,41,92
334176,note_off,,96,0,2,,,,,,0,41,64
334176,note_on,,0,0,2,,,,,,0,52,92
334272,note_off,,96,0,2,,,,,,0,52,64
334272,note_on,,0,0,2,,,,,,0,53,92
334272,note_on,,0,0,1,,,,,,0,67,92
334272,note_off,,192,0,1,,,,,,0,62,64
334368,note_on,,0,0,2,,,,,,0,50,92
334368,note_off,,96,0,2,,,,,,0,53,64
334464,note_off,,96,0,2,,,,,,0,50,64
334464,note_on,,0,0,2,,,,,,0,52,92
334464,note_off,,192,0,1,,,,,,0,67,64
334464,note_on,,0,0,1,,,,,,0,60,92
334560,note_on,,0,0,2,,,,,,0,55,92
334560,note_off,,96,0,2,,,,,,0,52,64
334656,note_on,,0,0,1,,,,,,0,69,92
334656,note_off,,192,0,1,,,,,,0,70,64
334656,note_off,,96,0,2,,,,,,0,55,64
334656,note_on,,0,0,2,,,,,,0,53,92
334752,note_off,,96,0,1,,,,,,0,69,64
334752,note_on,,0,0,1,,,,,,0,67,92
334752,note_off,,96,0,2,,,,,,0,53,64
334752,note_on,,0,0,2,,,,,,0,52,92
334848,note_on,,0,0,1,,,,,,0,72,92
334848,note_off,,96,0,1,,,,,,0,67,64
334848,note_off,,96,0,2,,,,,,0,52,64
334848,note_on,,0,0,2,,,,,,0,50,92
334944,note_off,,96,0,2,,,,,,0,50,64
334944,note_on,,0,0,2,,,,,,0,48,92
335040,note_off,,192,0,1,,,,,,0,72,64
335040,note_off,,96,0,2,,,,,,0,48,64
335040,note_on,,0,0,2,,,,,,0,53,92
335040,set_tempo,750000,141696,1,0,,,,,,,,
335040,note_on,,0,0,1,,,,,,0,69,92
335232,note_on,,0,0,1,,,,,,0,70,92
335232,note_on,,0,0,2,,,,,,0,46,92
335232,note_on,,0,0,1,,,,,,0,67,92
335232,note_off,,0,0,1,,,,,,0,60,64
335232,note_off,,192,0,1,,,,,,0,69,64
335232,note_off,,192,0,2,,,,,,0,53,64
335424,note_on,,0,0,2,,,,,,0,48,92
335424,note_off,,192,0,1,,,,,,0,67,64
335424,note_off,,0,0,1,,,,,,0,70,64
335424,note_on,,0,0,1,,,,,,0,64,92
335424,note_on,,0,0,1,,,,,,0,67,92
335424,note_off,,192,0,2,,,,,,0,46,64
335616,set_tempo,2000000,576,1,0,,,,,,,,
335616,note_on,,0,0,1,,,,,,0,65,92
335616,note_on,,0,0,1,,,,,,0,60,92
335616,note_off,,192,0,2,,,,,,0,48,64
335616,note_on,,0,0,2,,,,,,0,57,92
335616,note_on,,0,0,2,,,,,,0,41,92
335616,note_off,,0,0,1,,,,,,0,67,64
335616,note_off,,192,0,1,,,,,,0,64,64
336192,note_off,,576,0,1,,,,,,0,60,64
336192,note_off,,0,0,2,,,,,,0,57,64
336192,end_of_track,,576,1,0,,,,,,,,
336192,end_of_track,,0,1,1,,,,,,,,
336192,end_of_track,,0,1,2,,,,,,,,
336192,note_off,,576,0,2,,,,,,0,41,64
336192,note_off,,0,0,1,,,,,,0,65,64
