,note,step,duration,channel,velocity
0,81.0,204,60,0.0,0.0
1,81.0,156,180,0.0,0.0
2,57.0,72,2010,1.0,0.0
3,61.0,0,300,1.0,0.0
4,64.0,96,240,1.0,0.0
5,69.0,0,180,0.0,0.0
6,73.0,60,60,0.0,0.0
7,76.0,24,60,0.0,0.0
8,81.0,60,120,0.0,0.0
9,71.0,0,390,0.0,0.0
10,62.0,24,390,1.0,0.0
11,81.0,60,60,0.0,0.0
12,80.0,60,60,0.0,0.0
13,78.0,60,60,0.0,0.0
14,80.0,60,60,0.0,0.0
15,83.0,36,60,0.0,0.0
16,76.0,60,60,0.0,0.0
17,78.0,204,60,0.0,0.0
18,64.0,96,180,1.0,0.0
19,79.0,48,300,0.0,0.0
20,76.0,0,270,0.0,0.0
21,73.0,48,210,0.0,0.0
22,69.0,0,150,0.0,0.0
23,66.0,72,150,1.0,0.0
24,74.0,60,180,0.0,0.0
25,78.0,12,90,0.0,0.0
26,68.0,60,60,1.0,0.0
27,76.0,24,390,0.0,0.0
28,69.0,60,300,1.0,0.0
29,74.0,60,60,0.0,0.0
30,73.0,60,60,0.0,0.0
31,71.0,60,60,0.0,0.0
32,73.0,0,540,0.0,0.0
33,71.0,36,60,1.0,0.0
34,64.0,60,60,1.0,0.0
35,66.0,60,60,1.0,0.0
36,76.0,48,300,0.0,0.0
37,67.0,60,60,1.0,0.0
38,64.0,36,60,1.0,0.0
39,61.0,72,90,1.0,0.0
40,57.0,11,600,1.0,0.0
41,66.0,60,90,1.0,0.0
42,69.0,60,90,0.0,0.0
43,74.0,60,180,0.0,0.0
44,65.0,12,90,1.0,0.0
45,68.0,60,60,0.0,0.0
46,64.0,0,180,1.0,0.0
47,69.0,36,180,0.0,0.0
48,74.0,60,60,0.0,0.0
49,73.0,24,60,0.0,0.0
50,71.0,41,60,0.0,0.0
51,69.0,19,30,0.0,0.0
52,64.0,36,180,1.0,0.0
53,73.0,0,180,0.0,0.0
54,68.0,49,30,0.0,0.0
55,61.0,48,60,1.0,0.0
56,69.0,12,90,0.0,0.0
57,54.0,24,60,1.0,0.0
58,56.0,60,60,1.0,0.0
59,63.0,0,180,1.0,0.0
60,57.0,60,60,1.0,0.0
61,66.0,0,180,0.0,0.0
62,71.0,36,180,0.0,0.0
63,54.0,60,60,1.0,0.0
64,51.0,24,60,1.0,0.0
65,47.0,156,60,1.0,0.0
66,56.0,36,180,1.0,0.0
67,71.0,12,150,0.0,0.0
68,59.0,36,90,1.0,0.0
69,64.0,48,420,0.0,0.0
70,73.0,60,60,0.0,0.0
71,61.0,12,330,1.0,0.0
72,69.0,60,60,0.0,0.0
73,54.0,24,390,1.0,0.0
74,73.0,60,60,0.0,0.0
75,66.0,60,60,0.0,0.0
76,68.0,60,60,0.0,0.0
77,69.0,24,180,0.0,0.0
78,66.0,36,60,0.0,0.0
79,59.0,24,60,1.0,0.0
80,63.0,12,90,0.0,0.0
81,57.0,60,60,1.0,0.0
82,64.0,0,180,0.0,0.0
83,59.0,36,180,1.0,0.0
84,52.0,6,300,1.0,0.0
85,69.0,60,60,0.0,0.0
86,69.0,60,60,0.0,0.0
87,68.0,24,60,0.0,0.0
88,66.0,41,60,0.0,0.0
89,64.0,19,30,0.0,0.0
90,68.0,0,390,0.0,0.0
91,59.0,84,390,1.0,0.0
92,63.0,54,20,0.0,0.0
93,64.0,0,330,0.0,0.0
94,54.0,60,60,1.0,0.0
95,47.0,60,60,1.0,0.0
96,49.0,156,60,1.0,0.0
97,50.0,0,240,1.0,0.0
98,47.0,0,180,1.0,0.0
99,44.0,0,120,1.0,0.0
100,40.0,0,60,1.0,0.0
101,68.0,60,60,0.0,0.0
102,49.0,12,90,1.0,0.0
103,64.0,84,870,0.0,0.0
104,69.0,48,60,0.0,0.0
105,57.0,24,120,1.0,0.0
106,71.0,27,60,0.0,0.0
107,73.0,12,15,0.0,0.0
108,47.0,18,90,1.0,0.0
109,71.0,27,15,0.0,0.0
110,73.0,6,20,0.0,0.0
111,56.0,108,60,1.0,0.0
112,69.0,12,20,0.0,0.0
113,71.0,6,20,0.0,0.0
114,73.0,0,630,0.0,0.0
115,45.0,36,180,1.0,0.0
116,71.0,60,60,0.0,0.0
117,69.0,24,60,0.0,0.0
118,52.0,60,60,1.0,0.0
119,68.0,0,60,0.0,0.0
120,57.0,60,60,1.0,0.0
121,69.0,0,390,0.0,0.0
122,59.0,60,60,1.0,0.0
123,52.0,60,60,1.0,0.0
124,54.0,156,60,1.0,0.0
125,55.0,0,240,1.0,0.0
126,52.0,0,180,1.0,0.0
127,49.0,0,120,1.0,0.0
128,73.0,60,60,0.0,0.0
129,45.0,0,60,1.0,0.0
130,74.0,36,60,0.0,0.0
131,69.0,12,180,0.0,0.0
132,54.0,18,90,1.0,0.0
133,73.0,12,20,0.0,0.0
134,62.0,12,90,1.0,0.0
135,74.0,42,20,0.0,0.0
136,52.0,12,90,1.0,0.0
137,76.0,24,60,0.0,0.0
138,61.0,6,60,1.0,0.0
139,74.0,12,20,0.0,0.0
140,76.0,126,20,0.0,0.0
141,69.0,0,390,0.0,0.0
142,50.0,36,180,1.0,0.0
143,78.0,24,390,0.0,0.0
144,76.0,60,60,0.0,0.0
145,74.0,12,60,0.0,0.0
146,57.0,12,60,1.0,0.0
147,73.0,48,60,0.0,0.0
148,74.0,48,180,0.0,0.0
149,62.0,60,60,1.0,0.0
150,66.0,36,60,1.0,0.0
151,59.0,12,60,1.0,0.0
152,61.0,60,60,1.0,0.0
153,78.0,0,60,0.0,0.0
154,62.0,60,60,1.0,0.0
155,76.0,6,390,0.0,0.0
156,80.0,0,60,0.0,0.0
157,59.0,0,180,1.0,0.0
158,81.0,60,60,0.0,0.0
159,56.0,0,120,1.0,0.0
160,80.0,24,60,0.0,0.0
161,81.0,27,60,0.0,0.0
162,52.0,0,60,1.0,0.0
163,83.0,15,15,0.0,0.0
164,61.0,9,90,1.0,0.0
165,81.0,15,15,0.0,0.0
166,83.0,15,15,0.0,0.0
167,81.0,15,15,0.0,0.0
168,83.0,15,15,0.0,0.0
169,81.0,6,15,0.0,0.0
170,83.0,15,15,0.0,0.0
171,81.0,15,15,0.0,0.0
172,83.0,9,15,0.0,0.0
173,59.0,9,60,1.0,0.0
174,81.0,12,15,0.0,0.0
175,83.0,6,15,0.0,0.0
176,81.0,27,15,0.0,0.0
177,80.0,24,20,0.0,0.0
178,57.0,6,60,1.0,0.0
179,81.0,54,20,0.0,0.0
180,55.0,24,390,1.0,0.0
181,76.0,60,60,0.0,0.0
182,83.0,48,540,0.0,0.0
183,81.0,60,60,0.0,0.0
184,80.0,60,60,0.0,0.0
185,78.0,60,60,0.0,0.0
186,57.0,0,60,1.0,0.0
187,59.0,36,180,1.0,0.0
188,76.0,60,60,0.0,0.0
189,74.0,12,60,0.0,0.0
190,73.0,24,60,0.0,0.0
191,64.0,24,15,1.0,0.0
192,71.0,60,60,0.0,0.0
193,73.0,24,150,0.0,0.0
194,57.0,12,90,1.0,0.0
195,76.0,36,60,0.0,0.0
196,81.0,12,90,0.0,0.0
197,61.0,24,60,1.0,0.0
198,57.0,108,60,1.0,0.0
199,73.0,0,60,0.0,0.0
200,71.0,0,180,0.0,0.0
201,64.0,72,90,1.0,0.0
202,74.0,60,180,0.0,0.0
203,81.0,24,60,0.0,0.0
204,52.0,12,90,1.0,0.0
205,80.0,0,120,0.0,0.0
206,57.0,60,300,1.0,0.0
207,57.0,60,60,0.0,0.0
208,80.0,0,60,0.0,0.0
209,64.0,60,60,0.0,0.0
210,66.0,60,60,0.0,0.0
211,78.0,0,60,0.0,0.0
212,76.0,60,60,0.0,0.0
213,68.0,0,60,0.0,0.0
214,78.0,0,60,0.0,0.0
215,69.0,0,150,0.0,0.0
216,81.0,36,60,0.0,0.0
217,73.0,24,20,0.0,0.0
218,57.0,12,90,1.0,0.0
219,68.0,60,60,0.0,0.0
220,75.0,0,60,0.0,0.0
221,58.0,6,300,1.0,0.0
222,76.0,177,60,0.0,0.0
223,73.0,0,180,0.0,0.0
224,70.0,41,120,0.0,0.0
225,66.0,0,690,0.0,0.0
226,70.0,0,180,0.0,0.0
227,73.0,36,180,0.0,0.0
228,76.0,19,30,0.0,0.0
229,75.0,54,20,0.0,0.0
230,54.0,60,60,1.0,0.0
231,76.0,19,120,0.0,0.0
232,56.0,5,60,1.0,0.0
233,78.0,108,60,0.0,0.0
234,58.0,12,60,1.0,0.0
235,75.0,24,390,0.0,0.0
236,59.0,60,300,1.0,0.0
237,73.0,60,60,0.0,0.0
238,71.0,60,60,0.0,0.0
239,70.0,60,60,0.0,0.0
240,71.0,0,420,0.0,0.0
241,61.0,36,60,1.0,0.0
242,54.0,60,60,1.0,0.0
243,56.0,60,60,1.0,0.0
244,57.0,144,60,1.0,0.0
245,66.0,36,180,0.0,0.0
246,75.0,0,180,0.0,0.0
247,57.0,0,180,1.0,0.0
248,54.0,0,180,1.0,0.0
249,51.0,0,120,1.0,0.0
250,47.0,41,60,1.0,0.0
251,56.0,0,180,1.0,0.0
252,74.0,25,30,0.0,0.0
253,71.0,36,180,0.0,0.0
254,73.0,54,20,0.0,0.0
255,74.0,36,90,0.0,0.0
256,59.0,48,60,0.0,0.0
257,64.0,24,300,0.0,0.0
258,76.0,60,60,0.0,0.0
259,57.0,12,90,1.0,0.0
260,71.0,48,60,0.0,0.0
261,73.0,0,180,0.0,0.0
262,71.0,60,60,0.0,0.0
263,69.0,24,60,0.0,0.0
264,56.0,12,90,1.0,0.0
265,68.0,60,60,0.0,0.0
266,69.0,48,60,0.0,0.0
267,54.0,12,90,1.0,0.0
268,73.0,60,60,0.0,0.0
269,66.0,48,60,0.0,0.0
270,52.0,12,90,1.0,0.0
271,68.0,108,60,0.0,0.0
272,69.0,24,180,0.0,0.0
273,51.0,96,90,1.0,0.0
274,66.0,0,180,0.0,0.0
275,63.0,0,120,0.0,0.0
276,47.0,12,90,1.0,0.0
277,59.0,0,60,0.0,0.0
278,52.0,12,90,1.0,0.0
279,68.0,72,150,0.0,0.0
280,59.0,36,60,0.0,0.0
281,40.0,12,90,1.0,0.0
282,64.0,0,90,0.0,0.0
283,68.0,60,60,0.0,0.0
284,45.0,12,330,1.0,0.0
285,68.0,60,60,0.0,0.0
286,68.0,0,60,0.0,0.0
287,52.0,60,60,1.0,0.0
288,66.0,0,60,0.0,0.0
289,54.0,60,60,1.0,0.0
290,64.0,0,60,0.0,0.0
291,56.0,60,60,1.0,0.0
292,66.0,48,60,0.0,0.0
293,57.0,24,150,1.0,0.0
294,69.0,36,60,0.0,0.0
295,45.0,12,90,1.0,0.0
296,61.0,48,60,0.0,0.0
297,63.0,0,60,0.0,0.0
298,56.0,204,60,1.0,0.0
299,46.0,6,300,1.0,0.0
300,64.0,41,240,1.0,0.0
301,64.0,36,180,0.0,0.0
302,61.0,0,180,1.0,0.0
303,58.0,0,300,1.0,0.0
304,54.0,36,240,1.0,0.0
305,64.0,19,30,0.0,0.0
306,63.0,54,20,0.0,0.0
307,42.0,48,60,1.0,0.0
308,64.0,12,90,0.0,0.0
309,44.0,24,60,1.0,0.0
310,46.0,0,60,1.0,0.0
311,66.0,60,60,0.0,0.0
312,35.0,144,60,1.0,0.0
313,63.0,96,180,0.0,0.0
314,47.0,24,1770,1.0,0.0
315,51.0,0,300,1.0,0.0
316,54.0,0,240,1.0,0.0
317,59.0,60,60,0.0,0.0
318,63.0,60,60,0.0,0.0
319,66.0,24,60,0.0,0.0
320,71.0,60,120,0.0,0.0
321,61.0,0,390,0.0,0.0
322,52.0,24,390,1.0,0.0
323,71.0,60,60,0.0,0.0
324,70.0,60,60,0.0,0.0
325,68.0,60,60,0.0,0.0
326,70.0,60,60,0.0,0.0
327,73.0,36,60,0.0,0.0
328,66.0,60,60,0.0,0.0
329,68.0,60,60,0.0,0.0
330,69.0,144,60,0.0,0.0
331,54.0,96,180,1.0,0.0
332,66.0,48,240,0.0,0.0
333,63.0,0,180,0.0,0.0
334,59.0,0,120,0.0,0.0
335,56.0,60,150,1.0,0.0
336,59.0,12,150,0.0,0.0
337,64.0,12,90,0.0,0.0
338,68.0,0,90,0.0,0.0
339,58.0,60,60,1.0,0.0
340,64.0,60,60,0.0,0.0
341,66.0,0,390,0.0,0.0
342,59.0,60,300,1.0,0.0
343,64.0,60,60,0.0,0.0
344,63.0,60,60,0.0,0.0
345,61.0,60,60,0.0,0.0
346,63.0,48,540,0.0,0.0
347,61.0,36,60,1.0,0.0
348,54.0,60,60,1.0,0.0
349,56.0,60,60,1.0,0.0
350,47.0,48,150,1.0,0.0
351,66.0,0,300,0.0,0.0
352,57.0,96,60,1.0,0.0
353,54.0,72,150,1.0,0.0
354,51.0,0,90,1.0,0.0
355,47.0,3,690,1.0,0.0
356,56.0,60,90,1.0,0.0
357,59.0,60,90,0.0,0.0
358,64.0,30,150,0.0,0.0
359,55.0,12,90,1.0,0.0
360,58.0,41,60,0.0,0.0
361,54.0,23,90,1.0,0.0
362,59.0,48,540,0.0,0.0
363,66.0,30,30,0.0,0.0
364,68.0,7,30,0.0,0.0
365,69.0,30,30,0.0,0.0
366,52.0,23,90,1.0,0.0
367,68.0,30,30,0.0,0.0
368,66.0,30,30,0.0,0.0
369,68.0,7,30,0.0,0.0
370,69.0,13,30,0.0,0.0
371,54.0,9,60,1.0,0.0
372,64.0,15,15,0.0,0.0
373,63.0,15,15,0.0,0.0
374,64.0,6,15,0.0,0.0
375,63.0,15,15,0.0,0.0
376,56.0,9,60,1.0,0.0
377,64.0,15,15,0.0,0.0
378,63.0,15,15,0.0,0.0
379,64.0,6,15,0.0,0.0
380,63.0,15,15,0.0,0.0
381,64.0,12,15,0.0,0.0
382,57.0,12,210,1.0,0.0
383,63.0,18,15,0.0,0.0
384,64.0,12,15,0.0,0.0
385,63.0,51,15,0.0,0.0
386,64.0,60,60,0.0,0.0
387,52.0,72,390,1.0,0.0
388,64.0,0,390,0.0,0.0
389,59.0,60,60,0.0,0.0
390,56.0,60,180,1.0,0.0
391,61.0,60,60,0.0,0.0
392,62.0,60,60,0.0,0.0
393,61.0,0,150,0.0,0.0
394,57.0,36,60,1.0,0.0
395,54.0,12,90,1.0,0.0
396,60.0,0,60,0.0,0.0
397,63.0,204,60,0.0,0.0
398,57.0,0,60,0.0,0.0
399,52.0,36,180,1.0,0.0
400,64.0,0,300,0.0,0.0
401,59.0,0,300,0.0,0.0
402,56.0,48,300,0.0,0.0
403,40.0,0,330,1.0,0.0
404,44.0,60,120,1.0,0.0
405,47.0,0,210,1.0,0.0
406,52.0,48,90,1.0,0.0
407,44.0,84,150,1.0,0.0
408,81.0,204,60,0.0,0.0
409,81.0,156,180,0.0,0.0
410,57.0,72,2010,1.0,0.0
411,61.0,0,300,1.0,0.0
412,64.0,0,240,1.0,0.0
413,69.0,96,180,0.0,0.0
414,73.0,60,60,0.0,0.0
415,76.0,24,60,0.0,0.0
416,81.0,60,120,0.0,0.0
417,71.0,24,390,0.0,0.0
418,62.0,0,390,1.0,0.0
419,81.0,60,60,0.0,0.0
420,80.0,60,60,0.0,0.0
421,78.0,60,60,0.0,0.0
422,80.0,60,60,0.0,0.0
423,83.0,36,60,0.0,0.0
424,76.0,60,60,0.0,0.0
425,78.0,204,60,0.0,0.0
426,64.0,96,180,1.0,0.0
427,79.0,48,300,0.0,0.0
428,76.0,0,270,0.0,0.0
429,73.0,48,210,0.0,0.0
430,69.0,0,150,0.0,0.0
431,66.0,72,150,1.0,0.0
432,78.0,12,90,0.0,0.0
433,74.0,60,180,0.0,0.0
434,68.0,60,60,1.0,0.0
435,69.0,60,300,1.0,0.0
436,76.0,24,390,0.0,0.0
437,74.0,60,60,0.0,0.0
438,73.0,60,60,0.0,0.0
439,71.0,60,60,0.0,0.0
440,73.0,48,540,0.0,0.0
441,71.0,36,60,1.0,0.0
442,64.0,60,60,1.0,0.0
443,66.0,60,60,1.0,0.0
444,76.0,0,300,0.0,0.0
445,67.0,60,60,1.0,0.0
446,64.0,36,60,1.0,0.0
447,61.0,72,90,1.0,0.0
448,57.0,11,600,1.0,0.0
449,66.0,60,90,1.0,0.0
450,69.0,60,90,0.0,0.0
451,65.0,12,90,1.0,0.0
452,74.0,60,180,0.0,0.0
453,68.0,60,60,0.0,0.0
454,64.0,36,180,1.0,0.0
455,69.0,0,180,0.0,0.0
456,74.0,60,60,0.0,0.0
457,73.0,24,60,0.0,0.0
458,71.0,41,60,0.0,0.0
459,73.0,0,180,0.0,0.0
460,64.0,36,180,1.0,0.0
461,69.0,19,30,0.0,0.0
462,68.0,49,30,0.0,0.0
463,69.0,12,90,0.0,0.0
464,61.0,48,60,1.0,0.0
465,54.0,24,60,1.0,0.0
466,56.0,60,60,1.0,0.0
467,63.0,36,180,1.0,0.0
468,57.0,60,60,1.0,0.0
469,66.0,0,180,0.0,0.0
470,71.0,0,180,0.0,0.0
471,54.0,60,60,1.0,0.0
472,51.0,24,60,1.0,0.0
473,47.0,156,60,1.0,0.0
474,71.0,12,150,0.0,0.0
475,56.0,36,180,1.0,0.0
476,59.0,36,90,1.0,0.0
477,64.0,48,420,0.0,0.0
478,73.0,60,60,0.0,0.0
479,69.0,60,60,0.0,0.0
480,54.0,24,390,1.0,0.0
481,61.0,12,330,1.0,0.0
482,73.0,60,60,0.0,0.0
483,66.0,60,60,0.0,0.0
484,68.0,60,60,0.0,0.0
485,69.0,24,180,0.0,0.0
486,66.0,36,60,0.0,0.0
487,59.0,24,60,1.0,0.0
488,63.0,12,90,0.0,0.0
489,57.0,60,60,1.0,0.0
490,52.0,6,300,1.0,0.0
491,64.0,36,180,0.0,0.0
492,69.0,60,60,0.0,0.0
493,59.0,0,180,1.0,0.0
494,69.0,60,60,0.0,0.0
495,68.0,24,60,0.0,0.0
496,66.0,41,60,0.0,0.0
497,59.0,84,390,1.0,0.0
498,64.0,19,30,0.0,0.0
499,68.0,0,390,0.0,0.0
500,63.0,54,20,0.0,0.0
501,54.0,60,60,1.0,0.0
502,64.0,0,330,0.0,0.0
503,47.0,60,60,1.0,0.0
504,49.0,156,60,1.0,0.0
505,50.0,0,240,1.0,0.0
506,47.0,0,180,1.0,0.0
507,44.0,0,120,1.0,0.0
508,68.0,60,60,0.0,0.0
509,40.0,0,60,1.0,0.0
510,49.0,12,90,1.0,0.0
511,64.0,84,870,0.0,0.0
512,69.0,48,60,0.0,0.0
513,71.0,27,60,0.0,0.0
514,57.0,24,120,1.0,0.0
515,73.0,12,15,0.0,0.0
516,47.0,18,90,1.0,0.0
517,71.0,27,15,0.0,0.0
518,73.0,6,20,0.0,0.0
519,69.0,12,20,0.0,0.0
520,56.0,108,60,1.0,0.0
521,71.0,6,20,0.0,0.0
522,73.0,0,630,0.0,0.0
523,45.0,36,180,1.0,0.0
524,71.0,60,60,0.0,0.0
525,69.0,24,60,0.0,0.0
526,52.0,60,60,1.0,0.0
527,68.0,0,60,0.0,0.0
528,57.0,60,60,1.0,0.0
529,69.0,0,390,0.0,0.0
530,59.0,60,60,1.0,0.0
531,52.0,60,60,1.0,0.0
532,54.0,156,60,1.0,0.0
533,55.0,0,240,1.0,0.0
534,52.0,0,180,1.0,0.0
535,49.0,0,120,1.0,0.0
536,45.0,0,60,1.0,0.0
537,73.0,60,60,0.0,0.0
538,54.0,18,90,1.0,0.0
539,74.0,36,60,0.0,0.0
540,69.0,12,180,0.0,0.0
541,62.0,12,90,1.0,0.0
542,73.0,12,20,0.0,0.0
543,74.0,42,20,0.0,0.0
544,76.0,24,60,0.0,0.0
545,52.0,12,90,1.0,0.0
546,74.0,12,20,0.0,0.0
547,61.0,6,60,1.0,0.0
548,76.0,126,20,0.0,0.0
549,50.0,36,180,1.0,0.0
550,78.0,24,390,0.0,0.0
551,69.0,0,390,0.0,0.0
552,76.0,60,60,0.0,0.0
553,74.0,12,60,0.0,0.0
554,73.0,48,60,0.0,0.0
555,57.0,12,60,1.0,0.0
556,74.0,48,180,0.0,0.0
557,62.0,60,60,1.0,0.0
558,66.0,36,60,1.0,0.0
559,59.0,12,60,1.0,0.0
560,61.0,60,60,1.0,0.0
561,78.0,0,60,0.0,0.0
562,76.0,6,390,0.0,0.0
563,80.0,0,60,0.0,0.0
564,62.0,60,60,1.0,0.0
565,59.0,27,180,1.0,0.0
566,81.0,60,60,0.0,0.0
567,80.0,24,60,0.0,0.0
568,56.0,0,120,1.0,0.0
569,81.0,0,60,0.0,0.0
570,52.0,0,60,1.0,0.0
571,83.0,15,15,0.0,0.0
572,61.0,9,90,1.0,0.0
573,81.0,15,15,0.0,0.0
574,83.0,15,15,0.0,0.0
575,81.0,15,15,0.0,0.0
576,83.0,15,15,0.0,0.0
577,64.0,24,540,1.0,0.0
578,81.0,6,15,0.0,0.0
579,83.0,15,15,0.0,0.0
580,81.0,15,15,0.0,0.0
581,83.0,9,15,0.0,0.0
582,59.0,9,60,1.0,0.0
583,81.0,12,15,0.0,0.0
584,83.0,6,15,0.0,0.0
585,81.0,27,15,0.0,0.0
586,57.0,6,60,1.0,0.0
587,80.0,24,20,0.0,0.0
588,81.0,54,20,0.0,0.0
589,55.0,24,390,1.0,0.0
590,76.0,60,60,0.0,0.0
591,83.0,48,540,0.0,0.0
592,81.0,60,60,0.0,0.0
593,80.0,60,60,0.0,0.0
594,78.0,0,60,0.0,0.0
595,57.0,60,60,1.0,0.0
596,59.0,36,180,1.0,0.0
597,76.0,60,60,0.0,0.0
598,74.0,12,60,0.0,0.0
599,64.0,24,300,1.0,0.0
600,73.0,24,60,0.0,0.0
601,71.0,60,60,0.0,0.0
602,73.0,24,150,0.0,0.0
603,57.0,12,90,1.0,0.0
604,76.0,36,60,0.0,0.0
605,81.0,12,90,0.0,0.0
606,61.0,24,60,1.0,0.0
607,73.0,0,60,0.0,0.0
608,57.0,108,60,1.0,0.0
609,64.0,72,90,1.0,0.0
610,71.0,24,180,0.0,0.0
611,74.0,60,180,0.0,0.0
612,81.0,24,60,0.0,0.0
613,52.0,12,90,1.0,0.0
614,80.0,0,120,0.0,0.0
615,57.0,60,60,0.0,0.0
616,57.0,60,300,1.0,0.0
617,80.0,60,60,0.0,0.0
618,64.0,0,60,0.0,0.0
619,78.0,60,60,0.0,0.0
620,66.0,0,60,0.0,0.0
621,76.0,0,60,0.0,0.0
622,68.0,60,60,0.0,0.0
623,69.0,24,150,0.0,0.0
624,78.0,0,60,0.0,0.0
625,81.0,36,60,0.0,0.0
626,57.0,12,90,1.0,0.0
627,73.0,0,20,0.0,0.0
628,68.0,60,60,0.0,0.0
629,75.0,0,60,0.0,0.0
630,76.0,177,60,0.0,0.0
631,58.0,6,300,1.0,0.0
632,73.0,0,180,0.0,0.0
633,70.0,41,120,0.0,0.0
634,66.0,0,690,0.0,0.0
635,73.0,36,180,0.0,0.0
636,70.0,0,180,0.0,0.0
637,76.0,19,30,0.0,0.0
638,75.0,54,20,0.0,0.0
639,54.0,60,60,1.0,0.0
640,76.0,19,120,0.0,0.0
641,56.0,5,60,1.0,0.0
642,78.0,108,60,0.0,0.0
643,58.0,12,60,1.0,0.0
644,75.0,24,390,0.0,0.0
645,59.0,60,300,1.0,0.0
646,73.0,60,60,0.0,0.0
647,71.0,60,60,0.0,0.0
648,70.0,60,60,0.0,0.0
649,71.0,0,420,0.0,0.0
650,61.0,36,60,1.0,0.0
651,54.0,60,60,1.0,0.0
652,56.0,60,60,1.0,0.0
653,66.0,0,180,0.0,0.0
654,75.0,36,180,0.0,0.0
655,57.0,144,60,1.0,0.0
656,54.0,0,180,1.0,0.0
657,57.0,0,180,1.0,0.0
658,51.0,41,120,1.0,0.0
659,47.0,0,60,1.0,0.0
660,56.0,0,180,1.0,0.0
661,74.0,25,30,0.0,0.0
662,71.0,36,180,0.0,0.0
663,73.0,54,20,0.0,0.0
664,59.0,48,60,0.0,0.0
665,74.0,36,90,0.0,0.0
666,64.0,0,300,0.0,0.0
667,76.0,60,60,0.0,0.0
668,71.0,48,60,0.0,0.0
669,73.0,24,180,0.0,0.0
670,57.0,12,90,1.0,0.0
671,71.0,60,60,0.0,0.0
672,69.0,24,60,0.0,0.0
673,56.0,12,90,1.0,0.0
674,68.0,60,60,0.0,0.0
675,54.0,12,90,1.0,0.0
676,69.0,48,60,0.0,0.0
677,73.0,60,60,0.0,0.0
678,66.0,48,60,0.0,0.0
679,52.0,12,90,1.0,0.0
680,68.0,108,60,0.0,0.0
681,69.0,24,180,0.0,0.0
682,51.0,96,90,1.0,0.0
683,66.0,0,180,0.0,0.0
684,47.0,12,90,1.0,0.0
685,63.0,0,120,0.0,0.0
686,59.0,108,60,0.0,0.0
687,68.0,72,150,0.0,0.0
688,52.0,12,90,1.0,0.0
689,59.0,36,60,0.0,0.0
690,40.0,0,90,1.0,0.0
691,64.0,12,90,0.0,0.0
692,68.0,60,60,0.0,0.0
693,45.0,12,330,1.0,0.0
694,68.0,60,60,0.0,0.0
695,52.0,60,60,1.0,0.0
696,68.0,0,60,0.0,0.0
697,66.0,0,60,0.0,0.0
698,54.0,60,60,1.0,0.0
699,56.0,0,60,1.0,0.0
700,64.0,60,60,0.0,0.0
701,57.0,24,150,1.0,0.0
702,66.0,48,60,0.0,0.0
703,69.0,36,60,0.0,0.0
704,45.0,12,90,1.0,0.0
705,61.0,48,60,0.0,0.0
706,63.0,0,60,0.0,0.0
707,56.0,204,60,1.0,0.0
708,64.0,36,180,0.0,0.0
709,46.0,6,300,1.0,0.0
710,64.0,41,240,1.0,0.0
711,61.0,0,180,1.0,0.0
712,58.0,36,300,1.0,0.0
713,54.0,0,240,1.0,0.0
714,64.0,19,30,0.0,0.0
715,63.0,54,20,0.0,0.0
716,42.0,48,60,1.0,0.0
717,64.0,12,90,0.0,0.0
718,44.0,24,60,1.0,0.0
719,46.0,60,60,1.0,0.0
720,66.0,0,60,0.0,0.0
721,63.0,96,180,0.0,0.0
722,35.0,144,60,1.0,0.0
723,47.0,0,1770,1.0,0.0
724,51.0,96,300,1.0,0.0
725,54.0,0,240,1.0,0.0
726,59.0,60,60,0.0,0.0
727,63.0,60,60,0.0,0.0
728,66.0,24,60,0.0,0.0
729,71.0,60,120,0.0,0.0
730,52.0,0,390,1.0,0.0
731,61.0,24,390,0.0,0.0
732,71.0,60,60,0.0,0.0
733,70.0,60,60,0.0,0.0
734,68.0,60,60,0.0,0.0
735,70.0,60,60,0.0,0.0
736,73.0,36,60,0.0,0.0
737,66.0,60,60,0.0,0.0
738,68.0,60,60,0.0,0.0
739,69.0,144,60,0.0,0.0
740,54.0,96,180,1.0,0.0
741,66.0,0,240,0.0,0.0
742,63.0,0,180,0.0,0.0
743,59.0,48,120,0.0,0.0
744,56.0,60,150,1.0,0.0
745,59.0,12,150,0.0,0.0
746,68.0,0,90,0.0,0.0
747,64.0,12,90,0.0,0.0
748,58.0,60,60,1.0,0.0
749,64.0,60,60,0.0,0.0
750,59.0,60,300,1.0,0.0
751,66.0,24,390,0.0,0.0
752,64.0,60,60,0.0,0.0
753,63.0,60,60,0.0,0.0
754,61.0,60,60,0.0,0.0
755,63.0,0,540,0.0,0.0
756,61.0,36,60,1.0,0.0
757,54.0,60,60,1.0,0.0
758,56.0,60,60,1.0,0.0
759,47.0,48,150,1.0,0.0
760,57.0,96,60,1.0,0.0
761,66.0,48,300,0.0,0.0
762,54.0,72,150,1.0,0.0
763,51.0,0,90,1.0,0.0
764,47.0,3,690,1.0,0.0
765,56.0,60,90,1.0,0.0
766,59.0,60,90,0.0,0.0
767,55.0,12,90,1.0,0.0
768,64.0,30,150,0.0,0.0
769,58.0,41,60,0.0,0.0
770,59.0,48,540,0.0,0.0
771,54.0,23,90,1.0,0.0
772,66.0,30,30,0.0,0.0
773,68.0,7,30,0.0,0.0
774,69.0,30,30,0.0,0.0
775,52.0,23,90,1.0,0.0
776,68.0,30,30,0.0,0.0
777,66.0,30,30,0.0,0.0
778,68.0,7,30,0.0,0.0
779,69.0,13,30,0.0,0.0
780,54.0,9,60,1.0,0.0
781,64.0,15,15,0.0,0.0
782,63.0,15,15,0.0,0.0
783,64.0,6,15,0.0,0.0
784,63.0,15,15,0.0,0.0
785,64.0,15,15,0.0,0.0
786,56.0,9,60,1.0,0.0
787,63.0,15,15,0.0,0.0
788,64.0,6,15,0.0,0.0
789,63.0,15,15,0.0,0.0
790,64.0,12,15,0.0,0.0
791,57.0,12,210,1.0,0.0
792,63.0,18,15,0.0,0.0
793,64.0,12,15,0.0,0.0
794,63.0,51,15,0.0,0.0
795,64.0,60,60,0.0,0.0
796,52.0,0,390,1.0,0.0
797,64.0,72,390,0.0,0.0
798,59.0,60,60,0.0,0.0
799,61.0,60,60,0.0,0.0
800,56.0,60,180,1.0,0.0
801,62.0,60,60,0.0,0.0
802,61.0,0,150,0.0,0.0
803,57.0,36,60,1.0,0.0
804,54.0,12,90,1.0,0.0
805,60.0,0,60,0.0,0.0
806,57.0,204,60,0.0,0.0
807,63.0,0,60,0.0,0.0
808,64.0,0,300,0.0,0.0
809,56.0,48,300,0.0,0.0
810,59.0,0,300,0.0,0.0
811,52.0,36,180,1.0,0.0
812,40.0,0,330,1.0,0.0
813,44.0,60,120,1.0,0.0
814,47.0,93,210,1.0,0.0
815,52.0,48,90,1.0,0.0
816,44.0,0,150,1.0,0.0
817,71.0,195,60,0.0,0.0
818,71.0,240,180,0.0,0.0
819,52.0,60,480,1.0,0.0
820,56.0,36,300,1.0,0.0
821,59.0,0,240,1.0,0.0
822,64.0,0,180,1.0,0.0
823,68.0,0,180,0.0,0.0
824,71.0,60,120,0.0,0.0
825,76.0,0,60,0.0,0.0
826,70.0,0,630,0.0,0.0
827,61.0,48,630,0.0,0.0
828,66.0,0,630,0.0,0.0
829,55.0,60,60,1.0,0.0
830,49.0,60,60,1.0,0.0
831,52.0,60,60,1.0,0.0
832,46.0,60,60,1.0,0.0
833,49.0,60,60,1.0,0.0
834,42.0,60,60,1.0,0.0
835,52.0,60,60,1.0,0.0
836,50.0,96,60,1.0,0.0
837,54.0,60,180,1.0,0.0
838,58.0,0,120,1.0,0.0
839,64.0,0,60,0.0,0.0
840,61.0,0,60,1.0,0.0
841,62.0,48,60,0.0,0.0
842,59.0,12,330,1.0,0.0
843,50.0,120,90,1.0,0.0
844,66.0,0,180,0.0,0.0
845,54.0,12,90,1.0,0.0
846,50.0,0,90,1.0,0.0
847,71.0,60,120,0.0,0.0
848,74.0,0,60,0.0,0.0
849,49.0,24,180,1.0,0.0
850,76.0,48,60,0.0,0.0
851,55.0,0,90,1.0,0.0
852,79.0,60,60,0.0,0.0
853,73.0,24,60,0.0,0.0
854,55.0,12,90,1.0,0.0
855,52.0,0,90,1.0,0.0
856,76.0,60,60,0.0,0.0
857,70.0,48,60,0.0,0.0
858,54.0,12,90,1.0,0.0
859,73.0,60,60,0.0,0.0
860,66.0,24,60,0.0,0.0
861,42.0,12,90,1.0,0.0
862,76.0,60,60,0.0,0.0
863,47.0,60,540,1.0,0.0
864,66.0,60,60,0.0,0.0
865,68.0,60,60,0.0,0.0
866,70.0,60,60,0.0,0.0
867,71.0,60,60,0.0,0.0
868,74.0,36,60,0.0,0.0
869,67.0,60,60,0.0,0.0
870,71.0,60,60,0.0,0.0
871,68.0,24,390,0.0,0.0
872,73.0,0,660,0.0,0.0
873,65.0,0,390,0.0,0.0
874,50.0,60,60,1.0,0.0
875,44.0,60,60,1.0,0.0
876,47.0,60,60,1.0,0.0
877,41.0,60,60,1.0,0.0
878,44.0,36,60,1.0,0.0
879,37.0,60,60,1.0,0.0
880,47.0,60,60,1.0,0.0
881,66.0,36,180,0.0,0.0
882,69.0,0,180,0.0,0.0
883,45.0,144,60,1.0,0.0
884,49.0,60,180,1.0,0.0
885,54.0,0,120,1.0,0.0
886,57.0,0,60,1.0,0.0
887,51.0,96,90,1.0,0.0
888,59.0,48,60,0.0,0.0
889,63.0,0,180,0.0,0.0
890,45.0,12,90,1.0,0.0
891,66.0,0,120,0.0,0.0
892,71.0,60,60,0.0,0.0
893,65.0,12,90,0.0,0.0
894,44.0,0,60,1.0,0.0
895,71.0,48,60,0.0,0.0
896,68.0,0,60,0.0,0.0
897,49.0,60,60,1.0,0.0
898,73.0,0,60,0.0,0.0
899,51.0,60,60,1.0,0.0
900,71.0,0,60,0.0,0.0
901,53.0,60,60,1.0,0.0
902,54.0,48,60,1.0,0.0
903,69.0,12,90,0.0,0.0
904,66.0,12,90,0.0,0.0
905,53.0,48,60,1.0,0.0
906,54.0,48,60,1.0,0.0
907,74.0,12,90,0.0,0.0
908,56.0,0,60,1.0,0.0
909,65.0,60,60,0.0,0.0
910,57.0,60,60,1.0,0.0
911,73.0,24,150,0.0,0.0
912,56.0,36,60,1.0,0.0
913,64.0,0,60,0.0,0.0
914,66.0,48,180,0.0,0.0
915,57.0,60,60,1.0,0.0
916,59.0,60,60,1.0,0.0
917,71.0,0,60,0.0,0.0
918,69.0,60,90,0.0,0.0
919,61.0,0,90,1.0,0.0
920,66.0,60,90,0.0,0.0
921,49.0,0,90,1.0,0.0
922,68.0,12,90,0.0,0.0
923,64.0,60,60,0.0,0.0
924,54.0,36,180,1.0,0.0
925,66.0,0,60,0.0,0.0
926,73.0,60,60,0.0,0.0
927,58.0,0,60,0.0,0.0
928,61.0,24,60,0.0,0.0
929,78.0,0,60,0.0,0.0
930,65.0,60,60,0.0,0.0
931,80.0,0,60,0.0,0.0
932,66.0,60,60,0.0,0.0
933,81.0,24,150,0.0,0.0
934,69.0,36,60,0.0,0.0
935,62.0,48,60,0.0,0.0
936,54.0,12,90,1.0,0.0
937,81.0,60,60,0.0,0.0
938,66.0,0,60,0.0,0.0
939,81.0,60,60,0.0,0.0
940,60.0,36,180,0.0,0.0
941,56.0,0,300,1.0,0.0
942,78.0,60,60,0.0,0.0
943,75.0,24,60,0.0,0.0
944,78.0,60,60,0.0,0.0
945,72.0,60,60,0.0,0.0
946,75.0,60,60,0.0,0.0
947,56.0,0,60,1.0,0.0
948,68.0,0,60,0.0,0.0
949,58.0,60,60,1.0,0.0
950,78.0,0,60,0.0,0.0
951,60.0,60,60,1.0,0.0
952,76.0,0,60,0.0,0.0
953,61.0,60,60,1.0,0.0
954,64.0,0,60,1.0,0.0
955,75.0,60,60,0.0,0.0
956,57.0,24,60,1.0,0.0
957,73.0,0,60,0.0,0.0
958,61.0,0,60,1.0,0.0
959,71.0,60,60,0.0,0.0
960,76.0,0,60,0.0,0.0
961,69.0,48,300,0.0,0.0
962,54.0,60,60,1.0,0.0
963,76.0,60,60,0.0,0.0
964,57.0,0,60,1.0,0.0
965,75.0,60,60,0.0,0.0
966,51.0,0,60,1.0,0.0
967,73.0,0,60,0.0,0.0
968,54.0,60,60,1.0,0.0
969,44.0,0,60,1.0,0.0
970,72.0,12,90,0.0,0.0
971,51.0,60,60,1.0,0.0
972,68.0,24,150,0.0,0.0
973,70.0,24,60,0.0,0.0
974,56.0,0,60,1.0,0.0
975,72.0,60,60,0.0,0.0
976,54.0,0,60,1.0,0.0
977,52.0,12,90,1.0,0.0
978,68.0,24,180,0.0,0.0
979,73.0,48,60,0.0,0.0
980,72.0,48,60,0.0,0.0
981,61.0,12,90,1.0,0.0
982,73.0,24,60,0.0,0.0
983,51.0,12,90,1.0,0.0
984,75.0,0,60,0.0,0.0
985,60.0,60,60,1.0,0.0
986,49.0,60,60,1.0,0.0
987,76.0,0,60,0.0,0.0
988,78.0,60,60,0.0,0.0
989,51.0,0,60,1.0,0.0
990,80.0,60,60,0.0,0.0
991,52.0,0,60,1.0,0.0
992,54.0,0,60,1.0,0.0
993,81.0,24,60,0.0,0.0
994,56.0,6,90,1.0,0.0
995,76.0,15,15,0.0,0.0
996,72.0,24,180,0.0,0.0
997,75.0,15,15,0.0,0.0
998,76.0,15,15,0.0,0.0
999,75.0,15,15,0.0,0.0
1000,76.0,15,15,0.0,0.0
1001,75.0,9,15,0.0,0.0
1002,76.0,15,15,0.0,0.0
1003,75.0,15,15,0.0,0.0
1004,76.0,15,15,0.0,0.0
1005,44.0,12,90,1.0,0.0
1006,75.0,15,15,0.0,0.0
1007,76.0,15,15,0.0,0.0
1008,75.0,15,15,0.0,0.0
1009,73.0,60,60,0.0,0.0
1010,56.0,48,150,1.0,0.0
1011,49.0,36,180,1.0,0.0
1012,73.0,96,60,0.0,0.0
1013,68.0,0,240,0.0,0.0
1014,64.0,6,180,0.0,0.0
1015,56.0,41,60,1.0,0.0
1016,61.0,19,30,1.0,0.0
1017,59.0,54,20,1.0,0.0
1018,74.0,48,60,0.0,0.0
1019,61.0,12,90,1.0,0.0
1020,73.0,60,60,0.0,0.0
1021,59.0,60,60,1.0,0.0
1022,74.0,0,60,0.0,0.0
1023,58.0,60,60,1.0,0.0
1024,76.0,0,60,0.0,0.0
1025,59.0,60,60,1.0,0.0
1026,79.0,0,60,0.0,0.0
1027,58.0,60,60,1.0,0.0
1028,73.0,0,60,0.0,0.0
1029,56.0,60,60,1.0,0.0
1030,76.0,0,60,0.0,0.0
1031,70.0,60,60,0.0,0.0
1032,54.0,0,60,1.0,0.0
1033,52.0,60,60,1.0,0.0
1034,73.0,0,60,0.0,0.0
1035,50.0,0,60,1.0,0.0
1036,66.0,60,60,0.0,0.0
1037,76.0,0,60,0.0,0.0
1038,49.0,60,60,1.0,0.0
1039,47.0,36,180,1.0,0.0
1040,74.0,144,60,0.0,0.0
1041,71.0,0,240,0.0,0.0
1042,66.0,6,180,0.0,0.0
1043,54.0,41,60,1.0,0.0
1044,74.0,0,60,0.0,0.0
1045,59.0,19,30,1.0,0.0
1046,57.0,54,20,1.0,0.0
1047,57.0,12,90,1.0,0.0
1048,73.0,48,60,0.0,0.0
1049,71.0,60,60,0.0,0.0
1050,73.0,0,60,0.0,0.0
1051,57.0,60,60,1.0,0.0
1052,74.0,0,60,0.0,0.0
1053,56.0,36,60,1.0,0.0
1054,57.0,6,60,1.0,0.0
1055,76.0,24,20,0.0,0.0
1056,78.0,54,20,0.0,0.0
1057,71.0,0,60,0.0,0.0
1058,56.0,36,60,1.0,0.0
1059,73.0,24,20,0.0,0.0
1060,54.0,6,60,1.0,0.0
1061,74.0,54,20,0.0,0.0
1062,52.0,0,60,1.0,0.0
1063,68.0,36,60,0.0,0.0
1064,50.0,6,60,1.0,0.0
1065,69.0,24,20,0.0,0.0
1066,71.0,54,20,0.0,0.0
1067,64.0,0,60,0.0,0.0
1068,49.0,60,60,1.0,0.0
1069,74.0,0,60,0.0,0.0
1070,47.0,60,60,1.0,0.0
1071,73.0,180,60,0.0,0.0
1072,69.0,0,240,0.0,0.0
1073,64.0,0,180,0.0,0.0
1074,52.0,41,60,1.0,0.0
1075,57.0,19,30,1.0,0.0
1076,56.0,54,20,1.0,0.0
1077,69.0,60,60,0.0,0.0
1078,57.0,55,120,1.0,0.0
1079,71.0,5,60,0.0,0.0
1080,55.0,0,60,1.0,0.0
1081,73.0,60,60,0.0,0.0
1082,74.0,0,60,0.0,0.0
1083,54.0,60,60,1.0,0.0
1084,55.0,60,60,1.0,0.0
1085,76.0,0,60,0.0,0.0
1086,54.0,60,60,1.0,0.0
1087,74.0,0,60,0.0,0.0
1088,52.0,0,60,1.0,0.0
1089,73.0,60,60,0.0,0.0
1090,50.0,60,60,1.0,0.0
1091,71.0,0,60,0.0,0.0
1092,49.0,0,60,1.0,0.0
1093,69.0,60,60,0.0,0.0
1094,68.0,0,60,0.0,0.0
1095,47.0,60,60,1.0,0.0
1096,69.0,0,60,0.0,0.0
1097,45.0,27,60,1.0,0.0
1098,68.0,12,15,0.0,0.0
1099,52.0,24,150,1.0,0.0
1100,69.0,27,15,0.0,0.0
1101,68.0,54,20,0.0,0.0
1102,64.0,36,60,0.0,0.0
1103,68.0,60,60,0.0,0.0
1104,71.0,0,60,0.0,0.0
1105,50.0,27,60,1.0,0.0
1106,76.0,24,150,0.0,0.0
1107,49.0,12,15,1.0,0.0
1108,50.0,27,15,1.0,0.0
1109,49.0,54,20,1.0,0.0
1110,45.0,36,60,1.0,0.0
1111,49.0,60,60,1.0,0.0
1112,74.0,27,60,0.0,0.0
1113,52.0,0,60,1.0,0.0
1114,73.0,12,15,0.0,0.0
1115,57.0,24,150,1.0,0.0
1116,74.0,27,15,0.0,0.0
1117,73.0,54,20,0.0,0.0
1118,69.0,36,60,0.0,0.0
1119,73.0,60,60,0.0,0.0
1120,76.0,0,60,0.0,0.0
1121,55.0,27,60,1.0,0.0
1122,81.0,24,150,0.0,0.0
1123,54.0,12,15,1.0,0.0
1124,55.0,27,15,1.0,0.0
1125,54.0,54,20,1.0,0.0
1126,50.0,36,60,1.0,0.0
1127,54.0,60,60,1.0,0.0
1128,57.0,60,60,1.0,0.0
1129,79.0,0,60,0.0,0.0
1130,62.0,12,90,1.0,0.0
1131,78.0,48,60,0.0,0.0
1132,81.0,60,60,0.0,0.0
1133,74.0,48,60,0.0,0.0
1134,61.0,12,90,1.0,0.0
1135,76.0,60,60,0.0,0.0
1136,59.0,12,90,1.0,0.0
1137,78.0,48,60,0.0,0.0
1138,74.0,60,60,0.0,0.0
1139,57.0,12,90,1.0,0.0
1140,71.0,48,60,0.0,0.0
1141,73.0,60,60,0.0,0.0
1142,59.0,12,90,1.0,0.0
1143,74.0,48,60,0.0,0.0
1144,78.0,60,60,0.0,0.0
1145,71.0,48,60,0.0,0.0
1146,57.0,12,90,1.0,0.0
1147,73.0,60,60,0.0,0.0
1148,74.0,48,60,0.0,0.0
1149,56.0,12,90,1.0,0.0
1150,71.0,60,60,0.0,0.0
1151,54.0,12,90,1.0,0.0
1152,68.0,48,60,0.0,0.0
1153,69.0,41,60,0.0,0.0
1154,52.0,6,60,1.0,0.0
1155,68.0,19,30,0.0,0.0
1156,69.0,54,20,0.0,0.0
1157,54.0,48,60,1.0,0.0
1158,68.0,72,90,0.0,0.0
1159,56.0,0,300,1.0,0.0
1160,66.0,60,60,0.0,0.0
1161,59.0,0,240,1.0,0.0
1162,64.0,60,60,0.0,0.0
1163,68.0,60,60,0.0,0.0
1164,71.0,24,60,0.0,0.0
1165,76.0,60,120,0.0,0.0
1166,57.0,0,390,1.0,0.0
1167,66.0,24,390,0.0,0.0
1168,76.0,60,60,0.0,0.0
1169,75.0,60,60,0.0,0.0
1170,73.0,60,60,0.0,0.0
1171,75.0,60,60,0.0,0.0
1172,78.0,36,60,0.0,0.0
1173,71.0,60,60,0.0,0.0
1174,73.0,60,60,0.0,0.0
1175,74.0,144,60,0.0,0.0
1176,59.0,96,180,1.0,0.0
1177,71.0,0,240,0.0,0.0
1178,68.0,0,180,0.0,0.0
1179,64.0,48,120,0.0,0.0
1180,61.0,60,150,1.0,0.0
1181,64.0,12,150,0.0,0.0
1182,69.0,0,90,0.0,0.0
1183,73.0,12,90,0.0,0.0
1184,63.0,60,60,1.0,0.0
1185,69.0,60,60,0.0,0.0
1186,64.0,60,300,1.0,0.0
1187,71.0,0,810,0.0,0.0
1188,69.0,60,60,0.0,0.0
1189,68.0,60,60,0.0,0.0
1190,66.0,60,60,0.0,0.0
1191,68.0,48,540,0.0,0.0
1192,66.0,60,60,1.0,0.0
1193,59.0,60,60,1.0,0.0
1194,61.0,156,60,1.0,0.0
1195,62.0,55,240,1.0,0.0
1196,59.0,0,180,1.0,0.0
1197,56.0,0,120,1.0,0.0
1198,52.0,3,690,1.0,0.0
1199,61.0,60,90,1.0,0.0
1200,64.0,60,90,0.0,0.0
1201,69.0,30,150,0.0,0.0
1202,60.0,12,90,1.0,0.0
1203,63.0,36,60,0.0,0.0
1204,64.0,48,540,0.0,0.0
1205,59.0,18,90,1.0,0.0
1206,71.0,30,20,0.0,0.0
1207,73.0,12,20,0.0,0.0
1208,74.0,30,20,0.0,0.0
1209,73.0,30,20,0.0,0.0
1210,57.0,18,90,1.0,0.0
1211,71.0,30,20,0.0,0.0
1212,73.0,12,20,0.0,0.0
1213,74.0,18,20,0.0,0.0
1214,69.0,15,15,0.0,0.0
1215,59.0,9,60,1.0,0.0
1216,68.0,15,15,0.0,0.0
1217,69.0,6,15,0.0,0.0
1218,68.0,15,15,0.0,0.0
1219,69.0,15,15,0.0,0.0
1220,61.0,9,60,1.0,0.0
1221,68.0,15,15,0.0,0.0
1222,69.0,6,15,0.0,0.0
1223,68.0,15,15,0.0,0.0
1224,69.0,12,15,0.0,0.0
1225,62.0,12,210,1.0,0.0
1226,68.0,15,15,0.0,0.0
1227,69.0,15,15,0.0,0.0
1228,68.0,51,15,0.0,0.0
1229,69.0,60,60,0.0,0.0
1230,57.0,0,390,1.0,0.0
1231,69.0,0,390,0.0,0.0
1232,64.0,60,60,0.0,0.0
1233,61.0,60,180,1.0,0.0
1234,66.0,60,60,0.0,0.0
1235,67.0,60,60,0.0,0.0
1236,66.0,72,150,0.0,0.0
1237,62.0,36,60,1.0,0.0
1238,59.0,12,90,1.0,0.0
1239,66.0,204,60,0.0,0.0
1240,68.0,0,60,0.0,0.0
1241,62.0,0,60,0.0,0.0
1242,57.0,36,180,1.0,0.0
1243,64.0,96,300,0.0,0.0
1244,61.0,0,300,0.0,0.0
1245,69.0,0,300,0.0,0.0
1246,45.0,0,330,1.0,0.0
1247,49.0,60,120,1.0,0.0
1248,52.0,0,210,1.0,0.0
1249,57.0,93,150,1.0,0.0
1250,71.0,195,60,0.0,0.0
1251,71.0,240,180,0.0,0.0
1252,52.0,60,480,1.0,0.0
1253,56.0,0,300,1.0,0.0
1254,59.0,0,240,1.0,0.0
1255,64.0,36,180,1.0,0.0
1256,68.0,0,180,0.0,0.0
1257,71.0,0,120,0.0,0.0
1258,76.0,60,60,0.0,0.0
1259,61.0,0,630,0.0,0.0
1260,70.0,48,630,0.0,0.0
1261,66.0,0,630,0.0,0.0
1262,55.0,60,60,1.0,0.0
1263,49.0,60,60,1.0,0.0
1264,52.0,60,60,1.0,0.0
1265,46.0,60,60,1.0,0.0
1266,49.0,60,60,1.0,0.0
1267,42.0,60,60,1.0,0.0
1268,52.0,60,60,1.0,0.0
1269,50.0,96,60,1.0,0.0
1270,54.0,0,180,1.0,0.0
1271,58.0,0,120,1.0,0.0
1272,61.0,0,60,1.0,0.0
1273,64.0,60,60,0.0,0.0
1274,50.0,120,90,1.0,0.0
1275,59.0,0,330,1.0,0.0
1276,62.0,48,60,0.0,0.0
1277,66.0,60,180,0.0,0.0
1278,50.0,0,90,1.0,0.0
1279,71.0,0,120,0.0,0.0
1280,54.0,12,90,1.0,0.0
1281,74.0,0,60,0.0,0.0
1282,76.0,48,60,0.0,0.0
1283,55.0,12,90,1.0,0.0
1284,49.0,24,180,1.0,0.0
1285,79.0,60,60,0.0,0.0
1286,55.0,12,90,1.0,0.0
1287,73.0,24,60,0.0,0.0
1288,52.0,0,90,1.0,0.0
1289,76.0,60,60,0.0,0.0
1290,54.0,12,90,1.0,0.0
1291,70.0,48,60,0.0,0.0
1292,73.0,60,60,0.0,0.0
1293,42.0,12,90,1.0,0.0
1294,66.0,24,60,0.0,0.0
1295,76.0,60,60,0.0,0.0
1296,47.0,60,540,1.0,0.0
1297,66.0,60,60,0.0,0.0
1298,68.0,60,60,0.0,0.0
1299,70.0,60,60,0.0,0.0
1300,71.0,60,60,0.0,0.0
1301,74.0,36,60,0.0,0.0
1302,67.0,60,60,0.0,0.0
1303,71.0,60,60,0.0,0.0
1304,73.0,0,660,0.0,0.0
1305,68.0,0,390,0.0,0.0
1306,65.0,24,390,0.0,0.0
1307,50.0,60,60,1.0,0.0
1308,44.0,60,60,1.0,0.0
1309,47.0,60,60,1.0,0.0
1310,41.0,60,60,1.0,0.0
1311,44.0,36,60,1.0,0.0
1312,37.0,60,60,1.0,0.0
1313,47.0,60,60,1.0,0.0
1314,69.0,0,180,0.0,0.0
1315,66.0,36,180,0.0,0.0
1316,45.0,144,60,1.0,0.0
1317,49.0,0,180,1.0,0.0
1318,54.0,0,120,1.0,0.0
1319,57.0,60,60,1.0,0.0
1320,59.0,48,60,0.0,0.0
1321,51.0,96,90,1.0,0.0
1322,63.0,0,180,0.0,0.0
1323,45.0,12,90,1.0,0.0
1324,66.0,0,120,0.0,0.0
1325,71.0,60,60,0.0,0.0
1326,71.0,0,60,0.0,0.0
1327,65.0,12,90,0.0,0.0
1328,44.0,48,60,1.0,0.0
1329,49.0,0,60,1.0,0.0
1330,68.0,60,60,0.0,0.0
1331,51.0,60,60,1.0,0.0
1332,73.0,0,60,0.0,0.0
1333,71.0,0,60,0.0,0.0
1334,53.0,60,60,1.0,0.0
1335,69.0,12,90,0.0,0.0
1336,54.0,48,60,1.0,0.0
1337,53.0,48,60,1.0,0.0
1338,66.0,12,90,0.0,0.0
1339,74.0,12,90,0.0,0.0
1340,54.0,48,60,1.0,0.0
1341,65.0,0,60,0.0,0.0
1342,56.0,60,60,1.0,0.0
1343,73.0,24,150,0.0,0.0
1344,57.0,60,60,1.0,0.0
1345,64.0,36,60,0.0,0.0
1346,56.0,0,60,1.0,0.0
1347,57.0,60,60,1.0,0.0
1348,66.0,48,180,0.0,0.0
1349,59.0,0,60,1.0,0.0
1350,71.0,60,60,0.0,0.0
1351,61.0,60,90,1.0,0.0
1352,69.0,0,90,0.0,0.0
1353,66.0,60,90,0.0,0.0
1354,49.0,0,90,1.0,0.0
1355,68.0,12,90,0.0,0.0
1356,64.0,60,60,0.0,0.0
1357,66.0,0,60,0.0,0.0
1358,54.0,36,180,1.0,0.0
1359,73.0,60,60,0.0,0.0
1360,58.0,0,60,0.0,0.0
1361,61.0,24,60,0.0,0.0
1362,78.0,0,60,0.0,0.0
1363,80.0,60,60,0.0,0.0
1364,65.0,0,60,0.0,0.0
1365,81.0,24,150,0.0,0.0
1366,66.0,60,60,0.0,0.0
1367,69.0,36,60,0.0,0.0
1368,62.0,48,60,0.0,0.0
1369,54.0,12,90,1.0,0.0
1370,66.0,60,60,0.0,0.0
1371,81.0,0,60,0.0,0.0
1372,81.0,60,60,0.0,0.0
1373,60.0,36,180,0.0,0.0
1374,56.0,0,300,1.0,0.0
1375,78.0,60,60,0.0,0.0
1376,75.0,24,60,0.0,0.0
1377,78.0,60,60,0.0,0.0
1378,72.0,60,60,0.0,0.0
1379,56.0,60,60,1.0,0.0
1380,75.0,0,60,0.0,0.0
1381,68.0,0,60,0.0,0.0
1382,58.0,60,60,1.0,0.0
1383,78.0,60,60,0.0,0.0
1384,60.0,0,60,1.0,0.0
1385,76.0,0,60,0.0,0.0
1386,61.0,60,60,1.0,0.0
1387,75.0,0,60,0.0,0.0
1388,64.0,60,60,1.0,0.0
1389,73.0,0,60,0.0,0.0
1390,57.0,24,60,1.0,0.0
1391,71.0,60,60,0.0,0.0
1392,61.0,0,60,1.0,0.0
1393,69.0,48,300,0.0,0.0
1394,76.0,0,60,0.0,0.0
1395,54.0,60,60,1.0,0.0
1396,76.0,0,60,0.0,0.0
1397,57.0,60,60,1.0,0.0
1398,51.0,60,60,1.0,0.0
1399,75.0,0,60,0.0,0.0
1400,54.0,0,60,1.0,0.0
1401,73.0,60,60,0.0,0.0
1402,44.0,0,60,1.0,0.0
1403,72.0,12,90,0.0,0.0
1404,68.0,24,150,0.0,0.0
1405,51.0,60,60,1.0,0.0
1406,70.0,0,60,0.0,0.0
1407,56.0,24,60,1.0,0.0
1408,54.0,60,60,1.0,0.0
1409,72.0,0,60,0.0,0.0
1410,73.0,48,60,0.0,0.0
1411,68.0,24,180,0.0,0.0
1412,52.0,12,90,1.0,0.0
1413,72.0,48,60,0.0,0.0
1414,61.0,12,90,1.0,0.0
1415,73.0,24,60,0.0,0.0
1416,51.0,12,90,1.0,0.0
1417,75.0,0,60,0.0,0.0
1418,60.0,60,60,1.0,0.0
1419,49.0,60,60,1.0,0.0
1420,76.0,0,60,0.0,0.0
1421,51.0,60,60,1.0,0.0
1422,78.0,0,60,0.0,0.0
1423,52.0,0,60,1.0,0.0
1424,80.0,60,60,0.0,0.0
1425,54.0,24,60,1.0,0.0
1426,81.0,0,60,0.0,0.0
1427,72.0,24,180,0.0,0.0
1428,56.0,6,90,1.0,0.0
1429,76.0,15,15,0.0,0.0
1430,75.0,15,15,0.0,0.0
1431,76.0,15,15,0.0,0.0
1432,75.0,15,15,0.0,0.0
1433,76.0,15,15,0.0,0.0
1434,75.0,9,15,0.0,0.0
1435,76.0,15,15,0.0,0.0
1436,75.0,15,15,0.0,0.0
1437,44.0,12,90,1.0,0.0
1438,76.0,15,15,0.0,0.0
1439,75.0,15,15,0.0,0.0
1440,76.0,15,15,0.0,0.0
1441,75.0,15,15,0.0,0.0
1442,73.0,60,60,0.0,0.0
1443,56.0,48,150,1.0,0.0
1444,49.0,36,180,1.0,0.0
1445,73.0,96,60,0.0,0.0
1446,68.0,0,240,0.0,0.0
1447,64.0,0,180,0.0,0.0
1448,56.0,41,60,1.0,0.0
1449,61.0,19,30,1.0,0.0
1450,59.0,54,20,1.0,0.0
1451,74.0,48,60,0.0,0.0
1452,61.0,12,90,1.0,0.0
1453,73.0,60,60,0.0,0.0
1454,74.0,0,60,0.0,0.0
1455,59.0,60,60,1.0,0.0
1456,76.0,0,60,0.0,0.0
1457,58.0,60,60,1.0,0.0
1458,79.0,0,60,0.0,0.0
1459,59.0,60,60,1.0,0.0
1460,73.0,0,60,0.0,0.0
1461,58.0,60,60,1.0,0.0
1462,76.0,60,60,0.0,0.0
1463,56.0,0,60,1.0,0.0
1464,70.0,0,60,0.0,0.0
1465,54.0,60,60,1.0,0.0
1466,52.0,0,60,1.0,0.0
1467,73.0,60,60,0.0,0.0
1468,50.0,0,60,1.0,0.0
1469,66.0,60,60,0.0,0.0
1470,76.0,0,60,0.0,0.0
1471,49.0,60,60,1.0,0.0
1472,47.0,0,180,1.0,0.0
1473,74.0,144,60,0.0,0.0
1474,71.0,6,240,0.0,0.0
1475,66.0,0,180,0.0,0.0
1476,54.0,41,60,1.0,0.0
1477,59.0,19,30,1.0,0.0
1478,74.0,0,60,0.0,0.0
1479,57.0,54,20,1.0,0.0
1480,73.0,48,60,0.0,0.0
1481,57.0,12,90,1.0,0.0
1482,71.0,60,60,0.0,0.0
1483,73.0,60,60,0.0,0.0
1484,57.0,0,60,1.0,0.0
1485,74.0,0,60,0.0,0.0
1486,56.0,36,60,1.0,0.0
1487,57.0,6,60,1.0,0.0
1488,76.0,24,20,0.0,0.0
1489,78.0,54,20,0.0,0.0
1490,56.0,0,60,1.0,0.0
1491,71.0,36,60,0.0,0.0
1492,73.0,24,20,0.0,0.0
1493,54.0,6,60,1.0,0.0
1494,74.0,54,20,0.0,0.0
1495,52.0,36,60,1.0,0.0
1496,68.0,0,60,0.0,0.0
1497,69.0,24,20,0.0,0.0
1498,50.0,6,60,1.0,0.0
1499,71.0,54,20,0.0,0.0
1500,64.0,0,60,0.0,0.0
1501,49.0,60,60,1.0,0.0
1502,74.0,0,60,0.0,0.0
1503,47.0,60,60,1.0,0.0
1504,73.0,180,60,0.0,0.0
1505,69.0,0,240,0.0,0.0
1506,64.0,6,180,0.0,0.0
1507,52.0,41,60,1.0,0.0
1508,57.0,19,30,1.0,0.0
1509,56.0,54,20,1.0,0.0
1510,69.0,60,60,0.0,0.0
1511,57.0,55,120,1.0,0.0
1512,71.0,5,60,0.0,0.0
1513,55.0,0,60,1.0,0.0
1514,73.0,60,60,0.0,0.0
1515,54.0,0,60,1.0,0.0
1516,74.0,60,60,0.0,0.0
1517,55.0,60,60,1.0,0.0
1518,76.0,0,60,0.0,0.0
1519,74.0,0,60,0.0,0.0
1520,54.0,60,60,1.0,0.0
1521,52.0,60,60,1.0,0.0
1522,73.0,0,60,0.0,0.0
1523,71.0,60,60,0.0,0.0
1524,50.0,0,60,1.0,0.0
1525,69.0,60,60,0.0,0.0
1526,49.0,0,60,1.0,0.0
1527,47.0,60,60,1.0,0.0
1528,68.0,0,60,0.0,0.0
1529,45.0,27,60,1.0,0.0
1530,69.0,0,60,0.0,0.0
1531,52.0,24,150,1.0,0.0
1532,68.0,12,15,0.0,0.0
1533,69.0,27,15,0.0,0.0
1534,68.0,54,20,0.0,0.0
1535,64.0,36,60,0.0,0.0
1536,68.0,60,60,0.0,0.0
1537,71.0,0,60,0.0,0.0
1538,50.0,27,60,1.0,0.0
1539,49.0,12,15,1.0,0.0
1540,76.0,24,150,0.0,0.0
1541,50.0,27,15,1.0,0.0
1542,49.0,54,20,1.0,0.0
1543,45.0,36,60,1.0,0.0
1544,49.0,60,60,1.0,0.0
1545,52.0,0,60,1.0,0.0
1546,74.0,27,60,0.0,0.0
1547,73.0,12,15,0.0,0.0
1548,57.0,24,150,1.0,0.0
1549,74.0,27,15,0.0,0.0
1550,73.0,54,20,0.0,0.0
1551,69.0,36,60,0.0,0.0
1552,73.0,60,60,0.0,0.0
1553,55.0,0,60,1.0,0.0
1554,76.0,27,60,0.0,0.0
1555,54.0,12,15,1.0,0.0
1556,81.0,24,150,0.0,0.0
1557,55.0,27,15,1.0,0.0
1558,54.0,54,20,1.0,0.0
1559,50.0,36,60,1.0,0.0
1560,54.0,60,60,1.0,0.0
1561,57.0,60,60,1.0,0.0
1562,79.0,0,60,0.0,0.0
1563,62.0,12,90,1.0,0.0
1564,78.0,48,60,0.0,0.0
1565,81.0,60,60,0.0,0.0
1566,61.0,12,90,1.0,0.0
1567,74.0,48,60,0.0,0.0
1568,76.0,60,60,0.0,0.0
1569,78.0,48,60,0.0,0.0
1570,59.0,12,90,1.0,0.0
1571,74.0,60,60,0.0,0.0
1572,57.0,12,90,1.0,0.0
1573,71.0,48,60,0.0,0.0
1574,73.0,60,60,0.0,0.0
1575,59.0,12,90,1.0,0.0
1576,74.0,48,60,0.0,0.0
1577,78.0,60,60,0.0,0.0
1578,71.0,48,60,0.0,0.0
1579,57.0,12,90,1.0,0.0
1580,73.0,60,60,0.0,0.0
1581,74.0,48,60,0.0,0.0
1582,56.0,12,90,1.0,0.0
1583,71.0,60,60,0.0,0.0
1584,68.0,48,60,0.0,0.0
1585,54.0,12,90,1.0,0.0
1586,69.0,41,60,0.0,0.0
1587,52.0,6,60,1.0,0.0
1588,68.0,19,30,0.0,0.0
1589,69.0,54,20,0.0,0.0
1590,54.0,48,60,1.0,0.0
1591,68.0,72,90,0.0,0.0
1592,56.0,96,300,1.0,0.0
1593,66.0,60,60,0.0,0.0
1594,59.0,0,240,1.0,0.0
1595,64.0,60,60,0.0,0.0
1596,68.0,60,60,0.0,0.0
1597,71.0,24,60,0.0,0.0
1598,76.0,60,120,0.0,0.0
1599,57.0,24,390,1.0,0.0
1600,66.0,0,390,0.0,0.0
1601,76.0,60,60,0.0,0.0
1602,75.0,60,60,0.0,0.0
1603,73.0,60,60,0.0,0.0
1604,75.0,60,60,0.0,0.0
1605,78.0,36,60,0.0,0.0
1606,71.0,60,60,0.0,0.0
1607,73.0,60,60,0.0,0.0
1608,74.0,144,60,0.0,0.0
1609,59.0,96,180,1.0,0.0
1610,71.0,48,240,0.0,0.0
1611,68.0,0,180,0.0,0.0
1612,64.0,0,120,0.0,0.0
1613,61.0,60,150,1.0,0.0
1614,64.0,12,150,0.0,0.0
1615,73.0,12,90,0.0,0.0
1616,69.0,0,90,0.0,0.0
1617,63.0,60,60,1.0,0.0
1618,64.0,60,300,1.0,0.0
1619,69.0,60,60,0.0,0.0
1620,71.0,60,810,0.0,0.0
1621,69.0,60,60,0.0,0.0
1622,68.0,60,60,0.0,0.0
1623,66.0,60,60,0.0,0.0
1624,68.0,48,540,0.0,0.0
1625,66.0,60,60,1.0,0.0
1626,59.0,60,60,1.0,0.0
1627,61.0,156,60,1.0,0.0
1628,62.0,55,240,1.0,0.0
1629,59.0,0,180,1.0,0.0
1630,56.0,0,120,1.0,0.0
1631,52.0,3,690,1.0,0.0
1632,61.0,0,90,1.0,0.0
1633,64.0,60,90,0.0,0.0
1634,69.0,30,150,0.0,0.0
1635,60.0,12,90,1.0,0.0
1636,63.0,36,60,0.0,0.0
1637,64.0,48,540,0.0,0.0
1638,59.0,18,90,1.0,0.0
1639,71.0,30,20,0.0,0.0
1640,73.0,12,20,0.0,0.0
1641,74.0,30,20,0.0,0.0
1642,57.0,18,90,1.0,0.0
1643,73.0,30,20,0.0,0.0
1644,71.0,30,20,0.0,0.0
1645,73.0,12,20,0.0,0.0
1646,74.0,18,20,0.0,0.0
1647,59.0,9,60,1.0,0.0
1648,69.0,15,15,0.0,0.0
1649,68.0,15,15,0.0,0.0
1650,69.0,6,15,0.0,0.0
1651,68.0,15,15,0.0,0.0
1652,69.0,15,15,0.0,0.0
1653,61.0,9,60,1.0,0.0
1654,68.0,15,15,0.0,0.0
1655,69.0,6,15,0.0,0.0
1656,68.0,15,15,0.0,0.0
1657,69.0,12,15,0.0,0.0
1658,62.0,12,210,1.0,0.0
1659,68.0,15,15,0.0,0.0
1660,69.0,15,15,0.0,0.0
1661,68.0,51,15,0.0,0.0
1662,69.0,60,60,0.0,0.0
1663,57.0,0,390,1.0,0.0
1664,69.0,72,390,0.0,0.0
1665,64.0,60,60,0.0,0.0
1666,66.0,60,60,0.0,0.0
1667,61.0,60,180,1.0,0.0
1668,67.0,60,60,0.0,0.0
1669,66.0,0,150,0.0,0.0
1670,62.0,36,60,1.0,0.0
1671,59.0,12,90,1.0,0.0
1672,66.0,0,60,0.0,0.0
1673,62.0,0,60,0.0,0.0
1674,68.0,204,60,0.0,0.0
1675,69.0,0,300,0.0,0.0
1676,61.0,96,300,0.0,0.0
1677,57.0,36,180,1.0,0.0
1678,64.0,0,300,0.0,0.0
1679,45.0,0,330,1.0,0.0
1680,49.0,60,120,1.0,0.0
1681,52.0,0,210,1.0,0.0
1682,57.0,0,150,1.0,0.0
