,note,step,duration,channel,velocity
0,54.0,0,190,0.0,127.0
1,56.0,192,47,0.0,127.0
2,57.0,48,47,0.0,127.0
3,59.0,48,47,0.0,127.0
4,61.0,48,47,0.0,127.0
5,62.0,48,47,0.0,127.0
6,61.0,48,47,0.0,127.0
7,59.0,48,47,0.0,127.0
8,57.0,48,47,0.0,127.0
9,56.0,48,47,0.0,127.0
10,57.0,48,47,0.0,127.0
11,54.0,48,47,0.0,127.0
12,61.0,48,47,0.0,127.0
13,57.0,48,47,0.0,127.0
14,66.0,48,47,0.0,127.0
15,61.0,48,47,0.0,127.0
16,66.0,48,90,0.0,127.0
17,68.0,96,47,0.0,127.0
18,69.0,48,47,0.0,127.0
19,71.0,48,47,0.0,127.0
20,73.0,48,47,0.0,127.0
21,74.0,48,47,0.0,127.0
22,73.0,48,47,0.0,127.0
23,71.0,48,47,0.0,127.0
24,69.0,48,47,0.0,127.0
25,68.0,48,47,0.0,127.0
26,69.0,48,47,0.0,127.0
27,66.0,48,47,0.0,127.0
28,73.0,48,47,0.0,127.0
29,69.0,48,47,0.0,127.0
30,78.0,48,48,0.0,127.0
31,77.0,24,0,0.0,127.0
32,78.0,24,0,0.0,127.0
33,73.0,336,47,0.0,127.0
34,69.0,48,47,0.0,127.0
35,68.0,48,47,0.0,127.0
36,66.0,48,47,0.0,127.0
37,69.0,48,140,0.0,127.0
38,61.0,48,47,0.0,127.0
39,59.0,48,47,0.0,127.0
40,57.0,48,47,0.0,127.0
41,61.0,48,140,0.0,127.0
42,49.0,48,47,0.0,127.0
43,54.0,48,340,0.0,127.0
44,42.0,48,480,0.0,127.0
45,76.0,680,110,0.0,127.0
46,74.0,112,70,0.0,127.0
47,76.0,72,47,0.0,127.0
48,78.0,48,47,0.0,127.0
49,76.0,48,47,0.0,127.0
50,74.0,48,47,0.0,127.0
51,73.0,48,47,0.0,127.0
52,71.0,48,47,0.0,127.0
53,70.0,48,47,0.0,127.0
54,73.0,48,47,0.0,127.0
55,71.0,48,130,0.0,127.0
56,74.0,48,47,0.0,127.0
57,73.0,48,47,0.0,127.0
58,71.0,48,47,0.0,127.0
59,69.0,48,47,0.0,127.0
60,68.0,48,47,0.0,127.0
61,66.0,48,47,0.0,127.0
62,69.0,48,47,0.0,127.0
63,68.0,48,130,0.0,127.0
64,71.0,48,47,0.0,127.0
65,69.0,48,47,0.0,127.0
66,68.0,48,47,0.0,127.0
67,66.0,48,47,0.0,127.0
68,65.0,48,47,0.0,127.0
69,63.0,48,47,0.0,127.0
70,66.0,48,47,0.0,127.0
71,65.0,48,130,0.0,127.0
72,68.0,48,47,0.0,127.0
73,66.0,48,47,0.0,127.0
74,65.0,48,47,0.0,127.0
75,63.0,48,47,0.0,127.0
76,61.0,48,47,0.0,127.0
77,59.0,48,47,0.0,127.0
78,57.0,48,90,0.0,127.0
79,61.0,48,51,0.0,127.0
80,66.0,53,59,0.0,127.0
81,65.0,53,60,0.0,127.0
82,54.0,216,47,0.0,127.0
83,57.0,49,47,0.0,127.0
84,56.0,48,47,0.0,127.0
85,66.0,61,380,0.0,127.0
86,54.0,48,47,0.0,127.0
87,53.0,48,47,0.0,127.0
88,54.0,48,47,0.0,127.0
89,56.0,48,47,0.0,127.0
90,57.0,48,47,0.0,127.0
91,59.0,48,47,0.0,127.0
92,61.0,48,47,0.0,127.0
93,62.0,48,47,0.0,127.0
94,61.0,48,90,0.0,127.0
95,66.0,48,47,0.0,127.0
96,69.0,48,47,0.0,127.0
97,68.0,48,47,0.0,127.0
98,69.0,48,90,0.0,127.0
99,61.0,48,47,0.0,127.0
100,66.0,48,58,0.0,127.0
101,65.0,58,60,0.0,127.0
102,66.0,58,99,0.0,127.0
103,68.0,100,47,0.0,127.0
104,69.0,48,47,0.0,127.0
105,71.0,48,47,0.0,127.0
106,73.0,48,47,0.0,127.0
107,74.0,48,47,0.0,127.0
108,76.0,48,47,0.0,127.0
109,78.0,48,47,0.0,127.0
110,74.0,48,95,0.0,127.0
111,69.0,96,95,0.0,127.0
112,71.0,96,95,0.0,127.0
113,68.0,96,95,0.0,127.0
114,64.0,96,95,0.0,127.0
115,68.0,96,95,0.0,127.0
116,73.0,96,95,0.0,127.0
117,68.0,96,95,0.0,127.0
118,69.0,96,95,0.0,127.0
119,65.0,96,95,0.0,127.0
120,66.0,96,190,0.0,127.0
121,61.0,96,95,0.0,127.0
122,59.0,96,95,0.0,127.0
123,62.0,96,280,0.0,127.0
124,59.0,96,95,0.0,127.0
125,68.0,96,280,0.0,127.0
126,56.0,96,95,0.0,127.0
127,61.0,96,280,0.0,127.0
128,57.0,96,95,0.0,127.0
129,61.0,96,95,0.0,127.0
130,57.0,96,95,0.0,127.0
131,66.0,96,280,0.0,127.0
132,62.0,96,95,0.0,127.0
133,54.0,96,95,0.0,127.0
134,54.0,96,95,0.0,127.0
135,59.0,96,280,0.0,127.0
136,51.0,96,95,0.0,127.0
137,56.0,96,280,0.0,127.0
138,56.0,96,95,0.0,127.0
139,61.0,96,95,0.0,127.0
140,53.0,96,380,0.0,127.0
141,42.0,0,2300,0.0,127.0
142,56.0,96,95,0.0,127.0
143,57.0,96,95,0.0,127.0
144,53.0,96,95,0.0,127.0
145,49.0,96,95,0.0,127.0
146,45.0,96,95,0.0,127.0
147,54.0,96,380,0.0,127.0
148,42.0,96,190,0.0,127.0
149,42.0,104,468,0.0,127.0
150,51.0,96,575,0.0,127.0
151,60.0,116,440,0.0,127.0
152,56.0,0,480,0.0,127.0
153,40.0,573,96,0.0,127.0
154,42.0,98,96,0.0,127.0
155,39.0,98,96,0.0,127.0
156,56.0,107,96,0.0,127.0
157,54.0,95,91,0.0,127.0
158,40.0,98,489,0.0,127.0
159,51.0,98,96,0.0,127.0
160,52.0,98,96,0.0,127.0
161,56.0,94,387,0.0,127.0
162,49.0,98,96,0.0,127.0
163,61.0,95,586,0.0,127.0
164,61.0,107,96,0.0,127.0
165,38.0,98,387,0.0,127.0
166,61.0,95,96,0.0,127.0
167,57.0,95,92,0.0,127.0
168,59.0,93,92,0.0,127.0
169,62.0,95,387,0.0,127.0
170,66.0,95,586,0.0,127.0
171,54.0,94,282,0.0,127.0
172,66.0,103,92,0.0,127.0
173,48.0,95,372,0.0,127.0
174,66.0,91,94,0.0,127.0
175,69.0,91,185,0.0,127.0
176,68.0,92,185,0.0,127.0
177,65.0,0,92,0.0,127.0
178,56.0,103,92,0.0,127.0
179,57.0,90,92,0.0,127.0
180,54.0,92,92,0.0,127.0
181,63.0,0,92,0.0,127.0
182,66.0,0,185,0.0,127.0
183,68.0,115,87,0.0,127.0
184,73.0,86,87,0.0,127.0
185,64.0,91,372,0.0,127.0
186,56.0,0,372,0.0,127.0
187,49.0,0,372,0.0,127.0
188,68.0,88,87,0.0,127.0
189,69.0,85,87,0.0,127.0
190,66.0,92,90,0.0,127.0
191,68.0,91,90,0.0,127.0
192,63.0,92,90,0.0,127.0
193,64.0,91,135,0.0,127.0
194,60.0,116,90,0.0,127.0
195,61.0,91,90,0.0,127.0
196,56.0,91,90,0.0,127.0
197,57.0,92,90,0.0,127.0
198,54.0,91,90,0.0,127.0
199,56.0,92,90,0.0,127.0
200,51.0,91,90,0.0,127.0
201,77.0,153,90,0.0,127.0
202,80.0,89,90,0.0,127.0
203,53.0,92,361,0.0,127.0
204,73.0,90,90,0.0,127.0
205,74.0,89,90,0.0,127.0
206,71.0,92,90,0.0,127.0
207,68.0,92,90,0.0,127.0
208,65.0,131,90,0.0,127.0
209,66.0,92,90,0.0,127.0
210,54.0,0,361,0.0,127.0
211,69.0,91,361,0.0,127.0
212,73.0,91,547,0.0,127.0
213,61.0,91,90,0.0,127.0
214,62.0,92,90,0.0,127.0
215,57.0,91,90,0.0,127.0
216,59.0,92,90,0.0,127.0
217,54.0,91,90,0.0,127.0
218,78.0,132,90,0.0,127.0
219,83.0,91,90,0.0,127.0
220,50.0,0,361,0.0,127.0
221,56.0,91,361,0.0,127.0
222,78.0,92,90,0.0,127.0
223,80.0,91,90,0.0,127.0
224,77.0,92,90,0.0,127.0
225,78.0,91,180,0.0,127.0
226,75.0,91,90,0.0,127.0
227,77.0,0,113,0.0,127.0
228,73.0,131,90,0.0,127.0
229,49.0,0,361,0.0,127.0
230,56.0,92,361,0.0,127.0
231,73.0,91,90,0.0,127.0
232,74.0,92,90,0.0,127.0
233,71.0,91,90,0.0,127.0
234,73.0,91,90,0.0,127.0
235,77.0,92,547,0.0,127.0
236,68.0,92,90,0.0,127.0
237,69.0,0,90,0.0,127.0
238,73.0,124,90,0.0,127.0
239,78.0,91,90,0.0,127.0
240,54.0,0,361,0.0,127.0
241,61.0,91,361,0.0,127.0
242,49.0,0,361,0.0,127.0
243,73.0,92,90,0.0,127.0
244,74.0,91,90,0.0,127.0
245,71.0,91,90,0.0,127.0
246,73.0,92,90,0.0,127.0
247,68.0,91,90,0.0,127.0
248,69.0,0,90,0.0,127.0
249,65.0,107,90,0.0,127.0
250,61.0,0,266,0.0,127.0
251,66.0,92,90,0.0,127.0
252,49.0,92,361,0.0,127.0
253,54.0,0,361,0.0,127.0
254,61.0,91,90,0.0,127.0
255,62.0,91,90,0.0,127.0
256,59.0,92,90,0.0,127.0
257,61.0,91,90,0.0,127.0
258,56.0,97,90,0.0,127.0
259,57.0,88,119,0.0,127.0
260,53.0,106,90,0.0,127.0
261,54.0,91,90,0.0,127.0
262,47.0,91,90,0.0,127.0
263,49.0,92,90,0.0,127.0
264,44.0,91,90,0.0,127.0
265,45.0,92,100,0.0,127.0
266,42.0,106,100,0.0,127.0
267,66.0,149,115,0.0,127.0
268,69.0,104,95,0.0,127.0
269,36.0,120,380,0.0,127.0
270,65.0,96,95,0.0,127.0
271,61.0,96,95,0.0,127.0
272,63.0,96,95,0.0,127.0
273,66.0,96,380,0.0,127.0
274,56.0,96,95,0.0,127.0
275,57.0,96,190,0.0,127.0
276,61.0,120,95,0.0,127.0
277,66.0,96,95,0.0,127.0
278,59.0,96,95,0.0,127.0
279,37.0,0,480,0.0,127.0
280,61.0,96,95,0.0,127.0
281,56.0,96,95,0.0,127.0
282,57.0,96,95,0.0,127.0
283,53.0,96,95,0.0,127.0
284,57.0,96,95,0.0,127.0
285,61.0,96,95,0.0,127.0
286,54.0,96,380,0.0,127.0
287,56.0,96,95,0.0,127.0
288,57.0,96,95,0.0,127.0
289,53.0,96,95,0.0,127.0
290,54.0,96,190,0.0,127.0
291,48.0,96,95,0.0,127.0
292,54.0,96,95,0.0,127.0
293,57.0,96,95,0.0,127.0
294,49.0,96,380,0.0,127.0
295,53.0,96,95,0.0,127.0
296,54.0,96,95,0.0,127.0
297,47.0,96,95,0.0,127.0
298,49.0,96,190,0.0,127.0
299,44.0,96,95,0.0,127.0
300,49.0,128,95,0.0,127.0
301,45.0,96,280,0.0,127.0
302,54.0,98,108,0.0,127.0
303,54.0,106,95,0.0,127.0
304,49.0,100,280,0.0,127.0
305,57.0,96,95,0.0,127.0
306,57.0,96,120,0.0,127.0
307,54.0,96,280,0.0,127.0
308,61.0,96,120,0.0,127.0
309,61.0,96,95,0.0,127.0
310,57.0,96,280,0.0,127.0
311,66.0,100,170,0.0,127.0
312,66.0,104,120,0.0,127.0
313,56.0,96,320,0.0,127.0
314,65.0,108,160,0.0,127.0
315,37.0,4,380,0.0,127.0
316,59.0,108,120,0.0,127.0
317,61.0,176,95,0.0,127.0
318,66.0,96,95,0.0,127.0
319,61.0,96,95,0.0,127.0
320,58.0,0,480,0.0,127.0
321,58.0,112,95,0.0,127.0
322,59.0,96,95,0.0,127.0
323,53.0,96,95,0.0,127.0
324,62.0,96,480,0.0,127.0
325,59.0,128,95,0.0,127.0
326,62.0,96,95,0.0,127.0
327,59.0,96,95,0.0,127.0
328,54.0,96,480,0.0,127.0
329,56.0,112,95,0.0,127.0
330,58.0,96,95,0.0,127.0
331,53.0,96,95,0.0,127.0
332,61.0,96,480,0.0,127.0
333,58.0,112,90,0.0,127.0
334,54.0,96,320,0.0,127.0
335,61.0,96,190,0.0,127.0
336,56.0,96,95,0.0,127.0
337,58.0,96,170,0.0,127.0
338,54.0,96,95,0.0,127.0
339,42.0,120,2300,0.0,127.0
340,56.0,96,116,0.0,127.0
341,53.0,122,132,0.0,127.0
342,54.0,140,767,0.0,127.0
343,73.0,922,95,0.0,127.0
344,78.0,96,105,0.0,127.0
345,81.0,112,47,0.0,127.0
346,80.0,48,47,0.0,127.0
347,78.0,48,105,0.0,127.0
348,80.0,112,47,0.0,127.0
349,77.0,48,47,0.0,127.0
350,78.0,48,105,0.0,127.0
351,76.0,112,47,0.0,127.0
352,74.0,48,47,0.0,127.0
353,73.0,48,47,0.0,127.0
354,71.0,48,47,0.0,127.0
355,69.0,48,47,0.0,127.0
356,68.0,48,47,0.0,127.0
357,66.0,48,47,0.0,127.0
358,69.0,48,47,0.0,127.0
359,68.0,48,47,0.0,127.0
360,66.0,48,47,0.0,127.0
361,64.0,48,47,0.0,127.0
362,63.0,48,47,0.0,127.0
363,64.0,48,47,0.0,127.0
364,61.0,48,47,0.0,127.0
365,66.0,384,383,0.0,127.0
366,66.0,384,360,0.0,127.0
367,56.0,48,1150,0.0,127.0
368,60.0,0,1150,0.0,127.0
369,44.0,0,1150,0.0,127.0
370,51.0,0,1150,0.0,127.0
371,61.0,384,383,0.0,127.0
372,66.0,0,383,0.0,127.0
373,56.0,0,383,0.0,127.0
374,61.0,0,383,0.0,127.0
375,65.0,384,383,0.0,127.0
376,64.0,0,191,0.0,127.0
377,67.0,192,95,0.0,127.0
378,66.0,96,89,0.0,127.0
379,61.0,384,380,0.0,127.0
380,49.0,0,1150,0.0,127.0
381,61.0,96,383,0.0,127.0
382,66.0,0,740,0.0,127.0
383,60.0,384,383,0.0,127.0
384,51.0,0,767,0.0,127.0
385,53.0,0,383,0.0,127.0
386,59.0,0,383,0.0,127.0
387,68.0,384,730,0.0,127.0
388,58.0,384,383,0.0,127.0
389,54.0,0,480,0.0,127.0
390,52.0,100,95,0.0,127.0
391,50.0,96,53,0.0,127.0
392,49.0,54,61,0.0,127.0
393,50.0,54,53,0.0,127.0
394,66.0,0,416,0.0,127.0
395,59.0,384,416,0.0,127.0
396,47.0,60,53,0.0,127.0
397,46.0,32,383,0.0,127.0
398,64.0,0,383,0.0,127.0
399,63.0,0,370,0.0,127.0
400,61.0,0,767,0.0,127.0
401,47.0,396,383,0.0,127.0
402,66.0,0,191,0.0,127.0
403,59.0,0,380,0.0,127.0
404,49.0,384,380,0.0,127.0
405,65.0,192,191,0.0,127.0
406,66.0,192,370,0.0,127.0
407,57.0,0,383,0.0,127.0
408,50.0,0,383,0.0,127.0
409,69.0,96,95,0.0,127.0
410,68.0,96,95,0.0,127.0
411,47.0,0,380,0.0,127.0
412,71.0,96,95,0.0,127.0
413,59.0,0,383,0.0,127.0
414,65.0,0,575,0.0,127.0
415,59.0,384,380,0.0,127.0
416,56.0,384,1150,0.0,127.0
417,66.0,192,191,0.0,127.0
418,49.0,96,767,0.0,127.0
419,66.0,0,340,0.0,127.0
420,54.0,0,360,0.0,127.0
421,42.0,0,383,0.0,127.0
422,59.0,192,383,0.0,127.0
423,54.0,0,191,0.0,127.0
424,66.0,0,380,0.0,127.0
425,58.0,384,380,0.0,127.0
426,52.0,192,191,0.0,127.0
427,51.0,192,191,0.0,127.0
428,52.0,192,95,0.0,127.0
429,66.0,0,380,0.0,127.0
430,57.0,0,380,0.0,127.0
431,49.0,96,95,0.0,127.0
432,66.0,96,383,0.0,127.0
433,48.0,0,383,0.0,127.0
434,49.0,0,191,0.0,127.0
435,56.0,0,575,0.0,127.0
436,65.0,0,380,0.0,127.0
437,73.0,384,380,0.0,127.0
438,68.0,0,191,0.0,127.0
439,47.0,192,191,0.0,127.0
440,46.0,0,95,0.0,127.0
441,49.0,96,53,0.0,127.0
442,67.0,192,190,0.0,127.0
443,47.0,54,53,0.0,127.0
444,46.0,12,95,0.0,127.0
445,47.0,96,53,0.0,127.0
446,73.0,0,380,0.0,127.0
447,68.0,42,190,0.0,127.0
448,44.0,54,53,0.0,127.0
449,64.0,0,575,0.0,127.0
450,43.0,54,380,0.0,127.0
451,73.0,0,380,0.0,127.0
452,72.0,192,191,0.0,127.0
453,70.0,0,575,0.0,127.0
454,68.0,0,95,0.0,127.0
455,44.0,0,380,0.0,127.0
456,63.0,192,575,0.0,127.0
457,66.0,96,95,0.0,127.0
458,71.0,192,380,0.0,127.0
459,64.0,0,190,0.0,127.0
460,63.0,96,95,0.0,127.0
461,64.0,0,95,0.0,127.0
462,49.0,96,380,0.0,127.0
463,70.0,96,190,0.0,127.0
464,61.0,96,95,0.0,127.0
465,55.0,0,191,0.0,127.0
466,71.0,0,280,0.0,127.0
467,63.0,0,380,0.0,127.0
468,73.0,96,95,0.0,127.0
469,56.0,192,380,0.0,127.0
470,61.0,0,380,0.0,127.0
471,55.0,192,191,0.0,127.0
472,70.0,96,575,0.0,127.0
473,55.0,0,280,0.0,127.0
474,61.0,192,380,0.0,127.0
475,51.0,96,1150,0.0,127.0
476,68.0,192,190,0.0,127.0
477,56.0,96,95,0.0,127.0
478,44.0,0,383,0.0,127.0
479,68.0,96,383,0.0,127.0
480,61.0,0,383,0.0,127.0
481,56.0,0,767,0.0,127.0
482,59.0,0,383,0.0,127.0
483,76.0,408,383,0.0,127.0
484,76.0,384,383,0.0,127.0
485,61.0,0,383,0.0,127.0
486,58.0,0,383,0.0,127.0
487,66.0,384,383,0.0,127.0
488,76.0,0,383,0.0,127.0
489,71.0,384,383,0.0,127.0
490,75.0,0,383,0.0,127.0
491,59.0,0,767,0.0,127.0
492,74.0,384,191,0.0,127.0
493,77.0,192,95,0.0,127.0
494,71.0,0,380,0.0,127.0
495,59.0,0,380,0.0,127.0
496,76.0,96,95,0.0,127.0
497,71.0,0,383,0.0,127.0
498,61.0,0,730,0.0,127.0
499,76.0,96,750,0.0,127.0
500,70.0,384,383,0.0,127.0
501,69.0,0,383,0.0,127.0
502,63.0,0,383,0.0,127.0
503,78.0,384,383,0.0,127.0
504,71.0,384,383,0.0,127.0
505,69.0,0,383,0.0,127.0
506,68.0,0,191,0.0,127.0
507,76.0,384,380,0.0,127.0
508,66.0,192,191,0.0,127.0
509,74.0,192,95,0.0,127.0
510,77.0,96,95,0.0,127.0
511,76.0,96,95,0.0,127.0
512,77.0,96,53,0.0,127.0
513,68.0,0,380,0.0,127.0
514,64.0,0,1150,0.0,127.0
515,74.0,56,53,0.0,127.0
516,74.0,56,191,0.0,127.0
517,57.0,0,380,0.0,127.0
518,69.0,0,380,0.0,127.0
519,73.0,192,191,0.0,127.0
520,73.0,0,191,0.0,127.0
521,75.0,192,95,0.0,127.0
522,69.0,192,380,0.0,127.0
523,78.0,0,380,0.0,127.0
524,76.0,96,95,0.0,127.0
525,75.0,0,191,0.0,127.0
526,76.0,192,95,0.0,127.0
527,78.0,0,380,0.0,127.0
528,66.0,96,380,0.0,127.0
529,73.0,96,95,0.0,127.0
530,78.0,96,191,0.0,127.0
531,68.0,0,380,0.0,127.0
532,72.0,0,380,0.0,127.0
533,77.0,192,191,0.0,127.0
534,61.0,192,380,0.0,127.0
535,76.0,192,380,0.0,127.0
536,81.0,192,95,0.0,127.0
537,66.0,192,380,0.0,127.0
538,75.0,96,95,0.0,127.0
539,73.0,0,767,0.0,127.0
540,76.0,0,143,0.0,127.0
541,80.0,144,53,0.0,127.0
542,78.0,53,53,0.0,127.0
543,76.0,53,53,0.0,127.0
544,78.0,53,53,0.0,127.0
545,68.0,0,380,0.0,127.0
546,80.0,53,53,0.0,127.0
547,73.0,96,767,0.0,127.0
548,66.0,60,383,0.0,127.0
549,75.0,0,575,0.0,127.0
550,72.0,0,380,0.0,127.0
551,66.0,384,380,0.0,127.0
552,73.0,192,191,0.0,127.0
553,66.0,0,191,0.0,127.0
554,65.0,192,191,0.0,127.0
555,73.0,192,575,0.0,127.0
556,75.0,0,380,0.0,127.0
557,59.0,192,380,0.0,127.0
558,66.0,0,380,0.0,127.0
559,71.0,192,191,0.0,127.0
560,74.0,0,191,0.0,127.0
561,77.0,0,380,0.0,127.0
562,59.0,0,380,0.0,127.0
563,68.0,192,380,0.0,127.0
564,73.0,192,191,0.0,127.0
565,59.0,0,383,0.0,127.0
566,61.0,0,575,0.0,127.0
567,62.0,192,191,0.0,127.0
568,78.0,192,767,0.0,127.0
569,73.0,0,1150,0.0,127.0
570,58.0,384,767,0.0,127.0
571,78.0,192,383,0.0,127.0
572,79.0,192,95,0.0,127.0
573,81.0,96,95,0.0,127.0
574,64.0,0,767,0.0,127.0
575,63.0,0,191,0.0,127.0
576,79.0,96,191,0.0,127.0
577,59.0,384,575,0.0,127.0
578,81.0,0,95,0.0,127.0
579,64.0,192,190,0.0,127.0
580,61.0,0,190,0.0,127.0
581,83.0,96,95,0.0,127.0
582,79.0,0,191,0.0,127.0
583,78.0,192,95,0.0,127.0
584,62.0,96,380,0.0,127.0
585,66.0,0,380,0.0,127.0
586,77.0,96,95,0.0,127.0
587,71.0,0,1530,0.0,127.0
588,68.0,0,383,0.0,127.0
589,56.0,96,383,0.0,127.0
590,77.0,0,383,0.0,127.0
591,66.0,0,191,0.0,127.0
592,57.0,0,380,0.0,127.0
593,64.0,192,191,0.0,127.0
594,73.0,384,480,0.0,127.0
595,71.0,96,95,0.0,127.0
596,69.0,96,95,0.0,127.0
597,59.0,192,380,0.0,127.0
598,62.0,0,380,0.0,127.0
599,68.0,96,95,0.0,127.0
600,69.0,0,191,0.0,127.0
601,71.0,192,95,0.0,127.0
602,78.0,0,1150,0.0,127.0
603,73.0,96,95,0.0,127.0
604,80.0,192,191,0.0,127.0
605,61.0,96,767,0.0,127.0
606,68.0,0,575,0.0,127.0
607,77.0,192,380,0.0,127.0
608,59.0,0,380,0.0,127.0
609,71.0,192,191,0.0,127.0
610,49.0,96,767,0.0,127.0
611,58.0,0,191,0.0,127.0
612,59.0,192,95,0.0,127.0
613,54.0,0,380,0.0,127.0
614,61.0,96,95,0.0,127.0
615,59.0,0,191,0.0,127.0
616,62.0,192,95,0.0,127.0
617,56.0,96,380,0.0,127.0
618,61.0,96,95,0.0,127.0
619,58.0,0,380,0.0,127.0
620,61.0,96,480,0.0,127.0
621,76.0,192,1530,0.0,127.0
622,66.0,0,1530,0.0,127.0
623,59.0,384,383,0.0,127.0
624,74.0,0,191,0.0,127.0
625,59.0,0,191,0.0,127.0
626,76.0,0,95,0.0,127.0
627,57.0,192,190,0.0,127.0
628,73.0,96,95,0.0,127.0
629,55.0,0,190,0.0,127.0
630,71.0,0,191,0.0,127.0
631,73.0,192,95,0.0,127.0
632,54.0,0,190,0.0,127.0
633,69.0,96,95,0.0,127.0
634,47.0,384,767,0.0,127.0
635,74.0,96,767,0.0,127.0
636,53.0,96,540,0.0,127.0
637,68.0,0,575,0.0,127.0
638,73.0,384,191,0.0,127.0
639,49.0,0,575,0.0,127.0
640,78.0,0,95,0.0,127.0
641,56.0,0,190,0.0,127.0
642,49.0,0,190,0.0,127.0
643,71.0,192,190,0.0,127.0
644,77.0,96,95,0.0,127.0
645,78.0,96,287,0.0,127.0
646,54.0,0,380,0.0,127.0
647,50.0,0,380,0.0,127.0
648,69.0,0,380,0.0,127.0
649,76.0,288,95,0.0,127.0
650,74.0,96,95,0.0,127.0
651,73.0,96,95,0.0,127.0
652,71.0,96,95,0.0,127.0
653,69.0,96,47,0.0,127.0
654,47.0,0,380,0.0,127.0
655,62.0,0,190,0.0,127.0
656,68.0,48,47,0.0,127.0
657,54.0,0,380,0.0,127.0
658,69.0,0,220,0.0,127.0
659,61.0,0,380,0.0,127.0
660,56.0,192,190,0.0,127.0
661,71.0,96,95,0.0,127.0
662,68.0,0,191,0.0,127.0
663,66.0,192,95,0.0,127.0
664,59.0,0,380,0.0,127.0
665,53.0,96,380,0.0,127.0
666,49.0,48,767,0.0,127.0
667,68.0,96,95,0.0,127.0
668,42.0,96,383,0.0,127.0
669,54.0,0,383,0.0,127.0
670,58.0,0,383,0.0,127.0
671,66.0,0,680,0.0,127.0
672,78.0,696,51,0.0,127.0
673,79.0,52,51,0.0,127.0
674,78.0,52,54,0.0,127.0
675,76.0,52,51,0.0,127.0
676,74.0,52,95,0.0,127.0
677,76.0,96,47,0.0,127.0
678,73.0,52,47,0.0,127.0
679,66.0,0,190,0.0,127.0
680,74.0,0,239,0.0,127.0
681,76.0,96,47,0.0,127.0
682,69.0,0,380,0.0,127.0
683,64.0,192,190,0.0,127.0
684,78.0,48,47,0.0,127.0
685,72.0,48,575,0.0,127.0
686,63.0,0,640,0.0,127.0
687,68.0,0,640,0.0,127.0
688,73.0,616,47,0.0,127.0
689,75.0,54,47,0.0,127.0
690,73.0,52,63,0.0,127.0
691,54.0,52,1180,0.0,127.0
692,75.0,55,41,0.0,127.0
693,72.0,41,41,0.0,127.0
694,53.0,38,383,0.0,127.0
695,61.0,0,480,0.0,127.0
696,59.0,96,53,0.0,127.0
697,57.0,56,53,0.0,127.0
698,57.0,56,95,0.0,127.0
699,56.0,96,47,0.0,127.0
700,52.0,384,380,0.0,127.0
701,54.0,48,47,0.0,127.0
702,54.0,48,191,0.0,127.0
703,69.0,0,280,0.0,127.0
704,56.0,192,95,0.0,127.0
705,68.0,96,63,0.0,127.0
706,73.0,0,1172,0.0,127.0
707,57.0,0,111,0.0,127.0
708,51.0,0,401,0.0,127.0
709,69.0,57,59,0.0,127.0
710,56.0,0,190,0.0,127.0
711,65.0,96,190,0.0,127.0
712,57.0,96,95,0.0,127.0
713,54.0,96,95,0.0,127.0
714,66.0,0,111,0.0,127.0
715,50.0,0,400,0.0,127.0
716,71.0,55,400,0.0,127.0
717,66.0,0,244,0.0,127.0
718,49.0,0,999,0.0,127.0
719,56.0,114,999,0.0,127.0
720,73.0,0,1050,0.0,127.0
721,65.0,284,780,0.0,127.0
722,73.0,1418,191,0.0,127.0
723,74.0,192,191,0.0,127.0
724,73.0,192,191,0.0,127.0
725,71.0,192,191,0.0,127.0
726,69.0,192,191,0.0,127.0
727,68.0,192,191,0.0,127.0
728,66.0,192,191,0.0,127.0
729,65.0,192,191,0.0,127.0
730,63.0,192,191,0.0,127.0
731,61.0,192,191,0.0,127.0
732,69.0,192,191,0.0,127.0
733,69.0,192,48,0.0,127.0
734,68.0,48,48,0.0,127.0
735,69.0,48,48,0.0,127.0
736,68.0,48,240,0.0,127.0
737,66.0,240,191,0.0,127.0
738,66.0,192,95,0.0,127.0
739,68.0,96,95,0.0,127.0
740,69.0,96,95,0.0,127.0
741,68.0,96,95,0.0,127.0
742,69.0,96,95,0.0,127.0
743,68.0,96,95,0.0,127.0
744,78.0,0,191,0.0,127.0
745,66.0,96,95,0.0,127.0
746,81.0,0,191,0.0,127.0
747,64.0,96,95,0.0,127.0
748,66.0,96,95,0.0,127.0
749,64.0,96,95,0.0,127.0
750,80.0,0,191,0.0,127.0
751,63.0,96,95,0.0,127.0
752,61.0,96,95,0.0,127.0
753,78.0,0,191,0.0,127.0
754,63.0,0,95,0.0,127.0
755,61.0,96,95,0.0,127.0
756,76.0,96,191,0.0,127.0
757,60.0,96,95,0.0,127.0
758,58.0,96,95,0.0,127.0
759,75.0,0,191,0.0,127.0
760,60.0,0,95,0.0,127.0
761,58.0,96,95,0.0,127.0
762,73.0,96,191,0.0,127.0
763,56.0,96,95,0.0,127.0
764,54.0,96,95,0.0,127.0
765,72.0,0,191,0.0,127.0
766,56.0,0,95,0.0,127.0
767,54.0,96,95,0.0,127.0
768,70.0,96,191,0.0,127.0
769,52.0,96,95,0.0,127.0
770,68.0,0,191,0.0,127.0
771,51.0,96,95,0.0,127.0
772,52.0,0,95,0.0,127.0
773,49.0,96,95,0.0,127.0
774,76.0,96,191,0.0,127.0
775,76.0,0,48,0.0,127.0
776,75.0,48,48,0.0,127.0
777,76.0,48,48,0.0,127.0
778,54.0,96,191,0.0,127.0
779,56.0,48,191,0.0,127.0
780,75.0,48,240,0.0,127.0
781,49.0,192,191,0.0,127.0
782,61.0,192,95,0.0,127.0
783,63.0,96,95,0.0,127.0
784,73.0,0,383,0.0,127.0
785,65.0,96,95,0.0,127.0
786,66.0,96,95,0.0,127.0
787,73.0,0,191,0.0,127.0
788,65.0,0,95,0.0,127.0
789,66.0,96,95,0.0,127.0
790,75.0,96,191,0.0,127.0
791,68.0,96,95,0.0,127.0
792,69.0,96,95,0.0,127.0
793,77.0,0,191,0.0,127.0
794,68.0,96,95,0.0,127.0
795,78.0,0,191,0.0,127.0
796,69.0,96,95,0.0,127.0
797,71.0,96,95,0.0,127.0
798,73.0,96,95,0.0,127.0
799,71.0,96,95,0.0,127.0
800,73.0,96,95,0.0,127.0
801,80.0,0,459,0.0,127.0
802,78.0,96,95,0.0,127.0
803,80.0,96,95,0.0,127.0
804,81.0,96,95,0.0,127.0
805,83.0,96,95,0.0,127.0
806,81.0,96,95,0.0,127.0
807,74.0,96,575,0.0,127.0
808,83.0,0,95,0.0,127.0
809,81.0,96,95,0.0,127.0
810,73.0,96,191,0.0,127.0
811,71.0,96,95,0.0,127.0
812,80.0,0,95,0.0,127.0
813,81.0,0,95,0.0,127.0
814,69.0,96,95,0.0,127.0
815,71.0,96,95,0.0,127.0
816,69.0,96,95,0.0,127.0
817,68.0,96,95,0.0,127.0
818,73.0,96,95,0.0,127.0
819,78.0,0,383,0.0,127.0
820,71.0,0,95,0.0,127.0
821,73.0,96,95,0.0,127.0
822,77.0,96,191,0.0,127.0
823,69.0,96,95,0.0,127.0
824,68.0,96,95,0.0,127.0
825,78.0,0,191,0.0,127.0
826,69.0,96,95,0.0,127.0
827,78.0,0,95,0.0,127.0
828,80.0,96,95,0.0,127.0
829,68.0,0,95,0.0,127.0
830,81.0,0,95,0.0,127.0
831,80.0,96,95,0.0,127.0
832,66.0,96,191,0.0,127.0
833,81.0,0,95,0.0,127.0
834,54.0,96,191,0.0,127.0
835,80.0,96,95,0.0,127.0
836,78.0,0,95,0.0,127.0
837,76.0,96,95,0.0,127.0
838,61.0,96,191,0.0,127.0
839,57.0,0,191,0.0,127.0
840,78.0,0,95,0.0,127.0
841,76.0,96,95,0.0,127.0
842,59.0,0,191,0.0,127.0
843,56.0,96,191,0.0,127.0
844,75.0,96,95,0.0,127.0
845,73.0,96,95,0.0,127.0
846,57.0,0,191,0.0,127.0
847,54.0,0,191,0.0,127.0
848,75.0,0,95,0.0,127.0
849,73.0,96,95,0.0,127.0
850,56.0,0,191,0.0,127.0
851,52.0,96,191,0.0,127.0
852,72.0,0,95,0.0,127.0
853,73.0,96,95,0.0,127.0
854,51.0,0,191,0.0,127.0
855,72.0,0,95,0.0,127.0
856,73.0,96,95,0.0,127.0
857,49.0,96,191,0.0,127.0
858,75.0,0,95,0.0,127.0
859,54.0,96,575,0.0,127.0
860,48.0,96,191,0.0,127.0
861,76.0,96,95,0.0,127.0
862,75.0,0,95,0.0,127.0
863,76.0,96,95,0.0,127.0
864,49.0,0,191,0.0,127.0
865,46.0,96,191,0.0,127.0
866,78.0,0,95,0.0,127.0
867,44.0,96,191,0.0,127.0
868,48.0,0,191,0.0,127.0
869,72.0,96,95,0.0,127.0
870,56.0,0,95,0.0,127.0
871,57.0,96,95,0.0,127.0
872,52.0,96,191,0.0,127.0
873,56.0,0,95,0.0,127.0
874,73.0,0,310,0.0,127.0
875,57.0,96,95,0.0,127.0
876,53.0,0,95,0.0,127.0
877,54.0,96,95,0.0,127.0
878,51.0,96,383,0.0,127.0
879,49.0,0,95,0.0,127.0
880,53.0,96,191,0.0,127.0
881,71.0,96,383,0.0,127.0
882,61.0,96,191,0.0,127.0
883,54.0,96,191,0.0,127.0
884,61.0,96,95,0.0,127.0
885,62.0,0,95,0.0,127.0
886,61.0,96,95,0.0,127.0
887,47.0,96,191,0.0,127.0
888,69.0,0,383,0.0,127.0
889,62.0,0,95,0.0,127.0
890,52.0,96,191,0.0,127.0
891,59.0,96,95,0.0,127.0
892,61.0,96,95,0.0,127.0
893,59.0,96,95,0.0,127.0
894,45.0,0,191,0.0,127.0
895,68.0,0,383,0.0,127.0
896,61.0,0,95,0.0,127.0
897,57.0,96,95,0.0,127.0
898,50.0,96,191,0.0,127.0
899,59.0,96,95,0.0,127.0
900,44.0,0,191,0.0,127.0
901,66.0,0,383,0.0,127.0
902,57.0,96,95,0.0,127.0
903,59.0,0,95,0.0,127.0
904,65.0,0,170,0.0,127.0
905,56.0,96,95,0.0,127.0
906,49.0,96,191,0.0,127.0
907,57.0,0,95,0.0,127.0
908,61.0,96,95,0.0,127.0
909,59.0,96,95,0.0,127.0
910,66.0,0,380,0.0,127.0
911,42.0,96,380,0.0,127.0
912,61.0,96,95,0.0,127.0
913,69.0,0,95,0.0,127.0
914,54.0,96,95,0.0,127.0
915,68.0,0,95,0.0,127.0
916,52.0,96,95,0.0,127.0
917,54.0,96,95,0.0,127.0
918,69.0,0,95,0.0,127.0
919,62.0,96,479,0.0,127.0
920,63.0,96,95,0.0,127.0
921,61.0,96,95,0.0,127.0
922,56.0,96,380,0.0,127.0
923,63.0,96,95,0.0,127.0
924,71.0,0,420,0.0,127.0
925,56.0,96,95,0.0,127.0
926,71.0,0,95,0.0,127.0
927,69.0,0,95,0.0,127.0
928,54.0,96,95,0.0,127.0
929,71.0,0,95,0.0,127.0
930,56.0,96,95,0.0,127.0
931,64.0,96,479,0.0,127.0
932,65.0,96,95,0.0,127.0
933,63.0,96,95,0.0,127.0
934,57.0,96,380,0.0,127.0
935,65.0,96,95,0.0,127.0
936,73.0,0,440,0.0,127.0
937,73.0,0,95,0.0,127.0
938,57.0,96,95,0.0,127.0
939,71.0,0,95,0.0,127.0
940,56.0,96,95,0.0,127.0
941,58.0,96,95,0.0,127.0
942,73.0,0,95,0.0,127.0
943,66.0,96,479,0.0,127.0
944,66.0,96,95,0.0,127.0
945,65.0,96,95,0.0,127.0
946,59.0,96,380,0.0,127.0
947,66.0,96,95,0.0,127.0
948,74.0,0,560,0.0,127.0
949,68.0,96,191,0.0,127.0
950,59.0,96,95,0.0,127.0
951,57.0,0,95,0.0,127.0
952,59.0,96,95,0.0,127.0
953,66.0,0,191,0.0,127.0
954,74.0,96,287,0.0,127.0
955,73.0,96,95,0.0,127.0
956,61.0,96,191,0.0,127.0
957,71.0,0,95,0.0,127.0
958,65.0,0,383,0.0,127.0
959,73.0,96,95,0.0,127.0
960,49.0,96,191,0.0,127.0
961,50.0,96,95,0.0,127.0
962,49.0,96,95,0.0,127.0
963,69.0,0,191,0.0,127.0
964,66.0,0,191,0.0,127.0
965,50.0,96,95,0.0,127.0
966,70.0,0,191,0.0,127.0
967,49.0,96,95,0.0,127.0
968,73.0,0,191,0.0,127.0
969,47.0,96,95,0.0,127.0
970,45.0,96,95,0.0,127.0
971,74.0,0,191,0.0,127.0
972,71.0,0,191,0.0,127.0
973,47.0,96,95,0.0,127.0
974,66.0,0,191,0.0,127.0
975,73.0,0,191,0.0,127.0
976,45.0,96,95,0.0,127.0
977,44.0,96,95,0.0,127.0
978,42.0,96,95,0.0,127.0
979,71.0,0,191,0.0,127.0
980,65.0,0,191,0.0,127.0
981,44.0,96,95,0.0,127.0
982,61.0,0,191,0.0,127.0
983,69.0,0,191,0.0,127.0
984,42.0,96,95,0.0,127.0
985,41.0,96,95,0.0,127.0
986,42.0,96,95,0.0,127.0
987,68.0,0,191,0.0,127.0
988,59.0,0,191,0.0,127.0
989,41.0,96,95,0.0,127.0
990,57.0,0,191,0.0,127.0
991,66.0,0,191,0.0,127.0
992,42.0,96,95,0.0,127.0
993,44.0,96,95,0.0,127.0
994,45.0,96,95,0.0,127.0
995,65.0,0,191,0.0,127.0
996,56.0,0,191,0.0,127.0
997,44.0,96,95,0.0,127.0
998,54.0,0,191,0.0,127.0
999,63.0,0,191,0.0,127.0
1000,45.0,96,95,0.0,127.0
1001,47.0,96,95,0.0,127.0
1002,49.0,96,95,0.0,127.0
1003,61.0,0,191,0.0,127.0
1004,53.0,0,191,0.0,127.0
1005,45.0,96,95,0.0,127.0
1006,69.0,0,191,0.0,127.0
1007,47.0,96,95,0.0,127.0
1008,69.0,0,64,0.0,127.0
1009,54.0,0,287,0.0,127.0
1010,68.0,72,64,0.0,127.0
1011,53.0,24,95,0.0,127.0
1012,69.0,40,64,0.0,127.0
1013,51.0,56,95,0.0,127.0
1014,49.0,96,383,0.0,127.0
1015,53.0,88,95,0.0,127.0
1016,68.0,8,183,0.0,127.0
1017,66.0,0,190,0.0,127.0
1018,54.0,0,191,0.0,127.0
1019,50.0,96,191,0.0,127.0
1020,66.0,0,191,0.0,127.0
1021,69.0,96,120,0.0,127.0
1022,50.0,192,383,0.0,127.0
1023,68.0,96,191,0.0,127.0
1024,71.0,96,120,0.0,127.0
1025,73.0,96,95,0.0,127.0
1026,70.0,0,191,0.0,127.0
1027,49.0,96,191,0.0,127.0
1028,71.0,0,190,0.0,127.0
1029,74.0,0,191,0.0,127.0
1030,47.0,96,191,0.0,127.0
1031,59.0,192,191,0.0,127.0
1032,62.0,96,120,0.0,127.0
1033,61.0,96,191,0.0,127.0
1034,71.0,0,383,0.0,127.0
1035,64.0,96,120,0.0,127.0
1036,66.0,96,95,0.0,127.0
1037,69.0,0,191,0.0,127.0
1038,63.0,96,191,0.0,127.0
1039,69.0,0,95,0.0,127.0
1040,68.0,96,90,0.0,127.0
1041,64.0,96,191,0.0,127.0
1042,68.0,0,191,0.0,127.0
1043,71.0,96,120,0.0,127.0
1044,69.0,96,191,0.0,127.0
1045,52.0,96,383,0.0,127.0
1046,73.0,96,120,0.0,127.0
1047,50.0,96,191,0.0,127.0
1048,71.0,0,191,0.0,127.0
1049,74.0,96,95,0.0,127.0
1050,73.0,0,190,0.0,127.0
1051,76.0,0,191,0.0,127.0
1052,49.0,96,191,0.0,127.0
1053,61.0,192,191,0.0,127.0
1054,64.0,96,120,0.0,127.0
1055,73.0,0,383,0.0,127.0
1056,63.0,96,191,0.0,127.0
1057,66.0,96,120,0.0,127.0
1058,68.0,96,95,0.0,127.0
1059,71.0,0,191,0.0,127.0
1060,65.0,96,191,0.0,127.0
1061,71.0,0,95,0.0,127.0
1062,69.0,96,90,0.0,127.0
1063,66.0,96,191,0.0,127.0
1064,69.0,96,191,0.0,127.0
1065,73.0,96,120,0.0,127.0
1066,71.0,96,191,0.0,127.0
1067,54.0,0,383,0.0,127.0
1068,74.0,96,120,0.0,127.0
1069,73.0,0,191,0.0,127.0
1070,52.0,96,191,0.0,127.0
1071,76.0,96,120,0.0,127.0
1072,50.0,96,191,0.0,127.0
1073,74.0,0,191,0.0,127.0
1074,78.0,96,190,0.0,127.0
1075,69.0,0,191,0.0,127.0
1076,78.0,96,120,0.0,127.0
1077,71.0,96,191,0.0,127.0
1078,62.0,96,383,0.0,127.0
1079,80.0,96,120,0.0,127.0
1080,61.0,96,191,0.0,127.0
1081,73.0,0,191,0.0,127.0
1082,74.0,0,190,0.0,127.0
1083,59.0,96,191,0.0,127.0
1084,82.0,96,287,0.0,127.0
1085,71.0,192,191,0.0,127.0
1086,74.0,96,120,0.0,127.0
1087,73.0,96,191,0.0,127.0
1088,83.0,0,383,0.0,127.0
1089,76.0,96,120,0.0,127.0
1090,78.0,96,95,0.0,127.0
1091,81.0,96,191,0.0,127.0
1092,75.0,0,191,0.0,127.0
1093,76.0,96,190,0.0,127.0
1094,74.0,96,95,0.0,127.0
1095,80.0,0,383,0.0,127.0
1096,69.0,96,95,0.0,127.0
1097,78.0,96,95,0.0,127.0
1098,62.0,0,190,0.0,127.0
1099,76.0,96,95,0.0,127.0
1100,73.0,96,383,0.0,127.0
1101,78.0,0,95,0.0,127.0
1102,74.0,0,95,0.0,127.0
1103,68.0,96,95,0.0,127.0
1104,76.0,0,95,0.0,127.0
1105,61.0,96,190,0.0,127.0
1106,74.0,96,95,0.0,127.0
1107,71.0,96,383,0.0,127.0
1108,76.0,0,95,0.0,127.0
1109,73.0,0,95,0.0,127.0
1110,66.0,96,95,0.0,127.0
1111,74.0,0,95,0.0,127.0
1112,59.0,96,190,0.0,127.0
1113,69.0,96,383,0.0,127.0
1114,73.0,96,95,0.0,127.0
1115,74.0,0,95,0.0,127.0
1116,76.0,0,95,0.0,127.0
1117,64.0,96,95,0.0,127.0
1118,68.0,96,191,0.0,127.0
1119,69.0,0,95,0.0,127.0
1120,68.0,96,95,0.0,127.0
1121,66.0,96,191,0.0,127.0
1122,69.0,96,95,0.0,127.0
1123,73.0,0,287,0.0,127.0
1124,73.0,0,95,0.0,127.0
1125,64.0,0,191,0.0,127.0
1126,78.0,0,95,0.0,127.0
1127,76.0,96,95,0.0,127.0
1128,63.0,96,191,0.0,127.0
1129,68.0,96,287,0.0,127.0
1130,78.0,96,95,0.0,127.0
1131,76.0,96,95,0.0,127.0
1132,69.0,0,191,0.0,127.0
1133,61.0,0,191,0.0,127.0
1134,74.0,0,95,0.0,127.0
1135,73.0,96,95,0.0,127.0
1136,68.0,0,191,0.0,127.0
1137,59.0,96,191,0.0,127.0
1138,74.0,96,95,0.0,127.0
1139,73.0,96,95,0.0,127.0
1140,69.0,0,191,0.0,127.0
1141,57.0,0,191,0.0,127.0
1142,71.0,0,95,0.0,127.0
1143,69.0,96,95,0.0,127.0
1144,64.0,0,191,0.0,127.0
1145,56.0,96,191,0.0,127.0
1146,71.0,96,95,0.0,127.0
1147,69.0,96,95,0.0,127.0
1148,54.0,0,191,0.0,127.0
1149,68.0,0,95,0.0,127.0
1150,62.0,0,287,0.0,127.0
1151,74.0,0,95,0.0,127.0
1152,56.0,96,95,0.0,127.0
1153,52.0,96,191,0.0,127.0
1154,73.0,96,95,0.0,127.0
1155,71.0,96,95,0.0,127.0
1156,54.0,0,191,0.0,127.0
1157,73.0,0,48,0.0,127.0
1158,71.0,48,48,0.0,127.0
1159,73.0,48,48,0.0,127.0
1160,50.0,96,191,0.0,127.0
1161,71.0,48,140,0.0,127.0
1162,57.0,0,479,0.0,127.0
1163,69.0,0,95,0.0,127.0
1164,56.0,96,95,0.0,127.0
1165,52.0,48,191,0.0,127.0
1166,57.0,0,95,0.0,127.0
1167,73.0,96,95,0.0,127.0
1168,71.0,96,95,0.0,127.0
1169,45.0,96,380,0.0,127.0
1170,73.0,96,95,0.0,127.0
1171,69.0,0,479,0.0,127.0
1172,78.0,0,95,0.0,127.0
1173,51.0,96,95,0.0,127.0
1174,76.0,0,95,0.0,127.0
1175,49.0,96,95,0.0,127.0
1176,78.0,0,95,0.0,127.0
1177,51.0,96,95,0.0,127.0
1178,66.0,96,479,0.0,127.0
1179,68.0,96,95,0.0,127.0
1180,66.0,96,95,0.0,127.0
1181,44.0,0,380,0.0,127.0
1182,68.0,96,95,0.0,127.0
1183,72.0,96,479,0.0,127.0
1184,73.0,0,95,0.0,127.0
1185,45.0,96,95,0.0,127.0
1186,71.0,96,95,0.0,127.0
1187,44.0,0,95,0.0,127.0
1188,73.0,0,95,0.0,127.0
1189,45.0,96,95,0.0,127.0
1190,61.0,96,479,0.0,127.0
1191,66.0,96,95,0.0,127.0
1192,64.0,96,95,0.0,127.0
1193,42.0,96,380,0.0,127.0
1194,66.0,96,95,0.0,127.0
1195,69.0,0,479,0.0,127.0
1196,71.0,0,95,0.0,127.0
1197,44.0,96,95,0.0,127.0
1198,69.0,0,95,0.0,127.0
1199,42.0,96,95,0.0,127.0
1200,71.0,0,95,0.0,127.0
1201,44.0,96,95,0.0,127.0
1202,63.0,96,479,0.0,127.0
1203,64.0,96,95,0.0,127.0
1204,63.0,96,95,0.0,127.0
1205,40.0,0,380,0.0,127.0
1206,64.0,96,95,0.0,127.0
1207,68.0,96,479,0.0,127.0
1208,73.0,0,95,0.0,127.0
1209,45.0,96,95,0.0,127.0
1210,71.0,96,95,0.0,127.0
1211,44.0,0,95,0.0,127.0
1212,73.0,0,95,0.0,127.0
1213,45.0,96,95,0.0,127.0
1214,61.0,96,479,0.0,127.0
1215,63.0,96,95,0.0,127.0
1216,61.0,96,95,0.0,127.0
1217,39.0,96,380,0.0,127.0
1218,63.0,96,95,0.0,127.0
1219,66.0,0,479,0.0,127.0
1220,63.0,0,95,0.0,127.0
1221,44.0,96,95,0.0,127.0
1222,68.0,0,95,0.0,127.0
1223,42.0,96,95,0.0,127.0
1224,44.0,96,95,0.0,127.0
1225,60.0,96,383,0.0,127.0
1226,63.0,0,95,0.0,127.0
1227,37.0,0,95,0.0,127.0
1228,56.0,96,95,0.0,127.0
1229,64.0,96,191,0.0,127.0
1230,54.0,96,95,0.0,127.0
1231,56.0,96,95,0.0,127.0
1232,76.0,0,191,0.0,127.0
1233,57.0,96,95,0.0,127.0
1234,61.0,0,575,0.0,127.0
1235,56.0,96,95,0.0,127.0
1236,78.0,0,191,0.0,127.0
1237,57.0,96,95,0.0,127.0
1238,56.0,96,95,0.0,127.0
1239,80.0,0,191,0.0,127.0
1240,76.0,0,191,0.0,127.0
1241,54.0,96,95,0.0,127.0
1242,75.0,0,191,0.0,127.0
1243,52.0,96,95,0.0,127.0
1244,81.0,0,191,0.0,127.0
1245,54.0,96,95,0.0,127.0
1246,52.0,96,95,0.0,127.0
1247,80.0,0,191,0.0,127.0
1248,76.0,0,191,0.0,127.0
1249,51.0,96,95,0.0,127.0
1250,78.0,0,191,0.0,127.0
1251,72.0,0,191,0.0,127.0
1252,49.0,96,95,0.0,127.0
1253,51.0,96,95,0.0,127.0
1254,49.0,96,95,0.0,127.0
1255,76.0,0,191,0.0,127.0
1256,68.0,0,191,0.0,127.0
1257,48.0,96,95,0.0,127.0
1258,66.0,0,191,0.0,127.0
1259,75.0,0,191,0.0,127.0
1260,49.0,96,95,0.0,127.0
1261,48.0,96,95,0.0,127.0
1262,49.0,96,95,0.0,127.0
1263,73.0,0,191,0.0,127.0
1264,64.0,0,191,0.0,127.0
1265,51.0,96,95,0.0,127.0
1266,63.0,0,191,0.0,127.0
1267,72.0,0,191,0.0,127.0
1268,52.0,96,95,0.0,127.0
1269,51.0,96,95,0.0,127.0
1270,52.0,96,95,0.0,127.0
1271,70.0,0,191,0.0,127.0
1272,61.0,0,191,0.0,127.0
1273,54.0,96,95,0.0,127.0
1274,60.0,0,191,0.0,127.0
1275,68.0,0,191,0.0,127.0
1276,56.0,96,95,0.0,127.0
1277,52.0,96,95,0.0,127.0
1278,54.0,96,95,0.0,127.0
1279,76.0,0,191,0.0,127.0
1280,76.0,0,64,0.0,127.0
1281,61.0,0,287,0.0,127.0
1282,75.0,72,64,0.0,127.0
1283,60.0,24,95,0.0,127.0
1284,76.0,40,64,0.0,127.0
1285,58.0,56,95,0.0,127.0
1286,75.0,8,140,0.0,127.0
1287,60.0,88,95,0.0,127.0
1288,56.0,96,383,0.0,127.0
1289,68.0,96,95,0.0,127.0
1290,66.0,96,95,0.0,127.0
1291,49.0,96,380,0.0,127.0
1292,61.0,0,380,0.0,127.0
1293,68.0,96,95,0.0,127.0
1294,69.0,96,104,0.0,127.0
1295,68.0,0,95,0.0,127.0
1296,61.0,96,95,0.0,127.0
1297,59.0,96,95,0.0,127.0
1298,69.0,0,105,0.0,127.0
1299,61.0,96,95,0.0,127.0
1300,68.0,0,95,0.0,127.0
1301,62.0,96,95,0.0,127.0
1302,66.0,0,190,0.0,127.0
1303,78.0,0,95,0.0,127.0
1304,61.0,96,95,0.0,127.0
1305,77.0,0,95,0.0,127.0
1306,62.0,96,95,0.0,127.0
1307,61.0,96,95,0.0,127.0
1308,78.0,0,95,0.0,127.0
1309,79.0,0,95,0.0,127.0
1310,59.0,96,95,0.0,127.0
1311,78.0,0,95,0.0,127.0
1312,59.0,96,95,0.0,127.0
1313,79.0,0,95,0.0,127.0
1314,57.0,96,95,0.0,127.0
1315,59.0,0,95,0.0,127.0
1316,78.0,96,95,0.0,127.0
1317,61.0,96,95,0.0,127.0
1318,76.0,0,190,0.0,127.0
1319,68.0,0,95,0.0,127.0
1320,59.0,96,95,0.0,127.0
1321,66.0,0,95,0.0,127.0
1322,61.0,96,95,0.0,127.0
1323,75.0,0,95,0.0,127.0
1324,76.0,0,95,0.0,127.0
1325,68.0,96,95,0.0,127.0
1326,59.0,0,95,0.0,127.0
1327,78.0,0,95,0.0,127.0
1328,69.0,0,95,0.0,127.0
1329,57.0,96,95,0.0,127.0
1330,68.0,0,95,0.0,127.0
1331,57.0,96,95,0.0,127.0
1332,76.0,0,95,0.0,127.0
1333,78.0,0,95,0.0,127.0
1334,69.0,0,95,0.0,127.0
1335,56.0,96,95,0.0,127.0
1336,76.0,0,95,0.0,127.0
1337,68.0,96,95,0.0,127.0
1338,57.0,0,95,0.0,127.0
1339,59.0,0,95,0.0,127.0
1340,66.0,96,170,0.0,127.0
1341,57.0,96,95,0.0,127.0
1342,74.0,0,191,0.0,127.0
1343,56.0,96,95,0.0,127.0
1344,54.0,96,95,0.0,127.0
1345,53.0,96,95,0.0,127.0
1346,56.0,96,95,0.0,127.0
1347,71.0,0,383,0.0,127.0
1348,54.0,0,95,0.0,127.0
1349,57.0,96,95,0.0,127.0
1350,73.0,0,383,0.0,127.0
1351,51.0,96,95,0.0,127.0
1352,54.0,96,95,0.0,127.0
1353,69.0,96,383,0.0,127.0
1354,52.0,96,95,0.0,127.0
1355,71.0,0,383,0.0,127.0
1356,56.0,96,95,0.0,127.0
1357,54.0,0,95,0.0,127.0
1358,52.0,96,95,0.0,127.0
1359,68.0,0,383,0.0,127.0
1360,50.0,96,95,0.0,127.0
1361,49.0,96,95,0.0,127.0
1362,69.0,96,383,0.0,127.0
1363,47.0,96,95,0.0,127.0
1364,66.0,0,383,0.0,127.0
1365,50.0,96,95,0.0,127.0
1366,49.0,96,95,0.0,127.0
1367,68.0,0,380,0.0,127.0
1368,47.0,96,95,0.0,127.0
1369,66.0,0,191,0.0,127.0
1370,49.0,1,95,0.0,127.0
1371,65.0,95,140,0.0,127.0
1372,47.0,96,95,0.0,127.0
1373,49.0,0,191,0.0,127.0
1374,73.0,96,191,0.0,127.0
1375,42.0,192,190,0.0,127.0
1376,74.0,0,191,0.0,127.0
1377,66.0,0,280,0.0,127.0
1378,61.0,96,95,0.0,127.0
1379,73.0,192,191,0.0,127.0
1380,62.0,96,95,0.0,127.0
1381,71.0,0,191,0.0,127.0
1382,61.0,96,95,0.0,127.0
1383,62.0,96,95,0.0,127.0
1384,61.0,96,95,0.0,127.0
1385,69.0,0,191,0.0,127.0
1386,59.0,96,95,0.0,127.0
1387,57.0,96,95,0.0,127.0
1388,68.0,0,191,0.0,127.0
1389,59.0,96,95,0.0,127.0
1390,57.0,96,95,0.0,127.0
1391,66.0,0,191,0.0,127.0
1392,56.0,96,95,0.0,127.0
1393,54.0,96,95,0.0,127.0
1394,65.0,0,191,0.0,127.0
1395,56.0,96,95,0.0,127.0
1396,54.0,96,95,0.0,127.0
1397,63.0,0,191,0.0,127.0
1398,53.0,0,95,0.0,127.0
1399,49.0,96,95,0.0,127.0
1400,61.0,96,191,0.0,127.0
1401,69.0,0,191,0.0,127.0
1402,69.0,192,48,0.0,127.0
1403,54.0,96,287,0.0,127.0
1404,68.0,56,48,0.0,127.0
1405,69.0,8,48,0.0,127.0
1406,53.0,40,95,0.0,127.0
1407,54.0,40,95,0.0,127.0
1408,68.0,48,190,0.0,127.0
1409,56.0,96,95,0.0,127.0
1410,66.0,96,95,0.0,127.0
1411,68.0,96,95,0.0,127.0
1412,69.0,96,95,0.0,127.0
1413,57.0,96,430,0.0,127.0
1414,56.0,96,95,0.0,127.0
1415,57.0,96,95,0.0,127.0
1416,59.0,96,95,0.0,127.0
1417,71.0,96,440,0.0,127.0
1418,69.0,96,95,0.0,127.0
1419,71.0,96,95,0.0,127.0
1420,73.0,96,95,0.0,127.0
1421,61.0,96,450,0.0,127.0
1422,59.0,96,95,0.0,127.0
1423,61.0,96,95,0.0,127.0
1424,62.0,96,95,0.0,127.0
1425,74.0,96,460,0.0,127.0
1426,73.0,96,95,0.0,127.0
1427,74.0,96,95,0.0,127.0
1428,76.0,96,95,0.0,127.0
1429,64.0,96,470,0.0,127.0
1430,62.0,96,95,0.0,127.0
1431,64.0,96,95,0.0,127.0
1432,66.0,96,95,0.0,127.0
1433,78.0,96,520,0.0,127.0
1434,71.0,96,95,0.0,127.0
1435,67.0,96,287,0.0,127.0
1436,73.0,96,95,0.0,127.0
1437,76.0,96,287,0.0,127.0
1438,69.0,96,95,0.0,127.0
1439,66.0,96,287,0.0,127.0
1440,71.0,96,95,0.0,127.0
1441,74.0,96,287,0.0,127.0
1442,67.0,96,95,0.0,127.0
1443,64.0,96,287,0.0,127.0
1444,69.0,96,95,0.0,127.0
1445,73.0,96,287,0.0,127.0
1446,66.0,96,95,0.0,127.0
1447,62.0,96,287,0.0,127.0
1448,67.0,96,95,0.0,127.0
1449,71.0,96,287,0.0,127.0
1450,71.0,96,95,0.0,127.0
1451,70.0,96,95,0.0,127.0
1452,68.0,96,95,0.0,127.0
1453,61.0,96,550,0.0,127.0
1454,64.0,96,95,0.0,127.0
1455,62.0,96,95,0.0,127.0
1456,70.0,96,360,0.0,127.0
1457,61.0,96,95,0.0,127.0
1458,54.0,0,191,0.0,127.0
1459,59.0,0,95,0.0,127.0
1460,71.0,0,190,0.0,127.0
1461,63.0,96,95,0.0,127.0
1462,55.0,96,191,0.0,127.0
1463,64.0,0,95,0.0,127.0
1464,66.0,96,95,0.0,127.0
1465,54.0,96,191,0.0,127.0
1466,67.0,0,95,0.0,127.0
1467,66.0,96,95,0.0,127.0
1468,52.0,96,191,0.0,127.0
1469,67.0,0,95,0.0,127.0
1470,50.0,96,191,0.0,127.0
1471,71.0,0,191,0.0,127.0
1472,66.0,96,95,0.0,127.0
1473,64.0,0,95,0.0,127.0
1474,62.0,96,95,0.0,127.0
1475,70.0,0,191,0.0,127.0
1476,49.0,96,191,0.0,127.0
1477,64.0,0,95,0.0,127.0
1478,47.0,96,191,0.0,127.0
1479,71.0,0,191,0.0,127.0
1480,62.0,96,95,0.0,127.0
1481,61.0,0,95,0.0,127.0
1482,62.0,96,95,0.0,127.0
1483,66.0,0,191,0.0,127.0
1484,46.0,96,191,0.0,127.0
1485,61.0,0,95,0.0,127.0
1486,44.0,96,191,0.0,127.0
1487,62.0,96,95,0.0,127.0
1488,68.0,0,191,0.0,127.0
1489,64.0,0,95,0.0,127.0
1490,66.0,96,95,0.0,127.0
1491,70.0,0,191,0.0,127.0
1492,42.0,96,191,0.0,127.0
1493,62.0,0,95,0.0,127.0
1494,47.0,96,191,0.0,127.0
1495,64.0,96,95,0.0,127.0
1496,61.0,0,95,0.0,127.0
1497,66.0,96,95,0.0,127.0
1498,40.0,96,191,0.0,127.0
1499,71.0,0,383,0.0,127.0
1500,64.0,0,95,0.0,127.0
1501,70.0,0,191,0.0,127.0
1502,42.0,96,191,0.0,127.0
1503,66.0,96,95,0.0,127.0
1504,71.0,96,95,0.0,127.0
1505,62.0,0,191,0.0,127.0
1506,47.0,0,280,0.0,127.0
1507,78.0,96,191,0.0,127.0
1508,77.0,96,90,0.0,127.0
1509,71.0,96,191,0.0,127.0
1510,73.0,96,191,0.0,127.0
1511,47.0,96,95,0.0,127.0
1512,50.0,96,95,0.0,127.0
1513,78.0,0,191,0.0,127.0
1514,80.0,0,90,0.0,127.0
1515,47.0,96,95,0.0,127.0
1516,71.0,0,191,0.0,127.0
1517,73.0,0,191,0.0,127.0
1518,81.0,96,191,0.0,127.0
1519,54.0,96,380,0.0,127.0
1520,69.0,96,191,0.0,127.0
1521,72.0,96,191,0.0,127.0
1522,42.0,96,95,0.0,127.0
1523,68.0,96,191,0.0,127.0
1524,45.0,96,95,0.0,127.0
1525,73.0,0,191,0.0,127.0
1526,66.0,0,191,0.0,127.0
1527,42.0,96,95,0.0,127.0
1528,49.0,96,95,0.0,127.0
1529,75.0,0,191,0.0,127.0
1530,59.0,96,95,0.0,127.0
1531,64.0,0,191,0.0,127.0
1532,57.0,96,95,0.0,127.0
1533,77.0,0,191,0.0,127.0
1534,73.0,0,191,0.0,127.0
1535,59.0,0,95,0.0,127.0
1536,56.0,96,95,0.0,127.0
1537,75.0,96,191,0.0,127.0
1538,59.0,96,95,0.0,127.0
1539,71.0,0,191,0.0,127.0
1540,54.0,96,95,0.0,127.0
1541,77.0,0,191,0.0,127.0
1542,69.0,0,191,0.0,127.0
1543,57.0,96,95,0.0,127.0
1544,53.0,96,95,0.0,127.0
1545,78.0,0,191,0.0,127.0
1546,80.0,0,95,0.0,127.0
1547,56.0,96,95,0.0,127.0
1548,68.0,0,191,0.0,127.0
1549,49.0,96,95,0.0,127.0
1550,74.0,0,191,0.0,127.0
1551,71.0,0,191,0.0,127.0
1552,53.0,96,95,0.0,127.0
1553,51.0,0,95,0.0,127.0
1554,54.0,96,95,0.0,127.0
1555,73.0,0,191,0.0,127.0
1556,69.0,96,191,0.0,127.0
1557,53.0,96,95,0.0,127.0
1558,56.0,96,95,0.0,127.0
1559,71.0,0,191,0.0,127.0
1560,54.0,96,95,0.0,127.0
1561,57.0,96,95,0.0,127.0
1562,68.0,0,383,0.0,127.0
1563,62.0,96,95,0.0,127.0
1564,57.0,96,95,0.0,127.0
1565,69.0,0,383,0.0,127.0
1566,59.0,96,95,0.0,127.0
1567,56.0,96,95,0.0,127.0
1568,66.0,0,383,0.0,127.0
1569,61.0,0,95,0.0,127.0
1570,49.0,96,95,0.0,127.0
1571,65.0,96,191,0.0,127.0
1572,68.0,0,383,0.0,127.0
1573,69.0,96,95,0.0,127.0
1574,50.0,96,191,0.0,127.0
1575,73.0,0,95,0.0,127.0
1576,66.0,0,380,0.0,127.0
1577,49.0,96,191,0.0,127.0
1578,69.0,96,95,0.0,127.0
1579,66.0,96,95,0.0,127.0
1580,74.0,0,191,0.0,127.0
1581,47.0,96,191,0.0,127.0
1582,69.0,0,95,0.0,127.0
1583,73.0,0,191,0.0,127.0
1584,45.0,96,191,0.0,127.0
1585,66.0,96,95,0.0,127.0
1586,44.0,0,95,0.0,127.0
1587,56.0,96,95,0.0,127.0
1588,71.0,96,191,0.0,127.0
1589,68.0,0,191,0.0,127.0
1590,59.0,96,95,0.0,127.0
1591,56.0,96,95,0.0,127.0
1592,66.0,0,191,0.0,127.0
1593,69.0,0,287,0.0,127.0
1594,68.0,96,95,0.0,127.0
1595,64.0,0,191,0.0,127.0
1596,61.0,96,191,0.0,127.0
1597,71.0,0,95,0.0,127.0
1598,62.0,0,190,0.0,127.0
1599,68.0,96,95,0.0,127.0
1600,59.0,96,191,0.0,127.0
1601,57.0,96,191,0.0,127.0
1602,61.0,96,95,0.0,127.0
1603,73.0,0,191,0.0,127.0
1604,65.0,0,95,0.0,127.0
1605,56.0,96,190,0.0,127.0
1606,61.0,96,95,0.0,127.0
1607,71.0,0,191,0.0,127.0
1608,69.0,0,191,0.0,127.0
1609,66.0,96,191,0.0,127.0
1610,54.0,96,95,0.0,127.0
1611,57.0,96,95,0.0,127.0
1612,68.0,0,190,0.0,127.0
1613,54.0,96,95,0.0,127.0
1614,64.0,0,191,0.0,127.0
1615,63.0,0,191,0.0,127.0
1616,59.0,96,191,0.0,127.0
1617,66.0,96,95,0.0,127.0
1618,69.0,96,95,0.0,127.0
1619,61.0,0,190,0.0,127.0
1620,66.0,96,95,0.0,127.0
1621,57.0,0,191,0.0,127.0
1622,59.0,96,95,0.0,127.0
1623,71.0,0,191,0.0,127.0
1624,56.0,96,191,0.0,127.0
1625,63.0,0,95,0.0,127.0
1626,54.0,96,190,0.0,127.0
1627,59.0,96,95,0.0,127.0
1628,69.0,0,191,0.0,127.0
1629,52.0,96,95,0.0,127.0
1630,68.0,0,191,0.0,127.0
1631,64.0,96,191,0.0,127.0
1632,56.0,96,95,0.0,127.0
1633,66.0,0,190,0.0,127.0
1634,52.0,96,95,0.0,127.0
1635,63.0,0,191,0.0,127.0
1636,64.0,96,95,0.0,127.0
1637,61.0,0,191,0.0,127.0
1638,57.0,96,191,0.0,127.0
1639,68.0,0,95,0.0,127.0
1640,59.0,0,190,0.0,127.0
1641,56.0,96,191,0.0,127.0
1642,64.0,96,95,0.0,127.0
1643,57.0,96,95,0.0,127.0
1644,69.0,0,191,0.0,127.0
1645,54.0,96,191,0.0,127.0
1646,61.0,96,95,0.0,127.0
1647,52.0,0,190,0.0,127.0
1648,57.0,96,95,0.0,127.0
1649,68.0,0,191,0.0,127.0
1650,51.0,96,95,0.0,127.0
1651,66.0,0,191,0.0,127.0
1652,63.0,96,191,0.0,127.0
1653,54.0,96,95,0.0,127.0
1654,64.0,0,190,0.0,127.0
1655,51.0,96,95,0.0,127.0
1656,61.0,0,191,0.0,127.0
1657,63.0,0,90,0.0,127.0
1658,56.0,96,191,0.0,127.0
1659,63.0,96,95,0.0,127.0
1660,66.0,0,95,0.0,127.0
1661,57.0,0,190,0.0,127.0
1662,63.0,96,95,0.0,127.0
1663,54.0,96,191,0.0,127.0
1664,56.0,96,95,0.0,127.0
1665,68.0,0,191,0.0,127.0
1666,52.0,96,191,0.0,127.0
1667,60.0,0,95,0.0,127.0
1668,51.0,0,190,0.0,127.0
1669,56.0,96,95,0.0,127.0
1670,66.0,96,191,0.0,127.0
1671,49.0,96,95,0.0,127.0
1672,64.0,0,191,0.0,127.0
1673,61.0,96,191,0.0,127.0
1674,52.0,96,95,0.0,127.0
1675,49.0,96,95,0.0,127.0
1676,63.0,0,191,0.0,127.0
1677,59.0,0,191,0.0,127.0
1678,54.0,96,95,0.0,127.0
1679,52.0,96,95,0.0,127.0
1680,61.0,0,191,0.0,127.0
1681,51.0,96,95,0.0,127.0
1682,57.0,0,380,0.0,127.0
1683,49.0,96,95,0.0,127.0
1684,48.0,96,190,0.0,127.0
1685,56.0,96,95,0.0,127.0
1686,66.0,0,383,0.0,127.0
1687,49.0,96,95,0.0,127.0
1688,64.0,0,191,0.0,127.0
1689,54.0,96,95,0.0,127.0
1690,63.0,0,190,0.0,127.0
1691,61.0,96,383,0.0,127.0
1692,51.0,96,95,0.0,127.0
1693,60.0,0,81,0.0,127.0
1694,56.0,96,95,0.0,127.0
1695,44.0,96,95,0.0,127.0
1696,68.0,2,95,0.0,127.0
1697,69.0,0,95,0.0,127.0
1698,49.0,94,190,0.0,127.0
1699,61.0,0,191,0.0,127.0
1700,68.0,96,95,0.0,127.0
1701,69.0,0,95,0.0,127.0
1702,68.0,0,95,0.0,127.0
1703,49.0,96,95,0.0,127.0
1704,64.0,96,191,0.0,127.0
1705,51.0,96,95,0.0,127.0
1706,58.0,0,190,0.0,127.0
1707,67.0,0,191,0.0,127.0
1708,49.0,96,95,0.0,127.0
1709,51.0,96,95,0.0,127.0
1710,49.0,96,95,0.0,127.0
1711,70.0,0,191,0.0,127.0
1712,75.0,0,95,0.0,127.0
1713,47.0,96,95,0.0,127.0
1714,46.0,96,95,0.0,127.0
1715,73.0,0,95,0.0,127.0
1716,75.0,96,95,0.0,127.0
1717,47.0,0,95,0.0,127.0
1718,73.0,0,95,0.0,127.0
1719,46.0,96,95,0.0,127.0
1720,63.0,0,191,0.0,127.0
1721,68.0,0,95,0.0,127.0
1722,44.0,96,191,0.0,127.0
1723,71.0,0,191,0.0,127.0
1724,67.0,96,95,0.0,127.0
1725,68.0,0,95,0.0,127.0
1726,67.0,96,95,0.0,127.0
1727,70.0,0,191,0.0,127.0
1728,51.0,96,191,0.0,127.0
1729,68.0,0,95,0.0,127.0
1730,52.0,96,191,0.0,127.0
1731,73.0,0,191,0.0,127.0
1732,67.0,96,95,0.0,127.0
1733,68.0,0,95,0.0,127.0
1734,67.0,96,95,0.0,127.0
1735,71.0,0,191,0.0,127.0
1736,51.0,96,191,0.0,127.0
1737,68.0,0,95,0.0,127.0
1738,49.0,96,191,0.0,127.0
1739,67.0,96,95,0.0,127.0
1740,76.0,0,191,0.0,127.0
1741,68.0,0,95,0.0,127.0
1742,67.0,96,95,0.0,127.0
1743,75.0,0,191,0.0,127.0
1744,47.0,96,191,0.0,127.0
1745,68.0,0,95,0.0,127.0
1746,67.0,96,95,0.0,127.0
1747,46.0,96,191,0.0,127.0
1748,73.0,0,240,0.0,127.0
1749,71.0,96,95,0.0,127.0
1750,68.0,96,191,0.0,127.0
1751,44.0,0,191,0.0,127.0
1752,70.0,0,95,0.0,127.0
1753,71.0,96,95,0.0,127.0
1754,63.0,0,191,0.0,127.0
1755,43.0,96,191,0.0,127.0
1756,70.0,96,95,0.0,127.0
1757,71.0,96,95,0.0,127.0
1758,68.0,0,191,0.0,127.0
1759,41.0,0,191,0.0,127.0
1760,73.0,0,95,0.0,127.0
1761,75.0,96,95,0.0,127.0
1762,67.0,0,191,0.0,127.0
1763,39.0,96,191,0.0,127.0
1764,73.0,96,95,0.0,127.0
1765,75.0,96,95,0.0,127.0
1766,68.0,0,191,0.0,127.0
1767,73.0,0,95,0.0,127.0
1768,44.0,0,340,0.0,127.0
1769,76.0,96,95,0.0,127.0
1770,75.0,0,95,0.0,127.0
1771,70.0,96,383,0.0,127.0
1772,78.0,96,95,0.0,127.0
1773,43.0,96,191,0.0,127.0
1774,76.0,0,95,0.0,127.0
1775,75.0,96,95,0.0,127.0
1776,71.0,0,191,0.0,127.0
1777,44.0,96,191,0.0,127.0
1778,76.0,0,95,0.0,127.0
1779,43.0,96,191,0.0,127.0
1780,75.0,96,95,0.0,127.0
1781,70.0,0,191,0.0,127.0
1782,76.0,0,95,0.0,127.0
1783,80.0,96,95,0.0,127.0
1784,71.0,0,191,0.0,127.0
1785,44.0,96,191,0.0,127.0
1786,78.0,0,95,0.0,127.0
1787,46.0,96,191,0.0,127.0
1788,76.0,96,95,0.0,127.0
1789,73.0,0,287,0.0,127.0
1790,66.0,96,95,0.0,127.0
1791,47.0,96,191,0.0,127.0
1792,75.0,0,287,0.0,127.0
1793,75.0,96,95,0.0,127.0
1794,46.0,96,191,0.0,127.0
1795,77.0,96,95,0.0,127.0
1796,80.0,96,95,0.0,127.0
1797,44.0,0,191,0.0,127.0
1798,77.0,0,95,0.0,127.0
1799,71.0,0,480,0.0,127.0
1800,75.0,96,95,0.0,127.0
1801,56.0,96,191,0.0,127.0
1802,74.0,0,95,0.0,127.0
1803,58.0,96,95,0.0,127.0
1804,72.0,0,95,0.0,127.0
1805,59.0,96,95,0.0,127.0
1806,65.0,96,380,0.0,127.0
1807,70.0,0,190,0.0,127.0
1808,58.0,96,95,0.0,127.0
1809,78.0,96,95,0.0,127.0
1810,59.0,96,191,0.0,127.0
1811,80.0,0,95,0.0,127.0
1812,58.0,96,191,0.0,127.0
1813,82.0,96,95,0.0,127.0
1814,75.0,96,95,0.0,127.0
1815,83.0,96,191,0.0,127.0
1816,56.0,0,191,0.0,127.0
1817,77.0,0,95,0.0,127.0
1818,78.0,96,90,0.0,127.0
1819,82.0,0,191,0.0,127.0
1820,54.0,96,191,0.0,127.0
1821,72.0,96,95,0.0,127.0
1822,80.0,0,191,0.0,127.0
1823,53.0,96,191,0.0,127.0
1824,74.0,0,95,0.0,127.0
1825,75.0,96,90,0.0,127.0
1826,78.0,0,191,0.0,127.0
1827,51.0,96,191,0.0,127.0
1828,77.0,0,95,0.0,127.0
1829,50.0,96,191,0.0,127.0
1830,75.0,96,95,0.0,127.0
1831,77.0,0,95,0.0,127.0
1832,78.0,96,95,0.0,127.0
1833,48.0,96,191,0.0,127.0
1834,72.0,96,95,0.0,127.0
1835,46.0,0,191,0.0,127.0
1836,74.0,0,95,0.0,127.0
1837,44.0,96,191,0.0,127.0
1838,75.0,96,95,0.0,127.0
1839,80.0,96,479,0.0,127.0
1840,82.0,96,95,0.0,127.0
1841,74.0,0,191,0.0,127.0
1842,46.0,96,191,0.0,127.0
1843,77.0,0,95,0.0,127.0
1844,50.0,96,191,0.0,127.0
1845,78.0,96,95,0.0,127.0
1846,77.0,96,95,0.0,127.0
1847,83.0,96,95,0.0,127.0
1848,46.0,0,191,0.0,127.0
1849,74.0,0,383,0.0,127.0
1850,82.0,0,95,0.0,127.0
1851,80.0,96,95,0.0,127.0
1852,46.0,96,191,0.0,127.0
1853,73.0,0,287,0.0,127.0
1854,76.0,96,95,0.0,127.0
1855,39.0,96,191,0.0,127.0
1856,75.0,0,95,0.0,127.0
1857,73.0,96,95,0.0,127.0
1858,51.0,96,191,0.0,127.0
1859,79.0,0,383,0.0,127.0
1860,71.0,0,95,0.0,127.0
1861,52.0,96,191,0.0,127.0
1862,75.0,96,95,0.0,127.0
1863,73.0,0,95,0.0,127.0
1864,71.0,96,95,0.0,127.0
1865,51.0,96,191,0.0,127.0
1866,80.0,0,479,0.0,127.0
1867,80.0,96,95,0.0,127.0
1868,49.0,96,191,0.0,127.0
1869,82.0,0,95,0.0,127.0
1870,80.0,96,95,0.0,127.0
1871,46.0,96,191,0.0,127.0
1872,70.0,0,479,0.0,127.0
1873,69.0,96,95,0.0,127.0
1874,51.0,96,191,0.0,127.0
1875,71.0,0,95,0.0,127.0
1876,69.0,96,95,0.0,127.0
1877,49.0,96,191,0.0,127.0
1878,78.0,0,479,0.0,127.0
1879,78.0,96,95,0.0,127.0
1880,68.0,96,191,0.0,127.0
1881,48.0,0,191,0.0,127.0
1882,80.0,0,95,0.0,127.0
1883,78.0,96,95,0.0,127.0
1884,60.0,0,191,0.0,127.0
1885,56.0,96,191,0.0,127.0
1886,76.0,96,95,0.0,127.0
1887,80.0,96,95,0.0,127.0
1888,57.0,0,191,0.0,127.0
1889,78.0,0,95,0.0,127.0
1890,76.0,96,95,0.0,127.0
1891,56.0,96,191,0.0,127.0
1892,75.0,0,95,0.0,127.0
1893,61.0,0,479,0.0,127.0
1894,80.0,96,95,0.0,127.0
1895,60.0,0,95,0.0,127.0
1896,54.0,96,191,0.0,127.0
1897,81.0,0,95,0.0,127.0
1898,75.0,96,95,0.0,127.0
1899,61.0,0,191,0.0,127.0
1900,51.0,96,191,0.0,127.0
1901,76.0,0,48,0.0,127.0
1902,75.0,56,48,0.0,127.0
1903,76.0,48,48,0.0,127.0
1904,75.0,48,140,0.0,127.0
1905,56.0,96,383,0.0,127.0
1906,60.0,0,383,0.0,127.0
1907,73.0,136,95,0.0,127.0
1908,61.0,0,95,0.0,127.0
1909,64.0,96,95,0.0,127.0
1910,66.0,96,95,0.0,127.0
1911,73.0,0,380,0.0,127.0
1912,68.0,96,95,0.0,127.0
1913,49.0,96,383,0.0,127.0
1914,69.0,96,95,0.0,127.0
1915,68.0,96,95,0.0,127.0
1916,69.0,96,95,0.0,127.0
1917,68.0,96,95,0.0,127.0
1918,80.0,0,191,0.0,127.0
1919,66.0,0,95,0.0,127.0
1920,64.0,96,95,0.0,127.0
1921,81.0,96,191,0.0,127.0
1922,66.0,96,95,0.0,127.0
1923,64.0,96,95,0.0,127.0
1924,80.0,0,191,0.0,127.0
1925,63.0,96,95,0.0,127.0
1926,78.0,0,191,0.0,127.0
1927,61.0,96,95,0.0,127.0
1928,63.0,96,95,0.0,127.0
1929,61.0,96,95,0.0,127.0
1930,76.0,0,191,0.0,127.0
1931,60.0,96,95,0.0,127.0
1932,61.0,96,95,0.0,127.0
1933,75.0,0,191,0.0,127.0
1934,60.0,96,95,0.0,127.0
1935,61.0,96,95,0.0,127.0
1936,73.0,0,191,0.0,127.0
1937,63.0,96,95,0.0,127.0
1938,64.0,96,95,0.0,127.0
1939,72.0,0,191,0.0,127.0
1940,63.0,96,95,0.0,127.0
1941,64.0,96,95,0.0,127.0
1942,70.0,0,191,0.0,127.0
1943,66.0,96,95,0.0,127.0
1944,60.0,96,95,0.0,127.0
1945,68.0,0,191,0.0,127.0
1946,61.0,96,95,0.0,127.0
1947,63.0,96,95,0.0,127.0
1948,76.0,0,191,0.0,127.0
1949,76.0,0,48,0.0,127.0
1950,75.0,56,48,0.0,127.0
1951,76.0,48,48,0.0,127.0
1952,61.0,96,287,0.0,127.0
1953,75.0,48,216,0.0,127.0
1954,60.0,136,95,0.0,127.0
1955,61.0,96,95,0.0,127.0
1956,63.0,96,95,0.0,127.0
1957,73.0,0,280,0.0,127.0
1958,61.0,96,95,0.0,127.0
1959,63.0,96,95,0.0,127.0
1960,68.0,96,95,0.0,127.0
1961,70.0,96,95,0.0,127.0
1962,68.0,96,95,0.0,127.0
1963,64.0,0,380,0.0,127.0
1964,70.0,96,95,0.0,127.0
1965,63.0,96,95,0.0,127.0
1966,64.0,96,95,0.0,127.0
1967,71.0,96,380,0.0,127.0
1968,66.0,96,95,0.0,127.0
1969,68.0,96,90,0.0,127.0
1970,68.0,96,95,0.0,127.0
1971,69.0,0,95,0.0,127.0
1972,71.0,96,95,0.0,127.0
1973,66.0,96,191,0.0,127.0
1974,65.0,96,95,0.0,127.0
1975,73.0,0,191,0.0,127.0
1976,61.0,96,95,0.0,127.0
1977,63.0,96,95,0.0,127.0
1978,65.0,96,95,0.0,127.0
1979,71.0,0,191,0.0,127.0
1980,69.0,0,95,0.0,127.0
1981,73.0,96,95,0.0,127.0
1982,66.0,96,191,0.0,127.0
1983,74.0,0,95,0.0,127.0
1984,76.0,96,95,0.0,127.0
1985,64.0,96,191,0.0,127.0
1986,62.0,96,95,0.0,127.0
1987,66.0,96,95,0.0,127.0
1988,78.0,0,191,0.0,127.0
1989,68.0,96,95,0.0,127.0
1990,70.0,96,95,0.0,127.0
1991,76.0,0,191,0.0,127.0
1992,74.0,96,95,0.0,127.0
1993,78.0,96,95,0.0,127.0
1994,71.0,0,191,0.0,127.0
1995,80.0,0,95,0.0,127.0
1996,81.0,96,95,0.0,127.0
1997,69.0,96,191,0.0,127.0
1998,68.0,96,95,0.0,127.0
1999,75.0,96,95,0.0,127.0
2000,76.0,96,95,0.0,127.0
2001,78.0,96,95,0.0,127.0
2002,80.0,96,95,0.0,127.0
2003,78.0,96,95,0.0,127.0
2004,80.0,96,95,0.0,127.0
2005,78.0,96,95,0.0,127.0
2006,77.0,96,95,0.0,127.0
2007,73.0,96,95,0.0,127.0
2008,75.0,96,95,0.0,127.0
2009,83.0,0,1150,0.0,127.0
2010,77.0,96,95,0.0,127.0
2011,81.0,96,95,0.0,127.0
2012,78.0,96,191,0.0,127.0
2013,80.0,0,95,0.0,127.0
2014,78.0,96,95,0.0,127.0
2015,71.0,96,287,0.0,127.0
2016,77.0,96,191,0.0,127.0
2017,69.0,96,95,0.0,127.0
2018,68.0,96,95,0.0,127.0
2019,66.0,96,95,0.0,127.0
2020,78.0,0,191,0.0,127.0
2021,80.0,0,95,0.0,127.0
2022,74.0,96,95,0.0,127.0
2023,65.0,96,191,0.0,127.0
2024,73.0,0,95,0.0,127.0
2025,71.0,96,95,0.0,127.0
2026,61.0,96,191,0.0,127.0
2027,66.0,96,95,0.0,127.0
2028,61.0,96,95,0.0,127.0
2029,69.0,0,191,0.0,127.0
2030,68.0,0,95,0.0,127.0
2031,59.0,96,95,0.0,127.0
2032,57.0,96,95,0.0,127.0
2033,66.0,0,95,0.0,127.0
2034,65.0,0,191,0.0,127.0
2035,65.0,0,95,0.0,127.0
2036,56.0,96,380,0.0,127.0
2037,66.0,96,95,0.0,127.0
2038,49.0,192,191,0.0,127.0
2039,66.0,0,95,0.0,127.0
2040,50.0,96,191,0.0,127.0
2041,69.0,96,95,0.0,127.0
2042,71.0,0,95,0.0,127.0
2043,73.0,96,95,0.0,127.0
2044,49.0,96,191,0.0,127.0
2045,74.0,0,95,0.0,127.0
2046,73.0,96,95,0.0,127.0
2047,47.0,96,191,0.0,127.0
2048,74.0,0,95,0.0,127.0
2049,73.0,96,95,0.0,127.0
2050,45.0,96,191,0.0,127.0
2051,54.0,0,767,0.0,127.0
2052,71.0,0,95,0.0,127.0
2053,69.0,96,95,0.0,127.0
2054,53.0,0,191,0.0,127.0
2055,44.0,96,191,0.0,127.0
2056,71.0,0,95,0.0,127.0
2057,69.0,96,95,0.0,127.0
2058,54.0,0,191,0.0,127.0
2059,42.0,96,191,0.0,127.0
2060,68.0,0,95,0.0,127.0
2061,66.0,96,95,0.0,127.0
2062,49.0,0,191,0.0,127.0
2063,41.0,96,191,0.0,127.0
2064,68.0,0,95,0.0,127.0
2065,48.0,0,191,0.0,127.0
2066,39.0,96,191,0.0,127.0
2067,66.0,100,99,0.0,127.0
2068,49.0,0,99,0.0,127.0
2069,56.0,101,99,0.0,127.0
2070,57.0,100,99,0.0,127.0
2071,59.0,101,99,0.0,127.0
2072,65.0,101,502,0.0,127.0
2073,65.0,101,99,0.0,127.0
2074,66.0,101,99,0.0,127.0
2075,68.0,100,99,0.0,127.0
2076,61.0,101,502,0.0,127.0
2077,61.0,101,99,0.0,127.0
2078,69.0,101,301,0.0,127.0
2079,69.0,101,99,0.0,127.0
2080,66.0,101,301,0.0,127.0
2081,37.0,0,1309,0.0,127.0
2082,49.0,0,99,0.0,127.0
2083,65.0,101,99,0.0,127.0
2084,68.0,100,200,0.0,127.0
2085,66.0,0,99,0.0,127.0
2086,51.0,0,99,0.0,127.0
2087,53.0,0,99,0.0,127.0
2088,68.0,101,99,0.0,127.0
2089,73.0,101,200,0.0,127.0
2090,54.0,0,99,0.0,127.0
2091,52.0,100,99,0.0,127.0
2092,61.0,0,200,0.0,127.0
2093,69.0,101,200,0.0,127.0
2094,54.0,0,99,0.0,127.0
2095,52.0,101,99,0.0,127.0
2096,61.0,101,200,0.0,127.0
2097,70.0,0,200,0.0,127.0
2098,50.0,0,99,0.0,127.0
2099,49.0,101,99,0.0,127.0
2100,62.0,0,200,0.0,127.0
2101,71.0,101,200,0.0,127.0
2102,50.0,100,99,0.0,127.0
2103,49.0,101,99,0.0,127.0
2104,64.0,0,200,0.0,127.0
2105,73.0,0,200,0.0,127.0
2106,47.0,0,99,0.0,127.0
2107,66.0,0,200,0.0,127.0
2108,45.0,101,99,0.0,127.0
2109,74.0,101,200,0.0,127.0
2110,47.0,0,99,0.0,127.0
2111,45.0,100,99,0.0,127.0
2112,66.0,101,200,0.0,127.0
2113,75.0,0,200,0.0,127.0
2114,44.0,0,99,0.0,127.0
2115,42.0,101,99,0.0,127.0
2116,68.0,0,200,0.0,127.0
2117,77.0,101,200,0.0,127.0
2118,41.0,0,99,0.0,127.0
2119,69.0,0,199,0.0,127.0
2120,78.0,101,199,0.0,127.0
2121,42.0,104,104,0.0,127.0
2122,78.0,106,104,0.0,127.0
2123,81.0,105,104,0.0,127.0
2124,36.0,106,418,0.0,127.0
2125,80.0,106,104,0.0,127.0
2126,78.0,105,104,0.0,127.0
2127,77.0,106,104,0.0,127.0
2128,73.0,105,104,0.0,127.0
2129,66.0,105,104,0.0,127.0
2130,69.0,106,104,0.0,127.0
2131,78.0,106,526,0.0,127.0
2132,80.0,0,104,0.0,127.0
2133,68.0,106,104,0.0,127.0
2134,66.0,105,104,0.0,127.0
2135,81.0,0,104,0.0,127.0
2136,80.0,0,104,0.0,127.0
2137,65.0,106,104,0.0,127.0
2138,60.0,106,104,0.0,127.0
2139,75.0,106,843,0.0,127.0
2140,66.0,105,308,0.0,127.0
2141,81.0,0,315,0.0,127.0
2142,66.0,0,104,0.0,127.0
2143,81.0,105,104,0.0,127.0
2144,80.0,0,104,0.0,127.0
2145,68.0,106,104,0.0,127.0
2146,78.0,0,104,0.0,127.0
2147,69.0,105,104,0.0,127.0
2148,73.0,106,526,0.0,127.0
2149,61.0,0,526,0.0,127.0
2150,74.0,106,104,0.0,127.0
2151,71.0,106,308,0.0,127.0
2152,73.0,105,104,0.0,127.0
2153,71.0,110,109,0.0,127.0
2154,77.0,0,526,0.0,127.0
2155,73.0,111,109,0.0,127.0
2156,78.0,110,109,0.0,127.0
2157,76.0,110,109,0.0,127.0
2158,74.0,111,109,0.0,127.0
2159,73.0,110,109,0.0,127.0
2160,74.0,111,109,0.0,127.0
2161,71.0,110,109,0.0,127.0
2162,70.0,110,992,0.0,127.0
2163,61.0,111,109,0.0,127.0
2164,66.0,110,109,0.0,127.0
2165,70.0,0,218,0.0,127.0
2166,64.0,111,109,0.0,127.0
2167,62.0,0,109,0.0,127.0
2168,61.0,110,109,0.0,127.0
2169,73.0,110,661,0.0,127.0
2170,62.0,0,109,0.0,127.0
2171,59.0,110,109,0.0,127.0
2172,54.0,0,1875,0.0,127.0
2173,49.0,110,109,0.0,127.0
2174,71.0,111,440,0.0,127.0
2175,54.0,0,109,0.0,127.0
2176,70.0,110,219,0.0,127.0
2177,61.0,111,440,0.0,127.0
2178,66.0,110,882,0.0,127.0
2179,52.0,111,109,0.0,127.0
2180,50.0,0,109,0.0,127.0
2181,49.0,111,109,0.0,127.0
2182,62.0,0,330,0.0,127.0
2183,66.0,0,330,0.0,127.0
2184,71.0,110,330,0.0,127.0
2185,50.0,110,109,0.0,127.0
2186,47.0,115,114,0.0,127.0
2187,66.0,0,114,0.0,127.0
2188,57.0,116,114,0.0,127.0
2189,68.0,0,114,0.0,127.0
2190,56.0,115,114,0.0,127.0
2191,54.0,115,114,0.0,127.0
2192,69.0,0,114,0.0,127.0
2193,53.0,115,114,0.0,127.0
2194,56.0,0,114,0.0,127.0
2195,65.0,115,114,0.0,127.0
2196,54.0,116,114,0.0,127.0
2197,66.0,0,114,0.0,127.0
2198,71.0,0,459,0.0,127.0
2199,49.0,115,920,0.0,127.0
2200,53.0,0,114,0.0,127.0
2201,68.0,115,114,0.0,127.0
2202,68.0,115,114,0.0,127.0
2203,66.0,115,114,0.0,127.0
2204,65.0,116,114,0.0,127.0
2205,60.0,139,138,0.0,127.0
2206,66.0,115,336,0.0,127.0
2207,54.0,0,1380,0.0,127.0
2208,42.0,115,1380,0.0,127.0
2209,70.0,0,1380,0.0,127.0
2210,61.0,163,624,0.0,127.0
2211,58.0,97,96,0.0,127.0
2212,51.0,0,285,0.0,127.0
2213,67.0,0,292,0.0,127.0
2214,53.0,0,96,0.0,127.0
2215,68.0,98,96,0.0,127.0
2216,73.0,1019,488,0.0,127.0
2217,63.0,98,387,0.0,127.0
2218,55.0,98,194,0.0,127.0
2219,70.0,0,194,0.0,127.0
2220,73.0,98,96,0.0,127.0
2221,70.0,0,91,0.0,127.0
2222,75.0,98,96,0.0,127.0
2223,63.0,0,194,0.0,127.0
2224,55.0,0,194,0.0,127.0
2225,70.0,98,96,0.0,127.0
2226,71.0,98,96,0.0,127.0
2227,75.0,98,96,0.0,127.0
2228,80.0,98,96,0.0,127.0
2229,68.0,0,387,0.0,127.0
2230,56.0,0,387,0.0,127.0
2231,63.0,0,387,0.0,127.0
2232,75.0,98,96,0.0,127.0
2233,71.0,98,96,0.0,127.0
2234,75.0,97,96,0.0,127.0
2235,68.0,98,96,0.0,127.0
2236,71.0,98,47,0.0,127.0
2237,70.0,49,47,0.0,127.0
2238,56.0,98,96,0.0,127.0
2239,65.0,0,285,0.0,127.0
2240,49.0,0,292,0.0,127.0
2241,51.0,0,96,0.0,127.0
2242,66.0,98,96,0.0,127.0
2243,71.0,49,488,0.0,127.0
2244,61.0,98,387,0.0,127.0
2245,53.0,0,194,0.0,127.0
2246,68.0,98,194,0.0,127.0
2247,71.0,98,96,0.0,127.0
2248,68.0,98,91,0.0,127.0
2249,73.0,0,96,0.0,127.0
2250,68.0,98,96,0.0,127.0
2251,61.0,0,194,0.0,127.0
2252,53.0,0,194,0.0,127.0
2253,69.0,0,96,0.0,127.0
2254,73.0,98,96,0.0,127.0
2255,78.0,97,96,0.0,127.0
2256,61.0,0,387,0.0,127.0
2257,54.0,98,387,0.0,127.0
2258,66.0,0,387,0.0,127.0
2259,73.0,98,96,0.0,127.0
2260,69.0,98,96,0.0,127.0
2261,73.0,98,96,0.0,127.0
2262,66.0,98,96,0.0,127.0
2263,69.0,98,47,0.0,127.0
2264,67.0,49,47,0.0,127.0
2265,52.0,98,96,0.0,127.0
2266,61.0,0,285,0.0,127.0
2267,45.0,49,292,0.0,127.0
2268,47.0,0,96,0.0,127.0
2269,62.0,98,96,0.0,127.0
2270,67.0,0,488,0.0,127.0
2271,57.0,98,387,0.0,127.0
2272,67.0,98,96,0.0,127.0
2273,64.0,98,194,0.0,127.0
2274,49.0,0,194,0.0,127.0
2275,64.0,0,91,0.0,127.0
2276,69.0,97,96,0.0,127.0
2277,64.0,98,96,0.0,127.0
2278,57.0,0,194,0.0,127.0
2279,49.0,0,194,0.0,127.0
2280,66.0,98,96,0.0,127.0
2281,69.0,98,96,0.0,127.0
2282,74.0,98,96,0.0,127.0
2283,57.0,0,387,0.0,127.0
2284,50.0,0,387,0.0,127.0
2285,62.0,0,387,0.0,127.0
2286,69.0,98,96,0.0,127.0
2287,66.0,98,96,0.0,127.0
2288,69.0,98,96,0.0,127.0
2289,62.0,98,96,0.0,127.0
2290,69.0,98,47,0.0,127.0
2291,68.0,49,47,0.0,127.0
2292,54.0,98,96,0.0,127.0
2293,63.0,0,285,0.0,127.0
2294,47.0,0,292,0.0,127.0
2295,49.0,0,96,0.0,127.0
2296,64.0,97,96,0.0,127.0
2297,69.0,49,488,0.0,127.0
2298,59.0,98,387,0.0,127.0
2299,51.0,98,194,0.0,127.0
2300,66.0,0,194,0.0,127.0
2301,69.0,98,96,0.0,127.0
2302,66.0,0,91,0.0,127.0
2303,71.0,98,96,0.0,127.0
2304,51.0,0,194,0.0,127.0
2305,59.0,0,194,0.0,127.0
2306,66.0,98,96,0.0,127.0
2307,68.0,98,96,0.0,127.0
2308,71.0,98,96,0.0,127.0
2309,76.0,98,96,0.0,127.0
2310,59.0,0,387,0.0,127.0
2311,52.0,0,387,0.0,127.0
2312,64.0,0,387,0.0,127.0
2313,71.0,98,96,0.0,127.0
2314,68.0,98,96,0.0,127.0
2315,71.0,98,96,0.0,127.0
2316,64.0,98,96,0.0,127.0
2317,71.0,97,47,0.0,127.0
2318,70.0,49,47,0.0,127.0
2319,56.0,98,96,0.0,127.0
2320,65.0,0,285,0.0,127.0
2321,49.0,0,292,0.0,127.0
2322,51.0,0,96,0.0,127.0
2323,66.0,98,96,0.0,127.0
2324,71.0,49,488,0.0,127.0
2325,61.0,98,387,0.0,127.0
2326,53.0,0,194,0.0,127.0
2327,68.0,98,194,0.0,127.0
2328,71.0,98,96,0.0,127.0
2329,68.0,0,91,0.0,127.0
2330,73.0,0,96,0.0,127.0
2331,68.0,98,96,0.0,127.0
2332,61.0,0,194,0.0,127.0
2333,53.0,98,194,0.0,127.0
2334,69.0,98,96,0.0,127.0
2335,73.0,98,96,0.0,127.0
2336,78.0,98,96,0.0,127.0
2337,54.0,0,387,0.0,127.0
2338,66.0,0,387,0.0,127.0
2339,61.0,0,387,0.0,127.0
2340,73.0,98,96,0.0,127.0
2341,69.0,97,96,0.0,127.0
2342,73.0,98,96,0.0,127.0
2343,66.0,98,96,0.0,127.0
2344,78.0,98,47,0.0,127.0
2345,76.0,49,47,0.0,127.0
2346,61.0,96,95,0.0,127.0
2347,70.0,49,280,0.0,127.0
2348,54.0,0,287,0.0,127.0
2349,56.0,0,95,0.0,127.0
2350,71.0,96,95,0.0,127.0
2351,76.0,0,479,0.0,127.0
2352,66.0,96,380,0.0,127.0
2353,73.0,96,191,0.0,127.0
2354,76.0,96,95,0.0,127.0
2355,58.0,0,191,0.0,127.0
2356,73.0,0,90,0.0,127.0
2357,78.0,96,95,0.0,127.0
2358,73.0,96,95,0.0,127.0
2359,66.0,0,191,0.0,127.0
2360,58.0,0,191,0.0,127.0
2361,74.0,96,95,0.0,127.0
2362,78.0,96,95,0.0,127.0
2363,83.0,96,95,0.0,127.0
2364,66.0,0,380,0.0,127.0
2365,59.0,0,380,0.0,127.0
2366,71.0,0,380,0.0,127.0
2367,78.0,96,95,0.0,127.0
2368,74.0,96,95,0.0,127.0
2369,78.0,96,95,0.0,127.0
2370,71.0,96,95,0.0,127.0
2371,78.0,96,47,0.0,127.0
2372,77.0,48,47,0.0,127.0
2373,63.0,96,95,0.0,127.0
2374,72.0,0,280,0.0,127.0
2375,56.0,0,287,0.0,127.0
2376,58.0,0,95,0.0,127.0
2377,73.0,96,95,0.0,127.0
2378,78.0,48,479,0.0,127.0
2379,68.0,96,380,0.0,127.0
2380,60.0,0,191,0.0,127.0
2381,75.0,96,191,0.0,127.0
2382,78.0,96,95,0.0,127.0
2383,75.0,0,90,0.0,127.0
2384,80.0,96,95,0.0,127.0
2385,75.0,96,95,0.0,127.0
2386,68.0,0,191,0.0,127.0
2387,60.0,0,191,0.0,127.0
2388,61.0,96,95,0.0,127.0
2389,68.0,0,190,0.0,127.0
2390,64.0,96,95,0.0,127.0
2391,73.0,0,380,0.0,127.0
2392,76.0,0,380,0.0,127.0
2393,68.0,96,190,0.0,127.0
2394,64.0,96,95,0.0,127.0
2395,61.0,96,95,0.0,127.0
2396,64.0,96,95,0.0,127.0
2397,56.0,96,95,0.0,127.0
2398,61.0,96,47,0.0,127.0
2399,59.0,48,47,0.0,127.0
2400,68.0,94,93,0.0,127.0
2401,73.0,94,93,0.0,127.0
2402,77.0,0,281,0.0,127.0
2403,75.0,94,93,0.0,127.0
2404,78.0,0,93,0.0,127.0
2405,59.0,48,464,0.0,127.0
2406,77.0,0,187,0.0,127.0
2407,73.0,94,187,0.0,127.0
2408,59.0,94,93,0.0,127.0
2409,80.0,0,187,0.0,127.0
2410,61.0,94,93,0.0,127.0
2411,73.0,0,187,0.0,127.0
2412,77.0,0,187,0.0,127.0
2413,56.0,94,93,0.0,127.0
2414,80.0,0,187,0.0,127.0
2415,57.0,94,93,0.0,127.0
2416,80.0,0,187,0.0,127.0
2417,61.0,95,93,0.0,127.0
2418,66.0,94,93,0.0,127.0
2419,73.0,0,372,0.0,127.0
2420,78.0,0,186,0.0,127.0
2421,61.0,94,93,0.0,127.0
2422,57.0,94,93,0.0,127.0
2423,61.0,94,93,0.0,127.0
2424,54.0,94,93,0.0,127.0
2425,57.0,94,46,0.0,127.0
2426,56.0,47,46,0.0,127.0
2427,66.0,95,93,0.0,127.0
2428,75.0,0,281,0.0,127.0
2429,71.0,94,93,0.0,127.0
2430,76.0,0,93,0.0,127.0
2431,73.0,94,93,0.0,127.0
2432,57.0,47,469,0.0,127.0
2433,57.0,94,93,0.0,127.0
2434,78.0,0,187,0.0,127.0
2435,75.0,0,187,0.0,127.0
2436,71.0,94,187,0.0,127.0
2437,59.0,0,93,0.0,127.0
2438,54.0,94,93,0.0,127.0
2439,75.0,94,187,0.0,127.0
2440,78.0,0,187,0.0,127.0
2441,71.0,0,187,0.0,127.0
2442,56.0,94,93,0.0,127.0
2443,78.0,0,187,0.0,127.0
2444,59.0,94,93,0.0,127.0
2445,64.0,0,93,0.0,127.0
2446,71.0,0,372,0.0,127.0
2447,76.0,95,186,0.0,127.0
2448,59.0,94,93,0.0,127.0
2449,56.0,94,93,0.0,127.0
2450,59.0,94,93,0.0,127.0
2451,52.0,94,93,0.0,127.0
2452,56.0,94,46,0.0,127.0
2453,54.0,47,46,0.0,127.0
2454,63.0,94,93,0.0,127.0
2455,72.0,0,281,0.0,127.0
2456,68.0,95,93,0.0,127.0
2457,73.0,0,93,0.0,127.0
2458,70.0,94,93,0.0,127.0
2459,54.0,47,469,0.0,127.0
2460,54.0,94,93,0.0,127.0
2461,75.0,0,187,0.0,127.0
2462,72.0,94,187,0.0,127.0
2463,68.0,0,187,0.0,127.0
2464,56.0,94,93,0.0,127.0
2465,72.0,0,187,0.0,127.0
2466,68.0,0,187,0.0,127.0
2467,51.0,94,93,0.0,127.0
2468,75.0,0,187,0.0,127.0
2469,52.0,0,93,0.0,127.0
2470,56.0,94,93,0.0,127.0
2471,75.0,94,187,0.0,127.0
2472,61.0,94,93,0.0,127.0
2473,68.0,0,372,0.0,127.0
2474,73.0,0,186,0.0,127.0
2475,56.0,95,93,0.0,127.0
2476,52.0,94,93,0.0,127.0
2477,56.0,94,93,0.0,127.0
2478,49.0,94,93,0.0,127.0
2479,52.0,94,46,0.0,127.0
2480,51.0,47,46,0.0,127.0
2481,61.0,94,93,0.0,127.0
2482,70.0,0,274,0.0,127.0
2483,66.0,94,93,0.0,127.0
2484,68.0,95,93,0.0,127.0
2485,71.0,0,93,0.0,127.0
2486,52.0,47,461,0.0,127.0
2487,73.0,0,187,0.0,127.0
2488,66.0,94,187,0.0,127.0
2489,52.0,94,93,0.0,127.0
2490,70.0,0,187,0.0,127.0
2491,54.0,94,93,0.0,127.0
2492,66.0,0,187,0.0,127.0
2493,70.0,0,187,0.0,127.0
2494,49.0,94,93,0.0,127.0
2495,73.0,0,187,0.0,127.0
2496,50.0,94,93,0.0,127.0
2497,54.0,94,93,0.0,127.0
2498,73.0,0,187,0.0,127.0
2499,59.0,94,93,0.0,127.0
2500,66.0,0,372,0.0,127.0
2501,71.0,0,186,0.0,127.0
2502,54.0,94,93,0.0,127.0
2503,50.0,95,93,0.0,127.0
2504,54.0,94,93,0.0,127.0
2505,47.0,94,93,0.0,127.0
2506,50.0,94,46,0.0,127.0
2507,46.0,47,46,0.0,127.0
2508,56.0,94,93,0.0,127.0
2509,65.0,0,281,0.0,127.0
2510,61.0,94,93,0.0,127.0
2511,66.0,0,93,0.0,127.0
2512,63.0,94,93,0.0,127.0
2513,47.0,47,463,0.0,127.0
2514,47.0,94,93,0.0,127.0
2515,65.0,0,187,0.0,127.0
2516,68.0,0,187,0.0,127.0
2517,61.0,95,187,0.0,127.0
2518,49.0,0,93,0.0,127.0
2519,44.0,94,93,0.0,127.0
2520,68.0,94,187,0.0,127.0
2521,65.0,0,187,0.0,127.0
2522,61.0,0,187,0.0,127.0
2523,45.0,94,93,0.0,127.0
2524,68.0,0,187,0.0,127.0
2525,49.0,94,93,0.0,127.0
2526,54.0,0,93,0.0,127.0
2527,61.0,0,372,0.0,127.0
2528,66.0,94,186,0.0,127.0
2529,49.0,94,93,0.0,127.0
2530,45.0,94,93,0.0,127.0
2531,49.0,95,93,0.0,127.0
2532,42.0,94,93,0.0,127.0
2533,45.0,94,46,0.0,127.0
2534,44.0,47,46,0.0,127.0
2535,54.0,94,93,0.0,127.0
2536,59.0,94,93,0.0,127.0
2537,63.0,0,281,0.0,127.0
2538,64.0,0,93,0.0,127.0
2539,61.0,94,93,0.0,127.0
2540,45.0,47,469,0.0,127.0
2541,59.0,94,187,0.0,127.0
2542,63.0,0,187,0.0,127.0
2543,66.0,0,187,0.0,127.0
2544,45.0,95,93,0.0,127.0
2545,47.0,94,93,0.0,127.0
2546,42.0,94,93,0.0,127.0
2547,63.0,0,187,0.0,127.0
2548,66.0,0,187,0.0,127.0
2549,59.0,0,187,0.0,127.0
2550,44.0,0,93,0.0,127.0
2551,47.0,94,93,0.0,127.0
2552,66.0,94,187,0.0,127.0
2553,52.0,94,93,0.0,127.0
2554,59.0,0,372,0.0,127.0
2555,64.0,0,186,0.0,127.0
2556,47.0,94,93,0.0,127.0
2557,44.0,94,93,0.0,127.0
2558,47.0,94,93,0.0,127.0
2559,40.0,95,93,0.0,127.0
2560,52.0,94,46,0.0,127.0
2561,50.0,47,44,0.0,127.0
2562,59.0,92,91,0.0,127.0
2563,64.0,92,91,0.0,127.0
2564,68.0,45,275,0.0,127.0
2565,69.0,92,91,0.0,127.0
2566,66.0,0,91,0.0,127.0
2567,50.0,0,460,0.0,127.0
2568,50.0,92,91,0.0,127.0
2569,64.0,0,183,0.0,127.0
2570,71.0,0,183,0.0,127.0
2571,68.0,93,183,0.0,127.0
2572,52.0,0,91,0.0,127.0
2573,68.0,92,183,0.0,127.0
2574,64.0,0,183,0.0,127.0
2575,71.0,0,183,0.0,127.0
2576,47.0,93,91,0.0,127.0
2577,49.0,0,91,0.0,127.0
2578,52.0,92,91,0.0,127.0
2579,71.0,0,183,0.0,127.0
2580,68.0,92,183,0.0,127.0
2581,57.0,0,91,0.0,127.0
2582,64.0,0,365,0.0,127.0
2583,69.0,93,182,0.0,127.0
2584,52.0,92,91,0.0,127.0
2585,49.0,92,91,0.0,127.0
2586,52.0,93,91,0.0,127.0
2587,45.0,92,91,0.0,127.0
2588,52.0,92,45,0.0,127.0
2589,51.0,46,45,0.0,127.0
2590,61.0,93,91,0.0,127.0
2591,70.0,0,275,0.0,127.0
2592,66.0,92,91,0.0,127.0
2593,68.0,0,91,0.0,127.0
2594,71.0,92,91,0.0,127.0
2595,52.0,46,460,0.0,127.0
2596,66.0,0,183,0.0,127.0
2597,73.0,0,183,0.0,127.0
2598,52.0,92,91,0.0,127.0
2599,70.0,93,183,0.0,127.0
2600,54.0,92,91,0.0,127.0
2601,70.0,0,183,0.0,127.0
2602,66.0,0,183,0.0,127.0
2603,73.0,0,183,0.0,127.0
2604,49.0,93,91,0.0,127.0
2605,50.0,0,91,0.0,127.0
2606,54.0,92,91,0.0,127.0
2607,73.0,92,183,0.0,127.0
2608,59.0,93,91,0.0,127.0
2609,66.0,0,365,0.0,127.0
2610,71.0,0,182,0.0,127.0
2611,54.0,92,91,0.0,127.0
2612,50.0,92,91,0.0,127.0
2613,54.0,92,91,0.0,127.0
2614,47.0,93,91,0.0,127.0
2615,54.0,92,45,0.0,127.0
2616,53.0,46,45,0.0,127.0
2617,63.0,93,91,0.0,127.0
2618,72.0,0,275,0.0,127.0
2619,68.0,92,91,0.0,127.0
2620,70.0,0,91,0.0,127.0
2621,73.0,92,91,0.0,127.0
2622,54.0,46,460,0.0,127.0
2623,75.0,93,183,0.0,127.0
2624,72.0,0,183,0.0,127.0
2625,68.0,0,183,0.0,127.0
2626,54.0,92,91,0.0,127.0
2627,56.0,0,91,0.0,127.0
2628,75.0,92,183,0.0,127.0
2629,68.0,0,183,0.0,127.0
2630,72.0,0,183,0.0,127.0
2631,51.0,93,91,0.0,127.0
2632,52.0,0,91,0.0,127.0
2633,56.0,92,91,0.0,127.0
2634,75.0,92,183,0.0,127.0
2635,61.0,0,91,0.0,127.0
2636,68.0,0,365,0.0,127.0
2637,73.0,92,182,0.0,127.0
2638,56.0,93,91,0.0,127.0
2639,52.0,92,91,0.0,127.0
2640,56.0,92,91,0.0,127.0
2641,49.0,93,91,0.0,127.0
2642,55.0,92,45,0.0,127.0
2643,54.0,46,45,0.0,127.0
2644,64.0,93,91,0.0,127.0
2645,73.0,46,275,0.0,127.0
2646,69.0,92,91,0.0,127.0
2647,71.0,0,91,0.0,127.0
2648,74.0,92,91,0.0,127.0
2649,55.0,0,460,0.0,127.0
2650,55.0,92,91,0.0,127.0
2651,69.0,93,183,0.0,127.0
2652,76.0,0,183,0.0,127.0
2653,73.0,0,183,0.0,127.0
2654,57.0,0,91,0.0,127.0
2655,76.0,0,183,0.0,127.0
2656,73.0,92,183,0.0,127.0
2657,69.0,0,183,0.0,127.0
2658,52.0,92,91,0.0,127.0
2659,54.0,0,91,0.0,127.0
2660,57.0,92,91,0.0,127.0
2661,73.0,0,183,0.0,127.0
2662,76.0,93,183,0.0,127.0
2663,62.0,0,91,0.0,127.0
2664,69.0,0,365,0.0,127.0
2665,74.0,92,182,0.0,127.0
2666,57.0,93,91,0.0,127.0
2667,54.0,92,91,0.0,127.0
2668,57.0,92,91,0.0,127.0
2669,50.0,93,91,0.0,127.0
2670,57.0,92,45,0.0,127.0
2671,56.0,46,45,0.0,127.0
2672,66.0,93,91,0.0,127.0
2673,75.0,46,275,0.0,127.0
2674,71.0,92,91,0.0,127.0
2675,73.0,0,91,0.0,127.0
2676,76.0,92,91,0.0,127.0
2677,57.0,0,460,0.0,127.0
2678,75.0,92,183,0.0,127.0
2679,71.0,0,183,0.0,127.0
2680,78.0,0,183,0.0,127.0
2681,57.0,93,91,0.0,127.0
2682,59.0,92,91,0.0,127.0
2683,54.0,92,91,0.0,127.0
2684,71.0,0,183,0.0,127.0
2685,78.0,0,183,0.0,127.0
2686,75.0,0,183,0.0,127.0
2687,56.0,0,91,0.0,127.0
2688,78.0,93,183,0.0,127.0
2689,59.0,92,91,0.0,127.0
2690,64.0,92,91,0.0,127.0
2691,71.0,0,365,0.0,127.0
2692,76.0,0,182,0.0,127.0
2693,59.0,93,91,0.0,127.0
2694,56.0,92,91,0.0,127.0
2695,59.0,92,91,0.0,127.0
2696,52.0,93,91,0.0,127.0
2697,59.0,92,45,0.0,127.0
2698,58.0,46,45,0.0,127.0
2699,68.0,92,91,0.0,127.0
2700,77.0,46,275,0.0,127.0
2701,73.0,93,91,0.0,127.0
2702,75.0,0,91,0.0,127.0
2703,78.0,92,91,0.0,127.0
2704,59.0,0,460,0.0,127.0
2705,77.0,92,183,0.0,127.0
2706,73.0,0,183,0.0,127.0
2707,80.0,0,183,0.0,127.0
2708,59.0,93,91,0.0,127.0
2709,61.0,0,91,0.0,127.0
2710,56.0,92,91,0.0,127.0
2711,73.0,0,183,0.0,127.0
2712,77.0,0,183,0.0,127.0
2713,80.0,92,183,0.0,127.0
2714,57.0,93,91,0.0,127.0
2715,61.0,92,91,0.0,127.0
2716,80.0,0,183,0.0,127.0
2717,77.0,0,183,0.0,127.0
2718,66.0,0,91,0.0,127.0
2719,73.0,0,365,0.0,127.0
2720,78.0,92,182,0.0,127.0
2721,61.0,93,91,0.0,127.0
2722,57.0,92,91,0.0,127.0
2723,61.0,92,91,0.0,127.0
2724,76.0,93,45,0.0,127.0
2725,54.0,92,170,0.0,127.0
2726,75.0,46,45,0.0,127.0
2727,70.0,0,93,0.0,127.0
2728,61.0,94,93,0.0,127.0
2729,54.0,34,281,0.0,127.0
2730,66.0,94,93,0.0,127.0
2731,71.0,0,93,0.0,127.0
2732,56.0,94,93,0.0,127.0
2733,76.0,0,469,0.0,127.0
2734,76.0,94,93,0.0,127.0
2735,73.0,0,187,0.0,127.0
2736,58.0,94,187,0.0,127.0
2737,73.0,0,88,0.0,127.0
2738,78.0,0,93,0.0,127.0
2739,73.0,94,93,0.0,127.0
2740,66.0,0,187,0.0,127.0
2741,58.0,94,187,0.0,127.0
2742,74.0,0,93,0.0,127.0
2743,78.0,95,93,0.0,127.0
2744,83.0,94,93,0.0,127.0
2745,71.0,0,372,0.0,127.0
2746,66.0,0,372,0.0,127.0
2747,59.0,94,372,0.0,127.0
2748,78.0,94,93,0.0,127.0
2749,74.0,94,93,0.0,127.0
2750,78.0,94,93,0.0,127.0
2751,71.0,94,93,0.0,127.0
2752,73.0,94,46,0.0,127.0
2753,70.0,47,46,0.0,127.0
2754,71.0,0,190,0.0,127.0
2755,56.0,96,95,0.0,127.0
2756,77.0,0,287,0.0,127.0
2757,49.0,48,287,0.0,127.0
2758,78.0,0,95,0.0,127.0
2759,51.0,96,95,0.0,127.0
2760,61.0,96,287,0.0,127.0
2761,71.0,96,95,0.0,127.0
2762,53.0,96,191,0.0,127.0
2763,61.0,96,95,0.0,127.0
2764,73.0,0,95,0.0,127.0
2765,68.0,96,95,0.0,127.0
2766,53.0,0,191,0.0,127.0
2767,80.0,0,479,0.0,127.0
2768,73.0,96,95,0.0,127.0
2769,78.0,96,95,0.0,127.0
2770,54.0,96,380,0.0,127.0
2771,61.0,0,380,0.0,127.0
2772,69.0,0,380,0.0,127.0
2773,73.0,96,95,0.0,127.0
2774,69.0,96,95,0.0,127.0
2775,73.0,96,95,0.0,127.0
2776,66.0,96,95,0.0,127.0
2777,69.0,96,47,0.0,127.0
2778,67.0,48,47,0.0,127.0
2779,62.0,0,96,0.0,127.0
2780,50.0,97,96,0.0,127.0
2781,55.0,98,96,0.0,127.0
2782,47.0,48,292,0.0,127.0
2783,49.0,0,96,0.0,127.0
2784,58.0,0,96,0.0,127.0
2785,64.0,98,96,0.0,127.0
2786,67.0,0,488,0.0,127.0
2787,66.0,98,96,0.0,127.0
2788,50.0,98,194,0.0,127.0
2789,59.0,0,194,0.0,127.0
2790,71.0,98,96,0.0,127.0
2791,59.0,0,194,0.0,127.0
2792,66.0,98,96,0.0,127.0
2793,50.0,0,194,0.0,127.0
2794,54.0,0,194,0.0,127.0
2795,65.0,0,96,0.0,127.0
2796,68.0,98,96,0.0,127.0
2797,73.0,98,96,0.0,127.0
2798,56.0,0,387,0.0,127.0
2799,49.0,98,387,0.0,127.0
2800,59.0,0,387,0.0,127.0
2801,68.0,98,96,0.0,127.0
2802,65.0,98,96,0.0,127.0
2803,68.0,97,96,0.0,127.0
2804,61.0,98,96,0.0,127.0
2805,66.0,98,47,0.0,127.0
2806,65.0,49,47,0.0,127.0
2807,66.0,0,98,0.0,127.0
2808,69.0,100,98,0.0,127.0
2809,73.0,101,98,0.0,127.0
2810,69.0,101,98,0.0,127.0
2811,66.0,101,98,0.0,127.0
2812,69.0,101,48,0.0,127.0
2813,66.0,50,48,0.0,127.0
2814,61.0,0,603,0.0,127.0
2815,66.0,101,48,0.0,127.0
2816,61.0,51,198,0.0,127.0
2817,65.0,50,48,0.0,127.0
2818,45.0,49,805,0.0,127.0
2819,54.0,0,805,0.0,127.0
2820,57.0,0,805,0.0,127.0
2821,66.0,0,98,0.0,127.0
2822,69.0,100,98,0.0,127.0
2823,73.0,101,98,0.0,127.0
2824,69.0,101,98,0.0,127.0
2825,66.0,101,98,0.0,127.0
2826,69.0,101,48,0.0,127.0
2827,66.0,50,48,0.0,127.0
2828,61.0,51,98,0.0,127.0
2829,66.0,101,48,0.0,127.0
2830,65.0,50,48,0.0,127.0
2831,62.0,0,805,0.0,127.0
2832,47.0,51,805,0.0,127.0
2833,54.0,0,805,0.0,127.0
2834,57.0,0,805,0.0,127.0
2835,66.0,51,98,0.0,127.0
2836,68.0,100,98,0.0,127.0
2837,71.0,101,98,0.0,127.0
2838,57.0,0,398,0.0,127.0
2839,61.0,0,398,0.0,127.0
2840,49.0,0,398,0.0,127.0
2841,54.0,0,398,0.0,127.0
2842,68.0,101,98,0.0,127.0
2843,65.0,101,98,0.0,127.0
2844,68.0,101,48,0.0,127.0
2845,65.0,50,48,0.0,127.0
2846,61.0,0,98,0.0,127.0
2847,66.0,101,48,0.0,127.0
2848,65.0,50,48,0.0,127.0
2849,49.0,51,199,0.0,127.0
2850,56.0,0,199,0.0,127.0
2851,59.0,0,199,0.0,127.0
2852,66.0,0,103,0.0,127.0
2853,69.0,105,51,0.0,127.0
2854,66.0,53,51,0.0,127.0
2855,61.0,53,103,0.0,127.0
2856,66.0,106,51,0.0,127.0
2857,65.0,52,51,0.0,127.0
2858,54.0,0,422,0.0,127.0
2859,49.0,0,422,0.0,127.0
2860,42.0,51,422,0.0,127.0
2861,57.0,0,422,0.0,127.0
2862,66.0,54,103,0.0,127.0
2863,69.0,106,51,0.0,127.0
2864,66.0,52,51,0.0,127.0
2865,61.0,53,103,0.0,127.0
2866,66.0,106,51,0.0,127.0
2867,65.0,53,51,0.0,127.0
2868,45.0,0,422,0.0,127.0
2869,54.0,0,422,0.0,127.0
2870,49.0,0,422,0.0,127.0
2871,57.0,0,422,0.0,127.0
2872,66.0,53,103,0.0,127.0
2873,69.0,106,51,0.0,127.0
2874,66.0,52,51,0.0,127.0
2875,61.0,54,103,0.0,127.0
2876,66.0,106,51,0.0,127.0
2877,50.0,0,422,0.0,127.0
2878,57.0,0,422,0.0,127.0
2879,54.0,0,422,0.0,127.0
2880,65.0,53,51,0.0,127.0
2881,47.0,0,422,0.0,127.0
2882,66.0,53,103,0.0,127.0
2883,69.0,106,51,0.0,127.0
2884,66.0,52,51,0.0,127.0
2885,57.0,0,210,0.0,127.0
2886,61.0,0,103,0.0,127.0
2887,64.0,106,51,0.0,127.0
2888,49.0,0,418,0.0,127.0
2889,63.0,52,51,0.0,127.0
2890,56.0,54,210,0.0,127.0
2891,49.0,107,105,0.0,127.0
2892,58.0,0,313,0.0,127.0
2893,42.0,53,321,0.0,127.0
2894,59.0,108,105,0.0,127.0
2895,44.0,0,105,0.0,127.0
2896,64.0,0,537,0.0,127.0
2897,54.0,108,426,0.0,127.0
2898,61.0,0,213,0.0,127.0
2899,46.0,108,213,0.0,127.0
2900,64.0,108,105,0.0,127.0
2901,61.0,0,98,0.0,127.0
2902,66.0,109,105,0.0,127.0
2903,54.0,0,213,0.0,127.0
2904,46.0,0,213,0.0,127.0
2905,61.0,109,105,0.0,127.0
2906,62.0,107,105,0.0,127.0
2907,66.0,108,105,0.0,127.0
2908,71.0,108,105,0.0,127.0
2909,47.0,0,426,0.0,127.0
2910,54.0,0,426,0.0,127.0
2911,59.0,0,426,0.0,127.0
2912,66.0,108,105,0.0,127.0
2913,62.0,108,105,0.0,127.0
2914,66.0,107,51,0.0,127.0
2915,62.0,54,51,0.0,127.0
2916,59.0,55,105,0.0,127.0
2917,61.0,108,51,0.0,127.0
2918,58.0,54,51,0.0,127.0
2919,44.0,109,106,0.0,127.0
2920,56.0,0,319,0.0,127.0
2921,37.0,0,326,0.0,127.0
2922,39.0,0,106,0.0,127.0
2923,54.0,110,106,0.0,127.0
2924,59.0,54,546,0.0,127.0
2925,49.0,111,433,0.0,127.0
2926,56.0,110,216,0.0,127.0
2927,41.0,0,216,0.0,127.0
2928,59.0,111,106,0.0,127.0
2929,56.0,0,99,0.0,127.0
2930,61.0,110,106,0.0,127.0
2931,56.0,110,106,0.0,127.0
2932,49.0,0,216,0.0,127.0
2933,41.0,0,216,0.0,127.0
2934,57.0,0,106,0.0,127.0
2935,61.0,110,106,0.0,127.0
2936,66.0,110,106,0.0,127.0
2937,42.0,0,433,0.0,127.0
2938,49.0,111,433,0.0,127.0
2939,54.0,0,433,0.0,127.0
2940,61.0,111,106,0.0,127.0
2941,57.0,110,106,0.0,127.0
2942,61.0,109,51,0.0,127.0
2943,57.0,55,51,0.0,127.0
2944,54.0,55,106,0.0,127.0
2945,57.0,111,51,0.0,127.0
2946,56.0,54,51,0.0,127.0
2947,57.0,0,114,0.0,127.0
2948,66.0,119,55,0.0,127.0
2949,65.0,61,55,0.0,127.0
2950,66.0,61,119,0.0,127.0
2951,36.0,56,464,0.0,127.0
2952,57.0,123,119,0.0,127.0
2953,56.0,123,241,0.0,127.0
2954,66.0,131,241,0.0,127.0
2955,37.0,0,487,0.0,127.0
2956,61.0,147,320,0.0,127.0
2957,49.0,0,320,0.0,127.0
2958,59.0,0,382,0.0,127.0
2959,65.0,180,224,0.0,127.0
2960,42.0,0,575,0.0,127.0
2961,58.0,208,575,0.0,127.0
2962,61.0,0,575,0.0,127.0
2963,66.0,0,575,0.0,127.0
2964,49.0,0,575,0.0,127.0
2965,66.0,596,191,0.0,127.0
2966,66.0,192,191,0.0,127.0
2967,65.0,192,191,0.0,127.0
2968,64.0,192,191,0.0,127.0
2969,64.0,192,191,0.0,127.0
2970,63.0,192,191,0.0,127.0
2971,62.0,192,191,0.0,127.0
2972,62.0,192,191,0.0,127.0
2973,61.0,192,95,0.0,127.0
2974,59.0,96,95,0.0,127.0
2975,61.0,0,95,0.0,127.0
2976,73.0,96,191,0.0,127.0
2977,63.0,96,95,0.0,127.0
2978,64.0,0,95,0.0,127.0
2979,73.0,96,191,0.0,127.0
2980,61.0,96,95,0.0,127.0
2981,63.0,96,191,0.0,127.0
2982,72.0,0,191,0.0,127.0
2983,68.0,0,95,0.0,127.0
2984,66.0,96,95,0.0,127.0
2985,71.0,192,191,0.0,127.0
2986,68.0,0,191,0.0,127.0
2987,71.0,96,191,0.0,127.0
2988,61.0,192,191,0.0,127.0
2989,70.0,0,191,0.0,127.0
2990,66.0,0,95,0.0,127.0
2991,69.0,192,191,0.0,127.0
2992,65.0,96,95,0.0,127.0
2993,69.0,96,191,0.0,127.0
2994,66.0,0,280,0.0,127.0
2995,68.0,192,95,0.0,127.0
2996,66.0,96,95,0.0,127.0
2997,68.0,96,95,0.0,127.0
2998,69.0,96,95,0.0,127.0
2999,71.0,96,95,0.0,127.0
3000,68.0,96,95,0.0,127.0
3001,65.0,0,383,0.0,127.0
3002,69.0,0,95,0.0,127.0
3003,68.0,96,95,0.0,127.0
3004,66.0,96,191,0.0,127.0
3005,66.0,96,95,0.0,127.0
3006,57.0,0,191,0.0,127.0
3007,68.0,96,95,0.0,127.0
3008,54.0,0,191,0.0,127.0
3009,69.0,96,95,0.0,127.0
3010,66.0,96,95,0.0,127.0
3011,54.0,0,191,0.0,127.0
3012,62.0,0,383,0.0,127.0
3013,68.0,96,191,0.0,127.0
3014,53.0,0,191,0.0,127.0
3015,73.0,0,95,0.0,127.0
3016,71.0,96,95,0.0,127.0
3017,52.0,192,191,0.0,127.0
3018,56.0,0,191,0.0,127.0
3019,61.0,96,191,0.0,127.0
3020,52.0,0,191,0.0,127.0
3021,73.0,0,191,0.0,127.0
3022,51.0,192,191,0.0,127.0
3023,54.0,0,191,0.0,127.0
3024,66.0,0,191,0.0,127.0
3025,71.0,192,95,0.0,127.0
3026,50.0,0,191,0.0,127.0
3027,70.0,96,95,0.0,127.0
3028,50.0,0,191,0.0,127.0
3029,71.0,96,191,0.0,127.0
3030,59.0,0,479,0.0,127.0
3031,65.0,192,191,0.0,127.0
3032,49.0,0,191,0.0,127.0
3033,59.0,96,95,0.0,127.0
3034,57.0,0,95,0.0,127.0
3035,56.0,96,95,0.0,127.0
3036,57.0,96,95,0.0,127.0
3037,54.0,96,95,0.0,127.0
3038,50.0,0,383,0.0,127.0
3039,66.0,96,479,0.0,127.0
3040,66.0,96,95,0.0,127.0
3041,47.0,96,191,0.0,127.0
3042,56.0,0,191,0.0,127.0
3043,65.0,96,95,0.0,127.0
3044,66.0,96,95,0.0,127.0
3045,61.0,0,191,0.0,127.0
3046,68.0,0,95,0.0,127.0
3047,59.0,96,191,0.0,127.0
3048,49.0,0,383,0.0,127.0
3049,65.0,96,95,0.0,127.0
3050,57.0,0,95,0.0,127.0
3051,59.0,96,95,0.0,127.0
3052,57.0,96,95,0.0,127.0
3053,56.0,96,95,0.0,127.0
3054,54.0,96,95,0.0,127.0
3055,50.0,0,575,0.0,127.0
3056,57.0,96,95,0.0,127.0
3057,66.0,96,671,0.0,127.0
3058,64.0,96,95,0.0,127.0
3059,66.0,96,95,0.0,127.0
3060,68.0,96,95,0.0,127.0
3061,69.0,96,95,0.0,127.0
3062,66.0,96,95,0.0,127.0
3063,51.0,96,575,0.0,127.0
3064,59.0,0,671,0.0,127.0
3065,61.0,96,95,0.0,127.0
3066,59.0,96,95,0.0,127.0
3067,57.0,96,95,0.0,127.0
3068,56.0,96,95,0.0,127.0
3069,60.0,96,95,0.0,127.0
3070,52.0,0,575,0.0,127.0
3071,68.0,96,671,0.0,127.0
3072,69.0,96,95,0.0,127.0
3073,68.0,96,95,0.0,127.0
3074,66.0,96,95,0.0,127.0
3075,64.0,96,95,0.0,127.0
3076,68.0,96,95,0.0,127.0
3077,57.0,0,575,0.0,127.0
3078,61.0,96,671,0.0,127.0
3079,58.0,96,95,0.0,127.0
3080,60.0,96,95,0.0,127.0
3081,61.0,96,95,0.0,127.0
3082,63.0,96,95,0.0,127.0
3083,51.0,96,575,0.0,127.0
3084,58.0,96,95,0.0,127.0
3085,66.0,0,671,0.0,127.0
3086,68.0,96,95,0.0,127.0
3087,66.0,96,95,0.0,127.0
3088,64.0,96,95,0.0,127.0
3089,63.0,96,95,0.0,127.0
3090,66.0,96,95,0.0,127.0
3091,56.0,96,575,0.0,127.0
3092,60.0,0,575,0.0,127.0
3093,49.0,96,95,0.0,127.0
3094,48.0,96,95,0.0,127.0
3095,61.0,0,191,0.0,127.0
3096,49.0,0,95,0.0,127.0
3097,64.0,0,383,0.0,127.0
3098,61.0,96,191,0.0,127.0
3099,51.0,96,95,0.0,127.0
3100,52.0,0,95,0.0,127.0
3101,64.0,96,191,0.0,127.0
3102,49.0,96,95,0.0,127.0
3103,61.0,0,191,0.0,127.0
3104,66.0,0,191,0.0,127.0
3105,51.0,0,191,0.0,127.0
3106,60.0,96,191,0.0,127.0
3107,56.0,0,95,0.0,127.0
3108,54.0,96,95,0.0,127.0
3109,59.0,192,191,0.0,127.0
3110,63.0,0,191,0.0,127.0
3111,59.0,0,191,0.0,127.0
3112,68.0,96,191,0.0,127.0
3113,56.0,0,191,0.0,127.0
3114,49.0,192,191,0.0,127.0
3115,58.0,0,191,0.0,127.0
3116,65.0,0,191,0.0,127.0
3117,54.0,0,95,0.0,127.0
3118,53.0,96,95,0.0,127.0
3119,57.0,0,191,0.0,127.0
3120,57.0,0,191,0.0,127.0
3121,61.0,192,383,0.0,127.0
3122,71.0,192,95,0.0,127.0
3123,73.0,96,95,0.0,127.0
3124,54.0,96,383,0.0,127.0
3125,71.0,0,95,0.0,127.0
3126,56.0,0,383,0.0,127.0
3127,69.0,96,95,0.0,127.0
3128,68.0,0,95,0.0,127.0
3129,53.0,96,383,0.0,127.0
3130,71.0,96,95,0.0,127.0
3131,54.0,0,95,0.0,127.0
3132,61.0,96,383,0.0,127.0
3133,69.0,96,191,0.0,127.0
3134,56.0,96,95,0.0,127.0
3135,54.0,0,95,0.0,127.0
3136,52.0,96,95,0.0,127.0
3137,69.0,0,191,0.0,127.0
3138,73.0,96,191,0.0,127.0
3139,50.0,0,95,0.0,127.0
3140,66.0,0,191,0.0,127.0
3141,49.0,96,95,0.0,127.0
3142,68.0,96,95,0.0,127.0
3143,66.0,96,95,0.0,127.0
3144,47.0,0,191,0.0,127.0
3145,78.0,96,383,0.0,127.0
3146,68.0,0,95,0.0,127.0
3147,44.0,0,191,0.0,127.0
3148,69.0,96,95,0.0,127.0
3149,71.0,96,95,0.0,127.0
3150,49.0,0,191,0.0,127.0
3151,77.0,96,383,0.0,127.0
3152,68.0,96,95,0.0,127.0
3153,69.0,0,95,0.0,127.0
3154,42.0,0,190,0.0,127.0
3155,78.0,96,191,0.0,127.0
3156,71.0,96,95,0.0,127.0
3157,69.0,0,95,0.0,127.0
3158,68.0,96,95,0.0,127.0
3159,78.0,96,191,0.0,127.0
3160,66.0,0,95,0.0,127.0
3161,78.0,96,191,0.0,127.0
3162,69.0,96,95,0.0,127.0
3163,68.0,96,191,0.0,127.0
3164,77.0,0,191,0.0,127.0
3165,73.0,192,95,0.0,127.0
3166,71.0,96,95,0.0,127.0
3167,76.0,0,191,0.0,127.0
3168,73.0,0,191,0.0,127.0
3169,76.0,96,191,0.0,127.0
3170,66.0,0,191,0.0,127.0
3171,75.0,192,191,0.0,127.0
3172,71.0,0,95,0.0,127.0
3173,74.0,192,191,0.0,127.0
3174,70.0,96,95,0.0,127.0
3175,74.0,96,191,0.0,127.0
3176,71.0,0,287,0.0,127.0
3177,71.0,96,95,0.0,127.0
3178,73.0,192,191,0.0,127.0
3179,69.0,0,95,0.0,127.0
3180,68.0,96,95,0.0,127.0
3181,66.0,96,95,0.0,127.0
3182,69.0,96,95,0.0,127.0
3183,78.0,96,479,0.0,127.0
3184,78.0,96,95,0.0,127.0
3185,68.0,96,191,0.0,127.0
3186,77.0,96,95,0.0,127.0
3187,78.0,96,95,0.0,127.0
3188,80.0,96,95,0.0,127.0
3189,77.0,96,95,0.0,127.0
3190,78.0,96,95,0.0,127.0
3191,75.0,96,95,0.0,127.0
3192,73.0,0,575,0.0,127.0
3193,80.0,96,95,0.0,127.0
3194,81.0,96,95,0.0,127.0
3195,80.0,96,95,0.0,127.0
3196,78.0,96,95,0.0,127.0
3197,77.0,96,95,0.0,127.0
3198,73.0,96,95,0.0,127.0
3199,71.0,0,671,0.0,127.0
3200,69.0,96,95,0.0,127.0
3201,68.0,96,95,0.0,127.0
3202,66.0,96,95,0.0,127.0
3203,68.0,96,95,0.0,127.0
3204,78.0,96,575,0.0,127.0
3205,69.0,96,95,0.0,127.0
3206,68.0,0,95,0.0,127.0
3207,66.0,96,95,0.0,127.0
3208,61.0,96,191,0.0,127.0
3209,76.0,0,191,0.0,127.0
3210,64.0,0,95,0.0,127.0
3211,66.0,96,95,0.0,127.0
3212,61.0,0,191,0.0,127.0
3213,81.0,96,383,0.0,127.0
3214,63.0,96,191,0.0,127.0
3215,60.0,0,191,0.0,127.0
3216,68.0,0,95,0.0,127.0
3217,75.0,192,191,0.0,127.0
3218,59.0,0,191,0.0,127.0
3219,66.0,96,95,0.0,127.0
3220,59.0,96,191,0.0,127.0
3221,68.0,0,191,0.0,127.0
3222,58.0,0,191,0.0,127.0
3223,61.0,192,191,0.0,127.0
3224,80.0,0,383,0.0,127.0
3225,66.0,0,95,0.0,127.0
3226,73.0,0,191,0.0,127.0
3227,65.0,96,95,0.0,127.0
3228,57.0,192,191,0.0,127.0
3229,66.0,0,191,0.0,127.0
3230,57.0,0,191,0.0,127.0
3231,60.0,192,95,0.0,127.0
3232,63.0,96,95,0.0,127.0
3233,78.0,96,383,0.0,127.0
3234,68.0,0,95,0.0,127.0
3235,56.0,0,287,0.0,127.0
3236,56.0,96,95,0.0,127.0
3237,66.0,0,95,0.0,127.0
3238,72.0,96,191,0.0,127.0
3239,57.0,0,95,0.0,127.0
3240,64.0,0,191,0.0,127.0
3241,56.0,96,95,0.0,127.0
3242,54.0,96,95,0.0,127.0
3243,56.0,96,47,0.0,127.0
3244,57.0,48,47,0.0,127.0
3245,73.0,96,383,0.0,127.0
3246,56.0,0,95,0.0,127.0
3247,66.0,0,287,0.0,127.0
3248,63.0,96,95,0.0,127.0
3249,54.0,0,95,0.0,127.0
3250,68.0,96,95,0.0,127.0
3251,66.0,96,95,0.0,127.0
3252,56.0,0,191,0.0,127.0
3253,72.0,48,383,0.0,127.0
3254,64.0,0,95,0.0,127.0
3255,61.0,96,95,0.0,127.0
3256,49.0,0,287,0.0,127.0
3257,73.0,96,380,0.0,127.0
3258,61.0,96,95,0.0,127.0
3259,59.0,96,95,0.0,127.0
3260,57.0,96,95,0.0,127.0
3261,69.0,96,479,0.0,127.0
3262,66.0,96,95,0.0,127.0
3263,74.0,96,95,0.0,127.0
3264,62.0,96,287,0.0,127.0
3265,62.0,0,95,0.0,127.0
3266,71.0,96,95,0.0,127.0
3267,59.0,0,95,0.0,127.0
3268,68.0,96,95,0.0,127.0
3269,56.0,0,95,0.0,127.0
3270,71.0,96,95,0.0,127.0
3271,61.0,96,95,0.0,127.0
3272,59.0,96,95,0.0,127.0
3273,65.0,0,191,0.0,127.0
3274,66.0,0,95,0.0,127.0
3275,57.0,0,95,0.0,127.0
3276,61.0,96,95,0.0,127.0
3277,73.0,96,191,0.0,127.0
3278,68.0,0,95,0.0,127.0
3279,66.0,0,95,0.0,127.0
3280,64.0,96,95,0.0,127.0
3281,73.0,0,191,0.0,127.0
3282,63.0,0,95,0.0,127.0
3283,66.0,96,95,0.0,127.0
3284,69.0,96,383,0.0,127.0
3285,72.0,96,191,0.0,127.0
3286,65.0,0,95,0.0,127.0
3287,68.0,0,95,0.0,127.0
3288,71.0,96,191,0.0,127.0
3289,66.0,96,95,0.0,127.0
3290,63.0,0,95,0.0,127.0
3291,65.0,0,95,0.0,127.0
3292,68.0,0,190,0.0,127.0
3293,71.0,96,191,0.0,127.0
3294,61.0,96,95,0.0,127.0
3295,64.0,96,95,0.0,127.0
3296,66.0,96,191,0.0,127.0
3297,70.0,0,191,0.0,127.0
3298,62.0,0,95,0.0,127.0
3299,66.0,0,95,0.0,127.0
3300,61.0,96,95,0.0,127.0
3301,54.0,0,191,0.0,127.0
3302,69.0,96,191,0.0,127.0
3303,64.0,0,95,0.0,127.0
3304,59.0,0,95,0.0,127.0
3305,74.0,96,191,0.0,127.0
3306,54.0,0,191,0.0,127.0
3307,57.0,96,95,0.0,127.0
3308,53.0,0,191,0.0,127.0
3309,62.0,0,383,0.0,127.0
3310,68.0,0,191,0.0,127.0
3311,59.0,96,191,0.0,127.0
3312,73.0,192,95,0.0,127.0
3313,71.0,96,95,0.0,127.0
3314,52.0,0,191,0.0,127.0
3315,52.0,96,191,0.0,127.0
3316,73.0,0,191,0.0,127.0
3317,56.0,0,383,0.0,127.0
3318,57.0,0,191,0.0,127.0
3319,61.0,0,575,0.0,127.0
3320,51.0,0,191,0.0,127.0
3321,66.0,192,191,0.0,127.0
3322,71.0,192,95,0.0,127.0
3323,50.0,0,191,0.0,127.0
3324,70.0,96,95,0.0,127.0
3325,71.0,0,191,0.0,127.0
3326,50.0,96,191,0.0,127.0
3327,54.0,0,383,0.0,127.0
3328,59.0,0,479,0.0,127.0
3329,59.0,96,95,0.0,127.0
3330,49.0,0,191,0.0,127.0
3331,61.0,0,191,0.0,127.0
3332,65.0,192,191,0.0,127.0
3333,57.0,0,95,0.0,127.0
3334,59.0,96,95,0.0,127.0
3335,50.0,0,191,0.0,127.0
3336,54.0,96,287,0.0,127.0
3337,45.0,0,191,0.0,127.0
3338,56.0,96,95,0.0,127.0
3339,61.0,96,191,0.0,127.0
3340,66.0,0,479,0.0,127.0
3341,66.0,96,95,0.0,127.0
3342,47.0,0,191,0.0,127.0
3343,57.0,0,191,0.0,127.0
3344,62.0,96,191,0.0,127.0
3345,65.0,0,95,0.0,127.0
3346,66.0,96,95,0.0,127.0
3347,61.0,0,191,0.0,127.0
3348,56.0,0,191,0.0,127.0
3349,68.0,96,95,0.0,127.0
3350,49.0,96,383,0.0,127.0
3351,69.0,96,95,0.0,127.0
3352,61.0,0,191,0.0,127.0
3353,65.0,0,191,0.0,127.0
3354,66.0,0,95,0.0,127.0
3355,69.0,96,95,0.0,127.0
3356,51.0,0,191,0.0,127.0
3357,68.0,0,95,0.0,127.0
3358,59.0,0,287,0.0,127.0
3359,61.0,0,95,0.0,127.0
3360,66.0,96,95,0.0,127.0
3361,52.0,96,191,0.0,127.0
3362,71.0,96,479,0.0,127.0
3363,68.0,0,190,0.0,127.0
3364,53.0,96,191,0.0,127.0
3365,62.0,0,191,0.0,127.0
3366,71.0,96,95,0.0,127.0
3367,68.0,96,95,0.0,127.0
3368,61.0,0,287,0.0,127.0
3369,66.0,96,95,0.0,127.0
3370,54.0,0,287,0.0,127.0
3371,59.0,0,95,0.0,127.0
3372,65.0,96,95,0.0,127.0
3373,56.0,0,95,0.0,127.0
3374,69.0,96,479,0.0,127.0
3375,66.0,96,190,0.0,127.0
3376,69.0,96,95,0.0,127.0
3377,61.0,0,191,0.0,127.0
3378,57.0,0,191,0.0,127.0
3379,66.0,96,95,0.0,127.0
3380,59.0,96,191,0.0,127.0
3381,62.0,0,191,0.0,127.0
3382,65.0,96,95,0.0,127.0
3383,59.0,0,190,0.0,127.0
3384,56.0,0,191,0.0,127.0
3385,63.0,96,95,0.0,127.0
3386,68.0,0,479,0.0,127.0
3387,69.0,96,95,0.0,127.0
3388,65.0,96,191,0.0,127.0
3389,61.0,0,191,0.0,127.0
3390,57.0,96,95,0.0,127.0
3391,54.0,0,190,0.0,127.0
3392,66.0,0,191,0.0,127.0
3393,56.0,96,95,0.0,127.0
3394,54.0,0,95,0.0,127.0
3395,53.0,96,95,0.0,127.0
3396,66.0,0,191,0.0,127.0
3397,69.0,96,191,0.0,127.0
3398,54.0,0,191,0.0,127.0
3399,66.0,0,191,0.0,127.0
3400,74.0,96,191,0.0,127.0
3401,65.0,0,191,0.0,127.0
3402,71.0,0,191,0.0,127.0
3403,56.0,192,191,0.0,127.0
3404,61.0,0,95,0.0,127.0
3405,68.0,192,191,0.0,127.0
3406,64.0,0,191,0.0,127.0
3407,59.0,96,95,0.0,127.0
3408,73.0,96,191,0.0,127.0
3409,61.0,0,191,0.0,127.0
3410,64.0,0,191,0.0,127.0
3411,54.0,0,191,0.0,127.0
3412,63.0,0,191,0.0,127.0
3413,70.0,192,191,0.0,127.0
3414,59.0,0,95,0.0,127.0
3415,66.0,192,191,0.0,127.0
3416,62.0,0,191,0.0,127.0
3417,58.0,96,95,0.0,127.0
3418,62.0,0,191,0.0,127.0
3419,71.0,96,191,0.0,127.0
3420,59.0,0,287,0.0,127.0
3421,65.0,192,191,0.0,127.0
3422,61.0,0,191,0.0,127.0
3423,59.0,96,95,0.0,127.0
3424,57.0,96,95,0.0,127.0
3425,56.0,96,95,0.0,127.0
3426,66.0,0,191,0.0,127.0
3427,57.0,0,95,0.0,127.0
3428,52.0,96,95,0.0,127.0
3429,64.0,96,191,0.0,127.0
3430,69.0,96,95,0.0,127.0
3431,54.0,0,95,0.0,127.0
3432,57.0,0,95,0.0,127.0
3433,66.0,96,95,0.0,127.0
3434,73.0,0,575,0.0,127.0
3435,56.0,0,95,0.0,127.0
3436,63.0,0,95,0.0,127.0
3437,66.0,0,95,0.0,127.0
3438,54.0,96,95,0.0,127.0
3439,56.0,0,95,0.0,127.0
3440,64.0,96,95,0.0,127.0
3441,44.0,0,95,0.0,127.0
3442,63.0,96,95,0.0,127.0
3443,72.0,96,383,0.0,127.0
3444,64.0,0,95,0.0,127.0
3445,66.0,96,95,0.0,127.0
3446,64.0,96,95,0.0,127.0
3447,49.0,0,380,0.0,127.0
3448,63.0,96,95,0.0,127.0
3449,73.0,96,383,0.0,127.0
3450,61.0,0,95,0.0,127.0
3451,64.0,96,95,0.0,127.0
3452,80.0,96,191,0.0,127.0
3453,63.0,0,95,0.0,127.0
3454,78.0,96,95,0.0,127.0
3455,64.0,0,95,0.0,127.0
3456,80.0,96,95,0.0,127.0
3457,63.0,96,95,0.0,127.0
3458,78.0,0,95,0.0,127.0
3459,61.0,0,95,0.0,127.0
3460,76.0,96,95,0.0,127.0
3461,60.0,0,95,0.0,127.0
3462,75.0,96,95,0.0,127.0
3463,56.0,0,191,0.0,127.0
3464,78.0,96,95,0.0,127.0
3465,63.0,0,95,0.0,127.0
3466,63.0,96,95,0.0,127.0
3467,61.0,96,191,0.0,127.0
3468,76.0,0,191,0.0,127.0
3469,61.0,0,95,0.0,127.0
3470,73.0,96,191,0.0,127.0
3471,64.0,0,191,0.0,127.0
3472,59.0,96,95,0.0,127.0
3473,57.0,0,95,0.0,127.0
3474,61.0,96,95,0.0,127.0
3475,78.0,0,191,0.0,127.0
3476,59.0,0,95,0.0,127.0
3477,69.0,96,383,0.0,127.0
3478,75.0,96,191,0.0,127.0
3479,61.0,96,95,0.0,127.0
3480,59.0,0,95,0.0,127.0
3481,57.0,96,95,0.0,127.0
3482,63.0,96,191,0.0,127.0
3483,71.0,0,191,0.0,127.0
3484,56.0,96,95,0.0,127.0
3485,59.0,96,95,0.0,127.0
3486,76.0,0,191,0.0,127.0
3487,57.0,96,95,0.0,127.0
3488,73.0,0,191,0.0,127.0
3489,68.0,0,383,0.0,127.0
3490,59.0,96,95,0.0,127.0
3491,57.0,0,95,0.0,127.0
3492,69.0,96,191,0.0,127.0
3493,61.0,0,191,0.0,127.0
3494,56.0,96,95,0.0,127.0
3495,54.0,96,95,0.0,127.0
3496,57.0,96,95,0.0,127.0
3497,75.0,0,191,0.0,127.0
3498,56.0,0,95,0.0,127.0
3499,72.0,96,191,0.0,127.0
3500,57.0,96,95,0.0,127.0
3501,66.0,0,383,0.0,127.0
3502,56.0,0,95,0.0,127.0
3503,54.0,96,95,0.0,127.0
3504,64.0,96,191,0.0,127.0
3505,52.0,0,95,0.0,127.0
3506,56.0,96,95,0.0,127.0
3507,68.0,96,191,0.0,127.0
3508,54.0,96,95,0.0,127.0
3509,56.0,96,95,0.0,127.0
3510,69.0,0,191,0.0,127.0
3511,73.0,0,575,0.0,127.0
3512,54.0,0,95,0.0,127.0
3513,52.0,96,95,0.0,127.0
3514,51.0,96,95,0.0,127.0
3515,54.0,96,95,0.0,127.0
3516,63.0,0,383,0.0,127.0
3517,72.0,96,383,0.0,127.0
3518,52.0,96,95,0.0,127.0
3519,61.0,0,191,0.0,127.0
3520,54.0,96,95,0.0,127.0
3521,52.0,96,95,0.0,127.0
3522,68.0,0,191,0.0,127.0
3523,73.0,0,383,0.0,127.0
3524,51.0,96,95,0.0,127.0
3525,56.0,0,191,0.0,127.0
3526,49.0,0,95,0.0,127.0
3527,56.0,0,191,0.0,127.0
3528,52.0,96,95,0.0,127.0
3529,73.0,0,191,0.0,127.0
3530,51.0,0,95,0.0,127.0
3531,52.0,96,95,0.0,127.0
3532,55.0,96,191,0.0,127.0
3533,70.0,0,191,0.0,127.0
3534,76.0,96,383,0.0,127.0
3535,51.0,0,95,0.0,127.0
3536,49.0,96,95,0.0,127.0
3537,54.0,96,191,0.0,127.0
3538,69.0,0,191,0.0,127.0
3539,48.0,0,95,0.0,127.0
3540,51.0,96,95,0.0,127.0
3541,54.0,0,191,0.0,127.0
3542,49.0,96,95,0.0,127.0
3543,68.0,0,380,0.0,127.0
3544,75.0,96,383,0.0,127.0
3545,53.0,0,191,0.0,127.0
3546,51.0,96,95,0.0,127.0
3547,49.0,0,95,0.0,127.0
3548,52.0,0,191,0.0,127.0
3549,47.0,96,95,0.0,127.0
3550,68.0,96,191,0.0,127.0
3551,45.0,0,95,0.0,127.0
3552,44.0,96,95,0.0,127.0
3553,68.0,96,191,0.0,127.0
3554,52.0,0,287,0.0,127.0
3555,51.0,96,95,0.0,127.0
3556,42.0,96,191,0.0,127.0
3557,69.0,0,191,0.0,127.0
3558,73.0,0,383,0.0,127.0
3559,68.0,0,95,0.0,127.0
3560,69.0,96,95,0.0,127.0
3561,66.0,96,95,0.0,127.0
3562,63.0,96,95,0.0,127.0
3563,44.0,0,383,0.0,127.0
3564,51.0,96,383,0.0,127.0
3565,72.0,0,383,0.0,127.0
3566,73.0,0,95,0.0,127.0
3567,37.0,96,190,0.0,127.0
3568,75.0,96,95,0.0,127.0
3569,64.0,0,191,0.0,127.0
3570,49.0,0,287,0.0,127.0
3571,61.0,96,95,0.0,127.0
3572,68.0,0,191,0.0,127.0
3573,58.0,0,95,0.0,127.0
3574,54.0,96,95,0.0,127.0
3575,76.0,96,479,0.0,127.0
3576,59.0,96,190,0.0,127.0
3577,76.0,96,95,0.0,127.0
3578,59.0,96,95,0.0,127.0
3579,66.0,96,575,0.0,127.0
3580,56.0,0,95,0.0,127.0
3581,52.0,96,95,0.0,127.0
3582,74.0,96,479,0.0,127.0
3583,73.0,96,95,0.0,127.0
3584,57.0,96,191,0.0,127.0
3585,64.0,96,479,0.0,127.0
3586,57.0,96,191,0.0,127.0
3587,73.0,96,95,0.0,127.0
3588,69.0,96,95,0.0,127.0
3589,66.0,96,95,0.0,127.0
3590,57.0,0,191,0.0,127.0
3591,61.0,0,383,0.0,127.0
3592,78.0,0,479,0.0,127.0
3593,78.0,96,95,0.0,127.0
3594,56.0,0,191,0.0,127.0
3595,63.0,96,191,0.0,127.0
3596,71.0,0,287,0.0,127.0
3597,59.0,0,191,0.0,127.0
3598,71.0,96,95,0.0,127.0
3599,55.0,0,191,0.0,127.0
3600,67.0,96,95,0.0,127.0
3601,64.0,96,95,0.0,127.0
3602,55.0,0,191,0.0,127.0
3603,59.0,0,191,0.0,127.0
3604,76.0,96,479,0.0,127.0
3605,61.0,0,191,0.0,127.0
3606,54.0,0,191,0.0,127.0
3607,76.0,96,95,0.0,127.0
3608,74.0,0,95,0.0,127.0
3609,81.0,96,95,0.0,127.0
3610,53.0,0,191,0.0,127.0
3611,57.0,96,191,0.0,127.0
3612,77.0,0,95,0.0,127.0
3613,69.0,96,575,0.0,127.0
3614,53.0,0,191,0.0,127.0
3615,74.0,96,95,0.0,127.0
3616,62.0,96,191,0.0,127.0
3617,52.0,96,280,0.0,127.0
3618,62.0,0,280,0.0,127.0
3619,64.0,0,280,0.0,127.0
3620,68.0,0,287,0.0,127.0
3621,78.0,288,95,0.0,127.0
3622,76.0,96,95,0.0,127.0
3623,74.0,96,95,0.0,127.0
3624,73.0,96,95,0.0,127.0
3625,71.0,96,95,0.0,127.0
3626,69.0,96,95,0.0,127.0
3627,68.0,96,95,0.0,127.0
3628,66.0,96,95,0.0,127.0
3629,64.0,96,95,0.0,127.0
3630,62.0,96,95,0.0,127.0
3631,61.0,96,95,0.0,127.0
3632,59.0,96,95,0.0,127.0
3633,57.0,96,95,0.0,127.0
3634,56.0,96,95,0.0,127.0
3635,57.0,96,95,0.0,127.0
3636,51.0,96,191,0.0,127.0
3637,78.0,96,95,0.0,127.0
3638,59.0,96,191,0.0,127.0
3639,69.0,0,191,0.0,127.0
3640,71.0,0,287,0.0,127.0
3641,52.0,0,383,0.0,127.0
3642,62.0,0,191,0.0,127.0
3643,69.0,96,95,0.0,127.0
3644,68.0,192,191,0.0,127.0
3645,69.0,96,191,0.0,127.0
3646,71.0,96,95,0.0,127.0
3647,73.0,96,95,0.0,127.0
3648,45.0,0,380,0.0,127.0
3649,71.0,96,95,0.0,127.0
3650,61.0,0,383,0.0,127.0
3651,76.0,0,191,0.0,127.0
3652,69.0,0,95,0.0,127.0
3653,76.0,0,191,0.0,127.0
3654,68.0,96,95,0.0,127.0
3655,66.0,0,95,0.0,127.0
3656,61.0,96,380,0.0,127.0
3657,75.0,96,191,0.0,127.0
3658,68.0,0,95,0.0,127.0
3659,54.0,96,95,0.0,127.0
3660,59.0,0,95,0.0,127.0
3661,74.0,96,191,0.0,127.0
3662,69.0,0,191,0.0,127.0
3663,57.0,96,95,0.0,127.0
3664,56.0,0,95,0.0,127.0
3665,52.0,96,95,0.0,127.0
3666,74.0,0,191,0.0,127.0
3667,71.0,96,287,0.0,127.0
3668,64.0,96,95,0.0,127.0
3669,57.0,0,287,0.0,127.0
3670,66.0,96,95,0.0,127.0
3671,73.0,96,383,0.0,127.0
3672,63.0,0,95,0.0,127.0
3673,59.0,96,95,0.0,127.0
3674,69.0,96,383,0.0,127.0
3675,78.0,96,287,0.0,127.0
3676,71.0,96,95,0.0,127.0
3677,64.0,0,287,0.0,127.0
3678,64.0,96,95,0.0,127.0
3679,68.0,96,383,0.0,127.0
3680,61.0,0,95,0.0,127.0
3681,56.0,96,95,0.0,127.0
3682,68.0,96,191,0.0,127.0
3683,57.0,0,95,0.0,127.0
3684,76.0,96,575,0.0,127.0
3685,61.0,96,95,0.0,127.0
3686,57.0,0,95,0.0,127.0
3687,66.0,96,287,0.0,127.0
3688,54.0,0,95,0.0,127.0
3689,69.0,96,95,0.0,127.0
3690,59.0,0,95,0.0,127.0
3691,68.0,96,95,0.0,127.0
3692,56.0,96,95,0.0,127.0
3693,71.0,0,95,0.0,127.0
3694,61.0,0,95,0.0,127.0
3695,64.0,96,95,0.0,127.0
3696,76.0,96,575,0.0,127.0
3697,69.0,96,287,0.0,127.0
3698,61.0,0,95,0.0,127.0
3699,57.0,96,95,0.0,127.0
3700,73.0,0,95,0.0,127.0
3701,56.0,0,95,0.0,127.0
3702,71.0,96,95,0.0,127.0
3703,52.0,0,95,0.0,127.0
3704,74.0,96,95,0.0,127.0
3705,76.0,96,479,0.0,127.0
3706,57.0,0,95,0.0,127.0
3707,61.0,0,95,0.0,127.0
3708,73.0,96,191,0.0,127.0
3709,57.0,0,95,0.0,127.0
3710,54.0,96,95,0.0,127.0
3711,76.0,96,287,0.0,127.0
3712,59.0,96,95,0.0,127.0
3713,47.0,96,95,0.0,127.0
3714,75.0,0,191,0.0,127.0
3715,66.0,96,383,0.0,127.0
3716,68.0,96,95,0.0,127.0
3717,69.0,96,95,0.0,127.0
3718,52.0,0,191,0.0,127.0
3719,76.0,0,287,0.0,127.0
3720,79.0,96,95,0.0,127.0
3721,64.0,0,191,0.0,127.0
3722,71.0,96,191,0.0,127.0
3723,76.0,96,95,0.0,127.0
3724,73.0,96,95,0.0,127.0
3725,67.0,0,191,0.0,127.0
3726,70.0,0,191,0.0,127.0
3727,64.0,0,383,0.0,127.0
3728,63.0,0,95,0.0,127.0
3729,78.0,192,191,0.0,127.0
3730,61.0,96,95,0.0,127.0
3731,66.0,96,383,0.0,127.0
3732,62.0,0,191,0.0,127.0
3733,78.0,0,191,0.0,127.0
3734,61.0,0,191,0.0,127.0
3735,77.0,192,191,0.0,127.0
3736,71.0,96,383,0.0,127.0
3737,70.0,0,95,0.0,127.0
3738,66.0,0,95,0.0,127.0
3739,64.0,0,95,0.0,127.0
3740,68.0,96,95,0.0,127.0
3741,76.0,192,191,0.0,127.0
3742,66.0,0,191,0.0,127.0
3743,70.0,0,191,0.0,127.0
3744,76.0,96,191,0.0,127.0
3745,74.0,0,191,0.0,127.0
3746,59.0,0,191,0.0,127.0
3747,79.0,0,95,0.0,127.0
3748,62.0,192,191,0.0,127.0
3749,71.0,192,383,0.0,127.0
3750,59.0,0,191,0.0,127.0
3751,78.0,96,95,0.0,127.0
3752,74.0,0,191,0.0,127.0
3753,79.0,96,191,0.0,127.0
3754,59.0,0,191,0.0,127.0
3755,58.0,0,191,0.0,127.0
3756,67.0,0,383,0.0,127.0
3757,78.0,192,95,0.0,127.0
3758,73.0,192,383,0.0,127.0
3759,57.0,0,191,0.0,127.0
3760,76.0,96,95,0.0,127.0
3761,61.0,0,191,0.0,127.0
3762,78.0,96,191,0.0,127.0
3763,73.0,0,191,0.0,127.0
3764,57.0,0,191,0.0,127.0
3765,56.0,0,191,0.0,127.0
3766,66.0,0,383,0.0,127.0
3767,76.0,192,95,0.0,127.0
3768,59.0,0,191,0.0,127.0
3769,71.0,192,383,0.0,127.0
3770,75.0,96,95,0.0,127.0
3771,55.0,0,191,0.0,127.0
3772,55.0,0,191,0.0,127.0
3773,64.0,0,191,0.0,127.0
3774,71.0,0,191,0.0,127.0
3775,76.0,96,287,0.0,127.0
3776,66.0,0,190,0.0,127.0
3777,54.0,192,191,0.0,127.0
3778,76.0,96,95,0.0,127.0
3779,74.0,96,95,0.0,127.0
3780,59.0,0,95,0.0,127.0
3781,78.0,96,95,0.0,127.0
3782,58.0,0,95,0.0,127.0
3783,70.0,0,479,0.0,127.0
3784,59.0,0,191,0.0,127.0
3785,74.0,96,287,0.0,127.0
3786,71.0,96,280,0.0,127.0
3787,67.0,96,190,0.0,127.0
3788,52.0,0,191,0.0,127.0
3789,74.0,96,95,0.0,127.0
3790,73.0,96,95,0.0,127.0
3791,57.0,0,95,0.0,127.0
3792,55.0,0,95,0.0,127.0
3793,76.0,96,95,0.0,127.0
3794,57.0,0,191,0.0,127.0
3795,73.0,96,287,0.0,127.0
3796,69.0,96,280,0.0,127.0
3797,66.0,96,190,0.0,127.0
3798,50.0,0,191,0.0,127.0
3799,73.0,96,95,0.0,127.0
3800,55.0,0,95,0.0,127.0
3801,71.0,96,95,0.0,127.0
3802,54.0,0,95,0.0,127.0
3803,74.0,96,95,0.0,127.0
3804,55.0,96,191,0.0,127.0
3805,71.0,0,287,0.0,127.0
3806,67.0,96,280,0.0,127.0
3807,64.0,96,190,0.0,127.0
3808,49.0,0,191,0.0,127.0
3809,71.0,96,95,0.0,127.0
3810,70.0,0,95,0.0,127.0
3811,54.0,96,95,0.0,127.0
3812,73.0,96,95,0.0,127.0
3813,52.0,0,95,0.0,127.0
3814,54.0,0,287,0.0,127.0
3815,54.0,96,95,0.0,127.0
3816,64.0,96,191,0.0,127.0
3817,66.0,96,287,0.0,127.0
3818,70.0,96,383,0.0,127.0
3819,59.0,0,90,0.0,127.0
3820,55.0,96,95,0.0,127.0
3821,59.0,96,95,0.0,127.0
3822,55.0,0,95,0.0,127.0
3823,52.0,96,95,0.0,127.0
3824,62.0,0,383,0.0,127.0
3825,71.0,0,479,0.0,127.0
3826,71.0,96,95,0.0,127.0
3827,67.0,96,383,0.0,127.0
3828,49.0,96,191,0.0,127.0
3829,54.0,0,191,0.0,127.0
3830,64.0,0,383,0.0,127.0
3831,70.0,0,287,0.0,127.0
3832,66.0,96,380,0.0,127.0
3833,42.0,0,191,0.0,127.0
3834,70.0,96,95,0.0,127.0
3835,64.0,192,280,0.0,127.0
3836,71.0,0,95,0.0,127.0
3837,66.0,96,95,0.0,127.0
3838,67.0,96,95,0.0,127.0
3839,47.0,96,383,0.0,127.0
3840,62.0,0,191,0.0,127.0
3841,71.0,96,95,0.0,127.0
3842,67.0,96,95,0.0,127.0
3843,66.0,96,95,0.0,127.0
3844,62.0,0,191,0.0,127.0
3845,65.0,0,95,0.0,127.0
3846,59.0,0,287,0.0,127.0
3847,61.0,96,190,0.0,127.0
3848,59.0,0,95,0.0,127.0
3849,68.0,96,95,0.0,127.0
3850,57.0,0,95,0.0,127.0
3851,73.0,96,95,0.0,127.0
3852,78.0,96,95,0.0,127.0
3853,62.0,0,95,0.0,127.0
3854,59.0,0,95,0.0,127.0
3855,74.0,96,95,0.0,127.0
3856,57.0,0,95,0.0,127.0
3857,73.0,96,95,0.0,127.0
3858,71.0,96,95,0.0,127.0
3859,56.0,0,191,0.0,127.0
3860,74.0,96,95,0.0,127.0
3861,65.0,96,95,0.0,127.0
3862,61.0,0,191,0.0,127.0
3863,74.0,96,95,0.0,127.0
3864,73.0,96,95,0.0,127.0
3865,71.0,96,95,0.0,127.0
3866,49.0,0,191,0.0,127.0
3867,69.0,96,95,0.0,127.0
3868,71.0,96,95,0.0,127.0
3869,69.0,96,95,0.0,127.0
3870,54.0,0,287,0.0,127.0
3871,56.0,0,95,0.0,127.0
3872,68.0,96,95,0.0,127.0
3873,57.0,0,95,0.0,127.0
3874,66.0,96,95,0.0,127.0
3875,54.0,0,95,0.0,127.0
3876,69.0,96,95,0.0,127.0
3877,59.0,96,95,0.0,127.0
3878,61.0,96,95,0.0,127.0
3879,59.0,96,95,0.0,127.0
3880,63.0,0,287,0.0,127.0
3881,57.0,0,95,0.0,127.0
3882,73.0,96,95,0.0,127.0
3883,56.0,0,95,0.0,127.0
3884,71.0,96,95,0.0,127.0
3885,69.0,96,95,0.0,127.0
3886,59.0,0,95,0.0,127.0
3887,68.0,96,95,0.0,127.0
3888,69.0,96,95,0.0,127.0
3889,68.0,96,95,0.0,127.0
3890,52.0,0,287,0.0,127.0
3891,54.0,0,95,0.0,127.0
3892,66.0,96,95,0.0,127.0
3893,56.0,0,95,0.0,127.0
3894,64.0,96,95,0.0,127.0
3895,52.0,0,95,0.0,127.0
3896,68.0,96,95,0.0,127.0
3897,57.0,0,95,0.0,127.0
3898,59.0,96,95,0.0,127.0
3899,57.0,96,95,0.0,127.0
3900,61.0,96,287,0.0,127.0
3901,56.0,96,95,0.0,127.0
3902,71.0,0,95,0.0,127.0
3903,54.0,0,95,0.0,127.0
3904,69.0,96,95,0.0,127.0
3905,57.0,96,95,0.0,127.0
3906,68.0,0,95,0.0,127.0
3907,66.0,96,95,0.0,127.0
3908,68.0,96,95,0.0,127.0
3909,51.0,0,287,0.0,127.0
3910,66.0,96,95,0.0,127.0
3911,64.0,96,95,0.0,127.0
3912,52.0,0,95,0.0,127.0
3913,63.0,96,95,0.0,127.0
3914,54.0,0,95,0.0,127.0
3915,51.0,0,95,0.0,127.0
3916,66.0,96,95,0.0,127.0
3917,56.0,0,95,0.0,127.0
3918,57.0,96,95,0.0,127.0
3919,56.0,96,95,0.0,127.0
3920,60.0,96,287,0.0,127.0
3921,54.0,0,95,0.0,127.0
3922,69.0,96,95,0.0,127.0
3923,53.0,96,95,0.0,127.0
3924,68.0,0,95,0.0,127.0
3925,56.0,0,95,0.0,127.0
3926,66.0,96,95,0.0,127.0
3927,49.0,0,95,0.0,127.0
3928,65.0,96,95,0.0,127.0
3929,50.0,0,95,0.0,127.0
3930,68.0,96,95,0.0,127.0
3931,49.0,0,95,0.0,127.0
3932,73.0,96,95,0.0,127.0
3933,47.0,0,95,0.0,127.0
3934,74.0,96,95,0.0,127.0
3935,73.0,96,95,0.0,127.0
3936,45.0,0,95,0.0,127.0
3937,49.0,0,95,0.0,127.0
3938,71.0,96,95,0.0,127.0
3939,42.0,0,191,0.0,127.0
3940,69.0,96,191,0.0,127.0
3941,74.0,192,95,0.0,127.0
3942,54.0,0,191,0.0,127.0
3943,73.0,96,95,0.0,127.0
3944,74.0,96,191,0.0,127.0
3945,54.0,0,191,0.0,127.0
3946,53.0,0,191,0.0,127.0
3947,68.0,192,191,0.0,127.0
3948,73.0,0,95,0.0,127.0
3949,71.0,96,95,0.0,127.0
3950,52.0,192,191,0.0,127.0
3951,73.0,96,191,0.0,127.0
3952,52.0,0,191,0.0,127.0
3953,51.0,0,191,0.0,127.0
3954,66.0,192,191,0.0,127.0
3955,71.0,0,95,0.0,127.0
3956,62.0,0,191,0.0,127.0
3957,50.0,0,191,0.0,127.0
3958,69.0,96,95,0.0,127.0
3959,78.0,192,191,0.0,127.0
3960,50.0,0,191,0.0,127.0
3961,78.0,96,191,0.0,127.0
3962,71.0,0,191,0.0,127.0
3963,62.0,0,191,0.0,127.0
3964,73.0,0,191,0.0,127.0
3965,77.0,192,191,0.0,127.0
3966,56.0,0,191,0.0,127.0
3967,61.0,192,95,0.0,127.0
3968,59.0,96,95,0.0,127.0
3969,68.0,0,191,0.0,127.0
3970,76.0,0,191,0.0,127.0
3971,76.0,96,191,0.0,127.0
3972,61.0,0,191,0.0,127.0
3973,49.0,0,575,0.0,127.0
3974,70.0,0,191,0.0,127.0
3975,54.0,0,191,0.0,127.0
3976,71.0,0,191,0.0,127.0
3977,75.0,192,191,0.0,127.0
3978,59.0,0,95,0.0,127.0
3979,66.0,192,95,0.0,127.0
3980,57.0,0,95,0.0,127.0
3981,69.0,96,95,0.0,127.0
3982,74.0,0,191,0.0,127.0
3983,68.0,0,95,0.0,127.0
3984,74.0,96,191,0.0,127.0
3985,59.0,0,191,0.0,127.0
3986,47.0,0,575,0.0,127.0
3987,71.0,96,95,0.0,127.0
3988,56.0,0,95,0.0,127.0
3989,61.0,96,95,0.0,127.0
3990,56.0,96,95,0.0,127.0
3991,53.0,96,95,0.0,127.0
3992,49.0,96,95,0.0,127.0
3993,65.0,0,575,0.0,127.0
3994,73.0,96,575,0.0,127.0
3995,56.0,96,95,0.0,127.0
3996,47.0,0,575,0.0,127.0
3997,73.0,96,95,0.0,127.0
3998,78.0,96,95,0.0,127.0
3999,73.0,96,95,0.0,127.0
4000,66.0,0,380,0.0,127.0
4001,69.0,96,95,0.0,127.0
4002,66.0,96,190,0.0,127.0
4003,45.0,0,575,0.0,127.0
4004,57.0,0,575,0.0,127.0
4005,69.0,96,95,0.0,127.0
4006,54.0,96,95,0.0,127.0
4007,59.0,96,95,0.0,127.0
4008,54.0,96,95,0.0,127.0
4009,51.0,96,95,0.0,127.0
4010,47.0,96,95,0.0,127.0
4011,54.0,96,95,0.0,127.0
4012,45.0,0,575,0.0,127.0
4013,63.0,0,575,0.0,127.0
4014,71.0,0,575,0.0,127.0
4015,71.0,0,95,0.0,127.0
4016,74.0,96,95,0.0,127.0
4017,71.0,96,95,0.0,127.0
4018,65.0,0,380,0.0,127.0
4019,44.0,96,383,0.0,127.0
4020,56.0,0,383,0.0,127.0
4021,68.0,96,95,0.0,127.0
4022,65.0,0,190,0.0,127.0
4023,49.0,0,191,0.0,127.0
4024,56.0,96,191,0.0,127.0
4025,68.0,96,95,0.0,127.0
4026,61.0,96,95,0.0,127.0
4027,66.0,96,95,0.0,127.0
4028,61.0,96,95,0.0,127.0
4029,57.0,96,95,0.0,127.0
4030,54.0,0,575,0.0,127.0
4031,42.0,0,575,0.0,127.0
4032,54.0,96,95,0.0,127.0
4033,49.0,96,95,0.0,127.0
4034,54.0,96,95,0.0,127.0
4035,49.0,96,95,0.0,127.0
4036,45.0,96,95,0.0,127.0
4037,69.0,96,1150,0.0,127.0
4038,49.0,96,95,0.0,127.0
4039,61.0,96,673,0.0,127.0
4040,42.0,96,95,0.0,127.0
4041,37.0,96,95,0.0,127.0
4042,42.0,96,95,0.0,127.0
4043,45.0,96,95,0.0,127.0
4044,44.0,96,95,0.0,127.0
4045,47.0,96,95,0.0,127.0
4046,45.0,96,95,0.0,127.0
4047,42.0,96,95,0.0,127.0
4048,45.0,96,95,0.0,127.0
4049,49.0,96,95,0.0,127.0
4050,47.0,96,95,0.0,127.0
4051,50.0,96,95,0.0,127.0
4052,49.0,96,95,0.0,127.0
4053,45.0,96,95,0.0,127.0
4054,49.0,96,95,0.0,127.0
4055,54.0,96,95,0.0,127.0
4056,53.0,96,95,0.0,127.0
4057,56.0,96,95,0.0,127.0
4058,54.0,96,95,0.0,127.0
4059,49.0,96,95,0.0,127.0
4060,54.0,96,95,0.0,127.0
4061,57.0,96,95,0.0,127.0
4062,56.0,96,95,0.0,127.0
4063,59.0,96,95,0.0,127.0
4064,57.0,96,95,0.0,127.0
4065,54.0,96,95,0.0,127.0
4066,57.0,96,95,0.0,127.0
4067,61.0,96,95,0.0,127.0
4068,59.0,96,95,0.0,127.0
4069,62.0,96,95,0.0,127.0
4070,61.0,96,95,0.0,127.0
4071,57.0,96,95,0.0,127.0
4072,61.0,96,95,0.0,127.0
4073,66.0,96,95,0.0,127.0
4074,65.0,96,95,0.0,127.0
4075,68.0,96,95,0.0,127.0
4076,66.0,96,95,0.0,127.0
4077,61.0,96,95,0.0,127.0
4078,66.0,96,95,0.0,127.0
4079,69.0,96,95,0.0,127.0
4080,68.0,96,95,0.0,127.0
4081,71.0,96,95,0.0,127.0
4082,69.0,96,95,0.0,127.0
4083,66.0,96,95,0.0,127.0
4084,69.0,96,95,0.0,127.0
4085,73.0,96,95,0.0,127.0
4086,71.0,96,98,0.0,127.0
4087,74.0,99,98,0.0,127.0
4088,73.0,100,98,0.0,127.0
4089,69.0,100,98,0.0,127.0
4090,73.0,100,48,0.0,127.0
4091,75.0,50,48,0.0,127.0
4092,76.0,50,98,0.0,127.0
4093,75.0,100,48,0.0,127.0
4094,77.0,49,48,0.0,127.0
4095,78.0,50,98,0.0,127.0
4096,77.0,100,48,0.0,127.0
4097,78.0,50,48,0.0,127.0
4098,80.0,50,98,0.0,127.0
4099,78.0,100,48,0.0,127.0
4100,80.0,50,48,0.0,127.0
4101,81.0,50,98,0.0,127.0
4102,80.0,100,52,0.0,127.0
4103,81.0,53,52,0.0,127.0
4104,83.0,54,106,0.0,127.0
4105,81.0,108,106,0.0,127.0
4106,54.0,108,214,0.0,127.0
4107,66.0,0,429,0.0,127.0
4108,73.0,0,429,0.0,127.0
4109,80.0,0,321,0.0,127.0
4110,61.0,107,429,0.0,127.0
4111,65.0,216,214,0.0,127.0
4112,71.0,0,214,0.0,127.0
4113,78.0,108,106,0.0,127.0
4114,66.0,0,110,0.0,127.0
4115,64.0,113,110,0.0,127.0
4116,78.0,0,224,0.0,127.0
4117,70.0,108,224,0.0,127.0
4118,71.0,0,110,0.0,127.0
4119,62.0,115,110,0.0,127.0
4120,78.0,0,224,0.0,127.0
4121,73.0,114,110,0.0,127.0
4122,61.0,0,110,0.0,127.0
4123,59.0,0,110,0.0,127.0
4124,58.0,114,110,0.0,127.0
4125,78.0,0,224,0.0,127.0
4126,74.0,115,451,0.0,127.0
4127,77.0,0,224,0.0,127.0
4128,56.0,114,224,0.0,127.0
4129,61.0,0,110,0.0,127.0
4130,59.0,113,110,0.0,127.0
4131,76.0,229,224,0.0,127.0
4132,68.0,0,224,0.0,127.0
4133,54.0,0,1356,0.0,127.0
4134,76.0,0,224,0.0,127.0
4135,61.0,115,451,0.0,127.0
4136,70.0,0,451,0.0,127.0
4137,73.0,0,451,0.0,127.0
4138,75.0,232,228,0.0,127.0
4139,59.0,0,112,0.0,127.0
4140,71.0,0,228,0.0,127.0
4141,66.0,0,228,0.0,127.0
4142,74.0,235,228,0.0,127.0
4143,58.0,117,112,0.0,127.0
4144,66.0,0,112,0.0,127.0
4145,71.0,0,112,0.0,127.0
4146,74.0,0,228,0.0,127.0
4147,69.0,117,112,0.0,127.0
4148,59.0,118,344,0.0,127.0
4149,68.0,0,112,0.0,127.0
4150,66.0,0,118,0.0,127.0
4151,57.0,118,118,0.0,127.0
4152,74.0,118,344,0.0,127.0
4153,65.0,0,241,0.0,127.0
4154,74.0,136,131,0.0,127.0
4155,73.0,138,131,0.0,127.0
4156,54.0,0,1383,0.0,127.0
4157,56.0,127,486,0.0,127.0
4158,59.0,0,261,0.0,127.0
4159,71.0,139,140,0.0,127.0
4160,42.0,147,1464,0.0,127.0
4161,66.0,0,1464,0.0,127.0
4162,61.0,0,1464,0.0,127.0
4163,70.0,0,1464,0.0,127.0
4164,54.0,1,1464,0.0,127.0
