,note,step,duration,channel,velocity
0,63.0,0,120,0.0,100.0
1,62.0,120,120,0.0,100.0
2,63.0,120,120,0.0,100.0
3,65.0,120,120,0.0,100.0
4,58.0,120,120,0.0,100.0
5,60.0,120,120,0.0,100.0
6,62.0,120,120,0.0,100.0
7,63.0,120,120,0.0,100.0
8,58.0,120,120,1.0,100.0
9,62.0,60,60,0.0,100.0
10,63.0,0,60,0.0,100.0
11,67.0,60,60,0.0,100.0
12,55.0,60,120,1.0,100.0
13,65.0,60,60,0.0,100.0
14,56.0,0,120,1.0,100.0
15,63.0,60,60,0.0,100.0
16,62.0,0,60,0.0,100.0
17,58.0,60,120,1.0,100.0
18,68.0,60,60,0.0,100.0
19,67.0,0,60,0.0,100.0
20,65.0,60,60,0.0,100.0
21,51.0,60,120,1.0,100.0
22,63.0,60,60,0.0,100.0
23,55.0,0,120,1.0,100.0
24,62.0,60,60,0.0,100.0
25,60.0,60,60,0.0,100.0
26,57.0,0,120,1.0,100.0
27,65.0,60,60,0.0,100.0
28,58.0,0,60,1.0,100.0
29,62.0,60,120,0.0,100.0
30,60.0,60,60,1.0,100.0
31,58.0,0,60,1.0,100.0
32,56.0,60,60,1.0,100.0
33,65.0,60,120,0.0,100.0
34,55.0,0,60,1.0,100.0
35,70.0,60,120,0.0,100.0
36,61.0,60,60,1.0,100.0
37,60.0,0,60,1.0,100.0
38,64.0,60,120,0.0,100.0
39,58.0,60,60,1.0,100.0
40,65.0,0,60,0.0,100.0
41,60.0,60,60,0.0,100.0
42,56.0,60,120,1.0,100.0
43,65.0,60,60,0.0,100.0
44,55.0,60,60,1.0,100.0
45,67.0,0,60,0.0,100.0
46,53.0,0,60,1.0,100.0
47,68.0,60,120,0.0,100.0
48,60.0,60,60,1.0,100.0
49,58.0,0,60,1.0,100.0
50,56.0,60,60,1.0,100.0
51,62.0,60,120,0.0,100.0
52,63.0,0,60,0.0,100.0
53,65.0,60,60,0.0,100.0
54,55.0,60,120,1.0,100.0
55,67.0,0,60,0.0,100.0
56,69.0,60,60,0.0,100.0
57,51.0,60,120,2.0,100.0
58,70.0,0,60,0.0,100.0
59,65.0,0,60,0.0,100.0
60,50.0,60,120,2.0,100.0
61,62.0,60,60,1.0,100.0
62,60.0,60,60,1.0,100.0
63,63.0,0,60,0.0,100.0
64,62.0,60,60,0.0,100.0
65,58.0,0,60,1.0,100.0
66,51.0,0,120,2.0,100.0
67,57.0,60,60,1.0,100.0
68,53.0,0,120,2.0,100.0
69,55.0,60,60,1.0,100.0
70,60.0,0,120,0.0,100.0
71,53.0,60,60,1.0,100.0
72,46.0,0,120,2.0,100.0
73,58.0,60,60,1.0,100.0
74,62.0,0,60,0.0,100.0
75,63.0,0,60,0.0,100.0
76,55.0,0,120,1.0,100.0
77,48.0,60,120,2.0,100.0
78,72.0,60,60,0.0,100.0
79,70.0,0,60,0.0,100.0
80,68.0,60,60,0.0,100.0
81,50.0,0,120,2.0,100.0
82,53.0,60,120,1.0,100.0
83,67.0,60,60,0.0,100.0
84,58.0,0,120,1.0,100.0
85,51.0,0,120,2.0,100.0
86,65.0,60,60,0.0,100.0
87,63.0,0,60,0.0,100.0
88,60.0,60,120,1.0,100.0
89,68.0,60,60,0.0,100.0
90,62.0,60,30,0.0,100.0
91,65.0,30,30,0.0,100.0
92,63.0,30,30,0.0,100.0
93,56.0,0,240,2.0,100.0
94,62.0,30,30,0.0,100.0
95,58.0,0,120,1.0,100.0
96,70.0,0,60,0.0,100.0
97,58.0,0,60,1.0,100.0
98,55.0,30,120,2.0,100.0
99,61.0,60,60,0.0,100.0
100,55.0,30,30,1.0,100.0
101,53.0,30,30,1.0,100.0
102,51.0,30,30,1.0,100.0
103,60.0,0,120,0.0,100.0
104,56.0,60,120,2.0,100.0
105,68.0,30,30,0.0,100.0
106,67.0,30,30,0.0,100.0
107,53.0,30,120,1.0,100.0
108,65.0,30,30,0.0,100.0
109,65.0,30,30,0.0,100.0
110,63.0,30,30,0.0,100.0
111,62.0,30,30,0.0,100.0
112,70.0,30,120,2.0,100.0
113,55.0,0,120,1.0,100.0
114,60.0,30,60,0.0,100.0
115,63.0,60,60,0.0,100.0
116,57.0,0,120,1.0,100.0
117,72.0,0,60,2.0,100.0
118,63.0,0,60,0.0,100.0
119,72.0,0,60,2.0,100.0
120,62.0,60,30,0.0,100.0
121,58.0,60,120,1.0,100.0
122,60.0,30,30,0.0,100.0
123,70.0,0,60,2.0,100.0
124,62.0,0,60,0.0,100.0
125,46.0,30,120,1.0,100.0
126,68.0,60,0,2.0,100.0
127,65.0,0,0,0.0,100.0
128,67.0,60,60,2.0,100.0
129,43.0,0,120,1.0,100.0
130,63.0,0,60,0.0,100.0
131,44.0,60,120,1.0,100.0
132,63.0,0,0,0.0,100.0
133,55.0,0,0,2.0,100.0
134,46.0,60,120,1.0,100.0
135,53.0,60,60,2.0,100.0
136,62.0,0,60,0.0,100.0
137,63.0,60,60,0.0,100.0
138,39.0,60,120,1.0,100.0
139,67.0,0,120,2.0,100.0
140,61.0,0,60,0.0,100.0
141,68.0,0,120,2.0,100.0
142,60.0,60,60,0.0,100.0
143,41.0,60,120,1.0,100.0
144,58.0,0,60,0.0,100.0
145,70.0,0,120,2.0,100.0
146,43.0,60,120,1.0,100.0
147,63.0,60,60,0.0,100.0
148,70.0,60,60,2.0,100.0
149,61.0,0,60,0.0,100.0
150,68.0,0,60,2.0,100.0
151,44.0,0,120,1.0,100.0
152,60.0,60,60,0.0,100.0
153,55.0,60,60,2.0,100.0
154,48.0,60,120,1.0,100.0
155,58.0,0,0,0.0,100.0
156,55.0,0,60,2.0,100.0
157,56.0,0,60,0.0,100.0
158,53.0,60,60,2.0,100.0
159,44.0,60,120,1.0,100.0
160,56.0,60,60,2.0,100.0
161,46.0,60,120,1.0,100.0
162,65.0,60,0,0.0,100.0
163,56.0,0,60,2.0,100.0
164,64.0,60,60,0.0,100.0
165,55.0,0,60,2.0,100.0
166,48.0,0,120,1.0,100.0
167,57.0,60,120,2.0,100.0
168,41.0,0,120,1.0,100.0
169,65.0,60,60,0.0,100.0
170,63.0,0,60,0.0,100.0
171,43.0,0,120,1.0,100.0
172,62.0,60,60,0.0,100.0
173,58.0,60,120,2.0,100.0
174,60.0,0,60,0.0,100.0
175,44.0,0,120,1.0,100.0
176,65.0,60,60,0.0,100.0
177,60.0,0,0,2.0,100.0
178,63.0,60,60,0.0,100.0
179,58.0,0,60,2.0,100.0
180,62.0,60,60,0.0,100.0
181,46.0,0,120,1.0,100.0
182,56.0,0,60,2.0,100.0
183,65.0,0,60,0.0,100.0
184,63.0,0,60,0.0,100.0
185,39.0,60,120,1.0,100.0
186,55.0,60,60,2.0,100.0
187,53.0,60,120,2.0,100.0
188,38.0,0,120,1.0,100.0
189,70.0,60,60,0.0,100.0
190,68.0,60,60,0.0,100.0
191,67.0,60,60,0.0,100.0
192,63.0,0,60,2.0,100.0
193,39.0,0,120,1.0,100.0
194,62.0,0,60,2.0,100.0
195,65.0,0,60,0.0,100.0
196,41.0,60,120,1.0,100.0
197,63.0,60,60,0.0,100.0
198,60.0,60,0,2.0,100.0
199,62.0,0,60,0.0,100.0
200,67.0,60,60,0.0,100.0
201,34.0,0,120,1.0,100.0
202,58.0,0,60,2.0,100.0
203,56.0,0,60,2.0,100.0
204,55.0,60,60,2.0,100.0
205,63.0,0,120,0.0,100.0
206,36.0,60,120,1.0,100.0
207,53.0,60,60,2.0,100.0
208,38.0,0,120,1.0,100.0
209,65.0,0,120,0.0,100.0
210,58.0,60,60,2.0,100.0
211,56.0,0,60,2.0,100.0
212,65.0,0,60,0.0,100.0
213,55.0,60,60,2.0,100.0
214,63.0,0,60,0.0,100.0
215,39.0,60,120,1.0,100.0
216,43.0,60,120,1.0,100.0
217,61.0,0,60,0.0,100.0
218,58.0,0,0,2.0,100.0
219,61.0,0,60,0.0,100.0
220,60.0,60,60,0.0,100.0
221,44.0,60,120,1.0,100.0
222,56.0,0,60,2.0,100.0
223,58.0,60,60,2.0,100.0
224,43.0,60,120,1.0,100.0
225,64.0,0,0,0.0,100.0
226,58.0,0,60,2.0,100.0
227,56.0,0,60,2.0,100.0
228,41.0,60,120,1.0,100.0
229,65.0,60,60,0.0,100.0
230,45.0,60,120,1.0,100.0
231,63.0,0,0,0.0,100.0
232,60.0,60,60,2.0,100.0
233,60.0,0,60,2.0,100.0
234,46.0,60,120,1.0,100.0
235,62.0,60,60,0.0,100.0
236,58.0,0,60,2.0,100.0
237,66.0,0,60,0.0,100.0
238,44.0,60,120,1.0,100.0
239,60.0,0,0,2.0,100.0
240,66.0,60,60,0.0,100.0
241,43.0,0,120,1.0,100.0
242,59.0,60,60,2.0,100.0
243,67.0,0,60,0.0,100.0
244,47.0,60,120,1.0,100.0
245,62.0,60,60,2.0,100.0
246,65.0,0,0,0.0,100.0
247,62.0,0,60,2.0,100.0
248,63.0,60,60,0.0,100.0
249,60.0,0,60,2.0,100.0
250,48.0,60,120,1.0,100.0
251,46.0,60,120,1.0,100.0
252,61.0,0,60,2.0,100.0
253,67.0,0,0,0.0,100.0
254,61.0,0,60,2.0,100.0
255,68.0,0,60,0.0,100.0
256,44.0,60,120,1.0,100.0
257,60.0,60,60,2.0,100.0
258,58.0,60,0,2.0,100.0
259,32.0,60,120,1.0,100.0
260,67.0,60,60,0.0,100.0
261,67.0,0,60,0.0,100.0
262,56.0,0,60,2.0,100.0
263,65.0,60,60,0.0,100.0
264,44.0,0,120,1.0,100.0
265,63.0,60,60,0.0,100.0
266,55.0,0,0,2.0,100.0
267,32.0,60,120,1.0,100.0
268,63.0,60,60,0.0,100.0
269,34.0,0,60,1.0,100.0
270,53.0,60,60,2.0,100.0
271,46.0,0,60,1.0,100.0
272,62.0,0,60,0.0,100.0
273,48.0,0,60,1.0,100.0
274,70.0,60,120,0.0,100.0
275,50.0,60,60,1.0,100.0
276,51.0,60,60,1.0,100.0
277,67.0,0,120,0.0,100.0
278,63.0,0,60,2.0,100.0
279,48.0,60,60,1.0,100.0
280,46.0,0,60,1.0,100.0
281,61.0,0,60,2.0,100.0
282,68.0,60,120,0.0,100.0
283,60.0,60,60,2.0,100.0
284,44.0,0,60,1.0,100.0
285,58.0,0,60,2.0,100.0
286,43.0,60,120,1.0,100.0
287,70.0,0,120,0.0,100.0
288,61.0,60,60,2.0,100.0
289,60.0,0,60,2.0,100.0
290,58.0,60,60,2.0,100.0
291,44.0,60,120,1.0,100.0
292,63.0,0,120,0.0,100.0
293,65.0,0,120,0.0,100.0
294,56.0,60,120,2.0,100.0
295,49.0,60,60,1.0,100.0
296,48.0,0,60,1.0,100.0
297,46.0,60,60,1.0,100.0
298,58.0,0,120,2.0,100.0
299,67.0,60,120,0.0,100.0
300,53.0,0,60,1.0,100.0
301,60.0,0,120,2.0,100.0
302,51.0,60,60,1.0,100.0
303,68.0,60,120,0.0,100.0
304,58.0,60,0,2.0,100.0
305,50.0,60,120,1.0,100.0
306,68.0,0,60,0.0,100.0
307,53.0,0,120,3.0,100.0
308,67.0,0,60,0.0,100.0
309,60.0,60,60,2.0,100.0
310,55.0,0,120,3.0,100.0
311,72.0,0,60,0.0,100.0
312,51.0,0,120,1.0,100.0
313,70.0,0,60,0.0,100.0
314,62.0,0,60,2.0,100.0
315,53.0,0,120,1.0,100.0
316,68.0,60,60,0.0,100.0
317,56.0,60,120,3.0,100.0
318,62.0,60,60,2.0,100.0
319,68.0,0,60,0.0,100.0
320,67.0,60,30,0.0,100.0
321,65.0,30,30,0.0,100.0
322,55.0,0,120,1.0,100.0
323,63.0,0,60,2.0,100.0
324,58.0,0,120,3.0,100.0
325,39.0,0,120,1.0,100.0
326,67.0,30,120,0.0,100.0
327,63.0,0,0,2.0,100.0
328,41.0,60,120,1.0,100.0
329,68.0,0,120,0.0,100.0
330,61.0,60,60,2.0,100.0
331,61.0,60,60,2.0,100.0
332,70.0,0,120,0.0,100.0
333,43.0,60,120,1.0,100.0
334,61.0,60,60,2.0,100.0
335,44.0,0,120,1.0,100.0
336,63.0,0,120,0.0,100.0
337,60.0,60,60,2.0,100.0
338,56.0,60,120,3.0,100.0
339,68.0,0,0,0.0,100.0
340,53.0,0,120,1.0,100.0
341,65.0,0,0,2.0,100.0
342,58.0,60,120,3.0,100.0
343,63.0,60,60,2.0,100.0
344,67.0,0,60,0.0,100.0
345,55.0,0,120,1.0,100.0
346,63.0,60,60,2.0,100.0
347,60.0,60,120,3.0,100.0
348,67.0,0,60,0.0,100.0
349,57.0,0,120,1.0,100.0
350,67.0,0,60,0.0,100.0
351,63.0,60,60,2.0,100.0
352,65.0,0,60,0.0,100.0
353,58.0,0,120,3.0,100.0
354,62.0,60,60,2.0,100.0
355,58.0,0,120,1.0,100.0
356,46.0,60,120,1.0,100.0
357,70.0,60,60,0.0,100.0
358,67.0,0,0,2.0,100.0
359,50.0,0,120,3.0,100.0
360,70.0,0,60,0.0,100.0
361,65.0,60,60,2.0,100.0
362,51.0,0,120,3.0,100.0
363,48.0,60,120,1.0,100.0
364,68.0,0,60,0.0,100.0
365,50.0,0,120,1.0,100.0
366,65.0,60,0,2.0,100.0
367,53.0,60,120,3.0,100.0
368,68.0,0,60,0.0,100.0
369,68.0,0,60,0.0,100.0
370,63.0,60,60,2.0,100.0
371,55.0,0,120,3.0,100.0
372,51.0,0,120,1.0,100.0
373,67.0,0,60,0.0,100.0
374,56.0,0,120,3.0,100.0
375,62.0,0,0,2.0,100.0
376,41.0,60,120,1.0,100.0
377,65.0,60,0,0.0,100.0
378,58.0,0,120,3.0,100.0
379,63.0,60,60,0.0,100.0
380,43.0,0,120,1.0,100.0
381,63.0,0,60,2.0,100.0
382,65.0,30,30,0.0,100.0
383,67.0,30,30,0.0,100.0
384,60.0,60,120,3.0,100.0
385,68.0,30,30,0.0,100.0
386,63.0,0,30,0.0,100.0
387,62.0,30,30,0.0,100.0
388,60.0,30,30,0.0,100.0
389,44.0,0,240,2.0,100.0
390,53.0,30,120,1.0,100.0
391,58.0,30,30,0.0,100.0
392,58.0,0,60,3.0,100.0
393,43.0,30,60,2.0,100.0
394,70.0,0,60,0.0,100.0
395,51.0,0,120,1.0,100.0
396,44.0,60,60,2.0,100.0
397,63.0,60,0,1.0,100.0
398,60.0,0,60,3.0,100.0
399,68.0,0,60,0.0,100.0
400,58.0,0,120,3.0,100.0
401,67.0,0,120,0.0,100.0
402,46.0,0,120,2.0,100.0
403,65.0,0,120,0.0,100.0
404,62.0,0,120,1.0,100.0
405,56.0,120,120,3.0,100.0
406,34.0,0,120,2.0,100.0
407,39.0,0,120,2.0,100.0
408,55.0,0,120,3.0,100.0
409,63.0,120,120,0.0,100.0
410,58.0,0,120,1.0,100.0
411,58.0,30,30,0.0,100.0
412,55.0,30,30,0.0,100.0
413,51.0,120,120,2.0,100.0
414,58.0,30,30,0.0,100.0
415,60.0,30,30,0.0,100.0
416,56.0,30,30,0.0,100.0
417,51.0,30,30,0.0,100.0
418,56.0,30,30,0.0,100.0
419,60.0,30,30,0.0,100.0
420,56.0,30,30,0.0,100.0
421,39.0,30,120,2.0,100.0
422,60.0,30,30,0.0,100.0
423,58.0,30,30,0.0,100.0
424,55.0,30,30,0.0,100.0
425,51.0,30,30,0.0,100.0
426,55.0,30,30,0.0,100.0
427,58.0,30,0,0.0,100.0
428,58.0,30,0,0.0,100.0
429,43.0,30,120,2.0,100.0
430,58.0,0,30,0.0,100.0
431,60.0,30,30,0.0,100.0
432,58.0,30,30,0.0,100.0
433,60.0,30,30,0.0,100.0
434,44.0,30,120,2.0,100.0
435,56.0,30,30,0.0,100.0
436,62.0,30,30,0.0,100.0
437,56.0,30,30,0.0,100.0
438,62.0,30,30,0.0,100.0
439,46.0,0,120,2.0,100.0
440,55.0,30,30,0.0,100.0
441,63.0,30,30,0.0,100.0
442,55.0,30,30,0.0,100.0
443,63.0,30,30,0.0,100.0
444,39.0,0,120,2.0,100.0
445,62.0,30,30,0.0,100.0
446,58.0,30,30,0.0,100.0
447,53.0,0,120,1.0,100.0
448,62.0,30,30,0.0,100.0
449,56.0,30,120,3.0,100.0
450,63.0,30,30,0.0,100.0
451,58.0,30,30,0.0,100.0
452,51.0,30,120,1.0,100.0
453,55.0,0,120,3.0,100.0
454,63.0,30,30,0.0,100.0
455,39.0,0,120,2.0,100.0
456,65.0,30,30,0.0,100.0
457,58.0,30,30,0.0,100.0
458,50.0,30,120,1.0,100.0
459,56.0,0,120,3.0,100.0
460,65.0,30,30,0.0,100.0
461,67.0,30,30,0.0,100.0
462,63.0,30,30,0.0,100.0
463,39.0,0,120,2.0,100.0
464,51.0,0,0,1.0,100.0
465,58.0,0,120,3.0,100.0
466,55.0,0,120,3.0,100.0
467,67.0,30,30,0.0,100.0
468,70.0,0,30,0.0,100.0
469,68.0,30,30,0.0,100.0
470,67.0,30,30,0.0,100.0
471,65.0,30,30,0.0,100.0
472,43.0,30,120,2.0,100.0
473,63.0,0,30,0.0,100.0
474,62.0,30,30,0.0,100.0
475,63.0,30,30,0.0,100.0
476,55.0,30,120,1.0,100.0
477,67.0,30,30,0.0,100.0
478,48.0,0,120,2.0,100.0
479,65.0,0,30,0.0,100.0
480,63.0,30,30,0.0,100.0
481,62.0,30,30,0.0,100.0
482,41.0,0,120,2.0,100.0
483,57.0,30,120,1.0,100.0
484,60.0,30,30,0.0,100.0
485,58.0,30,30,0.0,100.0
486,53.0,30,30,0.0,100.0
487,50.0,30,30,0.0,100.0
488,46.0,30,120,2.0,100.0
489,62.0,0,120,1.0,100.0
490,65.0,30,30,0.0,100.0
491,62.0,30,30,0.0,100.0
492,34.0,30,120,2.0,100.0
493,65.0,30,30,0.0,100.0
494,67.0,30,30,0.0,100.0
495,63.0,30,30,0.0,100.0
496,58.0,30,30,0.0,100.0
497,63.0,30,30,0.0,100.0
498,67.0,30,30,0.0,100.0
499,63.0,30,30,0.0,100.0
500,67.0,30,30,0.0,100.0
501,46.0,30,120,2.0,100.0
502,65.0,30,30,0.0,100.0
503,62.0,30,30,0.0,100.0
504,58.0,30,30,0.0,100.0
505,62.0,30,30,0.0,100.0
506,65.0,30,30,0.0,100.0
507,65.0,30,30,0.0,100.0
508,65.0,30,30,0.0,100.0
509,50.0,30,120,2.0,100.0
510,65.0,0,30,0.0,100.0
511,67.0,30,30,0.0,100.0
512,65.0,30,30,0.0,100.0
513,67.0,30,30,0.0,100.0
514,51.0,30,120,2.0,100.0
515,63.0,0,30,0.0,100.0
516,69.0,30,30,0.0,100.0
517,63.0,30,30,0.0,100.0
518,69.0,30,30,0.0,100.0
519,53.0,30,120,2.0,100.0
520,62.0,30,30,0.0,100.0
521,70.0,30,30,0.0,100.0
522,62.0,30,30,0.0,100.0
523,46.0,0,120,2.0,100.0
524,70.0,30,30,0.0,100.0
525,68.0,30,30,0.0,100.0
526,65.0,30,30,0.0,100.0
527,68.0,30,30,0.0,100.0
528,63.0,30,120,1.0,100.0
529,70.0,30,30,0.0,100.0
530,65.0,30,30,0.0,100.0
531,62.0,0,120,1.0,100.0
532,70.0,30,30,0.0,100.0
533,34.0,30,120,2.0,100.0
534,72.0,30,30,0.0,100.0
535,69.0,30,30,0.0,100.0
536,63.0,30,120,1.0,100.0
537,72.0,30,30,0.0,100.0
538,74.0,30,30,0.0,100.0
539,70.0,30,30,0.0,100.0
540,65.0,0,120,1.0,100.0
541,74.0,30,30,0.0,100.0
542,46.0,30,120,2.0,100.0
543,75.0,0,30,0.0,100.0
544,74.0,30,30,0.0,100.0
545,72.0,30,30,0.0,100.0
546,70.0,30,30,0.0,100.0
547,55.0,0,120,2.0,100.0
548,58.0,30,120,1.0,100.0
549,68.0,30,30,0.0,100.0
550,67.0,30,30,0.0,100.0
551,68.0,30,30,0.0,100.0
552,72.0,30,30,0.0,100.0
553,60.0,0,120,1.0,100.0
554,53.0,0,120,2.0,100.0
555,70.0,0,30,0.0,100.0
556,68.0,30,30,0.0,100.0
557,67.0,30,30,0.0,100.0
558,65.0,30,30,0.0,100.0
559,46.0,30,120,2.0,100.0
560,62.0,0,120,1.0,100.0
561,63.0,30,30,0.0,100.0
562,58.0,30,30,0.0,100.0
563,55.0,30,30,0.0,100.0
564,51.0,0,120,2.0,100.0
565,67.0,30,120,1.0,100.0
566,67.0,30,30,0.0,100.0
567,63.0,30,30,0.0,100.0
568,67.0,30,30,0.0,100.0
569,39.0,30,120,2.0,100.0
570,63.0,30,30,0.0,100.0
571,68.0,30,30,0.0,100.0
572,63.0,30,30,0.0,100.0
573,41.0,0,120,2.0,100.0
574,68.0,30,30,0.0,100.0
575,61.0,0,30,0.0,100.0
576,70.0,30,30,0.0,100.0
577,61.0,30,30,0.0,100.0
578,70.0,30,30,0.0,100.0
579,43.0,30,120,2.0,100.0
580,60.0,30,30,0.0,100.0
581,63.0,30,30,0.0,100.0
582,65.0,30,30,0.0,100.0
583,67.0,30,30,0.0,100.0
584,44.0,0,120,2.0,100.0
585,68.0,30,30,0.0,100.0
586,67.0,30,30,0.0,100.0
587,65.0,30,30,0.0,100.0
588,41.0,0,120,2.0,100.0
589,68.0,30,30,0.0,100.0
590,65.0,0,30,0.0,100.0
591,70.0,30,30,0.0,100.0
592,65.0,30,30,0.0,100.0
593,43.0,30,120,2.0,100.0
594,70.0,30,30,0.0,100.0
595,63.0,0,30,0.0,100.0
596,72.0,30,30,0.0,100.0
597,63.0,30,30,0.0,100.0
598,72.0,30,30,0.0,100.0
599,45.0,30,120,2.0,100.0
600,62.0,0,30,0.0,100.0
601,65.0,30,30,0.0,100.0
602,67.0,30,30,0.0,100.0
603,46.0,30,120,2.0,100.0
604,68.0,30,30,0.0,100.0
605,67.0,30,30,0.0,100.0
606,65.0,30,30,0.0,100.0
607,63.0,30,30,0.0,100.0
608,62.0,30,30,0.0,100.0
609,58.0,0,120,2.0,100.0
610,63.0,0,30,0.0,100.0
611,70.0,30,30,0.0,100.0
612,72.0,30,30,0.0,100.0
613,73.0,30,30,0.0,100.0
614,55.0,30,120,2.0,100.0
615,72.0,30,30,0.0,100.0
616,70.0,30,30,0.0,100.0
617,68.0,30,30,0.0,100.0
618,67.0,30,30,0.0,100.0
619,56.0,0,120,2.0,100.0
620,65.0,30,30,0.0,100.0
621,74.0,30,30,0.0,100.0
622,68.0,30,30,0.0,100.0
623,74.0,30,30,0.0,100.0
624,58.0,0,120,2.0,100.0
625,67.0,0,30,0.0,100.0
626,75.0,30,30,0.0,100.0
627,70.0,30,30,0.0,100.0
628,75.0,30,30,0.0,100.0
629,51.0,30,120,2.0,100.0
630,68.0,0,30,0.0,100.0
631,75.0,30,30,0.0,100.0
632,72.0,30,30,0.0,100.0
633,75.0,30,30,0.0,100.0
634,53.0,30,120,2.0,100.0
635,70.0,30,30,0.0,100.0
636,75.0,30,30,0.0,100.0
637,73.0,30,30,0.0,100.0
638,55.0,0,120,2.0,100.0
639,75.0,30,30,0.0,100.0
640,72.0,30,30,0.0,100.0
641,70.0,30,30,0.0,100.0
642,56.0,30,120,2.0,100.0
643,72.0,30,30,0.0,100.0
644,68.0,30,30,0.0,100.0
645,72.0,30,30,0.0,100.0
646,67.0,30,30,0.0,100.0
647,72.0,30,30,0.0,100.0
648,65.0,30,30,0.0,100.0
649,72.0,30,30,0.0,100.0
650,64.0,30,30,0.0,100.0
651,61.0,0,120,2.0,100.0
652,72.0,30,30,0.0,100.0
653,65.0,30,30,0.0,100.0
654,72.0,30,30,0.0,100.0
655,68.0,30,30,0.0,100.0
656,72.0,30,30,0.0,100.0
657,70.0,30,30,0.0,100.0
658,68.0,30,30,0.0,100.0
659,70.0,30,30,0.0,100.0
660,55.0,30,120,2.0,100.0
661,67.0,30,30,0.0,100.0
662,70.0,30,30,0.0,100.0
663,65.0,30,30,0.0,100.0
664,70.0,30,30,0.0,100.0
665,64.0,0,30,0.0,100.0
666,70.0,30,30,0.0,100.0
667,62.0,30,30,0.0,100.0
668,70.0,30,30,0.0,100.0
669,60.0,30,120,2.0,100.0
670,64.0,30,30,0.0,100.0
671,70.0,30,30,0.0,100.0
672,67.0,30,30,0.0,100.0
673,70.0,30,30,0.0,100.0
674,68.0,30,30,0.0,100.0
675,67.0,30,30,0.0,100.0
676,65.0,30,30,0.0,100.0
677,53.0,0,120,2.0,100.0
678,63.0,30,30,0.0,100.0
679,62.0,0,30,0.0,100.0
680,63.0,30,30,0.0,100.0
681,62.0,30,30,0.0,100.0
682,63.0,30,30,0.0,100.0
683,60.0,30,120,1.0,100.0
684,54.0,0,120,2.0,100.0
685,62.0,30,30,0.0,100.0
686,63.0,30,30,0.0,100.0
687,62.0,30,30,0.0,100.0
688,55.0,0,120,2.0,100.0
689,59.0,0,120,1.0,100.0
690,63.0,30,30,0.0,100.0
691,62.0,0,30,0.0,100.0
692,63.0,30,30,0.0,100.0
693,62.0,30,30,0.0,100.0
694,56.0,30,120,2.0,100.0
695,63.0,30,30,0.0,100.0
696,60.0,0,120,1.0,100.0
697,65.0,0,30,0.0,100.0
698,68.0,30,30,0.0,100.0
699,67.0,30,30,0.0,100.0
700,47.0,30,120,2.0,100.0
701,65.0,30,30,0.0,100.0
702,62.0,0,120,1.0,100.0
703,63.0,30,30,0.0,100.0
704,62.0,30,30,0.0,100.0
705,60.0,30,30,0.0,100.0
706,58.0,30,30,0.0,100.0
707,48.0,0,120,2.0,100.0
708,55.0,0,120,1.0,100.0
709,57.0,0,30,0.0,100.0
710,55.0,30,30,0.0,100.0
711,53.0,30,30,0.0,100.0
712,51.0,30,30,0.0,100.0
713,41.0,30,120,2.0,100.0
714,57.0,0,120,1.0,100.0
715,50.0,0,30,0.0,100.0
716,56.0,30,30,0.0,100.0
717,55.0,30,30,0.0,100.0
718,53.0,30,30,0.0,100.0
719,59.0,0,120,1.0,100.0
720,43.0,30,120,2.0,100.0
721,53.0,30,30,0.0,100.0
722,51.0,30,30,0.0,100.0
723,36.0,0,120,2.0,100.0
724,60.0,30,120,1.0,100.0
725,50.0,30,30,0.0,100.0
726,63.0,30,30,0.0,100.0
727,60.0,30,30,0.0,100.0
728,63.0,30,30,0.0,100.0
729,48.0,30,120,1.0,100.0
730,48.0,0,120,2.0,100.0
731,60.0,30,30,0.0,100.0
732,65.0,30,30,0.0,100.0
733,60.0,30,30,0.0,100.0
734,65.0,30,30,0.0,100.0
735,50.0,0,120,2.0,100.0
736,58.0,30,30,0.0,100.0
737,67.0,30,30,0.0,100.0
738,58.0,30,30,0.0,100.0
739,67.0,30,30,0.0,100.0
740,51.0,0,120,2.0,100.0
741,57.0,30,30,0.0,100.0
742,60.0,30,30,0.0,100.0
743,62.0,30,30,0.0,100.0
744,53.0,0,120,2.0,100.0
745,63.0,30,30,0.0,100.0
746,65.0,30,30,0.0,100.0
747,60.0,30,30,0.0,100.0
748,57.0,30,30,0.0,100.0
749,51.0,0,120,2.0,100.0
750,60.0,30,30,0.0,100.0
751,58.0,0,30,0.0,100.0
752,62.0,30,30,0.0,100.0
753,65.0,30,30,0.0,100.0
754,67.0,30,30,0.0,100.0
755,50.0,30,120,2.0,100.0
756,69.0,30,30,0.0,100.0
757,63.0,30,30,0.0,100.0
758,60.0,30,30,0.0,100.0
759,63.0,30,30,0.0,100.0
760,48.0,0,120,2.0,100.0
761,62.0,30,30,0.0,100.0
762,65.0,30,30,0.0,100.0
763,70.0,30,30,0.0,100.0
764,46.0,0,120,2.0,100.0
765,72.0,30,30,0.0,100.0
766,74.0,30,30,0.0,100.0
767,70.0,30,30,0.0,100.0
768,67.0,30,30,0.0,100.0
769,65.0,30,30,0.0,100.0
770,58.0,0,120,2.0,100.0
771,64.0,0,30,0.0,100.0
772,67.0,30,30,0.0,100.0
773,70.0,30,30,0.0,100.0
774,55.0,30,120,2.0,100.0
775,74.0,30,30,0.0,100.0
776,72.0,0,30,0.0,100.0
777,69.0,30,30,0.0,100.0
778,65.0,30,30,0.0,100.0
779,63.0,30,30,0.0,100.0
780,57.0,30,120,2.0,100.0
781,62.0,30,30,0.0,100.0
782,66.0,30,30,0.0,100.0
783,69.0,30,30,0.0,100.0
784,72.0,30,30,0.0,100.0
785,58.0,0,120,2.0,100.0
786,70.0,30,30,0.0,100.0
787,67.0,30,30,0.0,100.0
788,63.0,30,30,0.0,100.0
789,55.0,0,120,2.0,100.0
790,62.0,30,30,0.0,100.0
791,61.0,30,30,0.0,100.0
792,64.0,30,30,0.0,100.0
793,67.0,30,30,0.0,100.0
794,70.0,30,30,0.0,100.0
795,52.0,0,120,2.0,100.0
796,69.0,0,30,0.0,100.0
797,66.0,30,30,0.0,100.0
798,62.0,30,30,0.0,100.0
799,60.0,30,30,0.0,100.0
800,54.0,30,120,2.0,100.0
801,59.0,30,30,0.0,100.0
802,62.0,30,30,0.0,100.0
803,66.0,30,30,0.0,100.0
804,69.0,30,30,0.0,100.0
805,55.0,0,120,2.0,100.0
806,67.0,30,30,0.0,100.0
807,63.0,30,30,0.0,100.0
808,60.0,30,30,0.0,100.0
809,51.0,0,120,2.0,100.0
810,58.0,30,30,0.0,100.0
811,57.0,0,30,0.0,100.0
812,67.0,30,30,0.0,100.0
813,57.0,30,30,0.0,100.0
814,67.0,30,30,0.0,100.0
815,48.0,30,120,2.0,100.0
816,58.0,30,30,0.0,100.0
817,67.0,30,30,0.0,100.0
818,58.0,30,30,0.0,100.0
819,67.0,30,30,0.0,100.0
820,50.0,0,120,2.0,100.0
821,60.0,0,30,0.0,100.0
822,67.0,30,30,0.0,100.0
823,60.0,30,30,0.0,100.0
824,67.0,30,30,0.0,100.0
825,51.0,30,120,2.0,100.0
826,62.0,30,30,0.0,100.0
827,67.0,30,30,0.0,100.0
828,66.0,30,30,0.0,100.0
829,46.0,0,120,2.0,100.0
830,67.0,30,30,0.0,100.0
831,63.0,0,30,0.0,100.0
832,67.0,30,30,0.0,100.0
833,60.0,30,30,0.0,100.0
834,67.0,30,30,0.0,100.0
835,48.0,30,120,2.0,100.0
836,57.0,30,30,0.0,100.0
837,66.0,30,30,0.0,100.0
838,57.0,30,30,0.0,100.0
839,66.0,30,30,0.0,100.0
840,50.0,0,120,2.0,100.0
841,55.0,0,30,0.0,100.0
842,70.0,30,30,0.0,100.0
843,68.0,30,30,0.0,100.0
844,43.0,30,120,2.0,100.0
845,70.0,30,30,0.0,100.0
846,67.0,0,30,0.0,100.0
847,70.0,30,30,0.0,100.0
848,65.0,30,30,0.0,100.0
849,70.0,30,30,0.0,100.0
850,46.0,30,120,2.0,100.0
851,64.0,30,30,0.0,100.0
852,70.0,30,30,0.0,100.0
853,65.0,30,30,0.0,100.0
854,70.0,30,30,0.0,100.0
855,48.0,0,120,2.0,100.0
856,67.0,30,30,0.0,100.0
857,70.0,30,30,0.0,100.0
858,60.0,30,30,0.0,100.0
859,52.0,0,120,2.0,100.0
860,70.0,30,30,0.0,100.0
861,70.0,30,30,0.0,100.0
862,68.0,30,30,0.0,100.0
863,67.0,30,30,0.0,100.0
864,53.0,30,120,2.0,100.0
865,65.0,30,30,0.0,100.0
866,63.0,30,30,0.0,100.0
867,61.0,30,30,0.0,100.0
868,44.0,0,120,2.0,100.0
869,60.0,30,30,0.0,100.0
870,61.0,30,30,0.0,100.0
871,64.0,30,30,0.0,100.0
872,65.0,30,30,0.0,100.0
873,56.0,30,30,0.0,100.0
874,46.0,0,120,2.0,100.0
875,55.0,0,30,0.0,100.0
876,58.0,30,30,0.0,100.0
877,65.0,30,30,0.0,100.0
878,48.0,30,120,2.0,100.0
879,64.0,30,30,0.0,100.0
880,53.0,0,30,0.0,100.0
881,68.0,30,30,0.0,100.0
882,67.0,30,30,0.0,100.0
883,41.0,30,120,2.0,100.0
884,68.0,30,30,0.0,100.0
885,65.0,0,30,0.0,100.0
886,68.0,30,30,0.0,100.0
887,63.0,30,30,0.0,100.0
888,68.0,30,30,0.0,100.0
889,44.0,30,120,2.0,100.0
890,62.0,0,30,0.0,100.0
891,68.0,30,30,0.0,100.0
892,63.0,30,30,0.0,100.0
893,46.0,30,120,2.0,100.0
894,68.0,30,30,0.0,100.0
895,65.0,30,30,0.0,100.0
896,68.0,30,30,0.0,100.0
897,58.0,30,30,0.0,100.0
898,50.0,0,120,2.0,100.0
899,68.0,30,30,0.0,100.0
900,68.0,30,30,0.0,100.0
901,67.0,30,30,0.0,100.0
902,51.0,30,120,2.0,100.0
903,65.0,30,30,0.0,100.0
904,63.0,0,30,0.0,100.0
905,61.0,30,30,0.0,100.0
906,60.0,30,30,0.0,100.0
907,43.0,30,120,2.0,100.0
908,58.0,30,30,0.0,100.0
909,60.0,0,30,0.0,100.0
910,62.0,30,30,0.0,100.0
911,63.0,30,30,0.0,100.0
912,55.0,30,30,0.0,100.0
913,44.0,30,120,2.0,100.0
914,53.0,30,30,0.0,100.0
915,63.0,30,30,0.0,100.0
916,62.0,30,30,0.0,100.0
917,46.0,0,120,2.0,100.0
918,68.0,30,30,0.0,100.0
919,67.0,30,30,0.0,100.0
920,63.0,30,30,0.0,100.0
921,58.0,30,30,0.0,100.0
922,39.0,0,120,2.0,100.0
923,55.0,30,30,0.0,100.0
924,51.0,30,30,0.0,100.0
925,55.0,30,30,0.0,100.0
926,58.0,30,30,0.0,100.0
927,60.0,30,30,0.0,100.0
928,61.0,0,30,0.0,100.0
929,58.0,30,30,0.0,100.0
930,55.0,30,30,0.0,100.0
931,53.0,30,30,0.0,100.0
932,39.0,30,120,2.0,100.0
933,51.0,30,30,0.0,100.0
934,55.0,30,30,0.0,100.0
935,58.0,30,30,0.0,100.0
936,43.0,0,120,2.0,100.0
937,60.0,30,30,0.0,100.0
938,61.0,0,30,0.0,100.0
939,58.0,30,30,0.0,100.0
940,55.0,30,30,0.0,100.0
941,46.0,30,120,2.0,100.0
942,53.0,30,30,0.0,100.0
943,52.0,30,30,0.0,100.0
944,55.0,30,30,0.0,100.0
945,58.0,30,30,0.0,100.0
946,43.0,0,120,2.0,100.0
947,60.0,30,30,0.0,100.0
948,61.0,30,30,0.0,100.0
949,58.0,30,30,0.0,100.0
950,55.0,30,30,0.0,100.0
951,53.0,30,30,0.0,100.0
952,52.0,0,120,2.0,100.0
953,52.0,30,30,0.0,100.0
954,61.0,30,30,0.0,100.0
955,60.0,30,30,0.0,100.0
956,58.0,30,30,0.0,100.0
957,48.0,0,120,2.0,100.0
958,56.0,0,30,0.0,100.0
959,65.0,30,30,0.0,100.0
960,60.0,30,30,0.0,100.0
961,56.0,30,30,0.0,100.0
962,53.0,30,120,2.0,100.0
963,53.0,30,30,0.0,100.0
964,56.0,30,30,0.0,100.0
965,60.0,30,30,0.0,100.0
966,62.0,30,30,0.0,100.0
967,63.0,30,30,0.0,100.0
968,60.0,30,30,0.0,100.0
969,57.0,30,30,0.0,100.0
970,55.0,30,30,0.0,100.0
971,41.0,0,120,2.0,100.0
972,53.0,0,30,0.0,100.0
973,57.0,30,30,0.0,100.0
974,60.0,30,30,0.0,100.0
975,45.0,30,120,2.0,100.0
976,62.0,30,30,0.0,100.0
977,63.0,0,30,0.0,100.0
978,60.0,30,30,0.0,100.0
979,57.0,30,30,0.0,100.0
980,48.0,30,120,2.0,100.0
981,55.0,30,30,0.0,100.0
982,54.0,0,30,0.0,100.0
983,57.0,30,30,0.0,100.0
984,60.0,30,30,0.0,100.0
985,45.0,30,120,2.0,100.0
986,62.0,30,30,0.0,100.0
987,63.0,0,30,0.0,100.0
988,60.0,30,30,0.0,100.0
989,57.0,30,30,0.0,100.0
990,54.0,30,120,2.0,100.0
991,55.0,30,30,0.0,100.0
992,54.0,0,30,0.0,100.0
993,63.0,30,30,0.0,100.0
994,62.0,30,30,0.0,100.0
995,50.0,30,120,2.0,100.0
996,60.0,30,30,0.0,100.0
997,58.0,30,30,0.0,100.0
998,67.0,30,30,0.0,100.0
999,62.0,30,30,0.0,100.0
1000,58.0,30,30,0.0,100.0
1001,55.0,0,120,2.0,100.0
1002,55.0,30,30,0.0,100.0
1003,58.0,30,30,0.0,100.0
1004,61.0,30,30,0.0,100.0
1005,63.0,30,30,0.0,100.0
1006,64.0,0,30,0.0,100.0
1007,61.0,30,30,0.0,100.0
1008,58.0,30,30,0.0,100.0
1009,43.0,30,120,2.0,100.0
1010,56.0,30,30,0.0,100.0
1011,55.0,0,30,0.0,100.0
1012,58.0,30,30,0.0,100.0
1013,61.0,30,30,0.0,100.0
1014,46.0,30,120,2.0,100.0
1015,63.0,30,30,0.0,100.0
1016,64.0,30,30,0.0,100.0
1017,61.0,30,30,0.0,100.0
1018,58.0,30,30,0.0,100.0
1019,49.0,0,120,2.0,100.0
1020,56.0,30,30,0.0,100.0
1021,55.0,0,30,0.0,100.0
1022,58.0,30,30,0.0,100.0
1023,61.0,30,30,0.0,100.0
1024,63.0,30,30,0.0,100.0
1025,46.0,30,120,2.0,100.0
1026,64.0,0,30,0.0,100.0
1027,61.0,30,30,0.0,100.0
1028,58.0,30,30,0.0,100.0
1029,56.0,30,30,0.0,100.0
1030,55.0,30,120,2.0,100.0
1031,55.0,30,30,0.0,100.0
1032,65.0,30,30,0.0,100.0
1033,63.0,30,30,0.0,100.0
1034,61.0,30,30,0.0,100.0
1035,51.0,0,120,2.0,100.0
1036,60.0,30,30,0.0,100.0
1037,58.0,30,30,0.0,100.0
1038,56.0,0,60,2.0,100.0
1039,56.0,30,30,0.0,100.0
1040,55.0,30,30,0.0,100.0
1041,53.0,0,30,0.0,100.0
1042,55.0,30,30,0.0,100.0
1043,53.0,30,30,0.0,100.0
1044,55.0,30,30,0.0,100.0
1045,63.0,0,120,1.0,100.0
1046,45.0,30,120,2.0,100.0
1047,53.0,30,30,0.0,100.0
1048,55.0,30,30,0.0,100.0
1049,53.0,30,30,0.0,100.0
1050,62.0,0,120,1.0,100.0
1051,46.0,0,120,2.0,100.0
1052,55.0,30,30,0.0,100.0
1053,53.0,0,30,0.0,100.0
1054,55.0,30,30,0.0,100.0
1055,53.0,30,30,0.0,100.0
1056,55.0,30,30,0.0,100.0
1057,63.0,0,120,1.0,100.0
1058,48.0,30,120,2.0,100.0
1059,56.0,30,30,0.0,100.0
1060,58.0,30,30,0.0,100.0
1061,56.0,30,30,0.0,100.0
1062,58.0,30,30,0.0,100.0
1063,65.0,0,120,1.0,100.0
1064,38.0,0,120,2.0,100.0
1065,58.0,30,30,0.0,100.0
1066,60.0,30,30,0.0,100.0
1067,61.0,30,30,0.0,100.0
1068,55.0,30,120,1.0,100.0
1069,39.0,0,120,2.0,100.0
1070,58.0,30,30,0.0,100.0
1071,56.0,30,30,0.0,100.0
1072,44.0,0,120,2.0,100.0
1073,55.0,30,30,0.0,100.0
1074,60.0,30,120,1.0,100.0
1075,53.0,0,30,0.0,100.0
1076,62.0,30,30,0.0,100.0
1077,60.0,30,30,0.0,100.0
1078,62.0,30,30,0.0,100.0
1079,53.0,30,120,1.0,100.0
1080,46.0,0,120,2.0,100.0
1081,63.0,30,30,0.0,100.0
1082,58.0,30,30,0.0,100.0
1083,55.0,30,30,0.0,100.0
1084,58.0,30,30,0.0,100.0
1085,39.0,0,120,2.0,100.0
1086,58.0,30,30,0.0,100.0
1087,55.0,30,30,0.0,100.0
1088,51.0,30,120,2.0,100.0
1089,58.0,30,30,0.0,100.0
1090,60.0,30,30,0.0,100.0
1091,56.0,30,30,0.0,100.0
1092,51.0,30,30,0.0,100.0
1093,56.0,30,30,0.0,100.0
1094,60.0,30,30,0.0,100.0
1095,56.0,30,30,0.0,100.0
1096,60.0,30,30,0.0,100.0
1097,39.0,30,120,2.0,100.0
1098,58.0,30,30,0.0,100.0
1099,55.0,30,30,0.0,100.0
1100,51.0,30,30,0.0,100.0
1101,55.0,30,30,0.0,100.0
1102,70.0,30,30,0.0,100.0
1103,58.0,30,30,0.0,100.0
1104,43.0,30,120,2.0,100.0
1105,70.0,30,30,0.0,100.0
1106,60.0,0,30,0.0,100.0
1107,70.0,30,30,0.0,100.0
1108,60.0,30,30,0.0,100.0
1109,44.0,30,120,2.0,100.0
1110,70.0,30,30,0.0,100.0
1111,62.0,0,30,0.0,100.0
1112,68.0,30,30,0.0,100.0
1113,62.0,30,30,0.0,100.0
1114,68.0,30,30,0.0,100.0
1115,46.0,30,120,2.0,100.0
1116,67.0,30,30,0.0,100.0
1117,63.0,30,30,0.0,100.0
1118,58.0,30,30,0.0,100.0
1119,39.0,0,120,2.0,100.0
1120,55.0,30,30,0.0,100.0
1121,63.0,60,60,1.0,100.0
1122,67.0,60,0,0.0,100.0
1123,51.0,30,120,2.0,100.0
1124,63.0,0,60,1.0,100.0
1125,58.0,0,120,2.0,100.0
1126,65.0,60,60,0.0,100.0
1127,62.0,0,60,1.0,100.0
1128,56.0,60,60,1.0,100.0
1129,46.0,60,120,2.0,100.0
1130,62.0,0,0,0.0,100.0
1131,56.0,0,60,1.0,100.0
1132,39.0,60,120,2.0,100.0
1133,55.0,0,60,1.0,100.0
1134,63.0,60,60,0.0,100.0
1135,62.0,60,60,1.0,100.0
1136,70.0,60,0,0.0,100.0
1137,51.0,60,120,2.0,100.0
1138,62.0,0,60,1.0,100.0
1139,69.0,0,60,0.0,100.0
1140,53.0,0,120,2.0,100.0
1141,60.0,60,60,1.0,100.0
1142,63.0,60,0,0.0,100.0
1143,57.0,0,60,1.0,100.0
1144,41.0,60,120,2.0,100.0
1145,57.0,0,60,1.0,100.0
1146,58.0,0,60,1.0,100.0
1147,46.0,0,120,2.0,100.0
1148,62.0,60,60,0.0,100.0
1149,65.0,30,30,0.0,100.0
1150,62.0,30,30,0.0,100.0
1151,65.0,30,30,0.0,100.0
1152,58.0,60,120,2.0,100.0
1153,67.0,30,30,0.0,100.0
1154,63.0,30,30,0.0,100.0
1155,58.0,30,30,0.0,100.0
1156,63.0,30,30,0.0,100.0
1157,67.0,30,30,0.0,100.0
1158,63.0,30,30,0.0,100.0
1159,67.0,30,30,0.0,100.0
1160,46.0,30,120,2.0,100.0
1161,65.0,30,30,0.0,100.0
1162,62.0,30,30,0.0,100.0
1163,58.0,30,30,0.0,100.0
1164,62.0,30,30,0.0,100.0
1165,65.0,30,30,0.0,100.0
1166,53.0,30,30,0.0,100.0
1167,65.0,30,30,0.0,100.0
1168,38.0,30,120,2.0,100.0
1169,55.0,30,30,0.0,100.0
1170,65.0,30,30,0.0,100.0
1171,55.0,30,30,0.0,100.0
1172,39.0,0,120,2.0,100.0
1173,65.0,30,30,0.0,100.0
1174,57.0,0,30,0.0,100.0
1175,63.0,30,30,0.0,100.0
1176,57.0,30,30,0.0,100.0
1177,41.0,30,120,2.0,100.0
1178,63.0,30,30,0.0,100.0
1179,62.0,0,30,0.0,100.0
1180,58.0,30,30,0.0,100.0
1181,53.0,30,30,0.0,100.0
1182,34.0,30,120,2.0,100.0
1183,50.0,30,30,0.0,100.0
1184,58.0,60,0,1.0,100.0
1185,62.0,0,0,0.0,100.0
1186,46.0,30,120,2.0,100.0
1187,60.0,0,60,0.0,100.0
1188,57.0,60,60,1.0,100.0
1189,53.0,0,120,2.0,100.0
1190,69.0,0,60,0.0,100.0
1191,41.0,60,120,2.0,100.0
1192,63.0,0,0,1.0,100.0
1193,69.0,0,60,0.0,100.0
1194,62.0,60,60,1.0,100.0
1195,70.0,0,60,0.0,100.0
1196,46.0,60,120,2.0,100.0
1197,68.0,60,60,0.0,100.0
1198,47.0,60,120,2.0,100.0
1199,65.0,0,60,1.0,100.0
1200,68.0,0,60,0.0,100.0
1201,65.0,0,60,1.0,100.0
1202,48.0,60,120,2.0,100.0
1203,64.0,0,60,1.0,100.0
1204,67.0,60,60,0.0,100.0
1205,58.0,60,60,1.0,100.0
1206,64.0,0,0,0.0,100.0
1207,36.0,60,120,2.0,100.0
1208,58.0,60,60,1.0,100.0
1209,56.0,0,60,1.0,100.0
1210,65.0,60,60,0.0,100.0
1211,41.0,0,120,2.0,100.0
1212,65.0,60,30,0.0,100.0
1213,68.0,30,30,0.0,100.0
1214,63.0,30,30,0.0,100.0
1215,68.0,30,30,0.0,100.0
1216,62.0,30,30,0.0,100.0
1217,68.0,30,30,0.0,100.0
1218,58.0,30,30,0.0,100.0
1219,68.0,30,30,0.0,100.0
1220,63.0,30,30,0.0,100.0
1221,67.0,30,30,0.0,100.0
1222,62.0,30,30,0.0,100.0
1223,67.0,30,30,0.0,100.0
1224,60.0,30,30,0.0,100.0
1225,67.0,30,30,0.0,100.0
1226,56.0,30,30,0.0,100.0
1227,67.0,30,30,0.0,100.0
1228,65.0,0,30,0.0,100.0
1229,68.0,30,30,0.0,100.0
1230,62.0,30,60,2.0,100.0
1231,65.0,30,30,0.0,100.0
1232,68.0,30,30,0.0,100.0
1233,60.0,0,60,2.0,100.0
1234,65.0,0,30,0.0,100.0
1235,59.0,30,60,2.0,100.0
1236,67.0,30,30,0.0,100.0
1237,65.0,0,30,0.0,100.0
1238,67.0,30,30,0.0,100.0
1239,55.0,30,60,2.0,100.0
1240,63.0,30,30,0.0,100.0
1241,67.0,30,30,0.0,100.0
1242,60.0,0,60,2.0,100.0
1243,63.0,30,30,0.0,100.0
1244,58.0,0,60,2.0,100.0
1245,67.0,30,30,0.0,100.0
1246,63.0,30,30,0.0,100.0
1247,65.0,30,30,0.0,100.0
1248,57.0,0,60,2.0,100.0
1249,63.0,30,30,0.0,100.0
1250,65.0,30,30,0.0,100.0
1251,53.0,0,60,2.0,100.0
1252,62.0,0,30,0.0,100.0
1253,65.0,30,30,0.0,100.0
1254,58.0,30,60,2.0,100.0
1255,67.0,30,30,0.0,100.0
1256,68.0,30,30,0.0,100.0
1257,56.0,0,60,2.0,100.0
1258,70.0,0,30,0.0,100.0
1259,55.0,30,60,2.0,100.0
1260,61.0,30,30,0.0,100.0
1261,70.0,0,30,0.0,100.0
1262,51.0,30,60,2.0,100.0
1263,61.0,30,30,0.0,100.0
1264,60.0,0,30,0.0,100.0
1265,56.0,30,60,2.0,100.0
1266,63.0,30,30,0.0,100.0
1267,65.0,30,30,0.0,100.0
1268,55.0,0,60,2.0,100.0
1269,67.0,30,30,0.0,100.0
1270,53.0,0,60,2.0,100.0
1271,68.0,30,60,0.0,100.0
1272,51.0,60,60,2.0,100.0
1273,60.0,0,60,3.0,100.0
1274,68.0,60,60,0.0,100.0
1275,65.0,0,60,1.0,100.0
1276,51.0,0,60,2.0,100.0
1277,50.0,0,0,2.0,100.0
1278,48.0,60,60,2.0,100.0
1279,50.0,60,60,2.0,100.0
1280,68.0,60,180,0.0,100.0
1281,65.0,0,180,1.0,100.0
1282,58.0,0,180,3.0,100.0
1283,67.0,0,30,0.0,100.0
1284,46.0,60,60,2.0,100.0
1285,65.0,30,30,0.0,100.0
1286,67.0,30,30,0.0,100.0
1287,51.0,0,60,2.0,100.0
1288,69.0,30,30,0.0,100.0
1289,67.0,30,30,0.0,100.0
1290,50.0,0,60,2.0,100.0
1291,69.0,30,30,0.0,100.0
1292,48.0,30,60,2.0,100.0
1293,69.0,0,90,0.0,100.0
1294,70.0,30,30,0.0,100.0
1295,41.0,60,60,2.0,100.0
1296,62.0,0,30,1.0,100.0
1297,58.0,30,30,1.0,100.0
1298,70.0,30,60,0.0,100.0
1299,57.0,30,30,1.0,100.0
1300,58.0,30,30,1.0,100.0
1301,46.0,0,120,2.0,100.0
1302,63.0,0,30,1.0,100.0
1303,58.0,30,30,1.0,100.0
1304,57.0,30,30,1.0,100.0
1305,43.0,30,120,2.0,100.0
1306,58.0,30,30,1.0,100.0
1307,65.0,0,30,1.0,100.0
1308,56.0,30,30,1.0,100.0
1309,55.0,30,30,1.0,100.0
1310,38.0,30,120,2.0,100.0
1311,53.0,30,30,1.0,100.0
1312,55.0,0,30,1.0,100.0
1313,58.0,30,30,1.0,100.0
1314,60.0,30,30,1.0,100.0
1315,39.0,30,120,2.0,100.0
1316,61.0,30,30,1.0,100.0
1317,60.0,0,30,1.0,100.0
1318,58.0,30,30,1.0,100.0
1319,56.0,30,30,1.0,100.0
1320,55.0,30,30,1.0,100.0
1321,44.0,30,120,2.0,100.0
1322,53.0,30,30,1.0,100.0
1323,56.0,30,30,1.0,100.0
1324,58.0,30,30,1.0,100.0
1325,62.0,30,30,1.0,100.0
1326,46.0,0,120,2.0,100.0
1327,63.0,0,30,1.0,100.0
1328,58.0,30,30,1.0,100.0
1329,55.0,30,30,1.0,100.0
1330,51.0,30,30,1.0,100.0
1331,39.0,30,120,2.0,100.0
1332,58.0,30,120,1.0,100.0
1333,62.0,60,60,0.0,100.0
1334,63.0,0,60,0.0,100.0
1335,55.0,60,120,1.0,100.0
1336,67.0,60,60,0.0,100.0
1337,65.0,0,60,0.0,100.0
1338,63.0,60,60,0.0,100.0
1339,56.0,60,120,1.0,100.0
1340,62.0,0,60,0.0,100.0
1341,58.0,60,120,1.0,100.0
1342,68.0,60,60,0.0,100.0
1343,67.0,0,60,0.0,100.0
1344,65.0,60,60,0.0,100.0
1345,51.0,60,120,1.0,100.0
1346,63.0,60,60,0.0,100.0
1347,62.0,60,60,0.0,100.0
1348,55.0,0,120,1.0,100.0
1349,60.0,60,60,0.0,100.0
1350,65.0,60,60,0.0,100.0
1351,57.0,0,120,1.0,100.0
1352,58.0,0,60,1.0,100.0
1353,62.0,60,120,0.0,100.0
1354,60.0,60,60,1.0,100.0
1355,58.0,0,60,1.0,100.0
1356,56.0,60,60,1.0,100.0
1357,65.0,60,120,0.0,100.0
1358,55.0,60,60,1.0,100.0
1359,61.0,60,60,1.0,100.0
1360,70.0,0,120,0.0,100.0
1361,60.0,60,60,1.0,100.0
1362,64.0,0,120,0.0,100.0
1363,58.0,60,60,1.0,100.0
1364,65.0,60,60,0.0,100.0
1365,60.0,60,60,0.0,100.0
1366,56.0,0,120,1.0,100.0
1367,65.0,60,60,0.0,100.0
1368,55.0,0,60,1.0,100.0
1369,67.0,60,60,0.0,100.0
1370,53.0,0,60,1.0,100.0
1371,60.0,60,60,1.0,100.0
1372,68.0,60,120,0.0,100.0
1373,58.0,0,60,1.0,100.0
1374,56.0,60,60,1.0,100.0
1375,62.0,60,120,0.0,100.0
1376,63.0,0,60,0.0,100.0
1377,55.0,60,120,1.0,100.0
1378,65.0,60,60,0.0,100.0
1379,67.0,0,60,0.0,100.0
1380,51.0,60,120,2.0,100.0
1381,69.0,60,60,0.0,100.0
1382,70.0,0,60,0.0,100.0
1383,62.0,0,60,1.0,100.0
1384,50.0,60,120,2.0,100.0
1385,65.0,60,60,0.0,100.0
1386,60.0,60,60,1.0,100.0
1387,63.0,0,60,0.0,100.0
1388,51.0,0,120,2.0,100.0
1389,62.0,0,60,0.0,100.0
1390,58.0,60,60,1.0,100.0
1391,57.0,0,60,1.0,100.0
1392,55.0,60,60,1.0,100.0
1393,60.0,0,120,0.0,100.0
1394,53.0,60,120,2.0,100.0
1395,53.0,60,60,1.0,100.0
1396,46.0,0,120,2.0,100.0
1397,58.0,60,60,1.0,100.0
1398,62.0,0,60,0.0,100.0
1399,63.0,0,60,0.0,100.0
1400,48.0,0,120,2.0,100.0
1401,55.0,60,120,1.0,100.0
1402,72.0,60,60,0.0,100.0
1403,70.0,0,60,0.0,100.0
1404,53.0,60,120,1.0,100.0
1405,50.0,0,120,2.0,100.0
1406,68.0,60,60,0.0,100.0
1407,67.0,0,60,0.0,100.0
1408,51.0,0,120,2.0,100.0
1409,58.0,60,120,1.0,100.0
1410,65.0,60,60,0.0,100.0
1411,63.0,0,60,0.0,100.0
1412,68.0,60,60,0.0,100.0
1413,60.0,60,120,1.0,100.0
1414,62.0,60,30,0.0,100.0
1415,65.0,30,30,0.0,100.0
1416,63.0,30,30,0.0,100.0
1417,56.0,0,240,2.0,100.0
1418,62.0,30,30,0.0,100.0
1419,58.0,0,120,1.0,100.0
1420,70.0,30,60,0.0,100.0
1421,58.0,60,60,1.0,100.0
1422,55.0,0,120,2.0,100.0
1423,61.0,0,60,0.0,100.0
1424,55.0,30,30,1.0,100.0
1425,53.0,30,30,1.0,100.0
1426,51.0,30,30,1.0,100.0
1427,60.0,60,120,0.0,100.0
1428,56.0,0,120,2.0,100.0
1429,68.0,30,30,0.0,100.0
1430,67.0,30,30,0.0,100.0
1431,65.0,30,30,0.0,100.0
1432,53.0,30,120,1.0,100.0
1433,65.0,30,30,0.0,100.0
1434,63.0,30,30,0.0,100.0
1435,70.0,30,120,2.0,100.0
1436,62.0,30,30,0.0,100.0
1437,55.0,0,120,1.0,100.0
1438,60.0,30,60,0.0,100.0
1439,63.0,0,60,0.0,100.0
1440,72.0,0,0,2.0,100.0
1441,57.0,0,120,1.0,100.0
1442,63.0,0,60,0.0,100.0
1443,62.0,0,30,0.0,100.0
1444,70.0,60,60,2.0,100.0
1445,58.0,60,120,1.0,100.0
1446,60.0,30,30,0.0,100.0
1447,62.0,30,60,0.0,100.0
1448,65.0,60,60,0.0,100.0
1449,68.0,0,0,2.0,100.0
1450,46.0,0,120,1.0,100.0
1451,65.0,60,60,0.0,100.0
1452,67.0,0,60,2.0,100.0
1453,63.0,60,60,0.0,100.0
1454,43.0,0,120,1.0,100.0
1455,63.0,0,60,0.0,100.0
1456,44.0,60,120,1.0,100.0
1457,55.0,60,60,2.0,100.0
1458,63.0,60,60,0.0,100.0
1459,55.0,0,60,2.0,100.0
1460,46.0,0,120,1.0,100.0
1461,62.0,0,60,0.0,100.0
1462,53.0,60,60,2.0,100.0
1463,63.0,60,60,0.0,100.0
1464,67.0,0,120,2.0,100.0
1465,39.0,60,120,1.0,100.0
1466,61.0,60,60,0.0,100.0
1467,68.0,0,120,2.0,100.0
1468,41.0,0,120,1.0,100.0
1469,60.0,60,60,0.0,100.0
1470,58.0,0,60,0.0,100.0
1471,70.0,0,0,2.0,100.0
1472,63.0,60,60,0.0,100.0
1473,43.0,0,120,1.0,100.0
1474,61.0,60,60,0.0,100.0
1475,44.0,0,120,1.0,100.0
1476,60.0,0,60,0.0,100.0
1477,68.0,60,60,2.0,100.0
1478,58.0,60,60,0.0,100.0
1479,48.0,60,120,1.0,100.0
1480,55.0,0,0,2.0,100.0
1481,58.0,60,60,0.0,100.0
1482,44.0,0,120,1.0,100.0
1483,53.0,60,60,2.0,100.0
1484,56.0,0,60,0.0,100.0
1485,56.0,60,0,2.0,100.0
1486,46.0,60,120,1.0,100.0
1487,65.0,0,0,0.0,100.0
1488,48.0,0,120,1.0,100.0
1489,55.0,0,60,2.0,100.0
1490,64.0,60,60,0.0,100.0
1491,57.0,0,120,2.0,100.0
1492,41.0,60,120,1.0,100.0
1493,65.0,60,60,0.0,100.0
1494,63.0,0,60,0.0,100.0
1495,58.0,60,120,2.0,100.0
1496,62.0,60,60,0.0,100.0
1497,43.0,0,120,1.0,100.0
1498,60.0,0,60,0.0,100.0
1499,44.0,0,120,1.0,100.0
1500,65.0,60,60,0.0,100.0
1501,60.0,60,120,2.0,100.0
1502,63.0,0,60,0.0,100.0
1503,60.0,0,60,2.0,100.0
1504,46.0,60,120,1.0,100.0
1505,62.0,60,60,0.0,100.0
1506,58.0,0,60,2.0,100.0
1507,65.0,0,60,0.0,100.0
1508,56.0,0,60,2.0,100.0
1509,55.0,0,60,2.0,100.0
1510,39.0,60,120,1.0,100.0
1511,63.0,60,60,0.0,100.0
1512,38.0,0,120,1.0,100.0
1513,53.0,60,120,2.0,100.0
1514,70.0,60,60,0.0,100.0
1515,68.0,0,60,0.0,100.0
1516,63.0,60,60,2.0,100.0
1517,39.0,60,120,1.0,100.0
1518,67.0,0,60,0.0,100.0
1519,62.0,60,60,2.0,100.0
1520,65.0,0,60,0.0,100.0
1521,63.0,0,60,0.0,100.0
1522,60.0,0,0,2.0,100.0
1523,41.0,0,120,1.0,100.0
1524,62.0,60,60,0.0,100.0
1525,34.0,0,120,1.0,100.0
1526,67.0,60,60,0.0,100.0
1527,58.0,0,60,2.0,100.0
1528,56.0,0,60,2.0,100.0
1529,36.0,60,120,1.0,100.0
1530,63.0,0,120,0.0,100.0
1531,55.0,60,60,2.0,100.0
1532,53.0,0,60,2.0,100.0
1533,38.0,0,120,1.0,100.0
1534,65.0,0,0,0.0,100.0
1535,58.0,60,60,2.0,100.0
1536,56.0,60,60,2.0,100.0
1537,55.0,60,60,2.0,100.0
1538,63.0,0,60,0.0,100.0
1539,39.0,0,120,1.0,100.0
1540,61.0,60,0,0.0,100.0
1541,58.0,0,0,2.0,100.0
1542,43.0,60,120,1.0,100.0
1543,56.0,0,60,2.0,100.0
1544,44.0,0,120,1.0,100.0
1545,60.0,60,60,0.0,100.0
1546,43.0,60,120,1.0,100.0
1547,64.0,60,0,0.0,100.0
1548,58.0,0,0,2.0,100.0
1549,41.0,0,120,1.0,100.0
1550,65.0,0,60,0.0,100.0
1551,56.0,60,60,2.0,100.0
1552,45.0,60,120,1.0,100.0
1553,60.0,0,0,2.0,100.0
1554,63.0,60,0,0.0,100.0
1555,58.0,0,60,2.0,100.0
1556,62.0,60,60,0.0,100.0
1557,46.0,0,120,1.0,100.0
1558,44.0,60,120,1.0,100.0
1559,60.0,60,60,2.0,100.0
1560,66.0,0,60,0.0,100.0
1561,60.0,60,60,2.0,100.0
1562,66.0,0,60,0.0,100.0
1563,59.0,60,60,2.0,100.0
1564,67.0,0,60,0.0,100.0
1565,43.0,0,120,1.0,100.0
1566,65.0,60,60,0.0,100.0
1567,62.0,0,0,2.0,100.0
1568,47.0,60,120,1.0,100.0
1569,65.0,60,60,0.0,100.0
1570,60.0,0,60,2.0,100.0
1571,48.0,0,120,1.0,100.0
1572,63.0,60,60,0.0,100.0
1573,61.0,60,60,2.0,100.0
1574,46.0,60,120,1.0,100.0
1575,67.0,0,60,0.0,100.0
1576,67.0,0,60,0.0,100.0
1577,61.0,60,60,2.0,100.0
1578,44.0,0,120,1.0,100.0
1579,60.0,0,60,2.0,100.0
1580,68.0,60,60,0.0,100.0
1581,58.0,60,60,2.0,100.0
1582,67.0,0,60,0.0,100.0
1583,32.0,60,120,1.0,100.0
1584,58.0,0,60,2.0,100.0
1585,67.0,0,60,0.0,100.0
1586,56.0,60,60,2.0,100.0
1587,65.0,0,60,0.0,100.0
1588,44.0,60,120,1.0,100.0
1589,63.0,0,0,0.0,100.0
1590,55.0,60,0,2.0,100.0
1591,32.0,60,120,1.0,100.0
1592,34.0,0,60,1.0,100.0
1593,53.0,60,60,2.0,100.0
1594,46.0,0,60,1.0,100.0
1595,62.0,0,60,0.0,100.0
1596,48.0,60,60,1.0,100.0
1597,70.0,0,120,0.0,100.0
1598,50.0,60,60,1.0,100.0
1599,51.0,60,60,1.0,100.0
1600,67.0,0,120,0.0,100.0
1601,63.0,0,60,2.0,100.0
1602,48.0,60,60,1.0,100.0
1603,46.0,0,60,1.0,100.0
1604,61.0,0,60,2.0,100.0
1605,68.0,60,120,0.0,100.0
1606,44.0,0,60,1.0,100.0
1607,60.0,60,60,2.0,100.0
1608,58.0,0,60,2.0,100.0
1609,43.0,0,120,1.0,100.0
1610,70.0,60,120,0.0,100.0
1611,61.0,60,60,2.0,100.0
1612,60.0,60,60,2.0,100.0
1613,58.0,60,60,2.0,100.0
1614,44.0,0,120,1.0,100.0
1615,63.0,0,120,0.0,100.0
1616,56.0,60,120,2.0,100.0
1617,49.0,60,60,1.0,100.0
1618,65.0,0,120,0.0,100.0
1619,48.0,60,60,1.0,100.0
1620,46.0,60,60,1.0,100.0
1621,67.0,0,120,0.0,100.0
1622,58.0,0,120,2.0,100.0
1623,53.0,60,60,1.0,100.0
1624,51.0,60,60,1.0,100.0
1625,60.0,0,120,2.0,100.0
1626,68.0,0,120,0.0,100.0
1627,58.0,60,0,2.0,100.0
1628,53.0,0,120,3.0,100.0
1629,68.0,0,60,0.0,100.0
1630,50.0,60,120,1.0,100.0
1631,67.0,0,60,0.0,100.0
1632,60.0,60,60,2.0,100.0
1633,55.0,0,120,3.0,100.0
1634,51.0,0,120,1.0,100.0
1635,72.0,0,60,0.0,100.0
1636,70.0,0,60,0.0,100.0
1637,56.0,60,120,3.0,100.0
1638,68.0,0,0,0.0,100.0
1639,62.0,0,60,2.0,100.0
1640,53.0,0,120,1.0,100.0
1641,62.0,0,60,2.0,100.0
1642,67.0,0,30,0.0,100.0
1643,63.0,60,60,2.0,100.0
1644,65.0,30,30,0.0,100.0
1645,55.0,60,120,1.0,100.0
1646,58.0,0,120,3.0,100.0
1647,67.0,0,120,0.0,100.0
1648,39.0,30,120,1.0,100.0
1649,63.0,60,60,2.0,100.0
1650,63.0,0,60,2.0,100.0
1651,61.0,60,60,2.0,100.0
1652,41.0,0,120,1.0,100.0
1653,68.0,60,120,0.0,100.0
1654,61.0,60,60,2.0,100.0
1655,43.0,60,120,1.0,100.0
1656,70.0,0,120,0.0,100.0
1657,61.0,0,60,2.0,100.0
1658,63.0,0,120,0.0,100.0
1659,44.0,60,120,1.0,100.0
1660,60.0,60,60,2.0,100.0
1661,56.0,60,120,3.0,100.0
1662,65.0,60,0,2.0,100.0
1663,68.0,0,60,0.0,100.0
1664,53.0,0,120,1.0,100.0
1665,68.0,0,60,0.0,100.0
1666,58.0,0,120,3.0,100.0
1667,67.0,0,60,0.0,100.0
1668,63.0,60,60,2.0,100.0
1669,55.0,0,120,1.0,100.0
1670,60.0,60,120,3.0,100.0
1671,67.0,0,0,0.0,100.0
1672,63.0,0,60,2.0,100.0
1673,57.0,0,120,1.0,100.0
1674,63.0,0,60,2.0,100.0
1675,62.0,0,60,2.0,100.0
1676,58.0,0,120,1.0,100.0
1677,58.0,60,120,3.0,100.0
1678,65.0,60,60,0.0,100.0
1679,67.0,0,60,2.0,100.0
1680,46.0,0,120,1.0,100.0
1681,70.0,60,60,0.0,100.0
1682,50.0,60,120,3.0,100.0
1683,70.0,0,60,0.0,100.0
1684,67.0,0,60,2.0,100.0
1685,48.0,60,120,1.0,100.0
1686,68.0,60,60,0.0,100.0
1687,65.0,0,60,2.0,100.0
1688,51.0,0,120,3.0,100.0
1689,53.0,60,120,3.0,100.0
1690,50.0,0,120,1.0,100.0
1691,65.0,0,60,2.0,100.0
1692,68.0,0,0,0.0,100.0
1693,65.0,0,60,2.0,100.0
1694,51.0,60,120,1.0,100.0
1695,55.0,0,120,3.0,100.0
1696,67.0,60,60,0.0,100.0
1697,63.0,0,60,2.0,100.0
1698,65.0,0,60,0.0,100.0
1699,56.0,0,120,3.0,100.0
1700,62.0,60,60,2.0,100.0
1701,41.0,60,120,1.0,100.0
1702,62.0,0,60,2.0,100.0
1703,65.0,60,60,0.0,100.0
1704,63.0,60,60,2.0,100.0
1705,58.0,0,120,3.0,100.0
1706,43.0,0,120,1.0,100.0
1707,63.0,0,60,0.0,100.0
1708,65.0,30,30,0.0,100.0
1709,67.0,30,30,0.0,100.0
1710,68.0,30,30,0.0,100.0
1711,60.0,0,120,3.0,100.0
1712,63.0,0,30,0.0,100.0
1713,62.0,30,30,0.0,100.0
1714,60.0,30,30,0.0,100.0
1715,53.0,30,120,1.0,100.0
1716,44.0,60,240,2.0,100.0
1717,58.0,30,30,0.0,100.0
1718,70.0,0,60,0.0,100.0
1719,58.0,0,60,3.0,100.0
1720,43.0,0,60,2.0,100.0
1721,63.0,30,120,1.0,100.0
1722,51.0,0,120,1.0,100.0
1723,68.0,0,60,0.0,100.0
1724,60.0,0,60,3.0,100.0
1725,44.0,60,60,2.0,100.0
1726,63.0,60,120,1.0,100.0
1727,67.0,0,120,0.0,100.0
1728,58.0,0,120,3.0,100.0
1729,46.0,0,120,2.0,100.0
1730,34.0,120,120,2.0,100.0
1731,62.0,0,120,1.0,100.0
1732,56.0,0,120,3.0,100.0
1733,65.0,0,120,0.0,100.0
1734,55.0,0,120,3.0,100.0
1735,39.0,0,120,2.0,100.0
1736,63.0,0,120,0.0,100.0
1737,58.0,120,120,1.0,100.0
