,note,step,duration,channel,velocity
0,81.0,0,30,3.0,0.0
1,69.0,15,30,3.0,0.0
2,81.0,0,30,0.0,0.0
3,69.0,0,30,0.0,0.0
4,81.0,30,30,2.0,0.0
5,69.0,0,30,2.0,0.0
6,69.0,0,30,1.0,0.0
7,81.0,0,30,1.0,0.0
8,79.0,5,30,3.0,0.0
9,67.0,0,30,3.0,0.0
10,67.0,10,30,0.0,0.0
11,79.0,0,30,0.0,0.0
12,67.0,10,30,1.0,0.0
13,79.0,845,30,1.0,0.0
14,69.0,15,840,3.0,0.0
15,81.0,0,840,3.0,0.0
16,81.0,0,840,0.0,0.0
17,69.0,0,840,0.0,0.0
18,81.0,0,840,1.0,0.0
19,69.0,30,840,1.0,0.0
20,79.0,0,30,3.0,0.0
21,67.0,10,30,3.0,0.0
22,67.0,0,30,0.0,0.0
23,79.0,5,30,0.0,0.0
24,67.0,10,30,1.0,0.0
25,79.0,20,30,1.0,0.0
26,65.0,10,30,0.0,0.0
27,65.0,0,30,3.0,0.0
28,77.0,0,30,3.0,0.0
29,77.0,5,30,0.0,0.0
30,65.0,10,30,1.0,0.0
31,77.0,20,30,1.0,0.0
32,64.0,10,30,3.0,0.0
33,76.0,5,30,3.0,0.0
34,76.0,0,30,0.0,0.0
35,64.0,0,30,0.0,0.0
36,64.0,10,30,1.0,0.0
37,76.0,20,30,1.0,0.0
38,62.0,10,30,3.0,0.0
39,62.0,0,30,0.0,0.0
40,74.0,5,30,0.0,0.0
41,74.0,0,30,3.0,0.0
42,74.0,515,30,1.0,0.0
43,62.0,10,30,1.0,0.0
44,73.0,0,540,3.0,0.0
45,61.0,0,540,3.0,0.0
46,61.0,15,540,0.0,0.0
47,73.0,0,540,0.0,0.0
48,61.0,315,540,1.0,0.0
49,73.0,0,540,1.0,0.0
50,62.0,0,300,3.0,0.0
51,74.0,0,300,0.0,0.0
52,62.0,0,300,0.0,0.0
53,74.0,15,300,3.0,0.0
54,62.0,0,300,1.0,0.0
55,74.0,900,300,1.0,0.0
56,69.0,15,30,0.0,0.0
57,69.0,0,30,3.0,0.0
58,57.0,0,30,3.0,0.0
59,57.0,0,30,0.0,0.0
60,69.0,0,30,1.0,0.0
61,69.0,0,30,2.0,0.0
62,57.0,0,30,1.0,0.0
63,57.0,30,30,2.0,0.0
64,67.0,0,30,3.0,0.0
65,55.0,0,30,3.0,0.0
66,55.0,10,30,0.0,0.0
67,67.0,5,30,0.0,0.0
68,55.0,10,30,2.0,0.0
69,67.0,0,30,2.0,0.0
70,67.0,785,30,1.0,0.0
71,55.0,0,30,1.0,0.0
72,69.0,0,780,0.0,0.0
73,69.0,0,780,3.0,0.0
74,57.0,0,780,0.0,0.0
75,57.0,15,780,3.0,0.0
76,69.0,0,780,1.0,0.0
77,69.0,0,780,2.0,0.0
78,57.0,0,780,2.0,0.0
79,57.0,225,780,1.0,0.0
80,52.0,15,180,3.0,0.0
81,64.0,0,180,3.0,0.0
82,52.0,0,180,0.0,0.0
83,64.0,0,180,0.0,0.0
84,64.0,165,180,1.0,0.0
85,52.0,0,180,2.0,0.0
86,52.0,0,180,1.0,0.0
87,64.0,0,180,2.0,0.0
88,53.0,0,180,3.0,0.0
89,65.0,15,180,3.0,0.0
90,53.0,0,180,0.0,0.0
91,65.0,0,180,0.0,0.0
92,65.0,165,180,2.0,0.0
93,53.0,0,180,2.0,0.0
94,65.0,0,180,1.0,0.0
95,53.0,0,180,1.0,0.0
96,49.0,0,180,0.0,0.0
97,61.0,0,180,0.0,0.0
98,49.0,0,180,3.0,0.0
99,61.0,15,180,3.0,0.0
100,61.0,0,180,1.0,0.0
101,49.0,0,180,1.0,0.0
102,49.0,0,180,2.0,0.0
103,61.0,360,180,2.0,0.0
104,62.0,0,360,3.0,0.0
105,50.0,0,360,3.0,0.0
106,50.0,15,360,0.0,0.0
107,62.0,0,360,0.0,0.0
108,50.0,1035,360,2.0,0.0
109,62.0,0,360,2.0,0.0
110,50.0,0,360,1.0,0.0
111,62.0,0,360,1.0,0.0
112,45.0,0,30,3.0,0.0
113,57.0,15,30,3.0,0.0
114,57.0,0,30,0.0,0.0
115,45.0,0,30,0.0,0.0
116,57.0,0,30,2.0,0.0
117,45.0,0,30,2.0,0.0
118,57.0,0,30,1.0,0.0
119,45.0,30,30,1.0,0.0
120,43.0,0,30,3.0,0.0
121,55.0,5,30,0.0,0.0
122,43.0,10,30,0.0,0.0
123,55.0,0,30,3.0,0.0
124,43.0,0,30,2.0,0.0
125,55.0,845,30,2.0,0.0
126,43.0,10,30,1.0,0.0
127,55.0,0,30,1.0,0.0
128,57.0,0,840,0.0,0.0
129,45.0,15,840,0.0,0.0
130,57.0,0,840,3.0,0.0
131,45.0,0,840,3.0,0.0
132,45.0,30,840,1.0,0.0
133,45.0,0,840,2.0,0.0
134,57.0,0,840,2.0,0.0
135,57.0,0,840,1.0,0.0
136,55.0,5,30,0.0,0.0
137,43.0,10,30,0.0,0.0
138,43.0,0,30,3.0,0.0
139,55.0,0,30,3.0,0.0
140,55.0,20,30,1.0,0.0
141,55.0,0,30,2.0,0.0
142,43.0,0,30,2.0,0.0
143,43.0,10,30,1.0,0.0
144,53.0,5,30,0.0,0.0
145,41.0,10,30,0.0,0.0
146,53.0,0,30,3.0,0.0
147,41.0,0,30,3.0,0.0
148,41.0,10,30,2.0,0.0
149,53.0,0,30,2.0,0.0
150,53.0,20,30,1.0,0.0
151,41.0,0,30,1.0,0.0
152,52.0,0,30,3.0,0.0
153,40.0,0,30,3.0,0.0
154,40.0,10,30,0.0,0.0
155,52.0,5,30,0.0,0.0
156,40.0,0,30,1.0,0.0
157,52.0,0,30,1.0,0.0
158,52.0,20,30,2.0,0.0
159,40.0,10,30,2.0,0.0
160,50.0,5,30,3.0,0.0
161,38.0,10,30,0.0,0.0
162,38.0,0,30,3.0,0.0
163,50.0,0,30,0.0,0.0
164,38.0,0,30,1.0,0.0
165,50.0,0,30,1.0,0.0
166,50.0,515,30,2.0,0.0
167,38.0,10,30,2.0,0.0
168,49.0,0,540,0.0,0.0
169,37.0,15,540,0.0,0.0
170,49.0,0,540,3.0,0.0
171,37.0,0,540,3.0,0.0
172,49.0,0,540,2.0,0.0
173,49.0,0,540,1.0,0.0
174,37.0,315,540,2.0,0.0
175,37.0,0,540,1.0,0.0
176,38.0,0,300,0.0,0.0
177,38.0,0,300,3.0,0.0
178,50.0,0,300,3.0,0.0
179,50.0,15,300,0.0,0.0
180,50.0,4635,300,2.0,0.0
181,38.0,0,300,1.0,0.0
182,50.0,0,300,1.0,0.0
183,38.0,0,300,2.0,0.0
184,38.0,0,5760,0.0,0.0
185,38.0,15,5760,3.0,0.0
186,38.0,0,5760,2.0,0.0
187,38.0,0,5760,1.0,0.0
188,49.0,0,3330,3.0,0.0
189,49.0,0,3330,0.0,0.0
190,49.0,0,3330,1.0,0.0
191,49.0,15,3330,2.0,0.0
192,52.0,0,2880,3.0,0.0
193,52.0,0,2880,0.0,0.0
194,52.0,0,2880,2.0,0.0
195,52.0,0,2880,1.0,0.0
196,55.0,0,2310,3.0,0.0
197,55.0,15,2310,0.0,0.0
198,55.0,0,2310,1.0,0.0
199,55.0,45,2310,2.0,0.0
200,58.0,15,1920,0.0,0.0
201,58.0,0,1920,3.0,0.0
202,58.0,0,1920,2.0,0.0
203,58.0,0,1920,1.0,0.0
204,61.0,0,1410,0.0,0.0
205,61.0,0,1410,3.0,0.0
206,61.0,0,1410,1.0,0.0
207,61.0,0,1410,2.0,0.0
208,64.0,0,960,3.0,0.0
209,64.0,0,960,0.0,0.0
210,64.0,450,960,1.0,0.0
211,64.0,0,960,2.0,0.0
212,50.0,0,1920,0.0,0.0
213,57.0,0,1920,0.0,0.0
214,62.0,0,1920,3.0,0.0
215,57.0,0,1920,3.0,0.0
216,50.0,0,1920,3.0,0.0
217,55.0,15,480,3.0,0.0
218,62.0,0,1920,0.0,0.0
219,55.0,0,480,0.0,0.0
220,62.0,0,1920,2.0,0.0
221,57.0,945,1920,2.0,0.0
222,50.0,0,1920,2.0,0.0
223,55.0,480,480,1.0,0.0
224,55.0,0,480,2.0,0.0
225,57.0,0,1920,1.0,0.0
226,50.0,0,1920,1.0,0.0
227,62.0,0,1920,1.0,0.0
228,52.0,15,480,0.0,0.0
229,52.0,0,480,3.0,0.0
230,52.0,0,480,2.0,0.0
231,52.0,930,480,1.0,0.0
232,54.0,0,960,0.0,0.0
233,54.0,0,960,3.0,0.0
234,54.0,0,960,2.0,0.0
235,54.0,0,960,1.0,0.0
236,61.0,0,60,0.0,0.0
237,49.0,15,60,3.0,0.0
238,61.0,0,60,3.0,0.0
239,49.0,0,60,0.0,0.0
240,49.0,45,60,1.0,0.0
241,61.0,0,60,1.0,0.0
242,50.0,0,60,3.0,0.0
243,50.0,15,60,0.0,0.0
244,62.0,0,60,0.0,0.0
245,62.0,0,60,3.0,0.0
246,50.0,0,60,1.0,0.0
247,62.0,45,60,1.0,0.0
248,52.0,15,60,0.0,0.0
249,64.0,0,60,3.0,0.0
250,52.0,0,60,3.0,0.0
251,64.0,0,60,0.0,0.0
252,64.0,45,60,1.0,0.0
253,52.0,0,60,1.0,0.0
254,61.0,0,60,0.0,0.0
255,49.0,15,60,3.0,0.0
256,61.0,0,60,3.0,0.0
257,49.0,0,60,0.0,0.0
258,49.0,45,60,1.0,0.0
259,61.0,0,60,1.0,0.0
260,62.0,0,60,3.0,0.0
261,50.0,0,60,0.0,0.0
262,62.0,0,60,0.0,0.0
263,50.0,15,60,3.0,0.0
264,62.0,0,60,1.0,0.0
265,50.0,45,60,1.0,0.0
266,64.0,0,60,0.0,0.0
267,52.0,0,60,0.0,0.0
268,52.0,0,60,3.0,0.0
269,64.0,15,60,3.0,0.0
270,64.0,0,60,1.0,0.0
271,52.0,45,60,1.0,0.0
272,61.0,0,60,0.0,0.0
273,49.0,15,60,0.0,0.0
274,61.0,0,60,3.0,0.0
275,49.0,0,60,3.0,0.0
276,49.0,0,60,1.0,0.0
277,61.0,45,60,1.0,0.0
278,62.0,0,60,0.0,0.0
279,50.0,0,60,0.0,0.0
280,62.0,0,60,3.0,0.0
281,50.0,15,60,3.0,0.0
282,62.0,0,60,1.0,0.0
283,50.0,45,60,1.0,0.0
284,64.0,0,60,3.0,0.0
285,52.0,15,60,3.0,0.0
286,64.0,0,60,0.0,0.0
287,52.0,0,60,0.0,0.0
288,64.0,0,60,1.0,0.0
289,52.0,45,60,1.0,0.0
290,49.0,0,60,3.0,0.0
291,61.0,0,60,3.0,0.0
292,49.0,0,60,0.0,0.0
293,61.0,15,60,0.0,0.0
294,49.0,0,60,1.0,0.0
295,61.0,75,60,1.0,0.0
296,62.0,0,60,3.0,0.0
297,50.0,0,60,0.0,0.0
298,62.0,0,60,0.0,0.0
299,50.0,15,60,3.0,0.0
300,50.0,0,60,1.0,0.0
301,62.0,75,60,1.0,0.0
302,64.0,0,60,0.0,0.0
303,52.0,15,60,0.0,0.0
304,64.0,0,60,3.0,0.0
305,52.0,0,60,3.0,0.0
306,64.0,0,60,1.0,0.0
307,52.0,45,60,1.0,0.0
308,65.0,0,60,0.0,0.0
309,65.0,0,60,3.0,0.0
310,53.0,15,60,3.0,0.0
311,53.0,0,60,0.0,0.0
312,53.0,0,60,1.0,0.0
313,65.0,45,60,1.0,0.0
314,55.0,0,60,0.0,0.0
315,67.0,0,60,0.0,0.0
316,55.0,0,60,3.0,0.0
317,67.0,15,60,3.0,0.0
318,67.0,45,60,1.0,0.0
319,55.0,0,60,1.0,0.0
320,64.0,0,60,3.0,0.0
321,52.0,0,60,0.0,0.0
322,64.0,15,60,0.0,0.0
323,52.0,0,60,3.0,0.0
324,52.0,45,60,1.0,0.0
325,64.0,0,60,1.0,0.0
326,65.0,0,60,0.0,0.0
327,65.0,0,60,3.0,0.0
328,53.0,15,60,3.0,0.0
329,53.0,0,60,0.0,0.0
330,65.0,45,60,1.0,0.0
331,53.0,0,60,1.0,0.0
332,67.0,0,60,3.0,0.0
333,55.0,0,60,0.0,0.0
334,67.0,15,60,0.0,0.0
335,55.0,0,60,3.0,0.0
336,67.0,45,60,1.0,0.0
337,55.0,0,60,1.0,0.0
338,52.0,0,60,3.0,0.0
339,64.0,0,60,3.0,0.0
340,52.0,15,60,0.0,0.0
341,64.0,0,60,0.0,0.0
342,64.0,45,60,1.0,0.0
343,52.0,0,60,1.0,0.0
344,65.0,0,60,0.0,0.0
345,53.0,0,60,0.0,0.0
346,65.0,15,60,3.0,0.0
347,53.0,0,60,3.0,0.0
348,65.0,45,60,1.0,0.0
349,53.0,0,60,1.0,0.0
350,55.0,15,60,3.0,0.0
351,67.0,0,60,3.0,0.0
352,55.0,0,60,0.0,0.0
353,67.0,0,60,0.0,0.0
354,55.0,45,60,1.0,0.0
355,67.0,0,60,1.0,0.0
356,64.0,0,60,0.0,0.0
357,52.0,15,60,3.0,0.0
358,64.0,0,60,3.0,0.0
359,52.0,0,60,0.0,0.0
360,52.0,0,60,1.0,0.0
361,64.0,75,60,1.0,0.0
362,65.0,15,60,3.0,0.0
363,53.0,0,60,3.0,0.0
364,65.0,0,60,0.0,0.0
365,53.0,0,60,0.0,0.0
366,65.0,75,60,1.0,0.0
367,53.0,0,60,1.0,0.0
368,55.0,0,60,3.0,0.0
369,67.0,0,60,3.0,0.0
370,67.0,0,60,0.0,0.0
371,55.0,15,60,0.0,0.0
372,67.0,0,60,1.0,0.0
373,55.0,45,60,1.0,0.0
374,57.0,15,60,0.0,0.0
375,69.0,0,60,0.0,0.0
376,69.0,0,60,3.0,0.0
377,57.0,0,60,3.0,0.0
378,57.0,45,60,1.0,0.0
379,69.0,0,60,1.0,0.0
380,70.0,0,60,3.0,0.0
381,58.0,15,60,3.0,0.0
382,70.0,0,60,0.0,0.0
383,58.0,0,60,0.0,0.0
384,58.0,0,60,1.0,0.0
385,70.0,45,60,1.0,0.0
386,67.0,0,60,3.0,0.0
387,67.0,0,60,0.0,0.0
388,55.0,15,60,3.0,0.0
389,55.0,0,60,0.0,0.0
390,67.0,45,60,1.0,0.0
391,55.0,0,60,1.0,0.0
392,69.0,15,60,0.0,0.0
393,57.0,0,60,3.0,0.0
394,69.0,0,60,3.0,0.0
395,57.0,0,60,0.0,0.0
396,69.0,0,60,1.0,0.0
397,57.0,45,60,1.0,0.0
398,70.0,0,60,0.0,0.0
399,58.0,15,60,0.0,0.0
400,58.0,0,60,3.0,0.0
401,70.0,0,60,3.0,0.0
402,70.0,0,60,1.0,0.0
403,58.0,45,60,1.0,0.0
404,55.0,0,60,0.0,0.0
405,67.0,15,60,3.0,0.0
406,55.0,0,60,3.0,0.0
407,67.0,0,60,0.0,0.0
408,67.0,45,60,1.0,0.0
409,55.0,0,60,1.0,0.0
410,69.0,0,60,0.0,0.0
411,57.0,0,60,3.0,0.0
412,69.0,0,60,3.0,0.0
413,57.0,15,60,0.0,0.0
414,57.0,0,60,1.0,0.0
415,69.0,45,60,1.0,0.0
416,58.0,0,60,3.0,0.0
417,70.0,15,60,0.0,0.0
418,58.0,0,60,0.0,0.0
419,70.0,0,60,3.0,0.0
420,58.0,0,60,1.0,0.0
421,70.0,45,60,1.0,0.0
422,55.0,0,60,3.0,0.0
423,67.0,15,60,0.0,0.0
424,55.0,0,60,0.0,0.0
425,67.0,0,60,3.0,0.0
426,67.0,165,60,1.0,0.0
427,55.0,0,60,1.0,0.0
428,69.0,0,180,0.0,0.0
429,57.0,15,180,0.0,0.0
430,57.0,0,180,3.0,0.0
431,69.0,0,180,3.0,0.0
432,57.0,1665,180,1.0,0.0
433,69.0,0,180,1.0,0.0
434,61.0,0,60,3.0,0.0
435,73.0,15,60,3.0,0.0
436,61.0,0,60,0.0,0.0
437,73.0,0,60,0.0,0.0
438,73.0,0,60,1.0,0.0
439,61.0,45,60,1.0,0.0
440,74.0,0,60,3.0,0.0
441,74.0,0,60,0.0,0.0
442,62.0,15,60,3.0,0.0
443,62.0,0,60,0.0,0.0
444,74.0,0,60,1.0,0.0
445,62.0,45,60,1.0,0.0
446,64.0,0,60,0.0,0.0
447,76.0,15,60,0.0,0.0
448,76.0,0,60,3.0,0.0
449,64.0,0,60,3.0,0.0
450,64.0,0,60,1.0,0.0
451,76.0,45,60,1.0,0.0
452,61.0,0,60,3.0,0.0
453,73.0,0,60,3.0,0.0
454,61.0,0,60,0.0,0.0
455,73.0,15,60,0.0,0.0
456,61.0,0,60,1.0,0.0
457,73.0,45,60,1.0,0.0
458,62.0,0,60,3.0,0.0
459,74.0,0,60,3.0,0.0
460,62.0,0,60,0.0,0.0
461,74.0,15,60,0.0,0.0
462,74.0,0,60,1.0,0.0
463,62.0,45,60,1.0,0.0
464,76.0,15,60,3.0,0.0
465,64.0,0,60,3.0,0.0
466,64.0,0,60,0.0,0.0
467,76.0,0,60,0.0,0.0
468,64.0,45,60,1.0,0.0
469,76.0,0,60,1.0,0.0
470,61.0,0,60,0.0,0.0
471,73.0,0,60,0.0,0.0
472,61.0,15,60,3.0,0.0
473,73.0,0,60,3.0,0.0
474,73.0,0,60,1.0,0.0
475,61.0,45,60,1.0,0.0
476,62.0,0,60,3.0,0.0
477,62.0,0,60,0.0,0.0
478,74.0,15,60,0.0,0.0
479,74.0,0,60,3.0,0.0
480,62.0,0,60,1.0,0.0
481,74.0,45,60,1.0,0.0
482,76.0,15,60,3.0,0.0
483,64.0,0,60,3.0,0.0
484,76.0,0,60,0.0,0.0
485,64.0,0,60,0.0,0.0
486,64.0,0,60,1.0,0.0
487,76.0,45,60,1.0,0.0
488,61.0,0,60,3.0,0.0
489,73.0,0,60,3.0,0.0
490,61.0,0,60,0.0,0.0
491,73.0,15,60,0.0,0.0
492,73.0,75,60,1.0,0.0
493,61.0,0,60,1.0,0.0
494,74.0,15,60,3.0,0.0
495,62.0,0,60,3.0,0.0
496,62.0,0,60,0.0,0.0
497,74.0,0,60,0.0,0.0
498,74.0,75,60,1.0,0.0
499,62.0,0,60,1.0,0.0
500,64.0,0,60,3.0,0.0
501,76.0,0,60,3.0,0.0
502,64.0,0,60,0.0,0.0
503,76.0,15,60,0.0,0.0
504,76.0,0,60,1.0,0.0
505,64.0,45,60,1.0,0.0
506,77.0,15,60,0.0,0.0
507,65.0,0,60,0.0,0.0
508,65.0,0,60,3.0,0.0
509,77.0,0,60,3.0,0.0
510,77.0,0,60,1.0,0.0
511,65.0,45,60,1.0,0.0
512,67.0,0,60,0.0,0.0
513,67.0,15,60,3.0,0.0
514,79.0,0,60,3.0,0.0
515,79.0,0,60,0.0,0.0
516,79.0,45,60,1.0,0.0
517,67.0,0,60,1.0,0.0
518,64.0,0,60,0.0,0.0
519,76.0,0,60,0.0,0.0
520,76.0,0,60,3.0,0.0
521,64.0,15,60,3.0,0.0
522,76.0,45,60,1.0,0.0
523,64.0,0,60,1.0,0.0
524,77.0,0,60,3.0,0.0
525,65.0,0,60,3.0,0.0
526,65.0,0,60,0.0,0.0
527,77.0,15,60,0.0,0.0
528,65.0,45,60,1.0,0.0
529,77.0,0,60,1.0,0.0
530,79.0,0,60,0.0,0.0
531,79.0,0,60,3.0,0.0
532,67.0,0,60,0.0,0.0
533,67.0,15,60,3.0,0.0
534,79.0,0,60,1.0,0.0
535,67.0,45,60,1.0,0.0
536,64.0,0,60,0.0,0.0
537,76.0,0,60,0.0,0.0
538,76.0,15,60,3.0,0.0
539,64.0,0,60,3.0,0.0
540,76.0,45,60,1.0,0.0
541,64.0,0,60,1.0,0.0
542,65.0,0,60,3.0,0.0
543,77.0,15,60,3.0,0.0
544,65.0,0,60,0.0,0.0
545,77.0,0,60,0.0,0.0
546,77.0,0,60,1.0,0.0
547,65.0,45,60,1.0,0.0
548,79.0,0,60,3.0,0.0
549,67.0,0,60,0.0,0.0
550,79.0,0,60,0.0,0.0
551,67.0,15,60,3.0,0.0
552,67.0,45,60,1.0,0.0
553,79.0,0,60,1.0,0.0
554,64.0,15,60,0.0,0.0
555,64.0,0,60,3.0,0.0
556,76.0,0,60,3.0,0.0
557,76.0,0,60,0.0,0.0
558,76.0,0,60,1.0,0.0
559,64.0,75,60,1.0,0.0
560,77.0,0,60,3.0,0.0
561,65.0,0,60,3.0,0.0
562,65.0,0,60,0.0,0.0
563,77.0,15,60,0.0,0.0
564,77.0,0,60,1.0,0.0
565,65.0,75,60,1.0,0.0
566,79.0,0,60,3.0,0.0
567,79.0,15,60,0.0,0.0
568,67.0,0,60,0.0,0.0
569,67.0,0,60,3.0,0.0
570,79.0,45,60,1.0,0.0
571,67.0,0,60,1.0,0.0
572,81.0,15,60,3.0,0.0
573,69.0,0,60,3.0,0.0
574,69.0,0,60,0.0,0.0
575,81.0,0,60,0.0,0.0
576,81.0,45,60,1.0,0.0
577,69.0,0,60,1.0,0.0
578,70.0,15,60,3.0,0.0
579,82.0,0,60,3.0,0.0
580,82.0,0,60,0.0,0.0
581,70.0,0,60,0.0,0.0
582,82.0,0,60,1.0,0.0
583,70.0,45,60,1.0,0.0
584,67.0,0,60,3.0,0.0
585,79.0,15,60,3.0,0.0
586,79.0,0,60,0.0,0.0
587,67.0,0,60,0.0,0.0
588,79.0,0,60,1.0,0.0
589,67.0,45,60,1.0,0.0
590,81.0,15,60,0.0,0.0
591,69.0,0,60,3.0,0.0
592,69.0,0,60,0.0,0.0
593,81.0,0,60,3.0,0.0
594,69.0,0,60,1.0,0.0
595,81.0,45,60,1.0,0.0
596,82.0,0,60,0.0,0.0
597,70.0,0,60,3.0,0.0
598,82.0,15,60,3.0,0.0
599,70.0,0,60,0.0,0.0
600,70.0,45,60,1.0,0.0
601,82.0,0,60,1.0,0.0
602,67.0,0,60,0.0,0.0
603,79.0,0,60,0.0,0.0
604,67.0,15,60,3.0,0.0
605,79.0,0,60,3.0,0.0
606,79.0,0,60,1.0,0.0
607,67.0,45,60,1.0,0.0
608,69.0,0,60,3.0,0.0
609,81.0,15,60,3.0,0.0
610,69.0,0,60,0.0,0.0
611,81.0,0,60,0.0,0.0
612,81.0,0,60,1.0,0.0
613,69.0,45,60,1.0,0.0
614,70.0,0,60,0.0,0.0
615,70.0,0,60,3.0,0.0
616,82.0,0,60,0.0,0.0
617,82.0,15,60,3.0,0.0
618,70.0,45,60,1.0,0.0
619,82.0,0,60,1.0,0.0
620,67.0,0,60,3.0,0.0
621,79.0,0,60,3.0,0.0
622,67.0,0,60,0.0,0.0
623,79.0,15,60,0.0,0.0
624,79.0,0,60,1.0,0.0
625,67.0,165,60,1.0,0.0
626,81.0,0,180,0.0,0.0
627,69.0,0,180,0.0,0.0
628,69.0,0,180,3.0,0.0
629,81.0,15,180,3.0,0.0
630,81.0,0,180,1.0,0.0
631,69.0,1185,180,1.0,0.0
632,69.0,0,60,0.0,0.0
633,81.0,0,60,3.0,0.0
634,81.0,15,60,0.0,0.0
635,69.0,0,60,3.0,0.0
636,81.0,0,60,1.0,0.0
637,69.0,45,60,1.0,0.0
638,79.0,0,60,3.0,0.0
639,67.0,15,60,3.0,0.0
640,79.0,0,60,0.0,0.0
641,67.0,0,60,0.0,0.0
642,79.0,45,60,1.0,0.0
643,67.0,0,60,1.0,0.0
644,82.0,15,60,3.0,0.0
645,70.0,0,60,3.0,0.0
646,82.0,0,60,0.0,0.0
647,70.0,0,60,0.0,0.0
648,70.0,45,60,1.0,0.0
649,82.0,0,60,1.0,0.0
650,64.0,0,60,0.0,0.0
651,64.0,0,60,3.0,0.0
652,76.0,15,60,3.0,0.0
653,76.0,0,60,0.0,0.0
654,64.0,0,60,1.0,0.0
655,76.0,45,60,1.0,0.0
656,67.0,0,60,0.0,0.0
657,79.0,0,60,0.0,0.0
658,67.0,0,60,3.0,0.0
659,79.0,15,60,3.0,0.0
660,79.0,45,60,1.0,0.0
661,67.0,0,60,1.0,0.0
662,82.0,0,60,3.0,0.0
663,82.0,0,60,0.0,0.0
664,70.0,15,60,0.0,0.0
665,70.0,0,60,3.0,0.0
666,70.0,45,60,1.0,0.0
667,82.0,0,60,1.0,0.0
668,76.0,0,60,0.0,0.0
669,64.0,15,60,0.0,0.0
670,76.0,0,60,3.0,0.0
671,64.0,0,60,3.0,0.0
672,76.0,0,60,1.0,0.0
673,64.0,45,60,1.0,0.0
674,77.0,0,60,0.0,0.0
675,65.0,15,60,3.0,0.0
676,77.0,0,60,3.0,0.0
677,65.0,0,60,0.0,0.0
678,77.0,0,60,1.0,0.0
679,65.0,45,60,1.0,0.0
680,69.0,0,60,3.0,0.0
681,81.0,0,60,3.0,0.0
682,69.0,15,60,0.0,0.0
683,81.0,0,60,0.0,0.0
684,69.0,45,60,1.0,0.0
685,81.0,0,60,1.0,0.0
686,74.0,0,60,0.0,0.0
687,62.0,0,60,0.0,0.0
688,62.0,0,60,3.0,0.0
689,74.0,15,60,3.0,0.0
690,74.0,0,60,1.0,0.0
691,62.0,45,60,1.0,0.0
692,77.0,15,60,0.0,0.0
693,65.0,0,60,0.0,0.0
694,77.0,0,60,3.0,0.0
695,65.0,0,60,3.0,0.0
696,65.0,45,60,1.0,0.0
697,77.0,0,60,1.0,0.0
698,81.0,0,60,0.0,0.0
699,69.0,15,60,0.0,0.0
700,69.0,0,60,3.0,0.0
701,81.0,0,60,3.0,0.0
702,81.0,0,60,1.0,0.0
703,69.0,45,60,1.0,0.0
704,74.0,0,60,0.0,0.0
705,62.0,0,60,3.0,0.0
706,74.0,15,60,3.0,0.0
707,62.0,0,60,0.0,0.0
708,74.0,45,60,1.0,0.0
709,62.0,0,60,1.0,0.0
710,64.0,0,60,3.0,0.0
711,76.0,0,60,3.0,0.0
712,64.0,15,60,0.0,0.0
713,76.0,0,60,0.0,0.0
714,76.0,0,60,1.0,0.0
715,64.0,45,60,1.0,0.0
716,67.0,0,60,3.0,0.0
717,79.0,0,60,3.0,0.0
718,79.0,15,60,0.0,0.0
719,67.0,0,60,0.0,0.0
720,79.0,45,60,1.0,0.0
721,67.0,0,60,1.0,0.0
722,60.0,15,60,0.0,0.0
723,72.0,0,60,0.0,0.0
724,60.0,0,60,3.0,0.0
725,72.0,0,60,3.0,0.0
726,60.0,45,60,1.0,0.0
727,72.0,0,60,1.0,0.0
728,76.0,0,60,0.0,0.0
729,64.0,0,60,0.0,0.0
730,64.0,0,60,3.0,0.0
731,76.0,15,60,3.0,0.0
732,64.0,0,60,1.0,0.0
733,76.0,45,60,1.0,0.0
734,67.0,0,60,0.0,0.0
735,79.0,0,60,0.0,0.0
736,67.0,0,60,3.0,0.0
737,79.0,15,60,3.0,0.0
738,67.0,45,60,1.0,0.0
739,79.0,0,60,1.0,0.0
740,60.0,0,60,3.0,0.0
741,60.0,0,60,0.0,0.0
742,72.0,0,60,0.0,0.0
743,72.0,15,60,3.0,0.0
744,60.0,0,60,1.0,0.0
745,72.0,45,60,1.0,0.0
746,74.0,0,60,3.0,0.0
747,74.0,15,60,0.0,0.0
748,62.0,0,60,3.0,0.0
749,62.0,0,60,0.0,0.0
750,74.0,0,60,1.0,0.0
751,62.0,45,60,1.0,0.0
752,65.0,0,60,3.0,0.0
753,77.0,15,60,3.0,0.0
754,77.0,0,60,0.0,0.0
755,65.0,0,60,0.0,0.0
756,77.0,0,60,1.0,0.0
757,65.0,45,60,1.0,0.0
758,70.0,0,60,3.0,0.0
759,58.0,15,60,3.0,0.0
760,70.0,0,60,0.0,0.0
761,58.0,0,60,0.0,0.0
762,70.0,45,60,1.0,0.0
763,58.0,0,60,1.0,0.0
764,74.0,15,60,3.0,0.0
765,62.0,0,60,3.0,0.0
766,62.0,0,60,0.0,0.0
767,74.0,0,60,0.0,0.0
768,74.0,45,60,1.0,0.0
769,62.0,0,60,1.0,0.0
770,77.0,0,60,0.0,0.0
771,65.0,0,60,3.0,0.0
772,77.0,15,60,3.0,0.0
773,65.0,0,60,0.0,0.0
774,65.0,45,60,1.0,0.0
775,77.0,0,60,1.0,0.0
776,58.0,0,60,3.0,0.0
777,70.0,0,60,3.0,0.0
778,70.0,0,60,0.0,0.0
779,58.0,15,60,0.0,0.0
780,58.0,0,60,1.0,0.0
781,70.0,45,60,1.0,0.0
782,60.0,15,60,0.0,0.0
783,72.0,0,60,0.0,0.0
784,72.0,0,60,3.0,0.0
785,60.0,0,60,3.0,0.0
786,60.0,45,60,1.0,0.0
787,72.0,0,60,1.0,0.0
788,76.0,0,60,3.0,0.0
789,64.0,0,60,3.0,0.0
790,64.0,0,60,0.0,0.0
791,76.0,15,60,0.0,0.0
792,76.0,45,60,1.0,0.0
793,64.0,0,60,1.0,0.0
794,57.0,0,60,3.0,0.0
795,69.0,15,60,3.0,0.0
796,69.0,0,60,0.0,0.0
797,57.0,0,60,0.0,0.0
798,69.0,0,60,1.0,0.0
799,57.0,45,60,1.0,0.0
800,72.0,0,60,0.0,0.0
801,60.0,0,60,0.0,0.0
802,60.0,15,60,3.0,0.0
803,72.0,0,60,3.0,0.0
804,72.0,0,60,1.0,0.0
805,60.0,45,60,1.0,0.0
806,76.0,15,60,3.0,0.0
807,76.0,0,60,0.0,0.0
808,64.0,0,60,0.0,0.0
809,64.0,0,60,3.0,0.0
810,76.0,45,60,1.0,0.0
811,64.0,0,60,1.0,0.0
812,69.0,0,60,0.0,0.0
813,57.0,15,60,0.0,0.0
814,57.0,0,60,3.0,0.0
815,69.0,0,60,3.0,0.0
816,57.0,45,60,1.0,0.0
817,69.0,0,60,1.0,0.0
818,58.0,0,60,3.0,0.0
819,70.0,0,60,3.0,0.0
820,58.0,15,60,0.0,0.0
821,70.0,0,60,0.0,0.0
822,58.0,45,60,1.0,0.0
823,70.0,0,60,1.0,0.0
824,62.0,0,60,3.0,0.0
825,74.0,15,60,3.0,0.0
826,74.0,0,60,0.0,0.0
827,62.0,0,60,0.0,0.0
828,74.0,0,60,1.0,0.0
829,62.0,45,60,1.0,0.0
830,55.0,0,60,3.0,0.0
831,55.0,0,60,0.0,0.0
832,67.0,0,60,0.0,0.0
833,67.0,15,60,3.0,0.0
834,55.0,0,60,1.0,0.0
835,67.0,45,60,1.0,0.0
836,70.0,0,60,3.0,0.0
837,58.0,0,60,3.0,0.0
838,70.0,0,60,0.0,0.0
839,58.0,15,60,0.0,0.0
840,70.0,0,60,1.0,0.0
841,58.0,45,60,1.0,0.0
842,74.0,15,60,3.0,0.0
843,62.0,0,60,3.0,0.0
844,62.0,0,60,0.0,0.0
845,74.0,0,60,0.0,0.0
846,74.0,0,60,1.0,0.0
847,62.0,45,60,1.0,0.0
848,55.0,0,60,0.0,0.0
849,67.0,0,60,0.0,0.0
850,67.0,15,60,3.0,0.0
851,55.0,0,60,3.0,0.0
852,55.0,0,60,1.0,0.0
853,67.0,45,60,1.0,0.0
854,69.0,0,60,3.0,0.0
855,57.0,0,60,0.0,0.0
856,69.0,15,60,0.0,0.0
857,57.0,0,60,3.0,0.0
858,57.0,0,60,1.0,0.0
859,69.0,45,60,1.0,0.0
860,60.0,15,60,3.0,0.0
861,72.0,0,60,3.0,0.0
862,60.0,0,60,0.0,0.0
863,72.0,0,60,0.0,0.0
864,72.0,0,60,1.0,0.0
865,60.0,45,60,1.0,0.0
866,65.0,0,60,0.0,0.0
867,65.0,0,60,3.0,0.0
868,53.0,15,60,3.0,0.0
869,53.0,0,60,0.0,0.0
870,65.0,0,60,1.0,0.0
871,53.0,45,60,1.0,0.0
872,69.0,0,60,0.0,0.0
873,69.0,0,60,3.0,0.0
874,57.0,15,60,3.0,0.0
875,57.0,0,60,0.0,0.0
876,69.0,0,60,1.0,0.0
877,57.0,45,60,1.0,0.0
878,72.0,0,60,0.0,0.0
879,60.0,15,60,0.0,0.0
880,72.0,0,60,3.0,0.0
881,60.0,0,60,3.0,0.0
882,60.0,45,60,1.0,0.0
883,72.0,0,60,1.0,0.0
884,65.0,15,60,0.0,0.0
885,53.0,0,60,3.0,0.0
886,53.0,0,60,0.0,0.0
887,65.0,0,60,3.0,0.0
888,53.0,0,60,1.0,0.0
889,65.0,45,60,1.0,0.0
890,55.0,15,60,0.0,0.0
891,67.0,0,60,3.0,0.0
892,55.0,0,60,3.0,0.0
893,67.0,0,60,0.0,0.0
894,55.0,45,60,1.0,0.0
895,67.0,0,60,1.0,0.0
896,58.0,15,60,3.0,0.0
897,70.0,0,60,3.0,0.0
898,58.0,0,60,0.0,0.0
899,70.0,0,60,0.0,0.0
900,58.0,0,60,1.0,0.0
901,70.0,45,60,1.0,0.0
902,52.0,0,60,0.0,0.0
903,52.0,0,60,3.0,0.0
904,64.0,0,60,3.0,0.0
905,64.0,15,60,0.0,0.0
906,64.0,45,60,1.0,0.0
907,52.0,0,60,1.0,0.0
908,67.0,0,60,0.0,0.0
909,55.0,0,60,3.0,0.0
910,55.0,0,60,0.0,0.0
911,67.0,15,60,3.0,0.0
912,67.0,0,60,1.0,0.0
913,55.0,45,60,1.0,0.0
914,70.0,0,60,3.0,0.0
915,58.0,0,60,0.0,0.0
916,70.0,15,60,0.0,0.0
917,58.0,0,60,3.0,0.0
918,70.0,0,60,1.0,0.0
919,58.0,45,60,1.0,0.0
920,52.0,0,60,0.0,0.0
921,64.0,0,60,3.0,0.0
922,64.0,15,60,0.0,0.0
923,52.0,0,60,3.0,0.0
924,64.0,45,60,1.0,0.0
925,52.0,0,60,1.0,0.0
926,53.0,15,60,3.0,0.0
927,53.0,0,60,0.0,0.0
928,65.0,0,60,0.0,0.0
929,65.0,0,60,3.0,0.0
930,53.0,0,60,1.0,0.0
931,65.0,45,60,1.0,0.0
932,69.0,0,60,3.0,0.0
933,69.0,0,60,0.0,0.0
934,57.0,0,60,0.0,0.0
935,57.0,15,60,3.0,0.0
936,57.0,0,60,1.0,0.0
937,69.0,45,60,1.0,0.0
938,50.0,0,60,3.0,0.0
939,62.0,0,60,3.0,0.0
940,62.0,0,60,0.0,0.0
941,50.0,15,60,0.0,0.0
942,62.0,45,60,1.0,0.0
943,50.0,0,60,1.0,0.0
944,53.0,0,60,0.0,0.0
945,65.0,15,60,0.0,0.0
946,65.0,0,60,3.0,0.0
947,53.0,0,60,3.0,0.0
948,65.0,0,60,1.0,0.0
949,53.0,45,60,1.0,0.0
950,69.0,0,60,0.0,0.0
951,69.0,0,60,3.0,0.0
952,57.0,0,60,3.0,0.0
953,57.0,15,60,0.0,0.0
954,57.0,0,60,1.0,0.0
955,69.0,45,60,1.0,0.0
956,50.0,0,60,3.0,0.0
957,62.0,0,60,3.0,0.0
958,50.0,15,60,0.0,0.0
959,62.0,0,60,0.0,0.0
960,50.0,45,60,1.0,0.0
961,62.0,0,60,1.0,0.0
962,52.0,0,60,3.0,0.0
963,64.0,15,60,3.0,0.0
964,64.0,0,60,0.0,0.0
965,52.0,0,60,0.0,0.0
966,52.0,45,60,1.0,0.0
967,64.0,0,60,1.0,0.0
968,67.0,15,60,0.0,0.0
969,55.0,0,60,0.0,0.0
970,55.0,0,60,3.0,0.0
971,67.0,0,60,3.0,0.0
972,55.0,45,60,1.0,0.0
973,67.0,0,60,1.0,0.0
974,61.0,15,60,3.0,0.0
975,49.0,0,60,3.0,0.0
976,61.0,0,60,0.0,0.0
977,49.0,0,60,0.0,0.0
978,49.0,45,60,1.0,0.0
979,61.0,0,60,1.0,0.0
980,52.0,0,60,0.0,0.0
981,64.0,15,60,0.0,0.0
982,64.0,0,60,3.0,0.0
983,52.0,0,60,3.0,0.0
984,64.0,0,60,1.0,0.0
985,52.0,45,60,1.0,0.0
986,67.0,0,60,3.0,0.0
987,55.0,0,60,3.0,0.0
988,67.0,15,60,0.0,0.0
989,55.0,0,60,0.0,0.0
990,67.0,45,60,1.0,0.0
991,55.0,0,60,1.0,0.0
992,49.0,0,60,0.0,0.0
993,61.0,0,60,0.0,0.0
994,61.0,15,60,3.0,0.0
995,49.0,0,60,3.0,0.0
996,49.0,0,60,1.0,0.0
997,61.0,2145,60,1.0,0.0
998,38.0,15,2130,0.0,0.0
999,38.0,0,2130,3.0,0.0
1000,38.0,0,2130,2.0,0.0
1001,38.0,0,2130,1.0,0.0
1002,49.0,0,1170,3.0,0.0
1003,49.0,0,1170,0.0,0.0
1004,52.0,0,1140,3.0,0.0
1005,49.0,0,1170,2.0,0.0
1006,49.0,0,1170,1.0,0.0
1007,52.0,0,1140,0.0,0.0
1008,55.0,0,1140,3.0,0.0
1009,52.0,45,1140,1.0,0.0
1010,52.0,0,1140,2.0,0.0
1011,55.0,0,1140,0.0,0.0
1012,55.0,0,1140,1.0,0.0
1013,58.0,0,1140,3.0,0.0
1014,58.0,0,1140,0.0,0.0
1015,55.0,0,1140,2.0,0.0
1016,58.0,0,1140,2.0,0.0
1017,58.0,0,1140,1.0,0.0
1018,61.0,0,1110,3.0,0.0
1019,61.0,0,1110,0.0,0.0
1020,61.0,0,1110,2.0,0.0
1021,61.0,0,1110,1.0,0.0
1022,64.0,0,1080,0.0,0.0
1023,64.0,0,1080,1.0,0.0
1024,67.0,0,1080,0.0,0.0
1025,64.0,0,1080,2.0,0.0
1026,67.0,0,1080,1.0,0.0
1027,70.0,15,1140,0.0,0.0
1028,67.0,0,1080,2.0,0.0
1029,70.0,30,1140,1.0,0.0
1030,70.0,0,1140,2.0,0.0
1031,69.0,15,30,0.0,0.0
1032,69.0,0,30,3.0,0.0
1033,69.0,30,30,2.0,0.0
1034,69.0,0,30,1.0,0.0
1035,67.0,0,30,3.0,0.0
1036,67.0,15,30,0.0,0.0
1037,67.0,0,30,2.0,0.0
1038,67.0,30,30,1.0,0.0
1039,65.0,0,30,0.0,0.0
1040,65.0,15,30,3.0,0.0
1041,65.0,0,30,2.0,0.0
1042,65.0,30,30,1.0,0.0
1043,64.0,15,30,0.0,0.0
1044,64.0,0,30,3.0,0.0
1045,64.0,30,30,1.0,0.0
1046,64.0,0,30,2.0,0.0
1047,62.0,0,30,3.0,0.0
1048,62.0,15,30,0.0,0.0
1049,62.0,75,30,2.0,0.0
1050,62.0,0,30,1.0,0.0
1051,61.0,15,60,3.0,0.0
1052,61.0,0,60,0.0,0.0
1053,61.0,0,60,1.0,0.0
1054,61.0,75,60,2.0,0.0
1055,57.0,15,60,0.0,0.0
1056,57.0,0,60,3.0,0.0
1057,57.0,75,60,1.0,0.0
1058,57.0,0,60,2.0,0.0
1059,61.0,0,60,3.0,0.0
1060,61.0,15,60,0.0,0.0
1061,61.0,0,60,1.0,0.0
1062,61.0,30,60,2.0,0.0
1063,64.0,0,30,0.0,0.0
1064,64.0,15,30,3.0,0.0
1065,64.0,30,30,2.0,0.0
1066,64.0,0,30,1.0,0.0
1067,67.0,0,30,3.0,0.0
1068,67.0,15,30,0.0,0.0
1069,67.0,0,30,2.0,0.0
1070,67.0,15,30,1.0,0.0
1071,65.0,0,15,0.0,0.0
1072,65.0,15,15,3.0,0.0
1073,65.0,15,15,2.0,0.0
1074,65.0,0,15,1.0,0.0
1075,67.0,0,15,3.0,0.0
1076,67.0,15,15,0.0,0.0
1077,67.0,15,15,2.0,0.0
1078,67.0,0,15,1.0,0.0
1079,65.0,0,15,3.0,0.0
1080,65.0,15,15,0.0,0.0
1081,65.0,0,15,2.0,0.0
1082,65.0,15,15,1.0,0.0
1083,67.0,0,15,3.0,0.0
1084,67.0,15,15,0.0,0.0
1085,67.0,0,15,1.0,0.0
1086,67.0,15,15,2.0,0.0
1087,65.0,0,15,0.0,0.0
1088,65.0,15,15,3.0,0.0
1089,65.0,0,15,2.0,0.0
1090,65.0,15,15,1.0,0.0
1091,67.0,15,15,0.0,0.0
1092,67.0,0,15,3.0,0.0
1093,67.0,0,15,2.0,0.0
1094,67.0,15,15,1.0,0.0
1095,65.0,0,15,0.0,0.0
1096,65.0,15,15,3.0,0.0
1097,65.0,15,15,1.0,0.0
1098,65.0,0,15,2.0,0.0
1099,67.0,0,15,3.0,0.0
1100,67.0,15,15,0.0,0.0
1101,67.0,0,15,2.0,0.0
1102,67.0,15,15,1.0,0.0
1103,65.0,15,15,0.0,0.0
1104,65.0,0,15,3.0,0.0
1105,65.0,75,15,1.0,0.0
1106,65.0,0,15,2.0,0.0
1107,64.0,15,60,3.0,0.0
1108,64.0,0,60,0.0,0.0
1109,64.0,450,60,1.0,0.0
1110,64.0,0,60,2.0,0.0
1111,38.0,0,450,0.0,0.0
1112,65.0,0,510,3.0,0.0
1113,50.0,0,450,0.0,0.0
1114,53.0,0,480,0.0,0.0
1115,57.0,15,450,0.0,0.0
1116,62.0,0,480,0.0,0.0
1117,65.0,15,510,0.0,0.0
1118,50.0,0,450,3.0,0.0
1119,53.0,0,480,3.0,0.0
1120,38.0,0,450,3.0,0.0
1121,62.0,15,480,3.0,0.0
1122,57.0,0,450,3.0,0.0
1123,65.0,1080,510,2.0,0.0
1124,62.0,15,480,2.0,0.0
1125,38.0,0,450,1.0,0.0
1126,62.0,0,480,1.0,0.0
1127,65.0,0,510,1.0,0.0
1128,57.0,0,450,1.0,0.0
1129,53.0,0,480,1.0,0.0
1130,57.0,0,450,2.0,0.0
1131,53.0,0,480,2.0,0.0
1132,50.0,0,450,2.0,0.0
1133,38.0,0,450,2.0,0.0
1134,50.0,15,450,1.0,0.0
1135,69.0,15,60,0.0,0.0
1136,69.0,0,60,3.0,0.0
1137,69.0,0,60,2.0,0.0
1138,69.0,90,60,1.0,0.0
1139,74.0,0,60,0.0,0.0
1140,74.0,15,60,3.0,0.0
1141,74.0,0,60,2.0,0.0
1142,74.0,15,60,1.0,0.0
1143,69.0,15,60,3.0,0.0
1144,69.0,0,60,0.0,0.0
1145,69.0,45,60,2.0,0.0
1146,69.0,0,60,1.0,0.0
1147,76.0,15,60,0.0,0.0
1148,76.0,0,60,3.0,0.0
1149,76.0,0,60,1.0,0.0
1150,76.0,15,60,2.0,0.0
1151,69.0,0,60,3.0,0.0
1152,69.0,15,60,0.0,0.0
1153,69.0,0,60,2.0,0.0
1154,69.0,45,60,1.0,0.0
1155,77.0,15,60,3.0,0.0
1156,77.0,0,60,0.0,0.0
1157,77.0,0,60,2.0,0.0
1158,77.0,15,60,1.0,0.0
1159,69.0,15,60,3.0,0.0
1160,69.0,0,60,0.0,0.0
1161,69.0,45,60,1.0,0.0
1162,69.0,0,60,2.0,0.0
1163,74.0,0,60,0.0,0.0
1164,74.0,15,60,3.0,0.0
1165,74.0,15,60,1.0,0.0
1166,74.0,0,60,2.0,0.0
1167,69.0,0,60,3.0,0.0
1168,69.0,15,60,0.0,0.0
1169,69.0,45,60,2.0,0.0
1170,69.0,0,60,1.0,0.0
1171,76.0,15,60,0.0,0.0
1172,76.0,0,60,3.0,0.0
1173,76.0,0,60,1.0,0.0
1174,76.0,15,60,2.0,0.0
1175,69.0,0,60,0.0,0.0
1176,69.0,15,60,3.0,0.0
1177,69.0,45,60,1.0,0.0
1178,69.0,0,60,2.0,0.0
1179,77.0,0,60,0.0,0.0
1180,77.0,15,60,3.0,0.0
1181,77.0,15,60,1.0,0.0
1182,77.0,0,60,2.0,0.0
1183,69.0,15,60,3.0,0.0
1184,69.0,0,60,0.0,0.0
1185,69.0,0,60,1.0,0.0
1186,69.0,45,60,2.0,0.0
1187,79.0,0,60,0.0,0.0
1188,79.0,15,60,3.0,0.0
1189,79.0,15,60,1.0,0.0
1190,79.0,0,60,2.0,0.0
1191,69.0,0,60,0.0,0.0
1192,69.0,15,60,3.0,0.0
1193,69.0,45,60,1.0,0.0
1194,69.0,0,60,2.0,0.0
1195,76.0,15,60,0.0,0.0
1196,76.0,0,60,3.0,0.0
1197,76.0,15,60,1.0,0.0
1198,76.0,0,60,2.0,0.0
1199,69.0,15,60,0.0,0.0
1200,69.0,0,60,3.0,0.0
1201,69.0,45,60,2.0,0.0
1202,69.0,0,60,1.0,0.0
1203,77.0,15,60,0.0,0.0
1204,77.0,0,60,3.0,0.0
1205,77.0,0,60,2.0,0.0
1206,77.0,15,60,1.0,0.0
1207,69.0,15,60,3.0,0.0
1208,69.0,0,60,0.0,0.0
1209,69.0,0,60,2.0,0.0
1210,69.0,45,60,1.0,0.0
1211,79.0,15,60,3.0,0.0
1212,79.0,0,60,0.0,0.0
1213,79.0,0,60,1.0,0.0
1214,79.0,15,60,2.0,0.0
1215,69.0,0,60,3.0,0.0
1216,69.0,15,60,0.0,0.0
1217,69.0,0,60,2.0,0.0
1218,69.0,45,60,1.0,0.0
1219,81.0,0,60,0.0,0.0
1220,81.0,15,60,3.0,0.0
1221,81.0,15,60,2.0,0.0
1222,81.0,0,60,1.0,0.0
1223,69.0,0,60,3.0,0.0
1224,69.0,15,60,0.0,0.0
1225,69.0,45,60,2.0,0.0
1226,69.0,0,60,1.0,0.0
1227,77.0,0,60,3.0,0.0
1228,77.0,15,60,0.0,0.0
1229,77.0,0,60,1.0,0.0
1230,77.0,15,60,2.0,0.0
1231,69.0,0,60,0.0,0.0
1232,69.0,15,60,3.0,0.0
1233,69.0,45,60,1.0,0.0
1234,69.0,0,60,2.0,0.0
1235,79.0,15,60,3.0,0.0
1236,79.0,0,60,0.0,0.0
1237,79.0,15,60,1.0,0.0
1238,79.0,0,60,2.0,0.0
1239,69.0,15,60,0.0,0.0
1240,69.0,0,60,3.0,0.0
1241,69.0,45,60,1.0,0.0
1242,69.0,0,60,2.0,0.0
1243,81.0,15,60,0.0,0.0
1244,81.0,0,60,3.0,0.0
1245,81.0,15,60,2.0,0.0
1246,81.0,0,60,1.0,0.0
1247,69.0,0,60,0.0,0.0
1248,69.0,15,60,3.0,0.0
1249,69.0,0,60,1.0,0.0
1250,69.0,45,60,2.0,0.0
1251,82.0,15,60,0.0,0.0
1252,82.0,0,60,3.0,0.0
1253,82.0,15,60,2.0,0.0
1254,82.0,0,60,1.0,0.0
1255,69.0,15,60,3.0,0.0
1256,69.0,0,60,0.0,0.0
1257,69.0,45,60,2.0,0.0
1258,69.0,0,60,1.0,0.0
1259,79.0,0,60,0.0,0.0
1260,79.0,15,60,3.0,0.0
1261,79.0,15,60,2.0,0.0
1262,79.0,0,60,1.0,0.0
1263,69.0,0,60,0.0,0.0
1264,69.0,15,60,3.0,0.0
1265,69.0,0,60,1.0,0.0
1266,69.0,45,60,2.0,0.0
1267,81.0,15,60,3.0,0.0
1268,81.0,0,60,0.0,0.0
1269,81.0,15,60,1.0,0.0
1270,81.0,0,60,2.0,0.0
1271,69.0,15,60,0.0,0.0
1272,69.0,0,60,3.0,0.0
1273,69.0,45,60,2.0,0.0
1274,69.0,0,60,1.0,0.0
1275,77.0,15,60,0.0,0.0
1276,77.0,0,60,3.0,0.0
1277,77.0,0,60,2.0,0.0
1278,77.0,15,60,1.0,0.0
1279,69.0,15,60,3.0,0.0
1280,69.0,0,60,0.0,0.0
1281,69.0,45,60,1.0,0.0
1282,69.0,0,60,2.0,0.0
1283,79.0,15,60,0.0,0.0
1284,79.0,0,60,3.0,0.0
1285,79.0,15,60,2.0,0.0
1286,79.0,0,60,1.0,0.0
1287,69.0,15,60,3.0,0.0
1288,69.0,0,60,0.0,0.0
1289,69.0,45,60,2.0,0.0
1290,69.0,0,60,1.0,0.0
1291,76.0,15,60,3.0,0.0
1292,76.0,0,60,0.0,0.0
1293,76.0,0,60,2.0,0.0
1294,76.0,15,60,1.0,0.0
1295,69.0,0,60,0.0,0.0
1296,69.0,15,60,3.0,0.0
1297,69.0,45,60,1.0,0.0
1298,69.0,0,60,2.0,0.0
1299,77.0,15,60,0.0,0.0
1300,77.0,0,60,3.0,0.0
1301,77.0,15,60,2.0,0.0
1302,77.0,0,60,1.0,0.0
1303,69.0,15,60,3.0,0.0
1304,69.0,0,60,0.0,0.0
1305,69.0,0,60,2.0,0.0
1306,69.0,45,60,1.0,0.0
1307,74.0,0,60,3.0,0.0
1308,74.0,15,60,0.0,0.0
1309,74.0,0,60,2.0,0.0
1310,74.0,15,60,1.0,0.0
1311,69.0,0,60,0.0,0.0
1312,69.0,15,60,3.0,0.0
1313,69.0,0,60,2.0,0.0
1314,69.0,45,60,1.0,0.0
1315,76.0,15,60,0.0,0.0
1316,76.0,0,60,3.0,0.0
1317,76.0,15,60,2.0,0.0
1318,76.0,0,60,1.0,0.0
1319,69.0,15,60,3.0,0.0
1320,69.0,0,60,0.0,0.0
1321,69.0,45,60,2.0,0.0
1322,69.0,0,60,1.0,0.0
1323,73.0,0,60,0.0,0.0
1324,73.0,15,60,3.0,0.0
1325,73.0,15,60,1.0,0.0
1326,73.0,0,60,2.0,0.0
1327,69.0,15,60,3.0,0.0
1328,69.0,0,60,0.0,0.0
1329,69.0,45,60,1.0,0.0
1330,69.0,0,60,2.0,0.0
1331,74.0,0,60,0.0,0.0
1332,74.0,15,60,3.0,0.0
1333,74.0,0,60,2.0,0.0
1334,74.0,21,60,1.0,0.0
1335,69.0,15,60,3.0,0.0
1336,69.0,0,60,0.0,0.0
1337,69.0,0,60,1.0,0.0
1338,69.0,66,60,2.0,0.0
1339,69.0,15,60,3.0,0.0
1340,69.0,0,60,0.0,0.0
1341,69.0,49,60,2.0,0.0
1342,69.0,0,60,1.0,0.0
1343,70.0,0,60,3.0,0.0
1344,70.0,15,60,0.0,0.0
1345,70.0,14,60,2.0,0.0
1346,70.0,0,60,1.0,0.0
1347,69.0,15,60,3.0,0.0
1348,69.0,0,60,0.0,0.0
1349,69.0,45,60,2.0,0.0
1350,69.0,0,60,1.0,0.0
1351,67.0,0,60,0.0,0.0
1352,67.0,15,60,3.0,0.0
1353,67.0,165,60,2.0,0.0
1354,67.0,0,60,1.0,0.0
1355,69.0,15,240,3.0,0.0
1356,69.0,0,240,0.0,0.0
1357,69.0,0,240,1.0,0.0
1358,69.0,45,240,2.0,0.0
1359,65.0,0,60,3.0,0.0
1360,65.0,15,60,0.0,0.0
1361,65.0,15,60,2.0,0.0
1362,65.0,0,60,1.0,0.0
1363,67.0,15,60,0.0,0.0
1364,67.0,0,60,3.0,0.0
1365,67.0,15,60,2.0,0.0
1366,67.0,0,60,1.0,0.0
1367,69.0,0,60,3.0,0.0
1368,69.0,15,60,0.0,0.0
1369,69.0,0,60,2.0,0.0
1370,69.0,45,60,1.0,0.0
1371,64.0,15,60,3.0,0.0
1372,64.0,0,60,0.0,0.0
1373,64.0,0,60,2.0,0.0
1374,64.0,15,60,1.0,0.0
1375,69.0,15,60,0.0,0.0
1376,69.0,0,60,3.0,0.0
1377,69.0,0,60,2.0,0.0
1378,69.0,45,60,1.0,0.0
1379,65.0,15,60,3.0,0.0
1380,65.0,0,60,0.0,0.0
1381,65.0,0,60,2.0,0.0
1382,65.0,15,60,1.0,0.0
1383,69.0,15,60,3.0,0.0
1384,69.0,0,60,0.0,0.0
1385,69.0,0,60,1.0,0.0
1386,69.0,45,60,2.0,0.0
1387,62.0,0,60,0.0,0.0
1388,62.0,15,60,3.0,0.0
1389,62.0,15,60,2.0,0.0
1390,62.0,0,60,1.0,0.0
1391,69.0,15,60,3.0,0.0
1392,69.0,0,60,0.0,0.0
1393,69.0,45,60,2.0,0.0
1394,69.0,0,60,1.0,0.0
1395,67.0,0,60,3.0,0.0
1396,67.0,15,60,0.0,0.0
1397,67.0,0,60,1.0,0.0
1398,67.0,15,60,2.0,0.0
1399,69.0,15,60,3.0,0.0
1400,69.0,0,60,0.0,0.0
1401,69.0,45,60,2.0,0.0
1402,69.0,0,60,1.0,0.0
1403,64.0,0,60,0.0,0.0
1404,64.0,15,60,3.0,0.0
1405,64.0,15,60,1.0,0.0
1406,64.0,0,60,2.0,0.0
1407,69.0,0,60,3.0,0.0
1408,69.0,15,60,0.0,0.0
1409,69.0,45,60,2.0,0.0
1410,69.0,0,60,1.0,0.0
1411,65.0,0,60,3.0,0.0
1412,65.0,15,60,0.0,0.0
1413,65.0,15,60,1.0,0.0
1414,65.0,0,60,2.0,0.0
1415,69.0,15,60,3.0,0.0
1416,69.0,0,60,0.0,0.0
1417,69.0,45,60,2.0,0.0
1418,69.0,0,60,1.0,0.0
1419,62.0,15,60,3.0,0.0
1420,62.0,0,60,0.0,0.0
1421,62.0,15,60,2.0,0.0
1422,62.0,0,60,1.0,0.0
1423,69.0,15,60,0.0,0.0
1424,69.0,0,60,3.0,0.0
1425,69.0,45,60,1.0,0.0
1426,69.0,0,60,2.0,0.0
1427,64.0,15,60,0.0,0.0
1428,64.0,0,60,3.0,0.0
1429,64.0,0,60,1.0,0.0
1430,64.0,15,60,2.0,0.0
1431,69.0,0,60,0.0,0.0
1432,69.0,15,60,3.0,0.0
1433,69.0,45,60,1.0,0.0
1434,69.0,0,60,2.0,0.0
1435,61.0,0,60,3.0,0.0
1436,61.0,15,60,0.0,0.0
1437,61.0,0,60,1.0,0.0
1438,61.0,15,60,2.0,0.0
1439,69.0,0,60,0.0,0.0
1440,69.0,15,60,3.0,0.0
1441,69.0,45,60,2.0,0.0
1442,69.0,0,60,1.0,0.0
1443,62.0,0,60,0.0,0.0
1444,62.0,15,60,3.0,0.0
1445,62.0,15,60,2.0,0.0
1446,62.0,0,60,1.0,0.0
1447,69.0,0,60,0.0,0.0
1448,69.0,15,60,3.0,0.0
1449,69.0,0,60,1.0,0.0
1450,69.0,45,60,2.0,0.0
1451,57.0,15,60,0.0,0.0
1452,57.0,0,60,3.0,0.0
1453,57.0,15,60,2.0,0.0
1454,57.0,0,60,1.0,0.0
1455,69.0,0,60,3.0,0.0
1456,69.0,15,60,0.0,0.0
1457,69.0,45,60,1.0,0.0
1458,69.0,0,60,2.0,0.0
1459,58.0,15,60,3.0,0.0
1460,58.0,0,60,0.0,0.0
1461,58.0,0,60,1.0,0.0
1462,58.0,15,60,2.0,0.0
1463,69.0,0,60,3.0,0.0
1464,69.0,15,60,0.0,0.0
1465,69.0,0,60,1.0,0.0
1466,69.0,45,60,2.0,0.0
1467,55.0,0,60,0.0,0.0
1468,55.0,15,60,3.0,0.0
1469,55.0,15,60,1.0,0.0
1470,55.0,0,60,2.0,0.0
1471,69.0,0,60,0.0,0.0
1472,69.0,15,60,3.0,0.0
1473,69.0,0,60,1.0,0.0
1474,69.0,45,60,2.0,0.0
1475,57.0,0,60,0.0,0.0
1476,57.0,15,60,3.0,0.0
1477,57.0,15,60,1.0,0.0
1478,57.0,0,60,2.0,0.0
1479,69.0,0,60,3.0,0.0
1480,69.0,15,60,0.0,0.0
1481,69.0,45,60,1.0,0.0
1482,69.0,0,60,2.0,0.0
1483,53.0,0,60,3.0,0.0
1484,53.0,15,60,0.0,0.0
1485,53.0,15,60,2.0,0.0
1486,53.0,0,60,1.0,0.0
1487,69.0,0,60,3.0,0.0
1488,69.0,15,60,0.0,0.0
1489,69.0,45,60,2.0,0.0
1490,69.0,0,60,1.0,0.0
1491,55.0,15,60,0.0,0.0
1492,55.0,0,60,3.0,0.0
1493,55.0,15,60,1.0,0.0
1494,55.0,0,60,2.0,0.0
1495,69.0,15,60,3.0,0.0
1496,69.0,0,60,0.0,0.0
1497,69.0,45,60,2.0,0.0
1498,69.0,0,60,1.0,0.0
1499,52.0,15,60,3.0,0.0
1500,52.0,0,60,0.0,0.0
1501,52.0,0,60,2.0,0.0
1502,52.0,15,60,1.0,0.0
1503,69.0,15,60,0.0,0.0
1504,69.0,0,60,3.0,0.0
1505,69.0,45,60,1.0,0.0
1506,69.0,0,60,2.0,0.0
1507,53.0,15,60,3.0,0.0
1508,53.0,0,60,0.0,0.0
1509,53.0,0,60,1.0,0.0
1510,53.0,15,60,2.0,0.0
1511,69.0,0,60,3.0,0.0
1512,69.0,15,60,0.0,0.0
1513,69.0,0,60,1.0,0.0
1514,69.0,45,60,2.0,0.0
1515,50.0,0,60,0.0,0.0
1516,50.0,15,60,3.0,0.0
1517,50.0,15,60,2.0,0.0
1518,50.0,0,60,1.0,0.0
1519,69.0,0,60,3.0,0.0
1520,69.0,15,60,0.0,0.0
1521,69.0,0,60,1.0,0.0
1522,69.0,45,60,2.0,0.0
1523,55.0,15,60,3.0,0.0
1524,55.0,0,60,0.0,0.0
1525,55.0,15,60,2.0,0.0
1526,55.0,0,60,1.0,0.0
1527,69.0,15,60,0.0,0.0
1528,69.0,0,60,3.0,0.0
1529,69.0,0,60,2.0,0.0
1530,69.0,45,60,1.0,0.0
1531,52.0,0,60,0.0,0.0
1532,52.0,15,60,3.0,0.0
1533,52.0,15,60,2.0,0.0
1534,52.0,0,60,1.0,0.0
1535,69.0,15,60,0.0,0.0
1536,69.0,0,60,3.0,0.0
1537,69.0,0,60,1.0,0.0
1538,69.0,45,60,2.0,0.0
1539,53.0,0,60,3.0,0.0
1540,53.0,15,60,0.0,0.0
1541,53.0,0,60,2.0,0.0
1542,53.0,15,60,1.0,0.0
1543,69.0,0,60,0.0,0.0
1544,69.0,15,60,3.0,0.0
1545,69.0,45,60,2.0,0.0
1546,69.0,0,60,1.0,0.0
1547,50.0,15,60,0.0,0.0
1548,50.0,0,60,3.0,0.0
1549,50.0,15,60,2.0,0.0
1550,50.0,0,60,1.0,0.0
1551,69.0,15,60,0.0,0.0
1552,69.0,0,60,3.0,0.0
1553,69.0,0,60,1.0,0.0
1554,69.0,45,60,2.0,0.0
1555,52.0,15,60,3.0,0.0
1556,52.0,0,60,0.0,0.0
1557,52.0,0,60,2.0,0.0
1558,52.0,15,60,1.0,0.0
1559,69.0,0,60,0.0,0.0
1560,69.0,15,60,3.0,0.0
1561,69.0,45,60,1.0,0.0
1562,69.0,0,60,2.0,0.0
1563,49.0,0,60,0.0,0.0
1564,49.0,15,60,3.0,0.0
1565,49.0,240,60,2.0,0.0
1566,49.0,0,60,1.0,0.0
1567,50.0,0,240,3.0,0.0
1568,50.0,15,240,0.0,0.0
1569,50.0,0,240,2.0,0.0
1570,50.0,255,240,1.0,0.0
1571,62.0,15,30,3.0,0.0
1572,62.0,30,30,4.0,0.0
1573,65.0,15,30,3.0,0.0
1574,65.0,30,30,4.0,0.0
1575,70.0,15,30,3.0,0.0
1576,70.0,30,30,4.0,0.0
1577,65.0,15,30,3.0,0.0
1578,65.0,30,30,4.0,0.0
1579,60.0,15,30,3.0,0.0
1580,60.0,30,30,4.0,0.0
1581,64.0,15,30,3.0,0.0
1582,64.0,30,30,4.0,0.0
1583,69.0,15,30,3.0,0.0
1584,69.0,30,30,4.0,0.0
1585,64.0,15,30,3.0,0.0
1586,64.0,30,30,4.0,0.0
1587,58.0,15,30,3.0,0.0
1588,58.0,30,30,4.0,0.0
1589,62.0,15,30,3.0,0.0
1590,62.0,30,30,4.0,0.0
1591,67.0,15,30,3.0,0.0
1592,67.0,30,30,4.0,0.0
1593,62.0,15,30,3.0,0.0
1594,62.0,30,30,4.0,0.0
1595,57.0,15,30,3.0,0.0
1596,57.0,30,30,4.0,0.0
1597,61.0,15,30,3.0,0.0
1598,61.0,30,30,4.0,0.0
1599,64.0,15,30,3.0,0.0
1600,64.0,30,30,4.0,0.0
1601,69.0,15,30,3.0,0.0
1602,69.0,90,30,4.0,0.0
1603,50.0,0,180,3.0,0.0
1604,62.0,0,60,3.0,0.0
1605,62.0,15,60,0.0,0.0
1606,50.0,0,180,0.0,0.0
1607,62.0,0,60,1.0,0.0
1608,50.0,0,180,2.0,0.0
1609,50.0,75,180,1.0,0.0
1610,62.0,0,60,4.0,0.0
1611,62.0,75,60,2.0,0.0
1612,70.0,15,60,3.0,0.0
1613,65.0,0,60,0.0,0.0
1614,70.0,0,60,0.0,0.0
1615,65.0,0,60,3.0,0.0
1616,70.0,0,60,2.0,0.0
1617,65.0,0,60,2.0,0.0
1618,70.0,0,60,1.0,0.0
1619,65.0,0,60,1.0,0.0
1620,48.0,0,180,3.0,0.0
1621,57.0,15,60,3.0,0.0
1622,57.0,0,60,0.0,0.0
1623,48.0,0,180,0.0,0.0
1624,48.0,0,180,1.0,0.0
1625,57.0,0,60,1.0,0.0
1626,48.0,0,180,2.0,0.0
1627,57.0,75,60,2.0,0.0
1628,64.0,0,60,3.0,0.0
1629,69.0,15,60,0.0,0.0
1630,64.0,0,60,0.0,0.0
1631,69.0,0,60,3.0,0.0
1632,69.0,75,60,2.0,0.0
1633,64.0,0,60,2.0,0.0
1634,69.0,0,60,1.0,0.0
1635,64.0,0,60,1.0,0.0
1636,46.0,0,180,3.0,0.0
1637,58.0,0,60,0.0,0.0
1638,46.0,0,180,0.0,0.0
1639,58.0,15,60,3.0,0.0
1640,58.0,0,60,2.0,0.0
1641,46.0,165,180,1.0,0.0
1642,58.0,75,60,1.0,0.0
1643,46.0,0,180,2.0,0.0
1644,67.0,15,60,0.0,0.0
1645,67.0,0,60,3.0,0.0
1646,62.0,0,60,3.0,0.0
1647,62.0,0,60,0.0,0.0
1648,62.0,0,60,2.0,0.0
1649,67.0,0,60,2.0,0.0
1650,62.0,0,60,1.0,0.0
1651,67.0,0,60,1.0,0.0
1652,61.0,0,180,0.0,0.0
1653,64.0,0,180,0.0,0.0
1654,69.0,0,180,0.0,0.0
1655,45.0,0,180,3.0,0.0
1656,69.0,0,180,3.0,0.0
1657,64.0,0,180,3.0,0.0
1658,45.0,15,180,0.0,0.0
1659,61.0,0,180,3.0,0.0
1660,45.0,0,180,1.0,0.0
1661,64.0,0,180,1.0,0.0
1662,61.0,510,180,2.0,0.0
1663,45.0,0,180,2.0,0.0
1664,69.0,0,180,1.0,0.0
1665,69.0,0,180,2.0,0.0
1666,64.0,0,180,2.0,0.0
1667,61.0,0,180,1.0,0.0
1668,62.0,45,30,4.0,0.0
1669,65.0,45,30,4.0,0.0
1670,70.0,45,30,4.0,0.0
1671,65.0,45,30,4.0,0.0
1672,60.0,45,30,4.0,0.0
1673,64.0,45,30,4.0,0.0
1674,69.0,45,30,4.0,0.0
1675,64.0,45,30,4.0,0.0
1676,58.0,45,30,4.0,0.0
1677,62.0,45,30,4.0,0.0
1678,67.0,45,30,4.0,0.0
1679,62.0,45,30,4.0,0.0
1680,57.0,45,30,4.0,0.0
1681,61.0,45,30,4.0,0.0
1682,64.0,45,30,4.0,0.0
1683,69.0,90,30,4.0,0.0
1684,50.0,0,180,0.0,0.0
1685,62.0,0,60,0.0,0.0
1686,50.0,0,180,3.0,0.0
1687,62.0,15,60,3.0,0.0
1688,62.0,0,60,4.0,0.0
1689,62.0,0,60,1.0,0.0
1690,50.0,0,180,2.0,0.0
1691,62.0,75,60,2.0,0.0
1692,50.0,75,180,1.0,0.0
1693,70.0,0,60,0.0,0.0
1694,65.0,0,60,3.0,0.0
1695,65.0,15,60,0.0,0.0
1696,70.0,0,60,3.0,0.0
1697,65.0,0,60,2.0,0.0
1698,70.0,0,60,2.0,0.0
1699,70.0,0,60,1.0,0.0
1700,65.0,0,60,1.0,0.0
1701,48.0,0,180,3.0,0.0
1702,48.0,0,180,0.0,0.0
1703,57.0,15,60,0.0,0.0
1704,57.0,0,60,3.0,0.0
1705,57.0,75,60,1.0,0.0
1706,48.0,0,180,1.0,0.0
1707,57.0,0,60,2.0,0.0
1708,48.0,0,180,2.0,0.0
1709,64.0,0,60,3.0,0.0
1710,69.0,15,60,3.0,0.0
1711,64.0,0,60,0.0,0.0
1712,69.0,0,60,0.0,0.0
1713,69.0,0,60,1.0,0.0
1714,64.0,75,60,1.0,0.0
1715,64.0,0,60,2.0,0.0
1716,69.0,0,60,2.0,0.0
1717,58.0,15,60,3.0,0.0
1718,46.0,0,180,3.0,0.0
1719,58.0,0,60,0.0,0.0
1720,46.0,15,180,0.0,0.0
1721,58.0,0,60,1.0,0.0
1722,46.0,0,180,1.0,0.0
1723,58.0,75,60,2.0,0.0
1724,46.0,0,180,2.0,0.0
1725,62.0,0,60,0.0,0.0
1726,67.0,0,60,3.0,0.0
1727,67.0,0,60,0.0,0.0
1728,62.0,0,60,3.0,0.0
1729,67.0,0,60,2.0,0.0
1730,62.0,390,60,1.0,0.0
1731,62.0,0,60,2.0,0.0
1732,67.0,0,60,1.0,0.0
1733,45.0,0,390,0.0,0.0
1734,69.0,0,420,0.0,0.0
1735,64.0,0,390,0.0,0.0
1736,61.0,0,390,0.0,0.0
1737,52.0,15,390,0.0,0.0
1738,52.0,0,390,3.0,0.0
1739,45.0,0,390,3.0,0.0
1740,69.0,15,420,3.0,0.0
1741,64.0,0,390,3.0,0.0
1742,61.0,0,390,3.0,0.0
1743,64.0,0,390,2.0,0.0
1744,61.0,30,390,2.0,0.0
1745,45.0,0,390,1.0,0.0
1746,52.0,0,390,2.0,0.0
1747,69.0,0,420,1.0,0.0
1748,45.0,0,390,2.0,0.0
1749,61.0,0,390,1.0,0.0
1750,52.0,0,390,1.0,0.0
1751,69.0,30,420,2.0,0.0
1752,64.0,0,390,1.0,0.0
1753,67.0,15,30,0.0,0.0
1754,67.0,0,30,3.0,0.0
1755,67.0,0,30,2.0,0.0
1756,67.0,30,30,1.0,0.0
1757,65.0,0,30,3.0,0.0
1758,65.0,15,30,0.0,0.0
1759,65.0,30,30,2.0,0.0
1760,65.0,0,30,1.0,0.0
1761,64.0,15,30,3.0,0.0
1762,64.0,0,30,0.0,0.0
1763,64.0,0,30,2.0,0.0
1764,64.0,30,30,1.0,0.0
1765,62.0,15,30,0.0,0.0
1766,62.0,0,30,3.0,0.0
1767,62.0,0,30,2.0,0.0
1768,62.0,30,30,1.0,0.0
1769,61.0,0,30,0.0,0.0
1770,61.0,15,30,3.0,0.0
1771,61.0,30,30,2.0,0.0
1772,61.0,0,30,1.0,0.0
1773,59.0,0,30,0.0,0.0
1774,59.0,15,30,3.0,0.0
1775,59.0,0,30,2.0,0.0
1776,59.0,30,30,1.0,0.0
1777,61.0,15,30,0.0,0.0
1778,61.0,0,30,3.0,0.0
1779,61.0,30,30,1.0,0.0
1780,61.0,0,30,2.0,0.0
1781,57.0,15,30,0.0,0.0
1782,57.0,0,30,3.0,0.0
1783,57.0,0,30,1.0,0.0
1784,57.0,30,30,2.0,0.0
1785,59.0,15,30,3.0,0.0
1786,59.0,0,30,0.0,0.0
1787,59.0,0,30,1.0,0.0
1788,59.0,30,30,2.0,0.0
1789,61.0,15,30,3.0,0.0
1790,61.0,0,30,0.0,0.0
1791,61.0,30,30,2.0,0.0
1792,61.0,0,30,1.0,0.0
1793,62.0,0,30,3.0,0.0
1794,62.0,15,30,0.0,0.0
1795,62.0,0,30,2.0,0.0
1796,62.0,30,30,1.0,0.0
1797,64.0,15,30,0.0,0.0
1798,64.0,0,30,3.0,0.0
1799,64.0,30,30,2.0,0.0
1800,64.0,0,30,1.0,0.0
1801,65.0,15,30,0.0,0.0
1802,65.0,0,30,3.0,0.0
1803,65.0,30,30,2.0,0.0
1804,65.0,0,30,1.0,0.0
1805,67.0,0,30,0.0,0.0
1806,67.0,15,30,3.0,0.0
1807,67.0,0,30,1.0,0.0
1808,67.0,30,30,2.0,0.0
1809,69.0,15,30,0.0,0.0
1810,69.0,0,30,3.0,0.0
1811,69.0,0,30,1.0,0.0
1812,69.0,30,30,2.0,0.0
1813,67.0,0,30,3.0,0.0
1814,67.0,15,30,0.0,0.0
1815,67.0,30,30,1.0,0.0
1816,67.0,0,30,2.0,0.0
1817,65.0,0,30,3.0,0.0
1818,65.0,15,30,0.0,0.0
1819,65.0,0,30,2.0,0.0
1820,65.0,30,30,1.0,0.0
1821,64.0,15,30,0.0,0.0
1822,64.0,0,30,3.0,0.0
1823,64.0,0,30,2.0,0.0
1824,64.0,30,30,1.0,0.0
1825,65.0,0,30,0.0,0.0
1826,65.0,15,30,3.0,0.0
1827,65.0,0,30,2.0,0.0
1828,65.0,30,30,1.0,0.0
1829,62.0,15,30,3.0,0.0
1830,62.0,0,30,0.0,0.0
1831,62.0,30,30,2.0,0.0
1832,62.0,0,30,1.0,0.0
1833,65.0,15,30,3.0,0.0
1834,65.0,0,30,0.0,0.0
1835,65.0,30,30,1.0,0.0
1836,65.0,0,30,2.0,0.0
1837,69.0,15,30,0.0,0.0
1838,69.0,0,30,3.0,0.0
1839,69.0,0,30,2.0,0.0
1840,69.0,30,30,1.0,0.0
1841,73.0,0,30,3.0,0.0
1842,73.0,15,30,0.0,0.0
1843,73.0,0,30,1.0,0.0
1844,73.0,30,30,2.0,0.0
1845,74.0,15,30,0.0,0.0
1846,74.0,0,30,3.0,0.0
1847,74.0,0,30,1.0,0.0
1848,74.0,30,30,2.0,0.0
1849,69.0,15,30,0.0,0.0
1850,69.0,0,30,3.0,0.0
1851,69.0,0,30,1.0,0.0
1852,69.0,30,30,2.0,0.0
1853,71.0,0,30,3.0,0.0
1854,71.0,15,30,0.0,0.0
1855,71.0,15,30,1.0,0.0
1856,71.0,0,30,2.0,0.0
1857,73.0,0,30,3.0,0.0
1858,73.0,15,30,0.0,0.0
1859,73.0,30,30,2.0,0.0
1860,73.0,0,30,1.0,0.0
1861,74.0,15,30,0.0,0.0
1862,74.0,0,30,3.0,0.0
1863,74.0,0,30,2.0,0.0
1864,74.0,30,30,1.0,0.0
1865,76.0,15,30,3.0,0.0
1866,76.0,0,30,0.0,0.0
1867,76.0,0,30,2.0,0.0
1868,76.0,30,30,1.0,0.0
1869,77.0,0,30,3.0,0.0
1870,77.0,15,30,0.0,0.0
1871,77.0,0,30,2.0,0.0
1872,77.0,30,30,1.0,0.0
1873,79.0,15,30,3.0,0.0
1874,79.0,0,30,0.0,0.0
1875,79.0,0,30,2.0,0.0
1876,79.0,30,30,1.0,0.0
1877,81.0,0,30,3.0,0.0
1878,81.0,15,30,0.0,0.0
1879,81.0,195,30,1.0,0.0
1880,81.0,0,30,2.0,0.0
1881,82.0,15,180,0.0,0.0
1882,82.0,0,180,3.0,0.0
1883,82.0,75,180,2.0,0.0
1884,82.0,0,180,1.0,0.0
1885,50.0,0,180,0.0,0.0
1886,74.0,0,60,3.0,0.0
1887,50.0,0,180,3.0,0.0
1888,74.0,15,60,0.0,0.0
1889,50.0,0,180,1.0,0.0
1890,50.0,0,180,2.0,0.0
1891,74.0,0,60,1.0,0.0
1892,74.0,75,60,2.0,0.0
1893,77.0,15,60,3.0,0.0
1894,82.0,0,60,0.0,0.0
1895,77.0,0,60,0.0,0.0
1896,82.0,0,60,3.0,0.0
1897,77.0,0,60,2.0,0.0
1898,82.0,75,60,2.0,0.0
1899,77.0,0,60,1.0,0.0
1900,82.0,0,60,1.0,0.0
1901,69.0,15,60,0.0,0.0
1902,48.0,0,180,0.0,0.0
1903,69.0,0,60,3.0,0.0
1904,48.0,0,180,3.0,0.0
1905,69.0,75,60,2.0,0.0
1906,48.0,0,180,1.0,0.0
1907,69.0,0,60,1.0,0.0
1908,48.0,75,180,2.0,0.0
1909,76.0,0,60,3.0,0.0
1910,81.0,0,60,3.0,0.0
1911,81.0,15,60,0.0,0.0
1912,76.0,0,60,0.0,0.0
1913,81.0,0,60,2.0,0.0
1914,76.0,0,60,2.0,0.0
1915,76.0,0,60,1.0,0.0
1916,81.0,0,60,1.0,0.0
1917,70.0,0,60,3.0,0.0
1918,46.0,0,180,3.0,0.0
1919,70.0,15,60,0.0,0.0
1920,46.0,0,180,0.0,0.0
1921,46.0,0,180,2.0,0.0
1922,70.0,0,60,2.0,0.0
1923,46.0,0,180,1.0,0.0
1924,70.0,75,60,1.0,0.0
1925,74.0,0,60,3.0,0.0
1926,79.0,15,60,3.0,0.0
1927,74.0,0,60,0.0,0.0
1928,79.0,0,60,0.0,0.0
1929,79.0,405,60,2.0,0.0
1930,74.0,0,60,2.0,0.0
1931,74.0,0,60,1.0,0.0
1932,79.0,0,60,1.0,0.0
1933,45.0,0,420,0.0,0.0
1934,64.0,0,420,0.0,0.0
1935,57.0,15,420,3.0,0.0
1936,76.0,0,420,0.0,0.0
1937,81.0,0,420,0.0,0.0
1938,57.0,0,420,0.0,0.0
1939,81.0,0,420,3.0,0.0
1940,45.0,0,420,3.0,0.0
1941,73.0,0,420,3.0,0.0
1942,76.0,0,420,3.0,0.0
1943,73.0,0,420,0.0,0.0
1944,45.0,0,420,2.0,0.0
1945,64.0,0,420,2.0,0.0
1946,73.0,0,420,2.0,0.0
1947,76.0,0,420,2.0,0.0
1948,81.0,0,420,2.0,0.0
1949,57.0,0,420,2.0,0.0
1950,45.0,30,420,1.0,0.0
1951,73.0,0,420,1.0,0.0
1952,64.0,0,420,1.0,0.0
1953,81.0,0,420,1.0,0.0
1954,57.0,0,420,1.0,0.0
1955,76.0,0,420,1.0,0.0
1956,74.0,15,30,3.0,0.0
1957,74.0,30,30,4.0,0.0
1958,77.0,15,30,3.0,0.0
1959,77.0,30,30,4.0,0.0
1960,82.0,15,30,3.0,0.0
1961,82.0,30,30,4.0,0.0
1962,77.0,15,30,3.0,0.0
1963,77.0,30,30,4.0,0.0
1964,72.0,15,30,3.0,0.0
1965,72.0,30,30,4.0,0.0
1966,76.0,15,30,3.0,0.0
1967,76.0,30,30,4.0,0.0
1968,81.0,15,30,3.0,0.0
1969,81.0,30,30,4.0,0.0
1970,76.0,15,30,3.0,0.0
1971,76.0,30,30,4.0,0.0
1972,70.0,15,30,3.0,0.0
1973,70.0,30,30,4.0,0.0
1974,74.0,15,30,3.0,0.0
1975,74.0,30,30,4.0,0.0
1976,79.0,15,30,3.0,0.0
1977,79.0,15,30,4.0,0.0
1978,74.0,15,30,3.0,0.0
1979,74.0,45,30,4.0,0.0
1980,69.0,15,60,3.0,0.0
1981,69.0,45,60,4.0,0.0
1982,73.0,15,60,3.0,0.0
1983,73.0,45,60,4.0,0.0
1984,76.0,15,60,3.0,0.0
1985,76.0,45,60,4.0,0.0
1986,81.0,15,60,3.0,0.0
1987,81.0,105,60,4.0,0.0
1988,50.0,0,240,3.0,0.0
1989,74.0,15,120,3.0,0.0
1990,74.0,0,120,0.0,0.0
1991,50.0,0,240,0.0,0.0
1992,74.0,0,120,1.0,0.0
1993,74.0,0,120,2.0,0.0
1994,50.0,105,240,2.0,0.0
1995,50.0,0,240,1.0,0.0
1996,74.0,105,120,4.0,0.0
1997,77.0,0,120,0.0,0.0
1998,82.0,0,120,0.0,0.0
1999,77.0,15,120,3.0,0.0
2000,82.0,0,120,3.0,0.0
2001,82.0,0,120,2.0,0.0
2002,77.0,0,120,2.0,0.0
2003,82.0,0,120,1.0,0.0
2004,77.0,0,120,1.0,0.0
2005,69.0,15,120,0.0,0.0
2006,48.0,0,240,3.0,0.0
2007,69.0,0,120,3.0,0.0
2008,48.0,0,240,0.0,0.0
2009,48.0,105,240,1.0,0.0
2010,69.0,105,120,1.0,0.0
2011,69.0,0,120,2.0,0.0
2012,48.0,0,240,2.0,0.0
2013,76.0,0,120,3.0,0.0
2014,81.0,0,120,3.0,0.0
2015,81.0,0,120,0.0,0.0
2016,76.0,15,120,0.0,0.0
2017,76.0,0,120,1.0,0.0
2018,81.0,0,120,2.0,0.0
2019,81.0,0,120,1.0,0.0
2020,76.0,0,120,2.0,0.0
2021,46.0,15,240,0.0,0.0
2022,70.0,0,120,0.0,0.0
2023,70.0,15,120,3.0,0.0
2024,46.0,0,240,3.0,0.0
2025,46.0,0,240,1.0,0.0
2026,70.0,0,120,1.0,0.0
2027,70.0,105,120,2.0,0.0
2028,46.0,0,240,2.0,0.0
2029,74.0,0,120,0.0,0.0
2030,79.0,0,120,0.0,0.0
2031,79.0,0,120,3.0,0.0
2032,74.0,0,120,3.0,0.0
2033,74.0,225,120,2.0,0.0
2034,79.0,0,120,2.0,0.0
2035,79.0,0,120,1.0,0.0
2036,74.0,0,120,1.0,0.0
2037,73.0,0,240,3.0,0.0
2038,45.0,15,240,3.0,0.0
2039,45.0,0,240,0.0,0.0
2040,64.0,0,240,0.0,0.0
2041,69.0,0,240,0.0,0.0
2042,73.0,0,240,0.0,0.0
2043,76.0,0,240,0.0,0.0
2044,81.0,0,240,0.0,0.0
2045,76.0,0,240,3.0,0.0
2046,81.0,0,240,3.0,0.0
2047,64.0,0,240,2.0,0.0
2048,69.0,0,240,2.0,0.0
2049,73.0,0,240,2.0,0.0
2050,76.0,225,240,2.0,0.0
2051,45.0,0,240,2.0,0.0
2052,81.0,0,240,2.0,0.0
2053,69.0,0,240,1.0,0.0
2054,73.0,0,240,1.0,0.0
2055,76.0,0,240,1.0,0.0
2056,81.0,0,240,1.0,0.0
2057,64.0,0,240,1.0,0.0
2058,45.0,0,240,1.0,0.0
2059,44.0,0,240,3.0,0.0
2060,71.0,0,240,3.0,0.0
2061,74.0,15,240,0.0,0.0
2062,65.0,0,240,0.0,0.0
2063,71.0,0,240,0.0,0.0
2064,59.0,0,240,0.0,0.0
2065,44.0,0,240,0.0,0.0
2066,74.0,0,240,3.0,0.0
2067,65.0,0,240,2.0,0.0
2068,74.0,0,240,2.0,0.0
2069,74.0,0,240,1.0,0.0
2070,59.0,0,240,2.0,0.0
2071,44.0,0,240,2.0,0.0
2072,44.0,450,240,1.0,0.0
2073,59.0,0,240,1.0,0.0
2074,71.0,0,240,1.0,0.0
2075,65.0,0,240,1.0,0.0
2076,71.0,0,240,2.0,0.0
2077,73.0,0,450,3.0,0.0
2078,43.0,0,450,3.0,0.0
2079,69.0,0,450,3.0,0.0
2080,57.0,15,450,3.0,0.0
2081,69.0,0,450,0.0,0.0
2082,64.0,0,450,0.0,0.0
2083,57.0,0,450,0.0,0.0
2084,43.0,0,450,0.0,0.0
2085,73.0,0,450,0.0,0.0
2086,43.0,0,450,1.0,0.0
2087,43.0,0,450,2.0,0.0
2088,57.0,0,450,2.0,0.0
2089,69.0,45,450,2.0,0.0
2090,73.0,0,450,2.0,0.0
2091,57.0,0,450,1.0,0.0
2092,64.0,0,450,1.0,0.0
2093,69.0,0,450,1.0,0.0
2094,64.0,0,450,2.0,0.0
2095,73.0,0,450,1.0,0.0
2096,71.0,15,60,0.0,0.0
2097,71.0,0,60,3.0,0.0
2098,71.0,45,60,1.0,0.0
2099,71.0,0,60,2.0,0.0
2100,69.0,0,60,3.0,0.0
2101,69.0,15,60,0.0,0.0
2102,69.0,0,60,2.0,0.0
2103,69.0,45,60,1.0,0.0
2104,73.0,15,60,0.0,0.0
2105,73.0,0,60,3.0,0.0
2106,73.0,0,60,2.0,0.0
2107,73.0,30,60,1.0,0.0
2108,76.0,0,30,0.0,0.0
2109,76.0,15,30,3.0,0.0
2110,76.0,30,30,2.0,0.0
2111,76.0,0,30,1.0,0.0
2112,79.0,15,30,0.0,0.0
2113,79.0,0,30,3.0,0.0
2114,79.0,75,30,2.0,0.0
2115,79.0,0,30,1.0,0.0
2116,82.0,15,60,0.0,0.0
2117,82.0,0,60,3.0,0.0
2118,82.0,0,60,1.0,0.0
2119,82.0,30,60,2.0,0.0
2120,81.0,0,30,3.0,0.0
2121,81.0,15,30,0.0,0.0
2122,81.0,0,30,2.0,0.0
2123,81.0,30,30,1.0,0.0
2124,79.0,0,30,3.0,0.0
2125,79.0,15,30,0.0,0.0
2126,79.0,0,30,2.0,0.0
2127,79.0,30,30,1.0,0.0
2128,77.0,0,30,0.0,0.0
2129,77.0,15,30,3.0,0.0
2130,77.0,0,30,2.0,0.0
2131,77.0,30,30,1.0,0.0
2132,76.0,15,30,0.0,0.0
2133,76.0,0,30,3.0,0.0
2134,76.0,30,30,2.0,0.0
2135,76.0,0,30,1.0,0.0
2136,77.0,15,30,0.0,0.0
2137,77.0,0,30,3.0,0.0
2138,77.0,30,30,1.0,0.0
2139,77.0,0,30,2.0,0.0
2140,76.0,15,30,3.0,0.0
2141,76.0,0,30,0.0,0.0
2142,76.0,30,30,1.0,0.0
2143,76.0,0,30,2.0,0.0
2144,74.0,0,30,3.0,0.0
2145,74.0,15,30,0.0,0.0
2146,74.0,30,30,1.0,0.0
2147,74.0,0,30,2.0,0.0
2148,73.0,15,30,0.0,0.0
2149,73.0,0,30,3.0,0.0
2150,73.0,0,30,2.0,0.0
2151,73.0,30,30,1.0,0.0
2152,74.0,15,30,3.0,0.0
2153,74.0,0,30,0.0,0.0
2154,74.0,0,30,1.0,0.0
2155,74.0,30,30,2.0,0.0
2156,72.0,0,30,3.0,0.0
2157,72.0,15,30,0.0,0.0
2158,72.0,30,30,2.0,0.0
2159,72.0,0,30,1.0,0.0
2160,70.0,15,30,3.0,0.0
2161,70.0,0,30,0.0,0.0
2162,70.0,0,30,2.0,0.0
2163,70.0,30,30,1.0,0.0
2164,69.0,15,30,0.0,0.0
2165,69.0,0,30,3.0,0.0
2166,69.0,30,30,2.0,0.0
2167,69.0,0,30,1.0,0.0
2168,67.0,0,30,3.0,0.0
2169,67.0,15,30,0.0,0.0
2170,67.0,0,30,2.0,0.0
2171,67.0,15,30,1.0,0.0
2172,65.0,0,30,0.0,0.0
2173,65.0,15,30,3.0,0.0
2174,65.0,0,30,2.0,0.0
2175,65.0,30,30,1.0,0.0
2176,64.0,15,30,3.0,0.0
2177,64.0,0,30,0.0,0.0
2178,64.0,0,30,1.0,0.0
2179,64.0,30,30,2.0,0.0
2180,62.0,15,30,3.0,0.0
2181,62.0,0,30,0.0,0.0
2182,62.0,0,30,1.0,0.0
2183,62.0,810,30,2.0,0.0
2184,76.0,0,810,3.0,0.0
2185,61.0,0,810,3.0,0.0
2186,73.0,0,900,3.0,0.0
2187,67.0,0,810,0.0,0.0
2188,70.0,0,810,0.0,0.0
2189,76.0,0,810,0.0,0.0
2190,55.0,0,810,0.0,0.0
2191,73.0,15,900,0.0,0.0
2192,64.0,0,900,0.0,0.0
2193,55.0,0,810,3.0,0.0
2194,61.0,15,810,0.0,0.0
2195,64.0,0,900,2.0,0.0
2196,61.0,0,810,2.0,0.0
2197,73.0,0,900,2.0,0.0
2198,64.0,75,900,1.0,0.0
2199,67.0,0,810,2.0,0.0
2200,61.0,0,810,1.0,0.0
2201,73.0,0,900,1.0,0.0
2202,70.0,0,810,1.0,0.0
2203,76.0,0,810,1.0,0.0
2204,55.0,75,810,1.0,0.0
2205,76.0,0,810,2.0,0.0
2206,55.0,0,810,2.0,0.0
2207,67.0,0,810,1.0,0.0
2208,70.0,0,810,2.0,0.0
2209,67.0,0,60,0.0,0.0
2210,76.0,0,60,0.0,0.0
2211,67.0,15,60,3.0,0.0
2212,76.0,0,60,3.0,0.0
2213,67.0,0,60,2.0,0.0
2214,76.0,0,60,2.0,0.0
2215,76.0,75,60,1.0,0.0
2216,67.0,0,60,1.0,0.0
2217,64.0,15,60,3.0,0.0
2218,73.0,0,60,3.0,0.0
2219,73.0,0,60,0.0,0.0
2220,64.0,0,60,0.0,0.0
2221,73.0,0,60,2.0,0.0
2222,64.0,0,60,2.0,0.0
2223,64.0,75,60,1.0,0.0
2224,73.0,0,60,1.0,0.0
2225,70.0,0,60,3.0,0.0
2226,61.0,0,60,3.0,0.0
2227,70.0,15,60,0.0,0.0
2228,61.0,0,60,0.0,0.0
2229,70.0,0,60,2.0,0.0
2230,70.0,0,60,1.0,0.0
2231,61.0,75,60,1.0,0.0
2232,61.0,0,60,2.0,0.0
2233,73.0,15,60,0.0,0.0
2234,73.0,0,60,3.0,0.0
2235,64.0,0,60,3.0,0.0
2236,64.0,0,60,0.0,0.0
2237,64.0,0,60,2.0,0.0
2238,73.0,0,60,2.0,0.0
2239,64.0,0,60,1.0,0.0
2240,73.0,75,60,1.0,0.0
2241,61.0,0,60,0.0,0.0
2242,61.0,0,60,3.0,0.0
2243,70.0,0,60,3.0,0.0
2244,70.0,15,60,0.0,0.0
2245,70.0,75,60,2.0,0.0
2246,61.0,0,60,2.0,0.0
2247,70.0,0,60,1.0,0.0
2248,61.0,0,60,1.0,0.0
2249,73.0,0,60,0.0,0.0
2250,73.0,15,60,3.0,0.0
2251,64.0,0,60,0.0,0.0
2252,64.0,0,60,3.0,0.0
2253,73.0,0,60,1.0,0.0
2254,73.0,0,60,2.0,0.0
2255,64.0,75,60,2.0,0.0
2256,64.0,0,60,1.0,0.0
2257,76.0,15,60,3.0,0.0
2258,67.0,0,60,3.0,0.0
2259,67.0,0,60,0.0,0.0
2260,76.0,0,60,0.0,0.0
2261,67.0,75,60,1.0,0.0
2262,76.0,0,60,2.0,0.0
2263,67.0,0,60,2.0,0.0
2264,76.0,0,60,1.0,0.0
2265,64.0,0,60,3.0,0.0
2266,73.0,15,60,3.0,0.0
2267,64.0,0,60,0.0,0.0
2268,73.0,0,60,0.0,0.0
2269,73.0,0,60,2.0,0.0
2270,73.0,75,60,1.0,0.0
2271,64.0,0,60,1.0,0.0
2272,64.0,0,60,2.0,0.0
2273,70.0,15,60,3.0,0.0
2274,70.0,0,60,0.0,0.0
2275,61.0,0,60,3.0,0.0
2276,61.0,0,60,0.0,0.0
2277,70.0,75,60,1.0,0.0
2278,61.0,0,60,1.0,0.0
2279,70.0,0,60,2.0,0.0
2280,61.0,0,60,2.0,0.0
2281,73.0,0,60,3.0,0.0
2282,64.0,0,60,3.0,0.0
2283,64.0,0,60,0.0,0.0
2284,73.0,15,60,0.0,0.0
2285,64.0,0,60,1.0,0.0
2286,73.0,0,60,1.0,0.0
2287,64.0,75,60,2.0,0.0
2288,73.0,0,60,2.0,0.0
2289,70.0,0,60,3.0,0.0
2290,61.0,0,60,3.0,0.0
2291,61.0,0,60,0.0,0.0
2292,70.0,15,60,0.0,0.0
2293,61.0,0,60,2.0,0.0
2294,70.0,75,60,2.0,0.0
2295,70.0,0,60,1.0,0.0
2296,61.0,0,60,1.0,0.0
2297,73.0,0,60,3.0,0.0
2298,73.0,0,60,0.0,0.0
2299,64.0,0,60,0.0,0.0
2300,64.0,15,60,3.0,0.0
2301,64.0,0,60,1.0,0.0
2302,73.0,75,60,2.0,0.0
2303,64.0,0,60,2.0,0.0
2304,73.0,0,60,1.0,0.0
2305,76.0,15,60,0.0,0.0
2306,67.0,0,60,0.0,0.0
2307,76.0,0,60,3.0,0.0
2308,67.0,0,60,3.0,0.0
2309,76.0,75,60,2.0,0.0
2310,67.0,0,60,2.0,0.0
2311,76.0,0,60,1.0,0.0
2312,67.0,0,60,1.0,0.0
2313,73.0,0,60,3.0,0.0
2314,64.0,0,60,3.0,0.0
2315,73.0,0,60,0.0,0.0
2316,64.0,15,60,0.0,0.0
2317,73.0,75,60,1.0,0.0
2318,73.0,0,60,2.0,0.0
2319,64.0,0,60,2.0,0.0
2320,64.0,0,60,1.0,0.0
2321,61.0,0,60,0.0,0.0
2322,70.0,0,60,3.0,0.0
2323,61.0,0,60,3.0,0.0
2324,70.0,15,60,0.0,0.0
2325,70.0,75,60,1.0,0.0
2326,70.0,0,60,2.0,0.0
2327,61.0,0,60,2.0,0.0
2328,61.0,0,60,1.0,0.0
2329,73.0,0,60,3.0,0.0
2330,73.0,0,60,0.0,0.0
2331,64.0,0,60,0.0,0.0
2332,64.0,15,60,3.0,0.0
2333,73.0,75,60,1.0,0.0
2334,64.0,0,60,1.0,0.0
2335,73.0,0,60,2.0,0.0
2336,64.0,0,60,2.0,0.0
2337,61.0,0,60,0.0,0.0
2338,70.0,15,60,0.0,0.0
2339,61.0,0,60,3.0,0.0
2340,70.0,0,60,3.0,0.0
2341,70.0,0,60,2.0,0.0
2342,61.0,75,60,2.0,0.0
2343,61.0,0,60,1.0,0.0
2344,70.0,0,60,1.0,0.0
2345,64.0,0,60,3.0,0.0
2346,73.0,15,60,3.0,0.0
2347,73.0,0,60,0.0,0.0
2348,64.0,0,60,0.0,0.0
2349,64.0,0,60,1.0,0.0
2350,73.0,0,60,1.0,0.0
2351,73.0,0,60,2.0,0.0
2352,64.0,75,60,2.0,0.0
2353,76.0,15,60,0.0,0.0
2354,67.0,0,60,0.0,0.0
2355,67.0,0,60,3.0,0.0
2356,76.0,0,60,3.0,0.0
2357,76.0,0,60,2.0,0.0
2358,67.0,0,60,2.0,0.0
2359,76.0,0,60,1.0,0.0
2360,67.0,75,60,1.0,0.0
2361,64.0,0,60,3.0,0.0
2362,73.0,0,60,0.0,0.0
2363,73.0,15,60,3.0,0.0
2364,64.0,0,60,0.0,0.0
2365,64.0,0,60,2.0,0.0
2366,73.0,75,60,2.0,0.0
2367,73.0,0,60,1.0,0.0
2368,64.0,0,60,1.0,0.0
2369,61.0,0,60,0.0,0.0
2370,70.0,0,60,3.0,0.0
2371,70.0,15,60,0.0,0.0
2372,61.0,0,60,3.0,0.0
2373,61.0,0,60,2.0,0.0
2374,70.0,0,60,2.0,0.0
2375,70.0,0,60,1.0,0.0
2376,61.0,75,60,1.0,0.0
2377,64.0,0,60,3.0,0.0
2378,73.0,0,60,3.0,0.0
2379,73.0,15,60,0.0,0.0
2380,64.0,0,60,0.0,0.0
2381,64.0,0,60,1.0,0.0
2382,64.0,0,60,2.0,0.0
2383,73.0,0,60,2.0,0.0
2384,73.0,75,60,1.0,0.0
2385,61.0,0,60,0.0,0.0
2386,70.0,0,60,0.0,0.0
2387,61.0,0,60,3.0,0.0
2388,70.0,15,60,3.0,0.0
2389,61.0,75,60,2.0,0.0
2390,70.0,0,60,2.0,0.0
2391,70.0,0,60,1.0,0.0
2392,61.0,0,60,1.0,0.0
2393,67.0,15,60,0.0,0.0
2394,67.0,0,60,3.0,0.0
2395,58.0,0,60,3.0,0.0
2396,58.0,0,60,0.0,0.0
2397,58.0,0,60,2.0,0.0
2398,67.0,0,60,2.0,0.0
2399,58.0,75,60,1.0,0.0
2400,67.0,0,60,1.0,0.0
2401,70.0,0,60,3.0,0.0
2402,61.0,0,60,0.0,0.0
2403,70.0,0,60,0.0,0.0
2404,61.0,15,60,3.0,0.0
2405,61.0,0,60,1.0,0.0
2406,70.0,75,60,1.0,0.0
2407,70.0,0,60,2.0,0.0
2408,61.0,0,60,2.0,0.0
2409,67.0,0,60,0.0,0.0
2410,58.0,0,60,3.0,0.0
2411,67.0,0,60,3.0,0.0
2412,58.0,15,60,0.0,0.0
2413,58.0,75,60,2.0,0.0
2414,67.0,0,60,2.0,0.0
2415,58.0,0,60,1.0,0.0
2416,67.0,0,60,1.0,0.0
2417,64.0,15,60,0.0,0.0
2418,64.0,0,60,3.0,0.0
2419,55.0,0,60,3.0,0.0
2420,55.0,0,60,0.0,0.0
2421,64.0,0,60,2.0,0.0
2422,64.0,0,60,1.0,0.0
2423,55.0,0,60,2.0,0.0
2424,55.0,75,60,1.0,0.0
2425,67.0,15,60,3.0,0.0
2426,67.0,0,60,0.0,0.0
2427,58.0,0,60,3.0,0.0
2428,58.0,0,60,0.0,0.0
2429,58.0,75,60,2.0,0.0
2430,67.0,0,60,2.0,0.0
2431,58.0,0,60,1.0,0.0
2432,67.0,0,60,1.0,0.0
2433,55.0,0,60,0.0,0.0
2434,64.0,15,60,0.0,0.0
2435,55.0,0,60,3.0,0.0
2436,64.0,0,60,3.0,0.0
2437,64.0,0,60,2.0,0.0
2438,55.0,0,60,2.0,0.0
2439,64.0,0,60,1.0,0.0
2440,55.0,75,60,1.0,0.0
2441,58.0,15,60,0.0,0.0
2442,67.0,0,60,3.0,0.0
2443,58.0,0,60,3.0,0.0
2444,67.0,0,60,0.0,0.0
2445,67.0,0,60,1.0,0.0
2446,58.0,75,60,1.0,0.0
2447,58.0,0,60,2.0,0.0
2448,67.0,0,60,2.0,0.0
2449,70.0,0,60,3.0,0.0
2450,61.0,0,60,3.0,0.0
2451,61.0,15,60,0.0,0.0
2452,70.0,0,60,0.0,0.0
2453,70.0,0,60,1.0,0.0
2454,61.0,0,60,2.0,0.0
2455,70.0,75,60,2.0,0.0
2456,61.0,0,60,1.0,0.0
2457,67.0,0,60,3.0,0.0
2458,58.0,0,60,3.0,0.0
2459,67.0,15,60,0.0,0.0
2460,58.0,0,60,0.0,0.0
2461,58.0,75,60,2.0,0.0
2462,58.0,0,60,1.0,0.0
2463,67.0,0,60,2.0,0.0
2464,67.0,0,60,1.0,0.0
2465,64.0,0,60,3.0,0.0
2466,64.0,15,60,0.0,0.0
2467,55.0,0,60,0.0,0.0
2468,55.0,0,60,3.0,0.0
2469,64.0,0,60,2.0,0.0
2470,55.0,0,60,2.0,0.0
2471,64.0,75,60,1.0,0.0
2472,55.0,0,60,1.0,0.0
2473,58.0,15,60,0.0,0.0
2474,67.0,0,60,0.0,0.0
2475,58.0,0,60,3.0,0.0
2476,67.0,0,60,3.0,0.0
2477,67.0,0,60,2.0,0.0
2478,58.0,0,60,2.0,0.0
2479,67.0,0,60,1.0,0.0
2480,58.0,75,60,1.0,0.0
2481,55.0,0,60,3.0,0.0
2482,64.0,15,60,3.0,0.0
2483,64.0,0,60,0.0,0.0
2484,55.0,0,60,0.0,0.0
2485,64.0,0,60,1.0,0.0
2486,55.0,75,60,1.0,0.0
2487,55.0,0,60,2.0,0.0
2488,64.0,0,60,2.0,0.0
2489,67.0,0,60,0.0,0.0
2490,58.0,15,60,0.0,0.0
2491,67.0,0,60,3.0,0.0
2492,58.0,0,60,3.0,0.0
2493,67.0,0,60,2.0,0.0
2494,58.0,0,60,2.0,0.0
2495,58.0,75,60,1.0,0.0
2496,67.0,0,60,1.0,0.0
2497,70.0,0,60,0.0,0.0
2498,61.0,0,60,0.0,0.0
2499,61.0,0,60,3.0,0.0
2500,70.0,15,60,3.0,0.0
2501,61.0,75,60,1.0,0.0
2502,61.0,0,60,2.0,0.0
2503,70.0,0,60,2.0,0.0
2504,70.0,0,60,1.0,0.0
2505,58.0,0,60,0.0,0.0
2506,67.0,0,60,0.0,0.0
2507,67.0,0,60,3.0,0.0
2508,58.0,15,60,3.0,0.0
2509,58.0,0,60,2.0,0.0
2510,58.0,0,60,1.0,0.0
2511,67.0,75,60,1.0,0.0
2512,67.0,0,60,2.0,0.0
2513,64.0,0,60,3.0,0.0
2514,55.0,15,60,3.0,0.0
2515,55.0,0,60,0.0,0.0
2516,64.0,0,60,0.0,0.0
2517,64.0,0,60,2.0,0.0
2518,55.0,75,60,2.0,0.0
2519,55.0,0,60,1.0,0.0
2520,64.0,0,60,1.0,0.0
2521,67.0,0,60,0.0,0.0
2522,67.0,15,60,3.0,0.0
2523,58.0,0,60,3.0,0.0
2524,58.0,0,60,0.0,0.0
2525,67.0,75,60,1.0,0.0
2526,58.0,0,60,2.0,0.0
2527,67.0,0,60,2.0,0.0
2528,58.0,0,60,1.0,0.0
2529,64.0,0,60,0.0,0.0
2530,55.0,0,60,0.0,0.0
2531,55.0,15,60,3.0,0.0
2532,64.0,0,60,3.0,0.0
2533,55.0,75,60,1.0,0.0
2534,64.0,0,60,1.0,0.0
2535,55.0,0,60,2.0,0.0
2536,64.0,0,60,2.0,0.0
2537,67.0,0,60,0.0,0.0
2538,58.0,0,60,3.0,0.0
2539,67.0,0,60,3.0,0.0
2540,58.0,15,60,0.0,0.0
2541,58.0,0,60,2.0,0.0
2542,67.0,0,60,2.0,0.0
2543,58.0,75,60,1.0,0.0
2544,67.0,0,60,1.0,0.0
2545,70.0,0,60,3.0,0.0
2546,61.0,0,60,3.0,0.0
2547,61.0,0,60,0.0,0.0
2548,70.0,15,60,0.0,0.0
2549,70.0,0,60,1.0,0.0
2550,70.0,0,60,2.0,0.0
2551,61.0,75,60,2.0,0.0
2552,61.0,0,60,1.0,0.0
2553,67.0,0,60,0.0,0.0
2554,58.0,0,60,3.0,0.0
2555,58.0,15,60,0.0,0.0
2556,67.0,0,60,3.0,0.0
2557,67.0,0,60,2.0,0.0
2558,58.0,0,60,2.0,0.0
2559,58.0,75,60,1.0,0.0
2560,67.0,0,60,1.0,0.0
2561,64.0,0,60,0.0,0.0
2562,55.0,15,60,0.0,0.0
2563,64.0,0,60,3.0,0.0
2564,55.0,0,60,3.0,0.0
2565,64.0,75,60,1.0,0.0
2566,55.0,0,60,2.0,0.0
2567,64.0,0,60,2.0,0.0
2568,55.0,0,60,1.0,0.0
2569,67.0,15,60,0.0,0.0
2570,58.0,0,60,0.0,0.0
2571,67.0,0,60,3.0,0.0
2572,58.0,0,60,3.0,0.0
2573,58.0,0,60,2.0,0.0
2574,67.0,75,60,2.0,0.0
2575,58.0,0,60,1.0,0.0
2576,67.0,0,60,1.0,0.0
2577,55.0,0,60,0.0,0.0
2578,55.0,0,60,3.0,0.0
2579,64.0,0,60,3.0,0.0
2580,64.0,15,60,0.0,0.0
2581,55.0,0,60,2.0,0.0
2582,64.0,0,60,2.0,0.0
2583,55.0,0,60,1.0,0.0
2584,64.0,75,60,1.0,0.0
2585,52.0,0,60,0.0,0.0
2586,61.0,15,60,0.0,0.0
2587,61.0,0,60,3.0,0.0
2588,52.0,0,60,3.0,0.0
2589,52.0,0,60,2.0,0.0
2590,61.0,0,60,2.0,0.0
2591,52.0,75,60,1.0,0.0
2592,61.0,0,60,1.0,0.0
2593,64.0,0,60,3.0,0.0
2594,55.0,0,60,3.0,0.0
2595,55.0,0,60,0.0,0.0
2596,64.0,15,60,0.0,0.0
2597,55.0,75,60,2.0,0.0
2598,64.0,0,60,2.0,0.0
2599,64.0,0,60,1.0,0.0
2600,55.0,0,60,1.0,0.0
2601,61.0,0,60,3.0,0.0
2602,52.0,15,60,3.0,0.0
2603,52.0,0,60,0.0,0.0
2604,61.0,0,60,0.0,0.0
2605,52.0,75,60,1.0,0.0
2606,61.0,0,60,2.0,0.0
2607,52.0,0,60,2.0,0.0
2608,61.0,0,60,1.0,0.0
2609,49.0,0,60,0.0,0.0
2610,58.0,15,60,0.0,0.0
2611,58.0,0,60,3.0,0.0
2612,49.0,0,60,3.0,0.0
2613,49.0,0,60,1.0,0.0
2614,58.0,0,60,1.0,0.0
2615,49.0,75,60,2.0,0.0
2616,58.0,0,60,2.0,0.0
2617,52.0,0,60,0.0,0.0
2618,61.0,0,60,0.0,0.0
2619,52.0,0,60,3.0,0.0
2620,61.0,15,60,3.0,0.0
2621,61.0,0,60,2.0,0.0
2622,52.0,0,60,2.0,0.0
2623,61.0,0,60,1.0,0.0
2624,52.0,75,60,1.0,0.0
2625,58.0,0,60,0.0,0.0
2626,49.0,0,60,3.0,0.0
2627,58.0,15,60,3.0,0.0
2628,49.0,0,60,0.0,0.0
2629,58.0,0,60,1.0,0.0
2630,49.0,0,60,1.0,0.0
2631,49.0,75,60,2.0,0.0
2632,58.0,0,60,2.0,0.0
2633,52.0,15,60,0.0,0.0
2634,61.0,0,60,0.0,0.0
2635,52.0,0,60,3.0,0.0
2636,61.0,0,60,3.0,0.0
2637,61.0,0,60,2.0,0.0
2638,52.0,0,60,2.0,0.0
2639,61.0,75,60,1.0,0.0
2640,52.0,0,60,1.0,0.0
2641,64.0,0,60,0.0,0.0
2642,64.0,0,60,3.0,0.0
2643,55.0,0,60,0.0,0.0
2644,55.0,15,60,3.0,0.0
2645,64.0,75,60,1.0,0.0
2646,64.0,0,60,2.0,0.0
2647,55.0,0,60,2.0,0.0
2648,55.0,0,60,1.0,0.0
2649,52.0,0,60,3.0,0.0
2650,52.0,0,60,0.0,0.0
2651,61.0,0,60,0.0,0.0
2652,61.0,15,60,3.0,0.0
2653,52.0,75,60,2.0,0.0
2654,61.0,0,60,2.0,0.0
2655,52.0,0,60,1.0,0.0
2656,61.0,0,60,1.0,0.0
2657,49.0,15,60,0.0,0.0
2658,49.0,0,60,3.0,0.0
2659,58.0,0,60,0.0,0.0
2660,58.0,0,60,3.0,0.0
2661,58.0,75,60,2.0,0.0
2662,49.0,0,60,1.0,0.0
2663,58.0,0,60,1.0,0.0
2664,49.0,0,60,2.0,0.0
2665,61.0,0,60,3.0,0.0
2666,52.0,15,60,3.0,0.0
2667,61.0,0,60,0.0,0.0
2668,52.0,0,60,0.0,0.0
2669,52.0,75,60,1.0,0.0
2670,61.0,0,60,1.0,0.0
2671,61.0,0,60,2.0,0.0
2672,52.0,0,60,2.0,0.0
2673,49.0,0,60,0.0,0.0
2674,49.0,15,60,3.0,0.0
2675,58.0,0,60,0.0,0.0
2676,58.0,0,60,3.0,0.0
2677,49.0,0,60,2.0,0.0
2678,58.0,0,60,2.0,0.0
2679,49.0,0,60,1.0,0.0
2680,58.0,75,60,1.0,0.0
2681,52.0,0,60,3.0,0.0
2682,61.0,15,60,3.0,0.0
2683,61.0,0,60,0.0,0.0
2684,52.0,0,60,0.0,0.0
2685,52.0,75,60,1.0,0.0
2686,61.0,0,60,1.0,0.0
2687,61.0,0,60,2.0,0.0
2688,52.0,0,60,2.0,0.0
2689,55.0,0,60,3.0,0.0
2690,55.0,0,60,0.0,0.0
2691,64.0,15,60,0.0,0.0
2692,64.0,0,60,3.0,0.0
2693,64.0,0,60,2.0,0.0
2694,64.0,0,60,1.0,0.0
2695,55.0,0,60,2.0,0.0
2696,55.0,75,60,1.0,0.0
2697,61.0,15,60,3.0,0.0
2698,52.0,0,60,3.0,0.0
2699,52.0,0,60,0.0,0.0
2700,61.0,0,60,0.0,0.0
2701,61.0,0,60,1.0,0.0
2702,61.0,75,60,2.0,0.0
2703,52.0,0,60,2.0,0.0
2704,52.0,0,60,1.0,0.0
2705,49.0,0,60,0.0,0.0
2706,58.0,0,60,0.0,0.0
2707,49.0,0,60,3.0,0.0
2708,58.0,15,60,3.0,0.0
2709,49.0,0,60,2.0,0.0
2710,58.0,0,60,1.0,0.0
2711,49.0,0,60,1.0,0.0
2712,58.0,75,60,2.0,0.0
2713,52.0,15,60,3.0,0.0
2714,61.0,0,60,3.0,0.0
2715,61.0,0,60,0.0,0.0
2716,52.0,0,60,0.0,0.0
2717,52.0,0,60,1.0,0.0
2718,61.0,75,60,1.0,0.0
2719,61.0,0,60,2.0,0.0
2720,52.0,0,60,2.0,0.0
2721,49.0,0,60,3.0,0.0
2722,58.0,0,60,3.0,0.0
2723,58.0,0,60,0.0,0.0
2724,49.0,15,60,0.0,0.0
2725,49.0,0,60,1.0,0.0
2726,58.0,0,60,1.0,0.0
2727,49.0,0,60,2.0,0.0
2728,58.0,75,60,2.0,0.0
2729,52.0,0,60,3.0,0.0
2730,52.0,0,60,0.0,0.0
2731,61.0,0,60,3.0,0.0
2732,61.0,15,60,0.0,0.0
2733,61.0,75,60,1.0,0.0
2734,52.0,0,60,1.0,0.0
2735,52.0,0,60,2.0,0.0
2736,61.0,0,60,2.0,0.0
2737,55.0,0,60,3.0,0.0
2738,64.0,15,60,3.0,0.0
2739,55.0,0,60,0.0,0.0
2740,64.0,0,60,0.0,0.0
2741,64.0,75,60,2.0,0.0
2742,55.0,0,60,2.0,0.0
2743,64.0,0,60,1.0,0.0
2744,55.0,0,60,1.0,0.0
2745,52.0,0,60,3.0,0.0
2746,61.0,15,60,3.0,0.0
2747,61.0,0,60,0.0,0.0
2748,52.0,0,60,0.0,0.0
2749,52.0,75,60,2.0,0.0
2750,61.0,0,60,2.0,0.0
2751,61.0,0,60,1.0,0.0
2752,52.0,0,60,1.0,0.0
2753,49.0,0,60,0.0,0.0
2754,58.0,0,60,0.0,0.0
2755,58.0,15,60,3.0,0.0
2756,49.0,0,60,3.0,0.0
2757,49.0,0,60,1.0,0.0
2758,58.0,75,60,1.0,0.0
2759,49.0,0,60,2.0,0.0
2760,58.0,0,60,2.0,0.0
2761,61.0,0,60,3.0,0.0
2762,52.0,15,60,3.0,0.0
2763,61.0,0,60,0.0,0.0
2764,52.0,0,60,0.0,0.0
2765,61.0,0,60,2.0,0.0
2766,52.0,75,60,2.0,0.0
2767,52.0,0,60,1.0,0.0
2768,61.0,0,60,1.0,0.0
2769,49.0,15,60,0.0,0.0
2770,58.0,0,60,0.0,0.0
2771,49.0,0,60,3.0,0.0
2772,58.0,0,60,3.0,0.0
2773,58.0,0,60,1.0,0.0
2774,49.0,0,60,1.0,0.0
2775,49.0,0,60,2.0,0.0
2776,58.0,75,60,2.0,0.0
2777,52.0,0,60,0.0,0.0
2778,52.0,15,60,3.0,0.0
2779,61.0,0,60,3.0,0.0
2780,61.0,0,60,0.0,0.0
2781,52.0,0,60,2.0,0.0
2782,61.0,75,60,1.0,0.0
2783,52.0,0,60,1.0,0.0
2784,61.0,0,60,2.0,0.0
2785,55.0,0,60,3.0,0.0
2786,64.0,0,60,3.0,0.0
2787,55.0,0,60,0.0,0.0
2788,64.0,15,60,0.0,0.0
2789,64.0,0,60,1.0,0.0
2790,55.0,75,60,2.0,0.0
2791,55.0,0,60,1.0,0.0
2792,64.0,0,60,2.0,0.0
2793,61.0,15,60,0.0,0.0
2794,52.0,0,60,0.0,0.0
2795,52.0,0,60,3.0,0.0
2796,61.0,0,60,3.0,0.0
2797,61.0,75,60,2.0,0.0
2798,52.0,0,60,2.0,0.0
2799,52.0,0,60,1.0,0.0
2800,61.0,0,60,1.0,0.0
2801,55.0,15,60,3.0,0.0
2802,64.0,0,60,3.0,0.0
2803,64.0,0,60,0.0,0.0
2804,55.0,0,60,0.0,0.0
2805,64.0,0,60,2.0,0.0
2806,55.0,75,60,2.0,0.0
2807,55.0,0,60,1.0,0.0
2808,64.0,0,60,1.0,0.0
2809,67.0,15,60,3.0,0.0
2810,67.0,0,60,0.0,0.0
2811,67.0,0,60,1.0,0.0
2812,67.0,75,60,2.0,0.0
2813,64.0,0,60,3.0,0.0
2814,55.0,0,60,3.0,0.0
2815,64.0,15,60,0.0,0.0
2816,55.0,0,60,0.0,0.0
2817,55.0,75,60,2.0,0.0
2818,55.0,0,60,1.0,0.0
2819,64.0,0,60,1.0,0.0
2820,64.0,0,60,2.0,0.0
2821,61.0,15,60,3.0,0.0
2822,61.0,0,60,0.0,0.0
2823,52.0,0,60,0.0,0.0
2824,52.0,0,60,3.0,0.0
2825,61.0,75,60,2.0,0.0
2826,52.0,0,60,1.0,0.0
2827,61.0,0,60,1.0,0.0
2828,52.0,0,60,2.0,0.0
2829,55.0,0,60,0.0,0.0
2830,64.0,0,60,0.0,0.0
2831,55.0,15,60,3.0,0.0
2832,64.0,0,60,3.0,0.0
2833,64.0,0,60,1.0,0.0
2834,55.0,0,60,2.0,0.0
2835,64.0,75,60,2.0,0.0
2836,55.0,0,60,1.0,0.0
2837,52.0,0,60,0.0,0.0
2838,61.0,0,60,0.0,0.0
2839,52.0,15,60,3.0,0.0
2840,61.0,0,60,3.0,0.0
2841,61.0,0,60,2.0,0.0
2842,52.0,75,60,2.0,0.0
2843,61.0,0,60,1.0,0.0
2844,52.0,0,60,1.0,0.0
2845,64.0,0,60,3.0,0.0
2846,55.0,0,60,3.0,0.0
2847,55.0,15,60,0.0,0.0
2848,64.0,0,60,0.0,0.0
2849,55.0,0,60,2.0,0.0
2850,64.0,0,60,2.0,0.0
2851,64.0,0,60,1.0,0.0
2852,55.0,75,60,1.0,0.0
2853,58.0,15,60,0.0,0.0
2854,67.0,0,60,0.0,0.0
2855,58.0,0,60,3.0,0.0
2856,67.0,0,60,3.0,0.0
2857,58.0,75,60,2.0,0.0
2858,67.0,0,60,2.0,0.0
2859,67.0,0,60,1.0,0.0
2860,58.0,0,60,1.0,0.0
2861,55.0,0,60,0.0,0.0
2862,64.0,0,60,0.0,0.0
2863,55.0,0,60,3.0,0.0
2864,64.0,15,60,3.0,0.0
2865,64.0,75,60,1.0,0.0
2866,64.0,0,60,2.0,0.0
2867,55.0,0,60,2.0,0.0
2868,55.0,0,60,1.0,0.0
2869,52.0,0,60,0.0,0.0
2870,61.0,0,60,0.0,0.0
2871,52.0,15,60,3.0,0.0
2872,61.0,0,60,3.0,0.0
2873,52.0,75,60,2.0,0.0
2874,61.0,0,60,2.0,0.0
2875,61.0,0,60,1.0,0.0
2876,52.0,0,60,1.0,0.0
2877,64.0,0,60,3.0,0.0
2878,55.0,0,60,3.0,0.0
2879,64.0,0,60,0.0,0.0
2880,55.0,15,60,0.0,0.0
2881,64.0,0,60,1.0,0.0
2882,55.0,0,60,1.0,0.0
2883,64.0,75,60,2.0,0.0
2884,55.0,0,60,2.0,0.0
2885,61.0,0,60,0.0,0.0
2886,52.0,0,60,0.0,0.0
2887,52.0,15,60,3.0,0.0
2888,61.0,0,60,3.0,0.0
2889,61.0,0,60,1.0,0.0
2890,52.0,0,60,2.0,0.0
2891,61.0,0,60,2.0,0.0
2892,52.0,75,60,1.0,0.0
2893,55.0,15,60,3.0,0.0
2894,64.0,0,60,0.0,0.0
2895,55.0,0,60,0.0,0.0
2896,64.0,0,60,3.0,0.0
2897,55.0,0,60,2.0,0.0
2898,55.0,0,60,1.0,0.0
2899,64.0,75,60,2.0,0.0
2900,64.0,0,60,1.0,0.0
2901,58.0,0,60,3.0,0.0
2902,67.0,0,60,0.0,0.0
2903,58.0,0,60,0.0,0.0
2904,67.0,15,60,3.0,0.0
2905,58.0,0,60,2.0,0.0
2906,67.0,0,60,1.0,0.0
2907,58.0,75,60,1.0,0.0
2908,67.0,0,60,2.0,0.0
2909,55.0,0,60,0.0,0.0
2910,64.0,0,60,0.0,0.0
2911,55.0,15,60,3.0,0.0
2912,64.0,0,60,3.0,0.0
2913,55.0,0,60,2.0,0.0
2914,64.0,0,60,2.0,0.0
2915,64.0,0,60,1.0,0.0
2916,55.0,75,60,1.0,0.0
2917,52.0,0,60,3.0,0.0
2918,61.0,0,60,3.0,0.0
2919,52.0,15,60,0.0,0.0
2920,61.0,0,60,0.0,0.0
2921,61.0,0,60,2.0,0.0
2922,52.0,75,60,2.0,0.0
2923,52.0,0,60,1.0,0.0
2924,61.0,0,60,1.0,0.0
2925,64.0,0,60,0.0,0.0
2926,55.0,0,60,0.0,0.0
2927,64.0,15,60,3.0,0.0
2928,55.0,0,60,3.0,0.0
2929,64.0,0,60,1.0,0.0
2930,64.0,0,60,2.0,0.0
2931,55.0,0,60,2.0,0.0
2932,55.0,75,60,1.0,0.0
2933,61.0,0,60,3.0,0.0
2934,52.0,0,60,3.0,0.0
2935,52.0,0,60,0.0,0.0
2936,61.0,15,60,0.0,0.0
2937,61.0,0,60,1.0,0.0
2938,52.0,0,60,2.0,0.0
2939,61.0,75,60,2.0,0.0
2940,52.0,0,60,1.0,0.0
2941,55.0,0,60,0.0,0.0
2942,64.0,0,60,3.0,0.0
2943,55.0,0,60,3.0,0.0
2944,64.0,15,60,0.0,0.0
2945,64.0,0,60,2.0,0.0
2946,55.0,0,60,2.0,0.0
2947,55.0,75,60,1.0,0.0
2948,64.0,0,60,1.0,0.0
2949,67.0,0,60,0.0,0.0
2950,58.0,0,60,3.0,0.0
2951,67.0,15,60,3.0,0.0
2952,58.0,0,60,0.0,0.0
2953,67.0,0,60,2.0,0.0
2954,67.0,0,60,1.0,0.0
2955,58.0,0,60,1.0,0.0
2956,58.0,75,60,2.0,0.0
2957,55.0,15,60,0.0,0.0
2958,64.0,0,60,0.0,0.0
2959,64.0,0,60,3.0,0.0
2960,55.0,0,60,3.0,0.0
2961,55.0,0,60,1.0,0.0
2962,64.0,0,60,1.0,0.0
2963,55.0,0,60,2.0,0.0
2964,64.0,75,60,2.0,0.0
2965,58.0,0,60,0.0,0.0
2966,67.0,15,60,0.0,0.0
2967,67.0,0,60,3.0,0.0
2968,58.0,0,60,3.0,0.0
2969,58.0,0,60,2.0,0.0
2970,58.0,0,60,1.0,0.0
2971,67.0,75,60,1.0,0.0
2972,67.0,0,60,2.0,0.0
2973,70.0,0,60,3.0,0.0
2974,61.0,0,60,3.0,0.0
2975,61.0,0,60,0.0,0.0
2976,70.0,15,60,0.0,0.0
2977,61.0,75,60,1.0,0.0
2978,70.0,0,60,2.0,0.0
2979,61.0,0,60,2.0,0.0
2980,70.0,0,60,1.0,0.0
2981,58.0,0,60,0.0,0.0
2982,67.0,0,60,0.0,0.0
2983,67.0,15,60,3.0,0.0
2984,58.0,0,60,3.0,0.0
2985,58.0,75,60,2.0,0.0
2986,58.0,0,60,1.0,0.0
2987,67.0,0,60,2.0,0.0
2988,67.0,0,60,1.0,0.0
2989,61.0,0,60,3.0,0.0
2990,70.0,0,60,0.0,0.0
2991,61.0,0,60,0.0,0.0
2992,70.0,15,60,3.0,0.0
2993,70.0,0,60,2.0,0.0
2994,70.0,0,60,1.0,0.0
2995,61.0,0,60,1.0,0.0
2996,61.0,75,60,2.0,0.0
2997,58.0,0,60,3.0,0.0
2998,67.0,15,60,3.0,0.0
2999,67.0,0,60,0.0,0.0
3000,58.0,0,60,0.0,0.0
3001,58.0,75,60,1.0,0.0
3002,67.0,0,60,2.0,0.0
3003,58.0,0,60,2.0,0.0
3004,67.0,0,60,1.0,0.0
3005,70.0,15,60,3.0,0.0
3006,61.0,0,60,3.0,0.0
3007,70.0,0,60,0.0,0.0
3008,61.0,0,60,0.0,0.0
3009,70.0,75,60,2.0,0.0
3010,70.0,0,60,1.0,0.0
3011,61.0,0,60,1.0,0.0
3012,61.0,0,60,2.0,0.0
3013,67.0,0,60,0.0,0.0
3014,58.0,0,60,0.0,0.0
3015,58.0,0,60,3.0,0.0
3016,67.0,15,60,3.0,0.0
3017,67.0,0,60,1.0,0.0
3018,67.0,0,60,2.0,0.0
3019,58.0,0,60,2.0,0.0
3020,58.0,75,60,1.0,0.0
3021,61.0,0,60,3.0,0.0
3022,70.0,15,60,3.0,0.0
3023,70.0,0,60,0.0,0.0
3024,61.0,0,60,0.0,0.0
3025,61.0,0,60,1.0,0.0
3026,61.0,0,60,2.0,0.0
3027,70.0,75,60,2.0,0.0
3028,70.0,0,60,1.0,0.0
3029,67.0,15,60,0.0,0.0
3030,58.0,0,60,0.0,0.0
3031,58.0,0,60,3.0,0.0
3032,67.0,0,60,3.0,0.0
3033,67.0,0,60,2.0,0.0
3034,67.0,0,60,1.0,0.0
3035,58.0,0,60,1.0,0.0
3036,58.0,75,60,2.0,0.0
3037,61.0,0,60,3.0,0.0
3038,70.0,15,60,3.0,0.0
3039,70.0,0,60,0.0,0.0
3040,61.0,0,60,0.0,0.0
3041,70.0,0,60,1.0,0.0
3042,61.0,0,60,1.0,0.0
3043,70.0,75,60,2.0,0.0
3044,61.0,0,60,2.0,0.0
3045,67.0,0,60,3.0,0.0
3046,58.0,15,60,3.0,0.0
3047,67.0,0,60,0.0,0.0
3048,58.0,0,60,0.0,0.0
3049,67.0,0,60,2.0,0.0
3050,67.0,75,60,1.0,0.0
3051,58.0,0,60,1.0,0.0
3052,58.0,0,60,2.0,0.0
3053,70.0,0,60,0.0,0.0
3054,61.0,0,60,0.0,0.0
3055,70.0,15,60,3.0,0.0
3056,61.0,0,60,3.0,0.0
3057,70.0,0,60,1.0,0.0
3058,61.0,0,60,1.0,0.0
3059,70.0,0,60,2.0,0.0
3060,61.0,75,60,2.0,0.0
3061,73.0,0,60,3.0,0.0
3062,73.0,0,60,0.0,0.0
3063,64.0,15,60,0.0,0.0
3064,64.0,0,60,3.0,0.0
3065,73.0,0,60,1.0,0.0
3066,64.0,0,60,2.0,0.0
3067,64.0,75,60,1.0,0.0
3068,73.0,0,60,2.0,0.0
3069,70.0,0,60,3.0,0.0
3070,70.0,15,60,0.0,0.0
3071,61.0,0,60,0.0,0.0
3072,61.0,0,60,3.0,0.0
3073,61.0,0,60,1.0,0.0
3074,70.0,0,60,2.0,0.0
3075,61.0,75,60,2.0,0.0
3076,70.0,0,60,1.0,0.0
3077,64.0,0,60,3.0,0.0
3078,73.0,15,60,3.0,0.0
3079,64.0,0,60,0.0,0.0
3080,73.0,0,60,0.0,0.0
3081,64.0,0,60,2.0,0.0
3082,73.0,75,60,2.0,0.0
3083,73.0,0,60,1.0,0.0
3084,64.0,0,60,1.0,0.0
3085,67.0,0,60,0.0,0.0
3086,76.0,0,60,0.0,0.0
3087,76.0,0,60,3.0,0.0
3088,67.0,15,60,3.0,0.0
3089,67.0,0,60,1.0,0.0
3090,76.0,0,60,2.0,0.0
3091,76.0,75,60,1.0,0.0
3092,67.0,0,60,2.0,0.0
3093,73.0,0,60,0.0,0.0
3094,73.0,0,60,3.0,0.0
3095,64.0,0,60,3.0,0.0
3096,64.0,15,60,0.0,0.0
3097,64.0,0,60,2.0,0.0
3098,73.0,0,60,2.0,0.0
3099,64.0,75,60,1.0,0.0
3100,73.0,0,60,1.0,0.0
3101,67.0,0,60,3.0,0.0
3102,67.0,15,60,0.0,0.0
3103,76.0,0,60,3.0,0.0
3104,76.0,0,60,0.0,0.0
3105,76.0,0,60,1.0,0.0
3106,67.0,0,60,2.0,0.0
3107,76.0,0,60,2.0,0.0
3108,67.0,75,60,1.0,0.0
3109,73.0,0,60,0.0,0.0
3110,64.0,15,60,3.0,0.0
3111,64.0,0,60,0.0,0.0
3112,73.0,0,60,3.0,0.0
3113,64.0,75,60,2.0,0.0
3114,73.0,0,60,2.0,0.0
3115,64.0,0,60,1.0,0.0
3116,73.0,0,60,1.0,0.0
3117,67.0,15,60,3.0,0.0
3118,67.0,0,60,0.0,0.0
3119,76.0,0,60,0.0,0.0
3120,76.0,0,60,3.0,0.0
3121,76.0,75,60,2.0,0.0
3122,76.0,0,60,1.0,0.0
3123,67.0,0,60,1.0,0.0
3124,67.0,0,60,2.0,0.0
3125,64.0,15,60,0.0,0.0
3126,64.0,0,60,3.0,0.0
3127,73.0,0,60,3.0,0.0
3128,73.0,0,60,0.0,0.0
3129,73.0,0,60,1.0,0.0
3130,64.0,75,60,2.0,0.0
3131,73.0,0,60,2.0,0.0
3132,64.0,0,60,1.0,0.0
3133,67.0,0,60,0.0,0.0
3134,76.0,15,60,0.0,0.0
3135,76.0,0,60,3.0,0.0
3136,67.0,0,60,3.0,0.0
3137,67.0,0,60,1.0,0.0
3138,76.0,0,60,1.0,0.0
3139,76.0,0,60,2.0,0.0
3140,67.0,75,60,2.0,0.0
3141,64.0,15,60,0.0,0.0
3142,73.0,0,60,0.0,0.0
3143,73.0,0,60,3.0,0.0
3144,64.0,0,60,3.0,0.0
3145,64.0,60,60,1.0,0.0
3146,64.0,0,60,2.0,0.0
3147,73.0,0,60,2.0,0.0
3148,73.0,0,60,1.0,0.0
3149,76.0,15,60,0.0,0.0
3150,67.0,0,60,0.0,0.0
3151,67.0,0,60,3.0,0.0
3152,76.0,0,60,3.0,0.0
3153,76.0,0,60,1.0,0.0
3154,67.0,705,60,1.0,0.0
3155,67.0,0,60,2.0,0.0
3156,76.0,15,60,2.0,0.0
3157,55.0,0,720,3.0,0.0
3158,76.0,15,720,3.0,0.0
3159,81.0,0,720,0.0,0.0
3160,73.0,0,720,0.0,0.0
3161,69.0,0,720,0.0,0.0
3162,64.0,0,720,0.0,0.0
3163,61.0,0,720,0.0,0.0
3164,57.0,0,720,0.0,0.0
3165,55.0,0,720,0.0,0.0
3166,81.0,0,720,3.0,0.0
3167,76.0,0,720,0.0,0.0
3168,76.0,0,720,1.0,0.0
3169,81.0,0,720,1.0,0.0
3170,64.0,0,720,1.0,0.0
3171,61.0,0,720,1.0,0.0
3172,57.0,0,720,1.0,0.0
3173,55.0,0,720,1.0,0.0
3174,81.0,0,720,2.0,0.0
3175,76.0,0,720,2.0,0.0
3176,69.0,0,720,1.0,0.0
3177,69.0,0,720,2.0,0.0
3178,61.0,0,720,2.0,0.0
3179,73.0,0,720,2.0,0.0
3180,57.0,690,720,2.0,0.0
3181,55.0,0,720,2.0,0.0
3182,73.0,0,720,1.0,0.0
3183,64.0,0,720,2.0,0.0
3184,81.0,0,720,3.0,0.0
3185,77.0,0,720,3.0,0.0
3186,53.0,0,720,3.0,0.0
3187,81.0,0,720,0.0,0.0
3188,65.0,0,720,0.0,0.0
3189,69.0,0,720,0.0,0.0
3190,77.0,0,720,0.0,0.0
3191,62.0,15,690,0.0,0.0
3192,53.0,0,720,0.0,0.0
3193,57.0,0,720,0.0,0.0
3194,74.0,0,690,0.0,0.0
3195,69.0,0,720,1.0,0.0
3196,77.0,0,720,1.0,0.0
3197,57.0,0,720,1.0,0.0
3198,53.0,705,720,1.0,0.0
3199,74.0,0,690,1.0,0.0
3200,81.0,0,720,1.0,0.0
3201,65.0,0,720,1.0,0.0
3202,62.0,0,690,1.0,0.0
3203,62.0,15,690,2.0,0.0
3204,57.0,0,720,2.0,0.0
3205,81.0,0,720,2.0,0.0
3206,77.0,0,720,2.0,0.0
3207,69.0,0,720,2.0,0.0
3208,65.0,0,720,2.0,0.0
3209,53.0,0,720,2.0,0.0
3210,74.0,0,690,2.0,0.0
3211,79.0,15,720,0.0,0.0
3212,74.0,0,720,0.0,0.0
3213,70.0,0,720,0.0,0.0
3214,58.0,15,960,3.0,0.0
3215,62.0,0,720,0.0,0.0
3216,58.0,0,960,0.0,0.0
3217,79.0,0,720,3.0,0.0
3218,67.0,0,720,0.0,0.0
3219,74.0,0,720,3.0,0.0
3220,74.0,0,720,1.0,0.0
3221,79.0,0,720,2.0,0.0
3222,74.0,0,720,2.0,0.0
3223,70.0,0,720,2.0,0.0
3224,67.0,0,720,2.0,0.0
3225,62.0,0,720,2.0,0.0
3226,58.0,105,960,2.0,0.0
3227,58.0,0,960,1.0,0.0
3228,62.0,0,720,1.0,0.0
3229,67.0,225,720,1.0,0.0
3230,70.0,0,720,1.0,0.0
3231,79.0,0,720,1.0,0.0
3232,57.0,15,120,0.0,0.0
3233,57.0,0,120,3.0,0.0
3234,57.0,105,120,1.0,0.0
3235,57.0,0,120,2.0,0.0
3236,55.0,0,120,3.0,0.0
3237,55.0,15,120,0.0,0.0
3238,55.0,0,120,2.0,0.0
3239,55.0,105,120,1.0,0.0
3240,79.0,0,240,3.0,0.0
3241,69.0,0,240,0.0,0.0
3242,76.0,0,240,3.0,0.0
3243,57.0,15,120,0.0,0.0
3244,61.0,0,240,0.0,0.0
3245,64.0,0,240,0.0,0.0
3246,73.0,0,240,0.0,0.0
3247,57.0,0,120,3.0,0.0
3248,61.0,0,240,3.0,0.0
3249,76.0,0,240,0.0,0.0
3250,79.0,15,240,0.0,0.0
3251,69.0,0,240,1.0,0.0
3252,64.0,0,240,1.0,0.0
3253,61.0,0,240,1.0,0.0
3254,57.0,105,120,1.0,0.0
3255,73.0,0,240,1.0,0.0
3256,79.0,0,240,1.0,0.0
3257,57.0,0,120,2.0,0.0
3258,64.0,0,240,2.0,0.0
3259,69.0,0,240,2.0,0.0
3260,73.0,0,240,2.0,0.0
3261,76.0,0,240,2.0,0.0
3262,79.0,75,240,2.0,0.0
3263,76.0,0,240,1.0,0.0
3264,61.0,0,240,2.0,0.0
3265,52.0,0,120,0.0,0.0
3266,52.0,0,120,3.0,0.0
3267,52.0,0,120,1.0,0.0
3268,52.0,0,120,2.0,0.0
3269,53.0,15,60,0.0,0.0
3270,53.0,0,60,3.0,0.0
3271,53.0,0,60,2.0,0.0
3272,53.0,75,60,1.0,0.0
3273,50.0,0,60,3.0,0.0
3274,50.0,15,60,0.0,0.0
3275,50.0,75,60,1.0,0.0
3276,50.0,0,60,2.0,0.0
3277,52.0,15,60,3.0,0.0
3278,52.0,0,60,0.0,0.0
3279,52.0,0,60,1.0,0.0
3280,52.0,75,60,2.0,0.0
3281,49.0,0,60,0.0,0.0
3282,49.0,15,60,3.0,0.0
3283,49.0,75,60,1.0,0.0
3284,49.0,0,60,2.0,0.0
3285,50.0,15,60,0.0,0.0
3286,50.0,0,60,3.0,0.0
3287,50.0,0,60,2.0,0.0
3288,50.0,75,60,1.0,0.0
3289,47.0,15,60,0.0,0.0
3290,47.0,0,60,3.0,0.0
3291,47.0,0,60,2.0,0.0
3292,47.0,75,60,1.0,0.0
3293,49.0,15,60,0.0,0.0
3294,49.0,0,60,3.0,0.0
3295,49.0,75,60,2.0,0.0
3296,49.0,0,60,1.0,0.0
3297,45.0,15,60,0.0,0.0
3298,45.0,0,60,3.0,0.0
3299,45.0,0,60,2.0,0.0
3300,45.0,75,60,1.0,0.0
3301,46.0,0,60,3.0,0.0
3302,46.0,15,60,0.0,0.0
3303,46.0,75,60,1.0,0.0
3304,46.0,0,60,2.0,0.0
3305,44.0,0,60,0.0,0.0
3306,44.0,15,60,3.0,0.0
3307,44.0,0,60,1.0,0.0
3308,44.0,75,60,2.0,0.0
3309,45.0,0,60,0.0,0.0
3310,45.0,15,60,3.0,0.0
3311,45.0,60,60,2.0,0.0
3312,45.0,0,60,1.0,0.0
3313,57.0,0,60,0.0,0.0
3314,64.0,0,60,0.0,0.0
3315,73.0,0,60,0.0,0.0
3316,69.0,15,60,0.0,0.0
3317,69.0,0,60,3.0,0.0
3318,73.0,0,60,3.0,0.0
3319,64.0,0,60,3.0,0.0
3320,57.0,0,60,3.0,0.0
3321,55.0,0,60,3.0,0.0
3322,55.0,0,60,0.0,0.0
3323,64.0,0,60,1.0,0.0
3324,73.0,0,60,2.0,0.0
3325,57.0,0,60,1.0,0.0
3326,55.0,0,60,1.0,0.0
3327,69.0,15,60,1.0,0.0
3328,73.0,150,60,1.0,0.0
3329,69.0,0,60,2.0,0.0
3330,64.0,0,60,2.0,0.0
3331,57.0,0,60,2.0,0.0
3332,55.0,0,60,2.0,0.0
3333,53.0,0,180,3.0,0.0
3334,62.0,0,150,3.0,0.0
3335,65.0,0,150,3.0,0.0
3336,69.0,0,180,3.0,0.0
3337,57.0,0,150,3.0,0.0
3338,74.0,0,180,3.0,0.0
3339,53.0,0,180,0.0,0.0
3340,57.0,15,150,0.0,0.0
3341,62.0,0,150,0.0,0.0
3342,65.0,0,150,0.0,0.0
3343,69.0,0,180,0.0,0.0
3344,74.0,15,180,0.0,0.0
3345,65.0,0,150,2.0,0.0
3346,62.0,0,150,2.0,0.0
3347,57.0,0,150,1.0,0.0
3348,69.0,0,180,1.0,0.0
3349,65.0,0,150,1.0,0.0
3350,62.0,0,150,1.0,0.0
3351,53.0,165,180,1.0,0.0
3352,69.0,0,180,2.0,0.0
3353,74.0,0,180,2.0,0.0
3354,53.0,0,180,2.0,0.0
3355,74.0,0,180,1.0,0.0
3356,57.0,0,150,2.0,0.0
3357,57.0,15,540,3.0,0.0
3358,65.0,0,180,3.0,0.0
3359,62.0,15,360,3.0,0.0
3360,50.0,0,180,3.0,0.0
3361,65.0,0,180,0.0,0.0
3362,57.0,0,540,0.0,0.0
3363,50.0,15,180,0.0,0.0
3364,62.0,0,360,0.0,0.0
3365,62.0,0,360,1.0,0.0
3366,57.0,0,540,2.0,0.0
3367,50.0,165,180,2.0,0.0
3368,62.0,60,360,2.0,0.0
3369,65.0,0,180,2.0,0.0
3370,57.0,90,540,1.0,0.0
3371,50.0,0,180,1.0,0.0
3372,65.0,0,180,1.0,0.0
3373,45.0,0,480,0.0,0.0
3374,45.0,0,480,3.0,0.0
3375,64.0,0,240,3.0,0.0
3376,45.0,0,480,2.0,0.0
3377,64.0,0,240,1.0,0.0
3378,45.0,0,480,1.0,0.0
3379,61.0,0,300,0.0,0.0
3380,61.0,0,300,3.0,0.0
3381,61.0,0,300,1.0,0.0
3382,61.0,165,300,2.0,0.0
3383,64.0,15,240,3.0,0.0
3384,64.0,15,15,0.0,0.0
3385,64.0,90,15,2.0,0.0
3386,64.0,0,240,1.0,0.0
3387,55.0,0,90,0.0,0.0
3388,55.0,15,90,3.0,0.0
3389,55.0,0,90,2.0,0.0
3390,55.0,0,90,1.0,0.0
3391,62.0,0,960,3.0,0.0
3392,57.0,0,960,3.0,0.0
3393,50.0,0,960,0.0,0.0
3394,57.0,0,960,0.0,0.0
3395,38.0,15,960,0.0,0.0
3396,55.0,15,180,0.0,0.0
3397,55.0,0,180,3.0,0.0
3398,62.0,0,960,0.0,0.0
3399,50.0,0,960,2.0,0.0
3400,62.0,0,960,1.0,0.0
3401,57.0,0,960,1.0,0.0
3402,50.0,0,960,1.0,0.0
3403,62.0,0,960,2.0,0.0
3404,57.0,0,960,2.0,0.0
3405,38.0,0,960,2.0,0.0
3406,55.0,75,180,1.0,0.0
3407,38.0,0,960,1.0,0.0
3408,38.0,0,960,3.0,0.0
3409,50.0,0,960,3.0,0.0
3410,55.0,0,180,2.0,0.0
3411,53.0,0,60,0.0,0.0
3412,53.0,15,60,3.0,0.0
3413,53.0,0,60,2.0,0.0
3414,53.0,75,60,1.0,0.0
3415,52.0,15,60,3.0,0.0
3416,52.0,0,60,0.0,0.0
3417,52.0,0,60,1.0,0.0
3418,52.0,600,60,2.0,0.0
3419,53.0,0,600,0.0,0.0
3420,53.0,0,600,2.0,0.0
3421,53.0,0,600,3.0,0.0
3422,53.0,0,600,1.0,0.0
