tick,type,time,meta,track,numerator,denominator,clocks_per_click,notated_32nd_notes_per_beat,key,tempo,port,program,channel,control,value,note,velocity
0,track_name,0,1,0,,,,,,,,,,,,,
0,program_change,0,0,1,,,,,,,,0,0,,,,
0,control_change,0,0,1,,,,,,,,,0,7,127,,
0,control_change,0,0,1,,,,,,,,,0,10,63,,
0,control_change,0,0,1,,,,,,,,,0,91,63,,
0,midi_port,0,1,2,,,,,,,0,,,,,,
0,note_on,0,0,1,,,,,,,,,0,,,55,100
0,note_on,0,0,1,,,,,,,,,0,,,60,105
0,note_on,0,0,1,,,,,,,,,0,,,64,105
0,control_change,0,0,2,,,,,,,,,1,93,0,,
0,control_change,0,0,2,,,,,,,,,1,91,63,,
0,control_change,0,0,2,,,,,,,,,1,10,63,,
0,control_change,0,0,2,,,,,,,,,1,7,127,,
0,program_change,0,0,2,,,,,,,,0,1,,,,
0,program_change,0,0,2,,,,,,,,0,1,,,,
0,track_name,0,1,2,,,,,,,,,,,,,
0,program_change,0,0,1,,,,,,,,0,0,,,,
0,track_name,0,1,1,,,,,,,,,,,,,
0,control_change,0,0,1,,,,,,,,,0,93,0,,
0,text,0,1,0,,,,,,,,,,,,,
0,text,0,1,0,,,,,,,,,,,,,
0,text,0,1,0,,,,,,,,,,,,,
0,copyright,0,1,0,,,,,,,,,,,,,
0,marker,0,1,0,,,,,,,,,,,,,
0,marker,0,1,0,,,,,,,,,,,,,
0,set_tempo,0,1,0,,,,,,681818,,,,,,,
0,key_signature,0,1,0,,,,,C,,,,,,,,
0,time_signature,0,1,0,4,4,24,8,,,,,,,,,
0,text,0,1,0,,,,,,,,,,,,,
0,text,0,1,0,,,,,,,,,,,,,
0,text,0,1,0,,,,,,,,,,,,,
0,midi_port,0,1,1,,,,,,,0,,,,,,
22,note_on,22,0,1,,,,,,,,,0,,,60,0
24,note_on,2,0,1,,,,,,,,,0,,,59,105
46,note_on,22,0,1,,,,,,,,,0,,,59,0
48,note_on,2,0,1,,,,,,,,,0,,,60,105
48,note_on,48,0,2,,,,,,,,,1,,,36,105
96,note_on,48,0,2,,,,,,,,,1,,,36,0
96,note_on,0,0,2,,,,,,,,,1,,,40,112
144,note_on,0,0,2,,,,,,,,,1,,,43,119
144,note_on,48,0,2,,,,,,,,,1,,,40,0
160,note_on,112,0,1,,,,,,,,,0,,,64,0
190,note_on,30,0,1,,,,,,,,,0,,,60,0
192,note_on,2,0,1,,,,,,,,,0,,,55,0
192,note_on,48,0,2,,,,,,,,,1,,,43,0
192,note_on,0,0,2,,,,,,,,,1,,,48,126
288,note_on,0,0,1,,,,,,,,,0,,,65,105
288,note_on,96,0,1,,,,,,,,,0,,,62,105
320,note_on,32,0,1,,,,,,,,,0,,,65,0
320,note_on,0,0,1,,,,,,,,,0,,,62,0
384,note_on,192,0,2,,,,,,,,,1,,,48,0
384,note_on,0,0,1,,,,,,,,,0,,,64,105
384,note_on,0,0,1,,,,,,,,,0,,,67,105
384,note_on,64,0,1,,,,,,,,,0,,,60,100
406,note_on,22,0,1,,,,,,,,,0,,,64,0
408,note_on,2,0,1,,,,,,,,,0,,,62,105
430,note_on,22,0,1,,,,,,,,,0,,,62,0
432,note_on,2,0,1,,,,,,,,,0,,,64,105
432,note_on,48,0,2,,,,,,,,,1,,,36,105
480,note_on,48,0,2,,,,,,,,,1,,,36,0
480,note_on,0,0,2,,,,,,,,,1,,,40,112
528,note_on,48,0,2,,,,,,,,,1,,,40,0
528,note_on,0,0,2,,,,,,,,,1,,,43,119
544,note_on,112,0,1,,,,,,,,,0,,,67,0
574,note_on,30,0,1,,,,,,,,,0,,,64,0
576,note_on,48,0,2,,,,,,,,,1,,,43,0
576,note_on,0,0,2,,,,,,,,,1,,,48,126
576,note_on,2,0,1,,,,,,,,,0,,,60,0
672,note_on,0,0,1,,,,,,,,,0,,,72,105
672,note_on,96,0,1,,,,,,,,,0,,,64,105
704,note_on,32,0,1,,,,,,,,,0,,,72,0
704,note_on,0,0,1,,,,,,,,,0,,,64,0
768,note_on,0,0,1,,,,,,,,,0,,,65,105
768,note_on,192,0,2,,,,,,,,,1,,,48,0
768,note_on,64,0,1,,,,,,,,,0,,,62,105
792,note_on,24,0,1,,,,,,,,,0,,,65,0
792,note_on,0,0,1,,,,,,,,,0,,,64,105
816,note_on,24,0,1,,,,,,,,,0,,,64,0
816,note_on,0,0,1,,,,,,,,,0,,,65,105
816,note_on,48,0,2,,,,,,,,,1,,,48,126
862,note_on,46,0,1,,,,,,,,,0,,,65,0
862,note_on,0,0,1,,,,,,,,,0,,,62,0
864,note_on,2,0,1,,,,,,,,,0,,,62,105
864,note_on,0,0,1,,,,,,,,,0,,,65,105
864,note_on,0,0,2,,,,,,,,,1,,,50,126
864,note_on,48,0,2,,,,,,,,,1,,,48,0
912,note_on,48,0,2,,,,,,,,,1,,,50,0
912,note_on,0,0,2,,,,,,,,,1,,,48,126
958,note_on,0,0,1,,,,,,,,,0,,,62,0
958,note_on,94,0,1,,,,,,,,,0,,,65,0
960,note_on,2,0,1,,,,,,,,,0,,,74,105
960,note_on,0,0,2,,,,,,,,,1,,,47,123
960,note_on,48,0,2,,,,,,,,,1,,,48,0
1008,note_on,0,0,2,,,,,,,,,1,,,50,120
1008,note_on,48,0,2,,,,,,,,,1,,,47,0
1054,note_on,94,0,1,,,,,,,,,0,,,74,0
1056,note_on,0,0,2,,,,,,,,,1,,,43,117
1056,note_on,48,0,2,,,,,,,,,1,,,50,0
1056,note_on,2,0,1,,,,,,,,,0,,,62,105
1056,note_on,0,0,1,,,,,,,,,0,,,65,105
1104,note_on,48,0,2,,,,,,,,,1,,,43,0
1104,note_on,0,0,2,,,,,,,,,1,,,47,113
1150,note_on,0,0,1,,,,,,,,,0,,,62,0
1150,note_on,94,0,1,,,,,,,,,0,,,65,0
1152,note_on,48,0,2,,,,,,,,,1,,,47,0
1152,note_on,2,0,1,,,,,,,,,0,,,62,127
1152,note_on,0,0,2,,,,,,,,,1,,,48,109
1152,note_on,0,0,1,,,,,,,,,0,,,65,127
1198,note_on,46,0,2,,,,,,,,,1,,,48,0
1200,note_on,2,0,2,,,,,,,,,1,,,36,105
1248,note_on,0,0,2,,,,,,,,,1,,,40,105
1248,note_on,0,0,1,,,,,,,,,0,,,64,105
1248,note_on,96,0,1,,,,,,,,,0,,,65,0
1248,note_on,48,0,2,,,,,,,,,1,,,36,0
1248,note_on,0,0,1,,,,,,,,,0,,,60,105
1248,note_on,0,0,1,,,,,,,,,0,,,62,0
1296,note_on,0,0,2,,,,,,,,,1,,,43,105
1296,note_on,48,0,2,,,,,,,,,1,,,40,0
1342,note_on,94,0,1,,,,,,,,,0,,,64,0
1342,note_on,0,0,1,,,,,,,,,0,,,60,0
1344,note_on,48,0,2,,,,,,,,,1,,,43,0
1344,note_on,0,0,2,,,,,,,,,1,,,48,105
1392,note_on,0,0,2,,,,,,,,,1,,,50,110
1392,note_on,48,0,2,,,,,,,,,1,,,48,0
1440,note_on,48,0,2,,,,,,,,,1,,,50,0
1440,note_on,0,0,2,,,,,,,,,1,,,52,115
1488,note_on,0,0,2,,,,,,,,,1,,,53,120
1488,note_on,48,0,2,,,,,,,,,1,,,52,0
1536,note_on,0,0,2,,,,,,,,,1,,,55,126
1536,note_on,0,0,1,,,,,,,,,0,,,62,105
1536,note_on,194,0,1,,,,,,,,,0,,,59,105
1536,note_on,48,0,2,,,,,,,,,1,,,53,0
1560,note_on,0,0,1,,,,,,,,,0,,,60,105
1560,note_on,24,0,1,,,,,,,,,0,,,62,0
1582,note_on,46,0,2,,,,,,,,,1,,,55,0
1584,note_on,0,0,1,,,,,,,,,0,,,62,105
1584,note_on,24,0,1,,,,,,,,,0,,,60,0
1584,note_on,2,0,2,,,,,,,,,1,,,43,105
1632,note_on,48,0,2,,,,,,,,,1,,,43,0
1632,note_on,0,0,2,,,,,,,,,1,,,47,112
1680,note_on,48,0,2,,,,,,,,,1,,,47,0
1680,note_on,0,0,2,,,,,,,,,1,,,50,119
1696,note_on,112,0,1,,,,,,,,,0,,,59,0
1728,note_on,0,0,2,,,,,,,,,1,,,55,126
1728,note_on,32,0,1,,,,,,,,,0,,,62,0
1728,note_on,48,0,2,,,,,,,,,1,,,50,0
1824,note_on,0,0,1,,,,,,,,,0,,,64,105
1824,note_on,96,0,1,,,,,,,,,0,,,60,105
1856,note_on,0,0,1,,,,,,,,,0,,,60,0
1856,note_on,32,0,1,,,,,,,,,0,,,64,0
1920,note_on,192,0,2,,,,,,,,,1,,,55,0
1920,note_on,0,0,1,,,,,,,,,0,,,65,105
1920,note_on,64,0,1,,,,,,,,,0,,,62,105
1968,note_on,48,0,2,,,,,,,,,1,,,43,105
2016,note_on,48,0,2,,,,,,,,,1,,,43,0
2016,note_on,0,0,2,,,,,,,,,1,,,47,112
2064,note_on,48,0,2,,,,,,,,,1,,,47,0
2064,note_on,0,0,2,,,,,,,,,1,,,50,119
2112,note_on,192,0,1,,,,,,,,,0,,,65,0
2112,note_on,0,0,1,,,,,,,,,0,,,62,0
2112,note_on,0,0,2,,,,,,,,,1,,,55,126
2112,note_on,48,0,2,,,,,,,,,1,,,50,0
2208,note_on,96,0,1,,,,,,,,,0,,,62,105
2208,note_on,0,0,1,,,,,,,,,0,,,65,105
2240,note_on,32,0,1,,,,,,,,,0,,,65,0
2240,note_on,0,0,1,,,,,,,,,0,,,62,0
2304,note_on,0,0,1,,,,,,,,,0,,,64,105
2304,note_on,64,0,1,,,,,,,,,0,,,60,105
2304,note_on,192,0,2,,,,,,,,,1,,,55,0
2336,note_on,0,0,1,,,,,,,,,0,,,60,0
2336,note_on,32,0,1,,,,,,,,,0,,,64,0
2352,note_on,48,0,2,,,,,,,,,1,,,43,105
2400,note_on,64,0,1,,,,,,,,,0,,,64,105
2400,note_on,48,0,2,,,,,,,,,1,,,43,0
2400,note_on,0,0,2,,,,,,,,,1,,,48,105
2400,note_on,0,0,1,,,,,,,,,0,,,67,105
2432,note_on,0,0,1,,,,,,,,,0,,,64,0
2432,note_on,32,0,1,,,,,,,,,0,,,67,0
2448,note_on,0,0,2,,,,,,,,,1,,,52,105
2448,note_on,48,0,2,,,,,,,,,1,,,48,0
2496,note_on,48,0,2,,,,,,,,,1,,,52,0
2496,note_on,0,0,2,,,,,,,,,1,,,40,105
2496,note_on,0,0,1,,,,,,,,,0,,,67,105
2496,note_on,64,0,1,,,,,,,,,0,,,60,105
2528,note_on,32,0,2,,,,,,,,,1,,,40,0
2542,note_on,46,0,1,,,,,,,,,0,,,67,0
2544,note_on,2,0,1,,,,,,,,,0,,,65,105
2590,note_on,46,0,1,,,,,,,,,0,,,65,0
2590,note_on,0,0,1,,,,,,,,,0,,,60,0
2592,note_on,64,0,2,,,,,,,,,1,,,41,105
2592,note_on,0,0,1,,,,,,,,,0,,,67,105
2592,note_on,2,0,1,,,,,,,,,0,,,60,105
2624,note_on,32,0,2,,,,,,,,,1,,,41,0
2638,note_on,46,0,1,,,,,,,,,0,,,67,0
2640,note_on,2,0,1,,,,,,,,,0,,,69,105
2686,note_on,46,0,1,,,,,,,,,0,,,69,0
2686,note_on,0,0,1,,,,,,,,,0,,,60,0
2688,note_on,2,0,1,,,,,,,,,0,,,60,105
2688,note_on,64,0,2,,,,,,,,,1,,,43,105
2688,note_on,0,0,1,,,,,,,,,0,,,64,105
2736,note_on,0,0,2,,,,,,,,,1,,,55,105
2736,note_on,48,0,2,,,,,,,,,1,,,43,0
2782,note_on,94,0,1,,,,,,,,,0,,,64,0
2782,note_on,0,0,1,,,,,,,,,0,,,60,0
2784,note_on,0,0,2,,,,,,,,,1,,,50,105
2784,note_on,48,0,2,,,,,,,,,1,,,55,0
2784,note_on,0,0,1,,,,,,,,,0,,,62,105
2784,note_on,2,0,1,,,,,,,,,0,,,59,105
2796,note_on,12,0,1,,,,,,,,,0,,,62,0
2796,note_on,0,0,1,,,,,,,,,0,,,64,105
2808,note_on,12,0,1,,,,,,,,,0,,,64,0
2808,note_on,0,0,1,,,,,,,,,0,,,62,105
2820,note_on,12,0,1,,,,,,,,,0,,,62,0
2820,note_on,0,0,1,,,,,,,,,0,,,60,105
2832,note_on,0,0,1,,,,,,,,,0,,,62,105
2832,note_on,12,0,1,,,,,,,,,0,,,60,0
2832,note_on,0,0,2,,,,,,,,,1,,,47,105
2832,note_on,48,0,2,,,,,,,,,1,,,50,0
2878,note_on,0,0,1,,,,,,,,,0,,,59,0
2878,note_on,46,0,1,,,,,,,,,0,,,62,0
2880,note_on,48,0,2,,,,,,,,,1,,,47,0
2880,note_on,0,0,2,,,,,,,,,1,,,43,105
2912,note_on,32,0,2,,,,,,,,,1,,,43,0
2928,note_on,50,0,1,,,,,,,,,0,,,67,63
2976,note_on,64,0,2,,,,,,,,,1,,,55,63
2976,note_on,48,0,1,,,,,,,,,0,,,67,0
2976,note_on,0,0,1,,,,,,,,,0,,,71,63
3008,note_on,32,0,2,,,,,,,,,1,,,55,0
3024,note_on,0,0,1,,,,,,,,,0,,,74,63
3024,note_on,48,0,1,,,,,,,,,0,,,71,0
3072,note_on,64,0,2,,,,,,,,,1,,,48,63
3072,note_on,48,0,1,,,,,,,,,0,,,74,0
3072,note_on,0,0,1,,,,,,,,,0,,,76,63
3104,note_on,32,0,2,,,,,,,,,1,,,48,0
3120,note_on,0,0,1,,,,,,,,,0,,,74,63
3120,note_on,48,0,1,,,,,,,,,0,,,76,0
3168,note_on,64,0,2,,,,,,,,,1,,,55,63
3168,note_on,0,0,1,,,,,,,,,0,,,72,63
3168,note_on,48,0,1,,,,,,,,,0,,,74,0
3200,note_on,32,0,2,,,,,,,,,1,,,55,0
3216,note_on,48,0,1,,,,,,,,,0,,,72,0
3216,note_on,0,0,1,,,,,,,,,0,,,71,63
3264,note_on,48,0,1,,,,,,,,,0,,,71,0
3264,note_on,64,0,2,,,,,,,,,1,,,48,63
3264,note_on,0,0,1,,,,,,,,,0,,,69,63
3296,note_on,32,0,2,,,,,,,,,1,,,48,0
3312,note_on,48,0,1,,,,,,,,,0,,,69,0
3312,note_on,0,0,1,,,,,,,,,0,,,67,63
3360,note_on,64,0,2,,,,,,,,,1,,,57,63
3360,note_on,48,0,1,,,,,,,,,0,,,67,0
3360,note_on,0,0,1,,,,,,,,,0,,,66,63
3392,note_on,32,0,2,,,,,,,,,1,,,57,0
3408,note_on,0,0,1,,,,,,,,,0,,,64,63
3408,note_on,48,0,1,,,,,,,,,0,,,66,0
3456,note_on,64,0,2,,,,,,,,,1,,,50,63
3456,note_on,0,0,1,,,,,,,,,0,,,66,63
3456,note_on,48,0,1,,,,,,,,,0,,,64,0
3488,note_on,32,0,2,,,,,,,,,1,,,50,0
3504,note_on,48,0,1,,,,,,,,,0,,,66,0
3504,note_on,0,0,1,,,,,,,,,0,,,62,63
3552,note_on,64,0,2,,,,,,,,,1,,,57,63
3552,note_on,48,0,1,,,,,,,,,0,,,62,0
3552,note_on,0,0,1,,,,,,,,,0,,,66,63
3584,note_on,32,0,2,,,,,,,,,1,,,57,0
3600,note_on,0,0,1,,,,,,,,,0,,,69,63
3600,note_on,48,0,1,,,,,,,,,0,,,66,0
3648,note_on,64,0,2,,,,,,,,,1,,,48,63
3648,note_on,48,0,1,,,,,,,,,0,,,69,0
3648,note_on,0,0,1,,,,,,,,,0,,,66,63
3680,note_on,32,0,2,,,,,,,,,1,,,48,0
3696,note_on,48,0,1,,,,,,,,,0,,,66,0
3696,note_on,0,0,1,,,,,,,,,0,,,62,63
3744,note_on,64,0,2,,,,,,,,,1,,,57,63
3744,note_on,48,0,1,,,,,,,,,0,,,62,0
3744,note_on,0,0,1,,,,,,,,,0,,,66,63
3776,note_on,32,0,2,,,,,,,,,1,,,57,0
3792,note_on,0,0,1,,,,,,,,,0,,,69,63
3792,note_on,48,0,1,,,,,,,,,0,,,66,0
3840,note_on,0,0,1,,,,,,,,,0,,,74,63
3840,note_on,48,0,1,,,,,,,,,0,,,69,0
3840,note_on,64,0,2,,,,,,,,,1,,,47,63
3872,note_on,32,0,2,,,,,,,,,1,,,47,0
3888,note_on,0,0,1,,,,,,,,,0,,,72,63
3888,note_on,48,0,1,,,,,,,,,0,,,74,0
3936,note_on,0,0,1,,,,,,,,,0,,,71,63
3936,note_on,48,0,1,,,,,,,,,0,,,72,0
3936,note_on,64,0,2,,,,,,,,,1,,,57,63
3968,note_on,32,0,2,,,,,,,,,1,,,57,0
3984,note_on,48,0,1,,,,,,,,,0,,,71,0
3984,note_on,0,0,1,,,,,,,,,0,,,69,63
4032,note_on,64,0,2,,,,,,,,,1,,,47,63
4032,note_on,48,0,1,,,,,,,,,0,,,69,0
4032,note_on,0,0,1,,,,,,,,,0,,,67,63
4064,note_on,32,0,2,,,,,,,,,1,,,47,0
4080,note_on,48,0,1,,,,,,,,,0,,,67,0
4080,note_on,0,0,1,,,,,,,,,0,,,66,63
4128,note_on,64,0,2,,,,,,,,,1,,,55,63
4128,note_on,0,0,1,,,,,,,,,0,,,64,63
4128,note_on,48,0,1,,,,,,,,,0,,,66,0
4160,note_on,32,0,2,,,,,,,,,1,,,55,0
4176,note_on,0,0,1,,,,,,,,,0,,,62,63
4176,note_on,48,0,1,,,,,,,,,0,,,64,0
4224,note_on,0,0,1,,,,,,,,,0,,,64,63
4224,note_on,48,0,1,,,,,,,,,0,,,62,0
4224,note_on,64,0,2,,,,,,,,,1,,,48,63
4256,note_on,32,0,2,,,,,,,,,1,,,48,0
4272,note_on,0,0,1,,,,,,,,,0,,,60,63
4272,note_on,48,0,1,,,,,,,,,0,,,64,0
4320,note_on,0,0,1,,,,,,,,,0,,,64,63
4320,note_on,48,0,1,,,,,,,,,0,,,60,0
4320,note_on,64,0,2,,,,,,,,,1,,,55,63
4352,note_on,32,0,2,,,,,,,,,1,,,55,0
4368,note_on,0,0,1,,,,,,,,,0,,,67,63
4368,note_on,48,0,1,,,,,,,,,0,,,64,0
4416,note_on,0,0,1,,,,,,,,,0,,,64,63
4416,note_on,48,0,1,,,,,,,,,0,,,67,0
4416,note_on,64,0,2,,,,,,,,,1,,,47,63
4448,note_on,32,0,2,,,,,,,,,1,,,47,0
4464,note_on,0,0,1,,,,,,,,,0,,,60,63
4464,note_on,48,0,1,,,,,,,,,0,,,64,0
4512,note_on,48,0,1,,,,,,,,,0,,,60,0
4512,note_on,0,0,1,,,,,,,,,0,,,64,63
4512,note_on,64,0,2,,,,,,,,,1,,,55,63
4544,note_on,32,0,2,,,,,,,,,1,,,55,0
4560,note_on,48,0,1,,,,,,,,,0,,,64,0
4560,note_on,0,0,1,,,,,,,,,0,,,67,63
4608,note_on,48,0,1,,,,,,,,,0,,,67,0
4608,note_on,0,0,1,,,,,,,,,0,,,72,63
4608,note_on,64,0,2,,,,,,,,,1,,,45,63
4640,note_on,32,0,2,,,,,,,,,1,,,45,0
4656,note_on,48,0,1,,,,,,,,,0,,,72,0
4656,note_on,0,0,1,,,,,,,,,0,,,71,65
4704,note_on,64,0,2,,,,,,,,,1,,,55,68
4704,note_on,48,0,1,,,,,,,,,0,,,71,0
4704,note_on,0,0,1,,,,,,,,,0,,,69,67
4736,note_on,32,0,2,,,,,,,,,1,,,55,0
4752,note_on,48,0,1,,,,,,,,,0,,,69,0
4752,note_on,0,0,1,,,,,,,,,0,,,67,69
4800,note_on,64,0,2,,,,,,,,,1,,,45,73
4800,note_on,0,0,1,,,,,,,,,0,,,66,71
4800,note_on,48,0,1,,,,,,,,,0,,,67,0
4832,note_on,32,0,2,,,,,,,,,1,,,45,0
4848,note_on,0,0,1,,,,,,,,,0,,,67,73
4848,note_on,48,0,1,,,,,,,,,0,,,66,0
4896,note_on,64,0,2,,,,,,,,,1,,,55,78
4896,note_on,0,0,1,,,,,,,,,0,,,69,75
4896,note_on,48,0,1,,,,,,,,,0,,,67,0
4928,note_on,32,0,2,,,,,,,,,1,,,55,0
4944,note_on,48,0,1,,,,,,,,,0,,,69,0
4944,note_on,0,0,1,,,,,,,,,0,,,66,78
4992,note_on,64,0,2,,,,,,,,,1,,,54,83
4992,note_on,48,0,1,,,,,,,,,0,,,66,0
4992,note_on,0,0,1,,,,,,,,,0,,,62,81
5040,note_on,48,0,1,,,,,,,,,0,,,62,0
5040,note_on,0,0,1,,,,,,,,,0,,,64,84
5086,note_on,94,0,2,,,,,,,,,1,,,54,0
5088,note_on,48,0,1,,,,,,,,,0,,,64,0
5088,note_on,0,0,1,,,,,,,,,0,,,66,87
5088,note_on,2,0,2,,,,,,,,,1,,,57,88
5136,note_on,0,0,1,,,,,,,,,0,,,67,90
5136,note_on,48,0,1,,,,,,,,,0,,,66,0
5182,note_on,94,0,2,,,,,,,,,1,,,57,0
5184,note_on,2,0,2,,,,,,,,,1,,,54,93
5184,note_on,48,0,1,,,,,,,,,0,,,67,0
5184,note_on,0,0,1,,,,,,,,,0,,,69,93
5232,note_on,0,0,1,,,,,,,,,0,,,71,96
5232,note_on,48,0,1,,,,,,,,,0,,,69,0
5278,note_on,94,0,2,,,,,,,,,1,,,54,0
5280,note_on,48,0,1,,,,,,,,,0,,,71,0
5280,note_on,0,0,1,,,,,,,,,0,,,72,99
5280,note_on,2,0,2,,,,,,,,,1,,,50,99
5328,note_on,48,0,1,,,,,,,,,0,,,72,0
5328,note_on,0,0,1,,,,,,,,,0,,,69,102
5374,note_on,94,0,2,,,,,,,,,1,,,50,0
5376,note_on,2,0,2,,,,,,,,,1,,,47,105
5376,note_on,48,0,1,,,,,,,,,0,,,69,0
5376,note_on,0,0,1,,,,,,,,,0,,,74,105
5408,note_on,32,0,1,,,,,,,,,0,,,74,0
5470,note_on,94,0,2,,,,,,,,,1,,,47,0
5472,note_on,2,0,2,,,,,,,,,1,,,52,105
5472,note_on,64,0,1,,,,,,,,,0,,,67,105
5504,note_on,32,0,1,,,,,,,,,0,,,67,0
5566,note_on,94,0,2,,,,,,,,,1,,,52,0
5568,note_on,64,0,1,,,,,,,,,0,,,71,105
5568,note_on,2,0,2,,,,,,,,,1,,,48,105
5616,note_on,0,0,1,,,,,,,,,0,,,69,105
5616,note_on,48,0,1,,,,,,,,,0,,,71,0
5664,note_on,0,0,1,,,,,,,,,0,,,67,105
5664,note_on,0,0,2,,,,,,,,,1,,,50,105
5664,note_on,48,0,1,,,,,,,,,0,,,69,0
5664,note_on,96,0,2,,,,,,,,,1,,,48,0
5712,note_on,48,0,1,,,,,,,,,0,,,67,0
5712,note_on,0,0,1,,,,,,,,,0,,,66,105
5758,note_on,94,0,2,,,,,,,,,1,,,50,0
5760,note_on,2,0,2,,,,,,,,,1,,,55,105
5760,note_on,48,0,1,,,,,,,,,0,,,66,0
5760,note_on,0,0,1,,,,,,,,,0,,,67,105
5808,note_on,48,0,1,,,,,,,,,0,,,67,0
5808,note_on,0,0,1,,,,,,,,,0,,,62,105
5854,note_on,94,0,2,,,,,,,,,1,,,55,0
5856,note_on,48,0,1,,,,,,,,,0,,,62,0
5856,note_on,0,0,1,,,,,,,,,0,,,59,105
5904,note_on,50,0,2,,,,,,,,,1,,,55,105
5950,note_on,94,0,1,,,,,,,,,0,,,59,0
5952,note_on,48,0,2,,,,,,,,,1,,,55,0
5952,note_on,0,0,2,,,,,,,,,1,,,43,105
6046,note_on,94,0,2,,,,,,,,,1,,,43,0
6144,note_on,0,0,1,,,,,,,,,0,,,64,105
6144,note_on,0,0,1,,,,,,,,,0,,,60,105
6144,note_on,194,0,1,,,,,,,,,0,,,55,100
6144,marker,6144,1,0,,,,,,,,,,,,,
6166,note_on,22,0,1,,,,,,,,,0,,,60,0
6168,note_on,2,0,1,,,,,,,,,0,,,59,105
6190,note_on,22,0,1,,,,,,,,,0,,,59,0
6192,note_on,146,0,2,,,,,,,,,1,,,36,105
6192,note_on,2,0,1,,,,,,,,,0,,,60,105
6240,note_on,48,0,2,,,,,,,,,1,,,36,0
6240,note_on,0,0,2,,,,,,,,,1,,,40,112
6288,note_on,48,0,2,,,,,,,,,1,,,40,0
6288,note_on,0,0,2,,,,,,,,,1,,,43,119
6304,note_on,112,0,1,,,,,,,,,0,,,64,0
6334,note_on,30,0,1,,,,,,,,,0,,,60,0
6336,note_on,0,0,2,,,,,,,,,1,,,48,126
6336,note_on,2,0,1,,,,,,,,,0,,,55,0
6336,note_on,48,0,2,,,,,,,,,1,,,43,0
6432,note_on,96,0,1,,,,,,,,,0,,,62,105
6432,note_on,0,0,1,,,,,,,,,0,,,65,105
6464,note_on,32,0,1,,,,,,,,,0,,,65,0
6464,note_on,0,0,1,,,,,,,,,0,,,62,0
6528,note_on,192,0,2,,,,,,,,,1,,,48,0
6528,note_on,64,0,1,,,,,,,,,0,,,60,100
6528,note_on,0,0,1,,,,,,,,,0,,,64,105
6528,note_on,0,0,1,,,,,,,,,0,,,67,105
6550,note_on,22,0,1,,,,,,,,,0,,,64,0
6552,note_on,2,0,1,,,,,,,,,0,,,62,105
6574,note_on,22,0,1,,,,,,,,,0,,,62,0
6576,note_on,2,0,1,,,,,,,,,0,,,64,105
6576,note_on,48,0,2,,,,,,,,,1,,,36,105
6624,note_on,48,0,2,,,,,,,,,1,,,36,0
6624,note_on,0,0,2,,,,,,,,,1,,,40,112
6672,note_on,48,0,2,,,,,,,,,1,,,40,0
6672,note_on,0,0,2,,,,,,,,,1,,,43,119
6688,note_on,112,0,1,,,,,,,,,0,,,67,0
6718,note_on,30,0,1,,,,,,,,,0,,,64,0
6720,note_on,48,0,2,,,,,,,,,1,,,43,0
6720,note_on,0,0,2,,,,,,,,,1,,,48,126
6720,note_on,2,0,1,,,,,,,,,0,,,60,0
6816,note_on,96,0,1,,,,,,,,,0,,,64,105
6816,note_on,0,0,1,,,,,,,,,0,,,72,105
6848,note_on,0,0,1,,,,,,,,,0,,,64,0
6848,note_on,32,0,1,,,,,,,,,0,,,72,0
6912,note_on,0,0,1,,,,,,,,,0,,,65,105
6912,note_on,192,0,2,,,,,,,,,1,,,48,0
6912,note_on,64,0,1,,,,,,,,,0,,,62,105
6936,note_on,0,0,1,,,,,,,,,0,,,64,105
6936,note_on,24,0,1,,,,,,,,,0,,,65,0
6960,note_on,48,0,2,,,,,,,,,1,,,48,126
6960,note_on,0,0,1,,,,,,,,,0,,,65,105
6960,note_on,24,0,1,,,,,,,,,0,,,64,0
7006,note_on,0,0,1,,,,,,,,,0,,,62,0
7006,note_on,46,0,1,,,,,,,,,0,,,65,0
7008,note_on,48,0,2,,,,,,,,,1,,,48,0
7008,note_on,2,0,1,,,,,,,,,0,,,62,105
7008,note_on,0,0,1,,,,,,,,,0,,,65,105
7008,note_on,0,0,2,,,,,,,,,1,,,50,126
7056,note_on,0,0,2,,,,,,,,,1,,,48,126
7056,note_on,48,0,2,,,,,,,,,1,,,50,0
7102,note_on,94,0,1,,,,,,,,,0,,,65,0
7102,note_on,0,0,1,,,,,,,,,0,,,62,0
7104,note_on,2,0,1,,,,,,,,,0,,,74,105
7104,note_on,0,0,2,,,,,,,,,1,,,47,123
7104,note_on,48,0,2,,,,,,,,,1,,,48,0
7152,note_on,0,0,2,,,,,,,,,1,,,50,120
7152,note_on,48,0,2,,,,,,,,,1,,,47,0
7198,note_on,94,0,1,,,,,,,,,0,,,74,0
7200,note_on,48,0,2,,,,,,,,,1,,,50,0
7200,note_on,0,0,2,,,,,,,,,1,,,43,117
7200,note_on,2,0,1,,,,,,,,,0,,,62,105
7200,note_on,0,0,1,,,,,,,,,0,,,65,105
7248,note_on,0,0,2,,,,,,,,,1,,,47,113
7248,note_on,48,0,2,,,,,,,,,1,,,43,0
7294,note_on,94,0,1,,,,,,,,,0,,,65,0
7294,note_on,0,0,1,,,,,,,,,0,,,62,0
7296,note_on,48,0,2,,,,,,,,,1,,,47,0
7296,note_on,0,0,2,,,,,,,,,1,,,48,109
7296,note_on,2,0,1,,,,,,,,,0,,,62,127
7296,note_on,0,0,1,,,,,,,,,0,,,65,127
7342,note_on,46,0,2,,,,,,,,,1,,,48,0
7344,note_on,2,0,2,,,,,,,,,1,,,36,105
7392,note_on,0,0,1,,,,,,,,,0,,,62,0
7392,note_on,0,0,1,,,,,,,,,0,,,60,105
7392,note_on,0,0,1,,,,,,,,,0,,,64,105
7392,note_on,96,0,1,,,,,,,,,0,,,65,0
7392,note_on,0,0,2,,,,,,,,,1,,,40,105
7392,note_on,48,0,2,,,,,,,,,1,,,36,0
7440,note_on,0,0,2,,,,,,,,,1,,,43,105
7440,note_on,48,0,2,,,,,,,,,1,,,40,0
7486,note_on,0,0,1,,,,,,,,,0,,,60,0
7486,note_on,94,0,1,,,,,,,,,0,,,64,0
7488,note_on,0,0,2,,,,,,,,,1,,,48,105
7488,note_on,48,0,2,,,,,,,,,1,,,43,0
7536,note_on,0,0,2,,,,,,,,,1,,,50,110
7536,note_on,48,0,2,,,,,,,,,1,,,48,0
7584,note_on,48,0,2,,,,,,,,,1,,,50,0
7584,note_on,0,0,2,,,,,,,,,1,,,52,115
7632,note_on,48,0,2,,,,,,,,,1,,,52,0
7632,note_on,0,0,2,,,,,,,,,1,,,53,120
7680,note_on,0,0,1,,,,,,,,,0,,,62,105
7680,note_on,194,0,1,,,,,,,,,0,,,59,105
7680,note_on,48,0,2,,,,,,,,,1,,,53,0
7680,note_on,0,0,2,,,,,,,,,1,,,55,126
7704,note_on,24,0,1,,,,,,,,,0,,,62,0
7704,note_on,0,0,1,,,,,,,,,0,,,60,105
7726,note_on,46,0,2,,,,,,,,,1,,,55,0
7728,note_on,24,0,1,,,,,,,,,0,,,60,0
7728,note_on,0,0,1,,,,,,,,,0,,,62,105
7728,note_on,2,0,2,,,,,,,,,1,,,43,105
7776,note_on,48,0,2,,,,,,,,,1,,,43,0
7776,note_on,0,0,2,,,,,,,,,1,,,47,112
7824,note_on,48,0,2,,,,,,,,,1,,,47,0
7824,note_on,0,0,2,,,,,,,,,1,,,50,119
7840,note_on,112,0,1,,,,,,,,,0,,,59,0
7872,note_on,0,0,2,,,,,,,,,1,,,55,126
7872,note_on,32,0,1,,,,,,,,,0,,,62,0
7872,note_on,48,0,2,,,,,,,,,1,,,50,0
7968,note_on,0,0,1,,,,,,,,,0,,,64,105
7968,note_on,96,0,1,,,,,,,,,0,,,60,105
8000,note_on,0,0,1,,,,,,,,,0,,,60,0
8000,note_on,32,0,1,,,,,,,,,0,,,64,0
8064,note_on,0,0,1,,,,,,,,,0,,,65,105
8064,note_on,192,0,2,,,,,,,,,1,,,55,0
8064,note_on,64,0,1,,,,,,,,,0,,,62,105
8112,note_on,48,0,2,,,,,,,,,1,,,43,105
8160,note_on,0,0,2,,,,,,,,,1,,,47,112
8160,note_on,48,0,2,,,,,,,,,1,,,43,0
8208,note_on,48,0,2,,,,,,,,,1,,,47,0
8208,note_on,0,0,2,,,,,,,,,1,,,50,119
8256,note_on,192,0,1,,,,,,,,,0,,,65,0
8256,note_on,0,0,1,,,,,,,,,0,,,62,0
8256,note_on,0,0,2,,,,,,,,,1,,,55,126
8256,note_on,48,0,2,,,,,,,,,1,,,50,0
8352,note_on,96,0,1,,,,,,,,,0,,,62,105
8352,note_on,0,0,1,,,,,,,,,0,,,65,105
8384,note_on,0,0,1,,,,,,,,,0,,,62,0
8384,note_on,32,0,1,,,,,,,,,0,,,65,0
8448,note_on,64,0,1,,,,,,,,,0,,,60,105
8448,note_on,0,0,1,,,,,,,,,0,,,64,105
8448,note_on,192,0,2,,,,,,,,,1,,,55,0
8480,note_on,32,0,1,,,,,,,,,0,,,64,0
8480,note_on,0,0,1,,,,,,,,,0,,,60,0
8496,note_on,48,0,2,,,,,,,,,1,,,43,105
8544,note_on,64,0,1,,,,,,,,,0,,,64,105
8544,note_on,0,0,1,,,,,,,,,0,,,67,105
8544,note_on,48,0,2,,,,,,,,,1,,,43,0
8544,note_on,0,0,2,,,,,,,,,1,,,48,105
8576,note_on,32,0,1,,,,,,,,,0,,,67,0
8576,note_on,0,0,1,,,,,,,,,0,,,64,0
8592,note_on,0,0,2,,,,,,,,,1,,,52,105
8592,note_on,48,0,2,,,,,,,,,1,,,48,0
8640,note_on,0,0,2,,,,,,,,,1,,,40,105
8640,note_on,48,0,2,,,,,,,,,1,,,52,0
8640,note_on,0,0,1,,,,,,,,,0,,,67,105
8640,note_on,64,0,1,,,,,,,,,0,,,60,105
8672,note_on,32,0,2,,,,,,,,,1,,,40,0
8686,note_on,46,0,1,,,,,,,,,0,,,67,0
8688,note_on,2,0,1,,,,,,,,,0,,,65,105
8734,note_on,0,0,1,,,,,,,,,0,,,60,0
8734,note_on,46,0,1,,,,,,,,,0,,,65,0
8736,note_on,0,0,1,,,,,,,,,0,,,67,105
8736,note_on,2,0,1,,,,,,,,,0,,,60,105
8736,note_on,64,0,2,,,,,,,,,1,,,41,105
8768,note_on,32,0,2,,,,,,,,,1,,,41,0
8782,note_on,46,0,1,,,,,,,,,0,,,67,0
8784,note_on,2,0,1,,,,,,,,,0,,,69,105
8830,note_on,46,0,1,,,,,,,,,0,,,69,0
8830,note_on,0,0,1,,,,,,,,,0,,,60,0
8832,note_on,2,0,1,,,,,,,,,0,,,60,105
8832,note_on,0,0,1,,,,,,,,,0,,,64,105
8832,note_on,64,0,2,,,,,,,,,1,,,43,105
8880,note_on,48,0,2,,,,,,,,,1,,,43,0
8880,note_on,0,0,2,,,,,,,,,1,,,55,105
8926,note_on,94,0,1,,,,,,,,,0,,,64,0
8926,note_on,0,0,1,,,,,,,,,0,,,60,0
8928,note_on,2,0,1,,,,,,,,,0,,,59,105
8928,note_on,0,0,1,,,,,,,,,0,,,62,105
8928,note_on,48,0,2,,,,,,,,,1,,,55,0
8928,note_on,0,0,2,,,,,,,,,1,,,50,105
8940,note_on,0,0,1,,,,,,,,,0,,,64,105
8940,note_on,12,0,1,,,,,,,,,0,,,62,0
8952,note_on,0,0,1,,,,,,,,,0,,,62,105
8952,note_on,12,0,1,,,,,,,,,0,,,64,0
8964,note_on,0,0,1,,,,,,,,,0,,,60,105
8964,note_on,12,0,1,,,,,,,,,0,,,62,0
8976,note_on,0,0,2,,,,,,,,,1,,,47,105
8976,note_on,48,0,2,,,,,,,,,1,,,50,0
8976,note_on,12,0,1,,,,,,,,,0,,,60,0
8976,note_on,0,0,1,,,,,,,,,0,,,62,105
9022,note_on,46,0,1,,,,,,,,,0,,,62,0
9022,note_on,0,0,1,,,,,,,,,0,,,59,0
9024,note_on,48,0,2,,,,,,,,,1,,,47,0
9024,note_on,0,0,2,,,,,,,,,1,,,43,105
9056,note_on,32,0,2,,,,,,,,,1,,,43,0
9072,note_on,50,0,1,,,,,,,,,0,,,67,63
9120,note_on,48,0,1,,,,,,,,,0,,,67,0
9120,note_on,0,0,1,,,,,,,,,0,,,71,63
9120,note_on,64,0,2,,,,,,,,,1,,,55,63
9152,note_on,32,0,2,,,,,,,,,1,,,55,0
9168,note_on,48,0,1,,,,,,,,,0,,,71,0
9168,note_on,0,0,1,,,,,,,,,0,,,74,63
9216,note_on,48,0,1,,,,,,,,,0,,,74,0
9216,note_on,0,0,1,,,,,,,,,0,,,76,63
9216,note_on,64,0,2,,,,,,,,,1,,,48,63
9248,note_on,32,0,2,,,,,,,,,1,,,48,0
9264,note_on,48,0,1,,,,,,,,,0,,,76,0
9264,note_on,0,0,1,,,,,,,,,0,,,74,63
9312,note_on,48,0,1,,,,,,,,,0,,,74,0
9312,note_on,0,0,1,,,,,,,,,0,,,72,63
9312,note_on,64,0,2,,,,,,,,,1,,,55,63
9344,note_on,32,0,2,,,,,,,,,1,,,55,0
9360,note_on,0,0,1,,,,,,,,,0,,,71,63
9360,note_on,48,0,1,,,,,,,,,0,,,72,0
9408,note_on,64,0,2,,,,,,,,,1,,,48,63
9408,note_on,48,0,1,,,,,,,,,0,,,71,0
9408,note_on,0,0,1,,,,,,,,,0,,,69,63
9440,note_on,32,0,2,,,,,,,,,1,,,48,0
9456,note_on,48,0,1,,,,,,,,,0,,,69,0
9456,note_on,0,0,1,,,,,,,,,0,,,67,63
9504,note_on,64,0,2,,,,,,,,,1,,,57,63
9504,note_on,0,0,1,,,,,,,,,0,,,66,63
9504,note_on,48,0,1,,,,,,,,,0,,,67,0
9536,note_on,32,0,2,,,,,,,,,1,,,57,0
9552,note_on,48,0,1,,,,,,,,,0,,,66,0
9552,note_on,0,0,1,,,,,,,,,0,,,64,63
9600,note_on,48,0,1,,,,,,,,,0,,,64,0
9600,note_on,0,0,1,,,,,,,,,0,,,66,63
9600,note_on,64,0,2,,,,,,,,,1,,,50,63
9632,note_on,32,0,2,,,,,,,,,1,,,50,0
9648,note_on,48,0,1,,,,,,,,,0,,,66,0
9648,note_on,0,0,1,,,,,,,,,0,,,62,63
9696,note_on,64,0,2,,,,,,,,,1,,,57,63
9696,note_on,48,0,1,,,,,,,,,0,,,62,0
9696,note_on,0,0,1,,,,,,,,,0,,,66,63
9728,note_on,32,0,2,,,,,,,,,1,,,57,0
9744,note_on,0,0,1,,,,,,,,,0,,,69,63
9744,note_on,48,0,1,,,,,,,,,0,,,66,0
9792,note_on,0,0,1,,,,,,,,,0,,,66,63
9792,note_on,64,0,2,,,,,,,,,1,,,48,63
9792,note_on,48,0,1,,,,,,,,,0,,,69,0
9824,note_on,32,0,2,,,,,,,,,1,,,48,0
9840,note_on,0,0,1,,,,,,,,,0,,,62,63
9840,note_on,48,0,1,,,,,,,,,0,,,66,0
9888,note_on,0,0,1,,,,,,,,,0,,,66,63
9888,note_on,48,0,1,,,,,,,,,0,,,62,0
9888,note_on,64,0,2,,,,,,,,,1,,,57,63
9920,note_on,32,0,2,,,,,,,,,1,,,57,0
9936,note_on,0,0,1,,,,,,,,,0,,,69,63
9936,note_on,48,0,1,,,,,,,,,0,,,66,0
9984,note_on,0,0,1,,,,,,,,,0,,,74,63
9984,note_on,48,0,1,,,,,,,,,0,,,69,0
9984,note_on,64,0,2,,,,,,,,,1,,,47,63
10016,note_on,32,0,2,,,,,,,,,1,,,47,0
10032,note_on,48,0,1,,,,,,,,,0,,,74,0
10032,note_on,0,0,1,,,,,,,,,0,,,72,63
10080,note_on,64,0,2,,,,,,,,,1,,,57,63
10080,note_on,0,0,1,,,,,,,,,0,,,71,63
10080,note_on,48,0,1,,,,,,,,,0,,,72,0
10112,note_on,32,0,2,,,,,,,,,1,,,57,0
10128,note_on,0,0,1,,,,,,,,,0,,,69,63
10128,note_on,48,0,1,,,,,,,,,0,,,71,0
10176,note_on,48,0,1,,,,,,,,,0,,,69,0
10176,note_on,64,0,2,,,,,,,,,1,,,47,63
10176,note_on,0,0,1,,,,,,,,,0,,,67,63
10208,note_on,32,0,2,,,,,,,,,1,,,47,0
10224,note_on,48,0,1,,,,,,,,,0,,,67,0
10224,note_on,0,0,1,,,,,,,,,0,,,66,63
10272,note_on,48,0,1,,,,,,,,,0,,,66,0
10272,note_on,0,0,1,,,,,,,,,0,,,64,63
10272,note_on,64,0,2,,,,,,,,,1,,,55,63
10304,note_on,32,0,2,,,,,,,,,1,,,55,0
10320,note_on,48,0,1,,,,,,,,,0,,,64,0
10320,note_on,0,0,1,,,,,,,,,0,,,62,63
10368,note_on,64,0,2,,,,,,,,,1,,,48,63
10368,note_on,48,0,1,,,,,,,,,0,,,62,0
10368,note_on,0,0,1,,,,,,,,,0,,,64,63
10400,note_on,32,0,2,,,,,,,,,1,,,48,0
10416,note_on,48,0,1,,,,,,,,,0,,,64,0
10416,note_on,0,0,1,,,,,,,,,0,,,60,63
10464,note_on,48,0,1,,,,,,,,,0,,,60,0
10464,note_on,0,0,1,,,,,,,,,0,,,64,63
10464,note_on,64,0,2,,,,,,,,,1,,,55,63
10496,note_on,32,0,2,,,,,,,,,1,,,55,0
10512,note_on,48,0,1,,,,,,,,,0,,,64,0
10512,note_on,0,0,1,,,,,,,,,0,,,67,63
10560,note_on,0,0,1,,,,,,,,,0,,,64,63
10560,note_on,48,0,1,,,,,,,,,0,,,67,0
10560,note_on,64,0,2,,,,,,,,,1,,,47,63
10592,note_on,32,0,2,,,,,,,,,1,,,47,0
10608,note_on,0,0,1,,,,,,,,,0,,,60,63
10608,note_on,48,0,1,,,,,,,,,0,,,64,0
10656,note_on,0,0,1,,,,,,,,,0,,,64,63
10656,note_on,64,0,2,,,,,,,,,1,,,55,63
10656,note_on,48,0,1,,,,,,,,,0,,,60,0
10688,note_on,32,0,2,,,,,,,,,1,,,55,0
10704,note_on,0,0,1,,,,,,,,,0,,,67,63
10704,note_on,48,0,1,,,,,,,,,0,,,64,0
10752,note_on,0,0,1,,,,,,,,,0,,,72,63
10752,note_on,64,0,2,,,,,,,,,1,,,45,63
10752,note_on,48,0,1,,,,,,,,,0,,,67,0
10784,note_on,32,0,2,,,,,,,,,1,,,45,0
10800,note_on,48,0,1,,,,,,,,,0,,,72,0
10800,note_on,0,0,1,,,,,,,,,0,,,71,65
10848,note_on,64,0,2,,,,,,,,,1,,,55,68
10848,note_on,48,0,1,,,,,,,,,0,,,71,0
10848,note_on,0,0,1,,,,,,,,,0,,,69,67
10880,note_on,32,0,2,,,,,,,,,1,,,55,0
10896,note_on,0,0,1,,,,,,,,,0,,,67,69
10896,note_on,48,0,1,,,,,,,,,0,,,69,0
10944,note_on,48,0,1,,,,,,,,,0,,,67,0
10944,note_on,64,0,2,,,,,,,,,1,,,45,73
10944,note_on,0,0,1,,,,,,,,,0,,,66,71
10976,note_on,32,0,2,,,,,,,,,1,,,45,0
10992,note_on,48,0,1,,,,,,,,,0,,,66,0
10992,note_on,0,0,1,,,,,,,,,0,,,67,73
11040,note_on,48,0,1,,,,,,,,,0,,,67,0
11040,note_on,0,0,1,,,,,,,,,0,,,69,75
11040,note_on,64,0,2,,,,,,,,,1,,,55,78
11072,note_on,32,0,2,,,,,,,,,1,,,55,0
11088,note_on,0,0,1,,,,,,,,,0,,,66,78
11088,note_on,48,0,1,,,,,,,,,0,,,69,0
11136,note_on,48,0,1,,,,,,,,,0,,,66,0
11136,note_on,0,0,1,,,,,,,,,0,,,62,81
11136,note_on,64,0,2,,,,,,,,,1,,,54,83
11184,note_on,0,0,1,,,,,,,,,0,,,64,84
11184,note_on,48,0,1,,,,,,,,,0,,,62,0
11230,note_on,94,0,2,,,,,,,,,1,,,54,0
11232,note_on,48,0,1,,,,,,,,,0,,,64,0
11232,note_on,2,0,2,,,,,,,,,1,,,57,88
11232,note_on,0,0,1,,,,,,,,,0,,,66,87
11280,note_on,0,0,1,,,,,,,,,0,,,67,90
11280,note_on,48,0,1,,,,,,,,,0,,,66,0
11326,note_on,94,0,2,,,,,,,,,1,,,57,0
11328,note_on,2,0,2,,,,,,,,,1,,,54,93
11328,note_on,0,0,1,,,,,,,,,0,,,69,93
11328,note_on,48,0,1,,,,,,,,,0,,,67,0
11376,note_on,0,0,1,,,,,,,,,0,,,71,96
11376,note_on,48,0,1,,,,,,,,,0,,,69,0
11422,note_on,94,0,2,,,,,,,,,1,,,54,0
11424,note_on,48,0,1,,,,,,,,,0,,,71,0
11424,note_on,0,0,1,,,,,,,,,0,,,72,99
11424,note_on,2,0,2,,,,,,,,,1,,,50,99
11472,note_on,48,0,1,,,,,,,,,0,,,72,0
11472,note_on,0,0,1,,,,,,,,,0,,,69,102
11518,note_on,94,0,2,,,,,,,,,1,,,50,0
11520,note_on,48,0,1,,,,,,,,,0,,,69,0
11520,note_on,2,0,2,,,,,,,,,1,,,47,105
11520,note_on,0,0,1,,,,,,,,,0,,,74,105
11552,note_on,32,0,1,,,,,,,,,0,,,74,0
11614,note_on,94,0,2,,,,,,,,,1,,,47,0
11616,note_on,64,0,1,,,,,,,,,0,,,67,105
11616,note_on,2,0,2,,,,,,,,,1,,,52,105
11648,note_on,32,0,1,,,,,,,,,0,,,67,0
11710,note_on,94,0,2,,,,,,,,,1,,,52,0
11712,note_on,2,0,2,,,,,,,,,1,,,48,105
11712,note_on,64,0,1,,,,,,,,,0,,,71,105
11760,note_on,48,0,1,,,,,,,,,0,,,71,0
11760,note_on,0,0,1,,,,,,,,,0,,,69,105
11808,note_on,96,0,2,,,,,,,,,1,,,48,0
11808,note_on,0,0,2,,,,,,,,,1,,,50,105
11808,note_on,0,0,1,,,,,,,,,0,,,67,105
11808,note_on,48,0,1,,,,,,,,,0,,,69,0
11856,note_on,0,0,1,,,,,,,,,0,,,66,105
11856,note_on,48,0,1,,,,,,,,,0,,,67,0
11902,note_on,94,0,2,,,,,,,,,1,,,50,0
11904,note_on,0,0,1,,,,,,,,,0,,,67,105
11904,note_on,48,0,1,,,,,,,,,0,,,66,0
11904,note_on,2,0,2,,,,,,,,,1,,,55,105
11952,note_on,48,0,1,,,,,,,,,0,,,67,0
11952,note_on,0,0,1,,,,,,,,,0,,,62,105
11998,note_on,94,0,2,,,,,,,,,1,,,55,0
12000,note_on,0,0,1,,,,,,,,,0,,,59,105
12000,note_on,48,0,1,,,,,,,,,0,,,62,0
12048,note_on,50,0,2,,,,,,,,,1,,,55,105
12094,note_on,94,0,1,,,,,,,,,0,,,59,0
12096,note_on,48,0,2,,,,,,,,,1,,,55,0
12096,note_on,0,0,2,,,,,,,,,1,,,43,105
12190,note_on,94,0,2,,,,,,,,,1,,,43,0
12288,note_on,0,0,1,,,,,,,,,0,,,67,105
12288,note_on,0,0,1,,,,,,,,,0,,,71,105
12288,marker,6144,1,0,,,,,,,,,,,,,
12288,note_on,194,0,1,,,,,,,,,0,,,62,100
12310,note_on,22,0,1,,,,,,,,,0,,,67,0
12312,note_on,2,0,1,,,,,,,,,0,,,66,105
12334,note_on,22,0,1,,,,,,,,,0,,,66,0
12336,note_on,146,0,2,,,,,,,,,1,,,43,105
12336,note_on,2,0,1,,,,,,,,,0,,,67,105
12382,note_on,46,0,2,,,,,,,,,1,,,43,0
12384,note_on,2,0,2,,,,,,,,,1,,,47,112
12430,note_on,46,0,2,,,,,,,,,1,,,47,0
12432,note_on,2,0,2,,,,,,,,,1,,,50,119
12448,note_on,112,0,1,,,,,,,,,0,,,71,0
12478,note_on,30,0,1,,,,,,,,,0,,,67,0
12478,note_on,46,0,2,,,,,,,,,1,,,50,0
12480,note_on,2,0,2,,,,,,,,,1,,,55,126
12480,note_on,2,0,1,,,,,,,,,0,,,62,0
12576,note_on,0,0,1,,,,,,,,,0,,,72,105
12576,note_on,96,0,1,,,,,,,,,0,,,69,105
12608,note_on,32,0,1,,,,,,,,,0,,,72,0
12608,note_on,0,0,1,,,,,,,,,0,,,69,0
12672,note_on,64,0,1,,,,,,,,,0,,,67,105
12672,note_on,0,0,1,,,,,,,,,0,,,74,105
12672,note_on,192,0,2,,,,,,,,,1,,,55,0
12672,note_on,0,0,1,,,,,,,,,0,,,71,105
12694,note_on,22,0,1,,,,,,,,,0,,,71,0
12696,note_on,2,0,1,,,,,,,,,0,,,69,105
12718,note_on,22,0,1,,,,,,,,,0,,,69,0
12720,note_on,48,0,2,,,,,,,,,1,,,43,105
12720,note_on,2,0,1,,,,,,,,,0,,,71,105
12766,note_on,46,0,2,,,,,,,,,1,,,43,0
12768,note_on,2,0,2,,,,,,,,,1,,,47,112
12814,note_on,46,0,2,,,,,,,,,1,,,47,0
12816,note_on,96,0,1,,,,,,,,,0,,,67,0
12816,note_on,2,0,2,,,,,,,,,1,,,50,119
12832,note_on,16,0,1,,,,,,,,,0,,,74,0
12862,note_on,46,0,2,,,,,,,,,1,,,50,0
12862,note_on,30,0,1,,,,,,,,,0,,,71,0
12864,note_on,2,0,2,,,,,,,,,1,,,55,126
12960,note_on,0,0,1,,,,,,,,,0,,,76,105
12960,note_on,98,0,1,,,,,,,,,0,,,72,105
12992,note_on,32,0,1,,,,,,,,,0,,,76,0
12992,note_on,0,0,1,,,,,,,,,0,,,72,0
13056,note_on,64,0,1,,,,,,,,,0,,,74,105
13056,note_on,0,0,1,,,,,,,,,0,,,77,105
13056,note_on,192,0,2,,,,,,,,,1,,,55,0
13104,note_on,48,0,2,,,,,,,,,1,,,57,105
13150,note_on,94,0,1,,,,,,,,,0,,,77,0
13150,note_on,46,0,2,,,,,,,,,1,,,57,0
13150,note_on,0,0,1,,,,,,,,,0,,,74,0
13152,note_on,2,0,2,,,,,,,,,1,,,59,105
13152,note_on,2,0,1,,,,,,,,,0,,,74,105
13152,note_on,0,0,1,,,,,,,,,0,,,77,105
13198,note_on,46,0,2,,,,,,,,,1,,,59,0
13200,note_on,2,0,2,,,,,,,,,1,,,57,105
13246,note_on,46,0,2,,,,,,,,,1,,,57,0
13246,note_on,0,0,1,,,,,,,,,0,,,74,0
13246,note_on,94,0,1,,,,,,,,,0,,,77,0
13248,note_on,0,0,1,,,,,,,,,0,,,77,105
13248,note_on,2,0,2,,,,,,,,,1,,,56,105
13248,note_on,2,0,1,,,,,,,,,0,,,74,105
13280,note_on,32,0,1,,,,,,,,,0,,,77,0
13280,note_on,0,0,1,,,,,,,,,0,,,74,0
13294,note_on,46,0,2,,,,,,,,,1,,,56,0
13296,note_on,2,0,2,,,,,,,,,1,,,59,105
13342,note_on,46,0,2,,,,,,,,,1,,,59,0
13344,note_on,2,0,2,,,,,,,,,1,,,52,105
13344,note_on,64,0,1,,,,,,,,,0,,,72,105
13344,note_on,0,0,1,,,,,,,,,0,,,76,105
13376,note_on,32,0,1,,,,,,,,,0,,,76,0
13376,note_on,0,0,1,,,,,,,,,0,,,72,0
13390,note_on,46,0,2,,,,,,,,,1,,,52,0
13392,note_on,2,0,2,,,,,,,,,1,,,56,105
13438,note_on,46,0,2,,,,,,,,,1,,,56,0
13440,note_on,64,0,1,,,,,,,,,0,,,71,127
13440,note_on,0,0,1,,,,,,,,,0,,,74,127
13440,note_on,2,0,2,,,,,,,,,1,,,57,105
13486,note_on,46,0,2,,,,,,,,,1,,,57,0
13488,note_on,2,0,2,,,,,,,,,1,,,45,105
13534,note_on,46,0,2,,,,,,,,,1,,,45,0
13536,note_on,0,0,1,,,,,,,,,0,,,71,0
13536,note_on,0,0,1,,,,,,,,,0,,,69,105
13536,note_on,0,0,1,,,,,,,,,0,,,72,105
13536,note_on,96,0,1,,,,,,,,,0,,,74,0
13536,note_on,2,0,2,,,,,,,,,1,,,48,105
13582,note_on,46,0,2,,,,,,,,,1,,,48,0
13584,note_on,2,0,2,,,,,,,,,1,,,52,105
13630,note_on,46,0,2,,,,,,,,,1,,,52,0
13630,note_on,0,0,1,,,,,,,,,0,,,69,0
13630,note_on,94,0,1,,,,,,,,,0,,,72,0
13632,note_on,2,0,2,,,,,,,,,1,,,57,105
13678,note_on,46,0,2,,,,,,,,,1,,,57,0
13680,note_on,2,0,2,,,,,,,,,1,,,59,110
13726,note_on,46,0,2,,,,,,,,,1,,,59,0
13728,note_on,2,0,2,,,,,,,,,1,,,60,115
13774,note_on,46,0,2,,,,,,,,,1,,,60,0
13776,note_on,2,0,2,,,,,,,,,1,,,62,120
13822,note_on,46,0,2,,,,,,,,,1,,,62,0
13824,note_on,0,0,1,,,,,,,,,0,,,72,105
13824,note_on,0,0,1,,,,,,,,,0,,,79,105
13824,note_on,194,0,1,,,,,,,,,0,,,67,105
13824,note_on,2,0,2,,,,,,,,,1,,,64,126
13870,note_on,46,0,2,,,,,,,,,1,,,64,0
13872,note_on,2,0,2,,,,,,,,,1,,,52,105
13918,note_on,46,0,2,,,,,,,,,1,,,52,0
13920,note_on,2,0,2,,,,,,,,,1,,,55,112
13966,note_on,46,0,2,,,,,,,,,1,,,55,0
13968,note_on,2,0,2,,,,,,,,,1,,,60,119
13984,note_on,160,0,1,,,,,,,,,0,,,79,0
13984,note_on,0,0,1,,,,,,,,,0,,,72,0
13984,note_on,0,0,1,,,,,,,,,0,,,67,0
14014,note_on,46,0,2,,,,,,,,,1,,,60,0
14016,note_on,2,0,2,,,,,,,,,1,,,64,126
14112,note_on,128,0,1,,,,,,,,,0,,,67,105
14112,note_on,0,0,1,,,,,,,,,0,,,70,105
14144,note_on,32,0,1,,,,,,,,,0,,,70,0
14144,note_on,0,0,1,,,,,,,,,0,,,67,0
14208,note_on,192,0,2,,,,,,,,,1,,,64,0
14208,note_on,64,0,1,,,,,,,,,0,,,65,105
14208,note_on,0,0,1,,,,,,,,,0,,,69,105
14232,note_on,0,0,1,,,,,,,,,0,,,67,105
14232,note_on,24,0,1,,,,,,,,,0,,,69,0
14256,note_on,48,0,2,,,,,,,,,1,,,53,105
14256,note_on,0,0,1,,,,,,,,,0,,,69,105
14256,note_on,24,0,1,,,,,,,,,0,,,67,0
14302,note_on,46,0,2,,,,,,,,,1,,,53,0
14304,note_on,2,0,2,,,,,,,,,1,,,57,105
14350,note_on,46,0,2,,,,,,,,,1,,,57,0
14352,note_on,2,0,2,,,,,,,,,1,,,60,105
14368,note_on,112,0,1,,,,,,,,,0,,,65,0
14398,note_on,30,0,1,,,,,,,,,0,,,69,0
14398,note_on,46,0,2,,,,,,,,,1,,,60,0
14400,note_on,2,0,2,,,,,,,,,1,,,65,105
14446,note_on,46,0,2,,,,,,,,,1,,,65,0
14448,note_on,2,0,2,,,,,,,,,1,,,64,105
14494,note_on,46,0,2,,,,,,,,,1,,,64,0
14496,note_on,2,0,2,,,,,,,,,1,,,65,105
14496,note_on,0,0,1,,,,,,,,,0,,,81,105
14496,note_on,98,0,1,,,,,,,,,0,,,72,105
14528,note_on,32,0,1,,,,,,,,,0,,,81,0
14528,note_on,0,0,1,,,,,,,,,0,,,72,0
14542,note_on,46,0,2,,,,,,,,,1,,,65,0
14544,note_on,2,0,2,,,,,,,,,1,,,64,105
14590,note_on,46,0,2,,,,,,,,,1,,,64,0
14592,note_on,64,0,1,,,,,,,,,0,,,77,105
14592,note_on,0,0,1,,,,,,,,,0,,,83,105
14592,note_on,2,0,2,,,,,,,,,1,,,62,105
14624,note_on,0,0,1,,,,,,,,,0,,,77,0
14624,note_on,32,0,1,,,,,,,,,0,,,83,0
14638,note_on,46,0,2,,,,,,,,,1,,,62,0
14640,note_on,2,0,2,,,,,,,,,1,,,60,105
14686,note_on,46,0,2,,,,,,,,,1,,,60,0
14688,note_on,0,0,1,,,,,,,,,0,,,84,105
14688,note_on,64,0,1,,,,,,,,,0,,,76,105
14688,note_on,2,0,2,,,,,,,,,1,,,62,105
14720,note_on,0,0,1,,,,,,,,,0,,,76,0
14720,note_on,32,0,1,,,,,,,,,0,,,84,0
14734,note_on,46,0,2,,,,,,,,,1,,,62,0
14736,note_on,2,0,2,,,,,,,,,1,,,60,105
14782,note_on,46,0,2,,,,,,,,,1,,,60,0
14784,note_on,2,0,2,,,,,,,,,1,,,59,105
14784,note_on,0,0,1,,,,,,,,,0,,,77,105
14784,note_on,64,0,1,,,,,,,,,0,,,74,105
14816,note_on,0,0,1,,,,,,,,,0,,,74,0
14816,note_on,32,0,1,,,,,,,,,0,,,77,0
14830,note_on,46,0,2,,,,,,,,,1,,,59,0
14832,note_on,2,0,2,,,,,,,,,1,,,55,105
14878,note_on,46,0,2,,,,,,,,,1,,,55,0
14880,note_on,64,0,1,,,,,,,,,0,,,72,105
14880,note_on,0,0,1,,,,,,,,,0,,,76,105
14880,note_on,2,0,2,,,,,,,,,1,,,60,105
14912,note_on,32,0,1,,,,,,,,,0,,,76,0
14912,note_on,0,0,1,,,,,,,,,0,,,72,0
14926,note_on,46,0,2,,,,,,,,,1,,,60,0
14928,note_on,2,0,2,,,,,,,,,1,,,64,105
14974,note_on,46,0,2,,,,,,,,,1,,,64,0
14976,note_on,0,0,1,,,,,,,,,0,,,77,105
14976,note_on,64,0,1,,,,,,,,,0,,,72,105
14976,note_on,2,0,2,,,,,,,,,1,,,67,105
14998,note_on,22,0,1,,,,,,,,,0,,,77,0
15000,note_on,2,0,1,,,,,,,,,0,,,76,105
15022,note_on,46,0,2,,,,,,,,,1,,,67,0
15024,note_on,2,0,2,,,,,,,,,1,,,66,105
15070,note_on,70,0,1,,,,,,,,,0,,,76,0
15070,note_on,46,0,2,,,,,,,,,1,,,66,0
15070,note_on,0,0,1,,,,,,,,,0,,,72,0
15072,note_on,0,0,1,,,,,,,,,0,,,74,105
15072,note_on,2,0,1,,,,,,,,,0,,,71,105
15072,note_on,2,0,2,,,,,,,,,1,,,67,105
15118,note_on,46,0,2,,,,,,,,,1,,,67,0
15120,note_on,2,0,2,,,,,,,,,1,,,62,105
15166,note_on,0,0,1,,,,,,,,,0,,,71,0
15166,note_on,94,0,1,,,,,,,,,0,,,74,0
15166,note_on,46,0,2,,,,,,,,,1,,,62,0
15168,note_on,2,0,2,,,,,,,,,1,,,59,105
15214,note_on,46,0,2,,,,,,,,,1,,,59,0
15216,note_on,2,0,2,,,,,,,,,1,,,62,63
15216,note_on,50,0,1,,,,,,,,,0,,,67,63
15262,note_on,46,0,2,,,,,,,,,1,,,62,0
15264,note_on,2,0,2,,,,,,,,,1,,,55,63
15264,note_on,0,0,1,,,,,,,,,0,,,71,63
15264,note_on,48,0,1,,,,,,,,,0,,,67,0
15310,note_on,46,0,2,,,,,,,,,1,,,55,0
15312,note_on,0,0,1,,,,,,,,,0,,,74,63
15312,note_on,48,0,1,,,,,,,,,0,,,71,0
15312,note_on,2,0,2,,,,,,,,,1,,,59,63
15358,note_on,46,0,2,,,,,,,,,1,,,59,0
15360,note_on,2,0,2,,,,,,,,,1,,,52,63
15360,note_on,0,0,1,,,,,,,,,0,,,79,63
15360,note_on,48,0,1,,,,,,,,,0,,,74,0
15392,note_on,32,0,2,,,,,,,,,1,,,52,0
15408,note_on,0,0,1,,,,,,,,,0,,,77,63
15408,note_on,48,0,1,,,,,,,,,0,,,79,0
15456,note_on,0,0,1,,,,,,,,,0,,,76,63
15456,note_on,48,0,1,,,,,,,,,0,,,77,0
15456,note_on,64,0,2,,,,,,,,,1,,,60,63
15488,note_on,32,0,2,,,,,,,,,1,,,60,0
15504,note_on,48,0,1,,,,,,,,,0,,,76,0
15504,note_on,0,0,1,,,,,,,,,0,,,74,63
15552,note_on,0,0,1,,,,,,,,,0,,,72,63
15552,note_on,64,0,2,,,,,,,,,1,,,52,63
15552,note_on,48,0,1,,,,,,,,,0,,,74,0
15584,note_on,32,0,2,,,,,,,,,1,,,52,0
15600,note_on,0,0,1,,,,,,,,,0,,,70,63
15600,note_on,48,0,1,,,,,,,,,0,,,72,0
15648,note_on,64,0,2,,,,,,,,,1,,,60,63
15648,note_on,0,0,1,,,,,,,,,0,,,69,63
15648,note_on,48,0,1,,,,,,,,,0,,,70,0
15680,note_on,32,0,2,,,,,,,,,1,,,60,0
15696,note_on,0,0,1,,,,,,,,,0,,,67,63
15696,note_on,48,0,1,,,,,,,,,0,,,69,0
15744,note_on,64,0,2,,,,,,,,,1,,,53,63
15744,note_on,0,0,1,,,,,,,,,0,,,69,63
15744,note_on,48,0,1,,,,,,,,,0,,,67,0
15776,note_on,32,0,2,,,,,,,,,1,,,53,0
15792,note_on,0,0,1,,,,,,,,,0,,,65,63
15792,note_on,48,0,1,,,,,,,,,0,,,69,0
15840,note_on,0,0,1,,,,,,,,,0,,,69,63
15840,note_on,48,0,1,,,,,,,,,0,,,65,0
15840,note_on,64,0,2,,,,,,,,,1,,,60,63
15872,note_on,32,0,2,,,,,,,,,1,,,60,0
15888,note_on,0,0,1,,,,,,,,,0,,,72,63
15888,note_on,48,0,1,,,,,,,,,0,,,69,0
15936,note_on,64,0,2,,,,,,,,,1,,,52,63
15936,note_on,0,0,1,,,,,,,,,0,,,69,63
15936,note_on,48,0,1,,,,,,,,,0,,,72,0
15968,note_on,32,0,2,,,,,,,,,1,,,52,0
15984,note_on,48,0,1,,,,,,,,,0,,,69,0
15984,note_on,0,0,1,,,,,,,,,0,,,65,63
16032,note_on,64,0,2,,,,,,,,,1,,,60,63
16032,note_on,0,0,1,,,,,,,,,0,,,69,63
16032,note_on,48,0,1,,,,,,,,,0,,,65,0
16064,note_on,32,0,2,,,,,,,,,1,,,60,0
16080,note_on,0,0,1,,,,,,,,,0,,,72,63
16080,note_on,48,0,1,,,,,,,,,0,,,69,0
16128,note_on,48,0,1,,,,,,,,,0,,,72,0
16128,note_on,0,0,1,,,,,,,,,0,,,77,63
16128,note_on,64,0,2,,,,,,,,,1,,,50,63
16160,note_on,32,0,2,,,,,,,,,1,,,50,0
16176,note_on,0,0,1,,,,,,,,,0,,,76,63
16176,note_on,48,0,1,,,,,,,,,0,,,77,0
16224,note_on,0,0,1,,,,,,,,,0,,,74,63
16224,note_on,48,0,1,,,,,,,,,0,,,76,0
16224,note_on,64,0,2,,,,,,,,,1,,,59,63
16256,note_on,32,0,2,,,,,,,,,1,,,59,0
16272,note_on,0,0,1,,,,,,,,,0,,,72,63
16272,note_on,48,0,1,,,,,,,,,0,,,74,0
16320,note_on,0,0,1,,,,,,,,,0,,,71,63
16320,note_on,48,0,1,,,,,,,,,0,,,72,0
16320,note_on,64,0,2,,,,,,,,,1,,,48,63
16352,note_on,32,0,2,,,,,,,,,1,,,48,0
16368,note_on,0,0,1,,,,,,,,,0,,,69,63
16368,note_on,48,0,1,,,,,,,,,0,,,71,0
16416,note_on,64,0,2,,,,,,,,,1,,,57,63
16416,note_on,48,0,1,,,,,,,,,0,,,69,0
16416,note_on,0,0,1,,,,,,,,,0,,,67,63
16448,note_on,32,0,2,,,,,,,,,1,,,57,0
16464,note_on,0,0,1,,,,,,,,,0,,,65,63
16464,note_on,48,0,1,,,,,,,,,0,,,67,0
16512,note_on,64,0,2,,,,,,,,,1,,,47,63
16512,note_on,0,0,1,,,,,,,,,0,,,67,63
16512,note_on,48,0,1,,,,,,,,,0,,,65,0
16544,note_on,32,0,2,,,,,,,,,1,,,47,0
16560,note_on,0,0,1,,,,,,,,,0,,,65,63
16560,note_on,48,0,1,,,,,,,,,0,,,67,0
16608,note_on,64,0,2,,,,,,,,,1,,,53,63
16608,note_on,48,0,1,,,,,,,,,0,,,65,0
16608,note_on,0,0,1,,,,,,,,,0,,,67,63
16640,note_on,32,0,2,,,,,,,,,1,,,53,0
16656,note_on,0,0,1,,,,,,,,,0,,,74,63
16656,note_on,48,0,1,,,,,,,,,0,,,67,0
16704,note_on,48,0,1,,,,,,,,,0,,,74,0
16704,note_on,0,0,1,,,,,,,,,0,,,67,63
16704,note_on,64,0,2,,,,,,,,,1,,,52,63
16736,note_on,32,0,2,,,,,,,,,1,,,52,0
16752,note_on,48,0,1,,,,,,,,,0,,,67,0
16752,note_on,0,0,1,,,,,,,,,0,,,65,63
16800,note_on,64,0,2,,,,,,,,,1,,,50,63
16800,note_on,48,0,1,,,,,,,,,0,,,65,0
16800,note_on,0,0,1,,,,,,,,,0,,,67,63
16832,note_on,32,0,2,,,,,,,,,1,,,50,0
16848,note_on,48,0,1,,,,,,,,,0,,,67,0
16848,note_on,0,0,1,,,,,,,,,0,,,74,63
16896,note_on,48,0,1,,,,,,,,,0,,,74,0
16896,note_on,0,0,1,,,,,,,,,0,,,76,63
16896,note_on,64,0,2,,,,,,,,,1,,,48,63
16944,note_on,48,0,1,,,,,,,,,0,,,76,0
16944,note_on,0,0,1,,,,,,,,,0,,,74,65
16990,note_on,94,0,2,,,,,,,,,1,,,48,0
16992,note_on,48,0,1,,,,,,,,,0,,,74,0
16992,note_on,0,0,1,,,,,,,,,0,,,72,67
16992,note_on,2,0,2,,,,,,,,,1,,,52,68
17040,note_on,48,0,1,,,,,,,,,0,,,72,0
17040,note_on,0,0,1,,,,,,,,,0,,,71,69
17086,note_on,94,0,2,,,,,,,,,1,,,52,0
17088,note_on,2,0,2,,,,,,,,,1,,,53,73
17088,note_on,0,0,1,,,,,,,,,0,,,69,71
17088,note_on,48,0,1,,,,,,,,,0,,,71,0
17136,note_on,48,0,1,,,,,,,,,0,,,69,0
17136,note_on,0,0,1,,,,,,,,,0,,,67,73
17182,note_on,94,0,2,,,,,,,,,1,,,53,0
17184,note_on,0,0,1,,,,,,,,,0,,,65,75
17184,note_on,48,0,1,,,,,,,,,0,,,67,0
17184,note_on,2,0,2,,,,,,,,,1,,,57,78
17232,note_on,48,0,1,,,,,,,,,0,,,65,0
17232,note_on,0,0,1,,,,,,,,,0,,,64,78
17278,note_on,94,0,2,,,,,,,,,1,,,57,0
17280,note_on,48,0,1,,,,,,,,,0,,,64,0
17280,note_on,2,0,2,,,,,,,,,1,,,53,83
17280,note_on,0,0,1,,,,,,,,,0,,,62,81
17328,note_on,48,0,1,,,,,,,,,0,,,62,0
17328,note_on,0,0,1,,,,,,,,,0,,,65,84
17376,note_on,0,0,1,,,,,,,,,0,,,69,87
17376,note_on,48,0,1,,,,,,,,,0,,,65,0
17376,note_on,0,0,2,,,,,,,,,1,,,50,88
17376,note_on,96,0,2,,,,,,,,,1,,,53,0
17424,note_on,0,0,1,,,,,,,,,0,,,72,90
17424,note_on,48,0,1,,,,,,,,,0,,,69,0
17472,note_on,0,0,1,,,,,,,,,0,,,71,93
17472,note_on,48,0,1,,,,,,,,,0,,,72,0
17472,note_on,96,0,2,,,,,,,,,1,,,50,0
17472,note_on,0,0,2,,,,,,,,,1,,,55,93
17520,note_on,0,0,1,,,,,,,,,0,,,67,96
17520,note_on,48,0,1,,,,,,,,,0,,,71,0
17568,note_on,48,0,1,,,,,,,,,0,,,67,0
17568,note_on,96,0,2,,,,,,,,,1,,,55,0
17568,note_on,0,0,1,,,,,,,,,0,,,71,99
17568,note_on,0,0,2,,,,,,,,,1,,,53,99
17616,note_on,0,0,1,,,,,,,,,0,,,74,102
17616,note_on,48,0,1,,,,,,,,,0,,,71,0
17664,note_on,96,0,2,,,,,,,,,1,,,53,0
17664,note_on,0,0,1,,,,,,,,,0,,,79,105
17664,note_on,0,0,2,,,,,,,,,1,,,52,105
17664,note_on,48,0,1,,,,,,,,,0,,,74,0
17696,note_on,32,0,2,,,,,,,,,1,,,52,0
17696,note_on,32,0,1,,,,,,,,,0,,,79,0
17760,note_on,64,0,1,,,,,,,,,0,,,72,105
17760,note_on,64,0,2,,,,,,,,,1,,,57,105
17792,note_on,32,0,1,,,,,,,,,0,,,72,0
17828,note_on,68,0,2,,,,,,,,,1,,,57,0
17856,note_on,64,0,1,,,,,,,,,0,,,76,105
17856,note_on,28,0,2,,,,,,,,,1,,,53,105
17904,note_on,48,0,1,,,,,,,,,0,,,76,0
17904,note_on,0,0,1,,,,,,,,,0,,,74,105
17952,note_on,0,0,2,,,,,,,,,1,,,55,105
17952,note_on,48,0,1,,,,,,,,,0,,,74,0
17952,note_on,0,0,1,,,,,,,,,0,,,72,105
17952,note_on,96,0,2,,,,,,,,,1,,,53,0
18000,note_on,48,0,1,,,,,,,,,0,,,72,0
18000,note_on,0,0,1,,,,,,,,,0,,,71,105
18046,note_on,94,0,2,,,,,,,,,1,,,55,0
18048,note_on,0,0,1,,,,,,,,,0,,,72,105
18048,note_on,48,0,1,,,,,,,,,0,,,71,0
18048,note_on,2,0,2,,,,,,,,,1,,,48,127
18096,note_on,48,0,1,,,,,,,,,0,,,72,0
18096,note_on,0,0,1,,,,,,,,,0,,,67,105
18144,note_on,48,0,1,,,,,,,,,0,,,67,0
18144,note_on,0,0,1,,,,,,,,,0,,,64,105
18192,note_on,48,0,1,,,,,,,,,0,,,64,0
18192,note_on,0,0,1,,,,,,,,,0,,,60,105
18238,note_on,46,0,1,,,,,,,,,0,,,60,0
18240,note_on,0,0,2,,,,,,,,,1,,,36,105
18240,note_on,192,0,2,,,,,,,,,1,,,48,0
18400,note_on,160,0,2,,,,,,,,,1,,,36,0
18432,marker,6144,1,0,,,,,,,,,,,,,
18432,note_on,0,0,1,,,,,,,,,0,,,71,105
18432,end_of_track,0,1,0,,,,,,,,,,,,,
18432,note_on,194,0,1,,,,,,,,,0,,,62,100
18432,note_on,0,0,1,,,,,,,,,0,,,67,105
18454,note_on,22,0,1,,,,,,,,,0,,,67,0
18456,note_on,2,0,1,,,,,,,,,0,,,66,105
18478,note_on,22,0,1,,,,,,,,,0,,,66,0
18480,note_on,2,0,1,,,,,,,,,0,,,67,105
18480,note_on,80,0,2,,,,,,,,,1,,,43,105
18526,note_on,46,0,2,,,,,,,,,1,,,43,0
18528,note_on,2,0,2,,,,,,,,,1,,,47,112
18574,note_on,46,0,2,,,,,,,,,1,,,47,0
18576,note_on,2,0,2,,,,,,,,,1,,,50,119
18592,note_on,112,0,1,,,,,,,,,0,,,71,0
18622,note_on,30,0,1,,,,,,,,,0,,,67,0
18622,note_on,46,0,2,,,,,,,,,1,,,50,0
18624,note_on,2,0,1,,,,,,,,,0,,,62,0
18624,note_on,2,0,2,,,,,,,,,1,,,55,126
18720,note_on,96,0,1,,,,,,,,,0,,,69,105
18720,note_on,0,0,1,,,,,,,,,0,,,72,105
18752,note_on,32,0,1,,,,,,,,,0,,,72,0
18752,note_on,0,0,1,,,,,,,,,0,,,69,0
18816,note_on,192,0,2,,,,,,,,,1,,,55,0
18816,note_on,0,0,1,,,,,,,,,0,,,74,105
18816,note_on,0,0,1,,,,,,,,,0,,,71,105
18816,note_on,64,0,1,,,,,,,,,0,,,67,100
18838,note_on,22,0,1,,,,,,,,,0,,,71,0
18840,note_on,2,0,1,,,,,,,,,0,,,69,105
18862,note_on,22,0,1,,,,,,,,,0,,,69,0
18864,note_on,48,0,2,,,,,,,,,1,,,43,105
18864,note_on,2,0,1,,,,,,,,,0,,,71,105
18910,note_on,46,0,2,,,,,,,,,1,,,43,0
18912,note_on,2,0,2,,,,,,,,,1,,,47,112
18958,note_on,46,0,2,,,,,,,,,1,,,47,0
18960,note_on,2,0,2,,,,,,,,,1,,,50,119
18976,note_on,112,0,1,,,,,,,,,0,,,74,0
19006,note_on,30,0,1,,,,,,,,,0,,,71,0
19006,note_on,46,0,2,,,,,,,,,1,,,50,0
19008,note_on,2,0,1,,,,,,,,,0,,,67,0
19008,note_on,2,0,2,,,,,,,,,1,,,55,126
19104,note_on,96,0,1,,,,,,,,,0,,,72,105
19104,note_on,0,0,1,,,,,,,,,0,,,76,105
19136,note_on,0,0,1,,,,,,,,,0,,,72,0
19136,note_on,32,0,1,,,,,,,,,0,,,76,0
19200,note_on,192,0,2,,,,,,,,,1,,,55,0
19200,note_on,0,0,1,,,,,,,,,0,,,77,105
19200,note_on,64,0,1,,,,,,,,,0,,,74,105
19248,note_on,48,0,2,,,,,,,,,1,,,57,105
19294,note_on,46,0,2,,,,,,,,,1,,,57,0
19294,note_on,0,0,1,,,,,,,,,0,,,74,0
19294,note_on,94,0,1,,,,,,,,,0,,,77,0
19296,note_on,2,0,2,,,,,,,,,1,,,59,105
19296,note_on,2,0,1,,,,,,,,,0,,,74,105
19296,note_on,0,0,1,,,,,,,,,0,,,77,105
19342,note_on,46,0,2,,,,,,,,,1,,,59,0
19344,note_on,2,0,2,,,,,,,,,1,,,57,105
19390,note_on,0,0,1,,,,,,,,,0,,,74,0
19390,note_on,94,0,1,,,,,,,,,0,,,77,0
19390,note_on,46,0,2,,,,,,,,,1,,,57,0
19392,note_on,2,0,1,,,,,,,,,0,,,74,105
19392,note_on,0,0,1,,,,,,,,,0,,,77,105
19392,note_on,2,0,2,,,,,,,,,1,,,56,105
19424,note_on,0,0,1,,,,,,,,,0,,,74,0
19424,note_on,32,0,1,,,,,,,,,0,,,77,0
19438,note_on,46,0,2,,,,,,,,,1,,,56,0
19440,note_on,2,0,2,,,,,,,,,1,,,59,105
19486,note_on,46,0,2,,,,,,,,,1,,,59,0
19488,note_on,64,0,1,,,,,,,,,0,,,72,105
19488,note_on,0,0,1,,,,,,,,,0,,,76,105
19488,note_on,2,0,2,,,,,,,,,1,,,52,105
19520,note_on,32,0,1,,,,,,,,,0,,,76,0
19520,note_on,0,0,1,,,,,,,,,0,,,72,0
19534,note_on,46,0,2,,,,,,,,,1,,,52,0
19536,note_on,2,0,2,,,,,,,,,1,,,56,105
19582,note_on,46,0,2,,,,,,,,,1,,,56,0
19584,note_on,2,0,2,,,,,,,,,1,,,57,105
19584,note_on,0,0,1,,,,,,,,,0,,,74,127
19584,note_on,64,0,1,,,,,,,,,0,,,71,127
19630,note_on,46,0,2,,,,,,,,,1,,,57,0
19632,note_on,2,0,2,,,,,,,,,1,,,45,105
19678,note_on,46,0,2,,,,,,,,,1,,,45,0
19680,note_on,0,0,1,,,,,,,,,0,,,69,105
19680,note_on,96,0,1,,,,,,,,,0,,,74,0
19680,note_on,0,0,1,,,,,,,,,0,,,71,0
19680,note_on,0,0,1,,,,,,,,,0,,,72,105
19680,note_on,2,0,2,,,,,,,,,1,,,48,105
19726,note_on,46,0,2,,,,,,,,,1,,,48,0
19728,note_on,2,0,2,,,,,,,,,1,,,52,105
19774,note_on,46,0,2,,,,,,,,,1,,,52,0
19774,note_on,94,0,1,,,,,,,,,0,,,72,0
19774,note_on,0,0,1,,,,,,,,,0,,,69,0
19776,note_on,2,0,2,,,,,,,,,1,,,57,105
19822,note_on,46,0,2,,,,,,,,,1,,,57,0
19824,note_on,2,0,2,,,,,,,,,1,,,59,110
19870,note_on,46,0,2,,,,,,,,,1,,,59,0
19872,note_on,2,0,2,,,,,,,,,1,,,60,115
19918,note_on,46,0,2,,,,,,,,,1,,,60,0
19920,note_on,2,0,2,,,,,,,,,1,,,62,120
19966,note_on,46,0,2,,,,,,,,,1,,,62,0
19968,note_on,0,0,1,,,,,,,,,0,,,72,105
19968,note_on,0,0,1,,,,,,,,,0,,,79,105
19968,note_on,2,0,2,,,,,,,,,1,,,64,126
19968,note_on,194,0,1,,,,,,,,,0,,,67,105
20014,note_on,46,0,2,,,,,,,,,1,,,64,0
20016,note_on,2,0,2,,,,,,,,,1,,,52,105
20062,note_on,46,0,2,,,,,,,,,1,,,52,0
20064,note_on,2,0,2,,,,,,,,,1,,,55,112
20110,note_on,46,0,2,,,,,,,,,1,,,55,0
20112,note_on,2,0,2,,,,,,,,,1,,,60,119
20128,note_on,160,0,1,,,,,,,,,0,,,79,0
20128,note_on,0,0,1,,,,,,,,,0,,,72,0
20128,note_on,0,0,1,,,,,,,,,0,,,67,0
20158,note_on,46,0,2,,,,,,,,,1,,,60,0
20160,note_on,2,0,2,,,,,,,,,1,,,64,126
20256,note_on,0,0,1,,,,,,,,,0,,,70,105
20256,note_on,128,0,1,,,,,,,,,0,,,67,105
20288,note_on,0,0,1,,,,,,,,,0,,,67,0
20288,note_on,32,0,1,,,,,,,,,0,,,70,0
20352,note_on,64,0,1,,,,,,,,,0,,,65,105
20352,note_on,0,0,1,,,,,,,,,0,,,69,105
20352,note_on,192,0,2,,,,,,,,,1,,,64,0
20376,note_on,24,0,1,,,,,,,,,0,,,69,0
20376,note_on,0,0,1,,,,,,,,,0,,,67,105
20400,note_on,48,0,2,,,,,,,,,1,,,53,105
20400,note_on,0,0,1,,,,,,,,,0,,,69,105
20400,note_on,24,0,1,,,,,,,,,0,,,67,0
20446,note_on,46,0,2,,,,,,,,,1,,,53,0
20448,note_on,2,0,2,,,,,,,,,1,,,57,105
20494,note_on,46,0,2,,,,,,,,,1,,,57,0
20496,note_on,2,0,2,,,,,,,,,1,,,60,105
20512,note_on,112,0,1,,,,,,,,,0,,,65,0
20542,note_on,30,0,1,,,,,,,,,0,,,69,0
20542,note_on,46,0,2,,,,,,,,,1,,,60,0
20544,note_on,2,0,2,,,,,,,,,1,,,65,105
20590,note_on,46,0,2,,,,,,,,,1,,,65,0
20592,note_on,2,0,2,,,,,,,,,1,,,64,105
20638,note_on,46,0,2,,,,,,,,,1,,,64,0
20640,note_on,98,0,1,,,,,,,,,0,,,72,105
20640,note_on,0,0,1,,,,,,,,,0,,,81,105
20640,note_on,2,0,2,,,,,,,,,1,,,65,105
20672,note_on,32,0,1,,,,,,,,,0,,,81,0
20672,note_on,0,0,1,,,,,,,,,0,,,72,0
20686,note_on,46,0,2,,,,,,,,,1,,,65,0
20688,note_on,2,0,2,,,,,,,,,1,,,64,105
20734,note_on,46,0,2,,,,,,,,,1,,,64,0
20736,note_on,0,0,1,,,,,,,,,0,,,83,105
20736,note_on,64,0,1,,,,,,,,,0,,,77,105
20736,note_on,2,0,2,,,,,,,,,1,,,62,105
20768,note_on,0,0,1,,,,,,,,,0,,,77,0
20768,note_on,32,0,1,,,,,,,,,0,,,83,0
20782,note_on,46,0,2,,,,,,,,,1,,,62,0
20784,note_on,2,0,2,,,,,,,,,1,,,60,105
20830,note_on,46,0,2,,,,,,,,,1,,,60,0
20832,note_on,0,0,1,,,,,,,,,0,,,84,105
20832,note_on,64,0,1,,,,,,,,,0,,,76,105
20832,note_on,2,0,2,,,,,,,,,1,,,62,105
20864,note_on,32,0,1,,,,,,,,,0,,,84,0
20864,note_on,0,0,1,,,,,,,,,0,,,76,0
20878,note_on,46,0,2,,,,,,,,,1,,,62,0
20880,note_on,2,0,2,,,,,,,,,1,,,60,105
20926,note_on,46,0,2,,,,,,,,,1,,,60,0
20928,note_on,64,0,1,,,,,,,,,0,,,74,105
20928,note_on,2,0,2,,,,,,,,,1,,,59,105
20928,note_on,0,0,1,,,,,,,,,0,,,77,105
20960,note_on,0,0,1,,,,,,,,,0,,,74,0
20960,note_on,32,0,1,,,,,,,,,0,,,77,0
20974,note_on,46,0,2,,,,,,,,,1,,,59,0
20976,note_on,2,0,2,,,,,,,,,1,,,55,105
21022,note_on,46,0,2,,,,,,,,,1,,,55,0
21024,note_on,2,0,2,,,,,,,,,1,,,60,105
21024,note_on,0,0,1,,,,,,,,,0,,,76,105
21024,note_on,64,0,1,,,,,,,,,0,,,72,105
21056,note_on,0,0,1,,,,,,,,,0,,,72,0
21056,note_on,32,0,1,,,,,,,,,0,,,76,0
21070,note_on,46,0,2,,,,,,,,,1,,,60,0
21072,note_on,2,0,2,,,,,,,,,1,,,64,105
21118,note_on,46,0,2,,,,,,,,,1,,,64,0
21120,note_on,0,0,1,,,,,,,,,0,,,77,105
21120,note_on,2,0,2,,,,,,,,,1,,,67,105
21120,note_on,64,0,1,,,,,,,,,0,,,72,105
21142,note_on,22,0,1,,,,,,,,,0,,,77,0
21144,note_on,2,0,1,,,,,,,,,0,,,76,105
21166,note_on,46,0,2,,,,,,,,,1,,,67,0
21168,note_on,2,0,2,,,,,,,,,1,,,66,105
21214,note_on,70,0,1,,,,,,,,,0,,,76,0
21214,note_on,46,0,2,,,,,,,,,1,,,66,0
21214,note_on,0,0,1,,,,,,,,,0,,,72,0
21216,note_on,2,0,1,,,,,,,,,0,,,71,105
21216,note_on,0,0,1,,,,,,,,,0,,,74,105
21216,note_on,2,0,2,,,,,,,,,1,,,67,105
21262,note_on,46,0,2,,,,,,,,,1,,,67,0
21264,note_on,2,0,2,,,,,,,,,1,,,62,105
21310,note_on,94,0,1,,,,,,,,,0,,,74,0
21310,note_on,0,0,1,,,,,,,,,0,,,71,0
21310,note_on,46,0,2,,,,,,,,,1,,,62,0
21312,note_on,2,0,2,,,,,,,,,1,,,59,105
21358,note_on,46,0,2,,,,,,,,,1,,,59,0
21360,note_on,2,0,2,,,,,,,,,1,,,62,63
21360,note_on,50,0,1,,,,,,,,,0,,,67,63
21406,note_on,46,0,2,,,,,,,,,1,,,62,0
21408,note_on,2,0,2,,,,,,,,,1,,,55,63
21408,note_on,48,0,1,,,,,,,,,0,,,67,0
21408,note_on,0,0,1,,,,,,,,,0,,,71,63
21454,note_on,46,0,2,,,,,,,,,1,,,55,0
21456,note_on,2,0,2,,,,,,,,,1,,,59,63
21456,note_on,48,0,1,,,,,,,,,0,,,71,0
21456,note_on,0,0,1,,,,,,,,,0,,,74,63
21502,note_on,46,0,2,,,,,,,,,1,,,59,0
21504,note_on,0,0,1,,,,,,,,,0,,,79,63
21504,note_on,2,0,2,,,,,,,,,1,,,52,63
21504,note_on,48,0,1,,,,,,,,,0,,,74,0
21536,note_on,32,0,2,,,,,,,,,1,,,52,0
21552,note_on,0,0,1,,,,,,,,,0,,,77,63
21552,note_on,48,0,1,,,,,,,,,0,,,79,0
21600,note_on,0,0,1,,,,,,,,,0,,,76,63
21600,note_on,64,0,2,,,,,,,,,1,,,60,63
21600,note_on,48,0,1,,,,,,,,,0,,,77,0
21632,note_on,32,0,2,,,,,,,,,1,,,60,0
21648,note_on,0,0,1,,,,,,,,,0,,,74,63
21648,note_on,48,0,1,,,,,,,,,0,,,76,0
21696,note_on,0,0,1,,,,,,,,,0,,,72,63
21696,note_on,64,0,2,,,,,,,,,1,,,52,63
21696,note_on,48,0,1,,,,,,,,,0,,,74,0
21728,note_on,32,0,2,,,,,,,,,1,,,52,0
21744,note_on,48,0,1,,,,,,,,,0,,,72,0
21744,note_on,0,0,1,,,,,,,,,0,,,70,63
21792,note_on,64,0,2,,,,,,,,,1,,,60,63
21792,note_on,48,0,1,,,,,,,,,0,,,70,0
21792,note_on,0,0,1,,,,,,,,,0,,,69,63
21824,note_on,32,0,2,,,,,,,,,1,,,60,0
21840,note_on,48,0,1,,,,,,,,,0,,,69,0
21840,note_on,0,0,1,,,,,,,,,0,,,67,63
21888,note_on,48,0,1,,,,,,,,,0,,,67,0
21888,note_on,0,0,1,,,,,,,,,0,,,69,63
21888,note_on,64,0,2,,,,,,,,,1,,,53,63
21920,note_on,32,0,2,,,,,,,,,1,,,53,0
21936,note_on,0,0,1,,,,,,,,,0,,,65,63
21936,note_on,48,0,1,,,,,,,,,0,,,69,0
21984,note_on,0,0,1,,,,,,,,,0,,,69,63
21984,note_on,48,0,1,,,,,,,,,0,,,65,0
21984,note_on,64,0,2,,,,,,,,,1,,,60,63
22016,note_on,32,0,2,,,,,,,,,1,,,60,0
22032,note_on,48,0,1,,,,,,,,,0,,,69,0
22032,note_on,0,0,1,,,,,,,,,0,,,72,63
22080,note_on,64,0,2,,,,,,,,,1,,,52,63
22080,note_on,0,0,1,,,,,,,,,0,,,69,63
22080,note_on,48,0,1,,,,,,,,,0,,,72,0
22112,note_on,32,0,2,,,,,,,,,1,,,52,0
22128,note_on,0,0,1,,,,,,,,,0,,,65,63
22128,note_on,48,0,1,,,,,,,,,0,,,69,0
22176,note_on,64,0,2,,,,,,,,,1,,,60,63
22176,note_on,48,0,1,,,,,,,,,0,,,65,0
22176,note_on,0,0,1,,,,,,,,,0,,,69,63
22208,note_on,32,0,2,,,,,,,,,1,,,60,0
22224,note_on,0,0,1,,,,,,,,,0,,,72,63
22224,note_on,48,0,1,,,,,,,,,0,,,69,0
22272,note_on,0,0,1,,,,,,,,,0,,,77,63
22272,note_on,64,0,2,,,,,,,,,1,,,50,63
22272,note_on,48,0,1,,,,,,,,,0,,,72,0
22304,note_on,32,0,2,,,,,,,,,1,,,50,0
22320,note_on,48,0,1,,,,,,,,,0,,,77,0
22320,note_on,0,0,1,,,,,,,,,0,,,76,63
22368,note_on,64,0,2,,,,,,,,,1,,,59,63
22368,note_on,0,0,1,,,,,,,,,0,,,74,63
22368,note_on,48,0,1,,,,,,,,,0,,,76,0
22400,note_on,32,0,2,,,,,,,,,1,,,59,0
22416,note_on,0,0,1,,,,,,,,,0,,,72,63
22416,note_on,48,0,1,,,,,,,,,0,,,74,0
22464,note_on,0,0,1,,,,,,,,,0,,,71,63
22464,note_on,48,0,1,,,,,,,,,0,,,72,0
22464,note_on,64,0,2,,,,,,,,,1,,,48,63
22496,note_on,32,0,2,,,,,,,,,1,,,48,0
22512,note_on,0,0,1,,,,,,,,,0,,,69,63
22512,note_on,48,0,1,,,,,,,,,0,,,71,0
22560,note_on,64,0,2,,,,,,,,,1,,,57,63
22560,note_on,0,0,1,,,,,,,,,0,,,67,63
22560,note_on,48,0,1,,,,,,,,,0,,,69,0
22592,note_on,32,0,2,,,,,,,,,1,,,57,0
22608,note_on,0,0,1,,,,,,,,,0,,,65,63
22608,note_on,48,0,1,,,,,,,,,0,,,67,0
22656,note_on,0,0,1,,,,,,,,,0,,,67,63
22656,note_on,48,0,1,,,,,,,,,0,,,65,0
22656,note_on,64,0,2,,,,,,,,,1,,,47,63
22688,note_on,32,0,2,,,,,,,,,1,,,47,0
22704,note_on,0,0,1,,,,,,,,,0,,,65,63
22704,note_on,48,0,1,,,,,,,,,0,,,67,0
22752,note_on,48,0,1,,,,,,,,,0,,,65,0
22752,note_on,64,0,2,,,,,,,,,1,,,53,63
22752,note_on,0,0,1,,,,,,,,,0,,,67,63
22784,note_on,32,0,2,,,,,,,,,1,,,53,0
22800,note_on,0,0,1,,,,,,,,,0,,,74,63
22800,note_on,48,0,1,,,,,,,,,0,,,67,0
22848,note_on,48,0,1,,,,,,,,,0,,,74,0
22848,note_on,0,0,1,,,,,,,,,0,,,67,63
22848,note_on,64,0,2,,,,,,,,,1,,,52,63
22880,note_on,32,0,2,,,,,,,,,1,,,52,0
22896,note_on,0,0,1,,,,,,,,,0,,,65,63
22896,note_on,48,0,1,,,,,,,,,0,,,67,0
22944,note_on,0,0,1,,,,,,,,,0,,,67,63
22944,note_on,48,0,1,,,,,,,,,0,,,65,0
22944,note_on,64,0,2,,,,,,,,,1,,,50,63
22976,note_on,32,0,2,,,,,,,,,1,,,50,0
22992,note_on,0,0,1,,,,,,,,,0,,,74,63
22992,note_on,48,0,1,,,,,,,,,0,,,67,0
23040,note_on,48,0,1,,,,,,,,,0,,,74,0
23040,note_on,0,0,1,,,,,,,,,0,,,76,63
23040,note_on,64,0,2,,,,,,,,,1,,,48,63
23088,note_on,48,0,1,,,,,,,,,0,,,76,0
23088,note_on,0,0,1,,,,,,,,,0,,,74,65
23134,note_on,94,0,2,,,,,,,,,1,,,48,0
23136,note_on,2,0,2,,,,,,,,,1,,,52,68
23136,note_on,48,0,1,,,,,,,,,0,,,74,0
23136,note_on,0,0,1,,,,,,,,,0,,,72,67
23184,note_on,48,0,1,,,,,,,,,0,,,72,0
23184,note_on,0,0,1,,,,,,,,,0,,,71,69
23230,note_on,94,0,2,,,,,,,,,1,,,52,0
23232,note_on,2,0,2,,,,,,,,,1,,,53,73
23232,note_on,0,0,1,,,,,,,,,0,,,69,71
23232,note_on,48,0,1,,,,,,,,,0,,,71,0
23280,note_on,48,0,1,,,,,,,,,0,,,69,0
23280,note_on,0,0,1,,,,,,,,,0,,,67,73
23326,note_on,94,0,2,,,,,,,,,1,,,53,0
23328,note_on,48,0,1,,,,,,,,,0,,,67,0
23328,note_on,0,0,1,,,,,,,,,0,,,65,75
23328,note_on,2,0,2,,,,,,,,,1,,,57,78
23376,note_on,48,0,1,,,,,,,,,0,,,65,0
23376,note_on,0,0,1,,,,,,,,,0,,,64,78
23422,note_on,94,0,2,,,,,,,,,1,,,57,0
23424,note_on,48,0,1,,,,,,,,,0,,,64,0
23424,note_on,0,0,1,,,,,,,,,0,,,62,81
23424,note_on,2,0,2,,,,,,,,,1,,,53,83
23472,note_on,48,0,1,,,,,,,,,0,,,62,0
23472,note_on,0,0,1,,,,,,,,,0,,,65,84
23520,note_on,96,0,2,,,,,,,,,1,,,53,0
23520,note_on,0,0,2,,,,,,,,,1,,,50,88
23520,note_on,48,0,1,,,,,,,,,0,,,65,0
23520,note_on,0,0,1,,,,,,,,,0,,,69,87
23568,note_on,0,0,1,,,,,,,,,0,,,72,90
23568,note_on,48,0,1,,,,,,,,,0,,,69,0
23616,note_on,48,0,1,,,,,,,,,0,,,72,0
23616,note_on,0,0,1,,,,,,,,,0,,,71,93
23616,note_on,96,0,2,,,,,,,,,1,,,50,0
23616,note_on,0,0,2,,,,,,,,,1,,,55,93
23664,note_on,48,0,1,,,,,,,,,0,,,71,0
23664,note_on,0,0,1,,,,,,,,,0,,,67,96
23712,note_on,0,0,1,,,,,,,,,0,,,71,99
23712,note_on,48,0,1,,,,,,,,,0,,,67,0
23712,note_on,0,0,2,,,,,,,,,1,,,53,99
23712,note_on,96,0,2,,,,,,,,,1,,,55,0
23760,note_on,48,0,1,,,,,,,,,0,,,71,0
23760,note_on,0,0,1,,,,,,,,,0,,,74,102
23808,note_on,0,0,1,,,,,,,,,0,,,79,105
23808,note_on,48,0,1,,,,,,,,,0,,,74,0
23808,note_on,96,0,2,,,,,,,,,1,,,53,0
23808,note_on,0,0,2,,,,,,,,,1,,,52,105
23840,note_on,32,0,2,,,,,,,,,1,,,52,0
23840,note_on,32,0,1,,,,,,,,,0,,,79,0
23904,note_on,64,0,2,,,,,,,,,1,,,57,105
23904,note_on,64,0,1,,,,,,,,,0,,,72,105
23936,note_on,32,0,1,,,,,,,,,0,,,72,0
23972,note_on,68,0,2,,,,,,,,,1,,,57,0
24000,note_on,64,0,1,,,,,,,,,0,,,76,105
24000,note_on,28,0,2,,,,,,,,,1,,,53,105
24048,note_on,48,0,1,,,,,,,,,0,,,76,0
24048,note_on,0,0,1,,,,,,,,,0,,,74,105
24096,note_on,96,0,2,,,,,,,,,1,,,53,0
24096,note_on,0,0,2,,,,,,,,,1,,,55,105
24096,note_on,48,0,1,,,,,,,,,0,,,74,0
24096,note_on,0,0,1,,,,,,,,,0,,,72,105
24144,note_on,48,0,1,,,,,,,,,0,,,72,0
24144,note_on,0,0,1,,,,,,,,,0,,,71,105
24190,note_on,94,0,2,,,,,,,,,1,,,55,0
24192,note_on,2,0,2,,,,,,,,,1,,,48,127
24192,note_on,48,0,1,,,,,,,,,0,,,71,0
24192,note_on,0,0,1,,,,,,,,,0,,,72,105
24240,note_on,48,0,1,,,,,,,,,0,,,72,0
24240,note_on,0,0,1,,,,,,,,,0,,,67,105
24288,note_on,48,0,1,,,,,,,,,0,,,67,0
24288,note_on,0,0,1,,,,,,,,,0,,,64,105
24336,note_on,0,0,1,,,,,,,,,0,,,60,105
24336,note_on,48,0,1,,,,,,,,,0,,,64,0
24382,note_on,46,0,1,,,,,,,,,0,,,60,0
24382,end_of_track,0,1,1,,,,,,,,,,,,,
24384,note_on,192,0,2,,,,,,,,,1,,,48,0
24384,note_on,0,0,2,,,,,,,,,1,,,36,105
24544,note_on,160,0,2,,,,,,,,,1,,,36,0
24544,end_of_track,0,1,2,,,,,,,,,,,,,
