,note,step,duration,channel,velocity
0,50.0,96,96,0.0,92.0
1,52.0,96,96,0.0,92.0
2,53.0,96,96,0.0,92.0
3,74.0,0,384,0.0,92.0
4,69.0,0,384,0.0,92.0
5,65.0,0,384,0.0,92.0
6,55.0,96,96,0.0,92.0
7,57.0,96,96,0.0,92.0
8,59.0,96,96,0.0,92.0
9,61.0,96,96,0.0,92.0
10,62.0,96,192,0.0,92.0
11,57.0,192,192,0.0,92.0
12,65.0,0,192,0.0,92.0
13,69.0,0,192,0.0,92.0
14,74.0,0,192,0.0,92.0
15,50.0,0,192,0.0,102.0
16,52.0,0,192,0.0,102.0
17,64.0,0,192,0.0,92.0
18,67.0,0,192,0.0,92.0
19,73.0,192,192,0.0,92.0
20,55.0,0,192,0.0,92.0
21,57.0,0,192,0.0,92.0
22,50.0,0,192,0.0,102.0
23,65.0,0,192,0.0,92.0
24,74.0,192,192,0.0,92.0
25,69.0,96,0,0.0,92.0
26,67.0,96,96,0.0,92.0
27,52.0,192,384,0.0,92.0
28,49.0,0,384,0.0,102.0
29,64.0,96,0,0.0,92.0
30,57.0,0,384,0.0,92.0
31,65.0,96,96,0.0,92.0
32,76.0,0,384,0.0,92.0
33,62.0,96,96,0.0,92.0
34,61.0,96,96,0.0,92.0
35,59.0,96,96,0.0,92.0
36,57.0,0,0,0.0,92.0
37,61.0,192,192,0.0,92.0
38,69.0,0,192,0.0,92.0
39,45.0,0,192,0.0,102.0
40,67.0,192,192,0.0,92.0
41,47.0,0,192,0.0,102.0
42,50.0,0,192,0.0,92.0
43,65.0,192,144,0.0,92.0
44,64.0,144,48,0.0,92.0
45,62.0,0,384,0.0,92.0
46,48.0,0,192,0.0,102.0
47,57.0,0,0,0.0,92.0
48,62.0,0,192,0.0,92.0
49,65.0,48,384,0.0,92.0
50,74.0,192,192,0.0,92.0
51,50.0,0,384,0.0,102.0
52,64.0,0,192,0.0,92.0
53,72.0,0,192,0.0,92.0
54,55.0,0,384,0.0,92.0
55,52.0,192,384,0.0,102.0
56,70.0,0,192,0.0,92.0
57,62.0,192,192,0.0,92.0
58,60.0,0,192,0.0,92.0
59,53.0,192,384,0.0,102.0
60,57.0,0,384,0.0,92.0
61,69.0,0,384,0.0,92.0
62,77.0,192,192,0.0,92.0
63,76.0,0,192,0.0,92.0
64,67.0,0,192,0.0,92.0
65,55.0,192,384,0.0,102.0
66,74.0,0,192,0.0,92.0
67,65.0,192,192,0.0,92.0
68,58.0,0,384,0.0,92.0
69,57.0,96,96,0.0,92.0
70,59.0,96,96,0.0,92.0
71,61.0,96,96,0.0,92.0
72,64.0,0,384,0.0,92.0
73,73.0,0,384,0.0,92.0
74,62.0,96,96,0.0,92.0
75,64.0,96,96,0.0,92.0
76,65.0,96,96,0.0,92.0
77,67.0,96,96,0.0,92.0
78,69.0,96,192,0.0,92.0
79,57.0,0,192,0.0,92.0
80,67.0,192,192,0.0,92.0
81,49.0,0,192,0.0,102.0
82,64.0,0,192,0.0,92.0
83,50.0,0,192,0.0,102.0
84,57.0,0,0,0.0,92.0
85,65.0,0,192,0.0,92.0
86,62.0,0,192,0.0,92.0
87,45.0,0,192,0.0,102.0
88,64.0,192,192,0.0,92.0
89,61.0,0,192,0.0,92.0
90,62.0,192,192,0.0,92.0
91,64.0,192,96,0.0,92.0
92,65.0,96,96,0.0,92.0
93,64.0,96,96,0.0,92.0
94,65.0,96,96,0.0,92.0
95,55.0,0,384,0.0,92.0
96,46.0,0,768,0.0,102.0
97,62.0,96,192,0.0,92.0
98,61.0,0,384,0.0,92.0
99,64.0,0,384,0.0,92.0
100,69.0,0,384,0.0,92.0
101,57.0,192,384,0.0,92.0
102,65.0,384,384,0.0,92.0
103,69.0,0,384,0.0,92.0
104,57.0,0,384,0.0,92.0
105,62.0,0,576,0.0,92.0
106,67.0,384,384,0.0,92.0
107,52.0,0,384,0.0,92.0
108,61.0,192,192,0.0,92.0
109,53.0,0,192,0.0,92.0
110,57.0,192,0,0.0,92.0
111,55.0,192,192,0.0,92.0
112,65.0,192,384,0.0,92.0
113,62.0,384,0,0.0,92.0
114,61.0,48,48,0.0,92.0
115,62.0,48,48,0.0,92.0
116,61.0,48,48,0.0,92.0
117,62.0,48,48,0.0,92.0
118,61.0,48,48,0.0,92.0
119,62.0,48,48,0.0,92.0
120,45.0,0,2304,0.0,102.0
121,61.0,48,48,0.0,92.0
122,64.0,0,768,0.0,92.0
123,55.0,0,192,0.0,92.0
124,38.0,0,384,0.0,102.0
125,57.0,0,384,0.0,92.0
126,50.0,0,384,0.0,92.0
127,53.0,48,384,0.0,92.0
128,62.0,0,384,0.0,92.0
129,69.0,576,192,0.0,92.0
130,50.0,96,96,0.0,92.0
131,52.0,96,96,0.0,92.0
132,77.0,192,384,0.0,92.0
133,74.0,0,384,0.0,92.0
134,53.0,96,96,0.0,92.0
135,55.0,96,96,0.0,92.0
136,57.0,96,96,0.0,92.0
137,59.0,96,96,0.0,92.0
138,61.0,96,96,0.0,92.0
139,62.0,0,96,0.0,92.0
140,57.0,96,96,0.0,92.0
141,59.0,96,96,0.0,92.0
142,74.0,0,384,0.0,92.0
143,77.0,96,384,0.0,92.0
144,61.0,96,96,0.0,92.0
145,62.0,96,96,0.0,92.0
146,64.0,96,96,0.0,92.0
147,65.0,0,96,0.0,92.0
148,77.0,0,192,0.0,92.0
149,67.0,96,96,0.0,92.0
150,69.0,0,96,0.0,92.0
151,67.0,96,96,0.0,92.0
152,65.0,96,96,0.0,92.0
153,74.0,96,576,0.0,92.0
154,64.0,96,96,0.0,92.0
155,69.0,0,96,0.0,92.0
156,67.0,96,96,0.0,92.0
157,65.0,96,96,0.0,92.0
158,76.0,96,768,0.0,92.0
159,73.0,96,384,0.0,92.0
160,64.0,96,96,0.0,92.0
161,62.0,0,96,0.0,92.0
162,64.0,96,96,0.0,92.0
163,62.0,96,96,0.0,92.0
164,77.0,96,384,0.0,92.0
165,60.0,96,96,0.0,92.0
166,58.0,0,96,0.0,92.0
167,57.0,96,96,0.0,92.0
168,58.0,96,96,0.0,92.0
169,74.0,0,768,0.0,92.0
170,79.0,96,384,0.0,92.0
171,55.0,96,96,0.0,92.0
172,60.0,0,96,0.0,92.0
173,62.0,96,96,0.0,92.0
174,60.0,96,96,0.0,92.0
175,58.0,96,96,0.0,92.0
176,76.0,0,384,0.0,92.0
177,57.0,0,96,0.0,92.0
178,55.0,96,96,0.0,92.0
179,57.0,96,96,0.0,92.0
180,77.0,96,384,0.0,92.0
181,53.0,96,96,0.0,92.0
182,72.0,96,768,0.0,92.0
183,58.0,0,96,0.0,92.0
184,60.0,96,96,0.0,92.0
185,58.0,96,96,0.0,92.0
186,57.0,96,96,0.0,92.0
187,65.0,0,384,0.0,92.0
188,55.0,0,96,0.0,92.0
189,57.0,96,96,0.0,92.0
190,55.0,96,96,0.0,92.0
191,53.0,96,96,0.0,92.0
192,74.0,96,768,0.0,92.0
193,52.0,96,96,0.0,92.0
194,48.0,96,96,0.0,92.0
195,50.0,96,96,0.0,92.0
196,52.0,96,96,0.0,92.0
197,70.0,96,768,0.0,92.0
198,53.0,96,96,0.0,92.0
199,52.0,96,96,0.0,92.0
200,50.0,96,96,0.0,92.0
201,72.0,0,768,0.0,92.0
202,48.0,96,96,0.0,92.0
203,69.0,96,0,0.0,92.0
204,70.0,96,96,0.0,92.0
205,46.0,0,384,0.0,92.0
206,69.0,96,96,0.0,92.0
207,74.0,96,384,0.0,92.0
208,67.0,96,96,0.0,92.0
209,69.0,96,96,0.0,92.0
210,67.0,96,96,0.0,92.0
211,74.0,0,192,0.0,92.0
212,65.0,96,96,0.0,92.0
213,46.0,0,192,0.0,92.0
214,48.0,96,96,0.0,92.0
215,50.0,96,96,0.0,92.0
216,48.0,96,96,0.0,92.0
217,67.0,0,384,0.0,92.0
218,64.0,0,384,0.0,92.0
219,46.0,96,96,0.0,92.0
220,45.0,96,96,0.0,92.0
221,50.0,96,96,0.0,92.0
222,48.0,96,96,0.0,92.0
223,50.0,96,96,0.0,92.0
224,69.0,0,384,0.0,92.0
225,46.0,0,96,0.0,92.0
226,45.0,96,96,0.0,92.0
227,46.0,96,96,0.0,92.0
228,43.0,96,96,0.0,92.0
229,65.0,0,768,0.0,92.0
230,65.0,0,48,0.0,92.0
231,64.0,48,48,0.0,92.0
232,65.0,48,48,0.0,92.0
233,64.0,48,48,0.0,92.0
234,48.0,96,192,0.0,92.0
235,65.0,48,48,0.0,92.0
236,64.0,48,48,0.0,92.0
237,65.0,48,48,0.0,92.0
238,67.0,96,768,0.0,92.0
239,64.0,48,48,0.0,92.0
240,36.0,0,192,0.0,92.0
241,53.0,48,192,0.0,92.0
242,41.0,192,192,0.0,92.0
243,57.0,0,384,0.0,92.0
244,65.0,0,384,0.0,92.0
245,60.0,0,384,0.0,92.0
246,60.0,384,192,0.0,92.0
247,65.0,0,96,0.0,92.0
248,50.0,192,192,0.0,92.0
249,45.0,0,192,0.0,102.0
250,53.0,0,192,0.0,92.0
251,60.0,96,96,0.0,92.0
252,57.0,96,96,0.0,92.0
253,65.0,0,96,0.0,92.0
254,53.0,96,288,0.0,92.0
255,50.0,0,192,0.0,92.0
256,45.0,96,192,0.0,102.0
257,60.0,96,96,0.0,92.0
258,57.0,96,96,0.0,92.0
259,63.0,0,96,0.0,92.0
260,53.0,96,288,0.0,92.0
261,50.0,0,192,0.0,92.0
262,45.0,96,192,0.0,102.0
263,60.0,96,96,0.0,92.0
264,57.0,96,96,0.0,92.0
265,63.0,96,96,0.0,92.0
266,45.0,0,192,0.0,102.0
267,60.0,96,96,0.0,92.0
268,53.0,96,288,0.0,92.0
269,50.0,0,192,0.0,92.0
270,57.0,96,96,0.0,92.0
271,62.0,96,96,0.0,92.0
272,53.0,96,288,0.0,92.0
273,46.0,96,0,0.0,102.0
274,58.0,96,96,0.0,92.0
275,63.0,0,96,0.0,92.0
276,51.0,0,192,0.0,92.0
277,55.0,0,192,0.0,92.0
278,46.0,96,0,0.0,102.0
279,58.0,96,96,0.0,92.0
280,62.0,0,96,0.0,92.0
281,58.0,96,96,0.0,92.0
282,53.0,0,192,0.0,92.0
283,63.0,0,96,0.0,92.0
284,46.0,0,192,0.0,102.0
285,51.0,96,192,0.0,92.0
286,55.0,0,192,0.0,92.0
287,58.0,96,96,0.0,92.0
288,53.0,96,96,0.0,92.0
289,55.0,96,96,0.0,92.0
290,46.0,96,384,0.0,102.0
291,62.0,0,384,0.0,92.0
292,57.0,96,96,0.0,92.0
293,58.0,96,192,0.0,92.0
294,62.0,96,96,0.0,92.0
295,64.0,0,96,0.0,92.0
296,57.0,96,192,0.0,92.0
297,66.0,96,96,0.0,92.0
298,67.0,0,96,0.0,92.0
299,50.0,0,192,0.0,92.0
300,62.0,96,96,0.0,92.0
301,47.0,96,192,0.0,102.0
302,55.0,0,192,0.0,92.0
303,59.0,96,96,0.0,92.0
304,55.0,0,0,0.0,92.0
305,67.0,0,96,0.0,92.0
306,50.0,96,192,0.0,92.0
307,62.0,96,96,0.0,92.0
308,47.0,0,192,0.0,102.0
309,59.0,96,96,0.0,92.0
310,55.0,0,0,0.0,92.0
311,65.0,0,96,0.0,92.0
312,62.0,96,96,0.0,92.0
313,47.0,0,192,0.0,102.0
314,50.0,96,192,0.0,92.0
315,59.0,96,96,0.0,92.0
316,55.0,96,96,0.0,92.0
317,65.0,0,96,0.0,92.0
318,62.0,96,96,0.0,92.0
319,47.0,96,192,0.0,102.0
320,55.0,0,192,0.0,92.0
321,50.0,0,192,0.0,92.0
322,59.0,96,96,0.0,92.0
323,55.0,96,96,0.0,92.0
324,64.0,96,96,0.0,92.0
325,48.0,96,0,0.0,102.0
326,55.0,0,192,0.0,92.0
327,60.0,96,96,0.0,92.0
328,65.0,0,96,0.0,92.0
329,53.0,0,192,0.0,92.0
330,57.0,0,192,0.0,92.0
331,48.0,0,0,0.0,102.0
332,60.0,96,96,0.0,92.0
333,64.0,0,96,0.0,92.0
334,55.0,96,192,0.0,92.0
335,48.0,0,0,0.0,102.0
336,60.0,96,96,0.0,92.0
337,65.0,0,96,0.0,92.0
338,57.0,0,192,0.0,92.0
339,60.0,96,96,0.0,92.0
340,48.0,96,0,0.0,102.0
341,53.0,96,192,0.0,92.0
342,55.0,96,96,0.0,92.0
343,57.0,96,96,0.0,92.0
344,59.0,96,96,0.0,92.0
345,64.0,0,384,0.0,92.0
346,60.0,96,192,0.0,92.0
347,64.0,96,96,0.0,92.0
348,66.0,0,96,0.0,92.0
349,68.0,96,96,0.0,92.0
350,59.0,96,192,0.0,92.0
351,69.0,96,96,0.0,92.0
352,57.0,0,192,0.0,92.0
353,49.0,0,192,0.0,102.0
354,64.0,96,96,0.0,92.0
355,52.0,0,192,0.0,92.0
356,61.0,96,96,0.0,92.0
357,57.0,0,0,0.0,92.0
358,69.0,0,96,0.0,92.0
359,49.0,0,192,0.0,102.0
360,52.0,96,192,0.0,92.0
361,64.0,96,96,0.0,92.0
362,61.0,96,96,0.0,92.0
363,57.0,0,0,0.0,92.0
364,67.0,0,96,0.0,92.0
365,52.0,0,192,0.0,92.0
366,64.0,96,96,0.0,92.0
367,49.0,96,192,0.0,102.0
368,61.0,96,96,0.0,92.0
369,57.0,96,96,0.0,92.0
370,67.0,0,96,0.0,92.0
371,49.0,96,192,0.0,102.0
372,57.0,0,192,0.0,92.0
373,52.0,0,192,0.0,92.0
374,64.0,96,96,0.0,92.0
375,61.0,96,96,0.0,92.0
376,57.0,96,0,0.0,92.0
377,65.0,0,96,0.0,92.0
378,62.0,96,96,0.0,92.0
379,50.0,0,192,0.0,102.0
380,67.0,0,96,0.0,92.0
381,50.0,0,192,0.0,102.0
382,62.0,96,96,0.0,92.0
383,55.0,96,192,0.0,92.0
384,58.0,0,192,0.0,92.0
385,65.0,0,96,0.0,92.0
386,62.0,96,96,0.0,92.0
387,57.0,0,192,0.0,92.0
388,50.0,0,0,0.0,102.0
389,67.0,0,96,0.0,92.0
390,58.0,0,192,0.0,92.0
391,55.0,96,192,0.0,92.0
392,62.0,96,96,0.0,92.0
393,50.0,0,0,0.0,102.0
394,65.0,0,96,0.0,92.0
395,62.0,96,96,0.0,92.0
396,57.0,0,0,0.0,92.0
397,66.0,96,96,0.0,92.0
398,48.0,0,192,0.0,102.0
399,62.0,96,96,0.0,92.0
400,67.0,0,96,0.0,92.0
401,62.0,96,96,0.0,92.0
402,55.0,0,192,0.0,92.0
403,46.0,96,192,0.0,102.0
404,69.0,0,96,0.0,92.0
405,54.0,96,192,0.0,92.0
406,62.0,96,96,0.0,92.0
407,45.0,0,192,0.0,102.0
408,70.0,0,96,0.0,92.0
409,69.0,96,96,0.0,92.0
410,67.0,96,96,0.0,92.0
411,50.0,0,384,0.0,92.0
412,43.0,0,384,0.0,102.0
413,65.0,96,96,0.0,92.0
414,55.0,96,384,0.0,92.0
415,67.0,96,96,0.0,92.0
416,65.0,96,96,0.0,92.0
417,64.0,96,96,0.0,92.0
418,62.0,96,96,0.0,92.0
419,64.0,96,96,0.0,92.0
420,55.0,0,192,0.0,92.0
421,60.0,96,96,0.0,92.0
422,48.0,0,192,0.0,102.0
423,64.0,0,96,0.0,92.0
424,46.0,0,192,0.0,102.0
425,60.0,96,96,0.0,92.0
426,55.0,96,192,0.0,92.0
427,65.0,0,96,0.0,92.0
428,60.0,96,96,0.0,92.0
429,45.0,96,192,0.0,102.0
430,53.0,0,192,0.0,92.0
431,67.0,0,96,0.0,92.0
432,52.0,0,192,0.0,92.0
433,60.0,96,96,0.0,92.0
434,43.0,96,192,0.0,102.0
435,69.0,0,96,0.0,92.0
436,67.0,96,96,0.0,92.0
437,65.0,96,96,0.0,92.0
438,53.0,96,384,0.0,92.0
439,48.0,0,384,0.0,92.0
440,41.0,0,384,0.0,102.0
441,64.0,96,96,0.0,92.0
442,65.0,96,96,0.0,92.0
443,63.0,96,96,0.0,92.0
444,62.0,96,96,0.0,92.0
445,60.0,96,96,0.0,92.0
446,62.0,96,192,0.0,92.0
447,74.0,0,96,0.0,92.0
448,65.0,0,0,0.0,92.0
449,70.0,96,96,0.0,92.0
450,58.0,0,0,0.0,92.0
451,74.0,96,96,0.0,92.0
452,70.0,96,96,0.0,92.0
453,58.0,96,0,0.0,92.0
454,65.0,0,0,0.0,92.0
455,74.0,0,96,0.0,92.0
456,70.0,96,96,0.0,92.0
457,72.0,0,192,0.0,92.0
458,72.0,192,96,0.0,92.0
459,69.0,96,96,0.0,92.0
460,60.0,0,192,0.0,92.0
461,72.0,0,96,0.0,92.0
462,57.0,96,0,0.0,92.0
463,69.0,96,96,0.0,92.0
464,72.0,0,96,0.0,92.0
465,69.0,96,96,0.0,92.0
466,70.0,96,192,0.0,92.0
467,65.0,96,576,0.0,92.0
468,70.0,0,96,0.0,92.0
469,67.0,96,96,0.0,92.0
470,58.0,192,192,0.0,92.0
471,70.0,96,96,0.0,92.0
472,55.0,0,0,0.0,92.0
473,67.0,96,96,0.0,92.0
474,70.0,96,96,0.0,92.0
475,67.0,96,96,0.0,92.0
476,69.0,0,192,0.0,92.0
477,64.0,0,576,0.0,92.0
478,69.0,192,96,0.0,92.0
479,65.0,96,96,0.0,92.0
480,57.0,0,192,0.0,92.0
481,69.0,0,96,0.0,92.0
482,53.0,96,576,0.0,92.0
483,65.0,96,96,0.0,92.0
484,69.0,0,96,0.0,92.0
485,65.0,96,96,0.0,92.0
486,53.0,96,192,0.0,92.0
487,62.0,96,576,0.0,92.0
488,67.0,96,192,0.0,92.0
489,67.0,0,96,0.0,92.0
490,55.0,192,192,0.0,92.0
491,64.0,96,96,0.0,92.0
492,67.0,0,96,0.0,92.0
493,52.0,0,576,0.0,92.0
494,64.0,96,96,0.0,92.0
495,67.0,96,96,0.0,92.0
496,64.0,96,96,0.0,92.0
497,61.0,96,384,0.0,92.0
498,52.0,0,192,0.0,92.0
499,50.0,96,96,0.0,92.0
500,52.0,96,96,0.0,92.0
501,57.0,0,384,0.0,92.0
502,53.0,96,96,0.0,92.0
503,65.0,96,384,0.0,92.0
504,62.0,0,384,0.0,92.0
505,55.0,96,96,0.0,92.0
506,57.0,96,96,0.0,92.0
507,59.0,96,96,0.0,92.0
508,61.0,96,96,0.0,92.0
509,62.0,96,96,0.0,92.0
510,57.0,96,96,0.0,92.0
511,59.0,96,96,0.0,92.0
512,61.0,96,96,0.0,92.0
513,62.0,96,96,0.0,92.0
514,64.0,96,96,0.0,92.0
515,65.0,96,96,0.0,92.0
516,67.0,96,96,0.0,92.0
517,69.0,96,96,0.0,92.0
518,62.0,96,96,0.0,92.0
519,64.0,96,96,0.0,92.0
520,65.0,96,96,0.0,92.0
521,67.0,96,96,0.0,92.0
522,69.0,96,96,0.0,92.0
523,71.0,96,96,0.0,92.0
524,73.0,96,96,0.0,92.0
525,74.0,96,192,0.0,92.0
526,65.0,192,192,0.0,92.0
527,74.0,0,192,0.0,92.0
528,67.0,0,96,0.0,92.0
529,76.0,192,96,0.0,92.0
530,74.0,0,96,0.0,92.0
531,65.0,96,96,0.0,92.0
532,76.0,0,96,0.0,92.0
533,67.0,96,96,0.0,92.0
534,64.0,0,96,0.0,92.0
535,72.0,96,96,0.0,92.0
536,50.0,96,96,0.0,92.0
537,52.0,96,96,0.0,92.0
538,69.0,0,384,0.0,92.0
539,53.0,96,96,0.0,92.0
540,74.0,0,384,0.0,92.0
541,65.0,96,384,0.0,92.0
542,55.0,96,96,0.0,92.0
543,57.0,96,96,0.0,92.0
544,59.0,96,96,0.0,92.0
545,61.0,96,96,0.0,92.0
546,62.0,96,192,0.0,92.0
547,65.0,0,192,0.0,92.0
548,69.0,0,192,0.0,92.0
549,74.0,192,192,0.0,92.0
550,50.0,0,192,0.0,102.0
551,57.0,0,192,0.0,92.0
552,64.0,0,192,0.0,92.0
553,67.0,0,192,0.0,92.0
554,73.0,192,192,0.0,92.0
555,55.0,0,192,0.0,92.0
556,52.0,0,192,0.0,102.0
557,65.0,0,192,0.0,92.0
558,74.0,0,192,0.0,92.0
559,50.0,0,192,0.0,102.0
560,57.0,192,0,0.0,92.0
561,69.0,192,288,0.0,92.0
562,69.0,96,96,0.0,92.0
563,67.0,96,96,0.0,92.0
564,65.0,96,96,0.0,92.0
565,64.0,0,384,0.0,92.0
566,76.0,0,384,0.0,92.0
567,52.0,0,384,0.0,92.0
568,49.0,0,384,0.0,102.0
569,64.0,96,96,0.0,92.0
570,62.0,96,96,0.0,92.0
571,61.0,96,96,0.0,92.0
572,59.0,96,96,0.0,92.0
573,57.0,192,0,0.0,92.0
574,61.0,0,192,0.0,92.0
575,45.0,0,192,0.0,102.0
576,69.0,0,192,0.0,92.0
577,67.0,0,192,0.0,92.0
578,50.0,0,192,0.0,92.0
579,47.0,0,192,0.0,102.0
580,65.0,192,144,0.0,92.0
581,64.0,144,48,0.0,92.0
582,62.0,192,384,0.0,92.0
583,49.0,0,192,0.0,102.0
584,57.0,0,192,0.0,92.0
585,62.0,0,192,0.0,92.0
586,50.0,0,384,0.0,102.0
587,57.0,0,384,0.0,92.0
588,74.0,192,192,0.0,92.0
589,65.0,48,384,0.0,92.0
590,72.0,0,192,0.0,92.0
591,64.0,0,192,0.0,92.0
592,55.0,0,384,0.0,92.0
593,62.0,192,192,0.0,92.0
594,52.0,192,384,0.0,102.0
595,70.0,0,192,0.0,92.0
596,60.0,0,192,0.0,92.0
597,57.0,192,384,0.0,92.0
598,53.0,0,384,0.0,102.0
599,69.0,0,384,0.0,92.0
600,77.0,192,192,0.0,92.0
601,76.0,0,192,0.0,92.0
602,67.0,192,192,0.0,92.0
603,58.0,0,384,0.0,92.0
604,65.0,0,192,0.0,92.0
605,55.0,0,384,0.0,102.0
606,74.0,192,192,0.0,92.0
607,57.0,96,96,0.0,92.0
608,59.0,96,96,0.0,92.0
609,61.0,96,96,0.0,92.0
610,64.0,0,384,0.0,92.0
611,73.0,0,384,0.0,92.0
612,62.0,96,96,0.0,92.0
613,64.0,96,96,0.0,92.0
614,65.0,96,96,0.0,92.0
615,67.0,96,96,0.0,92.0
616,69.0,96,192,0.0,92.0
617,64.0,0,192,0.0,92.0
618,49.0,192,192,0.0,102.0
619,57.0,0,192,0.0,92.0
620,67.0,0,192,0.0,92.0
621,65.0,0,192,0.0,92.0
622,62.0,192,192,0.0,92.0
623,50.0,0,192,0.0,102.0
624,57.0,0,0,0.0,92.0
625,64.0,0,192,0.0,92.0
626,61.0,192,192,0.0,92.0
627,45.0,0,192,0.0,102.0
628,62.0,192,192,0.0,92.0
629,64.0,192,96,0.0,92.0
630,65.0,96,96,0.0,92.0
631,64.0,0,96,0.0,92.0
632,65.0,96,96,0.0,92.0
633,46.0,0,768,0.0,102.0
634,62.0,96,192,0.0,92.0
635,55.0,96,384,0.0,92.0
636,64.0,0,384,0.0,92.0
637,61.0,192,384,0.0,92.0
638,69.0,0,0,0.0,92.0
639,57.0,0,0,0.0,92.0
640,65.0,0,384,0.0,92.0
641,62.0,384,576,0.0,92.0
642,61.0,192,192,0.0,92.0
643,67.0,384,384,0.0,92.0
644,52.0,0,384,0.0,92.0
645,53.0,0,192,0.0,92.0
646,65.0,0,384,0.0,92.0
647,57.0,192,0,0.0,92.0
648,55.0,192,192,0.0,92.0
649,62.0,384,0,0.0,92.0
650,61.0,48,48,0.0,92.0
651,62.0,48,48,0.0,92.0
652,61.0,48,48,0.0,92.0
653,62.0,0,48,0.0,92.0
654,61.0,48,48,0.0,92.0
655,62.0,48,48,0.0,92.0
656,64.0,0,768,0.0,92.0
657,61.0,48,48,0.0,92.0
658,45.0,0,2304,0.0,102.0
659,55.0,48,192,0.0,92.0
660,50.0,0,384,0.0,92.0
661,53.0,0,384,0.0,92.0
662,57.0,0,384,0.0,92.0
663,38.0,0,384,0.0,102.0
664,62.0,48,384,0.0,92.0
665,69.0,576,192,0.0,92.0
666,65.0,192,192,0.0,92.0
667,69.0,192,192,0.0,92.0
668,64.0,192,192,0.0,92.0
669,69.0,192,192,0.0,92.0
670,62.0,192,192,0.0,92.0
671,65.0,192,192,0.0,92.0
672,70.0,192,384,0.0,92.0
673,69.0,384,192,0.0,92.0
674,71.0,192,96,0.0,92.0
675,73.0,96,96,0.0,92.0
676,74.0,96,576,0.0,92.0
677,73.0,576,96,0.0,92.0
678,71.0,96,96,0.0,92.0
679,69.0,96,192,0.0,92.0
680,67.0,192,192,0.0,92.0
681,65.0,192,192,0.0,92.0
682,62.0,192,96,0.0,92.0
683,64.0,96,96,0.0,92.0
684,65.0,96,96,0.0,92.0
685,67.0,96,96,0.0,92.0
686,65.0,96,96,0.0,92.0
687,67.0,96,96,0.0,92.0
688,62.0,0,192,0.0,92.0
689,60.0,96,192,0.0,92.0
690,69.0,0,384,0.0,92.0
691,64.0,192,192,0.0,92.0
692,59.0,192,192,0.0,92.0
693,64.0,192,192,0.0,92.0
694,68.0,0,384,0.0,92.0
695,57.0,192,192,0.0,92.0
696,60.0,192,192,0.0,92.0
697,69.0,0,384,0.0,92.0
698,69.0,192,96,0.0,92.0
699,71.0,96,96,0.0,92.0
700,65.0,192,384,0.0,92.0
701,64.0,96,192,0.0,92.0
702,66.0,192,96,0.0,92.0
703,68.0,96,96,0.0,92.0
704,72.0,0,480,0.0,92.0
705,74.0,96,96,0.0,92.0
706,72.0,96,96,0.0,92.0
707,74.0,96,96,0.0,92.0
708,69.0,96,576,0.0,92.0
709,68.0,192,96,0.0,92.0
710,66.0,96,96,0.0,92.0
711,76.0,96,384,0.0,92.0
712,69.0,0,48,0.0,92.0
713,68.0,48,48,0.0,92.0
714,69.0,48,48,0.0,92.0
715,68.0,48,48,0.0,92.0
716,64.0,96,192,0.0,92.0
717,69.0,0,48,0.0,92.0
718,68.0,48,48,0.0,92.0
719,69.0,48,48,0.0,92.0
720,62.0,48,192,0.0,92.0
721,68.0,48,48,0.0,92.0
722,61.0,0,192,0.0,92.0
723,69.0,48,384,0.0,92.0
724,57.0,192,192,0.0,92.0
725,67.0,192,192,0.0,92.0
726,59.0,0,192,0.0,92.0
727,57.0,0,192,0.0,92.0
728,61.0,192,192,0.0,92.0
729,64.0,0,192,0.0,92.0
730,53.0,0,192,0.0,92.0
731,65.0,0,384,0.0,92.0
732,57.0,192,192,0.0,92.0
733,52.0,0,192,0.0,92.0
734,62.0,192,576,0.0,92.0
735,67.0,192,192,0.0,92.0
736,57.0,192,192,0.0,92.0
737,61.0,0,192,0.0,92.0
738,64.0,0,192,0.0,92.0
739,50.0,192,192,0.0,92.0
740,53.0,192,192,0.0,92.0
741,65.0,0,384,0.0,92.0
742,62.0,0,384,0.0,92.0
743,65.0,0,96,0.0,92.0
744,67.0,96,96,0.0,92.0
745,58.0,192,384,0.0,92.0
746,62.0,192,192,0.0,92.0
747,57.0,96,192,0.0,92.0
748,61.0,0,192,0.0,92.0
749,59.0,192,96,0.0,92.0
750,62.0,0,96,0.0,92.0
751,64.0,0,96,0.0,92.0
752,61.0,96,96,0.0,92.0
753,69.0,0,576,0.0,92.0
754,70.0,192,96,0.0,92.0
755,65.0,96,384,0.0,92.0
756,69.0,96,96,0.0,92.0
757,62.0,0,576,0.0,92.0
758,61.0,192,96,0.0,92.0
759,59.0,96,96,0.0,92.0
760,64.0,96,384,0.0,92.0
761,67.0,0,384,0.0,92.0
762,73.0,0,192,0.0,92.0
763,57.0,96,192,0.0,92.0
764,71.0,192,192,0.0,92.0
765,55.0,0,192,0.0,92.0
766,53.0,192,192,0.0,92.0
767,76.0,0,576,0.0,92.0
768,74.0,0,96,0.0,92.0
769,57.0,192,192,0.0,92.0
770,73.0,96,96,0.0,92.0
771,69.0,0,384,0.0,92.0
772,74.0,0,96,0.0,92.0
773,65.0,96,96,0.0,92.0
774,76.0,0,96,0.0,92.0
775,67.0,96,96,0.0,92.0
776,62.0,0,192,0.0,92.0
777,77.0,0,192,0.0,92.0
778,69.0,96,192,0.0,92.0
779,57.0,0,0,0.0,92.0
780,50.0,0,192,0.0,102.0
781,48.0,0,192,0.0,102.0
782,52.0,192,192,0.0,102.0
783,76.0,192,384,0.0,92.0
784,69.0,0,384,0.0,92.0
785,47.0,0,192,0.0,102.0
786,74.0,0,384,0.0,92.0
787,52.0,192,192,0.0,102.0
788,56.0,192,384,0.0,92.0
789,71.0,0,576,0.0,92.0
790,45.0,0,192,0.0,102.0
791,64.0,192,192,0.0,92.0
792,48.0,0,192,0.0,102.0
793,72.0,192,576,0.0,92.0
794,57.0,0,576,0.0,92.0
795,59.0,192,192,0.0,92.0
796,74.0,0,192,0.0,92.0
797,69.0,192,384,0.0,92.0
798,53.0,0,384,0.0,102.0
799,52.0,0,192,0.0,102.0
800,68.0,0,192,0.0,92.0
801,69.0,0,96,0.0,92.0
802,54.0,192,96,0.0,102.0
803,71.0,96,96,0.0,92.0
804,56.0,0,96,0.0,102.0
805,76.0,0,576,0.0,92.0
806,60.0,192,576,0.0,92.0
807,62.0,0,96,0.0,92.0
808,78.0,192,96,0.0,92.0
809,60.0,96,96,0.0,92.0
810,72.0,96,384,0.0,92.0
811,76.0,0,96,0.0,92.0
812,57.0,0,576,0.0,102.0
813,56.0,192,96,0.0,102.0
814,59.0,0,384,0.0,92.0
815,54.0,96,96,0.0,102.0
816,66.0,0,384,0.0,92.0
817,75.0,96,384,0.0,92.0
818,52.0,0,192,0.0,102.0
819,50.0,192,192,0.0,102.0
820,59.0,96,384,0.0,92.0
821,68.0,0,384,0.0,92.0
822,48.0,192,192,0.0,102.0
823,76.0,0,576,0.0,92.0
824,47.0,192,192,0.0,102.0
825,69.0,0,384,0.0,92.0
826,74.0,0,192,0.0,92.0
827,72.0,0,192,0.0,92.0
828,74.0,192,96,0.0,92.0
829,45.0,192,384,0.0,102.0
830,64.0,0,384,0.0,92.0
831,72.0,96,96,0.0,92.0
832,65.0,0,192,0.0,92.0
833,67.0,192,96,0.0,92.0
834,57.0,0,1152,0.0,92.0
835,71.0,96,384,0.0,92.0
836,65.0,96,96,0.0,92.0
837,50.0,0,384,0.0,102.0
838,56.0,0,384,0.0,92.0
839,52.0,0,384,0.0,102.0
840,74.0,192,192,0.0,92.0
841,72.0,192,192,0.0,92.0
842,45.0,0,384,0.0,102.0
843,57.0,0,384,0.0,92.0
844,64.0,192,0,0.0,92.0
845,76.0,192,192,0.0,92.0
846,71.0,0,192,0.0,92.0
847,56.0,0,384,0.0,92.0
848,76.0,192,192,0.0,92.0
849,64.0,192,0,0.0,92.0
850,69.0,0,192,0.0,92.0
851,60.0,0,384,0.0,92.0
852,72.0,192,192,0.0,92.0
853,57.0,0,192,0.0,92.0
854,72.0,192,192,0.0,92.0
855,59.0,0,192,0.0,92.0
856,74.0,192,192,0.0,92.0
857,55.0,0,192,0.0,92.0
858,71.0,192,192,0.0,92.0
859,77.0,192,960,0.0,92.0
860,60.0,0,192,0.0,92.0
861,67.0,192,384,0.0,92.0
862,48.0,0,192,0.0,92.0
863,76.0,192,384,0.0,92.0
864,69.0,192,0,0.0,92.0
865,74.0,192,192,0.0,92.0
866,76.0,192,96,0.0,92.0
867,77.0,96,96,0.0,92.0
868,57.0,0,384,0.0,92.0
869,71.0,0,192,0.0,92.0
870,69.0,192,96,0.0,92.0
871,53.0,0,1152,0.0,92.0
872,62.0,96,384,0.0,92.0
873,52.0,96,192,0.0,92.0
874,67.0,96,288,0.0,92.0
875,65.0,0,96,0.0,92.0
876,50.0,192,96,0.0,92.0
877,64.0,0,96,0.0,92.0
878,48.0,96,96,0.0,92.0
879,55.0,0,192,0.0,92.0
880,53.0,192,192,0.0,92.0
881,62.0,96,384,0.0,92.0
882,72.0,0,768,0.0,92.0
883,55.0,192,192,0.0,92.0
884,71.0,0,384,0.0,92.0
885,43.0,0,192,0.0,92.0
886,67.0,192,192,0.0,92.0
887,48.0,0,192,0.0,92.0
888,64.0,0,192,0.0,92.0
889,72.0,192,384,0.0,92.0
890,52.0,192,192,0.0,92.0
891,67.0,0,192,0.0,92.0
892,62.0,0,192,0.0,92.0
893,55.0,192,288,0.0,92.0
894,71.0,192,192,0.0,92.0
895,67.0,0,192,0.0,92.0
896,53.0,96,96,0.0,92.0
897,60.0,0,192,0.0,92.0
898,52.0,0,192,0.0,92.0
899,48.0,0,192,0.0,92.0
900,72.0,96,384,0.0,92.0
901,64.0,192,192,0.0,92.0
902,72.0,192,96,0.0,92.0
903,74.0,96,96,0.0,92.0
904,69.0,0,384,0.0,92.0
905,53.0,192,384,0.0,92.0
906,52.0,96,192,0.0,92.0
907,67.0,0,192,0.0,92.0
908,69.0,0,96,0.0,92.0
909,53.0,192,96,0.0,92.0
910,55.0,0,96,0.0,92.0
911,71.0,96,96,0.0,92.0
912,76.0,0,480,0.0,92.0
913,77.0,96,96,0.0,92.0
914,57.0,0,192,0.0,92.0
915,76.0,0,96,0.0,92.0
916,77.0,96,96,0.0,92.0
917,52.0,96,192,0.0,92.0
918,72.0,96,576,0.0,92.0
919,53.0,0,192,0.0,92.0
920,71.0,192,96,0.0,92.0
921,50.0,0,192,0.0,92.0
922,69.0,96,96,0.0,92.0
923,59.0,0,96,0.0,92.0
924,57.0,96,96,0.0,92.0
925,67.0,96,192,0.0,92.0
926,59.0,96,96,0.0,92.0
927,55.0,96,96,0.0,92.0
928,65.0,0,192,0.0,92.0
929,74.0,96,960,0.0,92.0
930,72.0,192,96,0.0,92.0
931,60.0,96,384,0.0,92.0
932,64.0,0,384,0.0,92.0
933,70.0,96,96,0.0,92.0
934,69.0,96,192,0.0,92.0
935,61.0,192,192,0.0,92.0
936,67.0,0,192,0.0,92.0
937,64.0,0,192,0.0,92.0
938,69.0,96,96,0.0,92.0
939,67.0,96,96,0.0,92.0
940,69.0,96,96,0.0,92.0
941,65.0,0,480,0.0,92.0
942,62.0,192,480,0.0,92.0
943,64.0,0,96,0.0,92.0
944,60.0,96,96,0.0,92.0
945,65.0,96,96,0.0,92.0
946,62.0,96,0,0.0,92.0
947,58.0,0,96,0.0,92.0
948,70.0,96,576,0.0,92.0
949,64.0,96,192,0.0,92.0
950,60.0,0,192,0.0,92.0
951,62.0,0,192,0.0,92.0
952,69.0,192,192,0.0,92.0
953,58.0,192,192,0.0,92.0
954,65.0,0,384,0.0,92.0
955,67.0,0,384,0.0,92.0
956,64.0,0,192,0.0,92.0
957,60.0,192,192,0.0,92.0
958,48.0,0,192,0.0,102.0
959,45.0,0,192,0.0,102.0
960,48.0,192,192,0.0,102.0
961,69.0,0,384,0.0,92.0
962,60.0,0,384,0.0,92.0
963,65.0,192,576,0.0,92.0
964,70.0,0,192,0.0,92.0
965,43.0,192,192,0.0,102.0
966,58.0,0,192,0.0,92.0
967,48.0,0,192,0.0,102.0
968,60.0,0,0,0.0,92.0
969,64.0,192,192,0.0,92.0
970,67.0,0,384,0.0,92.0
971,41.0,192,192,0.0,102.0
972,65.0,192,96,0.0,92.0
973,64.0,96,96,0.0,92.0
974,45.0,0,192,0.0,102.0
975,69.0,0,576,0.0,92.0
976,53.0,0,192,0.0,92.0
977,71.0,192,192,0.0,92.0
978,50.0,96,384,0.0,102.0
979,55.0,0,192,0.0,92.0
980,65.0,0,384,0.0,92.0
981,64.0,0,192,0.0,92.0
982,48.0,0,192,0.0,102.0
983,50.0,0,96,0.0,102.0
984,65.0,192,96,0.0,92.0
985,52.0,96,96,0.0,102.0
986,67.0,0,96,0.0,92.0
987,57.0,192,576,0.0,92.0
988,72.0,0,576,0.0,92.0
989,59.0,192,96,0.0,92.0
990,74.0,0,96,0.0,92.0
991,57.0,96,96,0.0,92.0
992,72.0,0,96,0.0,92.0
993,69.0,0,384,0.0,92.0
994,53.0,96,576,0.0,102.0
995,52.0,192,96,0.0,102.0
996,55.0,96,384,0.0,92.0
997,50.0,96,96,0.0,102.0
998,62.0,0,384,0.0,92.0
999,71.0,0,384,0.0,92.0
1000,48.0,0,192,0.0,102.0
1001,55.0,0,384,0.0,92.0
1002,47.0,192,192,0.0,102.0
1003,57.0,192,192,0.0,92.0
1004,72.0,0,576,0.0,92.0
1005,55.0,192,96,0.0,92.0
1006,71.0,0,96,0.0,92.0
1007,53.0,0,96,0.0,92.0
1008,64.0,96,768,0.0,92.0
1009,45.0,0,384,0.0,102.0
1010,69.0,96,96,0.0,92.0
1011,67.0,0,192,0.0,92.0
1012,52.0,96,192,0.0,92.0
1013,65.0,0,192,0.0,92.0
1014,62.0,192,192,0.0,92.0
1015,55.0,0,0,0.0,92.0
1016,47.0,0,192,0.0,102.0
1017,64.0,0,192,0.0,92.0
1018,60.0,192,384,0.0,92.0
1019,67.0,192,192,0.0,92.0
1020,48.0,0,384,0.0,102.0
1021,47.0,0,384,0.0,102.0
1022,67.0,192,192,0.0,92.0
1023,62.0,192,384,0.0,92.0
1024,55.0,0,0,0.0,92.0
1025,64.0,0,192,0.0,92.0
1026,67.0,192,192,0.0,92.0
1027,60.0,0,384,0.0,92.0
1028,48.0,192,384,0.0,102.0
1029,64.0,192,192,0.0,92.0
1030,60.0,192,384,0.0,92.0
1031,57.0,0,192,0.0,92.0
1032,65.0,192,384,0.0,92.0
1033,60.0,192,192,0.0,92.0
1034,55.0,0,192,0.0,92.0
1035,64.0,192,384,0.0,92.0
1036,60.0,192,192,0.0,92.0
1037,57.0,192,192,0.0,92.0
1038,60.0,192,192,0.0,92.0
1039,65.0,0,384,0.0,92.0
1040,53.0,192,192,0.0,92.0
1041,74.0,0,96,0.0,92.0
1042,62.0,192,192,0.0,92.0
1043,58.0,0,192,0.0,92.0
1044,54.0,0,192,0.0,92.0
1045,72.0,96,96,0.0,92.0
1046,70.0,0,192,0.0,92.0
1047,55.0,96,384,0.0,92.0
1048,58.0,0,384,0.0,92.0
1049,62.0,0,0,0.0,92.0
1050,74.0,192,192,0.0,92.0
1051,69.0,0,192,0.0,92.0
1052,74.0,192,192,0.0,92.0
1053,57.0,0,384,0.0,92.0
1054,54.0,192,384,0.0,92.0
1055,70.0,192,192,0.0,92.0
1056,58.0,0,384,0.0,92.0
1057,55.0,0,384,0.0,92.0
1058,62.0,0,384,0.0,92.0
1059,74.0,192,192,0.0,92.0
1060,67.0,192,192,0.0,92.0
1061,76.0,192,96,0.0,92.0
1062,55.0,0,192,0.0,92.0
1063,58.0,0,192,0.0,92.0
1064,74.0,96,96,0.0,92.0
1065,64.0,0,0,0.0,92.0
1066,73.0,0,192,0.0,92.0
1067,76.0,192,192,0.0,92.0
1068,57.0,96,384,0.0,92.0
1069,71.0,0,192,0.0,92.0
1070,59.0,192,384,0.0,92.0
1071,76.0,192,192,0.0,92.0
1072,64.0,0,384,0.0,92.0
1073,56.0,0,384,0.0,92.0
1074,73.0,192,192,0.0,92.0
1075,57.0,0,384,0.0,92.0
1076,76.0,192,192,0.0,92.0
1077,64.0,0,384,0.0,92.0
1078,69.0,192,192,0.0,92.0
1079,69.0,0,96,0.0,92.0
1080,72.0,0,192,0.0,92.0
1081,67.0,96,96,0.0,92.0
1082,57.0,192,192,0.0,92.0
1083,45.0,0,192,0.0,102.0
1084,64.0,0,192,0.0,92.0
1085,65.0,0,192,0.0,92.0
1086,57.0,96,384,0.0,92.0
1087,74.0,0,384,0.0,92.0
1088,50.0,0,384,0.0,102.0
1089,69.0,192,192,0.0,92.0
1090,62.0,0,384,0.0,92.0
1091,69.0,192,192,0.0,92.0
1092,64.0,0,384,0.0,92.0
1093,49.0,192,384,0.0,102.0
1094,57.0,192,0,0.0,92.0
1095,62.0,0,192,0.0,92.0
1096,65.0,192,192,0.0,92.0
1097,53.0,0,384,0.0,102.0
1098,74.0,192,192,0.0,92.0
1099,52.0,0,384,0.0,102.0
1100,70.0,192,384,0.0,92.0
1101,55.0,0,384,0.0,92.0
1102,69.0,0,192,0.0,92.0
1103,73.0,0,192,0.0,92.0
1104,74.0,192,96,0.0,92.0
1105,71.0,0,96,0.0,92.0
1106,57.0,96,0,0.0,92.0
1107,76.0,96,96,0.0,92.0
1108,73.0,0,96,0.0,92.0
1109,53.0,0,192,0.0,102.0
1110,77.0,0,384,0.0,92.0
1111,50.0,192,192,0.0,102.0
1112,57.0,0,0,0.0,102.0
1113,74.0,0,576,0.0,92.0
1114,73.0,192,96,0.0,92.0
1115,71.0,96,96,0.0,92.0
1116,69.0,0,192,0.0,92.0
1117,76.0,0,768,0.0,92.0
1118,57.0,192,0,0.0,92.0
1119,45.0,96,384,0.0,102.0
1120,61.0,0,384,0.0,92.0
1121,67.0,192,192,0.0,92.0
1122,62.0,0,192,0.0,92.0
1123,60.0,192,96,0.0,92.0
1124,65.0,0,384,0.0,92.0
1125,74.0,0,384,0.0,92.0
1126,50.0,0,384,0.0,102.0
1127,58.0,96,96,0.0,92.0
1128,66.0,0,192,0.0,92.0
1129,69.0,0,192,0.0,92.0
1130,57.0,96,384,0.0,92.0
1131,50.0,192,192,0.0,102.0
1132,46.0,0,192,0.0,102.0
1133,55.0,0,384,0.0,92.0
1134,67.0,0,384,0.0,92.0
1135,74.0,192,384,0.0,92.0
1136,50.0,192,192,0.0,102.0
1137,45.0,0,192,0.0,102.0
1138,54.0,192,384,0.0,92.0
1139,72.0,0,384,0.0,92.0
1140,50.0,192,192,0.0,102.0
1141,43.0,0,192,0.0,102.0
1142,69.0,0,576,0.0,92.0
1143,62.0,192,192,0.0,92.0
1144,46.0,0,192,0.0,102.0
1145,70.0,0,576,0.0,92.0
1146,55.0,192,576,0.0,92.0
1147,51.0,192,384,0.0,102.0
1148,72.0,0,192,0.0,92.0
1149,67.0,0,384,0.0,92.0
1150,57.0,192,192,0.0,92.0
1151,66.0,0,192,0.0,92.0
1152,50.0,192,192,0.0,102.0
1153,52.0,0,96,0.0,102.0
1154,67.0,192,96,0.0,92.0
1155,54.0,96,96,0.0,102.0
1156,69.0,0,96,0.0,92.0
1157,74.0,0,576,0.0,92.0
1158,58.0,0,576,0.0,92.0
1159,60.0,0,96,0.0,92.0
1160,76.0,192,96,0.0,92.0
1161,74.0,0,96,0.0,92.0
1162,70.0,96,384,0.0,92.0
1163,58.0,96,96,0.0,92.0
1164,55.0,0,576,0.0,102.0
1165,53.0,192,96,0.0,102.0
1166,64.0,96,384,0.0,92.0
1167,73.0,0,384,0.0,92.0
1168,52.0,96,96,0.0,102.0
1169,50.0,0,192,0.0,102.0
1170,48.0,192,192,0.0,102.0
1171,65.0,96,384,0.0,92.0
1172,57.0,0,768,0.0,92.0
1173,46.0,192,192,0.0,102.0
1174,74.0,0,576,0.0,92.0
1175,67.0,0,384,0.0,92.0
1176,72.0,192,192,0.0,92.0
1177,45.0,0,192,0.0,102.0
1178,62.0,192,192,0.0,92.0
1179,64.0,192,96,0.0,92.0
1180,43.0,0,384,0.0,102.0
1181,62.0,96,96,0.0,92.0
1182,70.0,0,384,0.0,92.0
1183,61.0,0,192,0.0,92.0
1184,59.0,192,96,0.0,92.0
1185,55.0,0,1152,0.0,92.0
1186,61.0,96,96,0.0,92.0
1187,69.0,0,576,0.0,92.0
1188,53.0,96,192,0.0,92.0
1189,70.0,0,96,0.0,92.0
1190,55.0,192,96,0.0,92.0
1191,69.0,96,96,0.0,92.0
1192,53.0,0,96,0.0,92.0
1193,62.0,0,576,0.0,92.0
1194,61.0,192,192,0.0,92.0
1195,67.0,96,384,0.0,92.0
1196,52.0,0,384,0.0,92.0
1197,53.0,192,192,0.0,92.0
1198,55.0,192,192,0.0,92.0
1199,65.0,0,384,0.0,92.0
1200,62.0,0,768,0.0,92.0
1201,57.0,192,576,0.0,92.0
1202,55.0,192,192,0.0,92.0
1203,45.0,96,2304,0.0,102.0
1204,64.0,0,768,0.0,92.0
1205,61.0,384,384,0.0,92.0
1206,38.0,0,768,0.0,102.0
1207,62.0,0,768,0.0,92.0
1208,50.0,192,768,0.0,92.0
1209,53.0,0,768,0.0,92.0
1210,57.0,0,768,0.0,92.0
