,note,step,duration,channel,velocity
0,64.0,8,240,1.0,0.0
1,64.0,0,240,5.0,0.0
2,48.0,60,60,2.0,0.0
3,36.0,0,60,3.0,0.0
4,24.0,0,60,6.0,0.0
5,67.0,0,240,0.0,0.0
6,67.0,50,240,4.0,0.0
7,26.0,0,60,6.0,0.0
8,50.0,60,60,2.0,0.0
9,38.0,0,60,3.0,0.0
10,72.0,0,180,4.0,0.0
11,72.0,64,180,0.0,0.0
12,28.0,0,60,6.0,0.0
13,40.0,60,60,3.0,0.0
14,52.0,0,60,2.0,0.0
15,24.0,0,60,6.0,0.0
16,36.0,0,60,3.0,0.0
17,48.0,0,60,2.0,0.0
18,31.0,0,720,6.0,0.0
19,55.0,0,720,2.0,0.0
20,62.0,0,360,5.0,0.0
21,43.0,0,720,3.0,0.0
22,62.0,0,360,1.0,0.0
23,74.0,0,60,4.0,0.0
24,74.0,118,60,0.0,0.0
25,71.0,0,120,0.0,0.0
26,71.0,61,120,4.0,0.0
27,76.0,0,180,4.0,0.0
28,76.0,60,180,0.0,0.0
29,67.0,0,60,4.0,0.0
30,67.0,60,60,0.0,0.0
31,72.0,59,180,0.0,0.0
32,72.0,0,180,4.0,0.0
33,60.0,0,120,1.0,0.0
34,60.0,61,120,5.0,0.0
35,77.0,0,60,4.0,0.0
36,77.0,0,60,0.0,0.0
37,62.0,2,120,1.0,0.0
38,74.0,0,180,0.0,0.0
39,74.0,59,180,4.0,0.0
40,62.0,0,120,5.0,0.0
41,72.0,0,60,4.0,0.0
42,72.0,58,60,0.0,0.0
43,71.0,0,120,4.0,0.0
44,71.0,1,120,0.0,0.0
45,67.0,0,120,5.0,0.0
46,67.0,1,120,1.0,0.0
47,76.0,66,60,4.0,0.0
48,76.0,0,60,0.0,0.0
49,64.0,0,240,1.0,0.0
50,72.0,0,300,0.0,0.0
51,64.0,0,240,5.0,0.0
52,45.0,60,180,3.0,0.0
53,33.0,0,180,6.0,0.0
54,72.0,60,300,4.0,0.0
55,57.0,0,180,2.0,0.0
56,71.0,0,60,4.0,0.0
57,71.0,0,60,4.0,0.0
58,71.0,60,15,0.0,0.0
59,55.0,61,60,2.0,0.0
60,43.0,0,60,3.0,0.0
61,31.0,0,60,6.0,0.0
62,54.0,1,240,2.0,0.0
63,62.0,0,480,1.0,0.0
64,42.0,0,240,3.0,0.0
65,62.0,0,480,5.0,0.0
66,30.0,0,240,6.0,0.0
67,76.0,0,60,0.0,0.0
68,76.0,54,60,4.0,0.0
69,74.0,0,60,0.0,0.0
70,74.0,63,60,4.0,0.0
71,69.0,0,120,0.0,0.0
72,69.0,2,120,4.0,0.0
73,72.0,59,60,0.0,0.0
74,72.0,0,60,4.0,0.0
75,71.0,0,60,0.0,0.0
76,31.0,0,180,6.0,0.0
77,55.0,0,180,2.0,0.0
78,43.0,60,180,3.0,0.0
79,71.0,60,60,4.0,0.0
80,69.0,0,60,4.0,0.0
81,69.0,0,60,0.0,0.0
82,71.0,0,120,4.0,0.0
83,67.0,0,120,4.0,0.0
84,71.0,120,120,0.0,0.0
85,67.0,0,120,0.0,0.0
86,53.0,0,60,2.0,0.0
87,29.0,0,60,6.0,0.0
88,41.0,0,60,3.0,0.0
89,60.0,0,480,1.0,0.0
90,60.0,0,480,5.0,0.0
91,52.0,0,480,2.0,0.0
92,40.0,0,480,3.0,0.0
93,28.0,0,480,6.0,0.0
94,76.0,0,60,4.0,0.0
95,76.0,60,60,0.0,0.0
96,79.0,0,60,0.0,0.0
97,79.0,60,60,4.0,0.0
98,76.0,60,60,0.0,0.0
99,76.0,0,60,4.0,0.0
100,72.0,60,60,0.0,0.0
101,72.0,0,60,4.0,0.0
102,76.0,60,60,4.0,0.0
103,76.0,0,60,0.0,0.0
104,67.0,60,60,4.0,0.0
105,67.0,0,60,0.0,0.0
106,72.0,0,60,0.0,0.0
107,72.0,60,60,4.0,0.0
108,29.0,0,360,6.0,0.0
109,41.0,0,360,3.0,0.0
110,53.0,1,360,2.0,0.0
111,60.0,0,240,1.0,0.0
112,60.0,0,240,5.0,0.0
113,69.0,0,60,0.0,0.0
114,69.0,60,60,4.0,0.0
115,72.0,0,60,4.0,0.0
116,72.0,60,60,0.0,0.0
117,74.0,0,60,0.0,0.0
118,74.0,60,60,4.0,0.0
119,76.0,0,60,0.0,0.0
120,76.0,60,60,4.0,0.0
121,77.0,0,60,0.0,0.0
122,62.0,60,360,5.0,0.0
123,62.0,0,360,1.0,0.0
124,77.0,59,60,4.0,0.0
125,76.0,0,60,0.0,0.0
126,76.0,60,60,4.0,0.0
127,74.0,60,60,0.0,0.0
128,74.0,0,60,4.0,0.0
129,42.0,0,120,3.0,0.0
130,54.0,0,120,2.0,0.0
131,30.0,0,120,6.0,0.0
132,72.0,0,60,4.0,0.0
133,72.0,60,60,0.0,0.0
134,31.0,0,540,6.0,0.0
135,55.0,30,540,2.0,0.0
136,43.0,0,540,3.0,0.0
137,71.0,0,60,0.0,0.0
138,71.0,60,60,4.0,0.0
139,67.0,0,60,4.0,0.0
140,67.0,0,60,0.0,0.0
141,72.0,0,180,0.0,0.0
142,72.0,30,180,4.0,0.0
143,64.0,30,60,1.0,0.0
144,64.0,0,60,5.0,0.0
145,65.0,30,30,5.0,0.0
146,65.0,0,30,1.0,0.0
147,64.0,0,30,5.0,0.0
148,64.0,60,30,1.0,0.0
149,62.0,0,240,5.0,0.0
150,62.0,60,240,1.0,0.0
151,74.0,30,30,4.0,0.0
152,74.0,0,30,0.0,0.0
153,72.0,60,30,4.0,0.0
154,72.0,0,30,0.0,0.0
155,67.0,0,120,0.0,0.0
156,71.0,30,60,4.0,0.0
157,67.0,0,120,4.0,0.0
158,71.0,0,60,0.0,0.0
159,72.0,0,30,0.0,0.0
160,72.0,30,30,4.0,0.0
161,71.0,0,30,0.0,0.0
162,71.0,0,30,4.0,0.0
163,61.0,0,240,5.0,0.0
164,69.0,30,300,4.0,0.0
165,64.0,0,240,4.0,0.0
166,64.0,0,240,0.0,0.0
167,69.0,0,300,0.0,0.0
168,61.0,0,240,1.0,0.0
169,57.0,30,30,2.0,0.0
170,45.0,0,30,3.0,0.0
171,33.0,0,30,6.0,0.0
172,46.0,0,30,3.0,0.0
173,58.0,60,30,2.0,0.0
174,34.0,0,30,6.0,0.0
175,45.0,0,60,3.0,0.0
176,57.0,30,60,2.0,0.0
177,33.0,0,60,6.0,0.0
178,31.0,0,30,6.0,0.0
179,55.0,0,30,2.0,0.0
180,43.0,30,30,3.0,0.0
181,57.0,0,30,2.0,0.0
182,45.0,0,30,3.0,0.0
183,33.0,60,30,6.0,0.0
184,65.0,0,480,4.0,0.0
185,62.0,53,120,5.0,0.0
186,41.0,0,240,3.0,0.0
187,62.0,0,120,1.0,0.0
188,53.0,0,240,2.0,0.0
189,65.0,0,480,0.0,0.0
190,29.0,0,240,6.0,0.0
191,71.0,30,30,0.0,0.0
192,71.0,0,30,4.0,0.0
193,72.0,0,30,4.0,0.0
194,72.0,0,30,0.0,0.0
195,57.0,35,60,5.0,0.0
196,57.0,0,60,1.0,0.0
197,74.0,60,120,4.0,0.0
198,74.0,0,120,0.0,0.0
199,59.0,0,30,1.0,0.0
200,59.0,31,30,5.0,0.0
201,60.0,1,30,5.0,0.0
202,60.0,0,30,1.0,0.0
203,74.0,0,60,4.0,0.0
204,50.0,0,240,2.0,0.0
205,26.0,62,240,6.0,0.0
206,38.0,0,240,3.0,0.0
207,74.0,30,60,0.0,0.0
208,59.0,0,360,1.0,0.0
209,59.0,59,360,5.0,0.0
210,76.0,0,30,4.0,0.0
211,76.0,30,30,0.0,0.0
212,77.0,0,30,0.0,0.0
213,77.0,60,30,4.0,0.0
214,71.0,30,60,4.0,0.0
215,71.0,0,60,0.0,0.0
216,72.0,0,30,0.0,0.0
217,72.0,30,30,4.0,0.0
218,74.0,0,30,4.0,0.0
219,74.0,0,30,0.0,0.0
220,68.0,0,180,0.0,0.0
221,28.0,0,960,6.0,0.0
222,40.0,0,960,3.0,0.0
223,68.0,29,180,4.0,0.0
224,52.0,0,960,2.0,0.0
225,65.0,27,60,4.0,0.0
226,65.0,0,60,0.0,0.0
227,64.0,0,30,0.0,0.0
228,64.0,29,30,4.0,0.0
229,62.0,0,30,0.0,0.0
230,62.0,4,30,4.0,0.0
231,60.0,1,120,0.0,0.0
232,60.0,0,120,4.0,0.0
233,57.0,0,240,1.0,0.0
234,57.0,2,240,5.0,0.0
235,69.0,29,30,4.0,0.0
236,69.0,0,30,0.0,0.0
237,71.0,60,30,0.0,0.0
238,71.0,0,30,4.0,0.0
239,64.0,4,240,1.0,0.0
240,64.0,0,240,5.0,0.0
241,69.0,0,60,4.0,0.0
242,69.0,30,60,0.0,0.0
243,71.0,30,30,0.0,0.0
244,71.0,0,30,4.0,0.0
245,72.0,58,30,0.0,0.0
246,72.0,0,30,4.0,0.0
247,74.0,0,60,4.0,0.0
248,74.0,30,60,0.0,0.0
249,56.0,0,180,1.0,0.0
250,56.0,29,180,5.0,0.0
251,72.0,27,30,4.0,0.0
252,72.0,0,30,0.0,0.0
253,74.0,0,30,0.0,0.0
254,74.0,59,30,4.0,0.0
255,71.0,1,60,0.0,0.0
256,71.0,0,60,4.0,0.0
257,64.0,0,720,4.0,0.0
258,64.0,58,720,0.0,0.0
259,57.0,0,30,5.0,0.0
260,57.0,30,30,1.0,0.0
261,59.0,0,30,5.0,0.0
262,59.0,60,30,1.0,0.0
263,60.0,0,180,5.0,0.0
264,60.0,30,180,1.0,0.0
265,72.0,30,30,4.0,0.0
266,72.0,0,30,0.0,0.0
267,71.0,0,30,0.0,0.0
268,71.0,60,30,4.0,0.0
269,69.0,30,180,0.0,0.0
270,69.0,0,180,4.0,0.0
271,59.0,30,30,5.0,0.0
272,59.0,0,30,1.0,0.0
273,57.0,0,30,1.0,0.0
274,57.0,60,30,5.0,0.0
275,59.0,0,120,1.0,0.0
276,59.0,0,120,5.0,0.0
277,71.0,0,30,4.0,0.0
278,71.0,30,30,0.0,0.0
279,68.0,60,30,4.0,0.0
280,68.0,0,30,0.0,0.0
281,72.0,2,240,4.0,0.0
282,59.0,30,60,1.0,0.0
283,33.0,0,240,3.0,0.0
284,45.0,0,240,2.0,0.0
285,21.0,0,240,6.0,0.0
286,59.0,0,60,5.0,0.0
287,72.0,0,240,0.0,0.0
288,57.0,30,30,1.0,0.0
289,57.0,0,30,5.0,0.0
290,56.0,0,30,1.0,0.0
291,56.0,60,30,5.0,0.0
292,57.0,0,60,1.0,0.0
293,57.0,30,60,5.0,0.0
294,52.0,0,30,5.0,0.0
295,52.0,30,30,1.0,0.0
296,55.0,0,30,1.0,0.0
297,55.0,0,30,5.0,0.0
298,50.0,0,480,2.0,0.0
299,38.0,0,480,3.0,0.0
300,26.0,92,480,6.0,0.0
301,62.0,0,240,4.0,0.0
302,54.0,1,240,5.0,0.0
303,72.0,30,60,0.0,0.0
304,62.0,0,240,0.0,0.0
305,72.0,0,60,4.0,0.0
306,54.0,0,240,1.0,0.0
307,74.0,31,30,0.0,0.0
308,74.0,0,30,4.0,0.0
309,72.0,0,30,0.0,0.0
310,72.0,61,30,4.0,0.0
311,70.0,29,60,0.0,0.0
312,70.0,0,60,4.0,0.0
313,72.0,0,30,0.0,0.0
314,72.0,29,30,4.0,0.0
315,69.0,60,30,0.0,0.0
316,69.0,0,30,4.0,0.0
317,55.0,30,180,5.0,0.0
318,70.0,29,330,0.0,0.0
319,62.0,29,60,0.0,0.0
320,55.0,0,180,1.0,0.0
321,70.0,0,330,4.0,0.0
322,62.0,0,60,4.0,0.0
323,64.0,0,30,4.0,0.0
324,64.0,30,30,0.0,0.0
325,66.0,0,30,4.0,0.0
326,66.0,60,30,0.0,0.0
327,67.0,1,120,0.0,0.0
328,67.0,0,120,4.0,0.0
329,57.0,28,30,1.0,0.0
330,57.0,0,30,5.0,0.0
331,58.0,0,150,5.0,0.0
332,58.0,62,150,1.0,0.0
333,37.0,0,240,3.0,0.0
334,49.0,0,240,2.0,0.0
335,25.0,0,240,6.0,0.0
336,64.0,0,60,0.0,0.0
337,64.0,0,60,4.0,0.0
338,67.0,0,30,4.0,0.0
339,67.0,0,30,0.0,0.0
340,57.0,59,360,1.0,0.0
341,57.0,0,360,5.0,0.0
342,69.0,28,60,0.0,0.0
343,69.0,0,60,4.0,0.0
344,67.0,30,30,0.0,0.0
345,67.0,0,30,4.0,0.0
346,69.0,66,30,0.0,0.0
347,69.0,0,30,4.0,0.0
348,50.0,0,360,2.0,0.0
349,38.0,0,360,3.0,0.0
350,65.0,0,180,0.0,0.0
351,26.0,58,360,6.0,0.0
352,65.0,29,180,4.0,0.0
353,64.0,23,60,4.0,0.0
354,64.0,0,60,0.0,0.0
355,62.0,0,30,0.0,0.0
356,62.0,32,30,4.0,0.0
357,61.0,59,30,0.0,0.0
358,61.0,0,30,4.0,0.0
359,62.0,2,120,4.0,0.0
360,62.0,0,120,0.0,0.0
361,64.0,29,30,0.0,0.0
362,64.0,0,30,4.0,0.0
363,65.0,0,30,0.0,0.0
364,65.0,0,30,4.0,0.0
365,64.0,32,180,4.0,0.0
366,64.0,0,180,0.0,0.0
367,67.0,0,60,0.0,0.0
368,67.0,33,60,4.0,0.0
369,58.0,0,120,5.0,0.0
370,58.0,0,120,1.0,0.0
371,69.0,0,30,0.0,0.0
372,69.0,27,30,4.0,0.0
373,70.0,1,30,4.0,0.0
374,70.0,0,30,0.0,0.0
375,49.0,0,120,2.0,0.0
376,52.0,0,120,1.0,0.0
377,25.0,0,120,6.0,0.0
378,52.0,0,120,5.0,0.0
379,37.0,2,120,3.0,0.0
380,69.0,0,120,4.0,0.0
381,69.0,88,120,0.0,0.0
382,64.0,0,30,0.0,0.0
383,64.0,30,30,4.0,0.0
384,65.0,0,30,4.0,0.0
385,65.0,0,30,0.0,0.0
386,66.0,30,180,0.0,0.0
387,57.0,0,240,1.0,0.0
388,57.0,0,240,5.0,0.0
389,48.0,0,240,2.0,0.0
390,36.0,0,240,3.0,0.0
391,66.0,0,180,4.0,0.0
392,24.0,0,240,6.0,0.0
393,71.0,0,30,0.0,0.0
394,71.0,30,30,4.0,0.0
395,72.0,0,30,4.0,0.0
396,72.0,60,30,0.0,0.0
397,74.0,0,180,4.0,0.0
398,74.0,30,180,0.0,0.0
399,64.0,0,30,4.0,0.0
400,64.0,30,30,0.0,0.0
401,66.0,60,30,0.0,0.0
402,66.0,0,30,4.0,0.0
403,55.0,1,360,5.0,0.0
404,55.0,0,360,1.0,0.0
405,35.0,0,240,3.0,0.0
406,47.0,60,240,2.0,0.0
407,67.0,0,240,4.0,0.0
408,23.0,0,240,6.0,0.0
409,67.0,0,240,0.0,0.0
410,71.0,0,30,4.0,0.0
411,71.0,30,30,0.0,0.0
412,72.0,0,30,4.0,0.0
413,72.0,60,30,0.0,0.0
414,74.0,30,60,4.0,0.0
415,74.0,0,60,0.0,0.0
416,76.0,0,30,4.0,0.0
417,76.0,30,30,0.0,0.0
418,78.0,0,30,4.0,0.0
419,78.0,0,30,0.0,0.0
420,24.0,0,240,6.0,0.0
421,76.0,0,300,0.0,0.0
422,67.0,30,60,0.0,0.0
423,48.0,60,240,2.0,0.0
424,76.0,30,300,4.0,0.0
425,36.0,0,240,3.0,0.0
426,67.0,0,60,4.0,0.0
427,69.0,29,30,4.0,0.0
428,69.0,0,30,0.0,0.0
429,71.0,90,30,4.0,0.0
430,71.0,0,30,0.0,0.0
431,72.0,0,120,4.0,0.0
432,72.0,0,120,0.0,0.0
433,52.0,30,30,1.0,0.0
434,52.0,0,30,5.0,0.0
435,48.0,0,30,5.0,0.0
436,48.0,0,30,1.0,0.0
437,69.0,0,180,4.0,0.0
438,18.0,0,240,6.0,0.0
439,30.0,0,240,3.0,0.0
440,54.0,0,180,5.0,0.0
441,42.0,0,240,2.0,0.0
442,54.0,30,180,1.0,0.0
443,69.0,0,180,0.0,0.0
444,74.0,0,30,0.0,0.0
445,74.0,30,30,4.0,0.0
446,72.0,0,30,4.0,0.0
447,72.0,60,30,0.0,0.0
448,74.0,0,180,0.0,0.0
449,74.0,30,180,4.0,0.0
450,50.0,0,60,1.0,0.0
451,71.0,30,30,0.0,0.0
452,71.0,0,30,4.0,0.0
453,50.0,0,60,5.0,0.0
454,72.0,0,30,4.0,0.0
455,72.0,60,30,0.0,0.0
456,71.0,0,180,0.0,0.0
457,55.0,0,960,5.0,0.0
458,55.0,0,960,1.0,0.0
459,71.0,31,180,4.0,0.0
460,19.0,0,1560,6.0,0.0
461,31.0,56,1560,3.0,0.0
462,43.0,0,1560,2.0,0.0
463,76.0,0,30,0.0,0.0
464,76.0,30,30,4.0,0.0
465,77.0,0,30,0.0,0.0
466,77.0,61,30,4.0,0.0
467,76.0,0,180,4.0,0.0
468,76.0,27,180,0.0,0.0
469,72.0,29,30,0.0,0.0
470,72.0,0,30,4.0,0.0
471,74.0,60,30,0.0,0.0
472,74.0,0,30,4.0,0.0
473,72.0,0,180,4.0,0.0
474,72.0,29,180,0.0,0.0
475,77.0,0,30,0.0,0.0
476,77.0,34,30,4.0,0.0
477,79.0,59,30,4.0,0.0
478,79.0,0,30,0.0,0.0
479,77.0,3,120,0.0,0.0
480,77.0,0,120,4.0,0.0
481,74.0,27,30,0.0,0.0
482,74.0,0,30,4.0,0.0
483,76.0,0,30,4.0,0.0
484,76.0,60,30,0.0,0.0
485,77.0,0,60,4.0,0.0
486,74.0,0,180,4.0,0.0
487,74.0,30,180,0.0,0.0
488,77.0,30,60,0.0,0.0
489,79.0,0,30,4.0,0.0
490,79.0,30,30,0.0,0.0
491,81.0,0,30,0.0,0.0
492,81.0,60,30,4.0,0.0
493,79.0,30,180,4.0,0.0
494,79.0,0,180,0.0,0.0
495,76.0,0,30,0.0,0.0
496,76.0,30,30,4.0,0.0
497,77.0,60,30,4.0,0.0
498,77.0,0,30,0.0,0.0
499,76.0,0,180,0.0,0.0
500,76.0,30,180,4.0,0.0
501,81.0,0,30,0.0,0.0
502,81.0,30,30,4.0,0.0
503,79.0,0,30,4.0,0.0
504,79.0,60,30,0.0,0.0
505,77.0,0,120,0.0,0.0
506,77.0,60,120,4.0,0.0
507,74.0,0,30,4.0,0.0
508,74.0,30,30,0.0,0.0
509,72.0,1,30,4.0,0.0
510,72.0,0,30,0.0,0.0
511,77.0,0,60,0.0,0.0
512,74.0,30,180,0.0,0.0
513,55.0,30,540,1.0,0.0
514,55.0,0,540,5.0,0.0
515,77.0,29,60,4.0,0.0
516,74.0,0,180,4.0,0.0
517,79.0,0,30,0.0,0.0
518,79.0,30,30,4.0,0.0
519,77.0,60,30,4.0,0.0
520,77.0,0,30,0.0,0.0
521,76.0,0,180,4.0,0.0
522,76.0,30,180,0.0,0.0
523,72.0,0,30,0.0,0.0
524,72.0,30,30,4.0,0.0
525,71.0,0,30,0.0,0.0
526,71.0,60,30,4.0,0.0
527,72.0,30,180,4.0,0.0
528,72.0,0,180,0.0,0.0
529,77.0,30,30,0.0,0.0
530,77.0,0,30,4.0,0.0
531,76.0,0,30,0.0,0.0
532,76.0,60,30,4.0,0.0
533,74.0,30,660,4.0,0.0
534,74.0,0,660,0.0,0.0
535,71.0,30,30,0.0,0.0
536,71.0,0,30,4.0,0.0
537,69.0,0,30,4.0,0.0
538,69.0,60,30,0.0,0.0
539,71.0,0,480,4.0,0.0
540,71.0,59,480,0.0,0.0
541,55.0,30,30,5.0,0.0
542,55.0,0,30,1.0,0.0
543,57.0,0,30,5.0,0.0
544,57.0,4,30,1.0,0.0
545,59.0,0,60,5.0,0.0
546,59.0,30,60,1.0,0.0
547,60.0,0,30,5.0,0.0
548,60.0,30,30,1.0,0.0
549,62.0,60,30,5.0,0.0
550,62.0,0,30,1.0,0.0
551,55.0,30,60,1.0,0.0
552,55.0,0,60,5.0,0.0
553,57.0,0,30,1.0,0.0
554,57.0,30,30,5.0,0.0
555,59.0,0,30,1.0,0.0
556,59.0,60,30,5.0,0.0
557,50.0,0,60,1.0,0.0
558,50.0,30,60,5.0,0.0
559,52.0,30,30,1.0,0.0
560,52.0,0,30,5.0,0.0
561,53.0,0,30,5.0,0.0
562,53.0,1,30,1.0,0.0
563,52.0,60,120,1.0,0.0
564,67.0,0,180,4.0,0.0
565,67.0,30,180,0.0,0.0
566,52.0,0,120,5.0,0.0
567,72.0,0,30,0.0,0.0
568,72.0,30,30,4.0,0.0
569,71.0,0,30,0.0,0.0
570,71.0,0,30,4.0,0.0
571,72.0,0,180,4.0,0.0
572,57.0,0,120,5.0,0.0
573,72.0,30,180,0.0,0.0
574,57.0,0,120,1.0,0.0
575,65.0,0,30,4.0,0.0
576,65.0,30,30,0.0,0.0
577,64.0,0,30,0.0,0.0
578,64.0,60,30,4.0,0.0
579,50.0,0,120,1.0,0.0
580,65.0,0,180,4.0,0.0
581,65.0,30,180,0.0,0.0
582,50.0,0,120,5.0,0.0
583,74.0,0,30,0.0,0.0
584,74.0,30,30,4.0,0.0
585,72.0,0,30,0.0,0.0
586,72.0,60,30,4.0,0.0
587,71.0,0,120,0.0,0.0
588,71.0,0,120,4.0,0.0
589,55.0,60,120,1.0,0.0
590,55.0,0,120,5.0,0.0
591,64.0,0,30,0.0,0.0
592,64.0,30,30,4.0,0.0
593,62.0,0,30,0.0,0.0
594,62.0,0,30,4.0,0.0
595,55.0,0,60,5.0,0.0
596,24.0,0,180,6.0,0.0
597,36.0,30,180,3.0,0.0
598,55.0,30,60,1.0,0.0
599,48.0,0,180,2.0,0.0
600,64.0,0,180,0.0,0.0
601,72.0,0,120,4.0,0.0
602,64.0,0,180,4.0,0.0
603,72.0,0,120,0.0,0.0
604,57.0,0,30,5.0,0.0
605,57.0,30,30,1.0,0.0
606,59.0,0,30,5.0,0.0
607,59.0,60,30,1.0,0.0
608,60.0,0,180,5.0,0.0
609,60.0,30,180,1.0,0.0
610,65.0,0,30,0.0,0.0
611,26.0,0,30,6.0,0.0
612,38.0,30,30,3.0,0.0
613,50.0,0,30,2.0,0.0
614,65.0,0,30,4.0,0.0
615,28.0,0,30,6.0,0.0
616,67.0,0,30,4.0,0.0
617,52.0,60,30,2.0,0.0
618,40.0,0,30,3.0,0.0
619,67.0,0,30,0.0,0.0
620,53.0,30,180,2.0,0.0
621,69.0,0,180,0.0,0.0
622,29.0,0,180,6.0,0.0
623,41.0,0,180,3.0,0.0
624,69.0,0,180,4.0,0.0
625,62.0,30,30,5.0,0.0
626,62.0,0,30,1.0,0.0
627,64.0,0,30,5.0,0.0
628,64.0,60,30,1.0,0.0
629,65.0,60,360,5.0,0.0
630,65.0,0,360,1.0,0.0
631,31.0,0,30,6.0,0.0
632,71.0,0,30,0.0,0.0
633,71.0,0,30,4.0,0.0
634,43.0,30,30,3.0,0.0
635,55.0,0,30,2.0,0.0
636,57.0,0,30,2.0,0.0
637,72.0,60,30,4.0,0.0
638,33.0,0,30,6.0,0.0
639,72.0,0,30,0.0,0.0
640,45.0,0,30,3.0,0.0
641,38.0,0,60,3.0,0.0
642,26.0,0,60,6.0,0.0
643,71.0,2,360,0.0,0.0
644,50.0,30,60,2.0,0.0
645,71.0,0,360,4.0,0.0
646,28.0,0,30,6.0,0.0
647,52.0,30,30,2.0,0.0
648,40.0,0,30,3.0,0.0
649,53.0,0,30,2.0,0.0
650,29.0,0,30,6.0,0.0
651,41.0,60,30,3.0,0.0
652,35.0,30,60,3.0,0.0
653,23.0,0,60,6.0,0.0
654,47.0,0,60,2.0,0.0
655,74.0,85,240,4.0,0.0
656,74.0,0,240,0.0,0.0
657,48.0,30,30,2.0,0.0
658,36.0,0,30,3.0,0.0
659,24.0,0,30,6.0,0.0
660,38.0,0,30,3.0,0.0
661,50.0,0,30,2.0,0.0
662,26.0,0,30,6.0,0.0
663,44.0,60,60,2.0,0.0
664,64.0,0,360,5.0,0.0
665,64.0,1,360,1.0,0.0
666,20.0,0,60,6.0,0.0
667,32.0,0,60,3.0,0.0
668,16.0,1,60,6.0,0.0
669,40.0,0,60,2.0,0.0
670,28.0,0,60,3.0,0.0
671,72.0,59,240,4.0,0.0
672,45.0,30,180,2.0,0.0
673,72.0,0,240,0.0,0.0
674,21.0,0,180,6.0,0.0
675,33.0,0,180,3.0,0.0
676,69.0,33,30,0.0,0.0
677,69.0,0,30,4.0,0.0
678,68.0,59,30,0.0,0.0
679,68.0,0,30,4.0,0.0
680,69.0,0,240,0.0,0.0
681,69.0,0,240,4.0,0.0
682,57.0,0,30,2.0,0.0
683,33.0,30,30,6.0,0.0
684,45.0,0,30,3.0,0.0
685,43.0,0,30,3.0,0.0
686,55.0,0,30,2.0,0.0
687,31.0,0,30,6.0,0.0
688,62.0,0,240,1.0,0.0
689,30.0,0,60,6.0,0.0
690,42.0,0,60,3.0,0.0
691,62.0,1,240,5.0,0.0
692,54.0,30,60,2.0,0.0
693,40.0,30,30,3.0,0.0
694,28.0,0,30,6.0,0.0
695,52.0,0,30,2.0,0.0
696,38.0,0,30,3.0,0.0
697,50.0,0,30,2.0,0.0
698,26.0,60,30,6.0,0.0
699,55.0,0,60,2.0,0.0
700,71.0,0,120,0.0,0.0
701,67.0,0,240,0.0,0.0
702,71.0,0,120,4.0,0.0
703,31.0,0,60,6.0,0.0
704,67.0,0,240,4.0,0.0
705,43.0,30,60,3.0,0.0
706,38.0,30,30,3.0,0.0
707,26.0,0,30,6.0,0.0
708,50.0,0,30,2.0,0.0
709,53.0,0,30,2.0,0.0
710,41.0,61,30,3.0,0.0
711,29.0,0,30,6.0,0.0
712,70.0,0,120,0.0,0.0
713,70.0,0,120,4.0,0.0
714,60.0,0,120,1.0,0.0
715,60.0,60,120,5.0,0.0
716,40.0,0,60,3.0,0.0
717,28.0,31,60,6.0,0.0
718,52.0,0,60,2.0,0.0
719,50.0,0,30,2.0,0.0
720,26.0,0,30,6.0,0.0
721,38.0,21,30,3.0,0.0
722,24.0,0,30,6.0,0.0
723,48.0,0,30,2.0,0.0
724,36.0,6,30,3.0,0.0
725,69.0,0,120,4.0,0.0
726,29.0,0,60,6.0,0.0
727,60.0,0,120,1.0,0.0
728,65.0,0,240,0.0,0.0
729,60.0,0,120,5.0,0.0
730,69.0,0,120,0.0,0.0
731,53.0,30,60,2.0,0.0
732,65.0,0,240,4.0,0.0
733,41.0,0,60,3.0,0.0
734,48.0,0,30,2.0,0.0
735,24.0,30,30,6.0,0.0
736,36.0,0,30,3.0,0.0
737,52.0,60,30,2.0,0.0
738,40.0,0,30,3.0,0.0
739,28.0,0,30,6.0,0.0
740,62.0,0,180,5.0,0.0
741,71.0,0,120,0.0,0.0
742,38.0,30,60,3.0,0.0
743,71.0,0,120,4.0,0.0
744,62.0,30,180,1.0,0.0
745,26.0,0,60,6.0,0.0
746,50.0,0,60,2.0,0.0
747,48.0,0,30,2.0,0.0
748,24.0,0,30,6.0,0.0
749,36.0,30,30,3.0,0.0
750,47.0,0,30,2.0,0.0
751,23.0,0,30,6.0,0.0
752,35.0,60,30,3.0,0.0
753,67.0,0,240,4.0,0.0
754,64.0,30,180,4.0,0.0
755,40.0,0,240,3.0,0.0
756,52.0,0,240,2.0,0.0
757,67.0,60,240,0.0,0.0
758,28.0,0,240,6.0,0.0
759,64.0,0,180,0.0,0.0
760,60.0,0,30,5.0,0.0
761,60.0,30,30,1.0,0.0
762,59.0,60,30,1.0,0.0
763,59.0,0,30,5.0,0.0
764,60.0,0,180,1.0,0.0
765,60.0,30,180,5.0,0.0
766,65.0,30,30,4.0,0.0
767,65.0,0,30,0.0,0.0
768,64.0,0,30,0.0,0.0
769,64.0,0,30,4.0,0.0
770,62.0,0,180,0.0,0.0
771,69.0,0,120,0.0,0.0
772,53.0,0,120,2.0,0.0
773,69.0,0,120,4.0,0.0
774,62.0,30,180,4.0,0.0
775,29.0,0,120,6.0,0.0
776,41.0,0,120,3.0,0.0
777,59.0,0,30,5.0,0.0
778,59.0,30,30,1.0,0.0
779,60.0,60,30,5.0,0.0
780,60.0,0,30,1.0,0.0
781,57.0,0,120,5.0,0.0
782,57.0,0,120,1.0,0.0
783,42.0,0,120,3.0,0.0
784,54.0,60,120,2.0,0.0
785,72.0,0,120,0.0,0.0
786,72.0,0,120,4.0,0.0
787,30.0,0,120,6.0,0.0
788,64.0,0,30,0.0,0.0
789,64.0,30,30,4.0,0.0
790,62.0,0,30,0.0,0.0
791,62.0,0,30,4.0,0.0
792,62.0,0,120,4.0,0.0
793,59.0,0,120,1.0,0.0
794,43.0,0,60,3.0,0.0
795,59.0,60,120,5.0,0.0
796,55.0,30,60,2.0,0.0
797,31.0,0,60,6.0,0.0
798,71.0,0,240,0.0,0.0
799,62.0,0,120,0.0,0.0
800,71.0,0,240,4.0,0.0
801,55.0,30,30,2.0,0.0
802,31.0,0,30,6.0,0.0
803,43.0,0,30,3.0,0.0
804,29.0,0,30,6.0,0.0
805,53.0,0,30,2.0,0.0
806,41.0,0,30,3.0,0.0
807,52.0,30,60,2.0,0.0
808,40.0,0,60,3.0,0.0
809,67.0,60,120,0.0,0.0
810,67.0,0,120,4.0,0.0
811,64.0,60,360,1.0,0.0
812,28.0,0,60,6.0,0.0
813,64.0,0,360,5.0,0.0
814,40.0,0,30,3.0,0.0
815,52.0,0,30,2.0,0.0
816,28.0,30,30,6.0,0.0
817,26.0,0,30,6.0,0.0
818,50.0,0,30,2.0,0.0
819,38.0,0,30,3.0,0.0
820,24.0,30,60,6.0,0.0
821,36.0,0,60,3.0,0.0
822,72.0,0,240,4.0,0.0
823,67.0,0,120,4.0,0.0
824,67.0,0,120,0.0,0.0
825,48.0,0,60,2.0,0.0
826,72.0,0,240,0.0,0.0
827,36.0,0,30,3.0,0.0
828,48.0,0,30,2.0,0.0
829,24.0,30,30,6.0,0.0
830,23.0,60,30,6.0,0.0
831,47.0,0,30,2.0,0.0
832,35.0,0,30,3.0,0.0
833,69.0,0,120,4.0,0.0
834,69.0,0,120,0.0,0.0
835,45.0,0,60,2.0,0.0
836,21.0,30,60,6.0,0.0
837,33.0,0,60,3.0,0.0
838,33.0,30,30,3.0,0.0
839,45.0,0,30,2.0,0.0
840,21.0,0,30,6.0,0.0
841,31.0,0,30,3.0,0.0
842,19.0,0,30,6.0,0.0
843,43.0,0,30,2.0,0.0
844,29.0,30,60,3.0,0.0
845,41.0,0,60,2.0,0.0
846,72.0,0,240,0.0,0.0
847,65.0,0,240,1.0,0.0
848,72.0,0,240,4.0,0.0
849,69.0,0,240,4.0,0.0
850,69.0,0,240,0.0,0.0
851,17.0,0,60,6.0,0.0
852,65.0,0,240,5.0,0.0
853,21.0,0,30,6.0,0.0
854,45.0,0,30,2.0,0.0
855,33.0,30,30,3.0,0.0
856,31.0,0,30,3.0,0.0
857,19.0,60,30,6.0,0.0
858,43.0,0,30,2.0,0.0
859,29.0,30,60,3.0,0.0
860,41.0,0,60,2.0,0.0
861,17.0,0,60,6.0,0.0
862,29.0,30,30,3.0,0.0
863,17.0,0,30,6.0,0.0
864,41.0,0,30,2.0,0.0
865,28.0,60,30,3.0,0.0
866,40.0,0,30,2.0,0.0
867,16.0,0,30,6.0,0.0
868,77.0,0,240,0.0,0.0
869,65.0,0,120,5.0,0.0
870,65.0,0,120,1.0,0.0
871,26.0,0,60,3.0,0.0
872,38.0,0,60,2.0,0.0
873,77.0,0,240,4.0,0.0
874,74.0,0,240,4.0,0.0
875,74.0,60,240,0.0,0.0
876,14.0,30,60,6.0,0.0
877,50.0,0,30,2.0,0.0
878,26.0,30,30,6.0,0.0
879,38.0,0,30,3.0,0.0
880,24.0,60,30,6.0,0.0
881,36.0,0,30,3.0,0.0
882,48.0,0,30,2.0,0.0
883,67.0,60,360,5.0,0.0
884,67.0,0,360,1.0,0.0
885,35.0,0,60,3.0,0.0
886,23.0,0,60,6.0,0.0
887,47.0,30,60,2.0,0.0
888,21.0,0,30,6.0,0.0
889,33.0,0,30,3.0,0.0
890,45.0,30,30,2.0,0.0
891,19.0,0,30,6.0,0.0
892,43.0,0,30,2.0,0.0
893,31.0,0,30,3.0,0.0
894,48.0,0,180,2.0,0.0
895,36.0,0,180,3.0,0.0
896,24.0,30,180,6.0,0.0
897,74.0,30,60,0.0,0.0
898,76.0,0,240,0.0,0.0
899,74.0,0,60,4.0,0.0
900,76.0,0,240,4.0,0.0
901,72.0,0,30,4.0,0.0
902,72.0,30,30,0.0,0.0
903,71.0,60,30,0.0,0.0
904,71.0,0,30,4.0,0.0
905,72.0,0,120,0.0,0.0
906,72.0,0,120,4.0,0.0
907,38.0,0,30,3.0,0.0
908,50.0,0,30,2.0,0.0
909,26.0,30,30,6.0,0.0
910,52.0,0,30,2.0,0.0
911,28.0,0,30,6.0,0.0
912,40.0,0,30,3.0,0.0
913,33.0,0,180,3.0,0.0
914,76.0,0,360,0.0,0.0
915,72.0,30,60,0.0,0.0
916,69.0,2,480,1.0,0.0
917,21.0,30,180,6.0,0.0
918,45.0,0,180,2.0,0.0
919,69.0,0,480,5.0,0.0
920,76.0,0,360,4.0,0.0
921,72.0,0,60,4.0,0.0
922,74.0,30,30,0.0,0.0
923,74.0,0,30,4.0,0.0
924,72.0,0,30,4.0,0.0
925,72.0,60,30,0.0,0.0
926,72.0,0,180,0.0,0.0
927,72.0,30,180,4.0,0.0
928,35.0,0,30,3.0,0.0
929,47.0,0,30,2.0,0.0
930,23.0,30,30,6.0,0.0
931,36.0,60,30,3.0,0.0
932,24.0,0,30,6.0,0.0
933,48.0,0,30,2.0,0.0
934,29.0,0,120,3.0,0.0
935,17.0,0,120,6.0,0.0
936,41.0,60,120,2.0,0.0
937,74.0,30,30,4.0,0.0
938,74.0,0,30,0.0,0.0
939,72.0,0,30,4.0,0.0
940,72.0,0,30,0.0,0.0
941,74.0,0,240,4.0,0.0
942,30.0,30,60,3.0,0.0
943,72.0,0,120,4.0,0.0
944,72.0,66,120,0.0,0.0
945,42.0,0,60,2.0,0.0
946,18.0,0,60,6.0,0.0
947,28.0,0,30,3.0,0.0
948,16.0,30,30,6.0,0.0
949,40.0,0,30,2.0,0.0
950,30.0,0,30,3.0,0.0
951,42.0,0,30,2.0,0.0
952,18.0,0,30,6.0,0.0
953,67.0,0,120,5.0,0.0
954,31.0,0,120,3.0,0.0
955,19.0,60,120,6.0,0.0
956,67.0,0,120,1.0,0.0
957,43.0,0,120,2.0,0.0
958,72.0,0,60,0.0,0.0
959,72.0,20,60,4.0,0.0
960,71.0,0,30,4.0,0.0
961,71.0,30,30,0.0,0.0
962,69.0,2,30,0.0,0.0
963,69.0,0,30,4.0,0.0
964,74.0,0,60,4.0,0.0
965,74.0,0,15,0.0,0.0
966,67.0,0,60,1.0,0.0
967,71.0,0,180,4.0,0.0
968,67.0,0,60,5.0,0.0
969,71.0,28,180,0.0,0.0
970,65.0,60,60,5.0,0.0
971,65.0,0,60,1.0,0.0
972,76.0,0,30,0.0,0.0
973,76.0,26,30,4.0,0.0
974,77.0,1,30,0.0,0.0
975,77.0,0,30,4.0,0.0
976,64.0,1,120,1.0,0.0
977,79.0,1,60,4.0,0.0
978,64.0,0,120,5.0,0.0
979,79.0,0,60,0.0,0.0
980,81.0,0,30,4.0,0.0
981,81.0,31,30,0.0,0.0
982,72.0,1,120,4.0,0.0
983,72.0,0,120,0.0,0.0
984,79.0,61,30,4.0,0.0
985,79.0,0,30,0.0,0.0
986,64.0,0,120,5.0,0.0
987,64.0,0,120,1.0,0.0
988,77.0,0,60,0.0,0.0
989,77.0,28,60,4.0,0.0
990,71.0,0,60,0.0,0.0
991,71.0,0,60,4.0,0.0
992,79.0,29,30,0.0,0.0
993,79.0,0,30,4.0,0.0
994,77.0,0,30,0.0,0.0
995,77.0,60,30,4.0,0.0
996,60.0,0,60,1.0,0.0
997,72.0,0,120,4.0,0.0
998,60.0,30,60,5.0,0.0
999,76.0,0,120,4.0,0.0
1000,72.0,0,120,0.0,0.0
1001,76.0,0,120,0.0,0.0
1002,62.0,30,30,1.0,0.0
1003,62.0,0,30,5.0,0.0
1004,60.0,60,30,5.0,0.0
1005,60.0,0,30,1.0,0.0
1006,74.0,0,120,4.0,0.0
1007,79.0,60,120,4.0,0.0
1008,59.0,30,60,5.0,0.0
1009,74.0,0,120,0.0,0.0
1010,79.0,0,120,0.0,0.0
1011,59.0,0,60,1.0,0.0
1012,60.0,30,30,1.0,0.0
1013,60.0,0,30,5.0,0.0
1014,59.0,0,30,5.0,0.0
1015,59.0,0,30,1.0,0.0
1016,79.0,30,60,0.0,0.0
1017,72.0,0,180,4.0,0.0
1018,57.0,0,120,1.0,0.0
1019,72.0,30,180,0.0,0.0
1020,79.0,0,60,4.0,0.0
1021,57.0,0,120,5.0,0.0
1022,81.0,30,30,4.0,0.0
1023,81.0,0,30,0.0,0.0
1024,79.0,0,30,0.0,0.0
1025,79.0,60,30,4.0,0.0
1026,77.0,0,120,0.0,0.0
1027,77.0,0,120,4.0,0.0
1028,62.0,0,120,1.0,0.0
1029,62.0,60,120,5.0,0.0
1030,74.0,0,30,4.0,0.0
1031,74.0,30,30,0.0,0.0
1032,72.0,0,30,4.0,0.0
1033,72.0,0,30,0.0,0.0
1034,62.0,0,120,5.0,0.0
1035,31.0,0,1500,6.0,0.0
1036,71.0,0,120,4.0,0.0
1037,77.0,30,60,4.0,0.0
1038,77.0,0,60,0.0,0.0
1039,71.0,60,120,0.0,0.0
1040,43.0,0,1500,3.0,0.0
1041,62.0,0,120,1.0,0.0
1042,55.0,30,1500,2.0,0.0
1043,79.0,0,30,0.0,0.0
1044,79.0,30,30,4.0,0.0
1045,77.0,0,30,0.0,0.0
1046,77.0,0,30,4.0,0.0
1047,72.0,0,120,0.0,0.0
1048,76.0,0,60,0.0,0.0
1049,64.0,30,60,1.0,0.0
1050,64.0,0,60,5.0,0.0
1051,76.0,0,60,4.0,0.0
1052,72.0,0,120,4.0,0.0
1053,60.0,0,60,1.0,0.0
1054,77.0,0,30,0.0,0.0
1055,60.0,60,60,5.0,0.0
1056,77.0,30,30,4.0,0.0
1057,76.0,0,30,0.0,0.0
1058,76.0,0,30,4.0,0.0
1059,72.0,0,60,0.0,0.0
1060,74.0,0,240,0.0,0.0
1061,67.0,0,180,5.0,0.0
1062,67.0,30,180,1.0,0.0
1063,74.0,0,240,4.0,0.0
1064,72.0,30,60,4.0,0.0
1065,71.0,0,30,0.0,0.0
1066,71.0,30,30,4.0,0.0
1067,69.0,0,30,4.0,0.0
1068,69.0,60,30,0.0,0.0
1069,71.0,2,120,0.0,0.0
1070,71.0,0,120,4.0,0.0
1071,65.0,28,30,5.0,0.0
1072,65.0,0,30,1.0,0.0
1073,67.0,0,30,5.0,0.0
1074,67.0,60,30,1.0,0.0
1075,79.0,0,60,0.0,0.0
1076,64.0,30,60,5.0,0.0
1077,79.0,0,60,4.0,0.0
1078,64.0,0,60,1.0,0.0
1079,72.0,60,120,4.0,0.0
1080,72.0,0,120,0.0,0.0
1081,81.0,0,30,4.0,0.0
1082,65.0,30,30,5.0,0.0
1083,81.0,0,30,0.0,0.0
1084,65.0,0,30,1.0,0.0
1085,79.0,0,30,0.0,0.0
1086,64.0,0,30,5.0,0.0
1087,64.0,0,30,1.0,0.0
1088,79.0,0,30,4.0,0.0
1089,71.0,0,120,0.0,0.0
1090,77.0,0,60,0.0,0.0
1091,62.0,0,60,1.0,0.0
1092,71.0,60,120,4.0,0.0
1093,62.0,30,60,5.0,0.0
1094,77.0,0,60,4.0,0.0
1095,79.0,0,30,0.0,0.0
1096,64.0,0,30,1.0,0.0
1097,64.0,30,30,5.0,0.0
1098,79.0,0,30,4.0,0.0
1099,62.0,0,30,5.0,0.0
1100,77.0,0,30,4.0,0.0
1101,77.0,0,30,0.0,0.0
1102,62.0,0,30,1.0,0.0
1103,76.0,0,180,0.0,0.0
1104,60.0,0,180,5.0,0.0
1105,76.0,0,180,4.0,0.0
1106,60.0,30,180,1.0,0.0
1107,71.0,30,60,4.0,0.0
1108,71.0,0,60,0.0,0.0
1109,72.0,30,30,4.0,0.0
1110,72.0,0,30,0.0,0.0
1111,71.0,60,30,0.0,0.0
1112,71.0,0,30,4.0,0.0
1113,69.0,0,120,4.0,0.0
1114,69.0,0,120,0.0,0.0
1115,77.0,0,30,4.0,0.0
1116,77.0,0,30,0.0,0.0
1117,62.0,0,30,1.0,0.0
1118,62.0,30,30,5.0,0.0
1119,60.0,60,30,1.0,0.0
1120,76.0,0,30,0.0,0.0
1121,76.0,0,30,4.0,0.0
1122,60.0,0,30,5.0,0.0
1123,74.0,30,180,4.0,0.0
1124,69.0,30,60,4.0,0.0
1125,59.0,0,180,5.0,0.0
1126,69.0,0,60,0.0,0.0
1127,74.0,0,180,0.0,0.0
1128,59.0,0,180,1.0,0.0
1129,71.0,0,30,0.0,0.0
1130,71.0,30,30,4.0,0.0
1131,69.0,0,30,4.0,0.0
1132,69.0,60,30,0.0,0.0
1133,67.0,0,120,4.0,0.0
1134,67.0,0,120,0.0,0.0
1135,76.0,0,30,4.0,0.0
1136,60.0,30,30,1.0,0.0
1137,76.0,0,30,0.0,0.0
1138,60.0,0,30,5.0,0.0
1139,74.0,0,30,4.0,0.0
1140,74.0,0,30,0.0,0.0
1141,59.0,0,30,1.0,0.0
1142,59.0,60,30,5.0,0.0
1143,67.0,0,60,4.0,0.0
1144,72.0,30,180,4.0,0.0
1145,57.0,30,60,5.0,0.0
1146,67.0,0,60,0.0,0.0
1147,57.0,0,60,1.0,0.0
1148,72.0,0,180,0.0,0.0
1149,69.0,0,30,4.0,0.0
1150,69.0,30,30,0.0,0.0
1151,59.0,0,60,5.0,0.0
1152,59.0,0,60,1.0,0.0
1153,67.0,0,30,4.0,0.0
1154,67.0,60,30,0.0,0.0
1155,60.0,0,120,5.0,0.0
1156,66.0,0,120,0.0,0.0
1157,66.0,60,120,4.0,0.0
1158,60.0,0,120,1.0,0.0
1159,74.0,0,30,0.0,0.0
1160,74.0,30,30,4.0,0.0
1161,72.0,0,30,0.0,0.0
1162,72.0,0,30,4.0,0.0
1163,62.0,0,120,1.0,0.0
1164,71.0,0,120,4.0,0.0
1165,67.0,0,240,4.0,0.0
1166,62.0,60,120,5.0,0.0
1167,71.0,0,120,0.0,0.0
1168,67.0,0,240,0.0,0.0
1169,55.0,0,30,2.0,0.0
1170,31.0,30,30,6.0,0.0
1171,43.0,0,30,3.0,0.0
1172,53.0,0,30,2.0,0.0
1173,29.0,0,30,6.0,0.0
1174,41.0,0,30,3.0,0.0
1175,52.0,30,60,2.0,0.0
1176,72.0,0,120,0.0,0.0
1177,64.0,0,120,5.0,0.0
1178,40.0,0,60,3.0,0.0
1179,64.0,60,120,1.0,0.0
1180,28.0,0,60,6.0,0.0
1181,72.0,0,120,4.0,0.0
1182,50.0,30,30,2.0,0.0
1183,26.0,0,30,6.0,0.0
1184,38.0,0,30,3.0,0.0
1185,24.0,0,30,6.0,0.0
1186,36.0,0,30,3.0,0.0
1187,48.0,0,30,2.0,0.0
1188,71.0,0,120,0.0,0.0
1189,74.0,0,120,0.0,0.0
1190,74.0,0,120,4.0,0.0
1191,23.0,30,60,6.0,0.0
1192,47.0,0,60,2.0,0.0
1193,35.0,0,60,3.0,0.0
1194,67.0,0,240,5.0,0.0
1195,67.0,0,240,1.0,0.0
1196,71.0,0,120,4.0,0.0
1197,31.0,30,30,3.0,0.0
1198,19.0,0,30,6.0,0.0
1199,43.0,0,30,2.0,0.0
1200,17.0,0,30,6.0,0.0
1201,41.0,0,30,2.0,0.0
1202,29.0,60,30,3.0,0.0
1203,72.0,30,300,4.0,0.0
1204,72.0,0,300,0.0,0.0
1205,76.0,30,180,4.0,0.0
1206,76.0,0,180,0.0,0.0
1207,40.0,30,60,2.0,0.0
1208,28.0,0,60,3.0,0.0
1209,16.0,0,60,6.0,0.0
1210,26.0,0,30,3.0,0.0
1211,14.0,30,30,6.0,0.0
1212,38.0,0,30,2.0,0.0
1213,12.0,60,30,6.0,0.0
1214,24.0,0,30,3.0,0.0
1215,36.0,0,30,2.0,0.0
1216,41.0,0,120,2.0,0.0
1217,17.0,0,120,6.0,0.0
1218,69.0,0,120,1.0,0.0
1219,29.0,60,120,3.0,0.0
1220,69.0,0,120,5.0,0.0
1221,77.0,30,30,4.0,0.0
1222,77.0,0,30,0.0,0.0
1223,76.0,0,30,4.0,0.0
1224,76.0,0,30,0.0,0.0
1225,41.0,0,120,3.0,0.0
1226,29.0,0,120,6.0,0.0
1227,62.0,0,120,1.0,0.0
1228,53.0,60,120,2.0,0.0
1229,62.0,0,120,5.0,0.0
1230,74.0,0,180,4.0,0.0
1231,74.0,30,180,0.0,0.0
1232,71.0,30,30,4.0,0.0
1233,71.0,0,30,0.0,0.0
1234,69.0,0,30,4.0,0.0
1235,69.0,0,30,0.0,0.0
1236,67.0,59,240,5.0,0.0
1237,71.0,30,180,0.0,0.0
1238,71.0,0,180,4.0,0.0
1239,43.0,0,840,3.0,0.0
1240,67.0,0,240,1.0,0.0
1241,31.0,0,840,6.0,0.0
1242,55.0,59,840,2.0,0.0
1243,76.0,0,30,4.0,0.0
1244,76.0,30,30,0.0,0.0
1245,77.0,60,30,4.0,0.0
1246,77.0,0,30,0.0,0.0
1247,76.0,30,180,0.0,0.0
1248,76.0,0,180,4.0,0.0
1249,72.0,0,30,4.0,0.0
1250,72.0,30,30,0.0,0.0
1251,74.0,0,30,4.0,0.0
1252,74.0,1,30,0.0,0.0
1253,72.0,0,180,4.0,0.0
1254,72.0,30,180,0.0,0.0
1255,77.0,30,30,0.0,0.0
1256,77.0,0,30,4.0,0.0
1257,76.0,60,30,4.0,0.0
1258,76.0,0,30,0.0,0.0
1259,74.0,0,120,0.0,0.0
1260,74.0,0,120,4.0,0.0
1261,71.0,0,30,0.0,0.0
1262,71.0,30,30,4.0,0.0
1263,69.0,60,30,4.0,0.0
1264,69.0,0,30,0.0,0.0
1265,74.0,0,60,4.0,0.0
1266,71.0,0,240,4.0,0.0
1267,74.0,30,60,0.0,0.0
1268,71.0,60,240,0.0,0.0
1269,76.0,0,30,4.0,0.0
1270,76.0,30,30,0.0,0.0
1271,77.0,60,30,4.0,0.0
1272,77.0,0,30,0.0,0.0
1273,79.0,0,60,0.0,0.0
1274,79.0,30,60,4.0,0.0
1275,81.0,0,30,0.0,0.0
1276,81.0,30,30,4.0,0.0
1277,83.0,0,30,4.0,0.0
1278,83.0,0,30,0.0,0.0
1279,72.0,30,60,4.0,0.0
1280,69.0,0,240,4.0,0.0
1281,64.0,0,120,5.0,0.0
1282,69.0,0,240,0.0,0.0
1283,64.0,1,120,1.0,0.0
1284,72.0,0,60,0.0,0.0
1285,71.0,0,30,0.0,0.0
1286,71.0,30,30,4.0,0.0
1287,72.0,0,30,0.0,0.0
1288,72.0,0,30,4.0,0.0
1289,62.0,0,240,5.0,0.0
1290,62.0,0,240,1.0,0.0
1291,53.0,0,120,2.0,0.0
1292,41.0,0,120,3.0,0.0
1293,29.0,60,120,6.0,0.0
1294,74.0,0,60,4.0,0.0
1295,74.0,30,60,0.0,0.0
1296,76.0,30,30,4.0,0.0
1297,76.0,0,30,0.0,0.0
1298,77.0,0,30,0.0,0.0
1299,77.0,0,30,4.0,0.0
1300,29.0,30,60,6.0,0.0
1301,53.0,0,60,2.0,0.0
1302,41.0,0,60,3.0,0.0
1303,71.0,0,120,0.0,0.0
1304,71.0,0,120,4.0,0.0
1305,67.0,0,240,4.0,0.0
1306,67.0,0,240,0.0,0.0
1307,55.0,0,30,2.0,0.0
1308,31.0,30,30,6.0,0.0
1309,43.0,0,30,3.0,0.0
1310,41.0,0,30,3.0,0.0
1311,29.0,60,30,6.0,0.0
1312,53.0,0,30,2.0,0.0
1313,52.0,0,60,2.0,0.0
1314,72.0,0,150,0.0,0.0
1315,64.0,0,120,5.0,0.0
1316,40.0,0,60,3.0,0.0
1317,64.0,0,120,1.0,0.0
1318,72.0,29,150,4.0,0.0
1319,28.0,30,60,6.0,0.0
1320,38.0,30,30,3.0,0.0
1321,50.0,0,30,2.0,0.0
1322,26.0,0,30,6.0,0.0
1323,48.0,0,30,2.0,0.0
1324,24.0,0,30,6.0,0.0
1325,36.0,31,30,3.0,0.0
1326,67.0,0,480,4.0,0.0
1327,64.0,30,60,1.0,0.0
1328,67.0,0,480,0.0,0.0
1329,64.0,0,60,5.0,0.0
1330,55.0,0,1200,2.0,0.0
1331,31.0,0,1200,6.0,0.0
1332,43.0,0,1200,3.0,0.0
1333,74.0,0,30,0.0,0.0
1334,74.0,0,30,4.0,0.0
1335,71.0,0,30,4.0,0.0
1336,62.0,30,60,5.0,0.0
1337,62.0,0,60,1.0,0.0
1338,71.0,30,30,0.0,0.0
1339,74.0,0,30,0.0,0.0
1340,74.0,0,30,4.0,0.0
1341,64.0,0,60,5.0,0.0
1342,64.0,0,60,1.0,0.0
1343,72.0,30,30,4.0,0.0
1344,72.0,0,30,0.0,0.0
1345,74.0,0,30,0.0,0.0
1346,74.0,30,30,4.0,0.0
1347,62.0,30,60,5.0,0.0
1348,62.0,0,60,1.0,0.0
1349,71.0,0,30,0.0,0.0
1350,71.0,30,30,4.0,0.0
1351,74.0,0,30,0.0,0.0
1352,74.0,0,30,4.0,0.0
1353,64.0,30,60,5.0,0.0
1354,72.0,30,30,4.0,0.0
1355,64.0,0,60,1.0,0.0
1356,72.0,0,30,0.0,0.0
1357,76.0,0,30,0.0,0.0
1358,76.0,0,30,4.0,0.0
1359,74.0,0,30,4.0,0.0
1360,59.0,0,60,5.0,0.0
1361,74.0,30,30,0.0,0.0
1362,59.0,0,60,1.0,0.0
1363,77.0,30,30,4.0,0.0
1364,77.0,0,30,0.0,0.0
1365,60.0,0,60,5.0,0.0
1366,76.0,0,30,4.0,0.0
1367,60.0,0,60,1.0,0.0
1368,76.0,30,30,0.0,0.0
1369,79.0,30,30,4.0,0.0
1370,79.0,0,30,0.0,0.0
1371,62.0,0,60,1.0,0.0
1372,62.0,30,60,5.0,0.0
1373,77.0,0,30,4.0,0.0
1374,77.0,30,30,0.0,0.0
1375,81.0,0,30,0.0,0.0
1376,81.0,0,30,4.0,0.0
1377,79.0,30,30,0.0,0.0
1378,79.0,0,30,4.0,0.0
1379,67.0,0,60,4.0,0.0
1380,64.0,30,150,5.0,0.0
1381,64.0,0,150,1.0,0.0
1382,67.0,30,60,0.0,0.0
1383,69.0,30,30,4.0,0.0
1384,69.0,0,30,0.0,0.0
1385,71.0,0,30,0.0,0.0
1386,71.0,30,30,4.0,0.0
1387,72.0,0,150,4.0,0.0
1388,72.0,30,150,0.0,0.0
1389,64.0,0,30,1.0,0.0
1390,64.0,30,30,5.0,0.0
1391,62.0,30,30,1.0,0.0
1392,62.0,0,30,5.0,0.0
1393,60.0,0,30,1.0,0.0
1394,60.0,30,30,5.0,0.0
1395,62.0,86,360,1.0,0.0
1396,62.0,0,360,5.0,0.0
1397,76.0,30,30,4.0,0.0
1398,76.0,0,30,0.0,0.0
1399,74.0,0,30,0.0,0.0
1400,74.0,30,30,4.0,0.0
1401,76.0,30,30,0.0,0.0
1402,76.0,0,30,4.0,0.0
1403,77.0,30,30,4.0,0.0
1404,77.0,0,30,0.0,0.0
1405,74.0,0,30,4.0,0.0
1406,74.0,30,30,0.0,0.0
1407,76.0,30,30,4.0,0.0
1408,76.0,0,30,0.0,0.0
1409,77.0,60,30,4.0,0.0
1410,77.0,0,30,0.0,0.0
1411,67.0,0,240,4.0,0.0
1412,71.0,0,60,4.0,0.0
1413,67.0,0,240,0.0,0.0
1414,71.0,30,60,0.0,0.0
1415,72.0,0,30,4.0,0.0
1416,72.0,30,30,0.0,0.0
1417,74.0,0,30,4.0,0.0
1418,74.0,4,30,0.0,0.0
1419,65.0,0,120,5.0,0.0
1420,72.0,30,90,0.0,0.0
1421,65.0,0,120,1.0,0.0
1422,72.0,0,90,4.0,0.0
1423,71.0,60,30,0.0,0.0
1424,71.0,0,30,4.0,0.0
1425,48.0,0,60,2.0,0.0
1426,64.0,60,120,5.0,0.0
1427,24.0,30,60,6.0,0.0
1428,64.0,0,120,1.0,0.0
1429,72.0,480,720,0.0,0.0
1430,67.0,0,120,0.0,0.0
1431,36.0,0,60,3.0,0.0
1432,72.0,0,720,4.0,0.0
1433,67.0,0,120,4.0,0.0
1434,36.0,30,30,6.0,0.0
1435,60.0,0,30,2.0,0.0
1436,48.0,0,30,3.0,0.0
1437,46.0,0,30,3.0,0.0
1438,58.0,0,30,2.0,0.0
1439,34.0,0,30,6.0,0.0
1440,45.0,30,60,3.0,0.0
1441,33.0,0,60,6.0,0.0
1442,65.0,0,120,4.0,0.0
1443,60.0,0,120,1.0,0.0
1444,57.0,0,60,2.0,0.0
1445,65.0,0,120,0.0,0.0
1446,60.0,90,120,5.0,0.0
1447,43.0,30,30,3.0,0.0
1448,31.0,0,30,6.0,0.0
1449,55.0,0,30,2.0,0.0
1450,41.0,0,30,3.0,0.0
1451,29.0,0,30,6.0,0.0
1452,53.0,0,30,2.0,0.0
1453,40.0,0,120,3.0,0.0
1454,28.0,0,120,6.0,0.0
1455,52.0,0,120,2.0,0.0
1456,67.0,0,120,0.0,0.0
1457,67.0,0,120,4.0,0.0
1458,60.0,0,30,5.0,0.0
1459,60.0,30,30,1.0,0.0
1460,58.0,60,30,1.0,0.0
1461,58.0,0,30,5.0,0.0
1462,29.0,0,120,6.0,0.0
1463,41.0,60,120,3.0,0.0
1464,57.0,30,60,5.0,0.0
1465,65.0,0,180,4.0,0.0
1466,57.0,0,60,1.0,0.0
1467,53.0,0,120,2.0,0.0
1468,65.0,30,180,0.0,0.0
1469,55.0,30,30,1.0,0.0
1470,55.0,0,30,5.0,0.0
1471,53.0,0,30,1.0,0.0
1472,53.0,0,30,5.0,0.0
1473,36.0,0,720,3.0,0.0
1474,48.0,0,720,2.0,0.0
1475,55.0,30,180,5.0,0.0
1476,55.0,0,180,1.0,0.0
1477,24.0,0,720,6.0,0.0
1478,67.0,0,30,4.0,0.0
1479,67.0,30,30,0.0,0.0
1480,65.0,0,30,4.0,0.0
1481,65.0,30,30,0.0,0.0
1482,64.0,0,30,4.0,0.0
1483,64.0,30,30,0.0,0.0
1484,65.0,0,30,0.0,0.0
1485,65.0,0,30,4.0,0.0
1486,62.0,30,30,4.0,0.0
1487,62.0,0,30,0.0,0.0
1488,53.0,0,60,1.0,0.0
1489,53.0,0,60,5.0,0.0
1490,65.0,0,30,4.0,0.0
1491,65.0,0,30,0.0,0.0
1492,72.0,0,480,4.0,0.0
1493,64.0,0,480,4.0,0.0
1494,64.0,0,480,0.0,0.0
1495,72.0,0,480,0.0,0.0
1496,55.0,0,480,1.0,0.0
1497,55.0,0,480,5.0,0.0
