,note,step,duration,channel,velocity
0,58.0,0,120,0.0,64.0
1,62.0,120,120,0.0,64.0
2,70.0,0,290,0.0,64.0
3,60.0,120,120,0.0,64.0
4,70.0,60,60,0.0,64.0
5,69.0,0,60,0.0,64.0
6,67.0,60,60,0.0,64.0
7,58.0,60,120,0.0,64.0
8,65.0,60,120,0.0,64.0
9,57.0,0,120,0.0,64.0
10,67.0,120,120,0.0,64.0
11,55.0,0,120,0.0,64.0
12,62.0,0,60,0.0,64.0
13,53.0,120,120,0.0,64.0
14,63.0,60,60,0.0,64.0
15,51.0,60,120,0.0,64.0
16,65.0,0,120,0.0,64.0
17,58.0,0,60,0.0,64.0
18,53.0,60,60,0.0,64.0
19,58.0,60,60,0.0,64.0
20,50.0,120,240,0.0,64.0
21,62.0,60,60,0.0,64.0
22,77.0,0,180,0.0,64.0
23,75.0,60,60,0.0,64.0
24,60.0,0,120,0.0,64.0
25,74.0,60,60,0.0,64.0
26,72.0,60,60,0.0,64.0
27,53.0,60,240,0.0,64.0
28,70.0,60,120,0.0,64.0
29,63.0,0,240,0.0,64.0
30,62.0,120,60,0.0,64.0
31,64.0,60,50,0.0,64.0
32,55.0,0,240,0.0,64.0
33,74.0,0,120,0.0,64.0
34,65.0,0,30,0.0,64.0
35,64.0,30,30,0.0,50.0
36,69.0,0,60,0.0,64.0
37,65.0,0,30,0.0,56.0
38,70.0,30,60,0.0,64.0
39,64.0,15,105,0.0,59.0
40,62.0,60,30,0.0,64.0
41,64.0,30,30,0.0,64.0
42,60.0,60,240,0.0,64.0
43,72.0,45,120,0.0,64.0
44,77.0,60,60,0.0,64.0
45,74.0,60,60,0.0,64.0
46,65.0,30,240,0.0,64.0
47,70.0,60,60,0.0,64.0
48,62.0,0,290,0.0,64.0
49,75.0,60,120,0.0,64.0
50,67.0,0,120,0.0,64.0
51,62.0,60,60,0.0,64.0
52,58.0,0,60,0.0,64.0
53,55.0,60,60,0.0,64.0
54,70.0,60,120,0.0,64.0
55,79.0,0,180,0.0,64.0
56,60.0,60,120,0.0,64.0
57,63.0,60,0,0.0,64.0
58,75.0,60,60,0.0,64.0
59,72.0,0,60,0.0,64.0
60,69.0,60,60,0.0,64.0
61,67.0,0,120,0.0,64.0
62,69.0,60,120,0.0,64.0
63,60.0,60,60,0.0,64.0
64,72.0,60,0,0.0,64.0
65,57.0,0,60,0.0,64.0
66,77.0,0,120,0.0,64.0
67,53.0,60,60,0.0,64.0
68,65.0,60,60,0.0,64.0
69,70.0,60,60,0.0,64.0
70,74.0,60,60,0.0,64.0
71,58.0,60,290,0.0,64.0
72,67.0,60,120,0.0,64.0
73,58.0,60,60,0.0,64.0
74,57.0,60,60,0.0,64.0
75,70.0,0,120,0.0,64.0
76,55.0,60,60,0.0,64.0
77,76.0,0,240,0.0,64.0
78,53.0,0,120,0.0,64.0
79,69.0,60,120,0.0,64.0
80,77.0,0,120,0.0,64.0
81,62.0,120,60,0.0,64.0
82,55.0,0,120,0.0,64.0
83,63.0,60,60,0.0,64.0
84,65.0,0,60,0.0,64.0
85,50.0,60,60,0.0,64.0
86,67.0,60,60,0.0,64.0
87,51.0,0,60,0.0,64.0
88,70.0,0,240,0.0,64.0
89,63.0,60,60,0.0,64.0
90,53.0,0,120,0.0,64.0
91,65.0,60,60,0.0,64.0
92,62.0,60,60,0.0,64.0
93,65.0,60,60,0.0,64.0
94,46.0,0,120,0.0,64.0
95,69.0,0,240,0.0,64.0
96,58.0,60,60,0.0,64.0
97,60.0,60,60,0.0,64.0
98,51.0,0,120,0.0,64.0
99,62.0,0,60,0.0,64.0
100,46.0,60,60,0.0,64.0
101,48.0,60,60,0.0,64.0
102,63.0,0,60,0.0,64.0
103,67.0,0,240,0.0,64.0
104,60.0,0,60,0.0,64.0
105,50.0,60,120,0.0,64.0
106,62.0,60,60,0.0,64.0
107,58.0,60,60,0.0,64.0
108,65.0,0,240,0.0,64.0
109,43.0,0,120,0.0,64.0
110,62.0,60,60,0.0,64.0
111,55.0,60,60,0.0,64.0
112,57.0,60,60,0.0,64.0
113,48.0,0,120,0.0,64.0
114,43.0,60,60,0.0,64.0
115,58.0,0,60,0.0,64.0
116,63.0,0,240,0.0,64.0
117,60.0,0,60,0.0,64.0
118,45.0,60,60,0.0,64.0
119,56.0,60,60,0.0,64.0
120,46.0,0,120,0.0,64.0
121,58.0,60,60,0.0,64.0
122,62.0,0,180,0.0,64.0
123,39.0,60,120,0.0,64.0
124,67.0,60,60,0.0,64.0
125,63.0,0,60,0.0,64.0
126,55.0,0,240,0.0,64.0
127,60.0,60,60,0.0,64.0
128,51.0,60,180,0.0,64.0
129,53.0,0,120,0.0,64.0
130,69.0,60,120,0.0,64.0
131,60.0,60,60,0.0,64.0
132,57.0,0,60,0.0,64.0
133,53.0,60,60,0.0,64.0
134,72.0,60,180,0.0,64.0
135,65.0,60,60,0.0,64.0
136,50.0,60,120,0.0,64.0
137,70.0,60,60,0.0,64.0
138,55.0,0,120,0.0,64.0
139,74.0,60,60,0.0,64.0
140,51.0,0,60,0.0,64.0
141,48.0,60,60,0.0,64.0
142,72.0,60,120,0.0,64.0
143,53.0,60,60,0.0,64.0
144,57.0,60,60,0.0,64.0
145,70.0,0,30,0.0,64.0
146,46.0,60,60,0.0,64.0
147,69.0,30,30,0.0,64.0
148,58.0,30,60,0.0,64.0
149,75.0,0,240,0.0,64.0
150,55.0,60,60,0.0,64.0
151,50.0,60,60,0.0,64.0
152,53.0,60,33,0.0,68.0
153,70.0,0,230,0.0,64.0
154,51.0,30,33,0.0,51.0
155,53.0,0,33,0.0,53.0
156,74.0,0,240,0.0,64.0
157,70.0,30,60,0.0,64.0
158,51.0,30,33,0.0,55.0
159,53.0,30,33,0.0,57.0
160,69.0,0,60,0.0,64.0
161,51.0,30,33,0.0,59.0
162,53.0,30,33,0.0,61.0
163,67.0,0,60,0.0,64.0
164,72.0,0,120,0.0,64.0
165,51.0,30,33,0.0,63.0
166,50.0,30,60,0.0,64.0
167,74.0,0,120,0.0,64.0
168,60.0,60,60,0.0,64.0
169,66.0,0,120,0.0,64.0
170,58.0,60,60,0.0,64.0
171,67.0,0,120,0.0,64.0
172,57.0,60,60,0.0,64.0
173,55.0,0,60,0.0,64.0
174,62.0,60,60,0.0,64.0
175,64.0,60,60,0.0,64.0
176,58.0,0,60,0.0,64.0
177,56.0,0,60,0.0,64.0
178,65.0,60,120,0.0,64.0
179,55.0,60,60,0.0,64.0
180,53.0,0,60,0.0,64.0
181,56.0,60,60,0.0,64.0
182,55.0,60,60,0.0,64.0
183,53.0,60,60,0.0,64.0
184,59.0,60,240,0.0,64.0
185,79.0,0,180,0.0,64.0
186,79.0,60,60,0.0,64.0
187,51.0,60,120,0.0,64.0
188,77.0,60,60,0.0,64.0
189,48.0,0,120,0.0,64.0
190,75.0,60,60,0.0,64.0
191,53.0,60,60,0.0,64.0
192,60.0,0,360,0.0,64.0
193,74.0,0,120,0.0,64.0
194,51.0,60,60,0.0,64.0
195,53.0,0,60,0.0,64.0
196,68.0,0,120,0.0,64.0
197,55.0,60,60,0.0,64.0
198,77.0,60,120,0.0,64.0
199,56.0,60,60,0.0,64.0
200,71.0,0,60,0.0,64.0
201,62.0,0,60,0.0,64.0
202,63.0,0,60,0.0,64.0
203,55.0,0,60,0.0,64.0
204,72.0,60,60,0.0,64.0
205,53.0,0,60,0.0,64.0
206,65.0,60,120,0.0,64.0
207,74.0,0,120,0.0,64.0
208,51.0,60,60,0.0,64.0
209,53.0,60,60,0.0,64.0
210,67.0,0,120,0.0,64.0
211,59.0,0,120,0.0,64.0
212,56.0,60,60,0.0,64.0
213,55.0,60,60,0.0,64.0
214,62.0,0,120,0.0,64.0
215,53.0,60,60,0.0,64.0
216,71.0,0,120,0.0,64.0
217,67.0,60,60,0.0,64.0
218,51.0,0,60,0.0,64.0
219,50.0,0,60,0.0,64.0
220,70.0,60,60,0.0,64.0
221,48.0,0,60,0.0,64.0
222,68.0,60,60,0.0,64.0
223,46.0,0,60,0.0,64.0
224,67.0,60,60,0.0,64.0
225,44.0,60,60,0.0,64.0
226,48.0,60,60,0.0,64.0
227,65.0,0,120,0.0,64.0
228,53.0,0,60,0.0,64.0
229,72.0,0,480,0.0,64.0
230,68.0,60,120,0.0,64.0
231,56.0,60,60,0.0,64.0
232,62.0,0,60,0.0,64.0
233,63.0,60,60,0.0,64.0
234,55.0,0,120,0.0,64.0
235,43.0,0,120,0.0,64.0
236,71.0,60,240,0.0,64.0
237,65.0,60,170,0.0,64.0
238,65.0,60,60,0.0,64.0
239,48.0,120,120,0.0,64.0
240,64.0,0,60,0.0,64.0
241,62.0,60,60,0.0,64.0
242,60.0,60,180,0.0,64.0
243,58.0,60,60,0.0,64.0
244,64.0,60,120,0.0,64.0
245,57.0,60,60,0.0,64.0
246,55.0,60,60,0.0,64.0
247,70.0,0,180,0.0,64.0
248,69.0,60,60,0.0,64.0
249,53.0,60,120,0.0,64.0
250,67.0,0,60,0.0,64.0
251,57.0,60,120,0.0,64.0
252,65.0,60,60,0.0,64.0
253,52.0,0,60,0.0,64.0
254,67.0,60,60,0.0,64.0
255,53.0,60,60,0.0,64.0
256,69.0,0,60,0.0,64.0
257,70.0,0,60,0.0,64.0
258,55.0,60,120,0.0,64.0
259,67.0,60,60,0.0,64.0
260,64.0,0,60,0.0,64.0
261,67.0,60,60,0.0,64.0
262,64.0,60,60,0.0,64.0
263,60.0,60,60,0.0,64.0
264,45.0,60,290,0.0,64.0
265,72.0,0,1310,0.0,64.0
266,57.0,60,60,0.0,64.0
267,65.0,60,120,0.0,64.0
268,53.0,0,60,0.0,64.0
269,69.0,60,120,0.0,64.0
270,50.0,60,60,0.0,64.0
271,46.0,60,60,0.0,64.0
272,77.0,0,180,0.0,64.0
273,76.0,60,60,0.0,64.0
274,50.0,0,60,0.0,64.0
275,74.0,60,60,0.0,64.0
276,46.0,0,60,0.0,64.0
277,43.0,0,60,0.0,64.0
278,76.0,60,60,0.0,64.0
279,77.0,0,30,0.0,70.0
280,76.0,30,33,0.0,48.0
281,74.0,30,33,0.0,51.0
282,48.0,60,120,0.0,64.0
283,76.0,30,33,0.0,54.0
284,77.0,0,33,0.0,57.0
285,76.0,30,33,0.0,60.0
286,77.0,30,55,0.0,70.0
287,67.0,0,480,0.0,64.0
288,36.0,30,120,0.0,64.0
289,41.0,60,60,0.0,64.0
290,77.0,0,120,0.0,64.0
291,55.0,60,60,0.0,64.0
292,53.0,60,60,0.0,64.0
293,69.0,0,240,0.0,64.0
294,52.0,60,60,0.0,64.0
295,81.0,0,180,0.0,64.0
296,81.0,60,60,0.0,64.0
297,50.0,0,120,0.0,64.0
298,79.0,60,60,0.0,64.0
299,52.0,0,60,0.0,64.0
300,77.0,0,60,0.0,64.0
301,53.0,60,60,0.0,64.0
302,70.0,60,290,0.0,64.0
303,76.0,0,120,0.0,64.0
304,69.0,60,60,0.0,64.0
305,67.0,0,60,0.0,64.0
306,65.0,60,60,0.0,64.0
307,79.0,60,120,0.0,64.0
308,73.0,0,60,0.0,64.0
309,64.0,60,120,0.0,64.0
310,74.0,60,60,0.0,64.0
311,67.0,0,120,0.0,64.0
312,76.0,60,120,0.0,64.0
313,55.0,60,530,0.0,64.0
314,61.0,0,60,0.0,64.0
315,62.0,60,60,0.0,64.0
316,58.0,0,60,0.0,64.0
317,57.0,60,60,0.0,64.0
318,69.0,120,180,0.0,64.0
319,71.0,0,60,0.0,64.0
320,55.0,60,60,0.0,64.0
321,64.0,0,120,0.0,64.0
322,72.0,0,60,0.0,64.0
323,54.0,0,60,0.0,64.0
324,50.0,0,60,0.0,64.0
325,71.0,60,60,0.0,64.0
326,57.0,60,120,0.0,64.0
327,52.0,0,60,0.0,64.0
328,72.0,0,60,0.0,64.0
329,74.0,60,60,0.0,64.0
330,54.0,0,60,0.0,64.0
331,55.0,0,60,0.0,64.0
332,71.0,60,60,0.0,64.0
333,69.0,0,60,0.0,64.0
334,54.0,60,60,0.0,64.0
335,55.0,0,60,0.0,64.0
336,71.0,0,60,0.0,64.0
337,73.0,60,60,0.0,64.0
338,57.0,0,60,0.0,64.0
339,67.0,60,180,0.0,64.0
340,65.0,60,60,0.0,64.0
341,58.0,0,120,0.0,64.0
342,67.0,60,60,0.0,64.0
343,69.0,60,60,0.0,64.0
344,57.0,0,120,0.0,64.0
345,70.0,0,60,0.0,64.0
346,55.0,60,60,0.0,64.0
347,67.0,0,60,0.0,64.0
348,52.0,60,60,0.0,64.0
349,69.0,60,60,0.0,64.0
350,53.0,0,60,0.0,64.0
351,70.0,0,60,0.0,64.0
352,55.0,60,60,0.0,64.0
353,74.0,60,480,0.0,64.0
354,64.0,60,60,0.0,64.0
355,57.0,0,120,0.0,64.0
356,70.0,60,60,0.0,64.0
357,69.0,0,60,0.0,64.0
358,73.0,0,240,0.0,64.0
359,45.0,60,120,0.0,64.0
360,67.0,60,60,0.0,64.0
361,50.0,0,60,0.0,64.0
362,57.0,60,60,0.0,64.0
363,74.0,0,120,0.0,64.0
364,53.0,60,60,0.0,64.0
365,65.0,60,240,0.0,64.0
366,50.0,60,60,0.0,64.0
367,77.0,0,180,0.0,64.0
368,62.0,60,120,0.0,64.0
369,75.0,60,60,0.0,64.0
370,74.0,60,60,0.0,64.0
371,72.0,60,60,0.0,64.0
372,65.0,0,180,0.0,64.0
373,71.0,60,120,0.0,64.0
374,63.0,60,60,0.0,64.0
375,62.0,60,60,0.0,64.0
376,74.0,0,120,0.0,64.0
377,60.0,60,60,0.0,64.0
378,67.0,0,60,0.0,64.0
379,59.0,60,120,0.0,64.0
380,69.0,60,60,0.0,64.0
381,70.0,0,20,0.0,70.0
382,69.0,20,20,0.0,56.0
383,55.0,60,120,0.0,64.0
384,70.0,20,80,0.0,64.0
385,60.0,0,60,0.0,64.0
386,55.0,60,60,0.0,64.0
387,51.0,0,60,0.0,64.0
388,48.0,60,60,0.0,64.0
389,63.0,80,240,0.0,64.0
390,72.0,60,180,0.0,64.0
391,58.0,60,60,0.0,64.0
392,70.0,60,60,0.0,64.0
393,62.0,0,60,0.0,64.0
394,69.0,60,60,0.0,64.0
395,60.0,0,60,0.0,64.0
396,58.0,60,60,0.0,64.0
397,67.0,0,60,0.0,64.0
398,57.0,0,60,0.0,64.0
399,55.0,60,60,0.0,64.0
400,65.0,60,120,0.0,64.0
401,75.0,0,360,0.0,64.0
402,74.0,0,60,0.0,64.0
403,53.0,60,60,0.0,64.0
404,72.0,0,60,0.0,64.0
405,51.0,60,60,0.0,64.0
406,69.0,0,120,0.0,64.0
407,62.0,0,60,0.0,64.0
408,70.0,0,120,0.0,64.0
409,63.0,60,60,0.0,64.0
410,53.0,60,180,0.0,64.0
411,69.0,60,120,0.0,64.0
412,55.0,60,60,0.0,64.0
413,65.0,0,120,0.0,64.0
414,56.0,0,60,0.0,64.0
415,58.0,60,60,0.0,64.0
416,56.0,60,60,0.0,64.0
417,74.0,0,180,0.0,64.0
418,55.0,60,60,0.0,64.0
419,75.0,0,60,0.0,64.0
420,53.0,60,60,0.0,64.0
421,74.0,0,60,0.0,64.0
422,51.0,0,60,0.0,64.0
423,72.0,60,60,0.0,64.0
424,70.0,60,60,0.0,64.0
425,50.0,0,60,0.0,64.0
426,68.0,0,60,0.0,64.0
427,48.0,60,60,0.0,64.0
428,65.0,0,410,0.0,64.0
429,62.0,60,60,0.0,64.0
430,46.0,0,120,0.0,64.0
431,67.0,60,180,0.0,64.0
432,48.0,0,120,0.0,64.0
433,68.0,60,60,0.0,64.0
434,43.0,0,60,0.0,64.0
435,63.0,60,240,0.0,64.0
436,70.0,60,120,0.0,64.0
437,44.0,60,60,0.0,64.0
438,65.0,0,20,0.0,70.0
439,63.0,20,20,0.0,56.0
440,62.0,60,120,0.0,64.0
441,46.0,0,120,0.0,64.0
442,65.0,20,80,0.0,64.0
443,63.0,0,120,0.0,64.0
444,67.0,80,120,0.0,64.0
445,39.0,0,240,0.0,64.0
446,79.0,120,180,0.0,64.0
447,77.0,60,60,0.0,64.0
448,75.0,60,60,0.0,64.0
449,72.0,120,180,0.0,64.0
450,74.0,60,60,0.0,64.0
451,70.0,0,60,0.0,64.0
452,69.0,0,60,0.0,64.0
453,67.0,60,60,0.0,64.0
454,63.0,0,240,0.0,64.0
455,72.0,60,120,0.0,64.0
456,65.0,60,120,0.0,64.0
457,77.0,0,120,0.0,64.0
458,62.0,0,180,0.0,64.0
459,70.0,120,60,0.0,64.0
460,72.0,60,60,0.0,64.0
461,67.0,0,120,0.0,64.0
462,62.0,0,60,0.0,64.0
463,60.0,0,60,0.0,64.0
464,58.0,60,60,0.0,64.0
465,74.0,60,120,0.0,64.0
466,70.0,0,120,0.0,64.0
467,63.0,0,60,0.0,64.0
468,60.0,60,60,0.0,64.0
469,62.0,60,60,0.0,64.0
470,67.0,0,120,0.0,64.0
471,65.0,0,60,0.0,64.0
472,60.0,0,60,0.0,64.0
473,58.0,60,60,0.0,64.0
474,67.0,60,120,0.0,64.0
475,57.0,0,60,0.0,64.0
476,75.0,0,180,0.0,64.0
477,74.0,0,60,0.0,64.0
478,60.0,60,120,0.0,64.0
479,58.0,60,60,0.0,64.0
480,57.0,0,60,0.0,64.0
481,72.0,0,60,0.0,64.0
482,70.0,0,60,0.0,64.0
483,55.0,60,60,0.0,64.0
484,65.0,60,180,0.0,64.0
485,53.0,0,120,0.0,64.0
486,69.0,60,120,0.0,64.0
487,63.0,60,60,0.0,64.0
488,62.0,0,60,0.0,64.0
489,46.0,60,120,0.0,64.0
490,74.0,0,120,0.0,64.0
491,60.0,60,60,0.0,64.0
492,51.0,60,60,0.0,64.0
493,67.0,0,60,0.0,64.0
494,69.0,60,60,0.0,64.0
495,50.0,0,60,0.0,64.0
496,58.0,0,120,0.0,64.0
497,48.0,0,60,0.0,64.0
498,62.0,0,120,0.0,64.0
499,70.0,60,120,0.0,64.0
500,46.0,60,60,0.0,64.0
501,48.0,0,60,0.0,64.0
502,57.0,60,60,0.0,64.0
503,58.0,60,60,0.0,64.0
504,63.0,0,120,0.0,64.0
505,46.0,0,60,0.0,64.0
506,45.0,0,60,0.0,64.0
507,60.0,60,120,0.0,64.0
508,43.0,60,60,0.0,64.0
509,45.0,0,60,0.0,64.0
510,72.0,0,180,0.0,64.0
511,70.0,0,60,0.0,64.0
512,43.0,60,60,0.0,64.0
513,41.0,0,60,0.0,64.0
514,69.0,60,60,0.0,64.0
515,67.0,0,60,0.0,64.0
516,39.0,60,60,0.0,64.0
517,38.0,60,60,0.0,64.0
518,53.0,60,360,0.0,64.0
519,51.0,60,60,0.0,64.0
520,50.0,60,60,0.0,64.0
521,48.0,60,60,0.0,64.0
522,65.0,0,240,0.0,64.0
523,46.0,60,60,0.0,64.0
524,70.0,0,180,0.0,64.0
525,70.0,60,60,0.0,64.0
526,55.0,0,60,0.0,64.0
527,69.0,60,60,0.0,64.0
528,53.0,0,60,0.0,64.0
529,67.0,60,60,0.0,64.0
530,51.0,0,60,0.0,64.0
531,50.0,60,60,0.0,64.0
532,65.0,0,120,0.0,64.0
533,63.0,60,60,0.0,64.0
534,62.0,60,60,0.0,64.0
535,69.0,0,120,0.0,64.0
536,60.0,60,60,0.0,64.0
537,62.0,0,60,0.0,64.0
538,77.0,0,180,0.0,64.0
539,75.0,0,60,0.0,64.0
540,63.0,60,60,0.0,64.0
541,74.0,60,60,0.0,64.0
542,58.0,60,180,0.0,64.0
543,57.0,60,60,0.0,64.0
544,72.0,0,60,0.0,64.0
545,65.0,0,120,0.0,64.0
546,58.0,0,60,0.0,64.0
547,70.0,0,120,0.0,64.0
548,57.0,60,60,0.0,64.0
549,55.0,60,120,0.0,64.0
550,58.0,60,60,0.0,64.0
551,74.0,0,120,0.0,64.0
552,62.0,60,60,0.0,64.0
553,53.0,0,180,0.0,64.0
554,69.0,0,60,0.0,64.0
555,60.0,60,120,0.0,64.0
556,70.0,60,60,0.0,64.0
557,51.0,0,60,0.0,64.0
558,50.0,0,60,0.0,64.0
559,48.0,60,60,0.0,64.0
560,72.0,0,180,0.0,64.0
561,65.0,60,60,0.0,64.0
562,46.0,60,120,0.0,64.0
563,63.0,60,240,0.0,64.0
564,70.0,0,60,0.0,64.0
565,50.0,60,120,0.0,64.0
566,74.0,60,60,0.0,64.0
567,62.0,0,120,0.0,64.0
568,45.0,60,60,0.0,64.0
569,72.0,0,120,0.0,64.0
570,46.0,60,60,0.0,64.0
571,70.0,0,60,0.0,64.0
572,69.0,0,60,0.0,64.0
573,48.0,0,120,0.0,64.0
574,67.0,60,60,0.0,64.0
575,75.0,60,180,0.0,64.0
576,69.0,60,60,0.0,64.0
577,38.0,60,120,0.0,64.0
578,70.0,60,60,0.0,64.0
579,50.0,0,120,0.0,64.0
580,74.0,60,60,0.0,64.0
581,65.0,0,240,0.0,64.0
582,46.0,60,120,0.0,64.0
583,74.0,60,60,0.0,64.0
584,70.0,60,60,0.0,64.0
585,68.0,60,60,0.0,64.0
586,50.0,0,120,0.0,64.0
587,77.0,0,290,0.0,64.0
588,70.0,60,60,0.0,64.0
589,39.0,0,120,0.0,64.0
590,72.0,60,60,0.0,64.0
591,75.0,60,60,0.0,64.0
592,67.0,60,240,0.0,64.0
593,51.0,0,120,0.0,64.0
594,48.0,60,120,0.0,64.0
595,75.0,60,60,0.0,64.0
596,72.0,0,60,0.0,64.0
597,70.0,60,60,0.0,64.0
598,79.0,0,240,0.0,64.0
599,82.0,0,60,0.0,64.0
600,51.0,60,240,0.0,64.0
601,81.0,60,60,0.0,64.0
602,79.0,0,60,0.0,64.0
603,63.0,60,120,0.0,64.0
604,77.0,60,60,0.0,64.0
605,82.0,60,60,0.0,64.0
606,81.0,60,30,0.0,64.0
607,79.0,30,30,0.0,64.0
608,62.0,0,120,0.0,64.0
609,77.0,30,30,0.0,64.0
610,75.0,30,30,0.0,64.0
611,74.0,30,30,0.0,64.0
612,72.0,30,30,0.0,64.0
613,58.0,0,120,0.0,64.0
614,69.0,30,30,0.0,64.0
615,67.0,30,30,0.0,64.0
616,55.0,0,120,0.0,64.0
617,65.0,30,30,0.0,64.0
618,67.0,30,60,0.0,64.0
619,63.0,60,60,0.0,64.0
620,51.0,0,120,0.0,64.0
621,70.0,30,290,0.0,64.0
622,53.0,60,120,0.0,64.0
623,62.0,0,120,0.0,64.0
624,70.0,60,120,0.0,64.0
625,41.0,0,120,0.0,64.0
626,69.0,60,60,0.0,64.0
627,60.0,60,120,0.0,64.0
628,62.0,0,1440,0.0,64.0
629,70.0,0,1440,0.0,64.0
630,46.0,60,1440,0.0,64.0
